0, 0, Header, 1, 3, 240
1, 0, Start_track
1, 0, Time_signature, 3, 3, 12, 8
1, 0, Key_signature, 1, "major"
1, 0, Tempo, 652174
1, 0, Marker_t, "(c) Yo Tomita"
1, 77236, Tempo, 718563
1, 77280, Tempo, 789474
1, 77314, Tempo, 902256
1, 77352, Tempo, 1100917
1, 77352, End_track
2, 0, Start_track
2, 0, MIDI_port, 0
2, 0, Title_t, "BWV 879/1"
2, 0, Program_c, 0, 6
2, 60, Note_on_c, 0, 67, 64
2, 120, Note_on_c, 0, 67, 0
2, 120, Note_on_c, 0, 69, 64
2, 180, Note_on_c, 0, 69, 0
2, 180, Note_on_c, 0, 71, 64
2, 240, Note_on_c, 0, 71, 0
2, 240, Note_on_c, 0, 72, 64
2, 300, Note_on_c, 0, 72, 0
2, 300, Note_on_c, 0, 69, 64
2, 360, Note_on_c, 0, 69, 0
2, 360, Note_on_c, 0, 71, 64
2, 420, Note_on_c, 0, 71, 0
2, 420, Note_on_c, 0, 67, 64
2, 480, Note_on_c, 0, 67, 0
2, 480, Note_on_c, 0, 66, 64
2, 540, Note_on_c, 0, 66, 0
2, 540, Note_on_c, 0, 64, 64
2, 600, Note_on_c, 0, 64, 0
2, 600, Note_on_c, 0, 63, 64
2, 660, Note_on_c, 0, 63, 0
2, 660, Note_on_c, 0, 69, 64
2, 720, Note_on_c, 0, 69, 0
2, 720, Note_on_c, 0, 67, 64
2, 750, Note_on_c, 0, 67, 0
2, 750, Note_on_c, 0, 66, 64
2, 780, Note_on_c, 0, 66, 0
2, 780, Note_on_c, 0, 64, 64
2, 840, Note_on_c, 0, 64, 0
2, 840, Note_on_c, 0, 76, 64
2, 960, Note_on_c, 0, 76, 0
2, 1080, Note_on_c, 0, 75, 64
2, 1110, Note_on_c, 0, 75, 0
2, 1110, Note_on_c, 0, 73, 64
2, 1140, Note_on_c, 0, 73, 0
2, 1140, Note_on_c, 0, 71, 64
2, 1200, Note_on_c, 0, 71, 0
2, 1200, Note_on_c, 0, 81, 64
2, 1320, Note_on_c, 0, 81, 0
2, 1500, Note_on_c, 0, 67, 64
2, 1560, Note_on_c, 0, 67, 0
2, 1560, Note_on_c, 0, 69, 64
2, 1620, Note_on_c, 0, 69, 0
2, 1620, Note_on_c, 0, 71, 64
2, 1680, Note_on_c, 0, 71, 0
2, 1680, Note_on_c, 0, 72, 64
2, 1740, Note_on_c, 0, 72, 0
2, 1740, Note_on_c, 0, 69, 64
2, 1800, Note_on_c, 0, 69, 0
2, 1800, Note_on_c, 0, 71, 64
2, 1860, Note_on_c, 0, 71, 0
2, 1860, Note_on_c, 0, 67, 64
2, 1920, Note_on_c, 0, 67, 0
2, 1920, Note_on_c, 0, 66, 64
2, 1980, Note_on_c, 0, 66, 0
2, 1980, Note_on_c, 0, 64, 64
2, 2040, Note_on_c, 0, 64, 0
2, 2040, Note_on_c, 0, 63, 64
2, 2100, Note_on_c, 0, 63, 0
2, 2100, Note_on_c, 0, 69, 64
2, 2160, Note_on_c, 0, 69, 0
2, 2160, Note_on_c, 0, 67, 64
2, 2220, Note_on_c, 0, 67, 0
2, 2220, Note_on_c, 0, 71, 64
2, 2280, Note_on_c, 0, 71, 0
2, 2280, Note_on_c, 0, 72, 64
2, 2340, Note_on_c, 0, 72, 0
2, 2340, Note_on_c, 0, 74, 64
2, 2400, Note_on_c, 0, 74, 0
2, 2400, Note_on_c, 0, 76, 64
2, 2460, Note_on_c, 0, 76, 0
2, 2460, Note_on_c, 0, 72, 64
2, 2520, Note_on_c, 0, 72, 0
2, 2520, Note_on_c, 0, 74, 64
2, 2580, Note_on_c, 0, 74, 0
2, 2580, Note_on_c, 0, 71, 64
2, 2640, Note_on_c, 0, 71, 0
2, 2640, Note_on_c, 0, 69, 64
2, 2700, Note_on_c, 0, 69, 0
2, 2700, Note_on_c, 0, 67, 64
2, 2760, Note_on_c, 0, 67, 0
2, 2760, Note_on_c, 0, 66, 64
2, 2820, Note_on_c, 0, 66, 0
2, 2820, Note_on_c, 0, 72, 64
2, 2880, Note_on_c, 0, 72, 0
2, 2880, Note_on_c, 0, 71, 64
2, 2940, Note_on_c, 0, 71, 0
2, 2940, Note_on_c, 0, 74, 64
2, 3000, Note_on_c, 0, 74, 0
2, 3000, Note_on_c, 0, 76, 64
2, 3060, Note_on_c, 0, 76, 0
2, 3060, Note_on_c, 0, 78, 64
2, 3120, Note_on_c, 0, 78, 0
2, 3120, Note_on_c, 0, 79, 64
2, 3180, Note_on_c, 0, 79, 0
2, 3180, Note_on_c, 0, 76, 64
2, 3240, Note_on_c, 0, 76, 0
2, 3240, Note_on_c, 0, 78, 64
2, 3300, Note_on_c, 0, 78, 0
2, 3300, Note_on_c, 0, 74, 64
2, 3360, Note_on_c, 0, 74, 0
2, 3360, Note_on_c, 0, 73, 64
2, 3420, Note_on_c, 0, 73, 0
2, 3420, Note_on_c, 0, 71, 64
2, 3480, Note_on_c, 0, 71, 0
2, 3480, Note_on_c, 0, 70, 64
2, 3540, Note_on_c, 0, 70, 0
2, 3540, Note_on_c, 0, 76, 64
2, 3600, Note_on_c, 0, 76, 0
2, 3600, Note_on_c, 0, 74, 64
2, 3660, Note_on_c, 0, 74, 0
2, 3660, Note_on_c, 0, 78, 64
2, 3720, Note_on_c, 0, 78, 0
2, 3720, Note_on_c, 0, 76, 64
2, 3780, Note_on_c, 0, 76, 0
2, 3780, Note_on_c, 0, 74, 64
2, 3840, Note_on_c, 0, 74, 0
2, 3840, Note_on_c, 0, 73, 64
2, 3900, Note_on_c, 0, 73, 0
2, 3900, Note_on_c, 0, 71, 64
2, 3960, Note_on_c, 0, 71, 0
2, 3960, Note_on_c, 0, 70, 64
2, 3990, Note_on_c, 0, 70, 0
2, 3990, Note_on_c, 0, 68, 64
2, 4020, Note_on_c, 0, 68, 0
2, 4020, Note_on_c, 0, 66, 64
2, 4080, Note_on_c, 0, 66, 0
2, 4080, Note_on_c, 0, 76, 64
2, 4200, Note_on_c, 0, 76, 0
2, 4380, Note_on_c, 0, 74, 64
2, 4440, Note_on_c, 0, 74, 0
2, 4440, Note_on_c, 0, 76, 64
2, 4500, Note_on_c, 0, 76, 0
2, 4500, Note_on_c, 0, 78, 64
2, 4560, Note_on_c, 0, 78, 0
2, 4560, Note_on_c, 0, 79, 64
2, 4620, Note_on_c, 0, 79, 0
2, 4620, Note_on_c, 0, 76, 64
2, 4680, Note_on_c, 0, 76, 0
2, 4680, Note_on_c, 0, 78, 64
2, 4740, Note_on_c, 0, 78, 0
2, 4740, Note_on_c, 0, 74, 64
2, 4800, Note_on_c, 0, 74, 0
2, 4800, Note_on_c, 0, 73, 64
2, 4860, Note_on_c, 0, 73, 0
2, 4860, Note_on_c, 0, 71, 64
2, 4920, Note_on_c, 0, 71, 0
2, 4920, Note_on_c, 0, 70, 64
2, 4980, Note_on_c, 0, 70, 0
2, 4980, Note_on_c, 0, 76, 64
2, 5040, Note_on_c, 0, 76, 0
2, 5040, Note_on_c, 0, 74, 64
2, 5100, Note_on_c, 0, 74, 0
2, 5100, Note_on_c, 0, 71, 64
2, 5160, Note_on_c, 0, 71, 0
2, 5160, Note_on_c, 0, 73, 64
2, 5220, Note_on_c, 0, 73, 0
2, 5220, Note_on_c, 0, 74, 64
2, 5280, Note_on_c, 0, 74, 0
2, 5280, Note_on_c, 0, 76, 64
2, 5340, Note_on_c, 0, 76, 0
2, 5340, Note_on_c, 0, 73, 64
2, 5400, Note_on_c, 0, 73, 0
2, 5400, Note_on_c, 0, 74, 64
2, 5460, Note_on_c, 0, 74, 0
2, 5460, Note_on_c, 0, 71, 64
2, 5520, Note_on_c, 0, 71, 0
2, 5520, Note_on_c, 0, 69, 64
2, 5580, Note_on_c, 0, 69, 0
2, 5580, Note_on_c, 0, 67, 64
2, 5640, Note_on_c, 0, 67, 0
2, 5640, Note_on_c, 0, 66, 64
2, 5700, Note_on_c, 0, 66, 0
2, 5700, Note_on_c, 0, 72, 64
2, 5760, Note_on_c, 0, 72, 0
2, 5760, Note_on_c, 0, 71, 64
2, 5820, Note_on_c, 0, 71, 0
2, 5820, Note_on_c, 0, 67, 64
2, 5880, Note_on_c, 0, 67, 0
2, 5880, Note_on_c, 0, 76, 64
2, 5940, Note_on_c, 0, 76, 0
2, 5940, Note_on_c, 0, 71, 64
2, 6000, Note_on_c, 0, 71, 0
2, 6000, Note_on_c, 0, 72, 64
2, 6060, Note_on_c, 0, 72, 0
2, 6060, Note_on_c, 0, 81, 64
2, 6120, Note_on_c, 0, 81, 0
2, 6120, Note_on_c, 0, 71, 64
2, 6180, Note_on_c, 0, 71, 0
2, 6180, Note_on_c, 0, 74, 64
2, 6240, Note_on_c, 0, 74, 0
2, 6240, Note_on_c, 0, 79, 64
2, 6360, Note_on_c, 0, 79, 0
2, 6360, Note_on_c, 0, 71, 64
2, 6375, Note_on_c, 0, 69, 64
2, 6379, Note_on_c, 0, 71, 0
2, 6390, Note_on_c, 0, 69, 0
2, 6390, Note_on_c, 0, 71, 64
2, 6405, Note_on_c, 0, 71, 0
2, 6405, Note_on_c, 0, 69, 64
2, 6420, Note_on_c, 0, 69, 0
2, 6420, Note_on_c, 0, 71, 64
2, 6435, Note_on_c, 0, 71, 0
2, 6435, Note_on_c, 0, 69, 64
2, 6480, Note_on_c, 0, 69, 0
2, 6480, Note_on_c, 0, 67, 64
2, 6540, Note_on_c, 0, 67, 0
2, 6540, Note_on_c, 0, 64, 64
2, 6600, Note_on_c, 0, 64, 0
2, 6600, Note_on_c, 0, 72, 64
2, 6660, Note_on_c, 0, 72, 0
2, 6660, Note_on_c, 0, 67, 64
2, 6720, Note_on_c, 0, 67, 0
2, 6720, Note_on_c, 0, 69, 64
2, 6780, Note_on_c, 0, 69, 0
2, 6780, Note_on_c, 0, 78, 64
2, 6840, Note_on_c, 0, 78, 0
2, 6840, Note_on_c, 0, 67, 64
2, 6900, Note_on_c, 0, 67, 0
2, 6900, Note_on_c, 0, 71, 64
2, 6960, Note_on_c, 0, 71, 0
2, 6960, Note_on_c, 0, 76, 64
2, 7080, Note_on_c, 0, 76, 0
2, 7080, Note_on_c, 0, 67, 70
2, 7095, Note_on_c, 0, 67, 0
2, 7095, Note_on_c, 0, 66, 64
2, 7110, Note_on_c, 0, 66, 0
2, 7110, Note_on_c, 0, 67, 64
2, 7125, Note_on_c, 0, 67, 0
2, 7125, Note_on_c, 0, 66, 64
2, 7140, Note_on_c, 0, 66, 0
2, 7140, Note_on_c, 0, 67, 64
2, 7155, Note_on_c, 0, 67, 0
2, 7155, Note_on_c, 0, 66, 64
2, 7200, Note_on_c, 0, 66, 0
2, 7200, Note_on_c, 0, 64, 64
2, 7260, Note_on_c, 0, 64, 0
2, 7260, Note_on_c, 0, 67, 64
2, 7320, Note_on_c, 0, 67, 0
2, 7320, Note_on_c, 0, 69, 64
2, 7380, Note_on_c, 0, 69, 0
2, 7380, Note_on_c, 0, 71, 64
2, 7440, Note_on_c, 0, 71, 0
2, 7440, Note_on_c, 0, 72, 64
2, 7500, Note_on_c, 0, 72, 0
2, 7500, Note_on_c, 0, 69, 64
2, 7560, Note_on_c, 0, 69, 0
2, 7560, Note_on_c, 0, 71, 64
2, 7590, Note_on_c, 0, 71, 0
2, 7590, Note_on_c, 0, 69, 64
2, 7620, Note_on_c, 0, 69, 0
2, 7620, Note_on_c, 0, 67, 64
2, 7680, Note_on_c, 0, 67, 0
2, 7680, Note_on_c, 0, 77, 64
2, 7800, Note_on_c, 0, 77, 0
2, 7980, Note_on_c, 0, 64, 64
2, 8040, Note_on_c, 0, 64, 0
2, 8040, Note_on_c, 0, 66, 64
2, 8100, Note_on_c, 0, 66, 0
2, 8100, Note_on_c, 0, 67, 64
2, 8160, Note_on_c, 0, 67, 0
2, 8160, Note_on_c, 0, 69, 64
2, 8220, Note_on_c, 0, 69, 0
2, 8220, Note_on_c, 0, 66, 64
2, 8280, Note_on_c, 0, 66, 0
2, 8280, Note_on_c, 0, 67, 64
2, 8340, Note_on_c, 0, 67, 0
2, 8340, Note_on_c, 0, 62, 64
2, 8400, Note_on_c, 0, 62, 0
2, 8400, Note_on_c, 0, 64, 64
2, 8460, Note_on_c, 0, 64, 0
2, 8460, Note_on_c, 0, 66, 64
2, 8520, Note_on_c, 0, 66, 0
2, 8520, Note_on_c, 0, 67, 64
2, 8700, Note_on_c, 0, 67, 0
2, 8700, Note_on_c, 0, 66, 64
2, 8760, Note_on_c, 0, 66, 0
2, 8760, Note_on_c, 0, 68, 64
2, 8820, Note_on_c, 0, 68, 0
2, 8820, Note_on_c, 0, 69, 64
2, 8880, Note_on_c, 0, 69, 0
2, 8880, Note_on_c, 0, 71, 64
2, 8940, Note_on_c, 0, 71, 0
2, 8940, Note_on_c, 0, 68, 64
2, 9000, Note_on_c, 0, 68, 0
2, 9000, Note_on_c, 0, 69, 64
2, 9060, Note_on_c, 0, 69, 0
2, 9060, Note_on_c, 0, 64, 64
2, 9120, Note_on_c, 0, 64, 0
2, 9120, Note_on_c, 0, 66, 64
2, 9180, Note_on_c, 0, 66, 0
2, 9180, Note_on_c, 0, 67, 64
2, 9240, Note_on_c, 0, 67, 0
2, 9240, Note_on_c, 0, 69, 64
2, 9420, Note_on_c, 0, 69, 0
2, 9420, Note_on_c, 0, 68, 64
2, 9480, Note_on_c, 0, 68, 0
2, 9480, Note_on_c, 0, 70, 64
2, 9540, Note_on_c, 0, 70, 0
2, 9540, Note_on_c, 0, 71, 64
2, 9600, Note_on_c, 0, 71, 0
2, 9600, Note_on_c, 0, 73, 64
2, 9660, Note_on_c, 0, 73, 0
2, 9660, Note_on_c, 0, 70, 64
2, 9720, Note_on_c, 0, 70, 0
2, 9720, Note_on_c, 0, 71, 64
2, 9780, Note_on_c, 0, 71, 0
2, 9780, Note_on_c, 0, 66, 64
2, 9840, Note_on_c, 0, 66, 0
2, 9840, Note_on_c, 0, 68, 64
2, 9900, Note_on_c, 0, 68, 0
2, 9900, Note_on_c, 0, 70, 64
2, 9960, Note_on_c, 0, 70, 0
2, 9960, Note_on_c, 0, 71, 64
2, 10140, Note_on_c, 0, 71, 0
2, 10140, Note_on_c, 0, 70, 64
2, 10200, Note_on_c, 0, 70, 0
2, 10200, Note_on_c, 0, 71, 64
2, 10260, Note_on_c, 0, 71, 0
2, 10260, Note_on_c, 0, 73, 64
2, 10320, Note_on_c, 0, 73, 0
2, 10320, Note_on_c, 0, 74, 64
2, 10380, Note_on_c, 0, 74, 0
2, 10380, Note_on_c, 0, 71, 64
2, 10440, Note_on_c, 0, 71, 0
2, 10440, Note_on_c, 0, 73, 64
2, 10500, Note_on_c, 0, 73, 0
2, 10500, Note_on_c, 0, 71, 64
2, 10560, Note_on_c, 0, 71, 0
2, 10560, Note_on_c, 0, 70, 64
2, 10620, Note_on_c, 0, 70, 0
2, 10620, Note_on_c, 0, 68, 64
2, 10680, Note_on_c, 0, 68, 0
2, 10680, Note_on_c, 0, 66, 64
2, 10740, Note_on_c, 0, 66, 0
2, 10740, Note_on_c, 0, 64, 64
2, 10800, Note_on_c, 0, 64, 0
2, 10800, Note_on_c, 0, 62, 64
2, 10860, Note_on_c, 0, 62, 0
2, 10860, Note_on_c, 0, 66, 64
2, 10920, Note_on_c, 0, 66, 0
2, 10920, Note_on_c, 0, 68, 64
2, 10980, Note_on_c, 0, 68, 0
2, 10980, Note_on_c, 0, 70, 64
2, 11040, Note_on_c, 0, 70, 0
2, 11040, Note_on_c, 0, 71, 64
2, 11100, Note_on_c, 0, 71, 0
2, 11100, Note_on_c, 0, 68, 64
2, 11160, Note_on_c, 0, 68, 0
2, 11160, Note_on_c, 0, 70, 64
2, 11220, Note_on_c, 0, 70, 0
2, 11220, Note_on_c, 0, 68, 64
2, 11280, Note_on_c, 0, 68, 0
2, 11280, Note_on_c, 0, 66, 64
2, 11340, Note_on_c, 0, 66, 0
2, 11340, Note_on_c, 0, 64, 64
2, 11400, Note_on_c, 0, 64, 0
2, 11400, Note_on_c, 0, 62, 64
2, 11460, Note_on_c, 0, 62, 0
2, 11460, Note_on_c, 0, 61, 64
2, 11510, Note_on_c, 0, 61, 0
2, 11520, Note_on_c, 0, 61, 76
2, 11540, Note_on_c, 0, 61, 0
2, 11540, Note_on_c, 0, 59, 48
2, 11560, Note_on_c, 0, 61, 48
2, 11562, Note_on_c, 0, 59, 0
2, 11580, Note_on_c, 0, 59, 48
2, 11582, Note_on_c, 0, 61, 0
2, 11600, Note_on_c, 0, 61, 48
2, 11602, Note_on_c, 0, 59, 0
2, 11620, Note_on_c, 0, 59, 48
2, 11622, Note_on_c, 0, 61, 0
2, 11640, Note_on_c, 0, 61, 49
2, 11642, Note_on_c, 0, 59, 0
2, 11660, Note_on_c, 0, 59, 49
2, 11662, Note_on_c, 0, 61, 0
2, 11680, Note_on_c, 0, 61, 49
2, 11682, Note_on_c, 0, 59, 0
2, 11700, Note_on_c, 0, 59, 49
2, 11702, Note_on_c, 0, 61, 0
2, 11720, Note_on_c, 0, 61, 50
2, 11722, Note_on_c, 0, 59, 0
2, 11740, Note_on_c, 0, 59, 50
2, 11742, Note_on_c, 0, 61, 0
2, 11760, Note_on_c, 0, 61, 50
2, 11762, Note_on_c, 0, 59, 0
2, 11780, Note_on_c, 0, 59, 50
2, 11782, Note_on_c, 0, 61, 0
2, 11800, Note_on_c, 0, 61, 50
2, 11802, Note_on_c, 0, 59, 0
2, 11820, Note_on_c, 0, 59, 51
2, 11822, Note_on_c, 0, 61, 0
2, 11840, Note_on_c, 0, 61, 51
2, 11842, Note_on_c, 0, 59, 0
2, 11860, Note_on_c, 0, 59, 51
2, 11862, Note_on_c, 0, 61, 0
2, 11880, Note_on_c, 0, 61, 51
2, 11882, Note_on_c, 0, 59, 0
2, 11900, Note_on_c, 0, 59, 52
2, 11902, Note_on_c, 0, 61, 0
2, 11920, Note_on_c, 0, 61, 52
2, 11922, Note_on_c, 0, 59, 0
2, 11940, Note_on_c, 0, 59, 52
2, 11942, Note_on_c, 0, 61, 0
2, 11960, Note_on_c, 0, 61, 52
2, 11962, Note_on_c, 0, 59, 0
2, 11980, Note_on_c, 0, 59, 52
2, 11982, Note_on_c, 0, 61, 0
2, 12000, Note_on_c, 0, 61, 53
2, 12002, Note_on_c, 0, 59, 0
2, 12020, Note_on_c, 0, 59, 53
2, 12022, Note_on_c, 0, 61, 0
2, 12040, Note_on_c, 0, 61, 53
2, 12042, Note_on_c, 0, 59, 0
2, 12060, Note_on_c, 0, 59, 53
2, 12062, Note_on_c, 0, 61, 0
2, 12080, Note_on_c, 0, 61, 53
2, 12082, Note_on_c, 0, 59, 0
2, 12100, Note_on_c, 0, 59, 54
2, 12102, Note_on_c, 0, 61, 0
2, 12120, Note_on_c, 0, 61, 54
2, 12122, Note_on_c, 0, 59, 0
2, 12140, Note_on_c, 0, 59, 54
2, 12142, Note_on_c, 0, 61, 0
2, 12160, Note_on_c, 0, 61, 54
2, 12162, Note_on_c, 0, 59, 0
2, 12180, Note_on_c, 0, 59, 55
2, 12182, Note_on_c, 0, 61, 0
2, 12200, Note_on_c, 0, 61, 55
2, 12202, Note_on_c, 0, 59, 0
2, 12220, Note_on_c, 0, 59, 55
2, 12222, Note_on_c, 0, 61, 0
2, 12240, Note_on_c, 0, 61, 55
2, 12242, Note_on_c, 0, 59, 0
2, 12260, Note_on_c, 0, 59, 55
2, 12262, Note_on_c, 0, 61, 0
2, 12280, Note_on_c, 0, 61, 56
2, 12282, Note_on_c, 0, 59, 0
2, 12300, Note_on_c, 0, 59, 56
2, 12302, Note_on_c, 0, 61, 0
2, 12320, Note_on_c, 0, 61, 56
2, 12322, Note_on_c, 0, 59, 0
2, 12340, Note_on_c, 0, 59, 56
2, 12342, Note_on_c, 0, 61, 0
2, 12360, Note_on_c, 0, 61, 57
2, 12362, Note_on_c, 0, 59, 0
2, 12380, Note_on_c, 0, 59, 57
2, 12382, Note_on_c, 0, 61, 0
2, 12400, Note_on_c, 0, 61, 57
2, 12402, Note_on_c, 0, 59, 0
2, 12420, Note_on_c, 0, 59, 57
2, 12422, Note_on_c, 0, 61, 0
2, 12440, Note_on_c, 0, 61, 57
2, 12442, Note_on_c, 0, 59, 0
2, 12460, Note_on_c, 0, 59, 58
2, 12462, Note_on_c, 0, 61, 0
2, 12480, Note_on_c, 0, 61, 58
2, 12482, Note_on_c, 0, 59, 0
2, 12500, Note_on_c, 0, 59, 58
2, 12502, Note_on_c, 0, 61, 0
2, 12520, Note_on_c, 0, 61, 58
2, 12522, Note_on_c, 0, 59, 0
2, 12540, Note_on_c, 0, 59, 59
2, 12542, Note_on_c, 0, 61, 0
2, 12560, Note_on_c, 0, 61, 59
2, 12562, Note_on_c, 0, 59, 0
2, 12580, Note_on_c, 0, 59, 59
2, 12582, Note_on_c, 0, 61, 0
2, 12600, Note_on_c, 0, 61, 59
2, 12602, Note_on_c, 0, 59, 0
2, 12620, Note_on_c, 0, 59, 59
2, 12622, Note_on_c, 0, 61, 0
2, 12640, Note_on_c, 0, 61, 60
2, 12642, Note_on_c, 0, 59, 0
2, 12660, Note_on_c, 0, 59, 60
2, 12662, Note_on_c, 0, 61, 0
2, 12680, Note_on_c, 0, 61, 60
2, 12682, Note_on_c, 0, 59, 0
2, 12700, Note_on_c, 0, 59, 60
2, 12702, Note_on_c, 0, 61, 0
2, 12720, Note_on_c, 0, 61, 60
2, 12722, Note_on_c, 0, 59, 0
2, 12740, Note_on_c, 0, 59, 61
2, 12742, Note_on_c, 0, 61, 0
2, 12760, Note_on_c, 0, 61, 61
2, 12762, Note_on_c, 0, 59, 0
2, 12780, Note_on_c, 0, 59, 61
2, 12782, Note_on_c, 0, 61, 0
2, 12800, Note_on_c, 0, 61, 61
2, 12802, Note_on_c, 0, 59, 0
2, 12820, Note_on_c, 0, 59, 62
2, 12822, Note_on_c, 0, 61, 0
2, 12840, Note_on_c, 0, 61, 62
2, 12842, Note_on_c, 0, 59, 0
2, 12860, Note_on_c, 0, 59, 62
2, 12862, Note_on_c, 0, 61, 0
2, 12880, Note_on_c, 0, 61, 62
2, 12882, Note_on_c, 0, 59, 0
2, 12900, Note_on_c, 0, 59, 62
2, 12902, Note_on_c, 0, 61, 0
2, 12920, Note_on_c, 0, 61, 63
2, 12922, Note_on_c, 0, 59, 0
2, 12940, Note_on_c, 0, 59, 63
2, 12942, Note_on_c, 0, 61, 0
2, 12960, Note_on_c, 0, 61, 63
2, 12962, Note_on_c, 0, 59, 0
2, 12980, Note_on_c, 0, 59, 63
2, 12982, Note_on_c, 0, 61, 0
2, 13068, Note_on_c, 0, 59, 0
2, 13080, Note_on_c, 0, 64, 64
2, 13095, Note_on_c, 0, 64, 0
2, 13095, Note_on_c, 0, 62, 64
2, 13110, Note_on_c, 0, 62, 0
2, 13110, Note_on_c, 0, 64, 64
2, 13380, Note_on_c, 0, 64, 0
2, 13380, Note_on_c, 0, 66, 64
2, 13440, Note_on_c, 0, 66, 0
2, 13440, Note_on_c, 0, 64, 64
2, 13500, Note_on_c, 0, 64, 0
2, 13500, Note_on_c, 0, 62, 64
2, 13560, Note_on_c, 0, 62, 0
2, 13560, Note_on_c, 0, 61, 64
2, 13620, Note_on_c, 0, 61, 0
2, 13620, Note_on_c, 0, 64, 64
2, 13680, Note_on_c, 0, 64, 0
2, 13680, Note_on_c, 0, 58, 64
2, 13800, Note_on_c, 0, 58, 0
2, 13800, Note_on_c, 0, 73, 64
2, 13820, Note_on_c, 0, 73, 0
2, 13820, Note_on_c, 0, 71, 64
2, 13840, Note_on_c, 0, 71, 0
2, 13840, Note_on_c, 0, 73, 64
2, 14040, Note_on_c, 0, 46, 64
2, 14100, Note_on_c, 0, 73, 0
2, 14100, Note_on_c, 0, 74, 64
2, 14160, Note_on_c, 0, 74, 0
2, 14160, Note_on_c, 0, 46, 0
2, 14160, Note_on_c, 0, 64, 64
2, 14160, Note_on_c, 0, 73, 64
2, 14220, Note_on_c, 0, 73, 0
2, 14220, Note_on_c, 0, 71, 64
2, 14280, Note_on_c, 0, 71, 0
2, 14280, Note_on_c, 0, 70, 64
2, 14340, Note_on_c, 0, 70, 0
2, 14340, Note_on_c, 0, 73, 64
2, 14400, Note_on_c, 0, 73, 0
2, 14400, Note_on_c, 0, 66, 64
2, 14460, Note_on_c, 0, 64, 0
2, 14460, Note_on_c, 0, 62, 64
2, 14520, Note_on_c, 0, 62, 0
2, 14520, Note_on_c, 0, 66, 0
2, 14520, Note_on_c, 0, 79, 64
2, 14520, Note_on_c, 0, 61, 64
2, 14540, Note_on_c, 0, 79, 0
2, 14540, Note_on_c, 0, 78, 64
2, 14560, Note_on_c, 0, 78, 0
2, 14560, Note_on_c, 0, 79, 64
2, 14580, Note_on_c, 0, 61, 0
2, 14580, Note_on_c, 0, 59, 64
2, 14640, Note_on_c, 0, 59, 0
2, 14640, Note_on_c, 0, 58, 64
2, 14700, Note_on_c, 0, 58, 0
2, 14700, Note_on_c, 0, 61, 64
2, 14760, Note_on_c, 0, 61, 0
2, 14760, Note_on_c, 0, 54, 64
2, 14820, Note_on_c, 0, 79, 0
2, 14820, Note_on_c, 0, 78, 64
2, 14880, Note_on_c, 0, 78, 0
2, 14880, Note_on_c, 0, 54, 0
2, 14880, Note_on_c, 0, 76, 64
2, 14880, Note_on_c, 0, 56, 64
2, 14940, Note_on_c, 0, 76, 0
2, 14940, Note_on_c, 0, 74, 64
2, 15000, Note_on_c, 0, 74, 0
2, 15000, Note_on_c, 0, 56, 0
2, 15000, Note_on_c, 0, 58, 64
2, 15000, Note_on_c, 0, 73, 64
2, 15060, Note_on_c, 0, 73, 0
2, 15060, Note_on_c, 0, 76, 64
2, 15120, Note_on_c, 0, 76, 0
2, 15120, Note_on_c, 0, 58, 0
2, 15120, Note_on_c, 0, 76, 64
2, 15120, Note_on_c, 0, 59, 64
2, 15140, Note_on_c, 0, 76, 0
2, 15140, Note_on_c, 0, 74, 64
2, 15160, Note_on_c, 0, 74, 0
2, 15160, Note_on_c, 0, 73, 64
2, 15180, Note_on_c, 0, 73, 0
2, 15180, Note_on_c, 0, 59, 0
2, 15180, Note_on_c, 0, 74, 64
2, 15180, Note_on_c, 0, 58, 64
2, 15200, Note_on_c, 0, 74, 0
2, 15200, Note_on_c, 0, 76, 64
2, 15220, Note_on_c, 0, 76, 0
2, 15220, Note_on_c, 0, 74, 64
2, 15240, Note_on_c, 0, 74, 0
2, 15240, Note_on_c, 0, 58, 0
2, 15240, Note_on_c, 0, 76, 64
2, 15240, Note_on_c, 0, 59, 64
2, 15260, Note_on_c, 0, 76, 0
2, 15260, Note_on_c, 0, 74, 64
2, 15300, Note_on_c, 0, 59, 0
2, 15300, Note_on_c, 0, 61, 64
2, 15360, Note_on_c, 0, 61, 0
2, 15360, Note_on_c, 0, 62, 64
2, 15420, Note_on_c, 0, 62, 0
2, 15420, Note_on_c, 0, 59, 64
2, 15480, Note_on_c, 0, 59, 0
2, 15480, Note_on_c, 0, 53, 64
2, 15540, Note_on_c, 0, 53, 0
2, 15540, Note_on_c, 0, 74, 0
2, 15540, Note_on_c, 0, 73, 64
2, 15540, Note_on_c, 0, 54, 64
2, 15600, Note_on_c, 0, 54, 0
2, 15600, Note_on_c, 0, 73, 0
2, 15600, Note_on_c, 0, 71, 64
2, 15600, Note_on_c, 0, 56, 64
2, 15660, Note_on_c, 0, 56, 0
2, 15660, Note_on_c, 0, 71, 0
2, 15660, Note_on_c, 0, 69, 64
2, 15660, Note_on_c, 0, 57, 64
2, 15720, Note_on_c, 0, 57, 0
2, 15720, Note_on_c, 0, 69, 0
2, 15720, Note_on_c, 0, 68, 64
2, 15720, Note_on_c, 0, 59, 64
2, 15780, Note_on_c, 0, 59, 0
2, 15780, Note_on_c, 0, 68, 0
2, 15780, Note_on_c, 0, 71, 64
2, 15780, Note_on_c, 0, 56, 64
2, 15840, Note_on_c, 0, 56, 0
2, 15840, Note_on_c, 0, 71, 0
2, 15840, Note_on_c, 0, 65, 64
2, 15840, Note_on_c, 0, 49, 64
2, 15900, Note_on_c, 0, 65, 0
2, 15900, Note_on_c, 0, 74, 64
2, 15960, Note_on_c, 0, 74, 0
2, 15960, Note_on_c, 0, 49, 0
2, 15960, Note_on_c, 0, 73, 64
2, 15960, Note_on_c, 0, 53, 64
2, 16020, Note_on_c, 0, 73, 0
2, 16020, Note_on_c, 0, 71, 64
2, 16080, Note_on_c, 0, 71, 0
2, 16080, Note_on_c, 0, 53, 0
2, 16080, Note_on_c, 0, 54, 64
2, 16080, Note_on_c, 0, 70, 64
2, 16140, Note_on_c, 0, 70, 0
2, 16140, Note_on_c, 0, 73, 64
2, 16200, Note_on_c, 0, 73, 0
2, 16200, Note_on_c, 0, 54, 0
2, 16200, Note_on_c, 0, 76, 64
2, 16200, Note_on_c, 0, 55, 64
2, 16260, Note_on_c, 0, 76, 0
2, 16260, Note_on_c, 0, 79, 64
2, 16320, Note_on_c, 0, 79, 0
2, 16320, Note_on_c, 0, 55, 0
2, 16320, Note_on_c, 0, 78, 64
2, 16320, Note_on_c, 0, 46, 64
2, 16380, Note_on_c, 0, 78, 0
2, 16380, Note_on_c, 0, 76, 64
2, 16440, Note_on_c, 0, 76, 0
2, 16440, Note_on_c, 0, 46, 0
2, 16440, Note_on_c, 0, 47, 64
2, 16440, Note_on_c, 0, 74, 64
2, 16500, Note_on_c, 0, 74, 0
2, 16500, Note_on_c, 0, 78, 64
2, 16560, Note_on_c, 0, 78, 0
2, 16560, Note_on_c, 0, 47, 0
2, 16560, Note_on_c, 0, 71, 64
2, 16560, Note_on_c, 0, 43, 64
2, 16680, Note_on_c, 0, 43, 0
2, 16680, Note_on_c, 0, 71, 0
2, 16680, Note_on_c, 0, 73, 64
2, 16680, Note_on_c, 0, 40, 64
2, 16800, Note_on_c, 0, 40, 0
2, 16800, Note_on_c, 0, 73, 0
2, 16800, Note_on_c, 0, 71, 64
2, 16800, Note_on_c, 0, 42, 64
2, 16820, Note_on_c, 0, 71, 0
2, 16820, Note_on_c, 0, 70, 64
2, 16840, Note_on_c, 0, 70, 0
2, 16840, Note_on_c, 0, 68, 64
2, 16860, Note_on_c, 0, 68, 0
2, 16860, Note_on_c, 0, 70, 64
2, 16920, Note_on_c, 0, 70, 0
2, 16920, Note_on_c, 0, 42, 0
2, 16920, Note_on_c, 0, 71, 64
2, 16920, Note_on_c, 0, 47, 64
2, 16980, Note_on_c, 0, 47, 0
2, 16980, Note_on_c, 0, 49, 64
2, 17040, Note_on_c, 0, 49, 0
2, 17040, Note_on_c, 0, 51, 64
2, 17100, Note_on_c, 0, 51, 0
2, 17100, Note_on_c, 0, 52, 64
2, 17160, Note_on_c, 0, 52, 0
2, 17160, Note_on_c, 0, 54, 64
2, 17220, Note_on_c, 0, 54, 0
2, 17220, Note_on_c, 0, 51, 64
2, 17280, Note_on_c, 0, 51, 0
2, 17280, Note_on_c, 0, 71, 0
2, 17280, Note_on_c, 0, 52, 64
2, 17340, Note_on_c, 0, 67, 64
2, 17400, Note_on_c, 0, 67, 0
2, 17400, Note_on_c, 0, 52, 0
2, 17400, Note_on_c, 0, 69, 64
2, 17400, Note_on_c, 0, 40, 64
2, 17460, Note_on_c, 0, 69, 0
2, 17460, Note_on_c, 0, 71, 64
2, 17520, Note_on_c, 0, 71, 0
2, 17520, Note_on_c, 0, 40, 0
2, 17520, Note_on_c, 0, 72, 64
2, 17580, Note_on_c, 0, 72, 0
2, 17580, Note_on_c, 0, 69, 64
2, 17640, Note_on_c, 0, 69, 0
2, 17640, Note_on_c, 0, 71, 64
2, 17700, Note_on_c, 0, 71, 0
2, 17700, Note_on_c, 0, 67, 64
2, 17760, Note_on_c, 0, 67, 0
2, 17760, Note_on_c, 0, 66, 64
2, 17820, Note_on_c, 0, 66, 0
2, 17820, Note_on_c, 0, 64, 64
2, 17880, Note_on_c, 0, 64, 0
2, 17880, Note_on_c, 0, 63, 64
2, 17940, Note_on_c, 0, 63, 0
2, 17940, Note_on_c, 0, 69, 64
2, 18000, Note_on_c, 0, 69, 0
2, 18000, Note_on_c, 0, 67, 64
2, 18030, Note_on_c, 0, 67, 0
2, 18030, Note_on_c, 0, 66, 64
2, 18060, Note_on_c, 0, 66, 0
2, 18060, Note_on_c, 0, 64, 64
2, 18060, Note_on_c, 0, 55, 64
2, 18120, Note_on_c, 0, 55, 0
2, 18120, Note_on_c, 0, 64, 0
2, 18120, Note_on_c, 0, 76, 64
2, 18120, Note_on_c, 0, 57, 64
2, 18180, Note_on_c, 0, 57, 0
2, 18180, Note_on_c, 0, 59, 64
2, 18240, Note_on_c, 0, 59, 0
2, 18240, Note_on_c, 0, 76, 0
2, 18240, Note_on_c, 0, 60, 64
2, 18300, Note_on_c, 0, 60, 0
2, 18300, Note_on_c, 0, 57, 64
2, 18360, Note_on_c, 0, 57, 0
2, 18360, Note_on_c, 0, 75, 64
2, 18360, Note_on_c, 0, 59, 64
2, 18390, Note_on_c, 0, 75, 0
2, 18390, Note_on_c, 0, 73, 64
2, 18420, Note_on_c, 0, 73, 0
2, 18420, Note_on_c, 0, 59, 0
2, 18420, Note_on_c, 0, 71, 64
2, 18420, Note_on_c, 0, 55, 64
2, 18480, Note_on_c, 0, 55, 0
2, 18480, Note_on_c, 0, 71, 0
2, 18480, Note_on_c, 0, 81, 64
2, 18480, Note_on_c, 0, 54, 64
2, 18540, Note_on_c, 0, 54, 0
2, 18540, Note_on_c, 0, 52, 64
2, 18600, Note_on_c, 0, 52, 0
2, 18600, Note_on_c, 0, 81, 0
2, 18600, Note_on_c, 0, 51, 64
2, 18660, Note_on_c, 0, 51, 0
2, 18660, Note_on_c, 0, 57, 64
2, 18720, Note_on_c, 0, 57, 0
2, 18720, Note_on_c, 0, 55, 64
2, 18780, Note_on_c, 0, 55, 0
2, 18780, Note_on_c, 0, 67, 64
2, 18780, Note_on_c, 0, 52, 64
2, 18840, Note_on_c, 0, 52, 0
2, 18840, Note_on_c, 0, 67, 0
2, 18840, Note_on_c, 0, 69, 64
2, 18840, Note_on_c, 0, 54, 64
2, 18900, Note_on_c, 0, 54, 0
2, 18900, Note_on_c, 0, 69, 0
2, 18900, Note_on_c, 0, 71, 64
2, 18900, Note_on_c, 0, 55, 64
2, 18960, Note_on_c, 0, 55, 0
2, 18960, Note_on_c, 0, 71, 0
2, 18960, Note_on_c, 0, 72, 64
2, 18960, Note_on_c, 0, 57, 64
2, 19020, Note_on_c, 0, 57, 0
2, 19020, Note_on_c, 0, 72, 0
2, 19020, Note_on_c, 0, 69, 64
2, 19020, Note_on_c, 0, 54, 64
2, 19080, Note_on_c, 0, 54, 0
2, 19080, Note_on_c, 0, 69, 0
2, 19080, Note_on_c, 0, 71, 64
2, 19080, Note_on_c, 0, 55, 64
2, 19140, Note_on_c, 0, 71, 0
2, 19140, Note_on_c, 0, 67, 64
2, 19200, Note_on_c, 0, 67, 0
2, 19200, Note_on_c, 0, 55, 0
2, 19200, Note_on_c, 0, 66, 64
2, 19200, Note_on_c, 0, 57, 64
2, 19260, Note_on_c, 0, 66, 0
2, 19260, Note_on_c, 0, 64, 64
2, 19320, Note_on_c, 0, 64, 0
2, 19320, Note_on_c, 0, 57, 0
2, 19320, Note_on_c, 0, 59, 64
2, 19320, Note_on_c, 0, 63, 64
2, 19380, Note_on_c, 0, 63, 0
2, 19380, Note_on_c, 0, 69, 64
2, 19440, Note_on_c, 0, 69, 0
2, 19440, Note_on_c, 0, 59, 0
2, 19440, Note_on_c, 0, 67, 64
2, 19440, Note_on_c, 0, 52, 64
2, 19500, Note_on_c, 0, 67, 0
2, 19500, Note_on_c, 0, 71, 64
2, 19560, Note_on_c, 0, 71, 0
2, 19560, Note_on_c, 0, 52, 0
2, 19560, Note_on_c, 0, 72, 64
2, 19560, Note_on_c, 0, 50, 64
2, 19620, Note_on_c, 0, 72, 0
2, 19620, Note_on_c, 0, 74, 64
2, 19680, Note_on_c, 0, 74, 0
2, 19680, Note_on_c, 0, 50, 0
2, 19680, Note_on_c, 0, 48, 64
2, 19680, Note_on_c, 0, 76, 64
2, 19740, Note_on_c, 0, 76, 0
2, 19740, Note_on_c, 0, 72, 64
2, 19800, Note_on_c, 0, 72, 0
2, 19800, Note_on_c, 0, 48, 0
2, 19800, Note_on_c, 0, 74, 64
2, 19800, Note_on_c, 0, 47, 64
2, 19860, Note_on_c, 0, 74, 0
2, 19860, Note_on_c, 0, 71, 64
2, 19920, Note_on_c, 0, 71, 0
2, 19920, Note_on_c, 0, 47, 0
2, 19920, Note_on_c, 0, 69, 64
2, 19920, Note_on_c, 0, 48, 64
2, 19980, Note_on_c, 0, 69, 0
2, 19980, Note_on_c, 0, 67, 64
2, 20040, Note_on_c, 0, 67, 0
2, 20040, Note_on_c, 0, 48, 0
2, 20040, Note_on_c, 0, 50, 64
2, 20040, Note_on_c, 0, 66, 64
2, 20100, Note_on_c, 0, 66, 0
2, 20100, Note_on_c, 0, 72, 64
2, 20160, Note_on_c, 0, 72, 0
2, 20160, Note_on_c, 0, 50, 0
2, 20160, Note_on_c, 0, 71, 64
2, 20160, Note_on_c, 0, 43, 64
2, 20220, Note_on_c, 0, 71, 0
2, 20220, Note_on_c, 0, 74, 64
2, 20280, Note_on_c, 0, 74, 0
2, 20280, Note_on_c, 0, 43, 0
2, 20280, Note_on_c, 0, 76, 64
2, 20280, Note_on_c, 0, 42, 64
2, 20340, Note_on_c, 0, 76, 0
2, 20340, Note_on_c, 0, 78, 64
2, 20400, Note_on_c, 0, 78, 0
2, 20400, Note_on_c, 0, 42, 0
2, 20400, Note_on_c, 0, 40, 64
2, 20400, Note_on_c, 0, 79, 64
2, 20460, Note_on_c, 0, 79, 0
2, 20460, Note_on_c, 0, 76, 64
2, 20520, Note_on_c, 0, 76, 0
2, 20520, Note_on_c, 0, 40, 0
2, 20520, Note_on_c, 0, 78, 64
2, 20520, Note_on_c, 0, 38, 64
2, 20580, Note_on_c, 0, 78, 0
2, 20580, Note_on_c, 0, 74, 64
2, 20640, Note_on_c, 0, 74, 0
2, 20640, Note_on_c, 0, 38, 0
2, 20640, Note_on_c, 0, 73, 64
2, 20640, Note_on_c, 0, 40, 64
2, 20700, Note_on_c, 0, 73, 0
2, 20700, Note_on_c, 0, 71, 64
2, 20760, Note_on_c, 0, 71, 0
2, 20760, Note_on_c, 0, 40, 0
2, 20760, Note_on_c, 0, 42, 64
2, 20760, Note_on_c, 0, 70, 64
2, 20820, Note_on_c, 0, 70, 0
2, 20820, Note_on_c, 0, 76, 64
2, 20880, Note_on_c, 0, 76, 0
2, 20880, Note_on_c, 0, 42, 0
2, 20880, Note_on_c, 0, 74, 64
2, 20880, Note_on_c, 0, 47, 64
2, 20940, Note_on_c, 0, 47, 0
2, 20940, Note_on_c, 0, 74, 0
2, 20940, Note_on_c, 0, 78, 64
2, 20940, Note_on_c, 0, 50, 64
2, 21000, Note_on_c, 0, 50, 0
2, 21000, Note_on_c, 0, 78, 0
2, 21000, Note_on_c, 0, 76, 64
2, 21000, Note_on_c, 0, 52, 64
2, 21060, Note_on_c, 0, 52, 0
2, 21060, Note_on_c, 0, 76, 0
2, 21060, Note_on_c, 0, 74, 64
2, 21060, Note_on_c, 0, 54, 64
2, 21120, Note_on_c, 0, 54, 0
2, 21120, Note_on_c, 0, 74, 0
2, 21120, Note_on_c, 0, 73, 64
2, 21120, Note_on_c, 0, 55, 64
2, 21180, Note_on_c, 0, 55, 0
2, 21180, Note_on_c, 0, 73, 0
2, 21180, Note_on_c, 0, 52, 64
2, 21180, Note_on_c, 0, 71, 64
2, 21240, Note_on_c, 0, 71, 0
2, 21240, Note_on_c, 0, 52, 0
2, 21240, Note_on_c, 0, 70, 64
2, 21240, Note_on_c, 0, 54, 64
2, 21270, Note_on_c, 0, 70, 0
2, 21270, Note_on_c, 0, 68, 64
2, 21300, Note_on_c, 0, 68, 0
2, 21300, Note_on_c, 0, 54, 0
2, 21300, Note_on_c, 0, 66, 64
2, 21300, Note_on_c, 0, 50, 64
2, 21360, Note_on_c, 0, 50, 0
2, 21360, Note_on_c, 0, 66, 0
2, 21360, Note_on_c, 0, 76, 64
2, 21360, Note_on_c, 0, 49, 64
2, 21420, Note_on_c, 0, 49, 0
2, 21420, Note_on_c, 0, 47, 64
2, 21480, Note_on_c, 0, 47, 0
2, 21480, Note_on_c, 0, 76, 0
2, 21480, Note_on_c, 0, 46, 64
2, 21540, Note_on_c, 0, 46, 0
2, 21540, Note_on_c, 0, 52, 64
2, 21600, Note_on_c, 0, 52, 0
2, 21600, Note_on_c, 0, 50, 64
2, 21660, Note_on_c, 0, 50, 0
2, 21660, Note_on_c, 0, 74, 64
2, 21660, Note_on_c, 0, 47, 64
2, 21720, Note_on_c, 0, 47, 0
2, 21720, Note_on_c, 0, 74, 0
2, 21720, Note_on_c, 0, 76, 64
2, 21720, Note_on_c, 0, 49, 64
2, 21780, Note_on_c, 0, 49, 0
2, 21780, Note_on_c, 0, 76, 0
2, 21780, Note_on_c, 0, 78, 64
2, 21780, Note_on_c, 0, 50, 64
2, 21840, Note_on_c, 0, 50, 0
2, 21840, Note_on_c, 0, 78, 0
2, 21840, Note_on_c, 0, 79, 64
2, 21840, Note_on_c, 0, 52, 64
2, 21900, Note_on_c, 0, 52, 0
2, 21900, Note_on_c, 0, 79, 0
2, 21900, Note_on_c, 0, 76, 64
2, 21900, Note_on_c, 0, 49, 64
2, 21960, Note_on_c, 0, 49, 0
2, 21960, Note_on_c, 0, 76, 0
2, 21960, Note_on_c, 0, 78, 64
2, 21960, Note_on_c, 0, 50, 64
2, 22020, Note_on_c, 0, 78, 0
2, 22020, Note_on_c, 0, 74, 64
2, 22080, Note_on_c, 0, 74, 0
2, 22080, Note_on_c, 0, 50, 0
2, 22080, Note_on_c, 0, 73, 64
2, 22080, Note_on_c, 0, 52, 64
2, 22140, Note_on_c, 0, 73, 0
2, 22140, Note_on_c, 0, 71, 64
2, 22200, Note_on_c, 0, 71, 0
2, 22200, Note_on_c, 0, 52, 0
2, 22200, Note_on_c, 0, 54, 64
2, 22200, Note_on_c, 0, 70, 64
2, 22260, Note_on_c, 0, 70, 0
2, 22260, Note_on_c, 0, 76, 64
2, 22320, Note_on_c, 0, 76, 0
2, 22320, Note_on_c, 0, 54, 0
2, 22320, Note_on_c, 0, 74, 64
2, 22320, Note_on_c, 0, 47, 64
2, 22380, Note_on_c, 0, 74, 0
2, 22380, Note_on_c, 0, 71, 64
2, 22440, Note_on_c, 0, 71, 0
2, 22440, Note_on_c, 0, 47, 0
2, 22440, Note_on_c, 0, 73, 64
2, 22440, Note_on_c, 0, 59, 64
2, 22500, Note_on_c, 0, 73, 0
2, 22500, Note_on_c, 0, 74, 64
2, 22560, Note_on_c, 0, 74, 0
2, 22560, Note_on_c, 0, 59, 0
2, 22560, Note_on_c, 0, 58, 64
2, 22560, Note_on_c, 0, 76, 64
2, 22620, Note_on_c, 0, 76, 0
2, 22620, Note_on_c, 0, 73, 64
2, 22680, Note_on_c, 0, 73, 0
2, 22680, Note_on_c, 0, 58, 0
2, 22680, Note_on_c, 0, 74, 64
2, 22680, Note_on_c, 0, 59, 64
2, 22740, Note_on_c, 0, 74, 0
2, 22740, Note_on_c, 0, 71, 64
2, 22800, Note_on_c, 0, 71, 0
2, 22800, Note_on_c, 0, 59, 0
2, 22800, Note_on_c, 0, 69, 64
2, 22800, Note_on_c, 0, 54, 64
2, 22860, Note_on_c, 0, 69, 0
2, 22860, Note_on_c, 0, 67, 64
2, 22920, Note_on_c, 0, 67, 0
2, 22920, Note_on_c, 0, 54, 0
2, 22920, Note_on_c, 0, 50, 64
2, 22920, Note_on_c, 0, 66, 64
2, 22980, Note_on_c, 0, 66, 0
2, 22980, Note_on_c, 0, 72, 64
2, 23040, Note_on_c, 0, 72, 0
2, 23040, Note_on_c, 0, 50, 0
2, 23040, Note_on_c, 0, 71, 64
2, 23040, Note_on_c, 0, 55, 64
2, 23100, Note_on_c, 0, 55, 0
2, 23100, Note_on_c, 0, 71, 0
2, 23100, Note_on_c, 0, 67, 64
2, 23100, Note_on_c, 0, 59, 64
2, 23160, Note_on_c, 0, 59, 0
2, 23160, Note_on_c, 0, 67, 0
2, 23160, Note_on_c, 0, 76, 64
2, 23160, Note_on_c, 0, 60, 64
2, 23220, Note_on_c, 0, 60, 0
2, 23220, Note_on_c, 0, 76, 0
2, 23220, Note_on_c, 0, 71, 64
2, 23220, Note_on_c, 0, 62, 64
2, 23280, Note_on_c, 0, 62, 0
2, 23280, Note_on_c, 0, 71, 0
2, 23280, Note_on_c, 0, 72, 64
2, 23280, Note_on_c, 0, 64, 64
2, 23340, Note_on_c, 0, 64, 0
2, 23340, Note_on_c, 0, 72, 0
2, 23340, Note_on_c, 0, 60, 64
2, 23340, Note_on_c, 0, 81, 64
2, 23400, Note_on_c, 0, 81, 0
2, 23400, Note_on_c, 0, 60, 0
2, 23400, Note_on_c, 0, 71, 64
2, 23400, Note_on_c, 0, 62, 64
2, 23460, Note_on_c, 0, 62, 0
2, 23460, Note_on_c, 0, 71, 0
2, 23460, Note_on_c, 0, 74, 64
2, 23460, Note_on_c, 0, 59, 64
2, 23520, Note_on_c, 0, 59, 0
2, 23520, Note_on_c, 0, 74, 0
2, 23520, Note_on_c, 0, 79, 64
2, 23520, Note_on_c, 0, 57, 64
2, 23580, Note_on_c, 0, 57, 0
2, 23580, Note_on_c, 0, 55, 64
2, 23640, Note_on_c, 0, 55, 0
2, 23640, Note_on_c, 0, 79, 0
2, 23640, Note_on_c, 0, 71, 64
2, 23640, Note_on_c, 0, 54, 64
2, 23655, Note_on_c, 0, 71, 0
2, 23655, Note_on_c, 0, 69, 64
2, 23670, Note_on_c, 0, 69, 0
2, 23670, Note_on_c, 0, 71, 64
2, 23685, Note_on_c, 0, 71, 0
2, 23685, Note_on_c, 0, 69, 64
2, 23700, Note_on_c, 0, 69, 0
2, 23700, Note_on_c, 0, 54, 0
2, 23700, Note_on_c, 0, 71, 64
2, 23700, Note_on_c, 0, 60, 64
2, 23715, Note_on_c, 0, 71, 0
2, 23715, Note_on_c, 0, 69, 64
2, 23760, Note_on_c, 0, 69, 0
2, 23760, Note_on_c, 0, 60, 0
2, 23760, Note_on_c, 0, 67, 64
2, 23760, Note_on_c, 0, 59, 64
2, 23820, Note_on_c, 0, 59, 0
2, 23820, Note_on_c, 0, 67, 0
2, 23820, Note_on_c, 0, 64, 64
2, 23820, Note_on_c, 0, 55, 64
2, 23880, Note_on_c, 0, 55, 0
2, 23880, Note_on_c, 0, 64, 0
2, 23880, Note_on_c, 0, 72, 64
2, 23880, Note_on_c, 0, 57, 64
2, 23940, Note_on_c, 0, 57, 0
2, 23940, Note_on_c, 0, 72, 0
2, 23940, Note_on_c, 0, 67, 64
2, 23940, Note_on_c, 0, 59, 64
2, 24000, Note_on_c, 0, 59, 0
2, 24000, Note_on_c, 0, 67, 0
2, 24000, Note_on_c, 0, 69, 64
2, 24000, Note_on_c, 0, 60, 64
2, 24060, Note_on_c, 0, 60, 0
2, 24060, Note_on_c, 0, 69, 0
2, 24060, Note_on_c, 0, 57, 64
2, 24060, Note_on_c, 0, 78, 64
2, 24120, Note_on_c, 0, 78, 0
2, 24120, Note_on_c, 0, 57, 0
2, 24120, Note_on_c, 0, 67, 64
2, 24120, Note_on_c, 0, 59, 64
2, 24180, Note_on_c, 0, 59, 0
2, 24180, Note_on_c, 0, 67, 0
2, 24180, Note_on_c, 0, 71, 64
2, 24180, Note_on_c, 0, 55, 64
2, 24240, Note_on_c, 0, 55, 0
2, 24240, Note_on_c, 0, 71, 0
2, 24240, Note_on_c, 0, 76, 64
2, 24240, Note_on_c, 0, 54, 64
2, 24300, Note_on_c, 0, 54, 0
2, 24300, Note_on_c, 0, 52, 64
2, 24360, Note_on_c, 0, 52, 0
2, 24360, Note_on_c, 0, 76, 0
2, 24360, Note_on_c, 0, 67, 70
2, 24360, Note_on_c, 0, 51, 64
2, 24375, Note_on_c, 0, 67, 0
2, 24375, Note_on_c, 0, 66, 64
2, 24390, Note_on_c, 0, 66, 0
2, 24390, Note_on_c, 0, 67, 64
2, 24405, Note_on_c, 0, 67, 0
2, 24405, Note_on_c, 0, 66, 64
2, 24420, Note_on_c, 0, 66, 0
2, 24420, Note_on_c, 0, 51, 0
2, 24420, Note_on_c, 0, 67, 64
2, 24420, Note_on_c, 0, 57, 64
2, 24435, Note_on_c, 0, 67, 0
2, 24435, Note_on_c, 0, 66, 64
2, 24480, Note_on_c, 0, 66, 0
2, 24480, Note_on_c, 0, 57, 0
2, 24480, Note_on_c, 0, 64, 64
2, 24480, Note_on_c, 0, 55, 64
2, 24540, Note_on_c, 0, 55, 0
2, 24540, Note_on_c, 0, 64, 0
2, 24540, Note_on_c, 0, 67, 64
2, 24540, Note_on_c, 0, 52, 64
2, 24600, Note_on_c, 0, 52, 0
2, 24600, Note_on_c, 0, 67, 0
2, 24600, Note_on_c, 0, 69, 64
2, 24600, Note_on_c, 0, 54, 64
2, 24660, Note_on_c, 0, 54, 0
2, 24660, Note_on_c, 0, 69, 0
2, 24660, Note_on_c, 0, 71, 64
2, 24660, Note_on_c, 0, 55, 64
2, 24720, Note_on_c, 0, 55, 0
2, 24720, Note_on_c, 0, 71, 0
2, 24720, Note_on_c, 0, 72, 64
2, 24720, Note_on_c, 0, 57, 64
2, 24780, Note_on_c, 0, 57, 0
2, 24780, Note_on_c, 0, 72, 0
2, 24780, Note_on_c, 0, 54, 64
2, 24780, Note_on_c, 0, 69, 64
2, 24840, Note_on_c, 0, 69, 0
2, 24840, Note_on_c, 0, 54, 0
2, 24840, Note_on_c, 0, 71, 64
2, 24840, Note_on_c, 0, 55, 64
2, 24870, Note_on_c, 0, 71, 0
2, 24870, Note_on_c, 0, 69, 64
2, 24900, Note_on_c, 0, 69, 0
2, 24900, Note_on_c, 0, 55, 0
2, 24900, Note_on_c, 0, 67, 64
2, 24900, Note_on_c, 0, 52, 64
2, 24960, Note_on_c, 0, 52, 0
2, 24960, Note_on_c, 0, 67, 0
2, 24960, Note_on_c, 0, 77, 64
2, 24960, Note_on_c, 0, 50, 64
2, 25020, Note_on_c, 0, 50, 0
2, 25020, Note_on_c, 0, 48, 64
2, 25080, Note_on_c, 0, 48, 0
2, 25080, Note_on_c, 0, 77, 0
2, 25080, Note_on_c, 0, 47, 64
2, 25140, Note_on_c, 0, 47, 0
2, 25140, Note_on_c, 0, 53, 64
2, 25200, Note_on_c, 0, 53, 0
2, 25200, Note_on_c, 0, 52, 64
2, 25260, Note_on_c, 0, 52, 0
2, 25260, Note_on_c, 0, 64, 64
2, 25260, Note_on_c, 0, 43, 64
2, 25320, Note_on_c, 0, 43, 0
2, 25320, Note_on_c, 0, 64, 0
2, 25320, Note_on_c, 0, 66, 64
2, 25320, Note_on_c, 0, 45, 64
2, 25380, Note_on_c, 0, 45, 0
2, 25380, Note_on_c, 0, 66, 0
2, 25380, Note_on_c, 0, 67, 64
2, 25380, Note_on_c, 0, 47, 64
2, 25440, Note_on_c, 0, 47, 0
2, 25440, Note_on_c, 0, 67, 0
2, 25440, Note_on_c, 0, 48, 64
2, 25440, Note_on_c, 0, 69, 64
2, 25500, Note_on_c, 0, 69, 0
2, 25500, Note_on_c, 0, 66, 64
2, 25560, Note_on_c, 0, 66, 0
2, 25560, Note_on_c, 0, 67, 64
2, 25620, Note_on_c, 0, 67, 0
2, 25620, Note_on_c, 0, 48, 0
2, 25620, Note_on_c, 0, 62, 64
2, 25620, Note_on_c, 0, 47, 64
2, 25680, Note_on_c, 0, 47, 0
2, 25680, Note_on_c, 0, 62, 0
2, 25680, Note_on_c, 0, 64, 64
2, 25680, Note_on_c, 0, 49, 64
2, 25740, Note_on_c, 0, 49, 0
2, 25740, Note_on_c, 0, 64, 0
2, 25740, Note_on_c, 0, 66, 64
2, 25740, Note_on_c, 0, 50, 64
2, 25800, Note_on_c, 0, 50, 0
2, 25800, Note_on_c, 0, 66, 0
2, 25800, Note_on_c, 0, 67, 64
2, 25800, Note_on_c, 0, 52, 64
2, 25860, Note_on_c, 0, 52, 0
2, 25860, Note_on_c, 0, 49, 64
2, 25920, Note_on_c, 0, 49, 0
2, 25920, Note_on_c, 0, 50, 64
2, 25980, Note_on_c, 0, 50, 0
2, 25980, Note_on_c, 0, 67, 0
2, 25980, Note_on_c, 0, 66, 64
2, 25980, Note_on_c, 0, 45, 64
2, 26040, Note_on_c, 0, 45, 0
2, 26040, Note_on_c, 0, 66, 0
2, 26040, Note_on_c, 0, 68, 64
2, 26040, Note_on_c, 0, 47, 64
2, 26100, Note_on_c, 0, 47, 0
2, 26100, Note_on_c, 0, 68, 0
2, 26100, Note_on_c, 0, 69, 64
2, 26100, Note_on_c, 0, 48, 64
2, 26160, Note_on_c, 0, 48, 0
2, 26160, Note_on_c, 0, 69, 0
2, 26160, Note_on_c, 0, 50, 64
2, 26160, Note_on_c, 0, 71, 64
2, 26220, Note_on_c, 0, 71, 0
2, 26220, Note_on_c, 0, 68, 64
2, 26280, Note_on_c, 0, 68, 0
2, 26280, Note_on_c, 0, 69, 64
2, 26340, Note_on_c, 0, 69, 0
2, 26340, Note_on_c, 0, 50, 0
2, 26340, Note_on_c, 0, 64, 64
2, 26340, Note_on_c, 0, 49, 64
2, 26400, Note_on_c, 0, 49, 0
2, 26400, Note_on_c, 0, 64, 0
2, 26400, Note_on_c, 0, 66, 64
2, 26400, Note_on_c, 0, 51, 64
2, 26460, Note_on_c, 0, 51, 0
2, 26460, Note_on_c, 0, 66, 0
2, 26460, Note_on_c, 0, 67, 64
2, 26460, Note_on_c, 0, 52, 64
2, 26520, Note_on_c, 0, 52, 0
2, 26520, Note_on_c, 0, 67, 0
2, 26520, Note_on_c, 0, 69, 64
2, 26520, Note_on_c, 0, 54, 64
2, 26580, Note_on_c, 0, 54, 0
2, 26580, Note_on_c, 0, 51, 64
2, 26640, Note_on_c, 0, 51, 0
2, 26640, Note_on_c, 0, 52, 64
2, 26700, Note_on_c, 0, 52, 0
2, 26700, Note_on_c, 0, 69, 0
2, 26700, Note_on_c, 0, 68, 64
2, 26700, Note_on_c, 0, 47, 64
2, 26760, Note_on_c, 0, 47, 0
2, 26760, Note_on_c, 0, 68, 0
2, 26760, Note_on_c, 0, 70, 64
2, 26760, Note_on_c, 0, 49, 64
2, 26820, Note_on_c, 0, 49, 0
2, 26820, Note_on_c, 0, 70, 0
2, 26820, Note_on_c, 0, 71, 64
2, 26820, Note_on_c, 0, 50, 64
2, 26880, Note_on_c, 0, 50, 0
2, 26880, Note_on_c, 0, 71, 0
2, 26880, Note_on_c, 0, 52, 64
2, 26880, Note_on_c, 0, 73, 64
2, 26940, Note_on_c, 0, 73, 0
2, 26940, Note_on_c, 0, 70, 64
2, 27000, Note_on_c, 0, 70, 0
2, 27000, Note_on_c, 0, 71, 64
2, 27060, Note_on_c, 0, 71, 0
2, 27060, Note_on_c, 0, 52, 0
2, 27060, Note_on_c, 0, 66, 64
2, 27060, Note_on_c, 0, 50, 64
2, 27120, Note_on_c, 0, 50, 0
2, 27120, Note_on_c, 0, 66, 0
2, 27120, Note_on_c, 0, 68, 64
2, 27120, Note_on_c, 0, 52, 64
2, 27180, Note_on_c, 0, 52, 0
2, 27180, Note_on_c, 0, 68, 0
2, 27180, Note_on_c, 0, 70, 64
2, 27180, Note_on_c, 0, 54, 64
2, 27240, Note_on_c, 0, 54, 0
2, 27240, Note_on_c, 0, 70, 0
2, 27240, Note_on_c, 0, 71, 64
2, 27240, Note_on_c, 0, 55, 64
2, 27300, Note_on_c, 0, 55, 0
2, 27300, Note_on_c, 0, 52, 64
2, 27360, Note_on_c, 0, 52, 0
2, 27360, Note_on_c, 0, 55, 76
2, 27380, Note_on_c, 0, 55, 0
2, 27380, Note_on_c, 0, 54, 48
2, 27400, Note_on_c, 0, 55, 48
2, 27402, Note_on_c, 0, 54, 0
2, 27420, Note_on_c, 0, 71, 0
2, 27420, Note_on_c, 0, 54, 48
2, 27420, Note_on_c, 0, 70, 64
2, 27422, Note_on_c, 0, 55, 0
2, 27440, Note_on_c, 0, 55, 48
2, 27442, Note_on_c, 0, 54, 0
2, 27460, Note_on_c, 0, 54, 49
2, 27462, Note_on_c, 0, 55, 0
2, 27480, Note_on_c, 0, 70, 0
2, 27480, Note_on_c, 0, 55, 49
2, 27480, Note_on_c, 0, 71, 64
2, 27482, Note_on_c, 0, 54, 0
2, 27500, Note_on_c, 0, 54, 49
2, 27502, Note_on_c, 0, 55, 0
2, 27520, Note_on_c, 0, 55, 49
2, 27522, Note_on_c, 0, 54, 0
2, 27540, Note_on_c, 0, 71, 0
2, 27540, Note_on_c, 0, 54, 49
2, 27540, Note_on_c, 0, 73, 64
2, 27542, Note_on_c, 0, 55, 0
2, 27560, Note_on_c, 0, 55, 50
2, 27562, Note_on_c, 0, 54, 0
2, 27580, Note_on_c, 0, 54, 50
2, 27582, Note_on_c, 0, 55, 0
2, 27600, Note_on_c, 0, 73, 0
2, 27600, Note_on_c, 0, 55, 50
2, 27600, Note_on_c, 0, 74, 64
2, 27602, Note_on_c, 0, 54, 0
2, 27620, Note_on_c, 0, 54, 50
2, 27622, Note_on_c, 0, 55, 0
2, 27640, Note_on_c, 0, 55, 51
2, 27642, Note_on_c, 0, 54, 0
2, 27660, Note_on_c, 0, 74, 0
2, 27660, Note_on_c, 0, 54, 51
2, 27660, Note_on_c, 0, 71, 64
2, 27662, Note_on_c, 0, 55, 0
2, 27680, Note_on_c, 0, 55, 51
2, 27682, Note_on_c, 0, 54, 0
2, 27700, Note_on_c, 0, 54, 51
2, 27702, Note_on_c, 0, 55, 0
2, 27720, Note_on_c, 0, 71, 0
2, 27720, Note_on_c, 0, 55, 52
2, 27720, Note_on_c, 0, 73, 64
2, 27722, Note_on_c, 0, 54, 0
2, 27740, Note_on_c, 0, 54, 52
2, 27742, Note_on_c, 0, 55, 0
2, 27760, Note_on_c, 0, 55, 52
2, 27762, Note_on_c, 0, 54, 0
2, 27780, Note_on_c, 0, 73, 0
2, 27780, Note_on_c, 0, 54, 52
2, 27780, Note_on_c, 0, 71, 64
2, 27782, Note_on_c, 0, 55, 0
2, 27800, Note_on_c, 0, 55, 52
2, 27802, Note_on_c, 0, 54, 0
2, 27820, Note_on_c, 0, 54, 53
2, 27822, Note_on_c, 0, 55, 0
2, 27840, Note_on_c, 0, 71, 0
2, 27840, Note_on_c, 0, 55, 53
2, 27840, Note_on_c, 0, 70, 64
2, 27842, Note_on_c, 0, 54, 0
2, 27860, Note_on_c, 0, 54, 53
2, 27862, Note_on_c, 0, 55, 0
2, 27880, Note_on_c, 0, 55, 53
2, 27882, Note_on_c, 0, 54, 0
2, 27900, Note_on_c, 0, 70, 0
2, 27900, Note_on_c, 0, 54, 54
2, 27900, Note_on_c, 0, 68, 64
2, 27902, Note_on_c, 0, 55, 0
2, 27920, Note_on_c, 0, 55, 54
2, 27922, Note_on_c, 0, 54, 0
2, 27940, Note_on_c, 0, 54, 54
2, 27942, Note_on_c, 0, 55, 0
2, 27960, Note_on_c, 0, 68, 0
2, 27960, Note_on_c, 0, 55, 54
2, 27960, Note_on_c, 0, 66, 64
2, 27962, Note_on_c, 0, 54, 0
2, 27980, Note_on_c, 0, 54, 55
2, 27982, Note_on_c, 0, 55, 0
2, 28000, Note_on_c, 0, 55, 55
2, 28002, Note_on_c, 0, 54, 0
2, 28020, Note_on_c, 0, 66, 0
2, 28020, Note_on_c, 0, 54, 55
2, 28020, Note_on_c, 0, 64, 64
2, 28022, Note_on_c, 0, 55, 0
2, 28040, Note_on_c, 0, 55, 55
2, 28042, Note_on_c, 0, 54, 0
2, 28060, Note_on_c, 0, 54, 55
2, 28062, Note_on_c, 0, 55, 0
2, 28080, Note_on_c, 0, 64, 0
2, 28080, Note_on_c, 0, 55, 56
2, 28080, Note_on_c, 0, 62, 64
2, 28082, Note_on_c, 0, 54, 0
2, 28100, Note_on_c, 0, 54, 56
2, 28102, Note_on_c, 0, 55, 0
2, 28120, Note_on_c, 0, 55, 56
2, 28122, Note_on_c, 0, 54, 0
2, 28140, Note_on_c, 0, 62, 0
2, 28140, Note_on_c, 0, 54, 56
2, 28140, Note_on_c, 0, 66, 64
2, 28142, Note_on_c, 0, 55, 0
2, 28160, Note_on_c, 0, 55, 57
2, 28162, Note_on_c, 0, 54, 0
2, 28180, Note_on_c, 0, 54, 57
2, 28182, Note_on_c, 0, 55, 0
2, 28200, Note_on_c, 0, 66, 0
2, 28200, Note_on_c, 0, 55, 57
2, 28200, Note_on_c, 0, 68, 64
2, 28202, Note_on_c, 0, 54, 0
2, 28220, Note_on_c, 0, 54, 57
2, 28222, Note_on_c, 0, 55, 0
2, 28240, Note_on_c, 0, 55, 58
2, 28242, Note_on_c, 0, 54, 0
2, 28260, Note_on_c, 0, 68, 0
2, 28260, Note_on_c, 0, 54, 58
2, 28260, Note_on_c, 0, 70, 64
2, 28262, Note_on_c, 0, 55, 0
2, 28280, Note_on_c, 0, 55, 58
2, 28282, Note_on_c, 0, 54, 0
2, 28300, Note_on_c, 0, 54, 58
2, 28302, Note_on_c, 0, 55, 0
2, 28320, Note_on_c, 0, 70, 0
2, 28320, Note_on_c, 0, 55, 58
2, 28320, Note_on_c, 0, 71, 64
2, 28322, Note_on_c, 0, 54, 0
2, 28340, Note_on_c, 0, 54, 59
2, 28342, Note_on_c, 0, 55, 0
2, 28360, Note_on_c, 0, 55, 59
2, 28362, Note_on_c, 0, 54, 0
2, 28380, Note_on_c, 0, 71, 0
2, 28380, Note_on_c, 0, 54, 59
2, 28380, Note_on_c, 0, 68, 64
2, 28382, Note_on_c, 0, 55, 0
2, 28400, Note_on_c, 0, 55, 59
2, 28402, Note_on_c, 0, 54, 0
2, 28420, Note_on_c, 0, 54, 60
2, 28422, Note_on_c, 0, 55, 0
2, 28440, Note_on_c, 0, 68, 0
2, 28440, Note_on_c, 0, 55, 60
2, 28440, Note_on_c, 0, 70, 64
2, 28442, Note_on_c, 0, 54, 0
2, 28460, Note_on_c, 0, 54, 60
2, 28462, Note_on_c, 0, 55, 0
2, 28480, Note_on_c, 0, 55, 60
2, 28482, Note_on_c, 0, 54, 0
2, 28500, Note_on_c, 0, 70, 0
2, 28500, Note_on_c, 0, 54, 61
2, 28500, Note_on_c, 0, 68, 64
2, 28502, Note_on_c, 0, 55, 0
2, 28520, Note_on_c, 0, 55, 61
2, 28522, Note_on_c, 0, 54, 0
2, 28540, Note_on_c, 0, 54, 61
2, 28542, Note_on_c, 0, 55, 0
2, 28560, Note_on_c, 0, 68, 0
2, 28560, Note_on_c, 0, 55, 61
2, 28560, Note_on_c, 0, 66, 64
2, 28562, Note_on_c, 0, 54, 0
2, 28580, Note_on_c, 0, 54, 62
2, 28582, Note_on_c, 0, 55, 0
2, 28600, Note_on_c, 0, 55, 62
2, 28602, Note_on_c, 0, 54, 0
2, 28620, Note_on_c, 0, 66, 0
2, 28620, Note_on_c, 0, 54, 62
2, 28620, Note_on_c, 0, 64, 64
2, 28622, Note_on_c, 0, 55, 0
2, 28640, Note_on_c, 0, 55, 62
2, 28642, Note_on_c, 0, 54, 0
2, 28660, Note_on_c, 0, 54, 62
2, 28662, Note_on_c, 0, 55, 0
2, 28680, Note_on_c, 0, 64, 0
2, 28680, Note_on_c, 0, 55, 63
2, 28680, Note_on_c, 0, 62, 64
2, 28682, Note_on_c, 0, 54, 0
2, 28700, Note_on_c, 0, 54, 63
2, 28702, Note_on_c, 0, 55, 0
2, 28720, Note_on_c, 0, 55, 63
2, 28722, Note_on_c, 0, 54, 0
2, 28740, Note_on_c, 0, 62, 0
2, 28740, Note_on_c, 0, 61, 64
2, 28740, Note_on_c, 0, 54, 63
2, 28742, Note_on_c, 0, 55, 0
2, 28790, Note_on_c, 0, 61, 0
2, 28800, Note_on_c, 0, 61, 76
2, 28806, Note_on_c, 0, 54, 0
2, 28820, Note_on_c, 0, 61, 0
2, 28820, Note_on_c, 0, 59, 48
2, 28840, Note_on_c, 0, 61, 48
2, 28842, Note_on_c, 0, 59, 0
2, 28860, Note_on_c, 0, 59, 48
2, 28860, Note_on_c, 0, 51, 64
2, 28862, Note_on_c, 0, 61, 0
2, 28880, Note_on_c, 0, 61, 48
2, 28882, Note_on_c, 0, 59, 0
2, 28900, Note_on_c, 0, 59, 48
2, 28902, Note_on_c, 0, 61, 0
2, 28920, Note_on_c, 0, 51, 0
2, 28920, Note_on_c, 0, 61, 49
2, 28920, Note_on_c, 0, 52, 64
2, 28922, Note_on_c, 0, 59, 0
2, 28940, Note_on_c, 0, 59, 49
2, 28942, Note_on_c, 0, 61, 0
2, 28960, Note_on_c, 0, 61, 49
2, 28962, Note_on_c, 0, 59, 0
2, 28980, Note_on_c, 0, 52, 0
2, 28980, Note_on_c, 0, 59, 49
2, 28980, Note_on_c, 0, 54, 64
2, 28982, Note_on_c, 0, 61, 0
2, 29000, Note_on_c, 0, 61, 50
2, 29002, Note_on_c, 0, 59, 0
2, 29020, Note_on_c, 0, 59, 50
2, 29022, Note_on_c, 0, 61, 0
2, 29040, Note_on_c, 0, 54, 0
2, 29040, Note_on_c, 0, 61, 50
2, 29040, Note_on_c, 0, 55, 64
2, 29042, Note_on_c, 0, 59, 0
2, 29060, Note_on_c, 0, 59, 50
2, 29062, Note_on_c, 0, 61, 0
2, 29080, Note_on_c, 0, 61, 50
2, 29082, Note_on_c, 0, 59, 0
2, 29100, Note_on_c, 0, 55, 0
2, 29100, Note_on_c, 0, 59, 51
2, 29100, Note_on_c, 0, 52, 64
2, 29102, Note_on_c, 0, 61, 0
2, 29120, Note_on_c, 0, 61, 51
2, 29122, Note_on_c, 0, 59, 0
2, 29140, Note_on_c, 0, 59, 51
2, 29142, Note_on_c, 0, 61, 0
2, 29160, Note_on_c, 0, 52, 0
2, 29160, Note_on_c, 0, 61, 51
2, 29160, Note_on_c, 0, 54, 64
2, 29162, Note_on_c, 0, 59, 0
2, 29180, Note_on_c, 0, 59, 52
2, 29182, Note_on_c, 0, 61, 0
2, 29200, Note_on_c, 0, 61, 52
2, 29202, Note_on_c, 0, 59, 0
2, 29220, Note_on_c, 0, 54, 0
2, 29220, Note_on_c, 0, 59, 52
2, 29220, Note_on_c, 0, 52, 64
2, 29222, Note_on_c, 0, 61, 0
2, 29240, Note_on_c, 0, 61, 52
2, 29242, Note_on_c, 0, 59, 0
2, 29260, Note_on_c, 0, 59, 52
2, 29262, Note_on_c, 0, 61, 0
2, 29280, Note_on_c, 0, 52, 0
2, 29280, Note_on_c, 0, 61, 53
2, 29280, Note_on_c, 0, 51, 64
2, 29282, Note_on_c, 0, 59, 0
2, 29300, Note_on_c, 0, 59, 53
2, 29302, Note_on_c, 0, 61, 0
2, 29320, Note_on_c, 0, 61, 53
2, 29322, Note_on_c, 0, 59, 0
2, 29340, Note_on_c, 0, 51, 0
2, 29340, Note_on_c, 0, 59, 53
2, 29340, Note_on_c, 0, 49, 64
2, 29342, Note_on_c, 0, 61, 0
2, 29360, Note_on_c, 0, 61, 53
2, 29362, Note_on_c, 0, 59, 0
2, 29380, Note_on_c, 0, 59, 54
2, 29382, Note_on_c, 0, 61, 0
2, 29400, Note_on_c, 0, 49, 0
2, 29400, Note_on_c, 0, 61, 54
2, 29400, Note_on_c, 0, 47, 64
2, 29402, Note_on_c, 0, 59, 0
2, 29420, Note_on_c, 0, 59, 54
2, 29422, Note_on_c, 0, 61, 0
2, 29440, Note_on_c, 0, 61, 54
2, 29442, Note_on_c, 0, 59, 0
2, 29460, Note_on_c, 0, 47, 0
2, 29460, Note_on_c, 0, 59, 55
2, 29460, Note_on_c, 0, 45, 64
2, 29462, Note_on_c, 0, 61, 0
2, 29480, Note_on_c, 0, 61, 55
2, 29482, Note_on_c, 0, 59, 0
2, 29500, Note_on_c, 0, 59, 55
2, 29502, Note_on_c, 0, 61, 0
2, 29520, Note_on_c, 0, 45, 0
2, 29520, Note_on_c, 0, 61, 55
2, 29520, Note_on_c, 0, 43, 64
2, 29522, Note_on_c, 0, 59, 0
2, 29540, Note_on_c, 0, 59, 55
2, 29542, Note_on_c, 0, 61, 0
2, 29560, Note_on_c, 0, 61, 56
2, 29562, Note_on_c, 0, 59, 0
2, 29580, Note_on_c, 0, 43, 0
2, 29580, Note_on_c, 0, 59, 56
2, 29580, Note_on_c, 0, 47, 64
2, 29582, Note_on_c, 0, 61, 0
2, 29600, Note_on_c, 0, 61, 56
2, 29602, Note_on_c, 0, 59, 0
2, 29620, Note_on_c, 0, 59, 56
2, 29622, Note_on_c, 0, 61, 0
2, 29640, Note_on_c, 0, 47, 0
2, 29640, Note_on_c, 0, 61, 57
2, 29640, Note_on_c, 0, 49, 64
2, 29642, Note_on_c, 0, 59, 0
2, 29660, Note_on_c, 0, 59, 57
2, 29662, Note_on_c, 0, 61, 0
2, 29680, Note_on_c, 0, 61, 57
2, 29682, Note_on_c, 0, 59, 0
2, 29700, Note_on_c, 0, 49, 0
2, 29700, Note_on_c, 0, 59, 57
2, 29700, Note_on_c, 0, 51, 64
2, 29702, Note_on_c, 0, 61, 0
2, 29720, Note_on_c, 0, 61, 57
2, 29722, Note_on_c, 0, 59, 0
2, 29740, Note_on_c, 0, 59, 58
2, 29742, Note_on_c, 0, 61, 0
2, 29760, Note_on_c, 0, 51, 0
2, 29760, Note_on_c, 0, 61, 58
2, 29760, Note_on_c, 0, 52, 64
2, 29762, Note_on_c, 0, 59, 0
2, 29780, Note_on_c, 0, 59, 58
2, 29782, Note_on_c, 0, 61, 0
2, 29800, Note_on_c, 0, 61, 58
2, 29802, Note_on_c, 0, 59, 0
2, 29820, Note_on_c, 0, 52, 0
2, 29820, Note_on_c, 0, 59, 59
2, 29820, Note_on_c, 0, 49, 64
2, 29822, Note_on_c, 0, 61, 0
2, 29840, Note_on_c, 0, 61, 59
2, 29842, Note_on_c, 0, 59, 0
2, 29860, Note_on_c, 0, 59, 59
2, 29862, Note_on_c, 0, 61, 0
2, 29880, Note_on_c, 0, 49, 0
2, 29880, Note_on_c, 0, 61, 59
2, 29880, Note_on_c, 0, 51, 64
2, 29882, Note_on_c, 0, 59, 0
2, 29900, Note_on_c, 0, 59, 59
2, 29902, Note_on_c, 0, 61, 0
2, 29920, Note_on_c, 0, 61, 60
2, 29922, Note_on_c, 0, 59, 0
2, 29940, Note_on_c, 0, 51, 0
2, 29940, Note_on_c, 0, 59, 60
2, 29940, Note_on_c, 0, 49, 64
2, 29942, Note_on_c, 0, 61, 0
2, 29960, Note_on_c, 0, 61, 60
2, 29962, Note_on_c, 0, 59, 0
2, 29980, Note_on_c, 0, 59, 60
2, 29982, Note_on_c, 0, 61, 0
2, 30000, Note_on_c, 0, 49, 0
2, 30000, Note_on_c, 0, 61, 60
2, 30000, Note_on_c, 0, 47, 64
2, 30002, Note_on_c, 0, 59, 0
2, 30020, Note_on_c, 0, 59, 61
2, 30022, Note_on_c, 0, 61, 0
2, 30040, Note_on_c, 0, 61, 61
2, 30042, Note_on_c, 0, 59, 0
2, 30060, Note_on_c, 0, 47, 0
2, 30060, Note_on_c, 0, 59, 61
2, 30060, Note_on_c, 0, 45, 64
2, 30062, Note_on_c, 0, 61, 0
2, 30080, Note_on_c, 0, 61, 61
2, 30082, Note_on_c, 0, 59, 0
2, 30100, Note_on_c, 0, 59, 62
2, 30102, Note_on_c, 0, 61, 0
2, 30120, Note_on_c, 0, 45, 0
2, 30120, Note_on_c, 0, 61, 62
2, 30120, Note_on_c, 0, 43, 64
2, 30122, Note_on_c, 0, 59, 0
2, 30140, Note_on_c, 0, 59, 62
2, 30142, Note_on_c, 0, 61, 0
2, 30160, Note_on_c, 0, 61, 62
2, 30162, Note_on_c, 0, 59, 0
2, 30180, Note_on_c, 0, 43, 0
2, 30180, Note_on_c, 0, 59, 62
2, 30180, Note_on_c, 0, 42, 64
2, 30182, Note_on_c, 0, 61, 0
2, 30200, Note_on_c, 0, 61, 63
2, 30202, Note_on_c, 0, 59, 0
2, 30220, Note_on_c, 0, 59, 63
2, 30222, Note_on_c, 0, 61, 0
2, 30240, Note_on_c, 0, 42, 0
2, 30240, Note_on_c, 0, 61, 63
2, 30240, Note_on_c, 0, 40, 64
2, 30242, Note_on_c, 0, 59, 0
2, 30260, Note_on_c, 0, 59, 63
2, 30262, Note_on_c, 0, 61, 0
2, 30300, Note_on_c, 0, 40, 0
2, 30300, Note_on_c, 0, 50, 64
2, 30348, Note_on_c, 0, 59, 0
2, 30360, Note_on_c, 0, 50, 0
2, 30360, Note_on_c, 0, 64, 64
2, 30360, Note_on_c, 0, 49, 64
2, 30375, Note_on_c, 0, 64, 0
2, 30375, Note_on_c, 0, 62, 64
2, 30390, Note_on_c, 0, 62, 0
2, 30390, Note_on_c, 0, 64, 64
2, 30420, Note_on_c, 0, 49, 0
2, 30420, Note_on_c, 0, 47, 64
2, 30480, Note_on_c, 0, 47, 0
2, 30480, Note_on_c, 0, 46, 64
2, 30540, Note_on_c, 0, 46, 0
2, 30540, Note_on_c, 0, 49, 64
2, 30600, Note_on_c, 0, 49, 0
2, 30600, Note_on_c, 0, 42, 64
2, 30660, Note_on_c, 0, 64, 0
2, 30660, Note_on_c, 0, 66, 64
2, 30720, Note_on_c, 0, 66, 0
2, 30720, Note_on_c, 0, 42, 0
2, 30720, Note_on_c, 0, 55, 72
2, 30720, Note_on_c, 0, 64, 64
2, 30740, Note_on_c, 0, 55, 0
2, 30740, Note_on_c, 0, 54, 64
2, 30760, Note_on_c, 0, 54, 0
2, 30760, Note_on_c, 0, 55, 64
2, 30780, Note_on_c, 0, 64, 0
2, 30780, Note_on_c, 0, 62, 64
2, 30840, Note_on_c, 0, 62, 0
2, 30840, Note_on_c, 0, 61, 64
2, 30900, Note_on_c, 0, 61, 0
2, 30900, Note_on_c, 0, 64, 64
2, 30960, Note_on_c, 0, 64, 0
2, 30960, Note_on_c, 0, 58, 64
2, 31020, Note_on_c, 0, 55, 0
2, 31020, Note_on_c, 0, 54, 64
2, 31080, Note_on_c, 0, 54, 0
2, 31080, Note_on_c, 0, 58, 0
2, 31080, Note_on_c, 0, 73, 64
2, 31080, Note_on_c, 0, 52, 64
2, 31100, Note_on_c, 0, 73, 0
2, 31100, Note_on_c, 0, 71, 64
2, 31120, Note_on_c, 0, 71, 0
2, 31120, Note_on_c, 0, 73, 64
2, 31140, Note_on_c, 0, 52, 0
2, 31140, Note_on_c, 0, 50, 64
2, 31200, Note_on_c, 0, 50, 0
2, 31200, Note_on_c, 0, 49, 64
2, 31260, Note_on_c, 0, 49, 0
2, 31260, Note_on_c, 0, 52, 64
2, 31320, Note_on_c, 0, 52, 0
2, 31320, Note_on_c, 0, 46, 64
2, 31380, Note_on_c, 0, 73, 0
2, 31380, Note_on_c, 0, 74, 64
2, 31440, Note_on_c, 0, 74, 0
2, 31440, Note_on_c, 0, 46, 0
2, 31440, Note_on_c, 0, 64, 64
2, 31440, Note_on_c, 0, 73, 64
2, 31500, Note_on_c, 0, 73, 0
2, 31500, Note_on_c, 0, 71, 64
2, 31560, Note_on_c, 0, 71, 0
2, 31560, Note_on_c, 0, 70, 64
2, 31620, Note_on_c, 0, 70, 0
2, 31620, Note_on_c, 0, 73, 64
2, 31680, Note_on_c, 0, 73, 0
2, 31680, Note_on_c, 0, 66, 64
2, 31740, Note_on_c, 0, 64, 0
2, 31740, Note_on_c, 0, 62, 64
2, 31800, Note_on_c, 0, 62, 0
2, 31800, Note_on_c, 0, 66, 0
2, 31800, Note_on_c, 0, 79, 64
2, 31800, Note_on_c, 0, 61, 64
2, 31820, Note_on_c, 0, 79, 0
2, 31820, Note_on_c, 0, 78, 64
2, 31840, Note_on_c, 0, 78, 0
2, 31840, Note_on_c, 0, 79, 64
2, 31860, Note_on_c, 0, 61, 0
2, 31860, Note_on_c, 0, 59, 64
2, 31920, Note_on_c, 0, 59, 0
2, 31920, Note_on_c, 0, 58, 64
2, 31980, Note_on_c, 0, 58, 0
2, 31980, Note_on_c, 0, 61, 64
2, 32040, Note_on_c, 0, 61, 0
2, 32040, Note_on_c, 0, 54, 64
2, 32100, Note_on_c, 0, 79, 0
2, 32100, Note_on_c, 0, 78, 64
2, 32160, Note_on_c, 0, 78, 0
2, 32160, Note_on_c, 0, 54, 0
2, 32160, Note_on_c, 0, 76, 64
2, 32160, Note_on_c, 0, 56, 64
2, 32220, Note_on_c, 0, 76, 0
2, 32220, Note_on_c, 0, 74, 64
2, 32280, Note_on_c, 0, 74, 0
2, 32280, Note_on_c, 0, 56, 0
2, 32280, Note_on_c, 0, 58, 64
2, 32280, Note_on_c, 0, 73, 64
2, 32340, Note_on_c, 0, 73, 0
2, 32340, Note_on_c, 0, 76, 64
2, 32400, Note_on_c, 0, 76, 0
2, 32400, Note_on_c, 0, 58, 0
2, 32400, Note_on_c, 0, 76, 64
2, 32400, Note_on_c, 0, 59, 64
2, 32420, Note_on_c, 0, 76, 0
2, 32420, Note_on_c, 0, 74, 64
2, 32440, Note_on_c, 0, 74, 0
2, 32440, Note_on_c, 0, 73, 64
2, 32460, Note_on_c, 0, 73, 0
2, 32460, Note_on_c, 0, 59, 0
2, 32460, Note_on_c, 0, 74, 64
2, 32460, Note_on_c, 0, 58, 64
2, 32480, Note_on_c, 0, 74, 0
2, 32480, Note_on_c, 0, 76, 64
2, 32500, Note_on_c, 0, 76, 0
2, 32500, Note_on_c, 0, 74, 64
2, 32520, Note_on_c, 0, 74, 0
2, 32520, Note_on_c, 0, 58, 0
2, 32520, Note_on_c, 0, 76, 64
2, 32520, Note_on_c, 0, 59, 64
2, 32540, Note_on_c, 0, 76, 0
2, 32540, Note_on_c, 0, 74, 64
2, 32580, Note_on_c, 0, 59, 0
2, 32580, Note_on_c, 0, 61, 64
2, 32640, Note_on_c, 0, 61, 0
2, 32640, Note_on_c, 0, 62, 64
2, 32700, Note_on_c, 0, 62, 0
2, 32700, Note_on_c, 0, 59, 64
2, 32760, Note_on_c, 0, 59, 0
2, 32760, Note_on_c, 0, 53, 64
2, 32820, Note_on_c, 0, 53, 0
2, 32820, Note_on_c, 0, 74, 0
2, 32820, Note_on_c, 0, 73, 64
2, 32820, Note_on_c, 0, 54, 64
2, 32880, Note_on_c, 0, 54, 0
2, 32880, Note_on_c, 0, 73, 0
2, 32880, Note_on_c, 0, 71, 64
2, 32880, Note_on_c, 0, 56, 64
2, 32940, Note_on_c, 0, 56, 0
2, 32940, Note_on_c, 0, 71, 0
2, 32940, Note_on_c, 0, 69, 64
2, 32940, Note_on_c, 0, 57, 64
2, 33000, Note_on_c, 0, 57, 0
2, 33000, Note_on_c, 0, 69, 0
2, 33000, Note_on_c, 0, 68, 64
2, 33000, Note_on_c, 0, 59, 64
2, 33060, Note_on_c, 0, 59, 0
2, 33060, Note_on_c, 0, 68, 0
2, 33060, Note_on_c, 0, 71, 64
2, 33060, Note_on_c, 0, 56, 64
2, 33120, Note_on_c, 0, 56, 0
2, 33120, Note_on_c, 0, 71, 0
2, 33120, Note_on_c, 0, 65, 64
2, 33120, Note_on_c, 0, 49, 64
2, 33180, Note_on_c, 0, 65, 0
2, 33180, Note_on_c, 0, 74, 64
2, 33240, Note_on_c, 0, 74, 0
2, 33240, Note_on_c, 0, 49, 0
2, 33240, Note_on_c, 0, 73, 64
2, 33240, Note_on_c, 0, 53, 64
2, 33300, Note_on_c, 0, 73, 0
2, 33300, Note_on_c, 0, 71, 64
2, 33360, Note_on_c, 0, 71, 0
2, 33360, Note_on_c, 0, 53, 0
2, 33360, Note_on_c, 0, 54, 64
2, 33360, Note_on_c, 0, 70, 64
2, 33420, Note_on_c, 0, 70, 0
2, 33420, Note_on_c, 0, 73, 64
2, 33480, Note_on_c, 0, 73, 0
2, 33480, Note_on_c, 0, 54, 0
2, 33480, Note_on_c, 0, 76, 64
2, 33480, Note_on_c, 0, 55, 64
2, 33540, Note_on_c, 0, 76, 0
2, 33540, Note_on_c, 0, 79, 64
2, 33600, Note_on_c, 0, 79, 0
2, 33600, Note_on_c, 0, 55, 0
2, 33600, Note_on_c, 0, 78, 64
2, 33600, Note_on_c, 0, 46, 64
2, 33660, Note_on_c, 0, 78, 0
2, 33660, Note_on_c, 0, 76, 64
2, 33720, Note_on_c, 0, 76, 0
2, 33720, Note_on_c, 0, 46, 0
2, 33720, Note_on_c, 0, 47, 64
2, 33720, Note_on_c, 0, 74, 64
2, 33780, Note_on_c, 0, 74, 0
2, 33780, Note_on_c, 0, 78, 64
2, 33840, Note_on_c, 0, 78, 0
2, 33840, Note_on_c, 0, 47, 0
2, 33840, Note_on_c, 0, 71, 64
2, 33840, Note_on_c, 0, 43, 64
2, 33960, Note_on_c, 0, 43, 0
2, 33960, Note_on_c, 0, 71, 0
2, 33960, Note_on_c, 0, 73, 64
2, 33960, Note_on_c, 0, 40, 64
2, 34080, Note_on_c, 0, 40, 0
2, 34080, Note_on_c, 0, 73, 0
2, 34080, Note_on_c, 0, 71, 64
2, 34080, Note_on_c, 0, 42, 64
2, 34100, Note_on_c, 0, 71, 0
2, 34100, Note_on_c, 0, 70, 64
2, 34120, Note_on_c, 0, 70, 0
2, 34120, Note_on_c, 0, 68, 64
2, 34140, Note_on_c, 0, 68, 0
2, 34140, Note_on_c, 0, 70, 64
2, 34200, Note_on_c, 0, 70, 0
2, 34200, Note_on_c, 0, 42, 0
2, 34200, Note_on_c, 0, 47, 64
2, 34200, Note_on_c, 0, 71, 64
2, 34560, Note_on_c, 0, 71, 0
2, 34560, Note_on_c, 0, 47, 0
2, 34560, Note_on_c, 0, 78, 64
2, 34620, Note_on_c, 0, 59, 64
2, 34680, Note_on_c, 0, 59, 0
2, 34680, Note_on_c, 0, 57, 64
2, 34740, Note_on_c, 0, 57, 0
2, 34740, Note_on_c, 0, 55, 64
2, 34800, Note_on_c, 0, 55, 0
2, 34800, Note_on_c, 0, 54, 64
2, 34860, Note_on_c, 0, 54, 0
2, 34860, Note_on_c, 0, 57, 64
2, 34920, Note_on_c, 0, 57, 0
2, 34920, Note_on_c, 0, 55, 64
2, 34980, Note_on_c, 0, 55, 0
2, 34980, Note_on_c, 0, 59, 64
2, 35040, Note_on_c, 0, 59, 0
2, 35040, Note_on_c, 0, 78, 0
2, 35040, Note_on_c, 0, 76, 64
2, 35040, Note_on_c, 0, 61, 64
2, 35100, Note_on_c, 0, 61, 0
2, 35100, Note_on_c, 0, 76, 0
2, 35100, Note_on_c, 0, 78, 64
2, 35100, Note_on_c, 0, 62, 64
2, 35160, Note_on_c, 0, 62, 0
2, 35160, Note_on_c, 0, 78, 0
2, 35160, Note_on_c, 0, 79, 64
2, 35160, Note_on_c, 0, 64, 64
2, 35220, Note_on_c, 0, 64, 0
2, 35220, Note_on_c, 0, 57, 64
2, 35280, Note_on_c, 0, 57, 0
2, 35280, Note_on_c, 0, 79, 0
2, 35280, Note_on_c, 0, 78, 64
2, 35280, Note_on_c, 0, 62, 64
2, 35340, Note_on_c, 0, 62, 0
2, 35340, Note_on_c, 0, 55, 64
2, 35390, Note_on_c, 0, 78, 0
2, 35400, Note_on_c, 0, 55, 0
2, 35400, Note_on_c, 0, 78, 64
2, 35400, Note_on_c, 0, 57, 64
2, 35415, Note_on_c, 0, 78, 0
2, 35415, Note_on_c, 0, 76, 64
2, 35430, Note_on_c, 0, 76, 0
2, 35430, Note_on_c, 0, 78, 64
2, 35445, Note_on_c, 0, 78, 0
2, 35445, Note_on_c, 0, 76, 64
2, 35460, Note_on_c, 0, 76, 0
2, 35460, Note_on_c, 0, 57, 0
2, 35460, Note_on_c, 0, 78, 64
2, 35460, Note_on_c, 0, 59, 64
2, 35475, Note_on_c, 0, 78, 0
2, 35475, Note_on_c, 0, 76, 64
2, 35475, Note_on_c, 0, 76, 64
2, 35490, Note_on_c, 0, 76, 0
2, 35520, Note_on_c, 0, 76, 0
2, 35520, Note_on_c, 0, 59, 0
2, 35520, Note_on_c, 0, 69, 64
2, 35520, Note_on_c, 0, 60, 64
2, 35580, Note_on_c, 0, 60, 0
2, 35580, Note_on_c, 0, 54, 64
2, 35640, Note_on_c, 0, 54, 0
2, 35640, Note_on_c, 0, 69, 0
2, 35640, Note_on_c, 0, 74, 64
2, 35640, Note_on_c, 0, 59, 64
2, 35700, Note_on_c, 0, 59, 0
2, 35700, Note_on_c, 0, 52, 64
2, 35760, Note_on_c, 0, 52, 0
2, 35760, Note_on_c, 0, 74, 0
2, 35760, Note_on_c, 0, 72, 64
2, 35760, Note_on_c, 0, 54, 64
2, 35820, Note_on_c, 0, 54, 0
2, 35820, Note_on_c, 0, 72, 0
2, 35820, Note_on_c, 0, 71, 64
2, 35820, Note_on_c, 0, 55, 64
2, 35880, Note_on_c, 0, 55, 0
2, 35880, Note_on_c, 0, 71, 0
2, 35880, Note_on_c, 0, 72, 64
2, 35880, Note_on_c, 0, 57, 64
2, 35940, Note_on_c, 0, 57, 0
2, 35940, Note_on_c, 0, 51, 64
2, 36000, Note_on_c, 0, 51, 0
2, 36000, Note_on_c, 0, 55, 64
2, 36060, Note_on_c, 0, 72, 0
2, 36060, Note_on_c, 0, 71, 64
2, 36120, Note_on_c, 0, 71, 0
2, 36120, Note_on_c, 0, 55, 0
2, 36120, Note_on_c, 0, 69, 64
2, 36120, Note_on_c, 0, 57, 64
2, 36180, Note_on_c, 0, 69, 0
2, 36180, Note_on_c, 0, 67, 64
2, 36240, Note_on_c, 0, 67, 0
2, 36240, Note_on_c, 0, 57, 0
2, 36240, Note_on_c, 0, 59, 64
2, 36240, Note_on_c, 0, 66, 64
2, 36300, Note_on_c, 0, 66, 0
2, 36300, Note_on_c, 0, 69, 64
2, 36360, Note_on_c, 0, 69, 0
2, 36360, Note_on_c, 0, 59, 0
2, 36360, Note_on_c, 0, 67, 64
2, 36360, Note_on_c, 0, 52, 64
2, 36420, Note_on_c, 0, 67, 0
2, 36420, Note_on_c, 0, 71, 64
2, 36480, Note_on_c, 0, 71, 0
2, 36480, Note_on_c, 0, 52, 0
2, 36480, Note_on_c, 0, 72, 64
2, 36480, Note_on_c, 0, 50, 64
2, 36540, Note_on_c, 0, 72, 0
2, 36540, Note_on_c, 0, 74, 64
2, 36600, Note_on_c, 0, 74, 0
2, 36600, Note_on_c, 0, 50, 0
2, 36600, Note_on_c, 0, 48, 64
2, 36600, Note_on_c, 0, 76, 64
2, 36660, Note_on_c, 0, 76, 0
2, 36660, Note_on_c, 0, 69, 64
2, 36720, Note_on_c, 0, 69, 0
2, 36720, Note_on_c, 0, 48, 0
2, 36720, Note_on_c, 0, 74, 64
2, 36720, Note_on_c, 0, 47, 64
2, 36780, Note_on_c, 0, 74, 0
2, 36780, Note_on_c, 0, 68, 64
2, 36840, Note_on_c, 0, 68, 0
2, 36840, Note_on_c, 0, 47, 0
2, 36840, Note_on_c, 0, 69, 64
2, 36840, Note_on_c, 0, 40, 64
2, 36900, Note_on_c, 0, 69, 0
2, 36900, Note_on_c, 0, 71, 64
2, 36960, Note_on_c, 0, 71, 0
2, 36960, Note_on_c, 0, 40, 0
2, 36960, Note_on_c, 0, 45, 64
2, 36960, Note_on_c, 0, 72, 64
2, 37020, Note_on_c, 0, 72, 0
2, 37020, Note_on_c, 0, 66, 64
2, 37080, Note_on_c, 0, 66, 0
2, 37080, Note_on_c, 0, 45, 0
2, 37080, Note_on_c, 0, 71, 64
2, 37080, Note_on_c, 0, 38, 64
2, 37140, Note_on_c, 0, 38, 0
2, 37140, Note_on_c, 0, 71, 0
2, 37140, Note_on_c, 0, 64, 64
2, 37140, Note_on_c, 0, 36, 64
2, 37200, Note_on_c, 0, 36, 0
2, 37200, Note_on_c, 0, 64, 0
2, 37200, Note_on_c, 0, 66, 64
2, 37200, Note_on_c, 0, 38, 64
2, 37260, Note_on_c, 0, 38, 0
2, 37260, Note_on_c, 0, 66, 0
2, 37260, Note_on_c, 0, 68, 64
2, 37260, Note_on_c, 0, 40, 64
2, 37320, Note_on_c, 0, 40, 0
2, 37320, Note_on_c, 0, 68, 0
2, 37320, Note_on_c, 0, 41, 64
2, 37320, Note_on_c, 0, 69, 64
2, 37380, Note_on_c, 0, 69, 0
2, 37380, Note_on_c, 0, 63, 64
2, 37440, Note_on_c, 0, 63, 0
2, 37440, Note_on_c, 0, 41, 0
2, 37440, Note_on_c, 0, 68, 64
2, 37440, Note_on_c, 0, 40, 64
2, 37500, Note_on_c, 0, 40, 0
2, 37500, Note_on_c, 0, 52, 64
2, 37560, Note_on_c, 0, 52, 0
2, 37560, Note_on_c, 0, 68, 0
2, 37560, Note_on_c, 0, 71, 64
2, 37560, Note_on_c, 0, 50, 64
2, 37580, Note_on_c, 0, 71, 0
2, 37580, Note_on_c, 0, 69, 64
2, 37600, Note_on_c, 0, 69, 0
2, 37600, Note_on_c, 0, 68, 64
2, 37620, Note_on_c, 0, 68, 0
2, 37620, Note_on_c, 0, 50, 0
2, 37620, Note_on_c, 0, 69, 64
2, 37620, Note_on_c, 0, 48, 64
2, 37680, Note_on_c, 0, 48, 0
2, 37680, Note_on_c, 0, 69, 0
2, 37680, Note_on_c, 0, 71, 64
2, 37680, Note_on_c, 0, 47, 64
2, 37740, Note_on_c, 0, 47, 0
2, 37740, Note_on_c, 0, 50, 64
2, 37800, Note_on_c, 0, 50, 0
2, 37800, Note_on_c, 0, 71, 0
2, 37800, Note_on_c, 0, 64, 64
2, 37800, Note_on_c, 0, 48, 64
2, 37860, Note_on_c, 0, 64, 0
2, 37860, Note_on_c, 0, 76, 64
2, 37920, Note_on_c, 0, 76, 0
2, 37920, Note_on_c, 0, 48, 0
2, 37920, Note_on_c, 0, 52, 64
2, 37920, Note_on_c, 0, 74, 64
2, 37940, Note_on_c, 0, 52, 0
2, 37940, Note_on_c, 0, 50, 64
2, 37960, Note_on_c, 0, 50, 0
2, 37960, Note_on_c, 0, 48, 64
2, 37980, Note_on_c, 0, 48, 0
2, 37980, Note_on_c, 0, 74, 0
2, 37980, Note_on_c, 0, 50, 64
2, 37980, Note_on_c, 0, 72, 64
2, 38040, Note_on_c, 0, 72, 0
2, 38040, Note_on_c, 0, 50, 0
2, 38040, Note_on_c, 0, 52, 64
2, 38040, Note_on_c, 0, 71, 64
2, 38100, Note_on_c, 0, 71, 0
2, 38100, Note_on_c, 0, 74, 64
2, 38160, Note_on_c, 0, 74, 0
2, 38160, Note_on_c, 0, 52, 0
2, 38160, Note_on_c, 0, 72, 64
2, 38160, Note_on_c, 0, 45, 64
2, 38220, Note_on_c, 0, 45, 0
2, 38220, Note_on_c, 0, 57, 64
2, 38280, Note_on_c, 0, 57, 0
2, 38280, Note_on_c, 0, 72, 0
2, 38280, Note_on_c, 0, 76, 64
2, 38280, Note_on_c, 0, 55, 64
2, 38300, Note_on_c, 0, 76, 0
2, 38300, Note_on_c, 0, 74, 64
2, 38320, Note_on_c, 0, 74, 0
2, 38320, Note_on_c, 0, 72, 64
2, 38340, Note_on_c, 0, 72, 0
2, 38340, Note_on_c, 0, 55, 0
2, 38340, Note_on_c, 0, 74, 64
2, 38340, Note_on_c, 0, 53, 64
2, 38400, Note_on_c, 0, 53, 0
2, 38400, Note_on_c, 0, 74, 0
2, 38400, Note_on_c, 0, 76, 64
2, 38400, Note_on_c, 0, 52, 64
2, 38460, Note_on_c, 0, 52, 0
2, 38460, Note_on_c, 0, 55, 64
2, 38520, Note_on_c, 0, 55, 0
2, 38520, Note_on_c, 0, 76, 0
2, 38520, Note_on_c, 0, 69, 64
2, 38520, Note_on_c, 0, 53, 64
2, 38580, Note_on_c, 0, 69, 0
2, 38580, Note_on_c, 0, 81, 64
2, 38640, Note_on_c, 0, 81, 0
2, 38640, Note_on_c, 0, 53, 0
2, 38640, Note_on_c, 0, 79, 64
2, 38640, Note_on_c, 0, 55, 64
2, 38700, Note_on_c, 0, 79, 0
2, 38700, Note_on_c, 0, 77, 64
2, 38760, Note_on_c, 0, 77, 0
2, 38760, Note_on_c, 0, 55, 0
2, 38760, Note_on_c, 0, 57, 64
2, 38760, Note_on_c, 0, 76, 64
2, 38820, Note_on_c, 0, 76, 0
2, 38820, Note_on_c, 0, 79, 64
2, 38880, Note_on_c, 0, 79, 0
2, 38880, Note_on_c, 0, 57, 0
2, 38880, Note_on_c, 0, 77, 64
2, 38880, Note_on_c, 0, 50, 64
2, 38940, Note_on_c, 0, 50, 0
2, 38940, Note_on_c, 0, 62, 64
2, 39000, Note_on_c, 0, 62, 0
2, 39000, Note_on_c, 0, 77, 0
2, 39000, Note_on_c, 0, 79, 64
2, 39000, Note_on_c, 0, 60, 64
2, 39060, Note_on_c, 0, 60, 0
2, 39060, Note_on_c, 0, 59, 64
2, 39120, Note_on_c, 0, 59, 0
2, 39120, Note_on_c, 0, 79, 0
2, 39120, Note_on_c, 0, 81, 64
2, 39120, Note_on_c, 0, 57, 64
2, 39180, Note_on_c, 0, 57, 0
2, 39180, Note_on_c, 0, 60, 64
2, 39240, Note_on_c, 0, 60, 0
2, 39240, Note_on_c, 0, 59, 64
2, 39300, Note_on_c, 0, 81, 0
2, 39300, Note_on_c, 0, 74, 64
2, 39360, Note_on_c, 0, 74, 0
2, 39360, Note_on_c, 0, 59, 0
2, 39360, Note_on_c, 0, 72, 64
2, 39360, Note_on_c, 0, 60, 64
2, 39420, Note_on_c, 0, 72, 0
2, 39420, Note_on_c, 0, 71, 64
2, 39480, Note_on_c, 0, 71, 0
2, 39480, Note_on_c, 0, 60, 0
2, 39480, Note_on_c, 0, 62, 64
2, 39480, Note_on_c, 0, 69, 64
2, 39540, Note_on_c, 0, 69, 0
2, 39540, Note_on_c, 0, 72, 64
2, 39600, Note_on_c, 0, 72, 0
2, 39600, Note_on_c, 0, 62, 0
2, 39600, Note_on_c, 0, 71, 64
2, 39660, Note_on_c, 0, 55, 64
2, 39720, Note_on_c, 0, 55, 0
2, 39720, Note_on_c, 0, 71, 0
2, 39720, Note_on_c, 0, 72, 64
2, 39720, Note_on_c, 0, 53, 64
2, 39780, Note_on_c, 0, 53, 0
2, 39780, Note_on_c, 0, 52, 64
2, 39840, Note_on_c, 0, 52, 0
2, 39840, Note_on_c, 0, 72, 0
2, 39840, Note_on_c, 0, 74, 64
2, 39840, Note_on_c, 0, 50, 64
2, 39900, Note_on_c, 0, 50, 0
2, 39900, Note_on_c, 0, 53, 64
2, 39960, Note_on_c, 0, 53, 0
2, 39960, Note_on_c, 0, 43, 64
2, 40020, Note_on_c, 0, 43, 0
2, 40020, Note_on_c, 0, 74, 0
2, 40020, Note_on_c, 0, 67, 64
2, 40020, Note_on_c, 0, 53, 64
2, 40080, Note_on_c, 0, 53, 0
2, 40080, Note_on_c, 0, 67, 0
2, 40080, Note_on_c, 0, 72, 64
2, 40080, Note_on_c, 0, 52, 64
2, 40140, Note_on_c, 0, 52, 0
2, 40140, Note_on_c, 0, 72, 0
2, 40140, Note_on_c, 0, 74, 64
2, 40140, Note_on_c, 0, 50, 64
2, 40200, Note_on_c, 0, 50, 0
2, 40200, Note_on_c, 0, 74, 0
2, 40200, Note_on_c, 0, 76, 64
2, 40200, Note_on_c, 0, 48, 64
2, 40260, Note_on_c, 0, 48, 0
2, 40260, Note_on_c, 0, 52, 64
2, 40320, Note_on_c, 0, 52, 0
2, 40320, Note_on_c, 0, 43, 64
2, 40380, Note_on_c, 0, 43, 0
2, 40380, Note_on_c, 0, 76, 0
2, 40380, Note_on_c, 0, 72, 64
2, 40380, Note_on_c, 0, 52, 64
2, 40440, Note_on_c, 0, 52, 0
2, 40440, Note_on_c, 0, 72, 0
2, 40440, Note_on_c, 0, 74, 64
2, 40440, Note_on_c, 0, 50, 64
2, 40500, Note_on_c, 0, 50, 0
2, 40500, Note_on_c, 0, 74, 0
2, 40500, Note_on_c, 0, 76, 64
2, 40500, Note_on_c, 0, 48, 64
2, 40560, Note_on_c, 0, 48, 0
2, 40560, Note_on_c, 0, 76, 0
2, 40560, Note_on_c, 0, 77, 64
2, 40560, Note_on_c, 0, 47, 64
2, 40620, Note_on_c, 0, 47, 0
2, 40620, Note_on_c, 0, 50, 64
2, 40680, Note_on_c, 0, 50, 0
2, 40680, Note_on_c, 0, 43, 64
2, 40740, Note_on_c, 0, 77, 0
2, 40740, Note_on_c, 0, 79, 64
2, 40800, Note_on_c, 0, 79, 0
2, 40800, Note_on_c, 0, 43, 0
2, 40800, Note_on_c, 0, 77, 64
2, 40800, Note_on_c, 0, 45, 64
2, 40860, Note_on_c, 0, 77, 0
2, 40860, Note_on_c, 0, 76, 64
2, 40920, Note_on_c, 0, 76, 0
2, 40920, Note_on_c, 0, 45, 0
2, 40920, Note_on_c, 0, 47, 64
2, 40920, Note_on_c, 0, 74, 64
2, 40980, Note_on_c, 0, 74, 0
2, 40980, Note_on_c, 0, 77, 64
2, 41040, Note_on_c, 0, 77, 0
2, 41040, Note_on_c, 0, 47, 0
2, 41040, Note_on_c, 0, 76, 64
2, 41040, Note_on_c, 0, 48, 64
2, 41100, Note_on_c, 0, 48, 0
2, 41100, Note_on_c, 0, 76, 0
2, 41100, Note_on_c, 0, 64, 64
2, 41100, Note_on_c, 0, 62, 64
2, 41160, Note_on_c, 0, 62, 0
2, 41160, Note_on_c, 0, 64, 0
2, 41160, Note_on_c, 0, 66, 64
2, 41160, Note_on_c, 0, 60, 64
2, 41220, Note_on_c, 0, 60, 0
2, 41220, Note_on_c, 0, 66, 0
2, 41220, Note_on_c, 0, 68, 64
2, 41220, Note_on_c, 0, 59, 64
2, 41280, Note_on_c, 0, 59, 0
2, 41280, Note_on_c, 0, 68, 0
2, 41280, Note_on_c, 0, 69, 64
2, 41280, Note_on_c, 0, 57, 64
2, 41340, Note_on_c, 0, 57, 0
2, 41340, Note_on_c, 0, 69, 0
2, 41340, Note_on_c, 0, 60, 64
2, 41340, Note_on_c, 0, 66, 64
2, 41400, Note_on_c, 0, 66, 0
2, 41400, Note_on_c, 0, 60, 0
2, 41400, Note_on_c, 0, 74, 64
2, 41400, Note_on_c, 0, 47, 64
2, 41460, Note_on_c, 0, 47, 0
2, 41460, Note_on_c, 0, 74, 0
2, 41460, Note_on_c, 0, 66, 64
2, 41460, Note_on_c, 0, 60, 64
2, 41520, Note_on_c, 0, 60, 0
2, 41520, Note_on_c, 0, 66, 0
2, 41520, Note_on_c, 0, 68, 64
2, 41520, Note_on_c, 0, 59, 64
2, 41580, Note_on_c, 0, 59, 0
2, 41580, Note_on_c, 0, 68, 0
2, 41580, Note_on_c, 0, 69, 64
2, 41580, Note_on_c, 0, 57, 64
2, 41640, Note_on_c, 0, 57, 0
2, 41640, Note_on_c, 0, 69, 0
2, 41640, Note_on_c, 0, 71, 64
2, 41640, Note_on_c, 0, 56, 64
2, 41700, Note_on_c, 0, 56, 0
2, 41700, Note_on_c, 0, 71, 0
2, 41700, Note_on_c, 0, 59, 64
2, 41700, Note_on_c, 0, 68, 64
2, 41760, Note_on_c, 0, 68, 0
2, 41760, Note_on_c, 0, 59, 0
2, 41760, Note_on_c, 0, 72, 64
2, 41760, Note_on_c, 0, 45, 64
2, 41820, Note_on_c, 0, 45, 0
2, 41820, Note_on_c, 0, 72, 0
2, 41820, Note_on_c, 0, 68, 64
2, 41820, Note_on_c, 0, 59, 64
2, 41880, Note_on_c, 0, 59, 0
2, 41880, Note_on_c, 0, 68, 0
2, 41880, Note_on_c, 0, 69, 64
2, 41880, Note_on_c, 0, 57, 64
2, 41940, Note_on_c, 0, 57, 0
2, 41940, Note_on_c, 0, 69, 0
2, 41940, Note_on_c, 0, 71, 64
2, 41940, Note_on_c, 0, 56, 64
2, 42000, Note_on_c, 0, 56, 0
2, 42000, Note_on_c, 0, 71, 0
2, 42000, Note_on_c, 0, 72, 64
2, 42000, Note_on_c, 0, 54, 64
2, 42060, Note_on_c, 0, 54, 0
2, 42060, Note_on_c, 0, 72, 0
2, 42060, Note_on_c, 0, 57, 64
2, 42060, Note_on_c, 0, 69, 64
2, 42120, Note_on_c, 0, 69, 0
2, 42120, Note_on_c, 0, 57, 0
2, 42120, Note_on_c, 0, 72, 64
2, 42120, Note_on_c, 0, 51, 64
2, 42180, Note_on_c, 0, 72, 0
2, 42180, Note_on_c, 0, 71, 64
2, 42240, Note_on_c, 0, 71, 0
2, 42240, Note_on_c, 0, 51, 0
2, 42240, Note_on_c, 0, 69, 64
2, 42240, Note_on_c, 0, 52, 64
2, 42300, Note_on_c, 0, 69, 0
2, 42300, Note_on_c, 0, 68, 64
2, 42360, Note_on_c, 0, 68, 0
2, 42360, Note_on_c, 0, 52, 0
2, 42360, Note_on_c, 0, 53, 64
2, 42360, Note_on_c, 0, 69, 64
2, 42480, Note_on_c, 0, 53, 0
2, 42480, Note_on_c, 0, 52, 64
2, 42540, Note_on_c, 0, 52, 0
2, 42540, Note_on_c, 0, 69, 0
2, 42540, Note_on_c, 0, 71, 64
2, 42540, Note_on_c, 0, 50, 64
2, 42600, Note_on_c, 0, 50, 0
2, 42600, Note_on_c, 0, 71, 0
2, 42600, Note_on_c, 0, 71, 64
2, 42600, Note_on_c, 0, 52, 64
2, 42720, Note_on_c, 0, 52, 0
2, 42720, Note_on_c, 0, 40, 64
2, 42780, Note_on_c, 0, 71, 0
2, 42780, Note_on_c, 0, 69, 64
2, 42840, Note_on_c, 0, 69, 0
2, 42840, Note_on_c, 0, 40, 0
2, 42840, Note_on_c, 0, 69, 64
2, 42840, Note_on_c, 0, 45, 64
2, 42900, Note_on_c, 0, 45, 0
2, 42900, Note_on_c, 0, 57, 64
2, 42960, Note_on_c, 0, 57, 0
2, 42960, Note_on_c, 0, 55, 64
2, 43020, Note_on_c, 0, 55, 0
2, 43020, Note_on_c, 0, 54, 64
2, 43080, Note_on_c, 0, 54, 0
2, 43080, Note_on_c, 0, 52, 64
2, 43140, Note_on_c, 0, 52, 0
2, 43140, Note_on_c, 0, 55, 64
2, 43200, Note_on_c, 0, 55, 0
2, 43200, Note_on_c, 0, 69, 0
2, 43200, Note_on_c, 0, 54, 64
2, 43260, Note_on_c, 0, 74, 64
2, 43320, Note_on_c, 0, 74, 0
2, 43320, Note_on_c, 0, 54, 0
2, 43320, Note_on_c, 0, 72, 64
2, 43320, Note_on_c, 0, 50, 64
2, 43380, Note_on_c, 0, 72, 0
2, 43380, Note_on_c, 0, 71, 64
2, 43440, Note_on_c, 0, 71, 0
2, 43440, Note_on_c, 0, 50, 0
2, 43440, Note_on_c, 0, 54, 64
2, 43440, Note_on_c, 0, 69, 64
2, 43500, Note_on_c, 0, 69, 0
2, 43500, Note_on_c, 0, 72, 64
2, 43560, Note_on_c, 0, 72, 0
2, 43560, Note_on_c, 0, 54, 0
2, 43560, Note_on_c, 0, 71, 64
2, 43560, Note_on_c, 0, 55, 64
2, 43620, Note_on_c, 0, 71, 0
2, 43620, Note_on_c, 0, 74, 64
2, 43680, Note_on_c, 0, 74, 0
2, 43680, Note_on_c, 0, 55, 0
2, 43680, Note_on_c, 0, 76, 64
2, 43680, Note_on_c, 0, 54, 64
2, 43740, Note_on_c, 0, 76, 0
2, 43740, Note_on_c, 0, 78, 64
2, 43800, Note_on_c, 0, 78, 0
2, 43800, Note_on_c, 0, 54, 0
2, 43800, Note_on_c, 0, 52, 64
2, 43800, Note_on_c, 0, 79, 64
2, 43860, Note_on_c, 0, 79, 0
2, 43860, Note_on_c, 0, 73, 64
2, 43920, Note_on_c, 0, 73, 0
2, 43920, Note_on_c, 0, 52, 0
2, 43920, Note_on_c, 0, 78, 64
2, 43920, Note_on_c, 0, 50, 64
2, 43980, Note_on_c, 0, 50, 0
2, 43980, Note_on_c, 0, 78, 0
2, 43980, Note_on_c, 0, 71, 64
2, 43980, Note_on_c, 0, 55, 64
2, 44040, Note_on_c, 0, 55, 0
2, 44040, Note_on_c, 0, 71, 0
2, 44040, Note_on_c, 0, 72, 64
2, 44040, Note_on_c, 0, 57, 64
2, 44100, Note_on_c, 0, 57, 0
2, 44100, Note_on_c, 0, 72, 0
2, 44100, Note_on_c, 0, 74, 64
2, 44100, Note_on_c, 0, 59, 64
2, 44160, Note_on_c, 0, 59, 0
2, 44160, Note_on_c, 0, 74, 0
2, 44160, Note_on_c, 0, 60, 64
2, 44160, Note_on_c, 0, 76, 64
2, 44220, Note_on_c, 0, 76, 0
2, 44220, Note_on_c, 0, 69, 64
2, 44280, Note_on_c, 0, 69, 0
2, 44280, Note_on_c, 0, 74, 64
2, 44340, Note_on_c, 0, 74, 0
2, 44340, Note_on_c, 0, 60, 0
2, 44340, Note_on_c, 0, 67, 64
2, 44340, Note_on_c, 0, 59, 64
2, 44400, Note_on_c, 0, 59, 0
2, 44400, Note_on_c, 0, 67, 0
2, 44400, Note_on_c, 0, 69, 64
2, 44400, Note_on_c, 0, 57, 64
2, 44460, Note_on_c, 0, 57, 0
2, 44460, Note_on_c, 0, 69, 0
2, 44460, Note_on_c, 0, 71, 64
2, 44460, Note_on_c, 0, 55, 64
2, 44520, Note_on_c, 0, 55, 0
2, 44520, Note_on_c, 0, 71, 0
2, 44520, Note_on_c, 0, 57, 64
2, 44520, Note_on_c, 0, 72, 64
2, 44580, Note_on_c, 0, 72, 0
2, 44580, Note_on_c, 0, 66, 64
2, 44640, Note_on_c, 0, 66, 0
2, 44640, Note_on_c, 0, 71, 64
2, 44700, Note_on_c, 0, 57, 0
2, 44700, Note_on_c, 0, 59, 64
2, 44760, Note_on_c, 0, 59, 0
2, 44760, Note_on_c, 0, 71, 0
2, 44760, Note_on_c, 0, 73, 64
2, 44760, Note_on_c, 0, 57, 64
2, 44780, Note_on_c, 0, 73, 0
2, 44780, Note_on_c, 0, 75, 64
2, 44800, Note_on_c, 0, 75, 0
2, 44800, Note_on_c, 0, 76, 64
2, 44820, Note_on_c, 0, 76, 0
2, 44820, Note_on_c, 0, 57, 0
2, 44820, Note_on_c, 0, 75, 64
2, 44820, Note_on_c, 0, 55, 64
2, 44840, Note_on_c, 0, 75, 0
2, 44840, Note_on_c, 0, 76, 64
2, 44860, Note_on_c, 0, 76, 0
2, 44860, Note_on_c, 0, 75, 64
2, 44880, Note_on_c, 0, 75, 0
2, 44880, Note_on_c, 0, 55, 0
2, 44880, Note_on_c, 0, 76, 64
2, 44880, Note_on_c, 0, 54, 64
2, 44900, Note_on_c, 0, 76, 0
2, 44900, Note_on_c, 0, 75, 64
2, 44940, Note_on_c, 0, 75, 0
2, 44940, Note_on_c, 0, 54, 0
2, 44940, Note_on_c, 0, 57, 64
2, 44940, Note_on_c, 0, 73, 64
2, 44970, Note_on_c, 0, 73, 0
2, 44970, Note_on_c, 0, 75, 64
2, 45000, Note_on_c, 0, 75, 0
2, 45000, Note_on_c, 0, 57, 0
2, 45000, Note_on_c, 0, 76, 64
2, 45000, Note_on_c, 0, 55, 64
2, 45060, Note_on_c, 0, 55, 0
2, 45060, Note_on_c, 0, 59, 64
2, 45120, Note_on_c, 0, 59, 0
2, 45120, Note_on_c, 0, 76, 0
2, 45120, Note_on_c, 0, 79, 64
2, 45120, Note_on_c, 0, 61, 64
2, 45136, Note_on_c, 0, 78, 64
2, 45140, Note_on_c, 0, 79, 0
2, 45156, Note_on_c, 0, 78, 0
2, 45160, Note_on_c, 0, 76, 64
2, 45180, Note_on_c, 0, 76, 0
2, 45180, Note_on_c, 0, 61, 0
2, 45180, Note_on_c, 0, 78, 64
2, 45180, Note_on_c, 0, 63, 64
2, 45240, Note_on_c, 0, 63, 0
2, 45240, Note_on_c, 0, 78, 0
2, 45240, Note_on_c, 0, 79, 64
2, 45240, Note_on_c, 0, 64, 64
2, 45300, Note_on_c, 0, 64, 0
2, 45300, Note_on_c, 0, 57, 64
2, 45360, Note_on_c, 0, 57, 0
2, 45360, Note_on_c, 0, 62, 64
2, 45420, Note_on_c, 0, 62, 0
2, 45420, Note_on_c, 0, 79, 0
2, 45420, Note_on_c, 0, 78, 64
2, 45420, Note_on_c, 0, 55, 64
2, 45480, Note_on_c, 0, 55, 0
2, 45480, Note_on_c, 0, 78, 0
2, 45480, Note_on_c, 0, 76, 64
2, 45480, Note_on_c, 0, 57, 64
2, 45540, Note_on_c, 0, 57, 0
2, 45540, Note_on_c, 0, 76, 0
2, 45540, Note_on_c, 0, 75, 64
2, 45540, Note_on_c, 0, 59, 64
2, 45600, Note_on_c, 0, 59, 0
2, 45600, Note_on_c, 0, 75, 0
2, 45600, Note_on_c, 0, 76, 64
2, 45600, Note_on_c, 0, 60, 64
2, 45660, Note_on_c, 0, 60, 0
2, 45660, Note_on_c, 0, 54, 64
2, 45720, Note_on_c, 0, 54, 0
2, 45720, Note_on_c, 0, 59, 64
2, 45780, Note_on_c, 0, 59, 0
2, 45780, Note_on_c, 0, 76, 0
2, 45780, Note_on_c, 0, 74, 64
2, 45780, Note_on_c, 0, 52, 64
2, 45840, Note_on_c, 0, 52, 0
2, 45840, Note_on_c, 0, 74, 0
2, 45840, Note_on_c, 0, 72, 64
2, 45840, Note_on_c, 0, 54, 64
2, 45900, Note_on_c, 0, 54, 0
2, 45900, Note_on_c, 0, 72, 0
2, 45900, Note_on_c, 0, 71, 64
2, 45900, Note_on_c, 0, 55, 64
2, 45960, Note_on_c, 0, 55, 0
2, 45960, Note_on_c, 0, 71, 0
2, 45960, Note_on_c, 0, 72, 64
2, 45960, Note_on_c, 0, 57, 64
2, 46020, Note_on_c, 0, 57, 0
2, 46020, Note_on_c, 0, 72, 0
2, 46020, Note_on_c, 0, 81, 64
2, 46020, Note_on_c, 0, 50, 64
2, 46080, Note_on_c, 0, 50, 0
2, 46080, Note_on_c, 0, 81, 0
2, 46080, Note_on_c, 0, 71, 64
2, 46080, Note_on_c, 0, 55, 64
2, 46140, Note_on_c, 0, 55, 0
2, 46140, Note_on_c, 0, 71, 0
2, 46140, Note_on_c, 0, 62, 64
2, 46140, Note_on_c, 0, 54, 64
2, 46200, Note_on_c, 0, 54, 0
2, 46200, Note_on_c, 0, 62, 0
2, 46200, Note_on_c, 0, 64, 64
2, 46200, Note_on_c, 0, 55, 64
2, 46260, Note_on_c, 0, 55, 0
2, 46260, Note_on_c, 0, 64, 0
2, 46260, Note_on_c, 0, 66, 64
2, 46260, Note_on_c, 0, 57, 64
2, 46320, Note_on_c, 0, 57, 0
2, 46320, Note_on_c, 0, 66, 0
2, 46320, Note_on_c, 0, 67, 64
2, 46320, Note_on_c, 0, 59, 64
2, 46380, Note_on_c, 0, 59, 0
2, 46380, Note_on_c, 0, 61, 64
2, 46440, Note_on_c, 0, 61, 0
2, 46440, Note_on_c, 0, 62, 64
2, 46500, Note_on_c, 0, 62, 0
2, 46500, Note_on_c, 0, 67, 0
2, 46500, Note_on_c, 0, 66, 64
2, 46500, Note_on_c, 0, 57, 64
2, 46560, Note_on_c, 0, 57, 0
2, 46560, Note_on_c, 0, 66, 0
2, 46560, Note_on_c, 0, 68, 64
2, 46560, Note_on_c, 0, 59, 64
2, 46620, Note_on_c, 0, 59, 0
2, 46620, Note_on_c, 0, 68, 0
2, 46620, Note_on_c, 0, 69, 64
2, 46620, Note_on_c, 0, 60, 64
2, 46680, Note_on_c, 0, 60, 0
2, 46680, Note_on_c, 0, 69, 0
2, 46680, Note_on_c, 0, 62, 64
2, 46680, Note_on_c, 0, 71, 64
2, 46740, Note_on_c, 0, 71, 0
2, 46740, Note_on_c, 0, 68, 64
2, 46800, Note_on_c, 0, 68, 0
2, 46800, Note_on_c, 0, 69, 64
2, 46860, Note_on_c, 0, 69, 0
2, 46860, Note_on_c, 0, 62, 0
2, 46860, Note_on_c, 0, 64, 64
2, 46860, Note_on_c, 0, 61, 64
2, 46920, Note_on_c, 0, 61, 0
2, 46920, Note_on_c, 0, 64, 0
2, 46920, Note_on_c, 0, 66, 64
2, 46920, Note_on_c, 0, 63, 64
2, 46980, Note_on_c, 0, 63, 0
2, 46980, Note_on_c, 0, 66, 0
2, 46980, Note_on_c, 0, 67, 64
2, 46980, Note_on_c, 0, 64, 64
2, 47040, Note_on_c, 0, 64, 0
2, 47040, Note_on_c, 0, 67, 0
2, 47040, Note_on_c, 0, 69, 64
2, 47040, Note_on_c, 0, 66, 64
2, 47100, Note_on_c, 0, 66, 0
2, 47100, Note_on_c, 0, 63, 64
2, 47160, Note_on_c, 0, 63, 0
2, 47160, Note_on_c, 0, 64, 64
2, 47220, Note_on_c, 0, 64, 0
2, 47220, Note_on_c, 0, 69, 0
2, 47220, Note_on_c, 0, 67, 64
2, 47220, Note_on_c, 0, 52, 64
2, 47280, Note_on_c, 0, 52, 0
2, 47280, Note_on_c, 0, 67, 0
2, 47280, Note_on_c, 0, 69, 64
2, 47280, Note_on_c, 0, 54, 64
2, 47340, Note_on_c, 0, 54, 0
2, 47340, Note_on_c, 0, 69, 0
2, 47340, Note_on_c, 0, 71, 64
2, 47340, Note_on_c, 0, 55, 64
2, 47400, Note_on_c, 0, 55, 0
2, 47400, Note_on_c, 0, 71, 0
2, 47400, Note_on_c, 0, 72, 64
2, 47400, Note_on_c, 0, 57, 64
2, 47460, Note_on_c, 0, 57, 0
2, 47460, Note_on_c, 0, 72, 0
2, 47460, Note_on_c, 0, 69, 64
2, 47460, Note_on_c, 0, 54, 64
2, 47520, Note_on_c, 0, 54, 0
2, 47520, Note_on_c, 0, 69, 0
2, 47520, Note_on_c, 0, 71, 64
2, 47520, Note_on_c, 0, 55, 64
2, 47580, Note_on_c, 0, 71, 0
2, 47580, Note_on_c, 0, 75, 64
2, 47640, Note_on_c, 0, 75, 0
2, 47640, Note_on_c, 0, 55, 0
2, 47640, Note_on_c, 0, 76, 64
2, 47640, Note_on_c, 0, 54, 64
2, 47700, Note_on_c, 0, 76, 0
2, 47700, Note_on_c, 0, 78, 64
2, 47760, Note_on_c, 0, 78, 0
2, 47760, Note_on_c, 0, 54, 0
2, 47760, Note_on_c, 0, 52, 64
2, 47760, Note_on_c, 0, 79, 64
2, 47820, Note_on_c, 0, 79, 0
2, 47820, Note_on_c, 0, 76, 64
2, 47880, Note_on_c, 0, 76, 0
2, 47880, Note_on_c, 0, 52, 0
2, 47880, Note_on_c, 0, 61, 72
2, 47880, Note_on_c, 0, 78, 64
2, 47900, Note_on_c, 0, 61, 0
2, 47900, Note_on_c, 0, 59, 48
2, 47920, Note_on_c, 0, 61, 48
2, 47922, Note_on_c, 0, 59, 0
2, 47940, Note_on_c, 0, 78, 0
2, 47940, Note_on_c, 0, 59, 48
2, 47940, Note_on_c, 0, 76, 64
2, 47942, Note_on_c, 0, 61, 0
2, 47960, Note_on_c, 0, 61, 49
2, 47962, Note_on_c, 0, 59, 0
2, 47980, Note_on_c, 0, 59, 49
2, 47982, Note_on_c, 0, 61, 0
2, 48000, Note_on_c, 0, 76, 0
2, 48000, Note_on_c, 0, 61, 49
2, 48000, Note_on_c, 0, 75, 64
2, 48002, Note_on_c, 0, 59, 0
2, 48020, Note_on_c, 0, 59, 50
2, 48022, Note_on_c, 0, 61, 0
2, 48040, Note_on_c, 0, 61, 50
2, 48042, Note_on_c, 0, 59, 0
2, 48060, Note_on_c, 0, 75, 0
2, 48060, Note_on_c, 0, 59, 50
2, 48060, Note_on_c, 0, 73, 64
2, 48062, Note_on_c, 0, 61, 0
2, 48080, Note_on_c, 0, 61, 51
2, 48082, Note_on_c, 0, 59, 0
2, 48100, Note_on_c, 0, 59, 51
2, 48102, Note_on_c, 0, 61, 0
2, 48120, Note_on_c, 0, 73, 0
2, 48120, Note_on_c, 0, 61, 51
2, 48120, Note_on_c, 0, 71, 64
2, 48122, Note_on_c, 0, 59, 0
2, 48140, Note_on_c, 0, 59, 51
2, 48142, Note_on_c, 0, 61, 0
2, 48160, Note_on_c, 0, 61, 52
2, 48162, Note_on_c, 0, 59, 0
2, 48180, Note_on_c, 0, 71, 0
2, 48180, Note_on_c, 0, 59, 52
2, 48180, Note_on_c, 0, 69, 64
2, 48182, Note_on_c, 0, 61, 0
2, 48200, Note_on_c, 0, 61, 52
2, 48202, Note_on_c, 0, 59, 0
2, 48220, Note_on_c, 0, 59, 53
2, 48222, Note_on_c, 0, 61, 0
2, 48240, Note_on_c, 0, 69, 0
2, 48240, Note_on_c, 0, 61, 53
2, 48240, Note_on_c, 0, 67, 64
2, 48242, Note_on_c, 0, 59, 0
2, 48260, Note_on_c, 0, 59, 53
2, 48262, Note_on_c, 0, 61, 0
2, 48280, Note_on_c, 0, 61, 54
2, 48282, Note_on_c, 0, 59, 0
2, 48300, Note_on_c, 0, 67, 0
2, 48300, Note_on_c, 0, 59, 54
2, 48300, Note_on_c, 0, 71, 64
2, 48302, Note_on_c, 0, 61, 0
2, 48320, Note_on_c, 0, 61, 54
2, 48322, Note_on_c, 0, 59, 0
2, 48340, Note_on_c, 0, 59, 55
2, 48342, Note_on_c, 0, 61, 0
2, 48360, Note_on_c, 0, 71, 0
2, 48360, Note_on_c, 0, 61, 55
2, 48360, Note_on_c, 0, 73, 64
2, 48362, Note_on_c, 0, 59, 0
2, 48380, Note_on_c, 0, 59, 55
2, 48382, Note_on_c, 0, 61, 0
2, 48400, Note_on_c, 0, 61, 56
2, 48402, Note_on_c, 0, 59, 0
2, 48420, Note_on_c, 0, 73, 0
2, 48420, Note_on_c, 0, 59, 56
2, 48420, Note_on_c, 0, 75, 64
2, 48422, Note_on_c, 0, 61, 0
2, 48440, Note_on_c, 0, 61, 56
2, 48442, Note_on_c, 0, 59, 0
2, 48460, Note_on_c, 0, 59, 56
2, 48462, Note_on_c, 0, 61, 0
2, 48480, Note_on_c, 0, 75, 0
2, 48480, Note_on_c, 0, 61, 57
2, 48480, Note_on_c, 0, 76, 64
2, 48482, Note_on_c, 0, 59, 0
2, 48500, Note_on_c, 0, 59, 57
2, 48502, Note_on_c, 0, 61, 0
2, 48520, Note_on_c, 0, 61, 57
2, 48522, Note_on_c, 0, 59, 0
2, 48540, Note_on_c, 0, 76, 0
2, 48540, Note_on_c, 0, 59, 58
2, 48540, Note_on_c, 0, 73, 64
2, 48542, Note_on_c, 0, 61, 0
2, 48560, Note_on_c, 0, 61, 58
2, 48562, Note_on_c, 0, 59, 0
2, 48580, Note_on_c, 0, 59, 58
2, 48582, Note_on_c, 0, 61, 0
2, 48600, Note_on_c, 0, 73, 0
2, 48600, Note_on_c, 0, 61, 59
2, 48600, Note_on_c, 0, 75, 64
2, 48602, Note_on_c, 0, 59, 0
2, 48620, Note_on_c, 0, 59, 59
2, 48622, Note_on_c, 0, 61, 0
2, 48640, Note_on_c, 0, 61, 59
2, 48642, Note_on_c, 0, 59, 0
2, 48660, Note_on_c, 0, 75, 0
2, 48660, Note_on_c, 0, 59, 60
2, 48660, Note_on_c, 0, 73, 64
2, 48662, Note_on_c, 0, 61, 0
2, 48680, Note_on_c, 0, 61, 60
2, 48682, Note_on_c, 0, 59, 0
2, 48700, Note_on_c, 0, 59, 60
2, 48702, Note_on_c, 0, 61, 0
2, 48720, Note_on_c, 0, 73, 0
2, 48720, Note_on_c, 0, 61, 61
2, 48720, Note_on_c, 0, 71, 64
2, 48722, Note_on_c, 0, 59, 0
2, 48740, Note_on_c, 0, 59, 61
2, 48742, Note_on_c, 0, 61, 0
2, 48760, Note_on_c, 0, 61, 61
2, 48762, Note_on_c, 0, 59, 0
2, 48780, Note_on_c, 0, 71, 0
2, 48780, Note_on_c, 0, 59, 61
2, 48780, Note_on_c, 0, 69, 64
2, 48782, Note_on_c, 0, 61, 0
2, 48800, Note_on_c, 0, 61, 62
2, 48802, Note_on_c, 0, 59, 0
2, 48820, Note_on_c, 0, 59, 62
2, 48822, Note_on_c, 0, 61, 0
2, 48840, Note_on_c, 0, 69, 0
2, 48840, Note_on_c, 0, 61, 62
2, 48840, Note_on_c, 0, 67, 64
2, 48842, Note_on_c, 0, 59, 0
2, 48860, Note_on_c, 0, 59, 63
2, 48862, Note_on_c, 0, 61, 0
2, 48880, Note_on_c, 0, 61, 63
2, 48882, Note_on_c, 0, 59, 0
2, 48900, Note_on_c, 0, 67, 0
2, 48900, Note_on_c, 0, 59, 63
2, 48900, Note_on_c, 0, 66, 64
2, 48902, Note_on_c, 0, 61, 0
2, 48950, Note_on_c, 0, 66, 0
2, 48960, Note_on_c, 0, 66, 72
2, 48966, Note_on_c, 0, 59, 0
2, 48980, Note_on_c, 0, 66, 0
2, 48980, Note_on_c, 0, 64, 48
2, 49000, Note_on_c, 0, 66, 48
2, 49002, Note_on_c, 0, 64, 0
2, 49020, Note_on_c, 0, 64, 48
2, 49020, Note_on_c, 0, 56, 64
2, 49022, Note_on_c, 0, 66, 0
2, 49040, Note_on_c, 0, 66, 48
2, 49042, Note_on_c, 0, 64, 0
2, 49060, Note_on_c, 0, 64, 49
2, 49062, Note_on_c, 0, 66, 0
2, 49080, Note_on_c, 0, 56, 0
2, 49080, Note_on_c, 0, 66, 49
2, 49080, Note_on_c, 0, 57, 64
2, 49082, Note_on_c, 0, 64, 0
2, 49100, Note_on_c, 0, 64, 49
2, 49102, Note_on_c, 0, 66, 0
2, 49120, Note_on_c, 0, 66, 50
2, 49122, Note_on_c, 0, 64, 0
2, 49140, Note_on_c, 0, 57, 0
2, 49140, Note_on_c, 0, 64, 50
2, 49140, Note_on_c, 0, 59, 64
2, 49142, Note_on_c, 0, 66, 0
2, 49160, Note_on_c, 0, 66, 50
2, 49162, Note_on_c, 0, 64, 0
2, 49180, Note_on_c, 0, 64, 51
2, 49182, Note_on_c, 0, 66, 0
2, 49200, Note_on_c, 0, 59, 0
2, 49200, Note_on_c, 0, 66, 51
2, 49200, Note_on_c, 0, 60, 64
2, 49202, Note_on_c, 0, 64, 0
2, 49220, Note_on_c, 0, 64, 51
2, 49222, Note_on_c, 0, 66, 0
2, 49240, Note_on_c, 0, 66, 51
2, 49242, Note_on_c, 0, 64, 0
2, 49260, Note_on_c, 0, 60, 0
2, 49260, Note_on_c, 0, 64, 52
2, 49260, Note_on_c, 0, 57, 64
2, 49262, Note_on_c, 0, 66, 0
2, 49280, Note_on_c, 0, 66, 52
2, 49282, Note_on_c, 0, 64, 0
2, 49300, Note_on_c, 0, 64, 52
2, 49302, Note_on_c, 0, 66, 0
2, 49320, Note_on_c, 0, 57, 0
2, 49320, Note_on_c, 0, 66, 53
2, 49320, Note_on_c, 0, 59, 64
2, 49322, Note_on_c, 0, 64, 0
2, 49340, Note_on_c, 0, 64, 53
2, 49342, Note_on_c, 0, 66, 0
2, 49360, Note_on_c, 0, 66, 53
2, 49362, Note_on_c, 0, 64, 0
2, 49380, Note_on_c, 0, 59, 0
2, 49380, Note_on_c, 0, 64, 53
2, 49380, Note_on_c, 0, 57, 64
2, 49382, Note_on_c, 0, 66, 0
2, 49400, Note_on_c, 0, 66, 54
2, 49402, Note_on_c, 0, 64, 0
2, 49420, Note_on_c, 0, 64, 54
2, 49422, Note_on_c, 0, 66, 0
2, 49440, Note_on_c, 0, 57, 0
2, 49440, Note_on_c, 0, 66, 54
2, 49440, Note_on_c, 0, 56, 64
2, 49442, Note_on_c, 0, 64, 0
2, 49460, Note_on_c, 0, 64, 55
2, 49462, Note_on_c, 0, 66, 0
2, 49480, Note_on_c, 0, 66, 55
2, 49482, Note_on_c, 0, 64, 0
2, 49500, Note_on_c, 0, 56, 0
2, 49500, Note_on_c, 0, 64, 55
2, 49500, Note_on_c, 0, 54, 64
2, 49502, Note_on_c, 0, 66, 0
2, 49520, Note_on_c, 0, 66, 55
2, 49522, Note_on_c, 0, 64, 0
2, 49540, Note_on_c, 0, 64, 56
2, 49542, Note_on_c, 0, 66, 0
2, 49560, Note_on_c, 0, 54, 0
2, 49560, Note_on_c, 0, 66, 56
2, 49560, Note_on_c, 0, 52, 64
2, 49562, Note_on_c, 0, 64, 0
2, 49580, Note_on_c, 0, 64, 56
2, 49582, Note_on_c, 0, 66, 0
2, 49600, Note_on_c, 0, 66, 57
2, 49602, Note_on_c, 0, 64, 0
2, 49620, Note_on_c, 0, 52, 0
2, 49620, Note_on_c, 0, 64, 57
2, 49620, Note_on_c, 0, 50, 64
2, 49622, Note_on_c, 0, 66, 0
2, 49640, Note_on_c, 0, 66, 57
2, 49642, Note_on_c, 0, 64, 0
2, 49660, Note_on_c, 0, 64, 57
2, 49662, Note_on_c, 0, 66, 0
2, 49680, Note_on_c, 0, 50, 0
2, 49680, Note_on_c, 0, 66, 58
2, 49680, Note_on_c, 0, 48, 64
2, 49682, Note_on_c, 0, 64, 0
2, 49700, Note_on_c, 0, 64, 58
2, 49702, Note_on_c, 0, 66, 0
2, 49720, Note_on_c, 0, 66, 58
2, 49722, Note_on_c, 0, 64, 0
2, 49740, Note_on_c, 0, 48, 0
2, 49740, Note_on_c, 0, 64, 59
2, 49740, Note_on_c, 0, 52, 64
2, 49742, Note_on_c, 0, 66, 0
2, 49760, Note_on_c, 0, 66, 59
2, 49762, Note_on_c, 0, 64, 0
2, 49780, Note_on_c, 0, 64, 59
2, 49782, Note_on_c, 0, 66, 0
2, 49800, Note_on_c, 0, 52, 0
2, 49800, Note_on_c, 0, 66, 60
2, 49800, Note_on_c, 0, 54, 64
2, 49802, Note_on_c, 0, 64, 0
2, 49820, Note_on_c, 0, 64, 60
2, 49822, Note_on_c, 0, 66, 0
2, 49840, Note_on_c, 0, 66, 60
2, 49842, Note_on_c, 0, 64, 0
2, 49860, Note_on_c, 0, 54, 0
2, 49860, Note_on_c, 0, 64, 60
2, 49860, Note_on_c, 0, 56, 64
2, 49862, Note_on_c, 0, 66, 0
2, 49880, Note_on_c, 0, 66, 61
2, 49882, Note_on_c, 0, 64, 0
2, 49900, Note_on_c, 0, 64, 61
2, 49902, Note_on_c, 0, 66, 0
2, 49920, Note_on_c, 0, 56, 0
2, 49920, Note_on_c, 0, 66, 61
2, 49920, Note_on_c, 0, 57, 64
2, 49922, Note_on_c, 0, 64, 0
2, 49940, Note_on_c, 0, 64, 62
2, 49942, Note_on_c, 0, 66, 0
2, 49960, Note_on_c, 0, 66, 62
2, 49962, Note_on_c, 0, 64, 0
2, 49980, Note_on_c, 0, 57, 0
2, 49980, Note_on_c, 0, 64, 62
2, 49980, Note_on_c, 0, 54, 64
2, 49982, Note_on_c, 0, 66, 0
2, 50000, Note_on_c, 0, 66, 62
2, 50002, Note_on_c, 0, 64, 0
2, 50020, Note_on_c, 0, 64, 63
2, 50022, Note_on_c, 0, 66, 0
2, 50040, Note_on_c, 0, 54, 0
2, 50040, Note_on_c, 0, 66, 63
2, 50040, Note_on_c, 0, 56, 64
2, 50042, Note_on_c, 0, 64, 0
2, 50060, Note_on_c, 0, 64, 63
2, 50062, Note_on_c, 0, 66, 0
2, 50100, Note_on_c, 0, 56, 0
2, 50100, Note_on_c, 0, 54, 64
2, 50160, Note_on_c, 0, 54, 0
2, 50160, Note_on_c, 0, 74, 64
2, 50160, Note_on_c, 0, 52, 64
2, 50170, Note_on_c, 0, 64, 0
2, 50180, Note_on_c, 0, 74, 0
2, 50180, Note_on_c, 0, 72, 64
2, 50200, Note_on_c, 0, 72, 0
2, 50200, Note_on_c, 0, 74, 64
2, 50220, Note_on_c, 0, 52, 0
2, 50220, Note_on_c, 0, 50, 64
2, 50280, Note_on_c, 0, 50, 0
2, 50280, Note_on_c, 0, 48, 64
2, 50340, Note_on_c, 0, 48, 0
2, 50340, Note_on_c, 0, 47, 64
2, 50400, Note_on_c, 0, 47, 0
2, 50400, Note_on_c, 0, 45, 64
2, 50460, Note_on_c, 0, 74, 0
2, 50460, Note_on_c, 0, 76, 64
2, 50520, Note_on_c, 0, 76, 0
2, 50520, Note_on_c, 0, 45, 0
2, 50520, Note_on_c, 0, 74, 64
2, 50520, Note_on_c, 0, 52, 64
2, 50580, Note_on_c, 0, 74, 0
2, 50580, Note_on_c, 0, 72, 64
2, 50640, Note_on_c, 0, 72, 0
2, 50640, Note_on_c, 0, 52, 0
2, 50640, Note_on_c, 0, 56, 64
2, 50640, Note_on_c, 0, 71, 64
2, 50700, Note_on_c, 0, 71, 0
2, 50700, Note_on_c, 0, 74, 64
2, 50760, Note_on_c, 0, 74, 0
2, 50760, Note_on_c, 0, 56, 0
2, 50760, Note_on_c, 0, 72, 64
2, 50760, Note_on_c, 0, 57, 64
2, 50820, Note_on_c, 0, 57, 0
2, 50820, Note_on_c, 0, 59, 64
2, 50880, Note_on_c, 0, 59, 0
2, 50880, Note_on_c, 0, 72, 0
2, 50880, Note_on_c, 0, 76, 64
2, 50880, Note_on_c, 0, 57, 64
2, 50940, Note_on_c, 0, 57, 0
2, 50940, Note_on_c, 0, 55, 64
2, 51000, Note_on_c, 0, 55, 0
2, 51000, Note_on_c, 0, 76, 0
2, 51000, Note_on_c, 0, 81, 64
2, 51000, Note_on_c, 0, 54, 64
2, 51060, Note_on_c, 0, 54, 0
2, 51060, Note_on_c, 0, 57, 64
2, 51120, Note_on_c, 0, 57, 0
2, 51120, Note_on_c, 0, 51, 64
2, 51180, Note_on_c, 0, 81, 0
2, 51180, Note_on_c, 0, 83, 64
2, 51240, Note_on_c, 0, 83, 0
2, 51240, Note_on_c, 0, 51, 0
2, 51240, Note_on_c, 0, 60, 64
2, 51240, Note_on_c, 0, 81, 64
2, 51260, Note_on_c, 0, 60, 0
2, 51260, Note_on_c, 0, 59, 64
2, 51280, Note_on_c, 0, 59, 0
2, 51280, Note_on_c, 0, 60, 64
2, 51300, Note_on_c, 0, 81, 0
2, 51300, Note_on_c, 0, 79, 64
2, 51360, Note_on_c, 0, 79, 0
2, 51360, Note_on_c, 0, 78, 64
2, 51420, Note_on_c, 0, 78, 0
2, 51420, Note_on_c, 0, 81, 64
2, 51480, Note_on_c, 0, 81, 0
2, 51480, Note_on_c, 0, 75, 64
2, 51540, Note_on_c, 0, 60, 0
2, 51540, Note_on_c, 0, 57, 64
2, 51600, Note_on_c, 0, 57, 0
2, 51600, Note_on_c, 0, 75, 0
2, 51600, Note_on_c, 0, 84, 64
2, 51600, Note_on_c, 0, 54, 64
2, 51620, Note_on_c, 0, 84, 0
2, 51620, Note_on_c, 0, 83, 64
2, 51640, Note_on_c, 0, 83, 0
2, 51640, Note_on_c, 0, 84, 64
2, 51660, Note_on_c, 0, 54, 0
2, 51660, Note_on_c, 0, 57, 64
2, 51720, Note_on_c, 0, 57, 0
2, 51720, Note_on_c, 0, 51, 64
2, 51780, Note_on_c, 0, 51, 0
2, 51780, Note_on_c, 0, 54, 64
2, 51840, Note_on_c, 0, 54, 0
2, 51840, Note_on_c, 0, 47, 64
2, 51900, Note_on_c, 0, 84, 0
2, 51900, Note_on_c, 0, 83, 64
2, 51960, Note_on_c, 0, 83, 0
2, 51960, Note_on_c, 0, 47, 0
2, 51960, Note_on_c, 0, 64, 64
2, 51960, Note_on_c, 0, 81, 64
2, 51980, Note_on_c, 0, 64, 0
2, 51980, Note_on_c, 0, 63, 64
2, 52000, Note_on_c, 0, 63, 0
2, 52000, Note_on_c, 0, 64, 64
2, 52020, Note_on_c, 0, 64, 0
2, 52020, Note_on_c, 0, 81, 0
2, 52020, Note_on_c, 0, 63, 64
2, 52020, Note_on_c, 0, 79, 64
2, 52040, Note_on_c, 0, 63, 0
2, 52040, Note_on_c, 0, 64, 64
2, 52060, Note_on_c, 0, 64, 0
2, 52060, Note_on_c, 0, 63, 64
2, 52080, Note_on_c, 0, 79, 0
2, 52080, Note_on_c, 0, 78, 64
2, 52140, Note_on_c, 0, 78, 0
2, 52140, Note_on_c, 0, 63, 0
2, 52140, Note_on_c, 0, 81, 64
2, 52140, Note_on_c, 0, 61, 64
2, 52170, Note_on_c, 0, 61, 0
2, 52170, Note_on_c, 0, 63, 64
2, 52200, Note_on_c, 0, 63, 0
2, 52200, Note_on_c, 0, 81, 0
2, 52200, Note_on_c, 0, 79, 64
2, 52200, Note_on_c, 0, 64, 64
2, 52260, Note_on_c, 0, 64, 0
2, 52260, Note_on_c, 0, 63, 64
2, 52320, Note_on_c, 0, 63, 0
2, 52320, Note_on_c, 0, 64, 64
2, 52380, Note_on_c, 0, 64, 0
2, 52380, Note_on_c, 0, 66, 64
2, 52440, Note_on_c, 0, 66, 0
2, 52440, Note_on_c, 0, 67, 64
2, 52500, Note_on_c, 0, 67, 0
2, 52500, Note_on_c, 0, 64, 64
2, 52560, Note_on_c, 0, 64, 0
2, 52560, Note_on_c, 0, 58, 64
2, 52620, Note_on_c, 0, 58, 0
2, 52620, Note_on_c, 0, 79, 0
2, 52620, Note_on_c, 0, 78, 64
2, 52620, Note_on_c, 0, 59, 64
2, 52680, Note_on_c, 0, 59, 0
2, 52680, Note_on_c, 0, 78, 0
2, 52680, Note_on_c, 0, 76, 64
2, 52680, Note_on_c, 0, 61, 64
2, 52740, Note_on_c, 0, 61, 0
2, 52740, Note_on_c, 0, 76, 0
2, 52740, Note_on_c, 0, 74, 64
2, 52740, Note_on_c, 0, 62, 64
2, 52800, Note_on_c, 0, 62, 0
2, 52800, Note_on_c, 0, 74, 0
2, 52800, Note_on_c, 0, 73, 64
2, 52800, Note_on_c, 0, 64, 64
2, 52860, Note_on_c, 0, 64, 0
2, 52860, Note_on_c, 0, 73, 0
2, 52860, Note_on_c, 0, 76, 64
2, 52860, Note_on_c, 0, 61, 64
2, 52920, Note_on_c, 0, 61, 0
2, 52920, Note_on_c, 0, 76, 0
2, 52920, Note_on_c, 0, 70, 64
2, 52920, Note_on_c, 0, 54, 64
2, 52980, Note_on_c, 0, 70, 0
2, 52980, Note_on_c, 0, 79, 64
2, 53040, Note_on_c, 0, 79, 0
2, 53040, Note_on_c, 0, 54, 0
2, 53040, Note_on_c, 0, 78, 64
2, 53040, Note_on_c, 0, 58, 64
2, 53100, Note_on_c, 0, 78, 0
2, 53100, Note_on_c, 0, 76, 64
2, 53160, Note_on_c, 0, 76, 0
2, 53160, Note_on_c, 0, 58, 0
2, 53160, Note_on_c, 0, 59, 64
2, 53160, Note_on_c, 0, 75, 64
2, 53220, Note_on_c, 0, 75, 0
2, 53220, Note_on_c, 0, 78, 64
2, 53280, Note_on_c, 0, 78, 0
2, 53280, Note_on_c, 0, 59, 0
2, 53280, Note_on_c, 0, 69, 64
2, 53280, Note_on_c, 0, 60, 64
2, 53340, Note_on_c, 0, 69, 0
2, 53340, Note_on_c, 0, 72, 64
2, 53400, Note_on_c, 0, 72, 0
2, 53400, Note_on_c, 0, 60, 0
2, 53400, Note_on_c, 0, 71, 64
2, 53400, Note_on_c, 0, 51, 64
2, 53460, Note_on_c, 0, 71, 0
2, 53460, Note_on_c, 0, 69, 64
2, 53520, Note_on_c, 0, 69, 0
2, 53520, Note_on_c, 0, 51, 0
2, 53520, Note_on_c, 0, 52, 64
2, 53520, Note_on_c, 0, 67, 64
2, 53580, Note_on_c, 0, 67, 0
2, 53580, Note_on_c, 0, 71, 64
2, 53640, Note_on_c, 0, 71, 0
2, 53640, Note_on_c, 0, 52, 0
2, 53640, Note_on_c, 0, 64, 64
2, 53640, Note_on_c, 0, 48, 64
2, 53760, Note_on_c, 0, 48, 0
2, 53760, Note_on_c, 0, 64, 0
2, 53760, Note_on_c, 0, 66, 64
2, 53760, Note_on_c, 0, 45, 64
2, 53780, Note_on_c, 0, 66, 0
2, 53780, Note_on_c, 0, 64, 64
2, 53800, Note_on_c, 0, 64, 0
2, 53800, Note_on_c, 0, 66, 64
2, 53880, Note_on_c, 0, 66, 0
2, 53880, Note_on_c, 0, 45, 0
2, 53880, Note_on_c, 0, 64, 64
2, 53880, Note_on_c, 0, 47, 64
2, 53900, Note_on_c, 0, 64, 0
2, 53900, Note_on_c, 0, 63, 64
2, 53920, Note_on_c, 0, 63, 0
2, 53920, Note_on_c, 0, 61, 64
2, 53940, Note_on_c, 0, 61, 0
2, 53940, Note_on_c, 0, 63, 64
2, 54000, Note_on_c, 0, 63, 0
2, 54000, Note_on_c, 0, 47, 0
2, 54000, Note_on_c, 0, 64, 64
2, 54000, Note_on_c, 0, 36, 64
2, 54060, Note_on_c, 0, 36, 0
2, 54060, Note_on_c, 0, 64, 0
2, 54060, Note_on_c, 0, 68, 64
2, 54060, Note_on_c, 0, 40, 64
2, 54120, Note_on_c, 0, 40, 0
2, 54120, Note_on_c, 0, 68, 0
2, 54120, Note_on_c, 0, 69, 64
2, 54120, Note_on_c, 0, 42, 64
2, 54180, Note_on_c, 0, 42, 0
2, 54180, Note_on_c, 0, 69, 0
2, 54180, Note_on_c, 0, 71, 64
2, 54180, Note_on_c, 0, 44, 64
2, 54240, Note_on_c, 0, 44, 0
2, 54240, Note_on_c, 0, 71, 0
2, 54240, Note_on_c, 0, 72, 64
2, 54240, Note_on_c, 0, 45, 64
2, 54300, Note_on_c, 0, 45, 0
2, 54300, Note_on_c, 0, 72, 0
2, 54300, Note_on_c, 0, 42, 64
2, 54300, Note_on_c, 0, 69, 64
2, 54360, Note_on_c, 0, 69, 0
2, 54360, Note_on_c, 0, 42, 0
2, 54360, Note_on_c, 0, 71, 64
2, 54360, Note_on_c, 0, 44, 64
2, 54420, Note_on_c, 0, 44, 0
2, 54420, Note_on_c, 0, 71, 0
2, 54420, Note_on_c, 0, 47, 64
2, 54420, Note_on_c, 0, 69, 64
2, 54480, Note_on_c, 0, 69, 0
2, 54480, Note_on_c, 0, 47, 0
2, 54480, Note_on_c, 0, 48, 64
2, 54480, Note_on_c, 0, 68, 64
2, 54540, Note_on_c, 0, 68, 0
2, 54540, Note_on_c, 0, 48, 0
2, 54540, Note_on_c, 0, 50, 64
2, 54540, Note_on_c, 0, 66, 64
2, 54600, Note_on_c, 0, 66, 0
2, 54600, Note_on_c, 0, 50, 0
2, 54600, Note_on_c, 0, 52, 64
2, 54600, Note_on_c, 0, 64, 64
2, 54660, Note_on_c, 0, 64, 0
2, 54660, Note_on_c, 0, 52, 0
2, 54660, Note_on_c, 0, 54, 64
2, 54660, Note_on_c, 0, 74, 64
2, 54720, Note_on_c, 0, 74, 0
2, 54720, Note_on_c, 0, 54, 0
2, 54720, Note_on_c, 0, 73, 64
2, 54720, Note_on_c, 0, 55, 64
2, 54780, Note_on_c, 0, 73, 0
2, 54780, Note_on_c, 0, 75, 64
2, 54840, Note_on_c, 0, 75, 0
2, 54840, Note_on_c, 0, 55, 0
2, 54840, Note_on_c, 0, 76, 64
2, 54840, Note_on_c, 0, 54, 64
2, 54900, Note_on_c, 0, 76, 0
2, 54900, Note_on_c, 0, 78, 64
2, 54960, Note_on_c, 0, 78, 0
2, 54960, Note_on_c, 0, 54, 0
2, 54960, Note_on_c, 0, 52, 64
2, 54960, Note_on_c, 0, 79, 64
2, 55020, Note_on_c, 0, 79, 0
2, 55020, Note_on_c, 0, 76, 64
2, 55080, Note_on_c, 0, 76, 0
2, 55080, Note_on_c, 0, 52, 0
2, 55080, Note_on_c, 0, 78, 64
2, 55080, Note_on_c, 0, 51, 64
2, 55140, Note_on_c, 0, 78, 0
2, 55140, Note_on_c, 0, 76, 64
2, 55200, Note_on_c, 0, 76, 0
2, 55200, Note_on_c, 0, 51, 0
2, 55200, Note_on_c, 0, 75, 64
2, 55200, Note_on_c, 0, 47, 64
2, 55260, Note_on_c, 0, 75, 0
2, 55260, Note_on_c, 0, 73, 64
2, 55320, Note_on_c, 0, 73, 0
2, 55320, Note_on_c, 0, 47, 0
2, 55320, Note_on_c, 0, 51, 64
2, 55320, Note_on_c, 0, 71, 64
2, 55380, Note_on_c, 0, 71, 0
2, 55380, Note_on_c, 0, 69, 64
2, 55440, Note_on_c, 0, 69, 0
2, 55440, Note_on_c, 0, 51, 0
2, 55440, Note_on_c, 0, 67, 64
2, 55440, Note_on_c, 0, 52, 64
2, 55560, Note_on_c, 0, 52, 0
2, 55560, Note_on_c, 0, 67, 0
2, 55560, Note_on_c, 0, 69, 64
2, 55560, Note_on_c, 0, 45, 64
2, 55580, Note_on_c, 0, 69, 0
2, 55580, Note_on_c, 0, 67, 64
2, 55600, Note_on_c, 0, 67, 0
2, 55600, Note_on_c, 0, 69, 64
2, 55680, Note_on_c, 0, 69, 0
2, 55680, Note_on_c, 0, 45, 0
2, 55680, Note_on_c, 0, 67, 64
2, 55680, Note_on_c, 0, 47, 64
2, 55700, Note_on_c, 0, 67, 0
2, 55700, Note_on_c, 0, 66, 64
2, 55720, Note_on_c, 0, 66, 0
2, 55720, Note_on_c, 0, 64, 64
2, 55740, Note_on_c, 0, 64, 0
2, 55740, Note_on_c, 0, 66, 64
2, 55800, Note_on_c, 0, 66, 0
2, 55800, Note_on_c, 0, 47, 0
2, 55800, Note_on_c, 0, 40, 64
2, 55800, Note_on_c, 0, 64, 64
2, 56160, Note_on_c, 0, 64, 0
2, 56160, Note_on_c, 0, 40, 0
2, 56160, Note_on_c, 0, 78, 64
2, 56220, Note_on_c, 0, 59, 64
2, 56280, Note_on_c, 0, 59, 0
2, 56280, Note_on_c, 0, 57, 64
2, 56340, Note_on_c, 0, 57, 0
2, 56340, Note_on_c, 0, 55, 64
2, 56400, Note_on_c, 0, 55, 0
2, 56400, Note_on_c, 0, 54, 64
2, 56460, Note_on_c, 0, 54, 0
2, 56460, Note_on_c, 0, 57, 64
2, 56520, Note_on_c, 0, 57, 0
2, 56520, Note_on_c, 0, 55, 64
2, 56580, Note_on_c, 0, 55, 0
2, 56580, Note_on_c, 0, 59, 64
2, 56640, Note_on_c, 0, 59, 0
2, 56640, Note_on_c, 0, 78, 0
2, 56640, Note_on_c, 0, 76, 64
2, 56640, Note_on_c, 0, 61, 64
2, 56700, Note_on_c, 0, 61, 0
2, 56700, Note_on_c, 0, 76, 0
2, 56700, Note_on_c, 0, 78, 64
2, 56700, Note_on_c, 0, 62, 64
2, 56760, Note_on_c, 0, 62, 0
2, 56760, Note_on_c, 0, 78, 0
2, 56760, Note_on_c, 0, 79, 64
2, 56760, Note_on_c, 0, 64, 64
2, 56820, Note_on_c, 0, 64, 0
2, 56820, Note_on_c, 0, 57, 64
2, 56880, Note_on_c, 0, 57, 0
2, 56880, Note_on_c, 0, 79, 0
2, 56880, Note_on_c, 0, 78, 64
2, 56880, Note_on_c, 0, 62, 64
2, 56940, Note_on_c, 0, 62, 0
2, 56940, Note_on_c, 0, 55, 64
2, 56990, Note_on_c, 0, 78, 0
2, 57000, Note_on_c, 0, 55, 0
2, 57000, Note_on_c, 0, 78, 64
2, 57000, Note_on_c, 0, 57, 64
2, 57015, Note_on_c, 0, 78, 0
2, 57015, Note_on_c, 0, 76, 64
2, 57030, Note_on_c, 0, 76, 0
2, 57030, Note_on_c, 0, 78, 64
2, 57045, Note_on_c, 0, 78, 0
2, 57045, Note_on_c, 0, 76, 64
2, 57060, Note_on_c, 0, 76, 0
2, 57060, Note_on_c, 0, 57, 0
2, 57060, Note_on_c, 0, 78, 64
2, 57060, Note_on_c, 0, 59, 64
2, 57075, Note_on_c, 0, 78, 0
2, 57075, Note_on_c, 0, 76, 64
2, 57075, Note_on_c, 0, 76, 64
2, 57090, Note_on_c, 0, 76, 0
2, 57120, Note_on_c, 0, 76, 0
2, 57120, Note_on_c, 0, 59, 0
2, 57120, Note_on_c, 0, 69, 64
2, 57120, Note_on_c, 0, 60, 64
2, 57180, Note_on_c, 0, 60, 0
2, 57180, Note_on_c, 0, 54, 64
2, 57240, Note_on_c, 0, 54, 0
2, 57240, Note_on_c, 0, 69, 0
2, 57240, Note_on_c, 0, 74, 64
2, 57240, Note_on_c, 0, 59, 64
2, 57300, Note_on_c, 0, 59, 0
2, 57300, Note_on_c, 0, 52, 64
2, 57360, Note_on_c, 0, 52, 0
2, 57360, Note_on_c, 0, 74, 0
2, 57360, Note_on_c, 0, 72, 64
2, 57360, Note_on_c, 0, 54, 64
2, 57420, Note_on_c, 0, 54, 0
2, 57420, Note_on_c, 0, 72, 0
2, 57420, Note_on_c, 0, 71, 64
2, 57420, Note_on_c, 0, 55, 64
2, 57480, Note_on_c, 0, 55, 0
2, 57480, Note_on_c, 0, 71, 0
2, 57480, Note_on_c, 0, 72, 64
2, 57480, Note_on_c, 0, 57, 64
2, 57540, Note_on_c, 0, 57, 0
2, 57540, Note_on_c, 0, 51, 64
2, 57600, Note_on_c, 0, 51, 0
2, 57600, Note_on_c, 0, 55, 64
2, 57660, Note_on_c, 0, 72, 0
2, 57660, Note_on_c, 0, 71, 64
2, 57720, Note_on_c, 0, 71, 0
2, 57720, Note_on_c, 0, 55, 0
2, 57720, Note_on_c, 0, 69, 64
2, 57720, Note_on_c, 0, 57, 64
2, 57780, Note_on_c, 0, 69, 0
2, 57780, Note_on_c, 0, 67, 64
2, 57840, Note_on_c, 0, 67, 0
2, 57840, Note_on_c, 0, 57, 0
2, 57840, Note_on_c, 0, 59, 64
2, 57840, Note_on_c, 0, 66, 64
2, 57900, Note_on_c, 0, 66, 0
2, 57900, Note_on_c, 0, 69, 64
2, 57960, Note_on_c, 0, 69, 0
2, 57960, Note_on_c, 0, 59, 0
2, 57960, Note_on_c, 0, 67, 64
2, 57960, Note_on_c, 0, 52, 64
2, 58020, Note_on_c, 0, 67, 0
2, 58020, Note_on_c, 0, 71, 64
2, 58080, Note_on_c, 0, 71, 0
2, 58080, Note_on_c, 0, 52, 0
2, 58080, Note_on_c, 0, 72, 64
2, 58080, Note_on_c, 0, 50, 64
2, 58140, Note_on_c, 0, 72, 0
2, 58140, Note_on_c, 0, 74, 64
2, 58200, Note_on_c, 0, 74, 0
2, 58200, Note_on_c, 0, 50, 0
2, 58200, Note_on_c, 0, 48, 64
2, 58200, Note_on_c, 0, 76, 64
2, 58260, Note_on_c, 0, 76, 0
2, 58260, Note_on_c, 0, 69, 64
2, 58320, Note_on_c, 0, 69, 0
2, 58320, Note_on_c, 0, 48, 0
2, 58320, Note_on_c, 0, 74, 64
2, 58320, Note_on_c, 0, 47, 64
2, 58380, Note_on_c, 0, 74, 0
2, 58380, Note_on_c, 0, 68, 64
2, 58440, Note_on_c, 0, 68, 0
2, 58440, Note_on_c, 0, 47, 0
2, 58440, Note_on_c, 0, 69, 64
2, 58440, Note_on_c, 0, 40, 64
2, 58500, Note_on_c, 0, 69, 0
2, 58500, Note_on_c, 0, 71, 64
2, 58560, Note_on_c, 0, 71, 0
2, 58560, Note_on_c, 0, 40, 0
2, 58560, Note_on_c, 0, 45, 64
2, 58560, Note_on_c, 0, 72, 64
2, 58620, Note_on_c, 0, 72, 0
2, 58620, Note_on_c, 0, 66, 64
2, 58680, Note_on_c, 0, 66, 0
2, 58680, Note_on_c, 0, 45, 0
2, 58680, Note_on_c, 0, 71, 64
2, 58680, Note_on_c, 0, 38, 64
2, 58740, Note_on_c, 0, 38, 0
2, 58740, Note_on_c, 0, 71, 0
2, 58740, Note_on_c, 0, 64, 64
2, 58740, Note_on_c, 0, 36, 64
2, 58800, Note_on_c, 0, 36, 0
2, 58800, Note_on_c, 0, 64, 0
2, 58800, Note_on_c, 0, 66, 64
2, 58800, Note_on_c, 0, 38, 64
2, 58860, Note_on_c, 0, 38, 0
2, 58860, Note_on_c, 0, 66, 0
2, 58860, Note_on_c, 0, 68, 64
2, 58860, Note_on_c, 0, 40, 64
2, 58920, Note_on_c, 0, 40, 0
2, 58920, Note_on_c, 0, 68, 0
2, 58920, Note_on_c, 0, 41, 64
2, 58920, Note_on_c, 0, 69, 64
2, 58980, Note_on_c, 0, 69, 0
2, 58980, Note_on_c, 0, 63, 64
2, 59040, Note_on_c, 0, 63, 0
2, 59040, Note_on_c, 0, 41, 0
2, 59040, Note_on_c, 0, 68, 64
2, 59040, Note_on_c, 0, 40, 64
2, 59100, Note_on_c, 0, 40, 0
2, 59100, Note_on_c, 0, 52, 64
2, 59160, Note_on_c, 0, 52, 0
2, 59160, Note_on_c, 0, 68, 0
2, 59160, Note_on_c, 0, 71, 64
2, 59160, Note_on_c, 0, 50, 64
2, 59180, Note_on_c, 0, 71, 0
2, 59180, Note_on_c, 0, 69, 64
2, 59200, Note_on_c, 0, 69, 0
2, 59200, Note_on_c, 0, 68, 64
2, 59220, Note_on_c, 0, 68, 0
2, 59220, Note_on_c, 0, 50, 0
2, 59220, Note_on_c, 0, 69, 64
2, 59220, Note_on_c, 0, 48, 64
2, 59280, Note_on_c, 0, 48, 0
2, 59280, Note_on_c, 0, 69, 0
2, 59280, Note_on_c, 0, 71, 64
2, 59280, Note_on_c, 0, 47, 64
2, 59340, Note_on_c, 0, 47, 0
2, 59340, Note_on_c, 0, 50, 64
2, 59400, Note_on_c, 0, 50, 0
2, 59400, Note_on_c, 0, 71, 0
2, 59400, Note_on_c, 0, 64, 64
2, 59400, Note_on_c, 0, 48, 64
2, 59460, Note_on_c, 0, 64, 0
2, 59460, Note_on_c, 0, 76, 64
2, 59520, Note_on_c, 0, 76, 0
2, 59520, Note_on_c, 0, 48, 0
2, 59520, Note_on_c, 0, 52, 64
2, 59520, Note_on_c, 0, 74, 64
2, 59540, Note_on_c, 0, 52, 0
2, 59540, Note_on_c, 0, 50, 64
2, 59560, Note_on_c, 0, 50, 0
2, 59560, Note_on_c, 0, 48, 64
2, 59580, Note_on_c, 0, 48, 0
2, 59580, Note_on_c, 0, 74, 0
2, 59580, Note_on_c, 0, 50, 64
2, 59580, Note_on_c, 0, 72, 64
2, 59640, Note_on_c, 0, 72, 0
2, 59640, Note_on_c, 0, 50, 0
2, 59640, Note_on_c, 0, 52, 64
2, 59640, Note_on_c, 0, 71, 64
2, 59700, Note_on_c, 0, 71, 0
2, 59700, Note_on_c, 0, 74, 64
2, 59760, Note_on_c, 0, 74, 0
2, 59760, Note_on_c, 0, 52, 0
2, 59760, Note_on_c, 0, 72, 64
2, 59760, Note_on_c, 0, 45, 64
2, 59820, Note_on_c, 0, 45, 0
2, 59820, Note_on_c, 0, 57, 64
2, 59880, Note_on_c, 0, 57, 0
2, 59880, Note_on_c, 0, 72, 0
2, 59880, Note_on_c, 0, 76, 64
2, 59880, Note_on_c, 0, 55, 64
2, 59900, Note_on_c, 0, 76, 0
2, 59900, Note_on_c, 0, 74, 64
2, 59920, Note_on_c, 0, 74, 0
2, 59920, Note_on_c, 0, 72, 64
2, 59940, Note_on_c, 0, 72, 0
2, 59940, Note_on_c, 0, 55, 0
2, 59940, Note_on_c, 0, 74, 64
2, 59940, Note_on_c, 0, 53, 64
2, 60000, Note_on_c, 0, 53, 0
2, 60000, Note_on_c, 0, 74, 0
2, 60000, Note_on_c, 0, 76, 64
2, 60000, Note_on_c, 0, 52, 64
2, 60060, Note_on_c, 0, 52, 0
2, 60060, Note_on_c, 0, 55, 64
2, 60120, Note_on_c, 0, 55, 0
2, 60120, Note_on_c, 0, 76, 0
2, 60120, Note_on_c, 0, 69, 64
2, 60120, Note_on_c, 0, 53, 64
2, 60180, Note_on_c, 0, 69, 0
2, 60180, Note_on_c, 0, 81, 64
2, 60240, Note_on_c, 0, 81, 0
2, 60240, Note_on_c, 0, 53, 0
2, 60240, Note_on_c, 0, 79, 64
2, 60240, Note_on_c, 0, 55, 64
2, 60300, Note_on_c, 0, 79, 0
2, 60300, Note_on_c, 0, 77, 64
2, 60360, Note_on_c, 0, 77, 0
2, 60360, Note_on_c, 0, 55, 0
2, 60360, Note_on_c, 0, 57, 64
2, 60360, Note_on_c, 0, 76, 64
2, 60420, Note_on_c, 0, 76, 0
2, 60420, Note_on_c, 0, 79, 64
2, 60480, Note_on_c, 0, 79, 0
2, 60480, Note_on_c, 0, 57, 0
2, 60480, Note_on_c, 0, 77, 64
2, 60480, Note_on_c, 0, 50, 64
2, 60540, Note_on_c, 0, 50, 0
2, 60540, Note_on_c, 0, 62, 64
2, 60600, Note_on_c, 0, 62, 0
2, 60600, Note_on_c, 0, 77, 0
2, 60600, Note_on_c, 0, 79, 64
2, 60600, Note_on_c, 0, 60, 64
2, 60660, Note_on_c, 0, 60, 0
2, 60660, Note_on_c, 0, 59, 64
2, 60720, Note_on_c, 0, 59, 0
2, 60720, Note_on_c, 0, 79, 0
2, 60720, Note_on_c, 0, 81, 64
2, 60720, Note_on_c, 0, 57, 64
2, 60780, Note_on_c, 0, 57, 0
2, 60780, Note_on_c, 0, 60, 64
2, 60840, Note_on_c, 0, 60, 0
2, 60840, Note_on_c, 0, 59, 64
2, 60900, Note_on_c, 0, 81, 0
2, 60900, Note_on_c, 0, 74, 64
2, 60960, Note_on_c, 0, 74, 0
2, 60960, Note_on_c, 0, 59, 0
2, 60960, Note_on_c, 0, 72, 64
2, 60960, Note_on_c, 0, 60, 64
2, 61020, Note_on_c, 0, 72, 0
2, 61020, Note_on_c, 0, 71, 64
2, 61080, Note_on_c, 0, 71, 0
2, 61080, Note_on_c, 0, 60, 0
2, 61080, Note_on_c, 0, 62, 64
2, 61080, Note_on_c, 0, 69, 64
2, 61140, Note_on_c, 0, 69, 0
2, 61140, Note_on_c, 0, 72, 64
2, 61200, Note_on_c, 0, 72, 0
2, 61200, Note_on_c, 0, 62, 0
2, 61200, Note_on_c, 0, 71, 64
2, 61260, Note_on_c, 0, 55, 64
2, 61320, Note_on_c, 0, 55, 0
2, 61320, Note_on_c, 0, 71, 0
2, 61320, Note_on_c, 0, 72, 64
2, 61320, Note_on_c, 0, 53, 64
2, 61380, Note_on_c, 0, 53, 0
2, 61380, Note_on_c, 0, 52, 64
2, 61440, Note_on_c, 0, 52, 0
2, 61440, Note_on_c, 0, 72, 0
2, 61440, Note_on_c, 0, 74, 64
2, 61440, Note_on_c, 0, 50, 64
2, 61500, Note_on_c, 0, 50, 0
2, 61500, Note_on_c, 0, 53, 64
2, 61560, Note_on_c, 0, 53, 0
2, 61560, Note_on_c, 0, 43, 64
2, 61620, Note_on_c, 0, 43, 0
2, 61620, Note_on_c, 0, 74, 0
2, 61620, Note_on_c, 0, 67, 64
2, 61620, Note_on_c, 0, 53, 64
2, 61680, Note_on_c, 0, 53, 0
2, 61680, Note_on_c, 0, 67, 0
2, 61680, Note_on_c, 0, 72, 64
2, 61680, Note_on_c, 0, 52, 64
2, 61740, Note_on_c, 0, 52, 0
2, 61740, Note_on_c, 0, 72, 0
2, 61740, Note_on_c, 0, 74, 64
2, 61740, Note_on_c, 0, 50, 64
2, 61800, Note_on_c, 0, 50, 0
2, 61800, Note_on_c, 0, 74, 0
2, 61800, Note_on_c, 0, 76, 64
2, 61800, Note_on_c, 0, 48, 64
2, 61860, Note_on_c, 0, 48, 0
2, 61860, Note_on_c, 0, 52, 64
2, 61920, Note_on_c, 0, 52, 0
2, 61920, Note_on_c, 0, 43, 64
2, 61980, Note_on_c, 0, 43, 0
2, 61980, Note_on_c, 0, 76, 0
2, 61980, Note_on_c, 0, 72, 64
2, 61980, Note_on_c, 0, 52, 64
2, 62040, Note_on_c, 0, 52, 0
2, 62040, Note_on_c, 0, 72, 0
2, 62040, Note_on_c, 0, 74, 64
2, 62040, Note_on_c, 0, 50, 64
2, 62100, Note_on_c, 0, 50, 0
2, 62100, Note_on_c, 0, 74, 0
2, 62100, Note_on_c, 0, 76, 64
2, 62100, Note_on_c, 0, 48, 64
2, 62160, Note_on_c, 0, 48, 0
2, 62160, Note_on_c, 0, 76, 0
2, 62160, Note_on_c, 0, 77, 64
2, 62160, Note_on_c, 0, 47, 64
2, 62220, Note_on_c, 0, 47, 0
2, 62220, Note_on_c, 0, 50, 64
2, 62280, Note_on_c, 0, 50, 0
2, 62280, Note_on_c, 0, 43, 64
2, 62340, Note_on_c, 0, 77, 0
2, 62340, Note_on_c, 0, 79, 64
2, 62400, Note_on_c, 0, 79, 0
2, 62400, Note_on_c, 0, 43, 0
2, 62400, Note_on_c, 0, 77, 64
2, 62400, Note_on_c, 0, 45, 64
2, 62460, Note_on_c, 0, 77, 0
2, 62460, Note_on_c, 0, 76, 64
2, 62520, Note_on_c, 0, 76, 0
2, 62520, Note_on_c, 0, 45, 0
2, 62520, Note_on_c, 0, 47, 64
2, 62520, Note_on_c, 0, 74, 64
2, 62580, Note_on_c, 0, 74, 0
2, 62580, Note_on_c, 0, 77, 64
2, 62640, Note_on_c, 0, 77, 0
2, 62640, Note_on_c, 0, 47, 0
2, 62640, Note_on_c, 0, 76, 64
2, 62640, Note_on_c, 0, 48, 64
2, 62700, Note_on_c, 0, 48, 0
2, 62700, Note_on_c, 0, 76, 0
2, 62700, Note_on_c, 0, 64, 64
2, 62700, Note_on_c, 0, 62, 64
2, 62760, Note_on_c, 0, 62, 0
2, 62760, Note_on_c, 0, 64, 0
2, 62760, Note_on_c, 0, 66, 64
2, 62760, Note_on_c, 0, 60, 64
2, 62820, Note_on_c, 0, 60, 0
2, 62820, Note_on_c, 0, 66, 0
2, 62820, Note_on_c, 0, 68, 64
2, 62820, Note_on_c, 0, 59, 64
2, 62880, Note_on_c, 0, 59, 0
2, 62880, Note_on_c, 0, 68, 0
2, 62880, Note_on_c, 0, 69, 64
2, 62880, Note_on_c, 0, 57, 64
2, 62940, Note_on_c, 0, 57, 0
2, 62940, Note_on_c, 0, 69, 0
2, 62940, Note_on_c, 0, 60, 64
2, 62940, Note_on_c, 0, 66, 64
2, 63000, Note_on_c, 0, 66, 0
2, 63000, Note_on_c, 0, 60, 0
2, 63000, Note_on_c, 0, 74, 64
2, 63000, Note_on_c, 0, 47, 64
2, 63060, Note_on_c, 0, 47, 0
2, 63060, Note_on_c, 0, 74, 0
2, 63060, Note_on_c, 0, 66, 64
2, 63060, Note_on_c, 0, 60, 64
2, 63120, Note_on_c, 0, 60, 0
2, 63120, Note_on_c, 0, 66, 0
2, 63120, Note_on_c, 0, 68, 64
2, 63120, Note_on_c, 0, 59, 64
2, 63180, Note_on_c, 0, 59, 0
2, 63180, Note_on_c, 0, 68, 0
2, 63180, Note_on_c, 0, 69, 64
2, 63180, Note_on_c, 0, 57, 64
2, 63240, Note_on_c, 0, 57, 0
2, 63240, Note_on_c, 0, 69, 0
2, 63240, Note_on_c, 0, 71, 64
2, 63240, Note_on_c, 0, 56, 64
2, 63300, Note_on_c, 0, 56, 0
2, 63300, Note_on_c, 0, 71, 0
2, 63300, Note_on_c, 0, 59, 64
2, 63300, Note_on_c, 0, 68, 64
2, 63360, Note_on_c, 0, 68, 0
2, 63360, Note_on_c, 0, 59, 0
2, 63360, Note_on_c, 0, 72, 64
2, 63360, Note_on_c, 0, 45, 64
2, 63420, Note_on_c, 0, 45, 0
2, 63420, Note_on_c, 0, 72, 0
2, 63420, Note_on_c, 0, 68, 64
2, 63420, Note_on_c, 0, 59, 64
2, 63480, Note_on_c, 0, 59, 0
2, 63480, Note_on_c, 0, 68, 0
2, 63480, Note_on_c, 0, 69, 64
2, 63480, Note_on_c, 0, 57, 64
2, 63540, Note_on_c, 0, 57, 0
2, 63540, Note_on_c, 0, 69, 0
2, 63540, Note_on_c, 0, 71, 64
2, 63540, Note_on_c, 0, 56, 64
2, 63600, Note_on_c, 0, 56, 0
2, 63600, Note_on_c, 0, 71, 0
2, 63600, Note_on_c, 0, 72, 64
2, 63600, Note_on_c, 0, 54, 64
2, 63660, Note_on_c, 0, 54, 0
2, 63660, Note_on_c, 0, 72, 0
2, 63660, Note_on_c, 0, 57, 64
2, 63660, Note_on_c, 0, 69, 64
2, 63720, Note_on_c, 0, 69, 0
2, 63720, Note_on_c, 0, 57, 0
2, 63720, Note_on_c, 0, 72, 64
2, 63720, Note_on_c, 0, 51, 64
2, 63780, Note_on_c, 0, 72, 0
2, 63780, Note_on_c, 0, 71, 64
2, 63840, Note_on_c, 0, 71, 0
2, 63840, Note_on_c, 0, 51, 0
2, 63840, Note_on_c, 0, 69, 64
2, 63840, Note_on_c, 0, 52, 64
2, 63900, Note_on_c, 0, 69, 0
2, 63900, Note_on_c, 0, 68, 64
2, 63960, Note_on_c, 0, 68, 0
2, 63960, Note_on_c, 0, 52, 0
2, 63960, Note_on_c, 0, 53, 64
2, 63960, Note_on_c, 0, 69, 64
2, 64080, Note_on_c, 0, 53, 0
2, 64080, Note_on_c, 0, 52, 64
2, 64140, Note_on_c, 0, 52, 0
2, 64140, Note_on_c, 0, 69, 0
2, 64140, Note_on_c, 0, 71, 64
2, 64140, Note_on_c, 0, 50, 64
2, 64200, Note_on_c, 0, 50, 0
2, 64200, Note_on_c, 0, 71, 0
2, 64200, Note_on_c, 0, 71, 64
2, 64200, Note_on_c, 0, 52, 64
2, 64320, Note_on_c, 0, 52, 0
2, 64320, Note_on_c, 0, 40, 64
2, 64380, Note_on_c, 0, 71, 0
2, 64380, Note_on_c, 0, 69, 64
2, 64440, Note_on_c, 0, 69, 0
2, 64440, Note_on_c, 0, 40, 0
2, 64440, Note_on_c, 0, 69, 64
2, 64440, Note_on_c, 0, 45, 64
2, 64500, Note_on_c, 0, 45, 0
2, 64500, Note_on_c, 0, 57, 64
2, 64560, Note_on_c, 0, 57, 0
2, 64560, Note_on_c, 0, 55, 64
2, 64620, Note_on_c, 0, 55, 0
2, 64620, Note_on_c, 0, 54, 64
2, 64680, Note_on_c, 0, 54, 0
2, 64680, Note_on_c, 0, 52, 64
2, 64740, Note_on_c, 0, 52, 0
2, 64740, Note_on_c, 0, 55, 64
2, 64800, Note_on_c, 0, 55, 0
2, 64800, Note_on_c, 0, 69, 0
2, 64800, Note_on_c, 0, 54, 64
2, 64860, Note_on_c, 0, 74, 64
2, 64920, Note_on_c, 0, 74, 0
2, 64920, Note_on_c, 0, 54, 0
2, 64920, Note_on_c, 0, 72, 64
2, 64920, Note_on_c, 0, 50, 64
2, 64980, Note_on_c, 0, 72, 0
2, 64980, Note_on_c, 0, 71, 64
2, 65040, Note_on_c, 0, 71, 0
2, 65040, Note_on_c, 0, 50, 0
2, 65040, Note_on_c, 0, 54, 64
2, 65040, Note_on_c, 0, 69, 64
2, 65100, Note_on_c, 0, 69, 0
2, 65100, Note_on_c, 0, 72, 64
2, 65160, Note_on_c, 0, 72, 0
2, 65160, Note_on_c, 0, 54, 0
2, 65160, Note_on_c, 0, 71, 64
2, 65160, Note_on_c, 0, 55, 64
2, 65220, Note_on_c, 0, 71, 0
2, 65220, Note_on_c, 0, 74, 64
2, 65280, Note_on_c, 0, 74, 0
2, 65280, Note_on_c, 0, 55, 0
2, 65280, Note_on_c, 0, 76, 64
2, 65280, Note_on_c, 0, 54, 64
2, 65340, Note_on_c, 0, 76, 0
2, 65340, Note_on_c, 0, 78, 64
2, 65400, Note_on_c, 0, 78, 0
2, 65400, Note_on_c, 0, 54, 0
2, 65400, Note_on_c, 0, 52, 64
2, 65400, Note_on_c, 0, 79, 64
2, 65460, Note_on_c, 0, 79, 0
2, 65460, Note_on_c, 0, 73, 64
2, 65520, Note_on_c, 0, 73, 0
2, 65520, Note_on_c, 0, 52, 0
2, 65520, Note_on_c, 0, 78, 64
2, 65520, Note_on_c, 0, 50, 64
2, 65580, Note_on_c, 0, 50, 0
2, 65580, Note_on_c, 0, 78, 0
2, 65580, Note_on_c, 0, 71, 64
2, 65580, Note_on_c, 0, 55, 64
2, 65640, Note_on_c, 0, 55, 0
2, 65640, Note_on_c, 0, 71, 0
2, 65640, Note_on_c, 0, 72, 64
2, 65640, Note_on_c, 0, 57, 64
2, 65700, Note_on_c, 0, 57, 0
2, 65700, Note_on_c, 0, 72, 0
2, 65700, Note_on_c, 0, 74, 64
2, 65700, Note_on_c, 0, 59, 64
2, 65760, Note_on_c, 0, 59, 0
2, 65760, Note_on_c, 0, 74, 0
2, 65760, Note_on_c, 0, 60, 64
2, 65760, Note_on_c, 0, 76, 64
2, 65820, Note_on_c, 0, 76, 0
2, 65820, Note_on_c, 0, 69, 64
2, 65880, Note_on_c, 0, 69, 0
2, 65880, Note_on_c, 0, 74, 64
2, 65940, Note_on_c, 0, 74, 0
2, 65940, Note_on_c, 0, 60, 0
2, 65940, Note_on_c, 0, 67, 64
2, 65940, Note_on_c, 0, 59, 64
2, 66000, Note_on_c, 0, 59, 0
2, 66000, Note_on_c, 0, 67, 0
2, 66000, Note_on_c, 0, 69, 64
2, 66000, Note_on_c, 0, 57, 64
2, 66060, Note_on_c, 0, 57, 0
2, 66060, Note_on_c, 0, 69, 0
2, 66060, Note_on_c, 0, 71, 64
2, 66060, Note_on_c, 0, 55, 64
2, 66120, Note_on_c, 0, 55, 0
2, 66120, Note_on_c, 0, 71, 0
2, 66120, Note_on_c, 0, 57, 64
2, 66120, Note_on_c, 0, 72, 64
2, 66180, Note_on_c, 0, 72, 0
2, 66180, Note_on_c, 0, 66, 64
2, 66240, Note_on_c, 0, 66, 0
2, 66240, Note_on_c, 0, 71, 64
2, 66300, Note_on_c, 0, 57, 0
2, 66300, Note_on_c, 0, 59, 64
2, 66360, Note_on_c, 0, 59, 0
2, 66360, Note_on_c, 0, 71, 0
2, 66360, Note_on_c, 0, 73, 64
2, 66360, Note_on_c, 0, 57, 64
2, 66380, Note_on_c, 0, 73, 0
2, 66380, Note_on_c, 0, 75, 64
2, 66400, Note_on_c, 0, 75, 0
2, 66400, Note_on_c, 0, 76, 64
2, 66420, Note_on_c, 0, 76, 0
2, 66420, Note_on_c, 0, 57, 0
2, 66420, Note_on_c, 0, 75, 64
2, 66420, Note_on_c, 0, 55, 64
2, 66440, Note_on_c, 0, 75, 0
2, 66440, Note_on_c, 0, 76, 64
2, 66460, Note_on_c, 0, 76, 0
2, 66460, Note_on_c, 0, 75, 64
2, 66480, Note_on_c, 0, 75, 0
2, 66480, Note_on_c, 0, 55, 0
2, 66480, Note_on_c, 0, 76, 64
2, 66480, Note_on_c, 0, 54, 64
2, 66500, Note_on_c, 0, 76, 0
2, 66500, Note_on_c, 0, 75, 64
2, 66540, Note_on_c, 0, 75, 0
2, 66540, Note_on_c, 0, 54, 0
2, 66540, Note_on_c, 0, 57, 64
2, 66540, Note_on_c, 0, 73, 64
2, 66570, Note_on_c, 0, 73, 0
2, 66570, Note_on_c, 0, 75, 64
2, 66600, Note_on_c, 0, 75, 0
2, 66600, Note_on_c, 0, 57, 0
2, 66600, Note_on_c, 0, 76, 64
2, 66600, Note_on_c, 0, 55, 64
2, 66660, Note_on_c, 0, 55, 0
2, 66660, Note_on_c, 0, 59, 64
2, 66720, Note_on_c, 0, 59, 0
2, 66720, Note_on_c, 0, 76, 0
2, 66720, Note_on_c, 0, 79, 64
2, 66720, Note_on_c, 0, 61, 64
2, 66736, Note_on_c, 0, 78, 64
2, 66740, Note_on_c, 0, 79, 0
2, 66756, Note_on_c, 0, 78, 0
2, 66760, Note_on_c, 0, 76, 64
2, 66780, Note_on_c, 0, 76, 0
2, 66780, Note_on_c, 0, 61, 0
2, 66780, Note_on_c, 0, 78, 64
2, 66780, Note_on_c, 0, 63, 64
2, 66840, Note_on_c, 0, 63, 0
2, 66840, Note_on_c, 0, 78, 0
2, 66840, Note_on_c, 0, 79, 64
2, 66840, Note_on_c, 0, 64, 64
2, 66900, Note_on_c, 0, 64, 0
2, 66900, Note_on_c, 0, 57, 64
2, 66960, Note_on_c, 0, 57, 0
2, 66960, Note_on_c, 0, 62, 64
2, 67020, Note_on_c, 0, 62, 0
2, 67020, Note_on_c, 0, 79, 0
2, 67020, Note_on_c, 0, 78, 64
2, 67020, Note_on_c, 0, 55, 64
2, 67080, Note_on_c, 0, 55, 0
2, 67080, Note_on_c, 0, 78, 0
2, 67080, Note_on_c, 0, 76, 64
2, 67080, Note_on_c, 0, 57, 64
2, 67140, Note_on_c, 0, 57, 0
2, 67140, Note_on_c, 0, 76, 0
2, 67140, Note_on_c, 0, 75, 64
2, 67140, Note_on_c, 0, 59, 64
2, 67200, Note_on_c, 0, 59, 0
2, 67200, Note_on_c, 0, 75, 0
2, 67200, Note_on_c, 0, 76, 64
2, 67200, Note_on_c, 0, 60, 64
2, 67260, Note_on_c, 0, 60, 0
2, 67260, Note_on_c, 0, 54, 64
2, 67320, Note_on_c, 0, 54, 0
2, 67320, Note_on_c, 0, 59, 64
2, 67380, Note_on_c, 0, 59, 0
2, 67380, Note_on_c, 0, 76, 0
2, 67380, Note_on_c, 0, 74, 64
2, 67380, Note_on_c, 0, 52, 64
2, 67440, Note_on_c, 0, 52, 0
2, 67440, Note_on_c, 0, 74, 0
2, 67440, Note_on_c, 0, 72, 64
2, 67440, Note_on_c, 0, 54, 64
2, 67500, Note_on_c, 0, 54, 0
2, 67500, Note_on_c, 0, 72, 0
2, 67500, Note_on_c, 0, 71, 64
2, 67500, Note_on_c, 0, 55, 64
2, 67560, Note_on_c, 0, 55, 0
2, 67560, Note_on_c, 0, 71, 0
2, 67560, Note_on_c, 0, 72, 64
2, 67560, Note_on_c, 0, 57, 64
2, 67620, Note_on_c, 0, 57, 0
2, 67620, Note_on_c, 0, 72, 0
2, 67620, Note_on_c, 0, 81, 64
2, 67620, Note_on_c, 0, 50, 64
2, 67680, Note_on_c, 0, 50, 0
2, 67680, Note_on_c, 0, 81, 0
2, 67680, Note_on_c, 0, 71, 64
2, 67680, Note_on_c, 0, 55, 64
2, 67740, Note_on_c, 0, 55, 0
2, 67740, Note_on_c, 0, 71, 0
2, 67740, Note_on_c, 0, 62, 64
2, 67740, Note_on_c, 0, 54, 64
2, 67800, Note_on_c, 0, 54, 0
2, 67800, Note_on_c, 0, 62, 0
2, 67800, Note_on_c, 0, 64, 64
2, 67800, Note_on_c, 0, 55, 64
2, 67860, Note_on_c, 0, 55, 0
2, 67860, Note_on_c, 0, 64, 0
2, 67860, Note_on_c, 0, 66, 64
2, 67860, Note_on_c, 0, 57, 64
2, 67920, Note_on_c, 0, 57, 0
2, 67920, Note_on_c, 0, 66, 0
2, 67920, Note_on_c, 0, 67, 64
2, 67920, Note_on_c, 0, 59, 64
2, 67980, Note_on_c, 0, 59, 0
2, 67980, Note_on_c, 0, 61, 64
2, 68040, Note_on_c, 0, 61, 0
2, 68040, Note_on_c, 0, 62, 64
2, 68100, Note_on_c, 0, 62, 0
2, 68100, Note_on_c, 0, 67, 0
2, 68100, Note_on_c, 0, 66, 64
2, 68100, Note_on_c, 0, 57, 64
2, 68160, Note_on_c, 0, 57, 0
2, 68160, Note_on_c, 0, 66, 0
2, 68160, Note_on_c, 0, 68, 64
2, 68160, Note_on_c, 0, 59, 64
2, 68220, Note_on_c, 0, 59, 0
2, 68220, Note_on_c, 0, 68, 0
2, 68220, Note_on_c, 0, 69, 64
2, 68220, Note_on_c, 0, 60, 64
2, 68280, Note_on_c, 0, 60, 0
2, 68280, Note_on_c, 0, 69, 0
2, 68280, Note_on_c, 0, 62, 64
2, 68280, Note_on_c, 0, 71, 64
2, 68340, Note_on_c, 0, 71, 0
2, 68340, Note_on_c, 0, 68, 64
2, 68400, Note_on_c, 0, 68, 0
2, 68400, Note_on_c, 0, 69, 64
2, 68460, Note_on_c, 0, 69, 0
2, 68460, Note_on_c, 0, 62, 0
2, 68460, Note_on_c, 0, 64, 64
2, 68460, Note_on_c, 0, 61, 64
2, 68520, Note_on_c, 0, 61, 0
2, 68520, Note_on_c, 0, 64, 0
2, 68520, Note_on_c, 0, 66, 64
2, 68520, Note_on_c, 0, 63, 64
2, 68580, Note_on_c, 0, 63, 0
2, 68580, Note_on_c, 0, 66, 0
2, 68580, Note_on_c, 0, 67, 64
2, 68580, Note_on_c, 0, 64, 64
2, 68640, Note_on_c, 0, 64, 0
2, 68640, Note_on_c, 0, 67, 0
2, 68640, Note_on_c, 0, 69, 64
2, 68640, Note_on_c, 0, 66, 64
2, 68700, Note_on_c, 0, 66, 0
2, 68700, Note_on_c, 0, 63, 64
2, 68760, Note_on_c, 0, 63, 0
2, 68760, Note_on_c, 0, 64, 64
2, 68820, Note_on_c, 0, 64, 0
2, 68820, Note_on_c, 0, 69, 0
2, 68820, Note_on_c, 0, 67, 64
2, 68820, Note_on_c, 0, 52, 64
2, 68880, Note_on_c, 0, 52, 0
2, 68880, Note_on_c, 0, 67, 0
2, 68880, Note_on_c, 0, 69, 64
2, 68880, Note_on_c, 0, 54, 64
2, 68940, Note_on_c, 0, 54, 0
2, 68940, Note_on_c, 0, 69, 0
2, 68940, Note_on_c, 0, 71, 64
2, 68940, Note_on_c, 0, 55, 64
2, 69000, Note_on_c, 0, 55, 0
2, 69000, Note_on_c, 0, 71, 0
2, 69000, Note_on_c, 0, 72, 64
2, 69000, Note_on_c, 0, 57, 64
2, 69060, Note_on_c, 0, 57, 0
2, 69060, Note_on_c, 0, 72, 0
2, 69060, Note_on_c, 0, 69, 64
2, 69060, Note_on_c, 0, 54, 64
2, 69120, Note_on_c, 0, 54, 0
2, 69120, Note_on_c, 0, 69, 0
2, 69120, Note_on_c, 0, 71, 64
2, 69120, Note_on_c, 0, 55, 64
2, 69180, Note_on_c, 0, 71, 0
2, 69180, Note_on_c, 0, 75, 64
2, 69240, Note_on_c, 0, 75, 0
2, 69240, Note_on_c, 0, 55, 0
2, 69240, Note_on_c, 0, 76, 64
2, 69240, Note_on_c, 0, 54, 64
2, 69300, Note_on_c, 0, 76, 0
2, 69300, Note_on_c, 0, 78, 64
2, 69360, Note_on_c, 0, 78, 0
2, 69360, Note_on_c, 0, 54, 0
2, 69360, Note_on_c, 0, 52, 64
2, 69360, Note_on_c, 0, 79, 64
2, 69420, Note_on_c, 0, 79, 0
2, 69420, Note_on_c, 0, 76, 64
2, 69480, Note_on_c, 0, 76, 0
2, 69480, Note_on_c, 0, 52, 0
2, 69480, Note_on_c, 0, 61, 72
2, 69480, Note_on_c, 0, 78, 64
2, 69500, Note_on_c, 0, 61, 0
2, 69500, Note_on_c, 0, 59, 48
2, 69520, Note_on_c, 0, 61, 48
2, 69522, Note_on_c, 0, 59, 0
2, 69540, Note_on_c, 0, 78, 0
2, 69540, Note_on_c, 0, 59, 48
2, 69540, Note_on_c, 0, 76, 64
2, 69542, Note_on_c, 0, 61, 0
2, 69560, Note_on_c, 0, 61, 49
2, 69562, Note_on_c, 0, 59, 0
2, 69580, Note_on_c, 0, 59, 49
2, 69582, Note_on_c, 0, 61, 0
2, 69600, Note_on_c, 0, 76, 0
2, 69600, Note_on_c, 0, 61, 49
2, 69600, Note_on_c, 0, 75, 64
2, 69602, Note_on_c, 0, 59, 0
2, 69620, Note_on_c, 0, 59, 50
2, 69622, Note_on_c, 0, 61, 0
2, 69640, Note_on_c, 0, 61, 50
2, 69642, Note_on_c, 0, 59, 0
2, 69660, Note_on_c, 0, 75, 0
2, 69660, Note_on_c, 0, 59, 50
2, 69660, Note_on_c, 0, 73, 64
2, 69662, Note_on_c, 0, 61, 0
2, 69680, Note_on_c, 0, 61, 51
2, 69682, Note_on_c, 0, 59, 0
2, 69700, Note_on_c, 0, 59, 51
2, 69702, Note_on_c, 0, 61, 0
2, 69720, Note_on_c, 0, 73, 0
2, 69720, Note_on_c, 0, 61, 51
2, 69720, Note_on_c, 0, 71, 64
2, 69722, Note_on_c, 0, 59, 0
2, 69740, Note_on_c, 0, 59, 51
2, 69742, Note_on_c, 0, 61, 0
2, 69760, Note_on_c, 0, 61, 52
2, 69762, Note_on_c, 0, 59, 0
2, 69780, Note_on_c, 0, 71, 0
2, 69780, Note_on_c, 0, 59, 52
2, 69780, Note_on_c, 0, 69, 64
2, 69782, Note_on_c, 0, 61, 0
2, 69800, Note_on_c, 0, 61, 52
2, 69802, Note_on_c, 0, 59, 0
2, 69820, Note_on_c, 0, 59, 53
2, 69822, Note_on_c, 0, 61, 0
2, 69840, Note_on_c, 0, 69, 0
2, 69840, Note_on_c, 0, 61, 53
2, 69840, Note_on_c, 0, 67, 64
2, 69842, Note_on_c, 0, 59, 0
2, 69860, Note_on_c, 0, 59, 53
2, 69862, Note_on_c, 0, 61, 0
2, 69880, Note_on_c, 0, 61, 54
2, 69882, Note_on_c, 0, 59, 0
2, 69900, Note_on_c, 0, 67, 0
2, 69900, Note_on_c, 0, 59, 54
2, 69900, Note_on_c, 0, 71, 64
2, 69902, Note_on_c, 0, 61, 0
2, 69920, Note_on_c, 0, 61, 54
2, 69922, Note_on_c, 0, 59, 0
2, 69940, Note_on_c, 0, 59, 55
2, 69942, Note_on_c, 0, 61, 0
2, 69960, Note_on_c, 0, 71, 0
2, 69960, Note_on_c, 0, 61, 55
2, 69960, Note_on_c, 0, 73, 64
2, 69962, Note_on_c, 0, 59, 0
2, 69980, Note_on_c, 0, 59, 55
2, 69982, Note_on_c, 0, 61, 0
2, 70000, Note_on_c, 0, 61, 56
2, 70002, Note_on_c, 0, 59, 0
2, 70020, Note_on_c, 0, 73, 0
2, 70020, Note_on_c, 0, 59, 56
2, 70020, Note_on_c, 0, 75, 64
2, 70022, Note_on_c, 0, 61, 0
2, 70040, Note_on_c, 0, 61, 56
2, 70042, Note_on_c, 0, 59, 0
2, 70060, Note_on_c, 0, 59, 56
2, 70062, Note_on_c, 0, 61, 0
2, 70080, Note_on_c, 0, 75, 0
2, 70080, Note_on_c, 0, 61, 57
2, 70080, Note_on_c, 0, 76, 64
2, 70082, Note_on_c, 0, 59, 0
2, 70100, Note_on_c, 0, 59, 57
2, 70102, Note_on_c, 0, 61, 0
2, 70120, Note_on_c, 0, 61, 57
2, 70122, Note_on_c, 0, 59, 0
2, 70140, Note_on_c, 0, 76, 0
2, 70140, Note_on_c, 0, 59, 58
2, 70140, Note_on_c, 0, 73, 64
2, 70142, Note_on_c, 0, 61, 0
2, 70160, Note_on_c, 0, 61, 58
2, 70162, Note_on_c, 0, 59, 0
2, 70180, Note_on_c, 0, 59, 58
2, 70182, Note_on_c, 0, 61, 0
2, 70200, Note_on_c, 0, 73, 0
2, 70200, Note_on_c, 0, 61, 59
2, 70200, Note_on_c, 0, 75, 64
2, 70202, Note_on_c, 0, 59, 0
2, 70220, Note_on_c, 0, 59, 59
2, 70222, Note_on_c, 0, 61, 0
2, 70240, Note_on_c, 0, 61, 59
2, 70242, Note_on_c, 0, 59, 0
2, 70260, Note_on_c, 0, 75, 0
2, 70260, Note_on_c, 0, 59, 60
2, 70260, Note_on_c, 0, 73, 64
2, 70262, Note_on_c, 0, 61, 0
2, 70280, Note_on_c, 0, 61, 60
2, 70282, Note_on_c, 0, 59, 0
2, 70300, Note_on_c, 0, 59, 60
2, 70302, Note_on_c, 0, 61, 0
2, 70320, Note_on_c, 0, 73, 0
2, 70320, Note_on_c, 0, 61, 61
2, 70320, Note_on_c, 0, 71, 64
2, 70322, Note_on_c, 0, 59, 0
2, 70340, Note_on_c, 0, 59, 61
2, 70342, Note_on_c, 0, 61, 0
2, 70360, Note_on_c, 0, 61, 61
2, 70362, Note_on_c, 0, 59, 0
2, 70380, Note_on_c, 0, 71, 0
2, 70380, Note_on_c, 0, 59, 61
2, 70380, Note_on_c, 0, 69, 64
2, 70382, Note_on_c, 0, 61, 0
2, 70400, Note_on_c, 0, 61, 62
2, 70402, Note_on_c, 0, 59, 0
2, 70420, Note_on_c, 0, 59, 62
2, 70422, Note_on_c, 0, 61, 0
2, 70440, Note_on_c, 0, 69, 0
2, 70440, Note_on_c, 0, 61, 62
2, 70440, Note_on_c, 0, 67, 64
2, 70442, Note_on_c, 0, 59, 0
2, 70460, Note_on_c, 0, 59, 63
2, 70462, Note_on_c, 0, 61, 0
2, 70480, Note_on_c, 0, 61, 63
2, 70482, Note_on_c, 0, 59, 0
2, 70500, Note_on_c, 0, 67, 0
2, 70500, Note_on_c, 0, 59, 63
2, 70500, Note_on_c, 0, 66, 64
2, 70502, Note_on_c, 0, 61, 0
2, 70550, Note_on_c, 0, 66, 0
2, 70560, Note_on_c, 0, 66, 72
2, 70566, Note_on_c, 0, 59, 0
2, 70580, Note_on_c, 0, 66, 0
2, 70580, Note_on_c, 0, 64, 48
2, 70600, Note_on_c, 0, 66, 48
2, 70602, Note_on_c, 0, 64, 0
2, 70620, Note_on_c, 0, 64, 48
2, 70620, Note_on_c, 0, 56, 64
2, 70622, Note_on_c, 0, 66, 0
2, 70640, Note_on_c, 0, 66, 48
2, 70642, Note_on_c, 0, 64, 0
2, 70660, Note_on_c, 0, 64, 49
2, 70662, Note_on_c, 0, 66, 0
2, 70680, Note_on_c, 0, 56, 0
2, 70680, Note_on_c, 0, 66, 49
2, 70680, Note_on_c, 0, 57, 64
2, 70682, Note_on_c, 0, 64, 0
2, 70700, Note_on_c, 0, 64, 49
2, 70702, Note_on_c, 0, 66, 0
2, 70720, Note_on_c, 0, 66, 50
2, 70722, Note_on_c, 0, 64, 0
2, 70740, Note_on_c, 0, 57, 0
2, 70740, Note_on_c, 0, 64, 50
2, 70740, Note_on_c, 0, 59, 64
2, 70742, Note_on_c, 0, 66, 0
2, 70760, Note_on_c, 0, 66, 50
2, 70762, Note_on_c, 0, 64, 0
2, 70780, Note_on_c, 0, 64, 51
2, 70782, Note_on_c, 0, 66, 0
2, 70800, Note_on_c, 0, 59, 0
2, 70800, Note_on_c, 0, 66, 51
2, 70800, Note_on_c, 0, 60, 64
2, 70802, Note_on_c, 0, 64, 0
2, 70820, Note_on_c, 0, 64, 51
2, 70822, Note_on_c, 0, 66, 0
2, 70840, Note_on_c, 0, 66, 51
2, 70842, Note_on_c, 0, 64, 0
2, 70860, Note_on_c, 0, 60, 0
2, 70860, Note_on_c, 0, 64, 52
2, 70860, Note_on_c, 0, 57, 64
2, 70862, Note_on_c, 0, 66, 0
2, 70880, Note_on_c, 0, 66, 52
2, 70882, Note_on_c, 0, 64, 0
2, 70900, Note_on_c, 0, 64, 52
2, 70902, Note_on_c, 0, 66, 0
2, 70920, Note_on_c, 0, 57, 0
2, 70920, Note_on_c, 0, 66, 53
2, 70920, Note_on_c, 0, 59, 64
2, 70922, Note_on_c, 0, 64, 0
2, 70940, Note_on_c, 0, 64, 53
2, 70942, Note_on_c, 0, 66, 0
2, 70960, Note_on_c, 0, 66, 53
2, 70962, Note_on_c, 0, 64, 0
2, 70980, Note_on_c, 0, 59, 0
2, 70980, Note_on_c, 0, 64, 53
2, 70980, Note_on_c, 0, 57, 64
2, 70982, Note_on_c, 0, 66, 0
2, 71000, Note_on_c, 0, 66, 54
2, 71002, Note_on_c, 0, 64, 0
2, 71020, Note_on_c, 0, 64, 54
2, 71022, Note_on_c, 0, 66, 0
2, 71040, Note_on_c, 0, 57, 0
2, 71040, Note_on_c, 0, 66, 54
2, 71040, Note_on_c, 0, 56, 64
2, 71042, Note_on_c, 0, 64, 0
2, 71060, Note_on_c, 0, 64, 55
2, 71062, Note_on_c, 0, 66, 0
2, 71080, Note_on_c, 0, 66, 55
2, 71082, Note_on_c, 0, 64, 0
2, 71100, Note_on_c, 0, 56, 0
2, 71100, Note_on_c, 0, 64, 55
2, 71100, Note_on_c, 0, 54, 64
2, 71102, Note_on_c, 0, 66, 0
2, 71120, Note_on_c, 0, 66, 55
2, 71122, Note_on_c, 0, 64, 0
2, 71140, Note_on_c, 0, 64, 56
2, 71142, Note_on_c, 0, 66, 0
2, 71160, Note_on_c, 0, 54, 0
2, 71160, Note_on_c, 0, 66, 56
2, 71160, Note_on_c, 0, 52, 64
2, 71162, Note_on_c, 0, 64, 0
2, 71180, Note_on_c, 0, 64, 56
2, 71182, Note_on_c, 0, 66, 0
2, 71200, Note_on_c, 0, 66, 57
2, 71202, Note_on_c, 0, 64, 0
2, 71220, Note_on_c, 0, 52, 0
2, 71220, Note_on_c, 0, 64, 57
2, 71220, Note_on_c, 0, 50, 64
2, 71222, Note_on_c, 0, 66, 0
2, 71240, Note_on_c, 0, 66, 57
2, 71242, Note_on_c, 0, 64, 0
2, 71260, Note_on_c, 0, 64, 57
2, 71262, Note_on_c, 0, 66, 0
2, 71280, Note_on_c, 0, 50, 0
2, 71280, Note_on_c, 0, 66, 58
2, 71280, Note_on_c, 0, 48, 64
2, 71282, Note_on_c, 0, 64, 0
2, 71300, Note_on_c, 0, 64, 58
2, 71302, Note_on_c, 0, 66, 0
2, 71320, Note_on_c, 0, 66, 58
2, 71322, Note_on_c, 0, 64, 0
2, 71340, Note_on_c, 0, 48, 0
2, 71340, Note_on_c, 0, 64, 59
2, 71340, Note_on_c, 0, 52, 64
2, 71342, Note_on_c, 0, 66, 0
2, 71360, Note_on_c, 0, 66, 59
2, 71362, Note_on_c, 0, 64, 0
2, 71380, Note_on_c, 0, 64, 59
2, 71382, Note_on_c, 0, 66, 0
2, 71400, Note_on_c, 0, 52, 0
2, 71400, Note_on_c, 0, 66, 60
2, 71400, Note_on_c, 0, 54, 64
2, 71402, Note_on_c, 0, 64, 0
2, 71420, Note_on_c, 0, 64, 60
2, 71422, Note_on_c, 0, 66, 0
2, 71440, Note_on_c, 0, 66, 60
2, 71442, Note_on_c, 0, 64, 0
2, 71460, Note_on_c, 0, 54, 0
2, 71460, Note_on_c, 0, 64, 60
2, 71460, Note_on_c, 0, 56, 64
2, 71462, Note_on_c, 0, 66, 0
2, 71480, Note_on_c, 0, 66, 61
2, 71482, Note_on_c, 0, 64, 0
2, 71500, Note_on_c, 0, 64, 61
2, 71502, Note_on_c, 0, 66, 0
2, 71520, Note_on_c, 0, 56, 0
2, 71520, Note_on_c, 0, 66, 61
2, 71520, Note_on_c, 0, 57, 64
2, 71522, Note_on_c, 0, 64, 0
2, 71540, Note_on_c, 0, 64, 62
2, 71542, Note_on_c, 0, 66, 0
2, 71560, Note_on_c, 0, 66, 62
2, 71562, Note_on_c, 0, 64, 0
2, 71580, Note_on_c, 0, 57, 0
2, 71580, Note_on_c, 0, 64, 62
2, 71580, Note_on_c, 0, 54, 64
2, 71582, Note_on_c, 0, 66, 0
2, 71600, Note_on_c, 0, 66, 62
2, 71602, Note_on_c, 0, 64, 0
2, 71620, Note_on_c, 0, 64, 63
2, 71622, Note_on_c, 0, 66, 0
2, 71640, Note_on_c, 0, 54, 0
2, 71640, Note_on_c, 0, 66, 63
2, 71640, Note_on_c, 0, 56, 64
2, 71642, Note_on_c, 0, 64, 0
2, 71660, Note_on_c, 0, 64, 63
2, 71662, Note_on_c, 0, 66, 0
2, 71700, Note_on_c, 0, 56, 0
2, 71700, Note_on_c, 0, 54, 64
2, 71760, Note_on_c, 0, 54, 0
2, 71760, Note_on_c, 0, 74, 64
2, 71760, Note_on_c, 0, 52, 64
2, 71770, Note_on_c, 0, 64, 0
2, 71780, Note_on_c, 0, 74, 0
2, 71780, Note_on_c, 0, 72, 64
2, 71800, Note_on_c, 0, 72, 0
2, 71800, Note_on_c, 0, 74, 64
2, 71820, Note_on_c, 0, 52, 0
2, 71820, Note_on_c, 0, 50, 64
2, 71880, Note_on_c, 0, 50, 0
2, 71880, Note_on_c, 0, 48, 64
2, 71940, Note_on_c, 0, 48, 0
2, 71940, Note_on_c, 0, 47, 64
2, 72000, Note_on_c, 0, 47, 0
2, 72000, Note_on_c, 0, 45, 64
2, 72060, Note_on_c, 0, 74, 0
2, 72060, Note_on_c, 0, 76, 64
2, 72120, Note_on_c, 0, 76, 0
2, 72120, Note_on_c, 0, 45, 0
2, 72120, Note_on_c, 0, 74, 64
2, 72120, Note_on_c, 0, 52, 64
2, 72180, Note_on_c, 0, 74, 0
2, 72180, Note_on_c, 0, 72, 64
2, 72240, Note_on_c, 0, 72, 0
2, 72240, Note_on_c, 0, 52, 0
2, 72240, Note_on_c, 0, 56, 64
2, 72240, Note_on_c, 0, 71, 64
2, 72300, Note_on_c, 0, 71, 0
2, 72300, Note_on_c, 0, 74, 64
2, 72360, Note_on_c, 0, 74, 0
2, 72360, Note_on_c, 0, 56, 0
2, 72360, Note_on_c, 0, 72, 64
2, 72360, Note_on_c, 0, 57, 64
2, 72420, Note_on_c, 0, 57, 0
2, 72420, Note_on_c, 0, 59, 64
2, 72480, Note_on_c, 0, 59, 0
2, 72480, Note_on_c, 0, 72, 0
2, 72480, Note_on_c, 0, 76, 64
2, 72480, Note_on_c, 0, 57, 64
2, 72540, Note_on_c, 0, 57, 0
2, 72540, Note_on_c, 0, 55, 64
2, 72600, Note_on_c, 0, 55, 0
2, 72600, Note_on_c, 0, 76, 0
2, 72600, Note_on_c, 0, 81, 64
2, 72600, Note_on_c, 0, 54, 64
2, 72660, Note_on_c, 0, 54, 0
2, 72660, Note_on_c, 0, 57, 64
2, 72720, Note_on_c, 0, 57, 0
2, 72720, Note_on_c, 0, 51, 64
2, 72780, Note_on_c, 0, 81, 0
2, 72780, Note_on_c, 0, 83, 64
2, 72840, Note_on_c, 0, 83, 0
2, 72840, Note_on_c, 0, 51, 0
2, 72840, Note_on_c, 0, 60, 64
2, 72840, Note_on_c, 0, 81, 64
2, 72860, Note_on_c, 0, 60, 0
2, 72860, Note_on_c, 0, 59, 64
2, 72880, Note_on_c, 0, 59, 0
2, 72880, Note_on_c, 0, 60, 64
2, 72900, Note_on_c, 0, 81, 0
2, 72900, Note_on_c, 0, 79, 64
2, 72960, Note_on_c, 0, 79, 0
2, 72960, Note_on_c, 0, 78, 64
2, 73020, Note_on_c, 0, 78, 0
2, 73020, Note_on_c, 0, 81, 64
2, 73080, Note_on_c, 0, 81, 0
2, 73080, Note_on_c, 0, 75, 64
2, 73140, Note_on_c, 0, 60, 0
2, 73140, Note_on_c, 0, 57, 64
2, 73200, Note_on_c, 0, 57, 0
2, 73200, Note_on_c, 0, 75, 0
2, 73200, Note_on_c, 0, 84, 64
2, 73200, Note_on_c, 0, 54, 64
2, 73220, Note_on_c, 0, 84, 0
2, 73220, Note_on_c, 0, 83, 64
2, 73240, Note_on_c, 0, 83, 0
2, 73240, Note_on_c, 0, 84, 64
2, 73260, Note_on_c, 0, 54, 0
2, 73260, Note_on_c, 0, 57, 64
2, 73320, Note_on_c, 0, 57, 0
2, 73320, Note_on_c, 0, 51, 64
2, 73380, Note_on_c, 0, 51, 0
2, 73380, Note_on_c, 0, 54, 64
2, 73440, Note_on_c, 0, 54, 0
2, 73440, Note_on_c, 0, 47, 64
2, 73500, Note_on_c, 0, 84, 0
2, 73500, Note_on_c, 0, 83, 64
2, 73560, Note_on_c, 0, 83, 0
2, 73560, Note_on_c, 0, 47, 0
2, 73560, Note_on_c, 0, 64, 64
2, 73560, Note_on_c, 0, 81, 64
2, 73580, Note_on_c, 0, 64, 0
2, 73580, Note_on_c, 0, 63, 64
2, 73600, Note_on_c, 0, 63, 0
2, 73600, Note_on_c, 0, 64, 64
2, 73620, Note_on_c, 0, 64, 0
2, 73620, Note_on_c, 0, 81, 0
2, 73620, Note_on_c, 0, 63, 64
2, 73620, Note_on_c, 0, 79, 64
2, 73640, Note_on_c, 0, 63, 0
2, 73640, Note_on_c, 0, 64, 64
2, 73660, Note_on_c, 0, 64, 0
2, 73660, Note_on_c, 0, 63, 64
2, 73680, Note_on_c, 0, 79, 0
2, 73680, Note_on_c, 0, 78, 64
2, 73740, Note_on_c, 0, 78, 0
2, 73740, Note_on_c, 0, 63, 0
2, 73740, Note_on_c, 0, 81, 64
2, 73740, Note_on_c, 0, 61, 64
2, 73770, Note_on_c, 0, 61, 0
2, 73770, Note_on_c, 0, 63, 64
2, 73800, Note_on_c, 0, 63, 0
2, 73800, Note_on_c, 0, 81, 0
2, 73800, Note_on_c, 0, 79, 64
2, 73800, Note_on_c, 0, 64, 64
2, 73860, Note_on_c, 0, 64, 0
2, 73860, Note_on_c, 0, 63, 64
2, 73920, Note_on_c, 0, 63, 0
2, 73920, Note_on_c, 0, 64, 64
2, 73980, Note_on_c, 0, 64, 0
2, 73980, Note_on_c, 0, 66, 64
2, 74040, Note_on_c, 0, 66, 0
2, 74040, Note_on_c, 0, 67, 64
2, 74100, Note_on_c, 0, 67, 0
2, 74100, Note_on_c, 0, 64, 64
2, 74160, Note_on_c, 0, 64, 0
2, 74160, Note_on_c, 0, 58, 64
2, 74220, Note_on_c, 0, 58, 0
2, 74220, Note_on_c, 0, 79, 0
2, 74220, Note_on_c, 0, 78, 64
2, 74220, Note_on_c, 0, 59, 64
2, 74280, Note_on_c, 0, 59, 0
2, 74280, Note_on_c, 0, 78, 0
2, 74280, Note_on_c, 0, 76, 64
2, 74280, Note_on_c, 0, 61, 64
2, 74340, Note_on_c, 0, 61, 0
2, 74340, Note_on_c, 0, 76, 0
2, 74340, Note_on_c, 0, 74, 64
2, 74340, Note_on_c, 0, 62, 64
2, 74400, Note_on_c, 0, 62, 0
2, 74400, Note_on_c, 0, 74, 0
2, 74400, Note_on_c, 0, 73, 64
2, 74400, Note_on_c, 0, 64, 64
2, 74460, Note_on_c, 0, 64, 0
2, 74460, Note_on_c, 0, 73, 0
2, 74460, Note_on_c, 0, 76, 64
2, 74460, Note_on_c, 0, 61, 64
2, 74520, Note_on_c, 0, 61, 0
2, 74520, Note_on_c, 0, 76, 0
2, 74520, Note_on_c, 0, 70, 64
2, 74520, Note_on_c, 0, 54, 64
2, 74580, Note_on_c, 0, 70, 0
2, 74580, Note_on_c, 0, 79, 64
2, 74640, Note_on_c, 0, 79, 0
2, 74640, Note_on_c, 0, 54, 0
2, 74640, Note_on_c, 0, 78, 64
2, 74640, Note_on_c, 0, 58, 64
2, 74700, Note_on_c, 0, 78, 0
2, 74700, Note_on_c, 0, 76, 64
2, 74760, Note_on_c, 0, 76, 0
2, 74760, Note_on_c, 0, 58, 0
2, 74760, Note_on_c, 0, 59, 64
2, 74760, Note_on_c, 0, 75, 64
2, 74820, Note_on_c, 0, 75, 0
2, 74820, Note_on_c, 0, 78, 64
2, 74880, Note_on_c, 0, 78, 0
2, 74880, Note_on_c, 0, 59, 0
2, 74880, Note_on_c, 0, 69, 64
2, 74880, Note_on_c, 0, 60, 64
2, 74940, Note_on_c, 0, 69, 0
2, 74940, Note_on_c, 0, 72, 64
2, 75000, Note_on_c, 0, 72, 0
2, 75000, Note_on_c, 0, 60, 0
2, 75000, Note_on_c, 0, 71, 64
2, 75000, Note_on_c, 0, 51, 64
2, 75060, Note_on_c, 0, 71, 0
2, 75060, Note_on_c, 0, 69, 64
2, 75120, Note_on_c, 0, 69, 0
2, 75120, Note_on_c, 0, 51, 0
2, 75120, Note_on_c, 0, 52, 64
2, 75120, Note_on_c, 0, 67, 64
2, 75180, Note_on_c, 0, 67, 0
2, 75180, Note_on_c, 0, 71, 64
2, 75240, Note_on_c, 0, 71, 0
2, 75240, Note_on_c, 0, 52, 0
2, 75240, Note_on_c, 0, 64, 64
2, 75240, Note_on_c, 0, 48, 64
2, 75360, Note_on_c, 0, 48, 0
2, 75360, Note_on_c, 0, 64, 0
2, 75360, Note_on_c, 0, 66, 64
2, 75360, Note_on_c, 0, 45, 64
2, 75380, Note_on_c, 0, 66, 0
2, 75380, Note_on_c, 0, 64, 64
2, 75400, Note_on_c, 0, 64, 0
2, 75400, Note_on_c, 0, 66, 64
2, 75480, Note_on_c, 0, 66, 0
2, 75480, Note_on_c, 0, 45, 0
2, 75480, Note_on_c, 0, 64, 64
2, 75480, Note_on_c, 0, 47, 64
2, 75500, Note_on_c, 0, 64, 0
2, 75500, Note_on_c, 0, 63, 64
2, 75520, Note_on_c, 0, 63, 0
2, 75520, Note_on_c, 0, 61, 64
2, 75540, Note_on_c, 0, 61, 0
2, 75540, Note_on_c, 0, 63, 64
2, 75600, Note_on_c, 0, 63, 0
2, 75600, Note_on_c, 0, 47, 0
2, 75600, Note_on_c, 0, 64, 64
2, 75600, Note_on_c, 0, 36, 64
2, 75660, Note_on_c, 0, 36, 0
2, 75660, Note_on_c, 0, 64, 0
2, 75660, Note_on_c, 0, 68, 64
2, 75660, Note_on_c, 0, 40, 64
2, 75720, Note_on_c, 0, 40, 0
2, 75720, Note_on_c, 0, 68, 0
2, 75720, Note_on_c, 0, 69, 64
2, 75720, Note_on_c, 0, 42, 64
2, 75780, Note_on_c, 0, 42, 0
2, 75780, Note_on_c, 0, 69, 0
2, 75780, Note_on_c, 0, 71, 64
2, 75780, Note_on_c, 0, 44, 64
2, 75840, Note_on_c, 0, 44, 0
2, 75840, Note_on_c, 0, 71, 0
2, 75840, Note_on_c, 0, 72, 64
2, 75840, Note_on_c, 0, 45, 64
2, 75900, Note_on_c, 0, 45, 0
2, 75900, Note_on_c, 0, 72, 0
2, 75900, Note_on_c, 0, 42, 64
2, 75900, Note_on_c, 0, 69, 64
2, 75960, Note_on_c, 0, 69, 0
2, 75960, Note_on_c, 0, 42, 0
2, 75960, Note_on_c, 0, 44, 64
2, 75960, Note_on_c, 0, 71, 64
2, 76020, Note_on_c, 0, 71, 0
2, 76020, Note_on_c, 0, 44, 0
2, 76020, Note_on_c, 0, 47, 64
2, 76020, Note_on_c, 0, 69, 64
2, 76080, Note_on_c, 0, 69, 0
2, 76080, Note_on_c, 0, 47, 0
2, 76080, Note_on_c, 0, 48, 64
2, 76080, Note_on_c, 0, 68, 64
2, 76140, Note_on_c, 0, 68, 0
2, 76140, Note_on_c, 0, 48, 0
2, 76140, Note_on_c, 0, 50, 64
2, 76140, Note_on_c, 0, 66, 64
2, 76200, Note_on_c, 0, 66, 0
2, 76200, Note_on_c, 0, 50, 0
2, 76200, Note_on_c, 0, 52, 64
2, 76200, Note_on_c, 0, 64, 64
2, 76260, Note_on_c, 0, 64, 0
2, 76260, Note_on_c, 0, 52, 0
2, 76260, Note_on_c, 0, 54, 64
2, 76260, Note_on_c, 0, 74, 64
2, 76320, Note_on_c, 0, 74, 0
2, 76320, Note_on_c, 0, 54, 0
2, 76320, Note_on_c, 0, 73, 64
2, 76320, Note_on_c, 0, 55, 64
2, 76380, Note_on_c, 0, 73, 0
2, 76380, Note_on_c, 0, 75, 64
2, 76440, Note_on_c, 0, 75, 0
2, 76440, Note_on_c, 0, 55, 0
2, 76440, Note_on_c, 0, 76, 64
2, 76440, Note_on_c, 0, 54, 64
2, 76500, Note_on_c, 0, 76, 0
2, 76500, Note_on_c, 0, 78, 64
2, 76560, Note_on_c, 0, 78, 0
2, 76560, Note_on_c, 0, 54, 0
2, 76560, Note_on_c, 0, 52, 64
2, 76560, Note_on_c, 0, 79, 64
2, 76620, Note_on_c, 0, 79, 0
2, 76620, Note_on_c, 0, 76, 64
2, 76680, Note_on_c, 0, 76, 0
2, 76680, Note_on_c, 0, 52, 0
2, 76680, Note_on_c, 0, 78, 64
2, 76680, Note_on_c, 0, 51, 64
2, 76740, Note_on_c, 0, 78, 0
2, 76740, Note_on_c, 0, 76, 64
2, 76800, Note_on_c, 0, 76, 0
2, 76800, Note_on_c, 0, 51, 0
2, 76800, Note_on_c, 0, 75, 64
2, 76800, Note_on_c, 0, 47, 64
2, 76860, Note_on_c, 0, 75, 0
2, 76860, Note_on_c, 0, 73, 64
2, 76920, Note_on_c, 0, 73, 0
2, 76920, Note_on_c, 0, 47, 0
2, 76920, Note_on_c, 0, 51, 64
2, 76920, Note_on_c, 0, 71, 64
2, 76980, Note_on_c, 0, 71, 0
2, 76980, Note_on_c, 0, 69, 64
2, 77040, Note_on_c, 0, 69, 0
2, 77040, Note_on_c, 0, 51, 0
2, 77040, Note_on_c, 0, 67, 64
2, 77040, Note_on_c, 0, 52, 64
2, 77160, Note_on_c, 0, 52, 0
2, 77160, Note_on_c, 0, 67, 0
2, 77160, Note_on_c, 0, 69, 64
2, 77160, Note_on_c, 0, 45, 64
2, 77180, Note_on_c, 0, 69, 0
2, 77180, Note_on_c, 0, 67, 64
2, 77200, Note_on_c, 0, 67, 0
2, 77200, Note_on_c, 0, 69, 64
2, 77280, Note_on_c, 0, 69, 0
2, 77280, Note_on_c, 0, 45, 0
2, 77280, Note_on_c, 0, 67, 64
2, 77280, Note_on_c, 0, 47, 64
2, 77300, Note_on_c, 0, 67, 0
2, 77300, Note_on_c, 0, 66, 64
2, 77320, Note_on_c, 0, 66, 0
2, 77320, Note_on_c, 0, 64, 64
2, 77340, Note_on_c, 0, 64, 0
2, 77340, Note_on_c, 0, 66, 64
2, 77400, Note_on_c, 0, 66, 0
2, 77400, Note_on_c, 0, 47, 0
2, 77400, Note_on_c, 0, 40, 64
2, 77400, Note_on_c, 0, 64, 64
2, 77760, Note_on_c, 0, 64, 0
2, 77760, Note_on_c, 0, 40, 0
2, 77760, End_track
3, 0, Start_track
3, 0, MIDI_port, 0
3, 0, Title_t, "by Yo Tomita"
3, 0, Program_c, 0, 6
3, 0, Note_on_c, 0, 52, 64
3, 120, Note_on_c, 0, 52, 0
3, 120, Note_on_c, 0, 40, 64
3, 240, Note_on_c, 0, 40, 0
3, 780, Note_on_c, 0, 55, 64
3, 840, Note_on_c, 0, 55, 0
3, 840, Note_on_c, 0, 57, 64
3, 900, Note_on_c, 0, 57, 0
3, 900, Note_on_c, 0, 59, 64
3, 960, Note_on_c, 0, 59, 0
3, 960, Note_on_c, 0, 60, 64
3, 1020, Note_on_c, 0, 60, 0
3, 1020, Note_on_c, 0, 57, 64
3, 1080, Note_on_c, 0, 57, 0
3, 1080, Note_on_c, 0, 59, 64
3, 1140, Note_on_c, 0, 59, 0
3, 1140, Note_on_c, 0, 55, 64
3, 1200, Note_on_c, 0, 55, 0
3, 1200, Note_on_c, 0, 54, 64
3, 1260, Note_on_c, 0, 54, 0
3, 1260, Note_on_c, 0, 52, 64
3, 1320, Note_on_c, 0, 52, 0
3, 1320, Note_on_c, 0, 51, 64
3, 1380, Note_on_c, 0, 51, 0
3, 1380, Note_on_c, 0, 57, 64
3, 1440, Note_on_c, 0, 57, 0
3, 1440, Note_on_c, 0, 55, 64
3, 1500, Note_on_c, 0, 55, 0
3, 1500, Note_on_c, 0, 52, 64
3, 1560, Note_on_c, 0, 52, 0
3, 1560, Note_on_c, 0, 54, 64
3, 1620, Note_on_c, 0, 54, 0
3, 1620, Note_on_c, 0, 55, 64
3, 1680, Note_on_c, 0, 55, 0
3, 1680, Note_on_c, 0, 57, 64
3, 1740, Note_on_c, 0, 57, 0
3, 1740, Note_on_c, 0, 54, 64
3, 1800, Note_on_c, 0, 54, 0
3, 1800, Note_on_c, 0, 55, 64
3, 1889, Note_on_c, 0, 55, 0
3, 1920, Note_on_c, 0, 57, 64
3, 2009, Note_on_c, 0, 57, 0
3, 2040, Note_on_c, 0, 59, 64
3, 2129, Note_on_c, 0, 59, 0
3, 2160, Note_on_c, 0, 52, 64
3, 2249, Note_on_c, 0, 52, 0
3, 2280, Note_on_c, 0, 50, 64
3, 2369, Note_on_c, 0, 50, 0
3, 2400, Note_on_c, 0, 48, 64
3, 2489, Note_on_c, 0, 48, 0
3, 2520, Note_on_c, 0, 47, 64
3, 2609, Note_on_c, 0, 47, 0
3, 2640, Note_on_c, 0, 48, 64
3, 2729, Note_on_c, 0, 48, 0
3, 2760, Note_on_c, 0, 50, 64
3, 2849, Note_on_c, 0, 50, 0
3, 2880, Note_on_c, 0, 43, 64
3, 2969, Note_on_c, 0, 43, 0
3, 3000, Note_on_c, 0, 42, 64
3, 3089, Note_on_c, 0, 42, 0
3, 3120, Note_on_c, 0, 40, 64
3, 3209, Note_on_c, 0, 40, 0
3, 3240, Note_on_c, 0, 38, 64
3, 3329, Note_on_c, 0, 38, 0
3, 3360, Note_on_c, 0, 40, 64
3, 3449, Note_on_c, 0, 40, 0
3, 3480, Note_on_c, 0, 42, 64
3, 3569, Note_on_c, 0, 42, 0
3, 3600, Note_on_c, 0, 47, 64
3, 3660, Note_on_c, 0, 47, 0
3, 3660, Note_on_c, 0, 50, 64
3, 3720, Note_on_c, 0, 50, 0
3, 3720, Note_on_c, 0, 52, 64
3, 3780, Note_on_c, 0, 52, 0
3, 3780, Note_on_c, 0, 54, 64
3, 3840, Note_on_c, 0, 54, 0
3, 3840, Note_on_c, 0, 55, 64
3, 3900, Note_on_c, 0, 55, 0
3, 3900, Note_on_c, 0, 52, 64
3, 3960, Note_on_c, 0, 52, 0
3, 3960, Note_on_c, 0, 54, 64
3, 4020, Note_on_c, 0, 54, 0
3, 4020, Note_on_c, 0, 50, 64
3, 4080, Note_on_c, 0, 50, 0
3, 4080, Note_on_c, 0, 49, 64
3, 4140, Note_on_c, 0, 49, 0
3, 4140, Note_on_c, 0, 47, 64
3, 4200, Note_on_c, 0, 47, 0
3, 4200, Note_on_c, 0, 46, 64
3, 4260, Note_on_c, 0, 46, 0
3, 4260, Note_on_c, 0, 52, 64
3, 4320, Note_on_c, 0, 52, 0
3, 4320, Note_on_c, 0, 50, 64
3, 4380, Note_on_c, 0, 50, 0
3, 4380, Note_on_c, 0, 47, 64
3, 4440, Note_on_c, 0, 47, 0
3, 4440, Note_on_c, 0, 49, 64
3, 4500, Note_on_c, 0, 49, 0
3, 4500, Note_on_c, 0, 50, 64
3, 4560, Note_on_c, 0, 50, 0
3, 4560, Note_on_c, 0, 52, 64
3, 4620, Note_on_c, 0, 52, 0
3, 4620, Note_on_c, 0, 49, 64
3, 4680, Note_on_c, 0, 49, 0
3, 4680, Note_on_c, 0, 50, 64
3, 4769, Note_on_c, 0, 50, 0
3, 4800, Note_on_c, 0, 52, 64
3, 4889, Note_on_c, 0, 52, 0
3, 4920, Note_on_c, 0, 54, 64
3, 5009, Note_on_c, 0, 54, 0
3, 5040, Note_on_c, 0, 47, 64
3, 5129, Note_on_c, 0, 47, 0
3, 5160, Note_on_c, 0, 59, 64
3, 5249, Note_on_c, 0, 59, 0
3, 5280, Note_on_c, 0, 58, 64
3, 5369, Note_on_c, 0, 58, 0
3, 5400, Note_on_c, 0, 59, 64
3, 5489, Note_on_c, 0, 59, 0
3, 5520, Note_on_c, 0, 54, 64
3, 5609, Note_on_c, 0, 54, 0
3, 5640, Note_on_c, 0, 50, 64
3, 5729, Note_on_c, 0, 50, 0
3, 5760, Note_on_c, 0, 55, 64
3, 5820, Note_on_c, 0, 55, 0
3, 5820, Note_on_c, 0, 59, 64
3, 5880, Note_on_c, 0, 59, 0
3, 5880, Note_on_c, 0, 60, 64
3, 5940, Note_on_c, 0, 60, 0
3, 5940, Note_on_c, 0, 62, 64
3, 6000, Note_on_c, 0, 62, 0
3, 6000, Note_on_c, 0, 64, 64
3, 6060, Note_on_c, 0, 64, 0
3, 6060, Note_on_c, 0, 60, 64
3, 6120, Note_on_c, 0, 60, 0
3, 6180, Note_on_c, 0, 59, 64
3, 6240, Note_on_c, 0, 59, 0
3, 6240, Note_on_c, 0, 57, 64
3, 6300, Note_on_c, 0, 57, 0
3, 6300, Note_on_c, 0, 55, 64
3, 6360, Note_on_c, 0, 55, 0
3, 6360, Note_on_c, 0, 54, 64
3, 6420, Note_on_c, 0, 54, 0
3, 6420, Note_on_c, 0, 60, 64
3, 6480, Note_on_c, 0, 60, 0
3, 6480, Note_on_c, 0, 59, 64
3, 6540, Note_on_c, 0, 59, 0
3, 6540, Note_on_c, 0, 55, 64
3, 6600, Note_on_c, 0, 55, 0
3, 6600, Note_on_c, 0, 57, 64
3, 6660, Note_on_c, 0, 57, 0
3, 6660, Note_on_c, 0, 59, 64
3, 6720, Note_on_c, 0, 59, 0
3, 6720, Note_on_c, 0, 60, 64
3, 6780, Note_on_c, 0, 60, 0
3, 6780, Note_on_c, 0, 57, 64
3, 6840, Note_on_c, 0, 57, 0
3, 6840, Note_on_c, 0, 59, 64
3, 6900, Note_on_c, 0, 59, 0
3, 6900, Note_on_c, 0, 55, 64
3, 6960, Note_on_c, 0, 55, 0
3, 6960, Note_on_c, 0, 54, 64
3, 7020, Note_on_c, 0, 54, 0
3, 7020, Note_on_c, 0, 52, 64
3, 7080, Note_on_c, 0, 52, 0
3, 7080, Note_on_c, 0, 51, 64
3, 7140, Note_on_c, 0, 51, 0
3, 7140, Note_on_c, 0, 57, 64
3, 7200, Note_on_c, 0, 57, 0
3, 7200, Note_on_c, 0, 55, 64
3, 7260, Note_on_c, 0, 55, 0
3, 7260, Note_on_c, 0, 52, 64
3, 7320, Note_on_c, 0, 52, 0
3, 7320, Note_on_c, 0, 54, 64
3, 7380, Note_on_c, 0, 54, 0
3, 7380, Note_on_c, 0, 55, 64
3, 7440, Note_on_c, 0, 55, 0
3, 7440, Note_on_c, 0, 57, 64
3, 7500, Note_on_c, 0, 57, 0
3, 7500, Note_on_c, 0, 54, 64
3, 7560, Note_on_c, 0, 54, 0
3, 7560, Note_on_c, 0, 55, 64
3, 7620, Note_on_c, 0, 55, 0
3, 7620, Note_on_c, 0, 52, 64
3, 7680, Note_on_c, 0, 52, 0
3, 7680, Note_on_c, 0, 50, 64
3, 7740, Note_on_c, 0, 50, 0
3, 7740, Note_on_c, 0, 48, 64
3, 7800, Note_on_c, 0, 48, 0
3, 7800, Note_on_c, 0, 47, 64
3, 7860, Note_on_c, 0, 47, 0
3, 7860, Note_on_c, 0, 53, 64
3, 7920, Note_on_c, 0, 53, 0
3, 7920, Note_on_c, 0, 52, 64
3, 7980, Note_on_c, 0, 52, 0
3, 7980, Note_on_c, 0, 43, 64
3, 8040, Note_on_c, 0, 43, 0
3, 8040, Note_on_c, 0, 45, 64
3, 8100, Note_on_c, 0, 45, 0
3, 8100, Note_on_c, 0, 47, 64
3, 8160, Note_on_c, 0, 47, 0
3, 8160, Note_on_c, 0, 48, 64
3, 8340, Note_on_c, 0, 48, 0
3, 8340, Note_on_c, 0, 47, 64
3, 8400, Note_on_c, 0, 47, 0
3, 8400, Note_on_c, 0, 49, 64
3, 8460, Note_on_c, 0, 49, 0
3, 8460, Note_on_c, 0, 50, 64
3, 8520, Note_on_c, 0, 50, 0
3, 8520, Note_on_c, 0, 52, 64
3, 8580, Note_on_c, 0, 52, 0
3, 8580, Note_on_c, 0, 49, 64
3, 8640, Note_on_c, 0, 49, 0
3, 8640, Note_on_c, 0, 50, 64
3, 8700, Note_on_c, 0, 50, 0
3, 8700, Note_on_c, 0, 45, 64
3, 8760, Note_on_c, 0, 45, 0
3, 8760, Note_on_c, 0, 47, 64
3, 8820, Note_on_c, 0, 47, 0
3, 8820, Note_on_c, 0, 48, 64
3, 8880, Note_on_c, 0, 48, 0
3, 8880, Note_on_c, 0, 50, 64
3, 9060, Note_on_c, 0, 50, 0
3, 9060, Note_on_c, 0, 49, 64
3, 9120, Note_on_c, 0, 49, 0
3, 9120, Note_on_c, 0, 51, 64
3, 9180, Note_on_c, 0, 51, 0
3, 9180, Note_on_c, 0, 52, 64
3, 9240, Note_on_c, 0, 52, 0
3, 9240, Note_on_c, 0, 54, 64
3, 9300, Note_on_c, 0, 54, 0
3, 9300, Note_on_c, 0, 51, 64
3, 9360, Note_on_c, 0, 51, 0
3, 9360, Note_on_c, 0, 52, 64
3, 9420, Note_on_c, 0, 52, 0
3, 9420, Note_on_c, 0, 47, 64
3, 9480, Note_on_c, 0, 47, 0
3, 9480, Note_on_c, 0, 49, 64
3, 9540, Note_on_c, 0, 49, 0
3, 9540, Note_on_c, 0, 50, 64
3, 9600, Note_on_c, 0, 50, 0
3, 9600, Note_on_c, 0, 52, 64
3, 9780, Note_on_c, 0, 52, 0
3, 9780, Note_on_c, 0, 50, 64
3, 9840, Note_on_c, 0, 50, 0
3, 9840, Note_on_c, 0, 52, 64
3, 9900, Note_on_c, 0, 52, 0
3, 9900, Note_on_c, 0, 54, 64
3, 9960, Note_on_c, 0, 54, 0
3, 9960, Note_on_c, 0, 55, 64
3, 10020, Note_on_c, 0, 55, 0
3, 10020, Note_on_c, 0, 52, 64
3, 10080, Note_on_c, 0, 52, 0
3, 10080, Note_on_c, 0, 55, 76
3, 10100, Note_on_c, 0, 55, 0
3, 10100, Note_on_c, 0, 54, 48
3, 10120, Note_on_c, 0, 55, 48
3, 10122, Note_on_c, 0, 54, 0
3, 10140, Note_on_c, 0, 54, 48
3, 10142, Note_on_c, 0, 55, 0
3, 10160, Note_on_c, 0, 55, 48
3, 10162, Note_on_c, 0, 54, 0
3, 10180, Note_on_c, 0, 54, 49
3, 10182, Note_on_c, 0, 55, 0
3, 10200, Note_on_c, 0, 55, 49
3, 10202, Note_on_c, 0, 54, 0
3, 10220, Note_on_c, 0, 54, 49
3, 10222, Note_on_c, 0, 55, 0
3, 10240, Note_on_c, 0, 55, 49
3, 10242, Note_on_c, 0, 54, 0
3, 10260, Note_on_c, 0, 54, 49
3, 10262, Note_on_c, 0, 55, 0
3, 10280, Note_on_c, 0, 55, 50
3, 10282, Note_on_c, 0, 54, 0
3, 10300, Note_on_c, 0, 54, 50
3, 10302, Note_on_c, 0, 55, 0
3, 10320, Note_on_c, 0, 55, 50
3, 10322, Note_on_c, 0, 54, 0
3, 10340, Note_on_c, 0, 54, 50
3, 10342, Note_on_c, 0, 55, 0
3, 10360, Note_on_c, 0, 55, 51
3, 10362, Note_on_c, 0, 54, 0
3, 10380, Note_on_c, 0, 54, 51
3, 10382, Note_on_c, 0, 55, 0
3, 10400, Note_on_c, 0, 55, 51
3, 10402, Note_on_c, 0, 54, 0
3, 10420, Note_on_c, 0, 54, 51
3, 10422, Note_on_c, 0, 55, 0
3, 10440, Note_on_c, 0, 55, 52
3, 10442, Note_on_c, 0, 54, 0
3, 10460, Note_on_c, 0, 54, 52
3, 10462, Note_on_c, 0, 55, 0
3, 10480, Note_on_c, 0, 55, 52
3, 10482, Note_on_c, 0, 54, 0
3, 10500, Note_on_c, 0, 54, 52
3, 10502, Note_on_c, 0, 55, 0
3, 10520, Note_on_c, 0, 55, 52
3, 10522, Note_on_c, 0, 54, 0
3, 10540, Note_on_c, 0, 54, 53
3, 10542, Note_on_c, 0, 55, 0
3, 10560, Note_on_c, 0, 55, 53
3, 10562, Note_on_c, 0, 54, 0
3, 10580, Note_on_c, 0, 54, 53
3, 10582, Note_on_c, 0, 55, 0
3, 10600, Note_on_c, 0, 55, 53
3, 10602, Note_on_c, 0, 54, 0
3, 10620, Note_on_c, 0, 54, 54
3, 10622, Note_on_c, 0, 55, 0
3, 10640, Note_on_c, 0, 55, 54
3, 10642, Note_on_c, 0, 54, 0
3, 10660, Note_on_c, 0, 54, 54
3, 10662, Note_on_c, 0, 55, 0
3, 10680, Note_on_c, 0, 55, 54
3, 10682, Note_on_c, 0, 54, 0
3, 10700, Note_on_c, 0, 54, 55
3, 10702, Note_on_c, 0, 55, 0
3, 10720, Note_on_c, 0, 55, 55
3, 10722, Note_on_c, 0, 54, 0
3, 10740, Note_on_c, 0, 54, 55
3, 10742, Note_on_c, 0, 55, 0
3, 10760, Note_on_c, 0, 55, 55
3, 10762, Note_on_c, 0, 54, 0
3, 10780, Note_on_c, 0, 54, 55
3, 10782, Note_on_c, 0, 55, 0
3, 10800, Note_on_c, 0, 55, 56
3, 10802, Note_on_c, 0, 54, 0
3, 10820, Note_on_c, 0, 54, 56
3, 10822, Note_on_c, 0, 55, 0
3, 10840, Note_on_c, 0, 55, 56
3, 10842, Note_on_c, 0, 54, 0
3, 10860, Note_on_c, 0, 54, 56
3, 10862, Note_on_c, 0, 55, 0
3, 10880, Note_on_c, 0, 55, 57
3, 10882, Note_on_c, 0, 54, 0
3, 10900, Note_on_c, 0, 54, 57
3, 10902, Note_on_c, 0, 55, 0
3, 10920, Note_on_c, 0, 55, 57
3, 10922, Note_on_c, 0, 54, 0
3, 10940, Note_on_c, 0, 54, 57
3, 10942, Note_on_c, 0, 55, 0
3, 10960, Note_on_c, 0, 55, 58
3, 10962, Note_on_c, 0, 54, 0
3, 10980, Note_on_c, 0, 54, 58
3, 10982, Note_on_c, 0, 55, 0
3, 11000, Note_on_c, 0, 55, 58
3, 11002, Note_on_c, 0, 54, 0
3, 11020, Note_on_c, 0, 54, 58
3, 11022, Note_on_c, 0, 55, 0
3, 11040, Note_on_c, 0, 55, 58
3, 11042, Note_on_c, 0, 54, 0
3, 11060, Note_on_c, 0, 54, 59
3, 11062, Note_on_c, 0, 55, 0
3, 11080, Note_on_c, 0, 55, 59
3, 11082, Note_on_c, 0, 54, 0
3, 11100, Note_on_c, 0, 54, 59
3, 11102, Note_on_c, 0, 55, 0
3, 11120, Note_on_c, 0, 55, 59
3, 11122, Note_on_c, 0, 54, 0
3, 11140, Note_on_c, 0, 54, 60
3, 11142, Note_on_c, 0, 55, 0
3, 11160, Note_on_c, 0, 55, 60
3, 11162, Note_on_c, 0, 54, 0
3, 11180, Note_on_c, 0, 54, 60
3, 11182, Note_on_c, 0, 55, 0
3, 11200, Note_on_c, 0, 55, 60
3, 11202, Note_on_c, 0, 54, 0
3, 11220, Note_on_c, 0, 54, 61
3, 11222, Note_on_c, 0, 55, 0
3, 11240, Note_on_c, 0, 55, 61
3, 11242, Note_on_c, 0, 54, 0
3, 11260, Note_on_c, 0, 54, 61
3, 11262, Note_on_c, 0, 55, 0
3, 11280, Note_on_c, 0, 55, 61
3, 11282, Note_on_c, 0, 54, 0
3, 11300, Note_on_c, 0, 54, 62
3, 11302, Note_on_c, 0, 55, 0
3, 11320, Note_on_c, 0, 55, 62
3, 11322, Note_on_c, 0, 54, 0
3, 11340, Note_on_c, 0, 54, 62
3, 11342, Note_on_c, 0, 55, 0
3, 11360, Note_on_c, 0, 55, 62
3, 11362, Note_on_c, 0, 54, 0
3, 11380, Note_on_c, 0, 54, 62
3, 11382, Note_on_c, 0, 55, 0
3, 11400, Note_on_c, 0, 55, 63
3, 11402, Note_on_c, 0, 54, 0
3, 11420, Note_on_c, 0, 54, 63
3, 11422, Note_on_c, 0, 55, 0
3, 11440, Note_on_c, 0, 55, 63
3, 11442, Note_on_c, 0, 54, 0
3, 11460, Note_on_c, 0, 54, 63
3, 11462, Note_on_c, 0, 55, 0
3, 11526, Note_on_c, 0, 54, 0
3, 11580, Note_on_c, 0, 51, 64
3, 11640, Note_on_c, 0, 51, 0
3, 11640, Note_on_c, 0, 52, 64
3, 11700, Note_on_c, 0, 52, 0
3, 11700, Note_on_c, 0, 54, 64
3, 11760, Note_on_c, 0, 54, 0
3, 11760, Note_on_c, 0, 55, 64
3, 11820, Note_on_c, 0, 55, 0
3, 11820, Note_on_c, 0, 52, 64
3, 11880, Note_on_c, 0, 52, 0
3, 11880, Note_on_c, 0, 54, 64
3, 11940, Note_on_c, 0, 54, 0
3, 11940, Note_on_c, 0, 52, 64
3, 12000, Note_on_c, 0, 52, 0
3, 12000, Note_on_c, 0, 51, 64
3, 12060, Note_on_c, 0, 51, 0
3, 12060, Note_on_c, 0, 49, 64
3, 12120, Note_on_c, 0, 49, 0
3, 12120, Note_on_c, 0, 47, 64
3, 12180, Note_on_c, 0, 47, 0
3, 12180, Note_on_c, 0, 45, 64
3, 12240, Note_on_c, 0, 45, 0
3, 12240, Note_on_c, 0, 43, 64
3, 12300, Note_on_c, 0, 43, 0
3, 12300, Note_on_c, 0, 47, 64
3, 12360, Note_on_c, 0, 47, 0
3, 12360, Note_on_c, 0, 49, 64
3, 12420, Note_on_c, 0, 49, 0
3, 12420, Note_on_c, 0, 51, 64
3, 12480, Note_on_c, 0, 51, 0
3, 12480, Note_on_c, 0, 52, 64
3, 12540, Note_on_c, 0, 52, 0
3, 12540, Note_on_c, 0, 49, 64
3, 12600, Note_on_c, 0, 49, 0
3, 12600, Note_on_c, 0, 51, 64
3, 12660, Note_on_c, 0, 51, 0
3, 12660, Note_on_c, 0, 49, 64
3, 12720, Note_on_c, 0, 49, 0
3, 12720, Note_on_c, 0, 47, 64
3, 12780, Note_on_c, 0, 47, 0
3, 12780, Note_on_c, 0, 45, 64
3, 12840, Note_on_c, 0, 45, 0
3, 12840, Note_on_c, 0, 43, 64
3, 12900, Note_on_c, 0, 43, 0
3, 12900, Note_on_c, 0, 42, 64
3, 12960, Note_on_c, 0, 42, 0
3, 12960, Note_on_c, 0, 40, 64
3, 13020, Note_on_c, 0, 40, 0
3, 13020, Note_on_c, 0, 50, 64
3, 13080, Note_on_c, 0, 50, 0
3, 13080, Note_on_c, 0, 49, 64
3, 13140, Note_on_c, 0, 49, 0
3, 13140, Note_on_c, 0, 47, 64
3, 13200, Note_on_c, 0, 47, 0
3, 13200, Note_on_c, 0, 46, 64
3, 13260, Note_on_c, 0, 46, 0
3, 13260, Note_on_c, 0, 49, 64
3, 13320, Note_on_c, 0, 49, 0
3, 13320, Note_on_c, 0, 42, 64
3, 13440, Note_on_c, 0, 42, 0
3, 13440, Note_on_c, 0, 55, 72
3, 13460, Note_on_c, 0, 55, 0
3, 13460, Note_on_c, 0, 54, 64
3, 13480, Note_on_c, 0, 54, 0
3, 13480, Note_on_c, 0, 55, 64
3, 13740, Note_on_c, 0, 55, 0
3, 13740, Note_on_c, 0, 54, 64
3, 13800, Note_on_c, 0, 54, 0
3, 13800, Note_on_c, 0, 52, 64
3, 13860, Note_on_c, 0, 52, 0
3, 13860, Note_on_c, 0, 50, 64
3, 13920, Note_on_c, 0, 50, 0
3, 13920, Note_on_c, 0, 49, 64
3, 13980, Note_on_c, 0, 49, 0
3, 13980, Note_on_c, 0, 52, 64
3, 14040, Note_on_c, 0, 52, 0
3, 14040, Note_on_c, 0, 46, 64
3, 14100, Note_on_c, 0, 74, 64
3, 14160, Note_on_c, 0, 74, 0
3, 14160, Note_on_c, 0, 46, 0
3, 14160, Note_on_c, 0, 64, 64
3, 14160, Note_on_c, 0, 73, 64
3, 14220, Note_on_c, 0, 73, 0
3, 14220, Note_on_c, 0, 71, 64
3, 14280, Note_on_c, 0, 71, 0
3, 14280, Note_on_c, 0, 70, 64
3, 14340, Note_on_c, 0, 70, 0
3, 14340, Note_on_c, 0, 73, 64
3, 14400, Note_on_c, 0, 73, 0
3, 14400, Note_on_c, 0, 66, 64
3, 14460, Note_on_c, 0, 64, 0
3, 14460, Note_on_c, 0, 62, 64
3, 14520, Note_on_c, 0, 62, 0
3, 14520, Note_on_c, 0, 66, 0
3, 14520, Note_on_c, 0, 79, 64
3, 14520, Note_on_c, 0, 61, 64
3, 14540, Note_on_c, 0, 79, 0
3, 14540, Note_on_c, 0, 78, 64
3, 14560, Note_on_c, 0, 78, 0
3, 14560, Note_on_c, 0, 79, 64
3, 14580, Note_on_c, 0, 61, 0
3, 14580, Note_on_c, 0, 59, 64
3, 14640, Note_on_c, 0, 59, 0
3, 14640, Note_on_c, 0, 58, 64
3, 14700, Note_on_c, 0, 58, 0
3, 14700, Note_on_c, 0, 61, 64
3, 14760, Note_on_c, 0, 61, 0
3, 14760, Note_on_c, 0, 54, 64
3, 14820, Note_on_c, 0, 79, 0
3, 14820, Note_on_c, 0, 78, 64
3, 14880, Note_on_c, 0, 78, 0
3, 14880, Note_on_c, 0, 54, 0
3, 14880, Note_on_c, 0, 76, 64
3, 14880, Note_on_c, 0, 56, 64
3, 14940, Note_on_c, 0, 76, 0
3, 14940, Note_on_c, 0, 74, 64
3, 15000, Note_on_c, 0, 74, 0
3, 15000, Note_on_c, 0, 56, 0
3, 15000, Note_on_c, 0, 58, 64
3, 15000, Note_on_c, 0, 73, 64
3, 15060, Note_on_c, 0, 73, 0
3, 15060, Note_on_c, 0, 76, 64
3, 15120, Note_on_c, 0, 76, 0
3, 15120, Note_on_c, 0, 58, 0
3, 15120, Note_on_c, 0, 76, 64
3, 15120, Note_on_c, 0, 59, 64
3, 15140, Note_on_c, 0, 76, 0
3, 15140, Note_on_c, 0, 74, 64
3, 15160, Note_on_c, 0, 74, 0
3, 15160, Note_on_c, 0, 73, 64
3, 15180, Note_on_c, 0, 73, 0
3, 15180, Note_on_c, 0, 59, 0
3, 15180, Note_on_c, 0, 74, 64
3, 15180, Note_on_c, 0, 58, 64
3, 15200, Note_on_c, 0, 74, 0
3, 15200, Note_on_c, 0, 76, 64
3, 15220, Note_on_c, 0, 76, 0
3, 15220, Note_on_c, 0, 74, 64
3, 15240, Note_on_c, 0, 74, 0
3, 15240, Note_on_c, 0, 58, 0
3, 15240, Note_on_c, 0, 76, 64
3, 15240, Note_on_c, 0, 59, 64
3, 15260, Note_on_c, 0, 76, 0
3, 15260, Note_on_c, 0, 74, 64
3, 15300, Note_on_c, 0, 59, 0
3, 15300, Note_on_c, 0, 61, 64
3, 15360, Note_on_c, 0, 61, 0
3, 15360, Note_on_c, 0, 62, 64
3, 15420, Note_on_c, 0, 62, 0
3, 15420, Note_on_c, 0, 59, 64
3, 15480, Note_on_c, 0, 59, 0
3, 15480, Note_on_c, 0, 53, 64
3, 15540, Note_on_c, 0, 53, 0
3, 15540, Note_on_c, 0, 74, 0
3, 15540, Note_on_c, 0, 73, 64
3, 15540, Note_on_c, 0, 54, 64
3, 15600, Note_on_c, 0, 54, 0
3, 15600, Note_on_c, 0, 73, 0
3, 15600, Note_on_c, 0, 71, 64
3, 15600, Note_on_c, 0, 56, 64
3, 15660, Note_on_c, 0, 56, 0
3, 15660, Note_on_c, 0, 71, 0
3, 15660, Note_on_c, 0, 69, 64
3, 15660, Note_on_c, 0, 57, 64
3, 15720, Note_on_c, 0, 57, 0
3, 15720, Note_on_c, 0, 69, 0
3, 15720, Note_on_c, 0, 68, 64
3, 15720, Note_on_c, 0, 59, 64
3, 15780, Note_on_c, 0, 59, 0
3, 15780, Note_on_c, 0, 68, 0
3, 15780, Note_on_c, 0, 71, 64
3, 15780, Note_on_c, 0, 56, 64
3, 15840, Note_on_c, 0, 56, 0
3, 15840, Note_on_c, 0, 71, 0
3, 15840, Note_on_c, 0, 65, 64
3, 15840, Note_on_c, 0, 49, 64
3, 15900, Note_on_c, 0, 65, 0
3, 15900, Note_on_c, 0, 74, 64
3, 15960, Note_on_c, 0, 74, 0
3, 15960, Note_on_c, 0, 49, 0
3, 15960, Note_on_c, 0, 73, 64
3, 15960, Note_on_c, 0, 53, 64
3, 16020, Note_on_c, 0, 73, 0
3, 16020, Note_on_c, 0, 71, 64
3, 16080, Note_on_c, 0, 71, 0
3, 16080, Note_on_c, 0, 53, 0
3, 16080, Note_on_c, 0, 54, 64
3, 16080, Note_on_c, 0, 70, 64
3, 16140, Note_on_c, 0, 70, 0
3, 16140, Note_on_c, 0, 73, 64
3, 16200, Note_on_c, 0, 73, 0
3, 16200, Note_on_c, 0, 54, 0
3, 16200, Note_on_c, 0, 76, 64
3, 16200, Note_on_c, 0, 55, 64
3, 16260, Note_on_c, 0, 76, 0
3, 16260, Note_on_c, 0, 79, 64
3, 16320, Note_on_c, 0, 79, 0
3, 16320, Note_on_c, 0, 55, 0
3, 16320, Note_on_c, 0, 78, 64
3, 16320, Note_on_c, 0, 46, 64
3, 16380, Note_on_c, 0, 78, 0
3, 16380, Note_on_c, 0, 76, 64
3, 16440, Note_on_c, 0, 76, 0
3, 16440, Note_on_c, 0, 46, 0
3, 16440, Note_on_c, 0, 47, 64
3, 16440, Note_on_c, 0, 74, 64
3, 16500, Note_on_c, 0, 74, 0
3, 16500, Note_on_c, 0, 78, 64
3, 16560, Note_on_c, 0, 78, 0
3, 16560, Note_on_c, 0, 47, 0
3, 16560, Note_on_c, 0, 71, 64
3, 16560, Note_on_c, 0, 43, 64
3, 16680, Note_on_c, 0, 43, 0
3, 16680, Note_on_c, 0, 71, 0
3, 16680, Note_on_c, 0, 73, 64
3, 16680, Note_on_c, 0, 40, 64
3, 16800, Note_on_c, 0, 40, 0
3, 16800, Note_on_c, 0, 73, 0
3, 16800, Note_on_c, 0, 71, 64
3, 16800, Note_on_c, 0, 42, 64
3, 16820, Note_on_c, 0, 71, 0
3, 16820, Note_on_c, 0, 70, 64
3, 16840, Note_on_c, 0, 70, 0
3, 16840, Note_on_c, 0, 68, 64
3, 16860, Note_on_c, 0, 68, 0
3, 16860, Note_on_c, 0, 70, 64
3, 16920, Note_on_c, 0, 70, 0
3, 16920, Note_on_c, 0, 42, 0
3, 16920, Note_on_c, 0, 71, 64
3, 16920, Note_on_c, 0, 47, 64
3, 16980, Note_on_c, 0, 47, 0
3, 16980, Note_on_c, 0, 49, 64
3, 17040, Note_on_c, 0, 49, 0
3, 17040, Note_on_c, 0, 51, 64
3, 17100, Note_on_c, 0, 51, 0
3, 17100, Note_on_c, 0, 52, 64
3, 17160, Note_on_c, 0, 52, 0
3, 17160, Note_on_c, 0, 54, 64
3, 17220, Note_on_c, 0, 54, 0
3, 17220, Note_on_c, 0, 51, 64
3, 17280, Note_on_c, 0, 51, 0
3, 17280, Note_on_c, 0, 71, 0
3, 17280, Note_on_c, 0, 52, 64
3, 17340, Note_on_c, 0, 67, 64
3, 17400, Note_on_c, 0, 67, 0
3, 17400, Note_on_c, 0, 52, 0
3, 17400, Note_on_c, 0, 69, 64
3, 17400, Note_on_c, 0, 40, 64
3, 17460, Note_on_c, 0, 69, 0
3, 17460, Note_on_c, 0, 71, 64
3, 17520, Note_on_c, 0, 71, 0
3, 17520, Note_on_c, 0, 40, 0
3, 17520, Note_on_c, 0, 72, 64
3, 17580, Note_on_c, 0, 72, 0
3, 17580, Note_on_c, 0, 69, 64
3, 17640, Note_on_c, 0, 69, 0
3, 17640, Note_on_c, 0, 71, 64
3, 17700, Note_on_c, 0, 71, 0
3, 17700, Note_on_c, 0, 67, 64
3, 17760, Note_on_c, 0, 67, 0
3, 17760, Note_on_c, 0, 66, 64
3, 17820, Note_on_c, 0, 66, 0
3, 17820, Note_on_c, 0, 64, 64
3, 17880, Note_on_c, 0, 64, 0
3, 17880, Note_on_c, 0, 63, 64
3, 17940, Note_on_c, 0, 63, 0
3, 17940, Note_on_c, 0, 69, 64
3, 18000, Note_on_c, 0, 69, 0
3, 18000, Note_on_c, 0, 67, 64
3, 18030, Note_on_c, 0, 67, 0
3, 18030, Note_on_c, 0, 66, 64
3, 18060, Note_on_c, 0, 66, 0
3, 18060, Note_on_c, 0, 64, 64
3, 18060, Note_on_c, 0, 55, 64
3, 18120, Note_on_c, 0, 55, 0
3, 18120, Note_on_c, 0, 64, 0
3, 18120, Note_on_c, 0, 76, 64
3, 18120, Note_on_c, 0, 57, 64
3, 18180, Note_on_c, 0, 57, 0
3, 18180, Note_on_c, 0, 59, 64
3, 18240, Note_on_c, 0, 59, 0
3, 18240, Note_on_c, 0, 76, 0
3, 18240, Note_on_c, 0, 60, 64
3, 18300, Note_on_c, 0, 60, 0
3, 18300, Note_on_c, 0, 57, 64
3, 18360, Note_on_c, 0, 57, 0
3, 18360, Note_on_c, 0, 75, 64
3, 18360, Note_on_c, 0, 59, 64
3, 18390, Note_on_c, 0, 75, 0
3, 18390, Note_on_c, 0, 73, 64
3, 18420, Note_on_c, 0, 73, 0
3, 18420, Note_on_c, 0, 59, 0
3, 18420, Note_on_c, 0, 71, 64
3, 18420, Note_on_c, 0, 55, 64
3, 18480, Note_on_c, 0, 55, 0
3, 18480, Note_on_c, 0, 71, 0
3, 18480, Note_on_c, 0, 81, 64
3, 18480, Note_on_c, 0, 54, 64
3, 18540, Note_on_c, 0, 54, 0
3, 18540, Note_on_c, 0, 52, 64
3, 18600, Note_on_c, 0, 52, 0
3, 18600, Note_on_c, 0, 81, 0
3, 18600, Note_on_c, 0, 51, 64
3, 18660, Note_on_c, 0, 51, 0
3, 18660, Note_on_c, 0, 57, 64
3, 18720, Note_on_c, 0, 57, 0
3, 18720, Note_on_c, 0, 55, 64
3, 18780, Note_on_c, 0, 55, 0
3, 18780, Note_on_c, 0, 67, 64
3, 18780, Note_on_c, 0, 52, 64
3, 18840, Note_on_c, 0, 52, 0
3, 18840, Note_on_c, 0, 67, 0
3, 18840, Note_on_c, 0, 69, 64
3, 18840, Note_on_c, 0, 54, 64
3, 18900, Note_on_c, 0, 54, 0
3, 18900, Note_on_c, 0, 69, 0
3, 18900, Note_on_c, 0, 71, 64
3, 18900, Note_on_c, 0, 55, 64
3, 18960, Note_on_c, 0, 55, 0
3, 18960, Note_on_c, 0, 71, 0
3, 18960, Note_on_c, 0, 72, 64
3, 18960, Note_on_c, 0, 57, 64
3, 19020, Note_on_c, 0, 57, 0
3, 19020, Note_on_c, 0, 72, 0
3, 19020, Note_on_c, 0, 69, 64
3, 19020, Note_on_c, 0, 54, 64
3, 19080, Note_on_c, 0, 54, 0
3, 19080, Note_on_c, 0, 69, 0
3, 19080, Note_on_c, 0, 71, 64
3, 19080, Note_on_c, 0, 55, 64
3, 19140, Note_on_c, 0, 71, 0
3, 19140, Note_on_c, 0, 67, 64
3, 19200, Note_on_c, 0, 67, 0
3, 19200, Note_on_c, 0, 55, 0
3, 19200, Note_on_c, 0, 66, 64
3, 19200, Note_on_c, 0, 57, 64
3, 19260, Note_on_c, 0, 66, 0
3, 19260, Note_on_c, 0, 64, 64
3, 19320, Note_on_c, 0, 64, 0
3, 19320, Note_on_c, 0, 57, 0
3, 19320, Note_on_c, 0, 59, 64
3, 19320, Note_on_c, 0, 63, 64
3, 19380, Note_on_c, 0, 63, 0
3, 19380, Note_on_c, 0, 69, 64
3, 19440, Note_on_c, 0, 69, 0
3, 19440, Note_on_c, 0, 59, 0
3, 19440, Note_on_c, 0, 67, 64
3, 19440, Note_on_c, 0, 52, 64
3, 19500, Note_on_c, 0, 67, 0
3, 19500, Note_on_c, 0, 71, 64
3, 19560, Note_on_c, 0, 71, 0
3, 19560, Note_on_c, 0, 52, 0
3, 19560, Note_on_c, 0, 72, 64
3, 19560, Note_on_c, 0, 50, 64
3, 19620, Note_on_c, 0, 72, 0
3, 19620, Note_on_c, 0, 74, 64
3, 19680, Note_on_c, 0, 74, 0
3, 19680, Note_on_c, 0, 50, 0
3, 19680, Note_on_c, 0, 48, 64
3, 19680, Note_on_c, 0, 76, 64
3, 19740, Note_on_c, 0, 76, 0
3, 19740, Note_on_c, 0, 72, 64
3, 19800, Note_on_c, 0, 72, 0
3, 19800, Note_on_c, 0, 48, 0
3, 19800, Note_on_c, 0, 74, 64
3, 19800, Note_on_c, 0, 47, 64
3, 19860, Note_on_c, 0, 74, 0
3, 19860, Note_on_c, 0, 71, 64
3, 19920, Note_on_c, 0, 71, 0
3, 19920, Note_on_c, 0, 47, 0
3, 19920, Note_on_c, 0, 69, 64
3, 19920, Note_on_c, 0, 48, 64
3, 19980, Note_on_c, 0, 69, 0
3, 19980, Note_on_c, 0, 67, 64
3, 20040, Note_on_c, 0, 67, 0
3, 20040, Note_on_c, 0, 48, 0
3, 20040, Note_on_c, 0, 50, 64
3, 20040, Note_on_c, 0, 66, 64
3, 20100, Note_on_c, 0, 66, 0
3, 20100, Note_on_c, 0, 72, 64
3, 20160, Note_on_c, 0, 72, 0
3, 20160, Note_on_c, 0, 50, 0
3, 20160, Note_on_c, 0, 71, 64
3, 20160, Note_on_c, 0, 43, 64
3, 20220, Note_on_c, 0, 71, 0
3, 20220, Note_on_c, 0, 74, 64
3, 20280, Note_on_c, 0, 74, 0
3, 20280, Note_on_c, 0, 43, 0
3, 20280, Note_on_c, 0, 76, 64
3, 20280, Note_on_c, 0, 42, 64
3, 20340, Note_on_c, 0, 76, 0
3, 20340, Note_on_c, 0, 78, 64
3, 20400, Note_on_c, 0, 78, 0
3, 20400, Note_on_c, 0, 42, 0
3, 20400, Note_on_c, 0, 40, 64
3, 20400, Note_on_c, 0, 79, 64
3, 20460, Note_on_c, 0, 79, 0
3, 20460, Note_on_c, 0, 76, 64
3, 20520, Note_on_c, 0, 76, 0
3, 20520, Note_on_c, 0, 40, 0
3, 20520, Note_on_c, 0, 78, 64
3, 20520, Note_on_c, 0, 38, 64
3, 20580, Note_on_c, 0, 78, 0
3, 20580, Note_on_c, 0, 74, 64
3, 20640, Note_on_c, 0, 74, 0
3, 20640, Note_on_c, 0, 38, 0
3, 20640, Note_on_c, 0, 73, 64
3, 20640, Note_on_c, 0, 40, 64
3, 20700, Note_on_c, 0, 73, 0
3, 20700, Note_on_c, 0, 71, 64
3, 20760, Note_on_c, 0, 71, 0
3, 20760, Note_on_c, 0, 40, 0
3, 20760, Note_on_c, 0, 42, 64
3, 20760, Note_on_c, 0, 70, 64
3, 20820, Note_on_c, 0, 70, 0
3, 20820, Note_on_c, 0, 76, 64
3, 20880, Note_on_c, 0, 76, 0
3, 20880, Note_on_c, 0, 42, 0
3, 20880, Note_on_c, 0, 74, 64
3, 20880, Note_on_c, 0, 47, 64
3, 20940, Note_on_c, 0, 47, 0
3, 20940, Note_on_c, 0, 74, 0
3, 20940, Note_on_c, 0, 78, 64
3, 20940, Note_on_c, 0, 50, 64
3, 21000, Note_on_c, 0, 50, 0
3, 21000, Note_on_c, 0, 78, 0
3, 21000, Note_on_c, 0, 76, 64
3, 21000, Note_on_c, 0, 52, 64
3, 21060, Note_on_c, 0, 52, 0
3, 21060, Note_on_c, 0, 76, 0
3, 21060, Note_on_c, 0, 74, 64
3, 21060, Note_on_c, 0, 54, 64
3, 21120, Note_on_c, 0, 54, 0
3, 21120, Note_on_c, 0, 74, 0
3, 21120, Note_on_c, 0, 73, 64
3, 21120, Note_on_c, 0, 55, 64
3, 21180, Note_on_c, 0, 55, 0
3, 21180, Note_on_c, 0, 73, 0
3, 21180, Note_on_c, 0, 52, 64
3, 21180, Note_on_c, 0, 71, 64
3, 21240, Note_on_c, 0, 71, 0
3, 21240, Note_on_c, 0, 52, 0
3, 21240, Note_on_c, 0, 70, 64
3, 21240, Note_on_c, 0, 54, 64
3, 21270, Note_on_c, 0, 70, 0
3, 21270, Note_on_c, 0, 68, 64
3, 21300, Note_on_c, 0, 68, 0
3, 21300, Note_on_c, 0, 54, 0
3, 21300, Note_on_c, 0, 66, 64
3, 21300, Note_on_c, 0, 50, 64
3, 21360, Note_on_c, 0, 50, 0
3, 21360, Note_on_c, 0, 66, 0
3, 21360, Note_on_c, 0, 76, 64
3, 21360, Note_on_c, 0, 49, 64
3, 21420, Note_on_c, 0, 49, 0
3, 21420, Note_on_c, 0, 47, 64
3, 21480, Note_on_c, 0, 47, 0
3, 21480, Note_on_c, 0, 76, 0
3, 21480, Note_on_c, 0, 46, 64
3, 21540, Note_on_c, 0, 46, 0
3, 21540, Note_on_c, 0, 52, 64
3, 21600, Note_on_c, 0, 52, 0
3, 21600, Note_on_c, 0, 50, 64
3, 21660, Note_on_c, 0, 50, 0
3, 21660, Note_on_c, 0, 74, 64
3, 21660, Note_on_c, 0, 47, 64
3, 21720, Note_on_c, 0, 47, 0
3, 21720, Note_on_c, 0, 74, 0
3, 21720, Note_on_c, 0, 76, 64
3, 21720, Note_on_c, 0, 49, 64
3, 21780, Note_on_c, 0, 49, 0
3, 21780, Note_on_c, 0, 76, 0
3, 21780, Note_on_c, 0, 78, 64
3, 21780, Note_on_c, 0, 50, 64
3, 21840, Note_on_c, 0, 50, 0
3, 21840, Note_on_c, 0, 78, 0
3, 21840, Note_on_c, 0, 79, 64
3, 21840, Note_on_c, 0, 52, 64
3, 21900, Note_on_c, 0, 52, 0
3, 21900, Note_on_c, 0, 79, 0
3, 21900, Note_on_c, 0, 76, 64
3, 21900, Note_on_c, 0, 49, 64
3, 21960, Note_on_c, 0, 49, 0
3, 21960, Note_on_c, 0, 76, 0
3, 21960, Note_on_c, 0, 78, 64
3, 21960, Note_on_c, 0, 50, 64
3, 22020, Note_on_c, 0, 78, 0
3, 22020, Note_on_c, 0, 74, 64
3, 22080, Note_on_c, 0, 74, 0
3, 22080, Note_on_c, 0, 50, 0
3, 22080, Note_on_c, 0, 73, 64
3, 22080, Note_on_c, 0, 52, 64
3, 22140, Note_on_c, 0, 73, 0
3, 22140, Note_on_c, 0, 71, 64
3, 22200, Note_on_c, 0, 71, 0
3, 22200, Note_on_c, 0, 52, 0
3, 22200, Note_on_c, 0, 54, 64
3, 22200, Note_on_c, 0, 70, 64
3, 22260, Note_on_c, 0, 70, 0
3, 22260, Note_on_c, 0, 76, 64
3, 22320, Note_on_c, 0, 76, 0
3, 22320, Note_on_c, 0, 54, 0
3, 22320, Note_on_c, 0, 74, 64
3, 22320, Note_on_c, 0, 47, 64
3, 22380, Note_on_c, 0, 74, 0
3, 22380, Note_on_c, 0, 71, 64
3, 22440, Note_on_c, 0, 71, 0
3, 22440, Note_on_c, 0, 47, 0
3, 22440, Note_on_c, 0, 73, 64
3, 22440, Note_on_c, 0, 59, 64
3, 22500, Note_on_c, 0, 73, 0
3, 22500, Note_on_c, 0, 74, 64
3, 22560, Note_on_c, 0, 74, 0
3, 22560, Note_on_c, 0, 59, 0
3, 22560, Note_on_c, 0, 58, 64
3, 22560, Note_on_c, 0, 76, 64
3, 22620, Note_on_c, 0, 76, 0
3, 22620, Note_on_c, 0, 73, 64
3, 22680, Note_on_c, 0, 73, 0
3, 22680, Note_on_c, 0, 58, 0
3, 22680, Note_on_c, 0, 74, 64
3, 22680, Note_on_c, 0, 59, 64
3, 22740, Note_on_c, 0, 74, 0
3, 22740, Note_on_c, 0, 71, 64
3, 22800, Note_on_c, 0, 71, 0
3, 22800, Note_on_c, 0, 59, 0
3, 22800, Note_on_c, 0, 69, 64
3, 22800, Note_on_c, 0, 54, 64
3, 22860, Note_on_c, 0, 69, 0
3, 22860, Note_on_c, 0, 67, 64
3, 22920, Note_on_c, 0, 67, 0
3, 22920, Note_on_c, 0, 54, 0
3, 22920, Note_on_c, 0, 50, 64
3, 22920, Note_on_c, 0, 66, 64
3, 22980, Note_on_c, 0, 66, 0
3, 22980, Note_on_c, 0, 72, 64
3, 23040, Note_on_c, 0, 72, 0
3, 23040, Note_on_c, 0, 50, 0
3, 23040, Note_on_c, 0, 71, 64
3, 23040, Note_on_c, 0, 55, 64
3, 23100, Note_on_c, 0, 55, 0
3, 23100, Note_on_c, 0, 71, 0
3, 23100, Note_on_c, 0, 67, 64
3, 23100, Note_on_c, 0, 59, 64
3, 23160, Note_on_c, 0, 59, 0
3, 23160, Note_on_c, 0, 67, 0
3, 23160, Note_on_c, 0, 76, 64
3, 23160, Note_on_c, 0, 60, 64
3, 23220, Note_on_c, 0, 60, 0
3, 23220, Note_on_c, 0, 76, 0
3, 23220, Note_on_c, 0, 71, 64
3, 23220, Note_on_c, 0, 62, 64
3, 23280, Note_on_c, 0, 62, 0
3, 23280, Note_on_c, 0, 71, 0
3, 23280, Note_on_c, 0, 72, 64
3, 23280, Note_on_c, 0, 64, 64
3, 23340, Note_on_c, 0, 64, 0
3, 23340, Note_on_c, 0, 72, 0
3, 23340, Note_on_c, 0, 60, 64
3, 23340, Note_on_c, 0, 81, 64
3, 23400, Note_on_c, 0, 81, 0
3, 23400, Note_on_c, 0, 60, 0
3, 23400, Note_on_c, 0, 71, 64
3, 23400, Note_on_c, 0, 62, 64
3, 23460, Note_on_c, 0, 62, 0
3, 23460, Note_on_c, 0, 71, 0
3, 23460, Note_on_c, 0, 74, 64
3, 23460, Note_on_c, 0, 59, 64
3, 23520, Note_on_c, 0, 59, 0
3, 23520, Note_on_c, 0, 74, 0
3, 23520, Note_on_c, 0, 79, 64
3, 23520, Note_on_c, 0, 57, 64
3, 23580, Note_on_c, 0, 57, 0
3, 23580, Note_on_c, 0, 55, 64
3, 23640, Note_on_c, 0, 55, 0
3, 23640, Note_on_c, 0, 79, 0
3, 23640, Note_on_c, 0, 71, 64
3, 23640, Note_on_c, 0, 54, 64
3, 23655, Note_on_c, 0, 71, 0
3, 23655, Note_on_c, 0, 69, 64
3, 23670, Note_on_c, 0, 69, 0
3, 23670, Note_on_c, 0, 71, 64
3, 23685, Note_on_c, 0, 71, 0
3, 23685, Note_on_c, 0, 69, 64
3, 23700, Note_on_c, 0, 69, 0
3, 23700, Note_on_c, 0, 54, 0
3, 23700, Note_on_c, 0, 71, 64
3, 23700, Note_on_c, 0, 60, 64
3, 23715, Note_on_c, 0, 71, 0
3, 23715, Note_on_c, 0, 69, 64
3, 23760, Note_on_c, 0, 69, 0
3, 23760, Note_on_c, 0, 60, 0
3, 23760, Note_on_c, 0, 67, 64
3, 23760, Note_on_c, 0, 59, 64
3, 23820, Note_on_c, 0, 59, 0
3, 23820, Note_on_c, 0, 67, 0
3, 23820, Note_on_c, 0, 64, 64
3, 23820, Note_on_c, 0, 55, 64
3, 23880, Note_on_c, 0, 55, 0
3, 23880, Note_on_c, 0, 64, 0
3, 23880, Note_on_c, 0, 72, 64
3, 23880, Note_on_c, 0, 57, 64
3, 23940, Note_on_c, 0, 57, 0
3, 23940, Note_on_c, 0, 72, 0
3, 23940, Note_on_c, 0, 67, 64
3, 23940, Note_on_c, 0, 59, 64
3, 24000, Note_on_c, 0, 59, 0
3, 24000, Note_on_c, 0, 67, 0
3, 24000, Note_on_c, 0, 69, 64
3, 24000, Note_on_c, 0, 60, 64
3, 24060, Note_on_c, 0, 60, 0
3, 24060, Note_on_c, 0, 69, 0
3, 24060, Note_on_c, 0, 57, 64
3, 24060, Note_on_c, 0, 78, 64
3, 24120, Note_on_c, 0, 78, 0
3, 24120, Note_on_c, 0, 57, 0
3, 24120, Note_on_c, 0, 67, 64
3, 24120, Note_on_c, 0, 59, 64
3, 24180, Note_on_c, 0, 59, 0
3, 24180, Note_on_c, 0, 67, 0
3, 24180, Note_on_c, 0, 71, 64
3, 24180, Note_on_c, 0, 55, 64
3, 24240, Note_on_c, 0, 55, 0
3, 24240, Note_on_c, 0, 71, 0
3, 24240, Note_on_c, 0, 76, 64
3, 24240, Note_on_c, 0, 54, 64
3, 24300, Note_on_c, 0, 54, 0
3, 24300, Note_on_c, 0, 52, 64
3, 24360, Note_on_c, 0, 52, 0
3, 24360, Note_on_c, 0, 76, 0
3, 24360, Note_on_c, 0, 67, 70
3, 24360, Note_on_c, 0, 51, 64
3, 24375, Note_on_c, 0, 67, 0
3, 24375, Note_on_c, 0, 66, 64
3, 24390, Note_on_c, 0, 66, 0
3, 24390, Note_on_c, 0, 67, 64
3, 24405, Note_on_c, 0, 67, 0
3, 24405, Note_on_c, 0, 66, 64
3, 24420, Note_on_c, 0, 66, 0
3, 24420, Note_on_c, 0, 51, 0
3, 24420, Note_on_c, 0, 67, 64
3, 24420, Note_on_c, 0, 57, 64
3, 24435, Note_on_c, 0, 67, 0
3, 24435, Note_on_c, 0, 66, 64
3, 24480, Note_on_c, 0, 66, 0
3, 24480, Note_on_c, 0, 57, 0
3, 24480, Note_on_c, 0, 64, 64
3, 24480, Note_on_c, 0, 55, 64
3, 24540, Note_on_c, 0, 55, 0
3, 24540, Note_on_c, 0, 64, 0
3, 24540, Note_on_c, 0, 67, 64
3, 24540, Note_on_c, 0, 52, 64
3, 24600, Note_on_c, 0, 52, 0
3, 24600, Note_on_c, 0, 67, 0
3, 24600, Note_on_c, 0, 69, 64
3, 24600, Note_on_c, 0, 54, 64
3, 24660, Note_on_c, 0, 54, 0
3, 24660, Note_on_c, 0, 69, 0
3, 24660, Note_on_c, 0, 71, 64
3, 24660, Note_on_c, 0, 55, 64
3, 24720, Note_on_c, 0, 55, 0
3, 24720, Note_on_c, 0, 71, 0
3, 24720, Note_on_c, 0, 72, 64
3, 24720, Note_on_c, 0, 57, 64
3, 24780, Note_on_c, 0, 57, 0
3, 24780, Note_on_c, 0, 72, 0
3, 24780, Note_on_c, 0, 54, 64
3, 24780, Note_on_c, 0, 69, 64
3, 24840, Note_on_c, 0, 69, 0
3, 24840, Note_on_c, 0, 54, 0
3, 24840, Note_on_c, 0, 71, 64
3, 24840, Note_on_c, 0, 55, 64
3, 24870, Note_on_c, 0, 71, 0
3, 24870, Note_on_c, 0, 69, 64
3, 24900, Note_on_c, 0, 69, 0
3, 24900, Note_on_c, 0, 55, 0
3, 24900, Note_on_c, 0, 67, 64
3, 24900, Note_on_c, 0, 52, 64
3, 24960, Note_on_c, 0, 52, 0
3, 24960, Note_on_c, 0, 67, 0
3, 24960, Note_on_c, 0, 77, 64
3, 24960, Note_on_c, 0, 50, 64
3, 25020, Note_on_c, 0, 50, 0
3, 25020, Note_on_c, 0, 48, 64
3, 25080, Note_on_c, 0, 48, 0
3, 25080, Note_on_c, 0, 77, 0
3, 25080, Note_on_c, 0, 47, 64
3, 25140, Note_on_c, 0, 47, 0
3, 25140, Note_on_c, 0, 53, 64
3, 25200, Note_on_c, 0, 53, 0
3, 25200, Note_on_c, 0, 52, 64
3, 25260, Note_on_c, 0, 52, 0
3, 25260, Note_on_c, 0, 64, 64
3, 25260, Note_on_c, 0, 43, 64
3, 25320, Note_on_c, 0, 43, 0
3, 25320, Note_on_c, 0, 64, 0
3, 25320, Note_on_c, 0, 66, 64
3, 25320, Note_on_c, 0, 45, 64
3, 25380, Note_on_c, 0, 45, 0
3, 25380, Note_on_c, 0, 66, 0
3, 25380, Note_on_c, 0, 67, 64
3, 25380, Note_on_c, 0, 47, 64
3, 25440, Note_on_c, 0, 47, 0
3, 25440, Note_on_c, 0, 67, 0
3, 25440, Note_on_c, 0, 48, 64
3, 25440, Note_on_c, 0, 69, 64
3, 25500, Note_on_c, 0, 69, 0
3, 25500, Note_on_c, 0, 66, 64
3, 25560, Note_on_c, 0, 66, 0
3, 25560, Note_on_c, 0, 67, 64
3, 25620, Note_on_c, 0, 67, 0
3, 25620, Note_on_c, 0, 48, 0
3, 25620, Note_on_c, 0, 62, 64
3, 25620, Note_on_c, 0, 47, 64
3, 25680, Note_on_c, 0, 47, 0
3, 25680, Note_on_c, 0, 62, 0
3, 25680, Note_on_c, 0, 64, 64
3, 25680, Note_on_c, 0, 49, 64
3, 25740, Note_on_c, 0, 49, 0
3, 25740, Note_on_c, 0, 64, 0
3, 25740, Note_on_c, 0, 66, 64
3, 25740, Note_on_c, 0, 50, 64
3, 25800, Note_on_c, 0, 50, 0
3, 25800, Note_on_c, 0, 66, 0
3, 25800, Note_on_c, 0, 67, 64
3, 25800, Note_on_c, 0, 52, 64
3, 25860, Note_on_c, 0, 52, 0
3, 25860, Note_on_c, 0, 49, 64
3, 25920, Note_on_c, 0, 49, 0
3, 25920, Note_on_c, 0, 50, 64
3, 25980, Note_on_c, 0, 50, 0
3, 25980, Note_on_c, 0, 67, 0
3, 25980, Note_on_c, 0, 66, 64
3, 25980, Note_on_c, 0, 45, 64
3, 26040, Note_on_c, 0, 45, 0
3, 26040, Note_on_c, 0, 66, 0
3, 26040, Note_on_c, 0, 68, 64
3, 26040, Note_on_c, 0, 47, 64
3, 26100, Note_on_c, 0, 47, 0
3, 26100, Note_on_c, 0, 68, 0
3, 26100, Note_on_c, 0, 69, 64
3, 26100, Note_on_c, 0, 48, 64
3, 26160, Note_on_c, 0, 48, 0
3, 26160, Note_on_c, 0, 69, 0
3, 26160, Note_on_c, 0, 50, 64
3, 26160, Note_on_c, 0, 71, 64
3, 26220, Note_on_c, 0, 71, 0
3, 26220, Note_on_c, 0, 68, 64
3, 26280, Note_on_c, 0, 68, 0
3, 26280, Note_on_c, 0, 69, 64
3, 26340, Note_on_c, 0, 69, 0
3, 26340, Note_on_c, 0, 50, 0
3, 26340, Note_on_c, 0, 64, 64
3, 26340, Note_on_c, 0, 49, 64
3, 26400, Note_on_c, 0, 49, 0
3, 26400, Note_on_c, 0, 64, 0
3, 26400, Note_on_c, 0, 66, 64
3, 26400, Note_on_c, 0, 51, 64
3, 26460, Note_on_c, 0, 51, 0
3, 26460, Note_on_c, 0, 66, 0
3, 26460, Note_on_c, 0, 67, 64
3, 26460, Note_on_c, 0, 52, 64
3, 26520, Note_on_c, 0, 52, 0
3, 26520, Note_on_c, 0, 67, 0
3, 26520, Note_on_c, 0, 69, 64
3, 26520, Note_on_c, 0, 54, 64
3, 26580, Note_on_c, 0, 54, 0
3, 26580, Note_on_c, 0, 51, 64
3, 26640, Note_on_c, 0, 51, 0
3, 26640, Note_on_c, 0, 52, 64
3, 26700, Note_on_c, 0, 52, 0
3, 26700, Note_on_c, 0, 69, 0
3, 26700, Note_on_c, 0, 68, 64
3, 26700, Note_on_c, 0, 47, 64
3, 26760, Note_on_c, 0, 47, 0
3, 26760, Note_on_c, 0, 68, 0
3, 26760, Note_on_c, 0, 70, 64
3, 26760, Note_on_c, 0, 49, 64
3, 26820, Note_on_c, 0, 49, 0
3, 26820, Note_on_c, 0, 70, 0
3, 26820, Note_on_c, 0, 71, 64
3, 26820, Note_on_c, 0, 50, 64
3, 26880, Note_on_c, 0, 50, 0
3, 26880, Note_on_c, 0, 71, 0
3, 26880, Note_on_c, 0, 52, 64
3, 26880, Note_on_c, 0, 73, 64
3, 26940, Note_on_c, 0, 73, 0
3, 26940, Note_on_c, 0, 70, 64
3, 27000, Note_on_c, 0, 70, 0
3, 27000, Note_on_c, 0, 71, 64
3, 27060, Note_on_c, 0, 71, 0
3, 27060, Note_on_c, 0, 52, 0
3, 27060, Note_on_c, 0, 66, 64
3, 27060, Note_on_c, 0, 50, 64
3, 27120, Note_on_c, 0, 50, 0
3, 27120, Note_on_c, 0, 66, 0
3, 27120, Note_on_c, 0, 68, 64
3, 27120, Note_on_c, 0, 52, 64
3, 27180, Note_on_c, 0, 52, 0
3, 27180, Note_on_c, 0, 68, 0
3, 27180, Note_on_c, 0, 70, 64
3, 27180, Note_on_c, 0, 54, 64
3, 27240, Note_on_c, 0, 54, 0
3, 27240, Note_on_c, 0, 70, 0
3, 27240, Note_on_c, 0, 71, 64
3, 27240, Note_on_c, 0, 55, 64
3, 27300, Note_on_c, 0, 55, 0
3, 27300, Note_on_c, 0, 52, 64
3, 27360, Note_on_c, 0, 52, 0
3, 27360, Note_on_c, 0, 55, 76
3, 27380, Note_on_c, 0, 55, 0
3, 27380, Note_on_c, 0, 54, 48
3, 27400, Note_on_c, 0, 55, 48
3, 27402, Note_on_c, 0, 54, 0
3, 27420, Note_on_c, 0, 71, 0
3, 27420, Note_on_c, 0, 54, 48
3, 27420, Note_on_c, 0, 70, 64
3, 27422, Note_on_c, 0, 55, 0
3, 27440, Note_on_c, 0, 55, 48
3, 27442, Note_on_c, 0, 54, 0
3, 27460, Note_on_c, 0, 54, 49
3, 27462, Note_on_c, 0, 55, 0
3, 27480, Note_on_c, 0, 70, 0
3, 27480, Note_on_c, 0, 55, 49
3, 27480, Note_on_c, 0, 71, 64
3, 27482, Note_on_c, 0, 54, 0
3, 27500, Note_on_c, 0, 54, 49
3, 27502, Note_on_c, 0, 55, 0
3, 27520, Note_on_c, 0, 55, 49
3, 27522, Note_on_c, 0, 54, 0
3, 27540, Note_on_c, 0, 71, 0
3, 27540, Note_on_c, 0, 54, 49
3, 27540, Note_on_c, 0, 73, 64
3, 27542, Note_on_c, 0, 55, 0
3, 27560, Note_on_c, 0, 55, 50
3, 27562, Note_on_c, 0, 54, 0
3, 27580, Note_on_c, 0, 54, 50
3, 27582, Note_on_c, 0, 55, 0
3, 27600, Note_on_c, 0, 73, 0
3, 27600, Note_on_c, 0, 55, 50
3, 27600, Note_on_c, 0, 74, 64
3, 27602, Note_on_c, 0, 54, 0
3, 27620, Note_on_c, 0, 54, 50
3, 27622, Note_on_c, 0, 55, 0
3, 27640, Note_on_c, 0, 55, 51
3, 27642, Note_on_c, 0, 54, 0
3, 27660, Note_on_c, 0, 74, 0
3, 27660, Note_on_c, 0, 54, 51
3, 27660, Note_on_c, 0, 71, 64
3, 27662, Note_on_c, 0, 55, 0
3, 27680, Note_on_c, 0, 55, 51
3, 27682, Note_on_c, 0, 54, 0
3, 27700, Note_on_c, 0, 54, 51
3, 27702, Note_on_c, 0, 55, 0
3, 27720, Note_on_c, 0, 71, 0
3, 27720, Note_on_c, 0, 55, 52
3, 27720, Note_on_c, 0, 73, 64
3, 27722, Note_on_c, 0, 54, 0
3, 27740, Note_on_c, 0, 54, 52
3, 27742, Note_on_c, 0, 55, 0
3, 27760, Note_on_c, 0, 55, 52
3, 27762, Note_on_c, 0, 54, 0
3, 27780, Note_on_c, 0, 73, 0
3, 27780, Note_on_c, 0, 54, 52
3, 27780, Note_on_c, 0, 71, 64
3, 27782, Note_on_c, 0, 55, 0
3, 27800, Note_on_c, 0, 55, 52
3, 27802, Note_on_c, 0, 54, 0
3, 27820, Note_on_c, 0, 54, 53
3, 27822, Note_on_c, 0, 55, 0
3, 27840, Note_on_c, 0, 71, 0
3, 27840, Note_on_c, 0, 55, 53
3, 27840, Note_on_c, 0, 70, 64
3, 27842, Note_on_c, 0, 54, 0
3, 27860, Note_on_c, 0, 54, 53
3, 27862, Note_on_c, 0, 55, 0
3, 27880, Note_on_c, 0, 55, 53
3, 27882, Note_on_c, 0, 54, 0
3, 27900, Note_on_c, 0, 70, 0
3, 27900, Note_on_c, 0, 54, 54
3, 27900, Note_on_c, 0, 68, 64
3, 27902, Note_on_c, 0, 55, 0
3, 27920, Note_on_c, 0, 55, 54
3, 27922, Note_on_c, 0, 54, 0
3, 27940, Note_on_c, 0, 54, 54
3, 27942, Note_on_c, 0, 55, 0
3, 27960, Note_on_c, 0, 68, 0
3, 27960, Note_on_c, 0, 55, 54
3, 27960, Note_on_c, 0, 66, 64
3, 27962, Note_on_c, 0, 54, 0
3, 27980, Note_on_c, 0, 54, 55
3, 27982, Note_on_c, 0, 55, 0
3, 28000, Note_on_c, 0, 55, 55
3, 28002, Note_on_c, 0, 54, 0
3, 28020, Note_on_c, 0, 66, 0
3, 28020, Note_on_c, 0, 54, 55
3, 28020, Note_on_c, 0, 64, 64
3, 28022, Note_on_c, 0, 55, 0
3, 28040, Note_on_c, 0, 55, 55
3, 28042, Note_on_c, 0, 54, 0
3, 28060, Note_on_c, 0, 54, 55
3, 28062, Note_on_c, 0, 55, 0
3, 28080, Note_on_c, 0, 64, 0
3, 28080, Note_on_c, 0, 55, 56
3, 28080, Note_on_c, 0, 62, 64
3, 28082, Note_on_c, 0, 54, 0
3, 28100, Note_on_c, 0, 54, 56
3, 28102, Note_on_c, 0, 55, 0
3, 28120, Note_on_c, 0, 55, 56
3, 28122, Note_on_c, 0, 54, 0
3, 28140, Note_on_c, 0, 62, 0
3, 28140, Note_on_c, 0, 54, 56
3, 28140, Note_on_c, 0, 66, 64
3, 28142, Note_on_c, 0, 55, 0
3, 28160, Note_on_c, 0, 55, 57
3, 28162, Note_on_c, 0, 54, 0
3, 28180, Note_on_c, 0, 54, 57
3, 28182, Note_on_c, 0, 55, 0
3, 28200, Note_on_c, 0, 66, 0
3, 28200, Note_on_c, 0, 55, 57
3, 28200, Note_on_c, 0, 68, 64
3, 28202, Note_on_c, 0, 54, 0
3, 28220, Note_on_c, 0, 54, 57
3, 28222, Note_on_c, 0, 55, 0
3, 28240, Note_on_c, 0, 55, 58
3, 28242, Note_on_c, 0, 54, 0
3, 28260, Note_on_c, 0, 68, 0
3, 28260, Note_on_c, 0, 54, 58
3, 28260, Note_on_c, 0, 70, 64
3, 28262, Note_on_c, 0, 55, 0
3, 28280, Note_on_c, 0, 55, 58
3, 28282, Note_on_c, 0, 54, 0
3, 28300, Note_on_c, 0, 54, 58
3, 28302, Note_on_c, 0, 55, 0
3, 28320, Note_on_c, 0, 70, 0
3, 28320, Note_on_c, 0, 55, 58
3, 28320, Note_on_c, 0, 71, 64
3, 28322, Note_on_c, 0, 54, 0
3, 28340, Note_on_c, 0, 54, 59
3, 28342, Note_on_c, 0, 55, 0
3, 28360, Note_on_c, 0, 55, 59
3, 28362, Note_on_c, 0, 54, 0
3, 28380, Note_on_c, 0, 71, 0
3, 28380, Note_on_c, 0, 54, 59
3, 28380, Note_on_c, 0, 68, 64
3, 28382, Note_on_c, 0, 55, 0
3, 28400, Note_on_c, 0, 55, 59
3, 28402, Note_on_c, 0, 54, 0
3, 28420, Note_on_c, 0, 54, 60
3, 28422, Note_on_c, 0, 55, 0
3, 28440, Note_on_c, 0, 68, 0
3, 28440, Note_on_c, 0, 55, 60
3, 28440, Note_on_c, 0, 70, 64
3, 28442, Note_on_c, 0, 54, 0
3, 28460, Note_on_c, 0, 54, 60
3, 28462, Note_on_c, 0, 55, 0
3, 28480, Note_on_c, 0, 55, 60
3, 28482, Note_on_c, 0, 54, 0
3, 28500, Note_on_c, 0, 70, 0
3, 28500, Note_on_c, 0, 54, 61
3, 28500, Note_on_c, 0, 68, 64
3, 28502, Note_on_c, 0, 55, 0
3, 28520, Note_on_c, 0, 55, 61
3, 28522, Note_on_c, 0, 54, 0
3, 28540, Note_on_c, 0, 54, 61
3, 28542, Note_on_c, 0, 55, 0
3, 28560, Note_on_c, 0, 68, 0
3, 28560, Note_on_c, 0, 55, 61
3, 28560, Note_on_c, 0, 66, 64
3, 28562, Note_on_c, 0, 54, 0
3, 28580, Note_on_c, 0, 54, 62
3, 28582, Note_on_c, 0, 55, 0
3, 28600, Note_on_c, 0, 55, 62
3, 28602, Note_on_c, 0, 54, 0
3, 28620, Note_on_c, 0, 66, 0
3, 28620, Note_on_c, 0, 54, 62
3, 28620, Note_on_c, 0, 64, 64
3, 28622, Note_on_c, 0, 55, 0
3, 28640, Note_on_c, 0, 55, 62
3, 28642, Note_on_c, 0, 54, 0
3, 28660, Note_on_c, 0, 54, 62
3, 28662, Note_on_c, 0, 55, 0
3, 28680, Note_on_c, 0, 64, 0
3, 28680, Note_on_c, 0, 55, 63
3, 28680, Note_on_c, 0, 62, 64
3, 28682, Note_on_c, 0, 54, 0
3, 28700, Note_on_c, 0, 54, 63
3, 28702, Note_on_c, 0, 55, 0
3, 28720, Note_on_c, 0, 55, 63
3, 28722, Note_on_c, 0, 54, 0
3, 28740, Note_on_c, 0, 62, 0
3, 28740, Note_on_c, 0, 61, 64
3, 28740, Note_on_c, 0, 54, 63
3, 28742, Note_on_c, 0, 55, 0
3, 28790, Note_on_c, 0, 61, 0
3, 28800, Note_on_c, 0, 61, 76
3, 28806, Note_on_c, 0, 54, 0
3, 28820, Note_on_c, 0, 61, 0
3, 28820, Note_on_c, 0, 59, 48
3, 28840, Note_on_c, 0, 61, 48
3, 28842, Note_on_c, 0, 59, 0
3, 28860, Note_on_c, 0, 59, 48
3, 28860, Note_on_c, 0, 51, 64
3, 28862, Note_on_c, 0, 61, 0
3, 28880, Note_on_c, 0, 61, 48
3, 28882, Note_on_c, 0, 59, 0
3, 28900, Note_on_c, 0, 59, 48
3, 28902, Note_on_c, 0, 61, 0
3, 28920, Note_on_c, 0, 51, 0
3, 28920, Note_on_c, 0, 61, 49
3, 28920, Note_on_c, 0, 52, 64
3, 28922, Note_on_c, 0, 59, 0
3, 28940, Note_on_c, 0, 59, 49
3, 28942, Note_on_c, 0, 61, 0
3, 28960, Note_on_c, 0, 61, 49
3, 28962, Note_on_c, 0, 59, 0
3, 28980, Note_on_c, 0, 52, 0
3, 28980, Note_on_c, 0, 59, 49
3, 28980, Note_on_c, 0, 54, 64
3, 28982, Note_on_c, 0, 61, 0
3, 29000, Note_on_c, 0, 61, 50
3, 29002, Note_on_c, 0, 59, 0
3, 29020, Note_on_c, 0, 59, 50
3, 29022, Note_on_c, 0, 61, 0
3, 29040, Note_on_c, 0, 54, 0
3, 29040, Note_on_c, 0, 61, 50
3, 29040, Note_on_c, 0, 55, 64
3, 29042, Note_on_c, 0, 59, 0
3, 29060, Note_on_c, 0, 59, 50
3, 29062, Note_on_c, 0, 61, 0
3, 29080, Note_on_c, 0, 61, 50
3, 29082, Note_on_c, 0, 59, 0
3, 29100, Note_on_c, 0, 55, 0
3, 29100, Note_on_c, 0, 59, 51
3, 29100, Note_on_c, 0, 52, 64
3, 29102, Note_on_c, 0, 61, 0
3, 29120, Note_on_c, 0, 61, 51
3, 29122, Note_on_c, 0, 59, 0
3, 29140, Note_on_c, 0, 59, 51
3, 29142, Note_on_c, 0, 61, 0
3, 29160, Note_on_c, 0, 52, 0
3, 29160, Note_on_c, 0, 61, 51
3, 29160, Note_on_c, 0, 54, 64
3, 29162, Note_on_c, 0, 59, 0
3, 29180, Note_on_c, 0, 59, 52
3, 29182, Note_on_c, 0, 61, 0
3, 29200, Note_on_c, 0, 61, 52
3, 29202, Note_on_c, 0, 59, 0
3, 29220, Note_on_c, 0, 54, 0
3, 29220, Note_on_c, 0, 59, 52
3, 29220, Note_on_c, 0, 52, 64
3, 29222, Note_on_c, 0, 61, 0
3, 29240, Note_on_c, 0, 61, 52
3, 29242, Note_on_c, 0, 59, 0
3, 29260, Note_on_c, 0, 59, 52
3, 29262, Note_on_c, 0, 61, 0
3, 29280, Note_on_c, 0, 52, 0
3, 29280, Note_on_c, 0, 61, 53
3, 29280, Note_on_c, 0, 51, 64
3, 29282, Note_on_c, 0, 59, 0
3, 29300, Note_on_c, 0, 59, 53
3, 29302, Note_on_c, 0, 61, 0
3, 29320, Note_on_c, 0, 61, 53
3, 29322, Note_on_c, 0, 59, 0
3, 29340, Note_on_c, 0, 51, 0
3, 29340, Note_on_c, 0, 59, 53
3, 29340, Note_on_c, 0, 49, 64
3, 29342, Note_on_c, 0, 61, 0
3, 29360, Note_on_c, 0, 61, 53
3, 29362, Note_on_c, 0, 59, 0
3, 29380, Note_on_c, 0, 59, 54
3, 29382, Note_on_c, 0, 61, 0
3, 29400, Note_on_c, 0, 49, 0
3, 29400, Note_on_c, 0, 61, 54
3, 29400, Note_on_c, 0, 47, 64
3, 29402, Note_on_c, 0, 59, 0
3, 29420, Note_on_c, 0, 59, 54
3, 29422, Note_on_c, 0, 61, 0
3, 29440, Note_on_c, 0, 61, 54
3, 29442, Note_on_c, 0, 59, 0
3, 29460, Note_on_c, 0, 47, 0
3, 29460, Note_on_c, 0, 59, 55
3, 29460, Note_on_c, 0, 45, 64
3, 29462, Note_on_c, 0, 61, 0
3, 29480, Note_on_c, 0, 61, 55
3, 29482, Note_on_c, 0, 59, 0
3, 29500, Note_on_c, 0, 59, 55
3, 29502, Note_on_c, 0, 61, 0
3, 29520, Note_on_c, 0, 45, 0
3, 29520, Note_on_c, 0, 61, 55
3, 29520, Note_on_c, 0, 43, 64
3, 29522, Note_on_c, 0, 59, 0
3, 29540, Note_on_c, 0, 59, 55
3, 29542, Note_on_c, 0, 61, 0
3, 29560, Note_on_c, 0, 61, 56
3, 29562, Note_on_c, 0, 59, 0
3, 29580, Note_on_c, 0, 43, 0
3, 29580, Note_on_c, 0, 59, 56
3, 29580, Note_on_c, 0, 47, 64
3, 29582, Note_on_c, 0, 61, 0
3, 29600, Note_on_c, 0, 61, 56
3, 29602, Note_on_c, 0, 59, 0
3, 29620, Note_on_c, 0, 59, 56
3, 29622, Note_on_c, 0, 61, 0
3, 29640, Note_on_c, 0, 47, 0
3, 29640, Note_on_c, 0, 61, 57
3, 29640, Note_on_c, 0, 49, 64
3, 29642, Note_on_c, 0, 59, 0
3, 29660, Note_on_c, 0, 59, 57
3, 29662, Note_on_c, 0, 61, 0
3, 29680, Note_on_c, 0, 61, 57
3, 29682, Note_on_c, 0, 59, 0
3, 29700, Note_on_c, 0, 49, 0
3, 29700, Note_on_c, 0, 59, 57
3, 29700, Note_on_c, 0, 51, 64
3, 29702, Note_on_c, 0, 61, 0
3, 29720, Note_on_c, 0, 61, 57
3, 29722, Note_on_c, 0, 59, 0
3, 29740, Note_on_c, 0, 59, 58
3, 29742, Note_on_c, 0, 61, 0
3, 29760, Note_on_c, 0, 51, 0
3, 29760, Note_on_c, 0, 61, 58
3, 29760, Note_on_c, 0, 52, 64
3, 29762, Note_on_c, 0, 59, 0
3, 29780, Note_on_c, 0, 59, 58
3, 29782, Note_on_c, 0, 61, 0
3, 29800, Note_on_c, 0, 61, 58
3, 29802, Note_on_c, 0, 59, 0
3, 29820, Note_on_c, 0, 52, 0
3, 29820, Note_on_c, 0, 59, 59
3, 29820, Note_on_c, 0, 49, 64
3, 29822, Note_on_c, 0, 61, 0
3, 29840, Note_on_c, 0, 61, 59
3, 29842, Note_on_c, 0, 59, 0
3, 29860, Note_on_c, 0, 59, 59
3, 29862, Note_on_c, 0, 61, 0
3, 29880, Note_on_c, 0, 49, 0
3, 29880, Note_on_c, 0, 61, 59
3, 29880, Note_on_c, 0, 51, 64
3, 29882, Note_on_c, 0, 59, 0
3, 29900, Note_on_c, 0, 59, 59
3, 29902, Note_on_c, 0, 61, 0
3, 29920, Note_on_c, 0, 61, 60
3, 29922, Note_on_c, 0, 59, 0
3, 29940, Note_on_c, 0, 51, 0
3, 29940, Note_on_c, 0, 59, 60
3, 29940, Note_on_c, 0, 49, 64
3, 29942, Note_on_c, 0, 61, 0
3, 29960, Note_on_c, 0, 61, 60
3, 29962, Note_on_c, 0, 59, 0
3, 29980, Note_on_c, 0, 59, 60
3, 29982, Note_on_c, 0, 61, 0
3, 30000, Note_on_c, 0, 49, 0
3, 30000, Note_on_c, 0, 61, 60
3, 30000, Note_on_c, 0, 47, 64
3, 30002, Note_on_c, 0, 59, 0
3, 30020, Note_on_c, 0, 59, 61
3, 30022, Note_on_c, 0, 61, 0
3, 30040, Note_on_c, 0, 61, 61
3, 30042, Note_on_c, 0, 59, 0
3, 30060, Note_on_c, 0, 47, 0
3, 30060, Note_on_c, 0, 59, 61
3, 30060, Note_on_c, 0, 45, 64
3, 30062, Note_on_c, 0, 61, 0
3, 30080, Note_on_c, 0, 61, 61
3, 30082, Note_on_c, 0, 59, 0
3, 30100, Note_on_c, 0, 59, 62
3, 30102, Note_on_c, 0, 61, 0
3, 30120, Note_on_c, 0, 45, 0
3, 30120, Note_on_c, 0, 61, 62
3, 30120, Note_on_c, 0, 43, 64
3, 30122, Note_on_c, 0, 59, 0
3, 30140, Note_on_c, 0, 59, 62
3, 30142, Note_on_c, 0, 61, 0
3, 30160, Note_on_c, 0, 61, 62
3, 30162, Note_on_c, 0, 59, 0
3, 30180, Note_on_c, 0, 43, 0
3, 30180, Note_on_c, 0, 59, 62
3, 30180, Note_on_c, 0, 42, 64
3, 30182, Note_on_c, 0, 61, 0
3, 30200, Note_on_c, 0, 61, 63
3, 30202, Note_on_c, 0, 59, 0
3, 30220, Note_on_c, 0, 59, 63
3, 30222, Note_on_c, 0, 61, 0
3, 30240, Note_on_c, 0, 42, 0
3, 30240, Note_on_c, 0, 61, 63
3, 30240, Note_on_c, 0, 40, 64
3, 30242, Note_on_c, 0, 59, 0
3, 30260, Note_on_c, 0, 59, 63
3, 30262, Note_on_c, 0, 61, 0
3, 30300, Note_on_c, 0, 40, 0
3, 30300, Note_on_c, 0, 50, 64
3, 30348, Note_on_c, 0, 59, 0
3, 30360, Note_on_c, 0, 50, 0
3, 30360, Note_on_c, 0, 64, 64
3, 30360, Note_on_c, 0, 49, 64
3, 30375, Note_on_c, 0, 64, 0
3, 30375, Note_on_c, 0, 62, 64
3, 30390, Note_on_c, 0, 62, 0
3, 30390, Note_on_c, 0, 64, 64
3, 30420, Note_on_c, 0, 49, 0
3, 30420, Note_on_c, 0, 47, 64
3, 30480, Note_on_c, 0, 47, 0
3, 30480, Note_on_c, 0, 46, 64
3, 30540, Note_on_c, 0, 46, 0
3, 30540, Note_on_c, 0, 49, 64
3, 30600, Note_on_c, 0, 49, 0
3, 30600, Note_on_c, 0, 42, 64
3, 30660, Note_on_c, 0, 64, 0
3, 30660, Note_on_c, 0, 66, 64
3, 30720, Note_on_c, 0, 66, 0
3, 30720, Note_on_c, 0, 42, 0
3, 30720, Note_on_c, 0, 55, 72
3, 30720, Note_on_c, 0, 64, 64
3, 30740, Note_on_c, 0, 55, 0
3, 30740, Note_on_c, 0, 54, 64
3, 30760, Note_on_c, 0, 54, 0
3, 30760, Note_on_c, 0, 55, 64
3, 30780, Note_on_c, 0, 64, 0
3, 30780, Note_on_c, 0, 62, 64
3, 30840, Note_on_c, 0, 62, 0
3, 30840, Note_on_c, 0, 61, 64
3, 30900, Note_on_c, 0, 61, 0
3, 30900, Note_on_c, 0, 64, 64
3, 30960, Note_on_c, 0, 64, 0
3, 30960, Note_on_c, 0, 58, 64
3, 31020, Note_on_c, 0, 55, 0
3, 31020, Note_on_c, 0, 54, 64
3, 31080, Note_on_c, 0, 54, 0
3, 31080, Note_on_c, 0, 58, 0
3, 31080, Note_on_c, 0, 73, 64
3, 31080, Note_on_c, 0, 52, 64
3, 31100, Note_on_c, 0, 73, 0
3, 31100, Note_on_c, 0, 71, 64
3, 31120, Note_on_c, 0, 71, 0
3, 31120, Note_on_c, 0, 73, 64
3, 31140, Note_on_c, 0, 52, 0
3, 31140, Note_on_c, 0, 50, 64
3, 31200, Note_on_c, 0, 50, 0
3, 31200, Note_on_c, 0, 49, 64
3, 31260, Note_on_c, 0, 49, 0
3, 31260, Note_on_c, 0, 52, 64
3, 31320, Note_on_c, 0, 52, 0
3, 31320, Note_on_c, 0, 46, 64
3, 31380, Note_on_c, 0, 73, 0
3, 31380, Note_on_c, 0, 74, 64
3, 31440, Note_on_c, 0, 74, 0
3, 31440, Note_on_c, 0, 46, 0
3, 31440, Note_on_c, 0, 64, 64
3, 31440, Note_on_c, 0, 73, 64
3, 31500, Note_on_c, 0, 73, 0
3, 31500, Note_on_c, 0, 71, 64
3, 31560, Note_on_c, 0, 71, 0
3, 31560, Note_on_c, 0, 70, 64
3, 31620, Note_on_c, 0, 70, 0
3, 31620, Note_on_c, 0, 73, 64
3, 31680, Note_on_c, 0, 73, 0
3, 31680, Note_on_c, 0, 66, 64
3, 31740, Note_on_c, 0, 64, 0
3, 31740, Note_on_c, 0, 62, 64
3, 31800, Note_on_c, 0, 62, 0
3, 31800, Note_on_c, 0, 66, 0
3, 31800, Note_on_c, 0, 79, 64
3, 31800, Note_on_c, 0, 61, 64
3, 31820, Note_on_c, 0, 79, 0
3, 31820, Note_on_c, 0, 78, 64
3, 31840, Note_on_c, 0, 78, 0
3, 31840, Note_on_c, 0, 79, 64
3, 31860, Note_on_c, 0, 61, 0
3, 31860, Note_on_c, 0, 59, 64
3, 31920, Note_on_c, 0, 59, 0
3, 31920, Note_on_c, 0, 58, 64
3, 31980, Note_on_c, 0, 58, 0
3, 31980, Note_on_c, 0, 61, 64
3, 32040, Note_on_c, 0, 61, 0
3, 32040, Note_on_c, 0, 54, 64
3, 32100, Note_on_c, 0, 79, 0
3, 32100, Note_on_c, 0, 78, 64
3, 32160, Note_on_c, 0, 78, 0
3, 32160, Note_on_c, 0, 54, 0
3, 32160, Note_on_c, 0, 76, 64
3, 32160, Note_on_c, 0, 56, 64
3, 32220, Note_on_c, 0, 76, 0
3, 32220, Note_on_c, 0, 74, 64
3, 32280, Note_on_c, 0, 74, 0
3, 32280, Note_on_c, 0, 56, 0
3, 32280, Note_on_c, 0, 58, 64
3, 32280, Note_on_c, 0, 73, 64
3, 32340, Note_on_c, 0, 73, 0
3, 32340, Note_on_c, 0, 76, 64
3, 32400, Note_on_c, 0, 76, 0
3, 32400, Note_on_c, 0, 58, 0
3, 32400, Note_on_c, 0, 76, 64
3, 32400, Note_on_c, 0, 59, 64
3, 32420, Note_on_c, 0, 76, 0
3, 32420, Note_on_c, 0, 74, 64
3, 32440, Note_on_c, 0, 74, 0
3, 32440, Note_on_c, 0, 73, 64
3, 32460, Note_on_c, 0, 73, 0
3, 32460, Note_on_c, 0, 59, 0
3, 32460, Note_on_c, 0, 74, 64
3, 32460, Note_on_c, 0, 58, 64
3, 32480, Note_on_c, 0, 74, 0
3, 32480, Note_on_c, 0, 76, 64
3, 32500, Note_on_c, 0, 76, 0
3, 32500, Note_on_c, 0, 74, 64
3, 32520, Note_on_c, 0, 74, 0
3, 32520, Note_on_c, 0, 58, 0
3, 32520, Note_on_c, 0, 76, 64
3, 32520, Note_on_c, 0, 59, 64
3, 32540, Note_on_c, 0, 76, 0
3, 32540, Note_on_c, 0, 74, 64
3, 32580, Note_on_c, 0, 59, 0
3, 32580, Note_on_c, 0, 61, 64
3, 32640, Note_on_c, 0, 61, 0
3, 32640, Note_on_c, 0, 62, 64
3, 32700, Note_on_c, 0, 62, 0
3, 32700, Note_on_c, 0, 59, 64
3, 32760, Note_on_c, 0, 59, 0
3, 32760, Note_on_c, 0, 53, 64
3, 32820, Note_on_c, 0, 53, 0
3, 32820, Note_on_c, 0, 74, 0
3, 32820, Note_on_c, 0, 73, 64
3, 32820, Note_on_c, 0, 54, 64
3, 32880, Note_on_c, 0, 54, 0
3, 32880, Note_on_c, 0, 73, 0
3, 32880, Note_on_c, 0, 71, 64
3, 32880, Note_on_c, 0, 56, 64
3, 32940, Note_on_c, 0, 56, 0
3, 32940, Note_on_c, 0, 71, 0
3, 32940, Note_on_c, 0, 69, 64
3, 32940, Note_on_c, 0, 57, 64
3, 33000, Note_on_c, 0, 57, 0
3, 33000, Note_on_c, 0, 69, 0
3, 33000, Note_on_c, 0, 68, 64
3, 33000, Note_on_c, 0, 59, 64
3, 33060, Note_on_c, 0, 59, 0
3, 33060, Note_on_c, 0, 68, 0
3, 33060, Note_on_c, 0, 71, 64
3, 33060, Note_on_c, 0, 56, 64
3, 33120, Note_on_c, 0, 56, 0
3, 33120, Note_on_c, 0, 71, 0
3, 33120, Note_on_c, 0, 65, 64
3, 33120, Note_on_c, 0, 49, 64
3, 33180, Note_on_c, 0, 65, 0
3, 33180, Note_on_c, 0, 74, 64
3, 33240, Note_on_c, 0, 74, 0
3, 33240, Note_on_c, 0, 49, 0
3, 33240, Note_on_c, 0, 73, 64
3, 33240, Note_on_c, 0, 53, 64
3, 33300, Note_on_c, 0, 73, 0
3, 33300, Note_on_c, 0, 71, 64
3, 33360, Note_on_c, 0, 71, 0
3, 33360, Note_on_c, 0, 53, 0
3, 33360, Note_on_c, 0, 54, 64
3, 33360, Note_on_c, 0, 70, 64
3, 33420, Note_on_c, 0, 70, 0
3, 33420, Note_on_c, 0, 73, 64
3, 33480, Note_on_c, 0, 73, 0
3, 33480, Note_on_c, 0, 54, 0
3, 33480, Note_on_c, 0, 76, 64
3, 33480, Note_on_c, 0, 55, 64
3, 33540, Note_on_c, 0, 76, 0
3, 33540, Note_on_c, 0, 79, 64
3, 33600, Note_on_c, 0, 79, 0
3, 33600, Note_on_c, 0, 55, 0
3, 33600, Note_on_c, 0, 78, 64
3, 33600, Note_on_c, 0, 46, 64
3, 33660, Note_on_c, 0, 78, 0
3, 33660, Note_on_c, 0, 76, 64
3, 33720, Note_on_c, 0, 76, 0
3, 33720, Note_on_c, 0, 46, 0
3, 33720, Note_on_c, 0, 47, 64
3, 33720, Note_on_c, 0, 74, 64
3, 33780, Note_on_c, 0, 74, 0
3, 33780, Note_on_c, 0, 78, 64
3, 33840, Note_on_c, 0, 78, 0
3, 33840, Note_on_c, 0, 47, 0
3, 33840, Note_on_c, 0, 71, 64
3, 33840, Note_on_c, 0, 43, 64
3, 33960, Note_on_c, 0, 43, 0
3, 33960, Note_on_c, 0, 71, 0
3, 33960, Note_on_c, 0, 73, 64
3, 33960, Note_on_c, 0, 40, 64
3, 34080, Note_on_c, 0, 40, 0
3, 34080, Note_on_c, 0, 73, 0
3, 34080, Note_on_c, 0, 71, 64
3, 34080, Note_on_c, 0, 42, 64
3, 34100, Note_on_c, 0, 71, 0
3, 34100, Note_on_c, 0, 70, 64
3, 34120, Note_on_c, 0, 70, 0
3, 34120, Note_on_c, 0, 68, 64
3, 34140, Note_on_c, 0, 68, 0
3, 34140, Note_on_c, 0, 70, 64
3, 34200, Note_on_c, 0, 70, 0
3, 34200, Note_on_c, 0, 42, 0
3, 34200, Note_on_c, 0, 47, 64
3, 34200, Note_on_c, 0, 71, 64
3, 34560, Note_on_c, 0, 71, 0
3, 34560, Note_on_c, 0, 47, 0
3, 34560, Note_on_c, 0, 78, 64
3, 34620, Note_on_c, 0, 59, 64
3, 34680, Note_on_c, 0, 59, 0
3, 34680, Note_on_c, 0, 57, 64
3, 34740, Note_on_c, 0, 57, 0
3, 34740, Note_on_c, 0, 55, 64
3, 34800, Note_on_c, 0, 55, 0
3, 34800, Note_on_c, 0, 54, 64
3, 34860, Note_on_c, 0, 54, 0
3, 34860, Note_on_c, 0, 57, 64
3, 34920, Note_on_c, 0, 57, 0
3, 34920, Note_on_c, 0, 55, 64
3, 34980, Note_on_c, 0, 55, 0
3, 34980, Note_on_c, 0, 59, 64
3, 35040, Note_on_c, 0, 59, 0
3, 35040, Note_on_c, 0, 78, 0
3, 35040, Note_on_c, 0, 76, 64
3, 35040, Note_on_c, 0, 61, 64
3, 35100, Note_on_c, 0, 61, 0
3, 35100, Note_on_c, 0, 76, 0
3, 35100, Note_on_c, 0, 78, 64
3, 35100, Note_on_c, 0, 62, 64
3, 35160, Note_on_c, 0, 62, 0
3, 35160, Note_on_c, 0, 78, 0
3, 35160, Note_on_c, 0, 79, 64
3, 35160, Note_on_c, 0, 64, 64
3, 35220, Note_on_c, 0, 64, 0
3, 35220, Note_on_c, 0, 57, 64
3, 35280, Note_on_c, 0, 57, 0
3, 35280, Note_on_c, 0, 79, 0
3, 35280, Note_on_c, 0, 78, 64
3, 35280, Note_on_c, 0, 62, 64
3, 35340, Note_on_c, 0, 62, 0
3, 35340, Note_on_c, 0, 55, 64
3, 35390, Note_on_c, 0, 78, 0
3, 35400, Note_on_c, 0, 55, 0
3, 35400, Note_on_c, 0, 78, 64
3, 35400, Note_on_c, 0, 57, 64
3, 35415, Note_on_c, 0, 78, 0
3, 35415, Note_on_c, 0, 76, 64
3, 35430, Note_on_c, 0, 76, 0
3, 35430, Note_on_c, 0, 78, 64
3, 35445, Note_on_c, 0, 78, 0
3, 35445, Note_on_c, 0, 76, 64
3, 35460, Note_on_c, 0, 76, 0
3, 35460, Note_on_c, 0, 57, 0
3, 35460, Note_on_c, 0, 78, 64
3, 35460, Note_on_c, 0, 59, 64
3, 35475, Note_on_c, 0, 78, 0
3, 35475, Note_on_c, 0, 76, 64
3, 35475, Note_on_c, 0, 76, 64
3, 35490, Note_on_c, 0, 76, 0
3, 35520, Note_on_c, 0, 76, 0
3, 35520, Note_on_c, 0, 59, 0
3, 35520, Note_on_c, 0, 69, 64
3, 35520, Note_on_c, 0, 60, 64
3, 35580, Note_on_c, 0, 60, 0
3, 35580, Note_on_c, 0, 54, 64
3, 35640, Note_on_c, 0, 54, 0
3, 35640, Note_on_c, 0, 69, 0
3, 35640, Note_on_c, 0, 74, 64
3, 35640, Note_on_c, 0, 59, 64
3, 35700, Note_on_c, 0, 59, 0
3, 35700, Note_on_c, 0, 52, 64
3, 35760, Note_on_c, 0, 52, 0
3, 35760, Note_on_c, 0, 74, 0
3, 35760, Note_on_c, 0, 72, 64
3, 35760, Note_on_c, 0, 54, 64
3, 35820, Note_on_c, 0, 54, 0
3, 35820, Note_on_c, 0, 72, 0
3, 35820, Note_on_c, 0, 71, 64
3, 35820, Note_on_c, 0, 55, 64
3, 35880, Note_on_c, 0, 55, 0
3, 35880, Note_on_c, 0, 71, 0
3, 35880, Note_on_c, 0, 72, 64
3, 35880, Note_on_c, 0, 57, 64
3, 35940, Note_on_c, 0, 57, 0
3, 35940, Note_on_c, 0, 51, 64
3, 36000, Note_on_c, 0, 51, 0
3, 36000, Note_on_c, 0, 55, 64
3, 36060, Note_on_c, 0, 72, 0
3, 36060, Note_on_c, 0, 71, 64
3, 36120, Note_on_c, 0, 71, 0
3, 36120, Note_on_c, 0, 55, 0
3, 36120, Note_on_c, 0, 69, 64
3, 36120, Note_on_c, 0, 57, 64
3, 36180, Note_on_c, 0, 69, 0
3, 36180, Note_on_c, 0, 67, 64
3, 36240, Note_on_c, 0, 67, 0
3, 36240, Note_on_c, 0, 57, 0
3, 36240, Note_on_c, 0, 59, 64
3, 36240, Note_on_c, 0, 66, 64
3, 36300, Note_on_c, 0, 66, 0
3, 36300, Note_on_c, 0, 69, 64
3, 36360, Note_on_c, 0, 69, 0
3, 36360, Note_on_c, 0, 59, 0
3, 36360, Note_on_c, 0, 67, 64
3, 36360, Note_on_c, 0, 52, 64
3, 36420, Note_on_c, 0, 67, 0
3, 36420, Note_on_c, 0, 71, 64
3, 36480, Note_on_c, 0, 71, 0
3, 36480, Note_on_c, 0, 52, 0
3, 36480, Note_on_c, 0, 72, 64
3, 36480, Note_on_c, 0, 50, 64
3, 36540, Note_on_c, 0, 72, 0
3, 36540, Note_on_c, 0, 74, 64
3, 36600, Note_on_c, 0, 74, 0
3, 36600, Note_on_c, 0, 50, 0
3, 36600, Note_on_c, 0, 48, 64
3, 36600, Note_on_c, 0, 76, 64
3, 36660, Note_on_c, 0, 76, 0
3, 36660, Note_on_c, 0, 69, 64
3, 36720, Note_on_c, 0, 69, 0
3, 36720, Note_on_c, 0, 48, 0
3, 36720, Note_on_c, 0, 74, 64
3, 36720, Note_on_c, 0, 47, 64
3, 36780, Note_on_c, 0, 74, 0
3, 36780, Note_on_c, 0, 68, 64
3, 36840, Note_on_c, 0, 68, 0
3, 36840, Note_on_c, 0, 47, 0
3, 36840, Note_on_c, 0, 69, 64
3, 36840, Note_on_c, 0, 40, 64
3, 36900, Note_on_c, 0, 69, 0
3, 36900, Note_on_c, 0, 71, 64
3, 36960, Note_on_c, 0, 71, 0
3, 36960, Note_on_c, 0, 40, 0
3, 36960, Note_on_c, 0, 45, 64
3, 36960, Note_on_c, 0, 72, 64
3, 37020, Note_on_c, 0, 72, 0
3, 37020, Note_on_c, 0, 66, 64
3, 37080, Note_on_c, 0, 66, 0
3, 37080, Note_on_c, 0, 45, 0
3, 37080, Note_on_c, 0, 71, 64
3, 37080, Note_on_c, 0, 38, 64
3, 37140, Note_on_c, 0, 38, 0
3, 37140, Note_on_c, 0, 71, 0
3, 37140, Note_on_c, 0, 64, 64
3, 37140, Note_on_c, 0, 36, 64
3, 37200, Note_on_c, 0, 36, 0
3, 37200, Note_on_c, 0, 64, 0
3, 37200, Note_on_c, 0, 66, 64
3, 37200, Note_on_c, 0, 38, 64
3, 37260, Note_on_c, 0, 38, 0
3, 37260, Note_on_c, 0, 66, 0
3, 37260, Note_on_c, 0, 68, 64
3, 37260, Note_on_c, 0, 40, 64
3, 37320, Note_on_c, 0, 40, 0
3, 37320, Note_on_c, 0, 68, 0
3, 37320, Note_on_c, 0, 41, 64
3, 37320, Note_on_c, 0, 69, 64
3, 37380, Note_on_c, 0, 69, 0
3, 37380, Note_on_c, 0, 63, 64
3, 37440, Note_on_c, 0, 63, 0
3, 37440, Note_on_c, 0, 41, 0
3, 37440, Note_on_c, 0, 68, 64
3, 37440, Note_on_c, 0, 40, 64
3, 37500, Note_on_c, 0, 40, 0
3, 37500, Note_on_c, 0, 52, 64
3, 37560, Note_on_c, 0, 52, 0
3, 37560, Note_on_c, 0, 68, 0
3, 37560, Note_on_c, 0, 71, 64
3, 37560, Note_on_c, 0, 50, 64
3, 37580, Note_on_c, 0, 71, 0
3, 37580, Note_on_c, 0, 69, 64
3, 37600, Note_on_c, 0, 69, 0
3, 37600, Note_on_c, 0, 68, 64
3, 37620, Note_on_c, 0, 68, 0
3, 37620, Note_on_c, 0, 50, 0
3, 37620, Note_on_c, 0, 69, 64
3, 37620, Note_on_c, 0, 48, 64
3, 37680, Note_on_c, 0, 48, 0
3, 37680, Note_on_c, 0, 69, 0
3, 37680, Note_on_c, 0, 71, 64
3, 37680, Note_on_c, 0, 47, 64
3, 37740, Note_on_c, 0, 47, 0
3, 37740, Note_on_c, 0, 50, 64
3, 37800, Note_on_c, 0, 50, 0
3, 37800, Note_on_c, 0, 71, 0
3, 37800, Note_on_c, 0, 64, 64
3, 37800, Note_on_c, 0, 48, 64
3, 37860, Note_on_c, 0, 64, 0
3, 37860, Note_on_c, 0, 76, 64
3, 37920, Note_on_c, 0, 76, 0
3, 37920, Note_on_c, 0, 48, 0
3, 37920, Note_on_c, 0, 52, 64
3, 37920, Note_on_c, 0, 74, 64
3, 37940, Note_on_c, 0, 52, 0
3, 37940, Note_on_c, 0, 50, 64
3, 37960, Note_on_c, 0, 50, 0
3, 37960, Note_on_c, 0, 48, 64
3, 37980, Note_on_c, 0, 48, 0
3, 37980, Note_on_c, 0, 74, 0
3, 37980, Note_on_c, 0, 50, 64
3, 37980, Note_on_c, 0, 72, 64
3, 38040, Note_on_c, 0, 72, 0
3, 38040, Note_on_c, 0, 50, 0
3, 38040, Note_on_c, 0, 52, 64
3, 38040, Note_on_c, 0, 71, 64
3, 38100, Note_on_c, 0, 71, 0
3, 38100, Note_on_c, 0, 74, 64
3, 38160, Note_on_c, 0, 74, 0
3, 38160, Note_on_c, 0, 52, 0
3, 38160, Note_on_c, 0, 72, 64
3, 38160, Note_on_c, 0, 45, 64
3, 38220, Note_on_c, 0, 45, 0
3, 38220, Note_on_c, 0, 57, 64
3, 38280, Note_on_c, 0, 57, 0
3, 38280, Note_on_c, 0, 72, 0
3, 38280, Note_on_c, 0, 76, 64
3, 38280, Note_on_c, 0, 55, 64
3, 38300, Note_on_c, 0, 76, 0
3, 38300, Note_on_c, 0, 74, 64
3, 38320, Note_on_c, 0, 74, 0
3, 38320, Note_on_c, 0, 72, 64
3, 38340, Note_on_c, 0, 72, 0
3, 38340, Note_on_c, 0, 55, 0
3, 38340, Note_on_c, 0, 74, 64
3, 38340, Note_on_c, 0, 53, 64
3, 38400, Note_on_c, 0, 53, 0
3, 38400, Note_on_c, 0, 74, 0
3, 38400, Note_on_c, 0, 76, 64
3, 38400, Note_on_c, 0, 52, 64
3, 38460, Note_on_c, 0, 52, 0
3, 38460, Note_on_c, 0, 55, 64
3, 38520, Note_on_c, 0, 55, 0
3, 38520, Note_on_c, 0, 76, 0
3, 38520, Note_on_c, 0, 69, 64
3, 38520, Note_on_c, 0, 53, 64
3, 38580, Note_on_c, 0, 69, 0
3, 38580, Note_on_c, 0, 81, 64
3, 38640, Note_on_c, 0, 81, 0
3, 38640, Note_on_c, 0, 53, 0
3, 38640, Note_on_c, 0, 79, 64
3, 38640, Note_on_c, 0, 55, 64
3, 38700, Note_on_c, 0, 79, 0
3, 38700, Note_on_c, 0, 77, 64
3, 38760, Note_on_c, 0, 77, 0
3, 38760, Note_on_c, 0, 55, 0
3, 38760, Note_on_c, 0, 57, 64
3, 38760, Note_on_c, 0, 76, 64
3, 38820, Note_on_c, 0, 76, 0
3, 38820, Note_on_c, 0, 79, 64
3, 38880, Note_on_c, 0, 79, 0
3, 38880, Note_on_c, 0, 57, 0
3, 38880, Note_on_c, 0, 77, 64
3, 38880, Note_on_c, 0, 50, 64
3, 38940, Note_on_c, 0, 50, 0
3, 38940, Note_on_c, 0, 62, 64
3, 39000, Note_on_c, 0, 62, 0
3, 39000, Note_on_c, 0, 77, 0
3, 39000, Note_on_c, 0, 79, 64
3, 39000, Note_on_c, 0, 60, 64
3, 39060, Note_on_c, 0, 60, 0
3, 39060, Note_on_c, 0, 59, 64
3, 39120, Note_on_c, 0, 59, 0
3, 39120, Note_on_c, 0, 79, 0
3, 39120, Note_on_c, 0, 81, 64
3, 39120, Note_on_c, 0, 57, 64
3, 39180, Note_on_c, 0, 57, 0
3, 39180, Note_on_c, 0, 60, 64
3, 39240, Note_on_c, 0, 60, 0
3, 39240, Note_on_c, 0, 59, 64
3, 39300, Note_on_c, 0, 81, 0
3, 39300, Note_on_c, 0, 74, 64
3, 39360, Note_on_c, 0, 74, 0
3, 39360, Note_on_c, 0, 59, 0
3, 39360, Note_on_c, 0, 72, 64
3, 39360, Note_on_c, 0, 60, 64
3, 39420, Note_on_c, 0, 72, 0
3, 39420, Note_on_c, 0, 71, 64
3, 39480, Note_on_c, 0, 71, 0
3, 39480, Note_on_c, 0, 60, 0
3, 39480, Note_on_c, 0, 62, 64
3, 39480, Note_on_c, 0, 69, 64
3, 39540, Note_on_c, 0, 69, 0
3, 39540, Note_on_c, 0, 72, 64
3, 39600, Note_on_c, 0, 72, 0
3, 39600, Note_on_c, 0, 62, 0
3, 39600, Note_on_c, 0, 71, 64
3, 39660, Note_on_c, 0, 55, 64
3, 39720, Note_on_c, 0, 55, 0
3, 39720, Note_on_c, 0, 71, 0
3, 39720, Note_on_c, 0, 72, 64
3, 39720, Note_on_c, 0, 53, 64
3, 39780, Note_on_c, 0, 53, 0
3, 39780, Note_on_c, 0, 52, 64
3, 39840, Note_on_c, 0, 52, 0
3, 39840, Note_on_c, 0, 72, 0
3, 39840, Note_on_c, 0, 74, 64
3, 39840, Note_on_c, 0, 50, 64
3, 39900, Note_on_c, 0, 50, 0
3, 39900, Note_on_c, 0, 53, 64
3, 39960, Note_on_c, 0, 53, 0
3, 39960, Note_on_c, 0, 43, 64
3, 40020, Note_on_c, 0, 43, 0
3, 40020, Note_on_c, 0, 74, 0
3, 40020, Note_on_c, 0, 67, 64
3, 40020, Note_on_c, 0, 53, 64
3, 40080, Note_on_c, 0, 53, 0
3, 40080, Note_on_c, 0, 67, 0
3, 40080, Note_on_c, 0, 72, 64
3, 40080, Note_on_c, 0, 52, 64
3, 40140, Note_on_c, 0, 52, 0
3, 40140, Note_on_c, 0, 72, 0
3, 40140, Note_on_c, 0, 74, 64
3, 40140, Note_on_c, 0, 50, 64
3, 40200, Note_on_c, 0, 50, 0
3, 40200, Note_on_c, 0, 74, 0
3, 40200, Note_on_c, 0, 76, 64
3, 40200, Note_on_c, 0, 48, 64
3, 40260, Note_on_c, 0, 48, 0
3, 40260, Note_on_c, 0, 52, 64
3, 40320, Note_on_c, 0, 52, 0
3, 40320, Note_on_c, 0, 43, 64
3, 40380, Note_on_c, 0, 43, 0
3, 40380, Note_on_c, 0, 76, 0
3, 40380, Note_on_c, 0, 72, 64
3, 40380, Note_on_c, 0, 52, 64
3, 40440, Note_on_c, 0, 52, 0
3, 40440, Note_on_c, 0, 72, 0
3, 40440, Note_on_c, 0, 74, 64
3, 40440, Note_on_c, 0, 50, 64
3, 40500, Note_on_c, 0, 50, 0
3, 40500, Note_on_c, 0, 74, 0
3, 40500, Note_on_c, 0, 76, 64
3, 40500, Note_on_c, 0, 48, 64
3, 40560, Note_on_c, 0, 48, 0
3, 40560, Note_on_c, 0, 76, 0
3, 40560, Note_on_c, 0, 77, 64
3, 40560, Note_on_c, 0, 47, 64
3, 40620, Note_on_c, 0, 47, 0
3, 40620, Note_on_c, 0, 50, 64
3, 40680, Note_on_c, 0, 50, 0
3, 40680, Note_on_c, 0, 43, 64
3, 40740, Note_on_c, 0, 77, 0
3, 40740, Note_on_c, 0, 79, 64
3, 40800, Note_on_c, 0, 79, 0
3, 40800, Note_on_c, 0, 43, 0
3, 40800, Note_on_c, 0, 77, 64
3, 40800, Note_on_c, 0, 45, 64
3, 40860, Note_on_c, 0, 77, 0
3, 40860, Note_on_c, 0, 76, 64
3, 40920, Note_on_c, 0, 76, 0
3, 40920, Note_on_c, 0, 45, 0
3, 40920, Note_on_c, 0, 47, 64
3, 40920, Note_on_c, 0, 74, 64
3, 40980, Note_on_c, 0, 74, 0
3, 40980, Note_on_c, 0, 77, 64
3, 41040, Note_on_c, 0, 77, 0
3, 41040, Note_on_c, 0, 47, 0
3, 41040, Note_on_c, 0, 76, 64
3, 41040, Note_on_c, 0, 48, 64
3, 41100, Note_on_c, 0, 48, 0
3, 41100, Note_on_c, 0, 76, 0
3, 41100, Note_on_c, 0, 64, 64
3, 41100, Note_on_c, 0, 62, 64
3, 41160, Note_on_c, 0, 62, 0
3, 41160, Note_on_c, 0, 64, 0
3, 41160, Note_on_c, 0, 66, 64
3, 41160, Note_on_c, 0, 60, 64
3, 41220, Note_on_c, 0, 60, 0
3, 41220, Note_on_c, 0, 66, 0
3, 41220, Note_on_c, 0, 68, 64
3, 41220, Note_on_c, 0, 59, 64
3, 41280, Note_on_c, 0, 59, 0
3, 41280, Note_on_c, 0, 68, 0
3, 41280, Note_on_c, 0, 69, 64
3, 41280, Note_on_c, 0, 57, 64
3, 41340, Note_on_c, 0, 57, 0
3, 41340, Note_on_c, 0, 69, 0
3, 41340, Note_on_c, 0, 60, 64
3, 41340, Note_on_c, 0, 66, 64
3, 41400, Note_on_c, 0, 66, 0
3, 41400, Note_on_c, 0, 60, 0
3, 41400, Note_on_c, 0, 74, 64
3, 41400, Note_on_c, 0, 47, 64
3, 41460, Note_on_c, 0, 47, 0
3, 41460, Note_on_c, 0, 74, 0
3, 41460, Note_on_c, 0, 66, 64
3, 41460, Note_on_c, 0, 60, 64
3, 41520, Note_on_c, 0, 60, 0
3, 41520, Note_on_c, 0, 66, 0
3, 41520, Note_on_c, 0, 68, 64
3, 41520, Note_on_c, 0, 59, 64
3, 41580, Note_on_c, 0, 59, 0
3, 41580, Note_on_c, 0, 68, 0
3, 41580, Note_on_c, 0, 69, 64
3, 41580, Note_on_c, 0, 57, 64
3, 41640, Note_on_c, 0, 57, 0
3, 41640, Note_on_c, 0, 69, 0
3, 41640, Note_on_c, 0, 71, 64
3, 41640, Note_on_c, 0, 56, 64
3, 41700, Note_on_c, 0, 56, 0
3, 41700, Note_on_c, 0, 71, 0
3, 41700, Note_on_c, 0, 59, 64
3, 41700, Note_on_c, 0, 68, 64
3, 41760, Note_on_c, 0, 68, 0
3, 41760, Note_on_c, 0, 59, 0
3, 41760, Note_on_c, 0, 72, 64
3, 41760, Note_on_c, 0, 45, 64
3, 41820, Note_on_c, 0, 45, 0
3, 41820, Note_on_c, 0, 72, 0
3, 41820, Note_on_c, 0, 68, 64
3, 41820, Note_on_c, 0, 59, 64
3, 41880, Note_on_c, 0, 59, 0
3, 41880, Note_on_c, 0, 68, 0
3, 41880, Note_on_c, 0, 69, 64
3, 41880, Note_on_c, 0, 57, 64
3, 41940, Note_on_c, 0, 57, 0
3, 41940, Note_on_c, 0, 69, 0
3, 41940, Note_on_c, 0, 71, 64
3, 41940, Note_on_c, 0, 56, 64
3, 42000, Note_on_c, 0, 56, 0
3, 42000, Note_on_c, 0, 71, 0
3, 42000, Note_on_c, 0, 72, 64
3, 42000, Note_on_c, 0, 54, 64
3, 42060, Note_on_c, 0, 54, 0
3, 42060, Note_on_c, 0, 72, 0
3, 42060, Note_on_c, 0, 57, 64
3, 42060, Note_on_c, 0, 69, 64
3, 42120, Note_on_c, 0, 69, 0
3, 42120, Note_on_c, 0, 57, 0
3, 42120, Note_on_c, 0, 72, 64
3, 42120, Note_on_c, 0, 51, 64
3, 42180, Note_on_c, 0, 72, 0
3, 42180, Note_on_c, 0, 71, 64
3, 42240, Note_on_c, 0, 71, 0
3, 42240, Note_on_c, 0, 51, 0
3, 42240, Note_on_c, 0, 69, 64
3, 42240, Note_on_c, 0, 52, 64
3, 42300, Note_on_c, 0, 69, 0
3, 42300, Note_on_c, 0, 68, 64
3, 42360, Note_on_c, 0, 68, 0
3, 42360, Note_on_c, 0, 52, 0
3, 42360, Note_on_c, 0, 53, 64
3, 42360, Note_on_c, 0, 69, 64
3, 42480, Note_on_c, 0, 53, 0
3, 42480, Note_on_c, 0, 52, 64
3, 42540, Note_on_c, 0, 52, 0
3, 42540, Note_on_c, 0, 69, 0
3, 42540, Note_on_c, 0, 71, 64
3, 42540, Note_on_c, 0, 50, 64
3, 42600, Note_on_c, 0, 50, 0
3, 42600, Note_on_c, 0, 71, 0
3, 42600, Note_on_c, 0, 71, 64
3, 42600, Note_on_c, 0, 52, 64
3, 42720, Note_on_c, 0, 52, 0
3, 42720, Note_on_c, 0, 40, 64
3, 42780, Note_on_c, 0, 71, 0
3, 42780, Note_on_c, 0, 69, 64
3, 42840, Note_on_c, 0, 69, 0
3, 42840, Note_on_c, 0, 40, 0
3, 42840, Note_on_c, 0, 69, 64
3, 42840, Note_on_c, 0, 45, 64
3, 42900, Note_on_c, 0, 45, 0
3, 42900, Note_on_c, 0, 57, 64
3, 42960, Note_on_c, 0, 57, 0
3, 42960, Note_on_c, 0, 55, 64
3, 43020, Note_on_c, 0, 55, 0
3, 43020, Note_on_c, 0, 54, 64
3, 43080, Note_on_c, 0, 54, 0
3, 43080, Note_on_c, 0, 52, 64
3, 43140, Note_on_c, 0, 52, 0
3, 43140, Note_on_c, 0, 55, 64
3, 43200, Note_on_c, 0, 55, 0
3, 43200, Note_on_c, 0, 69, 0
3, 43200, Note_on_c, 0, 54, 64
3, 43260, Note_on_c, 0, 74, 64
3, 43320, Note_on_c, 0, 74, 0
3, 43320, Note_on_c, 0, 54, 0
3, 43320, Note_on_c, 0, 72, 64
3, 43320, Note_on_c, 0, 50, 64
3, 43380, Note_on_c, 0, 72, 0
3, 43380, Note_on_c, 0, 71, 64
3, 43440, Note_on_c, 0, 71, 0
3, 43440, Note_on_c, 0, 50, 0
3, 43440, Note_on_c, 0, 54, 64
3, 43440, Note_on_c, 0, 69, 64
3, 43500, Note_on_c, 0, 69, 0
3, 43500, Note_on_c, 0, 72, 64
3, 43560, Note_on_c, 0, 72, 0
3, 43560, Note_on_c, 0, 54, 0
3, 43560, Note_on_c, 0, 71, 64
3, 43560, Note_on_c, 0, 55, 64
3, 43620, Note_on_c, 0, 71, 0
3, 43620, Note_on_c, 0, 74, 64
3, 43680, Note_on_c, 0, 74, 0
3, 43680, Note_on_c, 0, 55, 0
3, 43680, Note_on_c, 0, 76, 64
3, 43680, Note_on_c, 0, 54, 64
3, 43740, Note_on_c, 0, 76, 0
3, 43740, Note_on_c, 0, 78, 64
3, 43800, Note_on_c, 0, 78, 0
3, 43800, Note_on_c, 0, 54, 0
3, 43800, Note_on_c, 0, 52, 64
3, 43800, Note_on_c, 0, 79, 64
3, 43860, Note_on_c, 0, 79, 0
3, 43860, Note_on_c, 0, 73, 64
3, 43920, Note_on_c, 0, 73, 0
3, 43920, Note_on_c, 0, 52, 0
3, 43920, Note_on_c, 0, 78, 64
3, 43920, Note_on_c, 0, 50, 64
3, 43980, Note_on_c, 0, 50, 0
3, 43980, Note_on_c, 0, 78, 0
3, 43980, Note_on_c, 0, 71, 64
3, 43980, Note_on_c, 0, 55, 64
3, 44040, Note_on_c, 0, 55, 0
3, 44040, Note_on_c, 0, 71, 0
3, 44040, Note_on_c, 0, 72, 64
3, 44040, Note_on_c, 0, 57, 64
3, 44100, Note_on_c, 0, 57, 0
3, 44100, Note_on_c, 0, 72, 0
3, 44100, Note_on_c, 0, 74, 64
3, 44100, Note_on_c, 0, 59, 64
3, 44160, Note_on_c, 0, 59, 0
3, 44160, Note_on_c, 0, 74, 0
3, 44160, Note_on_c, 0, 60, 64
3, 44160, Note_on_c, 0, 76, 64
3, 44220, Note_on_c, 0, 76, 0
3, 44220, Note_on_c, 0, 69, 64
3, 44280, Note_on_c, 0, 69, 0
3, 44280, Note_on_c, 0, 74, 64
3, 44340, Note_on_c, 0, 74, 0
3, 44340, Note_on_c, 0, 60, 0
3, 44340, Note_on_c, 0, 67, 64
3, 44340, Note_on_c, 0, 59, 64
3, 44400, Note_on_c, 0, 59, 0
3, 44400, Note_on_c, 0, 67, 0
3, 44400, Note_on_c, 0, 69, 64
3, 44400, Note_on_c, 0, 57, 64
3, 44460, Note_on_c, 0, 57, 0
3, 44460, Note_on_c, 0, 69, 0
3, 44460, Note_on_c, 0, 71, 64
3, 44460, Note_on_c, 0, 55, 64
3, 44520, Note_on_c, 0, 55, 0
3, 44520, Note_on_c, 0, 71, 0
3, 44520, Note_on_c, 0, 57, 64
3, 44520, Note_on_c, 0, 72, 64
3, 44580, Note_on_c, 0, 72, 0
3, 44580, Note_on_c, 0, 66, 64
3, 44640, Note_on_c, 0, 66, 0
3, 44640, Note_on_c, 0, 71, 64
3, 44700, Note_on_c, 0, 57, 0
3, 44700, Note_on_c, 0, 59, 64
3, 44760, Note_on_c, 0, 59, 0
3, 44760, Note_on_c, 0, 71, 0
3, 44760, Note_on_c, 0, 73, 64
3, 44760, Note_on_c, 0, 57, 64
3, 44780, Note_on_c, 0, 73, 0
3, 44780, Note_on_c, 0, 75, 64
3, 44800, Note_on_c, 0, 75, 0
3, 44800, Note_on_c, 0, 76, 64
3, 44820, Note_on_c, 0, 76, 0
3, 44820, Note_on_c, 0, 57, 0
3, 44820, Note_on_c, 0, 75, 64
3, 44820, Note_on_c, 0, 55, 64
3, 44840, Note_on_c, 0, 75, 0
3, 44840, Note_on_c, 0, 76, 64
3, 44860, Note_on_c, 0, 76, 0
3, 44860, Note_on_c, 0, 75, 64
3, 44880, Note_on_c, 0, 75, 0
3, 44880, Note_on_c, 0, 55, 0
3, 44880, Note_on_c, 0, 76, 64
3, 44880, Note_on_c, 0, 54, 64
3, 44900, Note_on_c, 0, 76, 0
3, 44900, Note_on_c, 0, 75, 64
3, 44940, Note_on_c, 0, 75, 0
3, 44940, Note_on_c, 0, 54, 0
3, 44940, Note_on_c, 0, 57, 64
3, 44940, Note_on_c, 0, 73, 64
3, 44970, Note_on_c, 0, 73, 0
3, 44970, Note_on_c, 0, 75, 64
3, 45000, Note_on_c, 0, 75, 0
3, 45000, Note_on_c, 0, 57, 0
3, 45000, Note_on_c, 0, 76, 64
3, 45000, Note_on_c, 0, 55, 64
3, 45060, Note_on_c, 0, 55, 0
3, 45060, Note_on_c, 0, 59, 64
3, 45120, Note_on_c, 0, 59, 0
3, 45120, Note_on_c, 0, 76, 0
3, 45120, Note_on_c, 0, 79, 64
3, 45120, Note_on_c, 0, 61, 64
3, 45136, Note_on_c, 0, 78, 64
3, 45140, Note_on_c, 0, 79, 0
3, 45156, Note_on_c, 0, 78, 0
3, 45160, Note_on_c, 0, 76, 64
3, 45180, Note_on_c, 0, 76, 0
3, 45180, Note_on_c, 0, 61, 0
3, 45180, Note_on_c, 0, 78, 64
3, 45180, Note_on_c, 0, 63, 64
3, 45240, Note_on_c, 0, 63, 0
3, 45240, Note_on_c, 0, 78, 0
3, 45240, Note_on_c, 0, 79, 64
3, 45240, Note_on_c, 0, 64, 64
3, 45300, Note_on_c, 0, 64, 0
3, 45300, Note_on_c, 0, 57, 64
3, 45360, Note_on_c, 0, 57, 0
3, 45360, Note_on_c, 0, 62, 64
3, 45420, Note_on_c, 0, 62, 0
3, 45420, Note_on_c, 0, 79, 0
3, 45420, Note_on_c, 0, 78, 64
3, 45420, Note_on_c, 0, 55, 64
3, 45480, Note_on_c, 0, 55, 0
3, 45480, Note_on_c, 0, 78, 0
3, 45480, Note_on_c, 0, 76, 64
3, 45480, Note_on_c, 0, 57, 64
3, 45540, Note_on_c, 0, 57, 0
3, 45540, Note_on_c, 0, 76, 0
3, 45540, Note_on_c, 0, 75, 64
3, 45540, Note_on_c, 0, 59, 64
3, 45600, Note_on_c, 0, 59, 0
3, 45600, Note_on_c, 0, 75, 0
3, 45600, Note_on_c, 0, 76, 64
3, 45600, Note_on_c, 0, 60, 64
3, 45660, Note_on_c, 0, 60, 0
3, 45660, Note_on_c, 0, 54, 64
3, 45720, Note_on_c, 0, 54, 0
3, 45720, Note_on_c, 0, 59, 64
3, 45780, Note_on_c, 0, 59, 0
3, 45780, Note_on_c, 0, 76, 0
3, 45780, Note_on_c, 0, 74, 64
3, 45780, Note_on_c, 0, 52, 64
3, 45840, Note_on_c, 0, 52, 0
3, 45840, Note_on_c, 0, 74, 0
3, 45840, Note_on_c, 0, 72, 64
3, 45840, Note_on_c, 0, 54, 64
3, 45900, Note_on_c, 0, 54, 0
3, 45900, Note_on_c, 0, 72, 0
3, 45900, Note_on_c, 0, 71, 64
3, 45900, Note_on_c, 0, 55, 64
3, 45960, Note_on_c, 0, 55, 0
3, 45960, Note_on_c, 0, 71, 0
3, 45960, Note_on_c, 0, 72, 64
3, 45960, Note_on_c, 0, 57, 64
3, 46020, Note_on_c, 0, 57, 0
3, 46020, Note_on_c, 0, 72, 0
3, 46020, Note_on_c, 0, 81, 64
3, 46020, Note_on_c, 0, 50, 64
3, 46080, Note_on_c, 0, 50, 0
3, 46080, Note_on_c, 0, 81, 0
3, 46080, Note_on_c, 0, 71, 64
3, 46080, Note_on_c, 0, 55, 64
3, 46140, Note_on_c, 0, 55, 0
3, 46140, Note_on_c, 0, 71, 0
3, 46140, Note_on_c, 0, 62, 64
3, 46140, Note_on_c, 0, 54, 64
3, 46200, Note_on_c, 0, 54, 0
3, 46200, Note_on_c, 0, 62, 0
3, 46200, Note_on_c, 0, 64, 64
3, 46200, Note_on_c, 0, 55, 64
3, 46260, Note_on_c, 0, 55, 0
3, 46260, Note_on_c, 0, 64, 0
3, 46260, Note_on_c, 0, 66, 64
3, 46260, Note_on_c, 0, 57, 64
3, 46320, Note_on_c, 0, 57, 0
3, 46320, Note_on_c, 0, 66, 0
3, 46320, Note_on_c, 0, 67, 64
3, 46320, Note_on_c, 0, 59, 64
3, 46380, Note_on_c, 0, 59, 0
3, 46380, Note_on_c, 0, 61, 64
3, 46440, Note_on_c, 0, 61, 0
3, 46440, Note_on_c, 0, 62, 64
3, 46500, Note_on_c, 0, 62, 0
3, 46500, Note_on_c, 0, 67, 0
3, 46500, Note_on_c, 0, 66, 64
3, 46500, Note_on_c, 0, 57, 64
3, 46560, Note_on_c, 0, 57, 0
3, 46560, Note_on_c, 0, 66, 0
3, 46560, Note_on_c, 0, 68, 64
3, 46560, Note_on_c, 0, 59, 64
3, 46620, Note_on_c, 0, 59, 0
3, 46620, Note_on_c, 0, 68, 0
3, 46620, Note_on_c, 0, 69, 64
3, 46620, Note_on_c, 0, 60, 64
3, 46680, Note_on_c, 0, 60, 0
3, 46680, Note_on_c, 0, 69, 0
3, 46680, Note_on_c, 0, 62, 64
3, 46680, Note_on_c, 0, 71, 64
3, 46740, Note_on_c, 0, 71, 0
3, 46740, Note_on_c, 0, 68, 64
3, 46800, Note_on_c, 0, 68, 0
3, 46800, Note_on_c, 0, 69, 64
3, 46860, Note_on_c, 0, 69, 0
3, 46860, Note_on_c, 0, 62, 0
3, 46860, Note_on_c, 0, 64, 64
3, 46860, Note_on_c, 0, 61, 64
3, 46920, Note_on_c, 0, 61, 0
3, 46920, Note_on_c, 0, 64, 0
3, 46920, Note_on_c, 0, 66, 64
3, 46920, Note_on_c, 0, 63, 64
3, 46980, Note_on_c, 0, 63, 0
3, 46980, Note_on_c, 0, 66, 0
3, 46980, Note_on_c, 0, 67, 64
3, 46980, Note_on_c, 0, 64, 64
3, 47040, Note_on_c, 0, 64, 0
3, 47040, Note_on_c, 0, 67, 0
3, 47040, Note_on_c, 0, 69, 64
3, 47040, Note_on_c, 0, 66, 64
3, 47100, Note_on_c, 0, 66, 0
3, 47100, Note_on_c, 0, 63, 64
3, 47160, Note_on_c, 0, 63, 0
3, 47160, Note_on_c, 0, 64, 64
3, 47220, Note_on_c, 0, 64, 0
3, 47220, Note_on_c, 0, 69, 0
3, 47220, Note_on_c, 0, 67, 64
3, 47220, Note_on_c, 0, 52, 64
3, 47280, Note_on_c, 0, 52, 0
3, 47280, Note_on_c, 0, 67, 0
3, 47280, Note_on_c, 0, 69, 64
3, 47280, Note_on_c, 0, 54, 64
3, 47340, Note_on_c, 0, 54, 0
3, 47340, Note_on_c, 0, 69, 0
3, 47340, Note_on_c, 0, 71, 64
3, 47340, Note_on_c, 0, 55, 64
3, 47400, Note_on_c, 0, 55, 0
3, 47400, Note_on_c, 0, 71, 0
3, 47400, Note_on_c, 0, 72, 64
3, 47400, Note_on_c, 0, 57, 64
3, 47460, Note_on_c, 0, 57, 0
3, 47460, Note_on_c, 0, 72, 0
3, 47460, Note_on_c, 0, 69, 64
3, 47460, Note_on_c, 0, 54, 64
3, 47520, Note_on_c, 0, 54, 0
3, 47520, Note_on_c, 0, 69, 0
3, 47520, Note_on_c, 0, 71, 64
3, 47520, Note_on_c, 0, 55, 64
3, 47580, Note_on_c, 0, 71, 0
3, 47580, Note_on_c, 0, 75, 64
3, 47640, Note_on_c, 0, 75, 0
3, 47640, Note_on_c, 0, 55, 0
3, 47640, Note_on_c, 0, 76, 64
3, 47640, Note_on_c, 0, 54, 64
3, 47700, Note_on_c, 0, 76, 0
3, 47700, Note_on_c, 0, 78, 64
3, 47760, Note_on_c, 0, 78, 0
3, 47760, Note_on_c, 0, 54, 0
3, 47760, Note_on_c, 0, 52, 64
3, 47760, Note_on_c, 0, 79, 64
3, 47820, Note_on_c, 0, 79, 0
3, 47820, Note_on_c, 0, 76, 64
3, 47880, Note_on_c, 0, 76, 0
3, 47880, Note_on_c, 0, 52, 0
3, 47880, Note_on_c, 0, 61, 72
3, 47880, Note_on_c, 0, 78, 64
3, 47900, Note_on_c, 0, 61, 0
3, 47900, Note_on_c, 0, 59, 48
3, 47920, Note_on_c, 0, 61, 48
3, 47922, Note_on_c, 0, 59, 0
3, 47940, Note_on_c, 0, 78, 0
3, 47940, Note_on_c, 0, 59, 48
3, 47940, Note_on_c, 0, 76, 64
3, 47942, Note_on_c, 0, 61, 0
3, 47960, Note_on_c, 0, 61, 49
3, 47962, Note_on_c, 0, 59, 0
3, 47980, Note_on_c, 0, 59, 49
3, 47982, Note_on_c, 0, 61, 0
3, 48000, Note_on_c, 0, 76, 0
3, 48000, Note_on_c, 0, 61, 49
3, 48000, Note_on_c, 0, 75, 64
3, 48002, Note_on_c, 0, 59, 0
3, 48020, Note_on_c, 0, 59, 50
3, 48022, Note_on_c, 0, 61, 0
3, 48040, Note_on_c, 0, 61, 50
3, 48042, Note_on_c, 0, 59, 0
3, 48060, Note_on_c, 0, 75, 0
3, 48060, Note_on_c, 0, 59, 50
3, 48060, Note_on_c, 0, 73, 64
3, 48062, Note_on_c, 0, 61, 0
3, 48080, Note_on_c, 0, 61, 51
3, 48082, Note_on_c, 0, 59, 0
3, 48100, Note_on_c, 0, 59, 51
3, 48102, Note_on_c, 0, 61, 0
3, 48120, Note_on_c, 0, 73, 0
3, 48120, Note_on_c, 0, 61, 51
3, 48120, Note_on_c, 0, 71, 64
3, 48122, Note_on_c, 0, 59, 0
3, 48140, Note_on_c, 0, 59, 51
3, 48142, Note_on_c, 0, 61, 0
3, 48160, Note_on_c, 0, 61, 52
3, 48162, Note_on_c, 0, 59, 0
3, 48180, Note_on_c, 0, 71, 0
3, 48180, Note_on_c, 0, 59, 52
3, 48180, Note_on_c, 0, 69, 64
3, 48182, Note_on_c, 0, 61, 0
3, 48200, Note_on_c, 0, 61, 52
3, 48202, Note_on_c, 0, 59, 0
3, 48220, Note_on_c, 0, 59, 53
3, 48222, Note_on_c, 0, 61, 0
3, 48240, Note_on_c, 0, 69, 0
3, 48240, Note_on_c, 0, 61, 53
3, 48240, Note_on_c, 0, 67, 64
3, 48242, Note_on_c, 0, 59, 0
3, 48260, Note_on_c, 0, 59, 53
3, 48262, Note_on_c, 0, 61, 0
3, 48280, Note_on_c, 0, 61, 54
3, 48282, Note_on_c, 0, 59, 0
3, 48300, Note_on_c, 0, 67, 0
3, 48300, Note_on_c, 0, 59, 54
3, 48300, Note_on_c, 0, 71, 64
3, 48302, Note_on_c, 0, 61, 0
3, 48320, Note_on_c, 0, 61, 54
3, 48322, Note_on_c, 0, 59, 0
3, 48340, Note_on_c, 0, 59, 55
3, 48342, Note_on_c, 0, 61, 0
3, 48360, Note_on_c, 0, 71, 0
3, 48360, Note_on_c, 0, 61, 55
3, 48360, Note_on_c, 0, 73, 64
3, 48362, Note_on_c, 0, 59, 0
3, 48380, Note_on_c, 0, 59, 55
3, 48382, Note_on_c, 0, 61, 0
3, 48400, Note_on_c, 0, 61, 56
3, 48402, Note_on_c, 0, 59, 0
3, 48420, Note_on_c, 0, 73, 0
3, 48420, Note_on_c, 0, 59, 56
3, 48420, Note_on_c, 0, 75, 64
3, 48422, Note_on_c, 0, 61, 0
3, 48440, Note_on_c, 0, 61, 56
3, 48442, Note_on_c, 0, 59, 0
3, 48460, Note_on_c, 0, 59, 56
3, 48462, Note_on_c, 0, 61, 0
3, 48480, Note_on_c, 0, 75, 0
3, 48480, Note_on_c, 0, 61, 57
3, 48480, Note_on_c, 0, 76, 64
3, 48482, Note_on_c, 0, 59, 0
3, 48500, Note_on_c, 0, 59, 57
3, 48502, Note_on_c, 0, 61, 0
3, 48520, Note_on_c, 0, 61, 57
3, 48522, Note_on_c, 0, 59, 0
3, 48540, Note_on_c, 0, 76, 0
3, 48540, Note_on_c, 0, 59, 58
3, 48540, Note_on_c, 0, 73, 64
3, 48542, Note_on_c, 0, 61, 0
3, 48560, Note_on_c, 0, 61, 58
3, 48562, Note_on_c, 0, 59, 0
3, 48580, Note_on_c, 0, 59, 58
3, 48582, Note_on_c, 0, 61, 0
3, 48600, Note_on_c, 0, 73, 0
3, 48600, Note_on_c, 0, 61, 59
3, 48600, Note_on_c, 0, 75, 64
3, 48602, Note_on_c, 0, 59, 0
3, 48620, Note_on_c, 0, 59, 59
3, 48622, Note_on_c, 0, 61, 0
3, 48640, Note_on_c, 0, 61, 59
3, 48642, Note_on_c, 0, 59, 0
3, 48660, Note_on_c, 0, 75, 0
3, 48660, Note_on_c, 0, 59, 60
3, 48660, Note_on_c, 0, 73, 64
3, 48662, Note_on_c, 0, 61, 0
3, 48680, Note_on_c, 0, 61, 60
3, 48682, Note_on_c, 0, 59, 0
3, 48700, Note_on_c, 0, 59, 60
3, 48702, Note_on_c, 0, 61, 0
3, 48720, Note_on_c, 0, 73, 0
3, 48720, Note_on_c, 0, 61, 61
3, 48720, Note_on_c, 0, 71, 64
3, 48722, Note_on_c, 0, 59, 0
3, 48740, Note_on_c, 0, 59, 61
3, 48742, Note_on_c, 0, 61, 0
3, 48760, Note_on_c, 0, 61, 61
3, 48762, Note_on_c, 0, 59, 0
3, 48780, Note_on_c, 0, 71, 0
3, 48780, Note_on_c, 0, 59, 61
3, 48780, Note_on_c, 0, 69, 64
3, 48782, Note_on_c, 0, 61, 0
3, 48800, Note_on_c, 0, 61, 62
3, 48802, Note_on_c, 0, 59, 0
3, 48820, Note_on_c, 0, 59, 62
3, 48822, Note_on_c, 0, 61, 0
3, 48840, Note_on_c, 0, 69, 0
3, 48840, Note_on_c, 0, 61, 62
3, 48840, Note_on_c, 0, 67, 64
3, 48842, Note_on_c, 0, 59, 0
3, 48860, Note_on_c, 0, 59, 63
3, 48862, Note_on_c, 0, 61, 0
3, 48880, Note_on_c, 0, 61, 63
3, 48882, Note_on_c, 0, 59, 0
3, 48900, Note_on_c, 0, 67, 0
3, 48900, Note_on_c, 0, 59, 63
3, 48900, Note_on_c, 0, 66, 64
3, 48902, Note_on_c, 0, 61, 0
3, 48950, Note_on_c, 0, 66, 0
3, 48960, Note_on_c, 0, 66, 72
3, 48966, Note_on_c, 0, 59, 0
3, 48980, Note_on_c, 0, 66, 0
3, 48980, Note_on_c, 0, 64, 48
3, 49000, Note_on_c, 0, 66, 48
3, 49002, Note_on_c, 0, 64, 0
3, 49020, Note_on_c, 0, 64, 48
3, 49020, Note_on_c, 0, 56, 64
3, 49022, Note_on_c, 0, 66, 0
3, 49040, Note_on_c, 0, 66, 48
3, 49042, Note_on_c, 0, 64, 0
3, 49060, Note_on_c, 0, 64, 49
3, 49062, Note_on_c, 0, 66, 0
3, 49080, Note_on_c, 0, 56, 0
3, 49080, Note_on_c, 0, 66, 49
3, 49080, Note_on_c, 0, 57, 64
3, 49082, Note_on_c, 0, 64, 0
3, 49100, Note_on_c, 0, 64, 49
3, 49102, Note_on_c, 0, 66, 0
3, 49120, Note_on_c, 0, 66, 50
3, 49122, Note_on_c, 0, 64, 0
3, 49140, Note_on_c, 0, 57, 0
3, 49140, Note_on_c, 0, 64, 50
3, 49140, Note_on_c, 0, 59, 64
3, 49142, Note_on_c, 0, 66, 0
3, 49160, Note_on_c, 0, 66, 50
3, 49162, Note_on_c, 0, 64, 0
3, 49180, Note_on_c, 0, 64, 51
3, 49182, Note_on_c, 0, 66, 0
3, 49200, Note_on_c, 0, 59, 0
3, 49200, Note_on_c, 0, 66, 51
3, 49200, Note_on_c, 0, 60, 64
3, 49202, Note_on_c, 0, 64, 0
3, 49220, Note_on_c, 0, 64, 51
3, 49222, Note_on_c, 0, 66, 0
3, 49240, Note_on_c, 0, 66, 51
3, 49242, Note_on_c, 0, 64, 0
3, 49260, Note_on_c, 0, 60, 0
3, 49260, Note_on_c, 0, 64, 52
3, 49260, Note_on_c, 0, 57, 64
3, 49262, Note_on_c, 0, 66, 0
3, 49280, Note_on_c, 0, 66, 52
3, 49282, Note_on_c, 0, 64, 0
3, 49300, Note_on_c, 0, 64, 52
3, 49302, Note_on_c, 0, 66, 0
3, 49320, Note_on_c, 0, 57, 0
3, 49320, Note_on_c, 0, 66, 53
3, 49320, Note_on_c, 0, 59, 64
3, 49322, Note_on_c, 0, 64, 0
3, 49340, Note_on_c, 0, 64, 53
3, 49342, Note_on_c, 0, 66, 0
3, 49360, Note_on_c, 0, 66, 53
3, 49362, Note_on_c, 0, 64, 0
3, 49380, Note_on_c, 0, 59, 0
3, 49380, Note_on_c, 0, 64, 53
3, 49380, Note_on_c, 0, 57, 64
3, 49382, Note_on_c, 0, 66, 0
3, 49400, Note_on_c, 0, 66, 54
3, 49402, Note_on_c, 0, 64, 0
3, 49420, Note_on_c, 0, 64, 54
3, 49422, Note_on_c, 0, 66, 0
3, 49440, Note_on_c, 0, 57, 0
3, 49440, Note_on_c, 0, 66, 54
3, 49440, Note_on_c, 0, 56, 64
3, 49442, Note_on_c, 0, 64, 0
3, 49460, Note_on_c, 0, 64, 55
3, 49462, Note_on_c, 0, 66, 0
3, 49480, Note_on_c, 0, 66, 55
3, 49482, Note_on_c, 0, 64, 0
3, 49500, Note_on_c, 0, 56, 0
3, 49500, Note_on_c, 0, 64, 55
3, 49500, Note_on_c, 0, 54, 64
3, 49502, Note_on_c, 0, 66, 0
3, 49520, Note_on_c, 0, 66, 55
3, 49522, Note_on_c, 0, 64, 0
3, 49540, Note_on_c, 0, 64, 56
3, 49542, Note_on_c, 0, 66, 0
3, 49560, Note_on_c, 0, 54, 0
3, 49560, Note_on_c, 0, 66, 56
3, 49560, Note_on_c, 0, 52, 64
3, 49562, Note_on_c, 0, 64, 0
3, 49580, Note_on_c, 0, 64, 56
3, 49582, Note_on_c, 0, 66, 0
3, 49600, Note_on_c, 0, 66, 57
3, 49602, Note_on_c, 0, 64, 0
3, 49620, Note_on_c, 0, 52, 0
3, 49620, Note_on_c, 0, 64, 57
3, 49620, Note_on_c, 0, 50, 64
3, 49622, Note_on_c, 0, 66, 0
3, 49640, Note_on_c, 0, 66, 57
3, 49642, Note_on_c, 0, 64, 0
3, 49660, Note_on_c, 0, 64, 57
3, 49662, Note_on_c, 0, 66, 0
3, 49680, Note_on_c, 0, 50, 0
3, 49680, Note_on_c, 0, 66, 58
3, 49680, Note_on_c, 0, 48, 64
3, 49682, Note_on_c, 0, 64, 0
3, 49700, Note_on_c, 0, 64, 58
3, 49702, Note_on_c, 0, 66, 0
3, 49720, Note_on_c, 0, 66, 58
3, 49722, Note_on_c, 0, 64, 0
3, 49740, Note_on_c, 0, 48, 0
3, 49740, Note_on_c, 0, 64, 59
3, 49740, Note_on_c, 0, 52, 64
3, 49742, Note_on_c, 0, 66, 0
3, 49760, Note_on_c, 0, 66, 59
3, 49762, Note_on_c, 0, 64, 0
3, 49780, Note_on_c, 0, 64, 59
3, 49782, Note_on_c, 0, 66, 0
3, 49800, Note_on_c, 0, 52, 0
3, 49800, Note_on_c, 0, 66, 60
3, 49800, Note_on_c, 0, 54, 64
3, 49802, Note_on_c, 0, 64, 0
3, 49820, Note_on_c, 0, 64, 60
3, 49822, Note_on_c, 0, 66, 0
3, 49840, Note_on_c, 0, 66, 60
3, 49842, Note_on_c, 0, 64, 0
3, 49860, Note_on_c, 0, 54, 0
3, 49860, Note_on_c, 0, 64, 60
3, 49860, Note_on_c, 0, 56, 64
3, 49862, Note_on_c, 0, 66, 0
3, 49880, Note_on_c, 0, 66, 61
3, 49882, Note_on_c, 0, 64, 0
3, 49900, Note_on_c, 0, 64, 61
3, 49902, Note_on_c, 0, 66, 0
3, 49920, Note_on_c, 0, 56, 0
3, 49920, Note_on_c, 0, 66, 61
3, 49920, Note_on_c, 0, 57, 64
3, 49922, Note_on_c, 0, 64, 0
3, 49940, Note_on_c, 0, 64, 62
3, 49942, Note_on_c, 0, 66, 0
3, 49960, Note_on_c, 0, 66, 62
3, 49962, Note_on_c, 0, 64, 0
3, 49980, Note_on_c, 0, 57, 0
3, 49980, Note_on_c, 0, 64, 62
3, 49980, Note_on_c, 0, 54, 64
3, 49982, Note_on_c, 0, 66, 0
3, 50000, Note_on_c, 0, 66, 62
3, 50002, Note_on_c, 0, 64, 0
3, 50020, Note_on_c, 0, 64, 63
3, 50022, Note_on_c, 0, 66, 0
3, 50040, Note_on_c, 0, 54, 0
3, 50040, Note_on_c, 0, 66, 63
3, 50040, Note_on_c, 0, 56, 64
3, 50042, Note_on_c, 0, 64, 0
3, 50060, Note_on_c, 0, 64, 63
3, 50062, Note_on_c, 0, 66, 0
3, 50100, Note_on_c, 0, 56, 0
3, 50100, Note_on_c, 0, 54, 64
3, 50160, Note_on_c, 0, 54, 0
3, 50160, Note_on_c, 0, 74, 64
3, 50160, Note_on_c, 0, 52, 64
3, 50170, Note_on_c, 0, 64, 0
3, 50180, Note_on_c, 0, 74, 0
3, 50180, Note_on_c, 0, 72, 64
3, 50200, Note_on_c, 0, 72, 0
3, 50200, Note_on_c, 0, 74, 64
3, 50220, Note_on_c, 0, 52, 0
3, 50220, Note_on_c, 0, 50, 64
3, 50280, Note_on_c, 0, 50, 0
3, 50280, Note_on_c, 0, 48, 64
3, 50340, Note_on_c, 0, 48, 0
3, 50340, Note_on_c, 0, 47, 64
3, 50400, Note_on_c, 0, 47, 0
3, 50400, Note_on_c, 0, 45, 64
3, 50460, Note_on_c, 0, 74, 0
3, 50460, Note_on_c, 0, 76, 64
3, 50520, Note_on_c, 0, 76, 0
3, 50520, Note_on_c, 0, 45, 0
3, 50520, Note_on_c, 0, 74, 64
3, 50520, Note_on_c, 0, 52, 64
3, 50580, Note_on_c, 0, 74, 0
3, 50580, Note_on_c, 0, 72, 64
3, 50640, Note_on_c, 0, 72, 0
3, 50640, Note_on_c, 0, 52, 0
3, 50640, Note_on_c, 0, 56, 64
3, 50640, Note_on_c, 0, 71, 64
3, 50700, Note_on_c, 0, 71, 0
3, 50700, Note_on_c, 0, 74, 64
3, 50760, Note_on_c, 0, 74, 0
3, 50760, Note_on_c, 0, 56, 0
3, 50760, Note_on_c, 0, 72, 64
3, 50760, Note_on_c, 0, 57, 64
3, 50820, Note_on_c, 0, 57, 0
3, 50820, Note_on_c, 0, 59, 64
3, 50880, Note_on_c, 0, 59, 0
3, 50880, Note_on_c, 0, 72, 0
3, 50880, Note_on_c, 0, 76, 64
3, 50880, Note_on_c, 0, 57, 64
3, 50940, Note_on_c, 0, 57, 0
3, 50940, Note_on_c, 0, 55, 64
3, 51000, Note_on_c, 0, 55, 0
3, 51000, Note_on_c, 0, 76, 0
3, 51000, Note_on_c, 0, 81, 64
3, 51000, Note_on_c, 0, 54, 64
3, 51060, Note_on_c, 0, 54, 0
3, 51060, Note_on_c, 0, 57, 64
3, 51120, Note_on_c, 0, 57, 0
3, 51120, Note_on_c, 0, 51, 64
3, 51180, Note_on_c, 0, 81, 0
3, 51180, Note_on_c, 0, 83, 64
3, 51240, Note_on_c, 0, 83, 0
3, 51240, Note_on_c, 0, 51, 0
3, 51240, Note_on_c, 0, 60, 64
3, 51240, Note_on_c, 0, 81, 64
3, 51260, Note_on_c, 0, 60, 0
3, 51260, Note_on_c, 0, 59, 64
3, 51280, Note_on_c, 0, 59, 0
3, 51280, Note_on_c, 0, 60, 64
3, 51300, Note_on_c, 0, 81, 0
3, 51300, Note_on_c, 0, 79, 64
3, 51360, Note_on_c, 0, 79, 0
3, 51360, Note_on_c, 0, 78, 64
3, 51420, Note_on_c, 0, 78, 0
3, 51420, Note_on_c, 0, 81, 64
3, 51480, Note_on_c, 0, 81, 0
3, 51480, Note_on_c, 0, 75, 64
3, 51540, Note_on_c, 0, 60, 0
3, 51540, Note_on_c, 0, 57, 64
3, 51600, Note_on_c, 0, 57, 0
3, 51600, Note_on_c, 0, 75, 0
3, 51600, Note_on_c, 0, 84, 64
3, 51600, Note_on_c, 0, 54, 64
3, 51620, Note_on_c, 0, 84, 0
3, 51620, Note_on_c, 0, 83, 64
3, 51640, Note_on_c, 0, 83, 0
3, 51640, Note_on_c, 0, 84, 64
3, 51660, Note_on_c, 0, 54, 0
3, 51660, Note_on_c, 0, 57, 64
3, 51720, Note_on_c, 0, 57, 0
3, 51720, Note_on_c, 0, 51, 64
3, 51780, Note_on_c, 0, 51, 0
3, 51780, Note_on_c, 0, 54, 64
3, 51840, Note_on_c, 0, 54, 0
3, 51840, Note_on_c, 0, 47, 64
3, 51900, Note_on_c, 0, 84, 0
3, 51900, Note_on_c, 0, 83, 64
3, 51960, Note_on_c, 0, 83, 0
3, 51960, Note_on_c, 0, 47, 0
3, 51960, Note_on_c, 0, 64, 64
3, 51960, Note_on_c, 0, 81, 64
3, 51980, Note_on_c, 0, 64, 0
3, 51980, Note_on_c, 0, 63, 64
3, 52000, Note_on_c, 0, 63, 0
3, 52000, Note_on_c, 0, 64, 64
3, 52020, Note_on_c, 0, 64, 0
3, 52020, Note_on_c, 0, 81, 0
3, 52020, Note_on_c, 0, 63, 64
3, 52020, Note_on_c, 0, 79, 64
3, 52040, Note_on_c, 0, 63, 0
3, 52040, Note_on_c, 0, 64, 64
3, 52060, Note_on_c, 0, 64, 0
3, 52060, Note_on_c, 0, 63, 64
3, 52080, Note_on_c, 0, 79, 0
3, 52080, Note_on_c, 0, 78, 64
3, 52140, Note_on_c, 0, 78, 0
3, 52140, Note_on_c, 0, 63, 0
3, 52140, Note_on_c, 0, 81, 64
3, 52140, Note_on_c, 0, 61, 64
3, 52170, Note_on_c, 0, 61, 0
3, 52170, Note_on_c, 0, 63, 64
3, 52200, Note_on_c, 0, 63, 0
3, 52200, Note_on_c, 0, 81, 0
3, 52200, Note_on_c, 0, 79, 64
3, 52200, Note_on_c, 0, 64, 64
3, 52260, Note_on_c, 0, 64, 0
3, 52260, Note_on_c, 0, 63, 64
3, 52320, Note_on_c, 0, 63, 0
3, 52320, Note_on_c, 0, 64, 64
3, 52380, Note_on_c, 0, 64, 0
3, 52380, Note_on_c, 0, 66, 64
3, 52440, Note_on_c, 0, 66, 0
3, 52440, Note_on_c, 0, 67, 64
3, 52500, Note_on_c, 0, 67, 0
3, 52500, Note_on_c, 0, 64, 64
3, 52560, Note_on_c, 0, 64, 0
3, 52560, Note_on_c, 0, 58, 64
3, 52620, Note_on_c, 0, 58, 0
3, 52620, Note_on_c, 0, 79, 0
3, 52620, Note_on_c, 0, 78, 64
3, 52620, Note_on_c, 0, 59, 64
3, 52680, Note_on_c, 0, 59, 0
3, 52680, Note_on_c, 0, 78, 0
3, 52680, Note_on_c, 0, 76, 64
3, 52680, Note_on_c, 0, 61, 64
3, 52740, Note_on_c, 0, 61, 0
3, 52740, Note_on_c, 0, 76, 0
3, 52740, Note_on_c, 0, 74, 64
3, 52740, Note_on_c, 0, 62, 64
3, 52800, Note_on_c, 0, 62, 0
3, 52800, Note_on_c, 0, 74, 0
3, 52800, Note_on_c, 0, 73, 64
3, 52800, Note_on_c, 0, 64, 64
3, 52860, Note_on_c, 0, 64, 0
3, 52860, Note_on_c, 0, 73, 0
3, 52860, Note_on_c, 0, 76, 64
3, 52860, Note_on_c, 0, 61, 64
3, 52920, Note_on_c, 0, 61, 0
3, 52920, Note_on_c, 0, 76, 0
3, 52920, Note_on_c, 0, 70, 64
3, 52920, Note_on_c, 0, 54, 64
3, 52980, Note_on_c, 0, 70, 0
3, 52980, Note_on_c, 0, 79, 64
3, 53040, Note_on_c, 0, 79, 0
3, 53040, Note_on_c, 0, 54, 0
3, 53040, Note_on_c, 0, 78, 64
3, 53040, Note_on_c, 0, 58, 64
3, 53100, Note_on_c, 0, 78, 0
3, 53100, Note_on_c, 0, 76, 64
3, 53160, Note_on_c, 0, 76, 0
3, 53160, Note_on_c, 0, 58, 0
3, 53160, Note_on_c, 0, 59, 64
3, 53160, Note_on_c, 0, 75, 64
3, 53220, Note_on_c, 0, 75, 0
3, 53220, Note_on_c, 0, 78, 64
3, 53280, Note_on_c, 0, 78, 0
3, 53280, Note_on_c, 0, 59, 0
3, 53280, Note_on_c, 0, 69, 64
3, 53280, Note_on_c, 0, 60, 64
3, 53340, Note_on_c, 0, 69, 0
3, 53340, Note_on_c, 0, 72, 64
3, 53400, Note_on_c, 0, 72, 0
3, 53400, Note_on_c, 0, 60, 0
3, 53400, Note_on_c, 0, 71, 64
3, 53400, Note_on_c, 0, 51, 64
3, 53460, Note_on_c, 0, 71, 0
3, 53460, Note_on_c, 0, 69, 64
3, 53520, Note_on_c, 0, 69, 0
3, 53520, Note_on_c, 0, 51, 0
3, 53520, Note_on_c, 0, 52, 64
3, 53520, Note_on_c, 0, 67, 64
3, 53580, Note_on_c, 0, 67, 0
3, 53580, Note_on_c, 0, 71, 64
3, 53640, Note_on_c, 0, 71, 0
3, 53640, Note_on_c, 0, 52, 0
3, 53640, Note_on_c, 0, 64, 64
3, 53640, Note_on_c, 0, 48, 64
3, 53760, Note_on_c, 0, 48, 0
3, 53760, Note_on_c, 0, 64, 0
3, 53760, Note_on_c, 0, 66, 64
3, 53760, Note_on_c, 0, 45, 64
3, 53780, Note_on_c, 0, 66, 0
3, 53780, Note_on_c, 0, 64, 64
3, 53800, Note_on_c, 0, 64, 0
3, 53800, Note_on_c, 0, 66, 64
3, 53880, Note_on_c, 0, 66, 0
3, 53880, Note_on_c, 0, 45, 0
3, 53880, Note_on_c, 0, 64, 64
3, 53880, Note_on_c, 0, 47, 64
3, 53900, Note_on_c, 0, 64, 0
3, 53900, Note_on_c, 0, 63, 64
3, 53920, Note_on_c, 0, 63, 0
3, 53920, Note_on_c, 0, 61, 64
3, 53940, Note_on_c, 0, 61, 0
3, 53940, Note_on_c, 0, 63, 64
3, 54000, Note_on_c, 0, 63, 0
3, 54000, Note_on_c, 0, 47, 0
3, 54000, Note_on_c, 0, 64, 64
3, 54000, Note_on_c, 0, 36, 64
3, 54060, Note_on_c, 0, 36, 0
3, 54060, Note_on_c, 0, 64, 0
3, 54060, Note_on_c, 0, 68, 64
3, 54060, Note_on_c, 0, 40, 64
3, 54120, Note_on_c, 0, 40, 0
3, 54120, Note_on_c, 0, 68, 0
3, 54120, Note_on_c, 0, 69, 64
3, 54120, Note_on_c, 0, 42, 64
3, 54180, Note_on_c, 0, 42, 0
3, 54180, Note_on_c, 0, 69, 0
3, 54180, Note_on_c, 0, 71, 64
3, 54180, Note_on_c, 0, 44, 64
3, 54240, Note_on_c, 0, 44, 0
3, 54240, Note_on_c, 0, 71, 0
3, 54240, Note_on_c, 0, 72, 64
3, 54240, Note_on_c, 0, 45, 64
3, 54300, Note_on_c, 0, 45, 0
3, 54300, Note_on_c, 0, 72, 0
3, 54300, Note_on_c, 0, 42, 64
3, 54300, Note_on_c, 0, 69, 64
3, 54360, Note_on_c, 0, 69, 0
3, 54360, Note_on_c, 0, 42, 0
3, 54360, Note_on_c, 0, 71, 64
3, 54360, Note_on_c, 0, 44, 64
3, 54420, Note_on_c, 0, 44, 0
3, 54420, Note_on_c, 0, 71, 0
3, 54420, Note_on_c, 0, 47, 64
3, 54420, Note_on_c, 0, 69, 64
3, 54480, Note_on_c, 0, 69, 0
3, 54480, Note_on_c, 0, 47, 0
3, 54480, Note_on_c, 0, 48, 64
3, 54480, Note_on_c, 0, 68, 64
3, 54540, Note_on_c, 0, 68, 0
3, 54540, Note_on_c, 0, 48, 0
3, 54540, Note_on_c, 0, 50, 64
3, 54540, Note_on_c, 0, 66, 64
3, 54600, Note_on_c, 0, 66, 0
3, 54600, Note_on_c, 0, 50, 0
3, 54600, Note_on_c, 0, 52, 64
3, 54600, Note_on_c, 0, 64, 64
3, 54660, Note_on_c, 0, 64, 0
3, 54660, Note_on_c, 0, 52, 0
3, 54660, Note_on_c, 0, 54, 64
3, 54660, Note_on_c, 0, 74, 64
3, 54720, Note_on_c, 0, 74, 0
3, 54720, Note_on_c, 0, 54, 0
3, 54720, Note_on_c, 0, 73, 64
3, 54720, Note_on_c, 0, 55, 64
3, 54780, Note_on_c, 0, 73, 0
3, 54780, Note_on_c, 0, 75, 64
3, 54840, Note_on_c, 0, 75, 0
3, 54840, Note_on_c, 0, 55, 0
3, 54840, Note_on_c, 0, 76, 64
3, 54840, Note_on_c, 0, 54, 64
3, 54900, Note_on_c, 0, 76, 0
3, 54900, Note_on_c, 0, 78, 64
3, 54960, Note_on_c, 0, 78, 0
3, 54960, Note_on_c, 0, 54, 0
3, 54960, Note_on_c, 0, 52, 64
3, 54960, Note_on_c, 0, 79, 64
3, 55020, Note_on_c, 0, 79, 0
3, 55020, Note_on_c, 0, 76, 64
3, 55080, Note_on_c, 0, 76, 0
3, 55080, Note_on_c, 0, 52, 0
3, 55080, Note_on_c, 0, 78, 64
3, 55080, Note_on_c, 0, 51, 64
3, 55140, Note_on_c, 0, 78, 0
3, 55140, Note_on_c, 0, 76, 64
3, 55200, Note_on_c, 0, 76, 0
3, 55200, Note_on_c, 0, 51, 0
3, 55200, Note_on_c, 0, 75, 64
3, 55200, Note_on_c, 0, 47, 64
3, 55260, Note_on_c, 0, 75, 0
3, 55260, Note_on_c, 0, 73, 64
3, 55320, Note_on_c, 0, 73, 0
3, 55320, Note_on_c, 0, 47, 0
3, 55320, Note_on_c, 0, 51, 64
3, 55320, Note_on_c, 0, 71, 64
3, 55380, Note_on_c, 0, 71, 0
3, 55380, Note_on_c, 0, 69, 64
3, 55440, Note_on_c, 0, 69, 0
3, 55440, Note_on_c, 0, 51, 0
3, 55440, Note_on_c, 0, 67, 64
3, 55440, Note_on_c, 0, 52, 64
3, 55560, Note_on_c, 0, 52, 0
3, 55560, Note_on_c, 0, 67, 0
3, 55560, Note_on_c, 0, 69, 64
3, 55560, Note_on_c, 0, 45, 64
3, 55580, Note_on_c, 0, 69, 0
3, 55580, Note_on_c, 0, 67, 64
3, 55600, Note_on_c, 0, 67, 0
3, 55600, Note_on_c, 0, 69, 64
3, 55680, Note_on_c, 0, 69, 0
3, 55680, Note_on_c, 0, 45, 0
3, 55680, Note_on_c, 0, 67, 64
3, 55680, Note_on_c, 0, 47, 64
3, 55700, Note_on_c, 0, 67, 0
3, 55700, Note_on_c, 0, 66, 64
3, 55720, Note_on_c, 0, 66, 0
3, 55720, Note_on_c, 0, 64, 64
3, 55740, Note_on_c, 0, 64, 0
3, 55740, Note_on_c, 0, 66, 64
3, 55800, Note_on_c, 0, 66, 0
3, 55800, Note_on_c, 0, 47, 0
3, 55800, Note_on_c, 0, 40, 64
3, 55800, Note_on_c, 0, 64, 64
3, 56160, Note_on_c, 0, 64, 0
3, 56160, Note_on_c, 0, 40, 0
3, 56160, Note_on_c, 0, 78, 64
3, 56220, Note_on_c, 0, 59, 64
3, 56280, Note_on_c, 0, 59, 0
3, 56280, Note_on_c, 0, 57, 64
3, 56340, Note_on_c, 0, 57, 0
3, 56340, Note_on_c, 0, 55, 64
3, 56400, Note_on_c, 0, 55, 0
3, 56400, Note_on_c, 0, 54, 64
3, 56460, Note_on_c, 0, 54, 0
3, 56460, Note_on_c, 0, 57, 64
3, 56520, Note_on_c, 0, 57, 0
3, 56520, Note_on_c, 0, 55, 64
3, 56580, Note_on_c, 0, 55, 0
3, 56580, Note_on_c, 0, 59, 64
3, 56640, Note_on_c, 0, 59, 0
3, 56640, Note_on_c, 0, 78, 0
3, 56640, Note_on_c, 0, 76, 64
3, 56640, Note_on_c, 0, 61, 64
3, 56700, Note_on_c, 0, 61, 0
3, 56700, Note_on_c, 0, 76, 0
3, 56700, Note_on_c, 0, 78, 64
3, 56700, Note_on_c, 0, 62, 64
3, 56760, Note_on_c, 0, 62, 0
3, 56760, Note_on_c, 0, 78, 0
3, 56760, Note_on_c, 0, 79, 64
3, 56760, Note_on_c, 0, 64, 64
3, 56820, Note_on_c, 0, 64, 0
3, 56820, Note_on_c, 0, 57, 64
3, 56880, Note_on_c, 0, 57, 0
3, 56880, Note_on_c, 0, 79, 0
3, 56880, Note_on_c, 0, 78, 64
3, 56880, Note_on_c, 0, 62, 64
3, 56940, Note_on_c, 0, 62, 0
3, 56940, Note_on_c, 0, 55, 64
3, 56990, Note_on_c, 0, 78, 0
3, 57000, Note_on_c, 0, 55, 0
3, 57000, Note_on_c, 0, 78, 64
3, 57000, Note_on_c, 0, 57, 64
3, 57015, Note_on_c, 0, 78, 0
3, 57015, Note_on_c, 0, 76, 64
3, 57030, Note_on_c, 0, 76, 0
3, 57030, Note_on_c, 0, 78, 64
3, 57045, Note_on_c, 0, 78, 0
3, 57045, Note_on_c, 0, 76, 64
3, 57060, Note_on_c, 0, 76, 0
3, 57060, Note_on_c, 0, 57, 0
3, 57060, Note_on_c, 0, 78, 64
3, 57060, Note_on_c, 0, 59, 64
3, 57075, Note_on_c, 0, 78, 0
3, 57075, Note_on_c, 0, 76, 64
3, 57075, Note_on_c, 0, 76, 64
3, 57090, Note_on_c, 0, 76, 0
3, 57120, Note_on_c, 0, 76, 0
3, 57120, Note_on_c, 0, 59, 0
3, 57120, Note_on_c, 0, 69, 64
3, 57120, Note_on_c, 0, 60, 64
3, 57180, Note_on_c, 0, 60, 0
3, 57180, Note_on_c, 0, 54, 64
3, 57240, Note_on_c, 0, 54, 0
3, 57240, Note_on_c, 0, 69, 0
3, 57240, Note_on_c, 0, 74, 64
3, 57240, Note_on_c, 0, 59, 64
3, 57300, Note_on_c, 0, 59, 0
3, 57300, Note_on_c, 0, 52, 64
3, 57360, Note_on_c, 0, 52, 0
3, 57360, Note_on_c, 0, 74, 0
3, 57360, Note_on_c, 0, 72, 64
3, 57360, Note_on_c, 0, 54, 64
3, 57420, Note_on_c, 0, 54, 0
3, 57420, Note_on_c, 0, 72, 0
3, 57420, Note_on_c, 0, 71, 64
3, 57420, Note_on_c, 0, 55, 64
3, 57480, Note_on_c, 0, 55, 0
3, 57480, Note_on_c, 0, 71, 0
3, 57480, Note_on_c, 0, 72, 64
3, 57480, Note_on_c, 0, 57, 64
3, 57540, Note_on_c, 0, 57, 0
3, 57540, Note_on_c, 0, 51, 64
3, 57600, Note_on_c, 0, 51, 0
3, 57600, Note_on_c, 0, 55, 64
3, 57660, Note_on_c, 0, 72, 0
3, 57660, Note_on_c, 0, 71, 64
3, 57720, Note_on_c, 0, 71, 0
3, 57720, Note_on_c, 0, 55, 0
3, 57720, Note_on_c, 0, 69, 64
3, 57720, Note_on_c, 0, 57, 64
3, 57780, Note_on_c, 0, 69, 0
3, 57780, Note_on_c, 0, 67, 64
3, 57840, Note_on_c, 0, 67, 0
3, 57840, Note_on_c, 0, 57, 0
3, 57840, Note_on_c, 0, 59, 64
3, 57840, Note_on_c, 0, 66, 64
3, 57900, Note_on_c, 0, 66, 0
3, 57900, Note_on_c, 0, 69, 64
3, 57960, Note_on_c, 0, 69, 0
3, 57960, Note_on_c, 0, 59, 0
3, 57960, Note_on_c, 0, 67, 64
3, 57960, Note_on_c, 0, 52, 64
3, 58020, Note_on_c, 0, 67, 0
3, 58020, Note_on_c, 0, 71, 64
3, 58080, Note_on_c, 0, 71, 0
3, 58080, Note_on_c, 0, 52, 0
3, 58080, Note_on_c, 0, 72, 64
3, 58080, Note_on_c, 0, 50, 64
3, 58140, Note_on_c, 0, 72, 0
3, 58140, Note_on_c, 0, 74, 64
3, 58200, Note_on_c, 0, 74, 0
3, 58200, Note_on_c, 0, 50, 0
3, 58200, Note_on_c, 0, 48, 64
3, 58200, Note_on_c, 0, 76, 64
3, 58260, Note_on_c, 0, 76, 0
3, 58260, Note_on_c, 0, 69, 64
3, 58320, Note_on_c, 0, 69, 0
3, 58320, Note_on_c, 0, 48, 0
3, 58320, Note_on_c, 0, 74, 64
3, 58320, Note_on_c, 0, 47, 64
3, 58380, Note_on_c, 0, 74, 0
3, 58380, Note_on_c, 0, 68, 64
3, 58440, Note_on_c, 0, 68, 0
3, 58440, Note_on_c, 0, 47, 0
3, 58440, Note_on_c, 0, 69, 64
3, 58440, Note_on_c, 0, 40, 64
3, 58500, Note_on_c, 0, 69, 0
3, 58500, Note_on_c, 0, 71, 64
3, 58560, Note_on_c, 0, 71, 0
3, 58560, Note_on_c, 0, 40, 0
3, 58560, Note_on_c, 0, 45, 64
3, 58560, Note_on_c, 0, 72, 64
3, 58620, Note_on_c, 0, 72, 0
3, 58620, Note_on_c, 0, 66, 64
3, 58680, Note_on_c, 0, 66, 0
3, 58680, Note_on_c, 0, 45, 0
3, 58680, Note_on_c, 0, 71, 64
3, 58680, Note_on_c, 0, 38, 64
3, 58740, Note_on_c, 0, 38, 0
3, 58740, Note_on_c, 0, 71, 0
3, 58740, Note_on_c, 0, 64, 64
3, 58740, Note_on_c, 0, 36, 64
3, 58800, Note_on_c, 0, 36, 0
3, 58800, Note_on_c, 0, 64, 0
3, 58800, Note_on_c, 0, 66, 64
3, 58800, Note_on_c, 0, 38, 64
3, 58860, Note_on_c, 0, 38, 0
3, 58860, Note_on_c, 0, 66, 0
3, 58860, Note_on_c, 0, 68, 64
3, 58860, Note_on_c, 0, 40, 64
3, 58920, Note_on_c, 0, 40, 0
3, 58920, Note_on_c, 0, 68, 0
3, 58920, Note_on_c, 0, 41, 64
3, 58920, Note_on_c, 0, 69, 64
3, 58980, Note_on_c, 0, 69, 0
3, 58980, Note_on_c, 0, 63, 64
3, 59040, Note_on_c, 0, 63, 0
3, 59040, Note_on_c, 0, 41, 0
3, 59040, Note_on_c, 0, 68, 64
3, 59040, Note_on_c, 0, 40, 64
3, 59100, Note_on_c, 0, 40, 0
3, 59100, Note_on_c, 0, 52, 64
3, 59160, Note_on_c, 0, 52, 0
3, 59160, Note_on_c, 0, 68, 0
3, 59160, Note_on_c, 0, 71, 64
3, 59160, Note_on_c, 0, 50, 64
3, 59180, Note_on_c, 0, 71, 0
3, 59180, Note_on_c, 0, 69, 64
3, 59200, Note_on_c, 0, 69, 0
3, 59200, Note_on_c, 0, 68, 64
3, 59220, Note_on_c, 0, 68, 0
3, 59220, Note_on_c, 0, 50, 0
3, 59220, Note_on_c, 0, 69, 64
3, 59220, Note_on_c, 0, 48, 64
3, 59280, Note_on_c, 0, 48, 0
3, 59280, Note_on_c, 0, 69, 0
3, 59280, Note_on_c, 0, 71, 64
3, 59280, Note_on_c, 0, 47, 64
3, 59340, Note_on_c, 0, 47, 0
3, 59340, Note_on_c, 0, 50, 64
3, 59400, Note_on_c, 0, 50, 0
3, 59400, Note_on_c, 0, 71, 0
3, 59400, Note_on_c, 0, 64, 64
3, 59400, Note_on_c, 0, 48, 64
3, 59460, Note_on_c, 0, 64, 0
3, 59460, Note_on_c, 0, 76, 64
3, 59520, Note_on_c, 0, 76, 0
3, 59520, Note_on_c, 0, 48, 0
3, 59520, Note_on_c, 0, 52, 64
3, 59520, Note_on_c, 0, 74, 64
3, 59540, Note_on_c, 0, 52, 0
3, 59540, Note_on_c, 0, 50, 64
3, 59560, Note_on_c, 0, 50, 0
3, 59560, Note_on_c, 0, 48, 64
3, 59580, Note_on_c, 0, 48, 0
3, 59580, Note_on_c, 0, 74, 0
3, 59580, Note_on_c, 0, 50, 64
3, 59580, Note_on_c, 0, 72, 64
3, 59640, Note_on_c, 0, 72, 0
3, 59640, Note_on_c, 0, 50, 0
3, 59640, Note_on_c, 0, 52, 64
3, 59640, Note_on_c, 0, 71, 64
3, 59700, Note_on_c, 0, 71, 0
3, 59700, Note_on_c, 0, 74, 64
3, 59760, Note_on_c, 0, 74, 0
3, 59760, Note_on_c, 0, 52, 0
3, 59760, Note_on_c, 0, 72, 64
3, 59760, Note_on_c, 0, 45, 64
3, 59820, Note_on_c, 0, 45, 0
3, 59820, Note_on_c, 0, 57, 64
3, 59880, Note_on_c, 0, 57, 0
3, 59880, Note_on_c, 0, 72, 0
3, 59880, Note_on_c, 0, 76, 64
3, 59880, Note_on_c, 0, 55, 64
3, 59900, Note_on_c, 0, 76, 0
3, 59900, Note_on_c, 0, 74, 64
3, 59920, Note_on_c, 0, 74, 0
3, 59920, Note_on_c, 0, 72, 64
3, 59940, Note_on_c, 0, 72, 0
3, 59940, Note_on_c, 0, 55, 0
3, 59940, Note_on_c, 0, 74, 64
3, 59940, Note_on_c, 0, 53, 64
3, 60000, Note_on_c, 0, 53, 0
3, 60000, Note_on_c, 0, 74, 0
3, 60000, Note_on_c, 0, 76, 64
3, 60000, Note_on_c, 0, 52, 64
3, 60060, Note_on_c, 0, 52, 0
3, 60060, Note_on_c, 0, 55, 64
3, 60120, Note_on_c, 0, 55, 0
3, 60120, Note_on_c, 0, 76, 0
3, 60120, Note_on_c, 0, 69, 64
3, 60120, Note_on_c, 0, 53, 64
3, 60180, Note_on_c, 0, 69, 0
3, 60180, Note_on_c, 0, 81, 64
3, 60240, Note_on_c, 0, 81, 0
3, 60240, Note_on_c, 0, 53, 0
3, 60240, Note_on_c, 0, 79, 64
3, 60240, Note_on_c, 0, 55, 64
3, 60300, Note_on_c, 0, 79, 0
3, 60300, Note_on_c, 0, 77, 64
3, 60360, Note_on_c, 0, 77, 0
3, 60360, Note_on_c, 0, 55, 0
3, 60360, Note_on_c, 0, 57, 64
3, 60360, Note_on_c, 0, 76, 64
3, 60420, Note_on_c, 0, 76, 0
3, 60420, Note_on_c, 0, 79, 64
3, 60480, Note_on_c, 0, 79, 0
3, 60480, Note_on_c, 0, 57, 0
3, 60480, Note_on_c, 0, 77, 64
3, 60480, Note_on_c, 0, 50, 64
3, 60540, Note_on_c, 0, 50, 0
3, 60540, Note_on_c, 0, 62, 64
3, 60600, Note_on_c, 0, 62, 0
3, 60600, Note_on_c, 0, 77, 0
3, 60600, Note_on_c, 0, 79, 64
3, 60600, Note_on_c, 0, 60, 64
3, 60660, Note_on_c, 0, 60, 0
3, 60660, Note_on_c, 0, 59, 64
3, 60720, Note_on_c, 0, 59, 0
3, 60720, Note_on_c, 0, 79, 0
3, 60720, Note_on_c, 0, 81, 64
3, 60720, Note_on_c, 0, 57, 64
3, 60780, Note_on_c, 0, 57, 0
3, 60780, Note_on_c, 0, 60, 64
3, 60840, Note_on_c, 0, 60, 0
3, 60840, Note_on_c, 0, 59, 64
3, 60900, Note_on_c, 0, 81, 0
3, 60900, Note_on_c, 0, 74, 64
3, 60960, Note_on_c, 0, 74, 0
3, 60960, Note_on_c, 0, 59, 0
3, 60960, Note_on_c, 0, 72, 64
3, 60960, Note_on_c, 0, 60, 64
3, 61020, Note_on_c, 0, 72, 0
3, 61020, Note_on_c, 0, 71, 64
3, 61080, Note_on_c, 0, 71, 0
3, 61080, Note_on_c, 0, 60, 0
3, 61080, Note_on_c, 0, 62, 64
3, 61080, Note_on_c, 0, 69, 64
3, 61140, Note_on_c, 0, 69, 0
3, 61140, Note_on_c, 0, 72, 64
3, 61200, Note_on_c, 0, 72, 0
3, 61200, Note_on_c, 0, 62, 0
3, 61200, Note_on_c, 0, 71, 64
3, 61260, Note_on_c, 0, 55, 64
3, 61320, Note_on_c, 0, 55, 0
3, 61320, Note_on_c, 0, 71, 0
3, 61320, Note_on_c, 0, 72, 64
3, 61320, Note_on_c, 0, 53, 64
3, 61380, Note_on_c, 0, 53, 0
3, 61380, Note_on_c, 0, 52, 64
3, 61440, Note_on_c, 0, 52, 0
3, 61440, Note_on_c, 0, 72, 0
3, 61440, Note_on_c, 0, 74, 64
3, 61440, Note_on_c, 0, 50, 64
3, 61500, Note_on_c, 0, 50, 0
3, 61500, Note_on_c, 0, 53, 64
3, 61560, Note_on_c, 0, 53, 0
3, 61560, Note_on_c, 0, 43, 64
3, 61620, Note_on_c, 0, 43, 0
3, 61620, Note_on_c, 0, 74, 0
3, 61620, Note_on_c, 0, 67, 64
3, 61620, Note_on_c, 0, 53, 64
3, 61680, Note_on_c, 0, 53, 0
3, 61680, Note_on_c, 0, 67, 0
3, 61680, Note_on_c, 0, 72, 64
3, 61680, Note_on_c, 0, 52, 64
3, 61740, Note_on_c, 0, 52, 0
3, 61740, Note_on_c, 0, 72, 0
3, 61740, Note_on_c, 0, 74, 64
3, 61740, Note_on_c, 0, 50, 64
3, 61800, Note_on_c, 0, 50, 0
3, 61800, Note_on_c, 0, 74, 0
3, 61800, Note_on_c, 0, 76, 64
3, 61800, Note_on_c, 0, 48, 64
3, 61860, Note_on_c, 0, 48, 0
3, 61860, Note_on_c, 0, 52, 64
3, 61920, Note_on_c, 0, 52, 0
3, 61920, Note_on_c, 0, 43, 64
3, 61980, Note_on_c, 0, 43, 0
3, 61980, Note_on_c, 0, 76, 0
3, 61980, Note_on_c, 0, 72, 64
3, 61980, Note_on_c, 0, 52, 64
3, 62040, Note_on_c, 0, 52, 0
3, 62040, Note_on_c, 0, 72, 0
3, 62040, Note_on_c, 0, 74, 64
3, 62040, Note_on_c, 0, 50, 64
3, 62100, Note_on_c, 0, 50, 0
3, 62100, Note_on_c, 0, 74, 0
3, 62100, Note_on_c, 0, 76, 64
3, 62100, Note_on_c, 0, 48, 64
3, 62160, Note_on_c, 0, 48, 0
3, 62160, Note_on_c, 0, 76, 0
3, 62160, Note_on_c, 0, 77, 64
3, 62160, Note_on_c, 0, 47, 64
3, 62220, Note_on_c, 0, 47, 0
3, 62220, Note_on_c, 0, 50, 64
3, 62280, Note_on_c, 0, 50, 0
3, 62280, Note_on_c, 0, 43, 64
3, 62340, Note_on_c, 0, 77, 0
3, 62340, Note_on_c, 0, 79, 64
3, 62400, Note_on_c, 0, 79, 0
3, 62400, Note_on_c, 0, 43, 0
3, 62400, Note_on_c, 0, 77, 64
3, 62400, Note_on_c, 0, 45, 64
3, 62460, Note_on_c, 0, 77, 0
3, 62460, Note_on_c, 0, 76, 64
3, 62520, Note_on_c, 0, 76, 0
3, 62520, Note_on_c, 0, 45, 0
3, 62520, Note_on_c, 0, 47, 64
3, 62520, Note_on_c, 0, 74, 64
3, 62580, Note_on_c, 0, 74, 0
3, 62580, Note_on_c, 0, 77, 64
3, 62640, Note_on_c, 0, 77, 0
3, 62640, Note_on_c, 0, 47, 0
3, 62640, Note_on_c, 0, 76, 64
3, 62640, Note_on_c, 0, 48, 64
3, 62700, Note_on_c, 0, 48, 0
3, 62700, Note_on_c, 0, 76, 0
3, 62700, Note_on_c, 0, 64, 64
3, 62700, Note_on_c, 0, 62, 64
3, 62760, Note_on_c, 0, 62, 0
3, 62760, Note_on_c, 0, 64, 0
3, 62760, Note_on_c, 0, 66, 64
3, 62760, Note_on_c, 0, 60, 64
3, 62820, Note_on_c, 0, 60, 0
3, 62820, Note_on_c, 0, 66, 0
3, 62820, Note_on_c, 0, 68, 64
3, 62820, Note_on_c, 0, 59, 64
3, 62880, Note_on_c, 0, 59, 0
3, 62880, Note_on_c, 0, 68, 0
3, 62880, Note_on_c, 0, 69, 64
3, 62880, Note_on_c, 0, 57, 64
3, 62940, Note_on_c, 0, 57, 0
3, 62940, Note_on_c, 0, 69, 0
3, 62940, Note_on_c, 0, 60, 64
3, 62940, Note_on_c, 0, 66, 64
3, 63000, Note_on_c, 0, 66, 0
3, 63000, Note_on_c, 0, 60, 0
3, 63000, Note_on_c, 0, 74, 64
3, 63000, Note_on_c, 0, 47, 64
3, 63060, Note_on_c, 0, 47, 0
3, 63060, Note_on_c, 0, 74, 0
3, 63060, Note_on_c, 0, 66, 64
3, 63060, Note_on_c, 0, 60, 64
3, 63120, Note_on_c, 0, 60, 0
3, 63120, Note_on_c, 0, 66, 0
3, 63120, Note_on_c, 0, 68, 64
3, 63120, Note_on_c, 0, 59, 64
3, 63180, Note_on_c, 0, 59, 0
3, 63180, Note_on_c, 0, 68, 0
3, 63180, Note_on_c, 0, 69, 64
3, 63180, Note_on_c, 0, 57, 64
3, 63240, Note_on_c, 0, 57, 0
3, 63240, Note_on_c, 0, 69, 0
3, 63240, Note_on_c, 0, 71, 64
3, 63240, Note_on_c, 0, 56, 64
3, 63300, Note_on_c, 0, 56, 0
3, 63300, Note_on_c, 0, 71, 0
3, 63300, Note_on_c, 0, 59, 64
3, 63300, Note_on_c, 0, 68, 64
3, 63360, Note_on_c, 0, 68, 0
3, 63360, Note_on_c, 0, 59, 0
3, 63360, Note_on_c, 0, 72, 64
3, 63360, Note_on_c, 0, 45, 64
3, 63420, Note_on_c, 0, 45, 0
3, 63420, Note_on_c, 0, 72, 0
3, 63420, Note_on_c, 0, 68, 64
3, 63420, Note_on_c, 0, 59, 64
3, 63480, Note_on_c, 0, 59, 0
3, 63480, Note_on_c, 0, 68, 0
3, 63480, Note_on_c, 0, 69, 64
3, 63480, Note_on_c, 0, 57, 64
3, 63540, Note_on_c, 0, 57, 0
3, 63540, Note_on_c, 0, 69, 0
3, 63540, Note_on_c, 0, 71, 64
3, 63540, Note_on_c, 0, 56, 64
3, 63600, Note_on_c, 0, 56, 0
3, 63600, Note_on_c, 0, 71, 0
3, 63600, Note_on_c, 0, 72, 64
3, 63600, Note_on_c, 0, 54, 64
3, 63660, Note_on_c, 0, 54, 0
3, 63660, Note_on_c, 0, 72, 0
3, 63660, Note_on_c, 0, 57, 64
3, 63660, Note_on_c, 0, 69, 64
3, 63720, Note_on_c, 0, 69, 0
3, 63720, Note_on_c, 0, 57, 0
3, 63720, Note_on_c, 0, 72, 64
3, 63720, Note_on_c, 0, 51, 64
3, 63780, Note_on_c, 0, 72, 0
3, 63780, Note_on_c, 0, 71, 64
3, 63840, Note_on_c, 0, 71, 0
3, 63840, Note_on_c, 0, 51, 0
3, 63840, Note_on_c, 0, 69, 64
3, 63840, Note_on_c, 0, 52, 64
3, 63900, Note_on_c, 0, 69, 0
3, 63900, Note_on_c, 0, 68, 64
3, 63960, Note_on_c, 0, 68, 0
3, 63960, Note_on_c, 0, 52, 0
3, 63960, Note_on_c, 0, 53, 64
3, 63960, Note_on_c, 0, 69, 64
3, 64080, Note_on_c, 0, 53, 0
3, 64080, Note_on_c, 0, 52, 64
3, 64140, Note_on_c, 0, 52, 0
3, 64140, Note_on_c, 0, 69, 0
3, 64140, Note_on_c, 0, 71, 64
3, 64140, Note_on_c, 0, 50, 64
3, 64200, Note_on_c, 0, 50, 0
3, 64200, Note_on_c, 0, 71, 0
3, 64200, Note_on_c, 0, 71, 64
3, 64200, Note_on_c, 0, 52, 64
3, 64320, Note_on_c, 0, 52, 0
3, 64320, Note_on_c, 0, 40, 64
3, 64380, Note_on_c, 0, 71, 0
3, 64380, Note_on_c, 0, 69, 64
3, 64440, Note_on_c, 0, 69, 0
3, 64440, Note_on_c, 0, 40, 0
3, 64440, Note_on_c, 0, 69, 64
3, 64440, Note_on_c, 0, 45, 64
3, 64500, Note_on_c, 0, 45, 0
3, 64500, Note_on_c, 0, 57, 64
3, 64560, Note_on_c, 0, 57, 0
3, 64560, Note_on_c, 0, 55, 64
3, 64620, Note_on_c, 0, 55, 0
3, 64620, Note_on_c, 0, 54, 64
3, 64680, Note_on_c, 0, 54, 0
3, 64680, Note_on_c, 0, 52, 64
3, 64740, Note_on_c, 0, 52, 0
3, 64740, Note_on_c, 0, 55, 64
3, 64800, Note_on_c, 0, 55, 0
3, 64800, Note_on_c, 0, 69, 0
3, 64800, Note_on_c, 0, 54, 64
3, 64860, Note_on_c, 0, 74, 64
3, 64920, Note_on_c, 0, 74, 0
3, 64920, Note_on_c, 0, 54, 0
3, 64920, Note_on_c, 0, 72, 64
3, 64920, Note_on_c, 0, 50, 64
3, 64980, Note_on_c, 0, 72, 0
3, 64980, Note_on_c, 0, 71, 64
3, 65040, Note_on_c, 0, 71, 0
3, 65040, Note_on_c, 0, 50, 0
3, 65040, Note_on_c, 0, 54, 64
3, 65040, Note_on_c, 0, 69, 64
3, 65100, Note_on_c, 0, 69, 0
3, 65100, Note_on_c, 0, 72, 64
3, 65160, Note_on_c, 0, 72, 0
3, 65160, Note_on_c, 0, 54, 0
3, 65160, Note_on_c, 0, 71, 64
3, 65160, Note_on_c, 0, 55, 64
3, 65220, Note_on_c, 0, 71, 0
3, 65220, Note_on_c, 0, 74, 64
3, 65280, Note_on_c, 0, 74, 0
3, 65280, Note_on_c, 0, 55, 0
3, 65280, Note_on_c, 0, 76, 64
3, 65280, Note_on_c, 0, 54, 64
3, 65340, Note_on_c, 0, 76, 0
3, 65340, Note_on_c, 0, 78, 64
3, 65400, Note_on_c, 0, 78, 0
3, 65400, Note_on_c, 0, 54, 0
3, 65400, Note_on_c, 0, 52, 64
3, 65400, Note_on_c, 0, 79, 64
3, 65460, Note_on_c, 0, 79, 0
3, 65460, Note_on_c, 0, 73, 64
3, 65520, Note_on_c, 0, 73, 0
3, 65520, Note_on_c, 0, 52, 0
3, 65520, Note_on_c, 0, 78, 64
3, 65520, Note_on_c, 0, 50, 64
3, 65580, Note_on_c, 0, 50, 0
3, 65580, Note_on_c, 0, 78, 0
3, 65580, Note_on_c, 0, 71, 64
3, 65580, Note_on_c, 0, 55, 64
3, 65640, Note_on_c, 0, 55, 0
3, 65640, Note_on_c, 0, 71, 0
3, 65640, Note_on_c, 0, 72, 64
3, 65640, Note_on_c, 0, 57, 64
3, 65700, Note_on_c, 0, 57, 0
3, 65700, Note_on_c, 0, 72, 0
3, 65700, Note_on_c, 0, 74, 64
3, 65700, Note_on_c, 0, 59, 64
3, 65760, Note_on_c, 0, 59, 0
3, 65760, Note_on_c, 0, 74, 0
3, 65760, Note_on_c, 0, 60, 64
3, 65760, Note_on_c, 0, 76, 64
3, 65820, Note_on_c, 0, 76, 0
3, 65820, Note_on_c, 0, 69, 64
3, 65880, Note_on_c, 0, 69, 0
3, 65880, Note_on_c, 0, 74, 64
3, 65940, Note_on_c, 0, 74, 0
3, 65940, Note_on_c, 0, 60, 0
3, 65940, Note_on_c, 0, 67, 64
3, 65940, Note_on_c, 0, 59, 64
3, 66000, Note_on_c, 0, 59, 0
3, 66000, Note_on_c, 0, 67, 0
3, 66000, Note_on_c, 0, 69, 64
3, 66000, Note_on_c, 0, 57, 64
3, 66060, Note_on_c, 0, 57, 0
3, 66060, Note_on_c, 0, 69, 0
3, 66060, Note_on_c, 0, 71, 64
3, 66060, Note_on_c, 0, 55, 64
3, 66120, Note_on_c, 0, 55, 0
3, 66120, Note_on_c, 0, 71, 0
3, 66120, Note_on_c, 0, 57, 64
3, 66120, Note_on_c, 0, 72, 64
3, 66180, Note_on_c, 0, 72, 0
3, 66180, Note_on_c, 0, 66, 64
3, 66240, Note_on_c, 0, 66, 0
3, 66240, Note_on_c, 0, 71, 64
3, 66300, Note_on_c, 0, 57, 0
3, 66300, Note_on_c, 0, 59, 64
3, 66360, Note_on_c, 0, 59, 0
3, 66360, Note_on_c, 0, 71, 0
3, 66360, Note_on_c, 0, 73, 64
3, 66360, Note_on_c, 0, 57, 64
3, 66380, Note_on_c, 0, 73, 0
3, 66380, Note_on_c, 0, 75, 64
3, 66400, Note_on_c, 0, 75, 0
3, 66400, Note_on_c, 0, 76, 64
3, 66420, Note_on_c, 0, 76, 0
3, 66420, Note_on_c, 0, 57, 0
3, 66420, Note_on_c, 0, 75, 64
3, 66420, Note_on_c, 0, 55, 64
3, 66440, Note_on_c, 0, 75, 0
3, 66440, Note_on_c, 0, 76, 64
3, 66460, Note_on_c, 0, 76, 0
3, 66460, Note_on_c, 0, 75, 64
3, 66480, Note_on_c, 0, 75, 0
3, 66480, Note_on_c, 0, 55, 0
3, 66480, Note_on_c, 0, 76, 64
3, 66480, Note_on_c, 0, 54, 64
3, 66500, Note_on_c, 0, 76, 0
3, 66500, Note_on_c, 0, 75, 64
3, 66540, Note_on_c, 0, 75, 0
3, 66540, Note_on_c, 0, 54, 0
3, 66540, Note_on_c, 0, 57, 64
3, 66540, Note_on_c, 0, 73, 64
3, 66570, Note_on_c, 0, 73, 0
3, 66570, Note_on_c, 0, 75, 64
3, 66600, Note_on_c, 0, 75, 0
3, 66600, Note_on_c, 0, 57, 0
3, 66600, Note_on_c, 0, 76, 64
3, 66600, Note_on_c, 0, 55, 64
3, 66660, Note_on_c, 0, 55, 0
3, 66660, Note_on_c, 0, 59, 64
3, 66720, Note_on_c, 0, 59, 0
3, 66720, Note_on_c, 0, 76, 0
3, 66720, Note_on_c, 0, 79, 64
3, 66720, Note_on_c, 0, 61, 64
3, 66736, Note_on_c, 0, 78, 64
3, 66740, Note_on_c, 0, 79, 0
3, 66756, Note_on_c, 0, 78, 0
3, 66760, Note_on_c, 0, 76, 64
3, 66780, Note_on_c, 0, 76, 0
3, 66780, Note_on_c, 0, 61, 0
3, 66780, Note_on_c, 0, 78, 64
3, 66780, Note_on_c, 0, 63, 64
3, 66840, Note_on_c, 0, 63, 0
3, 66840, Note_on_c, 0, 78, 0
3, 66840, Note_on_c, 0, 79, 64
3, 66840, Note_on_c, 0, 64, 64
3, 66900, Note_on_c, 0, 64, 0
3, 66900, Note_on_c, 0, 57, 64
3, 66960, Note_on_c, 0, 57, 0
3, 66960, Note_on_c, 0, 62, 64
3, 67020, Note_on_c, 0, 62, 0
3, 67020, Note_on_c, 0, 79, 0
3, 67020, Note_on_c, 0, 78, 64
3, 67020, Note_on_c, 0, 55, 64
3, 67080, Note_on_c, 0, 55, 0
3, 67080, Note_on_c, 0, 78, 0
3, 67080, Note_on_c, 0, 76, 64
3, 67080, Note_on_c, 0, 57, 64
3, 67140, Note_on_c, 0, 57, 0
3, 67140, Note_on_c, 0, 76, 0
3, 67140, Note_on_c, 0, 75, 64
3, 67140, Note_on_c, 0, 59, 64
3, 67200, Note_on_c, 0, 59, 0
3, 67200, Note_on_c, 0, 75, 0
3, 67200, Note_on_c, 0, 76, 64
3, 67200, Note_on_c, 0, 60, 64
3, 67260, Note_on_c, 0, 60, 0
3, 67260, Note_on_c, 0, 54, 64
3, 67320, Note_on_c, 0, 54, 0
3, 67320, Note_on_c, 0, 59, 64
3, 67380, Note_on_c, 0, 59, 0
3, 67380, Note_on_c, 0, 76, 0
3, 67380, Note_on_c, 0, 74, 64
3, 67380, Note_on_c, 0, 52, 64
3, 67440, Note_on_c, 0, 52, 0
3, 67440, Note_on_c, 0, 74, 0
3, 67440, Note_on_c, 0, 72, 64
3, 67440, Note_on_c, 0, 54, 64
3, 67500, Note_on_c, 0, 54, 0
3, 67500, Note_on_c, 0, 72, 0
3, 67500, Note_on_c, 0, 71, 64
3, 67500, Note_on_c, 0, 55, 64
3, 67560, Note_on_c, 0, 55, 0
3, 67560, Note_on_c, 0, 71, 0
3, 67560, Note_on_c, 0, 72, 64
3, 67560, Note_on_c, 0, 57, 64
3, 67620, Note_on_c, 0, 57, 0
3, 67620, Note_on_c, 0, 72, 0
3, 67620, Note_on_c, 0, 81, 64
3, 67620, Note_on_c, 0, 50, 64
3, 67680, Note_on_c, 0, 50, 0
3, 67680, Note_on_c, 0, 81, 0
3, 67680, Note_on_c, 0, 71, 64
3, 67680, Note_on_c, 0, 55, 64
3, 67740, Note_on_c, 0, 55, 0
3, 67740, Note_on_c, 0, 71, 0
3, 67740, Note_on_c, 0, 62, 64
3, 67740, Note_on_c, 0, 54, 64
3, 67800, Note_on_c, 0, 54, 0
3, 67800, Note_on_c, 0, 62, 0
3, 67800, Note_on_c, 0, 64, 64
3, 67800, Note_on_c, 0, 55, 64
3, 67860, Note_on_c, 0, 55, 0
3, 67860, Note_on_c, 0, 64, 0
3, 67860, Note_on_c, 0, 66, 64
3, 67860, Note_on_c, 0, 57, 64
3, 67920, Note_on_c, 0, 57, 0
3, 67920, Note_on_c, 0, 66, 0
3, 67920, Note_on_c, 0, 67, 64
3, 67920, Note_on_c, 0, 59, 64
3, 67980, Note_on_c, 0, 59, 0
3, 67980, Note_on_c, 0, 61, 64
3, 68040, Note_on_c, 0, 61, 0
3, 68040, Note_on_c, 0, 62, 64
3, 68100, Note_on_c, 0, 62, 0
3, 68100, Note_on_c, 0, 67, 0
3, 68100, Note_on_c, 0, 66, 64
3, 68100, Note_on_c, 0, 57, 64
3, 68160, Note_on_c, 0, 57, 0
3, 68160, Note_on_c, 0, 66, 0
3, 68160, Note_on_c, 0, 68, 64
3, 68160, Note_on_c, 0, 59, 64
3, 68220, Note_on_c, 0, 59, 0
3, 68220, Note_on_c, 0, 68, 0
3, 68220, Note_on_c, 0, 69, 64
3, 68220, Note_on_c, 0, 60, 64
3, 68280, Note_on_c, 0, 60, 0
3, 68280, Note_on_c, 0, 69, 0
3, 68280, Note_on_c, 0, 62, 64
3, 68280, Note_on_c, 0, 71, 64
3, 68340, Note_on_c, 0, 71, 0
3, 68340, Note_on_c, 0, 68, 64
3, 68400, Note_on_c, 0, 68, 0
3, 68400, Note_on_c, 0, 69, 64
3, 68460, Note_on_c, 0, 69, 0
3, 68460, Note_on_c, 0, 62, 0
3, 68460, Note_on_c, 0, 64, 64
3, 68460, Note_on_c, 0, 61, 64
3, 68520, Note_on_c, 0, 61, 0
3, 68520, Note_on_c, 0, 64, 0
3, 68520, Note_on_c, 0, 66, 64
3, 68520, Note_on_c, 0, 63, 64
3, 68580, Note_on_c, 0, 63, 0
3, 68580, Note_on_c, 0, 66, 0
3, 68580, Note_on_c, 0, 67, 64
3, 68580, Note_on_c, 0, 64, 64
3, 68640, Note_on_c, 0, 64, 0
3, 68640, Note_on_c, 0, 67, 0
3, 68640, Note_on_c, 0, 69, 64
3, 68640, Note_on_c, 0, 66, 64
3, 68700, Note_on_c, 0, 66, 0
3, 68700, Note_on_c, 0, 63, 64
3, 68760, Note_on_c, 0, 63, 0
3, 68760, Note_on_c, 0, 64, 64
3, 68820, Note_on_c, 0, 64, 0
3, 68820, Note_on_c, 0, 69, 0
3, 68820, Note_on_c, 0, 67, 64
3, 68820, Note_on_c, 0, 52, 64
3, 68880, Note_on_c, 0, 52, 0
3, 68880, Note_on_c, 0, 67, 0
3, 68880, Note_on_c, 0, 69, 64
3, 68880, Note_on_c, 0, 54, 64
3, 68940, Note_on_c, 0, 54, 0
3, 68940, Note_on_c, 0, 69, 0
3, 68940, Note_on_c, 0, 71, 64
3, 68940, Note_on_c, 0, 55, 64
3, 69000, Note_on_c, 0, 55, 0
3, 69000, Note_on_c, 0, 71, 0
3, 69000, Note_on_c, 0, 72, 64
3, 69000, Note_on_c, 0, 57, 64
3, 69060, Note_on_c, 0, 57, 0
3, 69060, Note_on_c, 0, 72, 0
3, 69060, Note_on_c, 0, 69, 64
3, 69060, Note_on_c, 0, 54, 64
3, 69120, Note_on_c, 0, 54, 0
3, 69120, Note_on_c, 0, 69, 0
3, 69120, Note_on_c, 0, 71, 64
3, 69120, Note_on_c, 0, 55, 64
3, 69180, Note_on_c, 0, 71, 0
3, 69180, Note_on_c, 0, 75, 64
3, 69240, Note_on_c, 0, 75, 0
3, 69240, Note_on_c, 0, 55, 0
3, 69240, Note_on_c, 0, 76, 64
3, 69240, Note_on_c, 0, 54, 64
3, 69300, Note_on_c, 0, 76, 0
3, 69300, Note_on_c, 0, 78, 64
3, 69360, Note_on_c, 0, 78, 0
3, 69360, Note_on_c, 0, 54, 0
3, 69360, Note_on_c, 0, 52, 64
3, 69360, Note_on_c, 0, 79, 64
3, 69420, Note_on_c, 0, 79, 0
3, 69420, Note_on_c, 0, 76, 64
3, 69480, Note_on_c, 0, 76, 0
3, 69480, Note_on_c, 0, 52, 0
3, 69480, Note_on_c, 0, 61, 72
3, 69480, Note_on_c, 0, 78, 64
3, 69500, Note_on_c, 0, 61, 0
3, 69500, Note_on_c, 0, 59, 48
3, 69520, Note_on_c, 0, 61, 48
3, 69522, Note_on_c, 0, 59, 0
3, 69540, Note_on_c, 0, 78, 0
3, 69540, Note_on_c, 0, 59, 48
3, 69540, Note_on_c, 0, 76, 64
3, 69542, Note_on_c, 0, 61, 0
3, 69560, Note_on_c, 0, 61, 49
3, 69562, Note_on_c, 0, 59, 0
3, 69580, Note_on_c, 0, 59, 49
3, 69582, Note_on_c, 0, 61, 0
3, 69600, Note_on_c, 0, 76, 0
3, 69600, Note_on_c, 0, 61, 49
3, 69600, Note_on_c, 0, 75, 64
3, 69602, Note_on_c, 0, 59, 0
3, 69620, Note_on_c, 0, 59, 50
3, 69622, Note_on_c, 0, 61, 0
3, 69640, Note_on_c, 0, 61, 50
3, 69642, Note_on_c, 0, 59, 0
3, 69660, Note_on_c, 0, 75, 0
3, 69660, Note_on_c, 0, 59, 50
3, 69660, Note_on_c, 0, 73, 64
3, 69662, Note_on_c, 0, 61, 0
3, 69680, Note_on_c, 0, 61, 51
3, 69682, Note_on_c, 0, 59, 0
3, 69700, Note_on_c, 0, 59, 51
3, 69702, Note_on_c, 0, 61, 0
3, 69720, Note_on_c, 0, 73, 0
3, 69720, Note_on_c, 0, 61, 51
3, 69720, Note_on_c, 0, 71, 64
3, 69722, Note_on_c, 0, 59, 0
3, 69740, Note_on_c, 0, 59, 51
3, 69742, Note_on_c, 0, 61, 0
3, 69760, Note_on_c, 0, 61, 52
3, 69762, Note_on_c, 0, 59, 0
3, 69780, Note_on_c, 0, 71, 0
3, 69780, Note_on_c, 0, 59, 52
3, 69780, Note_on_c, 0, 69, 64
3, 69782, Note_on_c, 0, 61, 0
3, 69800, Note_on_c, 0, 61, 52
3, 69802, Note_on_c, 0, 59, 0
3, 69820, Note_on_c, 0, 59, 53
3, 69822, Note_on_c, 0, 61, 0
3, 69840, Note_on_c, 0, 69, 0
3, 69840, Note_on_c, 0, 61, 53
3, 69840, Note_on_c, 0, 67, 64
3, 69842, Note_on_c, 0, 59, 0
3, 69860, Note_on_c, 0, 59, 53
3, 69862, Note_on_c, 0, 61, 0
3, 69880, Note_on_c, 0, 61, 54
3, 69882, Note_on_c, 0, 59, 0
3, 69900, Note_on_c, 0, 67, 0
3, 69900, Note_on_c, 0, 59, 54
3, 69900, Note_on_c, 0, 71, 64
3, 69902, Note_on_c, 0, 61, 0
3, 69920, Note_on_c, 0, 61, 54
3, 69922, Note_on_c, 0, 59, 0
3, 69940, Note_on_c, 0, 59, 55
3, 69942, Note_on_c, 0, 61, 0
3, 69960, Note_on_c, 0, 71, 0
3, 69960, Note_on_c, 0, 61, 55
3, 69960, Note_on_c, 0, 73, 64
3, 69962, Note_on_c, 0, 59, 0
3, 69980, Note_on_c, 0, 59, 55
3, 69982, Note_on_c, 0, 61, 0
3, 70000, Note_on_c, 0, 61, 56
3, 70002, Note_on_c, 0, 59, 0
3, 70020, Note_on_c, 0, 73, 0
3, 70020, Note_on_c, 0, 59, 56
3, 70020, Note_on_c, 0, 75, 64
3, 70022, Note_on_c, 0, 61, 0
3, 70040, Note_on_c, 0, 61, 56
3, 70042, Note_on_c, 0, 59, 0
3, 70060, Note_on_c, 0, 59, 56
3, 70062, Note_on_c, 0, 61, 0
3, 70080, Note_on_c, 0, 75, 0
3, 70080, Note_on_c, 0, 61, 57
3, 70080, Note_on_c, 0, 76, 64
3, 70082, Note_on_c, 0, 59, 0
3, 70100, Note_on_c, 0, 59, 57
3, 70102, Note_on_c, 0, 61, 0
3, 70120, Note_on_c, 0, 61, 57
3, 70122, Note_on_c, 0, 59, 0
3, 70140, Note_on_c, 0, 76, 0
3, 70140, Note_on_c, 0, 59, 58
3, 70140, Note_on_c, 0, 73, 64
3, 70142, Note_on_c, 0, 61, 0
3, 70160, Note_on_c, 0, 61, 58
3, 70162, Note_on_c, 0, 59, 0
3, 70180, Note_on_c, 0, 59, 58
3, 70182, Note_on_c, 0, 61, 0
3, 70200, Note_on_c, 0, 73, 0
3, 70200, Note_on_c, 0, 61, 59
3, 70200, Note_on_c, 0, 75, 64
3, 70202, Note_on_c, 0, 59, 0
3, 70220, Note_on_c, 0, 59, 59
3, 70222, Note_on_c, 0, 61, 0
3, 70240, Note_on_c, 0, 61, 59
3, 70242, Note_on_c, 0, 59, 0
3, 70260, Note_on_c, 0, 75, 0
3, 70260, Note_on_c, 0, 59, 60
3, 70260, Note_on_c, 0, 73, 64
3, 70262, Note_on_c, 0, 61, 0
3, 70280, Note_on_c, 0, 61, 60
3, 70282, Note_on_c, 0, 59, 0
3, 70300, Note_on_c, 0, 59, 60
3, 70302, Note_on_c, 0, 61, 0
3, 70320, Note_on_c, 0, 73, 0
3, 70320, Note_on_c, 0, 61, 61
3, 70320, Note_on_c, 0, 71, 64
3, 70322, Note_on_c, 0, 59, 0
3, 70340, Note_on_c, 0, 59, 61
3, 70342, Note_on_c, 0, 61, 0
3, 70360, Note_on_c, 0, 61, 61
3, 70362, Note_on_c, 0, 59, 0
3, 70380, Note_on_c, 0, 71, 0
3, 70380, Note_on_c, 0, 59, 61
3, 70380, Note_on_c, 0, 69, 64
3, 70382, Note_on_c, 0, 61, 0
3, 70400, Note_on_c, 0, 61, 62
3, 70402, Note_on_c, 0, 59, 0
3, 70420, Note_on_c, 0, 59, 62
3, 70422, Note_on_c, 0, 61, 0
3, 70440, Note_on_c, 0, 69, 0
3, 70440, Note_on_c, 0, 61, 62
3, 70440, Note_on_c, 0, 67, 64
3, 70442, Note_on_c, 0, 59, 0
3, 70460, Note_on_c, 0, 59, 63
3, 70462, Note_on_c, 0, 61, 0
3, 70480, Note_on_c, 0, 61, 63
3, 70482, Note_on_c, 0, 59, 0
3, 70500, Note_on_c, 0, 67, 0
3, 70500, Note_on_c, 0, 59, 63
3, 70500, Note_on_c, 0, 66, 64
3, 70502, Note_on_c, 0, 61, 0
3, 70550, Note_on_c, 0, 66, 0
3, 70560, Note_on_c, 0, 66, 72
3, 70566, Note_on_c, 0, 59, 0
3, 70580, Note_on_c, 0, 66, 0
3, 70580, Note_on_c, 0, 64, 48
3, 70600, Note_on_c, 0, 66, 48
3, 70602, Note_on_c, 0, 64, 0
3, 70620, Note_on_c, 0, 64, 48
3, 70620, Note_on_c, 0, 56, 64
3, 70622, Note_on_c, 0, 66, 0
3, 70640, Note_on_c, 0, 66, 48
3, 70642, Note_on_c, 0, 64, 0
3, 70660, Note_on_c, 0, 64, 49
3, 70662, Note_on_c, 0, 66, 0
3, 70680, Note_on_c, 0, 56, 0
3, 70680, Note_on_c, 0, 66, 49
3, 70680, Note_on_c, 0, 57, 64
3, 70682, Note_on_c, 0, 64, 0
3, 70700, Note_on_c, 0, 64, 49
3, 70702, Note_on_c, 0, 66, 0
3, 70720, Note_on_c, 0, 66, 50
3, 70722, Note_on_c, 0, 64, 0
3, 70740, Note_on_c, 0, 57, 0
3, 70740, Note_on_c, 0, 64, 50
3, 70740, Note_on_c, 0, 59, 64
3, 70742, Note_on_c, 0, 66, 0
3, 70760, Note_on_c, 0, 66, 50
3, 70762, Note_on_c, 0, 64, 0
3, 70780, Note_on_c, 0, 64, 51
3, 70782, Note_on_c, 0, 66, 0
3, 70800, Note_on_c, 0, 59, 0
3, 70800, Note_on_c, 0, 66, 51
3, 70800, Note_on_c, 0, 60, 64
3, 70802, Note_on_c, 0, 64, 0
3, 70820, Note_on_c, 0, 64, 51
3, 70822, Note_on_c, 0, 66, 0
3, 70840, Note_on_c, 0, 66, 51
3, 70842, Note_on_c, 0, 64, 0
3, 70860, Note_on_c, 0, 60, 0
3, 70860, Note_on_c, 0, 64, 52
3, 70860, Note_on_c, 0, 57, 64
3, 70862, Note_on_c, 0, 66, 0
3, 70880, Note_on_c, 0, 66, 52
3, 70882, Note_on_c, 0, 64, 0
3, 70900, Note_on_c, 0, 64, 52
3, 70902, Note_on_c, 0, 66, 0
3, 70920, Note_on_c, 0, 57, 0
3, 70920, Note_on_c, 0, 66, 53
3, 70920, Note_on_c, 0, 59, 64
3, 70922, Note_on_c, 0, 64, 0
3, 70940, Note_on_c, 0, 64, 53
3, 70942, Note_on_c, 0, 66, 0
3, 70960, Note_on_c, 0, 66, 53
3, 70962, Note_on_c, 0, 64, 0
3, 70980, Note_on_c, 0, 59, 0
3, 70980, Note_on_c, 0, 64, 53
3, 70980, Note_on_c, 0, 57, 64
3, 70982, Note_on_c, 0, 66, 0
3, 71000, Note_on_c, 0, 66, 54
3, 71002, Note_on_c, 0, 64, 0
3, 71020, Note_on_c, 0, 64, 54
3, 71022, Note_on_c, 0, 66, 0
3, 71040, Note_on_c, 0, 57, 0
3, 71040, Note_on_c, 0, 66, 54
3, 71040, Note_on_c, 0, 56, 64
3, 71042, Note_on_c, 0, 64, 0
3, 71060, Note_on_c, 0, 64, 55
3, 71062, Note_on_c, 0, 66, 0
3, 71080, Note_on_c, 0, 66, 55
3, 71082, Note_on_c, 0, 64, 0
3, 71100, Note_on_c, 0, 56, 0
3, 71100, Note_on_c, 0, 64, 55
3, 71100, Note_on_c, 0, 54, 64
3, 71102, Note_on_c, 0, 66, 0
3, 71120, Note_on_c, 0, 66, 55
3, 71122, Note_on_c, 0, 64, 0
3, 71140, Note_on_c, 0, 64, 56
3, 71142, Note_on_c, 0, 66, 0
3, 71160, Note_on_c, 0, 54, 0
3, 71160, Note_on_c, 0, 66, 56
3, 71160, Note_on_c, 0, 52, 64
3, 71162, Note_on_c, 0, 64, 0
3, 71180, Note_on_c, 0, 64, 56
3, 71182, Note_on_c, 0, 66, 0
3, 71200, Note_on_c, 0, 66, 57
3, 71202, Note_on_c, 0, 64, 0
3, 71220, Note_on_c, 0, 52, 0
3, 71220, Note_on_c, 0, 64, 57
3, 71220, Note_on_c, 0, 50, 64
3, 71222, Note_on_c, 0, 66, 0
3, 71240, Note_on_c, 0, 66, 57
3, 71242, Note_on_c, 0, 64, 0
3, 71260, Note_on_c, 0, 64, 57
3, 71262, Note_on_c, 0, 66, 0
3, 71280, Note_on_c, 0, 50, 0
3, 71280, Note_on_c, 0, 66, 58
3, 71280, Note_on_c, 0, 48, 64
3, 71282, Note_on_c, 0, 64, 0
3, 71300, Note_on_c, 0, 64, 58
3, 71302, Note_on_c, 0, 66, 0
3, 71320, Note_on_c, 0, 66, 58
3, 71322, Note_on_c, 0, 64, 0
3, 71340, Note_on_c, 0, 48, 0
3, 71340, Note_on_c, 0, 64, 59
3, 71340, Note_on_c, 0, 52, 64
3, 71342, Note_on_c, 0, 66, 0
3, 71360, Note_on_c, 0, 66, 59
3, 71362, Note_on_c, 0, 64, 0
3, 71380, Note_on_c, 0, 64, 59
3, 71382, Note_on_c, 0, 66, 0
3, 71400, Note_on_c, 0, 52, 0
3, 71400, Note_on_c, 0, 66, 60
3, 71400, Note_on_c, 0, 54, 64
3, 71402, Note_on_c, 0, 64, 0
3, 71420, Note_on_c, 0, 64, 60
3, 71422, Note_on_c, 0, 66, 0
3, 71440, Note_on_c, 0, 66, 60
3, 71442, Note_on_c, 0, 64, 0
3, 71460, Note_on_c, 0, 54, 0
3, 71460, Note_on_c, 0, 64, 60
3, 71460, Note_on_c, 0, 56, 64
3, 71462, Note_on_c, 0, 66, 0
3, 71480, Note_on_c, 0, 66, 61
3, 71482, Note_on_c, 0, 64, 0
3, 71500, Note_on_c, 0, 64, 61
3, 71502, Note_on_c, 0, 66, 0
3, 71520, Note_on_c, 0, 56, 0
3, 71520, Note_on_c, 0, 66, 61
3, 71520, Note_on_c, 0, 57, 64
3, 71522, Note_on_c, 0, 64, 0
3, 71540, Note_on_c, 0, 64, 62
3, 71542, Note_on_c, 0, 66, 0
3, 71560, Note_on_c, 0, 66, 62
3, 71562, Note_on_c, 0, 64, 0
3, 71580, Note_on_c, 0, 57, 0
3, 71580, Note_on_c, 0, 64, 62
3, 71580, Note_on_c, 0, 54, 64
3, 71582, Note_on_c, 0, 66, 0
3, 71600, Note_on_c, 0, 66, 62
3, 71602, Note_on_c, 0, 64, 0
3, 71620, Note_on_c, 0, 64, 63
3, 71622, Note_on_c, 0, 66, 0
3, 71640, Note_on_c, 0, 54, 0
3, 71640, Note_on_c, 0, 66, 63
3, 71640, Note_on_c, 0, 56, 64
3, 71642, Note_on_c, 0, 64, 0
3, 71660, Note_on_c, 0, 64, 63
3, 71662, Note_on_c, 0, 66, 0
3, 71700, Note_on_c, 0, 56, 0
3, 71700, Note_on_c, 0, 54, 64
3, 71760, Note_on_c, 0, 54, 0
3, 71760, Note_on_c, 0, 74, 64
3, 71760, Note_on_c, 0, 52, 64
3, 71770, Note_on_c, 0, 64, 0
3, 71780, Note_on_c, 0, 74, 0
3, 71780, Note_on_c, 0, 72, 64
3, 71800, Note_on_c, 0, 72, 0
3, 71800, Note_on_c, 0, 74, 64
3, 71820, Note_on_c, 0, 52, 0
3, 71820, Note_on_c, 0, 50, 64
3, 71880, Note_on_c, 0, 50, 0
3, 71880, Note_on_c, 0, 48, 64
3, 71940, Note_on_c, 0, 48, 0
3, 71940, Note_on_c, 0, 47, 64
3, 72000, Note_on_c, 0, 47, 0
3, 72000, Note_on_c, 0, 45, 64
3, 72060, Note_on_c, 0, 74, 0
3, 72060, Note_on_c, 0, 76, 64
3, 72120, Note_on_c, 0, 76, 0
3, 72120, Note_on_c, 0, 45, 0
3, 72120, Note_on_c, 0, 74, 64
3, 72120, Note_on_c, 0, 52, 64
3, 72180, Note_on_c, 0, 74, 0
3, 72180, Note_on_c, 0, 72, 64
3, 72240, Note_on_c, 0, 72, 0
3, 72240, Note_on_c, 0, 52, 0
3, 72240, Note_on_c, 0, 56, 64
3, 72240, Note_on_c, 0, 71, 64
3, 72300, Note_on_c, 0, 71, 0
3, 72300, Note_on_c, 0, 74, 64
3, 72360, Note_on_c, 0, 74, 0
3, 72360, Note_on_c, 0, 56, 0
3, 72360, Note_on_c, 0, 72, 64
3, 72360, Note_on_c, 0, 57, 64
3, 72420, Note_on_c, 0, 57, 0
3, 72420, Note_on_c, 0, 59, 64
3, 72480, Note_on_c, 0, 59, 0
3, 72480, Note_on_c, 0, 72, 0
3, 72480, Note_on_c, 0, 76, 64
3, 72480, Note_on_c, 0, 57, 64
3, 72540, Note_on_c, 0, 57, 0
3, 72540, Note_on_c, 0, 55, 64
3, 72600, Note_on_c, 0, 55, 0
3, 72600, Note_on_c, 0, 76, 0
3, 72600, Note_on_c, 0, 81, 64
3, 72600, Note_on_c, 0, 54, 64
3, 72660, Note_on_c, 0, 54, 0
3, 72660, Note_on_c, 0, 57, 64
3, 72720, Note_on_c, 0, 57, 0
3, 72720, Note_on_c, 0, 51, 64
3, 72780, Note_on_c, 0, 81, 0
3, 72780, Note_on_c, 0, 83, 64
3, 72840, Note_on_c, 0, 83, 0
3, 72840, Note_on_c, 0, 51, 0
3, 72840, Note_on_c, 0, 60, 64
3, 72840, Note_on_c, 0, 81, 64
3, 72860, Note_on_c, 0, 60, 0
3, 72860, Note_on_c, 0, 59, 64
3, 72880, Note_on_c, 0, 59, 0
3, 72880, Note_on_c, 0, 60, 64
3, 72900, Note_on_c, 0, 81, 0
3, 72900, Note_on_c, 0, 79, 64
3, 72960, Note_on_c, 0, 79, 0
3, 72960, Note_on_c, 0, 78, 64
3, 73020, Note_on_c, 0, 78, 0
3, 73020, Note_on_c, 0, 81, 64
3, 73080, Note_on_c, 0, 81, 0
3, 73080, Note_on_c, 0, 75, 64
3, 73140, Note_on_c, 0, 60, 0
3, 73140, Note_on_c, 0, 57, 64
3, 73200, Note_on_c, 0, 57, 0
3, 73200, Note_on_c, 0, 75, 0
3, 73200, Note_on_c, 0, 84, 64
3, 73200, Note_on_c, 0, 54, 64
3, 73220, Note_on_c, 0, 84, 0
3, 73220, Note_on_c, 0, 83, 64
3, 73240, Note_on_c, 0, 83, 0
3, 73240, Note_on_c, 0, 84, 64
3, 73260, Note_on_c, 0, 54, 0
3, 73260, Note_on_c, 0, 57, 64
3, 73320, Note_on_c, 0, 57, 0
3, 73320, Note_on_c, 0, 51, 64
3, 73380, Note_on_c, 0, 51, 0
3, 73380, Note_on_c, 0, 54, 64
3, 73440, Note_on_c, 0, 54, 0
3, 73440, Note_on_c, 0, 47, 64
3, 73500, Note_on_c, 0, 84, 0
3, 73500, Note_on_c, 0, 83, 64
3, 73560, Note_on_c, 0, 83, 0
3, 73560, Note_on_c, 0, 47, 0
3, 73560, Note_on_c, 0, 64, 64
3, 73560, Note_on_c, 0, 81, 64
3, 73580, Note_on_c, 0, 64, 0
3, 73580, Note_on_c, 0, 63, 64
3, 73600, Note_on_c, 0, 63, 0
3, 73600, Note_on_c, 0, 64, 64
3, 73620, Note_on_c, 0, 64, 0
3, 73620, Note_on_c, 0, 81, 0
3, 73620, Note_on_c, 0, 63, 64
3, 73620, Note_on_c, 0, 79, 64
3, 73640, Note_on_c, 0, 63, 0
3, 73640, Note_on_c, 0, 64, 64
3, 73660, Note_on_c, 0, 64, 0
3, 73660, Note_on_c, 0, 63, 64
3, 73680, Note_on_c, 0, 79, 0
3, 73680, Note_on_c, 0, 78, 64
3, 73740, Note_on_c, 0, 78, 0
3, 73740, Note_on_c, 0, 63, 0
3, 73740, Note_on_c, 0, 81, 64
3, 73740, Note_on_c, 0, 61, 64
3, 73770, Note_on_c, 0, 61, 0
3, 73770, Note_on_c, 0, 63, 64
3, 73800, Note_on_c, 0, 63, 0
3, 73800, Note_on_c, 0, 81, 0
3, 73800, Note_on_c, 0, 79, 64
3, 73800, Note_on_c, 0, 64, 64
3, 73860, Note_on_c, 0, 64, 0
3, 73860, Note_on_c, 0, 63, 64
3, 73920, Note_on_c, 0, 63, 0
3, 73920, Note_on_c, 0, 64, 64
3, 73980, Note_on_c, 0, 64, 0
3, 73980, Note_on_c, 0, 66, 64
3, 74040, Note_on_c, 0, 66, 0
3, 74040, Note_on_c, 0, 67, 64
3, 74100, Note_on_c, 0, 67, 0
3, 74100, Note_on_c, 0, 64, 64
3, 74160, Note_on_c, 0, 64, 0
3, 74160, Note_on_c, 0, 58, 64
3, 74220, Note_on_c, 0, 58, 0
3, 74220, Note_on_c, 0, 79, 0
3, 74220, Note_on_c, 0, 78, 64
3, 74220, Note_on_c, 0, 59, 64
3, 74280, Note_on_c, 0, 59, 0
3, 74280, Note_on_c, 0, 78, 0
3, 74280, Note_on_c, 0, 76, 64
3, 74280, Note_on_c, 0, 61, 64
3, 74340, Note_on_c, 0, 61, 0
3, 74340, Note_on_c, 0, 76, 0
3, 74340, Note_on_c, 0, 74, 64
3, 74340, Note_on_c, 0, 62, 64
3, 74400, Note_on_c, 0, 62, 0
3, 74400, Note_on_c, 0, 74, 0
3, 74400, Note_on_c, 0, 73, 64
3, 74400, Note_on_c, 0, 64, 64
3, 74460, Note_on_c, 0, 64, 0
3, 74460, Note_on_c, 0, 73, 0
3, 74460, Note_on_c, 0, 76, 64
3, 74460, Note_on_c, 0, 61, 64
3, 74520, Note_on_c, 0, 61, 0
3, 74520, Note_on_c, 0, 76, 0
3, 74520, Note_on_c, 0, 70, 64
3, 74520, Note_on_c, 0, 54, 64
3, 74580, Note_on_c, 0, 70, 0
3, 74580, Note_on_c, 0, 79, 64
3, 74640, Note_on_c, 0, 79, 0
3, 74640, Note_on_c, 0, 54, 0
3, 74640, Note_on_c, 0, 78, 64
3, 74640, Note_on_c, 0, 58, 64
3, 74700, Note_on_c, 0, 78, 0
3, 74700, Note_on_c, 0, 76, 64
3, 74760, Note_on_c, 0, 76, 0
3, 74760, Note_on_c, 0, 58, 0
3, 74760, Note_on_c, 0, 59, 64
3, 74760, Note_on_c, 0, 75, 64
3, 74820, Note_on_c, 0, 75, 0
3, 74820, Note_on_c, 0, 78, 64
3, 74880, Note_on_c, 0, 78, 0
3, 74880, Note_on_c, 0, 59, 0
3, 74880, Note_on_c, 0, 69, 64
3, 74880, Note_on_c, 0, 60, 64
3, 74940, Note_on_c, 0, 69, 0
3, 74940, Note_on_c, 0, 72, 64
3, 75000, Note_on_c, 0, 72, 0
3, 75000, Note_on_c, 0, 60, 0
3, 75000, Note_on_c, 0, 71, 64
3, 75000, Note_on_c, 0, 51, 64
3, 75060, Note_on_c, 0, 71, 0
3, 75060, Note_on_c, 0, 69, 64
3, 75120, Note_on_c, 0, 69, 0
3, 75120, Note_on_c, 0, 51, 0
3, 75120, Note_on_c, 0, 52, 64
3, 75120, Note_on_c, 0, 67, 64
3, 75180, Note_on_c, 0, 67, 0
3, 75180, Note_on_c, 0, 71, 64
3, 75240, Note_on_c, 0, 71, 0
3, 75240, Note_on_c, 0, 52, 0
3, 75240, Note_on_c, 0, 64, 64
3, 75240, Note_on_c, 0, 48, 64
3, 75360, Note_on_c, 0, 48, 0
3, 75360, Note_on_c, 0, 64, 0
3, 75360, Note_on_c, 0, 66, 64
3, 75360, Note_on_c, 0, 45, 64
3, 75380, Note_on_c, 0, 66, 0
3, 75380, Note_on_c, 0, 64, 64
3, 75400, Note_on_c, 0, 64, 0
3, 75400, Note_on_c, 0, 66, 64
3, 75480, Note_on_c, 0, 66, 0
3, 75480, Note_on_c, 0, 45, 0
3, 75480, Note_on_c, 0, 64, 64
3, 75480, Note_on_c, 0, 47, 64
3, 75500, Note_on_c, 0, 64, 0
3, 75500, Note_on_c, 0, 63, 64
3, 75520, Note_on_c, 0, 63, 0
3, 75520, Note_on_c, 0, 61, 64
3, 75540, Note_on_c, 0, 61, 0
3, 75540, Note_on_c, 0, 63, 64
3, 75600, Note_on_c, 0, 63, 0
3, 75600, Note_on_c, 0, 47, 0
3, 75600, Note_on_c, 0, 64, 64
3, 75600, Note_on_c, 0, 36, 64
3, 75660, Note_on_c, 0, 36, 0
3, 75660, Note_on_c, 0, 64, 0
3, 75660, Note_on_c, 0, 68, 64
3, 75660, Note_on_c, 0, 40, 64
3, 75720, Note_on_c, 0, 40, 0
3, 75720, Note_on_c, 0, 68, 0
3, 75720, Note_on_c, 0, 69, 64
3, 75720, Note_on_c, 0, 42, 64
3, 75780, Note_on_c, 0, 42, 0
3, 75780, Note_on_c, 0, 69, 0
3, 75780, Note_on_c, 0, 71, 64
3, 75780, Note_on_c, 0, 44, 64
3, 75840, Note_on_c, 0, 44, 0
3, 75840, Note_on_c, 0, 71, 0
3, 75840, Note_on_c, 0, 72, 64
3, 75840, Note_on_c, 0, 45, 64
3, 75900, Note_on_c, 0, 45, 0
3, 75900, Note_on_c, 0, 72, 0
3, 75900, Note_on_c, 0, 42, 64
3, 75900, Note_on_c, 0, 69, 64
3, 75960, Note_on_c, 0, 69, 0
3, 75960, Note_on_c, 0, 42, 0
3, 75960, Note_on_c, 0, 44, 64
3, 75960, Note_on_c, 0, 71, 64
3, 76020, Note_on_c, 0, 71, 0
3, 76020, Note_on_c, 0, 44, 0
3, 76020, Note_on_c, 0, 47, 64
3, 76020, Note_on_c, 0, 69, 64
3, 76080, Note_on_c, 0, 69, 0
3, 76080, Note_on_c, 0, 47, 0
3, 76080, Note_on_c, 0, 48, 64
3, 76080, Note_on_c, 0, 68, 64
3, 76140, Note_on_c, 0, 68, 0
3, 76140, Note_on_c, 0, 48, 0
3, 76140, Note_on_c, 0, 50, 64
3, 76140, Note_on_c, 0, 66, 64
3, 76200, Note_on_c, 0, 66, 0
3, 76200, Note_on_c, 0, 50, 0
3, 76200, Note_on_c, 0, 52, 64
3, 76200, Note_on_c, 0, 64, 64
3, 76260, Note_on_c, 0, 64, 0
3, 76260, Note_on_c, 0, 52, 0
3, 76260, Note_on_c, 0, 54, 64
3, 76260, Note_on_c, 0, 74, 64
3, 76320, Note_on_c, 0, 74, 0
3, 76320, Note_on_c, 0, 54, 0
3, 76320, Note_on_c, 0, 73, 64
3, 76320, Note_on_c, 0, 55, 64
3, 76380, Note_on_c, 0, 73, 0
3, 76380, Note_on_c, 0, 75, 64
3, 76440, Note_on_c, 0, 75, 0
3, 76440, Note_on_c, 0, 55, 0
3, 76440, Note_on_c, 0, 76, 64
3, 76440, Note_on_c, 0, 54, 64
3, 76500, Note_on_c, 0, 76, 0
3, 76500, Note_on_c, 0, 78, 64
3, 76560, Note_on_c, 0, 78, 0
3, 76560, Note_on_c, 0, 54, 0
3, 76560, Note_on_c, 0, 52, 64
3, 76560, Note_on_c, 0, 79, 64
3, 76620, Note_on_c, 0, 79, 0
3, 76620, Note_on_c, 0, 76, 64
3, 76680, Note_on_c, 0, 76, 0
3, 76680, Note_on_c, 0, 52, 0
3, 76680, Note_on_c, 0, 78, 64
3, 76680, Note_on_c, 0, 51, 64
3, 76740, Note_on_c, 0, 78, 0
3, 76740, Note_on_c, 0, 76, 64
3, 76800, Note_on_c, 0, 76, 0
3, 76800, Note_on_c, 0, 51, 0
3, 76800, Note_on_c, 0, 75, 64
3, 76800, Note_on_c, 0, 47, 64
3, 76860, Note_on_c, 0, 75, 0
3, 76860, Note_on_c, 0, 73, 64
3, 76920, Note_on_c, 0, 73, 0
3, 76920, Note_on_c, 0, 47, 0
3, 76920, Note_on_c, 0, 51, 64
3, 76920, Note_on_c, 0, 71, 64
3, 76980, Note_on_c, 0, 71, 0
3, 76980, Note_on_c, 0, 69, 64
3, 77040, Note_on_c, 0, 69, 0
3, 77040, Note_on_c, 0, 51, 0
3, 77040, Note_on_c, 0, 67, 64
3, 77040, Note_on_c, 0, 52, 64
3, 77160, Note_on_c, 0, 52, 0
3, 77160, Note_on_c, 0, 67, 0
3, 77160, Note_on_c, 0, 69, 64
3, 77160, Note_on_c, 0, 45, 64
3, 77180, Note_on_c, 0, 69, 0
3, 77180, Note_on_c, 0, 67, 64
3, 77200, Note_on_c, 0, 67, 0
3, 77200, Note_on_c, 0, 69, 64
3, 77280, Note_on_c, 0, 69, 0
3, 77280, Note_on_c, 0, 45, 0
3, 77280, Note_on_c, 0, 67, 64
3, 77280, Note_on_c, 0, 47, 64
3, 77300, Note_on_c, 0, 67, 0
3, 77300, Note_on_c, 0, 66, 64
3, 77320, Note_on_c, 0, 66, 0
3, 77320, Note_on_c, 0, 64, 64
3, 77340, Note_on_c, 0, 64, 0
3, 77340, Note_on_c, 0, 66, 64
3, 77400, Note_on_c, 0, 66, 0
3, 77400, Note_on_c, 0, 47, 0
3, 77400, Note_on_c, 0, 40, 64
3, 77400, Note_on_c, 0, 64, 64
3, 77760, Note_on_c, 0, 64, 0
3, 77760, Note_on_c, 0, 40, 0
3, 77760, End_track
0, 0, End_of_file
