0, 0, Header, 1, 5, 120
1, 0, Start_track
1, 0, Time_signature, 4, 2, 24, 8
1, 0, Key_signature, 0, "major"
1, 0, Tempo, 909091
1, 0, Marker_t, "(c) Yo Tomita, 1997"
1, 2, Tempo, 857143
1, 241, Tempo, 1257862
1, 244, Tempo, 794702
1, 251, Tempo, 774194
1, 252, Tempo, 769231
1, 260, Tempo, 745342
1, 261, Tempo, 740741
1, 268, Tempo, 759494
1, 276, Tempo, 779221
1, 283, Tempo, 794702
1, 290, Tempo, 810811
1, 291, Tempo, 816327
1, 298, Tempo, 833333
1, 308, Tempo, 857143
1, 482, Tempo, 1269841
1, 484, Tempo, 784314
1, 485, Tempo, 779221
1, 487, Tempo, 774194
1, 491, Tempo, 759494
1, 492, Tempo, 754717
1, 497, Tempo, 740741
1, 498, Tempo, 736196
1, 500, Tempo, 731707
1, 501, Tempo, 727273
1, 502, Tempo, 722892
1, 513, Tempo, 759494
1, 515, Tempo, 764331
1, 516, Tempo, 769231
1, 525, Tempo, 800000
1, 526, Tempo, 805369
1, 533, Tempo, 827586
1, 540, Tempo, 857143
1, 541, Tempo, 863309
1, 543, Tempo, 869565
1, 545, Tempo, 875912
1, 546, Tempo, 882353
1, 548, Tempo, 888889
1, 550, Tempo, 875912
1, 1201, Tempo, 1269841
1, 1203, Tempo, 764331
1, 1206, Tempo, 754717
1, 1210, Tempo, 745342
1, 1215, Tempo, 731707
1, 1216, Tempo, 727273
1, 1218, Tempo, 722892
1, 1228, Tempo, 745342
1, 1233, Tempo, 759494
1, 1240, Tempo, 779221
1, 1241, Tempo, 789474
1, 1246, Tempo, 805369
1, 1250, Tempo, 816327
1, 1251, Tempo, 821918
1, 1256, Tempo, 839161
1, 1261, Tempo, 857143
1, 1263, Tempo, 869565
1, 2118, Tempo, 848656
1, 2121, Tempo, 854701
1, 2138, Tempo, 860832
1, 2150, Tempo, 879765
1, 2156, Tempo, 1207243
1, 2175, Tempo, 944882
1, 2177, Tempo, 833333
1, 2190, Tempo, 816327
1, 2198, Tempo, 805369
1, 2211, Tempo, 789474
1, 2222, Tempo, 800000
1, 2232, Tempo, 810811
1, 2242, Tempo, 821918
1, 2252, Tempo, 833333
1, 2262, Tempo, 845070
1, 2267, Tempo, 851064
1, 2662, Tempo, 1013514
1, 2663, Tempo, 1039861
1, 2665, Tempo, 1048951
1, 2666, Tempo, 1058201
1, 2670, Tempo, 1067616
1, 2673, Tempo, 1077199
1, 2680, Tempo, 972447
1, 2681, Tempo, 941915
1, 2682, Tempo, 913242
1, 2683, Tempo, 899550
1, 2685, Tempo, 886263
1, 2686, Tempo, 873362
1, 2687, Tempo, 867052
1, 2688, Tempo, 854701
1, 2693, Tempo, 831025
1, 2696, Tempo, 825309
1, 2697, Tempo, 819672
1, 2732, Tempo, 819672
1, 2736, Tempo, 825309
1, 2738, Tempo, 831025
1, 2742, Tempo, 842697
1, 2745, Tempo, 848656
1, 2860, Tempo, 867052
1, 2872, Tempo, 886263
1, 2880, Tempo, 899550
1, 2887, Tempo, 892857
1, 2890, Tempo, 886263
1, 2892, Tempo, 879765
1, 2893, Tempo, 873362
1, 2896, Tempo, 867052
1, 2897, Tempo, 860832
1, 2898, Tempo, 854701
1, 2900, Tempo, 848656
1, 2922, Tempo, 860832
1, 2930, Tempo, 867052
1, 2935, Tempo, 873362
1, 2943, Tempo, 892857
1, 2947, Tempo, 899550
1, 2948, Tempo, 906344
1, 2960, Tempo, 913242
1, 2965, Tempo, 920245
1, 2997, Tempo, 913242
1, 3002, Tempo, 906344
1, 3005, Tempo, 899550
1, 3007, Tempo, 892857
1, 3008, Tempo, 886263
1, 3010, Tempo, 879765
1, 3012, Tempo, 873362
1, 3013, Tempo, 867052
1, 3016, Tempo, 860832
1, 3017, Tempo, 854701
1, 3018, Tempo, 848656
1, 3021, Tempo, 842697
1, 3023, Tempo, 836820
1, 3026, Tempo, 831025
1, 3035, Tempo, 825309
1, 3058, Tempo, 819672
1, 3082, Tempo, 825309
1, 3090, Tempo, 831025
1, 3095, Tempo, 836820
1, 3098, Tempo, 842697
1, 3300, Tempo, 848656
1, 3308, Tempo, 854701
1, 3316, Tempo, 860832
1, 3323, Tempo, 867052
1, 3328, Tempo, 873362
1, 3347, Tempo, 867052
1, 3352, Tempo, 860832
1, 3357, Tempo, 854701
1, 3363, Tempo, 848656
1, 3365, Tempo, 842697
1, 3846, Tempo, 972447
1, 3847, Tempo, 1030928
1, 3851, Tempo, 1013514
1, 3852, Tempo, 729927
1, 3853, Tempo, 725514
1, 3855, Tempo, 716846
1, 3856, Tempo, 712589
1, 3857, Tempo, 704225
1, 3871, Tempo, 708383
1, 3876, Tempo, 712589
1, 3877, Tempo, 716846
1, 3878, Tempo, 721154
1, 3880, Tempo, 729927
1, 3882, Tempo, 734394
1, 3883, Tempo, 743494
1, 3885, Tempo, 748130
1, 3886, Tempo, 752823
1, 3887, Tempo, 762389
1, 3888, Tempo, 767263
1, 3890, Tempo, 772201
1, 3891, Tempo, 777202
1, 3892, Tempo, 787402
1, 3895, Tempo, 797872
1, 3897, Tempo, 808625
1, 3898, Tempo, 814111
1, 3900, Tempo, 819672
1, 3901, Tempo, 825309
1, 3902, Tempo, 831025
1, 3905, Tempo, 836820
1, 3910, Tempo, 842697
1, 3912, Tempo, 848656
1, 3916, Tempo, 854701
1, 4708, Tempo, 848656
1, 4720, Tempo, 854701
1, 4726, Tempo, 860832
1, 4735, Tempo, 867052
1, 4742, Tempo, 873362
1, 4746, Tempo, 879765
1, 4750, Tempo, 886263
1, 4756, Tempo, 892857
1, 4800, Tempo, 886263
1, 4806, Tempo, 879765
1, 4808, Tempo, 873362
1, 4812, Tempo, 860832
1, 4815, Tempo, 854701
1, 5001, Tempo, 882353
1, 5026, Tempo, 952381
1, 5050, Tempo, 1052632
1, 5060, Tempo, 845070
1, 5226, Tempo, 860832
1, 5240, Tempo, 867052
1, 5247, Tempo, 873362
1, 5253, Tempo, 879765
1, 5260, Tempo, 886263
1, 5272, Tempo, 879765
1, 5275, Tempo, 873362
1, 5278, Tempo, 867052
1, 5281, Tempo, 860832
1, 5283, Tempo, 854701
1, 5647, Tempo, 842697
1, 5658, Tempo, 848656
1, 5667, Tempo, 854701
1, 5671, Tempo, 860832
1, 5677, Tempo, 867052
1, 5680, Tempo, 873362
1, 5686, Tempo, 879765
1, 5688, Tempo, 886263
1, 5695, Tempo, 892857
1, 5701, Tempo, 899550
1, 5711, Tempo, 906344
1, 5733, Tempo, 899550
1, 5737, Tempo, 892857
1, 5743, Tempo, 886263
1, 5746, Tempo, 879765
1, 5750, Tempo, 873362
1, 5753, Tempo, 867052
1, 5756, Tempo, 860832
1, 5758, Tempo, 854701
1, 5761, Tempo, 848656
1, 5966, Tempo, 882353
1, 5981, Tempo, 923077
1, 5996, Tempo, 952381
1, 6010, Tempo, 857143
1, 6201, Tempo, 882353
1, 6220, Tempo, 937500
1, 6238, Tempo, 952381
1, 6253, Tempo, 857143
1, 6685, Tempo, 895522
1, 6703, Tempo, 923077
1, 6721, Tempo, 952381
1, 6725, Tempo, 857143
1, 7320, Tempo, 882353
1, 7348, Tempo, 909091
1, 7381, Tempo, 952381
1, 7406, Tempo, 1034483
1, 7408, Tempo, 983607
1, 7440, Tempo, 909091
1, 7491, Tempo, 869565
1, 7866, Tempo, 895522
1, 7893, Tempo, 923077
1, 7913, Tempo, 952381
1, 7930, Tempo, 869565
1, 7955, Tempo, 879765
1, 7968, Tempo, 956938
1, 7971, Tempo, 964630
1, 7972, Tempo, 972447
1, 7975, Tempo, 879765
1, 7976, Tempo, 848656
1, 7977, Tempo, 831025
1, 7978, Tempo, 819672
1, 7980, Tempo, 808625
1, 7981, Tempo, 803213
1, 7982, Tempo, 797872
1, 7983, Tempo, 787402
1, 7986, Tempo, 777202
1, 7987, Tempo, 767263
1, 7988, Tempo, 762389
1, 7990, Tempo, 757576
1, 7991, Tempo, 752823
1, 7993, Tempo, 748130
1, 8015, Tempo, 752823
1, 8020, Tempo, 762389
1, 8022, Tempo, 767263
1, 8023, Tempo, 772201
1, 8027, Tempo, 782269
1, 8028, Tempo, 787402
1, 8030, Tempo, 792602
1, 8031, Tempo, 797872
1, 8033, Tempo, 803213
1, 8036, Tempo, 814111
1, 8038, Tempo, 819672
1, 8040, Tempo, 825309
1, 8042, Tempo, 831025
1, 8043, Tempo, 836820
1, 8046, Tempo, 842697
1, 8047, Tempo, 848656
1, 8048, Tempo, 854701
1, 8351, Tempo, 882353
1, 8376, Tempo, 937500
1, 8403, Tempo, 967742
1, 8408, Tempo, 857143
1, 8591, Tempo, 882353
1, 8611, Tempo, 909091
1, 8636, Tempo, 937500
1, 8650, Tempo, 857143
1, 8825, Tempo, 882353
1, 8848, Tempo, 909091
1, 8871, Tempo, 937500
1, 8885, Tempo, 857143
1, 9056, Tempo, 882353
1, 9083, Tempo, 909091
1, 9106, Tempo, 967742
1, 9128, Tempo, 857143
1, 9616, Tempo, 1117318
1, 9627, Tempo, 1022147
1, 9628, Tempo, 836820
1, 9630, Tempo, 825309
1, 9631, Tempo, 797872
1, 9633, Tempo, 787402
1, 9635, Tempo, 782269
1, 9636, Tempo, 777202
1, 9637, Tempo, 772201
1, 9638, Tempo, 767263
1, 9641, Tempo, 762389
1, 9642, Tempo, 757576
1, 9645, Tempo, 752823
1, 9647, Tempo, 748130
1, 9650, Tempo, 743494
1, 9652, Tempo, 738916
1, 9656, Tempo, 734394
1, 9661, Tempo, 729927
1, 9672, Tempo, 734394
1, 9675, Tempo, 738916
1, 9677, Tempo, 743494
1, 9678, Tempo, 748130
1, 9680, Tempo, 752823
1, 9681, Tempo, 757576
1, 9682, Tempo, 762389
1, 9685, Tempo, 767263
1, 9686, Tempo, 772201
1, 9688, Tempo, 777202
1, 9691, Tempo, 782269
1, 9692, Tempo, 787402
1, 9695, Tempo, 792602
1, 9696, Tempo, 797872
1, 9698, Tempo, 803213
1, 9701, Tempo, 814111
1, 9703, Tempo, 819672
1, 9707, Tempo, 825309
1, 9711, Tempo, 831025
1, 9712, Tempo, 836820
1, 9715, Tempo, 842697
1, 9716, Tempo, 941915
1, 9736, Tempo, 858369
1, 10016, Tempo, 869565
1, 10045, Tempo, 882353
1, 10073, Tempo, 895522
1, 10091, Tempo, 857143
1, 10803, Tempo, 1060071
1, 10817, Tempo, 1039861
1, 10820, Tempo, 787402
1, 10821, Tempo, 777202
1, 10822, Tempo, 767263
1, 10823, Tempo, 757576
1, 10825, Tempo, 752823
1, 10827, Tempo, 748130
1, 10831, Tempo, 743494
1, 10836, Tempo, 738916
1, 10840, Tempo, 734394
1, 10843, Tempo, 729927
1, 10858, Tempo, 734394
1, 10861, Tempo, 738916
1, 10863, Tempo, 743494
1, 10865, Tempo, 748130
1, 10866, Tempo, 752823
1, 10867, Tempo, 757576
1, 10870, Tempo, 762389
1, 10872, Tempo, 772201
1, 10873, Tempo, 777202
1, 10876, Tempo, 787402
1, 10880, Tempo, 792602
1, 10882, Tempo, 803213
1, 10883, Tempo, 808625
1, 10886, Tempo, 956938
1, 10901, Tempo, 854701
1, 10998, Tempo, 869565
1, 11016, Tempo, 882353
1, 11036, Tempo, 909091
1, 11045, Tempo, 857143
1, 11701, Tempo, 857143
1, 11738, Tempo, 895522
1, 11766, Tempo, 845070
1, 11965, Tempo, 869565
1, 11990, Tempo, 923077
1, 12006, Tempo, 845070
1, 12673, Tempo, 869565
1, 12698, Tempo, 895522
1, 12723, Tempo, 857143
1, 12910, Tempo, 895522
1, 12936, Tempo, 923077
1, 12966, Tempo, 857143
1, 13141, Tempo, 869565
1, 13166, Tempo, 895522
1, 13203, Tempo, 857143
1, 14063, Tempo, 882353
1, 14113, Tempo, 923077
1, 14170, Tempo, 857143
1, 14307, Tempo, 967742
1, 14331, Tempo, 845070
1, 14382, Tempo, 909091
1, 14407, Tempo, 857143
1, 14636, Tempo, 845070
1, 14723, Tempo, 869565
1, 14781, Tempo, 895522
1, 14831, Tempo, 952381
1, 14885, Tempo, 923077
1, 14928, Tempo, 869565
1, 14963, Tempo, 845070
1, 15300, Tempo, 857143
1, 15328, Tempo, 895522
1, 15370, Tempo, 857143
1, 15610, Tempo, 867052
1, 15628, Tempo, 887837
1, 15646, Tempo, 920245
1, 15658, Tempo, 939261
1, 15670, Tempo, 964630
1, 15685, Tempo, 977040
1, 15702, Tempo, 996678
1, 15715, Tempo, 1016777
1, 15730, Tempo, 1048951
1, 15741, Tempo, 1077006
1, 15746, Tempo, 1117110
1, 15762, Tempo, 1160542
1, 15770, Tempo, 1207001
1, 15783, Tempo, 1268231
1, 15791, Tempo, 1366431
1, 15807, Tempo, 1511335
1, 15822, Tempo, 1863354
1, 15832, Tempo, 2586207
1, 15850, Tempo, 848656
1, 15850, End_track
2, 0, Start_track
2, 0, MIDI_port, 0
2, 0, Title_t, "BWV 870/1"
2, 0, Program_c, 1, 6
2, 0, Note_on_c, 1, 48, 120
2, 0, Note_on_c, 1, 36, 120
2, 30, Note_on_c, 1, 72, 120
2, 60, Note_on_c, 1, 72, 0
2, 60, Note_on_c, 1, 74, 120
2, 90, Note_on_c, 1, 74, 0
2, 90, Note_on_c, 1, 76, 120
2, 120, Note_on_c, 1, 76, 0
2, 120, Note_on_c, 1, 67, 120
2, 150, Note_on_c, 1, 67, 0
2, 150, Note_on_c, 1, 76, 120
2, 180, Note_on_c, 1, 76, 0
2, 180, Note_on_c, 1, 65, 120
2, 210, Note_on_c, 1, 65, 0
2, 210, Note_on_c, 1, 74, 120
2, 240, Note_on_c, 1, 74, 0
2, 240, Note_on_c, 1, 64, 120
2, 255, Note_on_c, 1, 64, 0
2, 255, Note_on_c, 1, 72, 120
2, 270, Note_on_c, 1, 71, 120
2, 274, Note_on_c, 1, 72, 0
2, 285, Note_on_c, 1, 69, 120
2, 287, Note_on_c, 1, 71, 0
2, 300, Note_on_c, 1, 67, 120
2, 302, Note_on_c, 1, 69, 0
2, 330, Note_on_c, 1, 67, 0
2, 330, Note_on_c, 1, 70, 120
2, 360, Note_on_c, 1, 70, 0
2, 360, Note_on_c, 1, 64, 120
2, 390, Note_on_c, 1, 64, 0
2, 390, Note_on_c, 1, 67, 120
2, 420, Note_on_c, 1, 67, 0
2, 420, Note_on_c, 1, 60, 120
2, 450, Note_on_c, 1, 60, 0
2, 450, Note_on_c, 1, 70, 120
2, 480, Note_on_c, 1, 70, 0
2, 480, Note_on_c, 1, 69, 120
2, 495, Note_on_c, 1, 67, 120
2, 499, Note_on_c, 1, 69, 0
2, 510, Note_on_c, 1, 65, 120
2, 514, Note_on_c, 1, 67, 0
2, 525, Note_on_c, 1, 64, 120
2, 529, Note_on_c, 1, 65, 0
2, 540, Note_on_c, 1, 65, 120
2, 548, Note_on_c, 1, 64, 0
2, 570, Note_on_c, 1, 65, 0
2, 570, Note_on_c, 1, 69, 120
2, 600, Note_on_c, 1, 69, 0
2, 600, Note_on_c, 1, 62, 120
2, 630, Note_on_c, 1, 62, 0
2, 630, Note_on_c, 1, 65, 120
2, 660, Note_on_c, 1, 65, 0
2, 660, Note_on_c, 1, 57, 120
2, 690, Note_on_c, 1, 57, 0
2, 690, Note_on_c, 1, 60, 120
2, 720, Note_on_c, 1, 60, 0
2, 720, Note_on_c, 1, 59, 120
2, 750, Note_on_c, 1, 59, 0
2, 750, Note_on_c, 1, 62, 120
2, 780, Note_on_c, 1, 62, 0
2, 780, Note_on_c, 1, 64, 120
2, 810, Note_on_c, 1, 64, 0
2, 810, Note_on_c, 1, 65, 120
2, 840, Note_on_c, 1, 65, 0
2, 840, Note_on_c, 1, 55, 120
2, 870, Note_on_c, 1, 55, 0
2, 870, Note_on_c, 1, 65, 120
2, 900, Note_on_c, 1, 65, 0
2, 900, Note_on_c, 1, 64, 120
2, 930, Note_on_c, 1, 64, 0
2, 930, Note_on_c, 1, 62, 120
2, 960, Note_on_c, 1, 62, 0
2, 960, Note_on_c, 1, 64, 120
2, 990, Note_on_c, 1, 60, 120
2, 990, Note_on_c, 1, 60, 120
2, 1020, Note_on_c, 1, 60, 0
2, 1020, Note_on_c, 1, 59, 120
2, 1050, Note_on_c, 1, 59, 0
2, 1050, Note_on_c, 1, 57, 120
2, 1080, Note_on_c, 1, 57, 0
2, 1080, Note_on_c, 1, 48, 0
2, 1080, Note_on_c, 1, 36, 0
2, 1080, Note_on_c, 1, 55, 120
2, 1110, Note_on_c, 1, 53, 120
2, 1140, Note_on_c, 1, 53, 0
2, 1140, Note_on_c, 1, 52, 120
2, 1170, Note_on_c, 1, 52, 0
2, 1170, Note_on_c, 1, 50, 120
2, 1200, Note_on_c, 1, 50, 0
2, 1200, Note_on_c, 1, 48, 120
2, 1215, Note_on_c, 1, 50, 120
2, 1217, Note_on_c, 1, 48, 0
2, 1230, Note_on_c, 1, 48, 120
2, 1234, Note_on_c, 1, 50, 0
2, 1245, Note_on_c, 1, 47, 120
2, 1249, Note_on_c, 1, 48, 0
2, 1260, Note_on_c, 1, 48, 120
2, 1264, Note_on_c, 1, 47, 0
2, 1290, Note_on_c, 1, 48, 0
2, 1290, Note_on_c, 1, 52, 120
2, 1320, Note_on_c, 1, 52, 0
2, 1320, Note_on_c, 1, 43, 120
2, 1350, Note_on_c, 1, 43, 0
2, 1350, Note_on_c, 1, 46, 120
2, 1380, Note_on_c, 1, 46, 0
2, 1380, Note_on_c, 1, 45, 120
2, 1410, Note_on_c, 1, 45, 0
2, 1410, Note_on_c, 1, 43, 120
2, 1440, Note_on_c, 1, 43, 0
2, 1440, Note_on_c, 1, 55, 0
2, 1440, Note_on_c, 1, 60, 0
2, 1440, Note_on_c, 1, 57, 120
2, 1440, Note_on_c, 1, 41, 120
2, 1470, Note_on_c, 1, 48, 120
2, 1500, Note_on_c, 1, 48, 0
2, 1500, Note_on_c, 1, 50, 120
2, 1530, Note_on_c, 1, 50, 0
2, 1530, Note_on_c, 1, 52, 120
2, 1560, Note_on_c, 1, 52, 0
2, 1560, Note_on_c, 1, 53, 120
2, 1590, Note_on_c, 1, 64, 0
2, 1590, Note_on_c, 1, 62, 120
2, 1620, Note_on_c, 1, 53, 0
2, 1620, Note_on_c, 1, 52, 120
2, 1650, Note_on_c, 1, 62, 0
2, 1650, Note_on_c, 1, 60, 120
2, 1680, Note_on_c, 1, 60, 0
2, 1680, Note_on_c, 1, 52, 0
2, 1680, Note_on_c, 1, 57, 0
2, 1680, Note_on_c, 1, 59, 120
2, 1680, Note_on_c, 1, 55, 120
2, 1680, Note_on_c, 1, 50, 120
2, 1710, Note_on_c, 1, 59, 0
2, 1710, Note_on_c, 1, 62, 120
2, 1740, Note_on_c, 1, 62, 0
2, 1740, Note_on_c, 1, 67, 120
2, 1770, Note_on_c, 1, 55, 0
2, 1770, Note_on_c, 1, 59, 120
2, 1800, Note_on_c, 1, 59, 0
2, 1800, Note_on_c, 1, 50, 0
2, 1800, Note_on_c, 1, 41, 0
2, 1800, Note_on_c, 1, 60, 120
2, 1800, Note_on_c, 1, 52, 120
2, 1800, Note_on_c, 1, 40, 120
2, 1830, Note_on_c, 1, 67, 0
2, 1830, Note_on_c, 1, 67, 120
2, 1843, Note_on_c, 1, 40, 0
2, 1860, Note_on_c, 1, 67, 0
2, 1860, Note_on_c, 1, 65, 120
2, 1860, Note_on_c, 1, 45, 120
2, 1890, Note_on_c, 1, 65, 0
2, 1890, Note_on_c, 1, 64, 120
2, 1903, Note_on_c, 1, 45, 0
2, 1920, Note_on_c, 1, 64, 0
2, 1920, Note_on_c, 1, 52, 0
2, 1920, Note_on_c, 1, 65, 120
2, 1920, Note_on_c, 1, 50, 120
2, 1920, Note_on_c, 1, 38, 120
2, 1950, Note_on_c, 1, 60, 0
2, 1950, Note_on_c, 1, 60, 120
2, 1980, Note_on_c, 1, 60, 0
2, 1980, Note_on_c, 1, 62, 120
2, 2010, Note_on_c, 1, 62, 0
2, 2010, Note_on_c, 1, 57, 120
2, 2040, Note_on_c, 1, 57, 0
2, 2040, Note_on_c, 1, 38, 0
2, 2040, Note_on_c, 1, 59, 120
2, 2040, Note_on_c, 1, 43, 120
2, 2070, Note_on_c, 1, 65, 0
2, 2070, Note_on_c, 1, 65, 120
2, 2100, Note_on_c, 1, 65, 0
2, 2100, Note_on_c, 1, 64, 120
2, 2130, Note_on_c, 1, 64, 0
2, 2130, Note_on_c, 1, 62, 120
2, 2160, Note_on_c, 1, 62, 0
2, 2160, Note_on_c, 1, 43, 0
2, 2160, Note_on_c, 1, 59, 0
2, 2160, Note_on_c, 1, 50, 0
2, 2160, Note_on_c, 1, 64, 120
2, 2160, Note_on_c, 1, 60, 120
2, 2160, Note_on_c, 1, 48, 120
2, 2160, Note_on_c, 1, 36, 120
2, 2190, Note_on_c, 1, 36, 0
2, 2190, Note_on_c, 1, 48, 0
2, 2190, Note_on_c, 1, 43, 120
2, 2220, Note_on_c, 1, 43, 0
2, 2220, Note_on_c, 1, 45, 120
2, 2250, Note_on_c, 1, 45, 0
2, 2250, Note_on_c, 1, 47, 120
2, 2280, Note_on_c, 1, 47, 0
2, 2280, Note_on_c, 1, 48, 120
2, 2310, Note_on_c, 1, 48, 0
2, 2310, Note_on_c, 1, 52, 120
2, 2340, Note_on_c, 1, 52, 0
2, 2340, Note_on_c, 1, 45, 120
2, 2370, Note_on_c, 1, 45, 0
2, 2370, Note_on_c, 1, 48, 120
2, 2400, Note_on_c, 1, 48, 0
2, 2400, Note_on_c, 1, 64, 0
2, 2400, Note_on_c, 1, 62, 120
2, 2400, Note_on_c, 1, 42, 120
2, 2430, Note_on_c, 1, 60, 0
2, 2430, Note_on_c, 1, 60, 120
2, 2435, Note_on_c, 1, 42, 0
2, 2460, Note_on_c, 1, 60, 0
2, 2460, Note_on_c, 1, 59, 120
2, 2460, Note_on_c, 1, 38, 120
2, 2490, Note_on_c, 1, 59, 0
2, 2490, Note_on_c, 1, 57, 120
2, 2495, Note_on_c, 1, 38, 0
2, 2520, Note_on_c, 1, 57, 0
2, 2520, Note_on_c, 1, 59, 120
2, 2520, Note_on_c, 1, 43, 120
2, 2550, Note_on_c, 1, 62, 0
2, 2550, Note_on_c, 1, 62, 120
2, 2580, Note_on_c, 1, 62, 0
2, 2580, Note_on_c, 1, 64, 120
2, 2610, Note_on_c, 1, 64, 0
2, 2610, Note_on_c, 1, 67, 120
2, 2640, Note_on_c, 1, 67, 0
2, 2640, Note_on_c, 1, 59, 0
2, 2640, Note_on_c, 1, 60, 120
2, 2640, Note_on_c, 1, 57, 120
2, 2670, Note_on_c, 1, 43, 0
2, 2670, Note_on_c, 1, 45, 120
2, 2685, Note_on_c, 1, 47, 120
2, 2693, Note_on_c, 1, 45, 0
2, 2700, Note_on_c, 1, 48, 120
2, 2708, Note_on_c, 1, 47, 0
2, 2715, Note_on_c, 1, 50, 120
2, 2723, Note_on_c, 1, 48, 0
2, 2730, Note_on_c, 1, 52, 120
2, 2738, Note_on_c, 1, 50, 0
2, 2760, Note_on_c, 1, 52, 0
2, 2760, Note_on_c, 1, 42, 120
2, 2790, Note_on_c, 1, 60, 0
2, 2790, Note_on_c, 1, 69, 120
2, 2805, Note_on_c, 1, 67, 120
2, 2809, Note_on_c, 1, 69, 0
2, 2820, Note_on_c, 1, 69, 120
2, 2820, Note_on_c, 1, 50, 120
2, 2828, Note_on_c, 1, 67, 0
2, 2850, Note_on_c, 1, 69, 0
2, 2850, Note_on_c, 1, 60, 120
2, 2880, Note_on_c, 1, 60, 0
2, 2880, Note_on_c, 1, 42, 0
2, 2880, Note_on_c, 1, 59, 120
2, 2880, Note_on_c, 1, 43, 120
2, 2910, Note_on_c, 1, 57, 0
2, 2910, Note_on_c, 1, 57, 120
2, 2940, Note_on_c, 1, 57, 0
2, 2940, Note_on_c, 1, 55, 120
2, 2970, Note_on_c, 1, 55, 0
2, 2970, Note_on_c, 1, 54, 120
2, 3000, Note_on_c, 1, 54, 0
2, 3000, Note_on_c, 1, 55, 120
2, 3030, Note_on_c, 1, 59, 0
2, 3030, Note_on_c, 1, 62, 120
2, 3060, Note_on_c, 1, 43, 0
2, 3060, Note_on_c, 1, 55, 0
2, 3060, Note_on_c, 1, 50, 0
2, 3060, Note_on_c, 1, 64, 120
2, 3060, Note_on_c, 1, 41, 120
2, 3069, Note_on_c, 1, 62, 0
2, 3090, Note_on_c, 1, 65, 120
2, 3099, Note_on_c, 1, 41, 0
2, 3099, Note_on_c, 1, 64, 0
2, 3120, Note_on_c, 1, 67, 120
2, 3120, Note_on_c, 1, 40, 120
2, 3129, Note_on_c, 1, 65, 0
2, 3150, Note_on_c, 1, 64, 120
2, 3173, Note_on_c, 1, 40, 0
2, 3180, Note_on_c, 1, 64, 0
2, 3180, Note_on_c, 1, 59, 120
2, 3180, Note_on_c, 1, 52, 120
2, 3180, Note_on_c, 1, 43, 120
2, 3210, Note_on_c, 1, 59, 0
2, 3210, Note_on_c, 1, 62, 120
2, 3233, Note_on_c, 1, 43, 0
2, 3240, Note_on_c, 1, 62, 0
2, 3240, Note_on_c, 1, 61, 120
2, 3240, Note_on_c, 1, 45, 120
2, 3270, Note_on_c, 1, 61, 0
2, 3270, Note_on_c, 1, 64, 120
2, 3291, Note_on_c, 1, 45, 0
2, 3300, Note_on_c, 1, 64, 0
2, 3300, Note_on_c, 1, 57, 120
2, 3300, Note_on_c, 1, 49, 120
2, 3330, Note_on_c, 1, 67, 0
2, 3330, Note_on_c, 1, 67, 120
2, 3351, Note_on_c, 1, 49, 0
2, 3360, Note_on_c, 1, 67, 0
2, 3360, Note_on_c, 1, 65, 120
2, 3360, Note_on_c, 1, 38, 120
2, 3390, Note_on_c, 1, 52, 0
2, 3390, Note_on_c, 1, 45, 120
2, 3420, Note_on_c, 1, 47, 120
2, 3429, Note_on_c, 1, 45, 0
2, 3450, Note_on_c, 1, 49, 120
2, 3455, Note_on_c, 1, 47, 0
2, 3480, Note_on_c, 1, 50, 120
2, 3489, Note_on_c, 1, 49, 0
2, 3510, Note_on_c, 1, 38, 0
2, 3510, Note_on_c, 1, 53, 120
2, 3515, Note_on_c, 1, 50, 0
2, 3540, Note_on_c, 1, 57, 0
2, 3540, Note_on_c, 1, 53, 0
2, 3540, Note_on_c, 1, 62, 120
2, 3540, Note_on_c, 1, 47, 120
2, 3570, Note_on_c, 1, 47, 0
2, 3570, Note_on_c, 1, 50, 120
2, 3600, Note_on_c, 1, 50, 0
2, 3600, Note_on_c, 1, 65, 0
2, 3600, Note_on_c, 1, 64, 120
2, 3600, Note_on_c, 1, 44, 120
2, 3630, Note_on_c, 1, 62, 0
2, 3630, Note_on_c, 1, 62, 120
2, 3643, Note_on_c, 1, 44, 0
2, 3660, Note_on_c, 1, 62, 0
2, 3660, Note_on_c, 1, 60, 120
2, 3660, Note_on_c, 1, 40, 120
2, 3690, Note_on_c, 1, 60, 0
2, 3690, Note_on_c, 1, 59, 120
2, 3707, Note_on_c, 1, 40, 0
2, 3720, Note_on_c, 1, 59, 0
2, 3720, Note_on_c, 1, 60, 120
2, 3720, Note_on_c, 1, 45, 120
2, 3745, Note_on_c, 1, 64, 0
2, 3750, Note_on_c, 1, 64, 120
2, 3780, Note_on_c, 1, 64, 0
2, 3780, Note_on_c, 1, 45, 0
2, 3780, Note_on_c, 1, 65, 120
2, 3780, Note_on_c, 1, 43, 120
2, 3810, Note_on_c, 1, 65, 0
2, 3810, Note_on_c, 1, 67, 120
2, 3840, Note_on_c, 1, 67, 0
2, 3840, Note_on_c, 1, 43, 0
2, 3840, Note_on_c, 1, 69, 120
2, 3840, Note_on_c, 1, 41, 120
2, 3855, Note_on_c, 1, 67, 120
2, 3863, Note_on_c, 1, 69, 0
2, 3870, Note_on_c, 1, 65, 120
2, 3878, Note_on_c, 1, 67, 0
2, 3885, Note_on_c, 1, 64, 120
2, 3889, Note_on_c, 1, 65, 0
2, 3900, Note_on_c, 1, 41, 0
2, 3900, Note_on_c, 1, 65, 120
2, 3900, Note_on_c, 1, 40, 120
2, 3908, Note_on_c, 1, 64, 0
2, 3930, Note_on_c, 1, 65, 0
2, 3930, Note_on_c, 1, 69, 120
2, 3960, Note_on_c, 1, 69, 0
2, 3960, Note_on_c, 1, 60, 0
2, 3960, Note_on_c, 1, 40, 0
2, 3960, Note_on_c, 1, 62, 120
2, 3960, Note_on_c, 1, 41, 120
2, 3964, Note_on_c, 1, 62, 120
2, 3990, Note_on_c, 1, 72, 120
2, 3994, Note_on_c, 1, 62, 0
2, 4020, Note_on_c, 1, 72, 0
2, 4020, Note_on_c, 1, 41, 0
2, 4020, Note_on_c, 1, 71, 120
2, 4020, Note_on_c, 1, 38, 120
2, 4050, Note_on_c, 1, 71, 0
2, 4050, Note_on_c, 1, 69, 120
2, 4080, Note_on_c, 1, 69, 0
2, 4080, Note_on_c, 1, 38, 0
2, 4080, Note_on_c, 1, 68, 120
2, 4080, Note_on_c, 1, 40, 120
2, 4110, Note_on_c, 1, 62, 0
2, 4110, Note_on_c, 1, 65, 120
2, 4140, Note_on_c, 1, 65, 0
2, 4140, Note_on_c, 1, 64, 120
2, 4170, Note_on_c, 1, 64, 0
2, 4170, Note_on_c, 1, 62, 120
2, 4200, Note_on_c, 1, 62, 0
2, 4200, Note_on_c, 1, 60, 120
2, 4230, Note_on_c, 1, 68, 0
2, 4230, Note_on_c, 1, 64, 120
2, 4260, Note_on_c, 1, 64, 0
2, 4260, Note_on_c, 1, 69, 120
2, 4290, Note_on_c, 1, 60, 0
2, 4290, Note_on_c, 1, 60, 120
2, 4320, Note_on_c, 1, 60, 0
2, 4320, Note_on_c, 1, 59, 120
2, 4350, Note_on_c, 1, 40, 0
2, 4350, Note_on_c, 1, 47, 120
2, 4380, Note_on_c, 1, 69, 0
2, 4380, Note_on_c, 1, 69, 120
2, 4380, Note_on_c, 1, 48, 120
2, 4389, Note_on_c, 1, 47, 0
2, 4410, Note_on_c, 1, 50, 120
2, 4419, Note_on_c, 1, 48, 0
2, 4440, Note_on_c, 1, 69, 0
2, 4440, Note_on_c, 1, 67, 120
2, 4440, Note_on_c, 1, 52, 120
2, 4449, Note_on_c, 1, 50, 0
2, 4470, Note_on_c, 1, 52, 0
2, 4470, Note_on_c, 1, 55, 120
2, 4500, Note_on_c, 1, 55, 0
2, 4500, Note_on_c, 1, 67, 0
2, 4500, Note_on_c, 1, 59, 0
2, 4500, Note_on_c, 1, 65, 120
2, 4500, Note_on_c, 1, 62, 120
2, 4500, Note_on_c, 1, 47, 120
2, 4530, Note_on_c, 1, 47, 0
2, 4530, Note_on_c, 1, 50, 120
2, 4560, Note_on_c, 1, 50, 0
2, 4560, Note_on_c, 1, 65, 0
2, 4560, Note_on_c, 1, 64, 120
2, 4560, Note_on_c, 1, 49, 120
2, 4590, Note_on_c, 1, 49, 0
2, 4590, Note_on_c, 1, 62, 0
2, 4590, Note_on_c, 1, 62, 120
2, 4590, Note_on_c, 1, 52, 120
2, 4620, Note_on_c, 1, 52, 0
2, 4620, Note_on_c, 1, 62, 0
2, 4620, Note_on_c, 1, 61, 120
2, 4620, Note_on_c, 1, 45, 120
2, 4650, Note_on_c, 1, 64, 0
2, 4650, Note_on_c, 1, 64, 120
2, 4650, Note_on_c, 1, 55, 120
2, 4680, Note_on_c, 1, 45, 0
2, 4680, Note_on_c, 1, 61, 0
2, 4680, Note_on_c, 1, 57, 120
2, 4680, Note_on_c, 1, 50, 120
2, 4710, Note_on_c, 1, 64, 0
2, 4710, Note_on_c, 1, 55, 0
2, 4710, Note_on_c, 1, 64, 120
2, 4710, Note_on_c, 1, 55, 120
2, 4740, Note_on_c, 1, 55, 0
2, 4740, Note_on_c, 1, 64, 0
2, 4740, Note_on_c, 1, 62, 120
2, 4740, Note_on_c, 1, 53, 120
2, 4770, Note_on_c, 1, 53, 0
2, 4770, Note_on_c, 1, 62, 0
2, 4770, Note_on_c, 1, 61, 120
2, 4770, Note_on_c, 1, 52, 120
2, 4800, Note_on_c, 1, 52, 0
2, 4800, Note_on_c, 1, 61, 0
2, 4800, Note_on_c, 1, 62, 120
2, 4800, Note_on_c, 1, 53, 120
2, 4830, Note_on_c, 1, 62, 0
2, 4830, Note_on_c, 1, 57, 0
2, 4830, Note_on_c, 1, 69, 120
2, 4860, Note_on_c, 1, 50, 0
2, 4860, Note_on_c, 1, 71, 120
2, 4860, Note_on_c, 1, 45, 120
2, 4869, Note_on_c, 1, 69, 0
2, 4890, Note_on_c, 1, 73, 120
2, 4899, Note_on_c, 1, 71, 0
2, 4920, Note_on_c, 1, 45, 0
2, 4920, Note_on_c, 1, 74, 120
2, 4920, Note_on_c, 1, 46, 120
2, 4929, Note_on_c, 1, 73, 0
2, 4950, Note_on_c, 1, 74, 0
2, 4950, Note_on_c, 1, 77, 120
2, 4967, Note_on_c, 1, 46, 0
2, 4980, Note_on_c, 1, 69, 120
2, 4980, Note_on_c, 1, 50, 120
2, 5010, Note_on_c, 1, 69, 0
2, 5010, Note_on_c, 1, 72, 120
2, 5027, Note_on_c, 1, 50, 0
2, 5040, Note_on_c, 1, 72, 0
2, 5040, Note_on_c, 1, 53, 0
2, 5040, Note_on_c, 1, 70, 120
2, 5040, Note_on_c, 1, 55, 120
2, 5040, Note_on_c, 1, 43, 120
2, 5070, Note_on_c, 1, 77, 0
2, 5070, Note_on_c, 1, 77, 120
2, 5100, Note_on_c, 1, 77, 0
2, 5100, Note_on_c, 1, 75, 120
2, 5130, Note_on_c, 1, 75, 0
2, 5130, Note_on_c, 1, 74, 120
2, 5160, Note_on_c, 1, 74, 0
2, 5160, Note_on_c, 1, 75, 120
2, 5190, Note_on_c, 1, 75, 0
2, 5190, Note_on_c, 1, 79, 120
2, 5220, Note_on_c, 1, 79, 0
2, 5220, Note_on_c, 1, 73, 120
2, 5250, Note_on_c, 1, 73, 0
2, 5250, Note_on_c, 1, 74, 120
2, 5280, Note_on_c, 1, 74, 0
2, 5280, Note_on_c, 1, 43, 0
2, 5280, Note_on_c, 1, 73, 120
2, 5280, Note_on_c, 1, 45, 120
2, 5310, Note_on_c, 1, 70, 0
2, 5310, Note_on_c, 1, 70, 120
2, 5340, Note_on_c, 1, 70, 0
2, 5340, Note_on_c, 1, 69, 120
2, 5370, Note_on_c, 1, 55, 0
2, 5370, Note_on_c, 1, 55, 120
2, 5400, Note_on_c, 1, 55, 0
2, 5400, Note_on_c, 1, 54, 120
2, 5430, Note_on_c, 1, 69, 0
2, 5430, Note_on_c, 1, 69, 120
2, 5460, Note_on_c, 1, 54, 0
2, 5460, Note_on_c, 1, 73, 0
2, 5460, Note_on_c, 1, 74, 120
2, 5460, Note_on_c, 1, 53, 120
2, 5490, Note_on_c, 1, 69, 0
2, 5490, Note_on_c, 1, 68, 120
2, 5520, Note_on_c, 1, 68, 0
2, 5520, Note_on_c, 1, 53, 0
2, 5520, Note_on_c, 1, 69, 120
2, 5520, Note_on_c, 1, 52, 120
2, 5550, Note_on_c, 1, 74, 0
2, 5550, Note_on_c, 1, 74, 120
2, 5580, Note_on_c, 1, 74, 0
2, 5580, Note_on_c, 1, 52, 0
2, 5580, Note_on_c, 1, 73, 120
2, 5580, Note_on_c, 1, 50, 120
2, 5610, Note_on_c, 1, 73, 0
2, 5610, Note_on_c, 1, 71, 120
2, 5640, Note_on_c, 1, 71, 0
2, 5640, Note_on_c, 1, 50, 0
2, 5640, Note_on_c, 1, 45, 0
2, 5640, Note_on_c, 1, 73, 120
2, 5640, Note_on_c, 1, 52, 120
2, 5640, Note_on_c, 1, 45, 120
2, 5670, Note_on_c, 1, 73, 0
2, 5670, Note_on_c, 1, 74, 120
2, 5700, Note_on_c, 1, 74, 0
2, 5700, Note_on_c, 1, 52, 0
2, 5700, Note_on_c, 1, 76, 120
2, 5700, Note_on_c, 1, 57, 120
2, 5730, Note_on_c, 1, 69, 0
2, 5730, Note_on_c, 1, 67, 120
2, 5760, Note_on_c, 1, 67, 0
2, 5760, Note_on_c, 1, 45, 0
2, 5760, Note_on_c, 1, 65, 120
2, 5760, Note_on_c, 1, 50, 120
2, 5790, Note_on_c, 1, 76, 0
2, 5790, Note_on_c, 1, 69, 120
2, 5820, Note_on_c, 1, 69, 0
2, 5820, Note_on_c, 1, 57, 0
2, 5820, Note_on_c, 1, 74, 120
2, 5820, Note_on_c, 1, 58, 120
2, 5850, Note_on_c, 1, 74, 0
2, 5850, Note_on_c, 1, 73, 120
2, 5880, Note_on_c, 1, 73, 0
2, 5880, Note_on_c, 1, 58, 0
2, 5880, Note_on_c, 1, 74, 120
2, 5880, Note_on_c, 1, 57, 120
2, 5910, Note_on_c, 1, 65, 0
2, 5910, Note_on_c, 1, 65, 120
2, 5940, Note_on_c, 1, 65, 0
2, 5940, Note_on_c, 1, 57, 0
2, 5940, Note_on_c, 1, 70, 120
2, 5940, Note_on_c, 1, 55, 120
2, 5970, Note_on_c, 1, 74, 0
2, 5970, Note_on_c, 1, 76, 120
2, 6000, Note_on_c, 1, 76, 0
2, 6000, Note_on_c, 1, 55, 0
2, 6000, Note_on_c, 1, 70, 0
2, 6000, Note_on_c, 1, 77, 120
2, 6000, Note_on_c, 1, 69, 120
2, 6000, Note_on_c, 1, 53, 120
2, 6030, Note_on_c, 1, 53, 0
2, 6030, Note_on_c, 1, 55, 120
2, 6060, Note_on_c, 1, 55, 0
2, 6060, Note_on_c, 1, 57, 120
2, 6090, Note_on_c, 1, 69, 0
2, 6090, Note_on_c, 1, 50, 0
2, 6090, Note_on_c, 1, 69, 120
2, 6090, Note_on_c, 1, 48, 120
2, 6120, Note_on_c, 1, 48, 0
2, 6120, Note_on_c, 1, 69, 0
2, 6120, Note_on_c, 1, 74, 120
2, 6120, Note_on_c, 1, 47, 120
2, 6150, Note_on_c, 1, 77, 0
2, 6150, Note_on_c, 1, 57, 0
2, 6150, Note_on_c, 1, 76, 120
2, 6150, Note_on_c, 1, 56, 120
2, 6180, Note_on_c, 1, 56, 0
2, 6180, Note_on_c, 1, 76, 0
2, 6180, Note_on_c, 1, 77, 120
2, 6180, Note_on_c, 1, 57, 120
2, 6210, Note_on_c, 1, 74, 0
2, 6210, Note_on_c, 1, 47, 0
2, 6210, Note_on_c, 1, 74, 120
2, 6210, Note_on_c, 1, 45, 120
2, 6240, Note_on_c, 1, 45, 0
2, 6240, Note_on_c, 1, 57, 0
2, 6240, Note_on_c, 1, 77, 0
2, 6240, Note_on_c, 1, 76, 120
2, 6240, Note_on_c, 1, 44, 120
2, 6270, Note_on_c, 1, 74, 0
2, 6270, Note_on_c, 1, 74, 120
2, 6270, Note_on_c, 1, 52, 120
2, 6300, Note_on_c, 1, 52, 0
2, 6300, Note_on_c, 1, 74, 0
2, 6300, Note_on_c, 1, 44, 0
2, 6300, Note_on_c, 1, 72, 120
2, 6300, Note_on_c, 1, 54, 120
2, 6330, Note_on_c, 1, 54, 0
2, 6330, Note_on_c, 1, 72, 0
2, 6330, Note_on_c, 1, 71, 120
2, 6330, Note_on_c, 1, 56, 120
2, 6360, Note_on_c, 1, 56, 0
2, 6360, Note_on_c, 1, 71, 0
2, 6360, Note_on_c, 1, 72, 120
2, 6360, Note_on_c, 1, 57, 120
2, 6390, Note_on_c, 1, 76, 0
2, 6390, Note_on_c, 1, 76, 120
2, 6390, Note_on_c, 1, 48, 120
2, 6420, Note_on_c, 1, 48, 0
2, 6420, Note_on_c, 1, 76, 0
2, 6420, Note_on_c, 1, 81, 120
2, 6420, Note_on_c, 1, 53, 120
2, 6450, Note_on_c, 1, 53, 0
2, 6450, Note_on_c, 1, 81, 0
2, 6450, Note_on_c, 1, 80, 120
2, 6450, Note_on_c, 1, 52, 120
2, 6480, Note_on_c, 1, 52, 0
2, 6480, Note_on_c, 1, 80, 0
2, 6480, Note_on_c, 1, 81, 120
2, 6480, Note_on_c, 1, 53, 120
2, 6510, Note_on_c, 1, 57, 0
2, 6510, Note_on_c, 1, 72, 0
2, 6510, Note_on_c, 1, 73, 120
2, 6510, Note_on_c, 1, 57, 120
2, 6540, Note_on_c, 1, 57, 0
2, 6540, Note_on_c, 1, 73, 0
2, 6540, Note_on_c, 1, 74, 120
2, 6540, Note_on_c, 1, 59, 120
2, 6570, Note_on_c, 1, 59, 0
2, 6570, Note_on_c, 1, 74, 0
2, 6570, Note_on_c, 1, 76, 120
2, 6570, Note_on_c, 1, 61, 120
2, 6600, Note_on_c, 1, 61, 0
2, 6600, Note_on_c, 1, 76, 0
2, 6600, Note_on_c, 1, 69, 120
2, 6600, Note_on_c, 1, 62, 120
2, 6630, Note_on_c, 1, 81, 0
2, 6630, Note_on_c, 1, 53, 0
2, 6630, Note_on_c, 1, 79, 120
2, 6630, Note_on_c, 1, 52, 120
2, 6660, Note_on_c, 1, 52, 0
2, 6660, Note_on_c, 1, 79, 0
2, 6660, Note_on_c, 1, 81, 120
2, 6660, Note_on_c, 1, 53, 120
2, 6690, Note_on_c, 1, 53, 0
2, 6690, Note_on_c, 1, 81, 0
2, 6690, Note_on_c, 1, 77, 120
2, 6690, Note_on_c, 1, 50, 120
2, 6720, Note_on_c, 1, 50, 0
2, 6720, Note_on_c, 1, 77, 0
2, 6720, Note_on_c, 1, 74, 120
2, 6720, Note_on_c, 1, 58, 120
2, 6750, Note_on_c, 1, 69, 0
2, 6750, Note_on_c, 1, 62, 0
2, 6750, Note_on_c, 1, 66, 120
2, 6750, Note_on_c, 1, 62, 120
2, 6780, Note_on_c, 1, 62, 0
2, 6780, Note_on_c, 1, 66, 0
2, 6780, Note_on_c, 1, 67, 120
2, 6780, Note_on_c, 1, 64, 120
2, 6810, Note_on_c, 1, 64, 0
2, 6810, Note_on_c, 1, 67, 0
2, 6810, Note_on_c, 1, 69, 120
2, 6810, Note_on_c, 1, 66, 120
2, 6840, Note_on_c, 1, 66, 0
2, 6840, Note_on_c, 1, 69, 0
2, 6840, Note_on_c, 1, 70, 120
2, 6840, Note_on_c, 1, 67, 120
2, 6870, Note_on_c, 1, 74, 0
2, 6870, Note_on_c, 1, 77, 120
2, 6900, Note_on_c, 1, 77, 0
2, 6900, Note_on_c, 1, 70, 0
2, 6900, Note_on_c, 1, 76, 120
2, 6930, Note_on_c, 1, 76, 0
2, 6930, Note_on_c, 1, 67, 0
2, 6930, Note_on_c, 1, 79, 120
2, 6930, Note_on_c, 1, 65, 120
2, 6960, Note_on_c, 1, 65, 0
2, 6960, Note_on_c, 1, 79, 0
2, 6960, Note_on_c, 1, 72, 120
2, 6960, Note_on_c, 1, 64, 120
2, 6990, Note_on_c, 1, 58, 0
2, 6990, Note_on_c, 1, 57, 120
2, 7020, Note_on_c, 1, 57, 0
2, 7020, Note_on_c, 1, 70, 120
2, 7020, Note_on_c, 1, 55, 120
2, 7050, Note_on_c, 1, 55, 0
2, 7050, Note_on_c, 1, 58, 120
2, 7080, Note_on_c, 1, 58, 0
2, 7080, Note_on_c, 1, 57, 120
2, 7110, Note_on_c, 1, 70, 0
2, 7110, Note_on_c, 1, 64, 0
2, 7110, Note_on_c, 1, 69, 120
2, 7110, Note_on_c, 1, 60, 120
2, 7125, Note_on_c, 1, 69, 0
2, 7125, Note_on_c, 1, 67, 120
2, 7140, Note_on_c, 1, 67, 0
2, 7140, Note_on_c, 1, 60, 0
2, 7140, Note_on_c, 1, 69, 120
2, 7140, Note_on_c, 1, 65, 120
2, 7170, Note_on_c, 1, 69, 0
2, 7170, Note_on_c, 1, 72, 0
2, 7170, Note_on_c, 1, 75, 120
2, 7170, Note_on_c, 1, 72, 120
2, 7200, Note_on_c, 1, 72, 0
2, 7200, Note_on_c, 1, 75, 0
2, 7200, Note_on_c, 1, 74, 120
2, 7200, Note_on_c, 1, 70, 120
2, 7230, Note_on_c, 1, 57, 0
2, 7230, Note_on_c, 1, 55, 120
2, 7260, Note_on_c, 1, 55, 0
2, 7260, Note_on_c, 1, 53, 120
2, 7290, Note_on_c, 1, 53, 0
2, 7290, Note_on_c, 1, 57, 120
2, 7320, Note_on_c, 1, 57, 0
2, 7320, Note_on_c, 1, 65, 0
2, 7320, Note_on_c, 1, 58, 120
2, 7320, Note_on_c, 1, 55, 120
2, 7350, Note_on_c, 1, 74, 0
2, 7350, Note_on_c, 1, 77, 120
2, 7367, Note_on_c, 1, 55, 0
2, 7380, Note_on_c, 1, 70, 0
2, 7380, Note_on_c, 1, 58, 0
2, 7380, Note_on_c, 1, 70, 120
2, 7380, Note_on_c, 1, 60, 120
2, 7380, Note_on_c, 1, 48, 120
2, 7410, Note_on_c, 1, 77, 0
2, 7410, Note_on_c, 1, 76, 120
2, 7427, Note_on_c, 1, 48, 0
2, 7440, Note_on_c, 1, 76, 0
2, 7440, Note_on_c, 1, 77, 120
2, 7440, Note_on_c, 1, 53, 120
2, 7470, Note_on_c, 1, 70, 0
2, 7470, Note_on_c, 1, 67, 120
2, 7500, Note_on_c, 1, 67, 0
2, 7500, Note_on_c, 1, 69, 120
2, 7530, Note_on_c, 1, 60, 0
2, 7530, Note_on_c, 1, 77, 0
2, 7530, Note_on_c, 1, 72, 120
2, 7530, Note_on_c, 1, 57, 120
2, 7560, Note_on_c, 1, 57, 0
2, 7560, Note_on_c, 1, 72, 0
2, 7560, Note_on_c, 1, 77, 120
2, 7560, Note_on_c, 1, 62, 120
2, 7590, Note_on_c, 1, 77, 0
2, 7590, Note_on_c, 1, 81, 120
2, 7620, Note_on_c, 1, 81, 0
2, 7620, Note_on_c, 1, 69, 0
2, 7620, Note_on_c, 1, 74, 120
2, 7620, Note_on_c, 1, 65, 120
2, 7650, Note_on_c, 1, 74, 0
2, 7650, Note_on_c, 1, 77, 120
2, 7680, Note_on_c, 1, 77, 0
2, 7680, Note_on_c, 1, 65, 0
2, 7680, Note_on_c, 1, 71, 120
2, 7680, Note_on_c, 1, 67, 120
2, 7710, Note_on_c, 1, 71, 0
2, 7710, Note_on_c, 1, 53, 0
2, 7710, Note_on_c, 1, 74, 120
2, 7710, Note_on_c, 1, 53, 120
2, 7740, Note_on_c, 1, 53, 0
2, 7740, Note_on_c, 1, 74, 0
2, 7740, Note_on_c, 1, 79, 120
2, 7740, Note_on_c, 1, 52, 120
2, 7770, Note_on_c, 1, 52, 0
2, 7770, Note_on_c, 1, 67, 0
2, 7770, Note_on_c, 1, 71, 120
2, 7770, Note_on_c, 1, 50, 120
2, 7800, Note_on_c, 1, 50, 0
2, 7800, Note_on_c, 1, 71, 0
2, 7800, Note_on_c, 1, 62, 0
2, 7800, Note_on_c, 1, 73, 120
2, 7800, Note_on_c, 1, 55, 120
2, 7800, Note_on_c, 1, 52, 120
2, 7830, Note_on_c, 1, 79, 0
2, 7830, Note_on_c, 1, 79, 120
2, 7851, Note_on_c, 1, 52, 0
2, 7851, Note_on_c, 1, 55, 0
2, 7860, Note_on_c, 1, 79, 0
2, 7860, Note_on_c, 1, 77, 120
2, 7860, Note_on_c, 1, 57, 120
2, 7860, Note_on_c, 1, 45, 120
2, 7890, Note_on_c, 1, 77, 0
2, 7890, Note_on_c, 1, 76, 120
2, 7903, Note_on_c, 1, 45, 0
2, 7920, Note_on_c, 1, 73, 0
2, 7920, Note_on_c, 1, 76, 0
2, 7920, Note_on_c, 1, 77, 120
2, 7920, Note_on_c, 1, 74, 120
2, 7920, Note_on_c, 1, 50, 120
2, 7950, Note_on_c, 1, 57, 0
2, 7950, Note_on_c, 1, 52, 120
2, 7980, Note_on_c, 1, 52, 0
2, 7980, Note_on_c, 1, 53, 120
2, 7995, Note_on_c, 1, 72, 120
2, 7997, Note_on_c, 1, 74, 0
2, 8010, Note_on_c, 1, 53, 0
2, 8010, Note_on_c, 1, 70, 120
2, 8010, Note_on_c, 1, 57, 120
2, 8014, Note_on_c, 1, 72, 0
2, 8025, Note_on_c, 1, 69, 120
2, 8027, Note_on_c, 1, 70, 0
2, 8040, Note_on_c, 1, 57, 0
2, 8040, Note_on_c, 1, 70, 120
2, 8040, Note_on_c, 1, 62, 120
2, 8044, Note_on_c, 1, 69, 0
2, 8070, Note_on_c, 1, 77, 0
2, 8070, Note_on_c, 1, 74, 120
2, 8100, Note_on_c, 1, 74, 0
2, 8100, Note_on_c, 1, 77, 120
2, 8130, Note_on_c, 1, 62, 0
2, 8130, Note_on_c, 1, 70, 0
2, 8130, Note_on_c, 1, 69, 120
2, 8130, Note_on_c, 1, 60, 120
2, 8160, Note_on_c, 1, 60, 0
2, 8160, Note_on_c, 1, 69, 0
2, 8160, Note_on_c, 1, 68, 120
2, 8160, Note_on_c, 1, 59, 120
2, 8190, Note_on_c, 1, 50, 0
2, 8190, Note_on_c, 1, 77, 0
2, 8190, Note_on_c, 1, 77, 120
2, 8190, Note_on_c, 1, 50, 120
2, 8220, Note_on_c, 1, 50, 0
2, 8220, Note_on_c, 1, 77, 0
2, 8220, Note_on_c, 1, 59, 0
2, 8220, Note_on_c, 1, 76, 120
2, 8220, Note_on_c, 1, 48, 120
2, 8250, Note_on_c, 1, 48, 0
2, 8250, Note_on_c, 1, 68, 0
2, 8250, Note_on_c, 1, 68, 120
2, 8250, Note_on_c, 1, 47, 120
2, 8280, Note_on_c, 1, 47, 0
2, 8280, Note_on_c, 1, 68, 0
2, 8280, Note_on_c, 1, 69, 120
2, 8280, Note_on_c, 1, 48, 120
2, 8310, Note_on_c, 1, 76, 0
2, 8310, Note_on_c, 1, 75, 120
2, 8327, Note_on_c, 1, 48, 0
2, 8340, Note_on_c, 1, 75, 0
2, 8340, Note_on_c, 1, 74, 120
2, 8340, Note_on_c, 1, 53, 120
2, 8370, Note_on_c, 1, 74, 0
2, 8370, Note_on_c, 1, 73, 120
2, 8387, Note_on_c, 1, 53, 0
2, 8400, Note_on_c, 1, 73, 0
2, 8400, Note_on_c, 1, 74, 120
2, 8400, Note_on_c, 1, 46, 120
2, 8430, Note_on_c, 1, 69, 0
2, 8430, Note_on_c, 1, 72, 120
2, 8430, Note_on_c, 1, 50, 120
2, 8460, Note_on_c, 1, 50, 0
2, 8460, Note_on_c, 1, 72, 0
2, 8460, Note_on_c, 1, 70, 120
2, 8460, Note_on_c, 1, 52, 120
2, 8490, Note_on_c, 1, 52, 0
2, 8490, Note_on_c, 1, 70, 0
2, 8490, Note_on_c, 1, 69, 120
2, 8490, Note_on_c, 1, 54, 120
2, 8520, Note_on_c, 1, 54, 0
2, 8520, Note_on_c, 1, 69, 0
2, 8520, Note_on_c, 1, 70, 120
2, 8520, Note_on_c, 1, 55, 120
2, 8550, Note_on_c, 1, 55, 0
2, 8550, Note_on_c, 1, 70, 0
2, 8550, Note_on_c, 1, 66, 120
2, 8550, Note_on_c, 1, 57, 120
2, 8580, Note_on_c, 1, 57, 0
2, 8580, Note_on_c, 1, 66, 0
2, 8580, Note_on_c, 1, 67, 120
2, 8580, Note_on_c, 1, 58, 120
2, 8610, Note_on_c, 1, 46, 0
2, 8610, Note_on_c, 1, 74, 0
2, 8610, Note_on_c, 1, 74, 120
2, 8610, Note_on_c, 1, 51, 120
2, 8640, Note_on_c, 1, 51, 0
2, 8640, Note_on_c, 1, 74, 0
2, 8640, Note_on_c, 1, 73, 120
2, 8640, Note_on_c, 1, 45, 120
2, 8670, Note_on_c, 1, 58, 0
2, 8670, Note_on_c, 1, 57, 120
2, 8700, Note_on_c, 1, 57, 0
2, 8700, Note_on_c, 1, 73, 0
2, 8700, Note_on_c, 1, 72, 120
2, 8700, Note_on_c, 1, 52, 120
2, 8730, Note_on_c, 1, 52, 0
2, 8730, Note_on_c, 1, 67, 0
2, 8730, Note_on_c, 1, 70, 120
2, 8730, Note_on_c, 1, 55, 120
2, 8760, Note_on_c, 1, 55, 0
2, 8760, Note_on_c, 1, 70, 0
2, 8760, Note_on_c, 1, 69, 120
2, 8760, Note_on_c, 1, 54, 120
2, 8790, Note_on_c, 1, 54, 0
2, 8790, Note_on_c, 1, 69, 0
2, 8790, Note_on_c, 1, 67, 120
2, 8790, Note_on_c, 1, 55, 120
2, 8820, Note_on_c, 1, 55, 0
2, 8820, Note_on_c, 1, 67, 0
2, 8820, Note_on_c, 1, 66, 120
2, 8820, Note_on_c, 1, 57, 120
2, 8850, Note_on_c, 1, 66, 0
2, 8850, Note_on_c, 1, 45, 0
2, 8850, Note_on_c, 1, 72, 0
2, 8850, Note_on_c, 1, 72, 120
2, 8850, Note_on_c, 1, 63, 120
2, 8850, Note_on_c, 1, 54, 120
2, 8880, Note_on_c, 1, 54, 0
2, 8880, Note_on_c, 1, 63, 0
2, 8880, Note_on_c, 1, 72, 0
2, 8880, Note_on_c, 1, 71, 120
2, 8880, Note_on_c, 1, 62, 120
2, 8880, Note_on_c, 1, 43, 120
2, 8910, Note_on_c, 1, 62, 0
2, 8910, Note_on_c, 1, 57, 0
2, 8910, Note_on_c, 1, 64, 120
2, 8910, Note_on_c, 1, 55, 120
2, 8940, Note_on_c, 1, 55, 0
2, 8940, Note_on_c, 1, 64, 0
2, 8940, Note_on_c, 1, 71, 0
2, 8940, Note_on_c, 1, 70, 120
2, 8940, Note_on_c, 1, 65, 120
2, 8940, Note_on_c, 1, 50, 120
2, 8970, Note_on_c, 1, 50, 0
2, 8970, Note_on_c, 1, 65, 0
2, 8970, Note_on_c, 1, 69, 120
2, 8970, Note_on_c, 1, 53, 120
2, 9000, Note_on_c, 1, 53, 0
2, 9000, Note_on_c, 1, 69, 0
2, 9000, Note_on_c, 1, 67, 120
2, 9000, Note_on_c, 1, 52, 120
2, 9030, Note_on_c, 1, 52, 0
2, 9030, Note_on_c, 1, 67, 0
2, 9030, Note_on_c, 1, 65, 120
2, 9030, Note_on_c, 1, 53, 120
2, 9060, Note_on_c, 1, 53, 0
2, 9060, Note_on_c, 1, 65, 0
2, 9060, Note_on_c, 1, 64, 120
2, 9060, Note_on_c, 1, 55, 120
2, 9090, Note_on_c, 1, 64, 0
2, 9090, Note_on_c, 1, 43, 0
2, 9090, Note_on_c, 1, 70, 0
2, 9090, Note_on_c, 1, 70, 120
2, 9090, Note_on_c, 1, 61, 120
2, 9090, Note_on_c, 1, 52, 120
2, 9120, Note_on_c, 1, 52, 0
2, 9120, Note_on_c, 1, 61, 0
2, 9120, Note_on_c, 1, 70, 0
2, 9120, Note_on_c, 1, 69, 120
2, 9120, Note_on_c, 1, 60, 120
2, 9120, Note_on_c, 1, 41, 120
2, 9150, Note_on_c, 1, 55, 0
2, 9150, Note_on_c, 1, 48, 120
2, 9180, Note_on_c, 1, 48, 0
2, 9180, Note_on_c, 1, 50, 120
2, 9210, Note_on_c, 1, 50, 0
2, 9210, Note_on_c, 1, 52, 120
2, 9240, Note_on_c, 1, 52, 0
2, 9240, Note_on_c, 1, 53, 120
2, 9270, Note_on_c, 1, 53, 0
2, 9270, Note_on_c, 1, 41, 0
2, 9270, Note_on_c, 1, 57, 120
2, 9300, Note_on_c, 1, 57, 0
2, 9300, Note_on_c, 1, 60, 0
2, 9300, Note_on_c, 1, 65, 120
2, 9300, Note_on_c, 1, 50, 120
2, 9330, Note_on_c, 1, 50, 0
2, 9330, Note_on_c, 1, 53, 120
2, 9360, Note_on_c, 1, 53, 0
2, 9360, Note_on_c, 1, 69, 0
2, 9360, Note_on_c, 1, 67, 120
2, 9360, Note_on_c, 1, 47, 120
2, 9390, Note_on_c, 1, 65, 0
2, 9390, Note_on_c, 1, 65, 120
2, 9411, Note_on_c, 1, 47, 0
2, 9420, Note_on_c, 1, 65, 0
2, 9420, Note_on_c, 1, 64, 120
2, 9420, Note_on_c, 1, 43, 120
2, 9450, Note_on_c, 1, 64, 0
2, 9450, Note_on_c, 1, 62, 120
2, 9467, Note_on_c, 1, 43, 0
2, 9480, Note_on_c, 1, 62, 0
2, 9480, Note_on_c, 1, 64, 120
2, 9480, Note_on_c, 1, 48, 120
2, 9510, Note_on_c, 1, 67, 0
2, 9510, Note_on_c, 1, 67, 120
2, 9540, Note_on_c, 1, 67, 0
2, 9540, Note_on_c, 1, 69, 120
2, 9570, Note_on_c, 1, 69, 0
2, 9570, Note_on_c, 1, 72, 120
2, 9600, Note_on_c, 1, 72, 0
2, 9600, Note_on_c, 1, 64, 0
2, 9600, Note_on_c, 1, 65, 120
2, 9600, Note_on_c, 1, 62, 120
2, 9629, Note_on_c, 1, 48, 0
2, 9630, Note_on_c, 1, 50, 120
2, 9645, Note_on_c, 1, 52, 120
2, 9653, Note_on_c, 1, 50, 0
2, 9660, Note_on_c, 1, 53, 120
2, 9668, Note_on_c, 1, 52, 0
2, 9675, Note_on_c, 1, 55, 120
2, 9683, Note_on_c, 1, 53, 0
2, 9690, Note_on_c, 1, 57, 120
2, 9694, Note_on_c, 1, 55, 0
2, 9720, Note_on_c, 1, 57, 0
2, 9720, Note_on_c, 1, 47, 120
2, 9750, Note_on_c, 1, 65, 0
2, 9750, Note_on_c, 1, 74, 120
2, 9765, Note_on_c, 1, 72, 120
2, 9773, Note_on_c, 1, 74, 0
2, 9780, Note_on_c, 1, 74, 120
2, 9780, Note_on_c, 1, 55, 120
2, 9788, Note_on_c, 1, 72, 0
2, 9810, Note_on_c, 1, 74, 0
2, 9810, Note_on_c, 1, 65, 120
2, 9840, Note_on_c, 1, 65, 0
2, 9840, Note_on_c, 1, 47, 0
2, 9840, Note_on_c, 1, 64, 120
2, 9840, Note_on_c, 1, 48, 120
2, 9870, Note_on_c, 1, 62, 0
2, 9870, Note_on_c, 1, 62, 120
2, 9900, Note_on_c, 1, 62, 0
2, 9900, Note_on_c, 1, 60, 120
2, 9930, Note_on_c, 1, 60, 0
2, 9930, Note_on_c, 1, 59, 120
2, 9960, Note_on_c, 1, 59, 0
2, 9960, Note_on_c, 1, 60, 120
2, 9990, Note_on_c, 1, 64, 0
2, 9990, Note_on_c, 1, 67, 120
2, 10020, Note_on_c, 1, 67, 0
2, 10020, Note_on_c, 1, 60, 0
2, 10020, Note_on_c, 1, 55, 0
2, 10020, Note_on_c, 1, 48, 0
2, 10020, Note_on_c, 1, 69, 120
2, 10020, Note_on_c, 1, 47, 120
2, 10050, Note_on_c, 1, 69, 0
2, 10050, Note_on_c, 1, 71, 120
2, 10080, Note_on_c, 1, 71, 0
2, 10080, Note_on_c, 1, 47, 0
2, 10080, Note_on_c, 1, 72, 120
2, 10080, Note_on_c, 1, 45, 120
2, 10110, Note_on_c, 1, 69, 120
2, 10140, Note_on_c, 1, 69, 0
2, 10140, Note_on_c, 1, 45, 0
2, 10140, Note_on_c, 1, 64, 120
2, 10140, Note_on_c, 1, 57, 120
2, 10140, Note_on_c, 1, 48, 120
2, 10170, Note_on_c, 1, 64, 0
2, 10170, Note_on_c, 1, 67, 120
2, 10200, Note_on_c, 1, 67, 0
2, 10200, Note_on_c, 1, 48, 0
2, 10200, Note_on_c, 1, 66, 120
2, 10200, Note_on_c, 1, 50, 120
2, 10230, Note_on_c, 1, 66, 0
2, 10230, Note_on_c, 1, 69, 120
2, 10260, Note_on_c, 1, 69, 0
2, 10260, Note_on_c, 1, 50, 0
2, 10260, Note_on_c, 1, 62, 120
2, 10260, Note_on_c, 1, 54, 120
2, 10290, Note_on_c, 1, 72, 0
2, 10290, Note_on_c, 1, 72, 120
2, 10320, Note_on_c, 1, 72, 0
2, 10320, Note_on_c, 1, 54, 0
2, 10320, Note_on_c, 1, 71, 120
2, 10320, Note_on_c, 1, 43, 120
2, 10350, Note_on_c, 1, 57, 0
2, 10350, Note_on_c, 1, 50, 120
2, 10380, Note_on_c, 1, 50, 0
2, 10380, Note_on_c, 1, 52, 120
2, 10410, Note_on_c, 1, 52, 0
2, 10410, Note_on_c, 1, 54, 120
2, 10440, Note_on_c, 1, 54, 0
2, 10440, Note_on_c, 1, 55, 120
2, 10470, Note_on_c, 1, 43, 0
2, 10470, Note_on_c, 1, 59, 120
2, 10500, Note_on_c, 1, 59, 0
2, 10500, Note_on_c, 1, 55, 0
2, 10500, Note_on_c, 1, 71, 0
2, 10500, Note_on_c, 1, 62, 0
2, 10500, Note_on_c, 1, 73, 120
2, 10500, Note_on_c, 1, 67, 120
2, 10500, Note_on_c, 1, 52, 120
2, 10515, Note_on_c, 1, 74, 120
2, 10523, Note_on_c, 1, 73, 0
2, 10530, Note_on_c, 1, 52, 0
2, 10530, Note_on_c, 1, 76, 120
2, 10530, Note_on_c, 1, 55, 120
2, 10538, Note_on_c, 1, 74, 0
2, 10560, Note_on_c, 1, 55, 0
2, 10560, Note_on_c, 1, 76, 0
2, 10560, Note_on_c, 1, 69, 120
2, 10560, Note_on_c, 1, 49, 120
2, 10590, Note_on_c, 1, 67, 0
2, 10590, Note_on_c, 1, 67, 120
2, 10607, Note_on_c, 1, 49, 0
2, 10620, Note_on_c, 1, 67, 0
2, 10620, Note_on_c, 1, 65, 120
2, 10620, Note_on_c, 1, 45, 120
2, 10650, Note_on_c, 1, 65, 0
2, 10650, Note_on_c, 1, 64, 120
2, 10671, Note_on_c, 1, 45, 0
2, 10680, Note_on_c, 1, 64, 0
2, 10680, Note_on_c, 1, 65, 120
2, 10680, Note_on_c, 1, 50, 120
2, 10710, Note_on_c, 1, 69, 0
2, 10710, Note_on_c, 1, 69, 120
2, 10740, Note_on_c, 1, 69, 0
2, 10740, Note_on_c, 1, 50, 0
2, 10740, Note_on_c, 1, 70, 120
2, 10740, Note_on_c, 1, 48, 120
2, 10770, Note_on_c, 1, 70, 0
2, 10770, Note_on_c, 1, 72, 120
2, 10800, Note_on_c, 1, 72, 0
2, 10800, Note_on_c, 1, 48, 0
2, 10800, Note_on_c, 1, 74, 120
2, 10800, Note_on_c, 1, 46, 120
2, 10815, Note_on_c, 1, 72, 120
2, 10823, Note_on_c, 1, 74, 0
2, 10830, Note_on_c, 1, 70, 120
2, 10838, Note_on_c, 1, 72, 0
2, 10845, Note_on_c, 1, 69, 120
2, 10853, Note_on_c, 1, 70, 0
2, 10860, Note_on_c, 1, 46, 0
2, 10860, Note_on_c, 1, 70, 120
2, 10860, Note_on_c, 1, 45, 120
2, 10864, Note_on_c, 1, 69, 0
2, 10890, Note_on_c, 1, 70, 0
2, 10890, Note_on_c, 1, 74, 120
2, 10920, Note_on_c, 1, 74, 0
2, 10920, Note_on_c, 1, 65, 0
2, 10920, Note_on_c, 1, 45, 0
2, 10920, Note_on_c, 1, 67, 120
2, 10920, Note_on_c, 1, 46, 120
2, 10924, Note_on_c, 1, 67, 120
2, 10950, Note_on_c, 1, 67, 0
2, 10950, Note_on_c, 1, 77, 120
2, 10967, Note_on_c, 1, 46, 0
2, 10980, Note_on_c, 1, 77, 0
2, 10980, Note_on_c, 1, 76, 120
2, 10980, Note_on_c, 1, 43, 120
2, 11010, Note_on_c, 1, 76, 0
2, 11010, Note_on_c, 1, 74, 120
2, 11027, Note_on_c, 1, 43, 0
2, 11040, Note_on_c, 1, 74, 0
2, 11040, Note_on_c, 1, 73, 120
2, 11040, Note_on_c, 1, 45, 120
2, 11070, Note_on_c, 1, 70, 120
2, 11074, Note_on_c, 1, 67, 0
2, 11100, Note_on_c, 1, 70, 0
2, 11100, Note_on_c, 1, 69, 120
2, 11130, Note_on_c, 1, 69, 0
2, 11130, Note_on_c, 1, 67, 120
2, 11160, Note_on_c, 1, 67, 0
2, 11160, Note_on_c, 1, 65, 120
2, 11190, Note_on_c, 1, 73, 0
2, 11190, Note_on_c, 1, 69, 120
2, 11220, Note_on_c, 1, 69, 0
2, 11220, Note_on_c, 1, 74, 120
2, 11250, Note_on_c, 1, 65, 0
2, 11250, Note_on_c, 1, 65, 120
2, 11280, Note_on_c, 1, 65, 0
2, 11280, Note_on_c, 1, 64, 120
2, 11310, Note_on_c, 1, 45, 0
2, 11310, Note_on_c, 1, 52, 120
2, 11340, Note_on_c, 1, 52, 0
2, 11340, Note_on_c, 1, 74, 0
2, 11340, Note_on_c, 1, 74, 120
2, 11340, Note_on_c, 1, 53, 120
2, 11370, Note_on_c, 1, 53, 0
2, 11370, Note_on_c, 1, 55, 120
2, 11400, Note_on_c, 1, 55, 0
2, 11400, Note_on_c, 1, 74, 0
2, 11400, Note_on_c, 1, 72, 120
2, 11400, Note_on_c, 1, 57, 120
2, 11430, Note_on_c, 1, 57, 0
2, 11430, Note_on_c, 1, 60, 120
2, 11460, Note_on_c, 1, 60, 0
2, 11460, Note_on_c, 1, 72, 0
2, 11460, Note_on_c, 1, 64, 0
2, 11460, Note_on_c, 1, 70, 120
2, 11460, Note_on_c, 1, 67, 120
2, 11460, Note_on_c, 1, 52, 120
2, 11490, Note_on_c, 1, 52, 0
2, 11490, Note_on_c, 1, 55, 120
2, 11520, Note_on_c, 1, 55, 0
2, 11520, Note_on_c, 1, 70, 0
2, 11520, Note_on_c, 1, 69, 120
2, 11520, Note_on_c, 1, 54, 120
2, 11550, Note_on_c, 1, 54, 0
2, 11550, Note_on_c, 1, 67, 0
2, 11550, Note_on_c, 1, 67, 120
2, 11550, Note_on_c, 1, 57, 120
2, 11580, Note_on_c, 1, 57, 0
2, 11580, Note_on_c, 1, 67, 0
2, 11580, Note_on_c, 1, 66, 120
2, 11580, Note_on_c, 1, 50, 120
2, 11610, Note_on_c, 1, 69, 0
2, 11610, Note_on_c, 1, 69, 120
2, 11610, Note_on_c, 1, 60, 120
2, 11640, Note_on_c, 1, 50, 0
2, 11640, Note_on_c, 1, 66, 0
2, 11640, Note_on_c, 1, 62, 120
2, 11640, Note_on_c, 1, 55, 120
2, 11670, Note_on_c, 1, 69, 0
2, 11670, Note_on_c, 1, 60, 0
2, 11670, Note_on_c, 1, 69, 120
2, 11670, Note_on_c, 1, 60, 120
2, 11700, Note_on_c, 1, 60, 0
2, 11700, Note_on_c, 1, 69, 0
2, 11700, Note_on_c, 1, 67, 120
2, 11700, Note_on_c, 1, 58, 120
2, 11730, Note_on_c, 1, 58, 0
2, 11730, Note_on_c, 1, 67, 0
2, 11730, Note_on_c, 1, 66, 120
2, 11730, Note_on_c, 1, 57, 120
2, 11760, Note_on_c, 1, 57, 0
2, 11760, Note_on_c, 1, 66, 0
2, 11760, Note_on_c, 1, 67, 120
2, 11760, Note_on_c, 1, 58, 120
2, 11790, Note_on_c, 1, 67, 0
2, 11790, Note_on_c, 1, 74, 120
2, 11820, Note_on_c, 1, 55, 0
2, 11820, Note_on_c, 1, 62, 0
2, 11820, Note_on_c, 1, 76, 120
2, 11820, Note_on_c, 1, 50, 120
2, 11829, Note_on_c, 1, 74, 0
2, 11850, Note_on_c, 1, 78, 120
2, 11859, Note_on_c, 1, 76, 0
2, 11880, Note_on_c, 1, 50, 0
2, 11880, Note_on_c, 1, 79, 120
2, 11880, Note_on_c, 1, 51, 120
2, 11889, Note_on_c, 1, 78, 0
2, 11910, Note_on_c, 1, 82, 120
2, 11911, Note_on_c, 1, 79, 0
2, 11940, Note_on_c, 1, 51, 0
2, 11940, Note_on_c, 1, 74, 120
2, 11940, Note_on_c, 1, 55, 120
2, 11970, Note_on_c, 1, 74, 0
2, 11970, Note_on_c, 1, 77, 120
2, 12000, Note_on_c, 1, 77, 0
2, 12000, Note_on_c, 1, 55, 0
2, 12000, Note_on_c, 1, 58, 0
2, 12000, Note_on_c, 1, 75, 120
2, 12000, Note_on_c, 1, 60, 120
2, 12000, Note_on_c, 1, 48, 120
2, 12030, Note_on_c, 1, 82, 0
2, 12030, Note_on_c, 1, 82, 120
2, 12060, Note_on_c, 1, 82, 0
2, 12060, Note_on_c, 1, 80, 120
2, 12090, Note_on_c, 1, 80, 0
2, 12090, Note_on_c, 1, 79, 120
2, 12120, Note_on_c, 1, 79, 0
2, 12120, Note_on_c, 1, 80, 120
2, 12150, Note_on_c, 1, 80, 0
2, 12150, Note_on_c, 1, 84, 120
2, 12180, Note_on_c, 1, 84, 0
2, 12180, Note_on_c, 1, 78, 120
2, 12210, Note_on_c, 1, 78, 0
2, 12210, Note_on_c, 1, 79, 120
2, 12240, Note_on_c, 1, 79, 0
2, 12240, Note_on_c, 1, 48, 0
2, 12240, Note_on_c, 1, 78, 120
2, 12240, Note_on_c, 1, 50, 120
2, 12270, Note_on_c, 1, 75, 0
2, 12270, Note_on_c, 1, 75, 120
2, 12300, Note_on_c, 1, 75, 0
2, 12300, Note_on_c, 1, 74, 120
2, 12330, Note_on_c, 1, 60, 0
2, 12330, Note_on_c, 1, 60, 120
2, 12360, Note_on_c, 1, 60, 0
2, 12360, Note_on_c, 1, 59, 120
2, 12390, Note_on_c, 1, 74, 0
2, 12390, Note_on_c, 1, 74, 120
2, 12420, Note_on_c, 1, 59, 0
2, 12420, Note_on_c, 1, 78, 0
2, 12420, Note_on_c, 1, 79, 120
2, 12420, Note_on_c, 1, 58, 120
2, 12450, Note_on_c, 1, 74, 0
2, 12450, Note_on_c, 1, 73, 120
2, 12480, Note_on_c, 1, 73, 0
2, 12480, Note_on_c, 1, 58, 0
2, 12480, Note_on_c, 1, 74, 120
2, 12480, Note_on_c, 1, 57, 120
2, 12510, Note_on_c, 1, 79, 0
2, 12510, Note_on_c, 1, 79, 120
2, 12540, Note_on_c, 1, 79, 0
2, 12540, Note_on_c, 1, 57, 0
2, 12540, Note_on_c, 1, 78, 120
2, 12540, Note_on_c, 1, 55, 120
2, 12570, Note_on_c, 1, 78, 0
2, 12570, Note_on_c, 1, 76, 120
2, 12600, Note_on_c, 1, 76, 0
2, 12600, Note_on_c, 1, 55, 0
2, 12600, Note_on_c, 1, 50, 0
2, 12600, Note_on_c, 1, 78, 120
2, 12600, Note_on_c, 1, 57, 120
2, 12600, Note_on_c, 1, 50, 120
2, 12630, Note_on_c, 1, 78, 0
2, 12630, Note_on_c, 1, 79, 120
2, 12651, Note_on_c, 1, 57, 0
2, 12660, Note_on_c, 1, 79, 0
2, 12660, Note_on_c, 1, 81, 120
2, 12660, Note_on_c, 1, 62, 120
2, 12690, Note_on_c, 1, 74, 0
2, 12690, Note_on_c, 1, 72, 120
2, 12720, Note_on_c, 1, 72, 0
2, 12720, Note_on_c, 1, 50, 0
2, 12720, Note_on_c, 1, 70, 120
2, 12720, Note_on_c, 1, 55, 120
2, 12750, Note_on_c, 1, 81, 0
2, 12750, Note_on_c, 1, 74, 120
2, 12780, Note_on_c, 1, 74, 0
2, 12780, Note_on_c, 1, 62, 0
2, 12780, Note_on_c, 1, 70, 0
2, 12780, Note_on_c, 1, 79, 120
2, 12780, Note_on_c, 1, 72, 120
2, 12780, Note_on_c, 1, 63, 120
2, 12810, Note_on_c, 1, 79, 0
2, 12810, Note_on_c, 1, 78, 120
2, 12840, Note_on_c, 1, 78, 0
2, 12840, Note_on_c, 1, 63, 0
2, 12840, Note_on_c, 1, 79, 120
2, 12840, Note_on_c, 1, 62, 120
2, 12870, Note_on_c, 1, 72, 0
2, 12870, Note_on_c, 1, 70, 120
2, 12900, Note_on_c, 1, 70, 0
2, 12900, Note_on_c, 1, 62, 0
2, 12900, Note_on_c, 1, 75, 120
2, 12900, Note_on_c, 1, 60, 120
2, 12930, Note_on_c, 1, 79, 0
2, 12930, Note_on_c, 1, 81, 120
2, 12960, Note_on_c, 1, 81, 0
2, 12960, Note_on_c, 1, 60, 0
2, 12960, Note_on_c, 1, 75, 0
2, 12960, Note_on_c, 1, 82, 120
2, 12960, Note_on_c, 1, 74, 120
2, 12960, Note_on_c, 1, 58, 120
2, 12990, Note_on_c, 1, 58, 0
2, 12990, Note_on_c, 1, 60, 120
2, 13020, Note_on_c, 1, 60, 0
2, 13020, Note_on_c, 1, 62, 120
2, 13050, Note_on_c, 1, 74, 0
2, 13050, Note_on_c, 1, 55, 0
2, 13050, Note_on_c, 1, 74, 120
2, 13050, Note_on_c, 1, 53, 120
2, 13080, Note_on_c, 1, 53, 0
2, 13080, Note_on_c, 1, 74, 0
2, 13080, Note_on_c, 1, 79, 120
2, 13080, Note_on_c, 1, 52, 120
2, 13110, Note_on_c, 1, 82, 0
2, 13110, Note_on_c, 1, 62, 0
2, 13110, Note_on_c, 1, 81, 120
2, 13110, Note_on_c, 1, 61, 120
2, 13140, Note_on_c, 1, 61, 0
2, 13140, Note_on_c, 1, 81, 0
2, 13140, Note_on_c, 1, 82, 120
2, 13140, Note_on_c, 1, 62, 120
2, 13170, Note_on_c, 1, 79, 0
2, 13170, Note_on_c, 1, 52, 0
2, 13170, Note_on_c, 1, 79, 120
2, 13170, Note_on_c, 1, 50, 120
2, 13200, Note_on_c, 1, 50, 0
2, 13200, Note_on_c, 1, 62, 0
2, 13200, Note_on_c, 1, 82, 0
2, 13200, Note_on_c, 1, 81, 120
2, 13200, Note_on_c, 1, 49, 120
2, 13230, Note_on_c, 1, 79, 0
2, 13230, Note_on_c, 1, 79, 120
2, 13230, Note_on_c, 1, 57, 120
2, 13260, Note_on_c, 1, 57, 0
2, 13260, Note_on_c, 1, 79, 0
2, 13260, Note_on_c, 1, 49, 0
2, 13260, Note_on_c, 1, 77, 120
2, 13260, Note_on_c, 1, 59, 120
2, 13290, Note_on_c, 1, 59, 0
2, 13290, Note_on_c, 1, 77, 0
2, 13290, Note_on_c, 1, 76, 120
2, 13290, Note_on_c, 1, 61, 120
2, 13320, Note_on_c, 1, 61, 0
2, 13320, Note_on_c, 1, 76, 0
2, 13320, Note_on_c, 1, 77, 120
2, 13320, Note_on_c, 1, 62, 120
2, 13350, Note_on_c, 1, 62, 0
2, 13350, Note_on_c, 1, 57, 120
2, 13380, Note_on_c, 1, 57, 0
2, 13380, Note_on_c, 1, 50, 120
2, 13410, Note_on_c, 1, 50, 0
2, 13410, Note_on_c, 1, 81, 0
2, 13410, Note_on_c, 1, 80, 120
2, 13410, Note_on_c, 1, 53, 120
2, 13440, Note_on_c, 1, 53, 0
2, 13440, Note_on_c, 1, 80, 0
2, 13440, Note_on_c, 1, 79, 120
2, 13440, Note_on_c, 1, 47, 120
2, 13470, Note_on_c, 1, 77, 0
2, 13470, Note_on_c, 1, 77, 120
2, 13470, Note_on_c, 1, 55, 120
2, 13500, Note_on_c, 1, 55, 0
2, 13500, Note_on_c, 1, 77, 0
2, 13500, Note_on_c, 1, 47, 0
2, 13500, Note_on_c, 1, 76, 120
2, 13500, Note_on_c, 1, 57, 120
2, 13530, Note_on_c, 1, 57, 0
2, 13530, Note_on_c, 1, 76, 0
2, 13530, Note_on_c, 1, 74, 120
2, 13530, Note_on_c, 1, 59, 120
2, 13560, Note_on_c, 1, 59, 0
2, 13560, Note_on_c, 1, 74, 0
2, 13560, Note_on_c, 1, 76, 120
2, 13560, Note_on_c, 1, 60, 120
2, 13590, Note_on_c, 1, 60, 0
2, 13590, Note_on_c, 1, 55, 120
2, 13620, Note_on_c, 1, 55, 0
2, 13620, Note_on_c, 1, 48, 120
2, 13650, Note_on_c, 1, 48, 0
2, 13650, Note_on_c, 1, 79, 0
2, 13650, Note_on_c, 1, 79, 120
2, 13650, Note_on_c, 1, 52, 120
2, 13680, Note_on_c, 1, 52, 0
2, 13680, Note_on_c, 1, 79, 0
2, 13680, Note_on_c, 1, 78, 120
2, 13680, Note_on_c, 1, 45, 120
2, 13710, Note_on_c, 1, 76, 0
2, 13710, Note_on_c, 1, 75, 120
2, 13740, Note_on_c, 1, 75, 0
2, 13740, Note_on_c, 1, 74, 120
2, 13740, Note_on_c, 1, 57, 120
2, 13770, Note_on_c, 1, 74, 0
2, 13770, Note_on_c, 1, 72, 120
2, 13800, Note_on_c, 1, 72, 0
2, 13800, Note_on_c, 1, 45, 0
2, 13800, Note_on_c, 1, 74, 120
2, 13800, Note_on_c, 1, 47, 120
2, 13830, Note_on_c, 1, 78, 0
2, 13830, Note_on_c, 1, 57, 0
2, 13830, Note_on_c, 1, 76, 120
2, 13830, Note_on_c, 1, 55, 120
2, 13860, Note_on_c, 1, 55, 0
2, 13860, Note_on_c, 1, 76, 0
2, 13860, Note_on_c, 1, 77, 120
2, 13860, Note_on_c, 1, 67, 120
2, 13860, Note_on_c, 1, 50, 120
2, 13890, Note_on_c, 1, 50, 0
2, 13890, Note_on_c, 1, 53, 120
2, 13920, Note_on_c, 1, 53, 0
2, 13920, Note_on_c, 1, 47, 0
2, 13920, Note_on_c, 1, 52, 120
2, 13920, Note_on_c, 1, 48, 120
2, 13950, Note_on_c, 1, 52, 0
2, 13950, Note_on_c, 1, 53, 120
2, 13980, Note_on_c, 1, 53, 0
2, 13980, Note_on_c, 1, 74, 0
2, 13980, Note_on_c, 1, 77, 0
2, 13980, Note_on_c, 1, 76, 120
2, 13980, Note_on_c, 1, 72, 120
2, 13980, Note_on_c, 1, 55, 120
2, 14010, Note_on_c, 1, 72, 0
2, 14010, Note_on_c, 1, 76, 0
2, 14010, Note_on_c, 1, 74, 120
2, 14010, Note_on_c, 1, 71, 120
2, 14040, Note_on_c, 1, 71, 0
2, 14040, Note_on_c, 1, 74, 0
2, 14040, Note_on_c, 1, 76, 120
2, 14040, Note_on_c, 1, 72, 120
2, 14070, Note_on_c, 1, 55, 0
2, 14070, Note_on_c, 1, 48, 0
2, 14070, Note_on_c, 1, 52, 120
2, 14100, Note_on_c, 1, 52, 0
2, 14100, Note_on_c, 1, 67, 0
2, 14100, Note_on_c, 1, 70, 120
2, 14100, Note_on_c, 1, 45, 120
2, 14130, Note_on_c, 1, 45, 0
2, 14130, Note_on_c, 1, 48, 120
2, 14160, Note_on_c, 1, 48, 0
2, 14160, Note_on_c, 1, 70, 0
2, 14160, Note_on_c, 1, 72, 0
2, 14160, Note_on_c, 1, 69, 120
2, 14160, Note_on_c, 1, 41, 120
2, 14190, Note_on_c, 1, 41, 0
2, 14190, Note_on_c, 1, 76, 0
2, 14190, Note_on_c, 1, 76, 120
2, 14190, Note_on_c, 1, 48, 120
2, 14220, Note_on_c, 1, 48, 0
2, 14220, Note_on_c, 1, 76, 0
2, 14220, Note_on_c, 1, 74, 120
2, 14220, Note_on_c, 1, 50, 120
2, 14250, Note_on_c, 1, 50, 0
2, 14250, Note_on_c, 1, 74, 0
2, 14250, Note_on_c, 1, 72, 120
2, 14250, Note_on_c, 1, 52, 120
2, 14280, Note_on_c, 1, 52, 0
2, 14280, Note_on_c, 1, 72, 0
2, 14280, Note_on_c, 1, 74, 120
2, 14280, Note_on_c, 1, 53, 120
2, 14310, Note_on_c, 1, 74, 0
2, 14310, Note_on_c, 1, 77, 120
2, 14310, Note_on_c, 1, 57, 120
2, 14340, Note_on_c, 1, 57, 0
2, 14340, Note_on_c, 1, 77, 0
2, 14340, Note_on_c, 1, 81, 120
2, 14340, Note_on_c, 1, 62, 120
2, 14370, Note_on_c, 1, 81, 0
2, 14370, Note_on_c, 1, 69, 0
2, 14370, Note_on_c, 1, 72, 120
2, 14370, Note_on_c, 1, 69, 120
2, 14400, Note_on_c, 1, 69, 0
2, 14400, Note_on_c, 1, 72, 0
2, 14400, Note_on_c, 1, 62, 0
2, 14400, Note_on_c, 1, 71, 120
2, 14400, Note_on_c, 1, 67, 120
2, 14400, Note_on_c, 1, 62, 120
2, 14430, Note_on_c, 1, 53, 0
2, 14430, Note_on_c, 1, 57, 120
2, 14460, Note_on_c, 1, 57, 0
2, 14460, Note_on_c, 1, 55, 120
2, 14490, Note_on_c, 1, 55, 0
2, 14490, Note_on_c, 1, 53, 120
2, 14520, Note_on_c, 1, 53, 0
2, 14520, Note_on_c, 1, 62, 0
2, 14520, Note_on_c, 1, 67, 0
2, 14520, Note_on_c, 1, 71, 0
2, 14520, Note_on_c, 1, 72, 120
2, 14520, Note_on_c, 1, 67, 120
2, 14520, Note_on_c, 1, 64, 120
2, 14520, Note_on_c, 1, 52, 120
2, 14550, Note_on_c, 1, 52, 0
2, 14550, Note_on_c, 1, 55, 120
2, 14580, Note_on_c, 1, 55, 0
2, 14580, Note_on_c, 1, 48, 120
2, 14610, Note_on_c, 1, 48, 0
2, 14610, Note_on_c, 1, 52, 120
2, 14640, Note_on_c, 1, 52, 0
2, 14640, Note_on_c, 1, 43, 120
2, 14670, Note_on_c, 1, 64, 0
2, 14670, Note_on_c, 1, 67, 0
2, 14670, Note_on_c, 1, 67, 120
2, 14670, Note_on_c, 1, 52, 120
2, 14700, Note_on_c, 1, 52, 0
2, 14700, Note_on_c, 1, 67, 0
2, 14700, Note_on_c, 1, 65, 120
2, 14700, Note_on_c, 1, 50, 120
2, 14730, Note_on_c, 1, 50, 0
2, 14730, Note_on_c, 1, 65, 0
2, 14730, Note_on_c, 1, 64, 120
2, 14730, Note_on_c, 1, 48, 120
2, 14760, Note_on_c, 1, 48, 0
2, 14760, Note_on_c, 1, 64, 0
2, 14760, Note_on_c, 1, 62, 120
2, 14760, Note_on_c, 1, 55, 120
2, 14790, Note_on_c, 1, 62, 0
2, 14790, Note_on_c, 1, 64, 120
2, 14820, Note_on_c, 1, 64, 0
2, 14820, Note_on_c, 1, 65, 120
2, 14850, Note_on_c, 1, 72, 0
2, 14850, Note_on_c, 1, 71, 120
2, 14880, Note_on_c, 1, 71, 0
2, 14880, Note_on_c, 1, 43, 0
2, 14880, Note_on_c, 1, 72, 120
2, 14880, Note_on_c, 1, 48, 120
2, 14910, Note_on_c, 1, 65, 0
2, 14910, Note_on_c, 1, 65, 120
2, 14940, Note_on_c, 1, 65, 0
2, 14940, Note_on_c, 1, 64, 120
2, 14970, Note_on_c, 1, 64, 0
2, 14970, Note_on_c, 1, 62, 120
2, 15000, Note_on_c, 1, 62, 0
2, 15000, Note_on_c, 1, 64, 120
2, 15030, Note_on_c, 1, 64, 0
2, 15030, Note_on_c, 1, 67, 120
2, 15060, Note_on_c, 1, 67, 0
2, 15060, Note_on_c, 1, 60, 120
2, 15090, Note_on_c, 1, 60, 0
2, 15090, Note_on_c, 1, 64, 120
2, 15120, Note_on_c, 1, 64, 0
2, 15120, Note_on_c, 1, 72, 0
2, 15120, Note_on_c, 1, 57, 120
2, 15150, Note_on_c, 1, 72, 120
2, 15180, Note_on_c, 1, 72, 0
2, 15180, Note_on_c, 1, 55, 0
2, 15180, Note_on_c, 1, 74, 120
2, 15180, Note_on_c, 1, 53, 120
2, 15210, Note_on_c, 1, 53, 0
2, 15210, Note_on_c, 1, 74, 0
2, 15210, Note_on_c, 1, 76, 120
2, 15210, Note_on_c, 1, 52, 120
2, 15240, Note_on_c, 1, 52, 0
2, 15240, Note_on_c, 1, 76, 0
2, 15240, Note_on_c, 1, 77, 120
2, 15240, Note_on_c, 1, 50, 120
2, 15270, Note_on_c, 1, 50, 0
2, 15270, Note_on_c, 1, 77, 0
2, 15270, Note_on_c, 1, 81, 120
2, 15270, Note_on_c, 1, 52, 120
2, 15300, Note_on_c, 1, 52, 0
2, 15300, Note_on_c, 1, 81, 0
2, 15300, Note_on_c, 1, 74, 120
2, 15300, Note_on_c, 1, 53, 120
2, 15330, Note_on_c, 1, 74, 0
2, 15330, Note_on_c, 1, 77, 120
2, 15360, Note_on_c, 1, 77, 0
2, 15360, Note_on_c, 1, 57, 0
2, 15360, Note_on_c, 1, 70, 120
2, 15360, Note_on_c, 1, 55, 120
2, 15390, Note_on_c, 1, 69, 120
2, 15420, Note_on_c, 1, 69, 0
2, 15420, Note_on_c, 1, 53, 0
2, 15420, Note_on_c, 1, 67, 120
2, 15420, Note_on_c, 1, 52, 120
2, 15450, Note_on_c, 1, 52, 0
2, 15450, Note_on_c, 1, 67, 0
2, 15450, Note_on_c, 1, 65, 120
2, 15450, Note_on_c, 1, 50, 120
2, 15480, Note_on_c, 1, 50, 0
2, 15480, Note_on_c, 1, 65, 0
2, 15480, Note_on_c, 1, 67, 120
2, 15480, Note_on_c, 1, 52, 120
2, 15510, Note_on_c, 1, 55, 0
2, 15510, Note_on_c, 1, 70, 0
2, 15510, Note_on_c, 1, 70, 120
2, 15510, Note_on_c, 1, 53, 120
2, 15540, Note_on_c, 1, 53, 0
2, 15540, Note_on_c, 1, 67, 0
2, 15540, Note_on_c, 1, 64, 120
2, 15540, Note_on_c, 1, 55, 120
2, 15570, Note_on_c, 1, 70, 0
2, 15570, Note_on_c, 1, 67, 120
2, 15600, Note_on_c, 1, 64, 0
2, 15600, Note_on_c, 1, 55, 0
2, 15600, Note_on_c, 1, 52, 0
2, 15600, Note_on_c, 1, 60, 120
2, 15600, Note_on_c, 1, 57, 120
2, 15600, Note_on_c, 1, 53, 120
2, 15630, Note_on_c, 1, 67, 0
2, 15630, Note_on_c, 1, 64, 120
2, 15660, Note_on_c, 1, 64, 0
2, 15660, Note_on_c, 1, 53, 0
2, 15660, Note_on_c, 1, 57, 0
2, 15660, Note_on_c, 1, 65, 120
2, 15660, Note_on_c, 1, 55, 120
2, 15660, Note_on_c, 1, 52, 120
2, 15690, Note_on_c, 1, 65, 0
2, 15690, Note_on_c, 1, 67, 120
2, 15720, Note_on_c, 1, 67, 0
2, 15720, Note_on_c, 1, 52, 0
2, 15720, Note_on_c, 1, 55, 0
2, 15720, Note_on_c, 1, 60, 0
2, 15720, Note_on_c, 1, 69, 120
2, 15720, Note_on_c, 1, 53, 120
2, 15720, Note_on_c, 1, 50, 120
2, 15750, Note_on_c, 1, 65, 120
2, 15780, Note_on_c, 1, 65, 0
2, 15780, Note_on_c, 1, 56, 120
2, 15780, Note_on_c, 1, 62, 120
2, 15810, Note_on_c, 1, 69, 0
2, 15810, Note_on_c, 1, 71, 120
2, 15840, Note_on_c, 1, 71, 0
2, 15840, Note_on_c, 1, 62, 0
2, 15840, Note_on_c, 1, 50, 0
2, 15840, Note_on_c, 1, 48, 0
2, 15840, Note_on_c, 1, 53, 0
2, 15840, Note_on_c, 1, 56, 0
2, 15840, Note_on_c, 1, 48, 120
2, 15844, Note_on_c, 1, 52, 120
2, 15848, Note_on_c, 1, 55, 120
2, 15852, Note_on_c, 1, 60, 120
2, 15856, Note_on_c, 1, 64, 120
2, 15860, Note_on_c, 1, 67, 120
2, 15864, Note_on_c, 1, 72, 120
2, 16320, Note_on_c, 1, 48, 0
2, 16323, Note_on_c, 1, 67, 0
2, 16323, Note_on_c, 1, 55, 0
2, 16323, Note_on_c, 1, 60, 0
2, 16323, Note_on_c, 1, 52, 0
2, 16323, Note_on_c, 1, 72, 0
2, 16323, Note_on_c, 1, 64, 0
2, 16323, End_track
3, 0, Start_track
3, 0, MIDI_port, 0
3, 0, Title_t, "Sequenced by"
3, 0, Program_c, 2, 6
3, 0, Note_on_c, 2, 60, 110
3, 0, Note_on_c, 2, 48, 110
3, 30, Note_on_c, 2, 84, 110
3, 60, Note_on_c, 2, 84, 0
3, 60, Note_on_c, 2, 86, 110
3, 90, Note_on_c, 2, 86, 0
3, 90, Note_on_c, 2, 88, 110
3, 120, Note_on_c, 2, 88, 0
3, 120, Note_on_c, 2, 79, 110
3, 150, Note_on_c, 2, 79, 0
3, 150, Note_on_c, 2, 88, 110
3, 180, Note_on_c, 2, 88, 0
3, 180, Note_on_c, 2, 77, 110
3, 210, Note_on_c, 2, 77, 0
3, 210, Note_on_c, 2, 86, 110
3, 240, Note_on_c, 2, 86, 0
3, 240, Note_on_c, 2, 76, 110
3, 255, Note_on_c, 2, 76, 0
3, 255, Note_on_c, 2, 84, 110
3, 270, Note_on_c, 2, 83, 110
3, 274, Note_on_c, 2, 84, 0
3, 285, Note_on_c, 2, 81, 110
3, 287, Note_on_c, 2, 83, 0
3, 300, Note_on_c, 2, 79, 110
3, 302, Note_on_c, 2, 81, 0
3, 330, Note_on_c, 2, 79, 0
3, 330, Note_on_c, 2, 82, 110
3, 360, Note_on_c, 2, 82, 0
3, 360, Note_on_c, 2, 76, 110
3, 390, Note_on_c, 2, 76, 0
3, 390, Note_on_c, 2, 79, 110
3, 420, Note_on_c, 2, 79, 0
3, 420, Note_on_c, 2, 72, 110
3, 450, Note_on_c, 2, 72, 0
3, 450, Note_on_c, 2, 82, 110
3, 480, Note_on_c, 2, 82, 0
3, 480, Note_on_c, 2, 81, 110
3, 495, Note_on_c, 2, 79, 110
3, 499, Note_on_c, 2, 81, 0
3, 510, Note_on_c, 2, 77, 110
3, 514, Note_on_c, 2, 79, 0
3, 525, Note_on_c, 2, 76, 110
3, 529, Note_on_c, 2, 77, 0
3, 540, Note_on_c, 2, 77, 110
3, 548, Note_on_c, 2, 76, 0
3, 570, Note_on_c, 2, 77, 0
3, 570, Note_on_c, 2, 81, 110
3, 600, Note_on_c, 2, 81, 0
3, 600, Note_on_c, 2, 74, 110
3, 630, Note_on_c, 2, 74, 0
3, 630, Note_on_c, 2, 77, 110
3, 660, Note_on_c, 2, 77, 0
3, 660, Note_on_c, 2, 69, 110
3, 690, Note_on_c, 2, 69, 0
3, 690, Note_on_c, 2, 72, 110
3, 720, Note_on_c, 2, 72, 0
3, 720, Note_on_c, 2, 71, 110
3, 750, Note_on_c, 2, 71, 0
3, 750, Note_on_c, 2, 74, 110
3, 780, Note_on_c, 2, 74, 0
3, 780, Note_on_c, 2, 76, 110
3, 810, Note_on_c, 2, 76, 0
3, 810, Note_on_c, 2, 77, 110
3, 840, Note_on_c, 2, 77, 0
3, 840, Note_on_c, 2, 67, 110
3, 870, Note_on_c, 2, 67, 0
3, 870, Note_on_c, 2, 77, 110
3, 900, Note_on_c, 2, 77, 0
3, 900, Note_on_c, 2, 76, 110
3, 930, Note_on_c, 2, 76, 0
3, 930, Note_on_c, 2, 74, 110
3, 960, Note_on_c, 2, 74, 0
3, 960, Note_on_c, 2, 76, 110
3, 990, Note_on_c, 2, 72, 110
3, 990, Note_on_c, 2, 72, 110
3, 1020, Note_on_c, 2, 72, 0
3, 1020, Note_on_c, 2, 71, 110
3, 1050, Note_on_c, 2, 71, 0
3, 1050, Note_on_c, 2, 69, 110
3, 1080, Note_on_c, 2, 69, 0
3, 1080, Note_on_c, 2, 60, 0
3, 1080, Note_on_c, 2, 48, 0
3, 1080, Note_on_c, 2, 67, 110
3, 1110, Note_on_c, 2, 65, 110
3, 1140, Note_on_c, 2, 65, 0
3, 1140, Note_on_c, 2, 64, 110
3, 1170, Note_on_c, 2, 64, 0
3, 1170, Note_on_c, 2, 62, 110
3, 1200, Note_on_c, 2, 62, 0
3, 1200, Note_on_c, 2, 60, 110
3, 1215, Note_on_c, 2, 62, 110
3, 1217, Note_on_c, 2, 60, 0
3, 1230, Note_on_c, 2, 60, 110
3, 1234, Note_on_c, 2, 62, 0
3, 1245, Note_on_c, 2, 59, 110
3, 1249, Note_on_c, 2, 60, 0
3, 1260, Note_on_c, 2, 60, 110
3, 1264, Note_on_c, 2, 59, 0
3, 1290, Note_on_c, 2, 60, 0
3, 1290, Note_on_c, 2, 64, 110
3, 1320, Note_on_c, 2, 64, 0
3, 1320, Note_on_c, 2, 55, 110
3, 1350, Note_on_c, 2, 55, 0
3, 1350, Note_on_c, 2, 58, 110
3, 1380, Note_on_c, 2, 58, 0
3, 1380, Note_on_c, 2, 57, 110
3, 1410, Note_on_c, 2, 57, 0
3, 1410, Note_on_c, 2, 55, 110
3, 1440, Note_on_c, 2, 55, 0
3, 1440, Note_on_c, 2, 67, 0
3, 1440, Note_on_c, 2, 72, 0
3, 1440, Note_on_c, 2, 69, 110
3, 1440, Note_on_c, 2, 53, 110
3, 1470, Note_on_c, 2, 60, 110
3, 1500, Note_on_c, 2, 60, 0
3, 1500, Note_on_c, 2, 62, 110
3, 1530, Note_on_c, 2, 62, 0
3, 1530, Note_on_c, 2, 64, 110
3, 1560, Note_on_c, 2, 64, 0
3, 1560, Note_on_c, 2, 65, 110
3, 1590, Note_on_c, 2, 76, 0
3, 1590, Note_on_c, 2, 74, 110
3, 1620, Note_on_c, 2, 65, 0
3, 1620, Note_on_c, 2, 64, 110
3, 1650, Note_on_c, 2, 74, 0
3, 1650, Note_on_c, 2, 72, 110
3, 1680, Note_on_c, 2, 72, 0
3, 1680, Note_on_c, 2, 64, 0
3, 1680, Note_on_c, 2, 69, 0
3, 1680, Note_on_c, 2, 71, 110
3, 1680, Note_on_c, 2, 67, 110
3, 1680, Note_on_c, 2, 62, 110
3, 1710, Note_on_c, 2, 71, 0
3, 1710, Note_on_c, 2, 74, 110
3, 1740, Note_on_c, 2, 74, 0
3, 1740, Note_on_c, 2, 79, 110
3, 1770, Note_on_c, 2, 67, 0
3, 1770, Note_on_c, 2, 71, 110
3, 1800, Note_on_c, 2, 71, 0
3, 1800, Note_on_c, 2, 62, 0
3, 1800, Note_on_c, 2, 53, 0
3, 1800, Note_on_c, 2, 72, 110
3, 1800, Note_on_c, 2, 64, 110
3, 1800, Note_on_c, 2, 52, 110
3, 1830, Note_on_c, 2, 79, 0
3, 1830, Note_on_c, 2, 79, 110
3, 1843, Note_on_c, 2, 52, 0
3, 1860, Note_on_c, 2, 79, 0
3, 1860, Note_on_c, 2, 77, 110
3, 1860, Note_on_c, 2, 57, 110
3, 1890, Note_on_c, 2, 77, 0
3, 1890, Note_on_c, 2, 76, 110
3, 1903, Note_on_c, 2, 57, 0
3, 1920, Note_on_c, 2, 76, 0
3, 1920, Note_on_c, 2, 64, 0
3, 1920, Note_on_c, 2, 77, 110
3, 1920, Note_on_c, 2, 62, 110
3, 1920, Note_on_c, 2, 50, 110
3, 1950, Note_on_c, 2, 72, 0
3, 1950, Note_on_c, 2, 72, 110
3, 1980, Note_on_c, 2, 72, 0
3, 1980, Note_on_c, 2, 74, 110
3, 2010, Note_on_c, 2, 74, 0
3, 2010, Note_on_c, 2, 69, 110
3, 2040, Note_on_c, 2, 69, 0
3, 2040, Note_on_c, 2, 50, 0
3, 2040, Note_on_c, 2, 71, 110
3, 2040, Note_on_c, 2, 55, 110
3, 2070, Note_on_c, 2, 77, 0
3, 2070, Note_on_c, 2, 77, 110
3, 2100, Note_on_c, 2, 77, 0
3, 2100, Note_on_c, 2, 76, 110
3, 2130, Note_on_c, 2, 76, 0
3, 2130, Note_on_c, 2, 74, 110
3, 2160, Note_on_c, 2, 74, 0
3, 2160, Note_on_c, 2, 55, 0
3, 2160, Note_on_c, 2, 71, 0
3, 2160, Note_on_c, 2, 62, 0
3, 2160, Note_on_c, 2, 76, 110
3, 2160, Note_on_c, 2, 72, 110
3, 2160, Note_on_c, 2, 60, 110
3, 2160, Note_on_c, 2, 48, 110
3, 2190, Note_on_c, 2, 48, 0
3, 2190, Note_on_c, 2, 60, 0
3, 2190, Note_on_c, 2, 55, 110
3, 2220, Note_on_c, 2, 55, 0
3, 2220, Note_on_c, 2, 57, 110
3, 2250, Note_on_c, 2, 57, 0
3, 2250, Note_on_c, 2, 59, 110
3, 2280, Note_on_c, 2, 59, 0
3, 2280, Note_on_c, 2, 60, 110
3, 2310, Note_on_c, 2, 60, 0
3, 2310, Note_on_c, 2, 64, 110
3, 2340, Note_on_c, 2, 64, 0
3, 2340, Note_on_c, 2, 57, 110
3, 2370, Note_on_c, 2, 57, 0
3, 2370, Note_on_c, 2, 60, 110
3, 2400, Note_on_c, 2, 60, 0
3, 2400, Note_on_c, 2, 76, 0
3, 2400, Note_on_c, 2, 74, 110
3, 2400, Note_on_c, 2, 54, 110
3, 2430, Note_on_c, 2, 72, 0
3, 2430, Note_on_c, 2, 72, 110
3, 2435, Note_on_c, 2, 54, 0
3, 2460, Note_on_c, 2, 72, 0
3, 2460, Note_on_c, 2, 71, 110
3, 2460, Note_on_c, 2, 50, 110
3, 2490, Note_on_c, 2, 71, 0
3, 2490, Note_on_c, 2, 69, 110
3, 2495, Note_on_c, 2, 50, 0
3, 2520, Note_on_c, 2, 69, 0
3, 2520, Note_on_c, 2, 71, 110
3, 2520, Note_on_c, 2, 55, 110
3, 2550, Note_on_c, 2, 74, 0
3, 2550, Note_on_c, 2, 74, 110
3, 2580, Note_on_c, 2, 74, 0
3, 2580, Note_on_c, 2, 76, 110
3, 2610, Note_on_c, 2, 76, 0
3, 2610, Note_on_c, 2, 79, 110
3, 2640, Note_on_c, 2, 79, 0
3, 2640, Note_on_c, 2, 71, 0
3, 2640, Note_on_c, 2, 72, 110
3, 2640, Note_on_c, 2, 69, 110
3, 2670, Note_on_c, 2, 55, 0
3, 2670, Note_on_c, 2, 57, 110
3, 2685, Note_on_c, 2, 59, 110
3, 2693, Note_on_c, 2, 57, 0
3, 2700, Note_on_c, 2, 60, 110
3, 2708, Note_on_c, 2, 59, 0
3, 2715, Note_on_c, 2, 62, 110
3, 2723, Note_on_c, 2, 60, 0
3, 2730, Note_on_c, 2, 64, 110
3, 2738, Note_on_c, 2, 62, 0
3, 2760, Note_on_c, 2, 64, 0
3, 2760, Note_on_c, 2, 54, 110
3, 2790, Note_on_c, 2, 72, 0
3, 2790, Note_on_c, 2, 81, 110
3, 2805, Note_on_c, 2, 79, 110
3, 2809, Note_on_c, 2, 81, 0
3, 2820, Note_on_c, 2, 81, 110
3, 2820, Note_on_c, 2, 62, 110
3, 2828, Note_on_c, 2, 79, 0
3, 2850, Note_on_c, 2, 81, 0
3, 2850, Note_on_c, 2, 72, 110
3, 2880, Note_on_c, 2, 72, 0
3, 2880, Note_on_c, 2, 54, 0
3, 2880, Note_on_c, 2, 71, 110
3, 2880, Note_on_c, 2, 55, 110
3, 2910, Note_on_c, 2, 69, 0
3, 2910, Note_on_c, 2, 69, 110
3, 2940, Note_on_c, 2, 69, 0
3, 2940, Note_on_c, 2, 67, 110
3, 2970, Note_on_c, 2, 67, 0
3, 2970, Note_on_c, 2, 66, 110
3, 3000, Note_on_c, 2, 66, 0
3, 3000, Note_on_c, 2, 67, 110
3, 3030, Note_on_c, 2, 71, 0
3, 3030, Note_on_c, 2, 74, 110
3, 3060, Note_on_c, 2, 55, 0
3, 3060, Note_on_c, 2, 67, 0
3, 3060, Note_on_c, 2, 62, 0
3, 3060, Note_on_c, 2, 76, 110
3, 3060, Note_on_c, 2, 53, 110
3, 3069, Note_on_c, 2, 74, 0
3, 3090, Note_on_c, 2, 77, 110
3, 3099, Note_on_c, 2, 53, 0
3, 3099, Note_on_c, 2, 76, 0
3, 3120, Note_on_c, 2, 79, 110
3, 3120, Note_on_c, 2, 52, 110
3, 3129, Note_on_c, 2, 77, 0
3, 3150, Note_on_c, 2, 76, 110
3, 3173, Note_on_c, 2, 52, 0
3, 3180, Note_on_c, 2, 76, 0
3, 3180, Note_on_c, 2, 71, 110
3, 3180, Note_on_c, 2, 64, 110
3, 3180, Note_on_c, 2, 55, 110
3, 3210, Note_on_c, 2, 71, 0
3, 3210, Note_on_c, 2, 74, 110
3, 3233, Note_on_c, 2, 55, 0
3, 3240, Note_on_c, 2, 74, 0
3, 3240, Note_on_c, 2, 73, 110
3, 3240, Note_on_c, 2, 57, 110
3, 3270, Note_on_c, 2, 73, 0
3, 3270, Note_on_c, 2, 76, 110
3, 3291, Note_on_c, 2, 57, 0
3, 3300, Note_on_c, 2, 76, 0
3, 3300, Note_on_c, 2, 69, 110
3, 3300, Note_on_c, 2, 61, 110
3, 3330, Note_on_c, 2, 79, 0
3, 3330, Note_on_c, 2, 79, 110
3, 3351, Note_on_c, 2, 61, 0
3, 3360, Note_on_c, 2, 79, 0
3, 3360, Note_on_c, 2, 77, 110
3, 3360, Note_on_c, 2, 50, 110
3, 3390, Note_on_c, 2, 64, 0
3, 3390, Note_on_c, 2, 57, 110
3, 3420, Note_on_c, 2, 59, 110
3, 3429, Note_on_c, 2, 57, 0
3, 3450, Note_on_c, 2, 61, 110
3, 3455, Note_on_c, 2, 59, 0
3, 3480, Note_on_c, 2, 62, 110
3, 3489, Note_on_c, 2, 61, 0
3, 3510, Note_on_c, 2, 50, 0
3, 3510, Note_on_c, 2, 65, 110
3, 3515, Note_on_c, 2, 62, 0
3, 3540, Note_on_c, 2, 69, 0
3, 3540, Note_on_c, 2, 65, 0
3, 3540, Note_on_c, 2, 74, 110
3, 3540, Note_on_c, 2, 59, 110
3, 3570, Note_on_c, 2, 59, 0
3, 3570, Note_on_c, 2, 62, 110
3, 3600, Note_on_c, 2, 62, 0
3, 3600, Note_on_c, 2, 77, 0
3, 3600, Note_on_c, 2, 76, 110
3, 3600, Note_on_c, 2, 56, 110
3, 3630, Note_on_c, 2, 74, 0
3, 3630, Note_on_c, 2, 74, 110
3, 3643, Note_on_c, 2, 56, 0
3, 3660, Note_on_c, 2, 74, 0
3, 3660, Note_on_c, 2, 72, 110
3, 3660, Note_on_c, 2, 52, 110
3, 3690, Note_on_c, 2, 72, 0
3, 3690, Note_on_c, 2, 71, 110
3, 3707, Note_on_c, 2, 52, 0
3, 3720, Note_on_c, 2, 71, 0
3, 3720, Note_on_c, 2, 72, 110
3, 3720, Note_on_c, 2, 57, 110
3, 3745, Note_on_c, 2, 76, 0
3, 3750, Note_on_c, 2, 76, 110
3, 3780, Note_on_c, 2, 76, 0
3, 3780, Note_on_c, 2, 57, 0
3, 3780, Note_on_c, 2, 77, 110
3, 3780, Note_on_c, 2, 55, 110
3, 3810, Note_on_c, 2, 77, 0
3, 3810, Note_on_c, 2, 79, 110
3, 3840, Note_on_c, 2, 79, 0
3, 3840, Note_on_c, 2, 55, 0
3, 3840, Note_on_c, 2, 81, 110
3, 3840, Note_on_c, 2, 53, 110
3, 3855, Note_on_c, 2, 79, 110
3, 3863, Note_on_c, 2, 81, 0
3, 3870, Note_on_c, 2, 77, 110
3, 3878, Note_on_c, 2, 79, 0
3, 3885, Note_on_c, 2, 76, 110
3, 3889, Note_on_c, 2, 77, 0
3, 3900, Note_on_c, 2, 53, 0
3, 3900, Note_on_c, 2, 77, 110
3, 3900, Note_on_c, 2, 52, 110
3, 3908, Note_on_c, 2, 76, 0
3, 3930, Note_on_c, 2, 77, 0
3, 3930, Note_on_c, 2, 81, 110
3, 3960, Note_on_c, 2, 81, 0
3, 3960, Note_on_c, 2, 72, 0
3, 3960, Note_on_c, 2, 52, 0
3, 3960, Note_on_c, 2, 74, 110
3, 3960, Note_on_c, 2, 53, 110
3, 3964, Note_on_c, 2, 74, 110
3, 3990, Note_on_c, 2, 84, 110
3, 3994, Note_on_c, 2, 74, 0
3, 4020, Note_on_c, 2, 84, 0
3, 4020, Note_on_c, 2, 53, 0
3, 4020, Note_on_c, 2, 83, 110
3, 4020, Note_on_c, 2, 50, 110
3, 4050, Note_on_c, 2, 83, 0
3, 4050, Note_on_c, 2, 81, 110
3, 4080, Note_on_c, 2, 81, 0
3, 4080, Note_on_c, 2, 50, 0
3, 4080, Note_on_c, 2, 80, 110
3, 4080, Note_on_c, 2, 52, 110
3, 4110, Note_on_c, 2, 74, 0
3, 4110, Note_on_c, 2, 77, 110
3, 4140, Note_on_c, 2, 77, 0
3, 4140, Note_on_c, 2, 76, 110
3, 4170, Note_on_c, 2, 76, 0
3, 4170, Note_on_c, 2, 74, 110
3, 4200, Note_on_c, 2, 74, 0
3, 4200, Note_on_c, 2, 72, 110
3, 4230, Note_on_c, 2, 80, 0
3, 4230, Note_on_c, 2, 76, 110
3, 4260, Note_on_c, 2, 76, 0
3, 4260, Note_on_c, 2, 81, 110
3, 4290, Note_on_c, 2, 72, 0
3, 4290, Note_on_c, 2, 72, 110
3, 4320, Note_on_c, 2, 72, 0
3, 4320, Note_on_c, 2, 71, 110
3, 4350, Note_on_c, 2, 52, 0
3, 4350, Note_on_c, 2, 59, 110
3, 4380, Note_on_c, 2, 81, 0
3, 4380, Note_on_c, 2, 81, 110
3, 4380, Note_on_c, 2, 60, 110
3, 4389, Note_on_c, 2, 59, 0
3, 4410, Note_on_c, 2, 62, 110
3, 4419, Note_on_c, 2, 60, 0
3, 4440, Note_on_c, 2, 81, 0
3, 4440, Note_on_c, 2, 79, 110
3, 4440, Note_on_c, 2, 64, 110
3, 4449, Note_on_c, 2, 62, 0
3, 4470, Note_on_c, 2, 64, 0
3, 4470, Note_on_c, 2, 67, 110
3, 4500, Note_on_c, 2, 67, 0
3, 4500, Note_on_c, 2, 79, 0
3, 4500, Note_on_c, 2, 71, 0
3, 4500, Note_on_c, 2, 77, 110
3, 4500, Note_on_c, 2, 74, 110
3, 4500, Note_on_c, 2, 59, 110
3, 4530, Note_on_c, 2, 59, 0
3, 4530, Note_on_c, 2, 62, 110
3, 4560, Note_on_c, 2, 62, 0
3, 4560, Note_on_c, 2, 77, 0
3, 4560, Note_on_c, 2, 76, 110
3, 4560, Note_on_c, 2, 61, 110
3, 4590, Note_on_c, 2, 61, 0
3, 4590, Note_on_c, 2, 74, 0
3, 4590, Note_on_c, 2, 74, 110
3, 4590, Note_on_c, 2, 64, 110
3, 4620, Note_on_c, 2, 64, 0
3, 4620, Note_on_c, 2, 74, 0
3, 4620, Note_on_c, 2, 73, 110
3, 4620, Note_on_c, 2, 57, 110
3, 4650, Note_on_c, 2, 76, 0
3, 4650, Note_on_c, 2, 76, 110
3, 4650, Note_on_c, 2, 67, 110
3, 4680, Note_on_c, 2, 57, 0
3, 4680, Note_on_c, 2, 73, 0
3, 4680, Note_on_c, 2, 69, 110
3, 4680, Note_on_c, 2, 62, 110
3, 4710, Note_on_c, 2, 76, 0
3, 4710, Note_on_c, 2, 67, 0
3, 4710, Note_on_c, 2, 76, 110
3, 4710, Note_on_c, 2, 67, 110
3, 4740, Note_on_c, 2, 67, 0
3, 4740, Note_on_c, 2, 76, 0
3, 4740, Note_on_c, 2, 74, 110
3, 4740, Note_on_c, 2, 65, 110
3, 4770, Note_on_c, 2, 65, 0
3, 4770, Note_on_c, 2, 74, 0
3, 4770, Note_on_c, 2, 73, 110
3, 4770, Note_on_c, 2, 64, 110
3, 4800, Note_on_c, 2, 64, 0
3, 4800, Note_on_c, 2, 73, 0
3, 4800, Note_on_c, 2, 74, 110
3, 4800, Note_on_c, 2, 65, 110
3, 4830, Note_on_c, 2, 74, 0
3, 4830, Note_on_c, 2, 69, 0
3, 4830, Note_on_c, 2, 81, 110
3, 4860, Note_on_c, 2, 62, 0
3, 4860, Note_on_c, 2, 83, 110
3, 4860, Note_on_c, 2, 57, 110
3, 4869, Note_on_c, 2, 81, 0
3, 4890, Note_on_c, 2, 85, 110
3, 4899, Note_on_c, 2, 83, 0
3, 4920, Note_on_c, 2, 57, 0
3, 4920, Note_on_c, 2, 86, 110
3, 4920, Note_on_c, 2, 58, 110
3, 4929, Note_on_c, 2, 85, 0
3, 4950, Note_on_c, 2, 86, 0
3, 4950, Note_on_c, 2, 89, 110
3, 4967, Note_on_c, 2, 58, 0
3, 4980, Note_on_c, 2, 81, 110
3, 4980, Note_on_c, 2, 62, 110
3, 5010, Note_on_c, 2, 81, 0
3, 5010, Note_on_c, 2, 84, 110
3, 5027, Note_on_c, 2, 62, 0
3, 5040, Note_on_c, 2, 84, 0
3, 5040, Note_on_c, 2, 65, 0
3, 5040, Note_on_c, 2, 82, 110
3, 5040, Note_on_c, 2, 67, 110
3, 5040, Note_on_c, 2, 55, 110
3, 5070, Note_on_c, 2, 89, 0
3, 5070, Note_on_c, 2, 89, 110
3, 5100, Note_on_c, 2, 89, 0
3, 5100, Note_on_c, 2, 87, 110
3, 5130, Note_on_c, 2, 87, 0
3, 5130, Note_on_c, 2, 86, 110
3, 5160, Note_on_c, 2, 86, 0
3, 5160, Note_on_c, 2, 87, 110
3, 5190, Note_on_c, 2, 87, 0
3, 5190, Note_on_c, 2, 91, 110
3, 5220, Note_on_c, 2, 91, 0
3, 5220, Note_on_c, 2, 85, 110
3, 5250, Note_on_c, 2, 85, 0
3, 5250, Note_on_c, 2, 86, 110
3, 5280, Note_on_c, 2, 86, 0
3, 5280, Note_on_c, 2, 55, 0
3, 5280, Note_on_c, 2, 85, 110
3, 5280, Note_on_c, 2, 57, 110
3, 5310, Note_on_c, 2, 82, 0
3, 5310, Note_on_c, 2, 82, 110
3, 5340, Note_on_c, 2, 82, 0
3, 5340, Note_on_c, 2, 81, 110
3, 5370, Note_on_c, 2, 67, 0
3, 5370, Note_on_c, 2, 67, 110
3, 5400, Note_on_c, 2, 67, 0
3, 5400, Note_on_c, 2, 66, 110
3, 5430, Note_on_c, 2, 81, 0
3, 5430, Note_on_c, 2, 81, 110
3, 5460, Note_on_c, 2, 66, 0
3, 5460, Note_on_c, 2, 85, 0
3, 5460, Note_on_c, 2, 86, 110
3, 5460, Note_on_c, 2, 65, 110
3, 5490, Note_on_c, 2, 81, 0
3, 5490, Note_on_c, 2, 80, 110
3, 5520, Note_on_c, 2, 80, 0
3, 5520, Note_on_c, 2, 65, 0
3, 5520, Note_on_c, 2, 81, 110
3, 5520, Note_on_c, 2, 64, 110
3, 5550, Note_on_c, 2, 86, 0
3, 5550, Note_on_c, 2, 86, 110
3, 5580, Note_on_c, 2, 86, 0
3, 5580, Note_on_c, 2, 64, 0
3, 5580, Note_on_c, 2, 85, 110
3, 5580, Note_on_c, 2, 62, 110
3, 5610, Note_on_c, 2, 85, 0
3, 5610, Note_on_c, 2, 83, 110
3, 5640, Note_on_c, 2, 83, 0
3, 5640, Note_on_c, 2, 62, 0
3, 5640, Note_on_c, 2, 57, 0
3, 5640, Note_on_c, 2, 85, 110
3, 5640, Note_on_c, 2, 64, 110
3, 5640, Note_on_c, 2, 57, 110
3, 5670, Note_on_c, 2, 85, 0
3, 5670, Note_on_c, 2, 86, 110
3, 5700, Note_on_c, 2, 86, 0
3, 5700, Note_on_c, 2, 64, 0
3, 5700, Note_on_c, 2, 88, 110
3, 5700, Note_on_c, 2, 69, 110
3, 5730, Note_on_c, 2, 81, 0
3, 5730, Note_on_c, 2, 79, 110
3, 5760, Note_on_c, 2, 79, 0
3, 5760, Note_on_c, 2, 57, 0
3, 5760, Note_on_c, 2, 77, 110
3, 5760, Note_on_c, 2, 62, 110
3, 5790, Note_on_c, 2, 88, 0
3, 5790, Note_on_c, 2, 81, 110
3, 5820, Note_on_c, 2, 81, 0
3, 5820, Note_on_c, 2, 69, 0
3, 5820, Note_on_c, 2, 86, 110
3, 5820, Note_on_c, 2, 70, 110
3, 5850, Note_on_c, 2, 86, 0
3, 5850, Note_on_c, 2, 85, 110
3, 5880, Note_on_c, 2, 85, 0
3, 5880, Note_on_c, 2, 70, 0
3, 5880, Note_on_c, 2, 86, 110
3, 5880, Note_on_c, 2, 69, 110
3, 5910, Note_on_c, 2, 77, 0
3, 5910, Note_on_c, 2, 77, 110
3, 5940, Note_on_c, 2, 77, 0
3, 5940, Note_on_c, 2, 69, 0
3, 5940, Note_on_c, 2, 82, 110
3, 5940, Note_on_c, 2, 67, 110
3, 5970, Note_on_c, 2, 86, 0
3, 5970, Note_on_c, 2, 88, 110
3, 6000, Note_on_c, 2, 88, 0
3, 6000, Note_on_c, 2, 67, 0
3, 6000, Note_on_c, 2, 82, 0
3, 6000, Note_on_c, 2, 89, 110
3, 6000, Note_on_c, 2, 81, 110
3, 6000, Note_on_c, 2, 65, 110
3, 6030, Note_on_c, 2, 65, 0
3, 6030, Note_on_c, 2, 67, 110
3, 6060, Note_on_c, 2, 67, 0
3, 6060, Note_on_c, 2, 69, 110
3, 6090, Note_on_c, 2, 81, 0
3, 6090, Note_on_c, 2, 62, 0
3, 6090, Note_on_c, 2, 81, 110
3, 6090, Note_on_c, 2, 60, 110
3, 6120, Note_on_c, 2, 60, 0
3, 6120, Note_on_c, 2, 81, 0
3, 6120, Note_on_c, 2, 86, 110
3, 6120, Note_on_c, 2, 59, 110
3, 6150, Note_on_c, 2, 89, 0
3, 6150, Note_on_c, 2, 69, 0
3, 6150, Note_on_c, 2, 88, 110
3, 6150, Note_on_c, 2, 68, 110
3, 6180, Note_on_c, 2, 68, 0
3, 6180, Note_on_c, 2, 88, 0
3, 6180, Note_on_c, 2, 89, 110
3, 6180, Note_on_c, 2, 69, 110
3, 6210, Note_on_c, 2, 86, 0
3, 6210, Note_on_c, 2, 59, 0
3, 6210, Note_on_c, 2, 86, 110
3, 6210, Note_on_c, 2, 57, 110
3, 6240, Note_on_c, 2, 57, 0
3, 6240, Note_on_c, 2, 69, 0
3, 6240, Note_on_c, 2, 89, 0
3, 6240, Note_on_c, 2, 88, 110
3, 6240, Note_on_c, 2, 56, 110
3, 6270, Note_on_c, 2, 86, 0
3, 6270, Note_on_c, 2, 86, 110
3, 6270, Note_on_c, 2, 64, 110
3, 6300, Note_on_c, 2, 64, 0
3, 6300, Note_on_c, 2, 86, 0
3, 6300, Note_on_c, 2, 56, 0
3, 6300, Note_on_c, 2, 84, 110
3, 6300, Note_on_c, 2, 66, 110
3, 6330, Note_on_c, 2, 66, 0
3, 6330, Note_on_c, 2, 84, 0
3, 6330, Note_on_c, 2, 83, 110
3, 6330, Note_on_c, 2, 68, 110
3, 6360, Note_on_c, 2, 68, 0
3, 6360, Note_on_c, 2, 83, 0
3, 6360, Note_on_c, 2, 84, 110
3, 6360, Note_on_c, 2, 69, 110
3, 6390, Note_on_c, 2, 88, 0
3, 6390, Note_on_c, 2, 88, 110
3, 6390, Note_on_c, 2, 60, 110
3, 6420, Note_on_c, 2, 60, 0
3, 6420, Note_on_c, 2, 88, 0
3, 6420, Note_on_c, 2, 93, 110
3, 6420, Note_on_c, 2, 65, 110
3, 6450, Note_on_c, 2, 65, 0
3, 6450, Note_on_c, 2, 93, 0
3, 6450, Note_on_c, 2, 92, 110
3, 6450, Note_on_c, 2, 64, 110
3, 6480, Note_on_c, 2, 64, 0
3, 6480, Note_on_c, 2, 92, 0
3, 6480, Note_on_c, 2, 93, 110
3, 6480, Note_on_c, 2, 65, 110
3, 6510, Note_on_c, 2, 69, 0
3, 6510, Note_on_c, 2, 84, 0
3, 6510, Note_on_c, 2, 85, 110
3, 6510, Note_on_c, 2, 69, 110
3, 6540, Note_on_c, 2, 69, 0
3, 6540, Note_on_c, 2, 85, 0
3, 6540, Note_on_c, 2, 86, 110
3, 6540, Note_on_c, 2, 71, 110
3, 6570, Note_on_c, 2, 71, 0
3, 6570, Note_on_c, 2, 86, 0
3, 6570, Note_on_c, 2, 88, 110
3, 6570, Note_on_c, 2, 73, 110
3, 6600, Note_on_c, 2, 73, 0
3, 6600, Note_on_c, 2, 88, 0
3, 6600, Note_on_c, 2, 81, 110
3, 6600, Note_on_c, 2, 74, 110
3, 6630, Note_on_c, 2, 93, 0
3, 6630, Note_on_c, 2, 65, 0
3, 6630, Note_on_c, 2, 91, 110
3, 6630, Note_on_c, 2, 64, 110
3, 6660, Note_on_c, 2, 64, 0
3, 6660, Note_on_c, 2, 91, 0
3, 6660, Note_on_c, 2, 93, 110
3, 6660, Note_on_c, 2, 65, 110
3, 6690, Note_on_c, 2, 65, 0
3, 6690, Note_on_c, 2, 93, 0
3, 6690, Note_on_c, 2, 89, 110
3, 6690, Note_on_c, 2, 62, 110
3, 6720, Note_on_c, 2, 62, 0
3, 6720, Note_on_c, 2, 89, 0
3, 6720, Note_on_c, 2, 86, 110
3, 6720, Note_on_c, 2, 70, 110
3, 6750, Note_on_c, 2, 81, 0
3, 6750, Note_on_c, 2, 74, 0
3, 6750, Note_on_c, 2, 78, 110
3, 6750, Note_on_c, 2, 74, 110
3, 6780, Note_on_c, 2, 74, 0
3, 6780, Note_on_c, 2, 78, 0
3, 6780, Note_on_c, 2, 79, 110
3, 6780, Note_on_c, 2, 76, 110
3, 6810, Note_on_c, 2, 76, 0
3, 6810, Note_on_c, 2, 79, 0
3, 6810, Note_on_c, 2, 81, 110
3, 6810, Note_on_c, 2, 78, 110
3, 6840, Note_on_c, 2, 78, 0
3, 6840, Note_on_c, 2, 81, 0
3, 6840, Note_on_c, 2, 82, 110
3, 6840, Note_on_c, 2, 79, 110
3, 6870, Note_on_c, 2, 86, 0
3, 6870, Note_on_c, 2, 89, 110
3, 6900, Note_on_c, 2, 89, 0
3, 6900, Note_on_c, 2, 82, 0
3, 6900, Note_on_c, 2, 88, 110
3, 6930, Note_on_c, 2, 88, 0
3, 6930, Note_on_c, 2, 79, 0
3, 6930, Note_on_c, 2, 91, 110
3, 6930, Note_on_c, 2, 77, 110
3, 6960, Note_on_c, 2, 77, 0
3, 6960, Note_on_c, 2, 91, 0
3, 6960, Note_on_c, 2, 84, 110
3, 6960, Note_on_c, 2, 76, 110
3, 6990, Note_on_c, 2, 70, 0
3, 6990, Note_on_c, 2, 69, 110
3, 7020, Note_on_c, 2, 69, 0
3, 7020, Note_on_c, 2, 82, 110
3, 7020, Note_on_c, 2, 67, 110
3, 7050, Note_on_c, 2, 67, 0
3, 7050, Note_on_c, 2, 70, 110
3, 7080, Note_on_c, 2, 70, 0
3, 7080, Note_on_c, 2, 69, 110
3, 7110, Note_on_c, 2, 82, 0
3, 7110, Note_on_c, 2, 76, 0
3, 7110, Note_on_c, 2, 81, 110
3, 7110, Note_on_c, 2, 72, 110
3, 7125, Note_on_c, 2, 81, 0
3, 7125, Note_on_c, 2, 79, 110
3, 7140, Note_on_c, 2, 79, 0
3, 7140, Note_on_c, 2, 72, 0
3, 7140, Note_on_c, 2, 81, 110
3, 7140, Note_on_c, 2, 77, 110
3, 7170, Note_on_c, 2, 81, 0
3, 7170, Note_on_c, 2, 84, 0
3, 7170, Note_on_c, 2, 87, 110
3, 7170, Note_on_c, 2, 84, 110
3, 7200, Note_on_c, 2, 84, 0
3, 7200, Note_on_c, 2, 87, 0
3, 7200, Note_on_c, 2, 86, 110
3, 7200, Note_on_c, 2, 82, 110
3, 7230, Note_on_c, 2, 69, 0
3, 7230, Note_on_c, 2, 67, 110
3, 7260, Note_on_c, 2, 67, 0
3, 7260, Note_on_c, 2, 65, 110
3, 7290, Note_on_c, 2, 65, 0
3, 7290, Note_on_c, 2, 69, 110
3, 7320, Note_on_c, 2, 69, 0
3, 7320, Note_on_c, 2, 77, 0
3, 7320, Note_on_c, 2, 70, 110
3, 7320, Note_on_c, 2, 67, 110
3, 7350, Note_on_c, 2, 86, 0
3, 7350, Note_on_c, 2, 89, 110
3, 7367, Note_on_c, 2, 67, 0
3, 7380, Note_on_c, 2, 82, 0
3, 7380, Note_on_c, 2, 70, 0
3, 7380, Note_on_c, 2, 82, 110
3, 7380, Note_on_c, 2, 72, 110
3, 7380, Note_on_c, 2, 60, 110
3, 7410, Note_on_c, 2, 89, 0
3, 7410, Note_on_c, 2, 88, 110
3, 7427, Note_on_c, 2, 60, 0
3, 7440, Note_on_c, 2, 88, 0
3, 7440, Note_on_c, 2, 89, 110
3, 7440, Note_on_c, 2, 65, 110
3, 7470, Note_on_c, 2, 82, 0
3, 7470, Note_on_c, 2, 79, 110
3, 7500, Note_on_c, 2, 79, 0
3, 7500, Note_on_c, 2, 81, 110
3, 7530, Note_on_c, 2, 72, 0
3, 7530, Note_on_c, 2, 89, 0
3, 7530, Note_on_c, 2, 84, 110
3, 7530, Note_on_c, 2, 69, 110
3, 7560, Note_on_c, 2, 69, 0
3, 7560, Note_on_c, 2, 84, 0
3, 7560, Note_on_c, 2, 89, 110
3, 7560, Note_on_c, 2, 74, 110
3, 7590, Note_on_c, 2, 89, 0
3, 7590, Note_on_c, 2, 93, 110
3, 7620, Note_on_c, 2, 93, 0
3, 7620, Note_on_c, 2, 81, 0
3, 7620, Note_on_c, 2, 86, 110
3, 7620, Note_on_c, 2, 77, 110
3, 7650, Note_on_c, 2, 86, 0
3, 7650, Note_on_c, 2, 89, 110
3, 7680, Note_on_c, 2, 89, 0
3, 7680, Note_on_c, 2, 77, 0
3, 7680, Note_on_c, 2, 83, 110
3, 7680, Note_on_c, 2, 79, 110
3, 7710, Note_on_c, 2, 83, 0
3, 7710, Note_on_c, 2, 65, 0
3, 7710, Note_on_c, 2, 86, 110
3, 7710, Note_on_c, 2, 65, 110
3, 7740, Note_on_c, 2, 65, 0
3, 7740, Note_on_c, 2, 86, 0
3, 7740, Note_on_c, 2, 91, 110
3, 7740, Note_on_c, 2, 64, 110
3, 7770, Note_on_c, 2, 64, 0
3, 7770, Note_on_c, 2, 79, 0
3, 7770, Note_on_c, 2, 83, 110
3, 7770, Note_on_c, 2, 62, 110
3, 7800, Note_on_c, 2, 62, 0
3, 7800, Note_on_c, 2, 83, 0
3, 7800, Note_on_c, 2, 74, 0
3, 7800, Note_on_c, 2, 85, 110
3, 7800, Note_on_c, 2, 67, 110
3, 7800, Note_on_c, 2, 64, 110
3, 7830, Note_on_c, 2, 91, 0
3, 7830, Note_on_c, 2, 91, 110
3, 7851, Note_on_c, 2, 64, 0
3, 7851, Note_on_c, 2, 67, 0
3, 7860, Note_on_c, 2, 91, 0
3, 7860, Note_on_c, 2, 89, 110
3, 7860, Note_on_c, 2, 69, 110
3, 7860, Note_on_c, 2, 57, 110
3, 7890, Note_on_c, 2, 89, 0
3, 7890, Note_on_c, 2, 88, 110
3, 7903, Note_on_c, 2, 57, 0
3, 7920, Note_on_c, 2, 85, 0
3, 7920, Note_on_c, 2, 88, 0
3, 7920, Note_on_c, 2, 89, 110
3, 7920, Note_on_c, 2, 86, 110
3, 7920, Note_on_c, 2, 62, 110
3, 7950, Note_on_c, 2, 69, 0
3, 7950, Note_on_c, 2, 64, 110
3, 7980, Note_on_c, 2, 64, 0
3, 7980, Note_on_c, 2, 65, 110
3, 7995, Note_on_c, 2, 84, 110
3, 7997, Note_on_c, 2, 86, 0
3, 8010, Note_on_c, 2, 65, 0
3, 8010, Note_on_c, 2, 82, 110
3, 8010, Note_on_c, 2, 69, 110
3, 8014, Note_on_c, 2, 84, 0
3, 8025, Note_on_c, 2, 81, 110
3, 8027, Note_on_c, 2, 82, 0
3, 8040, Note_on_c, 2, 69, 0
3, 8040, Note_on_c, 2, 82, 110
3, 8040, Note_on_c, 2, 74, 110
3, 8044, Note_on_c, 2, 81, 0
3, 8070, Note_on_c, 2, 89, 0
3, 8070, Note_on_c, 2, 86, 110
3, 8100, Note_on_c, 2, 86, 0
3, 8100, Note_on_c, 2, 89, 110
3, 8130, Note_on_c, 2, 74, 0
3, 8130, Note_on_c, 2, 82, 0
3, 8130, Note_on_c, 2, 81, 110
3, 8130, Note_on_c, 2, 72, 110
3, 8160, Note_on_c, 2, 72, 0
3, 8160, Note_on_c, 2, 81, 0
3, 8160, Note_on_c, 2, 80, 110
3, 8160, Note_on_c, 2, 71, 110
3, 8190, Note_on_c, 2, 62, 0
3, 8190, Note_on_c, 2, 89, 0
3, 8190, Note_on_c, 2, 89, 110
3, 8190, Note_on_c, 2, 62, 110
3, 8220, Note_on_c, 2, 62, 0
3, 8220, Note_on_c, 2, 89, 0
3, 8220, Note_on_c, 2, 71, 0
3, 8220, Note_on_c, 2, 88, 110
3, 8220, Note_on_c, 2, 60, 110
3, 8250, Note_on_c, 2, 60, 0
3, 8250, Note_on_c, 2, 80, 0
3, 8250, Note_on_c, 2, 80, 110
3, 8250, Note_on_c, 2, 59, 110
3, 8280, Note_on_c, 2, 59, 0
3, 8280, Note_on_c, 2, 80, 0
3, 8280, Note_on_c, 2, 81, 110
3, 8280, Note_on_c, 2, 60, 110
3, 8310, Note_on_c, 2, 88, 0
3, 8310, Note_on_c, 2, 87, 110
3, 8327, Note_on_c, 2, 60, 0
3, 8340, Note_on_c, 2, 87, 0
3, 8340, Note_on_c, 2, 86, 110
3, 8340, Note_on_c, 2, 65, 110
3, 8370, Note_on_c, 2, 86, 0
3, 8370, Note_on_c, 2, 85, 110
3, 8387, Note_on_c, 2, 65, 0
3, 8400, Note_on_c, 2, 85, 0
3, 8400, Note_on_c, 2, 86, 110
3, 8400, Note_on_c, 2, 58, 110
3, 8430, Note_on_c, 2, 81, 0
3, 8430, Note_on_c, 2, 84, 110
3, 8430, Note_on_c, 2, 62, 110
3, 8460, Note_on_c, 2, 62, 0
3, 8460, Note_on_c, 2, 84, 0
3, 8460, Note_on_c, 2, 82, 110
3, 8460, Note_on_c, 2, 64, 110
3, 8490, Note_on_c, 2, 64, 0
3, 8490, Note_on_c, 2, 82, 0
3, 8490, Note_on_c, 2, 81, 110
3, 8490, Note_on_c, 2, 66, 110
3, 8520, Note_on_c, 2, 66, 0
3, 8520, Note_on_c, 2, 81, 0
3, 8520, Note_on_c, 2, 82, 110
3, 8520, Note_on_c, 2, 67, 110
3, 8550, Note_on_c, 2, 67, 0
3, 8550, Note_on_c, 2, 82, 0
3, 8550, Note_on_c, 2, 78, 110
3, 8550, Note_on_c, 2, 69, 110
3, 8580, Note_on_c, 2, 69, 0
3, 8580, Note_on_c, 2, 78, 0
3, 8580, Note_on_c, 2, 79, 110
3, 8580, Note_on_c, 2, 70, 110
3, 8610, Note_on_c, 2, 58, 0
3, 8610, Note_on_c, 2, 86, 0
3, 8610, Note_on_c, 2, 86, 110
3, 8610, Note_on_c, 2, 63, 110
3, 8640, Note_on_c, 2, 63, 0
3, 8640, Note_on_c, 2, 86, 0
3, 8640, Note_on_c, 2, 85, 110
3, 8640, Note_on_c, 2, 57, 110
3, 8670, Note_on_c, 2, 70, 0
3, 8670, Note_on_c, 2, 69, 110
3, 8700, Note_on_c, 2, 69, 0
3, 8700, Note_on_c, 2, 85, 0
3, 8700, Note_on_c, 2, 84, 110
3, 8700, Note_on_c, 2, 64, 110
3, 8730, Note_on_c, 2, 64, 0
3, 8730, Note_on_c, 2, 79, 0
3, 8730, Note_on_c, 2, 82, 110
3, 8730, Note_on_c, 2, 67, 110
3, 8760, Note_on_c, 2, 67, 0
3, 8760, Note_on_c, 2, 82, 0
3, 8760, Note_on_c, 2, 81, 110
3, 8760, Note_on_c, 2, 66, 110
3, 8790, Note_on_c, 2, 66, 0
3, 8790, Note_on_c, 2, 81, 0
3, 8790, Note_on_c, 2, 79, 110
3, 8790, Note_on_c, 2, 67, 110
3, 8820, Note_on_c, 2, 67, 0
3, 8820, Note_on_c, 2, 79, 0
3, 8820, Note_on_c, 2, 78, 110
3, 8820, Note_on_c, 2, 69, 110
3, 8850, Note_on_c, 2, 78, 0
3, 8850, Note_on_c, 2, 57, 0
3, 8850, Note_on_c, 2, 84, 0
3, 8850, Note_on_c, 2, 84, 110
3, 8850, Note_on_c, 2, 75, 110
3, 8850, Note_on_c, 2, 66, 110
3, 8880, Note_on_c, 2, 66, 0
3, 8880, Note_on_c, 2, 75, 0
3, 8880, Note_on_c, 2, 84, 0
3, 8880, Note_on_c, 2, 83, 110
3, 8880, Note_on_c, 2, 74, 110
3, 8880, Note_on_c, 2, 55, 110
3, 8910, Note_on_c, 2, 74, 0
3, 8910, Note_on_c, 2, 69, 0
3, 8910, Note_on_c, 2, 76, 110
3, 8910, Note_on_c, 2, 67, 110
3, 8940, Note_on_c, 2, 67, 0
3, 8940, Note_on_c, 2, 76, 0
3, 8940, Note_on_c, 2, 83, 0
3, 8940, Note_on_c, 2, 82, 110
3, 8940, Note_on_c, 2, 77, 110
3, 8940, Note_on_c, 2, 62, 110
3, 8970, Note_on_c, 2, 62, 0
3, 8970, Note_on_c, 2, 77, 0
3, 8970, Note_on_c, 2, 81, 110
3, 8970, Note_on_c, 2, 65, 110
3, 9000, Note_on_c, 2, 65, 0
3, 9000, Note_on_c, 2, 81, 0
3, 9000, Note_on_c, 2, 79, 110
3, 9000, Note_on_c, 2, 64, 110
3, 9030, Note_on_c, 2, 64, 0
3, 9030, Note_on_c, 2, 79, 0
3, 9030, Note_on_c, 2, 77, 110
3, 9030, Note_on_c, 2, 65, 110
3, 9060, Note_on_c, 2, 65, 0
3, 9060, Note_on_c, 2, 77, 0
3, 9060, Note_on_c, 2, 76, 110
3, 9060, Note_on_c, 2, 67, 110
3, 9090, Note_on_c, 2, 76, 0
3, 9090, Note_on_c, 2, 55, 0
3, 9090, Note_on_c, 2, 82, 0
3, 9090, Note_on_c, 2, 82, 110
3, 9090, Note_on_c, 2, 73, 110
3, 9090, Note_on_c, 2, 64, 110
3, 9120, Note_on_c, 2, 64, 0
3, 9120, Note_on_c, 2, 73, 0
3, 9120, Note_on_c, 2, 82, 0
3, 9120, Note_on_c, 2, 81, 110
3, 9120, Note_on_c, 2, 72, 110
3, 9120, Note_on_c, 2, 53, 110
3, 9150, Note_on_c, 2, 67, 0
3, 9150, Note_on_c, 2, 60, 110
3, 9180, Note_on_c, 2, 60, 0
3, 9180, Note_on_c, 2, 62, 110
3, 9210, Note_on_c, 2, 62, 0
3, 9210, Note_on_c, 2, 64, 110
3, 9240, Note_on_c, 2, 64, 0
3, 9240, Note_on_c, 2, 65, 110
3, 9270, Note_on_c, 2, 65, 0
3, 9270, Note_on_c, 2, 53, 0
3, 9270, Note_on_c, 2, 69, 110
3, 9300, Note_on_c, 2, 69, 0
3, 9300, Note_on_c, 2, 72, 0
3, 9300, Note_on_c, 2, 77, 110
3, 9300, Note_on_c, 2, 62, 110
3, 9330, Note_on_c, 2, 62, 0
3, 9330, Note_on_c, 2, 65, 110
3, 9360, Note_on_c, 2, 65, 0
3, 9360, Note_on_c, 2, 81, 0
3, 9360, Note_on_c, 2, 79, 110
3, 9360, Note_on_c, 2, 59, 110
3, 9390, Note_on_c, 2, 77, 0
3, 9390, Note_on_c, 2, 77, 110
3, 9411, Note_on_c, 2, 59, 0
3, 9420, Note_on_c, 2, 77, 0
3, 9420, Note_on_c, 2, 76, 110
3, 9420, Note_on_c, 2, 55, 110
3, 9450, Note_on_c, 2, 76, 0
3, 9450, Note_on_c, 2, 74, 110
3, 9467, Note_on_c, 2, 55, 0
3, 9480, Note_on_c, 2, 74, 0
3, 9480, Note_on_c, 2, 76, 110
3, 9480, Note_on_c, 2, 60, 110
3, 9510, Note_on_c, 2, 79, 0
3, 9510, Note_on_c, 2, 79, 110
3, 9540, Note_on_c, 2, 79, 0
3, 9540, Note_on_c, 2, 81, 110
3, 9570, Note_on_c, 2, 81, 0
3, 9570, Note_on_c, 2, 84, 110
3, 9600, Note_on_c, 2, 84, 0
3, 9600, Note_on_c, 2, 76, 0
3, 9600, Note_on_c, 2, 77, 110
3, 9600, Note_on_c, 2, 74, 110
3, 9629, Note_on_c, 2, 60, 0
3, 9630, Note_on_c, 2, 62, 110
3, 9645, Note_on_c, 2, 64, 110
3, 9653, Note_on_c, 2, 62, 0
3, 9660, Note_on_c, 2, 65, 110
3, 9668, Note_on_c, 2, 64, 0
3, 9675, Note_on_c, 2, 67, 110
3, 9683, Note_on_c, 2, 65, 0
3, 9690, Note_on_c, 2, 69, 110
3, 9694, Note_on_c, 2, 67, 0
3, 9720, Note_on_c, 2, 69, 0
3, 9720, Note_on_c, 2, 59, 110
3, 9750, Note_on_c, 2, 77, 0
3, 9750, Note_on_c, 2, 86, 110
3, 9765, Note_on_c, 2, 84, 110
3, 9773, Note_on_c, 2, 86, 0
3, 9780, Note_on_c, 2, 86, 110
3, 9780, Note_on_c, 2, 67, 110
3, 9788, Note_on_c, 2, 84, 0
3, 9810, Note_on_c, 2, 86, 0
3, 9810, Note_on_c, 2, 77, 110
3, 9840, Note_on_c, 2, 77, 0
3, 9840, Note_on_c, 2, 59, 0
3, 9840, Note_on_c, 2, 76, 110
3, 9840, Note_on_c, 2, 60, 110
3, 9870, Note_on_c, 2, 74, 0
3, 9870, Note_on_c, 2, 74, 110
3, 9900, Note_on_c, 2, 74, 0
3, 9900, Note_on_c, 2, 72, 110
3, 9930, Note_on_c, 2, 72, 0
3, 9930, Note_on_c, 2, 71, 110
3, 9960, Note_on_c, 2, 71, 0
3, 9960, Note_on_c, 2, 72, 110
3, 9990, Note_on_c, 2, 76, 0
3, 9990, Note_on_c, 2, 79, 110
3, 10020, Note_on_c, 2, 79, 0
3, 10020, Note_on_c, 2, 72, 0
3, 10020, Note_on_c, 2, 67, 0
3, 10020, Note_on_c, 2, 60, 0
3, 10020, Note_on_c, 2, 81, 110
3, 10020, Note_on_c, 2, 59, 110
3, 10050, Note_on_c, 2, 81, 0
3, 10050, Note_on_c, 2, 83, 110
3, 10080, Note_on_c, 2, 83, 0
3, 10080, Note_on_c, 2, 59, 0
3, 10080, Note_on_c, 2, 84, 110
3, 10080, Note_on_c, 2, 57, 110
3, 10110, Note_on_c, 2, 81, 110
3, 10140, Note_on_c, 2, 81, 0
3, 10140, Note_on_c, 2, 57, 0
3, 10140, Note_on_c, 2, 76, 110
3, 10140, Note_on_c, 2, 69, 110
3, 10140, Note_on_c, 2, 60, 110
3, 10170, Note_on_c, 2, 76, 0
3, 10170, Note_on_c, 2, 79, 110
3, 10200, Note_on_c, 2, 79, 0
3, 10200, Note_on_c, 2, 60, 0
3, 10200, Note_on_c, 2, 78, 110
3, 10200, Note_on_c, 2, 62, 110
3, 10230, Note_on_c, 2, 78, 0
3, 10230, Note_on_c, 2, 81, 110
3, 10260, Note_on_c, 2, 81, 0
3, 10260, Note_on_c, 2, 62, 0
3, 10260, Note_on_c, 2, 74, 110
3, 10260, Note_on_c, 2, 66, 110
3, 10290, Note_on_c, 2, 84, 0
3, 10290, Note_on_c, 2, 84, 110
3, 10320, Note_on_c, 2, 84, 0
3, 10320, Note_on_c, 2, 66, 0
3, 10320, Note_on_c, 2, 83, 110
3, 10320, Note_on_c, 2, 55, 110
3, 10350, Note_on_c, 2, 69, 0
3, 10350, Note_on_c, 2, 62, 110
3, 10380, Note_on_c, 2, 62, 0
3, 10380, Note_on_c, 2, 64, 110
3, 10410, Note_on_c, 2, 64, 0
3, 10410, Note_on_c, 2, 66, 110
3, 10440, Note_on_c, 2, 66, 0
3, 10440, Note_on_c, 2, 67, 110
3, 10470, Note_on_c, 2, 55, 0
3, 10470, Note_on_c, 2, 71, 110
3, 10500, Note_on_c, 2, 71, 0
3, 10500, Note_on_c, 2, 67, 0
3, 10500, Note_on_c, 2, 83, 0
3, 10500, Note_on_c, 2, 74, 0
3, 10500, Note_on_c, 2, 85, 110
3, 10500, Note_on_c, 2, 79, 110
3, 10500, Note_on_c, 2, 64, 110
3, 10515, Note_on_c, 2, 86, 110
3, 10523, Note_on_c, 2, 85, 0
3, 10530, Note_on_c, 2, 64, 0
3, 10530, Note_on_c, 2, 88, 110
3, 10530, Note_on_c, 2, 67, 110
3, 10538, Note_on_c, 2, 86, 0
3, 10560, Note_on_c, 2, 67, 0
3, 10560, Note_on_c, 2, 88, 0
3, 10560, Note_on_c, 2, 81, 110
3, 10560, Note_on_c, 2, 61, 110
3, 10590, Note_on_c, 2, 79, 0
3, 10590, Note_on_c, 2, 79, 110
3, 10607, Note_on_c, 2, 61, 0
3, 10620, Note_on_c, 2, 79, 0
3, 10620, Note_on_c, 2, 77, 110
3, 10620, Note_on_c, 2, 57, 110
3, 10650, Note_on_c, 2, 77, 0
3, 10650, Note_on_c, 2, 76, 110
3, 10671, Note_on_c, 2, 57, 0
3, 10680, Note_on_c, 2, 76, 0
3, 10680, Note_on_c, 2, 77, 110
3, 10680, Note_on_c, 2, 62, 110
3, 10710, Note_on_c, 2, 81, 0
3, 10710, Note_on_c, 2, 81, 110
3, 10740, Note_on_c, 2, 81, 0
3, 10740, Note_on_c, 2, 62, 0
3, 10740, Note_on_c, 2, 82, 110
3, 10740, Note_on_c, 2, 60, 110
3, 10770, Note_on_c, 2, 82, 0
3, 10770, Note_on_c, 2, 84, 110
3, 10800, Note_on_c, 2, 84, 0
3, 10800, Note_on_c, 2, 60, 0
3, 10800, Note_on_c, 2, 86, 110
3, 10800, Note_on_c, 2, 58, 110
3, 10815, Note_on_c, 2, 84, 110
3, 10823, Note_on_c, 2, 86, 0
3, 10830, Note_on_c, 2, 82, 110
3, 10838, Note_on_c, 2, 84, 0
3, 10845, Note_on_c, 2, 81, 110
3, 10853, Note_on_c, 2, 82, 0
3, 10860, Note_on_c, 2, 58, 0
3, 10860, Note_on_c, 2, 82, 110
3, 10860, Note_on_c, 2, 57, 110
3, 10864, Note_on_c, 2, 81, 0
3, 10890, Note_on_c, 2, 82, 0
3, 10890, Note_on_c, 2, 86, 110
3, 10920, Note_on_c, 2, 86, 0
3, 10920, Note_on_c, 2, 77, 0
3, 10920, Note_on_c, 2, 57, 0
3, 10920, Note_on_c, 2, 79, 110
3, 10920, Note_on_c, 2, 58, 110
3, 10924, Note_on_c, 2, 79, 110
3, 10950, Note_on_c, 2, 79, 0
3, 10950, Note_on_c, 2, 89, 110
3, 10967, Note_on_c, 2, 58, 0
3, 10980, Note_on_c, 2, 89, 0
3, 10980, Note_on_c, 2, 88, 110
3, 10980, Note_on_c, 2, 55, 110
3, 11010, Note_on_c, 2, 88, 0
3, 11010, Note_on_c, 2, 86, 110
3, 11027, Note_on_c, 2, 55, 0
3, 11040, Note_on_c, 2, 86, 0
3, 11040, Note_on_c, 2, 85, 110
3, 11040, Note_on_c, 2, 57, 110
3, 11070, Note_on_c, 2, 82, 110
3, 11074, Note_on_c, 2, 79, 0
3, 11100, Note_on_c, 2, 82, 0
3, 11100, Note_on_c, 2, 81, 110
3, 11130, Note_on_c, 2, 81, 0
3, 11130, Note_on_c, 2, 79, 110
3, 11160, Note_on_c, 2, 79, 0
3, 11160, Note_on_c, 2, 77, 110
3, 11190, Note_on_c, 2, 85, 0
3, 11190, Note_on_c, 2, 81, 110
3, 11220, Note_on_c, 2, 81, 0
3, 11220, Note_on_c, 2, 86, 110
3, 11250, Note_on_c, 2, 77, 0
3, 11250, Note_on_c, 2, 77, 110
3, 11280, Note_on_c, 2, 77, 0
3, 11280, Note_on_c, 2, 76, 110
3, 11310, Note_on_c, 2, 57, 0
3, 11310, Note_on_c, 2, 64, 110
3, 11340, Note_on_c, 2, 64, 0
3, 11340, Note_on_c, 2, 86, 0
3, 11340, Note_on_c, 2, 86, 110
3, 11340, Note_on_c, 2, 65, 110
3, 11370, Note_on_c, 2, 65, 0
3, 11370, Note_on_c, 2, 67, 110
3, 11400, Note_on_c, 2, 67, 0
3, 11400, Note_on_c, 2, 86, 0
3, 11400, Note_on_c, 2, 84, 110
3, 11400, Note_on_c, 2, 69, 110
3, 11430, Note_on_c, 2, 69, 0
3, 11430, Note_on_c, 2, 72, 110
3, 11460, Note_on_c, 2, 72, 0
3, 11460, Note_on_c, 2, 84, 0
3, 11460, Note_on_c, 2, 76, 0
3, 11460, Note_on_c, 2, 82, 110
3, 11460, Note_on_c, 2, 79, 110
3, 11460, Note_on_c, 2, 64, 110
3, 11490, Note_on_c, 2, 64, 0
3, 11490, Note_on_c, 2, 67, 110
3, 11520, Note_on_c, 2, 67, 0
3, 11520, Note_on_c, 2, 82, 0
3, 11520, Note_on_c, 2, 81, 110
3, 11520, Note_on_c, 2, 66, 110
3, 11550, Note_on_c, 2, 66, 0
3, 11550, Note_on_c, 2, 79, 0
3, 11550, Note_on_c, 2, 79, 110
3, 11550, Note_on_c, 2, 69, 110
3, 11580, Note_on_c, 2, 69, 0
3, 11580, Note_on_c, 2, 79, 0
3, 11580, Note_on_c, 2, 78, 110
3, 11580, Note_on_c, 2, 62, 110
3, 11610, Note_on_c, 2, 81, 0
3, 11610, Note_on_c, 2, 81, 110
3, 11610, Note_on_c, 2, 72, 110
3, 11640, Note_on_c, 2, 62, 0
3, 11640, Note_on_c, 2, 78, 0
3, 11640, Note_on_c, 2, 74, 110
3, 11640, Note_on_c, 2, 67, 110
3, 11670, Note_on_c, 2, 81, 0
3, 11670, Note_on_c, 2, 72, 0
3, 11670, Note_on_c, 2, 81, 110
3, 11670, Note_on_c, 2, 72, 110
3, 11700, Note_on_c, 2, 72, 0
3, 11700, Note_on_c, 2, 81, 0
3, 11700, Note_on_c, 2, 79, 110
3, 11700, Note_on_c, 2, 70, 110
3, 11730, Note_on_c, 2, 70, 0
3, 11730, Note_on_c, 2, 79, 0
3, 11730, Note_on_c, 2, 78, 110
3, 11730, Note_on_c, 2, 69, 110
3, 11760, Note_on_c, 2, 69, 0
3, 11760, Note_on_c, 2, 78, 0
3, 11760, Note_on_c, 2, 79, 110
3, 11760, Note_on_c, 2, 70, 110
3, 11790, Note_on_c, 2, 79, 0
3, 11790, Note_on_c, 2, 86, 110
3, 11820, Note_on_c, 2, 67, 0
3, 11820, Note_on_c, 2, 74, 0
3, 11820, Note_on_c, 2, 88, 110
3, 11820, Note_on_c, 2, 62, 110
3, 11829, Note_on_c, 2, 86, 0
3, 11850, Note_on_c, 2, 90, 110
3, 11859, Note_on_c, 2, 88, 0
3, 11880, Note_on_c, 2, 62, 0
3, 11880, Note_on_c, 2, 91, 110
3, 11880, Note_on_c, 2, 63, 110
3, 11889, Note_on_c, 2, 90, 0
3, 11910, Note_on_c, 2, 94, 110
3, 11911, Note_on_c, 2, 91, 0
3, 11940, Note_on_c, 2, 63, 0
3, 11940, Note_on_c, 2, 86, 110
3, 11940, Note_on_c, 2, 67, 110
3, 11970, Note_on_c, 2, 86, 0
3, 11970, Note_on_c, 2, 89, 110
3, 12000, Note_on_c, 2, 89, 0
3, 12000, Note_on_c, 2, 67, 0
3, 12000, Note_on_c, 2, 70, 0
3, 12000, Note_on_c, 2, 87, 110
3, 12000, Note_on_c, 2, 72, 110
3, 12000, Note_on_c, 2, 60, 110
3, 12030, Note_on_c, 2, 94, 0
3, 12030, Note_on_c, 2, 94, 110
3, 12060, Note_on_c, 2, 94, 0
3, 12060, Note_on_c, 2, 92, 110
3, 12090, Note_on_c, 2, 92, 0
3, 12090, Note_on_c, 2, 91, 110
3, 12120, Note_on_c, 2, 91, 0
3, 12120, Note_on_c, 2, 92, 110
3, 12150, Note_on_c, 2, 92, 0
3, 12150, Note_on_c, 2, 96, 110
3, 12180, Note_on_c, 2, 96, 0
3, 12180, Note_on_c, 2, 90, 110
3, 12210, Note_on_c, 2, 90, 0
3, 12210, Note_on_c, 2, 91, 110
3, 12240, Note_on_c, 2, 91, 0
3, 12240, Note_on_c, 2, 60, 0
3, 12240, Note_on_c, 2, 90, 110
3, 12240, Note_on_c, 2, 62, 110
3, 12270, Note_on_c, 2, 87, 0
3, 12270, Note_on_c, 2, 87, 110
3, 12300, Note_on_c, 2, 87, 0
3, 12300, Note_on_c, 2, 86, 110
3, 12330, Note_on_c, 2, 72, 0
3, 12330, Note_on_c, 2, 72, 110
3, 12360, Note_on_c, 2, 72, 0
3, 12360, Note_on_c, 2, 71, 110
3, 12390, Note_on_c, 2, 86, 0
3, 12390, Note_on_c, 2, 86, 110
3, 12420, Note_on_c, 2, 71, 0
3, 12420, Note_on_c, 2, 90, 0
3, 12420, Note_on_c, 2, 91, 110
3, 12420, Note_on_c, 2, 70, 110
3, 12450, Note_on_c, 2, 86, 0
3, 12450, Note_on_c, 2, 85, 110
3, 12480, Note_on_c, 2, 85, 0
3, 12480, Note_on_c, 2, 70, 0
3, 12480, Note_on_c, 2, 86, 110
3, 12480, Note_on_c, 2, 69, 110
3, 12510, Note_on_c, 2, 91, 0
3, 12510, Note_on_c, 2, 91, 110
3, 12540, Note_on_c, 2, 91, 0
3, 12540, Note_on_c, 2, 69, 0
3, 12540, Note_on_c, 2, 90, 110
3, 12540, Note_on_c, 2, 67, 110
3, 12570, Note_on_c, 2, 90, 0
3, 12570, Note_on_c, 2, 88, 110
3, 12600, Note_on_c, 2, 88, 0
3, 12600, Note_on_c, 2, 67, 0
3, 12600, Note_on_c, 2, 62, 0
3, 12600, Note_on_c, 2, 90, 110
3, 12600, Note_on_c, 2, 69, 110
3, 12600, Note_on_c, 2, 62, 110
3, 12630, Note_on_c, 2, 90, 0
3, 12630, Note_on_c, 2, 91, 110
3, 12651, Note_on_c, 2, 69, 0
3, 12660, Note_on_c, 2, 91, 0
3, 12660, Note_on_c, 2, 93, 110
3, 12660, Note_on_c, 2, 74, 110
3, 12690, Note_on_c, 2, 86, 0
3, 12690, Note_on_c, 2, 84, 110
3, 12720, Note_on_c, 2, 84, 0
3, 12720, Note_on_c, 2, 62, 0
3, 12720, Note_on_c, 2, 82, 110
3, 12720, Note_on_c, 2, 67, 110
3, 12750, Note_on_c, 2, 93, 0
3, 12750, Note_on_c, 2, 86, 110
3, 12780, Note_on_c, 2, 86, 0
3, 12780, Note_on_c, 2, 74, 0
3, 12780, Note_on_c, 2, 82, 0
3, 12780, Note_on_c, 2, 91, 110
3, 12780, Note_on_c, 2, 84, 110
3, 12780, Note_on_c, 2, 75, 110
3, 12810, Note_on_c, 2, 91, 0
3, 12810, Note_on_c, 2, 90, 110
3, 12840, Note_on_c, 2, 90, 0
3, 12840, Note_on_c, 2, 75, 0
3, 12840, Note_on_c, 2, 91, 110
3, 12840, Note_on_c, 2, 74, 110
3, 12870, Note_on_c, 2, 84, 0
3, 12870, Note_on_c, 2, 82, 110
3, 12900, Note_on_c, 2, 82, 0
3, 12900, Note_on_c, 2, 74, 0
3, 12900, Note_on_c, 2, 87, 110
3, 12900, Note_on_c, 2, 72, 110
3, 12930, Note_on_c, 2, 91, 0
3, 12930, Note_on_c, 2, 93, 110
3, 12960, Note_on_c, 2, 93, 0
3, 12960, Note_on_c, 2, 72, 0
3, 12960, Note_on_c, 2, 87, 0
3, 12960, Note_on_c, 2, 94, 110
3, 12960, Note_on_c, 2, 86, 110
3, 12960, Note_on_c, 2, 70, 110
3, 12990, Note_on_c, 2, 70, 0
3, 12990, Note_on_c, 2, 72, 110
3, 13020, Note_on_c, 2, 72, 0
3, 13020, Note_on_c, 2, 74, 110
3, 13050, Note_on_c, 2, 86, 0
3, 13050, Note_on_c, 2, 67, 0
3, 13050, Note_on_c, 2, 86, 110
3, 13050, Note_on_c, 2, 65, 110
3, 13080, Note_on_c, 2, 65, 0
3, 13080, Note_on_c, 2, 86, 0
3, 13080, Note_on_c, 2, 91, 110
3, 13080, Note_on_c, 2, 64, 110
3, 13110, Note_on_c, 2, 94, 0
3, 13110, Note_on_c, 2, 74, 0
3, 13110, Note_on_c, 2, 93, 110
3, 13110, Note_on_c, 2, 73, 110
3, 13140, Note_on_c, 2, 73, 0
3, 13140, Note_on_c, 2, 93, 0
3, 13140, Note_on_c, 2, 94, 110
3, 13140, Note_on_c, 2, 74, 110
3, 13170, Note_on_c, 2, 91, 0
3, 13170, Note_on_c, 2, 64, 0
3, 13170, Note_on_c, 2, 91, 110
3, 13170, Note_on_c, 2, 62, 110
3, 13200, Note_on_c, 2, 62, 0
3, 13200, Note_on_c, 2, 74, 0
3, 13200, Note_on_c, 2, 94, 0
3, 13200, Note_on_c, 2, 93, 110
3, 13200, Note_on_c, 2, 61, 110
3, 13230, Note_on_c, 2, 91, 0
3, 13230, Note_on_c, 2, 91, 110
3, 13230, Note_on_c, 2, 69, 110
3, 13260, Note_on_c, 2, 69, 0
3, 13260, Note_on_c, 2, 91, 0
3, 13260, Note_on_c, 2, 61, 0
3, 13260, Note_on_c, 2, 89, 110
3, 13260, Note_on_c, 2, 71, 110
3, 13290, Note_on_c, 2, 71, 0
3, 13290, Note_on_c, 2, 89, 0
3, 13290, Note_on_c, 2, 88, 110
3, 13290, Note_on_c, 2, 73, 110
3, 13320, Note_on_c, 2, 73, 0
3, 13320, Note_on_c, 2, 88, 0
3, 13320, Note_on_c, 2, 89, 110
3, 13320, Note_on_c, 2, 74, 110
3, 13350, Note_on_c, 2, 74, 0
3, 13350, Note_on_c, 2, 69, 110
3, 13380, Note_on_c, 2, 69, 0
3, 13380, Note_on_c, 2, 62, 110
3, 13410, Note_on_c, 2, 62, 0
3, 13410, Note_on_c, 2, 93, 0
3, 13410, Note_on_c, 2, 92, 110
3, 13410, Note_on_c, 2, 65, 110
3, 13440, Note_on_c, 2, 65, 0
3, 13440, Note_on_c, 2, 92, 0
3, 13440, Note_on_c, 2, 91, 110
3, 13440, Note_on_c, 2, 59, 110
3, 13470, Note_on_c, 2, 89, 0
3, 13470, Note_on_c, 2, 89, 110
3, 13470, Note_on_c, 2, 67, 110
3, 13500, Note_on_c, 2, 67, 0
3, 13500, Note_on_c, 2, 89, 0
3, 13500, Note_on_c, 2, 59, 0
3, 13500, Note_on_c, 2, 88, 110
3, 13500, Note_on_c, 2, 69, 110
3, 13530, Note_on_c, 2, 69, 0
3, 13530, Note_on_c, 2, 88, 0
3, 13530, Note_on_c, 2, 86, 110
3, 13530, Note_on_c, 2, 71, 110
3, 13560, Note_on_c, 2, 71, 0
3, 13560, Note_on_c, 2, 86, 0
3, 13560, Note_on_c, 2, 88, 110
3, 13560, Note_on_c, 2, 72, 110
3, 13590, Note_on_c, 2, 72, 0
3, 13590, Note_on_c, 2, 67, 110
3, 13620, Note_on_c, 2, 67, 0
3, 13620, Note_on_c, 2, 60, 110
3, 13650, Note_on_c, 2, 60, 0
3, 13650, Note_on_c, 2, 91, 0
3, 13650, Note_on_c, 2, 91, 110
3, 13650, Note_on_c, 2, 64, 110
3, 13680, Note_on_c, 2, 64, 0
3, 13680, Note_on_c, 2, 91, 0
3, 13680, Note_on_c, 2, 90, 110
3, 13680, Note_on_c, 2, 57, 110
3, 13710, Note_on_c, 2, 88, 0
3, 13710, Note_on_c, 2, 87, 110
3, 13740, Note_on_c, 2, 87, 0
3, 13740, Note_on_c, 2, 86, 110
3, 13740, Note_on_c, 2, 69, 110
3, 13770, Note_on_c, 2, 86, 0
3, 13770, Note_on_c, 2, 84, 110
3, 13800, Note_on_c, 2, 84, 0
3, 13800, Note_on_c, 2, 57, 0
3, 13800, Note_on_c, 2, 86, 110
3, 13800, Note_on_c, 2, 59, 110
3, 13830, Note_on_c, 2, 90, 0
3, 13830, Note_on_c, 2, 69, 0
3, 13830, Note_on_c, 2, 88, 110
3, 13830, Note_on_c, 2, 67, 110
3, 13860, Note_on_c, 2, 67, 0
3, 13860, Note_on_c, 2, 88, 0
3, 13860, Note_on_c, 2, 89, 110
3, 13860, Note_on_c, 2, 79, 110
3, 13860, Note_on_c, 2, 62, 110
3, 13890, Note_on_c, 2, 62, 0
3, 13890, Note_on_c, 2, 65, 110
3, 13920, Note_on_c, 2, 65, 0
3, 13920, Note_on_c, 2, 59, 0
3, 13920, Note_on_c, 2, 64, 110
3, 13920, Note_on_c, 2, 60, 110
3, 13950, Note_on_c, 2, 64, 0
3, 13950, Note_on_c, 2, 65, 110
3, 13980, Note_on_c, 2, 65, 0
3, 13980, Note_on_c, 2, 86, 0
3, 13980, Note_on_c, 2, 89, 0
3, 13980, Note_on_c, 2, 88, 110
3, 13980, Note_on_c, 2, 84, 110
3, 13980, Note_on_c, 2, 67, 110
3, 14010, Note_on_c, 2, 84, 0
3, 14010, Note_on_c, 2, 88, 0
3, 14010, Note_on_c, 2, 86, 110
3, 14010, Note_on_c, 2, 83, 110
3, 14040, Note_on_c, 2, 83, 0
3, 14040, Note_on_c, 2, 86, 0
3, 14040, Note_on_c, 2, 88, 110
3, 14040, Note_on_c, 2, 84, 110
3, 14070, Note_on_c, 2, 67, 0
3, 14070, Note_on_c, 2, 60, 0
3, 14070, Note_on_c, 2, 64, 110
3, 14100, Note_on_c, 2, 64, 0
3, 14100, Note_on_c, 2, 79, 0
3, 14100, Note_on_c, 2, 82, 110
3, 14100, Note_on_c, 2, 57, 110
3, 14130, Note_on_c, 2, 57, 0
3, 14130, Note_on_c, 2, 60, 110
3, 14160, Note_on_c, 2, 60, 0
3, 14160, Note_on_c, 2, 82, 0
3, 14160, Note_on_c, 2, 84, 0
3, 14160, Note_on_c, 2, 81, 110
3, 14160, Note_on_c, 2, 53, 110
3, 14190, Note_on_c, 2, 53, 0
3, 14190, Note_on_c, 2, 88, 0
3, 14190, Note_on_c, 2, 88, 110
3, 14190, Note_on_c, 2, 60, 110
3, 14220, Note_on_c, 2, 60, 0
3, 14220, Note_on_c, 2, 88, 0
3, 14220, Note_on_c, 2, 86, 110
3, 14220, Note_on_c, 2, 62, 110
3, 14250, Note_on_c, 2, 62, 0
3, 14250, Note_on_c, 2, 86, 0
3, 14250, Note_on_c, 2, 84, 110
3, 14250, Note_on_c, 2, 64, 110
3, 14280, Note_on_c, 2, 64, 0
3, 14280, Note_on_c, 2, 84, 0
3, 14280, Note_on_c, 2, 86, 110
3, 14280, Note_on_c, 2, 65, 110
3, 14310, Note_on_c, 2, 86, 0
3, 14310, Note_on_c, 2, 89, 110
3, 14310, Note_on_c, 2, 69, 110
3, 14340, Note_on_c, 2, 69, 0
3, 14340, Note_on_c, 2, 89, 0
3, 14340, Note_on_c, 2, 93, 110
3, 14340, Note_on_c, 2, 74, 110
3, 14370, Note_on_c, 2, 93, 0
3, 14370, Note_on_c, 2, 81, 0
3, 14370, Note_on_c, 2, 84, 110
3, 14370, Note_on_c, 2, 81, 110
3, 14400, Note_on_c, 2, 81, 0
3, 14400, Note_on_c, 2, 84, 0
3, 14400, Note_on_c, 2, 74, 0
3, 14400, Note_on_c, 2, 83, 110
3, 14400, Note_on_c, 2, 79, 110
3, 14400, Note_on_c, 2, 74, 110
3, 14430, Note_on_c, 2, 65, 0
3, 14430, Note_on_c, 2, 69, 110
3, 14460, Note_on_c, 2, 69, 0
3, 14460, Note_on_c, 2, 67, 110
3, 14490, Note_on_c, 2, 67, 0
3, 14490, Note_on_c, 2, 65, 110
3, 14520, Note_on_c, 2, 65, 0
3, 14520, Note_on_c, 2, 74, 0
3, 14520, Note_on_c, 2, 79, 0
3, 14520, Note_on_c, 2, 83, 0
3, 14520, Note_on_c, 2, 84, 110
3, 14520, Note_on_c, 2, 79, 110
3, 14520, Note_on_c, 2, 76, 110
3, 14520, Note_on_c, 2, 64, 110
3, 14550, Note_on_c, 2, 64, 0
3, 14550, Note_on_c, 2, 67, 110
3, 14580, Note_on_c, 2, 67, 0
3, 14580, Note_on_c, 2, 60, 110
3, 14610, Note_on_c, 2, 60, 0
3, 14610, Note_on_c, 2, 64, 110
3, 14640, Note_on_c, 2, 64, 0
3, 14640, Note_on_c, 2, 55, 110
3, 14670, Note_on_c, 2, 76, 0
3, 14670, Note_on_c, 2, 79, 0
3, 14670, Note_on_c, 2, 79, 110
3, 14670, Note_on_c, 2, 64, 110
3, 14700, Note_on_c, 2, 64, 0
3, 14700, Note_on_c, 2, 79, 0
3, 14700, Note_on_c, 2, 77, 110
3, 14700, Note_on_c, 2, 62, 110
3, 14730, Note_on_c, 2, 62, 0
3, 14730, Note_on_c, 2, 77, 0
3, 14730, Note_on_c, 2, 76, 110
3, 14730, Note_on_c, 2, 60, 110
3, 14760, Note_on_c, 2, 60, 0
3, 14760, Note_on_c, 2, 76, 0
3, 14760, Note_on_c, 2, 74, 110
3, 14760, Note_on_c, 2, 67, 110
3, 14790, Note_on_c, 2, 74, 0
3, 14790, Note_on_c, 2, 76, 110
3, 14820, Note_on_c, 2, 76, 0
3, 14820, Note_on_c, 2, 77, 110
3, 14850, Note_on_c, 2, 84, 0
3, 14850, Note_on_c, 2, 83, 110
3, 14880, Note_on_c, 2, 83, 0
3, 14880, Note_on_c, 2, 55, 0
3, 14880, Note_on_c, 2, 84, 110
3, 14880, Note_on_c, 2, 60, 110
3, 14910, Note_on_c, 2, 77, 0
3, 14910, Note_on_c, 2, 77, 110
3, 14940, Note_on_c, 2, 77, 0
3, 14940, Note_on_c, 2, 76, 110
3, 14970, Note_on_c, 2, 76, 0
3, 14970, Note_on_c, 2, 74, 110
3, 15000, Note_on_c, 2, 74, 0
3, 15000, Note_on_c, 2, 76, 110
3, 15030, Note_on_c, 2, 76, 0
3, 15030, Note_on_c, 2, 79, 110
3, 15060, Note_on_c, 2, 79, 0
3, 15060, Note_on_c, 2, 72, 110
3, 15090, Note_on_c, 2, 72, 0
3, 15090, Note_on_c, 2, 76, 110
3, 15120, Note_on_c, 2, 76, 0
3, 15120, Note_on_c, 2, 84, 0
3, 15120, Note_on_c, 2, 69, 110
3, 15150, Note_on_c, 2, 84, 110
3, 15180, Note_on_c, 2, 84, 0
3, 15180, Note_on_c, 2, 67, 0
3, 15180, Note_on_c, 2, 86, 110
3, 15180, Note_on_c, 2, 65, 110
3, 15210, Note_on_c, 2, 65, 0
3, 15210, Note_on_c, 2, 86, 0
3, 15210, Note_on_c, 2, 88, 110
3, 15210, Note_on_c, 2, 64, 110
3, 15240, Note_on_c, 2, 64, 0
3, 15240, Note_on_c, 2, 88, 0
3, 15240, Note_on_c, 2, 89, 110
3, 15240, Note_on_c, 2, 62, 110
3, 15270, Note_on_c, 2, 62, 0
3, 15270, Note_on_c, 2, 89, 0
3, 15270, Note_on_c, 2, 93, 110
3, 15270, Note_on_c, 2, 64, 110
3, 15300, Note_on_c, 2, 64, 0
3, 15300, Note_on_c, 2, 93, 0
3, 15300, Note_on_c, 2, 86, 110
3, 15300, Note_on_c, 2, 65, 110
3, 15330, Note_on_c, 2, 86, 0
3, 15330, Note_on_c, 2, 89, 110
3, 15360, Note_on_c, 2, 89, 0
3, 15360, Note_on_c, 2, 69, 0
3, 15360, Note_on_c, 2, 82, 110
3, 15360, Note_on_c, 2, 67, 110
3, 15390, Note_on_c, 2, 81, 110
3, 15420, Note_on_c, 2, 81, 0
3, 15420, Note_on_c, 2, 65, 0
3, 15420, Note_on_c, 2, 79, 110
3, 15420, Note_on_c, 2, 64, 110
3, 15450, Note_on_c, 2, 64, 0
3, 15450, Note_on_c, 2, 79, 0
3, 15450, Note_on_c, 2, 77, 110
3, 15450, Note_on_c, 2, 62, 110
3, 15480, Note_on_c, 2, 62, 0
3, 15480, Note_on_c, 2, 77, 0
3, 15480, Note_on_c, 2, 79, 110
3, 15480, Note_on_c, 2, 64, 110
3, 15510, Note_on_c, 2, 67, 0
3, 15510, Note_on_c, 2, 82, 0
3, 15510, Note_on_c, 2, 82, 110
3, 15510, Note_on_c, 2, 65, 110
3, 15540, Note_on_c, 2, 65, 0
3, 15540, Note_on_c, 2, 79, 0
3, 15540, Note_on_c, 2, 76, 110
3, 15540, Note_on_c, 2, 67, 110
3, 15570, Note_on_c, 2, 82, 0
3, 15570, Note_on_c, 2, 79, 110
3, 15600, Note_on_c, 2, 76, 0
3, 15600, Note_on_c, 2, 67, 0
3, 15600, Note_on_c, 2, 64, 0
3, 15600, Note_on_c, 2, 72, 110
3, 15600, Note_on_c, 2, 69, 110
3, 15600, Note_on_c, 2, 65, 110
3, 15630, Note_on_c, 2, 79, 0
3, 15630, Note_on_c, 2, 76, 110
3, 15660, Note_on_c, 2, 76, 0
3, 15660, Note_on_c, 2, 65, 0
3, 15660, Note_on_c, 2, 69, 0
3, 15660, Note_on_c, 2, 77, 110
3, 15660, Note_on_c, 2, 67, 110
3, 15660, Note_on_c, 2, 64, 110
3, 15690, Note_on_c, 2, 77, 0
3, 15690, Note_on_c, 2, 79, 110
3, 15720, Note_on_c, 2, 79, 0
3, 15720, Note_on_c, 2, 64, 0
3, 15720, Note_on_c, 2, 67, 0
3, 15720, Note_on_c, 2, 72, 0
3, 15720, Note_on_c, 2, 81, 110
3, 15720, Note_on_c, 2, 65, 110
3, 15720, Note_on_c, 2, 62, 110
3, 15750, Note_on_c, 2, 77, 110
3, 15780, Note_on_c, 2, 77, 0
3, 15780, Note_on_c, 2, 68, 110
3, 15780, Note_on_c, 2, 74, 110
3, 15810, Note_on_c, 2, 81, 0
3, 15810, Note_on_c, 2, 83, 110
3, 15840, Note_on_c, 2, 83, 0
3, 15840, Note_on_c, 2, 74, 0
3, 15840, Note_on_c, 2, 62, 0
3, 15840, Note_on_c, 2, 60, 0
3, 15840, Note_on_c, 2, 65, 0
3, 15840, Note_on_c, 2, 68, 0
3, 15840, Note_on_c, 2, 60, 110
3, 15844, Note_on_c, 2, 64, 110
3, 15848, Note_on_c, 2, 67, 110
3, 15852, Note_on_c, 2, 72, 110
3, 15856, Note_on_c, 2, 76, 110
3, 15860, Note_on_c, 2, 79, 110
3, 15864, Note_on_c, 2, 84, 110
3, 16320, Note_on_c, 2, 60, 0
3, 16323, Note_on_c, 2, 79, 0
3, 16323, Note_on_c, 2, 67, 0
3, 16323, Note_on_c, 2, 72, 0
3, 16323, Note_on_c, 2, 64, 0
3, 16323, Note_on_c, 2, 84, 0
3, 16323, Note_on_c, 2, 76, 0
3, 16323, End_track
4, 0, Start_track
4, 0, MIDI_port, 0
4, 0, Title_t, "Yo Tomita"
4, 0, End_track
5, 0, Start_track
5, 0, MIDI_port, 0
5, 0, End_track
0, 0, End_of_file
