0, 0, Header, 1, 2, 240
1, 0, Start_track
1, 0, Time_signature, 12, 3, 12, 8
1, 0, Key_signature, 2, "major"
1, 0, Tempo, 422535
1, 0, Marker_t, "(c) Yo Tomita, 1997"
1, 160104, Tempo, 576923
1, 160344, Tempo, 618557
1, 160632, Tempo, 674157
1, 160848, Tempo, 722892
1, 161064, Tempo, 800000
1, 161280, Tempo, 800000
1, 161280, End_track
2, 0, Start_track
2, 0, MIDI_port, 0
2, 0, Title_t, "BWV 874/1"
2, 0, Program_c, 0, 6
2, 0, Note_on_c, 0, 38, 64
2, 0, Note_on_c, 0, 50, 64
2, 120, Note_on_c, 0, 62, 64
2, 180, Note_on_c, 0, 62, 0
2, 180, Note_on_c, 0, 64, 64
2, 240, Note_on_c, 0, 64, 0
2, 240, Note_on_c, 0, 50, 0
2, 240, Note_on_c, 0, 38, 0
2, 240, Note_on_c, 0, 66, 64
2, 300, Note_on_c, 0, 66, 0
2, 300, Note_on_c, 0, 67, 64
2, 360, Note_on_c, 0, 67, 0
2, 360, Note_on_c, 0, 69, 64
2, 480, Note_on_c, 0, 69, 0
2, 480, Note_on_c, 0, 66, 64
2, 600, Note_on_c, 0, 66, 0
2, 600, Note_on_c, 0, 69, 64
2, 720, Note_on_c, 0, 69, 0
2, 720, Note_on_c, 0, 74, 64
2, 840, Note_on_c, 0, 74, 0
2, 840, Note_on_c, 0, 69, 64
2, 960, Note_on_c, 0, 69, 0
2, 960, Note_on_c, 0, 74, 64
2, 1080, Note_on_c, 0, 74, 0
2, 1080, Note_on_c, 0, 78, 64
2, 1200, Note_on_c, 0, 78, 0
2, 1200, Note_on_c, 0, 74, 64
2, 1320, Note_on_c, 0, 74, 0
2, 1320, Note_on_c, 0, 78, 64
2, 1440, Note_on_c, 0, 78, 0
2, 1440, Note_on_c, 0, 81, 64
2, 1800, Note_on_c, 0, 81, 0
2, 1800, Note_on_c, 0, 78, 64
2, 1800, Note_on_c, 0, 81, 64
2, 1800, Note_on_c, 0, 62, 64
2, 2160, Note_on_c, 0, 62, 0
2, 2160, Note_on_c, 0, 81, 0
2, 2160, Note_on_c, 0, 78, 0
2, 2160, Note_on_c, 0, 78, 64
2, 2160, Note_on_c, 0, 81, 64
2, 2160, Note_on_c, 0, 69, 64
2, 2340, Note_on_c, 0, 81, 0
2, 2340, Note_on_c, 0, 78, 0
2, 2340, Note_on_c, 0, 76, 64
2, 2340, Note_on_c, 0, 79, 64
2, 2520, Note_on_c, 0, 79, 0
2, 2520, Note_on_c, 0, 76, 0
2, 2520, Note_on_c, 0, 69, 0
2, 2520, Note_on_c, 0, 57, 64
2, 2520, Note_on_c, 0, 76, 64
2, 2520, Note_on_c, 0, 79, 64
2, 2700, Note_on_c, 0, 79, 0
2, 2700, Note_on_c, 0, 76, 0
2, 2700, Note_on_c, 0, 78, 64
2, 2700, Note_on_c, 0, 74, 64
2, 2880, Note_on_c, 0, 74, 0
2, 2880, Note_on_c, 0, 78, 0
2, 2880, Note_on_c, 0, 57, 0
2, 2880, Note_on_c, 0, 62, 64
2, 2880, Note_on_c, 0, 74, 64
2, 2880, Note_on_c, 0, 78, 64
2, 3000, Note_on_c, 0, 78, 0
2, 3000, Note_on_c, 0, 74, 0
2, 3000, Note_on_c, 0, 50, 64
2, 3060, Note_on_c, 0, 50, 0
2, 3060, Note_on_c, 0, 52, 64
2, 3120, Note_on_c, 0, 52, 0
2, 3120, Note_on_c, 0, 62, 0
2, 3120, Note_on_c, 0, 54, 64
2, 3180, Note_on_c, 0, 54, 0
2, 3180, Note_on_c, 0, 55, 64
2, 3240, Note_on_c, 0, 55, 0
2, 3240, Note_on_c, 0, 57, 64
2, 3360, Note_on_c, 0, 57, 0
2, 3360, Note_on_c, 0, 54, 64
2, 3480, Note_on_c, 0, 54, 0
2, 3480, Note_on_c, 0, 57, 64
2, 3600, Note_on_c, 0, 57, 0
2, 3600, Note_on_c, 0, 62, 64
2, 3720, Note_on_c, 0, 62, 0
2, 3720, Note_on_c, 0, 57, 64
2, 3840, Note_on_c, 0, 57, 0
2, 3840, Note_on_c, 0, 62, 64
2, 3960, Note_on_c, 0, 62, 0
2, 3960, Note_on_c, 0, 66, 64
2, 4080, Note_on_c, 0, 66, 0
2, 4080, Note_on_c, 0, 62, 64
2, 4200, Note_on_c, 0, 62, 0
2, 4200, Note_on_c, 0, 66, 64
2, 4320, Note_on_c, 0, 66, 0
2, 4320, Note_on_c, 0, 69, 64
2, 4680, Note_on_c, 0, 69, 0
2, 4680, Note_on_c, 0, 69, 64
2, 4680, Note_on_c, 0, 78, 64
2, 4680, Note_on_c, 0, 50, 64
2, 5040, Note_on_c, 0, 50, 0
2, 5040, Note_on_c, 0, 78, 0
2, 5040, Note_on_c, 0, 69, 0
2, 5040, Note_on_c, 0, 69, 64
2, 5040, Note_on_c, 0, 78, 64
2, 5040, Note_on_c, 0, 57, 64
2, 5220, Note_on_c, 0, 78, 0
2, 5220, Note_on_c, 0, 69, 0
2, 5220, Note_on_c, 0, 67, 64
2, 5220, Note_on_c, 0, 76, 64
2, 5400, Note_on_c, 0, 76, 0
2, 5400, Note_on_c, 0, 67, 0
2, 5400, Note_on_c, 0, 57, 0
2, 5400, Note_on_c, 0, 45, 64
2, 5400, Note_on_c, 0, 67, 64
2, 5400, Note_on_c, 0, 76, 64
2, 5580, Note_on_c, 0, 76, 0
2, 5580, Note_on_c, 0, 67, 0
2, 5580, Note_on_c, 0, 74, 64
2, 5580, Note_on_c, 0, 66, 64
2, 5760, Note_on_c, 0, 66, 0
2, 5760, Note_on_c, 0, 74, 0
2, 5760, Note_on_c, 0, 45, 0
2, 5760, Note_on_c, 0, 66, 64
2, 5760, Note_on_c, 0, 74, 64
2, 5760, Note_on_c, 0, 50, 64
2, 5880, Note_on_c, 0, 74, 0
2, 5880, Note_on_c, 0, 66, 0
2, 5880, Note_on_c, 0, 66, 64
2, 5940, Note_on_c, 0, 66, 0
2, 5940, Note_on_c, 0, 64, 64
2, 6000, Note_on_c, 0, 64, 0
2, 6000, Note_on_c, 0, 50, 0
2, 6000, Note_on_c, 0, 62, 64
2, 6000, Note_on_c, 0, 38, 64
2, 6060, Note_on_c, 0, 62, 0
2, 6060, Note_on_c, 0, 61, 64
2, 6120, Note_on_c, 0, 61, 0
2, 6120, Note_on_c, 0, 38, 0
2, 6120, Note_on_c, 0, 59, 64
2, 6120, Note_on_c, 0, 50, 64
2, 6240, Note_on_c, 0, 59, 0
2, 6240, Note_on_c, 0, 62, 64
2, 6360, Note_on_c, 0, 62, 0
2, 6360, Note_on_c, 0, 50, 0
2, 6360, Note_on_c, 0, 59, 64
2, 6360, Note_on_c, 0, 50, 64
2, 6480, Note_on_c, 0, 50, 0
2, 6480, Note_on_c, 0, 59, 0
2, 6480, Note_on_c, 0, 50, 64
2, 6480, Note_on_c, 0, 56, 64
2, 6600, Note_on_c, 0, 56, 0
2, 6600, Note_on_c, 0, 64, 64
2, 6660, Note_on_c, 0, 64, 0
2, 6660, Note_on_c, 0, 66, 64
2, 6720, Note_on_c, 0, 66, 0
2, 6720, Note_on_c, 0, 68, 64
2, 6780, Note_on_c, 0, 68, 0
2, 6780, Note_on_c, 0, 69, 64
2, 6840, Note_on_c, 0, 69, 0
2, 6840, Note_on_c, 0, 50, 0
2, 6840, Note_on_c, 0, 71, 64
2, 6960, Note_on_c, 0, 71, 0
2, 6960, Note_on_c, 0, 68, 64
2, 6960, Note_on_c, 0, 52, 64
2, 7020, Note_on_c, 0, 52, 0
2, 7020, Note_on_c, 0, 50, 64
2, 7080, Note_on_c, 0, 50, 0
2, 7080, Note_on_c, 0, 68, 0
2, 7080, Note_on_c, 0, 71, 64
2, 7080, Note_on_c, 0, 49, 64
2, 7140, Note_on_c, 0, 49, 0
2, 7140, Note_on_c, 0, 47, 64
2, 7200, Note_on_c, 0, 47, 0
2, 7200, Note_on_c, 0, 71, 0
2, 7200, Note_on_c, 0, 76, 64
2, 7200, Note_on_c, 0, 49, 64
2, 7320, Note_on_c, 0, 76, 0
2, 7320, Note_on_c, 0, 64, 64
2, 7380, Note_on_c, 0, 64, 0
2, 7380, Note_on_c, 0, 62, 64
2, 7440, Note_on_c, 0, 62, 0
2, 7440, Note_on_c, 0, 49, 0
2, 7440, Note_on_c, 0, 61, 64
2, 7440, Note_on_c, 0, 37, 64
2, 7500, Note_on_c, 0, 61, 0
2, 7500, Note_on_c, 0, 59, 64
2, 7560, Note_on_c, 0, 59, 0
2, 7560, Note_on_c, 0, 37, 0
2, 7560, Note_on_c, 0, 57, 64
2, 7560, Note_on_c, 0, 49, 64
2, 7680, Note_on_c, 0, 57, 0
2, 7680, Note_on_c, 0, 61, 64
2, 7800, Note_on_c, 0, 61, 0
2, 7800, Note_on_c, 0, 49, 0
2, 7800, Note_on_c, 0, 57, 64
2, 7800, Note_on_c, 0, 49, 64
2, 7920, Note_on_c, 0, 49, 0
2, 7920, Note_on_c, 0, 57, 0
2, 7920, Note_on_c, 0, 49, 64
2, 7920, Note_on_c, 0, 54, 64
2, 8040, Note_on_c, 0, 54, 0
2, 8040, Note_on_c, 0, 62, 64
2, 8100, Note_on_c, 0, 62, 0
2, 8100, Note_on_c, 0, 64, 64
2, 8160, Note_on_c, 0, 64, 0
2, 8160, Note_on_c, 0, 66, 64
2, 8220, Note_on_c, 0, 66, 0
2, 8220, Note_on_c, 0, 68, 64
2, 8280, Note_on_c, 0, 68, 0
2, 8280, Note_on_c, 0, 49, 0
2, 8280, Note_on_c, 0, 69, 64
2, 8400, Note_on_c, 0, 69, 0
2, 8400, Note_on_c, 0, 66, 64
2, 8400, Note_on_c, 0, 50, 64
2, 8460, Note_on_c, 0, 50, 0
2, 8460, Note_on_c, 0, 49, 64
2, 8520, Note_on_c, 0, 49, 0
2, 8520, Note_on_c, 0, 66, 0
2, 8520, Note_on_c, 0, 69, 64
2, 8520, Note_on_c, 0, 47, 64
2, 8580, Note_on_c, 0, 47, 0
2, 8580, Note_on_c, 0, 45, 64
2, 8640, Note_on_c, 0, 45, 0
2, 8640, Note_on_c, 0, 69, 0
2, 8640, Note_on_c, 0, 74, 64
2, 8640, Note_on_c, 0, 47, 64
2, 8760, Note_on_c, 0, 47, 0
2, 8760, Note_on_c, 0, 54, 64
2, 8820, Note_on_c, 0, 54, 0
2, 8820, Note_on_c, 0, 52, 64
2, 8880, Note_on_c, 0, 52, 0
2, 8880, Note_on_c, 0, 74, 0
2, 8880, Note_on_c, 0, 66, 64
2, 8880, Note_on_c, 0, 50, 64
2, 8940, Note_on_c, 0, 50, 0
2, 8940, Note_on_c, 0, 49, 64
2, 9000, Note_on_c, 0, 49, 0
2, 9000, Note_on_c, 0, 66, 0
2, 9000, Note_on_c, 0, 66, 64
2, 9000, Note_on_c, 0, 74, 64
2, 9000, Note_on_c, 0, 47, 64
2, 9120, Note_on_c, 0, 47, 0
2, 9120, Note_on_c, 0, 50, 64
2, 9240, Note_on_c, 0, 50, 0
2, 9240, Note_on_c, 0, 74, 0
2, 9240, Note_on_c, 0, 66, 0
2, 9240, Note_on_c, 0, 66, 64
2, 9240, Note_on_c, 0, 74, 64
2, 9240, Note_on_c, 0, 47, 64
2, 9360, Note_on_c, 0, 47, 0
2, 9360, Note_on_c, 0, 74, 0
2, 9360, Note_on_c, 0, 66, 0
2, 9360, Note_on_c, 0, 64, 64
2, 9360, Note_on_c, 0, 74, 64
2, 9360, Note_on_c, 0, 44, 64
2, 9480, Note_on_c, 0, 44, 0
2, 9480, Note_on_c, 0, 47, 64
2, 9600, Note_on_c, 0, 47, 0
2, 9600, Note_on_c, 0, 44, 64
2, 9720, Note_on_c, 0, 44, 0
2, 9720, Note_on_c, 0, 74, 0
2, 9720, Note_on_c, 0, 64, 0
2, 9720, Note_on_c, 0, 40, 64
2, 9840, Note_on_c, 0, 40, 0
2, 9840, Note_on_c, 0, 76, 64
2, 9840, Note_on_c, 0, 44, 64
2, 9900, Note_on_c, 0, 76, 0
2, 9900, Note_on_c, 0, 74, 64
2, 9960, Note_on_c, 0, 74, 0
2, 9960, Note_on_c, 0, 44, 0
2, 9960, Note_on_c, 0, 40, 64
2, 9960, Note_on_c, 0, 73, 64
2, 10020, Note_on_c, 0, 73, 0
2, 10020, Note_on_c, 0, 71, 64
2, 10080, Note_on_c, 0, 71, 0
2, 10080, Note_on_c, 0, 40, 0
2, 10080, Note_on_c, 0, 73, 64
2, 10080, Note_on_c, 0, 45, 64
2, 10200, Note_on_c, 0, 45, 0
2, 10200, Note_on_c, 0, 73, 0
2, 10200, Note_on_c, 0, 69, 64
2, 10200, Note_on_c, 0, 49, 64
2, 10260, Note_on_c, 0, 69, 0
2, 10260, Note_on_c, 0, 71, 64
2, 10320, Note_on_c, 0, 71, 0
2, 10320, Note_on_c, 0, 49, 0
2, 10320, Note_on_c, 0, 73, 64
2, 10320, Note_on_c, 0, 45, 64
2, 10380, Note_on_c, 0, 73, 0
2, 10380, Note_on_c, 0, 74, 64
2, 10440, Note_on_c, 0, 74, 0
2, 10440, Note_on_c, 0, 45, 0
2, 10440, Note_on_c, 0, 76, 64
2, 10440, Note_on_c, 0, 42, 64
2, 10560, Note_on_c, 0, 42, 0
2, 10560, Note_on_c, 0, 76, 0
2, 10560, Note_on_c, 0, 74, 64
2, 10560, Note_on_c, 0, 45, 64
2, 10620, Note_on_c, 0, 74, 0
2, 10620, Note_on_c, 0, 73, 64
2, 10680, Note_on_c, 0, 73, 0
2, 10680, Note_on_c, 0, 45, 0
2, 10680, Note_on_c, 0, 71, 64
2, 10680, Note_on_c, 0, 42, 64
2, 10740, Note_on_c, 0, 71, 0
2, 10740, Note_on_c, 0, 69, 64
2, 10800, Note_on_c, 0, 69, 0
2, 10800, Note_on_c, 0, 42, 0
2, 10800, Note_on_c, 0, 74, 64
2, 10800, Note_on_c, 0, 47, 64
2, 10920, Note_on_c, 0, 47, 0
2, 10920, Note_on_c, 0, 74, 0
2, 10920, Note_on_c, 0, 71, 64
2, 10920, Note_on_c, 0, 50, 64
2, 10980, Note_on_c, 0, 71, 0
2, 10980, Note_on_c, 0, 73, 64
2, 11040, Note_on_c, 0, 73, 0
2, 11040, Note_on_c, 0, 50, 0
2, 11040, Note_on_c, 0, 74, 64
2, 11040, Note_on_c, 0, 47, 64
2, 11100, Note_on_c, 0, 74, 0
2, 11100, Note_on_c, 0, 76, 64
2, 11160, Note_on_c, 0, 76, 0
2, 11160, Note_on_c, 0, 47, 0
2, 11160, Note_on_c, 0, 78, 64
2, 11160, Note_on_c, 0, 44, 64
2, 11280, Note_on_c, 0, 44, 0
2, 11280, Note_on_c, 0, 78, 0
2, 11280, Note_on_c, 0, 76, 64
2, 11280, Note_on_c, 0, 47, 64
2, 11340, Note_on_c, 0, 76, 0
2, 11340, Note_on_c, 0, 74, 64
2, 11400, Note_on_c, 0, 74, 0
2, 11400, Note_on_c, 0, 47, 0
2, 11400, Note_on_c, 0, 44, 64
2, 11400, Note_on_c, 0, 73, 64
2, 11460, Note_on_c, 0, 73, 0
2, 11460, Note_on_c, 0, 71, 64
2, 11520, Note_on_c, 0, 71, 0
2, 11520, Note_on_c, 0, 44, 0
2, 11520, Note_on_c, 0, 76, 64
2, 11520, Note_on_c, 0, 49, 64
2, 11640, Note_on_c, 0, 49, 0
2, 11640, Note_on_c, 0, 57, 64
2, 11700, Note_on_c, 0, 57, 0
2, 11700, Note_on_c, 0, 59, 64
2, 11760, Note_on_c, 0, 59, 0
2, 11760, Note_on_c, 0, 61, 64
2, 11820, Note_on_c, 0, 61, 0
2, 11820, Note_on_c, 0, 62, 64
2, 11880, Note_on_c, 0, 62, 0
2, 11880, Note_on_c, 0, 64, 64
2, 12000, Note_on_c, 0, 64, 0
2, 12000, Note_on_c, 0, 62, 64
2, 12060, Note_on_c, 0, 62, 0
2, 12060, Note_on_c, 0, 61, 64
2, 12120, Note_on_c, 0, 61, 0
2, 12120, Note_on_c, 0, 59, 64
2, 12180, Note_on_c, 0, 59, 0
2, 12180, Note_on_c, 0, 57, 64
2, 12240, Note_on_c, 0, 57, 0
2, 12240, Note_on_c, 0, 66, 64
2, 12240, Note_on_c, 0, 50, 64
2, 12360, Note_on_c, 0, 50, 0
2, 12360, Note_on_c, 0, 66, 0
2, 12360, Note_on_c, 0, 59, 64
2, 12420, Note_on_c, 0, 59, 0
2, 12420, Note_on_c, 0, 61, 64
2, 12480, Note_on_c, 0, 61, 0
2, 12480, Note_on_c, 0, 62, 64
2, 12540, Note_on_c, 0, 62, 0
2, 12540, Note_on_c, 0, 64, 64
2, 12600, Note_on_c, 0, 64, 0
2, 12600, Note_on_c, 0, 76, 0
2, 12600, Note_on_c, 0, 74, 64
2, 12600, Note_on_c, 0, 66, 64
2, 12720, Note_on_c, 0, 66, 0
2, 12720, Note_on_c, 0, 64, 64
2, 12780, Note_on_c, 0, 64, 0
2, 12780, Note_on_c, 0, 62, 64
2, 12840, Note_on_c, 0, 62, 0
2, 12840, Note_on_c, 0, 61, 64
2, 12900, Note_on_c, 0, 61, 0
2, 12900, Note_on_c, 0, 59, 64
2, 12960, Note_on_c, 0, 59, 0
2, 12960, Note_on_c, 0, 68, 64
2, 12960, Note_on_c, 0, 52, 64
2, 13080, Note_on_c, 0, 68, 0
2, 13080, Note_on_c, 0, 64, 64
2, 13140, Note_on_c, 0, 64, 0
2, 13140, Note_on_c, 0, 66, 64
2, 13200, Note_on_c, 0, 66, 0
2, 13200, Note_on_c, 0, 52, 0
2, 13200, Note_on_c, 0, 68, 64
2, 13200, Note_on_c, 0, 40, 64
2, 13260, Note_on_c, 0, 68, 0
2, 13260, Note_on_c, 0, 69, 64
2, 13320, Note_on_c, 0, 69, 0
2, 13320, Note_on_c, 0, 40, 0
2, 13320, Note_on_c, 0, 74, 0
2, 13320, Note_on_c, 0, 74, 64
2, 13320, Note_on_c, 0, 71, 64
2, 13320, Note_on_c, 0, 40, 64
2, 13440, Note_on_c, 0, 71, 0
2, 13440, Note_on_c, 0, 68, 64
2, 13560, Note_on_c, 0, 68, 0
2, 13560, Note_on_c, 0, 40, 0
2, 13560, Note_on_c, 0, 71, 64
2, 13560, Note_on_c, 0, 40, 64
2, 13680, Note_on_c, 0, 40, 0
2, 13680, Note_on_c, 0, 71, 0
2, 13680, Note_on_c, 0, 74, 0
2, 13680, Note_on_c, 0, 80, 64
2, 13680, Note_on_c, 0, 74, 64
2, 13680, Note_on_c, 0, 40, 64
2, 13800, Note_on_c, 0, 74, 0
2, 13800, Note_on_c, 0, 71, 64
2, 13920, Note_on_c, 0, 71, 0
2, 13920, Note_on_c, 0, 74, 64
2, 14040, Note_on_c, 0, 74, 0
2, 14040, Note_on_c, 0, 80, 0
2, 14040, Note_on_c, 0, 83, 64
2, 14040, Note_on_c, 0, 80, 64
2, 14160, Note_on_c, 0, 80, 0
2, 14160, Note_on_c, 0, 74, 64
2, 14220, Note_on_c, 0, 40, 0
2, 14220, Note_on_c, 0, 47, 64
2, 14280, Note_on_c, 0, 47, 0
2, 14280, Note_on_c, 0, 74, 0
2, 14280, Note_on_c, 0, 80, 64
2, 14280, Note_on_c, 0, 49, 64
2, 14340, Note_on_c, 0, 49, 0
2, 14340, Note_on_c, 0, 50, 64
2, 14400, Note_on_c, 0, 50, 0
2, 14400, Note_on_c, 0, 80, 0
2, 14400, Note_on_c, 0, 73, 64
2, 14400, Note_on_c, 0, 52, 64
2, 14520, Note_on_c, 0, 83, 0
2, 14520, Note_on_c, 0, 81, 64
2, 14580, Note_on_c, 0, 81, 0
2, 14580, Note_on_c, 0, 80, 64
2, 14640, Note_on_c, 0, 80, 0
2, 14640, Note_on_c, 0, 52, 0
2, 14640, Note_on_c, 0, 78, 64
2, 14640, Note_on_c, 0, 40, 64
2, 14700, Note_on_c, 0, 78, 0
2, 14700, Note_on_c, 0, 76, 64
2, 14760, Note_on_c, 0, 76, 0
2, 14760, Note_on_c, 0, 40, 0
2, 14760, Note_on_c, 0, 73, 0
2, 14760, Note_on_c, 0, 75, 64
2, 14760, Note_on_c, 0, 69, 64
2, 14760, Note_on_c, 0, 40, 64
2, 14880, Note_on_c, 0, 75, 0
2, 14880, Note_on_c, 0, 78, 64
2, 15000, Note_on_c, 0, 78, 0
2, 15000, Note_on_c, 0, 40, 0
2, 15000, Note_on_c, 0, 75, 64
2, 15000, Note_on_c, 0, 40, 64
2, 15120, Note_on_c, 0, 40, 0
2, 15120, Note_on_c, 0, 75, 0
2, 15120, Note_on_c, 0, 69, 0
2, 15120, Note_on_c, 0, 40, 64
2, 15120, Note_on_c, 0, 69, 64
2, 15120, Note_on_c, 0, 66, 64
2, 15240, Note_on_c, 0, 69, 0
2, 15240, Note_on_c, 0, 75, 64
2, 15360, Note_on_c, 0, 75, 0
2, 15360, Note_on_c, 0, 69, 64
2, 15480, Note_on_c, 0, 69, 0
2, 15480, Note_on_c, 0, 66, 0
2, 15480, Note_on_c, 0, 40, 0
2, 15480, Note_on_c, 0, 63, 64
2, 15480, Note_on_c, 0, 66, 64
2, 15600, Note_on_c, 0, 66, 0
2, 15600, Note_on_c, 0, 69, 64
2, 15720, Note_on_c, 0, 69, 0
2, 15720, Note_on_c, 0, 66, 64
2, 15840, Note_on_c, 0, 66, 0
2, 15840, Note_on_c, 0, 63, 0
2, 15840, Note_on_c, 0, 68, 64
2, 15840, Note_on_c, 0, 64, 64
2, 15960, Note_on_c, 0, 68, 0
2, 15960, Note_on_c, 0, 66, 64
2, 16080, Note_on_c, 0, 66, 0
2, 16080, Note_on_c, 0, 52, 64
2, 16080, Note_on_c, 0, 64, 64
2, 16080, Note_on_c, 0, 62, 64
2, 16081, Note_on_c, 0, 64, 0
2, 16200, Note_on_c, 0, 64, 0
2, 16200, Note_on_c, 0, 52, 0
2, 16200, Note_on_c, 0, 62, 0
2, 16200, Note_on_c, 0, 69, 64
2, 16200, Note_on_c, 0, 61, 64
2, 16200, Note_on_c, 0, 54, 64
2, 16320, Note_on_c, 0, 54, 0
2, 16320, Note_on_c, 0, 52, 64
2, 16440, Note_on_c, 0, 52, 0
2, 16440, Note_on_c, 0, 61, 0
2, 16440, Note_on_c, 0, 69, 0
2, 16440, Note_on_c, 0, 74, 64
2, 16440, Note_on_c, 0, 69, 64
2, 16440, Note_on_c, 0, 50, 64
2, 16560, Note_on_c, 0, 50, 0
2, 16560, Note_on_c, 0, 69, 0
2, 16560, Note_on_c, 0, 74, 0
2, 16560, Note_on_c, 0, 73, 64
2, 16560, Note_on_c, 0, 69, 64
2, 16560, Note_on_c, 0, 52, 64
2, 16910, Note_on_c, 0, 73, 0
2, 16920, Note_on_c, 0, 52, 0
2, 16920, Note_on_c, 0, 69, 0
2, 16920, Note_on_c, 0, 73, 72
2, 16920, Note_on_c, 0, 40, 64
2, 16920, Note_on_c, 0, 68, 64
2, 16950, Note_on_c, 0, 73, 0
2, 16950, Note_on_c, 0, 71, 52
2, 16980, Note_on_c, 0, 71, 0
2, 16980, Note_on_c, 0, 73, 56
2, 17010, Note_on_c, 0, 73, 0
2, 17010, Note_on_c, 0, 71, 61
2, 17040, Note_on_c, 0, 71, 0
2, 17040, Note_on_c, 0, 69, 64
2, 17160, Note_on_c, 0, 69, 0
2, 17160, Note_on_c, 0, 71, 64
2, 17280, Note_on_c, 0, 71, 0
2, 17280, Note_on_c, 0, 68, 0
2, 17280, Note_on_c, 0, 40, 0
2, 17280, Note_on_c, 0, 69, 64
2, 17280, Note_on_c, 0, 45, 64
2, 17400, Note_on_c, 0, 69, 0
2, 17400, Note_on_c, 0, 73, 64
2, 17460, Note_on_c, 0, 73, 0
2, 17460, Note_on_c, 0, 71, 64
2, 17520, Note_on_c, 0, 71, 0
2, 17520, Note_on_c, 0, 45, 0
2, 17520, Note_on_c, 0, 69, 64
2, 17520, Note_on_c, 0, 52, 64
2, 17580, Note_on_c, 0, 69, 0
2, 17580, Note_on_c, 0, 68, 64
2, 17640, Note_on_c, 0, 68, 0
2, 17640, Note_on_c, 0, 52, 0
2, 17640, Note_on_c, 0, 57, 64
2, 17640, Note_on_c, 0, 66, 64
2, 17670, Note_on_c, 0, 57, 0
2, 17672, Note_on_c, 0, 56, 64
2, 17700, Note_on_c, 0, 57, 64
2, 17702, Note_on_c, 0, 56, 0
2, 17760, Note_on_c, 0, 66, 0
2, 17760, Note_on_c, 0, 69, 64
2, 17820, Note_on_c, 0, 69, 0
2, 17820, Note_on_c, 0, 68, 64
2, 17880, Note_on_c, 0, 68, 0
2, 17880, Note_on_c, 0, 66, 64
2, 17940, Note_on_c, 0, 66, 0
2, 17940, Note_on_c, 0, 64, 64
2, 18000, Note_on_c, 0, 64, 0
2, 18000, Note_on_c, 0, 63, 64
2, 18120, Note_on_c, 0, 63, 0
2, 18120, Note_on_c, 0, 57, 0
2, 18120, Note_on_c, 0, 66, 64
2, 18120, Note_on_c, 0, 59, 64
2, 18180, Note_on_c, 0, 59, 0
2, 18180, Note_on_c, 0, 57, 64
2, 18240, Note_on_c, 0, 57, 0
2, 18240, Note_on_c, 0, 66, 0
2, 18240, Note_on_c, 0, 71, 64
2, 18240, Note_on_c, 0, 56, 64
2, 18300, Note_on_c, 0, 56, 0
2, 18300, Note_on_c, 0, 54, 64
2, 18360, Note_on_c, 0, 54, 0
2, 18360, Note_on_c, 0, 71, 0
2, 18360, Note_on_c, 0, 71, 64
2, 18360, Note_on_c, 0, 53, 64
2, 18480, Note_on_c, 0, 53, 0
2, 18480, Note_on_c, 0, 68, 64
2, 18480, Note_on_c, 0, 54, 64
2, 18540, Note_on_c, 0, 54, 0
2, 18540, Note_on_c, 0, 53, 64
2, 18600, Note_on_c, 0, 53, 0
2, 18600, Note_on_c, 0, 68, 0
2, 18600, Note_on_c, 0, 65, 64
2, 18600, Note_on_c, 0, 51, 64
2, 18660, Note_on_c, 0, 51, 0
2, 18660, Note_on_c, 0, 49, 64
2, 18720, Note_on_c, 0, 49, 0
2, 18720, Note_on_c, 0, 65, 0
2, 18720, Note_on_c, 0, 61, 64
2, 18720, Note_on_c, 0, 54, 64
2, 18840, Note_on_c, 0, 71, 0
2, 18840, Note_on_c, 0, 69, 64
2, 18900, Note_on_c, 0, 69, 0
2, 18900, Note_on_c, 0, 68, 64
2, 18960, Note_on_c, 0, 68, 0
2, 18960, Note_on_c, 0, 54, 0
2, 18960, Note_on_c, 0, 66, 64
2, 18960, Note_on_c, 0, 42, 64
2, 19020, Note_on_c, 0, 66, 0
2, 19020, Note_on_c, 0, 64, 64
2, 19080, Note_on_c, 0, 64, 0
2, 19080, Note_on_c, 0, 42, 0
2, 19080, Note_on_c, 0, 61, 0
2, 19080, Note_on_c, 0, 54, 64
2, 19080, Note_on_c, 0, 62, 64
2, 19110, Note_on_c, 0, 54, 0
2, 19112, Note_on_c, 0, 52, 64
2, 19140, Note_on_c, 0, 54, 64
2, 19142, Note_on_c, 0, 52, 0
2, 19200, Note_on_c, 0, 62, 0
2, 19200, Note_on_c, 0, 66, 64
2, 19260, Note_on_c, 0, 66, 0
2, 19260, Note_on_c, 0, 64, 64
2, 19320, Note_on_c, 0, 64, 0
2, 19320, Note_on_c, 0, 62, 64
2, 19380, Note_on_c, 0, 62, 0
2, 19380, Note_on_c, 0, 61, 64
2, 19440, Note_on_c, 0, 61, 0
2, 19440, Note_on_c, 0, 59, 64
2, 19560, Note_on_c, 0, 59, 0
2, 19560, Note_on_c, 0, 54, 0
2, 19560, Note_on_c, 0, 62, 64
2, 19560, Note_on_c, 0, 55, 64
2, 19620, Note_on_c, 0, 55, 0
2, 19620, Note_on_c, 0, 54, 64
2, 19680, Note_on_c, 0, 54, 0
2, 19680, Note_on_c, 0, 62, 0
2, 19680, Note_on_c, 0, 67, 64
2, 19680, Note_on_c, 0, 52, 64
2, 19740, Note_on_c, 0, 52, 0
2, 19740, Note_on_c, 0, 50, 64
2, 19800, Note_on_c, 0, 50, 0
2, 19800, Note_on_c, 0, 67, 0
2, 19800, Note_on_c, 0, 67, 64
2, 19800, Note_on_c, 0, 49, 64
2, 19920, Note_on_c, 0, 49, 0
2, 19920, Note_on_c, 0, 64, 64
2, 19920, Note_on_c, 0, 50, 64
2, 19980, Note_on_c, 0, 50, 0
2, 19980, Note_on_c, 0, 49, 64
2, 20040, Note_on_c, 0, 49, 0
2, 20040, Note_on_c, 0, 64, 0
2, 20040, Note_on_c, 0, 61, 64
2, 20040, Note_on_c, 0, 47, 64
2, 20100, Note_on_c, 0, 47, 0
2, 20100, Note_on_c, 0, 45, 64
2, 20160, Note_on_c, 0, 45, 0
2, 20160, Note_on_c, 0, 61, 0
2, 20160, Note_on_c, 0, 57, 64
2, 20160, Note_on_c, 0, 50, 64
2, 20280, Note_on_c, 0, 67, 0
2, 20280, Note_on_c, 0, 66, 64
2, 20340, Note_on_c, 0, 66, 0
2, 20340, Note_on_c, 0, 64, 64
2, 20400, Note_on_c, 0, 64, 0
2, 20400, Note_on_c, 0, 50, 0
2, 20400, Note_on_c, 0, 62, 64
2, 20400, Note_on_c, 0, 38, 64
2, 20460, Note_on_c, 0, 62, 0
2, 20460, Note_on_c, 0, 61, 64
2, 20520, Note_on_c, 0, 61, 0
2, 20520, Note_on_c, 0, 38, 0
2, 20520, Note_on_c, 0, 57, 0
2, 20520, Note_on_c, 0, 50, 64
2, 20520, Note_on_c, 0, 59, 64
2, 20550, Note_on_c, 0, 50, 0
2, 20552, Note_on_c, 0, 49, 64
2, 20580, Note_on_c, 0, 50, 64
2, 20582, Note_on_c, 0, 49, 0
2, 20640, Note_on_c, 0, 59, 0
2, 20640, Note_on_c, 0, 62, 64
2, 20700, Note_on_c, 0, 62, 0
2, 20700, Note_on_c, 0, 61, 64
2, 20760, Note_on_c, 0, 61, 0
2, 20760, Note_on_c, 0, 59, 64
2, 20820, Note_on_c, 0, 59, 0
2, 20820, Note_on_c, 0, 57, 64
2, 20880, Note_on_c, 0, 57, 0
2, 20880, Note_on_c, 0, 56, 64
2, 21000, Note_on_c, 0, 56, 0
2, 21000, Note_on_c, 0, 50, 0
2, 21000, Note_on_c, 0, 59, 64
2, 21000, Note_on_c, 0, 52, 64
2, 21060, Note_on_c, 0, 52, 0
2, 21060, Note_on_c, 0, 50, 64
2, 21120, Note_on_c, 0, 50, 0
2, 21120, Note_on_c, 0, 59, 0
2, 21120, Note_on_c, 0, 64, 64
2, 21120, Note_on_c, 0, 49, 64
2, 21180, Note_on_c, 0, 49, 0
2, 21180, Note_on_c, 0, 47, 64
2, 21240, Note_on_c, 0, 47, 0
2, 21240, Note_on_c, 0, 64, 0
2, 21240, Note_on_c, 0, 61, 64
2, 21240, Note_on_c, 0, 45, 64
2, 21360, Note_on_c, 0, 45, 0
2, 21360, Note_on_c, 0, 61, 0
2, 21360, Note_on_c, 0, 64, 64
2, 21360, Note_on_c, 0, 47, 64
2, 21420, Note_on_c, 0, 47, 0
2, 21420, Note_on_c, 0, 49, 64
2, 21480, Note_on_c, 0, 49, 0
2, 21480, Note_on_c, 0, 64, 0
2, 21480, Note_on_c, 0, 69, 64
2, 21480, Note_on_c, 0, 50, 64
2, 21540, Note_on_c, 0, 50, 0
2, 21540, Note_on_c, 0, 52, 64
2, 21600, Note_on_c, 0, 52, 0
2, 21600, Note_on_c, 0, 69, 0
2, 21600, Note_on_c, 0, 62, 64
2, 21600, Note_on_c, 0, 54, 64
2, 21720, Note_on_c, 0, 54, 0
2, 21720, Note_on_c, 0, 52, 64
2, 21840, Note_on_c, 0, 52, 0
2, 21840, Note_on_c, 0, 62, 0
2, 21840, Note_on_c, 0, 62, 64
2, 21840, Note_on_c, 0, 71, 64
2, 21840, Note_on_c, 0, 50, 64
2, 21960, Note_on_c, 0, 50, 0
2, 21960, Note_on_c, 0, 71, 0
2, 21960, Note_on_c, 0, 62, 0
2, 21960, Note_on_c, 0, 64, 64
2, 21960, Note_on_c, 0, 61, 64
2, 21960, Note_on_c, 0, 52, 64
2, 22080, Note_on_c, 0, 64, 0
2, 22080, Note_on_c, 0, 69, 64
2, 22200, Note_on_c, 0, 69, 0
2, 22200, Note_on_c, 0, 52, 0
2, 22200, Note_on_c, 0, 61, 0
2, 22200, Note_on_c, 0, 68, 64
2, 22200, Note_on_c, 0, 59, 64
2, 22200, Note_on_c, 0, 40, 64
2, 22320, Note_on_c, 0, 40, 0
2, 22320, Note_on_c, 0, 59, 0
2, 22320, Note_on_c, 0, 68, 0
2, 22320, Note_on_c, 0, 61, 64
2, 22320, Note_on_c, 0, 69, 64
2, 22320, Note_on_c, 0, 45, 64
2, 22440, Note_on_c, 0, 45, 0
2, 22440, Note_on_c, 0, 49, 64
2, 22560, Note_on_c, 0, 49, 0
2, 22560, Note_on_c, 0, 52, 64
2, 22680, Note_on_c, 0, 52, 0
2, 22680, Note_on_c, 0, 57, 64
2, 23040, Note_on_c, 0, 57, 0
2, 23040, Note_on_c, 0, 69, 0
2, 23040, Note_on_c, 0, 61, 0
2, 23040, Note_on_c, 0, 38, 64
2, 23040, Note_on_c, 0, 50, 64
2, 23160, Note_on_c, 0, 62, 64
2, 23220, Note_on_c, 0, 62, 0
2, 23220, Note_on_c, 0, 64, 64
2, 23280, Note_on_c, 0, 64, 0
2, 23280, Note_on_c, 0, 50, 0
2, 23280, Note_on_c, 0, 38, 0
2, 23280, Note_on_c, 0, 66, 64
2, 23340, Note_on_c, 0, 66, 0
2, 23340, Note_on_c, 0, 67, 64
2, 23400, Note_on_c, 0, 67, 0
2, 23400, Note_on_c, 0, 69, 64
2, 23520, Note_on_c, 0, 69, 0
2, 23520, Note_on_c, 0, 66, 64
2, 23640, Note_on_c, 0, 66, 0
2, 23640, Note_on_c, 0, 69, 64
2, 23760, Note_on_c, 0, 69, 0
2, 23760, Note_on_c, 0, 74, 64
2, 23880, Note_on_c, 0, 74, 0
2, 23880, Note_on_c, 0, 69, 64
2, 24000, Note_on_c, 0, 69, 0
2, 24000, Note_on_c, 0, 74, 64
2, 24120, Note_on_c, 0, 74, 0
2, 24120, Note_on_c, 0, 78, 64
2, 24240, Note_on_c, 0, 78, 0
2, 24240, Note_on_c, 0, 74, 64
2, 24360, Note_on_c, 0, 74, 0
2, 24360, Note_on_c, 0, 78, 64
2, 24480, Note_on_c, 0, 78, 0
2, 24480, Note_on_c, 0, 81, 64
2, 24840, Note_on_c, 0, 81, 0
2, 24840, Note_on_c, 0, 78, 64
2, 24840, Note_on_c, 0, 81, 64
2, 24840, Note_on_c, 0, 62, 64
2, 25200, Note_on_c, 0, 62, 0
2, 25200, Note_on_c, 0, 81, 0
2, 25200, Note_on_c, 0, 78, 0
2, 25200, Note_on_c, 0, 78, 64
2, 25200, Note_on_c, 0, 81, 64
2, 25200, Note_on_c, 0, 69, 64
2, 25380, Note_on_c, 0, 81, 0
2, 25380, Note_on_c, 0, 78, 0
2, 25380, Note_on_c, 0, 76, 64
2, 25380, Note_on_c, 0, 79, 64
2, 25560, Note_on_c, 0, 79, 0
2, 25560, Note_on_c, 0, 76, 0
2, 25560, Note_on_c, 0, 69, 0
2, 25560, Note_on_c, 0, 57, 64
2, 25560, Note_on_c, 0, 76, 64
2, 25560, Note_on_c, 0, 79, 64
2, 25740, Note_on_c, 0, 79, 0
2, 25740, Note_on_c, 0, 76, 0
2, 25740, Note_on_c, 0, 78, 64
2, 25740, Note_on_c, 0, 74, 64
2, 25920, Note_on_c, 0, 74, 0
2, 25920, Note_on_c, 0, 78, 0
2, 25920, Note_on_c, 0, 57, 0
2, 25920, Note_on_c, 0, 62, 64
2, 25920, Note_on_c, 0, 74, 64
2, 25920, Note_on_c, 0, 78, 64
2, 26040, Note_on_c, 0, 78, 0
2, 26040, Note_on_c, 0, 74, 0
2, 26040, Note_on_c, 0, 50, 64
2, 26100, Note_on_c, 0, 50, 0
2, 26100, Note_on_c, 0, 52, 64
2, 26160, Note_on_c, 0, 52, 0
2, 26160, Note_on_c, 0, 62, 0
2, 26160, Note_on_c, 0, 54, 64
2, 26220, Note_on_c, 0, 54, 0
2, 26220, Note_on_c, 0, 55, 64
2, 26280, Note_on_c, 0, 55, 0
2, 26280, Note_on_c, 0, 57, 64
2, 26400, Note_on_c, 0, 57, 0
2, 26400, Note_on_c, 0, 54, 64
2, 26520, Note_on_c, 0, 54, 0
2, 26520, Note_on_c, 0, 57, 64
2, 26640, Note_on_c, 0, 57, 0
2, 26640, Note_on_c, 0, 62, 64
2, 26760, Note_on_c, 0, 62, 0
2, 26760, Note_on_c, 0, 57, 64
2, 26880, Note_on_c, 0, 57, 0
2, 26880, Note_on_c, 0, 62, 64
2, 27000, Note_on_c, 0, 62, 0
2, 27000, Note_on_c, 0, 66, 64
2, 27120, Note_on_c, 0, 66, 0
2, 27120, Note_on_c, 0, 62, 64
2, 27240, Note_on_c, 0, 62, 0
2, 27240, Note_on_c, 0, 66, 64
2, 27360, Note_on_c, 0, 66, 0
2, 27360, Note_on_c, 0, 69, 64
2, 27720, Note_on_c, 0, 69, 0
2, 27720, Note_on_c, 0, 69, 64
2, 27720, Note_on_c, 0, 78, 64
2, 27720, Note_on_c, 0, 50, 64
2, 28080, Note_on_c, 0, 50, 0
2, 28080, Note_on_c, 0, 78, 0
2, 28080, Note_on_c, 0, 69, 0
2, 28080, Note_on_c, 0, 69, 64
2, 28080, Note_on_c, 0, 78, 64
2, 28080, Note_on_c, 0, 57, 64
2, 28260, Note_on_c, 0, 78, 0
2, 28260, Note_on_c, 0, 69, 0
2, 28260, Note_on_c, 0, 67, 64
2, 28260, Note_on_c, 0, 76, 64
2, 28440, Note_on_c, 0, 76, 0
2, 28440, Note_on_c, 0, 67, 0
2, 28440, Note_on_c, 0, 57, 0
2, 28440, Note_on_c, 0, 45, 64
2, 28440, Note_on_c, 0, 67, 64
2, 28440, Note_on_c, 0, 76, 64
2, 28620, Note_on_c, 0, 76, 0
2, 28620, Note_on_c, 0, 67, 0
2, 28620, Note_on_c, 0, 74, 64
2, 28620, Note_on_c, 0, 66, 64
2, 28800, Note_on_c, 0, 66, 0
2, 28800, Note_on_c, 0, 74, 0
2, 28800, Note_on_c, 0, 45, 0
2, 28800, Note_on_c, 0, 66, 64
2, 28800, Note_on_c, 0, 74, 64
2, 28800, Note_on_c, 0, 50, 64
2, 28920, Note_on_c, 0, 74, 0
2, 28920, Note_on_c, 0, 66, 0
2, 28920, Note_on_c, 0, 66, 64
2, 28980, Note_on_c, 0, 66, 0
2, 28980, Note_on_c, 0, 64, 64
2, 29040, Note_on_c, 0, 64, 0
2, 29040, Note_on_c, 0, 50, 0
2, 29040, Note_on_c, 0, 62, 64
2, 29040, Note_on_c, 0, 38, 64
2, 29100, Note_on_c, 0, 62, 0
2, 29100, Note_on_c, 0, 61, 64
2, 29160, Note_on_c, 0, 61, 0
2, 29160, Note_on_c, 0, 38, 0
2, 29160, Note_on_c, 0, 59, 64
2, 29160, Note_on_c, 0, 50, 64
2, 29280, Note_on_c, 0, 59, 0
2, 29280, Note_on_c, 0, 62, 64
2, 29400, Note_on_c, 0, 62, 0
2, 29400, Note_on_c, 0, 50, 0
2, 29400, Note_on_c, 0, 59, 64
2, 29400, Note_on_c, 0, 50, 64
2, 29520, Note_on_c, 0, 50, 0
2, 29520, Note_on_c, 0, 59, 0
2, 29520, Note_on_c, 0, 50, 64
2, 29520, Note_on_c, 0, 56, 64
2, 29640, Note_on_c, 0, 56, 0
2, 29640, Note_on_c, 0, 64, 64
2, 29700, Note_on_c, 0, 64, 0
2, 29700, Note_on_c, 0, 66, 64
2, 29760, Note_on_c, 0, 66, 0
2, 29760, Note_on_c, 0, 68, 64
2, 29820, Note_on_c, 0, 68, 0
2, 29820, Note_on_c, 0, 69, 64
2, 29880, Note_on_c, 0, 69, 0
2, 29880, Note_on_c, 0, 50, 0
2, 29880, Note_on_c, 0, 71, 64
2, 30000, Note_on_c, 0, 71, 0
2, 30000, Note_on_c, 0, 68, 64
2, 30000, Note_on_c, 0, 52, 64
2, 30060, Note_on_c, 0, 52, 0
2, 30060, Note_on_c, 0, 50, 64
2, 30120, Note_on_c, 0, 50, 0
2, 30120, Note_on_c, 0, 68, 0
2, 30120, Note_on_c, 0, 71, 64
2, 30120, Note_on_c, 0, 49, 64
2, 30180, Note_on_c, 0, 49, 0
2, 30180, Note_on_c, 0, 47, 64
2, 30240, Note_on_c, 0, 47, 0
2, 30240, Note_on_c, 0, 71, 0
2, 30240, Note_on_c, 0, 76, 64
2, 30240, Note_on_c, 0, 49, 64
2, 30360, Note_on_c, 0, 76, 0
2, 30360, Note_on_c, 0, 64, 64
2, 30420, Note_on_c, 0, 64, 0
2, 30420, Note_on_c, 0, 62, 64
2, 30480, Note_on_c, 0, 62, 0
2, 30480, Note_on_c, 0, 49, 0
2, 30480, Note_on_c, 0, 61, 64
2, 30480, Note_on_c, 0, 37, 64
2, 30540, Note_on_c, 0, 61, 0
2, 30540, Note_on_c, 0, 59, 64
2, 30600, Note_on_c, 0, 59, 0
2, 30600, Note_on_c, 0, 37, 0
2, 30600, Note_on_c, 0, 57, 64
2, 30600, Note_on_c, 0, 49, 64
2, 30720, Note_on_c, 0, 57, 0
2, 30720, Note_on_c, 0, 61, 64
2, 30840, Note_on_c, 0, 61, 0
2, 30840, Note_on_c, 0, 49, 0
2, 30840, Note_on_c, 0, 57, 64
2, 30840, Note_on_c, 0, 49, 64
2, 30960, Note_on_c, 0, 49, 0
2, 30960, Note_on_c, 0, 57, 0
2, 30960, Note_on_c, 0, 49, 64
2, 30960, Note_on_c, 0, 54, 64
2, 31080, Note_on_c, 0, 54, 0
2, 31080, Note_on_c, 0, 62, 64
2, 31140, Note_on_c, 0, 62, 0
2, 31140, Note_on_c, 0, 64, 64
2, 31200, Note_on_c, 0, 64, 0
2, 31200, Note_on_c, 0, 66, 64
2, 31260, Note_on_c, 0, 66, 0
2, 31260, Note_on_c, 0, 68, 64
2, 31320, Note_on_c, 0, 68, 0
2, 31320, Note_on_c, 0, 49, 0
2, 31320, Note_on_c, 0, 69, 64
2, 31440, Note_on_c, 0, 69, 0
2, 31440, Note_on_c, 0, 66, 64
2, 31440, Note_on_c, 0, 50, 64
2, 31500, Note_on_c, 0, 50, 0
2, 31500, Note_on_c, 0, 49, 64
2, 31560, Note_on_c, 0, 49, 0
2, 31560, Note_on_c, 0, 66, 0
2, 31560, Note_on_c, 0, 69, 64
2, 31560, Note_on_c, 0, 47, 64
2, 31620, Note_on_c, 0, 47, 0
2, 31620, Note_on_c, 0, 45, 64
2, 31680, Note_on_c, 0, 45, 0
2, 31680, Note_on_c, 0, 69, 0
2, 31680, Note_on_c, 0, 74, 64
2, 31680, Note_on_c, 0, 47, 64
2, 31800, Note_on_c, 0, 47, 0
2, 31800, Note_on_c, 0, 54, 64
2, 31860, Note_on_c, 0, 54, 0
2, 31860, Note_on_c, 0, 52, 64
2, 31920, Note_on_c, 0, 52, 0
2, 31920, Note_on_c, 0, 74, 0
2, 31920, Note_on_c, 0, 66, 64
2, 31920, Note_on_c, 0, 50, 64
2, 31980, Note_on_c, 0, 50, 0
2, 31980, Note_on_c, 0, 49, 64
2, 32040, Note_on_c, 0, 49, 0
2, 32040, Note_on_c, 0, 66, 0
2, 32040, Note_on_c, 0, 66, 64
2, 32040, Note_on_c, 0, 74, 64
2, 32040, Note_on_c, 0, 47, 64
2, 32160, Note_on_c, 0, 47, 0
2, 32160, Note_on_c, 0, 50, 64
2, 32280, Note_on_c, 0, 50, 0
2, 32280, Note_on_c, 0, 74, 0
2, 32280, Note_on_c, 0, 66, 0
2, 32280, Note_on_c, 0, 66, 64
2, 32280, Note_on_c, 0, 74, 64
2, 32280, Note_on_c, 0, 47, 64
2, 32400, Note_on_c, 0, 47, 0
2, 32400, Note_on_c, 0, 74, 0
2, 32400, Note_on_c, 0, 66, 0
2, 32400, Note_on_c, 0, 64, 64
2, 32400, Note_on_c, 0, 74, 64
2, 32400, Note_on_c, 0, 44, 64
2, 32520, Note_on_c, 0, 44, 0
2, 32520, Note_on_c, 0, 47, 64
2, 32640, Note_on_c, 0, 47, 0
2, 32640, Note_on_c, 0, 44, 64
2, 32760, Note_on_c, 0, 44, 0
2, 32760, Note_on_c, 0, 74, 0
2, 32760, Note_on_c, 0, 64, 0
2, 32760, Note_on_c, 0, 40, 64
2, 32880, Note_on_c, 0, 40, 0
2, 32880, Note_on_c, 0, 76, 64
2, 32880, Note_on_c, 0, 44, 64
2, 32940, Note_on_c, 0, 76, 0
2, 32940, Note_on_c, 0, 74, 64
2, 33000, Note_on_c, 0, 74, 0
2, 33000, Note_on_c, 0, 44, 0
2, 33000, Note_on_c, 0, 40, 64
2, 33000, Note_on_c, 0, 73, 64
2, 33060, Note_on_c, 0, 73, 0
2, 33060, Note_on_c, 0, 71, 64
2, 33120, Note_on_c, 0, 71, 0
2, 33120, Note_on_c, 0, 40, 0
2, 33120, Note_on_c, 0, 73, 64
2, 33120, Note_on_c, 0, 45, 64
2, 33240, Note_on_c, 0, 45, 0
2, 33240, Note_on_c, 0, 73, 0
2, 33240, Note_on_c, 0, 69, 64
2, 33240, Note_on_c, 0, 49, 64
2, 33300, Note_on_c, 0, 69, 0
2, 33300, Note_on_c, 0, 71, 64
2, 33360, Note_on_c, 0, 71, 0
2, 33360, Note_on_c, 0, 49, 0
2, 33360, Note_on_c, 0, 73, 64
2, 33360, Note_on_c, 0, 45, 64
2, 33420, Note_on_c, 0, 73, 0
2, 33420, Note_on_c, 0, 74, 64
2, 33480, Note_on_c, 0, 74, 0
2, 33480, Note_on_c, 0, 45, 0
2, 33480, Note_on_c, 0, 76, 64
2, 33480, Note_on_c, 0, 42, 64
2, 33600, Note_on_c, 0, 42, 0
2, 33600, Note_on_c, 0, 76, 0
2, 33600, Note_on_c, 0, 74, 64
2, 33600, Note_on_c, 0, 45, 64
2, 33660, Note_on_c, 0, 74, 0
2, 33660, Note_on_c, 0, 73, 64
2, 33720, Note_on_c, 0, 73, 0
2, 33720, Note_on_c, 0, 45, 0
2, 33720, Note_on_c, 0, 71, 64
2, 33720, Note_on_c, 0, 42, 64
2, 33780, Note_on_c, 0, 71, 0
2, 33780, Note_on_c, 0, 69, 64
2, 33840, Note_on_c, 0, 69, 0
2, 33840, Note_on_c, 0, 42, 0
2, 33840, Note_on_c, 0, 74, 64
2, 33840, Note_on_c, 0, 47, 64
2, 33960, Note_on_c, 0, 47, 0
2, 33960, Note_on_c, 0, 74, 0
2, 33960, Note_on_c, 0, 71, 64
2, 33960, Note_on_c, 0, 50, 64
2, 34020, Note_on_c, 0, 71, 0
2, 34020, Note_on_c, 0, 73, 64
2, 34080, Note_on_c, 0, 73, 0
2, 34080, Note_on_c, 0, 50, 0
2, 34080, Note_on_c, 0, 74, 64
2, 34080, Note_on_c, 0, 47, 64
2, 34140, Note_on_c, 0, 74, 0
2, 34140, Note_on_c, 0, 76, 64
2, 34200, Note_on_c, 0, 76, 0
2, 34200, Note_on_c, 0, 47, 0
2, 34200, Note_on_c, 0, 78, 64
2, 34200, Note_on_c, 0, 44, 64
2, 34320, Note_on_c, 0, 44, 0
2, 34320, Note_on_c, 0, 78, 0
2, 34320, Note_on_c, 0, 76, 64
2, 34320, Note_on_c, 0, 47, 64
2, 34380, Note_on_c, 0, 76, 0
2, 34380, Note_on_c, 0, 74, 64
2, 34440, Note_on_c, 0, 74, 0
2, 34440, Note_on_c, 0, 47, 0
2, 34440, Note_on_c, 0, 44, 64
2, 34440, Note_on_c, 0, 73, 64
2, 34500, Note_on_c, 0, 73, 0
2, 34500, Note_on_c, 0, 71, 64
2, 34560, Note_on_c, 0, 71, 0
2, 34560, Note_on_c, 0, 44, 0
2, 34560, Note_on_c, 0, 76, 64
2, 34560, Note_on_c, 0, 49, 64
2, 34680, Note_on_c, 0, 49, 0
2, 34680, Note_on_c, 0, 57, 64
2, 34740, Note_on_c, 0, 57, 0
2, 34740, Note_on_c, 0, 59, 64
2, 34800, Note_on_c, 0, 59, 0
2, 34800, Note_on_c, 0, 61, 64
2, 34860, Note_on_c, 0, 61, 0
2, 34860, Note_on_c, 0, 62, 64
2, 34920, Note_on_c, 0, 62, 0
2, 34920, Note_on_c, 0, 64, 64
2, 35040, Note_on_c, 0, 64, 0
2, 35040, Note_on_c, 0, 62, 64
2, 35100, Note_on_c, 0, 62, 0
2, 35100, Note_on_c, 0, 61, 64
2, 35160, Note_on_c, 0, 61, 0
2, 35160, Note_on_c, 0, 59, 64
2, 35220, Note_on_c, 0, 59, 0
2, 35220, Note_on_c, 0, 57, 64
2, 35280, Note_on_c, 0, 57, 0
2, 35280, Note_on_c, 0, 66, 64
2, 35280, Note_on_c, 0, 50, 64
2, 35400, Note_on_c, 0, 50, 0
2, 35400, Note_on_c, 0, 66, 0
2, 35400, Note_on_c, 0, 59, 64
2, 35460, Note_on_c, 0, 59, 0
2, 35460, Note_on_c, 0, 61, 64
2, 35520, Note_on_c, 0, 61, 0
2, 35520, Note_on_c, 0, 62, 64
2, 35580, Note_on_c, 0, 62, 0
2, 35580, Note_on_c, 0, 64, 64
2, 35640, Note_on_c, 0, 64, 0
2, 35640, Note_on_c, 0, 76, 0
2, 35640, Note_on_c, 0, 74, 64
2, 35640, Note_on_c, 0, 66, 64
2, 35760, Note_on_c, 0, 66, 0
2, 35760, Note_on_c, 0, 64, 64
2, 35820, Note_on_c, 0, 64, 0
2, 35820, Note_on_c, 0, 62, 64
2, 35880, Note_on_c, 0, 62, 0
2, 35880, Note_on_c, 0, 61, 64
2, 35940, Note_on_c, 0, 61, 0
2, 35940, Note_on_c, 0, 59, 64
2, 36000, Note_on_c, 0, 59, 0
2, 36000, Note_on_c, 0, 68, 64
2, 36000, Note_on_c, 0, 52, 64
2, 36120, Note_on_c, 0, 68, 0
2, 36120, Note_on_c, 0, 64, 64
2, 36180, Note_on_c, 0, 64, 0
2, 36180, Note_on_c, 0, 66, 64
2, 36240, Note_on_c, 0, 66, 0
2, 36240, Note_on_c, 0, 52, 0
2, 36240, Note_on_c, 0, 68, 64
2, 36240, Note_on_c, 0, 40, 64
2, 36300, Note_on_c, 0, 68, 0
2, 36300, Note_on_c, 0, 69, 64
2, 36360, Note_on_c, 0, 69, 0
2, 36360, Note_on_c, 0, 40, 0
2, 36360, Note_on_c, 0, 74, 0
2, 36360, Note_on_c, 0, 74, 64
2, 36360, Note_on_c, 0, 71, 64
2, 36360, Note_on_c, 0, 40, 64
2, 36480, Note_on_c, 0, 71, 0
2, 36480, Note_on_c, 0, 68, 64
2, 36600, Note_on_c, 0, 68, 0
2, 36600, Note_on_c, 0, 40, 0
2, 36600, Note_on_c, 0, 71, 64
2, 36600, Note_on_c, 0, 40, 64
2, 36720, Note_on_c, 0, 40, 0
2, 36720, Note_on_c, 0, 71, 0
2, 36720, Note_on_c, 0, 74, 0
2, 36720, Note_on_c, 0, 80, 64
2, 36720, Note_on_c, 0, 74, 64
2, 36720, Note_on_c, 0, 40, 64
2, 36840, Note_on_c, 0, 74, 0
2, 36840, Note_on_c, 0, 71, 64
2, 36960, Note_on_c, 0, 71, 0
2, 36960, Note_on_c, 0, 74, 64
2, 37080, Note_on_c, 0, 74, 0
2, 37080, Note_on_c, 0, 80, 0
2, 37080, Note_on_c, 0, 83, 64
2, 37080, Note_on_c, 0, 80, 64
2, 37200, Note_on_c, 0, 80, 0
2, 37200, Note_on_c, 0, 74, 64
2, 37260, Note_on_c, 0, 40, 0
2, 37260, Note_on_c, 0, 47, 64
2, 37320, Note_on_c, 0, 47, 0
2, 37320, Note_on_c, 0, 74, 0
2, 37320, Note_on_c, 0, 80, 64
2, 37320, Note_on_c, 0, 49, 64
2, 37380, Note_on_c, 0, 49, 0
2, 37380, Note_on_c, 0, 50, 64
2, 37440, Note_on_c, 0, 50, 0
2, 37440, Note_on_c, 0, 80, 0
2, 37440, Note_on_c, 0, 73, 64
2, 37440, Note_on_c, 0, 52, 64
2, 37560, Note_on_c, 0, 83, 0
2, 37560, Note_on_c, 0, 81, 64
2, 37620, Note_on_c, 0, 81, 0
2, 37620, Note_on_c, 0, 80, 64
2, 37680, Note_on_c, 0, 80, 0
2, 37680, Note_on_c, 0, 52, 0
2, 37680, Note_on_c, 0, 78, 64
2, 37680, Note_on_c, 0, 40, 64
2, 37740, Note_on_c, 0, 78, 0
2, 37740, Note_on_c, 0, 76, 64
2, 37800, Note_on_c, 0, 76, 0
2, 37800, Note_on_c, 0, 40, 0
2, 37800, Note_on_c, 0, 73, 0
2, 37800, Note_on_c, 0, 75, 64
2, 37800, Note_on_c, 0, 69, 64
2, 37800, Note_on_c, 0, 40, 64
2, 37920, Note_on_c, 0, 75, 0
2, 37920, Note_on_c, 0, 78, 64
2, 38040, Note_on_c, 0, 78, 0
2, 38040, Note_on_c, 0, 40, 0
2, 38040, Note_on_c, 0, 75, 64
2, 38040, Note_on_c, 0, 40, 64
2, 38160, Note_on_c, 0, 40, 0
2, 38160, Note_on_c, 0, 75, 0
2, 38160, Note_on_c, 0, 69, 0
2, 38160, Note_on_c, 0, 40, 64
2, 38160, Note_on_c, 0, 69, 64
2, 38160, Note_on_c, 0, 66, 64
2, 38280, Note_on_c, 0, 69, 0
2, 38280, Note_on_c, 0, 75, 64
2, 38400, Note_on_c, 0, 75, 0
2, 38400, Note_on_c, 0, 69, 64
2, 38520, Note_on_c, 0, 69, 0
2, 38520, Note_on_c, 0, 66, 0
2, 38520, Note_on_c, 0, 40, 0
2, 38520, Note_on_c, 0, 63, 64
2, 38520, Note_on_c, 0, 66, 64
2, 38640, Note_on_c, 0, 66, 0
2, 38640, Note_on_c, 0, 69, 64
2, 38760, Note_on_c, 0, 69, 0
2, 38760, Note_on_c, 0, 66, 64
2, 38880, Note_on_c, 0, 66, 0
2, 38880, Note_on_c, 0, 63, 0
2, 38880, Note_on_c, 0, 68, 64
2, 38880, Note_on_c, 0, 64, 64
2, 39000, Note_on_c, 0, 68, 0
2, 39000, Note_on_c, 0, 66, 64
2, 39120, Note_on_c, 0, 66, 0
2, 39120, Note_on_c, 0, 52, 64
2, 39120, Note_on_c, 0, 64, 64
2, 39120, Note_on_c, 0, 62, 64
2, 39121, Note_on_c, 0, 64, 0
2, 39240, Note_on_c, 0, 64, 0
2, 39240, Note_on_c, 0, 52, 0
2, 39240, Note_on_c, 0, 62, 0
2, 39240, Note_on_c, 0, 69, 64
2, 39240, Note_on_c, 0, 61, 64
2, 39240, Note_on_c, 0, 54, 64
2, 39360, Note_on_c, 0, 54, 0
2, 39360, Note_on_c, 0, 52, 64
2, 39480, Note_on_c, 0, 52, 0
2, 39480, Note_on_c, 0, 61, 0
2, 39480, Note_on_c, 0, 69, 0
2, 39480, Note_on_c, 0, 74, 64
2, 39480, Note_on_c, 0, 69, 64
2, 39480, Note_on_c, 0, 50, 64
2, 39600, Note_on_c, 0, 50, 0
2, 39600, Note_on_c, 0, 69, 0
2, 39600, Note_on_c, 0, 74, 0
2, 39600, Note_on_c, 0, 73, 64
2, 39600, Note_on_c, 0, 69, 64
2, 39600, Note_on_c, 0, 52, 64
2, 39950, Note_on_c, 0, 73, 0
2, 39960, Note_on_c, 0, 52, 0
2, 39960, Note_on_c, 0, 69, 0
2, 39960, Note_on_c, 0, 73, 72
2, 39960, Note_on_c, 0, 40, 64
2, 39960, Note_on_c, 0, 68, 64
2, 39990, Note_on_c, 0, 73, 0
2, 39990, Note_on_c, 0, 71, 52
2, 40020, Note_on_c, 0, 71, 0
2, 40020, Note_on_c, 0, 73, 56
2, 40050, Note_on_c, 0, 73, 0
2, 40050, Note_on_c, 0, 71, 61
2, 40080, Note_on_c, 0, 71, 0
2, 40080, Note_on_c, 0, 69, 64
2, 40200, Note_on_c, 0, 69, 0
2, 40200, Note_on_c, 0, 71, 64
2, 40320, Note_on_c, 0, 71, 0
2, 40320, Note_on_c, 0, 68, 0
2, 40320, Note_on_c, 0, 40, 0
2, 40320, Note_on_c, 0, 69, 64
2, 40320, Note_on_c, 0, 45, 64
2, 40440, Note_on_c, 0, 69, 0
2, 40440, Note_on_c, 0, 73, 64
2, 40500, Note_on_c, 0, 73, 0
2, 40500, Note_on_c, 0, 71, 64
2, 40560, Note_on_c, 0, 71, 0
2, 40560, Note_on_c, 0, 45, 0
2, 40560, Note_on_c, 0, 69, 64
2, 40560, Note_on_c, 0, 52, 64
2, 40620, Note_on_c, 0, 69, 0
2, 40620, Note_on_c, 0, 68, 64
2, 40680, Note_on_c, 0, 68, 0
2, 40680, Note_on_c, 0, 52, 0
2, 40680, Note_on_c, 0, 57, 64
2, 40680, Note_on_c, 0, 66, 64
2, 40710, Note_on_c, 0, 57, 0
2, 40710, Note_on_c, 0, 56, 64
2, 40740, Note_on_c, 0, 56, 0
2, 40740, Note_on_c, 0, 57, 64
2, 40800, Note_on_c, 0, 66, 0
2, 40800, Note_on_c, 0, 69, 64
2, 40860, Note_on_c, 0, 69, 0
2, 40860, Note_on_c, 0, 68, 64
2, 40920, Note_on_c, 0, 68, 0
2, 40920, Note_on_c, 0, 66, 64
2, 40980, Note_on_c, 0, 66, 0
2, 40980, Note_on_c, 0, 64, 64
2, 41040, Note_on_c, 0, 64, 0
2, 41040, Note_on_c, 0, 63, 64
2, 41160, Note_on_c, 0, 63, 0
2, 41160, Note_on_c, 0, 57, 0
2, 41160, Note_on_c, 0, 66, 64
2, 41160, Note_on_c, 0, 59, 64
2, 41220, Note_on_c, 0, 59, 0
2, 41220, Note_on_c, 0, 57, 64
2, 41280, Note_on_c, 0, 57, 0
2, 41280, Note_on_c, 0, 66, 0
2, 41280, Note_on_c, 0, 71, 64
2, 41280, Note_on_c, 0, 56, 64
2, 41340, Note_on_c, 0, 56, 0
2, 41340, Note_on_c, 0, 54, 64
2, 41400, Note_on_c, 0, 54, 0
2, 41400, Note_on_c, 0, 71, 0
2, 41400, Note_on_c, 0, 71, 64
2, 41400, Note_on_c, 0, 53, 64
2, 41520, Note_on_c, 0, 53, 0
2, 41520, Note_on_c, 0, 68, 64
2, 41520, Note_on_c, 0, 54, 64
2, 41580, Note_on_c, 0, 54, 0
2, 41580, Note_on_c, 0, 53, 64
2, 41640, Note_on_c, 0, 53, 0
2, 41640, Note_on_c, 0, 68, 0
2, 41640, Note_on_c, 0, 65, 64
2, 41640, Note_on_c, 0, 51, 64
2, 41700, Note_on_c, 0, 51, 0
2, 41700, Note_on_c, 0, 49, 64
2, 41760, Note_on_c, 0, 49, 0
2, 41760, Note_on_c, 0, 65, 0
2, 41760, Note_on_c, 0, 61, 64
2, 41760, Note_on_c, 0, 54, 64
2, 41880, Note_on_c, 0, 71, 0
2, 41880, Note_on_c, 0, 69, 64
2, 41940, Note_on_c, 0, 69, 0
2, 41940, Note_on_c, 0, 68, 64
2, 42000, Note_on_c, 0, 68, 0
2, 42000, Note_on_c, 0, 54, 0
2, 42000, Note_on_c, 0, 66, 64
2, 42000, Note_on_c, 0, 42, 64
2, 42060, Note_on_c, 0, 66, 0
2, 42060, Note_on_c, 0, 64, 64
2, 42120, Note_on_c, 0, 64, 0
2, 42120, Note_on_c, 0, 42, 0
2, 42120, Note_on_c, 0, 61, 0
2, 42120, Note_on_c, 0, 54, 64
2, 42120, Note_on_c, 0, 62, 64
2, 42150, Note_on_c, 0, 54, 0
2, 42152, Note_on_c, 0, 52, 64
2, 42180, Note_on_c, 0, 54, 64
2, 42182, Note_on_c, 0, 52, 0
2, 42240, Note_on_c, 0, 62, 0
2, 42240, Note_on_c, 0, 66, 64
2, 42300, Note_on_c, 0, 66, 0
2, 42300, Note_on_c, 0, 64, 64
2, 42360, Note_on_c, 0, 64, 0
2, 42360, Note_on_c, 0, 62, 64
2, 42420, Note_on_c, 0, 62, 0
2, 42420, Note_on_c, 0, 61, 64
2, 42480, Note_on_c, 0, 61, 0
2, 42480, Note_on_c, 0, 59, 64
2, 42600, Note_on_c, 0, 59, 0
2, 42600, Note_on_c, 0, 54, 0
2, 42600, Note_on_c, 0, 62, 64
2, 42600, Note_on_c, 0, 55, 64
2, 42660, Note_on_c, 0, 55, 0
2, 42660, Note_on_c, 0, 54, 64
2, 42720, Note_on_c, 0, 54, 0
2, 42720, Note_on_c, 0, 62, 0
2, 42720, Note_on_c, 0, 67, 64
2, 42720, Note_on_c, 0, 52, 64
2, 42780, Note_on_c, 0, 52, 0
2, 42780, Note_on_c, 0, 50, 64
2, 42840, Note_on_c, 0, 50, 0
2, 42840, Note_on_c, 0, 67, 0
2, 42840, Note_on_c, 0, 67, 64
2, 42840, Note_on_c, 0, 49, 64
2, 42960, Note_on_c, 0, 49, 0
2, 42960, Note_on_c, 0, 64, 64
2, 42960, Note_on_c, 0, 50, 64
2, 43020, Note_on_c, 0, 50, 0
2, 43020, Note_on_c, 0, 49, 64
2, 43080, Note_on_c, 0, 49, 0
2, 43080, Note_on_c, 0, 64, 0
2, 43080, Note_on_c, 0, 61, 64
2, 43080, Note_on_c, 0, 47, 64
2, 43140, Note_on_c, 0, 47, 0
2, 43140, Note_on_c, 0, 45, 64
2, 43200, Note_on_c, 0, 45, 0
2, 43200, Note_on_c, 0, 61, 0
2, 43200, Note_on_c, 0, 57, 64
2, 43200, Note_on_c, 0, 50, 64
2, 43320, Note_on_c, 0, 67, 0
2, 43320, Note_on_c, 0, 66, 64
2, 43380, Note_on_c, 0, 66, 0
2, 43380, Note_on_c, 0, 64, 64
2, 43440, Note_on_c, 0, 64, 0
2, 43440, Note_on_c, 0, 50, 0
2, 43440, Note_on_c, 0, 62, 64
2, 43440, Note_on_c, 0, 38, 64
2, 43500, Note_on_c, 0, 62, 0
2, 43500, Note_on_c, 0, 61, 64
2, 43560, Note_on_c, 0, 61, 0
2, 43560, Note_on_c, 0, 38, 0
2, 43560, Note_on_c, 0, 57, 0
2, 43560, Note_on_c, 0, 50, 64
2, 43560, Note_on_c, 0, 59, 64
2, 43590, Note_on_c, 0, 50, 0
2, 43592, Note_on_c, 0, 49, 64
2, 43620, Note_on_c, 0, 50, 64
2, 43622, Note_on_c, 0, 49, 0
2, 43680, Note_on_c, 0, 59, 0
2, 43680, Note_on_c, 0, 62, 64
2, 43740, Note_on_c, 0, 62, 0
2, 43740, Note_on_c, 0, 61, 64
2, 43800, Note_on_c, 0, 61, 0
2, 43800, Note_on_c, 0, 59, 64
2, 43860, Note_on_c, 0, 59, 0
2, 43860, Note_on_c, 0, 57, 64
2, 43920, Note_on_c, 0, 57, 0
2, 43920, Note_on_c, 0, 56, 64
2, 44040, Note_on_c, 0, 56, 0
2, 44040, Note_on_c, 0, 50, 0
2, 44040, Note_on_c, 0, 59, 64
2, 44040, Note_on_c, 0, 52, 64
2, 44100, Note_on_c, 0, 52, 0
2, 44100, Note_on_c, 0, 50, 64
2, 44160, Note_on_c, 0, 50, 0
2, 44160, Note_on_c, 0, 59, 0
2, 44160, Note_on_c, 0, 64, 64
2, 44160, Note_on_c, 0, 49, 64
2, 44220, Note_on_c, 0, 49, 0
2, 44220, Note_on_c, 0, 47, 64
2, 44280, Note_on_c, 0, 47, 0
2, 44280, Note_on_c, 0, 64, 0
2, 44280, Note_on_c, 0, 61, 64
2, 44280, Note_on_c, 0, 45, 64
2, 44400, Note_on_c, 0, 45, 0
2, 44400, Note_on_c, 0, 61, 0
2, 44400, Note_on_c, 0, 64, 64
2, 44400, Note_on_c, 0, 47, 64
2, 44460, Note_on_c, 0, 47, 0
2, 44460, Note_on_c, 0, 49, 64
2, 44520, Note_on_c, 0, 49, 0
2, 44520, Note_on_c, 0, 64, 0
2, 44520, Note_on_c, 0, 69, 64
2, 44520, Note_on_c, 0, 50, 64
2, 44580, Note_on_c, 0, 50, 0
2, 44580, Note_on_c, 0, 52, 64
2, 44640, Note_on_c, 0, 52, 0
2, 44640, Note_on_c, 0, 69, 0
2, 44640, Note_on_c, 0, 62, 64
2, 44640, Note_on_c, 0, 54, 64
2, 44760, Note_on_c, 0, 54, 0
2, 44760, Note_on_c, 0, 52, 64
2, 44880, Note_on_c, 0, 52, 0
2, 44880, Note_on_c, 0, 62, 0
2, 44880, Note_on_c, 0, 62, 64
2, 44880, Note_on_c, 0, 71, 64
2, 44880, Note_on_c, 0, 50, 64
2, 45000, Note_on_c, 0, 50, 0
2, 45000, Note_on_c, 0, 71, 0
2, 45000, Note_on_c, 0, 62, 0
2, 45000, Note_on_c, 0, 64, 64
2, 45000, Note_on_c, 0, 61, 64
2, 45000, Note_on_c, 0, 52, 64
2, 45120, Note_on_c, 0, 64, 0
2, 45120, Note_on_c, 0, 69, 64
2, 45240, Note_on_c, 0, 69, 0
2, 45240, Note_on_c, 0, 52, 0
2, 45240, Note_on_c, 0, 61, 0
2, 45240, Note_on_c, 0, 68, 64
2, 45240, Note_on_c, 0, 59, 64
2, 45240, Note_on_c, 0, 40, 64
2, 45360, Note_on_c, 0, 40, 0
2, 45360, Note_on_c, 0, 59, 0
2, 45360, Note_on_c, 0, 68, 0
2, 45360, Note_on_c, 0, 61, 64
2, 45360, Note_on_c, 0, 69, 64
2, 45360, Note_on_c, 0, 45, 64
2, 45480, Note_on_c, 0, 45, 0
2, 45480, Note_on_c, 0, 49, 64
2, 45600, Note_on_c, 0, 49, 0
2, 45600, Note_on_c, 0, 52, 64
2, 45720, Note_on_c, 0, 52, 0
2, 45720, Note_on_c, 0, 57, 64
2, 46080, Note_on_c, 0, 57, 0
2, 46080, Note_on_c, 0, 69, 0
2, 46080, Note_on_c, 0, 61, 0
2, 46080, Note_on_c, 0, 45, 64
2, 46200, Note_on_c, 0, 76, 64
2, 46260, Note_on_c, 0, 76, 0
2, 46260, Note_on_c, 0, 74, 64
2, 46320, Note_on_c, 0, 74, 0
2, 46320, Note_on_c, 0, 73, 64
2, 46380, Note_on_c, 0, 73, 0
2, 46380, Note_on_c, 0, 71, 64
2, 46440, Note_on_c, 0, 71, 0
2, 46440, Note_on_c, 0, 45, 0
2, 46440, Note_on_c, 0, 69, 64
2, 46560, Note_on_c, 0, 69, 0
2, 46560, Note_on_c, 0, 73, 64
2, 46680, Note_on_c, 0, 73, 0
2, 46680, Note_on_c, 0, 69, 64
2, 46800, Note_on_c, 0, 69, 0
2, 46800, Note_on_c, 0, 64, 64
2, 46920, Note_on_c, 0, 64, 0
2, 46920, Note_on_c, 0, 69, 64
2, 47040, Note_on_c, 0, 69, 0
2, 47040, Note_on_c, 0, 64, 64
2, 47160, Note_on_c, 0, 64, 0
2, 47160, Note_on_c, 0, 61, 64
2, 47280, Note_on_c, 0, 61, 0
2, 47280, Note_on_c, 0, 64, 64
2, 47400, Note_on_c, 0, 64, 0
2, 47400, Note_on_c, 0, 61, 64
2, 47520, Note_on_c, 0, 61, 0
2, 47520, Note_on_c, 0, 57, 64
2, 47640, Note_on_c, 0, 69, 64
2, 47700, Note_on_c, 0, 69, 0
2, 47700, Note_on_c, 0, 71, 64
2, 47760, Note_on_c, 0, 71, 0
2, 47760, Note_on_c, 0, 73, 64
2, 47820, Note_on_c, 0, 73, 0
2, 47820, Note_on_c, 0, 74, 64
2, 47880, Note_on_c, 0, 74, 0
2, 47880, Note_on_c, 0, 57, 0
2, 47880, Note_on_c, 0, 76, 64
2, 47880, Note_on_c, 0, 61, 64
2, 47880, Note_on_c, 0, 69, 64
2, 47880, Note_on_c, 0, 57, 64
2, 48000, Note_on_c, 0, 76, 0
2, 48000, Note_on_c, 0, 73, 64
2, 48120, Note_on_c, 0, 73, 0
2, 48120, Note_on_c, 0, 76, 64
2, 48240, Note_on_c, 0, 76, 0
2, 48240, Note_on_c, 0, 61, 0
2, 48240, Note_on_c, 0, 69, 0
2, 48240, Note_on_c, 0, 57, 0
2, 48240, Note_on_c, 0, 81, 64
2, 48240, Note_on_c, 0, 61, 64
2, 48240, Note_on_c, 0, 69, 64
2, 48240, Note_on_c, 0, 57, 64
2, 48300, Note_on_c, 0, 81, 0
2, 48300, Note_on_c, 0, 76, 64
2, 48360, Note_on_c, 0, 76, 0
2, 48360, Note_on_c, 0, 57, 0
2, 48360, Note_on_c, 0, 78, 64
2, 48420, Note_on_c, 0, 78, 0
2, 48420, Note_on_c, 0, 69, 0
2, 48420, Note_on_c, 0, 61, 0
2, 48420, Note_on_c, 0, 80, 64
2, 48420, Note_on_c, 0, 62, 64
2, 48420, Note_on_c, 0, 71, 64
2, 48480, Note_on_c, 0, 80, 0
2, 48480, Note_on_c, 0, 81, 64
2, 48540, Note_on_c, 0, 81, 0
2, 48540, Note_on_c, 0, 80, 64
2, 48600, Note_on_c, 0, 80, 0
2, 48600, Note_on_c, 0, 71, 0
2, 48600, Note_on_c, 0, 62, 0
2, 48600, Note_on_c, 0, 81, 64
2, 48600, Note_on_c, 0, 62, 64
2, 48600, Note_on_c, 0, 71, 64
2, 48660, Note_on_c, 0, 81, 0
2, 48660, Note_on_c, 0, 76, 64
2, 48720, Note_on_c, 0, 76, 0
2, 48720, Note_on_c, 0, 78, 64
2, 48780, Note_on_c, 0, 78, 0
2, 48780, Note_on_c, 0, 71, 0
2, 48780, Note_on_c, 0, 62, 0
2, 48780, Note_on_c, 0, 73, 64
2, 48780, Note_on_c, 0, 64, 64
2, 48780, Note_on_c, 0, 80, 64
2, 48840, Note_on_c, 0, 80, 0
2, 48840, Note_on_c, 0, 81, 64
2, 48900, Note_on_c, 0, 81, 0
2, 48900, Note_on_c, 0, 80, 64
2, 48960, Note_on_c, 0, 80, 0
2, 48960, Note_on_c, 0, 64, 0
2, 48960, Note_on_c, 0, 73, 0
2, 48960, Note_on_c, 0, 81, 64
2, 48960, Note_on_c, 0, 64, 64
2, 48960, Note_on_c, 0, 73, 64
2, 49080, Note_on_c, 0, 73, 0
2, 49080, Note_on_c, 0, 64, 0
2, 49080, Note_on_c, 0, 81, 0
2, 49080, Note_on_c, 0, 80, 64
2, 49080, Note_on_c, 0, 64, 64
2, 49140, Note_on_c, 0, 64, 0
2, 49140, Note_on_c, 0, 80, 0
2, 49140, Note_on_c, 0, 78, 64
2, 49140, Note_on_c, 0, 62, 64
2, 49200, Note_on_c, 0, 62, 0
2, 49200, Note_on_c, 0, 78, 0
2, 49200, Note_on_c, 0, 76, 64
2, 49200, Note_on_c, 0, 61, 64
2, 49260, Note_on_c, 0, 61, 0
2, 49260, Note_on_c, 0, 76, 0
2, 49260, Note_on_c, 0, 74, 64
2, 49260, Note_on_c, 0, 59, 64
2, 49320, Note_on_c, 0, 59, 0
2, 49320, Note_on_c, 0, 74, 0
2, 49320, Note_on_c, 0, 73, 64
2, 49320, Note_on_c, 0, 57, 64
2, 49380, Note_on_c, 0, 73, 0
2, 49380, Note_on_c, 0, 74, 64
2, 49440, Note_on_c, 0, 74, 0
2, 49440, Note_on_c, 0, 57, 0
2, 49440, Note_on_c, 0, 76, 64
2, 49440, Note_on_c, 0, 61, 64
2, 49500, Note_on_c, 0, 76, 0
2, 49500, Note_on_c, 0, 74, 64
2, 49560, Note_on_c, 0, 74, 0
2, 49560, Note_on_c, 0, 61, 0
2, 49560, Note_on_c, 0, 73, 64
2, 49560, Note_on_c, 0, 57, 64
2, 49620, Note_on_c, 0, 73, 0
2, 49620, Note_on_c, 0, 71, 64
2, 49670, Note_on_c, 0, 71, 0
2, 49680, Note_on_c, 0, 57, 0
2, 49680, Note_on_c, 0, 71, 74
2, 49680, Note_on_c, 0, 52, 64
2, 49710, Note_on_c, 0, 71, 0
2, 49710, Note_on_c, 0, 69, 50
2, 49740, Note_on_c, 0, 69, 0
2, 49740, Note_on_c, 0, 71, 50
2, 49770, Note_on_c, 0, 71, 0
2, 49770, Note_on_c, 0, 69, 51
2, 49800, Note_on_c, 0, 69, 0
2, 49800, Note_on_c, 0, 52, 0
2, 49800, Note_on_c, 0, 71, 52
2, 49800, Note_on_c, 0, 57, 64
2, 49830, Note_on_c, 0, 71, 0
2, 49830, Note_on_c, 0, 69, 52
2, 49860, Note_on_c, 0, 69, 0
2, 49860, Note_on_c, 0, 71, 53
2, 49890, Note_on_c, 0, 71, 0
2, 49890, Note_on_c, 0, 69, 54
2, 49920, Note_on_c, 0, 69, 0
2, 49920, Note_on_c, 0, 57, 0
2, 49920, Note_on_c, 0, 71, 54
2, 49920, Note_on_c, 0, 52, 64
2, 49950, Note_on_c, 0, 71, 0
2, 49950, Note_on_c, 0, 69, 55
2, 49980, Note_on_c, 0, 69, 0
2, 49980, Note_on_c, 0, 71, 56
2, 50010, Note_on_c, 0, 71, 0
2, 50010, Note_on_c, 0, 69, 56
2, 50040, Note_on_c, 0, 69, 0
2, 50040, Note_on_c, 0, 52, 0
2, 50040, Note_on_c, 0, 71, 57
2, 50040, Note_on_c, 0, 49, 64
2, 50070, Note_on_c, 0, 71, 0
2, 50070, Note_on_c, 0, 69, 58
2, 50100, Note_on_c, 0, 69, 0
2, 50100, Note_on_c, 0, 71, 58
2, 50130, Note_on_c, 0, 71, 0
2, 50130, Note_on_c, 0, 69, 59
2, 50160, Note_on_c, 0, 69, 0
2, 50160, Note_on_c, 0, 49, 0
2, 50160, Note_on_c, 0, 71, 60
2, 50160, Note_on_c, 0, 52, 64
2, 50190, Note_on_c, 0, 71, 0
2, 50190, Note_on_c, 0, 69, 60
2, 50220, Note_on_c, 0, 69, 0
2, 50220, Note_on_c, 0, 71, 61
2, 50250, Note_on_c, 0, 71, 0
2, 50250, Note_on_c, 0, 69, 62
2, 50280, Note_on_c, 0, 69, 0
2, 50280, Note_on_c, 0, 52, 0
2, 50280, Note_on_c, 0, 71, 62
2, 50280, Note_on_c, 0, 49, 64
2, 50310, Note_on_c, 0, 71, 0
2, 50310, Note_on_c, 0, 69, 63
2, 50340, Note_on_c, 0, 69, 0
2, 50340, Note_on_c, 0, 71, 82
2, 50370, Note_on_c, 0, 71, 0
2, 50370, Note_on_c, 0, 69, 73
2, 50400, Note_on_c, 0, 49, 0
2, 50400, Note_on_c, 0, 45, 64
2, 50460, Note_on_c, 0, 69, 0
2, 50460, Note_on_c, 0, 71, 64
2, 50520, Note_on_c, 0, 71, 0
2, 50520, Note_on_c, 0, 69, 64
2, 50580, Note_on_c, 0, 69, 0
2, 50580, Note_on_c, 0, 68, 64
2, 50640, Note_on_c, 0, 68, 0
2, 50640, Note_on_c, 0, 69, 64
2, 50700, Note_on_c, 0, 69, 0
2, 50700, Note_on_c, 0, 64, 64
2, 50760, Note_on_c, 0, 64, 0
2, 50760, Note_on_c, 0, 45, 0
2, 50760, Note_on_c, 0, 61, 64
2, 50760, Note_on_c, 0, 45, 64
2, 50760, Note_on_c, 0, 49, 64
2, 50760, Note_on_c, 0, 52, 64
2, 50820, Note_on_c, 0, 61, 0
2, 50820, Note_on_c, 0, 66, 64
2, 50880, Note_on_c, 0, 66, 0
2, 50880, Note_on_c, 0, 64, 64
2, 50940, Note_on_c, 0, 64, 0
2, 50940, Note_on_c, 0, 62, 64
2, 51000, Note_on_c, 0, 62, 0
2, 51000, Note_on_c, 0, 64, 64
2, 51060, Note_on_c, 0, 64, 0
2, 51060, Note_on_c, 0, 61, 64
2, 51120, Note_on_c, 0, 61, 0
2, 51120, Note_on_c, 0, 52, 0
2, 51120, Note_on_c, 0, 49, 0
2, 51120, Note_on_c, 0, 45, 0
2, 51120, Note_on_c, 0, 59, 72
2, 51120, Note_on_c, 0, 45, 64
2, 51120, Note_on_c, 0, 49, 64
2, 51120, Note_on_c, 0, 52, 64
2, 51150, Note_on_c, 0, 59, 0
2, 51150, Note_on_c, 0, 57, 72
2, 51180, Note_on_c, 0, 57, 0
2, 51180, Note_on_c, 0, 59, 50
2, 51210, Note_on_c, 0, 59, 0
2, 51210, Note_on_c, 0, 57, 51
2, 51240, Note_on_c, 0, 57, 0
2, 51240, Note_on_c, 0, 59, 51
2, 51270, Note_on_c, 0, 59, 0
2, 51270, Note_on_c, 0, 57, 52
2, 51300, Note_on_c, 0, 57, 0
2, 51300, Note_on_c, 0, 52, 0
2, 51300, Note_on_c, 0, 49, 0
2, 51300, Note_on_c, 0, 45, 0
2, 51300, Note_on_c, 0, 59, 53
2, 51300, Note_on_c, 0, 47, 64
2, 51300, Note_on_c, 0, 50, 64
2, 51330, Note_on_c, 0, 59, 0
2, 51330, Note_on_c, 0, 57, 53
2, 51360, Note_on_c, 0, 57, 0
2, 51360, Note_on_c, 0, 59, 54
2, 51390, Note_on_c, 0, 59, 0
2, 51390, Note_on_c, 0, 57, 55
2, 51420, Note_on_c, 0, 57, 0
2, 51420, Note_on_c, 0, 59, 55
2, 51450, Note_on_c, 0, 59, 0
2, 51450, Note_on_c, 0, 57, 56
2, 51480, Note_on_c, 0, 57, 0
2, 51480, Note_on_c, 0, 50, 0
2, 51480, Note_on_c, 0, 47, 0
2, 51480, Note_on_c, 0, 59, 57
2, 51480, Note_on_c, 0, 47, 64
2, 51480, Note_on_c, 0, 50, 64
2, 51510, Note_on_c, 0, 59, 0
2, 51510, Note_on_c, 0, 57, 57
2, 51540, Note_on_c, 0, 57, 0
2, 51540, Note_on_c, 0, 59, 58
2, 51570, Note_on_c, 0, 59, 0
2, 51570, Note_on_c, 0, 57, 59
2, 51600, Note_on_c, 0, 57, 0
2, 51600, Note_on_c, 0, 59, 59
2, 51630, Note_on_c, 0, 59, 0
2, 51630, Note_on_c, 0, 57, 60
2, 51660, Note_on_c, 0, 57, 0
2, 51660, Note_on_c, 0, 50, 0
2, 51660, Note_on_c, 0, 47, 0
2, 51660, Note_on_c, 0, 59, 61
2, 51660, Note_on_c, 0, 52, 64
2, 51660, Note_on_c, 0, 49, 64
2, 51690, Note_on_c, 0, 59, 0
2, 51690, Note_on_c, 0, 57, 62
2, 51720, Note_on_c, 0, 57, 0
2, 51720, Note_on_c, 0, 59, 62
2, 51750, Note_on_c, 0, 59, 0
2, 51750, Note_on_c, 0, 57, 63
2, 51780, Note_on_c, 0, 57, 0
2, 51780, Note_on_c, 0, 59, 63
2, 51810, Note_on_c, 0, 59, 0
2, 51810, Note_on_c, 0, 57, 79
2, 51840, Note_on_c, 0, 49, 0
2, 51840, Note_on_c, 0, 52, 0
2, 51840, Note_on_c, 0, 52, 64
2, 51840, Note_on_c, 0, 49, 64
2, 51890, Note_on_c, 0, 57, 0
2, 51960, Note_on_c, 0, 52, 0
2, 51960, Note_on_c, 0, 57, 64
2, 52020, Note_on_c, 0, 57, 0
2, 52020, Note_on_c, 0, 59, 64
2, 52080, Note_on_c, 0, 59, 0
2, 52080, Note_on_c, 0, 61, 64
2, 52140, Note_on_c, 0, 61, 0
2, 52140, Note_on_c, 0, 62, 64
2, 52200, Note_on_c, 0, 62, 0
2, 52200, Note_on_c, 0, 49, 0
2, 52200, Note_on_c, 0, 64, 64
2, 52320, Note_on_c, 0, 64, 0
2, 52320, Note_on_c, 0, 61, 64
2, 52440, Note_on_c, 0, 61, 0
2, 52440, Note_on_c, 0, 57, 64
2, 52440, Note_on_c, 0, 64, 64
2, 52560, Note_on_c, 0, 64, 0
2, 52560, Note_on_c, 0, 57, 0
2, 52560, Note_on_c, 0, 67, 64
2, 52560, Note_on_c, 0, 59, 64
2, 52680, Note_on_c, 0, 59, 0
2, 52680, Note_on_c, 0, 67, 0
2, 52680, Note_on_c, 0, 76, 64
2, 52680, Note_on_c, 0, 61, 64
2, 52740, Note_on_c, 0, 61, 0
2, 52740, Note_on_c, 0, 76, 0
2, 52740, Note_on_c, 0, 74, 64
2, 52740, Note_on_c, 0, 59, 64
2, 52800, Note_on_c, 0, 59, 0
2, 52800, Note_on_c, 0, 74, 0
2, 52800, Note_on_c, 0, 73, 64
2, 52800, Note_on_c, 0, 57, 64
2, 52860, Note_on_c, 0, 57, 0
2, 52860, Note_on_c, 0, 73, 0
2, 52860, Note_on_c, 0, 71, 64
2, 52860, Note_on_c, 0, 59, 64
2, 52920, Note_on_c, 0, 59, 0
2, 52920, Note_on_c, 0, 71, 0
2, 52920, Note_on_c, 0, 69, 64
2, 52920, Note_on_c, 0, 61, 64
2, 53040, Note_on_c, 0, 61, 0
2, 53040, Note_on_c, 0, 69, 0
2, 53040, Note_on_c, 0, 76, 64
2, 53040, Note_on_c, 0, 62, 64
2, 53100, Note_on_c, 0, 62, 0
2, 53100, Note_on_c, 0, 61, 64
2, 53160, Note_on_c, 0, 61, 0
2, 53160, Note_on_c, 0, 76, 0
2, 53160, Note_on_c, 0, 67, 64
2, 53160, Note_on_c, 0, 59, 64
2, 53220, Note_on_c, 0, 59, 0
2, 53220, Note_on_c, 0, 61, 64
2, 53280, Note_on_c, 0, 61, 0
2, 53280, Note_on_c, 0, 67, 0
2, 53280, Note_on_c, 0, 66, 64
2, 53280, Note_on_c, 0, 62, 64
2, 53400, Note_on_c, 0, 66, 0
2, 53400, Note_on_c, 0, 62, 64
2, 53460, Note_on_c, 0, 62, 0
2, 53460, Note_on_c, 0, 64, 64
2, 53520, Note_on_c, 0, 64, 0
2, 53520, Note_on_c, 0, 66, 64
2, 53580, Note_on_c, 0, 66, 0
2, 53580, Note_on_c, 0, 67, 64
2, 53640, Note_on_c, 0, 67, 0
2, 53640, Note_on_c, 0, 62, 0
2, 53640, Note_on_c, 0, 69, 64
2, 53760, Note_on_c, 0, 69, 0
2, 53760, Note_on_c, 0, 66, 64
2, 53880, Note_on_c, 0, 66, 0
2, 53880, Note_on_c, 0, 50, 64
2, 53880, Note_on_c, 0, 69, 64
2, 54000, Note_on_c, 0, 69, 0
2, 54000, Note_on_c, 0, 50, 0
2, 54000, Note_on_c, 0, 72, 64
2, 54000, Note_on_c, 0, 52, 64
2, 54120, Note_on_c, 0, 52, 0
2, 54120, Note_on_c, 0, 72, 0
2, 54120, Note_on_c, 0, 81, 64
2, 54120, Note_on_c, 0, 54, 64
2, 54180, Note_on_c, 0, 54, 0
2, 54180, Note_on_c, 0, 81, 0
2, 54180, Note_on_c, 0, 79, 64
2, 54180, Note_on_c, 0, 52, 64
2, 54240, Note_on_c, 0, 52, 0
2, 54240, Note_on_c, 0, 79, 0
2, 54240, Note_on_c, 0, 78, 64
2, 54240, Note_on_c, 0, 50, 64
2, 54300, Note_on_c, 0, 50, 0
2, 54300, Note_on_c, 0, 78, 0
2, 54300, Note_on_c, 0, 76, 64
2, 54300, Note_on_c, 0, 52, 64
2, 54360, Note_on_c, 0, 52, 0
2, 54360, Note_on_c, 0, 76, 0
2, 54360, Note_on_c, 0, 74, 64
2, 54360, Note_on_c, 0, 54, 64
2, 54480, Note_on_c, 0, 54, 0
2, 54480, Note_on_c, 0, 74, 0
2, 54480, Note_on_c, 0, 81, 64
2, 54480, Note_on_c, 0, 55, 64
2, 54540, Note_on_c, 0, 55, 0
2, 54540, Note_on_c, 0, 54, 64
2, 54600, Note_on_c, 0, 54, 0
2, 54600, Note_on_c, 0, 81, 0
2, 54600, Note_on_c, 0, 72, 64
2, 54600, Note_on_c, 0, 52, 64
2, 54660, Note_on_c, 0, 52, 0
2, 54660, Note_on_c, 0, 54, 64
2, 54720, Note_on_c, 0, 54, 0
2, 54720, Note_on_c, 0, 72, 0
2, 54720, Note_on_c, 0, 71, 64
2, 54720, Note_on_c, 0, 55, 64
2, 54840, Note_on_c, 0, 55, 0
2, 54840, Note_on_c, 0, 59, 64
2, 54900, Note_on_c, 0, 59, 0
2, 54900, Note_on_c, 0, 57, 64
2, 54960, Note_on_c, 0, 57, 0
2, 54960, Note_on_c, 0, 69, 64
2, 54960, Note_on_c, 0, 55, 64
2, 55020, Note_on_c, 0, 55, 0
2, 55020, Note_on_c, 0, 54, 64
2, 55080, Note_on_c, 0, 54, 0
2, 55080, Note_on_c, 0, 69, 0
2, 55080, Note_on_c, 0, 67, 64
2, 55080, Note_on_c, 0, 52, 64
2, 55200, Note_on_c, 0, 52, 0
2, 55200, Note_on_c, 0, 55, 64
2, 55260, Note_on_c, 0, 55, 0
2, 55260, Note_on_c, 0, 54, 64
2, 55320, Note_on_c, 0, 54, 0
2, 55320, Note_on_c, 0, 67, 0
2, 55320, Note_on_c, 0, 66, 64
2, 55320, Note_on_c, 0, 52, 64
2, 55380, Note_on_c, 0, 52, 0
2, 55380, Note_on_c, 0, 50, 64
2, 55440, Note_on_c, 0, 50, 0
2, 55440, Note_on_c, 0, 66, 0
2, 55440, Note_on_c, 0, 64, 64
2, 55440, Note_on_c, 0, 49, 64
2, 55560, Note_on_c, 0, 49, 0
2, 55560, Note_on_c, 0, 71, 0
2, 55560, Note_on_c, 0, 73, 64
2, 55560, Note_on_c, 0, 52, 64
2, 55620, Note_on_c, 0, 73, 0
2, 55620, Note_on_c, 0, 71, 64
2, 55680, Note_on_c, 0, 71, 0
2, 55680, Note_on_c, 0, 52, 0
2, 55680, Note_on_c, 0, 70, 64
2, 55680, Note_on_c, 0, 49, 64
2, 55740, Note_on_c, 0, 70, 0
2, 55740, Note_on_c, 0, 71, 64
2, 55800, Note_on_c, 0, 71, 0
2, 55800, Note_on_c, 0, 49, 0
2, 55800, Note_on_c, 0, 73, 64
2, 55800, Note_on_c, 0, 46, 64
2, 55920, Note_on_c, 0, 46, 0
2, 55920, Note_on_c, 0, 49, 64
2, 56040, Note_on_c, 0, 49, 0
2, 56040, Note_on_c, 0, 64, 0
2, 56040, Note_on_c, 0, 67, 64
2, 56040, Note_on_c, 0, 46, 64
2, 56160, Note_on_c, 0, 46, 0
2, 56160, Note_on_c, 0, 67, 0
2, 56160, Note_on_c, 0, 66, 64
2, 56160, Note_on_c, 0, 50, 64
2, 56280, Note_on_c, 0, 50, 0
2, 56280, Note_on_c, 0, 73, 0
2, 56280, Note_on_c, 0, 74, 64
2, 56280, Note_on_c, 0, 54, 64
2, 56340, Note_on_c, 0, 74, 0
2, 56340, Note_on_c, 0, 73, 64
2, 56400, Note_on_c, 0, 73, 0
2, 56400, Note_on_c, 0, 54, 0
2, 56400, Note_on_c, 0, 71, 64
2, 56400, Note_on_c, 0, 50, 64
2, 56460, Note_on_c, 0, 71, 0
2, 56460, Note_on_c, 0, 73, 64
2, 56520, Note_on_c, 0, 73, 0
2, 56520, Note_on_c, 0, 50, 0
2, 56520, Note_on_c, 0, 74, 64
2, 56520, Note_on_c, 0, 47, 64
2, 56640, Note_on_c, 0, 47, 0
2, 56640, Note_on_c, 0, 50, 64
2, 56760, Note_on_c, 0, 50, 0
2, 56760, Note_on_c, 0, 66, 0
2, 56760, Note_on_c, 0, 69, 64
2, 56760, Note_on_c, 0, 47, 64
2, 56880, Note_on_c, 0, 47, 0
2, 56880, Note_on_c, 0, 69, 0
2, 56880, Note_on_c, 0, 67, 64
2, 56880, Note_on_c, 0, 52, 64
2, 57000, Note_on_c, 0, 52, 0
2, 57000, Note_on_c, 0, 74, 0
2, 57000, Note_on_c, 0, 76, 64
2, 57000, Note_on_c, 0, 55, 64
2, 57060, Note_on_c, 0, 76, 0
2, 57060, Note_on_c, 0, 74, 64
2, 57120, Note_on_c, 0, 74, 0
2, 57120, Note_on_c, 0, 55, 0
2, 57120, Note_on_c, 0, 73, 64
2, 57120, Note_on_c, 0, 52, 64
2, 57180, Note_on_c, 0, 73, 0
2, 57180, Note_on_c, 0, 74, 64
2, 57240, Note_on_c, 0, 74, 0
2, 57240, Note_on_c, 0, 52, 0
2, 57240, Note_on_c, 0, 76, 64
2, 57240, Note_on_c, 0, 49, 64
2, 57360, Note_on_c, 0, 49, 0
2, 57360, Note_on_c, 0, 52, 64
2, 57480, Note_on_c, 0, 52, 0
2, 57480, Note_on_c, 0, 67, 0
2, 57480, Note_on_c, 0, 71, 64
2, 57480, Note_on_c, 0, 49, 64
2, 57600, Note_on_c, 0, 49, 0
2, 57600, Note_on_c, 0, 71, 0
2, 57600, Note_on_c, 0, 70, 64
2, 57600, Note_on_c, 0, 54, 64
2, 57720, Note_on_c, 0, 70, 0
2, 57720, Note_on_c, 0, 76, 0
2, 57720, Note_on_c, 0, 79, 64
2, 57780, Note_on_c, 0, 79, 0
2, 57780, Note_on_c, 0, 78, 64
2, 57840, Note_on_c, 0, 78, 0
2, 57840, Note_on_c, 0, 54, 0
2, 57840, Note_on_c, 0, 76, 64
2, 57840, Note_on_c, 0, 59, 64
2, 57900, Note_on_c, 0, 76, 0
2, 57900, Note_on_c, 0, 75, 64
2, 57960, Note_on_c, 0, 75, 0
2, 57960, Note_on_c, 0, 59, 0
2, 57960, Note_on_c, 0, 76, 64
2, 57960, Note_on_c, 0, 58, 64
2, 58080, Note_on_c, 0, 58, 0
2, 58080, Note_on_c, 0, 76, 0
2, 58080, Note_on_c, 0, 79, 64
2, 58080, Note_on_c, 0, 59, 64
2, 58200, Note_on_c, 0, 59, 0
2, 58200, Note_on_c, 0, 79, 0
2, 58200, Note_on_c, 0, 75, 64
2, 58200, Note_on_c, 0, 61, 64
2, 58320, Note_on_c, 0, 61, 0
2, 58320, Note_on_c, 0, 75, 0
2, 58320, Note_on_c, 0, 76, 64
2, 58320, Note_on_c, 0, 73, 64
2, 58320, Note_on_c, 0, 54, 64
2, 58440, Note_on_c, 0, 73, 0
2, 58440, Note_on_c, 0, 76, 0
2, 58440, Note_on_c, 0, 79, 64
2, 58500, Note_on_c, 0, 79, 0
2, 58500, Note_on_c, 0, 78, 64
2, 58560, Note_on_c, 0, 78, 0
2, 58560, Note_on_c, 0, 54, 0
2, 58560, Note_on_c, 0, 76, 64
2, 58560, Note_on_c, 0, 59, 64
2, 58620, Note_on_c, 0, 76, 0
2, 58620, Note_on_c, 0, 75, 64
2, 58680, Note_on_c, 0, 75, 0
2, 58680, Note_on_c, 0, 59, 0
2, 58680, Note_on_c, 0, 76, 64
2, 58680, Note_on_c, 0, 58, 64
2, 58800, Note_on_c, 0, 76, 0
2, 58800, Note_on_c, 0, 78, 64
2, 58860, Note_on_c, 0, 78, 0
2, 58860, Note_on_c, 0, 76, 64
2, 58920, Note_on_c, 0, 76, 0
2, 58920, Note_on_c, 0, 58, 0
2, 58920, Note_on_c, 0, 59, 64
2, 58920, Note_on_c, 0, 75, 64
2, 58980, Note_on_c, 0, 75, 0
2, 58980, Note_on_c, 0, 73, 64
2, 59040, Note_on_c, 0, 73, 0
2, 59040, Note_on_c, 0, 59, 0
2, 59040, Note_on_c, 0, 75, 64
2, 59040, Note_on_c, 0, 47, 64
2, 59160, Note_on_c, 0, 75, 0
2, 59160, Note_on_c, 0, 72, 64
2, 59220, Note_on_c, 0, 72, 0
2, 59220, Note_on_c, 0, 71, 64
2, 59280, Note_on_c, 0, 71, 0
2, 59280, Note_on_c, 0, 47, 0
2, 59280, Note_on_c, 0, 69, 64
2, 59280, Note_on_c, 0, 64, 64
2, 59340, Note_on_c, 0, 69, 0
2, 59340, Note_on_c, 0, 68, 64
2, 59400, Note_on_c, 0, 68, 0
2, 59400, Note_on_c, 0, 64, 0
2, 59400, Note_on_c, 0, 69, 64
2, 59400, Note_on_c, 0, 63, 64
2, 59520, Note_on_c, 0, 63, 0
2, 59520, Note_on_c, 0, 69, 0
2, 59520, Note_on_c, 0, 72, 64
2, 59520, Note_on_c, 0, 64, 64
2, 59640, Note_on_c, 0, 64, 0
2, 59640, Note_on_c, 0, 72, 0
2, 59640, Note_on_c, 0, 68, 64
2, 59640, Note_on_c, 0, 66, 64
2, 59760, Note_on_c, 0, 66, 0
2, 59760, Note_on_c, 0, 68, 0
2, 59760, Note_on_c, 0, 78, 64
2, 59760, Note_on_c, 0, 69, 64
2, 59760, Note_on_c, 0, 59, 64
2, 59880, Note_on_c, 0, 69, 0
2, 59880, Note_on_c, 0, 78, 0
2, 59880, Note_on_c, 0, 72, 64
2, 59940, Note_on_c, 0, 72, 0
2, 59940, Note_on_c, 0, 71, 64
2, 60000, Note_on_c, 0, 71, 0
2, 60000, Note_on_c, 0, 59, 0
2, 60000, Note_on_c, 0, 69, 64
2, 60000, Note_on_c, 0, 64, 64
2, 60060, Note_on_c, 0, 69, 0
2, 60060, Note_on_c, 0, 68, 64
2, 60120, Note_on_c, 0, 68, 0
2, 60120, Note_on_c, 0, 64, 0
2, 60120, Note_on_c, 0, 69, 64
2, 60120, Note_on_c, 0, 63, 64
2, 60240, Note_on_c, 0, 69, 0
2, 60240, Note_on_c, 0, 71, 64
2, 60300, Note_on_c, 0, 71, 0
2, 60300, Note_on_c, 0, 69, 64
2, 60360, Note_on_c, 0, 69, 0
2, 60360, Note_on_c, 0, 63, 0
2, 60360, Note_on_c, 0, 64, 64
2, 60360, Note_on_c, 0, 67, 64
2, 60420, Note_on_c, 0, 67, 0
2, 60420, Note_on_c, 0, 66, 64
2, 60480, Note_on_c, 0, 66, 0
2, 60480, Note_on_c, 0, 64, 0
2, 60480, Note_on_c, 0, 67, 64
2, 60480, Note_on_c, 0, 52, 64
2, 60540, Note_on_c, 0, 52, 0
2, 60540, Note_on_c, 0, 71, 64
2, 60540, Note_on_c, 0, 55, 64
2, 60600, Note_on_c, 0, 55, 0
2, 60600, Note_on_c, 0, 71, 0
2, 60600, Note_on_c, 0, 67, 0
2, 60600, Note_on_c, 0, 73, 64
2, 60600, Note_on_c, 0, 57, 64
2, 60660, Note_on_c, 0, 57, 0
2, 60660, Note_on_c, 0, 73, 0
2, 60660, Note_on_c, 0, 75, 64
2, 60660, Note_on_c, 0, 59, 64
2, 60720, Note_on_c, 0, 59, 0
2, 60720, Note_on_c, 0, 75, 0
2, 60720, Note_on_c, 0, 76, 64
2, 60720, Note_on_c, 0, 61, 64
2, 60780, Note_on_c, 0, 61, 0
2, 60780, Note_on_c, 0, 76, 0
2, 60780, Note_on_c, 0, 78, 64
2, 60780, Note_on_c, 0, 63, 64
2, 60840, Note_on_c, 0, 63, 0
2, 60840, Note_on_c, 0, 78, 0
2, 60840, Note_on_c, 0, 79, 64
2, 60840, Note_on_c, 0, 64, 64
2, 60900, Note_on_c, 0, 79, 0
2, 60900, Note_on_c, 0, 78, 64
2, 60960, Note_on_c, 0, 78, 0
2, 60960, Note_on_c, 0, 64, 0
2, 60960, Note_on_c, 0, 76, 64
2, 60960, Note_on_c, 0, 67, 64
2, 61020, Note_on_c, 0, 76, 0
2, 61020, Note_on_c, 0, 74, 64
2, 61080, Note_on_c, 0, 74, 0
2, 61080, Note_on_c, 0, 67, 0
2, 61080, Note_on_c, 0, 73, 64
2, 61080, Note_on_c, 0, 64, 64
2, 61140, Note_on_c, 0, 73, 0
2, 61140, Note_on_c, 0, 71, 64
2, 61200, Note_on_c, 0, 71, 0
2, 61200, Note_on_c, 0, 64, 0
2, 61200, Note_on_c, 0, 76, 64
2, 61200, Note_on_c, 0, 61, 64
2, 61260, Note_on_c, 0, 76, 0
2, 61260, Note_on_c, 0, 74, 64
2, 61320, Note_on_c, 0, 74, 0
2, 61320, Note_on_c, 0, 61, 0
2, 61320, Note_on_c, 0, 73, 64
2, 61320, Note_on_c, 0, 64, 64
2, 61380, Note_on_c, 0, 73, 0
2, 61380, Note_on_c, 0, 71, 64
2, 61440, Note_on_c, 0, 71, 0
2, 61440, Note_on_c, 0, 64, 0
2, 61440, Note_on_c, 0, 69, 64
2, 61440, Note_on_c, 0, 61, 64
2, 61500, Note_on_c, 0, 69, 0
2, 61500, Note_on_c, 0, 68, 64
2, 61560, Note_on_c, 0, 68, 0
2, 61560, Note_on_c, 0, 61, 0
2, 61560, Note_on_c, 0, 73, 64
2, 61560, Note_on_c, 0, 57, 64
2, 61620, Note_on_c, 0, 73, 0
2, 61620, Note_on_c, 0, 71, 64
2, 61680, Note_on_c, 0, 71, 0
2, 61680, Note_on_c, 0, 57, 0
2, 61680, Note_on_c, 0, 69, 64
2, 61680, Note_on_c, 0, 61, 64
2, 61740, Note_on_c, 0, 69, 0
2, 61740, Note_on_c, 0, 67, 64
2, 61800, Note_on_c, 0, 67, 0
2, 61800, Note_on_c, 0, 61, 0
2, 61800, Note_on_c, 0, 57, 64
2, 61800, Note_on_c, 0, 66, 64
2, 61860, Note_on_c, 0, 66, 0
2, 61860, Note_on_c, 0, 64, 64
2, 61920, Note_on_c, 0, 64, 0
2, 61920, Note_on_c, 0, 57, 0
2, 61920, Note_on_c, 0, 66, 64
2, 61920, Note_on_c, 0, 50, 64
2, 61980, Note_on_c, 0, 50, 0
2, 61980, Note_on_c, 0, 66, 0
2, 61980, Note_on_c, 0, 69, 64
2, 61980, Note_on_c, 0, 54, 64
2, 62040, Note_on_c, 0, 54, 0
2, 62040, Note_on_c, 0, 69, 0
2, 62040, Note_on_c, 0, 71, 64
2, 62040, Note_on_c, 0, 55, 64
2, 62100, Note_on_c, 0, 55, 0
2, 62100, Note_on_c, 0, 71, 0
2, 62100, Note_on_c, 0, 73, 64
2, 62100, Note_on_c, 0, 57, 64
2, 62160, Note_on_c, 0, 57, 0
2, 62160, Note_on_c, 0, 73, 0
2, 62160, Note_on_c, 0, 74, 64
2, 62160, Note_on_c, 0, 59, 64
2, 62220, Note_on_c, 0, 59, 0
2, 62220, Note_on_c, 0, 74, 0
2, 62220, Note_on_c, 0, 76, 64
2, 62220, Note_on_c, 0, 61, 64
2, 62280, Note_on_c, 0, 61, 0
2, 62280, Note_on_c, 0, 76, 0
2, 62280, Note_on_c, 0, 78, 64
2, 62280, Note_on_c, 0, 62, 64
2, 62340, Note_on_c, 0, 78, 0
2, 62340, Note_on_c, 0, 76, 64
2, 62400, Note_on_c, 0, 76, 0
2, 62400, Note_on_c, 0, 74, 64
2, 62460, Note_on_c, 0, 74, 0
2, 62460, Note_on_c, 0, 73, 64
2, 62520, Note_on_c, 0, 73, 0
2, 62520, Note_on_c, 0, 71, 64
2, 62580, Note_on_c, 0, 71, 0
2, 62580, Note_on_c, 0, 69, 64
2, 62640, Note_on_c, 0, 69, 0
2, 62640, Note_on_c, 0, 68, 64
2, 62700, Note_on_c, 0, 68, 0
2, 62700, Note_on_c, 0, 71, 64
2, 62760, Note_on_c, 0, 71, 0
2, 62760, Note_on_c, 0, 62, 0
2, 62760, Note_on_c, 0, 76, 64
2, 62760, Note_on_c, 0, 61, 64
2, 62820, Note_on_c, 0, 76, 0
2, 62820, Note_on_c, 0, 74, 64
2, 62880, Note_on_c, 0, 74, 0
2, 62880, Note_on_c, 0, 61, 0
2, 62880, Note_on_c, 0, 76, 64
2, 62880, Note_on_c, 0, 59, 64
2, 62940, Note_on_c, 0, 67, 64
2, 63000, Note_on_c, 0, 67, 0
2, 63000, Note_on_c, 0, 59, 0
2, 63000, Note_on_c, 0, 66, 64
2, 63000, Note_on_c, 0, 58, 64
2, 63060, Note_on_c, 0, 58, 0
2, 63060, Note_on_c, 0, 76, 0
2, 63060, Note_on_c, 0, 70, 64
2, 63060, Note_on_c, 0, 61, 64
2, 63120, Note_on_c, 0, 61, 0
2, 63120, Note_on_c, 0, 70, 0
2, 63120, Note_on_c, 0, 73, 64
2, 63120, Note_on_c, 0, 59, 64
2, 63180, Note_on_c, 0, 59, 0
2, 63180, Note_on_c, 0, 74, 64
2, 63180, Note_on_c, 0, 58, 64
2, 63240, Note_on_c, 0, 58, 0
2, 63240, Note_on_c, 0, 74, 0
2, 63240, Note_on_c, 0, 76, 64
2, 63240, Note_on_c, 0, 56, 64
2, 63300, Note_on_c, 0, 56, 0
2, 63300, Note_on_c, 0, 54, 64
2, 63360, Note_on_c, 0, 54, 0
2, 63360, Note_on_c, 0, 59, 64
2, 63410, Note_on_c, 0, 66, 0
2, 63420, Note_on_c, 0, 73, 0
2, 63420, Note_on_c, 0, 76, 0
2, 63420, Note_on_c, 0, 66, 64
2, 63480, Note_on_c, 0, 66, 0
2, 63480, Note_on_c, 0, 59, 0
2, 63480, Note_on_c, 0, 68, 64
2, 63480, Note_on_c, 0, 54, 64
2, 63540, Note_on_c, 0, 68, 0
2, 63540, Note_on_c, 0, 70, 64
2, 63600, Note_on_c, 0, 70, 0
2, 63600, Note_on_c, 0, 54, 0
2, 63600, Note_on_c, 0, 71, 64
2, 63600, Note_on_c, 0, 50, 64
2, 63660, Note_on_c, 0, 71, 0
2, 63660, Note_on_c, 0, 73, 64
2, 63720, Note_on_c, 0, 73, 0
2, 63720, Note_on_c, 0, 50, 0
2, 63720, Note_on_c, 0, 74, 64
2, 63720, Note_on_c, 0, 47, 64
2, 63780, Note_on_c, 0, 74, 0
2, 63780, Note_on_c, 0, 73, 64
2, 63840, Note_on_c, 0, 73, 0
2, 63840, Note_on_c, 0, 47, 0
2, 63840, Note_on_c, 0, 71, 64
2, 63840, Note_on_c, 0, 49, 64
2, 63900, Note_on_c, 0, 49, 0
2, 63900, Note_on_c, 0, 71, 0
2, 63900, Note_on_c, 0, 69, 64
2, 63900, Note_on_c, 0, 50, 64
2, 63960, Note_on_c, 0, 50, 0
2, 63960, Note_on_c, 0, 69, 0
2, 63960, Note_on_c, 0, 67, 64
2, 63960, Note_on_c, 0, 52, 64
2, 64020, Note_on_c, 0, 52, 0
2, 64020, Note_on_c, 0, 67, 0
2, 64020, Note_on_c, 0, 66, 64
2, 64020, Note_on_c, 0, 54, 64
2, 64080, Note_on_c, 0, 54, 0
2, 64080, Note_on_c, 0, 66, 0
2, 64080, Note_on_c, 0, 71, 64
2, 64080, Note_on_c, 0, 55, 64
2, 64140, Note_on_c, 0, 55, 0
2, 64140, Note_on_c, 0, 71, 0
2, 64140, Note_on_c, 0, 69, 64
2, 64140, Note_on_c, 0, 57, 64
2, 64200, Note_on_c, 0, 57, 0
2, 64200, Note_on_c, 0, 69, 0
2, 64200, Note_on_c, 0, 67, 64
2, 64200, Note_on_c, 0, 59, 64
2, 64260, Note_on_c, 0, 59, 0
2, 64260, Note_on_c, 0, 67, 0
2, 64260, Note_on_c, 0, 66, 64
2, 64260, Note_on_c, 0, 57, 64
2, 64320, Note_on_c, 0, 57, 0
2, 64320, Note_on_c, 0, 66, 0
2, 64320, Note_on_c, 0, 64, 64
2, 64320, Note_on_c, 0, 55, 64
2, 64380, Note_on_c, 0, 55, 0
2, 64380, Note_on_c, 0, 64, 0
2, 64380, Note_on_c, 0, 62, 64
2, 64380, Note_on_c, 0, 54, 64
2, 64440, Note_on_c, 0, 54, 0
2, 64440, Note_on_c, 0, 62, 0
2, 64440, Note_on_c, 0, 67, 64
2, 64440, Note_on_c, 0, 52, 64
2, 64500, Note_on_c, 0, 52, 0
2, 64500, Note_on_c, 0, 67, 0
2, 64500, Note_on_c, 0, 66, 64
2, 64500, Note_on_c, 0, 54, 64
2, 64560, Note_on_c, 0, 54, 0
2, 64560, Note_on_c, 0, 66, 0
2, 64560, Note_on_c, 0, 64, 64
2, 64560, Note_on_c, 0, 55, 64
2, 64620, Note_on_c, 0, 55, 0
2, 64620, Note_on_c, 0, 64, 0
2, 64620, Note_on_c, 0, 62, 64
2, 64620, Note_on_c, 0, 54, 64
2, 64680, Note_on_c, 0, 54, 0
2, 64680, Note_on_c, 0, 62, 0
2, 64680, Note_on_c, 0, 61, 64
2, 64680, Note_on_c, 0, 55, 64
2, 64740, Note_on_c, 0, 55, 0
2, 64740, Note_on_c, 0, 61, 0
2, 64740, Note_on_c, 0, 52, 64
2, 64740, Note_on_c, 0, 64, 64
2, 64800, Note_on_c, 0, 64, 0
2, 64800, Note_on_c, 0, 52, 0
2, 64800, Note_on_c, 0, 58, 64
2, 64800, Note_on_c, 0, 54, 64
2, 64920, Note_on_c, 0, 58, 0
2, 64920, Note_on_c, 0, 79, 64
2, 64980, Note_on_c, 0, 79, 0
2, 64980, Note_on_c, 0, 78, 64
2, 65040, Note_on_c, 0, 78, 0
2, 65040, Note_on_c, 0, 54, 0
2, 65040, Note_on_c, 0, 76, 64
2, 65040, Note_on_c, 0, 42, 64
2, 65100, Note_on_c, 0, 76, 0
2, 65100, Note_on_c, 0, 74, 64
2, 65160, Note_on_c, 0, 74, 0
2, 65160, Note_on_c, 0, 42, 0
2, 65160, Note_on_c, 0, 73, 64
2, 65160, Note_on_c, 0, 70, 64
2, 65160, Note_on_c, 0, 42, 64
2, 65280, Note_on_c, 0, 73, 0
2, 65280, Note_on_c, 0, 76, 64
2, 65400, Note_on_c, 0, 76, 0
2, 65400, Note_on_c, 0, 42, 0
2, 65400, Note_on_c, 0, 73, 64
2, 65400, Note_on_c, 0, 42, 64
2, 65520, Note_on_c, 0, 42, 0
2, 65520, Note_on_c, 0, 73, 0
2, 65520, Note_on_c, 0, 70, 64
2, 65520, Note_on_c, 0, 64, 64
2, 65520, Note_on_c, 0, 42, 64
2, 65521, Note_on_c, 0, 70, 0
2, 65640, Note_on_c, 0, 70, 0
2, 65640, Note_on_c, 0, 73, 64
2, 65760, Note_on_c, 0, 73, 0
2, 65760, Note_on_c, 0, 70, 64
2, 65880, Note_on_c, 0, 70, 0
2, 65880, Note_on_c, 0, 64, 0
2, 65880, Note_on_c, 0, 42, 0
2, 65880, Note_on_c, 0, 61, 64
2, 65880, Note_on_c, 0, 64, 64
2, 66000, Note_on_c, 0, 64, 0
2, 66000, Note_on_c, 0, 70, 64
2, 66060, Note_on_c, 0, 49, 64
2, 66120, Note_on_c, 0, 49, 0
2, 66120, Note_on_c, 0, 70, 0
2, 66120, Note_on_c, 0, 64, 64
2, 66120, Note_on_c, 0, 50, 64
2, 66180, Note_on_c, 0, 50, 0
2, 66180, Note_on_c, 0, 52, 64
2, 66240, Note_on_c, 0, 52, 0
2, 66240, Note_on_c, 0, 64, 0
2, 66240, Note_on_c, 0, 62, 64
2, 66240, Note_on_c, 0, 54, 64
2, 66360, Note_on_c, 0, 62, 0
2, 66360, Note_on_c, 0, 61, 0
2, 66360, Note_on_c, 0, 59, 64
2, 66420, Note_on_c, 0, 59, 0
2, 66420, Note_on_c, 0, 61, 64
2, 66480, Note_on_c, 0, 61, 0
2, 66480, Note_on_c, 0, 54, 0
2, 66480, Note_on_c, 0, 62, 64
2, 66480, Note_on_c, 0, 42, 64
2, 66540, Note_on_c, 0, 62, 0
2, 66540, Note_on_c, 0, 64, 64
2, 66600, Note_on_c, 0, 64, 0
2, 66600, Note_on_c, 0, 42, 0
2, 66600, Note_on_c, 0, 71, 64
2, 66600, Note_on_c, 0, 66, 64
2, 66600, Note_on_c, 0, 42, 64
2, 66720, Note_on_c, 0, 66, 0
2, 66720, Note_on_c, 0, 62, 64
2, 66840, Note_on_c, 0, 62, 0
2, 66840, Note_on_c, 0, 42, 0
2, 66840, Note_on_c, 0, 66, 64
2, 66840, Note_on_c, 0, 42, 64
2, 66960, Note_on_c, 0, 42, 0
2, 66960, Note_on_c, 0, 66, 0
2, 66960, Note_on_c, 0, 71, 0
2, 66960, Note_on_c, 0, 74, 64
2, 66960, Note_on_c, 0, 71, 64
2, 66960, Note_on_c, 0, 42, 64
2, 67080, Note_on_c, 0, 71, 0
2, 67080, Note_on_c, 0, 66, 64
2, 67200, Note_on_c, 0, 66, 0
2, 67200, Note_on_c, 0, 71, 64
2, 67320, Note_on_c, 0, 71, 0
2, 67320, Note_on_c, 0, 42, 0
2, 67320, Note_on_c, 0, 74, 0
2, 67320, Note_on_c, 0, 77, 64
2, 67320, Note_on_c, 0, 74, 64
2, 67440, Note_on_c, 0, 74, 0
2, 67440, Note_on_c, 0, 71, 64
2, 67560, Note_on_c, 0, 71, 0
2, 67560, Note_on_c, 0, 74, 64
2, 67680, Note_on_c, 0, 74, 0
2, 67680, Note_on_c, 0, 77, 0
2, 67680, Note_on_c, 0, 73, 64
2, 67680, Note_on_c, 0, 78, 64
2, 67800, Note_on_c, 0, 73, 0
2, 67800, Note_on_c, 0, 70, 64
2, 67860, Note_on_c, 0, 50, 64
2, 67920, Note_on_c, 0, 50, 0
2, 67920, Note_on_c, 0, 70, 0
2, 67920, Note_on_c, 0, 78, 0
2, 67920, Note_on_c, 0, 73, 64
2, 67920, Note_on_c, 0, 76, 64
2, 67920, Note_on_c, 0, 52, 64
2, 67980, Note_on_c, 0, 52, 0
2, 67980, Note_on_c, 0, 54, 64
2, 68040, Note_on_c, 0, 54, 0
2, 68040, Note_on_c, 0, 76, 0
2, 68040, Note_on_c, 0, 73, 0
2, 68040, Note_on_c, 0, 71, 64
2, 68040, Note_on_c, 0, 74, 64
2, 68040, Note_on_c, 0, 55, 64
2, 68160, Note_on_c, 0, 55, 0
2, 68160, Note_on_c, 0, 54, 64
2, 68280, Note_on_c, 0, 54, 0
2, 68280, Note_on_c, 0, 74, 0
2, 68280, Note_on_c, 0, 79, 64
2, 68280, Note_on_c, 0, 52, 64
2, 68400, Note_on_c, 0, 52, 0
2, 68400, Note_on_c, 0, 79, 0
2, 68400, Note_on_c, 0, 71, 0
2, 68400, Note_on_c, 0, 71, 64
2, 68400, Note_on_c, 0, 74, 64
2, 68400, Note_on_c, 0, 54, 64
2, 68760, Note_on_c, 0, 54, 0
2, 68760, Note_on_c, 0, 74, 0
2, 68760, Note_on_c, 0, 71, 0
2, 68760, Note_on_c, 0, 74, 64
2, 68760, Note_on_c, 0, 70, 64
2, 68760, Note_on_c, 0, 42, 64
2, 68790, Note_on_c, 0, 74, 0
2, 68792, Note_on_c, 0, 73, 64
2, 68822, Note_on_c, 0, 73, 0
2, 68824, Note_on_c, 0, 74, 64
2, 68850, Note_on_c, 0, 73, 64
2, 68854, Note_on_c, 0, 74, 0
2, 68880, Note_on_c, 0, 73, 0
2, 68880, Note_on_c, 0, 71, 64
2, 69000, Note_on_c, 0, 71, 0
2, 69000, Note_on_c, 0, 73, 64
2, 69120, Note_on_c, 0, 73, 0
2, 69120, Note_on_c, 0, 42, 0
2, 69120, Note_on_c, 0, 70, 0
2, 69120, Note_on_c, 0, 71, 64
2, 69120, Note_on_c, 0, 47, 64
2, 69240, Note_on_c, 0, 71, 0
2, 69240, Note_on_c, 0, 74, 64
2, 69300, Note_on_c, 0, 74, 0
2, 69300, Note_on_c, 0, 73, 64
2, 69360, Note_on_c, 0, 73, 0
2, 69360, Note_on_c, 0, 47, 0
2, 69360, Note_on_c, 0, 71, 64
2, 69360, Note_on_c, 0, 54, 64
2, 69420, Note_on_c, 0, 71, 0
2, 69420, Note_on_c, 0, 69, 64
2, 69480, Note_on_c, 0, 69, 0
2, 69480, Note_on_c, 0, 54, 0
2, 69480, Note_on_c, 0, 59, 64
2, 69480, Note_on_c, 0, 67, 64
2, 69510, Note_on_c, 0, 59, 0
2, 69512, Note_on_c, 0, 57, 64
2, 69540, Note_on_c, 0, 59, 64
2, 69542, Note_on_c, 0, 57, 0
2, 69600, Note_on_c, 0, 67, 0
2, 69600, Note_on_c, 0, 71, 64
2, 69660, Note_on_c, 0, 71, 0
2, 69660, Note_on_c, 0, 69, 64
2, 69720, Note_on_c, 0, 69, 0
2, 69720, Note_on_c, 0, 67, 64
2, 69780, Note_on_c, 0, 67, 0
2, 69780, Note_on_c, 0, 66, 64
2, 69840, Note_on_c, 0, 66, 0
2, 69840, Note_on_c, 0, 64, 64
2, 69960, Note_on_c, 0, 64, 0
2, 69960, Note_on_c, 0, 59, 0
2, 69960, Note_on_c, 0, 67, 64
2, 69960, Note_on_c, 0, 60, 64
2, 70020, Note_on_c, 0, 60, 0
2, 70020, Note_on_c, 0, 59, 64
2, 70080, Note_on_c, 0, 59, 0
2, 70080, Note_on_c, 0, 67, 0
2, 70080, Note_on_c, 0, 72, 64
2, 70080, Note_on_c, 0, 57, 64
2, 70140, Note_on_c, 0, 57, 0
2, 70140, Note_on_c, 0, 55, 64
2, 70200, Note_on_c, 0, 55, 0
2, 70200, Note_on_c, 0, 72, 0
2, 70200, Note_on_c, 0, 72, 64
2, 70200, Note_on_c, 0, 54, 64
2, 70320, Note_on_c, 0, 54, 0
2, 70320, Note_on_c, 0, 69, 64
2, 70320, Note_on_c, 0, 55, 64
2, 70380, Note_on_c, 0, 55, 0
2, 70380, Note_on_c, 0, 54, 64
2, 70440, Note_on_c, 0, 54, 0
2, 70440, Note_on_c, 0, 69, 0
2, 70440, Note_on_c, 0, 66, 64
2, 70440, Note_on_c, 0, 52, 64
2, 70500, Note_on_c, 0, 52, 0
2, 70500, Note_on_c, 0, 50, 64
2, 70560, Note_on_c, 0, 50, 0
2, 70560, Note_on_c, 0, 66, 0
2, 70560, Note_on_c, 0, 62, 64
2, 70560, Note_on_c, 0, 55, 64
2, 70620, Note_on_c, 0, 55, 0
2, 70620, Note_on_c, 0, 57, 64
2, 70680, Note_on_c, 0, 57, 0
2, 70680, Note_on_c, 0, 62, 0
2, 70680, Note_on_c, 0, 67, 64
2, 70680, Note_on_c, 0, 59, 64
2, 70740, Note_on_c, 0, 59, 0
2, 70740, Note_on_c, 0, 55, 64
2, 70800, Note_on_c, 0, 55, 0
2, 70800, Note_on_c, 0, 72, 0
2, 70800, Note_on_c, 0, 71, 64
2, 70800, Note_on_c, 0, 54, 64
2, 70860, Note_on_c, 0, 54, 0
2, 70860, Note_on_c, 0, 55, 64
2, 70920, Note_on_c, 0, 55, 0
2, 70920, Note_on_c, 0, 71, 0
2, 70920, Note_on_c, 0, 71, 64
2, 70920, Note_on_c, 0, 49, 64
2, 70980, Note_on_c, 0, 67, 0
2, 70980, Note_on_c, 0, 69, 64
2, 71040, Note_on_c, 0, 69, 0
2, 71040, Note_on_c, 0, 49, 0
2, 71040, Note_on_c, 0, 67, 64
2, 71040, Note_on_c, 0, 52, 64
2, 71100, Note_on_c, 0, 67, 0
2, 71100, Note_on_c, 0, 66, 64
2, 71160, Note_on_c, 0, 66, 0
2, 71160, Note_on_c, 0, 52, 0
2, 71160, Note_on_c, 0, 64, 64
2, 71160, Note_on_c, 0, 49, 64
2, 71220, Note_on_c, 0, 64, 0
2, 71220, Note_on_c, 0, 62, 64
2, 71280, Note_on_c, 0, 62, 0
2, 71280, Note_on_c, 0, 49, 0
2, 71280, Note_on_c, 0, 61, 64
2, 71280, Note_on_c, 0, 54, 64
2, 71340, Note_on_c, 0, 54, 0
2, 71340, Note_on_c, 0, 55, 64
2, 71400, Note_on_c, 0, 55, 0
2, 71400, Note_on_c, 0, 61, 0
2, 71400, Note_on_c, 0, 66, 64
2, 71400, Note_on_c, 0, 57, 64
2, 71460, Note_on_c, 0, 57, 0
2, 71460, Note_on_c, 0, 54, 64
2, 71520, Note_on_c, 0, 54, 0
2, 71520, Note_on_c, 0, 71, 0
2, 71520, Note_on_c, 0, 69, 64
2, 71520, Note_on_c, 0, 52, 64
2, 71580, Note_on_c, 0, 52, 0
2, 71580, Note_on_c, 0, 54, 64
2, 71640, Note_on_c, 0, 54, 0
2, 71640, Note_on_c, 0, 69, 0
2, 71640, Note_on_c, 0, 69, 64
2, 71640, Note_on_c, 0, 47, 64
2, 71700, Note_on_c, 0, 66, 0
2, 71700, Note_on_c, 0, 67, 64
2, 71760, Note_on_c, 0, 67, 0
2, 71760, Note_on_c, 0, 47, 0
2, 71760, Note_on_c, 0, 66, 64
2, 71760, Note_on_c, 0, 50, 64
2, 71820, Note_on_c, 0, 66, 0
2, 71820, Note_on_c, 0, 64, 64
2, 71880, Note_on_c, 0, 64, 0
2, 71880, Note_on_c, 0, 50, 0
2, 71880, Note_on_c, 0, 62, 64
2, 71880, Note_on_c, 0, 47, 64
2, 71940, Note_on_c, 0, 62, 0
2, 71940, Note_on_c, 0, 61, 64
2, 72000, Note_on_c, 0, 61, 0
2, 72000, Note_on_c, 0, 47, 0
2, 72000, Note_on_c, 0, 59, 64
2, 72000, Note_on_c, 0, 52, 64
2, 72060, Note_on_c, 0, 52, 0
2, 72060, Note_on_c, 0, 54, 64
2, 72120, Note_on_c, 0, 54, 0
2, 72120, Note_on_c, 0, 59, 0
2, 72120, Note_on_c, 0, 64, 64
2, 72120, Note_on_c, 0, 55, 64
2, 72180, Note_on_c, 0, 55, 0
2, 72180, Note_on_c, 0, 52, 64
2, 72240, Note_on_c, 0, 52, 0
2, 72240, Note_on_c, 0, 69, 0
2, 72240, Note_on_c, 0, 67, 64
2, 72240, Note_on_c, 0, 50, 64
2, 72300, Note_on_c, 0, 50, 0
2, 72300, Note_on_c, 0, 52, 64
2, 72360, Note_on_c, 0, 52, 0
2, 72360, Note_on_c, 0, 67, 0
2, 72360, Note_on_c, 0, 67, 64
2, 72360, Note_on_c, 0, 45, 64
2, 72420, Note_on_c, 0, 64, 0
2, 72420, Note_on_c, 0, 66, 64
2, 72480, Note_on_c, 0, 66, 0
2, 72480, Note_on_c, 0, 45, 0
2, 72480, Note_on_c, 0, 64, 64
2, 72480, Note_on_c, 0, 49, 64
2, 72540, Note_on_c, 0, 64, 0
2, 72540, Note_on_c, 0, 62, 64
2, 72600, Note_on_c, 0, 62, 0
2, 72600, Note_on_c, 0, 49, 0
2, 72600, Note_on_c, 0, 61, 64
2, 72600, Note_on_c, 0, 45, 64
2, 72660, Note_on_c, 0, 61, 0
2, 72660, Note_on_c, 0, 59, 64
2, 72720, Note_on_c, 0, 59, 0
2, 72720, Note_on_c, 0, 45, 0
2, 72720, Note_on_c, 0, 57, 64
2, 72720, Note_on_c, 0, 50, 64
2, 72780, Note_on_c, 0, 50, 0
2, 72780, Note_on_c, 0, 52, 64
2, 72840, Note_on_c, 0, 52, 0
2, 72840, Note_on_c, 0, 57, 0
2, 72840, Note_on_c, 0, 62, 64
2, 72840, Note_on_c, 0, 54, 64
2, 72900, Note_on_c, 0, 54, 0
2, 72900, Note_on_c, 0, 50, 64
2, 72960, Note_on_c, 0, 50, 0
2, 72960, Note_on_c, 0, 67, 0
2, 72960, Note_on_c, 0, 66, 64
2, 72960, Note_on_c, 0, 49, 64
2, 73020, Note_on_c, 0, 49, 0
2, 73020, Note_on_c, 0, 50, 64
2, 73080, Note_on_c, 0, 50, 0
2, 73080, Note_on_c, 0, 47, 64
2, 73140, Note_on_c, 0, 47, 0
2, 73140, Note_on_c, 0, 48, 64
2, 73200, Note_on_c, 0, 48, 0
2, 73200, Note_on_c, 0, 66, 0
2, 73200, Note_on_c, 0, 66, 64
2, 73200, Note_on_c, 0, 50, 64
2, 73260, Note_on_c, 0, 50, 0
2, 73260, Note_on_c, 0, 47, 64
2, 73320, Note_on_c, 0, 47, 0
2, 73320, Note_on_c, 0, 66, 0
2, 73320, Note_on_c, 0, 72, 64
2, 73320, Note_on_c, 0, 45, 64
2, 73380, Note_on_c, 0, 45, 0
2, 73380, Note_on_c, 0, 47, 64
2, 73440, Note_on_c, 0, 47, 0
2, 73440, Note_on_c, 0, 72, 0
2, 73440, Note_on_c, 0, 71, 64
2, 73440, Note_on_c, 0, 43, 64
2, 73500, Note_on_c, 0, 43, 0
2, 73500, Note_on_c, 0, 45, 64
2, 73560, Note_on_c, 0, 45, 0
2, 73560, Note_on_c, 0, 62, 0
2, 73560, Note_on_c, 0, 67, 64
2, 73560, Note_on_c, 0, 47, 64
2, 73620, Note_on_c, 0, 47, 0
2, 73620, Note_on_c, 0, 67, 0
2, 73620, Note_on_c, 0, 66, 64
2, 73620, Note_on_c, 0, 45, 64
2, 73680, Note_on_c, 0, 45, 0
2, 73680, Note_on_c, 0, 66, 0
2, 73680, Note_on_c, 0, 64, 64
2, 73680, Note_on_c, 0, 43, 64
2, 73740, Note_on_c, 0, 43, 0
2, 73740, Note_on_c, 0, 64, 0
2, 73740, Note_on_c, 0, 62, 64
2, 73740, Note_on_c, 0, 42, 64
2, 73800, Note_on_c, 0, 42, 0
2, 73800, Note_on_c, 0, 62, 0
2, 73800, Note_on_c, 0, 67, 64
2, 73800, Note_on_c, 0, 40, 64
2, 73860, Note_on_c, 0, 40, 0
2, 73860, Note_on_c, 0, 42, 64
2, 73920, Note_on_c, 0, 42, 0
2, 73920, Note_on_c, 0, 67, 0
2, 73920, Note_on_c, 0, 71, 0
2, 73920, Note_on_c, 0, 64, 64
2, 73920, Note_on_c, 0, 73, 64
2, 73920, Note_on_c, 0, 43, 64
2, 73980, Note_on_c, 0, 43, 0
2, 73980, Note_on_c, 0, 42, 64
2, 74040, Note_on_c, 0, 42, 0
2, 74040, Note_on_c, 0, 73, 0
2, 74040, Note_on_c, 0, 64, 0
2, 74040, Note_on_c, 0, 66, 64
2, 74040, Note_on_c, 0, 74, 64
2, 74040, Note_on_c, 0, 40, 64
2, 74100, Note_on_c, 0, 40, 0
2, 74100, Note_on_c, 0, 38, 64
2, 74160, Note_on_c, 0, 38, 0
2, 74160, Note_on_c, 0, 45, 64
2, 74280, Note_on_c, 0, 74, 0
2, 74280, Note_on_c, 0, 66, 0
2, 74280, Note_on_c, 0, 62, 64
2, 74280, Note_on_c, 0, 71, 64
2, 74400, Note_on_c, 0, 71, 0
2, 74400, Note_on_c, 0, 62, 0
2, 74400, Note_on_c, 0, 64, 64
2, 74400, Note_on_c, 0, 73, 64
2, 74520, Note_on_c, 0, 73, 0
2, 74520, Note_on_c, 0, 64, 0
2, 74520, Note_on_c, 0, 67, 64
2, 74520, Note_on_c, 0, 76, 64
2, 74580, Note_on_c, 0, 45, 0
2, 74580, Note_on_c, 0, 44, 64
2, 74640, Note_on_c, 0, 44, 0
2, 74640, Note_on_c, 0, 46, 64
2, 74700, Note_on_c, 0, 46, 0
2, 74700, Note_on_c, 0, 47, 64
2, 74760, Note_on_c, 0, 47, 0
2, 74760, Note_on_c, 0, 49, 64
2, 74820, Note_on_c, 0, 49, 0
2, 74820, Note_on_c, 0, 46, 64
2, 74880, Note_on_c, 0, 46, 0
2, 74880, Note_on_c, 0, 47, 64
2, 75000, Note_on_c, 0, 76, 0
2, 75000, Note_on_c, 0, 67, 0
2, 75000, Note_on_c, 0, 64, 64
2, 75000, Note_on_c, 0, 73, 64
2, 75120, Note_on_c, 0, 73, 0
2, 75120, Note_on_c, 0, 64, 0
2, 75120, Note_on_c, 0, 66, 64
2, 75120, Note_on_c, 0, 74, 64
2, 75240, Note_on_c, 0, 74, 0
2, 75240, Note_on_c, 0, 66, 0
2, 75240, Note_on_c, 0, 71, 64
2, 75240, Note_on_c, 0, 79, 64
2, 75300, Note_on_c, 0, 47, 0
2, 75300, Note_on_c, 0, 45, 64
2, 75360, Note_on_c, 0, 45, 0
2, 75360, Note_on_c, 0, 47, 64
2, 75420, Note_on_c, 0, 47, 0
2, 75420, Note_on_c, 0, 50, 64
2, 75480, Note_on_c, 0, 50, 0
2, 75480, Note_on_c, 0, 49, 64
2, 75540, Note_on_c, 0, 49, 0
2, 75540, Note_on_c, 0, 52, 64
2, 75600, Note_on_c, 0, 52, 0
2, 75600, Note_on_c, 0, 50, 64
2, 75720, Note_on_c, 0, 79, 0
2, 75720, Note_on_c, 0, 71, 0
2, 75720, Note_on_c, 0, 69, 64
2, 75720, Note_on_c, 0, 78, 64
2, 75840, Note_on_c, 0, 78, 0
2, 75840, Note_on_c, 0, 69, 0
2, 75840, Note_on_c, 0, 67, 64
2, 75840, Note_on_c, 0, 76, 64
2, 75960, Note_on_c, 0, 76, 0
2, 75960, Note_on_c, 0, 67, 0
2, 75960, Note_on_c, 0, 69, 64
2, 75960, Note_on_c, 0, 78, 64
2, 76020, Note_on_c, 0, 50, 0
2, 76020, Note_on_c, 0, 52, 64
2, 76080, Note_on_c, 0, 52, 0
2, 76080, Note_on_c, 0, 50, 64
2, 76140, Note_on_c, 0, 50, 0
2, 76140, Note_on_c, 0, 48, 64
2, 76200, Note_on_c, 0, 48, 0
2, 76200, Note_on_c, 0, 47, 64
2, 76260, Note_on_c, 0, 47, 0
2, 76260, Note_on_c, 0, 45, 64
2, 76320, Note_on_c, 0, 45, 0
2, 76320, Note_on_c, 0, 43, 64
2, 76380, Note_on_c, 0, 43, 0
2, 76380, Note_on_c, 0, 50, 64
2, 76440, Note_on_c, 0, 50, 0
2, 76440, Note_on_c, 0, 78, 0
2, 76440, Note_on_c, 0, 69, 0
2, 76440, Note_on_c, 0, 67, 64
2, 76440, Note_on_c, 0, 76, 64
2, 76440, Note_on_c, 0, 52, 64
2, 76500, Note_on_c, 0, 52, 0
2, 76500, Note_on_c, 0, 54, 64
2, 76560, Note_on_c, 0, 54, 0
2, 76560, Note_on_c, 0, 76, 0
2, 76560, Note_on_c, 0, 67, 0
2, 76560, Note_on_c, 0, 66, 64
2, 76560, Note_on_c, 0, 74, 64
2, 76560, Note_on_c, 0, 55, 64
2, 76620, Note_on_c, 0, 55, 0
2, 76620, Note_on_c, 0, 57, 64
2, 76680, Note_on_c, 0, 57, 0
2, 76680, Note_on_c, 0, 74, 0
2, 76680, Note_on_c, 0, 66, 0
2, 76680, Note_on_c, 0, 67, 64
2, 76680, Note_on_c, 0, 76, 64
2, 76680, Note_on_c, 0, 58, 64
2, 76800, Note_on_c, 0, 76, 0
2, 76800, Note_on_c, 0, 67, 0
2, 76800, Note_on_c, 0, 64, 64
2, 76800, Note_on_c, 0, 73, 64
2, 76920, Note_on_c, 0, 73, 0
2, 76920, Note_on_c, 0, 64, 0
2, 76920, Note_on_c, 0, 74, 64
2, 76920, Note_on_c, 0, 66, 64
2, 77030, Note_on_c, 0, 74, 0
2, 77040, Note_on_c, 0, 66, 0
2, 77040, Note_on_c, 0, 74, 72
2, 77040, Note_on_c, 0, 64, 64
2, 77070, Note_on_c, 0, 74, 0
2, 77070, Note_on_c, 0, 73, 65
2, 77100, Note_on_c, 0, 73, 0
2, 77100, Note_on_c, 0, 58, 0
2, 77100, Note_on_c, 0, 74, 52
2, 77100, Note_on_c, 0, 57, 64
2, 77130, Note_on_c, 0, 74, 0
2, 77130, Note_on_c, 0, 73, 55
2, 77160, Note_on_c, 0, 73, 0
2, 77160, Note_on_c, 0, 57, 0
2, 77160, Note_on_c, 0, 74, 58
2, 77160, Note_on_c, 0, 58, 64
2, 77190, Note_on_c, 0, 74, 0
2, 77190, Note_on_c, 0, 73, 60
2, 77220, Note_on_c, 0, 73, 0
2, 77220, Note_on_c, 0, 58, 0
2, 77220, Note_on_c, 0, 74, 63
2, 77220, Note_on_c, 0, 55, 64
2, 77250, Note_on_c, 0, 74, 0
2, 77250, Note_on_c, 0, 73, 64
2, 77280, Note_on_c, 0, 55, 0
2, 77280, Note_on_c, 0, 52, 64
2, 77340, Note_on_c, 0, 52, 0
2, 77340, Note_on_c, 0, 55, 64
2, 77400, Note_on_c, 0, 55, 0
2, 77400, Note_on_c, 0, 64, 0
2, 77400, Note_on_c, 0, 65, 64
2, 77400, Note_on_c, 0, 57, 64
2, 77460, Note_on_c, 0, 57, 0
2, 77460, Note_on_c, 0, 65, 0
2, 77460, Note_on_c, 0, 73, 0
2, 77460, Note_on_c, 0, 64, 64
2, 77460, Note_on_c, 0, 55, 64
2, 77520, Note_on_c, 0, 55, 0
2, 77520, Note_on_c, 0, 64, 0
2, 77520, Note_on_c, 0, 65, 64
2, 77520, Note_on_c, 0, 57, 64
2, 77580, Note_on_c, 0, 57, 0
2, 77580, Note_on_c, 0, 65, 0
2, 77580, Note_on_c, 0, 62, 64
2, 77580, Note_on_c, 0, 53, 64
2, 77640, Note_on_c, 0, 53, 0
2, 77640, Note_on_c, 0, 62, 0
2, 77640, Note_on_c, 0, 69, 64
2, 77640, Note_on_c, 0, 50, 64
2, 77700, Note_on_c, 0, 50, 0
2, 77700, Note_on_c, 0, 69, 0
2, 77700, Note_on_c, 0, 65, 64
2, 77700, Note_on_c, 0, 53, 64
2, 77760, Note_on_c, 0, 53, 0
2, 77760, Note_on_c, 0, 70, 64
2, 77760, Note_on_c, 0, 55, 64
2, 77820, Note_on_c, 0, 55, 0
2, 77820, Note_on_c, 0, 53, 64
2, 77880, Note_on_c, 0, 53, 0
2, 77880, Note_on_c, 0, 65, 0
2, 77880, Note_on_c, 0, 64, 64
2, 77880, Note_on_c, 0, 55, 64
2, 77940, Note_on_c, 0, 55, 0
2, 77940, Note_on_c, 0, 52, 64
2, 78000, Note_on_c, 0, 52, 0
2, 78000, Note_on_c, 0, 64, 0
2, 78000, Note_on_c, 0, 67, 64
2, 78000, Note_on_c, 0, 49, 64
2, 78060, Note_on_c, 0, 49, 0
2, 78060, Note_on_c, 0, 52, 64
2, 78120, Note_on_c, 0, 52, 0
2, 78120, Note_on_c, 0, 70, 0
2, 78120, Note_on_c, 0, 69, 64
2, 78120, Note_on_c, 0, 53, 64
2, 78180, Note_on_c, 0, 53, 0
2, 78180, Note_on_c, 0, 52, 64
2, 78240, Note_on_c, 0, 52, 0
2, 78240, Note_on_c, 0, 67, 0
2, 78240, Note_on_c, 0, 61, 64
2, 78240, Note_on_c, 0, 53, 64
2, 78300, Note_on_c, 0, 53, 0
2, 78300, Note_on_c, 0, 50, 64
2, 78360, Note_on_c, 0, 50, 0
2, 78360, Note_on_c, 0, 61, 0
2, 78360, Note_on_c, 0, 62, 64
2, 78360, Note_on_c, 0, 47, 64
2, 78420, Note_on_c, 0, 47, 0
2, 78420, Note_on_c, 0, 50, 64
2, 78480, Note_on_c, 0, 50, 0
2, 78480, Note_on_c, 0, 69, 0
2, 78480, Note_on_c, 0, 67, 64
2, 78480, Note_on_c, 0, 52, 64
2, 78540, Note_on_c, 0, 52, 0
2, 78540, Note_on_c, 0, 50, 64
2, 78600, Note_on_c, 0, 50, 0
2, 78600, Note_on_c, 0, 62, 0
2, 78600, Note_on_c, 0, 61, 64
2, 78600, Note_on_c, 0, 52, 64
2, 78660, Note_on_c, 0, 52, 0
2, 78660, Note_on_c, 0, 49, 64
2, 78720, Note_on_c, 0, 49, 0
2, 78720, Note_on_c, 0, 61, 0
2, 78720, Note_on_c, 0, 64, 64
2, 78720, Note_on_c, 0, 45, 64
2, 78780, Note_on_c, 0, 45, 0
2, 78780, Note_on_c, 0, 49, 64
2, 78840, Note_on_c, 0, 49, 0
2, 78840, Note_on_c, 0, 67, 0
2, 78840, Note_on_c, 0, 65, 64
2, 78840, Note_on_c, 0, 50, 64
2, 78900, Note_on_c, 0, 50, 0
2, 78900, Note_on_c, 0, 49, 64
2, 78960, Note_on_c, 0, 49, 0
2, 78960, Note_on_c, 0, 64, 0
2, 78960, Note_on_c, 0, 57, 64
2, 78960, Note_on_c, 0, 50, 64
2, 79020, Note_on_c, 0, 50, 0
2, 79020, Note_on_c, 0, 53, 64
2, 79080, Note_on_c, 0, 53, 0
2, 79080, Note_on_c, 0, 57, 0
2, 79080, Note_on_c, 0, 62, 64
2, 79080, Note_on_c, 0, 46, 64
2, 79140, Note_on_c, 0, 46, 0
2, 79140, Note_on_c, 0, 50, 64
2, 79200, Note_on_c, 0, 50, 0
2, 79200, Note_on_c, 0, 59, 64
2, 79200, Note_on_c, 0, 44, 64
2, 79260, Note_on_c, 0, 59, 0
2, 79260, Note_on_c, 0, 65, 0
2, 79260, Note_on_c, 0, 62, 0
2, 79260, Note_on_c, 0, 64, 64
2, 79320, Note_on_c, 0, 64, 0
2, 79320, Note_on_c, 0, 62, 64
2, 79380, Note_on_c, 0, 62, 0
2, 79380, Note_on_c, 0, 61, 64
2, 79440, Note_on_c, 0, 61, 0
2, 79440, Note_on_c, 0, 62, 64
2, 79500, Note_on_c, 0, 62, 0
2, 79500, Note_on_c, 0, 65, 64
2, 79560, Note_on_c, 0, 65, 0
2, 79560, Note_on_c, 0, 71, 64
2, 79620, Note_on_c, 0, 71, 0
2, 79620, Note_on_c, 0, 65, 64
2, 79680, Note_on_c, 0, 65, 0
2, 79680, Note_on_c, 0, 64, 64
2, 79740, Note_on_c, 0, 64, 0
2, 79740, Note_on_c, 0, 62, 64
2, 79800, Note_on_c, 0, 62, 0
2, 79800, Note_on_c, 0, 61, 64
2, 79860, Note_on_c, 0, 61, 0
2, 79860, Note_on_c, 0, 59, 64
2, 79920, Note_on_c, 0, 59, 0
2, 79920, Note_on_c, 0, 44, 0
2, 79920, Note_on_c, 0, 61, 64
2, 79920, Note_on_c, 0, 45, 64
2, 79980, Note_on_c, 0, 57, 64
2, 80040, Note_on_c, 0, 57, 0
2, 80040, Note_on_c, 0, 61, 0
2, 80040, Note_on_c, 0, 55, 64
2, 80100, Note_on_c, 0, 55, 0
2, 80100, Note_on_c, 0, 54, 64
2, 80160, Note_on_c, 0, 54, 0
2, 80160, Note_on_c, 0, 52, 64
2, 80220, Note_on_c, 0, 52, 0
2, 80220, Note_on_c, 0, 50, 64
2, 80280, Note_on_c, 0, 50, 0
2, 80280, Note_on_c, 0, 45, 0
2, 80280, Note_on_c, 0, 49, 64
2, 80340, Note_on_c, 0, 47, 64
2, 80400, Note_on_c, 0, 47, 0
2, 80400, Note_on_c, 0, 49, 0
2, 80400, Note_on_c, 0, 45, 64
2, 80460, Note_on_c, 0, 45, 0
2, 80460, Note_on_c, 0, 43, 64
2, 80520, Note_on_c, 0, 43, 0
2, 80520, Note_on_c, 0, 42, 64
2, 80580, Note_on_c, 0, 42, 0
2, 80580, Note_on_c, 0, 40, 64
2, 80640, Note_on_c, 0, 40, 0
2, 80640, Note_on_c, 0, 38, 64
2, 80760, Note_on_c, 0, 50, 64
2, 80820, Note_on_c, 0, 50, 0
2, 80820, Note_on_c, 0, 52, 64
2, 80880, Note_on_c, 0, 52, 0
2, 80880, Note_on_c, 0, 38, 0
2, 80880, Note_on_c, 0, 54, 64
2, 80940, Note_on_c, 0, 54, 0
2, 80940, Note_on_c, 0, 55, 64
2, 81000, Note_on_c, 0, 55, 0
2, 81000, Note_on_c, 0, 57, 64
2, 81120, Note_on_c, 0, 57, 0
2, 81120, Note_on_c, 0, 54, 64
2, 81240, Note_on_c, 0, 54, 0
2, 81240, Note_on_c, 0, 57, 64
2, 81360, Note_on_c, 0, 57, 0
2, 81360, Note_on_c, 0, 62, 64
2, 81480, Note_on_c, 0, 62, 0
2, 81480, Note_on_c, 0, 57, 64
2, 81600, Note_on_c, 0, 57, 0
2, 81600, Note_on_c, 0, 62, 64
2, 81720, Note_on_c, 0, 62, 0
2, 81720, Note_on_c, 0, 66, 64
2, 81840, Note_on_c, 0, 66, 0
2, 81840, Note_on_c, 0, 62, 64
2, 81960, Note_on_c, 0, 62, 0
2, 81960, Note_on_c, 0, 66, 64
2, 82080, Note_on_c, 0, 66, 0
2, 82080, Note_on_c, 0, 69, 64
2, 82440, Note_on_c, 0, 69, 0
2, 82440, Note_on_c, 0, 69, 64
2, 82440, Note_on_c, 0, 78, 64
2, 82440, Note_on_c, 0, 50, 64
2, 82800, Note_on_c, 0, 50, 0
2, 82800, Note_on_c, 0, 78, 0
2, 82800, Note_on_c, 0, 69, 0
2, 82800, Note_on_c, 0, 69, 64
2, 82800, Note_on_c, 0, 78, 64
2, 82800, Note_on_c, 0, 57, 64
2, 82980, Note_on_c, 0, 78, 0
2, 82980, Note_on_c, 0, 69, 0
2, 82980, Note_on_c, 0, 67, 64
2, 82980, Note_on_c, 0, 76, 64
2, 83160, Note_on_c, 0, 76, 0
2, 83160, Note_on_c, 0, 67, 0
2, 83160, Note_on_c, 0, 57, 0
2, 83160, Note_on_c, 0, 45, 64
2, 83160, Note_on_c, 0, 67, 64
2, 83160, Note_on_c, 0, 76, 64
2, 83340, Note_on_c, 0, 76, 0
2, 83340, Note_on_c, 0, 67, 0
2, 83340, Note_on_c, 0, 74, 64
2, 83340, Note_on_c, 0, 66, 64
2, 83520, Note_on_c, 0, 66, 0
2, 83520, Note_on_c, 0, 74, 0
2, 83520, Note_on_c, 0, 45, 0
2, 83520, Note_on_c, 0, 66, 64
2, 83520, Note_on_c, 0, 74, 64
2, 83520, Note_on_c, 0, 50, 64
2, 83640, Note_on_c, 0, 74, 0
2, 83640, Note_on_c, 0, 66, 0
2, 83640, Note_on_c, 0, 62, 64
2, 83700, Note_on_c, 0, 62, 0
2, 83700, Note_on_c, 0, 64, 64
2, 83760, Note_on_c, 0, 64, 0
2, 83760, Note_on_c, 0, 66, 64
2, 83820, Note_on_c, 0, 66, 0
2, 83820, Note_on_c, 0, 67, 64
2, 83880, Note_on_c, 0, 67, 0
2, 83880, Note_on_c, 0, 50, 0
2, 83880, Note_on_c, 0, 69, 64
2, 84000, Note_on_c, 0, 69, 0
2, 84000, Note_on_c, 0, 66, 64
2, 84000, Note_on_c, 0, 60, 64
2, 84060, Note_on_c, 0, 60, 0
2, 84060, Note_on_c, 0, 59, 64
2, 84120, Note_on_c, 0, 59, 0
2, 84120, Note_on_c, 0, 66, 0
2, 84120, Note_on_c, 0, 69, 64
2, 84120, Note_on_c, 0, 57, 64
2, 84180, Note_on_c, 0, 57, 0
2, 84180, Note_on_c, 0, 55, 64
2, 84240, Note_on_c, 0, 55, 0
2, 84240, Note_on_c, 0, 69, 0
2, 84240, Note_on_c, 0, 72, 64
2, 84240, Note_on_c, 0, 54, 64
2, 84360, Note_on_c, 0, 54, 0
2, 84360, Note_on_c, 0, 72, 0
2, 84360, Note_on_c, 0, 69, 64
2, 84360, Note_on_c, 0, 57, 64
2, 84480, Note_on_c, 0, 57, 0
2, 84480, Note_on_c, 0, 69, 0
2, 84480, Note_on_c, 0, 72, 64
2, 84480, Note_on_c, 0, 54, 64
2, 84600, Note_on_c, 0, 54, 0
2, 84600, Note_on_c, 0, 72, 0
2, 84600, Note_on_c, 0, 78, 64
2, 84600, Note_on_c, 0, 50, 64
2, 84720, Note_on_c, 0, 50, 0
2, 84720, Note_on_c, 0, 78, 0
2, 84720, Note_on_c, 0, 72, 64
2, 84720, Note_on_c, 0, 54, 64
2, 84840, Note_on_c, 0, 54, 0
2, 84840, Note_on_c, 0, 72, 0
2, 84840, Note_on_c, 0, 50, 64
2, 84840, Note_on_c, 0, 78, 64
2, 84960, Note_on_c, 0, 78, 0
2, 84960, Note_on_c, 0, 50, 0
2, 84960, Note_on_c, 0, 81, 64
2, 84960, Note_on_c, 0, 45, 64
2, 85080, Note_on_c, 0, 45, 0
2, 85080, Note_on_c, 0, 50, 64
2, 85200, Note_on_c, 0, 50, 0
2, 85200, Note_on_c, 0, 45, 64
2, 85320, Note_on_c, 0, 45, 0
2, 85320, Note_on_c, 0, 81, 0
2, 85320, Note_on_c, 0, 69, 64
2, 85320, Note_on_c, 0, 72, 64
2, 85320, Note_on_c, 0, 42, 64
2, 85440, Note_on_c, 0, 42, 0
2, 85440, Note_on_c, 0, 45, 64
2, 85560, Note_on_c, 0, 45, 0
2, 85560, Note_on_c, 0, 42, 64
2, 85680, Note_on_c, 0, 42, 0
2, 85680, Note_on_c, 0, 72, 0
2, 85680, Note_on_c, 0, 69, 0
2, 85680, Note_on_c, 0, 69, 64
2, 85680, Note_on_c, 0, 72, 64
2, 85680, Note_on_c, 0, 38, 64
2, 85860, Note_on_c, 0, 72, 0
2, 85860, Note_on_c, 0, 69, 0
2, 85860, Note_on_c, 0, 67, 64
2, 85860, Note_on_c, 0, 71, 64
2, 86040, Note_on_c, 0, 71, 0
2, 86040, Note_on_c, 0, 67, 0
2, 86040, Note_on_c, 0, 38, 0
2, 86040, Note_on_c, 0, 50, 64
2, 86040, Note_on_c, 0, 67, 64
2, 86040, Note_on_c, 0, 71, 64
2, 86220, Note_on_c, 0, 71, 0
2, 86220, Note_on_c, 0, 67, 0
2, 86220, Note_on_c, 0, 69, 64
2, 86220, Note_on_c, 0, 66, 64
2, 86400, Note_on_c, 0, 66, 0
2, 86400, Note_on_c, 0, 69, 0
2, 86400, Note_on_c, 0, 50, 0
2, 86400, Note_on_c, 0, 67, 64
2, 86400, Note_on_c, 0, 71, 64
2, 86400, Note_on_c, 0, 43, 64
2, 86520, Note_on_c, 0, 71, 0
2, 86520, Note_on_c, 0, 67, 0
2, 86520, Note_on_c, 0, 83, 64
2, 86580, Note_on_c, 0, 83, 0
2, 86580, Note_on_c, 0, 81, 64
2, 86640, Note_on_c, 0, 81, 0
2, 86640, Note_on_c, 0, 43, 0
2, 86640, Note_on_c, 0, 79, 64
2, 86640, Note_on_c, 0, 50, 64
2, 86700, Note_on_c, 0, 79, 0
2, 86700, Note_on_c, 0, 78, 64
2, 86760, Note_on_c, 0, 78, 0
2, 86760, Note_on_c, 0, 50, 0
2, 86760, Note_on_c, 0, 76, 64
2, 86760, Note_on_c, 0, 55, 64
2, 86880, Note_on_c, 0, 76, 0
2, 86880, Note_on_c, 0, 79, 64
2, 87000, Note_on_c, 0, 79, 0
2, 87000, Note_on_c, 0, 55, 0
2, 87000, Note_on_c, 0, 76, 64
2, 87000, Note_on_c, 0, 55, 64
2, 87120, Note_on_c, 0, 55, 0
2, 87120, Note_on_c, 0, 76, 0
2, 87120, Note_on_c, 0, 73, 64
2, 87120, Note_on_c, 0, 55, 64
2, 87240, Note_on_c, 0, 73, 0
2, 87240, Note_on_c, 0, 57, 64
2, 87300, Note_on_c, 0, 57, 0
2, 87300, Note_on_c, 0, 59, 64
2, 87360, Note_on_c, 0, 59, 0
2, 87360, Note_on_c, 0, 61, 64
2, 87420, Note_on_c, 0, 61, 0
2, 87420, Note_on_c, 0, 62, 64
2, 87480, Note_on_c, 0, 62, 0
2, 87480, Note_on_c, 0, 55, 0
2, 87480, Note_on_c, 0, 64, 64
2, 87600, Note_on_c, 0, 64, 0
2, 87600, Note_on_c, 0, 61, 64
2, 87600, Note_on_c, 0, 45, 64
2, 87660, Note_on_c, 0, 45, 0
2, 87660, Note_on_c, 0, 43, 64
2, 87720, Note_on_c, 0, 43, 0
2, 87720, Note_on_c, 0, 61, 0
2, 87720, Note_on_c, 0, 64, 64
2, 87720, Note_on_c, 0, 42, 64
2, 87780, Note_on_c, 0, 42, 0
2, 87780, Note_on_c, 0, 40, 64
2, 87840, Note_on_c, 0, 40, 0
2, 87840, Note_on_c, 0, 64, 0
2, 87840, Note_on_c, 0, 69, 64
2, 87840, Note_on_c, 0, 42, 64
2, 87960, Note_on_c, 0, 81, 64
2, 88020, Note_on_c, 0, 81, 0
2, 88020, Note_on_c, 0, 79, 64
2, 88080, Note_on_c, 0, 79, 0
2, 88080, Note_on_c, 0, 42, 0
2, 88080, Note_on_c, 0, 69, 0
2, 88080, Note_on_c, 0, 78, 64
2, 88080, Note_on_c, 0, 54, 64
2, 88140, Note_on_c, 0, 78, 0
2, 88140, Note_on_c, 0, 76, 64
2, 88200, Note_on_c, 0, 76, 0
2, 88200, Note_on_c, 0, 54, 0
2, 88200, Note_on_c, 0, 74, 64
2, 88200, Note_on_c, 0, 54, 64
2, 88320, Note_on_c, 0, 74, 0
2, 88320, Note_on_c, 0, 78, 64
2, 88440, Note_on_c, 0, 78, 0
2, 88440, Note_on_c, 0, 54, 0
2, 88440, Note_on_c, 0, 74, 64
2, 88440, Note_on_c, 0, 54, 64
2, 88560, Note_on_c, 0, 54, 0
2, 88560, Note_on_c, 0, 74, 0
2, 88560, Note_on_c, 0, 71, 64
2, 88560, Note_on_c, 0, 54, 64
2, 88680, Note_on_c, 0, 71, 0
2, 88680, Note_on_c, 0, 55, 64
2, 88740, Note_on_c, 0, 55, 0
2, 88740, Note_on_c, 0, 57, 64
2, 88800, Note_on_c, 0, 57, 0
2, 88800, Note_on_c, 0, 59, 64
2, 88860, Note_on_c, 0, 59, 0
2, 88860, Note_on_c, 0, 61, 64
2, 88920, Note_on_c, 0, 61, 0
2, 88920, Note_on_c, 0, 54, 0
2, 88920, Note_on_c, 0, 62, 64
2, 89040, Note_on_c, 0, 62, 0
2, 89040, Note_on_c, 0, 59, 64
2, 89040, Note_on_c, 0, 43, 64
2, 89100, Note_on_c, 0, 43, 0
2, 89100, Note_on_c, 0, 42, 64
2, 89160, Note_on_c, 0, 42, 0
2, 89160, Note_on_c, 0, 59, 0
2, 89160, Note_on_c, 0, 62, 64
2, 89160, Note_on_c, 0, 40, 64
2, 89220, Note_on_c, 0, 40, 0
2, 89220, Note_on_c, 0, 38, 64
2, 89280, Note_on_c, 0, 38, 0
2, 89280, Note_on_c, 0, 62, 0
2, 89280, Note_on_c, 0, 67, 64
2, 89280, Note_on_c, 0, 40, 64
2, 89400, Note_on_c, 0, 40, 0
2, 89400, Note_on_c, 0, 59, 64
2, 89460, Note_on_c, 0, 59, 0
2, 89460, Note_on_c, 0, 57, 64
2, 89520, Note_on_c, 0, 57, 0
2, 89520, Note_on_c, 0, 67, 0
2, 89520, Note_on_c, 0, 71, 64
2, 89520, Note_on_c, 0, 62, 64
2, 89520, Note_on_c, 0, 55, 64
2, 89580, Note_on_c, 0, 55, 0
2, 89580, Note_on_c, 0, 54, 64
2, 89640, Note_on_c, 0, 54, 0
2, 89640, Note_on_c, 0, 62, 0
2, 89640, Note_on_c, 0, 71, 0
2, 89640, Note_on_c, 0, 71, 64
2, 89640, Note_on_c, 0, 67, 64
2, 89640, Note_on_c, 0, 52, 64
2, 89760, Note_on_c, 0, 52, 0
2, 89760, Note_on_c, 0, 55, 64
2, 89880, Note_on_c, 0, 55, 0
2, 89880, Note_on_c, 0, 67, 0
2, 89880, Note_on_c, 0, 71, 0
2, 89880, Note_on_c, 0, 71, 64
2, 89880, Note_on_c, 0, 67, 64
2, 89880, Note_on_c, 0, 52, 64
2, 90000, Note_on_c, 0, 52, 0
2, 90000, Note_on_c, 0, 67, 0
2, 90000, Note_on_c, 0, 71, 0
2, 90000, Note_on_c, 0, 69, 64
2, 90000, Note_on_c, 0, 67, 64
2, 90000, Note_on_c, 0, 49, 64
2, 90120, Note_on_c, 0, 49, 0
2, 90120, Note_on_c, 0, 52, 64
2, 90240, Note_on_c, 0, 52, 0
2, 90240, Note_on_c, 0, 67, 0
2, 90240, Note_on_c, 0, 69, 0
2, 90240, Note_on_c, 0, 49, 64
2, 90360, Note_on_c, 0, 49, 0
2, 90360, Note_on_c, 0, 45, 64
2, 90480, Note_on_c, 0, 45, 0
2, 90480, Note_on_c, 0, 69, 64
2, 90480, Note_on_c, 0, 49, 64
2, 90540, Note_on_c, 0, 69, 0
2, 90540, Note_on_c, 0, 67, 64
2, 90600, Note_on_c, 0, 67, 0
2, 90600, Note_on_c, 0, 49, 0
2, 90600, Note_on_c, 0, 45, 64
2, 90600, Note_on_c, 0, 66, 64
2, 90660, Note_on_c, 0, 66, 0
2, 90660, Note_on_c, 0, 64, 64
2, 90720, Note_on_c, 0, 64, 0
2, 90720, Note_on_c, 0, 45, 0
2, 90720, Note_on_c, 0, 66, 64
2, 90720, Note_on_c, 0, 50, 64
2, 90840, Note_on_c, 0, 50, 0
2, 90840, Note_on_c, 0, 66, 0
2, 90840, Note_on_c, 0, 62, 64
2, 90840, Note_on_c, 0, 54, 64
2, 90900, Note_on_c, 0, 62, 0
2, 90900, Note_on_c, 0, 64, 64
2, 90960, Note_on_c, 0, 64, 0
2, 90960, Note_on_c, 0, 54, 0
2, 90960, Note_on_c, 0, 66, 64
2, 90960, Note_on_c, 0, 50, 64
2, 91020, Note_on_c, 0, 66, 0
2, 91020, Note_on_c, 0, 67, 64
2, 91080, Note_on_c, 0, 67, 0
2, 91080, Note_on_c, 0, 50, 0
2, 91080, Note_on_c, 0, 74, 64
2, 91080, Note_on_c, 0, 69, 64
2, 91080, Note_on_c, 0, 47, 64
2, 91200, Note_on_c, 0, 47, 0
2, 91200, Note_on_c, 0, 69, 0
2, 91200, Note_on_c, 0, 67, 64
2, 91200, Note_on_c, 0, 50, 64
2, 91260, Note_on_c, 0, 67, 0
2, 91260, Note_on_c, 0, 66, 64
2, 91320, Note_on_c, 0, 66, 0
2, 91320, Note_on_c, 0, 50, 0
2, 91320, Note_on_c, 0, 64, 64
2, 91320, Note_on_c, 0, 47, 64
2, 91380, Note_on_c, 0, 64, 0
2, 91380, Note_on_c, 0, 62, 64
2, 91440, Note_on_c, 0, 62, 0
2, 91440, Note_on_c, 0, 47, 0
2, 91440, Note_on_c, 0, 74, 0
2, 91440, Note_on_c, 0, 71, 64
2, 91440, Note_on_c, 0, 67, 64
2, 91440, Note_on_c, 0, 52, 64
2, 91560, Note_on_c, 0, 52, 0
2, 91560, Note_on_c, 0, 67, 0
2, 91560, Note_on_c, 0, 64, 64
2, 91560, Note_on_c, 0, 55, 64
2, 91620, Note_on_c, 0, 64, 0
2, 91620, Note_on_c, 0, 66, 64
2, 91680, Note_on_c, 0, 66, 0
2, 91680, Note_on_c, 0, 55, 0
2, 91680, Note_on_c, 0, 67, 64
2, 91680, Note_on_c, 0, 52, 64
2, 91740, Note_on_c, 0, 67, 0
2, 91740, Note_on_c, 0, 69, 64
2, 91800, Note_on_c, 0, 69, 0
2, 91800, Note_on_c, 0, 52, 0
2, 91800, Note_on_c, 0, 71, 0
2, 91800, Note_on_c, 0, 76, 64
2, 91800, Note_on_c, 0, 71, 64
2, 91800, Note_on_c, 0, 49, 64
2, 91920, Note_on_c, 0, 49, 0
2, 91920, Note_on_c, 0, 71, 0
2, 91920, Note_on_c, 0, 69, 64
2, 91920, Note_on_c, 0, 52, 64
2, 91980, Note_on_c, 0, 69, 0
2, 91980, Note_on_c, 0, 67, 64
2, 92040, Note_on_c, 0, 67, 0
2, 92040, Note_on_c, 0, 52, 0
2, 92040, Note_on_c, 0, 49, 64
2, 92040, Note_on_c, 0, 66, 64
2, 92100, Note_on_c, 0, 66, 0
2, 92100, Note_on_c, 0, 64, 64
2, 92160, Note_on_c, 0, 64, 0
2, 92160, Note_on_c, 0, 49, 0
2, 92160, Note_on_c, 0, 69, 64
2, 92160, Note_on_c, 0, 54, 64
2, 92280, Note_on_c, 0, 54, 0
2, 92280, Note_on_c, 0, 50, 64
2, 92340, Note_on_c, 0, 50, 0
2, 92340, Note_on_c, 0, 52, 64
2, 92400, Note_on_c, 0, 52, 0
2, 92400, Note_on_c, 0, 69, 0
2, 92400, Note_on_c, 0, 67, 64
2, 92400, Note_on_c, 0, 54, 64
2, 92460, Note_on_c, 0, 54, 0
2, 92460, Note_on_c, 0, 55, 64
2, 92520, Note_on_c, 0, 55, 0
2, 92520, Note_on_c, 0, 67, 0
2, 92520, Note_on_c, 0, 76, 0
2, 92520, Note_on_c, 0, 74, 64
2, 92520, Note_on_c, 0, 66, 64
2, 92520, Note_on_c, 0, 57, 64
2, 92640, Note_on_c, 0, 57, 0
2, 92640, Note_on_c, 0, 55, 64
2, 92700, Note_on_c, 0, 55, 0
2, 92700, Note_on_c, 0, 54, 64
2, 92760, Note_on_c, 0, 54, 0
2, 92760, Note_on_c, 0, 74, 0
2, 92760, Note_on_c, 0, 72, 64
2, 92760, Note_on_c, 0, 52, 64
2, 92820, Note_on_c, 0, 52, 0
2, 92820, Note_on_c, 0, 50, 64
2, 92880, Note_on_c, 0, 50, 0
2, 92880, Note_on_c, 0, 72, 0
2, 92880, Note_on_c, 0, 71, 64
2, 92880, Note_on_c, 0, 55, 64
2, 93000, Note_on_c, 0, 55, 0
2, 93000, Note_on_c, 0, 52, 64
2, 93060, Note_on_c, 0, 52, 0
2, 93060, Note_on_c, 0, 54, 64
2, 93120, Note_on_c, 0, 54, 0
2, 93120, Note_on_c, 0, 71, 0
2, 93120, Note_on_c, 0, 69, 64
2, 93120, Note_on_c, 0, 55, 64
2, 93180, Note_on_c, 0, 55, 0
2, 93180, Note_on_c, 0, 57, 64
2, 93240, Note_on_c, 0, 57, 0
2, 93240, Note_on_c, 0, 69, 0
2, 93240, Note_on_c, 0, 66, 0
2, 93240, Note_on_c, 0, 67, 64
2, 93240, Note_on_c, 0, 64, 64
2, 93240, Note_on_c, 0, 59, 64
2, 93360, Note_on_c, 0, 59, 0
2, 93360, Note_on_c, 0, 57, 64
2, 93420, Note_on_c, 0, 57, 0
2, 93420, Note_on_c, 0, 55, 64
2, 93480, Note_on_c, 0, 55, 0
2, 93480, Note_on_c, 0, 64, 0
2, 93480, Note_on_c, 0, 54, 64
2, 93480, Note_on_c, 0, 62, 64
2, 93540, Note_on_c, 0, 54, 0
2, 93540, Note_on_c, 0, 52, 64
2, 93600, Note_on_c, 0, 52, 0
2, 93600, Note_on_c, 0, 62, 0
2, 93600, Note_on_c, 0, 61, 64
2, 93600, Note_on_c, 0, 57, 64
2, 93720, Note_on_c, 0, 61, 0
2, 93720, Note_on_c, 0, 57, 64
2, 93780, Note_on_c, 0, 57, 0
2, 93780, Note_on_c, 0, 59, 64
2, 93840, Note_on_c, 0, 59, 0
2, 93840, Note_on_c, 0, 57, 0
2, 93840, Note_on_c, 0, 61, 64
2, 93840, Note_on_c, 0, 45, 64
2, 93900, Note_on_c, 0, 61, 0
2, 93900, Note_on_c, 0, 62, 64
2, 93960, Note_on_c, 0, 62, 0
2, 93960, Note_on_c, 0, 45, 0
2, 93960, Note_on_c, 0, 67, 0
2, 93960, Note_on_c, 0, 67, 64
2, 93960, Note_on_c, 0, 64, 64
2, 93960, Note_on_c, 0, 45, 64
2, 94080, Note_on_c, 0, 64, 0
2, 94080, Note_on_c, 0, 61, 64
2, 94200, Note_on_c, 0, 61, 0
2, 94200, Note_on_c, 0, 45, 0
2, 94200, Note_on_c, 0, 64, 64
2, 94200, Note_on_c, 0, 45, 64
2, 94320, Note_on_c, 0, 45, 0
2, 94320, Note_on_c, 0, 64, 0
2, 94320, Note_on_c, 0, 67, 0
2, 94320, Note_on_c, 0, 73, 64
2, 94320, Note_on_c, 0, 67, 64
2, 94320, Note_on_c, 0, 45, 64
2, 94440, Note_on_c, 0, 67, 0
2, 94440, Note_on_c, 0, 64, 64
2, 94560, Note_on_c, 0, 64, 0
2, 94560, Note_on_c, 0, 67, 64
2, 94680, Note_on_c, 0, 67, 0
2, 94680, Note_on_c, 0, 73, 0
2, 94680, Note_on_c, 0, 76, 64
2, 94680, Note_on_c, 0, 73, 64
2, 94800, Note_on_c, 0, 73, 0
2, 94800, Note_on_c, 0, 67, 64
2, 94860, Note_on_c, 0, 45, 0
2, 94860, Note_on_c, 0, 52, 64
2, 94920, Note_on_c, 0, 52, 0
2, 94920, Note_on_c, 0, 67, 0
2, 94920, Note_on_c, 0, 73, 64
2, 94920, Note_on_c, 0, 54, 64
2, 94980, Note_on_c, 0, 54, 0
2, 94980, Note_on_c, 0, 55, 64
2, 95040, Note_on_c, 0, 55, 0
2, 95040, Note_on_c, 0, 73, 0
2, 95040, Note_on_c, 0, 66, 64
2, 95040, Note_on_c, 0, 57, 64
2, 95160, Note_on_c, 0, 76, 0
2, 95160, Note_on_c, 0, 74, 64
2, 95220, Note_on_c, 0, 74, 0
2, 95220, Note_on_c, 0, 73, 64
2, 95280, Note_on_c, 0, 73, 0
2, 95280, Note_on_c, 0, 57, 0
2, 95280, Note_on_c, 0, 71, 64
2, 95280, Note_on_c, 0, 45, 64
2, 95340, Note_on_c, 0, 71, 0
2, 95340, Note_on_c, 0, 69, 64
2, 95400, Note_on_c, 0, 69, 0
2, 95400, Note_on_c, 0, 45, 0
2, 95400, Note_on_c, 0, 66, 0
2, 95400, Note_on_c, 0, 68, 64
2, 95400, Note_on_c, 0, 62, 64
2, 95400, Note_on_c, 0, 45, 64
2, 95520, Note_on_c, 0, 68, 0
2, 95520, Note_on_c, 0, 71, 64
2, 95640, Note_on_c, 0, 71, 0
2, 95640, Note_on_c, 0, 45, 0
2, 95640, Note_on_c, 0, 68, 64
2, 95640, Note_on_c, 0, 45, 64
2, 95760, Note_on_c, 0, 45, 0
2, 95760, Note_on_c, 0, 68, 0
2, 95760, Note_on_c, 0, 62, 0
2, 95760, Note_on_c, 0, 62, 64
2, 95760, Note_on_c, 0, 59, 64
2, 95760, Note_on_c, 0, 45, 64
2, 95880, Note_on_c, 0, 62, 0
2, 95880, Note_on_c, 0, 68, 64
2, 96000, Note_on_c, 0, 68, 0
2, 96000, Note_on_c, 0, 62, 64
2, 96120, Note_on_c, 0, 62, 0
2, 96120, Note_on_c, 0, 45, 0
2, 96120, Note_on_c, 0, 59, 0
2, 96120, Note_on_c, 0, 56, 64
2, 96120, Note_on_c, 0, 59, 64
2, 96240, Note_on_c, 0, 59, 0
2, 96240, Note_on_c, 0, 62, 64
2, 96360, Note_on_c, 0, 62, 0
2, 96360, Note_on_c, 0, 59, 64
2, 96480, Note_on_c, 0, 59, 0
2, 96480, Note_on_c, 0, 56, 0
2, 96480, Note_on_c, 0, 61, 64
2, 96480, Note_on_c, 0, 57, 64
2, 96600, Note_on_c, 0, 61, 0
2, 96600, Note_on_c, 0, 59, 64
2, 96660, Note_on_c, 0, 42, 64
2, 96720, Note_on_c, 0, 42, 0
2, 96720, Note_on_c, 0, 59, 0
2, 96720, Note_on_c, 0, 57, 64
2, 96720, Note_on_c, 0, 55, 64
2, 96720, Note_on_c, 0, 43, 64
2, 96721, Note_on_c, 0, 57, 0
2, 96780, Note_on_c, 0, 43, 0
2, 96780, Note_on_c, 0, 45, 64
2, 96840, Note_on_c, 0, 45, 0
2, 96840, Note_on_c, 0, 55, 0
2, 96840, Note_on_c, 0, 57, 0
2, 96840, Note_on_c, 0, 62, 64
2, 96840, Note_on_c, 0, 54, 64
2, 96840, Note_on_c, 0, 47, 64
2, 96960, Note_on_c, 0, 47, 0
2, 96960, Note_on_c, 0, 45, 64
2, 97080, Note_on_c, 0, 45, 0
2, 97080, Note_on_c, 0, 54, 0
2, 97080, Note_on_c, 0, 62, 0
2, 97080, Note_on_c, 0, 67, 64
2, 97080, Note_on_c, 0, 64, 64
2, 97080, Note_on_c, 0, 43, 64
2, 97200, Note_on_c, 0, 43, 0
2, 97200, Note_on_c, 0, 64, 0
2, 97200, Note_on_c, 0, 61, 64
2, 97200, Note_on_c, 0, 45, 64
2, 97320, Note_on_c, 0, 67, 0
2, 97320, Note_on_c, 0, 66, 64
2, 97380, Note_on_c, 0, 66, 0
2, 97380, Note_on_c, 0, 64, 64
2, 97440, Note_on_c, 0, 64, 0
2, 97440, Note_on_c, 0, 45, 0
2, 97440, Note_on_c, 0, 61, 0
2, 97440, Note_on_c, 0, 62, 64
2, 97440, Note_on_c, 0, 66, 64
2, 97440, Note_on_c, 0, 57, 64
2, 97560, Note_on_c, 0, 57, 0
2, 97560, Note_on_c, 0, 66, 0
2, 97560, Note_on_c, 0, 64, 64
2, 97560, Note_on_c, 0, 57, 64
2, 97680, Note_on_c, 0, 62, 0
2, 97680, Note_on_c, 0, 61, 64
2, 97740, Note_on_c, 0, 61, 0
2, 97740, Note_on_c, 0, 59, 64
2, 97800, Note_on_c, 0, 59, 0
2, 97800, Note_on_c, 0, 57, 0
2, 97800, Note_on_c, 0, 64, 0
2, 97800, Note_on_c, 0, 45, 64
2, 97800, Note_on_c, 0, 69, 64
2, 97800, Note_on_c, 0, 61, 64
2, 97920, Note_on_c, 0, 61, 0
2, 97920, Note_on_c, 0, 69, 0
2, 97920, Note_on_c, 0, 45, 0
2, 97920, Note_on_c, 0, 66, 64
2, 97920, Note_on_c, 0, 62, 64
2, 97920, Note_on_c, 0, 50, 64
2, 97980, Note_on_c, 0, 62, 0
2, 97980, Note_on_c, 0, 66, 0
2, 97980, Note_on_c, 0, 69, 64
2, 98040, Note_on_c, 0, 69, 0
2, 98040, Note_on_c, 0, 71, 64
2, 98100, Note_on_c, 0, 71, 0
2, 98100, Note_on_c, 0, 73, 64
2, 98160, Note_on_c, 0, 73, 0
2, 98160, Note_on_c, 0, 50, 0
2, 98160, Note_on_c, 0, 74, 64
2, 98160, Note_on_c, 0, 57, 64
2, 98220, Note_on_c, 0, 74, 0
2, 98220, Note_on_c, 0, 76, 64
2, 98280, Note_on_c, 0, 76, 0
2, 98280, Note_on_c, 0, 57, 0
2, 98280, Note_on_c, 0, 78, 64
2, 98280, Note_on_c, 0, 62, 64
2, 98340, Note_on_c, 0, 78, 0
2, 98340, Note_on_c, 0, 76, 64
2, 98400, Note_on_c, 0, 76, 0
2, 98400, Note_on_c, 0, 74, 64
2, 98460, Note_on_c, 0, 74, 0
2, 98460, Note_on_c, 0, 73, 64
2, 98520, Note_on_c, 0, 73, 0
2, 98520, Note_on_c, 0, 71, 64
2, 98580, Note_on_c, 0, 71, 0
2, 98580, Note_on_c, 0, 69, 64
2, 98640, Note_on_c, 0, 69, 0
2, 98640, Note_on_c, 0, 68, 64
2, 98760, Note_on_c, 0, 68, 0
2, 98760, Note_on_c, 0, 62, 0
2, 98760, Note_on_c, 0, 71, 64
2, 98760, Note_on_c, 0, 64, 64
2, 98820, Note_on_c, 0, 64, 0
2, 98820, Note_on_c, 0, 62, 64
2, 98880, Note_on_c, 0, 62, 0
2, 98880, Note_on_c, 0, 71, 0
2, 98880, Note_on_c, 0, 76, 64
2, 98880, Note_on_c, 0, 61, 64
2, 98940, Note_on_c, 0, 61, 0
2, 98940, Note_on_c, 0, 59, 64
2, 99000, Note_on_c, 0, 59, 0
2, 99000, Note_on_c, 0, 76, 0
2, 99000, Note_on_c, 0, 76, 64
2, 99000, Note_on_c, 0, 58, 64
2, 99120, Note_on_c, 0, 58, 0
2, 99120, Note_on_c, 0, 73, 64
2, 99120, Note_on_c, 0, 59, 64
2, 99180, Note_on_c, 0, 59, 0
2, 99180, Note_on_c, 0, 58, 64
2, 99240, Note_on_c, 0, 58, 0
2, 99240, Note_on_c, 0, 73, 0
2, 99240, Note_on_c, 0, 70, 64
2, 99240, Note_on_c, 0, 56, 64
2, 99300, Note_on_c, 0, 56, 0
2, 99300, Note_on_c, 0, 54, 64
2, 99360, Note_on_c, 0, 54, 0
2, 99360, Note_on_c, 0, 70, 0
2, 99360, Note_on_c, 0, 66, 64
2, 99360, Note_on_c, 0, 59, 64
2, 99480, Note_on_c, 0, 66, 0
2, 99480, Note_on_c, 0, 68, 64
2, 99540, Note_on_c, 0, 68, 0
2, 99540, Note_on_c, 0, 70, 64
2, 99600, Note_on_c, 0, 70, 0
2, 99600, Note_on_c, 0, 59, 0
2, 99600, Note_on_c, 0, 71, 64
2, 99600, Note_on_c, 0, 47, 64
2, 99660, Note_on_c, 0, 71, 0
2, 99660, Note_on_c, 0, 73, 64
2, 99720, Note_on_c, 0, 73, 0
2, 99720, Note_on_c, 0, 47, 0
2, 99720, Note_on_c, 0, 76, 0
2, 99720, Note_on_c, 0, 74, 64
2, 99720, Note_on_c, 0, 59, 64
2, 99780, Note_on_c, 0, 74, 0
2, 99780, Note_on_c, 0, 73, 64
2, 99780, Note_on_c, 0, 73, 64
2, 99840, Note_on_c, 0, 73, 0
2, 99840, Note_on_c, 0, 73, 0
2, 99840, Note_on_c, 0, 71, 64
2, 99900, Note_on_c, 0, 71, 0
2, 99900, Note_on_c, 0, 69, 64
2, 99960, Note_on_c, 0, 69, 0
2, 99960, Note_on_c, 0, 67, 64
2, 100020, Note_on_c, 0, 67, 0
2, 100020, Note_on_c, 0, 66, 64
2, 100080, Note_on_c, 0, 66, 0
2, 100080, Note_on_c, 0, 64, 64
2, 100200, Note_on_c, 0, 64, 0
2, 100200, Note_on_c, 0, 59, 0
2, 100200, Note_on_c, 0, 67, 64
2, 100200, Note_on_c, 0, 60, 64
2, 100260, Note_on_c, 0, 60, 0
2, 100260, Note_on_c, 0, 59, 64
2, 100320, Note_on_c, 0, 59, 0
2, 100320, Note_on_c, 0, 67, 0
2, 100320, Note_on_c, 0, 72, 64
2, 100320, Note_on_c, 0, 57, 64
2, 100380, Note_on_c, 0, 57, 0
2, 100380, Note_on_c, 0, 55, 64
2, 100440, Note_on_c, 0, 55, 0
2, 100440, Note_on_c, 0, 72, 0
2, 100440, Note_on_c, 0, 72, 64
2, 100440, Note_on_c, 0, 54, 64
2, 100560, Note_on_c, 0, 54, 0
2, 100560, Note_on_c, 0, 69, 64
2, 100560, Note_on_c, 0, 55, 64
2, 100620, Note_on_c, 0, 55, 0
2, 100620, Note_on_c, 0, 54, 64
2, 100680, Note_on_c, 0, 54, 0
2, 100680, Note_on_c, 0, 69, 0
2, 100680, Note_on_c, 0, 66, 64
2, 100680, Note_on_c, 0, 52, 64
2, 100740, Note_on_c, 0, 52, 0
2, 100740, Note_on_c, 0, 50, 64
2, 100800, Note_on_c, 0, 50, 0
2, 100800, Note_on_c, 0, 66, 0
2, 100800, Note_on_c, 0, 62, 64
2, 100800, Note_on_c, 0, 55, 64
2, 100920, Note_on_c, 0, 62, 0
2, 100920, Note_on_c, 0, 64, 64
2, 100980, Note_on_c, 0, 64, 0
2, 100980, Note_on_c, 0, 66, 64
2, 101040, Note_on_c, 0, 66, 0
2, 101040, Note_on_c, 0, 55, 0
2, 101040, Note_on_c, 0, 67, 64
2, 101040, Note_on_c, 0, 43, 64
2, 101100, Note_on_c, 0, 67, 0
2, 101100, Note_on_c, 0, 69, 64
2, 101160, Note_on_c, 0, 69, 0
2, 101160, Note_on_c, 0, 43, 0
2, 101160, Note_on_c, 0, 72, 0
2, 101160, Note_on_c, 0, 71, 64
2, 101160, Note_on_c, 0, 55, 64
2, 101220, Note_on_c, 0, 71, 0
2, 101220, Note_on_c, 0, 69, 64
2, 101280, Note_on_c, 0, 69, 0
2, 101280, Note_on_c, 0, 67, 64
2, 101340, Note_on_c, 0, 67, 0
2, 101340, Note_on_c, 0, 66, 64
2, 101400, Note_on_c, 0, 66, 0
2, 101400, Note_on_c, 0, 64, 64
2, 101460, Note_on_c, 0, 64, 0
2, 101460, Note_on_c, 0, 62, 64
2, 101520, Note_on_c, 0, 62, 0
2, 101520, Note_on_c, 0, 61, 64
2, 101640, Note_on_c, 0, 61, 0
2, 101640, Note_on_c, 0, 55, 0
2, 101640, Note_on_c, 0, 64, 64
2, 101640, Note_on_c, 0, 57, 64
2, 101700, Note_on_c, 0, 57, 0
2, 101700, Note_on_c, 0, 55, 64
2, 101760, Note_on_c, 0, 55, 0
2, 101760, Note_on_c, 0, 64, 0
2, 101760, Note_on_c, 0, 69, 64
2, 101760, Note_on_c, 0, 61, 64
2, 101760, Note_on_c, 0, 54, 64
2, 101820, Note_on_c, 0, 54, 0
2, 101820, Note_on_c, 0, 52, 64
2, 101880, Note_on_c, 0, 52, 0
2, 101880, Note_on_c, 0, 61, 0
2, 101880, Note_on_c, 0, 69, 0
2, 101880, Note_on_c, 0, 66, 64
2, 101880, Note_on_c, 0, 62, 64
2, 101880, Note_on_c, 0, 50, 64
2, 102000, Note_on_c, 0, 50, 0
2, 102000, Note_on_c, 0, 66, 0
2, 102000, Note_on_c, 0, 69, 64
2, 102000, Note_on_c, 0, 52, 64
2, 102060, Note_on_c, 0, 52, 0
2, 102060, Note_on_c, 0, 54, 64
2, 102120, Note_on_c, 0, 54, 0
2, 102120, Note_on_c, 0, 69, 0
2, 102120, Note_on_c, 0, 62, 0
2, 102120, Note_on_c, 0, 66, 64
2, 102120, Note_on_c, 0, 74, 64
2, 102120, Note_on_c, 0, 55, 64
2, 102180, Note_on_c, 0, 55, 0
2, 102180, Note_on_c, 0, 57, 64
2, 102240, Note_on_c, 0, 57, 0
2, 102240, Note_on_c, 0, 74, 0
2, 102240, Note_on_c, 0, 66, 0
2, 102240, Note_on_c, 0, 67, 64
2, 102240, Note_on_c, 0, 59, 64
2, 102360, Note_on_c, 0, 59, 0
2, 102360, Note_on_c, 0, 69, 64
2, 102360, Note_on_c, 0, 57, 64
2, 102480, Note_on_c, 0, 57, 0
2, 102480, Note_on_c, 0, 69, 0
2, 102480, Note_on_c, 0, 67, 0
2, 102480, Note_on_c, 0, 55, 64
2, 102480, Note_on_c, 0, 76, 64
2, 102480, Note_on_c, 0, 71, 64
2, 102600, Note_on_c, 0, 71, 0
2, 102600, Note_on_c, 0, 76, 0
2, 102600, Note_on_c, 0, 55, 0
2, 102600, Note_on_c, 0, 69, 64
2, 102600, Note_on_c, 0, 66, 64
2, 102600, Note_on_c, 0, 57, 64
2, 102720, Note_on_c, 0, 69, 0
2, 102720, Note_on_c, 0, 74, 64
2, 102840, Note_on_c, 0, 74, 0
2, 102840, Note_on_c, 0, 57, 0
2, 102840, Note_on_c, 0, 66, 0
2, 102840, Note_on_c, 0, 73, 64
2, 102840, Note_on_c, 0, 64, 64
2, 102840, Note_on_c, 0, 67, 64
2, 102840, Note_on_c, 0, 45, 64
2, 102960, Note_on_c, 0, 45, 0
2, 102960, Note_on_c, 0, 73, 0
2, 102960, Note_on_c, 0, 64, 0
2, 102960, Note_on_c, 0, 38, 64
2, 102960, Note_on_c, 0, 74, 64
2, 102960, Note_on_c, 0, 62, 64
2, 103080, Note_on_c, 0, 67, 0
2, 103080, Note_on_c, 0, 69, 64
2, 103200, Note_on_c, 0, 62, 0
2, 103200, Note_on_c, 0, 66, 64
2, 103320, Note_on_c, 0, 62, 64
2, 103680, Note_on_c, 0, 62, 0
2, 103680, Note_on_c, 0, 38, 0
2, 103680, Note_on_c, 0, 69, 0
2, 103680, Note_on_c, 0, 74, 0
2, 103680, Note_on_c, 0, 66, 0
2, 103680, Note_on_c, 0, 45, 64
2, 103800, Note_on_c, 0, 76, 64
2, 103860, Note_on_c, 0, 76, 0
2, 103860, Note_on_c, 0, 74, 64
2, 103920, Note_on_c, 0, 74, 0
2, 103920, Note_on_c, 0, 73, 64
2, 103980, Note_on_c, 0, 73, 0
2, 103980, Note_on_c, 0, 71, 64
2, 104040, Note_on_c, 0, 71, 0
2, 104040, Note_on_c, 0, 45, 0
2, 104040, Note_on_c, 0, 69, 64
2, 104160, Note_on_c, 0, 69, 0
2, 104160, Note_on_c, 0, 73, 64
2, 104280, Note_on_c, 0, 73, 0
2, 104280, Note_on_c, 0, 69, 64
2, 104400, Note_on_c, 0, 69, 0
2, 104400, Note_on_c, 0, 64, 64
2, 104520, Note_on_c, 0, 64, 0
2, 104520, Note_on_c, 0, 69, 64
2, 104640, Note_on_c, 0, 69, 0
2, 104640, Note_on_c, 0, 64, 64
2, 104760, Note_on_c, 0, 64, 0
2, 104760, Note_on_c, 0, 61, 64
2, 104880, Note_on_c, 0, 61, 0
2, 104880, Note_on_c, 0, 64, 64
2, 105000, Note_on_c, 0, 64, 0
2, 105000, Note_on_c, 0, 61, 64
2, 105120, Note_on_c, 0, 61, 0
2, 105120, Note_on_c, 0, 57, 64
2, 105240, Note_on_c, 0, 69, 64
2, 105300, Note_on_c, 0, 69, 0
2, 105300, Note_on_c, 0, 71, 64
2, 105360, Note_on_c, 0, 71, 0
2, 105360, Note_on_c, 0, 73, 64
2, 105420, Note_on_c, 0, 73, 0
2, 105420, Note_on_c, 0, 74, 64
2, 105480, Note_on_c, 0, 74, 0
2, 105480, Note_on_c, 0, 57, 0
2, 105480, Note_on_c, 0, 76, 64
2, 105480, Note_on_c, 0, 61, 64
2, 105480, Note_on_c, 0, 69, 64
2, 105480, Note_on_c, 0, 57, 64
2, 105600, Note_on_c, 0, 76, 0
2, 105600, Note_on_c, 0, 73, 64
2, 105720, Note_on_c, 0, 73, 0
2, 105720, Note_on_c, 0, 76, 64
2, 105840, Note_on_c, 0, 76, 0
2, 105840, Note_on_c, 0, 61, 0
2, 105840, Note_on_c, 0, 69, 0
2, 105840, Note_on_c, 0, 57, 0
2, 105840, Note_on_c, 0, 81, 64
2, 105840, Note_on_c, 0, 61, 64
2, 105840, Note_on_c, 0, 69, 64
2, 105840, Note_on_c, 0, 57, 64
2, 105900, Note_on_c, 0, 81, 0
2, 105900, Note_on_c, 0, 76, 64
2, 105960, Note_on_c, 0, 76, 0
2, 105960, Note_on_c, 0, 57, 0
2, 105960, Note_on_c, 0, 78, 64
2, 106020, Note_on_c, 0, 78, 0
2, 106020, Note_on_c, 0, 69, 0
2, 106020, Note_on_c, 0, 61, 0
2, 106020, Note_on_c, 0, 80, 64
2, 106020, Note_on_c, 0, 62, 64
2, 106020, Note_on_c, 0, 71, 64
2, 106080, Note_on_c, 0, 80, 0
2, 106080, Note_on_c, 0, 81, 64
2, 106140, Note_on_c, 0, 81, 0
2, 106140, Note_on_c, 0, 80, 64
2, 106200, Note_on_c, 0, 80, 0
2, 106200, Note_on_c, 0, 71, 0
2, 106200, Note_on_c, 0, 62, 0
2, 106200, Note_on_c, 0, 81, 64
2, 106200, Note_on_c, 0, 62, 64
2, 106200, Note_on_c, 0, 71, 64
2, 106260, Note_on_c, 0, 81, 0
2, 106260, Note_on_c, 0, 76, 64
2, 106320, Note_on_c, 0, 76, 0
2, 106320, Note_on_c, 0, 78, 64
2, 106380, Note_on_c, 0, 78, 0
2, 106380, Note_on_c, 0, 71, 0
2, 106380, Note_on_c, 0, 62, 0
2, 106380, Note_on_c, 0, 73, 64
2, 106380, Note_on_c, 0, 64, 64
2, 106380, Note_on_c, 0, 80, 64
2, 106440, Note_on_c, 0, 80, 0
2, 106440, Note_on_c, 0, 81, 64
2, 106500, Note_on_c, 0, 81, 0
2, 106500, Note_on_c, 0, 80, 64
2, 106560, Note_on_c, 0, 80, 0
2, 106560, Note_on_c, 0, 64, 0
2, 106560, Note_on_c, 0, 73, 0
2, 106560, Note_on_c, 0, 81, 64
2, 106560, Note_on_c, 0, 64, 64
2, 106560, Note_on_c, 0, 73, 64
2, 106680, Note_on_c, 0, 73, 0
2, 106680, Note_on_c, 0, 64, 0
2, 106680, Note_on_c, 0, 81, 0
2, 106680, Note_on_c, 0, 80, 64
2, 106680, Note_on_c, 0, 64, 64
2, 106740, Note_on_c, 0, 64, 0
2, 106740, Note_on_c, 0, 80, 0
2, 106740, Note_on_c, 0, 78, 64
2, 106740, Note_on_c, 0, 62, 64
2, 106800, Note_on_c, 0, 62, 0
2, 106800, Note_on_c, 0, 78, 0
2, 106800, Note_on_c, 0, 76, 64
2, 106800, Note_on_c, 0, 61, 64
2, 106860, Note_on_c, 0, 61, 0
2, 106860, Note_on_c, 0, 76, 0
2, 106860, Note_on_c, 0, 74, 64
2, 106860, Note_on_c, 0, 59, 64
2, 106920, Note_on_c, 0, 59, 0
2, 106920, Note_on_c, 0, 74, 0
2, 106920, Note_on_c, 0, 73, 64
2, 106920, Note_on_c, 0, 57, 64
2, 106980, Note_on_c, 0, 73, 0
2, 106980, Note_on_c, 0, 74, 64
2, 107040, Note_on_c, 0, 74, 0
2, 107040, Note_on_c, 0, 57, 0
2, 107040, Note_on_c, 0, 76, 64
2, 107040, Note_on_c, 0, 61, 64
2, 107100, Note_on_c, 0, 76, 0
2, 107100, Note_on_c, 0, 74, 64
2, 107160, Note_on_c, 0, 74, 0
2, 107160, Note_on_c, 0, 61, 0
2, 107160, Note_on_c, 0, 73, 64
2, 107160, Note_on_c, 0, 57, 64
2, 107220, Note_on_c, 0, 73, 0
2, 107220, Note_on_c, 0, 71, 64
2, 107270, Note_on_c, 0, 71, 0
2, 107280, Note_on_c, 0, 57, 0
2, 107280, Note_on_c, 0, 71, 74
2, 107280, Note_on_c, 0, 52, 64
2, 107310, Note_on_c, 0, 71, 0
2, 107310, Note_on_c, 0, 69, 50
2, 107340, Note_on_c, 0, 69, 0
2, 107340, Note_on_c, 0, 71, 50
2, 107370, Note_on_c, 0, 71, 0
2, 107370, Note_on_c, 0, 69, 51
2, 107400, Note_on_c, 0, 69, 0
2, 107400, Note_on_c, 0, 52, 0
2, 107400, Note_on_c, 0, 71, 52
2, 107400, Note_on_c, 0, 57, 64
2, 107430, Note_on_c, 0, 71, 0
2, 107430, Note_on_c, 0, 69, 52
2, 107460, Note_on_c, 0, 69, 0
2, 107460, Note_on_c, 0, 71, 53
2, 107490, Note_on_c, 0, 71, 0
2, 107490, Note_on_c, 0, 69, 54
2, 107520, Note_on_c, 0, 69, 0
2, 107520, Note_on_c, 0, 57, 0
2, 107520, Note_on_c, 0, 71, 54
2, 107520, Note_on_c, 0, 52, 64
2, 107550, Note_on_c, 0, 71, 0
2, 107550, Note_on_c, 0, 69, 55
2, 107580, Note_on_c, 0, 69, 0
2, 107580, Note_on_c, 0, 71, 56
2, 107610, Note_on_c, 0, 71, 0
2, 107610, Note_on_c, 0, 69, 56
2, 107640, Note_on_c, 0, 69, 0
2, 107640, Note_on_c, 0, 52, 0
2, 107640, Note_on_c, 0, 71, 57
2, 107640, Note_on_c, 0, 49, 64
2, 107670, Note_on_c, 0, 71, 0
2, 107670, Note_on_c, 0, 69, 58
2, 107700, Note_on_c, 0, 69, 0
2, 107700, Note_on_c, 0, 71, 58
2, 107730, Note_on_c, 0, 71, 0
2, 107730, Note_on_c, 0, 69, 59
2, 107760, Note_on_c, 0, 69, 0
2, 107760, Note_on_c, 0, 49, 0
2, 107760, Note_on_c, 0, 71, 60
2, 107760, Note_on_c, 0, 52, 64
2, 107790, Note_on_c, 0, 71, 0
2, 107790, Note_on_c, 0, 69, 60
2, 107820, Note_on_c, 0, 69, 0
2, 107820, Note_on_c, 0, 71, 61
2, 107850, Note_on_c, 0, 71, 0
2, 107850, Note_on_c, 0, 69, 62
2, 107880, Note_on_c, 0, 69, 0
2, 107880, Note_on_c, 0, 52, 0
2, 107880, Note_on_c, 0, 71, 62
2, 107880, Note_on_c, 0, 49, 64
2, 107910, Note_on_c, 0, 71, 0
2, 107910, Note_on_c, 0, 69, 63
2, 107940, Note_on_c, 0, 69, 0
2, 107940, Note_on_c, 0, 71, 82
2, 107970, Note_on_c, 0, 71, 0
2, 107970, Note_on_c, 0, 69, 73
2, 108000, Note_on_c, 0, 49, 0
2, 108000, Note_on_c, 0, 45, 64
2, 108060, Note_on_c, 0, 69, 0
2, 108060, Note_on_c, 0, 71, 64
2, 108120, Note_on_c, 0, 71, 0
2, 108120, Note_on_c, 0, 69, 64
2, 108180, Note_on_c, 0, 69, 0
2, 108180, Note_on_c, 0, 68, 64
2, 108240, Note_on_c, 0, 68, 0
2, 108240, Note_on_c, 0, 69, 64
2, 108300, Note_on_c, 0, 69, 0
2, 108300, Note_on_c, 0, 64, 64
2, 108360, Note_on_c, 0, 64, 0
2, 108360, Note_on_c, 0, 45, 0
2, 108360, Note_on_c, 0, 61, 64
2, 108360, Note_on_c, 0, 45, 64
2, 108360, Note_on_c, 0, 49, 64
2, 108360, Note_on_c, 0, 52, 64
2, 108420, Note_on_c, 0, 61, 0
2, 108420, Note_on_c, 0, 66, 64
2, 108480, Note_on_c, 0, 66, 0
2, 108480, Note_on_c, 0, 64, 64
2, 108540, Note_on_c, 0, 64, 0
2, 108540, Note_on_c, 0, 62, 64
2, 108600, Note_on_c, 0, 62, 0
2, 108600, Note_on_c, 0, 64, 64
2, 108660, Note_on_c, 0, 64, 0
2, 108660, Note_on_c, 0, 61, 64
2, 108720, Note_on_c, 0, 61, 0
2, 108720, Note_on_c, 0, 52, 0
2, 108720, Note_on_c, 0, 49, 0
2, 108720, Note_on_c, 0, 45, 0
2, 108720, Note_on_c, 0, 59, 72
2, 108720, Note_on_c, 0, 45, 64
2, 108720, Note_on_c, 0, 49, 64
2, 108720, Note_on_c, 0, 52, 64
2, 108750, Note_on_c, 0, 59, 0
2, 108750, Note_on_c, 0, 57, 72
2, 108780, Note_on_c, 0, 57, 0
2, 108780, Note_on_c, 0, 59, 50
2, 108810, Note_on_c, 0, 59, 0
2, 108810, Note_on_c, 0, 57, 51
2, 108840, Note_on_c, 0, 57, 0
2, 108840, Note_on_c, 0, 59, 51
2, 108870, Note_on_c, 0, 59, 0
2, 108870, Note_on_c, 0, 57, 52
2, 108900, Note_on_c, 0, 57, 0
2, 108900, Note_on_c, 0, 52, 0
2, 108900, Note_on_c, 0, 49, 0
2, 108900, Note_on_c, 0, 45, 0
2, 108900, Note_on_c, 0, 59, 53
2, 108900, Note_on_c, 0, 47, 64
2, 108900, Note_on_c, 0, 50, 64
2, 108930, Note_on_c, 0, 59, 0
2, 108930, Note_on_c, 0, 57, 53
2, 108960, Note_on_c, 0, 57, 0
2, 108960, Note_on_c, 0, 59, 54
2, 108990, Note_on_c, 0, 59, 0
2, 108990, Note_on_c, 0, 57, 55
2, 109020, Note_on_c, 0, 57, 0
2, 109020, Note_on_c, 0, 59, 55
2, 109050, Note_on_c, 0, 59, 0
2, 109050, Note_on_c, 0, 57, 56
2, 109080, Note_on_c, 0, 57, 0
2, 109080, Note_on_c, 0, 50, 0
2, 109080, Note_on_c, 0, 47, 0
2, 109080, Note_on_c, 0, 59, 57
2, 109080, Note_on_c, 0, 47, 64
2, 109080, Note_on_c, 0, 50, 64
2, 109110, Note_on_c, 0, 59, 0
2, 109110, Note_on_c, 0, 57, 57
2, 109140, Note_on_c, 0, 57, 0
2, 109140, Note_on_c, 0, 59, 58
2, 109170, Note_on_c, 0, 59, 0
2, 109170, Note_on_c, 0, 57, 59
2, 109200, Note_on_c, 0, 57, 0
2, 109200, Note_on_c, 0, 59, 59
2, 109230, Note_on_c, 0, 59, 0
2, 109230, Note_on_c, 0, 57, 60
2, 109260, Note_on_c, 0, 57, 0
2, 109260, Note_on_c, 0, 50, 0
2, 109260, Note_on_c, 0, 47, 0
2, 109260, Note_on_c, 0, 59, 61
2, 109260, Note_on_c, 0, 52, 64
2, 109260, Note_on_c, 0, 49, 64
2, 109290, Note_on_c, 0, 59, 0
2, 109290, Note_on_c, 0, 57, 62
2, 109320, Note_on_c, 0, 57, 0
2, 109320, Note_on_c, 0, 59, 62
2, 109350, Note_on_c, 0, 59, 0
2, 109350, Note_on_c, 0, 57, 63
2, 109380, Note_on_c, 0, 57, 0
2, 109380, Note_on_c, 0, 59, 63
2, 109410, Note_on_c, 0, 59, 0
2, 109410, Note_on_c, 0, 57, 79
2, 109440, Note_on_c, 0, 49, 0
2, 109440, Note_on_c, 0, 52, 0
2, 109440, Note_on_c, 0, 52, 64
2, 109440, Note_on_c, 0, 49, 64
2, 109490, Note_on_c, 0, 57, 0
2, 109560, Note_on_c, 0, 52, 0
2, 109560, Note_on_c, 0, 57, 64
2, 109620, Note_on_c, 0, 57, 0
2, 109620, Note_on_c, 0, 59, 64
2, 109680, Note_on_c, 0, 59, 0
2, 109680, Note_on_c, 0, 61, 64
2, 109740, Note_on_c, 0, 61, 0
2, 109740, Note_on_c, 0, 62, 64
2, 109800, Note_on_c, 0, 62, 0
2, 109800, Note_on_c, 0, 49, 0
2, 109800, Note_on_c, 0, 64, 64
2, 109920, Note_on_c, 0, 64, 0
2, 109920, Note_on_c, 0, 61, 64
2, 110040, Note_on_c, 0, 61, 0
2, 110040, Note_on_c, 0, 57, 64
2, 110040, Note_on_c, 0, 64, 64
2, 110160, Note_on_c, 0, 64, 0
2, 110160, Note_on_c, 0, 57, 0
2, 110160, Note_on_c, 0, 67, 64
2, 110160, Note_on_c, 0, 59, 64
2, 110280, Note_on_c, 0, 59, 0
2, 110280, Note_on_c, 0, 67, 0
2, 110280, Note_on_c, 0, 76, 64
2, 110280, Note_on_c, 0, 61, 64
2, 110340, Note_on_c, 0, 61, 0
2, 110340, Note_on_c, 0, 76, 0
2, 110340, Note_on_c, 0, 74, 64
2, 110340, Note_on_c, 0, 59, 64
2, 110400, Note_on_c, 0, 59, 0
2, 110400, Note_on_c, 0, 74, 0
2, 110400, Note_on_c, 0, 73, 64
2, 110400, Note_on_c, 0, 57, 64
2, 110460, Note_on_c, 0, 57, 0
2, 110460, Note_on_c, 0, 73, 0
2, 110460, Note_on_c, 0, 71, 64
2, 110460, Note_on_c, 0, 59, 64
2, 110520, Note_on_c, 0, 59, 0
2, 110520, Note_on_c, 0, 71, 0
2, 110520, Note_on_c, 0, 69, 64
2, 110520, Note_on_c, 0, 61, 64
2, 110640, Note_on_c, 0, 61, 0
2, 110640, Note_on_c, 0, 69, 0
2, 110640, Note_on_c, 0, 76, 64
2, 110640, Note_on_c, 0, 62, 64
2, 110700, Note_on_c, 0, 62, 0
2, 110700, Note_on_c, 0, 61, 64
2, 110760, Note_on_c, 0, 61, 0
2, 110760, Note_on_c, 0, 76, 0
2, 110760, Note_on_c, 0, 67, 64
2, 110760, Note_on_c, 0, 59, 64
2, 110820, Note_on_c, 0, 59, 0
2, 110820, Note_on_c, 0, 61, 64
2, 110880, Note_on_c, 0, 61, 0
2, 110880, Note_on_c, 0, 67, 0
2, 110880, Note_on_c, 0, 66, 64
2, 110880, Note_on_c, 0, 62, 64
2, 111000, Note_on_c, 0, 66, 0
2, 111000, Note_on_c, 0, 62, 64
2, 111060, Note_on_c, 0, 62, 0
2, 111060, Note_on_c, 0, 64, 64
2, 111120, Note_on_c, 0, 64, 0
2, 111120, Note_on_c, 0, 66, 64
2, 111180, Note_on_c, 0, 66, 0
2, 111180, Note_on_c, 0, 67, 64
2, 111240, Note_on_c, 0, 67, 0
2, 111240, Note_on_c, 0, 62, 0
2, 111240, Note_on_c, 0, 69, 64
2, 111360, Note_on_c, 0, 69, 0
2, 111360, Note_on_c, 0, 66, 64
2, 111480, Note_on_c, 0, 66, 0
2, 111480, Note_on_c, 0, 50, 64
2, 111480, Note_on_c, 0, 69, 64
2, 111600, Note_on_c, 0, 69, 0
2, 111600, Note_on_c, 0, 50, 0
2, 111600, Note_on_c, 0, 72, 64
2, 111600, Note_on_c, 0, 52, 64
2, 111720, Note_on_c, 0, 52, 0
2, 111720, Note_on_c, 0, 72, 0
2, 111720, Note_on_c, 0, 81, 64
2, 111720, Note_on_c, 0, 54, 64
2, 111780, Note_on_c, 0, 54, 0
2, 111780, Note_on_c, 0, 81, 0
2, 111780, Note_on_c, 0, 79, 64
2, 111780, Note_on_c, 0, 52, 64
2, 111840, Note_on_c, 0, 52, 0
2, 111840, Note_on_c, 0, 79, 0
2, 111840, Note_on_c, 0, 78, 64
2, 111840, Note_on_c, 0, 50, 64
2, 111900, Note_on_c, 0, 50, 0
2, 111900, Note_on_c, 0, 78, 0
2, 111900, Note_on_c, 0, 76, 64
2, 111900, Note_on_c, 0, 52, 64
2, 111960, Note_on_c, 0, 52, 0
2, 111960, Note_on_c, 0, 76, 0
2, 111960, Note_on_c, 0, 74, 64
2, 111960, Note_on_c, 0, 54, 64
2, 112080, Note_on_c, 0, 54, 0
2, 112080, Note_on_c, 0, 74, 0
2, 112080, Note_on_c, 0, 81, 64
2, 112080, Note_on_c, 0, 55, 64
2, 112140, Note_on_c, 0, 55, 0
2, 112140, Note_on_c, 0, 54, 64
2, 112200, Note_on_c, 0, 54, 0
2, 112200, Note_on_c, 0, 81, 0
2, 112200, Note_on_c, 0, 72, 64
2, 112200, Note_on_c, 0, 52, 64
2, 112260, Note_on_c, 0, 52, 0
2, 112260, Note_on_c, 0, 54, 64
2, 112320, Note_on_c, 0, 54, 0
2, 112320, Note_on_c, 0, 72, 0
2, 112320, Note_on_c, 0, 71, 64
2, 112320, Note_on_c, 0, 55, 64
2, 112440, Note_on_c, 0, 55, 0
2, 112440, Note_on_c, 0, 59, 64
2, 112500, Note_on_c, 0, 59, 0
2, 112500, Note_on_c, 0, 57, 64
2, 112560, Note_on_c, 0, 57, 0
2, 112560, Note_on_c, 0, 69, 64
2, 112560, Note_on_c, 0, 55, 64
2, 112620, Note_on_c, 0, 55, 0
2, 112620, Note_on_c, 0, 54, 64
2, 112680, Note_on_c, 0, 54, 0
2, 112680, Note_on_c, 0, 69, 0
2, 112680, Note_on_c, 0, 67, 64
2, 112680, Note_on_c, 0, 52, 64
2, 112800, Note_on_c, 0, 52, 0
2, 112800, Note_on_c, 0, 55, 64
2, 112860, Note_on_c, 0, 55, 0
2, 112860, Note_on_c, 0, 54, 64
2, 112920, Note_on_c, 0, 54, 0
2, 112920, Note_on_c, 0, 67, 0
2, 112920, Note_on_c, 0, 66, 64
2, 112920, Note_on_c, 0, 52, 64
2, 112980, Note_on_c, 0, 52, 0
2, 112980, Note_on_c, 0, 50, 64
2, 113040, Note_on_c, 0, 50, 0
2, 113040, Note_on_c, 0, 66, 0
2, 113040, Note_on_c, 0, 64, 64
2, 113040, Note_on_c, 0, 49, 64
2, 113160, Note_on_c, 0, 49, 0
2, 113160, Note_on_c, 0, 71, 0
2, 113160, Note_on_c, 0, 73, 64
2, 113160, Note_on_c, 0, 52, 64
2, 113220, Note_on_c, 0, 73, 0
2, 113220, Note_on_c, 0, 71, 64
2, 113280, Note_on_c, 0, 71, 0
2, 113280, Note_on_c, 0, 52, 0
2, 113280, Note_on_c, 0, 70, 64
2, 113280, Note_on_c, 0, 49, 64
2, 113340, Note_on_c, 0, 70, 0
2, 113340, Note_on_c, 0, 71, 64
2, 113400, Note_on_c, 0, 71, 0
2, 113400, Note_on_c, 0, 49, 0
2, 113400, Note_on_c, 0, 73, 64
2, 113400, Note_on_c, 0, 46, 64
2, 113520, Note_on_c, 0, 46, 0
2, 113520, Note_on_c, 0, 49, 64
2, 113640, Note_on_c, 0, 49, 0
2, 113640, Note_on_c, 0, 64, 0
2, 113640, Note_on_c, 0, 67, 64
2, 113640, Note_on_c, 0, 46, 64
2, 113760, Note_on_c, 0, 46, 0
2, 113760, Note_on_c, 0, 67, 0
2, 113760, Note_on_c, 0, 66, 64
2, 113760, Note_on_c, 0, 50, 64
2, 113880, Note_on_c, 0, 50, 0
2, 113880, Note_on_c, 0, 73, 0
2, 113880, Note_on_c, 0, 74, 64
2, 113880, Note_on_c, 0, 54, 64
2, 113940, Note_on_c, 0, 74, 0
2, 113940, Note_on_c, 0, 73, 64
2, 114000, Note_on_c, 0, 73, 0
2, 114000, Note_on_c, 0, 54, 0
2, 114000, Note_on_c, 0, 71, 64
2, 114000, Note_on_c, 0, 50, 64
2, 114060, Note_on_c, 0, 71, 0
2, 114060, Note_on_c, 0, 73, 64
2, 114120, Note_on_c, 0, 73, 0
2, 114120, Note_on_c, 0, 50, 0
2, 114120, Note_on_c, 0, 74, 64
2, 114120, Note_on_c, 0, 47, 64
2, 114240, Note_on_c, 0, 47, 0
2, 114240, Note_on_c, 0, 50, 64
2, 114360, Note_on_c, 0, 50, 0
2, 114360, Note_on_c, 0, 66, 0
2, 114360, Note_on_c, 0, 69, 64
2, 114360, Note_on_c, 0, 47, 64
2, 114480, Note_on_c, 0, 47, 0
2, 114480, Note_on_c, 0, 69, 0
2, 114480, Note_on_c, 0, 67, 64
2, 114480, Note_on_c, 0, 52, 64
2, 114600, Note_on_c, 0, 52, 0
2, 114600, Note_on_c, 0, 74, 0
2, 114600, Note_on_c, 0, 76, 64
2, 114600, Note_on_c, 0, 55, 64
2, 114660, Note_on_c, 0, 76, 0
2, 114660, Note_on_c, 0, 74, 64
2, 114720, Note_on_c, 0, 74, 0
2, 114720, Note_on_c, 0, 55, 0
2, 114720, Note_on_c, 0, 73, 64
2, 114720, Note_on_c, 0, 52, 64
2, 114780, Note_on_c, 0, 73, 0
2, 114780, Note_on_c, 0, 74, 64
2, 114840, Note_on_c, 0, 74, 0
2, 114840, Note_on_c, 0, 52, 0
2, 114840, Note_on_c, 0, 76, 64
2, 114840, Note_on_c, 0, 49, 64
2, 114960, Note_on_c, 0, 49, 0
2, 114960, Note_on_c, 0, 52, 64
2, 115080, Note_on_c, 0, 52, 0
2, 115080, Note_on_c, 0, 67, 0
2, 115080, Note_on_c, 0, 71, 64
2, 115080, Note_on_c, 0, 49, 64
2, 115200, Note_on_c, 0, 49, 0
2, 115200, Note_on_c, 0, 71, 0
2, 115200, Note_on_c, 0, 70, 64
2, 115200, Note_on_c, 0, 54, 64
2, 115320, Note_on_c, 0, 70, 0
2, 115320, Note_on_c, 0, 76, 0
2, 115320, Note_on_c, 0, 79, 64
2, 115380, Note_on_c, 0, 79, 0
2, 115380, Note_on_c, 0, 78, 64
2, 115440, Note_on_c, 0, 78, 0
2, 115440, Note_on_c, 0, 54, 0
2, 115440, Note_on_c, 0, 76, 64
2, 115440, Note_on_c, 0, 59, 64
2, 115500, Note_on_c, 0, 76, 0
2, 115500, Note_on_c, 0, 75, 64
2, 115560, Note_on_c, 0, 75, 0
2, 115560, Note_on_c, 0, 59, 0
2, 115560, Note_on_c, 0, 76, 64
2, 115560, Note_on_c, 0, 58, 64
2, 115680, Note_on_c, 0, 58, 0
2, 115680, Note_on_c, 0, 76, 0
2, 115680, Note_on_c, 0, 79, 64
2, 115680, Note_on_c, 0, 59, 64
2, 115800, Note_on_c, 0, 59, 0
2, 115800, Note_on_c, 0, 79, 0
2, 115800, Note_on_c, 0, 75, 64
2, 115800, Note_on_c, 0, 61, 64
2, 115920, Note_on_c, 0, 61, 0
2, 115920, Note_on_c, 0, 75, 0
2, 115920, Note_on_c, 0, 76, 64
2, 115920, Note_on_c, 0, 73, 64
2, 115920, Note_on_c, 0, 54, 64
2, 116040, Note_on_c, 0, 73, 0
2, 116040, Note_on_c, 0, 76, 0
2, 116040, Note_on_c, 0, 79, 64
2, 116100, Note_on_c, 0, 79, 0
2, 116100, Note_on_c, 0, 78, 64
2, 116160, Note_on_c, 0, 78, 0
2, 116160, Note_on_c, 0, 54, 0
2, 116160, Note_on_c, 0, 76, 64
2, 116160, Note_on_c, 0, 59, 64
2, 116220, Note_on_c, 0, 76, 0
2, 116220, Note_on_c, 0, 75, 64
2, 116280, Note_on_c, 0, 75, 0
2, 116280, Note_on_c, 0, 59, 0
2, 116280, Note_on_c, 0, 76, 64
2, 116280, Note_on_c, 0, 58, 64
2, 116400, Note_on_c, 0, 76, 0
2, 116400, Note_on_c, 0, 78, 64
2, 116460, Note_on_c, 0, 78, 0
2, 116460, Note_on_c, 0, 76, 64
2, 116520, Note_on_c, 0, 76, 0
2, 116520, Note_on_c, 0, 58, 0
2, 116520, Note_on_c, 0, 59, 64
2, 116520, Note_on_c, 0, 75, 64
2, 116580, Note_on_c, 0, 75, 0
2, 116580, Note_on_c, 0, 73, 64
2, 116640, Note_on_c, 0, 73, 0
2, 116640, Note_on_c, 0, 59, 0
2, 116640, Note_on_c, 0, 75, 64
2, 116640, Note_on_c, 0, 47, 64
2, 116760, Note_on_c, 0, 75, 0
2, 116760, Note_on_c, 0, 72, 64
2, 116820, Note_on_c, 0, 72, 0
2, 116820, Note_on_c, 0, 71, 64
2, 116880, Note_on_c, 0, 71, 0
2, 116880, Note_on_c, 0, 47, 0
2, 116880, Note_on_c, 0, 69, 64
2, 116880, Note_on_c, 0, 64, 64
2, 116940, Note_on_c, 0, 69, 0
2, 116940, Note_on_c, 0, 68, 64
2, 117000, Note_on_c, 0, 68, 0
2, 117000, Note_on_c, 0, 64, 0
2, 117000, Note_on_c, 0, 69, 64
2, 117000, Note_on_c, 0, 63, 64
2, 117120, Note_on_c, 0, 63, 0
2, 117120, Note_on_c, 0, 69, 0
2, 117120, Note_on_c, 0, 72, 64
2, 117120, Note_on_c, 0, 64, 64
2, 117240, Note_on_c, 0, 64, 0
2, 117240, Note_on_c, 0, 72, 0
2, 117240, Note_on_c, 0, 68, 64
2, 117240, Note_on_c, 0, 66, 64
2, 117360, Note_on_c, 0, 66, 0
2, 117360, Note_on_c, 0, 68, 0
2, 117360, Note_on_c, 0, 78, 64
2, 117360, Note_on_c, 0, 69, 64
2, 117360, Note_on_c, 0, 59, 64
2, 117480, Note_on_c, 0, 69, 0
2, 117480, Note_on_c, 0, 78, 0
2, 117480, Note_on_c, 0, 72, 64
2, 117540, Note_on_c, 0, 72, 0
2, 117540, Note_on_c, 0, 71, 64
2, 117600, Note_on_c, 0, 71, 0
2, 117600, Note_on_c, 0, 59, 0
2, 117600, Note_on_c, 0, 64, 64
2, 117600, Note_on_c, 0, 69, 64
2, 117660, Note_on_c, 0, 69, 0
2, 117660, Note_on_c, 0, 68, 64
2, 117720, Note_on_c, 0, 68, 0
2, 117720, Note_on_c, 0, 64, 0
2, 117720, Note_on_c, 0, 69, 64
2, 117720, Note_on_c, 0, 63, 64
2, 117840, Note_on_c, 0, 69, 0
2, 117840, Note_on_c, 0, 71, 64
2, 117900, Note_on_c, 0, 71, 0
2, 117900, Note_on_c, 0, 69, 64
2, 117960, Note_on_c, 0, 69, 0
2, 117960, Note_on_c, 0, 63, 0
2, 117960, Note_on_c, 0, 64, 64
2, 117960, Note_on_c, 0, 67, 64
2, 118020, Note_on_c, 0, 67, 0
2, 118020, Note_on_c, 0, 66, 64
2, 118080, Note_on_c, 0, 66, 0
2, 118080, Note_on_c, 0, 64, 0
2, 118080, Note_on_c, 0, 67, 64
2, 118080, Note_on_c, 0, 52, 64
2, 118140, Note_on_c, 0, 52, 0
2, 118140, Note_on_c, 0, 71, 64
2, 118140, Note_on_c, 0, 55, 64
2, 118200, Note_on_c, 0, 55, 0
2, 118200, Note_on_c, 0, 71, 0
2, 118200, Note_on_c, 0, 67, 0
2, 118200, Note_on_c, 0, 73, 64
2, 118200, Note_on_c, 0, 57, 64
2, 118260, Note_on_c, 0, 57, 0
2, 118260, Note_on_c, 0, 73, 0
2, 118260, Note_on_c, 0, 75, 64
2, 118260, Note_on_c, 0, 59, 64
2, 118320, Note_on_c, 0, 59, 0
2, 118320, Note_on_c, 0, 75, 0
2, 118320, Note_on_c, 0, 76, 64
2, 118320, Note_on_c, 0, 61, 64
2, 118380, Note_on_c, 0, 61, 0
2, 118380, Note_on_c, 0, 76, 0
2, 118380, Note_on_c, 0, 78, 64
2, 118380, Note_on_c, 0, 63, 64
2, 118440, Note_on_c, 0, 63, 0
2, 118440, Note_on_c, 0, 78, 0
2, 118440, Note_on_c, 0, 79, 64
2, 118440, Note_on_c, 0, 64, 64
2, 118500, Note_on_c, 0, 79, 0
2, 118500, Note_on_c, 0, 78, 64
2, 118560, Note_on_c, 0, 78, 0
2, 118560, Note_on_c, 0, 64, 0
2, 118560, Note_on_c, 0, 76, 64
2, 118560, Note_on_c, 0, 67, 64
2, 118620, Note_on_c, 0, 76, 0
2, 118620, Note_on_c, 0, 74, 64
2, 118680, Note_on_c, 0, 74, 0
2, 118680, Note_on_c, 0, 67, 0
2, 118680, Note_on_c, 0, 73, 64
2, 118680, Note_on_c, 0, 64, 64
2, 118740, Note_on_c, 0, 73, 0
2, 118740, Note_on_c, 0, 71, 64
2, 118800, Note_on_c, 0, 71, 0
2, 118800, Note_on_c, 0, 64, 0
2, 118800, Note_on_c, 0, 76, 64
2, 118800, Note_on_c, 0, 61, 64
2, 118860, Note_on_c, 0, 76, 0
2, 118860, Note_on_c, 0, 74, 64
2, 118920, Note_on_c, 0, 74, 0
2, 118920, Note_on_c, 0, 61, 0
2, 118920, Note_on_c, 0, 73, 64
2, 118920, Note_on_c, 0, 64, 64
2, 118980, Note_on_c, 0, 73, 0
2, 118980, Note_on_c, 0, 71, 64
2, 119040, Note_on_c, 0, 71, 0
2, 119040, Note_on_c, 0, 64, 0
2, 119040, Note_on_c, 0, 69, 64
2, 119040, Note_on_c, 0, 61, 64
2, 119100, Note_on_c, 0, 69, 0
2, 119100, Note_on_c, 0, 68, 64
2, 119160, Note_on_c, 0, 68, 0
2, 119160, Note_on_c, 0, 61, 0
2, 119160, Note_on_c, 0, 73, 64
2, 119160, Note_on_c, 0, 57, 64
2, 119220, Note_on_c, 0, 73, 0
2, 119220, Note_on_c, 0, 71, 64
2, 119280, Note_on_c, 0, 71, 0
2, 119280, Note_on_c, 0, 57, 0
2, 119280, Note_on_c, 0, 69, 64
2, 119280, Note_on_c, 0, 61, 64
2, 119340, Note_on_c, 0, 69, 0
2, 119340, Note_on_c, 0, 67, 64
2, 119400, Note_on_c, 0, 67, 0
2, 119400, Note_on_c, 0, 61, 0
2, 119400, Note_on_c, 0, 57, 64
2, 119400, Note_on_c, 0, 66, 64
2, 119460, Note_on_c, 0, 66, 0
2, 119460, Note_on_c, 0, 64, 64
2, 119520, Note_on_c, 0, 64, 0
2, 119520, Note_on_c, 0, 57, 0
2, 119520, Note_on_c, 0, 66, 64
2, 119520, Note_on_c, 0, 50, 64
2, 119580, Note_on_c, 0, 50, 0
2, 119580, Note_on_c, 0, 66, 0
2, 119580, Note_on_c, 0, 69, 64
2, 119580, Note_on_c, 0, 54, 64
2, 119640, Note_on_c, 0, 54, 0
2, 119640, Note_on_c, 0, 69, 0
2, 119640, Note_on_c, 0, 71, 64
2, 119640, Note_on_c, 0, 55, 64
2, 119700, Note_on_c, 0, 55, 0
2, 119700, Note_on_c, 0, 71, 0
2, 119700, Note_on_c, 0, 73, 64
2, 119700, Note_on_c, 0, 57, 64
2, 119760, Note_on_c, 0, 57, 0
2, 119760, Note_on_c, 0, 73, 0
2, 119760, Note_on_c, 0, 74, 64
2, 119760, Note_on_c, 0, 59, 64
2, 119820, Note_on_c, 0, 59, 0
2, 119820, Note_on_c, 0, 74, 0
2, 119820, Note_on_c, 0, 76, 64
2, 119820, Note_on_c, 0, 61, 64
2, 119880, Note_on_c, 0, 61, 0
2, 119880, Note_on_c, 0, 76, 0
2, 119880, Note_on_c, 0, 78, 64
2, 119880, Note_on_c, 0, 62, 64
2, 119940, Note_on_c, 0, 78, 0
2, 119940, Note_on_c, 0, 76, 64
2, 120000, Note_on_c, 0, 76, 0
2, 120000, Note_on_c, 0, 74, 64
2, 120060, Note_on_c, 0, 74, 0
2, 120060, Note_on_c, 0, 73, 64
2, 120120, Note_on_c, 0, 73, 0
2, 120120, Note_on_c, 0, 71, 64
2, 120180, Note_on_c, 0, 71, 0
2, 120180, Note_on_c, 0, 69, 64
2, 120240, Note_on_c, 0, 69, 0
2, 120240, Note_on_c, 0, 68, 64
2, 120300, Note_on_c, 0, 68, 0
2, 120300, Note_on_c, 0, 71, 64
2, 120360, Note_on_c, 0, 71, 0
2, 120360, Note_on_c, 0, 62, 0
2, 120360, Note_on_c, 0, 76, 64
2, 120360, Note_on_c, 0, 61, 64
2, 120420, Note_on_c, 0, 76, 0
2, 120420, Note_on_c, 0, 74, 64
2, 120480, Note_on_c, 0, 74, 0
2, 120480, Note_on_c, 0, 61, 0
2, 120480, Note_on_c, 0, 76, 64
2, 120480, Note_on_c, 0, 59, 64
2, 120540, Note_on_c, 0, 67, 64
2, 120600, Note_on_c, 0, 67, 0
2, 120600, Note_on_c, 0, 59, 0
2, 120600, Note_on_c, 0, 66, 64
2, 120600, Note_on_c, 0, 58, 64
2, 120660, Note_on_c, 0, 58, 0
2, 120660, Note_on_c, 0, 76, 0
2, 120660, Note_on_c, 0, 70, 64
2, 120660, Note_on_c, 0, 61, 64
2, 120720, Note_on_c, 0, 61, 0
2, 120720, Note_on_c, 0, 70, 0
2, 120720, Note_on_c, 0, 73, 64
2, 120720, Note_on_c, 0, 59, 64
2, 120780, Note_on_c, 0, 59, 0
2, 120780, Note_on_c, 0, 74, 64
2, 120780, Note_on_c, 0, 58, 64
2, 120840, Note_on_c, 0, 58, 0
2, 120840, Note_on_c, 0, 74, 0
2, 120840, Note_on_c, 0, 76, 64
2, 120840, Note_on_c, 0, 56, 64
2, 120900, Note_on_c, 0, 56, 0
2, 120900, Note_on_c, 0, 54, 64
2, 120960, Note_on_c, 0, 54, 0
2, 120960, Note_on_c, 0, 59, 64
2, 121010, Note_on_c, 0, 66, 0
2, 121020, Note_on_c, 0, 73, 0
2, 121020, Note_on_c, 0, 76, 0
2, 121020, Note_on_c, 0, 66, 64
2, 121080, Note_on_c, 0, 66, 0
2, 121080, Note_on_c, 0, 59, 0
2, 121080, Note_on_c, 0, 68, 64
2, 121080, Note_on_c, 0, 54, 64
2, 121140, Note_on_c, 0, 68, 0
2, 121140, Note_on_c, 0, 70, 64
2, 121200, Note_on_c, 0, 70, 0
2, 121200, Note_on_c, 0, 54, 0
2, 121200, Note_on_c, 0, 71, 64
2, 121200, Note_on_c, 0, 50, 64
2, 121260, Note_on_c, 0, 71, 0
2, 121260, Note_on_c, 0, 73, 64
2, 121320, Note_on_c, 0, 73, 0
2, 121320, Note_on_c, 0, 50, 0
2, 121320, Note_on_c, 0, 74, 64
2, 121320, Note_on_c, 0, 47, 64
2, 121380, Note_on_c, 0, 74, 0
2, 121380, Note_on_c, 0, 73, 64
2, 121440, Note_on_c, 0, 73, 0
2, 121440, Note_on_c, 0, 47, 0
2, 121440, Note_on_c, 0, 71, 64
2, 121440, Note_on_c, 0, 49, 64
2, 121500, Note_on_c, 0, 49, 0
2, 121500, Note_on_c, 0, 71, 0
2, 121500, Note_on_c, 0, 69, 64
2, 121500, Note_on_c, 0, 50, 64
2, 121560, Note_on_c, 0, 50, 0
2, 121560, Note_on_c, 0, 69, 0
2, 121560, Note_on_c, 0, 67, 64
2, 121560, Note_on_c, 0, 52, 64
2, 121620, Note_on_c, 0, 52, 0
2, 121620, Note_on_c, 0, 67, 0
2, 121620, Note_on_c, 0, 66, 64
2, 121620, Note_on_c, 0, 54, 64
2, 121680, Note_on_c, 0, 54, 0
2, 121680, Note_on_c, 0, 66, 0
2, 121680, Note_on_c, 0, 71, 64
2, 121680, Note_on_c, 0, 55, 64
2, 121740, Note_on_c, 0, 55, 0
2, 121740, Note_on_c, 0, 71, 0
2, 121740, Note_on_c, 0, 69, 64
2, 121740, Note_on_c, 0, 57, 64
2, 121800, Note_on_c, 0, 57, 0
2, 121800, Note_on_c, 0, 69, 0
2, 121800, Note_on_c, 0, 67, 64
2, 121800, Note_on_c, 0, 59, 64
2, 121860, Note_on_c, 0, 59, 0
2, 121860, Note_on_c, 0, 67, 0
2, 121860, Note_on_c, 0, 66, 64
2, 121860, Note_on_c, 0, 57, 64
2, 121920, Note_on_c, 0, 57, 0
2, 121920, Note_on_c, 0, 66, 0
2, 121920, Note_on_c, 0, 64, 64
2, 121920, Note_on_c, 0, 55, 64
2, 121980, Note_on_c, 0, 55, 0
2, 121980, Note_on_c, 0, 64, 0
2, 121980, Note_on_c, 0, 62, 64
2, 121980, Note_on_c, 0, 54, 64
2, 122040, Note_on_c, 0, 54, 0
2, 122040, Note_on_c, 0, 62, 0
2, 122040, Note_on_c, 0, 67, 64
2, 122040, Note_on_c, 0, 52, 64
2, 122100, Note_on_c, 0, 52, 0
2, 122100, Note_on_c, 0, 67, 0
2, 122100, Note_on_c, 0, 66, 64
2, 122100, Note_on_c, 0, 54, 64
2, 122160, Note_on_c, 0, 54, 0
2, 122160, Note_on_c, 0, 66, 0
2, 122160, Note_on_c, 0, 64, 64
2, 122160, Note_on_c, 0, 55, 64
2, 122220, Note_on_c, 0, 55, 0
2, 122220, Note_on_c, 0, 64, 0
2, 122220, Note_on_c, 0, 62, 64
2, 122220, Note_on_c, 0, 54, 64
2, 122280, Note_on_c, 0, 54, 0
2, 122280, Note_on_c, 0, 62, 0
2, 122280, Note_on_c, 0, 61, 64
2, 122280, Note_on_c, 0, 55, 64
2, 122340, Note_on_c, 0, 55, 0
2, 122340, Note_on_c, 0, 61, 0
2, 122340, Note_on_c, 0, 52, 64
2, 122340, Note_on_c, 0, 64, 64
2, 122400, Note_on_c, 0, 64, 0
2, 122400, Note_on_c, 0, 52, 0
2, 122400, Note_on_c, 0, 58, 64
2, 122400, Note_on_c, 0, 54, 64
2, 122520, Note_on_c, 0, 58, 0
2, 122520, Note_on_c, 0, 79, 64
2, 122580, Note_on_c, 0, 79, 0
2, 122580, Note_on_c, 0, 78, 64
2, 122640, Note_on_c, 0, 78, 0
2, 122640, Note_on_c, 0, 54, 0
2, 122640, Note_on_c, 0, 76, 64
2, 122640, Note_on_c, 0, 42, 64
2, 122700, Note_on_c, 0, 76, 0
2, 122700, Note_on_c, 0, 74, 64
2, 122760, Note_on_c, 0, 74, 0
2, 122760, Note_on_c, 0, 42, 0
2, 122760, Note_on_c, 0, 73, 64
2, 122760, Note_on_c, 0, 70, 64
2, 122760, Note_on_c, 0, 42, 64
2, 122880, Note_on_c, 0, 73, 0
2, 122880, Note_on_c, 0, 76, 64
2, 123000, Note_on_c, 0, 76, 0
2, 123000, Note_on_c, 0, 42, 0
2, 123000, Note_on_c, 0, 73, 64
2, 123000, Note_on_c, 0, 42, 64
2, 123120, Note_on_c, 0, 42, 0
2, 123120, Note_on_c, 0, 73, 0
2, 123120, Note_on_c, 0, 70, 64
2, 123120, Note_on_c, 0, 64, 64
2, 123120, Note_on_c, 0, 42, 64
2, 123121, Note_on_c, 0, 70, 0
2, 123240, Note_on_c, 0, 70, 0
2, 123240, Note_on_c, 0, 73, 64
2, 123360, Note_on_c, 0, 73, 0
2, 123360, Note_on_c, 0, 70, 64
2, 123480, Note_on_c, 0, 70, 0
2, 123480, Note_on_c, 0, 64, 0
2, 123480, Note_on_c, 0, 42, 0
2, 123480, Note_on_c, 0, 61, 64
2, 123480, Note_on_c, 0, 64, 64
2, 123600, Note_on_c, 0, 64, 0
2, 123600, Note_on_c, 0, 70, 64
2, 123660, Note_on_c, 0, 49, 64
2, 123720, Note_on_c, 0, 49, 0
2, 123720, Note_on_c, 0, 70, 0
2, 123720, Note_on_c, 0, 64, 64
2, 123720, Note_on_c, 0, 50, 64
2, 123780, Note_on_c, 0, 50, 0
2, 123780, Note_on_c, 0, 52, 64
2, 123840, Note_on_c, 0, 52, 0
2, 123840, Note_on_c, 0, 64, 0
2, 123840, Note_on_c, 0, 62, 64
2, 123840, Note_on_c, 0, 54, 64
2, 123960, Note_on_c, 0, 62, 0
2, 123960, Note_on_c, 0, 61, 0
2, 123960, Note_on_c, 0, 59, 64
2, 124020, Note_on_c, 0, 59, 0
2, 124020, Note_on_c, 0, 61, 64
2, 124080, Note_on_c, 0, 61, 0
2, 124080, Note_on_c, 0, 54, 0
2, 124080, Note_on_c, 0, 62, 64
2, 124080, Note_on_c, 0, 42, 64
2, 124140, Note_on_c, 0, 62, 0
2, 124140, Note_on_c, 0, 64, 64
2, 124200, Note_on_c, 0, 64, 0
2, 124200, Note_on_c, 0, 42, 0
2, 124200, Note_on_c, 0, 71, 64
2, 124200, Note_on_c, 0, 66, 64
2, 124200, Note_on_c, 0, 42, 64
2, 124320, Note_on_c, 0, 66, 0
2, 124320, Note_on_c, 0, 62, 64
2, 124440, Note_on_c, 0, 62, 0
2, 124440, Note_on_c, 0, 42, 0
2, 124440, Note_on_c, 0, 66, 64
2, 124440, Note_on_c, 0, 42, 64
2, 124560, Note_on_c, 0, 42, 0
2, 124560, Note_on_c, 0, 66, 0
2, 124560, Note_on_c, 0, 71, 0
2, 124560, Note_on_c, 0, 74, 64
2, 124560, Note_on_c, 0, 71, 64
2, 124560, Note_on_c, 0, 42, 64
2, 124680, Note_on_c, 0, 71, 0
2, 124680, Note_on_c, 0, 66, 64
2, 124800, Note_on_c, 0, 66, 0
2, 124800, Note_on_c, 0, 71, 64
2, 124920, Note_on_c, 0, 71, 0
2, 124920, Note_on_c, 0, 42, 0
2, 124920, Note_on_c, 0, 74, 0
2, 124920, Note_on_c, 0, 77, 64
2, 124920, Note_on_c, 0, 74, 64
2, 125040, Note_on_c, 0, 74, 0
2, 125040, Note_on_c, 0, 71, 64
2, 125160, Note_on_c, 0, 71, 0
2, 125160, Note_on_c, 0, 74, 64
2, 125280, Note_on_c, 0, 74, 0
2, 125280, Note_on_c, 0, 77, 0
2, 125280, Note_on_c, 0, 73, 64
2, 125280, Note_on_c, 0, 78, 64
2, 125400, Note_on_c, 0, 73, 0
2, 125400, Note_on_c, 0, 70, 64
2, 125460, Note_on_c, 0, 50, 64
2, 125520, Note_on_c, 0, 50, 0
2, 125520, Note_on_c, 0, 70, 0
2, 125520, Note_on_c, 0, 78, 0
2, 125520, Note_on_c, 0, 73, 64
2, 125520, Note_on_c, 0, 76, 64
2, 125520, Note_on_c, 0, 52, 64
2, 125580, Note_on_c, 0, 52, 0
2, 125580, Note_on_c, 0, 54, 64
2, 125640, Note_on_c, 0, 54, 0
2, 125640, Note_on_c, 0, 76, 0
2, 125640, Note_on_c, 0, 73, 0
2, 125640, Note_on_c, 0, 71, 64
2, 125640, Note_on_c, 0, 74, 64
2, 125640, Note_on_c, 0, 55, 64
2, 125760, Note_on_c, 0, 55, 0
2, 125760, Note_on_c, 0, 54, 64
2, 125880, Note_on_c, 0, 54, 0
2, 125880, Note_on_c, 0, 74, 0
2, 125880, Note_on_c, 0, 79, 64
2, 125880, Note_on_c, 0, 52, 64
2, 126000, Note_on_c, 0, 52, 0
2, 126000, Note_on_c, 0, 79, 0
2, 126000, Note_on_c, 0, 71, 0
2, 126000, Note_on_c, 0, 71, 64
2, 126000, Note_on_c, 0, 74, 64
2, 126000, Note_on_c, 0, 54, 64
2, 126360, Note_on_c, 0, 54, 0
2, 126360, Note_on_c, 0, 74, 0
2, 126360, Note_on_c, 0, 71, 0
2, 126360, Note_on_c, 0, 74, 64
2, 126360, Note_on_c, 0, 70, 64
2, 126360, Note_on_c, 0, 42, 64
2, 126390, Note_on_c, 0, 74, 0
2, 126392, Note_on_c, 0, 73, 64
2, 126422, Note_on_c, 0, 73, 0
2, 126424, Note_on_c, 0, 74, 64
2, 126450, Note_on_c, 0, 73, 64
2, 126454, Note_on_c, 0, 74, 0
2, 126480, Note_on_c, 0, 73, 0
2, 126480, Note_on_c, 0, 71, 64
2, 126600, Note_on_c, 0, 71, 0
2, 126600, Note_on_c, 0, 73, 64
2, 126720, Note_on_c, 0, 73, 0
2, 126720, Note_on_c, 0, 42, 0
2, 126720, Note_on_c, 0, 70, 0
2, 126720, Note_on_c, 0, 71, 64
2, 126720, Note_on_c, 0, 47, 64
2, 126840, Note_on_c, 0, 71, 0
2, 126840, Note_on_c, 0, 74, 64
2, 126900, Note_on_c, 0, 74, 0
2, 126900, Note_on_c, 0, 73, 64
2, 126960, Note_on_c, 0, 73, 0
2, 126960, Note_on_c, 0, 47, 0
2, 126960, Note_on_c, 0, 71, 64
2, 126960, Note_on_c, 0, 54, 64
2, 127020, Note_on_c, 0, 71, 0
2, 127020, Note_on_c, 0, 69, 64
2, 127080, Note_on_c, 0, 69, 0
2, 127080, Note_on_c, 0, 54, 0
2, 127080, Note_on_c, 0, 59, 64
2, 127080, Note_on_c, 0, 67, 64
2, 127110, Note_on_c, 0, 59, 0
2, 127112, Note_on_c, 0, 57, 64
2, 127140, Note_on_c, 0, 59, 64
2, 127142, Note_on_c, 0, 57, 0
2, 127200, Note_on_c, 0, 67, 0
2, 127200, Note_on_c, 0, 71, 64
2, 127260, Note_on_c, 0, 71, 0
2, 127260, Note_on_c, 0, 69, 64
2, 127320, Note_on_c, 0, 69, 0
2, 127320, Note_on_c, 0, 67, 64
2, 127380, Note_on_c, 0, 67, 0
2, 127380, Note_on_c, 0, 66, 64
2, 127440, Note_on_c, 0, 66, 0
2, 127440, Note_on_c, 0, 64, 64
2, 127560, Note_on_c, 0, 64, 0
2, 127560, Note_on_c, 0, 59, 0
2, 127560, Note_on_c, 0, 67, 64
2, 127560, Note_on_c, 0, 60, 64
2, 127620, Note_on_c, 0, 60, 0
2, 127620, Note_on_c, 0, 59, 64
2, 127680, Note_on_c, 0, 59, 0
2, 127680, Note_on_c, 0, 67, 0
2, 127680, Note_on_c, 0, 72, 64
2, 127680, Note_on_c, 0, 57, 64
2, 127740, Note_on_c, 0, 57, 0
2, 127740, Note_on_c, 0, 55, 64
2, 127800, Note_on_c, 0, 55, 0
2, 127800, Note_on_c, 0, 72, 0
2, 127800, Note_on_c, 0, 72, 64
2, 127800, Note_on_c, 0, 54, 64
2, 127920, Note_on_c, 0, 54, 0
2, 127920, Note_on_c, 0, 69, 64
2, 127920, Note_on_c, 0, 55, 64
2, 127980, Note_on_c, 0, 55, 0
2, 127980, Note_on_c, 0, 54, 64
2, 128040, Note_on_c, 0, 54, 0
2, 128040, Note_on_c, 0, 69, 0
2, 128040, Note_on_c, 0, 66, 64
2, 128040, Note_on_c, 0, 52, 64
2, 128100, Note_on_c, 0, 52, 0
2, 128100, Note_on_c, 0, 50, 64
2, 128160, Note_on_c, 0, 50, 0
2, 128160, Note_on_c, 0, 66, 0
2, 128160, Note_on_c, 0, 62, 64
2, 128160, Note_on_c, 0, 55, 64
2, 128220, Note_on_c, 0, 55, 0
2, 128220, Note_on_c, 0, 57, 64
2, 128280, Note_on_c, 0, 57, 0
2, 128280, Note_on_c, 0, 62, 0
2, 128280, Note_on_c, 0, 67, 64
2, 128280, Note_on_c, 0, 59, 64
2, 128340, Note_on_c, 0, 59, 0
2, 128340, Note_on_c, 0, 55, 64
2, 128400, Note_on_c, 0, 55, 0
2, 128400, Note_on_c, 0, 72, 0
2, 128400, Note_on_c, 0, 71, 64
2, 128400, Note_on_c, 0, 54, 64
2, 128460, Note_on_c, 0, 54, 0
2, 128460, Note_on_c, 0, 55, 64
2, 128520, Note_on_c, 0, 55, 0
2, 128520, Note_on_c, 0, 71, 0
2, 128520, Note_on_c, 0, 71, 64
2, 128520, Note_on_c, 0, 49, 64
2, 128580, Note_on_c, 0, 67, 0
2, 128580, Note_on_c, 0, 69, 64
2, 128640, Note_on_c, 0, 69, 0
2, 128640, Note_on_c, 0, 49, 0
2, 128640, Note_on_c, 0, 67, 64
2, 128640, Note_on_c, 0, 52, 64
2, 128700, Note_on_c, 0, 67, 0
2, 128700, Note_on_c, 0, 66, 64
2, 128760, Note_on_c, 0, 66, 0
2, 128760, Note_on_c, 0, 52, 0
2, 128760, Note_on_c, 0, 64, 64
2, 128760, Note_on_c, 0, 49, 64
2, 128820, Note_on_c, 0, 64, 0
2, 128820, Note_on_c, 0, 62, 64
2, 128880, Note_on_c, 0, 62, 0
2, 128880, Note_on_c, 0, 49, 0
2, 128880, Note_on_c, 0, 61, 64
2, 128880, Note_on_c, 0, 54, 64
2, 128940, Note_on_c, 0, 54, 0
2, 128940, Note_on_c, 0, 55, 64
2, 129000, Note_on_c, 0, 55, 0
2, 129000, Note_on_c, 0, 61, 0
2, 129000, Note_on_c, 0, 66, 64
2, 129000, Note_on_c, 0, 57, 64
2, 129060, Note_on_c, 0, 57, 0
2, 129060, Note_on_c, 0, 54, 64
2, 129120, Note_on_c, 0, 54, 0
2, 129120, Note_on_c, 0, 71, 0
2, 129120, Note_on_c, 0, 69, 64
2, 129120, Note_on_c, 0, 52, 64
2, 129180, Note_on_c, 0, 52, 0
2, 129180, Note_on_c, 0, 54, 64
2, 129240, Note_on_c, 0, 54, 0
2, 129240, Note_on_c, 0, 69, 0
2, 129240, Note_on_c, 0, 69, 64
2, 129240, Note_on_c, 0, 47, 64
2, 129300, Note_on_c, 0, 66, 0
2, 129300, Note_on_c, 0, 67, 64
2, 129360, Note_on_c, 0, 67, 0
2, 129360, Note_on_c, 0, 47, 0
2, 129360, Note_on_c, 0, 66, 64
2, 129360, Note_on_c, 0, 50, 64
2, 129420, Note_on_c, 0, 66, 0
2, 129420, Note_on_c, 0, 64, 64
2, 129480, Note_on_c, 0, 64, 0
2, 129480, Note_on_c, 0, 50, 0
2, 129480, Note_on_c, 0, 62, 64
2, 129480, Note_on_c, 0, 47, 64
2, 129540, Note_on_c, 0, 62, 0
2, 129540, Note_on_c, 0, 61, 64
2, 129600, Note_on_c, 0, 61, 0
2, 129600, Note_on_c, 0, 47, 0
2, 129600, Note_on_c, 0, 59, 64
2, 129600, Note_on_c, 0, 52, 64
2, 129660, Note_on_c, 0, 52, 0
2, 129660, Note_on_c, 0, 54, 64
2, 129720, Note_on_c, 0, 54, 0
2, 129720, Note_on_c, 0, 59, 0
2, 129720, Note_on_c, 0, 64, 64
2, 129720, Note_on_c, 0, 55, 64
2, 129780, Note_on_c, 0, 55, 0
2, 129780, Note_on_c, 0, 52, 64
2, 129840, Note_on_c, 0, 52, 0
2, 129840, Note_on_c, 0, 69, 0
2, 129840, Note_on_c, 0, 67, 64
2, 129840, Note_on_c, 0, 50, 64
2, 129900, Note_on_c, 0, 50, 0
2, 129900, Note_on_c, 0, 52, 64
2, 129960, Note_on_c, 0, 52, 0
2, 129960, Note_on_c, 0, 67, 0
2, 129960, Note_on_c, 0, 67, 64
2, 129960, Note_on_c, 0, 45, 64
2, 130020, Note_on_c, 0, 64, 0
2, 130020, Note_on_c, 0, 66, 64
2, 130080, Note_on_c, 0, 66, 0
2, 130080, Note_on_c, 0, 45, 0
2, 130080, Note_on_c, 0, 64, 64
2, 130080, Note_on_c, 0, 49, 64
2, 130140, Note_on_c, 0, 64, 0
2, 130140, Note_on_c, 0, 62, 64
2, 130200, Note_on_c, 0, 62, 0
2, 130200, Note_on_c, 0, 49, 0
2, 130200, Note_on_c, 0, 61, 64
2, 130200, Note_on_c, 0, 45, 64
2, 130260, Note_on_c, 0, 61, 0
2, 130260, Note_on_c, 0, 59, 64
2, 130320, Note_on_c, 0, 59, 0
2, 130320, Note_on_c, 0, 45, 0
2, 130320, Note_on_c, 0, 57, 64
2, 130320, Note_on_c, 0, 50, 64
2, 130380, Note_on_c, 0, 50, 0
2, 130380, Note_on_c, 0, 52, 64
2, 130440, Note_on_c, 0, 52, 0
2, 130440, Note_on_c, 0, 57, 0
2, 130440, Note_on_c, 0, 62, 64
2, 130440, Note_on_c, 0, 54, 64
2, 130500, Note_on_c, 0, 54, 0
2, 130500, Note_on_c, 0, 50, 64
2, 130560, Note_on_c, 0, 50, 0
2, 130560, Note_on_c, 0, 67, 0
2, 130560, Note_on_c, 0, 66, 64
2, 130560, Note_on_c, 0, 49, 64
2, 130620, Note_on_c, 0, 49, 0
2, 130620, Note_on_c, 0, 50, 64
2, 130680, Note_on_c, 0, 50, 0
2, 130680, Note_on_c, 0, 47, 64
2, 130740, Note_on_c, 0, 47, 0
2, 130740, Note_on_c, 0, 48, 64
2, 130800, Note_on_c, 0, 48, 0
2, 130800, Note_on_c, 0, 66, 0
2, 130800, Note_on_c, 0, 66, 64
2, 130800, Note_on_c, 0, 50, 64
2, 130860, Note_on_c, 0, 50, 0
2, 130860, Note_on_c, 0, 47, 64
2, 130920, Note_on_c, 0, 47, 0
2, 130920, Note_on_c, 0, 66, 0
2, 130920, Note_on_c, 0, 72, 64
2, 130920, Note_on_c, 0, 45, 64
2, 130980, Note_on_c, 0, 45, 0
2, 130980, Note_on_c, 0, 47, 64
2, 131040, Note_on_c, 0, 47, 0
2, 131040, Note_on_c, 0, 72, 0
2, 131040, Note_on_c, 0, 71, 64
2, 131040, Note_on_c, 0, 43, 64
2, 131100, Note_on_c, 0, 43, 0
2, 131100, Note_on_c, 0, 45, 64
2, 131160, Note_on_c, 0, 45, 0
2, 131160, Note_on_c, 0, 62, 0
2, 131160, Note_on_c, 0, 67, 64
2, 131160, Note_on_c, 0, 47, 64
2, 131220, Note_on_c, 0, 47, 0
2, 131220, Note_on_c, 0, 67, 0
2, 131220, Note_on_c, 0, 66, 64
2, 131220, Note_on_c, 0, 45, 64
2, 131280, Note_on_c, 0, 45, 0
2, 131280, Note_on_c, 0, 66, 0
2, 131280, Note_on_c, 0, 64, 64
2, 131280, Note_on_c, 0, 43, 64
2, 131340, Note_on_c, 0, 43, 0
2, 131340, Note_on_c, 0, 64, 0
2, 131340, Note_on_c, 0, 62, 64
2, 131340, Note_on_c, 0, 42, 64
2, 131400, Note_on_c, 0, 42, 0
2, 131400, Note_on_c, 0, 62, 0
2, 131400, Note_on_c, 0, 67, 64
2, 131400, Note_on_c, 0, 40, 64
2, 131460, Note_on_c, 0, 40, 0
2, 131460, Note_on_c, 0, 42, 64
2, 131520, Note_on_c, 0, 42, 0
2, 131520, Note_on_c, 0, 67, 0
2, 131520, Note_on_c, 0, 71, 0
2, 131520, Note_on_c, 0, 64, 64
2, 131520, Note_on_c, 0, 73, 64
2, 131520, Note_on_c, 0, 43, 64
2, 131580, Note_on_c, 0, 43, 0
2, 131580, Note_on_c, 0, 42, 64
2, 131640, Note_on_c, 0, 42, 0
2, 131640, Note_on_c, 0, 73, 0
2, 131640, Note_on_c, 0, 64, 0
2, 131640, Note_on_c, 0, 66, 64
2, 131640, Note_on_c, 0, 74, 64
2, 131640, Note_on_c, 0, 40, 64
2, 131700, Note_on_c, 0, 40, 0
2, 131700, Note_on_c, 0, 38, 64
2, 131760, Note_on_c, 0, 38, 0
2, 131760, Note_on_c, 0, 45, 64
2, 131880, Note_on_c, 0, 74, 0
2, 131880, Note_on_c, 0, 66, 0
2, 131880, Note_on_c, 0, 62, 64
2, 131880, Note_on_c, 0, 71, 64
2, 132000, Note_on_c, 0, 71, 0
2, 132000, Note_on_c, 0, 62, 0
2, 132000, Note_on_c, 0, 64, 64
2, 132000, Note_on_c, 0, 73, 64
2, 132120, Note_on_c, 0, 73, 0
2, 132120, Note_on_c, 0, 64, 0
2, 132120, Note_on_c, 0, 67, 64
2, 132120, Note_on_c, 0, 76, 64
2, 132180, Note_on_c, 0, 45, 0
2, 132180, Note_on_c, 0, 44, 64
2, 132240, Note_on_c, 0, 44, 0
2, 132240, Note_on_c, 0, 46, 64
2, 132300, Note_on_c, 0, 46, 0
2, 132300, Note_on_c, 0, 47, 64
2, 132360, Note_on_c, 0, 47, 0
2, 132360, Note_on_c, 0, 49, 64
2, 132420, Note_on_c, 0, 49, 0
2, 132420, Note_on_c, 0, 46, 64
2, 132480, Note_on_c, 0, 46, 0
2, 132480, Note_on_c, 0, 47, 64
2, 132600, Note_on_c, 0, 76, 0
2, 132600, Note_on_c, 0, 67, 0
2, 132600, Note_on_c, 0, 64, 64
2, 132600, Note_on_c, 0, 73, 64
2, 132720, Note_on_c, 0, 73, 0
2, 132720, Note_on_c, 0, 64, 0
2, 132720, Note_on_c, 0, 66, 64
2, 132720, Note_on_c, 0, 74, 64
2, 132840, Note_on_c, 0, 74, 0
2, 132840, Note_on_c, 0, 66, 0
2, 132840, Note_on_c, 0, 71, 64
2, 132840, Note_on_c, 0, 79, 64
2, 132900, Note_on_c, 0, 47, 0
2, 132900, Note_on_c, 0, 45, 64
2, 132960, Note_on_c, 0, 45, 0
2, 132960, Note_on_c, 0, 47, 64
2, 133020, Note_on_c, 0, 47, 0
2, 133020, Note_on_c, 0, 50, 64
2, 133080, Note_on_c, 0, 50, 0
2, 133080, Note_on_c, 0, 49, 64
2, 133140, Note_on_c, 0, 49, 0
2, 133140, Note_on_c, 0, 52, 64
2, 133200, Note_on_c, 0, 52, 0
2, 133200, Note_on_c, 0, 50, 64
2, 133320, Note_on_c, 0, 79, 0
2, 133320, Note_on_c, 0, 71, 0
2, 133320, Note_on_c, 0, 69, 64
2, 133320, Note_on_c, 0, 78, 64
2, 133440, Note_on_c, 0, 78, 0
2, 133440, Note_on_c, 0, 69, 0
2, 133440, Note_on_c, 0, 67, 64
2, 133440, Note_on_c, 0, 76, 64
2, 133560, Note_on_c, 0, 76, 0
2, 133560, Note_on_c, 0, 67, 0
2, 133560, Note_on_c, 0, 69, 64
2, 133560, Note_on_c, 0, 78, 64
2, 133620, Note_on_c, 0, 50, 0
2, 133620, Note_on_c, 0, 52, 64
2, 133680, Note_on_c, 0, 52, 0
2, 133680, Note_on_c, 0, 50, 64
2, 133740, Note_on_c, 0, 50, 0
2, 133740, Note_on_c, 0, 48, 64
2, 133800, Note_on_c, 0, 48, 0
2, 133800, Note_on_c, 0, 47, 64
2, 133860, Note_on_c, 0, 47, 0
2, 133860, Note_on_c, 0, 45, 64
2, 133920, Note_on_c, 0, 45, 0
2, 133920, Note_on_c, 0, 43, 64
2, 133980, Note_on_c, 0, 43, 0
2, 133980, Note_on_c, 0, 50, 64
2, 134040, Note_on_c, 0, 50, 0
2, 134040, Note_on_c, 0, 78, 0
2, 134040, Note_on_c, 0, 69, 0
2, 134040, Note_on_c, 0, 67, 64
2, 134040, Note_on_c, 0, 76, 64
2, 134040, Note_on_c, 0, 52, 64
2, 134100, Note_on_c, 0, 52, 0
2, 134100, Note_on_c, 0, 54, 64
2, 134160, Note_on_c, 0, 54, 0
2, 134160, Note_on_c, 0, 76, 0
2, 134160, Note_on_c, 0, 67, 0
2, 134160, Note_on_c, 0, 66, 64
2, 134160, Note_on_c, 0, 74, 64
2, 134160, Note_on_c, 0, 55, 64
2, 134220, Note_on_c, 0, 55, 0
2, 134220, Note_on_c, 0, 57, 64
2, 134280, Note_on_c, 0, 57, 0
2, 134280, Note_on_c, 0, 74, 0
2, 134280, Note_on_c, 0, 66, 0
2, 134280, Note_on_c, 0, 67, 64
2, 134280, Note_on_c, 0, 76, 64
2, 134280, Note_on_c, 0, 58, 64
2, 134400, Note_on_c, 0, 76, 0
2, 134400, Note_on_c, 0, 67, 0
2, 134400, Note_on_c, 0, 64, 64
2, 134400, Note_on_c, 0, 73, 64
2, 134520, Note_on_c, 0, 73, 0
2, 134520, Note_on_c, 0, 64, 0
2, 134520, Note_on_c, 0, 74, 64
2, 134520, Note_on_c, 0, 66, 64
2, 134630, Note_on_c, 0, 74, 0
2, 134640, Note_on_c, 0, 66, 0
2, 134640, Note_on_c, 0, 74, 72
2, 134640, Note_on_c, 0, 64, 64
2, 134670, Note_on_c, 0, 74, 0
2, 134670, Note_on_c, 0, 73, 65
2, 134700, Note_on_c, 0, 73, 0
2, 134700, Note_on_c, 0, 58, 0
2, 134700, Note_on_c, 0, 74, 52
2, 134700, Note_on_c, 0, 57, 64
2, 134730, Note_on_c, 0, 74, 0
2, 134730, Note_on_c, 0, 73, 55
2, 134760, Note_on_c, 0, 73, 0
2, 134760, Note_on_c, 0, 57, 0
2, 134760, Note_on_c, 0, 74, 58
2, 134760, Note_on_c, 0, 58, 64
2, 134790, Note_on_c, 0, 74, 0
2, 134790, Note_on_c, 0, 73, 60
2, 134820, Note_on_c, 0, 73, 0
2, 134820, Note_on_c, 0, 58, 0
2, 134820, Note_on_c, 0, 74, 63
2, 134820, Note_on_c, 0, 55, 64
2, 134850, Note_on_c, 0, 74, 0
2, 134850, Note_on_c, 0, 73, 64
2, 134880, Note_on_c, 0, 55, 0
2, 134880, Note_on_c, 0, 52, 64
2, 134940, Note_on_c, 0, 52, 0
2, 134940, Note_on_c, 0, 55, 64
2, 135000, Note_on_c, 0, 55, 0
2, 135000, Note_on_c, 0, 64, 0
2, 135000, Note_on_c, 0, 65, 64
2, 135000, Note_on_c, 0, 57, 64
2, 135060, Note_on_c, 0, 57, 0
2, 135060, Note_on_c, 0, 65, 0
2, 135060, Note_on_c, 0, 73, 0
2, 135060, Note_on_c, 0, 64, 64
2, 135060, Note_on_c, 0, 55, 64
2, 135120, Note_on_c, 0, 55, 0
2, 135120, Note_on_c, 0, 64, 0
2, 135120, Note_on_c, 0, 65, 64
2, 135120, Note_on_c, 0, 57, 64
2, 135180, Note_on_c, 0, 57, 0
2, 135180, Note_on_c, 0, 65, 0
2, 135180, Note_on_c, 0, 62, 64
2, 135180, Note_on_c, 0, 53, 64
2, 135240, Note_on_c, 0, 53, 0
2, 135240, Note_on_c, 0, 62, 0
2, 135240, Note_on_c, 0, 69, 64
2, 135240, Note_on_c, 0, 50, 64
2, 135300, Note_on_c, 0, 50, 0
2, 135300, Note_on_c, 0, 69, 0
2, 135300, Note_on_c, 0, 65, 64
2, 135300, Note_on_c, 0, 53, 64
2, 135360, Note_on_c, 0, 53, 0
2, 135360, Note_on_c, 0, 70, 64
2, 135360, Note_on_c, 0, 55, 64
2, 135420, Note_on_c, 0, 55, 0
2, 135420, Note_on_c, 0, 53, 64
2, 135480, Note_on_c, 0, 53, 0
2, 135480, Note_on_c, 0, 65, 0
2, 135480, Note_on_c, 0, 64, 64
2, 135480, Note_on_c, 0, 55, 64
2, 135540, Note_on_c, 0, 55, 0
2, 135540, Note_on_c, 0, 52, 64
2, 135600, Note_on_c, 0, 52, 0
2, 135600, Note_on_c, 0, 64, 0
2, 135600, Note_on_c, 0, 67, 64
2, 135600, Note_on_c, 0, 49, 64
2, 135660, Note_on_c, 0, 49, 0
2, 135660, Note_on_c, 0, 52, 64
2, 135720, Note_on_c, 0, 52, 0
2, 135720, Note_on_c, 0, 70, 0
2, 135720, Note_on_c, 0, 69, 64
2, 135720, Note_on_c, 0, 53, 64
2, 135780, Note_on_c, 0, 53, 0
2, 135780, Note_on_c, 0, 52, 64
2, 135840, Note_on_c, 0, 52, 0
2, 135840, Note_on_c, 0, 67, 0
2, 135840, Note_on_c, 0, 61, 64
2, 135840, Note_on_c, 0, 53, 64
2, 135900, Note_on_c, 0, 53, 0
2, 135900, Note_on_c, 0, 50, 64
2, 135960, Note_on_c, 0, 50, 0
2, 135960, Note_on_c, 0, 61, 0
2, 135960, Note_on_c, 0, 62, 64
2, 135960, Note_on_c, 0, 47, 64
2, 136020, Note_on_c, 0, 47, 0
2, 136020, Note_on_c, 0, 50, 64
2, 136080, Note_on_c, 0, 50, 0
2, 136080, Note_on_c, 0, 69, 0
2, 136080, Note_on_c, 0, 67, 64
2, 136080, Note_on_c, 0, 52, 64
2, 136140, Note_on_c, 0, 52, 0
2, 136140, Note_on_c, 0, 50, 64
2, 136200, Note_on_c, 0, 50, 0
2, 136200, Note_on_c, 0, 62, 0
2, 136200, Note_on_c, 0, 61, 64
2, 136200, Note_on_c, 0, 52, 64
2, 136260, Note_on_c, 0, 52, 0
2, 136260, Note_on_c, 0, 49, 64
2, 136320, Note_on_c, 0, 49, 0
2, 136320, Note_on_c, 0, 61, 0
2, 136320, Note_on_c, 0, 64, 64
2, 136320, Note_on_c, 0, 45, 64
2, 136380, Note_on_c, 0, 45, 0
2, 136380, Note_on_c, 0, 49, 64
2, 136440, Note_on_c, 0, 49, 0
2, 136440, Note_on_c, 0, 67, 0
2, 136440, Note_on_c, 0, 65, 64
2, 136440, Note_on_c, 0, 50, 64
2, 136500, Note_on_c, 0, 50, 0
2, 136500, Note_on_c, 0, 49, 64
2, 136560, Note_on_c, 0, 49, 0
2, 136560, Note_on_c, 0, 64, 0
2, 136560, Note_on_c, 0, 57, 64
2, 136560, Note_on_c, 0, 50, 64
2, 136620, Note_on_c, 0, 50, 0
2, 136620, Note_on_c, 0, 53, 64
2, 136680, Note_on_c, 0, 53, 0
2, 136680, Note_on_c, 0, 57, 0
2, 136680, Note_on_c, 0, 62, 64
2, 136680, Note_on_c, 0, 46, 64
2, 136740, Note_on_c, 0, 46, 0
2, 136740, Note_on_c, 0, 50, 64
2, 136800, Note_on_c, 0, 50, 0
2, 136800, Note_on_c, 0, 59, 64
2, 136800, Note_on_c, 0, 44, 64
2, 136860, Note_on_c, 0, 59, 0
2, 136860, Note_on_c, 0, 65, 0
2, 136860, Note_on_c, 0, 62, 0
2, 136860, Note_on_c, 0, 64, 64
2, 136920, Note_on_c, 0, 64, 0
2, 136920, Note_on_c, 0, 62, 64
2, 136980, Note_on_c, 0, 62, 0
2, 136980, Note_on_c, 0, 61, 64
2, 137040, Note_on_c, 0, 61, 0
2, 137040, Note_on_c, 0, 62, 64
2, 137100, Note_on_c, 0, 62, 0
2, 137100, Note_on_c, 0, 65, 64
2, 137160, Note_on_c, 0, 65, 0
2, 137160, Note_on_c, 0, 71, 64
2, 137220, Note_on_c, 0, 71, 0
2, 137220, Note_on_c, 0, 65, 64
2, 137280, Note_on_c, 0, 65, 0
2, 137280, Note_on_c, 0, 64, 64
2, 137340, Note_on_c, 0, 64, 0
2, 137340, Note_on_c, 0, 62, 64
2, 137400, Note_on_c, 0, 62, 0
2, 137400, Note_on_c, 0, 61, 64
2, 137460, Note_on_c, 0, 61, 0
2, 137460, Note_on_c, 0, 59, 64
2, 137520, Note_on_c, 0, 59, 0
2, 137520, Note_on_c, 0, 44, 0
2, 137520, Note_on_c, 0, 61, 64
2, 137520, Note_on_c, 0, 45, 64
2, 137580, Note_on_c, 0, 57, 64
2, 137640, Note_on_c, 0, 57, 0
2, 137640, Note_on_c, 0, 61, 0
2, 137640, Note_on_c, 0, 55, 64
2, 137700, Note_on_c, 0, 55, 0
2, 137700, Note_on_c, 0, 54, 64
2, 137760, Note_on_c, 0, 54, 0
2, 137760, Note_on_c, 0, 52, 64
2, 137820, Note_on_c, 0, 52, 0
2, 137820, Note_on_c, 0, 50, 64
2, 137880, Note_on_c, 0, 50, 0
2, 137880, Note_on_c, 0, 45, 0
2, 137880, Note_on_c, 0, 49, 64
2, 137940, Note_on_c, 0, 47, 64
2, 138000, Note_on_c, 0, 47, 0
2, 138000, Note_on_c, 0, 49, 0
2, 138000, Note_on_c, 0, 45, 64
2, 138060, Note_on_c, 0, 45, 0
2, 138060, Note_on_c, 0, 43, 64
2, 138120, Note_on_c, 0, 43, 0
2, 138120, Note_on_c, 0, 42, 64
2, 138180, Note_on_c, 0, 42, 0
2, 138180, Note_on_c, 0, 40, 64
2, 138240, Note_on_c, 0, 40, 0
2, 138240, Note_on_c, 0, 38, 64
2, 138360, Note_on_c, 0, 50, 64
2, 138420, Note_on_c, 0, 50, 0
2, 138420, Note_on_c, 0, 52, 64
2, 138480, Note_on_c, 0, 52, 0
2, 138480, Note_on_c, 0, 38, 0
2, 138480, Note_on_c, 0, 54, 64
2, 138540, Note_on_c, 0, 54, 0
2, 138540, Note_on_c, 0, 55, 64
2, 138600, Note_on_c, 0, 55, 0
2, 138600, Note_on_c, 0, 57, 64
2, 138720, Note_on_c, 0, 57, 0
2, 138720, Note_on_c, 0, 54, 64
2, 138840, Note_on_c, 0, 54, 0
2, 138840, Note_on_c, 0, 57, 64
2, 138960, Note_on_c, 0, 57, 0
2, 138960, Note_on_c, 0, 62, 64
2, 139080, Note_on_c, 0, 62, 0
2, 139080, Note_on_c, 0, 57, 64
2, 139200, Note_on_c, 0, 57, 0
2, 139200, Note_on_c, 0, 62, 64
2, 139320, Note_on_c, 0, 62, 0
2, 139320, Note_on_c, 0, 66, 64
2, 139440, Note_on_c, 0, 66, 0
2, 139440, Note_on_c, 0, 62, 64
2, 139560, Note_on_c, 0, 62, 0
2, 139560, Note_on_c, 0, 66, 64
2, 139680, Note_on_c, 0, 66, 0
2, 139680, Note_on_c, 0, 69, 64
2, 140040, Note_on_c, 0, 69, 0
2, 140040, Note_on_c, 0, 69, 64
2, 140040, Note_on_c, 0, 78, 64
2, 140040, Note_on_c, 0, 50, 64
2, 140400, Note_on_c, 0, 50, 0
2, 140400, Note_on_c, 0, 78, 0
2, 140400, Note_on_c, 0, 69, 0
2, 140400, Note_on_c, 0, 69, 64
2, 140400, Note_on_c, 0, 78, 64
2, 140400, Note_on_c, 0, 57, 64
2, 140580, Note_on_c, 0, 78, 0
2, 140580, Note_on_c, 0, 69, 0
2, 140580, Note_on_c, 0, 67, 64
2, 140580, Note_on_c, 0, 76, 64
2, 140760, Note_on_c, 0, 76, 0
2, 140760, Note_on_c, 0, 67, 0
2, 140760, Note_on_c, 0, 57, 0
2, 140760, Note_on_c, 0, 45, 64
2, 140760, Note_on_c, 0, 67, 64
2, 140760, Note_on_c, 0, 76, 64
2, 140940, Note_on_c, 0, 76, 0
2, 140940, Note_on_c, 0, 67, 0
2, 140940, Note_on_c, 0, 74, 64
2, 140940, Note_on_c, 0, 66, 64
2, 141120, Note_on_c, 0, 66, 0
2, 141120, Note_on_c, 0, 74, 0
2, 141120, Note_on_c, 0, 45, 0
2, 141120, Note_on_c, 0, 66, 64
2, 141120, Note_on_c, 0, 74, 64
2, 141120, Note_on_c, 0, 50, 64
2, 141240, Note_on_c, 0, 74, 0
2, 141240, Note_on_c, 0, 66, 0
2, 141240, Note_on_c, 0, 62, 64
2, 141300, Note_on_c, 0, 62, 0
2, 141300, Note_on_c, 0, 64, 64
2, 141360, Note_on_c, 0, 64, 0
2, 141360, Note_on_c, 0, 66, 64
2, 141420, Note_on_c, 0, 66, 0
2, 141420, Note_on_c, 0, 67, 64
2, 141480, Note_on_c, 0, 67, 0
2, 141480, Note_on_c, 0, 50, 0
2, 141480, Note_on_c, 0, 69, 64
2, 141600, Note_on_c, 0, 69, 0
2, 141600, Note_on_c, 0, 66, 64
2, 141600, Note_on_c, 0, 60, 64
2, 141660, Note_on_c, 0, 60, 0
2, 141660, Note_on_c, 0, 59, 64
2, 141720, Note_on_c, 0, 59, 0
2, 141720, Note_on_c, 0, 66, 0
2, 141720, Note_on_c, 0, 69, 64
2, 141720, Note_on_c, 0, 57, 64
2, 141780, Note_on_c, 0, 57, 0
2, 141780, Note_on_c, 0, 55, 64
2, 141840, Note_on_c, 0, 55, 0
2, 141840, Note_on_c, 0, 69, 0
2, 141840, Note_on_c, 0, 72, 64
2, 141840, Note_on_c, 0, 54, 64
2, 141960, Note_on_c, 0, 54, 0
2, 141960, Note_on_c, 0, 72, 0
2, 141960, Note_on_c, 0, 69, 64
2, 141960, Note_on_c, 0, 57, 64
2, 142080, Note_on_c, 0, 57, 0
2, 142080, Note_on_c, 0, 69, 0
2, 142080, Note_on_c, 0, 72, 64
2, 142080, Note_on_c, 0, 54, 64
2, 142200, Note_on_c, 0, 54, 0
2, 142200, Note_on_c, 0, 72, 0
2, 142200, Note_on_c, 0, 78, 64
2, 142200, Note_on_c, 0, 50, 64
2, 142320, Note_on_c, 0, 50, 0
2, 142320, Note_on_c, 0, 78, 0
2, 142320, Note_on_c, 0, 72, 64
2, 142320, Note_on_c, 0, 54, 64
2, 142440, Note_on_c, 0, 54, 0
2, 142440, Note_on_c, 0, 72, 0
2, 142440, Note_on_c, 0, 50, 64
2, 142440, Note_on_c, 0, 78, 64
2, 142560, Note_on_c, 0, 78, 0
2, 142560, Note_on_c, 0, 50, 0
2, 142560, Note_on_c, 0, 81, 64
2, 142560, Note_on_c, 0, 45, 64
2, 142680, Note_on_c, 0, 45, 0
2, 142680, Note_on_c, 0, 50, 64
2, 142800, Note_on_c, 0, 50, 0
2, 142800, Note_on_c, 0, 45, 64
2, 142920, Note_on_c, 0, 45, 0
2, 142920, Note_on_c, 0, 81, 0
2, 142920, Note_on_c, 0, 69, 64
2, 142920, Note_on_c, 0, 72, 64
2, 142920, Note_on_c, 0, 42, 64
2, 143040, Note_on_c, 0, 42, 0
2, 143040, Note_on_c, 0, 45, 64
2, 143160, Note_on_c, 0, 45, 0
2, 143160, Note_on_c, 0, 42, 64
2, 143280, Note_on_c, 0, 42, 0
2, 143280, Note_on_c, 0, 72, 0
2, 143280, Note_on_c, 0, 69, 0
2, 143280, Note_on_c, 0, 69, 64
2, 143280, Note_on_c, 0, 72, 64
2, 143280, Note_on_c, 0, 38, 64
2, 143460, Note_on_c, 0, 72, 0
2, 143460, Note_on_c, 0, 69, 0
2, 143460, Note_on_c, 0, 67, 64
2, 143460, Note_on_c, 0, 71, 64
2, 143640, Note_on_c, 0, 71, 0
2, 143640, Note_on_c, 0, 67, 0
2, 143640, Note_on_c, 0, 38, 0
2, 143640, Note_on_c, 0, 50, 64
2, 143640, Note_on_c, 0, 67, 64
2, 143640, Note_on_c, 0, 71, 64
2, 143820, Note_on_c, 0, 71, 0
2, 143820, Note_on_c, 0, 67, 0
2, 143820, Note_on_c, 0, 69, 64
2, 143820, Note_on_c, 0, 66, 64
2, 144000, Note_on_c, 0, 66, 0
2, 144000, Note_on_c, 0, 69, 0
2, 144000, Note_on_c, 0, 50, 0
2, 144000, Note_on_c, 0, 67, 64
2, 144000, Note_on_c, 0, 71, 64
2, 144000, Note_on_c, 0, 43, 64
2, 144120, Note_on_c, 0, 71, 0
2, 144120, Note_on_c, 0, 67, 0
2, 144120, Note_on_c, 0, 83, 64
2, 144180, Note_on_c, 0, 83, 0
2, 144180, Note_on_c, 0, 81, 64
2, 144240, Note_on_c, 0, 81, 0
2, 144240, Note_on_c, 0, 43, 0
2, 144240, Note_on_c, 0, 79, 64
2, 144240, Note_on_c, 0, 50, 64
2, 144300, Note_on_c, 0, 79, 0
2, 144300, Note_on_c, 0, 78, 64
2, 144360, Note_on_c, 0, 78, 0
2, 144360, Note_on_c, 0, 50, 0
2, 144360, Note_on_c, 0, 76, 64
2, 144360, Note_on_c, 0, 55, 64
2, 144480, Note_on_c, 0, 76, 0
2, 144480, Note_on_c, 0, 79, 64
2, 144600, Note_on_c, 0, 79, 0
2, 144600, Note_on_c, 0, 55, 0
2, 144600, Note_on_c, 0, 76, 64
2, 144600, Note_on_c, 0, 55, 64
2, 144720, Note_on_c, 0, 55, 0
2, 144720, Note_on_c, 0, 76, 0
2, 144720, Note_on_c, 0, 73, 64
2, 144720, Note_on_c, 0, 55, 64
2, 144840, Note_on_c, 0, 73, 0
2, 144840, Note_on_c, 0, 57, 64
2, 144900, Note_on_c, 0, 57, 0
2, 144900, Note_on_c, 0, 59, 64
2, 144960, Note_on_c, 0, 59, 0
2, 144960, Note_on_c, 0, 61, 64
2, 145020, Note_on_c, 0, 61, 0
2, 145020, Note_on_c, 0, 62, 64
2, 145080, Note_on_c, 0, 62, 0
2, 145080, Note_on_c, 0, 55, 0
2, 145080, Note_on_c, 0, 64, 64
2, 145200, Note_on_c, 0, 64, 0
2, 145200, Note_on_c, 0, 61, 64
2, 145200, Note_on_c, 0, 45, 64
2, 145260, Note_on_c, 0, 45, 0
2, 145260, Note_on_c, 0, 43, 64
2, 145320, Note_on_c, 0, 43, 0
2, 145320, Note_on_c, 0, 61, 0
2, 145320, Note_on_c, 0, 64, 64
2, 145320, Note_on_c, 0, 42, 64
2, 145380, Note_on_c, 0, 42, 0
2, 145380, Note_on_c, 0, 40, 64
2, 145440, Note_on_c, 0, 40, 0
2, 145440, Note_on_c, 0, 64, 0
2, 145440, Note_on_c, 0, 69, 64
2, 145440, Note_on_c, 0, 42, 64
2, 145560, Note_on_c, 0, 81, 64
2, 145620, Note_on_c, 0, 81, 0
2, 145620, Note_on_c, 0, 79, 64
2, 145680, Note_on_c, 0, 79, 0
2, 145680, Note_on_c, 0, 42, 0
2, 145680, Note_on_c, 0, 69, 0
2, 145680, Note_on_c, 0, 78, 64
2, 145680, Note_on_c, 0, 54, 64
2, 145740, Note_on_c, 0, 78, 0
2, 145740, Note_on_c, 0, 76, 64
2, 145800, Note_on_c, 0, 76, 0
2, 145800, Note_on_c, 0, 54, 0
2, 145800, Note_on_c, 0, 74, 64
2, 145800, Note_on_c, 0, 54, 64
2, 145920, Note_on_c, 0, 74, 0
2, 145920, Note_on_c, 0, 78, 64
2, 146040, Note_on_c, 0, 78, 0
2, 146040, Note_on_c, 0, 54, 0
2, 146040, Note_on_c, 0, 74, 64
2, 146040, Note_on_c, 0, 54, 64
2, 146160, Note_on_c, 0, 54, 0
2, 146160, Note_on_c, 0, 74, 0
2, 146160, Note_on_c, 0, 71, 64
2, 146160, Note_on_c, 0, 54, 64
2, 146280, Note_on_c, 0, 71, 0
2, 146280, Note_on_c, 0, 55, 64
2, 146340, Note_on_c, 0, 55, 0
2, 146340, Note_on_c, 0, 57, 64
2, 146400, Note_on_c, 0, 57, 0
2, 146400, Note_on_c, 0, 59, 64
2, 146460, Note_on_c, 0, 59, 0
2, 146460, Note_on_c, 0, 61, 64
2, 146520, Note_on_c, 0, 61, 0
2, 146520, Note_on_c, 0, 54, 0
2, 146520, Note_on_c, 0, 62, 64
2, 146640, Note_on_c, 0, 62, 0
2, 146640, Note_on_c, 0, 59, 64
2, 146640, Note_on_c, 0, 43, 64
2, 146700, Note_on_c, 0, 43, 0
2, 146700, Note_on_c, 0, 42, 64
2, 146760, Note_on_c, 0, 42, 0
2, 146760, Note_on_c, 0, 59, 0
2, 146760, Note_on_c, 0, 62, 64
2, 146760, Note_on_c, 0, 40, 64
2, 146820, Note_on_c, 0, 40, 0
2, 146820, Note_on_c, 0, 38, 64
2, 146880, Note_on_c, 0, 38, 0
2, 146880, Note_on_c, 0, 62, 0
2, 146880, Note_on_c, 0, 67, 64
2, 146880, Note_on_c, 0, 40, 64
2, 147000, Note_on_c, 0, 40, 0
2, 147000, Note_on_c, 0, 59, 64
2, 147060, Note_on_c, 0, 59, 0
2, 147060, Note_on_c, 0, 57, 64
2, 147120, Note_on_c, 0, 57, 0
2, 147120, Note_on_c, 0, 67, 0
2, 147120, Note_on_c, 0, 71, 64
2, 147120, Note_on_c, 0, 62, 64
2, 147120, Note_on_c, 0, 55, 64
2, 147180, Note_on_c, 0, 55, 0
2, 147180, Note_on_c, 0, 54, 64
2, 147240, Note_on_c, 0, 54, 0
2, 147240, Note_on_c, 0, 62, 0
2, 147240, Note_on_c, 0, 71, 0
2, 147240, Note_on_c, 0, 71, 64
2, 147240, Note_on_c, 0, 67, 64
2, 147240, Note_on_c, 0, 52, 64
2, 147360, Note_on_c, 0, 52, 0
2, 147360, Note_on_c, 0, 55, 64
2, 147480, Note_on_c, 0, 55, 0
2, 147480, Note_on_c, 0, 67, 0
2, 147480, Note_on_c, 0, 71, 0
2, 147480, Note_on_c, 0, 71, 64
2, 147480, Note_on_c, 0, 67, 64
2, 147480, Note_on_c, 0, 52, 64
2, 147600, Note_on_c, 0, 52, 0
2, 147600, Note_on_c, 0, 67, 0
2, 147600, Note_on_c, 0, 71, 0
2, 147600, Note_on_c, 0, 69, 64
2, 147600, Note_on_c, 0, 67, 64
2, 147600, Note_on_c, 0, 49, 64
2, 147720, Note_on_c, 0, 49, 0
2, 147720, Note_on_c, 0, 52, 64
2, 147840, Note_on_c, 0, 52, 0
2, 147840, Note_on_c, 0, 67, 0
2, 147840, Note_on_c, 0, 69, 0
2, 147840, Note_on_c, 0, 49, 64
2, 147960, Note_on_c, 0, 49, 0
2, 147960, Note_on_c, 0, 45, 64
2, 148080, Note_on_c, 0, 45, 0
2, 148080, Note_on_c, 0, 69, 64
2, 148080, Note_on_c, 0, 49, 64
2, 148140, Note_on_c, 0, 69, 0
2, 148140, Note_on_c, 0, 67, 64
2, 148200, Note_on_c, 0, 67, 0
2, 148200, Note_on_c, 0, 49, 0
2, 148200, Note_on_c, 0, 45, 64
2, 148200, Note_on_c, 0, 66, 64
2, 148260, Note_on_c, 0, 66, 0
2, 148260, Note_on_c, 0, 64, 64
2, 148320, Note_on_c, 0, 64, 0
2, 148320, Note_on_c, 0, 45, 0
2, 148320, Note_on_c, 0, 66, 64
2, 148320, Note_on_c, 0, 50, 64
2, 148440, Note_on_c, 0, 50, 0
2, 148440, Note_on_c, 0, 66, 0
2, 148440, Note_on_c, 0, 62, 64
2, 148440, Note_on_c, 0, 54, 64
2, 148500, Note_on_c, 0, 62, 0
2, 148500, Note_on_c, 0, 64, 64
2, 148560, Note_on_c, 0, 64, 0
2, 148560, Note_on_c, 0, 54, 0
2, 148560, Note_on_c, 0, 66, 64
2, 148560, Note_on_c, 0, 50, 64
2, 148620, Note_on_c, 0, 66, 0
2, 148620, Note_on_c, 0, 67, 64
2, 148680, Note_on_c, 0, 67, 0
2, 148680, Note_on_c, 0, 50, 0
2, 148680, Note_on_c, 0, 74, 64
2, 148680, Note_on_c, 0, 69, 64
2, 148680, Note_on_c, 0, 47, 64
2, 148800, Note_on_c, 0, 47, 0
2, 148800, Note_on_c, 0, 69, 0
2, 148800, Note_on_c, 0, 67, 64
2, 148800, Note_on_c, 0, 50, 64
2, 148860, Note_on_c, 0, 67, 0
2, 148860, Note_on_c, 0, 66, 64
2, 148920, Note_on_c, 0, 66, 0
2, 148920, Note_on_c, 0, 50, 0
2, 148920, Note_on_c, 0, 64, 64
2, 148920, Note_on_c, 0, 47, 64
2, 148980, Note_on_c, 0, 64, 0
2, 148980, Note_on_c, 0, 62, 64
2, 149040, Note_on_c, 0, 62, 0
2, 149040, Note_on_c, 0, 47, 0
2, 149040, Note_on_c, 0, 74, 0
2, 149040, Note_on_c, 0, 71, 64
2, 149040, Note_on_c, 0, 67, 64
2, 149040, Note_on_c, 0, 52, 64
2, 149160, Note_on_c, 0, 52, 0
2, 149160, Note_on_c, 0, 67, 0
2, 149160, Note_on_c, 0, 64, 64
2, 149160, Note_on_c, 0, 55, 64
2, 149220, Note_on_c, 0, 64, 0
2, 149220, Note_on_c, 0, 66, 64
2, 149280, Note_on_c, 0, 66, 0
2, 149280, Note_on_c, 0, 55, 0
2, 149280, Note_on_c, 0, 67, 64
2, 149280, Note_on_c, 0, 52, 64
2, 149340, Note_on_c, 0, 67, 0
2, 149340, Note_on_c, 0, 69, 64
2, 149400, Note_on_c, 0, 69, 0
2, 149400, Note_on_c, 0, 52, 0
2, 149400, Note_on_c, 0, 71, 0
2, 149400, Note_on_c, 0, 76, 64
2, 149400, Note_on_c, 0, 71, 64
2, 149400, Note_on_c, 0, 49, 64
2, 149520, Note_on_c, 0, 49, 0
2, 149520, Note_on_c, 0, 71, 0
2, 149520, Note_on_c, 0, 69, 64
2, 149520, Note_on_c, 0, 52, 64
2, 149580, Note_on_c, 0, 69, 0
2, 149580, Note_on_c, 0, 67, 64
2, 149640, Note_on_c, 0, 67, 0
2, 149640, Note_on_c, 0, 52, 0
2, 149640, Note_on_c, 0, 49, 64
2, 149640, Note_on_c, 0, 66, 64
2, 149700, Note_on_c, 0, 66, 0
2, 149700, Note_on_c, 0, 64, 64
2, 149760, Note_on_c, 0, 64, 0
2, 149760, Note_on_c, 0, 49, 0
2, 149760, Note_on_c, 0, 69, 64
2, 149760, Note_on_c, 0, 54, 64
2, 149880, Note_on_c, 0, 54, 0
2, 149880, Note_on_c, 0, 50, 64
2, 149940, Note_on_c, 0, 50, 0
2, 149940, Note_on_c, 0, 52, 64
2, 150000, Note_on_c, 0, 52, 0
2, 150000, Note_on_c, 0, 69, 0
2, 150000, Note_on_c, 0, 67, 64
2, 150000, Note_on_c, 0, 54, 64
2, 150060, Note_on_c, 0, 54, 0
2, 150060, Note_on_c, 0, 55, 64
2, 150120, Note_on_c, 0, 55, 0
2, 150120, Note_on_c, 0, 67, 0
2, 150120, Note_on_c, 0, 76, 0
2, 150120, Note_on_c, 0, 74, 64
2, 150120, Note_on_c, 0, 66, 64
2, 150120, Note_on_c, 0, 57, 64
2, 150240, Note_on_c, 0, 57, 0
2, 150240, Note_on_c, 0, 55, 64
2, 150300, Note_on_c, 0, 55, 0
2, 150300, Note_on_c, 0, 54, 64
2, 150360, Note_on_c, 0, 54, 0
2, 150360, Note_on_c, 0, 74, 0
2, 150360, Note_on_c, 0, 72, 64
2, 150360, Note_on_c, 0, 52, 64
2, 150420, Note_on_c, 0, 52, 0
2, 150420, Note_on_c, 0, 50, 64
2, 150480, Note_on_c, 0, 50, 0
2, 150480, Note_on_c, 0, 72, 0
2, 150480, Note_on_c, 0, 71, 64
2, 150480, Note_on_c, 0, 55, 64
2, 150600, Note_on_c, 0, 55, 0
2, 150600, Note_on_c, 0, 52, 64
2, 150660, Note_on_c, 0, 52, 0
2, 150660, Note_on_c, 0, 54, 64
2, 150720, Note_on_c, 0, 54, 0
2, 150720, Note_on_c, 0, 71, 0
2, 150720, Note_on_c, 0, 69, 64
2, 150720, Note_on_c, 0, 55, 64
2, 150780, Note_on_c, 0, 55, 0
2, 150780, Note_on_c, 0, 57, 64
2, 150840, Note_on_c, 0, 57, 0
2, 150840, Note_on_c, 0, 69, 0
2, 150840, Note_on_c, 0, 66, 0
2, 150840, Note_on_c, 0, 67, 64
2, 150840, Note_on_c, 0, 64, 64
2, 150840, Note_on_c, 0, 59, 64
2, 150960, Note_on_c, 0, 59, 0
2, 150960, Note_on_c, 0, 57, 64
2, 151020, Note_on_c, 0, 57, 0
2, 151020, Note_on_c, 0, 55, 64
2, 151080, Note_on_c, 0, 55, 0
2, 151080, Note_on_c, 0, 64, 0
2, 151080, Note_on_c, 0, 54, 64
2, 151080, Note_on_c, 0, 62, 64
2, 151140, Note_on_c, 0, 54, 0
2, 151140, Note_on_c, 0, 52, 64
2, 151200, Note_on_c, 0, 52, 0
2, 151200, Note_on_c, 0, 62, 0
2, 151200, Note_on_c, 0, 61, 64
2, 151200, Note_on_c, 0, 57, 64
2, 151320, Note_on_c, 0, 61, 0
2, 151320, Note_on_c, 0, 57, 64
2, 151380, Note_on_c, 0, 57, 0
2, 151380, Note_on_c, 0, 59, 64
2, 151440, Note_on_c, 0, 59, 0
2, 151440, Note_on_c, 0, 57, 0
2, 151440, Note_on_c, 0, 61, 64
2, 151440, Note_on_c, 0, 45, 64
2, 151500, Note_on_c, 0, 61, 0
2, 151500, Note_on_c, 0, 62, 64
2, 151560, Note_on_c, 0, 62, 0
2, 151560, Note_on_c, 0, 45, 0
2, 151560, Note_on_c, 0, 67, 0
2, 151560, Note_on_c, 0, 67, 64
2, 151560, Note_on_c, 0, 64, 64
2, 151560, Note_on_c, 0, 45, 64
2, 151680, Note_on_c, 0, 64, 0
2, 151680, Note_on_c, 0, 61, 64
2, 151800, Note_on_c, 0, 61, 0
2, 151800, Note_on_c, 0, 45, 0
2, 151800, Note_on_c, 0, 64, 64
2, 151800, Note_on_c, 0, 45, 64
2, 151920, Note_on_c, 0, 45, 0
2, 151920, Note_on_c, 0, 64, 0
2, 151920, Note_on_c, 0, 67, 0
2, 151920, Note_on_c, 0, 73, 64
2, 151920, Note_on_c, 0, 67, 64
2, 151920, Note_on_c, 0, 45, 64
2, 152040, Note_on_c, 0, 67, 0
2, 152040, Note_on_c, 0, 64, 64
2, 152160, Note_on_c, 0, 64, 0
2, 152160, Note_on_c, 0, 67, 64
2, 152280, Note_on_c, 0, 67, 0
2, 152280, Note_on_c, 0, 73, 0
2, 152280, Note_on_c, 0, 76, 64
2, 152280, Note_on_c, 0, 73, 64
2, 152400, Note_on_c, 0, 73, 0
2, 152400, Note_on_c, 0, 67, 64
2, 152460, Note_on_c, 0, 45, 0
2, 152460, Note_on_c, 0, 52, 64
2, 152520, Note_on_c, 0, 52, 0
2, 152520, Note_on_c, 0, 67, 0
2, 152520, Note_on_c, 0, 73, 64
2, 152520, Note_on_c, 0, 54, 64
2, 152580, Note_on_c, 0, 54, 0
2, 152580, Note_on_c, 0, 55, 64
2, 152640, Note_on_c, 0, 55, 0
2, 152640, Note_on_c, 0, 73, 0
2, 152640, Note_on_c, 0, 66, 64
2, 152640, Note_on_c, 0, 57, 64
2, 152760, Note_on_c, 0, 76, 0
2, 152760, Note_on_c, 0, 74, 64
2, 152820, Note_on_c, 0, 74, 0
2, 152820, Note_on_c, 0, 73, 64
2, 152880, Note_on_c, 0, 73, 0
2, 152880, Note_on_c, 0, 57, 0
2, 152880, Note_on_c, 0, 71, 64
2, 152880, Note_on_c, 0, 45, 64
2, 152940, Note_on_c, 0, 71, 0
2, 152940, Note_on_c, 0, 69, 64
2, 153000, Note_on_c, 0, 69, 0
2, 153000, Note_on_c, 0, 45, 0
2, 153000, Note_on_c, 0, 66, 0
2, 153000, Note_on_c, 0, 68, 64
2, 153000, Note_on_c, 0, 62, 64
2, 153000, Note_on_c, 0, 45, 64
2, 153120, Note_on_c, 0, 68, 0
2, 153120, Note_on_c, 0, 71, 64
2, 153240, Note_on_c, 0, 71, 0
2, 153240, Note_on_c, 0, 45, 0
2, 153240, Note_on_c, 0, 68, 64
2, 153240, Note_on_c, 0, 45, 64
2, 153360, Note_on_c, 0, 45, 0
2, 153360, Note_on_c, 0, 68, 0
2, 153360, Note_on_c, 0, 62, 0
2, 153360, Note_on_c, 0, 62, 64
2, 153360, Note_on_c, 0, 59, 64
2, 153360, Note_on_c, 0, 45, 64
2, 153480, Note_on_c, 0, 62, 0
2, 153480, Note_on_c, 0, 68, 64
2, 153600, Note_on_c, 0, 68, 0
2, 153600, Note_on_c, 0, 62, 64
2, 153720, Note_on_c, 0, 62, 0
2, 153720, Note_on_c, 0, 45, 0
2, 153720, Note_on_c, 0, 59, 0
2, 153720, Note_on_c, 0, 56, 64
2, 153720, Note_on_c, 0, 59, 64
2, 153840, Note_on_c, 0, 59, 0
2, 153840, Note_on_c, 0, 62, 64
2, 153960, Note_on_c, 0, 62, 0
2, 153960, Note_on_c, 0, 59, 64
2, 154080, Note_on_c, 0, 59, 0
2, 154080, Note_on_c, 0, 56, 0
2, 154080, Note_on_c, 0, 61, 64
2, 154080, Note_on_c, 0, 57, 64
2, 154200, Note_on_c, 0, 61, 0
2, 154200, Note_on_c, 0, 59, 64
2, 154260, Note_on_c, 0, 42, 64
2, 154320, Note_on_c, 0, 42, 0
2, 154320, Note_on_c, 0, 59, 0
2, 154320, Note_on_c, 0, 57, 64
2, 154320, Note_on_c, 0, 55, 64
2, 154320, Note_on_c, 0, 43, 64
2, 154321, Note_on_c, 0, 57, 0
2, 154380, Note_on_c, 0, 43, 0
2, 154380, Note_on_c, 0, 45, 64
2, 154440, Note_on_c, 0, 45, 0
2, 154440, Note_on_c, 0, 55, 0
2, 154440, Note_on_c, 0, 57, 0
2, 154440, Note_on_c, 0, 62, 64
2, 154440, Note_on_c, 0, 54, 64
2, 154440, Note_on_c, 0, 47, 64
2, 154560, Note_on_c, 0, 47, 0
2, 154560, Note_on_c, 0, 45, 64
2, 154680, Note_on_c, 0, 45, 0
2, 154680, Note_on_c, 0, 54, 0
2, 154680, Note_on_c, 0, 62, 0
2, 154680, Note_on_c, 0, 67, 64
2, 154680, Note_on_c, 0, 64, 64
2, 154680, Note_on_c, 0, 43, 64
2, 154800, Note_on_c, 0, 43, 0
2, 154800, Note_on_c, 0, 64, 0
2, 154800, Note_on_c, 0, 61, 64
2, 154800, Note_on_c, 0, 45, 64
2, 154920, Note_on_c, 0, 67, 0
2, 154920, Note_on_c, 0, 66, 64
2, 154980, Note_on_c, 0, 66, 0
2, 154980, Note_on_c, 0, 64, 64
2, 155040, Note_on_c, 0, 64, 0
2, 155040, Note_on_c, 0, 45, 0
2, 155040, Note_on_c, 0, 61, 0
2, 155040, Note_on_c, 0, 62, 64
2, 155040, Note_on_c, 0, 66, 64
2, 155040, Note_on_c, 0, 57, 64
2, 155160, Note_on_c, 0, 57, 0
2, 155160, Note_on_c, 0, 66, 0
2, 155160, Note_on_c, 0, 64, 64
2, 155160, Note_on_c, 0, 57, 64
2, 155280, Note_on_c, 0, 62, 0
2, 155280, Note_on_c, 0, 61, 64
2, 155340, Note_on_c, 0, 61, 0
2, 155340, Note_on_c, 0, 59, 64
2, 155400, Note_on_c, 0, 59, 0
2, 155400, Note_on_c, 0, 57, 0
2, 155400, Note_on_c, 0, 64, 0
2, 155400, Note_on_c, 0, 45, 64
2, 155400, Note_on_c, 0, 69, 64
2, 155400, Note_on_c, 0, 61, 64
2, 155520, Note_on_c, 0, 61, 0
2, 155520, Note_on_c, 0, 69, 0
2, 155520, Note_on_c, 0, 45, 0
2, 155520, Note_on_c, 0, 66, 64
2, 155520, Note_on_c, 0, 62, 64
2, 155520, Note_on_c, 0, 50, 64
2, 155580, Note_on_c, 0, 62, 0
2, 155580, Note_on_c, 0, 66, 0
2, 155580, Note_on_c, 0, 69, 64
2, 155640, Note_on_c, 0, 69, 0
2, 155640, Note_on_c, 0, 71, 64
2, 155700, Note_on_c, 0, 71, 0
2, 155700, Note_on_c, 0, 73, 64
2, 155760, Note_on_c, 0, 73, 0
2, 155760, Note_on_c, 0, 50, 0
2, 155760, Note_on_c, 0, 74, 64
2, 155760, Note_on_c, 0, 57, 64
2, 155820, Note_on_c, 0, 74, 0
2, 155820, Note_on_c, 0, 76, 64
2, 155880, Note_on_c, 0, 76, 0
2, 155880, Note_on_c, 0, 57, 0
2, 155880, Note_on_c, 0, 78, 64
2, 155880, Note_on_c, 0, 62, 64
2, 155940, Note_on_c, 0, 78, 0
2, 155940, Note_on_c, 0, 76, 64
2, 156000, Note_on_c, 0, 76, 0
2, 156000, Note_on_c, 0, 74, 64
2, 156060, Note_on_c, 0, 74, 0
2, 156060, Note_on_c, 0, 73, 64
2, 156120, Note_on_c, 0, 73, 0
2, 156120, Note_on_c, 0, 71, 64
2, 156180, Note_on_c, 0, 71, 0
2, 156180, Note_on_c, 0, 69, 64
2, 156240, Note_on_c, 0, 69, 0
2, 156240, Note_on_c, 0, 68, 64
2, 156360, Note_on_c, 0, 68, 0
2, 156360, Note_on_c, 0, 62, 0
2, 156360, Note_on_c, 0, 71, 64
2, 156360, Note_on_c, 0, 64, 64
2, 156420, Note_on_c, 0, 64, 0
2, 156420, Note_on_c, 0, 62, 64
2, 156480, Note_on_c, 0, 62, 0
2, 156480, Note_on_c, 0, 71, 0
2, 156480, Note_on_c, 0, 76, 64
2, 156480, Note_on_c, 0, 61, 64
2, 156540, Note_on_c, 0, 61, 0
2, 156540, Note_on_c, 0, 59, 64
2, 156600, Note_on_c, 0, 59, 0
2, 156600, Note_on_c, 0, 76, 0
2, 156600, Note_on_c, 0, 76, 64
2, 156600, Note_on_c, 0, 58, 64
2, 156720, Note_on_c, 0, 58, 0
2, 156720, Note_on_c, 0, 73, 64
2, 156720, Note_on_c, 0, 59, 64
2, 156780, Note_on_c, 0, 59, 0
2, 156780, Note_on_c, 0, 58, 64
2, 156840, Note_on_c, 0, 58, 0
2, 156840, Note_on_c, 0, 73, 0
2, 156840, Note_on_c, 0, 70, 64
2, 156840, Note_on_c, 0, 56, 64
2, 156900, Note_on_c, 0, 56, 0
2, 156900, Note_on_c, 0, 54, 64
2, 156960, Note_on_c, 0, 54, 0
2, 156960, Note_on_c, 0, 70, 0
2, 156960, Note_on_c, 0, 66, 64
2, 156960, Note_on_c, 0, 59, 64
2, 157080, Note_on_c, 0, 66, 0
2, 157080, Note_on_c, 0, 68, 64
2, 157140, Note_on_c, 0, 68, 0
2, 157140, Note_on_c, 0, 70, 64
2, 157200, Note_on_c, 0, 70, 0
2, 157200, Note_on_c, 0, 59, 0
2, 157200, Note_on_c, 0, 71, 64
2, 157200, Note_on_c, 0, 47, 64
2, 157260, Note_on_c, 0, 71, 0
2, 157260, Note_on_c, 0, 73, 64
2, 157320, Note_on_c, 0, 73, 0
2, 157320, Note_on_c, 0, 47, 0
2, 157320, Note_on_c, 0, 76, 0
2, 157320, Note_on_c, 0, 74, 64
2, 157320, Note_on_c, 0, 59, 64
2, 157380, Note_on_c, 0, 74, 0
2, 157380, Note_on_c, 0, 73, 64
2, 157380, Note_on_c, 0, 73, 64
2, 157440, Note_on_c, 0, 73, 0
2, 157440, Note_on_c, 0, 73, 0
2, 157440, Note_on_c, 0, 71, 64
2, 157500, Note_on_c, 0, 71, 0
2, 157500, Note_on_c, 0, 69, 64
2, 157560, Note_on_c, 0, 69, 0
2, 157560, Note_on_c, 0, 67, 64
2, 157620, Note_on_c, 0, 67, 0
2, 157620, Note_on_c, 0, 66, 64
2, 157680, Note_on_c, 0, 66, 0
2, 157680, Note_on_c, 0, 64, 64
2, 157800, Note_on_c, 0, 64, 0
2, 157800, Note_on_c, 0, 59, 0
2, 157800, Note_on_c, 0, 67, 64
2, 157800, Note_on_c, 0, 60, 64
2, 157860, Note_on_c, 0, 60, 0
2, 157860, Note_on_c, 0, 59, 64
2, 157920, Note_on_c, 0, 59, 0
2, 157920, Note_on_c, 0, 67, 0
2, 157920, Note_on_c, 0, 72, 64
2, 157920, Note_on_c, 0, 57, 64
2, 157980, Note_on_c, 0, 57, 0
2, 157980, Note_on_c, 0, 55, 64
2, 158040, Note_on_c, 0, 55, 0
2, 158040, Note_on_c, 0, 72, 0
2, 158040, Note_on_c, 0, 72, 64
2, 158040, Note_on_c, 0, 54, 64
2, 158160, Note_on_c, 0, 54, 0
2, 158160, Note_on_c, 0, 69, 64
2, 158160, Note_on_c, 0, 55, 64
2, 158220, Note_on_c, 0, 55, 0
2, 158220, Note_on_c, 0, 54, 64
2, 158280, Note_on_c, 0, 54, 0
2, 158280, Note_on_c, 0, 69, 0
2, 158280, Note_on_c, 0, 66, 64
2, 158280, Note_on_c, 0, 52, 64
2, 158340, Note_on_c, 0, 52, 0
2, 158340, Note_on_c, 0, 50, 64
2, 158400, Note_on_c, 0, 50, 0
2, 158400, Note_on_c, 0, 66, 0
2, 158400, Note_on_c, 0, 62, 64
2, 158400, Note_on_c, 0, 55, 64
2, 158520, Note_on_c, 0, 62, 0
2, 158520, Note_on_c, 0, 64, 64
2, 158580, Note_on_c, 0, 64, 0
2, 158580, Note_on_c, 0, 66, 64
2, 158640, Note_on_c, 0, 66, 0
2, 158640, Note_on_c, 0, 55, 0
2, 158640, Note_on_c, 0, 67, 64
2, 158640, Note_on_c, 0, 43, 64
2, 158700, Note_on_c, 0, 67, 0
2, 158700, Note_on_c, 0, 69, 64
2, 158760, Note_on_c, 0, 69, 0
2, 158760, Note_on_c, 0, 43, 0
2, 158760, Note_on_c, 0, 72, 0
2, 158760, Note_on_c, 0, 71, 64
2, 158760, Note_on_c, 0, 55, 64
2, 158820, Note_on_c, 0, 71, 0
2, 158820, Note_on_c, 0, 69, 64
2, 158880, Note_on_c, 0, 69, 0
2, 158880, Note_on_c, 0, 67, 64
2, 158940, Note_on_c, 0, 67, 0
2, 158940, Note_on_c, 0, 66, 64
2, 159000, Note_on_c, 0, 66, 0
2, 159000, Note_on_c, 0, 64, 64
2, 159060, Note_on_c, 0, 64, 0
2, 159060, Note_on_c, 0, 62, 64
2, 159120, Note_on_c, 0, 62, 0
2, 159120, Note_on_c, 0, 61, 64
2, 159240, Note_on_c, 0, 61, 0
2, 159240, Note_on_c, 0, 55, 0
2, 159240, Note_on_c, 0, 64, 64
2, 159240, Note_on_c, 0, 57, 64
2, 159300, Note_on_c, 0, 57, 0
2, 159300, Note_on_c, 0, 55, 64
2, 159360, Note_on_c, 0, 55, 0
2, 159360, Note_on_c, 0, 64, 0
2, 159360, Note_on_c, 0, 69, 64
2, 159360, Note_on_c, 0, 61, 64
2, 159360, Note_on_c, 0, 54, 64
2, 159420, Note_on_c, 0, 54, 0
2, 159420, Note_on_c, 0, 52, 64
2, 159480, Note_on_c, 0, 52, 0
2, 159480, Note_on_c, 0, 61, 0
2, 159480, Note_on_c, 0, 69, 0
2, 159480, Note_on_c, 0, 66, 64
2, 159480, Note_on_c, 0, 62, 64
2, 159480, Note_on_c, 0, 50, 64
2, 159600, Note_on_c, 0, 50, 0
2, 159600, Note_on_c, 0, 66, 0
2, 159600, Note_on_c, 0, 69, 64
2, 159600, Note_on_c, 0, 52, 64
2, 159660, Note_on_c, 0, 52, 0
2, 159660, Note_on_c, 0, 54, 64
2, 159720, Note_on_c, 0, 54, 0
2, 159720, Note_on_c, 0, 69, 0
2, 159720, Note_on_c, 0, 62, 0
2, 159720, Note_on_c, 0, 66, 64
2, 159720, Note_on_c, 0, 74, 64
2, 159720, Note_on_c, 0, 55, 64
2, 159780, Note_on_c, 0, 55, 0
2, 159780, Note_on_c, 0, 57, 64
2, 159840, Note_on_c, 0, 57, 0
2, 159840, Note_on_c, 0, 74, 0
2, 159840, Note_on_c, 0, 66, 0
2, 159840, Note_on_c, 0, 67, 64
2, 159840, Note_on_c, 0, 59, 64
2, 159960, Note_on_c, 0, 59, 0
2, 159960, Note_on_c, 0, 69, 64
2, 159960, Note_on_c, 0, 57, 64
2, 160080, Note_on_c, 0, 57, 0
2, 160080, Note_on_c, 0, 69, 0
2, 160080, Note_on_c, 0, 67, 0
2, 160080, Note_on_c, 0, 55, 64
2, 160080, Note_on_c, 0, 76, 64
2, 160080, Note_on_c, 0, 71, 64
2, 160200, Note_on_c, 0, 71, 0
2, 160200, Note_on_c, 0, 76, 0
2, 160200, Note_on_c, 0, 55, 0
2, 160200, Note_on_c, 0, 69, 64
2, 160200, Note_on_c, 0, 66, 64
2, 160200, Note_on_c, 0, 57, 64
2, 160320, Note_on_c, 0, 69, 0
2, 160320, Note_on_c, 0, 74, 64
2, 160440, Note_on_c, 0, 74, 0
2, 160440, Note_on_c, 0, 57, 0
2, 160440, Note_on_c, 0, 66, 0
2, 160440, Note_on_c, 0, 73, 64
2, 160440, Note_on_c, 0, 64, 64
2, 160440, Note_on_c, 0, 67, 64
2, 160440, Note_on_c, 0, 45, 64
2, 160560, Note_on_c, 0, 45, 0
2, 160560, Note_on_c, 0, 73, 0
2, 160560, Note_on_c, 0, 64, 0
2, 160560, Note_on_c, 0, 38, 64
2, 160560, Note_on_c, 0, 74, 64
2, 160560, Note_on_c, 0, 62, 64
2, 160680, Note_on_c, 0, 67, 0
2, 160680, Note_on_c, 0, 69, 64
2, 160800, Note_on_c, 0, 62, 0
2, 160800, Note_on_c, 0, 66, 64
2, 160920, Note_on_c, 0, 62, 64
2, 161280, Note_on_c, 0, 62, 0
2, 161280, Note_on_c, 0, 38, 0
2, 161280, Note_on_c, 0, 69, 0
2, 161280, Note_on_c, 0, 74, 0
2, 161280, Note_on_c, 0, 66, 0
2, 161280, End_track
0, 0, End_of_file
