0, 0, Header, 1, 2, 240
1, 0, Start_track
1, 0, Time_signature, 9, 3, 12, 8
1, 0, Key_signature, 4, "major"
1, 0, Tempo, 731707
1, 0, Marker_t, "(c) Yo Tomita, 1997"
1, 65345, Tempo, 740741
1, 65400, Tempo, 779221
1, 65435, Tempo, 800000
1, 65460, Tempo, 833333
1, 65490, Tempo, 857143
1, 65515, Tempo, 882353
1, 65555, Tempo, 923077
1, 65600, Tempo, 983607
1, 65625, Tempo, 1016949
1, 65650, Tempo, 1052632
1, 65680, Tempo, 1111111
1, 65715, Tempo, 1153846
1, 65730, Tempo, 1200000
1, 65765, Tempo, 1276596
1, 65795, Tempo, 1333333
1, 65830, Tempo, 1395349
1, 65850, Tempo, 1428571
1, 65850, End_track
2, 0, Start_track
2, 0, MIDI_port, 0
2, 0, Title_t, "BWV 873/1"
2, 0, Program_c, 0, 6
2, 0, Note_on_c, 0, 49, 100
2, 120, Note_on_c, 0, 49, 0
2, 120, Note_on_c, 0, 52, 100
2, 211, Note_on_c, 0, 52, 0
2, 240, Note_on_c, 0, 56, 100
2, 323, Note_on_c, 0, 56, 0
2, 360, Note_on_c, 0, 61, 100
2, 600, Note_on_c, 0, 68, 100
2, 720, Note_on_c, 0, 68, 0
2, 720, Note_on_c, 0, 73, 100
2, 720, Note_on_c, 0, 64, 100
2, 740, Note_on_c, 0, 72, 100
2, 750, Note_on_c, 0, 73, 0
2, 760, Note_on_c, 0, 73, 100
2, 770, Note_on_c, 0, 72, 0
2, 940, Note_on_c, 0, 73, 0
2, 960, Note_on_c, 0, 76, 100
2, 1080, Note_on_c, 0, 76, 0
2, 1080, Note_on_c, 0, 64, 0
2, 1080, Note_on_c, 0, 76, 100
2, 1080, Note_on_c, 0, 66, 100
2, 1200, Note_on_c, 0, 61, 0
2, 1200, Note_on_c, 0, 75, 100
2, 1200, Note_on_c, 0, 59, 100
2, 1203, Note_on_c, 0, 76, 0
2, 1320, Note_on_c, 0, 59, 0
2, 1320, Note_on_c, 0, 57, 100
2, 1440, Note_on_c, 0, 57, 0
2, 1440, Note_on_c, 0, 66, 0
2, 1440, Note_on_c, 0, 68, 100
2, 1440, Note_on_c, 0, 59, 100
2, 1567, Note_on_c, 0, 75, 0
2, 1620, Note_on_c, 0, 75, 100
2, 1680, Note_on_c, 0, 75, 0
2, 1680, Note_on_c, 0, 76, 100
2, 1740, Note_on_c, 0, 76, 0
2, 1740, Note_on_c, 0, 78, 100
2, 1800, Note_on_c, 0, 78, 0
2, 1800, Note_on_c, 0, 68, 0
2, 1800, Note_on_c, 0, 80, 100
2, 1800, Note_on_c, 0, 63, 100
2, 1824, Note_on_c, 0, 78, 100
2, 1830, Note_on_c, 0, 80, 0
2, 1844, Note_on_c, 0, 80, 100
2, 1854, Note_on_c, 0, 78, 0
2, 1980, Note_on_c, 0, 59, 0
2, 1980, Note_on_c, 0, 52, 100
2, 2024, Note_on_c, 0, 80, 0
2, 2040, Note_on_c, 0, 52, 0
2, 2040, Note_on_c, 0, 80, 100
2, 2040, Note_on_c, 0, 54, 100
2, 2100, Note_on_c, 0, 54, 0
2, 2100, Note_on_c, 0, 56, 100
2, 2160, Note_on_c, 0, 56, 0
2, 2160, Note_on_c, 0, 80, 0
2, 2160, Note_on_c, 0, 63, 0
2, 2160, Note_on_c, 0, 56, 100
2, 2160, Note_on_c, 0, 80, 100
2, 2160, Note_on_c, 0, 61, 100
2, 2280, Note_on_c, 0, 57, 100
2, 2283, Note_on_c, 0, 56, 0
2, 2400, Note_on_c, 0, 80, 0
2, 2400, Note_on_c, 0, 73, 100
2, 2499, Note_on_c, 0, 73, 0
2, 2520, Note_on_c, 0, 78, 100
2, 2552, Note_on_c, 0, 76, 100
2, 2563, Note_on_c, 0, 78, 0
2, 2576, Note_on_c, 0, 78, 100
2, 2591, Note_on_c, 0, 76, 0
2, 2700, Note_on_c, 0, 61, 0
2, 2700, Note_on_c, 0, 76, 100
2, 2700, Note_on_c, 0, 56, 100
2, 2703, Note_on_c, 0, 57, 0
2, 2760, Note_on_c, 0, 56, 0
2, 2760, Note_on_c, 0, 76, 0
2, 2760, Note_on_c, 0, 75, 100
2, 2760, Note_on_c, 0, 54, 100
2, 2820, Note_on_c, 0, 54, 0
2, 2820, Note_on_c, 0, 75, 0
2, 2820, Note_on_c, 0, 73, 100
2, 2820, Note_on_c, 0, 52, 100
2, 2880, Note_on_c, 0, 52, 0
2, 2880, Note_on_c, 0, 73, 0
2, 2880, Note_on_c, 0, 73, 100
2, 2880, Note_on_c, 0, 51, 100
2, 3000, Note_on_c, 0, 73, 0
2, 3000, Note_on_c, 0, 72, 100
2, 3116, Note_on_c, 0, 78, 0
2, 3120, Note_on_c, 0, 72, 0
2, 3120, Note_on_c, 0, 51, 0
2, 3120, Note_on_c, 0, 75, 100
2, 3120, Note_on_c, 0, 54, 100
2, 3120, Note_on_c, 0, 78, 100
2, 3207, Note_on_c, 0, 54, 0
2, 3215, Note_on_c, 0, 78, 0
2, 3215, Note_on_c, 0, 75, 0
2, 3240, Note_on_c, 0, 69, 100
2, 3240, Note_on_c, 0, 78, 100
2, 3240, Note_on_c, 0, 48, 100
2, 3360, Note_on_c, 0, 68, 100
2, 3363, Note_on_c, 0, 69, 0
2, 3480, Note_on_c, 0, 78, 0
2, 3480, Note_on_c, 0, 48, 0
2, 3480, Note_on_c, 0, 80, 100
2, 3480, Note_on_c, 0, 72, 100
2, 3480, Note_on_c, 0, 44, 100
2, 3487, Note_on_c, 0, 68, 0
2, 3571, Note_on_c, 0, 80, 0
2, 3571, Note_on_c, 0, 44, 0
2, 3575, Note_on_c, 0, 72, 0
2, 3600, Note_on_c, 0, 78, 100
2, 3600, Note_on_c, 0, 73, 100
2, 3600, Note_on_c, 0, 49, 100
2, 3716, Note_on_c, 0, 76, 100
2, 3723, Note_on_c, 0, 78, 0
2, 3960, Note_on_c, 0, 49, 0
2, 3960, Note_on_c, 0, 37, 100
2, 4080, Note_on_c, 0, 73, 0
2, 4080, Note_on_c, 0, 75, 100
2, 4080, Note_on_c, 0, 72, 100
2, 4087, Note_on_c, 0, 76, 0
2, 4200, Note_on_c, 0, 72, 0
2, 4200, Note_on_c, 0, 75, 0
2, 4200, Note_on_c, 0, 73, 100
2, 4200, Note_on_c, 0, 76, 100
2, 4320, Note_on_c, 0, 76, 0
2, 4320, Note_on_c, 0, 73, 0
2, 4320, Note_on_c, 0, 37, 0
2, 4320, Note_on_c, 0, 75, 100
2, 4320, Note_on_c, 0, 72, 100
2, 4320, Note_on_c, 0, 44, 100
2, 4440, Note_on_c, 0, 44, 0
2, 4440, Note_on_c, 0, 48, 100
2, 4543, Note_on_c, 0, 48, 0
2, 4560, Note_on_c, 0, 51, 100
2, 4651, Note_on_c, 0, 51, 0
2, 4680, Note_on_c, 0, 72, 0
2, 4680, Note_on_c, 0, 75, 0
2, 4680, Note_on_c, 0, 56, 100
2, 4860, Note_on_c, 0, 56, 0
2, 4860, Note_on_c, 0, 57, 100
2, 4920, Note_on_c, 0, 57, 0
2, 4920, Note_on_c, 0, 75, 100
2, 4920, Note_on_c, 0, 56, 100
2, 4980, Note_on_c, 0, 56, 0
2, 4980, Note_on_c, 0, 54, 100
2, 5030, Note_on_c, 0, 75, 0
2, 5040, Note_on_c, 0, 54, 0
2, 5040, Note_on_c, 0, 56, 100
2, 5040, Note_on_c, 0, 75, 100
2, 5072, Note_on_c, 0, 54, 100
2, 5083, Note_on_c, 0, 56, 0
2, 5092, Note_on_c, 0, 56, 100
2, 5102, Note_on_c, 0, 54, 0
2, 5160, Note_on_c, 0, 76, 100
2, 5163, Note_on_c, 0, 75, 0
2, 5272, Note_on_c, 0, 56, 0
2, 5280, Note_on_c, 0, 68, 100
2, 5280, Note_on_c, 0, 72, 100
2, 5280, Note_on_c, 0, 56, 100
2, 5283, Note_on_c, 0, 76, 0
2, 5375, Note_on_c, 0, 56, 0
2, 5379, Note_on_c, 0, 72, 0
2, 5379, Note_on_c, 0, 68, 0
2, 5400, Note_on_c, 0, 72, 100
2, 5400, Note_on_c, 0, 69, 100
2, 5400, Note_on_c, 0, 56, 100
2, 5520, Note_on_c, 0, 73, 100
2, 5523, Note_on_c, 0, 72, 0
2, 5580, Note_on_c, 0, 56, 0
2, 5580, Note_on_c, 0, 49, 100
2, 5640, Note_on_c, 0, 49, 0
2, 5640, Note_on_c, 0, 51, 100
2, 5700, Note_on_c, 0, 51, 0
2, 5700, Note_on_c, 0, 53, 100
2, 5760, Note_on_c, 0, 53, 0
2, 5760, Note_on_c, 0, 69, 0
2, 5760, Note_on_c, 0, 54, 100
2, 5792, Note_on_c, 0, 53, 100
2, 5807, Note_on_c, 0, 54, 0
2, 5820, Note_on_c, 0, 54, 100
2, 5835, Note_on_c, 0, 53, 0
2, 5935, Note_on_c, 0, 73, 0
2, 5940, Note_on_c, 0, 54, 0
2, 5940, Note_on_c, 0, 76, 100
2, 5940, Note_on_c, 0, 56, 100
2, 6000, Note_on_c, 0, 56, 0
2, 6000, Note_on_c, 0, 76, 0
2, 6000, Note_on_c, 0, 75, 100
2, 6000, Note_on_c, 0, 54, 100
2, 6060, Note_on_c, 0, 54, 0
2, 6060, Note_on_c, 0, 75, 0
2, 6060, Note_on_c, 0, 73, 100
2, 6060, Note_on_c, 0, 52, 100
2, 6110, Note_on_c, 0, 73, 0
2, 6120, Note_on_c, 0, 52, 0
2, 6120, Note_on_c, 0, 73, 100
2, 6120, Note_on_c, 0, 54, 100
2, 6240, Note_on_c, 0, 81, 100
2, 6243, Note_on_c, 0, 73, 0
2, 6331, Note_on_c, 0, 81, 0
2, 6343, Note_on_c, 0, 54, 0
2, 6360, Note_on_c, 0, 69, 100
2, 6360, Note_on_c, 0, 54, 100
2, 6360, Note_on_c, 0, 73, 100
2, 6463, Note_on_c, 0, 73, 0
2, 6463, Note_on_c, 0, 54, 0
2, 6463, Note_on_c, 0, 69, 0
2, 6480, Note_on_c, 0, 68, 100
2, 6480, Note_on_c, 0, 73, 100
2, 6480, Note_on_c, 0, 54, 100
2, 6600, Note_on_c, 0, 54, 0
2, 6600, Note_on_c, 0, 56, 100
2, 6603, Note_on_c, 0, 73, 0
2, 6604, Note_on_c, 0, 72, 100
2, 6660, Note_on_c, 0, 56, 0
2, 6660, Note_on_c, 0, 54, 100
2, 6710, Note_on_c, 0, 68, 0
2, 6715, Note_on_c, 0, 72, 0
2, 6720, Note_on_c, 0, 54, 0
2, 6720, Note_on_c, 0, 68, 100
2, 6720, Note_on_c, 0, 52, 100
2, 6780, Note_on_c, 0, 52, 0
2, 6780, Note_on_c, 0, 51, 100
2, 6840, Note_on_c, 0, 51, 0
2, 6840, Note_on_c, 0, 68, 0
2, 6840, Note_on_c, 0, 68, 100
2, 6840, Note_on_c, 0, 52, 100
2, 6960, Note_on_c, 0, 73, 100
2, 6963, Note_on_c, 0, 68, 0
2, 6984, Note_on_c, 0, 72, 100
2, 7003, Note_on_c, 0, 73, 0
2, 7012, Note_on_c, 0, 73, 100
2, 7027, Note_on_c, 0, 72, 0
2, 7080, Note_on_c, 0, 56, 100
2, 7200, Note_on_c, 0, 56, 0
2, 7200, Note_on_c, 0, 61, 100
2, 7320, Note_on_c, 0, 52, 0
2, 7320, Note_on_c, 0, 51, 100
2, 7440, Note_on_c, 0, 51, 0
2, 7440, Note_on_c, 0, 61, 0
2, 7440, Note_on_c, 0, 64, 100
2, 7440, Note_on_c, 0, 49, 100
2, 7539, Note_on_c, 0, 49, 0
2, 7560, Note_on_c, 0, 64, 0
2, 7560, Note_on_c, 0, 63, 100
2, 7560, Note_on_c, 0, 54, 100
2, 7680, Note_on_c, 0, 54, 0
2, 7680, Note_on_c, 0, 52, 100
2, 7800, Note_on_c, 0, 52, 0
2, 7800, Note_on_c, 0, 75, 100
2, 7800, Note_on_c, 0, 51, 100
2, 7803, Note_on_c, 0, 73, 0
2, 7895, Note_on_c, 0, 51, 0
2, 7920, Note_on_c, 0, 75, 0
2, 7920, Note_on_c, 0, 73, 100
2, 7920, Note_on_c, 0, 56, 100
2, 8039, Note_on_c, 0, 73, 0
2, 8040, Note_on_c, 0, 71, 100
2, 8100, Note_on_c, 0, 63, 0
2, 8100, Note_on_c, 0, 63, 100
2, 8160, Note_on_c, 0, 63, 0
2, 8160, Note_on_c, 0, 56, 0
2, 8160, Note_on_c, 0, 64, 100
2, 8160, Note_on_c, 0, 54, 100
2, 8220, Note_on_c, 0, 64, 0
2, 8220, Note_on_c, 0, 66, 100
2, 8280, Note_on_c, 0, 66, 0
2, 8280, Note_on_c, 0, 54, 0
2, 8280, Note_on_c, 0, 54, 100
2, 8280, Note_on_c, 0, 68, 100
2, 8343, Note_on_c, 0, 54, 0
2, 8344, Note_on_c, 0, 53, 100
2, 8455, Note_on_c, 0, 53, 0
2, 8460, Note_on_c, 0, 53, 100
2, 8520, Note_on_c, 0, 53, 0
2, 8520, Note_on_c, 0, 68, 0
2, 8520, Note_on_c, 0, 68, 100
2, 8520, Note_on_c, 0, 54, 100
2, 8580, Note_on_c, 0, 54, 0
2, 8580, Note_on_c, 0, 56, 100
2, 8640, Note_on_c, 0, 56, 0
2, 8640, Note_on_c, 0, 68, 0
2, 8640, Note_on_c, 0, 57, 100
2, 8640, Note_on_c, 0, 68, 100
2, 8760, Note_on_c, 0, 57, 0
2, 8760, Note_on_c, 0, 59, 100
2, 8880, Note_on_c, 0, 59, 0
2, 8880, Note_on_c, 0, 68, 0
2, 8880, Note_on_c, 0, 61, 100
2, 8880, Note_on_c, 0, 56, 100
2, 9000, Note_on_c, 0, 56, 0
2, 9000, Note_on_c, 0, 61, 0
2, 9000, Note_on_c, 0, 71, 100
2, 9000, Note_on_c, 0, 66, 100
2, 9000, Note_on_c, 0, 54, 100
2, 9007, Note_on_c, 0, 71, 0
2, 9024, Note_on_c, 0, 69, 100
2, 9030, Note_on_c, 0, 71, 0
2, 9040, Note_on_c, 0, 71, 100
2, 9054, Note_on_c, 0, 69, 0
2, 9064, Note_on_c, 0, 69, 100
2, 9070, Note_on_c, 0, 71, 0
2, 9120, Note_on_c, 0, 54, 0
2, 9120, Note_on_c, 0, 56, 100
2, 9239, Note_on_c, 0, 69, 0
2, 9240, Note_on_c, 0, 56, 0
2, 9240, Note_on_c, 0, 68, 100
2, 9240, Note_on_c, 0, 52, 100
2, 9360, Note_on_c, 0, 52, 0
2, 9360, Note_on_c, 0, 68, 0
2, 9360, Note_on_c, 0, 68, 100
2, 9360, Note_on_c, 0, 51, 100
2, 9479, Note_on_c, 0, 68, 0
2, 9480, Note_on_c, 0, 51, 0
2, 9480, Note_on_c, 0, 69, 100
2, 9480, Note_on_c, 0, 52, 100
2, 9600, Note_on_c, 0, 52, 0
2, 9600, Note_on_c, 0, 66, 0
2, 9600, Note_on_c, 0, 71, 100
2, 9600, Note_on_c, 0, 49, 100
2, 9600, Note_on_c, 0, 66, 100
2, 9607, Note_on_c, 0, 69, 0
2, 9720, Note_on_c, 0, 71, 0
2, 9720, Note_on_c, 0, 49, 0
2, 9720, Note_on_c, 0, 66, 0
2, 9720, Note_on_c, 0, 69, 100
2, 9720, Note_on_c, 0, 66, 100
2, 9720, Note_on_c, 0, 48, 100
2, 9840, Note_on_c, 0, 48, 0
2, 9840, Note_on_c, 0, 68, 100
2, 9840, Note_on_c, 0, 46, 100
2, 9847, Note_on_c, 0, 69, 0
2, 9959, Note_on_c, 0, 68, 0
2, 9960, Note_on_c, 0, 66, 0
2, 9960, Note_on_c, 0, 46, 0
2, 9960, Note_on_c, 0, 68, 100
2, 9960, Note_on_c, 0, 44, 100
2, 10080, Note_on_c, 0, 44, 0
2, 10080, Note_on_c, 0, 68, 0
2, 10080, Note_on_c, 0, 66, 100
2, 10080, Note_on_c, 0, 49, 100
2, 10104, Note_on_c, 0, 64, 100
2, 10110, Note_on_c, 0, 66, 0
2, 10120, Note_on_c, 0, 66, 100
2, 10134, Note_on_c, 0, 64, 0
2, 10144, Note_on_c, 0, 64, 100
2, 10150, Note_on_c, 0, 66, 0
2, 10200, Note_on_c, 0, 49, 0
2, 10200, Note_on_c, 0, 51, 100
2, 10320, Note_on_c, 0, 51, 0
2, 10320, Note_on_c, 0, 68, 100
2, 10320, Note_on_c, 0, 47, 100
2, 10440, Note_on_c, 0, 47, 0
2, 10440, Note_on_c, 0, 68, 0
2, 10440, Note_on_c, 0, 73, 100
2, 10440, Note_on_c, 0, 46, 100
2, 10534, Note_on_c, 0, 64, 0
2, 10560, Note_on_c, 0, 46, 0
2, 10560, Note_on_c, 0, 63, 100
2, 10560, Note_on_c, 0, 47, 100
2, 10680, Note_on_c, 0, 47, 0
2, 10680, Note_on_c, 0, 63, 0
2, 10680, Note_on_c, 0, 44, 100
2, 10680, Note_on_c, 0, 64, 100
2, 10800, Note_on_c, 0, 64, 0
2, 10800, Note_on_c, 0, 44, 0
2, 10800, Note_on_c, 0, 63, 100
2, 10800, Note_on_c, 0, 43, 100
2, 10920, Note_on_c, 0, 43, 0
2, 10920, Note_on_c, 0, 41, 100
2, 11040, Note_on_c, 0, 41, 0
2, 11040, Note_on_c, 0, 73, 0
2, 11040, Note_on_c, 0, 75, 100
2, 11040, Note_on_c, 0, 39, 100
2, 11160, Note_on_c, 0, 39, 0
2, 11160, Note_on_c, 0, 75, 0
2, 11160, Note_on_c, 0, 73, 100
2, 11160, Note_on_c, 0, 44, 100
2, 11208, Note_on_c, 0, 71, 100
2, 11223, Note_on_c, 0, 73, 0
2, 11232, Note_on_c, 0, 73, 100
2, 11238, Note_on_c, 0, 71, 0
2, 11250, Note_on_c, 0, 71, 100
2, 11262, Note_on_c, 0, 73, 0
2, 11280, Note_on_c, 0, 44, 0
2, 11280, Note_on_c, 0, 47, 100
2, 11400, Note_on_c, 0, 47, 0
2, 11400, Note_on_c, 0, 46, 100
2, 11520, Note_on_c, 0, 46, 0
2, 11520, Note_on_c, 0, 63, 0
2, 11520, Note_on_c, 0, 68, 100
2, 11520, Note_on_c, 0, 47, 100
2, 11640, Note_on_c, 0, 47, 0
2, 11640, Note_on_c, 0, 70, 100
2, 11640, Note_on_c, 0, 49, 100
2, 11650, Note_on_c, 0, 71, 0
2, 11760, Note_on_c, 0, 49, 0
2, 11760, Note_on_c, 0, 70, 0
2, 11760, Note_on_c, 0, 71, 100
2, 11760, Note_on_c, 0, 51, 100
2, 11880, Note_on_c, 0, 51, 0
2, 11880, Note_on_c, 0, 71, 0
2, 11880, Note_on_c, 0, 71, 100
2, 11880, Note_on_c, 0, 52, 100
2, 12000, Note_on_c, 0, 52, 0
2, 12000, Note_on_c, 0, 54, 100
2, 12003, Note_on_c, 0, 71, 0
2, 12004, Note_on_c, 0, 70, 100
2, 12120, Note_on_c, 0, 54, 0
2, 12120, Note_on_c, 0, 51, 100
2, 12240, Note_on_c, 0, 51, 0
2, 12240, Note_on_c, 0, 68, 0
2, 12240, Note_on_c, 0, 67, 100
2, 12240, Note_on_c, 0, 49, 100
2, 12360, Note_on_c, 0, 49, 0
2, 12360, Note_on_c, 0, 51, 100
2, 12480, Note_on_c, 0, 51, 0
2, 12480, Note_on_c, 0, 67, 0
2, 12480, Note_on_c, 0, 71, 100
2, 12480, Note_on_c, 0, 68, 100
2, 12480, Note_on_c, 0, 47, 100
2, 12487, Note_on_c, 0, 70, 0
2, 12600, Note_on_c, 0, 71, 0
2, 12600, Note_on_c, 0, 68, 0
2, 12600, Note_on_c, 0, 47, 0
2, 12600, Note_on_c, 0, 70, 100
2, 12600, Note_on_c, 0, 73, 100
2, 12600, Note_on_c, 0, 46, 100
2, 12660, Note_on_c, 0, 46, 0
2, 12660, Note_on_c, 0, 47, 100
2, 12720, Note_on_c, 0, 47, 0
2, 12720, Note_on_c, 0, 49, 100
2, 12811, Note_on_c, 0, 49, 0
2, 12840, Note_on_c, 0, 46, 100
2, 12927, Note_on_c, 0, 46, 0
2, 12960, Note_on_c, 0, 39, 100
2, 13080, Note_on_c, 0, 73, 0
2, 13080, Note_on_c, 0, 76, 100
2, 13200, Note_on_c, 0, 76, 0
2, 13200, Note_on_c, 0, 70, 0
2, 13200, Note_on_c, 0, 75, 100
2, 13200, Note_on_c, 0, 71, 100
2, 13310, Note_on_c, 0, 75, 0
2, 13320, Note_on_c, 0, 71, 0
2, 13320, Note_on_c, 0, 75, 100
2, 13320, Note_on_c, 0, 73, 100
2, 13368, Note_on_c, 0, 76, 100
2, 13383, Note_on_c, 0, 75, 0
2, 13392, Note_on_c, 0, 75, 100
2, 13398, Note_on_c, 0, 76, 0
2, 13410, Note_on_c, 0, 76, 100
2, 13422, Note_on_c, 0, 75, 0
2, 13560, Note_on_c, 0, 39, 0
2, 13560, Note_on_c, 0, 55, 100
2, 13670, Note_on_c, 0, 55, 0
2, 13680, Note_on_c, 0, 55, 100
2, 13799, Note_on_c, 0, 55, 0
2, 13800, Note_on_c, 0, 56, 100
2, 13911, Note_on_c, 0, 73, 0
2, 13920, Note_on_c, 0, 76, 0
2, 13920, Note_on_c, 0, 70, 100
2, 13920, Note_on_c, 0, 73, 100
2, 14039, Note_on_c, 0, 73, 0
2, 14040, Note_on_c, 0, 70, 0
2, 14040, Note_on_c, 0, 75, 100
2, 14040, Note_on_c, 0, 71, 100
2, 14064, Note_on_c, 0, 73, 100
2, 14070, Note_on_c, 0, 75, 0
2, 14080, Note_on_c, 0, 75, 100
2, 14094, Note_on_c, 0, 73, 0
2, 14159, Note_on_c, 0, 56, 0
2, 14160, Note_on_c, 0, 54, 100
2, 14279, Note_on_c, 0, 75, 0
2, 14280, Note_on_c, 0, 54, 0
2, 14280, Note_on_c, 0, 76, 100
2, 14280, Note_on_c, 0, 52, 100
2, 14400, Note_on_c, 0, 52, 0
2, 14400, Note_on_c, 0, 76, 0
2, 14400, Note_on_c, 0, 71, 0
2, 14400, Note_on_c, 0, 78, 100
2, 14400, Note_on_c, 0, 72, 100
2, 14400, Note_on_c, 0, 51, 100
2, 14520, Note_on_c, 0, 78, 0
2, 14520, Note_on_c, 0, 76, 100
2, 14640, Note_on_c, 0, 76, 0
2, 14640, Note_on_c, 0, 51, 0
2, 14640, Note_on_c, 0, 75, 100
2, 14640, Note_on_c, 0, 56, 100
2, 14760, Note_on_c, 0, 56, 0
2, 14760, Note_on_c, 0, 75, 0
2, 14760, Note_on_c, 0, 72, 0
2, 14760, Note_on_c, 0, 51, 100
2, 14760, Note_on_c, 0, 73, 100
2, 14760, Note_on_c, 0, 77, 100
2, 14792, Note_on_c, 0, 49, 100
2, 14807, Note_on_c, 0, 51, 0
2, 14816, Note_on_c, 0, 51, 100
2, 14822, Note_on_c, 0, 49, 0
2, 14840, Note_on_c, 0, 49, 100
2, 14846, Note_on_c, 0, 51, 0
2, 14864, Note_on_c, 0, 51, 100
2, 14870, Note_on_c, 0, 49, 0
2, 14880, Note_on_c, 0, 77, 0
2, 14880, Note_on_c, 0, 80, 100
2, 14888, Note_on_c, 0, 49, 100
2, 14894, Note_on_c, 0, 51, 0
2, 14912, Note_on_c, 0, 51, 100
2, 14918, Note_on_c, 0, 49, 0
2, 14936, Note_on_c, 0, 49, 100
2, 14942, Note_on_c, 0, 51, 0
2, 14960, Note_on_c, 0, 51, 100
2, 14966, Note_on_c, 0, 49, 0
2, 14984, Note_on_c, 0, 49, 100
2, 14990, Note_on_c, 0, 51, 0
2, 15000, Note_on_c, 0, 80, 0
2, 15000, Note_on_c, 0, 79, 100
2, 15008, Note_on_c, 0, 51, 100
2, 15014, Note_on_c, 0, 49, 0
2, 15032, Note_on_c, 0, 49, 100
2, 15038, Note_on_c, 0, 51, 0
2, 15062, Note_on_c, 0, 49, 0
2, 15064, Note_on_c, 0, 48, 100
2, 15090, Note_on_c, 0, 49, 100
2, 15094, Note_on_c, 0, 48, 0
2, 15120, Note_on_c, 0, 73, 0
2, 15120, Note_on_c, 0, 79, 0
2, 15120, Note_on_c, 0, 49, 0
2, 15120, Note_on_c, 0, 51, 100
2, 15120, Note_on_c, 0, 80, 100
2, 15120, Note_on_c, 0, 71, 100
2, 15150, Note_on_c, 0, 51, 0
2, 15150, Note_on_c, 0, 50, 100
2, 15180, Note_on_c, 0, 50, 0
2, 15180, Note_on_c, 0, 51, 100
2, 15210, Note_on_c, 0, 51, 0
2, 15210, Note_on_c, 0, 50, 100
2, 15240, Note_on_c, 0, 50, 0
2, 15240, Note_on_c, 0, 80, 0
2, 15240, Note_on_c, 0, 51, 100
2, 15240, Note_on_c, 0, 79, 100
2, 15270, Note_on_c, 0, 51, 0
2, 15270, Note_on_c, 0, 50, 100
2, 15300, Note_on_c, 0, 50, 0
2, 15300, Note_on_c, 0, 51, 100
2, 15330, Note_on_c, 0, 51, 0
2, 15330, Note_on_c, 0, 50, 100
2, 15360, Note_on_c, 0, 50, 0
2, 15360, Note_on_c, 0, 79, 0
2, 15360, Note_on_c, 0, 51, 100
2, 15360, Note_on_c, 0, 77, 100
2, 15390, Note_on_c, 0, 51, 0
2, 15390, Note_on_c, 0, 50, 100
2, 15420, Note_on_c, 0, 50, 0
2, 15420, Note_on_c, 0, 48, 100
2, 15450, Note_on_c, 0, 48, 0
2, 15450, Note_on_c, 0, 50, 100
2, 15480, Note_on_c, 0, 50, 0
2, 15480, Note_on_c, 0, 77, 0
2, 15480, Note_on_c, 0, 71, 0
2, 15480, Note_on_c, 0, 79, 100
2, 15480, Note_on_c, 0, 70, 100
2, 15480, Note_on_c, 0, 51, 100
2, 15600, Note_on_c, 0, 70, 0
2, 15600, Note_on_c, 0, 73, 100
2, 15720, Note_on_c, 0, 73, 0
2, 15720, Note_on_c, 0, 79, 0
2, 15720, Note_on_c, 0, 80, 100
2, 15720, Note_on_c, 0, 71, 100
2, 15840, Note_on_c, 0, 71, 0
2, 15840, Note_on_c, 0, 80, 0
2, 15840, Note_on_c, 0, 82, 100
2, 15840, Note_on_c, 0, 73, 100
2, 15900, Note_on_c, 0, 73, 0
2, 15900, Note_on_c, 0, 75, 100
2, 15960, Note_on_c, 0, 75, 0
2, 15960, Note_on_c, 0, 76, 100
2, 16080, Note_on_c, 0, 76, 0
2, 16080, Note_on_c, 0, 82, 0
2, 16080, Note_on_c, 0, 51, 0
2, 16080, Note_on_c, 0, 63, 100
2, 16080, Note_on_c, 0, 75, 100
2, 16080, Note_on_c, 0, 79, 100
2, 16200, Note_on_c, 0, 79, 0
2, 16200, Note_on_c, 0, 75, 0
2, 16200, Note_on_c, 0, 63, 0
2, 16200, Note_on_c, 0, 73, 100
2, 16200, Note_on_c, 0, 80, 100
2, 16200, Note_on_c, 0, 64, 100
2, 16319, Note_on_c, 0, 73, 0
2, 16320, Note_on_c, 0, 64, 0
2, 16320, Note_on_c, 0, 71, 100
2, 16320, Note_on_c, 0, 63, 100
2, 16415, Note_on_c, 0, 63, 0
2, 16415, Note_on_c, 0, 71, 0
2, 16423, Note_on_c, 0, 80, 0
2, 16440, Note_on_c, 0, 82, 100
2, 16440, Note_on_c, 0, 73, 100
2, 16440, Note_on_c, 0, 61, 100
2, 16535, Note_on_c, 0, 61, 0
2, 16535, Note_on_c, 0, 73, 0
2, 16543, Note_on_c, 0, 82, 0
2, 16560, Note_on_c, 0, 80, 100
2, 16560, Note_on_c, 0, 71, 100
2, 16560, Note_on_c, 0, 63, 100
2, 16920, Note_on_c, 0, 63, 0
2, 16920, Note_on_c, 0, 71, 0
2, 16920, Note_on_c, 0, 80, 0
2, 16920, Note_on_c, 0, 80, 100
2, 16920, Note_on_c, 0, 51, 100
2, 16920, Note_on_c, 0, 70, 100
2, 16960, Note_on_c, 0, 79, 100
2, 16967, Note_on_c, 0, 80, 0
2, 16984, Note_on_c, 0, 80, 100
2, 16990, Note_on_c, 0, 79, 0
2, 17000, Note_on_c, 0, 79, 100
2, 17014, Note_on_c, 0, 80, 0
2, 17024, Note_on_c, 0, 80, 100
2, 17030, Note_on_c, 0, 79, 0
2, 17040, Note_on_c, 0, 79, 100
2, 17054, Note_on_c, 0, 80, 0
2, 17064, Note_on_c, 0, 80, 100
2, 17070, Note_on_c, 0, 79, 0
2, 17088, Note_on_c, 0, 79, 100
2, 17094, Note_on_c, 0, 80, 0
2, 17160, Note_on_c, 0, 70, 0
2, 17160, Note_on_c, 0, 80, 100
2, 17160, Note_on_c, 0, 71, 100
2, 17167, Note_on_c, 0, 79, 0
2, 17270, Note_on_c, 0, 71, 0
2, 17270, Note_on_c, 0, 80, 0
2, 17280, Note_on_c, 0, 51, 0
2, 17280, Note_on_c, 0, 80, 100
2, 17280, Note_on_c, 0, 71, 100
2, 17280, Note_on_c, 0, 44, 100
2, 17383, Note_on_c, 0, 44, 0
2, 17400, Note_on_c, 0, 47, 100
2, 17479, Note_on_c, 0, 47, 0
2, 17520, Note_on_c, 0, 51, 100
2, 17591, Note_on_c, 0, 51, 0
2, 17640, Note_on_c, 0, 80, 0
2, 17640, Note_on_c, 0, 56, 100
2, 17880, Note_on_c, 0, 71, 0
2, 17880, Note_on_c, 0, 75, 100
2, 17990, Note_on_c, 0, 75, 0
2, 18000, Note_on_c, 0, 75, 100
2, 18119, Note_on_c, 0, 75, 0
2, 18120, Note_on_c, 0, 76, 100
2, 18239, Note_on_c, 0, 76, 0
2, 18240, Note_on_c, 0, 73, 100
2, 18360, Note_on_c, 0, 73, 0
2, 18360, Note_on_c, 0, 71, 100
2, 18479, Note_on_c, 0, 71, 0
2, 18480, Note_on_c, 0, 70, 100
2, 18540, Note_on_c, 0, 56, 0
2, 18540, Note_on_c, 0, 49, 100
2, 18600, Note_on_c, 0, 49, 0
2, 18600, Note_on_c, 0, 51, 100
2, 18660, Note_on_c, 0, 51, 0
2, 18660, Note_on_c, 0, 52, 100
2, 18720, Note_on_c, 0, 52, 0
2, 18720, Note_on_c, 0, 54, 100
2, 18900, Note_on_c, 0, 73, 100
2, 18903, Note_on_c, 0, 70, 0
2, 18960, Note_on_c, 0, 73, 0
2, 18960, Note_on_c, 0, 54, 0
2, 18960, Note_on_c, 0, 71, 100
2, 18960, Note_on_c, 0, 42, 100
2, 19020, Note_on_c, 0, 71, 0
2, 19020, Note_on_c, 0, 70, 100
2, 19047, Note_on_c, 0, 42, 0
2, 19080, Note_on_c, 0, 70, 0
2, 19080, Note_on_c, 0, 54, 100
2, 19080, Note_on_c, 0, 75, 100
2, 19104, Note_on_c, 0, 52, 100
2, 19110, Note_on_c, 0, 54, 0
2, 19120, Note_on_c, 0, 54, 100
2, 19134, Note_on_c, 0, 52, 0
2, 19200, Note_on_c, 0, 75, 0
2, 19200, Note_on_c, 0, 78, 100
2, 19260, Note_on_c, 0, 78, 0
2, 19260, Note_on_c, 0, 76, 100
2, 19320, Note_on_c, 0, 76, 0
2, 19320, Note_on_c, 0, 78, 100
2, 19440, Note_on_c, 0, 78, 0
2, 19440, Note_on_c, 0, 73, 100
2, 19472, Note_on_c, 0, 72, 100
2, 19479, Note_on_c, 0, 73, 0
2, 19488, Note_on_c, 0, 73, 100
2, 19502, Note_on_c, 0, 72, 0
2, 19512, Note_on_c, 0, 72, 100
2, 19518, Note_on_c, 0, 73, 0
2, 19560, Note_on_c, 0, 70, 100
2, 19567, Note_on_c, 0, 72, 0
2, 19680, Note_on_c, 0, 70, 0
2, 19680, Note_on_c, 0, 68, 100
2, 19740, Note_on_c, 0, 54, 0
2, 19800, Note_on_c, 0, 68, 0
2, 19800, Note_on_c, 0, 54, 100
2, 19800, Note_on_c, 0, 73, 100
2, 19840, Note_on_c, 0, 52, 100
2, 19847, Note_on_c, 0, 54, 0
2, 19860, Note_on_c, 0, 54, 100
2, 19870, Note_on_c, 0, 52, 0
2, 19880, Note_on_c, 0, 52, 100
2, 19890, Note_on_c, 0, 54, 0
2, 19904, Note_on_c, 0, 54, 100
2, 19910, Note_on_c, 0, 52, 0
2, 19928, Note_on_c, 0, 52, 100
2, 19934, Note_on_c, 0, 54, 0
2, 19952, Note_on_c, 0, 54, 100
2, 19958, Note_on_c, 0, 52, 0
2, 19976, Note_on_c, 0, 52, 100
2, 19982, Note_on_c, 0, 54, 0
2, 20000, Note_on_c, 0, 54, 100
2, 20006, Note_on_c, 0, 52, 0
2, 20016, Note_on_c, 0, 52, 100
2, 20030, Note_on_c, 0, 54, 0
2, 20040, Note_on_c, 0, 80, 100
2, 20046, Note_on_c, 0, 52, 0
2, 20048, Note_on_c, 0, 54, 100
2, 20070, Note_on_c, 0, 52, 100
2, 20078, Note_on_c, 0, 54, 0
2, 20100, Note_on_c, 0, 52, 0
2, 20100, Note_on_c, 0, 51, 100
2, 20130, Note_on_c, 0, 51, 0
2, 20130, Note_on_c, 0, 52, 100
2, 20160, Note_on_c, 0, 52, 0
2, 20160, Note_on_c, 0, 80, 0
2, 20160, Note_on_c, 0, 80, 100
2, 20160, Note_on_c, 0, 56, 100
2, 20200, Note_on_c, 0, 54, 100
2, 20207, Note_on_c, 0, 56, 0
2, 20220, Note_on_c, 0, 56, 100
2, 20230, Note_on_c, 0, 54, 0
2, 20240, Note_on_c, 0, 54, 100
2, 20250, Note_on_c, 0, 56, 0
2, 20264, Note_on_c, 0, 56, 100
2, 20270, Note_on_c, 0, 54, 0
2, 20279, Note_on_c, 0, 80, 0
2, 20280, Note_on_c, 0, 81, 100
2, 20288, Note_on_c, 0, 54, 100
2, 20294, Note_on_c, 0, 56, 0
2, 20304, Note_on_c, 0, 56, 100
2, 20318, Note_on_c, 0, 54, 0
2, 20328, Note_on_c, 0, 54, 100
2, 20334, Note_on_c, 0, 56, 0
2, 20352, Note_on_c, 0, 56, 100
2, 20358, Note_on_c, 0, 54, 0
2, 20368, Note_on_c, 0, 54, 100
2, 20382, Note_on_c, 0, 56, 0
2, 20392, Note_on_c, 0, 56, 100
2, 20398, Note_on_c, 0, 54, 0
2, 20399, Note_on_c, 0, 81, 0
2, 20400, Note_on_c, 0, 78, 100
2, 20422, Note_on_c, 0, 56, 0
2, 20430, Note_on_c, 0, 54, 100
2, 20460, Note_on_c, 0, 54, 0
2, 20460, Note_on_c, 0, 52, 100
2, 20490, Note_on_c, 0, 52, 0
2, 20490, Note_on_c, 0, 54, 100
2, 20520, Note_on_c, 0, 54, 0
2, 20520, Note_on_c, 0, 78, 0
2, 20520, Note_on_c, 0, 76, 100
2, 20520, Note_on_c, 0, 56, 100
2, 20639, Note_on_c, 0, 76, 0
2, 20640, Note_on_c, 0, 75, 100
2, 20760, Note_on_c, 0, 56, 0
2, 20760, Note_on_c, 0, 57, 100
2, 20880, Note_on_c, 0, 57, 0
2, 20880, Note_on_c, 0, 73, 0
2, 20880, Note_on_c, 0, 71, 100
2, 20880, Note_on_c, 0, 56, 100
2, 21060, Note_on_c, 0, 78, 100
2, 21063, Note_on_c, 0, 75, 0
2, 21120, Note_on_c, 0, 78, 0
2, 21120, Note_on_c, 0, 56, 0
2, 21120, Note_on_c, 0, 77, 100
2, 21120, Note_on_c, 0, 54, 100
2, 21180, Note_on_c, 0, 77, 0
2, 21180, Note_on_c, 0, 75, 100
2, 21240, Note_on_c, 0, 75, 0
2, 21240, Note_on_c, 0, 54, 0
2, 21240, Note_on_c, 0, 80, 100
2, 21240, Note_on_c, 0, 53, 100
2, 21360, Note_on_c, 0, 53, 0
2, 21360, Note_on_c, 0, 80, 0
2, 21360, Note_on_c, 0, 83, 100
2, 21360, Note_on_c, 0, 54, 100
2, 21420, Note_on_c, 0, 83, 0
2, 21420, Note_on_c, 0, 81, 100
2, 21480, Note_on_c, 0, 81, 0
2, 21480, Note_on_c, 0, 54, 0
2, 21480, Note_on_c, 0, 56, 100
2, 21480, Note_on_c, 0, 83, 100
2, 21600, Note_on_c, 0, 83, 0
2, 21600, Note_on_c, 0, 56, 0
2, 21600, Note_on_c, 0, 78, 100
2, 21600, Note_on_c, 0, 49, 100
2, 21624, Note_on_c, 0, 77, 100
2, 21630, Note_on_c, 0, 78, 0
2, 21648, Note_on_c, 0, 78, 100
2, 21654, Note_on_c, 0, 77, 0
2, 21672, Note_on_c, 0, 77, 100
2, 21678, Note_on_c, 0, 78, 0
2, 21720, Note_on_c, 0, 75, 100
2, 21727, Note_on_c, 0, 77, 0
2, 21840, Note_on_c, 0, 75, 0
2, 21840, Note_on_c, 0, 73, 100
2, 21960, Note_on_c, 0, 73, 0
2, 21960, Note_on_c, 0, 49, 0
2, 21960, Note_on_c, 0, 71, 0
2, 21960, Note_on_c, 0, 78, 100
2, 21960, Note_on_c, 0, 69, 100
2, 22080, Note_on_c, 0, 69, 0
2, 22080, Note_on_c, 0, 71, 100
2, 22200, Note_on_c, 0, 71, 0
2, 22200, Note_on_c, 0, 61, 100
2, 22200, Note_on_c, 0, 69, 100
2, 22310, Note_on_c, 0, 61, 0
2, 22320, Note_on_c, 0, 69, 0
2, 22320, Note_on_c, 0, 69, 100
2, 22320, Note_on_c, 0, 61, 100
2, 22439, Note_on_c, 0, 69, 0
2, 22440, Note_on_c, 0, 62, 100
2, 22440, Note_on_c, 0, 68, 100
2, 22447, Note_on_c, 0, 61, 0
2, 22560, Note_on_c, 0, 59, 100
2, 22560, Note_on_c, 0, 69, 100
2, 22567, Note_on_c, 0, 68, 0
2, 22567, Note_on_c, 0, 62, 0
2, 22680, Note_on_c, 0, 69, 0
2, 22680, Note_on_c, 0, 59, 0
2, 22680, Note_on_c, 0, 57, 100
2, 22680, Note_on_c, 0, 71, 100
2, 22800, Note_on_c, 0, 78, 0
2, 22800, Note_on_c, 0, 56, 100
2, 22800, Note_on_c, 0, 76, 100
2, 22807, Note_on_c, 0, 57, 0
2, 22920, Note_on_c, 0, 76, 0
2, 22920, Note_on_c, 0, 75, 100
2, 23040, Note_on_c, 0, 75, 0
2, 23040, Note_on_c, 0, 76, 100
2, 23220, Note_on_c, 0, 59, 100
2, 23223, Note_on_c, 0, 56, 0
2, 23280, Note_on_c, 0, 71, 0
2, 23280, Note_on_c, 0, 59, 0
2, 23280, Note_on_c, 0, 73, 100
2, 23280, Note_on_c, 0, 58, 100
2, 23340, Note_on_c, 0, 58, 0
2, 23340, Note_on_c, 0, 56, 100
2, 23400, Note_on_c, 0, 56, 0
2, 23400, Note_on_c, 0, 73, 0
2, 23400, Note_on_c, 0, 71, 100
2, 23400, Note_on_c, 0, 61, 100
2, 23519, Note_on_c, 0, 71, 0
2, 23520, Note_on_c, 0, 61, 0
2, 23520, Note_on_c, 0, 64, 100
2, 23520, Note_on_c, 0, 70, 100
2, 23580, Note_on_c, 0, 64, 0
2, 23580, Note_on_c, 0, 63, 100
2, 23639, Note_on_c, 0, 70, 0
2, 23640, Note_on_c, 0, 63, 0
2, 23640, Note_on_c, 0, 64, 100
2, 23640, Note_on_c, 0, 68, 100
2, 23760, Note_on_c, 0, 68, 0
2, 23760, Note_on_c, 0, 64, 0
2, 23760, Note_on_c, 0, 59, 100
2, 23760, Note_on_c, 0, 73, 100
2, 23784, Note_on_c, 0, 58, 100
2, 23790, Note_on_c, 0, 59, 0
2, 23808, Note_on_c, 0, 59, 100
2, 23814, Note_on_c, 0, 58, 0
2, 23832, Note_on_c, 0, 58, 100
2, 23838, Note_on_c, 0, 59, 0
2, 23880, Note_on_c, 0, 56, 100
2, 23887, Note_on_c, 0, 58, 0
2, 24000, Note_on_c, 0, 56, 0
2, 24000, Note_on_c, 0, 73, 0
2, 24000, Note_on_c, 0, 70, 100
2, 24000, Note_on_c, 0, 54, 100
2, 24120, Note_on_c, 0, 54, 0
2, 24120, Note_on_c, 0, 70, 0
2, 24120, Note_on_c, 0, 59, 100
2, 24120, Note_on_c, 0, 66, 100
2, 24136, Note_on_c, 0, 58, 100
2, 24150, Note_on_c, 0, 59, 0
2, 24160, Note_on_c, 0, 59, 100
2, 24166, Note_on_c, 0, 58, 0
2, 24240, Note_on_c, 0, 76, 0
2, 24240, Note_on_c, 0, 75, 100
2, 24340, Note_on_c, 0, 59, 0
2, 24360, Note_on_c, 0, 75, 0
2, 24360, Note_on_c, 0, 73, 100
2, 24360, Note_on_c, 0, 47, 100
2, 24447, Note_on_c, 0, 47, 0
2, 24480, Note_on_c, 0, 73, 0
2, 24480, Note_on_c, 0, 59, 100
2, 24480, Note_on_c, 0, 75, 100
2, 24496, Note_on_c, 0, 58, 100
2, 24510, Note_on_c, 0, 59, 0
2, 24520, Note_on_c, 0, 59, 100
2, 24526, Note_on_c, 0, 58, 0
2, 24600, Note_on_c, 0, 75, 0
2, 24600, Note_on_c, 0, 73, 100
2, 24720, Note_on_c, 0, 73, 0
2, 24720, Note_on_c, 0, 66, 0
2, 24720, Note_on_c, 0, 71, 100
2, 24720, Note_on_c, 0, 68, 100
2, 24840, Note_on_c, 0, 68, 0
2, 24840, Note_on_c, 0, 71, 0
2, 24840, Note_on_c, 0, 73, 100
2, 24840, Note_on_c, 0, 64, 100
2, 24951, Note_on_c, 0, 59, 0
2, 24960, Note_on_c, 0, 64, 0
2, 24960, Note_on_c, 0, 63, 100
2, 24960, Note_on_c, 0, 61, 100
2, 25020, Note_on_c, 0, 61, 0
2, 25020, Note_on_c, 0, 59, 100
2, 25080, Note_on_c, 0, 59, 0
2, 25080, Note_on_c, 0, 63, 0
2, 25080, Note_on_c, 0, 61, 100
2, 25080, Note_on_c, 0, 57, 100
2, 25140, Note_on_c, 0, 57, 0
2, 25140, Note_on_c, 0, 56, 100
2, 25200, Note_on_c, 0, 56, 0
2, 25200, Note_on_c, 0, 61, 0
2, 25200, Note_on_c, 0, 57, 100
2, 25200, Note_on_c, 0, 66, 100
2, 25216, Note_on_c, 0, 56, 100
2, 25231, Note_on_c, 0, 57, 0
2, 25240, Note_on_c, 0, 57, 100
2, 25247, Note_on_c, 0, 56, 0
2, 25320, Note_on_c, 0, 66, 0
2, 25320, Note_on_c, 0, 68, 100
2, 25431, Note_on_c, 0, 57, 0
2, 25440, Note_on_c, 0, 68, 0
2, 25440, Note_on_c, 0, 73, 0
2, 25440, Note_on_c, 0, 78, 100
2, 25440, Note_on_c, 0, 69, 100
2, 25440, Note_on_c, 0, 45, 100
2, 25535, Note_on_c, 0, 45, 0
2, 25560, Note_on_c, 0, 69, 0
2, 25560, Note_on_c, 0, 78, 0
2, 25560, Note_on_c, 0, 57, 100
2, 25560, Note_on_c, 0, 76, 100
2, 25560, Note_on_c, 0, 68, 100
2, 25576, Note_on_c, 0, 56, 100
2, 25590, Note_on_c, 0, 57, 0
2, 25600, Note_on_c, 0, 57, 100
2, 25606, Note_on_c, 0, 56, 0
2, 25680, Note_on_c, 0, 76, 0
2, 25680, Note_on_c, 0, 68, 0
2, 25680, Note_on_c, 0, 75, 100
2, 25680, Note_on_c, 0, 66, 100
2, 25800, Note_on_c, 0, 66, 0
2, 25800, Note_on_c, 0, 75, 0
2, 25800, Note_on_c, 0, 64, 100
2, 25800, Note_on_c, 0, 73, 100
2, 25920, Note_on_c, 0, 73, 0
2, 25920, Note_on_c, 0, 64, 0
2, 25920, Note_on_c, 0, 71, 100
2, 25920, Note_on_c, 0, 63, 100
2, 26039, Note_on_c, 0, 57, 0
2, 26040, Note_on_c, 0, 63, 0
2, 26040, Note_on_c, 0, 61, 100
2, 26040, Note_on_c, 0, 59, 100
2, 26100, Note_on_c, 0, 59, 0
2, 26100, Note_on_c, 0, 57, 100
2, 26160, Note_on_c, 0, 57, 0
2, 26160, Note_on_c, 0, 61, 0
2, 26160, Note_on_c, 0, 59, 100
2, 26160, Note_on_c, 0, 56, 100
2, 26220, Note_on_c, 0, 56, 0
2, 26220, Note_on_c, 0, 54, 100
2, 26280, Note_on_c, 0, 54, 0
2, 26280, Note_on_c, 0, 59, 0
2, 26280, Note_on_c, 0, 64, 100
2, 26280, Note_on_c, 0, 56, 100
2, 26400, Note_on_c, 0, 71, 0
2, 26400, Note_on_c, 0, 69, 100
2, 26520, Note_on_c, 0, 69, 0
2, 26520, Note_on_c, 0, 56, 0
2, 26520, Note_on_c, 0, 68, 100
2, 26520, Note_on_c, 0, 61, 100
2, 26640, Note_on_c, 0, 61, 0
2, 26640, Note_on_c, 0, 68, 0
2, 26640, Note_on_c, 0, 59, 100
2, 26640, Note_on_c, 0, 73, 100
2, 26760, Note_on_c, 0, 73, 0
2, 26760, Note_on_c, 0, 57, 100
2, 26760, Note_on_c, 0, 75, 100
2, 26767, Note_on_c, 0, 59, 0
2, 26879, Note_on_c, 0, 57, 0
2, 26880, Note_on_c, 0, 75, 0
2, 26880, Note_on_c, 0, 56, 100
2, 26880, Note_on_c, 0, 76, 100
2, 27000, Note_on_c, 0, 76, 0
2, 27000, Note_on_c, 0, 56, 0
2, 27000, Note_on_c, 0, 69, 100
2, 27000, Note_on_c, 0, 54, 100
2, 27120, Note_on_c, 0, 54, 0
2, 27120, Note_on_c, 0, 69, 0
2, 27120, Note_on_c, 0, 71, 100
2, 27120, Note_on_c, 0, 56, 100
2, 27240, Note_on_c, 0, 56, 0
2, 27240, Note_on_c, 0, 71, 0
2, 27240, Note_on_c, 0, 73, 100
2, 27240, Note_on_c, 0, 57, 100
2, 27360, Note_on_c, 0, 57, 0
2, 27360, Note_on_c, 0, 73, 0
2, 27360, Note_on_c, 0, 69, 100
2, 27360, Note_on_c, 0, 59, 100
2, 27384, Note_on_c, 0, 57, 100
2, 27390, Note_on_c, 0, 59, 0
2, 27400, Note_on_c, 0, 59, 100
2, 27414, Note_on_c, 0, 57, 0
2, 27423, Note_on_c, 0, 69, 0
2, 27424, Note_on_c, 0, 68, 100
2, 27540, Note_on_c, 0, 66, 100
2, 27543, Note_on_c, 0, 68, 0
2, 27600, Note_on_c, 0, 66, 0
2, 27600, Note_on_c, 0, 64, 100
2, 27660, Note_on_c, 0, 64, 0
2, 27660, Note_on_c, 0, 66, 100
2, 27700, Note_on_c, 0, 59, 0
2, 27720, Note_on_c, 0, 66, 0
2, 27720, Note_on_c, 0, 64, 0
2, 27720, Note_on_c, 0, 68, 100
2, 27720, Note_on_c, 0, 47, 100
2, 27720, Note_on_c, 0, 63, 100
2, 27760, Note_on_c, 0, 66, 100
2, 27767, Note_on_c, 0, 68, 0
2, 27780, Note_on_c, 0, 68, 100
2, 27790, Note_on_c, 0, 66, 0
2, 27800, Note_on_c, 0, 66, 100
2, 27810, Note_on_c, 0, 68, 0
2, 27824, Note_on_c, 0, 68, 100
2, 27830, Note_on_c, 0, 66, 0
2, 27848, Note_on_c, 0, 66, 100
2, 27854, Note_on_c, 0, 68, 0
2, 27872, Note_on_c, 0, 68, 100
2, 27878, Note_on_c, 0, 66, 0
2, 27896, Note_on_c, 0, 66, 100
2, 27902, Note_on_c, 0, 68, 0
2, 27920, Note_on_c, 0, 68, 100
2, 27926, Note_on_c, 0, 66, 0
2, 27944, Note_on_c, 0, 66, 100
2, 27950, Note_on_c, 0, 68, 0
2, 27968, Note_on_c, 0, 68, 100
2, 27974, Note_on_c, 0, 66, 0
2, 27990, Note_on_c, 0, 66, 100
2, 27998, Note_on_c, 0, 68, 0
2, 28020, Note_on_c, 0, 66, 0
2, 28020, Note_on_c, 0, 64, 100
2, 28050, Note_on_c, 0, 64, 0
2, 28050, Note_on_c, 0, 66, 100
2, 28080, Note_on_c, 0, 66, 0
2, 28080, Note_on_c, 0, 63, 0
2, 28080, Note_on_c, 0, 47, 0
2, 28080, Note_on_c, 0, 64, 100
2, 28080, Note_on_c, 0, 52, 100
2, 28200, Note_on_c, 0, 68, 100
2, 28320, Note_on_c, 0, 68, 0
2, 28320, Note_on_c, 0, 71, 100
2, 28440, Note_on_c, 0, 71, 0
2, 28440, Note_on_c, 0, 64, 0
2, 28440, Note_on_c, 0, 76, 100
2, 28500, Note_on_c, 0, 76, 0
2, 28500, Note_on_c, 0, 75, 100
2, 28560, Note_on_c, 0, 75, 0
2, 28560, Note_on_c, 0, 52, 0
2, 28560, Note_on_c, 0, 76, 100
2, 28560, Note_on_c, 0, 56, 100
2, 28620, Note_on_c, 0, 56, 0
2, 28620, Note_on_c, 0, 54, 100
2, 28680, Note_on_c, 0, 54, 0
2, 28680, Note_on_c, 0, 76, 0
2, 28680, Note_on_c, 0, 76, 100
2, 28680, Note_on_c, 0, 52, 100
2, 28740, Note_on_c, 0, 52, 0
2, 28740, Note_on_c, 0, 51, 100
2, 28790, Note_on_c, 0, 76, 0
2, 28800, Note_on_c, 0, 51, 0
2, 28800, Note_on_c, 0, 76, 100
2, 28800, Note_on_c, 0, 49, 100
2, 28824, Note_on_c, 0, 75, 100
2, 28830, Note_on_c, 0, 76, 0
2, 28848, Note_on_c, 0, 76, 100
2, 28854, Note_on_c, 0, 75, 0
2, 28920, Note_on_c, 0, 49, 0
2, 28920, Note_on_c, 0, 59, 100
2, 29028, Note_on_c, 0, 76, 0
2, 29040, Note_on_c, 0, 59, 0
2, 29040, Note_on_c, 0, 58, 100
2, 29040, Note_on_c, 0, 76, 100
2, 29160, Note_on_c, 0, 76, 0
2, 29160, Note_on_c, 0, 58, 0
2, 29160, Note_on_c, 0, 76, 100
2, 29160, Note_on_c, 0, 59, 100
2, 29280, Note_on_c, 0, 76, 0
2, 29280, Note_on_c, 0, 78, 100
2, 29280, Note_on_c, 0, 63, 100
2, 29340, Note_on_c, 0, 78, 0
2, 29340, Note_on_c, 0, 76, 100
2, 29400, Note_on_c, 0, 76, 0
2, 29400, Note_on_c, 0, 63, 0
2, 29400, Note_on_c, 0, 75, 100
2, 29400, Note_on_c, 0, 66, 100
2, 29460, Note_on_c, 0, 75, 0
2, 29460, Note_on_c, 0, 73, 100
2, 29520, Note_on_c, 0, 73, 0
2, 29520, Note_on_c, 0, 66, 0
2, 29520, Note_on_c, 0, 75, 100
2, 29520, Note_on_c, 0, 71, 100
2, 29580, Note_on_c, 0, 71, 0
2, 29580, Note_on_c, 0, 70, 100
2, 29640, Note_on_c, 0, 70, 0
2, 29640, Note_on_c, 0, 71, 100
2, 29700, Note_on_c, 0, 59, 0
2, 29700, Note_on_c, 0, 57, 100
2, 29760, Note_on_c, 0, 57, 0
2, 29760, Note_on_c, 0, 71, 0
2, 29760, Note_on_c, 0, 75, 0
2, 29760, Note_on_c, 0, 77, 100
2, 29760, Note_on_c, 0, 71, 100
2, 29760, Note_on_c, 0, 56, 100
2, 29820, Note_on_c, 0, 56, 0
2, 29820, Note_on_c, 0, 54, 100
2, 29880, Note_on_c, 0, 54, 0
2, 29880, Note_on_c, 0, 71, 0
2, 29880, Note_on_c, 0, 77, 0
2, 29880, Note_on_c, 0, 78, 100
2, 29880, Note_on_c, 0, 71, 100
2, 29880, Note_on_c, 0, 56, 100
2, 30000, Note_on_c, 0, 77, 100
2, 30007, Note_on_c, 0, 78, 0
2, 30119, Note_on_c, 0, 77, 0
2, 30120, Note_on_c, 0, 56, 0
2, 30120, Note_on_c, 0, 71, 0
2, 30120, Note_on_c, 0, 71, 100
2, 30120, Note_on_c, 0, 61, 100
2, 30120, Note_on_c, 0, 78, 100
2, 30240, Note_on_c, 0, 78, 0
2, 30240, Note_on_c, 0, 61, 0
2, 30240, Note_on_c, 0, 71, 0
2, 30240, Note_on_c, 0, 78, 100
2, 30240, Note_on_c, 0, 71, 100
2, 30240, Note_on_c, 0, 54, 100
2, 30360, Note_on_c, 0, 54, 0
2, 30360, Note_on_c, 0, 71, 0
2, 30360, Note_on_c, 0, 73, 100
2, 30360, Note_on_c, 0, 57, 100
2, 30420, Note_on_c, 0, 73, 0
2, 30420, Note_on_c, 0, 71, 100
2, 30480, Note_on_c, 0, 71, 0
2, 30480, Note_on_c, 0, 57, 0
2, 30480, Note_on_c, 0, 69, 100
2, 30480, Note_on_c, 0, 61, 100
2, 30540, Note_on_c, 0, 69, 0
2, 30540, Note_on_c, 0, 68, 100
2, 30600, Note_on_c, 0, 68, 0
2, 30600, Note_on_c, 0, 61, 0
2, 30600, Note_on_c, 0, 69, 100
2, 30600, Note_on_c, 0, 66, 100
2, 30660, Note_on_c, 0, 66, 0
2, 30660, Note_on_c, 0, 65, 100
2, 30720, Note_on_c, 0, 65, 0
2, 30720, Note_on_c, 0, 78, 0
2, 30720, Note_on_c, 0, 81, 100
2, 30720, Note_on_c, 0, 66, 100
2, 30780, Note_on_c, 0, 81, 0
2, 30780, Note_on_c, 0, 80, 100
2, 30840, Note_on_c, 0, 80, 0
2, 30840, Note_on_c, 0, 66, 0
2, 30840, Note_on_c, 0, 66, 100
2, 30840, Note_on_c, 0, 78, 100
2, 30900, Note_on_c, 0, 78, 0
2, 30900, Note_on_c, 0, 76, 100
2, 30950, Note_on_c, 0, 66, 0
2, 30960, Note_on_c, 0, 76, 0
2, 30960, Note_on_c, 0, 66, 100
2, 30960, Note_on_c, 0, 75, 100
2, 30984, Note_on_c, 0, 64, 100
2, 30990, Note_on_c, 0, 66, 0
2, 31000, Note_on_c, 0, 66, 100
2, 31014, Note_on_c, 0, 64, 0
2, 31080, Note_on_c, 0, 75, 0
2, 31080, Note_on_c, 0, 78, 100
2, 31140, Note_on_c, 0, 78, 0
2, 31140, Note_on_c, 0, 76, 100
2, 31191, Note_on_c, 0, 66, 0
2, 31200, Note_on_c, 0, 76, 0
2, 31200, Note_on_c, 0, 69, 0
2, 31200, Note_on_c, 0, 66, 100
2, 31200, Note_on_c, 0, 69, 100
2, 31200, Note_on_c, 0, 78, 100
2, 31320, Note_on_c, 0, 78, 0
2, 31320, Note_on_c, 0, 69, 0
2, 31320, Note_on_c, 0, 66, 0
2, 31320, Note_on_c, 0, 68, 100
2, 31320, Note_on_c, 0, 73, 100
2, 31320, Note_on_c, 0, 66, 100
2, 31440, Note_on_c, 0, 66, 0
2, 31440, Note_on_c, 0, 68, 0
2, 31440, Note_on_c, 0, 72, 100
2, 31440, Note_on_c, 0, 68, 100
2, 31447, Note_on_c, 0, 73, 0
2, 31500, Note_on_c, 0, 66, 100
2, 31559, Note_on_c, 0, 72, 0
2, 31560, Note_on_c, 0, 66, 0
2, 31560, Note_on_c, 0, 75, 100
2, 31560, Note_on_c, 0, 64, 100
2, 31620, Note_on_c, 0, 64, 0
2, 31620, Note_on_c, 0, 63, 100
2, 31680, Note_on_c, 0, 63, 0
2, 31680, Note_on_c, 0, 75, 0
2, 31680, Note_on_c, 0, 68, 0
2, 31680, Note_on_c, 0, 80, 100
2, 31680, Note_on_c, 0, 64, 100
2, 31800, Note_on_c, 0, 64, 0
2, 31800, Note_on_c, 0, 64, 100
2, 31860, Note_on_c, 0, 64, 0
2, 31860, Note_on_c, 0, 63, 100
2, 31920, Note_on_c, 0, 63, 0
2, 31920, Note_on_c, 0, 64, 100
2, 31920, Note_on_c, 0, 68, 100
2, 32030, Note_on_c, 0, 64, 0
2, 32040, Note_on_c, 0, 68, 0
2, 32040, Note_on_c, 0, 64, 100
2, 32040, Note_on_c, 0, 73, 100
2, 32064, Note_on_c, 0, 63, 100
2, 32070, Note_on_c, 0, 64, 0
2, 32088, Note_on_c, 0, 64, 100
2, 32094, Note_on_c, 0, 63, 0
2, 32220, Note_on_c, 0, 80, 0
2, 32220, Note_on_c, 0, 80, 100
2, 32268, Note_on_c, 0, 64, 0
2, 32280, Note_on_c, 0, 80, 0
2, 32280, Note_on_c, 0, 64, 100
2, 32280, Note_on_c, 0, 82, 100
2, 32340, Note_on_c, 0, 82, 0
2, 32340, Note_on_c, 0, 83, 100
2, 32390, Note_on_c, 0, 83, 0
2, 32400, Note_on_c, 0, 64, 0
2, 32400, Note_on_c, 0, 83, 100
2, 32400, Note_on_c, 0, 64, 100
2, 32440, Note_on_c, 0, 82, 100
2, 32447, Note_on_c, 0, 83, 0
2, 32460, Note_on_c, 0, 83, 100
2, 32470, Note_on_c, 0, 82, 0
2, 32480, Note_on_c, 0, 82, 100
2, 32490, Note_on_c, 0, 83, 0
2, 32504, Note_on_c, 0, 83, 100
2, 32510, Note_on_c, 0, 82, 0
2, 32520, Note_on_c, 0, 64, 0
2, 32520, Note_on_c, 0, 66, 100
2, 32528, Note_on_c, 0, 82, 100
2, 32534, Note_on_c, 0, 83, 0
2, 32552, Note_on_c, 0, 83, 100
2, 32558, Note_on_c, 0, 82, 0
2, 32576, Note_on_c, 0, 82, 100
2, 32580, Note_on_c, 0, 66, 0
2, 32580, Note_on_c, 0, 64, 100
2, 32582, Note_on_c, 0, 83, 0
2, 32600, Note_on_c, 0, 83, 100
2, 32606, Note_on_c, 0, 82, 0
2, 32624, Note_on_c, 0, 82, 100
2, 32630, Note_on_c, 0, 83, 0
2, 32640, Note_on_c, 0, 64, 0
2, 32640, Note_on_c, 0, 62, 100
2, 32648, Note_on_c, 0, 83, 100
2, 32654, Note_on_c, 0, 82, 0
2, 32670, Note_on_c, 0, 82, 100
2, 32678, Note_on_c, 0, 83, 0
2, 32700, Note_on_c, 0, 82, 0
2, 32700, Note_on_c, 0, 62, 0
2, 32700, Note_on_c, 0, 80, 100
2, 32700, Note_on_c, 0, 61, 100
2, 32730, Note_on_c, 0, 80, 0
2, 32730, Note_on_c, 0, 82, 100
2, 32760, Note_on_c, 0, 82, 0
2, 32760, Note_on_c, 0, 61, 0
2, 32760, Note_on_c, 0, 73, 0
2, 32760, Note_on_c, 0, 83, 100
2, 32760, Note_on_c, 0, 62, 100
2, 32820, Note_on_c, 0, 62, 0
2, 32820, Note_on_c, 0, 61, 100
2, 32880, Note_on_c, 0, 61, 0
2, 32880, Note_on_c, 0, 62, 100
2, 32940, Note_on_c, 0, 83, 0
2, 32940, Note_on_c, 0, 81, 100
2, 33000, Note_on_c, 0, 81, 0
2, 33000, Note_on_c, 0, 62, 0
2, 33000, Note_on_c, 0, 80, 100
2, 33000, Note_on_c, 0, 66, 100
2, 33000, Note_on_c, 0, 62, 100
2, 33060, Note_on_c, 0, 80, 0
2, 33060, Note_on_c, 0, 78, 100
2, 33120, Note_on_c, 0, 78, 0
2, 33120, Note_on_c, 0, 62, 0
2, 33120, Note_on_c, 0, 66, 0
2, 33120, Note_on_c, 0, 62, 100
2, 33120, Note_on_c, 0, 78, 100
2, 33120, Note_on_c, 0, 71, 100
2, 33144, Note_on_c, 0, 61, 100
2, 33167, Note_on_c, 0, 62, 0
2, 33176, Note_on_c, 0, 62, 100
2, 33191, Note_on_c, 0, 61, 0
2, 33239, Note_on_c, 0, 78, 0
2, 33240, Note_on_c, 0, 80, 100
2, 33359, Note_on_c, 0, 62, 0
2, 33360, Note_on_c, 0, 71, 0
2, 33360, Note_on_c, 0, 68, 100
2, 33360, Note_on_c, 0, 62, 100
2, 33360, Note_on_c, 0, 77, 100
2, 33367, Note_on_c, 0, 80, 0
2, 33480, Note_on_c, 0, 68, 0
2, 33480, Note_on_c, 0, 62, 0
2, 33480, Note_on_c, 0, 77, 0
2, 33480, Note_on_c, 0, 61, 100
2, 33480, Note_on_c, 0, 77, 100
2, 33480, Note_on_c, 0, 69, 100
2, 33599, Note_on_c, 0, 77, 0
2, 33600, Note_on_c, 0, 78, 100
2, 33720, Note_on_c, 0, 69, 0
2, 33720, Note_on_c, 0, 61, 0
2, 33720, Note_on_c, 0, 80, 100
2, 33720, Note_on_c, 0, 71, 100
2, 33720, Note_on_c, 0, 59, 100
2, 33727, Note_on_c, 0, 78, 0
2, 33840, Note_on_c, 0, 80, 0
2, 33840, Note_on_c, 0, 71, 0
2, 33840, Note_on_c, 0, 59, 0
2, 33840, Note_on_c, 0, 78, 100
2, 33840, Note_on_c, 0, 68, 100
2, 33840, Note_on_c, 0, 61, 100
2, 33960, Note_on_c, 0, 77, 100
2, 33967, Note_on_c, 0, 78, 0
2, 34080, Note_on_c, 0, 68, 0
2, 34080, Note_on_c, 0, 71, 100
2, 34140, Note_on_c, 0, 71, 0
2, 34140, Note_on_c, 0, 73, 100
2, 34170, Note_on_c, 0, 73, 0
2, 34170, Note_on_c, 0, 74, 100
2, 34200, Note_on_c, 0, 74, 0
2, 34200, Note_on_c, 0, 61, 0
2, 34200, Note_on_c, 0, 49, 100
2, 34200, Note_on_c, 0, 74, 100
2, 34320, Note_on_c, 0, 74, 0
2, 34320, Note_on_c, 0, 73, 100
2, 34440, Note_on_c, 0, 73, 0
2, 34440, Note_on_c, 0, 71, 100
2, 34440, Note_on_c, 0, 78, 100
2, 34447, Note_on_c, 0, 77, 0
2, 34560, Note_on_c, 0, 49, 0
2, 34560, Note_on_c, 0, 71, 0
2, 34560, Note_on_c, 0, 78, 0
2, 34560, Note_on_c, 0, 78, 100
2, 34560, Note_on_c, 0, 69, 100
2, 34560, Note_on_c, 0, 42, 100
2, 34655, Note_on_c, 0, 42, 0
2, 34680, Note_on_c, 0, 45, 100
2, 34759, Note_on_c, 0, 45, 0
2, 34800, Note_on_c, 0, 49, 100
2, 34879, Note_on_c, 0, 49, 0
2, 34920, Note_on_c, 0, 69, 0
2, 34920, Note_on_c, 0, 54, 100
2, 35160, Note_on_c, 0, 78, 0
2, 35160, Note_on_c, 0, 61, 100
2, 35160, Note_on_c, 0, 78, 100
2, 35220, Note_on_c, 0, 78, 0
2, 35220, Note_on_c, 0, 80, 100
2, 35250, Note_on_c, 0, 80, 0
2, 35250, Note_on_c, 0, 81, 100
2, 35280, Note_on_c, 0, 81, 0
2, 35280, Note_on_c, 0, 61, 0
2, 35280, Note_on_c, 0, 66, 100
2, 35280, Note_on_c, 0, 76, 100
2, 35399, Note_on_c, 0, 76, 0
2, 35400, Note_on_c, 0, 74, 100
2, 35519, Note_on_c, 0, 74, 0
2, 35520, Note_on_c, 0, 66, 0
2, 35520, Note_on_c, 0, 69, 100
2, 35520, Note_on_c, 0, 73, 100
2, 35640, Note_on_c, 0, 73, 0
2, 35640, Note_on_c, 0, 69, 0
2, 35640, Note_on_c, 0, 73, 100
2, 35640, Note_on_c, 0, 68, 100
2, 35696, Note_on_c, 0, 71, 100
2, 35703, Note_on_c, 0, 73, 0
2, 35760, Note_on_c, 0, 54, 0
2, 35760, Note_on_c, 0, 52, 100
2, 35820, Note_on_c, 0, 74, 100
2, 35823, Note_on_c, 0, 71, 0
2, 35880, Note_on_c, 0, 74, 0
2, 35880, Note_on_c, 0, 52, 0
2, 35880, Note_on_c, 0, 73, 100
2, 35880, Note_on_c, 0, 50, 100
2, 35940, Note_on_c, 0, 73, 0
2, 35940, Note_on_c, 0, 71, 100
2, 36000, Note_on_c, 0, 71, 0
2, 36000, Note_on_c, 0, 50, 0
2, 36000, Note_on_c, 0, 50, 100
2, 36000, Note_on_c, 0, 80, 100
2, 36120, Note_on_c, 0, 52, 100
2, 36127, Note_on_c, 0, 50, 0
2, 36180, Note_on_c, 0, 68, 0
2, 36180, Note_on_c, 0, 68, 100
2, 36240, Note_on_c, 0, 68, 0
2, 36240, Note_on_c, 0, 69, 100
2, 36300, Note_on_c, 0, 69, 0
2, 36300, Note_on_c, 0, 71, 100
2, 36360, Note_on_c, 0, 71, 0
2, 36360, Note_on_c, 0, 73, 100
2, 36540, Note_on_c, 0, 45, 100
2, 36543, Note_on_c, 0, 52, 0
2, 36600, Note_on_c, 0, 80, 0
2, 36600, Note_on_c, 0, 73, 0
2, 36600, Note_on_c, 0, 45, 0
2, 36600, Note_on_c, 0, 73, 100
2, 36600, Note_on_c, 0, 81, 100
2, 36600, Note_on_c, 0, 47, 100
2, 36660, Note_on_c, 0, 47, 0
2, 36660, Note_on_c, 0, 49, 100
2, 36720, Note_on_c, 0, 49, 0
2, 36720, Note_on_c, 0, 81, 0
2, 36720, Note_on_c, 0, 73, 0
2, 36720, Note_on_c, 0, 80, 100
2, 36720, Note_on_c, 0, 73, 100
2, 36720, Note_on_c, 0, 50, 100
2, 36840, Note_on_c, 0, 78, 100
2, 36847, Note_on_c, 0, 80, 0
2, 36960, Note_on_c, 0, 73, 0
2, 36960, Note_on_c, 0, 66, 100
2, 37080, Note_on_c, 0, 66, 0
2, 37080, Note_on_c, 0, 71, 100
2, 37260, Note_on_c, 0, 50, 0
2, 37260, Note_on_c, 0, 81, 100
2, 37260, Note_on_c, 0, 49, 100
2, 37263, Note_on_c, 0, 78, 0
2, 37320, Note_on_c, 0, 49, 0
2, 37320, Note_on_c, 0, 81, 0
2, 37320, Note_on_c, 0, 80, 100
2, 37320, Note_on_c, 0, 47, 100
2, 37380, Note_on_c, 0, 47, 0
2, 37380, Note_on_c, 0, 80, 0
2, 37380, Note_on_c, 0, 78, 100
2, 37380, Note_on_c, 0, 45, 100
2, 37440, Note_on_c, 0, 45, 0
2, 37440, Note_on_c, 0, 78, 0
2, 37440, Note_on_c, 0, 78, 100
2, 37440, Note_on_c, 0, 44, 100
2, 37560, Note_on_c, 0, 78, 0
2, 37560, Note_on_c, 0, 77, 100
2, 37680, Note_on_c, 0, 77, 0
2, 37680, Note_on_c, 0, 44, 0
2, 37680, Note_on_c, 0, 71, 0
2, 37680, Note_on_c, 0, 47, 100
2, 37680, Note_on_c, 0, 71, 100
2, 37680, Note_on_c, 0, 80, 100
2, 37800, Note_on_c, 0, 80, 0
2, 37800, Note_on_c, 0, 71, 0
2, 37800, Note_on_c, 0, 47, 0
2, 37800, Note_on_c, 0, 74, 100
2, 37800, Note_on_c, 0, 71, 100
2, 37800, Note_on_c, 0, 41, 100
2, 37920, Note_on_c, 0, 73, 100
2, 37927, Note_on_c, 0, 74, 0
2, 38023, Note_on_c, 0, 73, 0
2, 38040, Note_on_c, 0, 41, 0
2, 38040, Note_on_c, 0, 71, 0
2, 38040, Note_on_c, 0, 77, 100
2, 38040, Note_on_c, 0, 73, 100
2, 38040, Note_on_c, 0, 37, 100
2, 38160, Note_on_c, 0, 37, 0
2, 38160, Note_on_c, 0, 73, 0
2, 38160, Note_on_c, 0, 77, 0
2, 38160, Note_on_c, 0, 71, 100
2, 38160, Note_on_c, 0, 78, 100
2, 38160, Note_on_c, 0, 42, 100
2, 38279, Note_on_c, 0, 71, 0
2, 38280, Note_on_c, 0, 69, 100
2, 38340, Note_on_c, 0, 42, 0
2, 38340, Note_on_c, 0, 49, 100
2, 38400, Note_on_c, 0, 49, 0
2, 38400, Note_on_c, 0, 78, 0
2, 38400, Note_on_c, 0, 81, 100
2, 38400, Note_on_c, 0, 51, 100
2, 38460, Note_on_c, 0, 51, 0
2, 38460, Note_on_c, 0, 52, 100
2, 38520, Note_on_c, 0, 52, 0
2, 38520, Note_on_c, 0, 81, 0
2, 38520, Note_on_c, 0, 75, 100
2, 38520, Note_on_c, 0, 54, 100
2, 38640, Note_on_c, 0, 75, 0
2, 38640, Note_on_c, 0, 76, 100
2, 38640, Note_on_c, 0, 68, 100
2, 38655, Note_on_c, 0, 69, 0
2, 38760, Note_on_c, 0, 54, 0
2, 38760, Note_on_c, 0, 76, 0
2, 38760, Note_on_c, 0, 68, 0
2, 38760, Note_on_c, 0, 54, 100
2, 38760, Note_on_c, 0, 69, 100
2, 38760, Note_on_c, 0, 78, 100
2, 38880, Note_on_c, 0, 78, 0
2, 38880, Note_on_c, 0, 69, 0
2, 38880, Note_on_c, 0, 54, 0
2, 38880, Note_on_c, 0, 73, 100
2, 38880, Note_on_c, 0, 68, 100
2, 38880, Note_on_c, 0, 54, 100
2, 39000, Note_on_c, 0, 54, 0
2, 39000, Note_on_c, 0, 72, 100
2, 39000, Note_on_c, 0, 56, 100
2, 39007, Note_on_c, 0, 73, 0
2, 39060, Note_on_c, 0, 56, 0
2, 39060, Note_on_c, 0, 54, 100
2, 39120, Note_on_c, 0, 54, 0
2, 39120, Note_on_c, 0, 68, 100
2, 39120, Note_on_c, 0, 52, 100
2, 39127, Note_on_c, 0, 72, 0
2, 39180, Note_on_c, 0, 52, 0
2, 39180, Note_on_c, 0, 51, 100
2, 39240, Note_on_c, 0, 51, 0
2, 39240, Note_on_c, 0, 68, 0
2, 39240, Note_on_c, 0, 68, 0
2, 39240, Note_on_c, 0, 73, 100
2, 39240, Note_on_c, 0, 52, 100
2, 39360, Note_on_c, 0, 52, 0
2, 39360, Note_on_c, 0, 54, 100
2, 39420, Note_on_c, 0, 54, 0
2, 39420, Note_on_c, 0, 52, 100
2, 39480, Note_on_c, 0, 52, 0
2, 39480, Note_on_c, 0, 68, 100
2, 39480, Note_on_c, 0, 51, 100
2, 39540, Note_on_c, 0, 51, 0
2, 39540, Note_on_c, 0, 49, 100
2, 39600, Note_on_c, 0, 49, 0
2, 39600, Note_on_c, 0, 68, 0
2, 39600, Note_on_c, 0, 69, 100
2, 39600, Note_on_c, 0, 54, 100
2, 39624, Note_on_c, 0, 68, 100
2, 39630, Note_on_c, 0, 69, 0
2, 39648, Note_on_c, 0, 69, 100
2, 39654, Note_on_c, 0, 68, 0
2, 39720, Note_on_c, 0, 54, 0
2, 39720, Note_on_c, 0, 57, 100
2, 39780, Note_on_c, 0, 57, 0
2, 39780, Note_on_c, 0, 56, 100
2, 39828, Note_on_c, 0, 69, 0
2, 39840, Note_on_c, 0, 56, 0
2, 39840, Note_on_c, 0, 64, 100
2, 39840, Note_on_c, 0, 57, 100
2, 39960, Note_on_c, 0, 57, 0
2, 39960, Note_on_c, 0, 64, 0
2, 39960, Note_on_c, 0, 66, 100
2, 39960, Note_on_c, 0, 51, 100
2, 40080, Note_on_c, 0, 51, 0
2, 40080, Note_on_c, 0, 52, 100
2, 40140, Note_on_c, 0, 73, 0
2, 40140, Note_on_c, 0, 76, 100
2, 40200, Note_on_c, 0, 76, 0
2, 40200, Note_on_c, 0, 52, 0
2, 40200, Note_on_c, 0, 75, 100
2, 40200, Note_on_c, 0, 54, 100
2, 40260, Note_on_c, 0, 75, 0
2, 40260, Note_on_c, 0, 73, 100
2, 40310, Note_on_c, 0, 73, 0
2, 40320, Note_on_c, 0, 54, 0
2, 40320, Note_on_c, 0, 73, 100
2, 40320, Note_on_c, 0, 56, 100
2, 40440, Note_on_c, 0, 72, 100
2, 40447, Note_on_c, 0, 73, 0
2, 40500, Note_on_c, 0, 66, 0
2, 40500, Note_on_c, 0, 69, 100
2, 40560, Note_on_c, 0, 69, 0
2, 40560, Note_on_c, 0, 56, 0
2, 40560, Note_on_c, 0, 68, 100
2, 40560, Note_on_c, 0, 51, 100
2, 40620, Note_on_c, 0, 68, 0
2, 40620, Note_on_c, 0, 66, 100
2, 40670, Note_on_c, 0, 66, 0
2, 40680, Note_on_c, 0, 51, 0
2, 40680, Note_on_c, 0, 66, 100
2, 40680, Note_on_c, 0, 48, 100
2, 40687, Note_on_c, 0, 72, 0
2, 40800, Note_on_c, 0, 75, 100
2, 40807, Note_on_c, 0, 66, 0
2, 40903, Note_on_c, 0, 75, 0
2, 40911, Note_on_c, 0, 48, 0
2, 40920, Note_on_c, 0, 44, 100
2, 40920, Note_on_c, 0, 66, 100
2, 41015, Note_on_c, 0, 66, 0
2, 41023, Note_on_c, 0, 44, 0
2, 41040, Note_on_c, 0, 64, 100
2, 41040, Note_on_c, 0, 49, 100
2, 41220, Note_on_c, 0, 49, 0
2, 41220, Note_on_c, 0, 56, 100
2, 41280, Note_on_c, 0, 56, 0
2, 41280, Note_on_c, 0, 58, 100
2, 41340, Note_on_c, 0, 58, 0
2, 41340, Note_on_c, 0, 60, 100
2, 41400, Note_on_c, 0, 60, 0
2, 41400, Note_on_c, 0, 61, 100
2, 41520, Note_on_c, 0, 61, 0
2, 41520, Note_on_c, 0, 63, 100
2, 41640, Note_on_c, 0, 63, 0
2, 41640, Note_on_c, 0, 68, 100
2, 41640, Note_on_c, 0, 59, 100
2, 41760, Note_on_c, 0, 59, 0
2, 41760, Note_on_c, 0, 68, 0
2, 41760, Note_on_c, 0, 73, 100
2, 41760, Note_on_c, 0, 57, 100
2, 41784, Note_on_c, 0, 72, 100
2, 41790, Note_on_c, 0, 73, 0
2, 41800, Note_on_c, 0, 73, 100
2, 41814, Note_on_c, 0, 72, 0
2, 41880, Note_on_c, 0, 57, 0
2, 41880, Note_on_c, 0, 59, 100
2, 41999, Note_on_c, 0, 73, 0
2, 42000, Note_on_c, 0, 59, 0
2, 42000, Note_on_c, 0, 64, 0
2, 42000, Note_on_c, 0, 76, 100
2, 42000, Note_on_c, 0, 56, 100
2, 42000, Note_on_c, 0, 73, 100
2, 42120, Note_on_c, 0, 73, 0
2, 42120, Note_on_c, 0, 56, 0
2, 42120, Note_on_c, 0, 76, 0
2, 42120, Note_on_c, 0, 76, 100
2, 42120, Note_on_c, 0, 73, 100
2, 42120, Note_on_c, 0, 54, 100
2, 42239, Note_on_c, 0, 76, 0
2, 42240, Note_on_c, 0, 75, 100
2, 42300, Note_on_c, 0, 54, 0
2, 42300, Note_on_c, 0, 51, 100
2, 42360, Note_on_c, 0, 51, 0
2, 42360, Note_on_c, 0, 52, 100
2, 42420, Note_on_c, 0, 52, 0
2, 42420, Note_on_c, 0, 54, 100
2, 42480, Note_on_c, 0, 54, 0
2, 42480, Note_on_c, 0, 73, 0
2, 42480, Note_on_c, 0, 72, 100
2, 42480, Note_on_c, 0, 56, 100
2, 42600, Note_on_c, 0, 56, 0
2, 42600, Note_on_c, 0, 57, 100
2, 42639, Note_on_c, 0, 75, 0
2, 42660, Note_on_c, 0, 75, 100
2, 42720, Note_on_c, 0, 75, 0
2, 42720, Note_on_c, 0, 57, 0
2, 42720, Note_on_c, 0, 54, 100
2, 42720, Note_on_c, 0, 76, 100
2, 42780, Note_on_c, 0, 76, 0
2, 42780, Note_on_c, 0, 78, 100
2, 42830, Note_on_c, 0, 54, 0
2, 42840, Note_on_c, 0, 78, 0
2, 42840, Note_on_c, 0, 72, 0
2, 42840, Note_on_c, 0, 54, 100
2, 42840, Note_on_c, 0, 80, 100
2, 42870, Note_on_c, 0, 53, 100
2, 42887, Note_on_c, 0, 54, 0
2, 42896, Note_on_c, 0, 54, 100
2, 42900, Note_on_c, 0, 53, 0
2, 42920, Note_on_c, 0, 53, 100
2, 42926, Note_on_c, 0, 54, 0
2, 42944, Note_on_c, 0, 54, 100
2, 42950, Note_on_c, 0, 53, 0
2, 42960, Note_on_c, 0, 71, 100
2, 42968, Note_on_c, 0, 53, 100
2, 42974, Note_on_c, 0, 54, 0
2, 42992, Note_on_c, 0, 54, 100
2, 42998, Note_on_c, 0, 53, 0
2, 43016, Note_on_c, 0, 53, 100
2, 43020, Note_on_c, 0, 71, 0
2, 43020, Note_on_c, 0, 70, 100
2, 43022, Note_on_c, 0, 54, 0
2, 43040, Note_on_c, 0, 54, 100
2, 43046, Note_on_c, 0, 53, 0
2, 43064, Note_on_c, 0, 53, 100
2, 43070, Note_on_c, 0, 54, 0
2, 43080, Note_on_c, 0, 70, 0
2, 43080, Note_on_c, 0, 80, 0
2, 43080, Note_on_c, 0, 71, 100
2, 43080, Note_on_c, 0, 80, 100
2, 43088, Note_on_c, 0, 54, 100
2, 43094, Note_on_c, 0, 53, 0
2, 43112, Note_on_c, 0, 53, 100
2, 43118, Note_on_c, 0, 54, 0
2, 43140, Note_on_c, 0, 51, 100
2, 43142, Note_on_c, 0, 53, 0
2, 43170, Note_on_c, 0, 51, 0
2, 43170, Note_on_c, 0, 53, 100
2, 43200, Note_on_c, 0, 53, 0
2, 43200, Note_on_c, 0, 80, 0
2, 43200, Note_on_c, 0, 71, 0
2, 43200, Note_on_c, 0, 81, 100
2, 43200, Note_on_c, 0, 71, 100
2, 43200, Note_on_c, 0, 54, 100
2, 43320, Note_on_c, 0, 80, 100
2, 43327, Note_on_c, 0, 81, 0
2, 43439, Note_on_c, 0, 80, 0
2, 43440, Note_on_c, 0, 73, 100
2, 43560, Note_on_c, 0, 73, 0
2, 43560, Note_on_c, 0, 71, 0
2, 43560, Note_on_c, 0, 78, 100
2, 43560, Note_on_c, 0, 70, 100
2, 43740, Note_on_c, 0, 70, 0
2, 43740, Note_on_c, 0, 71, 100
2, 43800, Note_on_c, 0, 71, 0
2, 43800, Note_on_c, 0, 54, 0
2, 43800, Note_on_c, 0, 70, 100
2, 43800, Note_on_c, 0, 52, 100
2, 43860, Note_on_c, 0, 70, 0
2, 43860, Note_on_c, 0, 68, 100
2, 43920, Note_on_c, 0, 68, 0
2, 43920, Note_on_c, 0, 52, 0
2, 43920, Note_on_c, 0, 69, 100
2, 43920, Note_on_c, 0, 51, 100
2, 44040, Note_on_c, 0, 51, 0
2, 44040, Note_on_c, 0, 52, 100
2, 44160, Note_on_c, 0, 52, 0
2, 44160, Note_on_c, 0, 69, 0
2, 44160, Note_on_c, 0, 78, 0
2, 44160, Note_on_c, 0, 49, 100
2, 44160, Note_on_c, 0, 69, 100
2, 44160, Note_on_c, 0, 78, 100
2, 44280, Note_on_c, 0, 78, 0
2, 44280, Note_on_c, 0, 69, 0
2, 44280, Note_on_c, 0, 49, 0
2, 44280, Note_on_c, 0, 78, 100
2, 44280, Note_on_c, 0, 69, 100
2, 44280, Note_on_c, 0, 48, 100
2, 44400, Note_on_c, 0, 69, 0
2, 44400, Note_on_c, 0, 68, 100
2, 44520, Note_on_c, 0, 68, 0
2, 44520, Note_on_c, 0, 48, 0
2, 44520, Note_on_c, 0, 78, 0
2, 44520, Note_on_c, 0, 80, 100
2, 44520, Note_on_c, 0, 72, 100
2, 44520, Note_on_c, 0, 44, 100
2, 44640, Note_on_c, 0, 44, 0
2, 44640, Note_on_c, 0, 72, 0
2, 44640, Note_on_c, 0, 80, 0
2, 44640, Note_on_c, 0, 78, 100
2, 44640, Note_on_c, 0, 73, 100
2, 44640, Note_on_c, 0, 49, 100
2, 44688, Note_on_c, 0, 76, 100
2, 44703, Note_on_c, 0, 78, 0
2, 44711, Note_on_c, 0, 76, 0
2, 44712, Note_on_c, 0, 78, 100
2, 44735, Note_on_c, 0, 78, 0
2, 44736, Note_on_c, 0, 76, 100
2, 44752, Note_on_c, 0, 78, 100
2, 44759, Note_on_c, 0, 76, 0
2, 44775, Note_on_c, 0, 78, 0
2, 44776, Note_on_c, 0, 76, 100
2, 45000, Note_on_c, 0, 49, 0
2, 45000, Note_on_c, 0, 37, 100
2, 45119, Note_on_c, 0, 76, 0
2, 45120, Note_on_c, 0, 73, 0
2, 45120, Note_on_c, 0, 75, 100
2, 45120, Note_on_c, 0, 72, 100
2, 45240, Note_on_c, 0, 72, 0
2, 45240, Note_on_c, 0, 75, 0
2, 45240, Note_on_c, 0, 73, 100
2, 45240, Note_on_c, 0, 76, 100
2, 45360, Note_on_c, 0, 76, 0
2, 45360, Note_on_c, 0, 73, 0
2, 45360, Note_on_c, 0, 37, 0
2, 45360, Note_on_c, 0, 76, 100
2, 45360, Note_on_c, 0, 72, 100
2, 45360, Note_on_c, 0, 44, 100
2, 45479, Note_on_c, 0, 76, 0
2, 45480, Note_on_c, 0, 44, 0
2, 45480, Note_on_c, 0, 75, 100
2, 45480, Note_on_c, 0, 48, 100
2, 45575, Note_on_c, 0, 48, 0
2, 45600, Note_on_c, 0, 51, 100
2, 45679, Note_on_c, 0, 51, 0
2, 45719, Note_on_c, 0, 75, 0
2, 45720, Note_on_c, 0, 72, 0
2, 45720, Note_on_c, 0, 56, 100
2, 45900, Note_on_c, 0, 56, 0
2, 45900, Note_on_c, 0, 57, 100
2, 45960, Note_on_c, 0, 57, 0
2, 45960, Note_on_c, 0, 75, 100
2, 45960, Note_on_c, 0, 56, 100
2, 46020, Note_on_c, 0, 56, 0
2, 46020, Note_on_c, 0, 54, 100
2, 46080, Note_on_c, 0, 54, 0
2, 46080, Note_on_c, 0, 75, 0
2, 46080, Note_on_c, 0, 75, 100
2, 46080, Note_on_c, 0, 56, 100
2, 46104, Note_on_c, 0, 54, 100
2, 46110, Note_on_c, 0, 56, 0
2, 46128, Note_on_c, 0, 56, 100
2, 46134, Note_on_c, 0, 54, 0
2, 46199, Note_on_c, 0, 75, 0
2, 46200, Note_on_c, 0, 76, 100
2, 46308, Note_on_c, 0, 56, 0
2, 46319, Note_on_c, 0, 76, 0
2, 46320, Note_on_c, 0, 68, 100
2, 46320, Note_on_c, 0, 72, 100
2, 46320, Note_on_c, 0, 56, 100
2, 46440, Note_on_c, 0, 56, 0
2, 46440, Note_on_c, 0, 72, 0
2, 46440, Note_on_c, 0, 68, 0
2, 46440, Note_on_c, 0, 72, 100
2, 46440, Note_on_c, 0, 69, 100
2, 46440, Note_on_c, 0, 56, 100
2, 46559, Note_on_c, 0, 72, 0
2, 46560, Note_on_c, 0, 73, 100
2, 46620, Note_on_c, 0, 56, 0
2, 46620, Note_on_c, 0, 49, 100
2, 46680, Note_on_c, 0, 49, 0
2, 46680, Note_on_c, 0, 51, 100
2, 46740, Note_on_c, 0, 51, 0
2, 46740, Note_on_c, 0, 53, 100
2, 46800, Note_on_c, 0, 53, 0
2, 46800, Note_on_c, 0, 69, 0
2, 46800, Note_on_c, 0, 54, 100
2, 46832, Note_on_c, 0, 53, 100
2, 46839, Note_on_c, 0, 54, 0
2, 46848, Note_on_c, 0, 54, 100
2, 46855, Note_on_c, 0, 53, 0
2, 46980, Note_on_c, 0, 76, 100
2, 46980, Note_on_c, 0, 56, 100
2, 46983, Note_on_c, 0, 54, 0
2, 46983, Note_on_c, 0, 73, 0
2, 47040, Note_on_c, 0, 76, 0
2, 47040, Note_on_c, 0, 56, 0
2, 47040, Note_on_c, 0, 75, 100
2, 47040, Note_on_c, 0, 54, 100
2, 47100, Note_on_c, 0, 54, 0
2, 47100, Note_on_c, 0, 75, 0
2, 47100, Note_on_c, 0, 73, 100
2, 47100, Note_on_c, 0, 52, 100
2, 47150, Note_on_c, 0, 73, 0
2, 47160, Note_on_c, 0, 52, 0
2, 47160, Note_on_c, 0, 54, 100
2, 47160, Note_on_c, 0, 73, 100
2, 47184, Note_on_c, 0, 52, 100
2, 47190, Note_on_c, 0, 54, 0
2, 47200, Note_on_c, 0, 54, 100
2, 47214, Note_on_c, 0, 52, 0
2, 47279, Note_on_c, 0, 73, 0
2, 47280, Note_on_c, 0, 81, 100
2, 47380, Note_on_c, 0, 54, 0
2, 47399, Note_on_c, 0, 81, 0
2, 47400, Note_on_c, 0, 69, 100
2, 47400, Note_on_c, 0, 54, 100
2, 47400, Note_on_c, 0, 73, 100
2, 47520, Note_on_c, 0, 73, 0
2, 47520, Note_on_c, 0, 54, 0
2, 47520, Note_on_c, 0, 69, 0
2, 47520, Note_on_c, 0, 68, 100
2, 47520, Note_on_c, 0, 73, 100
2, 47520, Note_on_c, 0, 54, 100
2, 47639, Note_on_c, 0, 73, 0
2, 47640, Note_on_c, 0, 72, 100
2, 47700, Note_on_c, 0, 54, 0
2, 47700, Note_on_c, 0, 48, 100
2, 47759, Note_on_c, 0, 72, 0
2, 47759, Note_on_c, 0, 68, 0
2, 47760, Note_on_c, 0, 48, 0
2, 47760, Note_on_c, 0, 68, 100
2, 47760, Note_on_c, 0, 49, 100
2, 47820, Note_on_c, 0, 49, 0
2, 47820, Note_on_c, 0, 51, 100
2, 47880, Note_on_c, 0, 51, 0
2, 47880, Note_on_c, 0, 80, 100
2, 47880, Note_on_c, 0, 52, 100
2, 47887, Note_on_c, 0, 68, 0
2, 48060, Note_on_c, 0, 52, 0
2, 48060, Note_on_c, 0, 54, 100
2, 48120, Note_on_c, 0, 54, 0
2, 48120, Note_on_c, 0, 68, 100
2, 48120, Note_on_c, 0, 52, 100
2, 48180, Note_on_c, 0, 52, 0
2, 48180, Note_on_c, 0, 51, 100
2, 48240, Note_on_c, 0, 51, 0
2, 48240, Note_on_c, 0, 68, 0
2, 48240, Note_on_c, 0, 73, 100
2, 48240, Note_on_c, 0, 52, 100
2, 48300, Note_on_c, 0, 73, 0
2, 48300, Note_on_c, 0, 75, 100
2, 48360, Note_on_c, 0, 75, 0
2, 48360, Note_on_c, 0, 76, 100
2, 48480, Note_on_c, 0, 76, 0
2, 48480, Note_on_c, 0, 52, 0
2, 48480, Note_on_c, 0, 80, 0
2, 48480, Note_on_c, 0, 73, 100
2, 48480, Note_on_c, 0, 80, 100
2, 48480, Note_on_c, 0, 52, 100
2, 48600, Note_on_c, 0, 52, 0
2, 48600, Note_on_c, 0, 80, 0
2, 48600, Note_on_c, 0, 73, 0
2, 48600, Note_on_c, 0, 71, 100
2, 48600, Note_on_c, 0, 80, 100
2, 48600, Note_on_c, 0, 52, 100
2, 48719, Note_on_c, 0, 71, 0
2, 48720, Note_on_c, 0, 70, 100
2, 48780, Note_on_c, 0, 52, 0
2, 48780, Note_on_c, 0, 46, 100
2, 48840, Note_on_c, 0, 46, 0
2, 48840, Note_on_c, 0, 48, 100
2, 48900, Note_on_c, 0, 48, 0
2, 48900, Note_on_c, 0, 49, 100
2, 48960, Note_on_c, 0, 49, 0
2, 48960, Note_on_c, 0, 80, 0
2, 48960, Note_on_c, 0, 79, 100
2, 48960, Note_on_c, 0, 51, 100
2, 49140, Note_on_c, 0, 51, 0
2, 49140, Note_on_c, 0, 73, 100
2, 49140, Note_on_c, 0, 52, 100
2, 49143, Note_on_c, 0, 70, 0
2, 49200, Note_on_c, 0, 52, 0
2, 49200, Note_on_c, 0, 73, 0
2, 49200, Note_on_c, 0, 71, 100
2, 49200, Note_on_c, 0, 51, 100
2, 49260, Note_on_c, 0, 51, 0
2, 49260, Note_on_c, 0, 71, 0
2, 49260, Note_on_c, 0, 70, 100
2, 49260, Note_on_c, 0, 49, 100
2, 49320, Note_on_c, 0, 49, 0
2, 49320, Note_on_c, 0, 70, 0
2, 49320, Note_on_c, 0, 79, 0
2, 49320, Note_on_c, 0, 72, 100
2, 49320, Note_on_c, 0, 51, 100
2, 49440, Note_on_c, 0, 72, 0
2, 49440, Note_on_c, 0, 73, 100
2, 49560, Note_on_c, 0, 73, 0
2, 49560, Note_on_c, 0, 51, 0
2, 49560, Note_on_c, 0, 78, 100
2, 49560, Note_on_c, 0, 51, 100
2, 49560, Note_on_c, 0, 75, 100
2, 49680, Note_on_c, 0, 75, 0
2, 49680, Note_on_c, 0, 51, 0
2, 49680, Note_on_c, 0, 78, 0
2, 49680, Note_on_c, 0, 78, 100
2, 49680, Note_on_c, 0, 68, 100
2, 49680, Note_on_c, 0, 51, 100
2, 49736, Note_on_c, 0, 77, 100
2, 49743, Note_on_c, 0, 78, 0
2, 49860, Note_on_c, 0, 51, 0
2, 49860, Note_on_c, 0, 75, 100
2, 49860, Note_on_c, 0, 44, 100
2, 49863, Note_on_c, 0, 77, 0
2, 49920, Note_on_c, 0, 44, 0
2, 49920, Note_on_c, 0, 75, 0
2, 49920, Note_on_c, 0, 73, 100
2, 49920, Note_on_c, 0, 46, 100
2, 49980, Note_on_c, 0, 46, 0
2, 49980, Note_on_c, 0, 73, 0
2, 49980, Note_on_c, 0, 75, 100
2, 49980, Note_on_c, 0, 48, 100
2, 50040, Note_on_c, 0, 48, 0
2, 50040, Note_on_c, 0, 75, 0
2, 50040, Note_on_c, 0, 75, 100
2, 50040, Note_on_c, 0, 49, 100
2, 50160, Note_on_c, 0, 76, 100
2, 50167, Note_on_c, 0, 75, 0
2, 50220, Note_on_c, 0, 68, 0
2, 50220, Note_on_c, 0, 49, 0
2, 50220, Note_on_c, 0, 64, 100
2, 50220, Note_on_c, 0, 51, 100
2, 50280, Note_on_c, 0, 51, 0
2, 50280, Note_on_c, 0, 64, 0
2, 50280, Note_on_c, 0, 66, 100
2, 50280, Note_on_c, 0, 49, 100
2, 50340, Note_on_c, 0, 49, 0
2, 50340, Note_on_c, 0, 66, 0
2, 50340, Note_on_c, 0, 68, 100
2, 50340, Note_on_c, 0, 48, 100
2, 50400, Note_on_c, 0, 48, 0
2, 50400, Note_on_c, 0, 68, 0
2, 50400, Note_on_c, 0, 69, 100
2, 50400, Note_on_c, 0, 49, 100
2, 50520, Note_on_c, 0, 49, 0
2, 50520, Note_on_c, 0, 69, 0
2, 50520, Note_on_c, 0, 73, 100
2, 50520, Note_on_c, 0, 51, 100
2, 50580, Note_on_c, 0, 73, 0
2, 50580, Note_on_c, 0, 72, 100
2, 50640, Note_on_c, 0, 72, 0
2, 50640, Note_on_c, 0, 51, 0
2, 50640, Note_on_c, 0, 52, 100
2, 50640, Note_on_c, 0, 73, 100
2, 50760, Note_on_c, 0, 73, 0
2, 50760, Note_on_c, 0, 52, 0
2, 50760, Note_on_c, 0, 66, 100
2, 50760, Note_on_c, 0, 45, 100
2, 50879, Note_on_c, 0, 76, 0
2, 50880, Note_on_c, 0, 75, 100
2, 51000, Note_on_c, 0, 75, 0
2, 51000, Note_on_c, 0, 45, 0
2, 51000, Note_on_c, 0, 57, 100
2, 51000, Note_on_c, 0, 73, 100
2, 51110, Note_on_c, 0, 57, 0
2, 51120, Note_on_c, 0, 73, 0
2, 51120, Note_on_c, 0, 73, 100
2, 51120, Note_on_c, 0, 57, 100
2, 51144, Note_on_c, 0, 56, 100
2, 51150, Note_on_c, 0, 57, 0
2, 51160, Note_on_c, 0, 57, 100
2, 51174, Note_on_c, 0, 56, 0
2, 51240, Note_on_c, 0, 72, 100
2, 51247, Note_on_c, 0, 73, 0
2, 51280, Note_on_c, 0, 57, 0
2, 51300, Note_on_c, 0, 51, 100
2, 51360, Note_on_c, 0, 51, 0
2, 51360, Note_on_c, 0, 66, 0
2, 51360, Note_on_c, 0, 68, 100
2, 51360, Note_on_c, 0, 52, 100
2, 51420, Note_on_c, 0, 52, 0
2, 51420, Note_on_c, 0, 54, 100
2, 51480, Note_on_c, 0, 54, 0
2, 51480, Note_on_c, 0, 68, 0
2, 51480, Note_on_c, 0, 71, 100
2, 51480, Note_on_c, 0, 66, 100
2, 51480, Note_on_c, 0, 56, 100
2, 51487, Note_on_c, 0, 72, 0
2, 51600, Note_on_c, 0, 66, 0
2, 51600, Note_on_c, 0, 65, 100
2, 51720, Note_on_c, 0, 65, 0
2, 51720, Note_on_c, 0, 56, 0
2, 51720, Note_on_c, 0, 56, 100
2, 51720, Note_on_c, 0, 63, 100
2, 51840, Note_on_c, 0, 63, 0
2, 51840, Note_on_c, 0, 56, 0
2, 51840, Note_on_c, 0, 56, 100
2, 51848, Note_on_c, 0, 63, 100
2, 51960, Note_on_c, 0, 65, 100
2, 51967, Note_on_c, 0, 63, 0
2, 52080, Note_on_c, 0, 71, 0
2, 52080, Note_on_c, 0, 56, 0
2, 52080, Note_on_c, 0, 73, 100
2, 52080, Note_on_c, 0, 49, 100
2, 52200, Note_on_c, 0, 49, 0
2, 52200, Note_on_c, 0, 73, 0
2, 52200, Note_on_c, 0, 71, 100
2, 52200, Note_on_c, 0, 66, 100
2, 52200, Note_on_c, 0, 54, 100
2, 52207, Note_on_c, 0, 65, 0
2, 52260, Note_on_c, 0, 54, 0
2, 52260, Note_on_c, 0, 53, 100
2, 52320, Note_on_c, 0, 53, 0
2, 52320, Note_on_c, 0, 71, 0
2, 52320, Note_on_c, 0, 69, 100
2, 52320, Note_on_c, 0, 54, 100
2, 52440, Note_on_c, 0, 54, 0
2, 52440, Note_on_c, 0, 69, 0
2, 52440, Note_on_c, 0, 66, 0
2, 52440, Note_on_c, 0, 68, 100
2, 52440, Note_on_c, 0, 64, 100
2, 52440, Note_on_c, 0, 54, 100
2, 52550, Note_on_c, 0, 64, 0
2, 52550, Note_on_c, 0, 68, 0
2, 52560, Note_on_c, 0, 54, 0
2, 52560, Note_on_c, 0, 64, 100
2, 52560, Note_on_c, 0, 68, 100
2, 52560, Note_on_c, 0, 54, 100
2, 52679, Note_on_c, 0, 68, 0
2, 52679, Note_on_c, 0, 64, 0
2, 52680, Note_on_c, 0, 63, 100
2, 52680, Note_on_c, 0, 66, 100
2, 52799, Note_on_c, 0, 66, 0
2, 52800, Note_on_c, 0, 54, 0
2, 52800, Note_on_c, 0, 64, 100
2, 52800, Note_on_c, 0, 54, 100
2, 52800, Note_on_c, 0, 61, 100
2, 52807, Note_on_c, 0, 63, 0
2, 52920, Note_on_c, 0, 64, 0
2, 52920, Note_on_c, 0, 54, 0
2, 52920, Note_on_c, 0, 61, 0
2, 52920, Note_on_c, 0, 64, 100
2, 52920, Note_on_c, 0, 60, 100
2, 52920, Note_on_c, 0, 54, 100
2, 53039, Note_on_c, 0, 64, 0
2, 53040, Note_on_c, 0, 54, 0
2, 53040, Note_on_c, 0, 63, 100
2, 53040, Note_on_c, 0, 56, 100
2, 53100, Note_on_c, 0, 56, 0
2, 53100, Note_on_c, 0, 68, 100
2, 53100, Note_on_c, 0, 54, 100
2, 53103, Note_on_c, 0, 63, 0
2, 53160, Note_on_c, 0, 54, 0
2, 53160, Note_on_c, 0, 68, 0
2, 53160, Note_on_c, 0, 72, 100
2, 53160, Note_on_c, 0, 52, 100
2, 53220, Note_on_c, 0, 52, 0
2, 53220, Note_on_c, 0, 72, 0
2, 53220, Note_on_c, 0, 75, 100
2, 53220, Note_on_c, 0, 51, 100
2, 53280, Note_on_c, 0, 51, 0
2, 53280, Note_on_c, 0, 75, 0
2, 53280, Note_on_c, 0, 60, 0
2, 53280, Note_on_c, 0, 54, 100
2, 53280, Note_on_c, 0, 80, 100
2, 53320, Note_on_c, 0, 52, 100
2, 53327, Note_on_c, 0, 54, 0
2, 53340, Note_on_c, 0, 80, 0
2, 53340, Note_on_c, 0, 54, 100
2, 53340, Note_on_c, 0, 78, 100
2, 53350, Note_on_c, 0, 52, 0
2, 53360, Note_on_c, 0, 52, 100
2, 53370, Note_on_c, 0, 54, 0
2, 53384, Note_on_c, 0, 54, 100
2, 53390, Note_on_c, 0, 52, 0
2, 53400, Note_on_c, 0, 78, 0
2, 53400, Note_on_c, 0, 80, 100
2, 53408, Note_on_c, 0, 52, 100
2, 53414, Note_on_c, 0, 54, 0
2, 53432, Note_on_c, 0, 54, 100
2, 53438, Note_on_c, 0, 52, 0
2, 53456, Note_on_c, 0, 52, 100
2, 53462, Note_on_c, 0, 54, 0
2, 53480, Note_on_c, 0, 54, 100
2, 53486, Note_on_c, 0, 52, 0
2, 53504, Note_on_c, 0, 52, 100
2, 53510, Note_on_c, 0, 54, 0
2, 53520, Note_on_c, 0, 80, 0
2, 53520, Note_on_c, 0, 80, 100
2, 53528, Note_on_c, 0, 54, 100
2, 53534, Note_on_c, 0, 52, 0
2, 53552, Note_on_c, 0, 52, 100
2, 53558, Note_on_c, 0, 54, 0
2, 53576, Note_on_c, 0, 54, 100
2, 53582, Note_on_c, 0, 52, 0
2, 53600, Note_on_c, 0, 52, 100
2, 53606, Note_on_c, 0, 54, 0
2, 53624, Note_on_c, 0, 54, 100
2, 53630, Note_on_c, 0, 52, 0
2, 53640, Note_on_c, 0, 80, 0
2, 53640, Note_on_c, 0, 80, 100
2, 53648, Note_on_c, 0, 52, 100
2, 53654, Note_on_c, 0, 54, 0
2, 53672, Note_on_c, 0, 54, 100
2, 53678, Note_on_c, 0, 52, 0
2, 53696, Note_on_c, 0, 52, 100
2, 53702, Note_on_c, 0, 54, 0
2, 53720, Note_on_c, 0, 54, 100
2, 53726, Note_on_c, 0, 52, 0
2, 53744, Note_on_c, 0, 52, 100
2, 53750, Note_on_c, 0, 54, 0
2, 53768, Note_on_c, 0, 54, 100
2, 53774, Note_on_c, 0, 52, 0
2, 53790, Note_on_c, 0, 52, 100
2, 53798, Note_on_c, 0, 54, 0
2, 53820, Note_on_c, 0, 52, 0
2, 53820, Note_on_c, 0, 54, 100
2, 53850, Note_on_c, 0, 54, 0
2, 53850, Note_on_c, 0, 52, 100
2, 53880, Note_on_c, 0, 52, 0
2, 53880, Note_on_c, 0, 80, 0
2, 53880, Note_on_c, 0, 80, 100
2, 53880, Note_on_c, 0, 51, 100
2, 53940, Note_on_c, 0, 51, 0
2, 53940, Note_on_c, 0, 52, 100
2, 54000, Note_on_c, 0, 52, 0
2, 54000, Note_on_c, 0, 80, 0
2, 54000, Note_on_c, 0, 80, 100
2, 54000, Note_on_c, 0, 51, 100
2, 54120, Note_on_c, 0, 51, 0
2, 54120, Note_on_c, 0, 80, 0
2, 54120, Note_on_c, 0, 81, 100
2, 54180, Note_on_c, 0, 81, 0
2, 54180, Note_on_c, 0, 80, 100
2, 54180, Note_on_c, 0, 63, 100
2, 54240, Note_on_c, 0, 63, 0
2, 54240, Note_on_c, 0, 80, 0
2, 54240, Note_on_c, 0, 78, 100
2, 54240, Note_on_c, 0, 66, 100
2, 54300, Note_on_c, 0, 66, 0
2, 54300, Note_on_c, 0, 78, 0
2, 54300, Note_on_c, 0, 76, 100
2, 54300, Note_on_c, 0, 70, 100
2, 54360, Note_on_c, 0, 70, 0
2, 54360, Note_on_c, 0, 76, 0
2, 54360, Note_on_c, 0, 78, 100
2, 54360, Note_on_c, 0, 75, 100
2, 54420, Note_on_c, 0, 75, 0
2, 54420, Note_on_c, 0, 73, 100
2, 54480, Note_on_c, 0, 73, 0
2, 54480, Note_on_c, 0, 75, 100
2, 54540, Note_on_c, 0, 52, 100
2, 54600, Note_on_c, 0, 52, 0
2, 54600, Note_on_c, 0, 75, 0
2, 54600, Note_on_c, 0, 78, 0
2, 54600, Note_on_c, 0, 78, 100
2, 54600, Note_on_c, 0, 75, 100
2, 54600, Note_on_c, 0, 51, 100
2, 54660, Note_on_c, 0, 51, 0
2, 54660, Note_on_c, 0, 49, 100
2, 54720, Note_on_c, 0, 49, 0
2, 54720, Note_on_c, 0, 75, 0
2, 54720, Note_on_c, 0, 78, 0
2, 54720, Note_on_c, 0, 78, 100
2, 54720, Note_on_c, 0, 75, 100
2, 54720, Note_on_c, 0, 48, 100
2, 54780, Note_on_c, 0, 48, 0
2, 54780, Note_on_c, 0, 49, 100
2, 54840, Note_on_c, 0, 49, 0
2, 54840, Note_on_c, 0, 51, 100
2, 54960, Note_on_c, 0, 51, 0
2, 54960, Note_on_c, 0, 75, 0
2, 54960, Note_on_c, 0, 78, 0
2, 54960, Note_on_c, 0, 44, 100
2, 54960, Note_on_c, 0, 75, 100
2, 54960, Note_on_c, 0, 78, 100
2, 55080, Note_on_c, 0, 78, 0
2, 55080, Note_on_c, 0, 75, 0
2, 55080, Note_on_c, 0, 44, 0
2, 55080, Note_on_c, 0, 75, 100
2, 55080, Note_on_c, 0, 78, 100
2, 55080, Note_on_c, 0, 49, 100
2, 55200, Note_on_c, 0, 75, 0
2, 55200, Note_on_c, 0, 76, 100
2, 55260, Note_on_c, 0, 76, 0
2, 55260, Note_on_c, 0, 49, 0
2, 55260, Note_on_c, 0, 75, 100
2, 55260, Note_on_c, 0, 51, 100
2, 55320, Note_on_c, 0, 51, 0
2, 55320, Note_on_c, 0, 75, 0
2, 55320, Note_on_c, 0, 73, 100
2, 55320, Note_on_c, 0, 52, 100
2, 55380, Note_on_c, 0, 52, 0
2, 55380, Note_on_c, 0, 73, 0
2, 55380, Note_on_c, 0, 72, 100
2, 55380, Note_on_c, 0, 56, 100
2, 55440, Note_on_c, 0, 56, 0
2, 55440, Note_on_c, 0, 72, 0
2, 55440, Note_on_c, 0, 78, 0
2, 55440, Note_on_c, 0, 76, 100
2, 55440, Note_on_c, 0, 73, 100
2, 55440, Note_on_c, 0, 61, 100
2, 55500, Note_on_c, 0, 61, 0
2, 55500, Note_on_c, 0, 60, 100
2, 55560, Note_on_c, 0, 60, 0
2, 55560, Note_on_c, 0, 73, 0
2, 55560, Note_on_c, 0, 76, 0
2, 55560, Note_on_c, 0, 78, 100
2, 55560, Note_on_c, 0, 75, 100
2, 55560, Note_on_c, 0, 61, 100
2, 55680, Note_on_c, 0, 61, 0
2, 55680, Note_on_c, 0, 75, 0
2, 55680, Note_on_c, 0, 78, 0
2, 55680, Note_on_c, 0, 80, 100
2, 55680, Note_on_c, 0, 76, 100
2, 55680, Note_on_c, 0, 61, 100
2, 55800, Note_on_c, 0, 61, 0
2, 55800, Note_on_c, 0, 76, 0
2, 55800, Note_on_c, 0, 80, 0
2, 55800, Note_on_c, 0, 73, 100
2, 55800, Note_on_c, 0, 70, 100
2, 55800, Note_on_c, 0, 61, 100
2, 55920, Note_on_c, 0, 70, 0
2, 55920, Note_on_c, 0, 73, 0
2, 55920, Note_on_c, 0, 75, 100
2, 55920, Note_on_c, 0, 71, 100
2, 56040, Note_on_c, 0, 71, 0
2, 56040, Note_on_c, 0, 75, 0
2, 56040, Note_on_c, 0, 61, 0
2, 56040, Note_on_c, 0, 61, 100
2, 56040, Note_on_c, 0, 73, 100
2, 56040, Note_on_c, 0, 76, 100
2, 56160, Note_on_c, 0, 76, 0
2, 56160, Note_on_c, 0, 73, 0
2, 56160, Note_on_c, 0, 61, 0
2, 56160, Note_on_c, 0, 71, 100
2, 56160, Note_on_c, 0, 67, 100
2, 56160, Note_on_c, 0, 61, 100
2, 56279, Note_on_c, 0, 71, 0
2, 56280, Note_on_c, 0, 61, 0
2, 56280, Note_on_c, 0, 70, 100
2, 56280, Note_on_c, 0, 63, 100
2, 56340, Note_on_c, 0, 63, 0
2, 56340, Note_on_c, 0, 61, 100
2, 56400, Note_on_c, 0, 61, 0
2, 56400, Note_on_c, 0, 63, 100
2, 56400, Note_on_c, 0, 59, 100
2, 56407, Note_on_c, 0, 70, 0
2, 56460, Note_on_c, 0, 59, 0
2, 56460, Note_on_c, 0, 58, 100
2, 56520, Note_on_c, 0, 58, 0
2, 56520, Note_on_c, 0, 63, 0
2, 56520, Note_on_c, 0, 67, 0
2, 56520, Note_on_c, 0, 75, 100
2, 56520, Note_on_c, 0, 59, 100
2, 56580, Note_on_c, 0, 75, 0
2, 56580, Note_on_c, 0, 73, 100
2, 56640, Note_on_c, 0, 73, 0
2, 56640, Note_on_c, 0, 59, 0
2, 56640, Note_on_c, 0, 75, 100
2, 56640, Note_on_c, 0, 59, 100
2, 56700, Note_on_c, 0, 59, 0
2, 56700, Note_on_c, 0, 58, 100
2, 56760, Note_on_c, 0, 58, 0
2, 56760, Note_on_c, 0, 63, 100
2, 56760, Note_on_c, 0, 59, 100
2, 56880, Note_on_c, 0, 59, 0
2, 56880, Note_on_c, 0, 63, 0
2, 56880, Note_on_c, 0, 68, 100
2, 56880, Note_on_c, 0, 59, 100
2, 57060, Note_on_c, 0, 75, 0
2, 57060, Note_on_c, 0, 75, 100
2, 57120, Note_on_c, 0, 75, 0
2, 57120, Note_on_c, 0, 59, 0
2, 57120, Note_on_c, 0, 59, 100
2, 57120, Note_on_c, 0, 77, 100
2, 57180, Note_on_c, 0, 77, 0
2, 57180, Note_on_c, 0, 78, 100
2, 57230, Note_on_c, 0, 78, 0
2, 57240, Note_on_c, 0, 59, 0
2, 57240, Note_on_c, 0, 78, 100
2, 57240, Note_on_c, 0, 59, 100
2, 57272, Note_on_c, 0, 77, 100
2, 57287, Note_on_c, 0, 78, 0
2, 57296, Note_on_c, 0, 78, 100
2, 57302, Note_on_c, 0, 77, 0
2, 57312, Note_on_c, 0, 77, 100
2, 57326, Note_on_c, 0, 78, 0
2, 57336, Note_on_c, 0, 78, 100
2, 57342, Note_on_c, 0, 77, 0
2, 57360, Note_on_c, 0, 59, 0
2, 57360, Note_on_c, 0, 77, 100
2, 57360, Note_on_c, 0, 61, 100
2, 57366, Note_on_c, 0, 78, 0
2, 57384, Note_on_c, 0, 78, 100
2, 57390, Note_on_c, 0, 77, 0
2, 57408, Note_on_c, 0, 77, 100
2, 57414, Note_on_c, 0, 78, 0
2, 57420, Note_on_c, 0, 61, 0
2, 57420, Note_on_c, 0, 59, 100
2, 57432, Note_on_c, 0, 78, 100
2, 57438, Note_on_c, 0, 77, 0
2, 57456, Note_on_c, 0, 77, 100
2, 57462, Note_on_c, 0, 78, 0
2, 57480, Note_on_c, 0, 59, 0
2, 57480, Note_on_c, 0, 78, 100
2, 57480, Note_on_c, 0, 57, 100
2, 57486, Note_on_c, 0, 77, 0
2, 57504, Note_on_c, 0, 77, 100
2, 57510, Note_on_c, 0, 78, 0
2, 57534, Note_on_c, 0, 77, 0
2, 57540, Note_on_c, 0, 57, 0
2, 57540, Note_on_c, 0, 75, 100
2, 57540, Note_on_c, 0, 56, 100
2, 57570, Note_on_c, 0, 75, 0
2, 57570, Note_on_c, 0, 77, 100
2, 57600, Note_on_c, 0, 77, 0
2, 57600, Note_on_c, 0, 56, 0
2, 57600, Note_on_c, 0, 57, 100
2, 57600, Note_on_c, 0, 61, 100
2, 57600, Note_on_c, 0, 78, 100
2, 57660, Note_on_c, 0, 57, 0
2, 57660, Note_on_c, 0, 54, 100
2, 57720, Note_on_c, 0, 54, 0
2, 57720, Note_on_c, 0, 61, 0
2, 57720, Note_on_c, 0, 56, 100
2, 57780, Note_on_c, 0, 56, 0
2, 57780, Note_on_c, 0, 78, 0
2, 57780, Note_on_c, 0, 76, 100
2, 57780, Note_on_c, 0, 57, 100
2, 57840, Note_on_c, 0, 57, 0
2, 57840, Note_on_c, 0, 76, 0
2, 57840, Note_on_c, 0, 74, 100
2, 57840, Note_on_c, 0, 59, 100
2, 57900, Note_on_c, 0, 59, 0
2, 57900, Note_on_c, 0, 74, 0
2, 57900, Note_on_c, 0, 73, 100
2, 57900, Note_on_c, 0, 61, 100
2, 57960, Note_on_c, 0, 61, 0
2, 57960, Note_on_c, 0, 73, 0
2, 57960, Note_on_c, 0, 68, 0
2, 57960, Note_on_c, 0, 71, 100
2, 57960, Note_on_c, 0, 62, 100
2, 58020, Note_on_c, 0, 62, 0
2, 58020, Note_on_c, 0, 61, 100
2, 58080, Note_on_c, 0, 61, 0
2, 58080, Note_on_c, 0, 62, 100
2, 58140, Note_on_c, 0, 69, 100
2, 58200, Note_on_c, 0, 69, 0
2, 58200, Note_on_c, 0, 62, 0
2, 58200, Note_on_c, 0, 59, 100
2, 58200, Note_on_c, 0, 68, 100
2, 58260, Note_on_c, 0, 68, 0
2, 58260, Note_on_c, 0, 66, 100
2, 58320, Note_on_c, 0, 66, 0
2, 58320, Note_on_c, 0, 59, 0
2, 58320, Note_on_c, 0, 54, 100
2, 58320, Note_on_c, 0, 68, 100
2, 58439, Note_on_c, 0, 54, 0
2, 58440, Note_on_c, 0, 53, 100
2, 58500, Note_on_c, 0, 49, 100
2, 58511, Note_on_c, 0, 53, 0
2, 58560, Note_on_c, 0, 49, 0
2, 58560, Note_on_c, 0, 71, 0
2, 58560, Note_on_c, 0, 73, 100
2, 58560, Note_on_c, 0, 51, 100
2, 58620, Note_on_c, 0, 51, 0
2, 58620, Note_on_c, 0, 53, 100
2, 58680, Note_on_c, 0, 53, 0
2, 58680, Note_on_c, 0, 73, 0
2, 58680, Note_on_c, 0, 69, 100
2, 58680, Note_on_c, 0, 54, 100
2, 58800, Note_on_c, 0, 54, 0
2, 58800, Note_on_c, 0, 57, 100
2, 58860, Note_on_c, 0, 57, 0
2, 58860, Note_on_c, 0, 56, 100
2, 58920, Note_on_c, 0, 56, 0
2, 58920, Note_on_c, 0, 54, 100
2, 58980, Note_on_c, 0, 54, 0
2, 58980, Note_on_c, 0, 52, 100
2, 59040, Note_on_c, 0, 52, 0
2, 59040, Note_on_c, 0, 69, 0
2, 59040, Note_on_c, 0, 68, 0
2, 59040, Note_on_c, 0, 71, 100
2, 59040, Note_on_c, 0, 66, 100
2, 59040, Note_on_c, 0, 51, 100
2, 59064, Note_on_c, 0, 69, 100
2, 59070, Note_on_c, 0, 71, 0
2, 59088, Note_on_c, 0, 71, 100
2, 59094, Note_on_c, 0, 69, 0
2, 59112, Note_on_c, 0, 69, 100
2, 59118, Note_on_c, 0, 71, 0
2, 59136, Note_on_c, 0, 71, 100
2, 59142, Note_on_c, 0, 69, 0
2, 59160, Note_on_c, 0, 51, 0
2, 59160, Note_on_c, 0, 69, 100
2, 59160, Note_on_c, 0, 52, 100
2, 59166, Note_on_c, 0, 71, 0
2, 59184, Note_on_c, 0, 71, 100
2, 59190, Note_on_c, 0, 69, 0
2, 59208, Note_on_c, 0, 69, 100
2, 59214, Note_on_c, 0, 71, 0
2, 59232, Note_on_c, 0, 71, 100
2, 59238, Note_on_c, 0, 69, 0
2, 59256, Note_on_c, 0, 69, 100
2, 59262, Note_on_c, 0, 71, 0
2, 59280, Note_on_c, 0, 52, 0
2, 59280, Note_on_c, 0, 71, 100
2, 59280, Note_on_c, 0, 49, 100
2, 59286, Note_on_c, 0, 69, 0
2, 59310, Note_on_c, 0, 71, 0
2, 59310, Note_on_c, 0, 69, 100
2, 59340, Note_on_c, 0, 69, 0
2, 59340, Note_on_c, 0, 68, 100
2, 59370, Note_on_c, 0, 68, 0
2, 59370, Note_on_c, 0, 69, 100
2, 59400, Note_on_c, 0, 69, 0
2, 59400, Note_on_c, 0, 49, 0
2, 59400, Note_on_c, 0, 68, 100
2, 59400, Note_on_c, 0, 48, 100
2, 59460, Note_on_c, 0, 48, 0
2, 59460, Note_on_c, 0, 49, 100
2, 59520, Note_on_c, 0, 49, 0
2, 59520, Note_on_c, 0, 51, 100
2, 59640, Note_on_c, 0, 51, 0
2, 59640, Note_on_c, 0, 68, 0
2, 59640, Note_on_c, 0, 66, 0
2, 59640, Note_on_c, 0, 68, 100
2, 59640, Note_on_c, 0, 44, 100
2, 59760, Note_on_c, 0, 44, 0
2, 59760, Note_on_c, 0, 68, 0
2, 59760, Note_on_c, 0, 66, 100
2, 59760, Note_on_c, 0, 49, 100
2, 59800, Note_on_c, 0, 64, 100
2, 59815, Note_on_c, 0, 66, 0
2, 59824, Note_on_c, 0, 66, 100
2, 59831, Note_on_c, 0, 64, 0
2, 59840, Note_on_c, 0, 64, 100
2, 59855, Note_on_c, 0, 66, 0
2, 59880, Note_on_c, 0, 49, 0
2, 59880, Note_on_c, 0, 52, 100
2, 60000, Note_on_c, 0, 52, 0
2, 60000, Note_on_c, 0, 68, 100
2, 60000, Note_on_c, 0, 51, 100
2, 60120, Note_on_c, 0, 51, 0
2, 60120, Note_on_c, 0, 68, 0
2, 60120, Note_on_c, 0, 73, 100
2, 60120, Note_on_c, 0, 52, 100
2, 60239, Note_on_c, 0, 64, 0
2, 60240, Note_on_c, 0, 52, 0
2, 60240, Note_on_c, 0, 63, 100
2, 60240, Note_on_c, 0, 54, 100
2, 60360, Note_on_c, 0, 54, 0
2, 60360, Note_on_c, 0, 63, 0
2, 60360, Note_on_c, 0, 56, 100
2, 60360, Note_on_c, 0, 64, 100
2, 60480, Note_on_c, 0, 64, 0
2, 60480, Note_on_c, 0, 56, 0
2, 60480, Note_on_c, 0, 64, 100
2, 60480, Note_on_c, 0, 57, 100
2, 60599, Note_on_c, 0, 64, 0
2, 60600, Note_on_c, 0, 57, 0
2, 60600, Note_on_c, 0, 63, 100
2, 60600, Note_on_c, 0, 59, 100
2, 60720, Note_on_c, 0, 59, 0
2, 60720, Note_on_c, 0, 56, 100
2, 60840, Note_on_c, 0, 56, 0
2, 60840, Note_on_c, 0, 73, 0
2, 60840, Note_on_c, 0, 72, 100
2, 60840, Note_on_c, 0, 54, 100
2, 60960, Note_on_c, 0, 54, 0
2, 60960, Note_on_c, 0, 56, 100
2, 61079, Note_on_c, 0, 63, 0
2, 61080, Note_on_c, 0, 56, 0
2, 61080, Note_on_c, 0, 72, 0
2, 61080, Note_on_c, 0, 73, 100
2, 61080, Note_on_c, 0, 64, 100
2, 61080, Note_on_c, 0, 52, 100
2, 61200, Note_on_c, 0, 52, 0
2, 61200, Note_on_c, 0, 64, 0
2, 61200, Note_on_c, 0, 73, 0
2, 61200, Note_on_c, 0, 75, 100
2, 61200, Note_on_c, 0, 66, 100
2, 61200, Note_on_c, 0, 51, 100
2, 61260, Note_on_c, 0, 51, 0
2, 61260, Note_on_c, 0, 52, 100
2, 61320, Note_on_c, 0, 52, 0
2, 61320, Note_on_c, 0, 54, 100
2, 61407, Note_on_c, 0, 54, 0
2, 61440, Note_on_c, 0, 51, 100
2, 61511, Note_on_c, 0, 51, 0
2, 61560, Note_on_c, 0, 44, 100
2, 61680, Note_on_c, 0, 66, 0
2, 61680, Note_on_c, 0, 69, 100
2, 61800, Note_on_c, 0, 69, 0
2, 61800, Note_on_c, 0, 75, 0
2, 61800, Note_on_c, 0, 68, 100
2, 61800, Note_on_c, 0, 76, 100
2, 61910, Note_on_c, 0, 76, 0
2, 61910, Note_on_c, 0, 68, 0
2, 61920, Note_on_c, 0, 68, 100
2, 61920, Note_on_c, 0, 76, 100
2, 62039, Note_on_c, 0, 76, 0
2, 62039, Note_on_c, 0, 68, 0
2, 62040, Note_on_c, 0, 69, 100
2, 62040, Note_on_c, 0, 78, 100
2, 62160, Note_on_c, 0, 44, 0
2, 62160, Note_on_c, 0, 60, 100
2, 62280, Note_on_c, 0, 60, 0
2, 62288, Note_on_c, 0, 60, 100
2, 62400, Note_on_c, 0, 61, 100
2, 62407, Note_on_c, 0, 60, 0
2, 62520, Note_on_c, 0, 75, 100
2, 62520, Note_on_c, 0, 66, 100
2, 62527, Note_on_c, 0, 69, 0
2, 62527, Note_on_c, 0, 78, 0
2, 62640, Note_on_c, 0, 66, 0
2, 62640, Note_on_c, 0, 75, 0
2, 62640, Note_on_c, 0, 75, 100
2, 62640, Note_on_c, 0, 68, 100
2, 62759, Note_on_c, 0, 75, 0
2, 62759, Note_on_c, 0, 61, 0
2, 62760, Note_on_c, 0, 76, 100
2, 62760, Note_on_c, 0, 59, 100
2, 62880, Note_on_c, 0, 59, 0
2, 62880, Note_on_c, 0, 68, 0
2, 62880, Note_on_c, 0, 69, 100
2, 62880, Note_on_c, 0, 57, 100
2, 62999, Note_on_c, 0, 76, 0
2, 63000, Note_on_c, 0, 57, 0
2, 63000, Note_on_c, 0, 69, 0
2, 63000, Note_on_c, 0, 77, 100
2, 63000, Note_on_c, 0, 71, 100
2, 63000, Note_on_c, 0, 56, 100
2, 63120, Note_on_c, 0, 71, 0
2, 63120, Note_on_c, 0, 69, 100
2, 63240, Note_on_c, 0, 69, 0
2, 63240, Note_on_c, 0, 56, 0
2, 63240, Note_on_c, 0, 68, 100
2, 63240, Note_on_c, 0, 61, 100
2, 63360, Note_on_c, 0, 61, 0
2, 63360, Note_on_c, 0, 68, 0
2, 63360, Note_on_c, 0, 77, 0
2, 63360, Note_on_c, 0, 56, 100
2, 63360, Note_on_c, 0, 78, 100
2, 63360, Note_on_c, 0, 70, 100
2, 63400, Note_on_c, 0, 54, 100
2, 63407, Note_on_c, 0, 56, 0
2, 63420, Note_on_c, 0, 56, 100
2, 63430, Note_on_c, 0, 54, 0
2, 63440, Note_on_c, 0, 54, 100
2, 63450, Note_on_c, 0, 56, 0
2, 63464, Note_on_c, 0, 56, 100
2, 63470, Note_on_c, 0, 54, 0
2, 63480, Note_on_c, 0, 70, 0
2, 63480, Note_on_c, 0, 73, 100
2, 63488, Note_on_c, 0, 54, 100
2, 63494, Note_on_c, 0, 56, 0
2, 63504, Note_on_c, 0, 56, 100
2, 63518, Note_on_c, 0, 54, 0
2, 63528, Note_on_c, 0, 54, 100
2, 63534, Note_on_c, 0, 56, 0
2, 63544, Note_on_c, 0, 56, 100
2, 63558, Note_on_c, 0, 54, 0
2, 63568, Note_on_c, 0, 54, 100
2, 63574, Note_on_c, 0, 56, 0
2, 63584, Note_on_c, 0, 56, 100
2, 63598, Note_on_c, 0, 54, 0
2, 63600, Note_on_c, 0, 73, 0
2, 63600, Note_on_c, 0, 72, 100
2, 63608, Note_on_c, 0, 54, 100
2, 63614, Note_on_c, 0, 56, 0
2, 63624, Note_on_c, 0, 56, 100
2, 63638, Note_on_c, 0, 54, 0
2, 63640, Note_on_c, 0, 54, 100
2, 63654, Note_on_c, 0, 56, 0
2, 63660, Note_on_c, 0, 53, 100
2, 63670, Note_on_c, 0, 54, 0
2, 63690, Note_on_c, 0, 53, 0
2, 63690, Note_on_c, 0, 54, 100
2, 63720, Note_on_c, 0, 54, 0
2, 63720, Note_on_c, 0, 72, 0
2, 63720, Note_on_c, 0, 78, 0
2, 63720, Note_on_c, 0, 56, 100
2, 63720, Note_on_c, 0, 76, 100
2, 63720, Note_on_c, 0, 73, 100
2, 63750, Note_on_c, 0, 55, 100
2, 63767, Note_on_c, 0, 56, 0
2, 63776, Note_on_c, 0, 56, 100
2, 63780, Note_on_c, 0, 55, 0
2, 63792, Note_on_c, 0, 55, 100
2, 63806, Note_on_c, 0, 56, 0
2, 63816, Note_on_c, 0, 56, 100
2, 63822, Note_on_c, 0, 55, 0
2, 63840, Note_on_c, 0, 73, 0
2, 63840, Note_on_c, 0, 55, 100
2, 63840, Note_on_c, 0, 72, 100
2, 63846, Note_on_c, 0, 56, 0
2, 63864, Note_on_c, 0, 56, 100
2, 63870, Note_on_c, 0, 55, 0
2, 63880, Note_on_c, 0, 55, 100
2, 63894, Note_on_c, 0, 56, 0
2, 63904, Note_on_c, 0, 56, 100
2, 63910, Note_on_c, 0, 55, 0
2, 63930, Note_on_c, 0, 55, 100
2, 63934, Note_on_c, 0, 56, 0
2, 63960, Note_on_c, 0, 72, 0
2, 63960, Note_on_c, 0, 55, 0
2, 63960, Note_on_c, 0, 56, 100
2, 63960, Note_on_c, 0, 70, 100
2, 63990, Note_on_c, 0, 56, 0
2, 63990, Note_on_c, 0, 55, 100
2, 64020, Note_on_c, 0, 55, 0
2, 64020, Note_on_c, 0, 53, 100
2, 64050, Note_on_c, 0, 53, 0
2, 64050, Note_on_c, 0, 55, 100
2, 64080, Note_on_c, 0, 55, 0
2, 64080, Note_on_c, 0, 70, 0
2, 64080, Note_on_c, 0, 76, 0
2, 64080, Note_on_c, 0, 75, 100
2, 64080, Note_on_c, 0, 72, 100
2, 64080, Note_on_c, 0, 56, 100
2, 64200, Note_on_c, 0, 75, 0
2, 64200, Note_on_c, 0, 78, 100
2, 64320, Note_on_c, 0, 78, 0
2, 64320, Note_on_c, 0, 72, 0
2, 64320, Note_on_c, 0, 76, 100
2, 64320, Note_on_c, 0, 73, 100
2, 64440, Note_on_c, 0, 73, 0
2, 64440, Note_on_c, 0, 76, 0
2, 64440, Note_on_c, 0, 78, 100
2, 64440, Note_on_c, 0, 75, 100
2, 64500, Note_on_c, 0, 78, 0
2, 64500, Note_on_c, 0, 80, 100
2, 64560, Note_on_c, 0, 80, 0
2, 64560, Note_on_c, 0, 81, 100
2, 64680, Note_on_c, 0, 81, 0
2, 64680, Note_on_c, 0, 75, 0
2, 64680, Note_on_c, 0, 56, 0
2, 64680, Note_on_c, 0, 44, 100
2, 64680, Note_on_c, 0, 72, 100
2, 64680, Note_on_c, 0, 80, 100
2, 64800, Note_on_c, 0, 80, 0
2, 64800, Note_on_c, 0, 72, 0
2, 64800, Note_on_c, 0, 44, 0
2, 64800, Note_on_c, 0, 78, 100
2, 64800, Note_on_c, 0, 73, 100
2, 64800, Note_on_c, 0, 45, 100
2, 64919, Note_on_c, 0, 78, 0
2, 64920, Note_on_c, 0, 45, 0
2, 64920, Note_on_c, 0, 76, 100
2, 64920, Note_on_c, 0, 44, 100
2, 65039, Note_on_c, 0, 76, 0
2, 65040, Note_on_c, 0, 44, 0
2, 65040, Note_on_c, 0, 73, 0
2, 65040, Note_on_c, 0, 75, 100
2, 65040, Note_on_c, 0, 69, 100
2, 65040, Note_on_c, 0, 42, 100
2, 65160, Note_on_c, 0, 42, 0
2, 65160, Note_on_c, 0, 69, 0
2, 65160, Note_on_c, 0, 75, 0
2, 65160, Note_on_c, 0, 44, 100
2, 65160, Note_on_c, 0, 73, 100
2, 65160, Note_on_c, 0, 64, 100
2, 65520, Note_on_c, 0, 64, 0
2, 65520, Note_on_c, 0, 73, 0
2, 65520, Note_on_c, 0, 72, 100
2, 65520, Note_on_c, 0, 56, 100
2, 65520, Note_on_c, 0, 63, 100
2, 65568, Note_on_c, 0, 73, 100
2, 65583, Note_on_c, 0, 72, 0
2, 65591, Note_on_c, 0, 73, 0
2, 65592, Note_on_c, 0, 72, 100
2, 65608, Note_on_c, 0, 73, 100
2, 65615, Note_on_c, 0, 72, 0
2, 65631, Note_on_c, 0, 73, 0
2, 65632, Note_on_c, 0, 72, 100
2, 65648, Note_on_c, 0, 73, 100
2, 65655, Note_on_c, 0, 72, 0
2, 65671, Note_on_c, 0, 73, 0
2, 65672, Note_on_c, 0, 72, 100
2, 65760, Note_on_c, 0, 63, 0
2, 65760, Note_on_c, 0, 64, 100
2, 65760, Note_on_c, 0, 73, 100
2, 65767, Note_on_c, 0, 72, 0
2, 65880, Note_on_c, 0, 64, 0
2, 65880, Note_on_c, 0, 44, 0
2, 65880, Note_on_c, 0, 56, 0
2, 65880, Note_on_c, 0, 73, 0
2, 65880, Note_on_c, 0, 37, 100
2, 65896, Note_on_c, 0, 61, 100
2, 65912, Note_on_c, 0, 64, 100
2, 65928, Note_on_c, 0, 68, 100
2, 65952, Note_on_c, 0, 73, 100
2, 66239, Note_on_c, 0, 61, 0
2, 66240, Note_on_c, 0, 37, 0
2, 66247, Note_on_c, 0, 68, 0
2, 66247, Note_on_c, 0, 64, 0
2, 66247, Note_on_c, 0, 73, 0
2, 66247, End_track
0, 0, End_of_file
