0, 0, Header, 1, 1, 480
1, 0, Start_track
1, 0, Title_t, "Test"
1, 0, Tempo, 500000
1, 0, Instrument_name_t, "Church Organ"
1, 957, Note_on_c, 1, 78, 127
1, 959, Note_on_c, 1, 69, 127
1, 960, Note_on_c, 1, 74, 127
1, 960, Note_on_c, 1, 50, 127
1, 1036, Note_off_c, 1, 50, 0
1, 1077, Note_on_c, 1, 62, 127
1, 1150, Note_off_c, 1, 62, 0
1, 1198, Note_on_c, 1, 61, 127
1, 1272, Note_off_c, 1, 61, 0
1, 1321, Note_on_c, 1, 49, 127
1, 1395, Note_off_c, 1, 49, 0
1, 1438, Note_off_c, 1, 69, 0
1, 1438, Note_on_c, 1, 47, 127
1, 1440, Note_on_c, 1, 71, 127
1, 1520, Note_off_c, 1, 47, 0
1, 1556, Note_on_c, 1, 59, 127
1, 1631, Note_off_c, 1, 59, 0
1, 1682, Note_on_c, 1, 57, 127
1, 1761, Note_off_c, 1, 57, 0
1, 1801, Note_on_c, 1, 45, 127
1, 1874, Note_off_c, 1, 45, 0
1, 1905, Note_off_c, 1, 71, 0
1, 1916, Note_on_c, 1, 43, 127
1, 2008, Note_off_c, 1, 43, 0
1, 2030, Note_off_c, 1, 78, 0
1, 2037, Note_on_c, 1, 55, 127
1, 2042, Note_on_c, 1, 83, 127
1, 2051, Note_off_c, 1, 74, 0
1, 2102, Note_on_c, 1, 79, 127
1, 2107, Note_off_c, 1, 83, 0
1, 2121, Note_off_c, 1, 55, 0
1, 2154, Note_off_c, 1, 79, 0
1, 2161, Note_on_c, 1, 78, 127
1, 2162, Note_on_c, 1, 71, 127
1, 2165, Note_on_c, 1, 56, 127
1, 2170, Note_on_c, 1, 64, 127
1, 2188, Note_on_c, 1, 76, 127
1, 2202, Note_off_c, 1, 78, 0
1, 2228, Note_on_c, 1, 74, 127
1, 2229, Note_off_c, 1, 76, 0
1, 2243, Note_off_c, 1, 56, 0
1, 2271, Note_off_c, 1, 74, 0
1, 2279, Note_on_c, 1, 73, 127
1, 2283, Note_on_c, 1, 44, 127
1, 2286, Note_off_c, 1, 71, 0
1, 2298, Note_off_c, 1, 64, 0
1, 2347, Note_off_c, 1, 73, 0
1, 2355, Note_off_c, 1, 44, 0
1, 2396, Note_on_c, 1, 69, 127
1, 2399, Note_on_c, 1, 45, 127
1, 2403, Note_on_c, 1, 64, 127
1, 2404, Note_on_c, 1, 73, 127
1, 2482, Note_off_c, 1, 45, 0
1, 2522, Note_on_c, 1, 57, 127
1, 2596, Note_off_c, 1, 57, 0
1, 2624, Note_off_c, 1, 73, 0
1, 2629, Note_on_c, 1, 71, 127
1, 2642, Note_on_c, 1, 55, 127
1, 2707, Note_off_c, 1, 71, 0
1, 2716, Note_off_c, 1, 55, 0
1, 2763, Note_on_c, 1, 43, 127
1, 2835, Note_off_c, 1, 43, 0
1, 2873, Note_on_c, 1, 81, 127
1, 2885, Note_on_c, 1, 42, 127
1, 2956, Note_off_c, 1, 69, 0
1, 2967, Note_off_c, 1, 64, 0
1, 2971, Note_off_c, 1, 42, 0
1, 2995, Note_on_c, 1, 72, 127
1, 2999, Note_on_c, 1, 63, 127
1, 3000, Note_on_c, 1, 54, 127
1, 3059, Note_off_c, 1, 72, 0
1, 3075, Note_off_c, 1, 54, 0
1, 3118, Note_on_c, 1, 52, 127
1, 3190, Note_off_c, 1, 52, 0
1, 3242, Note_on_c, 1, 40, 127
1, 3245, Note_off_c, 1, 63, 0
1, 3318, Note_off_c, 1, 40, 0
1, 3362, Note_on_c, 1, 66, 127
1, 3364, Note_on_c, 1, 39, 127
1, 3407, Note_off_c, 1, 81, 0
1, 3411, Note_on_c, 1, 78, 127
1, 3442, Note_off_c, 1, 39, 0
1, 3463, Note_off_c, 1, 78, 0
1, 3477, Note_on_c, 1, 51, 127
1, 3494, Note_off_c, 1, 66, 0
1, 3545, Note_off_c, 1, 51, 0
1, 3595, Note_on_c, 1, 76, 127
1, 3598, Note_on_c, 1, 47, 127
1, 3656, Note_on_c, 1, 75, 127
1, 3659, Note_off_c, 1, 76, 0
1, 3681, Note_off_c, 1, 47, 0
1, 3697, Note_off_c, 1, 75, 0
1, 3715, Note_on_c, 1, 81, 127
1, 3722, Note_on_c, 1, 59, 127
1, 3779, Note_on_c, 1, 79, 127
1, 3788, Note_off_c, 1, 81, 0
1, 3790, Note_off_c, 1, 59, 0
1, 3825, Note_off_c, 1, 79, 0
1, 3837, Note_on_c, 1, 71, 127
1, 3845, Note_on_c, 1, 79, 127
1, 3847, Note_on_c, 1, 64, 127
1, 3848, Note_on_c, 1, 40, 127
1, 3924, Note_off_c, 1, 64, 0
1, 3929, Note_off_c, 1, 40, 0
1, 3939, Note_off_c, 1, 71, 0
1, 3960, Note_on_c, 1, 52, 127
1, 3962, Note_on_c, 1, 76, 127
1, 3969, Note_on_c, 1, 59, 127
1, 4014, Note_on_c, 1, 74, 127
1, 4023, Note_off_c, 1, 76, 0
1, 4026, Note_off_c, 1, 52, 0
1, 4074, Note_off_c, 1, 74, 0
1, 4076, Note_on_c, 1, 50, 127
1, 4133, Note_on_c, 1, 78, 127
1, 4143, Note_off_c, 1, 50, 0
1, 4183, Note_off_c, 1, 59, 0
1, 4191, Note_off_c, 1, 78, 0
1, 4203, Note_on_c, 1, 38, 127
1, 4276, Note_off_c, 1, 38, 0
1, 4316, Note_on_c, 1, 37, 127
1, 4327, Note_on_c, 1, 69, 127
1, 4356, Note_off_c, 1, 79, 0
1, 4396, Note_off_c, 1, 37, 0
1, 4430, Note_on_c, 1, 49, 127
1, 4441, Note_off_c, 1, 69, 0
1, 4504, Note_off_c, 1, 49, 0
1, 4556, Note_on_c, 1, 74, 127
1, 4559, Note_on_c, 1, 45, 127
1, 4613, Note_on_c, 1, 73, 127
1, 4618, Note_off_c, 1, 74, 0
1, 4635, Note_off_c, 1, 45, 0
1, 4660, Note_off_c, 1, 73, 0
1, 4674, Note_on_c, 1, 79, 127
1, 4678, Note_on_c, 1, 57, 127
1, 4736, Note_on_c, 1, 78, 127
1, 4744, Note_off_c, 1, 79, 0
1, 4748, Note_off_c, 1, 57, 0
1, 4788, Note_off_c, 1, 78, 0
1, 4801, Note_on_c, 1, 78, 127
1, 4804, Note_on_c, 1, 69, 127
1, 4805, Note_on_c, 1, 62, 127
1, 4805, Note_on_c, 1, 50, 127
1, 4878, Note_off_c, 1, 50, 0
1, 5034, Note_on_c, 1, 61, 127
1, 5105, Note_off_c, 1, 61, 0
1, 5140, Note_off_c, 1, 78, 0
1, 5142, Note_off_c, 1, 62, 0
1, 5154, Note_on_c, 1, 80, 127
1, 5155, Note_on_c, 1, 64, 127
1, 5158, Note_on_c, 1, 49, 127
1, 5215, Note_on_c, 1, 81, 127
1, 5224, Note_off_c, 1, 49, 0
1, 5227, Note_off_c, 1, 80, 0
1, 5267, Note_off_c, 1, 64, 0
1, 5275, Note_off_c, 1, 81, 0
1, 5276, Note_on_c, 1, 66, 127
1, 5277, Note_on_c, 1, 74, 127
1, 5280, Note_on_c, 1, 47, 127
1, 5366, Note_off_c, 1, 47, 0
1, 5384, Note_off_c, 1, 69, 0
1, 5385, Note_off_c, 1, 74, 0
1, 5386, Note_off_c, 1, 66, 0
1, 5400, Note_on_c, 1, 68, 127
1, 5400, Note_on_c, 1, 59, 127
1, 5402, Note_on_c, 1, 74, 127
1, 5403, Note_on_c, 1, 62, 127
1, 5432, Note_on_c, 1, 76, 127
1, 5439, Note_off_c, 1, 74, 0
1, 5457, Note_off_c, 1, 68, 0
1, 5458, Note_on_c, 1, 69, 127
1, 5465, Note_on_c, 1, 78, 127
1, 5466, Note_off_c, 1, 76, 0
1, 5478, Note_off_c, 1, 59, 0
1, 5500, Note_off_c, 1, 62, 0
1, 5511, Note_off_c, 1, 69, 0
1, 5516, Note_on_c, 1, 56, 127
1, 5517, Note_on_c, 1, 71, 127
1, 5588, Note_off_c, 1, 78, 0
1, 5594, Note_off_c, 1, 56, 0
1, 5598, Note_off_c, 1, 71, 0
1, 5631, Note_on_c, 1, 68, 127
1, 5631, Note_on_c, 1, 52, 127
1, 5639, Note_on_c, 1, 64, 127
1, 5640, Note_on_c, 1, 76, 127
1, 5698, Note_on_c, 1, 74, 127
1, 5704, Note_off_c, 1, 76, 0
1, 5705, Note_off_c, 1, 52, 0
1, 5717, Note_off_c, 1, 68, 0
1, 5737, Note_off_c, 1, 74, 0
1, 5754, Note_on_c, 1, 69, 127
1, 5758, Note_on_c, 1, 73, 127
1, 5759, Note_on_c, 1, 57, 127
1, 5817, Note_on_c, 1, 71, 127
1, 5824, Note_off_c, 1, 69, 0
1, 5826, Note_off_c, 1, 73, 0
1, 5836, Note_off_c, 1, 57, 0
1, 5869, Note_off_c, 1, 71, 0
1, 5870, Note_off_c, 1, 64, 0
1, 5880, Note_on_c, 1, 66, 127
1, 5880, Note_on_c, 1, 50, 127
1, 5881, Note_on_c, 1, 71, 127
1, 5882, Note_on_c, 1, 69, 127
1, 5918, Note_on_c, 1, 73, 127
1, 5925, Note_off_c, 1, 71, 0
1, 5954, Note_on_c, 1, 74, 127
1, 5965, Note_off_c, 1, 50, 0
1, 5965, Note_off_c, 1, 73, 0
1, 5981, Note_off_c, 1, 66, 0
1, 5990, Note_off_c, 1, 74, 0
1, 5997, Note_on_c, 1, 52, 127
1, 6004, Note_on_c, 1, 59, 127
1, 6085, Note_off_c, 1, 52, 0
1, 6108, Note_off_c, 1, 59, 0
1, 6110, Note_off_c, 1, 69, 0
1, 6117, Note_on_c, 1, 40, 127
1, 6123, Note_on_c, 1, 68, 127
1, 6127, Note_on_c, 1, 64, 127
1, 6200, Note_off_c, 1, 40, 0
1, 6218, Note_off_c, 1, 64, 0
1, 6219, Note_off_c, 1, 68, 0
1, 6237, Note_on_c, 1, 45, 127
1, 6243, Note_on_c, 1, 69, 127
1, 6243, Note_on_c, 1, 64, 127
1, 6247, Note_on_c, 1, 61, 127
1, 6298, Note_on_c, 1, 47, 127
1, 6309, Note_off_c, 1, 45, 0
1, 6356, Note_on_c, 1, 49, 127
1, 6363, Note_off_c, 1, 47, 0
1, 6411, Note_on_c, 1, 50, 127
1, 6418, Note_off_c, 1, 49, 0
1, 6471, Note_on_c, 1, 52, 127
1, 6480, Note_off_c, 1, 50, 0
1, 6529, Note_on_c, 1, 55, 127
1, 6537, Note_off_c, 1, 52, 0
1, 6597, Note_on_c, 1, 54, 127
1, 6600, Note_off_c, 1, 55, 0
1, 6667, Note_off_c, 1, 69, 0
1, 6671, Note_off_c, 1, 54, 0
1, 6675, Note_off_c, 1, 64, 0
1, 6681, Note_off_c, 1, 61, 0
1, 6715, Note_on_c, 1, 78, 127
1, 6728, Note_on_c, 1, 74, 127
1, 6843, Note_on_c, 1, 62, 127
1, 6926, Note_off_c, 1, 62, 0
1, 7202, Note_on_c, 1, 71, 127
1, 7316, Note_on_c, 1, 59, 127
1, 7388, Note_off_c, 1, 59, 0
1, 7436, Note_on_c, 1, 57, 127
1, 7508, Note_off_c, 1, 57, 0
1, 7667, Note_off_c, 1, 71, 0
1, 7684, Note_on_c, 1, 43, 127
1, 7760, Note_off_c, 1, 43, 0
1, 7784, Note_off_c, 1, 78, 0
1, 7796, Note_on_c, 1, 83, 127
1, 7801, Note_off_c, 1, 74, 0
1, 7855, Note_on_c, 1, 79, 127
1, 7862, Note_off_c, 1, 83, 0
1, 7911, Note_off_c, 1, 79, 0
1, 7917, Note_on_c, 1, 71, 127
1, 7917, Note_on_c, 1, 56, 127
1, 7920, Note_on_c, 1, 78, 127
1, 7922, Note_on_c, 1, 64, 127
1, 7945, Note_on_c, 1, 76, 127
1, 7959, Note_off_c, 1, 78, 0
1, 7982, Note_on_c, 1, 74, 127
1, 7988, Note_off_c, 1, 76, 0
1, 7998, Note_off_c, 1, 56, 0
1, 8035, Note_off_c, 1, 74, 0
1, 8036, Note_on_c, 1, 73, 127
1, 8040, Note_on_c, 1, 44, 127
1, 8056, Note_off_c, 1, 71, 0
1, 8063, Note_off_c, 1, 64, 0
1, 8105, Note_off_c, 1, 73, 0
1, 8115, Note_off_c, 1, 44, 0
1, 8152, Note_on_c, 1, 69, 127
1, 8153, Note_on_c, 1, 74, 127
1, 8156, Note_on_c, 1, 64, 127
1, 8159, Note_on_c, 1, 45, 127
1, 8196, Note_on_c, 1, 73, 127
1, 8200, Note_off_c, 1, 74, 0
1, 8223, Note_off_c, 1, 73, 0
1, 8242, Note_off_c, 1, 45, 0
1, 8278, Note_on_c, 1, 57, 127
1, 8347, Note_off_c, 1, 57, 0
1, 8395, Note_on_c, 1, 55, 127
1, 8396, Note_on_c, 1, 71, 127
1, 8468, Note_off_c, 1, 71, 0
1, 8483, Note_off_c, 1, 55, 0
1, 8526, Note_on_c, 1, 43, 127
1, 8598, Note_off_c, 1, 43, 0
1, 8633, Note_on_c, 1, 81, 127
1, 8639, Note_on_c, 1, 42, 127
1, 8720, Note_off_c, 1, 42, 0
1, 8726, Note_off_c, 1, 69, 0
1, 8737, Note_off_c, 1, 64, 0
1, 8754, Note_on_c, 1, 72, 127
1, 8754, Note_on_c, 1, 54, 127
1, 8764, Note_on_c, 1, 63, 127
1, 8819, Note_off_c, 1, 72, 0
1, 8827, Note_off_c, 1, 54, 0
1, 8875, Note_on_c, 1, 52, 127
1, 8948, Note_off_c, 1, 52, 0
1, 8993, Note_on_c, 1, 40, 127
1, 8997, Note_off_c, 1, 63, 0
1, 9073, Note_off_c, 1, 40, 0
1, 9112, Note_on_c, 1, 66, 127
1, 9118, Note_on_c, 1, 39, 127
1, 9164, Note_off_c, 1, 81, 0
1, 9173, Note_on_c, 1, 78, 127
1, 9194, Note_off_c, 1, 39, 0
1, 9219, Note_off_c, 1, 78, 0
1, 9236, Note_off_c, 1, 66, 0
1, 9237, Note_on_c, 1, 72, 127
1, 9240, Note_on_c, 1, 51, 127
1, 9295, Note_on_c, 1, 71, 127
1, 9301, Note_off_c, 1, 72, 0
1, 9310, Note_off_c, 1, 51, 0
1, 9328, Note_off_c, 1, 71, 0
1, 9356, Note_on_c, 1, 47, 127
1, 9358, Note_on_c, 1, 76, 127
1, 9420, Note_on_c, 1, 75, 127
1, 9421, Note_off_c, 1, 76, 0
1, 9432, Note_off_c, 1, 47, 0
1, 9455, Note_off_c, 1, 75, 0
1, 9479, Note_on_c, 1, 81, 127
1, 9479, Note_on_c, 1, 59, 127
1, 9536, Note_on_c, 1, 79, 127
1, 9545, Note_off_c, 1, 81, 0
1, 9548, Note_off_c, 1, 59, 0
1, 9579, Note_off_c, 1, 79, 0
1, 9599, Note_on_c, 1, 71, 127
1, 9604, Note_on_c, 1, 79, 127
1, 9606, Note_on_c, 1, 40, 127
1, 9607, Note_on_c, 1, 64, 127
1, 9626, Note_on_c, 1, 78, 127
1, 9632, Note_off_c, 1, 79, 0
1, 9663, Note_off_c, 1, 78, 0
1, 9693, Note_off_c, 1, 40, 0
1, 9697, Note_off_c, 1, 71, 0
1, 9702, Note_off_c, 1, 64, 0
1, 9718, Note_on_c, 1, 76, 127
1, 9720, Note_on_c, 1, 52, 127
1, 9732, Note_on_c, 1, 59, 127
1, 9776, Note_off_c, 1, 76, 0
1, 9778, Note_on_c, 1, 74, 127
1, 9796, Note_off_c, 1, 52, 0
1, 9838, Note_off_c, 1, 74, 0
1, 9840, Note_on_c, 1, 50, 127
1, 9916, Note_off_c, 1, 50, 0
1, 9943, Note_off_c, 1, 59, 0
1, 9959, Note_on_c, 1, 38, 127
1, 10032, Note_off_c, 1, 38, 0
1, 10070, Note_on_c, 1, 37, 127
1, 10088, Note_on_c, 1, 69, 127
1, 10149, Note_off_c, 1, 37, 0
1, 10193, Note_on_c, 1, 49, 127
1, 10206, Note_off_c, 1, 69, 0
1, 10265, Note_off_c, 1, 49, 0
1, 10312, Note_on_c, 1, 74, 127
1, 10314, Note_on_c, 1, 45, 127
1, 10372, Note_on_c, 1, 73, 127
1, 10373, Note_off_c, 1, 74, 0
1, 10392, Note_off_c, 1, 45, 0
1, 10419, Note_off_c, 1, 73, 0
1, 10433, Note_on_c, 1, 79, 127
1, 10441, Note_on_c, 1, 57, 127
1, 10495, Note_on_c, 1, 78, 127
1, 10503, Note_off_c, 1, 79, 0
1, 10506, Note_off_c, 1, 57, 0
1, 10540, Note_off_c, 1, 78, 0
1, 10561, Note_on_c, 1, 50, 127
1, 10562, Note_on_c, 1, 78, 127
1, 10562, Note_on_c, 1, 69, 127
1, 10569, Note_on_c, 1, 62, 127
1, 10632, Note_off_c, 1, 50, 0
1, 10795, Note_on_c, 1, 61, 127
1, 10864, Note_off_c, 1, 61, 0
1, 10890, Note_off_c, 1, 78, 0
1, 10916, Note_off_c, 1, 62, 0
1, 10919, Note_on_c, 1, 64, 127
1, 10919, Note_on_c, 1, 49, 127
1, 10949, Note_on_c, 1, 80, 127
1, 10982, Note_on_c, 1, 81, 127
1, 10984, Note_off_c, 1, 49, 0
1, 10987, Note_off_c, 1, 80, 0
1, 11014, Note_off_c, 1, 81, 0
1, 11031, Note_off_c, 1, 64, 0
1, 11038, Note_on_c, 1, 66, 127
1, 11040, Note_on_c, 1, 47, 127
1, 11098, Note_on_c, 1, 74, 127
1, 11113, Note_off_c, 1, 47, 0
1, 11139, Note_off_c, 1, 69, 0
1, 11139, Note_off_c, 1, 66, 0
1, 11147, Note_off_c, 1, 74, 0
1, 11153, Note_on_c, 1, 68, 127
1, 11157, Note_on_c, 1, 62, 127
1, 11157, Note_on_c, 1, 59, 127
1, 11159, Note_on_c, 1, 74, 127
1, 11203, Note_on_c, 1, 76, 127
1, 11208, Note_off_c, 1, 74, 0
1, 11212, Note_on_c, 1, 69, 127
1, 11215, Note_off_c, 1, 68, 0
1, 11227, Note_off_c, 1, 59, 0
1, 11235, Note_on_c, 1, 78, 127
1, 11244, Note_off_c, 1, 62, 0
1, 11244, Note_off_c, 1, 76, 0
1, 11264, Note_off_c, 1, 78, 0
1, 11271, Note_off_c, 1, 69, 0
1, 11274, Note_on_c, 1, 78, 127
1, 11276, Note_on_c, 1, 56, 127
1, 11277, Note_on_c, 1, 71, 127
1, 11279, Note_on_c, 1, 59, 127
1, 11338, Note_on_c, 1, 76, 127
1, 11345, Note_off_c, 1, 78, 0
1, 11355, Note_off_c, 1, 56, 0
1, 11365, Note_off_c, 1, 59, 0
1, 11366, Note_off_c, 1, 71, 0
1, 11378, Note_off_c, 1, 76, 0
1, 11393, Note_on_c, 1, 68, 127
1, 11395, Note_on_c, 1, 76, 127
1, 11398, Note_on_c, 1, 52, 127
1, 11404, Note_on_c, 1, 64, 127
1, 11454, Note_on_c, 1, 74, 127
1, 11458, Note_off_c, 1, 76, 0
1, 11475, Note_off_c, 1, 68, 0
1, 11476, Note_off_c, 1, 52, 0
1, 11498, Note_off_c, 1, 74, 0
1, 11515, Note_on_c, 1, 69, 127
1, 11518, Note_on_c, 1, 73, 127
1, 11521, Note_on_c, 1, 57, 127
1, 11579, Note_on_c, 1, 71, 127
1, 11585, Note_off_c, 1, 69, 0
1, 11587, Note_off_c, 1, 73, 0
1, 11610, Note_off_c, 1, 57, 0
1, 11636, Note_off_c, 1, 71, 0
1, 11636, Note_on_c, 1, 50, 127
1, 11639, Note_off_c, 1, 64, 0
1, 11642, Note_on_c, 1, 66, 127
1, 11724, Note_off_c, 1, 50, 0
1, 11756, Note_off_c, 1, 66, 0
1, 11767, Note_on_c, 1, 59, 127
1, 11883, Note_off_c, 1, 59, 0
1, 11883, Note_on_c, 1, 40, 127
1, 11965, Note_off_c, 1, 40, 0
1, 12001, Note_on_c, 1, 71, 127
1, 12003, Note_on_c, 1, 45, 127
1, 12010, Note_on_c, 1, 64, 127
1, 12010, Note_on_c, 1, 61, 127
1, 12111, Note_on_c, 1, 69, 127
1, 12123, Note_off_c, 1, 71, 0
1, 12401, Note_off_c, 1, 69, 0
1, 12404, Note_off_c, 1, 64, 0
1, 12412, Note_off_c, 1, 45, 0
1, 12414, Note_off_c, 1, 61, 0
1, 12476, Note_on_c, 1, 45, 127
1, 12481, Note_on_c, 1, 64, 127
1, 12486, Note_on_c, 1, 73, 127
1, 12487, Note_on_c, 1, 69, 127
1, 12566, Note_off_c, 1, 45, 0
1, 12600, Note_on_c, 1, 57, 127
1, 12665, Note_off_c, 1, 57, 0
1, 12715, Note_on_c, 1, 55, 127
1, 12759, Note_off_c, 1, 73, 0
1, 12766, Note_on_c, 1, 74, 127
1, 12784, Note_off_c, 1, 55, 0
1, 12806, Note_off_c, 1, 74, 0
1, 12827, Note_on_c, 1, 71, 127
1, 12828, Note_on_c, 1, 43, 127
1, 12858, Note_off_c, 1, 71, 0
1, 12901, Note_off_c, 1, 43, 0
1, 12949, Note_on_c, 1, 42, 127
1, 12955, Note_on_c, 1, 81, 127
1, 13024, Note_off_c, 1, 69, 0
1, 13032, Note_off_c, 1, 42, 0
1, 13071, Note_off_c, 1, 64, 0
1, 13076, Note_on_c, 1, 54, 127
1, 13079, Note_on_c, 1, 63, 127
1, 13082, Note_on_c, 1, 72, 127
1, 13135, Note_off_c, 1, 63, 0
1, 13151, Note_off_c, 1, 54, 0
1, 13195, Note_on_c, 1, 52, 127
1, 13202, Note_on_c, 1, 66, 127
1, 13246, Note_off_c, 1, 72, 0
1, 13266, Note_off_c, 1, 52, 0
1, 13286, Note_off_c, 1, 81, 0
1, 13315, Note_on_c, 1, 40, 127
1, 13367, Note_on_c, 1, 67, 127
1, 13394, Note_off_c, 1, 40, 0
1, 13433, Note_on_c, 1, 39, 127
1, 13440, Note_off_c, 1, 67, 0
1, 13512, Note_off_c, 1, 39, 0
1, 13557, Note_on_c, 1, 83, 127
1, 13562, Note_on_c, 1, 51, 127
1, 13646, Note_off_c, 1, 51, 0
1, 13688, Note_off_c, 1, 66, 0
1, 13738, Note_off_c, 1, 83, 0
1, 13793, Note_on_c, 1, 47, 127
1, 13795, Note_on_c, 1, 75, 127
1, 13798, Note_on_c, 1, 79, 127
1, 13856, Note_on_c, 1, 78, 127
1, 13858, Note_off_c, 1, 79, 0
1, 13865, Note_off_c, 1, 75, 0
1, 13866, Note_off_c, 1, 47, 0
1, 13912, Note_off_c, 1, 78, 0
1, 13916, Note_on_c, 1, 52, 127
1, 13920, Note_on_c, 1, 79, 127
1, 13920, Note_on_c, 1, 76, 127
1, 13924, Note_on_c, 1, 71, 127
1, 13995, Note_off_c, 1, 52, 0
1, 14034, Note_on_c, 1, 64, 127
1, 14092, Note_off_c, 1, 71, 0
1, 14104, Note_off_c, 1, 64, 0
1, 14154, Note_on_c, 1, 62, 127
1, 14155, Note_on_c, 1, 59, 127
1, 14176, Note_on_c, 1, 78, 127
1, 14181, Note_off_c, 1, 79, 0
1, 14210, Note_off_c, 1, 78, 0
1, 14229, Note_off_c, 1, 62, 0
1, 14236, Note_on_c, 1, 74, 127
1, 14263, Note_off_c, 1, 74, 0
1, 14265, Note_on_c, 1, 50, 127
1, 14269, Note_on_c, 1, 73, 127
1, 14324, Note_off_c, 1, 59, 0
1, 14330, Note_off_c, 1, 73, 0
1, 14346, Note_off_c, 1, 50, 0
1, 14386, Note_on_c, 1, 61, 127
1, 14387, Note_on_c, 1, 70, 127
1, 14387, Note_on_c, 1, 49, 127
1, 14456, Note_off_c, 1, 70, 0
1, 14465, Note_off_c, 1, 61, 0
1, 14474, Note_off_c, 1, 49, 0
1, 14572, Note_on_c, 1, 66, 127
1, 14630, Note_off_c, 1, 66, 0
1, 14634, Note_on_c, 1, 67, 127
1, 14700, Note_off_c, 1, 67, 0
1, 14748, Note_on_c, 1, 47, 127
1, 14837, Note_off_c, 1, 47, 0
1, 14878, Note_on_c, 1, 46, 127
1, 14943, Note_off_c, 1, 76, 0
1, 14959, Note_off_c, 1, 46, 0
1, 15481, Note_on_c, 1, 55, 127
1, 15550, Note_off_c, 1, 55, 0
1, 15598, Note_on_c, 1, 52, 127
1, 15599, Note_on_c, 1, 73, 127
1, 15599, Note_on_c, 1, 71, 127
1, 15599, Note_on_c, 1, 67, 127
1, 15657, Note_on_c, 1, 74, 127
1, 15665, Note_off_c, 1, 73, 0
1, 15672, Note_off_c, 1, 71, 0
1, 15682, Note_on_c, 1, 76, 127
1, 15684, Note_off_c, 1, 74, 0
1, 15687, Note_off_c, 1, 52, 0
1, 15700, Note_off_c, 1, 67, 0
1, 15708, Note_off_c, 1, 76, 0
1, 15716, Note_on_c, 1, 66, 127
1, 15718, Note_on_c, 1, 54, 127
1, 15720, Note_on_c, 1, 74, 127
1, 15720, Note_on_c, 1, 70, 127
1, 15779, Note_on_c, 1, 64, 127
1, 15783, Note_off_c, 1, 66, 0
1, 15785, Note_off_c, 1, 54, 0
1, 15796, Note_off_c, 1, 70, 0
1, 15796, Note_on_c, 1, 73, 127
1, 15803, Note_off_c, 1, 74, 0
1, 15821, Note_off_c, 1, 73, 0
1, 15830, Note_off_c, 1, 64, 0
1, 15835, Note_on_c, 1, 73, 127
1, 15842, Note_on_c, 1, 47, 127
1, 15843, Note_on_c, 1, 66, 127
1, 15851, Note_on_c, 1, 62, 127
1, 15918, Note_off_c, 1, 47, 0
1, 15954, Note_on_c, 1, 59, 127
1, 15957, Note_on_c, 1, 71, 127
1, 15965, Note_off_c, 1, 73, 0
1, 16023, Note_off_c, 1, 59, 0
1, 16077, Note_on_c, 1, 57, 127
1, 16148, Note_off_c, 1, 57, 0
1, 16204, Note_on_c, 1, 45, 127
1, 16259, Note_off_c, 1, 62, 0
1, 16268, Note_off_c, 1, 66, 0
1, 16273, Note_off_c, 1, 45, 0
1, 16277, Note_off_c, 1, 71, 0
1, 16317, Note_on_c, 1, 59, 127
1, 16319, Note_on_c, 1, 64, 127
1, 16321, Note_on_c, 1, 44, 127
1, 16325, Note_on_c, 1, 74, 127
1, 16410, Note_off_c, 1, 44, 0
1, 16418, Note_off_c, 1, 59, 0
1, 16442, Note_on_c, 1, 56, 127
1, 16446, Note_on_c, 1, 71, 127
1, 16516, Note_off_c, 1, 56, 0
1, 16517, Note_off_c, 1, 64, 0
1, 16542, Note_off_c, 1, 71, 0
1, 16557, Note_on_c, 1, 66, 127
1, 16559, Note_on_c, 1, 54, 127
1, 16564, Note_on_c, 1, 69, 127
1, 16605, Note_off_c, 1, 74, 0
1, 16605, Note_on_c, 1, 78, 127
1, 16619, Note_on_c, 1, 68, 127
1, 16621, Note_off_c, 1, 69, 0
1, 16632, Note_off_c, 1, 54, 0
1, 16670, Note_off_c, 1, 68, 0
1, 16670, Note_on_c, 1, 76, 127
1, 16671, Note_on_c, 1, 42, 127
1, 16674, Note_off_c, 1, 78, 0
1, 16730, Note_off_c, 1, 76, 0
1, 16735, Note_off_c, 1, 66, 0
1, 16751, Note_off_c, 1, 42, 0
1, 16791, Note_on_c, 1, 40, 127
1, 16796, Note_on_c, 1, 83, 127
1, 16871, Note_off_c, 1, 40, 0
1, 16918, Note_on_c, 1, 52, 127
1, 16993, Note_off_c, 1, 52, 0
1, 17038, Note_on_c, 1, 50, 127
1, 17113, Note_off_c, 1, 50, 0
1, 17148, Note_off_c, 1, 83, 0
1, 17156, Note_on_c, 1, 81, 127
1, 17164, Note_on_c, 1, 38, 127
1, 17218, Note_on_c, 1, 80, 127
1, 17219, Note_off_c, 1, 81, 0
1, 17247, Note_off_c, 1, 38, 0
1, 17274, Note_off_c, 1, 80, 0
1, 17280, Note_on_c, 1, 37, 127
1, 17368, Note_off_c, 1, 37, 0
1, 17397, Note_on_c, 1, 49, 127
1, 17495, Note_off_c, 1, 49, 0
1, 17683, Note_on_c, 1, 73, 127
1, 17727, Note_off_c, 1, 73, 0
1, 17748, Note_on_c, 1, 45, 127
1, 17828, Note_off_c, 1, 45, 0
1, 17877, Note_on_c, 1, 57, 127
1, 17928, Note_on_c, 1, 62, 127
1, 17946, Note_off_c, 1, 57, 0
1, 17985, Note_off_c, 1, 62, 0
1, 17990, Note_on_c, 1, 61, 127
1, 17991, Note_on_c, 1, 55, 127
1, 18055, Note_off_c, 1, 61, 0
1, 18067, Note_off_c, 1, 55, 0
1, 18121, Note_on_c, 1, 43, 127
1, 18188, Note_off_c, 1, 43, 0
1, 18411, Note_on_c, 1, 72, 127
1, 18477, Note_off_c, 1, 72, 0
1, 19016, Note_on_c, 1, 75, 127
1, 19075, Note_off_c, 1, 75, 0
1, 19078, Note_on_c, 1, 79, 127
1, 19080, Note_on_c, 1, 61, 127
1, 19082, Note_on_c, 1, 45, 127
1, 19083, Note_on_c, 1, 76, 127
1, 19139, Note_on_c, 1, 78, 127
1, 19145, Note_off_c, 1, 79, 0
1, 19153, Note_off_c, 1, 45, 0
1, 19191, Note_off_c, 1, 78, 0
1, 19208, Note_on_c, 1, 46, 127
1, 19281, Note_off_c, 1, 46, 0
1, 19286, Note_off_c, 1, 61, 0
1, 19292, Note_off_c, 1, 76, 0
1, 19320, Note_on_c, 1, 58, 127
1, 19323, Note_on_c, 1, 75, 127
1, 19327, Note_on_c, 1, 66, 127
1, 19380, Note_on_c, 1, 73, 127
1, 19385, Note_off_c, 1, 75, 0
1, 19386, Note_off_c, 1, 58, 0
1, 19434, Note_on_c, 1, 59, 127
1, 19438, Note_off_c, 1, 73, 0
1, 19502, Note_off_c, 1, 59, 0
1, 19549, Note_off_c, 1, 66, 0
1, 19554, Note_on_c, 1, 47, 127
1, 19555, Note_on_c, 1, 81, 127
1, 19557, Note_on_c, 1, 63, 127
1, 19625, Note_off_c, 1, 81, 0
1, 19628, Note_off_c, 1, 47, 0
1, 19665, Note_off_c, 1, 63, 0
1, 19677, Note_on_c, 1, 52, 127
1, 19764, Note_off_c, 1, 52, 0
1, 19798, Note_on_c, 1, 64, 127
1, 19861, Note_on_c, 1, 71, 127
1, 19863, Note_off_c, 1, 64, 0
1, 19912, Note_on_c, 1, 62, 127
1, 19922, Note_off_c, 1, 71, 0
1, 19989, Note_off_c, 1, 62, 0
1, 20033, Note_on_c, 1, 67, 127
1, 20036, Note_on_c, 1, 50, 127
1, 20096, Note_off_c, 1, 67, 0
1, 20110, Note_off_c, 1, 50, 0
1, 20154, Note_on_c, 1, 49, 127
1, 20156, Note_on_c, 1, 69, 127
1, 20237, Note_off_c, 1, 49, 0
1, 20386, Note_on_c, 1, 57, 127
1, 20448, Note_off_c, 1, 69, 0
1, 20463, Note_off_c, 1, 57, 0
1, 20503, Note_on_c, 1, 76, 127
1, 20513, Note_on_c, 1, 64, 127
1, 20513, Note_on_c, 1, 61, 127
1, 20516, Note_on_c, 1, 69, 127
1, 20567, Note_on_c, 1, 79, 127
1, 20568, Note_off_c, 1, 76, 0
1, 20581, Note_off_c, 1, 61, 0
1, 20591, Note_off_c, 1, 64, 0
1, 20624, Note_off_c, 1, 79, 0
1, 20628, Note_on_c, 1, 62, 127
1, 20722, Note_off_c, 1, 69, 0
1, 20751, Note_on_c, 1, 73, 127
1, 20756, Note_on_c, 1, 50, 127
1, 20763, Note_on_c, 1, 78, 127
1, 20810, Note_off_c, 1, 73, 0
1, 20812, Note_on_c, 1, 74, 127
1, 20822, Note_off_c, 1, 62, 0
1, 20825, Note_off_c, 1, 50, 0
1, 20868, Note_off_c, 1, 74, 0
1, 20879, Note_on_c, 1, 48, 127
1, 20952, Note_off_c, 1, 48, 0
1, 20996, Note_on_c, 1, 60, 127
1, 21057, Note_off_c, 1, 78, 0
1, 21061, Note_off_c, 1, 60, 0
1, 21081, Note_on_c, 1, 81, 127
1, 21111, Note_on_c, 1, 59, 127
1, 21120, Note_off_c, 1, 81, 0
1, 21196, Note_off_c, 1, 59, 0
1, 21236, Note_on_c, 1, 67, 127
1, 21243, Note_on_c, 1, 47, 127
1, 21310, Note_off_c, 1, 47, 0
1, 21330, Note_off_c, 1, 67, 0
1, 21354, Note_on_c, 1, 66, 127
1, 21360, Note_on_c, 1, 45, 127
1, 21428, Note_off_c, 1, 45, 0
1, 21473, Note_on_c, 1, 57, 127
1, 21537, Note_on_c, 1, 84, 127
1, 21543, Note_off_c, 1, 57, 0
1, 21552, Note_off_c, 1, 66, 0
1, 21592, Note_on_c, 1, 55, 127
1, 21598, Note_off_c, 1, 84, 0
1, 21602, Note_on_c, 1, 83, 127
1, 21675, Note_off_c, 1, 55, 0
1, 21722, Note_on_c, 1, 43, 127
1, 21789, Note_off_c, 1, 43, 0
1, 21834, Note_on_c, 1, 42, 127
1, 21913, Note_off_c, 1, 42, 0
1, 21933, Note_off_c, 1, 83, 0
1, 21955, Note_on_c, 1, 54, 127
1, 22026, Note_off_c, 1, 54, 0
1, 22074, Note_on_c, 1, 52, 127
1, 22156, Note_off_c, 1, 52, 0
1, 22198, Note_on_c, 1, 71, 127
1, 22199, Note_on_c, 1, 40, 127
1, 22261, Note_off_c, 1, 40, 0
1, 22287, Note_off_c, 1, 71, 0
1, 22319, Note_on_c, 1, 38, 127
1, 22394, Note_off_c, 1, 38, 0
1, 22548, Note_on_c, 1, 49, 127
1, 22629, Note_off_c, 1, 49, 0
1, 22671, Note_on_c, 1, 76, 127
1, 22671, Note_on_c, 1, 73, 127
1, 22671, Note_on_c, 1, 69, 127
1, 22671, Note_on_c, 1, 45, 127
1, 22728, Note_on_c, 1, 71, 127
1, 22736, Note_off_c, 1, 73, 0
1, 22736, Note_on_c, 1, 78, 127
1, 22741, Note_off_c, 1, 76, 0
1, 22753, Note_off_c, 1, 45, 0
1, 22762, Note_on_c, 1, 79, 127
1, 22772, Note_off_c, 1, 78, 0
1, 22793, Note_off_c, 1, 71, 0
1, 22794, Note_on_c, 1, 50, 127
1, 22861, Note_off_c, 1, 79, 0
1, 22883, Note_off_c, 1, 50, 0
1, 22898, Note_off_c, 1, 69, 0
1, 22912, Note_on_c, 1, 55, 127
1, 22919, Note_on_c, 1, 67, 127
1, 22988, Note_off_c, 1, 67, 0
1, 22995, Note_off_c, 1, 55, 0
1, 23032, Note_on_c, 1, 57, 127
1, 23035, Note_on_c, 1, 69, 127
1, 23039, Note_on_c, 1, 74, 127
1, 23043, Note_on_c, 1, 66, 127
1, 23074, Note_on_c, 1, 73, 127
1, 23082, Note_off_c, 1, 74, 0
1, 23106, Note_on_c, 1, 71, 127
1, 23118, Note_off_c, 1, 73, 0
1, 23129, Note_off_c, 1, 57, 0
1, 23155, Note_on_c, 1, 55, 127
1, 23213, Note_off_c, 1, 71, 0
1, 23225, Note_off_c, 1, 66, 0
1, 23240, Note_off_c, 1, 55, 0
1, 23253, Note_off_c, 1, 69, 0
1, 23274, Note_on_c, 1, 74, 127
1, 23276, Note_on_c, 1, 57, 127
1, 23277, Note_on_c, 1, 69, 127
1, 23279, Note_on_c, 1, 64, 127
1, 23293, Note_on_c, 1, 67, 127
1, 23296, Note_off_c, 1, 69, 0
1, 23310, Note_off_c, 1, 67, 0
1, 23343, Note_on_c, 1, 66, 127
1, 23367, Note_off_c, 1, 64, 0
1, 23371, Note_off_c, 1, 57, 0
1, 23374, Note_off_c, 1, 74, 0
1, 23398, Note_off_c, 1, 66, 0
1, 23407, Note_on_c, 1, 45, 127
1, 23409, Note_on_c, 1, 73, 127
1, 23424, Note_off_c, 1, 73, 0
1, 23481, Note_off_c, 1, 45, 0
1, 23526, Note_on_c, 1, 38, 127
1, 23925, Note_off_c, 1, 38, 0
1, 23996, Note_on_c, 1, 73, 127
1, 23996, Note_on_c, 1, 45, 127
1, 24001, Note_on_c, 1, 64, 127
1, 24007, Note_on_c, 1, 69, 127
1, 24086, Note_off_c, 1, 45, 0
1, 24120, Note_on_c, 1, 57, 127
1, 24185, Note_off_c, 1, 57, 0
1, 24235, Note_on_c, 1, 55, 127
1, 24276, Note_off_c, 1, 73, 0
1, 24294, Note_on_c, 1, 74, 127
1, 24304, Note_off_c, 1, 55, 0
1, 24328, Note_off_c, 1, 74, 0
1, 24348, Note_on_c, 1, 43, 127
1, 24353, Note_on_c, 1, 71, 127
1, 24387, Note_off_c, 1, 71, 0
1, 24421, Note_off_c, 1, 43, 0
1, 24469, Note_on_c, 1, 42, 127
1, 24542, Note_on_c, 1, 81, 127
1, 24544, Note_off_c, 1, 69, 0
1, 24552, Note_off_c, 1, 42, 0
1, 24591, Note_off_c, 1, 64, 0
1, 24596, Note_on_c, 1, 54, 127
1, 24599, Note_on_c, 1, 63, 127
1, 24602, Note_on_c, 1, 72, 127
1, 24655, Note_off_c, 1, 63, 0
1, 24671, Note_off_c, 1, 54, 0
1, 24715, Note_on_c, 1, 52, 127
1, 24722, Note_on_c, 1, 66, 127
1, 24766, Note_off_c, 1, 72, 0
1, 24786, Note_off_c, 1, 52, 0
1, 24819, Note_off_c, 1, 81, 0
1, 24835, Note_on_c, 1, 40, 127
1, 24887, Note_on_c, 1, 67, 127
1, 24914, Note_off_c, 1, 40, 0
1, 24953, Note_on_c, 1, 39, 127
1, 24960, Note_off_c, 1, 67, 0
1, 25032, Note_off_c, 1, 39, 0
1, 25077, Note_on_c, 1, 83, 127
1, 25082, Note_on_c, 1, 51, 127
1, 25166, Note_off_c, 1, 51, 0
1, 25208, Note_off_c, 1, 66, 0
1, 25258, Note_off_c, 1, 83, 0
1, 25313, Note_on_c, 1, 47, 127
1, 25315, Note_on_c, 1, 75, 127
1, 25320, Note_on_c, 1, 79, 127
1, 25375, Note_off_c, 1, 79, 0
1, 25375, Note_on_c, 1, 78, 127
1, 25385, Note_off_c, 1, 75, 0
1, 25386, Note_off_c, 1, 47, 0
1, 25424, Note_off_c, 1, 78, 0
1, 25436, Note_on_c, 1, 52, 127
1, 25440, Note_on_c, 1, 76, 127
1, 25442, Note_on_c, 1, 78, 127
1, 25444, Note_on_c, 1, 71, 127
1, 25515, Note_off_c, 1, 52, 0
1, 25554, Note_on_c, 1, 64, 127
1, 25558, Note_on_c, 1, 79, 127
1, 25561, Note_off_c, 1, 78, 0
1, 25612, Note_off_c, 1, 71, 0
1, 25624, Note_off_c, 1, 64, 0
1, 25674, Note_on_c, 1, 62, 127
1, 25675, Note_on_c, 1, 59, 127
1, 25710, Note_off_c, 1, 79, 0
1, 25749, Note_off_c, 1, 62, 0
1, 25764, Note_on_c, 1, 74, 127
1, 25785, Note_on_c, 1, 50, 127
1, 25788, Note_off_c, 1, 74, 0
1, 25796, Note_on_c, 1, 73, 127
1, 25844, Note_off_c, 1, 59, 0
1, 25857, Note_off_c, 1, 73, 0
1, 25866, Note_off_c, 1, 50, 0
1, 25906, Note_on_c, 1, 61, 127
1, 25907, Note_on_c, 1, 49, 127
1, 25918, Note_on_c, 1, 70, 127
1, 25979, Note_off_c, 1, 70, 0
1, 25985, Note_off_c, 1, 61, 0
1, 25994, Note_off_c, 1, 49, 0
1, 26092, Note_on_c, 1, 66, 127
1, 26150, Note_off_c, 1, 66, 0
1, 26154, Note_on_c, 1, 67, 127
1, 26220, Note_off_c, 1, 67, 0
1, 26268, Note_on_c, 1, 47, 127
1, 26357, Note_off_c, 1, 47, 0
1, 26398, Note_on_c, 1, 46, 127
1, 26463, Note_off_c, 1, 76, 0
1, 26479, Note_off_c, 1, 46, 0
1, 27001, Note_on_c, 1, 55, 127
1, 27070, Note_off_c, 1, 55, 0
1, 27117, Note_on_c, 1, 73, 127
1, 27118, Note_on_c, 1, 52, 127
1, 27119, Note_on_c, 1, 71, 127
1, 27119, Note_on_c, 1, 67, 127
1, 27176, Note_on_c, 1, 74, 127
1, 27181, Note_off_c, 1, 73, 0
1, 27192, Note_off_c, 1, 71, 0
1, 27204, Note_on_c, 1, 76, 127
1, 27207, Note_off_c, 1, 52, 0
1, 27214, Note_off_c, 1, 74, 0
1, 27220, Note_off_c, 1, 67, 0
1, 27227, Note_off_c, 1, 76, 0
1, 27236, Note_on_c, 1, 66, 127
1, 27238, Note_on_c, 1, 76, 127
1, 27238, Note_on_c, 1, 54, 127
1, 27240, Note_on_c, 1, 70, 127
1, 27270, Note_on_c, 1, 74, 127
1, 27273, Note_off_c, 1, 76, 0
1, 27287, Note_off_c, 1, 74, 0
1, 27299, Note_on_c, 1, 64, 127
1, 27303, Note_off_c, 1, 66, 0
1, 27305, Note_off_c, 1, 54, 0
1, 27316, Note_off_c, 1, 70, 0
1, 27338, Note_on_c, 1, 73, 127
1, 27350, Note_off_c, 1, 64, 0
1, 27362, Note_on_c, 1, 47, 127
1, 27365, Note_off_c, 1, 73, 0
1, 27371, Note_on_c, 1, 62, 127
1, 27438, Note_off_c, 1, 47, 0
1, 27474, Note_on_c, 1, 59, 127
1, 27487, Note_on_c, 1, 71, 127
1, 27543, Note_off_c, 1, 59, 0
1, 27597, Note_on_c, 1, 57, 127
1, 27668, Note_off_c, 1, 57, 0
1, 27724, Note_on_c, 1, 45, 127
1, 27779, Note_off_c, 1, 62, 0
1, 27793, Note_off_c, 1, 45, 0
1, 27798, Note_off_c, 1, 71, 0
1, 27836, Note_on_c, 1, 74, 127
1, 27837, Note_on_c, 1, 59, 127
1, 27839, Note_on_c, 1, 64, 127
1, 27841, Note_on_c, 1, 44, 127
1, 27930, Note_off_c, 1, 44, 0
1, 27938, Note_off_c, 1, 59, 0
1, 27962, Note_on_c, 1, 56, 127
1, 27966, Note_on_c, 1, 71, 127
1, 28036, Note_off_c, 1, 56, 0
1, 28037, Note_off_c, 1, 64, 0
1, 28062, Note_off_c, 1, 71, 0
1, 28077, Note_on_c, 1, 66, 127
1, 28079, Note_on_c, 1, 54, 127
1, 28084, Note_on_c, 1, 69, 127
1, 28128, Note_off_c, 1, 74, 0
1, 28136, Note_on_c, 1, 78, 127
1, 28139, Note_on_c, 1, 68, 127
1, 28141, Note_off_c, 1, 69, 0
1, 28152, Note_off_c, 1, 54, 0
1, 28190, Note_off_c, 1, 68, 0
1, 28191, Note_on_c, 1, 42, 127
1, 28195, Note_on_c, 1, 76, 127
1, 28201, Note_off_c, 1, 78, 0
1, 28255, Note_off_c, 1, 66, 0
1, 28257, Note_off_c, 1, 76, 0
1, 28271, Note_off_c, 1, 42, 0
1, 28311, Note_on_c, 1, 40, 127
1, 28321, Note_on_c, 1, 83, 127
1, 28391, Note_off_c, 1, 40, 0
1, 28438, Note_on_c, 1, 52, 127
1, 28513, Note_off_c, 1, 52, 0
1, 28558, Note_on_c, 1, 50, 127
1, 28633, Note_off_c, 1, 50, 0
1, 28666, Note_off_c, 1, 83, 0
1, 28680, Note_on_c, 1, 81, 127
1, 28684, Note_on_c, 1, 38, 127
1, 28743, Note_on_c, 1, 80, 127
1, 28745, Note_off_c, 1, 81, 0
1, 28767, Note_off_c, 1, 38, 0
1, 28792, Note_off_c, 1, 80, 0
1, 28800, Note_on_c, 1, 37, 127
1, 28888, Note_off_c, 1, 37, 0
1, 28917, Note_on_c, 1, 49, 127
1, 28918, Note_on_c, 1, 64, 127
1, 28924, Note_on_c, 1, 69, 127
1, 29015, Note_off_c, 1, 49, 0
1, 29026, Note_off_c, 1, 64, 0
1, 29039, Note_on_c, 1, 71, 127
1, 29041, Note_on_c, 1, 66, 127
1, 29048, Note_on_c, 1, 50, 127
1, 29134, Note_off_c, 1, 50, 0
1, 29136, Note_off_c, 1, 66, 0
1, 29154, Note_off_c, 1, 69, 0
1, 29154, Note_on_c, 1, 52, 127
1, 29157, Note_on_c, 1, 68, 127
1, 29205, Note_on_c, 1, 73, 127
1, 29210, Note_off_c, 1, 71, 0
1, 29233, Note_on_c, 1, 74, 127
1, 29237, Note_off_c, 1, 52, 0
1, 29245, Note_off_c, 1, 73, 0
1, 29263, Note_off_c, 1, 74, 0
1, 29268, Note_off_c, 1, 68, 0
1, 29268, Note_on_c, 1, 45, 127
1, 29348, Note_off_c, 1, 45, 0
1, 29397, Note_on_c, 1, 57, 127
1, 29448, Note_on_c, 1, 62, 127
1, 29466, Note_off_c, 1, 57, 0
1, 29505, Note_off_c, 1, 62, 0
1, 29510, Note_on_c, 1, 61, 127
1, 29511, Note_on_c, 1, 55, 127
1, 29575, Note_off_c, 1, 61, 0
1, 29587, Note_off_c, 1, 55, 0
1, 29641, Note_on_c, 1, 43, 127
1, 29708, Note_off_c, 1, 43, 0
1, 29757, Note_on_c, 1, 42, 127
1, 29838, Note_off_c, 1, 42, 0
1, 29874, Note_on_c, 1, 54, 127
1, 29931, Note_on_c, 1, 72, 127
1, 29946, Note_off_c, 1, 54, 0
1, 29997, Note_off_c, 1, 72, 0
1, 30117, Note_on_c, 1, 78, 127
1, 30117, Note_on_c, 1, 59, 127
1, 30181, Note_on_c, 1, 76, 127
1, 30187, Note_off_c, 1, 78, 0
1, 30232, Note_off_c, 1, 76, 0
1, 30237, Note_on_c, 1, 44, 127
1, 30307, Note_off_c, 1, 44, 0
1, 30320, Note_off_c, 1, 59, 0
1, 30357, Note_on_c, 1, 56, 127
1, 30427, Note_off_c, 1, 56, 0
1, 30536, Note_on_c, 1, 75, 127
1, 30595, Note_off_c, 1, 75, 0
1, 30595, Note_on_c, 1, 79, 127
1, 30664, Note_off_c, 1, 79, 0
1, 30728, Note_on_c, 1, 46, 127
1, 30801, Note_off_c, 1, 46, 0
1, 30840, Note_on_c, 1, 58, 127
1, 30906, Note_off_c, 1, 58, 0
1, 31062, Note_on_c, 1, 81, 127
1, 31074, Note_on_c, 1, 47, 127
1, 31077, Note_on_c, 1, 63, 127
1, 31113, Note_on_c, 1, 83, 127
1, 31118, Note_off_c, 1, 81, 0
1, 31143, Note_off_c, 1, 83, 0
1, 31148, Note_off_c, 1, 47, 0
1, 31185, Note_off_c, 1, 63, 0
1, 31553, Note_on_c, 1, 67, 127
1, 31616, Note_off_c, 1, 67, 0
1, 32024, Note_on_c, 1, 76, 127
1, 32033, Note_on_c, 1, 64, 127
1, 32033, Note_on_c, 1, 61, 127
1, 32036, Note_on_c, 1, 69, 127
1, 32085, Note_off_c, 1, 76, 0
1, 32088, Note_on_c, 1, 79, 127
1, 32101, Note_off_c, 1, 61, 0
1, 32111, Note_off_c, 1, 64, 0
1, 32138, Note_off_c, 1, 79, 0
1, 32148, Note_on_c, 1, 62, 127
1, 32242, Note_off_c, 1, 69, 0
1, 32271, Note_on_c, 1, 73, 127
1, 32276, Note_on_c, 1, 50, 127
1, 32279, Note_on_c, 1, 78, 127
1, 32330, Note_off_c, 1, 73, 0
1, 32332, Note_on_c, 1, 74, 127
1, 32342, Note_off_c, 1, 62, 0
1, 32345, Note_off_c, 1, 50, 0
1, 32388, Note_off_c, 1, 74, 0
1, 32399, Note_on_c, 1, 48, 127
1, 32472, Note_off_c, 1, 48, 0
1, 32516, Note_on_c, 1, 60, 127
1, 32573, Note_off_c, 1, 78, 0
1, 32581, Note_off_c, 1, 60, 0
1, 32596, Note_on_c, 1, 81, 127
1, 32624, Note_off_c, 1, 81, 0
1, 32631, Note_on_c, 1, 59, 127
1, 32716, Note_off_c, 1, 59, 0
1, 32756, Note_on_c, 1, 67, 127
1, 32763, Note_on_c, 1, 47, 127
1, 32830, Note_off_c, 1, 47, 0
1, 32850, Note_off_c, 1, 67, 0
1, 32874, Note_on_c, 1, 66, 127
1, 32880, Note_on_c, 1, 45, 127
1, 32948, Note_off_c, 1, 45, 0
1, 32993, Note_on_c, 1, 57, 127
1, 33046, Note_on_c, 1, 83, 127
1, 33063, Note_off_c, 1, 57, 0
1, 33072, Note_off_c, 1, 66, 0
1, 33074, Note_on_c, 1, 84, 127
1, 33076, Note_off_c, 1, 83, 0
1, 33107, Note_off_c, 1, 84, 0
1, 33112, Note_on_c, 1, 55, 127
1, 33117, Note_on_c, 1, 62, 127
1, 33118, Note_on_c, 1, 67, 127
1, 33119, Note_on_c, 1, 84, 127
1, 33195, Note_off_c, 1, 55, 0
1, 33232, Note_on_c, 1, 83, 127
1, 33240, Note_off_c, 1, 84, 0
1, 33242, Note_on_c, 1, 43, 127
1, 33309, Note_off_c, 1, 43, 0
1, 33354, Note_on_c, 1, 42, 127
1, 33433, Note_off_c, 1, 42, 0
1, 33454, Note_off_c, 1, 83, 0
1, 33470, Note_on_c, 1, 74, 127
1, 33475, Note_on_c, 1, 54, 127
1, 33546, Note_off_c, 1, 54, 0
1, 33560, Note_off_c, 1, 62, 0
1, 33580, Note_off_c, 1, 74, 0
1, 33594, Note_on_c, 1, 52, 127
1, 33598, Note_on_c, 1, 64, 127
1, 33599, Note_on_c, 1, 73, 127
1, 33655, Note_on_c, 1, 59, 127
1, 33658, Note_on_c, 1, 76, 127
1, 33664, Note_off_c, 1, 73, 0
1, 33665, Note_off_c, 1, 64, 0
1, 33676, Note_off_c, 1, 52, 0
1, 33706, Note_off_c, 1, 67, 0
1, 33717, Note_off_c, 1, 76, 0
1, 33718, Note_on_c, 1, 71, 127
1, 33719, Note_off_c, 1, 59, 0
1, 33719, Note_on_c, 1, 40, 127
1, 33728, Note_on_c, 1, 79, 127
1, 33781, Note_off_c, 1, 40, 0
1, 33807, Note_off_c, 1, 71, 0
1, 33839, Note_on_c, 1, 38, 127
1, 33896, Note_on_c, 1, 69, 127
1, 33914, Note_off_c, 1, 38, 0
1, 33934, Note_off_c, 1, 79, 0
1, 33956, Note_on_c, 1, 50, 127
1, 33963, Note_off_c, 1, 69, 0
1, 34017, Note_on_c, 1, 66, 127
1, 34048, Note_off_c, 1, 50, 0
1, 34064, Note_off_c, 1, 66, 0
1, 34068, Note_on_c, 1, 49, 127
1, 34149, Note_off_c, 1, 49, 0
1, 34191, Note_on_c, 1, 73, 127
1, 34191, Note_on_c, 1, 69, 127
1, 34191, Note_on_c, 1, 45, 127
1, 34193, Note_on_c, 1, 76, 127
1, 34248, Note_on_c, 1, 78, 127
1, 34248, Note_on_c, 1, 71, 127
1, 34255, Note_off_c, 1, 76, 0
1, 34256, Note_off_c, 1, 73, 0
1, 34273, Note_off_c, 1, 45, 0
1, 34274, Note_on_c, 1, 79, 127
1, 34281, Note_off_c, 1, 78, 0
1, 34299, Note_off_c, 1, 79, 0
1, 34313, Note_off_c, 1, 71, 0
1, 34314, Note_on_c, 1, 50, 127
1, 34403, Note_off_c, 1, 50, 0
1, 34418, Note_off_c, 1, 69, 0
1, 34432, Note_on_c, 1, 55, 127
1, 34436, Note_on_c, 1, 71, 127
1, 34439, Note_on_c, 1, 67, 127
1, 34441, Note_on_c, 1, 78, 127
1, 34499, Note_on_c, 1, 76, 127
1, 34508, Note_off_c, 1, 67, 0
1, 34508, Note_off_c, 1, 78, 0
1, 34510, Note_off_c, 1, 71, 0
1, 34515, Note_off_c, 1, 55, 0
1, 34530, Note_off_c, 1, 76, 0
1, 34552, Note_on_c, 1, 57, 127
1, 34555, Note_on_c, 1, 69, 127
1, 34563, Note_on_c, 1, 66, 127
1, 34567, Note_on_c, 1, 74, 127
1, 34604, Note_on_c, 1, 73, 127
1, 34612, Note_off_c, 1, 74, 0
1, 34648, Note_on_c, 1, 71, 127
1, 34649, Note_off_c, 1, 57, 0
1, 34651, Note_off_c, 1, 73, 0
1, 34675, Note_on_c, 1, 55, 127
1, 34736, Note_off_c, 1, 71, 0
1, 34745, Note_off_c, 1, 66, 0
1, 34760, Note_off_c, 1, 55, 0
1, 34773, Note_off_c, 1, 69, 0
1, 34792, Note_on_c, 1, 74, 127
1, 34796, Note_on_c, 1, 57, 127
1, 34797, Note_on_c, 1, 69, 127
1, 34799, Note_on_c, 1, 64, 127
1, 34813, Note_on_c, 1, 67, 127
1, 34816, Note_off_c, 1, 69, 0
1, 34830, Note_off_c, 1, 67, 0
1, 34833, Note_on_c, 1, 73, 127
1, 34836, Note_off_c, 1, 74, 0
1, 34850, Note_off_c, 1, 73, 0
1, 34863, Note_on_c, 1, 66, 127
1, 34887, Note_off_c, 1, 64, 0
1, 34891, Note_off_c, 1, 57, 0
1, 34918, Note_off_c, 1, 66, 0
1, 34927, Note_on_c, 1, 45, 127
1, 35001, Note_off_c, 1, 45, 0
1, 35046, Note_on_c, 1, 38, 127
1, 35445, Note_off_c, 1, 38, 0
1, 35445, End_track
0, 0, End_of_file