0, 0, Header, 1, 1, 480
1, 0, Start_track
1, 0, Title_t, "Test"
1, 0, Tempo, 500000
1, 0, Instrument_name_t, "Church Organ"
1, 230, Note_on_c, 1, 47, 127
1, 232, Note_on_c, 1, 83, 127
1, 235, Note_on_c, 1, 78, 127
1, 236, Note_on_c, 1, 74, 127
1, 289, Note_off_c, 1, 47, 0
1, 305, Note_off_c, 1, 74, 0
1, 318, Note_off_c, 1, 83, 0
1, 319, Note_off_c, 1, 78, 0
1, 347, Note_on_c, 1, 86, 127
1, 354, Note_on_c, 1, 47, 127
1, 389, Note_off_c, 1, 86, 0
1, 404, Note_on_c, 1, 83, 127
1, 425, Note_off_c, 1, 47, 0
1, 432, Note_off_c, 1, 83, 0
1, 466, Note_on_c, 1, 50, 127
1, 470, Note_on_c, 1, 78, 127
1, 472, Note_on_c, 1, 74, 127
1, 475, Note_on_c, 1, 71, 127
1, 519, Note_off_c, 1, 50, 0
1, 547, Note_off_c, 1, 74, 0
1, 547, Note_off_c, 1, 71, 0
1, 569, Note_off_c, 1, 78, 0
1, 584, Note_on_c, 1, 47, 127
1, 586, Note_on_c, 1, 83, 127
1, 621, Note_off_c, 1, 83, 0
1, 641, Note_on_c, 1, 78, 127
1, 645, Note_off_c, 1, 47, 0
1, 672, Note_off_c, 1, 78, 0
1, 695, Note_on_c, 1, 74, 127
1, 697, Note_on_c, 1, 54, 127
1, 704, Note_on_c, 1, 71, 127
1, 708, Note_on_c, 1, 66, 127
1, 751, Note_off_c, 1, 54, 0
1, 781, Note_off_c, 1, 66, 0
1, 785, Note_off_c, 1, 71, 0
1, 811, Note_off_c, 1, 74, 0
1, 815, Note_on_c, 1, 50, 127
1, 836, Note_on_c, 1, 78, 127
1, 864, Note_off_c, 1, 78, 0
1, 882, Note_on_c, 1, 74, 127
1, 885, Note_off_c, 1, 50, 0
1, 918, Note_off_c, 1, 74, 0
1, 942, Note_on_c, 1, 71, 127
1, 944, Note_on_c, 1, 59, 127
1, 948, Note_on_c, 1, 62, 127
1, 950, Note_on_c, 1, 66, 127
1, 1008, Note_off_c, 1, 59, 0
1, 1032, Note_off_c, 1, 62, 0
1, 1039, Note_off_c, 1, 66, 0
1, 1063, Note_on_c, 1, 54, 127
1, 1080, Note_off_c, 1, 71, 0
1, 1122, Note_off_c, 1, 54, 0
1, 1184, Note_on_c, 1, 66, 127
1, 1185, Note_on_c, 1, 50, 127
1, 1189, Note_on_c, 1, 62, 127
1, 1191, Note_on_c, 1, 71, 127
1, 1240, Note_off_c, 1, 71, 0
1, 1246, Note_off_c, 1, 50, 0
1, 1249, Note_off_c, 1, 62, 0
1, 1254, Note_off_c, 1, 66, 0
1, 1300, Note_on_c, 1, 47, 127
1, 1302, Note_on_c, 1, 71, 127
1, 1304, Note_on_c, 1, 66, 127
1, 1306, Note_on_c, 1, 74, 127
1, 1359, Note_off_c, 1, 47, 0
1, 1365, Note_off_c, 1, 74, 0
1, 1370, Note_off_c, 1, 66, 0
1, 1401, Note_off_c, 1, 71, 0
1, 1416, Note_on_c, 1, 67, 127
1, 1422, Note_on_c, 1, 71, 127
1, 1423, Note_on_c, 1, 73, 127
1, 1425, Note_on_c, 1, 52, 127
1, 1479, Note_off_c, 1, 73, 0
1, 1483, Note_off_c, 1, 67, 0
1, 1489, Note_off_c, 1, 52, 0
1, 1521, Note_off_c, 1, 71, 0
1, 1543, Note_on_c, 1, 71, 127
1, 1543, Note_on_c, 1, 64, 127
1, 1546, Note_on_c, 1, 49, 127
1, 1547, Note_on_c, 1, 73, 127
1, 1599, Note_off_c, 1, 49, 0
1, 1603, Note_off_c, 1, 73, 0
1, 1607, Note_off_c, 1, 64, 0
1, 1648, Note_off_c, 1, 71, 0
1, 1661, Note_on_c, 1, 73, 127
1, 1662, Note_on_c, 1, 54, 127
1, 1669, Note_on_c, 1, 66, 127
1, 1670, Note_on_c, 1, 70, 127
1, 1715, Note_off_c, 1, 54, 0
1, 1722, Note_off_c, 1, 73, 0
1, 1735, Note_off_c, 1, 66, 0
1, 1746, Note_off_c, 1, 70, 0
1, 1785, Note_on_c, 1, 76, 127
1, 1787, Note_on_c, 1, 42, 127
1, 1788, Note_on_c, 1, 66, 127
1, 1789, Note_on_c, 1, 70, 127
1, 1834, Note_off_c, 1, 76, 0
1, 1842, Note_on_c, 1, 73, 127
1, 1844, Note_off_c, 1, 42, 0
1, 1849, Note_off_c, 1, 66, 0
1, 1866, Note_off_c, 1, 70, 0
1, 1880, Note_off_c, 1, 73, 0
1, 1906, Note_on_c, 1, 71, 127
1, 1906, Note_on_c, 1, 66, 127
1, 1908, Note_on_c, 1, 74, 127
1, 1910, Note_on_c, 1, 47, 127
1, 1956, Note_off_c, 1, 47, 0
1, 1961, Note_off_c, 1, 74, 0
1, 1963, Note_on_c, 1, 49, 127
1, 1969, Note_off_c, 1, 66, 0
1, 1970, Note_off_c, 1, 71, 0
1, 2017, Note_off_c, 1, 49, 0
1, 2019, Note_on_c, 1, 50, 127
1, 2028, Note_on_c, 1, 71, 127
1, 2031, Note_on_c, 1, 62, 127
1, 2033, Note_on_c, 1, 66, 127
1, 2063, Note_off_c, 1, 50, 0
1, 2079, Note_on_c, 1, 49, 127
1, 2089, Note_off_c, 1, 71, 0
1, 2096, Note_off_c, 1, 62, 0
1, 2102, Note_off_c, 1, 66, 0
1, 2122, Note_off_c, 1, 49, 0
1, 2146, Note_on_c, 1, 47, 127
1, 2148, Note_on_c, 1, 83, 127
1, 2153, Note_on_c, 1, 78, 127
1, 2154, Note_on_c, 1, 74, 127
1, 2203, Note_off_c, 1, 47, 0
1, 2224, Note_off_c, 1, 74, 0
1, 2225, Note_off_c, 1, 78, 0
1, 2249, Note_off_c, 1, 83, 0
1, 2263, Note_on_c, 1, 86, 127
1, 2270, Note_on_c, 1, 47, 127
1, 2306, Note_off_c, 1, 86, 0
1, 2317, Note_on_c, 1, 83, 127
1, 2323, Note_off_c, 1, 47, 0
1, 2347, Note_off_c, 1, 83, 0
1, 2388, Note_on_c, 1, 78, 127
1, 2390, Note_on_c, 1, 50, 127
1, 2391, Note_on_c, 1, 74, 127
1, 2391, Note_on_c, 1, 71, 127
1, 2445, Note_off_c, 1, 50, 0
1, 2458, Note_off_c, 1, 71, 0
1, 2468, Note_off_c, 1, 74, 0
1, 2489, Note_off_c, 1, 78, 0
1, 2502, Note_on_c, 1, 47, 127
1, 2511, Note_on_c, 1, 83, 127
1, 2544, Note_off_c, 1, 83, 0
1, 2559, Note_on_c, 1, 78, 127
1, 2562, Note_off_c, 1, 47, 0
1, 2596, Note_off_c, 1, 78, 0
1, 2623, Note_on_c, 1, 74, 127
1, 2623, Note_on_c, 1, 54, 127
1, 2626, Note_on_c, 1, 71, 127
1, 2626, Note_on_c, 1, 66, 127
1, 2678, Note_off_c, 1, 54, 0
1, 2699, Note_off_c, 1, 66, 0
1, 2705, Note_off_c, 1, 71, 0
1, 2726, Note_off_c, 1, 74, 0
1, 2740, Note_on_c, 1, 50, 127
1, 2748, Note_on_c, 1, 78, 127
1, 2786, Note_off_c, 1, 78, 0
1, 2804, Note_off_c, 1, 50, 0
1, 2805, Note_on_c, 1, 74, 127
1, 2842, Note_off_c, 1, 74, 0
1, 2856, Note_on_c, 1, 62, 127
1, 2861, Note_on_c, 1, 59, 127
1, 2862, Note_on_c, 1, 71, 127
1, 2870, Note_on_c, 1, 66, 127
1, 2919, Note_off_c, 1, 59, 0
1, 2946, Note_off_c, 1, 62, 0
1, 2948, Note_off_c, 1, 66, 0
1, 2988, Note_on_c, 1, 54, 127
1, 3029, Note_off_c, 1, 71, 0
1, 3045, Note_off_c, 1, 54, 0
1, 3103, Note_on_c, 1, 66, 127
1, 3107, Note_on_c, 1, 71, 127
1, 3107, Note_on_c, 1, 74, 127
1, 3110, Note_on_c, 1, 59, 127
1, 3160, Note_off_c, 1, 71, 0
1, 3163, Note_on_c, 1, 73, 127
1, 3164, Note_off_c, 1, 66, 0
1, 3168, Note_off_c, 1, 74, 0
1, 3196, Note_off_c, 1, 59, 0
1, 3217, Note_off_c, 1, 73, 0
1, 3221, Note_on_c, 1, 74, 127
1, 3224, Note_on_c, 1, 66, 127
1, 3224, Note_on_c, 1, 62, 127
1, 3226, Note_on_c, 1, 71, 127
1, 3270, Note_off_c, 1, 62, 0
1, 3279, Note_off_c, 1, 71, 0
1, 3280, Note_on_c, 1, 59, 127
1, 3282, Note_off_c, 1, 66, 0
1, 3322, Note_off_c, 1, 59, 0
1, 3348, Note_on_c, 1, 64, 127
1, 3348, Note_on_c, 1, 56, 127
1, 3401, Note_on_c, 1, 73, 127
1, 3409, Note_off_c, 1, 74, 0
1, 3410, Note_off_c, 1, 64, 0
1, 3445, Note_off_c, 1, 56, 0
1, 3450, Note_off_c, 1, 73, 0
1, 3461, Note_on_c, 1, 74, 127
1, 3463, Note_on_c, 1, 59, 127
1, 3465, Note_on_c, 1, 68, 127
1, 3467, Note_on_c, 1, 71, 127
1, 3508, Note_off_c, 1, 59, 0
1, 3517, Note_on_c, 1, 56, 127
1, 3528, Note_off_c, 1, 68, 0
1, 3530, Note_off_c, 1, 71, 0
1, 3559, Note_off_c, 1, 56, 0
1, 3588, Note_on_c, 1, 52, 127
1, 3595, Note_on_c, 1, 83, 127
1, 3610, Note_off_c, 1, 74, 0
1, 3681, Note_off_c, 1, 83, 0
1, 3687, Note_off_c, 1, 52, 0
1, 3702, Note_on_c, 1, 74, 127
1, 3705, Note_on_c, 1, 56, 127
1, 3709, Note_on_c, 1, 64, 127
1, 3710, Note_on_c, 1, 71, 127
1, 3747, Note_off_c, 1, 56, 0
1, 3755, Note_on_c, 1, 52, 127
1, 3763, Note_off_c, 1, 71, 0
1, 3771, Note_off_c, 1, 64, 0
1, 3795, Note_off_c, 1, 52, 0
1, 3796, Note_off_c, 1, 74, 0
1, 3820, Note_on_c, 1, 69, 127
1, 3825, Note_on_c, 1, 57, 127
1, 3826, Note_on_c, 1, 76, 127
1, 3829, Note_on_c, 1, 64, 127
1, 3856, Note_on_c, 1, 74, 127
1, 3859, Note_off_c, 1, 76, 0
1, 3885, Note_off_c, 1, 69, 0
1, 3890, Note_off_c, 1, 64, 0
1, 3896, Note_off_c, 1, 74, 0
1, 3917, Note_off_c, 1, 57, 0
1, 3946, Note_on_c, 1, 61, 127
1, 3947, Note_on_c, 1, 73, 127
1, 3983, Note_off_c, 1, 61, 0
1, 4029, Note_off_c, 1, 73, 0
1, 4060, Note_on_c, 1, 69, 127
1, 4066, Note_on_c, 1, 78, 127
1, 4067, Note_on_c, 1, 66, 127
1, 4071, Note_on_c, 1, 62, 127
1, 4117, Note_on_c, 1, 77, 127
1, 4124, Note_off_c, 1, 69, 0
1, 4128, Note_off_c, 1, 78, 0
1, 4131, Note_off_c, 1, 66, 0
1, 4169, Note_off_c, 1, 62, 0
1, 4174, Note_off_c, 1, 77, 0
1, 4184, Note_on_c, 1, 74, 127
1, 4186, Note_on_c, 1, 78, 127
1, 4189, Note_on_c, 1, 69, 127
1, 4193, Note_on_c, 1, 66, 127
1, 4226, Note_off_c, 1, 66, 0
1, 4244, Note_off_c, 1, 74, 0
1, 4248, Note_on_c, 1, 62, 127
1, 4250, Note_off_c, 1, 69, 0
1, 4290, Note_off_c, 1, 62, 0
1, 4302, Note_on_c, 1, 68, 127
1, 4317, Note_on_c, 1, 59, 127
1, 4356, Note_on_c, 1, 77, 127
1, 4372, Note_off_c, 1, 78, 0
1, 4375, Note_off_c, 1, 68, 0
1, 4396, Note_off_c, 1, 59, 0
1, 4399, Note_off_c, 1, 77, 0
1, 4421, Note_on_c, 1, 78, 127
1, 4421, Note_on_c, 1, 74, 127
1, 4427, Note_on_c, 1, 71, 127
1, 4430, Note_on_c, 1, 62, 127
1, 4468, Note_off_c, 1, 62, 0
1, 4478, Note_off_c, 1, 74, 0
1, 4479, Note_on_c, 1, 59, 127
1, 4487, Note_off_c, 1, 71, 0
1, 4521, Note_off_c, 1, 59, 0
1, 4549, Note_on_c, 1, 56, 127
1, 4554, Note_on_c, 1, 86, 127
1, 4569, Note_off_c, 1, 78, 0
1, 4637, Note_off_c, 1, 56, 0
1, 4639, Note_off_c, 1, 86, 0
1, 4656, Note_on_c, 1, 78, 127
1, 4658, Note_on_c, 1, 68, 127
1, 4660, Note_on_c, 1, 74, 127
1, 4661, Note_on_c, 1, 59, 127
1, 4713, Note_off_c, 1, 59, 0
1, 4716, Note_off_c, 1, 68, 0
1, 4720, Note_on_c, 1, 56, 127
1, 4726, Note_off_c, 1, 74, 0
1, 4745, Note_off_c, 1, 78, 0
1, 4758, Note_off_c, 1, 56, 0
1, 4779, Note_on_c, 1, 80, 127
1, 4782, Note_on_c, 1, 73, 127
1, 4782, Note_on_c, 1, 68, 127
1, 4785, Note_on_c, 1, 61, 127
1, 4801, Note_on_c, 1, 78, 127
1, 4822, Note_off_c, 1, 80, 0
1, 4837, Note_off_c, 1, 61, 0
1, 4843, Note_off_c, 1, 73, 0
1, 4843, Note_on_c, 1, 62, 127
1, 4849, Note_off_c, 1, 68, 0
1, 4851, Note_off_c, 1, 78, 0
1, 4882, Note_off_c, 1, 62, 0
1, 4888, Note_on_c, 1, 77, 127
1, 4959, Note_on_c, 1, 59, 127
1, 4975, Note_off_c, 1, 77, 0
1, 5003, Note_off_c, 1, 59, 0
1, 5021, Note_on_c, 1, 78, 127
1, 5022, Note_on_c, 1, 73, 127
1, 5022, Note_on_c, 1, 66, 127
1, 5024, Note_on_c, 1, 57, 127
1, 5080, Note_off_c, 1, 78, 0
1, 5085, Note_off_c, 1, 66, 0
1, 5092, Note_off_c, 1, 57, 0
1, 5094, Note_off_c, 1, 73, 0
1, 5141, Note_on_c, 1, 78, 127
1, 5143, Note_on_c, 1, 73, 127
1, 5145, Note_on_c, 1, 81, 127
1, 5145, Note_on_c, 1, 54, 127
1, 5199, Note_off_c, 1, 78, 0
1, 5201, Note_off_c, 1, 73, 0
1, 5201, Note_off_c, 1, 81, 0
1, 5201, Note_off_c, 1, 54, 0
1, 5210, Note_on_c, 1, 78, 127
1, 5251, Note_off_c, 1, 78, 0
1, 5259, Note_on_c, 1, 59, 127
1, 5265, Note_on_c, 1, 74, 127
1, 5266, Note_on_c, 1, 80, 127
1, 5268, Note_on_c, 1, 78, 127
1, 5318, Note_off_c, 1, 59, 0
1, 5324, Note_off_c, 1, 80, 0
1, 5335, Note_off_c, 1, 74, 0
1, 5360, Note_off_c, 1, 78, 0
1, 5383, Note_on_c, 1, 56, 127
1, 5384, Note_on_c, 1, 74, 127
1, 5384, Note_on_c, 1, 80, 127
1, 5389, Note_on_c, 1, 78, 127
1, 5440, Note_off_c, 1, 56, 0
1, 5444, Note_off_c, 1, 74, 0
1, 5446, Note_off_c, 1, 80, 0
1, 5485, Note_off_c, 1, 78, 0
1, 5502, Note_on_c, 1, 77, 127
1, 5503, Note_on_c, 1, 80, 127
1, 5507, Note_on_c, 1, 73, 127
1, 5511, Note_on_c, 1, 61, 127
1, 5556, Note_off_c, 1, 80, 0
1, 5561, Note_off_c, 1, 61, 0
1, 5565, Note_off_c, 1, 73, 0
1, 5569, Note_off_c, 1, 77, 0
1, 5621, Note_on_c, 1, 83, 127
1, 5623, Note_on_c, 1, 73, 127
1, 5624, Note_on_c, 1, 77, 127
1, 5628, Note_on_c, 1, 49, 127
1, 5671, Note_off_c, 1, 73, 0
1, 5674, Note_off_c, 1, 83, 0
1, 5682, Note_on_c, 1, 80, 127
1, 5688, Note_off_c, 1, 77, 0
1, 5688, Note_off_c, 1, 49, 0
1, 5713, Note_off_c, 1, 80, 0
1, 5741, Note_on_c, 1, 54, 127
1, 5742, Note_on_c, 1, 81, 127
1, 5742, Note_on_c, 1, 78, 127
1, 5747, Note_on_c, 1, 61, 127
1, 5796, Note_off_c, 1, 54, 0
1, 5799, Note_off_c, 1, 81, 0
1, 5800, Note_off_c, 1, 78, 0
1, 5800, Note_off_c, 1, 61, 0
1, 5805, Note_on_c, 1, 80, 127
1, 5838, Note_off_c, 1, 80, 0
1, 5860, Note_on_c, 1, 78, 127
1, 5860, Note_on_c, 1, 69, 127
1, 5860, Note_on_c, 1, 73, 127
1, 5864, Note_on_c, 1, 81, 127
1, 5867, Note_on_c, 1, 42, 127
1, 5908, Note_off_c, 1, 81, 0
1, 5908, Note_on_c, 1, 77, 127
1, 5922, Note_off_c, 1, 78, 0
1, 5923, Note_off_c, 1, 42, 0
1, 5926, Note_off_c, 1, 69, 0
1, 5927, Note_on_c, 1, 80, 127
1, 5932, Note_off_c, 1, 73, 0
1, 5962, Note_off_c, 1, 77, 0
1, 5963, Note_off_c, 1, 80, 0
1, 5976, Note_on_c, 1, 78, 127
1, 5984, Note_on_c, 1, 69, 127
1, 5984, Note_on_c, 1, 54, 127
1, 5986, Note_on_c, 1, 73, 127
1, 6034, Note_off_c, 1, 78, 0
1, 6045, Note_off_c, 1, 54, 0
1, 6049, Note_on_c, 1, 81, 127
1, 6055, Note_off_c, 1, 73, 0
1, 6056, Note_off_c, 1, 69, 0
1, 6079, Note_off_c, 1, 81, 0
1, 6100, Note_on_c, 1, 73, 127
1, 6105, Note_on_c, 1, 57, 127
1, 6110, Note_on_c, 1, 78, 127
1, 6151, Note_off_c, 1, 57, 0
1, 6158, Note_off_c, 1, 73, 0
1, 6163, Note_on_c, 1, 77, 127
1, 6179, Note_off_c, 1, 78, 0
1, 6220, Note_off_c, 1, 77, 0
1, 6225, Note_on_c, 1, 78, 127
1, 6229, Note_on_c, 1, 50, 127
1, 6230, Note_on_c, 1, 71, 127
1, 6231, Note_on_c, 1, 66, 127
1, 6277, Note_off_c, 1, 78, 0
1, 6287, Note_on_c, 1, 83, 127
1, 6290, Note_off_c, 1, 50, 0
1, 6301, Note_off_c, 1, 66, 0
1, 6306, Note_off_c, 1, 71, 0
1, 6320, Note_off_c, 1, 83, 0
1, 6347, Note_on_c, 1, 71, 127
1, 6347, Note_on_c, 1, 78, 127
1, 6352, Note_on_c, 1, 59, 127
1, 6400, Note_on_c, 1, 77, 127
1, 6406, Note_off_c, 1, 71, 0
1, 6411, Note_off_c, 1, 59, 0
1, 6421, Note_off_c, 1, 78, 0
1, 6467, Note_on_c, 1, 69, 127
1, 6475, Note_off_c, 1, 77, 0
1, 6476, Note_on_c, 1, 49, 127
1, 6530, Note_on_c, 1, 85, 127
1, 6540, Note_off_c, 1, 49, 0
1, 6548, Note_off_c, 1, 69, 0
1, 6574, Note_off_c, 1, 85, 0
1, 6587, Note_on_c, 1, 78, 127
1, 6588, Note_on_c, 1, 69, 127
1, 6590, Note_on_c, 1, 61, 127
1, 6643, Note_off_c, 1, 69, 0
1, 6646, Note_off_c, 1, 61, 0
1, 6647, Note_off_c, 1, 78, 0
1, 6647, Note_on_c, 1, 77, 127
1, 6709, Note_on_c, 1, 47, 127
1, 6711, Note_on_c, 1, 71, 127
1, 6714, Note_on_c, 1, 68, 127
1, 6717, Note_off_c, 1, 77, 0
1, 6765, Note_on_c, 1, 86, 127
1, 6775, Note_off_c, 1, 47, 0
1, 6780, Note_off_c, 1, 71, 0
1, 6793, Note_off_c, 1, 68, 0
1, 6802, Note_off_c, 1, 86, 0
1, 6822, Note_on_c, 1, 62, 127
1, 6823, Note_on_c, 1, 78, 127
1, 6829, Note_on_c, 1, 68, 127
1, 6874, Note_off_c, 1, 68, 0
1, 6875, Note_off_c, 1, 78, 0
1, 6879, Note_on_c, 1, 77, 127
1, 6882, Note_off_c, 1, 62, 0
1, 6940, Note_on_c, 1, 59, 127
1, 6952, Note_on_c, 1, 71, 127
1, 6955, Note_off_c, 1, 77, 0
1, 6998, Note_on_c, 1, 86, 127
1, 7001, Note_off_c, 1, 59, 0
1, 7011, Note_off_c, 1, 71, 0
1, 7037, Note_off_c, 1, 86, 0
1, 7057, Note_on_c, 1, 85, 127
1, 7061, Note_on_c, 1, 56, 127
1, 7065, Note_on_c, 1, 77, 127
1, 7069, Note_on_c, 1, 74, 127
1, 7069, Note_on_c, 1, 71, 127
1, 7094, Note_off_c, 1, 85, 0
1, 7119, Note_on_c, 1, 83, 127
1, 7125, Note_off_c, 1, 71, 0
1, 7128, Note_off_c, 1, 77, 0
1, 7129, Note_off_c, 1, 56, 0
1, 7133, Note_off_c, 1, 74, 0
1, 7166, Note_off_c, 1, 83, 0
1, 7176, Note_on_c, 1, 78, 127
1, 7185, Note_on_c, 1, 73, 127
1, 7185, Note_on_c, 1, 57, 127
1, 7191, Note_on_c, 1, 69, 127
1, 7191, Note_on_c, 1, 85, 127
1, 7230, Note_off_c, 1, 85, 0
1, 7232, Note_off_c, 1, 78, 0
1, 7248, Note_on_c, 1, 81, 127
1, 7250, Note_off_c, 1, 73, 0
1, 7253, Note_off_c, 1, 57, 0
1, 7253, Note_off_c, 1, 69, 0
1, 7288, Note_off_c, 1, 81, 0
1, 7301, Note_on_c, 1, 80, 127
1, 7304, Note_on_c, 1, 71, 127
1, 7309, Note_on_c, 1, 59, 127
1, 7311, Note_on_c, 1, 74, 127
1, 7355, Note_on_c, 1, 78, 127
1, 7359, Note_off_c, 1, 80, 0
1, 7364, Note_off_c, 1, 59, 0
1, 7366, Note_off_c, 1, 71, 0
1, 7377, Note_off_c, 1, 74, 0
1, 7397, Note_off_c, 1, 78, 0
1, 7422, Note_on_c, 1, 69, 127
1, 7424, Note_on_c, 1, 73, 127
1, 7429, Note_on_c, 1, 61, 127
1, 7430, Note_on_c, 1, 81, 127
1, 7480, Note_off_c, 1, 81, 0
1, 7481, Note_off_c, 1, 69, 0
1, 7482, Note_off_c, 1, 61, 0
1, 7486, Note_off_c, 1, 73, 0
1, 7544, Note_on_c, 1, 73, 127
1, 7547, Note_on_c, 1, 77, 127
1, 7550, Note_on_c, 1, 71, 127
1, 7550, Note_on_c, 1, 81, 127
1, 7553, Note_on_c, 1, 49, 127
1, 7573, Note_on_c, 1, 80, 127
1, 7577, Note_off_c, 1, 81, 0
1, 7597, Note_off_c, 1, 73, 0
1, 7600, Note_off_c, 1, 77, 0
1, 7601, Note_off_c, 1, 80, 0
1, 7602, Note_off_c, 1, 49, 0
1, 7604, Note_off_c, 1, 71, 0
1, 7665, Note_on_c, 1, 78, 127
1, 7668, Note_on_c, 1, 54, 127
1, 7671, Note_on_c, 1, 69, 127
1, 7788, Note_off_c, 1, 54, 0
1, 7798, Note_off_c, 1, 78, 0
1, 7803, Note_off_c, 1, 69, 0
1, 7910, Note_on_c, 1, 47, 127
1, 7912, Note_on_c, 1, 83, 127
1, 7915, Note_on_c, 1, 78, 127
1, 7916, Note_on_c, 1, 74, 127
1, 7969, Note_off_c, 1, 47, 0
1, 7985, Note_off_c, 1, 74, 0
1, 7998, Note_off_c, 1, 83, 0
1, 7999, Note_off_c, 1, 78, 0
1, 8027, Note_on_c, 1, 86, 127
1, 8034, Note_on_c, 1, 47, 127
1, 8069, Note_off_c, 1, 86, 0
1, 8084, Note_on_c, 1, 83, 127
1, 8105, Note_off_c, 1, 47, 0
1, 8112, Note_off_c, 1, 83, 0
1, 8146, Note_on_c, 1, 50, 127
1, 8150, Note_on_c, 1, 78, 127
1, 8152, Note_on_c, 1, 74, 127
1, 8155, Note_on_c, 1, 71, 127
1, 8199, Note_off_c, 1, 50, 0
1, 8227, Note_off_c, 1, 74, 0
1, 8227, Note_off_c, 1, 71, 0
1, 8249, Note_off_c, 1, 78, 0
1, 8264, Note_on_c, 1, 47, 127
1, 8266, Note_on_c, 1, 83, 127
1, 8301, Note_off_c, 1, 83, 0
1, 8321, Note_on_c, 1, 78, 127
1, 8325, Note_off_c, 1, 47, 0
1, 8352, Note_off_c, 1, 78, 0
1, 8375, Note_on_c, 1, 74, 127
1, 8377, Note_on_c, 1, 54, 127
1, 8384, Note_on_c, 1, 71, 127
1, 8388, Note_on_c, 1, 66, 127
1, 8431, Note_off_c, 1, 54, 0
1, 8461, Note_off_c, 1, 66, 0
1, 8465, Note_off_c, 1, 71, 0
1, 8491, Note_off_c, 1, 74, 0
1, 8495, Note_on_c, 1, 50, 127
1, 8516, Note_on_c, 1, 78, 127
1, 8544, Note_off_c, 1, 78, 0
1, 8562, Note_on_c, 1, 74, 127
1, 8565, Note_off_c, 1, 50, 0
1, 8598, Note_off_c, 1, 74, 0
1, 8622, Note_on_c, 1, 71, 127
1, 8624, Note_on_c, 1, 59, 127
1, 8628, Note_on_c, 1, 62, 127
1, 8630, Note_on_c, 1, 66, 127
1, 8688, Note_off_c, 1, 59, 0
1, 8712, Note_off_c, 1, 62, 0
1, 8719, Note_off_c, 1, 66, 0
1, 8743, Note_on_c, 1, 54, 127
1, 8760, Note_off_c, 1, 71, 0
1, 8802, Note_off_c, 1, 54, 0
1, 8864, Note_on_c, 1, 66, 127
1, 8865, Note_on_c, 1, 50, 127
1, 8869, Note_on_c, 1, 62, 127
1, 8871, Note_on_c, 1, 71, 127
1, 8920, Note_off_c, 1, 71, 0
1, 8926, Note_off_c, 1, 50, 0
1, 8929, Note_off_c, 1, 62, 0
1, 8934, Note_off_c, 1, 66, 0
1, 8980, Note_on_c, 1, 47, 127
1, 8982, Note_on_c, 1, 71, 127
1, 8984, Note_on_c, 1, 66, 127
1, 8986, Note_on_c, 1, 74, 127
1, 9039, Note_off_c, 1, 47, 0
1, 9045, Note_off_c, 1, 74, 0
1, 9050, Note_off_c, 1, 66, 0
1, 9081, Note_off_c, 1, 71, 0
1, 9096, Note_on_c, 1, 67, 127
1, 9102, Note_on_c, 1, 71, 127
1, 9103, Note_on_c, 1, 73, 127
1, 9105, Note_on_c, 1, 52, 127
1, 9159, Note_off_c, 1, 73, 0
1, 9163, Note_off_c, 1, 67, 0
1, 9169, Note_off_c, 1, 52, 0
1, 9201, Note_off_c, 1, 71, 0
1, 9223, Note_on_c, 1, 71, 127
1, 9223, Note_on_c, 1, 64, 127
1, 9226, Note_on_c, 1, 49, 127
1, 9227, Note_on_c, 1, 73, 127
1, 9279, Note_off_c, 1, 49, 0
1, 9283, Note_off_c, 1, 73, 0
1, 9287, Note_off_c, 1, 64, 0
1, 9328, Note_off_c, 1, 71, 0
1, 9341, Note_on_c, 1, 73, 127
1, 9342, Note_on_c, 1, 54, 127
1, 9349, Note_on_c, 1, 66, 127
1, 9350, Note_on_c, 1, 70, 127
1, 9395, Note_off_c, 1, 54, 0
1, 9402, Note_off_c, 1, 73, 0
1, 9415, Note_off_c, 1, 66, 0
1, 9426, Note_off_c, 1, 70, 0
1, 9465, Note_on_c, 1, 76, 127
1, 9467, Note_on_c, 1, 42, 127
1, 9468, Note_on_c, 1, 66, 127
1, 9469, Note_on_c, 1, 70, 127
1, 9514, Note_off_c, 1, 76, 0
1, 9522, Note_on_c, 1, 73, 127
1, 9524, Note_off_c, 1, 42, 0
1, 9529, Note_off_c, 1, 66, 0
1, 9546, Note_off_c, 1, 70, 0
1, 9560, Note_off_c, 1, 73, 0
1, 9586, Note_on_c, 1, 71, 127
1, 9586, Note_on_c, 1, 66, 127
1, 9588, Note_on_c, 1, 74, 127
1, 9590, Note_on_c, 1, 47, 127
1, 9636, Note_off_c, 1, 47, 0
1, 9641, Note_off_c, 1, 74, 0
1, 9643, Note_on_c, 1, 49, 127
1, 9649, Note_off_c, 1, 66, 0
1, 9650, Note_off_c, 1, 71, 0
1, 9697, Note_off_c, 1, 49, 0
1, 9699, Note_on_c, 1, 50, 127
1, 9708, Note_on_c, 1, 71, 127
1, 9711, Note_on_c, 1, 62, 127
1, 9713, Note_on_c, 1, 66, 127
1, 9743, Note_off_c, 1, 50, 0
1, 9759, Note_on_c, 1, 49, 127
1, 9769, Note_off_c, 1, 71, 0
1, 9776, Note_off_c, 1, 62, 0
1, 9782, Note_off_c, 1, 66, 0
1, 9802, Note_off_c, 1, 49, 0
1, 9826, Note_on_c, 1, 47, 127
1, 9828, Note_on_c, 1, 83, 127
1, 9833, Note_on_c, 1, 78, 127
1, 9834, Note_on_c, 1, 74, 127
1, 9883, Note_off_c, 1, 47, 0
1, 9904, Note_off_c, 1, 74, 0
1, 9905, Note_off_c, 1, 78, 0
1, 9929, Note_off_c, 1, 83, 0
1, 9943, Note_on_c, 1, 86, 127
1, 9950, Note_on_c, 1, 47, 127
1, 9986, Note_off_c, 1, 86, 0
1, 9997, Note_on_c, 1, 83, 127
1, 10003, Note_off_c, 1, 47, 0
1, 10027, Note_off_c, 1, 83, 0
1, 10068, Note_on_c, 1, 78, 127
1, 10070, Note_on_c, 1, 50, 127
1, 10071, Note_on_c, 1, 74, 127
1, 10071, Note_on_c, 1, 71, 127
1, 10125, Note_off_c, 1, 50, 0
1, 10138, Note_off_c, 1, 71, 0
1, 10148, Note_off_c, 1, 74, 0
1, 10169, Note_off_c, 1, 78, 0
1, 10182, Note_on_c, 1, 47, 127
1, 10191, Note_on_c, 1, 83, 127
1, 10224, Note_off_c, 1, 83, 0
1, 10239, Note_on_c, 1, 78, 127
1, 10242, Note_off_c, 1, 47, 0
1, 10276, Note_off_c, 1, 78, 0
1, 10303, Note_on_c, 1, 74, 127
1, 10303, Note_on_c, 1, 54, 127
1, 10306, Note_on_c, 1, 71, 127
1, 10306, Note_on_c, 1, 66, 127
1, 10358, Note_off_c, 1, 54, 0
1, 10379, Note_off_c, 1, 66, 0
1, 10385, Note_off_c, 1, 71, 0
1, 10406, Note_off_c, 1, 74, 0
1, 10420, Note_on_c, 1, 50, 127
1, 10428, Note_on_c, 1, 78, 127
1, 10466, Note_off_c, 1, 78, 0
1, 10484, Note_off_c, 1, 50, 0
1, 10485, Note_on_c, 1, 74, 127
1, 10522, Note_off_c, 1, 74, 0
1, 10536, Note_on_c, 1, 62, 127
1, 10541, Note_on_c, 1, 59, 127
1, 10542, Note_on_c, 1, 71, 127
1, 10550, Note_on_c, 1, 66, 127
1, 10599, Note_off_c, 1, 59, 0
1, 10626, Note_off_c, 1, 62, 0
1, 10628, Note_off_c, 1, 66, 0
1, 10668, Note_on_c, 1, 54, 127
1, 10709, Note_off_c, 1, 71, 0
1, 10725, Note_off_c, 1, 54, 0
1, 10783, Note_on_c, 1, 66, 127
1, 10787, Note_on_c, 1, 71, 127
1, 10787, Note_on_c, 1, 74, 127
1, 10790, Note_on_c, 1, 59, 127
1, 10840, Note_off_c, 1, 71, 0
1, 10843, Note_on_c, 1, 73, 127
1, 10844, Note_off_c, 1, 66, 0
1, 10848, Note_off_c, 1, 74, 0
1, 10876, Note_off_c, 1, 59, 0
1, 10897, Note_off_c, 1, 73, 0
1, 10901, Note_on_c, 1, 74, 127
1, 10904, Note_on_c, 1, 66, 127
1, 10904, Note_on_c, 1, 62, 127
1, 10906, Note_on_c, 1, 71, 127
1, 10950, Note_off_c, 1, 62, 0
1, 10959, Note_off_c, 1, 71, 0
1, 10960, Note_on_c, 1, 59, 127
1, 10962, Note_off_c, 1, 66, 0
1, 11002, Note_off_c, 1, 59, 0
1, 11028, Note_on_c, 1, 64, 127
1, 11028, Note_on_c, 1, 56, 127
1, 11081, Note_on_c, 1, 73, 127
1, 11089, Note_off_c, 1, 74, 0
1, 11090, Note_off_c, 1, 64, 0
1, 11125, Note_off_c, 1, 56, 0
1, 11130, Note_off_c, 1, 73, 0
1, 11141, Note_on_c, 1, 74, 127
1, 11143, Note_on_c, 1, 59, 127
1, 11145, Note_on_c, 1, 68, 127
1, 11147, Note_on_c, 1, 71, 127
1, 11188, Note_off_c, 1, 59, 0
1, 11197, Note_on_c, 1, 56, 127
1, 11208, Note_off_c, 1, 68, 0
1, 11210, Note_off_c, 1, 71, 0
1, 11239, Note_off_c, 1, 56, 0
1, 11268, Note_on_c, 1, 52, 127
1, 11275, Note_on_c, 1, 83, 127
1, 11290, Note_off_c, 1, 74, 0
1, 11361, Note_off_c, 1, 83, 0
1, 11367, Note_off_c, 1, 52, 0
1, 11382, Note_on_c, 1, 74, 127
1, 11385, Note_on_c, 1, 56, 127
1, 11389, Note_on_c, 1, 64, 127
1, 11390, Note_on_c, 1, 71, 127
1, 11427, Note_off_c, 1, 56, 0
1, 11435, Note_on_c, 1, 52, 127
1, 11443, Note_off_c, 1, 71, 0
1, 11451, Note_off_c, 1, 64, 0
1, 11475, Note_off_c, 1, 52, 0
1, 11476, Note_off_c, 1, 74, 0
1, 11500, Note_on_c, 1, 69, 127
1, 11505, Note_on_c, 1, 57, 127
1, 11506, Note_on_c, 1, 76, 127
1, 11509, Note_on_c, 1, 64, 127
1, 11536, Note_on_c, 1, 74, 127
1, 11539, Note_off_c, 1, 76, 0
1, 11565, Note_off_c, 1, 69, 0
1, 11570, Note_off_c, 1, 64, 0
1, 11576, Note_off_c, 1, 74, 0
1, 11597, Note_off_c, 1, 57, 0
1, 11626, Note_on_c, 1, 61, 127
1, 11627, Note_on_c, 1, 73, 127
1, 11663, Note_off_c, 1, 61, 0
1, 11709, Note_off_c, 1, 73, 0
1, 11740, Note_on_c, 1, 69, 127
1, 11746, Note_on_c, 1, 78, 127
1, 11747, Note_on_c, 1, 66, 127
1, 11751, Note_on_c, 1, 62, 127
1, 11797, Note_on_c, 1, 77, 127
1, 11804, Note_off_c, 1, 69, 0
1, 11808, Note_off_c, 1, 78, 0
1, 11811, Note_off_c, 1, 66, 0
1, 11849, Note_off_c, 1, 62, 0
1, 11854, Note_off_c, 1, 77, 0
1, 11864, Note_on_c, 1, 74, 127
1, 11866, Note_on_c, 1, 78, 127
1, 11869, Note_on_c, 1, 69, 127
1, 11873, Note_on_c, 1, 66, 127
1, 11906, Note_off_c, 1, 66, 0
1, 11924, Note_off_c, 1, 74, 0
1, 11928, Note_on_c, 1, 62, 127
1, 11930, Note_off_c, 1, 69, 0
1, 11970, Note_off_c, 1, 62, 0
1, 11982, Note_on_c, 1, 68, 127
1, 11997, Note_on_c, 1, 59, 127
1, 12036, Note_on_c, 1, 77, 127
1, 12052, Note_off_c, 1, 78, 0
1, 12055, Note_off_c, 1, 68, 0
1, 12076, Note_off_c, 1, 59, 0
1, 12079, Note_off_c, 1, 77, 0
1, 12101, Note_on_c, 1, 78, 127
1, 12101, Note_on_c, 1, 74, 127
1, 12107, Note_on_c, 1, 71, 127
1, 12110, Note_on_c, 1, 62, 127
1, 12148, Note_off_c, 1, 62, 0
1, 12158, Note_off_c, 1, 74, 0
1, 12159, Note_on_c, 1, 59, 127
1, 12167, Note_off_c, 1, 71, 0
1, 12201, Note_off_c, 1, 59, 0
1, 12229, Note_on_c, 1, 56, 127
1, 12234, Note_on_c, 1, 86, 127
1, 12249, Note_off_c, 1, 78, 0
1, 12317, Note_off_c, 1, 56, 0
1, 12319, Note_off_c, 1, 86, 0
1, 12336, Note_on_c, 1, 78, 127
1, 12338, Note_on_c, 1, 68, 127
1, 12340, Note_on_c, 1, 74, 127
1, 12341, Note_on_c, 1, 59, 127
1, 12393, Note_off_c, 1, 59, 0
1, 12396, Note_off_c, 1, 68, 0
1, 12400, Note_on_c, 1, 56, 127
1, 12406, Note_off_c, 1, 74, 0
1, 12425, Note_off_c, 1, 78, 0
1, 12438, Note_off_c, 1, 56, 0
1, 12459, Note_on_c, 1, 80, 127
1, 12462, Note_on_c, 1, 73, 127
1, 12462, Note_on_c, 1, 68, 127
1, 12465, Note_on_c, 1, 61, 127
1, 12481, Note_on_c, 1, 78, 127
1, 12502, Note_off_c, 1, 80, 0
1, 12517, Note_off_c, 1, 61, 0
1, 12523, Note_off_c, 1, 73, 0
1, 12523, Note_on_c, 1, 62, 127
1, 12529, Note_off_c, 1, 68, 0
1, 12531, Note_off_c, 1, 78, 0
1, 12562, Note_off_c, 1, 62, 0
1, 12568, Note_on_c, 1, 77, 127
1, 12639, Note_on_c, 1, 59, 127
1, 12655, Note_off_c, 1, 77, 0
1, 12683, Note_off_c, 1, 59, 0
1, 12701, Note_on_c, 1, 78, 127
1, 12702, Note_on_c, 1, 73, 127
1, 12702, Note_on_c, 1, 66, 127
1, 12704, Note_on_c, 1, 57, 127
1, 12760, Note_off_c, 1, 78, 0
1, 12765, Note_off_c, 1, 66, 0
1, 12772, Note_off_c, 1, 57, 0
1, 12774, Note_off_c, 1, 73, 0
1, 12821, Note_on_c, 1, 78, 127
1, 12823, Note_on_c, 1, 73, 127
1, 12825, Note_on_c, 1, 81, 127
1, 12825, Note_on_c, 1, 54, 127
1, 12879, Note_off_c, 1, 78, 0
1, 12881, Note_off_c, 1, 73, 0
1, 12881, Note_off_c, 1, 81, 0
1, 12881, Note_off_c, 1, 54, 0
1, 12890, Note_on_c, 1, 78, 127
1, 12931, Note_off_c, 1, 78, 0
1, 12939, Note_on_c, 1, 59, 127
1, 12945, Note_on_c, 1, 74, 127
1, 12946, Note_on_c, 1, 80, 127
1, 12948, Note_on_c, 1, 78, 127
1, 12998, Note_off_c, 1, 59, 0
1, 13004, Note_off_c, 1, 80, 0
1, 13015, Note_off_c, 1, 74, 0
1, 13040, Note_off_c, 1, 78, 0
1, 13063, Note_on_c, 1, 56, 127
1, 13064, Note_on_c, 1, 74, 127
1, 13064, Note_on_c, 1, 80, 127
1, 13069, Note_on_c, 1, 78, 127
1, 13120, Note_off_c, 1, 56, 0
1, 13124, Note_off_c, 1, 74, 0
1, 13126, Note_off_c, 1, 80, 0
1, 13165, Note_off_c, 1, 78, 0
1, 13182, Note_on_c, 1, 77, 127
1, 13183, Note_on_c, 1, 80, 127
1, 13187, Note_on_c, 1, 73, 127
1, 13191, Note_on_c, 1, 61, 127
1, 13236, Note_off_c, 1, 80, 0
1, 13241, Note_off_c, 1, 61, 0
1, 13245, Note_off_c, 1, 73, 0
1, 13249, Note_off_c, 1, 77, 0
1, 13301, Note_on_c, 1, 83, 127
1, 13303, Note_on_c, 1, 73, 127
1, 13304, Note_on_c, 1, 77, 127
1, 13308, Note_on_c, 1, 49, 127
1, 13351, Note_off_c, 1, 73, 0
1, 13354, Note_off_c, 1, 83, 0
1, 13362, Note_on_c, 1, 80, 127
1, 13368, Note_off_c, 1, 77, 0
1, 13368, Note_off_c, 1, 49, 0
1, 13393, Note_off_c, 1, 80, 0
1, 13421, Note_on_c, 1, 54, 127
1, 13422, Note_on_c, 1, 81, 127
1, 13422, Note_on_c, 1, 78, 127
1, 13427, Note_on_c, 1, 61, 127
1, 13476, Note_off_c, 1, 54, 0
1, 13479, Note_off_c, 1, 81, 0
1, 13480, Note_off_c, 1, 78, 0
1, 13480, Note_off_c, 1, 61, 0
1, 13485, Note_on_c, 1, 80, 127
1, 13518, Note_off_c, 1, 80, 0
1, 13540, Note_on_c, 1, 78, 127
1, 13540, Note_on_c, 1, 69, 127
1, 13540, Note_on_c, 1, 73, 127
1, 13544, Note_on_c, 1, 81, 127
1, 13547, Note_on_c, 1, 42, 127
1, 13588, Note_off_c, 1, 81, 0
1, 13588, Note_on_c, 1, 77, 127
1, 13602, Note_off_c, 1, 78, 0
1, 13603, Note_off_c, 1, 42, 0
1, 13606, Note_off_c, 1, 69, 0
1, 13607, Note_on_c, 1, 80, 127
1, 13612, Note_off_c, 1, 73, 0
1, 13642, Note_off_c, 1, 77, 0
1, 13643, Note_off_c, 1, 80, 0
1, 13656, Note_on_c, 1, 78, 127
1, 13664, Note_on_c, 1, 69, 127
1, 13664, Note_on_c, 1, 54, 127
1, 13666, Note_on_c, 1, 73, 127
1, 13714, Note_off_c, 1, 78, 0
1, 13725, Note_off_c, 1, 54, 0
1, 13729, Note_on_c, 1, 81, 127
1, 13735, Note_off_c, 1, 73, 0
1, 13736, Note_off_c, 1, 69, 0
1, 13759, Note_off_c, 1, 81, 0
1, 13780, Note_on_c, 1, 73, 127
1, 13785, Note_on_c, 1, 57, 127
1, 13790, Note_on_c, 1, 78, 127
1, 13831, Note_off_c, 1, 57, 0
1, 13838, Note_off_c, 1, 73, 0
1, 13843, Note_on_c, 1, 77, 127
1, 13859, Note_off_c, 1, 78, 0
1, 13900, Note_off_c, 1, 77, 0
1, 13905, Note_on_c, 1, 78, 127
1, 13909, Note_on_c, 1, 50, 127
1, 13910, Note_on_c, 1, 71, 127
1, 13911, Note_on_c, 1, 66, 127
1, 13957, Note_off_c, 1, 78, 0
1, 13967, Note_on_c, 1, 83, 127
1, 13970, Note_off_c, 1, 50, 0
1, 13981, Note_off_c, 1, 66, 0
1, 13986, Note_off_c, 1, 71, 0
1, 14000, Note_off_c, 1, 83, 0
1, 14027, Note_on_c, 1, 71, 127
1, 14027, Note_on_c, 1, 78, 127
1, 14032, Note_on_c, 1, 59, 127
1, 14080, Note_on_c, 1, 77, 127
1, 14086, Note_off_c, 1, 71, 0
1, 14091, Note_off_c, 1, 59, 0
1, 14101, Note_off_c, 1, 78, 0
1, 14147, Note_on_c, 1, 69, 127
1, 14155, Note_off_c, 1, 77, 0
1, 14156, Note_on_c, 1, 49, 127
1, 14210, Note_on_c, 1, 85, 127
1, 14220, Note_off_c, 1, 49, 0
1, 14228, Note_off_c, 1, 69, 0
1, 14254, Note_off_c, 1, 85, 0
1, 14267, Note_on_c, 1, 78, 127
1, 14268, Note_on_c, 1, 69, 127
1, 14270, Note_on_c, 1, 61, 127
1, 14323, Note_off_c, 1, 69, 0
1, 14326, Note_off_c, 1, 61, 0
1, 14327, Note_off_c, 1, 78, 0
1, 14327, Note_on_c, 1, 77, 127
1, 14389, Note_on_c, 1, 47, 127
1, 14391, Note_on_c, 1, 71, 127
1, 14394, Note_on_c, 1, 68, 127
1, 14397, Note_off_c, 1, 77, 0
1, 14445, Note_on_c, 1, 86, 127
1, 14455, Note_off_c, 1, 47, 0
1, 14460, Note_off_c, 1, 71, 0
1, 14473, Note_off_c, 1, 68, 0
1, 14482, Note_off_c, 1, 86, 0
1, 14502, Note_on_c, 1, 62, 127
1, 14503, Note_on_c, 1, 78, 127
1, 14509, Note_on_c, 1, 68, 127
1, 14554, Note_off_c, 1, 68, 0
1, 14555, Note_off_c, 1, 78, 0
1, 14559, Note_on_c, 1, 77, 127
1, 14562, Note_off_c, 1, 62, 0
1, 14620, Note_on_c, 1, 59, 127
1, 14632, Note_on_c, 1, 71, 127
1, 14635, Note_off_c, 1, 77, 0
1, 14678, Note_on_c, 1, 86, 127
1, 14681, Note_off_c, 1, 59, 0
1, 14691, Note_off_c, 1, 71, 0
1, 14717, Note_off_c, 1, 86, 0
1, 14737, Note_on_c, 1, 85, 127
1, 14741, Note_on_c, 1, 56, 127
1, 14745, Note_on_c, 1, 77, 127
1, 14749, Note_on_c, 1, 74, 127
1, 14749, Note_on_c, 1, 71, 127
1, 14774, Note_off_c, 1, 85, 0
1, 14799, Note_on_c, 1, 83, 127
1, 14805, Note_off_c, 1, 71, 0
1, 14808, Note_off_c, 1, 77, 0
1, 14809, Note_off_c, 1, 56, 0
1, 14813, Note_off_c, 1, 74, 0
1, 14846, Note_off_c, 1, 83, 0
1, 14856, Note_on_c, 1, 78, 127
1, 14865, Note_on_c, 1, 73, 127
1, 14865, Note_on_c, 1, 57, 127
1, 14871, Note_on_c, 1, 69, 127
1, 14871, Note_on_c, 1, 85, 127
1, 14910, Note_off_c, 1, 85, 0
1, 14912, Note_off_c, 1, 78, 0
1, 14928, Note_on_c, 1, 81, 127
1, 14930, Note_off_c, 1, 73, 0
1, 14933, Note_off_c, 1, 57, 0
1, 14933, Note_off_c, 1, 69, 0
1, 14968, Note_off_c, 1, 81, 0
1, 14981, Note_on_c, 1, 80, 127
1, 14984, Note_on_c, 1, 71, 127
1, 14989, Note_on_c, 1, 59, 127
1, 14991, Note_on_c, 1, 74, 127
1, 15035, Note_on_c, 1, 78, 127
1, 15039, Note_off_c, 1, 80, 0
1, 15044, Note_off_c, 1, 59, 0
1, 15046, Note_off_c, 1, 71, 0
1, 15057, Note_off_c, 1, 74, 0
1, 15077, Note_off_c, 1, 78, 0
1, 15102, Note_on_c, 1, 69, 127
1, 15104, Note_on_c, 1, 73, 127
1, 15109, Note_on_c, 1, 61, 127
1, 15110, Note_on_c, 1, 81, 127
1, 15160, Note_off_c, 1, 81, 0
1, 15161, Note_off_c, 1, 69, 0
1, 15162, Note_off_c, 1, 61, 0
1, 15166, Note_off_c, 1, 73, 0
1, 15224, Note_on_c, 1, 73, 127
1, 15227, Note_on_c, 1, 77, 127
1, 15230, Note_on_c, 1, 71, 127
1, 15230, Note_on_c, 1, 81, 127
1, 15233, Note_on_c, 1, 49, 127
1, 15253, Note_on_c, 1, 80, 127
1, 15257, Note_off_c, 1, 81, 0
1, 15277, Note_off_c, 1, 73, 0
1, 15280, Note_off_c, 1, 77, 0
1, 15281, Note_off_c, 1, 80, 0
1, 15282, Note_off_c, 1, 49, 0
1, 15284, Note_off_c, 1, 71, 0
1, 15345, Note_on_c, 1, 78, 127
1, 15348, Note_on_c, 1, 54, 127
1, 15351, Note_on_c, 1, 69, 127
1, 15468, Note_off_c, 1, 54, 0
1, 15478, Note_off_c, 1, 78, 0
1, 15483, Note_off_c, 1, 69, 0
1, 15587, Note_on_c, 1, 69, 127
1, 15589, Note_on_c, 1, 78, 127
1, 15597, Note_on_c, 1, 73, 127
1, 15599, Note_on_c, 1, 42, 127
1, 15655, Note_off_c, 1, 42, 0
1, 15663, Note_off_c, 1, 69, 0
1, 15670, Note_off_c, 1, 73, 0
1, 15693, Note_off_c, 1, 78, 0
1, 15716, Note_on_c, 1, 81, 127
1, 15717, Note_on_c, 1, 42, 127
1, 15757, Note_off_c, 1, 81, 0
1, 15776, Note_off_c, 1, 42, 0
1, 15776, Note_on_c, 1, 78, 127
1, 15802, Note_off_c, 1, 78, 0
1, 15822, Note_on_c, 1, 66, 127
1, 15827, Note_on_c, 1, 73, 127
1, 15830, Note_on_c, 1, 69, 127
1, 15832, Note_on_c, 1, 45, 127
1, 15883, Note_off_c, 1, 45, 0
1, 15903, Note_off_c, 1, 69, 0
1, 15905, Note_off_c, 1, 66, 0
1, 15944, Note_on_c, 1, 42, 127
1, 15946, Note_off_c, 1, 73, 0
1, 15954, Note_on_c, 1, 78, 127
1, 15993, Note_off_c, 1, 78, 0
1, 15995, Note_off_c, 1, 42, 0
1, 16013, Note_on_c, 1, 73, 127
1, 16054, Note_off_c, 1, 73, 0
1, 16064, Note_on_c, 1, 69, 127
1, 16065, Note_on_c, 1, 49, 127
1, 16069, Note_on_c, 1, 66, 127
1, 16073, Note_on_c, 1, 61, 127
1, 16118, Note_off_c, 1, 49, 0
1, 16145, Note_off_c, 1, 61, 0
1, 16149, Note_off_c, 1, 66, 0
1, 16182, Note_off_c, 1, 69, 0
1, 16187, Note_on_c, 1, 45, 127
1, 16201, Note_on_c, 1, 73, 127
1, 16233, Note_off_c, 1, 73, 0
1, 16240, Note_off_c, 1, 45, 0
1, 16243, Note_on_c, 1, 69, 127
1, 16292, Note_off_c, 1, 69, 0
1, 16306, Note_on_c, 1, 57, 127
1, 16310, Note_on_c, 1, 66, 127
1, 16312, Note_on_c, 1, 61, 127
1, 16313, Note_on_c, 1, 54, 127
1, 16390, Note_off_c, 1, 57, 0
1, 16401, Note_off_c, 1, 61, 0
1, 16409, Note_off_c, 1, 54, 0
1, 16439, Note_off_c, 1, 66, 0
1, 16545, Note_on_c, 1, 66, 127
1, 16545, Note_on_c, 1, 51, 127
1, 16549, Note_on_c, 1, 54, 127
1, 16553, Note_on_c, 1, 72, 127
1, 16558, Note_on_c, 1, 69, 127
1, 16635, Note_off_c, 1, 66, 0
1, 16635, Note_off_c, 1, 54, 0
1, 16635, Note_off_c, 1, 69, 0
1, 16639, Note_off_c, 1, 51, 0
1, 16664, Note_on_c, 1, 71, 127
1, 16678, Note_off_c, 1, 72, 0
1, 16741, Note_off_c, 1, 71, 0
1, 16783, Note_on_c, 1, 47, 127
1, 16785, Note_on_c, 1, 64, 127
1, 16789, Note_on_c, 1, 76, 127
1, 16796, Note_on_c, 1, 67, 127
1, 16797, Note_on_c, 1, 55, 127
1, 16879, Note_off_c, 1, 64, 0
1, 16881, Note_off_c, 1, 67, 0
1, 16886, Note_off_c, 1, 55, 0
1, 16889, Note_off_c, 1, 47, 0
1, 16898, Note_off_c, 1, 76, 0
1, 16905, Note_on_c, 1, 47, 127
1, 16910, Note_on_c, 1, 75, 127
1, 16958, Note_off_c, 1, 75, 0
1, 16964, Note_on_c, 1, 78, 127
1, 17001, Note_off_c, 1, 78, 0
1, 17005, Note_off_c, 1, 47, 0
1, 17025, Note_on_c, 1, 47, 127
1, 17030, Note_on_c, 1, 81, 127
1, 17031, Note_on_c, 1, 59, 127
1, 17034, Note_on_c, 1, 63, 127
1, 17035, Note_on_c, 1, 66, 127
1, 17106, Note_off_c, 1, 81, 0
1, 17113, Note_off_c, 1, 47, 0
1, 17115, Note_off_c, 1, 59, 0
1, 17120, Note_off_c, 1, 63, 0
1, 17122, Note_off_c, 1, 66, 0
1, 17136, Note_on_c, 1, 47, 127
1, 17140, Note_on_c, 1, 79, 127
1, 17177, Note_off_c, 1, 79, 0
1, 17196, Note_on_c, 1, 78, 127
1, 17215, Note_off_c, 1, 47, 0
1, 17232, Note_off_c, 1, 78, 0
1, 17260, Note_on_c, 1, 52, 127
1, 17261, Note_on_c, 1, 64, 127
1, 17263, Note_on_c, 1, 79, 127
1, 17271, Note_on_c, 1, 59, 127
1, 17308, Note_off_c, 1, 79, 0
1, 17341, Note_off_c, 1, 52, 0
1, 17361, Note_off_c, 1, 59, 0
1, 17362, Note_off_c, 1, 64, 0
1, 17377, Note_on_c, 1, 59, 127
1, 17390, Note_on_c, 1, 76, 127
1, 17428, Note_off_c, 1, 59, 0
1, 17431, Note_off_c, 1, 76, 0
1, 17431, Note_on_c, 1, 55, 127
1, 17474, Note_off_c, 1, 55, 0
1, 17496, Note_on_c, 1, 52, 127
1, 17508, Note_on_c, 1, 79, 127
1, 17511, Note_on_c, 1, 71, 127
1, 17512, Note_on_c, 1, 76, 127
1, 17586, Note_off_c, 1, 52, 0
1, 17596, Note_off_c, 1, 76, 0
1, 17597, Note_off_c, 1, 71, 0
1, 17617, Note_off_c, 1, 79, 0
1, 17617, Note_on_c, 1, 55, 127
1, 17628, Note_on_c, 1, 83, 127
1, 17668, Note_off_c, 1, 83, 0
1, 17671, Note_off_c, 1, 55, 0
1, 17742, Note_on_c, 1, 49, 127
1, 17746, Note_on_c, 1, 79, 127
1, 17747, Note_on_c, 1, 76, 127
1, 17753, Note_on_c, 1, 69, 127
1, 17817, Note_off_c, 1, 49, 0
1, 17831, Note_off_c, 1, 79, 0
1, 17834, Note_off_c, 1, 69, 0
1, 17844, Note_off_c, 1, 76, 0
1, 17870, Note_on_c, 1, 45, 127
1, 17870, Note_on_c, 1, 79, 127
1, 17908, Note_off_c, 1, 79, 0
1, 17925, Note_on_c, 1, 76, 127
1, 17939, Note_off_c, 1, 45, 0
1, 17959, Note_off_c, 1, 76, 0
1, 17982, Note_on_c, 1, 76, 127
1, 17990, Note_on_c, 1, 73, 127
1, 17993, Note_on_c, 1, 69, 127
1, 17993, Note_on_c, 1, 52, 127
1, 18049, Note_off_c, 1, 52, 0
1, 18071, Note_off_c, 1, 76, 0
1, 18083, Note_off_c, 1, 69, 0
1, 18091, Note_off_c, 1, 73, 0
1, 18104, Note_on_c, 1, 49, 127
1, 18112, Note_on_c, 1, 76, 127
1, 18152, Note_off_c, 1, 76, 0
1, 18164, Note_on_c, 1, 73, 127
1, 18165, Note_off_c, 1, 49, 0
1, 18200, Note_off_c, 1, 73, 0
1, 18229, Note_on_c, 1, 64, 127
1, 18230, Note_on_c, 1, 55, 127
1, 18231, Note_on_c, 1, 69, 127
1, 18232, Note_on_c, 1, 73, 127
1, 18302, Note_off_c, 1, 55, 0
1, 18324, Note_off_c, 1, 64, 0
1, 18326, Note_off_c, 1, 73, 0
1, 18345, Note_on_c, 1, 52, 127
1, 18427, Note_off_c, 1, 52, 0
1, 18466, Note_on_c, 1, 54, 127
1, 18470, Note_on_c, 1, 74, 127
1, 18537, Note_off_c, 1, 69, 0
1, 18539, Note_off_c, 1, 54, 0
1, 18568, Note_off_c, 1, 74, 0
1, 18583, Note_on_c, 1, 78, 127
1, 18588, Note_on_c, 1, 74, 127
1, 18589, Note_on_c, 1, 66, 127
1, 18589, Note_on_c, 1, 59, 127
1, 18644, Note_off_c, 1, 78, 0
1, 18644, Note_off_c, 1, 66, 0
1, 18649, Note_off_c, 1, 59, 0
1, 18679, Note_off_c, 1, 74, 0
1, 18702, Note_on_c, 1, 71, 127
1, 18704, Note_on_c, 1, 76, 127
1, 18705, Note_on_c, 1, 55, 127
1, 18710, Note_on_c, 1, 74, 127
1, 18757, Note_off_c, 1, 71, 0
1, 18767, Note_off_c, 1, 76, 0
1, 18775, Note_off_c, 1, 55, 0
1, 18804, Note_off_c, 1, 74, 0
1, 18817, Note_on_c, 1, 67, 127
1, 18821, Note_on_c, 1, 52, 127
1, 18826, Note_on_c, 1, 76, 127
1, 18831, Note_on_c, 1, 74, 127
1, 18879, Note_off_c, 1, 67, 0
1, 18885, Note_off_c, 1, 76, 0
1, 18886, Note_off_c, 1, 52, 0
1, 18933, Note_off_c, 1, 74, 0
1, 18940, Note_on_c, 1, 57, 127
1, 18944, Note_on_c, 1, 69, 127
1, 18946, Note_on_c, 1, 76, 127
1, 18948, Note_on_c, 1, 73, 127
1, 19004, Note_off_c, 1, 57, 0
1, 19008, Note_off_c, 1, 69, 0
1, 19009, Note_off_c, 1, 73, 0
1, 19060, Note_off_c, 1, 76, 0
1, 19062, Note_on_c, 1, 69, 127
1, 19066, Note_on_c, 1, 79, 127
1, 19066, Note_on_c, 1, 45, 127
1, 19068, Note_on_c, 1, 73, 127
1, 19119, Note_off_c, 1, 73, 0
1, 19121, Note_on_c, 1, 76, 127
1, 19126, Note_off_c, 1, 79, 0
1, 19127, Note_off_c, 1, 69, 0
1, 19135, Note_off_c, 1, 45, 0
1, 19168, Note_off_c, 1, 76, 0
1, 19183, Note_on_c, 1, 78, 127
1, 19184, Note_on_c, 1, 50, 127
1, 19188, Note_on_c, 1, 57, 127
1, 19189, Note_on_c, 1, 74, 127
1, 19238, Note_on_c, 1, 76, 127
1, 19246, Note_off_c, 1, 74, 0
1, 19252, Note_off_c, 1, 50, 0
1, 19256, Note_off_c, 1, 78, 0
1, 19256, Note_off_c, 1, 57, 0
1, 19282, Note_off_c, 1, 76, 0
1, 19298, Note_on_c, 1, 69, 127
1, 19299, Note_on_c, 1, 78, 127
1, 19304, Note_on_c, 1, 66, 127
1, 19306, Note_on_c, 1, 74, 127
1, 19310, Note_on_c, 1, 38, 127
1, 19348, Note_off_c, 1, 78, 0
1, 19357, Note_on_c, 1, 73, 127
1, 19359, Note_off_c, 1, 69, 0
1, 19362, Note_on_c, 1, 76, 127
1, 19365, Note_off_c, 1, 66, 0
1, 19366, Note_off_c, 1, 74, 0
1, 19374, Note_off_c, 1, 38, 0
1, 19400, Note_off_c, 1, 76, 0
1, 19407, Note_off_c, 1, 73, 0
1, 19421, Note_on_c, 1, 74, 127
1, 19425, Note_on_c, 1, 66, 127
1, 19427, Note_on_c, 1, 48, 127
1, 19428, Note_on_c, 1, 69, 127
1, 19477, Note_on_c, 1, 78, 127
1, 19478, Note_off_c, 1, 74, 0
1, 19491, Note_off_c, 1, 48, 0
1, 19508, Note_off_c, 1, 78, 0
1, 19512, Note_off_c, 1, 69, 0
1, 19515, Note_off_c, 1, 66, 0
1, 19533, Note_on_c, 1, 74, 127
1, 19546, Note_on_c, 1, 54, 127
1, 19548, Note_on_c, 1, 69, 127
1, 19594, Note_on_c, 1, 73, 127
1, 19601, Note_off_c, 1, 69, 0
1, 19606, Note_off_c, 1, 74, 0
1, 19607, Note_off_c, 1, 54, 0
1, 19663, Note_on_c, 1, 62, 127
1, 19664, Note_off_c, 1, 73, 0
1, 19672, Note_on_c, 1, 47, 127
1, 19673, Note_on_c, 1, 67, 127
1, 19719, Note_on_c, 1, 79, 127
1, 19740, Note_off_c, 1, 47, 0
1, 19746, Note_off_c, 1, 62, 0
1, 19752, Note_off_c, 1, 67, 0
1, 19781, Note_off_c, 1, 79, 0
1, 19783, Note_on_c, 1, 55, 127
1, 19844, Note_off_c, 1, 55, 0
1, 19901, Note_on_c, 1, 66, 127
1, 19907, Note_on_c, 1, 45, 127
1, 19958, Note_on_c, 1, 81, 127
1, 19970, Note_off_c, 1, 45, 0
1, 19988, Note_off_c, 1, 66, 0
1, 20007, Note_off_c, 1, 81, 0
1, 20016, Note_on_c, 1, 57, 127
1, 20019, Note_on_c, 1, 74, 127
1, 20023, Note_on_c, 1, 66, 127
1, 20075, Note_off_c, 1, 66, 0
1, 20077, Note_off_c, 1, 57, 0
1, 20078, Note_on_c, 1, 73, 127
1, 20084, Note_off_c, 1, 74, 0
1, 20140, Note_on_c, 1, 43, 127
1, 20142, Note_off_c, 1, 73, 0
1, 20142, Note_on_c, 1, 67, 127
1, 20144, Note_on_c, 1, 64, 127
1, 20198, Note_on_c, 1, 83, 127
1, 20201, Note_off_c, 1, 43, 0
1, 20230, Note_off_c, 1, 64, 0
1, 20236, Note_off_c, 1, 67, 0
1, 20246, Note_off_c, 1, 83, 0
1, 20255, Note_on_c, 1, 59, 127
1, 20260, Note_on_c, 1, 64, 127
1, 20262, Note_on_c, 1, 74, 127
1, 20316, Note_off_c, 1, 74, 0
1, 20317, Note_off_c, 1, 64, 0
1, 20320, Note_off_c, 1, 59, 0
1, 20323, Note_on_c, 1, 73, 127
1, 20376, Note_on_c, 1, 55, 127
1, 20377, Note_on_c, 1, 74, 127
1, 20381, Note_on_c, 1, 64, 127
1, 20382, Note_on_c, 1, 71, 127
1, 20385, Note_off_c, 1, 73, 0
1, 20429, Note_off_c, 1, 74, 0
1, 20437, Note_off_c, 1, 55, 0
1, 20443, Note_off_c, 1, 64, 0
1, 20445, Note_off_c, 1, 71, 0
1, 20447, Note_on_c, 1, 83, 127
1, 20487, Note_off_c, 1, 83, 0
1, 20494, Note_on_c, 1, 52, 127
1, 20500, Note_on_c, 1, 67, 127
1, 20502, Note_on_c, 1, 73, 127
1, 20503, Note_on_c, 1, 76, 127
1, 20507, Note_on_c, 1, 81, 127
1, 20557, Note_off_c, 1, 52, 0
1, 20558, Note_off_c, 1, 81, 0
1, 20560, Note_off_c, 1, 67, 0
1, 20563, Note_off_c, 1, 73, 0
1, 20565, Note_off_c, 1, 76, 0
1, 20570, Note_on_c, 1, 79, 127
1, 20602, Note_off_c, 1, 79, 0
1, 20617, Note_on_c, 1, 66, 127
1, 20619, Note_on_c, 1, 74, 127
1, 20623, Note_on_c, 1, 69, 127
1, 20625, Note_on_c, 1, 54, 127
1, 20630, Note_on_c, 1, 81, 127
1, 20677, Note_off_c, 1, 81, 0
1, 20680, Note_off_c, 1, 74, 0
1, 20686, Note_on_c, 1, 78, 127
1, 20687, Note_off_c, 1, 66, 0
1, 20691, Note_off_c, 1, 69, 0
1, 20691, Note_off_c, 1, 54, 0
1, 20731, Note_off_c, 1, 78, 0
1, 20736, Note_on_c, 1, 71, 127
1, 20738, Note_on_c, 1, 55, 127
1, 20739, Note_on_c, 1, 76, 127
1, 20742, Note_on_c, 1, 67, 127
1, 20797, Note_on_c, 1, 74, 127
1, 20802, Note_off_c, 1, 67, 0
1, 20804, Note_off_c, 1, 71, 0
1, 20809, Note_off_c, 1, 76, 0
1, 20810, Note_off_c, 1, 55, 0
1, 20845, Note_off_c, 1, 74, 0
1, 20855, Note_on_c, 1, 69, 127
1, 20858, Note_on_c, 1, 57, 127
1, 20863, Note_on_c, 1, 66, 127
1, 20867, Note_on_c, 1, 78, 127
1, 20913, Note_off_c, 1, 57, 0
1, 20918, Note_off_c, 1, 69, 0
1, 20925, Note_off_c, 1, 66, 0
1, 20935, Note_off_c, 1, 78, 0
1, 20979, Note_on_c, 1, 67, 127
1, 20980, Note_on_c, 1, 78, 127
1, 20981, Note_on_c, 1, 45, 127
1, 20984, Note_on_c, 1, 73, 127
1, 20987, Note_on_c, 1, 69, 127
1, 21006, Note_on_c, 1, 76, 127
1, 21009, Note_off_c, 1, 78, 0
1, 21028, Note_off_c, 1, 73, 0
1, 21028, Note_off_c, 1, 69, 0
1, 21037, Note_off_c, 1, 45, 0
1, 21038, Note_off_c, 1, 76, 0
1, 21042, Note_off_c, 1, 67, 0
1, 21102, Note_on_c, 1, 50, 127
1, 21102, Note_on_c, 1, 74, 127
1, 21110, Note_on_c, 1, 66, 127
1, 21112, Note_on_c, 1, 69, 127
1, 21169, Note_off_c, 1, 50, 0
1, 21228, Note_on_c, 1, 45, 127
1, 21249, Note_off_c, 1, 74, 0
1, 21259, Note_off_c, 1, 69, 0
1, 21260, Note_off_c, 1, 66, 0
1, 21275, Note_on_c, 1, 42, 127
1, 21282, Note_off_c, 1, 45, 0
1, 21316, Note_off_c, 1, 42, 0
1, 21340, Note_on_c, 1, 38, 127
1, 21349, Note_on_c, 1, 78, 127
1, 21352, Note_on_c, 1, 74, 127
1, 21355, Note_on_c, 1, 69, 127
1, 21400, Note_on_c, 1, 76, 127
1, 21401, Note_off_c, 1, 69, 0
1, 21407, Note_off_c, 1, 38, 0
1, 21407, Note_off_c, 1, 78, 0
1, 21408, Note_off_c, 1, 74, 0
1, 21452, Note_off_c, 1, 76, 0
1, 21462, Note_on_c, 1, 78, 127
1, 21463, Note_on_c, 1, 62, 127
1, 21469, Note_on_c, 1, 69, 127
1, 21470, Note_on_c, 1, 74, 127
1, 21512, Note_on_c, 1, 57, 127
1, 21515, Note_off_c, 1, 62, 0
1, 21522, Note_off_c, 1, 74, 0
1, 21527, Note_off_c, 1, 69, 0
1, 21558, Note_off_c, 1, 57, 0
1, 21575, Note_on_c, 1, 54, 127
1, 21639, Note_off_c, 1, 78, 0
1, 21640, Note_on_c, 1, 76, 127
1, 21652, Note_off_c, 1, 54, 0
1, 21679, Note_off_c, 1, 76, 0
1, 21703, Note_on_c, 1, 69, 127
1, 21706, Note_on_c, 1, 78, 127
1, 21706, Note_on_c, 1, 74, 127
1, 21706, Note_on_c, 1, 57, 127
1, 21750, Note_off_c, 1, 57, 0
1, 21751, Note_off_c, 1, 74, 0
1, 21755, Note_on_c, 1, 54, 127
1, 21761, Note_off_c, 1, 69, 0
1, 21796, Note_off_c, 1, 54, 0
1, 21819, Note_on_c, 1, 50, 127
1, 21823, Note_on_c, 1, 66, 127
1, 21832, Note_on_c, 1, 86, 127
1, 21858, Note_off_c, 1, 78, 0
1, 21874, Note_off_c, 1, 66, 0
1, 21899, Note_off_c, 1, 50, 0
1, 21923, Note_off_c, 1, 86, 0
1, 21937, Note_on_c, 1, 78, 127
1, 21940, Note_on_c, 1, 69, 127
1, 21941, Note_on_c, 1, 54, 127
1, 21950, Note_on_c, 1, 74, 127
1, 21984, Note_off_c, 1, 69, 0
1, 21987, Note_on_c, 1, 50, 127
1, 21996, Note_off_c, 1, 54, 0
1, 22000, Note_off_c, 1, 74, 0
1, 22031, Note_off_c, 1, 50, 0
1, 22033, Note_off_c, 1, 78, 0
1, 22061, Note_on_c, 1, 76, 127
1, 22065, Note_on_c, 1, 79, 127
1, 22065, Note_on_c, 1, 69, 127
1, 22066, Note_on_c, 1, 57, 127
1, 22070, Note_on_c, 1, 55, 127
1, 22080, Note_off_c, 1, 55, 0
1, 22088, Note_on_c, 1, 74, 127
1, 22094, Note_on_c, 1, 78, 127
1, 22098, Note_off_c, 1, 76, 0
1, 22105, Note_off_c, 1, 79, 0
1, 22122, Note_off_c, 1, 74, 0
1, 22135, Note_off_c, 1, 57, 0
1, 22136, Note_off_c, 1, 78, 0
1, 22184, Note_on_c, 1, 52, 127
1, 22185, Note_on_c, 1, 73, 127
1, 22216, Note_off_c, 1, 69, 0
1, 22224, Note_off_c, 1, 73, 0
1, 22232, Note_off_c, 1, 52, 0
1, 22237, Note_on_c, 1, 49, 127
1, 22278, Note_off_c, 1, 49, 0
1, 22304, Note_on_c, 1, 46, 127
1, 22307, Note_on_c, 1, 76, 127
1, 22311, Note_on_c, 1, 66, 127
1, 22314, Note_on_c, 1, 73, 127
1, 22360, Note_on_c, 1, 74, 127
1, 22362, Note_off_c, 1, 46, 0
1, 22368, Note_off_c, 1, 66, 0
1, 22368, Note_off_c, 1, 73, 0
1, 22372, Note_off_c, 1, 76, 0
1, 22409, Note_off_c, 1, 74, 0
1, 22426, Note_on_c, 1, 76, 127
1, 22428, Note_on_c, 1, 64, 127
1, 22429, Note_on_c, 1, 73, 127
1, 22432, Note_on_c, 1, 70, 127
1, 22473, Note_off_c, 1, 64, 0
1, 22480, Note_off_c, 1, 70, 0
1, 22485, Note_on_c, 1, 61, 127
1, 22486, Note_off_c, 1, 73, 0
1, 22523, Note_off_c, 1, 61, 0
1, 22544, Note_on_c, 1, 58, 127
1, 22545, Note_on_c, 1, 66, 127
1, 22599, Note_off_c, 1, 66, 0
1, 22600, Note_on_c, 1, 74, 127
1, 22610, Note_off_c, 1, 76, 0
1, 22620, Note_off_c, 1, 58, 0
1, 22644, Note_off_c, 1, 74, 0
1, 22662, Note_on_c, 1, 70, 127
1, 22664, Note_on_c, 1, 73, 127
1, 22666, Note_on_c, 1, 76, 127
1, 22668, Note_on_c, 1, 61, 127
1, 22713, Note_off_c, 1, 70, 0
1, 22715, Note_on_c, 1, 58, 127
1, 22718, Note_off_c, 1, 73, 0
1, 22720, Note_off_c, 1, 61, 0
1, 22760, Note_off_c, 1, 58, 0
1, 22782, Note_on_c, 1, 54, 127
1, 22788, Note_on_c, 1, 85, 127
1, 22814, Note_off_c, 1, 76, 0
1, 22834, Note_off_c, 1, 85, 0
1, 22863, Note_off_c, 1, 54, 0
1, 22894, Note_on_c, 1, 58, 127
1, 22901, Note_on_c, 1, 76, 127
1, 22907, Note_on_c, 1, 66, 127
1, 22908, Note_on_c, 1, 73, 127
1, 22948, Note_on_c, 1, 54, 127
1, 22949, Note_off_c, 1, 58, 0
1, 22950, Note_off_c, 1, 66, 0
1, 22970, Note_off_c, 1, 73, 0
1, 22988, Note_off_c, 1, 76, 0
1, 22993, Note_off_c, 1, 54, 0
1, 23015, Note_on_c, 1, 78, 127
1, 23016, Note_on_c, 1, 74, 127
1, 23020, Note_on_c, 1, 59, 127
1, 23034, Note_on_c, 1, 66, 127
1, 23039, Note_on_c, 1, 76, 127
1, 23045, Note_on_c, 1, 73, 127
1, 23046, Note_off_c, 1, 78, 0
1, 23053, Note_off_c, 1, 74, 0
1, 23073, Note_off_c, 1, 73, 0
1, 23075, Note_off_c, 1, 76, 0
1, 23082, Note_off_c, 1, 59, 0
1, 23134, Note_on_c, 1, 71, 127
1, 23145, Note_on_c, 1, 54, 127
1, 23203, Note_off_c, 1, 54, 0
1, 23207, Note_off_c, 1, 71, 0
1, 23254, Note_off_c, 1, 66, 0
1, 23264, Note_on_c, 1, 83, 127
1, 23268, Note_on_c, 1, 50, 127
1, 23320, Note_off_c, 1, 83, 0
1, 23325, Note_off_c, 1, 50, 0
1, 23377, Note_on_c, 1, 86, 127
1, 23379, Note_on_c, 1, 47, 127
1, 23416, Note_off_c, 1, 86, 0
1, 23435, Note_on_c, 1, 83, 127
1, 23446, Note_off_c, 1, 47, 0
1, 23467, Note_off_c, 1, 83, 0
1, 23494, Note_on_c, 1, 52, 127
1, 23494, Note_on_c, 1, 81, 127
1, 23613, Note_on_c, 1, 79, 127
1, 23618, Note_off_c, 1, 81, 0
1, 23622, Note_on_c, 1, 71, 127
1, 23625, Note_on_c, 1, 76, 127
1, 23671, Note_off_c, 1, 76, 0
1, 23677, Note_on_c, 1, 67, 127
1, 23717, Note_off_c, 1, 52, 0
1, 23725, Note_off_c, 1, 67, 0
1, 23730, Note_off_c, 1, 71, 0
1, 23740, Note_on_c, 1, 64, 127
1, 23777, Note_off_c, 1, 79, 0
1, 23817, Note_off_c, 1, 64, 0
1, 23865, Note_on_c, 1, 83, 127
1, 23872, Note_on_c, 1, 40, 127
1, 23890, Note_on_c, 1, 81, 127
1, 23919, Note_off_c, 1, 83, 0
1, 23924, Note_on_c, 1, 79, 127
1, 23932, Note_off_c, 1, 40, 0
1, 23941, Note_on_c, 1, 78, 127
1, 23948, Note_off_c, 1, 81, 0
1, 23956, Note_off_c, 1, 79, 0
1, 23987, Note_on_c, 1, 52, 127
1, 23990, Note_off_c, 1, 78, 0
1, 23991, Note_on_c, 1, 76, 127
1, 24110, Note_off_c, 1, 52, 0
1, 24114, Note_on_c, 1, 71, 127
1, 24116, Note_on_c, 1, 67, 127
1, 24166, Note_off_c, 1, 71, 0
1, 24167, Note_off_c, 1, 67, 0
1, 24170, Note_on_c, 1, 64, 127
1, 24221, Note_off_c, 1, 64, 0
1, 24233, Note_on_c, 1, 59, 127
1, 24267, Note_off_c, 1, 76, 0
1, 24305, Note_off_c, 1, 59, 0
1, 24346, Note_on_c, 1, 79, 127
1, 24360, Note_on_c, 1, 40, 127
1, 24374, Note_on_c, 1, 78, 127
1, 24403, Note_off_c, 1, 79, 0
1, 24403, Note_on_c, 1, 76, 127
1, 24423, Note_off_c, 1, 78, 0
1, 24426, Note_off_c, 1, 40, 0
1, 24430, Note_on_c, 1, 74, 127
1, 24439, Note_off_c, 1, 76, 0
1, 24473, Note_on_c, 1, 52, 127
1, 24474, Note_on_c, 1, 72, 127
1, 24475, Note_off_c, 1, 74, 0
1, 24519, Note_off_c, 1, 72, 0
1, 24588, Note_off_c, 1, 52, 0
1, 24589, Note_on_c, 1, 64, 127
1, 24590, Note_on_c, 1, 55, 127
1, 24637, Note_off_c, 1, 64, 0
1, 24654, Note_off_c, 1, 55, 0
1, 24706, Note_on_c, 1, 67, 127
1, 24707, Note_on_c, 1, 60, 127
1, 24750, Note_on_c, 1, 71, 127
1, 24755, Note_off_c, 1, 67, 0
1, 24767, Note_off_c, 1, 60, 0
1, 24784, Note_off_c, 1, 71, 0
1, 24815, Note_on_c, 1, 72, 127
1, 24825, Note_on_c, 1, 79, 127
1, 24828, Note_on_c, 1, 64, 127
1, 24838, Note_on_c, 1, 40, 127
1, 24871, Note_off_c, 1, 79, 0
1, 24872, Note_on_c, 1, 71, 127
1, 24877, Note_off_c, 1, 72, 0
1, 24882, Note_off_c, 1, 64, 0
1, 24891, Note_off_c, 1, 40, 0
1, 24903, Note_off_c, 1, 71, 0
1, 24937, Note_on_c, 1, 71, 127
1, 24944, Note_on_c, 1, 79, 127
1, 24944, Note_on_c, 1, 70, 127
1, 24955, Note_on_c, 1, 61, 127
1, 24958, Note_on_c, 1, 52, 127
1, 24993, Note_off_c, 1, 70, 0
1, 25043, Note_off_c, 1, 52, 0
1, 25044, Note_off_c, 1, 61, 0
1, 25052, Note_off_c, 1, 71, 0
1, 25064, Note_on_c, 1, 66, 127
1, 25071, Note_on_c, 1, 78, 127
1, 25076, Note_off_c, 1, 79, 0
1, 25080, Note_on_c, 1, 64, 127
1, 25118, Note_off_c, 1, 66, 0
1, 25125, Note_off_c, 1, 64, 0
1, 25130, Note_off_c, 1, 78, 0
1, 25188, Note_on_c, 1, 67, 127
1, 25189, Note_on_c, 1, 73, 127
1, 25193, Note_on_c, 1, 58, 127
1, 25197, Note_on_c, 1, 76, 127
1, 25202, Note_on_c, 1, 61, 127
1, 25262, Note_off_c, 1, 73, 0
1, 25271, Note_off_c, 1, 58, 0
1, 25273, Note_off_c, 1, 76, 0
1, 25283, Note_off_c, 1, 61, 0
1, 25299, Note_off_c, 1, 67, 0
1, 25312, Note_on_c, 1, 61, 127
1, 25313, Note_on_c, 1, 66, 127
1, 25357, Note_off_c, 1, 66, 0
1, 25360, Note_on_c, 1, 58, 127
1, 25371, Note_off_c, 1, 61, 0
1, 25406, Note_off_c, 1, 58, 0
1, 25425, Note_on_c, 1, 71, 127
1, 25427, Note_on_c, 1, 54, 127
1, 25434, Note_on_c, 1, 74, 127
1, 25448, Note_on_c, 1, 62, 127
1, 25500, Note_off_c, 1, 54, 0
1, 25509, Note_off_c, 1, 74, 0
1, 25516, Note_off_c, 1, 71, 0
1, 25527, Note_off_c, 1, 62, 0
1, 25540, Note_on_c, 1, 70, 127
1, 25556, Note_on_c, 1, 54, 127
1, 25588, Note_off_c, 1, 70, 0
1, 25600, Note_on_c, 1, 73, 127
1, 25619, Note_off_c, 1, 54, 0
1, 25641, Note_off_c, 1, 73, 0
1, 25662, Note_on_c, 1, 73, 127
1, 25663, Note_on_c, 1, 76, 127
1, 25669, Note_on_c, 1, 70, 127
1, 25672, Note_on_c, 1, 54, 127
1, 25674, Note_on_c, 1, 66, 127
1, 25736, Note_off_c, 1, 54, 0
1, 25738, Note_off_c, 1, 73, 0
1, 25743, Note_off_c, 1, 70, 0
1, 25756, Note_off_c, 1, 66, 0
1, 25761, Note_off_c, 1, 76, 0
1, 25783, Note_on_c, 1, 74, 127
1, 25789, Note_on_c, 1, 54, 127
1, 25826, Note_off_c, 1, 74, 0
1, 25836, Note_on_c, 1, 73, 127
1, 25860, Note_off_c, 1, 54, 0
1, 25876, Note_off_c, 1, 73, 0
1, 25898, Note_on_c, 1, 71, 127
1, 25902, Note_on_c, 1, 74, 127
1, 25910, Note_on_c, 1, 59, 127
1, 25919, Note_on_c, 1, 66, 127
1, 25991, Note_off_c, 1, 74, 0
1, 26001, Note_off_c, 1, 59, 0
1, 26008, Note_off_c, 1, 71, 0
1, 26014, Note_off_c, 1, 66, 0
1, 26023, Note_on_c, 1, 71, 127
1, 26029, Note_on_c, 1, 62, 127
1, 26031, Note_on_c, 1, 66, 127
1, 26049, Note_on_c, 1, 73, 127
1, 26070, Note_on_c, 1, 74, 127
1, 26076, Note_off_c, 1, 71, 0
1, 26078, Note_off_c, 1, 62, 0
1, 26079, Note_on_c, 1, 59, 127
1, 26093, Note_off_c, 1, 66, 0
1, 26098, Note_off_c, 1, 73, 0
1, 26101, Note_on_c, 1, 76, 127
1, 26118, Note_off_c, 1, 74, 0
1, 26119, Note_off_c, 1, 59, 0
1, 26141, Note_on_c, 1, 78, 127
1, 26146, Note_on_c, 1, 54, 127
1, 26151, Note_off_c, 1, 76, 0
1, 26202, Note_off_c, 1, 78, 0
1, 26230, Note_off_c, 1, 54, 0
1, 26265, Note_on_c, 1, 74, 127
1, 26270, Note_on_c, 1, 66, 127
1, 26270, Note_on_c, 1, 59, 127
1, 26274, Note_on_c, 1, 71, 127
1, 26312, Note_off_c, 1, 74, 0
1, 26318, Note_on_c, 1, 78, 127
1, 26320, Note_off_c, 1, 66, 0
1, 26321, Note_on_c, 1, 54, 127
1, 26322, Note_off_c, 1, 59, 0
1, 26360, Note_off_c, 1, 54, 0
1, 26367, Note_off_c, 1, 78, 0
1, 26370, Note_off_c, 1, 71, 0
1, 26383, Note_on_c, 1, 78, 127
1, 26383, Note_on_c, 1, 83, 127
1, 26387, Note_on_c, 1, 50, 127
1, 26388, Note_on_c, 1, 74, 127
1, 26438, Note_off_c, 1, 74, 0
1, 26445, Note_off_c, 1, 78, 0
1, 26454, Note_off_c, 1, 83, 0
1, 26463, Note_off_c, 1, 50, 0
1, 26500, Note_on_c, 1, 47, 127
1, 26502, Note_on_c, 1, 62, 127
1, 26505, Note_on_c, 1, 78, 127
1, 26507, Note_on_c, 1, 71, 127
1, 26551, Note_on_c, 1, 50, 127
1, 26553, Note_off_c, 1, 47, 0
1, 26553, Note_off_c, 1, 78, 0
1, 26559, Note_off_c, 1, 62, 0
1, 26565, Note_off_c, 1, 71, 0
1, 26594, Note_off_c, 1, 50, 0
1, 26614, Note_on_c, 1, 54, 127
1, 26627, Note_on_c, 1, 61, 127
1, 26629, Note_on_c, 1, 71, 127
1, 26630, Note_on_c, 1, 76, 127
1, 26676, Note_off_c, 1, 54, 0
1, 26676, Note_off_c, 1, 76, 0
1, 26676, Note_on_c, 1, 74, 127
1, 26678, Note_off_c, 1, 71, 0
1, 26682, Note_off_c, 1, 61, 0
1, 26740, Note_off_c, 1, 74, 0
1, 26743, Note_on_c, 1, 73, 127
1, 26749, Note_on_c, 1, 70, 127
1, 26750, Note_on_c, 1, 66, 127
1, 26750, Note_on_c, 1, 42, 127
1, 26787, Note_off_c, 1, 73, 0
1, 26795, Note_off_c, 1, 66, 0
1, 26797, Note_on_c, 1, 74, 127
1, 26800, Note_off_c, 1, 70, 0
1, 26806, Note_off_c, 1, 42, 0
1, 26833, Note_off_c, 1, 74, 0
1, 26866, Note_on_c, 1, 73, 127
1, 26871, Note_on_c, 1, 66, 127
1, 26877, Note_on_c, 1, 62, 127
1, 26879, Note_on_c, 1, 47, 127
1, 26984, Note_on_c, 1, 71, 127
1, 26997, Note_off_c, 1, 73, 0
1, 27039, Note_off_c, 1, 71, 0
1, 27060, Note_off_c, 1, 66, 0
1, 27107, Note_on_c, 1, 69, 127
1, 27109, Note_on_c, 1, 78, 127
1, 27117, Note_off_c, 1, 62, 0
1, 27119, Note_on_c, 1, 42, 127
1, 27133, Note_off_c, 1, 47, 0
1, 27175, Note_off_c, 1, 42, 0
1, 27183, Note_off_c, 1, 69, 0
1, 27213, Note_off_c, 1, 78, 0
1, 27236, Note_on_c, 1, 81, 127
1, 27237, Note_on_c, 1, 42, 127
1, 27277, Note_off_c, 1, 81, 0
1, 27296, Note_off_c, 1, 42, 0
1, 27296, Note_on_c, 1, 78, 127
1, 27322, Note_off_c, 1, 78, 0
1, 27342, Note_on_c, 1, 66, 127
1, 27347, Note_on_c, 1, 73, 127
1, 27350, Note_on_c, 1, 69, 127
1, 27352, Note_on_c, 1, 45, 127
1, 27403, Note_off_c, 1, 45, 0
1, 27423, Note_off_c, 1, 69, 0
1, 27425, Note_off_c, 1, 66, 0
1, 27464, Note_on_c, 1, 42, 127
1, 27466, Note_off_c, 1, 73, 0
1, 27474, Note_on_c, 1, 78, 127
1, 27513, Note_off_c, 1, 78, 0
1, 27515, Note_off_c, 1, 42, 0
1, 27533, Note_on_c, 1, 73, 127
1, 27574, Note_off_c, 1, 73, 0
1, 27584, Note_on_c, 1, 69, 127
1, 27585, Note_on_c, 1, 49, 127
1, 27589, Note_on_c, 1, 66, 127
1, 27593, Note_on_c, 1, 61, 127
1, 27638, Note_off_c, 1, 49, 0
1, 27665, Note_off_c, 1, 61, 0
1, 27669, Note_off_c, 1, 66, 0
1, 27702, Note_off_c, 1, 69, 0
1, 27707, Note_on_c, 1, 45, 127
1, 27721, Note_on_c, 1, 73, 127
1, 27753, Note_off_c, 1, 73, 0
1, 27760, Note_off_c, 1, 45, 0
1, 27763, Note_on_c, 1, 69, 127
1, 27812, Note_off_c, 1, 69, 0
1, 27826, Note_on_c, 1, 57, 127
1, 27830, Note_on_c, 1, 66, 127
1, 27832, Note_on_c, 1, 61, 127
1, 27833, Note_on_c, 1, 54, 127
1, 27910, Note_off_c, 1, 57, 0
1, 27921, Note_off_c, 1, 61, 0
1, 27929, Note_off_c, 1, 54, 0
1, 27959, Note_off_c, 1, 66, 0
1, 28065, Note_on_c, 1, 66, 127
1, 28065, Note_on_c, 1, 51, 127
1, 28069, Note_on_c, 1, 54, 127
1, 28073, Note_on_c, 1, 72, 127
1, 28078, Note_on_c, 1, 69, 127
1, 28155, Note_off_c, 1, 66, 0
1, 28155, Note_off_c, 1, 54, 0
1, 28155, Note_off_c, 1, 69, 0
1, 28159, Note_off_c, 1, 51, 0
1, 28184, Note_on_c, 1, 71, 127
1, 28198, Note_off_c, 1, 72, 0
1, 28261, Note_off_c, 1, 71, 0
1, 28303, Note_on_c, 1, 47, 127
1, 28305, Note_on_c, 1, 64, 127
1, 28309, Note_on_c, 1, 76, 127
1, 28316, Note_on_c, 1, 67, 127
1, 28317, Note_on_c, 1, 55, 127
1, 28399, Note_off_c, 1, 64, 0
1, 28401, Note_off_c, 1, 67, 0
1, 28406, Note_off_c, 1, 55, 0
1, 28409, Note_off_c, 1, 47, 0
1, 28418, Note_off_c, 1, 76, 0
1, 28425, Note_on_c, 1, 47, 127
1, 28430, Note_on_c, 1, 75, 127
1, 28478, Note_off_c, 1, 75, 0
1, 28484, Note_on_c, 1, 78, 127
1, 28521, Note_off_c, 1, 78, 0
1, 28525, Note_off_c, 1, 47, 0
1, 28545, Note_on_c, 1, 47, 127
1, 28550, Note_on_c, 1, 81, 127
1, 28551, Note_on_c, 1, 59, 127
1, 28554, Note_on_c, 1, 63, 127
1, 28555, Note_on_c, 1, 66, 127
1, 28626, Note_off_c, 1, 81, 0
1, 28633, Note_off_c, 1, 47, 0
1, 28635, Note_off_c, 1, 59, 0
1, 28640, Note_off_c, 1, 63, 0
1, 28642, Note_off_c, 1, 66, 0
1, 28656, Note_on_c, 1, 47, 127
1, 28660, Note_on_c, 1, 79, 127
1, 28697, Note_off_c, 1, 79, 0
1, 28716, Note_on_c, 1, 78, 127
1, 28735, Note_off_c, 1, 47, 0
1, 28752, Note_off_c, 1, 78, 0
1, 28780, Note_on_c, 1, 52, 127
1, 28781, Note_on_c, 1, 64, 127
1, 28783, Note_on_c, 1, 79, 127
1, 28791, Note_on_c, 1, 59, 127
1, 28828, Note_off_c, 1, 79, 0
1, 28861, Note_off_c, 1, 52, 0
1, 28881, Note_off_c, 1, 59, 0
1, 28882, Note_off_c, 1, 64, 0
1, 28897, Note_on_c, 1, 59, 127
1, 28910, Note_on_c, 1, 76, 127
1, 28948, Note_off_c, 1, 59, 0
1, 28951, Note_off_c, 1, 76, 0
1, 28951, Note_on_c, 1, 55, 127
1, 28994, Note_off_c, 1, 55, 0
1, 29016, Note_on_c, 1, 52, 127
1, 29028, Note_on_c, 1, 79, 127
1, 29031, Note_on_c, 1, 71, 127
1, 29032, Note_on_c, 1, 76, 127
1, 29106, Note_off_c, 1, 52, 0
1, 29116, Note_off_c, 1, 76, 0
1, 29117, Note_off_c, 1, 71, 0
1, 29137, Note_off_c, 1, 79, 0
1, 29137, Note_on_c, 1, 55, 127
1, 29148, Note_on_c, 1, 83, 127
1, 29188, Note_off_c, 1, 83, 0
1, 29191, Note_off_c, 1, 55, 0
1, 29262, Note_on_c, 1, 49, 127
1, 29266, Note_on_c, 1, 79, 127
1, 29267, Note_on_c, 1, 76, 127
1, 29273, Note_on_c, 1, 69, 127
1, 29337, Note_off_c, 1, 49, 0
1, 29351, Note_off_c, 1, 79, 0
1, 29354, Note_off_c, 1, 69, 0
1, 29364, Note_off_c, 1, 76, 0
1, 29390, Note_on_c, 1, 45, 127
1, 29390, Note_on_c, 1, 79, 127
1, 29428, Note_off_c, 1, 79, 0
1, 29445, Note_on_c, 1, 76, 127
1, 29459, Note_off_c, 1, 45, 0
1, 29479, Note_off_c, 1, 76, 0
1, 29502, Note_on_c, 1, 76, 127
1, 29510, Note_on_c, 1, 73, 127
1, 29513, Note_on_c, 1, 69, 127
1, 29513, Note_on_c, 1, 52, 127
1, 29569, Note_off_c, 1, 52, 0
1, 29591, Note_off_c, 1, 76, 0
1, 29603, Note_off_c, 1, 69, 0
1, 29611, Note_off_c, 1, 73, 0
1, 29624, Note_on_c, 1, 49, 127
1, 29632, Note_on_c, 1, 76, 127
1, 29672, Note_off_c, 1, 76, 0
1, 29684, Note_on_c, 1, 73, 127
1, 29685, Note_off_c, 1, 49, 0
1, 29720, Note_off_c, 1, 73, 0
1, 29749, Note_on_c, 1, 64, 127
1, 29750, Note_on_c, 1, 55, 127
1, 29751, Note_on_c, 1, 69, 127
1, 29752, Note_on_c, 1, 73, 127
1, 29822, Note_off_c, 1, 55, 0
1, 29844, Note_off_c, 1, 64, 0
1, 29846, Note_off_c, 1, 73, 0
1, 29865, Note_on_c, 1, 52, 127
1, 29947, Note_off_c, 1, 52, 0
1, 29986, Note_on_c, 1, 54, 127
1, 29990, Note_on_c, 1, 74, 127
1, 30057, Note_off_c, 1, 69, 0
1, 30059, Note_off_c, 1, 54, 0
1, 30088, Note_off_c, 1, 74, 0
1, 30103, Note_on_c, 1, 78, 127
1, 30108, Note_on_c, 1, 74, 127
1, 30109, Note_on_c, 1, 66, 127
1, 30109, Note_on_c, 1, 59, 127
1, 30164, Note_off_c, 1, 78, 0
1, 30164, Note_off_c, 1, 66, 0
1, 30169, Note_off_c, 1, 59, 0
1, 30199, Note_off_c, 1, 74, 0
1, 30222, Note_on_c, 1, 71, 127
1, 30224, Note_on_c, 1, 76, 127
1, 30225, Note_on_c, 1, 55, 127
1, 30230, Note_on_c, 1, 74, 127
1, 30277, Note_off_c, 1, 71, 0
1, 30287, Note_off_c, 1, 76, 0
1, 30295, Note_off_c, 1, 55, 0
1, 30324, Note_off_c, 1, 74, 0
1, 30337, Note_on_c, 1, 67, 127
1, 30341, Note_on_c, 1, 52, 127
1, 30346, Note_on_c, 1, 76, 127
1, 30351, Note_on_c, 1, 74, 127
1, 30399, Note_off_c, 1, 67, 0
1, 30405, Note_off_c, 1, 76, 0
1, 30406, Note_off_c, 1, 52, 0
1, 30453, Note_off_c, 1, 74, 0
1, 30460, Note_on_c, 1, 57, 127
1, 30464, Note_on_c, 1, 69, 127
1, 30466, Note_on_c, 1, 76, 127
1, 30468, Note_on_c, 1, 73, 127
1, 30524, Note_off_c, 1, 57, 0
1, 30528, Note_off_c, 1, 69, 0
1, 30529, Note_off_c, 1, 73, 0
1, 30580, Note_off_c, 1, 76, 0
1, 30582, Note_on_c, 1, 69, 127
1, 30586, Note_on_c, 1, 79, 127
1, 30586, Note_on_c, 1, 45, 127
1, 30588, Note_on_c, 1, 73, 127
1, 30639, Note_off_c, 1, 73, 0
1, 30641, Note_on_c, 1, 76, 127
1, 30646, Note_off_c, 1, 79, 0
1, 30647, Note_off_c, 1, 69, 0
1, 30655, Note_off_c, 1, 45, 0
1, 30688, Note_off_c, 1, 76, 0
1, 30703, Note_on_c, 1, 78, 127
1, 30704, Note_on_c, 1, 50, 127
1, 30708, Note_on_c, 1, 57, 127
1, 30709, Note_on_c, 1, 74, 127
1, 30758, Note_on_c, 1, 76, 127
1, 30766, Note_off_c, 1, 74, 0
1, 30772, Note_off_c, 1, 50, 0
1, 30776, Note_off_c, 1, 78, 0
1, 30776, Note_off_c, 1, 57, 0
1, 30802, Note_off_c, 1, 76, 0
1, 30818, Note_on_c, 1, 69, 127
1, 30819, Note_on_c, 1, 78, 127
1, 30824, Note_on_c, 1, 66, 127
1, 30826, Note_on_c, 1, 74, 127
1, 30830, Note_on_c, 1, 38, 127
1, 30868, Note_off_c, 1, 78, 0
1, 30877, Note_on_c, 1, 73, 127
1, 30879, Note_off_c, 1, 69, 0
1, 30882, Note_on_c, 1, 76, 127
1, 30885, Note_off_c, 1, 66, 0
1, 30886, Note_off_c, 1, 74, 0
1, 30894, Note_off_c, 1, 38, 0
1, 30920, Note_off_c, 1, 76, 0
1, 30927, Note_off_c, 1, 73, 0
1, 30941, Note_on_c, 1, 74, 127
1, 30945, Note_on_c, 1, 66, 127
1, 30947, Note_on_c, 1, 48, 127
1, 30948, Note_on_c, 1, 69, 127
1, 30997, Note_on_c, 1, 78, 127
1, 30998, Note_off_c, 1, 74, 0
1, 31011, Note_off_c, 1, 48, 0
1, 31028, Note_off_c, 1, 78, 0
1, 31032, Note_off_c, 1, 69, 0
1, 31035, Note_off_c, 1, 66, 0
1, 31053, Note_on_c, 1, 74, 127
1, 31066, Note_on_c, 1, 54, 127
1, 31068, Note_on_c, 1, 69, 127
1, 31114, Note_on_c, 1, 73, 127
1, 31121, Note_off_c, 1, 69, 0
1, 31126, Note_off_c, 1, 74, 0
1, 31127, Note_off_c, 1, 54, 0
1, 31183, Note_on_c, 1, 62, 127
1, 31184, Note_off_c, 1, 73, 0
1, 31192, Note_on_c, 1, 47, 127
1, 31193, Note_on_c, 1, 67, 127
1, 31239, Note_on_c, 1, 79, 127
1, 31260, Note_off_c, 1, 47, 0
1, 31266, Note_off_c, 1, 62, 0
1, 31272, Note_off_c, 1, 67, 0
1, 31301, Note_off_c, 1, 79, 0
1, 31303, Note_on_c, 1, 55, 127
1, 31364, Note_off_c, 1, 55, 0
1, 31421, Note_on_c, 1, 66, 127
1, 31427, Note_on_c, 1, 45, 127
1, 31478, Note_on_c, 1, 81, 127
1, 31490, Note_off_c, 1, 45, 0
1, 31508, Note_off_c, 1, 66, 0
1, 31527, Note_off_c, 1, 81, 0
1, 31536, Note_on_c, 1, 57, 127
1, 31539, Note_on_c, 1, 74, 127
1, 31543, Note_on_c, 1, 66, 127
1, 31595, Note_off_c, 1, 66, 0
1, 31597, Note_off_c, 1, 57, 0
1, 31598, Note_on_c, 1, 73, 127
1, 31604, Note_off_c, 1, 74, 0
1, 31660, Note_on_c, 1, 43, 127
1, 31662, Note_off_c, 1, 73, 0
1, 31662, Note_on_c, 1, 67, 127
1, 31664, Note_on_c, 1, 64, 127
1, 31718, Note_on_c, 1, 83, 127
1, 31721, Note_off_c, 1, 43, 0
1, 31750, Note_off_c, 1, 64, 0
1, 31756, Note_off_c, 1, 67, 0
1, 31766, Note_off_c, 1, 83, 0
1, 31775, Note_on_c, 1, 59, 127
1, 31780, Note_on_c, 1, 64, 127
1, 31782, Note_on_c, 1, 74, 127
1, 31836, Note_off_c, 1, 74, 0
1, 31837, Note_off_c, 1, 64, 0
1, 31840, Note_off_c, 1, 59, 0
1, 31843, Note_on_c, 1, 73, 127
1, 31896, Note_on_c, 1, 55, 127
1, 31897, Note_on_c, 1, 74, 127
1, 31901, Note_on_c, 1, 64, 127
1, 31902, Note_on_c, 1, 71, 127
1, 31905, Note_off_c, 1, 73, 0
1, 31949, Note_off_c, 1, 74, 0
1, 31957, Note_off_c, 1, 55, 0
1, 31963, Note_off_c, 1, 64, 0
1, 31965, Note_off_c, 1, 71, 0
1, 31967, Note_on_c, 1, 83, 127
1, 32007, Note_off_c, 1, 83, 0
1, 32014, Note_on_c, 1, 52, 127
1, 32020, Note_on_c, 1, 67, 127
1, 32022, Note_on_c, 1, 73, 127
1, 32023, Note_on_c, 1, 76, 127
1, 32027, Note_on_c, 1, 81, 127
1, 32077, Note_off_c, 1, 52, 0
1, 32078, Note_off_c, 1, 81, 0
1, 32080, Note_off_c, 1, 67, 0
1, 32083, Note_off_c, 1, 73, 0
1, 32085, Note_off_c, 1, 76, 0
1, 32090, Note_on_c, 1, 79, 127
1, 32122, Note_off_c, 1, 79, 0
1, 32137, Note_on_c, 1, 66, 127
1, 32139, Note_on_c, 1, 74, 127
1, 32143, Note_on_c, 1, 69, 127
1, 32145, Note_on_c, 1, 54, 127
1, 32150, Note_on_c, 1, 81, 127
1, 32197, Note_off_c, 1, 81, 0
1, 32200, Note_off_c, 1, 74, 0
1, 32206, Note_on_c, 1, 78, 127
1, 32207, Note_off_c, 1, 66, 0
1, 32211, Note_off_c, 1, 69, 0
1, 32211, Note_off_c, 1, 54, 0
1, 32251, Note_off_c, 1, 78, 0
1, 32256, Note_on_c, 1, 71, 127
1, 32258, Note_on_c, 1, 55, 127
1, 32259, Note_on_c, 1, 76, 127
1, 32262, Note_on_c, 1, 67, 127
1, 32317, Note_on_c, 1, 74, 127
1, 32322, Note_off_c, 1, 67, 0
1, 32324, Note_off_c, 1, 71, 0
1, 32329, Note_off_c, 1, 76, 0
1, 32330, Note_off_c, 1, 55, 0
1, 32365, Note_off_c, 1, 74, 0
1, 32375, Note_on_c, 1, 69, 127
1, 32378, Note_on_c, 1, 57, 127
1, 32383, Note_on_c, 1, 66, 127
1, 32387, Note_on_c, 1, 78, 127
1, 32433, Note_off_c, 1, 57, 0
1, 32438, Note_off_c, 1, 69, 0
1, 32445, Note_off_c, 1, 66, 0
1, 32455, Note_off_c, 1, 78, 0
1, 32499, Note_on_c, 1, 67, 127
1, 32500, Note_on_c, 1, 78, 127
1, 32501, Note_on_c, 1, 45, 127
1, 32504, Note_on_c, 1, 73, 127
1, 32507, Note_on_c, 1, 69, 127
1, 32526, Note_on_c, 1, 76, 127
1, 32529, Note_off_c, 1, 78, 0
1, 32548, Note_off_c, 1, 73, 0
1, 32548, Note_off_c, 1, 69, 0
1, 32557, Note_off_c, 1, 45, 0
1, 32558, Note_off_c, 1, 76, 0
1, 32562, Note_off_c, 1, 67, 0
1, 32622, Note_on_c, 1, 50, 127
1, 32622, Note_on_c, 1, 74, 127
1, 32630, Note_on_c, 1, 66, 127
1, 32632, Note_on_c, 1, 69, 127
1, 32689, Note_off_c, 1, 50, 0
1, 32748, Note_on_c, 1, 45, 127
1, 32769, Note_off_c, 1, 74, 0
1, 32779, Note_off_c, 1, 69, 0
1, 32780, Note_off_c, 1, 66, 0
1, 32795, Note_on_c, 1, 42, 127
1, 32802, Note_off_c, 1, 45, 0
1, 32836, Note_off_c, 1, 42, 0
1, 32860, Note_on_c, 1, 38, 127
1, 32869, Note_on_c, 1, 78, 127
1, 32872, Note_on_c, 1, 74, 127
1, 32875, Note_on_c, 1, 69, 127
1, 32920, Note_on_c, 1, 76, 127
1, 32921, Note_off_c, 1, 69, 0
1, 32927, Note_off_c, 1, 38, 0
1, 32927, Note_off_c, 1, 78, 0
1, 32928, Note_off_c, 1, 74, 0
1, 32972, Note_off_c, 1, 76, 0
1, 32982, Note_on_c, 1, 78, 127
1, 32983, Note_on_c, 1, 62, 127
1, 32989, Note_on_c, 1, 69, 127
1, 32990, Note_on_c, 1, 74, 127
1, 33032, Note_on_c, 1, 57, 127
1, 33035, Note_off_c, 1, 62, 0
1, 33042, Note_off_c, 1, 74, 0
1, 33047, Note_off_c, 1, 69, 0
1, 33078, Note_off_c, 1, 57, 0
1, 33095, Note_on_c, 1, 54, 127
1, 33159, Note_off_c, 1, 78, 0
1, 33160, Note_on_c, 1, 76, 127
1, 33172, Note_off_c, 1, 54, 0
1, 33199, Note_off_c, 1, 76, 0
1, 33223, Note_on_c, 1, 69, 127
1, 33226, Note_on_c, 1, 78, 127
1, 33226, Note_on_c, 1, 74, 127
1, 33226, Note_on_c, 1, 57, 127
1, 33270, Note_off_c, 1, 57, 0
1, 33271, Note_off_c, 1, 74, 0
1, 33275, Note_on_c, 1, 54, 127
1, 33281, Note_off_c, 1, 69, 0
1, 33316, Note_off_c, 1, 54, 0
1, 33339, Note_on_c, 1, 50, 127
1, 33343, Note_on_c, 1, 66, 127
1, 33352, Note_on_c, 1, 86, 127
1, 33378, Note_off_c, 1, 78, 0
1, 33394, Note_off_c, 1, 66, 0
1, 33419, Note_off_c, 1, 50, 0
1, 33443, Note_off_c, 1, 86, 0
1, 33457, Note_on_c, 1, 78, 127
1, 33460, Note_on_c, 1, 69, 127
1, 33461, Note_on_c, 1, 54, 127
1, 33470, Note_on_c, 1, 74, 127
1, 33504, Note_off_c, 1, 69, 0
1, 33507, Note_on_c, 1, 50, 127
1, 33516, Note_off_c, 1, 54, 0
1, 33520, Note_off_c, 1, 74, 0
1, 33551, Note_off_c, 1, 50, 0
1, 33553, Note_off_c, 1, 78, 0
1, 33581, Note_on_c, 1, 76, 127
1, 33585, Note_on_c, 1, 79, 127
1, 33585, Note_on_c, 1, 69, 127
1, 33586, Note_on_c, 1, 57, 127
1, 33590, Note_on_c, 1, 55, 127
1, 33600, Note_off_c, 1, 55, 0
1, 33608, Note_on_c, 1, 74, 127
1, 33614, Note_on_c, 1, 78, 127
1, 33618, Note_off_c, 1, 76, 0
1, 33625, Note_off_c, 1, 79, 0
1, 33642, Note_off_c, 1, 74, 0
1, 33655, Note_off_c, 1, 57, 0
1, 33656, Note_off_c, 1, 78, 0
1, 33704, Note_on_c, 1, 52, 127
1, 33705, Note_on_c, 1, 73, 127
1, 33736, Note_off_c, 1, 69, 0
1, 33744, Note_off_c, 1, 73, 0
1, 33752, Note_off_c, 1, 52, 0
1, 33757, Note_on_c, 1, 49, 127
1, 33798, Note_off_c, 1, 49, 0
1, 33824, Note_on_c, 1, 46, 127
1, 33827, Note_on_c, 1, 76, 127
1, 33831, Note_on_c, 1, 66, 127
1, 33834, Note_on_c, 1, 73, 127
1, 33880, Note_on_c, 1, 74, 127
1, 33882, Note_off_c, 1, 46, 0
1, 33888, Note_off_c, 1, 66, 0
1, 33888, Note_off_c, 1, 73, 0
1, 33892, Note_off_c, 1, 76, 0
1, 33929, Note_off_c, 1, 74, 0
1, 33946, Note_on_c, 1, 76, 127
1, 33948, Note_on_c, 1, 64, 127
1, 33949, Note_on_c, 1, 73, 127
1, 33952, Note_on_c, 1, 70, 127
1, 33993, Note_off_c, 1, 64, 0
1, 34000, Note_off_c, 1, 70, 0
1, 34005, Note_on_c, 1, 61, 127
1, 34006, Note_off_c, 1, 73, 0
1, 34043, Note_off_c, 1, 61, 0
1, 34064, Note_on_c, 1, 58, 127
1, 34065, Note_on_c, 1, 66, 127
1, 34119, Note_off_c, 1, 66, 0
1, 34120, Note_on_c, 1, 74, 127
1, 34130, Note_off_c, 1, 76, 0
1, 34140, Note_off_c, 1, 58, 0
1, 34164, Note_off_c, 1, 74, 0
1, 34182, Note_on_c, 1, 70, 127
1, 34184, Note_on_c, 1, 73, 127
1, 34186, Note_on_c, 1, 76, 127
1, 34188, Note_on_c, 1, 61, 127
1, 34233, Note_off_c, 1, 70, 0
1, 34235, Note_on_c, 1, 58, 127
1, 34238, Note_off_c, 1, 73, 0
1, 34240, Note_off_c, 1, 61, 0
1, 34280, Note_off_c, 1, 58, 0
1, 34302, Note_on_c, 1, 54, 127
1, 34308, Note_on_c, 1, 85, 127
1, 34334, Note_off_c, 1, 76, 0
1, 34354, Note_off_c, 1, 85, 0
1, 34383, Note_off_c, 1, 54, 0
1, 34414, Note_on_c, 1, 58, 127
1, 34421, Note_on_c, 1, 76, 127
1, 34427, Note_on_c, 1, 66, 127
1, 34428, Note_on_c, 1, 73, 127
1, 34468, Note_on_c, 1, 54, 127
1, 34469, Note_off_c, 1, 58, 0
1, 34470, Note_off_c, 1, 66, 0
1, 34490, Note_off_c, 1, 73, 0
1, 34508, Note_off_c, 1, 76, 0
1, 34513, Note_off_c, 1, 54, 0
1, 34535, Note_on_c, 1, 78, 127
1, 34536, Note_on_c, 1, 74, 127
1, 34540, Note_on_c, 1, 59, 127
1, 34554, Note_on_c, 1, 66, 127
1, 34559, Note_on_c, 1, 76, 127
1, 34565, Note_on_c, 1, 73, 127
1, 34566, Note_off_c, 1, 78, 0
1, 34573, Note_off_c, 1, 74, 0
1, 34593, Note_off_c, 1, 73, 0
1, 34595, Note_off_c, 1, 76, 0
1, 34602, Note_off_c, 1, 59, 0
1, 34654, Note_on_c, 1, 71, 127
1, 34665, Note_on_c, 1, 54, 127
1, 34723, Note_off_c, 1, 54, 0
1, 34727, Note_off_c, 1, 71, 0
1, 34774, Note_off_c, 1, 66, 0
1, 34784, Note_on_c, 1, 83, 127
1, 34788, Note_on_c, 1, 50, 127
1, 34840, Note_off_c, 1, 83, 0
1, 34845, Note_off_c, 1, 50, 0
1, 34897, Note_on_c, 1, 86, 127
1, 34899, Note_on_c, 1, 47, 127
1, 34936, Note_off_c, 1, 86, 0
1, 34955, Note_on_c, 1, 83, 127
1, 34966, Note_off_c, 1, 47, 0
1, 34987, Note_off_c, 1, 83, 0
1, 35014, Note_on_c, 1, 52, 127
1, 35014, Note_on_c, 1, 81, 127
1, 35133, Note_on_c, 1, 79, 127
1, 35138, Note_off_c, 1, 81, 0
1, 35142, Note_on_c, 1, 71, 127
1, 35145, Note_on_c, 1, 76, 127
1, 35191, Note_off_c, 1, 76, 0
1, 35197, Note_on_c, 1, 67, 127
1, 35237, Note_off_c, 1, 52, 0
1, 35245, Note_off_c, 1, 67, 0
1, 35250, Note_off_c, 1, 71, 0
1, 35260, Note_on_c, 1, 64, 127
1, 35297, Note_off_c, 1, 79, 0
1, 35337, Note_off_c, 1, 64, 0
1, 35385, Note_on_c, 1, 83, 127
1, 35392, Note_on_c, 1, 40, 127
1, 35410, Note_on_c, 1, 81, 127
1, 35439, Note_off_c, 1, 83, 0
1, 35444, Note_on_c, 1, 79, 127
1, 35452, Note_off_c, 1, 40, 0
1, 35461, Note_on_c, 1, 78, 127
1, 35468, Note_off_c, 1, 81, 0
1, 35476, Note_off_c, 1, 79, 0
1, 35507, Note_on_c, 1, 52, 127
1, 35510, Note_off_c, 1, 78, 0
1, 35511, Note_on_c, 1, 76, 127
1, 35630, Note_off_c, 1, 52, 0
1, 35634, Note_on_c, 1, 71, 127
1, 35636, Note_on_c, 1, 67, 127
1, 35686, Note_off_c, 1, 71, 0
1, 35687, Note_off_c, 1, 67, 0
1, 35690, Note_on_c, 1, 64, 127
1, 35741, Note_off_c, 1, 64, 0
1, 35753, Note_on_c, 1, 59, 127
1, 35787, Note_off_c, 1, 76, 0
1, 35825, Note_off_c, 1, 59, 0
1, 35866, Note_on_c, 1, 79, 127
1, 35880, Note_on_c, 1, 40, 127
1, 35894, Note_on_c, 1, 78, 127
1, 35923, Note_off_c, 1, 79, 0
1, 35923, Note_on_c, 1, 76, 127
1, 35943, Note_off_c, 1, 78, 0
1, 35946, Note_off_c, 1, 40, 0
1, 35950, Note_on_c, 1, 74, 127
1, 35959, Note_off_c, 1, 76, 0
1, 35993, Note_on_c, 1, 52, 127
1, 35994, Note_on_c, 1, 72, 127
1, 35995, Note_off_c, 1, 74, 0
1, 36039, Note_off_c, 1, 72, 0
1, 36108, Note_off_c, 1, 52, 0
1, 36109, Note_on_c, 1, 64, 127
1, 36110, Note_on_c, 1, 55, 127
1, 36157, Note_off_c, 1, 64, 0
1, 36174, Note_off_c, 1, 55, 0
1, 36226, Note_on_c, 1, 67, 127
1, 36227, Note_on_c, 1, 60, 127
1, 36270, Note_on_c, 1, 71, 127
1, 36275, Note_off_c, 1, 67, 0
1, 36287, Note_off_c, 1, 60, 0
1, 36304, Note_off_c, 1, 71, 0
1, 36335, Note_on_c, 1, 72, 127
1, 36345, Note_on_c, 1, 79, 127
1, 36348, Note_on_c, 1, 64, 127
1, 36358, Note_on_c, 1, 40, 127
1, 36391, Note_off_c, 1, 79, 0
1, 36392, Note_on_c, 1, 71, 127
1, 36397, Note_off_c, 1, 72, 0
1, 36402, Note_off_c, 1, 64, 0
1, 36411, Note_off_c, 1, 40, 0
1, 36423, Note_off_c, 1, 71, 0
1, 36457, Note_on_c, 1, 71, 127
1, 36464, Note_on_c, 1, 79, 127
1, 36464, Note_on_c, 1, 70, 127
1, 36475, Note_on_c, 1, 61, 127
1, 36478, Note_on_c, 1, 52, 127
1, 36513, Note_off_c, 1, 70, 0
1, 36563, Note_off_c, 1, 52, 0
1, 36564, Note_off_c, 1, 61, 0
1, 36572, Note_off_c, 1, 71, 0
1, 36584, Note_on_c, 1, 66, 127
1, 36591, Note_on_c, 1, 78, 127
1, 36596, Note_off_c, 1, 79, 0
1, 36600, Note_on_c, 1, 64, 127
1, 36638, Note_off_c, 1, 66, 0
1, 36645, Note_off_c, 1, 64, 0
1, 36650, Note_off_c, 1, 78, 0
1, 36708, Note_on_c, 1, 67, 127
1, 36709, Note_on_c, 1, 73, 127
1, 36713, Note_on_c, 1, 58, 127
1, 36717, Note_on_c, 1, 76, 127
1, 36722, Note_on_c, 1, 61, 127
1, 36782, Note_off_c, 1, 73, 0
1, 36791, Note_off_c, 1, 58, 0
1, 36793, Note_off_c, 1, 76, 0
1, 36803, Note_off_c, 1, 61, 0
1, 36819, Note_off_c, 1, 67, 0
1, 36832, Note_on_c, 1, 61, 127
1, 36833, Note_on_c, 1, 66, 127
1, 36877, Note_off_c, 1, 66, 0
1, 36880, Note_on_c, 1, 58, 127
1, 36891, Note_off_c, 1, 61, 0
1, 36926, Note_off_c, 1, 58, 0
1, 36945, Note_on_c, 1, 71, 127
1, 36947, Note_on_c, 1, 54, 127
1, 36954, Note_on_c, 1, 74, 127
1, 36968, Note_on_c, 1, 62, 127
1, 37020, Note_off_c, 1, 54, 0
1, 37029, Note_off_c, 1, 74, 0
1, 37036, Note_off_c, 1, 71, 0
1, 37047, Note_off_c, 1, 62, 0
1, 37060, Note_on_c, 1, 70, 127
1, 37076, Note_on_c, 1, 54, 127
1, 37108, Note_off_c, 1, 70, 0
1, 37120, Note_on_c, 1, 73, 127
1, 37139, Note_off_c, 1, 54, 0
1, 37161, Note_off_c, 1, 73, 0
1, 37182, Note_on_c, 1, 73, 127
1, 37183, Note_on_c, 1, 76, 127
1, 37189, Note_on_c, 1, 70, 127
1, 37192, Note_on_c, 1, 54, 127
1, 37194, Note_on_c, 1, 66, 127
1, 37256, Note_off_c, 1, 54, 0
1, 37258, Note_off_c, 1, 73, 0
1, 37263, Note_off_c, 1, 70, 0
1, 37276, Note_off_c, 1, 66, 0
1, 37281, Note_off_c, 1, 76, 0
1, 37303, Note_on_c, 1, 74, 127
1, 37309, Note_on_c, 1, 54, 127
1, 37346, Note_off_c, 1, 74, 0
1, 37356, Note_on_c, 1, 73, 127
1, 37380, Note_off_c, 1, 54, 0
1, 37396, Note_off_c, 1, 73, 0
1, 37418, Note_on_c, 1, 71, 127
1, 37422, Note_on_c, 1, 74, 127
1, 37430, Note_on_c, 1, 59, 127
1, 37439, Note_on_c, 1, 66, 127
1, 37511, Note_off_c, 1, 74, 0
1, 37521, Note_off_c, 1, 59, 0
1, 37528, Note_off_c, 1, 71, 0
1, 37534, Note_off_c, 1, 66, 0
1, 37543, Note_on_c, 1, 71, 127
1, 37549, Note_on_c, 1, 62, 127
1, 37551, Note_on_c, 1, 66, 127
1, 37569, Note_on_c, 1, 73, 127
1, 37590, Note_on_c, 1, 74, 127
1, 37596, Note_off_c, 1, 71, 0
1, 37598, Note_off_c, 1, 62, 0
1, 37599, Note_on_c, 1, 59, 127
1, 37613, Note_off_c, 1, 66, 0
1, 37618, Note_off_c, 1, 73, 0
1, 37621, Note_on_c, 1, 76, 127
1, 37638, Note_off_c, 1, 74, 0
1, 37639, Note_off_c, 1, 59, 0
1, 37661, Note_on_c, 1, 78, 127
1, 37666, Note_on_c, 1, 54, 127
1, 37671, Note_off_c, 1, 76, 0
1, 37722, Note_off_c, 1, 78, 0
1, 37750, Note_off_c, 1, 54, 0
1, 37785, Note_on_c, 1, 74, 127
1, 37790, Note_on_c, 1, 66, 127
1, 37790, Note_on_c, 1, 59, 127
1, 37794, Note_on_c, 1, 71, 127
1, 37832, Note_off_c, 1, 74, 0
1, 37838, Note_on_c, 1, 78, 127
1, 37840, Note_off_c, 1, 66, 0
1, 37841, Note_on_c, 1, 54, 127
1, 37842, Note_off_c, 1, 59, 0
1, 37880, Note_off_c, 1, 54, 0
1, 37887, Note_off_c, 1, 78, 0
1, 37890, Note_off_c, 1, 71, 0
1, 37903, Note_on_c, 1, 78, 127
1, 37903, Note_on_c, 1, 83, 127
1, 37907, Note_on_c, 1, 50, 127
1, 37908, Note_on_c, 1, 74, 127
1, 37958, Note_off_c, 1, 74, 0
1, 37965, Note_off_c, 1, 78, 0
1, 37974, Note_off_c, 1, 83, 0
1, 37983, Note_off_c, 1, 50, 0
1, 38020, Note_on_c, 1, 47, 127
1, 38022, Note_on_c, 1, 62, 127
1, 38025, Note_on_c, 1, 78, 127
1, 38027, Note_on_c, 1, 71, 127
1, 38071, Note_on_c, 1, 50, 127
1, 38073, Note_off_c, 1, 47, 0
1, 38073, Note_off_c, 1, 78, 0
1, 38079, Note_off_c, 1, 62, 0
1, 38085, Note_off_c, 1, 71, 0
1, 38114, Note_off_c, 1, 50, 0
1, 38134, Note_on_c, 1, 54, 127
1, 38147, Note_on_c, 1, 61, 127
1, 38149, Note_on_c, 1, 71, 127
1, 38150, Note_on_c, 1, 76, 127
1, 38196, Note_off_c, 1, 54, 0
1, 38196, Note_off_c, 1, 76, 0
1, 38196, Note_on_c, 1, 74, 127
1, 38198, Note_off_c, 1, 71, 0
1, 38202, Note_off_c, 1, 61, 0
1, 38260, Note_off_c, 1, 74, 0
1, 38263, Note_on_c, 1, 73, 127
1, 38269, Note_on_c, 1, 70, 127
1, 38270, Note_on_c, 1, 66, 127
1, 38270, Note_on_c, 1, 42, 127
1, 38307, Note_off_c, 1, 73, 0
1, 38315, Note_off_c, 1, 66, 0
1, 38317, Note_on_c, 1, 74, 127
1, 38320, Note_off_c, 1, 70, 0
1, 38326, Note_off_c, 1, 42, 0
1, 38353, Note_off_c, 1, 74, 0
1, 38386, Note_on_c, 1, 73, 127
1, 38391, Note_on_c, 1, 66, 127
1, 38397, Note_on_c, 1, 62, 127
1, 38399, Note_on_c, 1, 47, 127
1, 38504, Note_on_c, 1, 71, 127
1, 38517, Note_off_c, 1, 73, 0
1, 38580, Note_off_c, 1, 66, 0
1, 38637, Note_off_c, 1, 62, 0
1, 38644, Note_off_c, 1, 71, 0
1, 38653, Note_off_c, 1, 47, 0
1, 38653, End_track
0, 0, End_of_file