0, 0, Header, 1, 1, 480
1, 0, Start_track
1, 0, Title_t, "Test"
1, 0, Tempo, 500000
1, 0, Instrument_name_t, "Church Organ"
1, 96, Note_on_c, 1, 53, 127
1, 96, Note_on_c, 1, 72, 127
1, 96, Note_on_c, 1, 69, 127
1, 96, Note_on_c, 1, 65, 127
1, 96, Note_on_c, 1, 57, 127
1, 96, Note_on_c, 1, 45, 127
1, 180, Note_off_c, 1, 53, 0
1, 180, Note_off_c, 1, 72, 0
1, 180, Note_off_c, 1, 69, 0
1, 192, Note_on_c, 1, 75, 127
1, 192, Note_on_c, 1, 63, 127
1, 276, Note_off_c, 1, 65, 0
1, 276, Note_off_c, 1, 57, 0
1, 276, Note_off_c, 1, 45, 0
1, 276, Note_off_c, 1, 75, 0
1, 276, Note_off_c, 1, 63, 0
1, 288, Note_on_c, 1, 53, 127
1, 288, Note_on_c, 1, 74, 127
1, 288, Note_on_c, 1, 70, 127
1, 288, Note_on_c, 1, 65, 127
1, 288, Note_on_c, 1, 58, 127
1, 288, Note_on_c, 1, 46, 127
1, 330, Note_off_c, 1, 53, 0
1, 372, Note_off_c, 1, 74, 0
1, 372, Note_off_c, 1, 70, 0
1, 372, Note_off_c, 1, 65, 0
1, 372, Note_off_c, 1, 58, 0
1, 372, Note_off_c, 1, 46, 0
1, 384, Note_on_c, 1, 53, 127
1, 384, Note_on_c, 1, 72, 127
1, 384, Note_on_c, 1, 69, 127
1, 384, Note_on_c, 1, 63, 127
1, 384, Note_on_c, 1, 60, 127
1, 384, Note_on_c, 1, 48, 127
1, 384, Note_on_c, 1, 75, 127
1, 384, Note_on_c, 1, 65, 127
1, 394, Note_off_c, 1, 65, 0
1, 468, Note_off_c, 1, 53, 0
1, 468, Note_off_c, 1, 72, 0
1, 468, Note_off_c, 1, 69, 0
1, 468, Note_off_c, 1, 60, 0
1, 468, Note_off_c, 1, 48, 0
1, 468, Note_off_c, 1, 75, 0
1, 478, Note_off_c, 1, 63, 0
1, 480, Note_on_c, 1, 53, 127
1, 480, Note_on_c, 1, 70, 127
1, 480, Note_on_c, 1, 65, 127
1, 480, Note_on_c, 1, 62, 127
1, 480, Note_on_c, 1, 63, 127
1, 480, Note_on_c, 1, 51, 127
1, 480, Note_on_c, 1, 75, 127
1, 522, Note_off_c, 1, 53, 0
1, 522, Note_off_c, 1, 62, 0
1, 528, Note_on_c, 1, 69, 127
1, 528, Note_on_c, 1, 60, 127
1, 564, Note_off_c, 1, 70, 0
1, 564, Note_off_c, 1, 65, 0
1, 564, Note_off_c, 1, 63, 0
1, 564, Note_off_c, 1, 51, 0
1, 564, Note_off_c, 1, 75, 0
1, 570, Note_off_c, 1, 69, 0
1, 570, Note_off_c, 1, 60, 0
1, 576, Note_on_c, 1, 53, 127
1, 576, Note_on_c, 1, 70, 127
1, 576, Note_on_c, 1, 65, 127
1, 576, Note_on_c, 1, 62, 127
1, 576, Note_on_c, 1, 50, 127
1, 618, Note_off_c, 1, 53, 0
1, 660, Note_off_c, 1, 70, 0
1, 660, Note_off_c, 1, 65, 0
1, 660, Note_off_c, 1, 62, 0
1, 660, Note_off_c, 1, 50, 0
1, 672, Note_on_c, 1, 53, 127
1, 672, Note_on_c, 1, 72, 127
1, 672, Note_on_c, 1, 69, 127
1, 672, Note_on_c, 1, 63, 127
1, 672, Note_on_c, 1, 60, 127
1, 672, Note_on_c, 1, 48, 127
1, 672, Note_on_c, 1, 75, 127
1, 756, Note_off_c, 1, 53, 0
1, 756, Note_off_c, 1, 72, 0
1, 756, Note_off_c, 1, 69, 0
1, 756, Note_off_c, 1, 63, 0
1, 756, Note_off_c, 1, 60, 0
1, 756, Note_off_c, 1, 48, 0
1, 756, Note_off_c, 1, 75, 0
1, 768, Note_on_c, 1, 53, 127
1, 768, Note_on_c, 1, 75, 127
1, 768, Note_on_c, 1, 72, 127
1, 768, Note_on_c, 1, 60, 127
1, 768, Note_on_c, 1, 58, 127
1, 768, Note_on_c, 1, 46, 127
1, 768, Note_on_c, 1, 63, 127
1, 810, Note_off_c, 1, 53, 0
1, 810, Note_off_c, 1, 58, 0
1, 810, Note_off_c, 1, 46, 0
1, 816, Note_on_c, 1, 57, 127
1, 816, Note_on_c, 1, 45, 127
1, 852, Note_off_c, 1, 75, 0
1, 852, Note_off_c, 1, 72, 0
1, 852, Note_off_c, 1, 60, 0
1, 852, Note_off_c, 1, 63, 0
1, 858, Note_off_c, 1, 57, 0
1, 858, Note_off_c, 1, 45, 0
1, 864, Note_on_c, 1, 53, 127
1, 864, Note_on_c, 1, 74, 127
1, 864, Note_on_c, 1, 70, 127
1, 864, Note_on_c, 1, 65, 127
1, 864, Note_on_c, 1, 58, 127
1, 864, Note_on_c, 1, 46, 127
1, 906, Note_off_c, 1, 53, 0
1, 948, Note_off_c, 1, 74, 0
1, 948, Note_off_c, 1, 70, 0
1, 948, Note_off_c, 1, 65, 0
1, 948, Note_off_c, 1, 58, 0
1, 948, Note_off_c, 1, 46, 0
1, 960, Note_on_c, 1, 53, 127
1, 960, Note_on_c, 1, 74, 127
1, 960, Note_on_c, 1, 72, 127
1, 960, Note_on_c, 1, 65, 127
1, 960, Note_on_c, 1, 57, 127
1, 960, Note_on_c, 1, 45, 127
1, 970, Note_off_c, 1, 74, 0
1, 1044, Note_off_c, 1, 53, 0
1, 1044, Note_off_c, 1, 57, 0
1, 1044, Note_off_c, 1, 45, 0
1, 1054, Note_off_c, 1, 72, 0
1, 1056, Note_on_c, 1, 70, 127
1, 1056, Note_on_c, 1, 58, 127
1, 1056, Note_on_c, 1, 46, 127
1, 1098, Note_off_c, 1, 58, 0
1, 1098, Note_off_c, 1, 46, 0
1, 1140, Note_off_c, 1, 65, 0
1, 1140, Note_off_c, 1, 70, 0
1, 1152, Note_on_c, 1, 53, 127
1, 1152, Note_on_c, 1, 77, 127
1, 1152, Note_on_c, 1, 69, 127
1, 1152, Note_on_c, 1, 60, 127
1, 1152, Note_on_c, 1, 55, 127
1, 1152, Note_on_c, 1, 43, 127
1, 1194, Note_off_c, 1, 53, 0
1, 1194, Note_off_c, 1, 55, 0
1, 1194, Note_off_c, 1, 43, 0
1, 1200, Note_on_c, 1, 41, 127
1, 1236, Note_off_c, 1, 77, 0
1, 1236, Note_off_c, 1, 69, 0
1, 1236, Note_off_c, 1, 60, 0
1, 1242, Note_off_c, 1, 41, 0
1, 1248, Note_on_c, 1, 60, 127
1, 1248, Note_on_c, 1, 70, 127
1, 1248, Note_on_c, 1, 67, 127
1, 1248, Note_on_c, 1, 52, 127
1, 1248, Note_on_c, 1, 53, 127
1, 1248, Note_on_c, 1, 41, 127
1, 1248, Note_on_c, 1, 72, 127
1, 1258, Note_off_c, 1, 53, 0
1, 1258, Note_off_c, 1, 41, 0
1, 1260, Note_on_c, 1, 40, 127
1, 1270, Note_off_c, 1, 40, 0
1, 1332, Note_off_c, 1, 70, 0
1, 1332, Note_off_c, 1, 72, 0
1, 1428, Note_off_c, 1, 67, 0
1, 1434, Note_off_c, 1, 60, 0
1, 1438, Note_off_c, 1, 52, 0
1, 1440, Note_on_c, 1, 60, 127
1, 1440, Note_on_c, 1, 69, 127
1, 1440, Note_on_c, 1, 65, 127
1, 1440, Note_on_c, 1, 53, 127
1, 1440, Note_on_c, 1, 41, 127
1, 1524, Note_off_c, 1, 69, 0
1, 1524, Note_off_c, 1, 65, 0
1, 1524, Note_off_c, 1, 53, 0
1, 1524, Note_off_c, 1, 41, 0
1, 1530, Note_off_c, 1, 60, 0
1, 1536, Note_on_c, 1, 60, 127
1, 1536, Note_on_c, 1, 70, 127
1, 1536, Note_on_c, 1, 64, 127
1, 1536, Note_on_c, 1, 55, 127
1, 1536, Note_on_c, 1, 43, 127
1, 1584, Note_on_c, 1, 65, 127
1, 1620, Note_off_c, 1, 60, 0
1, 1620, Note_off_c, 1, 70, 0
1, 1620, Note_off_c, 1, 64, 0
1, 1620, Note_off_c, 1, 55, 0
1, 1620, Note_off_c, 1, 43, 0
1, 1626, Note_off_c, 1, 65, 0
1, 1632, Note_on_c, 1, 60, 127
1, 1632, Note_on_c, 1, 74, 127
1, 1632, Note_on_c, 1, 67, 127
1, 1632, Note_on_c, 1, 69, 127
1, 1632, Note_on_c, 1, 53, 127
1, 1632, Note_on_c, 1, 41, 127
1, 1632, Note_on_c, 1, 62, 127
1, 1632, Note_on_c, 1, 57, 127
1, 1642, Note_off_c, 1, 67, 0
1, 1644, Note_on_c, 1, 65, 127
1, 1654, Note_off_c, 1, 65, 0
1, 1674, Note_off_c, 1, 60, 0
1, 1674, Note_off_c, 1, 53, 0
1, 1674, Note_off_c, 1, 41, 0
1, 1680, Note_on_c, 1, 52, 127
1, 1680, Note_on_c, 1, 40, 127
1, 1716, Note_off_c, 1, 69, 0
1, 1716, Note_off_c, 1, 62, 0
1, 1716, Note_off_c, 1, 57, 0
1, 1722, Note_off_c, 1, 52, 0
1, 1722, Note_off_c, 1, 40, 0
1, 1776, Note_on_c, 1, 64, 127
1, 1797, Note_off_c, 1, 64, 0
1, 1812, Note_off_c, 1, 74, 0
1, 1824, Note_on_c, 1, 60, 127
1, 1824, Note_on_c, 1, 70, 127
1, 1824, Note_on_c, 1, 67, 127
1, 1824, Note_on_c, 1, 52, 127
1, 1824, Note_on_c, 1, 72, 127
1, 1824, Note_on_c, 1, 40, 127
1, 1908, Note_off_c, 1, 67, 0
1, 1908, Note_off_c, 1, 52, 0
1, 1908, Note_off_c, 1, 72, 0
1, 1908, Note_off_c, 1, 40, 0
1, 1918, Note_off_c, 1, 70, 0
1, 1920, Note_on_c, 1, 69, 127
1, 1920, Note_on_c, 1, 65, 127
1, 1920, Note_on_c, 1, 53, 127
1, 1920, Note_on_c, 1, 41, 127
1, 1962, Note_off_c, 1, 53, 0
1, 1962, Note_off_c, 1, 41, 0
1, 2004, Note_off_c, 1, 69, 0
1, 2004, Note_off_c, 1, 65, 0
1, 2010, Note_off_c, 1, 60, 0
1, 2016, Note_on_c, 1, 60, 127
1, 2016, Note_on_c, 1, 72, 127
1, 2016, Note_on_c, 1, 64, 127
1, 2016, Note_on_c, 1, 50, 127
1, 2016, Note_on_c, 1, 38, 127
1, 2058, Note_off_c, 1, 50, 0
1, 2058, Note_off_c, 1, 38, 0
1, 2064, Note_on_c, 1, 48, 127
1, 2064, Note_on_c, 1, 36, 127
1, 2100, Note_off_c, 1, 72, 0
1, 2100, Note_off_c, 1, 64, 0
1, 2106, Note_off_c, 1, 60, 0
1, 2106, Note_off_c, 1, 48, 0
1, 2106, Note_off_c, 1, 36, 0
1, 2112, Note_on_c, 1, 60, 127
1, 2112, Note_on_c, 1, 69, 127
1, 2112, Note_on_c, 1, 65, 127
1, 2112, Note_on_c, 1, 53, 127
1, 2112, Note_on_c, 1, 70, 127
1, 2112, Note_on_c, 1, 41, 127
1, 2122, Note_off_c, 1, 70, 0
1, 2196, Note_off_c, 1, 53, 0
1, 2196, Note_off_c, 1, 41, 0
1, 2208, Note_on_c, 1, 52, 127
1, 2208, Note_on_c, 1, 40, 127
1, 2208, Note_on_c, 1, 72, 127
1, 2250, Note_off_c, 1, 52, 0
1, 2250, Note_off_c, 1, 40, 0
1, 2256, Note_on_c, 1, 50, 127
1, 2256, Note_on_c, 1, 38, 127
1, 2292, Note_off_c, 1, 65, 0
1, 2292, Note_off_c, 1, 72, 0
1, 2298, Note_off_c, 1, 60, 0
1, 2298, Note_off_c, 1, 50, 0
1, 2298, Note_off_c, 1, 38, 0
1, 2302, Note_off_c, 1, 69, 0
1, 2304, Note_on_c, 1, 60, 127
1, 2304, Note_on_c, 1, 67, 127
1, 2304, Note_on_c, 1, 52, 127
1, 2304, Note_on_c, 1, 40, 127
1, 2304, Note_on_c, 1, 72, 127
1, 2388, Note_off_c, 1, 67, 0
1, 2388, Note_off_c, 1, 52, 0
1, 2388, Note_off_c, 1, 40, 0
1, 2388, Note_off_c, 1, 72, 0
1, 2394, Note_off_c, 1, 60, 0
1, 2400, Note_on_c, 1, 67, 127
1, 2400, Note_on_c, 1, 71, 127
1, 2400, Note_on_c, 1, 65, 127
1, 2400, Note_on_c, 1, 62, 127
1, 2400, Note_on_c, 1, 50, 127
1, 2400, Note_on_c, 1, 38, 127
1, 2400, Note_on_c, 1, 64, 127
1, 2410, Note_off_c, 1, 64, 0
1, 2448, Note_on_c, 1, 72, 127
1, 2484, Note_off_c, 1, 67, 0
1, 2484, Note_off_c, 1, 71, 0
1, 2484, Note_off_c, 1, 65, 0
1, 2484, Note_off_c, 1, 50, 0
1, 2484, Note_off_c, 1, 38, 0
1, 2490, Note_off_c, 1, 72, 0
1, 2494, Note_off_c, 1, 62, 0
1, 2496, Note_on_c, 1, 67, 127
1, 2496, Note_on_c, 1, 74, 127
1, 2496, Note_on_c, 1, 60, 127
1, 2496, Note_on_c, 1, 52, 127
1, 2496, Note_on_c, 1, 40, 127
1, 2496, Note_on_c, 1, 72, 127
1, 2506, Note_off_c, 1, 74, 0
1, 2538, Note_off_c, 1, 60, 0
1, 2544, Note_on_c, 1, 62, 127
1, 2580, Note_off_c, 1, 52, 0
1, 2580, Note_off_c, 1, 40, 0
1, 2586, Note_off_c, 1, 62, 0
1, 2590, Note_off_c, 1, 72, 0
1, 2592, Note_on_c, 1, 64, 127
1, 2592, Note_on_c, 1, 48, 127
1, 2592, Note_on_c, 1, 36, 127
1, 2592, Note_on_c, 1, 76, 127
1, 2640, Note_on_c, 1, 71, 127
1, 2661, Note_off_c, 1, 71, 0
1, 2676, Note_off_c, 1, 64, 0
1, 2676, Note_off_c, 1, 48, 0
1, 2676, Note_off_c, 1, 36, 0
1, 2676, Note_off_c, 1, 76, 0
1, 2682, Note_off_c, 1, 67, 0
1, 2688, Note_on_c, 1, 67, 127
1, 2688, Note_on_c, 1, 74, 127
1, 2688, Note_on_c, 1, 62, 127
1, 2688, Note_on_c, 1, 47, 127
1, 2688, Note_on_c, 1, 35, 127
1, 2772, Note_off_c, 1, 74, 0
1, 2772, Note_off_c, 1, 47, 0
1, 2772, Note_off_c, 1, 35, 0
1, 2784, Note_on_c, 1, 72, 127
1, 2784, Note_on_c, 1, 45, 127
1, 2784, Note_on_c, 1, 33, 127
1, 2826, Note_off_c, 1, 45, 0
1, 2826, Note_off_c, 1, 33, 0
1, 2832, Note_on_c, 1, 71, 127
1, 2832, Note_on_c, 1, 43, 127
1, 2832, Note_on_c, 1, 31, 127
1, 2868, Note_off_c, 1, 62, 0
1, 2868, Note_off_c, 1, 72, 0
1, 2874, Note_off_c, 1, 67, 0
1, 2874, Note_off_c, 1, 71, 0
1, 2874, Note_off_c, 1, 43, 0
1, 2874, Note_off_c, 1, 31, 0
1, 2880, Note_on_c, 1, 67, 127
1, 2880, Note_on_c, 1, 72, 127
1, 2880, Note_on_c, 1, 64, 127
1, 2880, Note_on_c, 1, 41, 127
1, 2880, Note_on_c, 1, 29, 127
1, 2922, Note_off_c, 1, 41, 0
1, 2922, Note_off_c, 1, 29, 0
1, 2928, Note_on_c, 1, 40, 127
1, 2928, Note_on_c, 1, 28, 127
1, 2964, Note_off_c, 1, 72, 0
1, 2964, Note_off_c, 1, 64, 0
1, 2970, Note_off_c, 1, 67, 0
1, 2970, Note_off_c, 1, 40, 0
1, 2970, Note_off_c, 1, 28, 0
1, 2976, Note_on_c, 1, 72, 127
1, 2976, Note_on_c, 1, 69, 127
1, 2976, Note_on_c, 1, 77, 127
1, 2976, Note_on_c, 1, 60, 127
1, 2976, Note_on_c, 1, 45, 127
1, 2976, Note_on_c, 1, 33, 127
1, 2976, Note_on_c, 1, 65, 127
1, 3018, Note_off_c, 1, 77, 0
1, 3018, Note_off_c, 1, 45, 0
1, 3018, Note_off_c, 1, 33, 0
1, 3024, Note_on_c, 1, 71, 127
1, 3024, Note_on_c, 1, 79, 127
1, 3024, Note_on_c, 1, 41, 127
1, 3024, Note_on_c, 1, 29, 127
1, 3060, Note_off_c, 1, 72, 0
1, 3060, Note_off_c, 1, 69, 0
1, 3060, Note_off_c, 1, 60, 0
1, 3060, Note_off_c, 1, 65, 0
1, 3066, Note_off_c, 1, 71, 0
1, 3066, Note_off_c, 1, 79, 0
1, 3066, Note_off_c, 1, 41, 0
1, 3066, Note_off_c, 1, 29, 0
1, 3072, Note_on_c, 1, 71, 127
1, 3072, Note_on_c, 1, 67, 127
1, 3072, Note_on_c, 1, 74, 127
1, 3072, Note_on_c, 1, 72, 127
1, 3072, Note_on_c, 1, 43, 127
1, 3072, Note_on_c, 1, 31, 127
1, 3072, Note_on_c, 1, 62, 127
1, 3072, Note_on_c, 1, 70, 127
1, 3082, Note_off_c, 1, 72, 0
1, 3156, Note_off_c, 1, 43, 0
1, 3156, Note_off_c, 1, 31, 0
1, 3156, Note_off_c, 1, 62, 0
1, 3156, Note_off_c, 1, 70, 0
1, 3162, Note_off_c, 1, 67, 0
1, 3168, Note_on_c, 1, 65, 127
1, 3204, Note_off_c, 1, 74, 0
1, 3214, Note_off_c, 1, 71, 0
1, 3252, Note_off_c, 1, 65, 0
1, 3264, Note_on_c, 1, 72, 127
1, 3264, Note_on_c, 1, 67, 127
1, 3264, Note_on_c, 1, 64, 127
1, 3264, Note_on_c, 1, 36, 127
1, 3264, Note_on_c, 1, 24, 127
1, 3264, Note_on_c, 1, 76, 127
1, 3348, Note_off_c, 1, 36, 0
1, 3348, Note_off_c, 1, 24, 0
1, 3348, Note_off_c, 1, 76, 0
1, 3360, Note_on_c, 1, 48, 127
1, 3360, Note_on_c, 1, 60, 127
1, 3402, Note_off_c, 1, 48, 0
1, 3402, Note_off_c, 1, 60, 0
1, 3408, Note_on_c, 1, 46, 127
1, 3408, Note_on_c, 1, 34, 127
1, 3408, Note_on_c, 1, 58, 127
1, 3450, Note_off_c, 1, 46, 0
1, 3450, Note_off_c, 1, 34, 0
1, 3450, Note_off_c, 1, 58, 0
1, 3456, Note_on_c, 1, 45, 127
1, 3456, Note_on_c, 1, 33, 127
1, 3456, Note_on_c, 1, 57, 127
1, 3498, Note_off_c, 1, 45, 0
1, 3498, Note_off_c, 1, 33, 0
1, 3498, Note_off_c, 1, 57, 0
1, 3504, Note_on_c, 1, 43, 127
1, 3504, Note_on_c, 1, 31, 127
1, 3504, Note_on_c, 1, 55, 127
1, 3540, Note_off_c, 1, 72, 0
1, 3540, Note_off_c, 1, 67, 0
1, 3540, Note_off_c, 1, 64, 0
1, 3546, Note_off_c, 1, 43, 0
1, 3546, Note_off_c, 1, 31, 0
1, 3546, Note_off_c, 1, 55, 0
1, 3552, Note_on_c, 1, 53, 127
1, 3552, Note_on_c, 1, 72, 127
1, 3552, Note_on_c, 1, 69, 127
1, 3552, Note_on_c, 1, 65, 127
1, 3552, Note_on_c, 1, 41, 127
1, 3552, Note_on_c, 1, 29, 127
1, 3552, Note_on_c, 1, 60, 127
1, 3636, Note_off_c, 1, 53, 0
1, 3636, Note_off_c, 1, 72, 0
1, 3636, Note_off_c, 1, 69, 0
1, 3636, Note_off_c, 1, 41, 0
1, 3636, Note_off_c, 1, 29, 0
1, 3636, Note_off_c, 1, 60, 0
1, 3648, Note_on_c, 1, 75, 127
1, 3648, Note_on_c, 1, 57, 127
1, 3648, Note_on_c, 1, 45, 127
1, 3648, Note_on_c, 1, 63, 127
1, 3732, Note_off_c, 1, 65, 0
1, 3732, Note_off_c, 1, 75, 0
1, 3732, Note_off_c, 1, 57, 0
1, 3732, Note_off_c, 1, 45, 0
1, 3732, Note_off_c, 1, 63, 0
1, 3744, Note_on_c, 1, 53, 127
1, 3744, Note_on_c, 1, 74, 127
1, 3744, Note_on_c, 1, 70, 127
1, 3744, Note_on_c, 1, 65, 127
1, 3744, Note_on_c, 1, 58, 127
1, 3744, Note_on_c, 1, 46, 127
1, 3786, Note_off_c, 1, 53, 0
1, 3828, Note_off_c, 1, 74, 0
1, 3828, Note_off_c, 1, 70, 0
1, 3828, Note_off_c, 1, 65, 0
1, 3828, Note_off_c, 1, 58, 0
1, 3828, Note_off_c, 1, 46, 0
1, 3840, Note_on_c, 1, 53, 127
1, 3840, Note_on_c, 1, 72, 127
1, 3840, Note_on_c, 1, 69, 127
1, 3840, Note_on_c, 1, 63, 127
1, 3840, Note_on_c, 1, 60, 127
1, 3840, Note_on_c, 1, 48, 127
1, 3840, Note_on_c, 1, 75, 127
1, 3840, Note_on_c, 1, 65, 127
1, 3850, Note_off_c, 1, 65, 0
1, 3924, Note_off_c, 1, 53, 0
1, 3924, Note_off_c, 1, 72, 0
1, 3924, Note_off_c, 1, 69, 0
1, 3924, Note_off_c, 1, 60, 0
1, 3924, Note_off_c, 1, 48, 0
1, 3924, Note_off_c, 1, 75, 0
1, 3934, Note_off_c, 1, 63, 0
1, 3936, Note_on_c, 1, 53, 127
1, 3936, Note_on_c, 1, 70, 127
1, 3936, Note_on_c, 1, 65, 127
1, 3936, Note_on_c, 1, 62, 127
1, 3936, Note_on_c, 1, 63, 127
1, 3936, Note_on_c, 1, 51, 127
1, 3936, Note_on_c, 1, 75, 127
1, 3978, Note_off_c, 1, 53, 0
1, 3978, Note_off_c, 1, 62, 0
1, 3984, Note_on_c, 1, 69, 127
1, 3984, Note_on_c, 1, 60, 127
1, 4020, Note_off_c, 1, 70, 0
1, 4020, Note_off_c, 1, 65, 0
1, 4020, Note_off_c, 1, 63, 0
1, 4020, Note_off_c, 1, 51, 0
1, 4020, Note_off_c, 1, 75, 0
1, 4026, Note_off_c, 1, 69, 0
1, 4026, Note_off_c, 1, 60, 0
1, 4032, Note_on_c, 1, 53, 127
1, 4032, Note_on_c, 1, 70, 127
1, 4032, Note_on_c, 1, 65, 127
1, 4032, Note_on_c, 1, 62, 127
1, 4032, Note_on_c, 1, 50, 127
1, 4074, Note_off_c, 1, 53, 0
1, 4116, Note_off_c, 1, 70, 0
1, 4116, Note_off_c, 1, 65, 0
1, 4116, Note_off_c, 1, 62, 0
1, 4116, Note_off_c, 1, 50, 0
1, 4128, Note_on_c, 1, 53, 127
1, 4128, Note_on_c, 1, 72, 127
1, 4128, Note_on_c, 1, 69, 127
1, 4128, Note_on_c, 1, 63, 127
1, 4128, Note_on_c, 1, 60, 127
1, 4128, Note_on_c, 1, 48, 127
1, 4128, Note_on_c, 1, 75, 127
1, 4212, Note_off_c, 1, 53, 0
1, 4212, Note_off_c, 1, 72, 0
1, 4212, Note_off_c, 1, 69, 0
1, 4212, Note_off_c, 1, 63, 0
1, 4212, Note_off_c, 1, 60, 0
1, 4212, Note_off_c, 1, 48, 0
1, 4212, Note_off_c, 1, 75, 0
1, 4224, Note_on_c, 1, 53, 127
1, 4224, Note_on_c, 1, 75, 127
1, 4224, Note_on_c, 1, 72, 127
1, 4224, Note_on_c, 1, 60, 127
1, 4224, Note_on_c, 1, 58, 127
1, 4224, Note_on_c, 1, 46, 127
1, 4224, Note_on_c, 1, 63, 127
1, 4266, Note_off_c, 1, 53, 0
1, 4266, Note_off_c, 1, 58, 0
1, 4266, Note_off_c, 1, 46, 0
1, 4272, Note_on_c, 1, 57, 127
1, 4272, Note_on_c, 1, 45, 127
1, 4308, Note_off_c, 1, 75, 0
1, 4308, Note_off_c, 1, 72, 0
1, 4308, Note_off_c, 1, 60, 0
1, 4308, Note_off_c, 1, 63, 0
1, 4314, Note_off_c, 1, 57, 0
1, 4314, Note_off_c, 1, 45, 0
1, 4320, Note_on_c, 1, 53, 127
1, 4320, Note_on_c, 1, 74, 127
1, 4320, Note_on_c, 1, 70, 127
1, 4320, Note_on_c, 1, 65, 127
1, 4320, Note_on_c, 1, 58, 127
1, 4320, Note_on_c, 1, 46, 127
1, 4362, Note_off_c, 1, 53, 0
1, 4404, Note_off_c, 1, 74, 0
1, 4404, Note_off_c, 1, 70, 0
1, 4404, Note_off_c, 1, 65, 0
1, 4404, Note_off_c, 1, 58, 0
1, 4404, Note_off_c, 1, 46, 0
1, 4416, Note_on_c, 1, 53, 127
1, 4416, Note_on_c, 1, 74, 127
1, 4416, Note_on_c, 1, 72, 127
1, 4416, Note_on_c, 1, 65, 127
1, 4416, Note_on_c, 1, 57, 127
1, 4416, Note_on_c, 1, 45, 127
1, 4426, Note_off_c, 1, 74, 0
1, 4500, Note_off_c, 1, 53, 0
1, 4500, Note_off_c, 1, 57, 0
1, 4500, Note_off_c, 1, 45, 0
1, 4510, Note_off_c, 1, 72, 0
1, 4512, Note_on_c, 1, 70, 127
1, 4512, Note_on_c, 1, 58, 127
1, 4512, Note_on_c, 1, 46, 127
1, 4554, Note_off_c, 1, 58, 0
1, 4554, Note_off_c, 1, 46, 0
1, 4596, Note_off_c, 1, 65, 0
1, 4596, Note_off_c, 1, 70, 0
1, 4608, Note_on_c, 1, 53, 127
1, 4608, Note_on_c, 1, 77, 127
1, 4608, Note_on_c, 1, 69, 127
1, 4608, Note_on_c, 1, 60, 127
1, 4608, Note_on_c, 1, 55, 127
1, 4608, Note_on_c, 1, 43, 127
1, 4650, Note_off_c, 1, 53, 0
1, 4650, Note_off_c, 1, 55, 0
1, 4650, Note_off_c, 1, 43, 0
1, 4656, Note_on_c, 1, 41, 127
1, 4692, Note_off_c, 1, 77, 0
1, 4692, Note_off_c, 1, 69, 0
1, 4692, Note_off_c, 1, 60, 0
1, 4698, Note_off_c, 1, 41, 0
1, 4704, Note_on_c, 1, 60, 127
1, 4704, Note_on_c, 1, 70, 127
1, 4704, Note_on_c, 1, 67, 127
1, 4704, Note_on_c, 1, 52, 127
1, 4704, Note_on_c, 1, 53, 127
1, 4704, Note_on_c, 1, 41, 127
1, 4704, Note_on_c, 1, 72, 127
1, 4714, Note_off_c, 1, 53, 0
1, 4714, Note_off_c, 1, 41, 0
1, 4716, Note_on_c, 1, 40, 127
1, 4726, Note_off_c, 1, 40, 0
1, 4788, Note_off_c, 1, 70, 0
1, 4788, Note_off_c, 1, 72, 0
1, 4884, Note_off_c, 1, 67, 0
1, 4890, Note_off_c, 1, 60, 0
1, 4894, Note_off_c, 1, 52, 0
1, 4896, Note_on_c, 1, 60, 127
1, 4896, Note_on_c, 1, 69, 127
1, 4896, Note_on_c, 1, 65, 127
1, 4896, Note_on_c, 1, 53, 127
1, 4896, Note_on_c, 1, 41, 127
1, 4980, Note_off_c, 1, 69, 0
1, 4980, Note_off_c, 1, 65, 0
1, 4980, Note_off_c, 1, 53, 0
1, 4980, Note_off_c, 1, 41, 0
1, 4986, Note_off_c, 1, 60, 0
1, 4992, Note_on_c, 1, 60, 127
1, 4992, Note_on_c, 1, 70, 127
1, 4992, Note_on_c, 1, 64, 127
1, 4992, Note_on_c, 1, 55, 127
1, 4992, Note_on_c, 1, 43, 127
1, 5040, Note_on_c, 1, 65, 127
1, 5076, Note_off_c, 1, 60, 0
1, 5076, Note_off_c, 1, 70, 0
1, 5076, Note_off_c, 1, 64, 0
1, 5076, Note_off_c, 1, 55, 0
1, 5076, Note_off_c, 1, 43, 0
1, 5082, Note_off_c, 1, 65, 0
1, 5088, Note_on_c, 1, 60, 127
1, 5088, Note_on_c, 1, 74, 127
1, 5088, Note_on_c, 1, 67, 127
1, 5088, Note_on_c, 1, 69, 127
1, 5088, Note_on_c, 1, 53, 127
1, 5088, Note_on_c, 1, 41, 127
1, 5088, Note_on_c, 1, 62, 127
1, 5088, Note_on_c, 1, 57, 127
1, 5098, Note_off_c, 1, 67, 0
1, 5100, Note_on_c, 1, 65, 127
1, 5110, Note_off_c, 1, 65, 0
1, 5130, Note_off_c, 1, 60, 0
1, 5130, Note_off_c, 1, 53, 0
1, 5130, Note_off_c, 1, 41, 0
1, 5136, Note_on_c, 1, 52, 127
1, 5136, Note_on_c, 1, 40, 127
1, 5172, Note_off_c, 1, 69, 0
1, 5172, Note_off_c, 1, 62, 0
1, 5172, Note_off_c, 1, 57, 0
1, 5178, Note_off_c, 1, 52, 0
1, 5178, Note_off_c, 1, 40, 0
1, 5232, Note_on_c, 1, 64, 127
1, 5253, Note_off_c, 1, 64, 0
1, 5268, Note_off_c, 1, 74, 0
1, 5280, Note_on_c, 1, 60, 127
1, 5280, Note_on_c, 1, 70, 127
1, 5280, Note_on_c, 1, 67, 127
1, 5280, Note_on_c, 1, 52, 127
1, 5280, Note_on_c, 1, 72, 127
1, 5280, Note_on_c, 1, 40, 127
1, 5364, Note_off_c, 1, 67, 0
1, 5364, Note_off_c, 1, 52, 0
1, 5364, Note_off_c, 1, 72, 0
1, 5364, Note_off_c, 1, 40, 0
1, 5374, Note_off_c, 1, 70, 0
1, 5376, Note_on_c, 1, 69, 127
1, 5376, Note_on_c, 1, 65, 127
1, 5376, Note_on_c, 1, 53, 127
1, 5376, Note_on_c, 1, 41, 127
1, 5418, Note_off_c, 1, 53, 0
1, 5418, Note_off_c, 1, 41, 0
1, 5460, Note_off_c, 1, 69, 0
1, 5460, Note_off_c, 1, 65, 0
1, 5466, Note_off_c, 1, 60, 0
1, 5472, Note_on_c, 1, 60, 127
1, 5472, Note_on_c, 1, 72, 127
1, 5472, Note_on_c, 1, 64, 127
1, 5472, Note_on_c, 1, 50, 127
1, 5472, Note_on_c, 1, 38, 127
1, 5514, Note_off_c, 1, 50, 0
1, 5514, Note_off_c, 1, 38, 0
1, 5520, Note_on_c, 1, 48, 127
1, 5520, Note_on_c, 1, 36, 127
1, 5556, Note_off_c, 1, 72, 0
1, 5556, Note_off_c, 1, 64, 0
1, 5562, Note_off_c, 1, 60, 0
1, 5562, Note_off_c, 1, 48, 0
1, 5562, Note_off_c, 1, 36, 0
1, 5568, Note_on_c, 1, 60, 127
1, 5568, Note_on_c, 1, 69, 127
1, 5568, Note_on_c, 1, 65, 127
1, 5568, Note_on_c, 1, 53, 127
1, 5568, Note_on_c, 1, 70, 127
1, 5568, Note_on_c, 1, 41, 127
1, 5578, Note_off_c, 1, 70, 0
1, 5652, Note_off_c, 1, 53, 0
1, 5652, Note_off_c, 1, 41, 0
1, 5664, Note_on_c, 1, 52, 127
1, 5664, Note_on_c, 1, 40, 127
1, 5664, Note_on_c, 1, 72, 127
1, 5706, Note_off_c, 1, 52, 0
1, 5706, Note_off_c, 1, 40, 0
1, 5712, Note_on_c, 1, 50, 127
1, 5712, Note_on_c, 1, 38, 127
1, 5748, Note_off_c, 1, 65, 0
1, 5748, Note_off_c, 1, 72, 0
1, 5754, Note_off_c, 1, 60, 0
1, 5754, Note_off_c, 1, 50, 0
1, 5754, Note_off_c, 1, 38, 0
1, 5758, Note_off_c, 1, 69, 0
1, 5760, Note_on_c, 1, 60, 127
1, 5760, Note_on_c, 1, 67, 127
1, 5760, Note_on_c, 1, 52, 127
1, 5760, Note_on_c, 1, 40, 127
1, 5760, Note_on_c, 1, 72, 127
1, 5844, Note_off_c, 1, 67, 0
1, 5844, Note_off_c, 1, 52, 0
1, 5844, Note_off_c, 1, 40, 0
1, 5844, Note_off_c, 1, 72, 0
1, 5850, Note_off_c, 1, 60, 0
1, 5856, Note_on_c, 1, 67, 127
1, 5856, Note_on_c, 1, 71, 127
1, 5856, Note_on_c, 1, 65, 127
1, 5856, Note_on_c, 1, 62, 127
1, 5856, Note_on_c, 1, 50, 127
1, 5856, Note_on_c, 1, 38, 127
1, 5856, Note_on_c, 1, 64, 127
1, 5866, Note_off_c, 1, 64, 0
1, 5904, Note_on_c, 1, 72, 127
1, 5940, Note_off_c, 1, 67, 0
1, 5940, Note_off_c, 1, 71, 0
1, 5940, Note_off_c, 1, 65, 0
1, 5940, Note_off_c, 1, 50, 0
1, 5940, Note_off_c, 1, 38, 0
1, 5946, Note_off_c, 1, 72, 0
1, 5950, Note_off_c, 1, 62, 0
1, 5952, Note_on_c, 1, 67, 127
1, 5952, Note_on_c, 1, 74, 127
1, 5952, Note_on_c, 1, 60, 127
1, 5952, Note_on_c, 1, 52, 127
1, 5952, Note_on_c, 1, 40, 127
1, 5952, Note_on_c, 1, 72, 127
1, 5962, Note_off_c, 1, 74, 0
1, 5994, Note_off_c, 1, 60, 0
1, 6000, Note_on_c, 1, 62, 127
1, 6036, Note_off_c, 1, 52, 0
1, 6036, Note_off_c, 1, 40, 0
1, 6042, Note_off_c, 1, 62, 0
1, 6046, Note_off_c, 1, 72, 0
1, 6048, Note_on_c, 1, 64, 127
1, 6048, Note_on_c, 1, 48, 127
1, 6048, Note_on_c, 1, 36, 127
1, 6048, Note_on_c, 1, 76, 127
1, 6096, Note_on_c, 1, 71, 127
1, 6117, Note_off_c, 1, 71, 0
1, 6132, Note_off_c, 1, 64, 0
1, 6132, Note_off_c, 1, 48, 0
1, 6132, Note_off_c, 1, 36, 0
1, 6132, Note_off_c, 1, 76, 0
1, 6138, Note_off_c, 1, 67, 0
1, 6144, Note_on_c, 1, 67, 127
1, 6144, Note_on_c, 1, 74, 127
1, 6144, Note_on_c, 1, 62, 127
1, 6144, Note_on_c, 1, 47, 127
1, 6144, Note_on_c, 1, 35, 127
1, 6228, Note_off_c, 1, 74, 0
1, 6228, Note_off_c, 1, 47, 0
1, 6228, Note_off_c, 1, 35, 0
1, 6240, Note_on_c, 1, 72, 127
1, 6240, Note_on_c, 1, 45, 127
1, 6240, Note_on_c, 1, 33, 127
1, 6282, Note_off_c, 1, 45, 0
1, 6282, Note_off_c, 1, 33, 0
1, 6288, Note_on_c, 1, 71, 127
1, 6288, Note_on_c, 1, 43, 127
1, 6288, Note_on_c, 1, 31, 127
1, 6324, Note_off_c, 1, 62, 0
1, 6324, Note_off_c, 1, 72, 0
1, 6330, Note_off_c, 1, 67, 0
1, 6330, Note_off_c, 1, 71, 0
1, 6330, Note_off_c, 1, 43, 0
1, 6330, Note_off_c, 1, 31, 0
1, 6336, Note_on_c, 1, 67, 127
1, 6336, Note_on_c, 1, 72, 127
1, 6336, Note_on_c, 1, 64, 127
1, 6336, Note_on_c, 1, 41, 127
1, 6336, Note_on_c, 1, 29, 127
1, 6378, Note_off_c, 1, 41, 0
1, 6378, Note_off_c, 1, 29, 0
1, 6384, Note_on_c, 1, 40, 127
1, 6384, Note_on_c, 1, 28, 127
1, 6420, Note_off_c, 1, 72, 0
1, 6420, Note_off_c, 1, 64, 0
1, 6426, Note_off_c, 1, 67, 0
1, 6426, Note_off_c, 1, 40, 0
1, 6426, Note_off_c, 1, 28, 0
1, 6432, Note_on_c, 1, 72, 127
1, 6432, Note_on_c, 1, 69, 127
1, 6432, Note_on_c, 1, 77, 127
1, 6432, Note_on_c, 1, 60, 127
1, 6432, Note_on_c, 1, 45, 127
1, 6432, Note_on_c, 1, 33, 127
1, 6432, Note_on_c, 1, 65, 127
1, 6474, Note_off_c, 1, 77, 0
1, 6474, Note_off_c, 1, 45, 0
1, 6474, Note_off_c, 1, 33, 0
1, 6480, Note_on_c, 1, 71, 127
1, 6480, Note_on_c, 1, 79, 127
1, 6480, Note_on_c, 1, 41, 127
1, 6480, Note_on_c, 1, 29, 127
1, 6516, Note_off_c, 1, 72, 0
1, 6516, Note_off_c, 1, 69, 0
1, 6516, Note_off_c, 1, 60, 0
1, 6516, Note_off_c, 1, 65, 0
1, 6522, Note_off_c, 1, 71, 0
1, 6522, Note_off_c, 1, 79, 0
1, 6522, Note_off_c, 1, 41, 0
1, 6522, Note_off_c, 1, 29, 0
1, 6528, Note_on_c, 1, 71, 127
1, 6528, Note_on_c, 1, 67, 127
1, 6528, Note_on_c, 1, 74, 127
1, 6528, Note_on_c, 1, 72, 127
1, 6528, Note_on_c, 1, 43, 127
1, 6528, Note_on_c, 1, 31, 127
1, 6528, Note_on_c, 1, 62, 127
1, 6528, Note_on_c, 1, 70, 127
1, 6538, Note_off_c, 1, 72, 0
1, 6612, Note_off_c, 1, 43, 0
1, 6612, Note_off_c, 1, 31, 0
1, 6612, Note_off_c, 1, 62, 0
1, 6612, Note_off_c, 1, 70, 0
1, 6618, Note_off_c, 1, 67, 0
1, 6624, Note_on_c, 1, 65, 127
1, 6660, Note_off_c, 1, 74, 0
1, 6670, Note_off_c, 1, 71, 0
1, 6708, Note_off_c, 1, 65, 0
1, 6720, Note_on_c, 1, 72, 127
1, 6720, Note_on_c, 1, 67, 127
1, 6720, Note_on_c, 1, 64, 127
1, 6720, Note_on_c, 1, 36, 127
1, 6720, Note_on_c, 1, 24, 127
1, 6720, Note_on_c, 1, 76, 127
1, 6804, Note_off_c, 1, 36, 0
1, 6804, Note_off_c, 1, 24, 0
1, 6816, Note_on_c, 1, 48, 127
1, 6900, Note_off_c, 1, 48, 0
1, 6912, Note_on_c, 1, 50, 127
1, 6912, Note_on_c, 1, 38, 127
1, 6996, Note_off_c, 1, 72, 0
1, 6996, Note_off_c, 1, 67, 0
1, 6996, Note_off_c, 1, 64, 0
1, 6996, Note_off_c, 1, 76, 0
1, 6996, Note_off_c, 1, 50, 0
1, 6996, Note_off_c, 1, 38, 0
1, 7008, Note_on_c, 1, 60, 127
1, 7008, Note_on_c, 1, 79, 127
1, 7008, Note_on_c, 1, 72, 127
1, 7008, Note_on_c, 1, 67, 127
1, 7008, Note_on_c, 1, 52, 127
1, 7008, Note_on_c, 1, 40, 127
1, 7092, Note_off_c, 1, 60, 0
1, 7092, Note_off_c, 1, 79, 0
1, 7092, Note_off_c, 1, 72, 0
1, 7104, Note_on_c, 1, 82, 127
1, 7104, Note_on_c, 1, 70, 127
1, 7188, Note_off_c, 1, 67, 0
1, 7188, Note_off_c, 1, 52, 0
1, 7188, Note_off_c, 1, 40, 0
1, 7188, Note_off_c, 1, 82, 0
1, 7188, Note_off_c, 1, 70, 0
1, 7200, Note_on_c, 1, 60, 127
1, 7200, Note_on_c, 1, 81, 127
1, 7200, Note_on_c, 1, 77, 127
1, 7200, Note_on_c, 1, 72, 127
1, 7200, Note_on_c, 1, 53, 127
1, 7200, Note_on_c, 1, 41, 127
1, 7200, Note_on_c, 1, 69, 127
1, 7284, Note_off_c, 1, 81, 0
1, 7284, Note_off_c, 1, 77, 0
1, 7284, Note_off_c, 1, 72, 0
1, 7284, Note_off_c, 1, 53, 0
1, 7284, Note_off_c, 1, 41, 0
1, 7284, Note_off_c, 1, 69, 0
1, 7290, Note_off_c, 1, 60, 0
1, 7296, Note_on_c, 1, 60, 127
1, 7296, Note_on_c, 1, 79, 127
1, 7296, Note_on_c, 1, 76, 127
1, 7296, Note_on_c, 1, 70, 127
1, 7296, Note_on_c, 1, 55, 127
1, 7296, Note_on_c, 1, 81, 127
1, 7296, Note_on_c, 1, 43, 127
1, 7296, Note_on_c, 1, 64, 127
1, 7296, Note_on_c, 1, 72, 127
1, 7306, Note_off_c, 1, 81, 0
1, 7306, Note_off_c, 1, 72, 0
1, 7380, Note_off_c, 1, 60, 0
1, 7380, Note_off_c, 1, 76, 0
1, 7380, Note_off_c, 1, 55, 0
1, 7380, Note_off_c, 1, 43, 0
1, 7380, Note_off_c, 1, 64, 0
1, 7390, Note_off_c, 1, 79, 0
1, 7390, Note_off_c, 1, 70, 0
1, 7392, Note_on_c, 1, 60, 127
1, 7392, Note_on_c, 1, 77, 127
1, 7392, Note_on_c, 1, 72, 127
1, 7392, Note_on_c, 1, 69, 127
1, 7392, Note_on_c, 1, 58, 127
1, 7392, Note_on_c, 1, 46, 127
1, 7392, Note_on_c, 1, 64, 127
1, 7434, Note_off_c, 1, 60, 0
1, 7434, Note_off_c, 1, 77, 0
1, 7434, Note_off_c, 1, 69, 0
1, 7440, Note_on_c, 1, 76, 127
1, 7440, Note_on_c, 1, 67, 127
1, 7476, Note_off_c, 1, 72, 0
1, 7476, Note_off_c, 1, 58, 0
1, 7476, Note_off_c, 1, 46, 0
1, 7476, Note_off_c, 1, 64, 0
1, 7482, Note_off_c, 1, 76, 0
1, 7482, Note_off_c, 1, 67, 0
1, 7488, Note_on_c, 1, 60, 127
1, 7488, Note_on_c, 1, 77, 127
1, 7488, Note_on_c, 1, 72, 127
1, 7488, Note_on_c, 1, 69, 127
1, 7488, Note_on_c, 1, 57, 127
1, 7488, Note_on_c, 1, 45, 127
1, 7488, Note_on_c, 1, 65, 127
1, 7530, Note_off_c, 1, 60, 0
1, 7572, Note_off_c, 1, 77, 0
1, 7572, Note_off_c, 1, 72, 0
1, 7572, Note_off_c, 1, 69, 0
1, 7572, Note_off_c, 1, 57, 0
1, 7572, Note_off_c, 1, 45, 0
1, 7572, Note_off_c, 1, 65, 0
1, 7584, Note_on_c, 1, 60, 127
1, 7584, Note_on_c, 1, 79, 127
1, 7584, Note_on_c, 1, 76, 127
1, 7584, Note_on_c, 1, 70, 127
1, 7584, Note_on_c, 1, 55, 127
1, 7584, Note_on_c, 1, 43, 127
1, 7584, Note_on_c, 1, 64, 127
1, 7668, Note_off_c, 1, 60, 0
1, 7668, Note_off_c, 1, 79, 0
1, 7668, Note_off_c, 1, 76, 0
1, 7668, Note_off_c, 1, 70, 0
1, 7668, Note_off_c, 1, 55, 0
1, 7668, Note_off_c, 1, 43, 0
1, 7668, Note_off_c, 1, 64, 0
1, 7680, Note_on_c, 1, 60, 127
1, 7680, Note_on_c, 1, 82, 127
1, 7680, Note_on_c, 1, 79, 127
1, 7680, Note_on_c, 1, 67, 127
1, 7680, Note_on_c, 1, 53, 127
1, 7680, Note_on_c, 1, 41, 127
1, 7680, Note_on_c, 1, 62, 127
1, 7680, Note_on_c, 1, 70, 127
1, 7722, Note_off_c, 1, 60, 0
1, 7722, Note_off_c, 1, 53, 0
1, 7722, Note_off_c, 1, 41, 0
1, 7728, Note_on_c, 1, 52, 127
1, 7728, Note_on_c, 1, 40, 127
1, 7764, Note_off_c, 1, 82, 0
1, 7764, Note_off_c, 1, 79, 0
1, 7764, Note_off_c, 1, 67, 0
1, 7764, Note_off_c, 1, 62, 0
1, 7764, Note_off_c, 1, 70, 0
1, 7770, Note_off_c, 1, 52, 0
1, 7770, Note_off_c, 1, 40, 0
1, 7776, Note_on_c, 1, 60, 127
1, 7776, Note_on_c, 1, 81, 127
1, 7776, Note_on_c, 1, 77, 127
1, 7776, Note_on_c, 1, 72, 127
1, 7776, Note_on_c, 1, 53, 127
1, 7776, Note_on_c, 1, 41, 127
1, 7776, Note_on_c, 1, 69, 127
1, 7860, Note_off_c, 1, 81, 0
1, 7860, Note_off_c, 1, 77, 0
1, 7860, Note_off_c, 1, 72, 0
1, 7860, Note_off_c, 1, 53, 0
1, 7860, Note_off_c, 1, 41, 0
1, 7860, Note_off_c, 1, 69, 0
1, 7866, Note_off_c, 1, 60, 0
1, 7872, Note_on_c, 1, 60, 127
1, 7872, Note_on_c, 1, 81, 127
1, 7872, Note_on_c, 1, 79, 127
1, 7872, Note_on_c, 1, 72, 127
1, 7872, Note_on_c, 1, 52, 127
1, 7872, Note_on_c, 1, 40, 127
1, 7872, Note_on_c, 1, 67, 127
1, 7882, Note_off_c, 1, 81, 0
1, 7956, Note_off_c, 1, 60, 0
1, 7956, Note_off_c, 1, 52, 0
1, 7956, Note_off_c, 1, 40, 0
1, 7956, Note_off_c, 1, 67, 0
1, 7966, Note_off_c, 1, 79, 0
1, 7968, Note_on_c, 1, 77, 127
1, 7968, Note_on_c, 1, 53, 127
1, 7968, Note_on_c, 1, 41, 127
1, 7968, Note_on_c, 1, 65, 127
1, 8010, Note_off_c, 1, 53, 0
1, 8010, Note_off_c, 1, 41, 0
1, 8052, Note_off_c, 1, 72, 0
1, 8052, Note_off_c, 1, 77, 0
1, 8052, Note_off_c, 1, 65, 0
1, 8064, Note_on_c, 1, 60, 127
1, 8064, Note_on_c, 1, 84, 127
1, 8064, Note_on_c, 1, 76, 127
1, 8064, Note_on_c, 1, 67, 127
1, 8064, Note_on_c, 1, 50, 127
1, 8064, Note_on_c, 1, 38, 127
1, 8106, Note_off_c, 1, 60, 0
1, 8106, Note_off_c, 1, 50, 0
1, 8106, Note_off_c, 1, 38, 0
1, 8112, Note_on_c, 1, 48, 127
1, 8112, Note_on_c, 1, 36, 127
1, 8148, Note_off_c, 1, 84, 0
1, 8148, Note_off_c, 1, 76, 0
1, 8148, Note_off_c, 1, 67, 0
1, 8154, Note_off_c, 1, 48, 0
1, 8154, Note_off_c, 1, 36, 0
1, 8160, Note_on_c, 1, 67, 127
1, 8160, Note_on_c, 1, 77, 127
1, 8160, Note_on_c, 1, 74, 127
1, 8160, Note_on_c, 1, 48, 127
1, 8160, Note_on_c, 1, 36, 127
1, 8170, Note_off_c, 1, 36, 0
1, 8172, Note_on_c, 1, 47, 127
1, 8172, Note_on_c, 1, 35, 127
1, 8181, Note_off_c, 1, 48, 0
1, 8182, Note_off_c, 1, 47, 0
1, 8182, Note_off_c, 1, 35, 0
1, 8244, Note_off_c, 1, 77, 0
1, 8256, Note_on_c, 1, 62, 127
1, 8256, Note_on_c, 1, 71, 127
1, 8340, Note_off_c, 1, 74, 0
1, 8340, Note_off_c, 1, 62, 0
1, 8340, Note_off_c, 1, 71, 0
1, 8346, Note_off_c, 1, 67, 0
1, 8352, Note_on_c, 1, 67, 127
1, 8352, Note_on_c, 1, 76, 127
1, 8352, Note_on_c, 1, 72, 127
1, 8352, Note_on_c, 1, 48, 127
1, 8352, Note_on_c, 1, 36, 127
1, 8436, Note_off_c, 1, 76, 0
1, 8436, Note_off_c, 1, 72, 0
1, 8436, Note_off_c, 1, 48, 0
1, 8436, Note_off_c, 1, 36, 0
1, 8442, Note_off_c, 1, 67, 0
1, 8448, Note_on_c, 1, 67, 127
1, 8448, Note_on_c, 1, 77, 127
1, 8448, Note_on_c, 1, 71, 127
1, 8448, Note_on_c, 1, 62, 127
1, 8448, Note_on_c, 1, 50, 127
1, 8448, Note_on_c, 1, 38, 127
1, 8496, Note_on_c, 1, 72, 127
1, 8532, Note_off_c, 1, 67, 0
1, 8532, Note_off_c, 1, 77, 0
1, 8532, Note_off_c, 1, 71, 0
1, 8532, Note_off_c, 1, 62, 0
1, 8532, Note_off_c, 1, 50, 0
1, 8532, Note_off_c, 1, 38, 0
1, 8538, Note_off_c, 1, 72, 0
1, 8544, Note_on_c, 1, 67, 127
1, 8544, Note_on_c, 1, 81, 127
1, 8544, Note_on_c, 1, 74, 127
1, 8544, Note_on_c, 1, 64, 127
1, 8544, Note_on_c, 1, 48, 127
1, 8544, Note_on_c, 1, 36, 127
1, 8544, Note_on_c, 1, 69, 127
1, 8544, Note_on_c, 1, 76, 127
1, 8554, Note_off_c, 1, 74, 0
1, 8556, Note_on_c, 1, 72, 127
1, 8566, Note_off_c, 1, 72, 0
1, 8586, Note_off_c, 1, 67, 0
1, 8586, Note_off_c, 1, 48, 0
1, 8586, Note_off_c, 1, 36, 0
1, 8592, Note_on_c, 1, 47, 127
1, 8592, Note_on_c, 1, 35, 127
1, 8628, Note_off_c, 1, 64, 0
1, 8628, Note_off_c, 1, 69, 0
1, 8628, Note_off_c, 1, 76, 0
1, 8634, Note_off_c, 1, 47, 0
1, 8634, Note_off_c, 1, 35, 0
1, 8640, Note_on_c, 1, 60, 127
1, 8688, Note_on_c, 1, 71, 127
1, 8709, Note_off_c, 1, 71, 0
1, 8724, Note_off_c, 1, 81, 0
1, 8724, Note_off_c, 1, 60, 0
1, 8736, Note_on_c, 1, 67, 127
1, 8736, Note_on_c, 1, 77, 127
1, 8736, Note_on_c, 1, 74, 127
1, 8736, Note_on_c, 1, 47, 127
1, 8736, Note_on_c, 1, 35, 127
1, 8820, Note_off_c, 1, 77, 0
1, 8820, Note_off_c, 1, 74, 0
1, 8820, Note_off_c, 1, 47, 0
1, 8820, Note_off_c, 1, 35, 0
1, 8832, Note_on_c, 1, 76, 127
1, 8832, Note_on_c, 1, 72, 127
1, 8832, Note_on_c, 1, 48, 127
1, 8832, Note_on_c, 1, 36, 127
1, 8874, Note_off_c, 1, 48, 0
1, 8874, Note_off_c, 1, 36, 0
1, 8916, Note_off_c, 1, 76, 0
1, 8916, Note_off_c, 1, 72, 0
1, 8922, Note_off_c, 1, 67, 0
1, 8928, Note_on_c, 1, 67, 127
1, 8928, Note_on_c, 1, 79, 127
1, 8928, Note_on_c, 1, 71, 127
1, 8928, Note_on_c, 1, 45, 127
1, 8928, Note_on_c, 1, 33, 127
1, 8928, Note_on_c, 1, 62, 127
1, 8970, Note_off_c, 1, 45, 0
1, 8970, Note_off_c, 1, 33, 0
1, 8976, Note_on_c, 1, 43, 127
1, 8976, Note_on_c, 1, 31, 127
1, 9012, Note_off_c, 1, 79, 0
1, 9012, Note_off_c, 1, 71, 0
1, 9012, Note_off_c, 1, 62, 0
1, 9018, Note_off_c, 1, 67, 0
1, 9018, Note_off_c, 1, 43, 0
1, 9018, Note_off_c, 1, 31, 0
1, 9024, Note_on_c, 1, 67, 127
1, 9024, Note_on_c, 1, 76, 127
1, 9024, Note_on_c, 1, 72, 127
1, 9024, Note_on_c, 1, 48, 127
1, 9024, Note_on_c, 1, 36, 127
1, 9108, Note_off_c, 1, 48, 0
1, 9108, Note_off_c, 1, 36, 0
1, 9120, Note_on_c, 1, 46, 127
1, 9120, Note_on_c, 1, 34, 127
1, 9120, Note_on_c, 1, 65, 127
1, 9120, Note_on_c, 1, 74, 127
1, 9156, Note_off_c, 1, 76, 0
1, 9162, Note_off_c, 1, 46, 0
1, 9162, Note_off_c, 1, 34, 0
1, 9168, Note_on_c, 1, 77, 127
1, 9168, Note_on_c, 1, 45, 127
1, 9168, Note_on_c, 1, 33, 127
1, 9204, Note_off_c, 1, 65, 0
1, 9204, Note_off_c, 1, 74, 0
1, 9210, Note_off_c, 1, 77, 0
1, 9210, Note_off_c, 1, 45, 0
1, 9210, Note_off_c, 1, 33, 0
1, 9216, Note_on_c, 1, 79, 127
1, 9216, Note_on_c, 1, 43, 127
1, 9216, Note_on_c, 1, 31, 127
1, 9226, Note_off_c, 1, 79, 0
1, 9258, Note_off_c, 1, 43, 0
1, 9258, Note_off_c, 1, 31, 0
1, 9264, Note_on_c, 1, 41, 127
1, 9264, Note_on_c, 1, 29, 127
1, 9300, Note_off_c, 1, 72, 0
1, 9306, Note_off_c, 1, 67, 0
1, 9306, Note_off_c, 1, 41, 0
1, 9306, Note_off_c, 1, 29, 0
1, 9312, Note_on_c, 1, 72, 127
1, 9312, Note_on_c, 1, 67, 127
1, 9312, Note_on_c, 1, 79, 127
1, 9312, Note_on_c, 1, 40, 127
1, 9312, Note_on_c, 1, 28, 127
1, 9354, Note_off_c, 1, 79, 0
1, 9360, Note_on_c, 1, 81, 127
1, 9360, Note_on_c, 1, 65, 127
1, 9396, Note_off_c, 1, 67, 0
1, 9396, Note_off_c, 1, 40, 0
1, 9396, Note_off_c, 1, 28, 0
1, 9402, Note_off_c, 1, 81, 0
1, 9402, Note_off_c, 1, 65, 0
1, 9408, Note_on_c, 1, 82, 127
1, 9408, Note_on_c, 1, 41, 127
1, 9408, Note_on_c, 1, 29, 127
1, 9408, Note_on_c, 1, 60, 127
1, 9408, Note_on_c, 1, 69, 127
1, 9418, Note_off_c, 1, 82, 0
1, 9450, Note_off_c, 1, 41, 0
1, 9450, Note_off_c, 1, 29, 0
1, 9492, Note_off_c, 1, 60, 0
1, 9492, Note_off_c, 1, 69, 0
1, 9498, Note_off_c, 1, 72, 0
1, 9504, Note_on_c, 1, 72, 127
1, 9504, Note_on_c, 1, 82, 127
1, 9504, Note_on_c, 1, 77, 127
1, 9504, Note_on_c, 1, 67, 127
1, 9504, Note_on_c, 1, 38, 127
1, 9504, Note_on_c, 1, 26, 127
1, 9504, Note_on_c, 1, 69, 127
1, 9514, Note_off_c, 1, 82, 0
1, 9514, Note_off_c, 1, 67, 0
1, 9516, Note_on_c, 1, 81, 127
1, 9516, Note_on_c, 1, 65, 127
1, 9526, Note_off_c, 1, 81, 0
1, 9526, Note_off_c, 1, 65, 0
1, 9546, Note_off_c, 1, 72, 0
1, 9546, Note_off_c, 1, 38, 0
1, 9546, Note_off_c, 1, 26, 0
1, 9552, Note_on_c, 1, 79, 127
1, 9552, Note_on_c, 1, 64, 127
1, 9552, Note_on_c, 1, 40, 127
1, 9552, Note_on_c, 1, 28, 127
1, 9573, Note_off_c, 1, 79, 0
1, 9573, Note_off_c, 1, 64, 0
1, 9588, Note_off_c, 1, 77, 0
1, 9588, Note_off_c, 1, 69, 0
1, 9594, Note_off_c, 1, 40, 0
1, 9594, Note_off_c, 1, 28, 0
1, 9600, Note_on_c, 1, 72, 127
1, 9600, Note_on_c, 1, 67, 127
1, 9600, Note_on_c, 1, 82, 127
1, 9600, Note_on_c, 1, 76, 127
1, 9600, Note_on_c, 1, 36, 127
1, 9600, Note_on_c, 1, 24, 127
1, 9684, Note_off_c, 1, 67, 0
1, 9684, Note_off_c, 1, 82, 0
1, 9684, Note_off_c, 1, 76, 0
1, 9684, Note_off_c, 1, 36, 0
1, 9684, Note_off_c, 1, 24, 0
1, 9696, Note_on_c, 1, 60, 127
1, 9696, Note_on_c, 1, 81, 127
1, 9696, Note_on_c, 1, 79, 127
1, 9696, Note_on_c, 1, 48, 127
1, 9696, Note_on_c, 1, 77, 127
1, 9696, Note_on_c, 1, 69, 127
1, 9706, Note_off_c, 1, 79, 0
1, 9738, Note_off_c, 1, 60, 0
1, 9738, Note_off_c, 1, 81, 0
1, 9738, Note_off_c, 1, 48, 0
1, 9744, Note_on_c, 1, 50, 127
1, 9744, Note_on_c, 1, 38, 127
1, 9780, Note_off_c, 1, 72, 0
1, 9780, Note_off_c, 1, 69, 0
1, 9786, Note_off_c, 1, 50, 0
1, 9786, Note_off_c, 1, 38, 0
1, 9790, Note_off_c, 1, 77, 0
1, 9792, Note_on_c, 1, 70, 127
1, 9792, Note_on_c, 1, 60, 127
1, 9792, Note_on_c, 1, 84, 127
1, 9792, Note_on_c, 1, 79, 127
1, 9792, Note_on_c, 1, 64, 127
1, 9792, Note_on_c, 1, 52, 127
1, 9792, Note_on_c, 1, 40, 127
1, 9792, Note_on_c, 1, 72, 127
1, 9834, Note_off_c, 1, 60, 0
1, 9834, Note_off_c, 1, 52, 0
1, 9834, Note_off_c, 1, 40, 0
1, 9840, Note_on_c, 1, 48, 127
1, 9840, Note_on_c, 1, 36, 127
1, 9876, Note_off_c, 1, 70, 0
1, 9876, Note_off_c, 1, 84, 0
1, 9876, Note_off_c, 1, 79, 0
1, 9876, Note_off_c, 1, 64, 0
1, 9876, Note_off_c, 1, 72, 0
1, 9882, Note_off_c, 1, 48, 0
1, 9882, Note_off_c, 1, 36, 0
1, 9888, Note_on_c, 1, 69, 127
1, 9888, Note_on_c, 1, 65, 127
1, 9888, Note_on_c, 1, 77, 127
1, 9888, Note_on_c, 1, 74, 127
1, 9888, Note_on_c, 1, 50, 127
1, 9888, Note_on_c, 1, 38, 127
1, 9930, Note_off_c, 1, 50, 0
1, 9930, Note_off_c, 1, 38, 0
1, 9936, Note_on_c, 1, 79, 127
1, 9936, Note_on_c, 1, 70, 127
1, 9936, Note_on_c, 1, 46, 127
1, 9936, Note_on_c, 1, 34, 127
1, 9972, Note_off_c, 1, 69, 0
1, 9972, Note_off_c, 1, 65, 0
1, 9972, Note_off_c, 1, 77, 0
1, 9972, Note_off_c, 1, 74, 0
1, 9978, Note_off_c, 1, 79, 0
1, 9978, Note_off_c, 1, 70, 0
1, 9978, Note_off_c, 1, 46, 0
1, 9978, Note_off_c, 1, 34, 0
1, 9984, Note_on_c, 1, 70, 127
1, 9984, Note_on_c, 1, 60, 127
1, 9984, Note_on_c, 1, 76, 127
1, 9984, Note_on_c, 1, 74, 127
1, 9984, Note_on_c, 1, 67, 127
1, 9984, Note_on_c, 1, 48, 127
1, 9984, Note_on_c, 1, 36, 127
1, 9994, Note_off_c, 1, 74, 0
1, 9996, Note_on_c, 1, 72, 127
1, 9996, Note_on_c, 1, 65, 127
1, 10006, Note_off_c, 1, 72, 0
1, 10006, Note_off_c, 1, 65, 0
1, 10026, Note_off_c, 1, 70, 0
1, 10026, Note_off_c, 1, 60, 0
1, 10032, Note_on_c, 1, 69, 127
1, 10068, Note_off_c, 1, 48, 0
1, 10068, Note_off_c, 1, 36, 0
1, 10074, Note_off_c, 1, 69, 0
1, 10080, Note_on_c, 1, 24, 127
1, 10080, Note_on_c, 1, 64, 127
1, 10116, Note_off_c, 1, 76, 0
1, 10128, Note_on_c, 1, 77, 127
1, 10164, Note_off_c, 1, 67, 0
1, 10164, Note_off_c, 1, 24, 0
1, 10164, Note_off_c, 1, 64, 0
1, 10170, Note_off_c, 1, 77, 0
1, 10176, Note_on_c, 1, 65, 127
1, 10176, Note_on_c, 1, 57, 127
1, 10176, Note_on_c, 1, 77, 127
1, 10176, Note_on_c, 1, 72, 127
1, 10176, Note_on_c, 1, 69, 127
1, 10176, Note_on_c, 1, 41, 127
1, 10176, Note_on_c, 1, 29, 127
1, 10176, Note_on_c, 1, 60, 127
1, 10218, Note_off_c, 1, 41, 0
1, 10218, Note_off_c, 1, 29, 0
1, 10224, Note_on_c, 1, 43, 127
1, 10224, Note_on_c, 1, 31, 127
1, 10266, Note_off_c, 1, 43, 0
1, 10266, Note_off_c, 1, 31, 0
1, 10272, Note_on_c, 1, 45, 127
1, 10272, Note_on_c, 1, 33, 127
1, 10314, Note_off_c, 1, 45, 0
1, 10314, Note_off_c, 1, 33, 0
1, 10320, Note_on_c, 1, 46, 127
1, 10320, Note_on_c, 1, 34, 127
1, 10362, Note_off_c, 1, 46, 0
1, 10362, Note_off_c, 1, 34, 0
1, 10368, Note_on_c, 1, 48, 127
1, 10368, Note_on_c, 1, 36, 127
1, 10410, Note_off_c, 1, 48, 0
1, 10410, Note_off_c, 1, 36, 0
1, 10416, Note_on_c, 1, 50, 127
1, 10416, Note_on_c, 1, 38, 127
1, 10452, Note_off_c, 1, 65, 0
1, 10452, Note_off_c, 1, 57, 0
1, 10452, Note_off_c, 1, 77, 0
1, 10452, Note_off_c, 1, 72, 0
1, 10452, Note_off_c, 1, 69, 0
1, 10452, Note_off_c, 1, 60, 0
1, 10458, Note_off_c, 1, 50, 0
1, 10458, Note_off_c, 1, 38, 0
1, 10464, Note_on_c, 1, 60, 127
1, 10464, Note_on_c, 1, 79, 127
1, 10464, Note_on_c, 1, 72, 127
1, 10464, Note_on_c, 1, 67, 127
1, 10464, Note_on_c, 1, 52, 127
1, 10464, Note_on_c, 1, 40, 127
1, 10548, Note_off_c, 1, 60, 0
1, 10548, Note_off_c, 1, 79, 0
1, 10548, Note_off_c, 1, 72, 0
1, 10560, Note_on_c, 1, 82, 127
1, 10560, Note_on_c, 1, 70, 127
1, 10644, Note_off_c, 1, 67, 0
1, 10644, Note_off_c, 1, 52, 0
1, 10644, Note_off_c, 1, 40, 0
1, 10644, Note_off_c, 1, 82, 0
1, 10644, Note_off_c, 1, 70, 0
1, 10656, Note_on_c, 1, 60, 127
1, 10656, Note_on_c, 1, 81, 127
1, 10656, Note_on_c, 1, 77, 127
1, 10656, Note_on_c, 1, 72, 127
1, 10656, Note_on_c, 1, 53, 127
1, 10656, Note_on_c, 1, 41, 127
1, 10656, Note_on_c, 1, 69, 127
1, 10740, Note_off_c, 1, 81, 0
1, 10740, Note_off_c, 1, 77, 0
1, 10740, Note_off_c, 1, 72, 0
1, 10740, Note_off_c, 1, 53, 0
1, 10740, Note_off_c, 1, 41, 0
1, 10740, Note_off_c, 1, 69, 0
1, 10746, Note_off_c, 1, 60, 0
1, 10752, Note_on_c, 1, 60, 127
1, 10752, Note_on_c, 1, 79, 127
1, 10752, Note_on_c, 1, 76, 127
1, 10752, Note_on_c, 1, 70, 127
1, 10752, Note_on_c, 1, 55, 127
1, 10752, Note_on_c, 1, 81, 127
1, 10752, Note_on_c, 1, 43, 127
1, 10752, Note_on_c, 1, 64, 127
1, 10752, Note_on_c, 1, 72, 127
1, 10762, Note_off_c, 1, 81, 0
1, 10762, Note_off_c, 1, 72, 0
1, 10836, Note_off_c, 1, 60, 0
1, 10836, Note_off_c, 1, 76, 0
1, 10836, Note_off_c, 1, 55, 0
1, 10836, Note_off_c, 1, 43, 0
1, 10836, Note_off_c, 1, 64, 0
1, 10846, Note_off_c, 1, 79, 0
1, 10846, Note_off_c, 1, 70, 0
1, 10848, Note_on_c, 1, 60, 127
1, 10848, Note_on_c, 1, 77, 127
1, 10848, Note_on_c, 1, 72, 127
1, 10848, Note_on_c, 1, 69, 127
1, 10848, Note_on_c, 1, 58, 127
1, 10848, Note_on_c, 1, 46, 127
1, 10848, Note_on_c, 1, 64, 127
1, 10890, Note_off_c, 1, 60, 0
1, 10890, Note_off_c, 1, 77, 0
1, 10890, Note_off_c, 1, 69, 0
1, 10896, Note_on_c, 1, 76, 127
1, 10896, Note_on_c, 1, 67, 127
1, 10932, Note_off_c, 1, 72, 0
1, 10932, Note_off_c, 1, 58, 0
1, 10932, Note_off_c, 1, 46, 0
1, 10932, Note_off_c, 1, 64, 0
1, 10938, Note_off_c, 1, 76, 0
1, 10938, Note_off_c, 1, 67, 0
1, 10944, Note_on_c, 1, 60, 127
1, 10944, Note_on_c, 1, 77, 127
1, 10944, Note_on_c, 1, 72, 127
1, 10944, Note_on_c, 1, 69, 127
1, 10944, Note_on_c, 1, 57, 127
1, 10944, Note_on_c, 1, 45, 127
1, 10944, Note_on_c, 1, 65, 127
1, 10986, Note_off_c, 1, 60, 0
1, 11028, Note_off_c, 1, 77, 0
1, 11028, Note_off_c, 1, 72, 0
1, 11028, Note_off_c, 1, 69, 0
1, 11028, Note_off_c, 1, 57, 0
1, 11028, Note_off_c, 1, 45, 0
1, 11028, Note_off_c, 1, 65, 0
1, 11040, Note_on_c, 1, 60, 127
1, 11040, Note_on_c, 1, 79, 127
1, 11040, Note_on_c, 1, 76, 127
1, 11040, Note_on_c, 1, 70, 127
1, 11040, Note_on_c, 1, 55, 127
1, 11040, Note_on_c, 1, 43, 127
1, 11040, Note_on_c, 1, 64, 127
1, 11124, Note_off_c, 1, 60, 0
1, 11124, Note_off_c, 1, 79, 0
1, 11124, Note_off_c, 1, 76, 0
1, 11124, Note_off_c, 1, 70, 0
1, 11124, Note_off_c, 1, 55, 0
1, 11124, Note_off_c, 1, 43, 0
1, 11124, Note_off_c, 1, 64, 0
1, 11136, Note_on_c, 1, 60, 127
1, 11136, Note_on_c, 1, 82, 127
1, 11136, Note_on_c, 1, 79, 127
1, 11136, Note_on_c, 1, 67, 127
1, 11136, Note_on_c, 1, 53, 127
1, 11136, Note_on_c, 1, 41, 127
1, 11136, Note_on_c, 1, 62, 127
1, 11136, Note_on_c, 1, 70, 127
1, 11178, Note_off_c, 1, 60, 0
1, 11178, Note_off_c, 1, 53, 0
1, 11178, Note_off_c, 1, 41, 0
1, 11184, Note_on_c, 1, 52, 127
1, 11184, Note_on_c, 1, 40, 127
1, 11220, Note_off_c, 1, 82, 0
1, 11220, Note_off_c, 1, 79, 0
1, 11220, Note_off_c, 1, 67, 0
1, 11220, Note_off_c, 1, 62, 0
1, 11220, Note_off_c, 1, 70, 0
1, 11226, Note_off_c, 1, 52, 0
1, 11226, Note_off_c, 1, 40, 0
1, 11232, Note_on_c, 1, 60, 127
1, 11232, Note_on_c, 1, 81, 127
1, 11232, Note_on_c, 1, 77, 127
1, 11232, Note_on_c, 1, 72, 127
1, 11232, Note_on_c, 1, 53, 127
1, 11232, Note_on_c, 1, 41, 127
1, 11232, Note_on_c, 1, 69, 127
1, 11316, Note_off_c, 1, 81, 0
1, 11316, Note_off_c, 1, 77, 0
1, 11316, Note_off_c, 1, 72, 0
1, 11316, Note_off_c, 1, 53, 0
1, 11316, Note_off_c, 1, 41, 0
1, 11316, Note_off_c, 1, 69, 0
1, 11322, Note_off_c, 1, 60, 0
1, 11328, Note_on_c, 1, 60, 127
1, 11328, Note_on_c, 1, 81, 127
1, 11328, Note_on_c, 1, 79, 127
1, 11328, Note_on_c, 1, 72, 127
1, 11328, Note_on_c, 1, 52, 127
1, 11328, Note_on_c, 1, 40, 127
1, 11328, Note_on_c, 1, 67, 127
1, 11338, Note_off_c, 1, 81, 0
1, 11412, Note_off_c, 1, 60, 0
1, 11412, Note_off_c, 1, 52, 0
1, 11412, Note_off_c, 1, 40, 0
1, 11412, Note_off_c, 1, 67, 0
1, 11422, Note_off_c, 1, 79, 0
1, 11424, Note_on_c, 1, 77, 127
1, 11424, Note_on_c, 1, 53, 127
1, 11424, Note_on_c, 1, 41, 127
1, 11424, Note_on_c, 1, 65, 127
1, 11466, Note_off_c, 1, 53, 0
1, 11466, Note_off_c, 1, 41, 0
1, 11508, Note_off_c, 1, 72, 0
1, 11508, Note_off_c, 1, 77, 0
1, 11508, Note_off_c, 1, 65, 0
1, 11520, Note_on_c, 1, 60, 127
1, 11520, Note_on_c, 1, 84, 127
1, 11520, Note_on_c, 1, 76, 127
1, 11520, Note_on_c, 1, 67, 127
1, 11520, Note_on_c, 1, 50, 127
1, 11520, Note_on_c, 1, 38, 127
1, 11562, Note_off_c, 1, 60, 0
1, 11562, Note_off_c, 1, 50, 0
1, 11562, Note_off_c, 1, 38, 0
1, 11568, Note_on_c, 1, 48, 127
1, 11568, Note_on_c, 1, 36, 127
1, 11604, Note_off_c, 1, 84, 0
1, 11604, Note_off_c, 1, 76, 0
1, 11604, Note_off_c, 1, 67, 0
1, 11610, Note_off_c, 1, 48, 0
1, 11610, Note_off_c, 1, 36, 0
1, 11616, Note_on_c, 1, 67, 127
1, 11616, Note_on_c, 1, 77, 127
1, 11616, Note_on_c, 1, 74, 127
1, 11616, Note_on_c, 1, 48, 127
1, 11616, Note_on_c, 1, 36, 127
1, 11626, Note_off_c, 1, 36, 0
1, 11628, Note_on_c, 1, 47, 127
1, 11628, Note_on_c, 1, 35, 127
1, 11637, Note_off_c, 1, 48, 0
1, 11638, Note_off_c, 1, 47, 0
1, 11638, Note_off_c, 1, 35, 0
1, 11700, Note_off_c, 1, 77, 0
1, 11712, Note_on_c, 1, 62, 127
1, 11712, Note_on_c, 1, 71, 127
1, 11796, Note_off_c, 1, 74, 0
1, 11796, Note_off_c, 1, 62, 0
1, 11796, Note_off_c, 1, 71, 0
1, 11802, Note_off_c, 1, 67, 0
1, 11808, Note_on_c, 1, 67, 127
1, 11808, Note_on_c, 1, 76, 127
1, 11808, Note_on_c, 1, 72, 127
1, 11808, Note_on_c, 1, 48, 127
1, 11808, Note_on_c, 1, 36, 127
1, 11892, Note_off_c, 1, 76, 0
1, 11892, Note_off_c, 1, 72, 0
1, 11892, Note_off_c, 1, 48, 0
1, 11892, Note_off_c, 1, 36, 0
1, 11898, Note_off_c, 1, 67, 0
1, 11904, Note_on_c, 1, 67, 127
1, 11904, Note_on_c, 1, 77, 127
1, 11904, Note_on_c, 1, 71, 127
1, 11904, Note_on_c, 1, 62, 127
1, 11904, Note_on_c, 1, 50, 127
1, 11904, Note_on_c, 1, 38, 127
1, 11952, Note_on_c, 1, 72, 127
1, 11988, Note_off_c, 1, 67, 0
1, 11988, Note_off_c, 1, 77, 0
1, 11988, Note_off_c, 1, 71, 0
1, 11988, Note_off_c, 1, 62, 0
1, 11988, Note_off_c, 1, 50, 0
1, 11988, Note_off_c, 1, 38, 0
1, 11994, Note_off_c, 1, 72, 0
1, 12000, Note_on_c, 1, 67, 127
1, 12000, Note_on_c, 1, 81, 127
1, 12000, Note_on_c, 1, 74, 127
1, 12000, Note_on_c, 1, 64, 127
1, 12000, Note_on_c, 1, 48, 127
1, 12000, Note_on_c, 1, 36, 127
1, 12000, Note_on_c, 1, 69, 127
1, 12000, Note_on_c, 1, 76, 127
1, 12010, Note_off_c, 1, 74, 0
1, 12012, Note_on_c, 1, 72, 127
1, 12022, Note_off_c, 1, 72, 0
1, 12042, Note_off_c, 1, 67, 0
1, 12042, Note_off_c, 1, 48, 0
1, 12042, Note_off_c, 1, 36, 0
1, 12048, Note_on_c, 1, 47, 127
1, 12048, Note_on_c, 1, 35, 127
1, 12084, Note_off_c, 1, 64, 0
1, 12084, Note_off_c, 1, 69, 0
1, 12084, Note_off_c, 1, 76, 0
1, 12090, Note_off_c, 1, 47, 0
1, 12090, Note_off_c, 1, 35, 0
1, 12096, Note_on_c, 1, 60, 127
1, 12144, Note_on_c, 1, 71, 127
1, 12165, Note_off_c, 1, 71, 0
1, 12180, Note_off_c, 1, 81, 0
1, 12180, Note_off_c, 1, 60, 0
1, 12192, Note_on_c, 1, 67, 127
1, 12192, Note_on_c, 1, 77, 127
1, 12192, Note_on_c, 1, 74, 127
1, 12192, Note_on_c, 1, 47, 127
1, 12192, Note_on_c, 1, 35, 127
1, 12276, Note_off_c, 1, 77, 0
1, 12276, Note_off_c, 1, 74, 0
1, 12276, Note_off_c, 1, 47, 0
1, 12276, Note_off_c, 1, 35, 0
1, 12288, Note_on_c, 1, 76, 127
1, 12288, Note_on_c, 1, 72, 127
1, 12288, Note_on_c, 1, 48, 127
1, 12288, Note_on_c, 1, 36, 127
1, 12330, Note_off_c, 1, 48, 0
1, 12330, Note_off_c, 1, 36, 0
1, 12372, Note_off_c, 1, 76, 0
1, 12372, Note_off_c, 1, 72, 0
1, 12378, Note_off_c, 1, 67, 0
1, 12384, Note_on_c, 1, 67, 127
1, 12384, Note_on_c, 1, 79, 127
1, 12384, Note_on_c, 1, 71, 127
1, 12384, Note_on_c, 1, 45, 127
1, 12384, Note_on_c, 1, 33, 127
1, 12384, Note_on_c, 1, 62, 127
1, 12426, Note_off_c, 1, 45, 0
1, 12426, Note_off_c, 1, 33, 0
1, 12432, Note_on_c, 1, 43, 127
1, 12432, Note_on_c, 1, 31, 127
1, 12468, Note_off_c, 1, 79, 0
1, 12468, Note_off_c, 1, 71, 0
1, 12468, Note_off_c, 1, 62, 0
1, 12474, Note_off_c, 1, 67, 0
1, 12474, Note_off_c, 1, 43, 0
1, 12474, Note_off_c, 1, 31, 0
1, 12480, Note_on_c, 1, 67, 127
1, 12480, Note_on_c, 1, 76, 127
1, 12480, Note_on_c, 1, 72, 127
1, 12480, Note_on_c, 1, 48, 127
1, 12480, Note_on_c, 1, 36, 127
1, 12564, Note_off_c, 1, 48, 0
1, 12564, Note_off_c, 1, 36, 0
1, 12576, Note_on_c, 1, 46, 127
1, 12576, Note_on_c, 1, 34, 127
1, 12576, Note_on_c, 1, 65, 127
1, 12576, Note_on_c, 1, 74, 127
1, 12612, Note_off_c, 1, 76, 0
1, 12618, Note_off_c, 1, 46, 0
1, 12618, Note_off_c, 1, 34, 0
1, 12624, Note_on_c, 1, 77, 127
1, 12624, Note_on_c, 1, 45, 127
1, 12624, Note_on_c, 1, 33, 127
1, 12660, Note_off_c, 1, 65, 0
1, 12660, Note_off_c, 1, 74, 0
1, 12666, Note_off_c, 1, 77, 0
1, 12666, Note_off_c, 1, 45, 0
1, 12666, Note_off_c, 1, 33, 0
1, 12672, Note_on_c, 1, 79, 127
1, 12672, Note_on_c, 1, 43, 127
1, 12672, Note_on_c, 1, 31, 127
1, 12682, Note_off_c, 1, 79, 0
1, 12714, Note_off_c, 1, 43, 0
1, 12714, Note_off_c, 1, 31, 0
1, 12720, Note_on_c, 1, 41, 127
1, 12720, Note_on_c, 1, 29, 127
1, 12756, Note_off_c, 1, 72, 0
1, 12762, Note_off_c, 1, 67, 0
1, 12762, Note_off_c, 1, 41, 0
1, 12762, Note_off_c, 1, 29, 0
1, 12768, Note_on_c, 1, 72, 127
1, 12768, Note_on_c, 1, 67, 127
1, 12768, Note_on_c, 1, 79, 127
1, 12768, Note_on_c, 1, 40, 127
1, 12768, Note_on_c, 1, 28, 127
1, 12810, Note_off_c, 1, 79, 0
1, 12816, Note_on_c, 1, 81, 127
1, 12816, Note_on_c, 1, 65, 127
1, 12852, Note_off_c, 1, 67, 0
1, 12852, Note_off_c, 1, 40, 0
1, 12852, Note_off_c, 1, 28, 0
1, 12858, Note_off_c, 1, 81, 0
1, 12858, Note_off_c, 1, 65, 0
1, 12864, Note_on_c, 1, 82, 127
1, 12864, Note_on_c, 1, 41, 127
1, 12864, Note_on_c, 1, 29, 127
1, 12864, Note_on_c, 1, 60, 127
1, 12864, Note_on_c, 1, 69, 127
1, 12874, Note_off_c, 1, 82, 0
1, 12906, Note_off_c, 1, 41, 0
1, 12906, Note_off_c, 1, 29, 0
1, 12948, Note_off_c, 1, 60, 0
1, 12948, Note_off_c, 1, 69, 0
1, 12954, Note_off_c, 1, 72, 0
1, 12960, Note_on_c, 1, 72, 127
1, 12960, Note_on_c, 1, 82, 127
1, 12960, Note_on_c, 1, 77, 127
1, 12960, Note_on_c, 1, 67, 127
1, 12960, Note_on_c, 1, 38, 127
1, 12960, Note_on_c, 1, 26, 127
1, 12960, Note_on_c, 1, 69, 127
1, 12970, Note_off_c, 1, 82, 0
1, 12970, Note_off_c, 1, 67, 0
1, 12972, Note_on_c, 1, 81, 127
1, 12972, Note_on_c, 1, 65, 127
1, 12982, Note_off_c, 1, 81, 0
1, 12982, Note_off_c, 1, 65, 0
1, 13002, Note_off_c, 1, 72, 0
1, 13002, Note_off_c, 1, 38, 0
1, 13002, Note_off_c, 1, 26, 0
1, 13008, Note_on_c, 1, 79, 127
1, 13008, Note_on_c, 1, 64, 127
1, 13008, Note_on_c, 1, 40, 127
1, 13008, Note_on_c, 1, 28, 127
1, 13029, Note_off_c, 1, 79, 0
1, 13029, Note_off_c, 1, 64, 0
1, 13044, Note_off_c, 1, 77, 0
1, 13044, Note_off_c, 1, 69, 0
1, 13050, Note_off_c, 1, 40, 0
1, 13050, Note_off_c, 1, 28, 0
1, 13056, Note_on_c, 1, 72, 127
1, 13056, Note_on_c, 1, 67, 127
1, 13056, Note_on_c, 1, 82, 127
1, 13056, Note_on_c, 1, 76, 127
1, 13056, Note_on_c, 1, 36, 127
1, 13056, Note_on_c, 1, 24, 127
1, 13140, Note_off_c, 1, 67, 0
1, 13140, Note_off_c, 1, 82, 0
1, 13140, Note_off_c, 1, 76, 0
1, 13140, Note_off_c, 1, 36, 0
1, 13140, Note_off_c, 1, 24, 0
1, 13152, Note_on_c, 1, 60, 127
1, 13152, Note_on_c, 1, 81, 127
1, 13152, Note_on_c, 1, 79, 127
1, 13152, Note_on_c, 1, 48, 127
1, 13152, Note_on_c, 1, 77, 127
1, 13152, Note_on_c, 1, 69, 127
1, 13162, Note_off_c, 1, 79, 0
1, 13194, Note_off_c, 1, 60, 0
1, 13194, Note_off_c, 1, 81, 0
1, 13194, Note_off_c, 1, 48, 0
1, 13200, Note_on_c, 1, 50, 127
1, 13200, Note_on_c, 1, 38, 127
1, 13236, Note_off_c, 1, 72, 0
1, 13236, Note_off_c, 1, 69, 0
1, 13242, Note_off_c, 1, 50, 0
1, 13242, Note_off_c, 1, 38, 0
1, 13246, Note_off_c, 1, 77, 0
1, 13248, Note_on_c, 1, 70, 127
1, 13248, Note_on_c, 1, 60, 127
1, 13248, Note_on_c, 1, 84, 127
1, 13248, Note_on_c, 1, 79, 127
1, 13248, Note_on_c, 1, 64, 127
1, 13248, Note_on_c, 1, 52, 127
1, 13248, Note_on_c, 1, 40, 127
1, 13248, Note_on_c, 1, 72, 127
1, 13290, Note_off_c, 1, 60, 0
1, 13290, Note_off_c, 1, 52, 0
1, 13290, Note_off_c, 1, 40, 0
1, 13296, Note_on_c, 1, 48, 127
1, 13296, Note_on_c, 1, 36, 127
1, 13332, Note_off_c, 1, 70, 0
1, 13332, Note_off_c, 1, 84, 0
1, 13332, Note_off_c, 1, 79, 0
1, 13332, Note_off_c, 1, 64, 0
1, 13332, Note_off_c, 1, 72, 0
1, 13338, Note_off_c, 1, 48, 0
1, 13338, Note_off_c, 1, 36, 0
1, 13344, Note_on_c, 1, 69, 127
1, 13344, Note_on_c, 1, 65, 127
1, 13344, Note_on_c, 1, 77, 127
1, 13344, Note_on_c, 1, 74, 127
1, 13344, Note_on_c, 1, 50, 127
1, 13344, Note_on_c, 1, 38, 127
1, 13386, Note_off_c, 1, 50, 0
1, 13386, Note_off_c, 1, 38, 0
1, 13392, Note_on_c, 1, 79, 127
1, 13392, Note_on_c, 1, 70, 127
1, 13392, Note_on_c, 1, 46, 127
1, 13392, Note_on_c, 1, 34, 127
1, 13428, Note_off_c, 1, 69, 0
1, 13428, Note_off_c, 1, 65, 0
1, 13428, Note_off_c, 1, 77, 0
1, 13428, Note_off_c, 1, 74, 0
1, 13434, Note_off_c, 1, 79, 0
1, 13434, Note_off_c, 1, 70, 0
1, 13434, Note_off_c, 1, 46, 0
1, 13434, Note_off_c, 1, 34, 0
1, 13440, Note_on_c, 1, 70, 127
1, 13440, Note_on_c, 1, 60, 127
1, 13440, Note_on_c, 1, 76, 127
1, 13440, Note_on_c, 1, 74, 127
1, 13440, Note_on_c, 1, 67, 127
1, 13440, Note_on_c, 1, 48, 127
1, 13440, Note_on_c, 1, 36, 127
1, 13450, Note_off_c, 1, 74, 0
1, 13452, Note_on_c, 1, 72, 127
1, 13452, Note_on_c, 1, 65, 127
1, 13462, Note_off_c, 1, 72, 0
1, 13462, Note_off_c, 1, 65, 0
1, 13482, Note_off_c, 1, 70, 0
1, 13482, Note_off_c, 1, 60, 0
1, 13488, Note_on_c, 1, 69, 127
1, 13524, Note_off_c, 1, 48, 0
1, 13524, Note_off_c, 1, 36, 0
1, 13530, Note_off_c, 1, 69, 0
1, 13536, Note_on_c, 1, 24, 127
1, 13536, Note_on_c, 1, 64, 127
1, 13572, Note_off_c, 1, 76, 0
1, 13584, Note_on_c, 1, 77, 127
1, 13620, Note_off_c, 1, 67, 0
1, 13620, Note_off_c, 1, 24, 0
1, 13620, Note_off_c, 1, 64, 0
1, 13626, Note_off_c, 1, 77, 0
1, 13632, Note_on_c, 1, 65, 127
1, 13632, Note_on_c, 1, 57, 127
1, 13632, Note_on_c, 1, 77, 127
1, 13632, Note_on_c, 1, 72, 127
1, 13632, Note_on_c, 1, 69, 127
1, 13632, Note_on_c, 1, 41, 127
1, 13632, Note_on_c, 1, 29, 127
1, 13632, Note_on_c, 1, 60, 127
1, 13908, Note_off_c, 1, 65, 0
1, 13908, Note_off_c, 1, 57, 0
1, 13908, Note_off_c, 1, 77, 0
1, 13908, Note_off_c, 1, 72, 0
1, 13908, Note_off_c, 1, 69, 0
1, 13908, Note_off_c, 1, 41, 0
1, 13908, Note_off_c, 1, 29, 0
1, 13908, Note_off_c, 1, 60, 0
1, 14208, Note_on_c, 1, 77, 127
1, 14208, Note_on_c, 1, 69, 127
1, 14208, Note_on_c, 1, 62, 127
1, 14292, Note_off_c, 1, 62, 0
1, 14304, Note_on_c, 1, 60, 127
1, 14388, Note_off_c, 1, 77, 0
1, 14388, Note_off_c, 1, 69, 0
1, 14388, Note_off_c, 1, 60, 0
1, 14400, Note_on_c, 1, 79, 127
1, 14400, Note_on_c, 1, 70, 127
1, 14400, Note_on_c, 1, 58, 127
1, 14484, Note_off_c, 1, 79, 0
1, 14484, Note_off_c, 1, 70, 0
1, 14484, Note_off_c, 1, 58, 0
1, 14496, Note_on_c, 1, 76, 127
1, 14496, Note_on_c, 1, 67, 127
1, 14496, Note_on_c, 1, 60, 127
1, 14580, Note_off_c, 1, 60, 0
1, 14592, Note_on_c, 1, 58, 127
1, 14676, Note_off_c, 1, 76, 0
1, 14676, Note_off_c, 1, 67, 0
1, 14676, Note_off_c, 1, 58, 0
1, 14688, Note_on_c, 1, 77, 127
1, 14688, Note_on_c, 1, 69, 127
1, 14688, Note_on_c, 1, 57, 127
1, 14772, Note_off_c, 1, 77, 0
1, 14772, Note_off_c, 1, 69, 0
1, 14772, Note_off_c, 1, 57, 0
1, 14784, Note_on_c, 1, 74, 127
1, 14784, Note_on_c, 1, 65, 127
1, 14784, Note_on_c, 1, 58, 127
1, 14868, Note_off_c, 1, 74, 0
1, 14868, Note_off_c, 1, 65, 0
1, 14868, Note_off_c, 1, 58, 0
1, 14880, Note_on_c, 1, 82, 127
1, 14880, Note_on_c, 1, 74, 127
1, 14880, Note_on_c, 1, 57, 127
1, 14964, Note_off_c, 1, 57, 0
1, 14976, Note_on_c, 1, 55, 127
1, 15060, Note_off_c, 1, 82, 0
1, 15060, Note_off_c, 1, 74, 0
1, 15060, Note_off_c, 1, 55, 0
1, 15072, Note_on_c, 1, 81, 127
1, 15072, Note_on_c, 1, 77, 127
1, 15072, Note_on_c, 1, 60, 127
1, 15082, Note_off_c, 1, 81, 0
1, 15082, Note_off_c, 1, 77, 0
1, 15084, Note_on_c, 1, 79, 127
1, 15084, Note_on_c, 1, 76, 127
1, 15094, Note_off_c, 1, 79, 0
1, 15094, Note_off_c, 1, 76, 0
1, 15156, Note_off_c, 1, 60, 0
1, 15168, Note_on_c, 1, 81, 127
1, 15168, Note_on_c, 1, 77, 127
1, 15168, Note_on_c, 1, 48, 127
1, 15178, Note_off_c, 1, 81, 0
1, 15178, Note_off_c, 1, 77, 0
1, 15180, Note_on_c, 1, 79, 127
1, 15180, Note_on_c, 1, 76, 127
1, 15190, Note_off_c, 1, 79, 0
1, 15190, Note_off_c, 1, 76, 0
1, 15216, Note_on_c, 1, 74, 127
1, 15237, Note_off_c, 1, 74, 0
1, 15252, Note_off_c, 1, 48, 0
1, 15264, Note_on_c, 1, 81, 127
1, 15264, Note_on_c, 1, 77, 127
1, 15264, Note_on_c, 1, 53, 127
1, 15348, Note_off_c, 1, 81, 0
1, 15348, Note_off_c, 1, 77, 0
1, 15348, Note_off_c, 1, 53, 0
1, 15360, Note_on_c, 1, 74, 127
1, 15360, Note_on_c, 1, 65, 127
1, 15360, Note_on_c, 1, 58, 127
1, 15444, Note_off_c, 1, 58, 0
1, 15456, Note_on_c, 1, 57, 127
1, 15540, Note_off_c, 1, 74, 0
1, 15540, Note_off_c, 1, 65, 0
1, 15540, Note_off_c, 1, 57, 0
1, 15552, Note_on_c, 1, 76, 127
1, 15552, Note_on_c, 1, 67, 127
1, 15552, Note_on_c, 1, 55, 127
1, 15636, Note_off_c, 1, 76, 0
1, 15636, Note_off_c, 1, 67, 0
1, 15636, Note_off_c, 1, 55, 0
1, 15648, Note_on_c, 1, 73, 127
1, 15648, Note_on_c, 1, 64, 127
1, 15648, Note_on_c, 1, 57, 127
1, 15732, Note_off_c, 1, 73, 0
1, 15732, Note_off_c, 1, 57, 0
1, 15744, Note_on_c, 1, 71, 127
1, 15744, Note_on_c, 1, 55, 127
1, 15786, Note_off_c, 1, 71, 0
1, 15792, Note_on_c, 1, 69, 127
1, 15828, Note_off_c, 1, 64, 0
1, 15828, Note_off_c, 1, 55, 0
1, 15834, Note_off_c, 1, 69, 0
1, 15840, Note_on_c, 1, 74, 127
1, 15840, Note_on_c, 1, 69, 127
1, 15840, Note_on_c, 1, 53, 127
1, 15882, Note_off_c, 1, 69, 0
1, 15888, Note_on_c, 1, 71, 127
1, 15924, Note_off_c, 1, 74, 0
1, 15924, Note_off_c, 1, 53, 0
1, 15930, Note_off_c, 1, 71, 0
1, 15936, Note_on_c, 1, 76, 127
1, 15936, Note_on_c, 1, 73, 127
1, 15936, Note_on_c, 1, 52, 127
1, 15978, Note_off_c, 1, 76, 0
1, 15978, Note_off_c, 1, 73, 0
1, 15984, Note_on_c, 1, 77, 127
1, 15984, Note_on_c, 1, 74, 127
1, 16020, Note_off_c, 1, 52, 0
1, 16026, Note_off_c, 1, 77, 0
1, 16026, Note_off_c, 1, 74, 0
1, 16032, Note_on_c, 1, 79, 127
1, 16032, Note_on_c, 1, 76, 127
1, 16032, Note_on_c, 1, 50, 127
1, 16042, Note_off_c, 1, 79, 0
1, 16042, Note_off_c, 1, 76, 0
1, 16044, Note_on_c, 1, 77, 127
1, 16044, Note_on_c, 1, 74, 127
1, 16054, Note_off_c, 1, 77, 0
1, 16054, Note_off_c, 1, 74, 0
1, 16116, Note_off_c, 1, 50, 0
1, 16128, Note_on_c, 1, 79, 127
1, 16128, Note_on_c, 1, 76, 127
1, 16128, Note_on_c, 1, 38, 127
1, 16138, Note_off_c, 1, 79, 0
1, 16138, Note_off_c, 1, 76, 0
1, 16140, Note_on_c, 1, 77, 127
1, 16140, Note_on_c, 1, 74, 127
1, 16150, Note_off_c, 1, 77, 0
1, 16150, Note_off_c, 1, 74, 0
1, 16176, Note_on_c, 1, 73, 127
1, 16212, Note_off_c, 1, 38, 0
1, 16218, Note_off_c, 1, 73, 0
1, 16224, Note_on_c, 1, 76, 127
1, 16224, Note_on_c, 1, 73, 127
1, 16224, Note_on_c, 1, 45, 127
1, 16308, Note_off_c, 1, 45, 0
1, 16320, Note_on_c, 1, 57, 127
1, 16362, Note_off_c, 1, 57, 0
1, 16368, Note_on_c, 1, 59, 127
1, 16410, Note_off_c, 1, 59, 0
1, 16416, Note_on_c, 1, 61, 127
1, 16458, Note_off_c, 1, 61, 0
1, 16500, Note_off_c, 1, 76, 0
1, 16500, Note_off_c, 1, 73, 0
1, 16512, Note_on_c, 1, 77, 127
1, 16512, Note_on_c, 1, 69, 127
1, 16512, Note_on_c, 1, 62, 127
1, 16596, Note_off_c, 1, 62, 0
1, 16608, Note_on_c, 1, 60, 127
1, 16692, Note_off_c, 1, 77, 0
1, 16692, Note_off_c, 1, 69, 0
1, 16692, Note_off_c, 1, 60, 0
1, 16704, Note_on_c, 1, 79, 127
1, 16704, Note_on_c, 1, 70, 127
1, 16704, Note_on_c, 1, 58, 127
1, 16788, Note_off_c, 1, 79, 0
1, 16788, Note_off_c, 1, 70, 0
1, 16788, Note_off_c, 1, 58, 0
1, 16800, Note_on_c, 1, 76, 127
1, 16800, Note_on_c, 1, 67, 127
1, 16800, Note_on_c, 1, 60, 127
1, 16884, Note_off_c, 1, 60, 0
1, 16896, Note_on_c, 1, 58, 127
1, 16980, Note_off_c, 1, 76, 0
1, 16980, Note_off_c, 1, 67, 0
1, 16980, Note_off_c, 1, 58, 0
1, 16992, Note_on_c, 1, 77, 127
1, 16992, Note_on_c, 1, 69, 127
1, 16992, Note_on_c, 1, 57, 127
1, 17076, Note_off_c, 1, 77, 0
1, 17076, Note_off_c, 1, 69, 0
1, 17076, Note_off_c, 1, 57, 0
1, 17088, Note_on_c, 1, 74, 127
1, 17088, Note_on_c, 1, 65, 127
1, 17088, Note_on_c, 1, 58, 127
1, 17172, Note_off_c, 1, 74, 0
1, 17172, Note_off_c, 1, 65, 0
1, 17172, Note_off_c, 1, 58, 0
1, 17184, Note_on_c, 1, 82, 127
1, 17184, Note_on_c, 1, 74, 127
1, 17184, Note_on_c, 1, 57, 127
1, 17268, Note_off_c, 1, 57, 0
1, 17280, Note_on_c, 1, 55, 127
1, 17364, Note_off_c, 1, 82, 0
1, 17364, Note_off_c, 1, 74, 0
1, 17364, Note_off_c, 1, 55, 0
1, 17376, Note_on_c, 1, 81, 127
1, 17376, Note_on_c, 1, 77, 127
1, 17376, Note_on_c, 1, 60, 127
1, 17386, Note_off_c, 1, 81, 0
1, 17386, Note_off_c, 1, 77, 0
1, 17388, Note_on_c, 1, 79, 127
1, 17388, Note_on_c, 1, 76, 127
1, 17398, Note_off_c, 1, 79, 0
1, 17398, Note_off_c, 1, 76, 0
1, 17460, Note_off_c, 1, 60, 0
1, 17472, Note_on_c, 1, 81, 127
1, 17472, Note_on_c, 1, 77, 127
1, 17472, Note_on_c, 1, 48, 127
1, 17482, Note_off_c, 1, 81, 0
1, 17482, Note_off_c, 1, 77, 0
1, 17484, Note_on_c, 1, 79, 127
1, 17484, Note_on_c, 1, 76, 127
1, 17494, Note_off_c, 1, 79, 0
1, 17494, Note_off_c, 1, 76, 0
1, 17520, Note_on_c, 1, 74, 127
1, 17541, Note_off_c, 1, 74, 0
1, 17556, Note_off_c, 1, 48, 0
1, 17568, Note_on_c, 1, 81, 127
1, 17568, Note_on_c, 1, 77, 127
1, 17568, Note_on_c, 1, 53, 127
1, 17652, Note_off_c, 1, 81, 0
1, 17652, Note_off_c, 1, 77, 0
1, 17652, Note_off_c, 1, 53, 0
1, 17664, Note_on_c, 1, 74, 127
1, 17664, Note_on_c, 1, 65, 127
1, 17664, Note_on_c, 1, 58, 127
1, 17748, Note_off_c, 1, 58, 0
1, 17760, Note_on_c, 1, 57, 127
1, 17844, Note_off_c, 1, 74, 0
1, 17844, Note_off_c, 1, 65, 0
1, 17844, Note_off_c, 1, 57, 0
1, 17856, Note_on_c, 1, 76, 127
1, 17856, Note_on_c, 1, 67, 127
1, 17856, Note_on_c, 1, 55, 127
1, 17940, Note_off_c, 1, 76, 0
1, 17940, Note_off_c, 1, 67, 0
1, 17940, Note_off_c, 1, 55, 0
1, 17952, Note_on_c, 1, 73, 127
1, 17952, Note_on_c, 1, 64, 127
1, 17952, Note_on_c, 1, 57, 127
1, 18036, Note_off_c, 1, 73, 0
1, 18036, Note_off_c, 1, 57, 0
1, 18048, Note_on_c, 1, 71, 127
1, 18048, Note_on_c, 1, 55, 127
1, 18090, Note_off_c, 1, 71, 0
1, 18096, Note_on_c, 1, 69, 127
1, 18132, Note_off_c, 1, 64, 0
1, 18132, Note_off_c, 1, 55, 0
1, 18138, Note_off_c, 1, 69, 0
1, 18144, Note_on_c, 1, 74, 127
1, 18144, Note_on_c, 1, 69, 127
1, 18144, Note_on_c, 1, 53, 127
1, 18186, Note_off_c, 1, 69, 0
1, 18192, Note_on_c, 1, 71, 127
1, 18228, Note_off_c, 1, 74, 0
1, 18228, Note_off_c, 1, 53, 0
1, 18234, Note_off_c, 1, 71, 0
1, 18240, Note_on_c, 1, 76, 127
1, 18240, Note_on_c, 1, 73, 127
1, 18240, Note_on_c, 1, 52, 127
1, 18282, Note_off_c, 1, 76, 0
1, 18282, Note_off_c, 1, 73, 0
1, 18288, Note_on_c, 1, 77, 127
1, 18288, Note_on_c, 1, 74, 127
1, 18324, Note_off_c, 1, 52, 0
1, 18330, Note_off_c, 1, 77, 0
1, 18330, Note_off_c, 1, 74, 0
1, 18336, Note_on_c, 1, 79, 127
1, 18336, Note_on_c, 1, 76, 127
1, 18336, Note_on_c, 1, 50, 127
1, 18346, Note_off_c, 1, 79, 0
1, 18346, Note_off_c, 1, 76, 0
1, 18348, Note_on_c, 1, 77, 127
1, 18348, Note_on_c, 1, 74, 127
1, 18358, Note_off_c, 1, 77, 0
1, 18358, Note_off_c, 1, 74, 0
1, 18420, Note_off_c, 1, 50, 0
1, 18432, Note_on_c, 1, 79, 127
1, 18432, Note_on_c, 1, 76, 127
1, 18432, Note_on_c, 1, 38, 127
1, 18442, Note_off_c, 1, 79, 0
1, 18442, Note_off_c, 1, 76, 0
1, 18444, Note_on_c, 1, 77, 127
1, 18444, Note_on_c, 1, 74, 127
1, 18454, Note_off_c, 1, 77, 0
1, 18454, Note_off_c, 1, 74, 0
1, 18480, Note_on_c, 1, 73, 127
1, 18516, Note_off_c, 1, 38, 0
1, 18522, Note_off_c, 1, 73, 0
1, 18528, Note_on_c, 1, 76, 127
1, 18528, Note_on_c, 1, 73, 127
1, 18528, Note_on_c, 1, 45, 127
1, 18612, Note_off_c, 1, 45, 0
1, 18624, Note_on_c, 1, 49, 127
1, 18708, Note_off_c, 1, 49, 0
1, 18720, Note_on_c, 1, 52, 127
1, 18804, Note_off_c, 1, 76, 0
1, 18804, Note_off_c, 1, 73, 0
1, 18804, Note_off_c, 1, 52, 0
1, 18816, Note_on_c, 1, 76, 127
1, 18816, Note_on_c, 1, 73, 127
1, 18816, Note_on_c, 1, 57, 127
1, 18900, Note_off_c, 1, 57, 0
1, 18912, Note_on_c, 1, 55, 127
1, 18996, Note_off_c, 1, 76, 0
1, 18996, Note_off_c, 1, 73, 0
1, 18996, Note_off_c, 1, 55, 0
1, 19008, Note_on_c, 1, 77, 127
1, 19008, Note_on_c, 1, 74, 127
1, 19008, Note_on_c, 1, 53, 127
1, 19092, Note_off_c, 1, 77, 0
1, 19092, Note_off_c, 1, 74, 0
1, 19092, Note_off_c, 1, 53, 0
1, 19104, Note_on_c, 1, 79, 127
1, 19104, Note_on_c, 1, 76, 127
1, 19104, Note_on_c, 1, 52, 127
1, 19188, Note_off_c, 1, 76, 0
1, 19188, Note_off_c, 1, 52, 0
1, 19200, Note_on_c, 1, 72, 127
1, 19200, Note_on_c, 1, 57, 127
1, 19284, Note_off_c, 1, 79, 0
1, 19284, Note_off_c, 1, 57, 0
1, 19296, Note_on_c, 1, 45, 127
1, 19380, Note_off_c, 1, 45, 0
1, 19392, Note_on_c, 1, 77, 127
1, 19392, Note_on_c, 1, 50, 127
1, 19476, Note_off_c, 1, 72, 0
1, 19476, Note_off_c, 1, 77, 0
1, 19476, Note_off_c, 1, 50, 0
1, 19488, Note_on_c, 1, 74, 127
1, 19488, Note_on_c, 1, 72, 127
1, 19488, Note_on_c, 1, 55, 127
1, 19498, Note_off_c, 1, 72, 0
1, 19500, Note_on_c, 1, 71, 127
1, 19510, Note_off_c, 1, 71, 0
1, 19530, Note_off_c, 1, 74, 0
1, 19536, Note_on_c, 1, 76, 127
1, 19546, Note_off_c, 1, 76, 0
1, 19572, Note_off_c, 1, 55, 0
1, 19584, Note_on_c, 1, 79, 127
1, 19584, Note_on_c, 1, 72, 127
1, 19584, Note_on_c, 1, 43, 127
1, 19594, Note_off_c, 1, 72, 0
1, 19596, Note_on_c, 1, 71, 127
1, 19606, Note_off_c, 1, 71, 0
1, 19632, Note_on_c, 1, 69, 127
1, 19653, Note_off_c, 1, 69, 0
1, 19668, Note_off_c, 1, 79, 0
1, 19668, Note_off_c, 1, 43, 0
1, 19680, Note_on_c, 1, 77, 127
1, 19680, Note_on_c, 1, 72, 127
1, 19680, Note_on_c, 1, 48, 127
1, 19722, Note_off_c, 1, 77, 0
1, 19728, Note_on_c, 1, 76, 127
1, 19764, Note_off_c, 1, 72, 0
1, 19770, Note_off_c, 1, 76, 0
1, 19776, Note_on_c, 1, 74, 127
1, 19776, Note_on_c, 1, 67, 127
1, 19818, Note_off_c, 1, 74, 0
1, 19860, Note_off_c, 1, 67, 0
1, 19872, Note_on_c, 1, 64, 127
1, 19914, Note_off_c, 1, 64, 0
1, 19920, Note_on_c, 1, 65, 127
1, 19962, Note_off_c, 1, 65, 0
1, 20016, Note_on_c, 1, 78, 127
1, 20016, Note_on_c, 1, 69, 127
1, 20058, Note_off_c, 1, 78, 0
1, 20058, Note_off_c, 1, 69, 0
1, 20064, Note_on_c, 1, 79, 127
1, 20064, Note_on_c, 1, 70, 127
1, 20074, Note_off_c, 1, 79, 0
1, 20074, Note_off_c, 1, 70, 0
1, 20244, Note_off_c, 1, 48, 0
1, 20256, Note_on_c, 1, 79, 127
1, 20256, Note_on_c, 1, 70, 127
1, 20256, Note_on_c, 1, 46, 127
1, 20298, Note_off_c, 1, 79, 0
1, 20298, Note_off_c, 1, 70, 0
1, 20304, Note_on_c, 1, 81, 127
1, 20304, Note_on_c, 1, 72, 127
1, 20340, Note_off_c, 1, 46, 0
1, 20346, Note_off_c, 1, 81, 0
1, 20346, Note_off_c, 1, 72, 0
1, 20352, Note_on_c, 1, 82, 127
1, 20352, Note_on_c, 1, 74, 127
1, 20352, Note_on_c, 1, 58, 127
1, 20362, Note_off_c, 1, 82, 0
1, 20362, Note_off_c, 1, 74, 0
1, 20364, Note_on_c, 1, 81, 127
1, 20364, Note_on_c, 1, 72, 127
1, 20374, Note_off_c, 1, 81, 0
1, 20374, Note_off_c, 1, 72, 0
1, 20436, Note_off_c, 1, 58, 0
1, 20448, Note_on_c, 1, 82, 127
1, 20448, Note_on_c, 1, 74, 127
1, 20448, Note_on_c, 1, 57, 127
1, 20458, Note_off_c, 1, 82, 0
1, 20458, Note_off_c, 1, 74, 0
1, 20460, Note_on_c, 1, 81, 127
1, 20460, Note_on_c, 1, 72, 127
1, 20470, Note_off_c, 1, 81, 0
1, 20470, Note_off_c, 1, 72, 0
1, 20496, Note_on_c, 1, 79, 127
1, 20496, Note_on_c, 1, 70, 127
1, 20517, Note_off_c, 1, 79, 0
1, 20517, Note_off_c, 1, 70, 0
1, 20532, Note_off_c, 1, 57, 0
1, 20544, Note_on_c, 1, 82, 127
1, 20544, Note_on_c, 1, 74, 127
1, 20544, Note_on_c, 1, 55, 127
1, 20628, Note_off_c, 1, 82, 0
1, 20628, Note_off_c, 1, 74, 0
1, 20628, Note_off_c, 1, 55, 0
1, 20640, Note_on_c, 1, 79, 127
1, 20640, Note_on_c, 1, 70, 127
1, 20640, Note_on_c, 1, 48, 127
1, 20724, Note_off_c, 1, 79, 0
1, 20724, Note_off_c, 1, 70, 0
1, 20724, Note_off_c, 1, 48, 0
1, 20736, Note_on_c, 1, 78, 127
1, 20736, Note_on_c, 1, 69, 127
1, 20736, Note_on_c, 1, 50, 127
1, 20820, Note_off_c, 1, 78, 0
1, 20820, Note_off_c, 1, 69, 0
1, 20820, Note_off_c, 1, 50, 0
1, 20832, Note_on_c, 1, 79, 127
1, 20832, Note_on_c, 1, 70, 127
1, 20832, Note_on_c, 1, 43, 127
1, 20916, Note_off_c, 1, 43, 0
1, 20928, Note_on_c, 1, 55, 127
1, 21012, Note_off_c, 1, 55, 0
1, 21024, Note_on_c, 1, 53, 127
1, 21108, Note_off_c, 1, 79, 0
1, 21108, Note_off_c, 1, 70, 0
1, 21108, Note_off_c, 1, 53, 0
1, 21120, Note_on_c, 1, 82, 127
1, 21120, Note_on_c, 1, 79, 127
1, 21120, Note_on_c, 1, 52, 127
1, 21204, Note_off_c, 1, 52, 0
1, 21216, Note_on_c, 1, 50, 127
1, 21300, Note_off_c, 1, 50, 0
1, 21312, Note_on_c, 1, 48, 127
1, 21396, Note_off_c, 1, 82, 0
1, 21396, Note_off_c, 1, 48, 0
1, 21408, Note_on_c, 1, 81, 127
1, 21408, Note_on_c, 1, 41, 127
1, 21492, Note_off_c, 1, 41, 0
1, 21504, Note_on_c, 1, 53, 127
1, 21588, Note_off_c, 1, 53, 0
1, 21684, Note_off_c, 1, 79, 0
1, 21696, Note_on_c, 1, 77, 127
1, 21888, Note_on_c, 1, 47, 127
1, 21972, Note_off_c, 1, 81, 0
1, 21972, Note_off_c, 1, 47, 0
1, 22068, Note_off_c, 1, 77, 0
1, 22080, Note_on_c, 1, 81, 127
1, 22080, Note_on_c, 1, 76, 127
1, 22080, Note_on_c, 1, 50, 127
1, 22090, Note_off_c, 1, 81, 0
1, 22092, Note_on_c, 1, 79, 127
1, 22102, Note_off_c, 1, 79, 0
1, 22122, Note_off_c, 1, 76, 0
1, 22128, Note_on_c, 1, 77, 127
1, 22128, Note_on_c, 1, 74, 127
1, 22149, Note_off_c, 1, 77, 0
1, 22164, Note_off_c, 1, 50, 0
1, 22170, Note_off_c, 1, 74, 0
1, 22176, Note_on_c, 1, 81, 127
1, 22176, Note_on_c, 1, 76, 127
1, 22176, Note_on_c, 1, 49, 127
1, 22260, Note_off_c, 1, 81, 0
1, 22260, Note_off_c, 1, 76, 0
1, 22260, Note_off_c, 1, 49, 0
1, 22272, Note_on_c, 1, 77, 127
1, 22272, Note_on_c, 1, 69, 127
1, 22272, Note_on_c, 1, 50, 127
1, 22356, Note_off_c, 1, 50, 0
1, 22368, Note_on_c, 1, 48, 127
1, 22452, Note_off_c, 1, 77, 0
1, 22452, Note_off_c, 1, 69, 0
1, 22452, Note_off_c, 1, 48, 0
1, 22464, Note_on_c, 1, 79, 127
1, 22464, Note_on_c, 1, 70, 127
1, 22464, Note_on_c, 1, 46, 127
1, 22548, Note_off_c, 1, 79, 0
1, 22548, Note_off_c, 1, 70, 0
1, 22548, Note_off_c, 1, 46, 0
1, 22560, Note_on_c, 1, 76, 127
1, 22560, Note_on_c, 1, 67, 127
1, 22560, Note_on_c, 1, 48, 127
1, 22644, Note_off_c, 1, 48, 0
1, 22656, Note_on_c, 1, 46, 127
1, 22740, Note_off_c, 1, 76, 0
1, 22740, Note_off_c, 1, 67, 0
1, 22740, Note_off_c, 1, 46, 0
1, 22752, Note_on_c, 1, 77, 127
1, 22752, Note_on_c, 1, 69, 127
1, 22752, Note_on_c, 1, 45, 127
1, 22836, Note_off_c, 1, 77, 0
1, 22836, Note_off_c, 1, 69, 0
1, 22836, Note_off_c, 1, 45, 0
1, 22848, Note_on_c, 1, 74, 127
1, 22848, Note_on_c, 1, 65, 127
1, 22848, Note_on_c, 1, 46, 127
1, 22932, Note_off_c, 1, 74, 0
1, 22932, Note_off_c, 1, 65, 0
1, 22932, Note_off_c, 1, 46, 0
1, 22944, Note_on_c, 1, 82, 127
1, 22944, Note_on_c, 1, 74, 127
1, 22944, Note_on_c, 1, 45, 127
1, 23028, Note_off_c, 1, 45, 0
1, 23040, Note_on_c, 1, 43, 127
1, 23124, Note_off_c, 1, 82, 0
1, 23124, Note_off_c, 1, 74, 0
1, 23124, Note_off_c, 1, 43, 0
1, 23136, Note_on_c, 1, 81, 127
1, 23136, Note_on_c, 1, 77, 127
1, 23136, Note_on_c, 1, 48, 127
1, 23146, Note_off_c, 1, 81, 0
1, 23146, Note_off_c, 1, 77, 0
1, 23148, Note_on_c, 1, 79, 127
1, 23148, Note_on_c, 1, 76, 127
1, 23158, Note_off_c, 1, 79, 0
1, 23158, Note_off_c, 1, 76, 0
1, 23220, Note_off_c, 1, 48, 0
1, 23232, Note_on_c, 1, 81, 127
1, 23232, Note_on_c, 1, 77, 127
1, 23232, Note_on_c, 1, 36, 127
1, 23242, Note_off_c, 1, 81, 0
1, 23242, Note_off_c, 1, 77, 0
1, 23244, Note_on_c, 1, 79, 127
1, 23244, Note_on_c, 1, 76, 127
1, 23254, Note_off_c, 1, 79, 0
1, 23254, Note_off_c, 1, 76, 0
1, 23268, Note_on_c, 1, 74, 127
1, 23289, Note_off_c, 1, 74, 0
1, 23316, Note_off_c, 1, 36, 0
1, 23328, Note_on_c, 1, 41, 127
1, 23412, Note_off_c, 1, 41, 0
1, 23424, Note_on_c, 1, 74, 127
1, 23424, Note_on_c, 1, 65, 127
1, 23424, Note_on_c, 1, 46, 127
1, 23508, Note_off_c, 1, 46, 0
1, 23520, Note_on_c, 1, 45, 127
1, 23604, Note_off_c, 1, 74, 0
1, 23604, Note_off_c, 1, 65, 0
1, 23604, Note_off_c, 1, 45, 0
1, 23616, Note_on_c, 1, 76, 127
1, 23616, Note_on_c, 1, 67, 127
1, 23616, Note_on_c, 1, 43, 127
1, 23700, Note_off_c, 1, 76, 0
1, 23700, Note_off_c, 1, 67, 0
1, 23700, Note_off_c, 1, 43, 0
1, 23712, Note_on_c, 1, 73, 127
1, 23712, Note_on_c, 1, 64, 127
1, 23712, Note_on_c, 1, 45, 127
1, 23754, Note_off_c, 1, 73, 0
1, 23760, Note_on_c, 1, 76, 127
1, 23796, Note_off_c, 1, 45, 0
1, 23802, Note_off_c, 1, 76, 0
1, 23808, Note_on_c, 1, 79, 127
1, 23808, Note_on_c, 1, 49, 127
1, 23892, Note_off_c, 1, 64, 0
1, 23892, Note_off_c, 1, 49, 0
1, 23904, Note_on_c, 1, 74, 127
1, 23914, Note_off_c, 1, 74, 0
1, 23940, Note_off_c, 1, 79, 0
1, 23952, Note_on_c, 1, 81, 127
1, 23994, Note_off_c, 1, 81, 0
1, 24000, Note_on_c, 1, 79, 127
1, 24000, Note_on_c, 1, 74, 127
1, 24000, Note_on_c, 1, 50, 127
1, 24042, Note_off_c, 1, 79, 0
1, 24042, Note_off_c, 1, 74, 0
1, 24048, Note_on_c, 1, 77, 127
1, 24048, Note_on_c, 1, 69, 127
1, 24084, Note_off_c, 1, 50, 0
1, 24090, Note_off_c, 1, 77, 0
1, 24090, Note_off_c, 1, 69, 0
1, 24096, Note_on_c, 1, 76, 127
1, 24096, Note_on_c, 1, 67, 127
1, 24096, Note_on_c, 1, 57, 127
1, 24138, Note_off_c, 1, 76, 0
1, 24138, Note_off_c, 1, 67, 0
1, 24144, Note_on_c, 1, 74, 127
1, 24144, Note_on_c, 1, 65, 127
1, 24180, Note_off_c, 1, 57, 0
1, 24186, Note_off_c, 1, 74, 0
1, 24186, Note_off_c, 1, 65, 0
1, 24192, Note_on_c, 1, 76, 127
1, 24192, Note_on_c, 1, 67, 127
1, 24192, Note_on_c, 1, 45, 127
1, 24234, Note_off_c, 1, 76, 0
1, 24234, Note_off_c, 1, 67, 0
1, 24240, Note_on_c, 1, 73, 127
1, 24240, Note_on_c, 1, 64, 127
1, 24276, Note_off_c, 1, 45, 0
1, 24282, Note_off_c, 1, 73, 0
1, 24282, Note_off_c, 1, 64, 0
1, 24288, Note_on_c, 1, 74, 127
1, 24288, Note_on_c, 1, 65, 127
1, 24288, Note_on_c, 1, 38, 127
1, 24372, Note_off_c, 1, 38, 0
1, 24384, Note_on_c, 1, 50, 127
1, 24426, Note_off_c, 1, 50, 0
1, 24432, Note_on_c, 1, 52, 127
1, 24474, Note_off_c, 1, 52, 0
1, 24480, Note_on_c, 1, 53, 127
1, 24522, Note_off_c, 1, 53, 0
1, 24564, Note_off_c, 1, 74, 0
1, 24564, Note_off_c, 1, 65, 0
1, 24576, Note_on_c, 1, 76, 127
1, 24576, Note_on_c, 1, 73, 127
1, 24576, Note_on_c, 1, 57, 127
1, 24660, Note_off_c, 1, 57, 0
1, 24672, Note_on_c, 1, 55, 127
1, 24756, Note_off_c, 1, 76, 0
1, 24756, Note_off_c, 1, 73, 0
1, 24756, Note_off_c, 1, 55, 0
1, 24768, Note_on_c, 1, 77, 127
1, 24768, Note_on_c, 1, 74, 127
1, 24768, Note_on_c, 1, 53, 127
1, 24852, Note_off_c, 1, 77, 0
1, 24852, Note_off_c, 1, 74, 0
1, 24852, Note_off_c, 1, 53, 0
1, 24864, Note_on_c, 1, 79, 127
1, 24864, Note_on_c, 1, 76, 127
1, 24864, Note_on_c, 1, 52, 127
1, 24948, Note_off_c, 1, 76, 0
1, 24948, Note_off_c, 1, 52, 0
1, 24960, Note_on_c, 1, 72, 127
1, 24960, Note_on_c, 1, 57, 127
1, 25044, Note_off_c, 1, 79, 0
1, 25044, Note_off_c, 1, 57, 0
1, 25056, Note_on_c, 1, 45, 127
1, 25140, Note_off_c, 1, 45, 0
1, 25152, Note_on_c, 1, 77, 127
1, 25152, Note_on_c, 1, 50, 127
1, 25236, Note_off_c, 1, 72, 0
1, 25236, Note_off_c, 1, 77, 0
1, 25236, Note_off_c, 1, 50, 0
1, 25248, Note_on_c, 1, 74, 127
1, 25248, Note_on_c, 1, 72, 127
1, 25248, Note_on_c, 1, 55, 127
1, 25258, Note_off_c, 1, 72, 0
1, 25260, Note_on_c, 1, 71, 127
1, 25270, Note_off_c, 1, 71, 0
1, 25290, Note_off_c, 1, 74, 0
1, 25296, Note_on_c, 1, 76, 127
1, 25306, Note_off_c, 1, 76, 0
1, 25332, Note_off_c, 1, 55, 0
1, 25344, Note_on_c, 1, 79, 127
1, 25344, Note_on_c, 1, 72, 127
1, 25344, Note_on_c, 1, 43, 127
1, 25354, Note_off_c, 1, 72, 0
1, 25356, Note_on_c, 1, 71, 127
1, 25366, Note_off_c, 1, 71, 0
1, 25392, Note_on_c, 1, 69, 127
1, 25413, Note_off_c, 1, 69, 0
1, 25428, Note_off_c, 1, 79, 0
1, 25428, Note_off_c, 1, 43, 0
1, 25440, Note_on_c, 1, 77, 127
1, 25440, Note_on_c, 1, 72, 127
1, 25440, Note_on_c, 1, 48, 127
1, 25482, Note_off_c, 1, 77, 0
1, 25488, Note_on_c, 1, 76, 127
1, 25524, Note_off_c, 1, 72, 0
1, 25530, Note_off_c, 1, 76, 0
1, 25536, Note_on_c, 1, 74, 127
1, 25536, Note_on_c, 1, 67, 127
1, 25578, Note_off_c, 1, 74, 0
1, 25620, Note_off_c, 1, 67, 0
1, 25632, Note_on_c, 1, 64, 127
1, 25674, Note_off_c, 1, 64, 0
1, 25680, Note_on_c, 1, 65, 127
1, 25722, Note_off_c, 1, 65, 0
1, 25776, Note_on_c, 1, 78, 127
1, 25776, Note_on_c, 1, 69, 127
1, 25818, Note_off_c, 1, 78, 0
1, 25818, Note_off_c, 1, 69, 0
1, 25824, Note_on_c, 1, 79, 127
1, 25824, Note_on_c, 1, 70, 127
1, 25834, Note_off_c, 1, 79, 0
1, 25834, Note_off_c, 1, 70, 0
1, 26004, Note_off_c, 1, 48, 0
1, 26016, Note_on_c, 1, 79, 127
1, 26016, Note_on_c, 1, 70, 127
1, 26016, Note_on_c, 1, 46, 127
1, 26058, Note_off_c, 1, 79, 0
1, 26058, Note_off_c, 1, 70, 0
1, 26064, Note_on_c, 1, 81, 127
1, 26064, Note_on_c, 1, 72, 127
1, 26100, Note_off_c, 1, 46, 0
1, 26106, Note_off_c, 1, 81, 0
1, 26106, Note_off_c, 1, 72, 0
1, 26112, Note_on_c, 1, 82, 127
1, 26112, Note_on_c, 1, 74, 127
1, 26112, Note_on_c, 1, 58, 127
1, 26122, Note_off_c, 1, 82, 0
1, 26122, Note_off_c, 1, 74, 0
1, 26124, Note_on_c, 1, 81, 127
1, 26124, Note_on_c, 1, 72, 127
1, 26134, Note_off_c, 1, 81, 0
1, 26134, Note_off_c, 1, 72, 0
1, 26196, Note_off_c, 1, 58, 0
1, 26208, Note_on_c, 1, 82, 127
1, 26208, Note_on_c, 1, 74, 127
1, 26208, Note_on_c, 1, 57, 127
1, 26218, Note_off_c, 1, 82, 0
1, 26218, Note_off_c, 1, 74, 0
1, 26220, Note_on_c, 1, 81, 127
1, 26220, Note_on_c, 1, 72, 127
1, 26230, Note_off_c, 1, 81, 0
1, 26230, Note_off_c, 1, 72, 0
1, 26256, Note_on_c, 1, 79, 127
1, 26256, Note_on_c, 1, 70, 127
1, 26277, Note_off_c, 1, 79, 0
1, 26277, Note_off_c, 1, 70, 0
1, 26292, Note_off_c, 1, 57, 0
1, 26304, Note_on_c, 1, 82, 127
1, 26304, Note_on_c, 1, 74, 127
1, 26304, Note_on_c, 1, 55, 127
1, 26388, Note_off_c, 1, 82, 0
1, 26388, Note_off_c, 1, 74, 0
1, 26388, Note_off_c, 1, 55, 0
1, 26400, Note_on_c, 1, 79, 127
1, 26400, Note_on_c, 1, 70, 127
1, 26400, Note_on_c, 1, 48, 127
1, 26484, Note_off_c, 1, 79, 0
1, 26484, Note_off_c, 1, 70, 0
1, 26484, Note_off_c, 1, 48, 0
1, 26496, Note_on_c, 1, 78, 127
1, 26496, Note_on_c, 1, 69, 127
1, 26496, Note_on_c, 1, 50, 127
1, 26580, Note_off_c, 1, 78, 0
1, 26580, Note_off_c, 1, 69, 0
1, 26580, Note_off_c, 1, 50, 0
1, 26592, Note_on_c, 1, 79, 127
1, 26592, Note_on_c, 1, 70, 127
1, 26592, Note_on_c, 1, 43, 127
1, 26676, Note_off_c, 1, 43, 0
1, 26688, Note_on_c, 1, 55, 127
1, 26772, Note_off_c, 1, 55, 0
1, 26784, Note_on_c, 1, 53, 127
1, 26868, Note_off_c, 1, 79, 0
1, 26868, Note_off_c, 1, 70, 0
1, 26868, Note_off_c, 1, 53, 0
1, 26880, Note_on_c, 1, 82, 127
1, 26880, Note_on_c, 1, 79, 127
1, 26880, Note_on_c, 1, 52, 127
1, 26964, Note_off_c, 1, 52, 0
1, 26976, Note_on_c, 1, 50, 127
1, 27060, Note_off_c, 1, 50, 0
1, 27072, Note_on_c, 1, 48, 127
1, 27156, Note_off_c, 1, 82, 0
1, 27156, Note_off_c, 1, 48, 0
1, 27168, Note_on_c, 1, 81, 127
1, 27168, Note_on_c, 1, 41, 127
1, 27252, Note_off_c, 1, 41, 0
1, 27264, Note_on_c, 1, 53, 127
1, 27348, Note_off_c, 1, 53, 0
1, 27444, Note_off_c, 1, 79, 0
1, 27456, Note_on_c, 1, 77, 127
1, 27648, Note_on_c, 1, 47, 127
1, 27732, Note_off_c, 1, 81, 0
1, 27732, Note_off_c, 1, 47, 0
1, 27828, Note_off_c, 1, 77, 0
1, 27840, Note_on_c, 1, 81, 127
1, 27840, Note_on_c, 1, 76, 127
1, 27840, Note_on_c, 1, 50, 127
1, 27850, Note_off_c, 1, 81, 0
1, 27852, Note_on_c, 1, 79, 127
1, 27862, Note_off_c, 1, 79, 0
1, 27882, Note_off_c, 1, 76, 0
1, 27888, Note_on_c, 1, 77, 127
1, 27888, Note_on_c, 1, 74, 127
1, 27909, Note_off_c, 1, 77, 0
1, 27924, Note_off_c, 1, 50, 0
1, 27930, Note_off_c, 1, 74, 0
1, 27936, Note_on_c, 1, 81, 127
1, 27936, Note_on_c, 1, 76, 127
1, 27936, Note_on_c, 1, 49, 127
1, 28020, Note_off_c, 1, 81, 0
1, 28020, Note_off_c, 1, 76, 0
1, 28020, Note_off_c, 1, 49, 0
1, 28032, Note_on_c, 1, 77, 127
1, 28032, Note_on_c, 1, 69, 127
1, 28032, Note_on_c, 1, 50, 127
1, 28116, Note_off_c, 1, 50, 0
1, 28128, Note_on_c, 1, 48, 127
1, 28212, Note_off_c, 1, 77, 0
1, 28212, Note_off_c, 1, 69, 0
1, 28212, Note_off_c, 1, 48, 0
1, 28224, Note_on_c, 1, 79, 127
1, 28224, Note_on_c, 1, 70, 127
1, 28224, Note_on_c, 1, 46, 127
1, 28308, Note_off_c, 1, 79, 0
1, 28308, Note_off_c, 1, 70, 0
1, 28308, Note_off_c, 1, 46, 0
1, 28320, Note_on_c, 1, 76, 127
1, 28320, Note_on_c, 1, 67, 127
1, 28320, Note_on_c, 1, 48, 127
1, 28404, Note_off_c, 1, 48, 0
1, 28416, Note_on_c, 1, 46, 127
1, 28500, Note_off_c, 1, 76, 0
1, 28500, Note_off_c, 1, 67, 0
1, 28500, Note_off_c, 1, 46, 0
1, 28512, Note_on_c, 1, 77, 127
1, 28512, Note_on_c, 1, 69, 127
1, 28512, Note_on_c, 1, 45, 127
1, 28596, Note_off_c, 1, 77, 0
1, 28596, Note_off_c, 1, 69, 0
1, 28596, Note_off_c, 1, 45, 0
1, 28608, Note_on_c, 1, 74, 127
1, 28608, Note_on_c, 1, 65, 127
1, 28608, Note_on_c, 1, 46, 127
1, 28692, Note_off_c, 1, 74, 0
1, 28692, Note_off_c, 1, 65, 0
1, 28692, Note_off_c, 1, 46, 0
1, 28704, Note_on_c, 1, 82, 127
1, 28704, Note_on_c, 1, 74, 127
1, 28704, Note_on_c, 1, 45, 127
1, 28788, Note_off_c, 1, 45, 0
1, 28800, Note_on_c, 1, 43, 127
1, 28884, Note_off_c, 1, 82, 0
1, 28884, Note_off_c, 1, 74, 0
1, 28884, Note_off_c, 1, 43, 0
1, 28896, Note_on_c, 1, 81, 127
1, 28896, Note_on_c, 1, 77, 127
1, 28896, Note_on_c, 1, 48, 127
1, 28906, Note_off_c, 1, 81, 0
1, 28906, Note_off_c, 1, 77, 0
1, 28908, Note_on_c, 1, 79, 127
1, 28908, Note_on_c, 1, 76, 127
1, 28918, Note_off_c, 1, 79, 0
1, 28918, Note_off_c, 1, 76, 0
1, 28980, Note_off_c, 1, 48, 0
1, 28992, Note_on_c, 1, 81, 127
1, 28992, Note_on_c, 1, 77, 127
1, 28992, Note_on_c, 1, 36, 127
1, 29002, Note_off_c, 1, 81, 0
1, 29002, Note_off_c, 1, 77, 0
1, 29004, Note_on_c, 1, 79, 127
1, 29004, Note_on_c, 1, 76, 127
1, 29014, Note_off_c, 1, 79, 0
1, 29014, Note_off_c, 1, 76, 0
1, 29028, Note_on_c, 1, 74, 127
1, 29049, Note_off_c, 1, 74, 0
1, 29076, Note_off_c, 1, 36, 0
1, 29088, Note_on_c, 1, 41, 127
1, 29172, Note_off_c, 1, 41, 0
1, 29184, Note_on_c, 1, 74, 127
1, 29184, Note_on_c, 1, 65, 127
1, 29184, Note_on_c, 1, 46, 127
1, 29268, Note_off_c, 1, 46, 0
1, 29280, Note_on_c, 1, 45, 127
1, 29364, Note_off_c, 1, 74, 0
1, 29364, Note_off_c, 1, 65, 0
1, 29364, Note_off_c, 1, 45, 0
1, 29376, Note_on_c, 1, 76, 127
1, 29376, Note_on_c, 1, 67, 127
1, 29376, Note_on_c, 1, 43, 127
1, 29460, Note_off_c, 1, 76, 0
1, 29460, Note_off_c, 1, 67, 0
1, 29460, Note_off_c, 1, 43, 0
1, 29472, Note_on_c, 1, 73, 127
1, 29472, Note_on_c, 1, 64, 127
1, 29472, Note_on_c, 1, 45, 127
1, 29514, Note_off_c, 1, 73, 0
1, 29520, Note_on_c, 1, 76, 127
1, 29556, Note_off_c, 1, 45, 0
1, 29562, Note_off_c, 1, 76, 0
1, 29568, Note_on_c, 1, 79, 127
1, 29568, Note_on_c, 1, 49, 127
1, 29652, Note_off_c, 1, 64, 0
1, 29652, Note_off_c, 1, 49, 0
1, 29664, Note_on_c, 1, 74, 127
1, 29674, Note_off_c, 1, 74, 0
1, 29700, Note_off_c, 1, 79, 0
1, 29712, Note_on_c, 1, 81, 127
1, 29754, Note_off_c, 1, 81, 0
1, 29760, Note_on_c, 1, 79, 127
1, 29760, Note_on_c, 1, 74, 127
1, 29760, Note_on_c, 1, 50, 127
1, 29802, Note_off_c, 1, 79, 0
1, 29802, Note_off_c, 1, 74, 0
1, 29808, Note_on_c, 1, 77, 127
1, 29808, Note_on_c, 1, 69, 127
1, 29844, Note_off_c, 1, 50, 0
1, 29850, Note_off_c, 1, 77, 0
1, 29850, Note_off_c, 1, 69, 0
1, 29856, Note_on_c, 1, 76, 127
1, 29856, Note_on_c, 1, 67, 127
1, 29856, Note_on_c, 1, 57, 127
1, 29898, Note_off_c, 1, 76, 0
1, 29898, Note_off_c, 1, 67, 0
1, 29904, Note_on_c, 1, 74, 127
1, 29904, Note_on_c, 1, 65, 127
1, 29940, Note_off_c, 1, 57, 0
1, 29946, Note_off_c, 1, 74, 0
1, 29946, Note_off_c, 1, 65, 0
1, 29952, Note_on_c, 1, 76, 127
1, 29952, Note_on_c, 1, 67, 127
1, 29952, Note_on_c, 1, 45, 127
1, 29994, Note_off_c, 1, 76, 0
1, 29994, Note_off_c, 1, 67, 0
1, 30000, Note_on_c, 1, 73, 127
1, 30000, Note_on_c, 1, 64, 127
1, 30036, Note_off_c, 1, 45, 0
1, 30042, Note_off_c, 1, 73, 0
1, 30042, Note_off_c, 1, 64, 0
1, 30048, Note_on_c, 1, 74, 127
1, 30048, Note_on_c, 1, 65, 127
1, 30048, Note_on_c, 1, 38, 127
1, 30324, Note_off_c, 1, 74, 0
1, 30324, Note_off_c, 1, 65, 0
1, 30324, Note_off_c, 1, 38, 0
1, 30624, Note_on_c, 1, 53, 127
1, 30624, Note_on_c, 1, 72, 127
1, 30624, Note_on_c, 1, 69, 127
1, 30624, Note_on_c, 1, 65, 127
1, 30624, Note_on_c, 1, 57, 127
1, 30624, Note_on_c, 1, 45, 127
1, 30708, Note_off_c, 1, 53, 0
1, 30708, Note_off_c, 1, 72, 0
1, 30708, Note_off_c, 1, 69, 0
1, 30720, Note_on_c, 1, 75, 127
1, 30720, Note_on_c, 1, 63, 127
1, 30804, Note_off_c, 1, 65, 0
1, 30804, Note_off_c, 1, 57, 0
1, 30804, Note_off_c, 1, 45, 0
1, 30804, Note_off_c, 1, 75, 0
1, 30804, Note_off_c, 1, 63, 0
1, 30816, Note_on_c, 1, 53, 127
1, 30816, Note_on_c, 1, 74, 127
1, 30816, Note_on_c, 1, 70, 127
1, 30816, Note_on_c, 1, 65, 127
1, 30816, Note_on_c, 1, 58, 127
1, 30816, Note_on_c, 1, 46, 127
1, 30858, Note_off_c, 1, 53, 0
1, 30900, Note_off_c, 1, 74, 0
1, 30900, Note_off_c, 1, 70, 0
1, 30900, Note_off_c, 1, 65, 0
1, 30900, Note_off_c, 1, 58, 0
1, 30900, Note_off_c, 1, 46, 0
1, 30912, Note_on_c, 1, 53, 127
1, 30912, Note_on_c, 1, 72, 127
1, 30912, Note_on_c, 1, 69, 127
1, 30912, Note_on_c, 1, 63, 127
1, 30912, Note_on_c, 1, 60, 127
1, 30912, Note_on_c, 1, 48, 127
1, 30912, Note_on_c, 1, 75, 127
1, 30912, Note_on_c, 1, 65, 127
1, 30922, Note_off_c, 1, 65, 0
1, 30996, Note_off_c, 1, 53, 0
1, 30996, Note_off_c, 1, 72, 0
1, 30996, Note_off_c, 1, 69, 0
1, 30996, Note_off_c, 1, 60, 0
1, 30996, Note_off_c, 1, 48, 0
1, 30996, Note_off_c, 1, 75, 0
1, 31006, Note_off_c, 1, 63, 0
1, 31008, Note_on_c, 1, 53, 127
1, 31008, Note_on_c, 1, 70, 127
1, 31008, Note_on_c, 1, 65, 127
1, 31008, Note_on_c, 1, 62, 127
1, 31008, Note_on_c, 1, 63, 127
1, 31008, Note_on_c, 1, 51, 127
1, 31008, Note_on_c, 1, 75, 127
1, 31050, Note_off_c, 1, 53, 0
1, 31050, Note_off_c, 1, 62, 0
1, 31056, Note_on_c, 1, 69, 127
1, 31056, Note_on_c, 1, 60, 127
1, 31092, Note_off_c, 1, 70, 0
1, 31092, Note_off_c, 1, 65, 0
1, 31092, Note_off_c, 1, 63, 0
1, 31092, Note_off_c, 1, 51, 0
1, 31092, Note_off_c, 1, 75, 0
1, 31098, Note_off_c, 1, 69, 0
1, 31098, Note_off_c, 1, 60, 0
1, 31104, Note_on_c, 1, 53, 127
1, 31104, Note_on_c, 1, 70, 127
1, 31104, Note_on_c, 1, 65, 127
1, 31104, Note_on_c, 1, 62, 127
1, 31104, Note_on_c, 1, 50, 127
1, 31146, Note_off_c, 1, 53, 0
1, 31188, Note_off_c, 1, 70, 0
1, 31188, Note_off_c, 1, 65, 0
1, 31188, Note_off_c, 1, 62, 0
1, 31188, Note_off_c, 1, 50, 0
1, 31200, Note_on_c, 1, 53, 127
1, 31200, Note_on_c, 1, 72, 127
1, 31200, Note_on_c, 1, 69, 127
1, 31200, Note_on_c, 1, 63, 127
1, 31200, Note_on_c, 1, 60, 127
1, 31200, Note_on_c, 1, 48, 127
1, 31200, Note_on_c, 1, 75, 127
1, 31284, Note_off_c, 1, 53, 0
1, 31284, Note_off_c, 1, 72, 0
1, 31284, Note_off_c, 1, 69, 0
1, 31284, Note_off_c, 1, 63, 0
1, 31284, Note_off_c, 1, 60, 0
1, 31284, Note_off_c, 1, 48, 0
1, 31284, Note_off_c, 1, 75, 0
1, 31296, Note_on_c, 1, 53, 127
1, 31296, Note_on_c, 1, 75, 127
1, 31296, Note_on_c, 1, 72, 127
1, 31296, Note_on_c, 1, 60, 127
1, 31296, Note_on_c, 1, 58, 127
1, 31296, Note_on_c, 1, 46, 127
1, 31296, Note_on_c, 1, 63, 127
1, 31338, Note_off_c, 1, 53, 0
1, 31338, Note_off_c, 1, 58, 0
1, 31338, Note_off_c, 1, 46, 0
1, 31344, Note_on_c, 1, 57, 127
1, 31344, Note_on_c, 1, 45, 127
1, 31380, Note_off_c, 1, 75, 0
1, 31380, Note_off_c, 1, 72, 0
1, 31380, Note_off_c, 1, 60, 0
1, 31380, Note_off_c, 1, 63, 0
1, 31386, Note_off_c, 1, 57, 0
1, 31386, Note_off_c, 1, 45, 0
1, 31392, Note_on_c, 1, 53, 127
1, 31392, Note_on_c, 1, 74, 127
1, 31392, Note_on_c, 1, 70, 127
1, 31392, Note_on_c, 1, 65, 127
1, 31392, Note_on_c, 1, 58, 127
1, 31392, Note_on_c, 1, 46, 127
1, 31434, Note_off_c, 1, 53, 0
1, 31476, Note_off_c, 1, 74, 0
1, 31476, Note_off_c, 1, 70, 0
1, 31476, Note_off_c, 1, 65, 0
1, 31476, Note_off_c, 1, 58, 0
1, 31476, Note_off_c, 1, 46, 0
1, 31488, Note_on_c, 1, 53, 127
1, 31488, Note_on_c, 1, 74, 127
1, 31488, Note_on_c, 1, 72, 127
1, 31488, Note_on_c, 1, 65, 127
1, 31488, Note_on_c, 1, 57, 127
1, 31488, Note_on_c, 1, 45, 127
1, 31498, Note_off_c, 1, 74, 0
1, 31572, Note_off_c, 1, 53, 0
1, 31572, Note_off_c, 1, 57, 0
1, 31572, Note_off_c, 1, 45, 0
1, 31582, Note_off_c, 1, 72, 0
1, 31584, Note_on_c, 1, 70, 127
1, 31584, Note_on_c, 1, 58, 127
1, 31584, Note_on_c, 1, 46, 127
1, 31626, Note_off_c, 1, 58, 0
1, 31626, Note_off_c, 1, 46, 0
1, 31668, Note_off_c, 1, 65, 0
1, 31668, Note_off_c, 1, 70, 0
1, 31680, Note_on_c, 1, 53, 127
1, 31680, Note_on_c, 1, 77, 127
1, 31680, Note_on_c, 1, 69, 127
1, 31680, Note_on_c, 1, 60, 127
1, 31680, Note_on_c, 1, 55, 127
1, 31680, Note_on_c, 1, 43, 127
1, 31722, Note_off_c, 1, 53, 0
1, 31722, Note_off_c, 1, 55, 0
1, 31722, Note_off_c, 1, 43, 0
1, 31728, Note_on_c, 1, 41, 127
1, 31764, Note_off_c, 1, 77, 0
1, 31764, Note_off_c, 1, 69, 0
1, 31764, Note_off_c, 1, 60, 0
1, 31770, Note_off_c, 1, 41, 0
1, 31776, Note_on_c, 1, 60, 127
1, 31776, Note_on_c, 1, 70, 127
1, 31776, Note_on_c, 1, 67, 127
1, 31776, Note_on_c, 1, 52, 127
1, 31776, Note_on_c, 1, 53, 127
1, 31776, Note_on_c, 1, 41, 127
1, 31776, Note_on_c, 1, 72, 127
1, 31786, Note_off_c, 1, 53, 0
1, 31786, Note_off_c, 1, 41, 0
1, 31788, Note_on_c, 1, 40, 127
1, 31798, Note_off_c, 1, 40, 0
1, 31860, Note_off_c, 1, 70, 0
1, 31860, Note_off_c, 1, 72, 0
1, 31956, Note_off_c, 1, 67, 0
1, 31962, Note_off_c, 1, 60, 0
1, 31966, Note_off_c, 1, 52, 0
1, 31968, Note_on_c, 1, 60, 127
1, 31968, Note_on_c, 1, 69, 127
1, 31968, Note_on_c, 1, 65, 127
1, 31968, Note_on_c, 1, 53, 127
1, 31968, Note_on_c, 1, 41, 127
1, 32052, Note_off_c, 1, 69, 0
1, 32052, Note_off_c, 1, 65, 0
1, 32052, Note_off_c, 1, 53, 0
1, 32052, Note_off_c, 1, 41, 0
1, 32058, Note_off_c, 1, 60, 0
1, 32064, Note_on_c, 1, 60, 127
1, 32064, Note_on_c, 1, 70, 127
1, 32064, Note_on_c, 1, 64, 127
1, 32064, Note_on_c, 1, 55, 127
1, 32064, Note_on_c, 1, 43, 127
1, 32112, Note_on_c, 1, 65, 127
1, 32148, Note_off_c, 1, 60, 0
1, 32148, Note_off_c, 1, 70, 0
1, 32148, Note_off_c, 1, 64, 0
1, 32148, Note_off_c, 1, 55, 0
1, 32148, Note_off_c, 1, 43, 0
1, 32154, Note_off_c, 1, 65, 0
1, 32160, Note_on_c, 1, 60, 127
1, 32160, Note_on_c, 1, 74, 127
1, 32160, Note_on_c, 1, 67, 127
1, 32160, Note_on_c, 1, 69, 127
1, 32160, Note_on_c, 1, 53, 127
1, 32160, Note_on_c, 1, 41, 127
1, 32160, Note_on_c, 1, 62, 127
1, 32160, Note_on_c, 1, 57, 127
1, 32170, Note_off_c, 1, 67, 0
1, 32172, Note_on_c, 1, 65, 127
1, 32182, Note_off_c, 1, 65, 0
1, 32202, Note_off_c, 1, 60, 0
1, 32202, Note_off_c, 1, 53, 0
1, 32202, Note_off_c, 1, 41, 0
1, 32208, Note_on_c, 1, 52, 127
1, 32208, Note_on_c, 1, 40, 127
1, 32244, Note_off_c, 1, 69, 0
1, 32244, Note_off_c, 1, 62, 0
1, 32244, Note_off_c, 1, 57, 0
1, 32250, Note_off_c, 1, 52, 0
1, 32250, Note_off_c, 1, 40, 0
1, 32304, Note_on_c, 1, 64, 127
1, 32325, Note_off_c, 1, 64, 0
1, 32340, Note_off_c, 1, 74, 0
1, 32352, Note_on_c, 1, 60, 127
1, 32352, Note_on_c, 1, 70, 127
1, 32352, Note_on_c, 1, 67, 127
1, 32352, Note_on_c, 1, 52, 127
1, 32352, Note_on_c, 1, 72, 127
1, 32352, Note_on_c, 1, 40, 127
1, 32436, Note_off_c, 1, 67, 0
1, 32436, Note_off_c, 1, 52, 0
1, 32436, Note_off_c, 1, 72, 0
1, 32436, Note_off_c, 1, 40, 0
1, 32446, Note_off_c, 1, 70, 0
1, 32448, Note_on_c, 1, 69, 127
1, 32448, Note_on_c, 1, 65, 127
1, 32448, Note_on_c, 1, 53, 127
1, 32448, Note_on_c, 1, 41, 127
1, 32490, Note_off_c, 1, 53, 0
1, 32490, Note_off_c, 1, 41, 0
1, 32532, Note_off_c, 1, 69, 0
1, 32532, Note_off_c, 1, 65, 0
1, 32538, Note_off_c, 1, 60, 0
1, 32544, Note_on_c, 1, 60, 127
1, 32544, Note_on_c, 1, 72, 127
1, 32544, Note_on_c, 1, 64, 127
1, 32544, Note_on_c, 1, 50, 127
1, 32544, Note_on_c, 1, 38, 127
1, 32586, Note_off_c, 1, 50, 0
1, 32586, Note_off_c, 1, 38, 0
1, 32592, Note_on_c, 1, 48, 127
1, 32592, Note_on_c, 1, 36, 127
1, 32628, Note_off_c, 1, 72, 0
1, 32628, Note_off_c, 1, 64, 0
1, 32634, Note_off_c, 1, 60, 0
1, 32634, Note_off_c, 1, 48, 0
1, 32634, Note_off_c, 1, 36, 0
1, 32640, Note_on_c, 1, 60, 127
1, 32640, Note_on_c, 1, 69, 127
1, 32640, Note_on_c, 1, 65, 127
1, 32640, Note_on_c, 1, 53, 127
1, 32640, Note_on_c, 1, 70, 127
1, 32640, Note_on_c, 1, 41, 127
1, 32650, Note_off_c, 1, 70, 0
1, 32724, Note_off_c, 1, 53, 0
1, 32724, Note_off_c, 1, 41, 0
1, 32736, Note_on_c, 1, 52, 127
1, 32736, Note_on_c, 1, 40, 127
1, 32736, Note_on_c, 1, 72, 127
1, 32778, Note_off_c, 1, 52, 0
1, 32778, Note_off_c, 1, 40, 0
1, 32784, Note_on_c, 1, 50, 127
1, 32784, Note_on_c, 1, 38, 127
1, 32820, Note_off_c, 1, 65, 0
1, 32820, Note_off_c, 1, 72, 0
1, 32826, Note_off_c, 1, 60, 0
1, 32826, Note_off_c, 1, 50, 0
1, 32826, Note_off_c, 1, 38, 0
1, 32830, Note_off_c, 1, 69, 0
1, 32832, Note_on_c, 1, 60, 127
1, 32832, Note_on_c, 1, 67, 127
1, 32832, Note_on_c, 1, 52, 127
1, 32832, Note_on_c, 1, 40, 127
1, 32832, Note_on_c, 1, 72, 127
1, 32916, Note_off_c, 1, 67, 0
1, 32916, Note_off_c, 1, 52, 0
1, 32916, Note_off_c, 1, 40, 0
1, 32916, Note_off_c, 1, 72, 0
1, 32922, Note_off_c, 1, 60, 0
1, 32928, Note_on_c, 1, 67, 127
1, 32928, Note_on_c, 1, 71, 127
1, 32928, Note_on_c, 1, 65, 127
1, 32928, Note_on_c, 1, 62, 127
1, 32928, Note_on_c, 1, 50, 127
1, 32928, Note_on_c, 1, 38, 127
1, 32928, Note_on_c, 1, 64, 127
1, 32938, Note_off_c, 1, 64, 0
1, 32976, Note_on_c, 1, 72, 127
1, 33012, Note_off_c, 1, 67, 0
1, 33012, Note_off_c, 1, 71, 0
1, 33012, Note_off_c, 1, 65, 0
1, 33012, Note_off_c, 1, 50, 0
1, 33012, Note_off_c, 1, 38, 0
1, 33018, Note_off_c, 1, 72, 0
1, 33022, Note_off_c, 1, 62, 0
1, 33024, Note_on_c, 1, 67, 127
1, 33024, Note_on_c, 1, 74, 127
1, 33024, Note_on_c, 1, 60, 127
1, 33024, Note_on_c, 1, 52, 127
1, 33024, Note_on_c, 1, 40, 127
1, 33024, Note_on_c, 1, 72, 127
1, 33034, Note_off_c, 1, 74, 0
1, 33066, Note_off_c, 1, 60, 0
1, 33072, Note_on_c, 1, 62, 127
1, 33108, Note_off_c, 1, 52, 0
1, 33108, Note_off_c, 1, 40, 0
1, 33114, Note_off_c, 1, 62, 0
1, 33118, Note_off_c, 1, 72, 0
1, 33120, Note_on_c, 1, 64, 127
1, 33120, Note_on_c, 1, 48, 127
1, 33120, Note_on_c, 1, 36, 127
1, 33120, Note_on_c, 1, 76, 127
1, 33168, Note_on_c, 1, 71, 127
1, 33189, Note_off_c, 1, 71, 0
1, 33204, Note_off_c, 1, 64, 0
1, 33204, Note_off_c, 1, 48, 0
1, 33204, Note_off_c, 1, 36, 0
1, 33204, Note_off_c, 1, 76, 0
1, 33210, Note_off_c, 1, 67, 0
1, 33216, Note_on_c, 1, 67, 127
1, 33216, Note_on_c, 1, 74, 127
1, 33216, Note_on_c, 1, 62, 127
1, 33216, Note_on_c, 1, 47, 127
1, 33216, Note_on_c, 1, 35, 127
1, 33300, Note_off_c, 1, 74, 0
1, 33300, Note_off_c, 1, 47, 0
1, 33300, Note_off_c, 1, 35, 0
1, 33312, Note_on_c, 1, 72, 127
1, 33312, Note_on_c, 1, 45, 127
1, 33312, Note_on_c, 1, 33, 127
1, 33354, Note_off_c, 1, 45, 0
1, 33354, Note_off_c, 1, 33, 0
1, 33360, Note_on_c, 1, 71, 127
1, 33360, Note_on_c, 1, 43, 127
1, 33360, Note_on_c, 1, 31, 127
1, 33396, Note_off_c, 1, 62, 0
1, 33396, Note_off_c, 1, 72, 0
1, 33402, Note_off_c, 1, 67, 0
1, 33402, Note_off_c, 1, 71, 0
1, 33402, Note_off_c, 1, 43, 0
1, 33402, Note_off_c, 1, 31, 0
1, 33408, Note_on_c, 1, 67, 127
1, 33408, Note_on_c, 1, 72, 127
1, 33408, Note_on_c, 1, 64, 127
1, 33408, Note_on_c, 1, 41, 127
1, 33408, Note_on_c, 1, 29, 127
1, 33450, Note_off_c, 1, 41, 0
1, 33450, Note_off_c, 1, 29, 0
1, 33456, Note_on_c, 1, 40, 127
1, 33456, Note_on_c, 1, 28, 127
1, 33492, Note_off_c, 1, 72, 0
1, 33492, Note_off_c, 1, 64, 0
1, 33498, Note_off_c, 1, 67, 0
1, 33498, Note_off_c, 1, 40, 0
1, 33498, Note_off_c, 1, 28, 0
1, 33504, Note_on_c, 1, 72, 127
1, 33504, Note_on_c, 1, 69, 127
1, 33504, Note_on_c, 1, 77, 127
1, 33504, Note_on_c, 1, 60, 127
1, 33504, Note_on_c, 1, 45, 127
1, 33504, Note_on_c, 1, 33, 127
1, 33504, Note_on_c, 1, 65, 127
1, 33546, Note_off_c, 1, 77, 0
1, 33546, Note_off_c, 1, 45, 0
1, 33546, Note_off_c, 1, 33, 0
1, 33552, Note_on_c, 1, 71, 127
1, 33552, Note_on_c, 1, 79, 127
1, 33552, Note_on_c, 1, 41, 127
1, 33552, Note_on_c, 1, 29, 127
1, 33588, Note_off_c, 1, 72, 0
1, 33588, Note_off_c, 1, 69, 0
1, 33588, Note_off_c, 1, 60, 0
1, 33588, Note_off_c, 1, 65, 0
1, 33594, Note_off_c, 1, 71, 0
1, 33594, Note_off_c, 1, 79, 0
1, 33594, Note_off_c, 1, 41, 0
1, 33594, Note_off_c, 1, 29, 0
1, 33600, Note_on_c, 1, 71, 127
1, 33600, Note_on_c, 1, 67, 127
1, 33600, Note_on_c, 1, 74, 127
1, 33600, Note_on_c, 1, 72, 127
1, 33600, Note_on_c, 1, 43, 127
1, 33600, Note_on_c, 1, 31, 127
1, 33600, Note_on_c, 1, 62, 127
1, 33600, Note_on_c, 1, 70, 127
1, 33610, Note_off_c, 1, 72, 0
1, 33684, Note_off_c, 1, 43, 0
1, 33684, Note_off_c, 1, 31, 0
1, 33684, Note_off_c, 1, 62, 0
1, 33684, Note_off_c, 1, 70, 0
1, 33690, Note_off_c, 1, 67, 0
1, 33696, Note_on_c, 1, 65, 127
1, 33732, Note_off_c, 1, 74, 0
1, 33742, Note_off_c, 1, 71, 0
1, 33780, Note_off_c, 1, 65, 0
1, 33792, Note_on_c, 1, 72, 127
1, 33792, Note_on_c, 1, 67, 127
1, 33792, Note_on_c, 1, 64, 127
1, 33792, Note_on_c, 1, 36, 127
1, 33792, Note_on_c, 1, 24, 127
1, 33792, Note_on_c, 1, 76, 127
1, 33876, Note_off_c, 1, 36, 0
1, 33876, Note_off_c, 1, 24, 0
1, 33876, Note_off_c, 1, 76, 0
1, 33888, Note_on_c, 1, 48, 127
1, 33888, Note_on_c, 1, 60, 127
1, 33930, Note_off_c, 1, 48, 0
1, 33930, Note_off_c, 1, 60, 0
1, 33936, Note_on_c, 1, 46, 127
1, 33936, Note_on_c, 1, 34, 127
1, 33936, Note_on_c, 1, 58, 127
1, 33978, Note_off_c, 1, 46, 0
1, 33978, Note_off_c, 1, 34, 0
1, 33978, Note_off_c, 1, 58, 0
1, 33984, Note_on_c, 1, 45, 127
1, 33984, Note_on_c, 1, 33, 127
1, 33984, Note_on_c, 1, 57, 127
1, 34026, Note_off_c, 1, 45, 0
1, 34026, Note_off_c, 1, 33, 0
1, 34026, Note_off_c, 1, 57, 0
1, 34032, Note_on_c, 1, 43, 127
1, 34032, Note_on_c, 1, 31, 127
1, 34032, Note_on_c, 1, 55, 127
1, 34068, Note_off_c, 1, 72, 0
1, 34068, Note_off_c, 1, 67, 0
1, 34068, Note_off_c, 1, 64, 0
1, 34074, Note_off_c, 1, 43, 0
1, 34074, Note_off_c, 1, 31, 0
1, 34074, Note_off_c, 1, 55, 0
1, 34080, Note_on_c, 1, 53, 127
1, 34080, Note_on_c, 1, 72, 127
1, 34080, Note_on_c, 1, 69, 127
1, 34080, Note_on_c, 1, 65, 127
1, 34080, Note_on_c, 1, 41, 127
1, 34080, Note_on_c, 1, 29, 127
1, 34080, Note_on_c, 1, 60, 127
1, 34164, Note_off_c, 1, 53, 0
1, 34164, Note_off_c, 1, 72, 0
1, 34164, Note_off_c, 1, 69, 0
1, 34164, Note_off_c, 1, 41, 0
1, 34164, Note_off_c, 1, 29, 0
1, 34164, Note_off_c, 1, 60, 0
1, 34176, Note_on_c, 1, 75, 127
1, 34176, Note_on_c, 1, 57, 127
1, 34176, Note_on_c, 1, 45, 127
1, 34176, Note_on_c, 1, 63, 127
1, 34260, Note_off_c, 1, 65, 0
1, 34260, Note_off_c, 1, 75, 0
1, 34260, Note_off_c, 1, 57, 0
1, 34260, Note_off_c, 1, 45, 0
1, 34260, Note_off_c, 1, 63, 0
1, 34272, Note_on_c, 1, 53, 127
1, 34272, Note_on_c, 1, 74, 127
1, 34272, Note_on_c, 1, 70, 127
1, 34272, Note_on_c, 1, 65, 127
1, 34272, Note_on_c, 1, 58, 127
1, 34272, Note_on_c, 1, 46, 127
1, 34314, Note_off_c, 1, 53, 0
1, 34356, Note_off_c, 1, 74, 0
1, 34356, Note_off_c, 1, 70, 0
1, 34356, Note_off_c, 1, 65, 0
1, 34356, Note_off_c, 1, 58, 0
1, 34356, Note_off_c, 1, 46, 0
1, 34368, Note_on_c, 1, 53, 127
1, 34368, Note_on_c, 1, 72, 127
1, 34368, Note_on_c, 1, 69, 127
1, 34368, Note_on_c, 1, 63, 127
1, 34368, Note_on_c, 1, 60, 127
1, 34368, Note_on_c, 1, 48, 127
1, 34368, Note_on_c, 1, 75, 127
1, 34368, Note_on_c, 1, 65, 127
1, 34378, Note_off_c, 1, 65, 0
1, 34452, Note_off_c, 1, 53, 0
1, 34452, Note_off_c, 1, 72, 0
1, 34452, Note_off_c, 1, 69, 0
1, 34452, Note_off_c, 1, 60, 0
1, 34452, Note_off_c, 1, 48, 0
1, 34452, Note_off_c, 1, 75, 0
1, 34462, Note_off_c, 1, 63, 0
1, 34464, Note_on_c, 1, 53, 127
1, 34464, Note_on_c, 1, 70, 127
1, 34464, Note_on_c, 1, 65, 127
1, 34464, Note_on_c, 1, 62, 127
1, 34464, Note_on_c, 1, 63, 127
1, 34464, Note_on_c, 1, 51, 127
1, 34464, Note_on_c, 1, 75, 127
1, 34506, Note_off_c, 1, 53, 0
1, 34506, Note_off_c, 1, 62, 0
1, 34512, Note_on_c, 1, 69, 127
1, 34512, Note_on_c, 1, 60, 127
1, 34548, Note_off_c, 1, 70, 0
1, 34548, Note_off_c, 1, 65, 0
1, 34548, Note_off_c, 1, 63, 0
1, 34548, Note_off_c, 1, 51, 0
1, 34548, Note_off_c, 1, 75, 0
1, 34554, Note_off_c, 1, 69, 0
1, 34554, Note_off_c, 1, 60, 0
1, 34560, Note_on_c, 1, 53, 127
1, 34560, Note_on_c, 1, 70, 127
1, 34560, Note_on_c, 1, 65, 127
1, 34560, Note_on_c, 1, 62, 127
1, 34560, Note_on_c, 1, 50, 127
1, 34602, Note_off_c, 1, 53, 0
1, 34644, Note_off_c, 1, 70, 0
1, 34644, Note_off_c, 1, 65, 0
1, 34644, Note_off_c, 1, 62, 0
1, 34644, Note_off_c, 1, 50, 0
1, 34656, Note_on_c, 1, 53, 127
1, 34656, Note_on_c, 1, 72, 127
1, 34656, Note_on_c, 1, 69, 127
1, 34656, Note_on_c, 1, 63, 127
1, 34656, Note_on_c, 1, 60, 127
1, 34656, Note_on_c, 1, 48, 127
1, 34656, Note_on_c, 1, 75, 127
1, 34740, Note_off_c, 1, 53, 0
1, 34740, Note_off_c, 1, 72, 0
1, 34740, Note_off_c, 1, 69, 0
1, 34740, Note_off_c, 1, 63, 0
1, 34740, Note_off_c, 1, 60, 0
1, 34740, Note_off_c, 1, 48, 0
1, 34740, Note_off_c, 1, 75, 0
1, 34752, Note_on_c, 1, 53, 127
1, 34752, Note_on_c, 1, 75, 127
1, 34752, Note_on_c, 1, 72, 127
1, 34752, Note_on_c, 1, 60, 127
1, 34752, Note_on_c, 1, 58, 127
1, 34752, Note_on_c, 1, 46, 127
1, 34752, Note_on_c, 1, 63, 127
1, 34794, Note_off_c, 1, 53, 0
1, 34794, Note_off_c, 1, 58, 0
1, 34794, Note_off_c, 1, 46, 0
1, 34800, Note_on_c, 1, 57, 127
1, 34800, Note_on_c, 1, 45, 127
1, 34836, Note_off_c, 1, 75, 0
1, 34836, Note_off_c, 1, 72, 0
1, 34836, Note_off_c, 1, 60, 0
1, 34836, Note_off_c, 1, 63, 0
1, 34842, Note_off_c, 1, 57, 0
1, 34842, Note_off_c, 1, 45, 0
1, 34848, Note_on_c, 1, 53, 127
1, 34848, Note_on_c, 1, 74, 127
1, 34848, Note_on_c, 1, 70, 127
1, 34848, Note_on_c, 1, 65, 127
1, 34848, Note_on_c, 1, 58, 127
1, 34848, Note_on_c, 1, 46, 127
1, 34890, Note_off_c, 1, 53, 0
1, 34932, Note_off_c, 1, 74, 0
1, 34932, Note_off_c, 1, 70, 0
1, 34932, Note_off_c, 1, 65, 0
1, 34932, Note_off_c, 1, 58, 0
1, 34932, Note_off_c, 1, 46, 0
1, 34944, Note_on_c, 1, 53, 127
1, 34944, Note_on_c, 1, 74, 127
1, 34944, Note_on_c, 1, 72, 127
1, 34944, Note_on_c, 1, 65, 127
1, 34944, Note_on_c, 1, 57, 127
1, 34944, Note_on_c, 1, 45, 127
1, 34954, Note_off_c, 1, 74, 0
1, 35028, Note_off_c, 1, 53, 0
1, 35028, Note_off_c, 1, 57, 0
1, 35028, Note_off_c, 1, 45, 0
1, 35038, Note_off_c, 1, 72, 0
1, 35040, Note_on_c, 1, 70, 127
1, 35040, Note_on_c, 1, 58, 127
1, 35040, Note_on_c, 1, 46, 127
1, 35082, Note_off_c, 1, 58, 0
1, 35082, Note_off_c, 1, 46, 0
1, 35124, Note_off_c, 1, 65, 0
1, 35124, Note_off_c, 1, 70, 0
1, 35136, Note_on_c, 1, 53, 127
1, 35136, Note_on_c, 1, 77, 127
1, 35136, Note_on_c, 1, 69, 127
1, 35136, Note_on_c, 1, 60, 127
1, 35136, Note_on_c, 1, 55, 127
1, 35136, Note_on_c, 1, 43, 127
1, 35178, Note_off_c, 1, 53, 0
1, 35178, Note_off_c, 1, 55, 0
1, 35178, Note_off_c, 1, 43, 0
1, 35184, Note_on_c, 1, 41, 127
1, 35220, Note_off_c, 1, 77, 0
1, 35220, Note_off_c, 1, 69, 0
1, 35220, Note_off_c, 1, 60, 0
1, 35226, Note_off_c, 1, 41, 0
1, 35232, Note_on_c, 1, 60, 127
1, 35232, Note_on_c, 1, 70, 127
1, 35232, Note_on_c, 1, 67, 127
1, 35232, Note_on_c, 1, 52, 127
1, 35232, Note_on_c, 1, 53, 127
1, 35232, Note_on_c, 1, 41, 127
1, 35232, Note_on_c, 1, 72, 127
1, 35242, Note_off_c, 1, 53, 0
1, 35242, Note_off_c, 1, 41, 0
1, 35244, Note_on_c, 1, 40, 127
1, 35254, Note_off_c, 1, 40, 0
1, 35316, Note_off_c, 1, 70, 0
1, 35316, Note_off_c, 1, 72, 0
1, 35412, Note_off_c, 1, 67, 0
1, 35418, Note_off_c, 1, 60, 0
1, 35422, Note_off_c, 1, 52, 0
1, 35424, Note_on_c, 1, 60, 127
1, 35424, Note_on_c, 1, 69, 127
1, 35424, Note_on_c, 1, 65, 127
1, 35424, Note_on_c, 1, 53, 127
1, 35424, Note_on_c, 1, 41, 127
1, 35508, Note_off_c, 1, 69, 0
1, 35508, Note_off_c, 1, 65, 0
1, 35508, Note_off_c, 1, 53, 0
1, 35508, Note_off_c, 1, 41, 0
1, 35514, Note_off_c, 1, 60, 0
1, 35520, Note_on_c, 1, 60, 127
1, 35520, Note_on_c, 1, 70, 127
1, 35520, Note_on_c, 1, 64, 127
1, 35520, Note_on_c, 1, 55, 127
1, 35520, Note_on_c, 1, 43, 127
1, 35568, Note_on_c, 1, 65, 127
1, 35604, Note_off_c, 1, 60, 0
1, 35604, Note_off_c, 1, 70, 0
1, 35604, Note_off_c, 1, 64, 0
1, 35604, Note_off_c, 1, 55, 0
1, 35604, Note_off_c, 1, 43, 0
1, 35610, Note_off_c, 1, 65, 0
1, 35616, Note_on_c, 1, 60, 127
1, 35616, Note_on_c, 1, 74, 127
1, 35616, Note_on_c, 1, 67, 127
1, 35616, Note_on_c, 1, 69, 127
1, 35616, Note_on_c, 1, 53, 127
1, 35616, Note_on_c, 1, 41, 127
1, 35616, Note_on_c, 1, 62, 127
1, 35616, Note_on_c, 1, 57, 127
1, 35626, Note_off_c, 1, 67, 0
1, 35628, Note_on_c, 1, 65, 127
1, 35638, Note_off_c, 1, 65, 0
1, 35658, Note_off_c, 1, 60, 0
1, 35658, Note_off_c, 1, 53, 0
1, 35658, Note_off_c, 1, 41, 0
1, 35664, Note_on_c, 1, 52, 127
1, 35664, Note_on_c, 1, 40, 127
1, 35700, Note_off_c, 1, 69, 0
1, 35700, Note_off_c, 1, 62, 0
1, 35700, Note_off_c, 1, 57, 0
1, 35706, Note_off_c, 1, 52, 0
1, 35706, Note_off_c, 1, 40, 0
1, 35760, Note_on_c, 1, 64, 127
1, 35781, Note_off_c, 1, 64, 0
1, 35796, Note_off_c, 1, 74, 0
1, 35808, Note_on_c, 1, 60, 127
1, 35808, Note_on_c, 1, 70, 127
1, 35808, Note_on_c, 1, 67, 127
1, 35808, Note_on_c, 1, 52, 127
1, 35808, Note_on_c, 1, 72, 127
1, 35808, Note_on_c, 1, 40, 127
1, 35892, Note_off_c, 1, 67, 0
1, 35892, Note_off_c, 1, 52, 0
1, 35892, Note_off_c, 1, 72, 0
1, 35892, Note_off_c, 1, 40, 0
1, 35902, Note_off_c, 1, 70, 0
1, 35904, Note_on_c, 1, 69, 127
1, 35904, Note_on_c, 1, 65, 127
1, 35904, Note_on_c, 1, 53, 127
1, 35904, Note_on_c, 1, 41, 127
1, 35946, Note_off_c, 1, 53, 0
1, 35946, Note_off_c, 1, 41, 0
1, 35988, Note_off_c, 1, 69, 0
1, 35988, Note_off_c, 1, 65, 0
1, 35994, Note_off_c, 1, 60, 0
1, 36000, Note_on_c, 1, 60, 127
1, 36000, Note_on_c, 1, 72, 127
1, 36000, Note_on_c, 1, 64, 127
1, 36000, Note_on_c, 1, 50, 127
1, 36000, Note_on_c, 1, 38, 127
1, 36042, Note_off_c, 1, 50, 0
1, 36042, Note_off_c, 1, 38, 0
1, 36048, Note_on_c, 1, 48, 127
1, 36048, Note_on_c, 1, 36, 127
1, 36084, Note_off_c, 1, 72, 0
1, 36084, Note_off_c, 1, 64, 0
1, 36090, Note_off_c, 1, 60, 0
1, 36090, Note_off_c, 1, 48, 0
1, 36090, Note_off_c, 1, 36, 0
1, 36096, Note_on_c, 1, 60, 127
1, 36096, Note_on_c, 1, 69, 127
1, 36096, Note_on_c, 1, 65, 127
1, 36096, Note_on_c, 1, 53, 127
1, 36096, Note_on_c, 1, 70, 127
1, 36096, Note_on_c, 1, 41, 127
1, 36106, Note_off_c, 1, 70, 0
1, 36180, Note_off_c, 1, 53, 0
1, 36180, Note_off_c, 1, 41, 0
1, 36192, Note_on_c, 1, 52, 127
1, 36192, Note_on_c, 1, 40, 127
1, 36192, Note_on_c, 1, 72, 127
1, 36234, Note_off_c, 1, 52, 0
1, 36234, Note_off_c, 1, 40, 0
1, 36240, Note_on_c, 1, 50, 127
1, 36240, Note_on_c, 1, 38, 127
1, 36276, Note_off_c, 1, 65, 0
1, 36276, Note_off_c, 1, 72, 0
1, 36282, Note_off_c, 1, 60, 0
1, 36282, Note_off_c, 1, 50, 0
1, 36282, Note_off_c, 1, 38, 0
1, 36286, Note_off_c, 1, 69, 0
1, 36288, Note_on_c, 1, 60, 127
1, 36288, Note_on_c, 1, 67, 127
1, 36288, Note_on_c, 1, 52, 127
1, 36288, Note_on_c, 1, 40, 127
1, 36288, Note_on_c, 1, 72, 127
1, 36372, Note_off_c, 1, 67, 0
1, 36372, Note_off_c, 1, 52, 0
1, 36372, Note_off_c, 1, 40, 0
1, 36372, Note_off_c, 1, 72, 0
1, 36378, Note_off_c, 1, 60, 0
1, 36384, Note_on_c, 1, 67, 127
1, 36384, Note_on_c, 1, 71, 127
1, 36384, Note_on_c, 1, 65, 127
1, 36384, Note_on_c, 1, 62, 127
1, 36384, Note_on_c, 1, 50, 127
1, 36384, Note_on_c, 1, 38, 127
1, 36384, Note_on_c, 1, 64, 127
1, 36394, Note_off_c, 1, 64, 0
1, 36432, Note_on_c, 1, 72, 127
1, 36468, Note_off_c, 1, 67, 0
1, 36468, Note_off_c, 1, 71, 0
1, 36468, Note_off_c, 1, 65, 0
1, 36468, Note_off_c, 1, 50, 0
1, 36468, Note_off_c, 1, 38, 0
1, 36474, Note_off_c, 1, 72, 0
1, 36478, Note_off_c, 1, 62, 0
1, 36480, Note_on_c, 1, 67, 127
1, 36480, Note_on_c, 1, 74, 127
1, 36480, Note_on_c, 1, 60, 127
1, 36480, Note_on_c, 1, 52, 127
1, 36480, Note_on_c, 1, 40, 127
1, 36480, Note_on_c, 1, 72, 127
1, 36490, Note_off_c, 1, 74, 0
1, 36522, Note_off_c, 1, 60, 0
1, 36528, Note_on_c, 1, 62, 127
1, 36564, Note_off_c, 1, 52, 0
1, 36564, Note_off_c, 1, 40, 0
1, 36570, Note_off_c, 1, 62, 0
1, 36574, Note_off_c, 1, 72, 0
1, 36576, Note_on_c, 1, 64, 127
1, 36576, Note_on_c, 1, 48, 127
1, 36576, Note_on_c, 1, 36, 127
1, 36576, Note_on_c, 1, 76, 127
1, 36624, Note_on_c, 1, 71, 127
1, 36645, Note_off_c, 1, 71, 0
1, 36660, Note_off_c, 1, 64, 0
1, 36660, Note_off_c, 1, 48, 0
1, 36660, Note_off_c, 1, 36, 0
1, 36660, Note_off_c, 1, 76, 0
1, 36666, Note_off_c, 1, 67, 0
1, 36672, Note_on_c, 1, 67, 127
1, 36672, Note_on_c, 1, 74, 127
1, 36672, Note_on_c, 1, 62, 127
1, 36672, Note_on_c, 1, 47, 127
1, 36672, Note_on_c, 1, 35, 127
1, 36756, Note_off_c, 1, 74, 0
1, 36756, Note_off_c, 1, 47, 0
1, 36756, Note_off_c, 1, 35, 0
1, 36768, Note_on_c, 1, 72, 127
1, 36768, Note_on_c, 1, 45, 127
1, 36768, Note_on_c, 1, 33, 127
1, 36810, Note_off_c, 1, 45, 0
1, 36810, Note_off_c, 1, 33, 0
1, 36816, Note_on_c, 1, 71, 127
1, 36816, Note_on_c, 1, 43, 127
1, 36816, Note_on_c, 1, 31, 127
1, 36852, Note_off_c, 1, 62, 0
1, 36852, Note_off_c, 1, 72, 0
1, 36858, Note_off_c, 1, 67, 0
1, 36858, Note_off_c, 1, 71, 0
1, 36858, Note_off_c, 1, 43, 0
1, 36858, Note_off_c, 1, 31, 0
1, 36864, Note_on_c, 1, 67, 127
1, 36864, Note_on_c, 1, 72, 127
1, 36864, Note_on_c, 1, 64, 127
1, 36864, Note_on_c, 1, 41, 127
1, 36864, Note_on_c, 1, 29, 127
1, 36906, Note_off_c, 1, 41, 0
1, 36906, Note_off_c, 1, 29, 0
1, 36912, Note_on_c, 1, 40, 127
1, 36912, Note_on_c, 1, 28, 127
1, 36948, Note_off_c, 1, 72, 0
1, 36948, Note_off_c, 1, 64, 0
1, 36954, Note_off_c, 1, 67, 0
1, 36954, Note_off_c, 1, 40, 0
1, 36954, Note_off_c, 1, 28, 0
1, 36960, Note_on_c, 1, 72, 127
1, 36960, Note_on_c, 1, 69, 127
1, 36960, Note_on_c, 1, 77, 127
1, 36960, Note_on_c, 1, 60, 127
1, 36960, Note_on_c, 1, 45, 127
1, 36960, Note_on_c, 1, 33, 127
1, 36960, Note_on_c, 1, 65, 127
1, 37002, Note_off_c, 1, 77, 0
1, 37002, Note_off_c, 1, 45, 0
1, 37002, Note_off_c, 1, 33, 0
1, 37008, Note_on_c, 1, 71, 127
1, 37008, Note_on_c, 1, 79, 127
1, 37008, Note_on_c, 1, 41, 127
1, 37008, Note_on_c, 1, 29, 127
1, 37044, Note_off_c, 1, 72, 0
1, 37044, Note_off_c, 1, 69, 0
1, 37044, Note_off_c, 1, 60, 0
1, 37044, Note_off_c, 1, 65, 0
1, 37050, Note_off_c, 1, 71, 0
1, 37050, Note_off_c, 1, 79, 0
1, 37050, Note_off_c, 1, 41, 0
1, 37050, Note_off_c, 1, 29, 0
1, 37056, Note_on_c, 1, 71, 127
1, 37056, Note_on_c, 1, 67, 127
1, 37056, Note_on_c, 1, 74, 127
1, 37056, Note_on_c, 1, 72, 127
1, 37056, Note_on_c, 1, 43, 127
1, 37056, Note_on_c, 1, 31, 127
1, 37056, Note_on_c, 1, 62, 127
1, 37056, Note_on_c, 1, 70, 127
1, 37066, Note_off_c, 1, 72, 0
1, 37140, Note_off_c, 1, 43, 0
1, 37140, Note_off_c, 1, 31, 0
1, 37140, Note_off_c, 1, 62, 0
1, 37140, Note_off_c, 1, 70, 0
1, 37146, Note_off_c, 1, 67, 0
1, 37152, Note_on_c, 1, 65, 127
1, 37188, Note_off_c, 1, 74, 0
1, 37198, Note_off_c, 1, 71, 0
1, 37236, Note_off_c, 1, 65, 0
1, 37248, Note_on_c, 1, 72, 127
1, 37248, Note_on_c, 1, 67, 127
1, 37248, Note_on_c, 1, 64, 127
1, 37248, Note_on_c, 1, 36, 127
1, 37248, Note_on_c, 1, 24, 127
1, 37248, Note_on_c, 1, 76, 127
1, 37332, Note_off_c, 1, 36, 0
1, 37332, Note_off_c, 1, 24, 0
1, 37344, Note_on_c, 1, 48, 127
1, 37428, Note_off_c, 1, 48, 0
1, 37440, Note_on_c, 1, 50, 127
1, 37440, Note_on_c, 1, 38, 127
1, 37524, Note_off_c, 1, 72, 0
1, 37524, Note_off_c, 1, 67, 0
1, 37524, Note_off_c, 1, 64, 0
1, 37524, Note_off_c, 1, 76, 0
1, 37524, Note_off_c, 1, 50, 0
1, 37524, Note_off_c, 1, 38, 0
1, 37536, Note_on_c, 1, 60, 127
1, 37536, Note_on_c, 1, 79, 127
1, 37536, Note_on_c, 1, 72, 127
1, 37536, Note_on_c, 1, 67, 127
1, 37536, Note_on_c, 1, 52, 127
1, 37536, Note_on_c, 1, 40, 127
1, 37620, Note_off_c, 1, 60, 0
1, 37620, Note_off_c, 1, 79, 0
1, 37620, Note_off_c, 1, 72, 0
1, 37632, Note_on_c, 1, 82, 127
1, 37632, Note_on_c, 1, 70, 127
1, 37716, Note_off_c, 1, 67, 0
1, 37716, Note_off_c, 1, 52, 0
1, 37716, Note_off_c, 1, 40, 0
1, 37716, Note_off_c, 1, 82, 0
1, 37716, Note_off_c, 1, 70, 0
1, 37728, Note_on_c, 1, 60, 127
1, 37728, Note_on_c, 1, 81, 127
1, 37728, Note_on_c, 1, 77, 127
1, 37728, Note_on_c, 1, 72, 127
1, 37728, Note_on_c, 1, 53, 127
1, 37728, Note_on_c, 1, 41, 127
1, 37728, Note_on_c, 1, 69, 127
1, 37812, Note_off_c, 1, 81, 0
1, 37812, Note_off_c, 1, 77, 0
1, 37812, Note_off_c, 1, 72, 0
1, 37812, Note_off_c, 1, 53, 0
1, 37812, Note_off_c, 1, 41, 0
1, 37812, Note_off_c, 1, 69, 0
1, 37818, Note_off_c, 1, 60, 0
1, 37824, Note_on_c, 1, 60, 127
1, 37824, Note_on_c, 1, 79, 127
1, 37824, Note_on_c, 1, 76, 127
1, 37824, Note_on_c, 1, 70, 127
1, 37824, Note_on_c, 1, 55, 127
1, 37824, Note_on_c, 1, 81, 127
1, 37824, Note_on_c, 1, 43, 127
1, 37824, Note_on_c, 1, 64, 127
1, 37824, Note_on_c, 1, 72, 127
1, 37834, Note_off_c, 1, 81, 0
1, 37834, Note_off_c, 1, 72, 0
1, 37908, Note_off_c, 1, 60, 0
1, 37908, Note_off_c, 1, 76, 0
1, 37908, Note_off_c, 1, 55, 0
1, 37908, Note_off_c, 1, 43, 0
1, 37908, Note_off_c, 1, 64, 0
1, 37918, Note_off_c, 1, 79, 0
1, 37918, Note_off_c, 1, 70, 0
1, 37920, Note_on_c, 1, 60, 127
1, 37920, Note_on_c, 1, 77, 127
1, 37920, Note_on_c, 1, 72, 127
1, 37920, Note_on_c, 1, 69, 127
1, 37920, Note_on_c, 1, 58, 127
1, 37920, Note_on_c, 1, 46, 127
1, 37920, Note_on_c, 1, 64, 127
1, 37962, Note_off_c, 1, 60, 0
1, 37962, Note_off_c, 1, 77, 0
1, 37962, Note_off_c, 1, 69, 0
1, 37968, Note_on_c, 1, 76, 127
1, 37968, Note_on_c, 1, 67, 127
1, 38004, Note_off_c, 1, 72, 0
1, 38004, Note_off_c, 1, 58, 0
1, 38004, Note_off_c, 1, 46, 0
1, 38004, Note_off_c, 1, 64, 0
1, 38010, Note_off_c, 1, 76, 0
1, 38010, Note_off_c, 1, 67, 0
1, 38016, Note_on_c, 1, 60, 127
1, 38016, Note_on_c, 1, 77, 127
1, 38016, Note_on_c, 1, 72, 127
1, 38016, Note_on_c, 1, 69, 127
1, 38016, Note_on_c, 1, 57, 127
1, 38016, Note_on_c, 1, 45, 127
1, 38016, Note_on_c, 1, 65, 127
1, 38058, Note_off_c, 1, 60, 0
1, 38100, Note_off_c, 1, 77, 0
1, 38100, Note_off_c, 1, 72, 0
1, 38100, Note_off_c, 1, 69, 0
1, 38100, Note_off_c, 1, 57, 0
1, 38100, Note_off_c, 1, 45, 0
1, 38100, Note_off_c, 1, 65, 0
1, 38112, Note_on_c, 1, 60, 127
1, 38112, Note_on_c, 1, 79, 127
1, 38112, Note_on_c, 1, 76, 127
1, 38112, Note_on_c, 1, 70, 127
1, 38112, Note_on_c, 1, 55, 127
1, 38112, Note_on_c, 1, 43, 127
1, 38112, Note_on_c, 1, 64, 127
1, 38196, Note_off_c, 1, 60, 0
1, 38196, Note_off_c, 1, 79, 0
1, 38196, Note_off_c, 1, 76, 0
1, 38196, Note_off_c, 1, 70, 0
1, 38196, Note_off_c, 1, 55, 0
1, 38196, Note_off_c, 1, 43, 0
1, 38196, Note_off_c, 1, 64, 0
1, 38208, Note_on_c, 1, 60, 127
1, 38208, Note_on_c, 1, 82, 127
1, 38208, Note_on_c, 1, 79, 127
1, 38208, Note_on_c, 1, 67, 127
1, 38208, Note_on_c, 1, 53, 127
1, 38208, Note_on_c, 1, 41, 127
1, 38208, Note_on_c, 1, 62, 127
1, 38208, Note_on_c, 1, 70, 127
1, 38250, Note_off_c, 1, 60, 0
1, 38250, Note_off_c, 1, 53, 0
1, 38250, Note_off_c, 1, 41, 0
1, 38256, Note_on_c, 1, 52, 127
1, 38256, Note_on_c, 1, 40, 127
1, 38292, Note_off_c, 1, 82, 0
1, 38292, Note_off_c, 1, 79, 0
1, 38292, Note_off_c, 1, 67, 0
1, 38292, Note_off_c, 1, 62, 0
1, 38292, Note_off_c, 1, 70, 0
1, 38298, Note_off_c, 1, 52, 0
1, 38298, Note_off_c, 1, 40, 0
1, 38304, Note_on_c, 1, 60, 127
1, 38304, Note_on_c, 1, 81, 127
1, 38304, Note_on_c, 1, 77, 127
1, 38304, Note_on_c, 1, 72, 127
1, 38304, Note_on_c, 1, 53, 127
1, 38304, Note_on_c, 1, 41, 127
1, 38304, Note_on_c, 1, 69, 127
1, 38388, Note_off_c, 1, 81, 0
1, 38388, Note_off_c, 1, 77, 0
1, 38388, Note_off_c, 1, 72, 0
1, 38388, Note_off_c, 1, 53, 0
1, 38388, Note_off_c, 1, 41, 0
1, 38388, Note_off_c, 1, 69, 0
1, 38394, Note_off_c, 1, 60, 0
1, 38400, Note_on_c, 1, 60, 127
1, 38400, Note_on_c, 1, 81, 127
1, 38400, Note_on_c, 1, 79, 127
1, 38400, Note_on_c, 1, 72, 127
1, 38400, Note_on_c, 1, 52, 127
1, 38400, Note_on_c, 1, 40, 127
1, 38400, Note_on_c, 1, 67, 127
1, 38410, Note_off_c, 1, 81, 0
1, 38484, Note_off_c, 1, 60, 0
1, 38484, Note_off_c, 1, 52, 0
1, 38484, Note_off_c, 1, 40, 0
1, 38484, Note_off_c, 1, 67, 0
1, 38494, Note_off_c, 1, 79, 0
1, 38496, Note_on_c, 1, 77, 127
1, 38496, Note_on_c, 1, 53, 127
1, 38496, Note_on_c, 1, 41, 127
1, 38496, Note_on_c, 1, 65, 127
1, 38538, Note_off_c, 1, 53, 0
1, 38538, Note_off_c, 1, 41, 0
1, 38580, Note_off_c, 1, 72, 0
1, 38580, Note_off_c, 1, 77, 0
1, 38580, Note_off_c, 1, 65, 0
1, 38592, Note_on_c, 1, 60, 127
1, 38592, Note_on_c, 1, 84, 127
1, 38592, Note_on_c, 1, 76, 127
1, 38592, Note_on_c, 1, 67, 127
1, 38592, Note_on_c, 1, 50, 127
1, 38592, Note_on_c, 1, 38, 127
1, 38634, Note_off_c, 1, 60, 0
1, 38634, Note_off_c, 1, 50, 0
1, 38634, Note_off_c, 1, 38, 0
1, 38640, Note_on_c, 1, 48, 127
1, 38640, Note_on_c, 1, 36, 127
1, 38676, Note_off_c, 1, 84, 0
1, 38676, Note_off_c, 1, 76, 0
1, 38676, Note_off_c, 1, 67, 0
1, 38682, Note_off_c, 1, 48, 0
1, 38682, Note_off_c, 1, 36, 0
1, 38688, Note_on_c, 1, 67, 127
1, 38688, Note_on_c, 1, 77, 127
1, 38688, Note_on_c, 1, 74, 127
1, 38688, Note_on_c, 1, 48, 127
1, 38688, Note_on_c, 1, 36, 127
1, 38698, Note_off_c, 1, 36, 0
1, 38700, Note_on_c, 1, 47, 127
1, 38700, Note_on_c, 1, 35, 127
1, 38709, Note_off_c, 1, 48, 0
1, 38710, Note_off_c, 1, 47, 0
1, 38710, Note_off_c, 1, 35, 0
1, 38772, Note_off_c, 1, 77, 0
1, 38784, Note_on_c, 1, 62, 127
1, 38784, Note_on_c, 1, 71, 127
1, 38868, Note_off_c, 1, 74, 0
1, 38868, Note_off_c, 1, 62, 0
1, 38868, Note_off_c, 1, 71, 0
1, 38874, Note_off_c, 1, 67, 0
1, 38880, Note_on_c, 1, 67, 127
1, 38880, Note_on_c, 1, 76, 127
1, 38880, Note_on_c, 1, 72, 127
1, 38880, Note_on_c, 1, 48, 127
1, 38880, Note_on_c, 1, 36, 127
1, 38964, Note_off_c, 1, 76, 0
1, 38964, Note_off_c, 1, 72, 0
1, 38964, Note_off_c, 1, 48, 0
1, 38964, Note_off_c, 1, 36, 0
1, 38970, Note_off_c, 1, 67, 0
1, 38976, Note_on_c, 1, 67, 127
1, 38976, Note_on_c, 1, 77, 127
1, 38976, Note_on_c, 1, 71, 127
1, 38976, Note_on_c, 1, 62, 127
1, 38976, Note_on_c, 1, 50, 127
1, 38976, Note_on_c, 1, 38, 127
1, 39024, Note_on_c, 1, 72, 127
1, 39060, Note_off_c, 1, 67, 0
1, 39060, Note_off_c, 1, 77, 0
1, 39060, Note_off_c, 1, 71, 0
1, 39060, Note_off_c, 1, 62, 0
1, 39060, Note_off_c, 1, 50, 0
1, 39060, Note_off_c, 1, 38, 0
1, 39066, Note_off_c, 1, 72, 0
1, 39072, Note_on_c, 1, 67, 127
1, 39072, Note_on_c, 1, 81, 127
1, 39072, Note_on_c, 1, 74, 127
1, 39072, Note_on_c, 1, 64, 127
1, 39072, Note_on_c, 1, 48, 127
1, 39072, Note_on_c, 1, 36, 127
1, 39072, Note_on_c, 1, 69, 127
1, 39072, Note_on_c, 1, 76, 127
1, 39082, Note_off_c, 1, 74, 0
1, 39084, Note_on_c, 1, 72, 127
1, 39094, Note_off_c, 1, 72, 0
1, 39114, Note_off_c, 1, 67, 0
1, 39114, Note_off_c, 1, 48, 0
1, 39114, Note_off_c, 1, 36, 0
1, 39120, Note_on_c, 1, 47, 127
1, 39120, Note_on_c, 1, 35, 127
1, 39156, Note_off_c, 1, 64, 0
1, 39156, Note_off_c, 1, 69, 0
1, 39156, Note_off_c, 1, 76, 0
1, 39162, Note_off_c, 1, 47, 0
1, 39162, Note_off_c, 1, 35, 0
1, 39168, Note_on_c, 1, 60, 127
1, 39216, Note_on_c, 1, 71, 127
1, 39237, Note_off_c, 1, 71, 0
1, 39252, Note_off_c, 1, 81, 0
1, 39252, Note_off_c, 1, 60, 0
1, 39264, Note_on_c, 1, 67, 127
1, 39264, Note_on_c, 1, 77, 127
1, 39264, Note_on_c, 1, 74, 127
1, 39264, Note_on_c, 1, 47, 127
1, 39264, Note_on_c, 1, 35, 127
1, 39348, Note_off_c, 1, 77, 0
1, 39348, Note_off_c, 1, 74, 0
1, 39348, Note_off_c, 1, 47, 0
1, 39348, Note_off_c, 1, 35, 0
1, 39360, Note_on_c, 1, 76, 127
1, 39360, Note_on_c, 1, 72, 127
1, 39360, Note_on_c, 1, 48, 127
1, 39360, Note_on_c, 1, 36, 127
1, 39402, Note_off_c, 1, 48, 0
1, 39402, Note_off_c, 1, 36, 0
1, 39444, Note_off_c, 1, 76, 0
1, 39444, Note_off_c, 1, 72, 0
1, 39450, Note_off_c, 1, 67, 0
1, 39456, Note_on_c, 1, 67, 127
1, 39456, Note_on_c, 1, 79, 127
1, 39456, Note_on_c, 1, 71, 127
1, 39456, Note_on_c, 1, 45, 127
1, 39456, Note_on_c, 1, 33, 127
1, 39456, Note_on_c, 1, 62, 127
1, 39498, Note_off_c, 1, 45, 0
1, 39498, Note_off_c, 1, 33, 0
1, 39504, Note_on_c, 1, 43, 127
1, 39504, Note_on_c, 1, 31, 127
1, 39540, Note_off_c, 1, 79, 0
1, 39540, Note_off_c, 1, 71, 0
1, 39540, Note_off_c, 1, 62, 0
1, 39546, Note_off_c, 1, 67, 0
1, 39546, Note_off_c, 1, 43, 0
1, 39546, Note_off_c, 1, 31, 0
1, 39552, Note_on_c, 1, 67, 127
1, 39552, Note_on_c, 1, 76, 127
1, 39552, Note_on_c, 1, 72, 127
1, 39552, Note_on_c, 1, 48, 127
1, 39552, Note_on_c, 1, 36, 127
1, 39636, Note_off_c, 1, 48, 0
1, 39636, Note_off_c, 1, 36, 0
1, 39648, Note_on_c, 1, 46, 127
1, 39648, Note_on_c, 1, 34, 127
1, 39648, Note_on_c, 1, 65, 127
1, 39648, Note_on_c, 1, 74, 127
1, 39684, Note_off_c, 1, 76, 0
1, 39690, Note_off_c, 1, 46, 0
1, 39690, Note_off_c, 1, 34, 0
1, 39696, Note_on_c, 1, 77, 127
1, 39696, Note_on_c, 1, 45, 127
1, 39696, Note_on_c, 1, 33, 127
1, 39732, Note_off_c, 1, 65, 0
1, 39732, Note_off_c, 1, 74, 0
1, 39738, Note_off_c, 1, 77, 0
1, 39738, Note_off_c, 1, 45, 0
1, 39738, Note_off_c, 1, 33, 0
1, 39744, Note_on_c, 1, 79, 127
1, 39744, Note_on_c, 1, 43, 127
1, 39744, Note_on_c, 1, 31, 127
1, 39754, Note_off_c, 1, 79, 0
1, 39786, Note_off_c, 1, 43, 0
1, 39786, Note_off_c, 1, 31, 0
1, 39792, Note_on_c, 1, 41, 127
1, 39792, Note_on_c, 1, 29, 127
1, 39828, Note_off_c, 1, 72, 0
1, 39834, Note_off_c, 1, 67, 0
1, 39834, Note_off_c, 1, 41, 0
1, 39834, Note_off_c, 1, 29, 0
1, 39840, Note_on_c, 1, 72, 127
1, 39840, Note_on_c, 1, 67, 127
1, 39840, Note_on_c, 1, 79, 127
1, 39840, Note_on_c, 1, 40, 127
1, 39840, Note_on_c, 1, 28, 127
1, 39882, Note_off_c, 1, 79, 0
1, 39888, Note_on_c, 1, 81, 127
1, 39888, Note_on_c, 1, 65, 127
1, 39924, Note_off_c, 1, 67, 0
1, 39924, Note_off_c, 1, 40, 0
1, 39924, Note_off_c, 1, 28, 0
1, 39930, Note_off_c, 1, 81, 0
1, 39930, Note_off_c, 1, 65, 0
1, 39936, Note_on_c, 1, 82, 127
1, 39936, Note_on_c, 1, 41, 127
1, 39936, Note_on_c, 1, 29, 127
1, 39936, Note_on_c, 1, 60, 127
1, 39936, Note_on_c, 1, 69, 127
1, 39946, Note_off_c, 1, 82, 0
1, 39978, Note_off_c, 1, 41, 0
1, 39978, Note_off_c, 1, 29, 0
1, 40020, Note_off_c, 1, 60, 0
1, 40020, Note_off_c, 1, 69, 0
1, 40026, Note_off_c, 1, 72, 0
1, 40032, Note_on_c, 1, 72, 127
1, 40032, Note_on_c, 1, 82, 127
1, 40032, Note_on_c, 1, 77, 127
1, 40032, Note_on_c, 1, 67, 127
1, 40032, Note_on_c, 1, 38, 127
1, 40032, Note_on_c, 1, 26, 127
1, 40032, Note_on_c, 1, 69, 127
1, 40042, Note_off_c, 1, 82, 0
1, 40042, Note_off_c, 1, 67, 0
1, 40044, Note_on_c, 1, 81, 127
1, 40044, Note_on_c, 1, 65, 127
1, 40054, Note_off_c, 1, 81, 0
1, 40054, Note_off_c, 1, 65, 0
1, 40074, Note_off_c, 1, 72, 0
1, 40074, Note_off_c, 1, 38, 0
1, 40074, Note_off_c, 1, 26, 0
1, 40080, Note_on_c, 1, 79, 127
1, 40080, Note_on_c, 1, 64, 127
1, 40080, Note_on_c, 1, 40, 127
1, 40080, Note_on_c, 1, 28, 127
1, 40101, Note_off_c, 1, 79, 0
1, 40101, Note_off_c, 1, 64, 0
1, 40116, Note_off_c, 1, 77, 0
1, 40116, Note_off_c, 1, 69, 0
1, 40122, Note_off_c, 1, 40, 0
1, 40122, Note_off_c, 1, 28, 0
1, 40128, Note_on_c, 1, 72, 127
1, 40128, Note_on_c, 1, 67, 127
1, 40128, Note_on_c, 1, 82, 127
1, 40128, Note_on_c, 1, 76, 127
1, 40128, Note_on_c, 1, 36, 127
1, 40128, Note_on_c, 1, 24, 127
1, 40212, Note_off_c, 1, 67, 0
1, 40212, Note_off_c, 1, 82, 0
1, 40212, Note_off_c, 1, 76, 0
1, 40212, Note_off_c, 1, 36, 0
1, 40212, Note_off_c, 1, 24, 0
1, 40224, Note_on_c, 1, 60, 127
1, 40224, Note_on_c, 1, 81, 127
1, 40224, Note_on_c, 1, 79, 127
1, 40224, Note_on_c, 1, 48, 127
1, 40224, Note_on_c, 1, 77, 127
1, 40224, Note_on_c, 1, 69, 127
1, 40234, Note_off_c, 1, 79, 0
1, 40266, Note_off_c, 1, 60, 0
1, 40266, Note_off_c, 1, 81, 0
1, 40266, Note_off_c, 1, 48, 0
1, 40272, Note_on_c, 1, 50, 127
1, 40272, Note_on_c, 1, 38, 127
1, 40308, Note_off_c, 1, 72, 0
1, 40308, Note_off_c, 1, 69, 0
1, 40314, Note_off_c, 1, 50, 0
1, 40314, Note_off_c, 1, 38, 0
1, 40318, Note_off_c, 1, 77, 0
1, 40320, Note_on_c, 1, 70, 127
1, 40320, Note_on_c, 1, 60, 127
1, 40320, Note_on_c, 1, 84, 127
1, 40320, Note_on_c, 1, 79, 127
1, 40320, Note_on_c, 1, 64, 127
1, 40320, Note_on_c, 1, 52, 127
1, 40320, Note_on_c, 1, 40, 127
1, 40320, Note_on_c, 1, 72, 127
1, 40362, Note_off_c, 1, 60, 0
1, 40362, Note_off_c, 1, 52, 0
1, 40362, Note_off_c, 1, 40, 0
1, 40368, Note_on_c, 1, 48, 127
1, 40368, Note_on_c, 1, 36, 127
1, 40404, Note_off_c, 1, 70, 0
1, 40404, Note_off_c, 1, 84, 0
1, 40404, Note_off_c, 1, 79, 0
1, 40404, Note_off_c, 1, 64, 0
1, 40404, Note_off_c, 1, 72, 0
1, 40410, Note_off_c, 1, 48, 0
1, 40410, Note_off_c, 1, 36, 0
1, 40416, Note_on_c, 1, 69, 127
1, 40416, Note_on_c, 1, 65, 127
1, 40416, Note_on_c, 1, 77, 127
1, 40416, Note_on_c, 1, 74, 127
1, 40416, Note_on_c, 1, 50, 127
1, 40416, Note_on_c, 1, 38, 127
1, 40458, Note_off_c, 1, 50, 0
1, 40458, Note_off_c, 1, 38, 0
1, 40464, Note_on_c, 1, 79, 127
1, 40464, Note_on_c, 1, 70, 127
1, 40464, Note_on_c, 1, 46, 127
1, 40464, Note_on_c, 1, 34, 127
1, 40500, Note_off_c, 1, 69, 0
1, 40500, Note_off_c, 1, 65, 0
1, 40500, Note_off_c, 1, 77, 0
1, 40500, Note_off_c, 1, 74, 0
1, 40506, Note_off_c, 1, 79, 0
1, 40506, Note_off_c, 1, 70, 0
1, 40506, Note_off_c, 1, 46, 0
1, 40506, Note_off_c, 1, 34, 0
1, 40512, Note_on_c, 1, 70, 127
1, 40512, Note_on_c, 1, 60, 127
1, 40512, Note_on_c, 1, 76, 127
1, 40512, Note_on_c, 1, 74, 127
1, 40512, Note_on_c, 1, 67, 127
1, 40512, Note_on_c, 1, 48, 127
1, 40512, Note_on_c, 1, 36, 127
1, 40522, Note_off_c, 1, 74, 0
1, 40524, Note_on_c, 1, 72, 127
1, 40524, Note_on_c, 1, 65, 127
1, 40534, Note_off_c, 1, 72, 0
1, 40534, Note_off_c, 1, 65, 0
1, 40554, Note_off_c, 1, 70, 0
1, 40554, Note_off_c, 1, 60, 0
1, 40560, Note_on_c, 1, 69, 127
1, 40596, Note_off_c, 1, 48, 0
1, 40596, Note_off_c, 1, 36, 0
1, 40602, Note_off_c, 1, 69, 0
1, 40608, Note_on_c, 1, 24, 127
1, 40608, Note_on_c, 1, 64, 127
1, 40644, Note_off_c, 1, 76, 0
1, 40656, Note_on_c, 1, 77, 127
1, 40692, Note_off_c, 1, 67, 0
1, 40692, Note_off_c, 1, 24, 0
1, 40692, Note_off_c, 1, 64, 0
1, 40698, Note_off_c, 1, 77, 0
1, 40704, Note_on_c, 1, 65, 127
1, 40704, Note_on_c, 1, 57, 127
1, 40704, Note_on_c, 1, 77, 127
1, 40704, Note_on_c, 1, 72, 127
1, 40704, Note_on_c, 1, 69, 127
1, 40704, Note_on_c, 1, 41, 127
1, 40704, Note_on_c, 1, 29, 127
1, 40704, Note_on_c, 1, 60, 127
1, 40746, Note_off_c, 1, 41, 0
1, 40746, Note_off_c, 1, 29, 0
1, 40752, Note_on_c, 1, 43, 127
1, 40752, Note_on_c, 1, 31, 127
1, 40794, Note_off_c, 1, 43, 0
1, 40794, Note_off_c, 1, 31, 0
1, 40800, Note_on_c, 1, 45, 127
1, 40800, Note_on_c, 1, 33, 127
1, 40842, Note_off_c, 1, 45, 0
1, 40842, Note_off_c, 1, 33, 0
1, 40848, Note_on_c, 1, 46, 127
1, 40848, Note_on_c, 1, 34, 127
1, 40890, Note_off_c, 1, 46, 0
1, 40890, Note_off_c, 1, 34, 0
1, 40896, Note_on_c, 1, 48, 127
1, 40896, Note_on_c, 1, 36, 127
1, 40938, Note_off_c, 1, 48, 0
1, 40938, Note_off_c, 1, 36, 0
1, 40944, Note_on_c, 1, 50, 127
1, 40944, Note_on_c, 1, 38, 127
1, 40980, Note_off_c, 1, 65, 0
1, 40980, Note_off_c, 1, 57, 0
1, 40980, Note_off_c, 1, 77, 0
1, 40980, Note_off_c, 1, 72, 0
1, 40980, Note_off_c, 1, 69, 0
1, 40980, Note_off_c, 1, 60, 0
1, 40986, Note_off_c, 1, 50, 0
1, 40986, Note_off_c, 1, 38, 0
1, 40992, Note_on_c, 1, 60, 127
1, 40992, Note_on_c, 1, 79, 127
1, 40992, Note_on_c, 1, 72, 127
1, 40992, Note_on_c, 1, 67, 127
1, 40992, Note_on_c, 1, 52, 127
1, 40992, Note_on_c, 1, 40, 127
1, 41076, Note_off_c, 1, 60, 0
1, 41076, Note_off_c, 1, 79, 0
1, 41076, Note_off_c, 1, 72, 0
1, 41088, Note_on_c, 1, 82, 127
1, 41088, Note_on_c, 1, 70, 127
1, 41172, Note_off_c, 1, 67, 0
1, 41172, Note_off_c, 1, 52, 0
1, 41172, Note_off_c, 1, 40, 0
1, 41172, Note_off_c, 1, 82, 0
1, 41172, Note_off_c, 1, 70, 0
1, 41184, Note_on_c, 1, 60, 127
1, 41184, Note_on_c, 1, 81, 127
1, 41184, Note_on_c, 1, 77, 127
1, 41184, Note_on_c, 1, 72, 127
1, 41184, Note_on_c, 1, 53, 127
1, 41184, Note_on_c, 1, 41, 127
1, 41184, Note_on_c, 1, 69, 127
1, 41268, Note_off_c, 1, 81, 0
1, 41268, Note_off_c, 1, 77, 0
1, 41268, Note_off_c, 1, 72, 0
1, 41268, Note_off_c, 1, 53, 0
1, 41268, Note_off_c, 1, 41, 0
1, 41268, Note_off_c, 1, 69, 0
1, 41274, Note_off_c, 1, 60, 0
1, 41280, Note_on_c, 1, 60, 127
1, 41280, Note_on_c, 1, 79, 127
1, 41280, Note_on_c, 1, 76, 127
1, 41280, Note_on_c, 1, 70, 127
1, 41280, Note_on_c, 1, 55, 127
1, 41280, Note_on_c, 1, 81, 127
1, 41280, Note_on_c, 1, 43, 127
1, 41280, Note_on_c, 1, 64, 127
1, 41280, Note_on_c, 1, 72, 127
1, 41290, Note_off_c, 1, 81, 0
1, 41290, Note_off_c, 1, 72, 0
1, 41364, Note_off_c, 1, 60, 0
1, 41364, Note_off_c, 1, 76, 0
1, 41364, Note_off_c, 1, 55, 0
1, 41364, Note_off_c, 1, 43, 0
1, 41364, Note_off_c, 1, 64, 0
1, 41374, Note_off_c, 1, 79, 0
1, 41374, Note_off_c, 1, 70, 0
1, 41376, Note_on_c, 1, 60, 127
1, 41376, Note_on_c, 1, 77, 127
1, 41376, Note_on_c, 1, 72, 127
1, 41376, Note_on_c, 1, 69, 127
1, 41376, Note_on_c, 1, 58, 127
1, 41376, Note_on_c, 1, 46, 127
1, 41376, Note_on_c, 1, 64, 127
1, 41418, Note_off_c, 1, 60, 0
1, 41418, Note_off_c, 1, 77, 0
1, 41418, Note_off_c, 1, 69, 0
1, 41424, Note_on_c, 1, 76, 127
1, 41424, Note_on_c, 1, 67, 127
1, 41460, Note_off_c, 1, 72, 0
1, 41460, Note_off_c, 1, 58, 0
1, 41460, Note_off_c, 1, 46, 0
1, 41460, Note_off_c, 1, 64, 0
1, 41466, Note_off_c, 1, 76, 0
1, 41466, Note_off_c, 1, 67, 0
1, 41472, Note_on_c, 1, 60, 127
1, 41472, Note_on_c, 1, 77, 127
1, 41472, Note_on_c, 1, 72, 127
1, 41472, Note_on_c, 1, 69, 127
1, 41472, Note_on_c, 1, 57, 127
1, 41472, Note_on_c, 1, 45, 127
1, 41472, Note_on_c, 1, 65, 127
1, 41514, Note_off_c, 1, 60, 0
1, 41556, Note_off_c, 1, 77, 0
1, 41556, Note_off_c, 1, 72, 0
1, 41556, Note_off_c, 1, 69, 0
1, 41556, Note_off_c, 1, 57, 0
1, 41556, Note_off_c, 1, 45, 0
1, 41556, Note_off_c, 1, 65, 0
1, 41568, Note_on_c, 1, 60, 127
1, 41568, Note_on_c, 1, 79, 127
1, 41568, Note_on_c, 1, 76, 127
1, 41568, Note_on_c, 1, 70, 127
1, 41568, Note_on_c, 1, 55, 127
1, 41568, Note_on_c, 1, 43, 127
1, 41568, Note_on_c, 1, 64, 127
1, 41652, Note_off_c, 1, 60, 0
1, 41652, Note_off_c, 1, 79, 0
1, 41652, Note_off_c, 1, 76, 0
1, 41652, Note_off_c, 1, 70, 0
1, 41652, Note_off_c, 1, 55, 0
1, 41652, Note_off_c, 1, 43, 0
1, 41652, Note_off_c, 1, 64, 0
1, 41664, Note_on_c, 1, 60, 127
1, 41664, Note_on_c, 1, 82, 127
1, 41664, Note_on_c, 1, 79, 127
1, 41664, Note_on_c, 1, 67, 127
1, 41664, Note_on_c, 1, 53, 127
1, 41664, Note_on_c, 1, 41, 127
1, 41664, Note_on_c, 1, 62, 127
1, 41664, Note_on_c, 1, 70, 127
1, 41706, Note_off_c, 1, 60, 0
1, 41706, Note_off_c, 1, 53, 0
1, 41706, Note_off_c, 1, 41, 0
1, 41712, Note_on_c, 1, 52, 127
1, 41712, Note_on_c, 1, 40, 127
1, 41748, Note_off_c, 1, 82, 0
1, 41748, Note_off_c, 1, 79, 0
1, 41748, Note_off_c, 1, 67, 0
1, 41748, Note_off_c, 1, 62, 0
1, 41748, Note_off_c, 1, 70, 0
1, 41754, Note_off_c, 1, 52, 0
1, 41754, Note_off_c, 1, 40, 0
1, 41760, Note_on_c, 1, 60, 127
1, 41760, Note_on_c, 1, 81, 127
1, 41760, Note_on_c, 1, 77, 127
1, 41760, Note_on_c, 1, 72, 127
1, 41760, Note_on_c, 1, 53, 127
1, 41760, Note_on_c, 1, 41, 127
1, 41760, Note_on_c, 1, 69, 127
1, 41844, Note_off_c, 1, 81, 0
1, 41844, Note_off_c, 1, 77, 0
1, 41844, Note_off_c, 1, 72, 0
1, 41844, Note_off_c, 1, 53, 0
1, 41844, Note_off_c, 1, 41, 0
1, 41844, Note_off_c, 1, 69, 0
1, 41850, Note_off_c, 1, 60, 0
1, 41856, Note_on_c, 1, 60, 127
1, 41856, Note_on_c, 1, 81, 127
1, 41856, Note_on_c, 1, 79, 127
1, 41856, Note_on_c, 1, 72, 127
1, 41856, Note_on_c, 1, 52, 127
1, 41856, Note_on_c, 1, 40, 127
1, 41856, Note_on_c, 1, 67, 127
1, 41866, Note_off_c, 1, 81, 0
1, 41940, Note_off_c, 1, 60, 0
1, 41940, Note_off_c, 1, 52, 0
1, 41940, Note_off_c, 1, 40, 0
1, 41940, Note_off_c, 1, 67, 0
1, 41950, Note_off_c, 1, 79, 0
1, 41952, Note_on_c, 1, 77, 127
1, 41952, Note_on_c, 1, 53, 127
1, 41952, Note_on_c, 1, 41, 127
1, 41952, Note_on_c, 1, 65, 127
1, 41994, Note_off_c, 1, 53, 0
1, 41994, Note_off_c, 1, 41, 0
1, 42036, Note_off_c, 1, 72, 0
1, 42036, Note_off_c, 1, 77, 0
1, 42036, Note_off_c, 1, 65, 0
1, 42048, Note_on_c, 1, 60, 127
1, 42048, Note_on_c, 1, 84, 127
1, 42048, Note_on_c, 1, 76, 127
1, 42048, Note_on_c, 1, 67, 127
1, 42048, Note_on_c, 1, 50, 127
1, 42048, Note_on_c, 1, 38, 127
1, 42090, Note_off_c, 1, 60, 0
1, 42090, Note_off_c, 1, 50, 0
1, 42090, Note_off_c, 1, 38, 0
1, 42096, Note_on_c, 1, 48, 127
1, 42096, Note_on_c, 1, 36, 127
1, 42132, Note_off_c, 1, 84, 0
1, 42132, Note_off_c, 1, 76, 0
1, 42132, Note_off_c, 1, 67, 0
1, 42138, Note_off_c, 1, 48, 0
1, 42138, Note_off_c, 1, 36, 0
1, 42144, Note_on_c, 1, 67, 127
1, 42144, Note_on_c, 1, 77, 127
1, 42144, Note_on_c, 1, 74, 127
1, 42144, Note_on_c, 1, 48, 127
1, 42144, Note_on_c, 1, 36, 127
1, 42154, Note_off_c, 1, 36, 0
1, 42156, Note_on_c, 1, 47, 127
1, 42156, Note_on_c, 1, 35, 127
1, 42165, Note_off_c, 1, 48, 0
1, 42166, Note_off_c, 1, 47, 0
1, 42166, Note_off_c, 1, 35, 0
1, 42228, Note_off_c, 1, 77, 0
1, 42240, Note_on_c, 1, 62, 127
1, 42240, Note_on_c, 1, 71, 127
1, 42324, Note_off_c, 1, 74, 0
1, 42324, Note_off_c, 1, 62, 0
1, 42324, Note_off_c, 1, 71, 0
1, 42330, Note_off_c, 1, 67, 0
1, 42336, Note_on_c, 1, 67, 127
1, 42336, Note_on_c, 1, 76, 127
1, 42336, Note_on_c, 1, 72, 127
1, 42336, Note_on_c, 1, 48, 127
1, 42336, Note_on_c, 1, 36, 127
1, 42420, Note_off_c, 1, 76, 0
1, 42420, Note_off_c, 1, 72, 0
1, 42420, Note_off_c, 1, 48, 0
1, 42420, Note_off_c, 1, 36, 0
1, 42426, Note_off_c, 1, 67, 0
1, 42432, Note_on_c, 1, 67, 127
1, 42432, Note_on_c, 1, 77, 127
1, 42432, Note_on_c, 1, 71, 127
1, 42432, Note_on_c, 1, 62, 127
1, 42432, Note_on_c, 1, 50, 127
1, 42432, Note_on_c, 1, 38, 127
1, 42480, Note_on_c, 1, 72, 127
1, 42516, Note_off_c, 1, 67, 0
1, 42516, Note_off_c, 1, 77, 0
1, 42516, Note_off_c, 1, 71, 0
1, 42516, Note_off_c, 1, 62, 0
1, 42516, Note_off_c, 1, 50, 0
1, 42516, Note_off_c, 1, 38, 0
1, 42522, Note_off_c, 1, 72, 0
1, 42528, Note_on_c, 1, 67, 127
1, 42528, Note_on_c, 1, 81, 127
1, 42528, Note_on_c, 1, 74, 127
1, 42528, Note_on_c, 1, 64, 127
1, 42528, Note_on_c, 1, 48, 127
1, 42528, Note_on_c, 1, 36, 127
1, 42528, Note_on_c, 1, 69, 127
1, 42528, Note_on_c, 1, 76, 127
1, 42538, Note_off_c, 1, 74, 0
1, 42540, Note_on_c, 1, 72, 127
1, 42550, Note_off_c, 1, 72, 0
1, 42570, Note_off_c, 1, 67, 0
1, 42570, Note_off_c, 1, 48, 0
1, 42570, Note_off_c, 1, 36, 0
1, 42576, Note_on_c, 1, 47, 127
1, 42576, Note_on_c, 1, 35, 127
1, 42612, Note_off_c, 1, 64, 0
1, 42612, Note_off_c, 1, 69, 0
1, 42612, Note_off_c, 1, 76, 0
1, 42618, Note_off_c, 1, 47, 0
1, 42618, Note_off_c, 1, 35, 0
1, 42624, Note_on_c, 1, 60, 127
1, 42672, Note_on_c, 1, 71, 127
1, 42693, Note_off_c, 1, 71, 0
1, 42708, Note_off_c, 1, 81, 0
1, 42708, Note_off_c, 1, 60, 0
1, 42720, Note_on_c, 1, 67, 127
1, 42720, Note_on_c, 1, 77, 127
1, 42720, Note_on_c, 1, 74, 127
1, 42720, Note_on_c, 1, 47, 127
1, 42720, Note_on_c, 1, 35, 127
1, 42804, Note_off_c, 1, 77, 0
1, 42804, Note_off_c, 1, 74, 0
1, 42804, Note_off_c, 1, 47, 0
1, 42804, Note_off_c, 1, 35, 0
1, 42816, Note_on_c, 1, 76, 127
1, 42816, Note_on_c, 1, 72, 127
1, 42816, Note_on_c, 1, 48, 127
1, 42816, Note_on_c, 1, 36, 127
1, 42858, Note_off_c, 1, 48, 0
1, 42858, Note_off_c, 1, 36, 0
1, 42900, Note_off_c, 1, 76, 0
1, 42900, Note_off_c, 1, 72, 0
1, 42906, Note_off_c, 1, 67, 0
1, 42912, Note_on_c, 1, 67, 127
1, 42912, Note_on_c, 1, 79, 127
1, 42912, Note_on_c, 1, 71, 127
1, 42912, Note_on_c, 1, 45, 127
1, 42912, Note_on_c, 1, 33, 127
1, 42912, Note_on_c, 1, 62, 127
1, 42954, Note_off_c, 1, 45, 0
1, 42954, Note_off_c, 1, 33, 0
1, 42960, Note_on_c, 1, 43, 127
1, 42960, Note_on_c, 1, 31, 127
1, 42996, Note_off_c, 1, 79, 0
1, 42996, Note_off_c, 1, 71, 0
1, 42996, Note_off_c, 1, 62, 0
1, 43002, Note_off_c, 1, 67, 0
1, 43002, Note_off_c, 1, 43, 0
1, 43002, Note_off_c, 1, 31, 0
1, 43008, Note_on_c, 1, 67, 127
1, 43008, Note_on_c, 1, 76, 127
1, 43008, Note_on_c, 1, 72, 127
1, 43008, Note_on_c, 1, 48, 127
1, 43008, Note_on_c, 1, 36, 127
1, 43092, Note_off_c, 1, 48, 0
1, 43092, Note_off_c, 1, 36, 0
1, 43104, Note_on_c, 1, 46, 127
1, 43104, Note_on_c, 1, 34, 127
1, 43104, Note_on_c, 1, 65, 127
1, 43104, Note_on_c, 1, 74, 127
1, 43140, Note_off_c, 1, 76, 0
1, 43146, Note_off_c, 1, 46, 0
1, 43146, Note_off_c, 1, 34, 0
1, 43152, Note_on_c, 1, 77, 127
1, 43152, Note_on_c, 1, 45, 127
1, 43152, Note_on_c, 1, 33, 127
1, 43188, Note_off_c, 1, 65, 0
1, 43188, Note_off_c, 1, 74, 0
1, 43194, Note_off_c, 1, 77, 0
1, 43194, Note_off_c, 1, 45, 0
1, 43194, Note_off_c, 1, 33, 0
1, 43200, Note_on_c, 1, 79, 127
1, 43200, Note_on_c, 1, 43, 127
1, 43200, Note_on_c, 1, 31, 127
1, 43210, Note_off_c, 1, 79, 0
1, 43242, Note_off_c, 1, 43, 0
1, 43242, Note_off_c, 1, 31, 0
1, 43248, Note_on_c, 1, 41, 127
1, 43248, Note_on_c, 1, 29, 127
1, 43284, Note_off_c, 1, 72, 0
1, 43290, Note_off_c, 1, 67, 0
1, 43290, Note_off_c, 1, 41, 0
1, 43290, Note_off_c, 1, 29, 0
1, 43296, Note_on_c, 1, 72, 127
1, 43296, Note_on_c, 1, 67, 127
1, 43296, Note_on_c, 1, 79, 127
1, 43296, Note_on_c, 1, 40, 127
1, 43296, Note_on_c, 1, 28, 127
1, 43338, Note_off_c, 1, 79, 0
1, 43344, Note_on_c, 1, 81, 127
1, 43344, Note_on_c, 1, 65, 127
1, 43380, Note_off_c, 1, 67, 0
1, 43380, Note_off_c, 1, 40, 0
1, 43380, Note_off_c, 1, 28, 0
1, 43386, Note_off_c, 1, 81, 0
1, 43386, Note_off_c, 1, 65, 0
1, 43392, Note_on_c, 1, 82, 127
1, 43392, Note_on_c, 1, 41, 127
1, 43392, Note_on_c, 1, 29, 127
1, 43392, Note_on_c, 1, 60, 127
1, 43392, Note_on_c, 1, 69, 127
1, 43402, Note_off_c, 1, 82, 0
1, 43434, Note_off_c, 1, 41, 0
1, 43434, Note_off_c, 1, 29, 0
1, 43476, Note_off_c, 1, 60, 0
1, 43476, Note_off_c, 1, 69, 0
1, 43482, Note_off_c, 1, 72, 0
1, 43488, Note_on_c, 1, 72, 127
1, 43488, Note_on_c, 1, 82, 127
1, 43488, Note_on_c, 1, 77, 127
1, 43488, Note_on_c, 1, 67, 127
1, 43488, Note_on_c, 1, 38, 127
1, 43488, Note_on_c, 1, 26, 127
1, 43488, Note_on_c, 1, 69, 127
1, 43498, Note_off_c, 1, 82, 0
1, 43498, Note_off_c, 1, 67, 0
1, 43500, Note_on_c, 1, 81, 127
1, 43500, Note_on_c, 1, 65, 127
1, 43510, Note_off_c, 1, 81, 0
1, 43510, Note_off_c, 1, 65, 0
1, 43530, Note_off_c, 1, 72, 0
1, 43530, Note_off_c, 1, 38, 0
1, 43530, Note_off_c, 1, 26, 0
1, 43536, Note_on_c, 1, 79, 127
1, 43536, Note_on_c, 1, 64, 127
1, 43536, Note_on_c, 1, 40, 127
1, 43536, Note_on_c, 1, 28, 127
1, 43557, Note_off_c, 1, 79, 0
1, 43557, Note_off_c, 1, 64, 0
1, 43572, Note_off_c, 1, 77, 0
1, 43572, Note_off_c, 1, 69, 0
1, 43578, Note_off_c, 1, 40, 0
1, 43578, Note_off_c, 1, 28, 0
1, 43584, Note_on_c, 1, 72, 127
1, 43584, Note_on_c, 1, 67, 127
1, 43584, Note_on_c, 1, 82, 127
1, 43584, Note_on_c, 1, 76, 127
1, 43584, Note_on_c, 1, 36, 127
1, 43584, Note_on_c, 1, 24, 127
1, 43668, Note_off_c, 1, 67, 0
1, 43668, Note_off_c, 1, 82, 0
1, 43668, Note_off_c, 1, 76, 0
1, 43668, Note_off_c, 1, 36, 0
1, 43668, Note_off_c, 1, 24, 0
1, 43680, Note_on_c, 1, 60, 127
1, 43680, Note_on_c, 1, 81, 127
1, 43680, Note_on_c, 1, 79, 127
1, 43680, Note_on_c, 1, 48, 127
1, 43680, Note_on_c, 1, 77, 127
1, 43680, Note_on_c, 1, 69, 127
1, 43690, Note_off_c, 1, 79, 0
1, 43722, Note_off_c, 1, 60, 0
1, 43722, Note_off_c, 1, 81, 0
1, 43722, Note_off_c, 1, 48, 0
1, 43728, Note_on_c, 1, 50, 127
1, 43728, Note_on_c, 1, 38, 127
1, 43764, Note_off_c, 1, 72, 0
1, 43764, Note_off_c, 1, 69, 0
1, 43770, Note_off_c, 1, 50, 0
1, 43770, Note_off_c, 1, 38, 0
1, 43774, Note_off_c, 1, 77, 0
1, 43776, Note_on_c, 1, 70, 127
1, 43776, Note_on_c, 1, 60, 127
1, 43776, Note_on_c, 1, 84, 127
1, 43776, Note_on_c, 1, 79, 127
1, 43776, Note_on_c, 1, 64, 127
1, 43776, Note_on_c, 1, 52, 127
1, 43776, Note_on_c, 1, 40, 127
1, 43776, Note_on_c, 1, 72, 127
1, 43818, Note_off_c, 1, 60, 0
1, 43818, Note_off_c, 1, 52, 0
1, 43818, Note_off_c, 1, 40, 0
1, 43824, Note_on_c, 1, 48, 127
1, 43824, Note_on_c, 1, 36, 127
1, 43860, Note_off_c, 1, 70, 0
1, 43860, Note_off_c, 1, 84, 0
1, 43860, Note_off_c, 1, 79, 0
1, 43860, Note_off_c, 1, 64, 0
1, 43860, Note_off_c, 1, 72, 0
1, 43866, Note_off_c, 1, 48, 0
1, 43866, Note_off_c, 1, 36, 0
1, 43872, Note_on_c, 1, 69, 127
1, 43872, Note_on_c, 1, 65, 127
1, 43872, Note_on_c, 1, 77, 127
1, 43872, Note_on_c, 1, 74, 127
1, 43872, Note_on_c, 1, 50, 127
1, 43872, Note_on_c, 1, 38, 127
1, 43914, Note_off_c, 1, 50, 0
1, 43914, Note_off_c, 1, 38, 0
1, 43920, Note_on_c, 1, 79, 127
1, 43920, Note_on_c, 1, 70, 127
1, 43920, Note_on_c, 1, 46, 127
1, 43920, Note_on_c, 1, 34, 127
1, 43956, Note_off_c, 1, 69, 0
1, 43956, Note_off_c, 1, 65, 0
1, 43956, Note_off_c, 1, 77, 0
1, 43956, Note_off_c, 1, 74, 0
1, 43962, Note_off_c, 1, 79, 0
1, 43962, Note_off_c, 1, 70, 0
1, 43962, Note_off_c, 1, 46, 0
1, 43962, Note_off_c, 1, 34, 0
1, 43968, Note_on_c, 1, 70, 127
1, 43968, Note_on_c, 1, 60, 127
1, 43968, Note_on_c, 1, 76, 127
1, 43968, Note_on_c, 1, 74, 127
1, 43968, Note_on_c, 1, 67, 127
1, 43968, Note_on_c, 1, 48, 127
1, 43968, Note_on_c, 1, 36, 127
1, 43978, Note_off_c, 1, 74, 0
1, 43980, Note_on_c, 1, 72, 127
1, 43980, Note_on_c, 1, 65, 127
1, 43990, Note_off_c, 1, 72, 0
1, 43990, Note_off_c, 1, 65, 0
1, 44010, Note_off_c, 1, 70, 0
1, 44010, Note_off_c, 1, 60, 0
1, 44016, Note_on_c, 1, 69, 127
1, 44052, Note_off_c, 1, 48, 0
1, 44052, Note_off_c, 1, 36, 0
1, 44058, Note_off_c, 1, 69, 0
1, 44064, Note_on_c, 1, 24, 127
1, 44064, Note_on_c, 1, 64, 127
1, 44100, Note_off_c, 1, 76, 0
1, 44112, Note_on_c, 1, 77, 127
1, 44148, Note_off_c, 1, 67, 0
1, 44148, Note_off_c, 1, 24, 0
1, 44148, Note_off_c, 1, 64, 0
1, 44154, Note_off_c, 1, 77, 0
1, 44160, Note_on_c, 1, 65, 127
1, 44160, Note_on_c, 1, 57, 127
1, 44160, Note_on_c, 1, 77, 127
1, 44160, Note_on_c, 1, 72, 127
1, 44160, Note_on_c, 1, 69, 127
1, 44160, Note_on_c, 1, 41, 127
1, 44160, Note_on_c, 1, 29, 127
1, 44160, Note_on_c, 1, 60, 127
1, 44436, Note_off_c, 1, 65, 0
1, 44436, Note_off_c, 1, 57, 0
1, 44436, Note_off_c, 1, 77, 0
1, 44436, Note_off_c, 1, 72, 0
1, 44436, Note_off_c, 1, 69, 0
1, 44436, Note_off_c, 1, 41, 0
1, 44436, Note_off_c, 1, 29, 0
1, 44436, Note_off_c, 1, 60, 0
1, 44832, Note_on_c, 1, 60, 127
1, 44832, Note_on_c, 1, 57, 127
1, 44832, Note_on_c, 1, 69, 127
1, 44832, Note_on_c, 1, 41, 127
1, 44832, Note_on_c, 1, 53, 127
1, 44874, Note_off_c, 1, 60, 0
1, 44874, Note_off_c, 1, 57, 0
1, 44874, Note_off_c, 1, 69, 0
1, 44874, Note_off_c, 1, 41, 0
1, 44874, Note_off_c, 1, 53, 0
1, 44880, Note_on_c, 1, 65, 127
1, 44880, Note_on_c, 1, 60, 127
1, 44880, Note_on_c, 1, 69, 127
1, 44880, Note_on_c, 1, 41, 127
1, 44880, Note_on_c, 1, 57, 127
1, 44901, Note_off_c, 1, 65, 0
1, 44922, Note_off_c, 1, 60, 0
1, 44922, Note_off_c, 1, 41, 0
1, 44922, Note_off_c, 1, 57, 0
1, 44925, Note_off_c, 1, 69, 0
1, 44928, Note_on_c, 1, 67, 127
1, 44928, Note_on_c, 1, 64, 127
1, 44928, Note_on_c, 1, 58, 127
1, 44928, Note_on_c, 1, 41, 127
1, 44970, Note_off_c, 1, 67, 0
1, 44970, Note_off_c, 1, 58, 0
1, 44970, Note_off_c, 1, 41, 0
1, 44973, Note_off_c, 1, 64, 0
1, 44976, Note_on_c, 1, 65, 127
1, 44976, Note_on_c, 1, 60, 127
1, 44976, Note_on_c, 1, 69, 127
1, 44976, Note_on_c, 1, 41, 127
1, 44976, Note_on_c, 1, 57, 127
1, 44997, Note_off_c, 1, 65, 0
1, 45018, Note_off_c, 1, 69, 0
1, 45018, Note_off_c, 1, 41, 0
1, 45018, Note_off_c, 1, 57, 0
1, 45021, Note_off_c, 1, 60, 0
1, 45024, Note_on_c, 1, 67, 127
1, 45024, Note_on_c, 1, 64, 127
1, 45024, Note_on_c, 1, 58, 127
1, 45024, Note_on_c, 1, 41, 127
1, 45048, Note_on_c, 1, 70, 127
1, 45066, Note_off_c, 1, 67, 0
1, 45066, Note_off_c, 1, 64, 0
1, 45066, Note_off_c, 1, 58, 0
1, 45066, Note_off_c, 1, 41, 0
1, 45069, Note_off_c, 1, 70, 0
1, 45072, Note_on_c, 1, 69, 127
1, 45072, Note_on_c, 1, 65, 127
1, 45072, Note_on_c, 1, 60, 127
1, 45072, Note_on_c, 1, 41, 127
1, 45114, Note_off_c, 1, 69, 0
1, 45114, Note_off_c, 1, 60, 0
1, 45114, Note_off_c, 1, 41, 0
1, 45117, Note_off_c, 1, 65, 0
1, 45120, Note_on_c, 1, 67, 127
1, 45120, Note_on_c, 1, 64, 127
1, 45120, Note_on_c, 1, 58, 127
1, 45120, Note_on_c, 1, 41, 127
1, 45144, Note_on_c, 1, 60, 127
1, 45162, Note_off_c, 1, 67, 0
1, 45162, Note_off_c, 1, 64, 0
1, 45162, Note_off_c, 1, 58, 0
1, 45162, Note_off_c, 1, 41, 0
1, 45165, Note_off_c, 1, 60, 0
1, 45168, Note_on_c, 1, 69, 127
1, 45168, Note_on_c, 1, 65, 127
1, 45168, Note_on_c, 1, 60, 127
1, 45168, Note_on_c, 1, 41, 127
1, 45192, Note_on_c, 1, 72, 127
1, 45210, Note_off_c, 1, 69, 0
1, 45210, Note_off_c, 1, 65, 0
1, 45210, Note_off_c, 1, 60, 0
1, 45210, Note_off_c, 1, 41, 0
1, 45213, Note_off_c, 1, 72, 0
1, 45216, Note_on_c, 1, 70, 127
1, 45216, Note_on_c, 1, 67, 127
1, 45216, Note_on_c, 1, 58, 127
1, 45216, Note_on_c, 1, 41, 127
1, 45216, Note_on_c, 1, 64, 127
1, 45237, Note_off_c, 1, 70, 0
1, 45258, Note_off_c, 1, 58, 0
1, 45258, Note_off_c, 1, 41, 0
1, 45258, Note_off_c, 1, 64, 0
1, 45261, Note_off_c, 1, 67, 0
1, 45264, Note_on_c, 1, 69, 127
1, 45264, Note_on_c, 1, 65, 127
1, 45264, Note_on_c, 1, 60, 127
1, 45264, Note_on_c, 1, 67, 127
1, 45264, Note_on_c, 1, 41, 127
1, 45285, Note_off_c, 1, 69, 0
1, 45306, Note_off_c, 1, 60, 0
1, 45306, Note_off_c, 1, 67, 0
1, 45306, Note_off_c, 1, 41, 0
1, 45309, Note_off_c, 1, 65, 0
1, 45312, Note_on_c, 1, 70, 127
1, 45312, Note_on_c, 1, 67, 127
1, 45312, Note_on_c, 1, 58, 127
1, 45312, Note_on_c, 1, 41, 127
1, 45312, Note_on_c, 1, 64, 127
1, 45354, Note_off_c, 1, 70, 0
1, 45354, Note_off_c, 1, 67, 0
1, 45354, Note_off_c, 1, 58, 0
1, 45354, Note_off_c, 1, 41, 0
1, 45354, Note_off_c, 1, 64, 0
1, 45360, Note_on_c, 1, 70, 127
1, 45360, Note_on_c, 1, 67, 127
1, 45360, Note_on_c, 1, 58, 127
1, 45360, Note_on_c, 1, 41, 127
1, 45360, Note_on_c, 1, 64, 127
1, 45402, Note_off_c, 1, 67, 0
1, 45402, Note_off_c, 1, 58, 0
1, 45402, Note_off_c, 1, 41, 0
1, 45402, Note_off_c, 1, 64, 0
1, 45423, Note_off_c, 1, 70, 0
1, 45456, Note_on_c, 1, 69, 127
1, 45456, Note_on_c, 1, 65, 127
1, 45456, Note_on_c, 1, 60, 127
1, 45456, Note_on_c, 1, 41, 127
1, 45498, Note_off_c, 1, 69, 0
1, 45498, Note_off_c, 1, 60, 0
1, 45498, Note_off_c, 1, 41, 0
1, 45501, Note_off_c, 1, 65, 0
1, 45504, Note_on_c, 1, 72, 127
1, 45504, Note_on_c, 1, 65, 127
1, 45504, Note_on_c, 1, 60, 127
1, 45504, Note_on_c, 1, 69, 127
1, 45504, Note_on_c, 1, 41, 127
1, 45504, Note_on_c, 1, 57, 127
1, 45546, Note_off_c, 1, 65, 0
1, 45546, Note_off_c, 1, 60, 0
1, 45546, Note_off_c, 1, 69, 0
1, 45546, Note_off_c, 1, 41, 0
1, 45546, Note_off_c, 1, 57, 0
1, 45552, Note_on_c, 1, 64, 127
1, 45552, Note_on_c, 1, 58, 127
1, 45552, Note_on_c, 1, 67, 127
1, 45567, Note_off_c, 1, 72, 0
1, 45594, Note_off_c, 1, 64, 0
1, 45594, Note_off_c, 1, 58, 0
1, 45597, Note_off_c, 1, 67, 0
1, 45600, Note_on_c, 1, 69, 127
1, 45600, Note_on_c, 1, 65, 127
1, 45600, Note_on_c, 1, 60, 127
1, 45600, Note_on_c, 1, 41, 127
1, 45642, Note_off_c, 1, 69, 0
1, 45642, Note_off_c, 1, 60, 0
1, 45642, Note_off_c, 1, 41, 0
1, 45645, Note_off_c, 1, 65, 0
1, 45648, Note_on_c, 1, 67, 127
1, 45648, Note_on_c, 1, 64, 127
1, 45648, Note_on_c, 1, 58, 127
1, 45648, Note_on_c, 1, 41, 127
1, 45690, Note_off_c, 1, 64, 0
1, 45690, Note_off_c, 1, 58, 0
1, 45690, Note_off_c, 1, 41, 0
1, 45696, Note_on_c, 1, 55, 127
1, 45738, Note_off_c, 1, 67, 0
1, 45738, Note_off_c, 1, 55, 0
1, 45744, Note_on_c, 1, 65, 127
1, 45744, Note_on_c, 1, 60, 127
1, 45744, Note_on_c, 1, 69, 127
1, 45744, Note_on_c, 1, 41, 127
1, 45744, Note_on_c, 1, 57, 127
1, 45765, Note_off_c, 1, 65, 0
1, 45786, Note_off_c, 1, 69, 0
1, 45786, Note_off_c, 1, 41, 0
1, 45786, Note_off_c, 1, 57, 0
1, 45789, Note_off_c, 1, 60, 0
1, 45792, Note_on_c, 1, 70, 127
1, 45792, Note_on_c, 1, 60, 127
1, 45792, Note_on_c, 1, 67, 127
1, 45792, Note_on_c, 1, 76, 127
1, 45792, Note_on_c, 1, 40, 127
1, 45792, Note_on_c, 1, 55, 127
1, 45813, Note_off_c, 1, 70, 0
1, 45834, Note_off_c, 1, 60, 0
1, 45834, Note_off_c, 1, 76, 0
1, 45834, Note_off_c, 1, 40, 0
1, 45834, Note_off_c, 1, 55, 0
1, 45837, Note_off_c, 1, 67, 0
1, 45840, Note_on_c, 1, 69, 127
1, 45840, Note_on_c, 1, 60, 127
1, 45840, Note_on_c, 1, 41, 127
1, 45840, Note_on_c, 1, 53, 127
1, 45864, Note_on_c, 1, 65, 127
1, 45882, Note_off_c, 1, 69, 0
1, 45882, Note_off_c, 1, 60, 0
1, 45882, Note_off_c, 1, 41, 0
1, 45882, Note_off_c, 1, 53, 0
1, 45885, Note_off_c, 1, 65, 0
1, 45888, Note_on_c, 1, 67, 127
1, 45888, Note_on_c, 1, 60, 127
1, 45888, Note_on_c, 1, 76, 127
1, 45888, Note_on_c, 1, 36, 127
1, 45888, Note_on_c, 1, 52, 127
1, 45930, Note_off_c, 1, 67, 0
1, 45930, Note_off_c, 1, 60, 0
1, 45930, Note_off_c, 1, 76, 0
1, 45930, Note_off_c, 1, 36, 0
1, 45930, Note_off_c, 1, 52, 0
1, 45936, Note_on_c, 1, 65, 127
1, 45936, Note_on_c, 1, 59, 127
1, 45936, Note_on_c, 1, 71, 127
1, 45936, Note_on_c, 1, 38, 127
1, 45936, Note_on_c, 1, 53, 127
1, 45960, Note_on_c, 1, 64, 127
1, 45978, Note_off_c, 1, 65, 0
1, 45978, Note_off_c, 1, 59, 0
1, 45978, Note_off_c, 1, 71, 0
1, 45978, Note_off_c, 1, 38, 0
1, 45978, Note_off_c, 1, 53, 0
1, 45981, Note_off_c, 1, 64, 0
1, 45984, Note_on_c, 1, 62, 127
1, 45984, Note_on_c, 1, 60, 127
1, 45984, Note_on_c, 1, 67, 127
1, 45984, Note_on_c, 1, 40, 127
1, 45984, Note_on_c, 1, 55, 127
1, 46005, Note_off_c, 1, 62, 0
1, 46026, Note_off_c, 1, 67, 0
1, 46026, Note_off_c, 1, 40, 0
1, 46026, Note_off_c, 1, 55, 0
1, 46029, Note_off_c, 1, 60, 0
1, 46032, Note_on_c, 1, 65, 127
1, 46032, Note_on_c, 1, 60, 127
1, 46032, Note_on_c, 1, 69, 127
1, 46032, Note_on_c, 1, 41, 127
1, 46032, Note_on_c, 1, 57, 127
1, 46053, Note_off_c, 1, 65, 0
1, 46074, Note_off_c, 1, 60, 0
1, 46074, Note_off_c, 1, 41, 0
1, 46074, Note_off_c, 1, 57, 0
1, 46077, Note_off_c, 1, 69, 0
1, 46080, Note_on_c, 1, 67, 127
1, 46080, Note_on_c, 1, 64, 127
1, 46080, Note_on_c, 1, 58, 127
1, 46080, Note_on_c, 1, 41, 127
1, 46122, Note_off_c, 1, 67, 0
1, 46122, Note_off_c, 1, 58, 0
1, 46122, Note_off_c, 1, 41, 0
1, 46125, Note_off_c, 1, 64, 0
1, 46128, Note_on_c, 1, 65, 127
1, 46128, Note_on_c, 1, 60, 127
1, 46128, Note_on_c, 1, 69, 127
1, 46128, Note_on_c, 1, 41, 127
1, 46128, Note_on_c, 1, 57, 127
1, 46149, Note_off_c, 1, 65, 0
1, 46170, Note_off_c, 1, 69, 0
1, 46170, Note_off_c, 1, 41, 0
1, 46170, Note_off_c, 1, 57, 0
1, 46173, Note_off_c, 1, 60, 0
1, 46176, Note_on_c, 1, 67, 127
1, 46176, Note_on_c, 1, 64, 127
1, 46176, Note_on_c, 1, 58, 127
1, 46176, Note_on_c, 1, 41, 127
1, 46200, Note_on_c, 1, 70, 127
1, 46218, Note_off_c, 1, 67, 0
1, 46218, Note_off_c, 1, 64, 0
1, 46218, Note_off_c, 1, 58, 0
1, 46218, Note_off_c, 1, 41, 0
1, 46221, Note_off_c, 1, 70, 0
1, 46224, Note_on_c, 1, 69, 127
1, 46224, Note_on_c, 1, 65, 127
1, 46224, Note_on_c, 1, 60, 127
1, 46224, Note_on_c, 1, 41, 127
1, 46266, Note_off_c, 1, 69, 0
1, 46266, Note_off_c, 1, 60, 0
1, 46266, Note_off_c, 1, 41, 0
1, 46269, Note_off_c, 1, 65, 0
1, 46272, Note_on_c, 1, 67, 127
1, 46272, Note_on_c, 1, 64, 127
1, 46272, Note_on_c, 1, 58, 127
1, 46272, Note_on_c, 1, 41, 127
1, 46296, Note_on_c, 1, 60, 127
1, 46314, Note_off_c, 1, 67, 0
1, 46314, Note_off_c, 1, 64, 0
1, 46314, Note_off_c, 1, 58, 0
1, 46314, Note_off_c, 1, 41, 0
1, 46317, Note_off_c, 1, 60, 0
1, 46320, Note_on_c, 1, 69, 127
1, 46320, Note_on_c, 1, 65, 127
1, 46320, Note_on_c, 1, 60, 127
1, 46320, Note_on_c, 1, 41, 127
1, 46344, Note_on_c, 1, 72, 127
1, 46362, Note_off_c, 1, 69, 0
1, 46362, Note_off_c, 1, 65, 0
1, 46362, Note_off_c, 1, 60, 0
1, 46362, Note_off_c, 1, 41, 0
1, 46365, Note_off_c, 1, 72, 0
1, 46368, Note_on_c, 1, 70, 127
1, 46368, Note_on_c, 1, 67, 127
1, 46368, Note_on_c, 1, 58, 127
1, 46368, Note_on_c, 1, 41, 127
1, 46368, Note_on_c, 1, 64, 127
1, 46389, Note_off_c, 1, 70, 0
1, 46410, Note_off_c, 1, 58, 0
1, 46410, Note_off_c, 1, 41, 0
1, 46410, Note_off_c, 1, 64, 0
1, 46413, Note_off_c, 1, 67, 0
1, 46416, Note_on_c, 1, 69, 127
1, 46416, Note_on_c, 1, 65, 127
1, 46416, Note_on_c, 1, 60, 127
1, 46416, Note_on_c, 1, 41, 127
1, 46458, Note_off_c, 1, 69, 0
1, 46458, Note_off_c, 1, 60, 0
1, 46458, Note_off_c, 1, 41, 0
1, 46461, Note_off_c, 1, 65, 0
1, 46464, Note_on_c, 1, 71, 127
1, 46464, Note_on_c, 1, 67, 127
1, 46464, Note_on_c, 1, 62, 127
1, 46464, Note_on_c, 1, 41, 127
1, 46506, Note_off_c, 1, 71, 0
1, 46506, Note_off_c, 1, 67, 0
1, 46506, Note_off_c, 1, 62, 0
1, 46506, Note_off_c, 1, 41, 0
1, 46512, Note_on_c, 1, 71, 127
1, 46512, Note_on_c, 1, 67, 127
1, 46512, Note_on_c, 1, 62, 127
1, 46512, Note_on_c, 1, 41, 127
1, 46554, Note_off_c, 1, 67, 0
1, 46554, Note_off_c, 1, 62, 0
1, 46554, Note_off_c, 1, 41, 0
1, 46602, Note_off_c, 1, 71, 0
1, 46608, Note_on_c, 1, 74, 127
1, 46608, Note_on_c, 1, 71, 127
1, 46608, Note_on_c, 1, 62, 127
1, 46608, Note_on_c, 1, 41, 127
1, 46608, Note_on_c, 1, 67, 127
1, 46629, Note_off_c, 1, 74, 0
1, 46650, Note_off_c, 1, 62, 0
1, 46650, Note_off_c, 1, 41, 0
1, 46650, Note_off_c, 1, 67, 0
1, 46653, Note_off_c, 1, 71, 0
1, 46656, Note_on_c, 1, 77, 127
1, 46656, Note_on_c, 1, 71, 127
1, 46656, Note_on_c, 1, 62, 127
1, 46656, Note_on_c, 1, 41, 127
1, 46677, Note_off_c, 1, 77, 0
1, 46680, Note_on_c, 1, 74, 127
1, 46698, Note_off_c, 1, 71, 0
1, 46698, Note_off_c, 1, 62, 0
1, 46698, Note_off_c, 1, 41, 0
1, 46701, Note_off_c, 1, 74, 0
1, 46704, Note_on_c, 1, 76, 127
1, 46704, Note_on_c, 1, 72, 127
1, 46704, Note_on_c, 1, 60, 127
1, 46704, Note_on_c, 1, 67, 127
1, 46704, Note_on_c, 1, 41, 127
1, 46725, Note_off_c, 1, 76, 0
1, 46746, Note_off_c, 1, 60, 0
1, 46746, Note_off_c, 1, 67, 0
1, 46746, Note_off_c, 1, 41, 0
1, 46749, Note_off_c, 1, 72, 0
1, 46752, Note_on_c, 1, 74, 127
1, 46752, Note_on_c, 1, 71, 127
1, 46752, Note_on_c, 1, 59, 127
1, 46752, Note_on_c, 1, 67, 127
1, 46752, Note_on_c, 1, 41, 127
1, 46773, Note_off_c, 1, 74, 0
1, 46794, Note_off_c, 1, 59, 0
1, 46794, Note_off_c, 1, 67, 0
1, 46794, Note_off_c, 1, 41, 0
1, 46797, Note_off_c, 1, 71, 0
1, 46800, Note_on_c, 1, 72, 127
1, 46800, Note_on_c, 1, 69, 127
1, 46800, Note_on_c, 1, 60, 127
1, 46800, Note_on_c, 1, 41, 127
1, 46800, Note_on_c, 1, 64, 127
1, 46821, Note_off_c, 1, 72, 0
1, 46842, Note_off_c, 1, 60, 0
1, 46842, Note_off_c, 1, 41, 0
1, 46842, Note_off_c, 1, 64, 0
1, 46845, Note_off_c, 1, 69, 0
1, 46848, Note_on_c, 1, 71, 127
1, 46848, Note_on_c, 1, 67, 127
1, 46848, Note_on_c, 1, 62, 127
1, 46848, Note_on_c, 1, 41, 127
1, 46869, Note_off_c, 1, 71, 0
1, 46890, Note_off_c, 1, 62, 0
1, 46890, Note_off_c, 1, 41, 0
1, 46893, Note_off_c, 1, 67, 0
1, 46896, Note_on_c, 1, 79, 127
1, 46896, Note_on_c, 1, 67, 127
1, 46896, Note_on_c, 1, 60, 127
1, 46896, Note_on_c, 1, 40, 127
1, 46938, Note_off_c, 1, 79, 0
1, 46938, Note_off_c, 1, 67, 0
1, 46938, Note_off_c, 1, 60, 0
1, 46938, Note_off_c, 1, 40, 0
1, 46944, Note_on_c, 1, 77, 127
1, 46944, Note_on_c, 1, 69, 127
1, 46944, Note_on_c, 1, 60, 127
1, 46944, Note_on_c, 1, 41, 127
1, 46965, Note_off_c, 1, 77, 0
1, 46968, Note_on_c, 1, 76, 127
1, 46968, Note_on_c, 1, 67, 127
1, 46986, Note_off_c, 1, 69, 0
1, 46986, Note_off_c, 1, 60, 0
1, 46986, Note_off_c, 1, 41, 0
1, 46989, Note_off_c, 1, 76, 0
1, 46989, Note_off_c, 1, 67, 0
1, 46992, Note_on_c, 1, 74, 127
1, 46992, Note_on_c, 1, 65, 127
1, 46992, Note_on_c, 1, 62, 127
1, 46992, Note_on_c, 1, 71, 127
1, 46992, Note_on_c, 1, 43, 127
1, 46992, Note_on_c, 1, 59, 127
1, 47013, Note_off_c, 1, 74, 0
1, 47013, Note_off_c, 1, 65, 0
1, 47016, Note_on_c, 1, 72, 127
1, 47016, Note_on_c, 1, 64, 127
1, 47034, Note_off_c, 1, 62, 0
1, 47034, Note_off_c, 1, 71, 0
1, 47034, Note_off_c, 1, 43, 0
1, 47034, Note_off_c, 1, 59, 0
1, 47037, Note_off_c, 1, 72, 0
1, 47037, Note_off_c, 1, 64, 0
1, 47040, Note_on_c, 1, 74, 127
1, 47040, Note_on_c, 1, 65, 127
1, 47040, Note_on_c, 1, 62, 127
1, 47040, Note_on_c, 1, 67, 127
1, 47040, Note_on_c, 1, 36, 127
1, 47040, Note_on_c, 1, 55, 127
1, 47061, Note_off_c, 1, 74, 0
1, 47061, Note_off_c, 1, 65, 0
1, 47064, Note_on_c, 1, 71, 127
1, 47082, Note_off_c, 1, 67, 0
1, 47082, Note_off_c, 1, 36, 0
1, 47082, Note_off_c, 1, 55, 0
1, 47085, Note_off_c, 1, 62, 0
1, 47085, Note_off_c, 1, 71, 0
1, 47088, Note_on_c, 1, 72, 127
1, 47088, Note_on_c, 1, 64, 127
1, 47088, Note_on_c, 1, 48, 127
1, 47088, Note_on_c, 1, 60, 127
1, 47088, Note_on_c, 1, 67, 127
1, 47088, Note_on_c, 1, 55, 127
1, 47109, Note_off_c, 1, 48, 0
1, 47112, Note_on_c, 1, 46, 127
1, 47119, Note_off_c, 1, 72, 0
1, 47119, Note_off_c, 1, 64, 0
1, 47119, Note_off_c, 1, 60, 0
1, 47119, Note_off_c, 1, 67, 0
1, 47119, Note_off_c, 1, 55, 0
1, 47133, Note_off_c, 1, 46, 0
1, 47136, Note_on_c, 1, 60, 127
1, 47136, Note_on_c, 1, 57, 127
1, 47136, Note_on_c, 1, 45, 127
1, 47136, Note_on_c, 1, 65, 127
1, 47136, Note_on_c, 1, 72, 127
1, 47136, Note_on_c, 1, 53, 127
1, 47157, Note_off_c, 1, 45, 0
1, 47160, Note_on_c, 1, 43, 127
1, 47178, Note_off_c, 1, 60, 0
1, 47178, Note_off_c, 1, 57, 0
1, 47178, Note_off_c, 1, 65, 0
1, 47178, Note_off_c, 1, 72, 0
1, 47178, Note_off_c, 1, 53, 0
1, 47181, Note_off_c, 1, 43, 0
1, 47184, Note_on_c, 1, 65, 127
1, 47184, Note_on_c, 1, 60, 127
1, 47184, Note_on_c, 1, 69, 127
1, 47184, Note_on_c, 1, 41, 127
1, 47184, Note_on_c, 1, 57, 127
1, 47205, Note_off_c, 1, 65, 0
1, 47226, Note_off_c, 1, 60, 0
1, 47226, Note_off_c, 1, 41, 0
1, 47226, Note_off_c, 1, 57, 0
1, 47229, Note_off_c, 1, 69, 0
1, 47232, Note_on_c, 1, 67, 127
1, 47232, Note_on_c, 1, 64, 127
1, 47232, Note_on_c, 1, 58, 127
1, 47232, Note_on_c, 1, 41, 127
1, 47274, Note_off_c, 1, 67, 0
1, 47274, Note_off_c, 1, 58, 0
1, 47274, Note_off_c, 1, 41, 0
1, 47277, Note_off_c, 1, 64, 0
1, 47280, Note_on_c, 1, 65, 127
1, 47280, Note_on_c, 1, 60, 127
1, 47280, Note_on_c, 1, 69, 127
1, 47280, Note_on_c, 1, 41, 127
1, 47280, Note_on_c, 1, 57, 127
1, 47301, Note_off_c, 1, 65, 0
1, 47322, Note_off_c, 1, 69, 0
1, 47322, Note_off_c, 1, 41, 0
1, 47322, Note_off_c, 1, 57, 0
1, 47325, Note_off_c, 1, 60, 0
1, 47328, Note_on_c, 1, 67, 127
1, 47328, Note_on_c, 1, 64, 127
1, 47328, Note_on_c, 1, 58, 127
1, 47328, Note_on_c, 1, 41, 127
1, 47352, Note_on_c, 1, 70, 127
1, 47370, Note_off_c, 1, 67, 0
1, 47370, Note_off_c, 1, 64, 0
1, 47370, Note_off_c, 1, 58, 0
1, 47370, Note_off_c, 1, 41, 0
1, 47373, Note_off_c, 1, 70, 0
1, 47376, Note_on_c, 1, 69, 127
1, 47376, Note_on_c, 1, 65, 127
1, 47376, Note_on_c, 1, 60, 127
1, 47376, Note_on_c, 1, 41, 127
1, 47418, Note_off_c, 1, 69, 0
1, 47418, Note_off_c, 1, 60, 0
1, 47418, Note_off_c, 1, 41, 0
1, 47421, Note_off_c, 1, 65, 0
1, 47424, Note_on_c, 1, 67, 127
1, 47424, Note_on_c, 1, 64, 127
1, 47424, Note_on_c, 1, 58, 127
1, 47424, Note_on_c, 1, 41, 127
1, 47448, Note_on_c, 1, 60, 127
1, 47466, Note_off_c, 1, 67, 0
1, 47466, Note_off_c, 1, 64, 0
1, 47466, Note_off_c, 1, 58, 0
1, 47466, Note_off_c, 1, 41, 0
1, 47469, Note_off_c, 1, 60, 0
1, 47472, Note_on_c, 1, 69, 127
1, 47472, Note_on_c, 1, 65, 127
1, 47472, Note_on_c, 1, 60, 127
1, 47472, Note_on_c, 1, 41, 127
1, 47496, Note_on_c, 1, 72, 127
1, 47514, Note_off_c, 1, 69, 0
1, 47514, Note_off_c, 1, 65, 0
1, 47514, Note_off_c, 1, 60, 0
1, 47514, Note_off_c, 1, 41, 0
1, 47517, Note_off_c, 1, 72, 0
1, 47520, Note_on_c, 1, 70, 127
1, 47520, Note_on_c, 1, 67, 127
1, 47520, Note_on_c, 1, 58, 127
1, 47520, Note_on_c, 1, 41, 127
1, 47520, Note_on_c, 1, 64, 127
1, 47541, Note_off_c, 1, 70, 0
1, 47562, Note_off_c, 1, 58, 0
1, 47562, Note_off_c, 1, 41, 0
1, 47562, Note_off_c, 1, 64, 0
1, 47565, Note_off_c, 1, 67, 0
1, 47568, Note_on_c, 1, 69, 127
1, 47568, Note_on_c, 1, 65, 127
1, 47568, Note_on_c, 1, 60, 127
1, 47568, Note_on_c, 1, 67, 127
1, 47568, Note_on_c, 1, 41, 127
1, 47589, Note_off_c, 1, 69, 0
1, 47610, Note_off_c, 1, 60, 0
1, 47610, Note_off_c, 1, 67, 0
1, 47610, Note_off_c, 1, 41, 0
1, 47613, Note_off_c, 1, 65, 0
1, 47616, Note_on_c, 1, 70, 127
1, 47616, Note_on_c, 1, 67, 127
1, 47616, Note_on_c, 1, 58, 127
1, 47616, Note_on_c, 1, 41, 127
1, 47616, Note_on_c, 1, 64, 127
1, 47658, Note_off_c, 1, 70, 0
1, 47658, Note_off_c, 1, 67, 0
1, 47658, Note_off_c, 1, 58, 0
1, 47658, Note_off_c, 1, 41, 0
1, 47658, Note_off_c, 1, 64, 0
1, 47664, Note_on_c, 1, 70, 127
1, 47664, Note_on_c, 1, 67, 127
1, 47664, Note_on_c, 1, 58, 127
1, 47664, Note_on_c, 1, 41, 127
1, 47664, Note_on_c, 1, 64, 127
1, 47706, Note_off_c, 1, 67, 0
1, 47706, Note_off_c, 1, 58, 0
1, 47706, Note_off_c, 1, 41, 0
1, 47706, Note_off_c, 1, 64, 0
1, 47727, Note_off_c, 1, 70, 0
1, 47760, Note_on_c, 1, 69, 127
1, 47760, Note_on_c, 1, 65, 127
1, 47760, Note_on_c, 1, 60, 127
1, 47760, Note_on_c, 1, 41, 127
1, 47802, Note_off_c, 1, 69, 0
1, 47802, Note_off_c, 1, 60, 0
1, 47802, Note_off_c, 1, 41, 0
1, 47805, Note_off_c, 1, 65, 0
1, 47808, Note_on_c, 1, 72, 127
1, 47808, Note_on_c, 1, 65, 127
1, 47808, Note_on_c, 1, 60, 127
1, 47808, Note_on_c, 1, 69, 127
1, 47808, Note_on_c, 1, 41, 127
1, 47808, Note_on_c, 1, 57, 127
1, 47850, Note_off_c, 1, 65, 0
1, 47850, Note_off_c, 1, 60, 0
1, 47850, Note_off_c, 1, 69, 0
1, 47850, Note_off_c, 1, 41, 0
1, 47850, Note_off_c, 1, 57, 0
1, 47856, Note_on_c, 1, 64, 127
1, 47856, Note_on_c, 1, 58, 127
1, 47856, Note_on_c, 1, 67, 127
1, 47871, Note_off_c, 1, 72, 0
1, 47898, Note_off_c, 1, 64, 0
1, 47898, Note_off_c, 1, 58, 0
1, 47901, Note_off_c, 1, 67, 0
1, 47904, Note_on_c, 1, 69, 127
1, 47904, Note_on_c, 1, 65, 127
1, 47904, Note_on_c, 1, 60, 127
1, 47904, Note_on_c, 1, 41, 127
1, 47946, Note_off_c, 1, 69, 0
1, 47946, Note_off_c, 1, 60, 0
1, 47946, Note_off_c, 1, 41, 0
1, 47949, Note_off_c, 1, 65, 0
1, 47952, Note_on_c, 1, 67, 127
1, 47952, Note_on_c, 1, 64, 127
1, 47952, Note_on_c, 1, 58, 127
1, 47952, Note_on_c, 1, 41, 127
1, 47994, Note_off_c, 1, 64, 0
1, 47994, Note_off_c, 1, 58, 0
1, 47994, Note_off_c, 1, 41, 0
1, 48000, Note_on_c, 1, 55, 127
1, 48042, Note_off_c, 1, 67, 0
1, 48042, Note_off_c, 1, 55, 0
1, 48048, Note_on_c, 1, 65, 127
1, 48048, Note_on_c, 1, 60, 127
1, 48048, Note_on_c, 1, 69, 127
1, 48048, Note_on_c, 1, 41, 127
1, 48048, Note_on_c, 1, 57, 127
1, 48069, Note_off_c, 1, 65, 0
1, 48090, Note_off_c, 1, 69, 0
1, 48090, Note_off_c, 1, 41, 0
1, 48090, Note_off_c, 1, 57, 0
1, 48093, Note_off_c, 1, 60, 0
1, 48096, Note_on_c, 1, 70, 127
1, 48096, Note_on_c, 1, 60, 127
1, 48096, Note_on_c, 1, 67, 127
1, 48096, Note_on_c, 1, 76, 127
1, 48096, Note_on_c, 1, 40, 127
1, 48096, Note_on_c, 1, 55, 127
1, 48117, Note_off_c, 1, 70, 0
1, 48138, Note_off_c, 1, 60, 0
1, 48138, Note_off_c, 1, 76, 0
1, 48138, Note_off_c, 1, 40, 0
1, 48138, Note_off_c, 1, 55, 0
1, 48141, Note_off_c, 1, 67, 0
1, 48144, Note_on_c, 1, 69, 127
1, 48144, Note_on_c, 1, 60, 127
1, 48144, Note_on_c, 1, 41, 127
1, 48144, Note_on_c, 1, 53, 127
1, 48168, Note_on_c, 1, 65, 127
1, 48186, Note_off_c, 1, 69, 0
1, 48186, Note_off_c, 1, 60, 0
1, 48186, Note_off_c, 1, 41, 0
1, 48186, Note_off_c, 1, 53, 0
1, 48189, Note_off_c, 1, 65, 0
1, 48192, Note_on_c, 1, 67, 127
1, 48192, Note_on_c, 1, 60, 127
1, 48192, Note_on_c, 1, 76, 127
1, 48192, Note_on_c, 1, 36, 127
1, 48192, Note_on_c, 1, 52, 127
1, 48234, Note_off_c, 1, 67, 0
1, 48234, Note_off_c, 1, 60, 0
1, 48234, Note_off_c, 1, 76, 0
1, 48234, Note_off_c, 1, 36, 0
1, 48234, Note_off_c, 1, 52, 0
1, 48240, Note_on_c, 1, 65, 127
1, 48240, Note_on_c, 1, 59, 127
1, 48240, Note_on_c, 1, 71, 127
1, 48240, Note_on_c, 1, 38, 127
1, 48240, Note_on_c, 1, 53, 127
1, 48264, Note_on_c, 1, 64, 127
1, 48282, Note_off_c, 1, 65, 0
1, 48282, Note_off_c, 1, 59, 0
1, 48282, Note_off_c, 1, 71, 0
1, 48282, Note_off_c, 1, 38, 0
1, 48282, Note_off_c, 1, 53, 0
1, 48285, Note_off_c, 1, 64, 0
1, 48288, Note_on_c, 1, 62, 127
1, 48288, Note_on_c, 1, 60, 127
1, 48288, Note_on_c, 1, 67, 127
1, 48288, Note_on_c, 1, 40, 127
1, 48288, Note_on_c, 1, 55, 127
1, 48309, Note_off_c, 1, 62, 0
1, 48330, Note_off_c, 1, 67, 0
1, 48330, Note_off_c, 1, 40, 0
1, 48330, Note_off_c, 1, 55, 0
1, 48333, Note_off_c, 1, 60, 0
1, 48336, Note_on_c, 1, 65, 127
1, 48336, Note_on_c, 1, 60, 127
1, 48336, Note_on_c, 1, 69, 127
1, 48336, Note_on_c, 1, 41, 127
1, 48336, Note_on_c, 1, 57, 127
1, 48357, Note_off_c, 1, 65, 0
1, 48378, Note_off_c, 1, 60, 0
1, 48378, Note_off_c, 1, 41, 0
1, 48378, Note_off_c, 1, 57, 0
1, 48381, Note_off_c, 1, 69, 0
1, 48384, Note_on_c, 1, 67, 127
1, 48384, Note_on_c, 1, 64, 127
1, 48384, Note_on_c, 1, 58, 127
1, 48384, Note_on_c, 1, 41, 127
1, 48426, Note_off_c, 1, 67, 0
1, 48426, Note_off_c, 1, 58, 0
1, 48426, Note_off_c, 1, 41, 0
1, 48429, Note_off_c, 1, 64, 0
1, 48432, Note_on_c, 1, 65, 127
1, 48432, Note_on_c, 1, 60, 127
1, 48432, Note_on_c, 1, 69, 127
1, 48432, Note_on_c, 1, 41, 127
1, 48432, Note_on_c, 1, 57, 127
1, 48453, Note_off_c, 1, 65, 0
1, 48474, Note_off_c, 1, 69, 0
1, 48474, Note_off_c, 1, 41, 0
1, 48474, Note_off_c, 1, 57, 0
1, 48477, Note_off_c, 1, 60, 0
1, 48480, Note_on_c, 1, 67, 127
1, 48480, Note_on_c, 1, 64, 127
1, 48480, Note_on_c, 1, 58, 127
1, 48480, Note_on_c, 1, 41, 127
1, 48504, Note_on_c, 1, 70, 127
1, 48522, Note_off_c, 1, 67, 0
1, 48522, Note_off_c, 1, 64, 0
1, 48522, Note_off_c, 1, 58, 0
1, 48522, Note_off_c, 1, 41, 0
1, 48525, Note_off_c, 1, 70, 0
1, 48528, Note_on_c, 1, 69, 127
1, 48528, Note_on_c, 1, 65, 127
1, 48528, Note_on_c, 1, 60, 127
1, 48528, Note_on_c, 1, 41, 127
1, 48570, Note_off_c, 1, 69, 0
1, 48570, Note_off_c, 1, 60, 0
1, 48570, Note_off_c, 1, 41, 0
1, 48573, Note_off_c, 1, 65, 0
1, 48576, Note_on_c, 1, 67, 127
1, 48576, Note_on_c, 1, 64, 127
1, 48576, Note_on_c, 1, 58, 127
1, 48576, Note_on_c, 1, 41, 127
1, 48600, Note_on_c, 1, 60, 127
1, 48618, Note_off_c, 1, 67, 0
1, 48618, Note_off_c, 1, 64, 0
1, 48618, Note_off_c, 1, 58, 0
1, 48618, Note_off_c, 1, 41, 0
1, 48621, Note_off_c, 1, 60, 0
1, 48624, Note_on_c, 1, 69, 127
1, 48624, Note_on_c, 1, 65, 127
1, 48624, Note_on_c, 1, 60, 127
1, 48624, Note_on_c, 1, 41, 127
1, 48648, Note_on_c, 1, 72, 127
1, 48666, Note_off_c, 1, 69, 0
1, 48666, Note_off_c, 1, 65, 0
1, 48666, Note_off_c, 1, 60, 0
1, 48666, Note_off_c, 1, 41, 0
1, 48669, Note_off_c, 1, 72, 0
1, 48672, Note_on_c, 1, 70, 127
1, 48672, Note_on_c, 1, 67, 127
1, 48672, Note_on_c, 1, 58, 127
1, 48672, Note_on_c, 1, 41, 127
1, 48672, Note_on_c, 1, 64, 127
1, 48693, Note_off_c, 1, 70, 0
1, 48714, Note_off_c, 1, 58, 0
1, 48714, Note_off_c, 1, 41, 0
1, 48714, Note_off_c, 1, 64, 0
1, 48717, Note_off_c, 1, 67, 0
1, 48720, Note_on_c, 1, 69, 127
1, 48720, Note_on_c, 1, 65, 127
1, 48720, Note_on_c, 1, 60, 127
1, 48720, Note_on_c, 1, 41, 127
1, 48762, Note_off_c, 1, 69, 0
1, 48762, Note_off_c, 1, 60, 0
1, 48762, Note_off_c, 1, 41, 0
1, 48765, Note_off_c, 1, 65, 0
1, 48768, Note_on_c, 1, 71, 127
1, 48768, Note_on_c, 1, 67, 127
1, 48768, Note_on_c, 1, 62, 127
1, 48768, Note_on_c, 1, 41, 127
1, 48810, Note_off_c, 1, 71, 0
1, 48810, Note_off_c, 1, 67, 0
1, 48810, Note_off_c, 1, 62, 0
1, 48810, Note_off_c, 1, 41, 0
1, 48816, Note_on_c, 1, 71, 127
1, 48816, Note_on_c, 1, 67, 127
1, 48816, Note_on_c, 1, 62, 127
1, 48816, Note_on_c, 1, 41, 127
1, 48858, Note_off_c, 1, 67, 0
1, 48858, Note_off_c, 1, 62, 0
1, 48858, Note_off_c, 1, 41, 0
1, 48906, Note_off_c, 1, 71, 0
1, 48912, Note_on_c, 1, 74, 127
1, 48912, Note_on_c, 1, 71, 127
1, 48912, Note_on_c, 1, 62, 127
1, 48912, Note_on_c, 1, 41, 127
1, 48912, Note_on_c, 1, 67, 127
1, 48933, Note_off_c, 1, 74, 0
1, 48954, Note_off_c, 1, 62, 0
1, 48954, Note_off_c, 1, 41, 0
1, 48954, Note_off_c, 1, 67, 0
1, 48957, Note_off_c, 1, 71, 0
1, 48960, Note_on_c, 1, 77, 127
1, 48960, Note_on_c, 1, 71, 127
1, 48960, Note_on_c, 1, 62, 127
1, 48960, Note_on_c, 1, 41, 127
1, 48981, Note_off_c, 1, 77, 0
1, 48984, Note_on_c, 1, 74, 127
1, 49002, Note_off_c, 1, 71, 0
1, 49002, Note_off_c, 1, 62, 0
1, 49002, Note_off_c, 1, 41, 0
1, 49005, Note_off_c, 1, 74, 0
1, 49008, Note_on_c, 1, 76, 127
1, 49008, Note_on_c, 1, 72, 127
1, 49008, Note_on_c, 1, 60, 127
1, 49008, Note_on_c, 1, 67, 127
1, 49008, Note_on_c, 1, 41, 127
1, 49029, Note_off_c, 1, 76, 0
1, 49050, Note_off_c, 1, 60, 0
1, 49050, Note_off_c, 1, 67, 0
1, 49050, Note_off_c, 1, 41, 0
1, 49053, Note_off_c, 1, 72, 0
1, 49056, Note_on_c, 1, 74, 127
1, 49056, Note_on_c, 1, 71, 127
1, 49056, Note_on_c, 1, 59, 127
1, 49056, Note_on_c, 1, 67, 127
1, 49056, Note_on_c, 1, 41, 127
1, 49077, Note_off_c, 1, 74, 0
1, 49098, Note_off_c, 1, 59, 0
1, 49098, Note_off_c, 1, 67, 0
1, 49098, Note_off_c, 1, 41, 0
1, 49101, Note_off_c, 1, 71, 0
1, 49104, Note_on_c, 1, 72, 127
1, 49104, Note_on_c, 1, 69, 127
1, 49104, Note_on_c, 1, 60, 127
1, 49104, Note_on_c, 1, 41, 127
1, 49104, Note_on_c, 1, 64, 127
1, 49125, Note_off_c, 1, 72, 0
1, 49146, Note_off_c, 1, 60, 0
1, 49146, Note_off_c, 1, 41, 0
1, 49146, Note_off_c, 1, 64, 0
1, 49149, Note_off_c, 1, 69, 0
1, 49152, Note_on_c, 1, 71, 127
1, 49152, Note_on_c, 1, 67, 127
1, 49152, Note_on_c, 1, 62, 127
1, 49152, Note_on_c, 1, 41, 127
1, 49173, Note_off_c, 1, 71, 0
1, 49194, Note_off_c, 1, 62, 0
1, 49194, Note_off_c, 1, 41, 0
1, 49197, Note_off_c, 1, 67, 0
1, 49200, Note_on_c, 1, 79, 127
1, 49200, Note_on_c, 1, 67, 127
1, 49200, Note_on_c, 1, 60, 127
1, 49200, Note_on_c, 1, 40, 127
1, 49242, Note_off_c, 1, 79, 0
1, 49242, Note_off_c, 1, 67, 0
1, 49242, Note_off_c, 1, 60, 0
1, 49242, Note_off_c, 1, 40, 0
1, 49248, Note_on_c, 1, 77, 127
1, 49248, Note_on_c, 1, 69, 127
1, 49248, Note_on_c, 1, 60, 127
1, 49248, Note_on_c, 1, 41, 127
1, 49269, Note_off_c, 1, 77, 0
1, 49272, Note_on_c, 1, 76, 127
1, 49272, Note_on_c, 1, 67, 127
1, 49290, Note_off_c, 1, 69, 0
1, 49290, Note_off_c, 1, 60, 0
1, 49290, Note_off_c, 1, 41, 0
1, 49293, Note_off_c, 1, 76, 0
1, 49293, Note_off_c, 1, 67, 0
1, 49296, Note_on_c, 1, 74, 127
1, 49296, Note_on_c, 1, 65, 127
1, 49296, Note_on_c, 1, 62, 127
1, 49296, Note_on_c, 1, 71, 127
1, 49296, Note_on_c, 1, 43, 127
1, 49296, Note_on_c, 1, 59, 127
1, 49317, Note_off_c, 1, 74, 0
1, 49317, Note_off_c, 1, 65, 0
1, 49320, Note_on_c, 1, 72, 127
1, 49320, Note_on_c, 1, 64, 127
1, 49338, Note_off_c, 1, 62, 0
1, 49338, Note_off_c, 1, 71, 0
1, 49338, Note_off_c, 1, 43, 0
1, 49338, Note_off_c, 1, 59, 0
1, 49341, Note_off_c, 1, 72, 0
1, 49341, Note_off_c, 1, 64, 0
1, 49344, Note_on_c, 1, 74, 127
1, 49344, Note_on_c, 1, 65, 127
1, 49344, Note_on_c, 1, 62, 127
1, 49344, Note_on_c, 1, 67, 127
1, 49344, Note_on_c, 1, 36, 127
1, 49344, Note_on_c, 1, 55, 127
1, 49365, Note_off_c, 1, 74, 0
1, 49365, Note_off_c, 1, 65, 0
1, 49368, Note_on_c, 1, 71, 127
1, 49386, Note_off_c, 1, 67, 0
1, 49386, Note_off_c, 1, 36, 0
1, 49386, Note_off_c, 1, 55, 0
1, 49389, Note_off_c, 1, 62, 0
1, 49389, Note_off_c, 1, 71, 0
1, 49392, Note_on_c, 1, 72, 127
1, 49392, Note_on_c, 1, 64, 127
1, 49392, Note_on_c, 1, 67, 127
1, 49392, Note_on_c, 1, 76, 127
1, 49392, Note_on_c, 1, 36, 127
1, 49392, Note_on_c, 1, 55, 127
1, 49423, Note_off_c, 1, 72, 0
1, 49423, Note_off_c, 1, 64, 0
1, 49423, Note_off_c, 1, 67, 0
1, 49423, Note_off_c, 1, 76, 0
1, 49423, Note_off_c, 1, 55, 0
1, 49434, Note_off_c, 1, 36, 0
1, 49440, Note_on_c, 1, 67, 127
1, 49440, Note_on_c, 1, 64, 127
1, 49440, Note_on_c, 1, 76, 127
1, 49440, Note_on_c, 1, 60, 127
1, 49446, Note_on_c, 1, 48, 127
1, 49482, Note_off_c, 1, 67, 0
1, 49482, Note_off_c, 1, 64, 0
1, 49482, Note_off_c, 1, 76, 0
1, 49482, Note_off_c, 1, 60, 0
1, 49488, Note_on_c, 1, 72, 127
1, 49509, Note_off_c, 1, 72, 0
1, 49530, Note_off_c, 1, 48, 0
1, 49536, Note_on_c, 1, 74, 127
1, 49536, Note_on_c, 1, 71, 127
1, 49536, Note_on_c, 1, 65, 127
1, 49536, Note_on_c, 1, 48, 127
1, 49578, Note_off_c, 1, 74, 0
1, 49578, Note_off_c, 1, 65, 0
1, 49578, Note_off_c, 1, 48, 0
1, 49581, Note_off_c, 1, 71, 0
1, 49584, Note_on_c, 1, 72, 127
1, 49584, Note_on_c, 1, 67, 127
1, 49584, Note_on_c, 1, 76, 127
1, 49584, Note_on_c, 1, 48, 127
1, 49584, Note_on_c, 1, 64, 127
1, 49605, Note_off_c, 1, 72, 0
1, 49626, Note_off_c, 1, 76, 0
1, 49626, Note_off_c, 1, 48, 0
1, 49626, Note_off_c, 1, 64, 0
1, 49629, Note_off_c, 1, 67, 0
1, 49632, Note_on_c, 1, 74, 127
1, 49632, Note_on_c, 1, 71, 127
1, 49632, Note_on_c, 1, 65, 127
1, 49632, Note_on_c, 1, 48, 127
1, 49656, Note_on_c, 1, 77, 127
1, 49674, Note_off_c, 1, 74, 0
1, 49674, Note_off_c, 1, 71, 0
1, 49674, Note_off_c, 1, 65, 0
1, 49674, Note_off_c, 1, 48, 0
1, 49677, Note_off_c, 1, 77, 0
1, 49680, Note_on_c, 1, 76, 127
1, 49680, Note_on_c, 1, 72, 127
1, 49680, Note_on_c, 1, 67, 127
1, 49680, Note_on_c, 1, 48, 127
1, 49722, Note_off_c, 1, 76, 0
1, 49722, Note_off_c, 1, 67, 0
1, 49722, Note_off_c, 1, 48, 0
1, 49725, Note_off_c, 1, 72, 0
1, 49728, Note_on_c, 1, 74, 127
1, 49728, Note_on_c, 1, 71, 127
1, 49728, Note_on_c, 1, 65, 127
1, 49728, Note_on_c, 1, 48, 127
1, 49752, Note_on_c, 1, 67, 127
1, 49770, Note_off_c, 1, 74, 0
1, 49770, Note_off_c, 1, 71, 0
1, 49770, Note_off_c, 1, 65, 0
1, 49770, Note_off_c, 1, 48, 0
1, 49773, Note_off_c, 1, 67, 0
1, 49776, Note_on_c, 1, 76, 127
1, 49776, Note_on_c, 1, 72, 127
1, 49776, Note_on_c, 1, 67, 127
1, 49776, Note_on_c, 1, 48, 127
1, 49800, Note_on_c, 1, 79, 127
1, 49818, Note_off_c, 1, 76, 0
1, 49818, Note_off_c, 1, 72, 0
1, 49818, Note_off_c, 1, 67, 0
1, 49818, Note_off_c, 1, 48, 0
1, 49821, Note_off_c, 1, 79, 0
1, 49824, Note_on_c, 1, 77, 127
1, 49824, Note_on_c, 1, 74, 127
1, 49824, Note_on_c, 1, 65, 127
1, 49824, Note_on_c, 1, 48, 127
1, 49824, Note_on_c, 1, 71, 127
1, 49845, Note_off_c, 1, 77, 0
1, 49866, Note_off_c, 1, 65, 0
1, 49866, Note_off_c, 1, 48, 0
1, 49866, Note_off_c, 1, 71, 0
1, 49869, Note_off_c, 1, 74, 0
1, 49872, Note_on_c, 1, 76, 127
1, 49872, Note_on_c, 1, 72, 127
1, 49872, Note_on_c, 1, 67, 127
1, 49872, Note_on_c, 1, 48, 127
1, 49914, Note_off_c, 1, 76, 0
1, 49914, Note_off_c, 1, 72, 0
1, 49914, Note_off_c, 1, 48, 0
1, 49917, Note_off_c, 1, 67, 0
1, 49920, Note_on_c, 1, 82, 127
1, 49920, Note_on_c, 1, 76, 127
1, 49920, Note_on_c, 1, 67, 127
1, 49920, Note_on_c, 1, 49, 127
1, 49962, Note_off_c, 1, 82, 0
1, 49962, Note_off_c, 1, 76, 0
1, 49962, Note_off_c, 1, 67, 0
1, 49962, Note_off_c, 1, 49, 0
1, 49968, Note_on_c, 1, 82, 127
1, 49968, Note_on_c, 1, 76, 127
1, 49968, Note_on_c, 1, 67, 127
1, 49968, Note_on_c, 1, 49, 127
1, 50010, Note_off_c, 1, 76, 0
1, 50010, Note_off_c, 1, 67, 0
1, 50010, Note_off_c, 1, 49, 0
1, 50016, Note_on_c, 1, 74, 127
1, 50016, Note_on_c, 1, 52, 127
1, 50031, Note_off_c, 1, 82, 0
1, 50040, Note_on_c, 1, 81, 127
1, 50058, Note_off_c, 1, 74, 0
1, 50058, Note_off_c, 1, 52, 0
1, 50061, Note_off_c, 1, 81, 0
1, 50064, Note_on_c, 1, 79, 127
1, 50064, Note_on_c, 1, 73, 127
1, 50064, Note_on_c, 1, 67, 127
1, 50064, Note_on_c, 1, 76, 127
1, 50064, Note_on_c, 1, 45, 127
1, 50064, Note_on_c, 1, 64, 127
1, 50085, Note_off_c, 1, 79, 0
1, 50106, Note_off_c, 1, 73, 0
1, 50106, Note_off_c, 1, 67, 0
1, 50106, Note_off_c, 1, 45, 0
1, 50106, Note_off_c, 1, 64, 0
1, 50109, Note_off_c, 1, 76, 0
1, 50112, Note_on_c, 1, 77, 127
1, 50112, Note_on_c, 1, 74, 127
1, 50112, Note_on_c, 1, 65, 127
1, 50112, Note_on_c, 1, 45, 127
1, 50112, Note_on_c, 1, 69, 127
1, 50133, Note_off_c, 1, 77, 0
1, 50154, Note_off_c, 1, 65, 0
1, 50154, Note_off_c, 1, 45, 0
1, 50154, Note_off_c, 1, 69, 0
1, 50157, Note_off_c, 1, 74, 0
1, 50160, Note_on_c, 1, 73, 127
1, 50160, Note_on_c, 1, 69, 127
1, 50160, Note_on_c, 1, 64, 127
1, 50160, Note_on_c, 1, 45, 127
1, 50202, Note_off_c, 1, 73, 0
1, 50202, Note_off_c, 1, 64, 0
1, 50202, Note_off_c, 1, 45, 0
1, 50205, Note_off_c, 1, 69, 0
1, 50208, Note_on_c, 1, 70, 127
1, 50208, Note_on_c, 1, 67, 127
1, 50208, Note_on_c, 1, 73, 127
1, 50208, Note_on_c, 1, 45, 127
1, 50208, Note_on_c, 1, 61, 127
1, 50229, Note_off_c, 1, 70, 0
1, 50250, Note_off_c, 1, 73, 0
1, 50250, Note_off_c, 1, 45, 0
1, 50250, Note_off_c, 1, 61, 0
1, 50253, Note_off_c, 1, 67, 0
1, 50256, Note_on_c, 1, 69, 127
1, 50256, Note_on_c, 1, 65, 127
1, 50256, Note_on_c, 1, 73, 127
1, 50256, Note_on_c, 1, 45, 127
1, 50256, Note_on_c, 1, 57, 127
1, 50277, Note_off_c, 1, 69, 0
1, 50298, Note_off_c, 1, 73, 0
1, 50298, Note_off_c, 1, 45, 0
1, 50298, Note_off_c, 1, 57, 0
1, 50301, Note_off_c, 1, 65, 0
1, 50304, Note_on_c, 1, 64, 127
1, 50304, Note_on_c, 1, 61, 127
1, 50304, Note_on_c, 1, 73, 127
1, 50304, Note_on_c, 1, 45, 127
1, 50304, Note_on_c, 1, 57, 127
1, 50328, Note_on_c, 1, 67, 127
1, 50346, Note_off_c, 1, 64, 0
1, 50346, Note_off_c, 1, 61, 0
1, 50346, Note_off_c, 1, 73, 0
1, 50346, Note_off_c, 1, 45, 0
1, 50346, Note_off_c, 1, 57, 0
1, 50349, Note_off_c, 1, 67, 0
1, 50352, Note_on_c, 1, 65, 127
1, 50352, Note_on_c, 1, 62, 127
1, 50352, Note_on_c, 1, 69, 127
1, 50352, Note_on_c, 1, 77, 127
1, 50352, Note_on_c, 1, 50, 127
1, 50352, Note_on_c, 1, 57, 127
1, 50373, Note_off_c, 1, 65, 0
1, 50376, Note_on_c, 1, 70, 127
1, 50394, Note_off_c, 1, 62, 0
1, 50394, Note_off_c, 1, 69, 0
1, 50394, Note_off_c, 1, 77, 0
1, 50394, Note_off_c, 1, 50, 0
1, 50394, Note_off_c, 1, 57, 0
1, 50397, Note_off_c, 1, 70, 0
1, 50400, Note_on_c, 1, 69, 127
1, 50400, Note_on_c, 1, 62, 127
1, 50400, Note_on_c, 1, 74, 127
1, 50400, Note_on_c, 1, 41, 127
1, 50400, Note_on_c, 1, 57, 127
1, 50421, Note_off_c, 1, 62, 0
1, 50424, Note_on_c, 1, 65, 127
1, 50442, Note_off_c, 1, 69, 0
1, 50442, Note_off_c, 1, 41, 0
1, 50442, Note_off_c, 1, 57, 0
1, 50445, Note_off_c, 1, 74, 0
1, 50445, Note_off_c, 1, 65, 0
1, 50448, Note_on_c, 1, 73, 127
1, 50448, Note_on_c, 1, 64, 127
1, 50448, Note_on_c, 1, 45, 127
1, 50448, Note_on_c, 1, 57, 127
1, 50472, Note_on_c, 1, 77, 127
1, 50472, Note_on_c, 1, 69, 127
1, 50490, Note_off_c, 1, 73, 0
1, 50490, Note_off_c, 1, 64, 0
1, 50490, Note_off_c, 1, 45, 0
1, 50490, Note_off_c, 1, 57, 0
1, 50493, Note_off_c, 1, 77, 0
1, 50493, Note_off_c, 1, 69, 0
1, 50496, Note_on_c, 1, 76, 127
1, 50496, Note_on_c, 1, 67, 127
1, 50496, Note_on_c, 1, 69, 127
1, 50496, Note_on_c, 1, 38, 127
1, 50496, Note_on_c, 1, 57, 127
1, 50517, Note_off_c, 1, 67, 0
1, 50520, Note_on_c, 1, 73, 127
1, 50520, Note_on_c, 1, 64, 127
1, 50538, Note_off_c, 1, 76, 0
1, 50538, Note_off_c, 1, 69, 0
1, 50538, Note_off_c, 1, 38, 0
1, 50538, Note_off_c, 1, 57, 0
1, 50541, Note_off_c, 1, 73, 0
1, 50541, Note_off_c, 1, 64, 0
1, 50544, Note_on_c, 1, 74, 127
1, 50544, Note_on_c, 1, 65, 127
1, 50544, Note_on_c, 1, 69, 127
1, 50544, Note_on_c, 1, 77, 127
1, 50544, Note_on_c, 1, 50, 127
1, 50544, Note_on_c, 1, 57, 127
1, 50586, Note_off_c, 1, 65, 0
1, 50586, Note_off_c, 1, 69, 0
1, 50586, Note_off_c, 1, 77, 0
1, 50586, Note_off_c, 1, 50, 0
1, 50586, Note_off_c, 1, 57, 0
1, 50592, Note_on_c, 1, 72, 127
1, 50592, Note_on_c, 1, 48, 127
1, 50607, Note_off_c, 1, 74, 0
1, 50634, Note_off_c, 1, 72, 0
1, 50634, Note_off_c, 1, 48, 0
1, 50640, Note_on_c, 1, 77, 127
1, 50640, Note_on_c, 1, 70, 127
1, 50640, Note_on_c, 1, 62, 127
1, 50640, Note_on_c, 1, 46, 127
1, 50659, Note_off_c, 1, 70, 0
1, 50659, Note_off_c, 1, 62, 0
1, 50659, Note_off_c, 1, 46, 0
1, 50661, Note_off_c, 1, 77, 0
1, 50664, Note_on_c, 1, 75, 127
1, 50674, Note_off_c, 1, 75, 0
1, 50676, Note_on_c, 1, 74, 127
1, 50686, Note_off_c, 1, 74, 0
1, 50688, Note_on_c, 1, 75, 127
1, 50688, Note_on_c, 1, 69, 127
1, 50688, Note_on_c, 1, 60, 127
1, 50688, Note_on_c, 1, 46, 127
1, 50707, Note_off_c, 1, 69, 0
1, 50707, Note_off_c, 1, 60, 0
1, 50707, Note_off_c, 1, 46, 0
1, 50709, Note_off_c, 1, 75, 0
1, 50712, Note_on_c, 1, 74, 127
1, 50722, Note_off_c, 1, 74, 0
1, 50724, Note_on_c, 1, 72, 127
1, 50734, Note_off_c, 1, 72, 0
1, 50736, Note_on_c, 1, 74, 127
1, 50736, Note_on_c, 1, 67, 127
1, 50736, Note_on_c, 1, 58, 127
1, 50736, Note_on_c, 1, 46, 127
1, 50755, Note_off_c, 1, 67, 0
1, 50755, Note_off_c, 1, 58, 0
1, 50755, Note_off_c, 1, 46, 0
1, 50757, Note_off_c, 1, 74, 0
1, 50760, Note_on_c, 1, 72, 127
1, 50770, Note_off_c, 1, 72, 0
1, 50772, Note_on_c, 1, 70, 127
1, 50782, Note_off_c, 1, 70, 0
1, 50784, Note_on_c, 1, 72, 127
1, 50784, Note_on_c, 1, 69, 127
1, 50784, Note_on_c, 1, 63, 127
1, 50784, Note_on_c, 1, 46, 127
1, 50803, Note_off_c, 1, 69, 0
1, 50803, Note_off_c, 1, 63, 0
1, 50803, Note_off_c, 1, 46, 0
1, 50805, Note_off_c, 1, 72, 0
1, 50808, Note_on_c, 1, 74, 127
1, 50818, Note_off_c, 1, 74, 0
1, 50820, Note_on_c, 1, 75, 127
1, 50830, Note_off_c, 1, 75, 0
1, 50832, Note_on_c, 1, 74, 127
1, 50832, Note_on_c, 1, 70, 127
1, 50832, Note_on_c, 1, 65, 127
1, 50832, Note_on_c, 1, 46, 127
1, 50851, Note_off_c, 1, 70, 0
1, 50851, Note_off_c, 1, 65, 0
1, 50851, Note_off_c, 1, 46, 0
1, 50853, Note_off_c, 1, 74, 0
1, 50856, Note_on_c, 1, 72, 127
1, 50866, Note_off_c, 1, 72, 0
1, 50868, Note_on_c, 1, 70, 127
1, 50878, Note_off_c, 1, 70, 0
1, 50880, Note_on_c, 1, 72, 127
1, 50880, Note_on_c, 1, 69, 127
1, 50880, Note_on_c, 1, 63, 127
1, 50880, Note_on_c, 1, 46, 127
1, 50899, Note_off_c, 1, 69, 0
1, 50899, Note_off_c, 1, 63, 0
1, 50899, Note_off_c, 1, 46, 0
1, 50901, Note_off_c, 1, 72, 0
1, 50904, Note_on_c, 1, 70, 127
1, 50914, Note_off_c, 1, 70, 0
1, 50916, Note_on_c, 1, 69, 127
1, 50926, Note_off_c, 1, 69, 0
1, 50928, Note_on_c, 1, 70, 127
1, 50928, Note_on_c, 1, 67, 127
1, 50928, Note_on_c, 1, 74, 127
1, 50928, Note_on_c, 1, 46, 127
1, 50928, Note_on_c, 1, 62, 127
1, 50947, Note_off_c, 1, 67, 0
1, 50947, Note_off_c, 1, 74, 0
1, 50947, Note_off_c, 1, 46, 0
1, 50947, Note_off_c, 1, 62, 0
1, 50949, Note_off_c, 1, 70, 0
1, 50952, Note_on_c, 1, 69, 127
1, 50962, Note_off_c, 1, 69, 0
1, 50964, Note_on_c, 1, 67, 127
1, 50974, Note_off_c, 1, 67, 0
1, 50976, Note_on_c, 1, 69, 127
1, 50976, Note_on_c, 1, 65, 127
1, 50976, Note_on_c, 1, 74, 127
1, 50976, Note_on_c, 1, 46, 127
1, 50976, Note_on_c, 1, 62, 127
1, 50995, Note_off_c, 1, 65, 0
1, 50995, Note_off_c, 1, 74, 0
1, 50995, Note_off_c, 1, 46, 0
1, 50995, Note_off_c, 1, 62, 0
1, 50997, Note_off_c, 1, 69, 0
1, 51000, Note_on_c, 1, 70, 127
1, 51010, Note_off_c, 1, 70, 0
1, 51012, Note_on_c, 1, 72, 127
1, 51022, Note_off_c, 1, 72, 0
1, 51024, Note_on_c, 1, 70, 127
1, 51024, Note_on_c, 1, 67, 127
1, 51024, Note_on_c, 1, 76, 127
1, 51024, Note_on_c, 1, 46, 127
1, 51024, Note_on_c, 1, 64, 127
1, 51043, Note_off_c, 1, 67, 0
1, 51043, Note_off_c, 1, 76, 0
1, 51043, Note_off_c, 1, 46, 0
1, 51043, Note_off_c, 1, 64, 0
1, 51045, Note_off_c, 1, 70, 0
1, 51048, Note_on_c, 1, 69, 127
1, 51058, Note_off_c, 1, 69, 0
1, 51060, Note_on_c, 1, 67, 127
1, 51070, Note_off_c, 1, 67, 0
1, 51072, Note_on_c, 1, 69, 127
1, 51072, Note_on_c, 1, 62, 127
1, 51072, Note_on_c, 1, 65, 127
1, 51072, Note_on_c, 1, 74, 127
1, 51072, Note_on_c, 1, 47, 127
1, 51091, Note_off_c, 1, 62, 0
1, 51091, Note_off_c, 1, 65, 0
1, 51091, Note_off_c, 1, 74, 0
1, 51093, Note_off_c, 1, 69, 0
1, 51096, Note_on_c, 1, 67, 127
1, 51106, Note_off_c, 1, 67, 0
1, 51114, Note_off_c, 1, 47, 0
1, 51120, Note_on_c, 1, 64, 127
1, 51120, Note_on_c, 1, 55, 127
1, 51120, Note_on_c, 1, 67, 127
1, 51120, Note_on_c, 1, 72, 127
1, 51120, Note_on_c, 1, 48, 127
1, 51120, Note_on_c, 1, 60, 127
1, 51139, Note_off_c, 1, 55, 0
1, 51139, Note_off_c, 1, 67, 0
1, 51139, Note_off_c, 1, 72, 0
1, 51139, Note_off_c, 1, 60, 0
1, 51141, Note_off_c, 1, 64, 0
1, 51141, Note_off_c, 1, 48, 0
1, 51144, Note_on_c, 1, 65, 127
1, 51144, Note_on_c, 1, 50, 127
1, 51154, Note_off_c, 1, 65, 0
1, 51156, Note_on_c, 1, 67, 127
1, 51165, Note_off_c, 1, 50, 0
1, 51166, Note_off_c, 1, 67, 0
1, 51168, Note_on_c, 1, 60, 127
1, 51168, Note_on_c, 1, 55, 127
1, 51168, Note_on_c, 1, 67, 127
1, 51168, Note_on_c, 1, 69, 127
1, 51168, Note_on_c, 1, 52, 127
1, 51187, Note_off_c, 1, 55, 0
1, 51187, Note_off_c, 1, 67, 0
1, 51187, Note_off_c, 1, 69, 0
1, 51189, Note_off_c, 1, 60, 0
1, 51189, Note_off_c, 1, 52, 0
1, 51192, Note_on_c, 1, 58, 127
1, 51192, Note_on_c, 1, 48, 127
1, 51213, Note_off_c, 1, 58, 0
1, 51213, Note_off_c, 1, 48, 0
1, 51216, Note_on_c, 1, 57, 127
1, 51216, Note_on_c, 1, 65, 127
1, 51216, Note_on_c, 1, 72, 127
1, 51216, Note_on_c, 1, 53, 127
1, 51237, Note_off_c, 1, 57, 0
1, 51240, Note_on_c, 1, 60, 127
1, 51258, Note_off_c, 1, 65, 0
1, 51258, Note_off_c, 1, 72, 0
1, 51258, Note_off_c, 1, 53, 0
1, 51261, Note_off_c, 1, 60, 0
1, 51264, Note_on_c, 1, 58, 127
1, 51264, Note_on_c, 1, 67, 127
1, 51264, Note_on_c, 1, 53, 127
1, 51264, Note_on_c, 1, 55, 127
1, 51285, Note_off_c, 1, 55, 0
1, 51288, Note_on_c, 1, 52, 127
1, 51306, Note_off_c, 1, 58, 0
1, 51306, Note_off_c, 1, 67, 0
1, 51306, Note_off_c, 1, 53, 0
1, 51309, Note_off_c, 1, 52, 0
1, 51312, Note_on_c, 1, 57, 127
1, 51312, Note_on_c, 1, 65, 127
1, 51312, Note_on_c, 1, 53, 127
1, 51336, Note_on_c, 1, 60, 127
1, 51354, Note_off_c, 1, 65, 0
1, 51354, Note_off_c, 1, 53, 0
1, 51357, Note_off_c, 1, 57, 0
1, 51357, Note_off_c, 1, 60, 0
1, 51360, Note_on_c, 1, 65, 127
1, 51360, Note_on_c, 1, 57, 127
1, 51360, Note_on_c, 1, 74, 127
1, 51360, Note_on_c, 1, 50, 127
1, 51360, Note_on_c, 1, 62, 127
1, 51381, Note_off_c, 1, 57, 0
1, 51381, Note_off_c, 1, 62, 0
1, 51384, Note_on_c, 1, 69, 127
1, 51402, Note_off_c, 1, 74, 0
1, 51402, Note_off_c, 1, 50, 0
1, 51405, Note_off_c, 1, 65, 0
1, 51405, Note_off_c, 1, 69, 0
1, 51408, Note_on_c, 1, 67, 127
1, 51408, Note_on_c, 1, 58, 127
1, 51408, Note_on_c, 1, 73, 127
1, 51408, Note_on_c, 1, 50, 127
1, 51408, Note_on_c, 1, 64, 127
1, 51429, Note_off_c, 1, 58, 0
1, 51429, Note_off_c, 1, 64, 0
1, 51432, Note_on_c, 1, 55, 127
1, 51432, Note_on_c, 1, 61, 127
1, 51450, Note_off_c, 1, 67, 0
1, 51450, Note_off_c, 1, 73, 0
1, 51450, Note_off_c, 1, 50, 0
1, 51453, Note_off_c, 1, 55, 0
1, 51453, Note_off_c, 1, 61, 0
1, 51456, Note_on_c, 1, 65, 127
1, 51456, Note_on_c, 1, 57, 127
1, 51456, Note_on_c, 1, 69, 127
1, 51456, Note_on_c, 1, 77, 127
1, 51456, Note_on_c, 1, 50, 127
1, 51456, Note_on_c, 1, 62, 127
1, 51477, Note_off_c, 1, 65, 0
1, 51477, Note_off_c, 1, 57, 0
1, 51477, Note_off_c, 1, 62, 0
1, 51498, Note_off_c, 1, 77, 0
1, 51498, Note_off_c, 1, 50, 0
1, 51501, Note_off_c, 1, 69, 0
1, 51504, Note_on_c, 1, 72, 127
1, 51504, Note_on_c, 1, 60, 127
1, 51504, Note_on_c, 1, 65, 127
1, 51504, Note_on_c, 1, 45, 127
1, 51504, Note_on_c, 1, 53, 127
1, 51546, Note_off_c, 1, 72, 0
1, 51546, Note_off_c, 1, 60, 0
1, 51546, Note_off_c, 1, 65, 0
1, 51546, Note_off_c, 1, 45, 0
1, 51546, Note_off_c, 1, 53, 0
1, 51552, Note_on_c, 1, 70, 127
1, 51552, Note_on_c, 1, 62, 127
1, 51552, Note_on_c, 1, 65, 127
1, 51552, Note_on_c, 1, 74, 127
1, 51552, Note_on_c, 1, 46, 127
1, 51552, Note_on_c, 1, 53, 127
1, 51573, Note_off_c, 1, 70, 0
1, 51573, Note_off_c, 1, 62, 0
1, 51576, Note_on_c, 1, 69, 127
1, 51576, Note_on_c, 1, 60, 127
1, 51594, Note_off_c, 1, 65, 0
1, 51594, Note_off_c, 1, 74, 0
1, 51594, Note_off_c, 1, 46, 0
1, 51594, Note_off_c, 1, 53, 0
1, 51597, Note_off_c, 1, 69, 0
1, 51597, Note_off_c, 1, 60, 0
1, 51600, Note_on_c, 1, 67, 127
1, 51600, Note_on_c, 1, 58, 127
1, 51600, Note_on_c, 1, 76, 127
1, 51600, Note_on_c, 1, 48, 127
1, 51600, Note_on_c, 1, 52, 127
1, 51621, Note_off_c, 1, 58, 0
1, 51624, Note_on_c, 1, 65, 127
1, 51624, Note_on_c, 1, 57, 127
1, 51642, Note_off_c, 1, 67, 0
1, 51642, Note_off_c, 1, 76, 0
1, 51642, Note_off_c, 1, 48, 0
1, 51642, Note_off_c, 1, 52, 0
1, 51645, Note_off_c, 1, 65, 0
1, 51645, Note_off_c, 1, 57, 0
1, 51648, Note_on_c, 1, 67, 127
1, 51648, Note_on_c, 1, 58, 127
1, 51648, Note_on_c, 1, 41, 127
1, 51648, Note_on_c, 1, 72, 127
1, 51648, Note_on_c, 1, 48, 127
1, 51669, Note_off_c, 1, 58, 0
1, 51669, Note_off_c, 1, 41, 0
1, 51672, Note_on_c, 1, 64, 127
1, 51672, Note_on_c, 1, 55, 127
1, 51672, Note_on_c, 1, 57, 127
1, 51690, Note_off_c, 1, 67, 0
1, 51690, Note_off_c, 1, 72, 0
1, 51690, Note_off_c, 1, 48, 0
1, 51693, Note_off_c, 1, 64, 0
1, 51693, Note_off_c, 1, 55, 0
1, 51693, Note_off_c, 1, 57, 0
1, 51696, Note_on_c, 1, 65, 127
1, 51696, Note_on_c, 1, 57, 127
1, 51696, Note_on_c, 1, 55, 127
1, 51696, Note_on_c, 1, 72, 127
1, 51696, Note_on_c, 1, 48, 127
1, 51717, Note_off_c, 1, 55, 0
1, 51720, Note_on_c, 1, 53, 127
1, 51727, Note_off_c, 1, 65, 0
1, 51727, Note_off_c, 1, 57, 0
1, 51727, Note_off_c, 1, 72, 0
1, 51727, Note_off_c, 1, 48, 0
1, 51741, Note_off_c, 1, 53, 0
1, 51744, Note_on_c, 1, 67, 127
1, 51744, Note_on_c, 1, 64, 127
1, 51744, Note_on_c, 1, 52, 127
1, 51744, Note_on_c, 1, 72, 127
1, 51744, Note_on_c, 1, 60, 127
1, 51765, Note_off_c, 1, 52, 0
1, 51768, Note_on_c, 1, 50, 127
1, 51786, Note_off_c, 1, 67, 0
1, 51786, Note_off_c, 1, 64, 0
1, 51786, Note_off_c, 1, 72, 0
1, 51786, Note_off_c, 1, 60, 0
1, 51789, Note_off_c, 1, 50, 0
1, 51792, Note_on_c, 1, 72, 127
1, 51792, Note_on_c, 1, 67, 127
1, 51792, Note_on_c, 1, 76, 127
1, 51792, Note_on_c, 1, 48, 127
1, 51792, Note_on_c, 1, 64, 127
1, 51813, Note_off_c, 1, 72, 0
1, 51834, Note_off_c, 1, 67, 0
1, 51834, Note_off_c, 1, 48, 0
1, 51834, Note_off_c, 1, 64, 0
1, 51837, Note_off_c, 1, 76, 0
1, 51840, Note_on_c, 1, 74, 127
1, 51840, Note_on_c, 1, 71, 127
1, 51840, Note_on_c, 1, 65, 127
1, 51840, Note_on_c, 1, 48, 127
1, 51882, Note_off_c, 1, 74, 0
1, 51882, Note_off_c, 1, 65, 0
1, 51882, Note_off_c, 1, 48, 0
1, 51885, Note_off_c, 1, 71, 0
1, 51888, Note_on_c, 1, 72, 127
1, 51888, Note_on_c, 1, 67, 127
1, 51888, Note_on_c, 1, 76, 127
1, 51888, Note_on_c, 1, 48, 127
1, 51888, Note_on_c, 1, 64, 127
1, 51909, Note_off_c, 1, 72, 0
1, 51930, Note_off_c, 1, 76, 0
1, 51930, Note_off_c, 1, 48, 0
1, 51930, Note_off_c, 1, 64, 0
1, 51933, Note_off_c, 1, 67, 0
1, 51936, Note_on_c, 1, 74, 127
1, 51936, Note_on_c, 1, 71, 127
1, 51936, Note_on_c, 1, 65, 127
1, 51936, Note_on_c, 1, 48, 127
1, 51960, Note_on_c, 1, 77, 127
1, 51978, Note_off_c, 1, 74, 0
1, 51978, Note_off_c, 1, 71, 0
1, 51978, Note_off_c, 1, 65, 0
1, 51978, Note_off_c, 1, 48, 0
1, 51981, Note_off_c, 1, 77, 0
1, 51984, Note_on_c, 1, 76, 127
1, 51984, Note_on_c, 1, 72, 127
1, 51984, Note_on_c, 1, 67, 127
1, 51984, Note_on_c, 1, 48, 127
1, 52026, Note_off_c, 1, 76, 0
1, 52026, Note_off_c, 1, 67, 0
1, 52026, Note_off_c, 1, 48, 0
1, 52029, Note_off_c, 1, 72, 0
1, 52032, Note_on_c, 1, 74, 127
1, 52032, Note_on_c, 1, 71, 127
1, 52032, Note_on_c, 1, 65, 127
1, 52032, Note_on_c, 1, 48, 127
1, 52056, Note_on_c, 1, 67, 127
1, 52074, Note_off_c, 1, 74, 0
1, 52074, Note_off_c, 1, 71, 0
1, 52074, Note_off_c, 1, 65, 0
1, 52074, Note_off_c, 1, 48, 0
1, 52077, Note_off_c, 1, 67, 0
1, 52080, Note_on_c, 1, 76, 127
1, 52080, Note_on_c, 1, 72, 127
1, 52080, Note_on_c, 1, 67, 127
1, 52080, Note_on_c, 1, 48, 127
1, 52104, Note_on_c, 1, 79, 127
1, 52122, Note_off_c, 1, 76, 0
1, 52122, Note_off_c, 1, 72, 0
1, 52122, Note_off_c, 1, 67, 0
1, 52122, Note_off_c, 1, 48, 0
1, 52125, Note_off_c, 1, 79, 0
1, 52128, Note_on_c, 1, 77, 127
1, 52128, Note_on_c, 1, 74, 127
1, 52128, Note_on_c, 1, 65, 127
1, 52128, Note_on_c, 1, 48, 127
1, 52128, Note_on_c, 1, 71, 127
1, 52149, Note_off_c, 1, 77, 0
1, 52170, Note_off_c, 1, 65, 0
1, 52170, Note_off_c, 1, 48, 0
1, 52170, Note_off_c, 1, 71, 0
1, 52173, Note_off_c, 1, 74, 0
1, 52176, Note_on_c, 1, 76, 127
1, 52176, Note_on_c, 1, 72, 127
1, 52176, Note_on_c, 1, 67, 127
1, 52176, Note_on_c, 1, 48, 127
1, 52218, Note_off_c, 1, 76, 0
1, 52218, Note_off_c, 1, 72, 0
1, 52218, Note_off_c, 1, 48, 0
1, 52221, Note_off_c, 1, 67, 0
1, 52224, Note_on_c, 1, 82, 127
1, 52224, Note_on_c, 1, 76, 127
1, 52224, Note_on_c, 1, 67, 127
1, 52224, Note_on_c, 1, 49, 127
1, 52266, Note_off_c, 1, 82, 0
1, 52266, Note_off_c, 1, 76, 0
1, 52266, Note_off_c, 1, 67, 0
1, 52266, Note_off_c, 1, 49, 0
1, 52272, Note_on_c, 1, 82, 127
1, 52272, Note_on_c, 1, 76, 127
1, 52272, Note_on_c, 1, 67, 127
1, 52272, Note_on_c, 1, 49, 127
1, 52314, Note_off_c, 1, 76, 0
1, 52314, Note_off_c, 1, 67, 0
1, 52314, Note_off_c, 1, 49, 0
1, 52320, Note_on_c, 1, 74, 127
1, 52320, Note_on_c, 1, 52, 127
1, 52335, Note_off_c, 1, 82, 0
1, 52344, Note_on_c, 1, 81, 127
1, 52362, Note_off_c, 1, 74, 0
1, 52362, Note_off_c, 1, 52, 0
1, 52365, Note_off_c, 1, 81, 0
1, 52368, Note_on_c, 1, 79, 127
1, 52368, Note_on_c, 1, 73, 127
1, 52368, Note_on_c, 1, 67, 127
1, 52368, Note_on_c, 1, 76, 127
1, 52368, Note_on_c, 1, 45, 127
1, 52368, Note_on_c, 1, 64, 127
1, 52389, Note_off_c, 1, 79, 0
1, 52410, Note_off_c, 1, 73, 0
1, 52410, Note_off_c, 1, 67, 0
1, 52410, Note_off_c, 1, 45, 0
1, 52410, Note_off_c, 1, 64, 0
1, 52413, Note_off_c, 1, 76, 0
1, 52416, Note_on_c, 1, 77, 127
1, 52416, Note_on_c, 1, 74, 127
1, 52416, Note_on_c, 1, 65, 127
1, 52416, Note_on_c, 1, 45, 127
1, 52416, Note_on_c, 1, 69, 127
1, 52437, Note_off_c, 1, 77, 0
1, 52458, Note_off_c, 1, 65, 0
1, 52458, Note_off_c, 1, 45, 0
1, 52458, Note_off_c, 1, 69, 0
1, 52461, Note_off_c, 1, 74, 0
1, 52464, Note_on_c, 1, 73, 127
1, 52464, Note_on_c, 1, 69, 127
1, 52464, Note_on_c, 1, 64, 127
1, 52464, Note_on_c, 1, 45, 127
1, 52506, Note_off_c, 1, 73, 0
1, 52506, Note_off_c, 1, 64, 0
1, 52506, Note_off_c, 1, 45, 0
1, 52509, Note_off_c, 1, 69, 0
1, 52512, Note_on_c, 1, 70, 127
1, 52512, Note_on_c, 1, 67, 127
1, 52512, Note_on_c, 1, 73, 127
1, 52512, Note_on_c, 1, 45, 127
1, 52512, Note_on_c, 1, 61, 127
1, 52533, Note_off_c, 1, 70, 0
1, 52554, Note_off_c, 1, 73, 0
1, 52554, Note_off_c, 1, 45, 0
1, 52554, Note_off_c, 1, 61, 0
1, 52557, Note_off_c, 1, 67, 0
1, 52560, Note_on_c, 1, 69, 127
1, 52560, Note_on_c, 1, 65, 127
1, 52560, Note_on_c, 1, 73, 127
1, 52560, Note_on_c, 1, 45, 127
1, 52560, Note_on_c, 1, 57, 127
1, 52581, Note_off_c, 1, 69, 0
1, 52602, Note_off_c, 1, 73, 0
1, 52602, Note_off_c, 1, 45, 0
1, 52602, Note_off_c, 1, 57, 0
1, 52605, Note_off_c, 1, 65, 0
1, 52608, Note_on_c, 1, 64, 127
1, 52608, Note_on_c, 1, 61, 127
1, 52608, Note_on_c, 1, 73, 127
1, 52608, Note_on_c, 1, 45, 127
1, 52608, Note_on_c, 1, 57, 127
1, 52632, Note_on_c, 1, 67, 127
1, 52650, Note_off_c, 1, 64, 0
1, 52650, Note_off_c, 1, 61, 0
1, 52650, Note_off_c, 1, 73, 0
1, 52650, Note_off_c, 1, 45, 0
1, 52650, Note_off_c, 1, 57, 0
1, 52653, Note_off_c, 1, 67, 0
1, 52656, Note_on_c, 1, 65, 127
1, 52656, Note_on_c, 1, 62, 127
1, 52656, Note_on_c, 1, 69, 127
1, 52656, Note_on_c, 1, 77, 127
1, 52656, Note_on_c, 1, 50, 127
1, 52656, Note_on_c, 1, 57, 127
1, 52677, Note_off_c, 1, 65, 0
1, 52680, Note_on_c, 1, 70, 127
1, 52698, Note_off_c, 1, 62, 0
1, 52698, Note_off_c, 1, 69, 0
1, 52698, Note_off_c, 1, 77, 0
1, 52698, Note_off_c, 1, 50, 0
1, 52698, Note_off_c, 1, 57, 0
1, 52701, Note_off_c, 1, 70, 0
1, 52704, Note_on_c, 1, 69, 127
1, 52704, Note_on_c, 1, 62, 127
1, 52704, Note_on_c, 1, 74, 127
1, 52704, Note_on_c, 1, 41, 127
1, 52704, Note_on_c, 1, 57, 127
1, 52725, Note_off_c, 1, 62, 0
1, 52728, Note_on_c, 1, 65, 127
1, 52746, Note_off_c, 1, 69, 0
1, 52746, Note_off_c, 1, 41, 0
1, 52746, Note_off_c, 1, 57, 0
1, 52749, Note_off_c, 1, 74, 0
1, 52749, Note_off_c, 1, 65, 0
1, 52752, Note_on_c, 1, 73, 127
1, 52752, Note_on_c, 1, 64, 127
1, 52752, Note_on_c, 1, 45, 127
1, 52752, Note_on_c, 1, 57, 127
1, 52776, Note_on_c, 1, 77, 127
1, 52776, Note_on_c, 1, 69, 127
1, 52794, Note_off_c, 1, 73, 0
1, 52794, Note_off_c, 1, 64, 0
1, 52794, Note_off_c, 1, 45, 0
1, 52794, Note_off_c, 1, 57, 0
1, 52797, Note_off_c, 1, 77, 0
1, 52797, Note_off_c, 1, 69, 0
1, 52800, Note_on_c, 1, 76, 127
1, 52800, Note_on_c, 1, 67, 127
1, 52800, Note_on_c, 1, 69, 127
1, 52800, Note_on_c, 1, 38, 127
1, 52800, Note_on_c, 1, 57, 127
1, 52821, Note_off_c, 1, 67, 0
1, 52824, Note_on_c, 1, 73, 127
1, 52824, Note_on_c, 1, 64, 127
1, 52842, Note_off_c, 1, 76, 0
1, 52842, Note_off_c, 1, 69, 0
1, 52842, Note_off_c, 1, 38, 0
1, 52842, Note_off_c, 1, 57, 0
1, 52845, Note_off_c, 1, 73, 0
1, 52845, Note_off_c, 1, 64, 0
1, 52848, Note_on_c, 1, 74, 127
1, 52848, Note_on_c, 1, 65, 127
1, 52848, Note_on_c, 1, 69, 127
1, 52848, Note_on_c, 1, 77, 127
1, 52848, Note_on_c, 1, 50, 127
1, 52848, Note_on_c, 1, 57, 127
1, 52890, Note_off_c, 1, 65, 0
1, 52890, Note_off_c, 1, 69, 0
1, 52890, Note_off_c, 1, 77, 0
1, 52890, Note_off_c, 1, 50, 0
1, 52890, Note_off_c, 1, 57, 0
1, 52896, Note_on_c, 1, 72, 127
1, 52896, Note_on_c, 1, 48, 127
1, 52911, Note_off_c, 1, 74, 0
1, 52938, Note_off_c, 1, 72, 0
1, 52938, Note_off_c, 1, 48, 0
1, 52944, Note_on_c, 1, 77, 127
1, 52944, Note_on_c, 1, 70, 127
1, 52944, Note_on_c, 1, 62, 127
1, 52944, Note_on_c, 1, 46, 127
1, 52963, Note_off_c, 1, 70, 0
1, 52963, Note_off_c, 1, 62, 0
1, 52963, Note_off_c, 1, 46, 0
1, 52965, Note_off_c, 1, 77, 0
1, 52968, Note_on_c, 1, 75, 127
1, 52978, Note_off_c, 1, 75, 0
1, 52980, Note_on_c, 1, 74, 127
1, 52990, Note_off_c, 1, 74, 0
1, 52992, Note_on_c, 1, 75, 127
1, 52992, Note_on_c, 1, 69, 127
1, 52992, Note_on_c, 1, 60, 127
1, 52992, Note_on_c, 1, 46, 127
1, 53011, Note_off_c, 1, 69, 0
1, 53011, Note_off_c, 1, 60, 0
1, 53011, Note_off_c, 1, 46, 0
1, 53013, Note_off_c, 1, 75, 0
1, 53016, Note_on_c, 1, 74, 127
1, 53026, Note_off_c, 1, 74, 0
1, 53028, Note_on_c, 1, 72, 127
1, 53038, Note_off_c, 1, 72, 0
1, 53040, Note_on_c, 1, 74, 127
1, 53040, Note_on_c, 1, 67, 127
1, 53040, Note_on_c, 1, 58, 127
1, 53040, Note_on_c, 1, 46, 127
1, 53059, Note_off_c, 1, 67, 0
1, 53059, Note_off_c, 1, 58, 0
1, 53059, Note_off_c, 1, 46, 0
1, 53061, Note_off_c, 1, 74, 0
1, 53064, Note_on_c, 1, 72, 127
1, 53074, Note_off_c, 1, 72, 0
1, 53076, Note_on_c, 1, 70, 127
1, 53086, Note_off_c, 1, 70, 0
1, 53088, Note_on_c, 1, 72, 127
1, 53088, Note_on_c, 1, 69, 127
1, 53088, Note_on_c, 1, 63, 127
1, 53088, Note_on_c, 1, 46, 127
1, 53107, Note_off_c, 1, 69, 0
1, 53107, Note_off_c, 1, 63, 0
1, 53107, Note_off_c, 1, 46, 0
1, 53109, Note_off_c, 1, 72, 0
1, 53112, Note_on_c, 1, 74, 127
1, 53122, Note_off_c, 1, 74, 0
1, 53124, Note_on_c, 1, 75, 127
1, 53134, Note_off_c, 1, 75, 0
1, 53136, Note_on_c, 1, 74, 127
1, 53136, Note_on_c, 1, 70, 127
1, 53136, Note_on_c, 1, 65, 127
1, 53136, Note_on_c, 1, 46, 127
1, 53155, Note_off_c, 1, 70, 0
1, 53155, Note_off_c, 1, 65, 0
1, 53155, Note_off_c, 1, 46, 0
1, 53157, Note_off_c, 1, 74, 0
1, 53160, Note_on_c, 1, 72, 127
1, 53170, Note_off_c, 1, 72, 0
1, 53172, Note_on_c, 1, 70, 127
1, 53182, Note_off_c, 1, 70, 0
1, 53184, Note_on_c, 1, 72, 127
1, 53184, Note_on_c, 1, 69, 127
1, 53184, Note_on_c, 1, 63, 127
1, 53184, Note_on_c, 1, 46, 127
1, 53203, Note_off_c, 1, 69, 0
1, 53203, Note_off_c, 1, 63, 0
1, 53203, Note_off_c, 1, 46, 0
1, 53205, Note_off_c, 1, 72, 0
1, 53208, Note_on_c, 1, 70, 127
1, 53218, Note_off_c, 1, 70, 0
1, 53220, Note_on_c, 1, 69, 127
1, 53230, Note_off_c, 1, 69, 0
1, 53232, Note_on_c, 1, 70, 127
1, 53232, Note_on_c, 1, 67, 127
1, 53232, Note_on_c, 1, 74, 127
1, 53232, Note_on_c, 1, 46, 127
1, 53232, Note_on_c, 1, 62, 127
1, 53251, Note_off_c, 1, 67, 0
1, 53251, Note_off_c, 1, 74, 0
1, 53251, Note_off_c, 1, 46, 0
1, 53251, Note_off_c, 1, 62, 0
1, 53253, Note_off_c, 1, 70, 0
1, 53256, Note_on_c, 1, 69, 127
1, 53266, Note_off_c, 1, 69, 0
1, 53268, Note_on_c, 1, 67, 127
1, 53278, Note_off_c, 1, 67, 0
1, 53280, Note_on_c, 1, 69, 127
1, 53280, Note_on_c, 1, 65, 127
1, 53280, Note_on_c, 1, 74, 127
1, 53280, Note_on_c, 1, 46, 127
1, 53280, Note_on_c, 1, 62, 127
1, 53299, Note_off_c, 1, 65, 0
1, 53299, Note_off_c, 1, 74, 0
1, 53299, Note_off_c, 1, 46, 0
1, 53299, Note_off_c, 1, 62, 0
1, 53301, Note_off_c, 1, 69, 0
1, 53304, Note_on_c, 1, 70, 127
1, 53314, Note_off_c, 1, 70, 0
1, 53316, Note_on_c, 1, 72, 127
1, 53326, Note_off_c, 1, 72, 0
1, 53328, Note_on_c, 1, 70, 127
1, 53328, Note_on_c, 1, 67, 127
1, 53328, Note_on_c, 1, 76, 127
1, 53328, Note_on_c, 1, 46, 127
1, 53328, Note_on_c, 1, 64, 127
1, 53347, Note_off_c, 1, 67, 0
1, 53347, Note_off_c, 1, 76, 0
1, 53347, Note_off_c, 1, 46, 0
1, 53347, Note_off_c, 1, 64, 0
1, 53349, Note_off_c, 1, 70, 0
1, 53352, Note_on_c, 1, 69, 127
1, 53362, Note_off_c, 1, 69, 0
1, 53364, Note_on_c, 1, 67, 127
1, 53374, Note_off_c, 1, 67, 0
1, 53376, Note_on_c, 1, 69, 127
1, 53376, Note_on_c, 1, 62, 127
1, 53376, Note_on_c, 1, 65, 127
1, 53376, Note_on_c, 1, 74, 127
1, 53376, Note_on_c, 1, 47, 127
1, 53395, Note_off_c, 1, 62, 0
1, 53395, Note_off_c, 1, 65, 0
1, 53395, Note_off_c, 1, 74, 0
1, 53397, Note_off_c, 1, 69, 0
1, 53400, Note_on_c, 1, 67, 127
1, 53410, Note_off_c, 1, 67, 0
1, 53418, Note_off_c, 1, 47, 0
1, 53424, Note_on_c, 1, 64, 127
1, 53424, Note_on_c, 1, 55, 127
1, 53424, Note_on_c, 1, 67, 127
1, 53424, Note_on_c, 1, 72, 127
1, 53424, Note_on_c, 1, 48, 127
1, 53424, Note_on_c, 1, 60, 127
1, 53443, Note_off_c, 1, 55, 0
1, 53443, Note_off_c, 1, 67, 0
1, 53443, Note_off_c, 1, 72, 0
1, 53443, Note_off_c, 1, 60, 0
1, 53445, Note_off_c, 1, 64, 0
1, 53445, Note_off_c, 1, 48, 0
1, 53448, Note_on_c, 1, 65, 127
1, 53448, Note_on_c, 1, 50, 127
1, 53458, Note_off_c, 1, 65, 0
1, 53460, Note_on_c, 1, 67, 127
1, 53469, Note_off_c, 1, 50, 0
1, 53470, Note_off_c, 1, 67, 0
1, 53472, Note_on_c, 1, 60, 127
1, 53472, Note_on_c, 1, 55, 127
1, 53472, Note_on_c, 1, 67, 127
1, 53472, Note_on_c, 1, 69, 127
1, 53472, Note_on_c, 1, 52, 127
1, 53491, Note_off_c, 1, 55, 0
1, 53491, Note_off_c, 1, 67, 0
1, 53491, Note_off_c, 1, 69, 0
1, 53493, Note_off_c, 1, 60, 0
1, 53493, Note_off_c, 1, 52, 0
1, 53496, Note_on_c, 1, 58, 127
1, 53496, Note_on_c, 1, 48, 127
1, 53517, Note_off_c, 1, 58, 0
1, 53517, Note_off_c, 1, 48, 0
1, 53520, Note_on_c, 1, 57, 127
1, 53520, Note_on_c, 1, 65, 127
1, 53520, Note_on_c, 1, 72, 127
1, 53520, Note_on_c, 1, 53, 127
1, 53541, Note_off_c, 1, 57, 0
1, 53544, Note_on_c, 1, 60, 127
1, 53562, Note_off_c, 1, 65, 0
1, 53562, Note_off_c, 1, 72, 0
1, 53562, Note_off_c, 1, 53, 0
1, 53565, Note_off_c, 1, 60, 0
1, 53568, Note_on_c, 1, 58, 127
1, 53568, Note_on_c, 1, 67, 127
1, 53568, Note_on_c, 1, 53, 127
1, 53568, Note_on_c, 1, 55, 127
1, 53589, Note_off_c, 1, 55, 0
1, 53592, Note_on_c, 1, 52, 127
1, 53610, Note_off_c, 1, 58, 0
1, 53610, Note_off_c, 1, 67, 0
1, 53610, Note_off_c, 1, 53, 0
1, 53613, Note_off_c, 1, 52, 0
1, 53616, Note_on_c, 1, 57, 127
1, 53616, Note_on_c, 1, 65, 127
1, 53616, Note_on_c, 1, 53, 127
1, 53640, Note_on_c, 1, 60, 127
1, 53658, Note_off_c, 1, 65, 0
1, 53658, Note_off_c, 1, 53, 0
1, 53661, Note_off_c, 1, 57, 0
1, 53661, Note_off_c, 1, 60, 0
1, 53664, Note_on_c, 1, 65, 127
1, 53664, Note_on_c, 1, 57, 127
1, 53664, Note_on_c, 1, 74, 127
1, 53664, Note_on_c, 1, 50, 127
1, 53664, Note_on_c, 1, 62, 127
1, 53685, Note_off_c, 1, 57, 0
1, 53685, Note_off_c, 1, 62, 0
1, 53688, Note_on_c, 1, 69, 127
1, 53706, Note_off_c, 1, 74, 0
1, 53706, Note_off_c, 1, 50, 0
1, 53709, Note_off_c, 1, 65, 0
1, 53709, Note_off_c, 1, 69, 0
1, 53712, Note_on_c, 1, 67, 127
1, 53712, Note_on_c, 1, 58, 127
1, 53712, Note_on_c, 1, 73, 127
1, 53712, Note_on_c, 1, 50, 127
1, 53712, Note_on_c, 1, 64, 127
1, 53733, Note_off_c, 1, 58, 0
1, 53733, Note_off_c, 1, 64, 0
1, 53736, Note_on_c, 1, 55, 127
1, 53736, Note_on_c, 1, 61, 127
1, 53754, Note_off_c, 1, 67, 0
1, 53754, Note_off_c, 1, 73, 0
1, 53754, Note_off_c, 1, 50, 0
1, 53757, Note_off_c, 1, 55, 0
1, 53757, Note_off_c, 1, 61, 0
1, 53760, Note_on_c, 1, 65, 127
1, 53760, Note_on_c, 1, 57, 127
1, 53760, Note_on_c, 1, 69, 127
1, 53760, Note_on_c, 1, 77, 127
1, 53760, Note_on_c, 1, 50, 127
1, 53760, Note_on_c, 1, 62, 127
1, 53781, Note_off_c, 1, 65, 0
1, 53781, Note_off_c, 1, 57, 0
1, 53781, Note_off_c, 1, 62, 0
1, 53802, Note_off_c, 1, 77, 0
1, 53802, Note_off_c, 1, 50, 0
1, 53805, Note_off_c, 1, 69, 0
1, 53808, Note_on_c, 1, 72, 127
1, 53808, Note_on_c, 1, 60, 127
1, 53808, Note_on_c, 1, 65, 127
1, 53808, Note_on_c, 1, 45, 127
1, 53808, Note_on_c, 1, 53, 127
1, 53850, Note_off_c, 1, 72, 0
1, 53850, Note_off_c, 1, 60, 0
1, 53850, Note_off_c, 1, 65, 0
1, 53850, Note_off_c, 1, 45, 0
1, 53850, Note_off_c, 1, 53, 0
1, 53856, Note_on_c, 1, 70, 127
1, 53856, Note_on_c, 1, 62, 127
1, 53856, Note_on_c, 1, 65, 127
1, 53856, Note_on_c, 1, 74, 127
1, 53856, Note_on_c, 1, 46, 127
1, 53856, Note_on_c, 1, 53, 127
1, 53877, Note_off_c, 1, 70, 0
1, 53877, Note_off_c, 1, 62, 0
1, 53880, Note_on_c, 1, 69, 127
1, 53880, Note_on_c, 1, 60, 127
1, 53898, Note_off_c, 1, 65, 0
1, 53898, Note_off_c, 1, 74, 0
1, 53898, Note_off_c, 1, 46, 0
1, 53898, Note_off_c, 1, 53, 0
1, 53901, Note_off_c, 1, 69, 0
1, 53901, Note_off_c, 1, 60, 0
1, 53904, Note_on_c, 1, 67, 127
1, 53904, Note_on_c, 1, 58, 127
1, 53904, Note_on_c, 1, 76, 127
1, 53904, Note_on_c, 1, 48, 127
1, 53904, Note_on_c, 1, 52, 127
1, 53925, Note_off_c, 1, 58, 0
1, 53928, Note_on_c, 1, 65, 127
1, 53928, Note_on_c, 1, 57, 127
1, 53946, Note_off_c, 1, 67, 0
1, 53946, Note_off_c, 1, 76, 0
1, 53946, Note_off_c, 1, 48, 0
1, 53946, Note_off_c, 1, 52, 0
1, 53949, Note_off_c, 1, 65, 0
1, 53949, Note_off_c, 1, 57, 0
1, 53952, Note_on_c, 1, 67, 127
1, 53952, Note_on_c, 1, 58, 127
1, 53952, Note_on_c, 1, 72, 127
1, 53952, Note_on_c, 1, 41, 127
1, 53952, Note_on_c, 1, 48, 127
1, 53971, Note_off_c, 1, 72, 0
1, 53971, Note_off_c, 1, 41, 0
1, 53971, Note_off_c, 1, 48, 0
1, 53973, Note_off_c, 1, 67, 0
1, 53973, Note_off_c, 1, 58, 0
1, 53976, Note_on_c, 1, 64, 127
1, 53976, Note_on_c, 1, 55, 127
1, 53985, Note_off_c, 1, 64, 0
1, 53985, Note_off_c, 1, 55, 0
1, 54000, Note_on_c, 1, 65, 127
1, 54000, Note_on_c, 1, 57, 127
1, 54000, Note_on_c, 1, 72, 127
1, 54000, Note_on_c, 1, 41, 127
1, 54000, Note_on_c, 1, 48, 127
1, 54084, Note_off_c, 1, 65, 0
1, 54084, Note_off_c, 1, 57, 0
1, 54084, Note_off_c, 1, 72, 0
1, 54084, Note_off_c, 1, 41, 0
1, 54084, Note_off_c, 1, 48, 0
1, 54084, End_track
0, 0, End_of_file