0, 0, Header, 1, 1, 480
1, 0, Start_track
1, 0, Title_t, "Test"
1, 0, Tempo, 500000
1, 0, Instrument_name_t, "Church Organ"
1, 96, Note_on_c, 1, 53, 127
1, 96, Note_on_c, 1, 72, 127
1, 96, Note_on_c, 1, 69, 127
1, 96, Note_on_c, 1, 65, 127
1, 96, Note_on_c, 1, 57, 127
1, 96, Note_on_c, 1, 45, 127
1, 180, Note_off_c, 1, 53, 0
1, 180, Note_off_c, 1, 72, 0
1, 180, Note_off_c, 1, 69, 0
1, 192, Note_on_c, 1, 75, 127
1, 192, Note_on_c, 1, 63, 127
1, 276, Note_off_c, 1, 65, 0
1, 276, Note_off_c, 1, 57, 0
1, 276, Note_off_c, 1, 45, 0
1, 276, Note_off_c, 1, 75, 0
1, 276, Note_off_c, 1, 63, 0
1, 288, Note_on_c, 1, 53, 127
1, 288, Note_on_c, 1, 74, 127
1, 288, Note_on_c, 1, 70, 127
1, 288, Note_on_c, 1, 65, 127
1, 288, Note_on_c, 1, 58, 127
1, 288, Note_on_c, 1, 46, 127
1, 330, Note_off_c, 1, 53, 0
1, 372, Note_off_c, 1, 74, 0
1, 372, Note_off_c, 1, 70, 0
1, 372, Note_off_c, 1, 65, 0
1, 372, Note_off_c, 1, 58, 0
1, 372, Note_off_c, 1, 46, 0
1, 384, Note_on_c, 1, 53, 127
1, 384, Note_on_c, 1, 72, 127
1, 384, Note_on_c, 1, 69, 127
1, 384, Note_on_c, 1, 63, 127
1, 384, Note_on_c, 1, 60, 127
1, 384, Note_on_c, 1, 65, 127
1, 384, Note_on_c, 1, 48, 127
1, 384, Note_on_c, 1, 75, 127
1, 394, Note_off_c, 1, 65, 0
1, 468, Note_off_c, 1, 53, 0
1, 468, Note_off_c, 1, 72, 0
1, 468, Note_off_c, 1, 69, 0
1, 468, Note_off_c, 1, 60, 0
1, 468, Note_off_c, 1, 48, 0
1, 468, Note_off_c, 1, 75, 0
1, 478, Note_off_c, 1, 63, 0
1, 480, Note_on_c, 1, 53, 127
1, 480, Note_on_c, 1, 70, 127
1, 480, Note_on_c, 1, 65, 127
1, 480, Note_on_c, 1, 62, 127
1, 480, Note_on_c, 1, 63, 127
1, 480, Note_on_c, 1, 51, 127
1, 480, Note_on_c, 1, 75, 127
1, 522, Note_off_c, 1, 53, 0
1, 522, Note_off_c, 1, 62, 0
1, 528, Note_on_c, 1, 69, 127
1, 528, Note_on_c, 1, 60, 127
1, 564, Note_off_c, 1, 70, 0
1, 564, Note_off_c, 1, 65, 0
1, 564, Note_off_c, 1, 63, 0
1, 564, Note_off_c, 1, 51, 0
1, 564, Note_off_c, 1, 75, 0
1, 570, Note_off_c, 1, 69, 0
1, 570, Note_off_c, 1, 60, 0
1, 576, Note_on_c, 1, 53, 127
1, 576, Note_on_c, 1, 70, 127
1, 576, Note_on_c, 1, 65, 127
1, 576, Note_on_c, 1, 62, 127
1, 576, Note_on_c, 1, 50, 127
1, 618, Note_off_c, 1, 53, 0
1, 660, Note_off_c, 1, 70, 0
1, 660, Note_off_c, 1, 65, 0
1, 660, Note_off_c, 1, 62, 0
1, 660, Note_off_c, 1, 50, 0
1, 672, Note_on_c, 1, 53, 127
1, 672, Note_on_c, 1, 72, 127
1, 672, Note_on_c, 1, 69, 127
1, 672, Note_on_c, 1, 63, 127
1, 672, Note_on_c, 1, 60, 127
1, 672, Note_on_c, 1, 48, 127
1, 672, Note_on_c, 1, 75, 127
1, 756, Note_off_c, 1, 53, 0
1, 756, Note_off_c, 1, 72, 0
1, 756, Note_off_c, 1, 69, 0
1, 756, Note_off_c, 1, 63, 0
1, 756, Note_off_c, 1, 60, 0
1, 756, Note_off_c, 1, 48, 0
1, 756, Note_off_c, 1, 75, 0
1, 768, Note_on_c, 1, 53, 127
1, 768, Note_on_c, 1, 75, 127
1, 768, Note_on_c, 1, 72, 127
1, 768, Note_on_c, 1, 60, 127
1, 768, Note_on_c, 1, 58, 127
1, 768, Note_on_c, 1, 46, 127
1, 768, Note_on_c, 1, 63, 127
1, 810, Note_off_c, 1, 53, 0
1, 810, Note_off_c, 1, 58, 0
1, 810, Note_off_c, 1, 46, 0
1, 816, Note_on_c, 1, 57, 127
1, 816, Note_on_c, 1, 45, 127
1, 852, Note_off_c, 1, 75, 0
1, 852, Note_off_c, 1, 72, 0
1, 852, Note_off_c, 1, 60, 0
1, 852, Note_off_c, 1, 63, 0
1, 858, Note_off_c, 1, 57, 0
1, 858, Note_off_c, 1, 45, 0
1, 864, Note_on_c, 1, 53, 127
1, 864, Note_on_c, 1, 74, 127
1, 864, Note_on_c, 1, 70, 127
1, 864, Note_on_c, 1, 65, 127
1, 864, Note_on_c, 1, 58, 127
1, 864, Note_on_c, 1, 46, 127
1, 906, Note_off_c, 1, 53, 0
1, 948, Note_off_c, 1, 74, 0
1, 948, Note_off_c, 1, 70, 0
1, 948, Note_off_c, 1, 65, 0
1, 948, Note_off_c, 1, 58, 0
1, 948, Note_off_c, 1, 46, 0
1, 960, Note_on_c, 1, 53, 127
1, 960, Note_on_c, 1, 74, 127
1, 960, Note_on_c, 1, 72, 127
1, 960, Note_on_c, 1, 65, 127
1, 960, Note_on_c, 1, 57, 127
1, 960, Note_on_c, 1, 45, 127
1, 970, Note_off_c, 1, 74, 0
1, 1044, Note_off_c, 1, 53, 0
1, 1044, Note_off_c, 1, 57, 0
1, 1044, Note_off_c, 1, 45, 0
1, 1054, Note_off_c, 1, 72, 0
1, 1056, Note_on_c, 1, 70, 127
1, 1056, Note_on_c, 1, 58, 127
1, 1056, Note_on_c, 1, 46, 127
1, 1098, Note_off_c, 1, 58, 0
1, 1098, Note_off_c, 1, 46, 0
1, 1140, Note_off_c, 1, 65, 0
1, 1140, Note_off_c, 1, 70, 0
1, 1152, Note_on_c, 1, 53, 127
1, 1152, Note_on_c, 1, 77, 127
1, 1152, Note_on_c, 1, 69, 127
1, 1152, Note_on_c, 1, 60, 127
1, 1152, Note_on_c, 1, 55, 127
1, 1152, Note_on_c, 1, 43, 127
1, 1194, Note_off_c, 1, 53, 0
1, 1194, Note_off_c, 1, 55, 0
1, 1194, Note_off_c, 1, 43, 0
1, 1200, Note_on_c, 1, 41, 127
1, 1236, Note_off_c, 1, 77, 0
1, 1236, Note_off_c, 1, 69, 0
1, 1236, Note_off_c, 1, 60, 0
1, 1242, Note_off_c, 1, 41, 0
1, 1248, Note_on_c, 1, 60, 127
1, 1248, Note_on_c, 1, 70, 127
1, 1248, Note_on_c, 1, 67, 127
1, 1248, Note_on_c, 1, 52, 127
1, 1248, Note_on_c, 1, 53, 127
1, 1248, Note_on_c, 1, 41, 127
1, 1248, Note_on_c, 1, 72, 127
1, 1258, Note_off_c, 1, 53, 0
1, 1258, Note_off_c, 1, 41, 0
1, 1260, Note_on_c, 1, 40, 127
1, 1270, Note_off_c, 1, 40, 0
1, 1332, Note_off_c, 1, 70, 0
1, 1332, Note_off_c, 1, 72, 0
1, 1428, Note_off_c, 1, 67, 0
1, 1434, Note_off_c, 1, 60, 0
1, 1438, Note_off_c, 1, 52, 0
1, 1440, Note_on_c, 1, 60, 127
1, 1440, Note_on_c, 1, 69, 127
1, 1440, Note_on_c, 1, 65, 127
1, 1440, Note_on_c, 1, 53, 127
1, 1440, Note_on_c, 1, 41, 127
1, 1524, Note_off_c, 1, 69, 0
1, 1524, Note_off_c, 1, 65, 0
1, 1524, Note_off_c, 1, 53, 0
1, 1524, Note_off_c, 1, 41, 0
1, 1530, Note_off_c, 1, 60, 0
1, 1536, Note_on_c, 1, 60, 127
1, 1536, Note_on_c, 1, 70, 127
1, 1536, Note_on_c, 1, 64, 127
1, 1536, Note_on_c, 1, 55, 127
1, 1536, Note_on_c, 1, 43, 127
1, 1584, Note_on_c, 1, 65, 127
1, 1620, Note_off_c, 1, 60, 0
1, 1620, Note_off_c, 1, 70, 0
1, 1620, Note_off_c, 1, 64, 0
1, 1620, Note_off_c, 1, 55, 0
1, 1620, Note_off_c, 1, 43, 0
1, 1626, Note_off_c, 1, 65, 0
1, 1632, Note_on_c, 1, 60, 127
1, 1632, Note_on_c, 1, 74, 127
1, 1632, Note_on_c, 1, 67, 127
1, 1632, Note_on_c, 1, 69, 127
1, 1632, Note_on_c, 1, 53, 127
1, 1632, Note_on_c, 1, 57, 127
1, 1632, Note_on_c, 1, 41, 127
1, 1632, Note_on_c, 1, 62, 127
1, 1642, Note_off_c, 1, 67, 0
1, 1644, Note_on_c, 1, 65, 127
1, 1654, Note_off_c, 1, 65, 0
1, 1674, Note_off_c, 1, 60, 0
1, 1674, Note_off_c, 1, 53, 0
1, 1674, Note_off_c, 1, 41, 0
1, 1680, Note_on_c, 1, 52, 127
1, 1680, Note_on_c, 1, 40, 127
1, 1716, Note_off_c, 1, 69, 0
1, 1716, Note_off_c, 1, 57, 0
1, 1716, Note_off_c, 1, 62, 0
1, 1722, Note_off_c, 1, 52, 0
1, 1722, Note_off_c, 1, 40, 0
1, 1776, Note_on_c, 1, 64, 127
1, 1797, Note_off_c, 1, 64, 0
1, 1812, Note_off_c, 1, 74, 0
1, 1824, Note_on_c, 1, 60, 127
1, 1824, Note_on_c, 1, 70, 127
1, 1824, Note_on_c, 1, 67, 127
1, 1824, Note_on_c, 1, 52, 127
1, 1824, Note_on_c, 1, 72, 127
1, 1824, Note_on_c, 1, 40, 127
1, 1908, Note_off_c, 1, 67, 0
1, 1908, Note_off_c, 1, 52, 0
1, 1908, Note_off_c, 1, 72, 0
1, 1908, Note_off_c, 1, 40, 0
1, 1918, Note_off_c, 1, 70, 0
1, 1920, Note_on_c, 1, 69, 127
1, 1920, Note_on_c, 1, 65, 127
1, 1920, Note_on_c, 1, 53, 127
1, 1920, Note_on_c, 1, 41, 127
1, 1962, Note_off_c, 1, 53, 0
1, 1962, Note_off_c, 1, 41, 0
1, 2004, Note_off_c, 1, 69, 0
1, 2004, Note_off_c, 1, 65, 0
1, 2010, Note_off_c, 1, 60, 0
1, 2016, Note_on_c, 1, 60, 127
1, 2016, Note_on_c, 1, 72, 127
1, 2016, Note_on_c, 1, 64, 127
1, 2016, Note_on_c, 1, 50, 127
1, 2016, Note_on_c, 1, 38, 127
1, 2058, Note_off_c, 1, 50, 0
1, 2058, Note_off_c, 1, 38, 0
1, 2064, Note_on_c, 1, 48, 127
1, 2064, Note_on_c, 1, 36, 127
1, 2100, Note_off_c, 1, 72, 0
1, 2100, Note_off_c, 1, 64, 0
1, 2106, Note_off_c, 1, 60, 0
1, 2106, Note_off_c, 1, 48, 0
1, 2106, Note_off_c, 1, 36, 0
1, 2112, Note_on_c, 1, 60, 127
1, 2112, Note_on_c, 1, 69, 127
1, 2112, Note_on_c, 1, 65, 127
1, 2112, Note_on_c, 1, 53, 127
1, 2112, Note_on_c, 1, 70, 127
1, 2112, Note_on_c, 1, 41, 127
1, 2122, Note_off_c, 1, 70, 0
1, 2196, Note_off_c, 1, 53, 0
1, 2196, Note_off_c, 1, 41, 0
1, 2208, Note_on_c, 1, 52, 127
1, 2208, Note_on_c, 1, 40, 127
1, 2208, Note_on_c, 1, 72, 127
1, 2250, Note_off_c, 1, 52, 0
1, 2250, Note_off_c, 1, 40, 0
1, 2256, Note_on_c, 1, 50, 127
1, 2256, Note_on_c, 1, 38, 127
1, 2292, Note_off_c, 1, 65, 0
1, 2292, Note_off_c, 1, 72, 0
1, 2298, Note_off_c, 1, 60, 0
1, 2298, Note_off_c, 1, 50, 0
1, 2298, Note_off_c, 1, 38, 0
1, 2302, Note_off_c, 1, 69, 0
1, 2304, Note_on_c, 1, 60, 127
1, 2304, Note_on_c, 1, 67, 127
1, 2304, Note_on_c, 1, 52, 127
1, 2304, Note_on_c, 1, 40, 127
1, 2304, Note_on_c, 1, 72, 127
1, 2388, Note_off_c, 1, 67, 0
1, 2388, Note_off_c, 1, 52, 0
1, 2388, Note_off_c, 1, 40, 0
1, 2388, Note_off_c, 1, 72, 0
1, 2394, Note_off_c, 1, 60, 0
1, 2400, Note_on_c, 1, 67, 127
1, 2400, Note_on_c, 1, 71, 127
1, 2400, Note_on_c, 1, 65, 127
1, 2400, Note_on_c, 1, 62, 127
1, 2400, Note_on_c, 1, 50, 127
1, 2400, Note_on_c, 1, 64, 127
1, 2400, Note_on_c, 1, 38, 127
1, 2410, Note_off_c, 1, 64, 0
1, 2448, Note_on_c, 1, 72, 127
1, 2484, Note_off_c, 1, 67, 0
1, 2484, Note_off_c, 1, 71, 0
1, 2484, Note_off_c, 1, 65, 0
1, 2484, Note_off_c, 1, 50, 0
1, 2484, Note_off_c, 1, 38, 0
1, 2490, Note_off_c, 1, 72, 0
1, 2494, Note_off_c, 1, 62, 0
1, 2496, Note_on_c, 1, 67, 127
1, 2496, Note_on_c, 1, 74, 127
1, 2496, Note_on_c, 1, 60, 127
1, 2496, Note_on_c, 1, 52, 127
1, 2496, Note_on_c, 1, 40, 127
1, 2496, Note_on_c, 1, 72, 127
1, 2506, Note_off_c, 1, 74, 0
1, 2538, Note_off_c, 1, 60, 0
1, 2544, Note_on_c, 1, 62, 127
1, 2580, Note_off_c, 1, 52, 0
1, 2580, Note_off_c, 1, 40, 0
1, 2586, Note_off_c, 1, 62, 0
1, 2590, Note_off_c, 1, 72, 0
1, 2592, Note_on_c, 1, 64, 127
1, 2592, Note_on_c, 1, 48, 127
1, 2592, Note_on_c, 1, 36, 127
1, 2592, Note_on_c, 1, 76, 127
1, 2640, Note_on_c, 1, 71, 127
1, 2661, Note_off_c, 1, 71, 0
1, 2676, Note_off_c, 1, 64, 0
1, 2676, Note_off_c, 1, 48, 0
1, 2676, Note_off_c, 1, 36, 0
1, 2676, Note_off_c, 1, 76, 0
1, 2682, Note_off_c, 1, 67, 0
1, 2688, Note_on_c, 1, 67, 127
1, 2688, Note_on_c, 1, 74, 127
1, 2688, Note_on_c, 1, 62, 127
1, 2688, Note_on_c, 1, 47, 127
1, 2688, Note_on_c, 1, 35, 127
1, 2772, Note_off_c, 1, 74, 0
1, 2772, Note_off_c, 1, 47, 0
1, 2772, Note_off_c, 1, 35, 0
1, 2784, Note_on_c, 1, 72, 127
1, 2784, Note_on_c, 1, 45, 127
1, 2784, Note_on_c, 1, 33, 127
1, 2826, Note_off_c, 1, 45, 0
1, 2826, Note_off_c, 1, 33, 0
1, 2832, Note_on_c, 1, 71, 127
1, 2832, Note_on_c, 1, 43, 127
1, 2832, Note_on_c, 1, 31, 127
1, 2868, Note_off_c, 1, 62, 0
1, 2868, Note_off_c, 1, 72, 0
1, 2874, Note_off_c, 1, 67, 0
1, 2874, Note_off_c, 1, 71, 0
1, 2874, Note_off_c, 1, 43, 0
1, 2874, Note_off_c, 1, 31, 0
1, 2880, Note_on_c, 1, 67, 127
1, 2880, Note_on_c, 1, 72, 127
1, 2880, Note_on_c, 1, 64, 127
1, 2880, Note_on_c, 1, 41, 127
1, 2880, Note_on_c, 1, 29, 127
1, 2922, Note_off_c, 1, 41, 0
1, 2922, Note_off_c, 1, 29, 0
1, 2928, Note_on_c, 1, 40, 127
1, 2928, Note_on_c, 1, 28, 127
1, 2964, Note_off_c, 1, 72, 0
1, 2964, Note_off_c, 1, 64, 0
1, 2970, Note_off_c, 1, 67, 0
1, 2970, Note_off_c, 1, 40, 0
1, 2970, Note_off_c, 1, 28, 0
1, 2976, Note_on_c, 1, 72, 127
1, 2976, Note_on_c, 1, 69, 127
1, 2976, Note_on_c, 1, 77, 127
1, 2976, Note_on_c, 1, 60, 127
1, 2976, Note_on_c, 1, 45, 127
1, 2976, Note_on_c, 1, 33, 127
1, 2976, Note_on_c, 1, 65, 127
1, 3018, Note_off_c, 1, 77, 0
1, 3018, Note_off_c, 1, 45, 0
1, 3018, Note_off_c, 1, 33, 0
1, 3024, Note_on_c, 1, 71, 127
1, 3024, Note_on_c, 1, 79, 127
1, 3024, Note_on_c, 1, 41, 127
1, 3024, Note_on_c, 1, 29, 127
1, 3060, Note_off_c, 1, 72, 0
1, 3060, Note_off_c, 1, 69, 0
1, 3060, Note_off_c, 1, 60, 0
1, 3060, Note_off_c, 1, 65, 0
1, 3066, Note_off_c, 1, 71, 0
1, 3066, Note_off_c, 1, 79, 0
1, 3066, Note_off_c, 1, 41, 0
1, 3066, Note_off_c, 1, 29, 0
1, 3072, Note_on_c, 1, 71, 127
1, 3072, Note_on_c, 1, 67, 127
1, 3072, Note_on_c, 1, 74, 127
1, 3072, Note_on_c, 1, 72, 127
1, 3072, Note_on_c, 1, 43, 127
1, 3072, Note_on_c, 1, 31, 127
1, 3072, Note_on_c, 1, 62, 127
1, 3072, Note_on_c, 1, 70, 127
1, 3082, Note_off_c, 1, 72, 0
1, 3156, Note_off_c, 1, 43, 0
1, 3156, Note_off_c, 1, 31, 0
1, 3156, Note_off_c, 1, 62, 0
1, 3156, Note_off_c, 1, 70, 0
1, 3162, Note_off_c, 1, 67, 0
1, 3168, Note_on_c, 1, 65, 127
1, 3204, Note_off_c, 1, 74, 0
1, 3214, Note_off_c, 1, 71, 0
1, 3252, Note_off_c, 1, 65, 0
1, 3264, Note_on_c, 1, 72, 127
1, 3264, Note_on_c, 1, 67, 127
1, 3264, Note_on_c, 1, 64, 127
1, 3264, Note_on_c, 1, 36, 127
1, 3264, Note_on_c, 1, 24, 127
1, 3264, Note_on_c, 1, 76, 127
1, 3348, Note_off_c, 1, 36, 0
1, 3348, Note_off_c, 1, 24, 0
1, 3348, Note_off_c, 1, 76, 0
1, 3360, Note_on_c, 1, 48, 127
1, 3360, Note_on_c, 1, 60, 127
1, 3402, Note_off_c, 1, 48, 0
1, 3402, Note_off_c, 1, 60, 0
1, 3408, Note_on_c, 1, 46, 127
1, 3408, Note_on_c, 1, 34, 127
1, 3408, Note_on_c, 1, 58, 127
1, 3450, Note_off_c, 1, 46, 0
1, 3450, Note_off_c, 1, 34, 0
1, 3450, Note_off_c, 1, 58, 0
1, 3456, Note_on_c, 1, 45, 127
1, 3456, Note_on_c, 1, 33, 127
1, 3456, Note_on_c, 1, 57, 127
1, 3498, Note_off_c, 1, 45, 0
1, 3498, Note_off_c, 1, 33, 0
1, 3498, Note_off_c, 1, 57, 0
1, 3504, Note_on_c, 1, 43, 127
1, 3504, Note_on_c, 1, 31, 127
1, 3504, Note_on_c, 1, 55, 127
1, 3540, Note_off_c, 1, 72, 0
1, 3540, Note_off_c, 1, 67, 0
1, 3540, Note_off_c, 1, 64, 0
1, 3546, Note_off_c, 1, 43, 0
1, 3546, Note_off_c, 1, 31, 0
1, 3546, Note_off_c, 1, 55, 0
1, 3552, Note_on_c, 1, 53, 127
1, 3552, Note_on_c, 1, 72, 127
1, 3552, Note_on_c, 1, 69, 127
1, 3552, Note_on_c, 1, 65, 127
1, 3552, Note_on_c, 1, 41, 127
1, 3552, Note_on_c, 1, 29, 127
1, 3552, Note_on_c, 1, 60, 127
1, 3636, Note_off_c, 1, 53, 0
1, 3636, Note_off_c, 1, 72, 0
1, 3636, Note_off_c, 1, 69, 0
1, 3636, Note_off_c, 1, 41, 0
1, 3636, Note_off_c, 1, 29, 0
1, 3636, Note_off_c, 1, 60, 0
1, 3648, Note_on_c, 1, 75, 127
1, 3648, Note_on_c, 1, 57, 127
1, 3648, Note_on_c, 1, 45, 127
1, 3648, Note_on_c, 1, 63, 127
1, 3732, Note_off_c, 1, 65, 0
1, 3732, Note_off_c, 1, 75, 0
1, 3732, Note_off_c, 1, 57, 0
1, 3732, Note_off_c, 1, 45, 0
1, 3732, Note_off_c, 1, 63, 0
1, 3744, Note_on_c, 1, 53, 127
1, 3744, Note_on_c, 1, 74, 127
1, 3744, Note_on_c, 1, 70, 127
1, 3744, Note_on_c, 1, 65, 127
1, 3744, Note_on_c, 1, 58, 127
1, 3744, Note_on_c, 1, 46, 127
1, 3786, Note_off_c, 1, 53, 0
1, 3828, Note_off_c, 1, 74, 0
1, 3828, Note_off_c, 1, 70, 0
1, 3828, Note_off_c, 1, 65, 0
1, 3828, Note_off_c, 1, 58, 0
1, 3828, Note_off_c, 1, 46, 0
1, 3840, Note_on_c, 1, 53, 127
1, 3840, Note_on_c, 1, 72, 127
1, 3840, Note_on_c, 1, 69, 127
1, 3840, Note_on_c, 1, 63, 127
1, 3840, Note_on_c, 1, 60, 127
1, 3840, Note_on_c, 1, 65, 127
1, 3840, Note_on_c, 1, 48, 127
1, 3840, Note_on_c, 1, 75, 127
1, 3850, Note_off_c, 1, 65, 0
1, 3924, Note_off_c, 1, 53, 0
1, 3924, Note_off_c, 1, 72, 0
1, 3924, Note_off_c, 1, 69, 0
1, 3924, Note_off_c, 1, 60, 0
1, 3924, Note_off_c, 1, 48, 0
1, 3924, Note_off_c, 1, 75, 0
1, 3934, Note_off_c, 1, 63, 0
1, 3936, Note_on_c, 1, 53, 127
1, 3936, Note_on_c, 1, 70, 127
1, 3936, Note_on_c, 1, 65, 127
1, 3936, Note_on_c, 1, 62, 127
1, 3936, Note_on_c, 1, 63, 127
1, 3936, Note_on_c, 1, 51, 127
1, 3936, Note_on_c, 1, 75, 127
1, 3978, Note_off_c, 1, 53, 0
1, 3978, Note_off_c, 1, 62, 0
1, 3984, Note_on_c, 1, 69, 127
1, 3984, Note_on_c, 1, 60, 127
1, 4020, Note_off_c, 1, 70, 0
1, 4020, Note_off_c, 1, 65, 0
1, 4020, Note_off_c, 1, 63, 0
1, 4020, Note_off_c, 1, 51, 0
1, 4020, Note_off_c, 1, 75, 0
1, 4026, Note_off_c, 1, 69, 0
1, 4026, Note_off_c, 1, 60, 0
1, 4032, Note_on_c, 1, 53, 127
1, 4032, Note_on_c, 1, 70, 127
1, 4032, Note_on_c, 1, 65, 127
1, 4032, Note_on_c, 1, 62, 127
1, 4032, Note_on_c, 1, 50, 127
1, 4074, Note_off_c, 1, 53, 0
1, 4116, Note_off_c, 1, 70, 0
1, 4116, Note_off_c, 1, 65, 0
1, 4116, Note_off_c, 1, 62, 0
1, 4116, Note_off_c, 1, 50, 0
1, 4128, Note_on_c, 1, 53, 127
1, 4128, Note_on_c, 1, 72, 127
1, 4128, Note_on_c, 1, 69, 127
1, 4128, Note_on_c, 1, 63, 127
1, 4128, Note_on_c, 1, 60, 127
1, 4128, Note_on_c, 1, 48, 127
1, 4128, Note_on_c, 1, 75, 127
1, 4212, Note_off_c, 1, 53, 0
1, 4212, Note_off_c, 1, 72, 0
1, 4212, Note_off_c, 1, 69, 0
1, 4212, Note_off_c, 1, 63, 0
1, 4212, Note_off_c, 1, 60, 0
1, 4212, Note_off_c, 1, 48, 0
1, 4212, Note_off_c, 1, 75, 0
1, 4224, Note_on_c, 1, 53, 127
1, 4224, Note_on_c, 1, 75, 127
1, 4224, Note_on_c, 1, 72, 127
1, 4224, Note_on_c, 1, 60, 127
1, 4224, Note_on_c, 1, 58, 127
1, 4224, Note_on_c, 1, 46, 127
1, 4224, Note_on_c, 1, 63, 127
1, 4266, Note_off_c, 1, 53, 0
1, 4266, Note_off_c, 1, 58, 0
1, 4266, Note_off_c, 1, 46, 0
1, 4272, Note_on_c, 1, 57, 127
1, 4272, Note_on_c, 1, 45, 127
1, 4308, Note_off_c, 1, 75, 0
1, 4308, Note_off_c, 1, 72, 0
1, 4308, Note_off_c, 1, 60, 0
1, 4308, Note_off_c, 1, 63, 0
1, 4314, Note_off_c, 1, 57, 0
1, 4314, Note_off_c, 1, 45, 0
1, 4320, Note_on_c, 1, 53, 127
1, 4320, Note_on_c, 1, 74, 127
1, 4320, Note_on_c, 1, 70, 127
1, 4320, Note_on_c, 1, 65, 127
1, 4320, Note_on_c, 1, 58, 127
1, 4320, Note_on_c, 1, 46, 127
1, 4362, Note_off_c, 1, 53, 0
1, 4404, Note_off_c, 1, 74, 0
1, 4404, Note_off_c, 1, 70, 0
1, 4404, Note_off_c, 1, 65, 0
1, 4404, Note_off_c, 1, 58, 0
1, 4404, Note_off_c, 1, 46, 0
1, 4416, Note_on_c, 1, 53, 127
1, 4416, Note_on_c, 1, 74, 127
1, 4416, Note_on_c, 1, 72, 127
1, 4416, Note_on_c, 1, 65, 127
1, 4416, Note_on_c, 1, 57, 127
1, 4416, Note_on_c, 1, 45, 127
1, 4426, Note_off_c, 1, 74, 0
1, 4500, Note_off_c, 1, 53, 0
1, 4500, Note_off_c, 1, 57, 0
1, 4500, Note_off_c, 1, 45, 0
1, 4510, Note_off_c, 1, 72, 0
1, 4512, Note_on_c, 1, 70, 127
1, 4512, Note_on_c, 1, 58, 127
1, 4512, Note_on_c, 1, 46, 127
1, 4554, Note_off_c, 1, 58, 0
1, 4554, Note_off_c, 1, 46, 0
1, 4596, Note_off_c, 1, 65, 0
1, 4596, Note_off_c, 1, 70, 0
1, 4608, Note_on_c, 1, 53, 127
1, 4608, Note_on_c, 1, 77, 127
1, 4608, Note_on_c, 1, 69, 127
1, 4608, Note_on_c, 1, 60, 127
1, 4608, Note_on_c, 1, 55, 127
1, 4608, Note_on_c, 1, 43, 127
1, 4650, Note_off_c, 1, 53, 0
1, 4650, Note_off_c, 1, 55, 0
1, 4650, Note_off_c, 1, 43, 0
1, 4656, Note_on_c, 1, 41, 127
1, 4692, Note_off_c, 1, 77, 0
1, 4692, Note_off_c, 1, 69, 0
1, 4692, Note_off_c, 1, 60, 0
1, 4698, Note_off_c, 1, 41, 0
1, 4704, Note_on_c, 1, 60, 127
1, 4704, Note_on_c, 1, 70, 127
1, 4704, Note_on_c, 1, 67, 127
1, 4704, Note_on_c, 1, 52, 127
1, 4704, Note_on_c, 1, 53, 127
1, 4704, Note_on_c, 1, 41, 127
1, 4704, Note_on_c, 1, 72, 127
1, 4714, Note_off_c, 1, 53, 0
1, 4714, Note_off_c, 1, 41, 0
1, 4716, Note_on_c, 1, 40, 127
1, 4726, Note_off_c, 1, 40, 0
1, 4788, Note_off_c, 1, 70, 0
1, 4788, Note_off_c, 1, 72, 0
1, 4884, Note_off_c, 1, 67, 0
1, 4890, Note_off_c, 1, 60, 0
1, 4894, Note_off_c, 1, 52, 0
1, 4896, Note_on_c, 1, 60, 127
1, 4896, Note_on_c, 1, 69, 127
1, 4896, Note_on_c, 1, 65, 127
1, 4896, Note_on_c, 1, 53, 127
1, 4896, Note_on_c, 1, 41, 127
1, 4980, Note_off_c, 1, 69, 0
1, 4980, Note_off_c, 1, 65, 0
1, 4980, Note_off_c, 1, 53, 0
1, 4980, Note_off_c, 1, 41, 0
1, 4986, Note_off_c, 1, 60, 0
1, 4992, Note_on_c, 1, 60, 127
1, 4992, Note_on_c, 1, 70, 127
1, 4992, Note_on_c, 1, 64, 127
1, 4992, Note_on_c, 1, 55, 127
1, 4992, Note_on_c, 1, 43, 127
1, 5040, Note_on_c, 1, 65, 127
1, 5076, Note_off_c, 1, 60, 0
1, 5076, Note_off_c, 1, 70, 0
1, 5076, Note_off_c, 1, 64, 0
1, 5076, Note_off_c, 1, 55, 0
1, 5076, Note_off_c, 1, 43, 0
1, 5082, Note_off_c, 1, 65, 0
1, 5088, Note_on_c, 1, 60, 127
1, 5088, Note_on_c, 1, 74, 127
1, 5088, Note_on_c, 1, 67, 127
1, 5088, Note_on_c, 1, 69, 127
1, 5088, Note_on_c, 1, 53, 127
1, 5088, Note_on_c, 1, 57, 127
1, 5088, Note_on_c, 1, 41, 127
1, 5088, Note_on_c, 1, 62, 127
1, 5098, Note_off_c, 1, 67, 0
1, 5100, Note_on_c, 1, 65, 127
1, 5110, Note_off_c, 1, 65, 0
1, 5130, Note_off_c, 1, 60, 0
1, 5130, Note_off_c, 1, 53, 0
1, 5130, Note_off_c, 1, 41, 0
1, 5136, Note_on_c, 1, 52, 127
1, 5136, Note_on_c, 1, 40, 127
1, 5172, Note_off_c, 1, 69, 0
1, 5172, Note_off_c, 1, 57, 0
1, 5172, Note_off_c, 1, 62, 0
1, 5178, Note_off_c, 1, 52, 0
1, 5178, Note_off_c, 1, 40, 0
1, 5232, Note_on_c, 1, 64, 127
1, 5253, Note_off_c, 1, 64, 0
1, 5268, Note_off_c, 1, 74, 0
1, 5280, Note_on_c, 1, 60, 127
1, 5280, Note_on_c, 1, 70, 127
1, 5280, Note_on_c, 1, 67, 127
1, 5280, Note_on_c, 1, 52, 127
1, 5280, Note_on_c, 1, 72, 127
1, 5280, Note_on_c, 1, 40, 127
1, 5364, Note_off_c, 1, 67, 0
1, 5364, Note_off_c, 1, 52, 0
1, 5364, Note_off_c, 1, 72, 0
1, 5364, Note_off_c, 1, 40, 0
1, 5374, Note_off_c, 1, 70, 0
1, 5376, Note_on_c, 1, 69, 127
1, 5376, Note_on_c, 1, 65, 127
1, 5376, Note_on_c, 1, 53, 127
1, 5376, Note_on_c, 1, 41, 127
1, 5418, Note_off_c, 1, 53, 0
1, 5418, Note_off_c, 1, 41, 0
1, 5460, Note_off_c, 1, 69, 0
1, 5460, Note_off_c, 1, 65, 0
1, 5466, Note_off_c, 1, 60, 0
1, 5472, Note_on_c, 1, 60, 127
1, 5472, Note_on_c, 1, 72, 127
1, 5472, Note_on_c, 1, 64, 127
1, 5472, Note_on_c, 1, 50, 127
1, 5472, Note_on_c, 1, 38, 127
1, 5514, Note_off_c, 1, 50, 0
1, 5514, Note_off_c, 1, 38, 0
1, 5520, Note_on_c, 1, 48, 127
1, 5520, Note_on_c, 1, 36, 127
1, 5556, Note_off_c, 1, 72, 0
1, 5556, Note_off_c, 1, 64, 0
1, 5562, Note_off_c, 1, 60, 0
1, 5562, Note_off_c, 1, 48, 0
1, 5562, Note_off_c, 1, 36, 0
1, 5568, Note_on_c, 1, 60, 127
1, 5568, Note_on_c, 1, 69, 127
1, 5568, Note_on_c, 1, 65, 127
1, 5568, Note_on_c, 1, 53, 127
1, 5568, Note_on_c, 1, 70, 127
1, 5568, Note_on_c, 1, 41, 127
1, 5578, Note_off_c, 1, 70, 0
1, 5652, Note_off_c, 1, 53, 0
1, 5652, Note_off_c, 1, 41, 0
1, 5664, Note_on_c, 1, 52, 127
1, 5664, Note_on_c, 1, 40, 127
1, 5664, Note_on_c, 1, 72, 127
1, 5706, Note_off_c, 1, 52, 0
1, 5706, Note_off_c, 1, 40, 0
1, 5712, Note_on_c, 1, 50, 127
1, 5712, Note_on_c, 1, 38, 127
1, 5748, Note_off_c, 1, 65, 0
1, 5748, Note_off_c, 1, 72, 0
1, 5754, Note_off_c, 1, 60, 0
1, 5754, Note_off_c, 1, 50, 0
1, 5754, Note_off_c, 1, 38, 0
1, 5758, Note_off_c, 1, 69, 0
1, 5760, Note_on_c, 1, 60, 127
1, 5760, Note_on_c, 1, 67, 127
1, 5760, Note_on_c, 1, 52, 127
1, 5760, Note_on_c, 1, 40, 127
1, 5760, Note_on_c, 1, 72, 127
1, 5844, Note_off_c, 1, 67, 0
1, 5844, Note_off_c, 1, 52, 0
1, 5844, Note_off_c, 1, 40, 0
1, 5844, Note_off_c, 1, 72, 0
1, 5850, Note_off_c, 1, 60, 0
1, 5856, Note_on_c, 1, 67, 127
1, 5856, Note_on_c, 1, 71, 127
1, 5856, Note_on_c, 1, 65, 127
1, 5856, Note_on_c, 1, 62, 127
1, 5856, Note_on_c, 1, 50, 127
1, 5856, Note_on_c, 1, 64, 127
1, 5856, Note_on_c, 1, 38, 127
1, 5866, Note_off_c, 1, 64, 0
1, 5904, Note_on_c, 1, 72, 127
1, 5940, Note_off_c, 1, 67, 0
1, 5940, Note_off_c, 1, 71, 0
1, 5940, Note_off_c, 1, 65, 0
1, 5940, Note_off_c, 1, 50, 0
1, 5940, Note_off_c, 1, 38, 0
1, 5946, Note_off_c, 1, 72, 0
1, 5950, Note_off_c, 1, 62, 0
1, 5952, Note_on_c, 1, 67, 127
1, 5952, Note_on_c, 1, 74, 127
1, 5952, Note_on_c, 1, 60, 127
1, 5952, Note_on_c, 1, 52, 127
1, 5952, Note_on_c, 1, 40, 127
1, 5952, Note_on_c, 1, 72, 127
1, 5962, Note_off_c, 1, 74, 0
1, 5994, Note_off_c, 1, 60, 0
1, 6000, Note_on_c, 1, 62, 127
1, 6036, Note_off_c, 1, 52, 0
1, 6036, Note_off_c, 1, 40, 0
1, 6042, Note_off_c, 1, 62, 0
1, 6046, Note_off_c, 1, 72, 0
1, 6048, Note_on_c, 1, 64, 127
1, 6048, Note_on_c, 1, 48, 127
1, 6048, Note_on_c, 1, 36, 127
1, 6048, Note_on_c, 1, 76, 127
1, 6096, Note_on_c, 1, 71, 127
1, 6117, Note_off_c, 1, 71, 0
1, 6132, Note_off_c, 1, 64, 0
1, 6132, Note_off_c, 1, 48, 0
1, 6132, Note_off_c, 1, 36, 0
1, 6132, Note_off_c, 1, 76, 0
1, 6138, Note_off_c, 1, 67, 0
1, 6144, Note_on_c, 1, 67, 127
1, 6144, Note_on_c, 1, 74, 127
1, 6144, Note_on_c, 1, 62, 127
1, 6144, Note_on_c, 1, 47, 127
1, 6144, Note_on_c, 1, 35, 127
1, 6228, Note_off_c, 1, 74, 0
1, 6228, Note_off_c, 1, 47, 0
1, 6228, Note_off_c, 1, 35, 0
1, 6240, Note_on_c, 1, 72, 127
1, 6240, Note_on_c, 1, 45, 127
1, 6240, Note_on_c, 1, 33, 127
1, 6282, Note_off_c, 1, 45, 0
1, 6282, Note_off_c, 1, 33, 0
1, 6288, Note_on_c, 1, 71, 127
1, 6288, Note_on_c, 1, 43, 127
1, 6288, Note_on_c, 1, 31, 127
1, 6324, Note_off_c, 1, 62, 0
1, 6324, Note_off_c, 1, 72, 0
1, 6330, Note_off_c, 1, 67, 0
1, 6330, Note_off_c, 1, 71, 0
1, 6330, Note_off_c, 1, 43, 0
1, 6330, Note_off_c, 1, 31, 0
1, 6336, Note_on_c, 1, 67, 127
1, 6336, Note_on_c, 1, 72, 127
1, 6336, Note_on_c, 1, 64, 127
1, 6336, Note_on_c, 1, 41, 127
1, 6336, Note_on_c, 1, 29, 127
1, 6378, Note_off_c, 1, 41, 0
1, 6378, Note_off_c, 1, 29, 0
1, 6384, Note_on_c, 1, 40, 127
1, 6384, Note_on_c, 1, 28, 127
1, 6420, Note_off_c, 1, 72, 0
1, 6420, Note_off_c, 1, 64, 0
1, 6426, Note_off_c, 1, 67, 0
1, 6426, Note_off_c, 1, 40, 0
1, 6426, Note_off_c, 1, 28, 0
1, 6432, Note_on_c, 1, 72, 127
1, 6432, Note_on_c, 1, 69, 127
1, 6432, Note_on_c, 1, 77, 127
1, 6432, Note_on_c, 1, 60, 127
1, 6432, Note_on_c, 1, 45, 127
1, 6432, Note_on_c, 1, 33, 127
1, 6432, Note_on_c, 1, 65, 127
1, 6474, Note_off_c, 1, 77, 0
1, 6474, Note_off_c, 1, 45, 0
1, 6474, Note_off_c, 1, 33, 0
1, 6480, Note_on_c, 1, 71, 127
1, 6480, Note_on_c, 1, 79, 127
1, 6480, Note_on_c, 1, 41, 127
1, 6480, Note_on_c, 1, 29, 127
1, 6516, Note_off_c, 1, 72, 0
1, 6516, Note_off_c, 1, 69, 0
1, 6516, Note_off_c, 1, 60, 0
1, 6516, Note_off_c, 1, 65, 0
1, 6522, Note_off_c, 1, 71, 0
1, 6522, Note_off_c, 1, 79, 0
1, 6522, Note_off_c, 1, 41, 0
1, 6522, Note_off_c, 1, 29, 0
1, 6528, Note_on_c, 1, 71, 127
1, 6528, Note_on_c, 1, 67, 127
1, 6528, Note_on_c, 1, 74, 127
1, 6528, Note_on_c, 1, 72, 127
1, 6528, Note_on_c, 1, 43, 127
1, 6528, Note_on_c, 1, 31, 127
1, 6528, Note_on_c, 1, 62, 127
1, 6528, Note_on_c, 1, 70, 127
1, 6538, Note_off_c, 1, 72, 0
1, 6612, Note_off_c, 1, 43, 0
1, 6612, Note_off_c, 1, 31, 0
1, 6612, Note_off_c, 1, 62, 0
1, 6612, Note_off_c, 1, 70, 0
1, 6618, Note_off_c, 1, 67, 0
1, 6624, Note_on_c, 1, 65, 127
1, 6660, Note_off_c, 1, 74, 0
1, 6670, Note_off_c, 1, 71, 0
1, 6708, Note_off_c, 1, 65, 0
1, 6720, Note_on_c, 1, 72, 127
1, 6720, Note_on_c, 1, 67, 127
1, 6720, Note_on_c, 1, 64, 127
1, 6720, Note_on_c, 1, 36, 127
1, 6720, Note_on_c, 1, 24, 127
1, 6720, Note_on_c, 1, 76, 127
1, 6804, Note_off_c, 1, 36, 0
1, 6804, Note_off_c, 1, 24, 0
1, 6816, Note_on_c, 1, 48, 127
1, 6900, Note_off_c, 1, 48, 0
1, 6912, Note_on_c, 1, 50, 127
1, 6912, Note_on_c, 1, 38, 127
1, 6996, Note_off_c, 1, 72, 0
1, 6996, Note_off_c, 1, 67, 0
1, 6996, Note_off_c, 1, 64, 0
1, 6996, Note_off_c, 1, 76, 0
1, 6996, Note_off_c, 1, 50, 0
1, 6996, Note_off_c, 1, 38, 0
1, 7008, Note_on_c, 1, 60, 127
1, 7008, Note_on_c, 1, 79, 127
1, 7008, Note_on_c, 1, 72, 127
1, 7008, Note_on_c, 1, 67, 127
1, 7008, Note_on_c, 1, 52, 127
1, 7008, Note_on_c, 1, 40, 127
1, 7092, Note_off_c, 1, 60, 0
1, 7092, Note_off_c, 1, 79, 0
1, 7092, Note_off_c, 1, 72, 0
1, 7104, Note_on_c, 1, 82, 127
1, 7104, Note_on_c, 1, 70, 127
1, 7188, Note_off_c, 1, 67, 0
1, 7188, Note_off_c, 1, 52, 0
1, 7188, Note_off_c, 1, 40, 0
1, 7188, Note_off_c, 1, 82, 0
1, 7188, Note_off_c, 1, 70, 0
1, 7200, Note_on_c, 1, 60, 127
1, 7200, Note_on_c, 1, 81, 127
1, 7200, Note_on_c, 1, 77, 127
1, 7200, Note_on_c, 1, 72, 127
1, 7200, Note_on_c, 1, 53, 127
1, 7200, Note_on_c, 1, 41, 127
1, 7200, Note_on_c, 1, 69, 127
1, 7284, Note_off_c, 1, 81, 0
1, 7284, Note_off_c, 1, 77, 0
1, 7284, Note_off_c, 1, 72, 0
1, 7284, Note_off_c, 1, 53, 0
1, 7284, Note_off_c, 1, 41, 0
1, 7284, Note_off_c, 1, 69, 0
1, 7290, Note_off_c, 1, 60, 0
1, 7296, Note_on_c, 1, 60, 127
1, 7296, Note_on_c, 1, 79, 127
1, 7296, Note_on_c, 1, 76, 127
1, 7296, Note_on_c, 1, 70, 127
1, 7296, Note_on_c, 1, 55, 127
1, 7296, Note_on_c, 1, 81, 127
1, 7296, Note_on_c, 1, 72, 127
1, 7296, Note_on_c, 1, 43, 127
1, 7296, Note_on_c, 1, 64, 127
1, 7306, Note_off_c, 1, 81, 0
1, 7306, Note_off_c, 1, 72, 0
1, 7380, Note_off_c, 1, 60, 0
1, 7380, Note_off_c, 1, 76, 0
1, 7380, Note_off_c, 1, 55, 0
1, 7380, Note_off_c, 1, 43, 0
1, 7380, Note_off_c, 1, 64, 0
1, 7390, Note_off_c, 1, 79, 0
1, 7390, Note_off_c, 1, 70, 0
1, 7392, Note_on_c, 1, 60, 127
1, 7392, Note_on_c, 1, 77, 127
1, 7392, Note_on_c, 1, 72, 127
1, 7392, Note_on_c, 1, 69, 127
1, 7392, Note_on_c, 1, 58, 127
1, 7392, Note_on_c, 1, 46, 127
1, 7392, Note_on_c, 1, 64, 127
1, 7434, Note_off_c, 1, 60, 0
1, 7434, Note_off_c, 1, 77, 0
1, 7434, Note_off_c, 1, 69, 0
1, 7440, Note_on_c, 1, 76, 127
1, 7440, Note_on_c, 1, 67, 127
1, 7476, Note_off_c, 1, 72, 0
1, 7476, Note_off_c, 1, 58, 0
1, 7476, Note_off_c, 1, 46, 0
1, 7476, Note_off_c, 1, 64, 0
1, 7482, Note_off_c, 1, 76, 0
1, 7482, Note_off_c, 1, 67, 0
1, 7488, Note_on_c, 1, 60, 127
1, 7488, Note_on_c, 1, 77, 127
1, 7488, Note_on_c, 1, 72, 127
1, 7488, Note_on_c, 1, 69, 127
1, 7488, Note_on_c, 1, 57, 127
1, 7488, Note_on_c, 1, 45, 127
1, 7488, Note_on_c, 1, 65, 127
1, 7530, Note_off_c, 1, 60, 0
1, 7572, Note_off_c, 1, 77, 0
1, 7572, Note_off_c, 1, 72, 0
1, 7572, Note_off_c, 1, 69, 0
1, 7572, Note_off_c, 1, 57, 0
1, 7572, Note_off_c, 1, 45, 0
1, 7572, Note_off_c, 1, 65, 0
1, 7584, Note_on_c, 1, 60, 127
1, 7584, Note_on_c, 1, 79, 127
1, 7584, Note_on_c, 1, 76, 127
1, 7584, Note_on_c, 1, 70, 127
1, 7584, Note_on_c, 1, 55, 127
1, 7584, Note_on_c, 1, 43, 127
1, 7584, Note_on_c, 1, 64, 127
1, 7668, Note_off_c, 1, 60, 0
1, 7668, Note_off_c, 1, 79, 0
1, 7668, Note_off_c, 1, 76, 0
1, 7668, Note_off_c, 1, 70, 0
1, 7668, Note_off_c, 1, 55, 0
1, 7668, Note_off_c, 1, 43, 0
1, 7668, Note_off_c, 1, 64, 0
1, 7680, Note_on_c, 1, 60, 127
1, 7680, Note_on_c, 1, 82, 127
1, 7680, Note_on_c, 1, 79, 127
1, 7680, Note_on_c, 1, 67, 127
1, 7680, Note_on_c, 1, 53, 127
1, 7680, Note_on_c, 1, 41, 127
1, 7680, Note_on_c, 1, 62, 127
1, 7680, Note_on_c, 1, 70, 127
1, 7722, Note_off_c, 1, 60, 0
1, 7722, Note_off_c, 1, 53, 0
1, 7722, Note_off_c, 1, 41, 0
1, 7728, Note_on_c, 1, 52, 127
1, 7728, Note_on_c, 1, 40, 127
1, 7764, Note_off_c, 1, 82, 0
1, 7764, Note_off_c, 1, 79, 0
1, 7764, Note_off_c, 1, 67, 0
1, 7764, Note_off_c, 1, 62, 0
1, 7764, Note_off_c, 1, 70, 0
1, 7770, Note_off_c, 1, 52, 0
1, 7770, Note_off_c, 1, 40, 0
1, 7776, Note_on_c, 1, 60, 127
1, 7776, Note_on_c, 1, 81, 127
1, 7776, Note_on_c, 1, 77, 127
1, 7776, Note_on_c, 1, 72, 127
1, 7776, Note_on_c, 1, 53, 127
1, 7776, Note_on_c, 1, 41, 127
1, 7776, Note_on_c, 1, 69, 127
1, 7860, Note_off_c, 1, 81, 0
1, 7860, Note_off_c, 1, 77, 0
1, 7860, Note_off_c, 1, 72, 0
1, 7860, Note_off_c, 1, 53, 0
1, 7860, Note_off_c, 1, 41, 0
1, 7860, Note_off_c, 1, 69, 0
1, 7866, Note_off_c, 1, 60, 0
1, 7872, Note_on_c, 1, 60, 127
1, 7872, Note_on_c, 1, 81, 127
1, 7872, Note_on_c, 1, 79, 127
1, 7872, Note_on_c, 1, 72, 127
1, 7872, Note_on_c, 1, 52, 127
1, 7872, Note_on_c, 1, 40, 127
1, 7872, Note_on_c, 1, 67, 127
1, 7882, Note_off_c, 1, 81, 0
1, 7956, Note_off_c, 1, 60, 0
1, 7956, Note_off_c, 1, 52, 0
1, 7956, Note_off_c, 1, 40, 0
1, 7956, Note_off_c, 1, 67, 0
1, 7966, Note_off_c, 1, 79, 0
1, 7968, Note_on_c, 1, 77, 127
1, 7968, Note_on_c, 1, 53, 127
1, 7968, Note_on_c, 1, 41, 127
1, 7968, Note_on_c, 1, 65, 127
1, 8010, Note_off_c, 1, 53, 0
1, 8010, Note_off_c, 1, 41, 0
1, 8052, Note_off_c, 1, 72, 0
1, 8052, Note_off_c, 1, 77, 0
1, 8052, Note_off_c, 1, 65, 0
1, 8064, Note_on_c, 1, 60, 127
1, 8064, Note_on_c, 1, 84, 127
1, 8064, Note_on_c, 1, 76, 127
1, 8064, Note_on_c, 1, 67, 127
1, 8064, Note_on_c, 1, 50, 127
1, 8064, Note_on_c, 1, 38, 127
1, 8106, Note_off_c, 1, 60, 0
1, 8106, Note_off_c, 1, 50, 0
1, 8106, Note_off_c, 1, 38, 0
1, 8112, Note_on_c, 1, 48, 127
1, 8112, Note_on_c, 1, 36, 127
1, 8148, Note_off_c, 1, 84, 0
1, 8148, Note_off_c, 1, 76, 0
1, 8148, Note_off_c, 1, 67, 0
1, 8154, Note_off_c, 1, 48, 0
1, 8154, Note_off_c, 1, 36, 0
1, 8160, Note_on_c, 1, 67, 127
1, 8160, Note_on_c, 1, 77, 127
1, 8160, Note_on_c, 1, 74, 127
1, 8160, Note_on_c, 1, 48, 127
1, 8160, Note_on_c, 1, 36, 127
1, 8170, Note_off_c, 1, 36, 0
1, 8172, Note_on_c, 1, 47, 127
1, 8172, Note_on_c, 1, 35, 127
1, 8181, Note_off_c, 1, 48, 0
1, 8182, Note_off_c, 1, 47, 0
1, 8182, Note_off_c, 1, 35, 0
1, 8244, Note_off_c, 1, 77, 0
1, 8256, Note_on_c, 1, 62, 127
1, 8256, Note_on_c, 1, 71, 127
1, 8340, Note_off_c, 1, 74, 0
1, 8340, Note_off_c, 1, 62, 0
1, 8340, Note_off_c, 1, 71, 0
1, 8346, Note_off_c, 1, 67, 0
1, 8352, Note_on_c, 1, 67, 127
1, 8352, Note_on_c, 1, 76, 127
1, 8352, Note_on_c, 1, 72, 127
1, 8352, Note_on_c, 1, 48, 127
1, 8352, Note_on_c, 1, 36, 127
1, 8436, Note_off_c, 1, 76, 0
1, 8436, Note_off_c, 1, 72, 0
1, 8436, Note_off_c, 1, 48, 0
1, 8436, Note_off_c, 1, 36, 0
1, 8442, Note_off_c, 1, 67, 0
1, 8448, Note_on_c, 1, 67, 127
1, 8448, Note_on_c, 1, 77, 127
1, 8448, Note_on_c, 1, 71, 127
1, 8448, Note_on_c, 1, 62, 127
1, 8448, Note_on_c, 1, 50, 127
1, 8448, Note_on_c, 1, 38, 127
1, 8496, Note_on_c, 1, 72, 127
1, 8532, Note_off_c, 1, 67, 0
1, 8532, Note_off_c, 1, 77, 0
1, 8532, Note_off_c, 1, 71, 0
1, 8532, Note_off_c, 1, 62, 0
1, 8532, Note_off_c, 1, 50, 0
1, 8532, Note_off_c, 1, 38, 0
1, 8538, Note_off_c, 1, 72, 0
1, 8544, Note_on_c, 1, 67, 127
1, 8544, Note_on_c, 1, 81, 127
1, 8544, Note_on_c, 1, 74, 127
1, 8544, Note_on_c, 1, 64, 127
1, 8544, Note_on_c, 1, 48, 127
1, 8544, Note_on_c, 1, 36, 127
1, 8544, Note_on_c, 1, 69, 127
1, 8544, Note_on_c, 1, 76, 127
1, 8554, Note_off_c, 1, 74, 0
1, 8556, Note_on_c, 1, 72, 127
1, 8566, Note_off_c, 1, 72, 0
1, 8586, Note_off_c, 1, 67, 0
1, 8586, Note_off_c, 1, 48, 0
1, 8586, Note_off_c, 1, 36, 0
1, 8592, Note_on_c, 1, 47, 127
1, 8592, Note_on_c, 1, 35, 127
1, 8628, Note_off_c, 1, 64, 0
1, 8628, Note_off_c, 1, 69, 0
1, 8628, Note_off_c, 1, 76, 0
1, 8634, Note_off_c, 1, 47, 0
1, 8634, Note_off_c, 1, 35, 0
1, 8640, Note_on_c, 1, 60, 127
1, 8688, Note_on_c, 1, 71, 127
1, 8709, Note_off_c, 1, 71, 0
1, 8724, Note_off_c, 1, 81, 0
1, 8724, Note_off_c, 1, 60, 0
1, 8736, Note_on_c, 1, 67, 127
1, 8736, Note_on_c, 1, 77, 127
1, 8736, Note_on_c, 1, 74, 127
1, 8736, Note_on_c, 1, 47, 127
1, 8736, Note_on_c, 1, 35, 127
1, 8820, Note_off_c, 1, 77, 0
1, 8820, Note_off_c, 1, 74, 0
1, 8820, Note_off_c, 1, 47, 0
1, 8820, Note_off_c, 1, 35, 0
1, 8832, Note_on_c, 1, 76, 127
1, 8832, Note_on_c, 1, 72, 127
1, 8832, Note_on_c, 1, 48, 127
1, 8832, Note_on_c, 1, 36, 127
1, 8874, Note_off_c, 1, 48, 0
1, 8874, Note_off_c, 1, 36, 0
1, 8916, Note_off_c, 1, 76, 0
1, 8916, Note_off_c, 1, 72, 0
1, 8922, Note_off_c, 1, 67, 0
1, 8928, Note_on_c, 1, 67, 127
1, 8928, Note_on_c, 1, 79, 127
1, 8928, Note_on_c, 1, 71, 127
1, 8928, Note_on_c, 1, 45, 127
1, 8928, Note_on_c, 1, 33, 127
1, 8928, Note_on_c, 1, 62, 127
1, 8970, Note_off_c, 1, 45, 0
1, 8970, Note_off_c, 1, 33, 0
1, 8976, Note_on_c, 1, 43, 127
1, 8976, Note_on_c, 1, 31, 127
1, 9012, Note_off_c, 1, 79, 0
1, 9012, Note_off_c, 1, 71, 0
1, 9012, Note_off_c, 1, 62, 0
1, 9018, Note_off_c, 1, 67, 0
1, 9018, Note_off_c, 1, 43, 0
1, 9018, Note_off_c, 1, 31, 0
1, 9024, Note_on_c, 1, 67, 127
1, 9024, Note_on_c, 1, 76, 127
1, 9024, Note_on_c, 1, 72, 127
1, 9024, Note_on_c, 1, 48, 127
1, 9024, Note_on_c, 1, 36, 127
1, 9108, Note_off_c, 1, 48, 0
1, 9108, Note_off_c, 1, 36, 0
1, 9120, Note_on_c, 1, 46, 127
1, 9120, Note_on_c, 1, 34, 127
1, 9120, Note_on_c, 1, 65, 127
1, 9120, Note_on_c, 1, 74, 127
1, 9156, Note_off_c, 1, 76, 0
1, 9162, Note_off_c, 1, 46, 0
1, 9162, Note_off_c, 1, 34, 0
1, 9168, Note_on_c, 1, 77, 127
1, 9168, Note_on_c, 1, 45, 127
1, 9168, Note_on_c, 1, 33, 127
1, 9204, Note_off_c, 1, 65, 0
1, 9204, Note_off_c, 1, 74, 0
1, 9210, Note_off_c, 1, 77, 0
1, 9210, Note_off_c, 1, 45, 0
1, 9210, Note_off_c, 1, 33, 0
1, 9216, Note_on_c, 1, 79, 127
1, 9216, Note_on_c, 1, 43, 127
1, 9216, Note_on_c, 1, 31, 127
1, 9226, Note_off_c, 1, 79, 0
1, 9258, Note_off_c, 1, 43, 0
1, 9258, Note_off_c, 1, 31, 0
1, 9264, Note_on_c, 1, 41, 127
1, 9264, Note_on_c, 1, 29, 127
1, 9300, Note_off_c, 1, 72, 0
1, 9306, Note_off_c, 1, 67, 0
1, 9306, Note_off_c, 1, 41, 0
1, 9306, Note_off_c, 1, 29, 0
1, 9312, Note_on_c, 1, 72, 127
1, 9312, Note_on_c, 1, 67, 127
1, 9312, Note_on_c, 1, 79, 127
1, 9312, Note_on_c, 1, 40, 127
1, 9312, Note_on_c, 1, 28, 127
1, 9354, Note_off_c, 1, 79, 0
1, 9360, Note_on_c, 1, 81, 127
1, 9360, Note_on_c, 1, 65, 127
1, 9396, Note_off_c, 1, 67, 0
1, 9396, Note_off_c, 1, 40, 0
1, 9396, Note_off_c, 1, 28, 0
1, 9402, Note_off_c, 1, 81, 0
1, 9402, Note_off_c, 1, 65, 0
1, 9408, Note_on_c, 1, 82, 127
1, 9408, Note_on_c, 1, 41, 127
1, 9408, Note_on_c, 1, 29, 127
1, 9408, Note_on_c, 1, 60, 127
1, 9408, Note_on_c, 1, 69, 127
1, 9418, Note_off_c, 1, 82, 0
1, 9450, Note_off_c, 1, 41, 0
1, 9450, Note_off_c, 1, 29, 0
1, 9492, Note_off_c, 1, 60, 0
1, 9492, Note_off_c, 1, 69, 0
1, 9498, Note_off_c, 1, 72, 0
1, 9504, Note_on_c, 1, 72, 127
1, 9504, Note_on_c, 1, 82, 127
1, 9504, Note_on_c, 1, 77, 127
1, 9504, Note_on_c, 1, 67, 127
1, 9504, Note_on_c, 1, 38, 127
1, 9504, Note_on_c, 1, 26, 127
1, 9504, Note_on_c, 1, 69, 127
1, 9514, Note_off_c, 1, 82, 0
1, 9514, Note_off_c, 1, 67, 0
1, 9516, Note_on_c, 1, 81, 127
1, 9516, Note_on_c, 1, 65, 127
1, 9526, Note_off_c, 1, 81, 0
1, 9526, Note_off_c, 1, 65, 0
1, 9546, Note_off_c, 1, 72, 0
1, 9546, Note_off_c, 1, 38, 0
1, 9546, Note_off_c, 1, 26, 0
1, 9552, Note_on_c, 1, 79, 127
1, 9552, Note_on_c, 1, 64, 127
1, 9552, Note_on_c, 1, 40, 127
1, 9552, Note_on_c, 1, 28, 127
1, 9573, Note_off_c, 1, 79, 0
1, 9573, Note_off_c, 1, 64, 0
1, 9588, Note_off_c, 1, 77, 0
1, 9588, Note_off_c, 1, 69, 0
1, 9594, Note_off_c, 1, 40, 0
1, 9594, Note_off_c, 1, 28, 0
1, 9600, Note_on_c, 1, 72, 127
1, 9600, Note_on_c, 1, 67, 127
1, 9600, Note_on_c, 1, 82, 127
1, 9600, Note_on_c, 1, 76, 127
1, 9600, Note_on_c, 1, 36, 127
1, 9600, Note_on_c, 1, 24, 127
1, 9684, Note_off_c, 1, 67, 0
1, 9684, Note_off_c, 1, 82, 0
1, 9684, Note_off_c, 1, 76, 0
1, 9684, Note_off_c, 1, 36, 0
1, 9684, Note_off_c, 1, 24, 0
1, 9696, Note_on_c, 1, 60, 127
1, 9696, Note_on_c, 1, 81, 127
1, 9696, Note_on_c, 1, 79, 127
1, 9696, Note_on_c, 1, 48, 127
1, 9696, Note_on_c, 1, 77, 127
1, 9696, Note_on_c, 1, 69, 127
1, 9706, Note_off_c, 1, 79, 0
1, 9738, Note_off_c, 1, 60, 0
1, 9738, Note_off_c, 1, 81, 0
1, 9738, Note_off_c, 1, 48, 0
1, 9744, Note_on_c, 1, 50, 127
1, 9744, Note_on_c, 1, 38, 127
1, 9780, Note_off_c, 1, 72, 0
1, 9780, Note_off_c, 1, 69, 0
1, 9786, Note_off_c, 1, 50, 0
1, 9786, Note_off_c, 1, 38, 0
1, 9790, Note_off_c, 1, 77, 0
1, 9792, Note_on_c, 1, 70, 127
1, 9792, Note_on_c, 1, 60, 127
1, 9792, Note_on_c, 1, 84, 127
1, 9792, Note_on_c, 1, 79, 127
1, 9792, Note_on_c, 1, 64, 127
1, 9792, Note_on_c, 1, 52, 127
1, 9792, Note_on_c, 1, 40, 127
1, 9792, Note_on_c, 1, 72, 127
1, 9834, Note_off_c, 1, 60, 0
1, 9834, Note_off_c, 1, 52, 0
1, 9834, Note_off_c, 1, 40, 0
1, 9840, Note_on_c, 1, 48, 127
1, 9840, Note_on_c, 1, 36, 127
1, 9876, Note_off_c, 1, 70, 0
1, 9876, Note_off_c, 1, 84, 0
1, 9876, Note_off_c, 1, 79, 0
1, 9876, Note_off_c, 1, 64, 0
1, 9876, Note_off_c, 1, 72, 0
1, 9882, Note_off_c, 1, 48, 0
1, 9882, Note_off_c, 1, 36, 0
1, 9888, Note_on_c, 1, 69, 127
1, 9888, Note_on_c, 1, 65, 127
1, 9888, Note_on_c, 1, 77, 127
1, 9888, Note_on_c, 1, 74, 127
1, 9888, Note_on_c, 1, 50, 127
1, 9888, Note_on_c, 1, 38, 127
1, 9930, Note_off_c, 1, 50, 0
1, 9930, Note_off_c, 1, 38, 0
1, 9936, Note_on_c, 1, 79, 127
1, 9936, Note_on_c, 1, 70, 127
1, 9936, Note_on_c, 1, 46, 127
1, 9936, Note_on_c, 1, 34, 127
1, 9972, Note_off_c, 1, 69, 0
1, 9972, Note_off_c, 1, 65, 0
1, 9972, Note_off_c, 1, 77, 0
1, 9972, Note_off_c, 1, 74, 0
1, 9978, Note_off_c, 1, 79, 0
1, 9978, Note_off_c, 1, 70, 0
1, 9978, Note_off_c, 1, 46, 0
1, 9978, Note_off_c, 1, 34, 0
1, 9984, Note_on_c, 1, 70, 127
1, 9984, Note_on_c, 1, 60, 127
1, 9984, Note_on_c, 1, 76, 127
1, 9984, Note_on_c, 1, 74, 127
1, 9984, Note_on_c, 1, 67, 127
1, 9984, Note_on_c, 1, 48, 127
1, 9984, Note_on_c, 1, 36, 127
1, 9994, Note_off_c, 1, 74, 0
1, 9996, Note_on_c, 1, 72, 127
1, 9996, Note_on_c, 1, 65, 127
1, 10006, Note_off_c, 1, 72, 0
1, 10006, Note_off_c, 1, 65, 0
1, 10026, Note_off_c, 1, 70, 0
1, 10026, Note_off_c, 1, 60, 0
1, 10032, Note_on_c, 1, 69, 127
1, 10068, Note_off_c, 1, 48, 0
1, 10068, Note_off_c, 1, 36, 0
1, 10074, Note_off_c, 1, 69, 0
1, 10080, Note_on_c, 1, 24, 127
1, 10080, Note_on_c, 1, 64, 127
1, 10116, Note_off_c, 1, 76, 0
1, 10128, Note_on_c, 1, 77, 127
1, 10164, Note_off_c, 1, 67, 0
1, 10164, Note_off_c, 1, 24, 0
1, 10164, Note_off_c, 1, 64, 0
1, 10170, Note_off_c, 1, 77, 0
1, 10176, Note_on_c, 1, 65, 127
1, 10176, Note_on_c, 1, 57, 127
1, 10176, Note_on_c, 1, 77, 127
1, 10176, Note_on_c, 1, 72, 127
1, 10176, Note_on_c, 1, 69, 127
1, 10176, Note_on_c, 1, 41, 127
1, 10176, Note_on_c, 1, 29, 127
1, 10176, Note_on_c, 1, 60, 127
1, 10218, Note_off_c, 1, 41, 0
1, 10218, Note_off_c, 1, 29, 0
1, 10224, Note_on_c, 1, 43, 127
1, 10224, Note_on_c, 1, 31, 127
1, 10266, Note_off_c, 1, 43, 0
1, 10266, Note_off_c, 1, 31, 0
1, 10272, Note_on_c, 1, 45, 127
1, 10272, Note_on_c, 1, 33, 127
1, 10314, Note_off_c, 1, 45, 0
1, 10314, Note_off_c, 1, 33, 0
1, 10320, Note_on_c, 1, 46, 127
1, 10320, Note_on_c, 1, 34, 127
1, 10362, Note_off_c, 1, 46, 0
1, 10362, Note_off_c, 1, 34, 0
1, 10368, Note_on_c, 1, 48, 127
1, 10368, Note_on_c, 1, 36, 127
1, 10410, Note_off_c, 1, 48, 0
1, 10410, Note_off_c, 1, 36, 0
1, 10416, Note_on_c, 1, 50, 127
1, 10416, Note_on_c, 1, 38, 127
1, 10452, Note_off_c, 1, 65, 0
1, 10452, Note_off_c, 1, 57, 0
1, 10452, Note_off_c, 1, 77, 0
1, 10452, Note_off_c, 1, 72, 0
1, 10452, Note_off_c, 1, 69, 0
1, 10452, Note_off_c, 1, 60, 0
1, 10458, Note_off_c, 1, 50, 0
1, 10458, Note_off_c, 1, 38, 0
1, 10464, Note_on_c, 1, 60, 127
1, 10464, Note_on_c, 1, 79, 127
1, 10464, Note_on_c, 1, 72, 127
1, 10464, Note_on_c, 1, 67, 127
1, 10464, Note_on_c, 1, 52, 127
1, 10464, Note_on_c, 1, 40, 127
1, 10548, Note_off_c, 1, 60, 0
1, 10548, Note_off_c, 1, 79, 0
1, 10548, Note_off_c, 1, 72, 0
1, 10560, Note_on_c, 1, 82, 127
1, 10560, Note_on_c, 1, 70, 127
1, 10644, Note_off_c, 1, 67, 0
1, 10644, Note_off_c, 1, 52, 0
1, 10644, Note_off_c, 1, 40, 0
1, 10644, Note_off_c, 1, 82, 0
1, 10644, Note_off_c, 1, 70, 0
1, 10656, Note_on_c, 1, 60, 127
1, 10656, Note_on_c, 1, 81, 127
1, 10656, Note_on_c, 1, 77, 127
1, 10656, Note_on_c, 1, 72, 127
1, 10656, Note_on_c, 1, 53, 127
1, 10656, Note_on_c, 1, 41, 127
1, 10656, Note_on_c, 1, 69, 127
1, 10740, Note_off_c, 1, 81, 0
1, 10740, Note_off_c, 1, 77, 0
1, 10740, Note_off_c, 1, 72, 0
1, 10740, Note_off_c, 1, 53, 0
1, 10740, Note_off_c, 1, 41, 0
1, 10740, Note_off_c, 1, 69, 0
1, 10746, Note_off_c, 1, 60, 0
1, 10752, Note_on_c, 1, 60, 127
1, 10752, Note_on_c, 1, 79, 127
1, 10752, Note_on_c, 1, 76, 127
1, 10752, Note_on_c, 1, 70, 127
1, 10752, Note_on_c, 1, 55, 127
1, 10752, Note_on_c, 1, 81, 127
1, 10752, Note_on_c, 1, 72, 127
1, 10752, Note_on_c, 1, 43, 127
1, 10752, Note_on_c, 1, 64, 127
1, 10762, Note_off_c, 1, 81, 0
1, 10762, Note_off_c, 1, 72, 0
1, 10836, Note_off_c, 1, 60, 0
1, 10836, Note_off_c, 1, 76, 0
1, 10836, Note_off_c, 1, 55, 0
1, 10836, Note_off_c, 1, 43, 0
1, 10836, Note_off_c, 1, 64, 0
1, 10846, Note_off_c, 1, 79, 0
1, 10846, Note_off_c, 1, 70, 0
1, 10848, Note_on_c, 1, 60, 127
1, 10848, Note_on_c, 1, 77, 127
1, 10848, Note_on_c, 1, 72, 127
1, 10848, Note_on_c, 1, 69, 127
1, 10848, Note_on_c, 1, 58, 127
1, 10848, Note_on_c, 1, 46, 127
1, 10848, Note_on_c, 1, 64, 127
1, 10890, Note_off_c, 1, 60, 0
1, 10890, Note_off_c, 1, 77, 0
1, 10890, Note_off_c, 1, 69, 0
1, 10896, Note_on_c, 1, 76, 127
1, 10896, Note_on_c, 1, 67, 127
1, 10932, Note_off_c, 1, 72, 0
1, 10932, Note_off_c, 1, 58, 0
1, 10932, Note_off_c, 1, 46, 0
1, 10932, Note_off_c, 1, 64, 0
1, 10938, Note_off_c, 1, 76, 0
1, 10938, Note_off_c, 1, 67, 0
1, 10944, Note_on_c, 1, 60, 127
1, 10944, Note_on_c, 1, 77, 127
1, 10944, Note_on_c, 1, 72, 127
1, 10944, Note_on_c, 1, 69, 127
1, 10944, Note_on_c, 1, 57, 127
1, 10944, Note_on_c, 1, 45, 127
1, 10944, Note_on_c, 1, 65, 127
1, 10986, Note_off_c, 1, 60, 0
1, 11028, Note_off_c, 1, 77, 0
1, 11028, Note_off_c, 1, 72, 0
1, 11028, Note_off_c, 1, 69, 0
1, 11028, Note_off_c, 1, 57, 0
1, 11028, Note_off_c, 1, 45, 0
1, 11028, Note_off_c, 1, 65, 0
1, 11040, Note_on_c, 1, 60, 127
1, 11040, Note_on_c, 1, 79, 127
1, 11040, Note_on_c, 1, 76, 127
1, 11040, Note_on_c, 1, 70, 127
1, 11040, Note_on_c, 1, 55, 127
1, 11040, Note_on_c, 1, 43, 127
1, 11040, Note_on_c, 1, 64, 127
1, 11124, Note_off_c, 1, 60, 0
1, 11124, Note_off_c, 1, 79, 0
1, 11124, Note_off_c, 1, 76, 0
1, 11124, Note_off_c, 1, 70, 0
1, 11124, Note_off_c, 1, 55, 0
1, 11124, Note_off_c, 1, 43, 0
1, 11124, Note_off_c, 1, 64, 0
1, 11136, Note_on_c, 1, 60, 127
1, 11136, Note_on_c, 1, 82, 127
1, 11136, Note_on_c, 1, 79, 127
1, 11136, Note_on_c, 1, 67, 127
1, 11136, Note_on_c, 1, 53, 127
1, 11136, Note_on_c, 1, 41, 127
1, 11136, Note_on_c, 1, 62, 127
1, 11136, Note_on_c, 1, 70, 127
1, 11178, Note_off_c, 1, 60, 0
1, 11178, Note_off_c, 1, 53, 0
1, 11178, Note_off_c, 1, 41, 0
1, 11184, Note_on_c, 1, 52, 127
1, 11184, Note_on_c, 1, 40, 127
1, 11220, Note_off_c, 1, 82, 0
1, 11220, Note_off_c, 1, 79, 0
1, 11220, Note_off_c, 1, 67, 0
1, 11220, Note_off_c, 1, 62, 0
1, 11220, Note_off_c, 1, 70, 0
1, 11226, Note_off_c, 1, 52, 0
1, 11226, Note_off_c, 1, 40, 0
1, 11232, Note_on_c, 1, 60, 127
1, 11232, Note_on_c, 1, 81, 127
1, 11232, Note_on_c, 1, 77, 127
1, 11232, Note_on_c, 1, 72, 127
1, 11232, Note_on_c, 1, 53, 127
1, 11232, Note_on_c, 1, 41, 127
1, 11232, Note_on_c, 1, 69, 127
1, 11316, Note_off_c, 1, 81, 0
1, 11316, Note_off_c, 1, 77, 0
1, 11316, Note_off_c, 1, 72, 0
1, 11316, Note_off_c, 1, 53, 0
1, 11316, Note_off_c, 1, 41, 0
1, 11316, Note_off_c, 1, 69, 0
1, 11322, Note_off_c, 1, 60, 0
1, 11328, Note_on_c, 1, 60, 127
1, 11328, Note_on_c, 1, 81, 127
1, 11328, Note_on_c, 1, 79, 127
1, 11328, Note_on_c, 1, 72, 127
1, 11328, Note_on_c, 1, 52, 127
1, 11328, Note_on_c, 1, 40, 127
1, 11328, Note_on_c, 1, 67, 127
1, 11338, Note_off_c, 1, 81, 0
1, 11412, Note_off_c, 1, 60, 0
1, 11412, Note_off_c, 1, 52, 0
1, 11412, Note_off_c, 1, 40, 0
1, 11412, Note_off_c, 1, 67, 0
1, 11422, Note_off_c, 1, 79, 0
1, 11424, Note_on_c, 1, 77, 127
1, 11424, Note_on_c, 1, 53, 127
1, 11424, Note_on_c, 1, 41, 127
1, 11424, Note_on_c, 1, 65, 127
1, 11466, Note_off_c, 1, 53, 0
1, 11466, Note_off_c, 1, 41, 0
1, 11508, Note_off_c, 1, 72, 0
1, 11508, Note_off_c, 1, 77, 0
1, 11508, Note_off_c, 1, 65, 0
1, 11520, Note_on_c, 1, 60, 127
1, 11520, Note_on_c, 1, 84, 127
1, 11520, Note_on_c, 1, 76, 127
1, 11520, Note_on_c, 1, 67, 127
1, 11520, Note_on_c, 1, 50, 127
1, 11520, Note_on_c, 1, 38, 127
1, 11562, Note_off_c, 1, 60, 0
1, 11562, Note_off_c, 1, 50, 0
1, 11562, Note_off_c, 1, 38, 0
1, 11568, Note_on_c, 1, 48, 127
1, 11568, Note_on_c, 1, 36, 127
1, 11604, Note_off_c, 1, 84, 0
1, 11604, Note_off_c, 1, 76, 0
1, 11604, Note_off_c, 1, 67, 0
1, 11610, Note_off_c, 1, 48, 0
1, 11610, Note_off_c, 1, 36, 0
1, 11616, Note_on_c, 1, 67, 127
1, 11616, Note_on_c, 1, 77, 127
1, 11616, Note_on_c, 1, 74, 127
1, 11616, Note_on_c, 1, 48, 127
1, 11616, Note_on_c, 1, 36, 127
1, 11626, Note_off_c, 1, 36, 0
1, 11628, Note_on_c, 1, 47, 127
1, 11628, Note_on_c, 1, 35, 127
1, 11637, Note_off_c, 1, 48, 0
1, 11638, Note_off_c, 1, 47, 0
1, 11638, Note_off_c, 1, 35, 0
1, 11700, Note_off_c, 1, 77, 0
1, 11712, Note_on_c, 1, 62, 127
1, 11712, Note_on_c, 1, 71, 127
1, 11796, Note_off_c, 1, 74, 0
1, 11796, Note_off_c, 1, 62, 0
1, 11796, Note_off_c, 1, 71, 0
1, 11802, Note_off_c, 1, 67, 0
1, 11808, Note_on_c, 1, 67, 127
1, 11808, Note_on_c, 1, 76, 127
1, 11808, Note_on_c, 1, 72, 127
1, 11808, Note_on_c, 1, 48, 127
1, 11808, Note_on_c, 1, 36, 127
1, 11892, Note_off_c, 1, 76, 0
1, 11892, Note_off_c, 1, 72, 0
1, 11892, Note_off_c, 1, 48, 0
1, 11892, Note_off_c, 1, 36, 0
1, 11898, Note_off_c, 1, 67, 0
1, 11904, Note_on_c, 1, 67, 127
1, 11904, Note_on_c, 1, 77, 127
1, 11904, Note_on_c, 1, 71, 127
1, 11904, Note_on_c, 1, 62, 127
1, 11904, Note_on_c, 1, 50, 127
1, 11904, Note_on_c, 1, 38, 127
1, 11952, Note_on_c, 1, 72, 127
1, 11988, Note_off_c, 1, 67, 0
1, 11988, Note_off_c, 1, 77, 0
1, 11988, Note_off_c, 1, 71, 0
1, 11988, Note_off_c, 1, 62, 0
1, 11988, Note_off_c, 1, 50, 0
1, 11988, Note_off_c, 1, 38, 0
1, 11994, Note_off_c, 1, 72, 0
1, 12000, Note_on_c, 1, 67, 127
1, 12000, Note_on_c, 1, 81, 127
1, 12000, Note_on_c, 1, 74, 127
1, 12000, Note_on_c, 1, 64, 127
1, 12000, Note_on_c, 1, 48, 127
1, 12000, Note_on_c, 1, 36, 127
1, 12000, Note_on_c, 1, 69, 127
1, 12000, Note_on_c, 1, 76, 127
1, 12010, Note_off_c, 1, 74, 0
1, 12012, Note_on_c, 1, 72, 127
1, 12022, Note_off_c, 1, 72, 0
1, 12042, Note_off_c, 1, 67, 0
1, 12042, Note_off_c, 1, 48, 0
1, 12042, Note_off_c, 1, 36, 0
1, 12048, Note_on_c, 1, 47, 127
1, 12048, Note_on_c, 1, 35, 127
1, 12084, Note_off_c, 1, 64, 0
1, 12084, Note_off_c, 1, 69, 0
1, 12084, Note_off_c, 1, 76, 0
1, 12090, Note_off_c, 1, 47, 0
1, 12090, Note_off_c, 1, 35, 0
1, 12096, Note_on_c, 1, 60, 127
1, 12144, Note_on_c, 1, 71, 127
1, 12165, Note_off_c, 1, 71, 0
1, 12180, Note_off_c, 1, 81, 0
1, 12180, Note_off_c, 1, 60, 0
1, 12192, Note_on_c, 1, 67, 127
1, 12192, Note_on_c, 1, 77, 127
1, 12192, Note_on_c, 1, 74, 127
1, 12192, Note_on_c, 1, 47, 127
1, 12192, Note_on_c, 1, 35, 127
1, 12276, Note_off_c, 1, 77, 0
1, 12276, Note_off_c, 1, 74, 0
1, 12276, Note_off_c, 1, 47, 0
1, 12276, Note_off_c, 1, 35, 0
1, 12288, Note_on_c, 1, 76, 127
1, 12288, Note_on_c, 1, 72, 127
1, 12288, Note_on_c, 1, 48, 127
1, 12288, Note_on_c, 1, 36, 127
1, 12330, Note_off_c, 1, 48, 0
1, 12330, Note_off_c, 1, 36, 0
1, 12372, Note_off_c, 1, 76, 0
1, 12372, Note_off_c, 1, 72, 0
1, 12378, Note_off_c, 1, 67, 0
1, 12384, Note_on_c, 1, 67, 127
1, 12384, Note_on_c, 1, 79, 127
1, 12384, Note_on_c, 1, 71, 127
1, 12384, Note_on_c, 1, 45, 127
1, 12384, Note_on_c, 1, 33, 127
1, 12384, Note_on_c, 1, 62, 127
1, 12426, Note_off_c, 1, 45, 0
1, 12426, Note_off_c, 1, 33, 0
1, 12432, Note_on_c, 1, 43, 127
1, 12432, Note_on_c, 1, 31, 127
1, 12468, Note_off_c, 1, 79, 0
1, 12468, Note_off_c, 1, 71, 0
1, 12468, Note_off_c, 1, 62, 0
1, 12474, Note_off_c, 1, 67, 0
1, 12474, Note_off_c, 1, 43, 0
1, 12474, Note_off_c, 1, 31, 0
1, 12480, Note_on_c, 1, 67, 127
1, 12480, Note_on_c, 1, 76, 127
1, 12480, Note_on_c, 1, 72, 127
1, 12480, Note_on_c, 1, 48, 127
1, 12480, Note_on_c, 1, 36, 127
1, 12564, Note_off_c, 1, 48, 0
1, 12564, Note_off_c, 1, 36, 0
1, 12576, Note_on_c, 1, 46, 127
1, 12576, Note_on_c, 1, 34, 127
1, 12576, Note_on_c, 1, 65, 127
1, 12576, Note_on_c, 1, 74, 127
1, 12612, Note_off_c, 1, 76, 0
1, 12618, Note_off_c, 1, 46, 0
1, 12618, Note_off_c, 1, 34, 0
1, 12624, Note_on_c, 1, 77, 127
1, 12624, Note_on_c, 1, 45, 127
1, 12624, Note_on_c, 1, 33, 127
1, 12660, Note_off_c, 1, 65, 0
1, 12660, Note_off_c, 1, 74, 0
1, 12666, Note_off_c, 1, 77, 0
1, 12666, Note_off_c, 1, 45, 0
1, 12666, Note_off_c, 1, 33, 0
1, 12672, Note_on_c, 1, 79, 127
1, 12672, Note_on_c, 1, 43, 127
1, 12672, Note_on_c, 1, 31, 127
1, 12682, Note_off_c, 1, 79, 0
1, 12714, Note_off_c, 1, 43, 0
1, 12714, Note_off_c, 1, 31, 0
1, 12720, Note_on_c, 1, 41, 127
1, 12720, Note_on_c, 1, 29, 127
1, 12756, Note_off_c, 1, 72, 0
1, 12762, Note_off_c, 1, 67, 0
1, 12762, Note_off_c, 1, 41, 0
1, 12762, Note_off_c, 1, 29, 0
1, 12768, Note_on_c, 1, 72, 127
1, 12768, Note_on_c, 1, 67, 127
1, 12768, Note_on_c, 1, 79, 127
1, 12768, Note_on_c, 1, 40, 127
1, 12768, Note_on_c, 1, 28, 127
1, 12810, Note_off_c, 1, 79, 0
1, 12816, Note_on_c, 1, 81, 127
1, 12816, Note_on_c, 1, 65, 127
1, 12852, Note_off_c, 1, 67, 0
1, 12852, Note_off_c, 1, 40, 0
1, 12852, Note_off_c, 1, 28, 0
1, 12858, Note_off_c, 1, 81, 0
1, 12858, Note_off_c, 1, 65, 0
1, 12864, Note_on_c, 1, 82, 127
1, 12864, Note_on_c, 1, 41, 127
1, 12864, Note_on_c, 1, 29, 127
1, 12864, Note_on_c, 1, 60, 127
1, 12864, Note_on_c, 1, 69, 127
1, 12874, Note_off_c, 1, 82, 0
1, 12906, Note_off_c, 1, 41, 0
1, 12906, Note_off_c, 1, 29, 0
1, 12948, Note_off_c, 1, 60, 0
1, 12948, Note_off_c, 1, 69, 0
1, 12954, Note_off_c, 1, 72, 0
1, 12960, Note_on_c, 1, 72, 127
1, 12960, Note_on_c, 1, 82, 127
1, 12960, Note_on_c, 1, 77, 127
1, 12960, Note_on_c, 1, 67, 127
1, 12960, Note_on_c, 1, 38, 127
1, 12960, Note_on_c, 1, 26, 127
1, 12960, Note_on_c, 1, 69, 127
1, 12970, Note_off_c, 1, 82, 0
1, 12970, Note_off_c, 1, 67, 0
1, 12972, Note_on_c, 1, 81, 127
1, 12972, Note_on_c, 1, 65, 127
1, 12982, Note_off_c, 1, 81, 0
1, 12982, Note_off_c, 1, 65, 0
1, 13002, Note_off_c, 1, 72, 0
1, 13002, Note_off_c, 1, 38, 0
1, 13002, Note_off_c, 1, 26, 0
1, 13008, Note_on_c, 1, 79, 127
1, 13008, Note_on_c, 1, 64, 127
1, 13008, Note_on_c, 1, 40, 127
1, 13008, Note_on_c, 1, 28, 127
1, 13029, Note_off_c, 1, 79, 0
1, 13029, Note_off_c, 1, 64, 0
1, 13044, Note_off_c, 1, 77, 0
1, 13044, Note_off_c, 1, 69, 0
1, 13050, Note_off_c, 1, 40, 0
1, 13050, Note_off_c, 1, 28, 0
1, 13056, Note_on_c, 1, 72, 127
1, 13056, Note_on_c, 1, 67, 127
1, 13056, Note_on_c, 1, 82, 127
1, 13056, Note_on_c, 1, 76, 127
1, 13056, Note_on_c, 1, 36, 127
1, 13056, Note_on_c, 1, 24, 127
1, 13140, Note_off_c, 1, 67, 0
1, 13140, Note_off_c, 1, 82, 0
1, 13140, Note_off_c, 1, 76, 0
1, 13140, Note_off_c, 1, 36, 0
1, 13140, Note_off_c, 1, 24, 0
1, 13152, Note_on_c, 1, 60, 127
1, 13152, Note_on_c, 1, 81, 127
1, 13152, Note_on_c, 1, 79, 127
1, 13152, Note_on_c, 1, 48, 127
1, 13152, Note_on_c, 1, 77, 127
1, 13152, Note_on_c, 1, 69, 127
1, 13162, Note_off_c, 1, 79, 0
1, 13194, Note_off_c, 1, 60, 0
1, 13194, Note_off_c, 1, 81, 0
1, 13194, Note_off_c, 1, 48, 0
1, 13200, Note_on_c, 1, 50, 127
1, 13200, Note_on_c, 1, 38, 127
1, 13236, Note_off_c, 1, 72, 0
1, 13236, Note_off_c, 1, 69, 0
1, 13242, Note_off_c, 1, 50, 0
1, 13242, Note_off_c, 1, 38, 0
1, 13246, Note_off_c, 1, 77, 0
1, 13248, Note_on_c, 1, 70, 127
1, 13248, Note_on_c, 1, 60, 127
1, 13248, Note_on_c, 1, 84, 127
1, 13248, Note_on_c, 1, 79, 127
1, 13248, Note_on_c, 1, 64, 127
1, 13248, Note_on_c, 1, 52, 127
1, 13248, Note_on_c, 1, 40, 127
1, 13248, Note_on_c, 1, 72, 127
1, 13290, Note_off_c, 1, 60, 0
1, 13290, Note_off_c, 1, 52, 0
1, 13290, Note_off_c, 1, 40, 0
1, 13296, Note_on_c, 1, 48, 127
1, 13296, Note_on_c, 1, 36, 127
1, 13332, Note_off_c, 1, 70, 0
1, 13332, Note_off_c, 1, 84, 0
1, 13332, Note_off_c, 1, 79, 0
1, 13332, Note_off_c, 1, 64, 0
1, 13332, Note_off_c, 1, 72, 0
1, 13338, Note_off_c, 1, 48, 0
1, 13338, Note_off_c, 1, 36, 0
1, 13344, Note_on_c, 1, 69, 127
1, 13344, Note_on_c, 1, 65, 127
1, 13344, Note_on_c, 1, 77, 127
1, 13344, Note_on_c, 1, 74, 127
1, 13344, Note_on_c, 1, 50, 127
1, 13344, Note_on_c, 1, 38, 127
1, 13386, Note_off_c, 1, 50, 0
1, 13386, Note_off_c, 1, 38, 0
1, 13392, Note_on_c, 1, 79, 127
1, 13392, Note_on_c, 1, 70, 127
1, 13392, Note_on_c, 1, 46, 127
1, 13392, Note_on_c, 1, 34, 127
1, 13428, Note_off_c, 1, 69, 0
1, 13428, Note_off_c, 1, 65, 0
1, 13428, Note_off_c, 1, 77, 0
1, 13428, Note_off_c, 1, 74, 0
1, 13434, Note_off_c, 1, 79, 0
1, 13434, Note_off_c, 1, 70, 0
1, 13434, Note_off_c, 1, 46, 0
1, 13434, Note_off_c, 1, 34, 0
1, 13440, Note_on_c, 1, 70, 127
1, 13440, Note_on_c, 1, 60, 127
1, 13440, Note_on_c, 1, 76, 127
1, 13440, Note_on_c, 1, 74, 127
1, 13440, Note_on_c, 1, 67, 127
1, 13440, Note_on_c, 1, 48, 127
1, 13440, Note_on_c, 1, 36, 127
1, 13450, Note_off_c, 1, 74, 0
1, 13452, Note_on_c, 1, 72, 127
1, 13452, Note_on_c, 1, 65, 127
1, 13462, Note_off_c, 1, 72, 0
1, 13462, Note_off_c, 1, 65, 0
1, 13482, Note_off_c, 1, 70, 0
1, 13482, Note_off_c, 1, 60, 0
1, 13488, Note_on_c, 1, 69, 127
1, 13524, Note_off_c, 1, 48, 0
1, 13524, Note_off_c, 1, 36, 0
1, 13530, Note_off_c, 1, 69, 0
1, 13536, Note_on_c, 1, 24, 127
1, 13536, Note_on_c, 1, 64, 127
1, 13572, Note_off_c, 1, 76, 0
1, 13584, Note_on_c, 1, 77, 127
1, 13620, Note_off_c, 1, 67, 0
1, 13620, Note_off_c, 1, 24, 0
1, 13620, Note_off_c, 1, 64, 0
1, 13626, Note_off_c, 1, 77, 0
1, 13632, Note_on_c, 1, 65, 127
1, 13632, Note_on_c, 1, 57, 127
1, 13632, Note_on_c, 1, 77, 127
1, 13632, Note_on_c, 1, 72, 127
1, 13632, Note_on_c, 1, 69, 127
1, 13632, Note_on_c, 1, 41, 127
1, 13632, Note_on_c, 1, 29, 127
1, 13632, Note_on_c, 1, 60, 127
1, 13908, Note_off_c, 1, 65, 0
1, 13908, Note_off_c, 1, 57, 0
1, 13908, Note_off_c, 1, 77, 0
1, 13908, Note_off_c, 1, 72, 0
1, 13908, Note_off_c, 1, 69, 0
1, 13908, Note_off_c, 1, 41, 0
1, 13908, Note_off_c, 1, 29, 0
1, 13908, Note_off_c, 1, 60, 0
1, 14208, Note_on_c, 1, 72, 127
1, 14208, Note_on_c, 1, 69, 127
1, 14208, Note_on_c, 1, 65, 127
1, 14250, Note_off_c, 1, 65, 0
1, 14256, Note_on_c, 1, 64, 127
1, 14292, Note_off_c, 1, 72, 0
1, 14292, Note_off_c, 1, 69, 0
1, 14298, Note_off_c, 1, 64, 0
1, 14304, Note_on_c, 1, 74, 127
1, 14304, Note_on_c, 1, 70, 127
1, 14304, Note_on_c, 1, 62, 127
1, 14346, Note_off_c, 1, 74, 0
1, 14346, Note_off_c, 1, 70, 0
1, 14346, Note_off_c, 1, 62, 0
1, 14352, Note_on_c, 1, 72, 127
1, 14352, Note_on_c, 1, 69, 127
1, 14352, Note_on_c, 1, 65, 127
1, 14394, Note_off_c, 1, 72, 0
1, 14394, Note_off_c, 1, 69, 0
1, 14394, Note_off_c, 1, 65, 0
1, 14400, Note_on_c, 1, 70, 127
1, 14400, Note_on_c, 1, 67, 127
1, 14442, Note_off_c, 1, 70, 0
1, 14448, Note_on_c, 1, 69, 127
1, 14448, Note_on_c, 1, 65, 127
1, 14484, Note_off_c, 1, 67, 0
1, 14490, Note_off_c, 1, 69, 0
1, 14490, Note_off_c, 1, 65, 0
1, 14496, Note_on_c, 1, 70, 127
1, 14496, Note_on_c, 1, 67, 127
1, 14496, Note_on_c, 1, 60, 127
1, 14538, Note_off_c, 1, 70, 0
1, 14538, Note_off_c, 1, 67, 0
1, 14538, Note_off_c, 1, 60, 0
1, 14544, Note_on_c, 1, 67, 127
1, 14544, Note_on_c, 1, 60, 127
1, 14544, Note_on_c, 1, 64, 127
1, 14586, Note_off_c, 1, 67, 0
1, 14586, Note_off_c, 1, 60, 0
1, 14586, Note_off_c, 1, 64, 0
1, 14592, Note_on_c, 1, 69, 127
1, 14592, Note_on_c, 1, 65, 127
1, 14676, Note_off_c, 1, 65, 0
1, 14682, Note_off_c, 1, 69, 0
1, 14688, Note_on_c, 1, 72, 127
1, 14688, Note_on_c, 1, 69, 127
1, 14688, Note_on_c, 1, 65, 127
1, 14730, Note_off_c, 1, 65, 0
1, 14772, Note_off_c, 1, 72, 0
1, 14778, Note_off_c, 1, 69, 0
1, 14784, Note_on_c, 1, 70, 127
1, 14784, Note_on_c, 1, 67, 127
1, 14784, Note_on_c, 1, 72, 127
1, 14826, Note_off_c, 1, 70, 0
1, 14826, Note_off_c, 1, 67, 0
1, 14832, Note_on_c, 1, 69, 127
1, 14832, Note_on_c, 1, 65, 127
1, 14868, Note_off_c, 1, 72, 0
1, 14874, Note_off_c, 1, 69, 0
1, 14874, Note_off_c, 1, 65, 0
1, 14880, Note_on_c, 1, 70, 127
1, 14880, Note_on_c, 1, 67, 127
1, 14880, Note_on_c, 1, 60, 127
1, 14922, Note_off_c, 1, 70, 0
1, 14922, Note_off_c, 1, 67, 0
1, 14922, Note_off_c, 1, 60, 0
1, 14928, Note_on_c, 1, 67, 127
1, 14928, Note_on_c, 1, 60, 127
1, 14928, Note_on_c, 1, 64, 127
1, 14970, Note_off_c, 1, 67, 0
1, 14970, Note_off_c, 1, 60, 0
1, 14970, Note_off_c, 1, 64, 0
1, 14976, Note_on_c, 1, 69, 127
1, 14976, Note_on_c, 1, 65, 127
1, 15018, Note_off_c, 1, 69, 0
1, 15066, Note_off_c, 1, 65, 0
1, 15072, Note_on_c, 1, 72, 127
1, 15072, Note_on_c, 1, 69, 127
1, 15072, Note_on_c, 1, 65, 127
1, 15114, Note_off_c, 1, 69, 0
1, 15114, Note_off_c, 1, 65, 0
1, 15156, Note_off_c, 1, 72, 0
1, 15168, Note_on_c, 1, 69, 127
1, 15168, Note_on_c, 1, 72, 127
1, 15168, Note_on_c, 1, 65, 127
1, 15210, Note_off_c, 1, 69, 0
1, 15210, Note_off_c, 1, 65, 0
1, 15252, Note_off_c, 1, 72, 0
1, 15264, Note_on_c, 1, 77, 127
1, 15264, Note_on_c, 1, 69, 127
1, 15264, Note_on_c, 1, 65, 127
1, 15306, Note_off_c, 1, 69, 0
1, 15306, Note_off_c, 1, 65, 0
1, 15348, Note_off_c, 1, 77, 0
1, 15360, Note_on_c, 1, 69, 127
1, 15360, Note_on_c, 1, 60, 127
1, 15360, Note_on_c, 1, 65, 127
1, 15381, Note_off_c, 1, 60, 0
1, 15384, Note_on_c, 1, 57, 127
1, 15402, Note_off_c, 1, 69, 0
1, 15402, Note_off_c, 1, 65, 0
1, 15405, Note_off_c, 1, 57, 0
1, 15408, Note_on_c, 1, 67, 127
1, 15408, Note_on_c, 1, 60, 127
1, 15408, Note_on_c, 1, 69, 127
1, 15429, Note_off_c, 1, 67, 0
1, 15429, Note_off_c, 1, 60, 0
1, 15432, Note_on_c, 1, 65, 127
1, 15453, Note_off_c, 1, 69, 0
1, 15453, Note_off_c, 1, 65, 0
1, 15456, Note_on_c, 1, 70, 127
1, 15456, Note_on_c, 1, 67, 127
1, 15456, Note_on_c, 1, 72, 127
1, 15498, Note_off_c, 1, 70, 0
1, 15498, Note_off_c, 1, 67, 0
1, 15498, Note_off_c, 1, 72, 0
1, 15504, Note_on_c, 1, 69, 127
1, 15504, Note_on_c, 1, 65, 127
1, 15504, Note_on_c, 1, 77, 127
1, 15546, Note_off_c, 1, 69, 0
1, 15546, Note_off_c, 1, 65, 0
1, 15546, Note_off_c, 1, 77, 0
1, 15552, Note_on_c, 1, 67, 127
1, 15552, Note_on_c, 1, 60, 127
1, 15552, Note_on_c, 1, 76, 127
1, 15573, Note_off_c, 1, 67, 0
1, 15573, Note_off_c, 1, 76, 0
1, 15576, Note_on_c, 1, 65, 127
1, 15576, Note_on_c, 1, 74, 127
1, 15594, Note_off_c, 1, 60, 0
1, 15597, Note_off_c, 1, 65, 0
1, 15597, Note_off_c, 1, 74, 0
1, 15600, Note_on_c, 1, 67, 127
1, 15600, Note_on_c, 1, 60, 127
1, 15600, Note_on_c, 1, 76, 127
1, 15621, Note_off_c, 1, 67, 0
1, 15621, Note_off_c, 1, 60, 0
1, 15621, Note_off_c, 1, 76, 0
1, 15624, Note_on_c, 1, 69, 127
1, 15624, Note_on_c, 1, 60, 127
1, 15624, Note_on_c, 1, 77, 127
1, 15645, Note_off_c, 1, 69, 0
1, 15645, Note_off_c, 1, 60, 0
1, 15645, Note_off_c, 1, 77, 0
1, 15648, Note_on_c, 1, 67, 127
1, 15648, Note_on_c, 1, 60, 127
1, 15648, Note_on_c, 1, 76, 127
1, 15669, Note_off_c, 1, 67, 0
1, 15672, Note_on_c, 1, 69, 127
1, 15690, Note_off_c, 1, 60, 0
1, 15690, Note_off_c, 1, 76, 0
1, 15693, Note_off_c, 1, 69, 0
1, 15696, Note_on_c, 1, 70, 127
1, 15696, Note_on_c, 1, 67, 127
1, 15696, Note_on_c, 1, 72, 127
1, 15717, Note_off_c, 1, 70, 0
1, 15738, Note_off_c, 1, 72, 0
1, 15741, Note_off_c, 1, 67, 0
1, 15744, Note_on_c, 1, 72, 127
1, 15744, Note_on_c, 1, 69, 127
1, 15744, Note_on_c, 1, 65, 127
1, 15786, Note_off_c, 1, 65, 0
1, 15792, Note_on_c, 1, 64, 127
1, 15828, Note_off_c, 1, 72, 0
1, 15828, Note_off_c, 1, 69, 0
1, 15834, Note_off_c, 1, 64, 0
1, 15840, Note_on_c, 1, 74, 127
1, 15840, Note_on_c, 1, 70, 127
1, 15840, Note_on_c, 1, 62, 127
1, 15882, Note_off_c, 1, 74, 0
1, 15882, Note_off_c, 1, 70, 0
1, 15882, Note_off_c, 1, 62, 0
1, 15888, Note_on_c, 1, 72, 127
1, 15888, Note_on_c, 1, 69, 127
1, 15888, Note_on_c, 1, 65, 127
1, 15930, Note_off_c, 1, 72, 0
1, 15930, Note_off_c, 1, 69, 0
1, 15930, Note_off_c, 1, 65, 0
1, 15936, Note_on_c, 1, 70, 127
1, 15936, Note_on_c, 1, 67, 127
1, 15978, Note_off_c, 1, 70, 0
1, 15984, Note_on_c, 1, 69, 127
1, 15984, Note_on_c, 1, 65, 127
1, 16020, Note_off_c, 1, 67, 0
1, 16026, Note_off_c, 1, 69, 0
1, 16026, Note_off_c, 1, 65, 0
1, 16032, Note_on_c, 1, 70, 127
1, 16032, Note_on_c, 1, 67, 127
1, 16032, Note_on_c, 1, 60, 127
1, 16074, Note_off_c, 1, 70, 0
1, 16074, Note_off_c, 1, 67, 0
1, 16074, Note_off_c, 1, 60, 0
1, 16080, Note_on_c, 1, 67, 127
1, 16080, Note_on_c, 1, 60, 127
1, 16080, Note_on_c, 1, 64, 127
1, 16122, Note_off_c, 1, 67, 0
1, 16122, Note_off_c, 1, 60, 0
1, 16122, Note_off_c, 1, 64, 0
1, 16128, Note_on_c, 1, 69, 127
1, 16128, Note_on_c, 1, 65, 127
1, 16212, Note_off_c, 1, 65, 0
1, 16218, Note_off_c, 1, 69, 0
1, 16224, Note_on_c, 1, 72, 127
1, 16224, Note_on_c, 1, 69, 127
1, 16224, Note_on_c, 1, 65, 127
1, 16266, Note_off_c, 1, 65, 0
1, 16308, Note_off_c, 1, 72, 0
1, 16314, Note_off_c, 1, 69, 0
1, 16320, Note_on_c, 1, 70, 127
1, 16320, Note_on_c, 1, 67, 127
1, 16320, Note_on_c, 1, 72, 127
1, 16362, Note_off_c, 1, 70, 0
1, 16362, Note_off_c, 1, 67, 0
1, 16368, Note_on_c, 1, 69, 127
1, 16368, Note_on_c, 1, 65, 127
1, 16404, Note_off_c, 1, 72, 0
1, 16410, Note_off_c, 1, 69, 0
1, 16410, Note_off_c, 1, 65, 0
1, 16416, Note_on_c, 1, 70, 127
1, 16416, Note_on_c, 1, 67, 127
1, 16416, Note_on_c, 1, 60, 127
1, 16458, Note_off_c, 1, 70, 0
1, 16458, Note_off_c, 1, 67, 0
1, 16458, Note_off_c, 1, 60, 0
1, 16464, Note_on_c, 1, 67, 127
1, 16464, Note_on_c, 1, 60, 127
1, 16464, Note_on_c, 1, 64, 127
1, 16506, Note_off_c, 1, 67, 0
1, 16506, Note_off_c, 1, 60, 0
1, 16506, Note_off_c, 1, 64, 0
1, 16512, Note_on_c, 1, 69, 127
1, 16512, Note_on_c, 1, 65, 127
1, 16554, Note_off_c, 1, 69, 0
1, 16602, Note_off_c, 1, 65, 0
1, 16608, Note_on_c, 1, 72, 127
1, 16608, Note_on_c, 1, 69, 127
1, 16608, Note_on_c, 1, 65, 127
1, 16650, Note_off_c, 1, 69, 0
1, 16650, Note_off_c, 1, 65, 0
1, 16692, Note_off_c, 1, 72, 0
1, 16704, Note_on_c, 1, 69, 127
1, 16704, Note_on_c, 1, 72, 127
1, 16704, Note_on_c, 1, 65, 127
1, 16746, Note_off_c, 1, 69, 0
1, 16746, Note_off_c, 1, 65, 0
1, 16788, Note_off_c, 1, 72, 0
1, 16800, Note_on_c, 1, 77, 127
1, 16800, Note_on_c, 1, 69, 127
1, 16800, Note_on_c, 1, 65, 127
1, 16842, Note_off_c, 1, 69, 0
1, 16842, Note_off_c, 1, 65, 0
1, 16884, Note_off_c, 1, 77, 0
1, 16896, Note_on_c, 1, 69, 127
1, 16896, Note_on_c, 1, 60, 127
1, 16896, Note_on_c, 1, 65, 127
1, 16917, Note_off_c, 1, 60, 0
1, 16920, Note_on_c, 1, 57, 127
1, 16938, Note_off_c, 1, 69, 0
1, 16938, Note_off_c, 1, 65, 0
1, 16941, Note_off_c, 1, 57, 0
1, 16944, Note_on_c, 1, 67, 127
1, 16944, Note_on_c, 1, 60, 127
1, 16944, Note_on_c, 1, 69, 127
1, 16965, Note_off_c, 1, 67, 0
1, 16965, Note_off_c, 1, 60, 0
1, 16968, Note_on_c, 1, 65, 127
1, 16989, Note_off_c, 1, 69, 0
1, 16989, Note_off_c, 1, 65, 0
1, 16992, Note_on_c, 1, 70, 127
1, 16992, Note_on_c, 1, 67, 127
1, 16992, Note_on_c, 1, 72, 127
1, 17013, Note_off_c, 1, 70, 0
1, 17013, Note_off_c, 1, 67, 0
1, 17016, Note_on_c, 1, 69, 127
1, 17016, Note_on_c, 1, 65, 127
1, 17034, Note_off_c, 1, 72, 0
1, 17037, Note_off_c, 1, 69, 0
1, 17037, Note_off_c, 1, 65, 0
1, 17040, Note_on_c, 1, 70, 127
1, 17040, Note_on_c, 1, 67, 127
1, 17040, Note_on_c, 1, 77, 127
1, 17061, Note_off_c, 1, 70, 0
1, 17061, Note_off_c, 1, 67, 0
1, 17064, Note_on_c, 1, 69, 127
1, 17064, Note_on_c, 1, 65, 127
1, 17082, Note_off_c, 1, 77, 0
1, 17085, Note_off_c, 1, 69, 0
1, 17085, Note_off_c, 1, 65, 0
1, 17088, Note_on_c, 1, 67, 127
1, 17088, Note_on_c, 1, 60, 127
1, 17088, Note_on_c, 1, 76, 127
1, 17268, Note_off_c, 1, 67, 0
1, 17268, Note_off_c, 1, 60, 0
1, 17268, Note_off_c, 1, 76, 0
1, 17280, Note_on_c, 1, 72, 127
1, 17280, Note_on_c, 1, 69, 127
1, 17280, Note_on_c, 1, 65, 127
1, 17322, Note_off_c, 1, 65, 0
1, 17328, Note_on_c, 1, 64, 127
1, 17364, Note_off_c, 1, 72, 0
1, 17364, Note_off_c, 1, 69, 0
1, 17370, Note_off_c, 1, 64, 0
1, 17376, Note_on_c, 1, 74, 127
1, 17376, Note_on_c, 1, 70, 127
1, 17376, Note_on_c, 1, 62, 127
1, 17418, Note_off_c, 1, 74, 0
1, 17418, Note_off_c, 1, 70, 0
1, 17418, Note_off_c, 1, 62, 0
1, 17424, Note_on_c, 1, 72, 127
1, 17424, Note_on_c, 1, 69, 127
1, 17424, Note_on_c, 1, 65, 127
1, 17466, Note_off_c, 1, 72, 0
1, 17466, Note_off_c, 1, 69, 0
1, 17466, Note_off_c, 1, 65, 0
1, 17472, Note_on_c, 1, 70, 127
1, 17472, Note_on_c, 1, 67, 127
1, 17514, Note_off_c, 1, 70, 0
1, 17520, Note_on_c, 1, 69, 127
1, 17520, Note_on_c, 1, 65, 127
1, 17556, Note_off_c, 1, 67, 0
1, 17562, Note_off_c, 1, 69, 0
1, 17562, Note_off_c, 1, 65, 0
1, 17568, Note_on_c, 1, 70, 127
1, 17568, Note_on_c, 1, 67, 127
1, 17568, Note_on_c, 1, 60, 127
1, 17610, Note_off_c, 1, 70, 0
1, 17610, Note_off_c, 1, 67, 0
1, 17610, Note_off_c, 1, 60, 0
1, 17616, Note_on_c, 1, 67, 127
1, 17616, Note_on_c, 1, 60, 127
1, 17616, Note_on_c, 1, 64, 127
1, 17658, Note_off_c, 1, 67, 0
1, 17658, Note_off_c, 1, 60, 0
1, 17658, Note_off_c, 1, 64, 0
1, 17664, Note_on_c, 1, 69, 127
1, 17664, Note_on_c, 1, 65, 127
1, 17748, Note_off_c, 1, 65, 0
1, 17754, Note_off_c, 1, 69, 0
1, 17760, Note_on_c, 1, 72, 127
1, 17760, Note_on_c, 1, 69, 127
1, 17760, Note_on_c, 1, 65, 127
1, 17802, Note_off_c, 1, 65, 0
1, 17844, Note_off_c, 1, 72, 0
1, 17850, Note_off_c, 1, 69, 0
1, 17856, Note_on_c, 1, 70, 127
1, 17856, Note_on_c, 1, 67, 127
1, 17856, Note_on_c, 1, 72, 127
1, 17898, Note_off_c, 1, 70, 0
1, 17898, Note_off_c, 1, 67, 0
1, 17904, Note_on_c, 1, 69, 127
1, 17904, Note_on_c, 1, 65, 127
1, 17940, Note_off_c, 1, 72, 0
1, 17946, Note_off_c, 1, 69, 0
1, 17946, Note_off_c, 1, 65, 0
1, 17952, Note_on_c, 1, 70, 127
1, 17952, Note_on_c, 1, 67, 127
1, 17952, Note_on_c, 1, 60, 127
1, 17994, Note_off_c, 1, 70, 0
1, 17994, Note_off_c, 1, 67, 0
1, 17994, Note_off_c, 1, 60, 0
1, 18000, Note_on_c, 1, 67, 127
1, 18000, Note_on_c, 1, 60, 127
1, 18000, Note_on_c, 1, 64, 127
1, 18042, Note_off_c, 1, 67, 0
1, 18042, Note_off_c, 1, 60, 0
1, 18042, Note_off_c, 1, 64, 0
1, 18048, Note_on_c, 1, 69, 127
1, 18048, Note_on_c, 1, 65, 127
1, 18090, Note_off_c, 1, 69, 0
1, 18138, Note_off_c, 1, 65, 0
1, 18144, Note_on_c, 1, 72, 127
1, 18144, Note_on_c, 1, 69, 127
1, 18144, Note_on_c, 1, 65, 127
1, 18186, Note_off_c, 1, 69, 0
1, 18186, Note_off_c, 1, 65, 0
1, 18228, Note_off_c, 1, 72, 0
1, 18240, Note_on_c, 1, 69, 127
1, 18240, Note_on_c, 1, 72, 127
1, 18240, Note_on_c, 1, 65, 127
1, 18282, Note_off_c, 1, 69, 0
1, 18282, Note_off_c, 1, 65, 0
1, 18324, Note_off_c, 1, 72, 0
1, 18336, Note_on_c, 1, 77, 127
1, 18336, Note_on_c, 1, 69, 127
1, 18336, Note_on_c, 1, 65, 127
1, 18378, Note_off_c, 1, 69, 0
1, 18378, Note_off_c, 1, 65, 0
1, 18420, Note_off_c, 1, 77, 0
1, 18432, Note_on_c, 1, 69, 127
1, 18432, Note_on_c, 1, 60, 127
1, 18432, Note_on_c, 1, 65, 127
1, 18453, Note_off_c, 1, 60, 0
1, 18456, Note_on_c, 1, 57, 127
1, 18474, Note_off_c, 1, 69, 0
1, 18474, Note_off_c, 1, 65, 0
1, 18477, Note_off_c, 1, 57, 0
1, 18480, Note_on_c, 1, 67, 127
1, 18480, Note_on_c, 1, 60, 127
1, 18480, Note_on_c, 1, 69, 127
1, 18501, Note_off_c, 1, 67, 0
1, 18501, Note_off_c, 1, 60, 0
1, 18504, Note_on_c, 1, 65, 127
1, 18525, Note_off_c, 1, 69, 0
1, 18525, Note_off_c, 1, 65, 0
1, 18528, Note_on_c, 1, 70, 127
1, 18528, Note_on_c, 1, 67, 127
1, 18528, Note_on_c, 1, 72, 127
1, 18570, Note_off_c, 1, 70, 0
1, 18570, Note_off_c, 1, 67, 0
1, 18570, Note_off_c, 1, 72, 0
1, 18576, Note_on_c, 1, 69, 127
1, 18576, Note_on_c, 1, 65, 127
1, 18576, Note_on_c, 1, 77, 127
1, 18618, Note_off_c, 1, 69, 0
1, 18618, Note_off_c, 1, 65, 0
1, 18618, Note_off_c, 1, 77, 0
1, 18624, Note_on_c, 1, 67, 127
1, 18624, Note_on_c, 1, 60, 127
1, 18624, Note_on_c, 1, 76, 127
1, 18645, Note_off_c, 1, 67, 0
1, 18645, Note_off_c, 1, 76, 0
1, 18648, Note_on_c, 1, 65, 127
1, 18648, Note_on_c, 1, 74, 127
1, 18666, Note_off_c, 1, 60, 0
1, 18669, Note_off_c, 1, 65, 0
1, 18669, Note_off_c, 1, 74, 0
1, 18672, Note_on_c, 1, 67, 127
1, 18672, Note_on_c, 1, 60, 127
1, 18672, Note_on_c, 1, 76, 127
1, 18693, Note_off_c, 1, 67, 0
1, 18693, Note_off_c, 1, 60, 0
1, 18693, Note_off_c, 1, 76, 0
1, 18696, Note_on_c, 1, 69, 127
1, 18696, Note_on_c, 1, 60, 127
1, 18696, Note_on_c, 1, 77, 127
1, 18717, Note_off_c, 1, 69, 0
1, 18717, Note_off_c, 1, 60, 0
1, 18717, Note_off_c, 1, 77, 0
1, 18720, Note_on_c, 1, 67, 127
1, 18720, Note_on_c, 1, 60, 127
1, 18720, Note_on_c, 1, 76, 127
1, 18741, Note_off_c, 1, 67, 0
1, 18744, Note_on_c, 1, 69, 127
1, 18762, Note_off_c, 1, 60, 0
1, 18762, Note_off_c, 1, 76, 0
1, 18765, Note_off_c, 1, 69, 0
1, 18768, Note_on_c, 1, 70, 127
1, 18768, Note_on_c, 1, 67, 127
1, 18768, Note_on_c, 1, 72, 127
1, 18789, Note_off_c, 1, 70, 0
1, 18810, Note_off_c, 1, 72, 0
1, 18813, Note_off_c, 1, 67, 0
1, 18816, Note_on_c, 1, 72, 127
1, 18816, Note_on_c, 1, 69, 127
1, 18816, Note_on_c, 1, 65, 127
1, 18858, Note_off_c, 1, 65, 0
1, 18864, Note_on_c, 1, 64, 127
1, 18900, Note_off_c, 1, 72, 0
1, 18900, Note_off_c, 1, 69, 0
1, 18906, Note_off_c, 1, 64, 0
1, 18912, Note_on_c, 1, 74, 127
1, 18912, Note_on_c, 1, 70, 127
1, 18912, Note_on_c, 1, 62, 127
1, 18954, Note_off_c, 1, 74, 0
1, 18954, Note_off_c, 1, 70, 0
1, 18954, Note_off_c, 1, 62, 0
1, 18960, Note_on_c, 1, 72, 127
1, 18960, Note_on_c, 1, 69, 127
1, 18960, Note_on_c, 1, 65, 127
1, 19002, Note_off_c, 1, 72, 0
1, 19002, Note_off_c, 1, 69, 0
1, 19002, Note_off_c, 1, 65, 0
1, 19008, Note_on_c, 1, 70, 127
1, 19008, Note_on_c, 1, 67, 127
1, 19050, Note_off_c, 1, 70, 0
1, 19056, Note_on_c, 1, 69, 127
1, 19056, Note_on_c, 1, 65, 127
1, 19092, Note_off_c, 1, 67, 0
1, 19098, Note_off_c, 1, 69, 0
1, 19098, Note_off_c, 1, 65, 0
1, 19104, Note_on_c, 1, 70, 127
1, 19104, Note_on_c, 1, 67, 127
1, 19104, Note_on_c, 1, 60, 127
1, 19146, Note_off_c, 1, 70, 0
1, 19146, Note_off_c, 1, 67, 0
1, 19146, Note_off_c, 1, 60, 0
1, 19152, Note_on_c, 1, 67, 127
1, 19152, Note_on_c, 1, 60, 127
1, 19152, Note_on_c, 1, 64, 127
1, 19194, Note_off_c, 1, 67, 0
1, 19194, Note_off_c, 1, 60, 0
1, 19194, Note_off_c, 1, 64, 0
1, 19200, Note_on_c, 1, 69, 127
1, 19200, Note_on_c, 1, 65, 127
1, 19284, Note_off_c, 1, 65, 0
1, 19290, Note_off_c, 1, 69, 0
1, 19296, Note_on_c, 1, 72, 127
1, 19296, Note_on_c, 1, 69, 127
1, 19296, Note_on_c, 1, 65, 127
1, 19338, Note_off_c, 1, 65, 0
1, 19380, Note_off_c, 1, 72, 0
1, 19386, Note_off_c, 1, 69, 0
1, 19392, Note_on_c, 1, 70, 127
1, 19392, Note_on_c, 1, 67, 127
1, 19392, Note_on_c, 1, 72, 127
1, 19434, Note_off_c, 1, 70, 0
1, 19434, Note_off_c, 1, 67, 0
1, 19440, Note_on_c, 1, 69, 127
1, 19440, Note_on_c, 1, 65, 127
1, 19476, Note_off_c, 1, 72, 0
1, 19482, Note_off_c, 1, 69, 0
1, 19482, Note_off_c, 1, 65, 0
1, 19488, Note_on_c, 1, 70, 127
1, 19488, Note_on_c, 1, 67, 127
1, 19488, Note_on_c, 1, 60, 127
1, 19530, Note_off_c, 1, 70, 0
1, 19530, Note_off_c, 1, 67, 0
1, 19530, Note_off_c, 1, 60, 0
1, 19536, Note_on_c, 1, 67, 127
1, 19536, Note_on_c, 1, 60, 127
1, 19536, Note_on_c, 1, 64, 127
1, 19578, Note_off_c, 1, 67, 0
1, 19578, Note_off_c, 1, 60, 0
1, 19578, Note_off_c, 1, 64, 0
1, 19584, Note_on_c, 1, 69, 127
1, 19584, Note_on_c, 1, 65, 127
1, 19626, Note_off_c, 1, 69, 0
1, 19674, Note_off_c, 1, 65, 0
1, 19680, Note_on_c, 1, 72, 127
1, 19680, Note_on_c, 1, 69, 127
1, 19680, Note_on_c, 1, 65, 127
1, 19722, Note_off_c, 1, 69, 0
1, 19722, Note_off_c, 1, 65, 0
1, 19764, Note_off_c, 1, 72, 0
1, 19776, Note_on_c, 1, 69, 127
1, 19776, Note_on_c, 1, 72, 127
1, 19776, Note_on_c, 1, 65, 127
1, 19818, Note_off_c, 1, 69, 0
1, 19818, Note_off_c, 1, 65, 0
1, 19860, Note_off_c, 1, 72, 0
1, 19872, Note_on_c, 1, 77, 127
1, 19872, Note_on_c, 1, 69, 127
1, 19872, Note_on_c, 1, 65, 127
1, 19914, Note_off_c, 1, 69, 0
1, 19914, Note_off_c, 1, 65, 0
1, 19956, Note_off_c, 1, 77, 0
1, 19968, Note_on_c, 1, 69, 127
1, 19968, Note_on_c, 1, 60, 127
1, 19968, Note_on_c, 1, 65, 127
1, 19989, Note_off_c, 1, 60, 0
1, 19992, Note_on_c, 1, 57, 127
1, 20010, Note_off_c, 1, 69, 0
1, 20010, Note_off_c, 1, 65, 0
1, 20013, Note_off_c, 1, 57, 0
1, 20016, Note_on_c, 1, 67, 127
1, 20016, Note_on_c, 1, 60, 127
1, 20016, Note_on_c, 1, 69, 127
1, 20037, Note_off_c, 1, 67, 0
1, 20037, Note_off_c, 1, 60, 0
1, 20040, Note_on_c, 1, 65, 127
1, 20061, Note_off_c, 1, 69, 0
1, 20061, Note_off_c, 1, 65, 0
1, 20064, Note_on_c, 1, 70, 127
1, 20064, Note_on_c, 1, 67, 127
1, 20064, Note_on_c, 1, 72, 127
1, 20085, Note_off_c, 1, 70, 0
1, 20085, Note_off_c, 1, 67, 0
1, 20088, Note_on_c, 1, 69, 127
1, 20088, Note_on_c, 1, 65, 127
1, 20106, Note_off_c, 1, 72, 0
1, 20109, Note_off_c, 1, 69, 0
1, 20109, Note_off_c, 1, 65, 0
1, 20112, Note_on_c, 1, 70, 127
1, 20112, Note_on_c, 1, 67, 127
1, 20112, Note_on_c, 1, 77, 127
1, 20133, Note_off_c, 1, 70, 0
1, 20133, Note_off_c, 1, 67, 0
1, 20136, Note_on_c, 1, 69, 127
1, 20136, Note_on_c, 1, 65, 127
1, 20154, Note_off_c, 1, 77, 0
1, 20157, Note_off_c, 1, 69, 0
1, 20157, Note_off_c, 1, 65, 0
1, 20160, Note_on_c, 1, 67, 127
1, 20160, Note_on_c, 1, 60, 127
1, 20160, Note_on_c, 1, 76, 127
1, 20340, Note_off_c, 1, 67, 0
1, 20340, Note_off_c, 1, 60, 0
1, 20340, Note_off_c, 1, 76, 0
1, 20352, Note_on_c, 1, 67, 127
1, 20352, Note_on_c, 1, 60, 127
1, 20352, Note_on_c, 1, 64, 127
1, 20394, Note_off_c, 1, 64, 0
1, 20400, Note_on_c, 1, 72, 127
1, 20436, Note_off_c, 1, 67, 0
1, 20436, Note_off_c, 1, 60, 0
1, 20442, Note_off_c, 1, 72, 0
1, 20448, Note_on_c, 1, 65, 127
1, 20448, Note_on_c, 1, 57, 127
1, 20448, Note_on_c, 1, 60, 127
1, 20490, Note_off_c, 1, 65, 0
1, 20490, Note_off_c, 1, 57, 0
1, 20490, Note_off_c, 1, 60, 0
1, 20496, Note_on_c, 1, 67, 127
1, 20496, Note_on_c, 1, 60, 127
1, 20496, Note_on_c, 1, 72, 127
1, 20538, Note_off_c, 1, 67, 0
1, 20538, Note_off_c, 1, 60, 0
1, 20538, Note_off_c, 1, 72, 0
1, 20544, Note_on_c, 1, 69, 127
1, 20544, Note_on_c, 1, 65, 127
1, 20586, Note_off_c, 1, 69, 0
1, 20586, Note_off_c, 1, 65, 0
1, 20592, Note_on_c, 1, 67, 127
1, 20592, Note_on_c, 1, 60, 127
1, 20592, Note_on_c, 1, 72, 127
1, 20634, Note_off_c, 1, 67, 0
1, 20634, Note_off_c, 1, 60, 0
1, 20634, Note_off_c, 1, 72, 0
1, 20640, Note_on_c, 1, 69, 127
1, 20640, Note_on_c, 1, 65, 127
1, 20640, Note_on_c, 1, 60, 127
1, 20682, Note_off_c, 1, 69, 0
1, 20682, Note_off_c, 1, 65, 0
1, 20682, Note_off_c, 1, 60, 0
1, 20688, Note_on_c, 1, 65, 127
1, 20688, Note_on_c, 1, 57, 127
1, 20688, Note_on_c, 1, 72, 127
1, 20730, Note_off_c, 1, 65, 0
1, 20730, Note_off_c, 1, 57, 0
1, 20730, Note_off_c, 1, 72, 0
1, 20736, Note_on_c, 1, 67, 127
1, 20736, Note_on_c, 1, 60, 127
1, 20736, Note_on_c, 1, 64, 127
1, 20778, Note_off_c, 1, 64, 0
1, 20784, Note_on_c, 1, 72, 127
1, 20820, Note_off_c, 1, 67, 0
1, 20820, Note_off_c, 1, 60, 0
1, 20826, Note_off_c, 1, 72, 0
1, 20832, Note_on_c, 1, 70, 127
1, 20832, Note_on_c, 1, 67, 127
1, 20832, Note_on_c, 1, 60, 127
1, 20874, Note_off_c, 1, 60, 0
1, 20880, Note_on_c, 1, 72, 127
1, 20916, Note_off_c, 1, 70, 0
1, 20916, Note_off_c, 1, 67, 0
1, 20922, Note_off_c, 1, 72, 0
1, 20928, Note_on_c, 1, 69, 127
1, 20928, Note_on_c, 1, 65, 127
1, 20970, Note_off_c, 1, 69, 0
1, 20970, Note_off_c, 1, 65, 0
1, 20976, Note_on_c, 1, 67, 127
1, 20976, Note_on_c, 1, 60, 127
1, 20976, Note_on_c, 1, 72, 127
1, 21018, Note_off_c, 1, 67, 0
1, 21018, Note_off_c, 1, 60, 0
1, 21018, Note_off_c, 1, 72, 0
1, 21024, Note_on_c, 1, 69, 127
1, 21024, Note_on_c, 1, 65, 127
1, 21024, Note_on_c, 1, 60, 127
1, 21066, Note_off_c, 1, 69, 0
1, 21066, Note_off_c, 1, 65, 0
1, 21066, Note_off_c, 1, 60, 0
1, 21072, Note_on_c, 1, 65, 127
1, 21072, Note_on_c, 1, 57, 127
1, 21072, Note_on_c, 1, 72, 127
1, 21114, Note_off_c, 1, 65, 0
1, 21114, Note_off_c, 1, 57, 0
1, 21114, Note_off_c, 1, 72, 0
1, 21120, Note_on_c, 1, 67, 127
1, 21120, Note_on_c, 1, 60, 127
1, 21120, Note_on_c, 1, 64, 127
1, 21162, Note_off_c, 1, 67, 0
1, 21162, Note_off_c, 1, 64, 0
1, 21210, Note_off_c, 1, 60, 0
1, 21216, Note_on_c, 1, 70, 127
1, 21216, Note_on_c, 1, 67, 127
1, 21216, Note_on_c, 1, 64, 127
1, 21258, Note_off_c, 1, 67, 0
1, 21258, Note_off_c, 1, 64, 0
1, 21264, Note_on_c, 1, 60, 127
1, 21300, Note_off_c, 1, 70, 0
1, 21306, Note_off_c, 1, 60, 0
1, 21312, Note_on_c, 1, 69, 127
1, 21312, Note_on_c, 1, 72, 127
1, 21312, Note_on_c, 1, 65, 127
1, 21354, Note_off_c, 1, 69, 0
1, 21354, Note_off_c, 1, 65, 0
1, 21396, Note_off_c, 1, 72, 0
1, 21408, Note_on_c, 1, 72, 127
1, 21408, Note_on_c, 1, 69, 127
1, 21408, Note_on_c, 1, 65, 127
1, 21450, Note_off_c, 1, 72, 0
1, 21450, Note_off_c, 1, 69, 0
1, 21450, Note_off_c, 1, 65, 0
1, 21456, Note_on_c, 1, 70, 127
1, 21456, Note_on_c, 1, 65, 127
1, 21456, Note_on_c, 1, 69, 127
1, 21477, Note_off_c, 1, 70, 0
1, 21480, Note_on_c, 1, 72, 127
1, 21498, Note_off_c, 1, 65, 0
1, 21498, Note_off_c, 1, 69, 0
1, 21501, Note_off_c, 1, 72, 0
1, 21504, Note_on_c, 1, 74, 127
1, 21504, Note_on_c, 1, 70, 127
1, 21528, Note_on_c, 1, 69, 127
1, 21546, Note_off_c, 1, 74, 0
1, 21546, Note_off_c, 1, 70, 0
1, 21549, Note_off_c, 1, 69, 0
1, 21552, Note_on_c, 1, 72, 127
1, 21552, Note_on_c, 1, 69, 127
1, 21552, Note_on_c, 1, 70, 127
1, 21573, Note_off_c, 1, 70, 0
1, 21594, Note_off_c, 1, 69, 0
1, 21597, Note_off_c, 1, 72, 0
1, 21600, Note_on_c, 1, 70, 127
1, 21600, Note_on_c, 1, 67, 127
1, 21600, Note_on_c, 1, 74, 127
1, 21621, Note_off_c, 1, 74, 0
1, 21624, Note_on_c, 1, 76, 127
1, 21642, Note_off_c, 1, 70, 0
1, 21642, Note_off_c, 1, 67, 0
1, 21645, Note_off_c, 1, 76, 0
1, 21648, Note_on_c, 1, 69, 127
1, 21648, Note_on_c, 1, 65, 127
1, 21648, Note_on_c, 1, 77, 127
1, 21669, Note_off_c, 1, 77, 0
1, 21672, Note_on_c, 1, 74, 127
1, 21690, Note_off_c, 1, 69, 0
1, 21690, Note_off_c, 1, 65, 0
1, 21693, Note_off_c, 1, 74, 0
1, 21696, Note_on_c, 1, 67, 127
1, 21696, Note_on_c, 1, 60, 127
1, 21696, Note_on_c, 1, 76, 127
1, 21717, Note_off_c, 1, 67, 0
1, 21717, Note_off_c, 1, 76, 0
1, 21720, Note_on_c, 1, 65, 127
1, 21720, Note_on_c, 1, 74, 127
1, 21738, Note_off_c, 1, 60, 0
1, 21741, Note_off_c, 1, 65, 0
1, 21741, Note_off_c, 1, 74, 0
1, 21744, Note_on_c, 1, 67, 127
1, 21744, Note_on_c, 1, 60, 127
1, 21744, Note_on_c, 1, 76, 127
1, 21765, Note_off_c, 1, 67, 0
1, 21765, Note_off_c, 1, 60, 0
1, 21765, Note_off_c, 1, 76, 0
1, 21768, Note_on_c, 1, 69, 127
1, 21768, Note_on_c, 1, 60, 127
1, 21768, Note_on_c, 1, 77, 127
1, 21789, Note_off_c, 1, 69, 0
1, 21789, Note_off_c, 1, 60, 0
1, 21789, Note_off_c, 1, 77, 0
1, 21792, Note_on_c, 1, 67, 127
1, 21792, Note_on_c, 1, 60, 127
1, 21792, Note_on_c, 1, 76, 127
1, 21813, Note_off_c, 1, 67, 0
1, 21813, Note_off_c, 1, 76, 0
1, 21816, Note_on_c, 1, 69, 127
1, 21816, Note_on_c, 1, 77, 127
1, 21834, Note_off_c, 1, 60, 0
1, 21837, Note_off_c, 1, 69, 0
1, 21837, Note_off_c, 1, 77, 0
1, 21840, Note_on_c, 1, 70, 127
1, 21840, Note_on_c, 1, 67, 127
1, 21840, Note_on_c, 1, 79, 127
1, 21861, Note_off_c, 1, 70, 0
1, 21861, Note_off_c, 1, 79, 0
1, 21864, Note_on_c, 1, 69, 127
1, 21864, Note_on_c, 1, 77, 127
1, 21882, Note_off_c, 1, 67, 0
1, 21885, Note_off_c, 1, 69, 0
1, 21885, Note_off_c, 1, 77, 0
1, 21888, Note_on_c, 1, 67, 127
1, 21888, Note_on_c, 1, 60, 127
1, 21888, Note_on_c, 1, 76, 127
1, 21930, Note_off_c, 1, 76, 0
1, 21936, Note_on_c, 1, 72, 127
1, 21972, Note_off_c, 1, 67, 0
1, 21972, Note_off_c, 1, 60, 0
1, 21978, Note_off_c, 1, 72, 0
1, 21984, Note_on_c, 1, 65, 127
1, 21984, Note_on_c, 1, 57, 127
1, 21984, Note_on_c, 1, 60, 127
1, 22026, Note_off_c, 1, 65, 0
1, 22026, Note_off_c, 1, 57, 0
1, 22026, Note_off_c, 1, 60, 0
1, 22032, Note_on_c, 1, 67, 127
1, 22032, Note_on_c, 1, 60, 127
1, 22032, Note_on_c, 1, 72, 127
1, 22074, Note_off_c, 1, 67, 0
1, 22074, Note_off_c, 1, 60, 0
1, 22074, Note_off_c, 1, 72, 0
1, 22080, Note_on_c, 1, 69, 127
1, 22080, Note_on_c, 1, 65, 127
1, 22122, Note_off_c, 1, 69, 0
1, 22122, Note_off_c, 1, 65, 0
1, 22128, Note_on_c, 1, 67, 127
1, 22128, Note_on_c, 1, 60, 127
1, 22128, Note_on_c, 1, 72, 127
1, 22170, Note_off_c, 1, 67, 0
1, 22170, Note_off_c, 1, 60, 0
1, 22170, Note_off_c, 1, 72, 0
1, 22176, Note_on_c, 1, 69, 127
1, 22176, Note_on_c, 1, 65, 127
1, 22176, Note_on_c, 1, 60, 127
1, 22218, Note_off_c, 1, 69, 0
1, 22218, Note_off_c, 1, 65, 0
1, 22218, Note_off_c, 1, 60, 0
1, 22224, Note_on_c, 1, 65, 127
1, 22224, Note_on_c, 1, 57, 127
1, 22224, Note_on_c, 1, 72, 127
1, 22266, Note_off_c, 1, 65, 0
1, 22266, Note_off_c, 1, 57, 0
1, 22266, Note_off_c, 1, 72, 0
1, 22272, Note_on_c, 1, 67, 127
1, 22272, Note_on_c, 1, 60, 127
1, 22272, Note_on_c, 1, 64, 127
1, 22314, Note_off_c, 1, 64, 0
1, 22320, Note_on_c, 1, 72, 127
1, 22356, Note_off_c, 1, 67, 0
1, 22356, Note_off_c, 1, 60, 0
1, 22362, Note_off_c, 1, 72, 0
1, 22368, Note_on_c, 1, 70, 127
1, 22368, Note_on_c, 1, 67, 127
1, 22368, Note_on_c, 1, 60, 127
1, 22410, Note_off_c, 1, 60, 0
1, 22416, Note_on_c, 1, 72, 127
1, 22452, Note_off_c, 1, 70, 0
1, 22452, Note_off_c, 1, 67, 0
1, 22458, Note_off_c, 1, 72, 0
1, 22464, Note_on_c, 1, 69, 127
1, 22464, Note_on_c, 1, 65, 127
1, 22506, Note_off_c, 1, 69, 0
1, 22506, Note_off_c, 1, 65, 0
1, 22512, Note_on_c, 1, 67, 127
1, 22512, Note_on_c, 1, 60, 127
1, 22512, Note_on_c, 1, 72, 127
1, 22554, Note_off_c, 1, 67, 0
1, 22554, Note_off_c, 1, 60, 0
1, 22554, Note_off_c, 1, 72, 0
1, 22560, Note_on_c, 1, 69, 127
1, 22560, Note_on_c, 1, 65, 127
1, 22560, Note_on_c, 1, 60, 127
1, 22602, Note_off_c, 1, 69, 0
1, 22602, Note_off_c, 1, 65, 0
1, 22602, Note_off_c, 1, 60, 0
1, 22608, Note_on_c, 1, 65, 127
1, 22608, Note_on_c, 1, 57, 127
1, 22608, Note_on_c, 1, 72, 127
1, 22650, Note_off_c, 1, 65, 0
1, 22650, Note_off_c, 1, 57, 0
1, 22650, Note_off_c, 1, 72, 0
1, 22656, Note_on_c, 1, 67, 127
1, 22656, Note_on_c, 1, 60, 127
1, 22656, Note_on_c, 1, 64, 127
1, 22698, Note_off_c, 1, 67, 0
1, 22698, Note_off_c, 1, 64, 0
1, 22746, Note_off_c, 1, 60, 0
1, 22752, Note_on_c, 1, 70, 127
1, 22752, Note_on_c, 1, 67, 127
1, 22752, Note_on_c, 1, 64, 127
1, 22794, Note_off_c, 1, 67, 0
1, 22794, Note_off_c, 1, 64, 0
1, 22800, Note_on_c, 1, 60, 127
1, 22836, Note_off_c, 1, 70, 0
1, 22842, Note_off_c, 1, 60, 0
1, 22848, Note_on_c, 1, 69, 127
1, 22848, Note_on_c, 1, 72, 127
1, 22848, Note_on_c, 1, 65, 127
1, 22890, Note_off_c, 1, 69, 0
1, 22890, Note_off_c, 1, 65, 0
1, 22932, Note_off_c, 1, 72, 0
1, 22944, Note_on_c, 1, 77, 127
1, 22944, Note_on_c, 1, 69, 127
1, 22944, Note_on_c, 1, 65, 127
1, 22986, Note_off_c, 1, 77, 0
1, 22986, Note_off_c, 1, 69, 0
1, 22986, Note_off_c, 1, 65, 0
1, 22992, Note_on_c, 1, 72, 127
1, 22992, Note_on_c, 1, 65, 127
1, 22992, Note_on_c, 1, 69, 127
1, 23034, Note_off_c, 1, 72, 0
1, 23034, Note_off_c, 1, 65, 0
1, 23034, Note_off_c, 1, 69, 0
1, 23040, Note_on_c, 1, 69, 127
1, 23040, Note_on_c, 1, 60, 127
1, 23040, Note_on_c, 1, 65, 127
1, 23061, Note_off_c, 1, 69, 0
1, 23064, Note_on_c, 1, 67, 127
1, 23082, Note_off_c, 1, 60, 0
1, 23082, Note_off_c, 1, 65, 0
1, 23085, Note_off_c, 1, 67, 0
1, 23088, Note_on_c, 1, 69, 127
1, 23088, Note_on_c, 1, 53, 127
1, 23088, Note_on_c, 1, 77, 127
1, 23109, Note_off_c, 1, 69, 0
1, 23112, Note_on_c, 1, 65, 127
1, 23130, Note_off_c, 1, 53, 0
1, 23130, Note_off_c, 1, 77, 0
1, 23133, Note_off_c, 1, 65, 0
1, 23136, Note_on_c, 1, 67, 127
1, 23136, Note_on_c, 1, 57, 127
1, 23136, Note_on_c, 1, 77, 127
1, 23146, Note_off_c, 1, 77, 0
1, 23148, Note_on_c, 1, 76, 127
1, 23157, Note_off_c, 1, 67, 0
1, 23158, Note_off_c, 1, 76, 0
1, 23160, Note_on_c, 1, 65, 127
1, 23178, Note_off_c, 1, 57, 0
1, 23181, Note_off_c, 1, 65, 0
1, 23184, Note_on_c, 1, 67, 127
1, 23184, Note_on_c, 1, 60, 127
1, 23184, Note_on_c, 1, 74, 127
1, 23205, Note_off_c, 1, 67, 0
1, 23205, Note_off_c, 1, 74, 0
1, 23208, Note_on_c, 1, 69, 127
1, 23208, Note_on_c, 1, 76, 127
1, 23226, Note_off_c, 1, 60, 0
1, 23229, Note_off_c, 1, 69, 0
1, 23229, Note_off_c, 1, 76, 0
1, 23232, Note_on_c, 1, 65, 127
1, 23232, Note_on_c, 1, 57, 127
1, 23232, Note_on_c, 1, 77, 127
1, 23412, Note_off_c, 1, 65, 0
1, 23412, Note_off_c, 1, 57, 0
1, 23412, Note_off_c, 1, 77, 0
1, 23424, Note_on_c, 1, 67, 127
1, 23424, Note_on_c, 1, 60, 127
1, 23424, Note_on_c, 1, 64, 127
1, 23466, Note_off_c, 1, 64, 0
1, 23472, Note_on_c, 1, 72, 127
1, 23508, Note_off_c, 1, 67, 0
1, 23508, Note_off_c, 1, 60, 0
1, 23514, Note_off_c, 1, 72, 0
1, 23520, Note_on_c, 1, 65, 127
1, 23520, Note_on_c, 1, 57, 127
1, 23520, Note_on_c, 1, 60, 127
1, 23562, Note_off_c, 1, 65, 0
1, 23562, Note_off_c, 1, 57, 0
1, 23562, Note_off_c, 1, 60, 0
1, 23568, Note_on_c, 1, 67, 127
1, 23568, Note_on_c, 1, 60, 127
1, 23568, Note_on_c, 1, 72, 127
1, 23610, Note_off_c, 1, 67, 0
1, 23610, Note_off_c, 1, 60, 0
1, 23610, Note_off_c, 1, 72, 0
1, 23616, Note_on_c, 1, 69, 127
1, 23616, Note_on_c, 1, 65, 127
1, 23658, Note_off_c, 1, 69, 0
1, 23658, Note_off_c, 1, 65, 0
1, 23664, Note_on_c, 1, 67, 127
1, 23664, Note_on_c, 1, 60, 127
1, 23664, Note_on_c, 1, 72, 127
1, 23706, Note_off_c, 1, 67, 0
1, 23706, Note_off_c, 1, 60, 0
1, 23706, Note_off_c, 1, 72, 0
1, 23712, Note_on_c, 1, 69, 127
1, 23712, Note_on_c, 1, 65, 127
1, 23712, Note_on_c, 1, 60, 127
1, 23754, Note_off_c, 1, 69, 0
1, 23754, Note_off_c, 1, 65, 0
1, 23754, Note_off_c, 1, 60, 0
1, 23760, Note_on_c, 1, 65, 127
1, 23760, Note_on_c, 1, 57, 127
1, 23760, Note_on_c, 1, 72, 127
1, 23802, Note_off_c, 1, 65, 0
1, 23802, Note_off_c, 1, 57, 0
1, 23802, Note_off_c, 1, 72, 0
1, 23808, Note_on_c, 1, 67, 127
1, 23808, Note_on_c, 1, 60, 127
1, 23808, Note_on_c, 1, 64, 127
1, 23850, Note_off_c, 1, 64, 0
1, 23856, Note_on_c, 1, 72, 127
1, 23892, Note_off_c, 1, 67, 0
1, 23892, Note_off_c, 1, 60, 0
1, 23898, Note_off_c, 1, 72, 0
1, 23904, Note_on_c, 1, 70, 127
1, 23904, Note_on_c, 1, 67, 127
1, 23904, Note_on_c, 1, 60, 127
1, 23946, Note_off_c, 1, 60, 0
1, 23952, Note_on_c, 1, 72, 127
1, 23988, Note_off_c, 1, 70, 0
1, 23988, Note_off_c, 1, 67, 0
1, 23994, Note_off_c, 1, 72, 0
1, 24000, Note_on_c, 1, 69, 127
1, 24000, Note_on_c, 1, 65, 127
1, 24042, Note_off_c, 1, 69, 0
1, 24042, Note_off_c, 1, 65, 0
1, 24048, Note_on_c, 1, 67, 127
1, 24048, Note_on_c, 1, 60, 127
1, 24048, Note_on_c, 1, 72, 127
1, 24090, Note_off_c, 1, 67, 0
1, 24090, Note_off_c, 1, 60, 0
1, 24090, Note_off_c, 1, 72, 0
1, 24096, Note_on_c, 1, 69, 127
1, 24096, Note_on_c, 1, 65, 127
1, 24096, Note_on_c, 1, 60, 127
1, 24138, Note_off_c, 1, 69, 0
1, 24138, Note_off_c, 1, 65, 0
1, 24138, Note_off_c, 1, 60, 0
1, 24144, Note_on_c, 1, 65, 127
1, 24144, Note_on_c, 1, 57, 127
1, 24144, Note_on_c, 1, 72, 127
1, 24186, Note_off_c, 1, 65, 0
1, 24186, Note_off_c, 1, 57, 0
1, 24186, Note_off_c, 1, 72, 0
1, 24192, Note_on_c, 1, 67, 127
1, 24192, Note_on_c, 1, 60, 127
1, 24192, Note_on_c, 1, 64, 127
1, 24234, Note_off_c, 1, 67, 0
1, 24234, Note_off_c, 1, 64, 0
1, 24282, Note_off_c, 1, 60, 0
1, 24288, Note_on_c, 1, 70, 127
1, 24288, Note_on_c, 1, 67, 127
1, 24288, Note_on_c, 1, 64, 127
1, 24330, Note_off_c, 1, 67, 0
1, 24330, Note_off_c, 1, 64, 0
1, 24336, Note_on_c, 1, 60, 127
1, 24372, Note_off_c, 1, 70, 0
1, 24378, Note_off_c, 1, 60, 0
1, 24384, Note_on_c, 1, 69, 127
1, 24384, Note_on_c, 1, 72, 127
1, 24384, Note_on_c, 1, 65, 127
1, 24426, Note_off_c, 1, 69, 0
1, 24426, Note_off_c, 1, 65, 0
1, 24468, Note_off_c, 1, 72, 0
1, 24480, Note_on_c, 1, 72, 127
1, 24480, Note_on_c, 1, 69, 127
1, 24480, Note_on_c, 1, 65, 127
1, 24522, Note_off_c, 1, 72, 0
1, 24522, Note_off_c, 1, 69, 0
1, 24522, Note_off_c, 1, 65, 0
1, 24528, Note_on_c, 1, 70, 127
1, 24528, Note_on_c, 1, 65, 127
1, 24528, Note_on_c, 1, 69, 127
1, 24549, Note_off_c, 1, 70, 0
1, 24552, Note_on_c, 1, 72, 127
1, 24570, Note_off_c, 1, 65, 0
1, 24570, Note_off_c, 1, 69, 0
1, 24573, Note_off_c, 1, 72, 0
1, 24576, Note_on_c, 1, 74, 127
1, 24576, Note_on_c, 1, 70, 127
1, 24600, Note_on_c, 1, 69, 127
1, 24618, Note_off_c, 1, 74, 0
1, 24618, Note_off_c, 1, 70, 0
1, 24621, Note_off_c, 1, 69, 0
1, 24624, Note_on_c, 1, 72, 127
1, 24624, Note_on_c, 1, 69, 127
1, 24624, Note_on_c, 1, 70, 127
1, 24645, Note_off_c, 1, 70, 0
1, 24666, Note_off_c, 1, 69, 0
1, 24669, Note_off_c, 1, 72, 0
1, 24672, Note_on_c, 1, 70, 127
1, 24672, Note_on_c, 1, 67, 127
1, 24672, Note_on_c, 1, 74, 127
1, 24693, Note_off_c, 1, 74, 0
1, 24696, Note_on_c, 1, 76, 127
1, 24714, Note_off_c, 1, 70, 0
1, 24714, Note_off_c, 1, 67, 0
1, 24717, Note_off_c, 1, 76, 0
1, 24720, Note_on_c, 1, 69, 127
1, 24720, Note_on_c, 1, 65, 127
1, 24720, Note_on_c, 1, 77, 127
1, 24741, Note_off_c, 1, 77, 0
1, 24744, Note_on_c, 1, 74, 127
1, 24762, Note_off_c, 1, 69, 0
1, 24762, Note_off_c, 1, 65, 0
1, 24765, Note_off_c, 1, 74, 0
1, 24768, Note_on_c, 1, 67, 127
1, 24768, Note_on_c, 1, 60, 127
1, 24768, Note_on_c, 1, 76, 127
1, 24789, Note_off_c, 1, 67, 0
1, 24789, Note_off_c, 1, 76, 0
1, 24792, Note_on_c, 1, 65, 127
1, 24792, Note_on_c, 1, 74, 127
1, 24810, Note_off_c, 1, 60, 0
1, 24813, Note_off_c, 1, 65, 0
1, 24813, Note_off_c, 1, 74, 0
1, 24816, Note_on_c, 1, 67, 127
1, 24816, Note_on_c, 1, 60, 127
1, 24816, Note_on_c, 1, 76, 127
1, 24837, Note_off_c, 1, 67, 0
1, 24837, Note_off_c, 1, 60, 0
1, 24837, Note_off_c, 1, 76, 0
1, 24840, Note_on_c, 1, 69, 127
1, 24840, Note_on_c, 1, 60, 127
1, 24840, Note_on_c, 1, 77, 127
1, 24861, Note_off_c, 1, 69, 0
1, 24861, Note_off_c, 1, 60, 0
1, 24861, Note_off_c, 1, 77, 0
1, 24864, Note_on_c, 1, 67, 127
1, 24864, Note_on_c, 1, 60, 127
1, 24864, Note_on_c, 1, 76, 127
1, 24885, Note_off_c, 1, 67, 0
1, 24885, Note_off_c, 1, 76, 0
1, 24888, Note_on_c, 1, 69, 127
1, 24888, Note_on_c, 1, 77, 127
1, 24906, Note_off_c, 1, 60, 0
1, 24909, Note_off_c, 1, 69, 0
1, 24909, Note_off_c, 1, 77, 0
1, 24912, Note_on_c, 1, 70, 127
1, 24912, Note_on_c, 1, 67, 127
1, 24912, Note_on_c, 1, 79, 127
1, 24933, Note_off_c, 1, 70, 0
1, 24933, Note_off_c, 1, 79, 0
1, 24936, Note_on_c, 1, 69, 127
1, 24936, Note_on_c, 1, 77, 127
1, 24954, Note_off_c, 1, 67, 0
1, 24957, Note_off_c, 1, 69, 0
1, 24957, Note_off_c, 1, 77, 0
1, 24960, Note_on_c, 1, 67, 127
1, 24960, Note_on_c, 1, 60, 127
1, 24960, Note_on_c, 1, 76, 127
1, 25002, Note_off_c, 1, 76, 0
1, 25008, Note_on_c, 1, 72, 127
1, 25044, Note_off_c, 1, 67, 0
1, 25044, Note_off_c, 1, 60, 0
1, 25050, Note_off_c, 1, 72, 0
1, 25056, Note_on_c, 1, 65, 127
1, 25056, Note_on_c, 1, 57, 127
1, 25056, Note_on_c, 1, 60, 127
1, 25098, Note_off_c, 1, 65, 0
1, 25098, Note_off_c, 1, 57, 0
1, 25098, Note_off_c, 1, 60, 0
1, 25104, Note_on_c, 1, 67, 127
1, 25104, Note_on_c, 1, 60, 127
1, 25104, Note_on_c, 1, 72, 127
1, 25146, Note_off_c, 1, 67, 0
1, 25146, Note_off_c, 1, 60, 0
1, 25146, Note_off_c, 1, 72, 0
1, 25152, Note_on_c, 1, 69, 127
1, 25152, Note_on_c, 1, 65, 127
1, 25194, Note_off_c, 1, 69, 0
1, 25194, Note_off_c, 1, 65, 0
1, 25200, Note_on_c, 1, 67, 127
1, 25200, Note_on_c, 1, 60, 127
1, 25200, Note_on_c, 1, 72, 127
1, 25242, Note_off_c, 1, 67, 0
1, 25242, Note_off_c, 1, 60, 0
1, 25242, Note_off_c, 1, 72, 0
1, 25248, Note_on_c, 1, 69, 127
1, 25248, Note_on_c, 1, 65, 127
1, 25248, Note_on_c, 1, 60, 127
1, 25290, Note_off_c, 1, 69, 0
1, 25290, Note_off_c, 1, 65, 0
1, 25290, Note_off_c, 1, 60, 0
1, 25296, Note_on_c, 1, 65, 127
1, 25296, Note_on_c, 1, 57, 127
1, 25296, Note_on_c, 1, 72, 127
1, 25338, Note_off_c, 1, 65, 0
1, 25338, Note_off_c, 1, 57, 0
1, 25338, Note_off_c, 1, 72, 0
1, 25344, Note_on_c, 1, 67, 127
1, 25344, Note_on_c, 1, 60, 127
1, 25344, Note_on_c, 1, 64, 127
1, 25386, Note_off_c, 1, 64, 0
1, 25392, Note_on_c, 1, 72, 127
1, 25428, Note_off_c, 1, 67, 0
1, 25428, Note_off_c, 1, 60, 0
1, 25434, Note_off_c, 1, 72, 0
1, 25440, Note_on_c, 1, 70, 127
1, 25440, Note_on_c, 1, 67, 127
1, 25440, Note_on_c, 1, 60, 127
1, 25482, Note_off_c, 1, 60, 0
1, 25488, Note_on_c, 1, 72, 127
1, 25524, Note_off_c, 1, 70, 0
1, 25524, Note_off_c, 1, 67, 0
1, 25530, Note_off_c, 1, 72, 0
1, 25536, Note_on_c, 1, 69, 127
1, 25536, Note_on_c, 1, 65, 127
1, 25578, Note_off_c, 1, 69, 0
1, 25578, Note_off_c, 1, 65, 0
1, 25584, Note_on_c, 1, 67, 127
1, 25584, Note_on_c, 1, 60, 127
1, 25584, Note_on_c, 1, 72, 127
1, 25626, Note_off_c, 1, 67, 0
1, 25626, Note_off_c, 1, 60, 0
1, 25626, Note_off_c, 1, 72, 0
1, 25632, Note_on_c, 1, 69, 127
1, 25632, Note_on_c, 1, 65, 127
1, 25632, Note_on_c, 1, 60, 127
1, 25674, Note_off_c, 1, 69, 0
1, 25674, Note_off_c, 1, 65, 0
1, 25674, Note_off_c, 1, 60, 0
1, 25680, Note_on_c, 1, 65, 127
1, 25680, Note_on_c, 1, 57, 127
1, 25680, Note_on_c, 1, 72, 127
1, 25722, Note_off_c, 1, 65, 0
1, 25722, Note_off_c, 1, 57, 0
1, 25722, Note_off_c, 1, 72, 0
1, 25728, Note_on_c, 1, 67, 127
1, 25728, Note_on_c, 1, 60, 127
1, 25728, Note_on_c, 1, 64, 127
1, 25770, Note_off_c, 1, 67, 0
1, 25770, Note_off_c, 1, 64, 0
1, 25818, Note_off_c, 1, 60, 0
1, 25824, Note_on_c, 1, 70, 127
1, 25824, Note_on_c, 1, 67, 127
1, 25824, Note_on_c, 1, 64, 127
1, 25866, Note_off_c, 1, 67, 0
1, 25866, Note_off_c, 1, 64, 0
1, 25872, Note_on_c, 1, 60, 127
1, 25908, Note_off_c, 1, 70, 0
1, 25914, Note_off_c, 1, 60, 0
1, 25920, Note_on_c, 1, 69, 127
1, 25920, Note_on_c, 1, 72, 127
1, 25920, Note_on_c, 1, 65, 127
1, 25962, Note_off_c, 1, 69, 0
1, 25962, Note_off_c, 1, 65, 0
1, 26004, Note_off_c, 1, 72, 0
1, 26016, Note_on_c, 1, 77, 127
1, 26016, Note_on_c, 1, 69, 127
1, 26016, Note_on_c, 1, 65, 127
1, 26058, Note_off_c, 1, 77, 0
1, 26058, Note_off_c, 1, 69, 0
1, 26058, Note_off_c, 1, 65, 0
1, 26064, Note_on_c, 1, 72, 127
1, 26064, Note_on_c, 1, 65, 127
1, 26064, Note_on_c, 1, 69, 127
1, 26106, Note_off_c, 1, 72, 0
1, 26106, Note_off_c, 1, 65, 0
1, 26106, Note_off_c, 1, 69, 0
1, 26112, Note_on_c, 1, 69, 127
1, 26112, Note_on_c, 1, 60, 127
1, 26112, Note_on_c, 1, 65, 127
1, 26133, Note_off_c, 1, 69, 0
1, 26136, Note_on_c, 1, 67, 127
1, 26154, Note_off_c, 1, 60, 0
1, 26154, Note_off_c, 1, 65, 0
1, 26157, Note_off_c, 1, 67, 0
1, 26160, Note_on_c, 1, 69, 127
1, 26160, Note_on_c, 1, 53, 127
1, 26160, Note_on_c, 1, 77, 127
1, 26181, Note_off_c, 1, 69, 0
1, 26184, Note_on_c, 1, 65, 127
1, 26202, Note_off_c, 1, 53, 0
1, 26202, Note_off_c, 1, 77, 0
1, 26205, Note_off_c, 1, 65, 0
1, 26208, Note_on_c, 1, 67, 127
1, 26208, Note_on_c, 1, 57, 127
1, 26208, Note_on_c, 1, 77, 127
1, 26218, Note_off_c, 1, 77, 0
1, 26220, Note_on_c, 1, 76, 127
1, 26229, Note_off_c, 1, 67, 0
1, 26230, Note_off_c, 1, 76, 0
1, 26232, Note_on_c, 1, 65, 127
1, 26250, Note_off_c, 1, 57, 0
1, 26253, Note_off_c, 1, 65, 0
1, 26256, Note_on_c, 1, 67, 127
1, 26256, Note_on_c, 1, 60, 127
1, 26256, Note_on_c, 1, 74, 127
1, 26277, Note_off_c, 1, 67, 0
1, 26277, Note_off_c, 1, 74, 0
1, 26280, Note_on_c, 1, 69, 127
1, 26280, Note_on_c, 1, 76, 127
1, 26298, Note_off_c, 1, 60, 0
1, 26301, Note_off_c, 1, 69, 0
1, 26301, Note_off_c, 1, 76, 0
1, 26304, Note_on_c, 1, 65, 127
1, 26304, Note_on_c, 1, 57, 127
1, 26304, Note_on_c, 1, 77, 127
1, 26484, Note_off_c, 1, 65, 0
1, 26484, Note_off_c, 1, 57, 0
1, 26484, Note_off_c, 1, 77, 0
1, 26880, Note_on_c, 1, 53, 127
1, 26880, Note_on_c, 1, 72, 127
1, 26880, Note_on_c, 1, 69, 127
1, 26880, Note_on_c, 1, 65, 127
1, 26880, Note_on_c, 1, 57, 127
1, 26880, Note_on_c, 1, 45, 127
1, 26964, Note_off_c, 1, 53, 0
1, 26964, Note_off_c, 1, 72, 0
1, 26964, Note_off_c, 1, 69, 0
1, 26976, Note_on_c, 1, 75, 127
1, 26976, Note_on_c, 1, 63, 127
1, 27060, Note_off_c, 1, 65, 0
1, 27060, Note_off_c, 1, 57, 0
1, 27060, Note_off_c, 1, 45, 0
1, 27060, Note_off_c, 1, 75, 0
1, 27060, Note_off_c, 1, 63, 0
1, 27072, Note_on_c, 1, 53, 127
1, 27072, Note_on_c, 1, 74, 127
1, 27072, Note_on_c, 1, 70, 127
1, 27072, Note_on_c, 1, 65, 127
1, 27072, Note_on_c, 1, 58, 127
1, 27072, Note_on_c, 1, 46, 127
1, 27114, Note_off_c, 1, 53, 0
1, 27156, Note_off_c, 1, 74, 0
1, 27156, Note_off_c, 1, 70, 0
1, 27156, Note_off_c, 1, 65, 0
1, 27156, Note_off_c, 1, 58, 0
1, 27156, Note_off_c, 1, 46, 0
1, 27168, Note_on_c, 1, 53, 127
1, 27168, Note_on_c, 1, 72, 127
1, 27168, Note_on_c, 1, 69, 127
1, 27168, Note_on_c, 1, 63, 127
1, 27168, Note_on_c, 1, 60, 127
1, 27168, Note_on_c, 1, 65, 127
1, 27168, Note_on_c, 1, 48, 127
1, 27168, Note_on_c, 1, 75, 127
1, 27178, Note_off_c, 1, 65, 0
1, 27252, Note_off_c, 1, 53, 0
1, 27252, Note_off_c, 1, 72, 0
1, 27252, Note_off_c, 1, 69, 0
1, 27252, Note_off_c, 1, 60, 0
1, 27252, Note_off_c, 1, 48, 0
1, 27252, Note_off_c, 1, 75, 0
1, 27262, Note_off_c, 1, 63, 0
1, 27264, Note_on_c, 1, 53, 127
1, 27264, Note_on_c, 1, 70, 127
1, 27264, Note_on_c, 1, 65, 127
1, 27264, Note_on_c, 1, 62, 127
1, 27264, Note_on_c, 1, 63, 127
1, 27264, Note_on_c, 1, 51, 127
1, 27264, Note_on_c, 1, 75, 127
1, 27306, Note_off_c, 1, 53, 0
1, 27306, Note_off_c, 1, 62, 0
1, 27312, Note_on_c, 1, 69, 127
1, 27312, Note_on_c, 1, 60, 127
1, 27348, Note_off_c, 1, 70, 0
1, 27348, Note_off_c, 1, 65, 0
1, 27348, Note_off_c, 1, 63, 0
1, 27348, Note_off_c, 1, 51, 0
1, 27348, Note_off_c, 1, 75, 0
1, 27354, Note_off_c, 1, 69, 0
1, 27354, Note_off_c, 1, 60, 0
1, 27360, Note_on_c, 1, 53, 127
1, 27360, Note_on_c, 1, 70, 127
1, 27360, Note_on_c, 1, 65, 127
1, 27360, Note_on_c, 1, 62, 127
1, 27360, Note_on_c, 1, 50, 127
1, 27402, Note_off_c, 1, 53, 0
1, 27444, Note_off_c, 1, 70, 0
1, 27444, Note_off_c, 1, 65, 0
1, 27444, Note_off_c, 1, 62, 0
1, 27444, Note_off_c, 1, 50, 0
1, 27456, Note_on_c, 1, 53, 127
1, 27456, Note_on_c, 1, 72, 127
1, 27456, Note_on_c, 1, 69, 127
1, 27456, Note_on_c, 1, 63, 127
1, 27456, Note_on_c, 1, 60, 127
1, 27456, Note_on_c, 1, 48, 127
1, 27456, Note_on_c, 1, 75, 127
1, 27540, Note_off_c, 1, 53, 0
1, 27540, Note_off_c, 1, 72, 0
1, 27540, Note_off_c, 1, 69, 0
1, 27540, Note_off_c, 1, 63, 0
1, 27540, Note_off_c, 1, 60, 0
1, 27540, Note_off_c, 1, 48, 0
1, 27540, Note_off_c, 1, 75, 0
1, 27552, Note_on_c, 1, 53, 127
1, 27552, Note_on_c, 1, 75, 127
1, 27552, Note_on_c, 1, 72, 127
1, 27552, Note_on_c, 1, 60, 127
1, 27552, Note_on_c, 1, 58, 127
1, 27552, Note_on_c, 1, 46, 127
1, 27552, Note_on_c, 1, 63, 127
1, 27594, Note_off_c, 1, 53, 0
1, 27594, Note_off_c, 1, 58, 0
1, 27594, Note_off_c, 1, 46, 0
1, 27600, Note_on_c, 1, 57, 127
1, 27600, Note_on_c, 1, 45, 127
1, 27636, Note_off_c, 1, 75, 0
1, 27636, Note_off_c, 1, 72, 0
1, 27636, Note_off_c, 1, 60, 0
1, 27636, Note_off_c, 1, 63, 0
1, 27642, Note_off_c, 1, 57, 0
1, 27642, Note_off_c, 1, 45, 0
1, 27648, Note_on_c, 1, 53, 127
1, 27648, Note_on_c, 1, 74, 127
1, 27648, Note_on_c, 1, 70, 127
1, 27648, Note_on_c, 1, 65, 127
1, 27648, Note_on_c, 1, 58, 127
1, 27648, Note_on_c, 1, 46, 127
1, 27690, Note_off_c, 1, 53, 0
1, 27732, Note_off_c, 1, 74, 0
1, 27732, Note_off_c, 1, 70, 0
1, 27732, Note_off_c, 1, 65, 0
1, 27732, Note_off_c, 1, 58, 0
1, 27732, Note_off_c, 1, 46, 0
1, 27744, Note_on_c, 1, 53, 127
1, 27744, Note_on_c, 1, 74, 127
1, 27744, Note_on_c, 1, 72, 127
1, 27744, Note_on_c, 1, 65, 127
1, 27744, Note_on_c, 1, 57, 127
1, 27744, Note_on_c, 1, 45, 127
1, 27754, Note_off_c, 1, 74, 0
1, 27828, Note_off_c, 1, 53, 0
1, 27828, Note_off_c, 1, 57, 0
1, 27828, Note_off_c, 1, 45, 0
1, 27838, Note_off_c, 1, 72, 0
1, 27840, Note_on_c, 1, 70, 127
1, 27840, Note_on_c, 1, 58, 127
1, 27840, Note_on_c, 1, 46, 127
1, 27882, Note_off_c, 1, 58, 0
1, 27882, Note_off_c, 1, 46, 0
1, 27924, Note_off_c, 1, 65, 0
1, 27924, Note_off_c, 1, 70, 0
1, 27936, Note_on_c, 1, 53, 127
1, 27936, Note_on_c, 1, 77, 127
1, 27936, Note_on_c, 1, 69, 127
1, 27936, Note_on_c, 1, 60, 127
1, 27936, Note_on_c, 1, 55, 127
1, 27936, Note_on_c, 1, 43, 127
1, 27978, Note_off_c, 1, 53, 0
1, 27978, Note_off_c, 1, 55, 0
1, 27978, Note_off_c, 1, 43, 0
1, 27984, Note_on_c, 1, 41, 127
1, 28020, Note_off_c, 1, 77, 0
1, 28020, Note_off_c, 1, 69, 0
1, 28020, Note_off_c, 1, 60, 0
1, 28026, Note_off_c, 1, 41, 0
1, 28032, Note_on_c, 1, 60, 127
1, 28032, Note_on_c, 1, 70, 127
1, 28032, Note_on_c, 1, 67, 127
1, 28032, Note_on_c, 1, 52, 127
1, 28032, Note_on_c, 1, 53, 127
1, 28032, Note_on_c, 1, 41, 127
1, 28032, Note_on_c, 1, 72, 127
1, 28042, Note_off_c, 1, 53, 0
1, 28042, Note_off_c, 1, 41, 0
1, 28044, Note_on_c, 1, 40, 127
1, 28054, Note_off_c, 1, 40, 0
1, 28116, Note_off_c, 1, 70, 0
1, 28116, Note_off_c, 1, 72, 0
1, 28212, Note_off_c, 1, 67, 0
1, 28218, Note_off_c, 1, 60, 0
1, 28222, Note_off_c, 1, 52, 0
1, 28224, Note_on_c, 1, 60, 127
1, 28224, Note_on_c, 1, 69, 127
1, 28224, Note_on_c, 1, 65, 127
1, 28224, Note_on_c, 1, 53, 127
1, 28224, Note_on_c, 1, 41, 127
1, 28308, Note_off_c, 1, 69, 0
1, 28308, Note_off_c, 1, 65, 0
1, 28308, Note_off_c, 1, 53, 0
1, 28308, Note_off_c, 1, 41, 0
1, 28314, Note_off_c, 1, 60, 0
1, 28320, Note_on_c, 1, 60, 127
1, 28320, Note_on_c, 1, 70, 127
1, 28320, Note_on_c, 1, 64, 127
1, 28320, Note_on_c, 1, 55, 127
1, 28320, Note_on_c, 1, 43, 127
1, 28368, Note_on_c, 1, 65, 127
1, 28404, Note_off_c, 1, 60, 0
1, 28404, Note_off_c, 1, 70, 0
1, 28404, Note_off_c, 1, 64, 0
1, 28404, Note_off_c, 1, 55, 0
1, 28404, Note_off_c, 1, 43, 0
1, 28410, Note_off_c, 1, 65, 0
1, 28416, Note_on_c, 1, 60, 127
1, 28416, Note_on_c, 1, 74, 127
1, 28416, Note_on_c, 1, 67, 127
1, 28416, Note_on_c, 1, 69, 127
1, 28416, Note_on_c, 1, 53, 127
1, 28416, Note_on_c, 1, 57, 127
1, 28416, Note_on_c, 1, 41, 127
1, 28416, Note_on_c, 1, 62, 127
1, 28426, Note_off_c, 1, 67, 0
1, 28428, Note_on_c, 1, 65, 127
1, 28438, Note_off_c, 1, 65, 0
1, 28458, Note_off_c, 1, 60, 0
1, 28458, Note_off_c, 1, 53, 0
1, 28458, Note_off_c, 1, 41, 0
1, 28464, Note_on_c, 1, 52, 127
1, 28464, Note_on_c, 1, 40, 127
1, 28500, Note_off_c, 1, 69, 0
1, 28500, Note_off_c, 1, 57, 0
1, 28500, Note_off_c, 1, 62, 0
1, 28506, Note_off_c, 1, 52, 0
1, 28506, Note_off_c, 1, 40, 0
1, 28560, Note_on_c, 1, 64, 127
1, 28581, Note_off_c, 1, 64, 0
1, 28596, Note_off_c, 1, 74, 0
1, 28608, Note_on_c, 1, 60, 127
1, 28608, Note_on_c, 1, 70, 127
1, 28608, Note_on_c, 1, 67, 127
1, 28608, Note_on_c, 1, 52, 127
1, 28608, Note_on_c, 1, 72, 127
1, 28608, Note_on_c, 1, 40, 127
1, 28692, Note_off_c, 1, 67, 0
1, 28692, Note_off_c, 1, 52, 0
1, 28692, Note_off_c, 1, 72, 0
1, 28692, Note_off_c, 1, 40, 0
1, 28702, Note_off_c, 1, 70, 0
1, 28704, Note_on_c, 1, 69, 127
1, 28704, Note_on_c, 1, 65, 127
1, 28704, Note_on_c, 1, 53, 127
1, 28704, Note_on_c, 1, 41, 127
1, 28746, Note_off_c, 1, 53, 0
1, 28746, Note_off_c, 1, 41, 0
1, 28788, Note_off_c, 1, 69, 0
1, 28788, Note_off_c, 1, 65, 0
1, 28794, Note_off_c, 1, 60, 0
1, 28800, Note_on_c, 1, 60, 127
1, 28800, Note_on_c, 1, 72, 127
1, 28800, Note_on_c, 1, 64, 127
1, 28800, Note_on_c, 1, 50, 127
1, 28800, Note_on_c, 1, 38, 127
1, 28842, Note_off_c, 1, 50, 0
1, 28842, Note_off_c, 1, 38, 0
1, 28848, Note_on_c, 1, 48, 127
1, 28848, Note_on_c, 1, 36, 127
1, 28884, Note_off_c, 1, 72, 0
1, 28884, Note_off_c, 1, 64, 0
1, 28890, Note_off_c, 1, 60, 0
1, 28890, Note_off_c, 1, 48, 0
1, 28890, Note_off_c, 1, 36, 0
1, 28896, Note_on_c, 1, 60, 127
1, 28896, Note_on_c, 1, 69, 127
1, 28896, Note_on_c, 1, 65, 127
1, 28896, Note_on_c, 1, 53, 127
1, 28896, Note_on_c, 1, 70, 127
1, 28896, Note_on_c, 1, 41, 127
1, 28906, Note_off_c, 1, 70, 0
1, 28980, Note_off_c, 1, 53, 0
1, 28980, Note_off_c, 1, 41, 0
1, 28992, Note_on_c, 1, 52, 127
1, 28992, Note_on_c, 1, 40, 127
1, 28992, Note_on_c, 1, 72, 127
1, 29034, Note_off_c, 1, 52, 0
1, 29034, Note_off_c, 1, 40, 0
1, 29040, Note_on_c, 1, 50, 127
1, 29040, Note_on_c, 1, 38, 127
1, 29076, Note_off_c, 1, 65, 0
1, 29076, Note_off_c, 1, 72, 0
1, 29082, Note_off_c, 1, 60, 0
1, 29082, Note_off_c, 1, 50, 0
1, 29082, Note_off_c, 1, 38, 0
1, 29086, Note_off_c, 1, 69, 0
1, 29088, Note_on_c, 1, 60, 127
1, 29088, Note_on_c, 1, 67, 127
1, 29088, Note_on_c, 1, 52, 127
1, 29088, Note_on_c, 1, 40, 127
1, 29088, Note_on_c, 1, 72, 127
1, 29172, Note_off_c, 1, 67, 0
1, 29172, Note_off_c, 1, 52, 0
1, 29172, Note_off_c, 1, 40, 0
1, 29172, Note_off_c, 1, 72, 0
1, 29178, Note_off_c, 1, 60, 0
1, 29184, Note_on_c, 1, 67, 127
1, 29184, Note_on_c, 1, 71, 127
1, 29184, Note_on_c, 1, 65, 127
1, 29184, Note_on_c, 1, 62, 127
1, 29184, Note_on_c, 1, 50, 127
1, 29184, Note_on_c, 1, 64, 127
1, 29184, Note_on_c, 1, 38, 127
1, 29194, Note_off_c, 1, 64, 0
1, 29232, Note_on_c, 1, 72, 127
1, 29268, Note_off_c, 1, 67, 0
1, 29268, Note_off_c, 1, 71, 0
1, 29268, Note_off_c, 1, 65, 0
1, 29268, Note_off_c, 1, 50, 0
1, 29268, Note_off_c, 1, 38, 0
1, 29274, Note_off_c, 1, 72, 0
1, 29278, Note_off_c, 1, 62, 0
1, 29280, Note_on_c, 1, 67, 127
1, 29280, Note_on_c, 1, 74, 127
1, 29280, Note_on_c, 1, 60, 127
1, 29280, Note_on_c, 1, 52, 127
1, 29280, Note_on_c, 1, 40, 127
1, 29280, Note_on_c, 1, 72, 127
1, 29290, Note_off_c, 1, 74, 0
1, 29322, Note_off_c, 1, 60, 0
1, 29328, Note_on_c, 1, 62, 127
1, 29364, Note_off_c, 1, 52, 0
1, 29364, Note_off_c, 1, 40, 0
1, 29370, Note_off_c, 1, 62, 0
1, 29374, Note_off_c, 1, 72, 0
1, 29376, Note_on_c, 1, 64, 127
1, 29376, Note_on_c, 1, 48, 127
1, 29376, Note_on_c, 1, 36, 127
1, 29376, Note_on_c, 1, 76, 127
1, 29424, Note_on_c, 1, 71, 127
1, 29445, Note_off_c, 1, 71, 0
1, 29460, Note_off_c, 1, 64, 0
1, 29460, Note_off_c, 1, 48, 0
1, 29460, Note_off_c, 1, 36, 0
1, 29460, Note_off_c, 1, 76, 0
1, 29466, Note_off_c, 1, 67, 0
1, 29472, Note_on_c, 1, 67, 127
1, 29472, Note_on_c, 1, 74, 127
1, 29472, Note_on_c, 1, 62, 127
1, 29472, Note_on_c, 1, 47, 127
1, 29472, Note_on_c, 1, 35, 127
1, 29556, Note_off_c, 1, 74, 0
1, 29556, Note_off_c, 1, 47, 0
1, 29556, Note_off_c, 1, 35, 0
1, 29568, Note_on_c, 1, 72, 127
1, 29568, Note_on_c, 1, 45, 127
1, 29568, Note_on_c, 1, 33, 127
1, 29610, Note_off_c, 1, 45, 0
1, 29610, Note_off_c, 1, 33, 0
1, 29616, Note_on_c, 1, 71, 127
1, 29616, Note_on_c, 1, 43, 127
1, 29616, Note_on_c, 1, 31, 127
1, 29652, Note_off_c, 1, 62, 0
1, 29652, Note_off_c, 1, 72, 0
1, 29658, Note_off_c, 1, 67, 0
1, 29658, Note_off_c, 1, 71, 0
1, 29658, Note_off_c, 1, 43, 0
1, 29658, Note_off_c, 1, 31, 0
1, 29664, Note_on_c, 1, 67, 127
1, 29664, Note_on_c, 1, 72, 127
1, 29664, Note_on_c, 1, 64, 127
1, 29664, Note_on_c, 1, 41, 127
1, 29664, Note_on_c, 1, 29, 127
1, 29706, Note_off_c, 1, 41, 0
1, 29706, Note_off_c, 1, 29, 0
1, 29712, Note_on_c, 1, 40, 127
1, 29712, Note_on_c, 1, 28, 127
1, 29748, Note_off_c, 1, 72, 0
1, 29748, Note_off_c, 1, 64, 0
1, 29754, Note_off_c, 1, 67, 0
1, 29754, Note_off_c, 1, 40, 0
1, 29754, Note_off_c, 1, 28, 0
1, 29760, Note_on_c, 1, 72, 127
1, 29760, Note_on_c, 1, 69, 127
1, 29760, Note_on_c, 1, 77, 127
1, 29760, Note_on_c, 1, 60, 127
1, 29760, Note_on_c, 1, 45, 127
1, 29760, Note_on_c, 1, 33, 127
1, 29760, Note_on_c, 1, 65, 127
1, 29802, Note_off_c, 1, 77, 0
1, 29802, Note_off_c, 1, 45, 0
1, 29802, Note_off_c, 1, 33, 0
1, 29808, Note_on_c, 1, 71, 127
1, 29808, Note_on_c, 1, 79, 127
1, 29808, Note_on_c, 1, 41, 127
1, 29808, Note_on_c, 1, 29, 127
1, 29844, Note_off_c, 1, 72, 0
1, 29844, Note_off_c, 1, 69, 0
1, 29844, Note_off_c, 1, 60, 0
1, 29844, Note_off_c, 1, 65, 0
1, 29850, Note_off_c, 1, 71, 0
1, 29850, Note_off_c, 1, 79, 0
1, 29850, Note_off_c, 1, 41, 0
1, 29850, Note_off_c, 1, 29, 0
1, 29856, Note_on_c, 1, 71, 127
1, 29856, Note_on_c, 1, 67, 127
1, 29856, Note_on_c, 1, 74, 127
1, 29856, Note_on_c, 1, 72, 127
1, 29856, Note_on_c, 1, 43, 127
1, 29856, Note_on_c, 1, 31, 127
1, 29856, Note_on_c, 1, 62, 127
1, 29856, Note_on_c, 1, 70, 127
1, 29866, Note_off_c, 1, 72, 0
1, 29940, Note_off_c, 1, 43, 0
1, 29940, Note_off_c, 1, 31, 0
1, 29940, Note_off_c, 1, 62, 0
1, 29940, Note_off_c, 1, 70, 0
1, 29946, Note_off_c, 1, 67, 0
1, 29952, Note_on_c, 1, 65, 127
1, 29988, Note_off_c, 1, 74, 0
1, 29998, Note_off_c, 1, 71, 0
1, 30036, Note_off_c, 1, 65, 0
1, 30048, Note_on_c, 1, 72, 127
1, 30048, Note_on_c, 1, 67, 127
1, 30048, Note_on_c, 1, 64, 127
1, 30048, Note_on_c, 1, 36, 127
1, 30048, Note_on_c, 1, 24, 127
1, 30048, Note_on_c, 1, 76, 127
1, 30132, Note_off_c, 1, 36, 0
1, 30132, Note_off_c, 1, 24, 0
1, 30132, Note_off_c, 1, 76, 0
1, 30144, Note_on_c, 1, 48, 127
1, 30144, Note_on_c, 1, 60, 127
1, 30186, Note_off_c, 1, 48, 0
1, 30186, Note_off_c, 1, 60, 0
1, 30192, Note_on_c, 1, 46, 127
1, 30192, Note_on_c, 1, 34, 127
1, 30192, Note_on_c, 1, 58, 127
1, 30234, Note_off_c, 1, 46, 0
1, 30234, Note_off_c, 1, 34, 0
1, 30234, Note_off_c, 1, 58, 0
1, 30240, Note_on_c, 1, 45, 127
1, 30240, Note_on_c, 1, 33, 127
1, 30240, Note_on_c, 1, 57, 127
1, 30282, Note_off_c, 1, 45, 0
1, 30282, Note_off_c, 1, 33, 0
1, 30282, Note_off_c, 1, 57, 0
1, 30288, Note_on_c, 1, 43, 127
1, 30288, Note_on_c, 1, 31, 127
1, 30288, Note_on_c, 1, 55, 127
1, 30324, Note_off_c, 1, 72, 0
1, 30324, Note_off_c, 1, 67, 0
1, 30324, Note_off_c, 1, 64, 0
1, 30330, Note_off_c, 1, 43, 0
1, 30330, Note_off_c, 1, 31, 0
1, 30330, Note_off_c, 1, 55, 0
1, 30336, Note_on_c, 1, 53, 127
1, 30336, Note_on_c, 1, 72, 127
1, 30336, Note_on_c, 1, 69, 127
1, 30336, Note_on_c, 1, 65, 127
1, 30336, Note_on_c, 1, 41, 127
1, 30336, Note_on_c, 1, 29, 127
1, 30336, Note_on_c, 1, 60, 127
1, 30420, Note_off_c, 1, 53, 0
1, 30420, Note_off_c, 1, 72, 0
1, 30420, Note_off_c, 1, 69, 0
1, 30420, Note_off_c, 1, 41, 0
1, 30420, Note_off_c, 1, 29, 0
1, 30420, Note_off_c, 1, 60, 0
1, 30432, Note_on_c, 1, 75, 127
1, 30432, Note_on_c, 1, 57, 127
1, 30432, Note_on_c, 1, 45, 127
1, 30432, Note_on_c, 1, 63, 127
1, 30516, Note_off_c, 1, 65, 0
1, 30516, Note_off_c, 1, 75, 0
1, 30516, Note_off_c, 1, 57, 0
1, 30516, Note_off_c, 1, 45, 0
1, 30516, Note_off_c, 1, 63, 0
1, 30528, Note_on_c, 1, 53, 127
1, 30528, Note_on_c, 1, 74, 127
1, 30528, Note_on_c, 1, 70, 127
1, 30528, Note_on_c, 1, 65, 127
1, 30528, Note_on_c, 1, 58, 127
1, 30528, Note_on_c, 1, 46, 127
1, 30570, Note_off_c, 1, 53, 0
1, 30612, Note_off_c, 1, 74, 0
1, 30612, Note_off_c, 1, 70, 0
1, 30612, Note_off_c, 1, 65, 0
1, 30612, Note_off_c, 1, 58, 0
1, 30612, Note_off_c, 1, 46, 0
1, 30624, Note_on_c, 1, 53, 127
1, 30624, Note_on_c, 1, 72, 127
1, 30624, Note_on_c, 1, 69, 127
1, 30624, Note_on_c, 1, 63, 127
1, 30624, Note_on_c, 1, 60, 127
1, 30624, Note_on_c, 1, 65, 127
1, 30624, Note_on_c, 1, 48, 127
1, 30624, Note_on_c, 1, 75, 127
1, 30634, Note_off_c, 1, 65, 0
1, 30708, Note_off_c, 1, 53, 0
1, 30708, Note_off_c, 1, 72, 0
1, 30708, Note_off_c, 1, 69, 0
1, 30708, Note_off_c, 1, 60, 0
1, 30708, Note_off_c, 1, 48, 0
1, 30708, Note_off_c, 1, 75, 0
1, 30718, Note_off_c, 1, 63, 0
1, 30720, Note_on_c, 1, 53, 127
1, 30720, Note_on_c, 1, 70, 127
1, 30720, Note_on_c, 1, 65, 127
1, 30720, Note_on_c, 1, 62, 127
1, 30720, Note_on_c, 1, 63, 127
1, 30720, Note_on_c, 1, 51, 127
1, 30720, Note_on_c, 1, 75, 127
1, 30762, Note_off_c, 1, 53, 0
1, 30762, Note_off_c, 1, 62, 0
1, 30768, Note_on_c, 1, 69, 127
1, 30768, Note_on_c, 1, 60, 127
1, 30804, Note_off_c, 1, 70, 0
1, 30804, Note_off_c, 1, 65, 0
1, 30804, Note_off_c, 1, 63, 0
1, 30804, Note_off_c, 1, 51, 0
1, 30804, Note_off_c, 1, 75, 0
1, 30810, Note_off_c, 1, 69, 0
1, 30810, Note_off_c, 1, 60, 0
1, 30816, Note_on_c, 1, 53, 127
1, 30816, Note_on_c, 1, 70, 127
1, 30816, Note_on_c, 1, 65, 127
1, 30816, Note_on_c, 1, 62, 127
1, 30816, Note_on_c, 1, 50, 127
1, 30858, Note_off_c, 1, 53, 0
1, 30900, Note_off_c, 1, 70, 0
1, 30900, Note_off_c, 1, 65, 0
1, 30900, Note_off_c, 1, 62, 0
1, 30900, Note_off_c, 1, 50, 0
1, 30912, Note_on_c, 1, 53, 127
1, 30912, Note_on_c, 1, 72, 127
1, 30912, Note_on_c, 1, 69, 127
1, 30912, Note_on_c, 1, 63, 127
1, 30912, Note_on_c, 1, 60, 127
1, 30912, Note_on_c, 1, 48, 127
1, 30912, Note_on_c, 1, 75, 127
1, 30996, Note_off_c, 1, 53, 0
1, 30996, Note_off_c, 1, 72, 0
1, 30996, Note_off_c, 1, 69, 0
1, 30996, Note_off_c, 1, 63, 0
1, 30996, Note_off_c, 1, 60, 0
1, 30996, Note_off_c, 1, 48, 0
1, 30996, Note_off_c, 1, 75, 0
1, 31008, Note_on_c, 1, 53, 127
1, 31008, Note_on_c, 1, 75, 127
1, 31008, Note_on_c, 1, 72, 127
1, 31008, Note_on_c, 1, 60, 127
1, 31008, Note_on_c, 1, 58, 127
1, 31008, Note_on_c, 1, 46, 127
1, 31008, Note_on_c, 1, 63, 127
1, 31050, Note_off_c, 1, 53, 0
1, 31050, Note_off_c, 1, 58, 0
1, 31050, Note_off_c, 1, 46, 0
1, 31056, Note_on_c, 1, 57, 127
1, 31056, Note_on_c, 1, 45, 127
1, 31092, Note_off_c, 1, 75, 0
1, 31092, Note_off_c, 1, 72, 0
1, 31092, Note_off_c, 1, 60, 0
1, 31092, Note_off_c, 1, 63, 0
1, 31098, Note_off_c, 1, 57, 0
1, 31098, Note_off_c, 1, 45, 0
1, 31104, Note_on_c, 1, 53, 127
1, 31104, Note_on_c, 1, 74, 127
1, 31104, Note_on_c, 1, 70, 127
1, 31104, Note_on_c, 1, 65, 127
1, 31104, Note_on_c, 1, 58, 127
1, 31104, Note_on_c, 1, 46, 127
1, 31146, Note_off_c, 1, 53, 0
1, 31188, Note_off_c, 1, 74, 0
1, 31188, Note_off_c, 1, 70, 0
1, 31188, Note_off_c, 1, 65, 0
1, 31188, Note_off_c, 1, 58, 0
1, 31188, Note_off_c, 1, 46, 0
1, 31200, Note_on_c, 1, 53, 127
1, 31200, Note_on_c, 1, 74, 127
1, 31200, Note_on_c, 1, 72, 127
1, 31200, Note_on_c, 1, 65, 127
1, 31200, Note_on_c, 1, 57, 127
1, 31200, Note_on_c, 1, 45, 127
1, 31210, Note_off_c, 1, 74, 0
1, 31284, Note_off_c, 1, 53, 0
1, 31284, Note_off_c, 1, 57, 0
1, 31284, Note_off_c, 1, 45, 0
1, 31294, Note_off_c, 1, 72, 0
1, 31296, Note_on_c, 1, 70, 127
1, 31296, Note_on_c, 1, 58, 127
1, 31296, Note_on_c, 1, 46, 127
1, 31338, Note_off_c, 1, 58, 0
1, 31338, Note_off_c, 1, 46, 0
1, 31380, Note_off_c, 1, 65, 0
1, 31380, Note_off_c, 1, 70, 0
1, 31392, Note_on_c, 1, 53, 127
1, 31392, Note_on_c, 1, 77, 127
1, 31392, Note_on_c, 1, 69, 127
1, 31392, Note_on_c, 1, 60, 127
1, 31392, Note_on_c, 1, 55, 127
1, 31392, Note_on_c, 1, 43, 127
1, 31434, Note_off_c, 1, 53, 0
1, 31434, Note_off_c, 1, 55, 0
1, 31434, Note_off_c, 1, 43, 0
1, 31440, Note_on_c, 1, 41, 127
1, 31476, Note_off_c, 1, 77, 0
1, 31476, Note_off_c, 1, 69, 0
1, 31476, Note_off_c, 1, 60, 0
1, 31482, Note_off_c, 1, 41, 0
1, 31488, Note_on_c, 1, 60, 127
1, 31488, Note_on_c, 1, 70, 127
1, 31488, Note_on_c, 1, 67, 127
1, 31488, Note_on_c, 1, 52, 127
1, 31488, Note_on_c, 1, 53, 127
1, 31488, Note_on_c, 1, 41, 127
1, 31488, Note_on_c, 1, 72, 127
1, 31498, Note_off_c, 1, 53, 0
1, 31498, Note_off_c, 1, 41, 0
1, 31500, Note_on_c, 1, 40, 127
1, 31510, Note_off_c, 1, 40, 0
1, 31572, Note_off_c, 1, 70, 0
1, 31572, Note_off_c, 1, 72, 0
1, 31668, Note_off_c, 1, 67, 0
1, 31674, Note_off_c, 1, 60, 0
1, 31678, Note_off_c, 1, 52, 0
1, 31680, Note_on_c, 1, 60, 127
1, 31680, Note_on_c, 1, 69, 127
1, 31680, Note_on_c, 1, 65, 127
1, 31680, Note_on_c, 1, 53, 127
1, 31680, Note_on_c, 1, 41, 127
1, 31764, Note_off_c, 1, 69, 0
1, 31764, Note_off_c, 1, 65, 0
1, 31764, Note_off_c, 1, 53, 0
1, 31764, Note_off_c, 1, 41, 0
1, 31770, Note_off_c, 1, 60, 0
1, 31776, Note_on_c, 1, 60, 127
1, 31776, Note_on_c, 1, 70, 127
1, 31776, Note_on_c, 1, 64, 127
1, 31776, Note_on_c, 1, 55, 127
1, 31776, Note_on_c, 1, 43, 127
1, 31824, Note_on_c, 1, 65, 127
1, 31860, Note_off_c, 1, 60, 0
1, 31860, Note_off_c, 1, 70, 0
1, 31860, Note_off_c, 1, 64, 0
1, 31860, Note_off_c, 1, 55, 0
1, 31860, Note_off_c, 1, 43, 0
1, 31866, Note_off_c, 1, 65, 0
1, 31872, Note_on_c, 1, 60, 127
1, 31872, Note_on_c, 1, 74, 127
1, 31872, Note_on_c, 1, 67, 127
1, 31872, Note_on_c, 1, 69, 127
1, 31872, Note_on_c, 1, 53, 127
1, 31872, Note_on_c, 1, 57, 127
1, 31872, Note_on_c, 1, 41, 127
1, 31872, Note_on_c, 1, 62, 127
1, 31882, Note_off_c, 1, 67, 0
1, 31884, Note_on_c, 1, 65, 127
1, 31894, Note_off_c, 1, 65, 0
1, 31914, Note_off_c, 1, 60, 0
1, 31914, Note_off_c, 1, 53, 0
1, 31914, Note_off_c, 1, 41, 0
1, 31920, Note_on_c, 1, 52, 127
1, 31920, Note_on_c, 1, 40, 127
1, 31956, Note_off_c, 1, 69, 0
1, 31956, Note_off_c, 1, 57, 0
1, 31956, Note_off_c, 1, 62, 0
1, 31962, Note_off_c, 1, 52, 0
1, 31962, Note_off_c, 1, 40, 0
1, 32016, Note_on_c, 1, 64, 127
1, 32037, Note_off_c, 1, 64, 0
1, 32052, Note_off_c, 1, 74, 0
1, 32064, Note_on_c, 1, 60, 127
1, 32064, Note_on_c, 1, 70, 127
1, 32064, Note_on_c, 1, 67, 127
1, 32064, Note_on_c, 1, 52, 127
1, 32064, Note_on_c, 1, 72, 127
1, 32064, Note_on_c, 1, 40, 127
1, 32148, Note_off_c, 1, 67, 0
1, 32148, Note_off_c, 1, 52, 0
1, 32148, Note_off_c, 1, 72, 0
1, 32148, Note_off_c, 1, 40, 0
1, 32158, Note_off_c, 1, 70, 0
1, 32160, Note_on_c, 1, 69, 127
1, 32160, Note_on_c, 1, 65, 127
1, 32160, Note_on_c, 1, 53, 127
1, 32160, Note_on_c, 1, 41, 127
1, 32202, Note_off_c, 1, 53, 0
1, 32202, Note_off_c, 1, 41, 0
1, 32244, Note_off_c, 1, 69, 0
1, 32244, Note_off_c, 1, 65, 0
1, 32250, Note_off_c, 1, 60, 0
1, 32256, Note_on_c, 1, 60, 127
1, 32256, Note_on_c, 1, 72, 127
1, 32256, Note_on_c, 1, 64, 127
1, 32256, Note_on_c, 1, 50, 127
1, 32256, Note_on_c, 1, 38, 127
1, 32298, Note_off_c, 1, 50, 0
1, 32298, Note_off_c, 1, 38, 0
1, 32304, Note_on_c, 1, 48, 127
1, 32304, Note_on_c, 1, 36, 127
1, 32340, Note_off_c, 1, 72, 0
1, 32340, Note_off_c, 1, 64, 0
1, 32346, Note_off_c, 1, 60, 0
1, 32346, Note_off_c, 1, 48, 0
1, 32346, Note_off_c, 1, 36, 0
1, 32352, Note_on_c, 1, 60, 127
1, 32352, Note_on_c, 1, 69, 127
1, 32352, Note_on_c, 1, 65, 127
1, 32352, Note_on_c, 1, 53, 127
1, 32352, Note_on_c, 1, 70, 127
1, 32352, Note_on_c, 1, 41, 127
1, 32362, Note_off_c, 1, 70, 0
1, 32436, Note_off_c, 1, 53, 0
1, 32436, Note_off_c, 1, 41, 0
1, 32448, Note_on_c, 1, 52, 127
1, 32448, Note_on_c, 1, 40, 127
1, 32448, Note_on_c, 1, 72, 127
1, 32490, Note_off_c, 1, 52, 0
1, 32490, Note_off_c, 1, 40, 0
1, 32496, Note_on_c, 1, 50, 127
1, 32496, Note_on_c, 1, 38, 127
1, 32532, Note_off_c, 1, 65, 0
1, 32532, Note_off_c, 1, 72, 0
1, 32538, Note_off_c, 1, 60, 0
1, 32538, Note_off_c, 1, 50, 0
1, 32538, Note_off_c, 1, 38, 0
1, 32542, Note_off_c, 1, 69, 0
1, 32544, Note_on_c, 1, 60, 127
1, 32544, Note_on_c, 1, 67, 127
1, 32544, Note_on_c, 1, 52, 127
1, 32544, Note_on_c, 1, 40, 127
1, 32544, Note_on_c, 1, 72, 127
1, 32628, Note_off_c, 1, 67, 0
1, 32628, Note_off_c, 1, 52, 0
1, 32628, Note_off_c, 1, 40, 0
1, 32628, Note_off_c, 1, 72, 0
1, 32634, Note_off_c, 1, 60, 0
1, 32640, Note_on_c, 1, 67, 127
1, 32640, Note_on_c, 1, 71, 127
1, 32640, Note_on_c, 1, 65, 127
1, 32640, Note_on_c, 1, 62, 127
1, 32640, Note_on_c, 1, 50, 127
1, 32640, Note_on_c, 1, 64, 127
1, 32640, Note_on_c, 1, 38, 127
1, 32650, Note_off_c, 1, 64, 0
1, 32688, Note_on_c, 1, 72, 127
1, 32724, Note_off_c, 1, 67, 0
1, 32724, Note_off_c, 1, 71, 0
1, 32724, Note_off_c, 1, 65, 0
1, 32724, Note_off_c, 1, 50, 0
1, 32724, Note_off_c, 1, 38, 0
1, 32730, Note_off_c, 1, 72, 0
1, 32734, Note_off_c, 1, 62, 0
1, 32736, Note_on_c, 1, 67, 127
1, 32736, Note_on_c, 1, 74, 127
1, 32736, Note_on_c, 1, 60, 127
1, 32736, Note_on_c, 1, 52, 127
1, 32736, Note_on_c, 1, 40, 127
1, 32736, Note_on_c, 1, 72, 127
1, 32746, Note_off_c, 1, 74, 0
1, 32778, Note_off_c, 1, 60, 0
1, 32784, Note_on_c, 1, 62, 127
1, 32820, Note_off_c, 1, 52, 0
1, 32820, Note_off_c, 1, 40, 0
1, 32826, Note_off_c, 1, 62, 0
1, 32830, Note_off_c, 1, 72, 0
1, 32832, Note_on_c, 1, 64, 127
1, 32832, Note_on_c, 1, 48, 127
1, 32832, Note_on_c, 1, 36, 127
1, 32832, Note_on_c, 1, 76, 127
1, 32880, Note_on_c, 1, 71, 127
1, 32901, Note_off_c, 1, 71, 0
1, 32916, Note_off_c, 1, 64, 0
1, 32916, Note_off_c, 1, 48, 0
1, 32916, Note_off_c, 1, 36, 0
1, 32916, Note_off_c, 1, 76, 0
1, 32922, Note_off_c, 1, 67, 0
1, 32928, Note_on_c, 1, 67, 127
1, 32928, Note_on_c, 1, 74, 127
1, 32928, Note_on_c, 1, 62, 127
1, 32928, Note_on_c, 1, 47, 127
1, 32928, Note_on_c, 1, 35, 127
1, 33012, Note_off_c, 1, 74, 0
1, 33012, Note_off_c, 1, 47, 0
1, 33012, Note_off_c, 1, 35, 0
1, 33024, Note_on_c, 1, 72, 127
1, 33024, Note_on_c, 1, 45, 127
1, 33024, Note_on_c, 1, 33, 127
1, 33066, Note_off_c, 1, 45, 0
1, 33066, Note_off_c, 1, 33, 0
1, 33072, Note_on_c, 1, 71, 127
1, 33072, Note_on_c, 1, 43, 127
1, 33072, Note_on_c, 1, 31, 127
1, 33108, Note_off_c, 1, 62, 0
1, 33108, Note_off_c, 1, 72, 0
1, 33114, Note_off_c, 1, 67, 0
1, 33114, Note_off_c, 1, 71, 0
1, 33114, Note_off_c, 1, 43, 0
1, 33114, Note_off_c, 1, 31, 0
1, 33120, Note_on_c, 1, 67, 127
1, 33120, Note_on_c, 1, 72, 127
1, 33120, Note_on_c, 1, 64, 127
1, 33120, Note_on_c, 1, 41, 127
1, 33120, Note_on_c, 1, 29, 127
1, 33162, Note_off_c, 1, 41, 0
1, 33162, Note_off_c, 1, 29, 0
1, 33168, Note_on_c, 1, 40, 127
1, 33168, Note_on_c, 1, 28, 127
1, 33204, Note_off_c, 1, 72, 0
1, 33204, Note_off_c, 1, 64, 0
1, 33210, Note_off_c, 1, 67, 0
1, 33210, Note_off_c, 1, 40, 0
1, 33210, Note_off_c, 1, 28, 0
1, 33216, Note_on_c, 1, 72, 127
1, 33216, Note_on_c, 1, 69, 127
1, 33216, Note_on_c, 1, 77, 127
1, 33216, Note_on_c, 1, 60, 127
1, 33216, Note_on_c, 1, 45, 127
1, 33216, Note_on_c, 1, 33, 127
1, 33216, Note_on_c, 1, 65, 127
1, 33258, Note_off_c, 1, 77, 0
1, 33258, Note_off_c, 1, 45, 0
1, 33258, Note_off_c, 1, 33, 0
1, 33264, Note_on_c, 1, 71, 127
1, 33264, Note_on_c, 1, 79, 127
1, 33264, Note_on_c, 1, 41, 127
1, 33264, Note_on_c, 1, 29, 127
1, 33300, Note_off_c, 1, 72, 0
1, 33300, Note_off_c, 1, 69, 0
1, 33300, Note_off_c, 1, 60, 0
1, 33300, Note_off_c, 1, 65, 0
1, 33306, Note_off_c, 1, 71, 0
1, 33306, Note_off_c, 1, 79, 0
1, 33306, Note_off_c, 1, 41, 0
1, 33306, Note_off_c, 1, 29, 0
1, 33312, Note_on_c, 1, 71, 127
1, 33312, Note_on_c, 1, 67, 127
1, 33312, Note_on_c, 1, 74, 127
1, 33312, Note_on_c, 1, 72, 127
1, 33312, Note_on_c, 1, 43, 127
1, 33312, Note_on_c, 1, 31, 127
1, 33312, Note_on_c, 1, 62, 127
1, 33312, Note_on_c, 1, 70, 127
1, 33322, Note_off_c, 1, 72, 0
1, 33396, Note_off_c, 1, 43, 0
1, 33396, Note_off_c, 1, 31, 0
1, 33396, Note_off_c, 1, 62, 0
1, 33396, Note_off_c, 1, 70, 0
1, 33402, Note_off_c, 1, 67, 0
1, 33408, Note_on_c, 1, 65, 127
1, 33444, Note_off_c, 1, 74, 0
1, 33454, Note_off_c, 1, 71, 0
1, 33492, Note_off_c, 1, 65, 0
1, 33504, Note_on_c, 1, 72, 127
1, 33504, Note_on_c, 1, 67, 127
1, 33504, Note_on_c, 1, 64, 127
1, 33504, Note_on_c, 1, 36, 127
1, 33504, Note_on_c, 1, 24, 127
1, 33504, Note_on_c, 1, 76, 127
1, 33588, Note_off_c, 1, 36, 0
1, 33588, Note_off_c, 1, 24, 0
1, 33600, Note_on_c, 1, 48, 127
1, 33684, Note_off_c, 1, 48, 0
1, 33696, Note_on_c, 1, 50, 127
1, 33696, Note_on_c, 1, 38, 127
1, 33780, Note_off_c, 1, 72, 0
1, 33780, Note_off_c, 1, 67, 0
1, 33780, Note_off_c, 1, 64, 0
1, 33780, Note_off_c, 1, 76, 0
1, 33780, Note_off_c, 1, 50, 0
1, 33780, Note_off_c, 1, 38, 0
1, 33792, Note_on_c, 1, 60, 127
1, 33792, Note_on_c, 1, 79, 127
1, 33792, Note_on_c, 1, 72, 127
1, 33792, Note_on_c, 1, 67, 127
1, 33792, Note_on_c, 1, 52, 127
1, 33792, Note_on_c, 1, 40, 127
1, 33876, Note_off_c, 1, 60, 0
1, 33876, Note_off_c, 1, 79, 0
1, 33876, Note_off_c, 1, 72, 0
1, 33888, Note_on_c, 1, 82, 127
1, 33888, Note_on_c, 1, 70, 127
1, 33972, Note_off_c, 1, 67, 0
1, 33972, Note_off_c, 1, 52, 0
1, 33972, Note_off_c, 1, 40, 0
1, 33972, Note_off_c, 1, 82, 0
1, 33972, Note_off_c, 1, 70, 0
1, 33984, Note_on_c, 1, 60, 127
1, 33984, Note_on_c, 1, 81, 127
1, 33984, Note_on_c, 1, 77, 127
1, 33984, Note_on_c, 1, 72, 127
1, 33984, Note_on_c, 1, 53, 127
1, 33984, Note_on_c, 1, 41, 127
1, 33984, Note_on_c, 1, 69, 127
1, 34068, Note_off_c, 1, 81, 0
1, 34068, Note_off_c, 1, 77, 0
1, 34068, Note_off_c, 1, 72, 0
1, 34068, Note_off_c, 1, 53, 0
1, 34068, Note_off_c, 1, 41, 0
1, 34068, Note_off_c, 1, 69, 0
1, 34074, Note_off_c, 1, 60, 0
1, 34080, Note_on_c, 1, 60, 127
1, 34080, Note_on_c, 1, 79, 127
1, 34080, Note_on_c, 1, 76, 127
1, 34080, Note_on_c, 1, 70, 127
1, 34080, Note_on_c, 1, 55, 127
1, 34080, Note_on_c, 1, 81, 127
1, 34080, Note_on_c, 1, 72, 127
1, 34080, Note_on_c, 1, 43, 127
1, 34080, Note_on_c, 1, 64, 127
1, 34090, Note_off_c, 1, 81, 0
1, 34090, Note_off_c, 1, 72, 0
1, 34164, Note_off_c, 1, 60, 0
1, 34164, Note_off_c, 1, 76, 0
1, 34164, Note_off_c, 1, 55, 0
1, 34164, Note_off_c, 1, 43, 0
1, 34164, Note_off_c, 1, 64, 0
1, 34174, Note_off_c, 1, 79, 0
1, 34174, Note_off_c, 1, 70, 0
1, 34176, Note_on_c, 1, 60, 127
1, 34176, Note_on_c, 1, 77, 127
1, 34176, Note_on_c, 1, 72, 127
1, 34176, Note_on_c, 1, 69, 127
1, 34176, Note_on_c, 1, 58, 127
1, 34176, Note_on_c, 1, 46, 127
1, 34176, Note_on_c, 1, 64, 127
1, 34218, Note_off_c, 1, 60, 0
1, 34218, Note_off_c, 1, 77, 0
1, 34218, Note_off_c, 1, 69, 0
1, 34224, Note_on_c, 1, 76, 127
1, 34224, Note_on_c, 1, 67, 127
1, 34260, Note_off_c, 1, 72, 0
1, 34260, Note_off_c, 1, 58, 0
1, 34260, Note_off_c, 1, 46, 0
1, 34260, Note_off_c, 1, 64, 0
1, 34266, Note_off_c, 1, 76, 0
1, 34266, Note_off_c, 1, 67, 0
1, 34272, Note_on_c, 1, 60, 127
1, 34272, Note_on_c, 1, 77, 127
1, 34272, Note_on_c, 1, 72, 127
1, 34272, Note_on_c, 1, 69, 127
1, 34272, Note_on_c, 1, 57, 127
1, 34272, Note_on_c, 1, 45, 127
1, 34272, Note_on_c, 1, 65, 127
1, 34314, Note_off_c, 1, 60, 0
1, 34356, Note_off_c, 1, 77, 0
1, 34356, Note_off_c, 1, 72, 0
1, 34356, Note_off_c, 1, 69, 0
1, 34356, Note_off_c, 1, 57, 0
1, 34356, Note_off_c, 1, 45, 0
1, 34356, Note_off_c, 1, 65, 0
1, 34368, Note_on_c, 1, 60, 127
1, 34368, Note_on_c, 1, 79, 127
1, 34368, Note_on_c, 1, 76, 127
1, 34368, Note_on_c, 1, 70, 127
1, 34368, Note_on_c, 1, 55, 127
1, 34368, Note_on_c, 1, 43, 127
1, 34368, Note_on_c, 1, 64, 127
1, 34452, Note_off_c, 1, 60, 0
1, 34452, Note_off_c, 1, 79, 0
1, 34452, Note_off_c, 1, 76, 0
1, 34452, Note_off_c, 1, 70, 0
1, 34452, Note_off_c, 1, 55, 0
1, 34452, Note_off_c, 1, 43, 0
1, 34452, Note_off_c, 1, 64, 0
1, 34464, Note_on_c, 1, 60, 127
1, 34464, Note_on_c, 1, 82, 127
1, 34464, Note_on_c, 1, 79, 127
1, 34464, Note_on_c, 1, 67, 127
1, 34464, Note_on_c, 1, 53, 127
1, 34464, Note_on_c, 1, 41, 127
1, 34464, Note_on_c, 1, 62, 127
1, 34464, Note_on_c, 1, 70, 127
1, 34506, Note_off_c, 1, 60, 0
1, 34506, Note_off_c, 1, 53, 0
1, 34506, Note_off_c, 1, 41, 0
1, 34512, Note_on_c, 1, 52, 127
1, 34512, Note_on_c, 1, 40, 127
1, 34548, Note_off_c, 1, 82, 0
1, 34548, Note_off_c, 1, 79, 0
1, 34548, Note_off_c, 1, 67, 0
1, 34548, Note_off_c, 1, 62, 0
1, 34548, Note_off_c, 1, 70, 0
1, 34554, Note_off_c, 1, 52, 0
1, 34554, Note_off_c, 1, 40, 0
1, 34560, Note_on_c, 1, 60, 127
1, 34560, Note_on_c, 1, 81, 127
1, 34560, Note_on_c, 1, 77, 127
1, 34560, Note_on_c, 1, 72, 127
1, 34560, Note_on_c, 1, 53, 127
1, 34560, Note_on_c, 1, 41, 127
1, 34560, Note_on_c, 1, 69, 127
1, 34644, Note_off_c, 1, 81, 0
1, 34644, Note_off_c, 1, 77, 0
1, 34644, Note_off_c, 1, 72, 0
1, 34644, Note_off_c, 1, 53, 0
1, 34644, Note_off_c, 1, 41, 0
1, 34644, Note_off_c, 1, 69, 0
1, 34650, Note_off_c, 1, 60, 0
1, 34656, Note_on_c, 1, 60, 127
1, 34656, Note_on_c, 1, 81, 127
1, 34656, Note_on_c, 1, 79, 127
1, 34656, Note_on_c, 1, 72, 127
1, 34656, Note_on_c, 1, 52, 127
1, 34656, Note_on_c, 1, 40, 127
1, 34656, Note_on_c, 1, 67, 127
1, 34666, Note_off_c, 1, 81, 0
1, 34740, Note_off_c, 1, 60, 0
1, 34740, Note_off_c, 1, 52, 0
1, 34740, Note_off_c, 1, 40, 0
1, 34740, Note_off_c, 1, 67, 0
1, 34750, Note_off_c, 1, 79, 0
1, 34752, Note_on_c, 1, 77, 127
1, 34752, Note_on_c, 1, 53, 127
1, 34752, Note_on_c, 1, 41, 127
1, 34752, Note_on_c, 1, 65, 127
1, 34794, Note_off_c, 1, 53, 0
1, 34794, Note_off_c, 1, 41, 0
1, 34836, Note_off_c, 1, 72, 0
1, 34836, Note_off_c, 1, 77, 0
1, 34836, Note_off_c, 1, 65, 0
1, 34848, Note_on_c, 1, 60, 127
1, 34848, Note_on_c, 1, 84, 127
1, 34848, Note_on_c, 1, 76, 127
1, 34848, Note_on_c, 1, 67, 127
1, 34848, Note_on_c, 1, 50, 127
1, 34848, Note_on_c, 1, 38, 127
1, 34890, Note_off_c, 1, 60, 0
1, 34890, Note_off_c, 1, 50, 0
1, 34890, Note_off_c, 1, 38, 0
1, 34896, Note_on_c, 1, 48, 127
1, 34896, Note_on_c, 1, 36, 127
1, 34932, Note_off_c, 1, 84, 0
1, 34932, Note_off_c, 1, 76, 0
1, 34932, Note_off_c, 1, 67, 0
1, 34938, Note_off_c, 1, 48, 0
1, 34938, Note_off_c, 1, 36, 0
1, 34944, Note_on_c, 1, 67, 127
1, 34944, Note_on_c, 1, 77, 127
1, 34944, Note_on_c, 1, 74, 127
1, 34944, Note_on_c, 1, 48, 127
1, 34944, Note_on_c, 1, 36, 127
1, 34954, Note_off_c, 1, 36, 0
1, 34956, Note_on_c, 1, 47, 127
1, 34956, Note_on_c, 1, 35, 127
1, 34965, Note_off_c, 1, 48, 0
1, 34966, Note_off_c, 1, 47, 0
1, 34966, Note_off_c, 1, 35, 0
1, 35028, Note_off_c, 1, 77, 0
1, 35040, Note_on_c, 1, 62, 127
1, 35040, Note_on_c, 1, 71, 127
1, 35124, Note_off_c, 1, 74, 0
1, 35124, Note_off_c, 1, 62, 0
1, 35124, Note_off_c, 1, 71, 0
1, 35130, Note_off_c, 1, 67, 0
1, 35136, Note_on_c, 1, 67, 127
1, 35136, Note_on_c, 1, 76, 127
1, 35136, Note_on_c, 1, 72, 127
1, 35136, Note_on_c, 1, 48, 127
1, 35136, Note_on_c, 1, 36, 127
1, 35220, Note_off_c, 1, 76, 0
1, 35220, Note_off_c, 1, 72, 0
1, 35220, Note_off_c, 1, 48, 0
1, 35220, Note_off_c, 1, 36, 0
1, 35226, Note_off_c, 1, 67, 0
1, 35232, Note_on_c, 1, 67, 127
1, 35232, Note_on_c, 1, 77, 127
1, 35232, Note_on_c, 1, 71, 127
1, 35232, Note_on_c, 1, 62, 127
1, 35232, Note_on_c, 1, 50, 127
1, 35232, Note_on_c, 1, 38, 127
1, 35280, Note_on_c, 1, 72, 127
1, 35316, Note_off_c, 1, 67, 0
1, 35316, Note_off_c, 1, 77, 0
1, 35316, Note_off_c, 1, 71, 0
1, 35316, Note_off_c, 1, 62, 0
1, 35316, Note_off_c, 1, 50, 0
1, 35316, Note_off_c, 1, 38, 0
1, 35322, Note_off_c, 1, 72, 0
1, 35328, Note_on_c, 1, 67, 127
1, 35328, Note_on_c, 1, 81, 127
1, 35328, Note_on_c, 1, 74, 127
1, 35328, Note_on_c, 1, 64, 127
1, 35328, Note_on_c, 1, 48, 127
1, 35328, Note_on_c, 1, 36, 127
1, 35328, Note_on_c, 1, 69, 127
1, 35328, Note_on_c, 1, 76, 127
1, 35338, Note_off_c, 1, 74, 0
1, 35340, Note_on_c, 1, 72, 127
1, 35350, Note_off_c, 1, 72, 0
1, 35370, Note_off_c, 1, 67, 0
1, 35370, Note_off_c, 1, 48, 0
1, 35370, Note_off_c, 1, 36, 0
1, 35376, Note_on_c, 1, 47, 127
1, 35376, Note_on_c, 1, 35, 127
1, 35412, Note_off_c, 1, 64, 0
1, 35412, Note_off_c, 1, 69, 0
1, 35412, Note_off_c, 1, 76, 0
1, 35418, Note_off_c, 1, 47, 0
1, 35418, Note_off_c, 1, 35, 0
1, 35424, Note_on_c, 1, 60, 127
1, 35472, Note_on_c, 1, 71, 127
1, 35493, Note_off_c, 1, 71, 0
1, 35508, Note_off_c, 1, 81, 0
1, 35508, Note_off_c, 1, 60, 0
1, 35520, Note_on_c, 1, 67, 127
1, 35520, Note_on_c, 1, 77, 127
1, 35520, Note_on_c, 1, 74, 127
1, 35520, Note_on_c, 1, 47, 127
1, 35520, Note_on_c, 1, 35, 127
1, 35604, Note_off_c, 1, 77, 0
1, 35604, Note_off_c, 1, 74, 0
1, 35604, Note_off_c, 1, 47, 0
1, 35604, Note_off_c, 1, 35, 0
1, 35616, Note_on_c, 1, 76, 127
1, 35616, Note_on_c, 1, 72, 127
1, 35616, Note_on_c, 1, 48, 127
1, 35616, Note_on_c, 1, 36, 127
1, 35658, Note_off_c, 1, 48, 0
1, 35658, Note_off_c, 1, 36, 0
1, 35700, Note_off_c, 1, 76, 0
1, 35700, Note_off_c, 1, 72, 0
1, 35706, Note_off_c, 1, 67, 0
1, 35712, Note_on_c, 1, 67, 127
1, 35712, Note_on_c, 1, 79, 127
1, 35712, Note_on_c, 1, 71, 127
1, 35712, Note_on_c, 1, 45, 127
1, 35712, Note_on_c, 1, 33, 127
1, 35712, Note_on_c, 1, 62, 127
1, 35754, Note_off_c, 1, 45, 0
1, 35754, Note_off_c, 1, 33, 0
1, 35760, Note_on_c, 1, 43, 127
1, 35760, Note_on_c, 1, 31, 127
1, 35796, Note_off_c, 1, 79, 0
1, 35796, Note_off_c, 1, 71, 0
1, 35796, Note_off_c, 1, 62, 0
1, 35802, Note_off_c, 1, 67, 0
1, 35802, Note_off_c, 1, 43, 0
1, 35802, Note_off_c, 1, 31, 0
1, 35808, Note_on_c, 1, 67, 127
1, 35808, Note_on_c, 1, 76, 127
1, 35808, Note_on_c, 1, 72, 127
1, 35808, Note_on_c, 1, 48, 127
1, 35808, Note_on_c, 1, 36, 127
1, 35892, Note_off_c, 1, 48, 0
1, 35892, Note_off_c, 1, 36, 0
1, 35904, Note_on_c, 1, 46, 127
1, 35904, Note_on_c, 1, 34, 127
1, 35904, Note_on_c, 1, 65, 127
1, 35904, Note_on_c, 1, 74, 127
1, 35940, Note_off_c, 1, 76, 0
1, 35946, Note_off_c, 1, 46, 0
1, 35946, Note_off_c, 1, 34, 0
1, 35952, Note_on_c, 1, 77, 127
1, 35952, Note_on_c, 1, 45, 127
1, 35952, Note_on_c, 1, 33, 127
1, 35988, Note_off_c, 1, 65, 0
1, 35988, Note_off_c, 1, 74, 0
1, 35994, Note_off_c, 1, 77, 0
1, 35994, Note_off_c, 1, 45, 0
1, 35994, Note_off_c, 1, 33, 0
1, 36000, Note_on_c, 1, 79, 127
1, 36000, Note_on_c, 1, 43, 127
1, 36000, Note_on_c, 1, 31, 127
1, 36010, Note_off_c, 1, 79, 0
1, 36042, Note_off_c, 1, 43, 0
1, 36042, Note_off_c, 1, 31, 0
1, 36048, Note_on_c, 1, 41, 127
1, 36048, Note_on_c, 1, 29, 127
1, 36084, Note_off_c, 1, 72, 0
1, 36090, Note_off_c, 1, 67, 0
1, 36090, Note_off_c, 1, 41, 0
1, 36090, Note_off_c, 1, 29, 0
1, 36096, Note_on_c, 1, 72, 127
1, 36096, Note_on_c, 1, 67, 127
1, 36096, Note_on_c, 1, 79, 127
1, 36096, Note_on_c, 1, 40, 127
1, 36096, Note_on_c, 1, 28, 127
1, 36138, Note_off_c, 1, 79, 0
1, 36144, Note_on_c, 1, 81, 127
1, 36144, Note_on_c, 1, 65, 127
1, 36180, Note_off_c, 1, 67, 0
1, 36180, Note_off_c, 1, 40, 0
1, 36180, Note_off_c, 1, 28, 0
1, 36186, Note_off_c, 1, 81, 0
1, 36186, Note_off_c, 1, 65, 0
1, 36192, Note_on_c, 1, 82, 127
1, 36192, Note_on_c, 1, 41, 127
1, 36192, Note_on_c, 1, 29, 127
1, 36192, Note_on_c, 1, 60, 127
1, 36192, Note_on_c, 1, 69, 127
1, 36202, Note_off_c, 1, 82, 0
1, 36234, Note_off_c, 1, 41, 0
1, 36234, Note_off_c, 1, 29, 0
1, 36276, Note_off_c, 1, 60, 0
1, 36276, Note_off_c, 1, 69, 0
1, 36282, Note_off_c, 1, 72, 0
1, 36288, Note_on_c, 1, 72, 127
1, 36288, Note_on_c, 1, 82, 127
1, 36288, Note_on_c, 1, 77, 127
1, 36288, Note_on_c, 1, 67, 127
1, 36288, Note_on_c, 1, 38, 127
1, 36288, Note_on_c, 1, 26, 127
1, 36288, Note_on_c, 1, 69, 127
1, 36298, Note_off_c, 1, 82, 0
1, 36298, Note_off_c, 1, 67, 0
1, 36300, Note_on_c, 1, 81, 127
1, 36300, Note_on_c, 1, 65, 127
1, 36310, Note_off_c, 1, 81, 0
1, 36310, Note_off_c, 1, 65, 0
1, 36330, Note_off_c, 1, 72, 0
1, 36330, Note_off_c, 1, 38, 0
1, 36330, Note_off_c, 1, 26, 0
1, 36336, Note_on_c, 1, 79, 127
1, 36336, Note_on_c, 1, 64, 127
1, 36336, Note_on_c, 1, 40, 127
1, 36336, Note_on_c, 1, 28, 127
1, 36357, Note_off_c, 1, 79, 0
1, 36357, Note_off_c, 1, 64, 0
1, 36372, Note_off_c, 1, 77, 0
1, 36372, Note_off_c, 1, 69, 0
1, 36378, Note_off_c, 1, 40, 0
1, 36378, Note_off_c, 1, 28, 0
1, 36384, Note_on_c, 1, 72, 127
1, 36384, Note_on_c, 1, 67, 127
1, 36384, Note_on_c, 1, 82, 127
1, 36384, Note_on_c, 1, 76, 127
1, 36384, Note_on_c, 1, 36, 127
1, 36384, Note_on_c, 1, 24, 127
1, 36468, Note_off_c, 1, 67, 0
1, 36468, Note_off_c, 1, 82, 0
1, 36468, Note_off_c, 1, 76, 0
1, 36468, Note_off_c, 1, 36, 0
1, 36468, Note_off_c, 1, 24, 0
1, 36480, Note_on_c, 1, 60, 127
1, 36480, Note_on_c, 1, 81, 127
1, 36480, Note_on_c, 1, 79, 127
1, 36480, Note_on_c, 1, 48, 127
1, 36480, Note_on_c, 1, 77, 127
1, 36480, Note_on_c, 1, 69, 127
1, 36490, Note_off_c, 1, 79, 0
1, 36522, Note_off_c, 1, 60, 0
1, 36522, Note_off_c, 1, 81, 0
1, 36522, Note_off_c, 1, 48, 0
1, 36528, Note_on_c, 1, 50, 127
1, 36528, Note_on_c, 1, 38, 127
1, 36564, Note_off_c, 1, 72, 0
1, 36564, Note_off_c, 1, 69, 0
1, 36570, Note_off_c, 1, 50, 0
1, 36570, Note_off_c, 1, 38, 0
1, 36574, Note_off_c, 1, 77, 0
1, 36576, Note_on_c, 1, 70, 127
1, 36576, Note_on_c, 1, 60, 127
1, 36576, Note_on_c, 1, 84, 127
1, 36576, Note_on_c, 1, 79, 127
1, 36576, Note_on_c, 1, 64, 127
1, 36576, Note_on_c, 1, 52, 127
1, 36576, Note_on_c, 1, 40, 127
1, 36576, Note_on_c, 1, 72, 127
1, 36618, Note_off_c, 1, 60, 0
1, 36618, Note_off_c, 1, 52, 0
1, 36618, Note_off_c, 1, 40, 0
1, 36624, Note_on_c, 1, 48, 127
1, 36624, Note_on_c, 1, 36, 127
1, 36660, Note_off_c, 1, 70, 0
1, 36660, Note_off_c, 1, 84, 0
1, 36660, Note_off_c, 1, 79, 0
1, 36660, Note_off_c, 1, 64, 0
1, 36660, Note_off_c, 1, 72, 0
1, 36666, Note_off_c, 1, 48, 0
1, 36666, Note_off_c, 1, 36, 0
1, 36672, Note_on_c, 1, 69, 127
1, 36672, Note_on_c, 1, 65, 127
1, 36672, Note_on_c, 1, 77, 127
1, 36672, Note_on_c, 1, 74, 127
1, 36672, Note_on_c, 1, 50, 127
1, 36672, Note_on_c, 1, 38, 127
1, 36714, Note_off_c, 1, 50, 0
1, 36714, Note_off_c, 1, 38, 0
1, 36720, Note_on_c, 1, 79, 127
1, 36720, Note_on_c, 1, 70, 127
1, 36720, Note_on_c, 1, 46, 127
1, 36720, Note_on_c, 1, 34, 127
1, 36756, Note_off_c, 1, 69, 0
1, 36756, Note_off_c, 1, 65, 0
1, 36756, Note_off_c, 1, 77, 0
1, 36756, Note_off_c, 1, 74, 0
1, 36762, Note_off_c, 1, 79, 0
1, 36762, Note_off_c, 1, 70, 0
1, 36762, Note_off_c, 1, 46, 0
1, 36762, Note_off_c, 1, 34, 0
1, 36768, Note_on_c, 1, 70, 127
1, 36768, Note_on_c, 1, 60, 127
1, 36768, Note_on_c, 1, 76, 127
1, 36768, Note_on_c, 1, 74, 127
1, 36768, Note_on_c, 1, 67, 127
1, 36768, Note_on_c, 1, 48, 127
1, 36768, Note_on_c, 1, 36, 127
1, 36778, Note_off_c, 1, 74, 0
1, 36780, Note_on_c, 1, 72, 127
1, 36780, Note_on_c, 1, 65, 127
1, 36790, Note_off_c, 1, 72, 0
1, 36790, Note_off_c, 1, 65, 0
1, 36810, Note_off_c, 1, 70, 0
1, 36810, Note_off_c, 1, 60, 0
1, 36816, Note_on_c, 1, 69, 127
1, 36852, Note_off_c, 1, 48, 0
1, 36852, Note_off_c, 1, 36, 0
1, 36858, Note_off_c, 1, 69, 0
1, 36864, Note_on_c, 1, 24, 127
1, 36864, Note_on_c, 1, 64, 127
1, 36900, Note_off_c, 1, 76, 0
1, 36912, Note_on_c, 1, 77, 127
1, 36948, Note_off_c, 1, 67, 0
1, 36948, Note_off_c, 1, 24, 0
1, 36948, Note_off_c, 1, 64, 0
1, 36954, Note_off_c, 1, 77, 0
1, 36960, Note_on_c, 1, 65, 127
1, 36960, Note_on_c, 1, 57, 127
1, 36960, Note_on_c, 1, 77, 127
1, 36960, Note_on_c, 1, 72, 127
1, 36960, Note_on_c, 1, 69, 127
1, 36960, Note_on_c, 1, 41, 127
1, 36960, Note_on_c, 1, 29, 127
1, 36960, Note_on_c, 1, 60, 127
1, 37002, Note_off_c, 1, 41, 0
1, 37002, Note_off_c, 1, 29, 0
1, 37008, Note_on_c, 1, 43, 127
1, 37008, Note_on_c, 1, 31, 127
1, 37050, Note_off_c, 1, 43, 0
1, 37050, Note_off_c, 1, 31, 0
1, 37056, Note_on_c, 1, 45, 127
1, 37056, Note_on_c, 1, 33, 127
1, 37098, Note_off_c, 1, 45, 0
1, 37098, Note_off_c, 1, 33, 0
1, 37104, Note_on_c, 1, 46, 127
1, 37104, Note_on_c, 1, 34, 127
1, 37146, Note_off_c, 1, 46, 0
1, 37146, Note_off_c, 1, 34, 0
1, 37152, Note_on_c, 1, 48, 127
1, 37152, Note_on_c, 1, 36, 127
1, 37194, Note_off_c, 1, 48, 0
1, 37194, Note_off_c, 1, 36, 0
1, 37200, Note_on_c, 1, 50, 127
1, 37200, Note_on_c, 1, 38, 127
1, 37236, Note_off_c, 1, 65, 0
1, 37236, Note_off_c, 1, 57, 0
1, 37236, Note_off_c, 1, 77, 0
1, 37236, Note_off_c, 1, 72, 0
1, 37236, Note_off_c, 1, 69, 0
1, 37236, Note_off_c, 1, 60, 0
1, 37242, Note_off_c, 1, 50, 0
1, 37242, Note_off_c, 1, 38, 0
1, 37248, Note_on_c, 1, 60, 127
1, 37248, Note_on_c, 1, 79, 127
1, 37248, Note_on_c, 1, 72, 127
1, 37248, Note_on_c, 1, 67, 127
1, 37248, Note_on_c, 1, 52, 127
1, 37248, Note_on_c, 1, 40, 127
1, 37332, Note_off_c, 1, 60, 0
1, 37332, Note_off_c, 1, 79, 0
1, 37332, Note_off_c, 1, 72, 0
1, 37344, Note_on_c, 1, 82, 127
1, 37344, Note_on_c, 1, 70, 127
1, 37428, Note_off_c, 1, 67, 0
1, 37428, Note_off_c, 1, 52, 0
1, 37428, Note_off_c, 1, 40, 0
1, 37428, Note_off_c, 1, 82, 0
1, 37428, Note_off_c, 1, 70, 0
1, 37440, Note_on_c, 1, 60, 127
1, 37440, Note_on_c, 1, 81, 127
1, 37440, Note_on_c, 1, 77, 127
1, 37440, Note_on_c, 1, 72, 127
1, 37440, Note_on_c, 1, 53, 127
1, 37440, Note_on_c, 1, 41, 127
1, 37440, Note_on_c, 1, 69, 127
1, 37524, Note_off_c, 1, 81, 0
1, 37524, Note_off_c, 1, 77, 0
1, 37524, Note_off_c, 1, 72, 0
1, 37524, Note_off_c, 1, 53, 0
1, 37524, Note_off_c, 1, 41, 0
1, 37524, Note_off_c, 1, 69, 0
1, 37530, Note_off_c, 1, 60, 0
1, 37536, Note_on_c, 1, 60, 127
1, 37536, Note_on_c, 1, 79, 127
1, 37536, Note_on_c, 1, 76, 127
1, 37536, Note_on_c, 1, 70, 127
1, 37536, Note_on_c, 1, 55, 127
1, 37536, Note_on_c, 1, 81, 127
1, 37536, Note_on_c, 1, 72, 127
1, 37536, Note_on_c, 1, 43, 127
1, 37536, Note_on_c, 1, 64, 127
1, 37546, Note_off_c, 1, 81, 0
1, 37546, Note_off_c, 1, 72, 0
1, 37620, Note_off_c, 1, 60, 0
1, 37620, Note_off_c, 1, 76, 0
1, 37620, Note_off_c, 1, 55, 0
1, 37620, Note_off_c, 1, 43, 0
1, 37620, Note_off_c, 1, 64, 0
1, 37630, Note_off_c, 1, 79, 0
1, 37630, Note_off_c, 1, 70, 0
1, 37632, Note_on_c, 1, 60, 127
1, 37632, Note_on_c, 1, 77, 127
1, 37632, Note_on_c, 1, 72, 127
1, 37632, Note_on_c, 1, 69, 127
1, 37632, Note_on_c, 1, 58, 127
1, 37632, Note_on_c, 1, 46, 127
1, 37632, Note_on_c, 1, 64, 127
1, 37674, Note_off_c, 1, 60, 0
1, 37674, Note_off_c, 1, 77, 0
1, 37674, Note_off_c, 1, 69, 0
1, 37680, Note_on_c, 1, 76, 127
1, 37680, Note_on_c, 1, 67, 127
1, 37716, Note_off_c, 1, 72, 0
1, 37716, Note_off_c, 1, 58, 0
1, 37716, Note_off_c, 1, 46, 0
1, 37716, Note_off_c, 1, 64, 0
1, 37722, Note_off_c, 1, 76, 0
1, 37722, Note_off_c, 1, 67, 0
1, 37728, Note_on_c, 1, 60, 127
1, 37728, Note_on_c, 1, 77, 127
1, 37728, Note_on_c, 1, 72, 127
1, 37728, Note_on_c, 1, 69, 127
1, 37728, Note_on_c, 1, 57, 127
1, 37728, Note_on_c, 1, 45, 127
1, 37728, Note_on_c, 1, 65, 127
1, 37770, Note_off_c, 1, 60, 0
1, 37812, Note_off_c, 1, 77, 0
1, 37812, Note_off_c, 1, 72, 0
1, 37812, Note_off_c, 1, 69, 0
1, 37812, Note_off_c, 1, 57, 0
1, 37812, Note_off_c, 1, 45, 0
1, 37812, Note_off_c, 1, 65, 0
1, 37824, Note_on_c, 1, 60, 127
1, 37824, Note_on_c, 1, 79, 127
1, 37824, Note_on_c, 1, 76, 127
1, 37824, Note_on_c, 1, 70, 127
1, 37824, Note_on_c, 1, 55, 127
1, 37824, Note_on_c, 1, 43, 127
1, 37824, Note_on_c, 1, 64, 127
1, 37908, Note_off_c, 1, 60, 0
1, 37908, Note_off_c, 1, 79, 0
1, 37908, Note_off_c, 1, 76, 0
1, 37908, Note_off_c, 1, 70, 0
1, 37908, Note_off_c, 1, 55, 0
1, 37908, Note_off_c, 1, 43, 0
1, 37908, Note_off_c, 1, 64, 0
1, 37920, Note_on_c, 1, 60, 127
1, 37920, Note_on_c, 1, 82, 127
1, 37920, Note_on_c, 1, 79, 127
1, 37920, Note_on_c, 1, 67, 127
1, 37920, Note_on_c, 1, 53, 127
1, 37920, Note_on_c, 1, 41, 127
1, 37920, Note_on_c, 1, 62, 127
1, 37920, Note_on_c, 1, 70, 127
1, 37962, Note_off_c, 1, 60, 0
1, 37962, Note_off_c, 1, 53, 0
1, 37962, Note_off_c, 1, 41, 0
1, 37968, Note_on_c, 1, 52, 127
1, 37968, Note_on_c, 1, 40, 127
1, 38004, Note_off_c, 1, 82, 0
1, 38004, Note_off_c, 1, 79, 0
1, 38004, Note_off_c, 1, 67, 0
1, 38004, Note_off_c, 1, 62, 0
1, 38004, Note_off_c, 1, 70, 0
1, 38010, Note_off_c, 1, 52, 0
1, 38010, Note_off_c, 1, 40, 0
1, 38016, Note_on_c, 1, 60, 127
1, 38016, Note_on_c, 1, 81, 127
1, 38016, Note_on_c, 1, 77, 127
1, 38016, Note_on_c, 1, 72, 127
1, 38016, Note_on_c, 1, 53, 127
1, 38016, Note_on_c, 1, 41, 127
1, 38016, Note_on_c, 1, 69, 127
1, 38100, Note_off_c, 1, 81, 0
1, 38100, Note_off_c, 1, 77, 0
1, 38100, Note_off_c, 1, 72, 0
1, 38100, Note_off_c, 1, 53, 0
1, 38100, Note_off_c, 1, 41, 0
1, 38100, Note_off_c, 1, 69, 0
1, 38106, Note_off_c, 1, 60, 0
1, 38112, Note_on_c, 1, 60, 127
1, 38112, Note_on_c, 1, 81, 127
1, 38112, Note_on_c, 1, 79, 127
1, 38112, Note_on_c, 1, 72, 127
1, 38112, Note_on_c, 1, 52, 127
1, 38112, Note_on_c, 1, 40, 127
1, 38112, Note_on_c, 1, 67, 127
1, 38122, Note_off_c, 1, 81, 0
1, 38196, Note_off_c, 1, 60, 0
1, 38196, Note_off_c, 1, 52, 0
1, 38196, Note_off_c, 1, 40, 0
1, 38196, Note_off_c, 1, 67, 0
1, 38206, Note_off_c, 1, 79, 0
1, 38208, Note_on_c, 1, 77, 127
1, 38208, Note_on_c, 1, 53, 127
1, 38208, Note_on_c, 1, 41, 127
1, 38208, Note_on_c, 1, 65, 127
1, 38250, Note_off_c, 1, 53, 0
1, 38250, Note_off_c, 1, 41, 0
1, 38292, Note_off_c, 1, 72, 0
1, 38292, Note_off_c, 1, 77, 0
1, 38292, Note_off_c, 1, 65, 0
1, 38304, Note_on_c, 1, 60, 127
1, 38304, Note_on_c, 1, 84, 127
1, 38304, Note_on_c, 1, 76, 127
1, 38304, Note_on_c, 1, 67, 127
1, 38304, Note_on_c, 1, 50, 127
1, 38304, Note_on_c, 1, 38, 127
1, 38346, Note_off_c, 1, 60, 0
1, 38346, Note_off_c, 1, 50, 0
1, 38346, Note_off_c, 1, 38, 0
1, 38352, Note_on_c, 1, 48, 127
1, 38352, Note_on_c, 1, 36, 127
1, 38388, Note_off_c, 1, 84, 0
1, 38388, Note_off_c, 1, 76, 0
1, 38388, Note_off_c, 1, 67, 0
1, 38394, Note_off_c, 1, 48, 0
1, 38394, Note_off_c, 1, 36, 0
1, 38400, Note_on_c, 1, 67, 127
1, 38400, Note_on_c, 1, 77, 127
1, 38400, Note_on_c, 1, 74, 127
1, 38400, Note_on_c, 1, 48, 127
1, 38400, Note_on_c, 1, 36, 127
1, 38410, Note_off_c, 1, 36, 0
1, 38412, Note_on_c, 1, 47, 127
1, 38412, Note_on_c, 1, 35, 127
1, 38421, Note_off_c, 1, 48, 0
1, 38422, Note_off_c, 1, 47, 0
1, 38422, Note_off_c, 1, 35, 0
1, 38484, Note_off_c, 1, 77, 0
1, 38496, Note_on_c, 1, 62, 127
1, 38496, Note_on_c, 1, 71, 127
1, 38580, Note_off_c, 1, 74, 0
1, 38580, Note_off_c, 1, 62, 0
1, 38580, Note_off_c, 1, 71, 0
1, 38586, Note_off_c, 1, 67, 0
1, 38592, Note_on_c, 1, 67, 127
1, 38592, Note_on_c, 1, 76, 127
1, 38592, Note_on_c, 1, 72, 127
1, 38592, Note_on_c, 1, 48, 127
1, 38592, Note_on_c, 1, 36, 127
1, 38676, Note_off_c, 1, 76, 0
1, 38676, Note_off_c, 1, 72, 0
1, 38676, Note_off_c, 1, 48, 0
1, 38676, Note_off_c, 1, 36, 0
1, 38682, Note_off_c, 1, 67, 0
1, 38688, Note_on_c, 1, 67, 127
1, 38688, Note_on_c, 1, 77, 127
1, 38688, Note_on_c, 1, 71, 127
1, 38688, Note_on_c, 1, 62, 127
1, 38688, Note_on_c, 1, 50, 127
1, 38688, Note_on_c, 1, 38, 127
1, 38736, Note_on_c, 1, 72, 127
1, 38772, Note_off_c, 1, 67, 0
1, 38772, Note_off_c, 1, 77, 0
1, 38772, Note_off_c, 1, 71, 0
1, 38772, Note_off_c, 1, 62, 0
1, 38772, Note_off_c, 1, 50, 0
1, 38772, Note_off_c, 1, 38, 0
1, 38778, Note_off_c, 1, 72, 0
1, 38784, Note_on_c, 1, 67, 127
1, 38784, Note_on_c, 1, 81, 127
1, 38784, Note_on_c, 1, 74, 127
1, 38784, Note_on_c, 1, 64, 127
1, 38784, Note_on_c, 1, 48, 127
1, 38784, Note_on_c, 1, 36, 127
1, 38784, Note_on_c, 1, 69, 127
1, 38784, Note_on_c, 1, 76, 127
1, 38794, Note_off_c, 1, 74, 0
1, 38796, Note_on_c, 1, 72, 127
1, 38806, Note_off_c, 1, 72, 0
1, 38826, Note_off_c, 1, 67, 0
1, 38826, Note_off_c, 1, 48, 0
1, 38826, Note_off_c, 1, 36, 0
1, 38832, Note_on_c, 1, 47, 127
1, 38832, Note_on_c, 1, 35, 127
1, 38868, Note_off_c, 1, 64, 0
1, 38868, Note_off_c, 1, 69, 0
1, 38868, Note_off_c, 1, 76, 0
1, 38874, Note_off_c, 1, 47, 0
1, 38874, Note_off_c, 1, 35, 0
1, 38880, Note_on_c, 1, 60, 127
1, 38928, Note_on_c, 1, 71, 127
1, 38949, Note_off_c, 1, 71, 0
1, 38964, Note_off_c, 1, 81, 0
1, 38964, Note_off_c, 1, 60, 0
1, 38976, Note_on_c, 1, 67, 127
1, 38976, Note_on_c, 1, 77, 127
1, 38976, Note_on_c, 1, 74, 127
1, 38976, Note_on_c, 1, 47, 127
1, 38976, Note_on_c, 1, 35, 127
1, 39060, Note_off_c, 1, 77, 0
1, 39060, Note_off_c, 1, 74, 0
1, 39060, Note_off_c, 1, 47, 0
1, 39060, Note_off_c, 1, 35, 0
1, 39072, Note_on_c, 1, 76, 127
1, 39072, Note_on_c, 1, 72, 127
1, 39072, Note_on_c, 1, 48, 127
1, 39072, Note_on_c, 1, 36, 127
1, 39114, Note_off_c, 1, 48, 0
1, 39114, Note_off_c, 1, 36, 0
1, 39156, Note_off_c, 1, 76, 0
1, 39156, Note_off_c, 1, 72, 0
1, 39162, Note_off_c, 1, 67, 0
1, 39168, Note_on_c, 1, 67, 127
1, 39168, Note_on_c, 1, 79, 127
1, 39168, Note_on_c, 1, 71, 127
1, 39168, Note_on_c, 1, 45, 127
1, 39168, Note_on_c, 1, 33, 127
1, 39168, Note_on_c, 1, 62, 127
1, 39210, Note_off_c, 1, 45, 0
1, 39210, Note_off_c, 1, 33, 0
1, 39216, Note_on_c, 1, 43, 127
1, 39216, Note_on_c, 1, 31, 127
1, 39252, Note_off_c, 1, 79, 0
1, 39252, Note_off_c, 1, 71, 0
1, 39252, Note_off_c, 1, 62, 0
1, 39258, Note_off_c, 1, 67, 0
1, 39258, Note_off_c, 1, 43, 0
1, 39258, Note_off_c, 1, 31, 0
1, 39264, Note_on_c, 1, 67, 127
1, 39264, Note_on_c, 1, 76, 127
1, 39264, Note_on_c, 1, 72, 127
1, 39264, Note_on_c, 1, 48, 127
1, 39264, Note_on_c, 1, 36, 127
1, 39348, Note_off_c, 1, 48, 0
1, 39348, Note_off_c, 1, 36, 0
1, 39360, Note_on_c, 1, 46, 127
1, 39360, Note_on_c, 1, 34, 127
1, 39360, Note_on_c, 1, 65, 127
1, 39360, Note_on_c, 1, 74, 127
1, 39396, Note_off_c, 1, 76, 0
1, 39402, Note_off_c, 1, 46, 0
1, 39402, Note_off_c, 1, 34, 0
1, 39408, Note_on_c, 1, 77, 127
1, 39408, Note_on_c, 1, 45, 127
1, 39408, Note_on_c, 1, 33, 127
1, 39444, Note_off_c, 1, 65, 0
1, 39444, Note_off_c, 1, 74, 0
1, 39450, Note_off_c, 1, 77, 0
1, 39450, Note_off_c, 1, 45, 0
1, 39450, Note_off_c, 1, 33, 0
1, 39456, Note_on_c, 1, 79, 127
1, 39456, Note_on_c, 1, 43, 127
1, 39456, Note_on_c, 1, 31, 127
1, 39466, Note_off_c, 1, 79, 0
1, 39498, Note_off_c, 1, 43, 0
1, 39498, Note_off_c, 1, 31, 0
1, 39504, Note_on_c, 1, 41, 127
1, 39504, Note_on_c, 1, 29, 127
1, 39540, Note_off_c, 1, 72, 0
1, 39546, Note_off_c, 1, 67, 0
1, 39546, Note_off_c, 1, 41, 0
1, 39546, Note_off_c, 1, 29, 0
1, 39552, Note_on_c, 1, 72, 127
1, 39552, Note_on_c, 1, 67, 127
1, 39552, Note_on_c, 1, 79, 127
1, 39552, Note_on_c, 1, 40, 127
1, 39552, Note_on_c, 1, 28, 127
1, 39594, Note_off_c, 1, 79, 0
1, 39600, Note_on_c, 1, 81, 127
1, 39600, Note_on_c, 1, 65, 127
1, 39636, Note_off_c, 1, 67, 0
1, 39636, Note_off_c, 1, 40, 0
1, 39636, Note_off_c, 1, 28, 0
1, 39642, Note_off_c, 1, 81, 0
1, 39642, Note_off_c, 1, 65, 0
1, 39648, Note_on_c, 1, 82, 127
1, 39648, Note_on_c, 1, 41, 127
1, 39648, Note_on_c, 1, 29, 127
1, 39648, Note_on_c, 1, 60, 127
1, 39648, Note_on_c, 1, 69, 127
1, 39658, Note_off_c, 1, 82, 0
1, 39690, Note_off_c, 1, 41, 0
1, 39690, Note_off_c, 1, 29, 0
1, 39732, Note_off_c, 1, 60, 0
1, 39732, Note_off_c, 1, 69, 0
1, 39738, Note_off_c, 1, 72, 0
1, 39744, Note_on_c, 1, 72, 127
1, 39744, Note_on_c, 1, 82, 127
1, 39744, Note_on_c, 1, 77, 127
1, 39744, Note_on_c, 1, 67, 127
1, 39744, Note_on_c, 1, 38, 127
1, 39744, Note_on_c, 1, 26, 127
1, 39744, Note_on_c, 1, 69, 127
1, 39754, Note_off_c, 1, 82, 0
1, 39754, Note_off_c, 1, 67, 0
1, 39756, Note_on_c, 1, 81, 127
1, 39756, Note_on_c, 1, 65, 127
1, 39766, Note_off_c, 1, 81, 0
1, 39766, Note_off_c, 1, 65, 0
1, 39786, Note_off_c, 1, 72, 0
1, 39786, Note_off_c, 1, 38, 0
1, 39786, Note_off_c, 1, 26, 0
1, 39792, Note_on_c, 1, 79, 127
1, 39792, Note_on_c, 1, 64, 127
1, 39792, Note_on_c, 1, 40, 127
1, 39792, Note_on_c, 1, 28, 127
1, 39813, Note_off_c, 1, 79, 0
1, 39813, Note_off_c, 1, 64, 0
1, 39828, Note_off_c, 1, 77, 0
1, 39828, Note_off_c, 1, 69, 0
1, 39834, Note_off_c, 1, 40, 0
1, 39834, Note_off_c, 1, 28, 0
1, 39840, Note_on_c, 1, 72, 127
1, 39840, Note_on_c, 1, 67, 127
1, 39840, Note_on_c, 1, 82, 127
1, 39840, Note_on_c, 1, 76, 127
1, 39840, Note_on_c, 1, 36, 127
1, 39840, Note_on_c, 1, 24, 127
1, 39924, Note_off_c, 1, 67, 0
1, 39924, Note_off_c, 1, 82, 0
1, 39924, Note_off_c, 1, 76, 0
1, 39924, Note_off_c, 1, 36, 0
1, 39924, Note_off_c, 1, 24, 0
1, 39936, Note_on_c, 1, 60, 127
1, 39936, Note_on_c, 1, 81, 127
1, 39936, Note_on_c, 1, 79, 127
1, 39936, Note_on_c, 1, 48, 127
1, 39936, Note_on_c, 1, 77, 127
1, 39936, Note_on_c, 1, 69, 127
1, 39946, Note_off_c, 1, 79, 0
1, 39978, Note_off_c, 1, 60, 0
1, 39978, Note_off_c, 1, 81, 0
1, 39978, Note_off_c, 1, 48, 0
1, 39984, Note_on_c, 1, 50, 127
1, 39984, Note_on_c, 1, 38, 127
1, 40020, Note_off_c, 1, 72, 0
1, 40020, Note_off_c, 1, 69, 0
1, 40026, Note_off_c, 1, 50, 0
1, 40026, Note_off_c, 1, 38, 0
1, 40030, Note_off_c, 1, 77, 0
1, 40032, Note_on_c, 1, 70, 127
1, 40032, Note_on_c, 1, 60, 127
1, 40032, Note_on_c, 1, 84, 127
1, 40032, Note_on_c, 1, 79, 127
1, 40032, Note_on_c, 1, 64, 127
1, 40032, Note_on_c, 1, 52, 127
1, 40032, Note_on_c, 1, 40, 127
1, 40032, Note_on_c, 1, 72, 127
1, 40074, Note_off_c, 1, 60, 0
1, 40074, Note_off_c, 1, 52, 0
1, 40074, Note_off_c, 1, 40, 0
1, 40080, Note_on_c, 1, 48, 127
1, 40080, Note_on_c, 1, 36, 127
1, 40116, Note_off_c, 1, 70, 0
1, 40116, Note_off_c, 1, 84, 0
1, 40116, Note_off_c, 1, 79, 0
1, 40116, Note_off_c, 1, 64, 0
1, 40116, Note_off_c, 1, 72, 0
1, 40122, Note_off_c, 1, 48, 0
1, 40122, Note_off_c, 1, 36, 0
1, 40128, Note_on_c, 1, 69, 127
1, 40128, Note_on_c, 1, 65, 127
1, 40128, Note_on_c, 1, 77, 127
1, 40128, Note_on_c, 1, 74, 127
1, 40128, Note_on_c, 1, 50, 127
1, 40128, Note_on_c, 1, 38, 127
1, 40170, Note_off_c, 1, 50, 0
1, 40170, Note_off_c, 1, 38, 0
1, 40176, Note_on_c, 1, 79, 127
1, 40176, Note_on_c, 1, 70, 127
1, 40176, Note_on_c, 1, 46, 127
1, 40176, Note_on_c, 1, 34, 127
1, 40212, Note_off_c, 1, 69, 0
1, 40212, Note_off_c, 1, 65, 0
1, 40212, Note_off_c, 1, 77, 0
1, 40212, Note_off_c, 1, 74, 0
1, 40218, Note_off_c, 1, 79, 0
1, 40218, Note_off_c, 1, 70, 0
1, 40218, Note_off_c, 1, 46, 0
1, 40218, Note_off_c, 1, 34, 0
1, 40224, Note_on_c, 1, 70, 127
1, 40224, Note_on_c, 1, 60, 127
1, 40224, Note_on_c, 1, 76, 127
1, 40224, Note_on_c, 1, 74, 127
1, 40224, Note_on_c, 1, 67, 127
1, 40224, Note_on_c, 1, 48, 127
1, 40224, Note_on_c, 1, 36, 127
1, 40234, Note_off_c, 1, 74, 0
1, 40236, Note_on_c, 1, 72, 127
1, 40236, Note_on_c, 1, 65, 127
1, 40246, Note_off_c, 1, 72, 0
1, 40246, Note_off_c, 1, 65, 0
1, 40266, Note_off_c, 1, 70, 0
1, 40266, Note_off_c, 1, 60, 0
1, 40272, Note_on_c, 1, 69, 127
1, 40308, Note_off_c, 1, 48, 0
1, 40308, Note_off_c, 1, 36, 0
1, 40314, Note_off_c, 1, 69, 0
1, 40320, Note_on_c, 1, 24, 127
1, 40320, Note_on_c, 1, 64, 127
1, 40356, Note_off_c, 1, 76, 0
1, 40368, Note_on_c, 1, 77, 127
1, 40404, Note_off_c, 1, 67, 0
1, 40404, Note_off_c, 1, 24, 0
1, 40404, Note_off_c, 1, 64, 0
1, 40410, Note_off_c, 1, 77, 0
1, 40416, Note_on_c, 1, 65, 127
1, 40416, Note_on_c, 1, 57, 127
1, 40416, Note_on_c, 1, 77, 127
1, 40416, Note_on_c, 1, 72, 127
1, 40416, Note_on_c, 1, 69, 127
1, 40416, Note_on_c, 1, 41, 127
1, 40416, Note_on_c, 1, 29, 127
1, 40416, Note_on_c, 1, 60, 127
1, 40692, Note_off_c, 1, 65, 0
1, 40692, Note_off_c, 1, 57, 0
1, 40692, Note_off_c, 1, 77, 0
1, 40692, Note_off_c, 1, 72, 0
1, 40692, Note_off_c, 1, 69, 0
1, 40692, Note_off_c, 1, 41, 0
1, 40692, Note_off_c, 1, 29, 0
1, 40692, Note_off_c, 1, 60, 0
1, 40692, End_track
0, 0, End_of_file