0, 0, Header, 1, 1, 480
1, 0, Start_track
1, 0, Title_t, "Test"
1, 0, Tempo, 500000
1, 0, Instrument_name_t, "Church Organ"
1, 96, Note_on_c, 1, 65, 127
1, 96, Note_on_c, 1, 57, 127
1, 96, Note_on_c, 1, 53, 127
1, 96, Note_on_c, 1, 41, 127
1, 96, Note_on_c, 1, 69, 127
1, 96, Note_on_c, 1, 72, 127
1, 117, Note_off_c, 1, 65, 0
1, 120, Note_on_c, 1, 67, 127
1, 138, Note_off_c, 1, 57, 0
1, 138, Note_off_c, 1, 53, 0
1, 138, Note_off_c, 1, 41, 0
1, 138, Note_off_c, 1, 69, 0
1, 138, Note_off_c, 1, 72, 0
1, 141, Note_off_c, 1, 67, 0
1, 144, Note_on_c, 1, 65, 127
1, 144, Note_on_c, 1, 57, 127
1, 144, Note_on_c, 1, 60, 127
1, 144, Note_on_c, 1, 45, 127
1, 144, Note_on_c, 1, 72, 127
1, 144, Note_on_c, 1, 77, 127
1, 168, Note_on_c, 1, 67, 127
1, 186, Note_off_c, 1, 65, 0
1, 186, Note_off_c, 1, 60, 0
1, 186, Note_off_c, 1, 45, 0
1, 186, Note_off_c, 1, 72, 0
1, 186, Note_off_c, 1, 77, 0
1, 189, Note_off_c, 1, 57, 0
1, 189, Note_off_c, 1, 67, 0
1, 192, Note_on_c, 1, 69, 127
1, 192, Note_on_c, 1, 57, 127
1, 192, Note_on_c, 1, 65, 127
1, 192, Note_on_c, 1, 60, 127
1, 192, Note_on_c, 1, 48, 127
1, 192, Note_on_c, 1, 77, 127
1, 192, Note_on_c, 1, 81, 127
1, 213, Note_off_c, 1, 69, 0
1, 216, Note_on_c, 1, 67, 127
1, 234, Note_off_c, 1, 65, 0
1, 234, Note_off_c, 1, 60, 0
1, 234, Note_off_c, 1, 48, 0
1, 234, Note_off_c, 1, 77, 0
1, 234, Note_off_c, 1, 81, 0
1, 237, Note_off_c, 1, 57, 0
1, 237, Note_off_c, 1, 67, 0
1, 240, Note_on_c, 1, 65, 127
1, 240, Note_on_c, 1, 57, 127
1, 240, Note_on_c, 1, 60, 127
1, 240, Note_on_c, 1, 45, 127
1, 240, Note_on_c, 1, 72, 127
1, 240, Note_on_c, 1, 77, 127
1, 282, Note_off_c, 1, 65, 0
1, 282, Note_off_c, 1, 57, 0
1, 282, Note_off_c, 1, 60, 0
1, 282, Note_off_c, 1, 45, 0
1, 282, Note_off_c, 1, 72, 0
1, 282, Note_off_c, 1, 77, 0
1, 288, Note_on_c, 1, 69, 127
1, 288, Note_on_c, 1, 65, 127
1, 288, Note_on_c, 1, 60, 127
1, 288, Note_on_c, 1, 53, 127
1, 288, Note_on_c, 1, 41, 127
1, 288, Note_on_c, 1, 72, 127
1, 309, Note_off_c, 1, 65, 0
1, 312, Note_on_c, 1, 67, 127
1, 312, Note_on_c, 1, 64, 127
1, 312, Note_on_c, 1, 58, 127
1, 330, Note_off_c, 1, 69, 0
1, 330, Note_off_c, 1, 60, 0
1, 330, Note_off_c, 1, 53, 0
1, 330, Note_off_c, 1, 41, 0
1, 330, Note_off_c, 1, 72, 0
1, 333, Note_off_c, 1, 67, 0
1, 333, Note_off_c, 1, 64, 0
1, 333, Note_off_c, 1, 58, 0
1, 336, Note_on_c, 1, 69, 127
1, 336, Note_on_c, 1, 65, 127
1, 336, Note_on_c, 1, 60, 127
1, 357, Note_off_c, 1, 69, 0
1, 357, Note_off_c, 1, 65, 0
1, 360, Note_on_c, 1, 62, 127
1, 360, Note_on_c, 1, 57, 127
1, 381, Note_off_c, 1, 60, 0
1, 381, Note_off_c, 1, 62, 0
1, 381, Note_off_c, 1, 57, 0
1, 384, Note_on_c, 1, 67, 127
1, 384, Note_on_c, 1, 60, 127
1, 384, Note_on_c, 1, 72, 127
1, 384, Note_on_c, 1, 64, 127
1, 384, Note_on_c, 1, 52, 127
1, 384, Note_on_c, 1, 40, 127
1, 408, Note_on_c, 1, 69, 127
1, 426, Note_off_c, 1, 67, 0
1, 426, Note_off_c, 1, 60, 0
1, 426, Note_off_c, 1, 72, 0
1, 426, Note_off_c, 1, 64, 0
1, 426, Note_off_c, 1, 52, 0
1, 426, Note_off_c, 1, 40, 0
1, 429, Note_off_c, 1, 69, 0
1, 432, Note_on_c, 1, 67, 127
1, 432, Note_on_c, 1, 60, 127
1, 432, Note_on_c, 1, 72, 127
1, 432, Note_on_c, 1, 64, 127
1, 432, Note_on_c, 1, 55, 127
1, 432, Note_on_c, 1, 43, 127
1, 432, Note_on_c, 1, 76, 127
1, 453, Note_off_c, 1, 60, 0
1, 456, Note_on_c, 1, 69, 127
1, 474, Note_off_c, 1, 67, 0
1, 474, Note_off_c, 1, 72, 0
1, 474, Note_off_c, 1, 64, 0
1, 474, Note_off_c, 1, 55, 0
1, 474, Note_off_c, 1, 43, 0
1, 474, Note_off_c, 1, 76, 0
1, 477, Note_off_c, 1, 69, 0
1, 480, Note_on_c, 1, 70, 127
1, 480, Note_on_c, 1, 60, 127
1, 480, Note_on_c, 1, 72, 127
1, 480, Note_on_c, 1, 67, 127
1, 480, Note_on_c, 1, 64, 127
1, 480, Note_on_c, 1, 48, 127
1, 480, Note_on_c, 1, 76, 127
1, 480, Note_on_c, 1, 79, 127
1, 501, Note_off_c, 1, 70, 0
1, 504, Note_on_c, 1, 69, 127
1, 522, Note_off_c, 1, 72, 0
1, 522, Note_off_c, 1, 67, 0
1, 522, Note_off_c, 1, 64, 0
1, 522, Note_off_c, 1, 48, 0
1, 522, Note_off_c, 1, 76, 0
1, 522, Note_off_c, 1, 79, 0
1, 525, Note_off_c, 1, 60, 0
1, 525, Note_off_c, 1, 69, 0
1, 528, Note_on_c, 1, 67, 127
1, 528, Note_on_c, 1, 60, 127
1, 528, Note_on_c, 1, 72, 127
1, 528, Note_on_c, 1, 64, 127
1, 528, Note_on_c, 1, 52, 127
1, 528, Note_on_c, 1, 40, 127
1, 570, Note_off_c, 1, 67, 0
1, 570, Note_off_c, 1, 60, 0
1, 570, Note_off_c, 1, 72, 0
1, 570, Note_off_c, 1, 64, 0
1, 570, Note_off_c, 1, 52, 0
1, 570, Note_off_c, 1, 40, 0
1, 576, Note_on_c, 1, 76, 127
1, 576, Note_on_c, 1, 72, 127
1, 576, Note_on_c, 1, 67, 127
1, 576, Note_on_c, 1, 48, 127
1, 576, Note_on_c, 1, 36, 127
1, 576, Note_on_c, 1, 64, 127
1, 597, Note_off_c, 1, 76, 0
1, 597, Note_off_c, 1, 72, 0
1, 600, Note_on_c, 1, 74, 127
1, 600, Note_on_c, 1, 71, 127
1, 600, Note_on_c, 1, 65, 127
1, 618, Note_off_c, 1, 67, 0
1, 618, Note_off_c, 1, 48, 0
1, 618, Note_off_c, 1, 36, 0
1, 618, Note_off_c, 1, 64, 0
1, 621, Note_off_c, 1, 74, 0
1, 621, Note_off_c, 1, 71, 0
1, 621, Note_off_c, 1, 65, 0
1, 624, Note_on_c, 1, 76, 127
1, 624, Note_on_c, 1, 72, 127
1, 624, Note_on_c, 1, 67, 127
1, 645, Note_off_c, 1, 76, 0
1, 645, Note_off_c, 1, 72, 0
1, 645, Note_off_c, 1, 67, 0
1, 648, Note_on_c, 1, 72, 127
1, 648, Note_on_c, 1, 67, 127
1, 648, Note_on_c, 1, 64, 127
1, 669, Note_off_c, 1, 72, 0
1, 669, Note_off_c, 1, 67, 0
1, 669, Note_off_c, 1, 64, 0
1, 672, Note_on_c, 1, 69, 127
1, 672, Note_on_c, 1, 65, 127
1, 672, Note_on_c, 1, 77, 127
1, 672, Note_on_c, 1, 74, 127
1, 672, Note_on_c, 1, 50, 127
1, 672, Note_on_c, 1, 38, 127
1, 693, Note_off_c, 1, 65, 0
1, 696, Note_on_c, 1, 70, 127
1, 696, Note_on_c, 1, 67, 127
1, 714, Note_off_c, 1, 69, 0
1, 714, Note_off_c, 1, 77, 0
1, 714, Note_off_c, 1, 74, 0
1, 714, Note_off_c, 1, 50, 0
1, 714, Note_off_c, 1, 38, 0
1, 717, Note_off_c, 1, 70, 0
1, 717, Note_off_c, 1, 67, 0
1, 720, Note_on_c, 1, 69, 127
1, 720, Note_on_c, 1, 65, 127
1, 720, Note_on_c, 1, 77, 127
1, 720, Note_on_c, 1, 74, 127
1, 720, Note_on_c, 1, 53, 127
1, 720, Note_on_c, 1, 41, 127
1, 741, Note_off_c, 1, 65, 0
1, 744, Note_on_c, 1, 70, 127
1, 744, Note_on_c, 1, 67, 127
1, 762, Note_off_c, 1, 69, 0
1, 762, Note_off_c, 1, 77, 0
1, 762, Note_off_c, 1, 74, 0
1, 762, Note_off_c, 1, 53, 0
1, 762, Note_off_c, 1, 41, 0
1, 765, Note_off_c, 1, 70, 0
1, 765, Note_off_c, 1, 67, 0
1, 768, Note_on_c, 1, 72, 127
1, 768, Note_on_c, 1, 69, 127
1, 768, Note_on_c, 1, 77, 127
1, 768, Note_on_c, 1, 74, 127
1, 768, Note_on_c, 1, 50, 127
1, 768, Note_on_c, 1, 38, 127
1, 789, Note_off_c, 1, 72, 0
1, 792, Note_on_c, 1, 70, 127
1, 792, Note_on_c, 1, 67, 127
1, 810, Note_off_c, 1, 69, 0
1, 810, Note_off_c, 1, 77, 0
1, 810, Note_off_c, 1, 74, 0
1, 810, Note_off_c, 1, 50, 0
1, 810, Note_off_c, 1, 38, 0
1, 813, Note_off_c, 1, 70, 0
1, 813, Note_off_c, 1, 67, 0
1, 816, Note_on_c, 1, 69, 127
1, 816, Note_on_c, 1, 65, 127
1, 816, Note_on_c, 1, 77, 127
1, 816, Note_on_c, 1, 72, 127
1, 816, Note_on_c, 1, 45, 127
1, 816, Note_on_c, 1, 33, 127
1, 840, Note_on_c, 1, 70, 127
1, 840, Note_on_c, 1, 67, 127
1, 858, Note_off_c, 1, 69, 0
1, 858, Note_off_c, 1, 65, 0
1, 858, Note_off_c, 1, 77, 0
1, 858, Note_off_c, 1, 72, 0
1, 858, Note_off_c, 1, 45, 0
1, 858, Note_off_c, 1, 33, 0
1, 861, Note_off_c, 1, 70, 0
1, 861, Note_off_c, 1, 67, 0
1, 864, Note_on_c, 1, 69, 127
1, 864, Note_on_c, 1, 65, 127
1, 864, Note_on_c, 1, 79, 127
1, 864, Note_on_c, 1, 76, 127
1, 864, Note_on_c, 1, 60, 127
1, 864, Note_on_c, 1, 41, 127
1, 864, Note_on_c, 1, 29, 127
1, 885, Note_off_c, 1, 65, 0
1, 885, Note_off_c, 1, 79, 0
1, 885, Note_off_c, 1, 76, 0
1, 888, Note_on_c, 1, 70, 127
1, 888, Note_on_c, 1, 67, 127
1, 888, Note_on_c, 1, 77, 127
1, 888, Note_on_c, 1, 74, 127
1, 906, Note_off_c, 1, 69, 0
1, 906, Note_off_c, 1, 60, 0
1, 906, Note_off_c, 1, 41, 0
1, 906, Note_off_c, 1, 29, 0
1, 909, Note_off_c, 1, 70, 0
1, 909, Note_off_c, 1, 67, 0
1, 909, Note_off_c, 1, 77, 0
1, 909, Note_off_c, 1, 74, 0
1, 912, Note_on_c, 1, 72, 127
1, 912, Note_on_c, 1, 69, 127
1, 912, Note_on_c, 1, 76, 127
1, 912, Note_on_c, 1, 65, 127
1, 933, Note_off_c, 1, 76, 0
1, 936, Note_on_c, 1, 74, 127
1, 936, Note_on_c, 1, 71, 127
1, 954, Note_off_c, 1, 72, 0
1, 954, Note_off_c, 1, 69, 0
1, 954, Note_off_c, 1, 65, 0
1, 957, Note_off_c, 1, 74, 0
1, 957, Note_off_c, 1, 71, 0
1, 960, Note_on_c, 1, 67, 127
1, 960, Note_on_c, 1, 60, 127
1, 960, Note_on_c, 1, 76, 127
1, 960, Note_on_c, 1, 72, 127
1, 960, Note_on_c, 1, 48, 127
1, 960, Note_on_c, 1, 36, 127
1, 981, Note_off_c, 1, 72, 0
1, 984, Note_on_c, 1, 77, 127
1, 984, Note_on_c, 1, 74, 127
1, 1002, Note_off_c, 1, 67, 0
1, 1002, Note_off_c, 1, 60, 0
1, 1002, Note_off_c, 1, 76, 0
1, 1002, Note_off_c, 1, 48, 0
1, 1002, Note_off_c, 1, 36, 0
1, 1005, Note_off_c, 1, 77, 0
1, 1005, Note_off_c, 1, 74, 0
1, 1008, Note_on_c, 1, 67, 127
1, 1008, Note_on_c, 1, 60, 127
1, 1008, Note_on_c, 1, 79, 127
1, 1008, Note_on_c, 1, 76, 127
1, 1008, Note_on_c, 1, 48, 127
1, 1008, Note_on_c, 1, 36, 127
1, 1008, Note_on_c, 1, 69, 127
1, 1008, Note_on_c, 1, 74, 127
1, 1018, Note_off_c, 1, 79, 0
1, 1018, Note_off_c, 1, 76, 0
1, 1020, Note_on_c, 1, 77, 127
1, 1029, Note_off_c, 1, 67, 0
1, 1030, Note_off_c, 1, 77, 0
1, 1050, Note_off_c, 1, 48, 0
1, 1050, Note_off_c, 1, 36, 0
1, 1050, Note_off_c, 1, 69, 0
1, 1053, Note_off_c, 1, 60, 0
1, 1054, Note_off_c, 1, 74, 0
1, 1056, Note_on_c, 1, 67, 127
1, 1056, Note_on_c, 1, 60, 127
1, 1056, Note_on_c, 1, 79, 127
1, 1056, Note_on_c, 1, 76, 127
1, 1056, Note_on_c, 1, 48, 127
1, 1056, Note_on_c, 1, 36, 127
1, 1066, Note_off_c, 1, 79, 0
1, 1068, Note_on_c, 1, 77, 127
1, 1068, Note_on_c, 1, 74, 127
1, 1077, Note_off_c, 1, 60, 0
1, 1078, Note_off_c, 1, 77, 0
1, 1078, Note_off_c, 1, 74, 0
1, 1080, Note_on_c, 1, 72, 127
1, 1090, Note_off_c, 1, 72, 0
1, 1098, Note_off_c, 1, 76, 0
1, 1098, Note_off_c, 1, 48, 0
1, 1098, Note_off_c, 1, 36, 0
1, 1101, Note_off_c, 1, 67, 0
1, 1104, Note_on_c, 1, 67, 127
1, 1104, Note_on_c, 1, 60, 127
1, 1104, Note_on_c, 1, 79, 127
1, 1104, Note_on_c, 1, 76, 127
1, 1104, Note_on_c, 1, 72, 127
1, 1104, Note_on_c, 1, 48, 127
1, 1104, Note_on_c, 1, 36, 127
1, 1146, Note_off_c, 1, 67, 0
1, 1146, Note_off_c, 1, 60, 0
1, 1146, Note_off_c, 1, 79, 0
1, 1146, Note_off_c, 1, 48, 0
1, 1146, Note_off_c, 1, 36, 0
1, 1152, Note_on_c, 1, 52, 127
1, 1152, Note_on_c, 1, 40, 127
1, 1173, Note_off_c, 1, 52, 0
1, 1173, Note_off_c, 1, 40, 0
1, 1176, Note_on_c, 1, 50, 127
1, 1176, Note_on_c, 1, 38, 127
1, 1188, Note_off_c, 1, 76, 0
1, 1194, Note_off_c, 1, 72, 0
1, 1197, Note_off_c, 1, 50, 0
1, 1197, Note_off_c, 1, 38, 0
1, 1200, Note_on_c, 1, 79, 127
1, 1200, Note_on_c, 1, 72, 127
1, 1200, Note_on_c, 1, 67, 127
1, 1200, Note_on_c, 1, 52, 127
1, 1200, Note_on_c, 1, 40, 127
1, 1221, Note_off_c, 1, 52, 0
1, 1221, Note_off_c, 1, 40, 0
1, 1224, Note_on_c, 1, 48, 127
1, 1224, Note_on_c, 1, 36, 127
1, 1242, Note_off_c, 1, 79, 0
1, 1242, Note_off_c, 1, 72, 0
1, 1242, Note_off_c, 1, 67, 0
1, 1245, Note_off_c, 1, 48, 0
1, 1245, Note_off_c, 1, 36, 0
1, 1248, Note_on_c, 1, 81, 127
1, 1248, Note_on_c, 1, 72, 127
1, 1248, Note_on_c, 1, 65, 127
1, 1248, Note_on_c, 1, 53, 127
1, 1248, Note_on_c, 1, 41, 127
1, 1248, Note_on_c, 1, 69, 127
1, 1248, Note_on_c, 1, 74, 127
1, 1269, Note_off_c, 1, 81, 0
1, 1272, Note_on_c, 1, 79, 127
1, 1290, Note_off_c, 1, 72, 0
1, 1290, Note_off_c, 1, 65, 0
1, 1290, Note_off_c, 1, 53, 0
1, 1290, Note_off_c, 1, 41, 0
1, 1290, Note_off_c, 1, 69, 0
1, 1290, Note_off_c, 1, 74, 0
1, 1293, Note_off_c, 1, 79, 0
1, 1296, Note_on_c, 1, 77, 127
1, 1296, Note_on_c, 1, 57, 127
1, 1296, Note_on_c, 1, 45, 127
1, 1296, Note_on_c, 1, 65, 127
1, 1296, Note_on_c, 1, 74, 127
1, 1317, Note_off_c, 1, 77, 0
1, 1320, Note_on_c, 1, 76, 127
1, 1338, Note_off_c, 1, 57, 0
1, 1338, Note_off_c, 1, 45, 0
1, 1338, Note_off_c, 1, 65, 0
1, 1338, Note_off_c, 1, 74, 0
1, 1341, Note_off_c, 1, 76, 0
1, 1344, Note_on_c, 1, 77, 127
1, 1344, Note_on_c, 1, 62, 127
1, 1344, Note_on_c, 1, 50, 127
1, 1344, Note_on_c, 1, 69, 127
1, 1365, Note_off_c, 1, 77, 0
1, 1368, Note_on_c, 1, 74, 127
1, 1386, Note_off_c, 1, 62, 0
1, 1386, Note_off_c, 1, 50, 0
1, 1386, Note_off_c, 1, 69, 0
1, 1389, Note_off_c, 1, 74, 0
1, 1392, Note_on_c, 1, 79, 127
1, 1392, Note_on_c, 1, 72, 127
1, 1392, Note_on_c, 1, 67, 127
1, 1392, Note_on_c, 1, 52, 127
1, 1392, Note_on_c, 1, 40, 127
1, 1413, Note_off_c, 1, 79, 0
1, 1434, Note_off_c, 1, 72, 0
1, 1434, Note_off_c, 1, 52, 0
1, 1434, Note_off_c, 1, 40, 0
1, 1437, Note_off_c, 1, 67, 0
1, 1440, Note_on_c, 1, 72, 127
1, 1440, Note_on_c, 1, 55, 127
1, 1440, Note_on_c, 1, 43, 127
1, 1440, Note_on_c, 1, 64, 127
1, 1464, Note_on_c, 1, 74, 127
1, 1482, Note_off_c, 1, 72, 0
1, 1482, Note_off_c, 1, 55, 0
1, 1482, Note_off_c, 1, 43, 0
1, 1482, Note_off_c, 1, 64, 0
1, 1485, Note_off_c, 1, 74, 0
1, 1488, Note_on_c, 1, 76, 127
1, 1488, Note_on_c, 1, 60, 127
1, 1488, Note_on_c, 1, 48, 127
1, 1488, Note_on_c, 1, 64, 127
1, 1488, Note_on_c, 1, 67, 127
1, 1509, Note_off_c, 1, 76, 0
1, 1512, Note_on_c, 1, 72, 127
1, 1530, Note_off_c, 1, 60, 0
1, 1530, Note_off_c, 1, 48, 0
1, 1530, Note_off_c, 1, 64, 0
1, 1530, Note_off_c, 1, 67, 0
1, 1533, Note_off_c, 1, 72, 0
1, 1536, Note_on_c, 1, 77, 127
1, 1536, Note_on_c, 1, 74, 127
1, 1536, Note_on_c, 1, 69, 127
1, 1536, Note_on_c, 1, 50, 127
1, 1536, Note_on_c, 1, 38, 127
1, 1536, Note_on_c, 1, 65, 127
1, 1536, Note_on_c, 1, 70, 127
1, 1557, Note_off_c, 1, 77, 0
1, 1560, Note_on_c, 1, 76, 127
1, 1578, Note_off_c, 1, 74, 0
1, 1578, Note_off_c, 1, 69, 0
1, 1578, Note_off_c, 1, 50, 0
1, 1578, Note_off_c, 1, 38, 0
1, 1578, Note_off_c, 1, 65, 0
1, 1578, Note_off_c, 1, 70, 0
1, 1581, Note_off_c, 1, 76, 0
1, 1584, Note_on_c, 1, 74, 127
1, 1584, Note_on_c, 1, 53, 127
1, 1584, Note_on_c, 1, 41, 127
1, 1584, Note_on_c, 1, 62, 127
1, 1584, Note_on_c, 1, 70, 127
1, 1605, Note_off_c, 1, 74, 0
1, 1608, Note_on_c, 1, 72, 127
1, 1626, Note_off_c, 1, 53, 0
1, 1626, Note_off_c, 1, 41, 0
1, 1626, Note_off_c, 1, 62, 0
1, 1626, Note_off_c, 1, 70, 0
1, 1629, Note_off_c, 1, 72, 0
1, 1632, Note_on_c, 1, 74, 127
1, 1632, Note_on_c, 1, 58, 127
1, 1632, Note_on_c, 1, 46, 127
1, 1632, Note_on_c, 1, 65, 127
1, 1656, Note_on_c, 1, 70, 127
1, 1674, Note_off_c, 1, 74, 0
1, 1674, Note_off_c, 1, 58, 0
1, 1674, Note_off_c, 1, 46, 0
1, 1674, Note_off_c, 1, 65, 0
1, 1677, Note_off_c, 1, 70, 0
1, 1680, Note_on_c, 1, 76, 127
1, 1680, Note_on_c, 1, 69, 127
1, 1680, Note_on_c, 1, 64, 127
1, 1680, Note_on_c, 1, 48, 127
1, 1680, Note_on_c, 1, 36, 127
1, 1722, Note_off_c, 1, 76, 0
1, 1722, Note_off_c, 1, 69, 0
1, 1722, Note_off_c, 1, 48, 0
1, 1722, Note_off_c, 1, 36, 0
1, 1725, Note_off_c, 1, 64, 0
1, 1728, Note_on_c, 1, 69, 127
1, 1728, Note_on_c, 1, 52, 127
1, 1728, Note_on_c, 1, 40, 127
1, 1728, Note_on_c, 1, 72, 127
1, 1752, Note_on_c, 1, 70, 127
1, 1770, Note_off_c, 1, 69, 0
1, 1770, Note_off_c, 1, 52, 0
1, 1770, Note_off_c, 1, 40, 0
1, 1770, Note_off_c, 1, 72, 0
1, 1773, Note_off_c, 1, 70, 0
1, 1776, Note_on_c, 1, 72, 127
1, 1776, Note_on_c, 1, 57, 127
1, 1776, Note_on_c, 1, 45, 127
1, 1776, Note_on_c, 1, 64, 127
1, 1800, Note_on_c, 1, 69, 127
1, 1818, Note_off_c, 1, 72, 0
1, 1818, Note_off_c, 1, 57, 0
1, 1818, Note_off_c, 1, 45, 0
1, 1818, Note_off_c, 1, 64, 0
1, 1821, Note_off_c, 1, 69, 0
1, 1824, Note_on_c, 1, 74, 127
1, 1824, Note_on_c, 1, 70, 127
1, 1824, Note_on_c, 1, 65, 127
1, 1824, Note_on_c, 1, 46, 127
1, 1824, Note_on_c, 1, 34, 127
1, 1824, Note_on_c, 1, 67, 127
1, 1848, Note_on_c, 1, 72, 127
1, 1866, Note_off_c, 1, 74, 0
1, 1866, Note_off_c, 1, 70, 0
1, 1866, Note_off_c, 1, 65, 0
1, 1866, Note_off_c, 1, 46, 0
1, 1866, Note_off_c, 1, 34, 0
1, 1866, Note_off_c, 1, 67, 0
1, 1869, Note_off_c, 1, 72, 0
1, 1872, Note_on_c, 1, 70, 127
1, 1872, Note_on_c, 1, 50, 127
1, 1872, Note_on_c, 1, 38, 127
1, 1872, Note_on_c, 1, 67, 127
1, 1896, Note_on_c, 1, 69, 127
1, 1914, Note_off_c, 1, 70, 0
1, 1914, Note_off_c, 1, 50, 0
1, 1914, Note_off_c, 1, 38, 0
1, 1914, Note_off_c, 1, 67, 0
1, 1917, Note_off_c, 1, 69, 0
1, 1920, Note_on_c, 1, 70, 127
1, 1920, Note_on_c, 1, 55, 127
1, 1920, Note_on_c, 1, 43, 127
1, 1920, Note_on_c, 1, 62, 127
1, 1944, Note_on_c, 1, 67, 127
1, 1962, Note_off_c, 1, 70, 0
1, 1962, Note_off_c, 1, 55, 0
1, 1962, Note_off_c, 1, 43, 0
1, 1962, Note_off_c, 1, 62, 0
1, 1965, Note_off_c, 1, 67, 0
1, 1968, Note_on_c, 1, 72, 127
1, 1968, Note_on_c, 1, 65, 127
1, 1968, Note_on_c, 1, 60, 127
1, 1968, Note_on_c, 1, 45, 127
1, 1968, Note_on_c, 1, 33, 127
1, 2010, Note_off_c, 1, 72, 0
1, 2010, Note_off_c, 1, 65, 0
1, 2010, Note_off_c, 1, 45, 0
1, 2010, Note_off_c, 1, 33, 0
1, 2013, Note_off_c, 1, 60, 0
1, 2016, Note_on_c, 1, 65, 127
1, 2016, Note_on_c, 1, 48, 127
1, 2016, Note_on_c, 1, 36, 127
1, 2016, Note_on_c, 1, 69, 127
1, 2040, Note_on_c, 1, 67, 127
1, 2058, Note_off_c, 1, 65, 0
1, 2058, Note_off_c, 1, 48, 0
1, 2058, Note_off_c, 1, 36, 0
1, 2058, Note_off_c, 1, 69, 0
1, 2061, Note_off_c, 1, 67, 0
1, 2064, Note_on_c, 1, 69, 127
1, 2064, Note_on_c, 1, 53, 127
1, 2064, Note_on_c, 1, 41, 127
1, 2064, Note_on_c, 1, 72, 127
1, 2088, Note_on_c, 1, 65, 127
1, 2106, Note_off_c, 1, 69, 0
1, 2106, Note_off_c, 1, 53, 0
1, 2106, Note_off_c, 1, 41, 0
1, 2106, Note_off_c, 1, 72, 0
1, 2109, Note_off_c, 1, 65, 0
1, 2112, Note_on_c, 1, 70, 127
1, 2112, Note_on_c, 1, 67, 127
1, 2112, Note_on_c, 1, 62, 127
1, 2112, Note_on_c, 1, 43, 127
1, 2112, Note_on_c, 1, 31, 127
1, 2136, Note_on_c, 1, 72, 127
1, 2136, Note_on_c, 1, 69, 127
1, 2154, Note_off_c, 1, 70, 0
1, 2154, Note_off_c, 1, 67, 0
1, 2154, Note_off_c, 1, 62, 0
1, 2154, Note_off_c, 1, 43, 0
1, 2154, Note_off_c, 1, 31, 0
1, 2157, Note_off_c, 1, 72, 0
1, 2157, Note_off_c, 1, 69, 0
1, 2160, Note_on_c, 1, 70, 127
1, 2160, Note_on_c, 1, 67, 127
1, 2160, Note_on_c, 1, 62, 127
1, 2160, Note_on_c, 1, 50, 127
1, 2160, Note_on_c, 1, 38, 127
1, 2184, Note_on_c, 1, 72, 127
1, 2184, Note_on_c, 1, 69, 127
1, 2202, Note_off_c, 1, 70, 0
1, 2202, Note_off_c, 1, 67, 0
1, 2202, Note_off_c, 1, 62, 0
1, 2202, Note_off_c, 1, 50, 0
1, 2202, Note_off_c, 1, 38, 0
1, 2205, Note_off_c, 1, 72, 0
1, 2205, Note_off_c, 1, 69, 0
1, 2208, Note_on_c, 1, 74, 127
1, 2208, Note_on_c, 1, 70, 127
1, 2208, Note_on_c, 1, 67, 127
1, 2208, Note_on_c, 1, 62, 127
1, 2208, Note_on_c, 1, 55, 127
1, 2208, Note_on_c, 1, 43, 127
1, 2229, Note_off_c, 1, 74, 0
1, 2232, Note_on_c, 1, 72, 127
1, 2232, Note_on_c, 1, 69, 127
1, 2250, Note_off_c, 1, 70, 0
1, 2250, Note_off_c, 1, 67, 0
1, 2250, Note_off_c, 1, 62, 0
1, 2250, Note_off_c, 1, 55, 0
1, 2250, Note_off_c, 1, 43, 0
1, 2253, Note_off_c, 1, 72, 0
1, 2253, Note_off_c, 1, 69, 0
1, 2256, Note_on_c, 1, 70, 127
1, 2256, Note_on_c, 1, 67, 127
1, 2256, Note_on_c, 1, 62, 127
1, 2256, Note_on_c, 1, 41, 127
1, 2256, Note_on_c, 1, 29, 127
1, 2280, Note_on_c, 1, 72, 127
1, 2298, Note_off_c, 1, 70, 0
1, 2298, Note_off_c, 1, 67, 0
1, 2298, Note_off_c, 1, 62, 0
1, 2298, Note_off_c, 1, 41, 0
1, 2298, Note_off_c, 1, 29, 0
1, 2301, Note_off_c, 1, 72, 0
1, 2304, Note_on_c, 1, 70, 127
1, 2304, Note_on_c, 1, 67, 127
1, 2304, Note_on_c, 1, 50, 127
1, 2304, Note_on_c, 1, 38, 127
1, 2304, Note_on_c, 1, 62, 127
1, 2328, Note_on_c, 1, 69, 127
1, 2346, Note_off_c, 1, 70, 0
1, 2346, Note_off_c, 1, 67, 0
1, 2346, Note_off_c, 1, 50, 0
1, 2346, Note_off_c, 1, 38, 0
1, 2346, Note_off_c, 1, 62, 0
1, 2349, Note_off_c, 1, 69, 0
1, 2352, Note_on_c, 1, 70, 127
1, 2352, Note_on_c, 1, 67, 127
1, 2352, Note_on_c, 1, 55, 127
1, 2352, Note_on_c, 1, 43, 127
1, 2352, Note_on_c, 1, 62, 127
1, 2394, Note_off_c, 1, 70, 0
1, 2394, Note_off_c, 1, 55, 0
1, 2394, Note_off_c, 1, 43, 0
1, 2394, Note_off_c, 1, 62, 0
1, 2397, Note_off_c, 1, 67, 0
1, 2400, Note_on_c, 1, 70, 127
1, 2400, Note_on_c, 1, 67, 127
1, 2400, Note_on_c, 1, 79, 127
1, 2400, Note_on_c, 1, 60, 127
1, 2400, Note_on_c, 1, 40, 127
1, 2400, Note_on_c, 1, 28, 127
1, 2400, Note_on_c, 1, 72, 127
1, 2421, Note_off_c, 1, 70, 0
1, 2424, Note_on_c, 1, 69, 127
1, 2442, Note_off_c, 1, 67, 0
1, 2442, Note_off_c, 1, 79, 0
1, 2442, Note_off_c, 1, 60, 0
1, 2442, Note_off_c, 1, 40, 0
1, 2442, Note_off_c, 1, 28, 0
1, 2445, Note_off_c, 1, 72, 0
1, 2445, Note_off_c, 1, 69, 0
1, 2448, Note_on_c, 1, 70, 127
1, 2448, Note_on_c, 1, 67, 127
1, 2448, Note_on_c, 1, 60, 127
1, 2448, Note_on_c, 1, 48, 127
1, 2448, Note_on_c, 1, 36, 127
1, 2448, Note_on_c, 1, 76, 127
1, 2472, Note_on_c, 1, 72, 127
1, 2472, Note_on_c, 1, 69, 127
1, 2490, Note_off_c, 1, 70, 0
1, 2490, Note_off_c, 1, 67, 0
1, 2490, Note_off_c, 1, 60, 0
1, 2490, Note_off_c, 1, 48, 0
1, 2490, Note_off_c, 1, 36, 0
1, 2490, Note_off_c, 1, 76, 0
1, 2493, Note_off_c, 1, 72, 0
1, 2493, Note_off_c, 1, 69, 0
1, 2496, Note_on_c, 1, 74, 127
1, 2496, Note_on_c, 1, 70, 127
1, 2496, Note_on_c, 1, 67, 127
1, 2496, Note_on_c, 1, 60, 127
1, 2496, Note_on_c, 1, 55, 127
1, 2496, Note_on_c, 1, 43, 127
1, 2496, Note_on_c, 1, 64, 127
1, 2496, Note_on_c, 1, 72, 127
1, 2517, Note_off_c, 1, 74, 0
1, 2520, Note_on_c, 1, 69, 127
1, 2538, Note_off_c, 1, 70, 0
1, 2538, Note_off_c, 1, 67, 0
1, 2538, Note_off_c, 1, 60, 0
1, 2538, Note_off_c, 1, 55, 0
1, 2538, Note_off_c, 1, 43, 0
1, 2538, Note_off_c, 1, 64, 0
1, 2541, Note_off_c, 1, 72, 0
1, 2541, Note_off_c, 1, 69, 0
1, 2544, Note_on_c, 1, 70, 127
1, 2544, Note_on_c, 1, 67, 127
1, 2544, Note_on_c, 1, 60, 127
1, 2544, Note_on_c, 1, 52, 127
1, 2544, Note_on_c, 1, 40, 127
1, 2544, Note_on_c, 1, 72, 127
1, 2586, Note_off_c, 1, 70, 0
1, 2586, Note_off_c, 1, 67, 0
1, 2586, Note_off_c, 1, 60, 0
1, 2586, Note_off_c, 1, 52, 0
1, 2586, Note_off_c, 1, 40, 0
1, 2586, Note_off_c, 1, 72, 0
1, 2592, Note_on_c, 1, 70, 127
1, 2592, Note_on_c, 1, 67, 127
1, 2592, Note_on_c, 1, 72, 127
1, 2592, Note_on_c, 1, 69, 127
1, 2592, Note_on_c, 1, 64, 127
1, 2592, Note_on_c, 1, 48, 127
1, 2592, Note_on_c, 1, 36, 127
1, 2592, Note_on_c, 1, 76, 127
1, 2613, Note_off_c, 1, 72, 0
1, 2613, Note_off_c, 1, 69, 0
1, 2634, Note_off_c, 1, 64, 0
1, 2634, Note_off_c, 1, 48, 0
1, 2634, Note_off_c, 1, 36, 0
1, 2634, Note_off_c, 1, 76, 0
1, 2637, Note_off_c, 1, 70, 0
1, 2637, Note_off_c, 1, 67, 0
1, 2640, Note_on_c, 1, 70, 127
1, 2640, Note_on_c, 1, 67, 127
1, 2640, Note_on_c, 1, 69, 127
1, 2640, Note_on_c, 1, 65, 127
1, 2640, Note_on_c, 1, 60, 127
1, 2640, Note_on_c, 1, 48, 127
1, 2640, Note_on_c, 1, 72, 127
1, 2640, Note_on_c, 1, 79, 127
1, 2661, Note_off_c, 1, 69, 0
1, 2661, Note_off_c, 1, 65, 0
1, 2664, Note_on_c, 1, 64, 127
1, 2682, Note_off_c, 1, 70, 0
1, 2682, Note_off_c, 1, 60, 0
1, 2682, Note_off_c, 1, 48, 0
1, 2682, Note_off_c, 1, 72, 0
1, 2682, Note_off_c, 1, 79, 0
1, 2685, Note_off_c, 1, 67, 0
1, 2685, Note_off_c, 1, 64, 0
1, 2688, Note_on_c, 1, 69, 127
1, 2688, Note_on_c, 1, 65, 127
1, 2688, Note_on_c, 1, 60, 127
1, 2688, Note_on_c, 1, 41, 127
1, 2688, Note_on_c, 1, 29, 127
1, 2712, Note_on_c, 1, 70, 127
1, 2712, Note_on_c, 1, 67, 127
1, 2730, Note_off_c, 1, 69, 0
1, 2730, Note_off_c, 1, 65, 0
1, 2730, Note_off_c, 1, 60, 0
1, 2730, Note_off_c, 1, 41, 0
1, 2730, Note_off_c, 1, 29, 0
1, 2733, Note_off_c, 1, 70, 0
1, 2733, Note_off_c, 1, 67, 0
1, 2736, Note_on_c, 1, 69, 127
1, 2736, Note_on_c, 1, 65, 127
1, 2736, Note_on_c, 1, 60, 127
1, 2736, Note_on_c, 1, 48, 127
1, 2736, Note_on_c, 1, 36, 127
1, 2760, Note_on_c, 1, 70, 127
1, 2760, Note_on_c, 1, 67, 127
1, 2778, Note_off_c, 1, 69, 0
1, 2778, Note_off_c, 1, 65, 0
1, 2778, Note_off_c, 1, 60, 0
1, 2778, Note_off_c, 1, 48, 0
1, 2778, Note_off_c, 1, 36, 0
1, 2781, Note_off_c, 1, 70, 0
1, 2781, Note_off_c, 1, 67, 0
1, 2784, Note_on_c, 1, 72, 127
1, 2784, Note_on_c, 1, 69, 127
1, 2784, Note_on_c, 1, 65, 127
1, 2784, Note_on_c, 1, 60, 127
1, 2784, Note_on_c, 1, 53, 127
1, 2784, Note_on_c, 1, 41, 127
1, 2808, Note_on_c, 1, 70, 127
1, 2808, Note_on_c, 1, 67, 127
1, 2826, Note_off_c, 1, 72, 0
1, 2826, Note_off_c, 1, 69, 0
1, 2826, Note_off_c, 1, 65, 0
1, 2826, Note_off_c, 1, 60, 0
1, 2826, Note_off_c, 1, 53, 0
1, 2826, Note_off_c, 1, 41, 0
1, 2829, Note_off_c, 1, 70, 0
1, 2829, Note_off_c, 1, 67, 0
1, 2832, Note_on_c, 1, 69, 127
1, 2832, Note_on_c, 1, 65, 127
1, 2832, Note_on_c, 1, 60, 127
1, 2832, Note_on_c, 1, 40, 127
1, 2832, Note_on_c, 1, 28, 127
1, 2856, Note_on_c, 1, 70, 127
1, 2874, Note_off_c, 1, 69, 0
1, 2874, Note_off_c, 1, 65, 0
1, 2874, Note_off_c, 1, 60, 0
1, 2874, Note_off_c, 1, 40, 0
1, 2874, Note_off_c, 1, 28, 0
1, 2877, Note_off_c, 1, 70, 0
1, 2880, Note_on_c, 1, 69, 127
1, 2880, Note_on_c, 1, 65, 127
1, 2880, Note_on_c, 1, 48, 127
1, 2880, Note_on_c, 1, 36, 127
1, 2904, Note_on_c, 1, 67, 127
1, 2922, Note_off_c, 1, 69, 0
1, 2922, Note_off_c, 1, 65, 0
1, 2922, Note_off_c, 1, 48, 0
1, 2922, Note_off_c, 1, 36, 0
1, 2925, Note_off_c, 1, 67, 0
1, 2928, Note_on_c, 1, 69, 127
1, 2928, Note_on_c, 1, 65, 127
1, 2928, Note_on_c, 1, 53, 127
1, 2928, Note_on_c, 1, 41, 127
1, 2928, Note_on_c, 1, 72, 127
1, 2970, Note_off_c, 1, 69, 0
1, 2970, Note_off_c, 1, 53, 0
1, 2970, Note_off_c, 1, 41, 0
1, 2970, Note_off_c, 1, 72, 0
1, 2973, Note_off_c, 1, 65, 0
1, 2976, Note_on_c, 1, 69, 127
1, 2976, Note_on_c, 1, 65, 127
1, 2976, Note_on_c, 1, 77, 127
1, 2976, Note_on_c, 1, 62, 127
1, 2976, Note_on_c, 1, 38, 127
1, 2976, Note_on_c, 1, 26, 127
1, 3000, Note_on_c, 1, 70, 127
1, 3000, Note_on_c, 1, 67, 127
1, 3018, Note_off_c, 1, 69, 0
1, 3018, Note_off_c, 1, 65, 0
1, 3018, Note_off_c, 1, 77, 0
1, 3018, Note_off_c, 1, 62, 0
1, 3018, Note_off_c, 1, 38, 0
1, 3018, Note_off_c, 1, 26, 0
1, 3021, Note_off_c, 1, 70, 0
1, 3021, Note_off_c, 1, 67, 0
1, 3024, Note_on_c, 1, 69, 127
1, 3024, Note_on_c, 1, 65, 127
1, 3024, Note_on_c, 1, 62, 127
1, 3024, Note_on_c, 1, 50, 127
1, 3024, Note_on_c, 1, 38, 127
1, 3024, Note_on_c, 1, 77, 127
1, 3048, Note_on_c, 1, 70, 127
1, 3048, Note_on_c, 1, 67, 127
1, 3066, Note_off_c, 1, 69, 0
1, 3066, Note_off_c, 1, 65, 0
1, 3066, Note_off_c, 1, 62, 0
1, 3066, Note_off_c, 1, 50, 0
1, 3066, Note_off_c, 1, 38, 0
1, 3066, Note_off_c, 1, 77, 0
1, 3069, Note_off_c, 1, 70, 0
1, 3069, Note_off_c, 1, 67, 0
1, 3072, Note_on_c, 1, 72, 127
1, 3072, Note_on_c, 1, 69, 127
1, 3072, Note_on_c, 1, 65, 127
1, 3072, Note_on_c, 1, 62, 127
1, 3072, Note_on_c, 1, 45, 127
1, 3072, Note_on_c, 1, 33, 127
1, 3072, Note_on_c, 1, 74, 127
1, 3093, Note_off_c, 1, 72, 0
1, 3096, Note_on_c, 1, 70, 127
1, 3096, Note_on_c, 1, 67, 127
1, 3114, Note_off_c, 1, 69, 0
1, 3114, Note_off_c, 1, 65, 0
1, 3114, Note_off_c, 1, 62, 0
1, 3114, Note_off_c, 1, 45, 0
1, 3114, Note_off_c, 1, 33, 0
1, 3114, Note_off_c, 1, 74, 0
1, 3117, Note_off_c, 1, 70, 0
1, 3117, Note_off_c, 1, 67, 0
1, 3120, Note_on_c, 1, 69, 127
1, 3120, Note_on_c, 1, 65, 127
1, 3120, Note_on_c, 1, 62, 127
1, 3120, Note_on_c, 1, 46, 127
1, 3120, Note_on_c, 1, 34, 127
1, 3120, Note_on_c, 1, 67, 127
1, 3120, Note_on_c, 1, 74, 127
1, 3162, Note_off_c, 1, 69, 0
1, 3162, Note_off_c, 1, 65, 0
1, 3162, Note_off_c, 1, 62, 0
1, 3162, Note_off_c, 1, 46, 0
1, 3162, Note_off_c, 1, 34, 0
1, 3162, Note_off_c, 1, 67, 0
1, 3162, Note_off_c, 1, 74, 0
1, 3168, Note_on_c, 1, 67, 127
1, 3168, Note_on_c, 1, 65, 127
1, 3168, Note_on_c, 1, 70, 127
1, 3168, Note_on_c, 1, 62, 127
1, 3168, Note_on_c, 1, 50, 127
1, 3168, Note_on_c, 1, 38, 127
1, 3168, Note_on_c, 1, 79, 127
1, 3192, Note_on_c, 1, 69, 127
1, 3210, Note_off_c, 1, 67, 0
1, 3210, Note_off_c, 1, 65, 0
1, 3210, Note_off_c, 1, 70, 0
1, 3210, Note_off_c, 1, 62, 0
1, 3210, Note_off_c, 1, 50, 0
1, 3210, Note_off_c, 1, 38, 0
1, 3210, Note_off_c, 1, 79, 0
1, 3213, Note_off_c, 1, 69, 0
1, 3216, Note_on_c, 1, 70, 127
1, 3216, Note_on_c, 1, 65, 127
1, 3216, Note_on_c, 1, 67, 127
1, 3216, Note_on_c, 1, 62, 127
1, 3216, Note_on_c, 1, 43, 127
1, 3216, Note_on_c, 1, 31, 127
1, 3216, Note_on_c, 1, 58, 127
1, 3237, Note_off_c, 1, 67, 0
1, 3240, Note_on_c, 1, 69, 127
1, 3258, Note_off_c, 1, 70, 0
1, 3258, Note_off_c, 1, 62, 0
1, 3258, Note_off_c, 1, 43, 0
1, 3258, Note_off_c, 1, 31, 0
1, 3258, Note_off_c, 1, 58, 0
1, 3261, Note_off_c, 1, 65, 0
1, 3261, Note_off_c, 1, 69, 0
1, 3264, Note_on_c, 1, 67, 127
1, 3264, Note_on_c, 1, 60, 127
1, 3264, Note_on_c, 1, 64, 127
1, 3264, Note_on_c, 1, 48, 127
1, 3264, Note_on_c, 1, 36, 127
1, 3264, Note_on_c, 1, 76, 127
1, 3288, Note_on_c, 1, 62, 127
1, 3306, Note_off_c, 1, 67, 0
1, 3306, Note_off_c, 1, 60, 0
1, 3306, Note_off_c, 1, 64, 0
1, 3306, Note_off_c, 1, 48, 0
1, 3306, Note_off_c, 1, 36, 0
1, 3306, Note_off_c, 1, 76, 0
1, 3309, Note_off_c, 1, 62, 0
1, 3312, Note_on_c, 1, 60, 127
1, 3312, Note_on_c, 1, 64, 127
1, 3312, Note_on_c, 1, 67, 127
1, 3312, Note_on_c, 1, 52, 127
1, 3312, Note_on_c, 1, 40, 127
1, 3312, Note_on_c, 1, 72, 127
1, 3333, Note_off_c, 1, 64, 0
1, 3354, Note_off_c, 1, 67, 0
1, 3354, Note_off_c, 1, 52, 0
1, 3354, Note_off_c, 1, 40, 0
1, 3354, Note_off_c, 1, 72, 0
1, 3357, Note_off_c, 1, 60, 0
1, 3360, Note_on_c, 1, 60, 127
1, 3360, Note_on_c, 1, 67, 127
1, 3360, Note_on_c, 1, 64, 127
1, 3360, Note_on_c, 1, 55, 127
1, 3360, Note_on_c, 1, 43, 127
1, 3360, Note_on_c, 1, 72, 127
1, 3381, Note_off_c, 1, 60, 0
1, 3381, Note_off_c, 1, 67, 0
1, 3384, Note_on_c, 1, 65, 127
1, 3384, Note_on_c, 1, 62, 127
1, 3402, Note_off_c, 1, 64, 0
1, 3402, Note_off_c, 1, 55, 0
1, 3402, Note_off_c, 1, 43, 0
1, 3402, Note_off_c, 1, 72, 0
1, 3405, Note_off_c, 1, 65, 0
1, 3405, Note_off_c, 1, 62, 0
1, 3408, Note_on_c, 1, 60, 127
1, 3408, Note_on_c, 1, 67, 127
1, 3408, Note_on_c, 1, 64, 127
1, 3408, Note_on_c, 1, 48, 127
1, 3408, Note_on_c, 1, 36, 127
1, 3408, Note_on_c, 1, 76, 127
1, 3429, Note_off_c, 1, 64, 0
1, 3450, Note_off_c, 1, 67, 0
1, 3450, Note_off_c, 1, 48, 0
1, 3450, Note_off_c, 1, 36, 0
1, 3450, Note_off_c, 1, 76, 0
1, 3453, Note_off_c, 1, 60, 0
1, 3456, Note_on_c, 1, 60, 127
1, 3456, Note_on_c, 1, 70, 127
1, 3456, Note_on_c, 1, 67, 127
1, 3456, Note_on_c, 1, 52, 127
1, 3456, Note_on_c, 1, 40, 127
1, 3456, Note_on_c, 1, 72, 127
1, 3477, Note_off_c, 1, 70, 0
1, 3480, Note_on_c, 1, 69, 127
1, 3480, Note_on_c, 1, 65, 127
1, 3498, Note_off_c, 1, 67, 0
1, 3498, Note_off_c, 1, 52, 0
1, 3498, Note_off_c, 1, 40, 0
1, 3498, Note_off_c, 1, 72, 0
1, 3501, Note_off_c, 1, 60, 0
1, 3501, Note_off_c, 1, 69, 0
1, 3501, Note_off_c, 1, 65, 0
1, 3504, Note_on_c, 1, 60, 127
1, 3504, Note_on_c, 1, 70, 127
1, 3504, Note_on_c, 1, 67, 127
1, 3504, Note_on_c, 1, 64, 127
1, 3504, Note_on_c, 1, 55, 127
1, 3504, Note_on_c, 1, 43, 127
1, 3504, Note_on_c, 1, 72, 127
1, 3525, Note_off_c, 1, 60, 0
1, 3525, Note_off_c, 1, 70, 0
1, 3525, Note_off_c, 1, 67, 0
1, 3546, Note_off_c, 1, 55, 0
1, 3546, Note_off_c, 1, 43, 0
1, 3546, Note_off_c, 1, 72, 0
1, 3549, Note_off_c, 1, 64, 0
1, 3552, Note_on_c, 1, 70, 127
1, 3552, Note_on_c, 1, 60, 127
1, 3552, Note_on_c, 1, 76, 127
1, 3552, Note_on_c, 1, 67, 127
1, 3552, Note_on_c, 1, 48, 127
1, 3552, Note_on_c, 1, 36, 127
1, 3576, Note_on_c, 1, 74, 127
1, 3576, Note_on_c, 1, 69, 127
1, 3576, Note_on_c, 1, 65, 127
1, 3594, Note_off_c, 1, 70, 0
1, 3594, Note_off_c, 1, 60, 0
1, 3594, Note_off_c, 1, 76, 0
1, 3594, Note_off_c, 1, 67, 0
1, 3594, Note_off_c, 1, 48, 0
1, 3594, Note_off_c, 1, 36, 0
1, 3597, Note_off_c, 1, 74, 0
1, 3597, Note_off_c, 1, 69, 0
1, 3597, Note_off_c, 1, 65, 0
1, 3600, Note_on_c, 1, 60, 127
1, 3600, Note_on_c, 1, 76, 127
1, 3600, Note_on_c, 1, 70, 127
1, 3600, Note_on_c, 1, 67, 127
1, 3600, Note_on_c, 1, 52, 127
1, 3600, Note_on_c, 1, 40, 127
1, 3600, Note_on_c, 1, 72, 127
1, 3621, Note_off_c, 1, 60, 0
1, 3621, Note_off_c, 1, 76, 0
1, 3621, Note_off_c, 1, 70, 0
1, 3624, Note_on_c, 1, 64, 127
1, 3642, Note_off_c, 1, 52, 0
1, 3642, Note_off_c, 1, 40, 0
1, 3645, Note_off_c, 1, 67, 0
1, 3645, Note_off_c, 1, 72, 0
1, 3645, Note_off_c, 1, 64, 0
1, 3648, Note_on_c, 1, 60, 127
1, 3648, Note_on_c, 1, 79, 127
1, 3648, Note_on_c, 1, 76, 127
1, 3648, Note_on_c, 1, 70, 127
1, 3648, Note_on_c, 1, 55, 127
1, 3648, Note_on_c, 1, 43, 127
1, 3648, Note_on_c, 1, 64, 127
1, 3648, Note_on_c, 1, 72, 127
1, 3669, Note_off_c, 1, 60, 0
1, 3669, Note_off_c, 1, 79, 0
1, 3669, Note_off_c, 1, 76, 0
1, 3669, Note_off_c, 1, 70, 0
1, 3672, Note_on_c, 1, 77, 127
1, 3672, Note_on_c, 1, 74, 127
1, 3672, Note_on_c, 1, 69, 127
1, 3690, Note_off_c, 1, 55, 0
1, 3690, Note_off_c, 1, 43, 0
1, 3690, Note_off_c, 1, 64, 0
1, 3690, Note_off_c, 1, 72, 0
1, 3693, Note_off_c, 1, 77, 0
1, 3693, Note_off_c, 1, 74, 0
1, 3693, Note_off_c, 1, 69, 0
1, 3696, Note_on_c, 1, 60, 127
1, 3696, Note_on_c, 1, 70, 127
1, 3696, Note_on_c, 1, 79, 127
1, 3696, Note_on_c, 1, 76, 127
1, 3696, Note_on_c, 1, 48, 127
1, 3696, Note_on_c, 1, 36, 127
1, 3696, Note_on_c, 1, 67, 127
1, 3717, Note_off_c, 1, 79, 0
1, 3720, Note_on_c, 1, 72, 127
1, 3738, Note_off_c, 1, 60, 0
1, 3738, Note_off_c, 1, 70, 0
1, 3738, Note_off_c, 1, 48, 0
1, 3738, Note_off_c, 1, 36, 0
1, 3741, Note_off_c, 1, 76, 0
1, 3741, Note_off_c, 1, 67, 0
1, 3741, Note_off_c, 1, 72, 0
1, 3744, Note_on_c, 1, 60, 127
1, 3744, Note_on_c, 1, 82, 127
1, 3744, Note_on_c, 1, 79, 127
1, 3744, Note_on_c, 1, 76, 127
1, 3744, Note_on_c, 1, 52, 127
1, 3744, Note_on_c, 1, 40, 127
1, 3744, Note_on_c, 1, 67, 127
1, 3744, Note_on_c, 1, 72, 127
1, 3765, Note_off_c, 1, 60, 0
1, 3765, Note_off_c, 1, 82, 0
1, 3765, Note_off_c, 1, 79, 0
1, 3768, Note_on_c, 1, 81, 127
1, 3768, Note_on_c, 1, 77, 127
1, 3786, Note_off_c, 1, 76, 0
1, 3786, Note_off_c, 1, 52, 0
1, 3786, Note_off_c, 1, 40, 0
1, 3786, Note_off_c, 1, 67, 0
1, 3786, Note_off_c, 1, 72, 0
1, 3789, Note_off_c, 1, 81, 0
1, 3789, Note_off_c, 1, 77, 0
1, 3792, Note_on_c, 1, 60, 127
1, 3792, Note_on_c, 1, 82, 127
1, 3792, Note_on_c, 1, 79, 127
1, 3792, Note_on_c, 1, 76, 127
1, 3792, Note_on_c, 1, 48, 127
1, 3792, Note_on_c, 1, 36, 127
1, 3792, Note_on_c, 1, 67, 127
1, 3813, Note_off_c, 1, 60, 0
1, 3813, Note_off_c, 1, 82, 0
1, 3813, Note_off_c, 1, 79, 0
1, 3834, Note_off_c, 1, 48, 0
1, 3834, Note_off_c, 1, 36, 0
1, 3834, Note_off_c, 1, 67, 0
1, 3837, Note_off_c, 1, 76, 0
1, 3840, Note_on_c, 1, 69, 127
1, 3840, Note_on_c, 1, 65, 127
1, 3840, Note_on_c, 1, 81, 127
1, 3840, Note_on_c, 1, 77, 127
1, 3840, Note_on_c, 1, 72, 127
1, 3840, Note_on_c, 1, 53, 127
1, 3840, Note_on_c, 1, 41, 127
1, 3840, Note_on_c, 1, 60, 127
1, 3861, Note_off_c, 1, 65, 0
1, 3861, Note_off_c, 1, 81, 0
1, 3861, Note_off_c, 1, 53, 0
1, 3861, Note_off_c, 1, 41, 0
1, 3864, Note_on_c, 1, 70, 127
1, 3864, Note_on_c, 1, 67, 127
1, 3864, Note_on_c, 1, 79, 127
1, 3864, Note_on_c, 1, 52, 127
1, 3864, Note_on_c, 1, 40, 127
1, 3882, Note_off_c, 1, 69, 0
1, 3882, Note_off_c, 1, 77, 0
1, 3882, Note_off_c, 1, 72, 0
1, 3882, Note_off_c, 1, 60, 0
1, 3885, Note_off_c, 1, 70, 0
1, 3885, Note_off_c, 1, 67, 0
1, 3885, Note_off_c, 1, 79, 0
1, 3885, Note_off_c, 1, 52, 0
1, 3885, Note_off_c, 1, 40, 0
1, 3888, Note_on_c, 1, 69, 127
1, 3888, Note_on_c, 1, 65, 127
1, 3888, Note_on_c, 1, 81, 127
1, 3888, Note_on_c, 1, 72, 127
1, 3888, Note_on_c, 1, 53, 127
1, 3888, Note_on_c, 1, 41, 127
1, 3888, Note_on_c, 1, 60, 127
1, 3909, Note_off_c, 1, 65, 0
1, 3909, Note_off_c, 1, 81, 0
1, 3909, Note_off_c, 1, 53, 0
1, 3909, Note_off_c, 1, 41, 0
1, 3912, Note_on_c, 1, 70, 127
1, 3912, Note_on_c, 1, 67, 127
1, 3912, Note_on_c, 1, 76, 127
1, 3912, Note_on_c, 1, 52, 127
1, 3912, Note_on_c, 1, 40, 127
1, 3930, Note_off_c, 1, 69, 0
1, 3930, Note_off_c, 1, 72, 0
1, 3930, Note_off_c, 1, 60, 0
1, 3933, Note_off_c, 1, 70, 0
1, 3933, Note_off_c, 1, 67, 0
1, 3933, Note_off_c, 1, 76, 0
1, 3933, Note_off_c, 1, 52, 0
1, 3933, Note_off_c, 1, 40, 0
1, 3936, Note_on_c, 1, 72, 127
1, 3936, Note_on_c, 1, 69, 127
1, 3936, Note_on_c, 1, 77, 127
1, 3936, Note_on_c, 1, 74, 127
1, 3936, Note_on_c, 1, 50, 127
1, 3936, Note_on_c, 1, 38, 127
1, 3936, Note_on_c, 1, 65, 127
1, 3957, Note_off_c, 1, 72, 0
1, 3957, Note_off_c, 1, 77, 0
1, 3960, Note_on_c, 1, 70, 127
1, 3960, Note_on_c, 1, 67, 127
1, 3960, Note_on_c, 1, 76, 127
1, 3978, Note_off_c, 1, 65, 0
1, 3981, Note_off_c, 1, 70, 0
1, 3981, Note_off_c, 1, 67, 0
1, 3981, Note_off_c, 1, 76, 0
1, 3984, Note_on_c, 1, 57, 127
1, 4005, Note_off_c, 1, 74, 0
1, 4005, Note_off_c, 1, 50, 0
1, 4005, Note_off_c, 1, 38, 0
1, 4008, Note_on_c, 1, 79, 127
1, 4008, Note_on_c, 1, 46, 127
1, 4008, Note_on_c, 1, 34, 127
1, 4026, Note_off_c, 1, 69, 0
1, 4026, Note_off_c, 1, 57, 0
1, 4029, Note_off_c, 1, 79, 0
1, 4029, Note_off_c, 1, 46, 0
1, 4029, Note_off_c, 1, 34, 0
1, 4032, Note_on_c, 1, 67, 127
1, 4032, Note_on_c, 1, 60, 127
1, 4032, Note_on_c, 1, 79, 127
1, 4032, Note_on_c, 1, 76, 127
1, 4032, Note_on_c, 1, 72, 127
1, 4032, Note_on_c, 1, 48, 127
1, 4032, Note_on_c, 1, 36, 127
1, 4032, Note_on_c, 1, 64, 127
1, 4053, Note_off_c, 1, 60, 0
1, 4056, Note_on_c, 1, 65, 127
1, 4074, Note_off_c, 1, 67, 0
1, 4074, Note_off_c, 1, 72, 0
1, 4074, Note_off_c, 1, 48, 0
1, 4074, Note_off_c, 1, 36, 0
1, 4074, Note_off_c, 1, 64, 0
1, 4077, Note_off_c, 1, 65, 0
1, 4080, Note_on_c, 1, 70, 127
1, 4080, Note_on_c, 1, 24, 127
1, 4095, Note_off_c, 1, 79, 0
1, 4104, Note_on_c, 1, 69, 127
1, 4104, Note_on_c, 1, 77, 127
1, 4122, Note_off_c, 1, 76, 0
1, 4122, Note_off_c, 1, 70, 0
1, 4122, Note_off_c, 1, 24, 0
1, 4125, Note_off_c, 1, 69, 0
1, 4125, Note_off_c, 1, 77, 0
1, 4128, Note_on_c, 1, 65, 127
1, 4128, Note_on_c, 1, 57, 127
1, 4128, Note_on_c, 1, 77, 127
1, 4128, Note_on_c, 1, 69, 127
1, 4128, Note_on_c, 1, 41, 127
1, 4128, Note_on_c, 1, 29, 127
1, 4128, Note_on_c, 1, 60, 127
1, 4149, Note_off_c, 1, 65, 0
1, 4152, Note_on_c, 1, 67, 127
1, 4152, Note_on_c, 1, 76, 127
1, 4170, Note_off_c, 1, 57, 0
1, 4170, Note_off_c, 1, 77, 0
1, 4170, Note_off_c, 1, 69, 0
1, 4170, Note_off_c, 1, 41, 0
1, 4170, Note_off_c, 1, 29, 0
1, 4170, Note_off_c, 1, 60, 0
1, 4173, Note_off_c, 1, 67, 0
1, 4173, Note_off_c, 1, 76, 0
1, 4176, Note_on_c, 1, 65, 127
1, 4176, Note_on_c, 1, 57, 127
1, 4176, Note_on_c, 1, 77, 127
1, 4176, Note_on_c, 1, 72, 127
1, 4176, Note_on_c, 1, 45, 127
1, 4176, Note_on_c, 1, 33, 127
1, 4197, Note_off_c, 1, 57, 0
1, 4197, Note_off_c, 1, 77, 0
1, 4200, Note_on_c, 1, 67, 127
1, 4218, Note_off_c, 1, 65, 0
1, 4218, Note_off_c, 1, 45, 0
1, 4218, Note_off_c, 1, 33, 0
1, 4221, Note_off_c, 1, 72, 0
1, 4221, Note_off_c, 1, 67, 0
1, 4224, Note_on_c, 1, 69, 127
1, 4224, Note_on_c, 1, 57, 127
1, 4224, Note_on_c, 1, 74, 127
1, 4224, Note_on_c, 1, 65, 127
1, 4224, Note_on_c, 1, 41, 127
1, 4224, Note_on_c, 1, 29, 127
1, 4224, Note_on_c, 1, 60, 127
1, 4245, Note_off_c, 1, 57, 0
1, 4245, Note_off_c, 1, 74, 0
1, 4248, Note_on_c, 1, 67, 127
1, 4248, Note_on_c, 1, 72, 127
1, 4266, Note_off_c, 1, 69, 0
1, 4266, Note_off_c, 1, 65, 0
1, 4266, Note_off_c, 1, 41, 0
1, 4266, Note_off_c, 1, 29, 0
1, 4266, Note_off_c, 1, 60, 0
1, 4269, Note_off_c, 1, 67, 0
1, 4269, Note_off_c, 1, 72, 0
1, 4272, Note_on_c, 1, 65, 127
1, 4272, Note_on_c, 1, 57, 127
1, 4272, Note_on_c, 1, 74, 127
1, 4272, Note_on_c, 1, 69, 127
1, 4272, Note_on_c, 1, 38, 127
1, 4272, Note_on_c, 1, 26, 127
1, 4293, Note_off_c, 1, 74, 0
1, 4314, Note_off_c, 1, 65, 0
1, 4314, Note_off_c, 1, 57, 0
1, 4314, Note_off_c, 1, 38, 0
1, 4314, Note_off_c, 1, 26, 0
1, 4317, Note_off_c, 1, 69, 0
1, 4320, Note_on_c, 1, 70, 127
1, 4320, Note_on_c, 1, 67, 127
1, 4320, Note_on_c, 1, 62, 127
1, 4320, Note_on_c, 1, 43, 127
1, 4320, Note_on_c, 1, 31, 127
1, 4344, Note_on_c, 1, 69, 127
1, 4362, Note_off_c, 1, 70, 0
1, 4362, Note_off_c, 1, 67, 0
1, 4362, Note_off_c, 1, 62, 0
1, 4362, Note_off_c, 1, 43, 0
1, 4362, Note_off_c, 1, 31, 0
1, 4365, Note_off_c, 1, 69, 0
1, 4368, Note_on_c, 1, 70, 127
1, 4368, Note_on_c, 1, 64, 127
1, 4368, Note_on_c, 1, 60, 127
1, 4368, Note_on_c, 1, 36, 127
1, 4368, Note_on_c, 1, 24, 127
1, 4368, Note_on_c, 1, 67, 127
1, 4389, Note_off_c, 1, 70, 0
1, 4410, Note_off_c, 1, 64, 0
1, 4410, Note_off_c, 1, 60, 0
1, 4410, Note_off_c, 1, 36, 0
1, 4410, Note_off_c, 1, 24, 0
1, 4413, Note_off_c, 1, 67, 0
1, 4416, Note_on_c, 1, 65, 127
1, 4416, Note_on_c, 1, 57, 127
1, 4416, Note_on_c, 1, 69, 127
1, 4416, Note_on_c, 1, 60, 127
1, 4416, Note_on_c, 1, 41, 127
1, 4416, Note_on_c, 1, 29, 127
1, 4440, Note_on_c, 1, 67, 127
1, 4458, Note_off_c, 1, 57, 0
1, 4458, Note_off_c, 1, 69, 0
1, 4458, Note_off_c, 1, 41, 0
1, 4458, Note_off_c, 1, 29, 0
1, 4461, Note_off_c, 1, 67, 0
1, 4464, Note_on_c, 1, 45, 127
1, 4464, Note_on_c, 1, 33, 127
1, 4464, Note_on_c, 1, 64, 127
1, 4464, Note_on_c, 1, 72, 127
1, 4479, Note_off_c, 1, 60, 0
1, 4485, Note_off_c, 1, 65, 0
1, 4488, Note_on_c, 1, 58, 127
1, 4506, Note_off_c, 1, 45, 0
1, 4506, Note_off_c, 1, 33, 0
1, 4506, Note_off_c, 1, 72, 0
1, 4509, Note_off_c, 1, 64, 0
1, 4509, Note_off_c, 1, 58, 0
1, 4512, Note_on_c, 1, 69, 127
1, 4512, Note_on_c, 1, 57, 127
1, 4512, Note_on_c, 1, 65, 127
1, 4512, Note_on_c, 1, 62, 127
1, 4512, Note_on_c, 1, 50, 127
1, 4512, Note_on_c, 1, 38, 127
1, 4536, Note_on_c, 1, 67, 127
1, 4536, Note_on_c, 1, 64, 127
1, 4554, Note_off_c, 1, 69, 0
1, 4554, Note_off_c, 1, 65, 0
1, 4557, Note_off_c, 1, 67, 0
1, 4557, Note_off_c, 1, 64, 0
1, 4581, Note_off_c, 1, 62, 0
1, 4581, Note_off_c, 1, 50, 0
1, 4581, Note_off_c, 1, 38, 0
1, 4584, Note_on_c, 1, 46, 127
1, 4584, Note_on_c, 1, 34, 127
1, 4602, Note_off_c, 1, 57, 0
1, 4605, Note_off_c, 1, 46, 0
1, 4605, Note_off_c, 1, 34, 0
1, 4608, Note_on_c, 1, 60, 127
1, 4608, Note_on_c, 1, 57, 127
1, 4608, Note_on_c, 1, 67, 127
1, 4608, Note_on_c, 1, 64, 127
1, 4608, Note_on_c, 1, 48, 127
1, 4608, Note_on_c, 1, 36, 127
1, 4608, Note_on_c, 1, 76, 127
1, 4629, Note_off_c, 1, 57, 0
1, 4650, Note_off_c, 1, 48, 0
1, 4650, Note_off_c, 1, 36, 0
1, 4650, Note_off_c, 1, 76, 0
1, 4656, Note_on_c, 1, 24, 127
1, 4671, Note_off_c, 1, 64, 0
1, 4677, Note_off_c, 1, 60, 0
1, 4680, Note_on_c, 1, 65, 127
1, 4698, Note_off_c, 1, 67, 0
1, 4698, Note_off_c, 1, 24, 0
1, 4701, Note_off_c, 1, 65, 0
1, 4704, Note_on_c, 1, 57, 127
1, 4704, Note_on_c, 1, 53, 127
1, 4704, Note_on_c, 1, 65, 127
1, 4704, Note_on_c, 1, 60, 127
1, 4704, Note_on_c, 1, 41, 127
1, 4704, Note_on_c, 1, 29, 127
1, 4704, Note_on_c, 1, 69, 127
1, 4704, Note_on_c, 1, 72, 127
1, 4725, Note_off_c, 1, 29, 0
1, 4728, Note_on_c, 1, 43, 127
1, 4728, Note_on_c, 1, 31, 127
1, 4746, Note_off_c, 1, 57, 0
1, 4746, Note_off_c, 1, 53, 0
1, 4746, Note_off_c, 1, 65, 0
1, 4746, Note_off_c, 1, 60, 0
1, 4746, Note_off_c, 1, 41, 0
1, 4746, Note_off_c, 1, 69, 0
1, 4746, Note_off_c, 1, 72, 0
1, 4749, Note_off_c, 1, 43, 0
1, 4749, Note_off_c, 1, 31, 0
1, 4752, Note_on_c, 1, 57, 127
1, 4752, Note_on_c, 1, 53, 127
1, 4752, Note_on_c, 1, 65, 127
1, 4752, Note_on_c, 1, 45, 127
1, 4752, Note_on_c, 1, 33, 127
1, 4752, Note_on_c, 1, 72, 127
1, 4773, Note_off_c, 1, 57, 0
1, 4773, Note_off_c, 1, 53, 0
1, 4773, Note_off_c, 1, 45, 0
1, 4773, Note_off_c, 1, 33, 0
1, 4776, Note_on_c, 1, 43, 127
1, 4776, Note_on_c, 1, 31, 127
1, 4794, Note_off_c, 1, 65, 0
1, 4794, Note_off_c, 1, 72, 0
1, 4797, Note_off_c, 1, 43, 0
1, 4797, Note_off_c, 1, 31, 0
1, 4800, Note_on_c, 1, 57, 127
1, 4800, Note_on_c, 1, 53, 127
1, 4800, Note_on_c, 1, 65, 127
1, 4800, Note_on_c, 1, 45, 127
1, 4800, Note_on_c, 1, 33, 127
1, 4800, Note_on_c, 1, 72, 127
1, 4821, Note_off_c, 1, 57, 0
1, 4821, Note_off_c, 1, 53, 0
1, 4821, Note_off_c, 1, 45, 0
1, 4821, Note_off_c, 1, 33, 0
1, 4824, Note_on_c, 1, 41, 127
1, 4824, Note_on_c, 1, 29, 127
1, 4842, Note_off_c, 1, 65, 0
1, 4842, Note_off_c, 1, 72, 0
1, 4845, Note_off_c, 1, 41, 0
1, 4845, Note_off_c, 1, 29, 0
1, 4848, Note_on_c, 1, 57, 127
1, 4848, Note_on_c, 1, 53, 127
1, 4848, Note_on_c, 1, 65, 127
1, 4848, Note_on_c, 1, 41, 127
1, 4848, Note_on_c, 1, 77, 127
1, 4890, Note_off_c, 1, 65, 0
1, 4890, Note_off_c, 1, 41, 0
1, 4890, Note_off_c, 1, 77, 0
1, 4896, Note_on_c, 1, 69, 127
1, 4896, Note_on_c, 1, 52, 127
1, 4896, Note_on_c, 1, 40, 127
1, 4896, Note_on_c, 1, 76, 127
1, 4917, Note_off_c, 1, 69, 0
1, 4920, Note_on_c, 1, 67, 127
1, 4932, Note_off_c, 1, 57, 0
1, 4932, Note_off_c, 1, 53, 0
1, 4938, Note_off_c, 1, 52, 0
1, 4938, Note_off_c, 1, 40, 0
1, 4938, Note_off_c, 1, 76, 0
1, 4941, Note_off_c, 1, 67, 0
1, 4944, Note_on_c, 1, 69, 127
1, 4944, Note_on_c, 1, 50, 127
1, 4944, Note_on_c, 1, 38, 127
1, 4944, Note_on_c, 1, 74, 127
1, 4965, Note_off_c, 1, 69, 0
1, 4968, Note_on_c, 1, 65, 127
1, 4986, Note_off_c, 1, 50, 0
1, 4986, Note_off_c, 1, 38, 0
1, 4986, Note_off_c, 1, 74, 0
1, 4989, Note_off_c, 1, 65, 0
1, 4992, Note_on_c, 1, 72, 127
1, 4992, Note_on_c, 1, 48, 127
1, 4992, Note_on_c, 1, 36, 127
1, 5013, Note_off_c, 1, 48, 0
1, 5013, Note_off_c, 1, 36, 0
1, 5016, Note_on_c, 1, 50, 127
1, 5016, Note_on_c, 1, 38, 127
1, 5016, Note_on_c, 1, 74, 127
1, 5034, Note_off_c, 1, 72, 0
1, 5037, Note_off_c, 1, 50, 0
1, 5037, Note_off_c, 1, 38, 0
1, 5037, Note_off_c, 1, 74, 0
1, 5040, Note_on_c, 1, 72, 127
1, 5040, Note_on_c, 1, 52, 127
1, 5040, Note_on_c, 1, 40, 127
1, 5040, Note_on_c, 1, 76, 127
1, 5061, Note_off_c, 1, 52, 0
1, 5061, Note_off_c, 1, 40, 0
1, 5061, Note_off_c, 1, 76, 0
1, 5064, Note_on_c, 1, 50, 127
1, 5064, Note_on_c, 1, 38, 127
1, 5064, Note_on_c, 1, 74, 127
1, 5082, Note_off_c, 1, 72, 0
1, 5085, Note_off_c, 1, 50, 0
1, 5085, Note_off_c, 1, 38, 0
1, 5085, Note_off_c, 1, 74, 0
1, 5088, Note_on_c, 1, 72, 127
1, 5088, Note_on_c, 1, 52, 127
1, 5088, Note_on_c, 1, 40, 127
1, 5088, Note_on_c, 1, 76, 127
1, 5109, Note_off_c, 1, 52, 0
1, 5109, Note_off_c, 1, 40, 0
1, 5109, Note_off_c, 1, 76, 0
1, 5112, Note_on_c, 1, 48, 127
1, 5112, Note_on_c, 1, 36, 127
1, 5133, Note_off_c, 1, 72, 0
1, 5133, Note_off_c, 1, 48, 0
1, 5133, Note_off_c, 1, 36, 0
1, 5136, Note_on_c, 1, 72, 127
1, 5136, Note_on_c, 1, 58, 127
1, 5136, Note_on_c, 1, 46, 127
1, 5136, Note_on_c, 1, 82, 127
1, 5178, Note_off_c, 1, 72, 0
1, 5178, Note_off_c, 1, 58, 0
1, 5178, Note_off_c, 1, 46, 0
1, 5178, Note_off_c, 1, 82, 0
1, 5184, Note_on_c, 1, 76, 127
1, 5184, Note_on_c, 1, 57, 127
1, 5184, Note_on_c, 1, 45, 127
1, 5184, Note_on_c, 1, 81, 127
1, 5205, Note_off_c, 1, 76, 0
1, 5208, Note_on_c, 1, 74, 127
1, 5226, Note_off_c, 1, 57, 0
1, 5226, Note_off_c, 1, 45, 0
1, 5226, Note_off_c, 1, 81, 0
1, 5229, Note_off_c, 1, 74, 0
1, 5232, Note_on_c, 1, 76, 127
1, 5232, Note_on_c, 1, 55, 127
1, 5232, Note_on_c, 1, 43, 127
1, 5232, Note_on_c, 1, 79, 127
1, 5253, Note_off_c, 1, 76, 0
1, 5256, Note_on_c, 1, 72, 127
1, 5274, Note_off_c, 1, 55, 0
1, 5274, Note_off_c, 1, 43, 0
1, 5274, Note_off_c, 1, 79, 0
1, 5277, Note_off_c, 1, 72, 0
1, 5280, Note_on_c, 1, 77, 127
1, 5280, Note_on_c, 1, 60, 127
1, 5280, Note_on_c, 1, 69, 127
1, 5280, Note_on_c, 1, 57, 127
1, 5280, Note_on_c, 1, 45, 127
1, 5280, Note_on_c, 1, 81, 127
1, 5322, Note_off_c, 1, 77, 0
1, 5322, Note_off_c, 1, 60, 0
1, 5322, Note_off_c, 1, 69, 0
1, 5322, Note_off_c, 1, 57, 0
1, 5322, Note_off_c, 1, 45, 0
1, 5322, Note_off_c, 1, 81, 0
1, 5328, Note_on_c, 1, 76, 127
1, 5328, Note_on_c, 1, 50, 127
1, 5328, Note_on_c, 1, 38, 127
1, 5328, Note_on_c, 1, 74, 127
1, 5349, Note_off_c, 1, 76, 0
1, 5370, Note_off_c, 1, 50, 0
1, 5370, Note_off_c, 1, 38, 0
1, 5373, Note_off_c, 1, 74, 0
1, 5376, Note_on_c, 1, 72, 127
1, 5376, Note_on_c, 1, 52, 127
1, 5376, Note_on_c, 1, 40, 127
1, 5376, Note_on_c, 1, 76, 127
1, 5397, Note_off_c, 1, 72, 0
1, 5400, Note_on_c, 1, 70, 127
1, 5418, Note_off_c, 1, 52, 0
1, 5418, Note_off_c, 1, 40, 0
1, 5418, Note_off_c, 1, 76, 0
1, 5421, Note_off_c, 1, 70, 0
1, 5424, Note_on_c, 1, 69, 127
1, 5424, Note_on_c, 1, 53, 127
1, 5424, Note_on_c, 1, 41, 127
1, 5424, Note_on_c, 1, 77, 127
1, 5445, Note_off_c, 1, 69, 0
1, 5448, Note_on_c, 1, 70, 127
1, 5466, Note_off_c, 1, 53, 0
1, 5466, Note_off_c, 1, 41, 0
1, 5466, Note_off_c, 1, 77, 0
1, 5469, Note_off_c, 1, 70, 0
1, 5472, Note_on_c, 1, 72, 127
1, 5472, Note_on_c, 1, 52, 127
1, 5472, Note_on_c, 1, 40, 127
1, 5472, Note_on_c, 1, 76, 127
1, 5482, Note_off_c, 1, 72, 0
1, 5484, Note_on_c, 1, 70, 127
1, 5493, Note_off_c, 1, 52, 0
1, 5493, Note_off_c, 1, 40, 0
1, 5493, Note_off_c, 1, 76, 0
1, 5494, Note_off_c, 1, 70, 0
1, 5496, Note_on_c, 1, 72, 127
1, 5496, Note_on_c, 1, 50, 127
1, 5496, Note_on_c, 1, 38, 127
1, 5496, Note_on_c, 1, 74, 127
1, 5506, Note_off_c, 1, 72, 0
1, 5508, Note_on_c, 1, 70, 127
1, 5517, Note_off_c, 1, 50, 0
1, 5517, Note_off_c, 1, 38, 0
1, 5517, Note_off_c, 1, 74, 0
1, 5518, Note_off_c, 1, 70, 0
1, 5520, Note_on_c, 1, 72, 127
1, 5520, Note_on_c, 1, 48, 127
1, 5520, Note_on_c, 1, 36, 127
1, 5532, Note_on_c, 1, 70, 127
1, 5541, Note_off_c, 1, 72, 0
1, 5541, Note_off_c, 1, 48, 0
1, 5541, Note_off_c, 1, 36, 0
1, 5542, Note_off_c, 1, 70, 0
1, 5544, Note_on_c, 1, 69, 127
1, 5544, Note_on_c, 1, 46, 127
1, 5544, Note_on_c, 1, 34, 127
1, 5544, Note_on_c, 1, 70, 127
1, 5554, Note_off_c, 1, 69, 0
1, 5565, Note_off_c, 1, 46, 0
1, 5565, Note_off_c, 1, 34, 0
1, 5566, Note_off_c, 1, 70, 0
1, 5568, Note_on_c, 1, 72, 127
1, 5568, Note_on_c, 1, 45, 127
1, 5568, Note_on_c, 1, 33, 127
1, 5568, Note_on_c, 1, 69, 127
1, 5589, Note_off_c, 1, 72, 0
1, 5589, Note_off_c, 1, 45, 0
1, 5589, Note_off_c, 1, 33, 0
1, 5589, Note_off_c, 1, 69, 0
1, 5592, Note_on_c, 1, 69, 127
1, 5592, Note_on_c, 1, 46, 127
1, 5592, Note_on_c, 1, 34, 127
1, 5592, Note_on_c, 1, 70, 127
1, 5613, Note_off_c, 1, 69, 0
1, 5613, Note_off_c, 1, 46, 0
1, 5613, Note_off_c, 1, 34, 0
1, 5613, Note_off_c, 1, 70, 0
1, 5616, Note_on_c, 1, 67, 127
1, 5616, Note_on_c, 1, 48, 127
1, 5616, Note_on_c, 1, 36, 127
1, 5616, Note_on_c, 1, 72, 127
1, 5626, Note_off_c, 1, 67, 0
1, 5626, Note_off_c, 1, 48, 0
1, 5626, Note_off_c, 1, 36, 0
1, 5626, Note_off_c, 1, 72, 0
1, 5628, Note_on_c, 1, 65, 127
1, 5628, Note_on_c, 1, 46, 127
1, 5628, Note_on_c, 1, 34, 127
1, 5628, Note_on_c, 1, 70, 127
1, 5638, Note_off_c, 1, 65, 0
1, 5638, Note_off_c, 1, 46, 0
1, 5638, Note_off_c, 1, 34, 0
1, 5638, Note_off_c, 1, 70, 0
1, 5640, Note_on_c, 1, 67, 127
1, 5640, Note_on_c, 1, 48, 127
1, 5640, Note_on_c, 1, 36, 127
1, 5640, Note_on_c, 1, 72, 127
1, 5650, Note_off_c, 1, 67, 0
1, 5650, Note_off_c, 1, 48, 0
1, 5650, Note_off_c, 1, 36, 0
1, 5650, Note_off_c, 1, 72, 0
1, 5652, Note_on_c, 1, 65, 127
1, 5652, Note_on_c, 1, 46, 127
1, 5652, Note_on_c, 1, 34, 127
1, 5652, Note_on_c, 1, 70, 127
1, 5662, Note_off_c, 1, 65, 0
1, 5662, Note_off_c, 1, 46, 0
1, 5662, Note_off_c, 1, 34, 0
1, 5662, Note_off_c, 1, 70, 0
1, 5664, Note_on_c, 1, 67, 127
1, 5664, Note_on_c, 1, 48, 127
1, 5664, Note_on_c, 1, 36, 127
1, 5664, Note_on_c, 1, 72, 127
1, 5674, Note_off_c, 1, 67, 0
1, 5674, Note_off_c, 1, 48, 0
1, 5674, Note_off_c, 1, 36, 0
1, 5674, Note_off_c, 1, 72, 0
1, 5676, Note_on_c, 1, 65, 127
1, 5676, Note_on_c, 1, 46, 127
1, 5676, Note_on_c, 1, 34, 127
1, 5676, Note_on_c, 1, 70, 127
1, 5686, Note_off_c, 1, 65, 0
1, 5686, Note_off_c, 1, 46, 0
1, 5686, Note_off_c, 1, 34, 0
1, 5686, Note_off_c, 1, 70, 0
1, 5688, Note_on_c, 1, 70, 127
1, 5688, Note_on_c, 1, 45, 127
1, 5688, Note_on_c, 1, 33, 127
1, 5688, Note_on_c, 1, 69, 127
1, 5698, Note_off_c, 1, 70, 0
1, 5698, Note_off_c, 1, 45, 0
1, 5698, Note_off_c, 1, 33, 0
1, 5698, Note_off_c, 1, 69, 0
1, 5700, Note_on_c, 1, 69, 127
1, 5700, Note_on_c, 1, 46, 127
1, 5700, Note_on_c, 1, 34, 127
1, 5700, Note_on_c, 1, 70, 127
1, 5710, Note_off_c, 1, 69, 0
1, 5710, Note_off_c, 1, 46, 0
1, 5710, Note_off_c, 1, 34, 0
1, 5710, Note_off_c, 1, 70, 0
1, 5712, Note_on_c, 1, 60, 127
1, 5712, Note_on_c, 1, 67, 127
1, 5712, Note_on_c, 1, 48, 127
1, 5712, Note_on_c, 1, 36, 127
1, 5712, Note_on_c, 1, 72, 127
1, 5733, Note_off_c, 1, 48, 0
1, 5733, Note_off_c, 1, 36, 0
1, 5733, Note_off_c, 1, 72, 0
1, 5736, Note_on_c, 1, 50, 127
1, 5736, Note_on_c, 1, 38, 127
1, 5736, Note_on_c, 1, 74, 127
1, 5757, Note_off_c, 1, 50, 0
1, 5757, Note_off_c, 1, 38, 0
1, 5757, Note_off_c, 1, 74, 0
1, 5760, Note_on_c, 1, 52, 127
1, 5760, Note_on_c, 1, 40, 127
1, 5760, Note_on_c, 1, 76, 127
1, 5781, Note_off_c, 1, 52, 0
1, 5781, Note_off_c, 1, 40, 0
1, 5781, Note_off_c, 1, 76, 0
1, 5784, Note_on_c, 1, 70, 127
1, 5796, Note_off_c, 1, 67, 0
1, 5805, Note_off_c, 1, 60, 0
1, 5805, Note_off_c, 1, 70, 0
1, 5808, Note_on_c, 1, 69, 127
1, 5808, Note_on_c, 1, 60, 127
1, 5808, Note_on_c, 1, 52, 127
1, 5808, Note_on_c, 1, 40, 127
1, 5808, Note_on_c, 1, 76, 127
1, 5829, Note_off_c, 1, 69, 0
1, 5829, Note_off_c, 1, 60, 0
1, 5829, Note_off_c, 1, 52, 0
1, 5829, Note_off_c, 1, 40, 0
1, 5829, Note_off_c, 1, 76, 0
1, 5832, Note_on_c, 1, 67, 127
1, 5832, Note_on_c, 1, 60, 127
1, 5832, Note_on_c, 1, 48, 127
1, 5832, Note_on_c, 1, 36, 127
1, 5832, Note_on_c, 1, 72, 127
1, 5853, Note_off_c, 1, 67, 0
1, 5853, Note_off_c, 1, 60, 0
1, 5853, Note_off_c, 1, 48, 0
1, 5853, Note_off_c, 1, 36, 0
1, 5853, Note_off_c, 1, 72, 0
1, 5856, Note_on_c, 1, 65, 127
1, 5856, Note_on_c, 1, 57, 127
1, 5856, Note_on_c, 1, 53, 127
1, 5856, Note_on_c, 1, 41, 127
1, 5856, Note_on_c, 1, 69, 127
1, 5856, Note_on_c, 1, 72, 127
1, 5877, Note_off_c, 1, 65, 0
1, 5880, Note_on_c, 1, 67, 127
1, 5898, Note_off_c, 1, 57, 0
1, 5898, Note_off_c, 1, 53, 0
1, 5898, Note_off_c, 1, 41, 0
1, 5898, Note_off_c, 1, 69, 0
1, 5898, Note_off_c, 1, 72, 0
1, 5901, Note_off_c, 1, 67, 0
1, 5904, Note_on_c, 1, 65, 127
1, 5904, Note_on_c, 1, 57, 127
1, 5904, Note_on_c, 1, 60, 127
1, 5904, Note_on_c, 1, 45, 127
1, 5904, Note_on_c, 1, 72, 127
1, 5904, Note_on_c, 1, 77, 127
1, 5928, Note_on_c, 1, 67, 127
1, 5946, Note_off_c, 1, 65, 0
1, 5946, Note_off_c, 1, 60, 0
1, 5946, Note_off_c, 1, 45, 0
1, 5946, Note_off_c, 1, 72, 0
1, 5946, Note_off_c, 1, 77, 0
1, 5949, Note_off_c, 1, 57, 0
1, 5949, Note_off_c, 1, 67, 0
1, 5952, Note_on_c, 1, 69, 127
1, 5952, Note_on_c, 1, 57, 127
1, 5952, Note_on_c, 1, 65, 127
1, 5952, Note_on_c, 1, 60, 127
1, 5952, Note_on_c, 1, 48, 127
1, 5952, Note_on_c, 1, 77, 127
1, 5952, Note_on_c, 1, 81, 127
1, 5973, Note_off_c, 1, 69, 0
1, 5976, Note_on_c, 1, 67, 127
1, 5994, Note_off_c, 1, 65, 0
1, 5994, Note_off_c, 1, 60, 0
1, 5994, Note_off_c, 1, 48, 0
1, 5994, Note_off_c, 1, 77, 0
1, 5994, Note_off_c, 1, 81, 0
1, 5997, Note_off_c, 1, 57, 0
1, 5997, Note_off_c, 1, 67, 0
1, 6000, Note_on_c, 1, 65, 127
1, 6000, Note_on_c, 1, 57, 127
1, 6000, Note_on_c, 1, 60, 127
1, 6000, Note_on_c, 1, 45, 127
1, 6000, Note_on_c, 1, 72, 127
1, 6000, Note_on_c, 1, 77, 127
1, 6042, Note_off_c, 1, 65, 0
1, 6042, Note_off_c, 1, 57, 0
1, 6042, Note_off_c, 1, 60, 0
1, 6042, Note_off_c, 1, 45, 0
1, 6042, Note_off_c, 1, 72, 0
1, 6042, Note_off_c, 1, 77, 0
1, 6048, Note_on_c, 1, 69, 127
1, 6048, Note_on_c, 1, 65, 127
1, 6048, Note_on_c, 1, 60, 127
1, 6048, Note_on_c, 1, 53, 127
1, 6048, Note_on_c, 1, 41, 127
1, 6048, Note_on_c, 1, 72, 127
1, 6069, Note_off_c, 1, 65, 0
1, 6072, Note_on_c, 1, 67, 127
1, 6072, Note_on_c, 1, 64, 127
1, 6072, Note_on_c, 1, 58, 127
1, 6090, Note_off_c, 1, 69, 0
1, 6090, Note_off_c, 1, 60, 0
1, 6090, Note_off_c, 1, 53, 0
1, 6090, Note_off_c, 1, 41, 0
1, 6090, Note_off_c, 1, 72, 0
1, 6093, Note_off_c, 1, 67, 0
1, 6093, Note_off_c, 1, 64, 0
1, 6093, Note_off_c, 1, 58, 0
1, 6096, Note_on_c, 1, 69, 127
1, 6096, Note_on_c, 1, 65, 127
1, 6096, Note_on_c, 1, 60, 127
1, 6117, Note_off_c, 1, 69, 0
1, 6117, Note_off_c, 1, 65, 0
1, 6120, Note_on_c, 1, 57, 127
1, 6141, Note_off_c, 1, 60, 0
1, 6141, Note_off_c, 1, 57, 0
1, 6144, Note_on_c, 1, 67, 127
1, 6144, Note_on_c, 1, 60, 127
1, 6144, Note_on_c, 1, 72, 127
1, 6144, Note_on_c, 1, 64, 127
1, 6144, Note_on_c, 1, 52, 127
1, 6144, Note_on_c, 1, 40, 127
1, 6168, Note_on_c, 1, 69, 127
1, 6186, Note_off_c, 1, 67, 0
1, 6186, Note_off_c, 1, 60, 0
1, 6186, Note_off_c, 1, 72, 0
1, 6186, Note_off_c, 1, 64, 0
1, 6186, Note_off_c, 1, 52, 0
1, 6186, Note_off_c, 1, 40, 0
1, 6189, Note_off_c, 1, 69, 0
1, 6192, Note_on_c, 1, 67, 127
1, 6192, Note_on_c, 1, 60, 127
1, 6192, Note_on_c, 1, 72, 127
1, 6192, Note_on_c, 1, 64, 127
1, 6192, Note_on_c, 1, 55, 127
1, 6192, Note_on_c, 1, 43, 127
1, 6192, Note_on_c, 1, 76, 127
1, 6213, Note_off_c, 1, 60, 0
1, 6216, Note_on_c, 1, 69, 127
1, 6234, Note_off_c, 1, 67, 0
1, 6234, Note_off_c, 1, 72, 0
1, 6234, Note_off_c, 1, 64, 0
1, 6234, Note_off_c, 1, 55, 0
1, 6234, Note_off_c, 1, 43, 0
1, 6234, Note_off_c, 1, 76, 0
1, 6237, Note_off_c, 1, 69, 0
1, 6240, Note_on_c, 1, 70, 127
1, 6240, Note_on_c, 1, 60, 127
1, 6240, Note_on_c, 1, 72, 127
1, 6240, Note_on_c, 1, 67, 127
1, 6240, Note_on_c, 1, 64, 127
1, 6240, Note_on_c, 1, 48, 127
1, 6240, Note_on_c, 1, 76, 127
1, 6240, Note_on_c, 1, 79, 127
1, 6261, Note_off_c, 1, 70, 0
1, 6264, Note_on_c, 1, 69, 127
1, 6282, Note_off_c, 1, 72, 0
1, 6282, Note_off_c, 1, 67, 0
1, 6282, Note_off_c, 1, 64, 0
1, 6282, Note_off_c, 1, 48, 0
1, 6282, Note_off_c, 1, 76, 0
1, 6282, Note_off_c, 1, 79, 0
1, 6285, Note_off_c, 1, 60, 0
1, 6285, Note_off_c, 1, 69, 0
1, 6288, Note_on_c, 1, 67, 127
1, 6288, Note_on_c, 1, 60, 127
1, 6288, Note_on_c, 1, 72, 127
1, 6288, Note_on_c, 1, 64, 127
1, 6288, Note_on_c, 1, 52, 127
1, 6288, Note_on_c, 1, 40, 127
1, 6330, Note_off_c, 1, 67, 0
1, 6330, Note_off_c, 1, 60, 0
1, 6330, Note_off_c, 1, 72, 0
1, 6330, Note_off_c, 1, 64, 0
1, 6330, Note_off_c, 1, 52, 0
1, 6330, Note_off_c, 1, 40, 0
1, 6336, Note_on_c, 1, 76, 127
1, 6336, Note_on_c, 1, 72, 127
1, 6336, Note_on_c, 1, 67, 127
1, 6336, Note_on_c, 1, 48, 127
1, 6336, Note_on_c, 1, 36, 127
1, 6336, Note_on_c, 1, 64, 127
1, 6357, Note_off_c, 1, 76, 0
1, 6357, Note_off_c, 1, 72, 0
1, 6360, Note_on_c, 1, 74, 127
1, 6360, Note_on_c, 1, 71, 127
1, 6360, Note_on_c, 1, 65, 127
1, 6378, Note_off_c, 1, 67, 0
1, 6378, Note_off_c, 1, 48, 0
1, 6378, Note_off_c, 1, 36, 0
1, 6378, Note_off_c, 1, 64, 0
1, 6381, Note_off_c, 1, 74, 0
1, 6381, Note_off_c, 1, 71, 0
1, 6381, Note_off_c, 1, 65, 0
1, 6384, Note_on_c, 1, 76, 127
1, 6384, Note_on_c, 1, 72, 127
1, 6384, Note_on_c, 1, 67, 127
1, 6405, Note_off_c, 1, 76, 0
1, 6405, Note_off_c, 1, 72, 0
1, 6405, Note_off_c, 1, 67, 0
1, 6408, Note_on_c, 1, 72, 127
1, 6408, Note_on_c, 1, 67, 127
1, 6408, Note_on_c, 1, 64, 127
1, 6429, Note_off_c, 1, 72, 0
1, 6429, Note_off_c, 1, 67, 0
1, 6429, Note_off_c, 1, 64, 0
1, 6432, Note_on_c, 1, 69, 127
1, 6432, Note_on_c, 1, 65, 127
1, 6432, Note_on_c, 1, 77, 127
1, 6432, Note_on_c, 1, 74, 127
1, 6432, Note_on_c, 1, 50, 127
1, 6432, Note_on_c, 1, 62, 127
1, 6432, Note_on_c, 1, 38, 127
1, 6453, Note_off_c, 1, 65, 0
1, 6456, Note_on_c, 1, 70, 127
1, 6456, Note_on_c, 1, 67, 127
1, 6474, Note_off_c, 1, 69, 0
1, 6474, Note_off_c, 1, 77, 0
1, 6474, Note_off_c, 1, 74, 0
1, 6474, Note_off_c, 1, 50, 0
1, 6474, Note_off_c, 1, 62, 0
1, 6474, Note_off_c, 1, 38, 0
1, 6477, Note_off_c, 1, 70, 0
1, 6477, Note_off_c, 1, 67, 0
1, 6480, Note_on_c, 1, 69, 127
1, 6480, Note_on_c, 1, 65, 127
1, 6480, Note_on_c, 1, 77, 127
1, 6480, Note_on_c, 1, 74, 127
1, 6480, Note_on_c, 1, 53, 127
1, 6480, Note_on_c, 1, 41, 127
1, 6501, Note_off_c, 1, 65, 0
1, 6504, Note_on_c, 1, 70, 127
1, 6504, Note_on_c, 1, 67, 127
1, 6522, Note_off_c, 1, 69, 0
1, 6522, Note_off_c, 1, 77, 0
1, 6522, Note_off_c, 1, 74, 0
1, 6522, Note_off_c, 1, 53, 0
1, 6522, Note_off_c, 1, 41, 0
1, 6525, Note_off_c, 1, 70, 0
1, 6525, Note_off_c, 1, 67, 0
1, 6528, Note_on_c, 1, 72, 127
1, 6528, Note_on_c, 1, 69, 127
1, 6528, Note_on_c, 1, 77, 127
1, 6528, Note_on_c, 1, 74, 127
1, 6528, Note_on_c, 1, 50, 127
1, 6528, Note_on_c, 1, 38, 127
1, 6549, Note_off_c, 1, 72, 0
1, 6552, Note_on_c, 1, 70, 127
1, 6552, Note_on_c, 1, 67, 127
1, 6570, Note_off_c, 1, 69, 0
1, 6570, Note_off_c, 1, 77, 0
1, 6570, Note_off_c, 1, 74, 0
1, 6570, Note_off_c, 1, 50, 0
1, 6570, Note_off_c, 1, 38, 0
1, 6573, Note_off_c, 1, 70, 0
1, 6573, Note_off_c, 1, 67, 0
1, 6576, Note_on_c, 1, 69, 127
1, 6576, Note_on_c, 1, 65, 127
1, 6576, Note_on_c, 1, 77, 127
1, 6576, Note_on_c, 1, 72, 127
1, 6576, Note_on_c, 1, 45, 127
1, 6576, Note_on_c, 1, 33, 127
1, 6600, Note_on_c, 1, 70, 127
1, 6600, Note_on_c, 1, 67, 127
1, 6618, Note_off_c, 1, 69, 0
1, 6618, Note_off_c, 1, 65, 0
1, 6618, Note_off_c, 1, 77, 0
1, 6618, Note_off_c, 1, 72, 0
1, 6618, Note_off_c, 1, 45, 0
1, 6618, Note_off_c, 1, 33, 0
1, 6621, Note_off_c, 1, 70, 0
1, 6621, Note_off_c, 1, 67, 0
1, 6624, Note_on_c, 1, 69, 127
1, 6624, Note_on_c, 1, 65, 127
1, 6624, Note_on_c, 1, 79, 127
1, 6624, Note_on_c, 1, 76, 127
1, 6624, Note_on_c, 1, 60, 127
1, 6624, Note_on_c, 1, 41, 127
1, 6624, Note_on_c, 1, 29, 127
1, 6645, Note_off_c, 1, 65, 0
1, 6645, Note_off_c, 1, 79, 0
1, 6645, Note_off_c, 1, 76, 0
1, 6648, Note_on_c, 1, 70, 127
1, 6648, Note_on_c, 1, 67, 127
1, 6648, Note_on_c, 1, 77, 127
1, 6648, Note_on_c, 1, 74, 127
1, 6666, Note_off_c, 1, 69, 0
1, 6666, Note_off_c, 1, 60, 0
1, 6666, Note_off_c, 1, 41, 0
1, 6666, Note_off_c, 1, 29, 0
1, 6669, Note_off_c, 1, 70, 0
1, 6669, Note_off_c, 1, 67, 0
1, 6669, Note_off_c, 1, 77, 0
1, 6669, Note_off_c, 1, 74, 0
1, 6672, Note_on_c, 1, 72, 127
1, 6672, Note_on_c, 1, 69, 127
1, 6672, Note_on_c, 1, 76, 127
1, 6672, Note_on_c, 1, 65, 127
1, 6693, Note_off_c, 1, 76, 0
1, 6696, Note_on_c, 1, 74, 127
1, 6696, Note_on_c, 1, 71, 127
1, 6714, Note_off_c, 1, 72, 0
1, 6714, Note_off_c, 1, 69, 0
1, 6714, Note_off_c, 1, 65, 0
1, 6717, Note_off_c, 1, 74, 0
1, 6717, Note_off_c, 1, 71, 0
1, 6720, Note_on_c, 1, 67, 127
1, 6720, Note_on_c, 1, 60, 127
1, 6720, Note_on_c, 1, 76, 127
1, 6720, Note_on_c, 1, 72, 127
1, 6720, Note_on_c, 1, 48, 127
1, 6720, Note_on_c, 1, 36, 127
1, 6741, Note_off_c, 1, 72, 0
1, 6744, Note_on_c, 1, 77, 127
1, 6744, Note_on_c, 1, 74, 127
1, 6762, Note_off_c, 1, 67, 0
1, 6762, Note_off_c, 1, 60, 0
1, 6762, Note_off_c, 1, 76, 0
1, 6762, Note_off_c, 1, 48, 0
1, 6762, Note_off_c, 1, 36, 0
1, 6765, Note_off_c, 1, 77, 0
1, 6765, Note_off_c, 1, 74, 0
1, 6768, Note_on_c, 1, 67, 127
1, 6768, Note_on_c, 1, 60, 127
1, 6768, Note_on_c, 1, 79, 127
1, 6768, Note_on_c, 1, 76, 127
1, 6768, Note_on_c, 1, 48, 127
1, 6768, Note_on_c, 1, 36, 127
1, 6778, Note_off_c, 1, 79, 0
1, 6780, Note_on_c, 1, 77, 127
1, 6780, Note_on_c, 1, 74, 127
1, 6790, Note_off_c, 1, 77, 0
1, 6790, Note_off_c, 1, 74, 0
1, 6810, Note_off_c, 1, 76, 0
1, 6810, Note_off_c, 1, 48, 0
1, 6810, Note_off_c, 1, 36, 0
1, 6813, Note_off_c, 1, 67, 0
1, 6813, Note_off_c, 1, 60, 0
1, 6816, Note_on_c, 1, 67, 127
1, 6816, Note_on_c, 1, 60, 127
1, 6816, Note_on_c, 1, 79, 127
1, 6816, Note_on_c, 1, 76, 127
1, 6816, Note_on_c, 1, 48, 127
1, 6816, Note_on_c, 1, 36, 127
1, 6826, Note_off_c, 1, 79, 0
1, 6828, Note_on_c, 1, 77, 127
1, 6828, Note_on_c, 1, 74, 127
1, 6837, Note_off_c, 1, 60, 0
1, 6838, Note_off_c, 1, 77, 0
1, 6838, Note_off_c, 1, 74, 0
1, 6840, Note_on_c, 1, 72, 127
1, 6850, Note_off_c, 1, 72, 0
1, 6858, Note_off_c, 1, 76, 0
1, 6858, Note_off_c, 1, 48, 0
1, 6858, Note_off_c, 1, 36, 0
1, 6861, Note_off_c, 1, 67, 0
1, 6864, Note_on_c, 1, 67, 127
1, 6864, Note_on_c, 1, 60, 127
1, 6864, Note_on_c, 1, 79, 127
1, 6864, Note_on_c, 1, 76, 127
1, 6864, Note_on_c, 1, 72, 127
1, 6864, Note_on_c, 1, 48, 127
1, 6864, Note_on_c, 1, 36, 127
1, 6885, Note_off_c, 1, 48, 0
1, 6885, Note_off_c, 1, 36, 0
1, 6888, Note_on_c, 1, 50, 127
1, 6888, Note_on_c, 1, 38, 127
1, 6906, Note_off_c, 1, 67, 0
1, 6906, Note_off_c, 1, 60, 0
1, 6906, Note_off_c, 1, 79, 0
1, 6909, Note_off_c, 1, 50, 0
1, 6909, Note_off_c, 1, 38, 0
1, 6912, Note_on_c, 1, 64, 127
1, 6912, Note_on_c, 1, 52, 127
1, 6912, Note_on_c, 1, 40, 127
1, 6933, Note_off_c, 1, 52, 0
1, 6933, Note_off_c, 1, 40, 0
1, 6948, Note_off_c, 1, 76, 0
1, 6954, Note_off_c, 1, 72, 0
1, 6954, Note_off_c, 1, 64, 0
1, 6960, Note_on_c, 1, 76, 127
1, 6960, Note_on_c, 1, 72, 127
1, 6960, Note_on_c, 1, 67, 127
1, 6960, Note_on_c, 1, 52, 127
1, 6960, Note_on_c, 1, 40, 127
1, 6981, Note_off_c, 1, 52, 0
1, 6981, Note_off_c, 1, 40, 0
1, 6984, Note_on_c, 1, 48, 127
1, 6984, Note_on_c, 1, 36, 127
1, 7002, Note_off_c, 1, 76, 0
1, 7002, Note_off_c, 1, 72, 0
1, 7002, Note_off_c, 1, 67, 0
1, 7005, Note_off_c, 1, 48, 0
1, 7005, Note_off_c, 1, 36, 0
1, 7008, Note_on_c, 1, 76, 127
1, 7008, Note_on_c, 1, 72, 127
1, 7008, Note_on_c, 1, 69, 127
1, 7008, Note_on_c, 1, 53, 127
1, 7008, Note_on_c, 1, 41, 127
1, 7008, Note_on_c, 1, 60, 127
1, 7029, Note_off_c, 1, 76, 0
1, 7029, Note_off_c, 1, 53, 0
1, 7029, Note_off_c, 1, 41, 0
1, 7032, Note_on_c, 1, 74, 127
1, 7032, Note_on_c, 1, 55, 127
1, 7032, Note_on_c, 1, 43, 127
1, 7050, Note_off_c, 1, 72, 0
1, 7050, Note_off_c, 1, 69, 0
1, 7050, Note_off_c, 1, 60, 0
1, 7053, Note_off_c, 1, 74, 0
1, 7053, Note_off_c, 1, 55, 0
1, 7053, Note_off_c, 1, 43, 0
1, 7056, Note_on_c, 1, 72, 127
1, 7056, Note_on_c, 1, 57, 127
1, 7056, Note_on_c, 1, 65, 127
1, 7056, Note_on_c, 1, 81, 127
1, 7056, Note_on_c, 1, 69, 127
1, 7056, Note_on_c, 1, 45, 127
1, 7056, Note_on_c, 1, 64, 127
1, 7077, Note_off_c, 1, 57, 0
1, 7077, Note_off_c, 1, 45, 0
1, 7080, Note_on_c, 1, 71, 127
1, 7080, Note_on_c, 1, 55, 127
1, 7080, Note_on_c, 1, 43, 127
1, 7098, Note_off_c, 1, 72, 0
1, 7098, Note_off_c, 1, 65, 0
1, 7098, Note_off_c, 1, 81, 0
1, 7098, Note_off_c, 1, 69, 0
1, 7098, Note_off_c, 1, 64, 0
1, 7101, Note_off_c, 1, 71, 0
1, 7101, Note_off_c, 1, 55, 0
1, 7101, Note_off_c, 1, 43, 0
1, 7104, Note_on_c, 1, 72, 127
1, 7104, Note_on_c, 1, 57, 127
1, 7104, Note_on_c, 1, 65, 127
1, 7104, Note_on_c, 1, 81, 127
1, 7104, Note_on_c, 1, 69, 127
1, 7104, Note_on_c, 1, 45, 127
1, 7104, Note_on_c, 1, 64, 127
1, 7125, Note_off_c, 1, 57, 0
1, 7125, Note_off_c, 1, 45, 0
1, 7128, Note_on_c, 1, 53, 127
1, 7128, Note_on_c, 1, 41, 127
1, 7146, Note_off_c, 1, 72, 0
1, 7146, Note_off_c, 1, 65, 0
1, 7146, Note_off_c, 1, 81, 0
1, 7146, Note_off_c, 1, 64, 0
1, 7149, Note_off_c, 1, 69, 0
1, 7149, Note_off_c, 1, 53, 0
1, 7149, Note_off_c, 1, 41, 0
1, 7152, Note_on_c, 1, 74, 127
1, 7152, Note_on_c, 1, 47, 127
1, 7152, Note_on_c, 1, 71, 127
1, 7152, Note_on_c, 1, 81, 127
1, 7152, Note_on_c, 1, 65, 127
1, 7152, Note_on_c, 1, 35, 127
1, 7152, Note_on_c, 1, 62, 127
1, 7173, Note_off_c, 1, 47, 0
1, 7173, Note_off_c, 1, 71, 0
1, 7173, Note_off_c, 1, 81, 0
1, 7173, Note_off_c, 1, 35, 0
1, 7176, Note_on_c, 1, 48, 127
1, 7176, Note_on_c, 1, 79, 127
1, 7176, Note_on_c, 1, 36, 127
1, 7194, Note_off_c, 1, 74, 0
1, 7194, Note_off_c, 1, 65, 0
1, 7194, Note_off_c, 1, 62, 0
1, 7197, Note_off_c, 1, 48, 0
1, 7197, Note_off_c, 1, 79, 0
1, 7197, Note_off_c, 1, 36, 0
1, 7200, Note_on_c, 1, 74, 127
1, 7200, Note_on_c, 1, 71, 127
1, 7200, Note_on_c, 1, 69, 127
1, 7200, Note_on_c, 1, 50, 127
1, 7200, Note_on_c, 1, 77, 127
1, 7200, Note_on_c, 1, 38, 127
1, 7200, Note_on_c, 1, 65, 127
1, 7221, Note_off_c, 1, 50, 0
1, 7221, Note_off_c, 1, 77, 0
1, 7221, Note_off_c, 1, 38, 0
1, 7224, Note_on_c, 1, 48, 127
1, 7224, Note_on_c, 1, 76, 127
1, 7224, Note_on_c, 1, 36, 127
1, 7242, Note_off_c, 1, 74, 0
1, 7242, Note_off_c, 1, 71, 0
1, 7242, Note_off_c, 1, 69, 0
1, 7242, Note_off_c, 1, 65, 0
1, 7245, Note_off_c, 1, 48, 0
1, 7245, Note_off_c, 1, 76, 0
1, 7245, Note_off_c, 1, 36, 0
1, 7248, Note_on_c, 1, 74, 127
1, 7248, Note_on_c, 1, 71, 127
1, 7248, Note_on_c, 1, 69, 127
1, 7248, Note_on_c, 1, 50, 127
1, 7248, Note_on_c, 1, 77, 127
1, 7248, Note_on_c, 1, 38, 127
1, 7248, Note_on_c, 1, 65, 127
1, 7269, Note_off_c, 1, 50, 0
1, 7269, Note_off_c, 1, 77, 0
1, 7269, Note_off_c, 1, 38, 0
1, 7272, Note_on_c, 1, 47, 127
1, 7272, Note_on_c, 1, 35, 127
1, 7290, Note_off_c, 1, 71, 0
1, 7290, Note_off_c, 1, 69, 0
1, 7290, Note_off_c, 1, 65, 0
1, 7293, Note_off_c, 1, 74, 0
1, 7293, Note_off_c, 1, 47, 0
1, 7293, Note_off_c, 1, 35, 0
1, 7296, Note_on_c, 1, 74, 127
1, 7296, Note_on_c, 1, 71, 127
1, 7296, Note_on_c, 1, 67, 127
1, 7296, Note_on_c, 1, 52, 127
1, 7296, Note_on_c, 1, 79, 127
1, 7296, Note_on_c, 1, 40, 127
1, 7317, Note_off_c, 1, 74, 0
1, 7317, Note_off_c, 1, 52, 0
1, 7317, Note_off_c, 1, 40, 0
1, 7320, Note_on_c, 1, 72, 127
1, 7320, Note_on_c, 1, 53, 127
1, 7320, Note_on_c, 1, 41, 127
1, 7338, Note_off_c, 1, 71, 0
1, 7338, Note_off_c, 1, 67, 0
1, 7338, Note_off_c, 1, 79, 0
1, 7341, Note_off_c, 1, 72, 0
1, 7341, Note_off_c, 1, 53, 0
1, 7341, Note_off_c, 1, 41, 0
1, 7344, Note_on_c, 1, 71, 127
1, 7344, Note_on_c, 1, 55, 127
1, 7344, Note_on_c, 1, 64, 127
1, 7344, Note_on_c, 1, 76, 127
1, 7344, Note_on_c, 1, 79, 127
1, 7344, Note_on_c, 1, 67, 127
1, 7344, Note_on_c, 1, 43, 127
1, 7344, Note_on_c, 1, 62, 127
1, 7365, Note_off_c, 1, 55, 0
1, 7365, Note_off_c, 1, 43, 0
1, 7368, Note_on_c, 1, 69, 127
1, 7368, Note_on_c, 1, 53, 127
1, 7368, Note_on_c, 1, 41, 127
1, 7386, Note_off_c, 1, 71, 0
1, 7386, Note_off_c, 1, 64, 0
1, 7386, Note_off_c, 1, 76, 0
1, 7386, Note_off_c, 1, 79, 0
1, 7386, Note_off_c, 1, 67, 0
1, 7386, Note_off_c, 1, 62, 0
1, 7389, Note_off_c, 1, 69, 0
1, 7389, Note_off_c, 1, 53, 0
1, 7389, Note_off_c, 1, 41, 0
1, 7392, Note_on_c, 1, 71, 127
1, 7392, Note_on_c, 1, 55, 127
1, 7392, Note_on_c, 1, 64, 127
1, 7392, Note_on_c, 1, 76, 127
1, 7392, Note_on_c, 1, 79, 127
1, 7392, Note_on_c, 1, 67, 127
1, 7392, Note_on_c, 1, 43, 127
1, 7392, Note_on_c, 1, 62, 127
1, 7413, Note_off_c, 1, 55, 0
1, 7413, Note_off_c, 1, 43, 0
1, 7416, Note_on_c, 1, 52, 127
1, 7416, Note_on_c, 1, 40, 127
1, 7434, Note_off_c, 1, 71, 0
1, 7434, Note_off_c, 1, 64, 0
1, 7434, Note_off_c, 1, 76, 0
1, 7434, Note_off_c, 1, 79, 0
1, 7434, Note_off_c, 1, 62, 0
1, 7437, Note_off_c, 1, 67, 0
1, 7437, Note_off_c, 1, 52, 0
1, 7437, Note_off_c, 1, 40, 0
1, 7440, Note_on_c, 1, 72, 127
1, 7440, Note_on_c, 1, 45, 127
1, 7440, Note_on_c, 1, 69, 127
1, 7440, Note_on_c, 1, 79, 127
1, 7440, Note_on_c, 1, 64, 127
1, 7440, Note_on_c, 1, 33, 127
1, 7440, Note_on_c, 1, 60, 127
1, 7461, Note_off_c, 1, 45, 0
1, 7461, Note_off_c, 1, 69, 0
1, 7461, Note_off_c, 1, 79, 0
1, 7461, Note_off_c, 1, 33, 0
1, 7464, Note_on_c, 1, 47, 127
1, 7464, Note_on_c, 1, 77, 127
1, 7464, Note_on_c, 1, 35, 127
1, 7482, Note_off_c, 1, 72, 0
1, 7482, Note_off_c, 1, 64, 0
1, 7482, Note_off_c, 1, 60, 0
1, 7485, Note_off_c, 1, 47, 0
1, 7485, Note_off_c, 1, 77, 0
1, 7485, Note_off_c, 1, 35, 0
1, 7488, Note_on_c, 1, 72, 127
1, 7488, Note_on_c, 1, 69, 127
1, 7488, Note_on_c, 1, 67, 127
1, 7488, Note_on_c, 1, 48, 127
1, 7488, Note_on_c, 1, 76, 127
1, 7488, Note_on_c, 1, 36, 127
1, 7488, Note_on_c, 1, 64, 127
1, 7509, Note_off_c, 1, 48, 0
1, 7509, Note_off_c, 1, 76, 0
1, 7509, Note_off_c, 1, 36, 0
1, 7512, Note_on_c, 1, 47, 127
1, 7512, Note_on_c, 1, 74, 127
1, 7512, Note_on_c, 1, 35, 127
1, 7530, Note_off_c, 1, 72, 0
1, 7530, Note_off_c, 1, 69, 0
1, 7530, Note_off_c, 1, 67, 0
1, 7530, Note_off_c, 1, 64, 0
1, 7533, Note_off_c, 1, 47, 0
1, 7533, Note_off_c, 1, 74, 0
1, 7533, Note_off_c, 1, 35, 0
1, 7536, Note_on_c, 1, 72, 127
1, 7536, Note_on_c, 1, 69, 127
1, 7536, Note_on_c, 1, 67, 127
1, 7536, Note_on_c, 1, 48, 127
1, 7536, Note_on_c, 1, 76, 127
1, 7536, Note_on_c, 1, 36, 127
1, 7536, Note_on_c, 1, 64, 127
1, 7557, Note_off_c, 1, 48, 0
1, 7557, Note_off_c, 1, 76, 0
1, 7557, Note_off_c, 1, 36, 0
1, 7560, Note_on_c, 1, 45, 127
1, 7560, Note_on_c, 1, 33, 127
1, 7578, Note_off_c, 1, 69, 0
1, 7578, Note_off_c, 1, 67, 0
1, 7578, Note_off_c, 1, 64, 0
1, 7581, Note_off_c, 1, 72, 0
1, 7581, Note_off_c, 1, 45, 0
1, 7581, Note_off_c, 1, 33, 0
1, 7584, Note_on_c, 1, 72, 127
1, 7584, Note_on_c, 1, 69, 127
1, 7584, Note_on_c, 1, 65, 127
1, 7584, Note_on_c, 1, 50, 127
1, 7584, Note_on_c, 1, 77, 127
1, 7584, Note_on_c, 1, 38, 127
1, 7605, Note_off_c, 1, 72, 0
1, 7605, Note_off_c, 1, 50, 0
1, 7605, Note_off_c, 1, 38, 0
1, 7608, Note_on_c, 1, 71, 127
1, 7608, Note_on_c, 1, 52, 127
1, 7608, Note_on_c, 1, 40, 127
1, 7626, Note_off_c, 1, 69, 0
1, 7626, Note_off_c, 1, 65, 0
1, 7626, Note_off_c, 1, 77, 0
1, 7629, Note_off_c, 1, 71, 0
1, 7629, Note_off_c, 1, 52, 0
1, 7629, Note_off_c, 1, 40, 0
1, 7632, Note_on_c, 1, 69, 127
1, 7632, Note_on_c, 1, 53, 127
1, 7632, Note_on_c, 1, 62, 127
1, 7632, Note_on_c, 1, 77, 127
1, 7632, Note_on_c, 1, 65, 127
1, 7632, Note_on_c, 1, 41, 127
1, 7632, Note_on_c, 1, 74, 127
1, 7632, Note_on_c, 1, 60, 127
1, 7653, Note_off_c, 1, 53, 0
1, 7653, Note_off_c, 1, 41, 0
1, 7656, Note_on_c, 1, 67, 127
1, 7656, Note_on_c, 1, 52, 127
1, 7656, Note_on_c, 1, 40, 127
1, 7674, Note_off_c, 1, 69, 0
1, 7674, Note_off_c, 1, 62, 0
1, 7674, Note_off_c, 1, 77, 0
1, 7674, Note_off_c, 1, 65, 0
1, 7674, Note_off_c, 1, 74, 0
1, 7674, Note_off_c, 1, 60, 0
1, 7677, Note_off_c, 1, 67, 0
1, 7677, Note_off_c, 1, 52, 0
1, 7677, Note_off_c, 1, 40, 0
1, 7680, Note_on_c, 1, 69, 127
1, 7680, Note_on_c, 1, 53, 127
1, 7680, Note_on_c, 1, 62, 127
1, 7680, Note_on_c, 1, 77, 127
1, 7680, Note_on_c, 1, 65, 127
1, 7680, Note_on_c, 1, 41, 127
1, 7680, Note_on_c, 1, 74, 127
1, 7680, Note_on_c, 1, 60, 127
1, 7701, Note_off_c, 1, 53, 0
1, 7701, Note_off_c, 1, 41, 0
1, 7704, Note_on_c, 1, 50, 127
1, 7704, Note_on_c, 1, 38, 127
1, 7722, Note_off_c, 1, 69, 0
1, 7722, Note_off_c, 1, 62, 0
1, 7722, Note_off_c, 1, 77, 0
1, 7722, Note_off_c, 1, 74, 0
1, 7722, Note_off_c, 1, 60, 0
1, 7725, Note_off_c, 1, 65, 0
1, 7725, Note_off_c, 1, 50, 0
1, 7725, Note_off_c, 1, 38, 0
1, 7728, Note_on_c, 1, 71, 127
1, 7728, Note_on_c, 1, 43, 127
1, 7728, Note_on_c, 1, 62, 127
1, 7728, Note_on_c, 1, 77, 127
1, 7728, Note_on_c, 1, 31, 127
1, 7728, Note_on_c, 1, 67, 127
1, 7728, Note_on_c, 1, 59, 127
1, 7749, Note_off_c, 1, 71, 0
1, 7749, Note_off_c, 1, 77, 0
1, 7752, Note_on_c, 1, 72, 127
1, 7752, Note_on_c, 1, 76, 127
1, 7770, Note_off_c, 1, 43, 0
1, 7770, Note_off_c, 1, 62, 0
1, 7770, Note_off_c, 1, 31, 0
1, 7770, Note_off_c, 1, 67, 0
1, 7770, Note_off_c, 1, 59, 0
1, 7773, Note_off_c, 1, 72, 0
1, 7773, Note_off_c, 1, 76, 0
1, 7776, Note_on_c, 1, 67, 127
1, 7776, Note_on_c, 1, 71, 127
1, 7776, Note_on_c, 1, 65, 127
1, 7776, Note_on_c, 1, 43, 127
1, 7776, Note_on_c, 1, 74, 127
1, 7776, Note_on_c, 1, 31, 127
1, 7797, Note_off_c, 1, 71, 0
1, 7797, Note_off_c, 1, 74, 0
1, 7800, Note_on_c, 1, 69, 127
1, 7800, Note_on_c, 1, 72, 127
1, 7818, Note_off_c, 1, 67, 0
1, 7818, Note_off_c, 1, 65, 0
1, 7818, Note_off_c, 1, 43, 0
1, 7818, Note_off_c, 1, 31, 0
1, 7821, Note_off_c, 1, 69, 0
1, 7821, Note_off_c, 1, 72, 0
1, 7824, Note_on_c, 1, 67, 127
1, 7824, Note_on_c, 1, 71, 127
1, 7824, Note_on_c, 1, 65, 127
1, 7824, Note_on_c, 1, 43, 127
1, 7824, Note_on_c, 1, 74, 127
1, 7824, Note_on_c, 1, 31, 127
1, 7845, Note_off_c, 1, 71, 0
1, 7845, Note_off_c, 1, 74, 0
1, 7866, Note_off_c, 1, 65, 0
1, 7866, Note_off_c, 1, 43, 0
1, 7866, Note_off_c, 1, 31, 0
1, 7869, Note_off_c, 1, 67, 0
1, 7872, Note_on_c, 1, 67, 127
1, 7872, Note_on_c, 1, 72, 127
1, 7872, Note_on_c, 1, 64, 127
1, 7872, Note_on_c, 1, 43, 127
1, 7872, Note_on_c, 1, 76, 127
1, 7872, Note_on_c, 1, 31, 127
1, 7893, Note_off_c, 1, 72, 0
1, 7896, Note_on_c, 1, 71, 127
1, 7914, Note_off_c, 1, 67, 0
1, 7914, Note_off_c, 1, 64, 0
1, 7914, Note_off_c, 1, 43, 0
1, 7914, Note_off_c, 1, 76, 0
1, 7914, Note_off_c, 1, 31, 0
1, 7917, Note_off_c, 1, 71, 0
1, 7920, Note_on_c, 1, 67, 127
1, 7920, Note_on_c, 1, 72, 127
1, 7920, Note_on_c, 1, 64, 127
1, 7920, Note_on_c, 1, 43, 127
1, 7920, Note_on_c, 1, 60, 127
1, 7920, Note_on_c, 1, 76, 127
1, 7920, Note_on_c, 1, 31, 127
1, 7941, Note_off_c, 1, 72, 0
1, 7944, Note_on_c, 1, 74, 127
1, 7962, Note_off_c, 1, 67, 0
1, 7962, Note_off_c, 1, 64, 0
1, 7962, Note_off_c, 1, 43, 0
1, 7962, Note_off_c, 1, 60, 0
1, 7962, Note_off_c, 1, 76, 0
1, 7962, Note_off_c, 1, 31, 0
1, 7965, Note_off_c, 1, 74, 0
1, 7968, Note_on_c, 1, 67, 127
1, 7968, Note_on_c, 1, 76, 127
1, 7968, Note_on_c, 1, 64, 127
1, 7968, Note_on_c, 1, 43, 127
1, 7968, Note_on_c, 1, 60, 127
1, 7968, Note_on_c, 1, 31, 127
1, 7992, Note_on_c, 1, 72, 127
1, 8010, Note_off_c, 1, 67, 0
1, 8010, Note_off_c, 1, 76, 0
1, 8010, Note_off_c, 1, 64, 0
1, 8010, Note_off_c, 1, 43, 0
1, 8010, Note_off_c, 1, 60, 0
1, 8010, Note_off_c, 1, 31, 0
1, 8013, Note_off_c, 1, 72, 0
1, 8016, Note_on_c, 1, 67, 127
1, 8016, Note_on_c, 1, 77, 127
1, 8016, Note_on_c, 1, 69, 127
1, 8016, Note_on_c, 1, 60, 127
1, 8016, Note_on_c, 1, 43, 127
1, 8016, Note_on_c, 1, 65, 127
1, 8016, Note_on_c, 1, 76, 127
1, 8016, Note_on_c, 1, 31, 127
1, 8037, Note_off_c, 1, 65, 0
1, 8037, Note_off_c, 1, 76, 0
1, 8058, Note_off_c, 1, 67, 0
1, 8058, Note_off_c, 1, 69, 0
1, 8058, Note_off_c, 1, 60, 0
1, 8058, Note_off_c, 1, 43, 0
1, 8058, Note_off_c, 1, 31, 0
1, 8061, Note_off_c, 1, 77, 0
1, 8064, Note_on_c, 1, 67, 127
1, 8064, Note_on_c, 1, 77, 127
1, 8064, Note_on_c, 1, 69, 127
1, 8064, Note_on_c, 1, 60, 127
1, 8064, Note_on_c, 1, 43, 127
1, 8064, Note_on_c, 1, 76, 127
1, 8064, Note_on_c, 1, 31, 127
1, 8085, Note_off_c, 1, 76, 0
1, 8088, Note_on_c, 1, 74, 127
1, 8106, Note_off_c, 1, 67, 0
1, 8106, Note_off_c, 1, 77, 0
1, 8106, Note_off_c, 1, 69, 0
1, 8106, Note_off_c, 1, 60, 0
1, 8106, Note_off_c, 1, 43, 0
1, 8106, Note_off_c, 1, 31, 0
1, 8109, Note_off_c, 1, 74, 0
1, 8112, Note_on_c, 1, 67, 127
1, 8112, Note_on_c, 1, 77, 127
1, 8112, Note_on_c, 1, 69, 127
1, 8112, Note_on_c, 1, 60, 127
1, 8112, Note_on_c, 1, 43, 127
1, 8112, Note_on_c, 1, 76, 127
1, 8112, Note_on_c, 1, 31, 127
1, 8133, Note_off_c, 1, 76, 0
1, 8136, Note_on_c, 1, 72, 127
1, 8154, Note_off_c, 1, 67, 0
1, 8154, Note_off_c, 1, 77, 0
1, 8154, Note_off_c, 1, 69, 0
1, 8154, Note_off_c, 1, 60, 0
1, 8154, Note_off_c, 1, 43, 0
1, 8154, Note_off_c, 1, 31, 0
1, 8157, Note_off_c, 1, 72, 0
1, 8160, Note_on_c, 1, 67, 127
1, 8160, Note_on_c, 1, 77, 127
1, 8160, Note_on_c, 1, 71, 127
1, 8160, Note_on_c, 1, 43, 127
1, 8160, Note_on_c, 1, 74, 127
1, 8160, Note_on_c, 1, 31, 127
1, 8181, Note_off_c, 1, 77, 0
1, 8181, Note_off_c, 1, 74, 0
1, 8184, Note_on_c, 1, 79, 127
1, 8184, Note_on_c, 1, 76, 127
1, 8202, Note_off_c, 1, 67, 0
1, 8202, Note_off_c, 1, 71, 0
1, 8202, Note_off_c, 1, 43, 0
1, 8202, Note_off_c, 1, 31, 0
1, 8205, Note_off_c, 1, 79, 0
1, 8205, Note_off_c, 1, 76, 0
1, 8208, Note_on_c, 1, 67, 127
1, 8208, Note_on_c, 1, 77, 127
1, 8208, Note_on_c, 1, 71, 127
1, 8208, Note_on_c, 1, 43, 127
1, 8208, Note_on_c, 1, 74, 127
1, 8208, Note_on_c, 1, 31, 127
1, 8229, Note_off_c, 1, 77, 0
1, 8229, Note_off_c, 1, 74, 0
1, 8232, Note_on_c, 1, 76, 127
1, 8232, Note_on_c, 1, 72, 127
1, 8250, Note_off_c, 1, 67, 0
1, 8250, Note_off_c, 1, 71, 0
1, 8250, Note_off_c, 1, 43, 0
1, 8250, Note_off_c, 1, 31, 0
1, 8253, Note_off_c, 1, 76, 0
1, 8253, Note_off_c, 1, 72, 0
1, 8256, Note_on_c, 1, 67, 127
1, 8256, Note_on_c, 1, 77, 127
1, 8256, Note_on_c, 1, 71, 127
1, 8256, Note_on_c, 1, 43, 127
1, 8256, Note_on_c, 1, 74, 127
1, 8256, Note_on_c, 1, 31, 127
1, 8277, Note_off_c, 1, 77, 0
1, 8277, Note_off_c, 1, 74, 0
1, 8298, Note_off_c, 1, 67, 0
1, 8298, Note_off_c, 1, 43, 0
1, 8298, Note_off_c, 1, 31, 0
1, 8301, Note_off_c, 1, 71, 0
1, 8304, Note_on_c, 1, 67, 127
1, 8304, Note_on_c, 1, 76, 127
1, 8304, Note_on_c, 1, 72, 127
1, 8304, Note_on_c, 1, 43, 127
1, 8304, Note_on_c, 1, 31, 127
1, 8325, Note_off_c, 1, 76, 0
1, 8328, Note_on_c, 1, 74, 127
1, 8346, Note_off_c, 1, 67, 0
1, 8346, Note_off_c, 1, 72, 0
1, 8346, Note_off_c, 1, 43, 0
1, 8346, Note_off_c, 1, 31, 0
1, 8349, Note_off_c, 1, 74, 0
1, 8352, Note_on_c, 1, 67, 127
1, 8352, Note_on_c, 1, 76, 127
1, 8352, Note_on_c, 1, 72, 127
1, 8352, Note_on_c, 1, 43, 127
1, 8352, Note_on_c, 1, 31, 127
1, 8373, Note_off_c, 1, 76, 0
1, 8376, Note_on_c, 1, 79, 127
1, 8376, Note_on_c, 1, 71, 127
1, 8394, Note_off_c, 1, 67, 0
1, 8394, Note_off_c, 1, 72, 0
1, 8394, Note_off_c, 1, 43, 0
1, 8394, Note_off_c, 1, 31, 0
1, 8397, Note_off_c, 1, 79, 0
1, 8397, Note_off_c, 1, 71, 0
1, 8400, Note_on_c, 1, 67, 127
1, 8400, Note_on_c, 1, 78, 127
1, 8400, Note_on_c, 1, 72, 127
1, 8400, Note_on_c, 1, 69, 127
1, 8400, Note_on_c, 1, 43, 127
1, 8400, Note_on_c, 1, 31, 127
1, 8421, Note_off_c, 1, 78, 0
1, 8424, Note_on_c, 1, 81, 127
1, 8442, Note_off_c, 1, 67, 0
1, 8442, Note_off_c, 1, 72, 0
1, 8442, Note_off_c, 1, 43, 0
1, 8442, Note_off_c, 1, 31, 0
1, 8445, Note_off_c, 1, 69, 0
1, 8445, Note_off_c, 1, 81, 0
1, 8448, Note_on_c, 1, 67, 127
1, 8448, Note_on_c, 1, 79, 127
1, 8448, Note_on_c, 1, 71, 127
1, 8448, Note_on_c, 1, 62, 127
1, 8448, Note_on_c, 1, 43, 127
1, 8448, Note_on_c, 1, 31, 127
1, 8472, Note_on_c, 1, 74, 127
1, 8490, Note_off_c, 1, 67, 0
1, 8490, Note_off_c, 1, 79, 0
1, 8490, Note_off_c, 1, 31, 0
1, 8493, Note_off_c, 1, 74, 0
1, 8496, Note_on_c, 1, 60, 127
1, 8496, Note_on_c, 1, 72, 127
1, 8496, Note_on_c, 1, 55, 127
1, 8517, Note_off_c, 1, 72, 0
1, 8517, Note_off_c, 1, 55, 0
1, 8520, Note_on_c, 1, 57, 127
1, 8520, Note_on_c, 1, 45, 127
1, 8532, Note_off_c, 1, 62, 0
1, 8532, Note_off_c, 1, 43, 0
1, 8538, Note_off_c, 1, 60, 0
1, 8541, Note_off_c, 1, 71, 0
1, 8541, Note_off_c, 1, 57, 0
1, 8541, Note_off_c, 1, 45, 0
1, 8544, Note_on_c, 1, 67, 127
1, 8544, Note_on_c, 1, 69, 127
1, 8544, Note_on_c, 1, 55, 127
1, 8544, Note_on_c, 1, 43, 127
1, 8565, Note_off_c, 1, 69, 0
1, 8565, Note_off_c, 1, 55, 0
1, 8565, Note_off_c, 1, 43, 0
1, 8568, Note_on_c, 1, 53, 127
1, 8568, Note_on_c, 1, 41, 127
1, 8589, Note_off_c, 1, 67, 0
1, 8589, Note_off_c, 1, 53, 0
1, 8589, Note_off_c, 1, 41, 0
1, 8592, Note_on_c, 1, 67, 127
1, 8592, Note_on_c, 1, 52, 127
1, 8592, Note_on_c, 1, 40, 127
1, 8613, Note_off_c, 1, 67, 0
1, 8613, Note_off_c, 1, 52, 0
1, 8613, Note_off_c, 1, 40, 0
1, 8616, Note_on_c, 1, 69, 127
1, 8616, Note_on_c, 1, 53, 127
1, 8616, Note_on_c, 1, 41, 127
1, 8637, Note_off_c, 1, 69, 0
1, 8637, Note_off_c, 1, 53, 0
1, 8637, Note_off_c, 1, 41, 0
1, 8640, Note_on_c, 1, 67, 127
1, 8640, Note_on_c, 1, 60, 127
1, 8640, Note_on_c, 1, 72, 127
1, 8640, Note_on_c, 1, 52, 127
1, 8640, Note_on_c, 1, 40, 127
1, 8661, Note_off_c, 1, 52, 0
1, 8661, Note_off_c, 1, 40, 0
1, 8664, Note_on_c, 1, 65, 127
1, 8664, Note_on_c, 1, 50, 127
1, 8664, Note_on_c, 1, 38, 127
1, 8682, Note_off_c, 1, 67, 0
1, 8682, Note_off_c, 1, 60, 0
1, 8682, Note_off_c, 1, 72, 0
1, 8685, Note_off_c, 1, 65, 0
1, 8685, Note_off_c, 1, 50, 0
1, 8685, Note_off_c, 1, 38, 0
1, 8688, Note_on_c, 1, 67, 127
1, 8688, Note_on_c, 1, 60, 127
1, 8688, Note_on_c, 1, 72, 127
1, 8688, Note_on_c, 1, 52, 127
1, 8688, Note_on_c, 1, 40, 127
1, 8709, Note_off_c, 1, 52, 0
1, 8709, Note_off_c, 1, 40, 0
1, 8712, Note_on_c, 1, 48, 127
1, 8712, Note_on_c, 1, 36, 127
1, 8730, Note_off_c, 1, 67, 0
1, 8730, Note_off_c, 1, 72, 0
1, 8733, Note_off_c, 1, 60, 0
1, 8733, Note_off_c, 1, 48, 0
1, 8733, Note_off_c, 1, 36, 0
1, 8736, Note_on_c, 1, 69, 127
1, 8736, Note_on_c, 1, 65, 127
1, 8736, Note_on_c, 1, 72, 127
1, 8736, Note_on_c, 1, 53, 127
1, 8736, Note_on_c, 1, 41, 127
1, 8757, Note_off_c, 1, 65, 0
1, 8757, Note_off_c, 1, 72, 0
1, 8757, Note_off_c, 1, 53, 0
1, 8757, Note_off_c, 1, 41, 0
1, 8760, Note_on_c, 1, 70, 127
1, 8760, Note_on_c, 1, 55, 127
1, 8760, Note_on_c, 1, 43, 127
1, 8778, Note_off_c, 1, 69, 0
1, 8781, Note_off_c, 1, 70, 0
1, 8781, Note_off_c, 1, 55, 0
1, 8781, Note_off_c, 1, 43, 0
1, 8784, Note_on_c, 1, 69, 127
1, 8784, Note_on_c, 1, 53, 127
1, 8784, Note_on_c, 1, 41, 127
1, 8805, Note_off_c, 1, 53, 0
1, 8805, Note_off_c, 1, 41, 0
1, 8808, Note_on_c, 1, 67, 127
1, 8808, Note_on_c, 1, 52, 127
1, 8808, Note_on_c, 1, 40, 127
1, 8826, Note_off_c, 1, 69, 0
1, 8829, Note_off_c, 1, 67, 0
1, 8829, Note_off_c, 1, 52, 0
1, 8829, Note_off_c, 1, 40, 0
1, 8832, Note_on_c, 1, 69, 127
1, 8832, Note_on_c, 1, 53, 127
1, 8832, Note_on_c, 1, 41, 127
1, 8853, Note_off_c, 1, 53, 0
1, 8853, Note_off_c, 1, 41, 0
1, 8856, Note_on_c, 1, 65, 127
1, 8856, Note_on_c, 1, 52, 127
1, 8856, Note_on_c, 1, 40, 127
1, 8874, Note_off_c, 1, 69, 0
1, 8877, Note_off_c, 1, 65, 0
1, 8877, Note_off_c, 1, 52, 0
1, 8877, Note_off_c, 1, 40, 0
1, 8880, Note_on_c, 1, 69, 127
1, 8880, Note_on_c, 1, 74, 127
1, 8880, Note_on_c, 1, 50, 127
1, 8880, Note_on_c, 1, 38, 127
1, 8901, Note_off_c, 1, 69, 0
1, 8901, Note_off_c, 1, 50, 0
1, 8901, Note_off_c, 1, 38, 0
1, 8904, Note_on_c, 1, 70, 127
1, 8904, Note_on_c, 1, 55, 127
1, 8904, Note_on_c, 1, 43, 127
1, 8922, Note_off_c, 1, 74, 0
1, 8925, Note_off_c, 1, 70, 0
1, 8925, Note_off_c, 1, 55, 0
1, 8925, Note_off_c, 1, 43, 0
1, 8928, Note_on_c, 1, 69, 127
1, 8928, Note_on_c, 1, 62, 127
1, 8928, Note_on_c, 1, 74, 127
1, 8928, Note_on_c, 1, 53, 127
1, 8928, Note_on_c, 1, 41, 127
1, 8949, Note_off_c, 1, 53, 0
1, 8949, Note_off_c, 1, 41, 0
1, 8952, Note_on_c, 1, 67, 127
1, 8952, Note_on_c, 1, 52, 127
1, 8952, Note_on_c, 1, 40, 127
1, 8970, Note_off_c, 1, 69, 0
1, 8970, Note_off_c, 1, 62, 0
1, 8970, Note_off_c, 1, 74, 0
1, 8973, Note_off_c, 1, 67, 0
1, 8973, Note_off_c, 1, 52, 0
1, 8973, Note_off_c, 1, 40, 0
1, 8976, Note_on_c, 1, 69, 127
1, 8976, Note_on_c, 1, 62, 127
1, 8976, Note_on_c, 1, 74, 127
1, 8976, Note_on_c, 1, 53, 127
1, 8976, Note_on_c, 1, 41, 127
1, 8997, Note_off_c, 1, 53, 0
1, 8997, Note_off_c, 1, 41, 0
1, 9000, Note_on_c, 1, 65, 127
1, 9000, Note_on_c, 1, 50, 127
1, 9000, Note_on_c, 1, 38, 127
1, 9018, Note_off_c, 1, 69, 0
1, 9018, Note_off_c, 1, 62, 0
1, 9018, Note_off_c, 1, 74, 0
1, 9021, Note_off_c, 1, 65, 0
1, 9021, Note_off_c, 1, 50, 0
1, 9021, Note_off_c, 1, 38, 0
1, 9024, Note_on_c, 1, 71, 127
1, 9024, Note_on_c, 1, 59, 127
1, 9024, Note_on_c, 1, 67, 127
1, 9024, Note_on_c, 1, 74, 127
1, 9024, Note_on_c, 1, 55, 127
1, 9024, Note_on_c, 1, 43, 127
1, 9045, Note_off_c, 1, 59, 0
1, 9045, Note_off_c, 1, 67, 0
1, 9045, Note_off_c, 1, 74, 0
1, 9045, Note_off_c, 1, 55, 0
1, 9045, Note_off_c, 1, 43, 0
1, 9048, Note_on_c, 1, 72, 127
1, 9048, Note_on_c, 1, 57, 127
1, 9048, Note_on_c, 1, 45, 127
1, 9066, Note_off_c, 1, 71, 0
1, 9069, Note_off_c, 1, 72, 0
1, 9069, Note_off_c, 1, 57, 0
1, 9069, Note_off_c, 1, 45, 0
1, 9072, Note_on_c, 1, 71, 127
1, 9072, Note_on_c, 1, 55, 127
1, 9072, Note_on_c, 1, 43, 127
1, 9093, Note_off_c, 1, 55, 0
1, 9093, Note_off_c, 1, 43, 0
1, 9096, Note_on_c, 1, 69, 127
1, 9096, Note_on_c, 1, 53, 127
1, 9096, Note_on_c, 1, 41, 127
1, 9114, Note_off_c, 1, 71, 0
1, 9117, Note_off_c, 1, 69, 0
1, 9117, Note_off_c, 1, 53, 0
1, 9117, Note_off_c, 1, 41, 0
1, 9120, Note_on_c, 1, 71, 127
1, 9120, Note_on_c, 1, 55, 127
1, 9120, Note_on_c, 1, 43, 127
1, 9141, Note_off_c, 1, 55, 0
1, 9141, Note_off_c, 1, 43, 0
1, 9144, Note_on_c, 1, 67, 127
1, 9144, Note_on_c, 1, 53, 127
1, 9144, Note_on_c, 1, 41, 127
1, 9162, Note_off_c, 1, 71, 0
1, 9165, Note_off_c, 1, 67, 0
1, 9165, Note_off_c, 1, 53, 0
1, 9165, Note_off_c, 1, 41, 0
1, 9168, Note_on_c, 1, 71, 127
1, 9168, Note_on_c, 1, 76, 127
1, 9168, Note_on_c, 1, 52, 127
1, 9168, Note_on_c, 1, 40, 127
1, 9189, Note_off_c, 1, 71, 0
1, 9189, Note_off_c, 1, 52, 0
1, 9189, Note_off_c, 1, 40, 0
1, 9192, Note_on_c, 1, 72, 127
1, 9192, Note_on_c, 1, 57, 127
1, 9192, Note_on_c, 1, 45, 127
1, 9210, Note_off_c, 1, 76, 0
1, 9213, Note_off_c, 1, 72, 0
1, 9213, Note_off_c, 1, 57, 0
1, 9213, Note_off_c, 1, 45, 0
1, 9216, Note_on_c, 1, 71, 127
1, 9216, Note_on_c, 1, 64, 127
1, 9216, Note_on_c, 1, 76, 127
1, 9216, Note_on_c, 1, 55, 127
1, 9216, Note_on_c, 1, 43, 127
1, 9237, Note_off_c, 1, 55, 0
1, 9237, Note_off_c, 1, 43, 0
1, 9240, Note_on_c, 1, 69, 127
1, 9240, Note_on_c, 1, 53, 127
1, 9240, Note_on_c, 1, 41, 127
1, 9258, Note_off_c, 1, 71, 0
1, 9258, Note_off_c, 1, 64, 0
1, 9258, Note_off_c, 1, 76, 0
1, 9261, Note_off_c, 1, 69, 0
1, 9261, Note_off_c, 1, 53, 0
1, 9261, Note_off_c, 1, 41, 0
1, 9264, Note_on_c, 1, 71, 127
1, 9264, Note_on_c, 1, 64, 127
1, 9264, Note_on_c, 1, 76, 127
1, 9264, Note_on_c, 1, 55, 127
1, 9264, Note_on_c, 1, 43, 127
1, 9285, Note_off_c, 1, 55, 0
1, 9285, Note_off_c, 1, 43, 0
1, 9288, Note_on_c, 1, 67, 127
1, 9288, Note_on_c, 1, 52, 127
1, 9288, Note_on_c, 1, 40, 127
1, 9306, Note_off_c, 1, 71, 0
1, 9306, Note_off_c, 1, 64, 0
1, 9306, Note_off_c, 1, 76, 0
1, 9309, Note_off_c, 1, 67, 0
1, 9309, Note_off_c, 1, 52, 0
1, 9309, Note_off_c, 1, 40, 0
1, 9312, Note_on_c, 1, 72, 127
1, 9312, Note_on_c, 1, 60, 127
1, 9312, Note_on_c, 1, 69, 127
1, 9312, Note_on_c, 1, 76, 127
1, 9312, Note_on_c, 1, 57, 127
1, 9312, Note_on_c, 1, 45, 127
1, 9333, Note_off_c, 1, 60, 0
1, 9333, Note_off_c, 1, 69, 0
1, 9333, Note_off_c, 1, 76, 0
1, 9333, Note_off_c, 1, 57, 0
1, 9333, Note_off_c, 1, 45, 0
1, 9336, Note_on_c, 1, 74, 127
1, 9336, Note_on_c, 1, 58, 127
1, 9336, Note_on_c, 1, 46, 127
1, 9354, Note_off_c, 1, 72, 0
1, 9357, Note_off_c, 1, 74, 0
1, 9357, Note_off_c, 1, 58, 0
1, 9357, Note_off_c, 1, 46, 0
1, 9360, Note_on_c, 1, 72, 127
1, 9360, Note_on_c, 1, 57, 127
1, 9360, Note_on_c, 1, 45, 127
1, 9381, Note_off_c, 1, 57, 0
1, 9381, Note_off_c, 1, 45, 0
1, 9384, Note_on_c, 1, 71, 127
1, 9384, Note_on_c, 1, 55, 127
1, 9384, Note_on_c, 1, 43, 127
1, 9402, Note_off_c, 1, 72, 0
1, 9405, Note_off_c, 1, 71, 0
1, 9405, Note_off_c, 1, 55, 0
1, 9405, Note_off_c, 1, 43, 0
1, 9408, Note_on_c, 1, 72, 127
1, 9408, Note_on_c, 1, 57, 127
1, 9408, Note_on_c, 1, 45, 127
1, 9429, Note_off_c, 1, 57, 0
1, 9429, Note_off_c, 1, 45, 0
1, 9432, Note_on_c, 1, 69, 127
1, 9432, Note_on_c, 1, 55, 127
1, 9432, Note_on_c, 1, 43, 127
1, 9450, Note_off_c, 1, 72, 0
1, 9453, Note_off_c, 1, 69, 0
1, 9453, Note_off_c, 1, 55, 0
1, 9453, Note_off_c, 1, 43, 0
1, 9456, Note_on_c, 1, 72, 127
1, 9456, Note_on_c, 1, 77, 127
1, 9456, Note_on_c, 1, 53, 127
1, 9456, Note_on_c, 1, 41, 127
1, 9477, Note_off_c, 1, 72, 0
1, 9477, Note_off_c, 1, 53, 0
1, 9477, Note_off_c, 1, 41, 0
1, 9480, Note_on_c, 1, 74, 127
1, 9480, Note_on_c, 1, 58, 127
1, 9480, Note_on_c, 1, 46, 127
1, 9498, Note_off_c, 1, 77, 0
1, 9501, Note_off_c, 1, 74, 0
1, 9501, Note_off_c, 1, 58, 0
1, 9501, Note_off_c, 1, 46, 0
1, 9504, Note_on_c, 1, 72, 127
1, 9504, Note_on_c, 1, 60, 127
1, 9504, Note_on_c, 1, 69, 127
1, 9504, Note_on_c, 1, 77, 127
1, 9504, Note_on_c, 1, 57, 127
1, 9504, Note_on_c, 1, 45, 127
1, 9525, Note_off_c, 1, 72, 0
1, 9525, Note_off_c, 1, 57, 0
1, 9525, Note_off_c, 1, 45, 0
1, 9528, Note_on_c, 1, 71, 127
1, 9528, Note_on_c, 1, 55, 127
1, 9528, Note_on_c, 1, 43, 127
1, 9546, Note_off_c, 1, 60, 0
1, 9546, Note_off_c, 1, 69, 0
1, 9546, Note_off_c, 1, 77, 0
1, 9549, Note_off_c, 1, 71, 0
1, 9549, Note_off_c, 1, 55, 0
1, 9549, Note_off_c, 1, 43, 0
1, 9552, Note_on_c, 1, 72, 127
1, 9552, Note_on_c, 1, 60, 127
1, 9552, Note_on_c, 1, 69, 127
1, 9552, Note_on_c, 1, 77, 127
1, 9552, Note_on_c, 1, 57, 127
1, 9552, Note_on_c, 1, 45, 127
1, 9573, Note_off_c, 1, 72, 0
1, 9573, Note_off_c, 1, 57, 0
1, 9573, Note_off_c, 1, 45, 0
1, 9576, Note_on_c, 1, 53, 127
1, 9576, Note_on_c, 1, 41, 127
1, 9594, Note_off_c, 1, 60, 0
1, 9594, Note_off_c, 1, 77, 0
1, 9597, Note_off_c, 1, 69, 0
1, 9597, Note_off_c, 1, 53, 0
1, 9597, Note_off_c, 1, 41, 0
1, 9600, Note_on_c, 1, 71, 127
1, 9600, Note_on_c, 1, 59, 127
1, 9600, Note_on_c, 1, 67, 127
1, 9600, Note_on_c, 1, 77, 127
1, 9600, Note_on_c, 1, 55, 127
1, 9600, Note_on_c, 1, 43, 127
1, 9621, Note_off_c, 1, 71, 0
1, 9621, Note_off_c, 1, 59, 0
1, 9621, Note_off_c, 1, 67, 0
1, 9621, Note_off_c, 1, 77, 0
1, 9624, Note_on_c, 1, 72, 127
1, 9624, Note_on_c, 1, 76, 127
1, 9642, Note_off_c, 1, 55, 0
1, 9642, Note_off_c, 1, 43, 0
1, 9645, Note_off_c, 1, 72, 0
1, 9645, Note_off_c, 1, 76, 0
1, 9648, Note_on_c, 1, 71, 127
1, 9648, Note_on_c, 1, 74, 127
1, 9648, Note_on_c, 1, 43, 127
1, 9648, Note_on_c, 1, 31, 127
1, 9669, Note_off_c, 1, 71, 0
1, 9669, Note_off_c, 1, 74, 0
1, 9672, Note_on_c, 1, 69, 127
1, 9672, Note_on_c, 1, 72, 127
1, 9690, Note_off_c, 1, 43, 0
1, 9690, Note_off_c, 1, 31, 0
1, 9693, Note_off_c, 1, 69, 0
1, 9693, Note_off_c, 1, 72, 0
1, 9696, Note_on_c, 1, 67, 127
1, 9696, Note_on_c, 1, 74, 127
1, 9696, Note_on_c, 1, 43, 127
1, 9696, Note_on_c, 1, 31, 127
1, 9717, Note_off_c, 1, 67, 0
1, 9717, Note_off_c, 1, 74, 0
1, 9720, Note_on_c, 1, 69, 127
1, 9720, Note_on_c, 1, 71, 127
1, 9738, Note_off_c, 1, 43, 0
1, 9738, Note_off_c, 1, 31, 0
1, 9741, Note_off_c, 1, 69, 0
1, 9741, Note_off_c, 1, 71, 0
1, 9744, Note_on_c, 1, 71, 127
1, 9744, Note_on_c, 1, 79, 127
1, 9744, Note_on_c, 1, 43, 127
1, 9744, Note_on_c, 1, 31, 127
1, 9765, Note_off_c, 1, 71, 0
1, 9768, Note_on_c, 1, 72, 127
1, 9786, Note_off_c, 1, 79, 0
1, 9786, Note_off_c, 1, 43, 0
1, 9786, Note_off_c, 1, 31, 0
1, 9789, Note_off_c, 1, 72, 0
1, 9792, Note_on_c, 1, 74, 127
1, 9792, Note_on_c, 1, 79, 127
1, 9792, Note_on_c, 1, 47, 127
1, 9792, Note_on_c, 1, 35, 127
1, 9813, Note_off_c, 1, 74, 0
1, 9813, Note_off_c, 1, 47, 0
1, 9813, Note_off_c, 1, 35, 0
1, 9816, Note_on_c, 1, 72, 127
1, 9816, Note_on_c, 1, 45, 127
1, 9816, Note_on_c, 1, 33, 127
1, 9834, Note_off_c, 1, 79, 0
1, 9837, Note_off_c, 1, 72, 0
1, 9837, Note_off_c, 1, 45, 0
1, 9837, Note_off_c, 1, 33, 0
1, 9840, Note_on_c, 1, 74, 127
1, 9840, Note_on_c, 1, 79, 127
1, 9840, Note_on_c, 1, 47, 127
1, 9840, Note_on_c, 1, 35, 127
1, 9861, Note_off_c, 1, 74, 0
1, 9861, Note_off_c, 1, 47, 0
1, 9861, Note_off_c, 1, 35, 0
1, 9864, Note_on_c, 1, 71, 127
1, 9864, Note_on_c, 1, 43, 127
1, 9864, Note_on_c, 1, 31, 127
1, 9882, Note_off_c, 1, 79, 0
1, 9885, Note_off_c, 1, 71, 0
1, 9885, Note_off_c, 1, 43, 0
1, 9885, Note_off_c, 1, 31, 0
1, 9888, Note_on_c, 1, 72, 127
1, 9888, Note_on_c, 1, 67, 127
1, 9888, Note_on_c, 1, 48, 127
1, 9888, Note_on_c, 1, 79, 127
1, 9888, Note_on_c, 1, 36, 127
1, 9888, Note_on_c, 1, 76, 127
1, 9909, Note_off_c, 1, 72, 0
1, 9912, Note_on_c, 1, 74, 127
1, 9930, Note_off_c, 1, 67, 0
1, 9930, Note_off_c, 1, 48, 0
1, 9930, Note_off_c, 1, 36, 0
1, 9930, Note_off_c, 1, 76, 0
1, 9933, Note_off_c, 1, 74, 0
1, 9936, Note_on_c, 1, 64, 127
1, 9936, Note_on_c, 1, 52, 127
1, 9936, Note_on_c, 1, 40, 127
1, 9978, Note_off_c, 1, 64, 0
1, 9978, Note_off_c, 1, 52, 0
1, 9978, Note_off_c, 1, 40, 0
1, 9984, Note_on_c, 1, 55, 127
1, 9984, Note_on_c, 1, 43, 127
1, 10026, Note_off_c, 1, 55, 0
1, 10026, Note_off_c, 1, 43, 0
1, 10104, Note_on_c, 1, 71, 127
1, 10104, Note_on_c, 1, 65, 127
1, 10125, Note_off_c, 1, 71, 0
1, 10125, Note_off_c, 1, 65, 0
1, 10176, Note_on_c, 1, 47, 127
1, 10176, Note_on_c, 1, 35, 127
1, 10218, Note_off_c, 1, 47, 0
1, 10218, Note_off_c, 1, 35, 0
1, 10224, Note_on_c, 1, 50, 127
1, 10224, Note_on_c, 1, 38, 127
1, 10266, Note_off_c, 1, 50, 0
1, 10266, Note_off_c, 1, 38, 0
1, 10272, Note_on_c, 1, 77, 127
1, 10272, Note_on_c, 1, 62, 127
1, 10293, Note_off_c, 1, 77, 0
1, 10314, Note_off_c, 1, 62, 0
1, 10368, Note_on_c, 1, 83, 127
1, 10368, Note_on_c, 1, 31, 127
1, 10389, Note_off_c, 1, 83, 0
1, 10392, Note_on_c, 1, 81, 127
1, 10410, Note_off_c, 1, 31, 0
1, 10413, Note_off_c, 1, 81, 0
1, 10464, Note_on_c, 1, 84, 127
1, 10464, Note_on_c, 1, 45, 127
1, 10464, Note_on_c, 1, 33, 127
1, 10485, Note_off_c, 1, 79, 0
1, 10506, Note_off_c, 1, 84, 0
1, 10506, Note_off_c, 1, 45, 0
1, 10506, Note_off_c, 1, 33, 0
1, 10512, Note_on_c, 1, 76, 127
1, 10512, Note_on_c, 1, 67, 127
1, 10512, Note_on_c, 1, 84, 127
1, 10512, Note_on_c, 1, 81, 127
1, 10512, Note_on_c, 1, 48, 127
1, 10512, Note_on_c, 1, 79, 127
1, 10512, Note_on_c, 1, 36, 127
1, 10512, Note_on_c, 1, 64, 127
1, 10512, Note_on_c, 1, 69, 127
1, 10533, Note_off_c, 1, 79, 0
1, 10536, Note_on_c, 1, 74, 127
1, 10536, Note_on_c, 1, 77, 127
1, 10554, Note_off_c, 1, 76, 0
1, 10554, Note_off_c, 1, 67, 0
1, 10554, Note_off_c, 1, 84, 0
1, 10554, Note_off_c, 1, 81, 0
1, 10554, Note_off_c, 1, 48, 0
1, 10554, Note_off_c, 1, 36, 0
1, 10554, Note_off_c, 1, 64, 0
1, 10554, Note_off_c, 1, 69, 0
1, 10557, Note_off_c, 1, 74, 0
1, 10557, Note_off_c, 1, 77, 0
1, 10560, Note_on_c, 1, 76, 127
1, 10560, Note_on_c, 1, 60, 127
1, 10560, Note_on_c, 1, 84, 127
1, 10560, Note_on_c, 1, 81, 127
1, 10560, Note_on_c, 1, 45, 127
1, 10560, Note_on_c, 1, 79, 127
1, 10560, Note_on_c, 1, 33, 127
1, 10560, Note_on_c, 1, 64, 127
1, 10560, Note_on_c, 1, 72, 127
1, 10581, Note_off_c, 1, 79, 0
1, 10602, Note_off_c, 1, 60, 0
1, 10602, Note_off_c, 1, 84, 0
1, 10602, Note_off_c, 1, 81, 0
1, 10602, Note_off_c, 1, 45, 0
1, 10602, Note_off_c, 1, 33, 0
1, 10602, Note_off_c, 1, 64, 0
1, 10605, Note_off_c, 1, 76, 0
1, 10605, Note_off_c, 1, 72, 0
1, 10608, Note_on_c, 1, 74, 127
1, 10608, Note_on_c, 1, 65, 127
1, 10608, Note_on_c, 1, 84, 127
1, 10608, Note_on_c, 1, 81, 127
1, 10608, Note_on_c, 1, 41, 127
1, 10608, Note_on_c, 1, 29, 127
1, 10608, Note_on_c, 1, 62, 127
1, 10608, Note_on_c, 1, 69, 127
1, 10632, Note_on_c, 1, 76, 127
1, 10632, Note_on_c, 1, 82, 127
1, 10650, Note_off_c, 1, 74, 0
1, 10650, Note_off_c, 1, 65, 0
1, 10650, Note_off_c, 1, 84, 0
1, 10650, Note_off_c, 1, 81, 0
1, 10650, Note_off_c, 1, 41, 0
1, 10650, Note_off_c, 1, 29, 0
1, 10650, Note_off_c, 1, 62, 0
1, 10650, Note_off_c, 1, 69, 0
1, 10653, Note_off_c, 1, 76, 0
1, 10653, Note_off_c, 1, 82, 0
1, 10656, Note_on_c, 1, 77, 127
1, 10656, Note_on_c, 1, 69, 127
1, 10656, Note_on_c, 1, 86, 127
1, 10656, Note_on_c, 1, 38, 127
1, 10656, Note_on_c, 1, 81, 127
1, 10656, Note_on_c, 1, 26, 127
1, 10656, Note_on_c, 1, 65, 127
1, 10677, Note_off_c, 1, 86, 0
1, 10677, Note_off_c, 1, 81, 0
1, 10680, Note_on_c, 1, 76, 127
1, 10680, Note_on_c, 1, 84, 127
1, 10680, Note_on_c, 1, 79, 127
1, 10698, Note_off_c, 1, 77, 0
1, 10698, Note_off_c, 1, 69, 0
1, 10698, Note_off_c, 1, 38, 0
1, 10698, Note_off_c, 1, 26, 0
1, 10698, Note_off_c, 1, 65, 0
1, 10701, Note_off_c, 1, 76, 0
1, 10701, Note_off_c, 1, 84, 0
1, 10701, Note_off_c, 1, 79, 0
1, 10704, Note_on_c, 1, 74, 127
1, 10704, Note_on_c, 1, 72, 127
1, 10704, Note_on_c, 1, 83, 127
1, 10704, Note_on_c, 1, 81, 127
1, 10704, Note_on_c, 1, 77, 127
1, 10725, Note_off_c, 1, 83, 0
1, 10725, Note_off_c, 1, 77, 0
1, 10728, Note_on_c, 1, 76, 127
1, 10746, Note_off_c, 1, 74, 0
1, 10749, Note_off_c, 1, 72, 0
1, 10749, Note_off_c, 1, 81, 0
1, 10749, Note_off_c, 1, 76, 0
1, 10752, Note_on_c, 1, 74, 127
1, 10752, Note_on_c, 1, 67, 127
1, 10752, Note_on_c, 1, 83, 127
1, 10752, Note_on_c, 1, 79, 127
1, 10752, Note_on_c, 1, 43, 127
1, 10752, Note_on_c, 1, 31, 127
1, 10752, Note_on_c, 1, 62, 127
1, 10752, Note_on_c, 1, 71, 127
1, 10773, Note_off_c, 1, 83, 0
1, 10773, Note_off_c, 1, 79, 0
1, 10776, Note_on_c, 1, 84, 127
1, 10776, Note_on_c, 1, 81, 127
1, 10794, Note_off_c, 1, 74, 0
1, 10794, Note_off_c, 1, 67, 0
1, 10794, Note_off_c, 1, 43, 0
1, 10794, Note_off_c, 1, 31, 0
1, 10794, Note_off_c, 1, 62, 0
1, 10794, Note_off_c, 1, 71, 0
1, 10797, Note_off_c, 1, 84, 0
1, 10797, Note_off_c, 1, 81, 0
1, 10800, Note_on_c, 1, 74, 127
1, 10800, Note_on_c, 1, 67, 127
1, 10800, Note_on_c, 1, 86, 127
1, 10800, Note_on_c, 1, 83, 127
1, 10800, Note_on_c, 1, 69, 127
1, 10800, Note_on_c, 1, 43, 127
1, 10800, Note_on_c, 1, 72, 127
1, 10800, Note_on_c, 1, 31, 127
1, 10810, Note_off_c, 1, 86, 0
1, 10810, Note_off_c, 1, 83, 0
1, 10812, Note_on_c, 1, 84, 127
1, 10812, Note_on_c, 1, 81, 127
1, 10821, Note_off_c, 1, 74, 0
1, 10822, Note_off_c, 1, 84, 0
1, 10822, Note_off_c, 1, 81, 0
1, 10824, Note_on_c, 1, 71, 127
1, 10842, Note_off_c, 1, 69, 0
1, 10842, Note_off_c, 1, 43, 0
1, 10842, Note_off_c, 1, 72, 0
1, 10842, Note_off_c, 1, 31, 0
1, 10845, Note_off_c, 1, 67, 0
1, 10845, Note_off_c, 1, 71, 0
1, 10848, Note_on_c, 1, 74, 127
1, 10848, Note_on_c, 1, 67, 127
1, 10848, Note_on_c, 1, 86, 127
1, 10848, Note_on_c, 1, 83, 127
1, 10848, Note_on_c, 1, 78, 127
1, 10848, Note_on_c, 1, 43, 127
1, 10848, Note_on_c, 1, 69, 127
1, 10848, Note_on_c, 1, 31, 127
1, 10848, Note_on_c, 1, 71, 127
1, 10848, Note_on_c, 1, 66, 127
1, 10858, Note_off_c, 1, 86, 0
1, 10858, Note_off_c, 1, 83, 0
1, 10860, Note_on_c, 1, 84, 127
1, 10860, Note_on_c, 1, 81, 127
1, 10869, Note_off_c, 1, 74, 0
1, 10869, Note_off_c, 1, 67, 0
1, 10869, Note_off_c, 1, 69, 0
1, 10870, Note_off_c, 1, 84, 0
1, 10870, Note_off_c, 1, 81, 0
1, 10872, Note_on_c, 1, 79, 127
1, 10882, Note_off_c, 1, 79, 0
1, 10890, Note_off_c, 1, 78, 0
1, 10890, Note_off_c, 1, 43, 0
1, 10890, Note_off_c, 1, 31, 0
1, 10890, Note_off_c, 1, 71, 0
1, 10890, Note_off_c, 1, 66, 0
1, 10896, Note_on_c, 1, 74, 127
1, 10896, Note_on_c, 1, 67, 127
1, 10896, Note_on_c, 1, 86, 127
1, 10896, Note_on_c, 1, 83, 127
1, 10896, Note_on_c, 1, 79, 127
1, 10896, Note_on_c, 1, 43, 127
1, 10896, Note_on_c, 1, 31, 127
1, 10896, Note_on_c, 1, 71, 127
1, 10896, Note_on_c, 1, 62, 127
1, 10917, Note_off_c, 1, 31, 0
1, 10920, Note_on_c, 1, 76, 127
1, 10920, Note_on_c, 1, 45, 127
1, 10920, Note_on_c, 1, 33, 127
1, 10938, Note_off_c, 1, 74, 0
1, 10938, Note_off_c, 1, 67, 0
1, 10938, Note_off_c, 1, 86, 0
1, 10941, Note_off_c, 1, 76, 0
1, 10941, Note_off_c, 1, 45, 0
1, 10941, Note_off_c, 1, 33, 0
1, 10944, Note_on_c, 1, 77, 127
1, 10944, Note_on_c, 1, 47, 127
1, 10944, Note_on_c, 1, 35, 127
1, 10954, Note_off_c, 1, 77, 0
1, 10965, Note_off_c, 1, 47, 0
1, 10965, Note_off_c, 1, 35, 0
1, 10980, Note_off_c, 1, 83, 0
1, 10980, Note_off_c, 1, 43, 0
1, 10980, Note_off_c, 1, 71, 0
1, 10980, Note_off_c, 1, 62, 0
1, 10986, Note_off_c, 1, 79, 0
1, 10992, Note_on_c, 1, 77, 127
1, 10992, Note_on_c, 1, 47, 127
1, 10992, Note_on_c, 1, 35, 127
1, 11002, Note_off_c, 1, 77, 0
1, 11004, Note_on_c, 1, 76, 127
1, 11013, Note_off_c, 1, 47, 0
1, 11013, Note_off_c, 1, 35, 0
1, 11014, Note_off_c, 1, 76, 0
1, 11016, Note_on_c, 1, 74, 127
1, 11016, Note_on_c, 1, 43, 127
1, 11016, Note_on_c, 1, 31, 127
1, 11026, Note_off_c, 1, 74, 0
1, 11028, Note_on_c, 1, 76, 127
1, 11037, Note_off_c, 1, 43, 0
1, 11037, Note_off_c, 1, 31, 0
1, 11038, Note_off_c, 1, 76, 0
1, 11040, Note_on_c, 1, 77, 127
1, 11040, Note_on_c, 1, 50, 127
1, 11040, Note_on_c, 1, 38, 127
1, 11061, Note_off_c, 1, 77, 0
1, 11061, Note_off_c, 1, 50, 0
1, 11061, Note_off_c, 1, 38, 0
1, 11064, Note_on_c, 1, 76, 127
1, 11064, Note_on_c, 1, 52, 127
1, 11064, Note_on_c, 1, 40, 127
1, 11085, Note_off_c, 1, 76, 0
1, 11085, Note_off_c, 1, 52, 0
1, 11085, Note_off_c, 1, 40, 0
1, 11088, Note_on_c, 1, 74, 127
1, 11088, Note_on_c, 1, 53, 127
1, 11088, Note_on_c, 1, 41, 127
1, 11109, Note_off_c, 1, 74, 0
1, 11109, Note_off_c, 1, 53, 0
1, 11109, Note_off_c, 1, 41, 0
1, 11112, Note_on_c, 1, 72, 127
1, 11112, Note_on_c, 1, 52, 127
1, 11112, Note_on_c, 1, 40, 127
1, 11133, Note_off_c, 1, 72, 0
1, 11133, Note_off_c, 1, 52, 0
1, 11133, Note_off_c, 1, 40, 0
1, 11136, Note_on_c, 1, 74, 127
1, 11136, Note_on_c, 1, 53, 127
1, 11136, Note_on_c, 1, 41, 127
1, 11157, Note_off_c, 1, 74, 0
1, 11157, Note_off_c, 1, 53, 0
1, 11157, Note_off_c, 1, 41, 0
1, 11160, Note_on_c, 1, 71, 127
1, 11160, Note_on_c, 1, 50, 127
1, 11160, Note_on_c, 1, 38, 127
1, 11181, Note_off_c, 1, 71, 0
1, 11181, Note_off_c, 1, 50, 0
1, 11181, Note_off_c, 1, 38, 0
1, 11184, Note_on_c, 1, 79, 127
1, 11184, Note_on_c, 1, 52, 127
1, 11184, Note_on_c, 1, 40, 127
1, 11205, Note_off_c, 1, 79, 0
1, 11205, Note_off_c, 1, 52, 0
1, 11205, Note_off_c, 1, 40, 0
1, 11208, Note_on_c, 1, 74, 127
1, 11208, Note_on_c, 1, 53, 127
1, 11208, Note_on_c, 1, 41, 127
1, 11229, Note_off_c, 1, 74, 0
1, 11229, Note_off_c, 1, 53, 0
1, 11229, Note_off_c, 1, 41, 0
1, 11232, Note_on_c, 1, 76, 127
1, 11232, Note_on_c, 1, 55, 127
1, 11232, Note_on_c, 1, 43, 127
1, 11253, Note_off_c, 1, 76, 0
1, 11253, Note_off_c, 1, 55, 0
1, 11253, Note_off_c, 1, 43, 0
1, 11256, Note_on_c, 1, 71, 127
1, 11256, Note_on_c, 1, 52, 127
1, 11256, Note_on_c, 1, 40, 127
1, 11277, Note_off_c, 1, 71, 0
1, 11277, Note_off_c, 1, 52, 0
1, 11277, Note_off_c, 1, 40, 0
1, 11280, Note_on_c, 1, 72, 127
1, 11280, Note_on_c, 1, 57, 127
1, 11280, Note_on_c, 1, 45, 127
1, 11301, Note_off_c, 1, 72, 0
1, 11301, Note_off_c, 1, 57, 0
1, 11301, Note_off_c, 1, 45, 0
1, 11304, Note_on_c, 1, 71, 127
1, 11304, Note_on_c, 1, 55, 127
1, 11304, Note_on_c, 1, 43, 127
1, 11325, Note_off_c, 1, 71, 0
1, 11325, Note_off_c, 1, 55, 0
1, 11325, Note_off_c, 1, 43, 0
1, 11328, Note_on_c, 1, 72, 127
1, 11328, Note_on_c, 1, 57, 127
1, 11328, Note_on_c, 1, 45, 127
1, 11349, Note_off_c, 1, 72, 0
1, 11349, Note_off_c, 1, 57, 0
1, 11349, Note_off_c, 1, 45, 0
1, 11352, Note_on_c, 1, 77, 127
1, 11352, Note_on_c, 1, 53, 127
1, 11352, Note_on_c, 1, 41, 127
1, 11373, Note_off_c, 1, 77, 0
1, 11373, Note_off_c, 1, 53, 0
1, 11373, Note_off_c, 1, 41, 0
1, 11376, Note_on_c, 1, 67, 127
1, 11376, Note_on_c, 1, 74, 127
1, 11376, Note_on_c, 1, 55, 127
1, 11376, Note_on_c, 1, 43, 127
1, 11418, Note_off_c, 1, 55, 0
1, 11418, Note_off_c, 1, 43, 0
1, 11424, Note_on_c, 1, 31, 127
1, 11439, Note_off_c, 1, 67, 0
1, 11439, Note_off_c, 1, 74, 0
1, 11448, Note_on_c, 1, 72, 127
1, 11466, Note_off_c, 1, 31, 0
1, 11469, Note_off_c, 1, 72, 0
1, 11472, Note_on_c, 1, 60, 127
1, 11472, Note_on_c, 1, 67, 127
1, 11472, Note_on_c, 1, 72, 127
1, 11472, Note_on_c, 1, 36, 127
1, 11472, Note_on_c, 1, 24, 127
1, 11514, Note_off_c, 1, 36, 0
1, 11514, Note_off_c, 1, 24, 0
1, 11520, Note_on_c, 1, 40, 127
1, 11520, Note_on_c, 1, 28, 127
1, 11544, Note_on_c, 1, 76, 127
1, 11556, Note_off_c, 1, 60, 0
1, 11556, Note_off_c, 1, 67, 0
1, 11556, Note_off_c, 1, 72, 0
1, 11562, Note_off_c, 1, 40, 0
1, 11562, Note_off_c, 1, 28, 0
1, 11565, Note_off_c, 1, 76, 0
1, 11568, Note_on_c, 1, 74, 127
1, 11568, Note_on_c, 1, 71, 127
1, 11568, Note_on_c, 1, 43, 127
1, 11568, Note_on_c, 1, 31, 127
1, 11568, Note_on_c, 1, 62, 127
1, 11568, Note_on_c, 1, 67, 127
1, 11589, Note_off_c, 1, 74, 0
1, 11592, Note_on_c, 1, 77, 127
1, 11610, Note_off_c, 1, 71, 0
1, 11610, Note_off_c, 1, 43, 0
1, 11610, Note_off_c, 1, 31, 0
1, 11610, Note_off_c, 1, 62, 0
1, 11610, Note_off_c, 1, 67, 0
1, 11613, Note_off_c, 1, 77, 0
1, 11616, Note_on_c, 1, 76, 127
1, 11616, Note_on_c, 1, 72, 127
1, 11616, Note_on_c, 1, 48, 127
1, 11616, Note_on_c, 1, 36, 127
1, 11616, Note_on_c, 1, 67, 127
1, 11640, Note_on_c, 1, 74, 127
1, 11658, Note_off_c, 1, 76, 0
1, 11658, Note_off_c, 1, 72, 0
1, 11658, Note_off_c, 1, 48, 0
1, 11658, Note_off_c, 1, 36, 0
1, 11658, Note_off_c, 1, 67, 0
1, 11661, Note_off_c, 1, 74, 0
1, 11664, Note_on_c, 1, 72, 127
1, 11664, Note_on_c, 1, 52, 127
1, 11664, Note_on_c, 1, 40, 127
1, 11685, Note_off_c, 1, 72, 0
1, 11688, Note_on_c, 1, 71, 127
1, 11706, Note_off_c, 1, 52, 0
1, 11706, Note_off_c, 1, 40, 0
1, 11709, Note_off_c, 1, 71, 0
1, 11712, Note_on_c, 1, 72, 127
1, 11712, Note_on_c, 1, 57, 127
1, 11712, Note_on_c, 1, 45, 127
1, 11733, Note_off_c, 1, 72, 0
1, 11736, Note_on_c, 1, 69, 127
1, 11754, Note_off_c, 1, 57, 0
1, 11754, Note_off_c, 1, 45, 0
1, 11757, Note_off_c, 1, 69, 0
1, 11760, Note_on_c, 1, 74, 127
1, 11760, Note_on_c, 1, 67, 127
1, 11760, Note_on_c, 1, 47, 127
1, 11760, Note_on_c, 1, 35, 127
1, 11760, Note_on_c, 1, 62, 127
1, 11802, Note_off_c, 1, 74, 0
1, 11802, Note_off_c, 1, 67, 0
1, 11802, Note_off_c, 1, 47, 0
1, 11802, Note_off_c, 1, 35, 0
1, 11805, Note_off_c, 1, 62, 0
1, 11808, Note_on_c, 1, 67, 127
1, 11808, Note_on_c, 1, 50, 127
1, 11808, Note_on_c, 1, 38, 127
1, 11829, Note_off_c, 1, 67, 0
1, 11832, Note_on_c, 1, 69, 127
1, 11850, Note_off_c, 1, 50, 0
1, 11850, Note_off_c, 1, 38, 0
1, 11853, Note_off_c, 1, 69, 0
1, 11856, Note_on_c, 1, 71, 127
1, 11856, Note_on_c, 1, 55, 127
1, 11856, Note_on_c, 1, 43, 127
1, 11877, Note_off_c, 1, 71, 0
1, 11880, Note_on_c, 1, 67, 127
1, 11898, Note_off_c, 1, 55, 0
1, 11898, Note_off_c, 1, 43, 0
1, 11901, Note_off_c, 1, 67, 0
1, 11904, Note_on_c, 1, 72, 127
1, 11904, Note_on_c, 1, 69, 127
1, 11904, Note_on_c, 1, 45, 127
1, 11904, Note_on_c, 1, 33, 127
1, 11904, Note_on_c, 1, 64, 127
1, 11928, Note_on_c, 1, 71, 127
1, 11946, Note_off_c, 1, 72, 0
1, 11946, Note_off_c, 1, 69, 0
1, 11946, Note_off_c, 1, 45, 0
1, 11946, Note_off_c, 1, 33, 0
1, 11946, Note_off_c, 1, 64, 0
1, 11949, Note_off_c, 1, 71, 0
1, 11952, Note_on_c, 1, 69, 127
1, 11952, Note_on_c, 1, 48, 127
1, 11952, Note_on_c, 1, 36, 127
1, 11973, Note_off_c, 1, 69, 0
1, 11976, Note_on_c, 1, 67, 127
1, 11994, Note_off_c, 1, 48, 0
1, 11994, Note_off_c, 1, 36, 0
1, 11997, Note_off_c, 1, 67, 0
1, 12000, Note_on_c, 1, 69, 127
1, 12000, Note_on_c, 1, 53, 127
1, 12000, Note_on_c, 1, 41, 127
1, 12021, Note_off_c, 1, 69, 0
1, 12024, Note_on_c, 1, 65, 127
1, 12042, Note_off_c, 1, 53, 0
1, 12042, Note_off_c, 1, 41, 0
1, 12045, Note_off_c, 1, 65, 0
1, 12048, Note_on_c, 1, 71, 127
1, 12048, Note_on_c, 1, 64, 127
1, 12048, Note_on_c, 1, 43, 127
1, 12048, Note_on_c, 1, 31, 127
1, 12048, Note_on_c, 1, 59, 127
1, 12090, Note_off_c, 1, 71, 0
1, 12090, Note_off_c, 1, 64, 0
1, 12090, Note_off_c, 1, 43, 0
1, 12090, Note_off_c, 1, 31, 0
1, 12093, Note_off_c, 1, 59, 0
1, 12096, Note_on_c, 1, 64, 127
1, 12096, Note_on_c, 1, 47, 127
1, 12096, Note_on_c, 1, 35, 127
1, 12117, Note_off_c, 1, 64, 0
1, 12120, Note_on_c, 1, 65, 127
1, 12138, Note_off_c, 1, 47, 0
1, 12138, Note_off_c, 1, 35, 0
1, 12141, Note_off_c, 1, 65, 0
1, 12144, Note_on_c, 1, 67, 127
1, 12144, Note_on_c, 1, 52, 127
1, 12144, Note_on_c, 1, 40, 127
1, 12165, Note_off_c, 1, 67, 0
1, 12168, Note_on_c, 1, 64, 127
1, 12186, Note_off_c, 1, 52, 0
1, 12186, Note_off_c, 1, 40, 0
1, 12189, Note_off_c, 1, 64, 0
1, 12192, Note_on_c, 1, 69, 127
1, 12192, Note_on_c, 1, 65, 127
1, 12192, Note_on_c, 1, 41, 127
1, 12192, Note_on_c, 1, 29, 127
1, 12192, Note_on_c, 1, 72, 127
1, 12192, Note_on_c, 1, 60, 127
1, 12216, Note_on_c, 1, 67, 127
1, 12234, Note_off_c, 1, 69, 0
1, 12234, Note_off_c, 1, 65, 0
1, 12234, Note_off_c, 1, 41, 0
1, 12234, Note_off_c, 1, 29, 0
1, 12234, Note_off_c, 1, 72, 0
1, 12234, Note_off_c, 1, 60, 0
1, 12237, Note_off_c, 1, 67, 0
1, 12240, Note_on_c, 1, 65, 127
1, 12240, Note_on_c, 1, 45, 127
1, 12240, Note_on_c, 1, 33, 127
1, 12261, Note_off_c, 1, 65, 0
1, 12264, Note_on_c, 1, 64, 127
1, 12282, Note_off_c, 1, 45, 0
1, 12282, Note_off_c, 1, 33, 0
1, 12285, Note_off_c, 1, 64, 0
1, 12288, Note_on_c, 1, 65, 127
1, 12288, Note_on_c, 1, 50, 127
1, 12288, Note_on_c, 1, 38, 127
1, 12309, Note_off_c, 1, 65, 0
1, 12312, Note_on_c, 1, 62, 127
1, 12330, Note_off_c, 1, 50, 0
1, 12330, Note_off_c, 1, 38, 0
1, 12333, Note_off_c, 1, 62, 0
1, 12336, Note_on_c, 1, 67, 127
1, 12336, Note_on_c, 1, 60, 127
1, 12336, Note_on_c, 1, 40, 127
1, 12336, Note_on_c, 1, 28, 127
1, 12336, Note_on_c, 1, 64, 127
1, 12336, Note_on_c, 1, 72, 127
1, 12336, Note_on_c, 1, 55, 127
1, 12357, Note_off_c, 1, 67, 0
1, 12378, Note_off_c, 1, 60, 0
1, 12378, Note_off_c, 1, 40, 0
1, 12378, Note_off_c, 1, 28, 0
1, 12378, Note_off_c, 1, 64, 0
1, 12378, Note_off_c, 1, 72, 0
1, 12381, Note_off_c, 1, 55, 0
1, 12384, Note_on_c, 1, 60, 127
1, 12384, Note_on_c, 1, 43, 127
1, 12384, Note_on_c, 1, 31, 127
1, 12405, Note_off_c, 1, 60, 0
1, 12408, Note_on_c, 1, 62, 127
1, 12426, Note_off_c, 1, 43, 0
1, 12426, Note_off_c, 1, 31, 0
1, 12429, Note_off_c, 1, 62, 0
1, 12432, Note_on_c, 1, 64, 127
1, 12432, Note_on_c, 1, 48, 127
1, 12432, Note_on_c, 1, 36, 127
1, 12453, Note_off_c, 1, 64, 0
1, 12456, Note_on_c, 1, 60, 127
1, 12474, Note_off_c, 1, 48, 0
1, 12474, Note_off_c, 1, 36, 0
1, 12477, Note_off_c, 1, 60, 0
1, 12480, Note_on_c, 1, 74, 127
1, 12480, Note_on_c, 1, 69, 127
1, 12480, Note_on_c, 1, 65, 127
1, 12480, Note_on_c, 1, 50, 127
1, 12480, Note_on_c, 1, 62, 127
1, 12480, Note_on_c, 1, 38, 127
1, 12480, Note_on_c, 1, 26, 127
1, 12480, Note_on_c, 1, 77, 127
1, 12480, Note_on_c, 1, 57, 127
1, 12501, Note_off_c, 1, 74, 0
1, 12504, Note_on_c, 1, 76, 127
1, 12504, Note_on_c, 1, 70, 127
1, 12504, Note_on_c, 1, 67, 127
1, 12522, Note_off_c, 1, 69, 0
1, 12522, Note_off_c, 1, 65, 0
1, 12522, Note_off_c, 1, 50, 0
1, 12522, Note_off_c, 1, 62, 0
1, 12522, Note_off_c, 1, 38, 0
1, 12522, Note_off_c, 1, 26, 0
1, 12522, Note_off_c, 1, 77, 0
1, 12522, Note_off_c, 1, 57, 0
1, 12525, Note_off_c, 1, 76, 0
1, 12525, Note_off_c, 1, 70, 0
1, 12525, Note_off_c, 1, 67, 0
1, 12528, Note_on_c, 1, 74, 127
1, 12528, Note_on_c, 1, 69, 127
1, 12528, Note_on_c, 1, 65, 127
1, 12528, Note_on_c, 1, 57, 127
1, 12528, Note_on_c, 1, 62, 127
1, 12528, Note_on_c, 1, 45, 127
1, 12528, Note_on_c, 1, 33, 127
1, 12528, Note_on_c, 1, 77, 127
1, 12549, Note_off_c, 1, 69, 0
1, 12552, Note_on_c, 1, 76, 127
1, 12552, Note_on_c, 1, 67, 127
1, 12570, Note_off_c, 1, 74, 0
1, 12570, Note_off_c, 1, 65, 0
1, 12570, Note_off_c, 1, 57, 0
1, 12570, Note_off_c, 1, 62, 0
1, 12570, Note_off_c, 1, 45, 0
1, 12570, Note_off_c, 1, 33, 0
1, 12570, Note_off_c, 1, 77, 0
1, 12573, Note_off_c, 1, 76, 0
1, 12573, Note_off_c, 1, 67, 0
1, 12576, Note_on_c, 1, 77, 127
1, 12576, Note_on_c, 1, 65, 127
1, 12576, Note_on_c, 1, 69, 127
1, 12576, Note_on_c, 1, 62, 127
1, 12576, Note_on_c, 1, 50, 127
1, 12576, Note_on_c, 1, 38, 127
1, 12576, Note_on_c, 1, 57, 127
1, 12600, Note_on_c, 1, 76, 127
1, 12600, Note_on_c, 1, 67, 127
1, 12618, Note_off_c, 1, 77, 0
1, 12618, Note_off_c, 1, 65, 0
1, 12618, Note_off_c, 1, 69, 0
1, 12618, Note_off_c, 1, 62, 0
1, 12618, Note_off_c, 1, 50, 0
1, 12618, Note_off_c, 1, 38, 0
1, 12618, Note_off_c, 1, 57, 0
1, 12621, Note_off_c, 1, 76, 0
1, 12621, Note_off_c, 1, 67, 0
1, 12624, Note_on_c, 1, 74, 127
1, 12624, Note_on_c, 1, 69, 127
1, 12624, Note_on_c, 1, 65, 127
1, 12624, Note_on_c, 1, 48, 127
1, 12624, Note_on_c, 1, 62, 127
1, 12624, Note_on_c, 1, 36, 127
1, 12624, Note_on_c, 1, 24, 127
1, 12624, Note_on_c, 1, 77, 127
1, 12624, Note_on_c, 1, 57, 127
1, 12648, Note_on_c, 1, 67, 127
1, 12666, Note_off_c, 1, 74, 0
1, 12666, Note_off_c, 1, 69, 0
1, 12666, Note_off_c, 1, 65, 0
1, 12666, Note_off_c, 1, 48, 0
1, 12666, Note_off_c, 1, 62, 0
1, 12666, Note_off_c, 1, 36, 0
1, 12666, Note_off_c, 1, 24, 0
1, 12666, Note_off_c, 1, 77, 0
1, 12666, Note_off_c, 1, 57, 0
1, 12669, Note_off_c, 1, 67, 0
1, 12672, Note_on_c, 1, 74, 127
1, 12672, Note_on_c, 1, 69, 127
1, 12672, Note_on_c, 1, 65, 127
1, 12672, Note_on_c, 1, 57, 127
1, 12672, Note_on_c, 1, 45, 127
1, 12672, Note_on_c, 1, 33, 127
1, 12672, Note_on_c, 1, 77, 127
1, 12696, Note_on_c, 1, 64, 127
1, 12714, Note_off_c, 1, 74, 0
1, 12714, Note_off_c, 1, 69, 0
1, 12714, Note_off_c, 1, 65, 0
1, 12714, Note_off_c, 1, 57, 0
1, 12714, Note_off_c, 1, 45, 0
1, 12714, Note_off_c, 1, 33, 0
1, 12714, Note_off_c, 1, 77, 0
1, 12717, Note_off_c, 1, 64, 0
1, 12720, Note_on_c, 1, 74, 127
1, 12720, Note_on_c, 1, 69, 127
1, 12720, Note_on_c, 1, 65, 127
1, 12720, Note_on_c, 1, 62, 127
1, 12720, Note_on_c, 1, 50, 127
1, 12720, Note_on_c, 1, 38, 127
1, 12720, Note_on_c, 1, 77, 127
1, 12762, Note_off_c, 1, 74, 0
1, 12762, Note_off_c, 1, 69, 0
1, 12762, Note_off_c, 1, 65, 0
1, 12762, Note_off_c, 1, 50, 0
1, 12762, Note_off_c, 1, 38, 0
1, 12762, Note_off_c, 1, 77, 0
1, 12765, Note_off_c, 1, 62, 0
1, 12768, Note_on_c, 1, 74, 127
1, 12768, Note_on_c, 1, 67, 127
1, 12768, Note_on_c, 1, 65, 127
1, 12768, Note_on_c, 1, 47, 127
1, 12768, Note_on_c, 1, 62, 127
1, 12768, Note_on_c, 1, 35, 127
1, 12768, Note_on_c, 1, 55, 127
1, 12789, Note_off_c, 1, 65, 0
1, 12792, Note_on_c, 1, 76, 127
1, 12810, Note_off_c, 1, 74, 0
1, 12810, Note_off_c, 1, 47, 0
1, 12810, Note_off_c, 1, 62, 0
1, 12810, Note_off_c, 1, 35, 0
1, 12810, Note_off_c, 1, 55, 0
1, 12813, Note_off_c, 1, 67, 0
1, 12813, Note_off_c, 1, 76, 0
1, 12816, Note_on_c, 1, 74, 127
1, 12816, Note_on_c, 1, 71, 127
1, 12816, Note_on_c, 1, 65, 127
1, 12816, Note_on_c, 1, 43, 127
1, 12816, Note_on_c, 1, 62, 127
1, 12816, Note_on_c, 1, 31, 127
1, 12816, Note_on_c, 1, 55, 127
1, 12840, Note_on_c, 1, 76, 127
1, 12840, Note_on_c, 1, 72, 127
1, 12840, Note_on_c, 1, 67, 127
1, 12858, Note_off_c, 1, 74, 0
1, 12858, Note_off_c, 1, 71, 0
1, 12858, Note_off_c, 1, 65, 0
1, 12858, Note_off_c, 1, 43, 0
1, 12858, Note_off_c, 1, 62, 0
1, 12858, Note_off_c, 1, 31, 0
1, 12858, Note_off_c, 1, 55, 0
1, 12861, Note_off_c, 1, 76, 0
1, 12861, Note_off_c, 1, 72, 0
1, 12861, Note_off_c, 1, 67, 0
1, 12864, Note_on_c, 1, 77, 127
1, 12864, Note_on_c, 1, 74, 127
1, 12864, Note_on_c, 1, 69, 127
1, 12864, Note_on_c, 1, 50, 127
1, 12864, Note_on_c, 1, 65, 127
1, 12864, Note_on_c, 1, 62, 127
1, 12864, Note_on_c, 1, 38, 127
1, 12864, Note_on_c, 1, 71, 127
1, 12864, Note_on_c, 1, 79, 127
1, 12864, Note_on_c, 1, 55, 127
1, 12885, Note_off_c, 1, 77, 0
1, 12885, Note_off_c, 1, 74, 0
1, 12885, Note_off_c, 1, 69, 0
1, 12888, Note_on_c, 1, 76, 127
1, 12888, Note_on_c, 1, 72, 127
1, 12888, Note_on_c, 1, 67, 127
1, 12906, Note_off_c, 1, 50, 0
1, 12906, Note_off_c, 1, 65, 0
1, 12906, Note_off_c, 1, 62, 0
1, 12906, Note_off_c, 1, 38, 0
1, 12906, Note_off_c, 1, 71, 0
1, 12906, Note_off_c, 1, 79, 0
1, 12906, Note_off_c, 1, 55, 0
1, 12909, Note_off_c, 1, 76, 0
1, 12909, Note_off_c, 1, 72, 0
1, 12909, Note_off_c, 1, 67, 0
1, 12912, Note_on_c, 1, 74, 127
1, 12912, Note_on_c, 1, 71, 127
1, 12912, Note_on_c, 1, 65, 127
1, 12912, Note_on_c, 1, 55, 127
1, 12912, Note_on_c, 1, 62, 127
1, 12912, Note_on_c, 1, 43, 127
1, 12954, Note_off_c, 1, 74, 0
1, 12954, Note_off_c, 1, 71, 0
1, 12954, Note_off_c, 1, 65, 0
1, 12954, Note_off_c, 1, 55, 0
1, 12954, Note_off_c, 1, 62, 0
1, 12954, Note_off_c, 1, 43, 0
1, 12960, Note_on_c, 1, 74, 127
1, 12960, Note_on_c, 1, 67, 127
1, 12960, Note_on_c, 1, 65, 127
1, 12960, Note_on_c, 1, 43, 127
1, 12960, Note_on_c, 1, 64, 127
1, 12960, Note_on_c, 1, 31, 127
1, 12960, Note_on_c, 1, 62, 127
1, 12960, Note_on_c, 1, 71, 127
1, 12960, Note_on_c, 1, 59, 127
1, 12981, Note_off_c, 1, 64, 0
1, 13002, Note_off_c, 1, 74, 0
1, 13002, Note_off_c, 1, 67, 0
1, 13002, Note_off_c, 1, 43, 0
1, 13002, Note_off_c, 1, 31, 0
1, 13002, Note_off_c, 1, 71, 0
1, 13002, Note_off_c, 1, 59, 0
1, 13005, Note_off_c, 1, 65, 0
1, 13005, Note_off_c, 1, 62, 0
1, 13008, Note_on_c, 1, 74, 127
1, 13008, Note_on_c, 1, 67, 127
1, 13008, Note_on_c, 1, 65, 127
1, 13008, Note_on_c, 1, 55, 127
1, 13008, Note_on_c, 1, 64, 127
1, 13008, Note_on_c, 1, 60, 127
1, 13008, Note_on_c, 1, 43, 127
1, 13008, Note_on_c, 1, 71, 127
1, 13029, Note_off_c, 1, 64, 0
1, 13029, Note_off_c, 1, 60, 0
1, 13032, Note_on_c, 1, 62, 127
1, 13032, Note_on_c, 1, 59, 127
1, 13050, Note_off_c, 1, 74, 0
1, 13050, Note_off_c, 1, 67, 0
1, 13050, Note_off_c, 1, 65, 0
1, 13050, Note_off_c, 1, 55, 0
1, 13050, Note_off_c, 1, 43, 0
1, 13050, Note_off_c, 1, 71, 0
1, 13053, Note_off_c, 1, 62, 0
1, 13053, Note_off_c, 1, 59, 0
1, 13056, Note_on_c, 1, 72, 127
1, 13056, Note_on_c, 1, 67, 127
1, 13056, Note_on_c, 1, 64, 127
1, 13056, Note_on_c, 1, 48, 127
1, 13056, Note_on_c, 1, 60, 127
1, 13056, Note_on_c, 1, 36, 127
1, 13056, Note_on_c, 1, 76, 127
1, 13056, Note_on_c, 1, 55, 127
1, 13077, Note_off_c, 1, 72, 0
1, 13080, Note_on_c, 1, 74, 127
1, 13080, Note_on_c, 1, 69, 127
1, 13080, Note_on_c, 1, 65, 127
1, 13098, Note_off_c, 1, 67, 0
1, 13098, Note_off_c, 1, 64, 0
1, 13098, Note_off_c, 1, 48, 0
1, 13098, Note_off_c, 1, 60, 0
1, 13098, Note_off_c, 1, 36, 0
1, 13098, Note_off_c, 1, 76, 0
1, 13098, Note_off_c, 1, 55, 0
1, 13101, Note_off_c, 1, 74, 0
1, 13101, Note_off_c, 1, 69, 0
1, 13101, Note_off_c, 1, 65, 0
1, 13104, Note_on_c, 1, 72, 127
1, 13104, Note_on_c, 1, 67, 127
1, 13104, Note_on_c, 1, 64, 127
1, 13104, Note_on_c, 1, 55, 127
1, 13104, Note_on_c, 1, 60, 127
1, 13104, Note_on_c, 1, 43, 127
1, 13125, Note_off_c, 1, 67, 0
1, 13128, Note_on_c, 1, 74, 127
1, 13128, Note_on_c, 1, 65, 127
1, 13146, Note_off_c, 1, 72, 0
1, 13146, Note_off_c, 1, 64, 0
1, 13146, Note_off_c, 1, 55, 0
1, 13146, Note_off_c, 1, 60, 0
1, 13146, Note_off_c, 1, 43, 0
1, 13149, Note_off_c, 1, 74, 0
1, 13149, Note_off_c, 1, 65, 0
1, 13152, Note_on_c, 1, 76, 127
1, 13152, Note_on_c, 1, 64, 127
1, 13152, Note_on_c, 1, 67, 127
1, 13152, Note_on_c, 1, 60, 127
1, 13152, Note_on_c, 1, 48, 127
1, 13152, Note_on_c, 1, 72, 127
1, 13152, Note_on_c, 1, 55, 127
1, 13173, Note_off_c, 1, 76, 0
1, 13176, Note_on_c, 1, 74, 127
1, 13176, Note_on_c, 1, 65, 127
1, 13194, Note_off_c, 1, 64, 0
1, 13194, Note_off_c, 1, 67, 0
1, 13194, Note_off_c, 1, 60, 0
1, 13194, Note_off_c, 1, 48, 0
1, 13194, Note_off_c, 1, 72, 0
1, 13194, Note_off_c, 1, 55, 0
1, 13197, Note_off_c, 1, 74, 0
1, 13197, Note_off_c, 1, 65, 0
1, 13200, Note_on_c, 1, 72, 127
1, 13200, Note_on_c, 1, 67, 127
1, 13200, Note_on_c, 1, 64, 127
1, 13200, Note_on_c, 1, 47, 127
1, 13200, Note_on_c, 1, 60, 127
1, 13200, Note_on_c, 1, 35, 127
1, 13200, Note_on_c, 1, 76, 127
1, 13200, Note_on_c, 1, 55, 127
1, 13224, Note_on_c, 1, 65, 127
1, 13242, Note_off_c, 1, 72, 0
1, 13242, Note_off_c, 1, 67, 0
1, 13242, Note_off_c, 1, 64, 0
1, 13242, Note_off_c, 1, 47, 0
1, 13242, Note_off_c, 1, 60, 0
1, 13242, Note_off_c, 1, 35, 0
1, 13242, Note_off_c, 1, 76, 0
1, 13242, Note_off_c, 1, 55, 0
1, 13245, Note_off_c, 1, 65, 0
1, 13248, Note_on_c, 1, 72, 127
1, 13248, Note_on_c, 1, 67, 127
1, 13248, Note_on_c, 1, 64, 127
1, 13248, Note_on_c, 1, 55, 127
1, 13248, Note_on_c, 1, 43, 127
1, 13272, Note_on_c, 1, 62, 127
1, 13290, Note_off_c, 1, 72, 0
1, 13290, Note_off_c, 1, 67, 0
1, 13290, Note_off_c, 1, 64, 0
1, 13290, Note_off_c, 1, 55, 0
1, 13290, Note_off_c, 1, 43, 0
1, 13293, Note_off_c, 1, 62, 0
1, 13296, Note_on_c, 1, 72, 127
1, 13296, Note_on_c, 1, 67, 127
1, 13296, Note_on_c, 1, 64, 127
1, 13296, Note_on_c, 1, 60, 127
1, 13296, Note_on_c, 1, 48, 127
1, 13338, Note_off_c, 1, 72, 0
1, 13338, Note_off_c, 1, 67, 0
1, 13338, Note_off_c, 1, 64, 0
1, 13338, Note_off_c, 1, 48, 0
1, 13341, Note_off_c, 1, 60, 0
1, 13344, Note_on_c, 1, 72, 127
1, 13344, Note_on_c, 1, 69, 127
1, 13344, Note_on_c, 1, 64, 127
1, 13344, Note_on_c, 1, 45, 127
1, 13344, Note_on_c, 1, 60, 127
1, 13344, Note_on_c, 1, 33, 127
1, 13344, Note_on_c, 1, 65, 127
1, 13344, Note_on_c, 1, 57, 127
1, 13365, Note_off_c, 1, 69, 0
1, 13365, Note_off_c, 1, 64, 0
1, 13368, Note_on_c, 1, 74, 127
1, 13368, Note_on_c, 1, 71, 127
1, 13386, Note_off_c, 1, 72, 0
1, 13386, Note_off_c, 1, 45, 0
1, 13386, Note_off_c, 1, 60, 0
1, 13386, Note_off_c, 1, 33, 0
1, 13386, Note_off_c, 1, 57, 0
1, 13389, Note_off_c, 1, 65, 0
1, 13389, Note_off_c, 1, 74, 0
1, 13389, Note_off_c, 1, 71, 0
1, 13392, Note_on_c, 1, 72, 127
1, 13392, Note_on_c, 1, 69, 127
1, 13392, Note_on_c, 1, 64, 127
1, 13392, Note_on_c, 1, 57, 127
1, 13392, Note_on_c, 1, 60, 127
1, 13392, Note_on_c, 1, 45, 127
1, 13392, Note_on_c, 1, 77, 127
1, 13413, Note_off_c, 1, 69, 0
1, 13416, Note_on_c, 1, 74, 127
1, 13416, Note_on_c, 1, 71, 127
1, 13416, Note_on_c, 1, 65, 127
1, 13434, Note_off_c, 1, 72, 0
1, 13434, Note_off_c, 1, 64, 0
1, 13434, Note_off_c, 1, 57, 0
1, 13434, Note_off_c, 1, 60, 0
1, 13434, Note_off_c, 1, 45, 0
1, 13434, Note_off_c, 1, 77, 0
1, 13437, Note_off_c, 1, 74, 0
1, 13437, Note_off_c, 1, 71, 0
1, 13437, Note_off_c, 1, 65, 0
1, 13440, Note_on_c, 1, 76, 127
1, 13440, Note_on_c, 1, 72, 127
1, 13440, Note_on_c, 1, 67, 127
1, 13440, Note_on_c, 1, 52, 127
1, 13440, Note_on_c, 1, 64, 127
1, 13440, Note_on_c, 1, 60, 127
1, 13440, Note_on_c, 1, 40, 127
1, 13440, Note_on_c, 1, 81, 127
1, 13440, Note_on_c, 1, 57, 127
1, 13461, Note_off_c, 1, 76, 0
1, 13461, Note_off_c, 1, 67, 0
1, 13464, Note_on_c, 1, 74, 127
1, 13464, Note_on_c, 1, 71, 127
1, 13464, Note_on_c, 1, 65, 127
1, 13482, Note_off_c, 1, 72, 0
1, 13482, Note_off_c, 1, 52, 0
1, 13482, Note_off_c, 1, 64, 0
1, 13482, Note_off_c, 1, 60, 0
1, 13482, Note_off_c, 1, 40, 0
1, 13482, Note_off_c, 1, 81, 0
1, 13482, Note_off_c, 1, 57, 0
1, 13485, Note_off_c, 1, 74, 0
1, 13485, Note_off_c, 1, 71, 0
1, 13485, Note_off_c, 1, 65, 0
1, 13488, Note_on_c, 1, 72, 127
1, 13488, Note_on_c, 1, 69, 127
1, 13488, Note_on_c, 1, 64, 127
1, 13488, Note_on_c, 1, 53, 127
1, 13488, Note_on_c, 1, 60, 127
1, 13488, Note_on_c, 1, 41, 127
1, 13488, Note_on_c, 1, 81, 127
1, 13488, Note_on_c, 1, 57, 127
1, 13530, Note_off_c, 1, 72, 0
1, 13530, Note_off_c, 1, 69, 0
1, 13530, Note_off_c, 1, 64, 0
1, 13530, Note_off_c, 1, 53, 0
1, 13530, Note_off_c, 1, 60, 0
1, 13530, Note_off_c, 1, 41, 0
1, 13530, Note_off_c, 1, 81, 0
1, 13530, Note_off_c, 1, 57, 0
1, 13536, Note_on_c, 1, 74, 127
1, 13536, Note_on_c, 1, 69, 127
1, 13536, Note_on_c, 1, 62, 127
1, 13536, Note_on_c, 1, 57, 127
1, 13536, Note_on_c, 1, 65, 127
1, 13536, Note_on_c, 1, 45, 127
1, 13557, Note_off_c, 1, 65, 0
1, 13560, Note_on_c, 1, 72, 127
1, 13560, Note_on_c, 1, 64, 127
1, 13578, Note_off_c, 1, 74, 0
1, 13578, Note_off_c, 1, 69, 0
1, 13578, Note_off_c, 1, 62, 0
1, 13578, Note_off_c, 1, 57, 0
1, 13578, Note_off_c, 1, 45, 0
1, 13581, Note_off_c, 1, 72, 0
1, 13581, Note_off_c, 1, 64, 0
1, 13584, Note_on_c, 1, 71, 127
1, 13584, Note_on_c, 1, 69, 127
1, 13584, Note_on_c, 1, 65, 127
1, 13584, Note_on_c, 1, 50, 127
1, 13584, Note_on_c, 1, 62, 127
1, 13584, Note_on_c, 1, 57, 127
1, 13584, Note_on_c, 1, 38, 127
1, 13584, Note_on_c, 1, 77, 127
1, 13584, Note_on_c, 1, 53, 127
1, 13605, Note_off_c, 1, 71, 0
1, 13605, Note_off_c, 1, 65, 0
1, 13605, Note_off_c, 1, 62, 0
1, 13608, Note_on_c, 1, 72, 127
1, 13608, Note_on_c, 1, 64, 127
1, 13608, Note_on_c, 1, 60, 127
1, 13626, Note_off_c, 1, 69, 0
1, 13626, Note_off_c, 1, 50, 0
1, 13626, Note_off_c, 1, 57, 0
1, 13626, Note_off_c, 1, 38, 0
1, 13626, Note_off_c, 1, 77, 0
1, 13626, Note_off_c, 1, 53, 0
1, 13629, Note_off_c, 1, 72, 0
1, 13629, Note_off_c, 1, 64, 0
1, 13629, Note_off_c, 1, 60, 0
1, 13632, Note_on_c, 1, 74, 127
1, 13632, Note_on_c, 1, 71, 127
1, 13632, Note_on_c, 1, 65, 127
1, 13632, Note_on_c, 1, 43, 127
1, 13632, Note_on_c, 1, 59, 127
1, 13632, Note_on_c, 1, 55, 127
1, 13632, Note_on_c, 1, 31, 127
1, 13632, Note_on_c, 1, 62, 127
1, 13632, Note_on_c, 1, 50, 127
1, 13653, Note_off_c, 1, 59, 0
1, 13656, Note_on_c, 1, 57, 127
1, 13674, Note_off_c, 1, 74, 0
1, 13674, Note_off_c, 1, 71, 0
1, 13674, Note_off_c, 1, 65, 0
1, 13674, Note_off_c, 1, 43, 0
1, 13674, Note_off_c, 1, 55, 0
1, 13674, Note_off_c, 1, 31, 0
1, 13674, Note_off_c, 1, 62, 0
1, 13674, Note_off_c, 1, 50, 0
1, 13677, Note_off_c, 1, 57, 0
1, 13680, Note_on_c, 1, 47, 127
1, 13680, Note_on_c, 1, 59, 127
1, 13680, Note_on_c, 1, 55, 127
1, 13680, Note_on_c, 1, 35, 127
1, 13680, Note_on_c, 1, 62, 127
1, 13680, Note_on_c, 1, 67, 127
1, 13680, Note_on_c, 1, 50, 127
1, 13701, Note_off_c, 1, 59, 0
1, 13722, Note_off_c, 1, 47, 0
1, 13722, Note_off_c, 1, 35, 0
1, 13722, Note_off_c, 1, 62, 0
1, 13722, Note_off_c, 1, 67, 0
1, 13722, Note_off_c, 1, 50, 0
1, 13725, Note_off_c, 1, 55, 0
1, 13728, Note_on_c, 1, 50, 127
1, 13728, Note_on_c, 1, 62, 127
1, 13728, Note_on_c, 1, 59, 127
1, 13728, Note_on_c, 1, 38, 127
1, 13728, Note_on_c, 1, 67, 127
1, 13728, Note_on_c, 1, 55, 127
1, 13749, Note_off_c, 1, 62, 0
1, 13752, Note_on_c, 1, 60, 127
1, 13752, Note_on_c, 1, 57, 127
1, 13770, Note_off_c, 1, 50, 0
1, 13770, Note_off_c, 1, 59, 0
1, 13770, Note_off_c, 1, 38, 0
1, 13770, Note_off_c, 1, 67, 0
1, 13770, Note_off_c, 1, 55, 0
1, 13773, Note_off_c, 1, 60, 0
1, 13773, Note_off_c, 1, 57, 0
1, 13776, Note_on_c, 1, 79, 127
1, 13776, Note_on_c, 1, 74, 127
1, 13776, Note_on_c, 1, 71, 127
1, 13776, Note_on_c, 1, 43, 127
1, 13776, Note_on_c, 1, 62, 127
1, 13776, Note_on_c, 1, 59, 127
1, 13776, Note_on_c, 1, 31, 127
1, 13776, Note_on_c, 1, 55, 127
1, 13797, Note_off_c, 1, 59, 0
1, 13818, Note_off_c, 1, 79, 0
1, 13818, Note_off_c, 1, 74, 0
1, 13818, Note_off_c, 1, 71, 0
1, 13818, Note_off_c, 1, 43, 0
1, 13818, Note_off_c, 1, 62, 0
1, 13818, Note_off_c, 1, 31, 0
1, 13821, Note_off_c, 1, 55, 0
1, 13824, Note_on_c, 1, 47, 127
1, 13824, Note_on_c, 1, 65, 127
1, 13824, Note_on_c, 1, 62, 127
1, 13824, Note_on_c, 1, 35, 127
1, 13824, Note_on_c, 1, 67, 127
1, 13824, Note_on_c, 1, 55, 127
1, 13845, Note_off_c, 1, 65, 0
1, 13848, Note_on_c, 1, 64, 127
1, 13848, Note_on_c, 1, 60, 127
1, 13866, Note_off_c, 1, 47, 0
1, 13866, Note_off_c, 1, 62, 0
1, 13866, Note_off_c, 1, 35, 0
1, 13866, Note_off_c, 1, 67, 0
1, 13866, Note_off_c, 1, 55, 0
1, 13869, Note_off_c, 1, 64, 0
1, 13869, Note_off_c, 1, 60, 0
1, 13872, Note_on_c, 1, 50, 127
1, 13872, Note_on_c, 1, 65, 127
1, 13872, Note_on_c, 1, 62, 127
1, 13872, Note_on_c, 1, 38, 127
1, 13872, Note_on_c, 1, 59, 127
1, 13872, Note_on_c, 1, 67, 127
1, 13893, Note_off_c, 1, 65, 0
1, 13893, Note_off_c, 1, 62, 0
1, 13914, Note_off_c, 1, 50, 0
1, 13914, Note_off_c, 1, 38, 0
1, 13914, Note_off_c, 1, 67, 0
1, 13917, Note_off_c, 1, 59, 0
1, 13920, Note_on_c, 1, 74, 127
1, 13920, Note_on_c, 1, 71, 127
1, 13920, Note_on_c, 1, 67, 127
1, 13920, Note_on_c, 1, 43, 127
1, 13920, Note_on_c, 1, 65, 127
1, 13920, Note_on_c, 1, 31, 127
1, 13920, Note_on_c, 1, 62, 127
1, 13941, Note_off_c, 1, 65, 0
1, 13941, Note_off_c, 1, 62, 0
1, 13944, Note_on_c, 1, 69, 127
1, 13944, Note_on_c, 1, 64, 127
1, 13944, Note_on_c, 1, 60, 127
1, 13962, Note_off_c, 1, 74, 0
1, 13962, Note_off_c, 1, 71, 0
1, 13962, Note_off_c, 1, 67, 0
1, 13962, Note_off_c, 1, 43, 0
1, 13962, Note_off_c, 1, 31, 0
1, 13965, Note_off_c, 1, 69, 0
1, 13965, Note_off_c, 1, 64, 0
1, 13965, Note_off_c, 1, 60, 0
1, 13968, Note_on_c, 1, 47, 127
1, 13968, Note_on_c, 1, 71, 127
1, 13968, Note_on_c, 1, 65, 127
1, 13968, Note_on_c, 1, 35, 127
1, 13968, Note_on_c, 1, 67, 127
1, 13968, Note_on_c, 1, 74, 127
1, 13968, Note_on_c, 1, 62, 127
1, 13989, Note_off_c, 1, 71, 0
1, 13989, Note_off_c, 1, 65, 0
1, 13989, Note_off_c, 1, 62, 0
1, 13992, Note_on_c, 1, 59, 127
1, 14010, Note_off_c, 1, 47, 0
1, 14010, Note_off_c, 1, 35, 0
1, 14010, Note_off_c, 1, 74, 0
1, 14013, Note_off_c, 1, 67, 0
1, 14013, Note_off_c, 1, 59, 0
1, 14016, Note_on_c, 1, 50, 127
1, 14016, Note_on_c, 1, 74, 127
1, 14016, Note_on_c, 1, 71, 127
1, 14016, Note_on_c, 1, 38, 127
1, 14016, Note_on_c, 1, 79, 127
1, 14016, Note_on_c, 1, 65, 127
1, 14037, Note_off_c, 1, 74, 0
1, 14037, Note_off_c, 1, 65, 0
1, 14040, Note_on_c, 1, 72, 127
1, 14040, Note_on_c, 1, 69, 127
1, 14040, Note_on_c, 1, 64, 127
1, 14058, Note_off_c, 1, 50, 0
1, 14058, Note_off_c, 1, 71, 0
1, 14058, Note_off_c, 1, 38, 0
1, 14058, Note_off_c, 1, 79, 0
1, 14061, Note_off_c, 1, 72, 0
1, 14061, Note_off_c, 1, 69, 0
1, 14061, Note_off_c, 1, 64, 0
1, 14064, Note_on_c, 1, 71, 127
1, 14064, Note_on_c, 1, 67, 127
1, 14064, Note_on_c, 1, 62, 127
1, 14064, Note_on_c, 1, 55, 127
1, 14064, Note_on_c, 1, 74, 127
1, 14064, Note_on_c, 1, 43, 127
1, 14064, Note_on_c, 1, 65, 127
1, 14085, Note_off_c, 1, 65, 0
1, 14106, Note_off_c, 1, 55, 0
1, 14106, Note_off_c, 1, 74, 0
1, 14106, Note_off_c, 1, 43, 0
1, 14109, Note_off_c, 1, 71, 0
1, 14109, Note_off_c, 1, 67, 0
1, 14109, Note_off_c, 1, 62, 0
1, 14112, Note_on_c, 1, 59, 127
1, 14112, Note_on_c, 1, 77, 127
1, 14112, Note_on_c, 1, 74, 127
1, 14112, Note_on_c, 1, 47, 127
1, 14112, Note_on_c, 1, 67, 127
1, 14112, Note_on_c, 1, 71, 127
1, 14133, Note_off_c, 1, 77, 0
1, 14133, Note_off_c, 1, 71, 0
1, 14136, Note_on_c, 1, 76, 127
1, 14136, Note_on_c, 1, 72, 127
1, 14154, Note_off_c, 1, 59, 0
1, 14154, Note_off_c, 1, 74, 0
1, 14154, Note_off_c, 1, 47, 0
1, 14154, Note_off_c, 1, 67, 0
1, 14157, Note_off_c, 1, 76, 0
1, 14157, Note_off_c, 1, 72, 0
1, 14160, Note_on_c, 1, 55, 127
1, 14160, Note_on_c, 1, 77, 127
1, 14160, Note_on_c, 1, 74, 127
1, 14160, Note_on_c, 1, 43, 127
1, 14160, Note_on_c, 1, 71, 127
1, 14160, Note_on_c, 1, 69, 127
1, 14181, Note_off_c, 1, 77, 0
1, 14181, Note_off_c, 1, 69, 0
1, 14202, Note_off_c, 1, 55, 0
1, 14202, Note_off_c, 1, 43, 0
1, 14205, Note_off_c, 1, 74, 0
1, 14205, Note_off_c, 1, 71, 0
1, 14208, Note_on_c, 1, 72, 127
1, 14208, Note_on_c, 1, 67, 127
1, 14208, Note_on_c, 1, 64, 127
1, 14208, Note_on_c, 1, 60, 127
1, 14208, Note_on_c, 1, 76, 127
1, 14208, Note_on_c, 1, 48, 127
1, 14229, Note_off_c, 1, 64, 0
1, 14229, Note_off_c, 1, 60, 0
1, 14229, Note_off_c, 1, 48, 0
1, 14232, Note_on_c, 1, 74, 127
1, 14232, Note_on_c, 1, 69, 127
1, 14232, Note_on_c, 1, 65, 127
1, 14232, Note_on_c, 1, 59, 127
1, 14232, Note_on_c, 1, 47, 127
1, 14250, Note_off_c, 1, 72, 0
1, 14250, Note_off_c, 1, 67, 0
1, 14250, Note_off_c, 1, 76, 0
1, 14253, Note_off_c, 1, 74, 0
1, 14253, Note_off_c, 1, 69, 0
1, 14253, Note_off_c, 1, 65, 0
1, 14253, Note_off_c, 1, 59, 0
1, 14253, Note_off_c, 1, 47, 0
1, 14256, Note_on_c, 1, 72, 127
1, 14256, Note_on_c, 1, 67, 127
1, 14256, Note_on_c, 1, 64, 127
1, 14256, Note_on_c, 1, 60, 127
1, 14256, Note_on_c, 1, 76, 127
1, 14256, Note_on_c, 1, 48, 127
1, 14277, Note_off_c, 1, 72, 0
1, 14277, Note_off_c, 1, 60, 0
1, 14277, Note_off_c, 1, 48, 0
1, 14280, Note_on_c, 1, 74, 127
1, 14280, Note_on_c, 1, 65, 127
1, 14280, Note_on_c, 1, 59, 127
1, 14280, Note_on_c, 1, 71, 127
1, 14280, Note_on_c, 1, 47, 127
1, 14298, Note_off_c, 1, 67, 0
1, 14298, Note_off_c, 1, 64, 0
1, 14298, Note_off_c, 1, 76, 0
1, 14301, Note_off_c, 1, 74, 0
1, 14301, Note_off_c, 1, 65, 0
1, 14301, Note_off_c, 1, 59, 0
1, 14301, Note_off_c, 1, 71, 0
1, 14301, Note_off_c, 1, 47, 0
1, 14304, Note_on_c, 1, 76, 127
1, 14304, Note_on_c, 1, 72, 127
1, 14304, Note_on_c, 1, 67, 127
1, 14304, Note_on_c, 1, 57, 127
1, 14304, Note_on_c, 1, 60, 127
1, 14304, Note_on_c, 1, 45, 127
1, 14304, Note_on_c, 1, 77, 127
1, 14304, Note_on_c, 1, 69, 127
1, 14325, Note_off_c, 1, 76, 0
1, 14325, Note_off_c, 1, 67, 0
1, 14328, Note_on_c, 1, 74, 127
1, 14328, Note_on_c, 1, 65, 127
1, 14328, Note_on_c, 1, 71, 127
1, 14346, Note_off_c, 1, 77, 0
1, 14349, Note_off_c, 1, 74, 0
1, 14349, Note_off_c, 1, 65, 0
1, 14349, Note_off_c, 1, 71, 0
1, 14352, Note_on_c, 1, 64, 127
1, 14373, Note_off_c, 1, 72, 0
1, 14373, Note_off_c, 1, 57, 0
1, 14373, Note_off_c, 1, 60, 0
1, 14373, Note_off_c, 1, 45, 0
1, 14373, Note_off_c, 1, 69, 0
1, 14373, Note_off_c, 1, 64, 0
1, 14376, Note_on_c, 1, 53, 127
1, 14376, Note_on_c, 1, 41, 127
1, 14376, Note_on_c, 1, 62, 127
1, 14397, Note_off_c, 1, 53, 0
1, 14397, Note_off_c, 1, 41, 0
1, 14397, Note_off_c, 1, 62, 0
1, 14400, Note_on_c, 1, 71, 127
1, 14400, Note_on_c, 1, 67, 127
1, 14400, Note_on_c, 1, 62, 127
1, 14400, Note_on_c, 1, 55, 127
1, 14400, Note_on_c, 1, 74, 127
1, 14400, Note_on_c, 1, 43, 127
1, 14442, Note_off_c, 1, 55, 0
1, 14442, Note_off_c, 1, 43, 0
1, 14448, Note_on_c, 1, 31, 127
1, 14448, Note_on_c, 1, 64, 127
1, 14448, Note_on_c, 1, 72, 127
1, 14448, Note_on_c, 1, 65, 127
1, 14463, Note_off_c, 1, 71, 0
1, 14463, Note_off_c, 1, 62, 0
1, 14463, Note_off_c, 1, 74, 0
1, 14490, Note_off_c, 1, 31, 0
1, 14490, Note_off_c, 1, 65, 0
1, 14493, Note_off_c, 1, 67, 0
1, 14493, Note_off_c, 1, 64, 0
1, 14493, Note_off_c, 1, 72, 0
1, 14496, Note_on_c, 1, 72, 127
1, 14496, Note_on_c, 1, 67, 127
1, 14496, Note_on_c, 1, 64, 127
1, 14496, Note_on_c, 1, 48, 127
1, 14496, Note_on_c, 1, 36, 127
1, 14496, Note_on_c, 1, 76, 127
1, 14520, Note_on_c, 1, 71, 127
1, 14538, Note_off_c, 1, 72, 0
1, 14538, Note_off_c, 1, 67, 0
1, 14538, Note_off_c, 1, 64, 0
1, 14538, Note_off_c, 1, 48, 0
1, 14538, Note_off_c, 1, 36, 0
1, 14538, Note_off_c, 1, 76, 0
1, 14541, Note_off_c, 1, 71, 0
1, 14544, Note_on_c, 1, 72, 127
1, 14544, Note_on_c, 1, 67, 127
1, 14544, Note_on_c, 1, 52, 127
1, 14544, Note_on_c, 1, 40, 127
1, 14544, Note_on_c, 1, 60, 127
1, 14586, Note_off_c, 1, 72, 0
1, 14586, Note_off_c, 1, 52, 0
1, 14586, Note_off_c, 1, 40, 0
1, 14586, Note_off_c, 1, 60, 0
1, 14589, Note_off_c, 1, 67, 0
1, 14592, Note_on_c, 1, 69, 127
1, 14592, Note_on_c, 1, 64, 127
1, 14592, Note_on_c, 1, 48, 127
1, 14592, Note_on_c, 1, 36, 127
1, 14592, Note_on_c, 1, 67, 127
1, 14592, Note_on_c, 1, 76, 127
1, 14592, Note_on_c, 1, 60, 127
1, 14613, Note_off_c, 1, 69, 0
1, 14634, Note_off_c, 1, 48, 0
1, 14634, Note_off_c, 1, 36, 0
1, 14634, Note_off_c, 1, 76, 0
1, 14637, Note_off_c, 1, 67, 0
1, 14640, Note_on_c, 1, 45, 127
1, 14640, Note_on_c, 1, 33, 127
1, 14640, Note_on_c, 1, 72, 127
1, 14682, Note_off_c, 1, 60, 0
1, 14682, Note_off_c, 1, 45, 0
1, 14682, Note_off_c, 1, 33, 0
1, 14682, Note_off_c, 1, 72, 0
1, 14685, Note_off_c, 1, 64, 0
1, 14688, Note_on_c, 1, 65, 127
1, 14688, Note_on_c, 1, 62, 127
1, 14688, Note_on_c, 1, 50, 127
1, 14688, Note_on_c, 1, 38, 127
1, 14688, Note_on_c, 1, 69, 127
1, 14688, Note_on_c, 1, 77, 127
1, 14688, Note_on_c, 1, 57, 127
1, 14709, Note_off_c, 1, 65, 0
1, 14712, Note_on_c, 1, 64, 127
1, 14730, Note_off_c, 1, 62, 0
1, 14730, Note_off_c, 1, 50, 0
1, 14730, Note_off_c, 1, 38, 0
1, 14730, Note_off_c, 1, 69, 0
1, 14730, Note_off_c, 1, 77, 0
1, 14730, Note_off_c, 1, 57, 0
1, 14733, Note_off_c, 1, 64, 0
1, 14736, Note_on_c, 1, 65, 127
1, 14736, Note_on_c, 1, 59, 127
1, 14736, Note_on_c, 1, 43, 127
1, 14736, Note_on_c, 1, 31, 127
1, 14736, Note_on_c, 1, 62, 127
1, 14736, Note_on_c, 1, 71, 127
1, 14736, Note_on_c, 1, 55, 127
1, 14757, Note_off_c, 1, 65, 0
1, 14778, Note_off_c, 1, 59, 0
1, 14778, Note_off_c, 1, 43, 0
1, 14778, Note_off_c, 1, 31, 0
1, 14778, Note_off_c, 1, 71, 0
1, 14778, Note_off_c, 1, 55, 0
1, 14781, Note_off_c, 1, 62, 0
1, 14784, Note_on_c, 1, 64, 127
1, 14784, Note_on_c, 1, 60, 127
1, 14784, Note_on_c, 1, 48, 127
1, 14784, Note_on_c, 1, 36, 127
1, 14784, Note_on_c, 1, 67, 127
1, 14784, Note_on_c, 1, 76, 127
1, 14784, Note_on_c, 1, 55, 127
1, 14805, Note_off_c, 1, 64, 0
1, 14808, Note_on_c, 1, 62, 127
1, 14826, Note_off_c, 1, 60, 0
1, 14826, Note_off_c, 1, 48, 0
1, 14826, Note_off_c, 1, 36, 0
1, 14826, Note_off_c, 1, 67, 0
1, 14826, Note_off_c, 1, 76, 0
1, 14826, Note_off_c, 1, 55, 0
1, 14829, Note_off_c, 1, 62, 0
1, 14832, Note_on_c, 1, 64, 127
1, 14832, Note_on_c, 1, 59, 127
1, 14832, Note_on_c, 1, 43, 127
1, 14832, Note_on_c, 1, 31, 127
1, 14832, Note_on_c, 1, 71, 127
1, 14832, Note_on_c, 1, 74, 127
1, 14832, Note_on_c, 1, 55, 127
1, 14853, Note_off_c, 1, 64, 0
1, 14874, Note_off_c, 1, 43, 0
1, 14874, Note_off_c, 1, 31, 0
1, 14874, Note_off_c, 1, 71, 0
1, 14874, Note_off_c, 1, 74, 0
1, 14874, Note_off_c, 1, 55, 0
1, 14877, Note_off_c, 1, 59, 0
1, 14880, Note_on_c, 1, 60, 127
1, 14880, Note_on_c, 1, 57, 127
1, 14880, Note_on_c, 1, 45, 127
1, 14880, Note_on_c, 1, 33, 127
1, 14880, Note_on_c, 1, 64, 127
1, 14880, Note_on_c, 1, 72, 127
1, 14880, Note_on_c, 1, 52, 127
1, 14901, Note_off_c, 1, 60, 0
1, 14904, Note_on_c, 1, 59, 127
1, 14922, Note_off_c, 1, 64, 0
1, 14922, Note_off_c, 1, 72, 0
1, 14925, Note_off_c, 1, 59, 0
1, 14928, Note_on_c, 1, 69, 127
1, 14949, Note_off_c, 1, 57, 0
1, 14949, Note_off_c, 1, 45, 0
1, 14949, Note_off_c, 1, 33, 0
1, 14949, Note_off_c, 1, 52, 0
1, 14952, Note_on_c, 1, 62, 127
1, 14952, Note_on_c, 1, 41, 127
1, 14952, Note_on_c, 1, 29, 127
1, 14970, Note_off_c, 1, 69, 0
1, 14973, Note_off_c, 1, 62, 0
1, 14973, Note_off_c, 1, 41, 0
1, 14973, Note_off_c, 1, 29, 0
1, 14976, Note_on_c, 1, 62, 127
1, 14976, Note_on_c, 1, 59, 127
1, 14976, Note_on_c, 1, 43, 127
1, 14976, Note_on_c, 1, 31, 127
1, 14976, Note_on_c, 1, 71, 127
1, 14976, Note_on_c, 1, 55, 127
1, 15018, Note_off_c, 1, 43, 0
1, 15018, Note_off_c, 1, 31, 0
1, 15018, Note_off_c, 1, 71, 0
1, 15018, Note_off_c, 1, 55, 0
1, 15024, Note_on_c, 1, 53, 127
1, 15039, Note_off_c, 1, 59, 0
1, 15048, Note_on_c, 1, 60, 127
1, 15066, Note_off_c, 1, 62, 0
1, 15066, Note_off_c, 1, 53, 0
1, 15069, Note_off_c, 1, 60, 0
1, 15072, Note_on_c, 1, 60, 127
1, 15072, Note_on_c, 1, 55, 127
1, 15072, Note_on_c, 1, 48, 127
1, 15072, Note_on_c, 1, 36, 127
1, 15072, Note_on_c, 1, 67, 127
1, 15072, Note_on_c, 1, 76, 127
1, 15072, Note_on_c, 1, 52, 127
1, 15093, Note_off_c, 1, 48, 0
1, 15093, Note_off_c, 1, 36, 0
1, 15096, Note_on_c, 1, 50, 127
1, 15096, Note_on_c, 1, 38, 127
1, 15114, Note_off_c, 1, 60, 0
1, 15114, Note_off_c, 1, 55, 0
1, 15114, Note_off_c, 1, 67, 0
1, 15114, Note_off_c, 1, 76, 0
1, 15114, Note_off_c, 1, 52, 0
1, 15117, Note_off_c, 1, 50, 0
1, 15117, Note_off_c, 1, 38, 0
1, 15120, Note_on_c, 1, 67, 127
1, 15120, Note_on_c, 1, 52, 127
1, 15120, Note_on_c, 1, 40, 127
1, 15120, Note_on_c, 1, 72, 127
1, 15120, Note_on_c, 1, 79, 127
1, 15141, Note_off_c, 1, 52, 0
1, 15141, Note_off_c, 1, 40, 0
1, 15144, Note_on_c, 1, 50, 127
1, 15144, Note_on_c, 1, 38, 127
1, 15162, Note_off_c, 1, 67, 0
1, 15162, Note_off_c, 1, 72, 0
1, 15162, Note_off_c, 1, 79, 0
1, 15165, Note_off_c, 1, 50, 0
1, 15165, Note_off_c, 1, 38, 0
1, 15168, Note_on_c, 1, 69, 127
1, 15168, Note_on_c, 1, 52, 127
1, 15168, Note_on_c, 1, 40, 127
1, 15168, Note_on_c, 1, 67, 127
1, 15168, Note_on_c, 1, 72, 127
1, 15189, Note_off_c, 1, 69, 0
1, 15189, Note_off_c, 1, 52, 0
1, 15189, Note_off_c, 1, 40, 0
1, 15192, Note_on_c, 1, 70, 127
1, 15192, Note_on_c, 1, 48, 127
1, 15192, Note_on_c, 1, 36, 127
1, 15202, Note_off_c, 1, 70, 0
1, 15210, Note_off_c, 1, 67, 0
1, 15213, Note_off_c, 1, 48, 0
1, 15213, Note_off_c, 1, 36, 0
1, 15214, Note_off_c, 1, 72, 0
1, 15216, Note_on_c, 1, 70, 127
1, 15216, Note_on_c, 1, 53, 127
1, 15216, Note_on_c, 1, 41, 127
1, 15216, Note_on_c, 1, 72, 127
1, 15216, Note_on_c, 1, 81, 127
1, 15226, Note_off_c, 1, 70, 0
1, 15228, Note_on_c, 1, 69, 127
1, 15237, Note_off_c, 1, 53, 0
1, 15237, Note_off_c, 1, 41, 0
1, 15238, Note_off_c, 1, 69, 0
1, 15240, Note_on_c, 1, 55, 127
1, 15240, Note_on_c, 1, 43, 127
1, 15258, Note_off_c, 1, 72, 0
1, 15258, Note_off_c, 1, 81, 0
1, 15261, Note_off_c, 1, 55, 0
1, 15261, Note_off_c, 1, 43, 0
1, 15264, Note_on_c, 1, 77, 127
1, 15264, Note_on_c, 1, 72, 127
1, 15264, Note_on_c, 1, 65, 127
1, 15264, Note_on_c, 1, 57, 127
1, 15264, Note_on_c, 1, 67, 127
1, 15264, Note_on_c, 1, 45, 127
1, 15285, Note_off_c, 1, 57, 0
1, 15285, Note_off_c, 1, 67, 0
1, 15285, Note_off_c, 1, 45, 0
1, 15288, Note_on_c, 1, 76, 127
1, 15288, Note_on_c, 1, 70, 127
1, 15288, Note_on_c, 1, 55, 127
1, 15288, Note_on_c, 1, 43, 127
1, 15306, Note_off_c, 1, 77, 0
1, 15306, Note_off_c, 1, 72, 0
1, 15309, Note_off_c, 1, 65, 0
1, 15309, Note_off_c, 1, 76, 0
1, 15309, Note_off_c, 1, 70, 0
1, 15309, Note_off_c, 1, 55, 0
1, 15309, Note_off_c, 1, 43, 0
1, 15312, Note_on_c, 1, 77, 127
1, 15312, Note_on_c, 1, 72, 127
1, 15312, Note_on_c, 1, 65, 127
1, 15312, Note_on_c, 1, 57, 127
1, 15312, Note_on_c, 1, 45, 127
1, 15333, Note_off_c, 1, 57, 0
1, 15333, Note_off_c, 1, 45, 0
1, 15336, Note_on_c, 1, 69, 127
1, 15336, Note_on_c, 1, 53, 127
1, 15336, Note_on_c, 1, 41, 127
1, 15354, Note_off_c, 1, 65, 0
1, 15357, Note_off_c, 1, 72, 0
1, 15357, Note_off_c, 1, 69, 0
1, 15357, Note_off_c, 1, 53, 0
1, 15357, Note_off_c, 1, 41, 0
1, 15360, Note_on_c, 1, 74, 127
1, 15360, Note_on_c, 1, 70, 127
1, 15360, Note_on_c, 1, 58, 127
1, 15360, Note_on_c, 1, 46, 127
1, 15381, Note_off_c, 1, 77, 0
1, 15381, Note_off_c, 1, 46, 0
1, 15384, Note_on_c, 1, 79, 127
1, 15394, Note_off_c, 1, 79, 0
1, 15402, Note_off_c, 1, 74, 0
1, 15402, Note_off_c, 1, 70, 0
1, 15402, Note_off_c, 1, 58, 0
1, 15408, Note_on_c, 1, 76, 127
1, 15408, Note_on_c, 1, 55, 127
1, 15408, Note_on_c, 1, 43, 127
1, 15418, Note_off_c, 1, 76, 0
1, 15420, Note_on_c, 1, 77, 127
1, 15429, Note_off_c, 1, 55, 0
1, 15429, Note_off_c, 1, 43, 0
1, 15430, Note_off_c, 1, 77, 0
1, 15432, Note_on_c, 1, 79, 127
1, 15432, Note_on_c, 1, 57, 127
1, 15432, Note_on_c, 1, 45, 127
1, 15453, Note_off_c, 1, 79, 0
1, 15453, Note_off_c, 1, 57, 0
1, 15453, Note_off_c, 1, 45, 0
1, 15456, Note_on_c, 1, 77, 127
1, 15456, Note_on_c, 1, 58, 127
1, 15456, Note_on_c, 1, 46, 127
1, 15477, Note_off_c, 1, 77, 0
1, 15477, Note_off_c, 1, 58, 0
1, 15477, Note_off_c, 1, 46, 0
1, 15480, Note_on_c, 1, 76, 127
1, 15480, Note_on_c, 1, 55, 127
1, 15480, Note_on_c, 1, 43, 127
1, 15501, Note_off_c, 1, 76, 0
1, 15501, Note_off_c, 1, 55, 0
1, 15501, Note_off_c, 1, 43, 0
1, 15504, Note_on_c, 1, 74, 127
1, 15504, Note_on_c, 1, 57, 127
1, 15504, Note_on_c, 1, 45, 127
1, 15514, Note_off_c, 1, 74, 0
1, 15516, Note_on_c, 1, 73, 127
1, 15525, Note_off_c, 1, 57, 0
1, 15525, Note_off_c, 1, 45, 0
1, 15526, Note_off_c, 1, 73, 0
1, 15528, Note_on_c, 1, 74, 127
1, 15528, Note_on_c, 1, 59, 127
1, 15528, Note_on_c, 1, 47, 127
1, 15538, Note_off_c, 1, 74, 0
1, 15540, Note_on_c, 1, 73, 127
1, 15549, Note_off_c, 1, 59, 0
1, 15549, Note_off_c, 1, 47, 0
1, 15550, Note_off_c, 1, 73, 0
1, 15552, Note_on_c, 1, 57, 127
1, 15552, Note_on_c, 1, 74, 127
1, 15552, Note_on_c, 1, 81, 127
1, 15552, Note_on_c, 1, 76, 127
1, 15552, Note_on_c, 1, 61, 127
1, 15552, Note_on_c, 1, 49, 127
1, 15552, Note_on_c, 1, 65, 127
1, 15552, Note_on_c, 1, 72, 127
1, 15552, Note_on_c, 1, 69, 127
1, 15562, Note_off_c, 1, 74, 0
1, 15564, Note_on_c, 1, 73, 127
1, 15573, Note_off_c, 1, 57, 0
1, 15573, Note_off_c, 1, 81, 0
1, 15573, Note_off_c, 1, 76, 0
1, 15573, Note_off_c, 1, 61, 0
1, 15573, Note_off_c, 1, 49, 0
1, 15574, Note_off_c, 1, 73, 0
1, 15576, Note_on_c, 1, 71, 127
1, 15576, Note_on_c, 1, 79, 127
1, 15576, Note_on_c, 1, 59, 127
1, 15576, Note_on_c, 1, 47, 127
1, 15594, Note_off_c, 1, 65, 0
1, 15594, Note_off_c, 1, 72, 0
1, 15594, Note_off_c, 1, 69, 0
1, 15597, Note_off_c, 1, 71, 0
1, 15597, Note_off_c, 1, 79, 0
1, 15597, Note_off_c, 1, 59, 0
1, 15597, Note_off_c, 1, 47, 0
1, 15600, Note_on_c, 1, 57, 127
1, 15600, Note_on_c, 1, 81, 127
1, 15600, Note_on_c, 1, 69, 127
1, 15600, Note_on_c, 1, 76, 127
1, 15600, Note_on_c, 1, 61, 127
1, 15600, Note_on_c, 1, 49, 127
1, 15600, Note_on_c, 1, 65, 127
1, 15600, Note_on_c, 1, 72, 127
1, 15621, Note_off_c, 1, 57, 0
1, 15621, Note_off_c, 1, 76, 0
1, 15621, Note_off_c, 1, 61, 0
1, 15621, Note_off_c, 1, 49, 0
1, 15624, Note_on_c, 1, 73, 127
1, 15624, Note_on_c, 1, 45, 127
1, 15642, Note_off_c, 1, 69, 0
1, 15642, Note_off_c, 1, 65, 0
1, 15642, Note_off_c, 1, 72, 0
1, 15645, Note_off_c, 1, 73, 0
1, 15645, Note_off_c, 1, 45, 0
1, 15648, Note_on_c, 1, 77, 127
1, 15648, Note_on_c, 1, 74, 127
1, 15648, Note_on_c, 1, 62, 127
1, 15648, Note_on_c, 1, 50, 127
1, 15690, Note_off_c, 1, 81, 0
1, 15690, Note_off_c, 1, 77, 0
1, 15690, Note_off_c, 1, 74, 0
1, 15690, Note_off_c, 1, 62, 0
1, 15690, Note_off_c, 1, 50, 0
1, 15696, Note_on_c, 1, 83, 127
1, 15696, Note_on_c, 1, 77, 127
1, 15696, Note_on_c, 1, 50, 127
1, 15696, Note_on_c, 1, 38, 127
1, 15717, Note_off_c, 1, 77, 0
1, 15720, Note_on_c, 1, 76, 127
1, 15738, Note_off_c, 1, 83, 0
1, 15738, Note_off_c, 1, 50, 0
1, 15738, Note_off_c, 1, 38, 0
1, 15741, Note_off_c, 1, 76, 0
1, 15744, Note_on_c, 1, 81, 127
1, 15744, Note_on_c, 1, 76, 127
1, 15744, Note_on_c, 1, 52, 127
1, 15744, Note_on_c, 1, 40, 127
1, 15754, Note_off_c, 1, 81, 0
1, 15756, Note_on_c, 1, 80, 127
1, 15765, Note_off_c, 1, 76, 0
1, 15766, Note_off_c, 1, 80, 0
1, 15768, Note_on_c, 1, 74, 127
1, 15786, Note_off_c, 1, 52, 0
1, 15786, Note_off_c, 1, 40, 0
1, 15789, Note_off_c, 1, 74, 0
1, 15792, Note_on_c, 1, 81, 127
1, 15792, Note_on_c, 1, 74, 127
1, 15792, Note_on_c, 1, 53, 127
1, 15792, Note_on_c, 1, 41, 127
1, 15802, Note_off_c, 1, 81, 0
1, 15804, Note_on_c, 1, 80, 127
1, 15813, Note_off_c, 1, 74, 0
1, 15814, Note_off_c, 1, 80, 0
1, 15816, Note_on_c, 1, 83, 127
1, 15816, Note_on_c, 1, 72, 127
1, 15834, Note_off_c, 1, 53, 0
1, 15834, Note_off_c, 1, 41, 0
1, 15837, Note_off_c, 1, 83, 0
1, 15837, Note_off_c, 1, 72, 0
1, 15840, Note_on_c, 1, 81, 127
1, 15840, Note_on_c, 1, 72, 127
1, 15840, Note_on_c, 1, 52, 127
1, 15840, Note_on_c, 1, 40, 127
1, 15861, Note_off_c, 1, 81, 0
1, 15861, Note_off_c, 1, 72, 0
1, 15864, Note_on_c, 1, 80, 127
1, 15864, Note_on_c, 1, 71, 127
1, 15882, Note_off_c, 1, 52, 0
1, 15882, Note_off_c, 1, 40, 0
1, 15885, Note_off_c, 1, 80, 0
1, 15885, Note_off_c, 1, 71, 0
1, 15888, Note_on_c, 1, 81, 127
1, 15888, Note_on_c, 1, 71, 127
1, 15888, Note_on_c, 1, 50, 127
1, 15888, Note_on_c, 1, 38, 127
1, 15909, Note_off_c, 1, 81, 0
1, 15909, Note_off_c, 1, 71, 0
1, 15912, Note_on_c, 1, 83, 127
1, 15912, Note_on_c, 1, 76, 127
1, 15930, Note_off_c, 1, 50, 0
1, 15930, Note_off_c, 1, 38, 0
1, 15933, Note_off_c, 1, 83, 0
1, 15933, Note_off_c, 1, 76, 0
1, 15936, Note_on_c, 1, 76, 127
1, 15936, Note_on_c, 1, 48, 127
1, 15936, Note_on_c, 1, 36, 127
1, 15960, Note_on_c, 1, 74, 127
1, 15978, Note_off_c, 1, 48, 0
1, 15978, Note_off_c, 1, 36, 0
1, 15981, Note_off_c, 1, 74, 0
1, 15984, Note_on_c, 1, 60, 127
1, 16008, Note_on_c, 1, 71, 127
1, 16026, Note_off_c, 1, 60, 0
1, 16029, Note_off_c, 1, 71, 0
1, 16032, Note_on_c, 1, 72, 127
1, 16032, Note_on_c, 1, 62, 127
1, 16032, Note_on_c, 1, 50, 127
1, 16053, Note_off_c, 1, 72, 0
1, 16056, Note_on_c, 1, 69, 127
1, 16074, Note_off_c, 1, 62, 0
1, 16074, Note_off_c, 1, 50, 0
1, 16077, Note_off_c, 1, 69, 0
1, 16080, Note_on_c, 1, 68, 127
1, 16080, Note_on_c, 1, 64, 127
1, 16080, Note_on_c, 1, 52, 127
1, 16122, Note_off_c, 1, 76, 0
1, 16122, Note_off_c, 1, 68, 0
1, 16122, Note_off_c, 1, 64, 0
1, 16122, Note_off_c, 1, 52, 0
1, 16128, Note_on_c, 1, 69, 127
1, 16128, Note_on_c, 1, 71, 127
1, 16128, Note_on_c, 1, 62, 127
1, 16128, Note_on_c, 1, 50, 127
1, 16138, Note_off_c, 1, 69, 0
1, 16140, Note_on_c, 1, 68, 127
1, 16149, Note_off_c, 1, 71, 0
1, 16149, Note_off_c, 1, 62, 0
1, 16149, Note_off_c, 1, 50, 0
1, 16150, Note_off_c, 1, 68, 0
1, 16152, Note_on_c, 1, 69, 127
1, 16152, Note_on_c, 1, 72, 127
1, 16152, Note_on_c, 1, 60, 127
1, 16152, Note_on_c, 1, 48, 127
1, 16162, Note_off_c, 1, 69, 0
1, 16164, Note_on_c, 1, 68, 127
1, 16173, Note_off_c, 1, 72, 0
1, 16173, Note_off_c, 1, 60, 0
1, 16173, Note_off_c, 1, 48, 0
1, 16174, Note_off_c, 1, 68, 0
1, 16176, Note_on_c, 1, 69, 127
1, 16176, Note_on_c, 1, 74, 127
1, 16176, Note_on_c, 1, 59, 127
1, 16176, Note_on_c, 1, 47, 127
1, 16186, Note_off_c, 1, 74, 0
1, 16188, Note_on_c, 1, 72, 127
1, 16197, Note_off_c, 1, 59, 0
1, 16197, Note_off_c, 1, 47, 0
1, 16198, Note_off_c, 1, 72, 0
1, 16200, Note_on_c, 1, 57, 127
1, 16200, Note_on_c, 1, 43, 127
1, 16200, Note_on_c, 1, 55, 127
1, 16218, Note_off_c, 1, 69, 0
1, 16221, Note_off_c, 1, 57, 0
1, 16221, Note_off_c, 1, 43, 0
1, 16221, Note_off_c, 1, 55, 0
1, 16224, Note_on_c, 1, 71, 127
1, 16224, Note_on_c, 1, 74, 127
1, 16224, Note_on_c, 1, 56, 127
1, 16224, Note_on_c, 1, 44, 127
1, 16245, Note_off_c, 1, 71, 0
1, 16248, Note_on_c, 1, 72, 127
1, 16266, Note_off_c, 1, 56, 0
1, 16266, Note_off_c, 1, 44, 0
1, 16269, Note_off_c, 1, 72, 0
1, 16272, Note_on_c, 1, 52, 127
1, 16272, Note_on_c, 1, 40, 127
1, 16287, Note_off_c, 1, 74, 0
1, 16296, Note_on_c, 1, 68, 127
1, 16296, Note_on_c, 1, 76, 127
1, 16306, Note_off_c, 1, 76, 0
1, 16308, Note_on_c, 1, 77, 127
1, 16314, Note_off_c, 1, 52, 0
1, 16314, Note_off_c, 1, 40, 0
1, 16317, Note_off_c, 1, 68, 0
1, 16318, Note_off_c, 1, 77, 0
1, 16320, Note_on_c, 1, 69, 127
1, 16320, Note_on_c, 1, 76, 127
1, 16320, Note_on_c, 1, 56, 127
1, 16320, Note_on_c, 1, 44, 127
1, 16341, Note_off_c, 1, 69, 0
1, 16341, Note_off_c, 1, 76, 0
1, 16344, Note_on_c, 1, 71, 127
1, 16344, Note_on_c, 1, 74, 127
1, 16362, Note_off_c, 1, 56, 0
1, 16362, Note_off_c, 1, 44, 0
1, 16365, Note_off_c, 1, 71, 0
1, 16365, Note_off_c, 1, 74, 0
1, 16368, Note_on_c, 1, 64, 127
1, 16368, Note_on_c, 1, 72, 127
1, 16368, Note_on_c, 1, 57, 127
1, 16368, Note_on_c, 1, 45, 127
1, 16389, Note_off_c, 1, 72, 0
1, 16392, Note_on_c, 1, 71, 127
1, 16410, Note_off_c, 1, 64, 0
1, 16410, Note_off_c, 1, 57, 0
1, 16410, Note_off_c, 1, 45, 0
1, 16413, Note_off_c, 1, 71, 0
1, 16416, Note_on_c, 1, 76, 127
1, 16416, Note_on_c, 1, 74, 127
1, 16416, Note_on_c, 1, 45, 127
1, 16416, Note_on_c, 1, 33, 127
1, 16437, Note_off_c, 1, 74, 0
1, 16440, Note_on_c, 1, 72, 127
1, 16458, Note_off_c, 1, 45, 0
1, 16458, Note_off_c, 1, 33, 0
1, 16461, Note_off_c, 1, 72, 0
1, 16464, Note_on_c, 1, 71, 127
1, 16464, Note_on_c, 1, 48, 127
1, 16464, Note_on_c, 1, 36, 127
1, 16485, Note_off_c, 1, 71, 0
1, 16488, Note_on_c, 1, 69, 127
1, 16506, Note_off_c, 1, 48, 0
1, 16506, Note_off_c, 1, 36, 0
1, 16509, Note_off_c, 1, 69, 0
1, 16512, Note_on_c, 1, 77, 127
1, 16512, Note_on_c, 1, 50, 127
1, 16512, Note_on_c, 1, 38, 127
1, 16533, Note_off_c, 1, 77, 0
1, 16533, Note_off_c, 1, 50, 0
1, 16533, Note_off_c, 1, 38, 0
1, 16536, Note_on_c, 1, 52, 127
1, 16536, Note_on_c, 1, 40, 127
1, 16554, Note_off_c, 1, 76, 0
1, 16557, Note_off_c, 1, 52, 0
1, 16557, Note_off_c, 1, 40, 0
1, 16560, Note_on_c, 1, 74, 127
1, 16560, Note_on_c, 1, 62, 127
1, 16560, Note_on_c, 1, 53, 127
1, 16560, Note_on_c, 1, 41, 127
1, 16581, Note_off_c, 1, 62, 0
1, 16581, Note_off_c, 1, 53, 0
1, 16581, Note_off_c, 1, 41, 0
1, 16584, Note_on_c, 1, 69, 127
1, 16584, Note_on_c, 1, 50, 127
1, 16584, Note_on_c, 1, 38, 127
1, 16602, Note_off_c, 1, 74, 0
1, 16605, Note_off_c, 1, 69, 0
1, 16605, Note_off_c, 1, 50, 0
1, 16605, Note_off_c, 1, 38, 0
1, 16608, Note_on_c, 1, 81, 127
1, 16608, Note_on_c, 1, 77, 127
1, 16608, Note_on_c, 1, 48, 127
1, 16608, Note_on_c, 1, 36, 127
1, 16629, Note_off_c, 1, 48, 0
1, 16629, Note_off_c, 1, 36, 0
1, 16632, Note_on_c, 1, 47, 127
1, 16632, Note_on_c, 1, 35, 127
1, 16650, Note_off_c, 1, 77, 0
1, 16653, Note_off_c, 1, 47, 0
1, 16653, Note_off_c, 1, 35, 0
1, 16680, Note_on_c, 1, 50, 127
1, 16680, Note_on_c, 1, 38, 127
1, 16698, Note_off_c, 1, 81, 0
1, 16701, Note_off_c, 1, 50, 0
1, 16701, Note_off_c, 1, 38, 0
1, 16704, Note_on_c, 1, 81, 127
1, 16704, Note_on_c, 1, 71, 127
1, 16704, Note_on_c, 1, 52, 127
1, 16704, Note_on_c, 1, 40, 127
1, 16714, Note_off_c, 1, 81, 0
1, 16716, Note_on_c, 1, 80, 127
1, 16725, Note_off_c, 1, 71, 0
1, 16725, Note_off_c, 1, 52, 0
1, 16725, Note_off_c, 1, 40, 0
1, 16726, Note_off_c, 1, 80, 0
1, 16728, Note_on_c, 1, 81, 127
1, 16728, Note_on_c, 1, 72, 127
1, 16728, Note_on_c, 1, 48, 127
1, 16728, Note_on_c, 1, 36, 127
1, 16738, Note_off_c, 1, 81, 0
1, 16740, Note_on_c, 1, 80, 127
1, 16749, Note_off_c, 1, 72, 0
1, 16749, Note_off_c, 1, 48, 0
1, 16749, Note_off_c, 1, 36, 0
1, 16750, Note_off_c, 1, 80, 0
1, 16752, Note_on_c, 1, 81, 127
1, 16752, Note_on_c, 1, 72, 127
1, 16752, Note_on_c, 1, 47, 127
1, 16752, Note_on_c, 1, 35, 127
1, 16773, Note_off_c, 1, 72, 0
1, 16773, Note_off_c, 1, 47, 0
1, 16773, Note_off_c, 1, 35, 0
1, 16776, Note_on_c, 1, 74, 127
1, 16776, Note_on_c, 1, 45, 127
1, 16776, Note_on_c, 1, 33, 127
1, 16794, Note_off_c, 1, 81, 0
1, 16797, Note_off_c, 1, 74, 0
1, 16797, Note_off_c, 1, 45, 0
1, 16797, Note_off_c, 1, 33, 0
1, 16800, Note_on_c, 1, 74, 127
1, 16800, Note_on_c, 1, 68, 127
1, 16800, Note_on_c, 1, 47, 127
1, 16800, Note_on_c, 1, 35, 127
1, 16821, Note_off_c, 1, 68, 0
1, 16821, Note_off_c, 1, 47, 0
1, 16821, Note_off_c, 1, 35, 0
1, 16824, Note_on_c, 1, 71, 127
1, 16824, Note_on_c, 1, 48, 127
1, 16824, Note_on_c, 1, 36, 127
1, 16842, Note_off_c, 1, 74, 0
1, 16845, Note_off_c, 1, 71, 0
1, 16845, Note_off_c, 1, 48, 0
1, 16845, Note_off_c, 1, 36, 0
1, 16848, Note_on_c, 1, 71, 127
1, 16848, Note_on_c, 1, 74, 127
1, 16848, Note_on_c, 1, 50, 127
1, 16848, Note_on_c, 1, 38, 127
1, 16869, Note_off_c, 1, 74, 0
1, 16869, Note_off_c, 1, 50, 0
1, 16869, Note_off_c, 1, 38, 0
1, 16872, Note_on_c, 1, 77, 127
1, 16872, Note_on_c, 1, 47, 127
1, 16872, Note_on_c, 1, 35, 127
1, 16890, Note_off_c, 1, 71, 0
1, 16893, Note_off_c, 1, 77, 0
1, 16893, Note_off_c, 1, 47, 0
1, 16893, Note_off_c, 1, 35, 0
1, 16896, Note_on_c, 1, 72, 127
1, 16896, Note_on_c, 1, 76, 127
1, 16896, Note_on_c, 1, 45, 127
1, 16896, Note_on_c, 1, 33, 127
1, 16917, Note_off_c, 1, 45, 0
1, 16917, Note_off_c, 1, 33, 0
1, 16920, Note_on_c, 1, 44, 127
1, 16920, Note_on_c, 1, 32, 127
1, 16941, Note_off_c, 1, 44, 0
1, 16941, Note_off_c, 1, 32, 0
1, 16965, Note_off_c, 1, 72, 0
1, 16965, Note_off_c, 1, 76, 0
1, 16968, Note_on_c, 1, 74, 127
1, 16968, Note_on_c, 1, 50, 127
1, 16968, Note_on_c, 1, 38, 127
1, 16989, Note_off_c, 1, 74, 0
1, 16989, Note_off_c, 1, 50, 0
1, 16989, Note_off_c, 1, 38, 0
1, 16992, Note_on_c, 1, 68, 127
1, 16992, Note_on_c, 1, 72, 127
1, 16992, Note_on_c, 1, 52, 127
1, 16992, Note_on_c, 1, 40, 127
1, 17034, Note_off_c, 1, 72, 0
1, 17034, Note_off_c, 1, 52, 0
1, 17034, Note_off_c, 1, 40, 0
1, 17040, Note_on_c, 1, 28, 127
1, 17052, Note_on_c, 1, 71, 127
1, 17055, Note_off_c, 1, 68, 0
1, 17062, Note_off_c, 1, 71, 0
1, 17064, Note_on_c, 1, 69, 127
1, 17082, Note_off_c, 1, 28, 0
1, 17085, Note_off_c, 1, 69, 0
1, 17088, Note_on_c, 1, 69, 127
1, 17088, Note_on_c, 1, 45, 127
1, 17088, Note_on_c, 1, 33, 127
1, 17109, Note_off_c, 1, 45, 0
1, 17109, Note_off_c, 1, 33, 0
1, 17112, Note_on_c, 1, 47, 127
1, 17112, Note_on_c, 1, 35, 127
1, 17130, Note_off_c, 1, 69, 0
1, 17133, Note_off_c, 1, 47, 0
1, 17133, Note_off_c, 1, 35, 0
1, 17136, Note_on_c, 1, 72, 127
1, 17136, Note_on_c, 1, 81, 127
1, 17136, Note_on_c, 1, 76, 127
1, 17136, Note_on_c, 1, 69, 127
1, 17136, Note_on_c, 1, 48, 127
1, 17136, Note_on_c, 1, 36, 127
1, 17157, Note_off_c, 1, 81, 0
1, 17157, Note_off_c, 1, 48, 0
1, 17157, Note_off_c, 1, 36, 0
1, 17160, Note_on_c, 1, 80, 127
1, 17160, Note_on_c, 1, 74, 127
1, 17160, Note_on_c, 1, 47, 127
1, 17160, Note_on_c, 1, 35, 127
1, 17178, Note_off_c, 1, 72, 0
1, 17178, Note_off_c, 1, 76, 0
1, 17178, Note_off_c, 1, 69, 0
1, 17181, Note_off_c, 1, 80, 0
1, 17181, Note_off_c, 1, 74, 0
1, 17181, Note_off_c, 1, 47, 0
1, 17181, Note_off_c, 1, 35, 0
1, 17184, Note_on_c, 1, 72, 127
1, 17184, Note_on_c, 1, 81, 127
1, 17184, Note_on_c, 1, 76, 127
1, 17184, Note_on_c, 1, 69, 127
1, 17184, Note_on_c, 1, 48, 127
1, 17184, Note_on_c, 1, 36, 127
1, 17205, Note_off_c, 1, 76, 0
1, 17205, Note_off_c, 1, 48, 0
1, 17205, Note_off_c, 1, 36, 0
1, 17208, Note_on_c, 1, 45, 127
1, 17208, Note_on_c, 1, 33, 127
1, 17226, Note_off_c, 1, 81, 0
1, 17226, Note_off_c, 1, 69, 0
1, 17229, Note_off_c, 1, 72, 0
1, 17229, Note_off_c, 1, 45, 0
1, 17229, Note_off_c, 1, 33, 0
1, 17232, Note_on_c, 1, 72, 127
1, 17232, Note_on_c, 1, 77, 127
1, 17232, Note_on_c, 1, 74, 127
1, 17232, Note_on_c, 1, 69, 127
1, 17232, Note_on_c, 1, 50, 127
1, 17232, Note_on_c, 1, 79, 127
1, 17232, Note_on_c, 1, 38, 127
1, 17242, Note_off_c, 1, 79, 0
1, 17253, Note_off_c, 1, 72, 0
1, 17253, Note_off_c, 1, 50, 0
1, 17253, Note_off_c, 1, 38, 0
1, 17256, Note_on_c, 1, 71, 127
1, 17256, Note_on_c, 1, 52, 127
1, 17256, Note_on_c, 1, 40, 127
1, 17274, Note_off_c, 1, 74, 0
1, 17274, Note_off_c, 1, 69, 0
1, 17277, Note_off_c, 1, 71, 0
1, 17277, Note_off_c, 1, 52, 0
1, 17277, Note_off_c, 1, 40, 0
1, 17278, Note_off_c, 1, 77, 0
1, 17280, Note_on_c, 1, 77, 127
1, 17280, Note_on_c, 1, 69, 127
1, 17280, Note_on_c, 1, 53, 127
1, 17280, Note_on_c, 1, 76, 127
1, 17280, Note_on_c, 1, 74, 127
1, 17280, Note_on_c, 1, 41, 127
1, 17280, Note_on_c, 1, 62, 127
1, 17301, Note_off_c, 1, 53, 0
1, 17301, Note_off_c, 1, 76, 0
1, 17301, Note_off_c, 1, 41, 0
1, 17304, Note_on_c, 1, 67, 127
1, 17304, Note_on_c, 1, 52, 127
1, 17304, Note_on_c, 1, 73, 127
1, 17304, Note_on_c, 1, 40, 127
1, 17322, Note_off_c, 1, 69, 0
1, 17322, Note_off_c, 1, 74, 0
1, 17322, Note_off_c, 1, 62, 0
1, 17325, Note_off_c, 1, 77, 0
1, 17325, Note_off_c, 1, 67, 0
1, 17325, Note_off_c, 1, 52, 0
1, 17325, Note_off_c, 1, 73, 0
1, 17325, Note_off_c, 1, 40, 0
1, 17328, Note_on_c, 1, 77, 127
1, 17328, Note_on_c, 1, 69, 127
1, 17328, Note_on_c, 1, 53, 127
1, 17328, Note_on_c, 1, 74, 127
1, 17328, Note_on_c, 1, 41, 127
1, 17328, Note_on_c, 1, 62, 127
1, 17349, Note_off_c, 1, 53, 0
1, 17349, Note_off_c, 1, 41, 0
1, 17352, Note_on_c, 1, 65, 127
1, 17352, Note_on_c, 1, 50, 127
1, 17352, Note_on_c, 1, 38, 127
1, 17370, Note_off_c, 1, 77, 0
1, 17370, Note_off_c, 1, 74, 0
1, 17370, Note_off_c, 1, 62, 0
1, 17373, Note_off_c, 1, 69, 0
1, 17373, Note_off_c, 1, 65, 0
1, 17373, Note_off_c, 1, 50, 0
1, 17373, Note_off_c, 1, 38, 0
1, 17376, Note_on_c, 1, 77, 127
1, 17376, Note_on_c, 1, 71, 127
1, 17376, Note_on_c, 1, 43, 127
1, 17376, Note_on_c, 1, 67, 127
1, 17376, Note_on_c, 1, 31, 127
1, 17376, Note_on_c, 1, 74, 127
1, 17376, Note_on_c, 1, 62, 127
1, 17397, Note_off_c, 1, 77, 0
1, 17397, Note_off_c, 1, 43, 0
1, 17397, Note_off_c, 1, 31, 0
1, 17400, Note_on_c, 1, 76, 127
1, 17400, Note_on_c, 1, 45, 127
1, 17400, Note_on_c, 1, 33, 127
1, 17418, Note_off_c, 1, 71, 0
1, 17418, Note_off_c, 1, 67, 0
1, 17418, Note_off_c, 1, 74, 0
1, 17418, Note_off_c, 1, 62, 0
1, 17421, Note_off_c, 1, 76, 0
1, 17421, Note_off_c, 1, 45, 0
1, 17421, Note_off_c, 1, 33, 0
1, 17424, Note_on_c, 1, 74, 127
1, 17424, Note_on_c, 1, 71, 127
1, 17424, Note_on_c, 1, 79, 127
1, 17424, Note_on_c, 1, 67, 127
1, 17424, Note_on_c, 1, 47, 127
1, 17424, Note_on_c, 1, 35, 127
1, 17445, Note_off_c, 1, 47, 0
1, 17445, Note_off_c, 1, 35, 0
1, 17448, Note_on_c, 1, 72, 127
1, 17448, Note_on_c, 1, 78, 127
1, 17448, Note_on_c, 1, 45, 127
1, 17448, Note_on_c, 1, 33, 127
1, 17466, Note_off_c, 1, 74, 0
1, 17466, Note_off_c, 1, 71, 0
1, 17466, Note_off_c, 1, 79, 0
1, 17466, Note_off_c, 1, 67, 0
1, 17469, Note_off_c, 1, 72, 0
1, 17469, Note_off_c, 1, 78, 0
1, 17469, Note_off_c, 1, 45, 0
1, 17469, Note_off_c, 1, 33, 0
1, 17472, Note_on_c, 1, 74, 127
1, 17472, Note_on_c, 1, 71, 127
1, 17472, Note_on_c, 1, 79, 127
1, 17472, Note_on_c, 1, 67, 127
1, 17472, Note_on_c, 1, 47, 127
1, 17472, Note_on_c, 1, 76, 127
1, 17472, Note_on_c, 1, 35, 127
1, 17482, Note_off_c, 1, 76, 0
1, 17484, Note_on_c, 1, 77, 127
1, 17493, Note_off_c, 1, 47, 0
1, 17493, Note_off_c, 1, 35, 0
1, 17494, Note_off_c, 1, 77, 0
1, 17496, Note_on_c, 1, 43, 127
1, 17496, Note_on_c, 1, 31, 127
1, 17514, Note_off_c, 1, 67, 0
1, 17517, Note_off_c, 1, 74, 0
1, 17517, Note_off_c, 1, 71, 0
1, 17517, Note_off_c, 1, 79, 0
1, 17517, Note_off_c, 1, 43, 0
1, 17517, Note_off_c, 1, 31, 0
1, 17520, Note_on_c, 1, 76, 127
1, 17520, Note_on_c, 1, 71, 127
1, 17520, Note_on_c, 1, 72, 127
1, 17520, Note_on_c, 1, 67, 127
1, 17520, Note_on_c, 1, 48, 127
1, 17520, Note_on_c, 1, 77, 127
1, 17520, Note_on_c, 1, 36, 127
1, 17541, Note_off_c, 1, 71, 0
1, 17541, Note_off_c, 1, 48, 0
1, 17541, Note_off_c, 1, 77, 0
1, 17541, Note_off_c, 1, 36, 0
1, 17544, Note_on_c, 1, 69, 127
1, 17544, Note_on_c, 1, 50, 127
1, 17544, Note_on_c, 1, 38, 127
1, 17562, Note_off_c, 1, 72, 0
1, 17562, Note_off_c, 1, 67, 0
1, 17565, Note_off_c, 1, 76, 0
1, 17565, Note_off_c, 1, 69, 0
1, 17565, Note_off_c, 1, 50, 0
1, 17565, Note_off_c, 1, 38, 0
1, 17568, Note_on_c, 1, 76, 127
1, 17568, Note_on_c, 1, 67, 127
1, 17568, Note_on_c, 1, 52, 127
1, 17568, Note_on_c, 1, 74, 127
1, 17568, Note_on_c, 1, 72, 127
1, 17568, Note_on_c, 1, 40, 127
1, 17568, Note_on_c, 1, 60, 127
1, 17589, Note_off_c, 1, 52, 0
1, 17589, Note_off_c, 1, 74, 0
1, 17589, Note_off_c, 1, 72, 0
1, 17589, Note_off_c, 1, 40, 0
1, 17592, Note_on_c, 1, 65, 127
1, 17592, Note_on_c, 1, 50, 127
1, 17592, Note_on_c, 1, 71, 127
1, 17592, Note_on_c, 1, 38, 127
1, 17610, Note_off_c, 1, 67, 0
1, 17610, Note_off_c, 1, 60, 0
1, 17613, Note_off_c, 1, 76, 0
1, 17613, Note_off_c, 1, 65, 0
1, 17613, Note_off_c, 1, 50, 0
1, 17613, Note_off_c, 1, 71, 0
1, 17613, Note_off_c, 1, 38, 0
1, 17616, Note_on_c, 1, 76, 127
1, 17616, Note_on_c, 1, 67, 127
1, 17616, Note_on_c, 1, 52, 127
1, 17616, Note_on_c, 1, 72, 127
1, 17616, Note_on_c, 1, 40, 127
1, 17616, Note_on_c, 1, 60, 127
1, 17637, Note_off_c, 1, 52, 0
1, 17637, Note_off_c, 1, 40, 0
1, 17640, Note_on_c, 1, 48, 127
1, 17640, Note_on_c, 1, 36, 127
1, 17658, Note_off_c, 1, 76, 0
1, 17658, Note_off_c, 1, 72, 0
1, 17661, Note_off_c, 1, 67, 0
1, 17661, Note_off_c, 1, 60, 0
1, 17661, Note_off_c, 1, 48, 0
1, 17661, Note_off_c, 1, 36, 0
1, 17664, Note_on_c, 1, 76, 127
1, 17664, Note_on_c, 1, 69, 127
1, 17664, Note_on_c, 1, 53, 127
1, 17664, Note_on_c, 1, 65, 127
1, 17664, Note_on_c, 1, 41, 127
1, 17664, Note_on_c, 1, 62, 127
1, 17685, Note_off_c, 1, 76, 0
1, 17685, Note_off_c, 1, 41, 0
1, 17688, Note_on_c, 1, 74, 127
1, 17688, Note_on_c, 1, 55, 127
1, 17688, Note_on_c, 1, 43, 127
1, 17706, Note_off_c, 1, 69, 0
1, 17706, Note_off_c, 1, 53, 0
1, 17706, Note_off_c, 1, 65, 0
1, 17706, Note_off_c, 1, 62, 0
1, 17709, Note_off_c, 1, 74, 0
1, 17709, Note_off_c, 1, 55, 0
1, 17709, Note_off_c, 1, 43, 0
1, 17712, Note_on_c, 1, 72, 127
1, 17712, Note_on_c, 1, 77, 127
1, 17712, Note_on_c, 1, 57, 127
1, 17712, Note_on_c, 1, 45, 127
1, 17733, Note_off_c, 1, 72, 0
1, 17733, Note_off_c, 1, 77, 0
1, 17733, Note_off_c, 1, 57, 0
1, 17733, Note_off_c, 1, 45, 0
1, 17736, Note_on_c, 1, 71, 127
1, 17736, Note_on_c, 1, 76, 127
1, 17736, Note_on_c, 1, 55, 127
1, 17736, Note_on_c, 1, 43, 127
1, 17757, Note_off_c, 1, 71, 0
1, 17757, Note_off_c, 1, 76, 0
1, 17757, Note_off_c, 1, 55, 0
1, 17757, Note_off_c, 1, 43, 0
1, 17760, Note_on_c, 1, 72, 127
1, 17760, Note_on_c, 1, 76, 127
1, 17760, Note_on_c, 1, 57, 127
1, 17760, Note_on_c, 1, 45, 127
1, 17781, Note_off_c, 1, 72, 0
1, 17781, Note_off_c, 1, 76, 0
1, 17781, Note_off_c, 1, 57, 0
1, 17781, Note_off_c, 1, 45, 0
1, 17784, Note_on_c, 1, 69, 127
1, 17784, Note_on_c, 1, 74, 127
1, 17784, Note_on_c, 1, 53, 127
1, 17784, Note_on_c, 1, 41, 127
1, 17805, Note_off_c, 1, 69, 0
1, 17805, Note_off_c, 1, 74, 0
1, 17805, Note_off_c, 1, 53, 0
1, 17805, Note_off_c, 1, 41, 0
1, 17808, Note_on_c, 1, 74, 127
1, 17808, Note_on_c, 1, 59, 127
1, 17808, Note_on_c, 1, 47, 127
1, 17829, Note_off_c, 1, 74, 0
1, 17832, Note_on_c, 1, 77, 127
1, 17832, Note_on_c, 1, 71, 127
1, 17850, Note_off_c, 1, 59, 0
1, 17850, Note_off_c, 1, 47, 0
1, 17853, Note_off_c, 1, 77, 0
1, 17853, Note_off_c, 1, 71, 0
1, 17856, Note_on_c, 1, 76, 127
1, 17856, Note_on_c, 1, 68, 127
1, 17856, Note_on_c, 1, 52, 127
1, 17856, Note_on_c, 1, 40, 127
1, 17877, Note_off_c, 1, 76, 0
1, 17877, Note_off_c, 1, 68, 0
1, 17880, Note_on_c, 1, 74, 127
1, 17880, Note_on_c, 1, 77, 127
1, 17898, Note_off_c, 1, 52, 0
1, 17898, Note_off_c, 1, 40, 0
1, 17901, Note_off_c, 1, 74, 0
1, 17901, Note_off_c, 1, 77, 0
1, 17904, Note_on_c, 1, 72, 127
1, 17904, Note_on_c, 1, 76, 127
1, 17904, Note_on_c, 1, 57, 127
1, 17904, Note_on_c, 1, 45, 127
1, 17925, Note_off_c, 1, 72, 0
1, 17925, Note_off_c, 1, 76, 0
1, 17928, Note_on_c, 1, 71, 127
1, 17928, Note_on_c, 1, 74, 127
1, 17946, Note_off_c, 1, 57, 0
1, 17946, Note_off_c, 1, 45, 0
1, 17949, Note_off_c, 1, 71, 0
1, 17949, Note_off_c, 1, 74, 0
1, 17952, Note_on_c, 1, 72, 127
1, 17952, Note_on_c, 1, 76, 127
1, 17952, Note_on_c, 1, 50, 127
1, 17952, Note_on_c, 1, 38, 127
1, 17973, Note_off_c, 1, 72, 0
1, 17973, Note_off_c, 1, 76, 0
1, 17976, Note_on_c, 1, 74, 127
1, 17976, Note_on_c, 1, 69, 127
1, 17994, Note_off_c, 1, 50, 0
1, 17994, Note_off_c, 1, 38, 0
1, 17997, Note_off_c, 1, 74, 0
1, 17997, Note_off_c, 1, 69, 0
1, 18000, Note_on_c, 1, 72, 127
1, 18000, Note_on_c, 1, 68, 127
1, 18000, Note_on_c, 1, 52, 127
1, 18000, Note_on_c, 1, 40, 127
1, 18010, Note_off_c, 1, 72, 0
1, 18012, Note_on_c, 1, 71, 127
1, 18022, Note_off_c, 1, 71, 0
1, 18042, Note_off_c, 1, 52, 0
1, 18042, Note_off_c, 1, 40, 0
1, 18048, Note_on_c, 1, 28, 127
1, 18063, Note_off_c, 1, 68, 0
1, 18072, Note_on_c, 1, 69, 127
1, 18090, Note_off_c, 1, 28, 0
1, 18093, Note_off_c, 1, 69, 0
1, 18096, Note_on_c, 1, 69, 127
1, 18096, Note_on_c, 1, 45, 127
1, 18096, Note_on_c, 1, 33, 127
1, 18120, Note_on_c, 1, 64, 127
1, 18138, Note_off_c, 1, 45, 0
1, 18138, Note_off_c, 1, 33, 0
1, 18141, Note_off_c, 1, 64, 0
1, 18144, Note_on_c, 1, 60, 127
1, 18144, Note_on_c, 1, 52, 127
1, 18144, Note_on_c, 1, 40, 127
1, 18168, Note_on_c, 1, 71, 127
1, 18168, Note_on_c, 1, 68, 127
1, 18168, Note_on_c, 1, 62, 127
1, 18186, Note_off_c, 1, 69, 0
1, 18186, Note_off_c, 1, 60, 0
1, 18186, Note_off_c, 1, 52, 0
1, 18186, Note_off_c, 1, 40, 0
1, 18189, Note_off_c, 1, 71, 0
1, 18189, Note_off_c, 1, 68, 0
1, 18189, Note_off_c, 1, 62, 0
1, 18192, Note_on_c, 1, 72, 127
1, 18192, Note_on_c, 1, 69, 127
1, 18192, Note_on_c, 1, 64, 127
1, 18192, Note_on_c, 1, 57, 127
1, 18192, Note_on_c, 1, 45, 127
1, 18216, Note_on_c, 1, 65, 127
1, 18234, Note_off_c, 1, 72, 0
1, 18234, Note_off_c, 1, 64, 0
1, 18234, Note_off_c, 1, 57, 0
1, 18234, Note_off_c, 1, 45, 0
1, 18237, Note_off_c, 1, 69, 0
1, 18237, Note_off_c, 1, 65, 0
1, 18240, Note_on_c, 1, 74, 127
1, 18240, Note_on_c, 1, 68, 127
1, 18240, Note_on_c, 1, 62, 127
1, 18240, Note_on_c, 1, 47, 127
1, 18240, Note_on_c, 1, 83, 127
1, 18240, Note_on_c, 1, 80, 127
1, 18240, Note_on_c, 1, 35, 127
1, 18261, Note_off_c, 1, 83, 0
1, 18261, Note_off_c, 1, 80, 0
1, 18264, Note_on_c, 1, 84, 127
1, 18264, Note_on_c, 1, 81, 127
1, 18264, Note_on_c, 1, 76, 127
1, 18282, Note_off_c, 1, 74, 0
1, 18282, Note_off_c, 1, 68, 0
1, 18282, Note_off_c, 1, 62, 0
1, 18282, Note_off_c, 1, 47, 0
1, 18282, Note_off_c, 1, 35, 0
1, 18285, Note_off_c, 1, 84, 0
1, 18285, Note_off_c, 1, 81, 0
1, 18285, Note_off_c, 1, 76, 0
1, 18288, Note_on_c, 1, 74, 127
1, 18288, Note_on_c, 1, 68, 127
1, 18288, Note_on_c, 1, 62, 127
1, 18288, Note_on_c, 1, 50, 127
1, 18288, Note_on_c, 1, 83, 127
1, 18288, Note_on_c, 1, 80, 127
1, 18288, Note_on_c, 1, 38, 127
1, 18288, Note_on_c, 1, 71, 127
1, 18309, Note_off_c, 1, 83, 0
1, 18312, Note_on_c, 1, 84, 127
1, 18312, Note_on_c, 1, 81, 127
1, 18312, Note_on_c, 1, 76, 127
1, 18330, Note_off_c, 1, 74, 0
1, 18330, Note_off_c, 1, 68, 0
1, 18330, Note_off_c, 1, 62, 0
1, 18330, Note_off_c, 1, 50, 0
1, 18330, Note_off_c, 1, 80, 0
1, 18330, Note_off_c, 1, 38, 0
1, 18330, Note_off_c, 1, 71, 0
1, 18333, Note_off_c, 1, 84, 0
1, 18333, Note_off_c, 1, 81, 0
1, 18333, Note_off_c, 1, 76, 0
1, 18336, Note_on_c, 1, 74, 127
1, 18336, Note_on_c, 1, 68, 127
1, 18336, Note_on_c, 1, 62, 127
1, 18336, Note_on_c, 1, 56, 127
1, 18336, Note_on_c, 1, 86, 127
1, 18336, Note_on_c, 1, 83, 127
1, 18336, Note_on_c, 1, 44, 127
1, 18336, Note_on_c, 1, 71, 127
1, 18336, Note_on_c, 1, 77, 127
1, 18357, Note_off_c, 1, 86, 0
1, 18357, Note_off_c, 1, 83, 0
1, 18357, Note_off_c, 1, 77, 0
1, 18360, Note_on_c, 1, 84, 127
1, 18360, Note_on_c, 1, 76, 127
1, 18378, Note_off_c, 1, 74, 0
1, 18378, Note_off_c, 1, 68, 0
1, 18378, Note_off_c, 1, 62, 0
1, 18378, Note_off_c, 1, 56, 0
1, 18378, Note_off_c, 1, 44, 0
1, 18378, Note_off_c, 1, 71, 0
1, 18381, Note_off_c, 1, 84, 0
1, 18381, Note_off_c, 1, 76, 0
1, 18384, Note_on_c, 1, 74, 127
1, 18384, Note_on_c, 1, 71, 127
1, 18384, Note_on_c, 1, 65, 127
1, 18384, Note_on_c, 1, 45, 127
1, 18384, Note_on_c, 1, 83, 127
1, 18384, Note_on_c, 1, 77, 127
1, 18384, Note_on_c, 1, 33, 127
1, 18408, Note_on_c, 1, 76, 127
1, 18426, Note_off_c, 1, 74, 0
1, 18426, Note_off_c, 1, 71, 0
1, 18426, Note_off_c, 1, 65, 0
1, 18426, Note_off_c, 1, 45, 0
1, 18426, Note_off_c, 1, 83, 0
1, 18426, Note_off_c, 1, 77, 0
1, 18426, Note_off_c, 1, 33, 0
1, 18429, Note_off_c, 1, 76, 0
1, 18432, Note_on_c, 1, 74, 127
1, 18432, Note_on_c, 1, 50, 127
1, 18432, Note_on_c, 1, 83, 127
1, 18432, Note_on_c, 1, 77, 127
1, 18432, Note_on_c, 1, 38, 127
1, 18432, Note_on_c, 1, 65, 127
1, 18432, Note_on_c, 1, 71, 127
1, 18456, Note_on_c, 1, 72, 127
1, 18474, Note_off_c, 1, 74, 0
1, 18474, Note_off_c, 1, 50, 0
1, 18474, Note_off_c, 1, 83, 0
1, 18474, Note_off_c, 1, 77, 0
1, 18474, Note_off_c, 1, 38, 0
1, 18474, Note_off_c, 1, 65, 0
1, 18474, Note_off_c, 1, 71, 0
1, 18477, Note_off_c, 1, 72, 0
1, 18480, Note_on_c, 1, 74, 127
1, 18480, Note_on_c, 1, 57, 127
1, 18480, Note_on_c, 1, 83, 127
1, 18480, Note_on_c, 1, 77, 127
1, 18480, Note_on_c, 1, 45, 127
1, 18480, Note_on_c, 1, 65, 127
1, 18504, Note_on_c, 1, 71, 127
1, 18522, Note_off_c, 1, 74, 0
1, 18522, Note_off_c, 1, 57, 0
1, 18522, Note_off_c, 1, 83, 0
1, 18522, Note_off_c, 1, 77, 0
1, 18522, Note_off_c, 1, 45, 0
1, 18522, Note_off_c, 1, 65, 0
1, 18525, Note_off_c, 1, 71, 0
1, 18528, Note_on_c, 1, 83, 127
1, 18528, Note_on_c, 1, 71, 127
1, 18528, Note_on_c, 1, 64, 127
1, 18528, Note_on_c, 1, 44, 127
1, 18528, Note_on_c, 1, 76, 127
1, 18528, Note_on_c, 1, 32, 127
1, 18528, Note_on_c, 1, 74, 127
1, 18549, Note_off_c, 1, 74, 0
1, 18552, Note_on_c, 1, 84, 127
1, 18570, Note_off_c, 1, 83, 0
1, 18570, Note_off_c, 1, 71, 0
1, 18570, Note_off_c, 1, 64, 0
1, 18570, Note_off_c, 1, 44, 0
1, 18570, Note_off_c, 1, 32, 0
1, 18573, Note_off_c, 1, 76, 0
1, 18573, Note_off_c, 1, 84, 0
1, 18576, Note_on_c, 1, 74, 127
1, 18576, Note_on_c, 1, 71, 127
1, 18576, Note_on_c, 1, 64, 127
1, 18576, Note_on_c, 1, 50, 127
1, 18576, Note_on_c, 1, 83, 127
1, 18576, Note_on_c, 1, 80, 127
1, 18576, Note_on_c, 1, 38, 127
1, 18576, Note_on_c, 1, 62, 127
1, 18597, Note_off_c, 1, 83, 0
1, 18597, Note_off_c, 1, 80, 0
1, 18600, Note_on_c, 1, 84, 127
1, 18600, Note_on_c, 1, 81, 127
1, 18600, Note_on_c, 1, 76, 127
1, 18618, Note_off_c, 1, 74, 0
1, 18618, Note_off_c, 1, 71, 0
1, 18618, Note_off_c, 1, 64, 0
1, 18618, Note_off_c, 1, 50, 0
1, 18618, Note_off_c, 1, 38, 0
1, 18618, Note_off_c, 1, 62, 0
1, 18621, Note_off_c, 1, 84, 0
1, 18621, Note_off_c, 1, 81, 0
1, 18621, Note_off_c, 1, 76, 0
1, 18624, Note_on_c, 1, 74, 127
1, 18624, Note_on_c, 1, 71, 127
1, 18624, Note_on_c, 1, 64, 127
1, 18624, Note_on_c, 1, 59, 127
1, 18624, Note_on_c, 1, 86, 127
1, 18624, Note_on_c, 1, 83, 127
1, 18624, Note_on_c, 1, 47, 127
1, 18624, Note_on_c, 1, 77, 127
1, 18645, Note_off_c, 1, 86, 0
1, 18645, Note_off_c, 1, 83, 0
1, 18645, Note_off_c, 1, 77, 0
1, 18648, Note_on_c, 1, 84, 127
1, 18648, Note_on_c, 1, 81, 127
1, 18648, Note_on_c, 1, 76, 127
1, 18666, Note_off_c, 1, 74, 0
1, 18666, Note_off_c, 1, 71, 0
1, 18666, Note_off_c, 1, 64, 0
1, 18666, Note_off_c, 1, 59, 0
1, 18666, Note_off_c, 1, 47, 0
1, 18669, Note_off_c, 1, 84, 0
1, 18669, Note_off_c, 1, 81, 0
1, 18669, Note_off_c, 1, 76, 0
1, 18672, Note_on_c, 1, 74, 127
1, 18672, Note_on_c, 1, 71, 127
1, 18672, Note_on_c, 1, 64, 127
1, 18672, Note_on_c, 1, 56, 127
1, 18672, Note_on_c, 1, 83, 127
1, 18672, Note_on_c, 1, 80, 127
1, 18672, Note_on_c, 1, 44, 127
1, 18714, Note_off_c, 1, 74, 0
1, 18714, Note_off_c, 1, 71, 0
1, 18714, Note_off_c, 1, 64, 0
1, 18714, Note_off_c, 1, 56, 0
1, 18714, Note_off_c, 1, 83, 0
1, 18714, Note_off_c, 1, 80, 0
1, 18714, Note_off_c, 1, 44, 0
1, 18720, Note_on_c, 1, 76, 127
1, 18720, Note_on_c, 1, 72, 127
1, 18720, Note_on_c, 1, 68, 127
1, 18720, Note_on_c, 1, 52, 127
1, 18720, Note_on_c, 1, 83, 127
1, 18720, Note_on_c, 1, 80, 127
1, 18720, Note_on_c, 1, 40, 127
1, 18720, Note_on_c, 1, 71, 127
1, 18720, Note_on_c, 1, 74, 127
1, 18741, Note_off_c, 1, 76, 0
1, 18741, Note_off_c, 1, 72, 0
1, 18762, Note_off_c, 1, 68, 0
1, 18762, Note_off_c, 1, 52, 0
1, 18762, Note_off_c, 1, 83, 0
1, 18762, Note_off_c, 1, 80, 0
1, 18762, Note_off_c, 1, 40, 0
1, 18765, Note_off_c, 1, 71, 0
1, 18765, Note_off_c, 1, 74, 0
1, 18768, Note_on_c, 1, 72, 127
1, 18768, Note_on_c, 1, 69, 127
1, 18768, Note_on_c, 1, 64, 127
1, 18768, Note_on_c, 1, 40, 127
1, 18768, Note_on_c, 1, 83, 127
1, 18768, Note_on_c, 1, 80, 127
1, 18768, Note_on_c, 1, 28, 127
1, 18768, Note_on_c, 1, 74, 127
1, 18792, Note_on_c, 1, 71, 127
1, 18792, Note_on_c, 1, 68, 127
1, 18810, Note_off_c, 1, 72, 0
1, 18810, Note_off_c, 1, 69, 0
1, 18810, Note_off_c, 1, 64, 0
1, 18810, Note_off_c, 1, 40, 0
1, 18810, Note_off_c, 1, 83, 0
1, 18810, Note_off_c, 1, 80, 0
1, 18810, Note_off_c, 1, 28, 0
1, 18810, Note_off_c, 1, 74, 0
1, 18813, Note_off_c, 1, 71, 0
1, 18813, Note_off_c, 1, 68, 0
1, 18816, Note_on_c, 1, 72, 127
1, 18816, Note_on_c, 1, 69, 127
1, 18816, Note_on_c, 1, 64, 127
1, 18816, Note_on_c, 1, 45, 127
1, 18816, Note_on_c, 1, 81, 127
1, 18816, Note_on_c, 1, 76, 127
1, 18816, Note_on_c, 1, 33, 127
1, 18837, Note_off_c, 1, 81, 0
1, 18837, Note_off_c, 1, 76, 0
1, 18840, Note_on_c, 1, 83, 127
1, 18840, Note_on_c, 1, 77, 127
1, 18840, Note_on_c, 1, 74, 127
1, 18858, Note_off_c, 1, 72, 0
1, 18858, Note_off_c, 1, 69, 0
1, 18858, Note_off_c, 1, 64, 0
1, 18858, Note_off_c, 1, 45, 0
1, 18858, Note_off_c, 1, 33, 0
1, 18861, Note_off_c, 1, 83, 0
1, 18861, Note_off_c, 1, 77, 0
1, 18861, Note_off_c, 1, 74, 0
1, 18864, Note_on_c, 1, 72, 127
1, 18864, Note_on_c, 1, 69, 127
1, 18864, Note_on_c, 1, 64, 127
1, 18864, Note_on_c, 1, 52, 127
1, 18864, Note_on_c, 1, 81, 127
1, 18864, Note_on_c, 1, 76, 127
1, 18864, Note_on_c, 1, 40, 127
1, 18885, Note_off_c, 1, 81, 0
1, 18885, Note_off_c, 1, 76, 0
1, 18888, Note_on_c, 1, 83, 127
1, 18888, Note_on_c, 1, 74, 127
1, 18906, Note_off_c, 1, 72, 0
1, 18906, Note_off_c, 1, 69, 0
1, 18906, Note_off_c, 1, 64, 0
1, 18906, Note_off_c, 1, 52, 0
1, 18906, Note_off_c, 1, 40, 0
1, 18909, Note_off_c, 1, 83, 0
1, 18909, Note_off_c, 1, 74, 0
1, 18912, Note_on_c, 1, 72, 127
1, 18912, Note_on_c, 1, 69, 127
1, 18912, Note_on_c, 1, 64, 127
1, 18912, Note_on_c, 1, 57, 127
1, 18912, Note_on_c, 1, 84, 127
1, 18912, Note_on_c, 1, 45, 127
1, 18912, Note_on_c, 1, 76, 127
1, 18933, Note_off_c, 1, 84, 0
1, 18933, Note_off_c, 1, 76, 0
1, 18936, Note_on_c, 1, 83, 127
1, 18936, Note_on_c, 1, 74, 127
1, 18954, Note_off_c, 1, 72, 0
1, 18954, Note_off_c, 1, 69, 0
1, 18954, Note_off_c, 1, 64, 0
1, 18954, Note_off_c, 1, 57, 0
1, 18954, Note_off_c, 1, 45, 0
1, 18957, Note_off_c, 1, 83, 0
1, 18957, Note_off_c, 1, 74, 0
1, 18960, Note_on_c, 1, 72, 127
1, 18960, Note_on_c, 1, 69, 127
1, 18960, Note_on_c, 1, 64, 127
1, 18960, Note_on_c, 1, 43, 127
1, 18960, Note_on_c, 1, 81, 127
1, 18960, Note_on_c, 1, 76, 127
1, 18960, Note_on_c, 1, 31, 127
1, 18984, Note_on_c, 1, 74, 127
1, 19002, Note_off_c, 1, 72, 0
1, 19002, Note_off_c, 1, 69, 0
1, 19002, Note_off_c, 1, 64, 0
1, 19002, Note_off_c, 1, 43, 0
1, 19002, Note_off_c, 1, 81, 0
1, 19002, Note_off_c, 1, 76, 0
1, 19002, Note_off_c, 1, 31, 0
1, 19005, Note_off_c, 1, 74, 0
1, 19008, Note_on_c, 1, 72, 127
1, 19008, Note_on_c, 1, 52, 127
1, 19008, Note_on_c, 1, 81, 127
1, 19008, Note_on_c, 1, 76, 127
1, 19008, Note_on_c, 1, 40, 127
1, 19008, Note_on_c, 1, 69, 127
1, 19032, Note_on_c, 1, 71, 127
1, 19050, Note_off_c, 1, 72, 0
1, 19050, Note_off_c, 1, 52, 0
1, 19050, Note_off_c, 1, 81, 0
1, 19050, Note_off_c, 1, 76, 0
1, 19050, Note_off_c, 1, 40, 0
1, 19050, Note_off_c, 1, 69, 0
1, 19053, Note_off_c, 1, 71, 0
1, 19056, Note_on_c, 1, 72, 127
1, 19056, Note_on_c, 1, 57, 127
1, 19056, Note_on_c, 1, 81, 127
1, 19056, Note_on_c, 1, 76, 127
1, 19056, Note_on_c, 1, 45, 127
1, 19056, Note_on_c, 1, 64, 127
1, 19080, Note_on_c, 1, 69, 127
1, 19098, Note_off_c, 1, 72, 0
1, 19098, Note_off_c, 1, 57, 0
1, 19098, Note_off_c, 1, 81, 0
1, 19098, Note_off_c, 1, 76, 0
1, 19098, Note_off_c, 1, 45, 0
1, 19098, Note_off_c, 1, 64, 0
1, 19101, Note_off_c, 1, 69, 0
1, 19104, Note_on_c, 1, 81, 127
1, 19104, Note_on_c, 1, 69, 127
1, 19104, Note_on_c, 1, 65, 127
1, 19104, Note_on_c, 1, 41, 127
1, 19104, Note_on_c, 1, 77, 127
1, 19104, Note_on_c, 1, 29, 127
1, 19104, Note_on_c, 1, 60, 127
1, 19104, Note_on_c, 1, 72, 127
1, 19125, Note_off_c, 1, 77, 0
1, 19125, Note_off_c, 1, 72, 0
1, 19128, Note_on_c, 1, 83, 127
1, 19128, Note_on_c, 1, 79, 127
1, 19128, Note_on_c, 1, 74, 127
1, 19146, Note_off_c, 1, 81, 0
1, 19146, Note_off_c, 1, 69, 0
1, 19146, Note_off_c, 1, 65, 0
1, 19146, Note_off_c, 1, 41, 0
1, 19146, Note_off_c, 1, 29, 0
1, 19146, Note_off_c, 1, 60, 0
1, 19149, Note_off_c, 1, 83, 0
1, 19149, Note_off_c, 1, 79, 0
1, 19149, Note_off_c, 1, 74, 0
1, 19152, Note_on_c, 1, 72, 127
1, 19152, Note_on_c, 1, 69, 127
1, 19152, Note_on_c, 1, 65, 127
1, 19152, Note_on_c, 1, 53, 127
1, 19152, Note_on_c, 1, 81, 127
1, 19152, Note_on_c, 1, 77, 127
1, 19152, Note_on_c, 1, 41, 127
1, 19173, Note_off_c, 1, 81, 0
1, 19173, Note_off_c, 1, 77, 0
1, 19176, Note_on_c, 1, 83, 127
1, 19176, Note_on_c, 1, 79, 127
1, 19176, Note_on_c, 1, 74, 127
1, 19194, Note_off_c, 1, 72, 0
1, 19194, Note_off_c, 1, 69, 0
1, 19194, Note_off_c, 1, 65, 0
1, 19194, Note_off_c, 1, 53, 0
1, 19194, Note_off_c, 1, 41, 0
1, 19197, Note_off_c, 1, 83, 0
1, 19197, Note_off_c, 1, 79, 0
1, 19197, Note_off_c, 1, 74, 0
1, 19200, Note_on_c, 1, 72, 127
1, 19200, Note_on_c, 1, 69, 127
1, 19200, Note_on_c, 1, 65, 127
1, 19200, Note_on_c, 1, 48, 127
1, 19200, Note_on_c, 1, 84, 127
1, 19200, Note_on_c, 1, 81, 127
1, 19200, Note_on_c, 1, 36, 127
1, 19200, Note_on_c, 1, 77, 127
1, 19200, Note_on_c, 1, 76, 127
1, 19221, Note_off_c, 1, 84, 0
1, 19221, Note_off_c, 1, 81, 0
1, 19221, Note_off_c, 1, 76, 0
1, 19224, Note_on_c, 1, 83, 127
1, 19224, Note_on_c, 1, 79, 127
1, 19224, Note_on_c, 1, 74, 127
1, 19242, Note_off_c, 1, 72, 0
1, 19242, Note_off_c, 1, 69, 0
1, 19242, Note_off_c, 1, 65, 0
1, 19242, Note_off_c, 1, 48, 0
1, 19242, Note_off_c, 1, 36, 0
1, 19242, Note_off_c, 1, 77, 0
1, 19245, Note_off_c, 1, 83, 0
1, 19245, Note_off_c, 1, 79, 0
1, 19245, Note_off_c, 1, 74, 0
1, 19248, Note_on_c, 1, 72, 127
1, 19248, Note_on_c, 1, 69, 127
1, 19248, Note_on_c, 1, 65, 127
1, 19248, Note_on_c, 1, 50, 127
1, 19248, Note_on_c, 1, 81, 127
1, 19248, Note_on_c, 1, 77, 127
1, 19248, Note_on_c, 1, 38, 127
1, 19290, Note_off_c, 1, 72, 0
1, 19290, Note_off_c, 1, 69, 0
1, 19290, Note_off_c, 1, 65, 0
1, 19290, Note_off_c, 1, 50, 0
1, 19290, Note_off_c, 1, 81, 0
1, 19290, Note_off_c, 1, 77, 0
1, 19290, Note_off_c, 1, 38, 0
1, 19296, Note_on_c, 1, 74, 127
1, 19296, Note_on_c, 1, 69, 127
1, 19296, Note_on_c, 1, 53, 127
1, 19296, Note_on_c, 1, 83, 127
1, 19296, Note_on_c, 1, 77, 127
1, 19296, Note_on_c, 1, 41, 127
1, 19296, Note_on_c, 1, 72, 127
1, 19296, Note_on_c, 1, 71, 127
1, 19317, Note_off_c, 1, 74, 0
1, 19317, Note_off_c, 1, 83, 0
1, 19317, Note_off_c, 1, 71, 0
1, 19320, Note_on_c, 1, 81, 127
1, 19338, Note_off_c, 1, 69, 0
1, 19338, Note_off_c, 1, 53, 0
1, 19338, Note_off_c, 1, 77, 0
1, 19338, Note_off_c, 1, 41, 0
1, 19341, Note_off_c, 1, 72, 0
1, 19341, Note_off_c, 1, 81, 0
1, 19344, Note_on_c, 1, 71, 127
1, 19344, Note_on_c, 1, 62, 127
1, 19344, Note_on_c, 1, 47, 127
1, 19344, Note_on_c, 1, 80, 127
1, 19344, Note_on_c, 1, 77, 127
1, 19344, Note_on_c, 1, 35, 127
1, 19344, Note_on_c, 1, 68, 127
1, 19344, Note_on_c, 1, 74, 127
1, 19365, Note_off_c, 1, 80, 0
1, 19368, Note_on_c, 1, 69, 127
1, 19368, Note_on_c, 1, 81, 127
1, 19368, Note_on_c, 1, 72, 127
1, 19386, Note_off_c, 1, 71, 0
1, 19386, Note_off_c, 1, 62, 0
1, 19386, Note_off_c, 1, 47, 0
1, 19386, Note_off_c, 1, 77, 0
1, 19386, Note_off_c, 1, 35, 0
1, 19386, Note_off_c, 1, 68, 0
1, 19386, Note_off_c, 1, 74, 0
1, 19389, Note_off_c, 1, 69, 0
1, 19389, Note_off_c, 1, 81, 0
1, 19389, Note_off_c, 1, 72, 0
1, 19392, Note_on_c, 1, 68, 127
1, 19392, Note_on_c, 1, 62, 127
1, 19392, Note_on_c, 1, 71, 127
1, 19392, Note_on_c, 1, 40, 127
1, 19392, Note_on_c, 1, 83, 127
1, 19392, Note_on_c, 1, 28, 127
1, 19416, Note_on_c, 1, 66, 127
1, 19434, Note_off_c, 1, 68, 0
1, 19434, Note_off_c, 1, 62, 0
1, 19434, Note_off_c, 1, 71, 0
1, 19434, Note_off_c, 1, 40, 0
1, 19434, Note_off_c, 1, 83, 0
1, 19434, Note_off_c, 1, 28, 0
1, 19437, Note_off_c, 1, 66, 0
1, 19440, Note_on_c, 1, 68, 127
1, 19440, Note_on_c, 1, 62, 127
1, 19440, Note_on_c, 1, 44, 127
1, 19440, Note_on_c, 1, 32, 127
1, 19464, Note_on_c, 1, 64, 127
1, 19482, Note_off_c, 1, 68, 0
1, 19482, Note_off_c, 1, 62, 0
1, 19482, Note_off_c, 1, 44, 0
1, 19482, Note_off_c, 1, 32, 0
1, 19485, Note_off_c, 1, 64, 0
1, 19488, Note_on_c, 1, 71, 127
1, 19488, Note_on_c, 1, 68, 127
1, 19488, Note_on_c, 1, 62, 127
1, 19488, Note_on_c, 1, 47, 127
1, 19488, Note_on_c, 1, 35, 127
1, 19509, Note_off_c, 1, 71, 0
1, 19509, Note_off_c, 1, 68, 0
1, 19509, Note_off_c, 1, 62, 0
1, 19512, Note_on_c, 1, 69, 127
1, 19512, Note_on_c, 1, 66, 127
1, 19512, Note_on_c, 1, 60, 127
1, 19530, Note_off_c, 1, 47, 0
1, 19530, Note_off_c, 1, 35, 0
1, 19533, Note_off_c, 1, 69, 0
1, 19533, Note_off_c, 1, 66, 0
1, 19533, Note_off_c, 1, 60, 0
1, 19536, Note_on_c, 1, 71, 127
1, 19536, Note_on_c, 1, 68, 127
1, 19536, Note_on_c, 1, 62, 127
1, 19536, Note_on_c, 1, 52, 127
1, 19536, Note_on_c, 1, 40, 127
1, 19557, Note_off_c, 1, 71, 0
1, 19557, Note_off_c, 1, 68, 0
1, 19560, Note_on_c, 1, 64, 127
1, 19578, Note_off_c, 1, 62, 0
1, 19578, Note_off_c, 1, 52, 0
1, 19578, Note_off_c, 1, 40, 0
1, 19581, Note_off_c, 1, 64, 0
1, 19584, Note_on_c, 1, 74, 127
1, 19584, Note_on_c, 1, 71, 127
1, 19584, Note_on_c, 1, 64, 127
1, 19584, Note_on_c, 1, 56, 127
1, 19584, Note_on_c, 1, 44, 127
1, 19605, Note_off_c, 1, 74, 0
1, 19605, Note_off_c, 1, 71, 0
1, 19608, Note_on_c, 1, 72, 127
1, 19608, Note_on_c, 1, 69, 127
1, 19626, Note_off_c, 1, 64, 0
1, 19626, Note_off_c, 1, 56, 0
1, 19626, Note_off_c, 1, 44, 0
1, 19629, Note_off_c, 1, 72, 0
1, 19629, Note_off_c, 1, 69, 0
1, 19632, Note_on_c, 1, 74, 127
1, 19632, Note_on_c, 1, 71, 127
1, 19632, Note_on_c, 1, 68, 127
1, 19632, Note_on_c, 1, 52, 127
1, 19632, Note_on_c, 1, 40, 127
1, 19653, Note_off_c, 1, 74, 0
1, 19653, Note_off_c, 1, 71, 0
1, 19674, Note_off_c, 1, 52, 0
1, 19674, Note_off_c, 1, 40, 0
1, 19677, Note_off_c, 1, 68, 0
1, 19680, Note_on_c, 1, 72, 127
1, 19680, Note_on_c, 1, 69, 127
1, 19680, Note_on_c, 1, 64, 127
1, 19680, Note_on_c, 1, 57, 127
1, 19680, Note_on_c, 1, 45, 127
1, 19701, Note_off_c, 1, 72, 0
1, 19701, Note_off_c, 1, 57, 0
1, 19701, Note_off_c, 1, 45, 0
1, 19704, Note_on_c, 1, 71, 127
1, 19704, Note_on_c, 1, 56, 127
1, 19704, Note_on_c, 1, 44, 127
1, 19725, Note_off_c, 1, 71, 0
1, 19725, Note_off_c, 1, 56, 0
1, 19725, Note_off_c, 1, 44, 0
1, 19743, Note_off_c, 1, 69, 0
1, 19743, Note_off_c, 1, 64, 0
1, 19752, Note_on_c, 1, 68, 127
1, 19752, Note_on_c, 1, 71, 127
1, 19752, Note_on_c, 1, 62, 127
1, 19752, Note_on_c, 1, 52, 127
1, 19752, Note_on_c, 1, 40, 127
1, 19773, Note_off_c, 1, 68, 0
1, 19773, Note_off_c, 1, 71, 0
1, 19773, Note_off_c, 1, 62, 0
1, 19773, Note_off_c, 1, 52, 0
1, 19773, Note_off_c, 1, 40, 0
1, 19776, Note_on_c, 1, 69, 127
1, 19776, Note_on_c, 1, 60, 127
1, 19776, Note_on_c, 1, 53, 127
1, 19776, Note_on_c, 1, 41, 127
1, 19800, Note_on_c, 1, 68, 127
1, 19821, Note_off_c, 1, 68, 0
1, 19845, Note_off_c, 1, 69, 0
1, 19845, Note_off_c, 1, 60, 0
1, 19845, Note_off_c, 1, 53, 0
1, 19845, Note_off_c, 1, 41, 0
1, 19848, Note_on_c, 1, 71, 127
1, 19848, Note_on_c, 1, 69, 127
1, 19848, Note_on_c, 1, 65, 127
1, 19848, Note_on_c, 1, 50, 127
1, 19848, Note_on_c, 1, 38, 127
1, 19869, Note_off_c, 1, 71, 0
1, 19869, Note_off_c, 1, 69, 0
1, 19869, Note_off_c, 1, 65, 0
1, 19869, Note_off_c, 1, 50, 0
1, 19869, Note_off_c, 1, 38, 0
1, 19872, Note_on_c, 1, 71, 127
1, 19872, Note_on_c, 1, 68, 127
1, 19872, Note_on_c, 1, 64, 127
1, 19872, Note_on_c, 1, 52, 127
1, 19872, Note_on_c, 1, 40, 127
1, 19914, Note_off_c, 1, 52, 0
1, 19914, Note_off_c, 1, 40, 0
1, 19920, Note_on_c, 1, 28, 127
1, 19935, Note_off_c, 1, 71, 0
1, 19935, Note_off_c, 1, 68, 0
1, 19935, Note_off_c, 1, 64, 0
1, 19944, Note_on_c, 1, 69, 127
1, 19962, Note_off_c, 1, 28, 0
1, 19965, Note_off_c, 1, 69, 0
1, 19968, Note_on_c, 1, 69, 127
1, 19968, Note_on_c, 1, 64, 127
1, 19968, Note_on_c, 1, 60, 127
1, 19968, Note_on_c, 1, 45, 127
1, 19968, Note_on_c, 1, 33, 127
1, 19989, Note_off_c, 1, 45, 0
1, 19989, Note_off_c, 1, 33, 0
1, 19992, Note_on_c, 1, 47, 127
1, 19992, Note_on_c, 1, 35, 127
1, 20010, Note_off_c, 1, 69, 0
1, 20010, Note_off_c, 1, 64, 0
1, 20010, Note_off_c, 1, 60, 0
1, 20013, Note_off_c, 1, 47, 0
1, 20013, Note_off_c, 1, 35, 0
1, 20016, Note_on_c, 1, 48, 127
1, 20016, Note_on_c, 1, 72, 127
1, 20016, Note_on_c, 1, 76, 127
1, 20016, Note_on_c, 1, 36, 127
1, 20016, Note_on_c, 1, 69, 127
1, 20037, Note_off_c, 1, 48, 0
1, 20037, Note_off_c, 1, 36, 0
1, 20040, Note_on_c, 1, 47, 127
1, 20040, Note_on_c, 1, 35, 127
1, 20058, Note_off_c, 1, 72, 0
1, 20058, Note_off_c, 1, 76, 0
1, 20058, Note_off_c, 1, 69, 0
1, 20061, Note_off_c, 1, 47, 0
1, 20061, Note_off_c, 1, 35, 0
1, 20064, Note_on_c, 1, 48, 127
1, 20064, Note_on_c, 1, 72, 127
1, 20064, Note_on_c, 1, 81, 127
1, 20064, Note_on_c, 1, 76, 127
1, 20064, Note_on_c, 1, 36, 127
1, 20064, Note_on_c, 1, 69, 127
1, 20085, Note_off_c, 1, 48, 0
1, 20085, Note_off_c, 1, 36, 0
1, 20088, Note_on_c, 1, 45, 127
1, 20088, Note_on_c, 1, 33, 127
1, 20106, Note_off_c, 1, 72, 0
1, 20106, Note_off_c, 1, 81, 0
1, 20106, Note_off_c, 1, 76, 0
1, 20106, Note_off_c, 1, 69, 0
1, 20109, Note_off_c, 1, 45, 0
1, 20109, Note_off_c, 1, 33, 0
1, 20112, Note_on_c, 1, 50, 127
1, 20112, Note_on_c, 1, 72, 127
1, 20112, Note_on_c, 1, 77, 127
1, 20112, Note_on_c, 1, 74, 127
1, 20112, Note_on_c, 1, 38, 127
1, 20112, Note_on_c, 1, 69, 127
1, 20133, Note_off_c, 1, 50, 0
1, 20133, Note_off_c, 1, 72, 0
1, 20133, Note_off_c, 1, 38, 0
1, 20136, Note_on_c, 1, 52, 127
1, 20136, Note_on_c, 1, 75, 127
1, 20136, Note_on_c, 1, 40, 127
1, 20154, Note_off_c, 1, 77, 0
1, 20154, Note_off_c, 1, 74, 0
1, 20154, Note_off_c, 1, 69, 0
1, 20157, Note_off_c, 1, 52, 0
1, 20157, Note_off_c, 1, 75, 0
1, 20157, Note_off_c, 1, 40, 0
1, 20160, Note_on_c, 1, 77, 127
1, 20160, Note_on_c, 1, 69, 127
1, 20160, Note_on_c, 1, 65, 127
1, 20160, Note_on_c, 1, 62, 127
1, 20160, Note_on_c, 1, 53, 127
1, 20160, Note_on_c, 1, 74, 127
1, 20160, Note_on_c, 1, 41, 127
1, 20181, Note_off_c, 1, 53, 0
1, 20181, Note_off_c, 1, 41, 0
1, 20184, Note_on_c, 1, 52, 127
1, 20184, Note_on_c, 1, 72, 127
1, 20184, Note_on_c, 1, 40, 127
1, 20202, Note_off_c, 1, 77, 0
1, 20202, Note_off_c, 1, 69, 0
1, 20202, Note_off_c, 1, 65, 0
1, 20202, Note_off_c, 1, 62, 0
1, 20202, Note_off_c, 1, 74, 0
1, 20205, Note_off_c, 1, 52, 0
1, 20205, Note_off_c, 1, 72, 0
1, 20205, Note_off_c, 1, 40, 0
1, 20208, Note_on_c, 1, 77, 127
1, 20208, Note_on_c, 1, 74, 127
1, 20208, Note_on_c, 1, 69, 127
1, 20208, Note_on_c, 1, 65, 127
1, 20208, Note_on_c, 1, 53, 127
1, 20208, Note_on_c, 1, 70, 127
1, 20208, Note_on_c, 1, 41, 127
1, 20229, Note_off_c, 1, 53, 0
1, 20229, Note_off_c, 1, 70, 0
1, 20229, Note_off_c, 1, 41, 0
1, 20232, Note_on_c, 1, 50, 127
1, 20232, Note_on_c, 1, 38, 127
1, 20250, Note_off_c, 1, 77, 0
1, 20250, Note_off_c, 1, 74, 0
1, 20250, Note_off_c, 1, 65, 0
1, 20253, Note_off_c, 1, 69, 0
1, 20253, Note_off_c, 1, 50, 0
1, 20253, Note_off_c, 1, 38, 0
1, 20256, Note_on_c, 1, 77, 127
1, 20256, Note_on_c, 1, 70, 127
1, 20256, Note_on_c, 1, 67, 127
1, 20256, Note_on_c, 1, 62, 127
1, 20256, Note_on_c, 1, 43, 127
1, 20256, Note_on_c, 1, 31, 127
1, 20277, Note_off_c, 1, 77, 0
1, 20277, Note_off_c, 1, 43, 0
1, 20277, Note_off_c, 1, 31, 0
1, 20280, Note_on_c, 1, 76, 127
1, 20280, Note_on_c, 1, 45, 127
1, 20280, Note_on_c, 1, 33, 127
1, 20298, Note_off_c, 1, 70, 0
1, 20298, Note_off_c, 1, 67, 0
1, 20298, Note_off_c, 1, 62, 0
1, 20301, Note_off_c, 1, 76, 0
1, 20301, Note_off_c, 1, 45, 0
1, 20301, Note_off_c, 1, 33, 0
1, 20304, Note_on_c, 1, 74, 127
1, 20304, Note_on_c, 1, 46, 127
1, 20304, Note_on_c, 1, 69, 127
1, 20304, Note_on_c, 1, 70, 127
1, 20304, Note_on_c, 1, 34, 127
1, 20304, Note_on_c, 1, 62, 127
1, 20304, Note_on_c, 1, 67, 127
1, 20325, Note_off_c, 1, 46, 0
1, 20325, Note_off_c, 1, 69, 0
1, 20325, Note_off_c, 1, 34, 0
1, 20328, Note_on_c, 1, 72, 127
1, 20328, Note_on_c, 1, 45, 127
1, 20328, Note_on_c, 1, 33, 127
1, 20346, Note_off_c, 1, 74, 0
1, 20346, Note_off_c, 1, 70, 0
1, 20346, Note_off_c, 1, 62, 0
1, 20349, Note_off_c, 1, 67, 0
1, 20349, Note_off_c, 1, 72, 0
1, 20349, Note_off_c, 1, 45, 0
1, 20349, Note_off_c, 1, 33, 0
1, 20352, Note_on_c, 1, 74, 127
1, 20352, Note_on_c, 1, 46, 127
1, 20352, Note_on_c, 1, 70, 127
1, 20352, Note_on_c, 1, 79, 127
1, 20352, Note_on_c, 1, 34, 127
1, 20352, Note_on_c, 1, 62, 127
1, 20352, Note_on_c, 1, 67, 127
1, 20373, Note_off_c, 1, 46, 0
1, 20373, Note_off_c, 1, 34, 0
1, 20376, Note_on_c, 1, 43, 127
1, 20376, Note_on_c, 1, 31, 127
1, 20394, Note_off_c, 1, 74, 0
1, 20394, Note_off_c, 1, 79, 0
1, 20394, Note_off_c, 1, 62, 0
1, 20394, Note_off_c, 1, 67, 0
1, 20397, Note_off_c, 1, 43, 0
1, 20397, Note_off_c, 1, 31, 0
1, 20400, Note_on_c, 1, 76, 127
1, 20400, Note_on_c, 1, 48, 127
1, 20400, Note_on_c, 1, 72, 127
1, 20400, Note_on_c, 1, 36, 127
1, 20421, Note_off_c, 1, 70, 0
1, 20421, Note_off_c, 1, 48, 0
1, 20421, Note_off_c, 1, 36, 0
1, 20424, Note_on_c, 1, 50, 127
1, 20424, Note_on_c, 1, 38, 127
1, 20442, Note_off_c, 1, 76, 0
1, 20442, Note_off_c, 1, 72, 0
1, 20445, Note_off_c, 1, 50, 0
1, 20445, Note_off_c, 1, 38, 0
1, 20448, Note_on_c, 1, 77, 127
1, 20448, Note_on_c, 1, 67, 127
1, 20448, Note_on_c, 1, 64, 127
1, 20448, Note_on_c, 1, 60, 127
1, 20448, Note_on_c, 1, 52, 127
1, 20448, Note_on_c, 1, 72, 127
1, 20448, Note_on_c, 1, 40, 127
1, 20458, Note_off_c, 1, 77, 0
1, 20460, Note_on_c, 1, 76, 127
1, 20469, Note_off_c, 1, 52, 0
1, 20469, Note_off_c, 1, 72, 0
1, 20469, Note_off_c, 1, 40, 0
1, 20470, Note_off_c, 1, 76, 0
1, 20472, Note_on_c, 1, 50, 127
1, 20472, Note_on_c, 1, 70, 127
1, 20472, Note_on_c, 1, 38, 127
1, 20490, Note_off_c, 1, 64, 0
1, 20490, Note_off_c, 1, 60, 0
1, 20493, Note_off_c, 1, 67, 0
1, 20493, Note_off_c, 1, 50, 0
1, 20493, Note_off_c, 1, 70, 0
1, 20493, Note_off_c, 1, 38, 0
1, 20496, Note_on_c, 1, 77, 127
1, 20496, Note_on_c, 1, 67, 127
1, 20496, Note_on_c, 1, 72, 127
1, 20496, Note_on_c, 1, 64, 127
1, 20496, Note_on_c, 1, 52, 127
1, 20496, Note_on_c, 1, 69, 127
1, 20496, Note_on_c, 1, 40, 127
1, 20496, Note_on_c, 1, 60, 127
1, 20506, Note_off_c, 1, 77, 0
1, 20508, Note_on_c, 1, 76, 127
1, 20517, Note_off_c, 1, 52, 0
1, 20517, Note_off_c, 1, 69, 0
1, 20517, Note_off_c, 1, 40, 0
1, 20518, Note_off_c, 1, 76, 0
1, 20520, Note_on_c, 1, 74, 127
1, 20520, Note_on_c, 1, 48, 127
1, 20520, Note_on_c, 1, 70, 127
1, 20520, Note_on_c, 1, 36, 127
1, 20530, Note_off_c, 1, 74, 0
1, 20538, Note_off_c, 1, 72, 0
1, 20538, Note_off_c, 1, 64, 0
1, 20538, Note_off_c, 1, 60, 0
1, 20541, Note_off_c, 1, 67, 0
1, 20541, Note_off_c, 1, 48, 0
1, 20541, Note_off_c, 1, 70, 0
1, 20541, Note_off_c, 1, 36, 0
1, 20544, Note_on_c, 1, 77, 127
1, 20544, Note_on_c, 1, 69, 127
1, 20544, Note_on_c, 1, 65, 127
1, 20544, Note_on_c, 1, 60, 127
1, 20544, Note_on_c, 1, 41, 127
1, 20544, Note_on_c, 1, 70, 127
1, 20544, Note_on_c, 1, 29, 127
1, 20554, Note_off_c, 1, 70, 0
1, 20565, Note_off_c, 1, 41, 0
1, 20565, Note_off_c, 1, 29, 0
1, 20568, Note_on_c, 1, 43, 127
1, 20568, Note_on_c, 1, 31, 127
1, 20586, Note_off_c, 1, 77, 0
1, 20586, Note_off_c, 1, 65, 0
1, 20586, Note_off_c, 1, 60, 0
1, 20589, Note_off_c, 1, 43, 0
1, 20589, Note_off_c, 1, 31, 0
1, 20590, Note_off_c, 1, 69, 0
1, 20592, Note_on_c, 1, 45, 127
1, 20592, Note_on_c, 1, 67, 127
1, 20592, Note_on_c, 1, 72, 127
1, 20592, Note_on_c, 1, 69, 127
1, 20592, Note_on_c, 1, 33, 127
1, 20592, Note_on_c, 1, 60, 127
1, 20613, Note_off_c, 1, 45, 0
1, 20613, Note_off_c, 1, 67, 0
1, 20613, Note_off_c, 1, 72, 0
1, 20613, Note_off_c, 1, 33, 0
1, 20616, Note_on_c, 1, 43, 127
1, 20616, Note_on_c, 1, 74, 127
1, 20616, Note_on_c, 1, 70, 127
1, 20616, Note_on_c, 1, 31, 127
1, 20634, Note_off_c, 1, 60, 0
1, 20637, Note_off_c, 1, 69, 0
1, 20637, Note_off_c, 1, 43, 0
1, 20637, Note_off_c, 1, 74, 0
1, 20637, Note_off_c, 1, 70, 0
1, 20637, Note_off_c, 1, 31, 0
1, 20640, Note_on_c, 1, 41, 127
1, 20640, Note_on_c, 1, 65, 127
1, 20640, Note_on_c, 1, 75, 127
1, 20640, Note_on_c, 1, 72, 127
1, 20640, Note_on_c, 1, 29, 127
1, 20640, Note_on_c, 1, 63, 127
1, 20640, Note_on_c, 1, 69, 127
1, 20661, Note_off_c, 1, 41, 0
1, 20661, Note_off_c, 1, 75, 0
1, 20661, Note_off_c, 1, 72, 0
1, 20661, Note_off_c, 1, 29, 0
1, 20664, Note_on_c, 1, 39, 127
1, 20664, Note_on_c, 1, 27, 127
1, 20664, Note_on_c, 1, 67, 127
1, 20682, Note_off_c, 1, 65, 0
1, 20682, Note_off_c, 1, 63, 0
1, 20685, Note_off_c, 1, 69, 0
1, 20685, Note_off_c, 1, 39, 0
1, 20685, Note_off_c, 1, 27, 0
1, 20685, Note_off_c, 1, 67, 0
1, 20688, Note_on_c, 1, 38, 127
1, 20688, Note_on_c, 1, 77, 127
1, 20688, Note_on_c, 1, 74, 127
1, 20688, Note_on_c, 1, 26, 127
1, 20688, Note_on_c, 1, 65, 127
1, 20688, Note_on_c, 1, 69, 127
1, 20709, Note_off_c, 1, 38, 0
1, 20709, Note_off_c, 1, 26, 0
1, 20712, Note_on_c, 1, 39, 127
1, 20712, Note_on_c, 1, 27, 127
1, 20730, Note_off_c, 1, 77, 0
1, 20730, Note_off_c, 1, 74, 0
1, 20730, Note_off_c, 1, 65, 0
1, 20730, Note_off_c, 1, 69, 0
1, 20733, Note_off_c, 1, 39, 0
1, 20733, Note_off_c, 1, 27, 0
1, 20736, Note_on_c, 1, 41, 127
1, 20736, Note_on_c, 1, 77, 127
1, 20736, Note_on_c, 1, 69, 127
1, 20736, Note_on_c, 1, 62, 127
1, 20736, Note_on_c, 1, 29, 127
1, 20757, Note_off_c, 1, 41, 0
1, 20757, Note_off_c, 1, 29, 0
1, 20760, Note_on_c, 1, 39, 127
1, 20760, Note_on_c, 1, 27, 127
1, 20778, Note_off_c, 1, 77, 0
1, 20778, Note_off_c, 1, 69, 0
1, 20778, Note_off_c, 1, 62, 0
1, 20781, Note_off_c, 1, 39, 0
1, 20781, Note_off_c, 1, 27, 0
1, 20784, Note_on_c, 1, 41, 127
1, 20784, Note_on_c, 1, 77, 127
1, 20784, Note_on_c, 1, 74, 127
1, 20784, Note_on_c, 1, 69, 127
1, 20784, Note_on_c, 1, 29, 127
1, 20784, Note_on_c, 1, 62, 127
1, 20784, Note_on_c, 1, 65, 127
1, 20805, Note_off_c, 1, 41, 0
1, 20805, Note_off_c, 1, 29, 0
1, 20808, Note_on_c, 1, 38, 127
1, 20808, Note_on_c, 1, 26, 127
1, 20826, Note_off_c, 1, 77, 0
1, 20826, Note_off_c, 1, 74, 0
1, 20826, Note_off_c, 1, 69, 0
1, 20826, Note_off_c, 1, 62, 0
1, 20826, Note_off_c, 1, 65, 0
1, 20829, Note_off_c, 1, 38, 0
1, 20829, Note_off_c, 1, 26, 0
1, 20832, Note_on_c, 1, 43, 127
1, 20832, Note_on_c, 1, 77, 127
1, 20832, Note_on_c, 1, 70, 127
1, 20832, Note_on_c, 1, 67, 127
1, 20832, Note_on_c, 1, 31, 127
1, 20832, Note_on_c, 1, 62, 127
1, 20853, Note_off_c, 1, 43, 0
1, 20853, Note_off_c, 1, 77, 0
1, 20853, Note_off_c, 1, 31, 0
1, 20856, Note_on_c, 1, 45, 127
1, 20856, Note_on_c, 1, 80, 127
1, 20856, Note_on_c, 1, 33, 127
1, 20874, Note_off_c, 1, 70, 0
1, 20874, Note_off_c, 1, 67, 0
1, 20874, Note_off_c, 1, 62, 0
1, 20877, Note_off_c, 1, 45, 0
1, 20877, Note_off_c, 1, 80, 0
1, 20877, Note_off_c, 1, 33, 0
1, 20880, Note_on_c, 1, 70, 127
1, 20880, Note_on_c, 1, 74, 127
1, 20880, Note_on_c, 1, 67, 127
1, 20880, Note_on_c, 1, 46, 127
1, 20880, Note_on_c, 1, 79, 127
1, 20880, Note_on_c, 1, 34, 127
1, 20901, Note_off_c, 1, 46, 0
1, 20901, Note_off_c, 1, 79, 0
1, 20901, Note_off_c, 1, 34, 0
1, 20904, Note_on_c, 1, 45, 127
1, 20904, Note_on_c, 1, 77, 127
1, 20904, Note_on_c, 1, 33, 127
1, 20922, Note_off_c, 1, 70, 0
1, 20922, Note_off_c, 1, 74, 0
1, 20922, Note_off_c, 1, 67, 0
1, 20925, Note_off_c, 1, 45, 0
1, 20925, Note_off_c, 1, 77, 0
1, 20925, Note_off_c, 1, 33, 0
1, 20928, Note_on_c, 1, 70, 127
1, 20928, Note_on_c, 1, 79, 127
1, 20928, Note_on_c, 1, 74, 127
1, 20928, Note_on_c, 1, 46, 127
1, 20928, Note_on_c, 1, 75, 127
1, 20928, Note_on_c, 1, 34, 127
1, 20928, Note_on_c, 1, 67, 127
1, 20949, Note_off_c, 1, 46, 0
1, 20949, Note_off_c, 1, 75, 0
1, 20949, Note_off_c, 1, 34, 0
1, 20952, Note_on_c, 1, 43, 127
1, 20952, Note_on_c, 1, 31, 127
1, 20970, Note_off_c, 1, 70, 0
1, 20970, Note_off_c, 1, 79, 0
1, 20970, Note_off_c, 1, 67, 0
1, 20973, Note_off_c, 1, 74, 0
1, 20973, Note_off_c, 1, 43, 0
1, 20973, Note_off_c, 1, 31, 0
1, 20976, Note_on_c, 1, 70, 127
1, 20976, Note_on_c, 1, 75, 127
1, 20976, Note_on_c, 1, 72, 127
1, 20976, Note_on_c, 1, 67, 127
1, 20976, Note_on_c, 1, 48, 127
1, 20976, Note_on_c, 1, 36, 127
1, 20997, Note_off_c, 1, 70, 0
1, 20997, Note_off_c, 1, 48, 0
1, 20997, Note_off_c, 1, 36, 0
1, 21000, Note_on_c, 1, 69, 127
1, 21000, Note_on_c, 1, 50, 127
1, 21000, Note_on_c, 1, 38, 127
1, 21018, Note_off_c, 1, 75, 0
1, 21018, Note_off_c, 1, 72, 0
1, 21018, Note_off_c, 1, 67, 0
1, 21021, Note_off_c, 1, 69, 0
1, 21021, Note_off_c, 1, 50, 0
1, 21021, Note_off_c, 1, 38, 0
1, 21024, Note_on_c, 1, 67, 127
1, 21024, Note_on_c, 1, 51, 127
1, 21024, Note_on_c, 1, 74, 127
1, 21024, Note_on_c, 1, 63, 127
1, 21024, Note_on_c, 1, 39, 127
1, 21024, Note_on_c, 1, 72, 127
1, 21024, Note_on_c, 1, 60, 127
1, 21045, Note_off_c, 1, 51, 0
1, 21045, Note_off_c, 1, 74, 0
1, 21045, Note_off_c, 1, 39, 0
1, 21048, Note_on_c, 1, 65, 127
1, 21048, Note_on_c, 1, 50, 127
1, 21048, Note_on_c, 1, 38, 127
1, 21066, Note_off_c, 1, 67, 0
1, 21066, Note_off_c, 1, 63, 0
1, 21066, Note_off_c, 1, 60, 0
1, 21069, Note_off_c, 1, 72, 0
1, 21069, Note_off_c, 1, 65, 0
1, 21069, Note_off_c, 1, 50, 0
1, 21069, Note_off_c, 1, 38, 0
1, 21072, Note_on_c, 1, 67, 127
1, 21072, Note_on_c, 1, 51, 127
1, 21072, Note_on_c, 1, 75, 127
1, 21072, Note_on_c, 1, 72, 127
1, 21072, Note_on_c, 1, 39, 127
1, 21072, Note_on_c, 1, 60, 127
1, 21093, Note_off_c, 1, 51, 0
1, 21093, Note_off_c, 1, 39, 0
1, 21096, Note_on_c, 1, 63, 127
1, 21096, Note_on_c, 1, 48, 127
1, 21096, Note_on_c, 1, 36, 127
1, 21114, Note_off_c, 1, 67, 0
1, 21114, Note_off_c, 1, 72, 0
1, 21114, Note_off_c, 1, 60, 0
1, 21117, Note_off_c, 1, 63, 0
1, 21117, Note_off_c, 1, 48, 0
1, 21117, Note_off_c, 1, 36, 0
1, 21120, Note_on_c, 1, 69, 127
1, 21120, Note_on_c, 1, 53, 127
1, 21120, Note_on_c, 1, 65, 127
1, 21120, Note_on_c, 1, 41, 127
1, 21141, Note_off_c, 1, 75, 0
1, 21141, Note_off_c, 1, 53, 0
1, 21141, Note_off_c, 1, 41, 0
1, 21144, Note_on_c, 1, 55, 127
1, 21144, Note_on_c, 1, 77, 127
1, 21144, Note_on_c, 1, 43, 127
1, 21154, Note_off_c, 1, 77, 0
1, 21156, Note_on_c, 1, 79, 127
1, 21162, Note_off_c, 1, 69, 0
1, 21162, Note_off_c, 1, 65, 0
1, 21165, Note_off_c, 1, 55, 0
1, 21165, Note_off_c, 1, 43, 0
1, 21166, Note_off_c, 1, 79, 0
1, 21168, Note_on_c, 1, 65, 127
1, 21168, Note_on_c, 1, 70, 127
1, 21168, Note_on_c, 1, 72, 127
1, 21168, Note_on_c, 1, 69, 127
1, 21168, Note_on_c, 1, 57, 127
1, 21168, Note_on_c, 1, 77, 127
1, 21168, Note_on_c, 1, 45, 127
1, 21178, Note_off_c, 1, 70, 0
1, 21189, Note_off_c, 1, 57, 0
1, 21189, Note_off_c, 1, 77, 0
1, 21189, Note_off_c, 1, 45, 0
1, 21192, Note_on_c, 1, 55, 127
1, 21192, Note_on_c, 1, 75, 127
1, 21192, Note_on_c, 1, 43, 127
1, 21210, Note_off_c, 1, 72, 0
1, 21213, Note_off_c, 1, 65, 0
1, 21213, Note_off_c, 1, 55, 0
1, 21213, Note_off_c, 1, 75, 0
1, 21213, Note_off_c, 1, 43, 0
1, 21214, Note_off_c, 1, 69, 0
1, 21216, Note_on_c, 1, 65, 127
1, 21216, Note_on_c, 1, 70, 127
1, 21216, Note_on_c, 1, 77, 127
1, 21216, Note_on_c, 1, 72, 127
1, 21216, Note_on_c, 1, 67, 127
1, 21216, Note_on_c, 1, 57, 127
1, 21216, Note_on_c, 1, 74, 127
1, 21216, Note_on_c, 1, 45, 127
1, 21226, Note_off_c, 1, 70, 0
1, 21228, Note_on_c, 1, 69, 127
1, 21237, Note_off_c, 1, 57, 0
1, 21237, Note_off_c, 1, 74, 0
1, 21237, Note_off_c, 1, 45, 0
1, 21238, Note_off_c, 1, 69, 0
1, 21240, Note_on_c, 1, 53, 127
1, 21240, Note_on_c, 1, 75, 127
1, 21240, Note_on_c, 1, 41, 127
1, 21258, Note_off_c, 1, 77, 0
1, 21258, Note_off_c, 1, 72, 0
1, 21258, Note_off_c, 1, 67, 0
1, 21261, Note_off_c, 1, 65, 0
1, 21261, Note_off_c, 1, 53, 0
1, 21261, Note_off_c, 1, 75, 0
1, 21261, Note_off_c, 1, 41, 0
1, 21264, Note_on_c, 1, 65, 127
1, 21264, Note_on_c, 1, 70, 127
1, 21264, Note_on_c, 1, 74, 127
1, 21264, Note_on_c, 1, 58, 127
1, 21264, Note_on_c, 1, 75, 127
1, 21264, Note_on_c, 1, 46, 127
1, 21274, Note_off_c, 1, 75, 0
1, 21285, Note_off_c, 1, 58, 0
1, 21285, Note_off_c, 1, 46, 0
1, 21288, Note_on_c, 1, 60, 127
1, 21288, Note_on_c, 1, 48, 127
1, 21306, Note_off_c, 1, 65, 0
1, 21306, Note_off_c, 1, 70, 0
1, 21309, Note_off_c, 1, 60, 0
1, 21309, Note_off_c, 1, 48, 0
1, 21310, Note_off_c, 1, 74, 0
1, 21312, Note_on_c, 1, 74, 127
1, 21312, Note_on_c, 1, 70, 127
1, 21312, Note_on_c, 1, 65, 127
1, 21312, Note_on_c, 1, 62, 127
1, 21312, Note_on_c, 1, 72, 127
1, 21312, Note_on_c, 1, 77, 127
1, 21312, Note_on_c, 1, 50, 127
1, 21333, Note_off_c, 1, 74, 0
1, 21333, Note_off_c, 1, 62, 0
1, 21333, Note_off_c, 1, 72, 0
1, 21333, Note_off_c, 1, 50, 0
1, 21336, Note_on_c, 1, 75, 127
1, 21336, Note_on_c, 1, 60, 127
1, 21336, Note_on_c, 1, 48, 127
1, 21354, Note_off_c, 1, 70, 0
1, 21354, Note_off_c, 1, 65, 0
1, 21354, Note_off_c, 1, 77, 0
1, 21357, Note_off_c, 1, 75, 0
1, 21357, Note_off_c, 1, 60, 0
1, 21357, Note_off_c, 1, 48, 0
1, 21360, Note_on_c, 1, 77, 127
1, 21360, Note_on_c, 1, 74, 127
1, 21360, Note_on_c, 1, 70, 127
1, 21360, Note_on_c, 1, 62, 127
1, 21360, Note_on_c, 1, 82, 127
1, 21360, Note_on_c, 1, 50, 127
1, 21360, Note_on_c, 1, 65, 127
1, 21381, Note_off_c, 1, 77, 0
1, 21381, Note_off_c, 1, 62, 0
1, 21381, Note_off_c, 1, 50, 0
1, 21384, Note_on_c, 1, 58, 127
1, 21384, Note_on_c, 1, 46, 127
1, 21402, Note_off_c, 1, 70, 0
1, 21402, Note_off_c, 1, 65, 0
1, 21405, Note_off_c, 1, 74, 0
1, 21405, Note_off_c, 1, 58, 0
1, 21405, Note_off_c, 1, 46, 0
1, 21408, Note_on_c, 1, 75, 127
1, 21408, Note_on_c, 1, 72, 127
1, 21408, Note_on_c, 1, 67, 127
1, 21408, Note_on_c, 1, 60, 127
1, 21408, Note_on_c, 1, 48, 127
1, 21450, Note_off_c, 1, 82, 0
1, 21450, Note_off_c, 1, 75, 0
1, 21450, Note_off_c, 1, 72, 0
1, 21450, Note_off_c, 1, 67, 0
1, 21450, Note_off_c, 1, 60, 0
1, 21450, Note_off_c, 1, 48, 0
1, 21456, Note_on_c, 1, 75, 127
1, 21456, Note_on_c, 1, 81, 127
1, 21456, Note_on_c, 1, 48, 127
1, 21456, Note_on_c, 1, 36, 127
1, 21477, Note_off_c, 1, 75, 0
1, 21480, Note_on_c, 1, 74, 127
1, 21498, Note_off_c, 1, 81, 0
1, 21498, Note_off_c, 1, 48, 0
1, 21498, Note_off_c, 1, 36, 0
1, 21501, Note_off_c, 1, 74, 0
1, 21504, Note_on_c, 1, 74, 127
1, 21504, Note_on_c, 1, 79, 127
1, 21504, Note_on_c, 1, 50, 127
1, 21504, Note_on_c, 1, 38, 127
1, 21514, Note_off_c, 1, 79, 0
1, 21516, Note_on_c, 1, 78, 127
1, 21525, Note_off_c, 1, 74, 0
1, 21526, Note_off_c, 1, 78, 0
1, 21528, Note_on_c, 1, 72, 127
1, 21546, Note_off_c, 1, 50, 0
1, 21546, Note_off_c, 1, 38, 0
1, 21549, Note_off_c, 1, 72, 0
1, 21552, Note_on_c, 1, 72, 127
1, 21552, Note_on_c, 1, 78, 127
1, 21552, Note_on_c, 1, 51, 127
1, 21552, Note_on_c, 1, 39, 127
1, 21573, Note_off_c, 1, 72, 0
1, 21573, Note_off_c, 1, 78, 0
1, 21576, Note_on_c, 1, 70, 127
1, 21576, Note_on_c, 1, 81, 127
1, 21594, Note_off_c, 1, 51, 0
1, 21594, Note_off_c, 1, 39, 0
1, 21597, Note_off_c, 1, 70, 0
1, 21597, Note_off_c, 1, 81, 0
1, 21600, Note_on_c, 1, 70, 127
1, 21600, Note_on_c, 1, 79, 127
1, 21600, Note_on_c, 1, 50, 127
1, 21600, Note_on_c, 1, 38, 127
1, 21621, Note_off_c, 1, 70, 0
1, 21621, Note_off_c, 1, 79, 0
1, 21624, Note_on_c, 1, 69, 127
1, 21624, Note_on_c, 1, 78, 127
1, 21642, Note_off_c, 1, 50, 0
1, 21642, Note_off_c, 1, 38, 0
1, 21645, Note_off_c, 1, 69, 0
1, 21645, Note_off_c, 1, 78, 0
1, 21648, Note_on_c, 1, 69, 127
1, 21648, Note_on_c, 1, 79, 127
1, 21648, Note_on_c, 1, 48, 127
1, 21648, Note_on_c, 1, 36, 127
1, 21669, Note_off_c, 1, 69, 0
1, 21669, Note_off_c, 1, 79, 0
1, 21672, Note_on_c, 1, 74, 127
1, 21672, Note_on_c, 1, 81, 127
1, 21690, Note_off_c, 1, 48, 0
1, 21690, Note_off_c, 1, 36, 0
1, 21693, Note_off_c, 1, 74, 0
1, 21693, Note_off_c, 1, 81, 0
1, 21696, Note_on_c, 1, 74, 127
1, 21696, Note_on_c, 1, 46, 127
1, 21696, Note_on_c, 1, 34, 127
1, 21720, Note_on_c, 1, 72, 127
1, 21738, Note_off_c, 1, 46, 0
1, 21738, Note_off_c, 1, 34, 0
1, 21741, Note_off_c, 1, 72, 0
1, 21744, Note_on_c, 1, 58, 127
1, 21768, Note_on_c, 1, 69, 127
1, 21786, Note_off_c, 1, 58, 0
1, 21789, Note_off_c, 1, 69, 0
1, 21792, Note_on_c, 1, 70, 127
1, 21792, Note_on_c, 1, 60, 127
1, 21792, Note_on_c, 1, 48, 127
1, 21813, Note_off_c, 1, 70, 0
1, 21816, Note_on_c, 1, 67, 127
1, 21834, Note_off_c, 1, 60, 0
1, 21834, Note_off_c, 1, 48, 0
1, 21837, Note_off_c, 1, 67, 0
1, 21840, Note_on_c, 1, 66, 127
1, 21840, Note_on_c, 1, 62, 127
1, 21840, Note_on_c, 1, 50, 127
1, 21882, Note_off_c, 1, 74, 0
1, 21882, Note_off_c, 1, 66, 0
1, 21882, Note_off_c, 1, 62, 0
1, 21882, Note_off_c, 1, 50, 0
1, 21888, Note_on_c, 1, 69, 127
1, 21888, Note_on_c, 1, 67, 127
1, 21888, Note_on_c, 1, 60, 127
1, 21888, Note_on_c, 1, 48, 127
1, 21898, Note_off_c, 1, 67, 0
1, 21900, Note_on_c, 1, 66, 127
1, 21909, Note_off_c, 1, 69, 0
1, 21909, Note_off_c, 1, 60, 0
1, 21909, Note_off_c, 1, 48, 0
1, 21910, Note_off_c, 1, 66, 0
1, 21912, Note_on_c, 1, 70, 127
1, 21912, Note_on_c, 1, 67, 127
1, 21912, Note_on_c, 1, 58, 127
1, 21912, Note_on_c, 1, 46, 127
1, 21922, Note_off_c, 1, 67, 0
1, 21924, Note_on_c, 1, 66, 127
1, 21933, Note_off_c, 1, 70, 0
1, 21933, Note_off_c, 1, 58, 0
1, 21933, Note_off_c, 1, 46, 0
1, 21934, Note_off_c, 1, 66, 0
1, 21936, Note_on_c, 1, 72, 127
1, 21936, Note_on_c, 1, 67, 127
1, 21936, Note_on_c, 1, 57, 127
1, 21936, Note_on_c, 1, 45, 127
1, 21946, Note_off_c, 1, 72, 0
1, 21948, Note_on_c, 1, 70, 127
1, 21957, Note_off_c, 1, 57, 0
1, 21957, Note_off_c, 1, 45, 0
1, 21958, Note_off_c, 1, 70, 0
1, 21960, Note_on_c, 1, 55, 127
1, 21960, Note_on_c, 1, 43, 127
1, 21978, Note_off_c, 1, 67, 0
1, 21981, Note_off_c, 1, 55, 0
1, 21981, Note_off_c, 1, 43, 0
1, 21984, Note_on_c, 1, 72, 127
1, 21984, Note_on_c, 1, 69, 127
1, 21984, Note_on_c, 1, 54, 127
1, 21984, Note_on_c, 1, 42, 127
1, 22005, Note_off_c, 1, 69, 0
1, 22008, Note_on_c, 1, 70, 127
1, 22026, Note_off_c, 1, 54, 0
1, 22026, Note_off_c, 1, 42, 0
1, 22029, Note_off_c, 1, 70, 0
1, 22032, Note_on_c, 1, 50, 127
1, 22032, Note_on_c, 1, 38, 127
1, 22047, Note_off_c, 1, 72, 0
1, 22056, Note_on_c, 1, 74, 127
1, 22056, Note_on_c, 1, 66, 127
1, 22066, Note_off_c, 1, 74, 0
1, 22068, Note_on_c, 1, 75, 127
1, 22074, Note_off_c, 1, 50, 0
1, 22074, Note_off_c, 1, 38, 0
1, 22077, Note_off_c, 1, 66, 0
1, 22078, Note_off_c, 1, 75, 0
1, 22080, Note_on_c, 1, 74, 127
1, 22080, Note_on_c, 1, 67, 127
1, 22080, Note_on_c, 1, 54, 127
1, 22080, Note_on_c, 1, 42, 127
1, 22101, Note_off_c, 1, 74, 0
1, 22101, Note_off_c, 1, 67, 0
1, 22104, Note_on_c, 1, 72, 127
1, 22104, Note_on_c, 1, 69, 127
1, 22122, Note_off_c, 1, 54, 0
1, 22122, Note_off_c, 1, 42, 0
1, 22125, Note_off_c, 1, 72, 0
1, 22125, Note_off_c, 1, 69, 0
1, 22128, Note_on_c, 1, 70, 127
1, 22128, Note_on_c, 1, 62, 127
1, 22128, Note_on_c, 1, 55, 127
1, 22128, Note_on_c, 1, 43, 127
1, 22149, Note_off_c, 1, 70, 0
1, 22152, Note_on_c, 1, 69, 127
1, 22170, Note_off_c, 1, 62, 0
1, 22170, Note_off_c, 1, 55, 0
1, 22170, Note_off_c, 1, 43, 0
1, 22173, Note_off_c, 1, 69, 0
1, 22176, Note_on_c, 1, 72, 127
1, 22176, Note_on_c, 1, 74, 127
1, 22176, Note_on_c, 1, 43, 127
1, 22176, Note_on_c, 1, 31, 127
1, 22197, Note_off_c, 1, 72, 0
1, 22200, Note_on_c, 1, 70, 127
1, 22218, Note_off_c, 1, 43, 0
1, 22218, Note_off_c, 1, 31, 0
1, 22221, Note_off_c, 1, 70, 0
1, 22224, Note_on_c, 1, 69, 127
1, 22224, Note_on_c, 1, 46, 127
1, 22224, Note_on_c, 1, 34, 127
1, 22245, Note_off_c, 1, 69, 0
1, 22248, Note_on_c, 1, 67, 127
1, 22266, Note_off_c, 1, 46, 0
1, 22266, Note_off_c, 1, 34, 0
1, 22269, Note_off_c, 1, 67, 0
1, 22272, Note_on_c, 1, 75, 127
1, 22272, Note_on_c, 1, 48, 127
1, 22272, Note_on_c, 1, 36, 127
1, 22293, Note_off_c, 1, 75, 0
1, 22293, Note_off_c, 1, 48, 0
1, 22293, Note_off_c, 1, 36, 0
1, 22296, Note_on_c, 1, 50, 127
1, 22296, Note_on_c, 1, 38, 127
1, 22314, Note_off_c, 1, 74, 0
1, 22317, Note_off_c, 1, 50, 0
1, 22317, Note_off_c, 1, 38, 0
1, 22320, Note_on_c, 1, 60, 127
1, 22320, Note_on_c, 1, 72, 127
1, 22320, Note_on_c, 1, 51, 127
1, 22320, Note_on_c, 1, 39, 127
1, 22341, Note_off_c, 1, 60, 0
1, 22341, Note_off_c, 1, 51, 0
1, 22341, Note_off_c, 1, 39, 0
1, 22344, Note_on_c, 1, 67, 127
1, 22344, Note_on_c, 1, 48, 127
1, 22344, Note_on_c, 1, 36, 127
1, 22362, Note_off_c, 1, 72, 0
1, 22365, Note_off_c, 1, 67, 0
1, 22365, Note_off_c, 1, 48, 0
1, 22365, Note_off_c, 1, 36, 0
1, 22368, Note_on_c, 1, 75, 127
1, 22368, Note_on_c, 1, 79, 127
1, 22368, Note_on_c, 1, 46, 127
1, 22368, Note_on_c, 1, 34, 127
1, 22389, Note_off_c, 1, 46, 0
1, 22389, Note_off_c, 1, 34, 0
1, 22392, Note_on_c, 1, 45, 127
1, 22392, Note_on_c, 1, 33, 127
1, 22410, Note_off_c, 1, 75, 0
1, 22413, Note_off_c, 1, 45, 0
1, 22413, Note_off_c, 1, 33, 0
1, 22440, Note_on_c, 1, 48, 127
1, 22440, Note_on_c, 1, 36, 127
1, 22458, Note_off_c, 1, 79, 0
1, 22461, Note_off_c, 1, 48, 0
1, 22461, Note_off_c, 1, 36, 0
1, 22464, Note_on_c, 1, 69, 127
1, 22464, Note_on_c, 1, 78, 127
1, 22464, Note_on_c, 1, 50, 127
1, 22464, Note_on_c, 1, 38, 127
1, 22485, Note_off_c, 1, 69, 0
1, 22485, Note_off_c, 1, 50, 0
1, 22485, Note_off_c, 1, 38, 0
1, 22488, Note_on_c, 1, 70, 127
1, 22488, Note_on_c, 1, 46, 127
1, 22488, Note_on_c, 1, 34, 127
1, 22506, Note_off_c, 1, 78, 0
1, 22509, Note_off_c, 1, 70, 0
1, 22509, Note_off_c, 1, 46, 0
1, 22509, Note_off_c, 1, 34, 0
1, 22512, Note_on_c, 1, 70, 127
1, 22512, Note_on_c, 1, 79, 127
1, 22512, Note_on_c, 1, 45, 127
1, 22512, Note_on_c, 1, 33, 127
1, 22533, Note_off_c, 1, 70, 0
1, 22533, Note_off_c, 1, 45, 0
1, 22533, Note_off_c, 1, 33, 0
1, 22536, Note_on_c, 1, 72, 127
1, 22536, Note_on_c, 1, 43, 127
1, 22536, Note_on_c, 1, 31, 127
1, 22554, Note_off_c, 1, 79, 0
1, 22557, Note_off_c, 1, 72, 0
1, 22557, Note_off_c, 1, 43, 0
1, 22557, Note_off_c, 1, 31, 0
1, 22560, Note_on_c, 1, 66, 127
1, 22560, Note_on_c, 1, 84, 127
1, 22560, Note_on_c, 1, 45, 127
1, 22560, Note_on_c, 1, 33, 127
1, 22581, Note_off_c, 1, 66, 0
1, 22581, Note_off_c, 1, 45, 0
1, 22581, Note_off_c, 1, 33, 0
1, 22584, Note_on_c, 1, 69, 127
1, 22584, Note_on_c, 1, 46, 127
1, 22584, Note_on_c, 1, 34, 127
1, 22602, Note_off_c, 1, 84, 0
1, 22605, Note_off_c, 1, 69, 0
1, 22605, Note_off_c, 1, 46, 0
1, 22605, Note_off_c, 1, 34, 0
1, 22608, Note_on_c, 1, 72, 127
1, 22608, Note_on_c, 1, 81, 127
1, 22608, Note_on_c, 1, 48, 127
1, 22608, Note_on_c, 1, 36, 127
1, 22629, Note_off_c, 1, 72, 0
1, 22629, Note_off_c, 1, 48, 0
1, 22629, Note_off_c, 1, 36, 0
1, 22632, Note_on_c, 1, 75, 127
1, 22632, Note_on_c, 1, 45, 127
1, 22632, Note_on_c, 1, 33, 127
1, 22650, Note_off_c, 1, 81, 0
1, 22653, Note_off_c, 1, 75, 0
1, 22653, Note_off_c, 1, 45, 0
1, 22653, Note_off_c, 1, 33, 0
1, 22656, Note_on_c, 1, 74, 127
1, 22656, Note_on_c, 1, 82, 127
1, 22656, Note_on_c, 1, 43, 127
1, 22656, Note_on_c, 1, 31, 127
1, 22677, Note_off_c, 1, 43, 0
1, 22677, Note_off_c, 1, 31, 0
1, 22680, Note_on_c, 1, 42, 127
1, 22680, Note_on_c, 1, 30, 127
1, 22701, Note_off_c, 1, 42, 0
1, 22701, Note_off_c, 1, 30, 0
1, 22725, Note_off_c, 1, 74, 0
1, 22725, Note_off_c, 1, 82, 0
1, 22728, Note_on_c, 1, 72, 127
1, 22728, Note_on_c, 1, 84, 127
1, 22728, Note_on_c, 1, 48, 127
1, 22728, Note_on_c, 1, 36, 127
1, 22749, Note_off_c, 1, 72, 0
1, 22749, Note_off_c, 1, 84, 0
1, 22749, Note_off_c, 1, 48, 0
1, 22749, Note_off_c, 1, 36, 0
1, 22752, Note_on_c, 1, 72, 127
1, 22752, Note_on_c, 1, 78, 127
1, 22752, Note_on_c, 1, 50, 127
1, 22752, Note_on_c, 1, 38, 127
1, 22762, Note_off_c, 1, 72, 0
1, 22764, Note_on_c, 1, 70, 127
1, 22774, Note_off_c, 1, 70, 0
1, 22794, Note_off_c, 1, 50, 0
1, 22794, Note_off_c, 1, 38, 0
1, 22800, Note_on_c, 1, 69, 127
1, 22800, Note_on_c, 1, 26, 127
1, 22815, Note_off_c, 1, 78, 0
1, 22821, Note_off_c, 1, 69, 0
1, 22824, Note_on_c, 1, 67, 127
1, 22824, Note_on_c, 1, 79, 127
1, 22842, Note_off_c, 1, 26, 0
1, 22845, Note_off_c, 1, 67, 0
1, 22845, Note_off_c, 1, 79, 0
1, 22848, Note_on_c, 1, 43, 127
1, 22848, Note_on_c, 1, 67, 127
1, 22848, Note_on_c, 1, 79, 127
1, 22848, Note_on_c, 1, 31, 127
1, 22869, Note_off_c, 1, 43, 0
1, 22869, Note_off_c, 1, 31, 0
1, 22872, Note_on_c, 1, 45, 127
1, 22872, Note_on_c, 1, 33, 127
1, 22890, Note_off_c, 1, 67, 0
1, 22890, Note_off_c, 1, 79, 0
1, 22893, Note_off_c, 1, 45, 0
1, 22893, Note_off_c, 1, 33, 0
1, 22896, Note_on_c, 1, 82, 127
1, 22896, Note_on_c, 1, 79, 127
1, 22896, Note_on_c, 1, 74, 127
1, 22896, Note_on_c, 1, 46, 127
1, 22896, Note_on_c, 1, 34, 127
1, 22896, Note_on_c, 1, 62, 127
1, 22896, Note_on_c, 1, 70, 127
1, 22917, Note_off_c, 1, 79, 0
1, 22917, Note_off_c, 1, 46, 0
1, 22917, Note_off_c, 1, 34, 0
1, 22920, Note_on_c, 1, 77, 127
1, 22920, Note_on_c, 1, 45, 127
1, 22920, Note_on_c, 1, 33, 127
1, 22938, Note_off_c, 1, 82, 0
1, 22938, Note_off_c, 1, 74, 0
1, 22938, Note_off_c, 1, 62, 0
1, 22938, Note_off_c, 1, 70, 0
1, 22941, Note_off_c, 1, 77, 0
1, 22941, Note_off_c, 1, 45, 0
1, 22941, Note_off_c, 1, 33, 0
1, 22944, Note_on_c, 1, 82, 127
1, 22944, Note_on_c, 1, 79, 127
1, 22944, Note_on_c, 1, 74, 127
1, 22944, Note_on_c, 1, 46, 127
1, 22944, Note_on_c, 1, 34, 127
1, 22944, Note_on_c, 1, 62, 127
1, 22944, Note_on_c, 1, 67, 127
1, 22965, Note_off_c, 1, 46, 0
1, 22965, Note_off_c, 1, 34, 0
1, 22968, Note_on_c, 1, 43, 127
1, 22968, Note_on_c, 1, 31, 127
1, 22986, Note_off_c, 1, 82, 0
1, 22986, Note_off_c, 1, 79, 0
1, 22986, Note_off_c, 1, 62, 0
1, 22986, Note_off_c, 1, 67, 0
1, 22989, Note_off_c, 1, 74, 0
1, 22989, Note_off_c, 1, 43, 0
1, 22989, Note_off_c, 1, 31, 0
1, 22992, Note_on_c, 1, 82, 127
1, 22992, Note_on_c, 1, 75, 127
1, 22992, Note_on_c, 1, 72, 127
1, 22992, Note_on_c, 1, 48, 127
1, 22992, Note_on_c, 1, 77, 127
1, 22992, Note_on_c, 1, 36, 127
1, 22992, Note_on_c, 1, 63, 127
1, 22992, Note_on_c, 1, 70, 127
1, 23002, Note_off_c, 1, 77, 0
1, 23013, Note_off_c, 1, 82, 0
1, 23013, Note_off_c, 1, 48, 0
1, 23013, Note_off_c, 1, 36, 0
1, 23016, Note_on_c, 1, 81, 127
1, 23016, Note_on_c, 1, 50, 127
1, 23016, Note_on_c, 1, 38, 127
1, 23034, Note_off_c, 1, 72, 0
1, 23034, Note_off_c, 1, 63, 0
1, 23034, Note_off_c, 1, 70, 0
1, 23037, Note_off_c, 1, 81, 0
1, 23037, Note_off_c, 1, 50, 0
1, 23037, Note_off_c, 1, 38, 0
1, 23038, Note_off_c, 1, 75, 0
1, 23040, Note_on_c, 1, 79, 127
1, 23040, Note_on_c, 1, 51, 127
1, 23040, Note_on_c, 1, 74, 127
1, 23040, Note_on_c, 1, 75, 127
1, 23040, Note_on_c, 1, 72, 127
1, 23040, Note_on_c, 1, 39, 127
1, 23040, Note_on_c, 1, 67, 127
1, 23061, Note_off_c, 1, 79, 0
1, 23061, Note_off_c, 1, 51, 0
1, 23061, Note_off_c, 1, 74, 0
1, 23061, Note_off_c, 1, 39, 0
1, 23064, Note_on_c, 1, 77, 127
1, 23064, Note_on_c, 1, 50, 127
1, 23064, Note_on_c, 1, 71, 127
1, 23064, Note_on_c, 1, 38, 127
1, 23082, Note_off_c, 1, 72, 0
1, 23082, Note_off_c, 1, 67, 0
1, 23085, Note_off_c, 1, 75, 0
1, 23085, Note_off_c, 1, 77, 0
1, 23085, Note_off_c, 1, 50, 0
1, 23085, Note_off_c, 1, 71, 0
1, 23085, Note_off_c, 1, 38, 0
1, 23088, Note_on_c, 1, 79, 127
1, 23088, Note_on_c, 1, 51, 127
1, 23088, Note_on_c, 1, 72, 127
1, 23088, Note_on_c, 1, 75, 127
1, 23088, Note_on_c, 1, 39, 127
1, 23088, Note_on_c, 1, 67, 127
1, 23109, Note_off_c, 1, 79, 0
1, 23109, Note_off_c, 1, 51, 0
1, 23109, Note_off_c, 1, 39, 0
1, 23112, Note_on_c, 1, 48, 127
1, 23112, Note_on_c, 1, 36, 127
1, 23130, Note_off_c, 1, 72, 0
1, 23133, Note_off_c, 1, 75, 0
1, 23133, Note_off_c, 1, 67, 0
1, 23133, Note_off_c, 1, 48, 0
1, 23133, Note_off_c, 1, 36, 0
1, 23136, Note_on_c, 1, 81, 127
1, 23136, Note_on_c, 1, 53, 127
1, 23136, Note_on_c, 1, 75, 127
1, 23136, Note_on_c, 1, 69, 127
1, 23136, Note_on_c, 1, 41, 127
1, 23136, Note_on_c, 1, 65, 127
1, 23157, Note_off_c, 1, 53, 0
1, 23157, Note_off_c, 1, 41, 0
1, 23160, Note_on_c, 1, 55, 127
1, 23160, Note_on_c, 1, 74, 127
1, 23160, Note_on_c, 1, 43, 127
1, 23178, Note_off_c, 1, 81, 0
1, 23178, Note_off_c, 1, 75, 0
1, 23178, Note_off_c, 1, 69, 0
1, 23178, Note_off_c, 1, 65, 0
1, 23181, Note_off_c, 1, 55, 0
1, 23181, Note_off_c, 1, 74, 0
1, 23181, Note_off_c, 1, 43, 0
1, 23184, Note_on_c, 1, 82, 127
1, 23184, Note_on_c, 1, 77, 127
1, 23184, Note_on_c, 1, 72, 127
1, 23184, Note_on_c, 1, 57, 127
1, 23184, Note_on_c, 1, 45, 127
1, 23184, Note_on_c, 1, 65, 127
1, 23194, Note_off_c, 1, 82, 0
1, 23196, Note_on_c, 1, 81, 127
1, 23205, Note_off_c, 1, 77, 0
1, 23205, Note_off_c, 1, 57, 0
1, 23205, Note_off_c, 1, 45, 0
1, 23206, Note_off_c, 1, 81, 0
1, 23208, Note_on_c, 1, 75, 127
1, 23208, Note_on_c, 1, 55, 127
1, 23208, Note_on_c, 1, 70, 127
1, 23208, Note_on_c, 1, 43, 127
1, 23226, Note_off_c, 1, 72, 0
1, 23226, Note_off_c, 1, 65, 0
1, 23229, Note_off_c, 1, 75, 0
1, 23229, Note_off_c, 1, 55, 0
1, 23229, Note_off_c, 1, 70, 0
1, 23229, Note_off_c, 1, 43, 0
1, 23232, Note_on_c, 1, 82, 127
1, 23232, Note_on_c, 1, 77, 127
1, 23232, Note_on_c, 1, 72, 127
1, 23232, Note_on_c, 1, 57, 127
1, 23232, Note_on_c, 1, 74, 127
1, 23232, Note_on_c, 1, 45, 127
1, 23232, Note_on_c, 1, 65, 127
1, 23242, Note_off_c, 1, 82, 0
1, 23244, Note_on_c, 1, 81, 127
1, 23253, Note_off_c, 1, 77, 0
1, 23253, Note_off_c, 1, 57, 0
1, 23253, Note_off_c, 1, 74, 0
1, 23253, Note_off_c, 1, 45, 0
1, 23254, Note_off_c, 1, 81, 0
1, 23256, Note_on_c, 1, 79, 127
1, 23256, Note_on_c, 1, 53, 127
1, 23256, Note_on_c, 1, 75, 127
1, 23256, Note_on_c, 1, 69, 127
1, 23256, Note_on_c, 1, 41, 127
1, 23266, Note_off_c, 1, 79, 0
1, 23266, Note_off_c, 1, 75, 0
1, 23274, Note_off_c, 1, 65, 0
1, 23277, Note_off_c, 1, 72, 0
1, 23277, Note_off_c, 1, 53, 0
1, 23277, Note_off_c, 1, 69, 0
1, 23277, Note_off_c, 1, 41, 0
1, 23280, Note_on_c, 1, 82, 127
1, 23280, Note_on_c, 1, 74, 127
1, 23280, Note_on_c, 1, 70, 127
1, 23280, Note_on_c, 1, 58, 127
1, 23280, Note_on_c, 1, 76, 127
1, 23280, Note_on_c, 1, 46, 127
1, 23280, Note_on_c, 1, 65, 127
1, 23301, Note_off_c, 1, 76, 0
1, 23301, Note_off_c, 1, 46, 0
1, 23304, Note_on_c, 1, 75, 127
1, 23304, Note_on_c, 1, 60, 127
1, 23304, Note_on_c, 1, 48, 127
1, 23322, Note_off_c, 1, 82, 0
1, 23322, Note_off_c, 1, 70, 0
1, 23322, Note_off_c, 1, 58, 0
1, 23322, Note_off_c, 1, 65, 0
1, 23325, Note_off_c, 1, 74, 0
1, 23325, Note_off_c, 1, 75, 0
1, 23325, Note_off_c, 1, 60, 0
1, 23325, Note_off_c, 1, 48, 0
1, 23328, Note_on_c, 1, 72, 127
1, 23328, Note_on_c, 1, 74, 127
1, 23328, Note_on_c, 1, 70, 127
1, 23328, Note_on_c, 1, 62, 127
1, 23328, Note_on_c, 1, 50, 127
1, 23328, Note_on_c, 1, 65, 127
1, 23349, Note_off_c, 1, 72, 0
1, 23349, Note_off_c, 1, 74, 0
1, 23349, Note_off_c, 1, 62, 0
1, 23349, Note_off_c, 1, 50, 0
1, 23352, Note_on_c, 1, 75, 127
1, 23352, Note_on_c, 1, 69, 127
1, 23352, Note_on_c, 1, 60, 127
1, 23352, Note_on_c, 1, 48, 127
1, 23370, Note_off_c, 1, 70, 0
1, 23370, Note_off_c, 1, 65, 0
1, 23373, Note_off_c, 1, 75, 0
1, 23373, Note_off_c, 1, 69, 0
1, 23373, Note_off_c, 1, 60, 0
1, 23373, Note_off_c, 1, 48, 0
1, 23376, Note_on_c, 1, 70, 127
1, 23376, Note_on_c, 1, 77, 127
1, 23376, Note_on_c, 1, 62, 127
1, 23376, Note_on_c, 1, 50, 127
1, 23376, Note_on_c, 1, 65, 127
1, 23397, Note_off_c, 1, 62, 0
1, 23397, Note_off_c, 1, 50, 0
1, 23400, Note_on_c, 1, 58, 127
1, 23400, Note_on_c, 1, 46, 127
1, 23418, Note_off_c, 1, 70, 0
1, 23418, Note_off_c, 1, 77, 0
1, 23421, Note_off_c, 1, 65, 0
1, 23421, Note_off_c, 1, 58, 0
1, 23421, Note_off_c, 1, 46, 0
1, 23424, Note_on_c, 1, 70, 127
1, 23424, Note_on_c, 1, 65, 127
1, 23424, Note_on_c, 1, 50, 127
1, 23424, Note_on_c, 1, 38, 127
1, 23424, Note_on_c, 1, 56, 127
1, 23472, Note_on_c, 1, 77, 127
1, 23508, Note_off_c, 1, 56, 0
1, 23514, Note_off_c, 1, 77, 0
1, 23520, Note_on_c, 1, 68, 127
1, 23520, Note_on_c, 1, 53, 127
1, 23556, Note_off_c, 1, 65, 0
1, 23556, Note_off_c, 1, 50, 0
1, 23556, Note_off_c, 1, 38, 0
1, 23562, Note_off_c, 1, 68, 0
1, 23562, Note_off_c, 1, 53, 0
1, 23568, Note_on_c, 1, 67, 127
1, 23568, Note_on_c, 1, 51, 127
1, 23568, Note_on_c, 1, 39, 127
1, 23589, Note_off_c, 1, 39, 0
1, 23610, Note_off_c, 1, 51, 0
1, 23616, Note_on_c, 1, 58, 127
1, 23631, Note_off_c, 1, 70, 0
1, 23637, Note_off_c, 1, 58, 0
1, 23640, Note_on_c, 1, 75, 127
1, 23640, Note_on_c, 1, 69, 127
1, 23640, Note_on_c, 1, 48, 127
1, 23640, Note_on_c, 1, 36, 127
1, 23640, Note_on_c, 1, 60, 127
1, 23661, Note_off_c, 1, 75, 0
1, 23661, Note_off_c, 1, 69, 0
1, 23661, Note_off_c, 1, 48, 0
1, 23661, Note_off_c, 1, 36, 0
1, 23661, Note_off_c, 1, 60, 0
1, 23664, Note_on_c, 1, 74, 127
1, 23664, Note_on_c, 1, 55, 127
1, 23664, Note_on_c, 1, 43, 127
1, 23664, Note_on_c, 1, 62, 127
1, 23685, Note_off_c, 1, 55, 0
1, 23685, Note_off_c, 1, 43, 0
1, 23688, Note_on_c, 1, 41, 127
1, 23709, Note_off_c, 1, 41, 0
1, 23722, Note_off_c, 1, 74, 0
1, 23733, Note_off_c, 1, 62, 0
1, 23736, Note_on_c, 1, 72, 127
1, 23754, Note_off_c, 1, 67, 0
1, 23757, Note_off_c, 1, 72, 0
1, 23760, Note_on_c, 1, 69, 127
1, 23760, Note_on_c, 1, 72, 127
1, 23760, Note_on_c, 1, 65, 127
1, 23760, Note_on_c, 1, 53, 127
1, 23760, Note_on_c, 1, 41, 127
1, 23760, Note_on_c, 1, 60, 127
1, 23802, Note_off_c, 1, 65, 0
1, 23802, Note_off_c, 1, 53, 0
1, 23802, Note_off_c, 1, 41, 0
1, 23808, Note_on_c, 1, 29, 127
1, 23823, Note_off_c, 1, 69, 0
1, 23823, Note_off_c, 1, 72, 0
1, 23823, Note_off_c, 1, 60, 0
1, 23832, Note_on_c, 1, 70, 127
1, 23832, Note_on_c, 1, 62, 127
1, 23850, Note_off_c, 1, 29, 0
1, 23853, Note_off_c, 1, 70, 0
1, 23853, Note_off_c, 1, 62, 0
1, 23856, Note_on_c, 1, 70, 127
1, 23856, Note_on_c, 1, 65, 127
1, 23856, Note_on_c, 1, 46, 127
1, 23856, Note_on_c, 1, 34, 127
1, 23856, Note_on_c, 1, 62, 127
1, 23898, Note_off_c, 1, 65, 0
1, 23898, Note_off_c, 1, 46, 0
1, 23898, Note_off_c, 1, 34, 0
1, 23898, Note_off_c, 1, 62, 0
1, 23904, Note_on_c, 1, 77, 127
1, 23904, Note_on_c, 1, 74, 127
1, 23904, Note_on_c, 1, 45, 127
1, 23904, Note_on_c, 1, 33, 127
1, 23904, Note_on_c, 1, 58, 127
1, 23928, Note_on_c, 1, 72, 127
1, 23946, Note_off_c, 1, 70, 0
1, 23946, Note_off_c, 1, 77, 0
1, 23946, Note_off_c, 1, 74, 0
1, 23946, Note_off_c, 1, 45, 0
1, 23946, Note_off_c, 1, 33, 0
1, 23946, Note_off_c, 1, 58, 0
1, 23949, Note_off_c, 1, 72, 0
1, 23952, Note_on_c, 1, 82, 127
1, 23952, Note_on_c, 1, 76, 127
1, 23952, Note_on_c, 1, 70, 127
1, 23952, Note_on_c, 1, 43, 127
1, 23952, Note_on_c, 1, 74, 127
1, 23952, Note_on_c, 1, 64, 127
1, 23952, Note_on_c, 1, 31, 127
1, 23952, Note_on_c, 1, 58, 127
1, 23973, Note_off_c, 1, 74, 0
1, 23994, Note_off_c, 1, 82, 0
1, 23994, Note_off_c, 1, 76, 0
1, 23994, Note_off_c, 1, 43, 0
1, 23994, Note_off_c, 1, 64, 0
1, 23994, Note_off_c, 1, 31, 0
1, 23994, Note_off_c, 1, 58, 0
1, 23997, Note_off_c, 1, 70, 0
1, 24000, Note_on_c, 1, 81, 127
1, 24000, Note_on_c, 1, 77, 127
1, 24000, Note_on_c, 1, 72, 127
1, 24000, Note_on_c, 1, 41, 127
1, 24000, Note_on_c, 1, 69, 127
1, 24000, Note_on_c, 1, 29, 127
1, 24000, Note_on_c, 1, 65, 127
1, 24021, Note_off_c, 1, 29, 0
1, 24024, Note_on_c, 1, 43, 127
1, 24024, Note_on_c, 1, 31, 127
1, 24042, Note_off_c, 1, 81, 0
1, 24042, Note_off_c, 1, 77, 0
1, 24042, Note_off_c, 1, 72, 0
1, 24042, Note_off_c, 1, 69, 0
1, 24042, Note_off_c, 1, 65, 0
1, 24045, Note_off_c, 1, 43, 0
1, 24045, Note_off_c, 1, 31, 0
1, 24048, Note_on_c, 1, 60, 127
1, 24048, Note_on_c, 1, 45, 127
1, 24048, Note_on_c, 1, 33, 127
1, 24048, Note_on_c, 1, 57, 127
1, 24069, Note_off_c, 1, 45, 0
1, 24069, Note_off_c, 1, 33, 0
1, 24084, Note_off_c, 1, 41, 0
1, 24090, Note_off_c, 1, 60, 0
1, 24090, Note_off_c, 1, 57, 0
1, 24096, Note_on_c, 1, 65, 127
1, 24096, Note_on_c, 1, 45, 127
1, 24096, Note_on_c, 1, 33, 127
1, 24117, Note_off_c, 1, 45, 0
1, 24117, Note_off_c, 1, 33, 0
1, 24120, Note_on_c, 1, 41, 127
1, 24120, Note_on_c, 1, 29, 127
1, 24138, Note_off_c, 1, 65, 0
1, 24141, Note_off_c, 1, 41, 0
1, 24141, Note_off_c, 1, 29, 0
1, 24144, Note_on_c, 1, 65, 127
1, 24144, Note_on_c, 1, 53, 127
1, 24144, Note_on_c, 1, 41, 127
1, 24186, Note_off_c, 1, 65, 0
1, 24186, Note_off_c, 1, 53, 0
1, 24186, Note_off_c, 1, 41, 0
1, 24192, Note_on_c, 1, 69, 127
1, 24192, Note_on_c, 1, 52, 127
1, 24192, Note_on_c, 1, 40, 127
1, 24213, Note_off_c, 1, 69, 0
1, 24216, Note_on_c, 1, 67, 127
1, 24234, Note_off_c, 1, 52, 0
1, 24234, Note_off_c, 1, 40, 0
1, 24237, Note_off_c, 1, 67, 0
1, 24240, Note_on_c, 1, 69, 127
1, 24240, Note_on_c, 1, 50, 127
1, 24240, Note_on_c, 1, 38, 127
1, 24261, Note_off_c, 1, 69, 0
1, 24264, Note_on_c, 1, 65, 127
1, 24282, Note_off_c, 1, 50, 0
1, 24282, Note_off_c, 1, 38, 0
1, 24285, Note_off_c, 1, 65, 0
1, 24288, Note_on_c, 1, 72, 127
1, 24288, Note_on_c, 1, 48, 127
1, 24288, Note_on_c, 1, 36, 127
1, 24309, Note_off_c, 1, 48, 0
1, 24309, Note_off_c, 1, 36, 0
1, 24312, Note_on_c, 1, 50, 127
1, 24312, Note_on_c, 1, 38, 127
1, 24330, Note_off_c, 1, 72, 0
1, 24333, Note_off_c, 1, 50, 0
1, 24333, Note_off_c, 1, 38, 0
1, 24336, Note_on_c, 1, 72, 127
1, 24336, Note_on_c, 1, 52, 127
1, 24336, Note_on_c, 1, 40, 127
1, 24357, Note_off_c, 1, 52, 0
1, 24357, Note_off_c, 1, 40, 0
1, 24360, Note_on_c, 1, 50, 127
1, 24360, Note_on_c, 1, 38, 127
1, 24378, Note_off_c, 1, 72, 0
1, 24381, Note_off_c, 1, 50, 0
1, 24381, Note_off_c, 1, 38, 0
1, 24384, Note_on_c, 1, 72, 127
1, 24384, Note_on_c, 1, 52, 127
1, 24384, Note_on_c, 1, 40, 127
1, 24405, Note_off_c, 1, 52, 0
1, 24405, Note_off_c, 1, 40, 0
1, 24408, Note_on_c, 1, 48, 127
1, 24408, Note_on_c, 1, 36, 127
1, 24426, Note_off_c, 1, 72, 0
1, 24429, Note_off_c, 1, 48, 0
1, 24429, Note_off_c, 1, 36, 0
1, 24432, Note_on_c, 1, 72, 127
1, 24432, Note_on_c, 1, 58, 127
1, 24432, Note_on_c, 1, 46, 127
1, 24474, Note_off_c, 1, 72, 0
1, 24474, Note_off_c, 1, 58, 0
1, 24474, Note_off_c, 1, 46, 0
1, 24480, Note_on_c, 1, 76, 127
1, 24480, Note_on_c, 1, 57, 127
1, 24480, Note_on_c, 1, 45, 127
1, 24501, Note_off_c, 1, 76, 0
1, 24504, Note_on_c, 1, 74, 127
1, 24522, Note_off_c, 1, 57, 0
1, 24522, Note_off_c, 1, 45, 0
1, 24525, Note_off_c, 1, 74, 0
1, 24528, Note_on_c, 1, 76, 127
1, 24528, Note_on_c, 1, 55, 127
1, 24528, Note_on_c, 1, 43, 127
1, 24549, Note_off_c, 1, 76, 0
1, 24552, Note_on_c, 1, 72, 127
1, 24570, Note_off_c, 1, 55, 0
1, 24570, Note_off_c, 1, 43, 0
1, 24573, Note_off_c, 1, 72, 0
1, 24576, Note_on_c, 1, 60, 127
1, 24576, Note_on_c, 1, 69, 127
1, 24576, Note_on_c, 1, 77, 127
1, 24576, Note_on_c, 1, 57, 127
1, 24576, Note_on_c, 1, 45, 127
1, 24618, Note_off_c, 1, 60, 0
1, 24618, Note_off_c, 1, 69, 0
1, 24618, Note_off_c, 1, 77, 0
1, 24618, Note_off_c, 1, 57, 0
1, 24618, Note_off_c, 1, 45, 0
1, 24624, Note_on_c, 1, 76, 127
1, 24624, Note_on_c, 1, 50, 127
1, 24624, Note_on_c, 1, 38, 127
1, 24645, Note_off_c, 1, 76, 0
1, 24648, Note_on_c, 1, 74, 127
1, 24666, Note_off_c, 1, 50, 0
1, 24666, Note_off_c, 1, 38, 0
1, 24669, Note_off_c, 1, 74, 0
1, 24672, Note_on_c, 1, 72, 127
1, 24672, Note_on_c, 1, 52, 127
1, 24672, Note_on_c, 1, 40, 127
1, 24693, Note_off_c, 1, 72, 0
1, 24696, Note_on_c, 1, 70, 127
1, 24714, Note_off_c, 1, 52, 0
1, 24714, Note_off_c, 1, 40, 0
1, 24717, Note_off_c, 1, 70, 0
1, 24720, Note_on_c, 1, 69, 127
1, 24720, Note_on_c, 1, 53, 127
1, 24720, Note_on_c, 1, 41, 127
1, 24741, Note_off_c, 1, 69, 0
1, 24744, Note_on_c, 1, 70, 127
1, 24762, Note_off_c, 1, 53, 0
1, 24762, Note_off_c, 1, 41, 0
1, 24765, Note_off_c, 1, 70, 0
1, 24768, Note_on_c, 1, 72, 127
1, 24768, Note_on_c, 1, 52, 127
1, 24768, Note_on_c, 1, 40, 127
1, 24778, Note_off_c, 1, 72, 0
1, 24780, Note_on_c, 1, 70, 127
1, 24789, Note_off_c, 1, 52, 0
1, 24789, Note_off_c, 1, 40, 0
1, 24790, Note_off_c, 1, 70, 0
1, 24792, Note_on_c, 1, 72, 127
1, 24792, Note_on_c, 1, 50, 127
1, 24792, Note_on_c, 1, 38, 127
1, 24802, Note_off_c, 1, 72, 0
1, 24804, Note_on_c, 1, 70, 127
1, 24813, Note_off_c, 1, 50, 0
1, 24813, Note_off_c, 1, 38, 0
1, 24814, Note_off_c, 1, 70, 0
1, 24816, Note_on_c, 1, 72, 127
1, 24816, Note_on_c, 1, 48, 127
1, 24816, Note_on_c, 1, 36, 127
1, 24826, Note_off_c, 1, 72, 0
1, 24828, Note_on_c, 1, 70, 127
1, 24837, Note_off_c, 1, 48, 0
1, 24837, Note_off_c, 1, 36, 0
1, 24838, Note_off_c, 1, 70, 0
1, 24840, Note_on_c, 1, 69, 127
1, 24840, Note_on_c, 1, 46, 127
1, 24840, Note_on_c, 1, 34, 127
1, 24850, Note_off_c, 1, 69, 0
1, 24852, Note_on_c, 1, 70, 127
1, 24861, Note_off_c, 1, 46, 0
1, 24861, Note_off_c, 1, 34, 0
1, 24862, Note_off_c, 1, 70, 0
1, 24864, Note_on_c, 1, 72, 127
1, 24864, Note_on_c, 1, 45, 127
1, 24864, Note_on_c, 1, 33, 127
1, 24885, Note_off_c, 1, 72, 0
1, 24885, Note_off_c, 1, 45, 0
1, 24885, Note_off_c, 1, 33, 0
1, 24888, Note_on_c, 1, 69, 127
1, 24888, Note_on_c, 1, 46, 127
1, 24888, Note_on_c, 1, 34, 127
1, 24909, Note_off_c, 1, 69, 0
1, 24909, Note_off_c, 1, 46, 0
1, 24909, Note_off_c, 1, 34, 0
1, 24912, Note_on_c, 1, 67, 127
1, 24912, Note_on_c, 1, 48, 127
1, 24912, Note_on_c, 1, 36, 127
1, 24922, Note_off_c, 1, 67, 0
1, 24922, Note_off_c, 1, 48, 0
1, 24922, Note_off_c, 1, 36, 0
1, 24924, Note_on_c, 1, 65, 127
1, 24924, Note_on_c, 1, 46, 127
1, 24924, Note_on_c, 1, 34, 127
1, 24934, Note_off_c, 1, 65, 0
1, 24934, Note_off_c, 1, 46, 0
1, 24934, Note_off_c, 1, 34, 0
1, 24936, Note_on_c, 1, 67, 127
1, 24936, Note_on_c, 1, 48, 127
1, 24936, Note_on_c, 1, 36, 127
1, 24946, Note_off_c, 1, 67, 0
1, 24946, Note_off_c, 1, 48, 0
1, 24946, Note_off_c, 1, 36, 0
1, 24948, Note_on_c, 1, 65, 127
1, 24948, Note_on_c, 1, 46, 127
1, 24948, Note_on_c, 1, 34, 127
1, 24958, Note_off_c, 1, 65, 0
1, 24958, Note_off_c, 1, 46, 0
1, 24958, Note_off_c, 1, 34, 0
1, 24960, Note_on_c, 1, 67, 127
1, 24960, Note_on_c, 1, 48, 127
1, 24960, Note_on_c, 1, 36, 127
1, 24970, Note_off_c, 1, 67, 0
1, 24970, Note_off_c, 1, 48, 0
1, 24970, Note_off_c, 1, 36, 0
1, 24972, Note_on_c, 1, 65, 127
1, 24972, Note_on_c, 1, 46, 127
1, 24972, Note_on_c, 1, 34, 127
1, 24982, Note_off_c, 1, 65, 0
1, 24982, Note_off_c, 1, 46, 0
1, 24982, Note_off_c, 1, 34, 0
1, 24984, Note_on_c, 1, 70, 127
1, 24984, Note_on_c, 1, 45, 127
1, 24984, Note_on_c, 1, 33, 127
1, 24994, Note_off_c, 1, 70, 0
1, 24994, Note_off_c, 1, 45, 0
1, 24994, Note_off_c, 1, 33, 0
1, 24996, Note_on_c, 1, 69, 127
1, 24996, Note_on_c, 1, 46, 127
1, 24996, Note_on_c, 1, 34, 127
1, 25006, Note_off_c, 1, 69, 0
1, 25006, Note_off_c, 1, 46, 0
1, 25006, Note_off_c, 1, 34, 0
1, 25008, Note_on_c, 1, 60, 127
1, 25008, Note_on_c, 1, 67, 127
1, 25008, Note_on_c, 1, 48, 127
1, 25008, Note_on_c, 1, 36, 127
1, 25029, Note_off_c, 1, 48, 0
1, 25029, Note_off_c, 1, 36, 0
1, 25032, Note_on_c, 1, 50, 127
1, 25032, Note_on_c, 1, 38, 127
1, 25053, Note_off_c, 1, 50, 0
1, 25053, Note_off_c, 1, 38, 0
1, 25056, Note_on_c, 1, 72, 127
1, 25056, Note_on_c, 1, 52, 127
1, 25056, Note_on_c, 1, 40, 127
1, 25077, Note_off_c, 1, 72, 0
1, 25077, Note_off_c, 1, 52, 0
1, 25077, Note_off_c, 1, 40, 0
1, 25080, Note_on_c, 1, 70, 127
1, 25092, Note_off_c, 1, 67, 0
1, 25101, Note_off_c, 1, 60, 0
1, 25101, Note_off_c, 1, 70, 0
1, 25104, Note_on_c, 1, 69, 127
1, 25104, Note_on_c, 1, 60, 127
1, 25104, Note_on_c, 1, 52, 127
1, 25104, Note_on_c, 1, 40, 127
1, 25125, Note_off_c, 1, 69, 0
1, 25125, Note_off_c, 1, 60, 0
1, 25125, Note_off_c, 1, 52, 0
1, 25125, Note_off_c, 1, 40, 0
1, 25128, Note_on_c, 1, 67, 127
1, 25128, Note_on_c, 1, 60, 127
1, 25128, Note_on_c, 1, 48, 127
1, 25128, Note_on_c, 1, 36, 127
1, 25149, Note_off_c, 1, 67, 0
1, 25149, Note_off_c, 1, 60, 0
1, 25149, Note_off_c, 1, 48, 0
1, 25149, Note_off_c, 1, 36, 0
1, 25152, Note_on_c, 1, 65, 127
1, 25152, Note_on_c, 1, 57, 127
1, 25152, Note_on_c, 1, 53, 127
1, 25152, Note_on_c, 1, 41, 127
1, 25152, Note_on_c, 1, 69, 127
1, 25152, Note_on_c, 1, 72, 127
1, 25173, Note_off_c, 1, 65, 0
1, 25176, Note_on_c, 1, 67, 127
1, 25194, Note_off_c, 1, 57, 0
1, 25194, Note_off_c, 1, 53, 0
1, 25194, Note_off_c, 1, 41, 0
1, 25194, Note_off_c, 1, 69, 0
1, 25194, Note_off_c, 1, 72, 0
1, 25197, Note_off_c, 1, 67, 0
1, 25200, Note_on_c, 1, 65, 127
1, 25200, Note_on_c, 1, 57, 127
1, 25200, Note_on_c, 1, 60, 127
1, 25200, Note_on_c, 1, 45, 127
1, 25200, Note_on_c, 1, 72, 127
1, 25200, Note_on_c, 1, 77, 127
1, 25224, Note_on_c, 1, 67, 127
1, 25242, Note_off_c, 1, 65, 0
1, 25242, Note_off_c, 1, 60, 0
1, 25242, Note_off_c, 1, 45, 0
1, 25242, Note_off_c, 1, 72, 0
1, 25242, Note_off_c, 1, 77, 0
1, 25245, Note_off_c, 1, 57, 0
1, 25245, Note_off_c, 1, 67, 0
1, 25248, Note_on_c, 1, 69, 127
1, 25248, Note_on_c, 1, 57, 127
1, 25248, Note_on_c, 1, 65, 127
1, 25248, Note_on_c, 1, 60, 127
1, 25248, Note_on_c, 1, 48, 127
1, 25248, Note_on_c, 1, 77, 127
1, 25248, Note_on_c, 1, 81, 127
1, 25269, Note_off_c, 1, 69, 0
1, 25272, Note_on_c, 1, 67, 127
1, 25290, Note_off_c, 1, 65, 0
1, 25290, Note_off_c, 1, 60, 0
1, 25290, Note_off_c, 1, 48, 0
1, 25290, Note_off_c, 1, 77, 0
1, 25290, Note_off_c, 1, 81, 0
1, 25293, Note_off_c, 1, 57, 0
1, 25293, Note_off_c, 1, 67, 0
1, 25296, Note_on_c, 1, 65, 127
1, 25296, Note_on_c, 1, 57, 127
1, 25296, Note_on_c, 1, 60, 127
1, 25296, Note_on_c, 1, 45, 127
1, 25296, Note_on_c, 1, 72, 127
1, 25296, Note_on_c, 1, 77, 127
1, 25338, Note_off_c, 1, 65, 0
1, 25338, Note_off_c, 1, 57, 0
1, 25338, Note_off_c, 1, 60, 0
1, 25338, Note_off_c, 1, 45, 0
1, 25338, Note_off_c, 1, 72, 0
1, 25338, Note_off_c, 1, 77, 0
1, 25344, Note_on_c, 1, 69, 127
1, 25344, Note_on_c, 1, 65, 127
1, 25344, Note_on_c, 1, 60, 127
1, 25344, Note_on_c, 1, 53, 127
1, 25344, Note_on_c, 1, 41, 127
1, 25344, Note_on_c, 1, 72, 127
1, 25365, Note_off_c, 1, 65, 0
1, 25368, Note_on_c, 1, 67, 127
1, 25368, Note_on_c, 1, 64, 127
1, 25368, Note_on_c, 1, 58, 127
1, 25386, Note_off_c, 1, 69, 0
1, 25386, Note_off_c, 1, 60, 0
1, 25386, Note_off_c, 1, 53, 0
1, 25386, Note_off_c, 1, 41, 0
1, 25386, Note_off_c, 1, 72, 0
1, 25389, Note_off_c, 1, 67, 0
1, 25389, Note_off_c, 1, 64, 0
1, 25389, Note_off_c, 1, 58, 0
1, 25392, Note_on_c, 1, 69, 127
1, 25392, Note_on_c, 1, 65, 127
1, 25392, Note_on_c, 1, 60, 127
1, 25413, Note_off_c, 1, 69, 0
1, 25413, Note_off_c, 1, 65, 0
1, 25416, Note_on_c, 1, 57, 127
1, 25437, Note_off_c, 1, 60, 0
1, 25437, Note_off_c, 1, 57, 0
1, 25440, Note_on_c, 1, 67, 127
1, 25440, Note_on_c, 1, 60, 127
1, 25440, Note_on_c, 1, 72, 127
1, 25440, Note_on_c, 1, 64, 127
1, 25440, Note_on_c, 1, 52, 127
1, 25440, Note_on_c, 1, 40, 127
1, 25464, Note_on_c, 1, 69, 127
1, 25482, Note_off_c, 1, 67, 0
1, 25482, Note_off_c, 1, 60, 0
1, 25482, Note_off_c, 1, 72, 0
1, 25482, Note_off_c, 1, 64, 0
1, 25482, Note_off_c, 1, 52, 0
1, 25482, Note_off_c, 1, 40, 0
1, 25485, Note_off_c, 1, 69, 0
1, 25488, Note_on_c, 1, 67, 127
1, 25488, Note_on_c, 1, 60, 127
1, 25488, Note_on_c, 1, 72, 127
1, 25488, Note_on_c, 1, 64, 127
1, 25488, Note_on_c, 1, 55, 127
1, 25488, Note_on_c, 1, 43, 127
1, 25488, Note_on_c, 1, 76, 127
1, 25509, Note_off_c, 1, 60, 0
1, 25512, Note_on_c, 1, 69, 127
1, 25530, Note_off_c, 1, 67, 0
1, 25530, Note_off_c, 1, 72, 0
1, 25530, Note_off_c, 1, 64, 0
1, 25530, Note_off_c, 1, 55, 0
1, 25530, Note_off_c, 1, 43, 0
1, 25530, Note_off_c, 1, 76, 0
1, 25533, Note_off_c, 1, 69, 0
1, 25536, Note_on_c, 1, 70, 127
1, 25536, Note_on_c, 1, 60, 127
1, 25536, Note_on_c, 1, 72, 127
1, 25536, Note_on_c, 1, 67, 127
1, 25536, Note_on_c, 1, 64, 127
1, 25536, Note_on_c, 1, 48, 127
1, 25536, Note_on_c, 1, 76, 127
1, 25536, Note_on_c, 1, 79, 127
1, 25557, Note_off_c, 1, 70, 0
1, 25560, Note_on_c, 1, 69, 127
1, 25578, Note_off_c, 1, 72, 0
1, 25578, Note_off_c, 1, 67, 0
1, 25578, Note_off_c, 1, 64, 0
1, 25578, Note_off_c, 1, 48, 0
1, 25578, Note_off_c, 1, 76, 0
1, 25578, Note_off_c, 1, 79, 0
1, 25581, Note_off_c, 1, 60, 0
1, 25581, Note_off_c, 1, 69, 0
1, 25584, Note_on_c, 1, 67, 127
1, 25584, Note_on_c, 1, 60, 127
1, 25584, Note_on_c, 1, 72, 127
1, 25584, Note_on_c, 1, 64, 127
1, 25584, Note_on_c, 1, 52, 127
1, 25584, Note_on_c, 1, 40, 127
1, 25626, Note_off_c, 1, 67, 0
1, 25626, Note_off_c, 1, 60, 0
1, 25626, Note_off_c, 1, 72, 0
1, 25626, Note_off_c, 1, 64, 0
1, 25626, Note_off_c, 1, 52, 0
1, 25626, Note_off_c, 1, 40, 0
1, 25632, Note_on_c, 1, 76, 127
1, 25632, Note_on_c, 1, 72, 127
1, 25632, Note_on_c, 1, 67, 127
1, 25632, Note_on_c, 1, 48, 127
1, 25632, Note_on_c, 1, 36, 127
1, 25632, Note_on_c, 1, 64, 127
1, 25653, Note_off_c, 1, 76, 0
1, 25653, Note_off_c, 1, 72, 0
1, 25656, Note_on_c, 1, 74, 127
1, 25656, Note_on_c, 1, 71, 127
1, 25656, Note_on_c, 1, 65, 127
1, 25674, Note_off_c, 1, 67, 0
1, 25674, Note_off_c, 1, 48, 0
1, 25674, Note_off_c, 1, 36, 0
1, 25674, Note_off_c, 1, 64, 0
1, 25677, Note_off_c, 1, 74, 0
1, 25677, Note_off_c, 1, 71, 0
1, 25677, Note_off_c, 1, 65, 0
1, 25680, Note_on_c, 1, 76, 127
1, 25680, Note_on_c, 1, 72, 127
1, 25680, Note_on_c, 1, 67, 127
1, 25701, Note_off_c, 1, 76, 0
1, 25701, Note_off_c, 1, 72, 0
1, 25701, Note_off_c, 1, 67, 0
1, 25704, Note_on_c, 1, 72, 127
1, 25704, Note_on_c, 1, 67, 127
1, 25704, Note_on_c, 1, 64, 127
1, 25725, Note_off_c, 1, 72, 0
1, 25725, Note_off_c, 1, 67, 0
1, 25725, Note_off_c, 1, 64, 0
1, 25728, Note_on_c, 1, 69, 127
1, 25728, Note_on_c, 1, 65, 127
1, 25728, Note_on_c, 1, 77, 127
1, 25728, Note_on_c, 1, 74, 127
1, 25728, Note_on_c, 1, 50, 127
1, 25728, Note_on_c, 1, 38, 127
1, 25749, Note_off_c, 1, 65, 0
1, 25752, Note_on_c, 1, 70, 127
1, 25752, Note_on_c, 1, 67, 127
1, 25770, Note_off_c, 1, 69, 0
1, 25770, Note_off_c, 1, 77, 0
1, 25770, Note_off_c, 1, 74, 0
1, 25770, Note_off_c, 1, 50, 0
1, 25770, Note_off_c, 1, 38, 0
1, 25773, Note_off_c, 1, 70, 0
1, 25773, Note_off_c, 1, 67, 0
1, 25776, Note_on_c, 1, 69, 127
1, 25776, Note_on_c, 1, 65, 127
1, 25776, Note_on_c, 1, 77, 127
1, 25776, Note_on_c, 1, 74, 127
1, 25776, Note_on_c, 1, 53, 127
1, 25776, Note_on_c, 1, 62, 127
1, 25776, Note_on_c, 1, 41, 127
1, 25797, Note_off_c, 1, 65, 0
1, 25800, Note_on_c, 1, 70, 127
1, 25800, Note_on_c, 1, 67, 127
1, 25818, Note_off_c, 1, 69, 0
1, 25818, Note_off_c, 1, 77, 0
1, 25818, Note_off_c, 1, 74, 0
1, 25818, Note_off_c, 1, 53, 0
1, 25818, Note_off_c, 1, 62, 0
1, 25818, Note_off_c, 1, 41, 0
1, 25821, Note_off_c, 1, 70, 0
1, 25821, Note_off_c, 1, 67, 0
1, 25824, Note_on_c, 1, 72, 127
1, 25824, Note_on_c, 1, 69, 127
1, 25824, Note_on_c, 1, 77, 127
1, 25824, Note_on_c, 1, 74, 127
1, 25824, Note_on_c, 1, 50, 127
1, 25824, Note_on_c, 1, 62, 127
1, 25824, Note_on_c, 1, 38, 127
1, 25845, Note_off_c, 1, 72, 0
1, 25848, Note_on_c, 1, 70, 127
1, 25848, Note_on_c, 1, 67, 127
1, 25866, Note_off_c, 1, 69, 0
1, 25866, Note_off_c, 1, 77, 0
1, 25866, Note_off_c, 1, 74, 0
1, 25866, Note_off_c, 1, 50, 0
1, 25866, Note_off_c, 1, 62, 0
1, 25866, Note_off_c, 1, 38, 0
1, 25869, Note_off_c, 1, 70, 0
1, 25869, Note_off_c, 1, 67, 0
1, 25872, Note_on_c, 1, 69, 127
1, 25872, Note_on_c, 1, 65, 127
1, 25872, Note_on_c, 1, 77, 127
1, 25872, Note_on_c, 1, 72, 127
1, 25872, Note_on_c, 1, 45, 127
1, 25872, Note_on_c, 1, 60, 127
1, 25872, Note_on_c, 1, 33, 127
1, 25896, Note_on_c, 1, 70, 127
1, 25896, Note_on_c, 1, 67, 127
1, 25914, Note_off_c, 1, 69, 0
1, 25914, Note_off_c, 1, 65, 0
1, 25914, Note_off_c, 1, 77, 0
1, 25914, Note_off_c, 1, 72, 0
1, 25914, Note_off_c, 1, 45, 0
1, 25914, Note_off_c, 1, 60, 0
1, 25914, Note_off_c, 1, 33, 0
1, 25917, Note_off_c, 1, 70, 0
1, 25917, Note_off_c, 1, 67, 0
1, 25920, Note_on_c, 1, 69, 127
1, 25920, Note_on_c, 1, 65, 127
1, 25920, Note_on_c, 1, 79, 127
1, 25920, Note_on_c, 1, 76, 127
1, 25920, Note_on_c, 1, 60, 127
1, 25920, Note_on_c, 1, 41, 127
1, 25920, Note_on_c, 1, 29, 127
1, 25941, Note_off_c, 1, 65, 0
1, 25941, Note_off_c, 1, 79, 0
1, 25941, Note_off_c, 1, 76, 0
1, 25944, Note_on_c, 1, 70, 127
1, 25944, Note_on_c, 1, 67, 127
1, 25944, Note_on_c, 1, 77, 127
1, 25944, Note_on_c, 1, 74, 127
1, 25962, Note_off_c, 1, 69, 0
1, 25962, Note_off_c, 1, 60, 0
1, 25962, Note_off_c, 1, 41, 0
1, 25962, Note_off_c, 1, 29, 0
1, 25965, Note_off_c, 1, 70, 0
1, 25965, Note_off_c, 1, 67, 0
1, 25965, Note_off_c, 1, 77, 0
1, 25965, Note_off_c, 1, 74, 0
1, 25968, Note_on_c, 1, 72, 127
1, 25968, Note_on_c, 1, 69, 127
1, 25968, Note_on_c, 1, 76, 127
1, 25968, Note_on_c, 1, 65, 127
1, 25989, Note_off_c, 1, 76, 0
1, 25992, Note_on_c, 1, 74, 127
1, 25992, Note_on_c, 1, 71, 127
1, 26010, Note_off_c, 1, 72, 0
1, 26010, Note_off_c, 1, 69, 0
1, 26010, Note_off_c, 1, 65, 0
1, 26013, Note_off_c, 1, 74, 0
1, 26013, Note_off_c, 1, 71, 0
1, 26016, Note_on_c, 1, 67, 127
1, 26016, Note_on_c, 1, 60, 127
1, 26016, Note_on_c, 1, 76, 127
1, 26016, Note_on_c, 1, 72, 127
1, 26016, Note_on_c, 1, 48, 127
1, 26016, Note_on_c, 1, 36, 127
1, 26037, Note_off_c, 1, 72, 0
1, 26040, Note_on_c, 1, 77, 127
1, 26040, Note_on_c, 1, 74, 127
1, 26058, Note_off_c, 1, 67, 0
1, 26058, Note_off_c, 1, 60, 0
1, 26058, Note_off_c, 1, 76, 0
1, 26058, Note_off_c, 1, 48, 0
1, 26058, Note_off_c, 1, 36, 0
1, 26061, Note_off_c, 1, 77, 0
1, 26061, Note_off_c, 1, 74, 0
1, 26064, Note_on_c, 1, 67, 127
1, 26064, Note_on_c, 1, 60, 127
1, 26064, Note_on_c, 1, 79, 127
1, 26064, Note_on_c, 1, 76, 127
1, 26064, Note_on_c, 1, 48, 127
1, 26064, Note_on_c, 1, 36, 127
1, 26064, Note_on_c, 1, 69, 127
1, 26064, Note_on_c, 1, 74, 127
1, 26074, Note_off_c, 1, 79, 0
1, 26074, Note_off_c, 1, 76, 0
1, 26076, Note_on_c, 1, 77, 127
1, 26085, Note_off_c, 1, 67, 0
1, 26086, Note_off_c, 1, 77, 0
1, 26106, Note_off_c, 1, 48, 0
1, 26106, Note_off_c, 1, 36, 0
1, 26106, Note_off_c, 1, 69, 0
1, 26109, Note_off_c, 1, 60, 0
1, 26110, Note_off_c, 1, 74, 0
1, 26112, Note_on_c, 1, 67, 127
1, 26112, Note_on_c, 1, 60, 127
1, 26112, Note_on_c, 1, 79, 127
1, 26112, Note_on_c, 1, 76, 127
1, 26112, Note_on_c, 1, 48, 127
1, 26112, Note_on_c, 1, 36, 127
1, 26122, Note_off_c, 1, 79, 0
1, 26124, Note_on_c, 1, 77, 127
1, 26124, Note_on_c, 1, 74, 127
1, 26133, Note_off_c, 1, 60, 0
1, 26134, Note_off_c, 1, 77, 0
1, 26134, Note_off_c, 1, 74, 0
1, 26136, Note_on_c, 1, 72, 127
1, 26146, Note_off_c, 1, 72, 0
1, 26154, Note_off_c, 1, 76, 0
1, 26154, Note_off_c, 1, 48, 0
1, 26154, Note_off_c, 1, 36, 0
1, 26157, Note_off_c, 1, 67, 0
1, 26160, Note_on_c, 1, 67, 127
1, 26160, Note_on_c, 1, 60, 127
1, 26160, Note_on_c, 1, 79, 127
1, 26160, Note_on_c, 1, 76, 127
1, 26160, Note_on_c, 1, 72, 127
1, 26160, Note_on_c, 1, 48, 127
1, 26160, Note_on_c, 1, 36, 127
1, 26181, Note_off_c, 1, 48, 0
1, 26181, Note_off_c, 1, 36, 0
1, 26184, Note_on_c, 1, 50, 127
1, 26184, Note_on_c, 1, 38, 127
1, 26202, Note_off_c, 1, 67, 0
1, 26202, Note_off_c, 1, 60, 0
1, 26202, Note_off_c, 1, 79, 0
1, 26202, Note_off_c, 1, 76, 0
1, 26202, Note_off_c, 1, 72, 0
1, 26205, Note_off_c, 1, 50, 0
1, 26205, Note_off_c, 1, 38, 0
1, 26208, Note_on_c, 1, 72, 127
1, 26208, Note_on_c, 1, 67, 127
1, 26208, Note_on_c, 1, 64, 127
1, 26208, Note_on_c, 1, 52, 127
1, 26208, Note_on_c, 1, 40, 127
1, 26229, Note_off_c, 1, 52, 0
1, 26229, Note_off_c, 1, 40, 0
1, 26232, Note_on_c, 1, 70, 127
1, 26232, Note_on_c, 1, 50, 127
1, 26232, Note_on_c, 1, 38, 127
1, 26250, Note_off_c, 1, 72, 0
1, 26250, Note_off_c, 1, 64, 0
1, 26253, Note_off_c, 1, 67, 0
1, 26253, Note_off_c, 1, 70, 0
1, 26253, Note_off_c, 1, 50, 0
1, 26253, Note_off_c, 1, 38, 0
1, 26256, Note_on_c, 1, 72, 127
1, 26256, Note_on_c, 1, 67, 127
1, 26256, Note_on_c, 1, 52, 127
1, 26256, Note_on_c, 1, 40, 127
1, 26277, Note_off_c, 1, 52, 0
1, 26277, Note_off_c, 1, 40, 0
1, 26280, Note_on_c, 1, 48, 127
1, 26280, Note_on_c, 1, 36, 127
1, 26298, Note_off_c, 1, 72, 0
1, 26301, Note_off_c, 1, 67, 0
1, 26301, Note_off_c, 1, 48, 0
1, 26301, Note_off_c, 1, 36, 0
1, 26304, Note_on_c, 1, 69, 127
1, 26304, Note_on_c, 1, 65, 127
1, 26304, Note_on_c, 1, 53, 127
1, 26304, Note_on_c, 1, 41, 127
1, 26304, Note_on_c, 1, 72, 127
1, 26325, Note_off_c, 1, 53, 0
1, 26325, Note_off_c, 1, 41, 0
1, 26328, Note_on_c, 1, 55, 127
1, 26328, Note_on_c, 1, 43, 127
1, 26346, Note_off_c, 1, 69, 0
1, 26346, Note_off_c, 1, 65, 0
1, 26346, Note_off_c, 1, 72, 0
1, 26349, Note_off_c, 1, 55, 0
1, 26349, Note_off_c, 1, 43, 0
1, 26352, Note_on_c, 1, 77, 127
1, 26352, Note_on_c, 1, 57, 127
1, 26352, Note_on_c, 1, 81, 127
1, 26352, Note_on_c, 1, 65, 127
1, 26352, Note_on_c, 1, 72, 127
1, 26352, Note_on_c, 1, 45, 127
1, 26373, Note_off_c, 1, 77, 0
1, 26373, Note_off_c, 1, 57, 0
1, 26373, Note_off_c, 1, 45, 0
1, 26376, Note_on_c, 1, 76, 127
1, 26376, Note_on_c, 1, 55, 127
1, 26376, Note_on_c, 1, 43, 127
1, 26394, Note_off_c, 1, 81, 0
1, 26394, Note_off_c, 1, 65, 0
1, 26394, Note_off_c, 1, 72, 0
1, 26397, Note_off_c, 1, 76, 0
1, 26397, Note_off_c, 1, 55, 0
1, 26397, Note_off_c, 1, 43, 0
1, 26400, Note_on_c, 1, 77, 127
1, 26400, Note_on_c, 1, 57, 127
1, 26400, Note_on_c, 1, 81, 127
1, 26400, Note_on_c, 1, 65, 127
1, 26400, Note_on_c, 1, 72, 127
1, 26400, Note_on_c, 1, 45, 127
1, 26421, Note_off_c, 1, 77, 0
1, 26421, Note_off_c, 1, 57, 0
1, 26421, Note_off_c, 1, 45, 0
1, 26424, Note_on_c, 1, 53, 127
1, 26424, Note_on_c, 1, 41, 127
1, 26442, Note_off_c, 1, 81, 0
1, 26442, Note_off_c, 1, 65, 0
1, 26445, Note_off_c, 1, 72, 0
1, 26445, Note_off_c, 1, 53, 0
1, 26445, Note_off_c, 1, 41, 0
1, 26448, Note_on_c, 1, 74, 127
1, 26448, Note_on_c, 1, 46, 127
1, 26448, Note_on_c, 1, 81, 127
1, 26448, Note_on_c, 1, 70, 127
1, 26448, Note_on_c, 1, 34, 127
1, 26448, Note_on_c, 1, 65, 127
1, 26469, Note_off_c, 1, 46, 0
1, 26469, Note_off_c, 1, 81, 0
1, 26469, Note_off_c, 1, 34, 0
1, 26472, Note_on_c, 1, 48, 127
1, 26472, Note_on_c, 1, 79, 127
1, 26472, Note_on_c, 1, 36, 127
1, 26490, Note_off_c, 1, 74, 0
1, 26490, Note_off_c, 1, 70, 0
1, 26490, Note_off_c, 1, 65, 0
1, 26493, Note_off_c, 1, 48, 0
1, 26493, Note_off_c, 1, 79, 0
1, 26493, Note_off_c, 1, 36, 0
1, 26496, Note_on_c, 1, 74, 127
1, 26496, Note_on_c, 1, 70, 127
1, 26496, Note_on_c, 1, 69, 127
1, 26496, Note_on_c, 1, 50, 127
1, 26496, Note_on_c, 1, 77, 127
1, 26496, Note_on_c, 1, 38, 127
1, 26496, Note_on_c, 1, 65, 127
1, 26517, Note_off_c, 1, 50, 0
1, 26517, Note_off_c, 1, 77, 0
1, 26517, Note_off_c, 1, 38, 0
1, 26520, Note_on_c, 1, 48, 127
1, 26520, Note_on_c, 1, 76, 127
1, 26520, Note_on_c, 1, 36, 127
1, 26538, Note_off_c, 1, 74, 0
1, 26538, Note_off_c, 1, 70, 0
1, 26538, Note_off_c, 1, 69, 0
1, 26538, Note_off_c, 1, 65, 0
1, 26541, Note_off_c, 1, 48, 0
1, 26541, Note_off_c, 1, 76, 0
1, 26541, Note_off_c, 1, 36, 0
1, 26544, Note_on_c, 1, 74, 127
1, 26544, Note_on_c, 1, 70, 127
1, 26544, Note_on_c, 1, 69, 127
1, 26544, Note_on_c, 1, 50, 127
1, 26544, Note_on_c, 1, 77, 127
1, 26544, Note_on_c, 1, 38, 127
1, 26544, Note_on_c, 1, 65, 127
1, 26565, Note_off_c, 1, 50, 0
1, 26565, Note_off_c, 1, 77, 0
1, 26565, Note_off_c, 1, 38, 0
1, 26568, Note_on_c, 1, 46, 127
1, 26568, Note_on_c, 1, 34, 127
1, 26586, Note_off_c, 1, 70, 0
1, 26586, Note_off_c, 1, 69, 0
1, 26586, Note_off_c, 1, 65, 0
1, 26589, Note_off_c, 1, 74, 0
1, 26589, Note_off_c, 1, 46, 0
1, 26589, Note_off_c, 1, 34, 0
1, 26592, Note_on_c, 1, 74, 127
1, 26592, Note_on_c, 1, 70, 127
1, 26592, Note_on_c, 1, 67, 127
1, 26592, Note_on_c, 1, 52, 127
1, 26592, Note_on_c, 1, 79, 127
1, 26592, Note_on_c, 1, 40, 127
1, 26613, Note_off_c, 1, 74, 0
1, 26613, Note_off_c, 1, 52, 0
1, 26613, Note_off_c, 1, 40, 0
1, 26616, Note_on_c, 1, 72, 127
1, 26616, Note_on_c, 1, 53, 127
1, 26616, Note_on_c, 1, 41, 127
1, 26634, Note_off_c, 1, 70, 0
1, 26634, Note_off_c, 1, 67, 0
1, 26634, Note_off_c, 1, 79, 0
1, 26637, Note_off_c, 1, 72, 0
1, 26637, Note_off_c, 1, 53, 0
1, 26637, Note_off_c, 1, 41, 0
1, 26640, Note_on_c, 1, 70, 127
1, 26640, Note_on_c, 1, 55, 127
1, 26640, Note_on_c, 1, 79, 127
1, 26640, Note_on_c, 1, 74, 127
1, 26640, Note_on_c, 1, 67, 127
1, 26640, Note_on_c, 1, 43, 127
1, 26640, Note_on_c, 1, 76, 127
1, 26640, Note_on_c, 1, 64, 127
1, 26661, Note_off_c, 1, 55, 0
1, 26661, Note_off_c, 1, 43, 0
1, 26664, Note_on_c, 1, 69, 127
1, 26664, Note_on_c, 1, 53, 127
1, 26664, Note_on_c, 1, 41, 127
1, 26682, Note_off_c, 1, 70, 0
1, 26682, Note_off_c, 1, 79, 0
1, 26682, Note_off_c, 1, 74, 0
1, 26682, Note_off_c, 1, 67, 0
1, 26682, Note_off_c, 1, 76, 0
1, 26682, Note_off_c, 1, 64, 0
1, 26685, Note_off_c, 1, 69, 0
1, 26685, Note_off_c, 1, 53, 0
1, 26685, Note_off_c, 1, 41, 0
1, 26688, Note_on_c, 1, 70, 127
1, 26688, Note_on_c, 1, 55, 127
1, 26688, Note_on_c, 1, 79, 127
1, 26688, Note_on_c, 1, 74, 127
1, 26688, Note_on_c, 1, 67, 127
1, 26688, Note_on_c, 1, 43, 127
1, 26688, Note_on_c, 1, 76, 127
1, 26688, Note_on_c, 1, 64, 127
1, 26709, Note_off_c, 1, 55, 0
1, 26709, Note_off_c, 1, 43, 0
1, 26712, Note_on_c, 1, 52, 127
1, 26712, Note_on_c, 1, 40, 127
1, 26730, Note_off_c, 1, 70, 0
1, 26730, Note_off_c, 1, 79, 0
1, 26730, Note_off_c, 1, 74, 0
1, 26730, Note_off_c, 1, 76, 0
1, 26730, Note_off_c, 1, 64, 0
1, 26733, Note_off_c, 1, 67, 0
1, 26733, Note_off_c, 1, 52, 0
1, 26733, Note_off_c, 1, 40, 0
1, 26736, Note_on_c, 1, 72, 127
1, 26736, Note_on_c, 1, 45, 127
1, 26736, Note_on_c, 1, 79, 127
1, 26736, Note_on_c, 1, 69, 127
1, 26736, Note_on_c, 1, 64, 127
1, 26736, Note_on_c, 1, 33, 127
1, 26736, Note_on_c, 1, 60, 127
1, 26757, Note_off_c, 1, 45, 0
1, 26757, Note_off_c, 1, 79, 0
1, 26757, Note_off_c, 1, 33, 0
1, 26760, Note_on_c, 1, 46, 127
1, 26760, Note_on_c, 1, 77, 127
1, 26760, Note_on_c, 1, 34, 127
1, 26778, Note_off_c, 1, 72, 0
1, 26778, Note_off_c, 1, 69, 0
1, 26778, Note_off_c, 1, 64, 0
1, 26778, Note_off_c, 1, 60, 0
1, 26781, Note_off_c, 1, 46, 0
1, 26781, Note_off_c, 1, 77, 0
1, 26781, Note_off_c, 1, 34, 0
1, 26784, Note_on_c, 1, 72, 127
1, 26784, Note_on_c, 1, 69, 127
1, 26784, Note_on_c, 1, 67, 127
1, 26784, Note_on_c, 1, 48, 127
1, 26784, Note_on_c, 1, 76, 127
1, 26784, Note_on_c, 1, 36, 127
1, 26784, Note_on_c, 1, 79, 127
1, 26805, Note_off_c, 1, 48, 0
1, 26805, Note_off_c, 1, 76, 0
1, 26805, Note_off_c, 1, 36, 0
1, 26808, Note_on_c, 1, 46, 127
1, 26808, Note_on_c, 1, 74, 127
1, 26808, Note_on_c, 1, 34, 127
1, 26826, Note_off_c, 1, 72, 0
1, 26826, Note_off_c, 1, 69, 0
1, 26826, Note_off_c, 1, 67, 0
1, 26826, Note_off_c, 1, 79, 0
1, 26829, Note_off_c, 1, 46, 0
1, 26829, Note_off_c, 1, 74, 0
1, 26829, Note_off_c, 1, 34, 0
1, 26832, Note_on_c, 1, 72, 127
1, 26832, Note_on_c, 1, 69, 127
1, 26832, Note_on_c, 1, 67, 127
1, 26832, Note_on_c, 1, 48, 127
1, 26832, Note_on_c, 1, 76, 127
1, 26832, Note_on_c, 1, 36, 127
1, 26832, Note_on_c, 1, 79, 127
1, 26853, Note_off_c, 1, 48, 0
1, 26853, Note_off_c, 1, 76, 0
1, 26853, Note_off_c, 1, 36, 0
1, 26856, Note_on_c, 1, 45, 127
1, 26856, Note_on_c, 1, 33, 127
1, 26874, Note_off_c, 1, 69, 0
1, 26874, Note_off_c, 1, 67, 0
1, 26874, Note_off_c, 1, 79, 0
1, 26877, Note_off_c, 1, 72, 0
1, 26877, Note_off_c, 1, 45, 0
1, 26877, Note_off_c, 1, 33, 0
1, 26880, Note_on_c, 1, 72, 127
1, 26880, Note_on_c, 1, 69, 127
1, 26880, Note_on_c, 1, 65, 127
1, 26880, Note_on_c, 1, 50, 127
1, 26880, Note_on_c, 1, 77, 127
1, 26880, Note_on_c, 1, 38, 127
1, 26901, Note_off_c, 1, 72, 0
1, 26901, Note_off_c, 1, 50, 0
1, 26901, Note_off_c, 1, 38, 0
1, 26904, Note_on_c, 1, 70, 127
1, 26904, Note_on_c, 1, 52, 127
1, 26904, Note_on_c, 1, 40, 127
1, 26922, Note_off_c, 1, 69, 0
1, 26922, Note_off_c, 1, 65, 0
1, 26922, Note_off_c, 1, 77, 0
1, 26925, Note_off_c, 1, 70, 0
1, 26925, Note_off_c, 1, 52, 0
1, 26925, Note_off_c, 1, 40, 0
1, 26928, Note_on_c, 1, 69, 127
1, 26928, Note_on_c, 1, 53, 127
1, 26928, Note_on_c, 1, 77, 127
1, 26928, Note_on_c, 1, 62, 127
1, 26928, Note_on_c, 1, 65, 127
1, 26928, Note_on_c, 1, 41, 127
1, 26928, Note_on_c, 1, 74, 127
1, 26949, Note_off_c, 1, 53, 0
1, 26949, Note_off_c, 1, 41, 0
1, 26952, Note_on_c, 1, 67, 127
1, 26952, Note_on_c, 1, 52, 127
1, 26952, Note_on_c, 1, 40, 127
1, 26970, Note_off_c, 1, 69, 0
1, 26970, Note_off_c, 1, 77, 0
1, 26970, Note_off_c, 1, 62, 0
1, 26970, Note_off_c, 1, 65, 0
1, 26970, Note_off_c, 1, 74, 0
1, 26973, Note_off_c, 1, 67, 0
1, 26973, Note_off_c, 1, 52, 0
1, 26973, Note_off_c, 1, 40, 0
1, 26976, Note_on_c, 1, 69, 127
1, 26976, Note_on_c, 1, 53, 127
1, 26976, Note_on_c, 1, 77, 127
1, 26976, Note_on_c, 1, 62, 127
1, 26976, Note_on_c, 1, 65, 127
1, 26976, Note_on_c, 1, 41, 127
1, 26976, Note_on_c, 1, 74, 127
1, 26997, Note_off_c, 1, 53, 0
1, 26997, Note_off_c, 1, 41, 0
1, 27000, Note_on_c, 1, 50, 127
1, 27000, Note_on_c, 1, 38, 127
1, 27018, Note_off_c, 1, 69, 0
1, 27018, Note_off_c, 1, 77, 0
1, 27018, Note_off_c, 1, 62, 0
1, 27018, Note_off_c, 1, 74, 0
1, 27021, Note_off_c, 1, 65, 0
1, 27021, Note_off_c, 1, 50, 0
1, 27021, Note_off_c, 1, 38, 0
1, 27024, Note_on_c, 1, 70, 127
1, 27024, Note_on_c, 1, 43, 127
1, 27024, Note_on_c, 1, 77, 127
1, 27024, Note_on_c, 1, 58, 127
1, 27024, Note_on_c, 1, 67, 127
1, 27024, Note_on_c, 1, 62, 127
1, 27024, Note_on_c, 1, 31, 127
1, 27045, Note_off_c, 1, 43, 0
1, 27045, Note_off_c, 1, 77, 0
1, 27045, Note_off_c, 1, 31, 0
1, 27048, Note_on_c, 1, 45, 127
1, 27048, Note_on_c, 1, 76, 127
1, 27048, Note_on_c, 1, 33, 127
1, 27066, Note_off_c, 1, 70, 0
1, 27066, Note_off_c, 1, 58, 0
1, 27066, Note_off_c, 1, 67, 0
1, 27066, Note_off_c, 1, 62, 0
1, 27069, Note_off_c, 1, 45, 0
1, 27069, Note_off_c, 1, 76, 0
1, 27069, Note_off_c, 1, 33, 0
1, 27072, Note_on_c, 1, 70, 127
1, 27072, Note_on_c, 1, 67, 127
1, 27072, Note_on_c, 1, 65, 127
1, 27072, Note_on_c, 1, 46, 127
1, 27072, Note_on_c, 1, 74, 127
1, 27072, Note_on_c, 1, 34, 127
1, 27072, Note_on_c, 1, 77, 127
1, 27093, Note_off_c, 1, 46, 0
1, 27093, Note_off_c, 1, 74, 0
1, 27093, Note_off_c, 1, 34, 0
1, 27096, Note_on_c, 1, 45, 127
1, 27096, Note_on_c, 1, 72, 127
1, 27096, Note_on_c, 1, 33, 127
1, 27114, Note_off_c, 1, 70, 0
1, 27114, Note_off_c, 1, 67, 0
1, 27114, Note_off_c, 1, 65, 0
1, 27114, Note_off_c, 1, 77, 0
1, 27117, Note_off_c, 1, 45, 0
1, 27117, Note_off_c, 1, 72, 0
1, 27117, Note_off_c, 1, 33, 0
1, 27120, Note_on_c, 1, 70, 127
1, 27120, Note_on_c, 1, 67, 127
1, 27120, Note_on_c, 1, 65, 127
1, 27120, Note_on_c, 1, 46, 127
1, 27120, Note_on_c, 1, 74, 127
1, 27120, Note_on_c, 1, 34, 127
1, 27120, Note_on_c, 1, 77, 127
1, 27141, Note_off_c, 1, 46, 0
1, 27141, Note_off_c, 1, 74, 0
1, 27141, Note_off_c, 1, 34, 0
1, 27144, Note_on_c, 1, 43, 127
1, 27144, Note_on_c, 1, 31, 127
1, 27162, Note_off_c, 1, 67, 0
1, 27162, Note_off_c, 1, 65, 0
1, 27162, Note_off_c, 1, 77, 0
1, 27165, Note_off_c, 1, 70, 0
1, 27165, Note_off_c, 1, 43, 0
1, 27165, Note_off_c, 1, 31, 0
1, 27168, Note_on_c, 1, 70, 127
1, 27168, Note_on_c, 1, 67, 127
1, 27168, Note_on_c, 1, 64, 127
1, 27168, Note_on_c, 1, 48, 127
1, 27168, Note_on_c, 1, 76, 127
1, 27168, Note_on_c, 1, 36, 127
1, 27189, Note_off_c, 1, 70, 0
1, 27192, Note_on_c, 1, 69, 127
1, 27192, Note_on_c, 1, 77, 127
1, 27210, Note_off_c, 1, 67, 0
1, 27210, Note_off_c, 1, 64, 0
1, 27210, Note_off_c, 1, 48, 0
1, 27210, Note_off_c, 1, 76, 0
1, 27210, Note_off_c, 1, 36, 0
1, 27213, Note_off_c, 1, 69, 0
1, 27213, Note_off_c, 1, 77, 0
1, 27216, Note_on_c, 1, 60, 127
1, 27216, Note_on_c, 1, 67, 127
1, 27216, Note_on_c, 1, 64, 127
1, 27216, Note_on_c, 1, 48, 127
1, 27216, Note_on_c, 1, 76, 127
1, 27216, Note_on_c, 1, 36, 127
1, 27240, Note_on_c, 1, 65, 127
1, 27240, Note_on_c, 1, 74, 127
1, 27258, Note_off_c, 1, 60, 0
1, 27258, Note_off_c, 1, 67, 0
1, 27258, Note_off_c, 1, 64, 0
1, 27258, Note_off_c, 1, 48, 0
1, 27258, Note_off_c, 1, 76, 0
1, 27258, Note_off_c, 1, 36, 0
1, 27261, Note_off_c, 1, 65, 0
1, 27261, Note_off_c, 1, 74, 0
1, 27264, Note_on_c, 1, 60, 127
1, 27264, Note_on_c, 1, 67, 127
1, 27264, Note_on_c, 1, 64, 127
1, 27264, Note_on_c, 1, 48, 127
1, 27264, Note_on_c, 1, 76, 127
1, 27264, Note_on_c, 1, 36, 127
1, 27288, Note_on_c, 1, 72, 127
1, 27306, Note_off_c, 1, 60, 0
1, 27306, Note_off_c, 1, 67, 0
1, 27306, Note_off_c, 1, 48, 0
1, 27306, Note_off_c, 1, 76, 0
1, 27306, Note_off_c, 1, 36, 0
1, 27309, Note_off_c, 1, 64, 0
1, 27309, Note_off_c, 1, 72, 0
1, 27312, Note_on_c, 1, 60, 127
1, 27312, Note_on_c, 1, 69, 127
1, 27312, Note_on_c, 1, 65, 127
1, 27312, Note_on_c, 1, 48, 127
1, 27312, Note_on_c, 1, 77, 127
1, 27312, Note_on_c, 1, 36, 127
1, 27336, Note_on_c, 1, 76, 127
1, 27354, Note_off_c, 1, 60, 0
1, 27354, Note_off_c, 1, 69, 0
1, 27354, Note_off_c, 1, 65, 0
1, 27354, Note_off_c, 1, 48, 0
1, 27354, Note_off_c, 1, 77, 0
1, 27354, Note_off_c, 1, 36, 0
1, 27357, Note_off_c, 1, 76, 0
1, 27360, Note_on_c, 1, 60, 127
1, 27360, Note_on_c, 1, 69, 127
1, 27360, Note_on_c, 1, 65, 127
1, 27360, Note_on_c, 1, 48, 127
1, 27360, Note_on_c, 1, 77, 127
1, 27360, Note_on_c, 1, 36, 127
1, 27384, Note_on_c, 1, 79, 127
1, 27402, Note_off_c, 1, 60, 0
1, 27402, Note_off_c, 1, 69, 0
1, 27402, Note_off_c, 1, 65, 0
1, 27402, Note_off_c, 1, 48, 0
1, 27402, Note_off_c, 1, 77, 0
1, 27402, Note_off_c, 1, 36, 0
1, 27405, Note_off_c, 1, 79, 0
1, 27408, Note_on_c, 1, 60, 127
1, 27408, Note_on_c, 1, 69, 127
1, 27408, Note_on_c, 1, 65, 127
1, 27408, Note_on_c, 1, 48, 127
1, 27408, Note_on_c, 1, 81, 127
1, 27408, Note_on_c, 1, 36, 127
1, 27408, Note_on_c, 1, 77, 127
1, 27429, Note_off_c, 1, 81, 0
1, 27450, Note_off_c, 1, 60, 0
1, 27450, Note_off_c, 1, 69, 0
1, 27450, Note_off_c, 1, 65, 0
1, 27450, Note_off_c, 1, 48, 0
1, 27450, Note_off_c, 1, 36, 0
1, 27453, Note_off_c, 1, 77, 0
1, 27456, Note_on_c, 1, 60, 127
1, 27456, Note_on_c, 1, 69, 127
1, 27456, Note_on_c, 1, 65, 127
1, 27456, Note_on_c, 1, 62, 127
1, 27456, Note_on_c, 1, 48, 127
1, 27456, Note_on_c, 1, 82, 127
1, 27456, Note_on_c, 1, 36, 127
1, 27456, Note_on_c, 1, 77, 127
1, 27480, Note_on_c, 1, 70, 127
1, 27498, Note_off_c, 1, 60, 0
1, 27498, Note_off_c, 1, 69, 0
1, 27498, Note_off_c, 1, 65, 0
1, 27498, Note_off_c, 1, 62, 0
1, 27498, Note_off_c, 1, 48, 0
1, 27498, Note_off_c, 1, 82, 0
1, 27498, Note_off_c, 1, 36, 0
1, 27498, Note_off_c, 1, 77, 0
1, 27501, Note_off_c, 1, 70, 0
1, 27504, Note_on_c, 1, 60, 127
1, 27504, Note_on_c, 1, 69, 127
1, 27504, Note_on_c, 1, 65, 127
1, 27504, Note_on_c, 1, 62, 127
1, 27504, Note_on_c, 1, 48, 127
1, 27504, Note_on_c, 1, 82, 127
1, 27504, Note_on_c, 1, 36, 127
1, 27504, Note_on_c, 1, 77, 127
1, 27528, Note_on_c, 1, 67, 127
1, 27546, Note_off_c, 1, 60, 0
1, 27546, Note_off_c, 1, 69, 0
1, 27546, Note_off_c, 1, 65, 0
1, 27546, Note_off_c, 1, 62, 0
1, 27546, Note_off_c, 1, 48, 0
1, 27546, Note_off_c, 1, 82, 0
1, 27546, Note_off_c, 1, 36, 0
1, 27546, Note_off_c, 1, 77, 0
1, 27549, Note_off_c, 1, 67, 0
1, 27552, Note_on_c, 1, 60, 127
1, 27552, Note_on_c, 1, 69, 127
1, 27552, Note_on_c, 1, 65, 127
1, 27552, Note_on_c, 1, 62, 127
1, 27552, Note_on_c, 1, 48, 127
1, 27552, Note_on_c, 1, 82, 127
1, 27552, Note_on_c, 1, 36, 127
1, 27552, Note_on_c, 1, 77, 127
1, 27594, Note_off_c, 1, 60, 0
1, 27594, Note_off_c, 1, 69, 0
1, 27594, Note_off_c, 1, 62, 0
1, 27594, Note_off_c, 1, 48, 0
1, 27594, Note_off_c, 1, 82, 0
1, 27594, Note_off_c, 1, 36, 0
1, 27594, Note_off_c, 1, 77, 0
1, 27597, Note_off_c, 1, 65, 0
1, 27600, Note_on_c, 1, 60, 127
1, 27600, Note_on_c, 1, 67, 127
1, 27600, Note_on_c, 1, 64, 127
1, 27600, Note_on_c, 1, 48, 127
1, 27600, Note_on_c, 1, 82, 127
1, 27600, Note_on_c, 1, 36, 127
1, 27600, Note_on_c, 1, 76, 127
1, 27600, Note_on_c, 1, 55, 127
1, 27621, Note_off_c, 1, 82, 0
1, 27624, Note_on_c, 1, 69, 127
1, 27624, Note_on_c, 1, 84, 127
1, 27642, Note_off_c, 1, 60, 0
1, 27642, Note_off_c, 1, 67, 0
1, 27642, Note_off_c, 1, 64, 0
1, 27642, Note_off_c, 1, 48, 0
1, 27642, Note_off_c, 1, 36, 0
1, 27642, Note_off_c, 1, 76, 0
1, 27642, Note_off_c, 1, 55, 0
1, 27645, Note_off_c, 1, 69, 0
1, 27645, Note_off_c, 1, 84, 0
1, 27648, Note_on_c, 1, 60, 127
1, 27648, Note_on_c, 1, 67, 127
1, 27648, Note_on_c, 1, 64, 127
1, 27648, Note_on_c, 1, 48, 127
1, 27648, Note_on_c, 1, 82, 127
1, 27648, Note_on_c, 1, 36, 127
1, 27648, Note_on_c, 1, 76, 127
1, 27648, Note_on_c, 1, 55, 127
1, 27669, Note_off_c, 1, 82, 0
1, 27672, Note_on_c, 1, 65, 127
1, 27672, Note_on_c, 1, 81, 127
1, 27690, Note_off_c, 1, 60, 0
1, 27690, Note_off_c, 1, 67, 0
1, 27690, Note_off_c, 1, 64, 0
1, 27690, Note_off_c, 1, 48, 0
1, 27690, Note_off_c, 1, 36, 0
1, 27690, Note_off_c, 1, 76, 0
1, 27690, Note_off_c, 1, 55, 0
1, 27693, Note_off_c, 1, 65, 0
1, 27693, Note_off_c, 1, 81, 0
1, 27696, Note_on_c, 1, 60, 127
1, 27696, Note_on_c, 1, 67, 127
1, 27696, Note_on_c, 1, 48, 127
1, 27696, Note_on_c, 1, 82, 127
1, 27696, Note_on_c, 1, 64, 127
1, 27696, Note_on_c, 1, 36, 127
1, 27696, Note_on_c, 1, 76, 127
1, 27696, Note_on_c, 1, 55, 127
1, 27717, Note_off_c, 1, 82, 0
1, 27720, Note_on_c, 1, 79, 127
1, 27738, Note_off_c, 1, 60, 0
1, 27738, Note_off_c, 1, 67, 0
1, 27738, Note_off_c, 1, 48, 0
1, 27738, Note_off_c, 1, 36, 0
1, 27738, Note_off_c, 1, 76, 0
1, 27738, Note_off_c, 1, 55, 0
1, 27741, Note_off_c, 1, 64, 0
1, 27741, Note_off_c, 1, 79, 0
1, 27744, Note_on_c, 1, 60, 127
1, 27744, Note_on_c, 1, 65, 127
1, 27744, Note_on_c, 1, 48, 127
1, 27744, Note_on_c, 1, 81, 127
1, 27744, Note_on_c, 1, 69, 127
1, 27744, Note_on_c, 1, 36, 127
1, 27744, Note_on_c, 1, 77, 127
1, 27765, Note_off_c, 1, 81, 0
1, 27768, Note_on_c, 1, 67, 127
1, 27768, Note_on_c, 1, 79, 127
1, 27786, Note_off_c, 1, 60, 0
1, 27786, Note_off_c, 1, 65, 0
1, 27786, Note_off_c, 1, 48, 0
1, 27786, Note_off_c, 1, 69, 0
1, 27786, Note_off_c, 1, 36, 0
1, 27786, Note_off_c, 1, 77, 0
1, 27789, Note_off_c, 1, 67, 0
1, 27789, Note_off_c, 1, 79, 0
1, 27792, Note_on_c, 1, 60, 127
1, 27792, Note_on_c, 1, 65, 127
1, 27792, Note_on_c, 1, 48, 127
1, 27792, Note_on_c, 1, 81, 127
1, 27792, Note_on_c, 1, 69, 127
1, 27792, Note_on_c, 1, 36, 127
1, 27792, Note_on_c, 1, 77, 127
1, 27813, Note_off_c, 1, 81, 0
1, 27816, Note_on_c, 1, 64, 127
1, 27816, Note_on_c, 1, 84, 127
1, 27834, Note_off_c, 1, 60, 0
1, 27834, Note_off_c, 1, 65, 0
1, 27834, Note_off_c, 1, 48, 0
1, 27834, Note_off_c, 1, 69, 0
1, 27834, Note_off_c, 1, 36, 0
1, 27834, Note_off_c, 1, 77, 0
1, 27837, Note_off_c, 1, 64, 0
1, 27837, Note_off_c, 1, 84, 0
1, 27840, Note_on_c, 1, 60, 127
1, 27840, Note_on_c, 1, 65, 127
1, 27840, Note_on_c, 1, 62, 127
1, 27840, Note_on_c, 1, 48, 127
1, 27840, Note_on_c, 1, 83, 127
1, 27840, Note_on_c, 1, 36, 127
1, 27840, Note_on_c, 1, 69, 127
1, 27840, Note_on_c, 1, 77, 127
1, 27861, Note_off_c, 1, 83, 0
1, 27864, Note_on_c, 1, 86, 127
1, 27882, Note_off_c, 1, 60, 0
1, 27882, Note_off_c, 1, 65, 0
1, 27882, Note_off_c, 1, 48, 0
1, 27882, Note_off_c, 1, 36, 0
1, 27882, Note_off_c, 1, 69, 0
1, 27882, Note_off_c, 1, 77, 0
1, 27885, Note_off_c, 1, 62, 0
1, 27885, Note_off_c, 1, 86, 0
1, 27888, Note_on_c, 1, 60, 127
1, 27888, Note_on_c, 1, 64, 127
1, 27888, Note_on_c, 1, 67, 127
1, 27888, Note_on_c, 1, 48, 127
1, 27888, Note_on_c, 1, 84, 127
1, 27888, Note_on_c, 1, 36, 127
1, 27888, Note_on_c, 1, 79, 127
1, 27888, Note_on_c, 1, 55, 127
1, 27909, Note_off_c, 1, 36, 0
1, 27912, Note_on_c, 1, 46, 127
1, 27912, Note_on_c, 1, 34, 127
1, 27930, Note_off_c, 1, 84, 0
1, 27933, Note_off_c, 1, 46, 0
1, 27933, Note_off_c, 1, 34, 0
1, 27936, Note_on_c, 1, 72, 127
1, 27960, Note_on_c, 1, 50, 127
1, 27960, Note_on_c, 1, 38, 127
1, 27972, Note_off_c, 1, 64, 0
1, 27972, Note_off_c, 1, 67, 0
1, 27972, Note_off_c, 1, 48, 0
1, 27972, Note_off_c, 1, 79, 0
1, 27972, Note_off_c, 1, 55, 0
1, 27978, Note_off_c, 1, 60, 0
1, 27978, Note_off_c, 1, 72, 0
1, 27981, Note_off_c, 1, 50, 0
1, 27981, Note_off_c, 1, 38, 0
1, 27984, Note_on_c, 1, 72, 127
1, 27984, Note_on_c, 1, 48, 127
1, 27984, Note_on_c, 1, 36, 127
1, 28005, Note_off_c, 1, 48, 0
1, 28005, Note_off_c, 1, 36, 0
1, 28008, Note_on_c, 1, 46, 127
1, 28008, Note_on_c, 1, 34, 127
1, 28026, Note_off_c, 1, 72, 0
1, 28029, Note_off_c, 1, 46, 0
1, 28029, Note_off_c, 1, 34, 0
1, 28032, Note_on_c, 1, 72, 127
1, 28032, Note_on_c, 1, 45, 127
1, 28032, Note_on_c, 1, 33, 127
1, 28053, Note_off_c, 1, 72, 0
1, 28053, Note_off_c, 1, 45, 0
1, 28053, Note_off_c, 1, 33, 0
1, 28056, Note_on_c, 1, 74, 127
1, 28056, Note_on_c, 1, 46, 127
1, 28056, Note_on_c, 1, 34, 127
1, 28077, Note_off_c, 1, 74, 0
1, 28077, Note_off_c, 1, 46, 0
1, 28077, Note_off_c, 1, 34, 0
1, 28080, Note_on_c, 1, 65, 127
1, 28080, Note_on_c, 1, 72, 127
1, 28080, Note_on_c, 1, 45, 127
1, 28080, Note_on_c, 1, 33, 127
1, 28101, Note_off_c, 1, 72, 0
1, 28101, Note_off_c, 1, 45, 0
1, 28101, Note_off_c, 1, 33, 0
1, 28104, Note_on_c, 1, 70, 127
1, 28104, Note_on_c, 1, 43, 127
1, 28104, Note_on_c, 1, 31, 127
1, 28122, Note_off_c, 1, 65, 0
1, 28125, Note_off_c, 1, 70, 0
1, 28125, Note_off_c, 1, 43, 0
1, 28125, Note_off_c, 1, 31, 0
1, 28128, Note_on_c, 1, 65, 127
1, 28128, Note_on_c, 1, 72, 127
1, 28128, Note_on_c, 1, 45, 127
1, 28128, Note_on_c, 1, 33, 127
1, 28149, Note_off_c, 1, 72, 0
1, 28149, Note_off_c, 1, 45, 0
1, 28149, Note_off_c, 1, 33, 0
1, 28152, Note_on_c, 1, 69, 127
1, 28152, Note_on_c, 1, 41, 127
1, 28152, Note_on_c, 1, 29, 127
1, 28170, Note_off_c, 1, 65, 0
1, 28173, Note_off_c, 1, 69, 0
1, 28173, Note_off_c, 1, 41, 0
1, 28173, Note_off_c, 1, 29, 0
1, 28176, Note_on_c, 1, 65, 127
1, 28176, Note_on_c, 1, 74, 127
1, 28176, Note_on_c, 1, 46, 127
1, 28176, Note_on_c, 1, 34, 127
1, 28197, Note_off_c, 1, 46, 0
1, 28197, Note_off_c, 1, 34, 0
1, 28200, Note_on_c, 1, 48, 127
1, 28200, Note_on_c, 1, 36, 127
1, 28218, Note_off_c, 1, 65, 0
1, 28218, Note_off_c, 1, 74, 0
1, 28221, Note_off_c, 1, 48, 0
1, 28221, Note_off_c, 1, 36, 0
1, 28224, Note_on_c, 1, 70, 127
1, 28224, Note_on_c, 1, 74, 127
1, 28224, Note_on_c, 1, 58, 127
1, 28224, Note_on_c, 1, 65, 127
1, 28224, Note_on_c, 1, 50, 127
1, 28224, Note_on_c, 1, 38, 127
1, 28245, Note_off_c, 1, 70, 0
1, 28245, Note_off_c, 1, 50, 0
1, 28245, Note_off_c, 1, 38, 0
1, 28248, Note_on_c, 1, 69, 127
1, 28248, Note_on_c, 1, 48, 127
1, 28248, Note_on_c, 1, 36, 127
1, 28266, Note_off_c, 1, 74, 0
1, 28266, Note_off_c, 1, 58, 0
1, 28266, Note_off_c, 1, 65, 0
1, 28269, Note_off_c, 1, 69, 0
1, 28269, Note_off_c, 1, 48, 0
1, 28269, Note_off_c, 1, 36, 0
1, 28272, Note_on_c, 1, 70, 127
1, 28272, Note_on_c, 1, 74, 127
1, 28272, Note_on_c, 1, 58, 127
1, 28272, Note_on_c, 1, 65, 127
1, 28272, Note_on_c, 1, 46, 127
1, 28272, Note_on_c, 1, 34, 127
1, 28293, Note_off_c, 1, 70, 0
1, 28293, Note_off_c, 1, 46, 0
1, 28293, Note_off_c, 1, 34, 0
1, 28296, Note_on_c, 1, 45, 127
1, 28296, Note_on_c, 1, 33, 127
1, 28314, Note_off_c, 1, 74, 0
1, 28314, Note_off_c, 1, 58, 0
1, 28317, Note_off_c, 1, 65, 0
1, 28317, Note_off_c, 1, 45, 0
1, 28317, Note_off_c, 1, 33, 0
1, 28320, Note_on_c, 1, 67, 127
1, 28320, Note_on_c, 1, 74, 127
1, 28320, Note_on_c, 1, 58, 127
1, 28320, Note_on_c, 1, 43, 127
1, 28320, Note_on_c, 1, 31, 127
1, 28341, Note_off_c, 1, 43, 0
1, 28341, Note_off_c, 1, 31, 0
1, 28344, Note_on_c, 1, 45, 127
1, 28344, Note_on_c, 1, 33, 127
1, 28362, Note_off_c, 1, 67, 0
1, 28362, Note_off_c, 1, 74, 0
1, 28362, Note_off_c, 1, 58, 0
1, 28365, Note_off_c, 1, 45, 0
1, 28365, Note_off_c, 1, 33, 0
1, 28368, Note_on_c, 1, 67, 127
1, 28368, Note_on_c, 1, 79, 127
1, 28368, Note_on_c, 1, 46, 127
1, 28368, Note_on_c, 1, 34, 127
1, 28389, Note_off_c, 1, 79, 0
1, 28389, Note_off_c, 1, 46, 0
1, 28389, Note_off_c, 1, 34, 0
1, 28392, Note_on_c, 1, 77, 127
1, 28392, Note_on_c, 1, 45, 127
1, 28392, Note_on_c, 1, 33, 127
1, 28410, Note_off_c, 1, 67, 0
1, 28413, Note_off_c, 1, 77, 0
1, 28413, Note_off_c, 1, 45, 0
1, 28413, Note_off_c, 1, 33, 0
1, 28416, Note_on_c, 1, 67, 127
1, 28416, Note_on_c, 1, 79, 127
1, 28416, Note_on_c, 1, 46, 127
1, 28416, Note_on_c, 1, 34, 127
1, 28437, Note_off_c, 1, 79, 0
1, 28437, Note_off_c, 1, 46, 0
1, 28437, Note_off_c, 1, 34, 0
1, 28440, Note_on_c, 1, 74, 127
1, 28440, Note_on_c, 1, 43, 127
1, 28440, Note_on_c, 1, 31, 127
1, 28458, Note_off_c, 1, 67, 0
1, 28461, Note_off_c, 1, 74, 0
1, 28461, Note_off_c, 1, 43, 0
1, 28461, Note_off_c, 1, 31, 0
1, 28464, Note_on_c, 1, 67, 127
1, 28464, Note_on_c, 1, 76, 127
1, 28464, Note_on_c, 1, 48, 127
1, 28464, Note_on_c, 1, 36, 127
1, 28485, Note_off_c, 1, 48, 0
1, 28485, Note_off_c, 1, 36, 0
1, 28488, Note_on_c, 1, 50, 127
1, 28488, Note_on_c, 1, 38, 127
1, 28506, Note_off_c, 1, 67, 0
1, 28506, Note_off_c, 1, 76, 0
1, 28509, Note_off_c, 1, 50, 0
1, 28509, Note_off_c, 1, 38, 0
1, 28512, Note_on_c, 1, 72, 127
1, 28512, Note_on_c, 1, 76, 127
1, 28512, Note_on_c, 1, 60, 127
1, 28512, Note_on_c, 1, 67, 127
1, 28512, Note_on_c, 1, 52, 127
1, 28512, Note_on_c, 1, 40, 127
1, 28533, Note_off_c, 1, 72, 0
1, 28533, Note_off_c, 1, 52, 0
1, 28533, Note_off_c, 1, 40, 0
1, 28536, Note_on_c, 1, 70, 127
1, 28536, Note_on_c, 1, 50, 127
1, 28536, Note_on_c, 1, 38, 127
1, 28554, Note_off_c, 1, 76, 0
1, 28554, Note_off_c, 1, 60, 0
1, 28554, Note_off_c, 1, 67, 0
1, 28557, Note_off_c, 1, 70, 0
1, 28557, Note_off_c, 1, 50, 0
1, 28557, Note_off_c, 1, 38, 0
1, 28560, Note_on_c, 1, 72, 127
1, 28560, Note_on_c, 1, 76, 127
1, 28560, Note_on_c, 1, 60, 127
1, 28560, Note_on_c, 1, 67, 127
1, 28560, Note_on_c, 1, 48, 127
1, 28560, Note_on_c, 1, 36, 127
1, 28581, Note_off_c, 1, 72, 0
1, 28581, Note_off_c, 1, 48, 0
1, 28581, Note_off_c, 1, 36, 0
1, 28584, Note_on_c, 1, 46, 127
1, 28584, Note_on_c, 1, 34, 127
1, 28602, Note_off_c, 1, 76, 0
1, 28602, Note_off_c, 1, 60, 0
1, 28605, Note_off_c, 1, 67, 0
1, 28605, Note_off_c, 1, 46, 0
1, 28605, Note_off_c, 1, 34, 0
1, 28608, Note_on_c, 1, 69, 127
1, 28608, Note_on_c, 1, 76, 127
1, 28608, Note_on_c, 1, 60, 127
1, 28608, Note_on_c, 1, 45, 127
1, 28608, Note_on_c, 1, 33, 127
1, 28629, Note_off_c, 1, 45, 0
1, 28629, Note_off_c, 1, 33, 0
1, 28632, Note_on_c, 1, 46, 127
1, 28632, Note_on_c, 1, 34, 127
1, 28650, Note_off_c, 1, 69, 0
1, 28650, Note_off_c, 1, 76, 0
1, 28650, Note_off_c, 1, 60, 0
1, 28653, Note_off_c, 1, 46, 0
1, 28653, Note_off_c, 1, 34, 0
1, 28656, Note_on_c, 1, 69, 127
1, 28656, Note_on_c, 1, 81, 127
1, 28656, Note_on_c, 1, 48, 127
1, 28656, Note_on_c, 1, 36, 127
1, 28677, Note_off_c, 1, 81, 0
1, 28677, Note_off_c, 1, 48, 0
1, 28677, Note_off_c, 1, 36, 0
1, 28680, Note_on_c, 1, 79, 127
1, 28680, Note_on_c, 1, 46, 127
1, 28680, Note_on_c, 1, 34, 127
1, 28698, Note_off_c, 1, 69, 0
1, 28701, Note_off_c, 1, 79, 0
1, 28701, Note_off_c, 1, 46, 0
1, 28701, Note_off_c, 1, 34, 0
1, 28704, Note_on_c, 1, 69, 127
1, 28704, Note_on_c, 1, 81, 127
1, 28704, Note_on_c, 1, 48, 127
1, 28704, Note_on_c, 1, 36, 127
1, 28725, Note_off_c, 1, 81, 0
1, 28725, Note_off_c, 1, 48, 0
1, 28725, Note_off_c, 1, 36, 0
1, 28728, Note_on_c, 1, 76, 127
1, 28728, Note_on_c, 1, 45, 127
1, 28728, Note_on_c, 1, 33, 127
1, 28746, Note_off_c, 1, 69, 0
1, 28749, Note_off_c, 1, 76, 0
1, 28749, Note_off_c, 1, 45, 0
1, 28749, Note_off_c, 1, 33, 0
1, 28752, Note_on_c, 1, 69, 127
1, 28752, Note_on_c, 1, 77, 127
1, 28752, Note_on_c, 1, 50, 127
1, 28752, Note_on_c, 1, 38, 127
1, 28773, Note_off_c, 1, 50, 0
1, 28773, Note_off_c, 1, 38, 0
1, 28776, Note_on_c, 1, 52, 127
1, 28776, Note_on_c, 1, 40, 127
1, 28794, Note_off_c, 1, 69, 0
1, 28794, Note_off_c, 1, 77, 0
1, 28797, Note_off_c, 1, 52, 0
1, 28797, Note_off_c, 1, 40, 0
1, 28800, Note_on_c, 1, 74, 127
1, 28800, Note_on_c, 1, 77, 127
1, 28800, Note_on_c, 1, 62, 127
1, 28800, Note_on_c, 1, 69, 127
1, 28800, Note_on_c, 1, 53, 127
1, 28800, Note_on_c, 1, 41, 127
1, 28821, Note_off_c, 1, 74, 0
1, 28821, Note_off_c, 1, 53, 0
1, 28821, Note_off_c, 1, 41, 0
1, 28824, Note_on_c, 1, 72, 127
1, 28824, Note_on_c, 1, 52, 127
1, 28824, Note_on_c, 1, 40, 127
1, 28842, Note_off_c, 1, 77, 0
1, 28842, Note_off_c, 1, 62, 0
1, 28842, Note_off_c, 1, 69, 0
1, 28845, Note_off_c, 1, 72, 0
1, 28845, Note_off_c, 1, 52, 0
1, 28845, Note_off_c, 1, 40, 0
1, 28848, Note_on_c, 1, 74, 127
1, 28848, Note_on_c, 1, 77, 127
1, 28848, Note_on_c, 1, 62, 127
1, 28848, Note_on_c, 1, 69, 127
1, 28848, Note_on_c, 1, 53, 127
1, 28848, Note_on_c, 1, 41, 127
1, 28869, Note_off_c, 1, 74, 0
1, 28869, Note_off_c, 1, 53, 0
1, 28869, Note_off_c, 1, 41, 0
1, 28872, Note_on_c, 1, 50, 127
1, 28872, Note_on_c, 1, 38, 127
1, 28890, Note_off_c, 1, 77, 0
1, 28890, Note_off_c, 1, 62, 0
1, 28893, Note_off_c, 1, 69, 0
1, 28893, Note_off_c, 1, 50, 0
1, 28893, Note_off_c, 1, 38, 0
1, 28896, Note_on_c, 1, 71, 127
1, 28896, Note_on_c, 1, 77, 127
1, 28896, Note_on_c, 1, 62, 127
1, 28896, Note_on_c, 1, 55, 127
1, 28896, Note_on_c, 1, 43, 127
1, 28917, Note_off_c, 1, 55, 0
1, 28917, Note_off_c, 1, 43, 0
1, 28920, Note_on_c, 1, 57, 127
1, 28920, Note_on_c, 1, 45, 127
1, 28938, Note_off_c, 1, 71, 0
1, 28938, Note_off_c, 1, 77, 0
1, 28938, Note_off_c, 1, 62, 0
1, 28941, Note_off_c, 1, 57, 0
1, 28941, Note_off_c, 1, 45, 0
1, 28944, Note_on_c, 1, 72, 127
1, 28944, Note_on_c, 1, 79, 127
1, 28944, Note_on_c, 1, 59, 127
1, 28944, Note_on_c, 1, 47, 127
1, 28954, Note_off_c, 1, 72, 0
1, 28956, Note_on_c, 1, 71, 127
1, 28965, Note_off_c, 1, 79, 0
1, 28965, Note_off_c, 1, 59, 0
1, 28965, Note_off_c, 1, 47, 0
1, 28966, Note_off_c, 1, 71, 0
1, 28968, Note_on_c, 1, 72, 127
1, 28968, Note_on_c, 1, 77, 127
1, 28968, Note_on_c, 1, 57, 127
1, 28968, Note_on_c, 1, 45, 127
1, 28978, Note_off_c, 1, 72, 0
1, 28980, Note_on_c, 1, 71, 127
1, 28989, Note_off_c, 1, 77, 0
1, 28989, Note_off_c, 1, 57, 0
1, 28989, Note_off_c, 1, 45, 0
1, 28990, Note_off_c, 1, 71, 0
1, 28992, Note_on_c, 1, 72, 127
1, 28992, Note_on_c, 1, 76, 127
1, 28992, Note_on_c, 1, 59, 127
1, 28992, Note_on_c, 1, 47, 127
1, 29002, Note_off_c, 1, 72, 0
1, 29004, Note_on_c, 1, 71, 127
1, 29013, Note_off_c, 1, 76, 0
1, 29013, Note_off_c, 1, 59, 0
1, 29013, Note_off_c, 1, 47, 0
1, 29014, Note_off_c, 1, 71, 0
1, 29016, Note_on_c, 1, 69, 127
1, 29016, Note_on_c, 1, 74, 127
1, 29016, Note_on_c, 1, 55, 127
1, 29016, Note_on_c, 1, 43, 127
1, 29026, Note_off_c, 1, 69, 0
1, 29028, Note_on_c, 1, 71, 127
1, 29037, Note_off_c, 1, 74, 0
1, 29037, Note_off_c, 1, 55, 0
1, 29037, Note_off_c, 1, 43, 0
1, 29038, Note_off_c, 1, 71, 0
1, 29040, Note_on_c, 1, 74, 127
1, 29040, Note_on_c, 1, 76, 127
1, 29040, Note_on_c, 1, 60, 127
1, 29040, Note_on_c, 1, 48, 127
1, 29050, Note_off_c, 1, 74, 0
1, 29052, Note_on_c, 1, 72, 127
1, 29061, Note_off_c, 1, 76, 0
1, 29062, Note_off_c, 1, 72, 0
1, 29064, Note_on_c, 1, 77, 127
1, 29082, Note_off_c, 1, 60, 0
1, 29082, Note_off_c, 1, 48, 0
1, 29085, Note_off_c, 1, 77, 0
1, 29088, Note_on_c, 1, 74, 127
1, 29088, Note_on_c, 1, 76, 127
1, 29088, Note_on_c, 1, 48, 127
1, 29088, Note_on_c, 1, 36, 127
1, 29098, Note_off_c, 1, 74, 0
1, 29100, Note_on_c, 1, 72, 127
1, 29109, Note_off_c, 1, 76, 0
1, 29110, Note_off_c, 1, 72, 0
1, 29130, Note_off_c, 1, 48, 0
1, 29130, Note_off_c, 1, 36, 0
1, 29136, Note_on_c, 1, 74, 127
1, 29136, Note_on_c, 1, 72, 127
1, 29136, Note_on_c, 1, 48, 127
1, 29136, Note_on_c, 1, 36, 127
1, 29146, Note_off_c, 1, 74, 0
1, 29158, Note_off_c, 1, 72, 0
1, 29178, Note_off_c, 1, 48, 0
1, 29178, Note_off_c, 1, 36, 0
1, 29184, Note_on_c, 1, 74, 127
1, 29184, Note_on_c, 1, 76, 127
1, 29184, Note_on_c, 1, 48, 127
1, 29184, Note_on_c, 1, 36, 127
1, 29194, Note_off_c, 1, 74, 0
1, 29196, Note_on_c, 1, 72, 127
1, 29205, Note_off_c, 1, 76, 0
1, 29206, Note_off_c, 1, 72, 0
1, 29208, Note_on_c, 1, 77, 127
1, 29226, Note_off_c, 1, 48, 0
1, 29226, Note_off_c, 1, 36, 0
1, 29229, Note_off_c, 1, 77, 0
1, 29232, Note_on_c, 1, 74, 127
1, 29232, Note_on_c, 1, 79, 127
1, 29232, Note_on_c, 1, 52, 127
1, 29232, Note_on_c, 1, 40, 127
1, 29242, Note_off_c, 1, 74, 0
1, 29244, Note_on_c, 1, 72, 127
1, 29253, Note_off_c, 1, 79, 0
1, 29253, Note_off_c, 1, 52, 0
1, 29253, Note_off_c, 1, 40, 0
1, 29254, Note_off_c, 1, 72, 0
1, 29256, Note_on_c, 1, 74, 127
1, 29256, Note_on_c, 1, 77, 127
1, 29256, Note_on_c, 1, 50, 127
1, 29256, Note_on_c, 1, 38, 127
1, 29266, Note_off_c, 1, 74, 0
1, 29268, Note_on_c, 1, 72, 127
1, 29277, Note_off_c, 1, 77, 0
1, 29277, Note_off_c, 1, 50, 0
1, 29277, Note_off_c, 1, 38, 0
1, 29278, Note_off_c, 1, 72, 0
1, 29280, Note_on_c, 1, 74, 127
1, 29280, Note_on_c, 1, 79, 127
1, 29280, Note_on_c, 1, 52, 127
1, 29280, Note_on_c, 1, 40, 127
1, 29290, Note_off_c, 1, 74, 0
1, 29292, Note_on_c, 1, 72, 127
1, 29301, Note_off_c, 1, 79, 0
1, 29301, Note_off_c, 1, 52, 0
1, 29301, Note_off_c, 1, 40, 0
1, 29302, Note_off_c, 1, 72, 0
1, 29304, Note_on_c, 1, 74, 127
1, 29304, Note_on_c, 1, 76, 127
1, 29304, Note_on_c, 1, 48, 127
1, 29304, Note_on_c, 1, 36, 127
1, 29314, Note_off_c, 1, 74, 0
1, 29316, Note_on_c, 1, 72, 127
1, 29325, Note_off_c, 1, 76, 0
1, 29325, Note_off_c, 1, 48, 0
1, 29325, Note_off_c, 1, 36, 0
1, 29326, Note_off_c, 1, 72, 0
1, 29328, Note_on_c, 1, 74, 127
1, 29328, Note_on_c, 1, 65, 127
1, 29328, Note_on_c, 1, 53, 127
1, 29328, Note_on_c, 1, 77, 127
1, 29328, Note_on_c, 1, 41, 127
1, 29328, Note_on_c, 1, 69, 127
1, 29328, Note_on_c, 1, 72, 127
1, 29338, Note_off_c, 1, 74, 0
1, 29349, Note_off_c, 1, 65, 0
1, 29352, Note_on_c, 1, 67, 127
1, 29370, Note_off_c, 1, 53, 0
1, 29370, Note_off_c, 1, 77, 0
1, 29370, Note_off_c, 1, 41, 0
1, 29370, Note_off_c, 1, 69, 0
1, 29373, Note_off_c, 1, 67, 0
1, 29374, Note_off_c, 1, 72, 0
1, 29376, Note_on_c, 1, 74, 127
1, 29376, Note_on_c, 1, 65, 127
1, 29376, Note_on_c, 1, 60, 127
1, 29376, Note_on_c, 1, 57, 127
1, 29376, Note_on_c, 1, 77, 127
1, 29376, Note_on_c, 1, 45, 127
1, 29376, Note_on_c, 1, 72, 127
1, 29386, Note_off_c, 1, 74, 0
1, 29388, Note_on_c, 1, 76, 127
1, 29398, Note_off_c, 1, 76, 0
1, 29400, Note_on_c, 1, 67, 127
1, 29418, Note_off_c, 1, 65, 0
1, 29418, Note_off_c, 1, 60, 0
1, 29418, Note_off_c, 1, 57, 0
1, 29418, Note_off_c, 1, 77, 0
1, 29418, Note_off_c, 1, 45, 0
1, 29421, Note_off_c, 1, 67, 0
1, 29422, Note_off_c, 1, 72, 0
1, 29424, Note_on_c, 1, 74, 127
1, 29424, Note_on_c, 1, 69, 127
1, 29424, Note_on_c, 1, 65, 127
1, 29424, Note_on_c, 1, 60, 127
1, 29424, Note_on_c, 1, 72, 127
1, 29424, Note_on_c, 1, 48, 127
1, 29424, Note_on_c, 1, 77, 127
1, 29424, Note_on_c, 1, 81, 127
1, 29424, Note_on_c, 1, 57, 127
1, 29434, Note_off_c, 1, 74, 0
1, 29445, Note_off_c, 1, 69, 0
1, 29448, Note_on_c, 1, 67, 127
1, 29466, Note_off_c, 1, 65, 0
1, 29466, Note_off_c, 1, 60, 0
1, 29466, Note_off_c, 1, 48, 0
1, 29466, Note_off_c, 1, 77, 0
1, 29466, Note_off_c, 1, 81, 0
1, 29466, Note_off_c, 1, 57, 0
1, 29469, Note_off_c, 1, 67, 0
1, 29470, Note_off_c, 1, 72, 0
1, 29472, Note_on_c, 1, 72, 127
1, 29472, Note_on_c, 1, 65, 127
1, 29472, Note_on_c, 1, 60, 127
1, 29472, Note_on_c, 1, 57, 127
1, 29472, Note_on_c, 1, 45, 127
1, 29472, Note_on_c, 1, 77, 127
1, 29514, Note_off_c, 1, 72, 0
1, 29514, Note_off_c, 1, 65, 0
1, 29514, Note_off_c, 1, 60, 0
1, 29514, Note_off_c, 1, 57, 0
1, 29514, Note_off_c, 1, 45, 0
1, 29514, Note_off_c, 1, 77, 0
1, 29520, Note_on_c, 1, 69, 127
1, 29520, Note_on_c, 1, 60, 127
1, 29520, Note_on_c, 1, 65, 127
1, 29520, Note_on_c, 1, 53, 127
1, 29520, Note_on_c, 1, 72, 127
1, 29520, Note_on_c, 1, 41, 127
1, 29541, Note_off_c, 1, 65, 0
1, 29544, Note_on_c, 1, 67, 127
1, 29544, Note_on_c, 1, 64, 127
1, 29544, Note_on_c, 1, 58, 127
1, 29562, Note_off_c, 1, 69, 0
1, 29562, Note_off_c, 1, 60, 0
1, 29562, Note_off_c, 1, 53, 0
1, 29562, Note_off_c, 1, 72, 0
1, 29562, Note_off_c, 1, 41, 0
1, 29565, Note_off_c, 1, 67, 0
1, 29565, Note_off_c, 1, 64, 0
1, 29565, Note_off_c, 1, 58, 0
1, 29568, Note_on_c, 1, 65, 127
1, 29568, Note_on_c, 1, 57, 127
1, 29568, Note_on_c, 1, 69, 127
1, 29568, Note_on_c, 1, 60, 127
1, 29568, Note_on_c, 1, 72, 127
1, 29589, Note_off_c, 1, 69, 0
1, 29610, Note_off_c, 1, 72, 0
1, 29613, Note_off_c, 1, 65, 0
1, 29613, Note_off_c, 1, 57, 0
1, 29613, Note_off_c, 1, 60, 0
1, 29616, Note_on_c, 1, 67, 127
1, 29616, Note_on_c, 1, 60, 127
1, 29616, Note_on_c, 1, 72, 127
1, 29616, Note_on_c, 1, 64, 127
1, 29616, Note_on_c, 1, 52, 127
1, 29616, Note_on_c, 1, 74, 127
1, 29616, Note_on_c, 1, 40, 127
1, 29626, Note_off_c, 1, 74, 0
1, 29640, Note_on_c, 1, 69, 127
1, 29658, Note_off_c, 1, 67, 0
1, 29658, Note_off_c, 1, 60, 0
1, 29658, Note_off_c, 1, 64, 0
1, 29658, Note_off_c, 1, 52, 0
1, 29658, Note_off_c, 1, 40, 0
1, 29661, Note_off_c, 1, 69, 0
1, 29662, Note_off_c, 1, 72, 0
1, 29664, Note_on_c, 1, 67, 127
1, 29664, Note_on_c, 1, 60, 127
1, 29664, Note_on_c, 1, 72, 127
1, 29664, Note_on_c, 1, 64, 127
1, 29664, Note_on_c, 1, 55, 127
1, 29664, Note_on_c, 1, 74, 127
1, 29664, Note_on_c, 1, 43, 127
1, 29664, Note_on_c, 1, 76, 127
1, 29674, Note_off_c, 1, 74, 0
1, 29685, Note_off_c, 1, 60, 0
1, 29688, Note_on_c, 1, 69, 127
1, 29706, Note_off_c, 1, 67, 0
1, 29706, Note_off_c, 1, 64, 0
1, 29706, Note_off_c, 1, 55, 0
1, 29706, Note_off_c, 1, 43, 0
1, 29706, Note_off_c, 1, 76, 0
1, 29709, Note_off_c, 1, 69, 0
1, 29710, Note_off_c, 1, 72, 0
1, 29712, Note_on_c, 1, 70, 127
1, 29712, Note_on_c, 1, 60, 127
1, 29712, Note_on_c, 1, 72, 127
1, 29712, Note_on_c, 1, 67, 127
1, 29712, Note_on_c, 1, 64, 127
1, 29712, Note_on_c, 1, 74, 127
1, 29712, Note_on_c, 1, 48, 127
1, 29712, Note_on_c, 1, 76, 127
1, 29712, Note_on_c, 1, 79, 127
1, 29722, Note_off_c, 1, 74, 0
1, 29733, Note_off_c, 1, 70, 0
1, 29736, Note_on_c, 1, 69, 127
1, 29754, Note_off_c, 1, 67, 0
1, 29754, Note_off_c, 1, 64, 0
1, 29754, Note_off_c, 1, 48, 0
1, 29754, Note_off_c, 1, 76, 0
1, 29754, Note_off_c, 1, 79, 0
1, 29757, Note_off_c, 1, 60, 0
1, 29757, Note_off_c, 1, 69, 0
1, 29760, Note_on_c, 1, 52, 127
1, 29760, Note_on_c, 1, 40, 127
1, 29802, Note_off_c, 1, 72, 0
1, 29802, Note_off_c, 1, 52, 0
1, 29802, Note_off_c, 1, 40, 0
1, 29808, Note_on_c, 1, 76, 127
1, 29808, Note_on_c, 1, 72, 127
1, 29808, Note_on_c, 1, 67, 127
1, 29808, Note_on_c, 1, 48, 127
1, 29808, Note_on_c, 1, 36, 127
1, 29808, Note_on_c, 1, 64, 127
1, 29829, Note_off_c, 1, 76, 0
1, 29829, Note_off_c, 1, 72, 0
1, 29832, Note_on_c, 1, 74, 127
1, 29832, Note_on_c, 1, 71, 127
1, 29832, Note_on_c, 1, 65, 127
1, 29832, Note_on_c, 1, 70, 127
1, 29850, Note_off_c, 1, 67, 0
1, 29850, Note_off_c, 1, 48, 0
1, 29850, Note_off_c, 1, 36, 0
1, 29850, Note_off_c, 1, 64, 0
1, 29853, Note_off_c, 1, 74, 0
1, 29853, Note_off_c, 1, 71, 0
1, 29853, Note_off_c, 1, 65, 0
1, 29853, Note_off_c, 1, 70, 0
1, 29856, Note_on_c, 1, 76, 127
1, 29856, Note_on_c, 1, 72, 127
1, 29856, Note_on_c, 1, 67, 127
1, 29856, Note_on_c, 1, 69, 127
1, 29877, Note_off_c, 1, 76, 0
1, 29877, Note_off_c, 1, 72, 0
1, 29877, Note_off_c, 1, 67, 0
1, 29877, Note_off_c, 1, 69, 0
1, 29880, Note_on_c, 1, 72, 127
1, 29880, Note_on_c, 1, 67, 127
1, 29880, Note_on_c, 1, 64, 127
1, 29901, Note_off_c, 1, 72, 0
1, 29901, Note_off_c, 1, 67, 0
1, 29901, Note_off_c, 1, 64, 0
1, 29904, Note_on_c, 1, 69, 127
1, 29904, Note_on_c, 1, 65, 127
1, 29904, Note_on_c, 1, 77, 127
1, 29904, Note_on_c, 1, 74, 127
1, 29904, Note_on_c, 1, 50, 127
1, 29904, Note_on_c, 1, 38, 127
1, 29928, Note_on_c, 1, 70, 127
1, 29928, Note_on_c, 1, 67, 127
1, 29946, Note_off_c, 1, 69, 0
1, 29946, Note_off_c, 1, 65, 0
1, 29946, Note_off_c, 1, 77, 0
1, 29946, Note_off_c, 1, 74, 0
1, 29946, Note_off_c, 1, 50, 0
1, 29946, Note_off_c, 1, 38, 0
1, 29949, Note_off_c, 1, 70, 0
1, 29949, Note_off_c, 1, 67, 0
1, 29952, Note_on_c, 1, 69, 127
1, 29952, Note_on_c, 1, 65, 127
1, 29952, Note_on_c, 1, 77, 127
1, 29952, Note_on_c, 1, 74, 127
1, 29952, Note_on_c, 1, 53, 127
1, 29952, Note_on_c, 1, 62, 127
1, 29952, Note_on_c, 1, 41, 127
1, 29973, Note_off_c, 1, 65, 0
1, 29976, Note_on_c, 1, 70, 127
1, 29976, Note_on_c, 1, 67, 127
1, 29994, Note_off_c, 1, 69, 0
1, 29994, Note_off_c, 1, 77, 0
1, 29994, Note_off_c, 1, 74, 0
1, 29994, Note_off_c, 1, 53, 0
1, 29994, Note_off_c, 1, 62, 0
1, 29994, Note_off_c, 1, 41, 0
1, 29997, Note_off_c, 1, 70, 0
1, 29997, Note_off_c, 1, 67, 0
1, 30000, Note_on_c, 1, 72, 127
1, 30000, Note_on_c, 1, 69, 127
1, 30000, Note_on_c, 1, 77, 127
1, 30000, Note_on_c, 1, 74, 127
1, 30000, Note_on_c, 1, 50, 127
1, 30000, Note_on_c, 1, 62, 127
1, 30000, Note_on_c, 1, 38, 127
1, 30021, Note_off_c, 1, 72, 0
1, 30024, Note_on_c, 1, 70, 127
1, 30024, Note_on_c, 1, 67, 127
1, 30042, Note_off_c, 1, 69, 0
1, 30042, Note_off_c, 1, 77, 0
1, 30042, Note_off_c, 1, 74, 0
1, 30042, Note_off_c, 1, 50, 0
1, 30042, Note_off_c, 1, 62, 0
1, 30042, Note_off_c, 1, 38, 0
1, 30045, Note_off_c, 1, 70, 0
1, 30045, Note_off_c, 1, 67, 0
1, 30048, Note_on_c, 1, 69, 127
1, 30048, Note_on_c, 1, 65, 127
1, 30048, Note_on_c, 1, 77, 127
1, 30048, Note_on_c, 1, 72, 127
1, 30048, Note_on_c, 1, 45, 127
1, 30048, Note_on_c, 1, 60, 127
1, 30048, Note_on_c, 1, 33, 127
1, 30072, Note_on_c, 1, 70, 127
1, 30072, Note_on_c, 1, 67, 127
1, 30090, Note_off_c, 1, 69, 0
1, 30090, Note_off_c, 1, 65, 0
1, 30090, Note_off_c, 1, 77, 0
1, 30090, Note_off_c, 1, 72, 0
1, 30090, Note_off_c, 1, 45, 0
1, 30090, Note_off_c, 1, 60, 0
1, 30090, Note_off_c, 1, 33, 0
1, 30093, Note_off_c, 1, 70, 0
1, 30093, Note_off_c, 1, 67, 0
1, 30096, Note_on_c, 1, 69, 127
1, 30096, Note_on_c, 1, 65, 127
1, 30096, Note_on_c, 1, 79, 127
1, 30096, Note_on_c, 1, 76, 127
1, 30096, Note_on_c, 1, 60, 127
1, 30096, Note_on_c, 1, 41, 127
1, 30096, Note_on_c, 1, 29, 127
1, 30117, Note_off_c, 1, 65, 0
1, 30117, Note_off_c, 1, 79, 0
1, 30117, Note_off_c, 1, 76, 0
1, 30120, Note_on_c, 1, 70, 127
1, 30120, Note_on_c, 1, 67, 127
1, 30120, Note_on_c, 1, 77, 127
1, 30120, Note_on_c, 1, 74, 127
1, 30138, Note_off_c, 1, 69, 0
1, 30138, Note_off_c, 1, 60, 0
1, 30138, Note_off_c, 1, 41, 0
1, 30138, Note_off_c, 1, 29, 0
1, 30141, Note_off_c, 1, 70, 0
1, 30141, Note_off_c, 1, 67, 0
1, 30141, Note_off_c, 1, 77, 0
1, 30141, Note_off_c, 1, 74, 0
1, 30144, Note_on_c, 1, 72, 127
1, 30144, Note_on_c, 1, 69, 127
1, 30144, Note_on_c, 1, 76, 127
1, 30144, Note_on_c, 1, 65, 127
1, 30165, Note_off_c, 1, 76, 0
1, 30168, Note_on_c, 1, 74, 127
1, 30168, Note_on_c, 1, 71, 127
1, 30186, Note_off_c, 1, 72, 0
1, 30186, Note_off_c, 1, 69, 0
1, 30186, Note_off_c, 1, 65, 0
1, 30189, Note_off_c, 1, 74, 0
1, 30189, Note_off_c, 1, 71, 0
1, 30192, Note_on_c, 1, 67, 127
1, 30192, Note_on_c, 1, 60, 127
1, 30192, Note_on_c, 1, 76, 127
1, 30192, Note_on_c, 1, 72, 127
1, 30192, Note_on_c, 1, 48, 127
1, 30192, Note_on_c, 1, 36, 127
1, 30213, Note_off_c, 1, 72, 0
1, 30216, Note_on_c, 1, 77, 127
1, 30216, Note_on_c, 1, 74, 127
1, 30234, Note_off_c, 1, 67, 0
1, 30234, Note_off_c, 1, 60, 0
1, 30234, Note_off_c, 1, 76, 0
1, 30234, Note_off_c, 1, 48, 0
1, 30234, Note_off_c, 1, 36, 0
1, 30237, Note_off_c, 1, 77, 0
1, 30237, Note_off_c, 1, 74, 0
1, 30240, Note_on_c, 1, 67, 127
1, 30240, Note_on_c, 1, 60, 127
1, 30240, Note_on_c, 1, 79, 127
1, 30240, Note_on_c, 1, 76, 127
1, 30240, Note_on_c, 1, 48, 127
1, 30240, Note_on_c, 1, 72, 127
1, 30240, Note_on_c, 1, 36, 127
1, 30250, Note_off_c, 1, 79, 0
1, 30252, Note_on_c, 1, 77, 127
1, 30252, Note_on_c, 1, 74, 127
1, 30261, Note_off_c, 1, 60, 0
1, 30262, Note_off_c, 1, 77, 0
1, 30262, Note_off_c, 1, 74, 0
1, 30282, Note_off_c, 1, 76, 0
1, 30282, Note_off_c, 1, 48, 0
1, 30282, Note_off_c, 1, 72, 0
1, 30282, Note_off_c, 1, 36, 0
1, 30285, Note_off_c, 1, 67, 0
1, 30288, Note_on_c, 1, 67, 127
1, 30288, Note_on_c, 1, 60, 127
1, 30288, Note_on_c, 1, 79, 127
1, 30288, Note_on_c, 1, 76, 127
1, 30288, Note_on_c, 1, 71, 127
1, 30288, Note_on_c, 1, 48, 127
1, 30288, Note_on_c, 1, 36, 127
1, 30288, Note_on_c, 1, 74, 127
1, 30298, Note_off_c, 1, 79, 0
1, 30298, Note_off_c, 1, 76, 0
1, 30300, Note_on_c, 1, 77, 127
1, 30309, Note_off_c, 1, 60, 0
1, 30310, Note_off_c, 1, 77, 0
1, 30312, Note_on_c, 1, 72, 127
1, 30322, Note_off_c, 1, 72, 0
1, 30330, Note_off_c, 1, 71, 0
1, 30330, Note_off_c, 1, 48, 0
1, 30330, Note_off_c, 1, 36, 0
1, 30334, Note_off_c, 1, 74, 0
1, 30360, Note_on_c, 1, 69, 127
1, 30360, Note_on_c, 1, 50, 127
1, 30360, Note_on_c, 1, 38, 127
1, 30381, Note_off_c, 1, 69, 0
1, 30381, Note_off_c, 1, 50, 0
1, 30381, Note_off_c, 1, 38, 0
1, 30384, Note_on_c, 1, 70, 127
1, 30384, Note_on_c, 1, 52, 127
1, 30384, Note_on_c, 1, 40, 127
1, 30394, Note_off_c, 1, 70, 0
1, 30405, Note_off_c, 1, 52, 0
1, 30405, Note_off_c, 1, 40, 0
1, 30420, Note_off_c, 1, 67, 0
1, 30432, Note_on_c, 1, 70, 127
1, 30432, Note_on_c, 1, 52, 127
1, 30432, Note_on_c, 1, 40, 127
1, 30442, Note_off_c, 1, 70, 0
1, 30444, Note_on_c, 1, 69, 127
1, 30453, Note_off_c, 1, 52, 0
1, 30453, Note_off_c, 1, 40, 0
1, 30454, Note_off_c, 1, 69, 0
1, 30456, Note_on_c, 1, 67, 127
1, 30456, Note_on_c, 1, 48, 127
1, 30456, Note_on_c, 1, 36, 127
1, 30466, Note_off_c, 1, 67, 0
1, 30468, Note_on_c, 1, 69, 127
1, 30477, Note_off_c, 1, 48, 0
1, 30477, Note_off_c, 1, 36, 0
1, 30478, Note_off_c, 1, 69, 0
1, 30480, Note_on_c, 1, 70, 127
1, 30480, Note_on_c, 1, 55, 127
1, 30480, Note_on_c, 1, 43, 127
1, 30501, Note_off_c, 1, 70, 0
1, 30501, Note_off_c, 1, 55, 0
1, 30501, Note_off_c, 1, 43, 0
1, 30504, Note_on_c, 1, 69, 127
1, 30504, Note_on_c, 1, 57, 127
1, 30504, Note_on_c, 1, 45, 127
1, 30525, Note_off_c, 1, 69, 0
1, 30525, Note_off_c, 1, 57, 0
1, 30525, Note_off_c, 1, 45, 0
1, 30528, Note_on_c, 1, 67, 127
1, 30528, Note_on_c, 1, 58, 127
1, 30528, Note_on_c, 1, 46, 127
1, 30549, Note_off_c, 1, 67, 0
1, 30549, Note_off_c, 1, 58, 0
1, 30549, Note_off_c, 1, 46, 0
1, 30552, Note_on_c, 1, 65, 127
1, 30552, Note_on_c, 1, 57, 127
1, 30552, Note_on_c, 1, 45, 127
1, 30573, Note_off_c, 1, 65, 0
1, 30573, Note_off_c, 1, 57, 0
1, 30573, Note_off_c, 1, 45, 0
1, 30576, Note_on_c, 1, 67, 127
1, 30576, Note_on_c, 1, 58, 127
1, 30576, Note_on_c, 1, 46, 127
1, 30597, Note_off_c, 1, 67, 0
1, 30597, Note_off_c, 1, 58, 0
1, 30597, Note_off_c, 1, 46, 0
1, 30600, Note_on_c, 1, 64, 127
1, 30600, Note_on_c, 1, 55, 127
1, 30600, Note_on_c, 1, 43, 127
1, 30621, Note_off_c, 1, 64, 0
1, 30621, Note_off_c, 1, 55, 0
1, 30621, Note_off_c, 1, 43, 0
1, 30624, Note_on_c, 1, 72, 127
1, 30624, Note_on_c, 1, 57, 127
1, 30624, Note_on_c, 1, 45, 127
1, 30645, Note_off_c, 1, 72, 0
1, 30645, Note_off_c, 1, 57, 0
1, 30645, Note_off_c, 1, 45, 0
1, 30648, Note_on_c, 1, 67, 127
1, 30648, Note_on_c, 1, 58, 127
1, 30648, Note_on_c, 1, 46, 127
1, 30669, Note_off_c, 1, 67, 0
1, 30669, Note_off_c, 1, 58, 0
1, 30669, Note_off_c, 1, 46, 0
1, 30672, Note_on_c, 1, 69, 127
1, 30672, Note_on_c, 1, 60, 127
1, 30672, Note_on_c, 1, 48, 127
1, 30693, Note_off_c, 1, 69, 0
1, 30693, Note_off_c, 1, 60, 0
1, 30693, Note_off_c, 1, 48, 0
1, 30696, Note_on_c, 1, 64, 127
1, 30696, Note_on_c, 1, 57, 127
1, 30696, Note_on_c, 1, 45, 127
1, 30717, Note_off_c, 1, 64, 0
1, 30717, Note_off_c, 1, 57, 0
1, 30717, Note_off_c, 1, 45, 0
1, 30720, Note_on_c, 1, 65, 127
1, 30720, Note_on_c, 1, 62, 127
1, 30720, Note_on_c, 1, 50, 127
1, 30741, Note_off_c, 1, 65, 0
1, 30741, Note_off_c, 1, 62, 0
1, 30741, Note_off_c, 1, 50, 0
1, 30744, Note_on_c, 1, 64, 127
1, 30744, Note_on_c, 1, 60, 127
1, 30744, Note_on_c, 1, 48, 127
1, 30765, Note_off_c, 1, 64, 0
1, 30765, Note_off_c, 1, 60, 0
1, 30765, Note_off_c, 1, 48, 0
1, 30768, Note_on_c, 1, 65, 127
1, 30768, Note_on_c, 1, 62, 127
1, 30768, Note_on_c, 1, 50, 127
1, 30789, Note_off_c, 1, 65, 0
1, 30789, Note_off_c, 1, 62, 0
1, 30789, Note_off_c, 1, 50, 0
1, 30792, Note_on_c, 1, 70, 127
1, 30792, Note_on_c, 1, 58, 127
1, 30792, Note_on_c, 1, 46, 127
1, 30813, Note_off_c, 1, 70, 0
1, 30813, Note_off_c, 1, 58, 0
1, 30813, Note_off_c, 1, 46, 0
1, 30816, Note_on_c, 1, 67, 127
1, 30816, Note_on_c, 1, 60, 127
1, 30816, Note_on_c, 1, 48, 127
1, 30858, Note_off_c, 1, 48, 0
1, 30864, Note_on_c, 1, 36, 127
1, 30879, Note_off_c, 1, 67, 0
1, 30888, Note_on_c, 1, 65, 127
1, 30900, Note_off_c, 1, 60, 0
1, 30906, Note_off_c, 1, 36, 0
1, 30909, Note_off_c, 1, 65, 0
1, 30912, Note_on_c, 1, 65, 127
1, 30912, Note_on_c, 1, 57, 127
1, 30912, Note_on_c, 1, 53, 127
1, 30912, Note_on_c, 1, 41, 127
1, 30912, Note_on_c, 1, 69, 127
1, 30912, Note_on_c, 1, 72, 127
1, 30936, Note_on_c, 1, 67, 127
1, 30954, Note_off_c, 1, 65, 0
1, 30954, Note_off_c, 1, 57, 0
1, 30954, Note_off_c, 1, 53, 0
1, 30954, Note_off_c, 1, 41, 0
1, 30954, Note_off_c, 1, 69, 0
1, 30954, Note_off_c, 1, 72, 0
1, 30957, Note_off_c, 1, 67, 0
1, 30960, Note_on_c, 1, 65, 127
1, 30960, Note_on_c, 1, 57, 127
1, 30960, Note_on_c, 1, 60, 127
1, 30960, Note_on_c, 1, 45, 127
1, 30960, Note_on_c, 1, 72, 127
1, 30960, Note_on_c, 1, 77, 127
1, 30984, Note_on_c, 1, 67, 127
1, 31002, Note_off_c, 1, 65, 0
1, 31002, Note_off_c, 1, 60, 0
1, 31002, Note_off_c, 1, 45, 0
1, 31002, Note_off_c, 1, 72, 0
1, 31002, Note_off_c, 1, 77, 0
1, 31005, Note_off_c, 1, 57, 0
1, 31005, Note_off_c, 1, 67, 0
1, 31008, Note_on_c, 1, 69, 127
1, 31008, Note_on_c, 1, 57, 127
1, 31008, Note_on_c, 1, 65, 127
1, 31008, Note_on_c, 1, 60, 127
1, 31008, Note_on_c, 1, 48, 127
1, 31008, Note_on_c, 1, 77, 127
1, 31008, Note_on_c, 1, 81, 127
1, 31029, Note_off_c, 1, 69, 0
1, 31032, Note_on_c, 1, 67, 127
1, 31050, Note_off_c, 1, 65, 0
1, 31050, Note_off_c, 1, 60, 0
1, 31050, Note_off_c, 1, 48, 0
1, 31050, Note_off_c, 1, 77, 0
1, 31050, Note_off_c, 1, 81, 0
1, 31053, Note_off_c, 1, 57, 0
1, 31053, Note_off_c, 1, 67, 0
1, 31056, Note_on_c, 1, 65, 127
1, 31056, Note_on_c, 1, 57, 127
1, 31056, Note_on_c, 1, 60, 127
1, 31056, Note_on_c, 1, 45, 127
1, 31056, Note_on_c, 1, 72, 127
1, 31056, Note_on_c, 1, 77, 127
1, 31098, Note_off_c, 1, 65, 0
1, 31098, Note_off_c, 1, 57, 0
1, 31098, Note_off_c, 1, 60, 0
1, 31098, Note_off_c, 1, 45, 0
1, 31098, Note_off_c, 1, 72, 0
1, 31098, Note_off_c, 1, 77, 0
1, 31104, Note_on_c, 1, 69, 127
1, 31104, Note_on_c, 1, 65, 127
1, 31104, Note_on_c, 1, 60, 127
1, 31104, Note_on_c, 1, 53, 127
1, 31104, Note_on_c, 1, 41, 127
1, 31104, Note_on_c, 1, 72, 127
1, 31125, Note_off_c, 1, 65, 0
1, 31128, Note_on_c, 1, 67, 127
1, 31128, Note_on_c, 1, 64, 127
1, 31128, Note_on_c, 1, 58, 127
1, 31146, Note_off_c, 1, 69, 0
1, 31146, Note_off_c, 1, 60, 0
1, 31146, Note_off_c, 1, 53, 0
1, 31146, Note_off_c, 1, 41, 0
1, 31146, Note_off_c, 1, 72, 0
1, 31149, Note_off_c, 1, 67, 0
1, 31149, Note_off_c, 1, 64, 0
1, 31149, Note_off_c, 1, 58, 0
1, 31152, Note_on_c, 1, 69, 127
1, 31152, Note_on_c, 1, 65, 127
1, 31152, Note_on_c, 1, 60, 127
1, 31173, Note_off_c, 1, 69, 0
1, 31173, Note_off_c, 1, 65, 0
1, 31176, Note_on_c, 1, 57, 127
1, 31197, Note_off_c, 1, 60, 0
1, 31197, Note_off_c, 1, 57, 0
1, 31200, Note_on_c, 1, 67, 127
1, 31200, Note_on_c, 1, 60, 127
1, 31200, Note_on_c, 1, 72, 127
1, 31200, Note_on_c, 1, 64, 127
1, 31200, Note_on_c, 1, 52, 127
1, 31200, Note_on_c, 1, 40, 127
1, 31224, Note_on_c, 1, 69, 127
1, 31242, Note_off_c, 1, 67, 0
1, 31242, Note_off_c, 1, 60, 0
1, 31242, Note_off_c, 1, 72, 0
1, 31242, Note_off_c, 1, 64, 0
1, 31242, Note_off_c, 1, 52, 0
1, 31242, Note_off_c, 1, 40, 0
1, 31245, Note_off_c, 1, 69, 0
1, 31248, Note_on_c, 1, 67, 127
1, 31248, Note_on_c, 1, 60, 127
1, 31248, Note_on_c, 1, 72, 127
1, 31248, Note_on_c, 1, 64, 127
1, 31248, Note_on_c, 1, 55, 127
1, 31248, Note_on_c, 1, 43, 127
1, 31248, Note_on_c, 1, 76, 127
1, 31269, Note_off_c, 1, 60, 0
1, 31272, Note_on_c, 1, 69, 127
1, 31290, Note_off_c, 1, 67, 0
1, 31290, Note_off_c, 1, 72, 0
1, 31290, Note_off_c, 1, 64, 0
1, 31290, Note_off_c, 1, 55, 0
1, 31290, Note_off_c, 1, 43, 0
1, 31290, Note_off_c, 1, 76, 0
1, 31293, Note_off_c, 1, 69, 0
1, 31296, Note_on_c, 1, 70, 127
1, 31296, Note_on_c, 1, 60, 127
1, 31296, Note_on_c, 1, 72, 127
1, 31296, Note_on_c, 1, 67, 127
1, 31296, Note_on_c, 1, 64, 127
1, 31296, Note_on_c, 1, 48, 127
1, 31296, Note_on_c, 1, 76, 127
1, 31296, Note_on_c, 1, 79, 127
1, 31317, Note_off_c, 1, 70, 0
1, 31320, Note_on_c, 1, 69, 127
1, 31338, Note_off_c, 1, 72, 0
1, 31338, Note_off_c, 1, 67, 0
1, 31338, Note_off_c, 1, 64, 0
1, 31338, Note_off_c, 1, 48, 0
1, 31338, Note_off_c, 1, 76, 0
1, 31338, Note_off_c, 1, 79, 0
1, 31341, Note_off_c, 1, 60, 0
1, 31341, Note_off_c, 1, 69, 0
1, 31344, Note_on_c, 1, 67, 127
1, 31344, Note_on_c, 1, 60, 127
1, 31344, Note_on_c, 1, 72, 127
1, 31344, Note_on_c, 1, 64, 127
1, 31344, Note_on_c, 1, 52, 127
1, 31344, Note_on_c, 1, 40, 127
1, 31386, Note_off_c, 1, 67, 0
1, 31386, Note_off_c, 1, 60, 0
1, 31386, Note_off_c, 1, 72, 0
1, 31386, Note_off_c, 1, 64, 0
1, 31386, Note_off_c, 1, 52, 0
1, 31386, Note_off_c, 1, 40, 0
1, 31392, Note_on_c, 1, 76, 127
1, 31392, Note_on_c, 1, 72, 127
1, 31392, Note_on_c, 1, 67, 127
1, 31392, Note_on_c, 1, 48, 127
1, 31392, Note_on_c, 1, 36, 127
1, 31392, Note_on_c, 1, 64, 127
1, 31413, Note_off_c, 1, 76, 0
1, 31413, Note_off_c, 1, 72, 0
1, 31416, Note_on_c, 1, 74, 127
1, 31416, Note_on_c, 1, 71, 127
1, 31416, Note_on_c, 1, 65, 127
1, 31434, Note_off_c, 1, 67, 0
1, 31434, Note_off_c, 1, 48, 0
1, 31434, Note_off_c, 1, 36, 0
1, 31434, Note_off_c, 1, 64, 0
1, 31437, Note_off_c, 1, 74, 0
1, 31437, Note_off_c, 1, 71, 0
1, 31437, Note_off_c, 1, 65, 0
1, 31440, Note_on_c, 1, 76, 127
1, 31440, Note_on_c, 1, 72, 127
1, 31440, Note_on_c, 1, 67, 127
1, 31461, Note_off_c, 1, 76, 0
1, 31461, Note_off_c, 1, 72, 0
1, 31461, Note_off_c, 1, 67, 0
1, 31464, Note_on_c, 1, 72, 127
1, 31464, Note_on_c, 1, 67, 127
1, 31464, Note_on_c, 1, 64, 127
1, 31485, Note_off_c, 1, 72, 0
1, 31485, Note_off_c, 1, 67, 0
1, 31485, Note_off_c, 1, 64, 0
1, 31488, Note_on_c, 1, 69, 127
1, 31488, Note_on_c, 1, 65, 127
1, 31488, Note_on_c, 1, 77, 127
1, 31488, Note_on_c, 1, 74, 127
1, 31488, Note_on_c, 1, 50, 127
1, 31488, Note_on_c, 1, 38, 127
1, 31509, Note_off_c, 1, 65, 0
1, 31512, Note_on_c, 1, 70, 127
1, 31512, Note_on_c, 1, 67, 127
1, 31530, Note_off_c, 1, 69, 0
1, 31530, Note_off_c, 1, 77, 0
1, 31530, Note_off_c, 1, 74, 0
1, 31530, Note_off_c, 1, 50, 0
1, 31530, Note_off_c, 1, 38, 0
1, 31533, Note_off_c, 1, 70, 0
1, 31533, Note_off_c, 1, 67, 0
1, 31536, Note_on_c, 1, 69, 127
1, 31536, Note_on_c, 1, 65, 127
1, 31536, Note_on_c, 1, 77, 127
1, 31536, Note_on_c, 1, 74, 127
1, 31536, Note_on_c, 1, 53, 127
1, 31536, Note_on_c, 1, 41, 127
1, 31557, Note_off_c, 1, 65, 0
1, 31560, Note_on_c, 1, 70, 127
1, 31560, Note_on_c, 1, 67, 127
1, 31578, Note_off_c, 1, 69, 0
1, 31578, Note_off_c, 1, 77, 0
1, 31578, Note_off_c, 1, 74, 0
1, 31578, Note_off_c, 1, 53, 0
1, 31578, Note_off_c, 1, 41, 0
1, 31581, Note_off_c, 1, 70, 0
1, 31581, Note_off_c, 1, 67, 0
1, 31584, Note_on_c, 1, 72, 127
1, 31584, Note_on_c, 1, 69, 127
1, 31584, Note_on_c, 1, 77, 127
1, 31584, Note_on_c, 1, 74, 127
1, 31584, Note_on_c, 1, 50, 127
1, 31584, Note_on_c, 1, 38, 127
1, 31605, Note_off_c, 1, 72, 0
1, 31608, Note_on_c, 1, 70, 127
1, 31608, Note_on_c, 1, 67, 127
1, 31626, Note_off_c, 1, 69, 0
1, 31626, Note_off_c, 1, 77, 0
1, 31626, Note_off_c, 1, 74, 0
1, 31626, Note_off_c, 1, 50, 0
1, 31626, Note_off_c, 1, 38, 0
1, 31629, Note_off_c, 1, 70, 0
1, 31629, Note_off_c, 1, 67, 0
1, 31632, Note_on_c, 1, 69, 127
1, 31632, Note_on_c, 1, 65, 127
1, 31632, Note_on_c, 1, 77, 127
1, 31632, Note_on_c, 1, 72, 127
1, 31632, Note_on_c, 1, 45, 127
1, 31632, Note_on_c, 1, 33, 127
1, 31656, Note_on_c, 1, 70, 127
1, 31656, Note_on_c, 1, 67, 127
1, 31674, Note_off_c, 1, 69, 0
1, 31674, Note_off_c, 1, 65, 0
1, 31674, Note_off_c, 1, 77, 0
1, 31674, Note_off_c, 1, 72, 0
1, 31674, Note_off_c, 1, 45, 0
1, 31674, Note_off_c, 1, 33, 0
1, 31677, Note_off_c, 1, 70, 0
1, 31677, Note_off_c, 1, 67, 0
1, 31680, Note_on_c, 1, 69, 127
1, 31680, Note_on_c, 1, 65, 127
1, 31680, Note_on_c, 1, 79, 127
1, 31680, Note_on_c, 1, 76, 127
1, 31680, Note_on_c, 1, 60, 127
1, 31680, Note_on_c, 1, 41, 127
1, 31680, Note_on_c, 1, 29, 127
1, 31701, Note_off_c, 1, 65, 0
1, 31701, Note_off_c, 1, 79, 0
1, 31701, Note_off_c, 1, 76, 0
1, 31704, Note_on_c, 1, 70, 127
1, 31704, Note_on_c, 1, 67, 127
1, 31704, Note_on_c, 1, 77, 127
1, 31704, Note_on_c, 1, 74, 127
1, 31722, Note_off_c, 1, 69, 0
1, 31722, Note_off_c, 1, 60, 0
1, 31722, Note_off_c, 1, 41, 0
1, 31722, Note_off_c, 1, 29, 0
1, 31725, Note_off_c, 1, 70, 0
1, 31725, Note_off_c, 1, 67, 0
1, 31725, Note_off_c, 1, 77, 0
1, 31725, Note_off_c, 1, 74, 0
1, 31728, Note_on_c, 1, 72, 127
1, 31728, Note_on_c, 1, 69, 127
1, 31728, Note_on_c, 1, 76, 127
1, 31728, Note_on_c, 1, 65, 127
1, 31749, Note_off_c, 1, 76, 0
1, 31752, Note_on_c, 1, 74, 127
1, 31752, Note_on_c, 1, 71, 127
1, 31770, Note_off_c, 1, 72, 0
1, 31770, Note_off_c, 1, 69, 0
1, 31770, Note_off_c, 1, 65, 0
1, 31773, Note_off_c, 1, 74, 0
1, 31773, Note_off_c, 1, 71, 0
1, 31776, Note_on_c, 1, 67, 127
1, 31776, Note_on_c, 1, 60, 127
1, 31776, Note_on_c, 1, 76, 127
1, 31776, Note_on_c, 1, 72, 127
1, 31776, Note_on_c, 1, 48, 127
1, 31776, Note_on_c, 1, 36, 127
1, 31797, Note_off_c, 1, 72, 0
1, 31800, Note_on_c, 1, 77, 127
1, 31800, Note_on_c, 1, 74, 127
1, 31818, Note_off_c, 1, 67, 0
1, 31818, Note_off_c, 1, 60, 0
1, 31818, Note_off_c, 1, 76, 0
1, 31818, Note_off_c, 1, 48, 0
1, 31818, Note_off_c, 1, 36, 0
1, 31821, Note_off_c, 1, 77, 0
1, 31821, Note_off_c, 1, 74, 0
1, 31824, Note_on_c, 1, 67, 127
1, 31824, Note_on_c, 1, 60, 127
1, 31824, Note_on_c, 1, 79, 127
1, 31824, Note_on_c, 1, 76, 127
1, 31824, Note_on_c, 1, 48, 127
1, 31824, Note_on_c, 1, 36, 127
1, 31824, Note_on_c, 1, 69, 127
1, 31824, Note_on_c, 1, 74, 127
1, 31834, Note_off_c, 1, 79, 0
1, 31834, Note_off_c, 1, 76, 0
1, 31836, Note_on_c, 1, 77, 127
1, 31845, Note_off_c, 1, 67, 0
1, 31846, Note_off_c, 1, 77, 0
1, 31866, Note_off_c, 1, 48, 0
1, 31866, Note_off_c, 1, 36, 0
1, 31866, Note_off_c, 1, 69, 0
1, 31869, Note_off_c, 1, 60, 0
1, 31870, Note_off_c, 1, 74, 0
1, 31872, Note_on_c, 1, 67, 127
1, 31872, Note_on_c, 1, 60, 127
1, 31872, Note_on_c, 1, 79, 127
1, 31872, Note_on_c, 1, 76, 127
1, 31872, Note_on_c, 1, 48, 127
1, 31872, Note_on_c, 1, 36, 127
1, 31882, Note_off_c, 1, 79, 0
1, 31884, Note_on_c, 1, 77, 127
1, 31884, Note_on_c, 1, 74, 127
1, 31893, Note_off_c, 1, 60, 0
1, 31894, Note_off_c, 1, 77, 0
1, 31894, Note_off_c, 1, 74, 0
1, 31896, Note_on_c, 1, 72, 127
1, 31906, Note_off_c, 1, 72, 0
1, 31914, Note_off_c, 1, 76, 0
1, 31914, Note_off_c, 1, 48, 0
1, 31914, Note_off_c, 1, 36, 0
1, 31917, Note_off_c, 1, 67, 0
1, 31920, Note_on_c, 1, 67, 127
1, 31920, Note_on_c, 1, 60, 127
1, 31920, Note_on_c, 1, 79, 127
1, 31920, Note_on_c, 1, 76, 127
1, 31920, Note_on_c, 1, 72, 127
1, 31920, Note_on_c, 1, 48, 127
1, 31920, Note_on_c, 1, 36, 127
1, 31962, Note_off_c, 1, 67, 0
1, 31962, Note_off_c, 1, 60, 0
1, 31962, Note_off_c, 1, 79, 0
1, 31962, Note_off_c, 1, 48, 0
1, 31962, Note_off_c, 1, 36, 0
1, 31968, Note_on_c, 1, 52, 127
1, 31968, Note_on_c, 1, 40, 127
1, 31989, Note_off_c, 1, 52, 0
1, 31989, Note_off_c, 1, 40, 0
1, 31992, Note_on_c, 1, 50, 127
1, 31992, Note_on_c, 1, 38, 127
1, 32004, Note_off_c, 1, 76, 0
1, 32010, Note_off_c, 1, 72, 0
1, 32013, Note_off_c, 1, 50, 0
1, 32013, Note_off_c, 1, 38, 0
1, 32016, Note_on_c, 1, 79, 127
1, 32016, Note_on_c, 1, 72, 127
1, 32016, Note_on_c, 1, 67, 127
1, 32016, Note_on_c, 1, 52, 127
1, 32016, Note_on_c, 1, 40, 127
1, 32037, Note_off_c, 1, 52, 0
1, 32037, Note_off_c, 1, 40, 0
1, 32040, Note_on_c, 1, 48, 127
1, 32040, Note_on_c, 1, 36, 127
1, 32058, Note_off_c, 1, 79, 0
1, 32058, Note_off_c, 1, 72, 0
1, 32058, Note_off_c, 1, 67, 0
1, 32061, Note_off_c, 1, 48, 0
1, 32061, Note_off_c, 1, 36, 0
1, 32064, Note_on_c, 1, 81, 127
1, 32064, Note_on_c, 1, 72, 127
1, 32064, Note_on_c, 1, 65, 127
1, 32064, Note_on_c, 1, 53, 127
1, 32064, Note_on_c, 1, 41, 127
1, 32064, Note_on_c, 1, 69, 127
1, 32064, Note_on_c, 1, 74, 127
1, 32085, Note_off_c, 1, 81, 0
1, 32088, Note_on_c, 1, 79, 127
1, 32106, Note_off_c, 1, 72, 0
1, 32106, Note_off_c, 1, 65, 0
1, 32106, Note_off_c, 1, 53, 0
1, 32106, Note_off_c, 1, 41, 0
1, 32106, Note_off_c, 1, 69, 0
1, 32106, Note_off_c, 1, 74, 0
1, 32109, Note_off_c, 1, 79, 0
1, 32112, Note_on_c, 1, 77, 127
1, 32112, Note_on_c, 1, 57, 127
1, 32112, Note_on_c, 1, 45, 127
1, 32112, Note_on_c, 1, 65, 127
1, 32112, Note_on_c, 1, 74, 127
1, 32133, Note_off_c, 1, 77, 0
1, 32136, Note_on_c, 1, 76, 127
1, 32154, Note_off_c, 1, 57, 0
1, 32154, Note_off_c, 1, 45, 0
1, 32154, Note_off_c, 1, 65, 0
1, 32154, Note_off_c, 1, 74, 0
1, 32157, Note_off_c, 1, 76, 0
1, 32160, Note_on_c, 1, 77, 127
1, 32160, Note_on_c, 1, 62, 127
1, 32160, Note_on_c, 1, 50, 127
1, 32160, Note_on_c, 1, 69, 127
1, 32184, Note_on_c, 1, 74, 127
1, 32202, Note_off_c, 1, 77, 0
1, 32202, Note_off_c, 1, 62, 0
1, 32202, Note_off_c, 1, 50, 0
1, 32202, Note_off_c, 1, 69, 0
1, 32205, Note_off_c, 1, 74, 0
1, 32208, Note_on_c, 1, 79, 127
1, 32208, Note_on_c, 1, 72, 127
1, 32208, Note_on_c, 1, 67, 127
1, 32208, Note_on_c, 1, 52, 127
1, 32208, Note_on_c, 1, 40, 127
1, 32250, Note_off_c, 1, 79, 0
1, 32250, Note_off_c, 1, 72, 0
1, 32250, Note_off_c, 1, 52, 0
1, 32250, Note_off_c, 1, 40, 0
1, 32253, Note_off_c, 1, 67, 0
1, 32256, Note_on_c, 1, 72, 127
1, 32256, Note_on_c, 1, 55, 127
1, 32256, Note_on_c, 1, 43, 127
1, 32256, Note_on_c, 1, 76, 127
1, 32280, Note_on_c, 1, 74, 127
1, 32298, Note_off_c, 1, 72, 0
1, 32298, Note_off_c, 1, 55, 0
1, 32298, Note_off_c, 1, 43, 0
1, 32298, Note_off_c, 1, 76, 0
1, 32301, Note_off_c, 1, 74, 0
1, 32304, Note_on_c, 1, 76, 127
1, 32304, Note_on_c, 1, 60, 127
1, 32304, Note_on_c, 1, 48, 127
1, 32304, Note_on_c, 1, 67, 127
1, 32328, Note_on_c, 1, 72, 127
1, 32346, Note_off_c, 1, 76, 0
1, 32346, Note_off_c, 1, 60, 0
1, 32346, Note_off_c, 1, 48, 0
1, 32346, Note_off_c, 1, 67, 0
1, 32349, Note_off_c, 1, 72, 0
1, 32352, Note_on_c, 1, 77, 127
1, 32352, Note_on_c, 1, 74, 127
1, 32352, Note_on_c, 1, 69, 127
1, 32352, Note_on_c, 1, 50, 127
1, 32352, Note_on_c, 1, 38, 127
1, 32352, Note_on_c, 1, 70, 127
1, 32376, Note_on_c, 1, 76, 127
1, 32394, Note_off_c, 1, 77, 0
1, 32394, Note_off_c, 1, 74, 0
1, 32394, Note_off_c, 1, 69, 0
1, 32394, Note_off_c, 1, 50, 0
1, 32394, Note_off_c, 1, 38, 0
1, 32394, Note_off_c, 1, 70, 0
1, 32397, Note_off_c, 1, 76, 0
1, 32400, Note_on_c, 1, 74, 127
1, 32400, Note_on_c, 1, 53, 127
1, 32400, Note_on_c, 1, 41, 127
1, 32400, Note_on_c, 1, 62, 127
1, 32400, Note_on_c, 1, 70, 127
1, 32421, Note_off_c, 1, 74, 0
1, 32424, Note_on_c, 1, 72, 127
1, 32442, Note_off_c, 1, 53, 0
1, 32442, Note_off_c, 1, 41, 0
1, 32442, Note_off_c, 1, 62, 0
1, 32442, Note_off_c, 1, 70, 0
1, 32445, Note_off_c, 1, 72, 0
1, 32448, Note_on_c, 1, 74, 127
1, 32448, Note_on_c, 1, 58, 127
1, 32448, Note_on_c, 1, 46, 127
1, 32448, Note_on_c, 1, 65, 127
1, 32472, Note_on_c, 1, 70, 127
1, 32490, Note_off_c, 1, 74, 0
1, 32490, Note_off_c, 1, 58, 0
1, 32490, Note_off_c, 1, 46, 0
1, 32490, Note_off_c, 1, 65, 0
1, 32493, Note_off_c, 1, 70, 0
1, 32496, Note_on_c, 1, 76, 127
1, 32496, Note_on_c, 1, 69, 127
1, 32496, Note_on_c, 1, 64, 127
1, 32496, Note_on_c, 1, 48, 127
1, 32496, Note_on_c, 1, 36, 127
1, 32538, Note_off_c, 1, 76, 0
1, 32538, Note_off_c, 1, 69, 0
1, 32538, Note_off_c, 1, 48, 0
1, 32538, Note_off_c, 1, 36, 0
1, 32541, Note_off_c, 1, 64, 0
1, 32544, Note_on_c, 1, 69, 127
1, 32544, Note_on_c, 1, 52, 127
1, 32544, Note_on_c, 1, 40, 127
1, 32544, Note_on_c, 1, 72, 127
1, 32544, Note_on_c, 1, 81, 127
1, 32565, Note_off_c, 1, 69, 0
1, 32568, Note_on_c, 1, 70, 127
1, 32586, Note_off_c, 1, 52, 0
1, 32586, Note_off_c, 1, 40, 0
1, 32586, Note_off_c, 1, 72, 0
1, 32586, Note_off_c, 1, 81, 0
1, 32589, Note_off_c, 1, 70, 0
1, 32592, Note_on_c, 1, 72, 127
1, 32592, Note_on_c, 1, 57, 127
1, 32592, Note_on_c, 1, 45, 127
1, 32592, Note_on_c, 1, 64, 127
1, 32616, Note_on_c, 1, 69, 127
1, 32634, Note_off_c, 1, 72, 0
1, 32634, Note_off_c, 1, 57, 0
1, 32634, Note_off_c, 1, 45, 0
1, 32634, Note_off_c, 1, 64, 0
1, 32637, Note_off_c, 1, 69, 0
1, 32640, Note_on_c, 1, 74, 127
1, 32640, Note_on_c, 1, 70, 127
1, 32640, Note_on_c, 1, 65, 127
1, 32640, Note_on_c, 1, 46, 127
1, 32640, Note_on_c, 1, 34, 127
1, 32640, Note_on_c, 1, 67, 127
1, 32664, Note_on_c, 1, 72, 127
1, 32682, Note_off_c, 1, 74, 0
1, 32682, Note_off_c, 1, 70, 0
1, 32682, Note_off_c, 1, 65, 0
1, 32682, Note_off_c, 1, 46, 0
1, 32682, Note_off_c, 1, 34, 0
1, 32682, Note_off_c, 1, 67, 0
1, 32685, Note_off_c, 1, 72, 0
1, 32688, Note_on_c, 1, 70, 127
1, 32688, Note_on_c, 1, 50, 127
1, 32688, Note_on_c, 1, 38, 127
1, 32688, Note_on_c, 1, 79, 127
1, 32712, Note_on_c, 1, 69, 127
1, 32730, Note_off_c, 1, 70, 0
1, 32730, Note_off_c, 1, 50, 0
1, 32730, Note_off_c, 1, 38, 0
1, 32730, Note_off_c, 1, 79, 0
1, 32733, Note_off_c, 1, 69, 0
1, 32736, Note_on_c, 1, 70, 127
1, 32736, Note_on_c, 1, 55, 127
1, 32736, Note_on_c, 1, 43, 127
1, 32736, Note_on_c, 1, 74, 127
1, 32736, Note_on_c, 1, 82, 127
1, 32757, Note_off_c, 1, 70, 0
1, 32760, Note_on_c, 1, 67, 127
1, 32778, Note_off_c, 1, 55, 0
1, 32778, Note_off_c, 1, 43, 0
1, 32778, Note_off_c, 1, 74, 0
1, 32778, Note_off_c, 1, 82, 0
1, 32781, Note_off_c, 1, 67, 0
1, 32784, Note_on_c, 1, 72, 127
1, 32784, Note_on_c, 1, 65, 127
1, 32784, Note_on_c, 1, 60, 127
1, 32784, Note_on_c, 1, 45, 127
1, 32784, Note_on_c, 1, 33, 127
1, 32826, Note_off_c, 1, 72, 0
1, 32826, Note_off_c, 1, 65, 0
1, 32826, Note_off_c, 1, 45, 0
1, 32826, Note_off_c, 1, 33, 0
1, 32829, Note_off_c, 1, 60, 0
1, 32832, Note_on_c, 1, 65, 127
1, 32832, Note_on_c, 1, 48, 127
1, 32832, Note_on_c, 1, 36, 127
1, 32832, Note_on_c, 1, 69, 127
1, 32832, Note_on_c, 1, 77, 127
1, 32853, Note_off_c, 1, 65, 0
1, 32856, Note_on_c, 1, 67, 127
1, 32874, Note_off_c, 1, 48, 0
1, 32874, Note_off_c, 1, 36, 0
1, 32874, Note_off_c, 1, 69, 0
1, 32874, Note_off_c, 1, 77, 0
1, 32877, Note_off_c, 1, 67, 0
1, 32880, Note_on_c, 1, 69, 127
1, 32880, Note_on_c, 1, 53, 127
1, 32880, Note_on_c, 1, 41, 127
1, 32880, Note_on_c, 1, 72, 127
1, 32880, Note_on_c, 1, 81, 127
1, 32901, Note_off_c, 1, 69, 0
1, 32904, Note_on_c, 1, 65, 127
1, 32922, Note_off_c, 1, 53, 0
1, 32922, Note_off_c, 1, 41, 0
1, 32922, Note_off_c, 1, 72, 0
1, 32922, Note_off_c, 1, 81, 0
1, 32925, Note_off_c, 1, 65, 0
1, 32928, Note_on_c, 1, 70, 127
1, 32928, Note_on_c, 1, 67, 127
1, 32928, Note_on_c, 1, 62, 127
1, 32928, Note_on_c, 1, 43, 127
1, 32928, Note_on_c, 1, 31, 127
1, 32952, Note_on_c, 1, 72, 127
1, 32952, Note_on_c, 1, 69, 127
1, 32970, Note_off_c, 1, 70, 0
1, 32970, Note_off_c, 1, 67, 0
1, 32970, Note_off_c, 1, 62, 0
1, 32970, Note_off_c, 1, 43, 0
1, 32970, Note_off_c, 1, 31, 0
1, 32973, Note_off_c, 1, 72, 0
1, 32973, Note_off_c, 1, 69, 0
1, 32976, Note_on_c, 1, 70, 127
1, 32976, Note_on_c, 1, 67, 127
1, 32976, Note_on_c, 1, 62, 127
1, 32976, Note_on_c, 1, 50, 127
1, 32976, Note_on_c, 1, 38, 127
1, 32976, Note_on_c, 1, 79, 127
1, 33000, Note_on_c, 1, 72, 127
1, 33000, Note_on_c, 1, 69, 127
1, 33018, Note_off_c, 1, 70, 0
1, 33018, Note_off_c, 1, 67, 0
1, 33018, Note_off_c, 1, 62, 0
1, 33018, Note_off_c, 1, 50, 0
1, 33018, Note_off_c, 1, 38, 0
1, 33018, Note_off_c, 1, 79, 0
1, 33021, Note_off_c, 1, 72, 0
1, 33021, Note_off_c, 1, 69, 0
1, 33024, Note_on_c, 1, 74, 127
1, 33024, Note_on_c, 1, 70, 127
1, 33024, Note_on_c, 1, 67, 127
1, 33024, Note_on_c, 1, 62, 127
1, 33024, Note_on_c, 1, 55, 127
1, 33024, Note_on_c, 1, 43, 127
1, 33024, Note_on_c, 1, 82, 127
1, 33048, Note_on_c, 1, 72, 127
1, 33048, Note_on_c, 1, 69, 127
1, 33066, Note_off_c, 1, 74, 0
1, 33066, Note_off_c, 1, 70, 0
1, 33066, Note_off_c, 1, 67, 0
1, 33066, Note_off_c, 1, 62, 0
1, 33066, Note_off_c, 1, 55, 0
1, 33066, Note_off_c, 1, 43, 0
1, 33066, Note_off_c, 1, 82, 0
1, 33069, Note_off_c, 1, 72, 0
1, 33069, Note_off_c, 1, 69, 0
1, 33072, Note_on_c, 1, 70, 127
1, 33072, Note_on_c, 1, 67, 127
1, 33072, Note_on_c, 1, 62, 127
1, 33072, Note_on_c, 1, 41, 127
1, 33072, Note_on_c, 1, 29, 127
1, 33072, Note_on_c, 1, 79, 127
1, 33096, Note_on_c, 1, 72, 127
1, 33114, Note_off_c, 1, 70, 0
1, 33114, Note_off_c, 1, 67, 0
1, 33114, Note_off_c, 1, 62, 0
1, 33114, Note_off_c, 1, 41, 0
1, 33114, Note_off_c, 1, 29, 0
1, 33114, Note_off_c, 1, 79, 0
1, 33117, Note_off_c, 1, 72, 0
1, 33120, Note_on_c, 1, 70, 127
1, 33120, Note_on_c, 1, 67, 127
1, 33120, Note_on_c, 1, 50, 127
1, 33120, Note_on_c, 1, 38, 127
1, 33144, Note_on_c, 1, 69, 127
1, 33162, Note_off_c, 1, 70, 0
1, 33162, Note_off_c, 1, 67, 0
1, 33162, Note_off_c, 1, 50, 0
1, 33162, Note_off_c, 1, 38, 0
1, 33165, Note_off_c, 1, 69, 0
1, 33168, Note_on_c, 1, 70, 127
1, 33168, Note_on_c, 1, 67, 127
1, 33168, Note_on_c, 1, 55, 127
1, 33168, Note_on_c, 1, 43, 127
1, 33210, Note_off_c, 1, 70, 0
1, 33210, Note_off_c, 1, 55, 0
1, 33210, Note_off_c, 1, 43, 0
1, 33213, Note_off_c, 1, 67, 0
1, 33216, Note_on_c, 1, 70, 127
1, 33216, Note_on_c, 1, 67, 127
1, 33216, Note_on_c, 1, 79, 127
1, 33216, Note_on_c, 1, 60, 127
1, 33216, Note_on_c, 1, 40, 127
1, 33216, Note_on_c, 1, 28, 127
1, 33216, Note_on_c, 1, 72, 127
1, 33237, Note_off_c, 1, 70, 0
1, 33240, Note_on_c, 1, 69, 127
1, 33258, Note_off_c, 1, 67, 0
1, 33258, Note_off_c, 1, 79, 0
1, 33258, Note_off_c, 1, 60, 0
1, 33258, Note_off_c, 1, 40, 0
1, 33258, Note_off_c, 1, 28, 0
1, 33261, Note_off_c, 1, 72, 0
1, 33261, Note_off_c, 1, 69, 0
1, 33264, Note_on_c, 1, 70, 127
1, 33264, Note_on_c, 1, 67, 127
1, 33264, Note_on_c, 1, 60, 127
1, 33264, Note_on_c, 1, 48, 127
1, 33264, Note_on_c, 1, 36, 127
1, 33264, Note_on_c, 1, 76, 127
1, 33288, Note_on_c, 1, 72, 127
1, 33288, Note_on_c, 1, 69, 127
1, 33306, Note_off_c, 1, 70, 0
1, 33306, Note_off_c, 1, 67, 0
1, 33306, Note_off_c, 1, 60, 0
1, 33306, Note_off_c, 1, 48, 0
1, 33306, Note_off_c, 1, 36, 0
1, 33306, Note_off_c, 1, 76, 0
1, 33309, Note_off_c, 1, 72, 0
1, 33309, Note_off_c, 1, 69, 0
1, 33312, Note_on_c, 1, 74, 127
1, 33312, Note_on_c, 1, 70, 127
1, 33312, Note_on_c, 1, 67, 127
1, 33312, Note_on_c, 1, 60, 127
1, 33312, Note_on_c, 1, 55, 127
1, 33312, Note_on_c, 1, 43, 127
1, 33312, Note_on_c, 1, 72, 127
1, 33312, Note_on_c, 1, 76, 127
1, 33333, Note_off_c, 1, 74, 0
1, 33336, Note_on_c, 1, 69, 127
1, 33354, Note_off_c, 1, 70, 0
1, 33354, Note_off_c, 1, 67, 0
1, 33354, Note_off_c, 1, 60, 0
1, 33354, Note_off_c, 1, 55, 0
1, 33354, Note_off_c, 1, 43, 0
1, 33354, Note_off_c, 1, 76, 0
1, 33357, Note_off_c, 1, 72, 0
1, 33357, Note_off_c, 1, 69, 0
1, 33360, Note_on_c, 1, 70, 127
1, 33360, Note_on_c, 1, 67, 127
1, 33360, Note_on_c, 1, 60, 127
1, 33360, Note_on_c, 1, 52, 127
1, 33360, Note_on_c, 1, 40, 127
1, 33360, Note_on_c, 1, 72, 127
1, 33360, Note_on_c, 1, 79, 127
1, 33402, Note_off_c, 1, 70, 0
1, 33402, Note_off_c, 1, 67, 0
1, 33402, Note_off_c, 1, 60, 0
1, 33402, Note_off_c, 1, 52, 0
1, 33402, Note_off_c, 1, 40, 0
1, 33402, Note_off_c, 1, 72, 0
1, 33402, Note_off_c, 1, 79, 0
1, 33408, Note_on_c, 1, 70, 127
1, 33408, Note_on_c, 1, 67, 127
1, 33408, Note_on_c, 1, 72, 127
1, 33408, Note_on_c, 1, 69, 127
1, 33408, Note_on_c, 1, 64, 127
1, 33408, Note_on_c, 1, 48, 127
1, 33408, Note_on_c, 1, 36, 127
1, 33408, Note_on_c, 1, 76, 127
1, 33429, Note_off_c, 1, 72, 0
1, 33429, Note_off_c, 1, 69, 0
1, 33450, Note_off_c, 1, 64, 0
1, 33450, Note_off_c, 1, 48, 0
1, 33450, Note_off_c, 1, 36, 0
1, 33450, Note_off_c, 1, 76, 0
1, 33453, Note_off_c, 1, 70, 0
1, 33453, Note_off_c, 1, 67, 0
1, 33456, Note_on_c, 1, 70, 127
1, 33456, Note_on_c, 1, 67, 127
1, 33456, Note_on_c, 1, 69, 127
1, 33456, Note_on_c, 1, 65, 127
1, 33456, Note_on_c, 1, 60, 127
1, 33456, Note_on_c, 1, 48, 127
1, 33456, Note_on_c, 1, 76, 127
1, 33477, Note_off_c, 1, 69, 0
1, 33477, Note_off_c, 1, 65, 0
1, 33480, Note_on_c, 1, 64, 127
1, 33498, Note_off_c, 1, 70, 0
1, 33498, Note_off_c, 1, 60, 0
1, 33498, Note_off_c, 1, 48, 0
1, 33498, Note_off_c, 1, 76, 0
1, 33501, Note_off_c, 1, 67, 0
1, 33501, Note_off_c, 1, 64, 0
1, 33504, Note_on_c, 1, 69, 127
1, 33504, Note_on_c, 1, 65, 127
1, 33504, Note_on_c, 1, 60, 127
1, 33504, Note_on_c, 1, 41, 127
1, 33504, Note_on_c, 1, 29, 127
1, 33504, Note_on_c, 1, 72, 127
1, 33504, Note_on_c, 1, 81, 127
1, 33528, Note_on_c, 1, 70, 127
1, 33528, Note_on_c, 1, 67, 127
1, 33546, Note_off_c, 1, 69, 0
1, 33546, Note_off_c, 1, 65, 0
1, 33546, Note_off_c, 1, 60, 0
1, 33546, Note_off_c, 1, 41, 0
1, 33546, Note_off_c, 1, 29, 0
1, 33546, Note_off_c, 1, 72, 0
1, 33546, Note_off_c, 1, 81, 0
1, 33549, Note_off_c, 1, 70, 0
1, 33549, Note_off_c, 1, 67, 0
1, 33552, Note_on_c, 1, 69, 127
1, 33552, Note_on_c, 1, 65, 127
1, 33552, Note_on_c, 1, 60, 127
1, 33552, Note_on_c, 1, 48, 127
1, 33552, Note_on_c, 1, 36, 127
1, 33552, Note_on_c, 1, 77, 127
1, 33576, Note_on_c, 1, 70, 127
1, 33576, Note_on_c, 1, 67, 127
1, 33594, Note_off_c, 1, 69, 0
1, 33594, Note_off_c, 1, 65, 0
1, 33594, Note_off_c, 1, 60, 0
1, 33594, Note_off_c, 1, 48, 0
1, 33594, Note_off_c, 1, 36, 0
1, 33594, Note_off_c, 1, 77, 0
1, 33597, Note_off_c, 1, 70, 0
1, 33597, Note_off_c, 1, 67, 0
1, 33600, Note_on_c, 1, 72, 127
1, 33600, Note_on_c, 1, 69, 127
1, 33600, Note_on_c, 1, 65, 127
1, 33600, Note_on_c, 1, 60, 127
1, 33600, Note_on_c, 1, 53, 127
1, 33600, Note_on_c, 1, 41, 127
1, 33624, Note_on_c, 1, 70, 127
1, 33624, Note_on_c, 1, 67, 127
1, 33642, Note_off_c, 1, 72, 0
1, 33642, Note_off_c, 1, 69, 0
1, 33642, Note_off_c, 1, 65, 0
1, 33642, Note_off_c, 1, 60, 0
1, 33642, Note_off_c, 1, 53, 0
1, 33642, Note_off_c, 1, 41, 0
1, 33645, Note_off_c, 1, 70, 0
1, 33645, Note_off_c, 1, 67, 0
1, 33648, Note_on_c, 1, 69, 127
1, 33648, Note_on_c, 1, 65, 127
1, 33648, Note_on_c, 1, 60, 127
1, 33648, Note_on_c, 1, 40, 127
1, 33648, Note_on_c, 1, 28, 127
1, 33672, Note_on_c, 1, 70, 127
1, 33690, Note_off_c, 1, 69, 0
1, 33690, Note_off_c, 1, 65, 0
1, 33690, Note_off_c, 1, 60, 0
1, 33690, Note_off_c, 1, 40, 0
1, 33690, Note_off_c, 1, 28, 0
1, 33693, Note_off_c, 1, 70, 0
1, 33696, Note_on_c, 1, 69, 127
1, 33696, Note_on_c, 1, 65, 127
1, 33696, Note_on_c, 1, 48, 127
1, 33696, Note_on_c, 1, 36, 127
1, 33720, Note_on_c, 1, 67, 127
1, 33738, Note_off_c, 1, 69, 0
1, 33738, Note_off_c, 1, 65, 0
1, 33738, Note_off_c, 1, 48, 0
1, 33738, Note_off_c, 1, 36, 0
1, 33741, Note_off_c, 1, 67, 0
1, 33744, Note_on_c, 1, 69, 127
1, 33744, Note_on_c, 1, 65, 127
1, 33744, Note_on_c, 1, 53, 127
1, 33744, Note_on_c, 1, 41, 127
1, 33786, Note_off_c, 1, 69, 0
1, 33786, Note_off_c, 1, 53, 0
1, 33786, Note_off_c, 1, 41, 0
1, 33789, Note_off_c, 1, 65, 0
1, 33792, Note_on_c, 1, 69, 127
1, 33792, Note_on_c, 1, 65, 127
1, 33792, Note_on_c, 1, 77, 127
1, 33792, Note_on_c, 1, 62, 127
1, 33792, Note_on_c, 1, 38, 127
1, 33792, Note_on_c, 1, 26, 127
1, 33816, Note_on_c, 1, 70, 127
1, 33816, Note_on_c, 1, 67, 127
1, 33834, Note_off_c, 1, 69, 0
1, 33834, Note_off_c, 1, 65, 0
1, 33834, Note_off_c, 1, 77, 0
1, 33834, Note_off_c, 1, 62, 0
1, 33834, Note_off_c, 1, 38, 0
1, 33834, Note_off_c, 1, 26, 0
1, 33837, Note_off_c, 1, 70, 0
1, 33837, Note_off_c, 1, 67, 0
1, 33840, Note_on_c, 1, 69, 127
1, 33840, Note_on_c, 1, 65, 127
1, 33840, Note_on_c, 1, 62, 127
1, 33840, Note_on_c, 1, 50, 127
1, 33840, Note_on_c, 1, 38, 127
1, 33864, Note_on_c, 1, 70, 127
1, 33864, Note_on_c, 1, 67, 127
1, 33882, Note_off_c, 1, 69, 0
1, 33882, Note_off_c, 1, 65, 0
1, 33882, Note_off_c, 1, 62, 0
1, 33882, Note_off_c, 1, 50, 0
1, 33882, Note_off_c, 1, 38, 0
1, 33885, Note_off_c, 1, 70, 0
1, 33885, Note_off_c, 1, 67, 0
1, 33888, Note_on_c, 1, 72, 127
1, 33888, Note_on_c, 1, 69, 127
1, 33888, Note_on_c, 1, 65, 127
1, 33888, Note_on_c, 1, 62, 127
1, 33888, Note_on_c, 1, 45, 127
1, 33888, Note_on_c, 1, 33, 127
1, 33888, Note_on_c, 1, 74, 127
1, 33909, Note_off_c, 1, 72, 0
1, 33912, Note_on_c, 1, 70, 127
1, 33912, Note_on_c, 1, 67, 127
1, 33930, Note_off_c, 1, 69, 0
1, 33930, Note_off_c, 1, 65, 0
1, 33930, Note_off_c, 1, 62, 0
1, 33930, Note_off_c, 1, 45, 0
1, 33930, Note_off_c, 1, 33, 0
1, 33930, Note_off_c, 1, 74, 0
1, 33933, Note_off_c, 1, 70, 0
1, 33933, Note_off_c, 1, 67, 0
1, 33936, Note_on_c, 1, 69, 127
1, 33936, Note_on_c, 1, 65, 127
1, 33936, Note_on_c, 1, 62, 127
1, 33936, Note_on_c, 1, 46, 127
1, 33936, Note_on_c, 1, 34, 127
1, 33936, Note_on_c, 1, 74, 127
1, 33978, Note_off_c, 1, 69, 0
1, 33978, Note_off_c, 1, 65, 0
1, 33978, Note_off_c, 1, 62, 0
1, 33978, Note_off_c, 1, 46, 0
1, 33978, Note_off_c, 1, 34, 0
1, 33978, Note_off_c, 1, 74, 0
1, 33984, Note_on_c, 1, 67, 127
1, 33984, Note_on_c, 1, 65, 127
1, 33984, Note_on_c, 1, 70, 127
1, 33984, Note_on_c, 1, 62, 127
1, 33984, Note_on_c, 1, 50, 127
1, 33984, Note_on_c, 1, 38, 127
1, 33984, Note_on_c, 1, 74, 127
1, 34005, Note_off_c, 1, 70, 0
1, 34008, Note_on_c, 1, 69, 127
1, 34026, Note_off_c, 1, 67, 0
1, 34026, Note_off_c, 1, 65, 0
1, 34026, Note_off_c, 1, 62, 0
1, 34026, Note_off_c, 1, 50, 0
1, 34026, Note_off_c, 1, 38, 0
1, 34026, Note_off_c, 1, 74, 0
1, 34029, Note_off_c, 1, 69, 0
1, 34032, Note_on_c, 1, 70, 127
1, 34032, Note_on_c, 1, 65, 127
1, 34032, Note_on_c, 1, 67, 127
1, 34032, Note_on_c, 1, 62, 127
1, 34032, Note_on_c, 1, 43, 127
1, 34032, Note_on_c, 1, 31, 127
1, 34032, Note_on_c, 1, 74, 127
1, 34032, Note_on_c, 1, 82, 127
1, 34032, Note_on_c, 1, 58, 127
1, 34053, Note_off_c, 1, 70, 0
1, 34053, Note_off_c, 1, 67, 0
1, 34056, Note_on_c, 1, 69, 127
1, 34074, Note_off_c, 1, 62, 0
1, 34074, Note_off_c, 1, 43, 0
1, 34074, Note_off_c, 1, 31, 0
1, 34074, Note_off_c, 1, 74, 0
1, 34074, Note_off_c, 1, 82, 0
1, 34074, Note_off_c, 1, 58, 0
1, 34077, Note_off_c, 1, 65, 0
1, 34077, Note_off_c, 1, 69, 0
1, 34080, Note_on_c, 1, 67, 127
1, 34080, Note_on_c, 1, 60, 127
1, 34080, Note_on_c, 1, 64, 127
1, 34080, Note_on_c, 1, 48, 127
1, 34080, Note_on_c, 1, 36, 127
1, 34080, Note_on_c, 1, 76, 127
1, 34104, Note_on_c, 1, 62, 127
1, 34122, Note_off_c, 1, 67, 0
1, 34122, Note_off_c, 1, 60, 0
1, 34122, Note_off_c, 1, 64, 0
1, 34122, Note_off_c, 1, 48, 0
1, 34122, Note_off_c, 1, 36, 0
1, 34122, Note_off_c, 1, 76, 0
1, 34125, Note_off_c, 1, 62, 0
1, 34128, Note_on_c, 1, 60, 127
1, 34128, Note_on_c, 1, 64, 127
1, 34128, Note_on_c, 1, 67, 127
1, 34128, Note_on_c, 1, 52, 127
1, 34128, Note_on_c, 1, 40, 127
1, 34128, Note_on_c, 1, 72, 127
1, 34149, Note_off_c, 1, 64, 0
1, 34170, Note_off_c, 1, 67, 0
1, 34170, Note_off_c, 1, 52, 0
1, 34170, Note_off_c, 1, 40, 0
1, 34170, Note_off_c, 1, 72, 0
1, 34173, Note_off_c, 1, 60, 0
1, 34176, Note_on_c, 1, 60, 127
1, 34176, Note_on_c, 1, 67, 127
1, 34176, Note_on_c, 1, 64, 127
1, 34176, Note_on_c, 1, 55, 127
1, 34176, Note_on_c, 1, 43, 127
1, 34176, Note_on_c, 1, 72, 127
1, 34197, Note_off_c, 1, 60, 0
1, 34197, Note_off_c, 1, 67, 0
1, 34200, Note_on_c, 1, 65, 127
1, 34200, Note_on_c, 1, 62, 127
1, 34218, Note_off_c, 1, 64, 0
1, 34218, Note_off_c, 1, 55, 0
1, 34218, Note_off_c, 1, 43, 0
1, 34218, Note_off_c, 1, 72, 0
1, 34221, Note_off_c, 1, 65, 0
1, 34221, Note_off_c, 1, 62, 0
1, 34224, Note_on_c, 1, 60, 127
1, 34224, Note_on_c, 1, 67, 127
1, 34224, Note_on_c, 1, 64, 127
1, 34224, Note_on_c, 1, 48, 127
1, 34224, Note_on_c, 1, 36, 127
1, 34224, Note_on_c, 1, 76, 127
1, 34245, Note_off_c, 1, 64, 0
1, 34266, Note_off_c, 1, 67, 0
1, 34266, Note_off_c, 1, 48, 0
1, 34266, Note_off_c, 1, 36, 0
1, 34266, Note_off_c, 1, 76, 0
1, 34269, Note_off_c, 1, 60, 0
1, 34272, Note_on_c, 1, 60, 127
1, 34272, Note_on_c, 1, 70, 127
1, 34272, Note_on_c, 1, 67, 127
1, 34272, Note_on_c, 1, 52, 127
1, 34272, Note_on_c, 1, 40, 127
1, 34272, Note_on_c, 1, 72, 127
1, 34293, Note_off_c, 1, 70, 0
1, 34296, Note_on_c, 1, 69, 127
1, 34296, Note_on_c, 1, 65, 127
1, 34314, Note_off_c, 1, 67, 0
1, 34314, Note_off_c, 1, 52, 0
1, 34314, Note_off_c, 1, 40, 0
1, 34314, Note_off_c, 1, 72, 0
1, 34317, Note_off_c, 1, 60, 0
1, 34317, Note_off_c, 1, 69, 0
1, 34317, Note_off_c, 1, 65, 0
1, 34320, Note_on_c, 1, 60, 127
1, 34320, Note_on_c, 1, 70, 127
1, 34320, Note_on_c, 1, 67, 127
1, 34320, Note_on_c, 1, 64, 127
1, 34320, Note_on_c, 1, 55, 127
1, 34320, Note_on_c, 1, 43, 127
1, 34320, Note_on_c, 1, 72, 127
1, 34341, Note_off_c, 1, 60, 0
1, 34341, Note_off_c, 1, 70, 0
1, 34341, Note_off_c, 1, 67, 0
1, 34362, Note_off_c, 1, 55, 0
1, 34362, Note_off_c, 1, 43, 0
1, 34362, Note_off_c, 1, 72, 0
1, 34365, Note_off_c, 1, 64, 0
1, 34368, Note_on_c, 1, 70, 127
1, 34368, Note_on_c, 1, 60, 127
1, 34368, Note_on_c, 1, 76, 127
1, 34368, Note_on_c, 1, 67, 127
1, 34368, Note_on_c, 1, 48, 127
1, 34368, Note_on_c, 1, 36, 127
1, 34392, Note_on_c, 1, 74, 127
1, 34392, Note_on_c, 1, 69, 127
1, 34392, Note_on_c, 1, 65, 127
1, 34410, Note_off_c, 1, 70, 0
1, 34410, Note_off_c, 1, 60, 0
1, 34410, Note_off_c, 1, 76, 0
1, 34410, Note_off_c, 1, 67, 0
1, 34410, Note_off_c, 1, 48, 0
1, 34410, Note_off_c, 1, 36, 0
1, 34413, Note_off_c, 1, 74, 0
1, 34413, Note_off_c, 1, 69, 0
1, 34413, Note_off_c, 1, 65, 0
1, 34416, Note_on_c, 1, 60, 127
1, 34416, Note_on_c, 1, 76, 127
1, 34416, Note_on_c, 1, 70, 127
1, 34416, Note_on_c, 1, 67, 127
1, 34416, Note_on_c, 1, 52, 127
1, 34416, Note_on_c, 1, 40, 127
1, 34416, Note_on_c, 1, 72, 127
1, 34437, Note_off_c, 1, 60, 0
1, 34437, Note_off_c, 1, 76, 0
1, 34437, Note_off_c, 1, 70, 0
1, 34440, Note_on_c, 1, 64, 127
1, 34458, Note_off_c, 1, 52, 0
1, 34458, Note_off_c, 1, 40, 0
1, 34461, Note_off_c, 1, 67, 0
1, 34461, Note_off_c, 1, 72, 0
1, 34461, Note_off_c, 1, 64, 0
1, 34464, Note_on_c, 1, 60, 127
1, 34464, Note_on_c, 1, 79, 127
1, 34464, Note_on_c, 1, 76, 127
1, 34464, Note_on_c, 1, 70, 127
1, 34464, Note_on_c, 1, 55, 127
1, 34464, Note_on_c, 1, 43, 127
1, 34464, Note_on_c, 1, 64, 127
1, 34464, Note_on_c, 1, 72, 127
1, 34485, Note_off_c, 1, 60, 0
1, 34485, Note_off_c, 1, 79, 0
1, 34485, Note_off_c, 1, 76, 0
1, 34485, Note_off_c, 1, 70, 0
1, 34488, Note_on_c, 1, 77, 127
1, 34488, Note_on_c, 1, 69, 127
1, 34488, Note_on_c, 1, 74, 127
1, 34506, Note_off_c, 1, 55, 0
1, 34506, Note_off_c, 1, 43, 0
1, 34506, Note_off_c, 1, 64, 0
1, 34509, Note_off_c, 1, 72, 0
1, 34509, Note_off_c, 1, 77, 0
1, 34509, Note_off_c, 1, 69, 0
1, 34509, Note_off_c, 1, 74, 0
1, 34512, Note_on_c, 1, 60, 127
1, 34512, Note_on_c, 1, 70, 127
1, 34512, Note_on_c, 1, 79, 127
1, 34512, Note_on_c, 1, 48, 127
1, 34512, Note_on_c, 1, 76, 127
1, 34512, Note_on_c, 1, 36, 127
1, 34512, Note_on_c, 1, 67, 127
1, 34533, Note_off_c, 1, 79, 0
1, 34536, Note_on_c, 1, 77, 127
1, 34536, Note_on_c, 1, 72, 127
1, 34554, Note_off_c, 1, 60, 0
1, 34554, Note_off_c, 1, 70, 0
1, 34554, Note_off_c, 1, 48, 0
1, 34554, Note_off_c, 1, 36, 0
1, 34557, Note_off_c, 1, 76, 0
1, 34557, Note_off_c, 1, 67, 0
1, 34557, Note_off_c, 1, 77, 0
1, 34557, Note_off_c, 1, 72, 0
1, 34560, Note_on_c, 1, 60, 127
1, 34560, Note_on_c, 1, 82, 127
1, 34560, Note_on_c, 1, 79, 127
1, 34560, Note_on_c, 1, 76, 127
1, 34560, Note_on_c, 1, 52, 127
1, 34560, Note_on_c, 1, 40, 127
1, 34560, Note_on_c, 1, 67, 127
1, 34560, Note_on_c, 1, 72, 127
1, 34581, Note_off_c, 1, 60, 0
1, 34581, Note_off_c, 1, 82, 0
1, 34581, Note_off_c, 1, 79, 0
1, 34584, Note_on_c, 1, 81, 127
1, 34584, Note_on_c, 1, 77, 127
1, 34602, Note_off_c, 1, 52, 0
1, 34602, Note_off_c, 1, 40, 0
1, 34602, Note_off_c, 1, 67, 0
1, 34602, Note_off_c, 1, 72, 0
1, 34605, Note_off_c, 1, 76, 0
1, 34605, Note_off_c, 1, 81, 0
1, 34605, Note_off_c, 1, 77, 0
1, 34608, Note_on_c, 1, 60, 127
1, 34608, Note_on_c, 1, 82, 127
1, 34608, Note_on_c, 1, 76, 127
1, 34608, Note_on_c, 1, 48, 127
1, 34608, Note_on_c, 1, 79, 127
1, 34608, Note_on_c, 1, 36, 127
1, 34608, Note_on_c, 1, 67, 127
1, 34629, Note_off_c, 1, 60, 0
1, 34629, Note_off_c, 1, 82, 0
1, 34629, Note_off_c, 1, 79, 0
1, 34650, Note_off_c, 1, 48, 0
1, 34650, Note_off_c, 1, 36, 0
1, 34650, Note_off_c, 1, 67, 0
1, 34653, Note_off_c, 1, 76, 0
1, 34656, Note_on_c, 1, 69, 127
1, 34656, Note_on_c, 1, 65, 127
1, 34656, Note_on_c, 1, 81, 127
1, 34656, Note_on_c, 1, 77, 127
1, 34656, Note_on_c, 1, 72, 127
1, 34656, Note_on_c, 1, 53, 127
1, 34656, Note_on_c, 1, 41, 127
1, 34677, Note_off_c, 1, 69, 0
1, 34677, Note_off_c, 1, 65, 0
1, 34677, Note_off_c, 1, 53, 0
1, 34677, Note_off_c, 1, 41, 0
1, 34680, Note_on_c, 1, 70, 127
1, 34680, Note_on_c, 1, 67, 127
1, 34680, Note_on_c, 1, 79, 127
1, 34680, Note_on_c, 1, 52, 127
1, 34680, Note_on_c, 1, 40, 127
1, 34698, Note_off_c, 1, 81, 0
1, 34698, Note_off_c, 1, 77, 0
1, 34698, Note_off_c, 1, 72, 0
1, 34701, Note_off_c, 1, 70, 0
1, 34701, Note_off_c, 1, 67, 0
1, 34701, Note_off_c, 1, 79, 0
1, 34701, Note_off_c, 1, 52, 0
1, 34701, Note_off_c, 1, 40, 0
1, 34704, Note_on_c, 1, 69, 127
1, 34704, Note_on_c, 1, 65, 127
1, 34704, Note_on_c, 1, 81, 127
1, 34704, Note_on_c, 1, 72, 127
1, 34704, Note_on_c, 1, 53, 127
1, 34704, Note_on_c, 1, 41, 127
1, 34725, Note_off_c, 1, 65, 0
1, 34725, Note_off_c, 1, 53, 0
1, 34725, Note_off_c, 1, 41, 0
1, 34728, Note_on_c, 1, 70, 127
1, 34728, Note_on_c, 1, 67, 127
1, 34728, Note_on_c, 1, 76, 127
1, 34728, Note_on_c, 1, 52, 127
1, 34728, Note_on_c, 1, 40, 127
1, 34746, Note_off_c, 1, 69, 0
1, 34746, Note_off_c, 1, 81, 0
1, 34746, Note_off_c, 1, 72, 0
1, 34749, Note_off_c, 1, 70, 0
1, 34749, Note_off_c, 1, 67, 0
1, 34749, Note_off_c, 1, 76, 0
1, 34749, Note_off_c, 1, 52, 0
1, 34749, Note_off_c, 1, 40, 0
1, 34752, Note_on_c, 1, 72, 127
1, 34752, Note_on_c, 1, 69, 127
1, 34752, Note_on_c, 1, 77, 127
1, 34752, Note_on_c, 1, 74, 127
1, 34752, Note_on_c, 1, 50, 127
1, 34752, Note_on_c, 1, 38, 127
1, 34773, Note_off_c, 1, 72, 0
1, 34776, Note_on_c, 1, 70, 127
1, 34776, Note_on_c, 1, 67, 127
1, 34776, Note_on_c, 1, 76, 127
1, 34794, Note_off_c, 1, 77, 0
1, 34797, Note_off_c, 1, 70, 0
1, 34797, Note_off_c, 1, 67, 0
1, 34797, Note_off_c, 1, 76, 0
1, 34800, Note_on_c, 1, 65, 127
1, 34821, Note_off_c, 1, 74, 0
1, 34821, Note_off_c, 1, 50, 0
1, 34821, Note_off_c, 1, 38, 0
1, 34824, Note_on_c, 1, 79, 127
1, 34824, Note_on_c, 1, 46, 127
1, 34824, Note_on_c, 1, 34, 127
1, 34842, Note_off_c, 1, 69, 0
1, 34842, Note_off_c, 1, 65, 0
1, 34845, Note_off_c, 1, 79, 0
1, 34845, Note_off_c, 1, 46, 0
1, 34845, Note_off_c, 1, 34, 0
1, 34848, Note_on_c, 1, 67, 127
1, 34848, Note_on_c, 1, 60, 127
1, 34848, Note_on_c, 1, 79, 127
1, 34848, Note_on_c, 1, 76, 127
1, 34848, Note_on_c, 1, 72, 127
1, 34848, Note_on_c, 1, 48, 127
1, 34848, Note_on_c, 1, 36, 127
1, 34869, Note_off_c, 1, 67, 0
1, 34869, Note_off_c, 1, 60, 0
1, 34872, Note_on_c, 1, 65, 127
1, 34890, Note_off_c, 1, 72, 0
1, 34890, Note_off_c, 1, 48, 0
1, 34890, Note_off_c, 1, 36, 0
1, 34893, Note_off_c, 1, 65, 0
1, 34896, Note_on_c, 1, 70, 127
1, 34896, Note_on_c, 1, 24, 127
1, 34911, Note_off_c, 1, 79, 0
1, 34920, Note_on_c, 1, 69, 127
1, 34920, Note_on_c, 1, 77, 127
1, 34938, Note_off_c, 1, 76, 0
1, 34938, Note_off_c, 1, 70, 0
1, 34938, Note_off_c, 1, 24, 0
1, 34941, Note_off_c, 1, 69, 0
1, 34941, Note_off_c, 1, 77, 0
1, 34944, Note_on_c, 1, 65, 127
1, 34944, Note_on_c, 1, 57, 127
1, 34944, Note_on_c, 1, 77, 127
1, 34944, Note_on_c, 1, 69, 127
1, 34944, Note_on_c, 1, 41, 127
1, 34944, Note_on_c, 1, 29, 127
1, 34944, Note_on_c, 1, 72, 127
1, 34944, Note_on_c, 1, 81, 127
1, 34965, Note_off_c, 1, 65, 0
1, 34968, Note_on_c, 1, 67, 127
1, 34968, Note_on_c, 1, 76, 127
1, 34986, Note_off_c, 1, 57, 0
1, 34986, Note_off_c, 1, 77, 0
1, 34986, Note_off_c, 1, 69, 0
1, 34986, Note_off_c, 1, 41, 0
1, 34986, Note_off_c, 1, 29, 0
1, 34986, Note_off_c, 1, 72, 0
1, 34986, Note_off_c, 1, 81, 0
1, 34989, Note_off_c, 1, 67, 0
1, 34989, Note_off_c, 1, 76, 0
1, 34992, Note_on_c, 1, 65, 127
1, 34992, Note_on_c, 1, 57, 127
1, 34992, Note_on_c, 1, 77, 127
1, 34992, Note_on_c, 1, 72, 127
1, 34992, Note_on_c, 1, 45, 127
1, 34992, Note_on_c, 1, 33, 127
1, 35013, Note_off_c, 1, 57, 0
1, 35016, Note_on_c, 1, 67, 127
1, 35034, Note_off_c, 1, 65, 0
1, 35034, Note_off_c, 1, 77, 0
1, 35034, Note_off_c, 1, 45, 0
1, 35034, Note_off_c, 1, 33, 0
1, 35037, Note_off_c, 1, 72, 0
1, 35037, Note_off_c, 1, 67, 0
1, 35040, Note_on_c, 1, 69, 127
1, 35040, Note_on_c, 1, 57, 127
1, 35040, Note_on_c, 1, 74, 127
1, 35040, Note_on_c, 1, 65, 127
1, 35040, Note_on_c, 1, 41, 127
1, 35040, Note_on_c, 1, 29, 127
1, 35040, Note_on_c, 1, 72, 127
1, 35040, Note_on_c, 1, 81, 127
1, 35061, Note_off_c, 1, 57, 0
1, 35061, Note_off_c, 1, 74, 0
1, 35064, Note_on_c, 1, 67, 127
1, 35082, Note_off_c, 1, 69, 0
1, 35082, Note_off_c, 1, 65, 0
1, 35082, Note_off_c, 1, 41, 0
1, 35082, Note_off_c, 1, 29, 0
1, 35082, Note_off_c, 1, 81, 0
1, 35085, Note_off_c, 1, 72, 0
1, 35085, Note_off_c, 1, 67, 0
1, 35088, Note_on_c, 1, 65, 127
1, 35088, Note_on_c, 1, 57, 127
1, 35088, Note_on_c, 1, 74, 127
1, 35088, Note_on_c, 1, 69, 127
1, 35088, Note_on_c, 1, 38, 127
1, 35088, Note_on_c, 1, 26, 127
1, 35088, Note_on_c, 1, 77, 127
1, 35109, Note_off_c, 1, 74, 0
1, 35130, Note_off_c, 1, 65, 0
1, 35130, Note_off_c, 1, 57, 0
1, 35130, Note_off_c, 1, 38, 0
1, 35130, Note_off_c, 1, 26, 0
1, 35130, Note_off_c, 1, 77, 0
1, 35133, Note_off_c, 1, 69, 0
1, 35136, Note_on_c, 1, 70, 127
1, 35136, Note_on_c, 1, 67, 127
1, 35136, Note_on_c, 1, 62, 127
1, 35136, Note_on_c, 1, 43, 127
1, 35136, Note_on_c, 1, 31, 127
1, 35160, Note_on_c, 1, 69, 127
1, 35178, Note_off_c, 1, 70, 0
1, 35178, Note_off_c, 1, 67, 0
1, 35178, Note_off_c, 1, 62, 0
1, 35178, Note_off_c, 1, 43, 0
1, 35178, Note_off_c, 1, 31, 0
1, 35181, Note_off_c, 1, 69, 0
1, 35184, Note_on_c, 1, 70, 127
1, 35184, Note_on_c, 1, 64, 127
1, 35184, Note_on_c, 1, 60, 127
1, 35184, Note_on_c, 1, 36, 127
1, 35184, Note_on_c, 1, 24, 127
1, 35184, Note_on_c, 1, 67, 127
1, 35184, Note_on_c, 1, 76, 127
1, 35205, Note_off_c, 1, 70, 0
1, 35226, Note_off_c, 1, 64, 0
1, 35226, Note_off_c, 1, 60, 0
1, 35226, Note_off_c, 1, 36, 0
1, 35226, Note_off_c, 1, 24, 0
1, 35226, Note_off_c, 1, 76, 0
1, 35229, Note_off_c, 1, 67, 0
1, 35232, Note_on_c, 1, 65, 127
1, 35232, Note_on_c, 1, 57, 127
1, 35232, Note_on_c, 1, 69, 127
1, 35232, Note_on_c, 1, 60, 127
1, 35232, Note_on_c, 1, 41, 127
1, 35232, Note_on_c, 1, 29, 127
1, 35256, Note_on_c, 1, 67, 127
1, 35274, Note_off_c, 1, 57, 0
1, 35274, Note_off_c, 1, 69, 0
1, 35274, Note_off_c, 1, 41, 0
1, 35274, Note_off_c, 1, 29, 0
1, 35277, Note_off_c, 1, 67, 0
1, 35280, Note_on_c, 1, 45, 127
1, 35280, Note_on_c, 1, 33, 127
1, 35280, Note_on_c, 1, 74, 127
1, 35295, Note_off_c, 1, 60, 0
1, 35304, Note_on_c, 1, 64, 127
1, 35304, Note_on_c, 1, 58, 127
1, 35322, Note_off_c, 1, 65, 0
1, 35322, Note_off_c, 1, 45, 0
1, 35322, Note_off_c, 1, 33, 0
1, 35322, Note_off_c, 1, 74, 0
1, 35325, Note_off_c, 1, 64, 0
1, 35325, Note_off_c, 1, 58, 0
1, 35328, Note_on_c, 1, 69, 127
1, 35328, Note_on_c, 1, 57, 127
1, 35328, Note_on_c, 1, 65, 127
1, 35328, Note_on_c, 1, 62, 127
1, 35328, Note_on_c, 1, 50, 127
1, 35328, Note_on_c, 1, 38, 127
1, 35328, Note_on_c, 1, 77, 127
1, 35349, Note_off_c, 1, 65, 0
1, 35352, Note_on_c, 1, 67, 127
1, 35352, Note_on_c, 1, 64, 127
1, 35370, Note_off_c, 1, 69, 0
1, 35370, Note_off_c, 1, 77, 0
1, 35373, Note_off_c, 1, 67, 0
1, 35373, Note_off_c, 1, 64, 0
1, 35376, Note_on_c, 1, 74, 127
1, 35397, Note_off_c, 1, 62, 0
1, 35397, Note_off_c, 1, 50, 0
1, 35397, Note_off_c, 1, 38, 0
1, 35400, Note_on_c, 1, 46, 127
1, 35400, Note_on_c, 1, 34, 127
1, 35418, Note_off_c, 1, 57, 0
1, 35418, Note_off_c, 1, 74, 0
1, 35421, Note_off_c, 1, 46, 0
1, 35421, Note_off_c, 1, 34, 0
1, 35424, Note_on_c, 1, 60, 127
1, 35424, Note_on_c, 1, 57, 127
1, 35424, Note_on_c, 1, 67, 127
1, 35424, Note_on_c, 1, 64, 127
1, 35424, Note_on_c, 1, 48, 127
1, 35424, Note_on_c, 1, 36, 127
1, 35424, Note_on_c, 1, 76, 127
1, 35445, Note_off_c, 1, 57, 0
1, 35466, Note_off_c, 1, 48, 0
1, 35466, Note_off_c, 1, 36, 0
1, 35466, Note_off_c, 1, 76, 0
1, 35472, Note_on_c, 1, 24, 127
1, 35493, Note_off_c, 1, 60, 0
1, 35496, Note_on_c, 1, 65, 127
1, 35514, Note_off_c, 1, 67, 0
1, 35514, Note_off_c, 1, 64, 0
1, 35514, Note_off_c, 1, 24, 0
1, 35517, Note_off_c, 1, 65, 0
1, 35520, Note_on_c, 1, 57, 127
1, 35520, Note_on_c, 1, 53, 127
1, 35520, Note_on_c, 1, 65, 127
1, 35520, Note_on_c, 1, 60, 127
1, 35520, Note_on_c, 1, 41, 127
1, 35520, Note_on_c, 1, 29, 127
1, 35520, Note_on_c, 1, 69, 127
1, 35796, Note_off_c, 1, 57, 0
1, 35796, Note_off_c, 1, 53, 0
1, 35796, Note_off_c, 1, 65, 0
1, 35796, Note_off_c, 1, 60, 0
1, 35796, Note_off_c, 1, 41, 0
1, 35796, Note_off_c, 1, 29, 0
1, 35796, Note_off_c, 1, 69, 0
1, 35796, End_track
0, 0, End_of_file