0, 0, Header, 1, 1, 480
1, 0, Start_track
1, 0, Title_t, "Test"
1, 0, Tempo, 500000
1, 0, Instrument_name_t, "Church Organ"
1, 96, Note_on_c, 1, 81, 127
1, 96, Note_on_c, 1, 76, 127
1, 96, Note_on_c, 1, 73, 127
1, 96, Note_on_c, 1, 45, 127
1, 96, Note_on_c, 1, 69, 127
1, 96, Note_on_c, 1, 64, 127
1, 96, Note_on_c, 1, 33, 127
1, 138, Note_off_c, 1, 69, 0
1, 180, Note_off_c, 1, 76, 0
1, 180, Note_off_c, 1, 45, 0
1, 180, Note_off_c, 1, 33, 0
1, 186, Note_off_c, 1, 73, 0
1, 186, Note_off_c, 1, 64, 0
1, 234, Note_off_c, 1, 81, 0
1, 240, Note_on_c, 1, 82, 127
1, 240, Note_on_c, 1, 73, 127
1, 240, Note_on_c, 1, 69, 127
1, 240, Note_on_c, 1, 64, 127
1, 261, Note_off_c, 1, 82, 0
1, 264, Note_on_c, 1, 81, 127
1, 282, Note_off_c, 1, 73, 0
1, 282, Note_off_c, 1, 69, 0
1, 282, Note_off_c, 1, 64, 0
1, 285, Note_off_c, 1, 81, 0
1, 288, Note_on_c, 1, 79, 127
1, 288, Note_on_c, 1, 73, 127
1, 288, Note_on_c, 1, 69, 127
1, 288, Note_on_c, 1, 64, 127
1, 309, Note_off_c, 1, 79, 0
1, 312, Note_on_c, 1, 77, 127
1, 330, Note_off_c, 1, 73, 0
1, 330, Note_off_c, 1, 69, 0
1, 330, Note_off_c, 1, 64, 0
1, 333, Note_off_c, 1, 77, 0
1, 336, Note_on_c, 1, 76, 127
1, 336, Note_on_c, 1, 73, 127
1, 336, Note_on_c, 1, 69, 127
1, 336, Note_on_c, 1, 64, 127
1, 357, Note_off_c, 1, 76, 0
1, 360, Note_on_c, 1, 79, 127
1, 370, Note_off_c, 1, 79, 0
1, 372, Note_on_c, 1, 77, 127
1, 378, Note_off_c, 1, 73, 0
1, 378, Note_off_c, 1, 69, 0
1, 378, Note_off_c, 1, 64, 0
1, 382, Note_off_c, 1, 77, 0
1, 384, Note_on_c, 1, 79, 127
1, 384, Note_on_c, 1, 73, 127
1, 384, Note_on_c, 1, 64, 127
1, 384, Note_on_c, 1, 45, 127
1, 384, Note_on_c, 1, 69, 127
1, 384, Note_on_c, 1, 33, 127
1, 426, Note_off_c, 1, 69, 0
1, 468, Note_off_c, 1, 45, 0
1, 468, Note_off_c, 1, 33, 0
1, 474, Note_off_c, 1, 73, 0
1, 474, Note_off_c, 1, 64, 0
1, 522, Note_off_c, 1, 79, 0
1, 528, Note_on_c, 1, 81, 127
1, 528, Note_on_c, 1, 73, 127
1, 528, Note_on_c, 1, 69, 127
1, 528, Note_on_c, 1, 64, 127
1, 549, Note_off_c, 1, 81, 0
1, 552, Note_on_c, 1, 82, 127
1, 570, Note_off_c, 1, 73, 0
1, 570, Note_off_c, 1, 69, 0
1, 570, Note_off_c, 1, 64, 0
1, 573, Note_off_c, 1, 82, 0
1, 576, Note_on_c, 1, 81, 127
1, 576, Note_on_c, 1, 73, 127
1, 576, Note_on_c, 1, 69, 127
1, 576, Note_on_c, 1, 64, 127
1, 597, Note_off_c, 1, 81, 0
1, 600, Note_on_c, 1, 79, 127
1, 618, Note_off_c, 1, 73, 0
1, 618, Note_off_c, 1, 69, 0
1, 618, Note_off_c, 1, 64, 0
1, 621, Note_off_c, 1, 79, 0
1, 624, Note_on_c, 1, 77, 127
1, 624, Note_on_c, 1, 73, 127
1, 624, Note_on_c, 1, 69, 127
1, 624, Note_on_c, 1, 64, 127
1, 645, Note_off_c, 1, 77, 0
1, 648, Note_on_c, 1, 79, 127
1, 658, Note_off_c, 1, 79, 0
1, 660, Note_on_c, 1, 76, 127
1, 666, Note_off_c, 1, 73, 0
1, 666, Note_off_c, 1, 69, 0
1, 666, Note_off_c, 1, 64, 0
1, 670, Note_off_c, 1, 76, 0
1, 672, Note_on_c, 1, 77, 127
1, 672, Note_on_c, 1, 71, 127
1, 672, Note_on_c, 1, 68, 127
1, 672, Note_on_c, 1, 45, 127
1, 672, Note_on_c, 1, 74, 127
1, 672, Note_on_c, 1, 62, 127
1, 672, Note_on_c, 1, 33, 127
1, 682, Note_off_c, 1, 77, 0
1, 684, Note_on_c, 1, 79, 127
1, 694, Note_off_c, 1, 79, 0
1, 708, Note_on_c, 1, 76, 127
1, 714, Note_off_c, 1, 74, 0
1, 718, Note_off_c, 1, 76, 0
1, 756, Note_off_c, 1, 68, 0
1, 756, Note_off_c, 1, 45, 0
1, 756, Note_off_c, 1, 33, 0
1, 756, Note_on_c, 1, 73, 127
1, 762, Note_off_c, 1, 71, 0
1, 762, Note_off_c, 1, 62, 0
1, 766, Note_off_c, 1, 73, 0
1, 768, Note_on_c, 1, 74, 127
1, 768, Note_on_c, 1, 71, 127
1, 768, Note_on_c, 1, 62, 127
1, 810, Note_off_c, 1, 71, 0
1, 810, Note_off_c, 1, 62, 0
1, 840, Note_on_c, 1, 73, 127
1, 850, Note_off_c, 1, 73, 0
1, 862, Note_off_c, 1, 74, 0
1, 864, Note_on_c, 1, 76, 127
1, 864, Note_on_c, 1, 74, 127
1, 864, Note_on_c, 1, 71, 127
1, 864, Note_on_c, 1, 62, 127
1, 869, Note_off_c, 1, 76, 0
1, 900, Note_on_c, 1, 73, 127
1, 906, Note_off_c, 1, 74, 0
1, 906, Note_off_c, 1, 71, 0
1, 906, Note_off_c, 1, 62, 0
1, 910, Note_off_c, 1, 73, 0
1, 912, Note_on_c, 1, 74, 127
1, 912, Note_on_c, 1, 71, 127
1, 912, Note_on_c, 1, 62, 127
1, 924, Note_on_c, 1, 76, 127
1, 934, Note_off_c, 1, 76, 0
1, 936, Note_on_c, 1, 73, 127
1, 954, Note_off_c, 1, 74, 0
1, 954, Note_off_c, 1, 71, 0
1, 954, Note_off_c, 1, 62, 0
1, 957, Note_off_c, 1, 73, 0
1, 960, Note_on_c, 1, 74, 127
1, 960, Note_on_c, 1, 69, 127
1, 960, Note_on_c, 1, 64, 127
1, 960, Note_on_c, 1, 43, 127
1, 960, Note_on_c, 1, 76, 127
1, 960, Note_on_c, 1, 73, 127
1, 960, Note_on_c, 1, 55, 127
1, 965, Note_off_c, 1, 74, 0
1, 1002, Note_off_c, 1, 55, 0
1, 1032, Note_on_c, 1, 82, 127
1, 1044, Note_off_c, 1, 69, 0
1, 1044, Note_off_c, 1, 64, 0
1, 1044, Note_off_c, 1, 76, 0
1, 1044, Note_off_c, 1, 73, 0
1, 1050, Note_off_c, 1, 43, 0
1, 1053, Note_off_c, 1, 82, 0
1, 1056, Note_on_c, 1, 81, 127
1, 1056, Note_on_c, 1, 69, 127
1, 1056, Note_on_c, 1, 65, 127
1, 1056, Note_on_c, 1, 41, 127
1, 1056, Note_on_c, 1, 53, 127
1, 1077, Note_off_c, 1, 81, 0
1, 1080, Note_on_c, 1, 79, 127
1, 1090, Note_off_c, 1, 79, 0
1, 1092, Note_on_c, 1, 77, 127
1, 1098, Note_off_c, 1, 53, 0
1, 1102, Note_off_c, 1, 77, 0
1, 1104, Note_on_c, 1, 76, 127
1, 1104, Note_on_c, 1, 71, 127
1, 1114, Note_off_c, 1, 76, 0
1, 1116, Note_on_c, 1, 74, 127
1, 1126, Note_off_c, 1, 74, 0
1, 1128, Note_on_c, 1, 73, 127
1, 1138, Note_off_c, 1, 73, 0
1, 1140, Note_off_c, 1, 69, 0
1, 1140, Note_off_c, 1, 65, 0
1, 1146, Note_off_c, 1, 41, 0
1, 1146, Note_off_c, 1, 71, 0
1, 1152, Note_on_c, 1, 76, 127
1, 1152, Note_on_c, 1, 73, 127
1, 1152, Note_on_c, 1, 67, 127
1, 1152, Note_on_c, 1, 40, 127
1, 1152, Note_on_c, 1, 52, 127
1, 1173, Note_off_c, 1, 76, 0
1, 1176, Note_on_c, 1, 77, 127
1, 1186, Note_off_c, 1, 77, 0
1, 1188, Note_on_c, 1, 79, 127
1, 1194, Note_off_c, 1, 52, 0
1, 1198, Note_off_c, 1, 79, 0
1, 1236, Note_off_c, 1, 73, 0
1, 1236, Note_off_c, 1, 67, 0
1, 1242, Note_off_c, 1, 40, 0
1, 1248, Note_on_c, 1, 77, 127
1, 1248, Note_on_c, 1, 74, 127
1, 1248, Note_on_c, 1, 69, 127
1, 1248, Note_on_c, 1, 38, 127
1, 1248, Note_on_c, 1, 86, 127
1, 1248, Note_on_c, 1, 65, 127
1, 1248, Note_on_c, 1, 50, 127
1, 1290, Note_off_c, 1, 77, 0
1, 1332, Note_off_c, 1, 38, 0
1, 1332, Note_off_c, 1, 65, 0
1, 1332, Note_off_c, 1, 50, 0
1, 1338, Note_off_c, 1, 74, 0
1, 1338, Note_off_c, 1, 69, 0
1, 1386, Note_off_c, 1, 86, 0
1, 1392, Note_on_c, 1, 77, 127
1, 1392, Note_on_c, 1, 74, 127
1, 1392, Note_on_c, 1, 69, 127
1, 1392, Note_on_c, 1, 87, 127
1, 1413, Note_off_c, 1, 87, 0
1, 1416, Note_on_c, 1, 86, 127
1, 1434, Note_off_c, 1, 77, 0
1, 1434, Note_off_c, 1, 74, 0
1, 1434, Note_off_c, 1, 69, 0
1, 1437, Note_off_c, 1, 86, 0
1, 1440, Note_on_c, 1, 77, 127
1, 1440, Note_on_c, 1, 74, 127
1, 1440, Note_on_c, 1, 69, 127
1, 1440, Note_on_c, 1, 84, 127
1, 1461, Note_off_c, 1, 84, 0
1, 1464, Note_on_c, 1, 82, 127
1, 1482, Note_off_c, 1, 77, 0
1, 1482, Note_off_c, 1, 74, 0
1, 1482, Note_off_c, 1, 69, 0
1, 1485, Note_off_c, 1, 82, 0
1, 1488, Note_on_c, 1, 77, 127
1, 1488, Note_on_c, 1, 74, 127
1, 1488, Note_on_c, 1, 69, 127
1, 1488, Note_on_c, 1, 81, 127
1, 1509, Note_off_c, 1, 81, 0
1, 1512, Note_on_c, 1, 84, 127
1, 1522, Note_off_c, 1, 84, 0
1, 1530, Note_off_c, 1, 77, 0
1, 1530, Note_off_c, 1, 74, 0
1, 1530, Note_off_c, 1, 69, 0
1, 1536, Note_on_c, 1, 78, 127
1, 1536, Note_on_c, 1, 74, 127
1, 1536, Note_on_c, 1, 69, 127
1, 1536, Note_on_c, 1, 50, 127
1, 1536, Note_on_c, 1, 84, 127
1, 1536, Note_on_c, 1, 66, 127
1, 1536, Note_on_c, 1, 57, 127
1, 1536, Note_on_c, 1, 38, 127
1, 1578, Note_off_c, 1, 78, 0
1, 1620, Note_off_c, 1, 50, 0
1, 1620, Note_off_c, 1, 66, 0
1, 1620, Note_off_c, 1, 57, 0
1, 1620, Note_off_c, 1, 38, 0
1, 1626, Note_off_c, 1, 74, 0
1, 1626, Note_off_c, 1, 69, 0
1, 1674, Note_off_c, 1, 84, 0
1, 1680, Note_on_c, 1, 78, 127
1, 1680, Note_on_c, 1, 74, 127
1, 1680, Note_on_c, 1, 69, 127
1, 1680, Note_on_c, 1, 86, 127
1, 1701, Note_off_c, 1, 86, 0
1, 1704, Note_on_c, 1, 87, 127
1, 1722, Note_off_c, 1, 78, 0
1, 1722, Note_off_c, 1, 74, 0
1, 1722, Note_off_c, 1, 69, 0
1, 1725, Note_off_c, 1, 87, 0
1, 1728, Note_on_c, 1, 78, 127
1, 1728, Note_on_c, 1, 74, 127
1, 1728, Note_on_c, 1, 69, 127
1, 1728, Note_on_c, 1, 86, 127
1, 1749, Note_off_c, 1, 86, 0
1, 1752, Note_on_c, 1, 84, 127
1, 1770, Note_off_c, 1, 78, 0
1, 1770, Note_off_c, 1, 74, 0
1, 1770, Note_off_c, 1, 69, 0
1, 1773, Note_off_c, 1, 84, 0
1, 1776, Note_on_c, 1, 78, 127
1, 1776, Note_on_c, 1, 74, 127
1, 1776, Note_on_c, 1, 69, 127
1, 1776, Note_on_c, 1, 82, 127
1, 1797, Note_off_c, 1, 82, 0
1, 1800, Note_on_c, 1, 84, 127
1, 1810, Note_off_c, 1, 84, 0
1, 1812, Note_on_c, 1, 81, 127
1, 1818, Note_off_c, 1, 78, 0
1, 1818, Note_off_c, 1, 74, 0
1, 1818, Note_off_c, 1, 69, 0
1, 1822, Note_off_c, 1, 81, 0
1, 1824, Note_on_c, 1, 79, 127
1, 1824, Note_on_c, 1, 76, 127
1, 1824, Note_on_c, 1, 67, 127
1, 1824, Note_on_c, 1, 50, 127
1, 1824, Note_on_c, 1, 82, 127
1, 1824, Note_on_c, 1, 64, 127
1, 1824, Note_on_c, 1, 61, 127
1, 1824, Note_on_c, 1, 38, 127
1, 1834, Note_off_c, 1, 82, 0
1, 1836, Note_on_c, 1, 84, 127
1, 1846, Note_off_c, 1, 84, 0
1, 1860, Note_on_c, 1, 81, 127
1, 1866, Note_off_c, 1, 79, 0
1, 1870, Note_off_c, 1, 81, 0
1, 1908, Note_off_c, 1, 50, 0
1, 1908, Note_off_c, 1, 64, 0
1, 1908, Note_off_c, 1, 61, 0
1, 1908, Note_off_c, 1, 38, 0
1, 1908, Note_on_c, 1, 78, 127
1, 1914, Note_off_c, 1, 76, 0
1, 1914, Note_off_c, 1, 67, 0
1, 1918, Note_off_c, 1, 78, 0
1, 1920, Note_on_c, 1, 79, 127
1, 1920, Note_on_c, 1, 76, 127
1, 1920, Note_on_c, 1, 67, 127
1, 1962, Note_off_c, 1, 76, 0
1, 1962, Note_off_c, 1, 67, 0
1, 1992, Note_on_c, 1, 78, 127
1, 2002, Note_off_c, 1, 78, 0
1, 2014, Note_off_c, 1, 79, 0
1, 2016, Note_on_c, 1, 79, 127
1, 2016, Note_on_c, 1, 76, 127
1, 2016, Note_on_c, 1, 67, 127
1, 2016, Note_on_c, 1, 81, 127
1, 2021, Note_off_c, 1, 81, 0
1, 2052, Note_on_c, 1, 78, 127
1, 2058, Note_off_c, 1, 79, 0
1, 2058, Note_off_c, 1, 76, 0
1, 2058, Note_off_c, 1, 67, 0
1, 2062, Note_off_c, 1, 78, 0
1, 2064, Note_on_c, 1, 79, 127
1, 2064, Note_on_c, 1, 76, 127
1, 2064, Note_on_c, 1, 67, 127
1, 2076, Note_on_c, 1, 81, 127
1, 2086, Note_off_c, 1, 81, 0
1, 2088, Note_on_c, 1, 78, 127
1, 2106, Note_off_c, 1, 79, 0
1, 2106, Note_off_c, 1, 76, 0
1, 2106, Note_off_c, 1, 67, 0
1, 2109, Note_off_c, 1, 78, 0
1, 2112, Note_on_c, 1, 81, 127
1, 2112, Note_on_c, 1, 78, 127
1, 2112, Note_on_c, 1, 74, 127
1, 2112, Note_on_c, 1, 48, 127
1, 2112, Note_on_c, 1, 79, 127
1, 2112, Note_on_c, 1, 62, 127
1, 2112, Note_on_c, 1, 69, 127
1, 2112, Note_on_c, 1, 36, 127
1, 2112, Note_on_c, 1, 66, 127
1, 2117, Note_off_c, 1, 79, 0
1, 2154, Note_off_c, 1, 36, 0
1, 2184, Note_on_c, 1, 87, 127
1, 2196, Note_off_c, 1, 81, 0
1, 2196, Note_off_c, 1, 78, 0
1, 2196, Note_off_c, 1, 74, 0
1, 2196, Note_off_c, 1, 62, 0
1, 2196, Note_off_c, 1, 69, 0
1, 2196, Note_off_c, 1, 66, 0
1, 2202, Note_off_c, 1, 48, 0
1, 2205, Note_off_c, 1, 87, 0
1, 2208, Note_on_c, 1, 46, 127
1, 2208, Note_on_c, 1, 86, 127
1, 2208, Note_on_c, 1, 79, 127
1, 2208, Note_on_c, 1, 74, 127
1, 2208, Note_on_c, 1, 70, 127
1, 2208, Note_on_c, 1, 34, 127
1, 2208, Note_on_c, 1, 62, 127
1, 2208, Note_on_c, 1, 67, 127
1, 2229, Note_off_c, 1, 86, 0
1, 2232, Note_on_c, 1, 84, 127
1, 2242, Note_off_c, 1, 84, 0
1, 2244, Note_on_c, 1, 82, 127
1, 2250, Note_off_c, 1, 74, 0
1, 2250, Note_off_c, 1, 34, 0
1, 2254, Note_off_c, 1, 82, 0
1, 2256, Note_on_c, 1, 81, 127
1, 2256, Note_on_c, 1, 76, 127
1, 2266, Note_off_c, 1, 81, 0
1, 2280, Note_on_c, 1, 78, 127
1, 2290, Note_off_c, 1, 78, 0
1, 2292, Note_off_c, 1, 70, 0
1, 2292, Note_off_c, 1, 62, 0
1, 2292, Note_off_c, 1, 67, 0
1, 2298, Note_off_c, 1, 46, 0
1, 2298, Note_off_c, 1, 76, 0
1, 2302, Note_off_c, 1, 79, 0
1, 2304, Note_on_c, 1, 45, 127
1, 2304, Note_on_c, 1, 81, 127
1, 2304, Note_on_c, 1, 78, 127
1, 2304, Note_on_c, 1, 72, 127
1, 2304, Note_on_c, 1, 33, 127
1, 2304, Note_on_c, 1, 60, 127
1, 2304, Note_on_c, 1, 66, 127
1, 2328, Note_on_c, 1, 82, 127
1, 2338, Note_off_c, 1, 82, 0
1, 2340, Note_on_c, 1, 84, 127
1, 2346, Note_off_c, 1, 33, 0
1, 2350, Note_off_c, 1, 84, 0
1, 2388, Note_off_c, 1, 78, 0
1, 2388, Note_off_c, 1, 72, 0
1, 2388, Note_off_c, 1, 60, 0
1, 2388, Note_off_c, 1, 66, 0
1, 2394, Note_off_c, 1, 45, 0
1, 2398, Note_off_c, 1, 81, 0
1, 2400, Note_on_c, 1, 79, 127
1, 2400, Note_on_c, 1, 74, 127
1, 2400, Note_on_c, 1, 70, 127
1, 2400, Note_on_c, 1, 55, 127
1, 2400, Note_on_c, 1, 82, 127
1, 2400, Note_on_c, 1, 31, 127
1, 2400, Note_on_c, 1, 43, 127
1, 2400, Note_on_c, 1, 62, 127
1, 2448, Note_on_c, 1, 78, 127
1, 2448, Note_on_c, 1, 72, 127
1, 2448, Note_on_c, 1, 69, 127
1, 2484, Note_off_c, 1, 79, 0
1, 2484, Note_off_c, 1, 74, 0
1, 2484, Note_off_c, 1, 70, 0
1, 2484, Note_off_c, 1, 82, 0
1, 2484, Note_off_c, 1, 31, 0
1, 2484, Note_off_c, 1, 62, 0
1, 2490, Note_off_c, 1, 78, 0
1, 2490, Note_off_c, 1, 72, 0
1, 2490, Note_off_c, 1, 69, 0
1, 2496, Note_on_c, 1, 67, 127
1, 2538, Note_off_c, 1, 55, 0
1, 2538, Note_off_c, 1, 43, 0
1, 2538, Note_off_c, 1, 67, 0
1, 2544, Note_on_c, 1, 56, 127
1, 2544, Note_on_c, 1, 66, 127
1, 2544, Note_on_c, 1, 60, 127
1, 2544, Note_on_c, 1, 44, 127
1, 2565, Note_off_c, 1, 56, 0
1, 2565, Note_off_c, 1, 44, 0
1, 2586, Note_off_c, 1, 66, 0
1, 2586, Note_off_c, 1, 60, 0
1, 2592, Note_on_c, 1, 53, 127
1, 2592, Note_on_c, 1, 70, 127
1, 2592, Note_on_c, 1, 67, 127
1, 2592, Note_on_c, 1, 62, 127
1, 2592, Note_on_c, 1, 41, 127
1, 2613, Note_off_c, 1, 53, 0
1, 2613, Note_off_c, 1, 41, 0
1, 2616, Note_on_c, 1, 51, 127
1, 2616, Note_on_c, 1, 39, 127
1, 2637, Note_off_c, 1, 51, 0
1, 2637, Note_off_c, 1, 39, 0
1, 2640, Note_on_c, 1, 50, 127
1, 2640, Note_on_c, 1, 38, 127
1, 2661, Note_off_c, 1, 50, 0
1, 2661, Note_off_c, 1, 38, 0
1, 2676, Note_off_c, 1, 70, 0
1, 2676, Note_off_c, 1, 67, 0
1, 2676, Note_off_c, 1, 62, 0
1, 2688, Note_on_c, 1, 79, 127
1, 2688, Note_on_c, 1, 74, 127
1, 2688, Note_on_c, 1, 71, 127
1, 2688, Note_on_c, 1, 53, 127
1, 2688, Note_on_c, 1, 41, 127
1, 2688, Note_on_c, 1, 62, 127
1, 2730, Note_off_c, 1, 79, 0
1, 2730, Note_off_c, 1, 74, 0
1, 2736, Note_on_c, 1, 77, 127
1, 2736, Note_on_c, 1, 72, 127
1, 2736, Note_on_c, 1, 69, 127
1, 2772, Note_off_c, 1, 71, 0
1, 2772, Note_off_c, 1, 62, 0
1, 2778, Note_off_c, 1, 77, 0
1, 2778, Note_off_c, 1, 72, 0
1, 2778, Note_off_c, 1, 69, 0
1, 2784, Note_on_c, 1, 67, 127
1, 2826, Note_off_c, 1, 53, 0
1, 2826, Note_off_c, 1, 41, 0
1, 2826, Note_off_c, 1, 67, 0
1, 2832, Note_on_c, 1, 55, 127
1, 2832, Note_on_c, 1, 65, 127
1, 2832, Note_on_c, 1, 60, 127
1, 2832, Note_on_c, 1, 43, 127
1, 2853, Note_off_c, 1, 55, 0
1, 2853, Note_off_c, 1, 43, 0
1, 2856, Note_on_c, 1, 56, 127
1, 2856, Note_on_c, 1, 44, 127
1, 2874, Note_off_c, 1, 65, 0
1, 2874, Note_off_c, 1, 60, 0
1, 2877, Note_off_c, 1, 56, 0
1, 2877, Note_off_c, 1, 44, 0
1, 2880, Note_on_c, 1, 55, 127
1, 2880, Note_on_c, 1, 71, 127
1, 2880, Note_on_c, 1, 67, 127
1, 2880, Note_on_c, 1, 62, 127
1, 2880, Note_on_c, 1, 43, 127
1, 2901, Note_off_c, 1, 55, 0
1, 2901, Note_off_c, 1, 43, 0
1, 2904, Note_on_c, 1, 53, 127
1, 2904, Note_on_c, 1, 41, 127
1, 2925, Note_off_c, 1, 53, 0
1, 2925, Note_off_c, 1, 41, 0
1, 2928, Note_on_c, 1, 51, 127
1, 2928, Note_on_c, 1, 39, 127
1, 2949, Note_off_c, 1, 51, 0
1, 2949, Note_off_c, 1, 39, 0
1, 2964, Note_off_c, 1, 71, 0
1, 2964, Note_off_c, 1, 67, 0
1, 2964, Note_off_c, 1, 62, 0
1, 2964, Note_on_c, 1, 50, 127
1, 2964, Note_on_c, 1, 38, 127
1, 2974, Note_off_c, 1, 50, 0
1, 2974, Note_off_c, 1, 38, 0
1, 2976, Note_on_c, 1, 79, 127
1, 2976, Note_on_c, 1, 75, 127
1, 2976, Note_on_c, 1, 72, 127
1, 2976, Note_on_c, 1, 51, 127
1, 2976, Note_on_c, 1, 39, 127
1, 2976, Note_on_c, 1, 60, 127
1, 2976, Note_on_c, 1, 67, 127
1, 3018, Note_off_c, 1, 79, 0
1, 3018, Note_off_c, 1, 75, 0
1, 3018, Note_off_c, 1, 72, 0
1, 3024, Note_on_c, 1, 77, 127
1, 3024, Note_on_c, 1, 74, 127
1, 3024, Note_on_c, 1, 71, 127
1, 3060, Note_off_c, 1, 60, 0
1, 3060, Note_off_c, 1, 67, 0
1, 3066, Note_off_c, 1, 77, 0
1, 3066, Note_off_c, 1, 74, 0
1, 3066, Note_off_c, 1, 71, 0
1, 3072, Note_on_c, 1, 63, 127
1, 3093, Note_off_c, 1, 51, 0
1, 3093, Note_off_c, 1, 39, 0
1, 3096, Note_on_c, 1, 53, 127
1, 3096, Note_on_c, 1, 41, 127
1, 3114, Note_off_c, 1, 63, 0
1, 3117, Note_off_c, 1, 53, 0
1, 3117, Note_off_c, 1, 41, 0
1, 3120, Note_on_c, 1, 65, 127
1, 3120, Note_on_c, 1, 62, 127
1, 3120, Note_on_c, 1, 40, 127
1, 3141, Note_off_c, 1, 40, 0
1, 3144, Note_on_c, 1, 50, 127
1, 3144, Note_on_c, 1, 38, 127
1, 3162, Note_off_c, 1, 65, 0
1, 3162, Note_off_c, 1, 62, 0
1, 3165, Note_off_c, 1, 50, 0
1, 3165, Note_off_c, 1, 38, 0
1, 3168, Note_on_c, 1, 48, 127
1, 3168, Note_on_c, 1, 72, 127
1, 3168, Note_on_c, 1, 67, 127
1, 3168, Note_on_c, 1, 63, 127
1, 3168, Note_on_c, 1, 36, 127
1, 3189, Note_off_c, 1, 48, 0
1, 3189, Note_off_c, 1, 36, 0
1, 3192, Note_on_c, 1, 50, 127
1, 3192, Note_on_c, 1, 38, 127
1, 3213, Note_off_c, 1, 50, 0
1, 3213, Note_off_c, 1, 38, 0
1, 3216, Note_on_c, 1, 47, 127
1, 3216, Note_on_c, 1, 35, 127
1, 3237, Note_off_c, 1, 47, 0
1, 3237, Note_off_c, 1, 35, 0
1, 3252, Note_off_c, 1, 72, 0
1, 3252, Note_off_c, 1, 67, 0
1, 3252, Note_off_c, 1, 63, 0
1, 3264, Note_on_c, 1, 77, 127
1, 3264, Note_on_c, 1, 74, 127
1, 3264, Note_on_c, 1, 71, 127
1, 3264, Note_on_c, 1, 44, 127
1, 3264, Note_on_c, 1, 32, 127
1, 3264, Note_on_c, 1, 62, 127
1, 3306, Note_off_c, 1, 32, 0
1, 3348, Note_off_c, 1, 74, 0
1, 3348, Note_off_c, 1, 71, 0
1, 3348, Note_off_c, 1, 62, 0
1, 3354, Note_off_c, 1, 44, 0
1, 3384, Note_on_c, 1, 79, 127
1, 3405, Note_off_c, 1, 79, 0
1, 3432, Note_on_c, 1, 76, 127
1, 3453, Note_off_c, 1, 76, 0
1, 3477, Note_off_c, 1, 77, 0
1, 3480, Note_on_c, 1, 72, 127
1, 3501, Note_off_c, 1, 72, 0
1, 3552, Note_on_c, 1, 74, 127
1, 3552, Note_on_c, 1, 71, 127
1, 3552, Note_on_c, 1, 68, 127
1, 3552, Note_on_c, 1, 40, 127
1, 3552, Note_on_c, 1, 28, 127
1, 3576, Note_on_c, 1, 72, 127
1, 3594, Note_off_c, 1, 28, 0
1, 3597, Note_off_c, 1, 72, 0
1, 3636, Note_off_c, 1, 71, 0
1, 3636, Note_off_c, 1, 68, 0
1, 3642, Note_off_c, 1, 40, 0
1, 3696, Note_on_c, 1, 76, 127
1, 3717, Note_off_c, 1, 76, 0
1, 3720, Note_on_c, 1, 77, 127
1, 3741, Note_off_c, 1, 77, 0
1, 3789, Note_off_c, 1, 74, 0
1, 3840, Note_on_c, 1, 72, 127
1, 3840, Note_on_c, 1, 69, 127
1, 3840, Note_on_c, 1, 64, 127
1, 3840, Note_on_c, 1, 40, 127
1, 3840, Note_on_c, 1, 76, 127
1, 3840, Note_on_c, 1, 28, 127
1, 3840, Note_on_c, 1, 60, 127
1, 3850, Note_off_c, 1, 72, 0
1, 3852, Note_on_c, 1, 74, 127
1, 3861, Note_off_c, 1, 76, 0
1, 3862, Note_off_c, 1, 74, 0
1, 3876, Note_on_c, 1, 71, 127
1, 3882, Note_off_c, 1, 28, 0
1, 3886, Note_off_c, 1, 71, 0
1, 3912, Note_on_c, 1, 68, 127
1, 3922, Note_off_c, 1, 68, 0
1, 3924, Note_off_c, 1, 64, 0
1, 3924, Note_off_c, 1, 60, 0
1, 3930, Note_off_c, 1, 40, 0
1, 3934, Note_off_c, 1, 69, 0
1, 3936, Note_on_c, 1, 71, 127
1, 3936, Note_on_c, 1, 39, 127
1, 3936, Note_on_c, 1, 72, 127
1, 3936, Note_on_c, 1, 69, 127
1, 3936, Note_on_c, 1, 66, 127
1, 3936, Note_on_c, 1, 27, 127
1, 3941, Note_off_c, 1, 71, 0
1, 3960, Note_on_c, 1, 74, 127
1, 3978, Note_off_c, 1, 27, 0
1, 3981, Note_off_c, 1, 74, 0
1, 4020, Note_off_c, 1, 72, 0
1, 4020, Note_off_c, 1, 69, 0
1, 4020, Note_off_c, 1, 66, 0
1, 4026, Note_off_c, 1, 39, 0
1, 4032, Note_on_c, 1, 69, 127
1, 4032, Note_on_c, 1, 39, 127
1, 4032, Note_on_c, 1, 27, 127
1, 4032, Note_on_c, 1, 57, 127
1, 4056, Note_on_c, 1, 68, 127
1, 4056, Note_on_c, 1, 71, 127
1, 4074, Note_off_c, 1, 27, 0
1, 4077, Note_off_c, 1, 68, 0
1, 4077, Note_off_c, 1, 71, 0
1, 4116, Note_off_c, 1, 57, 0
1, 4122, Note_off_c, 1, 39, 0
1, 4125, Note_off_c, 1, 69, 0
1, 4128, Note_on_c, 1, 69, 127
1, 4128, Note_on_c, 1, 71, 127
1, 4128, Note_on_c, 1, 64, 127
1, 4128, Note_on_c, 1, 50, 127
1, 4128, Note_on_c, 1, 68, 127
1, 4128, Note_on_c, 1, 38, 127
1, 4128, Note_on_c, 1, 58, 127
1, 4133, Note_off_c, 1, 69, 0
1, 4170, Note_off_c, 1, 38, 0
1, 4200, Note_on_c, 1, 77, 127
1, 4212, Note_off_c, 1, 71, 0
1, 4212, Note_off_c, 1, 58, 0
1, 4218, Note_off_c, 1, 64, 0
1, 4218, Note_off_c, 1, 50, 0
1, 4218, Note_off_c, 1, 68, 0
1, 4221, Note_off_c, 1, 77, 0
1, 4224, Note_on_c, 1, 76, 127
1, 4224, Note_on_c, 1, 69, 127
1, 4224, Note_on_c, 1, 64, 127
1, 4224, Note_on_c, 1, 48, 127
1, 4224, Note_on_c, 1, 36, 127
1, 4245, Note_off_c, 1, 76, 0
1, 4248, Note_on_c, 1, 74, 127
1, 4248, Note_on_c, 1, 77, 127
1, 4258, Note_off_c, 1, 74, 0
1, 4258, Note_off_c, 1, 77, 0
1, 4260, Note_on_c, 1, 72, 127
1, 4266, Note_off_c, 1, 36, 0
1, 4270, Note_off_c, 1, 72, 0
1, 4272, Note_on_c, 1, 71, 127
1, 4272, Note_on_c, 1, 66, 127
1, 4282, Note_off_c, 1, 71, 0
1, 4296, Note_on_c, 1, 68, 127
1, 4306, Note_off_c, 1, 68, 0
1, 4308, Note_off_c, 1, 64, 0
1, 4314, Note_off_c, 1, 48, 0
1, 4314, Note_off_c, 1, 66, 0
1, 4318, Note_off_c, 1, 69, 0
1, 4320, Note_on_c, 1, 71, 127
1, 4320, Note_on_c, 1, 62, 127
1, 4320, Note_on_c, 1, 68, 127
1, 4320, Note_on_c, 1, 47, 127
1, 4320, Note_on_c, 1, 35, 127
1, 4341, Note_off_c, 1, 71, 0
1, 4344, Note_on_c, 1, 72, 127
1, 4344, Note_on_c, 1, 69, 127
1, 4354, Note_off_c, 1, 72, 0
1, 4354, Note_off_c, 1, 69, 0
1, 4356, Note_on_c, 1, 74, 127
1, 4362, Note_off_c, 1, 35, 0
1, 4366, Note_off_c, 1, 74, 0
1, 4404, Note_off_c, 1, 62, 0
1, 4410, Note_off_c, 1, 47, 0
1, 4414, Note_off_c, 1, 68, 0
1, 4416, Note_on_c, 1, 72, 127
1, 4416, Note_on_c, 1, 69, 127
1, 4416, Note_on_c, 1, 64, 127
1, 4416, Note_on_c, 1, 45, 127
1, 4416, Note_on_c, 1, 33, 127
1, 4458, Note_off_c, 1, 33, 0
1, 4488, Note_on_c, 1, 82, 127
1, 4500, Note_off_c, 1, 69, 0
1, 4500, Note_off_c, 1, 64, 0
1, 4506, Note_off_c, 1, 45, 0
1, 4509, Note_off_c, 1, 82, 0
1, 4512, Note_on_c, 1, 47, 127
1, 4512, Note_on_c, 1, 81, 127
1, 4512, Note_on_c, 1, 74, 127
1, 4512, Note_on_c, 1, 77, 127
1, 4512, Note_on_c, 1, 62, 127
1, 4512, Note_on_c, 1, 35, 127
1, 4512, Note_on_c, 1, 65, 127
1, 4533, Note_off_c, 1, 81, 0
1, 4536, Note_on_c, 1, 79, 127
1, 4546, Note_off_c, 1, 79, 0
1, 4548, Note_off_c, 1, 72, 0
1, 4554, Note_off_c, 1, 35, 0
1, 4560, Note_on_c, 1, 71, 127
1, 4560, Note_on_c, 1, 76, 127
1, 4570, Note_off_c, 1, 76, 0
1, 4584, Note_on_c, 1, 73, 127
1, 4594, Note_off_c, 1, 73, 0
1, 4596, Note_off_c, 1, 77, 0
1, 4596, Note_off_c, 1, 62, 0
1, 4596, Note_off_c, 1, 65, 0
1, 4602, Note_off_c, 1, 47, 0
1, 4602, Note_off_c, 1, 71, 0
1, 4606, Note_off_c, 1, 74, 0
1, 4608, Note_on_c, 1, 70, 127
1, 4608, Note_on_c, 1, 49, 127
1, 4608, Note_on_c, 1, 76, 127
1, 4608, Note_on_c, 1, 69, 127
1, 4608, Note_on_c, 1, 37, 127
1, 4632, Note_on_c, 1, 77, 127
1, 4642, Note_off_c, 1, 77, 0
1, 4644, Note_on_c, 1, 79, 127
1, 4650, Note_off_c, 1, 70, 0
1, 4650, Note_off_c, 1, 37, 0
1, 4654, Note_off_c, 1, 79, 0
1, 4698, Note_off_c, 1, 49, 0
1, 4698, Note_off_c, 1, 69, 0
1, 4702, Note_off_c, 1, 76, 0
1, 4704, Note_on_c, 1, 69, 127
1, 4704, Note_on_c, 1, 74, 127
1, 4704, Note_on_c, 1, 65, 127
1, 4704, Note_on_c, 1, 50, 127
1, 4704, Note_on_c, 1, 77, 127
1, 4704, Note_on_c, 1, 38, 127
1, 4746, Note_off_c, 1, 38, 0
1, 4788, Note_off_c, 1, 69, 0
1, 4788, Note_off_c, 1, 74, 0
1, 4788, Note_off_c, 1, 65, 0
1, 4794, Note_off_c, 1, 50, 0
1, 4800, Note_on_c, 1, 81, 127
1, 4800, Note_on_c, 1, 72, 127
1, 4800, Note_on_c, 1, 52, 127
1, 4800, Note_on_c, 1, 40, 127
1, 4800, Note_on_c, 1, 64, 127
1, 4836, Note_off_c, 1, 77, 0
1, 4842, Note_off_c, 1, 40, 0
1, 4848, Note_on_c, 1, 76, 127
1, 4890, Note_off_c, 1, 52, 0
1, 4890, Note_off_c, 1, 76, 0
1, 4896, Note_on_c, 1, 54, 127
1, 4896, Note_on_c, 1, 75, 127
1, 4896, Note_on_c, 1, 42, 127
1, 4938, Note_off_c, 1, 75, 0
1, 4938, Note_off_c, 1, 42, 0
1, 4980, Note_off_c, 1, 72, 0
1, 4980, Note_off_c, 1, 64, 0
1, 4986, Note_off_c, 1, 54, 0
1, 4992, Note_on_c, 1, 66, 127
1, 4992, Note_on_c, 1, 48, 127
1, 4992, Note_on_c, 1, 36, 127
1, 5013, Note_off_c, 1, 81, 0
1, 5016, Note_on_c, 1, 80, 127
1, 5034, Note_off_c, 1, 36, 0
1, 5037, Note_off_c, 1, 80, 0
1, 5064, Note_on_c, 1, 78, 127
1, 5076, Note_off_c, 1, 66, 0
1, 5082, Note_off_c, 1, 48, 0
1, 5085, Note_off_c, 1, 78, 0
1, 5088, Note_on_c, 1, 79, 127
1, 5088, Note_on_c, 1, 71, 127
1, 5088, Note_on_c, 1, 62, 127
1, 5088, Note_on_c, 1, 47, 127
1, 5088, Note_on_c, 1, 86, 127
1, 5088, Note_on_c, 1, 74, 127
1, 5088, Note_on_c, 1, 35, 127
1, 5088, Note_on_c, 1, 67, 127
1, 5109, Note_off_c, 1, 79, 0
1, 5112, Note_on_c, 1, 76, 127
1, 5130, Note_off_c, 1, 74, 0
1, 5130, Note_off_c, 1, 35, 0
1, 5133, Note_off_c, 1, 76, 0
1, 5136, Note_on_c, 1, 77, 127
1, 5136, Note_on_c, 1, 68, 127
1, 5157, Note_off_c, 1, 77, 0
1, 5160, Note_on_c, 1, 75, 127
1, 5172, Note_off_c, 1, 62, 0
1, 5172, Note_off_c, 1, 67, 0
1, 5178, Note_off_c, 1, 71, 0
1, 5178, Note_off_c, 1, 47, 0
1, 5178, Note_off_c, 1, 68, 0
1, 5181, Note_off_c, 1, 75, 0
1, 5184, Note_on_c, 1, 64, 127
1, 5184, Note_on_c, 1, 69, 127
1, 5184, Note_on_c, 1, 45, 127
1, 5184, Note_on_c, 1, 33, 127
1, 5184, Note_on_c, 1, 72, 127
1, 5208, Note_on_c, 1, 83, 127
1, 5220, Note_off_c, 1, 86, 0
1, 5226, Note_off_c, 1, 33, 0
1, 5229, Note_off_c, 1, 83, 0
1, 5232, Note_on_c, 1, 84, 127
1, 5256, Note_on_c, 1, 81, 127
1, 5268, Note_off_c, 1, 69, 0
1, 5268, Note_off_c, 1, 72, 0
1, 5274, Note_off_c, 1, 64, 0
1, 5274, Note_off_c, 1, 45, 0
1, 5274, Note_off_c, 1, 84, 0
1, 5277, Note_off_c, 1, 81, 0
1, 5280, Note_on_c, 1, 65, 127
1, 5280, Note_on_c, 1, 38, 127
1, 5280, Note_on_c, 1, 82, 127
1, 5280, Note_on_c, 1, 26, 127
1, 5304, Note_on_c, 1, 80, 127
1, 5322, Note_off_c, 1, 82, 0
1, 5322, Note_off_c, 1, 26, 0
1, 5325, Note_off_c, 1, 80, 0
1, 5364, Note_off_c, 1, 65, 0
1, 5370, Note_off_c, 1, 38, 0
1, 5376, Note_on_c, 1, 71, 127
1, 5376, Note_on_c, 1, 62, 127
1, 5376, Note_on_c, 1, 64, 127
1, 5376, Note_on_c, 1, 40, 127
1, 5376, Note_on_c, 1, 81, 127
1, 5376, Note_on_c, 1, 28, 127
1, 5376, Note_on_c, 1, 58, 127
1, 5376, Note_on_c, 1, 68, 127
1, 5381, Note_off_c, 1, 81, 0
1, 5382, Note_on_c, 1, 80, 127
1, 5387, Note_off_c, 1, 80, 0
1, 5418, Note_off_c, 1, 28, 0
1, 5460, Note_off_c, 1, 62, 0
1, 5460, Note_off_c, 1, 64, 0
1, 5460, Note_off_c, 1, 58, 0
1, 5460, Note_off_c, 1, 68, 0
1, 5466, Note_off_c, 1, 40, 0
1, 5472, Note_on_c, 1, 76, 127
1, 5520, Note_on_c, 1, 69, 127
1, 5556, Note_off_c, 1, 71, 0
1, 5556, Note_off_c, 1, 76, 0
1, 5562, Note_off_c, 1, 69, 0
1, 5568, Note_on_c, 1, 69, 127
1, 5568, Note_on_c, 1, 60, 127
1, 5568, Note_on_c, 1, 64, 127
1, 5568, Note_on_c, 1, 57, 127
1, 5568, Note_on_c, 1, 81, 127
1, 5568, Note_on_c, 1, 76, 127
1, 5568, Note_on_c, 1, 72, 127
1, 5568, Note_on_c, 1, 33, 127
1, 5568, Note_on_c, 1, 45, 127
1, 5610, Note_off_c, 1, 81, 0
1, 5610, Note_off_c, 1, 76, 0
1, 5616, Note_on_c, 1, 80, 127
1, 5616, Note_on_c, 1, 74, 127
1, 5616, Note_on_c, 1, 71, 127
1, 5652, Note_off_c, 1, 69, 0
1, 5652, Note_off_c, 1, 60, 0
1, 5652, Note_off_c, 1, 64, 0
1, 5652, Note_off_c, 1, 72, 0
1, 5652, Note_off_c, 1, 33, 0
1, 5658, Note_off_c, 1, 80, 0
1, 5658, Note_off_c, 1, 74, 0
1, 5658, Note_off_c, 1, 71, 0
1, 5706, Note_off_c, 1, 57, 0
1, 5706, Note_off_c, 1, 45, 0
1, 5712, Note_on_c, 1, 68, 127
1, 5712, Note_on_c, 1, 62, 127
1, 5712, Note_on_c, 1, 58, 127
1, 5712, Note_on_c, 1, 46, 127
1, 5733, Note_off_c, 1, 58, 0
1, 5733, Note_off_c, 1, 46, 0
1, 5754, Note_off_c, 1, 68, 0
1, 5754, Note_off_c, 1, 62, 0
1, 5760, Note_on_c, 1, 72, 127
1, 5760, Note_on_c, 1, 69, 127
1, 5760, Note_on_c, 1, 64, 127
1, 5760, Note_on_c, 1, 55, 127
1, 5760, Note_on_c, 1, 43, 127
1, 5781, Note_off_c, 1, 55, 0
1, 5781, Note_off_c, 1, 43, 0
1, 5784, Note_on_c, 1, 53, 127
1, 5784, Note_on_c, 1, 41, 127
1, 5805, Note_off_c, 1, 53, 0
1, 5805, Note_off_c, 1, 41, 0
1, 5808, Note_on_c, 1, 52, 127
1, 5808, Note_on_c, 1, 40, 127
1, 5829, Note_off_c, 1, 52, 0
1, 5829, Note_off_c, 1, 40, 0
1, 5844, Note_off_c, 1, 72, 0
1, 5844, Note_off_c, 1, 69, 0
1, 5844, Note_off_c, 1, 64, 0
1, 5856, Note_on_c, 1, 55, 127
1, 5856, Note_on_c, 1, 81, 127
1, 5856, Note_on_c, 1, 76, 127
1, 5856, Note_on_c, 1, 73, 127
1, 5856, Note_on_c, 1, 43, 127
1, 5856, Note_on_c, 1, 62, 127
1, 5856, Note_on_c, 1, 70, 127
1, 5898, Note_off_c, 1, 81, 0
1, 5898, Note_off_c, 1, 76, 0
1, 5898, Note_off_c, 1, 73, 0
1, 5904, Note_on_c, 1, 79, 127
1, 5904, Note_on_c, 1, 74, 127
1, 5904, Note_on_c, 1, 71, 127
1, 5940, Note_off_c, 1, 62, 0
1, 5940, Note_off_c, 1, 70, 0
1, 5946, Note_off_c, 1, 79, 0
1, 5946, Note_off_c, 1, 74, 0
1, 5946, Note_off_c, 1, 71, 0
1, 5952, Note_on_c, 1, 69, 127
1, 5952, Note_on_c, 1, 64, 127
1, 5952, Note_on_c, 1, 72, 127
1, 5994, Note_off_c, 1, 55, 0
1, 5994, Note_off_c, 1, 43, 0
1, 5994, Note_off_c, 1, 69, 0
1, 5994, Note_off_c, 1, 64, 0
1, 6000, Note_on_c, 1, 67, 127
1, 6000, Note_on_c, 1, 57, 127
1, 6000, Note_on_c, 1, 45, 127
1, 6021, Note_off_c, 1, 57, 0
1, 6021, Note_off_c, 1, 45, 0
1, 6024, Note_on_c, 1, 58, 127
1, 6024, Note_on_c, 1, 46, 127
1, 6036, Note_off_c, 1, 72, 0
1, 6042, Note_off_c, 1, 67, 0
1, 6045, Note_off_c, 1, 58, 0
1, 6045, Note_off_c, 1, 46, 0
1, 6048, Note_on_c, 1, 73, 127
1, 6048, Note_on_c, 1, 69, 127
1, 6048, Note_on_c, 1, 64, 127
1, 6048, Note_on_c, 1, 57, 127
1, 6048, Note_on_c, 1, 45, 127
1, 6069, Note_off_c, 1, 57, 0
1, 6069, Note_off_c, 1, 45, 0
1, 6072, Note_on_c, 1, 55, 127
1, 6072, Note_on_c, 1, 43, 127
1, 6093, Note_off_c, 1, 55, 0
1, 6093, Note_off_c, 1, 43, 0
1, 6096, Note_on_c, 1, 53, 127
1, 6096, Note_on_c, 1, 41, 127
1, 6117, Note_off_c, 1, 53, 0
1, 6117, Note_off_c, 1, 41, 0
1, 6132, Note_off_c, 1, 73, 0
1, 6132, Note_off_c, 1, 69, 0
1, 6132, Note_off_c, 1, 64, 0
1, 6132, Note_on_c, 1, 52, 127
1, 6132, Note_on_c, 1, 40, 127
1, 6142, Note_off_c, 1, 52, 0
1, 6142, Note_off_c, 1, 40, 0
1, 6144, Note_on_c, 1, 53, 127
1, 6144, Note_on_c, 1, 81, 127
1, 6144, Note_on_c, 1, 77, 127
1, 6144, Note_on_c, 1, 74, 127
1, 6144, Note_on_c, 1, 41, 127
1, 6144, Note_on_c, 1, 62, 127
1, 6144, Note_on_c, 1, 69, 127
1, 6186, Note_off_c, 1, 81, 0
1, 6186, Note_off_c, 1, 77, 0
1, 6186, Note_off_c, 1, 74, 0
1, 6192, Note_on_c, 1, 79, 127
1, 6192, Note_on_c, 1, 76, 127
1, 6192, Note_on_c, 1, 73, 127
1, 6228, Note_off_c, 1, 62, 0
1, 6228, Note_off_c, 1, 69, 0
1, 6234, Note_off_c, 1, 79, 0
1, 6234, Note_off_c, 1, 76, 0
1, 6234, Note_off_c, 1, 73, 0
1, 6240, Note_on_c, 1, 65, 127
1, 6261, Note_off_c, 1, 53, 0
1, 6261, Note_off_c, 1, 41, 0
1, 6264, Note_on_c, 1, 55, 127
1, 6264, Note_on_c, 1, 43, 127
1, 6282, Note_off_c, 1, 65, 0
1, 6285, Note_off_c, 1, 55, 0
1, 6285, Note_off_c, 1, 43, 0
1, 6288, Note_on_c, 1, 67, 127
1, 6288, Note_on_c, 1, 64, 127
1, 6312, Note_on_c, 1, 52, 127
1, 6312, Note_on_c, 1, 40, 127
1, 6330, Note_off_c, 1, 67, 0
1, 6330, Note_off_c, 1, 64, 0
1, 6333, Note_off_c, 1, 52, 0
1, 6333, Note_off_c, 1, 40, 0
1, 6336, Note_on_c, 1, 74, 127
1, 6336, Note_on_c, 1, 69, 127
1, 6336, Note_on_c, 1, 65, 127
1, 6336, Note_on_c, 1, 50, 127
1, 6336, Note_on_c, 1, 38, 127
1, 6357, Note_off_c, 1, 50, 0
1, 6357, Note_off_c, 1, 38, 0
1, 6360, Note_on_c, 1, 52, 127
1, 6360, Note_on_c, 1, 40, 127
1, 6381, Note_off_c, 1, 52, 0
1, 6381, Note_off_c, 1, 40, 0
1, 6384, Note_on_c, 1, 49, 127
1, 6384, Note_on_c, 1, 37, 127
1, 6405, Note_off_c, 1, 49, 0
1, 6405, Note_off_c, 1, 37, 0
1, 6420, Note_off_c, 1, 74, 0
1, 6420, Note_off_c, 1, 69, 0
1, 6420, Note_off_c, 1, 65, 0
1, 6432, Note_on_c, 1, 43, 127
1, 6432, Note_on_c, 1, 82, 127
1, 6432, Note_on_c, 1, 79, 127
1, 6432, Note_on_c, 1, 74, 127
1, 6432, Note_on_c, 1, 31, 127
1, 6432, Note_on_c, 1, 62, 127
1, 6432, Note_on_c, 1, 70, 127
1, 6474, Note_off_c, 1, 31, 0
1, 6516, Note_off_c, 1, 79, 0
1, 6516, Note_off_c, 1, 74, 0
1, 6516, Note_off_c, 1, 62, 0
1, 6516, Note_off_c, 1, 70, 0
1, 6522, Note_off_c, 1, 43, 0
1, 6552, Note_on_c, 1, 84, 127
1, 6573, Note_off_c, 1, 84, 0
1, 6600, Note_on_c, 1, 81, 127
1, 6621, Note_off_c, 1, 81, 0
1, 6645, Note_off_c, 1, 82, 0
1, 6648, Note_on_c, 1, 77, 127
1, 6669, Note_off_c, 1, 77, 0
1, 6672, Note_on_c, 1, 76, 127
1, 6693, Note_off_c, 1, 76, 0
1, 6720, Note_on_c, 1, 79, 127
1, 6720, Note_on_c, 1, 40, 127
1, 6720, Note_on_c, 1, 73, 127
1, 6720, Note_on_c, 1, 70, 127
1, 6720, Note_on_c, 1, 28, 127
1, 6720, Note_on_c, 1, 58, 127
1, 6720, Note_on_c, 1, 67, 127
1, 6744, Note_on_c, 1, 77, 127
1, 6762, Note_off_c, 1, 28, 0
1, 6765, Note_off_c, 1, 77, 0
1, 6768, Note_on_c, 1, 76, 127
1, 6789, Note_off_c, 1, 76, 0
1, 6804, Note_off_c, 1, 73, 0
1, 6804, Note_off_c, 1, 70, 0
1, 6804, Note_off_c, 1, 58, 0
1, 6804, Note_off_c, 1, 67, 0
1, 6810, Note_off_c, 1, 40, 0
1, 6816, Note_on_c, 1, 69, 127
1, 6816, Note_on_c, 1, 49, 127
1, 6816, Note_on_c, 1, 37, 127
1, 6816, Note_on_c, 1, 64, 127
1, 6858, Note_off_c, 1, 37, 0
1, 6864, Note_on_c, 1, 81, 127
1, 6885, Note_off_c, 1, 81, 0
1, 6888, Note_on_c, 1, 82, 127
1, 6900, Note_off_c, 1, 69, 0
1, 6900, Note_off_c, 1, 64, 0
1, 6906, Note_off_c, 1, 49, 0
1, 6909, Note_off_c, 1, 82, 0
1, 6912, Note_on_c, 1, 45, 127
1, 6912, Note_on_c, 1, 33, 127
1, 6954, Note_off_c, 1, 33, 0
1, 6957, Note_off_c, 1, 79, 0
1, 7002, Note_off_c, 1, 45, 0
1, 7008, Note_on_c, 1, 81, 127
1, 7008, Note_on_c, 1, 50, 127
1, 7008, Note_on_c, 1, 77, 127
1, 7008, Note_on_c, 1, 74, 127
1, 7008, Note_on_c, 1, 69, 127
1, 7008, Note_on_c, 1, 38, 127
1, 7008, Note_on_c, 1, 65, 127
1, 7020, Note_on_c, 1, 79, 127
1, 7029, Note_off_c, 1, 81, 0
1, 7030, Note_off_c, 1, 79, 0
1, 7044, Note_on_c, 1, 76, 127
1, 7050, Note_off_c, 1, 38, 0
1, 7054, Note_off_c, 1, 76, 0
1, 7080, Note_on_c, 1, 73, 127
1, 7090, Note_off_c, 1, 73, 0
1, 7092, Note_off_c, 1, 77, 0
1, 7092, Note_off_c, 1, 69, 0
1, 7092, Note_off_c, 1, 65, 0
1, 7098, Note_off_c, 1, 50, 0
1, 7102, Note_off_c, 1, 74, 0
1, 7104, Note_on_c, 1, 77, 127
1, 7104, Note_on_c, 1, 74, 127
1, 7104, Note_on_c, 1, 71, 127
1, 7104, Note_on_c, 1, 44, 127
1, 7104, Note_on_c, 1, 32, 127
1, 7104, Note_on_c, 1, 62, 127
1, 7125, Note_off_c, 1, 77, 0
1, 7128, Note_on_c, 1, 79, 127
1, 7146, Note_off_c, 1, 32, 0
1, 7149, Note_off_c, 1, 79, 0
1, 7176, Note_on_c, 1, 76, 127
1, 7188, Note_off_c, 1, 71, 0
1, 7188, Note_off_c, 1, 62, 0
1, 7194, Note_off_c, 1, 44, 0
1, 7197, Note_off_c, 1, 76, 0
1, 7231, Note_off_c, 1, 74, 0
1, 7236, Note_on_c, 1, 73, 127
1, 7246, Note_off_c, 1, 73, 0
1, 7296, Note_on_c, 1, 76, 127
1, 7296, Note_on_c, 1, 73, 127
1, 7296, Note_on_c, 1, 69, 127
1, 7296, Note_on_c, 1, 55, 127
1, 7296, Note_on_c, 1, 74, 127
1, 7296, Note_on_c, 1, 43, 127
1, 7296, Note_on_c, 1, 64, 127
1, 7301, Note_off_c, 1, 74, 0
1, 7338, Note_off_c, 1, 43, 0
1, 7368, Note_on_c, 1, 82, 127
1, 7380, Note_off_c, 1, 76, 0
1, 7380, Note_off_c, 1, 64, 0
1, 7386, Note_off_c, 1, 73, 0
1, 7386, Note_off_c, 1, 69, 0
1, 7386, Note_off_c, 1, 55, 0
1, 7389, Note_off_c, 1, 82, 0
1, 7392, Note_on_c, 1, 81, 127
1, 7392, Note_on_c, 1, 53, 127
1, 7392, Note_on_c, 1, 77, 127
1, 7392, Note_on_c, 1, 74, 127
1, 7392, Note_on_c, 1, 69, 127
1, 7392, Note_on_c, 1, 41, 127
1, 7392, Note_on_c, 1, 65, 127
1, 7413, Note_off_c, 1, 81, 0
1, 7416, Note_on_c, 1, 82, 127
1, 7416, Note_on_c, 1, 79, 127
1, 7426, Note_off_c, 1, 82, 0
1, 7426, Note_off_c, 1, 79, 0
1, 7434, Note_off_c, 1, 41, 0
1, 7440, Note_on_c, 1, 76, 127
1, 7440, Note_on_c, 1, 71, 127
1, 7450, Note_off_c, 1, 76, 0
1, 7464, Note_on_c, 1, 73, 127
1, 7474, Note_off_c, 1, 73, 0
1, 7476, Note_off_c, 1, 77, 0
1, 7476, Note_off_c, 1, 69, 0
1, 7476, Note_off_c, 1, 65, 0
1, 7482, Note_off_c, 1, 53, 0
1, 7482, Note_off_c, 1, 71, 0
1, 7486, Note_off_c, 1, 74, 0
1, 7488, Note_on_c, 1, 73, 127
1, 7488, Note_on_c, 1, 52, 127
1, 7488, Note_on_c, 1, 76, 127
1, 7488, Note_on_c, 1, 79, 127
1, 7488, Note_on_c, 1, 67, 127
1, 7488, Note_on_c, 1, 40, 127
1, 7488, Note_on_c, 1, 61, 127
1, 7509, Note_off_c, 1, 76, 0
1, 7512, Note_on_c, 1, 74, 127
1, 7512, Note_on_c, 1, 77, 127
1, 7522, Note_off_c, 1, 74, 0
1, 7522, Note_off_c, 1, 77, 0
1, 7530, Note_off_c, 1, 40, 0
1, 7572, Note_off_c, 1, 79, 0
1, 7572, Note_off_c, 1, 67, 0
1, 7572, Note_off_c, 1, 61, 0
1, 7578, Note_off_c, 1, 52, 0
1, 7582, Note_off_c, 1, 73, 0
1, 7584, Note_on_c, 1, 74, 127
1, 7584, Note_on_c, 1, 77, 127
1, 7584, Note_on_c, 1, 69, 127
1, 7584, Note_on_c, 1, 50, 127
1, 7584, Note_on_c, 1, 38, 127
1, 7584, Note_on_c, 1, 57, 127
1, 7584, Note_on_c, 1, 65, 127
1, 7626, Note_off_c, 1, 38, 0
1, 7656, Note_on_c, 1, 75, 127
1, 7668, Note_off_c, 1, 74, 0
1, 7668, Note_off_c, 1, 69, 0
1, 7668, Note_off_c, 1, 57, 0
1, 7668, Note_off_c, 1, 65, 0
1, 7674, Note_off_c, 1, 50, 0
1, 7677, Note_off_c, 1, 75, 0
1, 7680, Note_on_c, 1, 70, 127
1, 7680, Note_on_c, 1, 67, 127
1, 7680, Note_on_c, 1, 52, 127
1, 7680, Note_on_c, 1, 40, 127
1, 7680, Note_on_c, 1, 58, 127
1, 7704, Note_on_c, 1, 72, 127
1, 7714, Note_off_c, 1, 72, 0
1, 7716, Note_off_c, 1, 77, 0
1, 7722, Note_off_c, 1, 40, 0
1, 7728, Note_on_c, 1, 76, 127
1, 7752, Note_on_c, 1, 66, 127
1, 7762, Note_off_c, 1, 66, 0
1, 7764, Note_off_c, 1, 70, 0
1, 7764, Note_off_c, 1, 58, 0
1, 7770, Note_off_c, 1, 52, 0
1, 7770, Note_off_c, 1, 76, 0
1, 7774, Note_off_c, 1, 67, 0
1, 7776, Note_on_c, 1, 69, 127
1, 7776, Note_on_c, 1, 62, 127
1, 7776, Note_on_c, 1, 54, 127
1, 7776, Note_on_c, 1, 75, 127
1, 7776, Note_on_c, 1, 42, 127
1, 7800, Note_on_c, 1, 70, 127
1, 7810, Note_off_c, 1, 70, 0
1, 7812, Note_on_c, 1, 72, 127
1, 7818, Note_off_c, 1, 75, 0
1, 7818, Note_off_c, 1, 42, 0
1, 7822, Note_off_c, 1, 72, 0
1, 7824, Note_on_c, 1, 74, 127
1, 7860, Note_off_c, 1, 62, 0
1, 7866, Note_off_c, 1, 54, 0
1, 7866, Note_off_c, 1, 74, 0
1, 7870, Note_off_c, 1, 69, 0
1, 7872, Note_on_c, 1, 70, 127
1, 7872, Note_on_c, 1, 67, 127
1, 7872, Note_on_c, 1, 62, 127
1, 7872, Note_on_c, 1, 55, 127
1, 7872, Note_on_c, 1, 74, 127
1, 7872, Note_on_c, 1, 79, 127
1, 7872, Note_on_c, 1, 43, 127
1, 7914, Note_off_c, 1, 43, 0
1, 7956, Note_off_c, 1, 67, 0
1, 7956, Note_off_c, 1, 62, 0
1, 7956, Note_off_c, 1, 74, 0
1, 7956, Note_off_c, 1, 79, 0
1, 7962, Note_off_c, 1, 55, 0
1, 7968, Note_on_c, 1, 57, 127
1, 7968, Note_on_c, 1, 86, 127
1, 7968, Note_on_c, 1, 77, 127
1, 7968, Note_on_c, 1, 45, 127
1, 7968, Note_on_c, 1, 65, 127
1, 8004, Note_off_c, 1, 70, 0
1, 8010, Note_off_c, 1, 45, 0
1, 8016, Note_on_c, 1, 69, 127
1, 8058, Note_off_c, 1, 57, 0
1, 8058, Note_off_c, 1, 69, 0
1, 8064, Note_on_c, 1, 68, 127
1, 8064, Note_on_c, 1, 59, 127
1, 8064, Note_on_c, 1, 47, 127
1, 8106, Note_off_c, 1, 68, 0
1, 8106, Note_off_c, 1, 47, 0
1, 8148, Note_off_c, 1, 77, 0
1, 8148, Note_off_c, 1, 65, 0
1, 8154, Note_off_c, 1, 59, 0
1, 8160, Note_on_c, 1, 71, 127
1, 8160, Note_on_c, 1, 53, 127
1, 8160, Note_on_c, 1, 41, 127
1, 8184, Note_on_c, 1, 85, 127
1, 8202, Note_off_c, 1, 41, 0
1, 8205, Note_off_c, 1, 85, 0
1, 8232, Note_on_c, 1, 83, 127
1, 8244, Note_off_c, 1, 86, 0
1, 8244, Note_off_c, 1, 71, 0
1, 8250, Note_off_c, 1, 53, 0
1, 8253, Note_off_c, 1, 83, 0
1, 8256, Note_on_c, 1, 79, 127
1, 8256, Note_on_c, 1, 76, 127
1, 8256, Note_on_c, 1, 67, 127
1, 8256, Note_on_c, 1, 52, 127
1, 8256, Note_on_c, 1, 84, 127
1, 8256, Note_on_c, 1, 40, 127
1, 8256, Note_on_c, 1, 60, 127
1, 8280, Note_on_c, 1, 81, 127
1, 8298, Note_off_c, 1, 84, 0
1, 8298, Note_off_c, 1, 40, 0
1, 8301, Note_off_c, 1, 81, 0
1, 8304, Note_on_c, 1, 73, 127
1, 8304, Note_on_c, 1, 64, 127
1, 8304, Note_on_c, 1, 82, 127
1, 8328, Note_on_c, 1, 80, 127
1, 8340, Note_off_c, 1, 76, 0
1, 8340, Note_off_c, 1, 67, 0
1, 8340, Note_off_c, 1, 60, 0
1, 8346, Note_off_c, 1, 52, 0
1, 8346, Note_off_c, 1, 73, 0
1, 8346, Note_off_c, 1, 64, 0
1, 8346, Note_off_c, 1, 82, 0
1, 8349, Note_off_c, 1, 80, 0
1, 8352, Note_on_c, 1, 74, 127
1, 8352, Note_on_c, 1, 69, 127
1, 8352, Note_on_c, 1, 50, 127
1, 8352, Note_on_c, 1, 38, 127
1, 8352, Note_on_c, 1, 65, 127
1, 8373, Note_off_c, 1, 79, 0
1, 8394, Note_off_c, 1, 38, 0
1, 8400, Note_on_c, 1, 77, 127
1, 8421, Note_off_c, 1, 77, 0
1, 8436, Note_off_c, 1, 65, 0
1, 8442, Note_off_c, 1, 69, 0
1, 8442, Note_off_c, 1, 50, 0
1, 8445, Note_off_c, 1, 74, 0
1, 8448, Note_on_c, 1, 75, 127
1, 8448, Note_on_c, 1, 70, 127
1, 8448, Note_on_c, 1, 55, 127
1, 8448, Note_on_c, 1, 43, 127
1, 8448, Note_on_c, 1, 62, 127
1, 8469, Note_off_c, 1, 75, 0
1, 8490, Note_off_c, 1, 43, 0
1, 8532, Note_off_c, 1, 70, 0
1, 8532, Note_off_c, 1, 62, 0
1, 8538, Note_off_c, 1, 55, 0
1, 8544, Note_on_c, 1, 74, 127
1, 8544, Note_on_c, 1, 69, 127
1, 8544, Note_on_c, 1, 64, 127
1, 8544, Note_on_c, 1, 57, 127
1, 8544, Note_on_c, 1, 77, 127
1, 8544, Note_on_c, 1, 67, 127
1, 8544, Note_on_c, 1, 45, 127
1, 8544, Note_on_c, 1, 72, 127
1, 8549, Note_off_c, 1, 74, 0
1, 8549, Note_off_c, 1, 77, 0
1, 8550, Note_on_c, 1, 73, 127
1, 8550, Note_on_c, 1, 76, 127
1, 8555, Note_off_c, 1, 73, 0
1, 8555, Note_off_c, 1, 76, 0
1, 8586, Note_off_c, 1, 45, 0
1, 8628, Note_off_c, 1, 69, 0
1, 8628, Note_off_c, 1, 64, 0
1, 8628, Note_off_c, 1, 67, 0
1, 8628, Note_off_c, 1, 72, 0
1, 8634, Note_off_c, 1, 57, 0
1, 8640, Note_on_c, 1, 74, 127
1, 8640, Note_on_c, 1, 69, 127
1, 8640, Note_on_c, 1, 64, 127
1, 8640, Note_on_c, 1, 45, 127
1, 8640, Note_on_c, 1, 77, 127
1, 8640, Note_on_c, 1, 67, 127
1, 8640, Note_on_c, 1, 33, 127
1, 8640, Note_on_c, 1, 72, 127
1, 8645, Note_off_c, 1, 74, 0
1, 8645, Note_off_c, 1, 77, 0
1, 8646, Note_on_c, 1, 73, 127
1, 8646, Note_on_c, 1, 76, 127
1, 8651, Note_off_c, 1, 73, 0
1, 8651, Note_off_c, 1, 76, 0
1, 8682, Note_off_c, 1, 33, 0
1, 8724, Note_off_c, 1, 69, 0
1, 8724, Note_off_c, 1, 64, 0
1, 8724, Note_off_c, 1, 67, 0
1, 8724, Note_off_c, 1, 72, 0
1, 8730, Note_off_c, 1, 45, 0
1, 8736, Note_on_c, 1, 74, 127
1, 8736, Note_on_c, 1, 69, 127
1, 8736, Note_on_c, 1, 65, 127
1, 8736, Note_on_c, 1, 50, 127
1, 8736, Note_on_c, 1, 38, 127
1, 8784, Note_on_c, 1, 73, 127
1, 8784, Note_on_c, 1, 67, 127
1, 8784, Note_on_c, 1, 64, 127
1, 8820, Note_off_c, 1, 74, 0
1, 8820, Note_off_c, 1, 69, 0
1, 8820, Note_off_c, 1, 65, 0
1, 8826, Note_off_c, 1, 73, 0
1, 8826, Note_off_c, 1, 67, 0
1, 8826, Note_off_c, 1, 64, 0
1, 8832, Note_on_c, 1, 77, 127
1, 8874, Note_off_c, 1, 50, 0
1, 8874, Note_off_c, 1, 38, 0
1, 8874, Note_off_c, 1, 77, 0
1, 8880, Note_on_c, 1, 51, 127
1, 8880, Note_on_c, 1, 76, 127
1, 8880, Note_on_c, 1, 39, 127
1, 8901, Note_off_c, 1, 51, 0
1, 8901, Note_off_c, 1, 39, 0
1, 8922, Note_off_c, 1, 76, 0
1, 8928, Note_on_c, 1, 48, 127
1, 8928, Note_on_c, 1, 77, 127
1, 8928, Note_on_c, 1, 74, 127
1, 8928, Note_on_c, 1, 69, 127
1, 8928, Note_on_c, 1, 36, 127
1, 8949, Note_off_c, 1, 48, 0
1, 8949, Note_off_c, 1, 36, 0
1, 8952, Note_on_c, 1, 46, 127
1, 8952, Note_on_c, 1, 34, 127
1, 8973, Note_off_c, 1, 46, 0
1, 8973, Note_off_c, 1, 34, 0
1, 8976, Note_on_c, 1, 45, 127
1, 8976, Note_on_c, 1, 33, 127
1, 8997, Note_off_c, 1, 45, 0
1, 8997, Note_off_c, 1, 33, 0
1, 9012, Note_off_c, 1, 77, 0
1, 9012, Note_off_c, 1, 74, 0
1, 9012, Note_off_c, 1, 69, 0
1, 9024, Note_on_c, 1, 74, 127
1, 9024, Note_on_c, 1, 69, 127
1, 9024, Note_on_c, 1, 66, 127
1, 9024, Note_on_c, 1, 48, 127
1, 9024, Note_on_c, 1, 36, 127
1, 9066, Note_off_c, 1, 74, 0
1, 9072, Note_on_c, 1, 72, 127
1, 9072, Note_on_c, 1, 67, 127
1, 9072, Note_on_c, 1, 64, 127
1, 9108, Note_off_c, 1, 69, 0
1, 9108, Note_off_c, 1, 66, 0
1, 9114, Note_off_c, 1, 72, 0
1, 9114, Note_off_c, 1, 67, 0
1, 9114, Note_off_c, 1, 64, 0
1, 9120, Note_on_c, 1, 78, 127
1, 9162, Note_off_c, 1, 48, 0
1, 9162, Note_off_c, 1, 36, 0
1, 9162, Note_off_c, 1, 78, 0
1, 9168, Note_on_c, 1, 50, 127
1, 9168, Note_on_c, 1, 76, 127
1, 9168, Note_on_c, 1, 38, 127
1, 9189, Note_off_c, 1, 50, 0
1, 9189, Note_off_c, 1, 38, 0
1, 9192, Note_on_c, 1, 51, 127
1, 9192, Note_on_c, 1, 39, 127
1, 9210, Note_off_c, 1, 76, 0
1, 9213, Note_off_c, 1, 51, 0
1, 9213, Note_off_c, 1, 39, 0
1, 9216, Note_on_c, 1, 50, 127
1, 9216, Note_on_c, 1, 78, 127
1, 9216, Note_on_c, 1, 74, 127
1, 9216, Note_on_c, 1, 69, 127
1, 9216, Note_on_c, 1, 38, 127
1, 9237, Note_off_c, 1, 50, 0
1, 9237, Note_off_c, 1, 38, 0
1, 9240, Note_on_c, 1, 48, 127
1, 9240, Note_on_c, 1, 36, 127
1, 9261, Note_off_c, 1, 48, 0
1, 9261, Note_off_c, 1, 36, 0
1, 9264, Note_on_c, 1, 46, 127
1, 9264, Note_on_c, 1, 34, 127
1, 9285, Note_off_c, 1, 46, 0
1, 9285, Note_off_c, 1, 34, 0
1, 9300, Note_off_c, 1, 78, 0
1, 9300, Note_off_c, 1, 74, 0
1, 9300, Note_off_c, 1, 69, 0
1, 9300, Note_on_c, 1, 45, 127
1, 9300, Note_on_c, 1, 33, 127
1, 9310, Note_off_c, 1, 45, 0
1, 9310, Note_off_c, 1, 33, 0
1, 9312, Note_on_c, 1, 74, 127
1, 9312, Note_on_c, 1, 70, 127
1, 9312, Note_on_c, 1, 67, 127
1, 9312, Note_on_c, 1, 46, 127
1, 9312, Note_on_c, 1, 34, 127
1, 9312, Note_on_c, 1, 62, 127
1, 9354, Note_off_c, 1, 74, 0
1, 9354, Note_off_c, 1, 67, 0
1, 9360, Note_on_c, 1, 72, 127
1, 9360, Note_on_c, 1, 69, 127
1, 9360, Note_on_c, 1, 66, 127
1, 9396, Note_off_c, 1, 70, 0
1, 9396, Note_off_c, 1, 62, 0
1, 9402, Note_off_c, 1, 72, 0
1, 9402, Note_off_c, 1, 69, 0
1, 9402, Note_off_c, 1, 66, 0
1, 9408, Note_on_c, 1, 79, 127
1, 9429, Note_off_c, 1, 46, 0
1, 9429, Note_off_c, 1, 34, 0
1, 9432, Note_on_c, 1, 48, 127
1, 9432, Note_on_c, 1, 36, 127
1, 9450, Note_off_c, 1, 79, 0
1, 9453, Note_off_c, 1, 48, 0
1, 9453, Note_off_c, 1, 36, 0
1, 9456, Note_on_c, 1, 78, 127
1, 9480, Note_on_c, 1, 45, 127
1, 9480, Note_on_c, 1, 33, 127
1, 9498, Note_off_c, 1, 78, 0
1, 9501, Note_off_c, 1, 45, 0
1, 9501, Note_off_c, 1, 33, 0
1, 9504, Note_on_c, 1, 43, 127
1, 9504, Note_on_c, 1, 79, 127
1, 9504, Note_on_c, 1, 74, 127
1, 9504, Note_on_c, 1, 70, 127
1, 9504, Note_on_c, 1, 31, 127
1, 9525, Note_off_c, 1, 43, 0
1, 9525, Note_off_c, 1, 31, 0
1, 9528, Note_on_c, 1, 45, 127
1, 9528, Note_on_c, 1, 33, 127
1, 9549, Note_off_c, 1, 45, 0
1, 9549, Note_off_c, 1, 33, 0
1, 9552, Note_on_c, 1, 42, 127
1, 9552, Note_on_c, 1, 30, 127
1, 9573, Note_off_c, 1, 42, 0
1, 9573, Note_off_c, 1, 30, 0
1, 9588, Note_off_c, 1, 79, 0
1, 9588, Note_off_c, 1, 74, 0
1, 9588, Note_off_c, 1, 70, 0
1, 9600, Note_on_c, 1, 82, 127
1, 9600, Note_on_c, 1, 67, 127
1, 9600, Note_on_c, 1, 64, 127
1, 9600, Note_on_c, 1, 37, 127
1, 9600, Note_on_c, 1, 79, 127
1, 9600, Note_on_c, 1, 76, 127
1, 9600, Note_on_c, 1, 70, 127
1, 9600, Note_on_c, 1, 25, 127
1, 9706, Note_off_c, 1, 82, 0
1, 9708, Note_on_c, 1, 81, 127
1, 9718, Note_off_c, 1, 81, 0
1, 9732, Note_on_c, 1, 77, 127
1, 9742, Note_off_c, 1, 77, 0
1, 9756, Note_on_c, 1, 74, 127
1, 9766, Note_off_c, 1, 74, 0
1, 9768, Note_on_c, 1, 73, 127
1, 9778, Note_off_c, 1, 73, 0
1, 9780, Note_off_c, 1, 67, 0
1, 9780, Note_off_c, 1, 64, 0
1, 9780, Note_off_c, 1, 37, 0
1, 9780, Note_off_c, 1, 79, 0
1, 9780, Note_off_c, 1, 76, 0
1, 9780, Note_off_c, 1, 70, 0
1, 9780, Note_off_c, 1, 25, 0
1, 9792, Note_on_c, 1, 76, 127
1, 9802, Note_off_c, 1, 76, 0
1, 9804, Note_on_c, 1, 69, 127
1, 9814, Note_off_c, 1, 69, 0
1, 9816, Note_on_c, 1, 71, 127
1, 9826, Note_off_c, 1, 71, 0
1, 9828, Note_on_c, 1, 73, 127
1, 9838, Note_off_c, 1, 73, 0
1, 9840, Note_on_c, 1, 74, 127
1, 9850, Note_off_c, 1, 74, 0
1, 9852, Note_on_c, 1, 76, 127
1, 9862, Note_off_c, 1, 76, 0
1, 9864, Note_on_c, 1, 77, 127
1, 9874, Note_off_c, 1, 77, 0
1, 9876, Note_on_c, 1, 79, 127
1, 9881, Note_off_c, 1, 79, 0
1, 9882, Note_on_c, 1, 76, 127
1, 9887, Note_off_c, 1, 76, 0
1, 9888, Note_on_c, 1, 77, 127
1, 9888, Note_on_c, 1, 74, 127
1, 9888, Note_on_c, 1, 69, 127
1, 9888, Note_on_c, 1, 38, 127
1, 9888, Note_on_c, 1, 65, 127
1, 9888, Note_on_c, 1, 62, 127
1, 9888, Note_on_c, 1, 26, 127
1, 9930, Note_off_c, 1, 62, 0
1, 9930, Note_off_c, 1, 26, 0
1, 9936, Note_on_c, 1, 70, 127
1, 9936, Note_on_c, 1, 67, 127
1, 9936, Note_on_c, 1, 43, 127
1, 9936, Note_on_c, 1, 64, 127
1, 9936, Note_on_c, 1, 31, 127
1, 9951, Note_off_c, 1, 77, 0
1, 9951, Note_off_c, 1, 69, 0
1, 9960, Note_on_c, 1, 79, 127
1, 9972, Note_off_c, 1, 74, 0
1, 9972, Note_off_c, 1, 38, 0
1, 9972, Note_off_c, 1, 65, 0
1, 9978, Note_off_c, 1, 67, 0
1, 9978, Note_off_c, 1, 43, 0
1, 9978, Note_off_c, 1, 64, 0
1, 9978, Note_off_c, 1, 31, 0
1, 9981, Note_off_c, 1, 70, 0
1, 9981, Note_off_c, 1, 79, 0
1, 9984, Note_on_c, 1, 73, 127
1, 9984, Note_on_c, 1, 69, 127
1, 9984, Note_on_c, 1, 65, 127
1, 9984, Note_on_c, 1, 45, 127
1, 9984, Note_on_c, 1, 57, 127
1, 9984, Note_on_c, 1, 33, 127
1, 9984, Note_on_c, 1, 74, 127
1, 10026, Note_off_c, 1, 57, 0
1, 10026, Note_off_c, 1, 33, 0
1, 10032, Note_on_c, 1, 62, 127
1, 10032, Note_on_c, 1, 67, 127
1, 10032, Note_on_c, 1, 59, 127
1, 10068, Note_off_c, 1, 69, 0
1, 10068, Note_off_c, 1, 65, 0
1, 10068, Note_off_c, 1, 74, 0
1, 10074, Note_off_c, 1, 45, 0
1, 10074, Note_off_c, 1, 62, 0
1, 10074, Note_off_c, 1, 67, 0
1, 10074, Note_off_c, 1, 59, 0
1, 10080, Note_on_c, 1, 64, 127
1, 10080, Note_on_c, 1, 61, 127
1, 10164, Note_off_c, 1, 73, 0
1, 10164, Note_off_c, 1, 64, 0
1, 10164, Note_off_c, 1, 61, 0
1, 10176, Note_on_c, 1, 50, 127
1, 10176, Note_on_c, 1, 38, 127
1, 10176, Note_on_c, 1, 62, 127
1, 10260, Note_off_c, 1, 50, 0
1, 10260, Note_off_c, 1, 38, 0
1, 10260, Note_off_c, 1, 62, 0
1, 10272, Note_on_c, 1, 70, 127
1, 10272, Note_on_c, 1, 65, 127
1, 10272, Note_on_c, 1, 62, 127
1, 10356, Note_off_c, 1, 70, 0
1, 10356, Note_off_c, 1, 65, 0
1, 10356, Note_off_c, 1, 62, 0
1, 10368, Note_on_c, 1, 68, 127
1, 10368, Note_on_c, 1, 64, 127
1, 10368, Note_on_c, 1, 59, 127
1, 10452, Note_off_c, 1, 68, 0
1, 10452, Note_off_c, 1, 64, 0
1, 10452, Note_off_c, 1, 59, 0
1, 10464, Note_on_c, 1, 48, 127
1, 10464, Note_on_c, 1, 36, 127
1, 10464, Note_on_c, 1, 60, 127
1, 10548, Note_off_c, 1, 48, 0
1, 10548, Note_off_c, 1, 36, 0
1, 10548, Note_off_c, 1, 60, 0
1, 10560, Note_on_c, 1, 69, 127
1, 10560, Note_on_c, 1, 64, 127
1, 10560, Note_on_c, 1, 60, 127
1, 10644, Note_off_c, 1, 69, 0
1, 10644, Note_off_c, 1, 64, 0
1, 10644, Note_off_c, 1, 60, 0
1, 10656, Note_on_c, 1, 78, 127
1, 10656, Note_on_c, 1, 75, 127
1, 10656, Note_on_c, 1, 69, 127
1, 10740, Note_off_c, 1, 78, 0
1, 10740, Note_off_c, 1, 75, 0
1, 10740, Note_off_c, 1, 69, 0
1, 10752, Note_on_c, 1, 46, 127
1, 10752, Note_on_c, 1, 34, 127
1, 10752, Note_on_c, 1, 58, 127
1, 10836, Note_off_c, 1, 46, 0
1, 10836, Note_off_c, 1, 34, 0
1, 10836, Note_off_c, 1, 58, 0
1, 10848, Note_on_c, 1, 74, 127
1, 10848, Note_on_c, 1, 67, 127
1, 10848, Note_on_c, 1, 70, 127
1, 10932, Note_off_c, 1, 74, 0
1, 10932, Note_off_c, 1, 67, 0
1, 10932, Note_off_c, 1, 70, 0
1, 10944, Note_on_c, 1, 80, 127
1, 10944, Note_on_c, 1, 77, 127
1, 10944, Note_on_c, 1, 74, 127
1, 10986, Note_off_c, 1, 77, 0
1, 10992, Note_on_c, 1, 76, 127
1, 11028, Note_off_c, 1, 80, 0
1, 11028, Note_off_c, 1, 74, 0
1, 11034, Note_off_c, 1, 76, 0
1, 11040, Note_on_c, 1, 73, 127
1, 11040, Note_on_c, 1, 69, 127
1, 11040, Note_on_c, 1, 64, 127
1, 11040, Note_on_c, 1, 45, 127
1, 11040, Note_on_c, 1, 81, 127
1, 11040, Note_on_c, 1, 76, 127
1, 11040, Note_on_c, 1, 33, 127
1, 11316, Note_off_c, 1, 73, 0
1, 11316, Note_off_c, 1, 69, 0
1, 11316, Note_off_c, 1, 64, 0
1, 11316, Note_off_c, 1, 45, 0
1, 11316, Note_off_c, 1, 81, 0
1, 11316, Note_off_c, 1, 76, 0
1, 11316, Note_off_c, 1, 33, 0
1, 11316, End_track
0, 0, End_of_file