0, 0, Header, 1, 1, 480
1, 0, Start_track
1, 0, Title_t, "Test"
1, 0, Tempo, 500000
1, 0, Instrument_name_t, "Church Organ"
1, 96, Note_on_c, 1, 53, 127
1, 96, Note_on_c, 1, 41, 127
1, 144, Note_on_c, 1, 77, 127
1, 144, Note_on_c, 1, 72, 127
1, 144, Note_on_c, 1, 69, 127
1, 144, Note_on_c, 1, 65, 127
1, 144, Note_on_c, 1, 60, 127
1, 144, Note_on_c, 1, 57, 127
1, 165, Note_off_c, 1, 77, 0
1, 165, Note_off_c, 1, 72, 0
1, 165, Note_off_c, 1, 69, 0
1, 168, Note_on_c, 1, 76, 127
1, 168, Note_on_c, 1, 70, 127
1, 168, Note_on_c, 1, 67, 127
1, 180, Note_off_c, 1, 41, 0
1, 186, Note_off_c, 1, 53, 0
1, 186, Note_off_c, 1, 65, 0
1, 186, Note_off_c, 1, 60, 0
1, 186, Note_off_c, 1, 57, 0
1, 189, Note_off_c, 1, 76, 0
1, 189, Note_off_c, 1, 70, 0
1, 189, Note_off_c, 1, 67, 0
1, 192, Note_on_c, 1, 57, 127
1, 192, Note_on_c, 1, 77, 127
1, 192, Note_on_c, 1, 72, 127
1, 192, Note_on_c, 1, 69, 127
1, 192, Note_on_c, 1, 65, 127
1, 192, Note_on_c, 1, 60, 127
1, 213, Note_off_c, 1, 77, 0
1, 213, Note_off_c, 1, 72, 0
1, 216, Note_on_c, 1, 76, 127
1, 216, Note_on_c, 1, 70, 127
1, 216, Note_on_c, 1, 67, 127
1, 234, Note_off_c, 1, 57, 0
1, 234, Note_off_c, 1, 69, 0
1, 234, Note_off_c, 1, 65, 0
1, 234, Note_off_c, 1, 60, 0
1, 237, Note_off_c, 1, 76, 0
1, 237, Note_off_c, 1, 70, 0
1, 237, Note_off_c, 1, 67, 0
1, 240, Note_on_c, 1, 60, 127
1, 240, Note_on_c, 1, 77, 127
1, 240, Note_on_c, 1, 72, 127
1, 240, Note_on_c, 1, 69, 127
1, 240, Note_on_c, 1, 48, 127
1, 240, Note_on_c, 1, 67, 127
1, 240, Note_on_c, 1, 64, 127
1, 240, Note_on_c, 1, 36, 127
1, 261, Note_off_c, 1, 77, 0
1, 261, Note_off_c, 1, 69, 0
1, 264, Note_on_c, 1, 76, 127
1, 264, Note_on_c, 1, 70, 127
1, 282, Note_off_c, 1, 60, 0
1, 282, Note_off_c, 1, 72, 0
1, 282, Note_off_c, 1, 48, 0
1, 282, Note_off_c, 1, 64, 0
1, 282, Note_off_c, 1, 36, 0
1, 285, Note_off_c, 1, 67, 0
1, 285, Note_off_c, 1, 76, 0
1, 285, Note_off_c, 1, 70, 0
1, 288, Note_on_c, 1, 65, 127
1, 288, Note_on_c, 1, 77, 127
1, 288, Note_on_c, 1, 69, 127
1, 288, Note_on_c, 1, 50, 127
1, 288, Note_on_c, 1, 57, 127
1, 288, Note_on_c, 1, 38, 127
1, 312, Note_on_c, 1, 67, 127
1, 312, Note_on_c, 1, 64, 127
1, 330, Note_off_c, 1, 65, 0
1, 330, Note_off_c, 1, 77, 0
1, 330, Note_off_c, 1, 69, 0
1, 330, Note_off_c, 1, 50, 0
1, 330, Note_off_c, 1, 57, 0
1, 330, Note_off_c, 1, 38, 0
1, 333, Note_off_c, 1, 67, 0
1, 333, Note_off_c, 1, 64, 0
1, 336, Note_on_c, 1, 60, 127
1, 336, Note_on_c, 1, 72, 127
1, 336, Note_on_c, 1, 69, 127
1, 336, Note_on_c, 1, 65, 127
1, 336, Note_on_c, 1, 45, 127
1, 336, Note_on_c, 1, 33, 127
1, 357, Note_off_c, 1, 69, 0
1, 360, Note_on_c, 1, 67, 127
1, 360, Note_on_c, 1, 64, 127
1, 378, Note_off_c, 1, 60, 0
1, 378, Note_off_c, 1, 72, 0
1, 378, Note_off_c, 1, 65, 0
1, 378, Note_off_c, 1, 45, 0
1, 378, Note_off_c, 1, 33, 0
1, 381, Note_off_c, 1, 67, 0
1, 381, Note_off_c, 1, 64, 0
1, 384, Note_on_c, 1, 57, 127
1, 384, Note_on_c, 1, 74, 127
1, 384, Note_on_c, 1, 69, 127
1, 384, Note_on_c, 1, 62, 127
1, 384, Note_on_c, 1, 46, 127
1, 384, Note_on_c, 1, 34, 127
1, 384, Note_on_c, 1, 67, 127
1, 405, Note_off_c, 1, 57, 0
1, 405, Note_off_c, 1, 69, 0
1, 408, Note_on_c, 1, 53, 127
1, 426, Note_off_c, 1, 74, 0
1, 426, Note_off_c, 1, 62, 0
1, 426, Note_off_c, 1, 46, 0
1, 426, Note_off_c, 1, 34, 0
1, 429, Note_off_c, 1, 67, 0
1, 429, Note_off_c, 1, 53, 0
1, 432, Note_on_c, 1, 60, 127
1, 432, Note_on_c, 1, 72, 127
1, 432, Note_on_c, 1, 69, 127
1, 432, Note_on_c, 1, 64, 127
1, 432, Note_on_c, 1, 48, 127
1, 432, Note_on_c, 1, 36, 127
1, 432, Note_on_c, 1, 67, 127
1, 453, Note_off_c, 1, 72, 0
1, 453, Note_off_c, 1, 69, 0
1, 456, Note_on_c, 1, 70, 127
1, 474, Note_off_c, 1, 60, 0
1, 474, Note_off_c, 1, 64, 0
1, 474, Note_off_c, 1, 48, 0
1, 474, Note_off_c, 1, 36, 0
1, 477, Note_off_c, 1, 67, 0
1, 477, Note_off_c, 1, 70, 0
1, 480, Note_on_c, 1, 60, 127
1, 480, Note_on_c, 1, 69, 127
1, 480, Note_on_c, 1, 65, 127
1, 480, Note_on_c, 1, 41, 127
1, 480, Note_on_c, 1, 29, 127
1, 504, Note_on_c, 1, 67, 127
1, 522, Note_off_c, 1, 69, 0
1, 522, Note_off_c, 1, 65, 0
1, 522, Note_off_c, 1, 41, 0
1, 522, Note_off_c, 1, 29, 0
1, 525, Note_off_c, 1, 67, 0
1, 528, Note_on_c, 1, 53, 127
1, 528, Note_on_c, 1, 57, 127
1, 549, Note_off_c, 1, 53, 0
1, 552, Note_on_c, 1, 52, 127
1, 552, Note_on_c, 1, 40, 127
1, 570, Note_off_c, 1, 57, 0
1, 571, Note_off_c, 1, 60, 0
1, 573, Note_off_c, 1, 52, 0
1, 573, Note_off_c, 1, 40, 0
1, 576, Note_on_c, 1, 65, 127
1, 576, Note_on_c, 1, 60, 127
1, 576, Note_on_c, 1, 69, 127
1, 576, Note_on_c, 1, 53, 127
1, 576, Note_on_c, 1, 41, 127
1, 597, Note_off_c, 1, 53, 0
1, 597, Note_off_c, 1, 41, 0
1, 600, Note_on_c, 1, 71, 127
1, 600, Note_on_c, 1, 67, 127
1, 600, Note_on_c, 1, 52, 127
1, 600, Note_on_c, 1, 40, 127
1, 618, Note_off_c, 1, 65, 0
1, 618, Note_off_c, 1, 69, 0
1, 621, Note_off_c, 1, 71, 0
1, 621, Note_off_c, 1, 67, 0
1, 621, Note_off_c, 1, 52, 0
1, 621, Note_off_c, 1, 40, 0
1, 636, Note_off_c, 1, 60, 0
1, 648, Note_on_c, 1, 50, 127
1, 648, Note_on_c, 1, 38, 127
1, 669, Note_off_c, 1, 50, 0
1, 669, Note_off_c, 1, 38, 0
1, 672, Note_on_c, 1, 72, 127
1, 672, Note_on_c, 1, 60, 127
1, 672, Note_on_c, 1, 67, 127
1, 672, Note_on_c, 1, 64, 127
1, 672, Note_on_c, 1, 52, 127
1, 672, Note_on_c, 1, 40, 127
1, 696, Note_on_c, 1, 74, 127
1, 696, Note_on_c, 1, 65, 127
1, 714, Note_off_c, 1, 72, 0
1, 714, Note_off_c, 1, 67, 0
1, 714, Note_off_c, 1, 64, 0
1, 714, Note_off_c, 1, 52, 0
1, 714, Note_off_c, 1, 40, 0
1, 717, Note_off_c, 1, 74, 0
1, 717, Note_off_c, 1, 65, 0
1, 720, Note_on_c, 1, 76, 127
1, 720, Note_on_c, 1, 48, 127
1, 720, Note_on_c, 1, 36, 127
1, 735, Note_off_c, 1, 60, 0
1, 741, Note_off_c, 1, 76, 0
1, 744, Note_on_c, 1, 69, 127
1, 762, Note_off_c, 1, 48, 0
1, 762, Note_off_c, 1, 36, 0
1, 765, Note_off_c, 1, 69, 0
1, 768, Note_on_c, 1, 67, 127
1, 768, Note_on_c, 1, 77, 127
1, 768, Note_on_c, 1, 72, 127
1, 768, Note_on_c, 1, 65, 127
1, 768, Note_on_c, 1, 50, 127
1, 768, Note_on_c, 1, 38, 127
1, 789, Note_off_c, 1, 67, 0
1, 789, Note_off_c, 1, 77, 0
1, 792, Note_on_c, 1, 60, 127
1, 792, Note_on_c, 1, 76, 127
1, 810, Note_off_c, 1, 72, 0
1, 810, Note_off_c, 1, 65, 0
1, 810, Note_off_c, 1, 50, 0
1, 810, Note_off_c, 1, 38, 0
1, 813, Note_off_c, 1, 60, 0
1, 813, Note_off_c, 1, 76, 0
1, 816, Note_on_c, 1, 67, 127
1, 816, Note_on_c, 1, 77, 127
1, 816, Note_on_c, 1, 71, 127
1, 816, Note_on_c, 1, 43, 127
1, 816, Note_on_c, 1, 31, 127
1, 816, Note_on_c, 1, 58, 127
1, 837, Note_off_c, 1, 77, 0
1, 840, Note_on_c, 1, 79, 127
1, 858, Note_off_c, 1, 67, 0
1, 858, Note_off_c, 1, 71, 0
1, 858, Note_off_c, 1, 43, 0
1, 858, Note_off_c, 1, 31, 0
1, 858, Note_off_c, 1, 58, 0
1, 861, Note_off_c, 1, 79, 0
1, 864, Note_on_c, 1, 67, 127
1, 864, Note_on_c, 1, 76, 127
1, 864, Note_on_c, 1, 72, 127
1, 864, Note_on_c, 1, 48, 127
1, 864, Note_on_c, 1, 36, 127
1, 864, Note_on_c, 1, 64, 127
1, 885, Note_off_c, 1, 76, 0
1, 885, Note_off_c, 1, 72, 0
1, 888, Note_on_c, 1, 77, 127
1, 888, Note_on_c, 1, 74, 127
1, 906, Note_off_c, 1, 48, 0
1, 906, Note_off_c, 1, 36, 0
1, 906, Note_off_c, 1, 64, 0
1, 909, Note_off_c, 1, 77, 0
1, 909, Note_off_c, 1, 74, 0
1, 912, Note_on_c, 1, 79, 127
1, 912, Note_on_c, 1, 52, 127
1, 912, Note_on_c, 1, 40, 127
1, 912, Note_on_c, 1, 60, 127
1, 933, Note_off_c, 1, 79, 0
1, 954, Note_off_c, 1, 52, 0
1, 954, Note_off_c, 1, 40, 0
1, 954, Note_off_c, 1, 60, 0
1, 955, Note_off_c, 1, 67, 0
1, 960, Note_on_c, 1, 67, 127
1, 960, Note_on_c, 1, 79, 127
1, 960, Note_on_c, 1, 76, 127
1, 960, Note_on_c, 1, 72, 127
1, 960, Note_on_c, 1, 48, 127
1, 960, Note_on_c, 1, 64, 127
1, 960, Note_on_c, 1, 36, 127
1, 960, Note_on_c, 1, 60, 127
1, 960, Note_on_c, 1, 65, 127
1, 981, Note_off_c, 1, 79, 0
1, 984, Note_on_c, 1, 77, 127
1, 1002, Note_off_c, 1, 48, 0
1, 1002, Note_off_c, 1, 64, 0
1, 1002, Note_off_c, 1, 36, 0
1, 1002, Note_off_c, 1, 60, 0
1, 1002, Note_off_c, 1, 65, 0
1, 1005, Note_off_c, 1, 77, 0
1, 1008, Note_on_c, 1, 47, 127
1, 1008, Note_on_c, 1, 62, 127
1, 1008, Note_on_c, 1, 35, 127
1, 1023, Note_off_c, 1, 67, 0
1, 1050, Note_off_c, 1, 47, 0
1, 1050, Note_off_c, 1, 62, 0
1, 1050, Note_off_c, 1, 35, 0
1, 1056, Note_on_c, 1, 45, 127
1, 1056, Note_on_c, 1, 33, 127
1, 1098, Note_off_c, 1, 76, 0
1, 1098, Note_off_c, 1, 45, 0
1, 1098, Note_off_c, 1, 33, 0
1, 1101, Note_off_c, 1, 72, 0
1, 1104, Note_on_c, 1, 77, 127
1, 1104, Note_on_c, 1, 74, 127
1, 1104, Note_on_c, 1, 69, 127
1, 1104, Note_on_c, 1, 50, 127
1, 1104, Note_on_c, 1, 38, 127
1, 1104, Note_on_c, 1, 57, 127
1, 1104, Note_on_c, 1, 65, 127
1, 1125, Note_off_c, 1, 77, 0
1, 1125, Note_off_c, 1, 74, 0
1, 1128, Note_on_c, 1, 76, 127
1, 1128, Note_on_c, 1, 72, 127
1, 1146, Note_off_c, 1, 69, 0
1, 1146, Note_off_c, 1, 50, 0
1, 1146, Note_off_c, 1, 38, 0
1, 1146, Note_off_c, 1, 57, 0
1, 1146, Note_off_c, 1, 65, 0
1, 1149, Note_off_c, 1, 76, 0
1, 1149, Note_off_c, 1, 72, 0
1, 1152, Note_on_c, 1, 77, 127
1, 1152, Note_on_c, 1, 74, 127
1, 1152, Note_on_c, 1, 67, 127
1, 1152, Note_on_c, 1, 47, 127
1, 1152, Note_on_c, 1, 62, 127
1, 1152, Note_on_c, 1, 35, 127
1, 1152, Note_on_c, 1, 65, 127
1, 1173, Note_off_c, 1, 77, 0
1, 1176, Note_on_c, 1, 76, 127
1, 1194, Note_off_c, 1, 67, 0
1, 1194, Note_off_c, 1, 47, 0
1, 1194, Note_off_c, 1, 62, 0
1, 1194, Note_off_c, 1, 35, 0
1, 1194, Note_off_c, 1, 65, 0
1, 1197, Note_off_c, 1, 76, 0
1, 1200, Note_on_c, 1, 69, 127
1, 1200, Note_on_c, 1, 45, 127
1, 1200, Note_on_c, 1, 60, 127
1, 1200, Note_on_c, 1, 33, 127
1, 1242, Note_off_c, 1, 69, 0
1, 1242, Note_off_c, 1, 45, 0
1, 1242, Note_off_c, 1, 60, 0
1, 1242, Note_off_c, 1, 33, 0
1, 1248, Note_on_c, 1, 71, 127
1, 1248, Note_on_c, 1, 43, 127
1, 1248, Note_on_c, 1, 59, 127
1, 1248, Note_on_c, 1, 31, 127
1, 1290, Note_off_c, 1, 74, 0
1, 1290, Note_off_c, 1, 43, 0
1, 1290, Note_off_c, 1, 59, 0
1, 1290, Note_off_c, 1, 31, 0
1, 1293, Note_off_c, 1, 71, 0
1, 1296, Note_on_c, 1, 76, 127
1, 1296, Note_on_c, 1, 72, 127
1, 1296, Note_on_c, 1, 64, 127
1, 1296, Note_on_c, 1, 48, 127
1, 1296, Note_on_c, 1, 67, 127
1, 1296, Note_on_c, 1, 36, 127
1, 1317, Note_off_c, 1, 76, 0
1, 1317, Note_off_c, 1, 72, 0
1, 1320, Note_on_c, 1, 74, 127
1, 1320, Note_on_c, 1, 71, 127
1, 1338, Note_off_c, 1, 64, 0
1, 1338, Note_off_c, 1, 48, 0
1, 1338, Note_off_c, 1, 67, 0
1, 1338, Note_off_c, 1, 36, 0
1, 1341, Note_off_c, 1, 74, 0
1, 1341, Note_off_c, 1, 71, 0
1, 1344, Note_on_c, 1, 76, 127
1, 1344, Note_on_c, 1, 72, 127
1, 1344, Note_on_c, 1, 69, 127
1, 1344, Note_on_c, 1, 45, 127
1, 1344, Note_on_c, 1, 60, 127
1, 1344, Note_on_c, 1, 33, 127
1, 1344, Note_on_c, 1, 64, 127
1, 1365, Note_off_c, 1, 76, 0
1, 1368, Note_on_c, 1, 74, 127
1, 1386, Note_off_c, 1, 45, 0
1, 1386, Note_off_c, 1, 60, 0
1, 1386, Note_off_c, 1, 33, 0
1, 1386, Note_off_c, 1, 64, 0
1, 1389, Note_off_c, 1, 74, 0
1, 1392, Note_on_c, 1, 43, 127
1, 1392, Note_on_c, 1, 58, 127
1, 1392, Note_on_c, 1, 31, 127
1, 1434, Note_off_c, 1, 43, 0
1, 1434, Note_off_c, 1, 58, 0
1, 1434, Note_off_c, 1, 31, 0
1, 1440, Note_on_c, 1, 41, 127
1, 1440, Note_on_c, 1, 57, 127
1, 1440, Note_on_c, 1, 29, 127
1, 1461, Note_off_c, 1, 72, 0
1, 1482, Note_off_c, 1, 57, 0
1, 1488, Note_on_c, 1, 81, 127
1, 1488, Note_on_c, 1, 65, 127
1, 1509, Note_off_c, 1, 81, 0
1, 1512, Note_on_c, 1, 79, 127
1, 1512, Note_on_c, 1, 70, 127
1, 1524, Note_off_c, 1, 69, 0
1, 1524, Note_off_c, 1, 41, 0
1, 1524, Note_off_c, 1, 29, 0
1, 1530, Note_off_c, 1, 65, 0
1, 1533, Note_off_c, 1, 79, 0
1, 1533, Note_off_c, 1, 70, 0
1, 1536, Note_on_c, 1, 77, 127
1, 1536, Note_on_c, 1, 69, 127
1, 1536, Note_on_c, 1, 60, 127
1, 1536, Note_on_c, 1, 65, 127
1, 1557, Note_off_c, 1, 77, 0
1, 1557, Note_off_c, 1, 69, 0
1, 1560, Note_on_c, 1, 76, 127
1, 1560, Note_on_c, 1, 67, 127
1, 1578, Note_off_c, 1, 60, 0
1, 1578, Note_off_c, 1, 65, 0
1, 1581, Note_off_c, 1, 76, 0
1, 1581, Note_off_c, 1, 67, 0
1, 1584, Note_on_c, 1, 74, 127
1, 1584, Note_on_c, 1, 65, 127
1, 1584, Note_on_c, 1, 69, 127
1, 1584, Note_on_c, 1, 53, 127
1, 1584, Note_on_c, 1, 41, 127
1, 1584, Note_on_c, 1, 62, 127
1, 1605, Note_off_c, 1, 74, 0
1, 1605, Note_off_c, 1, 65, 0
1, 1608, Note_on_c, 1, 72, 127
1, 1608, Note_on_c, 1, 64, 127
1, 1629, Note_off_c, 1, 72, 0
1, 1629, Note_off_c, 1, 64, 0
1, 1632, Note_on_c, 1, 71, 127
1, 1632, Note_on_c, 1, 67, 127
1, 1653, Note_off_c, 1, 53, 0
1, 1653, Note_off_c, 1, 41, 0
1, 1653, Note_off_c, 1, 71, 0
1, 1656, Note_on_c, 1, 55, 127
1, 1656, Note_on_c, 1, 43, 127
1, 1677, Note_off_c, 1, 69, 0
1, 1677, Note_off_c, 1, 55, 0
1, 1677, Note_off_c, 1, 43, 0
1, 1704, Note_on_c, 1, 52, 127
1, 1704, Note_on_c, 1, 40, 127
1, 1716, Note_off_c, 1, 67, 0
1, 1722, Note_off_c, 1, 62, 0
1, 1725, Note_off_c, 1, 52, 0
1, 1725, Note_off_c, 1, 40, 0
1, 1728, Note_on_c, 1, 71, 127
1, 1728, Note_on_c, 1, 50, 127
1, 1728, Note_on_c, 1, 38, 127
1, 1728, Note_on_c, 1, 67, 127
1, 1728, Note_on_c, 1, 70, 127
1, 1749, Note_off_c, 1, 71, 0
1, 1749, Note_off_c, 1, 50, 0
1, 1749, Note_off_c, 1, 38, 0
1, 1752, Note_on_c, 1, 72, 127
1, 1752, Note_on_c, 1, 48, 127
1, 1752, Note_on_c, 1, 36, 127
1, 1770, Note_off_c, 1, 67, 0
1, 1770, Note_off_c, 1, 70, 0
1, 1773, Note_off_c, 1, 72, 0
1, 1773, Note_off_c, 1, 48, 0
1, 1773, Note_off_c, 1, 36, 0
1, 1776, Note_on_c, 1, 74, 127
1, 1776, Note_on_c, 1, 77, 127
1, 1776, Note_on_c, 1, 67, 127
1, 1776, Note_on_c, 1, 47, 127
1, 1776, Note_on_c, 1, 35, 127
1, 1776, Note_on_c, 1, 62, 127
1, 1797, Note_off_c, 1, 74, 0
1, 1797, Note_off_c, 1, 47, 0
1, 1797, Note_off_c, 1, 35, 0
1, 1800, Note_on_c, 1, 76, 127
1, 1800, Note_on_c, 1, 45, 127
1, 1800, Note_on_c, 1, 33, 127
1, 1818, Note_off_c, 1, 77, 0
1, 1818, Note_off_c, 1, 67, 0
1, 1818, Note_off_c, 1, 62, 0
1, 1821, Note_off_c, 1, 76, 0
1, 1821, Note_off_c, 1, 45, 0
1, 1821, Note_off_c, 1, 33, 0
1, 1824, Note_on_c, 1, 77, 127
1, 1824, Note_on_c, 1, 71, 127
1, 1824, Note_on_c, 1, 62, 127
1, 1824, Note_on_c, 1, 43, 127
1, 1824, Note_on_c, 1, 31, 127
1, 1866, Note_off_c, 1, 71, 0
1, 1866, Note_off_c, 1, 62, 0
1, 1866, Note_off_c, 1, 43, 0
1, 1866, Note_off_c, 1, 31, 0
1, 1872, Note_on_c, 1, 72, 127
1, 1872, Note_on_c, 1, 64, 127
1, 1872, Note_on_c, 1, 48, 127
1, 1872, Note_on_c, 1, 36, 127
1, 1872, Note_on_c, 1, 67, 127
1, 1887, Note_off_c, 1, 77, 0
1, 1893, Note_off_c, 1, 72, 0
1, 1896, Note_on_c, 1, 79, 127
1, 1896, Note_on_c, 1, 74, 127
1, 1896, Note_on_c, 1, 65, 127
1, 1914, Note_off_c, 1, 64, 0
1, 1914, Note_off_c, 1, 48, 0
1, 1914, Note_off_c, 1, 36, 0
1, 1914, Note_off_c, 1, 67, 0
1, 1917, Note_off_c, 1, 79, 0
1, 1917, Note_off_c, 1, 74, 0
1, 1917, Note_off_c, 1, 65, 0
1, 1920, Note_on_c, 1, 74, 127
1, 1920, Note_on_c, 1, 71, 127
1, 1920, Note_on_c, 1, 67, 127
1, 1920, Note_on_c, 1, 55, 127
1, 1920, Note_on_c, 1, 43, 127
1, 1920, Note_on_c, 1, 62, 127
1, 1920, Note_on_c, 1, 70, 127
1, 1962, Note_off_c, 1, 67, 0
1, 1962, Note_off_c, 1, 55, 0
1, 1962, Note_off_c, 1, 43, 0
1, 1962, Note_off_c, 1, 62, 0
1, 1962, Note_off_c, 1, 70, 0
1, 1968, Note_on_c, 1, 31, 127
1, 1983, Note_off_c, 1, 74, 0
1, 1983, Note_off_c, 1, 71, 0
1, 1992, Note_on_c, 1, 72, 127
1, 2010, Note_off_c, 1, 31, 0
1, 2013, Note_off_c, 1, 72, 0
1, 2016, Note_on_c, 1, 72, 127
1, 2016, Note_on_c, 1, 64, 127
1, 2016, Note_on_c, 1, 48, 127
1, 2016, Note_on_c, 1, 67, 127
1, 2016, Note_on_c, 1, 36, 127
1, 2058, Note_off_c, 1, 72, 0
1, 2058, Note_off_c, 1, 64, 0
1, 2058, Note_off_c, 1, 48, 0
1, 2058, Note_off_c, 1, 67, 0
1, 2058, Note_off_c, 1, 36, 0
1, 2064, Note_on_c, 1, 67, 127
1, 2064, Note_on_c, 1, 64, 127
1, 2064, Note_on_c, 1, 60, 127
1, 2085, Note_off_c, 1, 60, 0
1, 2088, Note_on_c, 1, 62, 127
1, 2106, Note_off_c, 1, 67, 0
1, 2106, Note_off_c, 1, 64, 0
1, 2109, Note_off_c, 1, 62, 0
1, 2112, Note_on_c, 1, 69, 127
1, 2112, Note_on_c, 1, 66, 127
1, 2112, Note_on_c, 1, 60, 127
1, 2133, Note_off_c, 1, 60, 0
1, 2136, Note_on_c, 1, 58, 127
1, 2154, Note_off_c, 1, 69, 0
1, 2154, Note_off_c, 1, 66, 0
1, 2157, Note_off_c, 1, 58, 0
1, 2160, Note_on_c, 1, 70, 127
1, 2160, Note_on_c, 1, 67, 127
1, 2160, Note_on_c, 1, 57, 127
1, 2181, Note_off_c, 1, 57, 0
1, 2184, Note_on_c, 1, 55, 127
1, 2202, Note_off_c, 1, 70, 0
1, 2202, Note_off_c, 1, 67, 0
1, 2205, Note_off_c, 1, 55, 0
1, 2208, Note_on_c, 1, 72, 127
1, 2208, Note_on_c, 1, 69, 127
1, 2208, Note_on_c, 1, 54, 127
1, 2250, Note_off_c, 1, 72, 0
1, 2250, Note_off_c, 1, 69, 0
1, 2250, Note_off_c, 1, 54, 0
1, 2256, Note_on_c, 1, 74, 127
1, 2256, Note_on_c, 1, 66, 127
1, 2256, Note_on_c, 1, 50, 127
1, 2256, Note_on_c, 1, 62, 127
1, 2256, Note_on_c, 1, 38, 127
1, 2277, Note_off_c, 1, 74, 0
1, 2280, Note_on_c, 1, 75, 127
1, 2280, Note_on_c, 1, 72, 127
1, 2298, Note_off_c, 1, 66, 0
1, 2298, Note_off_c, 1, 50, 0
1, 2298, Note_off_c, 1, 62, 0
1, 2298, Note_off_c, 1, 38, 0
1, 2301, Note_off_c, 1, 75, 0
1, 2301, Note_off_c, 1, 72, 0
1, 2304, Note_on_c, 1, 74, 127
1, 2304, Note_on_c, 1, 67, 127
1, 2304, Note_on_c, 1, 70, 127
1, 2304, Note_on_c, 1, 52, 127
1, 2304, Note_on_c, 1, 55, 127
1, 2304, Note_on_c, 1, 40, 127
1, 2325, Note_off_c, 1, 74, 0
1, 2328, Note_on_c, 1, 72, 127
1, 2346, Note_off_c, 1, 67, 0
1, 2346, Note_off_c, 1, 70, 0
1, 2346, Note_off_c, 1, 52, 0
1, 2346, Note_off_c, 1, 55, 0
1, 2346, Note_off_c, 1, 40, 0
1, 2349, Note_off_c, 1, 72, 0
1, 2352, Note_on_c, 1, 70, 127
1, 2352, Note_on_c, 1, 69, 127
1, 2352, Note_on_c, 1, 54, 127
1, 2352, Note_on_c, 1, 62, 127
1, 2352, Note_on_c, 1, 42, 127
1, 2373, Note_off_c, 1, 70, 0
1, 2394, Note_off_c, 1, 54, 0
1, 2394, Note_off_c, 1, 62, 0
1, 2394, Note_off_c, 1, 42, 0
1, 2397, Note_off_c, 1, 69, 0
1, 2400, Note_on_c, 1, 70, 127
1, 2400, Note_on_c, 1, 62, 127
1, 2400, Note_on_c, 1, 67, 127
1, 2400, Note_on_c, 1, 55, 127
1, 2400, Note_on_c, 1, 43, 127
1, 2424, Note_on_c, 1, 50, 127
1, 2442, Note_off_c, 1, 70, 0
1, 2442, Note_off_c, 1, 62, 0
1, 2442, Note_off_c, 1, 67, 0
1, 2442, Note_off_c, 1, 55, 0
1, 2442, Note_off_c, 1, 43, 0
1, 2445, Note_off_c, 1, 50, 0
1, 2448, Note_on_c, 1, 74, 127
1, 2448, Note_on_c, 1, 70, 127
1, 2448, Note_on_c, 1, 55, 127
1, 2469, Note_off_c, 1, 55, 0
1, 2472, Note_on_c, 1, 57, 127
1, 2490, Note_off_c, 1, 74, 0
1, 2490, Note_off_c, 1, 70, 0
1, 2493, Note_off_c, 1, 57, 0
1, 2496, Note_on_c, 1, 76, 127
1, 2496, Note_on_c, 1, 67, 127
1, 2496, Note_on_c, 1, 55, 127
1, 2517, Note_off_c, 1, 55, 0
1, 2520, Note_on_c, 1, 53, 127
1, 2538, Note_off_c, 1, 76, 0
1, 2538, Note_off_c, 1, 67, 0
1, 2541, Note_off_c, 1, 53, 0
1, 2544, Note_on_c, 1, 79, 127
1, 2544, Note_on_c, 1, 69, 127
1, 2544, Note_on_c, 1, 52, 127
1, 2554, Note_off_c, 1, 79, 0
1, 2556, Note_on_c, 1, 77, 127
1, 2565, Note_off_c, 1, 52, 0
1, 2566, Note_off_c, 1, 77, 0
1, 2568, Note_on_c, 1, 50, 127
1, 2586, Note_off_c, 1, 69, 0
1, 2589, Note_off_c, 1, 50, 0
1, 2592, Note_on_c, 1, 79, 127
1, 2592, Note_on_c, 1, 70, 127
1, 2592, Note_on_c, 1, 48, 127
1, 2634, Note_off_c, 1, 79, 0
1, 2634, Note_off_c, 1, 70, 0
1, 2634, Note_off_c, 1, 48, 0
1, 2640, Note_on_c, 1, 81, 127
1, 2640, Note_on_c, 1, 72, 127
1, 2640, Note_on_c, 1, 69, 127
1, 2640, Note_on_c, 1, 45, 127
1, 2640, Note_on_c, 1, 64, 127
1, 2640, Note_on_c, 1, 33, 127
1, 2640, Note_on_c, 1, 60, 127
1, 2640, Note_on_c, 1, 65, 127
1, 2661, Note_off_c, 1, 81, 0
1, 2661, Note_off_c, 1, 69, 0
1, 2664, Note_on_c, 1, 82, 127
1, 2664, Note_on_c, 1, 67, 127
1, 2682, Note_off_c, 1, 72, 0
1, 2682, Note_off_c, 1, 45, 0
1, 2682, Note_off_c, 1, 64, 0
1, 2682, Note_off_c, 1, 33, 0
1, 2682, Note_off_c, 1, 60, 0
1, 2682, Note_off_c, 1, 65, 0
1, 2685, Note_off_c, 1, 82, 0
1, 2685, Note_off_c, 1, 67, 0
1, 2688, Note_on_c, 1, 81, 127
1, 2688, Note_on_c, 1, 74, 127
1, 2688, Note_on_c, 1, 65, 127
1, 2688, Note_on_c, 1, 46, 127
1, 2688, Note_on_c, 1, 62, 127
1, 2688, Note_on_c, 1, 34, 127
1, 2709, Note_off_c, 1, 81, 0
1, 2712, Note_on_c, 1, 79, 127
1, 2730, Note_off_c, 1, 74, 0
1, 2730, Note_off_c, 1, 65, 0
1, 2730, Note_off_c, 1, 46, 0
1, 2730, Note_off_c, 1, 62, 0
1, 2730, Note_off_c, 1, 34, 0
1, 2733, Note_off_c, 1, 79, 0
1, 2736, Note_on_c, 1, 77, 127
1, 2736, Note_on_c, 1, 76, 127
1, 2736, Note_on_c, 1, 64, 127
1, 2736, Note_on_c, 1, 48, 127
1, 2736, Note_on_c, 1, 69, 127
1, 2736, Note_on_c, 1, 36, 127
1, 2757, Note_off_c, 1, 77, 0
1, 2778, Note_off_c, 1, 64, 0
1, 2778, Note_off_c, 1, 48, 0
1, 2778, Note_off_c, 1, 69, 0
1, 2778, Note_off_c, 1, 36, 0
1, 2781, Note_off_c, 1, 76, 0
1, 2784, Note_on_c, 1, 77, 127
1, 2784, Note_on_c, 1, 69, 127
1, 2784, Note_on_c, 1, 62, 127
1, 2784, Note_on_c, 1, 50, 127
1, 2784, Note_on_c, 1, 57, 127
1, 2784, Note_on_c, 1, 38, 127
1, 2784, Note_on_c, 1, 65, 127
1, 2805, Note_off_c, 1, 77, 0
1, 2808, Note_on_c, 1, 74, 127
1, 2826, Note_off_c, 1, 69, 0
1, 2826, Note_off_c, 1, 62, 0
1, 2826, Note_off_c, 1, 50, 0
1, 2826, Note_off_c, 1, 57, 0
1, 2826, Note_off_c, 1, 38, 0
1, 2826, Note_off_c, 1, 65, 0
1, 2829, Note_off_c, 1, 74, 0
1, 2832, Note_on_c, 1, 82, 127
1, 2832, Note_on_c, 1, 74, 127
1, 2832, Note_on_c, 1, 62, 127
1, 2832, Note_on_c, 1, 43, 127
1, 2832, Note_on_c, 1, 58, 127
1, 2832, Note_on_c, 1, 31, 127
1, 2832, Note_on_c, 1, 67, 127
1, 2832, Note_on_c, 1, 70, 127
1, 2853, Note_off_c, 1, 82, 0
1, 2853, Note_off_c, 1, 74, 0
1, 2856, Note_on_c, 1, 84, 127
1, 2856, Note_on_c, 1, 75, 127
1, 2874, Note_off_c, 1, 62, 0
1, 2874, Note_off_c, 1, 43, 0
1, 2874, Note_off_c, 1, 58, 0
1, 2874, Note_off_c, 1, 31, 0
1, 2874, Note_off_c, 1, 67, 0
1, 2874, Note_off_c, 1, 70, 0
1, 2877, Note_off_c, 1, 84, 0
1, 2877, Note_off_c, 1, 75, 0
1, 2880, Note_on_c, 1, 82, 127
1, 2880, Note_on_c, 1, 74, 127
1, 2880, Note_on_c, 1, 60, 127
1, 2880, Note_on_c, 1, 45, 127
1, 2880, Note_on_c, 1, 33, 127
1, 2880, Note_on_c, 1, 65, 127
1, 2880, Note_on_c, 1, 72, 127
1, 2901, Note_off_c, 1, 82, 0
1, 2901, Note_off_c, 1, 74, 0
1, 2904, Note_on_c, 1, 81, 127
1, 2922, Note_off_c, 1, 60, 0
1, 2922, Note_off_c, 1, 45, 0
1, 2922, Note_off_c, 1, 33, 0
1, 2922, Note_off_c, 1, 65, 0
1, 2925, Note_off_c, 1, 72, 0
1, 2925, Note_off_c, 1, 81, 0
1, 2928, Note_on_c, 1, 79, 127
1, 2928, Note_on_c, 1, 70, 127
1, 2928, Note_on_c, 1, 62, 127
1, 2928, Note_on_c, 1, 46, 127
1, 2928, Note_on_c, 1, 34, 127
1, 2928, Note_on_c, 1, 67, 127
1, 2949, Note_off_c, 1, 79, 0
1, 2949, Note_off_c, 1, 70, 0
1, 2952, Note_on_c, 1, 77, 127
1, 2952, Note_on_c, 1, 69, 127
1, 2970, Note_off_c, 1, 62, 0
1, 2970, Note_off_c, 1, 46, 0
1, 2970, Note_off_c, 1, 34, 0
1, 2970, Note_off_c, 1, 67, 0
1, 2973, Note_off_c, 1, 77, 0
1, 2973, Note_off_c, 1, 69, 0
1, 2976, Note_on_c, 1, 76, 127
1, 2976, Note_on_c, 1, 67, 127
1, 2976, Note_on_c, 1, 64, 127
1, 2976, Note_on_c, 1, 48, 127
1, 2976, Note_on_c, 1, 55, 127
1, 2976, Note_on_c, 1, 36, 127
1, 3018, Note_off_c, 1, 76, 0
1, 3018, Note_off_c, 1, 67, 0
1, 3018, Note_off_c, 1, 64, 0
1, 3018, Note_off_c, 1, 48, 0
1, 3018, Note_off_c, 1, 55, 0
1, 3018, Note_off_c, 1, 36, 0
1, 3024, Note_on_c, 1, 60, 127
1, 3024, Note_on_c, 1, 79, 127
1, 3024, Note_on_c, 1, 76, 127
1, 3024, Note_on_c, 1, 70, 127
1, 3024, Note_on_c, 1, 36, 127
1, 3024, Note_on_c, 1, 55, 127
1, 3024, Note_on_c, 1, 52, 127
1, 3024, Note_on_c, 1, 24, 127
1, 3045, Note_off_c, 1, 79, 0
1, 3045, Note_off_c, 1, 76, 0
1, 3045, Note_off_c, 1, 70, 0
1, 3048, Note_on_c, 1, 77, 127
1, 3048, Note_on_c, 1, 74, 127
1, 3048, Note_on_c, 1, 69, 127
1, 3066, Note_off_c, 1, 60, 0
1, 3066, Note_off_c, 1, 36, 0
1, 3066, Note_off_c, 1, 55, 0
1, 3066, Note_off_c, 1, 52, 0
1, 3066, Note_off_c, 1, 24, 0
1, 3069, Note_off_c, 1, 77, 0
1, 3069, Note_off_c, 1, 74, 0
1, 3069, Note_off_c, 1, 69, 0
1, 3072, Note_on_c, 1, 60, 127
1, 3072, Note_on_c, 1, 79, 127
1, 3072, Note_on_c, 1, 76, 127
1, 3072, Note_on_c, 1, 70, 127
1, 3072, Note_on_c, 1, 64, 127
1, 3072, Note_on_c, 1, 55, 127
1, 3093, Note_off_c, 1, 79, 0
1, 3093, Note_off_c, 1, 76, 0
1, 3093, Note_off_c, 1, 70, 0
1, 3096, Note_on_c, 1, 77, 127
1, 3096, Note_on_c, 1, 74, 127
1, 3096, Note_on_c, 1, 69, 127
1, 3114, Note_off_c, 1, 64, 0
1, 3114, Note_off_c, 1, 55, 0
1, 3117, Note_off_c, 1, 77, 0
1, 3117, Note_off_c, 1, 74, 0
1, 3117, Note_off_c, 1, 69, 0
1, 3120, Note_on_c, 1, 67, 127
1, 3162, Note_off_c, 1, 67, 0
1, 3163, Note_off_c, 1, 60, 0
1, 3168, Note_on_c, 1, 60, 127
1, 3168, Note_on_c, 1, 79, 127
1, 3168, Note_on_c, 1, 76, 127
1, 3168, Note_on_c, 1, 70, 127
1, 3168, Note_on_c, 1, 67, 127
1, 3168, Note_on_c, 1, 48, 127
1, 3196, Note_off_c, 1, 60, 0
1, 3199, Note_on_c, 1, 53, 127
1, 3210, Note_off_c, 1, 79, 0
1, 3210, Note_off_c, 1, 76, 0
1, 3210, Note_off_c, 1, 70, 0
1, 3210, Note_off_c, 1, 67, 0
1, 3210, Note_off_c, 1, 48, 0
1, 3216, Note_on_c, 1, 72, 127
1, 3216, Note_on_c, 1, 64, 127
1, 3216, Note_on_c, 1, 69, 127
1, 3216, Note_on_c, 1, 36, 127
1, 3228, Note_off_c, 1, 53, 0
1, 3237, Note_off_c, 1, 72, 0
1, 3240, Note_on_c, 1, 74, 127
1, 3258, Note_off_c, 1, 64, 0
1, 3258, Note_off_c, 1, 69, 0
1, 3258, Note_off_c, 1, 36, 0
1, 3261, Note_off_c, 1, 74, 0
1, 3264, Note_on_c, 1, 60, 127
1, 3264, Note_on_c, 1, 72, 127
1, 3264, Note_on_c, 1, 65, 127
1, 3264, Note_on_c, 1, 69, 127
1, 3264, Note_on_c, 1, 50, 127
1, 3264, Note_on_c, 1, 38, 127
1, 3285, Note_off_c, 1, 72, 0
1, 3288, Note_on_c, 1, 70, 127
1, 3292, Note_off_c, 1, 60, 0
1, 3306, Note_off_c, 1, 65, 0
1, 3306, Note_off_c, 1, 69, 0
1, 3306, Note_off_c, 1, 50, 0
1, 3306, Note_off_c, 1, 38, 0
1, 3309, Note_off_c, 1, 70, 0
1, 3312, Note_on_c, 1, 67, 127
1, 3312, Note_on_c, 1, 52, 127
1, 3312, Note_on_c, 1, 40, 127
1, 3312, Note_on_c, 1, 64, 127
1, 3354, Note_off_c, 1, 52, 0
1, 3354, Note_off_c, 1, 40, 0
1, 3354, Note_off_c, 1, 64, 0
1, 3357, Note_off_c, 1, 67, 0
1, 3360, Note_on_c, 1, 60, 127
1, 3360, Note_on_c, 1, 69, 127
1, 3360, Note_on_c, 1, 65, 127
1, 3360, Note_on_c, 1, 53, 127
1, 3360, Note_on_c, 1, 41, 127
1, 3402, Note_off_c, 1, 69, 0
1, 3402, Note_off_c, 1, 65, 0
1, 3402, Note_off_c, 1, 53, 0
1, 3402, Note_off_c, 1, 41, 0
1, 3408, Note_on_c, 1, 84, 127
1, 3408, Note_on_c, 1, 81, 127
1, 3408, Note_on_c, 1, 75, 127
1, 3408, Note_on_c, 1, 57, 127
1, 3408, Note_on_c, 1, 29, 127
1, 3429, Note_off_c, 1, 84, 0
1, 3429, Note_off_c, 1, 81, 0
1, 3429, Note_off_c, 1, 75, 0
1, 3432, Note_on_c, 1, 82, 127
1, 3432, Note_on_c, 1, 79, 127
1, 3432, Note_on_c, 1, 74, 127
1, 3450, Note_off_c, 1, 60, 0
1, 3450, Note_off_c, 1, 57, 0
1, 3450, Note_off_c, 1, 29, 0
1, 3453, Note_off_c, 1, 82, 0
1, 3453, Note_off_c, 1, 79, 0
1, 3453, Note_off_c, 1, 74, 0
1, 3456, Note_on_c, 1, 53, 127
1, 3456, Note_on_c, 1, 84, 127
1, 3456, Note_on_c, 1, 81, 127
1, 3456, Note_on_c, 1, 75, 127
1, 3456, Note_on_c, 1, 69, 127
1, 3456, Note_on_c, 1, 65, 127
1, 3456, Note_on_c, 1, 60, 127
1, 3477, Note_off_c, 1, 84, 0
1, 3477, Note_off_c, 1, 81, 0
1, 3477, Note_off_c, 1, 75, 0
1, 3480, Note_on_c, 1, 82, 127
1, 3480, Note_on_c, 1, 79, 127
1, 3480, Note_on_c, 1, 74, 127
1, 3484, Note_off_c, 1, 53, 0
1, 3498, Note_off_c, 1, 69, 0
1, 3498, Note_off_c, 1, 65, 0
1, 3498, Note_off_c, 1, 60, 0
1, 3501, Note_off_c, 1, 82, 0
1, 3501, Note_off_c, 1, 79, 0
1, 3501, Note_off_c, 1, 74, 0
1, 3504, Note_on_c, 1, 72, 127
1, 3546, Note_off_c, 1, 72, 0
1, 3552, Note_on_c, 1, 53, 127
1, 3552, Note_on_c, 1, 84, 127
1, 3552, Note_on_c, 1, 81, 127
1, 3552, Note_on_c, 1, 75, 127
1, 3552, Note_on_c, 1, 72, 127
1, 3583, Note_on_c, 1, 48, 127
1, 3594, Note_off_c, 1, 53, 0
1, 3594, Note_off_c, 1, 84, 0
1, 3594, Note_off_c, 1, 81, 0
1, 3594, Note_off_c, 1, 75, 0
1, 3594, Note_off_c, 1, 72, 0
1, 3600, Note_on_c, 1, 77, 127
1, 3600, Note_on_c, 1, 69, 127
1, 3600, Note_on_c, 1, 74, 127
1, 3600, Note_on_c, 1, 41, 127
1, 3600, Note_on_c, 1, 65, 127
1, 3612, Note_off_c, 1, 48, 0
1, 3621, Note_off_c, 1, 77, 0
1, 3621, Note_off_c, 1, 74, 0
1, 3624, Note_on_c, 1, 79, 127
1, 3642, Note_off_c, 1, 69, 0
1, 3642, Note_off_c, 1, 41, 0
1, 3642, Note_off_c, 1, 65, 0
1, 3645, Note_off_c, 1, 79, 0
1, 3648, Note_on_c, 1, 53, 127
1, 3648, Note_on_c, 1, 77, 127
1, 3648, Note_on_c, 1, 70, 127
1, 3648, Note_on_c, 1, 74, 127
1, 3648, Note_on_c, 1, 55, 127
1, 3648, Note_on_c, 1, 43, 127
1, 3648, Note_on_c, 1, 62, 127
1, 3669, Note_off_c, 1, 77, 0
1, 3672, Note_on_c, 1, 75, 127
1, 3676, Note_off_c, 1, 53, 0
1, 3690, Note_off_c, 1, 70, 0
1, 3690, Note_off_c, 1, 74, 0
1, 3690, Note_off_c, 1, 55, 0
1, 3690, Note_off_c, 1, 43, 0
1, 3690, Note_off_c, 1, 62, 0
1, 3693, Note_off_c, 1, 75, 0
1, 3696, Note_on_c, 1, 72, 127
1, 3696, Note_on_c, 1, 57, 127
1, 3696, Note_on_c, 1, 45, 127
1, 3696, Note_on_c, 1, 60, 127
1, 3738, Note_off_c, 1, 57, 0
1, 3738, Note_off_c, 1, 45, 0
1, 3738, Note_off_c, 1, 60, 0
1, 3741, Note_off_c, 1, 72, 0
1, 3744, Note_on_c, 1, 53, 127
1, 3744, Note_on_c, 1, 74, 127
1, 3744, Note_on_c, 1, 65, 127
1, 3744, Note_on_c, 1, 70, 127
1, 3744, Note_on_c, 1, 58, 127
1, 3744, Note_on_c, 1, 46, 127
1, 3765, Note_off_c, 1, 58, 0
1, 3765, Note_off_c, 1, 46, 0
1, 3768, Note_on_c, 1, 41, 127
1, 3786, Note_off_c, 1, 74, 0
1, 3786, Note_off_c, 1, 65, 0
1, 3786, Note_off_c, 1, 70, 0
1, 3789, Note_off_c, 1, 41, 0
1, 3792, Note_on_c, 1, 79, 127
1, 3792, Note_on_c, 1, 67, 127
1, 3807, Note_off_c, 1, 53, 0
1, 3813, Note_off_c, 1, 79, 0
1, 3816, Note_on_c, 1, 60, 127
1, 3816, Note_on_c, 1, 81, 127
1, 3816, Note_on_c, 1, 75, 127
1, 3816, Note_on_c, 1, 72, 127
1, 3816, Note_on_c, 1, 57, 127
1, 3816, Note_on_c, 1, 45, 127
1, 3834, Note_off_c, 1, 67, 0
1, 3837, Note_off_c, 1, 60, 0
1, 3837, Note_off_c, 1, 81, 0
1, 3837, Note_off_c, 1, 75, 0
1, 3837, Note_off_c, 1, 72, 0
1, 3837, Note_off_c, 1, 57, 0
1, 3837, Note_off_c, 1, 45, 0
1, 3840, Note_on_c, 1, 79, 127
1, 3840, Note_on_c, 1, 74, 127
1, 3840, Note_on_c, 1, 70, 127
1, 3840, Note_on_c, 1, 58, 127
1, 3840, Note_on_c, 1, 46, 127
1, 3840, Note_on_c, 1, 62, 127
1, 3861, Note_off_c, 1, 79, 0
1, 3861, Note_off_c, 1, 58, 0
1, 3861, Note_off_c, 1, 46, 0
1, 3864, Note_on_c, 1, 77, 127
1, 3864, Note_on_c, 1, 57, 127
1, 3864, Note_on_c, 1, 45, 127
1, 3882, Note_off_c, 1, 74, 0
1, 3882, Note_off_c, 1, 70, 0
1, 3882, Note_off_c, 1, 62, 0
1, 3885, Note_off_c, 1, 77, 0
1, 3885, Note_off_c, 1, 57, 0
1, 3885, Note_off_c, 1, 45, 0
1, 3888, Note_on_c, 1, 76, 127
1, 3888, Note_on_c, 1, 70, 127
1, 3888, Note_on_c, 1, 67, 127
1, 3888, Note_on_c, 1, 58, 127
1, 3888, Note_on_c, 1, 46, 127
1, 3909, Note_off_c, 1, 76, 0
1, 3909, Note_off_c, 1, 58, 0
1, 3909, Note_off_c, 1, 46, 0
1, 3912, Note_on_c, 1, 74, 127
1, 3912, Note_on_c, 1, 57, 127
1, 3912, Note_on_c, 1, 45, 127
1, 3930, Note_off_c, 1, 70, 0
1, 3930, Note_off_c, 1, 67, 0
1, 3933, Note_off_c, 1, 74, 0
1, 3933, Note_off_c, 1, 57, 0
1, 3933, Note_off_c, 1, 45, 0
1, 3936, Note_on_c, 1, 72, 127
1, 3936, Note_on_c, 1, 67, 127
1, 3936, Note_on_c, 1, 64, 127
1, 3936, Note_on_c, 1, 58, 127
1, 3936, Note_on_c, 1, 46, 127
1, 3957, Note_off_c, 1, 58, 0
1, 3957, Note_off_c, 1, 46, 0
1, 3960, Note_on_c, 1, 60, 127
1, 3960, Note_on_c, 1, 48, 127
1, 3981, Note_off_c, 1, 60, 0
1, 3981, Note_off_c, 1, 48, 0
1, 3999, Note_off_c, 1, 72, 0
1, 4008, Note_on_c, 1, 74, 127
1, 4008, Note_on_c, 1, 69, 127
1, 4008, Note_on_c, 1, 65, 127
1, 4008, Note_on_c, 1, 57, 127
1, 4008, Note_on_c, 1, 45, 127
1, 4026, Note_off_c, 1, 67, 0
1, 4026, Note_off_c, 1, 64, 0
1, 4029, Note_off_c, 1, 74, 0
1, 4029, Note_off_c, 1, 69, 0
1, 4029, Note_off_c, 1, 65, 0
1, 4029, Note_off_c, 1, 57, 0
1, 4029, Note_off_c, 1, 45, 0
1, 4032, Note_on_c, 1, 76, 127
1, 4032, Note_on_c, 1, 70, 127
1, 4032, Note_on_c, 1, 67, 127
1, 4032, Note_on_c, 1, 55, 127
1, 4032, Note_on_c, 1, 43, 127
1, 4032, Note_on_c, 1, 64, 127
1, 4053, Note_off_c, 1, 76, 0
1, 4053, Note_off_c, 1, 67, 0
1, 4053, Note_off_c, 1, 55, 0
1, 4053, Note_off_c, 1, 43, 0
1, 4056, Note_on_c, 1, 77, 127
1, 4056, Note_on_c, 1, 69, 127
1, 4056, Note_on_c, 1, 53, 127
1, 4056, Note_on_c, 1, 41, 127
1, 4074, Note_off_c, 1, 70, 0
1, 4074, Note_off_c, 1, 64, 0
1, 4077, Note_off_c, 1, 77, 0
1, 4077, Note_off_c, 1, 69, 0
1, 4077, Note_off_c, 1, 53, 0
1, 4077, Note_off_c, 1, 41, 0
1, 4080, Note_on_c, 1, 79, 127
1, 4080, Note_on_c, 1, 67, 127
1, 4080, Note_on_c, 1, 70, 127
1, 4080, Note_on_c, 1, 52, 127
1, 4080, Note_on_c, 1, 40, 127
1, 4101, Note_off_c, 1, 79, 0
1, 4101, Note_off_c, 1, 52, 0
1, 4101, Note_off_c, 1, 40, 0
1, 4104, Note_on_c, 1, 81, 127
1, 4104, Note_on_c, 1, 65, 127
1, 4104, Note_on_c, 1, 50, 127
1, 4104, Note_on_c, 1, 38, 127
1, 4122, Note_off_c, 1, 70, 0
1, 4125, Note_off_c, 1, 67, 0
1, 4125, Note_off_c, 1, 81, 0
1, 4125, Note_off_c, 1, 65, 0
1, 4125, Note_off_c, 1, 50, 0
1, 4125, Note_off_c, 1, 38, 0
1, 4128, Note_on_c, 1, 82, 127
1, 4128, Note_on_c, 1, 64, 127
1, 4128, Note_on_c, 1, 72, 127
1, 4128, Note_on_c, 1, 48, 127
1, 4128, Note_on_c, 1, 36, 127
1, 4128, Note_on_c, 1, 67, 127
1, 4149, Note_off_c, 1, 82, 0
1, 4152, Note_on_c, 1, 84, 127
1, 4162, Note_off_c, 1, 84, 0
1, 4170, Note_off_c, 1, 64, 0
1, 4170, Note_off_c, 1, 48, 0
1, 4170, Note_off_c, 1, 36, 0
1, 4170, Note_off_c, 1, 67, 0
1, 4176, Note_on_c, 1, 81, 127
1, 4176, Note_on_c, 1, 65, 127
1, 4176, Note_on_c, 1, 53, 127
1, 4176, Note_on_c, 1, 41, 127
1, 4176, Note_on_c, 1, 69, 127
1, 4186, Note_off_c, 1, 81, 0
1, 4218, Note_off_c, 1, 65, 0
1, 4218, Note_off_c, 1, 53, 0
1, 4218, Note_off_c, 1, 41, 0
1, 4218, Note_off_c, 1, 69, 0
1, 4224, Note_on_c, 1, 79, 127
1, 4224, Note_on_c, 1, 60, 127
1, 4245, Note_off_c, 1, 72, 0
1, 4248, Note_on_c, 1, 70, 127
1, 4266, Note_off_c, 1, 60, 0
1, 4269, Note_off_c, 1, 70, 0
1, 4287, Note_off_c, 1, 79, 0
1, 4296, Note_on_c, 1, 77, 127
1, 4317, Note_off_c, 1, 77, 0
1, 4320, Note_on_c, 1, 65, 127
1, 4320, Note_on_c, 1, 77, 127
1, 4320, Note_on_c, 1, 69, 127
1, 4320, Note_on_c, 1, 50, 127
1, 4320, Note_on_c, 1, 38, 127
1, 4341, Note_off_c, 1, 77, 0
1, 4341, Note_off_c, 1, 50, 0
1, 4341, Note_off_c, 1, 38, 0
1, 4344, Note_on_c, 1, 76, 127
1, 4344, Note_on_c, 1, 48, 127
1, 4344, Note_on_c, 1, 36, 127
1, 4362, Note_off_c, 1, 69, 0
1, 4365, Note_off_c, 1, 76, 0
1, 4365, Note_off_c, 1, 48, 0
1, 4365, Note_off_c, 1, 36, 0
1, 4368, Note_on_c, 1, 60, 127
1, 4410, Note_off_c, 1, 60, 0
1, 4411, Note_off_c, 1, 65, 0
1, 4416, Note_on_c, 1, 65, 127
1, 4416, Note_on_c, 1, 74, 127
1, 4416, Note_on_c, 1, 70, 127
1, 4416, Note_on_c, 1, 46, 127
1, 4416, Note_on_c, 1, 34, 127
1, 4416, Note_on_c, 1, 62, 127
1, 4437, Note_off_c, 1, 74, 0
1, 4437, Note_off_c, 1, 46, 0
1, 4437, Note_off_c, 1, 34, 0
1, 4440, Note_on_c, 1, 72, 127
1, 4440, Note_on_c, 1, 45, 127
1, 4440, Note_on_c, 1, 33, 127
1, 4447, Note_on_c, 1, 60, 127
1, 4458, Note_off_c, 1, 70, 0
1, 4458, Note_off_c, 1, 62, 0
1, 4461, Note_off_c, 1, 72, 0
1, 4461, Note_off_c, 1, 45, 0
1, 4461, Note_off_c, 1, 33, 0
1, 4476, Note_off_c, 1, 60, 0
1, 4507, Note_off_c, 1, 65, 0
1, 4512, Note_on_c, 1, 65, 127
1, 4512, Note_on_c, 1, 60, 127
1, 4512, Note_on_c, 1, 70, 127
1, 4512, Note_on_c, 1, 62, 127
1, 4512, Note_on_c, 1, 67, 127
1, 4512, Note_on_c, 1, 43, 127
1, 4512, Note_on_c, 1, 31, 127
1, 4536, Note_on_c, 1, 72, 127
1, 4536, Note_on_c, 1, 64, 127
1, 4540, Note_off_c, 1, 65, 0
1, 4540, Note_off_c, 1, 60, 0
1, 4543, Note_on_c, 1, 57, 127
1, 4546, Note_off_c, 1, 72, 0
1, 4554, Note_off_c, 1, 62, 0
1, 4554, Note_off_c, 1, 67, 0
1, 4554, Note_off_c, 1, 43, 0
1, 4554, Note_off_c, 1, 31, 0
1, 4557, Note_off_c, 1, 64, 0
1, 4558, Note_off_c, 1, 70, 0
1, 4560, Note_on_c, 1, 69, 127
1, 4560, Note_on_c, 1, 41, 127
1, 4560, Note_on_c, 1, 29, 127
1, 4572, Note_off_c, 1, 57, 0
1, 4602, Note_off_c, 1, 69, 0
1, 4602, Note_off_c, 1, 41, 0
1, 4602, Note_off_c, 1, 29, 0
1, 4608, Note_on_c, 1, 60, 127
1, 4608, Note_on_c, 1, 57, 127
1, 4608, Note_on_c, 1, 67, 127
1, 4608, Note_on_c, 1, 64, 127
1, 4608, Note_on_c, 1, 48, 127
1, 4608, Note_on_c, 1, 36, 127
1, 4636, Note_off_c, 1, 57, 0
1, 4639, Note_on_c, 1, 53, 127
1, 4650, Note_off_c, 1, 48, 0
1, 4650, Note_off_c, 1, 36, 0
1, 4656, Note_on_c, 1, 24, 127
1, 4668, Note_off_c, 1, 53, 0
1, 4680, Note_on_c, 1, 65, 127
1, 4698, Note_off_c, 1, 67, 0
1, 4698, Note_off_c, 1, 64, 0
1, 4698, Note_off_c, 1, 24, 0
1, 4701, Note_off_c, 1, 60, 0
1, 4701, Note_off_c, 1, 65, 0
1, 4704, Note_on_c, 1, 57, 127
1, 4704, Note_on_c, 1, 53, 127
1, 4704, Note_on_c, 1, 65, 127
1, 4704, Note_on_c, 1, 60, 127
1, 4704, Note_on_c, 1, 41, 127
1, 4704, Note_on_c, 1, 29, 127
1, 4704, Note_on_c, 1, 69, 127
1, 4746, Note_off_c, 1, 53, 0
1, 4752, Note_on_c, 1, 72, 127
1, 4773, Note_off_c, 1, 72, 0
1, 4776, Note_on_c, 1, 70, 127
1, 4776, Note_on_c, 1, 67, 127
1, 4788, Note_off_c, 1, 57, 0
1, 4788, Note_off_c, 1, 41, 0
1, 4788, Note_off_c, 1, 29, 0
1, 4788, Note_off_c, 1, 69, 0
1, 4794, Note_off_c, 1, 65, 0
1, 4794, Note_off_c, 1, 60, 0
1, 4797, Note_off_c, 1, 70, 0
1, 4797, Note_off_c, 1, 67, 0
1, 4800, Note_on_c, 1, 72, 127
1, 4800, Note_on_c, 1, 69, 127
1, 4800, Note_on_c, 1, 65, 127
1, 4800, Note_on_c, 1, 60, 127
1, 4821, Note_off_c, 1, 72, 0
1, 4824, Note_on_c, 1, 70, 127
1, 4824, Note_on_c, 1, 67, 127
1, 4842, Note_off_c, 1, 69, 0
1, 4842, Note_off_c, 1, 65, 0
1, 4842, Note_off_c, 1, 60, 0
1, 4845, Note_off_c, 1, 70, 0
1, 4845, Note_off_c, 1, 67, 0
1, 4848, Note_on_c, 1, 72, 127
1, 4848, Note_on_c, 1, 69, 127
1, 4848, Note_on_c, 1, 64, 127
1, 4848, Note_on_c, 1, 60, 127
1, 4872, Note_on_c, 1, 70, 127
1, 4872, Note_on_c, 1, 67, 127
1, 4890, Note_off_c, 1, 72, 0
1, 4890, Note_off_c, 1, 69, 0
1, 4890, Note_off_c, 1, 64, 0
1, 4890, Note_off_c, 1, 60, 0
1, 4893, Note_off_c, 1, 70, 0
1, 4893, Note_off_c, 1, 67, 0
1, 4896, Note_on_c, 1, 69, 127
1, 4896, Note_on_c, 1, 65, 127
1, 4896, Note_on_c, 1, 77, 127
1, 4896, Note_on_c, 1, 74, 127
1, 4896, Note_on_c, 1, 62, 127
1, 4917, Note_off_c, 1, 65, 0
1, 4920, Note_on_c, 1, 70, 127
1, 4920, Note_on_c, 1, 67, 127
1, 4938, Note_off_c, 1, 69, 0
1, 4938, Note_off_c, 1, 77, 0
1, 4938, Note_off_c, 1, 74, 0
1, 4938, Note_off_c, 1, 62, 0
1, 4941, Note_off_c, 1, 70, 0
1, 4941, Note_off_c, 1, 67, 0
1, 4944, Note_on_c, 1, 72, 127
1, 4944, Note_on_c, 1, 69, 127
1, 4944, Note_on_c, 1, 65, 127
1, 4944, Note_on_c, 1, 57, 127
1, 4968, Note_on_c, 1, 74, 127
1, 4968, Note_on_c, 1, 70, 127
1, 4986, Note_off_c, 1, 72, 0
1, 4986, Note_off_c, 1, 69, 0
1, 4986, Note_off_c, 1, 65, 0
1, 4986, Note_off_c, 1, 57, 0
1, 4989, Note_off_c, 1, 74, 0
1, 4989, Note_off_c, 1, 70, 0
1, 4992, Note_on_c, 1, 70, 127
1, 4992, Note_on_c, 1, 67, 127
1, 4992, Note_on_c, 1, 74, 127
1, 4992, Note_on_c, 1, 65, 127
1, 4992, Note_on_c, 1, 58, 127
1, 5016, Note_on_c, 1, 69, 127
1, 5034, Note_off_c, 1, 70, 0
1, 5034, Note_off_c, 1, 67, 0
1, 5034, Note_off_c, 1, 74, 0
1, 5034, Note_off_c, 1, 65, 0
1, 5034, Note_off_c, 1, 58, 0
1, 5037, Note_off_c, 1, 69, 0
1, 5040, Note_on_c, 1, 70, 127
1, 5040, Note_on_c, 1, 60, 127
1, 5040, Note_on_c, 1, 72, 127
1, 5040, Note_on_c, 1, 67, 127
1, 5040, Note_on_c, 1, 64, 127
1, 5061, Note_off_c, 1, 70, 0
1, 5082, Note_off_c, 1, 60, 0
1, 5082, Note_off_c, 1, 72, 0
1, 5082, Note_off_c, 1, 64, 0
1, 5085, Note_off_c, 1, 67, 0
1, 5088, Note_on_c, 1, 69, 127
1, 5088, Note_on_c, 1, 65, 127
1, 5088, Note_on_c, 1, 60, 127
1, 5088, Note_on_c, 1, 53, 127
1, 5130, Note_off_c, 1, 69, 0
1, 5130, Note_off_c, 1, 65, 0
1, 5130, Note_off_c, 1, 60, 0
1, 5130, Note_off_c, 1, 53, 0
1, 5136, Note_on_c, 1, 60, 127
1, 5136, Note_on_c, 1, 57, 127
1, 5136, Note_on_c, 1, 77, 127
1, 5136, Note_on_c, 1, 72, 127
1, 5136, Note_on_c, 1, 69, 127
1, 5136, Note_on_c, 1, 41, 127
1, 5136, Note_on_c, 1, 29, 127
1, 5157, Note_off_c, 1, 77, 0
1, 5157, Note_off_c, 1, 72, 0
1, 5160, Note_on_c, 1, 76, 127
1, 5160, Note_on_c, 1, 70, 127
1, 5160, Note_on_c, 1, 67, 127
1, 5160, Note_on_c, 1, 79, 127
1, 5160, Note_on_c, 1, 74, 127
1, 5178, Note_off_c, 1, 60, 0
1, 5178, Note_off_c, 1, 57, 0
1, 5178, Note_off_c, 1, 69, 0
1, 5178, Note_off_c, 1, 41, 0
1, 5178, Note_off_c, 1, 29, 0
1, 5181, Note_off_c, 1, 76, 0
1, 5181, Note_off_c, 1, 70, 0
1, 5181, Note_off_c, 1, 67, 0
1, 5181, Note_off_c, 1, 79, 0
1, 5181, Note_off_c, 1, 74, 0
1, 5184, Note_on_c, 1, 65, 127
1, 5184, Note_on_c, 1, 60, 127
1, 5184, Note_on_c, 1, 77, 127
1, 5184, Note_on_c, 1, 72, 127
1, 5184, Note_on_c, 1, 69, 127
1, 5184, Note_on_c, 1, 45, 127
1, 5184, Note_on_c, 1, 33, 127
1, 5205, Note_off_c, 1, 77, 0
1, 5205, Note_off_c, 1, 72, 0
1, 5205, Note_off_c, 1, 69, 0
1, 5208, Note_on_c, 1, 76, 127
1, 5208, Note_on_c, 1, 70, 127
1, 5208, Note_on_c, 1, 67, 127
1, 5208, Note_on_c, 1, 79, 127
1, 5208, Note_on_c, 1, 74, 127
1, 5226, Note_off_c, 1, 65, 0
1, 5226, Note_off_c, 1, 60, 0
1, 5226, Note_off_c, 1, 45, 0
1, 5226, Note_off_c, 1, 33, 0
1, 5229, Note_off_c, 1, 76, 0
1, 5229, Note_off_c, 1, 70, 0
1, 5229, Note_off_c, 1, 67, 0
1, 5229, Note_off_c, 1, 79, 0
1, 5229, Note_off_c, 1, 74, 0
1, 5232, Note_on_c, 1, 69, 127
1, 5232, Note_on_c, 1, 60, 127
1, 5232, Note_on_c, 1, 77, 127
1, 5232, Note_on_c, 1, 72, 127
1, 5232, Note_on_c, 1, 48, 127
1, 5232, Note_on_c, 1, 36, 127
1, 5232, Note_on_c, 1, 57, 127
1, 5232, Note_on_c, 1, 65, 127
1, 5244, Note_on_c, 1, 67, 127
1, 5253, Note_off_c, 1, 69, 0
1, 5253, Note_off_c, 1, 60, 0
1, 5253, Note_off_c, 1, 77, 0
1, 5253, Note_off_c, 1, 72, 0
1, 5254, Note_off_c, 1, 67, 0
1, 5256, Note_on_c, 1, 76, 127
1, 5256, Note_on_c, 1, 70, 127
1, 5256, Note_on_c, 1, 79, 127
1, 5256, Note_on_c, 1, 74, 127
1, 5274, Note_off_c, 1, 48, 0
1, 5274, Note_off_c, 1, 36, 0
1, 5274, Note_off_c, 1, 57, 0
1, 5274, Note_off_c, 1, 65, 0
1, 5277, Note_off_c, 1, 76, 0
1, 5277, Note_off_c, 1, 70, 0
1, 5277, Note_off_c, 1, 79, 0
1, 5277, Note_off_c, 1, 74, 0
1, 5280, Note_on_c, 1, 69, 127
1, 5280, Note_on_c, 1, 60, 127
1, 5280, Note_on_c, 1, 77, 127
1, 5280, Note_on_c, 1, 72, 127
1, 5280, Note_on_c, 1, 53, 127
1, 5280, Note_on_c, 1, 41, 127
1, 5304, Note_on_c, 1, 70, 127
1, 5322, Note_off_c, 1, 60, 0
1, 5322, Note_off_c, 1, 53, 0
1, 5322, Note_off_c, 1, 41, 0
1, 5325, Note_off_c, 1, 70, 0
1, 5328, Note_on_c, 1, 65, 127
1, 5328, Note_on_c, 1, 50, 127
1, 5328, Note_on_c, 1, 38, 127
1, 5352, Note_on_c, 1, 67, 127
1, 5364, Note_off_c, 1, 77, 0
1, 5364, Note_off_c, 1, 72, 0
1, 5370, Note_off_c, 1, 69, 0
1, 5370, Note_off_c, 1, 65, 0
1, 5370, Note_off_c, 1, 50, 0
1, 5370, Note_off_c, 1, 38, 0
1, 5373, Note_off_c, 1, 67, 0
1, 5376, Note_on_c, 1, 72, 127
1, 5376, Note_on_c, 1, 69, 127
1, 5376, Note_on_c, 1, 45, 127
1, 5376, Note_on_c, 1, 33, 127
1, 5376, Note_on_c, 1, 60, 127
1, 5376, Note_on_c, 1, 65, 127
1, 5397, Note_off_c, 1, 72, 0
1, 5397, Note_off_c, 1, 69, 0
1, 5400, Note_on_c, 1, 70, 127
1, 5400, Note_on_c, 1, 67, 127
1, 5418, Note_off_c, 1, 45, 0
1, 5418, Note_off_c, 1, 33, 0
1, 5418, Note_off_c, 1, 60, 0
1, 5418, Note_off_c, 1, 65, 0
1, 5421, Note_off_c, 1, 70, 0
1, 5421, Note_off_c, 1, 67, 0
1, 5424, Note_on_c, 1, 69, 127
1, 5424, Note_on_c, 1, 65, 127
1, 5424, Note_on_c, 1, 46, 127
1, 5424, Note_on_c, 1, 34, 127
1, 5424, Note_on_c, 1, 62, 127
1, 5424, Note_on_c, 1, 67, 127
1, 5445, Note_off_c, 1, 69, 0
1, 5445, Note_off_c, 1, 65, 0
1, 5448, Note_on_c, 1, 70, 127
1, 5466, Note_off_c, 1, 46, 0
1, 5466, Note_off_c, 1, 34, 0
1, 5466, Note_off_c, 1, 62, 0
1, 5469, Note_off_c, 1, 67, 0
1, 5469, Note_off_c, 1, 70, 0
1, 5472, Note_on_c, 1, 67, 127
1, 5472, Note_on_c, 1, 60, 127
1, 5472, Note_on_c, 1, 48, 127
1, 5472, Note_on_c, 1, 36, 127
1, 5472, Note_on_c, 1, 64, 127
1, 5520, Note_on_c, 1, 72, 127
1, 5520, Note_on_c, 1, 84, 127
1, 5520, Note_on_c, 1, 79, 127
1, 5520, Note_on_c, 1, 76, 127
1, 5541, Note_off_c, 1, 84, 0
1, 5541, Note_off_c, 1, 79, 0
1, 5541, Note_off_c, 1, 76, 0
1, 5544, Note_on_c, 1, 83, 127
1, 5544, Note_on_c, 1, 77, 127
1, 5544, Note_on_c, 1, 74, 127
1, 5556, Note_off_c, 1, 60, 0
1, 5556, Note_off_c, 1, 48, 0
1, 5556, Note_off_c, 1, 36, 0
1, 5562, Note_off_c, 1, 67, 0
1, 5562, Note_off_c, 1, 64, 0
1, 5562, Note_off_c, 1, 72, 0
1, 5565, Note_off_c, 1, 83, 0
1, 5565, Note_off_c, 1, 77, 0
1, 5565, Note_off_c, 1, 74, 0
1, 5568, Note_on_c, 1, 76, 127
1, 5568, Note_on_c, 1, 72, 127
1, 5568, Note_on_c, 1, 67, 127
1, 5568, Note_on_c, 1, 84, 127
1, 5568, Note_on_c, 1, 79, 127
1, 5589, Note_off_c, 1, 84, 0
1, 5589, Note_off_c, 1, 79, 0
1, 5592, Note_on_c, 1, 83, 127
1, 5592, Note_on_c, 1, 77, 127
1, 5592, Note_on_c, 1, 74, 127
1, 5610, Note_off_c, 1, 76, 0
1, 5610, Note_off_c, 1, 72, 0
1, 5610, Note_off_c, 1, 67, 0
1, 5613, Note_off_c, 1, 83, 0
1, 5613, Note_off_c, 1, 77, 0
1, 5613, Note_off_c, 1, 74, 0
1, 5616, Note_on_c, 1, 79, 127
1, 5616, Note_on_c, 1, 74, 127
1, 5616, Note_on_c, 1, 71, 127
1, 5616, Note_on_c, 1, 43, 127
1, 5616, Note_on_c, 1, 84, 127
1, 5616, Note_on_c, 1, 76, 127
1, 5616, Note_on_c, 1, 31, 127
1, 5616, Note_on_c, 1, 62, 127
1, 5637, Note_off_c, 1, 84, 0
1, 5637, Note_off_c, 1, 76, 0
1, 5640, Note_on_c, 1, 83, 127
1, 5640, Note_on_c, 1, 77, 127
1, 5658, Note_off_c, 1, 79, 0
1, 5658, Note_off_c, 1, 71, 0
1, 5658, Note_off_c, 1, 43, 0
1, 5658, Note_off_c, 1, 31, 0
1, 5658, Note_off_c, 1, 62, 0
1, 5661, Note_off_c, 1, 74, 0
1, 5661, Note_off_c, 1, 83, 0
1, 5661, Note_off_c, 1, 77, 0
1, 5664, Note_on_c, 1, 84, 127
1, 5664, Note_on_c, 1, 72, 127
1, 5664, Note_on_c, 1, 64, 127
1, 5664, Note_on_c, 1, 45, 127
1, 5664, Note_on_c, 1, 76, 127
1, 5664, Note_on_c, 1, 33, 127
1, 5685, Note_off_c, 1, 76, 0
1, 5688, Note_on_c, 1, 74, 127
1, 5688, Note_on_c, 1, 71, 127
1, 5706, Note_off_c, 1, 84, 0
1, 5706, Note_off_c, 1, 72, 0
1, 5706, Note_off_c, 1, 64, 0
1, 5706, Note_off_c, 1, 45, 0
1, 5706, Note_off_c, 1, 33, 0
1, 5709, Note_off_c, 1, 74, 0
1, 5709, Note_off_c, 1, 71, 0
1, 5712, Note_on_c, 1, 79, 127
1, 5712, Note_on_c, 1, 76, 127
1, 5712, Note_on_c, 1, 72, 127
1, 5712, Note_on_c, 1, 40, 127
1, 5712, Note_on_c, 1, 28, 127
1, 5712, Note_on_c, 1, 64, 127
1, 5712, Note_on_c, 1, 67, 127
1, 5733, Note_off_c, 1, 76, 0
1, 5733, Note_off_c, 1, 72, 0
1, 5736, Note_on_c, 1, 74, 127
1, 5736, Note_on_c, 1, 71, 127
1, 5754, Note_off_c, 1, 79, 0
1, 5754, Note_off_c, 1, 40, 0
1, 5754, Note_off_c, 1, 28, 0
1, 5754, Note_off_c, 1, 64, 0
1, 5754, Note_off_c, 1, 67, 0
1, 5757, Note_off_c, 1, 74, 0
1, 5757, Note_off_c, 1, 71, 0
1, 5760, Note_on_c, 1, 81, 127
1, 5760, Note_on_c, 1, 76, 127
1, 5760, Note_on_c, 1, 69, 127
1, 5760, Note_on_c, 1, 41, 127
1, 5760, Note_on_c, 1, 29, 127
1, 5760, Note_on_c, 1, 62, 127
1, 5781, Note_off_c, 1, 76, 0
1, 5784, Note_on_c, 1, 74, 127
1, 5802, Note_off_c, 1, 81, 0
1, 5802, Note_off_c, 1, 69, 0
1, 5802, Note_off_c, 1, 41, 0
1, 5802, Note_off_c, 1, 29, 0
1, 5802, Note_off_c, 1, 62, 0
1, 5805, Note_off_c, 1, 74, 0
1, 5808, Note_on_c, 1, 79, 127
1, 5808, Note_on_c, 1, 76, 127
1, 5808, Note_on_c, 1, 71, 127
1, 5808, Note_on_c, 1, 43, 127
1, 5808, Note_on_c, 1, 31, 127
1, 5808, Note_on_c, 1, 62, 127
1, 5829, Note_off_c, 1, 79, 0
1, 5829, Note_off_c, 1, 76, 0
1, 5832, Note_on_c, 1, 77, 127
1, 5832, Note_on_c, 1, 74, 127
1, 5850, Note_off_c, 1, 71, 0
1, 5850, Note_off_c, 1, 43, 0
1, 5850, Note_off_c, 1, 31, 0
1, 5850, Note_off_c, 1, 62, 0
1, 5853, Note_off_c, 1, 77, 0
1, 5853, Note_off_c, 1, 74, 0
1, 5856, Note_on_c, 1, 76, 127
1, 5856, Note_on_c, 1, 72, 127
1, 5856, Note_on_c, 1, 67, 127
1, 5856, Note_on_c, 1, 36, 127
1, 5856, Note_on_c, 1, 24, 127
1, 5856, Note_on_c, 1, 64, 127
1, 5880, Note_on_c, 1, 74, 127
1, 5880, Note_on_c, 1, 71, 127
1, 5880, Note_on_c, 1, 65, 127
1, 5898, Note_off_c, 1, 36, 0
1, 5898, Note_off_c, 1, 24, 0
1, 5898, Note_off_c, 1, 64, 0
1, 5901, Note_off_c, 1, 74, 0
1, 5901, Note_off_c, 1, 71, 0
1, 5901, Note_off_c, 1, 65, 0
1, 5904, Note_on_c, 1, 60, 127
1, 5904, Note_on_c, 1, 43, 127
1, 5904, Note_on_c, 1, 31, 127
1, 5925, Note_off_c, 1, 60, 0
1, 5928, Note_on_c, 1, 62, 127
1, 5940, Note_off_c, 1, 76, 0
1, 5940, Note_off_c, 1, 67, 0
1, 5946, Note_off_c, 1, 72, 0
1, 5946, Note_off_c, 1, 43, 0
1, 5946, Note_off_c, 1, 31, 0
1, 5949, Note_off_c, 1, 62, 0
1, 5952, Note_on_c, 1, 67, 127
1, 5952, Note_on_c, 1, 60, 127
1, 5952, Note_on_c, 1, 48, 127
1, 5952, Note_on_c, 1, 76, 127
1, 5952, Note_on_c, 1, 72, 127
1, 5952, Note_on_c, 1, 36, 127
1, 5952, Note_on_c, 1, 64, 127
1, 5973, Note_off_c, 1, 76, 0
1, 5973, Note_off_c, 1, 72, 0
1, 5976, Note_on_c, 1, 69, 127
1, 5976, Note_on_c, 1, 77, 127
1, 5976, Note_on_c, 1, 74, 127
1, 5994, Note_off_c, 1, 67, 0
1, 5994, Note_off_c, 1, 60, 0
1, 5994, Note_off_c, 1, 48, 0
1, 5994, Note_off_c, 1, 36, 0
1, 5994, Note_off_c, 1, 64, 0
1, 5997, Note_off_c, 1, 69, 0
1, 5997, Note_off_c, 1, 77, 0
1, 5997, Note_off_c, 1, 74, 0
1, 6000, Note_on_c, 1, 70, 127
1, 6000, Note_on_c, 1, 60, 127
1, 6000, Note_on_c, 1, 76, 127
1, 6000, Note_on_c, 1, 72, 127
1, 6000, Note_on_c, 1, 67, 127
1, 6000, Note_on_c, 1, 36, 127
1, 6000, Note_on_c, 1, 79, 127
1, 6000, Note_on_c, 1, 24, 127
1, 6000, Note_on_c, 1, 64, 127
1, 6021, Note_off_c, 1, 70, 0
1, 6042, Note_off_c, 1, 60, 0
1, 6042, Note_off_c, 1, 72, 0
1, 6042, Note_off_c, 1, 36, 0
1, 6042, Note_off_c, 1, 24, 0
1, 6042, Note_off_c, 1, 64, 0
1, 6045, Note_off_c, 1, 67, 0
1, 6048, Note_on_c, 1, 69, 127
1, 6048, Note_on_c, 1, 65, 127
1, 6048, Note_on_c, 1, 41, 127
1, 6048, Note_on_c, 1, 29, 127
1, 6090, Note_off_c, 1, 76, 0
1, 6090, Note_off_c, 1, 79, 0
1, 6090, Note_off_c, 1, 41, 0
1, 6090, Note_off_c, 1, 29, 0
1, 6096, Note_on_c, 1, 45, 127
1, 6096, Note_on_c, 1, 77, 127
1, 6096, Note_on_c, 1, 74, 127
1, 6096, Note_on_c, 1, 33, 127
1, 6096, Note_on_c, 1, 62, 127
1, 6117, Note_off_c, 1, 77, 0
1, 6117, Note_off_c, 1, 74, 0
1, 6132, Note_off_c, 1, 69, 0
1, 6138, Note_off_c, 1, 65, 0
1, 6138, Note_off_c, 1, 45, 0
1, 6138, Note_off_c, 1, 33, 0
1, 6138, Note_off_c, 1, 62, 0
1, 6144, Note_on_c, 1, 50, 127
1, 6144, Note_on_c, 1, 38, 127
1, 6168, Note_on_c, 1, 71, 127
1, 6186, Note_off_c, 1, 50, 0
1, 6186, Note_off_c, 1, 38, 0
1, 6189, Note_off_c, 1, 71, 0
1, 6192, Note_on_c, 1, 26, 127
1, 6234, Note_off_c, 1, 26, 0
1, 6240, Note_on_c, 1, 43, 127
1, 6240, Note_on_c, 1, 31, 127
1, 6282, Note_off_c, 1, 43, 0
1, 6282, Note_off_c, 1, 31, 0
1, 6288, Note_on_c, 1, 47, 127
1, 6288, Note_on_c, 1, 35, 127
1, 6330, Note_off_c, 1, 47, 0
1, 6330, Note_off_c, 1, 35, 0
1, 6336, Note_on_c, 1, 52, 127
1, 6336, Note_on_c, 1, 40, 127
1, 6378, Note_off_c, 1, 52, 0
1, 6378, Note_off_c, 1, 40, 0
1, 6384, Note_on_c, 1, 28, 127
1, 6426, Note_off_c, 1, 28, 0
1, 6480, Note_on_c, 1, 53, 127
1, 6522, Note_off_c, 1, 53, 0
1, 6528, Note_on_c, 1, 71, 127
1, 6528, Note_on_c, 1, 67, 127
1, 6528, Note_on_c, 1, 74, 127
1, 6528, Note_on_c, 1, 65, 127
1, 6528, Note_on_c, 1, 55, 127
1, 6528, Note_on_c, 1, 43, 127
1, 6528, Note_on_c, 1, 62, 127
1, 6540, Note_on_c, 1, 72, 127
1, 6549, Note_off_c, 1, 65, 0
1, 6550, Note_off_c, 1, 72, 0
1, 6552, Note_on_c, 1, 64, 127
1, 6570, Note_off_c, 1, 71, 0
1, 6570, Note_off_c, 1, 55, 0
1, 6570, Note_off_c, 1, 43, 0
1, 6570, Note_off_c, 1, 62, 0
1, 6573, Note_off_c, 1, 64, 0
1, 6576, Note_on_c, 1, 31, 127
1, 6591, Note_off_c, 1, 74, 0
1, 6618, Note_off_c, 1, 31, 0
1, 6621, Note_off_c, 1, 67, 0
1, 6624, Note_on_c, 1, 72, 127
1, 6624, Note_on_c, 1, 67, 127
1, 6624, Note_on_c, 1, 64, 127
1, 6624, Note_on_c, 1, 48, 127
1, 6624, Note_on_c, 1, 36, 127
1, 6672, Note_on_c, 1, 60, 127
1, 6693, Note_off_c, 1, 60, 0
1, 6696, Note_on_c, 1, 62, 127
1, 6708, Note_off_c, 1, 72, 0
1, 6708, Note_off_c, 1, 48, 0
1, 6708, Note_off_c, 1, 36, 0
1, 6714, Note_off_c, 1, 67, 0
1, 6714, Note_off_c, 1, 64, 0
1, 6717, Note_off_c, 1, 62, 0
1, 6720, Note_on_c, 1, 69, 127
1, 6720, Note_on_c, 1, 66, 127
1, 6720, Note_on_c, 1, 60, 127
1, 6741, Note_off_c, 1, 60, 0
1, 6744, Note_on_c, 1, 58, 127
1, 6762, Note_off_c, 1, 69, 0
1, 6762, Note_off_c, 1, 66, 0
1, 6765, Note_off_c, 1, 58, 0
1, 6768, Note_on_c, 1, 70, 127
1, 6768, Note_on_c, 1, 67, 127
1, 6768, Note_on_c, 1, 57, 127
1, 6789, Note_off_c, 1, 57, 0
1, 6792, Note_on_c, 1, 55, 127
1, 6810, Note_off_c, 1, 70, 0
1, 6810, Note_off_c, 1, 67, 0
1, 6813, Note_off_c, 1, 55, 0
1, 6816, Note_on_c, 1, 72, 127
1, 6816, Note_on_c, 1, 69, 127
1, 6816, Note_on_c, 1, 54, 127
1, 6858, Note_off_c, 1, 72, 0
1, 6858, Note_off_c, 1, 69, 0
1, 6858, Note_off_c, 1, 54, 0
1, 6864, Note_on_c, 1, 74, 127
1, 6864, Note_on_c, 1, 66, 127
1, 6864, Note_on_c, 1, 62, 127
1, 6864, Note_on_c, 1, 50, 127
1, 6864, Note_on_c, 1, 38, 127
1, 6864, Note_on_c, 1, 65, 127
1, 6885, Note_off_c, 1, 74, 0
1, 6885, Note_off_c, 1, 62, 0
1, 6888, Note_on_c, 1, 75, 127
1, 6888, Note_on_c, 1, 60, 127
1, 6906, Note_off_c, 1, 66, 0
1, 6906, Note_off_c, 1, 50, 0
1, 6906, Note_off_c, 1, 38, 0
1, 6906, Note_off_c, 1, 65, 0
1, 6909, Note_off_c, 1, 75, 0
1, 6909, Note_off_c, 1, 60, 0
1, 6912, Note_on_c, 1, 74, 127
1, 6912, Note_on_c, 1, 67, 127
1, 6912, Note_on_c, 1, 58, 127
1, 6912, Note_on_c, 1, 52, 127
1, 6912, Note_on_c, 1, 40, 127
1, 6933, Note_off_c, 1, 74, 0
1, 6936, Note_on_c, 1, 72, 127
1, 6954, Note_off_c, 1, 67, 0
1, 6954, Note_off_c, 1, 58, 0
1, 6954, Note_off_c, 1, 52, 0
1, 6954, Note_off_c, 1, 40, 0
1, 6957, Note_off_c, 1, 72, 0
1, 6960, Note_on_c, 1, 70, 127
1, 6960, Note_on_c, 1, 69, 127
1, 6960, Note_on_c, 1, 57, 127
1, 6960, Note_on_c, 1, 54, 127
1, 6960, Note_on_c, 1, 42, 127
1, 6981, Note_off_c, 1, 70, 0
1, 7002, Note_off_c, 1, 57, 0
1, 7002, Note_off_c, 1, 54, 0
1, 7002, Note_off_c, 1, 42, 0
1, 7005, Note_off_c, 1, 69, 0
1, 7008, Note_on_c, 1, 70, 127
1, 7008, Note_on_c, 1, 62, 127
1, 7008, Note_on_c, 1, 55, 127
1, 7008, Note_on_c, 1, 43, 127
1, 7056, Note_on_c, 1, 74, 127
1, 7080, Note_on_c, 1, 57, 127
1, 7092, Note_off_c, 1, 70, 0
1, 7092, Note_off_c, 1, 62, 0
1, 7092, Note_off_c, 1, 55, 0
1, 7092, Note_off_c, 1, 43, 0
1, 7098, Note_off_c, 1, 74, 0
1, 7101, Note_off_c, 1, 57, 0
1, 7104, Note_on_c, 1, 76, 127
1, 7104, Note_on_c, 1, 73, 127
1, 7104, Note_on_c, 1, 55, 127
1, 7125, Note_off_c, 1, 55, 0
1, 7128, Note_on_c, 1, 53, 127
1, 7146, Note_off_c, 1, 76, 0
1, 7146, Note_off_c, 1, 73, 0
1, 7149, Note_off_c, 1, 53, 0
1, 7152, Note_on_c, 1, 77, 127
1, 7152, Note_on_c, 1, 74, 127
1, 7152, Note_on_c, 1, 52, 127
1, 7173, Note_off_c, 1, 52, 0
1, 7176, Note_on_c, 1, 50, 127
1, 7194, Note_off_c, 1, 77, 0
1, 7194, Note_off_c, 1, 74, 0
1, 7197, Note_off_c, 1, 50, 0
1, 7200, Note_on_c, 1, 79, 127
1, 7200, Note_on_c, 1, 76, 127
1, 7200, Note_on_c, 1, 49, 127
1, 7242, Note_off_c, 1, 79, 0
1, 7242, Note_off_c, 1, 76, 0
1, 7242, Note_off_c, 1, 49, 0
1, 7248, Note_on_c, 1, 81, 127
1, 7248, Note_on_c, 1, 73, 127
1, 7248, Note_on_c, 1, 69, 127
1, 7248, Note_on_c, 1, 45, 127
1, 7248, Note_on_c, 1, 33, 127
1, 7248, Note_on_c, 1, 60, 127
1, 7269, Note_off_c, 1, 81, 0
1, 7269, Note_off_c, 1, 69, 0
1, 7272, Note_on_c, 1, 82, 127
1, 7272, Note_on_c, 1, 67, 127
1, 7290, Note_off_c, 1, 73, 0
1, 7290, Note_off_c, 1, 45, 0
1, 7290, Note_off_c, 1, 33, 0
1, 7290, Note_off_c, 1, 60, 0
1, 7293, Note_off_c, 1, 82, 0
1, 7293, Note_off_c, 1, 67, 0
1, 7296, Note_on_c, 1, 81, 127
1, 7296, Note_on_c, 1, 74, 127
1, 7296, Note_on_c, 1, 65, 127
1, 7296, Note_on_c, 1, 47, 127
1, 7296, Note_on_c, 1, 35, 127
1, 7296, Note_on_c, 1, 62, 127
1, 7317, Note_off_c, 1, 81, 0
1, 7320, Note_on_c, 1, 79, 127
1, 7338, Note_off_c, 1, 74, 0
1, 7338, Note_off_c, 1, 65, 0
1, 7338, Note_off_c, 1, 47, 0
1, 7338, Note_off_c, 1, 35, 0
1, 7338, Note_off_c, 1, 62, 0
1, 7341, Note_off_c, 1, 79, 0
1, 7344, Note_on_c, 1, 77, 127
1, 7344, Note_on_c, 1, 76, 127
1, 7344, Note_on_c, 1, 64, 127
1, 7344, Note_on_c, 1, 49, 127
1, 7344, Note_on_c, 1, 37, 127
1, 7365, Note_off_c, 1, 77, 0
1, 7386, Note_off_c, 1, 64, 0
1, 7386, Note_off_c, 1, 49, 0
1, 7386, Note_off_c, 1, 37, 0
1, 7389, Note_off_c, 1, 76, 0
1, 7392, Note_on_c, 1, 77, 127
1, 7392, Note_on_c, 1, 69, 127
1, 7392, Note_on_c, 1, 62, 127
1, 7392, Note_on_c, 1, 50, 127
1, 7392, Note_on_c, 1, 38, 127
1, 7392, Note_on_c, 1, 65, 127
1, 7413, Note_off_c, 1, 50, 0
1, 7413, Note_off_c, 1, 38, 0
1, 7416, Note_on_c, 1, 52, 127
1, 7416, Note_on_c, 1, 40, 127
1, 7434, Note_off_c, 1, 65, 0
1, 7437, Note_off_c, 1, 52, 0
1, 7437, Note_off_c, 1, 40, 0
1, 7440, Note_on_c, 1, 57, 127
1, 7464, Note_on_c, 1, 48, 127
1, 7464, Note_on_c, 1, 36, 127
1, 7476, Note_off_c, 1, 77, 0
1, 7476, Note_off_c, 1, 69, 0
1, 7476, Note_off_c, 1, 62, 0
1, 7482, Note_off_c, 1, 57, 0
1, 7485, Note_off_c, 1, 48, 0
1, 7485, Note_off_c, 1, 36, 0
1, 7488, Note_on_c, 1, 67, 127
1, 7488, Note_on_c, 1, 60, 127
1, 7488, Note_on_c, 1, 46, 127
1, 7488, Note_on_c, 1, 34, 127
1, 7509, Note_off_c, 1, 46, 0
1, 7509, Note_off_c, 1, 34, 0
1, 7512, Note_on_c, 1, 45, 127
1, 7512, Note_on_c, 1, 33, 127
1, 7530, Note_off_c, 1, 67, 0
1, 7530, Note_off_c, 1, 60, 0
1, 7533, Note_off_c, 1, 45, 0
1, 7533, Note_off_c, 1, 33, 0
1, 7536, Note_on_c, 1, 69, 127
1, 7536, Note_on_c, 1, 65, 127
1, 7536, Note_on_c, 1, 43, 127
1, 7536, Note_on_c, 1, 31, 127
1, 7557, Note_off_c, 1, 43, 0
1, 7557, Note_off_c, 1, 31, 0
1, 7560, Note_on_c, 1, 41, 127
1, 7560, Note_on_c, 1, 29, 127
1, 7578, Note_off_c, 1, 69, 0
1, 7578, Note_off_c, 1, 65, 0
1, 7581, Note_off_c, 1, 41, 0
1, 7581, Note_off_c, 1, 29, 0
1, 7584, Note_on_c, 1, 70, 127
1, 7584, Note_on_c, 1, 67, 127
1, 7584, Note_on_c, 1, 40, 127
1, 7584, Note_on_c, 1, 28, 127
1, 7626, Note_off_c, 1, 70, 0
1, 7626, Note_off_c, 1, 67, 0
1, 7626, Note_off_c, 1, 40, 0
1, 7626, Note_off_c, 1, 28, 0
1, 7632, Note_on_c, 1, 72, 127
1, 7632, Note_on_c, 1, 69, 127
1, 7632, Note_on_c, 1, 48, 127
1, 7632, Note_on_c, 1, 36, 127
1, 7653, Note_off_c, 1, 72, 0
1, 7653, Note_off_c, 1, 69, 0
1, 7656, Note_on_c, 1, 74, 127
1, 7656, Note_on_c, 1, 70, 127
1, 7674, Note_off_c, 1, 48, 0
1, 7674, Note_off_c, 1, 36, 0
1, 7677, Note_off_c, 1, 74, 0
1, 7677, Note_off_c, 1, 70, 0
1, 7680, Note_on_c, 1, 72, 127
1, 7680, Note_on_c, 1, 69, 127
1, 7680, Note_on_c, 1, 50, 127
1, 7680, Note_on_c, 1, 38, 127
1, 7701, Note_off_c, 1, 72, 0
1, 7701, Note_off_c, 1, 69, 0
1, 7704, Note_on_c, 1, 70, 127
1, 7704, Note_on_c, 1, 67, 127
1, 7722, Note_off_c, 1, 50, 0
1, 7722, Note_off_c, 1, 38, 0
1, 7725, Note_off_c, 1, 70, 0
1, 7725, Note_off_c, 1, 67, 0
1, 7728, Note_on_c, 1, 69, 127
1, 7728, Note_on_c, 1, 65, 127
1, 7728, Note_on_c, 1, 52, 127
1, 7728, Note_on_c, 1, 40, 127
1, 7749, Note_off_c, 1, 69, 0
1, 7749, Note_off_c, 1, 65, 0
1, 7752, Note_on_c, 1, 67, 127
1, 7752, Note_on_c, 1, 60, 127
1, 7770, Note_off_c, 1, 52, 0
1, 7770, Note_off_c, 1, 40, 0
1, 7773, Note_off_c, 1, 67, 0
1, 7773, Note_off_c, 1, 60, 0
1, 7776, Note_on_c, 1, 69, 127
1, 7776, Note_on_c, 1, 65, 127
1, 7776, Note_on_c, 1, 53, 127
1, 7776, Note_on_c, 1, 41, 127
1, 7800, Note_on_c, 1, 72, 127
1, 7818, Note_off_c, 1, 53, 0
1, 7818, Note_off_c, 1, 41, 0
1, 7821, Note_off_c, 1, 72, 0
1, 7824, Note_on_c, 1, 77, 127
1, 7824, Note_on_c, 1, 70, 127
1, 7824, Note_on_c, 1, 50, 127
1, 7824, Note_on_c, 1, 38, 127
1, 7845, Note_off_c, 1, 77, 0
1, 7848, Note_on_c, 1, 75, 127
1, 7860, Note_off_c, 1, 69, 0
1, 7866, Note_off_c, 1, 65, 0
1, 7866, Note_off_c, 1, 70, 0
1, 7866, Note_off_c, 1, 50, 0
1, 7866, Note_off_c, 1, 38, 0
1, 7869, Note_off_c, 1, 75, 0
1, 7872, Note_on_c, 1, 77, 127
1, 7872, Note_on_c, 1, 74, 127
1, 7872, Note_on_c, 1, 70, 127
1, 7872, Note_on_c, 1, 46, 127
1, 7872, Note_on_c, 1, 62, 127
1, 7872, Note_on_c, 1, 34, 127
1, 7872, Note_on_c, 1, 65, 127
1, 7893, Note_off_c, 1, 77, 0
1, 7896, Note_on_c, 1, 75, 127
1, 7914, Note_off_c, 1, 46, 0
1, 7914, Note_off_c, 1, 62, 0
1, 7914, Note_off_c, 1, 34, 0
1, 7914, Note_off_c, 1, 65, 0
1, 7917, Note_off_c, 1, 75, 0
1, 7920, Note_on_c, 1, 45, 127
1, 7920, Note_on_c, 1, 60, 127
1, 7920, Note_on_c, 1, 33, 127
1, 7962, Note_off_c, 1, 45, 0
1, 7962, Note_off_c, 1, 60, 0
1, 7962, Note_off_c, 1, 33, 0
1, 7968, Note_on_c, 1, 43, 127
1, 7968, Note_on_c, 1, 58, 127
1, 7968, Note_on_c, 1, 31, 127
1, 8010, Note_off_c, 1, 74, 0
1, 8010, Note_off_c, 1, 43, 0
1, 8010, Note_off_c, 1, 58, 0
1, 8010, Note_off_c, 1, 31, 0
1, 8013, Note_off_c, 1, 70, 0
1, 8016, Note_on_c, 1, 75, 127
1, 8016, Note_on_c, 1, 72, 127
1, 8016, Note_on_c, 1, 67, 127
1, 8016, Note_on_c, 1, 48, 127
1, 8016, Note_on_c, 1, 36, 127
1, 8016, Note_on_c, 1, 64, 127
1, 8037, Note_off_c, 1, 75, 0
1, 8037, Note_off_c, 1, 72, 0
1, 8040, Note_on_c, 1, 74, 127
1, 8040, Note_on_c, 1, 70, 127
1, 8058, Note_off_c, 1, 67, 0
1, 8058, Note_off_c, 1, 48, 0
1, 8058, Note_off_c, 1, 36, 0
1, 8058, Note_off_c, 1, 64, 0
1, 8061, Note_off_c, 1, 74, 0
1, 8061, Note_off_c, 1, 70, 0
1, 8064, Note_on_c, 1, 75, 127
1, 8064, Note_on_c, 1, 72, 127
1, 8064, Note_on_c, 1, 65, 127
1, 8064, Note_on_c, 1, 45, 127
1, 8064, Note_on_c, 1, 60, 127
1, 8064, Note_on_c, 1, 33, 127
1, 8064, Note_on_c, 1, 64, 127
1, 8064, Note_on_c, 1, 69, 127
1, 8085, Note_off_c, 1, 75, 0
1, 8088, Note_on_c, 1, 74, 127
1, 8106, Note_off_c, 1, 65, 0
1, 8106, Note_off_c, 1, 45, 0
1, 8106, Note_off_c, 1, 60, 0
1, 8106, Note_off_c, 1, 33, 0
1, 8106, Note_off_c, 1, 64, 0
1, 8106, Note_off_c, 1, 69, 0
1, 8109, Note_off_c, 1, 74, 0
1, 8112, Note_on_c, 1, 67, 127
1, 8112, Note_on_c, 1, 43, 127
1, 8112, Note_on_c, 1, 58, 127
1, 8112, Note_on_c, 1, 31, 127
1, 8154, Note_off_c, 1, 67, 0
1, 8154, Note_off_c, 1, 43, 0
1, 8154, Note_off_c, 1, 58, 0
1, 8154, Note_off_c, 1, 31, 0
1, 8160, Note_on_c, 1, 41, 127
1, 8160, Note_on_c, 1, 57, 127
1, 8160, Note_on_c, 1, 29, 127
1, 8202, Note_off_c, 1, 72, 0
1, 8202, Note_off_c, 1, 41, 0
1, 8202, Note_off_c, 1, 57, 0
1, 8202, Note_off_c, 1, 29, 0
1, 8208, Note_on_c, 1, 74, 127
1, 8208, Note_on_c, 1, 70, 127
1, 8208, Note_on_c, 1, 62, 127
1, 8208, Note_on_c, 1, 46, 127
1, 8208, Note_on_c, 1, 65, 127
1, 8208, Note_on_c, 1, 34, 127
1, 8229, Note_off_c, 1, 74, 0
1, 8229, Note_off_c, 1, 70, 0
1, 8232, Note_on_c, 1, 72, 127
1, 8232, Note_on_c, 1, 69, 127
1, 8250, Note_off_c, 1, 62, 0
1, 8250, Note_off_c, 1, 46, 0
1, 8250, Note_off_c, 1, 65, 0
1, 8250, Note_off_c, 1, 34, 0
1, 8253, Note_off_c, 1, 72, 0
1, 8253, Note_off_c, 1, 69, 0
1, 8256, Note_on_c, 1, 74, 127
1, 8256, Note_on_c, 1, 70, 127
1, 8256, Note_on_c, 1, 67, 127
1, 8256, Note_on_c, 1, 43, 127
1, 8256, Note_on_c, 1, 58, 127
1, 8256, Note_on_c, 1, 31, 127
1, 8256, Note_on_c, 1, 62, 127
1, 8277, Note_off_c, 1, 74, 0
1, 8280, Note_on_c, 1, 72, 127
1, 8298, Note_off_c, 1, 43, 0
1, 8298, Note_off_c, 1, 58, 0
1, 8298, Note_off_c, 1, 31, 0
1, 8298, Note_off_c, 1, 62, 0
1, 8301, Note_off_c, 1, 72, 0
1, 8304, Note_on_c, 1, 41, 127
1, 8304, Note_on_c, 1, 57, 127
1, 8304, Note_on_c, 1, 29, 127
1, 8346, Note_off_c, 1, 41, 0
1, 8346, Note_off_c, 1, 57, 0
1, 8346, Note_off_c, 1, 29, 0
1, 8352, Note_on_c, 1, 39, 127
1, 8352, Note_on_c, 1, 55, 127
1, 8352, Note_on_c, 1, 27, 127
1, 8394, Note_off_c, 1, 55, 0
1, 8400, Note_on_c, 1, 79, 127
1, 8400, Note_on_c, 1, 63, 127
1, 8421, Note_off_c, 1, 79, 0
1, 8424, Note_on_c, 1, 77, 127
1, 8424, Note_on_c, 1, 68, 127
1, 8436, Note_off_c, 1, 70, 0
1, 8436, Note_off_c, 1, 67, 0
1, 8436, Note_off_c, 1, 39, 0
1, 8436, Note_off_c, 1, 27, 0
1, 8442, Note_off_c, 1, 63, 0
1, 8445, Note_off_c, 1, 77, 0
1, 8445, Note_off_c, 1, 68, 0
1, 8448, Note_on_c, 1, 75, 127
1, 8448, Note_on_c, 1, 67, 127
1, 8448, Note_on_c, 1, 70, 127
1, 8448, Note_on_c, 1, 63, 127
1, 8469, Note_off_c, 1, 75, 0
1, 8469, Note_off_c, 1, 67, 0
1, 8472, Note_on_c, 1, 74, 127
1, 8472, Note_on_c, 1, 65, 127
1, 8490, Note_off_c, 1, 70, 0
1, 8490, Note_off_c, 1, 63, 0
1, 8493, Note_off_c, 1, 74, 0
1, 8493, Note_off_c, 1, 65, 0
1, 8496, Note_on_c, 1, 72, 127
1, 8496, Note_on_c, 1, 63, 127
1, 8496, Note_on_c, 1, 67, 127
1, 8496, Note_on_c, 1, 51, 127
1, 8496, Note_on_c, 1, 39, 127
1, 8517, Note_off_c, 1, 72, 0
1, 8517, Note_off_c, 1, 63, 0
1, 8520, Note_on_c, 1, 70, 127
1, 8520, Note_on_c, 1, 62, 127
1, 8538, Note_off_c, 1, 67, 0
1, 8541, Note_off_c, 1, 70, 0
1, 8541, Note_off_c, 1, 62, 0
1, 8544, Note_on_c, 1, 69, 127
1, 8544, Note_on_c, 1, 60, 127
1, 8544, Note_on_c, 1, 65, 127
1, 8565, Note_off_c, 1, 51, 0
1, 8565, Note_off_c, 1, 39, 0
1, 8568, Note_on_c, 1, 53, 127
1, 8568, Note_on_c, 1, 41, 127
1, 8589, Note_off_c, 1, 53, 0
1, 8589, Note_off_c, 1, 41, 0
1, 8616, Note_on_c, 1, 50, 127
1, 8616, Note_on_c, 1, 38, 127
1, 8628, Note_off_c, 1, 69, 0
1, 8628, Note_off_c, 1, 60, 0
1, 8628, Note_off_c, 1, 65, 0
1, 8637, Note_off_c, 1, 50, 0
1, 8637, Note_off_c, 1, 38, 0
1, 8640, Note_on_c, 1, 69, 127
1, 8640, Note_on_c, 1, 48, 127
1, 8640, Note_on_c, 1, 36, 127
1, 8661, Note_off_c, 1, 69, 0
1, 8661, Note_off_c, 1, 48, 0
1, 8661, Note_off_c, 1, 36, 0
1, 8664, Note_on_c, 1, 70, 127
1, 8664, Note_on_c, 1, 46, 127
1, 8664, Note_on_c, 1, 34, 127
1, 8685, Note_off_c, 1, 70, 0
1, 8685, Note_off_c, 1, 46, 0
1, 8685, Note_off_c, 1, 34, 0
1, 8688, Note_on_c, 1, 72, 127
1, 8688, Note_on_c, 1, 75, 127
1, 8688, Note_on_c, 1, 65, 127
1, 8688, Note_on_c, 1, 45, 127
1, 8688, Note_on_c, 1, 33, 127
1, 8688, Note_on_c, 1, 63, 127
1, 8709, Note_off_c, 1, 72, 0
1, 8709, Note_off_c, 1, 45, 0
1, 8709, Note_off_c, 1, 33, 0
1, 8712, Note_on_c, 1, 74, 127
1, 8712, Note_on_c, 1, 43, 127
1, 8712, Note_on_c, 1, 31, 127
1, 8730, Note_off_c, 1, 75, 0
1, 8730, Note_off_c, 1, 65, 0
1, 8730, Note_off_c, 1, 63, 0
1, 8733, Note_off_c, 1, 74, 0
1, 8733, Note_off_c, 1, 43, 0
1, 8733, Note_off_c, 1, 31, 0
1, 8736, Note_on_c, 1, 75, 127
1, 8736, Note_on_c, 1, 69, 127
1, 8736, Note_on_c, 1, 60, 127
1, 8736, Note_on_c, 1, 41, 127
1, 8736, Note_on_c, 1, 29, 127
1, 8778, Note_off_c, 1, 69, 0
1, 8778, Note_off_c, 1, 60, 0
1, 8778, Note_off_c, 1, 41, 0
1, 8778, Note_off_c, 1, 29, 0
1, 8784, Note_on_c, 1, 70, 127
1, 8784, Note_on_c, 1, 62, 127
1, 8784, Note_on_c, 1, 46, 127
1, 8784, Note_on_c, 1, 34, 127
1, 8784, Note_on_c, 1, 65, 127
1, 8799, Note_off_c, 1, 75, 0
1, 8805, Note_off_c, 1, 70, 0
1, 8808, Note_on_c, 1, 77, 127
1, 8808, Note_on_c, 1, 72, 127
1, 8808, Note_on_c, 1, 63, 127
1, 8826, Note_off_c, 1, 62, 0
1, 8826, Note_off_c, 1, 46, 0
1, 8826, Note_off_c, 1, 34, 0
1, 8826, Note_off_c, 1, 65, 0
1, 8829, Note_off_c, 1, 77, 0
1, 8829, Note_off_c, 1, 72, 0
1, 8829, Note_off_c, 1, 63, 0
1, 8832, Note_on_c, 1, 72, 127
1, 8832, Note_on_c, 1, 69, 127
1, 8832, Note_on_c, 1, 65, 127
1, 8832, Note_on_c, 1, 53, 127
1, 8832, Note_on_c, 1, 70, 127
1, 8832, Note_on_c, 1, 41, 127
1, 8832, Note_on_c, 1, 60, 127
1, 8842, Note_off_c, 1, 70, 0
1, 8874, Note_off_c, 1, 65, 0
1, 8874, Note_off_c, 1, 53, 0
1, 8874, Note_off_c, 1, 41, 0
1, 8874, Note_off_c, 1, 60, 0
1, 8880, Note_on_c, 1, 29, 127
1, 8895, Note_off_c, 1, 72, 0
1, 8922, Note_off_c, 1, 69, 0
1, 8922, Note_off_c, 1, 29, 0
1, 8928, Note_on_c, 1, 70, 127
1, 8928, Note_on_c, 1, 62, 127
1, 8928, Note_on_c, 1, 46, 127
1, 8928, Note_on_c, 1, 65, 127
1, 8928, Note_on_c, 1, 34, 127
1, 8970, Note_off_c, 1, 46, 0
1, 8970, Note_off_c, 1, 34, 0
1, 8976, Note_on_c, 1, 74, 127
1, 8976, Note_on_c, 1, 58, 127
1, 8997, Note_off_c, 1, 74, 0
1, 9000, Note_on_c, 1, 72, 127
1, 9000, Note_on_c, 1, 69, 127
1, 9012, Note_off_c, 1, 70, 0
1, 9012, Note_off_c, 1, 62, 0
1, 9012, Note_off_c, 1, 65, 0
1, 9018, Note_off_c, 1, 58, 0
1, 9021, Note_off_c, 1, 72, 0
1, 9021, Note_off_c, 1, 69, 0
1, 9024, Note_on_c, 1, 74, 127
1, 9024, Note_on_c, 1, 70, 127
1, 9024, Note_on_c, 1, 60, 127
1, 9024, Note_on_c, 1, 48, 127
1, 9045, Note_off_c, 1, 74, 0
1, 9045, Note_off_c, 1, 70, 0
1, 9048, Note_on_c, 1, 75, 127
1, 9048, Note_on_c, 1, 72, 127
1, 9066, Note_off_c, 1, 60, 0
1, 9066, Note_off_c, 1, 48, 0
1, 9069, Note_off_c, 1, 75, 0
1, 9069, Note_off_c, 1, 72, 0
1, 9072, Note_on_c, 1, 74, 127
1, 9072, Note_on_c, 1, 70, 127
1, 9072, Note_on_c, 1, 62, 127
1, 9072, Note_on_c, 1, 50, 127
1, 9093, Note_off_c, 1, 74, 0
1, 9093, Note_off_c, 1, 70, 0
1, 9096, Note_on_c, 1, 72, 127
1, 9096, Note_on_c, 1, 69, 127
1, 9114, Note_off_c, 1, 62, 0
1, 9114, Note_off_c, 1, 50, 0
1, 9117, Note_off_c, 1, 72, 0
1, 9117, Note_off_c, 1, 69, 0
1, 9120, Note_on_c, 1, 70, 127
1, 9120, Note_on_c, 1, 67, 127
1, 9120, Note_on_c, 1, 63, 127
1, 9120, Note_on_c, 1, 51, 127
1, 9162, Note_off_c, 1, 70, 0
1, 9162, Note_off_c, 1, 67, 0
1, 9162, Note_off_c, 1, 63, 0
1, 9162, Note_off_c, 1, 51, 0
1, 9168, Note_on_c, 1, 72, 127
1, 9168, Note_on_c, 1, 69, 127
1, 9168, Note_on_c, 1, 57, 127
1, 9168, Note_on_c, 1, 45, 127
1, 9189, Note_off_c, 1, 72, 0
1, 9189, Note_off_c, 1, 69, 0
1, 9192, Note_on_c, 1, 70, 127
1, 9192, Note_on_c, 1, 67, 127
1, 9210, Note_off_c, 1, 57, 0
1, 9210, Note_off_c, 1, 45, 0
1, 9213, Note_off_c, 1, 70, 0
1, 9213, Note_off_c, 1, 67, 0
1, 9216, Note_on_c, 1, 72, 127
1, 9216, Note_on_c, 1, 69, 127
1, 9216, Note_on_c, 1, 58, 127
1, 9216, Note_on_c, 1, 46, 127
1, 9237, Note_off_c, 1, 72, 0
1, 9237, Note_off_c, 1, 69, 0
1, 9240, Note_on_c, 1, 74, 127
1, 9240, Note_on_c, 1, 70, 127
1, 9258, Note_off_c, 1, 58, 0
1, 9258, Note_off_c, 1, 46, 0
1, 9261, Note_off_c, 1, 74, 0
1, 9261, Note_off_c, 1, 70, 0
1, 9264, Note_on_c, 1, 72, 127
1, 9264, Note_on_c, 1, 69, 127
1, 9264, Note_on_c, 1, 60, 127
1, 9264, Note_on_c, 1, 48, 127
1, 9285, Note_off_c, 1, 72, 0
1, 9285, Note_off_c, 1, 69, 0
1, 9288, Note_on_c, 1, 70, 127
1, 9288, Note_on_c, 1, 67, 127
1, 9306, Note_off_c, 1, 60, 0
1, 9306, Note_off_c, 1, 48, 0
1, 9309, Note_off_c, 1, 70, 0
1, 9309, Note_off_c, 1, 67, 0
1, 9312, Note_on_c, 1, 69, 127
1, 9312, Note_on_c, 1, 65, 127
1, 9312, Note_on_c, 1, 62, 127
1, 9312, Note_on_c, 1, 50, 127
1, 9354, Note_off_c, 1, 62, 0
1, 9354, Note_off_c, 1, 50, 0
1, 9360, Note_on_c, 1, 79, 127
1, 9360, Note_on_c, 1, 70, 127
1, 9360, Note_on_c, 1, 55, 127
1, 9360, Note_on_c, 1, 43, 127
1, 9381, Note_off_c, 1, 79, 0
1, 9381, Note_off_c, 1, 70, 0
1, 9384, Note_on_c, 1, 77, 127
1, 9396, Note_off_c, 1, 65, 0
1, 9402, Note_off_c, 1, 55, 0
1, 9402, Note_off_c, 1, 43, 0
1, 9405, Note_off_c, 1, 69, 0
1, 9405, Note_off_c, 1, 77, 0
1, 9408, Note_on_c, 1, 79, 127
1, 9408, Note_on_c, 1, 70, 127
1, 9408, Note_on_c, 1, 57, 127
1, 9408, Note_on_c, 1, 45, 127
1, 9429, Note_off_c, 1, 79, 0
1, 9429, Note_off_c, 1, 70, 0
1, 9432, Note_on_c, 1, 81, 127
1, 9432, Note_on_c, 1, 72, 127
1, 9450, Note_off_c, 1, 57, 0
1, 9450, Note_off_c, 1, 45, 0
1, 9453, Note_off_c, 1, 81, 0
1, 9453, Note_off_c, 1, 72, 0
1, 9456, Note_on_c, 1, 79, 127
1, 9456, Note_on_c, 1, 70, 127
1, 9456, Note_on_c, 1, 58, 127
1, 9456, Note_on_c, 1, 46, 127
1, 9477, Note_off_c, 1, 79, 0
1, 9477, Note_off_c, 1, 70, 0
1, 9480, Note_on_c, 1, 77, 127
1, 9480, Note_on_c, 1, 69, 127
1, 9498, Note_off_c, 1, 58, 0
1, 9498, Note_off_c, 1, 46, 0
1, 9501, Note_off_c, 1, 77, 0
1, 9501, Note_off_c, 1, 69, 0
1, 9504, Note_on_c, 1, 76, 127
1, 9504, Note_on_c, 1, 67, 127
1, 9504, Note_on_c, 1, 60, 127
1, 9504, Note_on_c, 1, 48, 127
1, 9546, Note_off_c, 1, 76, 0
1, 9546, Note_off_c, 1, 67, 0
1, 9546, Note_off_c, 1, 60, 0
1, 9546, Note_off_c, 1, 48, 0
1, 9552, Note_on_c, 1, 77, 127
1, 9552, Note_on_c, 1, 69, 127
1, 9552, Note_on_c, 1, 53, 127
1, 9552, Note_on_c, 1, 41, 127
1, 9573, Note_off_c, 1, 77, 0
1, 9573, Note_off_c, 1, 69, 0
1, 9576, Note_on_c, 1, 76, 127
1, 9576, Note_on_c, 1, 67, 127
1, 9594, Note_off_c, 1, 53, 0
1, 9594, Note_off_c, 1, 41, 0
1, 9597, Note_off_c, 1, 76, 0
1, 9597, Note_off_c, 1, 67, 0
1, 9600, Note_on_c, 1, 77, 127
1, 9600, Note_on_c, 1, 69, 127
1, 9600, Note_on_c, 1, 55, 127
1, 9600, Note_on_c, 1, 43, 127
1, 9621, Note_off_c, 1, 77, 0
1, 9621, Note_off_c, 1, 69, 0
1, 9624, Note_on_c, 1, 79, 127
1, 9624, Note_on_c, 1, 70, 127
1, 9642, Note_off_c, 1, 55, 0
1, 9642, Note_off_c, 1, 43, 0
1, 9645, Note_off_c, 1, 79, 0
1, 9645, Note_off_c, 1, 70, 0
1, 9648, Note_on_c, 1, 77, 127
1, 9648, Note_on_c, 1, 69, 127
1, 9648, Note_on_c, 1, 57, 127
1, 9648, Note_on_c, 1, 45, 127
1, 9669, Note_off_c, 1, 77, 0
1, 9669, Note_off_c, 1, 69, 0
1, 9672, Note_on_c, 1, 76, 127
1, 9672, Note_on_c, 1, 67, 127
1, 9690, Note_off_c, 1, 57, 0
1, 9690, Note_off_c, 1, 45, 0
1, 9693, Note_off_c, 1, 76, 0
1, 9693, Note_off_c, 1, 67, 0
1, 9696, Note_on_c, 1, 74, 127
1, 9696, Note_on_c, 1, 65, 127
1, 9696, Note_on_c, 1, 58, 127
1, 9696, Note_on_c, 1, 46, 127
1, 9738, Note_off_c, 1, 58, 0
1, 9738, Note_off_c, 1, 46, 0
1, 9744, Note_on_c, 1, 52, 127
1, 9744, Note_on_c, 1, 76, 127
1, 9744, Note_on_c, 1, 67, 127
1, 9744, Note_on_c, 1, 40, 127
1, 9765, Note_off_c, 1, 76, 0
1, 9765, Note_off_c, 1, 67, 0
1, 9786, Note_off_c, 1, 52, 0
1, 9786, Note_off_c, 1, 40, 0
1, 9789, Note_off_c, 1, 74, 0
1, 9789, Note_off_c, 1, 65, 0
1, 9792, Note_on_c, 1, 53, 127
1, 9792, Note_on_c, 1, 76, 127
1, 9792, Note_on_c, 1, 67, 127
1, 9792, Note_on_c, 1, 41, 127
1, 9813, Note_off_c, 1, 76, 0
1, 9813, Note_off_c, 1, 67, 0
1, 9816, Note_on_c, 1, 77, 127
1, 9816, Note_on_c, 1, 69, 127
1, 9834, Note_off_c, 1, 53, 0
1, 9834, Note_off_c, 1, 41, 0
1, 9837, Note_off_c, 1, 77, 0
1, 9837, Note_off_c, 1, 69, 0
1, 9840, Note_on_c, 1, 55, 127
1, 9840, Note_on_c, 1, 76, 127
1, 9840, Note_on_c, 1, 67, 127
1, 9840, Note_on_c, 1, 43, 127
1, 9861, Note_off_c, 1, 76, 0
1, 9861, Note_off_c, 1, 67, 0
1, 9864, Note_on_c, 1, 74, 127
1, 9864, Note_on_c, 1, 65, 127
1, 9882, Note_off_c, 1, 55, 0
1, 9882, Note_off_c, 1, 43, 0
1, 9885, Note_off_c, 1, 74, 0
1, 9885, Note_off_c, 1, 65, 0
1, 9888, Note_on_c, 1, 57, 127
1, 9888, Note_on_c, 1, 73, 127
1, 9888, Note_on_c, 1, 64, 127
1, 9888, Note_on_c, 1, 45, 127
1, 9909, Note_off_c, 1, 73, 0
1, 9909, Note_off_c, 1, 64, 0
1, 9912, Note_on_c, 1, 74, 127
1, 9912, Note_on_c, 1, 62, 127
1, 9930, Note_off_c, 1, 57, 0
1, 9930, Note_off_c, 1, 45, 0
1, 9933, Note_off_c, 1, 74, 0
1, 9933, Note_off_c, 1, 62, 0
1, 9936, Note_on_c, 1, 52, 127
1, 9936, Note_on_c, 1, 76, 127
1, 9936, Note_on_c, 1, 61, 127
1, 9936, Note_on_c, 1, 40, 127
1, 9957, Note_off_c, 1, 76, 0
1, 9957, Note_off_c, 1, 61, 0
1, 9960, Note_on_c, 1, 77, 127
1, 9960, Note_on_c, 1, 62, 127
1, 9978, Note_off_c, 1, 52, 0
1, 9978, Note_off_c, 1, 40, 0
1, 9981, Note_off_c, 1, 77, 0
1, 9981, Note_off_c, 1, 62, 0
1, 9984, Note_on_c, 1, 49, 127
1, 9984, Note_on_c, 1, 79, 127
1, 9984, Note_on_c, 1, 64, 127
1, 9984, Note_on_c, 1, 37, 127
1, 10005, Note_off_c, 1, 79, 0
1, 10005, Note_off_c, 1, 64, 0
1, 10008, Note_on_c, 1, 77, 127
1, 10008, Note_on_c, 1, 62, 127
1, 10026, Note_off_c, 1, 49, 0
1, 10026, Note_off_c, 1, 37, 0
1, 10029, Note_off_c, 1, 77, 0
1, 10029, Note_off_c, 1, 62, 0
1, 10032, Note_on_c, 1, 45, 127
1, 10032, Note_on_c, 1, 79, 127
1, 10032, Note_on_c, 1, 64, 127
1, 10032, Note_on_c, 1, 33, 127
1, 10053, Note_off_c, 1, 79, 0
1, 10053, Note_off_c, 1, 64, 0
1, 10056, Note_on_c, 1, 76, 127
1, 10056, Note_on_c, 1, 61, 127
1, 10074, Note_off_c, 1, 45, 0
1, 10074, Note_off_c, 1, 33, 0
1, 10077, Note_off_c, 1, 76, 0
1, 10077, Note_off_c, 1, 61, 0
1, 10080, Note_on_c, 1, 50, 127
1, 10080, Note_on_c, 1, 77, 127
1, 10080, Note_on_c, 1, 62, 127
1, 10080, Note_on_c, 1, 38, 127
1, 10122, Note_off_c, 1, 77, 0
1, 10122, Note_off_c, 1, 62, 0
1, 10128, Note_on_c, 1, 57, 127
1, 10128, Note_on_c, 1, 74, 127
1, 10128, Note_on_c, 1, 69, 127
1, 10128, Note_on_c, 1, 65, 127
1, 10128, Note_on_c, 1, 53, 127
1, 10149, Note_off_c, 1, 74, 0
1, 10149, Note_off_c, 1, 69, 0
1, 10149, Note_off_c, 1, 65, 0
1, 10152, Note_on_c, 1, 73, 127
1, 10152, Note_on_c, 1, 67, 127
1, 10152, Note_on_c, 1, 64, 127
1, 10164, Note_off_c, 1, 50, 0
1, 10164, Note_off_c, 1, 38, 0
1, 10170, Note_off_c, 1, 53, 0
1, 10173, Note_off_c, 1, 57, 0
1, 10173, Note_off_c, 1, 73, 0
1, 10173, Note_off_c, 1, 67, 0
1, 10173, Note_off_c, 1, 64, 0
1, 10176, Note_on_c, 1, 57, 127
1, 10176, Note_on_c, 1, 74, 127
1, 10176, Note_on_c, 1, 69, 127
1, 10176, Note_on_c, 1, 65, 127
1, 10176, Note_on_c, 1, 62, 127
1, 10197, Note_off_c, 1, 74, 0
1, 10197, Note_off_c, 1, 69, 0
1, 10200, Note_on_c, 1, 73, 127
1, 10200, Note_on_c, 1, 67, 127
1, 10200, Note_on_c, 1, 64, 127
1, 10218, Note_off_c, 1, 65, 0
1, 10218, Note_off_c, 1, 62, 0
1, 10221, Note_off_c, 1, 57, 0
1, 10221, Note_off_c, 1, 73, 0
1, 10221, Note_off_c, 1, 67, 0
1, 10221, Note_off_c, 1, 64, 0
1, 10224, Note_on_c, 1, 57, 127
1, 10224, Note_on_c, 1, 74, 127
1, 10224, Note_on_c, 1, 65, 127
1, 10224, Note_on_c, 1, 45, 127
1, 10224, Note_on_c, 1, 69, 127
1, 10224, Note_on_c, 1, 61, 127
1, 10224, Note_on_c, 1, 33, 127
1, 10245, Note_off_c, 1, 57, 0
1, 10245, Note_off_c, 1, 74, 0
1, 10248, Note_on_c, 1, 73, 127
1, 10248, Note_on_c, 1, 67, 127
1, 10248, Note_on_c, 1, 64, 127
1, 10266, Note_off_c, 1, 65, 0
1, 10266, Note_off_c, 1, 45, 0
1, 10266, Note_off_c, 1, 69, 0
1, 10266, Note_off_c, 1, 61, 0
1, 10266, Note_off_c, 1, 33, 0
1, 10269, Note_off_c, 1, 73, 0
1, 10269, Note_off_c, 1, 67, 0
1, 10269, Note_off_c, 1, 64, 0
1, 10272, Note_on_c, 1, 53, 127
1, 10272, Note_on_c, 1, 74, 127
1, 10272, Note_on_c, 1, 65, 127
1, 10272, Note_on_c, 1, 62, 127
1, 10272, Note_on_c, 1, 46, 127
1, 10272, Note_on_c, 1, 34, 127
1, 10296, Note_on_c, 1, 64, 127
1, 10314, Note_off_c, 1, 74, 0
1, 10314, Note_off_c, 1, 65, 0
1, 10314, Note_off_c, 1, 62, 0
1, 10314, Note_off_c, 1, 46, 0
1, 10314, Note_off_c, 1, 34, 0
1, 10317, Note_off_c, 1, 64, 0
1, 10320, Note_on_c, 1, 57, 127
1, 10320, Note_on_c, 1, 69, 127
1, 10320, Note_on_c, 1, 41, 127
1, 10320, Note_on_c, 1, 29, 127
1, 10341, Note_off_c, 1, 57, 0
1, 10356, Note_off_c, 1, 53, 0
1, 10362, Note_off_c, 1, 69, 0
1, 10362, Note_off_c, 1, 41, 0
1, 10362, Note_off_c, 1, 29, 0
1, 10368, Note_on_c, 1, 57, 127
1, 10368, Note_on_c, 1, 70, 127
1, 10368, Note_on_c, 1, 65, 127
1, 10368, Note_on_c, 1, 74, 127
1, 10368, Note_on_c, 1, 43, 127
1, 10368, Note_on_c, 1, 62, 127
1, 10368, Note_on_c, 1, 31, 127
1, 10368, Note_on_c, 1, 67, 127
1, 10389, Note_off_c, 1, 57, 0
1, 10389, Note_off_c, 1, 65, 0
1, 10392, Note_on_c, 1, 64, 127
1, 10410, Note_off_c, 1, 70, 0
1, 10410, Note_off_c, 1, 74, 0
1, 10410, Note_off_c, 1, 43, 0
1, 10410, Note_off_c, 1, 62, 0
1, 10410, Note_off_c, 1, 31, 0
1, 10410, Note_off_c, 1, 67, 0
1, 10413, Note_off_c, 1, 64, 0
1, 10416, Note_on_c, 1, 57, 127
1, 10416, Note_on_c, 1, 69, 127
1, 10416, Note_on_c, 1, 65, 127
1, 10416, Note_on_c, 1, 73, 127
1, 10416, Note_on_c, 1, 45, 127
1, 10416, Note_on_c, 1, 33, 127
1, 10416, Note_on_c, 1, 61, 127
1, 10416, Note_on_c, 1, 64, 127
1, 10437, Note_off_c, 1, 69, 0
1, 10437, Note_off_c, 1, 65, 0
1, 10440, Note_on_c, 1, 67, 127
1, 10458, Note_off_c, 1, 73, 0
1, 10458, Note_off_c, 1, 45, 0
1, 10458, Note_off_c, 1, 33, 0
1, 10458, Note_off_c, 1, 61, 0
1, 10461, Note_off_c, 1, 57, 0
1, 10461, Note_off_c, 1, 64, 0
1, 10461, Note_off_c, 1, 67, 0
1, 10464, Note_on_c, 1, 57, 127
1, 10464, Note_on_c, 1, 65, 127
1, 10464, Note_on_c, 1, 62, 127
1, 10464, Note_on_c, 1, 74, 127
1, 10464, Note_on_c, 1, 38, 127
1, 10464, Note_on_c, 1, 26, 127
1, 10464, Note_on_c, 1, 69, 127
1, 10488, Note_on_c, 1, 64, 127
1, 10506, Note_off_c, 1, 57, 0
1, 10506, Note_off_c, 1, 65, 0
1, 10506, Note_off_c, 1, 62, 0
1, 10506, Note_off_c, 1, 74, 0
1, 10506, Note_off_c, 1, 38, 0
1, 10506, Note_off_c, 1, 26, 0
1, 10506, Note_off_c, 1, 69, 0
1, 10509, Note_off_c, 1, 64, 0
1, 10512, Note_on_c, 1, 53, 127
1, 10512, Note_on_c, 1, 62, 127
1, 10512, Note_on_c, 1, 65, 127
1, 10512, Note_on_c, 1, 69, 127
1, 10512, Note_on_c, 1, 50, 127
1, 10512, Note_on_c, 1, 38, 127
1, 10533, Note_off_c, 1, 62, 0
1, 10533, Note_off_c, 1, 65, 0
1, 10533, Note_off_c, 1, 50, 0
1, 10533, Note_off_c, 1, 38, 0
1, 10536, Note_on_c, 1, 64, 127
1, 10536, Note_on_c, 1, 49, 127
1, 10536, Note_on_c, 1, 37, 127
1, 10554, Note_off_c, 1, 53, 0
1, 10554, Note_off_c, 1, 69, 0
1, 10557, Note_off_c, 1, 64, 0
1, 10557, Note_off_c, 1, 49, 0
1, 10557, Note_off_c, 1, 37, 0
1, 10560, Note_on_c, 1, 65, 127
1, 10560, Note_on_c, 1, 62, 127
1, 10560, Note_on_c, 1, 50, 127
1, 10560, Note_on_c, 1, 57, 127
1, 10560, Note_on_c, 1, 38, 127
1, 10581, Note_off_c, 1, 62, 0
1, 10581, Note_off_c, 1, 50, 0
1, 10581, Note_off_c, 1, 38, 0
1, 10584, Note_on_c, 1, 67, 127
1, 10584, Note_on_c, 1, 64, 127
1, 10584, Note_on_c, 1, 49, 127
1, 10584, Note_on_c, 1, 37, 127
1, 10602, Note_off_c, 1, 65, 0
1, 10602, Note_off_c, 1, 57, 0
1, 10605, Note_off_c, 1, 67, 0
1, 10605, Note_off_c, 1, 64, 0
1, 10605, Note_off_c, 1, 49, 0
1, 10605, Note_off_c, 1, 37, 0
1, 10608, Note_on_c, 1, 65, 127
1, 10608, Note_on_c, 1, 62, 127
1, 10608, Note_on_c, 1, 50, 127
1, 10608, Note_on_c, 1, 38, 127
1, 10629, Note_off_c, 1, 65, 0
1, 10629, Note_off_c, 1, 50, 0
1, 10629, Note_off_c, 1, 38, 0
1, 10632, Note_on_c, 1, 67, 127
1, 10632, Note_on_c, 1, 46, 127
1, 10632, Note_on_c, 1, 34, 127
1, 10653, Note_off_c, 1, 62, 0
1, 10653, Note_off_c, 1, 67, 0
1, 10653, Note_off_c, 1, 46, 0
1, 10653, Note_off_c, 1, 34, 0
1, 10656, Note_on_c, 1, 69, 127
1, 10656, Note_on_c, 1, 64, 127
1, 10656, Note_on_c, 1, 48, 127
1, 10656, Note_on_c, 1, 57, 127
1, 10656, Note_on_c, 1, 36, 127
1, 10680, Note_on_c, 1, 70, 127
1, 10698, Note_off_c, 1, 69, 0
1, 10698, Note_off_c, 1, 64, 0
1, 10698, Note_off_c, 1, 48, 0
1, 10698, Note_off_c, 1, 57, 0
1, 10698, Note_off_c, 1, 36, 0
1, 10701, Note_off_c, 1, 70, 0
1, 10704, Note_on_c, 1, 72, 127
1, 10704, Note_on_c, 1, 69, 127
1, 10704, Note_on_c, 1, 64, 127
1, 10704, Note_on_c, 1, 45, 127
1, 10704, Note_on_c, 1, 33, 127
1, 10704, Note_on_c, 1, 60, 127
1, 10725, Note_off_c, 1, 72, 0
1, 10746, Note_off_c, 1, 64, 0
1, 10746, Note_off_c, 1, 45, 0
1, 10746, Note_off_c, 1, 33, 0
1, 10746, Note_off_c, 1, 60, 0
1, 10749, Note_off_c, 1, 69, 0
1, 10752, Note_on_c, 1, 74, 127
1, 10752, Note_on_c, 1, 65, 127
1, 10752, Note_on_c, 1, 62, 127
1, 10752, Note_on_c, 1, 46, 127
1, 10752, Note_on_c, 1, 34, 127
1, 10773, Note_off_c, 1, 74, 0
1, 10776, Note_on_c, 1, 77, 127
1, 10794, Note_off_c, 1, 65, 0
1, 10794, Note_off_c, 1, 62, 0
1, 10794, Note_off_c, 1, 46, 0
1, 10794, Note_off_c, 1, 34, 0
1, 10797, Note_off_c, 1, 77, 0
1, 10800, Note_on_c, 1, 76, 127
1, 10800, Note_on_c, 1, 70, 127
1, 10800, Note_on_c, 1, 67, 127
1, 10800, Note_on_c, 1, 43, 127
1, 10800, Note_on_c, 1, 31, 127
1, 10800, Note_on_c, 1, 62, 127
1, 10821, Note_off_c, 1, 76, 0
1, 10824, Note_on_c, 1, 74, 127
1, 10842, Note_off_c, 1, 70, 0
1, 10842, Note_off_c, 1, 67, 0
1, 10842, Note_off_c, 1, 43, 0
1, 10842, Note_off_c, 1, 31, 0
1, 10842, Note_off_c, 1, 62, 0
1, 10845, Note_off_c, 1, 74, 0
1, 10848, Note_on_c, 1, 73, 127
1, 10848, Note_on_c, 1, 69, 127
1, 10848, Note_on_c, 1, 64, 127
1, 10848, Note_on_c, 1, 45, 127
1, 10848, Note_on_c, 1, 33, 127
1, 10848, Note_on_c, 1, 61, 127
1, 10890, Note_off_c, 1, 73, 0
1, 10890, Note_off_c, 1, 69, 0
1, 10890, Note_off_c, 1, 64, 0
1, 10890, Note_off_c, 1, 45, 0
1, 10890, Note_off_c, 1, 33, 0
1, 10890, Note_off_c, 1, 61, 0
1, 10896, Note_on_c, 1, 57, 127
1, 10896, Note_on_c, 1, 76, 127
1, 10896, Note_on_c, 1, 73, 127
1, 10896, Note_on_c, 1, 67, 127
1, 10896, Note_on_c, 1, 69, 127
1, 10896, Note_on_c, 1, 64, 127
1, 10896, Note_on_c, 1, 61, 127
1, 10896, Note_on_c, 1, 45, 127
1, 10917, Note_off_c, 1, 76, 0
1, 10917, Note_off_c, 1, 73, 0
1, 10917, Note_off_c, 1, 67, 0
1, 10920, Note_on_c, 1, 74, 127
1, 10920, Note_on_c, 1, 71, 127
1, 10920, Note_on_c, 1, 65, 127
1, 10938, Note_off_c, 1, 69, 0
1, 10938, Note_off_c, 1, 64, 0
1, 10938, Note_off_c, 1, 61, 0
1, 10938, Note_off_c, 1, 45, 0
1, 10941, Note_off_c, 1, 57, 0
1, 10941, Note_off_c, 1, 74, 0
1, 10941, Note_off_c, 1, 71, 0
1, 10941, Note_off_c, 1, 65, 0
1, 10944, Note_on_c, 1, 57, 127
1, 10944, Note_on_c, 1, 76, 127
1, 10944, Note_on_c, 1, 73, 127
1, 10944, Note_on_c, 1, 67, 127
1, 10944, Note_on_c, 1, 69, 127
1, 10944, Note_on_c, 1, 64, 127
1, 10965, Note_off_c, 1, 57, 0
1, 10965, Note_off_c, 1, 76, 0
1, 10965, Note_off_c, 1, 67, 0
1, 10968, Note_on_c, 1, 74, 127
1, 10968, Note_on_c, 1, 71, 127
1, 10968, Note_on_c, 1, 65, 127
1, 10986, Note_off_c, 1, 73, 0
1, 10986, Note_off_c, 1, 69, 0
1, 10986, Note_off_c, 1, 64, 0
1, 10989, Note_off_c, 1, 74, 0
1, 10989, Note_off_c, 1, 71, 0
1, 10989, Note_off_c, 1, 65, 0
1, 10992, Note_on_c, 1, 57, 127
1, 10992, Note_on_c, 1, 76, 127
1, 10992, Note_on_c, 1, 73, 127
1, 10992, Note_on_c, 1, 67, 127
1, 10992, Note_on_c, 1, 69, 127
1, 11013, Note_off_c, 1, 57, 0
1, 11013, Note_off_c, 1, 67, 0
1, 11016, Note_on_c, 1, 74, 127
1, 11016, Note_on_c, 1, 71, 127
1, 11016, Note_on_c, 1, 65, 127
1, 11034, Note_off_c, 1, 76, 0
1, 11034, Note_off_c, 1, 73, 0
1, 11034, Note_off_c, 1, 69, 0
1, 11037, Note_off_c, 1, 74, 0
1, 11037, Note_off_c, 1, 71, 0
1, 11037, Note_off_c, 1, 65, 0
1, 11040, Note_on_c, 1, 57, 127
1, 11040, Note_on_c, 1, 76, 127
1, 11040, Note_on_c, 1, 73, 127
1, 11040, Note_on_c, 1, 67, 127
1, 11040, Note_on_c, 1, 81, 127
1, 11082, Note_off_c, 1, 76, 0
1, 11082, Note_off_c, 1, 73, 0
1, 11082, Note_off_c, 1, 67, 0
1, 11082, Note_off_c, 1, 81, 0
1, 11088, Note_on_c, 1, 69, 127
1, 11088, Note_on_c, 1, 45, 127
1, 11088, Note_on_c, 1, 33, 127
1, 11088, Note_on_c, 1, 60, 127
1, 11109, Note_off_c, 1, 69, 0
1, 11112, Note_on_c, 1, 70, 127
1, 11130, Note_off_c, 1, 45, 0
1, 11130, Note_off_c, 1, 33, 0
1, 11130, Note_off_c, 1, 60, 0
1, 11133, Note_off_c, 1, 57, 0
1, 11133, Note_off_c, 1, 70, 0
1, 11136, Note_on_c, 1, 57, 127
1, 11136, Note_on_c, 1, 69, 127
1, 11136, Note_on_c, 1, 74, 127
1, 11136, Note_on_c, 1, 65, 127
1, 11136, Note_on_c, 1, 47, 127
1, 11136, Note_on_c, 1, 35, 127
1, 11136, Note_on_c, 1, 62, 127
1, 11157, Note_off_c, 1, 57, 0
1, 11157, Note_off_c, 1, 69, 0
1, 11160, Note_on_c, 1, 67, 127
1, 11178, Note_off_c, 1, 74, 0
1, 11178, Note_off_c, 1, 65, 0
1, 11178, Note_off_c, 1, 47, 0
1, 11178, Note_off_c, 1, 35, 0
1, 11178, Note_off_c, 1, 62, 0
1, 11181, Note_off_c, 1, 67, 0
1, 11184, Note_on_c, 1, 57, 127
1, 11184, Note_on_c, 1, 65, 127
1, 11184, Note_on_c, 1, 76, 127
1, 11184, Note_on_c, 1, 64, 127
1, 11184, Note_on_c, 1, 49, 127
1, 11184, Note_on_c, 1, 37, 127
1, 11205, Note_off_c, 1, 57, 0
1, 11205, Note_off_c, 1, 65, 0
1, 11226, Note_off_c, 1, 76, 0
1, 11226, Note_off_c, 1, 49, 0
1, 11226, Note_off_c, 1, 37, 0
1, 11229, Note_off_c, 1, 64, 0
1, 11232, Note_on_c, 1, 57, 127
1, 11232, Note_on_c, 1, 65, 127
1, 11232, Note_on_c, 1, 69, 127
1, 11232, Note_on_c, 1, 62, 127
1, 11232, Note_on_c, 1, 38, 127
1, 11232, Note_on_c, 1, 26, 127
1, 11232, Note_on_c, 1, 61, 127
1, 11232, Note_on_c, 1, 64, 127
1, 11274, Note_off_c, 1, 65, 0
1, 11274, Note_off_c, 1, 69, 0
1, 11274, Note_off_c, 1, 62, 0
1, 11274, Note_off_c, 1, 38, 0
1, 11274, Note_off_c, 1, 26, 0
1, 11274, Note_off_c, 1, 61, 0
1, 11274, Note_off_c, 1, 64, 0
1, 11280, Note_on_c, 1, 81, 127
1, 11280, Note_on_c, 1, 78, 127
1, 11280, Note_on_c, 1, 72, 127
1, 11280, Note_on_c, 1, 50, 127
1, 11301, Note_off_c, 1, 81, 0
1, 11301, Note_off_c, 1, 78, 0
1, 11301, Note_off_c, 1, 72, 0
1, 11304, Note_on_c, 1, 79, 127
1, 11304, Note_on_c, 1, 76, 127
1, 11304, Note_on_c, 1, 70, 127
1, 11322, Note_off_c, 1, 57, 0
1, 11322, Note_off_c, 1, 50, 0
1, 11325, Note_off_c, 1, 79, 0
1, 11325, Note_off_c, 1, 76, 0
1, 11325, Note_off_c, 1, 70, 0
1, 11328, Note_on_c, 1, 69, 127
1, 11328, Note_on_c, 1, 81, 127
1, 11328, Note_on_c, 1, 78, 127
1, 11328, Note_on_c, 1, 72, 127
1, 11328, Note_on_c, 1, 66, 127
1, 11328, Note_on_c, 1, 62, 127
1, 11328, Note_on_c, 1, 57, 127
1, 11349, Note_off_c, 1, 69, 0
1, 11349, Note_off_c, 1, 81, 0
1, 11349, Note_off_c, 1, 78, 0
1, 11349, Note_off_c, 1, 72, 0
1, 11352, Note_on_c, 1, 79, 127
1, 11352, Note_on_c, 1, 76, 127
1, 11352, Note_on_c, 1, 70, 127
1, 11370, Note_off_c, 1, 66, 0
1, 11370, Note_off_c, 1, 62, 0
1, 11370, Note_off_c, 1, 57, 0
1, 11373, Note_off_c, 1, 79, 0
1, 11373, Note_off_c, 1, 76, 0
1, 11373, Note_off_c, 1, 70, 0
1, 11376, Note_on_c, 1, 69, 127
1, 11376, Note_on_c, 1, 81, 127
1, 11376, Note_on_c, 1, 78, 127
1, 11376, Note_on_c, 1, 72, 127
1, 11376, Note_on_c, 1, 66, 127
1, 11376, Note_on_c, 1, 62, 127
1, 11397, Note_off_c, 1, 81, 0
1, 11397, Note_off_c, 1, 78, 0
1, 11397, Note_off_c, 1, 72, 0
1, 11400, Note_on_c, 1, 79, 127
1, 11400, Note_on_c, 1, 76, 127
1, 11400, Note_on_c, 1, 70, 127
1, 11418, Note_off_c, 1, 66, 0
1, 11418, Note_off_c, 1, 62, 0
1, 11421, Note_off_c, 1, 69, 0
1, 11421, Note_off_c, 1, 79, 0
1, 11421, Note_off_c, 1, 76, 0
1, 11421, Note_off_c, 1, 70, 0
1, 11424, Note_on_c, 1, 69, 127
1, 11424, Note_on_c, 1, 81, 127
1, 11424, Note_on_c, 1, 78, 127
1, 11424, Note_on_c, 1, 72, 127
1, 11424, Note_on_c, 1, 50, 127
1, 11466, Note_off_c, 1, 81, 0
1, 11466, Note_off_c, 1, 78, 0
1, 11466, Note_off_c, 1, 72, 0
1, 11466, Note_off_c, 1, 50, 0
1, 11472, Note_on_c, 1, 74, 127
1, 11472, Note_on_c, 1, 38, 127
1, 11472, Note_on_c, 1, 66, 127
1, 11493, Note_off_c, 1, 69, 0
1, 11493, Note_off_c, 1, 74, 0
1, 11496, Note_on_c, 1, 75, 127
1, 11514, Note_off_c, 1, 38, 0
1, 11514, Note_off_c, 1, 66, 0
1, 11517, Note_off_c, 1, 75, 0
1, 11520, Note_on_c, 1, 69, 127
1, 11520, Note_on_c, 1, 74, 127
1, 11520, Note_on_c, 1, 79, 127
1, 11520, Note_on_c, 1, 52, 127
1, 11520, Note_on_c, 1, 40, 127
1, 11520, Note_on_c, 1, 67, 127
1, 11541, Note_off_c, 1, 69, 0
1, 11544, Note_on_c, 1, 72, 127
1, 11562, Note_off_c, 1, 74, 0
1, 11562, Note_off_c, 1, 79, 0
1, 11562, Note_off_c, 1, 52, 0
1, 11562, Note_off_c, 1, 40, 0
1, 11562, Note_off_c, 1, 67, 0
1, 11565, Note_off_c, 1, 72, 0
1, 11568, Note_on_c, 1, 69, 127
1, 11568, Note_on_c, 1, 70, 127
1, 11568, Note_on_c, 1, 81, 127
1, 11568, Note_on_c, 1, 62, 127
1, 11568, Note_on_c, 1, 54, 127
1, 11568, Note_on_c, 1, 42, 127
1, 11589, Note_off_c, 1, 70, 0
1, 11610, Note_off_c, 1, 81, 0
1, 11610, Note_off_c, 1, 62, 0
1, 11610, Note_off_c, 1, 54, 0
1, 11610, Note_off_c, 1, 42, 0
1, 11613, Note_off_c, 1, 69, 0
1, 11616, Note_on_c, 1, 67, 127
1, 11616, Note_on_c, 1, 70, 127
1, 11616, Note_on_c, 1, 74, 127
1, 11616, Note_on_c, 1, 55, 127
1, 11616, Note_on_c, 1, 43, 127
1, 11616, Note_on_c, 1, 62, 127
1, 11658, Note_off_c, 1, 70, 0
1, 11658, Note_off_c, 1, 55, 0
1, 11658, Note_off_c, 1, 43, 0
1, 11658, Note_off_c, 1, 62, 0
1, 11661, Note_off_c, 1, 74, 0
1, 11664, Note_on_c, 1, 79, 127
1, 11664, Note_on_c, 1, 72, 127
1, 11664, Note_on_c, 1, 66, 127
1, 11664, Note_on_c, 1, 57, 127
1, 11664, Note_on_c, 1, 45, 127
1, 11664, Note_on_c, 1, 60, 127
1, 11679, Note_off_c, 1, 67, 0
1, 11685, Note_off_c, 1, 79, 0
1, 11688, Note_on_c, 1, 81, 127
1, 11706, Note_off_c, 1, 66, 0
1, 11706, Note_off_c, 1, 57, 0
1, 11706, Note_off_c, 1, 45, 0
1, 11706, Note_off_c, 1, 60, 0
1, 11709, Note_off_c, 1, 72, 0
1, 11709, Note_off_c, 1, 81, 0
1, 11712, Note_on_c, 1, 79, 127
1, 11712, Note_on_c, 1, 74, 127
1, 11712, Note_on_c, 1, 62, 127
1, 11712, Note_on_c, 1, 58, 127
1, 11712, Note_on_c, 1, 46, 127
1, 11712, Note_on_c, 1, 67, 127
1, 11733, Note_off_c, 1, 79, 0
1, 11736, Note_on_c, 1, 77, 127
1, 11754, Note_off_c, 1, 74, 0
1, 11754, Note_off_c, 1, 62, 0
1, 11754, Note_off_c, 1, 58, 0
1, 11754, Note_off_c, 1, 46, 0
1, 11754, Note_off_c, 1, 67, 0
1, 11757, Note_off_c, 1, 77, 0
1, 11760, Note_on_c, 1, 76, 127
1, 11760, Note_on_c, 1, 70, 127
1, 11760, Note_on_c, 1, 67, 127
1, 11760, Note_on_c, 1, 55, 127
1, 11760, Note_on_c, 1, 43, 127
1, 11760, Note_on_c, 1, 62, 127
1, 11781, Note_off_c, 1, 76, 0
1, 11784, Note_on_c, 1, 74, 127
1, 11802, Note_off_c, 1, 70, 0
1, 11802, Note_off_c, 1, 67, 0
1, 11802, Note_off_c, 1, 55, 0
1, 11802, Note_off_c, 1, 43, 0
1, 11802, Note_off_c, 1, 62, 0
1, 11805, Note_off_c, 1, 74, 0
1, 11808, Note_on_c, 1, 73, 127
1, 11808, Note_on_c, 1, 69, 127
1, 11808, Note_on_c, 1, 64, 127
1, 11808, Note_on_c, 1, 57, 127
1, 11808, Note_on_c, 1, 45, 127
1, 11808, Note_on_c, 1, 61, 127
1, 11829, Note_off_c, 1, 73, 0
1, 11832, Note_on_c, 1, 71, 127
1, 11850, Note_off_c, 1, 69, 0
1, 11850, Note_off_c, 1, 64, 0
1, 11850, Note_off_c, 1, 57, 0
1, 11850, Note_off_c, 1, 45, 0
1, 11850, Note_off_c, 1, 61, 0
1, 11853, Note_off_c, 1, 71, 0
1, 11856, Note_on_c, 1, 57, 127
1, 11856, Note_on_c, 1, 69, 127
1, 11856, Note_on_c, 1, 64, 127
1, 11856, Note_on_c, 1, 58, 127
1, 11856, Note_on_c, 1, 61, 127
1, 11856, Note_on_c, 1, 46, 127
1, 11877, Note_off_c, 1, 57, 0
1, 11877, Note_off_c, 1, 58, 0
1, 11877, Note_off_c, 1, 46, 0
1, 11880, Note_on_c, 1, 71, 127
1, 11880, Note_on_c, 1, 45, 127
1, 11898, Note_off_c, 1, 69, 0
1, 11898, Note_off_c, 1, 64, 0
1, 11898, Note_off_c, 1, 61, 0
1, 11901, Note_off_c, 1, 71, 0
1, 11901, Note_off_c, 1, 45, 0
1, 11904, Note_on_c, 1, 57, 127
1, 11904, Note_on_c, 1, 73, 127
1, 11904, Note_on_c, 1, 69, 127
1, 11904, Note_on_c, 1, 64, 127
1, 11904, Note_on_c, 1, 55, 127
1, 11904, Note_on_c, 1, 43, 127
1, 11925, Note_off_c, 1, 57, 0
1, 11925, Note_off_c, 1, 69, 0
1, 11925, Note_off_c, 1, 55, 0
1, 11925, Note_off_c, 1, 43, 0
1, 11928, Note_on_c, 1, 74, 127
1, 11928, Note_on_c, 1, 71, 127
1, 11928, Note_on_c, 1, 53, 127
1, 11928, Note_on_c, 1, 41, 127
1, 11946, Note_off_c, 1, 73, 0
1, 11946, Note_off_c, 1, 64, 0
1, 11949, Note_off_c, 1, 74, 0
1, 11949, Note_off_c, 1, 71, 0
1, 11949, Note_off_c, 1, 53, 0
1, 11949, Note_off_c, 1, 41, 0
1, 11952, Note_on_c, 1, 57, 127
1, 11952, Note_on_c, 1, 76, 127
1, 11952, Note_on_c, 1, 73, 127
1, 11952, Note_on_c, 1, 69, 127
1, 11952, Note_on_c, 1, 52, 127
1, 11952, Note_on_c, 1, 40, 127
1, 11952, Note_on_c, 1, 64, 127
1, 11973, Note_off_c, 1, 57, 0
1, 11973, Note_off_c, 1, 76, 0
1, 11973, Note_off_c, 1, 52, 0
1, 11973, Note_off_c, 1, 40, 0
1, 11976, Note_on_c, 1, 77, 127
1, 11976, Note_on_c, 1, 74, 127
1, 11976, Note_on_c, 1, 50, 127
1, 11976, Note_on_c, 1, 38, 127
1, 11994, Note_off_c, 1, 73, 0
1, 11994, Note_off_c, 1, 69, 0
1, 11994, Note_off_c, 1, 64, 0
1, 11997, Note_off_c, 1, 77, 0
1, 11997, Note_off_c, 1, 74, 0
1, 11997, Note_off_c, 1, 50, 0
1, 11997, Note_off_c, 1, 38, 0
1, 12000, Note_on_c, 1, 57, 127
1, 12000, Note_on_c, 1, 79, 127
1, 12000, Note_on_c, 1, 76, 127
1, 12000, Note_on_c, 1, 69, 127
1, 12000, Note_on_c, 1, 49, 127
1, 12000, Note_on_c, 1, 37, 127
1, 12000, Note_on_c, 1, 64, 127
1, 12021, Note_off_c, 1, 49, 0
1, 12021, Note_off_c, 1, 37, 0
1, 12024, Note_on_c, 1, 77, 127
1, 12024, Note_on_c, 1, 74, 127
1, 12024, Note_on_c, 1, 50, 127
1, 12024, Note_on_c, 1, 38, 127
1, 12045, Note_off_c, 1, 77, 0
1, 12045, Note_off_c, 1, 74, 0
1, 12045, Note_off_c, 1, 50, 0
1, 12045, Note_off_c, 1, 38, 0
1, 12048, Note_on_c, 1, 73, 127
1, 12048, Note_on_c, 1, 67, 127
1, 12048, Note_on_c, 1, 52, 127
1, 12048, Note_on_c, 1, 40, 127
1, 12069, Note_off_c, 1, 73, 0
1, 12069, Note_off_c, 1, 67, 0
1, 12069, Note_off_c, 1, 52, 0
1, 12069, Note_off_c, 1, 40, 0
1, 12084, Note_off_c, 1, 79, 0
1, 12084, Note_off_c, 1, 76, 0
1, 12084, Note_off_c, 1, 64, 0
1, 12093, Note_off_c, 1, 57, 0
1, 12093, Note_off_c, 1, 69, 0
1, 12096, Note_on_c, 1, 57, 127
1, 12096, Note_on_c, 1, 79, 127
1, 12096, Note_on_c, 1, 76, 127
1, 12096, Note_on_c, 1, 70, 127
1, 12096, Note_on_c, 1, 49, 127
1, 12096, Note_on_c, 1, 37, 127
1, 12117, Note_off_c, 1, 57, 0
1, 12117, Note_off_c, 1, 79, 0
1, 12117, Note_off_c, 1, 76, 0
1, 12117, Note_off_c, 1, 49, 0
1, 12117, Note_off_c, 1, 37, 0
1, 12120, Note_on_c, 1, 77, 127
1, 12120, Note_on_c, 1, 74, 127
1, 12120, Note_on_c, 1, 47, 127
1, 12120, Note_on_c, 1, 35, 127
1, 12138, Note_off_c, 1, 70, 0
1, 12141, Note_off_c, 1, 77, 0
1, 12141, Note_off_c, 1, 74, 0
1, 12141, Note_off_c, 1, 47, 0
1, 12141, Note_off_c, 1, 35, 0
1, 12144, Note_on_c, 1, 57, 127
1, 12144, Note_on_c, 1, 79, 127
1, 12144, Note_on_c, 1, 73, 127
1, 12144, Note_on_c, 1, 64, 127
1, 12144, Note_on_c, 1, 45, 127
1, 12144, Note_on_c, 1, 76, 127
1, 12144, Note_on_c, 1, 69, 127
1, 12144, Note_on_c, 1, 33, 127
1, 12165, Note_off_c, 1, 57, 0
1, 12165, Note_off_c, 1, 45, 0
1, 12165, Note_off_c, 1, 33, 0
1, 12168, Note_on_c, 1, 77, 127
1, 12168, Note_on_c, 1, 74, 127
1, 12168, Note_on_c, 1, 43, 127
1, 12168, Note_on_c, 1, 31, 127
1, 12186, Note_off_c, 1, 73, 0
1, 12186, Note_off_c, 1, 64, 0
1, 12189, Note_off_c, 1, 77, 0
1, 12189, Note_off_c, 1, 74, 0
1, 12189, Note_off_c, 1, 43, 0
1, 12189, Note_off_c, 1, 31, 0
1, 12192, Note_on_c, 1, 41, 127
1, 12192, Note_on_c, 1, 29, 127
1, 12213, Note_off_c, 1, 79, 0
1, 12213, Note_off_c, 1, 76, 0
1, 12216, Note_on_c, 1, 81, 127
1, 12226, Note_off_c, 1, 81, 0
1, 12234, Note_off_c, 1, 41, 0
1, 12234, Note_off_c, 1, 29, 0
1, 12237, Note_off_c, 1, 69, 0
1, 12240, Note_on_c, 1, 69, 127
1, 12240, Note_on_c, 1, 57, 127
1, 12240, Note_on_c, 1, 77, 127
1, 12240, Note_on_c, 1, 74, 127
1, 12240, Note_on_c, 1, 50, 127
1, 12240, Note_on_c, 1, 38, 127
1, 12240, Note_on_c, 1, 66, 127
1, 12250, Note_off_c, 1, 77, 0
1, 12252, Note_on_c, 1, 79, 127
1, 12261, Note_off_c, 1, 57, 0
1, 12261, Note_off_c, 1, 74, 0
1, 12262, Note_off_c, 1, 79, 0
1, 12264, Note_on_c, 1, 67, 127
1, 12264, Note_on_c, 1, 81, 127
1, 12264, Note_on_c, 1, 76, 127
1, 12282, Note_off_c, 1, 69, 0
1, 12282, Note_off_c, 1, 50, 0
1, 12282, Note_off_c, 1, 38, 0
1, 12282, Note_off_c, 1, 66, 0
1, 12285, Note_off_c, 1, 67, 0
1, 12285, Note_off_c, 1, 81, 0
1, 12285, Note_off_c, 1, 76, 0
1, 12288, Note_on_c, 1, 69, 127
1, 12288, Note_on_c, 1, 57, 127
1, 12288, Note_on_c, 1, 76, 127
1, 12288, Note_on_c, 1, 73, 127
1, 12288, Note_on_c, 1, 45, 127
1, 12288, Note_on_c, 1, 61, 127
1, 12312, Note_on_c, 1, 67, 127
1, 12330, Note_off_c, 1, 69, 0
1, 12330, Note_off_c, 1, 45, 0
1, 12330, Note_off_c, 1, 61, 0
1, 12333, Note_off_c, 1, 57, 0
1, 12333, Note_off_c, 1, 67, 0
1, 12336, Note_on_c, 1, 64, 127
1, 12336, Note_on_c, 1, 33, 127
1, 12351, Note_off_c, 1, 76, 0
1, 12351, Note_off_c, 1, 73, 0
1, 12360, Note_on_c, 1, 74, 127
1, 12378, Note_off_c, 1, 64, 0
1, 12378, Note_off_c, 1, 33, 0
1, 12381, Note_off_c, 1, 74, 0
1, 12384, Note_on_c, 1, 65, 127
1, 12384, Note_on_c, 1, 57, 127
1, 12384, Note_on_c, 1, 74, 127
1, 12384, Note_on_c, 1, 50, 127
1, 12384, Note_on_c, 1, 38, 127
1, 12384, Note_on_c, 1, 70, 127
1, 12426, Note_off_c, 1, 57, 0
1, 12432, Note_on_c, 1, 69, 127
1, 12453, Note_off_c, 1, 69, 0
1, 12456, Note_on_c, 1, 67, 127
1, 12456, Note_on_c, 1, 64, 127
1, 12468, Note_off_c, 1, 65, 0
1, 12468, Note_off_c, 1, 50, 0
1, 12468, Note_off_c, 1, 38, 0
1, 12468, Note_off_c, 1, 70, 0
1, 12474, Note_off_c, 1, 74, 0
1, 12477, Note_off_c, 1, 67, 0
1, 12477, Note_off_c, 1, 64, 0
1, 12480, Note_on_c, 1, 69, 127
1, 12480, Note_on_c, 1, 65, 127
1, 12480, Note_on_c, 1, 72, 127
1, 12501, Note_off_c, 1, 69, 0
1, 12501, Note_off_c, 1, 65, 0
1, 12504, Note_on_c, 1, 67, 127
1, 12504, Note_on_c, 1, 64, 127
1, 12522, Note_off_c, 1, 72, 0
1, 12525, Note_off_c, 1, 67, 0
1, 12525, Note_off_c, 1, 64, 0
1, 12528, Note_on_c, 1, 69, 127
1, 12528, Note_on_c, 1, 65, 127
1, 12528, Note_on_c, 1, 70, 127
1, 12549, Note_off_c, 1, 69, 0
1, 12549, Note_off_c, 1, 65, 0
1, 12552, Note_on_c, 1, 67, 127
1, 12573, Note_off_c, 1, 70, 0
1, 12573, Note_off_c, 1, 67, 0
1, 12576, Note_on_c, 1, 72, 127
1, 12576, Note_on_c, 1, 69, 127
1, 12597, Note_off_c, 1, 72, 0
1, 12600, Note_on_c, 1, 71, 127
1, 12600, Note_on_c, 1, 67, 127
1, 12618, Note_off_c, 1, 69, 0
1, 12621, Note_off_c, 1, 71, 0
1, 12621, Note_off_c, 1, 67, 0
1, 12624, Note_on_c, 1, 72, 127
1, 12624, Note_on_c, 1, 69, 127
1, 12624, Note_on_c, 1, 67, 127
1, 12645, Note_off_c, 1, 72, 0
1, 12645, Note_off_c, 1, 69, 0
1, 12648, Note_on_c, 1, 74, 127
1, 12648, Note_on_c, 1, 71, 127
1, 12666, Note_off_c, 1, 67, 0
1, 12669, Note_off_c, 1, 74, 0
1, 12669, Note_off_c, 1, 71, 0
1, 12672, Note_on_c, 1, 72, 127
1, 12672, Note_on_c, 1, 69, 127
1, 12672, Note_on_c, 1, 66, 127
1, 12693, Note_off_c, 1, 72, 0
1, 12693, Note_off_c, 1, 69, 0
1, 12696, Note_on_c, 1, 74, 127
1, 12696, Note_on_c, 1, 71, 127
1, 12714, Note_off_c, 1, 66, 0
1, 12717, Note_off_c, 1, 74, 0
1, 12717, Note_off_c, 1, 71, 0
1, 12720, Note_on_c, 1, 72, 127
1, 12720, Note_on_c, 1, 69, 127
1, 12720, Note_on_c, 1, 64, 127
1, 12720, Note_on_c, 1, 62, 127
1, 12741, Note_off_c, 1, 72, 0
1, 12741, Note_off_c, 1, 69, 0
1, 12744, Note_on_c, 1, 74, 127
1, 12744, Note_on_c, 1, 71, 127
1, 12762, Note_off_c, 1, 64, 0
1, 12762, Note_off_c, 1, 62, 0
1, 12765, Note_off_c, 1, 74, 0
1, 12765, Note_off_c, 1, 71, 0
1, 12768, Note_on_c, 1, 71, 127
1, 12768, Note_on_c, 1, 67, 127
1, 12768, Note_on_c, 1, 43, 127
1, 12768, Note_on_c, 1, 31, 127
1, 12768, Note_on_c, 1, 70, 127
1, 12810, Note_off_c, 1, 71, 0
1, 12810, Note_off_c, 1, 67, 0
1, 12816, Note_on_c, 1, 74, 127
1, 12837, Note_off_c, 1, 74, 0
1, 12840, Note_on_c, 1, 72, 127
1, 12840, Note_on_c, 1, 69, 127
1, 12852, Note_off_c, 1, 43, 0
1, 12852, Note_off_c, 1, 31, 0
1, 12852, Note_off_c, 1, 70, 0
1, 12861, Note_off_c, 1, 72, 0
1, 12861, Note_off_c, 1, 69, 0
1, 12864, Note_on_c, 1, 74, 127
1, 12864, Note_on_c, 1, 71, 127
1, 12864, Note_on_c, 1, 65, 127
1, 12885, Note_off_c, 1, 74, 0
1, 12885, Note_off_c, 1, 71, 0
1, 12888, Note_on_c, 1, 72, 127
1, 12888, Note_on_c, 1, 69, 127
1, 12906, Note_off_c, 1, 65, 0
1, 12909, Note_off_c, 1, 72, 0
1, 12909, Note_off_c, 1, 69, 0
1, 12912, Note_on_c, 1, 74, 127
1, 12912, Note_on_c, 1, 71, 127
1, 12912, Note_on_c, 1, 64, 127
1, 12933, Note_off_c, 1, 74, 0
1, 12933, Note_off_c, 1, 71, 0
1, 12936, Note_on_c, 1, 76, 127
1, 12936, Note_on_c, 1, 72, 127
1, 12954, Note_off_c, 1, 64, 0
1, 12957, Note_off_c, 1, 76, 0
1, 12957, Note_off_c, 1, 72, 0
1, 12960, Note_on_c, 1, 77, 127
1, 12960, Note_on_c, 1, 74, 127
1, 12960, Note_on_c, 1, 62, 127
1, 12981, Note_off_c, 1, 77, 0
1, 12981, Note_off_c, 1, 74, 0
1, 12984, Note_on_c, 1, 76, 127
1, 12984, Note_on_c, 1, 72, 127
1, 13002, Note_off_c, 1, 62, 0
1, 13005, Note_off_c, 1, 76, 0
1, 13005, Note_off_c, 1, 72, 0
1, 13008, Note_on_c, 1, 77, 127
1, 13008, Note_on_c, 1, 74, 127
1, 13008, Note_on_c, 1, 60, 127
1, 13029, Note_off_c, 1, 77, 0
1, 13029, Note_off_c, 1, 74, 0
1, 13032, Note_on_c, 1, 79, 127
1, 13032, Note_on_c, 1, 76, 127
1, 13050, Note_off_c, 1, 60, 0
1, 13053, Note_off_c, 1, 79, 0
1, 13053, Note_off_c, 1, 76, 0
1, 13056, Note_on_c, 1, 77, 127
1, 13056, Note_on_c, 1, 74, 127
1, 13056, Note_on_c, 1, 59, 127
1, 13077, Note_off_c, 1, 77, 0
1, 13077, Note_off_c, 1, 74, 0
1, 13080, Note_on_c, 1, 79, 127
1, 13080, Note_on_c, 1, 76, 127
1, 13098, Note_off_c, 1, 59, 0
1, 13101, Note_off_c, 1, 79, 0
1, 13101, Note_off_c, 1, 76, 0
1, 13104, Note_on_c, 1, 77, 127
1, 13104, Note_on_c, 1, 74, 127
1, 13104, Note_on_c, 1, 55, 127
1, 13104, Note_on_c, 1, 57, 127
1, 13125, Note_off_c, 1, 77, 0
1, 13125, Note_off_c, 1, 74, 0
1, 13128, Note_on_c, 1, 79, 127
1, 13128, Note_on_c, 1, 76, 127
1, 13146, Note_off_c, 1, 55, 0
1, 13146, Note_off_c, 1, 57, 0
1, 13149, Note_off_c, 1, 79, 0
1, 13149, Note_off_c, 1, 76, 0
1, 13152, Note_on_c, 1, 76, 127
1, 13152, Note_on_c, 1, 72, 127
1, 13152, Note_on_c, 1, 48, 127
1, 13152, Note_on_c, 1, 60, 127
1, 13152, Note_on_c, 1, 36, 127
1, 13194, Note_off_c, 1, 76, 0
1, 13194, Note_off_c, 1, 48, 0
1, 13194, Note_off_c, 1, 36, 0
1, 13200, Note_on_c, 1, 79, 127
1, 13221, Note_off_c, 1, 79, 0
1, 13224, Note_on_c, 1, 77, 127
1, 13224, Note_on_c, 1, 74, 127
1, 13236, Note_off_c, 1, 72, 0
1, 13242, Note_off_c, 1, 60, 0
1, 13245, Note_off_c, 1, 77, 0
1, 13245, Note_off_c, 1, 74, 0
1, 13248, Note_on_c, 1, 58, 127
1, 13248, Note_on_c, 1, 79, 127
1, 13248, Note_on_c, 1, 76, 127
1, 13248, Note_on_c, 1, 46, 127
1, 13269, Note_off_c, 1, 79, 0
1, 13269, Note_off_c, 1, 76, 0
1, 13272, Note_on_c, 1, 77, 127
1, 13272, Note_on_c, 1, 74, 127
1, 13290, Note_off_c, 1, 58, 0
1, 13290, Note_off_c, 1, 46, 0
1, 13293, Note_off_c, 1, 77, 0
1, 13293, Note_off_c, 1, 74, 0
1, 13296, Note_on_c, 1, 57, 127
1, 13296, Note_on_c, 1, 79, 127
1, 13296, Note_on_c, 1, 76, 127
1, 13296, Note_on_c, 1, 45, 127
1, 13317, Note_off_c, 1, 79, 0
1, 13317, Note_off_c, 1, 76, 0
1, 13320, Note_on_c, 1, 81, 127
1, 13320, Note_on_c, 1, 77, 127
1, 13338, Note_off_c, 1, 57, 0
1, 13338, Note_off_c, 1, 45, 0
1, 13341, Note_off_c, 1, 81, 0
1, 13341, Note_off_c, 1, 77, 0
1, 13344, Note_on_c, 1, 55, 127
1, 13344, Note_on_c, 1, 82, 127
1, 13344, Note_on_c, 1, 79, 127
1, 13344, Note_on_c, 1, 43, 127
1, 13365, Note_off_c, 1, 82, 0
1, 13365, Note_off_c, 1, 79, 0
1, 13368, Note_on_c, 1, 81, 127
1, 13368, Note_on_c, 1, 77, 127
1, 13386, Note_off_c, 1, 55, 0
1, 13386, Note_off_c, 1, 43, 0
1, 13389, Note_off_c, 1, 81, 0
1, 13389, Note_off_c, 1, 77, 0
1, 13392, Note_on_c, 1, 53, 127
1, 13392, Note_on_c, 1, 82, 127
1, 13392, Note_on_c, 1, 79, 127
1, 13392, Note_on_c, 1, 41, 127
1, 13413, Note_off_c, 1, 82, 0
1, 13413, Note_off_c, 1, 79, 0
1, 13416, Note_on_c, 1, 84, 127
1, 13416, Note_on_c, 1, 81, 127
1, 13434, Note_off_c, 1, 53, 0
1, 13434, Note_off_c, 1, 41, 0
1, 13437, Note_off_c, 1, 84, 0
1, 13437, Note_off_c, 1, 81, 0
1, 13440, Note_on_c, 1, 52, 127
1, 13440, Note_on_c, 1, 82, 127
1, 13440, Note_on_c, 1, 79, 127
1, 13440, Note_on_c, 1, 40, 127
1, 13461, Note_off_c, 1, 82, 0
1, 13461, Note_off_c, 1, 79, 0
1, 13464, Note_on_c, 1, 84, 127
1, 13464, Note_on_c, 1, 81, 127
1, 13482, Note_off_c, 1, 52, 0
1, 13482, Note_off_c, 1, 40, 0
1, 13485, Note_off_c, 1, 84, 0
1, 13485, Note_off_c, 1, 81, 0
1, 13488, Note_on_c, 1, 48, 127
1, 13488, Note_on_c, 1, 82, 127
1, 13488, Note_on_c, 1, 79, 127
1, 13488, Note_on_c, 1, 36, 127
1, 13509, Note_off_c, 1, 82, 0
1, 13509, Note_off_c, 1, 79, 0
1, 13512, Note_on_c, 1, 84, 127
1, 13512, Note_on_c, 1, 81, 127
1, 13530, Note_off_c, 1, 48, 0
1, 13530, Note_off_c, 1, 36, 0
1, 13533, Note_off_c, 1, 84, 0
1, 13533, Note_off_c, 1, 81, 0
1, 13536, Note_on_c, 1, 72, 127
1, 13536, Note_on_c, 1, 53, 127
1, 13536, Note_on_c, 1, 81, 127
1, 13536, Note_on_c, 1, 77, 127
1, 13536, Note_on_c, 1, 41, 127
1, 13578, Note_off_c, 1, 53, 0
1, 13578, Note_off_c, 1, 41, 0
1, 13584, Note_on_c, 1, 69, 127
1, 13584, Note_on_c, 1, 63, 127
1, 13584, Note_on_c, 1, 48, 127
1, 13584, Note_on_c, 1, 36, 127
1, 13605, Note_off_c, 1, 48, 0
1, 13605, Note_off_c, 1, 36, 0
1, 13608, Note_on_c, 1, 46, 127
1, 13608, Note_on_c, 1, 34, 127
1, 13620, Note_off_c, 1, 81, 0
1, 13620, Note_off_c, 1, 77, 0
1, 13626, Note_off_c, 1, 69, 0
1, 13626, Note_off_c, 1, 63, 0
1, 13629, Note_off_c, 1, 46, 0
1, 13629, Note_off_c, 1, 34, 0
1, 13632, Note_on_c, 1, 75, 127
1, 13674, Note_off_c, 1, 75, 0
1, 13704, Note_on_c, 1, 50, 127
1, 13704, Note_on_c, 1, 38, 127
1, 13722, Note_off_c, 1, 72, 0
1, 13725, Note_off_c, 1, 50, 0
1, 13725, Note_off_c, 1, 38, 0
1, 13728, Note_on_c, 1, 70, 127
1, 13728, Note_on_c, 1, 51, 127
1, 13728, Note_on_c, 1, 39, 127
1, 13749, Note_off_c, 1, 51, 0
1, 13749, Note_off_c, 1, 39, 0
1, 13776, Note_on_c, 1, 65, 127
1, 13776, Note_on_c, 1, 62, 127
1, 13776, Note_on_c, 1, 74, 127
1, 13800, Note_on_c, 1, 45, 127
1, 13800, Note_on_c, 1, 33, 127
1, 13818, Note_off_c, 1, 65, 0
1, 13818, Note_off_c, 1, 62, 0
1, 13818, Note_off_c, 1, 74, 0
1, 13821, Note_off_c, 1, 45, 0
1, 13821, Note_off_c, 1, 33, 0
1, 13824, Note_on_c, 1, 67, 127
1, 13872, Note_on_c, 1, 79, 127
1, 13914, Note_off_c, 1, 70, 0
1, 13914, Note_off_c, 1, 79, 0
1, 13920, Note_on_c, 1, 57, 127
1, 13944, Note_on_c, 1, 52, 127
1, 13944, Note_on_c, 1, 40, 127
1, 13962, Note_off_c, 1, 57, 0
1, 13965, Note_off_c, 1, 52, 0
1, 13965, Note_off_c, 1, 40, 0
1, 13968, Note_on_c, 1, 64, 127
1, 13968, Note_on_c, 1, 60, 127
1, 13992, Note_on_c, 1, 43, 127
1, 13992, Note_on_c, 1, 31, 127
1, 14004, Note_off_c, 1, 67, 0
1, 14010, Note_off_c, 1, 64, 0
1, 14010, Note_off_c, 1, 60, 0
1, 14013, Note_off_c, 1, 43, 0
1, 14013, Note_off_c, 1, 31, 0
1, 14112, Note_on_c, 1, 55, 127
1, 14154, Note_off_c, 1, 55, 0
1, 14160, Note_on_c, 1, 67, 127
1, 14160, Note_on_c, 1, 60, 127
1, 14160, Note_on_c, 1, 43, 127
1, 14160, Note_on_c, 1, 70, 127
1, 14160, Note_on_c, 1, 64, 127
1, 14160, Note_on_c, 1, 31, 127
1, 14184, Note_on_c, 1, 69, 127
1, 14184, Note_on_c, 1, 65, 127
1, 14202, Note_off_c, 1, 67, 0
1, 14202, Note_off_c, 1, 60, 0
1, 14202, Note_off_c, 1, 43, 0
1, 14202, Note_off_c, 1, 70, 0
1, 14202, Note_off_c, 1, 64, 0
1, 14202, Note_off_c, 1, 31, 0
1, 14205, Note_off_c, 1, 69, 0
1, 14205, Note_off_c, 1, 65, 0
1, 14208, Note_on_c, 1, 70, 127
1, 14208, Note_on_c, 1, 67, 127
1, 14208, Note_on_c, 1, 79, 127
1, 14208, Note_on_c, 1, 76, 127
1, 14208, Note_on_c, 1, 72, 127
1, 14208, Note_on_c, 1, 40, 127
1, 14208, Note_on_c, 1, 28, 127
1, 14208, Note_on_c, 1, 64, 127
1, 14229, Note_off_c, 1, 70, 0
1, 14229, Note_off_c, 1, 67, 0
1, 14232, Note_on_c, 1, 69, 127
1, 14250, Note_off_c, 1, 40, 0
1, 14250, Note_off_c, 1, 28, 0
1, 14250, Note_off_c, 1, 64, 0
1, 14253, Note_off_c, 1, 69, 0
1, 14256, Note_on_c, 1, 36, 127
1, 14256, Note_on_c, 1, 24, 127
1, 14256, Note_on_c, 1, 60, 127
1, 14298, Note_off_c, 1, 36, 0
1, 14298, Note_off_c, 1, 24, 0
1, 14298, Note_off_c, 1, 60, 0
1, 14304, Note_on_c, 1, 65, 127
1, 14304, Note_on_c, 1, 41, 127
1, 14304, Note_on_c, 1, 29, 127
1, 14325, Note_off_c, 1, 41, 0
1, 14325, Note_off_c, 1, 29, 0
1, 14328, Note_on_c, 1, 48, 127
1, 14346, Note_off_c, 1, 79, 0
1, 14346, Note_off_c, 1, 76, 0
1, 14349, Note_off_c, 1, 48, 0
1, 14352, Note_on_c, 1, 53, 127
1, 14373, Note_off_c, 1, 53, 0
1, 14376, Note_on_c, 1, 52, 127
1, 14397, Note_off_c, 1, 52, 0
1, 14448, Note_on_c, 1, 77, 127
1, 14490, Note_off_c, 1, 72, 0
1, 14490, Note_off_c, 1, 77, 0
1, 14496, Note_on_c, 1, 81, 127
1, 14496, Note_on_c, 1, 74, 127
1, 14496, Note_on_c, 1, 50, 127
1, 14496, Note_on_c, 1, 38, 127
1, 14538, Note_off_c, 1, 50, 0
1, 14538, Note_off_c, 1, 38, 0
1, 14544, Note_on_c, 1, 45, 127
1, 14544, Note_on_c, 1, 33, 127
1, 14568, Note_on_c, 1, 71, 127
1, 14586, Note_off_c, 1, 45, 0
1, 14586, Note_off_c, 1, 33, 0
1, 14589, Note_off_c, 1, 71, 0
1, 14640, Note_on_c, 1, 26, 127
1, 14676, Note_off_c, 1, 65, 0
1, 14682, Note_off_c, 1, 26, 0
1, 14688, Note_on_c, 1, 43, 127
1, 14688, Note_on_c, 1, 31, 127
1, 14709, Note_off_c, 1, 43, 0
1, 14709, Note_off_c, 1, 31, 0
1, 14730, Note_off_c, 1, 81, 0
1, 14736, Note_on_c, 1, 62, 127
1, 14736, Note_on_c, 1, 55, 127
1, 14757, Note_off_c, 1, 55, 0
1, 14778, Note_off_c, 1, 62, 0
1, 14874, Note_off_c, 1, 74, 0
1, 14880, Note_on_c, 1, 83, 127
1, 14928, Note_on_c, 1, 47, 127
1, 14928, Note_on_c, 1, 35, 127
1, 14970, Note_off_c, 1, 47, 0
1, 14970, Note_off_c, 1, 35, 0
1, 15114, Note_off_c, 1, 83, 0
1, 15120, Note_on_c, 1, 57, 127
1, 15141, Note_off_c, 1, 57, 0
1, 15264, Note_on_c, 1, 84, 127
1, 15264, Note_on_c, 1, 75, 127
1, 15264, Note_on_c, 1, 54, 127
1, 15264, Note_on_c, 1, 42, 127
1, 15306, Note_off_c, 1, 54, 0
1, 15306, Note_off_c, 1, 42, 0
1, 15312, Note_on_c, 1, 63, 127
1, 15312, Note_on_c, 1, 66, 127
1, 15312, Note_on_c, 1, 51, 127
1, 15354, Note_off_c, 1, 63, 0
1, 15354, Note_off_c, 1, 66, 0
1, 15354, Note_off_c, 1, 51, 0
1, 15381, Note_off_c, 1, 84, 0
1, 15381, Note_off_c, 1, 75, 0
1, 15648, Note_on_c, 1, 78, 127
1, 15732, Note_off_c, 1, 78, 0
1, 15744, Note_on_c, 1, 72, 127
1, 15744, Note_on_c, 1, 69, 127
1, 15744, Note_on_c, 1, 42, 127
1, 15744, Note_on_c, 1, 74, 127
1, 15744, Note_on_c, 1, 66, 127
1, 15744, Note_on_c, 1, 30, 127
1, 15744, Note_on_c, 1, 62, 127
1, 15765, Note_off_c, 1, 72, 0
1, 15768, Note_on_c, 1, 71, 127
1, 15768, Note_on_c, 1, 67, 127
1, 15786, Note_off_c, 1, 69, 0
1, 15786, Note_off_c, 1, 42, 0
1, 15786, Note_off_c, 1, 74, 0
1, 15786, Note_off_c, 1, 66, 0
1, 15786, Note_off_c, 1, 30, 0
1, 15786, Note_off_c, 1, 62, 0
1, 15789, Note_off_c, 1, 71, 0
1, 15789, Note_off_c, 1, 67, 0
1, 15792, Note_on_c, 1, 72, 127
1, 15792, Note_on_c, 1, 69, 127
1, 15792, Note_on_c, 1, 66, 127
1, 15792, Note_on_c, 1, 62, 127
1, 15792, Note_on_c, 1, 38, 127
1, 15792, Note_on_c, 1, 78, 127
1, 15792, Note_on_c, 1, 74, 127
1, 15792, Note_on_c, 1, 26, 127
1, 15813, Note_off_c, 1, 72, 0
1, 15816, Note_on_c, 1, 71, 127
1, 15834, Note_off_c, 1, 69, 0
1, 15834, Note_off_c, 1, 66, 0
1, 15834, Note_off_c, 1, 62, 0
1, 15834, Note_off_c, 1, 38, 0
1, 15834, Note_off_c, 1, 78, 0
1, 15834, Note_off_c, 1, 26, 0
1, 15837, Note_off_c, 1, 74, 0
1, 15837, Note_off_c, 1, 71, 0
1, 15840, Note_on_c, 1, 71, 127
1, 15840, Note_on_c, 1, 67, 127
1, 15840, Note_on_c, 1, 62, 127
1, 15840, Note_on_c, 1, 53, 127
1, 15840, Note_on_c, 1, 79, 127
1, 15840, Note_on_c, 1, 74, 127
1, 15840, Note_on_c, 1, 41, 127
1, 15840, Note_on_c, 1, 59, 127
1, 15864, Note_on_c, 1, 69, 127
1, 15864, Note_on_c, 1, 65, 127
1, 15882, Note_off_c, 1, 62, 0
1, 15885, Note_off_c, 1, 69, 0
1, 15885, Note_off_c, 1, 65, 0
1, 15924, Note_off_c, 1, 53, 0
1, 15924, Note_off_c, 1, 79, 0
1, 15924, Note_off_c, 1, 41, 0
1, 15924, Note_off_c, 1, 59, 0
1, 15930, Note_off_c, 1, 71, 0
1, 15930, Note_off_c, 1, 67, 0
1, 15930, Note_off_c, 1, 74, 0
1, 15936, Note_on_c, 1, 71, 127
1, 15936, Note_on_c, 1, 67, 127
1, 15936, Note_on_c, 1, 62, 127
1, 15960, Note_on_c, 1, 72, 127
1, 15960, Note_on_c, 1, 69, 127
1, 15978, Note_off_c, 1, 71, 0
1, 15978, Note_off_c, 1, 67, 0
1, 15978, Note_off_c, 1, 62, 0
1, 15981, Note_off_c, 1, 72, 0
1, 15981, Note_off_c, 1, 69, 0
1, 15984, Note_on_c, 1, 69, 127
1, 15984, Note_on_c, 1, 65, 127
1, 15984, Note_on_c, 1, 71, 127
1, 15984, Note_on_c, 1, 67, 127
1, 15984, Note_on_c, 1, 62, 127
1, 15984, Note_on_c, 1, 53, 127
1, 15984, Note_on_c, 1, 74, 127
1, 15984, Note_on_c, 1, 41, 127
1, 15984, Note_on_c, 1, 59, 127
1, 16005, Note_off_c, 1, 69, 0
1, 16005, Note_off_c, 1, 65, 0
1, 16026, Note_off_c, 1, 62, 0
1, 16026, Note_off_c, 1, 53, 0
1, 16026, Note_off_c, 1, 74, 0
1, 16026, Note_off_c, 1, 41, 0
1, 16026, Note_off_c, 1, 59, 0
1, 16029, Note_off_c, 1, 71, 0
1, 16029, Note_off_c, 1, 67, 0
1, 16032, Note_on_c, 1, 67, 127
1, 16032, Note_on_c, 1, 60, 127
1, 16032, Note_on_c, 1, 72, 127
1, 16032, Note_on_c, 1, 64, 127
1, 16032, Note_on_c, 1, 52, 127
1, 16032, Note_on_c, 1, 76, 127
1, 16032, Note_on_c, 1, 40, 127
1, 16053, Note_off_c, 1, 72, 0
1, 16053, Note_off_c, 1, 76, 0
1, 16056, Note_on_c, 1, 77, 127
1, 16074, Note_off_c, 1, 67, 0
1, 16074, Note_off_c, 1, 60, 0
1, 16074, Note_off_c, 1, 64, 0
1, 16074, Note_off_c, 1, 52, 0
1, 16074, Note_off_c, 1, 40, 0
1, 16077, Note_off_c, 1, 77, 0
1, 16080, Note_on_c, 1, 72, 127
1, 16080, Note_on_c, 1, 69, 127
1, 16080, Note_on_c, 1, 76, 127
1, 16080, Note_on_c, 1, 53, 127
1, 16080, Note_on_c, 1, 60, 127
1, 16080, Note_on_c, 1, 41, 127
1, 16101, Note_off_c, 1, 72, 0
1, 16101, Note_off_c, 1, 76, 0
1, 16104, Note_on_c, 1, 74, 127
1, 16104, Note_on_c, 1, 71, 127
1, 16122, Note_off_c, 1, 69, 0
1, 16122, Note_off_c, 1, 53, 0
1, 16122, Note_off_c, 1, 60, 0
1, 16122, Note_off_c, 1, 41, 0
1, 16125, Note_off_c, 1, 74, 0
1, 16125, Note_off_c, 1, 71, 0
1, 16128, Note_on_c, 1, 71, 127
1, 16128, Note_on_c, 1, 67, 127
1, 16128, Note_on_c, 1, 74, 127
1, 16128, Note_on_c, 1, 72, 127
1, 16128, Note_on_c, 1, 62, 127
1, 16128, Note_on_c, 1, 55, 127
1, 16128, Note_on_c, 1, 43, 127
1, 16138, Note_off_c, 1, 72, 0
1, 16170, Note_off_c, 1, 67, 0
1, 16170, Note_off_c, 1, 62, 0
1, 16170, Note_off_c, 1, 55, 0
1, 16170, Note_off_c, 1, 43, 0
1, 16176, Note_on_c, 1, 31, 127
1, 16191, Note_off_c, 1, 74, 0
1, 16200, Note_on_c, 1, 69, 127
1, 16218, Note_off_c, 1, 71, 0
1, 16218, Note_off_c, 1, 31, 0
1, 16221, Note_off_c, 1, 69, 0
1, 16224, Note_on_c, 1, 72, 127
1, 16224, Note_on_c, 1, 67, 127
1, 16224, Note_on_c, 1, 64, 127
1, 16224, Note_on_c, 1, 48, 127
1, 16224, Note_on_c, 1, 36, 127
1, 16272, Note_on_c, 1, 60, 127
1, 16272, Note_on_c, 1, 55, 127
1, 16272, Note_on_c, 1, 52, 127
1, 16296, Note_on_c, 1, 71, 127
1, 16296, Note_on_c, 1, 65, 127
1, 16296, Note_on_c, 1, 62, 127
1, 16308, Note_off_c, 1, 72, 0
1, 16308, Note_off_c, 1, 67, 0
1, 16308, Note_off_c, 1, 64, 0
1, 16308, Note_off_c, 1, 48, 0
1, 16308, Note_off_c, 1, 36, 0
1, 16314, Note_off_c, 1, 60, 0
1, 16314, Note_off_c, 1, 55, 0
1, 16314, Note_off_c, 1, 52, 0
1, 16317, Note_off_c, 1, 71, 0
1, 16317, Note_off_c, 1, 65, 0
1, 16317, Note_off_c, 1, 62, 0
1, 16320, Note_on_c, 1, 72, 127
1, 16320, Note_on_c, 1, 67, 127
1, 16320, Note_on_c, 1, 64, 127
1, 16320, Note_on_c, 1, 60, 127
1, 16320, Note_on_c, 1, 55, 127
1, 16341, Note_off_c, 1, 72, 0
1, 16341, Note_off_c, 1, 67, 0
1, 16344, Note_on_c, 1, 71, 127
1, 16344, Note_on_c, 1, 65, 127
1, 16344, Note_on_c, 1, 62, 127
1, 16362, Note_off_c, 1, 64, 0
1, 16362, Note_off_c, 1, 60, 0
1, 16362, Note_off_c, 1, 55, 0
1, 16365, Note_off_c, 1, 71, 0
1, 16365, Note_off_c, 1, 65, 0
1, 16365, Note_off_c, 1, 62, 0
1, 16368, Note_on_c, 1, 72, 127
1, 16368, Note_on_c, 1, 67, 127
1, 16368, Note_on_c, 1, 64, 127
1, 16368, Note_on_c, 1, 43, 127
1, 16368, Note_on_c, 1, 62, 127
1, 16368, Note_on_c, 1, 59, 127
1, 16368, Note_on_c, 1, 31, 127
1, 16368, Note_on_c, 1, 71, 127
1, 16389, Note_off_c, 1, 72, 0
1, 16389, Note_off_c, 1, 64, 0
1, 16392, Note_on_c, 1, 65, 127
1, 16410, Note_off_c, 1, 67, 0
1, 16410, Note_off_c, 1, 43, 0
1, 16410, Note_off_c, 1, 59, 0
1, 16410, Note_off_c, 1, 31, 0
1, 16413, Note_off_c, 1, 62, 0
1, 16413, Note_off_c, 1, 71, 0
1, 16413, Note_off_c, 1, 65, 0
1, 16416, Note_on_c, 1, 72, 127
1, 16416, Note_on_c, 1, 64, 127
1, 16416, Note_on_c, 1, 60, 127
1, 16416, Note_on_c, 1, 45, 127
1, 16416, Note_on_c, 1, 52, 127
1, 16416, Note_on_c, 1, 33, 127
1, 16440, Note_on_c, 1, 62, 127
1, 16458, Note_off_c, 1, 72, 0
1, 16458, Note_off_c, 1, 64, 0
1, 16458, Note_off_c, 1, 60, 0
1, 16458, Note_off_c, 1, 45, 0
1, 16458, Note_off_c, 1, 52, 0
1, 16458, Note_off_c, 1, 33, 0
1, 16461, Note_off_c, 1, 62, 0
1, 16464, Note_on_c, 1, 67, 127
1, 16464, Note_on_c, 1, 64, 127
1, 16464, Note_on_c, 1, 72, 127
1, 16464, Note_on_c, 1, 40, 127
1, 16464, Note_on_c, 1, 60, 127
1, 16464, Note_on_c, 1, 28, 127
1, 16485, Note_off_c, 1, 60, 0
1, 16488, Note_on_c, 1, 62, 127
1, 16488, Note_on_c, 1, 59, 127
1, 16506, Note_off_c, 1, 67, 0
1, 16506, Note_off_c, 1, 64, 0
1, 16506, Note_off_c, 1, 72, 0
1, 16506, Note_off_c, 1, 40, 0
1, 16506, Note_off_c, 1, 28, 0
1, 16509, Note_off_c, 1, 62, 0
1, 16509, Note_off_c, 1, 59, 0
1, 16512, Note_on_c, 1, 69, 127
1, 16512, Note_on_c, 1, 64, 127
1, 16512, Note_on_c, 1, 72, 127
1, 16512, Note_on_c, 1, 41, 127
1, 16512, Note_on_c, 1, 57, 127
1, 16512, Note_on_c, 1, 29, 127
1, 16512, Note_on_c, 1, 60, 127
1, 16533, Note_off_c, 1, 64, 0
1, 16536, Note_on_c, 1, 62, 127
1, 16554, Note_off_c, 1, 69, 0
1, 16554, Note_off_c, 1, 72, 0
1, 16554, Note_off_c, 1, 41, 0
1, 16554, Note_off_c, 1, 57, 0
1, 16554, Note_off_c, 1, 29, 0
1, 16554, Note_off_c, 1, 60, 0
1, 16557, Note_off_c, 1, 62, 0
1, 16560, Note_on_c, 1, 67, 127
1, 16560, Note_on_c, 1, 64, 127
1, 16560, Note_on_c, 1, 71, 127
1, 16560, Note_on_c, 1, 43, 127
1, 16560, Note_on_c, 1, 59, 127
1, 16560, Note_on_c, 1, 31, 127
1, 16560, Note_on_c, 1, 62, 127
1, 16581, Note_off_c, 1, 67, 0
1, 16581, Note_off_c, 1, 64, 0
1, 16584, Note_on_c, 1, 65, 127
1, 16602, Note_off_c, 1, 71, 0
1, 16602, Note_off_c, 1, 43, 0
1, 16602, Note_off_c, 1, 59, 0
1, 16602, Note_off_c, 1, 31, 0
1, 16605, Note_off_c, 1, 62, 0
1, 16605, Note_off_c, 1, 65, 0
1, 16608, Note_on_c, 1, 64, 127
1, 16608, Note_on_c, 1, 60, 127
1, 16608, Note_on_c, 1, 72, 127
1, 16608, Note_on_c, 1, 36, 127
1, 16608, Note_on_c, 1, 55, 127
1, 16608, Note_on_c, 1, 24, 127
1, 16632, Note_on_c, 1, 62, 127
1, 16650, Note_off_c, 1, 64, 0
1, 16650, Note_off_c, 1, 60, 0
1, 16650, Note_off_c, 1, 72, 0
1, 16650, Note_off_c, 1, 36, 0
1, 16650, Note_off_c, 1, 55, 0
1, 16650, Note_off_c, 1, 24, 0
1, 16653, Note_off_c, 1, 62, 0
1, 16656, Note_on_c, 1, 60, 127
1, 16656, Note_on_c, 1, 64, 127
1, 16656, Note_on_c, 1, 67, 127
1, 16656, Note_on_c, 1, 48, 127
1, 16656, Note_on_c, 1, 52, 127
1, 16656, Note_on_c, 1, 36, 127
1, 16677, Note_off_c, 1, 60, 0
1, 16677, Note_off_c, 1, 64, 0
1, 16677, Note_off_c, 1, 48, 0
1, 16677, Note_off_c, 1, 36, 0
1, 16680, Note_on_c, 1, 62, 127
1, 16680, Note_on_c, 1, 47, 127
1, 16680, Note_on_c, 1, 35, 127
1, 16698, Note_off_c, 1, 67, 0
1, 16698, Note_off_c, 1, 52, 0
1, 16701, Note_off_c, 1, 62, 0
1, 16701, Note_off_c, 1, 47, 0
1, 16701, Note_off_c, 1, 35, 0
1, 16704, Note_on_c, 1, 64, 127
1, 16704, Note_on_c, 1, 60, 127
1, 16704, Note_on_c, 1, 48, 127
1, 16704, Note_on_c, 1, 55, 127
1, 16704, Note_on_c, 1, 36, 127
1, 16725, Note_off_c, 1, 60, 0
1, 16725, Note_off_c, 1, 48, 0
1, 16725, Note_off_c, 1, 36, 0
1, 16728, Note_on_c, 1, 66, 127
1, 16728, Note_on_c, 1, 62, 127
1, 16728, Note_on_c, 1, 47, 127
1, 16728, Note_on_c, 1, 35, 127
1, 16746, Note_off_c, 1, 64, 0
1, 16746, Note_off_c, 1, 55, 0
1, 16749, Note_off_c, 1, 66, 0
1, 16749, Note_off_c, 1, 62, 0
1, 16749, Note_off_c, 1, 47, 0
1, 16749, Note_off_c, 1, 35, 0
1, 16752, Note_on_c, 1, 64, 127
1, 16752, Note_on_c, 1, 60, 127
1, 16752, Note_on_c, 1, 48, 127
1, 16752, Note_on_c, 1, 36, 127
1, 16773, Note_off_c, 1, 64, 0
1, 16773, Note_off_c, 1, 48, 0
1, 16773, Note_off_c, 1, 36, 0
1, 16776, Note_on_c, 1, 66, 127
1, 16776, Note_on_c, 1, 45, 127
1, 16776, Note_on_c, 1, 33, 127
1, 16797, Note_off_c, 1, 60, 0
1, 16797, Note_off_c, 1, 66, 0
1, 16797, Note_off_c, 1, 45, 0
1, 16797, Note_off_c, 1, 33, 0
1, 16800, Note_on_c, 1, 67, 127
1, 16800, Note_on_c, 1, 62, 127
1, 16800, Note_on_c, 1, 47, 127
1, 16800, Note_on_c, 1, 35, 127
1, 16824, Note_on_c, 1, 69, 127
1, 16842, Note_off_c, 1, 67, 0
1, 16842, Note_off_c, 1, 62, 0
1, 16842, Note_off_c, 1, 47, 0
1, 16842, Note_off_c, 1, 35, 0
1, 16845, Note_off_c, 1, 69, 0
1, 16848, Note_on_c, 1, 71, 127
1, 16848, Note_on_c, 1, 67, 127
1, 16848, Note_on_c, 1, 43, 127
1, 16848, Note_on_c, 1, 62, 127
1, 16848, Note_on_c, 1, 31, 127
1, 16890, Note_off_c, 1, 71, 0
1, 16890, Note_off_c, 1, 43, 0
1, 16890, Note_off_c, 1, 62, 0
1, 16890, Note_off_c, 1, 31, 0
1, 16893, Note_off_c, 1, 67, 0
1, 16896, Note_on_c, 1, 72, 127
1, 16896, Note_on_c, 1, 67, 127
1, 16896, Note_on_c, 1, 64, 127
1, 16896, Note_on_c, 1, 45, 127
1, 16896, Note_on_c, 1, 60, 127
1, 16896, Note_on_c, 1, 33, 127
1, 16917, Note_off_c, 1, 72, 0
1, 16920, Note_on_c, 1, 71, 127
1, 16938, Note_off_c, 1, 67, 0
1, 16938, Note_off_c, 1, 64, 0
1, 16938, Note_off_c, 1, 45, 0
1, 16938, Note_off_c, 1, 60, 0
1, 16938, Note_off_c, 1, 33, 0
1, 16941, Note_off_c, 1, 71, 0
1, 16944, Note_on_c, 1, 72, 127
1, 16944, Note_on_c, 1, 66, 127
1, 16944, Note_on_c, 1, 62, 127
1, 16944, Note_on_c, 1, 38, 127
1, 16944, Note_on_c, 1, 26, 127
1, 16944, Note_on_c, 1, 57, 127
1, 16965, Note_off_c, 1, 72, 0
1, 16968, Note_on_c, 1, 74, 127
1, 16986, Note_off_c, 1, 66, 0
1, 16986, Note_off_c, 1, 62, 0
1, 16986, Note_off_c, 1, 38, 0
1, 16986, Note_off_c, 1, 26, 0
1, 16986, Note_off_c, 1, 57, 0
1, 16989, Note_off_c, 1, 74, 0
1, 16992, Note_on_c, 1, 71, 127
1, 16992, Note_on_c, 1, 67, 127
1, 16992, Note_on_c, 1, 62, 127
1, 16992, Note_on_c, 1, 43, 127
1, 16992, Note_on_c, 1, 31, 127
1, 16992, Note_on_c, 1, 58, 127
1, 17034, Note_off_c, 1, 71, 0
1, 17034, Note_off_c, 1, 67, 0
1, 17034, Note_off_c, 1, 62, 0
1, 17034, Note_off_c, 1, 43, 0
1, 17034, Note_off_c, 1, 31, 0
1, 17034, Note_off_c, 1, 58, 0
1, 17040, Note_on_c, 1, 74, 127
1, 17040, Note_on_c, 1, 71, 127
1, 17040, Note_on_c, 1, 65, 127
1, 17040, Note_on_c, 1, 55, 127
1, 17040, Note_on_c, 1, 62, 127
1, 17040, Note_on_c, 1, 59, 127
1, 17040, Note_on_c, 1, 43, 127
1, 17040, Note_on_c, 1, 58, 127
1, 17061, Note_off_c, 1, 74, 0
1, 17061, Note_off_c, 1, 71, 0
1, 17061, Note_off_c, 1, 65, 0
1, 17064, Note_on_c, 1, 72, 127
1, 17064, Note_on_c, 1, 69, 127
1, 17064, Note_on_c, 1, 64, 127
1, 17082, Note_off_c, 1, 55, 0
1, 17082, Note_off_c, 1, 62, 0
1, 17082, Note_off_c, 1, 59, 0
1, 17082, Note_off_c, 1, 43, 0
1, 17082, Note_off_c, 1, 58, 0
1, 17085, Note_off_c, 1, 72, 0
1, 17085, Note_off_c, 1, 69, 0
1, 17085, Note_off_c, 1, 64, 0
1, 17088, Note_on_c, 1, 74, 127
1, 17088, Note_on_c, 1, 71, 127
1, 17088, Note_on_c, 1, 65, 127
1, 17088, Note_on_c, 1, 67, 127
1, 17088, Note_on_c, 1, 62, 127
1, 17088, Note_on_c, 1, 59, 127
1, 17109, Note_off_c, 1, 74, 0
1, 17109, Note_off_c, 1, 71, 0
1, 17109, Note_off_c, 1, 65, 0
1, 17112, Note_on_c, 1, 72, 127
1, 17112, Note_on_c, 1, 69, 127
1, 17112, Note_on_c, 1, 64, 127
1, 17130, Note_off_c, 1, 67, 0
1, 17130, Note_off_c, 1, 62, 0
1, 17130, Note_off_c, 1, 59, 0
1, 17133, Note_off_c, 1, 72, 0
1, 17133, Note_off_c, 1, 69, 0
1, 17133, Note_off_c, 1, 64, 0
1, 17136, Note_on_c, 1, 74, 127
1, 17136, Note_on_c, 1, 71, 127
1, 17136, Note_on_c, 1, 65, 127
1, 17136, Note_on_c, 1, 67, 127
1, 17136, Note_on_c, 1, 62, 127
1, 17157, Note_off_c, 1, 74, 0
1, 17157, Note_off_c, 1, 65, 0
1, 17160, Note_on_c, 1, 72, 127
1, 17160, Note_on_c, 1, 69, 127
1, 17160, Note_on_c, 1, 64, 127
1, 17178, Note_off_c, 1, 71, 0
1, 17178, Note_off_c, 1, 67, 0
1, 17178, Note_off_c, 1, 62, 0
1, 17181, Note_off_c, 1, 72, 0
1, 17181, Note_off_c, 1, 69, 0
1, 17181, Note_off_c, 1, 64, 0
1, 17184, Note_on_c, 1, 74, 127
1, 17184, Note_on_c, 1, 71, 127
1, 17184, Note_on_c, 1, 64, 127
1, 17184, Note_on_c, 1, 68, 127
1, 17226, Note_off_c, 1, 74, 0
1, 17226, Note_off_c, 1, 71, 0
1, 17226, Note_off_c, 1, 64, 0
1, 17226, Note_off_c, 1, 68, 0
1, 17232, Note_on_c, 1, 76, 127
1, 17232, Note_on_c, 1, 68, 127
1, 17232, Note_on_c, 1, 52, 127
1, 17232, Note_on_c, 1, 40, 127
1, 17232, Note_on_c, 1, 28, 127
1, 17232, Note_on_c, 1, 60, 127
1, 17253, Note_off_c, 1, 76, 0
1, 17256, Note_on_c, 1, 77, 127
1, 17256, Note_on_c, 1, 74, 127
1, 17274, Note_off_c, 1, 68, 0
1, 17274, Note_off_c, 1, 52, 0
1, 17274, Note_off_c, 1, 40, 0
1, 17274, Note_off_c, 1, 28, 0
1, 17274, Note_off_c, 1, 60, 0
1, 17277, Note_off_c, 1, 77, 0
1, 17277, Note_off_c, 1, 74, 0
1, 17280, Note_on_c, 1, 76, 127
1, 17280, Note_on_c, 1, 72, 127
1, 17280, Note_on_c, 1, 69, 127
1, 17280, Note_on_c, 1, 54, 127
1, 17280, Note_on_c, 1, 42, 127
1, 17280, Note_on_c, 1, 30, 127
1, 17280, Note_on_c, 1, 60, 127
1, 17301, Note_off_c, 1, 76, 0
1, 17304, Note_on_c, 1, 74, 127
1, 17322, Note_off_c, 1, 72, 0
1, 17322, Note_off_c, 1, 69, 0
1, 17322, Note_off_c, 1, 54, 0
1, 17322, Note_off_c, 1, 42, 0
1, 17322, Note_off_c, 1, 30, 0
1, 17322, Note_off_c, 1, 60, 0
1, 17325, Note_off_c, 1, 74, 0
1, 17328, Note_on_c, 1, 72, 127
1, 17328, Note_on_c, 1, 71, 127
1, 17328, Note_on_c, 1, 56, 127
1, 17328, Note_on_c, 1, 44, 127
1, 17328, Note_on_c, 1, 32, 127
1, 17328, Note_on_c, 1, 59, 127
1, 17349, Note_off_c, 1, 72, 0
1, 17370, Note_off_c, 1, 56, 0
1, 17370, Note_off_c, 1, 44, 0
1, 17370, Note_off_c, 1, 32, 0
1, 17370, Note_off_c, 1, 59, 0
1, 17373, Note_off_c, 1, 71, 0
1, 17376, Note_on_c, 1, 72, 127
1, 17376, Note_on_c, 1, 69, 127
1, 17376, Note_on_c, 1, 64, 127
1, 17376, Note_on_c, 1, 57, 127
1, 17376, Note_on_c, 1, 45, 127
1, 17376, Note_on_c, 1, 33, 127
1, 17376, Note_on_c, 1, 61, 127
1, 17418, Note_off_c, 1, 72, 0
1, 17418, Note_off_c, 1, 69, 0
1, 17418, Note_off_c, 1, 64, 0
1, 17418, Note_off_c, 1, 57, 0
1, 17418, Note_off_c, 1, 45, 0
1, 17418, Note_off_c, 1, 33, 0
1, 17418, Note_off_c, 1, 61, 0
1, 17424, Note_on_c, 1, 76, 127
1, 17424, Note_on_c, 1, 73, 127
1, 17424, Note_on_c, 1, 67, 127
1, 17424, Note_on_c, 1, 45, 127
1, 17424, Note_on_c, 1, 64, 127
1, 17424, Note_on_c, 1, 61, 127
1, 17424, Note_on_c, 1, 57, 127
1, 17445, Note_off_c, 1, 76, 0
1, 17445, Note_off_c, 1, 73, 0
1, 17445, Note_off_c, 1, 67, 0
1, 17448, Note_on_c, 1, 74, 127
1, 17448, Note_on_c, 1, 71, 127
1, 17448, Note_on_c, 1, 65, 127
1, 17466, Note_off_c, 1, 45, 0
1, 17466, Note_off_c, 1, 64, 0
1, 17466, Note_off_c, 1, 61, 0
1, 17466, Note_off_c, 1, 57, 0
1, 17469, Note_off_c, 1, 74, 0
1, 17469, Note_off_c, 1, 71, 0
1, 17469, Note_off_c, 1, 65, 0
1, 17472, Note_on_c, 1, 76, 127
1, 17472, Note_on_c, 1, 73, 127
1, 17472, Note_on_c, 1, 67, 127
1, 17472, Note_on_c, 1, 69, 127
1, 17472, Note_on_c, 1, 64, 127
1, 17472, Note_on_c, 1, 61, 127
1, 17493, Note_off_c, 1, 76, 0
1, 17493, Note_off_c, 1, 73, 0
1, 17493, Note_off_c, 1, 67, 0
1, 17496, Note_on_c, 1, 74, 127
1, 17496, Note_on_c, 1, 71, 127
1, 17496, Note_on_c, 1, 65, 127
1, 17514, Note_off_c, 1, 69, 0
1, 17514, Note_off_c, 1, 64, 0
1, 17514, Note_off_c, 1, 61, 0
1, 17517, Note_off_c, 1, 74, 0
1, 17517, Note_off_c, 1, 71, 0
1, 17517, Note_off_c, 1, 65, 0
1, 17520, Note_on_c, 1, 76, 127
1, 17520, Note_on_c, 1, 73, 127
1, 17520, Note_on_c, 1, 67, 127
1, 17520, Note_on_c, 1, 69, 127
1, 17520, Note_on_c, 1, 64, 127
1, 17541, Note_off_c, 1, 76, 0
1, 17541, Note_off_c, 1, 67, 0
1, 17544, Note_on_c, 1, 74, 127
1, 17544, Note_on_c, 1, 71, 127
1, 17544, Note_on_c, 1, 65, 127
1, 17562, Note_off_c, 1, 73, 0
1, 17562, Note_off_c, 1, 69, 0
1, 17562, Note_off_c, 1, 64, 0
1, 17565, Note_off_c, 1, 74, 0
1, 17565, Note_off_c, 1, 71, 0
1, 17565, Note_off_c, 1, 65, 0
1, 17568, Note_on_c, 1, 76, 127
1, 17568, Note_on_c, 1, 73, 127
1, 17568, Note_on_c, 1, 67, 127
1, 17610, Note_off_c, 1, 76, 0
1, 17610, Note_off_c, 1, 73, 0
1, 17610, Note_off_c, 1, 67, 0
1, 17616, Note_on_c, 1, 77, 127
1, 17616, Note_on_c, 1, 73, 127
1, 17616, Note_on_c, 1, 69, 127
1, 17616, Note_on_c, 1, 45, 127
1, 17616, Note_on_c, 1, 33, 127
1, 17616, Note_on_c, 1, 61, 127
1, 17616, Note_on_c, 1, 64, 127
1, 17637, Note_off_c, 1, 77, 0
1, 17637, Note_off_c, 1, 69, 0
1, 17640, Note_on_c, 1, 79, 127
1, 17640, Note_on_c, 1, 70, 127
1, 17658, Note_off_c, 1, 73, 0
1, 17658, Note_off_c, 1, 45, 0
1, 17658, Note_off_c, 1, 33, 0
1, 17658, Note_off_c, 1, 61, 0
1, 17658, Note_off_c, 1, 64, 0
1, 17661, Note_off_c, 1, 79, 0
1, 17661, Note_off_c, 1, 70, 0
1, 17664, Note_on_c, 1, 77, 127
1, 17664, Note_on_c, 1, 74, 127
1, 17664, Note_on_c, 1, 69, 127
1, 17664, Note_on_c, 1, 50, 127
1, 17664, Note_on_c, 1, 38, 127
1, 17664, Note_on_c, 1, 57, 127
1, 17664, Note_on_c, 1, 65, 127
1, 17685, Note_off_c, 1, 77, 0
1, 17685, Note_off_c, 1, 69, 0
1, 17688, Note_on_c, 1, 76, 127
1, 17688, Note_on_c, 1, 67, 127
1, 17706, Note_off_c, 1, 74, 0
1, 17706, Note_off_c, 1, 50, 0
1, 17706, Note_off_c, 1, 38, 0
1, 17706, Note_off_c, 1, 57, 0
1, 17706, Note_off_c, 1, 65, 0
1, 17709, Note_off_c, 1, 76, 0
1, 17709, Note_off_c, 1, 67, 0
1, 17712, Note_on_c, 1, 74, 127
1, 17712, Note_on_c, 1, 67, 127
1, 17712, Note_on_c, 1, 65, 127
1, 17712, Note_on_c, 1, 52, 127
1, 17712, Note_on_c, 1, 40, 127
1, 17712, Note_on_c, 1, 64, 127
1, 17733, Note_off_c, 1, 74, 0
1, 17733, Note_off_c, 1, 65, 0
1, 17736, Note_on_c, 1, 73, 127
1, 17754, Note_off_c, 1, 67, 0
1, 17754, Note_off_c, 1, 52, 0
1, 17754, Note_off_c, 1, 40, 0
1, 17757, Note_off_c, 1, 64, 0
1, 17757, Note_off_c, 1, 73, 0
1, 17760, Note_on_c, 1, 74, 127
1, 17760, Note_on_c, 1, 69, 127
1, 17760, Note_on_c, 1, 62, 127
1, 17760, Note_on_c, 1, 53, 127
1, 17760, Note_on_c, 1, 41, 127
1, 17802, Note_off_c, 1, 74, 0
1, 17802, Note_off_c, 1, 53, 0
1, 17802, Note_off_c, 1, 41, 0
1, 17808, Note_on_c, 1, 76, 127
1, 17808, Note_on_c, 1, 52, 127
1, 17808, Note_on_c, 1, 40, 127
1, 17829, Note_off_c, 1, 76, 0
1, 17829, Note_off_c, 1, 52, 0
1, 17829, Note_off_c, 1, 40, 0
1, 17832, Note_on_c, 1, 77, 127
1, 17832, Note_on_c, 1, 50, 127
1, 17832, Note_on_c, 1, 38, 127
1, 17844, Note_off_c, 1, 69, 0
1, 17844, Note_off_c, 1, 62, 0
1, 17853, Note_off_c, 1, 77, 0
1, 17853, Note_off_c, 1, 50, 0
1, 17853, Note_off_c, 1, 38, 0
1, 17856, Note_on_c, 1, 76, 127
1, 17856, Note_on_c, 1, 48, 127
1, 17856, Note_on_c, 1, 36, 127
1, 17877, Note_off_c, 1, 76, 0
1, 17877, Note_off_c, 1, 48, 0
1, 17877, Note_off_c, 1, 36, 0
1, 17880, Note_on_c, 1, 74, 127
1, 17880, Note_on_c, 1, 47, 127
1, 17880, Note_on_c, 1, 35, 127
1, 17901, Note_off_c, 1, 74, 0
1, 17901, Note_off_c, 1, 47, 0
1, 17901, Note_off_c, 1, 35, 0
1, 17904, Note_on_c, 1, 72, 127
1, 17904, Note_on_c, 1, 64, 127
1, 17904, Note_on_c, 1, 45, 127
1, 17904, Note_on_c, 1, 33, 127
1, 17904, Note_on_c, 1, 60, 127
1, 17904, Note_on_c, 1, 69, 127
1, 17925, Note_off_c, 1, 72, 0
1, 17925, Note_off_c, 1, 45, 0
1, 17925, Note_off_c, 1, 33, 0
1, 17928, Note_on_c, 1, 71, 127
1, 17928, Note_on_c, 1, 44, 127
1, 17928, Note_on_c, 1, 32, 127
1, 17946, Note_off_c, 1, 64, 0
1, 17946, Note_off_c, 1, 60, 0
1, 17946, Note_off_c, 1, 69, 0
1, 17949, Note_off_c, 1, 71, 0
1, 17949, Note_off_c, 1, 44, 0
1, 17949, Note_off_c, 1, 32, 0
1, 17952, Note_on_c, 1, 72, 127
1, 17952, Note_on_c, 1, 69, 127
1, 17952, Note_on_c, 1, 64, 127
1, 17952, Note_on_c, 1, 45, 127
1, 17952, Note_on_c, 1, 33, 127
1, 17952, Note_on_c, 1, 60, 127
1, 17994, Note_off_c, 1, 64, 0
1, 17994, Note_off_c, 1, 45, 0
1, 17994, Note_off_c, 1, 33, 0
1, 17994, Note_off_c, 1, 60, 0
1, 18000, Note_on_c, 1, 65, 127
1, 18000, Note_on_c, 1, 50, 127
1, 18000, Note_on_c, 1, 38, 127
1, 18000, Note_on_c, 1, 59, 127
1, 18015, Note_off_c, 1, 72, 0
1, 18015, Note_off_c, 1, 69, 0
1, 18024, Note_on_c, 1, 74, 127
1, 18024, Note_on_c, 1, 71, 127
1, 18024, Note_on_c, 1, 70, 127
1, 18042, Note_off_c, 1, 65, 0
1, 18042, Note_off_c, 1, 50, 0
1, 18042, Note_off_c, 1, 38, 0
1, 18042, Note_off_c, 1, 59, 0
1, 18045, Note_off_c, 1, 74, 0
1, 18045, Note_off_c, 1, 71, 0
1, 18045, Note_off_c, 1, 70, 0
1, 18048, Note_on_c, 1, 71, 127
1, 18048, Note_on_c, 1, 68, 127
1, 18048, Note_on_c, 1, 64, 127
1, 18048, Note_on_c, 1, 52, 127
1, 18048, Note_on_c, 1, 59, 127
1, 18048, Note_on_c, 1, 40, 127
1, 18090, Note_off_c, 1, 64, 0
1, 18090, Note_off_c, 1, 52, 0
1, 18090, Note_off_c, 1, 59, 0
1, 18090, Note_off_c, 1, 40, 0
1, 18096, Note_on_c, 1, 28, 127
1, 18111, Note_off_c, 1, 71, 0
1, 18120, Note_on_c, 1, 69, 127
1, 18138, Note_off_c, 1, 68, 0
1, 18138, Note_off_c, 1, 28, 0
1, 18141, Note_off_c, 1, 69, 0
1, 18144, Note_on_c, 1, 69, 127
1, 18144, Note_on_c, 1, 64, 127
1, 18144, Note_on_c, 1, 60, 127
1, 18144, Note_on_c, 1, 45, 127
1, 18144, Note_on_c, 1, 33, 127
1, 18186, Note_off_c, 1, 45, 0
1, 18186, Note_off_c, 1, 33, 0
1, 18192, Note_on_c, 1, 72, 127
1, 18192, Note_on_c, 1, 57, 127
1, 18213, Note_off_c, 1, 72, 0
1, 18216, Note_on_c, 1, 70, 127
1, 18216, Note_on_c, 1, 67, 127
1, 18228, Note_off_c, 1, 69, 0
1, 18228, Note_off_c, 1, 64, 0
1, 18228, Note_off_c, 1, 60, 0
1, 18234, Note_off_c, 1, 57, 0
1, 18237, Note_off_c, 1, 70, 0
1, 18237, Note_off_c, 1, 67, 0
1, 18240, Note_on_c, 1, 72, 127
1, 18240, Note_on_c, 1, 69, 127
1, 18240, Note_on_c, 1, 58, 127
1, 18240, Note_on_c, 1, 46, 127
1, 18261, Note_off_c, 1, 72, 0
1, 18261, Note_off_c, 1, 69, 0
1, 18264, Note_on_c, 1, 74, 127
1, 18264, Note_on_c, 1, 70, 127
1, 18282, Note_off_c, 1, 58, 0
1, 18282, Note_off_c, 1, 46, 0
1, 18285, Note_off_c, 1, 74, 0
1, 18285, Note_off_c, 1, 70, 0
1, 18288, Note_on_c, 1, 72, 127
1, 18288, Note_on_c, 1, 69, 127
1, 18288, Note_on_c, 1, 60, 127
1, 18288, Note_on_c, 1, 48, 127
1, 18309, Note_off_c, 1, 72, 0
1, 18309, Note_off_c, 1, 69, 0
1, 18312, Note_on_c, 1, 70, 127
1, 18312, Note_on_c, 1, 67, 127
1, 18330, Note_off_c, 1, 60, 0
1, 18330, Note_off_c, 1, 48, 0
1, 18333, Note_off_c, 1, 70, 0
1, 18333, Note_off_c, 1, 67, 0
1, 18336, Note_on_c, 1, 69, 127
1, 18336, Note_on_c, 1, 65, 127
1, 18336, Note_on_c, 1, 62, 127
1, 18336, Note_on_c, 1, 50, 127
1, 18378, Note_off_c, 1, 69, 0
1, 18378, Note_off_c, 1, 65, 0
1, 18378, Note_off_c, 1, 62, 0
1, 18378, Note_off_c, 1, 50, 0
1, 18384, Note_on_c, 1, 70, 127
1, 18384, Note_on_c, 1, 67, 127
1, 18384, Note_on_c, 1, 55, 127
1, 18384, Note_on_c, 1, 43, 127
1, 18405, Note_off_c, 1, 70, 0
1, 18405, Note_off_c, 1, 67, 0
1, 18408, Note_on_c, 1, 69, 127
1, 18408, Note_on_c, 1, 65, 127
1, 18426, Note_off_c, 1, 55, 0
1, 18426, Note_off_c, 1, 43, 0
1, 18429, Note_off_c, 1, 69, 0
1, 18429, Note_off_c, 1, 65, 0
1, 18432, Note_on_c, 1, 70, 127
1, 18432, Note_on_c, 1, 67, 127
1, 18432, Note_on_c, 1, 57, 127
1, 18432, Note_on_c, 1, 45, 127
1, 18453, Note_off_c, 1, 70, 0
1, 18453, Note_off_c, 1, 67, 0
1, 18456, Note_on_c, 1, 72, 127
1, 18456, Note_on_c, 1, 69, 127
1, 18474, Note_off_c, 1, 57, 0
1, 18474, Note_off_c, 1, 45, 0
1, 18477, Note_off_c, 1, 72, 0
1, 18477, Note_off_c, 1, 69, 0
1, 18480, Note_on_c, 1, 70, 127
1, 18480, Note_on_c, 1, 67, 127
1, 18480, Note_on_c, 1, 58, 127
1, 18480, Note_on_c, 1, 46, 127
1, 18501, Note_off_c, 1, 70, 0
1, 18501, Note_off_c, 1, 67, 0
1, 18504, Note_on_c, 1, 69, 127
1, 18504, Note_on_c, 1, 65, 127
1, 18522, Note_off_c, 1, 58, 0
1, 18522, Note_off_c, 1, 46, 0
1, 18525, Note_off_c, 1, 69, 0
1, 18525, Note_off_c, 1, 65, 0
1, 18528, Note_on_c, 1, 67, 127
1, 18528, Note_on_c, 1, 60, 127
1, 18528, Note_on_c, 1, 48, 127
1, 18570, Note_off_c, 1, 67, 0
1, 18570, Note_off_c, 1, 60, 0
1, 18570, Note_off_c, 1, 48, 0
1, 18576, Note_on_c, 1, 77, 127
1, 18576, Note_on_c, 1, 69, 127
1, 18576, Note_on_c, 1, 53, 127
1, 18576, Note_on_c, 1, 41, 127
1, 18597, Note_off_c, 1, 77, 0
1, 18597, Note_off_c, 1, 69, 0
1, 18600, Note_on_c, 1, 76, 127
1, 18600, Note_on_c, 1, 67, 127
1, 18618, Note_off_c, 1, 53, 0
1, 18618, Note_off_c, 1, 41, 0
1, 18621, Note_off_c, 1, 76, 0
1, 18621, Note_off_c, 1, 67, 0
1, 18624, Note_on_c, 1, 77, 127
1, 18624, Note_on_c, 1, 69, 127
1, 18624, Note_on_c, 1, 55, 127
1, 18624, Note_on_c, 1, 43, 127
1, 18645, Note_off_c, 1, 77, 0
1, 18645, Note_off_c, 1, 69, 0
1, 18648, Note_on_c, 1, 79, 127
1, 18648, Note_on_c, 1, 70, 127
1, 18666, Note_off_c, 1, 55, 0
1, 18666, Note_off_c, 1, 43, 0
1, 18669, Note_off_c, 1, 79, 0
1, 18669, Note_off_c, 1, 70, 0
1, 18672, Note_on_c, 1, 77, 127
1, 18672, Note_on_c, 1, 69, 127
1, 18672, Note_on_c, 1, 57, 127
1, 18672, Note_on_c, 1, 45, 127
1, 18693, Note_off_c, 1, 77, 0
1, 18693, Note_off_c, 1, 69, 0
1, 18696, Note_on_c, 1, 76, 127
1, 18696, Note_on_c, 1, 67, 127
1, 18714, Note_off_c, 1, 57, 0
1, 18714, Note_off_c, 1, 45, 0
1, 18717, Note_off_c, 1, 76, 0
1, 18717, Note_off_c, 1, 67, 0
1, 18720, Note_on_c, 1, 74, 127
1, 18720, Note_on_c, 1, 65, 127
1, 18720, Note_on_c, 1, 58, 127
1, 18720, Note_on_c, 1, 46, 127
1, 18762, Note_off_c, 1, 74, 0
1, 18762, Note_off_c, 1, 65, 0
1, 18762, Note_off_c, 1, 58, 0
1, 18762, Note_off_c, 1, 46, 0
1, 18768, Note_on_c, 1, 76, 127
1, 18768, Note_on_c, 1, 67, 127
1, 18768, Note_on_c, 1, 52, 127
1, 18768, Note_on_c, 1, 40, 127
1, 18789, Note_off_c, 1, 76, 0
1, 18789, Note_off_c, 1, 67, 0
1, 18792, Note_on_c, 1, 74, 127
1, 18792, Note_on_c, 1, 65, 127
1, 18810, Note_off_c, 1, 52, 0
1, 18810, Note_off_c, 1, 40, 0
1, 18813, Note_off_c, 1, 74, 0
1, 18813, Note_off_c, 1, 65, 0
1, 18816, Note_on_c, 1, 76, 127
1, 18816, Note_on_c, 1, 67, 127
1, 18816, Note_on_c, 1, 53, 127
1, 18816, Note_on_c, 1, 41, 127
1, 18837, Note_off_c, 1, 76, 0
1, 18837, Note_off_c, 1, 67, 0
1, 18840, Note_on_c, 1, 77, 127
1, 18840, Note_on_c, 1, 69, 127
1, 18858, Note_off_c, 1, 53, 0
1, 18858, Note_off_c, 1, 41, 0
1, 18861, Note_off_c, 1, 77, 0
1, 18861, Note_off_c, 1, 69, 0
1, 18864, Note_on_c, 1, 76, 127
1, 18864, Note_on_c, 1, 67, 127
1, 18864, Note_on_c, 1, 55, 127
1, 18864, Note_on_c, 1, 43, 127
1, 18885, Note_off_c, 1, 76, 0
1, 18885, Note_off_c, 1, 67, 0
1, 18888, Note_on_c, 1, 74, 127
1, 18888, Note_on_c, 1, 65, 127
1, 18906, Note_off_c, 1, 55, 0
1, 18906, Note_off_c, 1, 43, 0
1, 18909, Note_off_c, 1, 74, 0
1, 18909, Note_off_c, 1, 65, 0
1, 18912, Note_on_c, 1, 73, 127
1, 18912, Note_on_c, 1, 64, 127
1, 18912, Note_on_c, 1, 57, 127
1, 18912, Note_on_c, 1, 45, 127
1, 18954, Note_off_c, 1, 73, 0
1, 18954, Note_off_c, 1, 64, 0
1, 18954, Note_off_c, 1, 57, 0
1, 18954, Note_off_c, 1, 45, 0
1, 18960, Note_on_c, 1, 55, 127
1, 18960, Note_on_c, 1, 81, 127
1, 18960, Note_on_c, 1, 73, 127
1, 18960, Note_on_c, 1, 43, 127
1, 18981, Note_off_c, 1, 81, 0
1, 18981, Note_off_c, 1, 73, 0
1, 18984, Note_on_c, 1, 79, 127
1, 18984, Note_on_c, 1, 71, 127
1, 19002, Note_off_c, 1, 55, 0
1, 19002, Note_off_c, 1, 43, 0
1, 19005, Note_off_c, 1, 79, 0
1, 19005, Note_off_c, 1, 71, 0
1, 19008, Note_on_c, 1, 53, 127
1, 19008, Note_on_c, 1, 81, 127
1, 19008, Note_on_c, 1, 73, 127
1, 19008, Note_on_c, 1, 41, 127
1, 19029, Note_off_c, 1, 81, 0
1, 19029, Note_off_c, 1, 73, 0
1, 19032, Note_on_c, 1, 82, 127
1, 19032, Note_on_c, 1, 74, 127
1, 19050, Note_off_c, 1, 53, 0
1, 19050, Note_off_c, 1, 41, 0
1, 19053, Note_off_c, 1, 82, 0
1, 19053, Note_off_c, 1, 74, 0
1, 19056, Note_on_c, 1, 52, 127
1, 19056, Note_on_c, 1, 81, 127
1, 19056, Note_on_c, 1, 76, 127
1, 19056, Note_on_c, 1, 40, 127
1, 19077, Note_off_c, 1, 81, 0
1, 19077, Note_off_c, 1, 76, 0
1, 19080, Note_on_c, 1, 79, 127
1, 19080, Note_on_c, 1, 73, 127
1, 19098, Note_off_c, 1, 52, 0
1, 19098, Note_off_c, 1, 40, 0
1, 19101, Note_off_c, 1, 79, 0
1, 19101, Note_off_c, 1, 73, 0
1, 19104, Note_on_c, 1, 50, 127
1, 19104, Note_on_c, 1, 78, 127
1, 19104, Note_on_c, 1, 74, 127
1, 19104, Note_on_c, 1, 38, 127
1, 19125, Note_off_c, 1, 78, 0
1, 19125, Note_off_c, 1, 74, 0
1, 19128, Note_on_c, 1, 79, 127
1, 19128, Note_on_c, 1, 76, 127
1, 19146, Note_off_c, 1, 50, 0
1, 19146, Note_off_c, 1, 38, 0
1, 19149, Note_off_c, 1, 79, 0
1, 19149, Note_off_c, 1, 76, 0
1, 19152, Note_on_c, 1, 48, 127
1, 19152, Note_on_c, 1, 81, 127
1, 19152, Note_on_c, 1, 78, 127
1, 19152, Note_on_c, 1, 36, 127
1, 19173, Note_off_c, 1, 81, 0
1, 19173, Note_off_c, 1, 78, 0
1, 19176, Note_on_c, 1, 82, 127
1, 19176, Note_on_c, 1, 79, 127
1, 19194, Note_off_c, 1, 48, 0
1, 19194, Note_off_c, 1, 36, 0
1, 19197, Note_off_c, 1, 82, 0
1, 19197, Note_off_c, 1, 79, 0
1, 19200, Note_on_c, 1, 46, 127
1, 19200, Note_on_c, 1, 84, 127
1, 19200, Note_on_c, 1, 81, 127
1, 19200, Note_on_c, 1, 34, 127
1, 19221, Note_off_c, 1, 84, 0
1, 19221, Note_off_c, 1, 81, 0
1, 19224, Note_on_c, 1, 82, 127
1, 19224, Note_on_c, 1, 79, 127
1, 19242, Note_off_c, 1, 46, 0
1, 19242, Note_off_c, 1, 34, 0
1, 19245, Note_off_c, 1, 82, 0
1, 19245, Note_off_c, 1, 79, 0
1, 19248, Note_on_c, 1, 45, 127
1, 19248, Note_on_c, 1, 84, 127
1, 19248, Note_on_c, 1, 78, 127
1, 19248, Note_on_c, 1, 33, 127
1, 19269, Note_off_c, 1, 84, 0
1, 19269, Note_off_c, 1, 78, 0
1, 19272, Note_on_c, 1, 81, 127
1, 19290, Note_off_c, 1, 45, 0
1, 19290, Note_off_c, 1, 33, 0
1, 19293, Note_off_c, 1, 81, 0
1, 19296, Note_on_c, 1, 43, 127
1, 19296, Note_on_c, 1, 82, 127
1, 19296, Note_on_c, 1, 74, 127
1, 19296, Note_on_c, 1, 31, 127
1, 19317, Note_off_c, 1, 82, 0
1, 19317, Note_off_c, 1, 74, 0
1, 19320, Note_on_c, 1, 81, 127
1, 19320, Note_on_c, 1, 72, 127
1, 19338, Note_off_c, 1, 43, 0
1, 19338, Note_off_c, 1, 31, 0
1, 19341, Note_off_c, 1, 81, 0
1, 19341, Note_off_c, 1, 72, 0
1, 19344, Note_on_c, 1, 46, 127
1, 19344, Note_on_c, 1, 82, 127
1, 19344, Note_on_c, 1, 74, 127
1, 19344, Note_on_c, 1, 34, 127
1, 19365, Note_off_c, 1, 82, 0
1, 19365, Note_off_c, 1, 74, 0
1, 19368, Note_on_c, 1, 84, 127
1, 19368, Note_on_c, 1, 75, 127
1, 19386, Note_off_c, 1, 46, 0
1, 19386, Note_off_c, 1, 34, 0
1, 19389, Note_off_c, 1, 84, 0
1, 19389, Note_off_c, 1, 75, 0
1, 19392, Note_on_c, 1, 48, 127
1, 19392, Note_on_c, 1, 82, 127
1, 19392, Note_on_c, 1, 74, 127
1, 19392, Note_on_c, 1, 36, 127
1, 19413, Note_off_c, 1, 82, 0
1, 19413, Note_off_c, 1, 74, 0
1, 19416, Note_on_c, 1, 81, 127
1, 19416, Note_on_c, 1, 72, 127
1, 19434, Note_off_c, 1, 48, 0
1, 19434, Note_off_c, 1, 36, 0
1, 19437, Note_off_c, 1, 81, 0
1, 19437, Note_off_c, 1, 72, 0
1, 19440, Note_on_c, 1, 50, 127
1, 19440, Note_on_c, 1, 79, 127
1, 19440, Note_on_c, 1, 70, 127
1, 19440, Note_on_c, 1, 38, 127
1, 19461, Note_off_c, 1, 79, 0
1, 19461, Note_off_c, 1, 70, 0
1, 19464, Note_on_c, 1, 78, 127
1, 19464, Note_on_c, 1, 69, 127
1, 19482, Note_off_c, 1, 50, 0
1, 19482, Note_off_c, 1, 38, 0
1, 19485, Note_off_c, 1, 78, 0
1, 19485, Note_off_c, 1, 69, 0
1, 19488, Note_on_c, 1, 51, 127
1, 19488, Note_on_c, 1, 79, 127
1, 19488, Note_on_c, 1, 67, 127
1, 19488, Note_on_c, 1, 39, 127
1, 19509, Note_off_c, 1, 67, 0
1, 19512, Note_on_c, 1, 75, 127
1, 19530, Note_off_c, 1, 51, 0
1, 19530, Note_off_c, 1, 39, 0
1, 19533, Note_off_c, 1, 75, 0
1, 19536, Note_on_c, 1, 48, 127
1, 19536, Note_on_c, 1, 74, 127
1, 19536, Note_on_c, 1, 36, 127
1, 19551, Note_off_c, 1, 79, 0
1, 19557, Note_off_c, 1, 74, 0
1, 19560, Note_on_c, 1, 81, 127
1, 19560, Note_on_c, 1, 72, 127
1, 19578, Note_off_c, 1, 48, 0
1, 19578, Note_off_c, 1, 36, 0
1, 19581, Note_off_c, 1, 81, 0
1, 19581, Note_off_c, 1, 72, 0
1, 19584, Note_on_c, 1, 50, 127
1, 19584, Note_on_c, 1, 78, 127
1, 19584, Note_on_c, 1, 72, 127
1, 19584, Note_on_c, 1, 38, 127
1, 19594, Note_off_c, 1, 72, 0
1, 19596, Note_on_c, 1, 70, 127
1, 19606, Note_off_c, 1, 70, 0
1, 19626, Note_off_c, 1, 50, 0
1, 19626, Note_off_c, 1, 38, 0
1, 19632, Note_on_c, 1, 69, 127
1, 19632, Note_on_c, 1, 26, 127
1, 19647, Note_off_c, 1, 78, 0
1, 19653, Note_off_c, 1, 69, 0
1, 19656, Note_on_c, 1, 79, 127
1, 19656, Note_on_c, 1, 67, 127
1, 19674, Note_off_c, 1, 26, 0
1, 19677, Note_off_c, 1, 79, 0
1, 19677, Note_off_c, 1, 67, 0
1, 19680, Note_on_c, 1, 43, 127
1, 19680, Note_on_c, 1, 79, 127
1, 19680, Note_on_c, 1, 67, 127
1, 19680, Note_on_c, 1, 31, 127
1, 19722, Note_off_c, 1, 79, 0
1, 19722, Note_off_c, 1, 67, 0
1, 19728, Note_on_c, 1, 74, 127
1, 19728, Note_on_c, 1, 70, 127
1, 19728, Note_on_c, 1, 62, 127
1, 19728, Note_on_c, 1, 58, 127
1, 19749, Note_off_c, 1, 74, 0
1, 19749, Note_off_c, 1, 70, 0
1, 19752, Note_on_c, 1, 78, 127
1, 19752, Note_on_c, 1, 72, 127
1, 19752, Note_on_c, 1, 69, 127
1, 19764, Note_off_c, 1, 43, 0
1, 19764, Note_off_c, 1, 31, 0
1, 19770, Note_off_c, 1, 62, 0
1, 19770, Note_off_c, 1, 58, 0
1, 19773, Note_off_c, 1, 78, 0
1, 19773, Note_off_c, 1, 72, 0
1, 19773, Note_off_c, 1, 69, 0
1, 19776, Note_on_c, 1, 79, 127
1, 19776, Note_on_c, 1, 74, 127
1, 19776, Note_on_c, 1, 70, 127
1, 19776, Note_on_c, 1, 67, 127
1, 19776, Note_on_c, 1, 62, 127
1, 19797, Note_off_c, 1, 79, 0
1, 19797, Note_off_c, 1, 74, 0
1, 19800, Note_on_c, 1, 78, 127
1, 19800, Note_on_c, 1, 72, 127
1, 19800, Note_on_c, 1, 69, 127
1, 19818, Note_off_c, 1, 70, 0
1, 19818, Note_off_c, 1, 67, 0
1, 19818, Note_off_c, 1, 62, 0
1, 19821, Note_off_c, 1, 78, 0
1, 19821, Note_off_c, 1, 72, 0
1, 19821, Note_off_c, 1, 69, 0
1, 19824, Note_on_c, 1, 79, 127
1, 19824, Note_on_c, 1, 74, 127
1, 19824, Note_on_c, 1, 70, 127
1, 19824, Note_on_c, 1, 50, 127
1, 19824, Note_on_c, 1, 69, 127
1, 19824, Note_on_c, 1, 66, 127
1, 19824, Note_on_c, 1, 38, 127
1, 19845, Note_off_c, 1, 79, 0
1, 19845, Note_off_c, 1, 70, 0
1, 19848, Note_on_c, 1, 78, 127
1, 19848, Note_on_c, 1, 72, 127
1, 19866, Note_off_c, 1, 74, 0
1, 19866, Note_off_c, 1, 50, 0
1, 19866, Note_off_c, 1, 66, 0
1, 19866, Note_off_c, 1, 38, 0
1, 19869, Note_off_c, 1, 69, 0
1, 19869, Note_off_c, 1, 78, 0
1, 19869, Note_off_c, 1, 72, 0
1, 19872, Note_on_c, 1, 79, 127
1, 19872, Note_on_c, 1, 70, 127
1, 19872, Note_on_c, 1, 67, 127
1, 19872, Note_on_c, 1, 51, 127
1, 19872, Note_on_c, 1, 39, 127
1, 19896, Note_on_c, 1, 69, 127
1, 19896, Note_on_c, 1, 66, 127
1, 19914, Note_off_c, 1, 79, 0
1, 19914, Note_off_c, 1, 70, 0
1, 19914, Note_off_c, 1, 67, 0
1, 19914, Note_off_c, 1, 51, 0
1, 19914, Note_off_c, 1, 39, 0
1, 19917, Note_off_c, 1, 69, 0
1, 19917, Note_off_c, 1, 66, 0
1, 19920, Note_on_c, 1, 74, 127
1, 19920, Note_on_c, 1, 70, 127
1, 19920, Note_on_c, 1, 67, 127
1, 19920, Note_on_c, 1, 46, 127
1, 19920, Note_on_c, 1, 34, 127
1, 19920, Note_on_c, 1, 62, 127
1, 19941, Note_off_c, 1, 70, 0
1, 19944, Note_on_c, 1, 69, 127
1, 19944, Note_on_c, 1, 66, 127
1, 19962, Note_off_c, 1, 74, 0
1, 19962, Note_off_c, 1, 67, 0
1, 19962, Note_off_c, 1, 46, 0
1, 19962, Note_off_c, 1, 34, 0
1, 19962, Note_off_c, 1, 62, 0
1, 19965, Note_off_c, 1, 69, 0
1, 19965, Note_off_c, 1, 66, 0
1, 19968, Note_on_c, 1, 75, 127
1, 19968, Note_on_c, 1, 70, 127
1, 19968, Note_on_c, 1, 67, 127
1, 19968, Note_on_c, 1, 48, 127
1, 19968, Note_on_c, 1, 36, 127
1, 19968, Note_on_c, 1, 63, 127
1, 19989, Note_off_c, 1, 70, 0
1, 19992, Note_on_c, 1, 69, 127
1, 19992, Note_on_c, 1, 66, 127
1, 20010, Note_off_c, 1, 75, 0
1, 20010, Note_off_c, 1, 67, 0
1, 20010, Note_off_c, 1, 48, 0
1, 20010, Note_off_c, 1, 36, 0
1, 20010, Note_off_c, 1, 63, 0
1, 20013, Note_off_c, 1, 69, 0
1, 20013, Note_off_c, 1, 66, 0
1, 20016, Note_on_c, 1, 74, 127
1, 20016, Note_on_c, 1, 70, 127
1, 20016, Note_on_c, 1, 67, 127
1, 20016, Note_on_c, 1, 50, 127
1, 20016, Note_on_c, 1, 62, 127
1, 20016, Note_on_c, 1, 38, 127
1, 20016, Note_on_c, 1, 58, 127
1, 20037, Note_off_c, 1, 74, 0
1, 20037, Note_off_c, 1, 70, 0
1, 20040, Note_on_c, 1, 72, 127
1, 20040, Note_on_c, 1, 69, 127
1, 20040, Note_on_c, 1, 66, 127
1, 20058, Note_off_c, 1, 67, 0
1, 20058, Note_off_c, 1, 50, 0
1, 20058, Note_off_c, 1, 62, 0
1, 20058, Note_off_c, 1, 38, 0
1, 20058, Note_off_c, 1, 58, 0
1, 20061, Note_off_c, 1, 72, 0
1, 20061, Note_off_c, 1, 69, 0
1, 20061, Note_off_c, 1, 66, 0
1, 20064, Note_on_c, 1, 70, 127
1, 20064, Note_on_c, 1, 67, 127
1, 20064, Note_on_c, 1, 43, 127
1, 20064, Note_on_c, 1, 62, 127
1, 20064, Note_on_c, 1, 31, 127
1, 20106, Note_off_c, 1, 70, 0
1, 20106, Note_off_c, 1, 67, 0
1, 20106, Note_off_c, 1, 43, 0
1, 20106, Note_off_c, 1, 62, 0
1, 20106, Note_off_c, 1, 31, 0
1, 20112, Note_on_c, 1, 70, 127
1, 20112, Note_on_c, 1, 67, 127
1, 20112, Note_on_c, 1, 55, 127
1, 20112, Note_on_c, 1, 43, 127
1, 20133, Note_off_c, 1, 70, 0
1, 20133, Note_off_c, 1, 67, 0
1, 20136, Note_on_c, 1, 69, 127
1, 20136, Note_on_c, 1, 65, 127
1, 20154, Note_off_c, 1, 55, 0
1, 20154, Note_off_c, 1, 43, 0
1, 20157, Note_off_c, 1, 69, 0
1, 20157, Note_off_c, 1, 65, 0
1, 20160, Note_on_c, 1, 70, 127
1, 20160, Note_on_c, 1, 67, 127
1, 20160, Note_on_c, 1, 57, 127
1, 20160, Note_on_c, 1, 45, 127
1, 20181, Note_off_c, 1, 70, 0
1, 20181, Note_off_c, 1, 67, 0
1, 20184, Note_on_c, 1, 72, 127
1, 20184, Note_on_c, 1, 69, 127
1, 20202, Note_off_c, 1, 57, 0
1, 20202, Note_off_c, 1, 45, 0
1, 20205, Note_off_c, 1, 72, 0
1, 20205, Note_off_c, 1, 69, 0
1, 20208, Note_on_c, 1, 70, 127
1, 20208, Note_on_c, 1, 67, 127
1, 20208, Note_on_c, 1, 58, 127
1, 20208, Note_on_c, 1, 46, 127
1, 20229, Note_off_c, 1, 70, 0
1, 20229, Note_off_c, 1, 67, 0
1, 20232, Note_on_c, 1, 69, 127
1, 20232, Note_on_c, 1, 65, 127
1, 20250, Note_off_c, 1, 58, 0
1, 20250, Note_off_c, 1, 46, 0
1, 20253, Note_off_c, 1, 69, 0
1, 20253, Note_off_c, 1, 65, 0
1, 20256, Note_on_c, 1, 67, 127
1, 20256, Note_on_c, 1, 60, 127
1, 20256, Note_on_c, 1, 48, 127
1, 20298, Note_off_c, 1, 67, 0
1, 20298, Note_off_c, 1, 60, 0
1, 20298, Note_off_c, 1, 48, 0
1, 20304, Note_on_c, 1, 69, 127
1, 20304, Note_on_c, 1, 77, 127
1, 20304, Note_on_c, 1, 53, 127
1, 20304, Note_on_c, 1, 41, 127
1, 20325, Note_off_c, 1, 69, 0
1, 20325, Note_off_c, 1, 77, 0
1, 20328, Note_on_c, 1, 67, 127
1, 20328, Note_on_c, 1, 76, 127
1, 20346, Note_off_c, 1, 53, 0
1, 20346, Note_off_c, 1, 41, 0
1, 20349, Note_off_c, 1, 67, 0
1, 20349, Note_off_c, 1, 76, 0
1, 20352, Note_on_c, 1, 69, 127
1, 20352, Note_on_c, 1, 77, 127
1, 20352, Note_on_c, 1, 55, 127
1, 20352, Note_on_c, 1, 43, 127
1, 20373, Note_off_c, 1, 69, 0
1, 20373, Note_off_c, 1, 77, 0
1, 20376, Note_on_c, 1, 70, 127
1, 20376, Note_on_c, 1, 79, 127
1, 20394, Note_off_c, 1, 55, 0
1, 20394, Note_off_c, 1, 43, 0
1, 20397, Note_off_c, 1, 70, 0
1, 20397, Note_off_c, 1, 79, 0
1, 20400, Note_on_c, 1, 69, 127
1, 20400, Note_on_c, 1, 77, 127
1, 20400, Note_on_c, 1, 57, 127
1, 20400, Note_on_c, 1, 45, 127
1, 20421, Note_off_c, 1, 69, 0
1, 20421, Note_off_c, 1, 77, 0
1, 20424, Note_on_c, 1, 67, 127
1, 20424, Note_on_c, 1, 76, 127
1, 20442, Note_off_c, 1, 57, 0
1, 20442, Note_off_c, 1, 45, 0
1, 20445, Note_off_c, 1, 67, 0
1, 20445, Note_off_c, 1, 76, 0
1, 20448, Note_on_c, 1, 65, 127
1, 20448, Note_on_c, 1, 74, 127
1, 20448, Note_on_c, 1, 58, 127
1, 20448, Note_on_c, 1, 46, 127
1, 20490, Note_off_c, 1, 65, 0
1, 20490, Note_off_c, 1, 74, 0
1, 20490, Note_off_c, 1, 58, 0
1, 20490, Note_off_c, 1, 46, 0
1, 20496, Note_on_c, 1, 76, 127
1, 20496, Note_on_c, 1, 52, 127
1, 20496, Note_on_c, 1, 79, 127
1, 20496, Note_on_c, 1, 40, 127
1, 20517, Note_off_c, 1, 76, 0
1, 20517, Note_off_c, 1, 79, 0
1, 20520, Note_on_c, 1, 74, 127
1, 20520, Note_on_c, 1, 77, 127
1, 20538, Note_off_c, 1, 52, 0
1, 20538, Note_off_c, 1, 40, 0
1, 20541, Note_off_c, 1, 74, 0
1, 20541, Note_off_c, 1, 77, 0
1, 20544, Note_on_c, 1, 76, 127
1, 20544, Note_on_c, 1, 53, 127
1, 20544, Note_on_c, 1, 79, 127
1, 20544, Note_on_c, 1, 41, 127
1, 20565, Note_off_c, 1, 76, 0
1, 20565, Note_off_c, 1, 79, 0
1, 20568, Note_on_c, 1, 77, 127
1, 20568, Note_on_c, 1, 81, 127
1, 20586, Note_off_c, 1, 53, 0
1, 20586, Note_off_c, 1, 41, 0
1, 20589, Note_off_c, 1, 77, 0
1, 20589, Note_off_c, 1, 81, 0
1, 20592, Note_on_c, 1, 76, 127
1, 20592, Note_on_c, 1, 55, 127
1, 20592, Note_on_c, 1, 79, 127
1, 20592, Note_on_c, 1, 43, 127
1, 20613, Note_off_c, 1, 76, 0
1, 20613, Note_off_c, 1, 79, 0
1, 20616, Note_on_c, 1, 74, 127
1, 20616, Note_on_c, 1, 77, 127
1, 20634, Note_off_c, 1, 55, 0
1, 20634, Note_off_c, 1, 43, 0
1, 20637, Note_off_c, 1, 74, 0
1, 20637, Note_off_c, 1, 77, 0
1, 20640, Note_on_c, 1, 72, 127
1, 20640, Note_on_c, 1, 57, 127
1, 20640, Note_on_c, 1, 76, 127
1, 20640, Note_on_c, 1, 45, 127
1, 20682, Note_off_c, 1, 72, 0
1, 20682, Note_off_c, 1, 57, 0
1, 20682, Note_off_c, 1, 76, 0
1, 20682, Note_off_c, 1, 45, 0
1, 20688, Note_on_c, 1, 74, 127
1, 20688, Note_on_c, 1, 50, 127
1, 20688, Note_on_c, 1, 77, 127
1, 20688, Note_on_c, 1, 38, 127
1, 20709, Note_off_c, 1, 74, 0
1, 20709, Note_off_c, 1, 77, 0
1, 20712, Note_on_c, 1, 72, 127
1, 20712, Note_on_c, 1, 76, 127
1, 20730, Note_off_c, 1, 50, 0
1, 20730, Note_off_c, 1, 38, 0
1, 20733, Note_off_c, 1, 72, 0
1, 20733, Note_off_c, 1, 76, 0
1, 20736, Note_on_c, 1, 74, 127
1, 20736, Note_on_c, 1, 52, 127
1, 20736, Note_on_c, 1, 77, 127
1, 20736, Note_on_c, 1, 40, 127
1, 20757, Note_off_c, 1, 74, 0
1, 20757, Note_off_c, 1, 77, 0
1, 20760, Note_on_c, 1, 76, 127
1, 20760, Note_on_c, 1, 79, 127
1, 20778, Note_off_c, 1, 52, 0
1, 20778, Note_off_c, 1, 40, 0
1, 20781, Note_off_c, 1, 76, 0
1, 20781, Note_off_c, 1, 79, 0
1, 20784, Note_on_c, 1, 74, 127
1, 20784, Note_on_c, 1, 53, 127
1, 20784, Note_on_c, 1, 77, 127
1, 20784, Note_on_c, 1, 41, 127
1, 20805, Note_off_c, 1, 74, 0
1, 20805, Note_off_c, 1, 77, 0
1, 20808, Note_on_c, 1, 72, 127
1, 20808, Note_on_c, 1, 76, 127
1, 20826, Note_off_c, 1, 53, 0
1, 20826, Note_off_c, 1, 41, 0
1, 20829, Note_off_c, 1, 72, 0
1, 20829, Note_off_c, 1, 76, 0
1, 20832, Note_on_c, 1, 71, 127
1, 20832, Note_on_c, 1, 55, 127
1, 20832, Note_on_c, 1, 74, 127
1, 20832, Note_on_c, 1, 43, 127
1, 20853, Note_off_c, 1, 71, 0
1, 20856, Note_on_c, 1, 69, 127
1, 20874, Note_off_c, 1, 55, 0
1, 20874, Note_off_c, 1, 74, 0
1, 20874, Note_off_c, 1, 43, 0
1, 20877, Note_off_c, 1, 69, 0
1, 20880, Note_on_c, 1, 67, 127
1, 20880, Note_on_c, 1, 53, 127
1, 20880, Note_on_c, 1, 41, 127
1, 20901, Note_off_c, 1, 67, 0
1, 20904, Note_on_c, 1, 69, 127
1, 20904, Note_on_c, 1, 65, 127
1, 20922, Note_off_c, 1, 53, 0
1, 20922, Note_off_c, 1, 41, 0
1, 20925, Note_off_c, 1, 69, 0
1, 20925, Note_off_c, 1, 65, 0
1, 20928, Note_on_c, 1, 71, 127
1, 20928, Note_on_c, 1, 67, 127
1, 20928, Note_on_c, 1, 52, 127
1, 20928, Note_on_c, 1, 40, 127
1, 20949, Note_off_c, 1, 71, 0
1, 20949, Note_off_c, 1, 67, 0
1, 20952, Note_on_c, 1, 72, 127
1, 20952, Note_on_c, 1, 69, 127
1, 20970, Note_off_c, 1, 52, 0
1, 20970, Note_off_c, 1, 40, 0
1, 20973, Note_off_c, 1, 72, 0
1, 20973, Note_off_c, 1, 69, 0
1, 20976, Note_on_c, 1, 74, 127
1, 20976, Note_on_c, 1, 67, 127
1, 20976, Note_on_c, 1, 50, 127
1, 20976, Note_on_c, 1, 38, 127
1, 20997, Note_off_c, 1, 74, 0
1, 20997, Note_off_c, 1, 67, 0
1, 21000, Note_on_c, 1, 71, 127
1, 21000, Note_on_c, 1, 65, 127
1, 21018, Note_off_c, 1, 50, 0
1, 21018, Note_off_c, 1, 38, 0
1, 21021, Note_off_c, 1, 71, 0
1, 21021, Note_off_c, 1, 65, 0
1, 21024, Note_on_c, 1, 72, 127
1, 21024, Note_on_c, 1, 67, 127
1, 21024, Note_on_c, 1, 48, 127
1, 21024, Note_on_c, 1, 36, 127
1, 21045, Note_off_c, 1, 72, 0
1, 21048, Note_on_c, 1, 70, 127
1, 21066, Note_off_c, 1, 67, 0
1, 21066, Note_off_c, 1, 48, 0
1, 21066, Note_off_c, 1, 36, 0
1, 21069, Note_off_c, 1, 70, 0
1, 21072, Note_on_c, 1, 72, 127
1, 21072, Note_on_c, 1, 60, 127
1, 21072, Note_on_c, 1, 76, 127
1, 21072, Note_on_c, 1, 46, 127
1, 21072, Note_on_c, 1, 34, 127
1, 21093, Note_off_c, 1, 72, 0
1, 21093, Note_off_c, 1, 60, 0
1, 21093, Note_off_c, 1, 76, 0
1, 21096, Note_on_c, 1, 70, 127
1, 21096, Note_on_c, 1, 74, 127
1, 21114, Note_off_c, 1, 46, 0
1, 21114, Note_off_c, 1, 34, 0
1, 21117, Note_off_c, 1, 70, 0
1, 21117, Note_off_c, 1, 74, 0
1, 21120, Note_on_c, 1, 72, 127
1, 21120, Note_on_c, 1, 60, 127
1, 21120, Note_on_c, 1, 76, 127
1, 21120, Note_on_c, 1, 45, 127
1, 21120, Note_on_c, 1, 33, 127
1, 21141, Note_off_c, 1, 72, 0
1, 21141, Note_off_c, 1, 60, 0
1, 21141, Note_off_c, 1, 76, 0
1, 21144, Note_on_c, 1, 74, 127
1, 21144, Note_on_c, 1, 77, 127
1, 21162, Note_off_c, 1, 45, 0
1, 21162, Note_off_c, 1, 33, 0
1, 21165, Note_off_c, 1, 74, 0
1, 21165, Note_off_c, 1, 77, 0
1, 21168, Note_on_c, 1, 72, 127
1, 21168, Note_on_c, 1, 60, 127
1, 21168, Note_on_c, 1, 79, 127
1, 21168, Note_on_c, 1, 43, 127
1, 21168, Note_on_c, 1, 31, 127
1, 21189, Note_off_c, 1, 72, 0
1, 21189, Note_off_c, 1, 60, 0
1, 21189, Note_off_c, 1, 79, 0
1, 21192, Note_on_c, 1, 70, 127
1, 21192, Note_on_c, 1, 76, 127
1, 21210, Note_off_c, 1, 43, 0
1, 21210, Note_off_c, 1, 31, 0
1, 21213, Note_off_c, 1, 70, 0
1, 21213, Note_off_c, 1, 76, 0
1, 21216, Note_on_c, 1, 69, 127
1, 21216, Note_on_c, 1, 60, 127
1, 21216, Note_on_c, 1, 77, 127
1, 21216, Note_on_c, 1, 41, 127
1, 21216, Note_on_c, 1, 29, 127
1, 21237, Note_off_c, 1, 69, 0
1, 21240, Note_on_c, 1, 67, 127
1, 21258, Note_off_c, 1, 60, 0
1, 21258, Note_off_c, 1, 77, 0
1, 21258, Note_off_c, 1, 41, 0
1, 21258, Note_off_c, 1, 29, 0
1, 21261, Note_off_c, 1, 67, 0
1, 21264, Note_on_c, 1, 69, 127
1, 21264, Note_on_c, 1, 53, 127
1, 21264, Note_on_c, 1, 81, 127
1, 21264, Note_on_c, 1, 45, 127
1, 21264, Note_on_c, 1, 84, 127
1, 21264, Note_on_c, 1, 33, 127
1, 21285, Note_off_c, 1, 69, 0
1, 21285, Note_off_c, 1, 84, 0
1, 21288, Note_on_c, 1, 70, 127
1, 21288, Note_on_c, 1, 86, 127
1, 21306, Note_off_c, 1, 53, 0
1, 21306, Note_off_c, 1, 81, 0
1, 21306, Note_off_c, 1, 45, 0
1, 21306, Note_off_c, 1, 33, 0
1, 21309, Note_off_c, 1, 70, 0
1, 21309, Note_off_c, 1, 86, 0
1, 21312, Note_on_c, 1, 69, 127
1, 21312, Note_on_c, 1, 57, 127
1, 21312, Note_on_c, 1, 77, 127
1, 21312, Note_on_c, 1, 46, 127
1, 21312, Note_on_c, 1, 84, 127
1, 21312, Note_on_c, 1, 34, 127
1, 21333, Note_off_c, 1, 69, 0
1, 21333, Note_off_c, 1, 84, 0
1, 21336, Note_on_c, 1, 67, 127
1, 21336, Note_on_c, 1, 82, 127
1, 21354, Note_off_c, 1, 57, 0
1, 21354, Note_off_c, 1, 77, 0
1, 21354, Note_off_c, 1, 46, 0
1, 21354, Note_off_c, 1, 34, 0
1, 21357, Note_off_c, 1, 67, 0
1, 21357, Note_off_c, 1, 82, 0
1, 21360, Note_on_c, 1, 65, 127
1, 21360, Note_on_c, 1, 60, 127
1, 21360, Note_on_c, 1, 72, 127
1, 21360, Note_on_c, 1, 48, 127
1, 21360, Note_on_c, 1, 81, 127
1, 21360, Note_on_c, 1, 36, 127
1, 21381, Note_off_c, 1, 65, 0
1, 21381, Note_off_c, 1, 81, 0
1, 21384, Note_on_c, 1, 64, 127
1, 21384, Note_on_c, 1, 79, 127
1, 21402, Note_off_c, 1, 60, 0
1, 21402, Note_off_c, 1, 72, 0
1, 21402, Note_off_c, 1, 48, 0
1, 21402, Note_off_c, 1, 36, 0
1, 21405, Note_off_c, 1, 64, 0
1, 21405, Note_off_c, 1, 79, 0
1, 21408, Note_on_c, 1, 65, 127
1, 21408, Note_on_c, 1, 57, 127
1, 21408, Note_on_c, 1, 50, 127
1, 21408, Note_on_c, 1, 77, 127
1, 21408, Note_on_c, 1, 38, 127
1, 21432, Note_on_c, 1, 70, 127
1, 21450, Note_off_c, 1, 65, 0
1, 21450, Note_off_c, 1, 57, 0
1, 21450, Note_off_c, 1, 50, 0
1, 21450, Note_off_c, 1, 38, 0
1, 21453, Note_off_c, 1, 70, 0
1, 21456, Note_on_c, 1, 69, 127
1, 21456, Note_on_c, 1, 53, 127
1, 21456, Note_on_c, 1, 74, 127
1, 21456, Note_on_c, 1, 46, 127
1, 21456, Note_on_c, 1, 34, 127
1, 21471, Note_off_c, 1, 77, 0
1, 21477, Note_off_c, 1, 69, 0
1, 21480, Note_on_c, 1, 67, 127
1, 21480, Note_on_c, 1, 79, 127
1, 21498, Note_off_c, 1, 53, 0
1, 21498, Note_off_c, 1, 74, 0
1, 21498, Note_off_c, 1, 46, 0
1, 21498, Note_off_c, 1, 34, 0
1, 21501, Note_off_c, 1, 67, 0
1, 21501, Note_off_c, 1, 79, 0
1, 21504, Note_on_c, 1, 67, 127
1, 21504, Note_on_c, 1, 60, 127
1, 21504, Note_on_c, 1, 48, 127
1, 21504, Note_on_c, 1, 76, 127
1, 21504, Note_on_c, 1, 36, 127
1, 21546, Note_off_c, 1, 60, 0
1, 21546, Note_off_c, 1, 48, 0
1, 21546, Note_off_c, 1, 36, 0
1, 21552, Note_on_c, 1, 69, 127
1, 21552, Note_on_c, 1, 24, 127
1, 21567, Note_off_c, 1, 67, 0
1, 21567, Note_off_c, 1, 76, 0
1, 21573, Note_off_c, 1, 69, 0
1, 21576, Note_on_c, 1, 65, 127
1, 21576, Note_on_c, 1, 70, 127
1, 21576, Note_on_c, 1, 77, 127
1, 21594, Note_off_c, 1, 24, 0
1, 21597, Note_off_c, 1, 65, 0
1, 21597, Note_off_c, 1, 70, 0
1, 21597, Note_off_c, 1, 77, 0
1, 21600, Note_on_c, 1, 65, 127
1, 21600, Note_on_c, 1, 57, 127
1, 21600, Note_on_c, 1, 69, 127
1, 21600, Note_on_c, 1, 41, 127
1, 21600, Note_on_c, 1, 77, 127
1, 21600, Note_on_c, 1, 29, 127
1, 21642, Note_off_c, 1, 69, 0
1, 21642, Note_off_c, 1, 77, 0
1, 21648, Note_on_c, 1, 72, 127
1, 21648, Note_on_c, 1, 60, 127
1, 21669, Note_off_c, 1, 72, 0
1, 21672, Note_on_c, 1, 76, 127
1, 21672, Note_on_c, 1, 70, 127
1, 21672, Note_on_c, 1, 67, 127
1, 21684, Note_off_c, 1, 41, 0
1, 21684, Note_off_c, 1, 29, 0
1, 21690, Note_off_c, 1, 65, 0
1, 21690, Note_off_c, 1, 57, 0
1, 21690, Note_off_c, 1, 60, 0
1, 21693, Note_off_c, 1, 76, 0
1, 21693, Note_off_c, 1, 70, 0
1, 21693, Note_off_c, 1, 67, 0
1, 21696, Note_on_c, 1, 77, 127
1, 21696, Note_on_c, 1, 72, 127
1, 21696, Note_on_c, 1, 69, 127
1, 21696, Note_on_c, 1, 65, 127
1, 21696, Note_on_c, 1, 60, 127
1, 21717, Note_off_c, 1, 77, 0
1, 21717, Note_off_c, 1, 72, 0
1, 21720, Note_on_c, 1, 76, 127
1, 21720, Note_on_c, 1, 70, 127
1, 21720, Note_on_c, 1, 67, 127
1, 21738, Note_off_c, 1, 69, 0
1, 21738, Note_off_c, 1, 65, 0
1, 21738, Note_off_c, 1, 60, 0
1, 21741, Note_off_c, 1, 76, 0
1, 21741, Note_off_c, 1, 70, 0
1, 21741, Note_off_c, 1, 67, 0
1, 21744, Note_on_c, 1, 77, 127
1, 21744, Note_on_c, 1, 72, 127
1, 21744, Note_on_c, 1, 69, 127
1, 21744, Note_on_c, 1, 48, 127
1, 21744, Note_on_c, 1, 67, 127
1, 21744, Note_on_c, 1, 64, 127
1, 21744, Note_on_c, 1, 36, 127
1, 21765, Note_off_c, 1, 77, 0
1, 21765, Note_off_c, 1, 69, 0
1, 21768, Note_on_c, 1, 76, 127
1, 21768, Note_on_c, 1, 70, 127
1, 21786, Note_off_c, 1, 72, 0
1, 21786, Note_off_c, 1, 48, 0
1, 21786, Note_off_c, 1, 64, 0
1, 21786, Note_off_c, 1, 36, 0
1, 21789, Note_off_c, 1, 67, 0
1, 21789, Note_off_c, 1, 76, 0
1, 21789, Note_off_c, 1, 70, 0
1, 21792, Note_on_c, 1, 77, 127
1, 21792, Note_on_c, 1, 69, 127
1, 21792, Note_on_c, 1, 65, 127
1, 21792, Note_on_c, 1, 50, 127
1, 21792, Note_on_c, 1, 57, 127
1, 21792, Note_on_c, 1, 38, 127
1, 21816, Note_on_c, 1, 67, 127
1, 21816, Note_on_c, 1, 64, 127
1, 21834, Note_off_c, 1, 77, 0
1, 21834, Note_off_c, 1, 69, 0
1, 21834, Note_off_c, 1, 65, 0
1, 21834, Note_off_c, 1, 50, 0
1, 21834, Note_off_c, 1, 57, 0
1, 21834, Note_off_c, 1, 38, 0
1, 21837, Note_off_c, 1, 67, 0
1, 21837, Note_off_c, 1, 64, 0
1, 21840, Note_on_c, 1, 72, 127
1, 21840, Note_on_c, 1, 69, 127
1, 21840, Note_on_c, 1, 65, 127
1, 21840, Note_on_c, 1, 45, 127
1, 21840, Note_on_c, 1, 33, 127
1, 21861, Note_off_c, 1, 69, 0
1, 21864, Note_on_c, 1, 67, 127
1, 21864, Note_on_c, 1, 64, 127
1, 21882, Note_off_c, 1, 72, 0
1, 21882, Note_off_c, 1, 65, 0
1, 21882, Note_off_c, 1, 45, 0
1, 21882, Note_off_c, 1, 33, 0
1, 21885, Note_off_c, 1, 67, 0
1, 21885, Note_off_c, 1, 64, 0
1, 21888, Note_on_c, 1, 74, 127
1, 21888, Note_on_c, 1, 69, 127
1, 21888, Note_on_c, 1, 62, 127
1, 21888, Note_on_c, 1, 46, 127
1, 21888, Note_on_c, 1, 34, 127
1, 21888, Note_on_c, 1, 67, 127
1, 21909, Note_off_c, 1, 69, 0
1, 21930, Note_off_c, 1, 74, 0
1, 21930, Note_off_c, 1, 62, 0
1, 21930, Note_off_c, 1, 46, 0
1, 21930, Note_off_c, 1, 34, 0
1, 21933, Note_off_c, 1, 67, 0
1, 21936, Note_on_c, 1, 72, 127
1, 21936, Note_on_c, 1, 69, 127
1, 21936, Note_on_c, 1, 64, 127
1, 21936, Note_on_c, 1, 48, 127
1, 21936, Note_on_c, 1, 36, 127
1, 21936, Note_on_c, 1, 67, 127
1, 21936, Note_on_c, 1, 76, 127
1, 21957, Note_off_c, 1, 72, 0
1, 21957, Note_off_c, 1, 69, 0
1, 21960, Note_on_c, 1, 70, 127
1, 21978, Note_off_c, 1, 64, 0
1, 21978, Note_off_c, 1, 48, 0
1, 21978, Note_off_c, 1, 36, 0
1, 21978, Note_off_c, 1, 76, 0
1, 21981, Note_off_c, 1, 67, 0
1, 21981, Note_off_c, 1, 70, 0
1, 21984, Note_on_c, 1, 69, 127
1, 21984, Note_on_c, 1, 65, 127
1, 21984, Note_on_c, 1, 60, 127
1, 21984, Note_on_c, 1, 41, 127
1, 21984, Note_on_c, 1, 29, 127
1, 21984, Note_on_c, 1, 62, 127
1, 21984, Note_on_c, 1, 72, 127
1, 22056, Note_on_c, 1, 70, 127
1, 22056, Note_on_c, 1, 67, 127
1, 22068, Note_off_c, 1, 69, 0
1, 22068, Note_off_c, 1, 41, 0
1, 22068, Note_off_c, 1, 29, 0
1, 22068, Note_off_c, 1, 62, 0
1, 22068, Note_off_c, 1, 72, 0
1, 22074, Note_off_c, 1, 65, 0
1, 22074, Note_off_c, 1, 60, 0
1, 22077, Note_off_c, 1, 70, 0
1, 22077, Note_off_c, 1, 67, 0
1, 22080, Note_on_c, 1, 72, 127
1, 22080, Note_on_c, 1, 69, 127
1, 22080, Note_on_c, 1, 65, 127
1, 22080, Note_on_c, 1, 60, 127
1, 22101, Note_off_c, 1, 72, 0
1, 22104, Note_on_c, 1, 70, 127
1, 22104, Note_on_c, 1, 67, 127
1, 22122, Note_off_c, 1, 69, 0
1, 22122, Note_off_c, 1, 65, 0
1, 22122, Note_off_c, 1, 60, 0
1, 22125, Note_off_c, 1, 70, 0
1, 22125, Note_off_c, 1, 67, 0
1, 22128, Note_on_c, 1, 72, 127
1, 22128, Note_on_c, 1, 69, 127
1, 22128, Note_on_c, 1, 64, 127
1, 22128, Note_on_c, 1, 60, 127
1, 22152, Note_on_c, 1, 70, 127
1, 22152, Note_on_c, 1, 67, 127
1, 22170, Note_off_c, 1, 72, 0
1, 22170, Note_off_c, 1, 69, 0
1, 22170, Note_off_c, 1, 64, 0
1, 22170, Note_off_c, 1, 60, 0
1, 22173, Note_off_c, 1, 70, 0
1, 22173, Note_off_c, 1, 67, 0
1, 22176, Note_on_c, 1, 69, 127
1, 22176, Note_on_c, 1, 65, 127
1, 22176, Note_on_c, 1, 77, 127
1, 22176, Note_on_c, 1, 74, 127
1, 22176, Note_on_c, 1, 62, 127
1, 22197, Note_off_c, 1, 65, 0
1, 22200, Note_on_c, 1, 70, 127
1, 22200, Note_on_c, 1, 67, 127
1, 22218, Note_off_c, 1, 69, 0
1, 22218, Note_off_c, 1, 77, 0
1, 22218, Note_off_c, 1, 74, 0
1, 22218, Note_off_c, 1, 62, 0
1, 22221, Note_off_c, 1, 70, 0
1, 22221, Note_off_c, 1, 67, 0
1, 22224, Note_on_c, 1, 72, 127
1, 22224, Note_on_c, 1, 69, 127
1, 22224, Note_on_c, 1, 65, 127
1, 22224, Note_on_c, 1, 57, 127
1, 22248, Note_on_c, 1, 74, 127
1, 22248, Note_on_c, 1, 70, 127
1, 22266, Note_off_c, 1, 72, 0
1, 22266, Note_off_c, 1, 69, 0
1, 22266, Note_off_c, 1, 65, 0
1, 22266, Note_off_c, 1, 57, 0
1, 22269, Note_off_c, 1, 74, 0
1, 22269, Note_off_c, 1, 70, 0
1, 22272, Note_on_c, 1, 70, 127
1, 22272, Note_on_c, 1, 67, 127
1, 22272, Note_on_c, 1, 74, 127
1, 22272, Note_on_c, 1, 65, 127
1, 22272, Note_on_c, 1, 58, 127
1, 22296, Note_on_c, 1, 69, 127
1, 22314, Note_off_c, 1, 70, 0
1, 22314, Note_off_c, 1, 67, 0
1, 22314, Note_off_c, 1, 74, 0
1, 22314, Note_off_c, 1, 65, 0
1, 22314, Note_off_c, 1, 58, 0
1, 22317, Note_off_c, 1, 69, 0
1, 22320, Note_on_c, 1, 70, 127
1, 22320, Note_on_c, 1, 60, 127
1, 22320, Note_on_c, 1, 72, 127
1, 22320, Note_on_c, 1, 67, 127
1, 22320, Note_on_c, 1, 64, 127
1, 22341, Note_off_c, 1, 70, 0
1, 22362, Note_off_c, 1, 60, 0
1, 22362, Note_off_c, 1, 72, 0
1, 22362, Note_off_c, 1, 64, 0
1, 22365, Note_off_c, 1, 67, 0
1, 22368, Note_on_c, 1, 69, 127
1, 22368, Note_on_c, 1, 65, 127
1, 22368, Note_on_c, 1, 60, 127
1, 22368, Note_on_c, 1, 53, 127
1, 22410, Note_off_c, 1, 69, 0
1, 22410, Note_off_c, 1, 65, 0
1, 22410, Note_off_c, 1, 60, 0
1, 22410, Note_off_c, 1, 53, 0
1, 22416, Note_on_c, 1, 60, 127
1, 22416, Note_on_c, 1, 57, 127
1, 22416, Note_on_c, 1, 77, 127
1, 22416, Note_on_c, 1, 72, 127
1, 22416, Note_on_c, 1, 69, 127
1, 22416, Note_on_c, 1, 41, 127
1, 22416, Note_on_c, 1, 29, 127
1, 22437, Note_off_c, 1, 77, 0
1, 22437, Note_off_c, 1, 72, 0
1, 22440, Note_on_c, 1, 76, 127
1, 22440, Note_on_c, 1, 70, 127
1, 22440, Note_on_c, 1, 67, 127
1, 22440, Note_on_c, 1, 79, 127
1, 22440, Note_on_c, 1, 74, 127
1, 22458, Note_off_c, 1, 60, 0
1, 22458, Note_off_c, 1, 57, 0
1, 22458, Note_off_c, 1, 69, 0
1, 22458, Note_off_c, 1, 41, 0
1, 22458, Note_off_c, 1, 29, 0
1, 22461, Note_off_c, 1, 76, 0
1, 22461, Note_off_c, 1, 70, 0
1, 22461, Note_off_c, 1, 67, 0
1, 22461, Note_off_c, 1, 79, 0
1, 22461, Note_off_c, 1, 74, 0
1, 22464, Note_on_c, 1, 65, 127
1, 22464, Note_on_c, 1, 60, 127
1, 22464, Note_on_c, 1, 77, 127
1, 22464, Note_on_c, 1, 72, 127
1, 22464, Note_on_c, 1, 69, 127
1, 22464, Note_on_c, 1, 45, 127
1, 22464, Note_on_c, 1, 33, 127
1, 22485, Note_off_c, 1, 77, 0
1, 22485, Note_off_c, 1, 72, 0
1, 22485, Note_off_c, 1, 69, 0
1, 22488, Note_on_c, 1, 76, 127
1, 22488, Note_on_c, 1, 70, 127
1, 22488, Note_on_c, 1, 67, 127
1, 22488, Note_on_c, 1, 79, 127
1, 22488, Note_on_c, 1, 74, 127
1, 22506, Note_off_c, 1, 65, 0
1, 22506, Note_off_c, 1, 60, 0
1, 22506, Note_off_c, 1, 45, 0
1, 22506, Note_off_c, 1, 33, 0
1, 22509, Note_off_c, 1, 76, 0
1, 22509, Note_off_c, 1, 70, 0
1, 22509, Note_off_c, 1, 67, 0
1, 22509, Note_off_c, 1, 79, 0
1, 22509, Note_off_c, 1, 74, 0
1, 22512, Note_on_c, 1, 67, 127
1, 22512, Note_on_c, 1, 60, 127
1, 22512, Note_on_c, 1, 77, 127
1, 22512, Note_on_c, 1, 72, 127
1, 22512, Note_on_c, 1, 69, 127
1, 22512, Note_on_c, 1, 48, 127
1, 22512, Note_on_c, 1, 36, 127
1, 22512, Note_on_c, 1, 65, 127
1, 22533, Note_off_c, 1, 60, 0
1, 22533, Note_off_c, 1, 77, 0
1, 22533, Note_off_c, 1, 72, 0
1, 22536, Note_on_c, 1, 76, 127
1, 22536, Note_on_c, 1, 70, 127
1, 22536, Note_on_c, 1, 79, 127
1, 22536, Note_on_c, 1, 74, 127
1, 22554, Note_off_c, 1, 69, 0
1, 22554, Note_off_c, 1, 48, 0
1, 22554, Note_off_c, 1, 36, 0
1, 22554, Note_off_c, 1, 65, 0
1, 22557, Note_off_c, 1, 67, 0
1, 22557, Note_off_c, 1, 76, 0
1, 22557, Note_off_c, 1, 70, 0
1, 22557, Note_off_c, 1, 79, 0
1, 22557, Note_off_c, 1, 74, 0
1, 22560, Note_on_c, 1, 69, 127
1, 22560, Note_on_c, 1, 60, 127
1, 22560, Note_on_c, 1, 77, 127
1, 22560, Note_on_c, 1, 72, 127
1, 22560, Note_on_c, 1, 53, 127
1, 22560, Note_on_c, 1, 41, 127
1, 22584, Note_on_c, 1, 70, 127
1, 22602, Note_off_c, 1, 60, 0
1, 22602, Note_off_c, 1, 53, 0
1, 22602, Note_off_c, 1, 41, 0
1, 22605, Note_off_c, 1, 70, 0
1, 22608, Note_on_c, 1, 65, 127
1, 22608, Note_on_c, 1, 50, 127
1, 22608, Note_on_c, 1, 38, 127
1, 22629, Note_off_c, 1, 65, 0
1, 22632, Note_on_c, 1, 67, 127
1, 22644, Note_off_c, 1, 69, 0
1, 22644, Note_off_c, 1, 77, 0
1, 22644, Note_off_c, 1, 72, 0
1, 22650, Note_off_c, 1, 50, 0
1, 22650, Note_off_c, 1, 38, 0
1, 22653, Note_off_c, 1, 67, 0
1, 22656, Note_on_c, 1, 72, 127
1, 22656, Note_on_c, 1, 69, 127
1, 22656, Note_on_c, 1, 45, 127
1, 22656, Note_on_c, 1, 33, 127
1, 22677, Note_off_c, 1, 72, 0
1, 22677, Note_off_c, 1, 69, 0
1, 22680, Note_on_c, 1, 70, 127
1, 22680, Note_on_c, 1, 67, 127
1, 22698, Note_off_c, 1, 45, 0
1, 22698, Note_off_c, 1, 33, 0
1, 22701, Note_off_c, 1, 70, 0
1, 22701, Note_off_c, 1, 67, 0
1, 22704, Note_on_c, 1, 69, 127
1, 22704, Note_on_c, 1, 65, 127
1, 22704, Note_on_c, 1, 46, 127
1, 22704, Note_on_c, 1, 34, 127
1, 22725, Note_off_c, 1, 69, 0
1, 22725, Note_off_c, 1, 65, 0
1, 22728, Note_on_c, 1, 70, 127
1, 22728, Note_on_c, 1, 67, 127
1, 22746, Note_off_c, 1, 46, 0
1, 22746, Note_off_c, 1, 34, 0
1, 22749, Note_off_c, 1, 70, 0
1, 22749, Note_off_c, 1, 67, 0
1, 22752, Note_on_c, 1, 67, 127
1, 22752, Note_on_c, 1, 60, 127
1, 22752, Note_on_c, 1, 48, 127
1, 22752, Note_on_c, 1, 36, 127
1, 22800, Note_on_c, 1, 72, 127
1, 22800, Note_on_c, 1, 64, 127
1, 22800, Note_on_c, 1, 84, 127
1, 22800, Note_on_c, 1, 79, 127
1, 22800, Note_on_c, 1, 76, 127
1, 22821, Note_off_c, 1, 84, 0
1, 22821, Note_off_c, 1, 79, 0
1, 22821, Note_off_c, 1, 76, 0
1, 22824, Note_on_c, 1, 83, 127
1, 22824, Note_on_c, 1, 77, 127
1, 22824, Note_on_c, 1, 74, 127
1, 22836, Note_off_c, 1, 60, 0
1, 22836, Note_off_c, 1, 48, 0
1, 22836, Note_off_c, 1, 36, 0
1, 22842, Note_off_c, 1, 67, 0
1, 22842, Note_off_c, 1, 72, 0
1, 22842, Note_off_c, 1, 64, 0
1, 22845, Note_off_c, 1, 83, 0
1, 22845, Note_off_c, 1, 77, 0
1, 22845, Note_off_c, 1, 74, 0
1, 22848, Note_on_c, 1, 76, 127
1, 22848, Note_on_c, 1, 72, 127
1, 22848, Note_on_c, 1, 67, 127
1, 22848, Note_on_c, 1, 84, 127
1, 22848, Note_on_c, 1, 79, 127
1, 22869, Note_off_c, 1, 84, 0
1, 22869, Note_off_c, 1, 79, 0
1, 22872, Note_on_c, 1, 83, 127
1, 22872, Note_on_c, 1, 77, 127
1, 22872, Note_on_c, 1, 74, 127
1, 22890, Note_off_c, 1, 76, 0
1, 22890, Note_off_c, 1, 72, 0
1, 22890, Note_off_c, 1, 67, 0
1, 22893, Note_off_c, 1, 83, 0
1, 22893, Note_off_c, 1, 77, 0
1, 22893, Note_off_c, 1, 74, 0
1, 22896, Note_on_c, 1, 79, 127
1, 22896, Note_on_c, 1, 74, 127
1, 22896, Note_on_c, 1, 71, 127
1, 22896, Note_on_c, 1, 43, 127
1, 22896, Note_on_c, 1, 84, 127
1, 22896, Note_on_c, 1, 76, 127
1, 22896, Note_on_c, 1, 31, 127
1, 22917, Note_off_c, 1, 84, 0
1, 22917, Note_off_c, 1, 76, 0
1, 22920, Note_on_c, 1, 83, 127
1, 22920, Note_on_c, 1, 77, 127
1, 22938, Note_off_c, 1, 79, 0
1, 22938, Note_off_c, 1, 71, 0
1, 22938, Note_off_c, 1, 43, 0
1, 22938, Note_off_c, 1, 31, 0
1, 22941, Note_off_c, 1, 74, 0
1, 22941, Note_off_c, 1, 83, 0
1, 22941, Note_off_c, 1, 77, 0
1, 22944, Note_on_c, 1, 84, 127
1, 22944, Note_on_c, 1, 72, 127
1, 22944, Note_on_c, 1, 64, 127
1, 22944, Note_on_c, 1, 45, 127
1, 22944, Note_on_c, 1, 76, 127
1, 22944, Note_on_c, 1, 33, 127
1, 22965, Note_off_c, 1, 76, 0
1, 22968, Note_on_c, 1, 74, 127
1, 22968, Note_on_c, 1, 71, 127
1, 22986, Note_off_c, 1, 84, 0
1, 22986, Note_off_c, 1, 72, 0
1, 22986, Note_off_c, 1, 64, 0
1, 22986, Note_off_c, 1, 45, 0
1, 22986, Note_off_c, 1, 33, 0
1, 22989, Note_off_c, 1, 74, 0
1, 22989, Note_off_c, 1, 71, 0
1, 22992, Note_on_c, 1, 79, 127
1, 22992, Note_on_c, 1, 76, 127
1, 22992, Note_on_c, 1, 72, 127
1, 22992, Note_on_c, 1, 40, 127
1, 22992, Note_on_c, 1, 28, 127
1, 23013, Note_off_c, 1, 76, 0
1, 23013, Note_off_c, 1, 72, 0
1, 23016, Note_on_c, 1, 74, 127
1, 23016, Note_on_c, 1, 71, 127
1, 23034, Note_off_c, 1, 79, 0
1, 23034, Note_off_c, 1, 40, 0
1, 23034, Note_off_c, 1, 28, 0
1, 23037, Note_off_c, 1, 74, 0
1, 23037, Note_off_c, 1, 71, 0
1, 23040, Note_on_c, 1, 81, 127
1, 23040, Note_on_c, 1, 76, 127
1, 23040, Note_on_c, 1, 69, 127
1, 23040, Note_on_c, 1, 41, 127
1, 23040, Note_on_c, 1, 29, 127
1, 23061, Note_off_c, 1, 76, 0
1, 23064, Note_on_c, 1, 74, 127
1, 23082, Note_off_c, 1, 81, 0
1, 23082, Note_off_c, 1, 69, 0
1, 23082, Note_off_c, 1, 41, 0
1, 23082, Note_off_c, 1, 29, 0
1, 23085, Note_off_c, 1, 74, 0
1, 23088, Note_on_c, 1, 79, 127
1, 23088, Note_on_c, 1, 76, 127
1, 23088, Note_on_c, 1, 71, 127
1, 23088, Note_on_c, 1, 43, 127
1, 23088, Note_on_c, 1, 31, 127
1, 23109, Note_off_c, 1, 79, 0
1, 23109, Note_off_c, 1, 76, 0
1, 23112, Note_on_c, 1, 77, 127
1, 23112, Note_on_c, 1, 74, 127
1, 23130, Note_off_c, 1, 71, 0
1, 23130, Note_off_c, 1, 43, 0
1, 23130, Note_off_c, 1, 31, 0
1, 23133, Note_off_c, 1, 77, 0
1, 23133, Note_off_c, 1, 74, 0
1, 23136, Note_on_c, 1, 76, 127
1, 23136, Note_on_c, 1, 72, 127
1, 23136, Note_on_c, 1, 67, 127
1, 23136, Note_on_c, 1, 36, 127
1, 23136, Note_on_c, 1, 24, 127
1, 23160, Note_on_c, 1, 74, 127
1, 23160, Note_on_c, 1, 71, 127
1, 23160, Note_on_c, 1, 65, 127
1, 23178, Note_off_c, 1, 36, 0
1, 23178, Note_off_c, 1, 24, 0
1, 23181, Note_off_c, 1, 74, 0
1, 23181, Note_off_c, 1, 71, 0
1, 23181, Note_off_c, 1, 65, 0
1, 23184, Note_on_c, 1, 60, 127
1, 23184, Note_on_c, 1, 43, 127
1, 23184, Note_on_c, 1, 64, 127
1, 23184, Note_on_c, 1, 31, 127
1, 23205, Note_off_c, 1, 60, 0
1, 23205, Note_off_c, 1, 64, 0
1, 23208, Note_on_c, 1, 62, 127
1, 23220, Note_off_c, 1, 76, 0
1, 23220, Note_off_c, 1, 72, 0
1, 23220, Note_off_c, 1, 67, 0
1, 23226, Note_off_c, 1, 43, 0
1, 23226, Note_off_c, 1, 31, 0
1, 23229, Note_off_c, 1, 62, 0
1, 23232, Note_on_c, 1, 67, 127
1, 23232, Note_on_c, 1, 60, 127
1, 23232, Note_on_c, 1, 48, 127
1, 23232, Note_on_c, 1, 76, 127
1, 23232, Note_on_c, 1, 72, 127
1, 23232, Note_on_c, 1, 36, 127
1, 23253, Note_off_c, 1, 67, 0
1, 23253, Note_off_c, 1, 76, 0
1, 23253, Note_off_c, 1, 72, 0
1, 23256, Note_on_c, 1, 69, 127
1, 23256, Note_on_c, 1, 77, 127
1, 23256, Note_on_c, 1, 74, 127
1, 23274, Note_off_c, 1, 60, 0
1, 23274, Note_off_c, 1, 48, 0
1, 23274, Note_off_c, 1, 36, 0
1, 23277, Note_off_c, 1, 69, 0
1, 23277, Note_off_c, 1, 77, 0
1, 23277, Note_off_c, 1, 74, 0
1, 23280, Note_on_c, 1, 70, 127
1, 23280, Note_on_c, 1, 60, 127
1, 23280, Note_on_c, 1, 76, 127
1, 23280, Note_on_c, 1, 72, 127
1, 23280, Note_on_c, 1, 67, 127
1, 23280, Note_on_c, 1, 36, 127
1, 23280, Note_on_c, 1, 79, 127
1, 23280, Note_on_c, 1, 24, 127
1, 23301, Note_off_c, 1, 70, 0
1, 23322, Note_off_c, 1, 60, 0
1, 23322, Note_off_c, 1, 72, 0
1, 23322, Note_off_c, 1, 36, 0
1, 23322, Note_off_c, 1, 24, 0
1, 23325, Note_off_c, 1, 67, 0
1, 23328, Note_on_c, 1, 69, 127
1, 23328, Note_on_c, 1, 65, 127
1, 23328, Note_on_c, 1, 41, 127
1, 23328, Note_on_c, 1, 29, 127
1, 23370, Note_off_c, 1, 76, 0
1, 23370, Note_off_c, 1, 79, 0
1, 23370, Note_off_c, 1, 41, 0
1, 23370, Note_off_c, 1, 29, 0
1, 23376, Note_on_c, 1, 45, 127
1, 23376, Note_on_c, 1, 77, 127
1, 23376, Note_on_c, 1, 74, 127
1, 23376, Note_on_c, 1, 33, 127
1, 23397, Note_off_c, 1, 77, 0
1, 23397, Note_off_c, 1, 74, 0
1, 23412, Note_off_c, 1, 69, 0
1, 23412, Note_off_c, 1, 65, 0
1, 23418, Note_off_c, 1, 45, 0
1, 23418, Note_off_c, 1, 33, 0
1, 23424, Note_on_c, 1, 50, 127
1, 23424, Note_on_c, 1, 38, 127
1, 23448, Note_on_c, 1, 71, 127
1, 23466, Note_off_c, 1, 50, 0
1, 23466, Note_off_c, 1, 38, 0
1, 23469, Note_off_c, 1, 71, 0
1, 23472, Note_on_c, 1, 26, 127
1, 23514, Note_off_c, 1, 26, 0
1, 23520, Note_on_c, 1, 43, 127
1, 23520, Note_on_c, 1, 31, 127
1, 23562, Note_off_c, 1, 43, 0
1, 23562, Note_off_c, 1, 31, 0
1, 23568, Note_on_c, 1, 47, 127
1, 23568, Note_on_c, 1, 35, 127
1, 23610, Note_off_c, 1, 47, 0
1, 23610, Note_off_c, 1, 35, 0
1, 23616, Note_on_c, 1, 52, 127
1, 23616, Note_on_c, 1, 40, 127
1, 23658, Note_off_c, 1, 52, 0
1, 23658, Note_off_c, 1, 40, 0
1, 23664, Note_on_c, 1, 28, 127
1, 23706, Note_off_c, 1, 28, 0
1, 23736, Note_on_c, 1, 64, 127
1, 23757, Note_off_c, 1, 64, 0
1, 23760, Note_on_c, 1, 53, 127
1, 23802, Note_off_c, 1, 53, 0
1, 23808, Note_on_c, 1, 72, 127
1, 23808, Note_on_c, 1, 67, 127
1, 23808, Note_on_c, 1, 74, 127
1, 23808, Note_on_c, 1, 65, 127
1, 23808, Note_on_c, 1, 55, 127
1, 23808, Note_on_c, 1, 43, 127
1, 23818, Note_off_c, 1, 72, 0
1, 23820, Note_on_c, 1, 71, 127
1, 23829, Note_off_c, 1, 65, 0
1, 23830, Note_off_c, 1, 71, 0
1, 23832, Note_on_c, 1, 64, 127
1, 23850, Note_off_c, 1, 55, 0
1, 23850, Note_off_c, 1, 43, 0
1, 23853, Note_off_c, 1, 64, 0
1, 23856, Note_on_c, 1, 31, 127
1, 23871, Note_off_c, 1, 74, 0
1, 23880, Note_on_c, 1, 62, 127
1, 23898, Note_off_c, 1, 31, 0
1, 23901, Note_off_c, 1, 67, 0
1, 23901, Note_off_c, 1, 62, 0
1, 23904, Note_on_c, 1, 72, 127
1, 23904, Note_on_c, 1, 67, 127
1, 23904, Note_on_c, 1, 64, 127
1, 23904, Note_on_c, 1, 48, 127
1, 23904, Note_on_c, 1, 36, 127
1, 23952, Note_on_c, 1, 79, 127
1, 23952, Note_on_c, 1, 76, 127
1, 23973, Note_off_c, 1, 79, 0
1, 23973, Note_off_c, 1, 76, 0
1, 23976, Note_on_c, 1, 77, 127
1, 23976, Note_on_c, 1, 74, 127
1, 23988, Note_off_c, 1, 67, 0
1, 23988, Note_off_c, 1, 64, 0
1, 23988, Note_off_c, 1, 48, 0
1, 23988, Note_off_c, 1, 36, 0
1, 23994, Note_off_c, 1, 72, 0
1, 23997, Note_off_c, 1, 77, 0
1, 23997, Note_off_c, 1, 74, 0
1, 24000, Note_on_c, 1, 79, 127
1, 24000, Note_on_c, 1, 76, 127
1, 24000, Note_on_c, 1, 70, 127
1, 24021, Note_off_c, 1, 79, 0
1, 24021, Note_off_c, 1, 76, 0
1, 24024, Note_on_c, 1, 77, 127
1, 24024, Note_on_c, 1, 74, 127
1, 24042, Note_off_c, 1, 70, 0
1, 24045, Note_off_c, 1, 77, 0
1, 24045, Note_off_c, 1, 74, 0
1, 24048, Note_on_c, 1, 79, 127
1, 24048, Note_on_c, 1, 76, 127
1, 24048, Note_on_c, 1, 69, 127
1, 24069, Note_off_c, 1, 79, 0
1, 24069, Note_off_c, 1, 76, 0
1, 24072, Note_on_c, 1, 81, 127
1, 24072, Note_on_c, 1, 77, 127
1, 24090, Note_off_c, 1, 69, 0
1, 24093, Note_off_c, 1, 81, 0
1, 24093, Note_off_c, 1, 77, 0
1, 24096, Note_on_c, 1, 82, 127
1, 24096, Note_on_c, 1, 79, 127
1, 24096, Note_on_c, 1, 67, 127
1, 24117, Note_off_c, 1, 82, 0
1, 24117, Note_off_c, 1, 79, 0
1, 24120, Note_on_c, 1, 81, 127
1, 24120, Note_on_c, 1, 77, 127
1, 24138, Note_off_c, 1, 67, 0
1, 24141, Note_off_c, 1, 81, 0
1, 24141, Note_off_c, 1, 77, 0
1, 24144, Note_on_c, 1, 82, 127
1, 24144, Note_on_c, 1, 79, 127
1, 24144, Note_on_c, 1, 65, 127
1, 24165, Note_off_c, 1, 82, 0
1, 24165, Note_off_c, 1, 79, 0
1, 24168, Note_on_c, 1, 84, 127
1, 24168, Note_on_c, 1, 81, 127
1, 24186, Note_off_c, 1, 65, 0
1, 24189, Note_off_c, 1, 84, 0
1, 24189, Note_off_c, 1, 81, 0
1, 24192, Note_on_c, 1, 82, 127
1, 24192, Note_on_c, 1, 79, 127
1, 24192, Note_on_c, 1, 64, 127
1, 24213, Note_off_c, 1, 82, 0
1, 24213, Note_off_c, 1, 79, 0
1, 24216, Note_on_c, 1, 84, 127
1, 24216, Note_on_c, 1, 81, 127
1, 24234, Note_off_c, 1, 64, 0
1, 24237, Note_off_c, 1, 84, 0
1, 24237, Note_off_c, 1, 81, 0
1, 24240, Note_on_c, 1, 82, 127
1, 24240, Note_on_c, 1, 79, 127
1, 24240, Note_on_c, 1, 60, 127
1, 24261, Note_off_c, 1, 82, 0
1, 24261, Note_off_c, 1, 79, 0
1, 24264, Note_on_c, 1, 84, 127
1, 24264, Note_on_c, 1, 81, 127
1, 24282, Note_off_c, 1, 60, 0
1, 24285, Note_off_c, 1, 84, 0
1, 24285, Note_off_c, 1, 81, 0
1, 24288, Note_on_c, 1, 81, 127
1, 24288, Note_on_c, 1, 77, 127
1, 24288, Note_on_c, 1, 65, 127
1, 24288, Note_on_c, 1, 41, 127
1, 24288, Note_on_c, 1, 29, 127
1, 24330, Note_off_c, 1, 81, 0
1, 24330, Note_off_c, 1, 77, 0
1, 24330, Note_off_c, 1, 65, 0
1, 24336, Note_on_c, 1, 72, 127
1, 24357, Note_off_c, 1, 72, 0
1, 24360, Note_on_c, 1, 79, 127
1, 24360, Note_on_c, 1, 70, 127
1, 24372, Note_off_c, 1, 41, 0
1, 24372, Note_off_c, 1, 29, 0
1, 24381, Note_off_c, 1, 79, 0
1, 24381, Note_off_c, 1, 70, 0
1, 24384, Note_on_c, 1, 81, 127
1, 24384, Note_on_c, 1, 72, 127
1, 24384, Note_on_c, 1, 63, 127
1, 24405, Note_off_c, 1, 81, 0
1, 24405, Note_off_c, 1, 72, 0
1, 24408, Note_on_c, 1, 79, 127
1, 24408, Note_on_c, 1, 70, 127
1, 24426, Note_off_c, 1, 63, 0
1, 24429, Note_off_c, 1, 79, 0
1, 24429, Note_off_c, 1, 70, 0
1, 24432, Note_on_c, 1, 81, 127
1, 24432, Note_on_c, 1, 72, 127
1, 24432, Note_on_c, 1, 62, 127
1, 24453, Note_off_c, 1, 81, 0
1, 24453, Note_off_c, 1, 72, 0
1, 24456, Note_on_c, 1, 82, 127
1, 24456, Note_on_c, 1, 74, 127
1, 24474, Note_off_c, 1, 62, 0
1, 24477, Note_off_c, 1, 82, 0
1, 24477, Note_off_c, 1, 74, 0
1, 24480, Note_on_c, 1, 84, 127
1, 24480, Note_on_c, 1, 75, 127
1, 24480, Note_on_c, 1, 60, 127
1, 24501, Note_off_c, 1, 84, 0
1, 24501, Note_off_c, 1, 75, 0
1, 24504, Note_on_c, 1, 82, 127
1, 24504, Note_on_c, 1, 74, 127
1, 24522, Note_off_c, 1, 60, 0
1, 24525, Note_off_c, 1, 82, 0
1, 24525, Note_off_c, 1, 74, 0
1, 24528, Note_on_c, 1, 84, 127
1, 24528, Note_on_c, 1, 75, 127
1, 24528, Note_on_c, 1, 58, 127
1, 24549, Note_off_c, 1, 84, 0
1, 24549, Note_off_c, 1, 75, 0
1, 24552, Note_on_c, 1, 86, 127
1, 24552, Note_on_c, 1, 77, 127
1, 24570, Note_off_c, 1, 58, 0
1, 24573, Note_off_c, 1, 86, 0
1, 24573, Note_off_c, 1, 77, 0
1, 24576, Note_on_c, 1, 84, 127
1, 24576, Note_on_c, 1, 75, 127
1, 24576, Note_on_c, 1, 57, 127
1, 24597, Note_off_c, 1, 84, 0
1, 24597, Note_off_c, 1, 75, 0
1, 24600, Note_on_c, 1, 86, 127
1, 24600, Note_on_c, 1, 77, 127
1, 24618, Note_off_c, 1, 57, 0
1, 24621, Note_off_c, 1, 86, 0
1, 24621, Note_off_c, 1, 77, 0
1, 24624, Note_on_c, 1, 84, 127
1, 24624, Note_on_c, 1, 75, 127
1, 24624, Note_on_c, 1, 53, 127
1, 24645, Note_off_c, 1, 84, 0
1, 24645, Note_off_c, 1, 75, 0
1, 24648, Note_on_c, 1, 86, 127
1, 24648, Note_on_c, 1, 77, 127
1, 24666, Note_off_c, 1, 53, 0
1, 24669, Note_off_c, 1, 86, 0
1, 24669, Note_off_c, 1, 77, 0
1, 24672, Note_on_c, 1, 77, 127
1, 24672, Note_on_c, 1, 46, 127
1, 24672, Note_on_c, 1, 82, 127
1, 24672, Note_on_c, 1, 74, 127
1, 24672, Note_on_c, 1, 58, 127
1, 24672, Note_on_c, 1, 34, 127
1, 24714, Note_off_c, 1, 46, 0
1, 24714, Note_off_c, 1, 82, 0
1, 24714, Note_off_c, 1, 74, 0
1, 24714, Note_off_c, 1, 58, 0
1, 24714, Note_off_c, 1, 34, 0
1, 24720, Note_on_c, 1, 53, 127
1, 24720, Note_on_c, 1, 68, 127
1, 24720, Note_on_c, 1, 41, 127
1, 24741, Note_off_c, 1, 53, 0
1, 24741, Note_off_c, 1, 41, 0
1, 24744, Note_on_c, 1, 51, 127
1, 24744, Note_on_c, 1, 39, 127
1, 24762, Note_off_c, 1, 68, 0
1, 24765, Note_off_c, 1, 51, 0
1, 24765, Note_off_c, 1, 39, 0
1, 24768, Note_on_c, 1, 80, 127
1, 24810, Note_off_c, 1, 80, 0
1, 24816, Note_on_c, 1, 86, 127
1, 24840, Note_on_c, 1, 55, 127
1, 24840, Note_on_c, 1, 43, 127
1, 24858, Note_off_c, 1, 77, 0
1, 24858, Note_off_c, 1, 86, 0
1, 24861, Note_off_c, 1, 55, 0
1, 24861, Note_off_c, 1, 43, 0
1, 24864, Note_on_c, 1, 75, 127
1, 24864, Note_on_c, 1, 56, 127
1, 24864, Note_on_c, 1, 44, 127
1, 24885, Note_off_c, 1, 56, 0
1, 24885, Note_off_c, 1, 44, 0
1, 24912, Note_on_c, 1, 79, 127
1, 24912, Note_on_c, 1, 67, 127
1, 24912, Note_on_c, 1, 70, 127
1, 24936, Note_on_c, 1, 50, 127
1, 24936, Note_on_c, 1, 38, 127
1, 24954, Note_off_c, 1, 79, 0
1, 24954, Note_off_c, 1, 67, 0
1, 24954, Note_off_c, 1, 70, 0
1, 24957, Note_off_c, 1, 50, 0
1, 24957, Note_off_c, 1, 38, 0
1, 24960, Note_on_c, 1, 72, 127
1, 25008, Note_on_c, 1, 84, 127
1, 25050, Note_off_c, 1, 75, 0
1, 25050, Note_off_c, 1, 84, 0
1, 25056, Note_on_c, 1, 60, 127
1, 25080, Note_on_c, 1, 57, 127
1, 25080, Note_on_c, 1, 45, 127
1, 25098, Note_off_c, 1, 60, 0
1, 25101, Note_off_c, 1, 57, 0
1, 25101, Note_off_c, 1, 45, 0
1, 25104, Note_on_c, 1, 65, 127
1, 25104, Note_on_c, 1, 69, 127
1, 25104, Note_on_c, 1, 62, 127
1, 25128, Note_on_c, 1, 48, 127
1, 25128, Note_on_c, 1, 36, 127
1, 25140, Note_off_c, 1, 72, 0
1, 25146, Note_off_c, 1, 65, 0
1, 25146, Note_off_c, 1, 69, 0
1, 25146, Note_off_c, 1, 62, 0
1, 25149, Note_off_c, 1, 48, 0
1, 25149, Note_off_c, 1, 36, 0
1, 25296, Note_on_c, 1, 72, 127
1, 25296, Note_on_c, 1, 69, 127
1, 25296, Note_on_c, 1, 75, 127
1, 25296, Note_on_c, 1, 48, 127
1, 25296, Note_on_c, 1, 36, 127
1, 25320, Note_on_c, 1, 70, 127
1, 25320, Note_on_c, 1, 67, 127
1, 25338, Note_off_c, 1, 72, 0
1, 25338, Note_off_c, 1, 69, 0
1, 25338, Note_off_c, 1, 75, 0
1, 25338, Note_off_c, 1, 48, 0
1, 25338, Note_off_c, 1, 36, 0
1, 25341, Note_off_c, 1, 70, 0
1, 25341, Note_off_c, 1, 67, 0
1, 25344, Note_on_c, 1, 72, 127
1, 25344, Note_on_c, 1, 69, 127
1, 25344, Note_on_c, 1, 45, 127
1, 25344, Note_on_c, 1, 65, 127
1, 25344, Note_on_c, 1, 33, 127
1, 25368, Note_on_c, 1, 74, 127
1, 25368, Note_on_c, 1, 70, 127
1, 25386, Note_off_c, 1, 45, 0
1, 25386, Note_off_c, 1, 33, 0
1, 25389, Note_off_c, 1, 74, 0
1, 25389, Note_off_c, 1, 70, 0
1, 25392, Note_on_c, 1, 75, 127
1, 25392, Note_on_c, 1, 41, 127
1, 25392, Note_on_c, 1, 29, 127
1, 25413, Note_off_c, 1, 75, 0
1, 25434, Note_off_c, 1, 41, 0
1, 25434, Note_off_c, 1, 29, 0
1, 25440, Note_on_c, 1, 77, 127
1, 25440, Note_on_c, 1, 46, 127
1, 25440, Note_on_c, 1, 34, 127
1, 25461, Note_off_c, 1, 46, 0
1, 25461, Note_off_c, 1, 34, 0
1, 25464, Note_on_c, 1, 53, 127
1, 25482, Note_off_c, 1, 72, 0
1, 25482, Note_off_c, 1, 69, 0
1, 25482, Note_off_c, 1, 65, 0
1, 25485, Note_off_c, 1, 53, 0
1, 25488, Note_on_c, 1, 58, 127
1, 25488, Note_on_c, 1, 62, 127
1, 25512, Note_on_c, 1, 57, 127
1, 25530, Note_off_c, 1, 58, 0
1, 25530, Note_off_c, 1, 62, 0
1, 25533, Note_off_c, 1, 57, 0
1, 25620, Note_off_c, 1, 77, 0
1, 25632, Note_on_c, 1, 79, 127
1, 25632, Note_on_c, 1, 55, 127
1, 25632, Note_on_c, 1, 67, 127
1, 25632, Note_on_c, 1, 43, 127
1, 25674, Note_off_c, 1, 55, 0
1, 25674, Note_off_c, 1, 43, 0
1, 25680, Note_on_c, 1, 50, 127
1, 25680, Note_on_c, 1, 38, 127
1, 25722, Note_off_c, 1, 50, 0
1, 25722, Note_off_c, 1, 38, 0
1, 25776, Note_on_c, 1, 31, 127
1, 25818, Note_off_c, 1, 31, 0
1, 25824, Note_on_c, 1, 60, 127
1, 25824, Note_on_c, 1, 76, 127
1, 25824, Note_on_c, 1, 48, 127
1, 25845, Note_off_c, 1, 48, 0
1, 25866, Note_off_c, 1, 67, 0
1, 25866, Note_off_c, 1, 60, 0
1, 25872, Note_on_c, 1, 64, 127
1, 25914, Note_off_c, 1, 64, 0
1, 26004, Note_off_c, 1, 79, 0
1, 26016, Note_on_c, 1, 81, 127
1, 26064, Note_on_c, 1, 52, 127
1, 26064, Note_on_c, 1, 40, 127
1, 26106, Note_off_c, 1, 52, 0
1, 26106, Note_off_c, 1, 40, 0
1, 26112, Note_on_c, 1, 36, 127
1, 26154, Note_off_c, 1, 36, 0
1, 26250, Note_off_c, 1, 76, 0
1, 26388, Note_off_c, 1, 81, 0
1, 26400, Note_on_c, 1, 74, 127
1, 26400, Note_on_c, 1, 65, 127
1, 26400, Note_on_c, 1, 59, 127
1, 26400, Note_on_c, 1, 77, 127
1, 26400, Note_on_c, 1, 68, 127
1, 26400, Note_on_c, 1, 47, 127
1, 26424, Note_on_c, 1, 72, 127
1, 26424, Note_on_c, 1, 67, 127
1, 26442, Note_off_c, 1, 65, 0
1, 26442, Note_off_c, 1, 59, 0
1, 26442, Note_off_c, 1, 47, 0
1, 26445, Note_off_c, 1, 72, 0
1, 26445, Note_off_c, 1, 67, 0
1, 26448, Note_on_c, 1, 71, 127
1, 26448, Note_on_c, 1, 62, 127
1, 26448, Note_on_c, 1, 56, 127
1, 26448, Note_on_c, 1, 44, 127
1, 26490, Note_off_c, 1, 71, 0
1, 26490, Note_off_c, 1, 62, 0
1, 26490, Note_off_c, 1, 56, 0
1, 26490, Note_off_c, 1, 44, 0
1, 26496, Note_on_c, 1, 53, 127
1, 26496, Note_on_c, 1, 41, 127
1, 26517, Note_off_c, 1, 77, 0
1, 26517, Note_off_c, 1, 68, 0
1, 26520, Note_on_c, 1, 76, 127
1, 26538, Note_off_c, 1, 53, 0
1, 26538, Note_off_c, 1, 41, 0
1, 26541, Note_off_c, 1, 76, 0
1, 26544, Note_on_c, 1, 50, 127
1, 26544, Note_on_c, 1, 38, 127
1, 26586, Note_off_c, 1, 50, 0
1, 26586, Note_off_c, 1, 38, 0
1, 26592, Note_on_c, 1, 80, 127
1, 26592, Note_on_c, 1, 35, 127
1, 26634, Note_off_c, 1, 80, 0
1, 26634, Note_off_c, 1, 35, 0
1, 26784, Note_on_c, 1, 83, 127
1, 26784, Note_on_c, 1, 43, 127
1, 26784, Note_on_c, 1, 31, 127
1, 26826, Note_off_c, 1, 74, 0
1, 26826, Note_off_c, 1, 83, 0
1, 26826, Note_off_c, 1, 43, 0
1, 26826, Note_off_c, 1, 31, 0
1, 26832, Note_on_c, 1, 86, 127
1, 26874, Note_off_c, 1, 86, 0
1, 26880, Note_on_c, 1, 74, 127
1, 26880, Note_on_c, 1, 65, 127
1, 26880, Note_on_c, 1, 79, 127
1, 26880, Note_on_c, 1, 71, 127
1, 26880, Note_on_c, 1, 47, 127
1, 26880, Note_on_c, 1, 35, 127
1, 26901, Note_off_c, 1, 65, 0
1, 26904, Note_on_c, 1, 76, 127
1, 26904, Note_on_c, 1, 69, 127
1, 26922, Note_off_c, 1, 74, 0
1, 26922, Note_off_c, 1, 79, 0
1, 26922, Note_off_c, 1, 71, 0
1, 26922, Note_off_c, 1, 47, 0
1, 26922, Note_off_c, 1, 35, 0
1, 26925, Note_off_c, 1, 76, 0
1, 26925, Note_off_c, 1, 69, 0
1, 26928, Note_on_c, 1, 72, 127
1, 26928, Note_on_c, 1, 67, 127
1, 26928, Note_on_c, 1, 83, 127
1, 26928, Note_on_c, 1, 79, 127
1, 26928, Note_on_c, 1, 74, 127
1, 26928, Note_on_c, 1, 43, 127
1, 26928, Note_on_c, 1, 71, 127
1, 26928, Note_on_c, 1, 31, 127
1, 26949, Note_off_c, 1, 72, 0
1, 26952, Note_on_c, 1, 65, 127
1, 26970, Note_off_c, 1, 67, 0
1, 26970, Note_off_c, 1, 83, 0
1, 26970, Note_off_c, 1, 79, 0
1, 26970, Note_off_c, 1, 43, 0
1, 26970, Note_off_c, 1, 71, 0
1, 26970, Note_off_c, 1, 31, 0
1, 26973, Note_off_c, 1, 74, 0
1, 26973, Note_off_c, 1, 65, 0
1, 26976, Note_on_c, 1, 76, 127
1, 26976, Note_on_c, 1, 67, 127
1, 26976, Note_on_c, 1, 84, 127
1, 26976, Note_on_c, 1, 79, 127
1, 26976, Note_on_c, 1, 58, 127
1, 26976, Note_on_c, 1, 60, 127
1, 26976, Note_on_c, 1, 46, 127
1, 26976, Note_on_c, 1, 64, 127
1, 26976, Note_on_c, 1, 72, 127
1, 27000, Note_on_c, 1, 74, 127
1, 27000, Note_on_c, 1, 65, 127
1, 27018, Note_off_c, 1, 60, 0
1, 27021, Note_off_c, 1, 74, 0
1, 27021, Note_off_c, 1, 65, 0
1, 27060, Note_off_c, 1, 67, 0
1, 27060, Note_off_c, 1, 84, 0
1, 27060, Note_off_c, 1, 58, 0
1, 27060, Note_off_c, 1, 46, 0
1, 27060, Note_off_c, 1, 64, 0
1, 27066, Note_off_c, 1, 76, 0
1, 27066, Note_off_c, 1, 79, 0
1, 27066, Note_off_c, 1, 72, 0
1, 27072, Note_on_c, 1, 76, 127
1, 27072, Note_on_c, 1, 67, 127
1, 27072, Note_on_c, 1, 72, 127
1, 27072, Note_on_c, 1, 64, 127
1, 27093, Note_off_c, 1, 76, 0
1, 27096, Note_on_c, 1, 77, 127
1, 27096, Note_on_c, 1, 69, 127
1, 27114, Note_off_c, 1, 67, 0
1, 27114, Note_off_c, 1, 72, 0
1, 27114, Note_off_c, 1, 64, 0
1, 27117, Note_off_c, 1, 77, 0
1, 27117, Note_off_c, 1, 69, 0
1, 27120, Note_on_c, 1, 74, 127
1, 27120, Note_on_c, 1, 65, 127
1, 27120, Note_on_c, 1, 79, 127
1, 27120, Note_on_c, 1, 76, 127
1, 27120, Note_on_c, 1, 72, 127
1, 27120, Note_on_c, 1, 46, 127
1, 27120, Note_on_c, 1, 67, 127
1, 27120, Note_on_c, 1, 34, 127
1, 27120, Note_on_c, 1, 64, 127
1, 27141, Note_off_c, 1, 74, 0
1, 27141, Note_off_c, 1, 65, 0
1, 27162, Note_off_c, 1, 79, 0
1, 27162, Note_off_c, 1, 72, 0
1, 27162, Note_off_c, 1, 46, 0
1, 27162, Note_off_c, 1, 34, 0
1, 27162, Note_off_c, 1, 64, 0
1, 27165, Note_off_c, 1, 76, 0
1, 27165, Note_off_c, 1, 67, 0
1, 27168, Note_on_c, 1, 77, 127
1, 27168, Note_on_c, 1, 69, 127
1, 27168, Note_on_c, 1, 81, 127
1, 27168, Note_on_c, 1, 72, 127
1, 27168, Note_on_c, 1, 45, 127
1, 27168, Note_on_c, 1, 33, 127
1, 27168, Note_on_c, 1, 65, 127
1, 27189, Note_off_c, 1, 77, 0
1, 27189, Note_off_c, 1, 81, 0
1, 27192, Note_on_c, 1, 70, 127
1, 27192, Note_on_c, 1, 79, 127
1, 27192, Note_on_c, 1, 76, 127
1, 27210, Note_off_c, 1, 69, 0
1, 27210, Note_off_c, 1, 72, 0
1, 27210, Note_off_c, 1, 45, 0
1, 27210, Note_off_c, 1, 33, 0
1, 27210, Note_off_c, 1, 65, 0
1, 27213, Note_off_c, 1, 70, 0
1, 27213, Note_off_c, 1, 79, 0
1, 27213, Note_off_c, 1, 76, 0
1, 27216, Note_on_c, 1, 69, 127
1, 27216, Note_on_c, 1, 53, 127
1, 27216, Note_on_c, 1, 77, 127
1, 27216, Note_on_c, 1, 74, 127
1, 27216, Note_on_c, 1, 46, 127
1, 27216, Note_on_c, 1, 34, 127
1, 27216, Note_on_c, 1, 65, 127
1, 27237, Note_off_c, 1, 69, 0
1, 27237, Note_off_c, 1, 77, 0
1, 27240, Note_on_c, 1, 67, 127
1, 27240, Note_on_c, 1, 79, 127
1, 27240, Note_on_c, 1, 76, 127
1, 27240, Note_on_c, 1, 72, 127
1, 27258, Note_off_c, 1, 53, 0
1, 27258, Note_off_c, 1, 74, 0
1, 27258, Note_off_c, 1, 46, 0
1, 27258, Note_off_c, 1, 34, 0
1, 27258, Note_off_c, 1, 65, 0
1, 27261, Note_off_c, 1, 67, 0
1, 27261, Note_off_c, 1, 79, 0
1, 27261, Note_off_c, 1, 76, 0
1, 27261, Note_off_c, 1, 72, 0
1, 27264, Note_on_c, 1, 67, 127
1, 27264, Note_on_c, 1, 57, 127
1, 27264, Note_on_c, 1, 76, 127
1, 27264, Note_on_c, 1, 72, 127
1, 27264, Note_on_c, 1, 70, 127
1, 27264, Note_on_c, 1, 48, 127
1, 27264, Note_on_c, 1, 36, 127
1, 27285, Note_off_c, 1, 70, 0
1, 27288, Note_on_c, 1, 69, 127
1, 27306, Note_off_c, 1, 57, 0
1, 27306, Note_off_c, 1, 48, 0
1, 27306, Note_off_c, 1, 36, 0
1, 27309, Note_off_c, 1, 69, 0
1, 27312, Note_on_c, 1, 60, 127
1, 27312, Note_on_c, 1, 24, 127
1, 27327, Note_off_c, 1, 72, 0
1, 27336, Note_on_c, 1, 65, 127
1, 27336, Note_on_c, 1, 77, 127
1, 27354, Note_off_c, 1, 76, 0
1, 27354, Note_off_c, 1, 60, 0
1, 27354, Note_off_c, 1, 24, 0
1, 27357, Note_off_c, 1, 67, 0
1, 27357, Note_off_c, 1, 65, 0
1, 27357, Note_off_c, 1, 77, 0
1, 27360, Note_on_c, 1, 65, 127
1, 27360, Note_on_c, 1, 57, 127
1, 27360, Note_on_c, 1, 77, 127
1, 27360, Note_on_c, 1, 72, 127
1, 27360, Note_on_c, 1, 69, 127
1, 27360, Note_on_c, 1, 41, 127
1, 27360, Note_on_c, 1, 29, 127
1, 27402, Note_off_c, 1, 57, 0
1, 27408, Note_on_c, 1, 53, 127
1, 27408, Note_on_c, 1, 60, 127
1, 27432, Note_on_c, 1, 76, 127
1, 27432, Note_on_c, 1, 70, 127
1, 27432, Note_on_c, 1, 67, 127
1, 27444, Note_off_c, 1, 77, 0
1, 27444, Note_off_c, 1, 72, 0
1, 27444, Note_off_c, 1, 69, 0
1, 27444, Note_off_c, 1, 41, 0
1, 27444, Note_off_c, 1, 29, 0
1, 27450, Note_off_c, 1, 65, 0
1, 27450, Note_off_c, 1, 53, 0
1, 27450, Note_off_c, 1, 60, 0
1, 27453, Note_off_c, 1, 76, 0
1, 27453, Note_off_c, 1, 70, 0
1, 27453, Note_off_c, 1, 67, 0
1, 27456, Note_on_c, 1, 57, 127
1, 27456, Note_on_c, 1, 77, 127
1, 27456, Note_on_c, 1, 72, 127
1, 27456, Note_on_c, 1, 69, 127
1, 27456, Note_on_c, 1, 65, 127
1, 27456, Note_on_c, 1, 60, 127
1, 27477, Note_off_c, 1, 77, 0
1, 27477, Note_off_c, 1, 72, 0
1, 27480, Note_on_c, 1, 76, 127
1, 27480, Note_on_c, 1, 70, 127
1, 27480, Note_on_c, 1, 67, 127
1, 27498, Note_off_c, 1, 57, 0
1, 27498, Note_off_c, 1, 69, 0
1, 27498, Note_off_c, 1, 65, 0
1, 27498, Note_off_c, 1, 60, 0
1, 27501, Note_off_c, 1, 76, 0
1, 27501, Note_off_c, 1, 70, 0
1, 27501, Note_off_c, 1, 67, 0
1, 27504, Note_on_c, 1, 60, 127
1, 27504, Note_on_c, 1, 77, 127
1, 27504, Note_on_c, 1, 72, 127
1, 27504, Note_on_c, 1, 69, 127
1, 27504, Note_on_c, 1, 48, 127
1, 27504, Note_on_c, 1, 67, 127
1, 27504, Note_on_c, 1, 64, 127
1, 27504, Note_on_c, 1, 36, 127
1, 27504, Note_on_c, 1, 76, 127
1, 27525, Note_off_c, 1, 77, 0
1, 27525, Note_off_c, 1, 69, 0
1, 27528, Note_on_c, 1, 70, 127
1, 27546, Note_off_c, 1, 60, 0
1, 27546, Note_off_c, 1, 72, 0
1, 27546, Note_off_c, 1, 48, 0
1, 27546, Note_off_c, 1, 64, 0
1, 27546, Note_off_c, 1, 36, 0
1, 27549, Note_off_c, 1, 67, 0
1, 27549, Note_off_c, 1, 76, 0
1, 27549, Note_off_c, 1, 70, 0
1, 27552, Note_on_c, 1, 65, 127
1, 27552, Note_on_c, 1, 77, 127
1, 27552, Note_on_c, 1, 69, 127
1, 27552, Note_on_c, 1, 50, 127
1, 27552, Note_on_c, 1, 57, 127
1, 27552, Note_on_c, 1, 38, 127
1, 27576, Note_on_c, 1, 67, 127
1, 27576, Note_on_c, 1, 64, 127
1, 27594, Note_off_c, 1, 65, 0
1, 27594, Note_off_c, 1, 77, 0
1, 27594, Note_off_c, 1, 69, 0
1, 27594, Note_off_c, 1, 50, 0
1, 27594, Note_off_c, 1, 57, 0
1, 27594, Note_off_c, 1, 38, 0
1, 27597, Note_off_c, 1, 67, 0
1, 27597, Note_off_c, 1, 64, 0
1, 27600, Note_on_c, 1, 60, 127
1, 27600, Note_on_c, 1, 72, 127
1, 27600, Note_on_c, 1, 69, 127
1, 27600, Note_on_c, 1, 65, 127
1, 27600, Note_on_c, 1, 45, 127
1, 27600, Note_on_c, 1, 33, 127
1, 27621, Note_off_c, 1, 69, 0
1, 27624, Note_on_c, 1, 67, 127
1, 27624, Note_on_c, 1, 64, 127
1, 27642, Note_off_c, 1, 60, 0
1, 27642, Note_off_c, 1, 72, 0
1, 27642, Note_off_c, 1, 65, 0
1, 27642, Note_off_c, 1, 45, 0
1, 27642, Note_off_c, 1, 33, 0
1, 27645, Note_off_c, 1, 67, 0
1, 27645, Note_off_c, 1, 64, 0
1, 27648, Note_on_c, 1, 57, 127
1, 27648, Note_on_c, 1, 74, 127
1, 27648, Note_on_c, 1, 69, 127
1, 27648, Note_on_c, 1, 62, 127
1, 27648, Note_on_c, 1, 46, 127
1, 27648, Note_on_c, 1, 34, 127
1, 27648, Note_on_c, 1, 65, 127
1, 27669, Note_off_c, 1, 57, 0
1, 27669, Note_off_c, 1, 69, 0
1, 27672, Note_on_c, 1, 53, 127
1, 27672, Note_on_c, 1, 67, 127
1, 27690, Note_off_c, 1, 74, 0
1, 27690, Note_off_c, 1, 62, 0
1, 27690, Note_off_c, 1, 46, 0
1, 27690, Note_off_c, 1, 34, 0
1, 27690, Note_off_c, 1, 65, 0
1, 27693, Note_off_c, 1, 53, 0
1, 27693, Note_off_c, 1, 67, 0
1, 27696, Note_on_c, 1, 57, 127
1, 27696, Note_on_c, 1, 72, 127
1, 27696, Note_on_c, 1, 69, 127
1, 27696, Note_on_c, 1, 64, 127
1, 27696, Note_on_c, 1, 48, 127
1, 27696, Note_on_c, 1, 36, 127
1, 27696, Note_on_c, 1, 67, 127
1, 27696, Note_on_c, 1, 76, 127
1, 27717, Note_off_c, 1, 72, 0
1, 27717, Note_off_c, 1, 69, 0
1, 27720, Note_on_c, 1, 70, 127
1, 27738, Note_off_c, 1, 57, 0
1, 27738, Note_off_c, 1, 64, 0
1, 27738, Note_off_c, 1, 48, 0
1, 27738, Note_off_c, 1, 36, 0
1, 27738, Note_off_c, 1, 76, 0
1, 27741, Note_off_c, 1, 67, 0
1, 27741, Note_off_c, 1, 70, 0
1, 27744, Note_on_c, 1, 60, 127
1, 27744, Note_on_c, 1, 69, 127
1, 27744, Note_on_c, 1, 65, 127
1, 27744, Note_on_c, 1, 41, 127
1, 27744, Note_on_c, 1, 29, 127
1, 27744, Note_on_c, 1, 72, 127
1, 27768, Note_on_c, 1, 67, 127
1, 27786, Note_off_c, 1, 69, 0
1, 27786, Note_off_c, 1, 65, 0
1, 27786, Note_off_c, 1, 41, 0
1, 27786, Note_off_c, 1, 29, 0
1, 27786, Note_off_c, 1, 72, 0
1, 27789, Note_off_c, 1, 67, 0
1, 27792, Note_on_c, 1, 53, 127
1, 27792, Note_on_c, 1, 57, 127
1, 27813, Note_off_c, 1, 53, 0
1, 27816, Note_on_c, 1, 52, 127
1, 27816, Note_on_c, 1, 40, 127
1, 27834, Note_off_c, 1, 57, 0
1, 27835, Note_off_c, 1, 60, 0
1, 27837, Note_off_c, 1, 52, 0
1, 27837, Note_off_c, 1, 40, 0
1, 27840, Note_on_c, 1, 65, 127
1, 27840, Note_on_c, 1, 60, 127
1, 27840, Note_on_c, 1, 69, 127
1, 27840, Note_on_c, 1, 53, 127
1, 27840, Note_on_c, 1, 41, 127
1, 27840, Note_on_c, 1, 72, 127
1, 27861, Note_off_c, 1, 53, 0
1, 27861, Note_off_c, 1, 41, 0
1, 27864, Note_on_c, 1, 71, 127
1, 27864, Note_on_c, 1, 67, 127
1, 27864, Note_on_c, 1, 52, 127
1, 27864, Note_on_c, 1, 40, 127
1, 27882, Note_off_c, 1, 65, 0
1, 27882, Note_off_c, 1, 69, 0
1, 27882, Note_off_c, 1, 72, 0
1, 27885, Note_off_c, 1, 71, 0
1, 27885, Note_off_c, 1, 67, 0
1, 27885, Note_off_c, 1, 52, 0
1, 27885, Note_off_c, 1, 40, 0
1, 27900, Note_off_c, 1, 60, 0
1, 27912, Note_on_c, 1, 50, 127
1, 27912, Note_on_c, 1, 38, 127
1, 27933, Note_off_c, 1, 50, 0
1, 27933, Note_off_c, 1, 38, 0
1, 27936, Note_on_c, 1, 72, 127
1, 27936, Note_on_c, 1, 60, 127
1, 27936, Note_on_c, 1, 67, 127
1, 27936, Note_on_c, 1, 64, 127
1, 27936, Note_on_c, 1, 52, 127
1, 27936, Note_on_c, 1, 40, 127
1, 27957, Note_off_c, 1, 64, 0
1, 27960, Note_on_c, 1, 74, 127
1, 27960, Note_on_c, 1, 65, 127
1, 27978, Note_off_c, 1, 72, 0
1, 27978, Note_off_c, 1, 67, 0
1, 27978, Note_off_c, 1, 52, 0
1, 27978, Note_off_c, 1, 40, 0
1, 27981, Note_off_c, 1, 74, 0
1, 27981, Note_off_c, 1, 65, 0
1, 27984, Note_on_c, 1, 76, 127
1, 27984, Note_on_c, 1, 48, 127
1, 27984, Note_on_c, 1, 36, 127
1, 27999, Note_off_c, 1, 60, 0
1, 28008, Note_on_c, 1, 69, 127
1, 28026, Note_off_c, 1, 76, 0
1, 28026, Note_off_c, 1, 48, 0
1, 28026, Note_off_c, 1, 36, 0
1, 28029, Note_off_c, 1, 69, 0
1, 28032, Note_on_c, 1, 67, 127
1, 28032, Note_on_c, 1, 77, 127
1, 28032, Note_on_c, 1, 72, 127
1, 28032, Note_on_c, 1, 65, 127
1, 28032, Note_on_c, 1, 50, 127
1, 28032, Note_on_c, 1, 38, 127
1, 28032, Note_on_c, 1, 74, 127
1, 28053, Note_off_c, 1, 77, 0
1, 28056, Note_on_c, 1, 60, 127
1, 28056, Note_on_c, 1, 76, 127
1, 28074, Note_off_c, 1, 67, 0
1, 28074, Note_off_c, 1, 72, 0
1, 28074, Note_off_c, 1, 65, 0
1, 28074, Note_off_c, 1, 50, 0
1, 28074, Note_off_c, 1, 38, 0
1, 28074, Note_off_c, 1, 74, 0
1, 28077, Note_off_c, 1, 60, 0
1, 28077, Note_off_c, 1, 76, 0
1, 28080, Note_on_c, 1, 67, 127
1, 28080, Note_on_c, 1, 77, 127
1, 28080, Note_on_c, 1, 71, 127
1, 28080, Note_on_c, 1, 43, 127
1, 28080, Note_on_c, 1, 31, 127
1, 28080, Note_on_c, 1, 74, 127
1, 28101, Note_off_c, 1, 77, 0
1, 28104, Note_on_c, 1, 79, 127
1, 28122, Note_off_c, 1, 71, 0
1, 28122, Note_off_c, 1, 43, 0
1, 28122, Note_off_c, 1, 31, 0
1, 28122, Note_off_c, 1, 74, 0
1, 28125, Note_off_c, 1, 79, 0
1, 28128, Note_on_c, 1, 76, 127
1, 28128, Note_on_c, 1, 72, 127
1, 28128, Note_on_c, 1, 48, 127
1, 28128, Note_on_c, 1, 36, 127
1, 28149, Note_off_c, 1, 72, 0
1, 28170, Note_off_c, 1, 76, 0
1, 28170, Note_off_c, 1, 48, 0
1, 28170, Note_off_c, 1, 36, 0
1, 28176, Note_on_c, 1, 52, 127
1, 28176, Note_on_c, 1, 40, 127
1, 28218, Note_off_c, 1, 52, 0
1, 28218, Note_off_c, 1, 40, 0
1, 28219, Note_off_c, 1, 67, 0
1, 28224, Note_on_c, 1, 67, 127
1, 28224, Note_on_c, 1, 79, 127
1, 28224, Note_on_c, 1, 76, 127
1, 28224, Note_on_c, 1, 72, 127
1, 28224, Note_on_c, 1, 48, 127
1, 28224, Note_on_c, 1, 64, 127
1, 28224, Note_on_c, 1, 36, 127
1, 28245, Note_off_c, 1, 79, 0
1, 28248, Note_on_c, 1, 77, 127
1, 28266, Note_off_c, 1, 48, 0
1, 28266, Note_off_c, 1, 64, 0
1, 28266, Note_off_c, 1, 36, 0
1, 28269, Note_off_c, 1, 77, 0
1, 28272, Note_on_c, 1, 47, 127
1, 28272, Note_on_c, 1, 62, 127
1, 28272, Note_on_c, 1, 35, 127
1, 28272, Note_on_c, 1, 74, 127
1, 28314, Note_off_c, 1, 67, 0
1, 28314, Note_off_c, 1, 47, 0
1, 28314, Note_off_c, 1, 62, 0
1, 28314, Note_off_c, 1, 35, 0
1, 28314, Note_off_c, 1, 74, 0
1, 28320, Note_on_c, 1, 45, 127
1, 28320, Note_on_c, 1, 60, 127
1, 28320, Note_on_c, 1, 33, 127
1, 28362, Note_off_c, 1, 76, 0
1, 28362, Note_off_c, 1, 45, 0
1, 28362, Note_off_c, 1, 60, 0
1, 28362, Note_off_c, 1, 33, 0
1, 28365, Note_off_c, 1, 72, 0
1, 28368, Note_on_c, 1, 77, 127
1, 28368, Note_on_c, 1, 74, 127
1, 28368, Note_on_c, 1, 69, 127
1, 28368, Note_on_c, 1, 50, 127
1, 28368, Note_on_c, 1, 38, 127
1, 28368, Note_on_c, 1, 65, 127
1, 28389, Note_off_c, 1, 77, 0
1, 28389, Note_off_c, 1, 74, 0
1, 28392, Note_on_c, 1, 76, 127
1, 28392, Note_on_c, 1, 72, 127
1, 28410, Note_off_c, 1, 69, 0
1, 28410, Note_off_c, 1, 50, 0
1, 28410, Note_off_c, 1, 38, 0
1, 28410, Note_off_c, 1, 65, 0
1, 28413, Note_off_c, 1, 76, 0
1, 28413, Note_off_c, 1, 72, 0
1, 28416, Note_on_c, 1, 77, 127
1, 28416, Note_on_c, 1, 74, 127
1, 28416, Note_on_c, 1, 67, 127
1, 28416, Note_on_c, 1, 47, 127
1, 28416, Note_on_c, 1, 62, 127
1, 28416, Note_on_c, 1, 35, 127
1, 28416, Note_on_c, 1, 65, 127
1, 28437, Note_off_c, 1, 77, 0
1, 28440, Note_on_c, 1, 76, 127
1, 28458, Note_off_c, 1, 67, 0
1, 28458, Note_off_c, 1, 47, 0
1, 28458, Note_off_c, 1, 62, 0
1, 28458, Note_off_c, 1, 35, 0
1, 28458, Note_off_c, 1, 65, 0
1, 28461, Note_off_c, 1, 76, 0
1, 28464, Note_on_c, 1, 69, 127
1, 28464, Note_on_c, 1, 45, 127
1, 28464, Note_on_c, 1, 60, 127
1, 28464, Note_on_c, 1, 33, 127
1, 28464, Note_on_c, 1, 72, 127
1, 28506, Note_off_c, 1, 69, 0
1, 28506, Note_off_c, 1, 45, 0
1, 28506, Note_off_c, 1, 60, 0
1, 28506, Note_off_c, 1, 33, 0
1, 28506, Note_off_c, 1, 72, 0
1, 28512, Note_on_c, 1, 71, 127
1, 28512, Note_on_c, 1, 43, 127
1, 28512, Note_on_c, 1, 59, 127
1, 28512, Note_on_c, 1, 31, 127
1, 28554, Note_off_c, 1, 74, 0
1, 28554, Note_off_c, 1, 43, 0
1, 28554, Note_off_c, 1, 59, 0
1, 28554, Note_off_c, 1, 31, 0
1, 28557, Note_off_c, 1, 71, 0
1, 28560, Note_on_c, 1, 76, 127
1, 28560, Note_on_c, 1, 72, 127
1, 28560, Note_on_c, 1, 64, 127
1, 28560, Note_on_c, 1, 48, 127
1, 28560, Note_on_c, 1, 67, 127
1, 28560, Note_on_c, 1, 36, 127
1, 28581, Note_off_c, 1, 72, 0
1, 28584, Note_on_c, 1, 74, 127
1, 28584, Note_on_c, 1, 71, 127
1, 28602, Note_off_c, 1, 76, 0
1, 28602, Note_off_c, 1, 64, 0
1, 28602, Note_off_c, 1, 48, 0
1, 28602, Note_off_c, 1, 67, 0
1, 28602, Note_off_c, 1, 36, 0
1, 28605, Note_off_c, 1, 74, 0
1, 28605, Note_off_c, 1, 71, 0
1, 28608, Note_on_c, 1, 76, 127
1, 28608, Note_on_c, 1, 72, 127
1, 28608, Note_on_c, 1, 69, 127
1, 28608, Note_on_c, 1, 45, 127
1, 28608, Note_on_c, 1, 60, 127
1, 28608, Note_on_c, 1, 33, 127
1, 28608, Note_on_c, 1, 65, 127
1, 28629, Note_off_c, 1, 76, 0
1, 28632, Note_on_c, 1, 74, 127
1, 28650, Note_off_c, 1, 45, 0
1, 28650, Note_off_c, 1, 60, 0
1, 28650, Note_off_c, 1, 33, 0
1, 28650, Note_off_c, 1, 65, 0
1, 28653, Note_off_c, 1, 74, 0
1, 28656, Note_on_c, 1, 43, 127
1, 28656, Note_on_c, 1, 58, 127
1, 28656, Note_on_c, 1, 31, 127
1, 28656, Note_on_c, 1, 70, 127
1, 28698, Note_off_c, 1, 43, 0
1, 28698, Note_off_c, 1, 58, 0
1, 28698, Note_off_c, 1, 31, 0
1, 28698, Note_off_c, 1, 70, 0
1, 28704, Note_on_c, 1, 41, 127
1, 28704, Note_on_c, 1, 57, 127
1, 28704, Note_on_c, 1, 29, 127
1, 28746, Note_off_c, 1, 57, 0
1, 28752, Note_on_c, 1, 81, 127
1, 28773, Note_off_c, 1, 81, 0
1, 28776, Note_on_c, 1, 79, 127
1, 28788, Note_off_c, 1, 72, 0
1, 28788, Note_off_c, 1, 69, 0
1, 28788, Note_off_c, 1, 41, 0
1, 28788, Note_off_c, 1, 29, 0
1, 28797, Note_off_c, 1, 79, 0
1, 28800, Note_on_c, 1, 77, 127
1, 28800, Note_on_c, 1, 69, 127
1, 28800, Note_on_c, 1, 60, 127
1, 28800, Note_on_c, 1, 65, 127
1, 28821, Note_off_c, 1, 77, 0
1, 28821, Note_off_c, 1, 69, 0
1, 28824, Note_on_c, 1, 76, 127
1, 28824, Note_on_c, 1, 67, 127
1, 28842, Note_off_c, 1, 60, 0
1, 28842, Note_off_c, 1, 65, 0
1, 28845, Note_off_c, 1, 76, 0
1, 28845, Note_off_c, 1, 67, 0
1, 28848, Note_on_c, 1, 74, 127
1, 28848, Note_on_c, 1, 65, 127
1, 28848, Note_on_c, 1, 69, 127
1, 28848, Note_on_c, 1, 53, 127
1, 28848, Note_on_c, 1, 41, 127
1, 28869, Note_off_c, 1, 65, 0
1, 28872, Note_on_c, 1, 72, 127
1, 28872, Note_on_c, 1, 64, 127
1, 28890, Note_off_c, 1, 74, 0
1, 28890, Note_off_c, 1, 69, 0
1, 28893, Note_off_c, 1, 72, 0
1, 28893, Note_off_c, 1, 64, 0
1, 28896, Note_on_c, 1, 71, 127
1, 28896, Note_on_c, 1, 62, 127
1, 28896, Note_on_c, 1, 67, 127
1, 28917, Note_off_c, 1, 53, 0
1, 28917, Note_off_c, 1, 41, 0
1, 28920, Note_on_c, 1, 55, 127
1, 28920, Note_on_c, 1, 43, 127
1, 28941, Note_off_c, 1, 55, 0
1, 28941, Note_off_c, 1, 43, 0
1, 28968, Note_on_c, 1, 52, 127
1, 28968, Note_on_c, 1, 40, 127
1, 28980, Note_off_c, 1, 71, 0
1, 28980, Note_off_c, 1, 62, 0
1, 28980, Note_off_c, 1, 67, 0
1, 28989, Note_off_c, 1, 52, 0
1, 28989, Note_off_c, 1, 40, 0
1, 28992, Note_on_c, 1, 71, 127
1, 28992, Note_on_c, 1, 50, 127
1, 28992, Note_on_c, 1, 38, 127
1, 29013, Note_off_c, 1, 71, 0
1, 29013, Note_off_c, 1, 50, 0
1, 29013, Note_off_c, 1, 38, 0
1, 29016, Note_on_c, 1, 72, 127
1, 29016, Note_on_c, 1, 48, 127
1, 29016, Note_on_c, 1, 36, 127
1, 29037, Note_off_c, 1, 72, 0
1, 29037, Note_off_c, 1, 48, 0
1, 29037, Note_off_c, 1, 36, 0
1, 29040, Note_on_c, 1, 74, 127
1, 29040, Note_on_c, 1, 77, 127
1, 29040, Note_on_c, 1, 67, 127
1, 29040, Note_on_c, 1, 47, 127
1, 29040, Note_on_c, 1, 35, 127
1, 29061, Note_off_c, 1, 74, 0
1, 29061, Note_off_c, 1, 47, 0
1, 29061, Note_off_c, 1, 35, 0
1, 29064, Note_on_c, 1, 76, 127
1, 29064, Note_on_c, 1, 45, 127
1, 29064, Note_on_c, 1, 33, 127
1, 29082, Note_off_c, 1, 77, 0
1, 29082, Note_off_c, 1, 67, 0
1, 29085, Note_off_c, 1, 76, 0
1, 29085, Note_off_c, 1, 45, 0
1, 29085, Note_off_c, 1, 33, 0
1, 29088, Note_on_c, 1, 77, 127
1, 29088, Note_on_c, 1, 71, 127
1, 29088, Note_on_c, 1, 62, 127
1, 29088, Note_on_c, 1, 43, 127
1, 29088, Note_on_c, 1, 31, 127
1, 29130, Note_off_c, 1, 71, 0
1, 29130, Note_off_c, 1, 62, 0
1, 29130, Note_off_c, 1, 43, 0
1, 29130, Note_off_c, 1, 31, 0
1, 29136, Note_on_c, 1, 72, 127
1, 29136, Note_on_c, 1, 64, 127
1, 29136, Note_on_c, 1, 48, 127
1, 29136, Note_on_c, 1, 36, 127
1, 29136, Note_on_c, 1, 67, 127
1, 29136, Note_on_c, 1, 76, 127
1, 29151, Note_off_c, 1, 77, 0
1, 29157, Note_off_c, 1, 72, 0
1, 29157, Note_off_c, 1, 64, 0
1, 29160, Note_on_c, 1, 79, 127
1, 29160, Note_on_c, 1, 74, 127
1, 29160, Note_on_c, 1, 65, 127
1, 29178, Note_off_c, 1, 48, 0
1, 29178, Note_off_c, 1, 36, 0
1, 29178, Note_off_c, 1, 67, 0
1, 29178, Note_off_c, 1, 76, 0
1, 29181, Note_off_c, 1, 79, 0
1, 29181, Note_off_c, 1, 74, 0
1, 29181, Note_off_c, 1, 65, 0
1, 29184, Note_on_c, 1, 74, 127
1, 29184, Note_on_c, 1, 71, 127
1, 29184, Note_on_c, 1, 67, 127
1, 29184, Note_on_c, 1, 55, 127
1, 29184, Note_on_c, 1, 43, 127
1, 29226, Note_off_c, 1, 67, 0
1, 29226, Note_off_c, 1, 55, 0
1, 29226, Note_off_c, 1, 43, 0
1, 29232, Note_on_c, 1, 62, 127
1, 29232, Note_on_c, 1, 31, 127
1, 29247, Note_off_c, 1, 74, 0
1, 29256, Note_on_c, 1, 72, 127
1, 29274, Note_off_c, 1, 71, 0
1, 29274, Note_off_c, 1, 62, 0
1, 29274, Note_off_c, 1, 31, 0
1, 29277, Note_off_c, 1, 72, 0
1, 29280, Note_on_c, 1, 72, 127
1, 29280, Note_on_c, 1, 64, 127
1, 29280, Note_on_c, 1, 48, 127
1, 29280, Note_on_c, 1, 67, 127
1, 29280, Note_on_c, 1, 36, 127
1, 29280, Note_on_c, 1, 76, 127
1, 29322, Note_off_c, 1, 72, 0
1, 29322, Note_off_c, 1, 64, 0
1, 29322, Note_off_c, 1, 48, 0
1, 29322, Note_off_c, 1, 67, 0
1, 29322, Note_off_c, 1, 36, 0
1, 29322, Note_off_c, 1, 76, 0
1, 29328, Note_on_c, 1, 67, 127
1, 29328, Note_on_c, 1, 64, 127
1, 29328, Note_on_c, 1, 60, 127
1, 29349, Note_off_c, 1, 60, 0
1, 29352, Note_on_c, 1, 62, 127
1, 29370, Note_off_c, 1, 67, 0
1, 29370, Note_off_c, 1, 64, 0
1, 29373, Note_off_c, 1, 62, 0
1, 29376, Note_on_c, 1, 69, 127
1, 29376, Note_on_c, 1, 66, 127
1, 29376, Note_on_c, 1, 60, 127
1, 29397, Note_off_c, 1, 60, 0
1, 29400, Note_on_c, 1, 58, 127
1, 29418, Note_off_c, 1, 69, 0
1, 29418, Note_off_c, 1, 66, 0
1, 29421, Note_off_c, 1, 58, 0
1, 29424, Note_on_c, 1, 70, 127
1, 29424, Note_on_c, 1, 67, 127
1, 29424, Note_on_c, 1, 57, 127
1, 29445, Note_off_c, 1, 57, 0
1, 29448, Note_on_c, 1, 55, 127
1, 29466, Note_off_c, 1, 70, 0
1, 29466, Note_off_c, 1, 67, 0
1, 29469, Note_off_c, 1, 55, 0
1, 29472, Note_on_c, 1, 72, 127
1, 29472, Note_on_c, 1, 69, 127
1, 29472, Note_on_c, 1, 54, 127
1, 29514, Note_off_c, 1, 72, 0
1, 29514, Note_off_c, 1, 69, 0
1, 29514, Note_off_c, 1, 54, 0
1, 29520, Note_on_c, 1, 74, 127
1, 29520, Note_on_c, 1, 66, 127
1, 29520, Note_on_c, 1, 50, 127
1, 29520, Note_on_c, 1, 62, 127
1, 29520, Note_on_c, 1, 38, 127
1, 29544, Note_on_c, 1, 75, 127
1, 29544, Note_on_c, 1, 72, 127
1, 29562, Note_off_c, 1, 74, 0
1, 29562, Note_off_c, 1, 66, 0
1, 29562, Note_off_c, 1, 50, 0
1, 29562, Note_off_c, 1, 62, 0
1, 29562, Note_off_c, 1, 38, 0
1, 29565, Note_off_c, 1, 75, 0
1, 29565, Note_off_c, 1, 72, 0
1, 29568, Note_on_c, 1, 74, 127
1, 29568, Note_on_c, 1, 67, 127
1, 29568, Note_on_c, 1, 70, 127
1, 29568, Note_on_c, 1, 52, 127
1, 29568, Note_on_c, 1, 55, 127
1, 29568, Note_on_c, 1, 40, 127
1, 29592, Note_on_c, 1, 72, 127
1, 29610, Note_off_c, 1, 74, 0
1, 29610, Note_off_c, 1, 67, 0
1, 29610, Note_off_c, 1, 70, 0
1, 29610, Note_off_c, 1, 52, 0
1, 29610, Note_off_c, 1, 55, 0
1, 29610, Note_off_c, 1, 40, 0
1, 29613, Note_off_c, 1, 72, 0
1, 29616, Note_on_c, 1, 70, 127
1, 29616, Note_on_c, 1, 69, 127
1, 29616, Note_on_c, 1, 54, 127
1, 29616, Note_on_c, 1, 62, 127
1, 29616, Note_on_c, 1, 42, 127
1, 29616, Note_on_c, 1, 74, 127
1, 29637, Note_off_c, 1, 70, 0
1, 29658, Note_off_c, 1, 54, 0
1, 29658, Note_off_c, 1, 62, 0
1, 29658, Note_off_c, 1, 42, 0
1, 29658, Note_off_c, 1, 74, 0
1, 29661, Note_off_c, 1, 69, 0
1, 29664, Note_on_c, 1, 70, 127
1, 29664, Note_on_c, 1, 62, 127
1, 29664, Note_on_c, 1, 67, 127
1, 29664, Note_on_c, 1, 55, 127
1, 29664, Note_on_c, 1, 43, 127
1, 29688, Note_on_c, 1, 50, 127
1, 29706, Note_off_c, 1, 70, 0
1, 29706, Note_off_c, 1, 62, 0
1, 29706, Note_off_c, 1, 67, 0
1, 29706, Note_off_c, 1, 55, 0
1, 29706, Note_off_c, 1, 43, 0
1, 29709, Note_off_c, 1, 50, 0
1, 29712, Note_on_c, 1, 74, 127
1, 29712, Note_on_c, 1, 70, 127
1, 29712, Note_on_c, 1, 55, 127
1, 29733, Note_off_c, 1, 55, 0
1, 29736, Note_on_c, 1, 57, 127
1, 29754, Note_off_c, 1, 74, 0
1, 29754, Note_off_c, 1, 70, 0
1, 29757, Note_off_c, 1, 57, 0
1, 29760, Note_on_c, 1, 76, 127
1, 29760, Note_on_c, 1, 67, 127
1, 29760, Note_on_c, 1, 55, 127
1, 29781, Note_off_c, 1, 55, 0
1, 29784, Note_on_c, 1, 53, 127
1, 29802, Note_off_c, 1, 76, 0
1, 29802, Note_off_c, 1, 67, 0
1, 29805, Note_off_c, 1, 53, 0
1, 29808, Note_on_c, 1, 77, 127
1, 29808, Note_on_c, 1, 69, 127
1, 29808, Note_on_c, 1, 52, 127
1, 29829, Note_off_c, 1, 52, 0
1, 29832, Note_on_c, 1, 50, 127
1, 29850, Note_off_c, 1, 77, 0
1, 29850, Note_off_c, 1, 69, 0
1, 29853, Note_off_c, 1, 50, 0
1, 29856, Note_on_c, 1, 79, 127
1, 29856, Note_on_c, 1, 70, 127
1, 29856, Note_on_c, 1, 48, 127
1, 29898, Note_off_c, 1, 79, 0
1, 29898, Note_off_c, 1, 70, 0
1, 29898, Note_off_c, 1, 48, 0
1, 29904, Note_on_c, 1, 81, 127
1, 29904, Note_on_c, 1, 72, 127
1, 29904, Note_on_c, 1, 69, 127
1, 29904, Note_on_c, 1, 45, 127
1, 29904, Note_on_c, 1, 64, 127
1, 29904, Note_on_c, 1, 33, 127
1, 29925, Note_off_c, 1, 81, 0
1, 29928, Note_on_c, 1, 82, 127
1, 29928, Note_on_c, 1, 67, 127
1, 29946, Note_off_c, 1, 72, 0
1, 29946, Note_off_c, 1, 69, 0
1, 29946, Note_off_c, 1, 45, 0
1, 29946, Note_off_c, 1, 64, 0
1, 29946, Note_off_c, 1, 33, 0
1, 29949, Note_off_c, 1, 82, 0
1, 29949, Note_off_c, 1, 67, 0
1, 29952, Note_on_c, 1, 81, 127
1, 29952, Note_on_c, 1, 74, 127
1, 29952, Note_on_c, 1, 65, 127
1, 29952, Note_on_c, 1, 46, 127
1, 29952, Note_on_c, 1, 62, 127
1, 29952, Note_on_c, 1, 34, 127
1, 29952, Note_on_c, 1, 70, 127
1, 29973, Note_off_c, 1, 81, 0
1, 29976, Note_on_c, 1, 79, 127
1, 29994, Note_off_c, 1, 74, 0
1, 29994, Note_off_c, 1, 65, 0
1, 29994, Note_off_c, 1, 46, 0
1, 29994, Note_off_c, 1, 62, 0
1, 29994, Note_off_c, 1, 34, 0
1, 29994, Note_off_c, 1, 70, 0
1, 29997, Note_off_c, 1, 79, 0
1, 30000, Note_on_c, 1, 77, 127
1, 30000, Note_on_c, 1, 76, 127
1, 30000, Note_on_c, 1, 64, 127
1, 30000, Note_on_c, 1, 48, 127
1, 30000, Note_on_c, 1, 69, 127
1, 30000, Note_on_c, 1, 36, 127
1, 30021, Note_off_c, 1, 77, 0
1, 30042, Note_off_c, 1, 64, 0
1, 30042, Note_off_c, 1, 48, 0
1, 30042, Note_off_c, 1, 69, 0
1, 30042, Note_off_c, 1, 36, 0
1, 30045, Note_off_c, 1, 76, 0
1, 30048, Note_on_c, 1, 77, 127
1, 30048, Note_on_c, 1, 69, 127
1, 30048, Note_on_c, 1, 62, 127
1, 30048, Note_on_c, 1, 50, 127
1, 30048, Note_on_c, 1, 57, 127
1, 30048, Note_on_c, 1, 38, 127
1, 30048, Note_on_c, 1, 65, 127
1, 30048, Note_on_c, 1, 74, 127
1, 30069, Note_off_c, 1, 77, 0
1, 30090, Note_off_c, 1, 69, 0
1, 30090, Note_off_c, 1, 62, 0
1, 30090, Note_off_c, 1, 50, 0
1, 30090, Note_off_c, 1, 57, 0
1, 30090, Note_off_c, 1, 38, 0
1, 30090, Note_off_c, 1, 65, 0
1, 30093, Note_off_c, 1, 74, 0
1, 30096, Note_on_c, 1, 82, 127
1, 30096, Note_on_c, 1, 74, 127
1, 30096, Note_on_c, 1, 62, 127
1, 30096, Note_on_c, 1, 43, 127
1, 30096, Note_on_c, 1, 58, 127
1, 30096, Note_on_c, 1, 31, 127
1, 30096, Note_on_c, 1, 70, 127
1, 30117, Note_off_c, 1, 82, 0
1, 30117, Note_off_c, 1, 74, 0
1, 30120, Note_on_c, 1, 84, 127
1, 30120, Note_on_c, 1, 75, 127
1, 30138, Note_off_c, 1, 62, 0
1, 30138, Note_off_c, 1, 43, 0
1, 30138, Note_off_c, 1, 58, 0
1, 30138, Note_off_c, 1, 31, 0
1, 30138, Note_off_c, 1, 70, 0
1, 30141, Note_off_c, 1, 84, 0
1, 30141, Note_off_c, 1, 75, 0
1, 30144, Note_on_c, 1, 82, 127
1, 30144, Note_on_c, 1, 74, 127
1, 30144, Note_on_c, 1, 60, 127
1, 30144, Note_on_c, 1, 45, 127
1, 30144, Note_on_c, 1, 33, 127
1, 30144, Note_on_c, 1, 65, 127
1, 30144, Note_on_c, 1, 72, 127
1, 30165, Note_off_c, 1, 82, 0
1, 30165, Note_off_c, 1, 74, 0
1, 30168, Note_on_c, 1, 81, 127
1, 30186, Note_off_c, 1, 60, 0
1, 30186, Note_off_c, 1, 45, 0
1, 30186, Note_off_c, 1, 33, 0
1, 30186, Note_off_c, 1, 65, 0
1, 30189, Note_off_c, 1, 72, 0
1, 30189, Note_off_c, 1, 81, 0
1, 30192, Note_on_c, 1, 79, 127
1, 30192, Note_on_c, 1, 70, 127
1, 30192, Note_on_c, 1, 62, 127
1, 30192, Note_on_c, 1, 46, 127
1, 30192, Note_on_c, 1, 34, 127
1, 30192, Note_on_c, 1, 67, 127
1, 30192, Note_on_c, 1, 74, 127
1, 30213, Note_off_c, 1, 79, 0
1, 30213, Note_off_c, 1, 70, 0
1, 30216, Note_on_c, 1, 77, 127
1, 30216, Note_on_c, 1, 69, 127
1, 30234, Note_off_c, 1, 62, 0
1, 30234, Note_off_c, 1, 46, 0
1, 30234, Note_off_c, 1, 34, 0
1, 30234, Note_off_c, 1, 67, 0
1, 30234, Note_off_c, 1, 74, 0
1, 30237, Note_off_c, 1, 77, 0
1, 30237, Note_off_c, 1, 69, 0
1, 30240, Note_on_c, 1, 76, 127
1, 30240, Note_on_c, 1, 67, 127
1, 30240, Note_on_c, 1, 64, 127
1, 30240, Note_on_c, 1, 48, 127
1, 30240, Note_on_c, 1, 55, 127
1, 30240, Note_on_c, 1, 36, 127
1, 30282, Note_off_c, 1, 76, 0
1, 30282, Note_off_c, 1, 67, 0
1, 30282, Note_off_c, 1, 64, 0
1, 30282, Note_off_c, 1, 48, 0
1, 30282, Note_off_c, 1, 55, 0
1, 30282, Note_off_c, 1, 36, 0
1, 30288, Note_on_c, 1, 60, 127
1, 30288, Note_on_c, 1, 79, 127
1, 30288, Note_on_c, 1, 76, 127
1, 30288, Note_on_c, 1, 70, 127
1, 30288, Note_on_c, 1, 36, 127
1, 30288, Note_on_c, 1, 55, 127
1, 30288, Note_on_c, 1, 52, 127
1, 30288, Note_on_c, 1, 24, 127
1, 30288, Note_on_c, 1, 67, 127
1, 30309, Note_off_c, 1, 79, 0
1, 30309, Note_off_c, 1, 70, 0
1, 30312, Note_on_c, 1, 77, 127
1, 30312, Note_on_c, 1, 74, 127
1, 30312, Note_on_c, 1, 69, 127
1, 30330, Note_off_c, 1, 60, 0
1, 30330, Note_off_c, 1, 76, 0
1, 30330, Note_off_c, 1, 36, 0
1, 30330, Note_off_c, 1, 55, 0
1, 30330, Note_off_c, 1, 52, 0
1, 30330, Note_off_c, 1, 24, 0
1, 30330, Note_off_c, 1, 67, 0
1, 30333, Note_off_c, 1, 77, 0
1, 30333, Note_off_c, 1, 74, 0
1, 30333, Note_off_c, 1, 69, 0
1, 30336, Note_on_c, 1, 60, 127
1, 30336, Note_on_c, 1, 79, 127
1, 30336, Note_on_c, 1, 76, 127
1, 30336, Note_on_c, 1, 70, 127
1, 30336, Note_on_c, 1, 64, 127
1, 30336, Note_on_c, 1, 55, 127
1, 30357, Note_off_c, 1, 79, 0
1, 30357, Note_off_c, 1, 76, 0
1, 30357, Note_off_c, 1, 70, 0
1, 30360, Note_on_c, 1, 77, 127
1, 30360, Note_on_c, 1, 74, 127
1, 30360, Note_on_c, 1, 69, 127
1, 30378, Note_off_c, 1, 64, 0
1, 30378, Note_off_c, 1, 55, 0
1, 30381, Note_off_c, 1, 77, 0
1, 30381, Note_off_c, 1, 74, 0
1, 30381, Note_off_c, 1, 69, 0
1, 30384, Note_on_c, 1, 67, 127
1, 30426, Note_off_c, 1, 67, 0
1, 30427, Note_off_c, 1, 60, 0
1, 30432, Note_on_c, 1, 60, 127
1, 30432, Note_on_c, 1, 79, 127
1, 30432, Note_on_c, 1, 76, 127
1, 30432, Note_on_c, 1, 70, 127
1, 30432, Note_on_c, 1, 67, 127
1, 30432, Note_on_c, 1, 48, 127
1, 30460, Note_off_c, 1, 60, 0
1, 30463, Note_on_c, 1, 53, 127
1, 30474, Note_off_c, 1, 79, 0
1, 30474, Note_off_c, 1, 76, 0
1, 30474, Note_off_c, 1, 70, 0
1, 30474, Note_off_c, 1, 67, 0
1, 30474, Note_off_c, 1, 48, 0
1, 30480, Note_on_c, 1, 72, 127
1, 30480, Note_on_c, 1, 64, 127
1, 30480, Note_on_c, 1, 69, 127
1, 30480, Note_on_c, 1, 36, 127
1, 30492, Note_off_c, 1, 53, 0
1, 30501, Note_off_c, 1, 72, 0
1, 30504, Note_on_c, 1, 74, 127
1, 30522, Note_off_c, 1, 64, 0
1, 30522, Note_off_c, 1, 69, 0
1, 30522, Note_off_c, 1, 36, 0
1, 30525, Note_off_c, 1, 74, 0
1, 30528, Note_on_c, 1, 60, 127
1, 30528, Note_on_c, 1, 72, 127
1, 30528, Note_on_c, 1, 65, 127
1, 30528, Note_on_c, 1, 69, 127
1, 30528, Note_on_c, 1, 50, 127
1, 30528, Note_on_c, 1, 38, 127
1, 30549, Note_off_c, 1, 72, 0
1, 30552, Note_on_c, 1, 70, 127
1, 30556, Note_off_c, 1, 60, 0
1, 30570, Note_off_c, 1, 65, 0
1, 30570, Note_off_c, 1, 69, 0
1, 30570, Note_off_c, 1, 50, 0
1, 30570, Note_off_c, 1, 38, 0
1, 30573, Note_off_c, 1, 70, 0
1, 30576, Note_on_c, 1, 67, 127
1, 30576, Note_on_c, 1, 52, 127
1, 30576, Note_on_c, 1, 40, 127
1, 30618, Note_off_c, 1, 52, 0
1, 30618, Note_off_c, 1, 40, 0
1, 30621, Note_off_c, 1, 67, 0
1, 30624, Note_on_c, 1, 60, 127
1, 30624, Note_on_c, 1, 69, 127
1, 30624, Note_on_c, 1, 65, 127
1, 30624, Note_on_c, 1, 53, 127
1, 30624, Note_on_c, 1, 41, 127
1, 30666, Note_off_c, 1, 69, 0
1, 30666, Note_off_c, 1, 65, 0
1, 30666, Note_off_c, 1, 53, 0
1, 30666, Note_off_c, 1, 41, 0
1, 30672, Note_on_c, 1, 84, 127
1, 30672, Note_on_c, 1, 81, 127
1, 30672, Note_on_c, 1, 75, 127
1, 30672, Note_on_c, 1, 57, 127
1, 30672, Note_on_c, 1, 29, 127
1, 30693, Note_off_c, 1, 84, 0
1, 30693, Note_off_c, 1, 81, 0
1, 30693, Note_off_c, 1, 75, 0
1, 30696, Note_on_c, 1, 82, 127
1, 30696, Note_on_c, 1, 79, 127
1, 30696, Note_on_c, 1, 74, 127
1, 30714, Note_off_c, 1, 60, 0
1, 30714, Note_off_c, 1, 57, 0
1, 30714, Note_off_c, 1, 29, 0
1, 30717, Note_off_c, 1, 82, 0
1, 30717, Note_off_c, 1, 79, 0
1, 30717, Note_off_c, 1, 74, 0
1, 30720, Note_on_c, 1, 53, 127
1, 30720, Note_on_c, 1, 84, 127
1, 30720, Note_on_c, 1, 81, 127
1, 30720, Note_on_c, 1, 75, 127
1, 30720, Note_on_c, 1, 69, 127
1, 30720, Note_on_c, 1, 65, 127
1, 30720, Note_on_c, 1, 60, 127
1, 30741, Note_off_c, 1, 84, 0
1, 30741, Note_off_c, 1, 81, 0
1, 30741, Note_off_c, 1, 75, 0
1, 30744, Note_on_c, 1, 82, 127
1, 30744, Note_on_c, 1, 79, 127
1, 30744, Note_on_c, 1, 74, 127
1, 30748, Note_off_c, 1, 53, 0
1, 30762, Note_off_c, 1, 69, 0
1, 30762, Note_off_c, 1, 65, 0
1, 30762, Note_off_c, 1, 60, 0
1, 30765, Note_off_c, 1, 82, 0
1, 30765, Note_off_c, 1, 79, 0
1, 30765, Note_off_c, 1, 74, 0
1, 30768, Note_on_c, 1, 72, 127
1, 30810, Note_off_c, 1, 72, 0
1, 30816, Note_on_c, 1, 53, 127
1, 30816, Note_on_c, 1, 84, 127
1, 30816, Note_on_c, 1, 81, 127
1, 30816, Note_on_c, 1, 75, 127
1, 30816, Note_on_c, 1, 72, 127
1, 30847, Note_on_c, 1, 48, 127
1, 30858, Note_off_c, 1, 53, 0
1, 30858, Note_off_c, 1, 84, 0
1, 30858, Note_off_c, 1, 81, 0
1, 30858, Note_off_c, 1, 75, 0
1, 30858, Note_off_c, 1, 72, 0
1, 30864, Note_on_c, 1, 77, 127
1, 30864, Note_on_c, 1, 69, 127
1, 30864, Note_on_c, 1, 74, 127
1, 30864, Note_on_c, 1, 41, 127
1, 30864, Note_on_c, 1, 62, 127
1, 30876, Note_off_c, 1, 48, 0
1, 30885, Note_off_c, 1, 77, 0
1, 30885, Note_off_c, 1, 74, 0
1, 30888, Note_on_c, 1, 79, 127
1, 30906, Note_off_c, 1, 69, 0
1, 30906, Note_off_c, 1, 41, 0
1, 30906, Note_off_c, 1, 62, 0
1, 30909, Note_off_c, 1, 79, 0
1, 30912, Note_on_c, 1, 53, 127
1, 30912, Note_on_c, 1, 77, 127
1, 30912, Note_on_c, 1, 70, 127
1, 30912, Note_on_c, 1, 74, 127
1, 30912, Note_on_c, 1, 55, 127
1, 30912, Note_on_c, 1, 43, 127
1, 30912, Note_on_c, 1, 62, 127
1, 30933, Note_off_c, 1, 77, 0
1, 30936, Note_on_c, 1, 75, 127
1, 30940, Note_off_c, 1, 53, 0
1, 30954, Note_off_c, 1, 70, 0
1, 30954, Note_off_c, 1, 74, 0
1, 30954, Note_off_c, 1, 55, 0
1, 30954, Note_off_c, 1, 43, 0
1, 30954, Note_off_c, 1, 62, 0
1, 30957, Note_off_c, 1, 75, 0
1, 30960, Note_on_c, 1, 72, 127
1, 30960, Note_on_c, 1, 57, 127
1, 30960, Note_on_c, 1, 45, 127
1, 30960, Note_on_c, 1, 65, 127
1, 31002, Note_off_c, 1, 57, 0
1, 31002, Note_off_c, 1, 45, 0
1, 31002, Note_off_c, 1, 65, 0
1, 31005, Note_off_c, 1, 72, 0
1, 31008, Note_on_c, 1, 53, 127
1, 31008, Note_on_c, 1, 74, 127
1, 31008, Note_on_c, 1, 65, 127
1, 31008, Note_on_c, 1, 70, 127
1, 31008, Note_on_c, 1, 58, 127
1, 31008, Note_on_c, 1, 46, 127
1, 31029, Note_off_c, 1, 58, 0
1, 31029, Note_off_c, 1, 46, 0
1, 31032, Note_on_c, 1, 34, 127
1, 31050, Note_off_c, 1, 74, 0
1, 31050, Note_off_c, 1, 65, 0
1, 31050, Note_off_c, 1, 70, 0
1, 31053, Note_off_c, 1, 34, 0
1, 31056, Note_on_c, 1, 79, 127
1, 31056, Note_on_c, 1, 67, 127
1, 31071, Note_off_c, 1, 53, 0
1, 31077, Note_off_c, 1, 79, 0
1, 31080, Note_on_c, 1, 60, 127
1, 31080, Note_on_c, 1, 81, 127
1, 31080, Note_on_c, 1, 75, 127
1, 31080, Note_on_c, 1, 72, 127
1, 31080, Note_on_c, 1, 57, 127
1, 31080, Note_on_c, 1, 45, 127
1, 31098, Note_off_c, 1, 67, 0
1, 31101, Note_off_c, 1, 60, 0
1, 31101, Note_off_c, 1, 81, 0
1, 31101, Note_off_c, 1, 75, 0
1, 31101, Note_off_c, 1, 72, 0
1, 31101, Note_off_c, 1, 57, 0
1, 31101, Note_off_c, 1, 45, 0
1, 31104, Note_on_c, 1, 79, 127
1, 31104, Note_on_c, 1, 74, 127
1, 31104, Note_on_c, 1, 70, 127
1, 31104, Note_on_c, 1, 58, 127
1, 31104, Note_on_c, 1, 46, 127
1, 31104, Note_on_c, 1, 67, 127
1, 31125, Note_off_c, 1, 79, 0
1, 31125, Note_off_c, 1, 58, 0
1, 31125, Note_off_c, 1, 46, 0
1, 31128, Note_on_c, 1, 77, 127
1, 31128, Note_on_c, 1, 57, 127
1, 31128, Note_on_c, 1, 45, 127
1, 31146, Note_off_c, 1, 74, 0
1, 31146, Note_off_c, 1, 70, 0
1, 31146, Note_off_c, 1, 67, 0
1, 31149, Note_off_c, 1, 77, 0
1, 31149, Note_off_c, 1, 57, 0
1, 31149, Note_off_c, 1, 45, 0
1, 31152, Note_on_c, 1, 76, 127
1, 31152, Note_on_c, 1, 70, 127
1, 31152, Note_on_c, 1, 67, 127
1, 31152, Note_on_c, 1, 58, 127
1, 31152, Note_on_c, 1, 46, 127
1, 31152, Note_on_c, 1, 74, 127
1, 31173, Note_off_c, 1, 76, 0
1, 31173, Note_off_c, 1, 58, 0
1, 31173, Note_off_c, 1, 46, 0
1, 31176, Note_on_c, 1, 57, 127
1, 31176, Note_on_c, 1, 45, 127
1, 31194, Note_off_c, 1, 70, 0
1, 31194, Note_off_c, 1, 67, 0
1, 31197, Note_off_c, 1, 74, 0
1, 31197, Note_off_c, 1, 57, 0
1, 31197, Note_off_c, 1, 45, 0
1, 31200, Note_on_c, 1, 72, 127
1, 31200, Note_on_c, 1, 67, 127
1, 31200, Note_on_c, 1, 64, 127
1, 31200, Note_on_c, 1, 58, 127
1, 31200, Note_on_c, 1, 46, 127
1, 31200, Note_on_c, 1, 74, 127
1, 31221, Note_off_c, 1, 58, 0
1, 31221, Note_off_c, 1, 46, 0
1, 31224, Note_on_c, 1, 60, 127
1, 31224, Note_on_c, 1, 48, 127
1, 31242, Note_off_c, 1, 74, 0
1, 31245, Note_off_c, 1, 60, 0
1, 31245, Note_off_c, 1, 48, 0
1, 31263, Note_off_c, 1, 72, 0
1, 31263, Note_off_c, 1, 64, 0
1, 31272, Note_on_c, 1, 69, 127
1, 31272, Note_on_c, 1, 65, 127
1, 31272, Note_on_c, 1, 57, 127
1, 31272, Note_on_c, 1, 45, 127
1, 31290, Note_off_c, 1, 67, 0
1, 31293, Note_off_c, 1, 69, 0
1, 31293, Note_off_c, 1, 65, 0
1, 31293, Note_off_c, 1, 57, 0
1, 31293, Note_off_c, 1, 45, 0
1, 31296, Note_on_c, 1, 76, 127
1, 31296, Note_on_c, 1, 70, 127
1, 31296, Note_on_c, 1, 67, 127
1, 31296, Note_on_c, 1, 55, 127
1, 31296, Note_on_c, 1, 43, 127
1, 31296, Note_on_c, 1, 64, 127
1, 31317, Note_off_c, 1, 76, 0
1, 31317, Note_off_c, 1, 67, 0
1, 31317, Note_off_c, 1, 55, 0
1, 31317, Note_off_c, 1, 43, 0
1, 31320, Note_on_c, 1, 77, 127
1, 31320, Note_on_c, 1, 69, 127
1, 31320, Note_on_c, 1, 53, 127
1, 31320, Note_on_c, 1, 41, 127
1, 31338, Note_off_c, 1, 70, 0
1, 31338, Note_off_c, 1, 64, 0
1, 31341, Note_off_c, 1, 77, 0
1, 31341, Note_off_c, 1, 69, 0
1, 31341, Note_off_c, 1, 53, 0
1, 31341, Note_off_c, 1, 41, 0
1, 31344, Note_on_c, 1, 79, 127
1, 31344, Note_on_c, 1, 67, 127
1, 31344, Note_on_c, 1, 70, 127
1, 31344, Note_on_c, 1, 52, 127
1, 31344, Note_on_c, 1, 40, 127
1, 31365, Note_off_c, 1, 79, 0
1, 31365, Note_off_c, 1, 52, 0
1, 31365, Note_off_c, 1, 40, 0
1, 31368, Note_on_c, 1, 81, 127
1, 31368, Note_on_c, 1, 65, 127
1, 31368, Note_on_c, 1, 50, 127
1, 31368, Note_on_c, 1, 38, 127
1, 31386, Note_off_c, 1, 70, 0
1, 31389, Note_off_c, 1, 67, 0
1, 31389, Note_off_c, 1, 81, 0
1, 31389, Note_off_c, 1, 65, 0
1, 31389, Note_off_c, 1, 50, 0
1, 31389, Note_off_c, 1, 38, 0
1, 31392, Note_on_c, 1, 82, 127
1, 31392, Note_on_c, 1, 64, 127
1, 31392, Note_on_c, 1, 72, 127
1, 31392, Note_on_c, 1, 48, 127
1, 31392, Note_on_c, 1, 36, 127
1, 31392, Note_on_c, 1, 67, 127
1, 31413, Note_off_c, 1, 82, 0
1, 31416, Note_on_c, 1, 84, 127
1, 31426, Note_off_c, 1, 84, 0
1, 31434, Note_off_c, 1, 64, 0
1, 31434, Note_off_c, 1, 48, 0
1, 31434, Note_off_c, 1, 36, 0
1, 31434, Note_off_c, 1, 67, 0
1, 31440, Note_on_c, 1, 81, 127
1, 31440, Note_on_c, 1, 65, 127
1, 31440, Note_on_c, 1, 53, 127
1, 31440, Note_on_c, 1, 41, 127
1, 31440, Note_on_c, 1, 60, 127
1, 31440, Note_on_c, 1, 69, 127
1, 31450, Note_off_c, 1, 81, 0
1, 31461, Note_off_c, 1, 65, 0
1, 31482, Note_off_c, 1, 53, 0
1, 31482, Note_off_c, 1, 41, 0
1, 31482, Note_off_c, 1, 60, 0
1, 31482, Note_off_c, 1, 69, 0
1, 31488, Note_on_c, 1, 79, 127
1, 31509, Note_off_c, 1, 72, 0
1, 31512, Note_on_c, 1, 70, 127
1, 31533, Note_off_c, 1, 70, 0
1, 31551, Note_off_c, 1, 79, 0
1, 31560, Note_on_c, 1, 77, 127
1, 31581, Note_off_c, 1, 77, 0
1, 31584, Note_on_c, 1, 65, 127
1, 31584, Note_on_c, 1, 77, 127
1, 31584, Note_on_c, 1, 69, 127
1, 31584, Note_on_c, 1, 50, 127
1, 31584, Note_on_c, 1, 38, 127
1, 31605, Note_off_c, 1, 50, 0
1, 31605, Note_off_c, 1, 38, 0
1, 31608, Note_on_c, 1, 76, 127
1, 31608, Note_on_c, 1, 48, 127
1, 31608, Note_on_c, 1, 36, 127
1, 31626, Note_off_c, 1, 77, 0
1, 31626, Note_off_c, 1, 69, 0
1, 31629, Note_off_c, 1, 76, 0
1, 31629, Note_off_c, 1, 48, 0
1, 31629, Note_off_c, 1, 36, 0
1, 31632, Note_on_c, 1, 60, 127
1, 31674, Note_off_c, 1, 60, 0
1, 31675, Note_off_c, 1, 65, 0
1, 31680, Note_on_c, 1, 65, 127
1, 31680, Note_on_c, 1, 74, 127
1, 31680, Note_on_c, 1, 70, 127
1, 31680, Note_on_c, 1, 46, 127
1, 31680, Note_on_c, 1, 34, 127
1, 31701, Note_off_c, 1, 46, 0
1, 31701, Note_off_c, 1, 34, 0
1, 31704, Note_on_c, 1, 72, 127
1, 31704, Note_on_c, 1, 45, 127
1, 31704, Note_on_c, 1, 33, 127
1, 31711, Note_on_c, 1, 60, 127
1, 31722, Note_off_c, 1, 74, 0
1, 31722, Note_off_c, 1, 70, 0
1, 31725, Note_off_c, 1, 72, 0
1, 31725, Note_off_c, 1, 45, 0
1, 31725, Note_off_c, 1, 33, 0
1, 31728, Note_on_c, 1, 62, 127
1, 31740, Note_off_c, 1, 60, 0
1, 31770, Note_off_c, 1, 62, 0
1, 31771, Note_off_c, 1, 65, 0
1, 31776, Note_on_c, 1, 65, 127
1, 31776, Note_on_c, 1, 60, 127
1, 31776, Note_on_c, 1, 70, 127
1, 31776, Note_on_c, 1, 62, 127
1, 31776, Note_on_c, 1, 67, 127
1, 31776, Note_on_c, 1, 43, 127
1, 31776, Note_on_c, 1, 31, 127
1, 31776, Note_on_c, 1, 74, 127
1, 31797, Note_off_c, 1, 62, 0
1, 31800, Note_on_c, 1, 72, 127
1, 31800, Note_on_c, 1, 64, 127
1, 31804, Note_off_c, 1, 65, 0
1, 31804, Note_off_c, 1, 60, 0
1, 31807, Note_on_c, 1, 57, 127
1, 31810, Note_off_c, 1, 72, 0
1, 31818, Note_off_c, 1, 67, 0
1, 31818, Note_off_c, 1, 43, 0
1, 31818, Note_off_c, 1, 31, 0
1, 31818, Note_off_c, 1, 74, 0
1, 31821, Note_off_c, 1, 64, 0
1, 31822, Note_off_c, 1, 70, 0
1, 31824, Note_on_c, 1, 69, 127
1, 31824, Note_on_c, 1, 41, 127
1, 31824, Note_on_c, 1, 29, 127
1, 31836, Note_off_c, 1, 57, 0
1, 31866, Note_off_c, 1, 69, 0
1, 31866, Note_off_c, 1, 41, 0
1, 31866, Note_off_c, 1, 29, 0
1, 31872, Note_on_c, 1, 60, 127
1, 31872, Note_on_c, 1, 57, 127
1, 31872, Note_on_c, 1, 67, 127
1, 31872, Note_on_c, 1, 64, 127
1, 31872, Note_on_c, 1, 48, 127
1, 31872, Note_on_c, 1, 36, 127
1, 31872, Note_on_c, 1, 65, 127
1, 31872, Note_on_c, 1, 72, 127
1, 31900, Note_off_c, 1, 57, 0
1, 31903, Note_on_c, 1, 53, 127
1, 31914, Note_off_c, 1, 48, 0
1, 31914, Note_off_c, 1, 36, 0
1, 31914, Note_off_c, 1, 65, 0
1, 31914, Note_off_c, 1, 72, 0
1, 31920, Note_on_c, 1, 24, 127
1, 31932, Note_off_c, 1, 53, 0
1, 31935, Note_off_c, 1, 67, 0
1, 31935, Note_off_c, 1, 64, 0
1, 31962, Note_off_c, 1, 24, 0
1, 31965, Note_off_c, 1, 60, 0
1, 31968, Note_on_c, 1, 57, 127
1, 31968, Note_on_c, 1, 53, 127
1, 31968, Note_on_c, 1, 65, 127
1, 31968, Note_on_c, 1, 60, 127
1, 31968, Note_on_c, 1, 41, 127
1, 31968, Note_on_c, 1, 29, 127
1, 31968, Note_on_c, 1, 69, 127
1, 31996, Note_off_c, 1, 57, 0
1, 31996, Note_off_c, 1, 53, 0
1, 32010, Note_off_c, 1, 65, 0
1, 32010, Note_off_c, 1, 60, 0
1, 32010, Note_off_c, 1, 41, 0
1, 32010, Note_off_c, 1, 29, 0
1, 32010, Note_off_c, 1, 69, 0
1, 32016, Note_on_c, 1, 77, 127
1, 32016, Note_on_c, 1, 72, 127
1, 32037, Note_off_c, 1, 77, 0
1, 32037, Note_off_c, 1, 72, 0
1, 32040, Note_on_c, 1, 76, 127
1, 32040, Note_on_c, 1, 70, 127
1, 32040, Note_on_c, 1, 67, 127
1, 32061, Note_off_c, 1, 76, 0
1, 32061, Note_off_c, 1, 70, 0
1, 32061, Note_off_c, 1, 67, 0
1, 32064, Note_on_c, 1, 57, 127
1, 32064, Note_on_c, 1, 53, 127
1, 32064, Note_on_c, 1, 77, 127
1, 32064, Note_on_c, 1, 72, 127
1, 32064, Note_on_c, 1, 69, 127
1, 32064, Note_on_c, 1, 41, 127
1, 32064, Note_on_c, 1, 65, 127
1, 32064, Note_on_c, 1, 60, 127
1, 32064, Note_on_c, 1, 29, 127
1, 32085, Note_off_c, 1, 77, 0
1, 32085, Note_off_c, 1, 72, 0
1, 32085, Note_off_c, 1, 41, 0
1, 32085, Note_off_c, 1, 29, 0
1, 32088, Note_on_c, 1, 76, 127
1, 32088, Note_on_c, 1, 70, 127
1, 32088, Note_on_c, 1, 67, 127
1, 32092, Note_off_c, 1, 57, 0
1, 32092, Note_off_c, 1, 53, 0
1, 32106, Note_off_c, 1, 65, 0
1, 32109, Note_off_c, 1, 69, 0
1, 32109, Note_off_c, 1, 60, 0
1, 32109, Note_off_c, 1, 76, 0
1, 32109, Note_off_c, 1, 70, 0
1, 32109, Note_off_c, 1, 67, 0
1, 32160, Note_on_c, 1, 57, 127
1, 32160, Note_on_c, 1, 53, 127
1, 32160, Note_on_c, 1, 77, 127
1, 32160, Note_on_c, 1, 72, 127
1, 32160, Note_on_c, 1, 69, 127
1, 32160, Note_on_c, 1, 41, 127
1, 32160, Note_on_c, 1, 29, 127
1, 32160, Note_on_c, 1, 60, 127
1, 32340, Note_off_c, 1, 57, 0
1, 32340, Note_off_c, 1, 53, 0
1, 32340, Note_off_c, 1, 77, 0
1, 32340, Note_off_c, 1, 72, 0
1, 32340, Note_off_c, 1, 69, 0
1, 32340, Note_off_c, 1, 41, 0
1, 32340, Note_off_c, 1, 29, 0
1, 32340, Note_off_c, 1, 60, 0
1, 32340, End_track
0, 0, End_of_file