0, 0, Header, 1, 1, 480
1, 0, Start_track
1, 0, Title_t, "Test"
1, 0, Tempo, 500000
1, 0, Instrument_name_t, "Church Organ"
1, 0, Note_on_c, 1, 51, 127
1, 60, Note_on_c, 1, 63, 127
1, 108, Note_off_c, 1, 63, 0
1, 120, Note_on_c, 1, 67, 127
1, 168, Note_off_c, 1, 67, 0
1, 180, Note_on_c, 1, 70, 127
1, 192, Note_off_c, 1, 51, 0
1, 228, Note_off_c, 1, 70, 0
1, 240, Note_on_c, 1, 75, 127
1, 240, Note_on_c, 1, 55, 127
1, 288, Note_off_c, 1, 75, 0
1, 300, Note_on_c, 1, 70, 127
1, 336, Note_off_c, 1, 55, 0
1, 348, Note_off_c, 1, 70, 0
1, 360, Note_on_c, 1, 72, 127
1, 360, Note_on_c, 1, 56, 127
1, 408, Note_off_c, 1, 72, 0
1, 420, Note_on_c, 1, 80, 127
1, 420, Note_on_c, 1, 84, 127
1, 456, Note_off_c, 1, 56, 0
1, 468, Note_off_c, 1, 80, 0
1, 468, Note_off_c, 1, 84, 0
1, 480, Note_on_c, 1, 79, 127
1, 480, Note_on_c, 1, 82, 127
1, 480, Note_on_c, 1, 58, 127
1, 528, Note_off_c, 1, 79, 0
1, 528, Note_off_c, 1, 82, 0
1, 540, Note_on_c, 1, 77, 127
1, 540, Note_on_c, 1, 80, 127
1, 576, Note_off_c, 1, 58, 0
1, 588, Note_off_c, 1, 77, 0
1, 588, Note_off_c, 1, 80, 0
1, 600, Note_on_c, 1, 75, 127
1, 600, Note_on_c, 1, 79, 127
1, 600, Note_on_c, 1, 46, 127
1, 648, Note_off_c, 1, 75, 0
1, 648, Note_off_c, 1, 79, 0
1, 660, Note_on_c, 1, 74, 127
1, 660, Note_on_c, 1, 77, 127
1, 696, Note_off_c, 1, 46, 0
1, 708, Note_off_c, 1, 74, 0
1, 708, Note_off_c, 1, 77, 0
1, 720, Note_on_c, 1, 75, 127
1, 720, Note_on_c, 1, 79, 127
1, 720, Note_on_c, 1, 51, 127
1, 768, Note_off_c, 1, 79, 0
1, 780, Note_on_c, 1, 63, 127
1, 816, Note_off_c, 1, 75, 0
1, 828, Note_off_c, 1, 63, 0
1, 840, Note_on_c, 1, 67, 127
1, 888, Note_off_c, 1, 67, 0
1, 900, Note_on_c, 1, 70, 127
1, 912, Note_off_c, 1, 51, 0
1, 948, Note_off_c, 1, 70, 0
1, 960, Note_on_c, 1, 63, 127
1, 960, Note_on_c, 1, 75, 127
1, 960, Note_on_c, 1, 55, 127
1, 1008, Note_off_c, 1, 75, 0
1, 1020, Note_on_c, 1, 70, 127
1, 1056, Note_off_c, 1, 63, 0
1, 1056, Note_off_c, 1, 55, 0
1, 1068, Note_off_c, 1, 70, 0
1, 1080, Note_on_c, 1, 63, 127
1, 1080, Note_on_c, 1, 72, 127
1, 1080, Note_on_c, 1, 56, 127
1, 1128, Note_off_c, 1, 63, 0
1, 1128, Note_off_c, 1, 72, 0
1, 1140, Note_on_c, 1, 80, 127
1, 1140, Note_on_c, 1, 84, 127
1, 1176, Note_off_c, 1, 56, 0
1, 1188, Note_off_c, 1, 80, 0
1, 1188, Note_off_c, 1, 84, 0
1, 1200, Note_on_c, 1, 79, 127
1, 1200, Note_on_c, 1, 82, 127
1, 1200, Note_on_c, 1, 58, 127
1, 1248, Note_off_c, 1, 79, 0
1, 1248, Note_off_c, 1, 82, 0
1, 1260, Note_on_c, 1, 77, 127
1, 1260, Note_on_c, 1, 80, 127
1, 1296, Note_off_c, 1, 58, 0
1, 1308, Note_off_c, 1, 77, 0
1, 1308, Note_off_c, 1, 80, 0
1, 1320, Note_on_c, 1, 75, 127
1, 1320, Note_on_c, 1, 79, 127
1, 1320, Note_on_c, 1, 46, 127
1, 1368, Note_off_c, 1, 75, 0
1, 1368, Note_off_c, 1, 79, 0
1, 1380, Note_on_c, 1, 74, 127
1, 1380, Note_on_c, 1, 77, 127
1, 1416, Note_off_c, 1, 46, 0
1, 1428, Note_off_c, 1, 74, 0
1, 1428, Note_off_c, 1, 77, 0
1, 1440, Note_on_c, 1, 75, 127
1, 1440, Note_on_c, 1, 79, 127
1, 1440, Note_on_c, 1, 51, 127
1, 1488, Note_off_c, 1, 79, 0
1, 1500, Note_on_c, 1, 82, 127
1, 1536, Note_off_c, 1, 75, 0
1, 1548, Note_off_c, 1, 82, 0
1, 1560, Note_on_c, 1, 80, 127
1, 1608, Note_off_c, 1, 80, 0
1, 1632, Note_off_c, 1, 51, 0
1, 1680, Note_on_c, 1, 84, 127
1, 1680, Note_on_c, 1, 77, 127
1, 1680, Note_on_c, 1, 56, 127
1, 1728, Note_off_c, 1, 77, 0
1, 1740, Note_on_c, 1, 75, 127
1, 1776, Note_off_c, 1, 84, 0
1, 1776, Note_off_c, 1, 56, 0
1, 1788, Note_off_c, 1, 75, 0
1, 1800, Note_on_c, 1, 77, 127
1, 1800, Note_on_c, 1, 74, 127
1, 1800, Note_on_c, 1, 58, 127
1, 1896, Note_off_c, 1, 77, 0
1, 1896, Note_off_c, 1, 74, 0
1, 1896, Note_off_c, 1, 58, 0
1, 1920, Note_on_c, 1, 79, 127
1, 1920, Note_on_c, 1, 75, 127
1, 1920, Note_on_c, 1, 63, 127
1, 1968, Note_off_c, 1, 63, 0
1, 1980, Note_on_c, 1, 58, 127
1, 2028, Note_off_c, 1, 58, 0
1, 2040, Note_on_c, 1, 55, 127
1, 2064, Note_off_c, 1, 79, 0
1, 2064, Note_off_c, 1, 75, 0
1, 2088, Note_off_c, 1, 55, 0
1, 2100, Note_on_c, 1, 80, 127
1, 2100, Note_on_c, 1, 77, 127
1, 2100, Note_on_c, 1, 51, 127
1, 2124, Note_off_c, 1, 80, 0
1, 2124, Note_off_c, 1, 77, 0
1, 2130, Note_on_c, 1, 82, 127
1, 2130, Note_on_c, 1, 79, 127
1, 2148, Note_off_c, 1, 51, 0
1, 2154, Note_off_c, 1, 82, 0
1, 2154, Note_off_c, 1, 79, 0
1, 2160, Note_on_c, 1, 77, 127
1, 2160, Note_on_c, 1, 74, 127
1, 2160, Note_on_c, 1, 58, 127
1, 2256, Note_off_c, 1, 77, 0
1, 2256, Note_off_c, 1, 74, 0
1, 2256, Note_off_c, 1, 58, 0
1, 2280, Note_on_c, 1, 79, 127
1, 2280, Note_on_c, 1, 75, 127
1, 2280, Note_on_c, 1, 63, 127
1, 2328, Note_off_c, 1, 63, 0
1, 2340, Note_on_c, 1, 58, 127
1, 2388, Note_off_c, 1, 58, 0
1, 2400, Note_on_c, 1, 55, 127
1, 2424, Note_off_c, 1, 79, 0
1, 2424, Note_off_c, 1, 75, 0
1, 2448, Note_off_c, 1, 55, 0
1, 2460, Note_on_c, 1, 80, 127
1, 2460, Note_on_c, 1, 77, 127
1, 2460, Note_on_c, 1, 51, 127
1, 2484, Note_off_c, 1, 80, 0
1, 2484, Note_off_c, 1, 77, 0
1, 2490, Note_on_c, 1, 82, 127
1, 2490, Note_on_c, 1, 79, 127
1, 2508, Note_off_c, 1, 51, 0
1, 2514, Note_off_c, 1, 82, 0
1, 2514, Note_off_c, 1, 79, 0
1, 2520, Note_on_c, 1, 77, 127
1, 2520, Note_on_c, 1, 74, 127
1, 2520, Note_on_c, 1, 58, 127
1, 2568, Note_off_c, 1, 77, 0
1, 2568, Note_off_c, 1, 74, 0
1, 2580, Note_on_c, 1, 75, 127
1, 2580, Note_on_c, 1, 72, 127
1, 2616, Note_off_c, 1, 58, 0
1, 2628, Note_off_c, 1, 75, 0
1, 2628, Note_off_c, 1, 72, 0
1, 2640, Note_on_c, 1, 74, 127
1, 2640, Note_on_c, 1, 70, 127
1, 2640, Note_on_c, 1, 46, 127
1, 2688, Note_off_c, 1, 74, 0
1, 2688, Note_off_c, 1, 70, 0
1, 2700, Note_on_c, 1, 72, 127
1, 2700, Note_on_c, 1, 68, 127
1, 2736, Note_off_c, 1, 46, 0
1, 2748, Note_off_c, 1, 72, 0
1, 2748, Note_off_c, 1, 68, 0
1, 2760, Note_on_c, 1, 70, 127
1, 2760, Note_on_c, 1, 67, 127
1, 2760, Note_on_c, 1, 58, 127
1, 2808, Note_off_c, 1, 70, 0
1, 2808, Note_off_c, 1, 67, 0
1, 2820, Note_on_c, 1, 68, 127
1, 2820, Note_on_c, 1, 65, 127
1, 2856, Note_off_c, 1, 58, 0
1, 2868, Note_off_c, 1, 68, 0
1, 2868, Note_off_c, 1, 65, 0
1, 2880, Note_on_c, 1, 67, 127
1, 2880, Note_on_c, 1, 63, 127
1, 2880, Note_on_c, 1, 51, 127
1, 2928, Note_off_c, 1, 67, 0
1, 3060, Note_on_c, 1, 70, 127
1, 3072, Note_off_c, 1, 63, 0
1, 3072, Note_off_c, 1, 51, 0
1, 3108, Note_off_c, 1, 70, 0
1, 3120, Note_on_c, 1, 75, 127
1, 3120, Note_on_c, 1, 70, 127
1, 3120, Note_on_c, 1, 55, 127
1, 3168, Note_off_c, 1, 75, 0
1, 3168, Note_off_c, 1, 70, 0
1, 3180, Note_on_c, 1, 67, 127
1, 3216, Note_off_c, 1, 55, 0
1, 3228, Note_off_c, 1, 67, 0
1, 3240, Note_on_c, 1, 72, 127
1, 3240, Note_on_c, 1, 63, 127
1, 3240, Note_on_c, 1, 56, 127
1, 3288, Note_off_c, 1, 72, 0
1, 3288, Note_off_c, 1, 63, 0
1, 3300, Note_on_c, 1, 84, 127
1, 3300, Note_on_c, 1, 80, 127
1, 3336, Note_off_c, 1, 56, 0
1, 3348, Note_off_c, 1, 84, 0
1, 3348, Note_off_c, 1, 80, 0
1, 3360, Note_on_c, 1, 82, 127
1, 3360, Note_on_c, 1, 79, 127
1, 3360, Note_on_c, 1, 58, 127
1, 3408, Note_off_c, 1, 82, 0
1, 3408, Note_off_c, 1, 79, 0
1, 3420, Note_on_c, 1, 80, 127
1, 3420, Note_on_c, 1, 77, 127
1, 3456, Note_off_c, 1, 58, 0
1, 3468, Note_off_c, 1, 80, 0
1, 3468, Note_off_c, 1, 77, 0
1, 3480, Note_on_c, 1, 79, 127
1, 3480, Note_on_c, 1, 75, 127
1, 3480, Note_on_c, 1, 46, 127
1, 3528, Note_off_c, 1, 79, 0
1, 3528, Note_off_c, 1, 75, 0
1, 3540, Note_on_c, 1, 77, 127
1, 3540, Note_on_c, 1, 74, 127
1, 3576, Note_off_c, 1, 46, 0
1, 3588, Note_off_c, 1, 77, 0
1, 3588, Note_off_c, 1, 74, 0
1, 3600, Note_on_c, 1, 79, 127
1, 3600, Note_on_c, 1, 75, 127
1, 3600, Note_on_c, 1, 51, 127
1, 3648, Note_off_c, 1, 79, 0
1, 3660, Note_on_c, 1, 63, 127
1, 3696, Note_off_c, 1, 75, 0
1, 3708, Note_off_c, 1, 63, 0
1, 3720, Note_on_c, 1, 67, 127
1, 3768, Note_off_c, 1, 67, 0
1, 3780, Note_on_c, 1, 70, 127
1, 3792, Note_off_c, 1, 51, 0
1, 3828, Note_off_c, 1, 70, 0
1, 3840, Note_on_c, 1, 75, 127
1, 3840, Note_on_c, 1, 63, 127
1, 3840, Note_on_c, 1, 55, 127
1, 3888, Note_off_c, 1, 75, 0
1, 3900, Note_on_c, 1, 70, 127
1, 3936, Note_off_c, 1, 63, 0
1, 3936, Note_off_c, 1, 55, 0
1, 3948, Note_off_c, 1, 70, 0
1, 3960, Note_on_c, 1, 72, 127
1, 3960, Note_on_c, 1, 63, 127
1, 3960, Note_on_c, 1, 56, 127
1, 4008, Note_off_c, 1, 72, 0
1, 4008, Note_off_c, 1, 63, 0
1, 4020, Note_on_c, 1, 84, 127
1, 4020, Note_on_c, 1, 80, 127
1, 4056, Note_off_c, 1, 56, 0
1, 4068, Note_off_c, 1, 84, 0
1, 4068, Note_off_c, 1, 80, 0
1, 4080, Note_on_c, 1, 82, 127
1, 4080, Note_on_c, 1, 79, 127
1, 4080, Note_on_c, 1, 58, 127
1, 4128, Note_off_c, 1, 82, 0
1, 4128, Note_off_c, 1, 79, 0
1, 4140, Note_on_c, 1, 80, 127
1, 4140, Note_on_c, 1, 77, 127
1, 4176, Note_off_c, 1, 58, 0
1, 4188, Note_off_c, 1, 80, 0
1, 4188, Note_off_c, 1, 77, 0
1, 4200, Note_on_c, 1, 79, 127
1, 4200, Note_on_c, 1, 75, 127
1, 4200, Note_on_c, 1, 46, 127
1, 4248, Note_off_c, 1, 79, 0
1, 4248, Note_off_c, 1, 75, 0
1, 4260, Note_on_c, 1, 77, 127
1, 4260, Note_on_c, 1, 74, 127
1, 4296, Note_off_c, 1, 46, 0
1, 4308, Note_off_c, 1, 77, 0
1, 4308, Note_off_c, 1, 74, 0
1, 4320, Note_on_c, 1, 79, 127
1, 4320, Note_on_c, 1, 75, 127
1, 4320, Note_on_c, 1, 51, 127
1, 4368, Note_off_c, 1, 79, 0
1, 4380, Note_on_c, 1, 77, 127
1, 4416, Note_off_c, 1, 75, 0
1, 4416, Note_off_c, 1, 51, 0
1, 4428, Note_off_c, 1, 77, 0
1, 4440, Note_on_c, 1, 75, 127
1, 4440, Note_on_c, 1, 79, 127
1, 4440, Note_on_c, 1, 51, 127
1, 4488, Note_off_c, 1, 75, 0
1, 4500, Note_on_c, 1, 77, 127
1, 4536, Note_off_c, 1, 79, 0
1, 4536, Note_off_c, 1, 51, 0
1, 4548, Note_off_c, 1, 77, 0
1, 4560, Note_on_c, 1, 79, 127
1, 4560, Note_on_c, 1, 75, 127
1, 4560, Note_on_c, 1, 51, 127
1, 4608, Note_off_c, 1, 79, 0
1, 4620, Note_on_c, 1, 80, 127
1, 4656, Note_off_c, 1, 75, 0
1, 4656, Note_off_c, 1, 51, 0
1, 4668, Note_off_c, 1, 80, 0
1, 4680, Note_on_c, 1, 82, 127
1, 4680, Note_on_c, 1, 77, 127
1, 4680, Note_on_c, 1, 50, 127
1, 4728, Note_off_c, 1, 82, 0
1, 4776, Note_off_c, 1, 50, 0
1, 4788, Note_off_c, 1, 77, 0
1, 4800, Note_on_c, 1, 74, 127
1, 4800, Note_on_c, 1, 82, 127
1, 4800, Note_on_c, 1, 50, 127
1, 4848, Note_off_c, 1, 74, 0
1, 4860, Note_on_c, 1, 70, 127
1, 4896, Note_off_c, 1, 82, 0
1, 4896, Note_off_c, 1, 50, 0
1, 4908, Note_off_c, 1, 70, 0
1, 4920, Note_on_c, 1, 77, 127
1, 4920, Note_on_c, 1, 50, 127
1, 4968, Note_off_c, 1, 77, 0
1, 4980, Note_on_c, 1, 74, 127
1, 5016, Note_off_c, 1, 50, 0
1, 5028, Note_off_c, 1, 74, 0
1, 5040, Note_on_c, 1, 75, 127
1, 5040, Note_on_c, 1, 48, 127
1, 5088, Note_off_c, 1, 75, 0
1, 5100, Note_on_c, 1, 74, 127
1, 5136, Note_off_c, 1, 48, 0
1, 5148, Note_off_c, 1, 74, 0
1, 5160, Note_on_c, 1, 72, 127
1, 5160, Note_on_c, 1, 75, 127
1, 5160, Note_on_c, 1, 48, 127
1, 5208, Note_off_c, 1, 72, 0
1, 5220, Note_on_c, 1, 74, 127
1, 5256, Note_off_c, 1, 75, 0
1, 5256, Note_off_c, 1, 48, 0
1, 5268, Note_off_c, 1, 74, 0
1, 5280, Note_on_c, 1, 75, 127
1, 5280, Note_on_c, 1, 72, 127
1, 5280, Note_on_c, 1, 48, 127
1, 5328, Note_off_c, 1, 75, 0
1, 5340, Note_on_c, 1, 77, 127
1, 5376, Note_off_c, 1, 72, 0
1, 5376, Note_off_c, 1, 48, 0
1, 5388, Note_off_c, 1, 77, 0
1, 5400, Note_on_c, 1, 79, 127
1, 5400, Note_on_c, 1, 74, 127
1, 5400, Note_on_c, 1, 46, 127
1, 5448, Note_off_c, 1, 79, 0
1, 5496, Note_off_c, 1, 46, 0
1, 5508, Note_off_c, 1, 74, 0
1, 5520, Note_on_c, 1, 70, 127
1, 5520, Note_on_c, 1, 79, 127
1, 5520, Note_on_c, 1, 46, 127
1, 5568, Note_off_c, 1, 70, 0
1, 5580, Note_on_c, 1, 67, 127
1, 5616, Note_off_c, 1, 79, 0
1, 5616, Note_off_c, 1, 46, 0
1, 5628, Note_off_c, 1, 67, 0
1, 5640, Note_on_c, 1, 74, 127
1, 5640, Note_on_c, 1, 46, 127
1, 5688, Note_off_c, 1, 74, 0
1, 5700, Note_on_c, 1, 70, 127
1, 5736, Note_off_c, 1, 46, 0
1, 5748, Note_off_c, 1, 70, 0
1, 5760, Note_on_c, 1, 72, 127
1, 5760, Note_on_c, 1, 44, 127
1, 5808, Note_off_c, 1, 72, 0
1, 5820, Note_on_c, 1, 68, 127
1, 5856, Note_off_c, 1, 44, 0
1, 5868, Note_off_c, 1, 68, 0
1, 5880, Note_on_c, 1, 75, 127
1, 5880, Note_on_c, 1, 72, 127
1, 5880, Note_on_c, 1, 56, 127
1, 5928, Note_off_c, 1, 75, 0
1, 5976, Note_off_c, 1, 56, 0
1, 5988, Note_off_c, 1, 72, 0
1, 6000, Note_on_c, 1, 70, 127
1, 6000, Note_on_c, 1, 75, 127
1, 6000, Note_on_c, 1, 56, 127
1, 6048, Note_off_c, 1, 70, 0
1, 6060, Note_on_c, 1, 68, 127
1, 6096, Note_off_c, 1, 56, 0
1, 6108, Note_off_c, 1, 68, 0
1, 6120, Note_on_c, 1, 55, 127
1, 6180, Note_on_c, 1, 67, 127
1, 6216, Note_off_c, 1, 75, 0
1, 6216, Note_off_c, 1, 55, 0
1, 6228, Note_off_c, 1, 67, 0
1, 6240, Note_on_c, 1, 75, 127
1, 6240, Note_on_c, 1, 70, 127
1, 6240, Note_on_c, 1, 55, 127
1, 6288, Note_off_c, 1, 75, 0
1, 6336, Note_off_c, 1, 55, 0
1, 6348, Note_off_c, 1, 70, 0
1, 6360, Note_on_c, 1, 68, 127
1, 6360, Note_on_c, 1, 75, 127
1, 6360, Note_on_c, 1, 55, 127
1, 6408, Note_off_c, 1, 68, 0
1, 6420, Note_on_c, 1, 67, 127
1, 6456, Note_off_c, 1, 75, 0
1, 6456, Note_off_c, 1, 55, 0
1, 6468, Note_off_c, 1, 67, 0
1, 6480, Note_on_c, 1, 68, 127
1, 6480, Note_on_c, 1, 74, 127
1, 6480, Note_on_c, 1, 53, 127
1, 6528, Note_off_c, 1, 68, 0
1, 6528, Note_off_c, 1, 74, 0
1, 6540, Note_on_c, 1, 67, 127
1, 6540, Note_on_c, 1, 75, 127
1, 6576, Note_off_c, 1, 53, 0
1, 6588, Note_off_c, 1, 67, 0
1, 6588, Note_off_c, 1, 75, 0
1, 6600, Note_on_c, 1, 68, 127
1, 6600, Note_on_c, 1, 77, 127
1, 6600, Note_on_c, 1, 50, 127
1, 6648, Note_off_c, 1, 68, 0
1, 6660, Note_on_c, 1, 70, 127
1, 6696, Note_off_c, 1, 77, 0
1, 6696, Note_off_c, 1, 50, 0
1, 6708, Note_off_c, 1, 70, 0
1, 6720, Note_on_c, 1, 67, 127
1, 6720, Note_on_c, 1, 75, 127
1, 6720, Note_on_c, 1, 51, 127
1, 6768, Note_off_c, 1, 67, 0
1, 6780, Note_on_c, 1, 68, 127
1, 6816, Note_off_c, 1, 75, 0
1, 6816, Note_off_c, 1, 51, 0
1, 6828, Note_off_c, 1, 68, 0
1, 6840, Note_on_c, 1, 65, 127
1, 6840, Note_on_c, 1, 74, 127
1, 6840, Note_on_c, 1, 46, 127
1, 6888, Note_off_c, 1, 65, 0
1, 6900, Note_on_c, 1, 72, 127
1, 6936, Note_off_c, 1, 74, 0
1, 6936, Note_off_c, 1, 46, 0
1, 6948, Note_off_c, 1, 72, 0
1, 6960, Note_on_c, 1, 70, 127
1, 6960, Note_on_c, 1, 50, 127
1, 7008, Note_off_c, 1, 70, 0
1, 7020, Note_on_c, 1, 68, 127
1, 7056, Note_off_c, 1, 50, 0
1, 7068, Note_off_c, 1, 68, 0
1, 7080, Note_on_c, 1, 67, 127
1, 7080, Note_on_c, 1, 46, 127
1, 7128, Note_off_c, 1, 67, 0
1, 7140, Note_on_c, 1, 65, 127
1, 7176, Note_off_c, 1, 46, 0
1, 7188, Note_off_c, 1, 65, 0
1, 7200, Note_on_c, 1, 67, 127
1, 7200, Note_on_c, 1, 51, 127
1, 7248, Note_off_c, 1, 67, 0
1, 7260, Note_on_c, 1, 77, 127
1, 7296, Note_off_c, 1, 51, 0
1, 7308, Note_off_c, 1, 77, 0
1, 7320, Note_on_c, 1, 75, 127
1, 7320, Note_on_c, 1, 48, 127
1, 7368, Note_off_c, 1, 75, 0
1, 7380, Note_on_c, 1, 74, 127
1, 7416, Note_off_c, 1, 48, 0
1, 7428, Note_off_c, 1, 74, 0
1, 7440, Note_on_c, 1, 72, 127
1, 7440, Note_on_c, 1, 51, 127
1, 7488, Note_off_c, 1, 72, 0
1, 7500, Note_on_c, 1, 70, 127
1, 7536, Note_off_c, 1, 51, 0
1, 7548, Note_off_c, 1, 70, 0
1, 7560, Note_on_c, 1, 69, 127
1, 7560, Note_on_c, 1, 53, 127
1, 7608, Note_off_c, 1, 69, 0
1, 7620, Note_on_c, 1, 79, 127
1, 7656, Note_off_c, 1, 53, 0
1, 7668, Note_off_c, 1, 79, 0
1, 7680, Note_on_c, 1, 77, 127
1, 7680, Note_on_c, 1, 57, 127
1, 7728, Note_off_c, 1, 77, 0
1, 7740, Note_on_c, 1, 75, 127
1, 7776, Note_off_c, 1, 57, 0
1, 7788, Note_off_c, 1, 75, 0
1, 7800, Note_on_c, 1, 74, 127
1, 7800, Note_on_c, 1, 53, 127
1, 7848, Note_off_c, 1, 74, 0
1, 7860, Note_on_c, 1, 72, 127
1, 7896, Note_off_c, 1, 53, 0
1, 7908, Note_off_c, 1, 72, 0
1, 7920, Note_on_c, 1, 74, 127
1, 7920, Note_on_c, 1, 58, 127
1, 7980, Note_on_c, 1, 65, 127
1, 8016, Note_off_c, 1, 74, 0
1, 8016, Note_off_c, 1, 58, 0
1, 8028, Note_off_c, 1, 65, 0
1, 8040, Note_on_c, 1, 74, 127
1, 8040, Note_on_c, 1, 70, 127
1, 8040, Note_on_c, 1, 58, 127
1, 8088, Note_off_c, 1, 70, 0
1, 8100, Note_on_c, 1, 72, 127
1, 8136, Note_off_c, 1, 74, 0
1, 8136, Note_off_c, 1, 58, 0
1, 8148, Note_off_c, 1, 72, 0
1, 8160, Note_on_c, 1, 70, 127
1, 8160, Note_on_c, 1, 74, 127
1, 8160, Note_on_c, 1, 58, 127
1, 8208, Note_off_c, 1, 74, 0
1, 8220, Note_on_c, 1, 75, 127
1, 8256, Note_off_c, 1, 70, 0
1, 8256, Note_off_c, 1, 58, 0
1, 8268, Note_off_c, 1, 75, 0
1, 8280, Note_on_c, 1, 72, 127
1, 8280, Note_on_c, 1, 77, 127
1, 8280, Note_on_c, 1, 57, 127
1, 8328, Note_off_c, 1, 77, 0
1, 8376, Note_off_c, 1, 57, 0
1, 8388, Note_off_c, 1, 72, 0
1, 8400, Note_on_c, 1, 77, 127
1, 8400, Note_on_c, 1, 69, 127
1, 8400, Note_on_c, 1, 57, 127
1, 8448, Note_off_c, 1, 69, 0
1, 8460, Note_on_c, 1, 65, 127
1, 8496, Note_off_c, 1, 77, 0
1, 8496, Note_off_c, 1, 57, 0
1, 8508, Note_off_c, 1, 65, 0
1, 8520, Note_on_c, 1, 72, 127
1, 8520, Note_on_c, 1, 57, 127
1, 8568, Note_off_c, 1, 72, 0
1, 8580, Note_on_c, 1, 69, 127
1, 8616, Note_off_c, 1, 57, 0
1, 8628, Note_off_c, 1, 69, 0
1, 8640, Note_on_c, 1, 70, 127
1, 8640, Note_on_c, 1, 55, 127
1, 8688, Note_off_c, 1, 70, 0
1, 8700, Note_on_c, 1, 69, 127
1, 8736, Note_off_c, 1, 55, 0
1, 8748, Note_off_c, 1, 69, 0
1, 8760, Note_on_c, 1, 70, 127
1, 8760, Note_on_c, 1, 67, 127
1, 8760, Note_on_c, 1, 55, 127
1, 8808, Note_off_c, 1, 67, 0
1, 8820, Note_on_c, 1, 69, 127
1, 8856, Note_off_c, 1, 70, 0
1, 8856, Note_off_c, 1, 55, 0
1, 8868, Note_off_c, 1, 69, 0
1, 8880, Note_on_c, 1, 67, 127
1, 8880, Note_on_c, 1, 70, 127
1, 8880, Note_on_c, 1, 55, 127
1, 8928, Note_off_c, 1, 70, 0
1, 8940, Note_on_c, 1, 72, 127
1, 8976, Note_off_c, 1, 67, 0
1, 8976, Note_off_c, 1, 55, 0
1, 8988, Note_off_c, 1, 72, 0
1, 9000, Note_on_c, 1, 69, 127
1, 9000, Note_on_c, 1, 74, 127
1, 9000, Note_on_c, 1, 53, 127
1, 9048, Note_off_c, 1, 74, 0
1, 9096, Note_off_c, 1, 53, 0
1, 9108, Note_off_c, 1, 69, 0
1, 9120, Note_on_c, 1, 74, 127
1, 9120, Note_on_c, 1, 65, 127
1, 9120, Note_on_c, 1, 53, 127
1, 9168, Note_off_c, 1, 65, 0
1, 9180, Note_on_c, 1, 62, 127
1, 9216, Note_off_c, 1, 74, 0
1, 9216, Note_off_c, 1, 53, 0
1, 9228, Note_off_c, 1, 62, 0
1, 9240, Note_on_c, 1, 69, 127
1, 9240, Note_on_c, 1, 53, 127
1, 9288, Note_off_c, 1, 69, 0
1, 9300, Note_on_c, 1, 65, 127
1, 9336, Note_off_c, 1, 53, 0
1, 9348, Note_off_c, 1, 65, 0
1, 9360, Note_on_c, 1, 67, 127
1, 9360, Note_on_c, 1, 51, 127
1, 9408, Note_off_c, 1, 67, 0
1, 9420, Note_on_c, 1, 63, 127
1, 9456, Note_off_c, 1, 51, 0
1, 9468, Note_off_c, 1, 63, 0
1, 9480, Note_on_c, 1, 67, 127
1, 9480, Note_on_c, 1, 70, 127
1, 9480, Note_on_c, 1, 51, 127
1, 9528, Note_off_c, 1, 70, 0
1, 9576, Note_off_c, 1, 51, 0
1, 9588, Note_off_c, 1, 67, 0
1, 9600, Note_on_c, 1, 70, 127
1, 9600, Note_on_c, 1, 65, 127
1, 9600, Note_on_c, 1, 51, 127
1, 9648, Note_off_c, 1, 65, 0
1, 9660, Note_on_c, 1, 63, 127
1, 9696, Note_off_c, 1, 51, 0
1, 9708, Note_off_c, 1, 63, 0
1, 9720, Note_on_c, 1, 50, 127
1, 9780, Note_on_c, 1, 62, 127
1, 9816, Note_off_c, 1, 70, 0
1, 9816, Note_off_c, 1, 50, 0
1, 9828, Note_off_c, 1, 62, 0
1, 9840, Note_on_c, 1, 65, 127
1, 9840, Note_on_c, 1, 70, 127
1, 9840, Note_on_c, 1, 50, 127
1, 9888, Note_off_c, 1, 70, 0
1, 9936, Note_off_c, 1, 50, 0
1, 9948, Note_off_c, 1, 65, 0
1, 9960, Note_on_c, 1, 70, 127
1, 9960, Note_on_c, 1, 63, 127
1, 9960, Note_on_c, 1, 50, 127
1, 10008, Note_off_c, 1, 63, 0
1, 10020, Note_on_c, 1, 62, 127
1, 10056, Note_off_c, 1, 70, 0
1, 10056, Note_off_c, 1, 50, 0
1, 10068, Note_off_c, 1, 62, 0
1, 10080, Note_on_c, 1, 69, 127
1, 10080, Note_on_c, 1, 63, 127
1, 10080, Note_on_c, 1, 48, 127
1, 10128, Note_off_c, 1, 69, 0
1, 10128, Note_off_c, 1, 63, 0
1, 10140, Note_on_c, 1, 70, 127
1, 10140, Note_on_c, 1, 62, 127
1, 10176, Note_off_c, 1, 48, 0
1, 10188, Note_off_c, 1, 70, 0
1, 10188, Note_off_c, 1, 62, 0
1, 10200, Note_on_c, 1, 72, 127
1, 10200, Note_on_c, 1, 63, 127
1, 10200, Note_on_c, 1, 45, 127
1, 10248, Note_off_c, 1, 63, 0
1, 10260, Note_on_c, 1, 65, 127
1, 10296, Note_off_c, 1, 72, 0
1, 10296, Note_off_c, 1, 45, 0
1, 10308, Note_off_c, 1, 65, 0
1, 10320, Note_on_c, 1, 70, 127
1, 10320, Note_on_c, 1, 62, 127
1, 10320, Note_on_c, 1, 46, 127
1, 10368, Note_off_c, 1, 62, 0
1, 10380, Note_on_c, 1, 63, 127
1, 10416, Note_off_c, 1, 70, 0
1, 10416, Note_off_c, 1, 46, 0
1, 10428, Note_off_c, 1, 63, 0
1, 10440, Note_on_c, 1, 79, 127
1, 10440, Note_on_c, 1, 60, 127
1, 10440, Note_on_c, 1, 51, 127
1, 10488, Note_off_c, 1, 79, 0
1, 10500, Note_on_c, 1, 80, 127
1, 10536, Note_off_c, 1, 60, 0
1, 10536, Note_off_c, 1, 51, 0
1, 10548, Note_off_c, 1, 80, 0
1, 10560, Note_on_c, 1, 79, 127
1, 10560, Note_on_c, 1, 72, 127
1, 10560, Note_on_c, 1, 51, 127
1, 10608, Note_off_c, 1, 79, 0
1, 10620, Note_on_c, 1, 77, 127
1, 10656, Note_off_c, 1, 72, 0
1, 10656, Note_off_c, 1, 51, 0
1, 10668, Note_off_c, 1, 77, 0
1, 10680, Note_on_c, 1, 75, 127
1, 10680, Note_on_c, 1, 51, 127
1, 10728, Note_off_c, 1, 75, 0
1, 10740, Note_on_c, 1, 74, 127
1, 10776, Note_off_c, 1, 51, 0
1, 10788, Note_off_c, 1, 74, 0
1, 10800, Note_on_c, 1, 75, 127
1, 10800, Note_on_c, 1, 79, 127
1, 10800, Note_on_c, 1, 51, 127
1, 10848, Note_off_c, 1, 75, 0
1, 10848, Note_off_c, 1, 79, 0
1, 10860, Note_on_c, 1, 77, 127
1, 10860, Note_on_c, 1, 80, 127
1, 10896, Note_off_c, 1, 51, 0
1, 10908, Note_off_c, 1, 77, 0
1, 10908, Note_off_c, 1, 80, 0
1, 10920, Note_on_c, 1, 75, 127
1, 10920, Note_on_c, 1, 79, 127
1, 10920, Note_on_c, 1, 51, 127
1, 10968, Note_off_c, 1, 75, 0
1, 10968, Note_off_c, 1, 79, 0
1, 10980, Note_on_c, 1, 74, 127
1, 10980, Note_on_c, 1, 77, 127
1, 11016, Note_off_c, 1, 51, 0
1, 11028, Note_off_c, 1, 74, 0
1, 11028, Note_off_c, 1, 77, 0
1, 11040, Note_on_c, 1, 72, 127
1, 11040, Note_on_c, 1, 75, 127
1, 11040, Note_on_c, 1, 51, 127
1, 11088, Note_off_c, 1, 72, 0
1, 11088, Note_off_c, 1, 75, 0
1, 11100, Note_on_c, 1, 70, 127
1, 11100, Note_on_c, 1, 74, 127
1, 11136, Note_off_c, 1, 51, 0
1, 11148, Note_off_c, 1, 70, 0
1, 11148, Note_off_c, 1, 74, 0
1, 11160, Note_on_c, 1, 69, 127
1, 11160, Note_on_c, 1, 72, 127
1, 11160, Note_on_c, 1, 53, 127
1, 11208, Note_off_c, 1, 72, 0
1, 11220, Note_on_c, 1, 77, 127
1, 11256, Note_off_c, 1, 69, 0
1, 11268, Note_off_c, 1, 77, 0
1, 11280, Note_on_c, 1, 81, 127
1, 11328, Note_off_c, 1, 81, 0
1, 11352, Note_off_c, 1, 53, 0
1, 11400, Note_on_c, 1, 77, 127
1, 11400, Note_on_c, 1, 74, 127
1, 11400, Note_on_c, 1, 58, 127
1, 11448, Note_off_c, 1, 74, 0
1, 11460, Note_on_c, 1, 82, 127
1, 11496, Note_off_c, 1, 77, 0
1, 11496, Note_off_c, 1, 58, 0
1, 11508, Note_off_c, 1, 82, 0
1, 11520, Note_on_c, 1, 77, 127
1, 11520, Note_on_c, 1, 75, 127
1, 11520, Note_on_c, 1, 57, 127
1, 11550, Note_off_c, 1, 77, 0
1, 11550, Note_on_c, 1, 79, 127
1, 11568, Note_off_c, 1, 75, 0
1, 11580, Note_off_c, 1, 79, 0
1, 11580, Note_on_c, 1, 74, 127
1, 11616, Note_off_c, 1, 57, 0
1, 11628, Note_off_c, 1, 74, 0
1, 11640, Note_on_c, 1, 53, 127
1, 11700, Note_on_c, 1, 84, 127
1, 11736, Note_off_c, 1, 53, 0
1, 11748, Note_off_c, 1, 84, 0
1, 11760, Note_on_c, 1, 58, 127
1, 11820, Note_on_c, 1, 82, 127
1, 11856, Note_off_c, 1, 58, 0
1, 11868, Note_off_c, 1, 82, 0
1, 11880, Note_on_c, 1, 72, 127
1, 11928, Note_off_c, 1, 72, 0
1, 12000, Note_on_c, 1, 81, 127
1, 12048, Note_off_c, 1, 81, 0
1, 12720, Note_on_c, 1, 72, 127
1, 12720, Note_on_c, 1, 81, 127
1, 12720, Note_on_c, 1, 41, 127
1, 12768, Note_off_c, 1, 72, 0
1, 12768, Note_off_c, 1, 81, 0
1, 12780, Note_on_c, 1, 70, 127
1, 12780, Note_on_c, 1, 79, 127
1, 12816, Note_off_c, 1, 41, 0
1, 12828, Note_off_c, 1, 70, 0
1, 12828, Note_off_c, 1, 79, 0
1, 12840, Note_on_c, 1, 72, 127
1, 12840, Note_on_c, 1, 81, 127
1, 12840, Note_on_c, 1, 41, 127
1, 12888, Note_off_c, 1, 72, 0
1, 12888, Note_off_c, 1, 81, 0
1, 12900, Note_on_c, 1, 74, 127
1, 12900, Note_on_c, 1, 82, 127
1, 12936, Note_off_c, 1, 41, 0
1, 12948, Note_off_c, 1, 74, 0
1, 12948, Note_off_c, 1, 82, 0
1, 12960, Note_on_c, 1, 75, 127
1, 12960, Note_on_c, 1, 84, 127
1, 12960, Note_on_c, 1, 41, 127
1, 13008, Note_off_c, 1, 75, 0
1, 13008, Note_off_c, 1, 84, 0
1, 13020, Note_on_c, 1, 74, 127
1, 13020, Note_on_c, 1, 82, 127
1, 13056, Note_off_c, 1, 41, 0
1, 13068, Note_off_c, 1, 74, 0
1, 13068, Note_off_c, 1, 82, 0
1, 13080, Note_on_c, 1, 72, 127
1, 13080, Note_on_c, 1, 81, 127
1, 13080, Note_on_c, 1, 41, 127
1, 13128, Note_off_c, 1, 72, 0
1, 13128, Note_off_c, 1, 81, 0
1, 13140, Note_on_c, 1, 75, 127
1, 13140, Note_on_c, 1, 79, 127
1, 13176, Note_off_c, 1, 41, 0
1, 13188, Note_off_c, 1, 75, 0
1, 13188, Note_off_c, 1, 79, 0
1, 13200, Note_on_c, 1, 74, 127
1, 13200, Note_on_c, 1, 77, 127
1, 13200, Note_on_c, 1, 41, 127
1, 13248, Note_off_c, 1, 74, 0
1, 13248, Note_off_c, 1, 77, 0
1, 13260, Note_on_c, 1, 72, 127
1, 13260, Note_on_c, 1, 75, 127
1, 13296, Note_off_c, 1, 41, 0
1, 13308, Note_off_c, 1, 72, 0
1, 13308, Note_off_c, 1, 75, 0
1, 13320, Note_on_c, 1, 74, 127
1, 13320, Note_on_c, 1, 46, 127
1, 13380, Note_on_c, 1, 70, 127
1, 13416, Note_off_c, 1, 74, 0
1, 13428, Note_off_c, 1, 70, 0
1, 13500, Note_on_c, 1, 65, 127
1, 13512, Note_off_c, 1, 46, 0
1, 13548, Note_off_c, 1, 65, 0
1, 13560, Note_on_c, 1, 67, 127
1, 13560, Note_on_c, 1, 70, 127
1, 13560, Note_on_c, 1, 51, 127
1, 13608, Note_off_c, 1, 67, 0
1, 13620, Note_on_c, 1, 75, 127
1, 13656, Note_off_c, 1, 70, 0
1, 13656, Note_off_c, 1, 51, 0
1, 13668, Note_off_c, 1, 75, 0
1, 13680, Note_on_c, 1, 68, 127
1, 13680, Note_on_c, 1, 70, 127
1, 13680, Note_on_c, 1, 50, 127
1, 13710, Note_off_c, 1, 70, 0
1, 13710, Note_on_c, 1, 72, 127
1, 13728, Note_off_c, 1, 68, 0
1, 13740, Note_off_c, 1, 72, 0
1, 13740, Note_on_c, 1, 67, 127
1, 13776, Note_off_c, 1, 50, 0
1, 13788, Note_off_c, 1, 67, 0
1, 13800, Note_on_c, 1, 46, 127
1, 13860, Note_on_c, 1, 77, 127
1, 13896, Note_off_c, 1, 46, 0
1, 13908, Note_off_c, 1, 77, 0
1, 13920, Note_on_c, 1, 51, 127
1, 13980, Note_on_c, 1, 75, 127
1, 14016, Note_off_c, 1, 51, 0
1, 14028, Note_off_c, 1, 75, 0
1, 14040, Note_on_c, 1, 65, 127
1, 14088, Note_off_c, 1, 65, 0
1, 14160, Note_on_c, 1, 74, 127
1, 14208, Note_off_c, 1, 74, 0
1, 14880, Note_on_c, 1, 74, 127
1, 14880, Note_on_c, 1, 70, 127
1, 14880, Note_on_c, 1, 46, 127
1, 14928, Note_off_c, 1, 74, 0
1, 14928, Note_off_c, 1, 70, 0
1, 14940, Note_on_c, 1, 75, 127
1, 14940, Note_on_c, 1, 72, 127
1, 14976, Note_off_c, 1, 46, 0
1, 14988, Note_off_c, 1, 75, 0
1, 14988, Note_off_c, 1, 72, 0
1, 15000, Note_on_c, 1, 77, 127
1, 15000, Note_on_c, 1, 74, 127
1, 15000, Note_on_c, 1, 46, 127
1, 15048, Note_off_c, 1, 77, 0
1, 15048, Note_off_c, 1, 74, 0
1, 15060, Note_on_c, 1, 79, 127
1, 15060, Note_on_c, 1, 75, 127
1, 15096, Note_off_c, 1, 46, 0
1, 15108, Note_off_c, 1, 79, 0
1, 15108, Note_off_c, 1, 75, 0
1, 15120, Note_on_c, 1, 80, 127
1, 15120, Note_on_c, 1, 77, 127
1, 15120, Note_on_c, 1, 46, 127
1, 15168, Note_off_c, 1, 80, 0
1, 15168, Note_off_c, 1, 77, 0
1, 15180, Note_on_c, 1, 79, 127
1, 15180, Note_on_c, 1, 75, 127
1, 15216, Note_off_c, 1, 46, 0
1, 15228, Note_off_c, 1, 79, 0
1, 15228, Note_off_c, 1, 75, 0
1, 15240, Note_on_c, 1, 77, 127
1, 15240, Note_on_c, 1, 74, 127
1, 15240, Note_on_c, 1, 58, 127
1, 15288, Note_off_c, 1, 77, 0
1, 15288, Note_off_c, 1, 74, 0
1, 15300, Note_on_c, 1, 80, 127
1, 15336, Note_off_c, 1, 58, 0
1, 15348, Note_off_c, 1, 80, 0
1, 15360, Note_on_c, 1, 79, 127
1, 15360, Note_on_c, 1, 75, 127
1, 15360, Note_on_c, 1, 46, 127
1, 15408, Note_off_c, 1, 79, 0
1, 15408, Note_off_c, 1, 75, 0
1, 15420, Note_on_c, 1, 77, 127
1, 15420, Note_on_c, 1, 74, 127
1, 15456, Note_off_c, 1, 46, 0
1, 15468, Note_off_c, 1, 77, 0
1, 15468, Note_off_c, 1, 74, 0
1, 15480, Note_on_c, 1, 79, 127
1, 15480, Note_on_c, 1, 75, 127
1, 15480, Note_on_c, 1, 51, 127
1, 15528, Note_off_c, 1, 79, 0
1, 15540, Note_on_c, 1, 77, 127
1, 15576, Note_off_c, 1, 75, 0
1, 15576, Note_off_c, 1, 51, 0
1, 15588, Note_off_c, 1, 77, 0
1, 15600, Note_on_c, 1, 75, 127
1, 15600, Note_on_c, 1, 79, 127
1, 15600, Note_on_c, 1, 48, 127
1, 15648, Note_off_c, 1, 75, 0
1, 15648, Note_off_c, 1, 79, 0
1, 15660, Note_on_c, 1, 74, 127
1, 15660, Note_on_c, 1, 77, 127
1, 15696, Note_off_c, 1, 48, 0
1, 15708, Note_off_c, 1, 74, 0
1, 15708, Note_off_c, 1, 77, 0
1, 15720, Note_on_c, 1, 72, 127
1, 15720, Note_on_c, 1, 75, 127
1, 15720, Note_on_c, 1, 51, 127
1, 15768, Note_off_c, 1, 72, 0
1, 15768, Note_off_c, 1, 75, 0
1, 15780, Note_on_c, 1, 70, 127
1, 15780, Note_on_c, 1, 74, 127
1, 15816, Note_off_c, 1, 51, 0
1, 15828, Note_off_c, 1, 70, 0
1, 15828, Note_off_c, 1, 74, 0
1, 15840, Note_on_c, 1, 69, 127
1, 15840, Note_on_c, 1, 72, 127
1, 15840, Note_on_c, 1, 53, 127
1, 15888, Note_off_c, 1, 69, 0
1, 15888, Note_off_c, 1, 72, 0
1, 15900, Note_on_c, 1, 70, 127
1, 15936, Note_off_c, 1, 53, 0
1, 15948, Note_off_c, 1, 70, 0
1, 15960, Note_on_c, 1, 72, 127
1, 15960, Note_on_c, 1, 69, 127
1, 15960, Note_on_c, 1, 41, 127
1, 16008, Note_off_c, 1, 72, 0
1, 16008, Note_off_c, 1, 69, 0
1, 16020, Note_on_c, 1, 75, 127
1, 16056, Note_off_c, 1, 41, 0
1, 16068, Note_off_c, 1, 75, 0
1, 16080, Note_on_c, 1, 74, 127
1, 16080, Note_on_c, 1, 70, 127
1, 16080, Note_on_c, 1, 53, 127
1, 16128, Note_off_c, 1, 74, 0
1, 16128, Note_off_c, 1, 70, 0
1, 16140, Note_on_c, 1, 72, 127
1, 16140, Note_on_c, 1, 69, 127
1, 16176, Note_off_c, 1, 53, 0
1, 16188, Note_off_c, 1, 72, 0
1, 16188, Note_off_c, 1, 69, 0
1, 16200, Note_on_c, 1, 74, 127
1, 16200, Note_on_c, 1, 70, 127
1, 16200, Note_on_c, 1, 58, 127
1, 16248, Note_off_c, 1, 74, 0
1, 16248, Note_off_c, 1, 70, 0
1, 16260, Note_on_c, 1, 75, 127
1, 16260, Note_on_c, 1, 72, 127
1, 16296, Note_off_c, 1, 58, 0
1, 16308, Note_off_c, 1, 75, 0
1, 16308, Note_off_c, 1, 72, 0
1, 16320, Note_on_c, 1, 77, 127
1, 16320, Note_on_c, 1, 74, 127
1, 16320, Note_on_c, 1, 46, 127
1, 16368, Note_off_c, 1, 46, 0
1, 16380, Note_on_c, 1, 48, 127
1, 16428, Note_off_c, 1, 48, 0
1, 16440, Note_on_c, 1, 50, 127
1, 16488, Note_off_c, 1, 50, 0
1, 16500, Note_on_c, 1, 51, 127
1, 16548, Note_off_c, 1, 51, 0
1, 16560, Note_on_c, 1, 53, 127
1, 16608, Note_off_c, 1, 77, 0
1, 16608, Note_off_c, 1, 74, 0
1, 16620, Note_on_c, 1, 72, 127
1, 16620, Note_on_c, 1, 69, 127
1, 16656, Note_off_c, 1, 53, 0
1, 16668, Note_off_c, 1, 72, 0
1, 16668, Note_off_c, 1, 69, 0
1, 16680, Note_on_c, 1, 72, 127
1, 16680, Note_on_c, 1, 69, 127
1, 16680, Note_on_c, 1, 41, 127
1, 16728, Note_off_c, 1, 72, 0
1, 16728, Note_off_c, 1, 69, 0
1, 16740, Note_on_c, 1, 75, 127
1, 16776, Note_off_c, 1, 41, 0
1, 16788, Note_off_c, 1, 75, 0
1, 16800, Note_on_c, 1, 74, 127
1, 16800, Note_on_c, 1, 70, 127
1, 16800, Note_on_c, 1, 53, 127
1, 16848, Note_off_c, 1, 74, 0
1, 16848, Note_off_c, 1, 70, 0
1, 16860, Note_on_c, 1, 72, 127
1, 16860, Note_on_c, 1, 69, 127
1, 16896, Note_off_c, 1, 53, 0
1, 16908, Note_off_c, 1, 72, 0
1, 16908, Note_off_c, 1, 69, 0
1, 16920, Note_on_c, 1, 74, 127
1, 16920, Note_on_c, 1, 70, 127
1, 16920, Note_on_c, 1, 46, 127
1, 16968, Note_off_c, 1, 74, 0
1, 16968, Note_off_c, 1, 70, 0
1, 16980, Note_on_c, 1, 75, 127
1, 16980, Note_on_c, 1, 72, 127
1, 17016, Note_off_c, 1, 46, 0
1, 17028, Note_off_c, 1, 75, 0
1, 17028, Note_off_c, 1, 72, 0
1, 17040, Note_on_c, 1, 77, 127
1, 17040, Note_on_c, 1, 74, 127
1, 17040, Note_on_c, 1, 46, 127
1, 17088, Note_off_c, 1, 46, 0
1, 17100, Note_on_c, 1, 48, 127
1, 17148, Note_off_c, 1, 48, 0
1, 17160, Note_on_c, 1, 50, 127
1, 17208, Note_off_c, 1, 50, 0
1, 17220, Note_on_c, 1, 51, 127
1, 17268, Note_off_c, 1, 51, 0
1, 17280, Note_on_c, 1, 53, 127
1, 17328, Note_off_c, 1, 77, 0
1, 17328, Note_off_c, 1, 74, 0
1, 17340, Note_on_c, 1, 72, 127
1, 17340, Note_on_c, 1, 69, 127
1, 17376, Note_off_c, 1, 53, 0
1, 17388, Note_off_c, 1, 72, 0
1, 17388, Note_off_c, 1, 69, 0
1, 17400, Note_on_c, 1, 72, 127
1, 17400, Note_on_c, 1, 69, 127
1, 17400, Note_on_c, 1, 41, 127
1, 17448, Note_off_c, 1, 72, 0
1, 17448, Note_off_c, 1, 69, 0
1, 17460, Note_on_c, 1, 75, 127
1, 17496, Note_off_c, 1, 41, 0
1, 17508, Note_off_c, 1, 75, 0
1, 17520, Note_on_c, 1, 74, 127
1, 17520, Note_on_c, 1, 70, 127
1, 17520, Note_on_c, 1, 53, 127
1, 17568, Note_off_c, 1, 74, 0
1, 17568, Note_off_c, 1, 70, 0
1, 17580, Note_on_c, 1, 72, 127
1, 17580, Note_on_c, 1, 69, 127
1, 17616, Note_off_c, 1, 53, 0
1, 17628, Note_off_c, 1, 72, 0
1, 17628, Note_off_c, 1, 69, 0
1, 17640, Note_on_c, 1, 74, 127
1, 17640, Note_on_c, 1, 70, 127
1, 17640, Note_on_c, 1, 46, 127
1, 17688, Note_off_c, 1, 74, 0
1, 17700, Note_on_c, 1, 75, 127
1, 17736, Note_off_c, 1, 46, 0
1, 17748, Note_off_c, 1, 75, 0
1, 17760, Note_on_c, 1, 48, 127
1, 17820, Note_on_c, 1, 77, 127
1, 17856, Note_off_c, 1, 48, 0
1, 17868, Note_off_c, 1, 77, 0
1, 17880, Note_on_c, 1, 50, 127
1, 17940, Note_on_c, 1, 79, 127
1, 17976, Note_off_c, 1, 50, 0
1, 17988, Note_off_c, 1, 79, 0
1, 18000, Note_on_c, 1, 51, 127
1, 18060, Note_on_c, 1, 81, 127
1, 18072, Note_off_c, 1, 70, 0
1, 18096, Note_off_c, 1, 51, 0
1, 18108, Note_off_c, 1, 81, 0
1, 18120, Note_on_c, 1, 81, 127
1, 18120, Note_on_c, 1, 75, 127
1, 18120, Note_on_c, 1, 53, 127
1, 18168, Note_off_c, 1, 81, 0
1, 18180, Note_on_c, 1, 82, 127
1, 18216, Note_off_c, 1, 75, 0
1, 18216, Note_off_c, 1, 53, 0
1, 18228, Note_off_c, 1, 82, 0
1, 18240, Note_on_c, 1, 82, 127
1, 18240, Note_on_c, 1, 74, 127
1, 18240, Note_on_c, 1, 55, 127
1, 18288, Note_off_c, 1, 82, 0
1, 18300, Note_on_c, 1, 70, 127
1, 18336, Note_off_c, 1, 74, 0
1, 18336, Note_off_c, 1, 55, 0
1, 18348, Note_off_c, 1, 70, 0
1, 18360, Note_on_c, 1, 79, 127
1, 18360, Note_on_c, 1, 72, 127
1, 18360, Note_on_c, 1, 51, 127
1, 18408, Note_off_c, 1, 79, 0
1, 18420, Note_on_c, 1, 75, 127
1, 18456, Note_off_c, 1, 72, 0
1, 18456, Note_off_c, 1, 51, 0
1, 18468, Note_off_c, 1, 75, 0
1, 18480, Note_on_c, 1, 74, 127
1, 18480, Note_on_c, 1, 70, 127
1, 18480, Note_on_c, 1, 53, 127
1, 18576, Note_off_c, 1, 74, 0
1, 18576, Note_off_c, 1, 70, 0
1, 18576, Note_off_c, 1, 53, 0
1, 18600, Note_on_c, 1, 72, 127
1, 18600, Note_on_c, 1, 69, 127
1, 18600, Note_on_c, 1, 41, 127
1, 18696, Note_off_c, 1, 72, 0
1, 18696, Note_off_c, 1, 69, 0
1, 18696, Note_off_c, 1, 41, 0
1, 18720, Note_on_c, 1, 70, 127
1, 18720, Note_on_c, 1, 74, 127
1, 18720, Note_on_c, 1, 46, 127
1, 18768, Note_off_c, 1, 70, 0
1, 18768, Note_off_c, 1, 74, 0
1, 18780, Note_on_c, 1, 72, 127
1, 18780, Note_on_c, 1, 75, 127
1, 18816, Note_off_c, 1, 46, 0
1, 18828, Note_off_c, 1, 72, 0
1, 18828, Note_off_c, 1, 75, 0
1, 18840, Note_on_c, 1, 74, 127
1, 18840, Note_on_c, 1, 77, 127
1, 18840, Note_on_c, 1, 46, 127
1, 18888, Note_off_c, 1, 46, 0
1, 18900, Note_on_c, 1, 48, 127
1, 18948, Note_off_c, 1, 48, 0
1, 18960, Note_on_c, 1, 50, 127
1, 19008, Note_off_c, 1, 50, 0
1, 19020, Note_on_c, 1, 51, 127
1, 19068, Note_off_c, 1, 51, 0
1, 19080, Note_on_c, 1, 53, 127
1, 19128, Note_off_c, 1, 74, 0
1, 19128, Note_off_c, 1, 77, 0
1, 19140, Note_on_c, 1, 69, 127
1, 19140, Note_on_c, 1, 72, 127
1, 19176, Note_off_c, 1, 53, 0
1, 19188, Note_off_c, 1, 69, 0
1, 19188, Note_off_c, 1, 72, 0
1, 19200, Note_on_c, 1, 69, 127
1, 19200, Note_on_c, 1, 72, 127
1, 19200, Note_on_c, 1, 41, 127
1, 19248, Note_off_c, 1, 69, 0
1, 19248, Note_off_c, 1, 72, 0
1, 19260, Note_on_c, 1, 75, 127
1, 19296, Note_off_c, 1, 41, 0
1, 19308, Note_off_c, 1, 75, 0
1, 19320, Note_on_c, 1, 70, 127
1, 19320, Note_on_c, 1, 74, 127
1, 19320, Note_on_c, 1, 53, 127
1, 19368, Note_off_c, 1, 70, 0
1, 19368, Note_off_c, 1, 74, 0
1, 19380, Note_on_c, 1, 69, 127
1, 19380, Note_on_c, 1, 72, 127
1, 19416, Note_off_c, 1, 53, 0
1, 19428, Note_off_c, 1, 69, 0
1, 19428, Note_off_c, 1, 72, 0
1, 19440, Note_on_c, 1, 70, 127
1, 19440, Note_on_c, 1, 74, 127
1, 19440, Note_on_c, 1, 46, 127
1, 19488, Note_off_c, 1, 70, 0
1, 19488, Note_off_c, 1, 74, 0
1, 19500, Note_on_c, 1, 72, 127
1, 19500, Note_on_c, 1, 75, 127
1, 19536, Note_off_c, 1, 46, 0
1, 19548, Note_off_c, 1, 72, 0
1, 19548, Note_off_c, 1, 75, 0
1, 19560, Note_on_c, 1, 74, 127
1, 19560, Note_on_c, 1, 77, 127
1, 19560, Note_on_c, 1, 46, 127
1, 19608, Note_off_c, 1, 46, 0
1, 19620, Note_on_c, 1, 48, 127
1, 19668, Note_off_c, 1, 48, 0
1, 19680, Note_on_c, 1, 50, 127
1, 19728, Note_off_c, 1, 50, 0
1, 19740, Note_on_c, 1, 51, 127
1, 19788, Note_off_c, 1, 51, 0
1, 19800, Note_on_c, 1, 53, 127
1, 19848, Note_off_c, 1, 74, 0
1, 19848, Note_off_c, 1, 77, 0
1, 19860, Note_on_c, 1, 69, 127
1, 19860, Note_on_c, 1, 72, 127
1, 19896, Note_off_c, 1, 53, 0
1, 19908, Note_off_c, 1, 69, 0
1, 19908, Note_off_c, 1, 72, 0
1, 19920, Note_on_c, 1, 69, 127
1, 19920, Note_on_c, 1, 72, 127
1, 19920, Note_on_c, 1, 41, 127
1, 19968, Note_off_c, 1, 69, 0
1, 19968, Note_off_c, 1, 72, 0
1, 19980, Note_on_c, 1, 75, 127
1, 20016, Note_off_c, 1, 41, 0
1, 20028, Note_off_c, 1, 75, 0
1, 20040, Note_on_c, 1, 70, 127
1, 20040, Note_on_c, 1, 74, 127
1, 20040, Note_on_c, 1, 53, 127
1, 20088, Note_off_c, 1, 70, 0
1, 20088, Note_off_c, 1, 74, 0
1, 20100, Note_on_c, 1, 69, 127
1, 20100, Note_on_c, 1, 72, 127
1, 20136, Note_off_c, 1, 53, 0
1, 20148, Note_off_c, 1, 69, 0
1, 20148, Note_off_c, 1, 72, 0
1, 20160, Note_on_c, 1, 70, 127
1, 20160, Note_on_c, 1, 74, 127
1, 20160, Note_on_c, 1, 46, 127
1, 20208, Note_off_c, 1, 70, 0
1, 20208, Note_off_c, 1, 74, 0
1, 20220, Note_on_c, 1, 77, 127
1, 20256, Note_off_c, 1, 46, 0
1, 20268, Note_off_c, 1, 77, 0
1, 20280, Note_on_c, 1, 77, 127
1, 20280, Note_on_c, 1, 82, 127
1, 20280, Note_on_c, 1, 50, 127
1, 20328, Note_off_c, 1, 82, 0
1, 20340, Note_on_c, 1, 81, 127
1, 20376, Note_off_c, 1, 50, 0
1, 20388, Note_off_c, 1, 81, 0
1, 20400, Note_on_c, 1, 79, 127
1, 20400, Note_on_c, 1, 46, 127
1, 20448, Note_off_c, 1, 79, 0
1, 20496, Note_off_c, 1, 46, 0
1, 20520, Note_on_c, 1, 51, 127
1, 20628, Note_off_c, 1, 77, 0
1, 20640, Note_on_c, 1, 75, 127
1, 20664, Note_off_c, 1, 51, 0
1, 20700, Note_on_c, 1, 53, 127
1, 20736, Note_off_c, 1, 75, 0
1, 20748, Note_off_c, 1, 53, 0
1, 20760, Note_on_c, 1, 74, 127
1, 20760, Note_on_c, 1, 82, 127
1, 20760, Note_on_c, 1, 55, 127
1, 20856, Note_off_c, 1, 74, 0
1, 20856, Note_off_c, 1, 82, 0
1, 20856, Note_off_c, 1, 55, 0
1, 20880, Note_on_c, 1, 75, 127
1, 20880, Note_on_c, 1, 79, 127
1, 20880, Note_on_c, 1, 51, 127
1, 20928, Note_off_c, 1, 75, 0
1, 20928, Note_off_c, 1, 79, 0
1, 20940, Note_on_c, 1, 72, 127
1, 20976, Note_off_c, 1, 51, 0
1, 20988, Note_off_c, 1, 72, 0
1, 21000, Note_on_c, 1, 70, 127
1, 21000, Note_on_c, 1, 74, 127
1, 21000, Note_on_c, 1, 53, 127
1, 21048, Note_off_c, 1, 70, 0
1, 21048, Note_off_c, 1, 74, 0
1, 21060, Note_on_c, 1, 69, 127
1, 21060, Note_on_c, 1, 72, 127
1, 21072, Note_off_c, 1, 69, 0
1, 21072, Note_off_c, 1, 72, 0
1, 21096, Note_off_c, 1, 53, 0
1, 21105, Note_on_c, 1, 70, 127
1, 21105, Note_on_c, 1, 74, 127
1, 21117, Note_off_c, 1, 70, 0
1, 21117, Note_off_c, 1, 74, 0
1, 21120, Note_on_c, 1, 69, 127
1, 21120, Note_on_c, 1, 72, 127
1, 21120, Note_on_c, 1, 41, 127
1, 21168, Note_off_c, 1, 69, 0
1, 21168, Note_off_c, 1, 72, 0
1, 21180, Note_on_c, 1, 70, 127
1, 21216, Note_off_c, 1, 41, 0
1, 21228, Note_off_c, 1, 70, 0
1, 21240, Note_on_c, 1, 70, 127
1, 21240, Note_on_c, 1, 46, 127
1, 21528, Note_off_c, 1, 70, 0
1, 21528, Note_off_c, 1, 46, 0
1, 21600, Note_on_c, 1, 46, 127
1, 21660, Note_on_c, 1, 58, 127
1, 21708, Note_off_c, 1, 58, 0
1, 21720, Note_on_c, 1, 62, 127
1, 21768, Note_off_c, 1, 62, 0
1, 21780, Note_on_c, 1, 65, 127
1, 21792, Note_off_c, 1, 46, 0
1, 21828, Note_off_c, 1, 65, 0
1, 21840, Note_on_c, 1, 70, 127
1, 21840, Note_on_c, 1, 50, 127
1, 21888, Note_off_c, 1, 70, 0
1, 21900, Note_on_c, 1, 65, 127
1, 21936, Note_off_c, 1, 50, 0
1, 21948, Note_off_c, 1, 65, 0
1, 21960, Note_on_c, 1, 67, 127
1, 21960, Note_on_c, 1, 51, 127
1, 22008, Note_off_c, 1, 67, 0
1, 22020, Note_on_c, 1, 75, 127
1, 22020, Note_on_c, 1, 79, 127
1, 22056, Note_off_c, 1, 51, 0
1, 22068, Note_off_c, 1, 75, 0
1, 22068, Note_off_c, 1, 79, 0
1, 22080, Note_on_c, 1, 74, 127
1, 22080, Note_on_c, 1, 77, 127
1, 22080, Note_on_c, 1, 53, 127
1, 22128, Note_off_c, 1, 74, 0
1, 22128, Note_off_c, 1, 77, 0
1, 22140, Note_on_c, 1, 72, 127
1, 22140, Note_on_c, 1, 75, 127
1, 22176, Note_off_c, 1, 53, 0
1, 22188, Note_off_c, 1, 72, 0
1, 22188, Note_off_c, 1, 75, 0
1, 22200, Note_on_c, 1, 70, 127
1, 22200, Note_on_c, 1, 74, 127
1, 22200, Note_on_c, 1, 41, 127
1, 22248, Note_off_c, 1, 70, 0
1, 22248, Note_off_c, 1, 74, 0
1, 22260, Note_on_c, 1, 69, 127
1, 22260, Note_on_c, 1, 72, 127
1, 22296, Note_off_c, 1, 41, 0
1, 22308, Note_off_c, 1, 69, 0
1, 22308, Note_off_c, 1, 72, 0
1, 22320, Note_on_c, 1, 70, 127
1, 22320, Note_on_c, 1, 74, 127
1, 22320, Note_on_c, 1, 46, 127
1, 22368, Note_off_c, 1, 74, 0
1, 22380, Note_on_c, 1, 58, 127
1, 22416, Note_off_c, 1, 70, 0
1, 22428, Note_off_c, 1, 58, 0
1, 22440, Note_on_c, 1, 82, 127
1, 22440, Note_on_c, 1, 62, 127
1, 22488, Note_off_c, 1, 62, 0
1, 22500, Note_on_c, 1, 65, 127
1, 22512, Note_off_c, 1, 46, 0
1, 22536, Note_off_c, 1, 82, 0
1, 22548, Note_off_c, 1, 65, 0
1, 22560, Note_on_c, 1, 70, 127
1, 22560, Note_on_c, 1, 50, 127
1, 22620, Note_on_c, 1, 65, 127
1, 22656, Note_off_c, 1, 50, 0
1, 22668, Note_off_c, 1, 65, 0
1, 22680, Note_on_c, 1, 67, 127
1, 22680, Note_on_c, 1, 51, 127
1, 22728, Note_off_c, 1, 70, 0
1, 22728, Note_off_c, 1, 67, 0
1, 22740, Note_on_c, 1, 75, 127
1, 22740, Note_on_c, 1, 79, 127
1, 22776, Note_off_c, 1, 51, 0
1, 22788, Note_off_c, 1, 75, 0
1, 22788, Note_off_c, 1, 79, 0
1, 22800, Note_on_c, 1, 74, 127
1, 22800, Note_on_c, 1, 77, 127
1, 22800, Note_on_c, 1, 53, 127
1, 22848, Note_off_c, 1, 74, 0
1, 22848, Note_off_c, 1, 77, 0
1, 22860, Note_on_c, 1, 72, 127
1, 22860, Note_on_c, 1, 75, 127
1, 22896, Note_off_c, 1, 53, 0
1, 22908, Note_off_c, 1, 72, 0
1, 22908, Note_off_c, 1, 75, 0
1, 22920, Note_on_c, 1, 70, 127
1, 22920, Note_on_c, 1, 74, 127
1, 22920, Note_on_c, 1, 41, 127
1, 22968, Note_off_c, 1, 70, 0
1, 22968, Note_off_c, 1, 74, 0
1, 22980, Note_on_c, 1, 69, 127
1, 22980, Note_on_c, 1, 72, 127
1, 23016, Note_off_c, 1, 41, 0
1, 23028, Note_off_c, 1, 69, 0
1, 23028, Note_off_c, 1, 72, 0
1, 23040, Note_on_c, 1, 70, 127
1, 23040, Note_on_c, 1, 74, 127
1, 23040, Note_on_c, 1, 46, 127
1, 23088, Note_off_c, 1, 74, 0
1, 23100, Note_on_c, 1, 77, 127
1, 23136, Note_off_c, 1, 70, 0
1, 23148, Note_off_c, 1, 77, 0
1, 23160, Note_on_c, 1, 75, 127
1, 23208, Note_off_c, 1, 75, 0
1, 23232, Note_off_c, 1, 46, 0
1, 23280, Note_on_c, 1, 79, 127
1, 23280, Note_on_c, 1, 72, 127
1, 23280, Note_on_c, 1, 51, 127
1, 23328, Note_off_c, 1, 72, 0
1, 23340, Note_on_c, 1, 70, 127
1, 23376, Note_off_c, 1, 79, 0
1, 23376, Note_off_c, 1, 51, 0
1, 23388, Note_off_c, 1, 70, 0
1, 23400, Note_on_c, 1, 72, 127
1, 23400, Note_on_c, 1, 69, 127
1, 23400, Note_on_c, 1, 53, 127
1, 23496, Note_off_c, 1, 72, 0
1, 23496, Note_off_c, 1, 69, 0
1, 23496, Note_off_c, 1, 53, 0
1, 23520, Note_on_c, 1, 74, 127
1, 23520, Note_on_c, 1, 70, 127
1, 23520, Note_on_c, 1, 58, 127
1, 23568, Note_off_c, 1, 58, 0
1, 23580, Note_on_c, 1, 53, 127
1, 23628, Note_off_c, 1, 53, 0
1, 23640, Note_on_c, 1, 50, 127
1, 23664, Note_off_c, 1, 74, 0
1, 23664, Note_off_c, 1, 70, 0
1, 23688, Note_off_c, 1, 50, 0
1, 23700, Note_on_c, 1, 75, 127
1, 23700, Note_on_c, 1, 72, 127
1, 23700, Note_on_c, 1, 46, 127
1, 23724, Note_off_c, 1, 75, 0
1, 23724, Note_off_c, 1, 72, 0
1, 23730, Note_on_c, 1, 77, 127
1, 23730, Note_on_c, 1, 74, 127
1, 23748, Note_off_c, 1, 46, 0
1, 23754, Note_off_c, 1, 77, 0
1, 23754, Note_off_c, 1, 74, 0
1, 23760, Note_on_c, 1, 72, 127
1, 23760, Note_on_c, 1, 69, 127
1, 23760, Note_on_c, 1, 53, 127
1, 23856, Note_off_c, 1, 72, 0
1, 23856, Note_off_c, 1, 69, 0
1, 23856, Note_off_c, 1, 53, 0
1, 23880, Note_on_c, 1, 74, 127
1, 23880, Note_on_c, 1, 70, 127
1, 23880, Note_on_c, 1, 58, 127
1, 23928, Note_off_c, 1, 58, 0
1, 23940, Note_on_c, 1, 53, 127
1, 23988, Note_off_c, 1, 53, 0
1, 24000, Note_on_c, 1, 50, 127
1, 24024, Note_off_c, 1, 74, 0
1, 24024, Note_off_c, 1, 70, 0
1, 24048, Note_off_c, 1, 50, 0
1, 24060, Note_on_c, 1, 75, 127
1, 24060, Note_on_c, 1, 72, 127
1, 24060, Note_on_c, 1, 46, 127
1, 24084, Note_off_c, 1, 75, 0
1, 24084, Note_off_c, 1, 72, 0
1, 24090, Note_on_c, 1, 77, 127
1, 24090, Note_on_c, 1, 74, 127
1, 24108, Note_off_c, 1, 46, 0
1, 24114, Note_off_c, 1, 77, 0
1, 24114, Note_off_c, 1, 74, 0
1, 24120, Note_on_c, 1, 72, 127
1, 24120, Note_on_c, 1, 69, 127
1, 24120, Note_on_c, 1, 53, 127
1, 24216, Note_off_c, 1, 72, 0
1, 24240, Note_on_c, 1, 65, 127
1, 24264, Note_off_c, 1, 53, 0
1, 24300, Note_on_c, 1, 51, 127
1, 24312, Note_off_c, 1, 69, 0
1, 24336, Note_off_c, 1, 65, 0
1, 24348, Note_off_c, 1, 51, 0
1, 24360, Note_on_c, 1, 77, 127
1, 24360, Note_on_c, 1, 50, 127
1, 24408, Note_off_c, 1, 50, 0
1, 24420, Note_on_c, 1, 48, 127
1, 24468, Note_off_c, 1, 48, 0
1, 24480, Note_on_c, 1, 47, 127
1, 24528, Note_off_c, 1, 77, 0
1, 24540, Note_on_c, 1, 80, 127
1, 24588, Note_off_c, 1, 80, 0
1, 24600, Note_on_c, 1, 79, 127
1, 24600, Note_on_c, 1, 74, 127
1, 24648, Note_off_c, 1, 79, 0
1, 24720, Note_on_c, 1, 75, 127
1, 24768, Note_off_c, 1, 47, 0
1, 24768, Note_off_c, 1, 75, 0
1, 24828, Note_off_c, 1, 74, 0
1, 24840, Note_on_c, 1, 75, 127
1, 24840, Note_on_c, 1, 74, 127
1, 24840, Note_on_c, 1, 48, 127
1, 24888, Note_off_c, 1, 75, 0
1, 24888, Note_off_c, 1, 48, 0
1, 24900, Note_on_c, 1, 47, 127
1, 24948, Note_off_c, 1, 74, 0
1, 24948, Note_off_c, 1, 47, 0
1, 24960, Note_on_c, 1, 75, 127
1, 24960, Note_on_c, 1, 67, 127
1, 24960, Note_on_c, 1, 48, 127
1, 25008, Note_off_c, 1, 75, 0
1, 25008, Note_off_c, 1, 48, 0
1, 25020, Note_on_c, 1, 77, 127
1, 25020, Note_on_c, 1, 50, 127
1, 25056, Note_off_c, 1, 67, 0
1, 25068, Note_off_c, 1, 77, 0
1, 25068, Note_off_c, 1, 50, 0
1, 25080, Note_on_c, 1, 79, 127
1, 25080, Note_on_c, 1, 72, 127
1, 25080, Note_on_c, 1, 51, 127
1, 25128, Note_off_c, 1, 72, 0
1, 25128, Note_off_c, 1, 51, 0
1, 25140, Note_on_c, 1, 70, 127
1, 25140, Note_on_c, 1, 48, 127
1, 25188, Note_off_c, 1, 70, 0
1, 25188, Note_off_c, 1, 48, 0
1, 25200, Note_on_c, 1, 68, 127
1, 25200, Note_on_c, 1, 53, 127
1, 25296, Note_off_c, 1, 79, 0
1, 25296, Note_off_c, 1, 68, 0
1, 25320, Note_on_c, 1, 77, 127
1, 25320, Note_on_c, 1, 80, 127
1, 25368, Note_off_c, 1, 77, 0
1, 25368, Note_off_c, 1, 80, 0
1, 25380, Note_on_c, 1, 75, 127
1, 25428, Note_off_c, 1, 75, 0
1, 25440, Note_on_c, 1, 74, 127
1, 25488, Note_off_c, 1, 53, 0
1, 25488, Note_off_c, 1, 74, 0
1, 25500, Note_on_c, 1, 72, 127
1, 25500, Note_on_c, 1, 75, 127
1, 25548, Note_off_c, 1, 72, 0
1, 25548, Note_off_c, 1, 75, 0
1, 25560, Note_on_c, 1, 71, 127
1, 25560, Note_on_c, 1, 74, 127
1, 25560, Note_on_c, 1, 55, 127
1, 25656, Note_off_c, 1, 71, 0
1, 25656, Note_off_c, 1, 74, 0
1, 25656, Note_off_c, 1, 55, 0
1, 25680, Note_on_c, 1, 72, 127
1, 25680, Note_on_c, 1, 75, 127
1, 25680, Note_on_c, 1, 60, 127
1, 25728, Note_off_c, 1, 60, 0
1, 25740, Note_on_c, 1, 55, 127
1, 25788, Note_off_c, 1, 55, 0
1, 25800, Note_on_c, 1, 51, 127
1, 25824, Note_off_c, 1, 72, 0
1, 25824, Note_off_c, 1, 75, 0
1, 25848, Note_off_c, 1, 51, 0
1, 25860, Note_on_c, 1, 74, 127
1, 25860, Note_on_c, 1, 77, 127
1, 25860, Note_on_c, 1, 48, 127
1, 25884, Note_off_c, 1, 74, 0
1, 25884, Note_off_c, 1, 77, 0
1, 25890, Note_on_c, 1, 75, 127
1, 25890, Note_on_c, 1, 79, 127
1, 25908, Note_off_c, 1, 48, 0
1, 25914, Note_off_c, 1, 75, 0
1, 25914, Note_off_c, 1, 79, 0
1, 25920, Note_on_c, 1, 71, 127
1, 25920, Note_on_c, 1, 74, 127
1, 25920, Note_on_c, 1, 55, 127
1, 26016, Note_off_c, 1, 71, 0
1, 26016, Note_off_c, 1, 74, 0
1, 26016, Note_off_c, 1, 55, 0
1, 26040, Note_on_c, 1, 72, 127
1, 26040, Note_on_c, 1, 75, 127
1, 26040, Note_on_c, 1, 60, 127
1, 26088, Note_off_c, 1, 60, 0
1, 26100, Note_on_c, 1, 55, 127
1, 26148, Note_off_c, 1, 55, 0
1, 26160, Note_on_c, 1, 51, 127
1, 26184, Note_off_c, 1, 72, 0
1, 26184, Note_off_c, 1, 75, 0
1, 26208, Note_off_c, 1, 51, 0
1, 26220, Note_on_c, 1, 74, 127
1, 26220, Note_on_c, 1, 77, 127
1, 26220, Note_on_c, 1, 48, 127
1, 26244, Note_off_c, 1, 74, 0
1, 26244, Note_off_c, 1, 77, 0
1, 26250, Note_on_c, 1, 75, 127
1, 26250, Note_on_c, 1, 79, 127
1, 26268, Note_off_c, 1, 48, 0
1, 26274, Note_off_c, 1, 75, 0
1, 26274, Note_off_c, 1, 79, 0
1, 26280, Note_on_c, 1, 71, 127
1, 26280, Note_on_c, 1, 74, 127
1, 26280, Note_on_c, 1, 55, 127
1, 26328, Note_off_c, 1, 71, 0
1, 26340, Note_on_c, 1, 79, 127
1, 26376, Note_off_c, 1, 74, 0
1, 26376, Note_off_c, 1, 55, 0
1, 26388, Note_off_c, 1, 79, 0
1, 26400, Note_on_c, 1, 79, 127
1, 26400, Note_on_c, 1, 59, 127
1, 26448, Note_off_c, 1, 79, 0
1, 26460, Note_on_c, 1, 77, 127
1, 26496, Note_off_c, 1, 59, 0
1, 26508, Note_off_c, 1, 77, 0
1, 26520, Note_on_c, 1, 77, 127
1, 26520, Note_on_c, 1, 55, 127
1, 26568, Note_off_c, 1, 77, 0
1, 26580, Note_on_c, 1, 75, 127
1, 26616, Note_off_c, 1, 55, 0
1, 26628, Note_off_c, 1, 75, 0
1, 26640, Note_on_c, 1, 74, 127
1, 26640, Note_on_c, 1, 60, 127
1, 26700, Note_on_c, 1, 84, 127
1, 26736, Note_off_c, 1, 74, 0
1, 26736, Note_off_c, 1, 60, 0
1, 26748, Note_off_c, 1, 84, 0
1, 26760, Note_on_c, 1, 76, 127
1, 26760, Note_on_c, 1, 84, 127
1, 26760, Note_on_c, 1, 48, 127
1, 26808, Note_off_c, 1, 84, 0
1, 26820, Note_on_c, 1, 82, 127
1, 26856, Note_off_c, 1, 48, 0
1, 26868, Note_off_c, 1, 82, 0
1, 26880, Note_on_c, 1, 60, 127
1, 26940, Note_on_c, 1, 80, 127
1, 26952, Note_off_c, 1, 76, 0
1, 26976, Note_off_c, 1, 60, 0
1, 26988, Note_off_c, 1, 80, 0
1, 27000, Note_on_c, 1, 80, 127
1, 27000, Note_on_c, 1, 53, 127
1, 27060, Note_on_c, 1, 77, 127
1, 27096, Note_off_c, 1, 80, 0
1, 27096, Note_off_c, 1, 53, 0
1, 27108, Note_off_c, 1, 77, 0
1, 27120, Note_on_c, 1, 77, 127
1, 27120, Note_on_c, 1, 81, 127
1, 27120, Note_on_c, 1, 41, 127
1, 27168, Note_off_c, 1, 77, 0
1, 27180, Note_on_c, 1, 75, 127
1, 27216, Note_off_c, 1, 41, 0
1, 27228, Note_off_c, 1, 75, 0
1, 27240, Note_on_c, 1, 53, 127
1, 27300, Note_on_c, 1, 74, 127
1, 27312, Note_off_c, 1, 81, 0
1, 27336, Note_off_c, 1, 53, 0
1, 27348, Note_off_c, 1, 74, 0
1, 27360, Note_on_c, 1, 74, 127
1, 27360, Note_on_c, 1, 58, 127
1, 27420, Note_on_c, 1, 82, 127
1, 27456, Note_off_c, 1, 74, 0
1, 27456, Note_off_c, 1, 58, 0
1, 27468, Note_off_c, 1, 82, 0
1, 27480, Note_on_c, 1, 74, 127
1, 27480, Note_on_c, 1, 82, 127
1, 27480, Note_on_c, 1, 46, 127
1, 27528, Note_off_c, 1, 82, 0
1, 27540, Note_on_c, 1, 80, 127
1, 27576, Note_off_c, 1, 46, 0
1, 27588, Note_off_c, 1, 80, 0
1, 27600, Note_on_c, 1, 58, 127
1, 27660, Note_on_c, 1, 79, 127
1, 27672, Note_off_c, 1, 74, 0
1, 27696, Note_off_c, 1, 58, 0
1, 27708, Note_off_c, 1, 79, 0
1, 27720, Note_on_c, 1, 75, 127
1, 27720, Note_on_c, 1, 79, 127
1, 27720, Note_on_c, 1, 51, 127
1, 27768, Note_off_c, 1, 79, 0
1, 27816, Note_off_c, 1, 75, 0
1, 27816, Note_off_c, 1, 51, 0
1, 27840, Note_on_c, 1, 63, 127
1, 27840, Note_on_c, 1, 80, 127
1, 27840, Note_on_c, 1, 48, 127
1, 27888, Note_off_c, 1, 80, 0
1, 27900, Note_on_c, 1, 79, 127
1, 27936, Note_off_c, 1, 63, 0
1, 27936, Note_off_c, 1, 48, 0
1, 27948, Note_off_c, 1, 79, 0
1, 27960, Note_on_c, 1, 75, 127
1, 27960, Note_on_c, 1, 77, 127
1, 27960, Note_on_c, 1, 60, 127
1, 28008, Note_off_c, 1, 77, 0
1, 28068, Note_off_c, 1, 75, 0
1, 28080, Note_on_c, 1, 74, 127
1, 28176, Note_off_c, 1, 60, 0
1, 28176, Note_off_c, 1, 74, 0
1, 28200, Note_on_c, 1, 75, 127
1, 28200, Note_on_c, 1, 79, 127
1, 28200, Note_on_c, 1, 59, 127
1, 28248, Note_off_c, 1, 75, 0
1, 28248, Note_off_c, 1, 79, 0
1, 28260, Note_on_c, 1, 74, 127
1, 28260, Note_on_c, 1, 77, 127
1, 28272, Note_off_c, 1, 74, 0
1, 28308, Note_off_c, 1, 77, 0
1, 28392, Note_off_c, 1, 59, 0
1, 28440, Note_on_c, 1, 75, 127
1, 28440, Note_on_c, 1, 60, 127
1, 28500, Note_on_c, 1, 79, 127
1, 28536, Note_off_c, 1, 75, 0
1, 28536, Note_off_c, 1, 60, 0
1, 28548, Note_off_c, 1, 79, 0
1, 28560, Note_on_c, 1, 80, 127
1, 28560, Note_on_c, 1, 63, 127
1, 28560, Note_on_c, 1, 48, 127
1, 28608, Note_off_c, 1, 80, 0
1, 28620, Note_on_c, 1, 79, 127
1, 28656, Note_off_c, 1, 63, 0
1, 28656, Note_off_c, 1, 48, 0
1, 28668, Note_off_c, 1, 79, 0
1, 28680, Note_on_c, 1, 77, 127
1, 28680, Note_on_c, 1, 75, 127
1, 28680, Note_on_c, 1, 60, 127
1, 28728, Note_off_c, 1, 77, 0
1, 28776, Note_off_c, 1, 60, 0
1, 28788, Note_off_c, 1, 75, 0
1, 28800, Note_on_c, 1, 77, 127
1, 28800, Note_on_c, 1, 74, 127
1, 28800, Note_on_c, 1, 60, 127
1, 28848, Note_off_c, 1, 77, 0
1, 28896, Note_off_c, 1, 74, 0
1, 28896, Note_off_c, 1, 60, 0
1, 28920, Note_on_c, 1, 79, 127
1, 28920, Note_on_c, 1, 74, 127
1, 28920, Note_on_c, 1, 59, 127
1, 28968, Note_off_c, 1, 79, 0
1, 28980, Note_on_c, 1, 77, 127
1, 29028, Note_off_c, 1, 77, 0
1, 29040, Note_on_c, 1, 75, 127
1, 29088, Note_off_c, 1, 75, 0
1, 29112, Note_off_c, 1, 59, 0
1, 29148, Note_off_c, 1, 74, 0
1, 29160, Note_on_c, 1, 75, 127
1, 29160, Note_on_c, 1, 60, 127
1, 29256, Note_off_c, 1, 75, 0
1, 29340, Note_on_c, 1, 58, 127
1, 29376, Note_off_c, 1, 60, 0
1, 29388, Note_off_c, 1, 58, 0
1, 29400, Note_on_c, 1, 72, 127
1, 29400, Note_on_c, 1, 57, 127
1, 29448, Note_off_c, 1, 57, 0
1, 29460, Note_on_c, 1, 55, 127
1, 29508, Note_off_c, 1, 55, 0
1, 29520, Note_on_c, 1, 54, 127
1, 29568, Note_off_c, 1, 72, 0
1, 29580, Note_on_c, 1, 75, 127
1, 29628, Note_off_c, 1, 75, 0
1, 29640, Note_on_c, 1, 69, 127
1, 29640, Note_on_c, 1, 74, 127
1, 29688, Note_off_c, 1, 74, 0
1, 29760, Note_on_c, 1, 70, 127
1, 29808, Note_off_c, 1, 54, 0
1, 29808, Note_off_c, 1, 70, 0
1, 29988, Note_off_c, 1, 69, 0
1, 30000, Note_on_c, 1, 62, 127
1, 30000, Note_on_c, 1, 70, 127
1, 30000, Note_on_c, 1, 55, 127
1, 30048, Note_off_c, 1, 70, 0
1, 30048, Note_off_c, 1, 55, 0
1, 30060, Note_on_c, 1, 72, 127
1, 30060, Note_on_c, 1, 57, 127
1, 30096, Note_off_c, 1, 62, 0
1, 30108, Note_off_c, 1, 72, 0
1, 30108, Note_off_c, 1, 57, 0
1, 30120, Note_on_c, 1, 67, 127
1, 30120, Note_on_c, 1, 74, 127
1, 30120, Note_on_c, 1, 59, 127
1, 30168, Note_off_c, 1, 67, 0
1, 30168, Note_off_c, 1, 59, 0
1, 30180, Note_on_c, 1, 65, 127
1, 30180, Note_on_c, 1, 55, 127
1, 30228, Note_off_c, 1, 65, 0
1, 30228, Note_off_c, 1, 55, 0
1, 30240, Note_on_c, 1, 63, 127
1, 30240, Note_on_c, 1, 60, 127
1, 30336, Note_off_c, 1, 74, 0
1, 30336, Note_off_c, 1, 63, 0
1, 30336, Note_off_c, 1, 60, 0
1, 30360, Note_on_c, 1, 75, 127
1, 30360, Note_on_c, 1, 72, 127
1, 30360, Note_on_c, 1, 48, 127
1, 30408, Note_off_c, 1, 75, 0
1, 30408, Note_off_c, 1, 72, 0
1, 30420, Note_on_c, 1, 74, 127
1, 30420, Note_on_c, 1, 70, 127
1, 30468, Note_off_c, 1, 74, 0
1, 30468, Note_off_c, 1, 70, 0
1, 30480, Note_on_c, 1, 69, 127
1, 30528, Note_off_c, 1, 69, 0
1, 30540, Note_on_c, 1, 67, 127
1, 30552, Note_off_c, 1, 48, 0
1, 30588, Note_off_c, 1, 67, 0
1, 30600, Note_on_c, 1, 69, 127
1, 30600, Note_on_c, 1, 66, 127
1, 30600, Note_on_c, 1, 50, 127
1, 30696, Note_off_c, 1, 69, 0
1, 30696, Note_off_c, 1, 66, 0
1, 30696, Note_off_c, 1, 50, 0
1, 30720, Note_on_c, 1, 70, 127
1, 30720, Note_on_c, 1, 67, 127
1, 30720, Note_on_c, 1, 55, 127
1, 30768, Note_off_c, 1, 55, 0
1, 30780, Note_on_c, 1, 50, 127
1, 30828, Note_off_c, 1, 50, 0
1, 30840, Note_on_c, 1, 46, 127
1, 30864, Note_off_c, 1, 70, 0
1, 30864, Note_off_c, 1, 67, 0
1, 30888, Note_off_c, 1, 46, 0
1, 30900, Note_on_c, 1, 72, 127
1, 30900, Note_on_c, 1, 69, 127
1, 30900, Note_on_c, 1, 43, 127
1, 30924, Note_off_c, 1, 72, 0
1, 30924, Note_off_c, 1, 69, 0
1, 30930, Note_on_c, 1, 74, 127
1, 30930, Note_on_c, 1, 70, 127
1, 30948, Note_off_c, 1, 43, 0
1, 30954, Note_off_c, 1, 74, 0
1, 30954, Note_off_c, 1, 70, 0
1, 30960, Note_on_c, 1, 69, 127
1, 30960, Note_on_c, 1, 66, 127
1, 30960, Note_on_c, 1, 50, 127
1, 31056, Note_off_c, 1, 69, 0
1, 31056, Note_off_c, 1, 66, 0
1, 31056, Note_off_c, 1, 50, 0
1, 31080, Note_on_c, 1, 70, 127
1, 31080, Note_on_c, 1, 67, 127
1, 31080, Note_on_c, 1, 55, 127
1, 31128, Note_off_c, 1, 55, 0
1, 31140, Note_on_c, 1, 50, 127
1, 31188, Note_off_c, 1, 50, 0
1, 31200, Note_on_c, 1, 46, 127
1, 31224, Note_off_c, 1, 70, 0
1, 31224, Note_off_c, 1, 67, 0
1, 31248, Note_off_c, 1, 46, 0
1, 31260, Note_on_c, 1, 72, 127
1, 31260, Note_on_c, 1, 69, 127
1, 31260, Note_on_c, 1, 43, 127
1, 31284, Note_off_c, 1, 72, 0
1, 31284, Note_off_c, 1, 69, 0
1, 31290, Note_on_c, 1, 74, 127
1, 31290, Note_on_c, 1, 70, 127
1, 31308, Note_off_c, 1, 43, 0
1, 31314, Note_off_c, 1, 74, 0
1, 31314, Note_off_c, 1, 70, 0
1, 31320, Note_on_c, 1, 69, 127
1, 31320, Note_on_c, 1, 66, 127
1, 31320, Note_on_c, 1, 50, 127
1, 31368, Note_off_c, 1, 66, 0
1, 31380, Note_on_c, 1, 74, 127
1, 31416, Note_off_c, 1, 69, 0
1, 31416, Note_off_c, 1, 50, 0
1, 31428, Note_off_c, 1, 74, 0
1, 31440, Note_on_c, 1, 74, 127
1, 31440, Note_on_c, 1, 54, 127
1, 31488, Note_off_c, 1, 74, 0
1, 31500, Note_on_c, 1, 72, 127
1, 31536, Note_off_c, 1, 54, 0
1, 31548, Note_off_c, 1, 72, 0
1, 31560, Note_on_c, 1, 72, 127
1, 31560, Note_on_c, 1, 50, 127
1, 31608, Note_off_c, 1, 72, 0
1, 31620, Note_on_c, 1, 70, 127
1, 31656, Note_off_c, 1, 50, 0
1, 31668, Note_off_c, 1, 70, 0
1, 31680, Note_on_c, 1, 70, 127
1, 31680, Note_on_c, 1, 55, 127
1, 31740, Note_on_c, 1, 79, 127
1, 31776, Note_off_c, 1, 70, 0
1, 31776, Note_off_c, 1, 55, 0
1, 31788, Note_off_c, 1, 79, 0
1, 31800, Note_on_c, 1, 79, 127
1, 31800, Note_on_c, 1, 71, 127
1, 31800, Note_on_c, 1, 43, 127
1, 31848, Note_off_c, 1, 79, 0
1, 31860, Note_on_c, 1, 77, 127
1, 31896, Note_off_c, 1, 43, 0
1, 31908, Note_off_c, 1, 77, 0
1, 31920, Note_on_c, 1, 55, 127
1, 31980, Note_on_c, 1, 75, 127
1, 31992, Note_off_c, 1, 71, 0
1, 32016, Note_off_c, 1, 55, 0
1, 32028, Note_off_c, 1, 75, 0
1, 32040, Note_on_c, 1, 75, 127
1, 32040, Note_on_c, 1, 48, 127
1, 32100, Note_on_c, 1, 72, 127
1, 32136, Note_off_c, 1, 75, 0
1, 32136, Note_off_c, 1, 48, 0
1, 32148, Note_off_c, 1, 72, 0
1, 32160, Note_on_c, 1, 76, 127
1, 32160, Note_on_c, 1, 72, 127
1, 32160, Note_on_c, 1, 60, 127
1, 32208, Note_off_c, 1, 72, 0
1, 32220, Note_on_c, 1, 70, 127
1, 32256, Note_off_c, 1, 60, 0
1, 32268, Note_off_c, 1, 70, 0
1, 32280, Note_on_c, 1, 48, 127
1, 32340, Note_on_c, 1, 69, 127
1, 32352, Note_off_c, 1, 76, 0
1, 32376, Note_off_c, 1, 48, 0
1, 32388, Note_off_c, 1, 69, 0
1, 32400, Note_on_c, 1, 69, 127
1, 32400, Note_on_c, 1, 53, 127
1, 32460, Note_on_c, 1, 77, 127
1, 32496, Note_off_c, 1, 53, 0
1, 32508, Note_off_c, 1, 77, 0
1, 32520, Note_on_c, 1, 41, 127
1, 32580, Note_on_c, 1, 75, 127
1, 32616, Note_off_c, 1, 41, 0
1, 32628, Note_off_c, 1, 75, 0
1, 32688, Note_off_c, 1, 69, 0
1, 32700, Note_on_c, 1, 74, 127
1, 32748, Note_off_c, 1, 74, 0
1, 32760, Note_on_c, 1, 74, 127
1, 32760, Note_on_c, 1, 70, 127
1, 32760, Note_on_c, 1, 46, 127
1, 32808, Note_off_c, 1, 74, 0
1, 32856, Note_off_c, 1, 46, 0
1, 32880, Note_on_c, 1, 75, 127
1, 32880, Note_on_c, 1, 43, 127
1, 32928, Note_off_c, 1, 75, 0
1, 32976, Note_off_c, 1, 43, 0
1, 33000, Note_on_c, 1, 72, 127
1, 33000, Note_on_c, 1, 55, 127
1, 33048, Note_off_c, 1, 70, 0
1, 33048, Note_off_c, 1, 72, 0
1, 33096, Note_off_c, 1, 55, 0
1, 33120, Note_on_c, 1, 72, 127
1, 33120, Note_on_c, 1, 69, 127
1, 33120, Note_on_c, 1, 55, 127
1, 33168, Note_off_c, 1, 72, 0
1, 33216, Note_off_c, 1, 69, 0
1, 33216, Note_off_c, 1, 55, 0
1, 33240, Note_on_c, 1, 74, 127
1, 33240, Note_on_c, 1, 69, 127
1, 33240, Note_on_c, 1, 54, 127
1, 33288, Note_off_c, 1, 74, 0
1, 33300, Note_on_c, 1, 72, 127
1, 33348, Note_off_c, 1, 72, 0
1, 33360, Note_on_c, 1, 70, 127
1, 33408, Note_off_c, 1, 70, 0
1, 33432, Note_off_c, 1, 54, 0
1, 33468, Note_off_c, 1, 69, 0
1, 33480, Note_on_c, 1, 70, 127
1, 33480, Note_on_c, 1, 55, 127
1, 33540, Note_on_c, 1, 74, 127
1, 33576, Note_off_c, 1, 70, 0
1, 33576, Note_off_c, 1, 55, 0
1, 33588, Note_off_c, 1, 74, 0
1, 33600, Note_on_c, 1, 70, 127
1, 33600, Note_on_c, 1, 75, 127
1, 33600, Note_on_c, 1, 43, 127
1, 33648, Note_off_c, 1, 75, 0
1, 33660, Note_on_c, 1, 74, 127
1, 33696, Note_off_c, 1, 43, 0
1, 33708, Note_off_c, 1, 74, 0
1, 33720, Note_on_c, 1, 72, 127
1, 33720, Note_on_c, 1, 55, 127
1, 33768, Note_off_c, 1, 72, 0
1, 33816, Note_off_c, 1, 55, 0
1, 33828, Note_off_c, 1, 70, 0
1, 33840, Note_on_c, 1, 69, 127
1, 33840, Note_on_c, 1, 72, 127
1, 33840, Note_on_c, 1, 55, 127
1, 33888, Note_off_c, 1, 72, 0
1, 33936, Note_off_c, 1, 69, 0
1, 33936, Note_off_c, 1, 55, 0
1, 33960, Note_on_c, 1, 69, 127
1, 33960, Note_on_c, 1, 74, 127
1, 33960, Note_on_c, 1, 54, 127
1, 34008, Note_off_c, 1, 74, 0
1, 34020, Note_on_c, 1, 72, 127
1, 34068, Note_off_c, 1, 72, 0
1, 34080, Note_on_c, 1, 70, 127
1, 34128, Note_off_c, 1, 70, 0
1, 34152, Note_off_c, 1, 54, 0
1, 34188, Note_off_c, 1, 69, 0
1, 34200, Note_on_c, 1, 67, 127
1, 34200, Note_on_c, 1, 70, 127
1, 34200, Note_on_c, 1, 55, 127
1, 34248, Note_off_c, 1, 67, 0
1, 34248, Note_off_c, 1, 70, 0
1, 34260, Note_on_c, 1, 82, 127
1, 34260, Note_on_c, 1, 74, 127
1, 34296, Note_off_c, 1, 55, 0
1, 34308, Note_off_c, 1, 82, 0
1, 34308, Note_off_c, 1, 74, 0
1, 34320, Note_on_c, 1, 82, 127
1, 34320, Note_on_c, 1, 74, 127
1, 34320, Note_on_c, 1, 43, 127
1, 34368, Note_off_c, 1, 82, 0
1, 34368, Note_off_c, 1, 74, 0
1, 34380, Note_on_c, 1, 81, 127
1, 34380, Note_on_c, 1, 72, 127
1, 34416, Note_off_c, 1, 43, 0
1, 34428, Note_off_c, 1, 81, 0
1, 34428, Note_off_c, 1, 72, 0
1, 34440, Note_on_c, 1, 81, 127
1, 34440, Note_on_c, 1, 72, 127
1, 34440, Note_on_c, 1, 48, 127
1, 34488, Note_off_c, 1, 81, 0
1, 34488, Note_off_c, 1, 72, 0
1, 34500, Note_on_c, 1, 79, 127
1, 34500, Note_on_c, 1, 70, 127
1, 34536, Note_off_c, 1, 48, 0
1, 34548, Note_off_c, 1, 79, 0
1, 34548, Note_off_c, 1, 70, 0
1, 34560, Note_on_c, 1, 79, 127
1, 34560, Note_on_c, 1, 70, 127
1, 34560, Note_on_c, 1, 50, 127
1, 34608, Note_off_c, 1, 79, 0
1, 34608, Note_off_c, 1, 70, 0
1, 34620, Note_on_c, 1, 78, 127
1, 34620, Note_on_c, 1, 69, 127
1, 34632, Note_off_c, 1, 78, 0
1, 34632, Note_off_c, 1, 69, 0
1, 34656, Note_off_c, 1, 50, 0
1, 34665, Note_on_c, 1, 79, 127
1, 34665, Note_on_c, 1, 70, 127
1, 34677, Note_off_c, 1, 79, 0
1, 34677, Note_off_c, 1, 70, 0
1, 34680, Note_on_c, 1, 78, 127
1, 34680, Note_on_c, 1, 69, 127
1, 34680, Note_on_c, 1, 48, 127
1, 34776, Note_off_c, 1, 78, 0
1, 34776, Note_off_c, 1, 69, 0
1, 34776, Note_off_c, 1, 48, 0
1, 34800, Note_on_c, 1, 79, 127
1, 34800, Note_on_c, 1, 67, 127
1, 34800, Note_on_c, 1, 46, 127
1, 34848, Note_off_c, 1, 79, 0
1, 34860, Note_on_c, 1, 74, 127
1, 34896, Note_off_c, 1, 67, 0
1, 34896, Note_off_c, 1, 46, 0
1, 34908, Note_off_c, 1, 74, 0
1, 34920, Note_on_c, 1, 75, 127
1, 34920, Note_on_c, 1, 67, 127
1, 34920, Note_on_c, 1, 48, 127
1, 34968, Note_off_c, 1, 75, 0
1, 34968, Note_off_c, 1, 67, 0
1, 34980, Note_on_c, 1, 72, 127
1, 34980, Note_on_c, 1, 69, 127
1, 35016, Note_off_c, 1, 48, 0
1, 35028, Note_off_c, 1, 72, 0
1, 35028, Note_off_c, 1, 69, 0
1, 35040, Note_on_c, 1, 70, 127
1, 35040, Note_on_c, 1, 67, 127
1, 35040, Note_on_c, 1, 50, 127
1, 35088, Note_off_c, 1, 70, 0
1, 35088, Note_off_c, 1, 67, 0
1, 35100, Note_on_c, 1, 69, 127
1, 35100, Note_on_c, 1, 66, 127
1, 35112, Note_off_c, 1, 69, 0
1, 35112, Note_off_c, 1, 66, 0
1, 35136, Note_off_c, 1, 50, 0
1, 35145, Note_on_c, 1, 70, 127
1, 35145, Note_on_c, 1, 67, 127
1, 35157, Note_off_c, 1, 70, 0
1, 35157, Note_off_c, 1, 67, 0
1, 35160, Note_on_c, 1, 69, 127
1, 35160, Note_on_c, 1, 66, 127
1, 35160, Note_on_c, 1, 38, 127
1, 35208, Note_off_c, 1, 69, 0
1, 35208, Note_off_c, 1, 66, 0
1, 35220, Note_on_c, 1, 67, 127
1, 35256, Note_off_c, 1, 38, 0
1, 35268, Note_off_c, 1, 67, 0
1, 35280, Note_on_c, 1, 67, 127
1, 35280, Note_on_c, 1, 43, 127
1, 35340, Note_on_c, 1, 70, 127
1, 35376, Note_off_c, 1, 43, 0
1, 35388, Note_off_c, 1, 70, 0
1, 35400, Note_on_c, 1, 72, 127
1, 35400, Note_on_c, 1, 44, 127
1, 35448, Note_off_c, 1, 72, 0
1, 35448, Note_off_c, 1, 44, 0
1, 35460, Note_on_c, 1, 74, 127
1, 35460, Note_on_c, 1, 46, 127
1, 35472, Note_off_c, 1, 67, 0
1, 35508, Note_off_c, 1, 74, 0
1, 35508, Note_off_c, 1, 46, 0
1, 35520, Note_on_c, 1, 75, 127
1, 35520, Note_on_c, 1, 48, 127
1, 35568, Note_off_c, 1, 75, 0
1, 35568, Note_off_c, 1, 48, 0
1, 35580, Note_on_c, 1, 77, 127
1, 35580, Note_on_c, 1, 50, 127
1, 35628, Note_off_c, 1, 77, 0
1, 35628, Note_off_c, 1, 50, 0
1, 35640, Note_on_c, 1, 79, 127
1, 35640, Note_on_c, 1, 51, 127
1, 35700, Note_on_c, 1, 63, 127
1, 35748, Note_off_c, 1, 63, 0
1, 35760, Note_on_c, 1, 67, 127
1, 35808, Note_off_c, 1, 67, 0
1, 35820, Note_on_c, 1, 70, 127
1, 35832, Note_off_c, 1, 79, 0
1, 35832, Note_off_c, 1, 51, 0
1, 35868, Note_off_c, 1, 70, 0
1, 35880, Note_on_c, 1, 75, 127
1, 35880, Note_on_c, 1, 55, 127
1, 35928, Note_off_c, 1, 75, 0
1, 35940, Note_on_c, 1, 70, 127
1, 35976, Note_off_c, 1, 55, 0
1, 35988, Note_off_c, 1, 70, 0
1, 36000, Note_on_c, 1, 72, 127
1, 36000, Note_on_c, 1, 56, 127
1, 36048, Note_off_c, 1, 72, 0
1, 36060, Note_on_c, 1, 80, 127
1, 36060, Note_on_c, 1, 84, 127
1, 36096, Note_off_c, 1, 56, 0
1, 36108, Note_off_c, 1, 80, 0
1, 36108, Note_off_c, 1, 84, 0
1, 36120, Note_on_c, 1, 79, 127
1, 36120, Note_on_c, 1, 82, 127
1, 36120, Note_on_c, 1, 58, 127
1, 36168, Note_off_c, 1, 79, 0
1, 36168, Note_off_c, 1, 82, 0
1, 36180, Note_on_c, 1, 77, 127
1, 36180, Note_on_c, 1, 80, 127
1, 36216, Note_off_c, 1, 58, 0
1, 36228, Note_off_c, 1, 77, 0
1, 36228, Note_off_c, 1, 80, 0
1, 36240, Note_on_c, 1, 75, 127
1, 36240, Note_on_c, 1, 79, 127
1, 36240, Note_on_c, 1, 46, 127
1, 36288, Note_off_c, 1, 75, 0
1, 36288, Note_off_c, 1, 79, 0
1, 36300, Note_on_c, 1, 74, 127
1, 36300, Note_on_c, 1, 77, 127
1, 36336, Note_off_c, 1, 46, 0
1, 36348, Note_off_c, 1, 74, 0
1, 36348, Note_off_c, 1, 77, 0
1, 36360, Note_on_c, 1, 75, 127
1, 36360, Note_on_c, 1, 79, 127
1, 36360, Note_on_c, 1, 51, 127
1, 36408, Note_off_c, 1, 79, 0
1, 36420, Note_on_c, 1, 63, 127
1, 36456, Note_off_c, 1, 75, 0
1, 36468, Note_off_c, 1, 63, 0
1, 36480, Note_on_c, 1, 67, 127
1, 36528, Note_off_c, 1, 67, 0
1, 36540, Note_on_c, 1, 70, 127
1, 36552, Note_off_c, 1, 51, 0
1, 36588, Note_off_c, 1, 70, 0
1, 36600, Note_on_c, 1, 63, 127
1, 36600, Note_on_c, 1, 75, 127
1, 36600, Note_on_c, 1, 55, 127
1, 36648, Note_off_c, 1, 75, 0
1, 36660, Note_on_c, 1, 70, 127
1, 36696, Note_off_c, 1, 63, 0
1, 36696, Note_off_c, 1, 55, 0
1, 36708, Note_off_c, 1, 70, 0
1, 36720, Note_on_c, 1, 63, 127
1, 36720, Note_on_c, 1, 72, 127
1, 36720, Note_on_c, 1, 56, 127
1, 36768, Note_off_c, 1, 63, 0
1, 36768, Note_off_c, 1, 72, 0
1, 36780, Note_on_c, 1, 80, 127
1, 36780, Note_on_c, 1, 84, 127
1, 36816, Note_off_c, 1, 56, 0
1, 36828, Note_off_c, 1, 80, 0
1, 36828, Note_off_c, 1, 84, 0
1, 36840, Note_on_c, 1, 79, 127
1, 36840, Note_on_c, 1, 82, 127
1, 36840, Note_on_c, 1, 58, 127
1, 36888, Note_off_c, 1, 79, 0
1, 36888, Note_off_c, 1, 82, 0
1, 36900, Note_on_c, 1, 77, 127
1, 36900, Note_on_c, 1, 80, 127
1, 36936, Note_off_c, 1, 58, 0
1, 36948, Note_off_c, 1, 77, 0
1, 36948, Note_off_c, 1, 80, 0
1, 36960, Note_on_c, 1, 75, 127
1, 36960, Note_on_c, 1, 79, 127
1, 36960, Note_on_c, 1, 46, 127
1, 37008, Note_off_c, 1, 75, 0
1, 37008, Note_off_c, 1, 79, 0
1, 37020, Note_on_c, 1, 74, 127
1, 37020, Note_on_c, 1, 77, 127
1, 37056, Note_off_c, 1, 46, 0
1, 37068, Note_off_c, 1, 74, 0
1, 37068, Note_off_c, 1, 77, 0
1, 37080, Note_on_c, 1, 75, 127
1, 37080, Note_on_c, 1, 79, 127
1, 37080, Note_on_c, 1, 51, 127
1, 37128, Note_off_c, 1, 75, 0
1, 37140, Note_on_c, 1, 70, 127
1, 37188, Note_off_c, 1, 70, 0
1, 37272, Note_off_c, 1, 51, 0
1, 37308, Note_off_c, 1, 79, 0
1, 37320, Note_on_c, 1, 82, 127
1, 37320, Note_on_c, 1, 55, 127
1, 37368, Note_off_c, 1, 82, 0
1, 37380, Note_on_c, 1, 70, 127
1, 37416, Note_off_c, 1, 55, 0
1, 37428, Note_off_c, 1, 70, 0
1, 37440, Note_on_c, 1, 72, 127
1, 37440, Note_on_c, 1, 56, 127
1, 37488, Note_off_c, 1, 72, 0
1, 37500, Note_on_c, 1, 82, 127
1, 37536, Note_off_c, 1, 56, 0
1, 37548, Note_off_c, 1, 82, 0
1, 37560, Note_on_c, 1, 80, 127
1, 37560, Note_on_c, 1, 53, 127
1, 37608, Note_off_c, 1, 80, 0
1, 37620, Note_on_c, 1, 79, 127
1, 37656, Note_off_c, 1, 53, 0
1, 37668, Note_off_c, 1, 79, 0
1, 37680, Note_on_c, 1, 80, 127
1, 37728, Note_off_c, 1, 80, 0
1, 37740, Note_on_c, 1, 72, 127
1, 37788, Note_off_c, 1, 72, 0
1, 37800, Note_on_c, 1, 70, 127
1, 37800, Note_on_c, 1, 50, 127
1, 37848, Note_off_c, 1, 70, 0
1, 37860, Note_on_c, 1, 80, 127
1, 37896, Note_off_c, 1, 50, 0
1, 37908, Note_off_c, 1, 80, 0
1, 37920, Note_on_c, 1, 79, 127
1, 37920, Note_on_c, 1, 51, 127
1, 37968, Note_off_c, 1, 79, 0
1, 37980, Note_on_c, 1, 77, 127
1, 38016, Note_off_c, 1, 51, 0
1, 38028, Note_off_c, 1, 77, 0
1, 38040, Note_on_c, 1, 79, 127
1, 38088, Note_off_c, 1, 79, 0
1, 38100, Note_on_c, 1, 70, 127
1, 38148, Note_off_c, 1, 70, 0
1, 38160, Note_on_c, 1, 68, 127
1, 38160, Note_on_c, 1, 48, 127
1, 38208, Note_off_c, 1, 68, 0
1, 38220, Note_on_c, 1, 79, 127
1, 38256, Note_off_c, 1, 48, 0
1, 38268, Note_off_c, 1, 79, 0
1, 38280, Note_on_c, 1, 77, 127
1, 38280, Note_on_c, 1, 50, 127
1, 38328, Note_off_c, 1, 77, 0
1, 38340, Note_on_c, 1, 75, 127
1, 38376, Note_off_c, 1, 50, 0
1, 38388, Note_off_c, 1, 75, 0
1, 38400, Note_on_c, 1, 77, 127
1, 38400, Note_on_c, 1, 46, 127
1, 38448, Note_off_c, 1, 77, 0
1, 38460, Note_on_c, 1, 68, 127
1, 38496, Note_off_c, 1, 46, 0
1, 38508, Note_off_c, 1, 68, 0
1, 38520, Note_on_c, 1, 67, 127
1, 38520, Note_on_c, 1, 51, 127
1, 38580, Note_on_c, 1, 70, 127
1, 38616, Note_off_c, 1, 67, 0
1, 38628, Note_off_c, 1, 70, 0
1, 38640, Note_on_c, 1, 75, 127
1, 38688, Note_off_c, 1, 75, 0
1, 38700, Note_on_c, 1, 79, 127
1, 38712, Note_off_c, 1, 51, 0
1, 38748, Note_off_c, 1, 79, 0
1, 38760, Note_on_c, 1, 82, 127
1, 38760, Note_on_c, 1, 55, 127
1, 38808, Note_off_c, 1, 82, 0
1, 38820, Note_on_c, 1, 70, 127
1, 38856, Note_off_c, 1, 55, 0
1, 38868, Note_off_c, 1, 70, 0
1, 38880, Note_on_c, 1, 72, 127
1, 38880, Note_on_c, 1, 56, 127
1, 38928, Note_off_c, 1, 72, 0
1, 38940, Note_on_c, 1, 82, 127
1, 38976, Note_off_c, 1, 56, 0
1, 38988, Note_off_c, 1, 82, 0
1, 39000, Note_on_c, 1, 80, 127
1, 39000, Note_on_c, 1, 53, 127
1, 39048, Note_off_c, 1, 80, 0
1, 39060, Note_on_c, 1, 79, 127
1, 39096, Note_off_c, 1, 53, 0
1, 39108, Note_off_c, 1, 79, 0
1, 39120, Note_on_c, 1, 80, 127
1, 39168, Note_off_c, 1, 80, 0
1, 39180, Note_on_c, 1, 72, 127
1, 39228, Note_off_c, 1, 72, 0
1, 39240, Note_on_c, 1, 70, 127
1, 39240, Note_on_c, 1, 50, 127
1, 39288, Note_off_c, 1, 70, 0
1, 39300, Note_on_c, 1, 80, 127
1, 39336, Note_off_c, 1, 50, 0
1, 39348, Note_off_c, 1, 80, 0
1, 39360, Note_on_c, 1, 79, 127
1, 39360, Note_on_c, 1, 51, 127
1, 39408, Note_off_c, 1, 79, 0
1, 39420, Note_on_c, 1, 77, 127
1, 39456, Note_off_c, 1, 51, 0
1, 39468, Note_off_c, 1, 77, 0
1, 39480, Note_on_c, 1, 79, 127
1, 39528, Note_off_c, 1, 79, 0
1, 39540, Note_on_c, 1, 70, 127
1, 39588, Note_off_c, 1, 70, 0
1, 39600, Note_on_c, 1, 68, 127
1, 39600, Note_on_c, 1, 48, 127
1, 39648, Note_off_c, 1, 68, 0
1, 39660, Note_on_c, 1, 79, 127
1, 39696, Note_off_c, 1, 48, 0
1, 39708, Note_off_c, 1, 79, 0
1, 39720, Note_on_c, 1, 77, 127
1, 39720, Note_on_c, 1, 50, 127
1, 39768, Note_off_c, 1, 77, 0
1, 39780, Note_on_c, 1, 75, 127
1, 39816, Note_off_c, 1, 50, 0
1, 39828, Note_off_c, 1, 75, 0
1, 39840, Note_on_c, 1, 77, 127
1, 39840, Note_on_c, 1, 46, 127
1, 39888, Note_off_c, 1, 77, 0
1, 39900, Note_on_c, 1, 68, 127
1, 39936, Note_off_c, 1, 46, 0
1, 39948, Note_off_c, 1, 68, 0
1, 39960, Note_on_c, 1, 67, 127
1, 39960, Note_on_c, 1, 51, 127
1, 40020, Note_on_c, 1, 70, 127
1, 40068, Note_off_c, 1, 70, 0
1, 40080, Note_on_c, 1, 75, 127
1, 40104, Note_off_c, 1, 67, 0
1, 40128, Note_off_c, 1, 75, 0
1, 40140, Note_on_c, 1, 73, 127
1, 40152, Note_off_c, 1, 51, 0
1, 40188, Note_off_c, 1, 73, 0
1, 40200, Note_on_c, 1, 72, 127
1, 40200, Note_on_c, 1, 68, 127
1, 40200, Note_on_c, 1, 55, 127
1, 40248, Note_off_c, 1, 72, 0
1, 40248, Note_off_c, 1, 68, 0
1, 40260, Note_on_c, 1, 70, 127
1, 40260, Note_on_c, 1, 67, 127
1, 40296, Note_off_c, 1, 55, 0
1, 40308, Note_off_c, 1, 70, 0
1, 40308, Note_off_c, 1, 67, 0
1, 40320, Note_on_c, 1, 72, 127
1, 40320, Note_on_c, 1, 68, 127
1, 40320, Note_on_c, 1, 56, 127
1, 40368, Note_off_c, 1, 72, 0
1, 40368, Note_off_c, 1, 68, 0
1, 40380, Note_on_c, 1, 73, 127
1, 40380, Note_on_c, 1, 75, 127
1, 40416, Note_off_c, 1, 56, 0
1, 40428, Note_off_c, 1, 73, 0
1, 40428, Note_off_c, 1, 75, 0
1, 40440, Note_on_c, 1, 72, 127
1, 40440, Note_on_c, 1, 80, 127
1, 40440, Note_on_c, 1, 53, 127
1, 40488, Note_off_c, 1, 72, 0
1, 40488, Note_off_c, 1, 80, 0
1, 40500, Note_on_c, 1, 70, 127
1, 40500, Note_on_c, 1, 79, 127
1, 40536, Note_off_c, 1, 53, 0
1, 40548, Note_off_c, 1, 70, 0
1, 40548, Note_off_c, 1, 79, 0
1, 40560, Note_on_c, 1, 68, 127
1, 40560, Note_on_c, 1, 77, 127
1, 40608, Note_off_c, 1, 68, 0
1, 40608, Note_off_c, 1, 77, 0
1, 40620, Note_on_c, 1, 67, 127
1, 40620, Note_on_c, 1, 75, 127
1, 40668, Note_off_c, 1, 67, 0
1, 40668, Note_off_c, 1, 75, 0
1, 40680, Note_on_c, 1, 65, 127
1, 40680, Note_on_c, 1, 74, 127
1, 40680, Note_on_c, 1, 46, 127
1, 40728, Note_off_c, 1, 65, 0
1, 40740, Note_on_c, 1, 70, 127
1, 40776, Note_off_c, 1, 74, 0
1, 40788, Note_off_c, 1, 70, 0
1, 40872, Note_off_c, 1, 46, 0
1, 40920, Note_on_c, 1, 67, 127
1, 40920, Note_on_c, 1, 70, 127
1, 40920, Note_on_c, 1, 51, 127
1, 40968, Note_off_c, 1, 67, 0
1, 40980, Note_on_c, 1, 75, 127
1, 41016, Note_off_c, 1, 70, 0
1, 41016, Note_off_c, 1, 51, 0
1, 41028, Note_off_c, 1, 75, 0
1, 41040, Note_on_c, 1, 68, 127
1, 41040, Note_on_c, 1, 70, 127
1, 41040, Note_on_c, 1, 50, 127
1, 41070, Note_off_c, 1, 70, 0
1, 41070, Note_on_c, 1, 72, 127
1, 41088, Note_off_c, 1, 68, 0
1, 41100, Note_off_c, 1, 72, 0
1, 41100, Note_on_c, 1, 67, 127
1, 41136, Note_off_c, 1, 50, 0
1, 41148, Note_off_c, 1, 67, 0
1, 41160, Note_on_c, 1, 46, 127
1, 41220, Note_on_c, 1, 77, 127
1, 41256, Note_off_c, 1, 46, 0
1, 41268, Note_off_c, 1, 77, 0
1, 41280, Note_on_c, 1, 51, 127
1, 41340, Note_on_c, 1, 75, 127
1, 41376, Note_off_c, 1, 51, 0
1, 41388, Note_off_c, 1, 75, 0
1, 41400, Note_on_c, 1, 65, 127
1, 41448, Note_off_c, 1, 65, 0
1, 41520, Note_on_c, 1, 74, 127
1, 41568, Note_off_c, 1, 74, 0
1, 42240, Note_on_c, 1, 74, 127
1, 42240, Note_on_c, 1, 70, 127
1, 42240, Note_on_c, 1, 58, 127
1, 42288, Note_off_c, 1, 74, 0
1, 42288, Note_off_c, 1, 70, 0
1, 42300, Note_on_c, 1, 75, 127
1, 42300, Note_on_c, 1, 72, 127
1, 42336, Note_off_c, 1, 58, 0
1, 42348, Note_off_c, 1, 75, 0
1, 42348, Note_off_c, 1, 72, 0
1, 42360, Note_on_c, 1, 77, 127
1, 42360, Note_on_c, 1, 74, 127
1, 42360, Note_on_c, 1, 46, 127
1, 42408, Note_off_c, 1, 77, 0
1, 42408, Note_off_c, 1, 74, 0
1, 42420, Note_on_c, 1, 79, 127
1, 42420, Note_on_c, 1, 75, 127
1, 42456, Note_off_c, 1, 46, 0
1, 42468, Note_off_c, 1, 79, 0
1, 42468, Note_off_c, 1, 75, 0
1, 42480, Note_on_c, 1, 80, 127
1, 42480, Note_on_c, 1, 77, 127
1, 42480, Note_on_c, 1, 46, 127
1, 42528, Note_off_c, 1, 80, 0
1, 42528, Note_off_c, 1, 77, 0
1, 42540, Note_on_c, 1, 79, 127
1, 42540, Note_on_c, 1, 75, 127
1, 42576, Note_off_c, 1, 46, 0
1, 42588, Note_off_c, 1, 79, 0
1, 42588, Note_off_c, 1, 75, 0
1, 42600, Note_on_c, 1, 77, 127
1, 42600, Note_on_c, 1, 74, 127
1, 42600, Note_on_c, 1, 46, 127
1, 42648, Note_off_c, 1, 77, 0
1, 42648, Note_off_c, 1, 74, 0
1, 42660, Note_on_c, 1, 79, 127
1, 42660, Note_on_c, 1, 75, 127
1, 42696, Note_off_c, 1, 46, 0
1, 42708, Note_off_c, 1, 79, 0
1, 42708, Note_off_c, 1, 75, 0
1, 42720, Note_on_c, 1, 80, 127
1, 42720, Note_on_c, 1, 77, 127
1, 42720, Note_on_c, 1, 46, 127
1, 42768, Note_off_c, 1, 80, 0
1, 42768, Note_off_c, 1, 77, 0
1, 42780, Note_on_c, 1, 74, 127
1, 42816, Note_off_c, 1, 46, 0
1, 42828, Note_off_c, 1, 74, 0
1, 42840, Note_on_c, 1, 79, 127
1, 42840, Note_on_c, 1, 73, 127
1, 42840, Note_on_c, 1, 51, 127
1, 42888, Note_off_c, 1, 73, 0
1, 42900, Note_on_c, 1, 72, 127
1, 42936, Note_off_c, 1, 79, 0
1, 42948, Note_off_c, 1, 72, 0
1, 42960, Note_on_c, 1, 75, 127
1, 43020, Note_on_c, 1, 82, 127
1, 43032, Note_off_c, 1, 51, 0
1, 43056, Note_off_c, 1, 75, 0
1, 43068, Note_off_c, 1, 82, 0
1, 43080, Note_on_c, 1, 75, 127
1, 43080, Note_on_c, 1, 72, 127
1, 43080, Note_on_c, 1, 56, 127
1, 43128, Note_off_c, 1, 72, 0
1, 43140, Note_on_c, 1, 80, 127
1, 43176, Note_off_c, 1, 75, 0
1, 43176, Note_off_c, 1, 56, 0
1, 43188, Note_off_c, 1, 80, 0
1, 43200, Note_on_c, 1, 75, 127
1, 43200, Note_on_c, 1, 73, 127
1, 43200, Note_on_c, 1, 55, 127
1, 43230, Note_off_c, 1, 75, 0
1, 43230, Note_on_c, 1, 77, 127
1, 43248, Note_off_c, 1, 73, 0
1, 43260, Note_off_c, 1, 77, 0
1, 43260, Note_on_c, 1, 72, 127
1, 43296, Note_off_c, 1, 55, 0
1, 43308, Note_off_c, 1, 72, 0
1, 43320, Note_on_c, 1, 51, 127
1, 43380, Note_on_c, 1, 82, 127
1, 43416, Note_off_c, 1, 51, 0
1, 43428, Note_off_c, 1, 82, 0
1, 43440, Note_on_c, 1, 56, 127
1, 43500, Note_on_c, 1, 80, 127
1, 43536, Note_off_c, 1, 56, 0
1, 43548, Note_off_c, 1, 80, 0
1, 43560, Note_on_c, 1, 70, 127
1, 43608, Note_off_c, 1, 70, 0
1, 43680, Note_on_c, 1, 79, 127
1, 43728, Note_off_c, 1, 79, 0
1, 44400, Note_on_c, 1, 39, 127
1, 44496, Note_off_c, 1, 39, 0
1, 44520, Note_on_c, 1, 79, 127
1, 44520, Note_on_c, 1, 82, 127
1, 44520, Note_on_c, 1, 51, 127
1, 44568, Note_off_c, 1, 79, 0
1, 44568, Note_off_c, 1, 82, 0
1, 44580, Note_on_c, 1, 80, 127
1, 44580, Note_on_c, 1, 84, 127
1, 44616, Note_off_c, 1, 51, 0
1, 44628, Note_off_c, 1, 80, 0
1, 44628, Note_off_c, 1, 84, 0
1, 44640, Note_on_c, 1, 82, 127
1, 44640, Note_on_c, 1, 85, 127
1, 44640, Note_on_c, 1, 51, 127
1, 44688, Note_off_c, 1, 82, 0
1, 44688, Note_off_c, 1, 85, 0
1, 44700, Note_on_c, 1, 80, 127
1, 44700, Note_on_c, 1, 84, 127
1, 44736, Note_off_c, 1, 51, 0
1, 44748, Note_off_c, 1, 80, 0
1, 44748, Note_off_c, 1, 84, 0
1, 44760, Note_on_c, 1, 79, 127
1, 44760, Note_on_c, 1, 82, 127
1, 44760, Note_on_c, 1, 51, 127
1, 44808, Note_off_c, 1, 79, 0
1, 44808, Note_off_c, 1, 82, 0
1, 44820, Note_on_c, 1, 85, 127
1, 44856, Note_off_c, 1, 51, 0
1, 44868, Note_off_c, 1, 85, 0
1, 44880, Note_on_c, 1, 80, 127
1, 44880, Note_on_c, 1, 84, 127
1, 44880, Note_on_c, 1, 51, 127
1, 44928, Note_off_c, 1, 80, 0
1, 44928, Note_off_c, 1, 84, 0
1, 44940, Note_on_c, 1, 79, 127
1, 44940, Note_on_c, 1, 82, 127
1, 44976, Note_off_c, 1, 51, 0
1, 44988, Note_off_c, 1, 79, 0
1, 44988, Note_off_c, 1, 82, 0
1, 45000, Note_on_c, 1, 80, 127
1, 45000, Note_on_c, 1, 84, 127
1, 45000, Note_on_c, 1, 56, 127
1, 45048, Note_off_c, 1, 84, 0
1, 45060, Note_on_c, 1, 82, 127
1, 45096, Note_off_c, 1, 80, 0
1, 45096, Note_off_c, 1, 56, 0
1, 45108, Note_off_c, 1, 82, 0
1, 45120, Note_on_c, 1, 84, 127
1, 45120, Note_on_c, 1, 80, 127
1, 45120, Note_on_c, 1, 56, 127
1, 45168, Note_off_c, 1, 84, 0
1, 45168, Note_off_c, 1, 80, 0
1, 45180, Note_on_c, 1, 82, 127
1, 45180, Note_on_c, 1, 79, 127
1, 45216, Note_off_c, 1, 56, 0
1, 45228, Note_off_c, 1, 82, 0
1, 45228, Note_off_c, 1, 79, 0
1, 45240, Note_on_c, 1, 80, 127
1, 45240, Note_on_c, 1, 77, 127
1, 45240, Note_on_c, 1, 56, 127
1, 45288, Note_off_c, 1, 80, 0
1, 45288, Note_off_c, 1, 77, 0
1, 45300, Note_on_c, 1, 79, 127
1, 45300, Note_on_c, 1, 75, 127
1, 45336, Note_off_c, 1, 56, 0
1, 45348, Note_off_c, 1, 79, 0
1, 45348, Note_off_c, 1, 75, 0
1, 45360, Note_on_c, 1, 77, 127
1, 45360, Note_on_c, 1, 74, 127
1, 45360, Note_on_c, 1, 58, 127
1, 45408, Note_off_c, 1, 77, 0
1, 45408, Note_off_c, 1, 74, 0
1, 45420, Note_on_c, 1, 75, 127
1, 45456, Note_off_c, 1, 58, 0
1, 45468, Note_off_c, 1, 75, 0
1, 45480, Note_on_c, 1, 74, 127
1, 45480, Note_on_c, 1, 77, 127
1, 45480, Note_on_c, 1, 46, 127
1, 45528, Note_off_c, 1, 74, 0
1, 45528, Note_off_c, 1, 77, 0
1, 45540, Note_on_c, 1, 80, 127
1, 45576, Note_off_c, 1, 46, 0
1, 45588, Note_off_c, 1, 80, 0
1, 45600, Note_on_c, 1, 75, 127
1, 45600, Note_on_c, 1, 79, 127
1, 45600, Note_on_c, 1, 46, 127
1, 45648, Note_off_c, 1, 75, 0
1, 45648, Note_off_c, 1, 79, 0
1, 45660, Note_on_c, 1, 74, 127
1, 45660, Note_on_c, 1, 77, 127
1, 45696, Note_off_c, 1, 46, 0
1, 45708, Note_off_c, 1, 74, 0
1, 45708, Note_off_c, 1, 77, 0
1, 45720, Note_on_c, 1, 75, 127
1, 45720, Note_on_c, 1, 79, 127
1, 45720, Note_on_c, 1, 51, 127
1, 45768, Note_off_c, 1, 75, 0
1, 45768, Note_off_c, 1, 79, 0
1, 45780, Note_on_c, 1, 77, 127
1, 45780, Note_on_c, 1, 80, 127
1, 45816, Note_off_c, 1, 51, 0
1, 45828, Note_off_c, 1, 77, 0
1, 45828, Note_off_c, 1, 80, 0
1, 45840, Note_on_c, 1, 79, 127
1, 45840, Note_on_c, 1, 82, 127
1, 45840, Note_on_c, 1, 51, 127
1, 45888, Note_off_c, 1, 51, 0
1, 45900, Note_on_c, 1, 53, 127
1, 45948, Note_off_c, 1, 53, 0
1, 45960, Note_on_c, 1, 55, 127
1, 46008, Note_off_c, 1, 55, 0
1, 46020, Note_on_c, 1, 56, 127
1, 46068, Note_off_c, 1, 56, 0
1, 46080, Note_on_c, 1, 58, 127
1, 46128, Note_off_c, 1, 79, 0
1, 46128, Note_off_c, 1, 82, 0
1, 46140, Note_on_c, 1, 74, 127
1, 46140, Note_on_c, 1, 77, 127
1, 46176, Note_off_c, 1, 58, 0
1, 46188, Note_off_c, 1, 74, 0
1, 46188, Note_off_c, 1, 77, 0
1, 46200, Note_on_c, 1, 74, 127
1, 46200, Note_on_c, 1, 77, 127
1, 46200, Note_on_c, 1, 46, 127
1, 46248, Note_off_c, 1, 74, 0
1, 46248, Note_off_c, 1, 77, 0
1, 46260, Note_on_c, 1, 80, 127
1, 46296, Note_off_c, 1, 46, 0
1, 46308, Note_off_c, 1, 80, 0
1, 46320, Note_on_c, 1, 75, 127
1, 46320, Note_on_c, 1, 79, 127
1, 46320, Note_on_c, 1, 58, 127
1, 46368, Note_off_c, 1, 75, 0
1, 46368, Note_off_c, 1, 79, 0
1, 46380, Note_on_c, 1, 74, 127
1, 46380, Note_on_c, 1, 77, 127
1, 46416, Note_off_c, 1, 58, 0
1, 46428, Note_off_c, 1, 74, 0
1, 46428, Note_off_c, 1, 77, 0
1, 46440, Note_on_c, 1, 75, 127
1, 46440, Note_on_c, 1, 79, 127
1, 46440, Note_on_c, 1, 51, 127
1, 46488, Note_off_c, 1, 75, 0
1, 46488, Note_off_c, 1, 79, 0
1, 46500, Note_on_c, 1, 77, 127
1, 46500, Note_on_c, 1, 80, 127
1, 46536, Note_off_c, 1, 51, 0
1, 46548, Note_off_c, 1, 77, 0
1, 46548, Note_off_c, 1, 80, 0
1, 46560, Note_on_c, 1, 79, 127
1, 46560, Note_on_c, 1, 82, 127
1, 46560, Note_on_c, 1, 51, 127
1, 46608, Note_off_c, 1, 51, 0
1, 46620, Note_on_c, 1, 53, 127
1, 46668, Note_off_c, 1, 53, 0
1, 46680, Note_on_c, 1, 55, 127
1, 46728, Note_off_c, 1, 55, 0
1, 46740, Note_on_c, 1, 56, 127
1, 46788, Note_off_c, 1, 56, 0
1, 46800, Note_on_c, 1, 58, 127
1, 46848, Note_off_c, 1, 79, 0
1, 46848, Note_off_c, 1, 82, 0
1, 46860, Note_on_c, 1, 74, 127
1, 46860, Note_on_c, 1, 77, 127
1, 46896, Note_off_c, 1, 58, 0
1, 46908, Note_off_c, 1, 74, 0
1, 46908, Note_off_c, 1, 77, 0
1, 46920, Note_on_c, 1, 74, 127
1, 46920, Note_on_c, 1, 77, 127
1, 46920, Note_on_c, 1, 46, 127
1, 46968, Note_off_c, 1, 74, 0
1, 46968, Note_off_c, 1, 77, 0
1, 46980, Note_on_c, 1, 80, 127
1, 47016, Note_off_c, 1, 46, 0
1, 47028, Note_off_c, 1, 80, 0
1, 47040, Note_on_c, 1, 75, 127
1, 47040, Note_on_c, 1, 79, 127
1, 47040, Note_on_c, 1, 58, 127
1, 47088, Note_off_c, 1, 75, 0
1, 47088, Note_off_c, 1, 79, 0
1, 47100, Note_on_c, 1, 74, 127
1, 47100, Note_on_c, 1, 77, 127
1, 47136, Note_off_c, 1, 58, 0
1, 47148, Note_off_c, 1, 74, 0
1, 47148, Note_off_c, 1, 77, 0
1, 47160, Note_on_c, 1, 75, 127
1, 47160, Note_on_c, 1, 79, 127
1, 47160, Note_on_c, 1, 51, 127
1, 47208, Note_off_c, 1, 79, 0
1, 47220, Note_on_c, 1, 80, 127
1, 47256, Note_off_c, 1, 51, 0
1, 47268, Note_off_c, 1, 80, 0
1, 47280, Note_on_c, 1, 53, 127
1, 47340, Note_on_c, 1, 82, 127
1, 47376, Note_off_c, 1, 53, 0
1, 47388, Note_off_c, 1, 82, 0
1, 47400, Note_on_c, 1, 55, 127
1, 47448, Note_off_c, 1, 75, 0
1, 47460, Note_on_c, 1, 84, 127
1, 47496, Note_off_c, 1, 55, 0
1, 47508, Note_off_c, 1, 84, 0
1, 47520, Note_on_c, 1, 75, 127
1, 47520, Note_on_c, 1, 84, 127
1, 47520, Note_on_c, 1, 56, 127
1, 47568, Note_off_c, 1, 84, 0
1, 47580, Note_on_c, 1, 74, 127
1, 47592, Note_off_c, 1, 75, 0
1, 47610, Note_on_c, 1, 80, 127
1, 47616, Note_off_c, 1, 56, 0
1, 47628, Note_off_c, 1, 74, 0
1, 47634, Note_off_c, 1, 80, 0
1, 47640, Note_on_c, 1, 80, 127
1, 47640, Note_on_c, 1, 74, 127
1, 47640, Note_on_c, 1, 58, 127
1, 47688, Note_off_c, 1, 74, 0
1, 47700, Note_on_c, 1, 75, 127
1, 47736, Note_off_c, 1, 80, 0
1, 47736, Note_off_c, 1, 58, 0
1, 47748, Note_off_c, 1, 75, 0
1, 47760, Note_on_c, 1, 79, 127
1, 47760, Note_on_c, 1, 75, 127
1, 47760, Note_on_c, 1, 60, 127
1, 47808, Note_off_c, 1, 75, 0
1, 47820, Note_on_c, 1, 70, 127
1, 47856, Note_off_c, 1, 79, 0
1, 47856, Note_off_c, 1, 60, 0
1, 47868, Note_off_c, 1, 70, 0
1, 47880, Note_on_c, 1, 77, 127
1, 47880, Note_on_c, 1, 72, 127
1, 47880, Note_on_c, 1, 56, 127
1, 47952, Note_off_c, 1, 72, 0
1, 47970, Note_on_c, 1, 80, 127
1, 47976, Note_off_c, 1, 77, 0
1, 47976, Note_off_c, 1, 56, 0
1, 47994, Note_off_c, 1, 80, 0
1, 48000, Note_on_c, 1, 75, 127
1, 48000, Note_on_c, 1, 79, 127
1, 48000, Note_on_c, 1, 58, 127
1, 48096, Note_off_c, 1, 75, 0
1, 48096, Note_off_c, 1, 79, 0
1, 48096, Note_off_c, 1, 58, 0
1, 48120, Note_on_c, 1, 74, 127
1, 48120, Note_on_c, 1, 77, 127
1, 48120, Note_on_c, 1, 46, 127
1, 48216, Note_off_c, 1, 74, 0
1, 48216, Note_off_c, 1, 77, 0
1, 48216, Note_off_c, 1, 46, 0
1, 48240, Note_on_c, 1, 75, 127
1, 48240, Note_on_c, 1, 51, 127
1, 48336, Note_off_c, 1, 75, 0
1, 48336, Note_off_c, 1, 51, 0
1, 48360, Note_on_c, 1, 70, 127
1, 48360, Note_on_c, 1, 67, 127
1, 48360, Note_on_c, 1, 51, 127
1, 48408, Note_off_c, 1, 51, 0
1, 48420, Note_on_c, 1, 53, 127
1, 48468, Note_off_c, 1, 53, 0
1, 48480, Note_on_c, 1, 55, 127
1, 48528, Note_off_c, 1, 55, 0
1, 48540, Note_on_c, 1, 56, 127
1, 48588, Note_off_c, 1, 56, 0
1, 48600, Note_on_c, 1, 58, 127
1, 48648, Note_off_c, 1, 70, 0
1, 48648, Note_off_c, 1, 67, 0
1, 48660, Note_on_c, 1, 65, 127
1, 48660, Note_on_c, 1, 62, 127
1, 48696, Note_off_c, 1, 58, 0
1, 48708, Note_off_c, 1, 65, 0
1, 48708, Note_off_c, 1, 62, 0
1, 48720, Note_on_c, 1, 65, 127
1, 48720, Note_on_c, 1, 62, 127
1, 48720, Note_on_c, 1, 46, 127
1, 48768, Note_off_c, 1, 65, 0
1, 48768, Note_off_c, 1, 62, 0
1, 48780, Note_on_c, 1, 68, 127
1, 48816, Note_off_c, 1, 46, 0
1, 48828, Note_off_c, 1, 68, 0
1, 48840, Note_on_c, 1, 67, 127
1, 48840, Note_on_c, 1, 63, 127
1, 48840, Note_on_c, 1, 46, 127
1, 48888, Note_off_c, 1, 67, 0
1, 48888, Note_off_c, 1, 63, 0
1, 48900, Note_on_c, 1, 65, 127
1, 48900, Note_on_c, 1, 62, 127
1, 48936, Note_off_c, 1, 46, 0
1, 48948, Note_off_c, 1, 65, 0
1, 48948, Note_off_c, 1, 62, 0
1, 48960, Note_on_c, 1, 67, 127
1, 48960, Note_on_c, 1, 63, 127
1, 48960, Note_on_c, 1, 51, 127
1, 49008, Note_off_c, 1, 67, 0
1, 49008, Note_off_c, 1, 63, 0
1, 49020, Note_on_c, 1, 68, 127
1, 49020, Note_on_c, 1, 65, 127
1, 49056, Note_off_c, 1, 51, 0
1, 49068, Note_off_c, 1, 68, 0
1, 49068, Note_off_c, 1, 65, 0
1, 49080, Note_on_c, 1, 70, 127
1, 49080, Note_on_c, 1, 67, 127
1, 49080, Note_on_c, 1, 39, 127
1, 49128, Note_off_c, 1, 39, 0
1, 49140, Note_on_c, 1, 41, 127
1, 49188, Note_off_c, 1, 41, 0
1, 49200, Note_on_c, 1, 43, 127
1, 49248, Note_off_c, 1, 43, 0
1, 49260, Note_on_c, 1, 44, 127
1, 49308, Note_off_c, 1, 44, 0
1, 49320, Note_on_c, 1, 46, 127
1, 49368, Note_off_c, 1, 70, 0
1, 49368, Note_off_c, 1, 67, 0
1, 49380, Note_on_c, 1, 65, 127
1, 49380, Note_on_c, 1, 62, 127
1, 49416, Note_off_c, 1, 46, 0
1, 49428, Note_off_c, 1, 65, 0
1, 49428, Note_off_c, 1, 62, 0
1, 49440, Note_on_c, 1, 65, 127
1, 49440, Note_on_c, 1, 62, 127
1, 49440, Note_on_c, 1, 46, 127
1, 49488, Note_off_c, 1, 65, 0
1, 49488, Note_off_c, 1, 62, 0
1, 49500, Note_on_c, 1, 68, 127
1, 49536, Note_off_c, 1, 46, 0
1, 49548, Note_off_c, 1, 68, 0
1, 49560, Note_on_c, 1, 67, 127
1, 49560, Note_on_c, 1, 63, 127
1, 49560, Note_on_c, 1, 46, 127
1, 49608, Note_off_c, 1, 67, 0
1, 49608, Note_off_c, 1, 63, 0
1, 49620, Note_on_c, 1, 65, 127
1, 49620, Note_on_c, 1, 62, 127
1, 49656, Note_off_c, 1, 46, 0
1, 49668, Note_off_c, 1, 65, 0
1, 49668, Note_off_c, 1, 62, 0
1, 49680, Note_on_c, 1, 67, 127
1, 49680, Note_on_c, 1, 63, 127
1, 49680, Note_on_c, 1, 51, 127
1, 49728, Note_off_c, 1, 67, 0
1, 49740, Note_on_c, 1, 70, 127
1, 49776, Note_off_c, 1, 63, 0
1, 49776, Note_off_c, 1, 51, 0
1, 49788, Note_off_c, 1, 70, 0
1, 49800, Note_on_c, 1, 75, 127
1, 49800, Note_on_c, 1, 70, 127
1, 49800, Note_on_c, 1, 55, 127
1, 49848, Note_off_c, 1, 75, 0
1, 49860, Note_on_c, 1, 74, 127
1, 49896, Note_off_c, 1, 55, 0
1, 49908, Note_off_c, 1, 74, 0
1, 49920, Note_on_c, 1, 72, 127
1, 49920, Note_on_c, 1, 51, 127
1, 49968, Note_off_c, 1, 72, 0
1, 50016, Note_off_c, 1, 51, 0
1, 50040, Note_on_c, 1, 44, 127
1, 50148, Note_off_c, 1, 70, 0
1, 50160, Note_on_c, 1, 68, 127
1, 50184, Note_off_c, 1, 44, 0
1, 50220, Note_on_c, 1, 46, 127
1, 50256, Note_off_c, 1, 68, 0
1, 50268, Note_off_c, 1, 46, 0
1, 50280, Note_on_c, 1, 75, 127
1, 50280, Note_on_c, 1, 67, 127
1, 50280, Note_on_c, 1, 48, 127
1, 50328, Note_off_c, 1, 75, 0
1, 50340, Note_on_c, 1, 63, 127
1, 50376, Note_off_c, 1, 67, 0
1, 50376, Note_off_c, 1, 48, 0
1, 50388, Note_off_c, 1, 63, 0
1, 50400, Note_on_c, 1, 72, 127
1, 50400, Note_on_c, 1, 68, 127
1, 50400, Note_on_c, 1, 44, 127
1, 50448, Note_off_c, 1, 72, 0
1, 50448, Note_off_c, 1, 68, 0
1, 50460, Note_on_c, 1, 65, 127
1, 50496, Note_off_c, 1, 44, 0
1, 50508, Note_off_c, 1, 65, 0
1, 50520, Note_on_c, 1, 67, 127
1, 50520, Note_on_c, 1, 63, 127
1, 50520, Note_on_c, 1, 46, 127
1, 50568, Note_off_c, 1, 67, 0
1, 50568, Note_off_c, 1, 63, 0
1, 50580, Note_on_c, 1, 65, 127
1, 50580, Note_on_c, 1, 62, 127
1, 50595, Note_off_c, 1, 65, 0
1, 50595, Note_off_c, 1, 62, 0
1, 50616, Note_off_c, 1, 46, 0
1, 50760, Note_on_c, 1, 63, 127
1, 50760, Note_on_c, 1, 51, 127
1, 51048, Note_off_c, 1, 63, 0
1, 51048, Note_off_c, 1, 51, 0
1, 51048, End_track
0, 0, End_of_file