0, 0, Header, 1, 1, 480
1, 0, Start_track
1, 0, Title_t, "Test"
1, 0, Tempo, 500000
1, 0, Instrument_name_t, "Church Organ"
1, 0, Note_on_c, 1, 51, 127
1, 60, Note_on_c, 1, 58, 127
1, 108, Note_off_c, 1, 58, 0
1, 120, Note_off_c, 1, 51, 0
1, 120, Note_on_c, 1, 63, 127
1, 120, Note_on_c, 1, 39, 127
1, 168, Note_off_c, 1, 63, 0
1, 180, Note_on_c, 1, 67, 127
1, 192, Note_off_c, 1, 39, 0
1, 228, Note_off_c, 1, 67, 0
1, 240, Note_on_c, 1, 70, 127
1, 240, Note_on_c, 1, 43, 127
1, 300, Note_off_c, 1, 70, 0
1, 300, Note_on_c, 1, 67, 127
1, 312, Note_off_c, 1, 43, 0
1, 348, Note_off_c, 1, 67, 0
1, 360, Note_on_c, 1, 68, 127
1, 360, Note_on_c, 1, 46, 127
1, 408, Note_off_c, 1, 68, 0
1, 420, Note_on_c, 1, 65, 127
1, 432, Note_off_c, 1, 46, 0
1, 468, Note_off_c, 1, 65, 0
1, 480, Note_on_c, 1, 67, 127
1, 480, Note_on_c, 1, 51, 127
1, 540, Note_off_c, 1, 67, 0
1, 540, Note_on_c, 1, 63, 127
1, 570, Note_off_c, 1, 63, 0
1, 576, Note_off_c, 1, 51, 0
1, 600, Note_on_c, 1, 67, 127
1, 600, Note_on_c, 1, 39, 127
1, 630, Note_off_c, 1, 67, 0
1, 660, Note_on_c, 1, 75, 127
1, 690, Note_off_c, 1, 75, 0
1, 696, Note_off_c, 1, 39, 0
1, 720, Note_on_c, 1, 70, 127
1, 720, Note_on_c, 1, 43, 127
1, 768, Note_off_c, 1, 70, 0
1, 780, Note_on_c, 1, 67, 127
1, 816, Note_off_c, 1, 43, 0
1, 828, Note_off_c, 1, 67, 0
1, 840, Note_on_c, 1, 68, 127
1, 840, Note_on_c, 1, 46, 127
1, 888, Note_off_c, 1, 68, 0
1, 900, Note_on_c, 1, 65, 127
1, 936, Note_off_c, 1, 46, 0
1, 948, Note_off_c, 1, 65, 0
1, 960, Note_on_c, 1, 67, 127
1, 960, Note_on_c, 1, 51, 127
1, 1020, Note_off_c, 1, 67, 0
1, 1020, Note_on_c, 1, 63, 127
1, 1050, Note_off_c, 1, 63, 0
1, 1140, Note_on_c, 1, 70, 127
1, 1152, Note_off_c, 1, 51, 0
1, 1170, Note_off_c, 1, 70, 0
1, 1200, Note_on_c, 1, 72, 127
1, 1200, Note_on_c, 1, 51, 127
1, 1248, Note_off_c, 1, 72, 0
1, 1260, Note_on_c, 1, 68, 127
1, 1272, Note_off_c, 1, 51, 0
1, 1308, Note_off_c, 1, 68, 0
1, 1320, Note_on_c, 1, 75, 127
1, 1320, Note_on_c, 1, 51, 127
1, 1368, Note_off_c, 1, 75, 0
1, 1380, Note_on_c, 1, 72, 127
1, 1416, Note_off_c, 1, 51, 0
1, 1428, Note_off_c, 1, 72, 0
1, 1440, Note_on_c, 1, 70, 127
1, 1440, Note_on_c, 1, 51, 127
1, 1488, Note_off_c, 1, 70, 0
1, 1500, Note_on_c, 1, 58, 127
1, 1530, Note_off_c, 1, 58, 0
1, 1548, Note_off_c, 1, 51, 0
1, 1560, Note_on_c, 1, 63, 127
1, 1560, Note_on_c, 1, 39, 127
1, 1590, Note_off_c, 1, 63, 0
1, 1620, Note_on_c, 1, 67, 127
1, 1650, Note_off_c, 1, 67, 0
1, 1668, Note_off_c, 1, 39, 0
1, 1680, Note_on_c, 1, 70, 127
1, 1680, Note_on_c, 1, 39, 127
1, 1728, Note_off_c, 1, 70, 0
1, 1740, Note_on_c, 1, 67, 127
1, 1788, Note_off_c, 1, 39, 0
1, 1788, Note_off_c, 1, 67, 0
1, 1800, Note_on_c, 1, 75, 127
1, 1800, Note_on_c, 1, 39, 127
1, 1848, Note_off_c, 1, 75, 0
1, 1860, Note_on_c, 1, 67, 127
1, 1908, Note_off_c, 1, 39, 0
1, 1908, Note_off_c, 1, 67, 0
1, 1920, Note_on_c, 1, 68, 127
1, 1920, Note_on_c, 1, 46, 127
1, 1968, Note_off_c, 1, 68, 0
1, 1980, Note_on_c, 1, 60, 127
1, 2010, Note_off_c, 1, 60, 0
1, 2016, Note_off_c, 1, 46, 0
1, 2040, Note_on_c, 1, 62, 127
1, 2040, Note_on_c, 1, 46, 127
1, 2070, Note_off_c, 1, 62, 0
1, 2100, Note_on_c, 1, 65, 127
1, 2112, Note_off_c, 1, 46, 0
1, 2130, Note_off_c, 1, 65, 0
1, 2160, Note_on_c, 1, 68, 127
1, 2160, Note_on_c, 1, 46, 127
1, 2208, Note_off_c, 1, 68, 0
1, 2220, Note_on_c, 1, 65, 127
1, 2232, Note_off_c, 1, 46, 0
1, 2268, Note_off_c, 1, 65, 0
1, 2280, Note_on_c, 1, 77, 127
1, 2280, Note_on_c, 1, 46, 127
1, 2328, Note_off_c, 1, 77, 0
1, 2340, Note_on_c, 1, 68, 127
1, 2376, Note_off_c, 1, 46, 0
1, 2388, Note_off_c, 1, 68, 0
1, 2400, Note_on_c, 1, 67, 127
1, 2400, Note_on_c, 1, 51, 127
1, 2448, Note_off_c, 1, 67, 0
1, 2460, Note_on_c, 1, 63, 127
1, 2496, Note_off_c, 1, 51, 0
1, 2508, Note_off_c, 1, 63, 0
1, 2520, Note_on_c, 1, 65, 127
1, 2520, Note_on_c, 1, 39, 127
1, 2544, Note_off_c, 1, 65, 0
1, 2550, Note_on_c, 1, 63, 127
1, 2574, Note_off_c, 1, 63, 0
1, 2580, Note_on_c, 1, 62, 127
1, 2604, Note_off_c, 1, 62, 0
1, 2616, Note_off_c, 1, 39, 0
1, 2640, Note_on_c, 1, 67, 127
1, 2688, Note_off_c, 1, 67, 0
1, 2700, Note_on_c, 1, 63, 127
1, 2730, Note_off_c, 1, 63, 0
1, 2760, Note_on_c, 1, 70, 127
1, 2760, Note_on_c, 1, 51, 127
1, 2790, Note_off_c, 1, 70, 0
1, 2820, Note_on_c, 1, 67, 127
1, 2850, Note_off_c, 1, 67, 0
1, 2856, Note_off_c, 1, 51, 0
1, 2880, Note_on_c, 1, 72, 127
1, 2880, Note_on_c, 1, 44, 127
1, 2928, Note_off_c, 1, 72, 0
1, 2940, Note_on_c, 1, 75, 127
1, 2976, Note_off_c, 1, 44, 0
1, 2988, Note_off_c, 1, 75, 0
1, 3000, Note_on_c, 1, 77, 127
1, 3000, Note_on_c, 1, 56, 127
1, 3024, Note_off_c, 1, 77, 0
1, 3030, Note_on_c, 1, 75, 127
1, 3054, Note_off_c, 1, 75, 0
1, 3060, Note_on_c, 1, 74, 127
1, 3084, Note_off_c, 1, 74, 0
1, 3096, Note_off_c, 1, 56, 0
1, 3120, Note_on_c, 1, 70, 127
1, 3120, Note_on_c, 1, 55, 127
1, 3168, Note_off_c, 1, 70, 0
1, 3180, Note_on_c, 1, 75, 127
1, 3210, Note_off_c, 1, 75, 0
1, 3216, Note_off_c, 1, 55, 0
1, 3240, Note_on_c, 1, 67, 127
1, 3240, Note_on_c, 1, 43, 127
1, 3270, Note_off_c, 1, 67, 0
1, 3300, Note_on_c, 1, 70, 127
1, 3330, Note_off_c, 1, 70, 0
1, 3336, Note_off_c, 1, 43, 0
1, 3360, Note_on_c, 1, 68, 127
1, 3360, Note_on_c, 1, 41, 127
1, 3408, Note_off_c, 1, 68, 0
1, 3420, Note_on_c, 1, 72, 127
1, 3456, Note_off_c, 1, 41, 0
1, 3468, Note_off_c, 1, 72, 0
1, 3480, Note_on_c, 1, 77, 127
1, 3480, Note_on_c, 1, 53, 127
1, 3504, Note_off_c, 1, 77, 0
1, 3510, Note_on_c, 1, 75, 127
1, 3534, Note_off_c, 1, 75, 0
1, 3540, Note_on_c, 1, 74, 127
1, 3564, Note_off_c, 1, 74, 0
1, 3576, Note_off_c, 1, 53, 0
1, 3600, Note_on_c, 1, 67, 127
1, 3600, Note_on_c, 1, 51, 127
1, 3648, Note_off_c, 1, 67, 0
1, 3660, Note_on_c, 1, 75, 127
1, 3696, Note_off_c, 1, 51, 0
1, 3708, Note_off_c, 1, 75, 0
1, 3720, Note_on_c, 1, 63, 127
1, 3720, Note_on_c, 1, 39, 127
1, 3750, Note_off_c, 1, 63, 0
1, 3780, Note_on_c, 1, 67, 127
1, 3810, Note_off_c, 1, 67, 0
1, 3816, Note_off_c, 1, 39, 0
1, 3840, Note_on_c, 1, 65, 127
1, 3840, Note_on_c, 1, 44, 127
1, 3888, Note_off_c, 1, 65, 0
1, 3900, Note_on_c, 1, 72, 127
1, 3936, Note_off_c, 1, 44, 0
1, 3936, Note_off_c, 1, 72, 0
1, 3960, Note_on_c, 1, 72, 127
1, 3960, Note_on_c, 1, 44, 127
1, 3996, Note_off_c, 1, 72, 0
1, 4020, Note_on_c, 1, 70, 127
1, 4032, Note_off_c, 1, 44, 0
1, 4056, Note_off_c, 1, 70, 0
1, 4080, Note_on_c, 1, 68, 127
1, 4080, Note_on_c, 1, 44, 127
1, 4128, Note_off_c, 1, 68, 0
1, 4140, Note_on_c, 1, 67, 127
1, 4152, Note_off_c, 1, 44, 0
1, 4188, Note_off_c, 1, 67, 0
1, 4200, Note_on_c, 1, 65, 127
1, 4200, Note_on_c, 1, 44, 127
1, 4248, Note_off_c, 1, 65, 0
1, 4260, Note_on_c, 1, 63, 127
1, 4296, Note_off_c, 1, 44, 0
1, 4308, Note_off_c, 1, 63, 0
1, 4320, Note_on_c, 1, 62, 127
1, 4320, Note_on_c, 1, 46, 127
1, 4368, Note_off_c, 1, 62, 0
1, 4380, Note_on_c, 1, 65, 127
1, 4428, Note_off_c, 1, 65, 0
1, 4440, Note_off_c, 1, 46, 0
1, 4440, Note_on_c, 1, 68, 127
1, 4440, Note_on_c, 1, 58, 127
1, 4536, Note_off_c, 1, 58, 0
1, 4620, Note_off_c, 1, 68, 0
1, 4680, Note_on_c, 1, 67, 127
1, 4680, Note_on_c, 1, 46, 127
1, 4710, Note_off_c, 1, 67, 0
1, 4740, Note_on_c, 1, 63, 127
1, 4770, Note_off_c, 1, 63, 0
1, 4776, Note_off_c, 1, 46, 0
1, 4800, Note_on_c, 1, 62, 127
1, 4800, Note_on_c, 1, 46, 127
1, 4848, Note_off_c, 1, 62, 0
1, 4860, Note_on_c, 1, 65, 127
1, 4896, Note_off_c, 1, 46, 0
1, 4908, Note_off_c, 1, 65, 0
1, 4920, Note_on_c, 1, 68, 127
1, 4920, Note_on_c, 1, 58, 127
1, 5016, Note_off_c, 1, 58, 0
1, 5088, Note_off_c, 1, 68, 0
1, 5100, Note_on_c, 1, 65, 127
1, 5148, Note_off_c, 1, 65, 0
1, 5160, Note_on_c, 1, 67, 127
1, 5160, Note_on_c, 1, 46, 127
1, 5190, Note_off_c, 1, 67, 0
1, 5220, Note_on_c, 1, 63, 127
1, 5250, Note_off_c, 1, 63, 0
1, 5256, Note_off_c, 1, 46, 0
1, 5280, Note_on_c, 1, 62, 127
1, 5280, Note_on_c, 1, 46, 127
1, 5328, Note_off_c, 1, 62, 0
1, 5340, Note_on_c, 1, 58, 127
1, 5388, Note_off_c, 1, 58, 0
1, 5400, Note_on_c, 1, 65, 127
1, 5448, Note_off_c, 1, 65, 0
1, 5472, Note_off_c, 1, 46, 0
1, 5520, Note_on_c, 1, 68, 127
1, 5568, Note_off_c, 1, 68, 0
1, 5580, Note_on_c, 1, 65, 127
1, 5628, Note_off_c, 1, 65, 0
1, 5640, Note_on_c, 1, 74, 127
1, 5688, Note_off_c, 1, 74, 0
1, 5700, Note_on_c, 1, 68, 127
1, 5748, Note_off_c, 1, 68, 0
1, 5760, Note_on_c, 1, 77, 127
1, 5808, Note_off_c, 1, 77, 0
1, 5820, Note_on_c, 1, 74, 127
1, 5868, Note_off_c, 1, 74, 0
1, 5880, Note_on_c, 1, 80, 127
1, 5880, Note_on_c, 1, 46, 127
1, 5976, Note_off_c, 1, 46, 0
1, 6000, Note_on_c, 1, 48, 127
1, 6024, Note_off_c, 1, 80, 0
1, 6030, Note_on_c, 1, 79, 127
1, 6054, Note_off_c, 1, 79, 0
1, 6060, Note_on_c, 1, 77, 127
1, 6084, Note_off_c, 1, 77, 0
1, 6090, Note_on_c, 1, 75, 127
1, 6096, Note_off_c, 1, 48, 0
1, 6114, Note_off_c, 1, 75, 0
1, 6120, Note_on_c, 1, 74, 127
1, 6120, Note_on_c, 1, 50, 127
1, 6144, Note_off_c, 1, 74, 0
1, 6150, Note_on_c, 1, 72, 127
1, 6174, Note_off_c, 1, 72, 0
1, 6180, Note_on_c, 1, 70, 127
1, 6204, Note_off_c, 1, 70, 0
1, 6210, Note_on_c, 1, 68, 127
1, 6216, Note_off_c, 1, 50, 0
1, 6234, Note_off_c, 1, 68, 0
1, 6240, Note_on_c, 1, 67, 127
1, 6240, Note_on_c, 1, 51, 127
1, 6288, Note_off_c, 1, 67, 0
1, 6300, Note_on_c, 1, 75, 127
1, 6330, Note_off_c, 1, 75, 0
1, 6336, Note_off_c, 1, 51, 0
1, 6360, Note_on_c, 1, 72, 127
1, 6360, Note_on_c, 1, 56, 127
1, 6390, Note_off_c, 1, 72, 0
1, 6420, Note_on_c, 1, 68, 127
1, 6450, Note_off_c, 1, 68, 0
1, 6456, Note_off_c, 1, 56, 0
1, 6480, Note_on_c, 1, 67, 127
1, 6480, Note_on_c, 1, 58, 127
1, 6552, Note_off_c, 1, 67, 0
1, 6570, Note_on_c, 1, 65, 127
1, 6576, Note_off_c, 1, 58, 0
1, 6594, Note_off_c, 1, 65, 0
1, 6600, Note_on_c, 1, 67, 127
1, 6600, Note_on_c, 1, 46, 127
1, 6616, Note_off_c, 1, 67, 0
1, 6620, Note_on_c, 1, 65, 127
1, 6636, Note_off_c, 1, 65, 0
1, 6680, Note_on_c, 1, 63, 127
1, 6696, Note_off_c, 1, 46, 0
1, 6696, Note_off_c, 1, 63, 0
1, 6700, Note_on_c, 1, 65, 127
1, 6716, Note_off_c, 1, 65, 0
1, 6720, Note_on_c, 1, 63, 127
1, 6720, Note_on_c, 1, 51, 127
1, 6750, Note_off_c, 1, 63, 0
1, 6750, Note_on_c, 1, 79, 127
1, 6780, Note_off_c, 1, 79, 0
1, 6780, Note_on_c, 1, 77, 127
1, 6810, Note_off_c, 1, 77, 0
1, 6810, Note_on_c, 1, 75, 127
1, 6840, Note_off_c, 1, 75, 0
1, 6840, Note_on_c, 1, 74, 127
1, 6870, Note_off_c, 1, 74, 0
1, 6870, Note_on_c, 1, 72, 127
1, 6900, Note_off_c, 1, 72, 0
1, 6900, Note_on_c, 1, 70, 127
1, 6912, Note_off_c, 1, 51, 0
1, 6930, Note_off_c, 1, 70, 0
1, 6930, Note_on_c, 1, 68, 127
1, 6960, Note_off_c, 1, 68, 0
1, 6960, Note_on_c, 1, 67, 127
1, 6990, Note_off_c, 1, 67, 0
1, 7170, Note_on_c, 1, 65, 127
1, 7200, Note_off_c, 1, 65, 0
1, 7320, Note_on_c, 1, 62, 127
1, 7350, Note_off_c, 1, 62, 0
1, 7350, Note_on_c, 1, 60, 127
1, 7380, Note_off_c, 1, 60, 0
1, 7380, Note_on_c, 1, 58, 127
1, 7410, Note_off_c, 1, 58, 0
1, 7410, Note_on_c, 1, 56, 127
1, 7440, Note_off_c, 1, 56, 0
1, 7440, Note_on_c, 1, 55, 127
1, 7470, Note_off_c, 1, 55, 0
1, 7650, Note_on_c, 1, 53, 127
1, 7680, Note_off_c, 1, 53, 0
1, 7920, Note_on_c, 1, 77, 127
1, 7920, Note_on_c, 1, 53, 127
1, 8004, Note_off_c, 1, 77, 0
1, 8040, Note_on_c, 1, 75, 127
1, 8112, Note_off_c, 1, 53, 0
1, 8124, Note_off_c, 1, 75, 0
1, 8160, Note_on_c, 1, 74, 127
1, 8160, Note_on_c, 1, 58, 127
1, 8184, Note_off_c, 1, 74, 0
1, 8190, Note_on_c, 1, 75, 127
1, 8214, Note_off_c, 1, 75, 0
1, 8220, Note_on_c, 1, 77, 127
1, 8250, Note_off_c, 1, 77, 0
1, 8268, Note_off_c, 1, 58, 0
1, 8280, Note_on_c, 1, 75, 127
1, 8280, Note_on_c, 1, 60, 127
1, 8352, Note_off_c, 1, 60, 0
1, 8472, Note_off_c, 1, 75, 0
1, 8520, Note_on_c, 1, 74, 127
1, 8520, Note_on_c, 1, 56, 127
1, 8616, Note_off_c, 1, 74, 0
1, 8628, Note_off_c, 1, 56, 0
1, 8640, Note_on_c, 1, 72, 127
1, 8640, Note_on_c, 1, 55, 127
1, 8700, Note_off_c, 1, 72, 0
1, 8700, Note_on_c, 1, 70, 127
1, 8748, Note_off_c, 1, 70, 0
1, 8760, Note_off_c, 1, 55, 0
1, 8760, Note_on_c, 1, 68, 127
1, 8760, Note_on_c, 1, 51, 127
1, 8808, Note_off_c, 1, 68, 0
1, 8820, Note_on_c, 1, 67, 127
1, 8832, Note_off_c, 1, 51, 0
1, 8868, Note_off_c, 1, 67, 0
1, 8880, Note_on_c, 1, 70, 127
1, 8880, Note_on_c, 1, 53, 127
1, 8928, Note_off_c, 1, 70, 0
1, 8940, Note_on_c, 1, 68, 127
1, 8952, Note_off_c, 1, 53, 0
1, 8964, Note_off_c, 1, 68, 0
1, 8970, Note_on_c, 1, 70, 127
1, 8994, Note_off_c, 1, 70, 0
1, 9000, Note_on_c, 1, 68, 127
1, 9000, Note_on_c, 1, 58, 127
1, 9016, Note_off_c, 1, 68, 0
1, 9020, Note_on_c, 1, 70, 127
1, 9036, Note_off_c, 1, 70, 0
1, 9060, Note_on_c, 1, 67, 127
1, 9084, Note_off_c, 1, 67, 0
1, 9096, Note_off_c, 1, 58, 0
1, 9120, Note_on_c, 1, 67, 127
1, 9120, Note_on_c, 1, 51, 127
1, 9180, Note_off_c, 1, 67, 0
1, 9180, Note_on_c, 1, 75, 127
1, 9216, Note_off_c, 1, 51, 0
1, 9222, Note_off_c, 1, 75, 0
1, 9240, Note_on_c, 1, 74, 127
1, 9240, Note_on_c, 1, 53, 127
1, 9282, Note_off_c, 1, 74, 0
1, 9300, Note_on_c, 1, 77, 127
1, 9336, Note_off_c, 1, 53, 0
1, 9342, Note_off_c, 1, 77, 0
1, 9360, Note_on_c, 1, 75, 127
1, 9360, Note_on_c, 1, 55, 127
1, 9456, Note_off_c, 1, 75, 0
1, 9456, Note_off_c, 1, 55, 0
1, 9480, Note_on_c, 1, 72, 127
1, 9480, Note_on_c, 1, 56, 127
1, 9576, Note_off_c, 1, 72, 0
1, 9576, Note_off_c, 1, 56, 0
1, 9600, Note_on_c, 1, 72, 127
1, 9600, Note_on_c, 1, 55, 127
1, 9660, Note_off_c, 1, 72, 0
1, 9660, Note_on_c, 1, 70, 127
1, 9696, Note_off_c, 1, 55, 0
1, 9708, Note_off_c, 1, 70, 0
1, 9720, Note_on_c, 1, 68, 127
1, 9720, Note_on_c, 1, 51, 127
1, 9768, Note_off_c, 1, 68, 0
1, 9780, Note_on_c, 1, 67, 127
1, 9792, Note_off_c, 1, 51, 0
1, 9828, Note_off_c, 1, 67, 0
1, 9840, Note_on_c, 1, 70, 127
1, 9840, Note_on_c, 1, 53, 127
1, 9888, Note_off_c, 1, 70, 0
1, 9900, Note_on_c, 1, 68, 127
1, 9912, Note_off_c, 1, 53, 0
1, 9924, Note_off_c, 1, 68, 0
1, 9930, Note_on_c, 1, 70, 127
1, 9954, Note_off_c, 1, 70, 0
1, 9960, Note_on_c, 1, 68, 127
1, 9960, Note_on_c, 1, 46, 127
1, 9976, Note_off_c, 1, 68, 0
1, 9980, Note_on_c, 1, 70, 127
1, 9996, Note_off_c, 1, 70, 0
1, 10020, Note_on_c, 1, 67, 127
1, 10044, Note_off_c, 1, 67, 0
1, 10056, Note_off_c, 1, 46, 0
1, 10080, Note_on_c, 1, 67, 127
1, 10080, Note_on_c, 1, 51, 127
1, 10140, Note_off_c, 1, 67, 0
1, 10140, Note_on_c, 1, 65, 127
1, 10140, Note_on_c, 1, 58, 127
1, 10176, Note_off_c, 1, 51, 0
1, 10188, Note_off_c, 1, 65, 0
1, 10188, Note_off_c, 1, 58, 0
1, 10200, Note_on_c, 1, 63, 127
1, 10200, Note_on_c, 1, 39, 127
1, 10260, Note_on_c, 1, 67, 127
1, 10272, Note_off_c, 1, 39, 0
1, 10296, Note_off_c, 1, 63, 0
1, 10308, Note_off_c, 1, 67, 0
1, 10320, Note_on_c, 1, 70, 127
1, 10320, Note_on_c, 1, 43, 127
1, 10368, Note_off_c, 1, 70, 0
1, 10380, Note_on_c, 1, 67, 127
1, 10392, Note_off_c, 1, 43, 0
1, 10428, Note_off_c, 1, 67, 0
1, 10440, Note_on_c, 1, 68, 127
1, 10440, Note_on_c, 1, 46, 127
1, 10488, Note_off_c, 1, 68, 0
1, 10500, Note_on_c, 1, 65, 127
1, 10512, Note_off_c, 1, 46, 0
1, 10548, Note_off_c, 1, 65, 0
1, 10560, Note_on_c, 1, 67, 127
1, 10560, Note_on_c, 1, 51, 127
1, 10608, Note_off_c, 1, 67, 0
1, 10620, Note_on_c, 1, 63, 127
1, 10650, Note_off_c, 1, 63, 0
1, 10680, Note_off_c, 1, 51, 0
1, 10680, Note_on_c, 1, 39, 127
1, 10740, Note_on_c, 1, 75, 127
1, 10752, Note_off_c, 1, 39, 0
1, 10770, Note_off_c, 1, 75, 0
1, 10800, Note_on_c, 1, 70, 127
1, 10800, Note_on_c, 1, 43, 127
1, 10848, Note_off_c, 1, 70, 0
1, 10860, Note_on_c, 1, 67, 127
1, 10872, Note_off_c, 1, 43, 0
1, 10908, Note_off_c, 1, 67, 0
1, 10920, Note_on_c, 1, 68, 127
1, 10920, Note_on_c, 1, 46, 127
1, 10968, Note_off_c, 1, 68, 0
1, 10980, Note_on_c, 1, 65, 127
1, 11016, Note_off_c, 1, 46, 0
1, 11028, Note_off_c, 1, 65, 0
1, 11040, Note_on_c, 1, 70, 127
1, 11040, Note_on_c, 1, 67, 127
1, 11040, Note_on_c, 1, 51, 127
1, 11088, Note_off_c, 1, 67, 0
1, 11100, Note_on_c, 1, 65, 127
1, 11136, Note_off_c, 1, 51, 0
1, 11148, Note_off_c, 1, 65, 0
1, 11160, Note_off_c, 1, 70, 0
1, 11160, Note_on_c, 1, 82, 127
1, 11160, Note_on_c, 1, 63, 127
1, 11256, Note_off_c, 1, 82, 0
1, 11256, Note_off_c, 1, 63, 0
1, 11280, Note_on_c, 1, 79, 127
1, 11280, Note_on_c, 1, 51, 127
1, 11352, Note_off_c, 1, 51, 0
1, 11376, Note_off_c, 1, 79, 0
1, 11400, Note_on_c, 1, 75, 127
1, 11400, Note_on_c, 1, 51, 127
1, 11496, Note_off_c, 1, 75, 0
1, 11520, Note_off_c, 1, 51, 0
1, 11520, Note_on_c, 1, 77, 127
1, 11520, Note_on_c, 1, 50, 127
1, 11616, Note_off_c, 1, 77, 0
1, 11640, Note_on_c, 1, 69, 127
1, 11712, Note_off_c, 1, 50, 0
1, 11736, Note_off_c, 1, 69, 0
1, 11760, Note_on_c, 1, 70, 127
1, 11760, Note_on_c, 1, 50, 127
1, 11832, Note_off_c, 1, 50, 0
1, 11856, Note_off_c, 1, 70, 0
1, 11880, Note_on_c, 1, 74, 127
1, 11880, Note_on_c, 1, 50, 127
1, 11976, Note_off_c, 1, 50, 0
1, 12000, Note_off_c, 1, 74, 0
1, 12000, Note_on_c, 1, 75, 127
1, 12000, Note_on_c, 1, 48, 127
1, 12096, Note_off_c, 1, 48, 0
1, 12120, Note_on_c, 1, 46, 127
1, 12192, Note_off_c, 1, 46, 0
1, 12240, Note_on_c, 1, 45, 127
1, 12312, Note_off_c, 1, 45, 0
1, 12360, Note_on_c, 1, 41, 127
1, 12480, Note_off_c, 1, 75, 0
1, 12480, Note_off_c, 1, 41, 0
1, 12540, Note_on_c, 1, 65, 127
1, 12588, Note_off_c, 1, 65, 0
1, 12600, Note_on_c, 1, 70, 127
1, 12648, Note_off_c, 1, 70, 0
1, 12720, Note_on_c, 1, 77, 127
1, 12720, Note_on_c, 1, 50, 127
1, 12780, Note_off_c, 1, 77, 0
1, 12780, Note_on_c, 1, 74, 127
1, 12816, Note_off_c, 1, 50, 0
1, 12816, Note_off_c, 1, 74, 0
1, 12840, Note_on_c, 1, 75, 127
1, 12840, Note_on_c, 1, 53, 127
1, 12876, Note_off_c, 1, 75, 0
1, 12900, Note_on_c, 1, 72, 127
1, 12936, Note_off_c, 1, 53, 0
1, 12936, Note_off_c, 1, 72, 0
1, 12960, Note_on_c, 1, 74, 127
1, 12960, Note_on_c, 1, 58, 127
1, 13008, Note_off_c, 1, 74, 0
1, 13020, Note_on_c, 1, 70, 127
1, 13068, Note_off_c, 1, 70, 0
1, 13080, Note_off_c, 1, 58, 0
1, 13080, Note_on_c, 1, 46, 127
1, 13140, Note_on_c, 1, 82, 127
1, 13152, Note_off_c, 1, 46, 0
1, 13188, Note_off_c, 1, 82, 0
1, 13200, Note_on_c, 1, 77, 127
1, 13200, Note_on_c, 1, 50, 127
1, 13248, Note_off_c, 1, 77, 0
1, 13260, Note_on_c, 1, 74, 127
1, 13272, Note_off_c, 1, 50, 0
1, 13296, Note_off_c, 1, 74, 0
1, 13320, Note_on_c, 1, 75, 127
1, 13320, Note_on_c, 1, 53, 127
1, 13356, Note_off_c, 1, 75, 0
1, 13380, Note_on_c, 1, 72, 127
1, 13416, Note_off_c, 1, 53, 0
1, 13416, Note_off_c, 1, 72, 0
1, 13440, Note_on_c, 1, 74, 127
1, 13440, Note_on_c, 1, 58, 127
1, 13500, Note_off_c, 1, 74, 0
1, 13500, Note_on_c, 1, 65, 127
1, 13530, Note_off_c, 1, 65, 0
1, 13536, Note_off_c, 1, 58, 0
1, 13560, Note_on_c, 1, 62, 127
1, 13560, Note_on_c, 1, 70, 127
1, 13560, Note_on_c, 1, 58, 127
1, 13590, Note_off_c, 1, 70, 0
1, 13620, Note_on_c, 1, 65, 127
1, 13632, Note_off_c, 1, 62, 0
1, 13632, Note_off_c, 1, 58, 0
1, 13650, Note_off_c, 1, 65, 0
1, 13680, Note_on_c, 1, 65, 127
1, 13680, Note_on_c, 1, 74, 127
1, 13680, Note_on_c, 1, 58, 127
1, 13740, Note_off_c, 1, 74, 0
1, 13740, Note_on_c, 1, 70, 127
1, 13752, Note_off_c, 1, 65, 0
1, 13752, Note_off_c, 1, 58, 0
1, 13776, Note_off_c, 1, 70, 0
1, 13800, Note_on_c, 1, 70, 127
1, 13800, Note_on_c, 1, 77, 127
1, 13800, Note_on_c, 1, 58, 127
1, 13836, Note_off_c, 1, 77, 0
1, 13860, Note_on_c, 1, 74, 127
1, 13896, Note_off_c, 1, 58, 0
1, 13896, Note_off_c, 1, 74, 0
1, 13920, Note_on_c, 1, 79, 127
1, 13920, Note_on_c, 1, 51, 127
1, 13968, Note_off_c, 1, 79, 0
1, 13980, Note_on_c, 1, 80, 127
1, 14028, Note_off_c, 1, 51, 0
1, 14028, Note_off_c, 1, 80, 0
1, 14040, Note_off_c, 1, 70, 0
1, 14040, Note_on_c, 1, 75, 127
1, 14100, Note_off_c, 1, 75, 0
1, 14160, Note_on_c, 1, 79, 127
1, 14160, Note_on_c, 1, 75, 127
1, 14160, Note_on_c, 1, 51, 127
1, 14208, Note_off_c, 1, 75, 0
1, 14220, Note_on_c, 1, 74, 127
1, 14256, Note_off_c, 1, 79, 0
1, 14268, Note_off_c, 1, 51, 0
1, 14268, Note_off_c, 1, 74, 0
1, 14280, Note_on_c, 1, 75, 127
1, 14280, Note_on_c, 1, 72, 127
1, 14280, Note_on_c, 1, 51, 127
1, 14328, Note_off_c, 1, 72, 0
1, 14340, Note_on_c, 1, 70, 127
1, 14376, Note_off_c, 1, 75, 0
1, 14388, Note_off_c, 1, 51, 0
1, 14388, Note_off_c, 1, 70, 0
1, 14400, Note_on_c, 1, 72, 127
1, 14400, Note_on_c, 1, 69, 127
1, 14400, Note_on_c, 1, 53, 127
1, 14460, Note_off_c, 1, 69, 0
1, 14460, Note_on_c, 1, 60, 127
1, 14490, Note_off_c, 1, 60, 0
1, 14496, Note_off_c, 1, 53, 0
1, 14520, Note_off_c, 1, 72, 0
1, 14520, Note_on_c, 1, 65, 127
1, 14550, Note_off_c, 1, 65, 0
1, 14640, Note_on_c, 1, 65, 127
1, 14640, Note_on_c, 1, 69, 127
1, 14640, Note_on_c, 1, 53, 127
1, 14700, Note_off_c, 1, 69, 0
1, 14712, Note_off_c, 1, 53, 0
1, 14736, Note_off_c, 1, 65, 0
1, 14760, Note_on_c, 1, 69, 127
1, 14760, Note_on_c, 1, 72, 127
1, 14760, Note_on_c, 1, 53, 127
1, 14796, Note_off_c, 1, 72, 0
1, 14856, Note_off_c, 1, 53, 0
1, 14880, Note_on_c, 1, 77, 127
1, 14880, Note_on_c, 1, 50, 127
1, 14937, Note_off_c, 1, 77, 0
1, 14940, Note_on_c, 1, 79, 127
1, 14976, Note_off_c, 1, 69, 0
1, 14976, Note_off_c, 1, 50, 0
1, 14997, Note_off_c, 1, 79, 0
1, 15000, Note_on_c, 1, 74, 127
1, 15000, Note_on_c, 1, 77, 127
1, 15000, Note_on_c, 1, 50, 127
1, 15057, Note_off_c, 1, 77, 0
1, 15060, Note_off_c, 1, 74, 0
1, 15060, Note_on_c, 1, 75, 127
1, 15096, Note_off_c, 1, 50, 0
1, 15117, Note_off_c, 1, 75, 0
1, 15120, Note_on_c, 1, 77, 127
1, 15120, Note_on_c, 1, 74, 127
1, 15120, Note_on_c, 1, 50, 127
1, 15177, Note_off_c, 1, 74, 0
1, 15180, Note_on_c, 1, 72, 127
1, 15216, Note_off_c, 1, 77, 0
1, 15216, Note_off_c, 1, 50, 0
1, 15237, Note_off_c, 1, 72, 0
1, 15240, Note_on_c, 1, 74, 127
1, 15240, Note_on_c, 1, 70, 127
1, 15240, Note_on_c, 1, 50, 127
1, 15297, Note_off_c, 1, 70, 0
1, 15300, Note_on_c, 1, 69, 127
1, 15336, Note_off_c, 1, 74, 0
1, 15336, Note_off_c, 1, 50, 0
1, 15357, Note_off_c, 1, 69, 0
1, 15360, Note_on_c, 1, 70, 127
1, 15360, Note_on_c, 1, 67, 127
1, 15360, Note_on_c, 1, 51, 127
1, 15420, Note_off_c, 1, 67, 0
1, 15420, Note_on_c, 1, 58, 127
1, 15450, Note_off_c, 1, 58, 0
1, 15456, Note_off_c, 1, 70, 0
1, 15456, Note_off_c, 1, 51, 0
1, 15480, Note_on_c, 1, 67, 127
1, 15480, Note_on_c, 1, 63, 127
1, 15480, Note_on_c, 1, 51, 127
1, 15510, Note_off_c, 1, 63, 0
1, 15540, Note_on_c, 1, 58, 127
1, 15552, Note_off_c, 1, 51, 0
1, 15570, Note_off_c, 1, 58, 0
1, 15576, Note_off_c, 1, 67, 0
1, 15600, Note_on_c, 1, 63, 127
1, 15600, Note_on_c, 1, 67, 127
1, 15600, Note_on_c, 1, 51, 127
1, 15660, Note_off_c, 1, 67, 0
1, 15672, Note_off_c, 1, 51, 0
1, 15696, Note_off_c, 1, 63, 0
1, 15720, Note_on_c, 1, 67, 127
1, 15720, Note_on_c, 1, 70, 127
1, 15720, Note_on_c, 1, 51, 127
1, 15756, Note_off_c, 1, 70, 0
1, 15816, Note_off_c, 1, 51, 0
1, 15840, Note_on_c, 1, 75, 127
1, 15840, Note_on_c, 1, 48, 127
1, 15897, Note_off_c, 1, 75, 0
1, 15900, Note_on_c, 1, 77, 127
1, 15936, Note_off_c, 1, 67, 0
1, 15936, Note_off_c, 1, 48, 0
1, 15957, Note_off_c, 1, 77, 0
1, 15960, Note_on_c, 1, 72, 127
1, 15960, Note_on_c, 1, 75, 127
1, 15960, Note_on_c, 1, 48, 127
1, 16017, Note_off_c, 1, 75, 0
1, 16020, Note_off_c, 1, 72, 0
1, 16020, Note_on_c, 1, 74, 127
1, 16056, Note_off_c, 1, 48, 0
1, 16077, Note_off_c, 1, 74, 0
1, 16080, Note_on_c, 1, 75, 127
1, 16080, Note_on_c, 1, 72, 127
1, 16080, Note_on_c, 1, 48, 127
1, 16137, Note_off_c, 1, 72, 0
1, 16140, Note_on_c, 1, 70, 127
1, 16176, Note_off_c, 1, 75, 0
1, 16176, Note_off_c, 1, 48, 0
1, 16197, Note_off_c, 1, 70, 0
1, 16200, Note_on_c, 1, 72, 127
1, 16200, Note_on_c, 1, 69, 127
1, 16200, Note_on_c, 1, 48, 127
1, 16257, Note_off_c, 1, 69, 0
1, 16260, Note_on_c, 1, 67, 127
1, 16296, Note_off_c, 1, 72, 0
1, 16296, Note_off_c, 1, 48, 0
1, 16317, Note_off_c, 1, 67, 0
1, 16320, Note_on_c, 1, 69, 127
1, 16320, Note_on_c, 1, 65, 127
1, 16320, Note_on_c, 1, 53, 127
1, 16380, Note_off_c, 1, 69, 0
1, 16380, Note_on_c, 1, 72, 127
1, 16392, Note_off_c, 1, 65, 0
1, 16410, Note_off_c, 1, 72, 0
1, 16440, Note_on_c, 1, 77, 127
1, 16470, Note_off_c, 1, 77, 0
1, 16512, Note_off_c, 1, 53, 0
1, 16560, Note_on_c, 1, 69, 127
1, 16560, Note_on_c, 1, 77, 127
1, 16620, Note_off_c, 1, 69, 0
1, 16620, Note_on_c, 1, 65, 127
1, 16668, Note_off_c, 1, 65, 0
1, 16680, Note_on_c, 1, 72, 127
1, 16680, Note_on_c, 1, 51, 127
1, 16740, Note_off_c, 1, 72, 0
1, 16752, Note_off_c, 1, 77, 0
1, 16752, Note_off_c, 1, 51, 0
1, 16800, Note_on_c, 1, 70, 127
1, 16800, Note_on_c, 1, 50, 127
1, 16860, Note_off_c, 1, 70, 0
1, 16860, Note_on_c, 1, 74, 127
1, 16902, Note_off_c, 1, 74, 0
1, 16920, Note_on_c, 1, 77, 127
1, 16920, Note_on_c, 1, 65, 127
1, 16962, Note_off_c, 1, 77, 0
1, 16992, Note_off_c, 1, 50, 0
1, 16992, Note_off_c, 1, 65, 0
1, 17040, Note_on_c, 1, 70, 127
1, 17040, Note_on_c, 1, 77, 127
1, 17100, Note_off_c, 1, 70, 0
1, 17100, Note_on_c, 1, 65, 127
1, 17148, Note_off_c, 1, 65, 0
1, 17160, Note_on_c, 1, 74, 127
1, 17160, Note_on_c, 1, 46, 127
1, 17220, Note_off_c, 1, 74, 0
1, 17232, Note_off_c, 1, 77, 0
1, 17232, Note_off_c, 1, 46, 0
1, 17280, Note_on_c, 1, 72, 127
1, 17280, Note_on_c, 1, 45, 127
1, 17322, Note_off_c, 1, 72, 0
1, 17340, Note_on_c, 1, 76, 127
1, 17400, Note_off_c, 1, 76, 0
1, 17400, Note_on_c, 1, 77, 127
1, 17400, Note_on_c, 1, 65, 127
1, 17442, Note_off_c, 1, 77, 0
1, 17472, Note_off_c, 1, 45, 0
1, 17496, Note_off_c, 1, 65, 0
1, 17520, Note_on_c, 1, 69, 127
1, 17520, Note_on_c, 1, 72, 127
1, 17580, Note_off_c, 1, 69, 0
1, 17580, Note_on_c, 1, 65, 127
1, 17616, Note_off_c, 1, 72, 0
1, 17628, Note_off_c, 1, 65, 0
1, 17640, Note_on_c, 1, 75, 127
1, 17640, Note_on_c, 1, 69, 127
1, 17640, Note_on_c, 1, 41, 127
1, 17700, Note_off_c, 1, 75, 0
1, 17700, Note_on_c, 1, 72, 127
1, 17736, Note_off_c, 1, 69, 0
1, 17736, Note_off_c, 1, 41, 0
1, 17748, Note_off_c, 1, 72, 0
1, 17760, Note_on_c, 1, 74, 127
1, 17760, Note_on_c, 1, 70, 127
1, 17760, Note_on_c, 1, 46, 127
1, 17808, Note_off_c, 1, 70, 0
1, 17820, Note_on_c, 1, 77, 127
1, 17832, Note_off_c, 1, 74, 0
1, 17868, Note_off_c, 1, 77, 0
1, 17880, Note_on_c, 1, 82, 127
1, 17928, Note_off_c, 1, 82, 0
1, 17952, Note_off_c, 1, 46, 0
1, 18000, Note_on_c, 1, 82, 127
1, 18000, Note_on_c, 1, 74, 127
1, 18048, Note_off_c, 1, 74, 0
1, 18060, Note_on_c, 1, 70, 127
1, 18108, Note_off_c, 1, 70, 0
1, 18120, Note_on_c, 1, 77, 127
1, 18120, Note_on_c, 1, 56, 127
1, 18168, Note_off_c, 1, 77, 0
1, 18192, Note_off_c, 1, 82, 0
1, 18216, Note_off_c, 1, 56, 0
1, 18240, Note_on_c, 1, 75, 127
1, 18240, Note_on_c, 1, 55, 127
1, 18288, Note_off_c, 1, 75, 0
1, 18300, Note_on_c, 1, 79, 127
1, 18348, Note_off_c, 1, 79, 0
1, 18360, Note_on_c, 1, 70, 127
1, 18360, Note_on_c, 1, 82, 127
1, 18408, Note_off_c, 1, 82, 0
1, 18432, Note_off_c, 1, 55, 0
1, 18432, Note_off_c, 1, 70, 0
1, 18480, Note_on_c, 1, 82, 127
1, 18480, Note_on_c, 1, 75, 127
1, 18528, Note_off_c, 1, 75, 0
1, 18540, Note_on_c, 1, 70, 127
1, 18588, Note_off_c, 1, 70, 0
1, 18600, Note_on_c, 1, 79, 127
1, 18600, Note_on_c, 1, 51, 127
1, 18648, Note_off_c, 1, 79, 0
1, 18672, Note_off_c, 1, 82, 0
1, 18696, Note_off_c, 1, 51, 0
1, 18720, Note_on_c, 1, 77, 127
1, 18720, Note_on_c, 1, 50, 127
1, 18768, Note_off_c, 1, 77, 0
1, 18780, Note_on_c, 1, 81, 127
1, 18828, Note_off_c, 1, 81, 0
1, 18840, Note_on_c, 1, 70, 127
1, 18840, Note_on_c, 1, 82, 127
1, 18888, Note_off_c, 1, 82, 0
1, 18912, Note_off_c, 1, 50, 0
1, 18912, Note_off_c, 1, 70, 0
1, 18960, Note_on_c, 1, 77, 127
1, 18960, Note_on_c, 1, 74, 127
1, 19008, Note_off_c, 1, 74, 0
1, 19020, Note_on_c, 1, 70, 127
1, 19056, Note_off_c, 1, 77, 0
1, 19068, Note_off_c, 1, 70, 0
1, 19080, Note_on_c, 1, 74, 127
1, 19080, Note_on_c, 1, 80, 127
1, 19080, Note_on_c, 1, 46, 127
1, 19128, Note_off_c, 1, 80, 0
1, 19140, Note_on_c, 1, 77, 127
1, 19176, Note_off_c, 1, 74, 0
1, 19176, Note_off_c, 1, 46, 0
1, 19188, Note_off_c, 1, 77, 0
1, 19200, Note_on_c, 1, 75, 127
1, 19200, Note_on_c, 1, 79, 127
1, 19200, Note_on_c, 1, 51, 127
1, 19260, Note_off_c, 1, 75, 0
1, 19260, Note_off_c, 1, 79, 0
1, 19260, Note_on_c, 1, 77, 127
1, 19296, Note_off_c, 1, 51, 0
1, 19302, Note_off_c, 1, 77, 0
1, 19320, Note_on_c, 1, 79, 127
1, 19320, Note_on_c, 1, 75, 127
1, 19320, Note_on_c, 1, 51, 127
1, 19362, Note_off_c, 1, 79, 0
1, 19362, Note_off_c, 1, 75, 0
1, 19380, Note_on_c, 1, 80, 127
1, 19380, Note_on_c, 1, 77, 127
1, 19416, Note_off_c, 1, 51, 0
1, 19422, Note_off_c, 1, 80, 0
1, 19422, Note_off_c, 1, 77, 0
1, 19440, Note_on_c, 1, 79, 127
1, 19440, Note_on_c, 1, 75, 127
1, 19440, Note_on_c, 1, 51, 127
1, 19497, Note_off_c, 1, 79, 0
1, 19497, Note_off_c, 1, 75, 0
1, 19500, Note_on_c, 1, 80, 127
1, 19500, Note_on_c, 1, 77, 127
1, 19536, Note_off_c, 1, 51, 0
1, 19557, Note_off_c, 1, 80, 0
1, 19557, Note_off_c, 1, 77, 0
1, 19560, Note_on_c, 1, 77, 127
1, 19560, Note_on_c, 1, 74, 127
1, 19560, Note_on_c, 1, 51, 127
1, 19617, Note_off_c, 1, 77, 0
1, 19617, Note_off_c, 1, 74, 0
1, 19620, Note_on_c, 1, 79, 127
1, 19620, Note_on_c, 1, 75, 127
1, 19656, Note_off_c, 1, 51, 0
1, 19677, Note_off_c, 1, 79, 0
1, 19677, Note_off_c, 1, 75, 0
1, 19680, Note_on_c, 1, 75, 127
1, 19680, Note_on_c, 1, 72, 127
1, 19680, Note_on_c, 1, 51, 127
1, 19728, Note_off_c, 1, 75, 0
1, 19728, Note_off_c, 1, 72, 0
1, 19740, Note_on_c, 1, 74, 127
1, 19740, Note_on_c, 1, 70, 127
1, 19776, Note_off_c, 1, 51, 0
1, 19782, Note_off_c, 1, 74, 0
1, 19782, Note_off_c, 1, 70, 0
1, 19800, Note_on_c, 1, 75, 127
1, 19800, Note_on_c, 1, 72, 127
1, 19800, Note_on_c, 1, 51, 127
1, 19842, Note_off_c, 1, 75, 0
1, 19842, Note_off_c, 1, 72, 0
1, 19860, Note_on_c, 1, 77, 127
1, 19860, Note_on_c, 1, 74, 127
1, 19896, Note_off_c, 1, 51, 0
1, 19902, Note_off_c, 1, 77, 0
1, 19902, Note_off_c, 1, 74, 0
1, 19920, Note_on_c, 1, 75, 127
1, 19920, Note_on_c, 1, 72, 127
1, 19920, Note_on_c, 1, 51, 127
1, 19977, Note_off_c, 1, 75, 0
1, 19977, Note_off_c, 1, 72, 0
1, 19980, Note_on_c, 1, 77, 127
1, 19980, Note_on_c, 1, 74, 127
1, 20016, Note_off_c, 1, 51, 0
1, 20037, Note_off_c, 1, 77, 0
1, 20037, Note_off_c, 1, 74, 0
1, 20040, Note_on_c, 1, 74, 127
1, 20040, Note_on_c, 1, 70, 127
1, 20040, Note_on_c, 1, 51, 127
1, 20097, Note_off_c, 1, 74, 0
1, 20097, Note_off_c, 1, 70, 0
1, 20100, Note_on_c, 1, 75, 127
1, 20100, Note_on_c, 1, 72, 127
1, 20136, Note_off_c, 1, 51, 0
1, 20157, Note_off_c, 1, 75, 0
1, 20157, Note_off_c, 1, 72, 0
1, 20160, Note_on_c, 1, 72, 127
1, 20160, Note_on_c, 1, 69, 127
1, 20160, Note_on_c, 1, 53, 127
1, 20208, Note_off_c, 1, 69, 0
1, 20220, Note_off_c, 1, 53, 0
1, 20268, Note_off_c, 1, 72, 0
1, 20280, Note_on_c, 1, 84, 127
1, 20280, Note_on_c, 1, 75, 127
1, 20280, Note_on_c, 1, 41, 127
1, 20340, Note_off_c, 1, 84, 0
1, 20340, Note_on_c, 1, 81, 127
1, 20376, Note_off_c, 1, 41, 0
1, 20400, Note_off_c, 1, 81, 0
1, 20400, Note_on_c, 1, 77, 127
1, 20400, Note_on_c, 1, 45, 127
1, 20448, Note_off_c, 1, 75, 0
1, 20460, Note_on_c, 1, 72, 127
1, 20496, Note_off_c, 1, 45, 0
1, 20508, Note_off_c, 1, 77, 0
1, 20508, Note_off_c, 1, 72, 0
1, 20520, Note_on_c, 1, 77, 127
1, 20520, Note_on_c, 1, 74, 127
1, 20520, Note_on_c, 1, 48, 127
1, 20550, Note_off_c, 1, 74, 0
1, 20580, Note_on_c, 1, 70, 127
1, 20610, Note_off_c, 1, 70, 0
1, 20616, Note_off_c, 1, 48, 0
1, 20640, Note_on_c, 1, 69, 127
1, 20640, Note_on_c, 1, 53, 127
1, 20688, Note_off_c, 1, 69, 0
1, 20700, Note_off_c, 1, 77, 0
1, 20700, Note_on_c, 1, 81, 127
1, 20700, Note_on_c, 1, 72, 127
1, 20736, Note_off_c, 1, 53, 0
1, 20748, Note_off_c, 1, 81, 0
1, 20748, Note_off_c, 1, 72, 0
1, 20760, Note_on_c, 1, 84, 127
1, 20760, Note_on_c, 1, 75, 127
1, 20760, Note_on_c, 1, 41, 127
1, 20796, Note_off_c, 1, 84, 0
1, 20820, Note_on_c, 1, 81, 127
1, 20856, Note_off_c, 1, 41, 0
1, 20856, Note_off_c, 1, 81, 0
1, 20880, Note_on_c, 1, 77, 127
1, 20880, Note_on_c, 1, 45, 127
1, 20928, Note_off_c, 1, 75, 0
1, 20940, Note_on_c, 1, 72, 127
1, 20976, Note_off_c, 1, 45, 0
1, 20988, Note_off_c, 1, 72, 0
1, 20994, Note_off_c, 1, 77, 0
1, 21000, Note_on_c, 1, 77, 127
1, 21000, Note_on_c, 1, 74, 127
1, 21000, Note_on_c, 1, 46, 127
1, 21030, Note_off_c, 1, 74, 0
1, 21060, Note_on_c, 1, 70, 127
1, 21090, Note_off_c, 1, 70, 0
1, 21096, Note_off_c, 1, 46, 0
1, 21114, Note_off_c, 1, 77, 0
1, 21120, Note_on_c, 1, 77, 127
1, 21120, Note_on_c, 1, 69, 127
1, 21120, Note_on_c, 1, 53, 127
1, 21168, Note_off_c, 1, 69, 0
1, 21180, Note_on_c, 1, 67, 127
1, 21216, Note_off_c, 1, 53, 0
1, 21228, Note_off_c, 1, 67, 0
1, 21240, Note_on_c, 1, 65, 127
1, 21240, Note_on_c, 1, 41, 127
1, 21288, Note_off_c, 1, 65, 0
1, 21312, Note_off_c, 1, 77, 0
1, 21336, Note_off_c, 1, 41, 0
1, 21360, Note_on_c, 1, 65, 127
1, 21360, Note_on_c, 1, 69, 127
1, 21420, Note_off_c, 1, 65, 0
1, 21420, Note_off_c, 1, 69, 0
1, 21420, Note_on_c, 1, 67, 127
1, 21420, Note_on_c, 1, 70, 127
1, 21462, Note_off_c, 1, 67, 0
1, 21462, Note_off_c, 1, 70, 0
1, 21480, Note_on_c, 1, 69, 127
1, 21480, Note_on_c, 1, 72, 127
1, 21522, Note_off_c, 1, 69, 0
1, 21522, Note_off_c, 1, 72, 0
1, 21540, Note_on_c, 1, 70, 127
1, 21540, Note_on_c, 1, 74, 127
1, 21582, Note_off_c, 1, 70, 0
1, 21582, Note_off_c, 1, 74, 0
1, 21600, Note_on_c, 1, 72, 127
1, 21600, Note_on_c, 1, 75, 127
1, 21660, Note_off_c, 1, 72, 0
1, 21660, Note_off_c, 1, 75, 0
1, 21660, Note_on_c, 1, 70, 127
1, 21660, Note_on_c, 1, 74, 127
1, 21702, Note_off_c, 1, 70, 0
1, 21702, Note_off_c, 1, 74, 0
1, 21720, Note_on_c, 1, 69, 127
1, 21720, Note_on_c, 1, 72, 127
1, 21720, Note_on_c, 1, 41, 127
1, 21762, Note_off_c, 1, 69, 0
1, 21762, Note_off_c, 1, 72, 0
1, 21780, Note_on_c, 1, 70, 127
1, 21780, Note_on_c, 1, 74, 127
1, 21816, Note_off_c, 1, 41, 0
1, 21822, Note_off_c, 1, 70, 0
1, 21822, Note_off_c, 1, 74, 0
1, 21840, Note_on_c, 1, 72, 127
1, 21840, Note_on_c, 1, 75, 127
1, 21840, Note_on_c, 1, 41, 127
1, 21900, Note_off_c, 1, 72, 0
1, 21900, Note_on_c, 1, 79, 127
1, 21936, Note_off_c, 1, 41, 0
1, 21942, Note_off_c, 1, 75, 0
1, 21942, Note_off_c, 1, 79, 0
1, 21960, Note_on_c, 1, 74, 127
1, 21960, Note_on_c, 1, 77, 127
1, 21960, Note_on_c, 1, 41, 127
1, 22002, Note_off_c, 1, 74, 0
1, 22002, Note_off_c, 1, 77, 0
1, 22020, Note_on_c, 1, 72, 127
1, 22020, Note_on_c, 1, 75, 127
1, 22056, Note_off_c, 1, 41, 0
1, 22062, Note_off_c, 1, 72, 0
1, 22062, Note_off_c, 1, 75, 0
1, 22080, Note_on_c, 1, 70, 127
1, 22080, Note_on_c, 1, 74, 127
1, 22080, Note_on_c, 1, 46, 127
1, 22128, Note_off_c, 1, 74, 0
1, 22140, Note_on_c, 1, 77, 127
1, 22176, Note_off_c, 1, 70, 0
1, 22176, Note_off_c, 1, 46, 0
1, 22188, Note_off_c, 1, 77, 0
1, 22200, Note_on_c, 1, 70, 127
1, 22200, Note_on_c, 1, 79, 127
1, 22200, Note_on_c, 1, 51, 127
1, 22248, Note_off_c, 1, 79, 0
1, 22260, Note_on_c, 1, 75, 127
1, 22296, Note_off_c, 1, 51, 0
1, 22308, Note_off_c, 1, 75, 0
1, 22320, Note_on_c, 1, 77, 127
1, 22320, Note_on_c, 1, 50, 127
1, 22368, Note_off_c, 1, 77, 0
1, 22380, Note_on_c, 1, 82, 127
1, 22392, Note_off_c, 1, 70, 0
1, 22410, Note_off_c, 1, 82, 0
1, 22416, Note_off_c, 1, 50, 0
1, 22440, Note_on_c, 1, 69, 127
1, 22440, Note_on_c, 1, 75, 127
1, 22440, Note_on_c, 1, 48, 127
1, 22470, Note_off_c, 1, 75, 0
1, 22500, Note_on_c, 1, 72, 127
1, 22530, Note_off_c, 1, 72, 0
1, 22536, Note_off_c, 1, 69, 0
1, 22536, Note_off_c, 1, 48, 0
1, 22560, Note_on_c, 1, 70, 127
1, 22560, Note_on_c, 1, 74, 127
1, 22560, Note_on_c, 1, 46, 127
1, 22608, Note_off_c, 1, 70, 0
1, 22620, Note_on_c, 1, 77, 127
1, 22656, Note_off_c, 1, 74, 0
1, 22656, Note_off_c, 1, 46, 0
1, 22668, Note_off_c, 1, 77, 0
1, 22680, Note_on_c, 1, 79, 127
1, 22680, Note_on_c, 1, 70, 127
1, 22680, Note_on_c, 1, 51, 127
1, 22728, Note_off_c, 1, 79, 0
1, 22740, Note_on_c, 1, 75, 127
1, 22776, Note_off_c, 1, 51, 0
1, 22788, Note_off_c, 1, 75, 0
1, 22800, Note_on_c, 1, 77, 127
1, 22800, Note_on_c, 1, 50, 127
1, 22848, Note_off_c, 1, 77, 0
1, 22860, Note_on_c, 1, 82, 127
1, 22872, Note_off_c, 1, 70, 0
1, 22896, Note_off_c, 1, 50, 0
1, 22896, Note_off_c, 1, 82, 0
1, 22920, Note_on_c, 1, 75, 127
1, 22920, Note_on_c, 1, 69, 127
1, 22920, Note_on_c, 1, 48, 127
1, 22956, Note_off_c, 1, 75, 0
1, 22980, Note_on_c, 1, 72, 127
1, 23016, Note_off_c, 1, 69, 0
1, 23016, Note_off_c, 1, 48, 0
1, 23016, Note_off_c, 1, 72, 0
1, 23040, Note_on_c, 1, 74, 127
1, 23040, Note_on_c, 1, 70, 127
1, 23040, Note_on_c, 1, 46, 127
1, 23088, Note_off_c, 1, 74, 0
1, 23088, Note_off_c, 1, 70, 0
1, 23100, Note_on_c, 1, 72, 127
1, 23100, Note_on_c, 1, 69, 127
1, 23148, Note_off_c, 1, 72, 0
1, 23148, Note_off_c, 1, 69, 0
1, 23220, Note_on_c, 1, 75, 127
1, 23232, Note_off_c, 1, 46, 0
1, 23268, Note_off_c, 1, 75, 0
1, 23280, Note_on_c, 1, 77, 127
1, 23280, Note_on_c, 1, 74, 127
1, 23376, Note_off_c, 1, 77, 0
1, 23376, Note_off_c, 1, 74, 0
1, 23400, Note_on_c, 1, 75, 127
1, 23400, Note_on_c, 1, 72, 127
1, 23400, Note_on_c, 1, 51, 127
1, 23496, Note_off_c, 1, 75, 0
1, 23496, Note_off_c, 1, 72, 0
1, 23496, Note_off_c, 1, 51, 0
1, 23520, Note_on_c, 1, 74, 127
1, 23520, Note_on_c, 1, 70, 127
1, 23520, Note_on_c, 1, 53, 127
1, 23616, Note_off_c, 1, 53, 0
1, 23640, Note_on_c, 1, 51, 127
1, 23664, Note_off_c, 1, 74, 0
1, 23664, Note_off_c, 1, 70, 0
1, 23736, Note_off_c, 1, 51, 0
1, 23760, Note_on_c, 1, 72, 127
1, 23760, Note_on_c, 1, 69, 127
1, 23760, Note_on_c, 1, 53, 127
1, 23784, Note_off_c, 1, 72, 0
1, 23784, Note_off_c, 1, 69, 0
1, 23790, Note_on_c, 1, 74, 127
1, 23790, Note_on_c, 1, 70, 127
1, 23814, Note_off_c, 1, 74, 0
1, 23814, Note_off_c, 1, 70, 0
1, 23856, Note_off_c, 1, 53, 0
1, 23860, Note_on_c, 1, 72, 127
1, 23860, Note_on_c, 1, 69, 127
1, 23880, Note_on_c, 1, 41, 127
1, 23928, Note_off_c, 1, 72, 0
1, 23928, Note_off_c, 1, 69, 0
1, 23940, Note_on_c, 1, 70, 127
1, 23976, Note_off_c, 1, 41, 0
1, 23988, Note_off_c, 1, 70, 0
1, 24000, Note_on_c, 1, 70, 127
1, 24000, Note_on_c, 1, 46, 127
1, 24060, Note_on_c, 1, 65, 127
1, 24108, Note_off_c, 1, 65, 0
1, 24180, Note_on_c, 1, 74, 127
1, 24192, Note_off_c, 1, 70, 0
1, 24192, Note_off_c, 1, 46, 0
1, 24228, Note_off_c, 1, 74, 0
1, 24240, Note_on_c, 1, 77, 127
1, 24240, Note_on_c, 1, 50, 127
1, 24288, Note_off_c, 1, 77, 0
1, 24300, Note_off_c, 1, 50, 0
1, 24300, Note_on_c, 1, 74, 127
1, 24348, Note_off_c, 1, 74, 0
1, 24360, Note_on_c, 1, 75, 127
1, 24360, Note_on_c, 1, 53, 127
1, 24408, Note_off_c, 1, 75, 0
1, 24420, Note_off_c, 1, 53, 0
1, 24420, Note_on_c, 1, 72, 127
1, 24468, Note_off_c, 1, 72, 0
1, 24480, Note_on_c, 1, 74, 127
1, 24480, Note_on_c, 1, 58, 127
1, 24528, Note_off_c, 1, 74, 0
1, 24540, Note_on_c, 1, 70, 127
1, 24570, Note_off_c, 1, 70, 0
1, 24600, Note_off_c, 1, 58, 0
1, 24600, Note_on_c, 1, 46, 127
1, 24660, Note_on_c, 1, 82, 127
1, 24690, Note_off_c, 1, 82, 0
1, 24696, Note_off_c, 1, 46, 0
1, 24720, Note_on_c, 1, 77, 127
1, 24720, Note_on_c, 1, 50, 127
1, 24768, Note_off_c, 1, 77, 0
1, 24780, Note_on_c, 1, 74, 127
1, 24816, Note_off_c, 1, 50, 0
1, 24828, Note_off_c, 1, 74, 0
1, 24840, Note_on_c, 1, 75, 127
1, 24840, Note_on_c, 1, 53, 127
1, 24888, Note_off_c, 1, 75, 0
1, 24900, Note_on_c, 1, 72, 127
1, 24936, Note_off_c, 1, 53, 0
1, 24948, Note_off_c, 1, 72, 0
1, 24960, Note_on_c, 1, 74, 127
1, 24960, Note_on_c, 1, 58, 127
1, 25008, Note_off_c, 1, 74, 0
1, 25020, Note_on_c, 1, 70, 127
1, 25056, Note_off_c, 1, 58, 0
1, 25068, Note_off_c, 1, 70, 0
1, 25080, Note_on_c, 1, 74, 127
1, 25080, Note_on_c, 1, 58, 127
1, 25128, Note_off_c, 1, 74, 0
1, 25140, Note_on_c, 1, 77, 127
1, 25176, Note_off_c, 1, 58, 0
1, 25188, Note_off_c, 1, 77, 0
1, 25200, Note_on_c, 1, 79, 127
1, 25200, Note_on_c, 1, 58, 127
1, 25248, Note_off_c, 1, 79, 0
1, 25260, Note_on_c, 1, 75, 127
1, 25296, Note_off_c, 1, 58, 0
1, 25308, Note_off_c, 1, 75, 0
1, 25320, Note_on_c, 1, 82, 127
1, 25320, Note_on_c, 1, 58, 127
1, 25368, Note_off_c, 1, 82, 0
1, 25380, Note_on_c, 1, 79, 127
1, 25416, Note_off_c, 1, 58, 0
1, 25428, Note_off_c, 1, 79, 0
1, 25440, Note_on_c, 1, 77, 127
1, 25440, Note_on_c, 1, 58, 127
1, 25488, Note_off_c, 1, 77, 0
1, 25500, Note_on_c, 1, 65, 127
1, 25536, Note_off_c, 1, 58, 0
1, 25548, Note_off_c, 1, 65, 0
1, 25560, Note_on_c, 1, 70, 127
1, 25560, Note_on_c, 1, 46, 127
1, 25608, Note_off_c, 1, 70, 0
1, 25620, Note_on_c, 1, 65, 127
1, 25656, Note_off_c, 1, 46, 0
1, 25668, Note_off_c, 1, 65, 0
1, 25680, Note_on_c, 1, 74, 127
1, 25680, Note_on_c, 1, 46, 127
1, 25728, Note_off_c, 1, 74, 0
1, 25740, Note_on_c, 1, 70, 127
1, 25770, Note_off_c, 1, 70, 0
1, 25776, Note_off_c, 1, 46, 0
1, 25800, Note_on_c, 1, 77, 127
1, 25800, Note_on_c, 1, 46, 127
1, 25830, Note_off_c, 1, 77, 0
1, 25860, Note_on_c, 1, 74, 127
1, 25890, Note_off_c, 1, 74, 0
1, 25896, Note_off_c, 1, 46, 0
1, 25920, Note_on_c, 1, 75, 127
1, 25920, Note_on_c, 1, 53, 127
1, 25968, Note_off_c, 1, 75, 0
1, 25980, Note_on_c, 1, 65, 127
1, 26016, Note_off_c, 1, 53, 0
1, 26028, Note_off_c, 1, 65, 0
1, 26040, Note_on_c, 1, 69, 127
1, 26040, Note_on_c, 1, 41, 127
1, 26088, Note_off_c, 1, 69, 0
1, 26100, Note_on_c, 1, 72, 127
1, 26136, Note_off_c, 1, 41, 0
1, 26148, Note_off_c, 1, 72, 0
1, 26160, Note_on_c, 1, 75, 127
1, 26160, Note_on_c, 1, 41, 127
1, 26208, Note_off_c, 1, 75, 0
1, 26220, Note_on_c, 1, 72, 127
1, 26256, Note_off_c, 1, 41, 0
1, 26268, Note_off_c, 1, 72, 0
1, 26280, Note_on_c, 1, 84, 127
1, 26280, Note_on_c, 1, 41, 127
1, 26328, Note_off_c, 1, 84, 0
1, 26340, Note_on_c, 1, 75, 127
1, 26376, Note_off_c, 1, 41, 0
1, 26388, Note_off_c, 1, 75, 0
1, 26400, Note_on_c, 1, 74, 127
1, 26400, Note_on_c, 1, 46, 127
1, 26448, Note_off_c, 1, 74, 0
1, 26460, Note_on_c, 1, 70, 127
1, 26496, Note_off_c, 1, 46, 0
1, 26508, Note_off_c, 1, 70, 0
1, 26520, Note_on_c, 1, 72, 127
1, 26520, Note_on_c, 1, 46, 127
1, 26544, Note_off_c, 1, 72, 0
1, 26550, Note_on_c, 1, 70, 127
1, 26574, Note_off_c, 1, 70, 0
1, 26580, Note_on_c, 1, 69, 127
1, 26604, Note_off_c, 1, 69, 0
1, 26616, Note_off_c, 1, 46, 0
1, 26640, Note_on_c, 1, 74, 127
1, 26640, Note_on_c, 1, 46, 127
1, 26688, Note_off_c, 1, 74, 0
1, 26700, Note_on_c, 1, 70, 127
1, 26730, Note_off_c, 1, 70, 0
1, 26736, Note_off_c, 1, 46, 0
1, 26760, Note_on_c, 1, 77, 127
1, 26760, Note_on_c, 1, 46, 127
1, 26790, Note_off_c, 1, 77, 0
1, 26820, Note_on_c, 1, 74, 127
1, 26850, Note_off_c, 1, 74, 0
1, 26856, Note_off_c, 1, 46, 0
1, 26880, Note_on_c, 1, 79, 127
1, 26880, Note_on_c, 1, 51, 127
1, 26928, Note_off_c, 1, 79, 0
1, 26940, Note_on_c, 1, 82, 127
1, 26976, Note_off_c, 1, 51, 0
1, 26988, Note_off_c, 1, 82, 0
1, 27000, Note_on_c, 1, 84, 127
1, 27000, Note_on_c, 1, 63, 127
1, 27024, Note_off_c, 1, 84, 0
1, 27030, Note_on_c, 1, 82, 127
1, 27054, Note_off_c, 1, 82, 0
1, 27060, Note_on_c, 1, 81, 127
1, 27084, Note_off_c, 1, 81, 0
1, 27096, Note_off_c, 1, 63, 0
1, 27120, Note_on_c, 1, 77, 127
1, 27120, Note_on_c, 1, 62, 127
1, 27168, Note_off_c, 1, 77, 0
1, 27180, Note_on_c, 1, 82, 127
1, 27210, Note_off_c, 1, 82, 0
1, 27216, Note_off_c, 1, 62, 0
1, 27240, Note_on_c, 1, 74, 127
1, 27240, Note_on_c, 1, 50, 127
1, 27270, Note_off_c, 1, 74, 0
1, 27300, Note_on_c, 1, 77, 127
1, 27330, Note_off_c, 1, 77, 0
1, 27336, Note_off_c, 1, 50, 0
1, 27360, Note_on_c, 1, 75, 127
1, 27360, Note_on_c, 1, 48, 127
1, 27408, Note_off_c, 1, 75, 0
1, 27420, Note_on_c, 1, 82, 127
1, 27456, Note_off_c, 1, 48, 0
1, 27468, Note_off_c, 1, 82, 0
1, 27480, Note_on_c, 1, 84, 127
1, 27480, Note_on_c, 1, 60, 127
1, 27504, Note_off_c, 1, 84, 0
1, 27510, Note_on_c, 1, 82, 127
1, 27534, Note_off_c, 1, 82, 0
1, 27540, Note_on_c, 1, 81, 127
1, 27564, Note_off_c, 1, 81, 0
1, 27576, Note_off_c, 1, 60, 0
1, 27600, Note_on_c, 1, 74, 127
1, 27600, Note_on_c, 1, 58, 127
1, 27648, Note_off_c, 1, 74, 0
1, 27660, Note_on_c, 1, 82, 127
1, 27690, Note_off_c, 1, 82, 0
1, 27696, Note_off_c, 1, 58, 0
1, 27720, Note_on_c, 1, 70, 127
1, 27720, Note_on_c, 1, 46, 127
1, 27750, Note_off_c, 1, 70, 0
1, 27780, Note_on_c, 1, 74, 127
1, 27810, Note_off_c, 1, 74, 0
1, 27816, Note_off_c, 1, 46, 0
1, 27840, Note_on_c, 1, 72, 127
1, 27840, Note_on_c, 1, 51, 127
1, 27888, Note_off_c, 1, 72, 0
1, 27900, Note_on_c, 1, 79, 127
1, 27930, Note_off_c, 1, 79, 0
1, 28020, Note_on_c, 1, 77, 127
1, 28032, Note_off_c, 1, 51, 0
1, 28050, Note_off_c, 1, 77, 0
1, 28080, Note_on_c, 1, 75, 127
1, 28080, Note_on_c, 1, 48, 127
1, 28110, Note_off_c, 1, 75, 0
1, 28140, Note_on_c, 1, 74, 127
1, 28170, Note_off_c, 1, 74, 0
1, 28176, Note_off_c, 1, 48, 0
1, 28200, Note_on_c, 1, 72, 127
1, 28200, Note_on_c, 1, 51, 127
1, 28230, Note_off_c, 1, 72, 0
1, 28260, Note_on_c, 1, 70, 127
1, 28290, Note_off_c, 1, 70, 0
1, 28296, Note_off_c, 1, 51, 0
1, 28320, Note_on_c, 1, 69, 127
1, 28320, Note_on_c, 1, 53, 127
1, 28368, Note_off_c, 1, 69, 0
1, 28380, Note_on_c, 1, 72, 127
1, 28428, Note_off_c, 1, 72, 0
1, 28500, Note_on_c, 1, 70, 127
1, 28512, Note_off_c, 1, 53, 0
1, 28548, Note_off_c, 1, 70, 0
1, 28560, Note_on_c, 1, 69, 127
1, 28560, Note_on_c, 1, 41, 127
1, 28608, Note_off_c, 1, 69, 0
1, 28620, Note_on_c, 1, 67, 127
1, 28656, Note_off_c, 1, 41, 0
1, 28668, Note_off_c, 1, 67, 0
1, 28680, Note_on_c, 1, 65, 127
1, 28680, Note_on_c, 1, 45, 127
1, 28728, Note_off_c, 1, 65, 0
1, 28740, Note_on_c, 1, 63, 127
1, 28776, Note_off_c, 1, 45, 0
1, 28788, Note_off_c, 1, 63, 0
1, 28800, Note_on_c, 1, 62, 127
1, 28800, Note_on_c, 1, 46, 127
1, 28824, Note_off_c, 1, 62, 0
1, 28830, Note_on_c, 1, 58, 127
1, 28854, Note_off_c, 1, 58, 0
1, 28860, Note_on_c, 1, 60, 127
1, 28884, Note_off_c, 1, 60, 0
1, 28896, Note_off_c, 1, 46, 0
1, 28920, Note_on_c, 1, 63, 127
1, 28920, Note_on_c, 1, 48, 127
1, 28944, Note_off_c, 1, 63, 0
1, 28950, Note_on_c, 1, 65, 127
1, 28974, Note_off_c, 1, 65, 0
1, 28980, Note_on_c, 1, 67, 127
1, 29004, Note_off_c, 1, 67, 0
1, 29010, Note_on_c, 1, 69, 127
1, 29016, Note_off_c, 1, 48, 0
1, 29034, Note_off_c, 1, 69, 0
1, 29040, Note_on_c, 1, 70, 127
1, 29040, Note_on_c, 1, 50, 127
1, 29088, Note_off_c, 1, 70, 0
1, 29100, Note_on_c, 1, 82, 127
1, 29130, Note_off_c, 1, 82, 0
1, 29136, Note_off_c, 1, 50, 0
1, 29160, Note_on_c, 1, 79, 127
1, 29160, Note_on_c, 1, 51, 127
1, 29190, Note_off_c, 1, 79, 0
1, 29220, Note_on_c, 1, 75, 127
1, 29250, Note_off_c, 1, 75, 0
1, 29256, Note_off_c, 1, 51, 0
1, 29280, Note_on_c, 1, 74, 127
1, 29280, Note_on_c, 1, 53, 127
1, 29328, Note_off_c, 1, 74, 0
1, 29340, Note_on_c, 1, 70, 127
1, 29388, Note_off_c, 1, 70, 0
1, 29400, Note_on_c, 1, 77, 127
1, 29448, Note_off_c, 1, 77, 0
1, 29472, Note_off_c, 1, 53, 0
1, 29520, Note_on_c, 1, 74, 127
1, 29520, Note_on_c, 1, 41, 127
1, 29568, Note_off_c, 1, 74, 0
1, 29580, Note_on_c, 1, 72, 127
1, 29604, Note_off_c, 1, 72, 0
1, 29700, Note_on_c, 1, 70, 127
1, 29712, Note_off_c, 1, 41, 0
1, 29724, Note_off_c, 1, 70, 0
1, 29730, Note_on_c, 1, 72, 127
1, 29754, Note_off_c, 1, 72, 0
1, 29760, Note_on_c, 1, 77, 127
1, 29760, Note_on_c, 1, 70, 127
1, 29760, Note_on_c, 1, 46, 127
1, 29856, Note_off_c, 1, 77, 0
1, 29880, Note_on_c, 1, 86, 127
1, 29952, Note_off_c, 1, 70, 0
1, 29952, Note_off_c, 1, 46, 0
1, 29976, Note_off_c, 1, 86, 0
1, 30000, Note_on_c, 1, 84, 127
1, 30000, Note_on_c, 1, 51, 127
1, 30096, Note_off_c, 1, 84, 0
1, 30120, Note_on_c, 1, 82, 127
1, 30192, Note_off_c, 1, 51, 0
1, 30216, Note_off_c, 1, 82, 0
1, 30240, Note_on_c, 1, 81, 127
1, 30240, Note_on_c, 1, 53, 127
1, 30264, Note_off_c, 1, 81, 0
1, 30270, Note_on_c, 1, 82, 127
1, 30294, Note_off_c, 1, 82, 0
1, 30300, Note_on_c, 1, 84, 127
1, 30336, Note_off_c, 1, 53, 0
1, 30348, Note_off_c, 1, 84, 0
1, 30360, Note_on_c, 1, 82, 127
1, 30360, Note_on_c, 1, 55, 127
1, 30432, Note_off_c, 1, 55, 0
1, 30552, Note_off_c, 1, 82, 0
1, 30600, Note_on_c, 1, 79, 127
1, 30600, Note_on_c, 1, 51, 127
1, 30696, Note_off_c, 1, 79, 0
1, 30720, Note_off_c, 1, 51, 0
1, 30720, Note_on_c, 1, 50, 127
1, 30780, Note_on_c, 1, 77, 127
1, 30816, Note_off_c, 1, 50, 0
1, 30828, Note_off_c, 1, 77, 0
1, 30840, Note_on_c, 1, 75, 127
1, 30840, Note_on_c, 1, 46, 127
1, 30888, Note_off_c, 1, 75, 0
1, 30900, Note_on_c, 1, 74, 127
1, 30912, Note_off_c, 1, 46, 0
1, 30948, Note_off_c, 1, 74, 0
1, 30960, Note_on_c, 1, 77, 127
1, 30960, Note_on_c, 1, 48, 127
1, 31008, Note_off_c, 1, 77, 0
1, 31020, Note_on_c, 1, 75, 127
1, 31032, Note_off_c, 1, 48, 0
1, 31044, Note_off_c, 1, 75, 0
1, 31050, Note_on_c, 1, 77, 127
1, 31074, Note_off_c, 1, 77, 0
1, 31080, Note_on_c, 1, 75, 127
1, 31080, Note_on_c, 1, 41, 127
1, 31096, Note_off_c, 1, 75, 0
1, 31100, Note_on_c, 1, 77, 127
1, 31116, Note_off_c, 1, 77, 0
1, 31140, Note_on_c, 1, 74, 127
1, 31164, Note_off_c, 1, 74, 0
1, 31176, Note_off_c, 1, 41, 0
1, 31200, Note_on_c, 1, 74, 127
1, 31200, Note_on_c, 1, 46, 127
1, 31248, Note_off_c, 1, 74, 0
1, 31260, Note_on_c, 1, 82, 127
1, 31296, Note_off_c, 1, 46, 0
1, 31296, Note_off_c, 1, 82, 0
1, 31320, Note_on_c, 1, 81, 127
1, 31320, Note_on_c, 1, 48, 127
1, 31356, Note_off_c, 1, 81, 0
1, 31380, Note_on_c, 1, 84, 127
1, 31392, Note_off_c, 1, 48, 0
1, 31416, Note_off_c, 1, 84, 0
1, 31440, Note_on_c, 1, 82, 127
1, 31440, Note_on_c, 1, 50, 127
1, 31512, Note_off_c, 1, 50, 0
1, 31536, Note_off_c, 1, 82, 0
1, 31560, Note_on_c, 1, 79, 127
1, 31560, Note_on_c, 1, 51, 127
1, 31656, Note_off_c, 1, 79, 0
1, 31680, Note_off_c, 1, 51, 0
1, 31680, Note_on_c, 1, 50, 127
1, 31740, Note_on_c, 1, 77, 127
1, 31776, Note_off_c, 1, 50, 0
1, 31788, Note_off_c, 1, 77, 0
1, 31800, Note_on_c, 1, 75, 127
1, 31800, Note_on_c, 1, 46, 127
1, 31848, Note_off_c, 1, 75, 0
1, 31860, Note_on_c, 1, 74, 127
1, 31872, Note_off_c, 1, 46, 0
1, 31908, Note_off_c, 1, 74, 0
1, 31920, Note_on_c, 1, 77, 127
1, 31920, Note_on_c, 1, 48, 127
1, 31968, Note_off_c, 1, 77, 0
1, 31980, Note_on_c, 1, 75, 127
1, 31992, Note_off_c, 1, 48, 0
1, 32004, Note_off_c, 1, 75, 0
1, 32010, Note_on_c, 1, 77, 127
1, 32034, Note_off_c, 1, 77, 0
1, 32040, Note_on_c, 1, 75, 127
1, 32040, Note_on_c, 1, 41, 127
1, 32056, Note_off_c, 1, 75, 0
1, 32060, Note_on_c, 1, 77, 127
1, 32076, Note_off_c, 1, 77, 0
1, 32100, Note_on_c, 1, 74, 127
1, 32124, Note_off_c, 1, 74, 0
1, 32136, Note_off_c, 1, 41, 0
1, 32160, Note_on_c, 1, 74, 127
1, 32160, Note_on_c, 1, 46, 127
1, 32220, Note_on_c, 1, 65, 127
1, 32268, Note_off_c, 1, 65, 0
1, 32280, Note_on_c, 1, 70, 127
1, 32328, Note_off_c, 1, 70, 0
1, 32352, Note_off_c, 1, 46, 0
1, 32388, Note_off_c, 1, 74, 0
1, 32400, Note_on_c, 1, 77, 127
1, 32400, Note_on_c, 1, 50, 127
1, 32448, Note_off_c, 1, 77, 0
1, 32460, Note_on_c, 1, 74, 127
1, 32496, Note_off_c, 1, 50, 0
1, 32508, Note_off_c, 1, 74, 0
1, 32520, Note_on_c, 1, 75, 127
1, 32520, Note_on_c, 1, 53, 127
1, 32568, Note_off_c, 1, 75, 0
1, 32580, Note_on_c, 1, 72, 127
1, 32616, Note_off_c, 1, 53, 0
1, 32628, Note_off_c, 1, 72, 0
1, 32640, Note_on_c, 1, 74, 127
1, 32640, Note_on_c, 1, 58, 127
1, 32688, Note_off_c, 1, 74, 0
1, 32700, Note_on_c, 1, 70, 127
1, 32730, Note_off_c, 1, 70, 0
1, 32736, Note_off_c, 1, 58, 0
1, 32760, Note_on_c, 1, 74, 127
1, 32760, Note_on_c, 1, 46, 127
1, 32790, Note_off_c, 1, 74, 0
1, 32820, Note_on_c, 1, 82, 127
1, 32850, Note_off_c, 1, 82, 0
1, 32856, Note_off_c, 1, 46, 0
1, 32880, Note_on_c, 1, 77, 127
1, 32880, Note_on_c, 1, 50, 127
1, 32928, Note_off_c, 1, 77, 0
1, 32940, Note_on_c, 1, 74, 127
1, 32976, Note_off_c, 1, 50, 0
1, 32988, Note_off_c, 1, 74, 0
1, 33000, Note_on_c, 1, 75, 127
1, 33000, Note_on_c, 1, 53, 127
1, 33048, Note_off_c, 1, 75, 0
1, 33060, Note_on_c, 1, 72, 127
1, 33096, Note_off_c, 1, 53, 0
1, 33108, Note_off_c, 1, 72, 0
1, 33120, Note_on_c, 1, 74, 127
1, 33120, Note_on_c, 1, 58, 127
1, 33144, Note_off_c, 1, 74, 0
1, 33150, Note_on_c, 1, 65, 127
1, 33174, Note_off_c, 1, 65, 0
1, 33180, Note_on_c, 1, 67, 127
1, 33204, Note_off_c, 1, 67, 0
1, 33210, Note_on_c, 1, 69, 127
1, 33216, Note_off_c, 1, 58, 0
1, 33234, Note_off_c, 1, 69, 0
1, 33240, Note_on_c, 1, 70, 127
1, 33240, Note_on_c, 1, 58, 127
1, 33264, Note_off_c, 1, 70, 0
1, 33270, Note_on_c, 1, 72, 127
1, 33294, Note_off_c, 1, 72, 0
1, 33300, Note_on_c, 1, 74, 127
1, 33324, Note_off_c, 1, 74, 0
1, 33330, Note_on_c, 1, 75, 127
1, 33336, Note_off_c, 1, 58, 0
1, 33354, Note_off_c, 1, 75, 0
1, 33360, Note_on_c, 1, 77, 127
1, 33360, Note_on_c, 1, 50, 127
1, 33408, Note_off_c, 1, 77, 0
1, 33420, Note_on_c, 1, 74, 127
1, 33450, Note_off_c, 1, 74, 0
1, 33456, Note_off_c, 1, 50, 0
1, 33480, Note_on_c, 1, 70, 127
1, 33480, Note_on_c, 1, 50, 127
1, 33510, Note_off_c, 1, 70, 0
1, 33540, Note_on_c, 1, 68, 127
1, 33570, Note_off_c, 1, 68, 0
1, 33576, Note_off_c, 1, 50, 0
1, 33600, Note_on_c, 1, 70, 127
1, 33600, Note_on_c, 1, 67, 127
1, 33600, Note_on_c, 1, 51, 127
1, 33696, Note_off_c, 1, 70, 0
1, 33720, Note_on_c, 1, 79, 127
1, 33792, Note_off_c, 1, 67, 0
1, 33792, Note_off_c, 1, 51, 0
1, 33816, Note_off_c, 1, 79, 0
1, 33840, Note_on_c, 1, 77, 127
1, 33840, Note_on_c, 1, 56, 127
1, 33936, Note_off_c, 1, 77, 0
1, 33960, Note_on_c, 1, 75, 127
1, 34032, Note_off_c, 1, 56, 0
1, 34056, Note_off_c, 1, 75, 0
1, 34080, Note_on_c, 1, 74, 127
1, 34080, Note_on_c, 1, 58, 127
1, 34104, Note_off_c, 1, 74, 0
1, 34110, Note_on_c, 1, 75, 127
1, 34134, Note_off_c, 1, 75, 0
1, 34140, Note_on_c, 1, 77, 127
1, 34176, Note_off_c, 1, 58, 0
1, 34188, Note_off_c, 1, 77, 0
1, 34200, Note_on_c, 1, 75, 127
1, 34200, Note_on_c, 1, 60, 127
1, 34272, Note_off_c, 1, 60, 0
1, 34392, Note_off_c, 1, 75, 0
1, 34440, Note_on_c, 1, 72, 127
1, 34440, Note_on_c, 1, 56, 127
1, 34536, Note_off_c, 1, 72, 0
1, 34560, Note_off_c, 1, 56, 0
1, 34560, Note_on_c, 1, 55, 127
1, 34620, Note_on_c, 1, 70, 127
1, 34656, Note_off_c, 1, 55, 0
1, 34668, Note_off_c, 1, 70, 0
1, 34680, Note_on_c, 1, 68, 127
1, 34680, Note_on_c, 1, 51, 127
1, 34728, Note_off_c, 1, 68, 0
1, 34740, Note_on_c, 1, 67, 127
1, 34776, Note_off_c, 1, 51, 0
1, 34788, Note_off_c, 1, 67, 0
1, 34800, Note_on_c, 1, 70, 127
1, 34800, Note_on_c, 1, 53, 127
1, 34848, Note_off_c, 1, 70, 0
1, 34860, Note_on_c, 1, 68, 127
1, 34884, Note_off_c, 1, 68, 0
1, 34896, Note_off_c, 1, 53, 0
1, 34920, Note_on_c, 1, 68, 127
1, 34920, Note_on_c, 1, 58, 127
1, 34936, Note_off_c, 1, 68, 0
1, 34940, Note_on_c, 1, 70, 127
1, 34956, Note_off_c, 1, 70, 0
1, 34980, Note_on_c, 1, 67, 127
1, 35004, Note_off_c, 1, 67, 0
1, 35016, Note_off_c, 1, 58, 0
1, 35040, Note_on_c, 1, 67, 127
1, 35040, Note_on_c, 1, 51, 127
1, 35088, Note_off_c, 1, 67, 0
1, 35100, Note_on_c, 1, 75, 127
1, 35136, Note_off_c, 1, 51, 0
1, 35136, Note_off_c, 1, 75, 0
1, 35160, Note_on_c, 1, 74, 127
1, 35160, Note_on_c, 1, 53, 127
1, 35196, Note_off_c, 1, 74, 0
1, 35220, Note_on_c, 1, 77, 127
1, 35232, Note_off_c, 1, 53, 0
1, 35256, Note_off_c, 1, 77, 0
1, 35280, Note_on_c, 1, 75, 127
1, 35280, Note_on_c, 1, 55, 127
1, 35352, Note_off_c, 1, 55, 0
1, 35376, Note_off_c, 1, 75, 0
1, 35400, Note_on_c, 1, 72, 127
1, 35400, Note_on_c, 1, 56, 127
1, 35496, Note_off_c, 1, 72, 0
1, 35496, Note_off_c, 1, 56, 0
1, 35520, Note_on_c, 1, 72, 127
1, 35520, Note_on_c, 1, 55, 127
1, 35568, Note_off_c, 1, 72, 0
1, 35580, Note_on_c, 1, 70, 127
1, 35616, Note_off_c, 1, 55, 0
1, 35628, Note_off_c, 1, 70, 0
1, 35640, Note_on_c, 1, 68, 127
1, 35640, Note_on_c, 1, 51, 127
1, 35688, Note_off_c, 1, 68, 0
1, 35700, Note_on_c, 1, 67, 127
1, 35736, Note_off_c, 1, 51, 0
1, 35748, Note_off_c, 1, 67, 0
1, 35760, Note_on_c, 1, 70, 127
1, 35760, Note_on_c, 1, 53, 127
1, 35808, Note_off_c, 1, 70, 0
1, 35820, Note_on_c, 1, 68, 127
1, 35844, Note_off_c, 1, 68, 0
1, 35856, Note_off_c, 1, 53, 0
1, 35880, Note_on_c, 1, 68, 127
1, 35880, Note_on_c, 1, 46, 127
1, 35896, Note_off_c, 1, 68, 0
1, 35900, Note_on_c, 1, 70, 127
1, 35916, Note_off_c, 1, 70, 0
1, 35940, Note_on_c, 1, 67, 127
1, 35964, Note_off_c, 1, 67, 0
1, 35976, Note_off_c, 1, 46, 0
1, 36000, Note_on_c, 1, 67, 127
1, 36000, Note_on_c, 1, 51, 127
1, 36060, Note_on_c, 1, 58, 127
1, 36096, Note_off_c, 1, 51, 0
1, 36108, Note_off_c, 1, 58, 0
1, 36120, Note_on_c, 1, 63, 127
1, 36120, Note_on_c, 1, 39, 127
1, 36168, Note_off_c, 1, 63, 0
1, 36216, Note_off_c, 1, 39, 0
1, 36228, Note_off_c, 1, 67, 0
1, 36240, Note_on_c, 1, 70, 127
1, 36240, Note_on_c, 1, 43, 127
1, 36288, Note_off_c, 1, 70, 0
1, 36300, Note_on_c, 1, 67, 127
1, 36336, Note_off_c, 1, 43, 0
1, 36348, Note_off_c, 1, 67, 0
1, 36360, Note_on_c, 1, 68, 127
1, 36360, Note_on_c, 1, 46, 127
1, 36408, Note_off_c, 1, 68, 0
1, 36420, Note_on_c, 1, 65, 127
1, 36456, Note_off_c, 1, 46, 0
1, 36468, Note_off_c, 1, 65, 0
1, 36480, Note_on_c, 1, 67, 127
1, 36480, Note_on_c, 1, 51, 127
1, 36528, Note_off_c, 1, 67, 0
1, 36540, Note_on_c, 1, 63, 127
1, 36576, Note_off_c, 1, 51, 0
1, 36588, Note_off_c, 1, 63, 0
1, 36600, Note_on_c, 1, 67, 127
1, 36600, Note_on_c, 1, 39, 127
1, 36648, Note_off_c, 1, 67, 0
1, 36660, Note_on_c, 1, 75, 127
1, 36696, Note_off_c, 1, 39, 0
1, 36708, Note_off_c, 1, 75, 0
1, 36720, Note_on_c, 1, 70, 127
1, 36720, Note_on_c, 1, 43, 127
1, 36768, Note_off_c, 1, 70, 0
1, 36780, Note_on_c, 1, 67, 127
1, 36816, Note_off_c, 1, 43, 0
1, 36828, Note_off_c, 1, 67, 0
1, 36840, Note_on_c, 1, 68, 127
1, 36840, Note_on_c, 1, 46, 127
1, 36888, Note_off_c, 1, 68, 0
1, 36900, Note_on_c, 1, 65, 127
1, 36936, Note_off_c, 1, 46, 0
1, 36948, Note_off_c, 1, 65, 0
1, 36960, Note_on_c, 1, 67, 127
1, 36960, Note_on_c, 1, 51, 127
1, 37020, Note_on_c, 1, 70, 127
1, 37032, Note_off_c, 1, 67, 0
1, 37056, Note_off_c, 1, 51, 0
1, 37068, Note_off_c, 1, 70, 0
1, 37080, Note_on_c, 1, 75, 127
1, 37080, Note_on_c, 1, 67, 127
1, 37080, Note_on_c, 1, 39, 127
1, 37128, Note_off_c, 1, 75, 0
1, 37128, Note_off_c, 1, 67, 0
1, 37140, Note_on_c, 1, 74, 127
1, 37140, Note_on_c, 1, 65, 127
1, 37176, Note_off_c, 1, 39, 0
1, 37188, Note_off_c, 1, 74, 0
1, 37188, Note_off_c, 1, 65, 0
1, 37200, Note_on_c, 1, 75, 127
1, 37200, Note_on_c, 1, 67, 127
1, 37260, Note_off_c, 1, 75, 0
1, 37260, Note_off_c, 1, 67, 0
1, 37260, Note_on_c, 1, 77, 127
1, 37260, Note_on_c, 1, 68, 127
1, 37302, Note_off_c, 1, 77, 0
1, 37302, Note_off_c, 1, 68, 0
1, 37320, Note_on_c, 1, 79, 127
1, 37320, Note_on_c, 1, 70, 127
1, 37362, Note_off_c, 1, 79, 0
1, 37362, Note_off_c, 1, 70, 0
1, 37380, Note_on_c, 1, 80, 127
1, 37380, Note_on_c, 1, 72, 127
1, 37422, Note_off_c, 1, 80, 0
1, 37422, Note_off_c, 1, 72, 0
1, 37440, Note_on_c, 1, 82, 127
1, 37440, Note_on_c, 1, 73, 127
1, 37500, Note_on_c, 1, 51, 127
1, 37524, Note_off_c, 1, 82, 0
1, 37524, Note_off_c, 1, 73, 0
1, 37548, Note_off_c, 1, 51, 0
1, 37560, Note_on_c, 1, 73, 127
1, 37560, Note_on_c, 1, 70, 127
1, 37560, Note_on_c, 1, 55, 127
1, 37608, Note_off_c, 1, 55, 0
1, 37620, Note_on_c, 1, 58, 127
1, 37668, Note_off_c, 1, 58, 0
1, 37680, Note_on_c, 1, 63, 127
1, 37728, Note_off_c, 1, 63, 0
1, 37752, Note_off_c, 1, 73, 0
1, 37752, Note_off_c, 1, 70, 0
1, 37800, Note_on_c, 1, 73, 127
1, 37800, Note_on_c, 1, 70, 127
1, 37800, Note_on_c, 1, 55, 127
1, 37848, Note_off_c, 1, 55, 0
1, 37860, Note_on_c, 1, 51, 127
1, 37896, Note_off_c, 1, 73, 0
1, 37896, Note_off_c, 1, 70, 0
1, 37908, Note_off_c, 1, 51, 0
1, 37920, Note_on_c, 1, 72, 127
1, 37920, Note_on_c, 1, 68, 127
1, 37920, Note_on_c, 1, 56, 127
1, 37968, Note_off_c, 1, 72, 0
1, 37980, Note_on_c, 1, 75, 127
1, 38016, Note_off_c, 1, 68, 0
1, 38016, Note_off_c, 1, 56, 0
1, 38028, Note_off_c, 1, 75, 0
1, 38040, Note_on_c, 1, 80, 127
1, 38040, Note_on_c, 1, 72, 127
1, 38040, Note_on_c, 1, 44, 127
1, 38088, Note_off_c, 1, 80, 0
1, 38088, Note_off_c, 1, 72, 0
1, 38100, Note_on_c, 1, 79, 127
1, 38100, Note_on_c, 1, 70, 127
1, 38136, Note_off_c, 1, 44, 0
1, 38148, Note_off_c, 1, 79, 0
1, 38148, Note_off_c, 1, 70, 0
1, 38160, Note_on_c, 1, 80, 127
1, 38160, Note_on_c, 1, 72, 127
1, 38160, Note_on_c, 1, 44, 127
1, 38208, Note_off_c, 1, 80, 0
1, 38220, Note_on_c, 1, 75, 127
1, 38256, Note_off_c, 1, 72, 0
1, 38256, Note_off_c, 1, 44, 0
1, 38268, Note_off_c, 1, 75, 0
1, 38280, Note_on_c, 1, 84, 127
1, 38280, Note_on_c, 1, 75, 127
1, 38280, Note_on_c, 1, 44, 127
1, 38328, Note_off_c, 1, 84, 0
1, 38328, Note_off_c, 1, 75, 0
1, 38340, Note_on_c, 1, 80, 127
1, 38340, Note_on_c, 1, 72, 127
1, 38376, Note_off_c, 1, 44, 0
1, 38388, Note_off_c, 1, 80, 0
1, 38388, Note_off_c, 1, 72, 0
1, 38400, Note_on_c, 1, 82, 127
1, 38400, Note_on_c, 1, 73, 127
1, 38400, Note_on_c, 1, 51, 127
1, 38448, Note_off_c, 1, 82, 0
1, 38448, Note_off_c, 1, 73, 0
1, 38460, Note_on_c, 1, 80, 127
1, 38460, Note_on_c, 1, 72, 127
1, 38496, Note_off_c, 1, 51, 0
1, 38508, Note_off_c, 1, 80, 0
1, 38508, Note_off_c, 1, 72, 0
1, 38520, Note_on_c, 1, 79, 127
1, 38520, Note_on_c, 1, 70, 127
1, 38520, Note_on_c, 1, 39, 127
1, 38568, Note_off_c, 1, 79, 0
1, 38568, Note_off_c, 1, 70, 0
1, 38580, Note_on_c, 1, 77, 127
1, 38580, Note_on_c, 1, 68, 127
1, 38616, Note_off_c, 1, 39, 0
1, 38628, Note_off_c, 1, 77, 0
1, 38628, Note_off_c, 1, 68, 0
1, 38640, Note_on_c, 1, 75, 127
1, 38640, Note_on_c, 1, 67, 127
1, 38640, Note_on_c, 1, 39, 127
1, 38688, Note_off_c, 1, 75, 0
1, 38688, Note_off_c, 1, 67, 0
1, 38700, Note_on_c, 1, 73, 127
1, 38700, Note_on_c, 1, 70, 127
1, 38736, Note_off_c, 1, 39, 0
1, 38748, Note_off_c, 1, 73, 0
1, 38748, Note_off_c, 1, 70, 0
1, 38760, Note_on_c, 1, 72, 127
1, 38760, Note_on_c, 1, 68, 127
1, 38760, Note_on_c, 1, 39, 127
1, 38808, Note_off_c, 1, 72, 0
1, 38808, Note_off_c, 1, 68, 0
1, 38820, Note_on_c, 1, 70, 127
1, 38820, Note_on_c, 1, 67, 127
1, 38856, Note_off_c, 1, 39, 0
1, 38868, Note_off_c, 1, 70, 0
1, 38868, Note_off_c, 1, 67, 0
1, 38880, Note_on_c, 1, 72, 127
1, 38880, Note_on_c, 1, 68, 127
1, 38880, Note_on_c, 1, 44, 127
1, 38928, Note_off_c, 1, 72, 0
1, 38940, Note_on_c, 1, 75, 127
1, 38976, Note_off_c, 1, 44, 0
1, 38988, Note_off_c, 1, 75, 0
1, 39000, Note_on_c, 1, 74, 127
1, 39048, Note_off_c, 1, 74, 0
1, 39072, Note_off_c, 1, 68, 0
1, 39120, Note_on_c, 1, 74, 127
1, 39120, Note_on_c, 1, 46, 127
1, 39168, Note_off_c, 1, 74, 0
1, 39180, Note_on_c, 1, 70, 127
1, 39216, Note_off_c, 1, 46, 0
1, 39228, Note_off_c, 1, 70, 0
1, 39240, Note_on_c, 1, 67, 127
1, 39240, Note_on_c, 1, 46, 127
1, 39288, Note_off_c, 1, 67, 0
1, 39300, Note_on_c, 1, 65, 127
1, 39336, Note_off_c, 1, 46, 0
1, 39348, Note_off_c, 1, 65, 0
1, 39360, Note_on_c, 1, 64, 127
1, 39360, Note_on_c, 1, 48, 127
1, 39420, Note_on_c, 1, 67, 127
1, 39456, Note_off_c, 1, 64, 0
1, 39468, Note_off_c, 1, 67, 0
1, 39480, Note_on_c, 1, 72, 127
1, 39528, Note_off_c, 1, 72, 0
1, 39540, Note_on_c, 1, 62, 127
1, 39540, Note_on_c, 1, 71, 127
1, 39552, Note_off_c, 1, 48, 0
1, 39588, Note_off_c, 1, 62, 0
1, 39588, Note_off_c, 1, 71, 0
1, 39600, Note_on_c, 1, 64, 127
1, 39600, Note_on_c, 1, 72, 127
1, 39648, Note_off_c, 1, 64, 0
1, 39648, Note_off_c, 1, 72, 0
1, 39660, Note_on_c, 1, 65, 127
1, 39660, Note_on_c, 1, 74, 127
1, 39708, Note_off_c, 1, 65, 0
1, 39708, Note_off_c, 1, 74, 0
1, 39720, Note_on_c, 1, 67, 127
1, 39720, Note_on_c, 1, 76, 127
1, 39768, Note_off_c, 1, 67, 0
1, 39768, Note_off_c, 1, 76, 0
1, 39780, Note_on_c, 1, 68, 127
1, 39780, Note_on_c, 1, 77, 127
1, 39828, Note_off_c, 1, 68, 0
1, 39828, Note_off_c, 1, 77, 0
1, 39840, Note_on_c, 1, 70, 127
1, 39840, Note_on_c, 1, 79, 127
1, 39900, Note_on_c, 1, 48, 127
1, 39936, Note_off_c, 1, 70, 0
1, 39936, Note_off_c, 1, 79, 0
1, 39948, Note_off_c, 1, 48, 0
1, 39960, Note_on_c, 1, 67, 127
1, 39960, Note_on_c, 1, 70, 127
1, 39960, Note_on_c, 1, 52, 127
1, 40008, Note_off_c, 1, 52, 0
1, 40020, Note_on_c, 1, 55, 127
1, 40068, Note_off_c, 1, 55, 0
1, 40080, Note_on_c, 1, 60, 127
1, 40128, Note_off_c, 1, 60, 0
1, 40152, Note_off_c, 1, 67, 0
1, 40152, Note_off_c, 1, 70, 0
1, 40200, Note_on_c, 1, 67, 127
1, 40200, Note_on_c, 1, 70, 127
1, 40200, Note_on_c, 1, 52, 127
1, 40248, Note_off_c, 1, 52, 0
1, 40260, Note_on_c, 1, 48, 127
1, 40296, Note_off_c, 1, 67, 0
1, 40296, Note_off_c, 1, 70, 0
1, 40308, Note_off_c, 1, 48, 0
1, 40320, Note_on_c, 1, 65, 127
1, 40320, Note_on_c, 1, 68, 127
1, 40320, Note_on_c, 1, 53, 127
1, 40368, Note_off_c, 1, 68, 0
1, 40380, Note_on_c, 1, 72, 127
1, 40416, Note_off_c, 1, 65, 0
1, 40416, Note_off_c, 1, 53, 0
1, 40428, Note_off_c, 1, 72, 0
1, 40440, Note_on_c, 1, 68, 127
1, 40440, Note_on_c, 1, 77, 127
1, 40440, Note_on_c, 1, 41, 127
1, 40488, Note_off_c, 1, 68, 0
1, 40488, Note_off_c, 1, 77, 0
1, 40500, Note_on_c, 1, 67, 127
1, 40500, Note_on_c, 1, 76, 127
1, 40536, Note_off_c, 1, 41, 0
1, 40548, Note_off_c, 1, 67, 0
1, 40548, Note_off_c, 1, 76, 0
1, 40560, Note_on_c, 1, 68, 127
1, 40560, Note_on_c, 1, 77, 127
1, 40560, Note_on_c, 1, 41, 127
1, 40608, Note_off_c, 1, 77, 0
1, 40620, Note_on_c, 1, 72, 127
1, 40656, Note_off_c, 1, 68, 0
1, 40656, Note_off_c, 1, 41, 0
1, 40668, Note_off_c, 1, 72, 0
1, 40680, Note_on_c, 1, 72, 127
1, 40680, Note_on_c, 1, 80, 127
1, 40680, Note_on_c, 1, 41, 127
1, 40728, Note_off_c, 1, 72, 0
1, 40728, Note_off_c, 1, 80, 0
1, 40740, Note_on_c, 1, 68, 127
1, 40740, Note_on_c, 1, 77, 127
1, 40776, Note_off_c, 1, 41, 0
1, 40788, Note_off_c, 1, 68, 0
1, 40788, Note_off_c, 1, 77, 0
1, 40800, Note_on_c, 1, 70, 127
1, 40800, Note_on_c, 1, 79, 127
1, 40800, Note_on_c, 1, 48, 127
1, 40848, Note_off_c, 1, 70, 0
1, 40848, Note_off_c, 1, 79, 0
1, 40860, Note_on_c, 1, 68, 127
1, 40860, Note_on_c, 1, 77, 127
1, 40896, Note_off_c, 1, 48, 0
1, 40908, Note_off_c, 1, 68, 0
1, 40908, Note_off_c, 1, 77, 0
1, 40920, Note_on_c, 1, 67, 127
1, 40920, Note_on_c, 1, 76, 127
1, 40920, Note_on_c, 1, 48, 127
1, 40968, Note_off_c, 1, 67, 0
1, 40968, Note_off_c, 1, 76, 0
1, 40980, Note_on_c, 1, 65, 127
1, 40980, Note_on_c, 1, 74, 127
1, 41016, Note_off_c, 1, 48, 0
1, 41028, Note_off_c, 1, 65, 0
1, 41028, Note_off_c, 1, 74, 0
1, 41040, Note_on_c, 1, 64, 127
1, 41040, Note_on_c, 1, 72, 127
1, 41040, Note_on_c, 1, 48, 127
1, 41088, Note_off_c, 1, 64, 0
1, 41088, Note_off_c, 1, 72, 0
1, 41100, Note_on_c, 1, 67, 127
1, 41100, Note_on_c, 1, 70, 127
1, 41136, Note_off_c, 1, 48, 0
1, 41148, Note_off_c, 1, 67, 0
1, 41148, Note_off_c, 1, 70, 0
1, 41160, Note_on_c, 1, 65, 127
1, 41160, Note_on_c, 1, 68, 127
1, 41160, Note_on_c, 1, 48, 127
1, 41208, Note_off_c, 1, 65, 0
1, 41208, Note_off_c, 1, 68, 0
1, 41220, Note_on_c, 1, 64, 127
1, 41220, Note_on_c, 1, 67, 127
1, 41256, Note_off_c, 1, 48, 0
1, 41268, Note_off_c, 1, 64, 0
1, 41268, Note_off_c, 1, 67, 0
1, 41280, Note_on_c, 1, 65, 127
1, 41280, Note_on_c, 1, 68, 127
1, 41280, Note_on_c, 1, 53, 127
1, 41328, Note_off_c, 1, 68, 0
1, 41340, Note_on_c, 1, 72, 127
1, 41376, Note_off_c, 1, 65, 0
1, 41376, Note_off_c, 1, 53, 0
1, 41388, Note_off_c, 1, 72, 0
1, 41400, Note_on_c, 1, 68, 127
1, 41400, Note_on_c, 1, 77, 127
1, 41400, Note_on_c, 1, 41, 127
1, 41448, Note_off_c, 1, 68, 0
1, 41448, Note_off_c, 1, 77, 0
1, 41460, Note_on_c, 1, 67, 127
1, 41460, Note_on_c, 1, 76, 127
1, 41496, Note_off_c, 1, 41, 0
1, 41508, Note_off_c, 1, 67, 0
1, 41508, Note_off_c, 1, 76, 0
1, 41520, Note_on_c, 1, 68, 127
1, 41520, Note_on_c, 1, 77, 127
1, 41568, Note_off_c, 1, 68, 0
1, 41568, Note_off_c, 1, 77, 0
1, 41580, Note_on_c, 1, 70, 127
1, 41580, Note_on_c, 1, 79, 127
1, 41628, Note_off_c, 1, 70, 0
1, 41628, Note_off_c, 1, 79, 0
1, 41640, Note_on_c, 1, 72, 127
1, 41640, Note_on_c, 1, 80, 127
1, 41640, Note_on_c, 1, 53, 127
1, 41688, Note_off_c, 1, 72, 0
1, 41688, Note_off_c, 1, 80, 0
1, 41700, Note_on_c, 1, 68, 127
1, 41700, Note_on_c, 1, 77, 127
1, 41736, Note_off_c, 1, 53, 0
1, 41748, Note_off_c, 1, 68, 0
1, 41748, Note_off_c, 1, 77, 0
1, 41760, Note_on_c, 1, 65, 127
1, 41760, Note_on_c, 1, 74, 127
1, 41760, Note_on_c, 1, 46, 127
1, 41808, Note_off_c, 1, 74, 0
1, 41820, Note_on_c, 1, 70, 127
1, 41856, Note_off_c, 1, 65, 0
1, 41856, Note_off_c, 1, 46, 0
1, 41868, Note_off_c, 1, 70, 0
1, 41880, Note_on_c, 1, 74, 127
1, 41880, Note_on_c, 1, 77, 127
1, 41880, Note_on_c, 1, 46, 127
1, 41928, Note_off_c, 1, 74, 0
1, 41928, Note_off_c, 1, 77, 0
1, 41940, Note_on_c, 1, 75, 127
1, 41976, Note_off_c, 1, 46, 0
1, 41988, Note_off_c, 1, 75, 0
1, 42000, Note_on_c, 1, 77, 127
1, 42000, Note_on_c, 1, 74, 127
1, 42000, Note_on_c, 1, 46, 127
1, 42048, Note_off_c, 1, 74, 0
1, 42060, Note_on_c, 1, 72, 127
1, 42096, Note_off_c, 1, 77, 0
1, 42096, Note_off_c, 1, 46, 0
1, 42108, Note_off_c, 1, 72, 0
1, 42120, Note_on_c, 1, 74, 127
1, 42120, Note_on_c, 1, 70, 127
1, 42120, Note_on_c, 1, 46, 127
1, 42168, Note_off_c, 1, 70, 0
1, 42180, Note_on_c, 1, 68, 127
1, 42216, Note_off_c, 1, 74, 0
1, 42216, Note_off_c, 1, 46, 0
1, 42228, Note_off_c, 1, 68, 0
1, 42240, Note_on_c, 1, 70, 127
1, 42240, Note_on_c, 1, 67, 127
1, 42240, Note_on_c, 1, 51, 127
1, 42288, Note_off_c, 1, 67, 0
1, 42336, Note_off_c, 1, 51, 0
1, 42348, Note_off_c, 1, 70, 0
1, 42360, Note_on_c, 1, 67, 127
1, 42360, Note_on_c, 1, 75, 127
1, 42360, Note_on_c, 1, 39, 127
1, 42408, Note_off_c, 1, 67, 0
1, 42408, Note_off_c, 1, 75, 0
1, 42420, Note_on_c, 1, 65, 127
1, 42420, Note_on_c, 1, 74, 127
1, 42456, Note_off_c, 1, 39, 0
1, 42468, Note_off_c, 1, 65, 0
1, 42468, Note_off_c, 1, 74, 0
1, 42480, Note_on_c, 1, 67, 127
1, 42480, Note_on_c, 1, 75, 127
1, 42528, Note_off_c, 1, 67, 0
1, 42528, Note_off_c, 1, 75, 0
1, 42540, Note_on_c, 1, 68, 127
1, 42540, Note_on_c, 1, 77, 127
1, 42588, Note_off_c, 1, 68, 0
1, 42588, Note_off_c, 1, 77, 0
1, 42600, Note_on_c, 1, 70, 127
1, 42600, Note_on_c, 1, 79, 127
1, 42600, Note_on_c, 1, 51, 127
1, 42648, Note_off_c, 1, 70, 0
1, 42648, Note_off_c, 1, 79, 0
1, 42660, Note_on_c, 1, 67, 127
1, 42660, Note_on_c, 1, 75, 127
1, 42696, Note_off_c, 1, 51, 0
1, 42708, Note_off_c, 1, 67, 0
1, 42708, Note_off_c, 1, 75, 0
1, 42720, Note_on_c, 1, 63, 127
1, 42720, Note_on_c, 1, 72, 127
1, 42720, Note_on_c, 1, 44, 127
1, 42768, Note_off_c, 1, 72, 0
1, 42780, Note_on_c, 1, 68, 127
1, 42816, Note_off_c, 1, 63, 0
1, 42816, Note_off_c, 1, 44, 0
1, 42828, Note_off_c, 1, 68, 0
1, 42840, Note_on_c, 1, 72, 127
1, 42840, Note_on_c, 1, 75, 127
1, 42840, Note_on_c, 1, 44, 127
1, 42888, Note_off_c, 1, 72, 0
1, 42888, Note_off_c, 1, 75, 0
1, 42900, Note_on_c, 1, 74, 127
1, 42936, Note_off_c, 1, 44, 0
1, 42948, Note_off_c, 1, 74, 0
1, 42960, Note_on_c, 1, 75, 127
1, 42960, Note_on_c, 1, 72, 127
1, 42960, Note_on_c, 1, 44, 127
1, 43008, Note_off_c, 1, 72, 0
1, 43020, Note_on_c, 1, 70, 127
1, 43056, Note_off_c, 1, 75, 0
1, 43056, Note_off_c, 1, 44, 0
1, 43068, Note_off_c, 1, 70, 0
1, 43080, Note_on_c, 1, 72, 127
1, 43080, Note_on_c, 1, 68, 127
1, 43080, Note_on_c, 1, 44, 127
1, 43128, Note_off_c, 1, 68, 0
1, 43140, Note_on_c, 1, 67, 127
1, 43176, Note_off_c, 1, 72, 0
1, 43176, Note_off_c, 1, 44, 0
1, 43188, Note_off_c, 1, 67, 0
1, 43200, Note_on_c, 1, 68, 127
1, 43200, Note_on_c, 1, 65, 127
1, 43200, Note_on_c, 1, 50, 127
1, 43248, Note_off_c, 1, 65, 0
1, 43296, Note_off_c, 1, 50, 0
1, 43308, Note_off_c, 1, 68, 0
1, 43320, Note_on_c, 1, 65, 127
1, 43320, Note_on_c, 1, 74, 127
1, 43320, Note_on_c, 1, 38, 127
1, 43368, Note_off_c, 1, 65, 0
1, 43368, Note_off_c, 1, 74, 0
1, 43380, Note_on_c, 1, 63, 127
1, 43380, Note_on_c, 1, 72, 127
1, 43416, Note_off_c, 1, 38, 0
1, 43428, Note_off_c, 1, 63, 0
1, 43428, Note_off_c, 1, 72, 0
1, 43440, Note_on_c, 1, 65, 127
1, 43440, Note_on_c, 1, 74, 127
1, 43488, Note_off_c, 1, 65, 0
1, 43488, Note_off_c, 1, 74, 0
1, 43500, Note_on_c, 1, 67, 127
1, 43500, Note_on_c, 1, 75, 127
1, 43548, Note_off_c, 1, 67, 0
1, 43548, Note_off_c, 1, 75, 0
1, 43560, Note_on_c, 1, 68, 127
1, 43560, Note_on_c, 1, 77, 127
1, 43560, Note_on_c, 1, 50, 127
1, 43608, Note_off_c, 1, 68, 0
1, 43608, Note_off_c, 1, 77, 0
1, 43620, Note_on_c, 1, 65, 127
1, 43620, Note_on_c, 1, 74, 127
1, 43656, Note_off_c, 1, 50, 0
1, 43668, Note_off_c, 1, 65, 0
1, 43668, Note_off_c, 1, 74, 0
1, 43680, Note_on_c, 1, 62, 127
1, 43680, Note_on_c, 1, 71, 127
1, 43680, Note_on_c, 1, 43, 127
1, 43728, Note_off_c, 1, 71, 0
1, 43740, Note_on_c, 1, 67, 127
1, 43776, Note_off_c, 1, 62, 0
1, 43776, Note_off_c, 1, 43, 0
1, 43788, Note_off_c, 1, 67, 0
1, 43800, Note_on_c, 1, 71, 127
1, 43800, Note_on_c, 1, 74, 127
1, 43800, Note_on_c, 1, 43, 127
1, 43848, Note_off_c, 1, 71, 0
1, 43848, Note_off_c, 1, 74, 0
1, 43860, Note_on_c, 1, 72, 127
1, 43896, Note_off_c, 1, 43, 0
1, 43908, Note_off_c, 1, 72, 0
1, 43920, Note_on_c, 1, 74, 127
1, 43920, Note_on_c, 1, 71, 127
1, 43920, Note_on_c, 1, 43, 127
1, 43968, Note_off_c, 1, 71, 0
1, 43980, Note_on_c, 1, 69, 127
1, 44016, Note_off_c, 1, 74, 0
1, 44016, Note_off_c, 1, 43, 0
1, 44028, Note_off_c, 1, 69, 0
1, 44040, Note_on_c, 1, 71, 127
1, 44040, Note_on_c, 1, 67, 127
1, 44040, Note_on_c, 1, 43, 127
1, 44088, Note_off_c, 1, 67, 0
1, 44100, Note_on_c, 1, 65, 127
1, 44136, Note_off_c, 1, 71, 0
1, 44136, Note_off_c, 1, 43, 0
1, 44148, Note_off_c, 1, 65, 0
1, 44160, Note_on_c, 1, 72, 127
1, 44160, Note_on_c, 1, 63, 127
1, 44160, Note_on_c, 1, 48, 127
1, 44208, Note_off_c, 1, 63, 0
1, 44220, Note_on_c, 1, 67, 127
1, 44256, Note_off_c, 1, 72, 0
1, 44256, Note_off_c, 1, 48, 0
1, 44268, Note_off_c, 1, 67, 0
1, 44280, Note_on_c, 1, 72, 127
1, 44280, Note_on_c, 1, 68, 127
1, 44280, Note_on_c, 1, 53, 127
1, 44328, Note_off_c, 1, 68, 0
1, 44340, Note_on_c, 1, 65, 127
1, 44376, Note_off_c, 1, 53, 0
1, 44388, Note_off_c, 1, 65, 0
1, 44400, Note_on_c, 1, 67, 127
1, 44400, Note_on_c, 1, 51, 127
1, 44448, Note_off_c, 1, 67, 0
1, 44496, Note_off_c, 1, 51, 0
1, 44508, Note_off_c, 1, 72, 0
1, 44520, Note_on_c, 1, 71, 127
1, 44520, Note_on_c, 1, 65, 127
1, 44520, Note_on_c, 1, 50, 127
1, 44568, Note_off_c, 1, 65, 0
1, 44580, Note_on_c, 1, 62, 127
1, 44616, Note_off_c, 1, 71, 0
1, 44616, Note_off_c, 1, 50, 0
1, 44628, Note_off_c, 1, 62, 0
1, 44640, Note_on_c, 1, 72, 127
1, 44640, Note_on_c, 1, 63, 127
1, 44640, Note_on_c, 1, 48, 127
1, 44688, Note_off_c, 1, 72, 0
1, 44700, Note_on_c, 1, 79, 127
1, 44736, Note_off_c, 1, 63, 0
1, 44736, Note_off_c, 1, 48, 0
1, 44748, Note_off_c, 1, 79, 0
1, 44760, Note_on_c, 1, 80, 127
1, 44760, Note_on_c, 1, 72, 127
1, 44760, Note_on_c, 1, 53, 127
1, 44808, Note_off_c, 1, 80, 0
1, 44820, Note_on_c, 1, 77, 127
1, 44856, Note_off_c, 1, 53, 0
1, 44868, Note_off_c, 1, 77, 0
1, 44880, Note_on_c, 1, 79, 127
1, 44880, Note_on_c, 1, 51, 127
1, 44928, Note_off_c, 1, 79, 0
1, 44940, Note_on_c, 1, 84, 127
1, 44952, Note_off_c, 1, 72, 0
1, 44976, Note_off_c, 1, 51, 0
1, 44988, Note_off_c, 1, 84, 0
1, 45000, Note_on_c, 1, 77, 127
1, 45000, Note_on_c, 1, 71, 127
1, 45000, Note_on_c, 1, 50, 127
1, 45048, Note_off_c, 1, 77, 0
1, 45060, Note_on_c, 1, 74, 127
1, 45096, Note_off_c, 1, 71, 0
1, 45096, Note_off_c, 1, 50, 0
1, 45108, Note_off_c, 1, 74, 0
1, 45120, Note_on_c, 1, 75, 127
1, 45120, Note_on_c, 1, 72, 127
1, 45120, Note_on_c, 1, 48, 127
1, 45168, Note_off_c, 1, 75, 0
1, 45168, Note_off_c, 1, 72, 0
1, 45180, Note_on_c, 1, 84, 127
1, 45180, Note_on_c, 1, 80, 127
1, 45228, Note_off_c, 1, 84, 0
1, 45228, Note_off_c, 1, 80, 0
1, 45240, Note_on_c, 1, 82, 127
1, 45240, Note_on_c, 1, 79, 127
1, 45288, Note_off_c, 1, 82, 0
1, 45288, Note_off_c, 1, 79, 0
1, 45300, Note_on_c, 1, 77, 127
1, 45312, Note_off_c, 1, 48, 0
1, 45348, Note_off_c, 1, 77, 0
1, 45360, Note_on_c, 1, 79, 127
1, 45360, Note_on_c, 1, 75, 127
1, 45456, Note_off_c, 1, 79, 0
1, 45456, Note_off_c, 1, 75, 0
1, 45480, Note_on_c, 1, 77, 127
1, 45480, Note_on_c, 1, 74, 127
1, 45480, Note_on_c, 1, 53, 127
1, 45576, Note_off_c, 1, 77, 0
1, 45576, Note_off_c, 1, 74, 0
1, 45576, Note_off_c, 1, 53, 0
1, 45600, Note_on_c, 1, 75, 127
1, 45600, Note_on_c, 1, 72, 127
1, 45600, Note_on_c, 1, 55, 127
1, 45696, Note_off_c, 1, 55, 0
1, 45720, Note_on_c, 1, 53, 127
1, 45744, Note_off_c, 1, 75, 0
1, 45744, Note_off_c, 1, 72, 0
1, 45816, Note_off_c, 1, 53, 0
1, 45840, Note_on_c, 1, 74, 127
1, 45840, Note_on_c, 1, 71, 127
1, 45840, Note_on_c, 1, 55, 127
1, 45864, Note_off_c, 1, 74, 0
1, 45864, Note_off_c, 1, 71, 0
1, 45870, Note_on_c, 1, 75, 127
1, 45870, Note_on_c, 1, 72, 127
1, 45894, Note_off_c, 1, 75, 0
1, 45894, Note_off_c, 1, 72, 0
1, 45936, Note_off_c, 1, 55, 0
1, 45940, Note_on_c, 1, 74, 127
1, 45940, Note_on_c, 1, 71, 127
1, 45960, Note_on_c, 1, 43, 127
1, 46008, Note_off_c, 1, 74, 0
1, 46008, Note_off_c, 1, 71, 0
1, 46020, Note_on_c, 1, 72, 127
1, 46056, Note_off_c, 1, 43, 0
1, 46068, Note_off_c, 1, 72, 0
1, 46080, Note_on_c, 1, 72, 127
1, 46080, Note_on_c, 1, 48, 127
1, 46140, Note_on_c, 1, 79, 127
1, 46176, Note_off_c, 1, 48, 0
1, 46188, Note_off_c, 1, 79, 0
1, 46200, Note_on_c, 1, 84, 127
1, 46200, Note_on_c, 1, 51, 127
1, 46248, Note_off_c, 1, 51, 0
1, 46260, Note_on_c, 1, 50, 127
1, 46272, Note_off_c, 1, 72, 0
1, 46308, Note_off_c, 1, 50, 0
1, 46392, Note_off_c, 1, 84, 0
1, 46440, Note_on_c, 1, 82, 127
1, 46440, Note_on_c, 1, 50, 127
1, 46488, Note_off_c, 1, 50, 0
1, 46500, Note_on_c, 1, 52, 127
1, 46548, Note_off_c, 1, 52, 0
1, 46560, Note_on_c, 1, 53, 127
1, 46608, Note_off_c, 1, 82, 0
1, 46620, Note_on_c, 1, 81, 127
1, 46656, Note_off_c, 1, 53, 0
1, 46668, Note_off_c, 1, 81, 0
1, 46680, Note_on_c, 1, 84, 127
1, 46680, Note_on_c, 1, 53, 127
1, 46728, Note_off_c, 1, 84, 0
1, 46740, Note_on_c, 1, 82, 127
1, 46776, Note_off_c, 1, 53, 0
1, 46788, Note_off_c, 1, 82, 0
1, 46800, Note_on_c, 1, 81, 127
1, 46800, Note_on_c, 1, 55, 127
1, 46848, Note_off_c, 1, 81, 0
1, 46860, Note_on_c, 1, 79, 127
1, 46896, Note_off_c, 1, 55, 0
1, 46908, Note_off_c, 1, 79, 0
1, 46920, Note_on_c, 1, 77, 127
1, 46920, Note_on_c, 1, 57, 127
1, 46968, Note_off_c, 1, 77, 0
1, 46980, Note_on_c, 1, 75, 127
1, 47016, Note_off_c, 1, 57, 0
1, 47028, Note_off_c, 1, 75, 0
1, 47040, Note_on_c, 1, 74, 127
1, 47040, Note_on_c, 1, 58, 127
1, 47088, Note_off_c, 1, 74, 0
1, 47100, Note_on_c, 1, 77, 127
1, 47136, Note_off_c, 1, 58, 0
1, 47148, Note_off_c, 1, 77, 0
1, 47160, Note_on_c, 1, 82, 127
1, 47160, Note_on_c, 1, 50, 127
1, 47208, Note_off_c, 1, 50, 0
1, 47220, Note_on_c, 1, 48, 127
1, 47268, Note_off_c, 1, 48, 0
1, 47340, Note_on_c, 1, 46, 127
1, 47352, Note_off_c, 1, 82, 0
1, 47388, Note_off_c, 1, 46, 0
1, 47400, Note_on_c, 1, 80, 127
1, 47400, Note_on_c, 1, 48, 127
1, 47448, Note_off_c, 1, 48, 0
1, 47460, Note_on_c, 1, 50, 127
1, 47508, Note_off_c, 1, 50, 0
1, 47520, Note_on_c, 1, 51, 127
1, 47568, Note_off_c, 1, 80, 0
1, 47580, Note_on_c, 1, 79, 127
1, 47616, Note_off_c, 1, 51, 0
1, 47628, Note_off_c, 1, 79, 0
1, 47640, Note_on_c, 1, 82, 127
1, 47640, Note_on_c, 1, 51, 127
1, 47688, Note_off_c, 1, 82, 0
1, 47700, Note_on_c, 1, 80, 127
1, 47736, Note_off_c, 1, 51, 0
1, 47748, Note_off_c, 1, 80, 0
1, 47760, Note_on_c, 1, 79, 127
1, 47760, Note_on_c, 1, 53, 127
1, 47808, Note_off_c, 1, 79, 0
1, 47820, Note_on_c, 1, 77, 127
1, 47856, Note_off_c, 1, 53, 0
1, 47868, Note_off_c, 1, 77, 0
1, 47880, Note_on_c, 1, 75, 127
1, 47880, Note_on_c, 1, 55, 127
1, 47928, Note_off_c, 1, 75, 0
1, 47940, Note_on_c, 1, 74, 127
1, 47976, Note_off_c, 1, 55, 0
1, 47988, Note_off_c, 1, 74, 0
1, 48000, Note_on_c, 1, 72, 127
1, 48000, Note_on_c, 1, 56, 127
1, 48048, Note_off_c, 1, 72, 0
1, 48060, Note_on_c, 1, 80, 127
1, 48096, Note_off_c, 1, 56, 0
1, 48108, Note_off_c, 1, 80, 0
1, 48120, Note_on_c, 1, 80, 127
1, 48120, Note_on_c, 1, 53, 127
1, 48168, Note_off_c, 1, 80, 0
1, 48180, Note_on_c, 1, 79, 127
1, 48216, Note_off_c, 1, 53, 0
1, 48228, Note_off_c, 1, 79, 0
1, 48240, Note_on_c, 1, 79, 127
1, 48288, Note_off_c, 1, 79, 0
1, 48300, Note_on_c, 1, 77, 127
1, 48348, Note_off_c, 1, 77, 0
1, 48360, Note_on_c, 1, 72, 127
1, 48360, Note_on_c, 1, 57, 127
1, 48408, Note_off_c, 1, 72, 0
1, 48420, Note_on_c, 1, 75, 127
1, 48456, Note_off_c, 1, 57, 0
1, 48468, Note_off_c, 1, 75, 0
1, 48480, Note_on_c, 1, 74, 127
1, 48480, Note_on_c, 1, 58, 127
1, 48528, Note_off_c, 1, 74, 0
1, 48540, Note_on_c, 1, 82, 127
1, 48576, Note_off_c, 1, 58, 0
1, 48588, Note_off_c, 1, 82, 0
1, 48600, Note_on_c, 1, 82, 127
1, 48600, Note_on_c, 1, 55, 127
1, 48648, Note_off_c, 1, 82, 0
1, 48660, Note_on_c, 1, 80, 127
1, 48696, Note_off_c, 1, 55, 0
1, 48708, Note_off_c, 1, 80, 0
1, 48720, Note_on_c, 1, 80, 127
1, 48768, Note_off_c, 1, 80, 0
1, 48780, Note_on_c, 1, 79, 127
1, 48828, Note_off_c, 1, 79, 0
1, 48840, Note_on_c, 1, 74, 127
1, 48840, Note_on_c, 1, 59, 127
1, 48888, Note_off_c, 1, 74, 0
1, 48900, Note_on_c, 1, 77, 127
1, 48936, Note_off_c, 1, 59, 0
1, 48948, Note_off_c, 1, 77, 0
1, 48960, Note_on_c, 1, 75, 127
1, 48960, Note_on_c, 1, 60, 127
1, 49008, Note_off_c, 1, 75, 0
1, 49020, Note_on_c, 1, 84, 127
1, 49056, Note_off_c, 1, 60, 0
1, 49068, Note_off_c, 1, 84, 0
1, 49080, Note_on_c, 1, 84, 127
1, 49080, Note_on_c, 1, 56, 127
1, 49128, Note_off_c, 1, 84, 0
1, 49128, Note_off_c, 1, 56, 0
1, 49140, Note_on_c, 1, 82, 127
1, 49140, Note_on_c, 1, 58, 127
1, 49188, Note_off_c, 1, 82, 0
1, 49188, Note_off_c, 1, 58, 0
1, 49200, Note_on_c, 1, 80, 127
1, 49200, Note_on_c, 1, 60, 127
1, 49248, Note_off_c, 1, 80, 0
1, 49260, Note_on_c, 1, 79, 127
1, 49296, Note_off_c, 1, 60, 0
1, 49308, Note_off_c, 1, 79, 0
1, 49320, Note_on_c, 1, 77, 127
1, 49320, Note_on_c, 1, 56, 127
1, 49368, Note_off_c, 1, 77, 0
1, 49380, Note_on_c, 1, 75, 127
1, 49416, Note_off_c, 1, 56, 0
1, 49428, Note_off_c, 1, 75, 0
1, 49440, Note_on_c, 1, 74, 127
1, 49440, Note_on_c, 1, 58, 127
1, 49488, Note_off_c, 1, 74, 0
1, 49500, Note_on_c, 1, 77, 127
1, 49536, Note_off_c, 1, 58, 0
1, 49548, Note_off_c, 1, 77, 0
1, 49560, Note_on_c, 1, 77, 127
1, 49560, Note_on_c, 1, 46, 127
1, 49608, Note_off_c, 1, 77, 0
1, 49620, Note_on_c, 1, 75, 127
1, 49656, Note_off_c, 1, 46, 0
1, 49668, Note_off_c, 1, 75, 0
1, 49680, Note_on_c, 1, 74, 127
1, 49680, Note_on_c, 1, 48, 127
1, 49728, Note_off_c, 1, 74, 0
1, 49740, Note_on_c, 1, 72, 127
1, 49776, Note_off_c, 1, 48, 0
1, 49788, Note_off_c, 1, 72, 0
1, 49800, Note_on_c, 1, 70, 127
1, 49800, Note_on_c, 1, 50, 127
1, 49848, Note_off_c, 1, 70, 0
1, 49860, Note_on_c, 1, 68, 127
1, 49896, Note_off_c, 1, 50, 0
1, 49908, Note_off_c, 1, 68, 0
1, 49920, Note_on_c, 1, 67, 127
1, 49920, Note_on_c, 1, 51, 127
1, 49980, Note_on_c, 1, 58, 127
1, 50016, Note_off_c, 1, 67, 0
1, 50016, Note_off_c, 1, 51, 0
1, 50028, Note_off_c, 1, 58, 0
1, 50040, Note_on_c, 1, 63, 127
1, 50040, Note_on_c, 1, 39, 127
1, 50088, Note_off_c, 1, 63, 0
1, 50100, Note_on_c, 1, 67, 127
1, 50136, Note_off_c, 1, 39, 0
1, 50148, Note_off_c, 1, 67, 0
1, 50160, Note_on_c, 1, 70, 127
1, 50160, Note_on_c, 1, 43, 127
1, 50208, Note_off_c, 1, 70, 0
1, 50220, Note_on_c, 1, 67, 127
1, 50256, Note_off_c, 1, 43, 0
1, 50268, Note_off_c, 1, 67, 0
1, 50280, Note_on_c, 1, 68, 127
1, 50280, Note_on_c, 1, 46, 127
1, 50328, Note_off_c, 1, 68, 0
1, 50340, Note_on_c, 1, 65, 127
1, 50376, Note_off_c, 1, 46, 0
1, 50388, Note_off_c, 1, 65, 0
1, 50400, Note_on_c, 1, 67, 127
1, 50400, Note_on_c, 1, 51, 127
1, 50448, Note_off_c, 1, 67, 0
1, 50460, Note_on_c, 1, 63, 127
1, 50496, Note_off_c, 1, 51, 0
1, 50508, Note_off_c, 1, 63, 0
1, 50520, Note_on_c, 1, 67, 127
1, 50520, Note_on_c, 1, 39, 127
1, 50568, Note_off_c, 1, 67, 0
1, 50580, Note_on_c, 1, 75, 127
1, 50616, Note_off_c, 1, 39, 0
1, 50628, Note_off_c, 1, 75, 0
1, 50640, Note_on_c, 1, 70, 127
1, 50640, Note_on_c, 1, 43, 127
1, 50688, Note_off_c, 1, 70, 0
1, 50700, Note_on_c, 1, 67, 127
1, 50736, Note_off_c, 1, 43, 0
1, 50748, Note_off_c, 1, 67, 0
1, 50760, Note_on_c, 1, 68, 127
1, 50760, Note_on_c, 1, 46, 127
1, 50808, Note_off_c, 1, 68, 0
1, 50820, Note_on_c, 1, 65, 127
1, 50856, Note_off_c, 1, 46, 0
1, 50868, Note_off_c, 1, 65, 0
1, 50880, Note_on_c, 1, 67, 127
1, 50880, Note_on_c, 1, 51, 127
1, 50928, Note_off_c, 1, 67, 0
1, 50940, Note_on_c, 1, 63, 127
1, 50976, Note_off_c, 1, 51, 0
1, 50988, Note_off_c, 1, 63, 0
1, 51000, Note_on_c, 1, 67, 127
1, 51000, Note_on_c, 1, 51, 127
1, 51048, Note_off_c, 1, 67, 0
1, 51060, Note_on_c, 1, 70, 127
1, 51096, Note_off_c, 1, 51, 0
1, 51108, Note_off_c, 1, 70, 0
1, 51120, Note_on_c, 1, 72, 127
1, 51120, Note_on_c, 1, 51, 127
1, 51168, Note_off_c, 1, 72, 0
1, 51180, Note_on_c, 1, 68, 127
1, 51216, Note_off_c, 1, 51, 0
1, 51228, Note_off_c, 1, 68, 0
1, 51240, Note_on_c, 1, 75, 127
1, 51240, Note_on_c, 1, 51, 127
1, 51288, Note_off_c, 1, 75, 0
1, 51300, Note_on_c, 1, 72, 127
1, 51336, Note_off_c, 1, 51, 0
1, 51348, Note_off_c, 1, 72, 0
1, 51360, Note_on_c, 1, 70, 127
1, 51360, Note_on_c, 1, 51, 127
1, 51408, Note_off_c, 1, 70, 0
1, 51420, Note_on_c, 1, 63, 127
1, 51456, Note_off_c, 1, 51, 0
1, 51468, Note_off_c, 1, 63, 0
1, 51480, Note_on_c, 1, 67, 127
1, 51480, Note_on_c, 1, 39, 127
1, 51528, Note_off_c, 1, 67, 0
1, 51540, Note_on_c, 1, 63, 127
1, 51576, Note_off_c, 1, 39, 0
1, 51588, Note_off_c, 1, 63, 0
1, 51600, Note_on_c, 1, 70, 127
1, 51600, Note_on_c, 1, 39, 127
1, 51648, Note_off_c, 1, 70, 0
1, 51660, Note_on_c, 1, 67, 127
1, 51696, Note_off_c, 1, 39, 0
1, 51708, Note_off_c, 1, 67, 0
1, 51720, Note_on_c, 1, 75, 127
1, 51720, Note_on_c, 1, 39, 127
1, 51768, Note_off_c, 1, 75, 0
1, 51780, Note_on_c, 1, 70, 127
1, 51816, Note_off_c, 1, 39, 0
1, 51828, Note_off_c, 1, 70, 0
1, 51840, Note_on_c, 1, 68, 127
1, 51840, Note_on_c, 1, 46, 127
1, 51888, Note_off_c, 1, 68, 0
1, 51900, Note_on_c, 1, 58, 127
1, 51936, Note_off_c, 1, 46, 0
1, 51948, Note_off_c, 1, 58, 0
1, 51960, Note_on_c, 1, 62, 127
1, 51960, Note_on_c, 1, 46, 127
1, 52008, Note_off_c, 1, 62, 0
1, 52020, Note_on_c, 1, 65, 127
1, 52056, Note_off_c, 1, 46, 0
1, 52068, Note_off_c, 1, 65, 0
1, 52080, Note_on_c, 1, 68, 127
1, 52080, Note_on_c, 1, 46, 127
1, 52128, Note_off_c, 1, 68, 0
1, 52140, Note_on_c, 1, 65, 127
1, 52176, Note_off_c, 1, 46, 0
1, 52188, Note_off_c, 1, 65, 0
1, 52200, Note_on_c, 1, 77, 127
1, 52200, Note_on_c, 1, 46, 127
1, 52248, Note_off_c, 1, 77, 0
1, 52260, Note_on_c, 1, 68, 127
1, 52296, Note_off_c, 1, 46, 0
1, 52308, Note_off_c, 1, 68, 0
1, 52320, Note_on_c, 1, 67, 127
1, 52320, Note_on_c, 1, 51, 127
1, 52368, Note_off_c, 1, 67, 0
1, 52380, Note_on_c, 1, 63, 127
1, 52416, Note_off_c, 1, 51, 0
1, 52428, Note_off_c, 1, 63, 0
1, 52440, Note_on_c, 1, 65, 127
1, 52440, Note_on_c, 1, 39, 127
1, 52464, Note_off_c, 1, 65, 0
1, 52470, Note_on_c, 1, 63, 127
1, 52494, Note_off_c, 1, 63, 0
1, 52500, Note_on_c, 1, 62, 127
1, 52524, Note_off_c, 1, 62, 0
1, 52536, Note_off_c, 1, 39, 0
1, 52560, Note_on_c, 1, 67, 127
1, 52608, Note_off_c, 1, 67, 0
1, 52620, Note_on_c, 1, 63, 127
1, 52668, Note_off_c, 1, 63, 0
1, 52680, Note_on_c, 1, 70, 127
1, 52680, Note_on_c, 1, 55, 127
1, 52728, Note_off_c, 1, 70, 0
1, 52740, Note_on_c, 1, 63, 127
1, 52776, Note_off_c, 1, 55, 0
1, 52788, Note_off_c, 1, 63, 0
1, 52800, Note_on_c, 1, 72, 127
1, 52800, Note_on_c, 1, 56, 127
1, 52848, Note_off_c, 1, 72, 0
1, 52860, Note_on_c, 1, 63, 127
1, 52896, Note_off_c, 1, 56, 0
1, 52908, Note_off_c, 1, 63, 0
1, 52920, Note_on_c, 1, 72, 127
1, 52920, Note_on_c, 1, 68, 127
1, 52920, Note_on_c, 1, 56, 127
1, 52968, Note_off_c, 1, 68, 0
1, 52980, Note_on_c, 1, 63, 127
1, 53016, Note_off_c, 1, 72, 0
1, 53016, Note_off_c, 1, 56, 0
1, 53028, Note_off_c, 1, 63, 0
1, 53040, Note_on_c, 1, 72, 127
1, 53040, Note_on_c, 1, 56, 127
1, 53100, Note_on_c, 1, 68, 127
1, 53136, Note_off_c, 1, 72, 0
1, 53136, Note_off_c, 1, 56, 0
1, 53148, Note_off_c, 1, 68, 0
1, 53160, Note_on_c, 1, 72, 127
1, 53160, Note_on_c, 1, 75, 127
1, 53160, Note_on_c, 1, 56, 127
1, 53208, Note_off_c, 1, 75, 0
1, 53256, Note_off_c, 1, 56, 0
1, 53274, Note_off_c, 1, 72, 0
1, 53280, Note_on_c, 1, 72, 127
1, 53280, Note_on_c, 1, 80, 127
1, 53280, Note_on_c, 1, 53, 127
1, 53328, Note_off_c, 1, 80, 0
1, 53340, Note_on_c, 1, 82, 127
1, 53376, Note_off_c, 1, 72, 0
1, 53376, Note_off_c, 1, 53, 0
1, 53388, Note_off_c, 1, 82, 0
1, 53400, Note_on_c, 1, 77, 127
1, 53400, Note_on_c, 1, 80, 127
1, 53400, Note_on_c, 1, 53, 127
1, 53448, Note_off_c, 1, 77, 0
1, 53448, Note_off_c, 1, 80, 0
1, 53460, Note_on_c, 1, 79, 127
1, 53496, Note_off_c, 1, 53, 0
1, 53508, Note_off_c, 1, 79, 0
1, 53520, Note_on_c, 1, 80, 127
1, 53520, Note_on_c, 1, 77, 127
1, 53520, Note_on_c, 1, 53, 127
1, 53568, Note_off_c, 1, 77, 0
1, 53580, Note_on_c, 1, 75, 127
1, 53616, Note_off_c, 1, 80, 0
1, 53616, Note_off_c, 1, 53, 0
1, 53628, Note_off_c, 1, 75, 0
1, 53640, Note_on_c, 1, 77, 127
1, 53640, Note_on_c, 1, 74, 127
1, 53640, Note_on_c, 1, 53, 127
1, 53688, Note_off_c, 1, 74, 0
1, 53700, Note_on_c, 1, 72, 127
1, 53736, Note_off_c, 1, 77, 0
1, 53736, Note_off_c, 1, 53, 0
1, 53748, Note_off_c, 1, 72, 0
1, 53760, Note_on_c, 1, 70, 127
1, 53760, Note_on_c, 1, 55, 127
1, 53808, Note_off_c, 1, 70, 0
1, 53820, Note_on_c, 1, 62, 127
1, 53856, Note_off_c, 1, 55, 0
1, 53868, Note_off_c, 1, 62, 0
1, 53880, Note_on_c, 1, 70, 127
1, 53880, Note_on_c, 1, 67, 127
1, 53880, Note_on_c, 1, 55, 127
1, 53928, Note_off_c, 1, 67, 0
1, 53940, Note_on_c, 1, 62, 127
1, 53976, Note_off_c, 1, 70, 0
1, 53976, Note_off_c, 1, 55, 0
1, 53988, Note_off_c, 1, 62, 0
1, 54000, Note_on_c, 1, 70, 127
1, 54000, Note_on_c, 1, 55, 127
1, 54060, Note_on_c, 1, 67, 127
1, 54096, Note_off_c, 1, 70, 0
1, 54096, Note_off_c, 1, 55, 0
1, 54108, Note_off_c, 1, 67, 0
1, 54120, Note_on_c, 1, 70, 127
1, 54120, Note_on_c, 1, 74, 127
1, 54120, Note_on_c, 1, 55, 127
1, 54168, Note_off_c, 1, 74, 0
1, 54216, Note_off_c, 1, 55, 0
1, 54234, Note_off_c, 1, 70, 0
1, 54240, Note_on_c, 1, 70, 127
1, 54240, Note_on_c, 1, 79, 127
1, 54240, Note_on_c, 1, 51, 127
1, 54288, Note_off_c, 1, 79, 0
1, 54300, Note_on_c, 1, 80, 127
1, 54336, Note_off_c, 1, 70, 0
1, 54336, Note_off_c, 1, 51, 0
1, 54348, Note_off_c, 1, 80, 0
1, 54360, Note_on_c, 1, 75, 127
1, 54360, Note_on_c, 1, 79, 127
1, 54360, Note_on_c, 1, 51, 127
1, 54408, Note_off_c, 1, 75, 0
1, 54408, Note_off_c, 1, 79, 0
1, 54420, Note_on_c, 1, 77, 127
1, 54456, Note_off_c, 1, 51, 0
1, 54468, Note_off_c, 1, 77, 0
1, 54480, Note_on_c, 1, 79, 127
1, 54480, Note_on_c, 1, 75, 127
1, 54480, Note_on_c, 1, 51, 127
1, 54528, Note_off_c, 1, 75, 0
1, 54540, Note_on_c, 1, 74, 127
1, 54576, Note_off_c, 1, 79, 0
1, 54576, Note_off_c, 1, 51, 0
1, 54588, Note_off_c, 1, 74, 0
1, 54600, Note_on_c, 1, 75, 127
1, 54600, Note_on_c, 1, 72, 127
1, 54600, Note_on_c, 1, 51, 127
1, 54648, Note_off_c, 1, 72, 0
1, 54660, Note_on_c, 1, 70, 127
1, 54696, Note_off_c, 1, 75, 0
1, 54696, Note_off_c, 1, 51, 0
1, 54708, Note_off_c, 1, 70, 0
1, 54720, Note_on_c, 1, 68, 127
1, 54720, Note_on_c, 1, 53, 127
1, 54768, Note_off_c, 1, 68, 0
1, 54780, Note_on_c, 1, 65, 127
1, 54780, Note_on_c, 1, 60, 127
1, 54816, Note_off_c, 1, 53, 0
1, 54828, Note_off_c, 1, 65, 0
1, 54828, Note_off_c, 1, 60, 0
1, 54840, Note_on_c, 1, 68, 127
1, 54840, Note_on_c, 1, 65, 127
1, 54840, Note_on_c, 1, 53, 127
1, 54888, Note_off_c, 1, 68, 0
1, 54888, Note_off_c, 1, 65, 0
1, 54900, Note_on_c, 1, 67, 127
1, 54900, Note_on_c, 1, 60, 127
1, 54936, Note_off_c, 1, 53, 0
1, 54948, Note_off_c, 1, 67, 0
1, 54948, Note_off_c, 1, 60, 0
1, 54960, Note_on_c, 1, 65, 127
1, 54960, Note_on_c, 1, 68, 127
1, 54960, Note_on_c, 1, 53, 127
1, 55008, Note_off_c, 1, 65, 0
1, 55008, Note_off_c, 1, 68, 0
1, 55020, Note_on_c, 1, 67, 127
1, 55056, Note_off_c, 1, 53, 0
1, 55068, Note_off_c, 1, 67, 0
1, 55080, Note_on_c, 1, 68, 127
1, 55080, Note_on_c, 1, 72, 127
1, 55080, Note_on_c, 1, 53, 127
1, 55128, Note_off_c, 1, 72, 0
1, 55176, Note_off_c, 1, 53, 0
1, 55200, Note_on_c, 1, 77, 127
1, 55200, Note_on_c, 1, 50, 127
1, 55248, Note_off_c, 1, 77, 0
1, 55260, Note_on_c, 1, 79, 127
1, 55296, Note_off_c, 1, 68, 0
1, 55296, Note_off_c, 1, 50, 0
1, 55308, Note_off_c, 1, 79, 0
1, 55320, Note_on_c, 1, 74, 127
1, 55320, Note_on_c, 1, 77, 127
1, 55320, Note_on_c, 1, 50, 127
1, 55368, Note_off_c, 1, 74, 0
1, 55368, Note_off_c, 1, 77, 0
1, 55380, Note_on_c, 1, 75, 127
1, 55416, Note_off_c, 1, 50, 0
1, 55428, Note_off_c, 1, 75, 0
1, 55440, Note_on_c, 1, 77, 127
1, 55440, Note_on_c, 1, 74, 127
1, 55440, Note_on_c, 1, 50, 127
1, 55488, Note_off_c, 1, 74, 0
1, 55500, Note_on_c, 1, 72, 127
1, 55536, Note_off_c, 1, 77, 0
1, 55536, Note_off_c, 1, 50, 0
1, 55548, Note_off_c, 1, 72, 0
1, 55560, Note_on_c, 1, 74, 127
1, 55560, Note_on_c, 1, 70, 127
1, 55560, Note_on_c, 1, 50, 127
1, 55608, Note_off_c, 1, 70, 0
1, 55620, Note_on_c, 1, 68, 127
1, 55656, Note_off_c, 1, 74, 0
1, 55656, Note_off_c, 1, 50, 0
1, 55668, Note_off_c, 1, 68, 0
1, 55680, Note_on_c, 1, 70, 127
1, 55680, Note_on_c, 1, 67, 127
1, 55680, Note_on_c, 1, 51, 127
1, 55728, Note_off_c, 1, 70, 0
1, 55728, Note_off_c, 1, 67, 0
1, 55740, Note_on_c, 1, 74, 127
1, 55740, Note_on_c, 1, 65, 127
1, 55776, Note_off_c, 1, 51, 0
1, 55788, Note_off_c, 1, 74, 0
1, 55788, Note_off_c, 1, 65, 0
1, 55800, Note_on_c, 1, 75, 127
1, 55800, Note_on_c, 1, 67, 127
1, 55800, Note_on_c, 1, 39, 127
1, 55848, Note_off_c, 1, 75, 0
1, 55848, Note_off_c, 1, 67, 0
1, 55860, Note_on_c, 1, 77, 127
1, 55860, Note_on_c, 1, 68, 127
1, 55896, Note_off_c, 1, 39, 0
1, 55908, Note_off_c, 1, 77, 0
1, 55908, Note_off_c, 1, 68, 0
1, 55920, Note_on_c, 1, 79, 127
1, 55920, Note_on_c, 1, 70, 127
1, 55920, Note_on_c, 1, 39, 127
1, 55968, Note_off_c, 1, 79, 0
1, 55968, Note_off_c, 1, 70, 0
1, 55980, Note_on_c, 1, 80, 127
1, 55980, Note_on_c, 1, 68, 127
1, 56016, Note_off_c, 1, 39, 0
1, 56028, Note_off_c, 1, 80, 0
1, 56028, Note_off_c, 1, 68, 0
1, 56040, Note_on_c, 1, 82, 127
1, 56040, Note_on_c, 1, 67, 127
1, 56040, Note_on_c, 1, 39, 127
1, 56088, Note_off_c, 1, 82, 0
1, 56088, Note_off_c, 1, 67, 0
1, 56100, Note_on_c, 1, 79, 127
1, 56100, Note_on_c, 1, 70, 127
1, 56136, Note_off_c, 1, 39, 0
1, 56148, Note_off_c, 1, 79, 0
1, 56148, Note_off_c, 1, 70, 0
1, 56160, Note_on_c, 1, 84, 127
1, 56160, Note_on_c, 1, 68, 127
1, 56160, Note_on_c, 1, 44, 127
1, 56208, Note_off_c, 1, 84, 0
1, 56220, Note_on_c, 1, 85, 127
1, 56256, Note_off_c, 1, 68, 0
1, 56256, Note_off_c, 1, 44, 0
1, 56268, Note_off_c, 1, 85, 0
1, 56280, Note_on_c, 1, 84, 127
1, 56280, Note_on_c, 1, 75, 127
1, 56280, Note_on_c, 1, 56, 127
1, 56328, Note_off_c, 1, 84, 0
1, 56328, Note_off_c, 1, 75, 0
1, 56340, Note_on_c, 1, 82, 127
1, 56340, Note_on_c, 1, 73, 127
1, 56376, Note_off_c, 1, 56, 0
1, 56388, Note_off_c, 1, 82, 0
1, 56388, Note_off_c, 1, 73, 0
1, 56400, Note_on_c, 1, 80, 127
1, 56400, Note_on_c, 1, 72, 127
1, 56400, Note_on_c, 1, 56, 127
1, 56448, Note_off_c, 1, 80, 0
1, 56448, Note_off_c, 1, 72, 0
1, 56460, Note_on_c, 1, 79, 127
1, 56460, Note_on_c, 1, 70, 127
1, 56496, Note_off_c, 1, 56, 0
1, 56508, Note_off_c, 1, 79, 0
1, 56508, Note_off_c, 1, 70, 0
1, 56520, Note_on_c, 1, 77, 127
1, 56520, Note_on_c, 1, 68, 127
1, 56520, Note_on_c, 1, 56, 127
1, 56568, Note_off_c, 1, 77, 0
1, 56568, Note_off_c, 1, 68, 0
1, 56580, Note_on_c, 1, 75, 127
1, 56580, Note_on_c, 1, 67, 127
1, 56616, Note_off_c, 1, 56, 0
1, 56628, Note_off_c, 1, 75, 0
1, 56628, Note_off_c, 1, 67, 0
1, 56640, Note_on_c, 1, 74, 127
1, 56640, Note_on_c, 1, 65, 127
1, 56640, Note_on_c, 1, 58, 127
1, 56688, Note_off_c, 1, 74, 0
1, 56700, Note_on_c, 1, 77, 127
1, 56736, Note_off_c, 1, 65, 0
1, 56748, Note_off_c, 1, 77, 0
1, 56760, Note_on_c, 1, 82, 127
1, 56760, Note_on_c, 1, 70, 127
1, 56808, Note_off_c, 1, 82, 0
1, 56832, Note_off_c, 1, 58, 0
1, 56856, Note_off_c, 1, 70, 0
1, 56880, Note_on_c, 1, 74, 127
1, 56880, Note_on_c, 1, 82, 127
1, 56928, Note_off_c, 1, 74, 0
1, 56940, Note_on_c, 1, 70, 127
1, 56988, Note_off_c, 1, 70, 0
1, 57000, Note_on_c, 1, 77, 127
1, 57000, Note_on_c, 1, 56, 127
1, 57048, Note_off_c, 1, 77, 0
1, 57072, Note_off_c, 1, 82, 0
1, 57096, Note_off_c, 1, 56, 0
1, 57120, Note_on_c, 1, 75, 127
1, 57120, Note_on_c, 1, 55, 127
1, 57168, Note_off_c, 1, 75, 0
1, 57180, Note_on_c, 1, 79, 127
1, 57228, Note_off_c, 1, 79, 0
1, 57240, Note_on_c, 1, 82, 127
1, 57240, Note_on_c, 1, 70, 127
1, 57288, Note_off_c, 1, 82, 0
1, 57312, Note_off_c, 1, 55, 0
1, 57336, Note_off_c, 1, 70, 0
1, 57360, Note_on_c, 1, 75, 127
1, 57360, Note_on_c, 1, 82, 127
1, 57408, Note_off_c, 1, 75, 0
1, 57420, Note_on_c, 1, 70, 127
1, 57468, Note_off_c, 1, 70, 0
1, 57480, Note_on_c, 1, 79, 127
1, 57480, Note_on_c, 1, 51, 127
1, 57528, Note_off_c, 1, 79, 0
1, 57552, Note_off_c, 1, 82, 0
1, 57576, Note_off_c, 1, 51, 0
1, 57600, Note_on_c, 1, 77, 127
1, 57600, Note_on_c, 1, 50, 127
1, 57648, Note_off_c, 1, 77, 0
1, 57660, Note_on_c, 1, 81, 127
1, 57708, Note_off_c, 1, 81, 0
1, 57720, Note_on_c, 1, 82, 127
1, 57720, Note_on_c, 1, 70, 127
1, 57768, Note_off_c, 1, 82, 0
1, 57792, Note_off_c, 1, 50, 0
1, 57816, Note_off_c, 1, 70, 0
1, 57840, Note_on_c, 1, 74, 127
1, 57840, Note_on_c, 1, 77, 127
1, 57888, Note_off_c, 1, 74, 0
1, 57900, Note_on_c, 1, 70, 127
1, 57936, Note_off_c, 1, 77, 0
1, 57948, Note_off_c, 1, 70, 0
1, 57960, Note_on_c, 1, 80, 127
1, 57960, Note_on_c, 1, 74, 127
1, 57960, Note_on_c, 1, 46, 127
1, 58008, Note_off_c, 1, 80, 0
1, 58020, Note_on_c, 1, 77, 127
1, 58056, Note_off_c, 1, 74, 0
1, 58056, Note_off_c, 1, 46, 0
1, 58068, Note_off_c, 1, 77, 0
1, 58080, Note_on_c, 1, 79, 127
1, 58080, Note_on_c, 1, 75, 127
1, 58080, Note_on_c, 1, 51, 127
1, 58128, Note_off_c, 1, 75, 0
1, 58140, Note_on_c, 1, 70, 127
1, 58176, Note_off_c, 1, 79, 0
1, 58188, Note_off_c, 1, 70, 0
1, 58272, Note_off_c, 1, 51, 0
1, 58320, Note_on_c, 1, 75, 127
1, 58320, Note_on_c, 1, 67, 127
1, 58368, Note_off_c, 1, 67, 0
1, 58380, Note_on_c, 1, 63, 127
1, 58428, Note_off_c, 1, 63, 0
1, 58440, Note_on_c, 1, 70, 127
1, 58440, Note_on_c, 1, 49, 127
1, 58488, Note_off_c, 1, 70, 0
1, 58512, Note_off_c, 1, 75, 0
1, 58536, Note_off_c, 1, 49, 0
1, 58560, Note_on_c, 1, 68, 127
1, 58560, Note_on_c, 1, 48, 127
1, 58608, Note_off_c, 1, 68, 0
1, 58620, Note_on_c, 1, 72, 127
1, 58668, Note_off_c, 1, 72, 0
1, 58680, Note_on_c, 1, 63, 127
1, 58680, Note_on_c, 1, 75, 127
1, 58728, Note_off_c, 1, 75, 0
1, 58752, Note_off_c, 1, 48, 0
1, 58776, Note_off_c, 1, 63, 0
1, 58800, Note_on_c, 1, 75, 127
1, 58800, Note_on_c, 1, 68, 127
1, 58848, Note_off_c, 1, 68, 0
1, 58860, Note_on_c, 1, 63, 127
1, 58908, Note_off_c, 1, 63, 0
1, 58920, Note_on_c, 1, 72, 127
1, 58920, Note_on_c, 1, 44, 127
1, 58968, Note_off_c, 1, 72, 0
1, 58992, Note_off_c, 1, 75, 0
1, 59016, Note_off_c, 1, 44, 0
1, 59040, Note_on_c, 1, 70, 127
1, 59040, Note_on_c, 1, 43, 127
1, 59088, Note_off_c, 1, 70, 0
1, 59100, Note_on_c, 1, 74, 127
1, 59148, Note_off_c, 1, 74, 0
1, 59160, Note_on_c, 1, 63, 127
1, 59160, Note_on_c, 1, 75, 127
1, 59208, Note_off_c, 1, 75, 0
1, 59232, Note_off_c, 1, 43, 0
1, 59256, Note_off_c, 1, 63, 0
1, 59280, Note_on_c, 1, 70, 127
1, 59280, Note_on_c, 1, 67, 127
1, 59328, Note_off_c, 1, 67, 0
1, 59340, Note_on_c, 1, 63, 127
1, 59376, Note_off_c, 1, 70, 0
1, 59388, Note_off_c, 1, 63, 0
1, 59400, Note_on_c, 1, 67, 127
1, 59400, Note_on_c, 1, 73, 127
1, 59400, Note_on_c, 1, 39, 127
1, 59448, Note_off_c, 1, 73, 0
1, 59460, Note_on_c, 1, 70, 127
1, 59496, Note_off_c, 1, 67, 0
1, 59496, Note_off_c, 1, 39, 0
1, 59508, Note_off_c, 1, 70, 0
1, 59520, Note_on_c, 1, 68, 127
1, 59520, Note_on_c, 1, 72, 127
1, 59520, Note_on_c, 1, 44, 127
1, 59568, Note_off_c, 1, 72, 0
1, 59580, Note_on_c, 1, 74, 127
1, 59616, Note_off_c, 1, 44, 0
1, 59628, Note_off_c, 1, 74, 0
1, 59640, Note_on_c, 1, 75, 127
1, 59688, Note_off_c, 1, 75, 0
1, 59712, Note_off_c, 1, 68, 0
1, 59760, Note_on_c, 1, 72, 127
1, 59760, Note_on_c, 1, 44, 127
1, 59808, Note_off_c, 1, 72, 0
1, 59820, Note_on_c, 1, 70, 127
1, 59856, Note_off_c, 1, 44, 0
1, 59868, Note_off_c, 1, 70, 0
1, 59880, Note_on_c, 1, 68, 127
1, 59880, Note_on_c, 1, 44, 127
1, 59928, Note_off_c, 1, 68, 0
1, 59940, Note_on_c, 1, 67, 127
1, 59976, Note_off_c, 1, 44, 0
1, 59988, Note_off_c, 1, 67, 0
1, 60000, Note_on_c, 1, 72, 127
1, 60000, Note_on_c, 1, 68, 127
1, 60000, Note_on_c, 1, 44, 127
1, 60048, Note_off_c, 1, 72, 0
1, 60048, Note_off_c, 1, 68, 0
1, 60060, Note_on_c, 1, 74, 127
1, 60060, Note_on_c, 1, 70, 127
1, 60096, Note_off_c, 1, 44, 0
1, 60108, Note_off_c, 1, 74, 0
1, 60108, Note_off_c, 1, 70, 0
1, 60120, Note_on_c, 1, 75, 127
1, 60120, Note_on_c, 1, 72, 127
1, 60120, Note_on_c, 1, 44, 127
1, 60168, Note_off_c, 1, 75, 0
1, 60168, Note_off_c, 1, 72, 0
1, 60180, Note_on_c, 1, 74, 127
1, 60180, Note_on_c, 1, 70, 127
1, 60216, Note_off_c, 1, 44, 0
1, 60228, Note_off_c, 1, 74, 0
1, 60228, Note_off_c, 1, 70, 0
1, 60240, Note_on_c, 1, 72, 127
1, 60240, Note_on_c, 1, 68, 127
1, 60240, Note_on_c, 1, 44, 127
1, 60288, Note_off_c, 1, 72, 0
1, 60288, Note_off_c, 1, 68, 0
1, 60300, Note_on_c, 1, 70, 127
1, 60300, Note_on_c, 1, 67, 127
1, 60336, Note_off_c, 1, 44, 0
1, 60348, Note_off_c, 1, 70, 0
1, 60348, Note_off_c, 1, 67, 0
1, 60360, Note_on_c, 1, 68, 127
1, 60360, Note_on_c, 1, 65, 127
1, 60360, Note_on_c, 1, 44, 127
1, 60408, Note_off_c, 1, 68, 0
1, 60408, Note_off_c, 1, 65, 0
1, 60420, Note_on_c, 1, 67, 127
1, 60420, Note_on_c, 1, 63, 127
1, 60456, Note_off_c, 1, 44, 0
1, 60468, Note_off_c, 1, 67, 0
1, 60468, Note_off_c, 1, 63, 0
1, 60480, Note_on_c, 1, 65, 127
1, 60480, Note_on_c, 1, 62, 127
1, 60480, Note_on_c, 1, 46, 127
1, 60528, Note_off_c, 1, 62, 0
1, 60588, Note_off_c, 1, 65, 0
1, 60600, Note_on_c, 1, 77, 127
1, 60600, Note_on_c, 1, 68, 127
1, 60648, Note_off_c, 1, 77, 0
1, 60660, Note_on_c, 1, 74, 127
1, 60672, Note_off_c, 1, 46, 0
1, 60708, Note_off_c, 1, 74, 0
1, 60720, Note_on_c, 1, 70, 127
1, 60720, Note_on_c, 1, 50, 127
1, 60768, Note_off_c, 1, 68, 0
1, 60816, Note_off_c, 1, 70, 0
1, 60816, Note_off_c, 1, 50, 0
1, 60840, Note_on_c, 1, 70, 127
1, 60840, Note_on_c, 1, 67, 127
1, 60840, Note_on_c, 1, 51, 127
1, 60888, Note_off_c, 1, 67, 0
1, 60900, Note_on_c, 1, 63, 127
1, 60936, Note_off_c, 1, 51, 0
1, 60948, Note_off_c, 1, 63, 0
1, 60960, Note_on_c, 1, 62, 127
1, 60960, Note_on_c, 1, 46, 127
1, 61008, Note_off_c, 1, 70, 0
1, 61008, Note_off_c, 1, 62, 0
1, 61020, Note_on_c, 1, 74, 127
1, 61020, Note_on_c, 1, 65, 127
1, 61068, Note_off_c, 1, 74, 0
1, 61068, Note_off_c, 1, 65, 0
1, 61080, Note_on_c, 1, 77, 127
1, 61080, Note_on_c, 1, 68, 127
1, 61128, Note_off_c, 1, 77, 0
1, 61152, Note_off_c, 1, 46, 0
1, 61200, Note_on_c, 1, 50, 127
1, 61248, Note_off_c, 1, 68, 0
1, 61296, Note_off_c, 1, 50, 0
1, 61320, Note_on_c, 1, 70, 127
1, 61320, Note_on_c, 1, 67, 127
1, 61320, Note_on_c, 1, 51, 127
1, 61368, Note_off_c, 1, 67, 0
1, 61380, Note_on_c, 1, 63, 127
1, 61416, Note_off_c, 1, 51, 0
1, 61428, Note_off_c, 1, 63, 0
1, 61440, Note_on_c, 1, 62, 127
1, 61440, Note_on_c, 1, 46, 127
1, 61488, Note_off_c, 1, 70, 0
1, 61488, Note_off_c, 1, 62, 0
1, 61500, Note_on_c, 1, 69, 127
1, 61500, Note_on_c, 1, 60, 127
1, 61548, Note_off_c, 1, 69, 0
1, 61548, Note_off_c, 1, 60, 0
1, 61620, Note_on_c, 1, 72, 127
1, 61632, Note_off_c, 1, 46, 0
1, 61668, Note_off_c, 1, 72, 0
1, 61680, Note_on_c, 1, 74, 127
1, 61680, Note_on_c, 1, 65, 127
1, 61728, Note_off_c, 1, 74, 0
1, 61740, Note_on_c, 1, 75, 127
1, 61776, Note_off_c, 1, 65, 0
1, 61788, Note_off_c, 1, 75, 0
1, 61800, Note_on_c, 1, 77, 127
1, 61800, Note_on_c, 1, 74, 127
1, 61848, Note_off_c, 1, 77, 0
1, 61848, Note_off_c, 1, 74, 0
1, 61860, Note_on_c, 1, 79, 127
1, 61860, Note_on_c, 1, 75, 127
1, 61908, Note_off_c, 1, 79, 0
1, 61908, Note_off_c, 1, 75, 0
1, 61920, Note_on_c, 1, 80, 127
1, 61920, Note_on_c, 1, 77, 127
1, 61968, Note_off_c, 1, 80, 0
1, 61968, Note_off_c, 1, 77, 0
1, 61980, Note_on_c, 1, 79, 127
1, 61980, Note_on_c, 1, 75, 127
1, 62028, Note_off_c, 1, 79, 0
1, 62028, Note_off_c, 1, 75, 0
1, 62040, Note_on_c, 1, 77, 127
1, 62040, Note_on_c, 1, 74, 127
1, 62040, Note_on_c, 1, 58, 127
1, 62088, Note_off_c, 1, 77, 0
1, 62088, Note_off_c, 1, 74, 0
1, 62100, Note_on_c, 1, 75, 127
1, 62100, Note_on_c, 1, 72, 127
1, 62136, Note_off_c, 1, 58, 0
1, 62148, Note_off_c, 1, 75, 0
1, 62148, Note_off_c, 1, 72, 0
1, 62160, Note_on_c, 1, 74, 127
1, 62160, Note_on_c, 1, 70, 127
1, 62160, Note_on_c, 1, 46, 127
1, 62208, Note_off_c, 1, 74, 0
1, 62208, Note_off_c, 1, 70, 0
1, 62220, Note_on_c, 1, 72, 127
1, 62220, Note_on_c, 1, 68, 127
1, 62256, Note_off_c, 1, 46, 0
1, 62268, Note_off_c, 1, 72, 0
1, 62268, Note_off_c, 1, 68, 0
1, 62280, Note_on_c, 1, 70, 127
1, 62280, Note_on_c, 1, 67, 127
1, 62280, Note_on_c, 1, 58, 127
1, 62328, Note_off_c, 1, 70, 0
1, 62328, Note_off_c, 1, 67, 0
1, 62340, Note_on_c, 1, 68, 127
1, 62340, Note_on_c, 1, 65, 127
1, 62376, Note_off_c, 1, 58, 0
1, 62388, Note_off_c, 1, 68, 0
1, 62388, Note_off_c, 1, 65, 0
1, 62400, Note_on_c, 1, 67, 127
1, 62400, Note_on_c, 1, 63, 127
1, 62400, Note_on_c, 1, 51, 127
1, 62448, Note_off_c, 1, 67, 0
1, 62460, Note_on_c, 1, 70, 127
1, 62496, Note_off_c, 1, 63, 0
1, 62496, Note_off_c, 1, 51, 0
1, 62508, Note_off_c, 1, 70, 0
1, 62520, Note_on_c, 1, 72, 127
1, 62520, Note_on_c, 1, 63, 127
1, 62520, Note_on_c, 1, 56, 127
1, 62568, Note_off_c, 1, 72, 0
1, 62580, Note_on_c, 1, 68, 127
1, 62616, Note_off_c, 1, 56, 0
1, 62628, Note_off_c, 1, 68, 0
1, 62640, Note_on_c, 1, 70, 127
1, 62640, Note_on_c, 1, 55, 127
1, 62688, Note_off_c, 1, 70, 0
1, 62700, Note_on_c, 1, 75, 127
1, 62712, Note_off_c, 1, 63, 0
1, 62736, Note_off_c, 1, 55, 0
1, 62748, Note_off_c, 1, 75, 0
1, 62760, Note_on_c, 1, 68, 127
1, 62760, Note_on_c, 1, 62, 127
1, 62760, Note_on_c, 1, 53, 127
1, 62808, Note_off_c, 1, 68, 0
1, 62820, Note_on_c, 1, 65, 127
1, 62856, Note_off_c, 1, 62, 0
1, 62856, Note_off_c, 1, 53, 0
1, 62868, Note_off_c, 1, 65, 0
1, 62880, Note_on_c, 1, 67, 127
1, 62880, Note_on_c, 1, 63, 127
1, 62880, Note_on_c, 1, 51, 127
1, 62928, Note_off_c, 1, 63, 0
1, 62940, Note_on_c, 1, 70, 127
1, 62976, Note_off_c, 1, 67, 0
1, 62976, Note_off_c, 1, 51, 0
1, 62988, Note_off_c, 1, 70, 0
1, 63000, Note_on_c, 1, 63, 127
1, 63000, Note_on_c, 1, 72, 127
1, 63000, Note_on_c, 1, 56, 127
1, 63048, Note_off_c, 1, 72, 0
1, 63060, Note_on_c, 1, 68, 127
1, 63096, Note_off_c, 1, 56, 0
1, 63108, Note_off_c, 1, 68, 0
1, 63120, Note_on_c, 1, 70, 127
1, 63120, Note_on_c, 1, 55, 127
1, 63168, Note_off_c, 1, 70, 0
1, 63180, Note_on_c, 1, 75, 127
1, 63192, Note_off_c, 1, 63, 0
1, 63216, Note_off_c, 1, 55, 0
1, 63228, Note_off_c, 1, 75, 0
1, 63240, Note_on_c, 1, 62, 127
1, 63240, Note_on_c, 1, 68, 127
1, 63240, Note_on_c, 1, 53, 127
1, 63288, Note_off_c, 1, 68, 0
1, 63300, Note_on_c, 1, 65, 127
1, 63336, Note_off_c, 1, 62, 0
1, 63336, Note_off_c, 1, 53, 0
1, 63348, Note_off_c, 1, 65, 0
1, 63360, Note_on_c, 1, 63, 127
1, 63360, Note_on_c, 1, 67, 127
1, 63360, Note_on_c, 1, 51, 127
1, 63408, Note_off_c, 1, 63, 0
1, 63408, Note_off_c, 1, 67, 0
1, 63420, Note_on_c, 1, 62, 127
1, 63420, Note_on_c, 1, 65, 127
1, 63468, Note_off_c, 1, 62, 0
1, 63468, Note_off_c, 1, 65, 0
1, 63540, Note_on_c, 1, 68, 127
1, 63552, Note_off_c, 1, 51, 0
1, 63588, Note_off_c, 1, 68, 0
1, 63600, Note_on_c, 1, 67, 127
1, 63600, Note_on_c, 1, 70, 127
1, 63696, Note_off_c, 1, 67, 0
1, 63696, Note_off_c, 1, 70, 0
1, 63720, Note_on_c, 1, 65, 127
1, 63720, Note_on_c, 1, 68, 127
1, 63720, Note_on_c, 1, 56, 127
1, 63816, Note_off_c, 1, 65, 0
1, 63816, Note_off_c, 1, 68, 0
1, 63816, Note_off_c, 1, 56, 0
1, 63840, Note_on_c, 1, 63, 127
1, 63840, Note_on_c, 1, 67, 127
1, 63840, Note_on_c, 1, 58, 127
1, 63936, Note_off_c, 1, 58, 0
1, 63960, Note_on_c, 1, 56, 127
1, 63984, Note_off_c, 1, 63, 0
1, 63984, Note_off_c, 1, 67, 0
1, 64056, Note_off_c, 1, 56, 0
1, 64080, Note_on_c, 1, 62, 127
1, 64080, Note_on_c, 1, 65, 127
1, 64080, Note_on_c, 1, 58, 127
1, 64104, Note_off_c, 1, 62, 0
1, 64104, Note_off_c, 1, 65, 0
1, 64110, Note_on_c, 1, 63, 127
1, 64110, Note_on_c, 1, 67, 127
1, 64134, Note_off_c, 1, 63, 0
1, 64134, Note_off_c, 1, 67, 0
1, 64176, Note_off_c, 1, 58, 0
1, 64180, Note_on_c, 1, 62, 127
1, 64180, Note_on_c, 1, 65, 127
1, 64200, Note_on_c, 1, 46, 127
1, 64248, Note_off_c, 1, 62, 0
1, 64248, Note_off_c, 1, 65, 0
1, 64260, Note_on_c, 1, 63, 127
1, 64296, Note_off_c, 1, 46, 0
1, 64308, Note_off_c, 1, 63, 0
1, 64320, Note_on_c, 1, 63, 127
1, 64320, Note_on_c, 1, 51, 127
1, 64380, Note_on_c, 1, 70, 127
1, 64416, Note_off_c, 1, 51, 0
1, 64428, Note_off_c, 1, 70, 0
1, 64440, Note_on_c, 1, 72, 127
1, 64440, Note_on_c, 1, 56, 127
1, 64488, Note_off_c, 1, 72, 0
1, 64500, Note_on_c, 1, 68, 127
1, 64536, Note_off_c, 1, 56, 0
1, 64548, Note_off_c, 1, 68, 0
1, 64560, Note_on_c, 1, 55, 127
1, 64608, Note_off_c, 1, 63, 0
1, 64620, Note_on_c, 1, 75, 127
1, 64656, Note_off_c, 1, 55, 0
1, 64668, Note_off_c, 1, 75, 0
1, 64680, Note_on_c, 1, 62, 127
1, 64680, Note_on_c, 1, 68, 127
1, 64680, Note_on_c, 1, 53, 127
1, 64728, Note_off_c, 1, 68, 0
1, 64740, Note_on_c, 1, 65, 127
1, 64776, Note_off_c, 1, 62, 0
1, 64776, Note_off_c, 1, 53, 0
1, 64788, Note_off_c, 1, 65, 0
1, 64800, Note_on_c, 1, 63, 127
1, 64800, Note_on_c, 1, 67, 127
1, 64800, Note_on_c, 1, 51, 127
1, 64848, Note_off_c, 1, 63, 0
1, 64860, Note_on_c, 1, 70, 127
1, 64896, Note_off_c, 1, 67, 0
1, 64896, Note_off_c, 1, 51, 0
1, 64908, Note_off_c, 1, 70, 0
1, 64920, Note_on_c, 1, 72, 127
1, 64920, Note_on_c, 1, 63, 127
1, 64920, Note_on_c, 1, 56, 127
1, 64968, Note_off_c, 1, 72, 0
1, 64980, Note_on_c, 1, 68, 127
1, 65016, Note_off_c, 1, 56, 0
1, 65028, Note_off_c, 1, 68, 0
1, 65040, Note_on_c, 1, 70, 127
1, 65040, Note_on_c, 1, 55, 127
1, 65088, Note_off_c, 1, 70, 0
1, 65100, Note_on_c, 1, 75, 127
1, 65112, Note_off_c, 1, 63, 0
1, 65136, Note_off_c, 1, 55, 0
1, 65148, Note_off_c, 1, 75, 0
1, 65160, Note_on_c, 1, 68, 127
1, 65160, Note_on_c, 1, 62, 127
1, 65160, Note_on_c, 1, 53, 127
1, 65208, Note_off_c, 1, 68, 0
1, 65220, Note_on_c, 1, 65, 127
1, 65256, Note_off_c, 1, 62, 0
1, 65256, Note_off_c, 1, 53, 0
1, 65268, Note_off_c, 1, 65, 0
1, 65280, Note_on_c, 1, 67, 127
1, 65280, Note_on_c, 1, 63, 127
1, 65280, Note_on_c, 1, 51, 127
1, 65328, Note_off_c, 1, 63, 0
1, 65340, Note_on_c, 1, 82, 127
1, 65376, Note_off_c, 1, 67, 0
1, 65388, Note_off_c, 1, 82, 0
1, 65400, Note_on_c, 1, 80, 127
1, 65448, Note_off_c, 1, 80, 0
1, 65460, Note_on_c, 1, 79, 127
1, 65472, Note_off_c, 1, 51, 0
1, 65508, Note_off_c, 1, 79, 0
1, 65520, Note_on_c, 1, 77, 127
1, 65568, Note_off_c, 1, 77, 0
1, 65580, Note_on_c, 1, 75, 127
1, 65628, Note_off_c, 1, 75, 0
1, 65640, Note_on_c, 1, 74, 127
1, 65688, Note_off_c, 1, 74, 0
1, 65700, Note_on_c, 1, 72, 127
1, 65748, Note_off_c, 1, 72, 0
1, 65760, Note_on_c, 1, 70, 127
1, 65808, Note_off_c, 1, 70, 0
1, 65820, Note_on_c, 1, 82, 127
1, 65820, Note_on_c, 1, 79, 127
1, 65868, Note_off_c, 1, 82, 0
1, 65868, Note_off_c, 1, 79, 0
1, 65880, Note_on_c, 1, 80, 127
1, 65880, Note_on_c, 1, 77, 127
1, 65928, Note_off_c, 1, 80, 0
1, 65928, Note_off_c, 1, 77, 0
1, 65940, Note_on_c, 1, 79, 127
1, 65940, Note_on_c, 1, 75, 127
1, 65988, Note_off_c, 1, 79, 0
1, 65988, Note_off_c, 1, 75, 0
1, 66000, Note_on_c, 1, 77, 127
1, 66000, Note_on_c, 1, 74, 127
1, 66048, Note_off_c, 1, 77, 0
1, 66048, Note_off_c, 1, 74, 0
1, 66060, Note_on_c, 1, 75, 127
1, 66060, Note_on_c, 1, 72, 127
1, 66108, Note_off_c, 1, 75, 0
1, 66108, Note_off_c, 1, 72, 0
1, 66120, Note_on_c, 1, 74, 127
1, 66120, Note_on_c, 1, 70, 127
1, 66168, Note_off_c, 1, 74, 0
1, 66168, Note_off_c, 1, 70, 0
1, 66180, Note_on_c, 1, 72, 127
1, 66180, Note_on_c, 1, 68, 127
1, 66228, Note_off_c, 1, 72, 0
1, 66228, Note_off_c, 1, 68, 0
1, 66240, Note_on_c, 1, 70, 127
1, 66240, Note_on_c, 1, 67, 127
1, 66240, Note_on_c, 1, 39, 127
1, 66288, Note_off_c, 1, 70, 0
1, 66288, Note_off_c, 1, 67, 0
1, 66300, Note_on_c, 1, 79, 127
1, 66300, Note_on_c, 1, 75, 127
1, 66336, Note_off_c, 1, 39, 0
1, 66348, Note_off_c, 1, 79, 0
1, 66348, Note_off_c, 1, 75, 0
1, 66360, Note_on_c, 1, 77, 127
1, 66360, Note_on_c, 1, 74, 127
1, 66360, Note_on_c, 1, 41, 127
1, 66408, Note_off_c, 1, 77, 0
1, 66408, Note_off_c, 1, 74, 0
1, 66420, Note_on_c, 1, 75, 127
1, 66420, Note_on_c, 1, 72, 127
1, 66456, Note_off_c, 1, 41, 0
1, 66468, Note_off_c, 1, 75, 0
1, 66468, Note_off_c, 1, 72, 0
1, 66480, Note_on_c, 1, 74, 127
1, 66480, Note_on_c, 1, 70, 127
1, 66480, Note_on_c, 1, 43, 127
1, 66528, Note_off_c, 1, 74, 0
1, 66528, Note_off_c, 1, 70, 0
1, 66540, Note_on_c, 1, 72, 127
1, 66540, Note_on_c, 1, 68, 127
1, 66576, Note_off_c, 1, 43, 0
1, 66588, Note_off_c, 1, 72, 0
1, 66588, Note_off_c, 1, 68, 0
1, 66600, Note_on_c, 1, 70, 127
1, 66600, Note_on_c, 1, 67, 127
1, 66600, Note_on_c, 1, 44, 127
1, 66648, Note_off_c, 1, 70, 0
1, 66648, Note_off_c, 1, 67, 0
1, 66660, Note_on_c, 1, 68, 127
1, 66660, Note_on_c, 1, 65, 127
1, 66696, Note_off_c, 1, 44, 0
1, 66708, Note_off_c, 1, 68, 0
1, 66708, Note_off_c, 1, 65, 0
1, 66720, Note_on_c, 1, 67, 127
1, 66720, Note_on_c, 1, 63, 127
1, 66720, Note_on_c, 1, 46, 127
1, 66864, Note_off_c, 1, 67, 0
1, 66864, Note_off_c, 1, 63, 0
1, 66912, Note_off_c, 1, 46, 0
1, 66960, Note_on_c, 1, 65, 127
1, 66960, Note_on_c, 1, 62, 127
1, 66960, Note_on_c, 1, 46, 127
1, 66984, Note_off_c, 1, 65, 0
1, 66984, Note_off_c, 1, 62, 0
1, 66990, Note_on_c, 1, 67, 127
1, 66990, Note_on_c, 1, 63, 127
1, 67014, Note_off_c, 1, 67, 0
1, 67014, Note_off_c, 1, 63, 0
1, 67152, Note_off_c, 1, 46, 0
1, 67200, Note_on_c, 1, 63, 127
1, 67200, Note_on_c, 1, 39, 127
1, 67584, Note_off_c, 1, 63, 0
1, 67584, Note_off_c, 1, 39, 0
1, 67584, End_track
0, 0, End_of_file