0, 0, Header, 1, 1, 480
1, 0, Start_track
1, 0, Title_t, "Test"
1, 0, Tempo, 500000
1, 0, Instrument_name_t, "Church Organ"
1, 2048, Note_on_c, 1, 71, 127
1, 2048, Note_on_c, 1, 59, 127
1, 2048, Note_on_c, 1, 62, 127
1, 2304, Note_on_c, 1, 78, 127
1, 2560, Note_off_c, 1, 71, 0
1, 2560, Note_off_c, 1, 62, 0
1, 2560, Note_off_c, 1, 78, 0
1, 2560, Note_on_c, 1, 83, 127
1, 2560, Note_on_c, 1, 66, 127
1, 2816, Note_off_c, 1, 83, 0
1, 2816, Note_on_c, 1, 86, 127
1, 2995, Note_off_c, 1, 86, 0
1, 3072, Note_off_c, 1, 66, 0
1, 3072, Note_on_c, 1, 85, 127
1, 3072, Note_on_c, 1, 64, 127
1, 3072, Note_on_c, 1, 67, 127
1, 3430, Note_off_c, 1, 59, 0
1, 3533, Note_off_c, 1, 85, 0
1, 3584, Note_off_c, 1, 64, 0
1, 3584, Note_off_c, 1, 67, 0
1, 3584, Note_on_c, 1, 76, 127
1, 3584, Note_on_c, 1, 58, 127
1, 3584, Note_on_c, 1, 61, 127
1, 3840, Note_off_c, 1, 58, 0
1, 3840, Note_off_c, 1, 61, 0
1, 3840, Note_on_c, 1, 56, 127
1, 4096, Note_off_c, 1, 56, 0
1, 4608, Note_off_c, 1, 76, 0
1, 4608, Note_on_c, 1, 74, 127
1, 5120, Note_off_c, 1, 74, 0
1, 5120, Note_on_c, 1, 73, 127
1, 5632, Note_on_c, 1, 54, 127
1, 5888, Note_off_c, 1, 73, 0
1, 5990, Note_off_c, 1, 54, 0
1, 8192, Note_on_c, 1, 47, 127
1, 8550, Note_off_c, 1, 47, 0
1, 9728, Note_on_c, 1, 77, 127
1, 9728, Note_on_c, 1, 69, 127
1, 9984, Note_off_c, 1, 69, 0
1, 10496, Note_off_c, 1, 77, 0
1, 10496, Note_on_c, 1, 80, 127
1, 10752, Note_off_c, 1, 80, 0
1, 12288, Note_on_c, 1, 52, 127
1, 12646, Note_off_c, 1, 52, 0
1, 12800, Note_on_c, 1, 53, 127
1, 12800, Note_on_c, 1, 68, 127
1, 13158, Note_off_c, 1, 53, 0
1, 13312, Note_off_c, 1, 68, 0
1, 13824, Note_on_c, 1, 70, 127
1, 14336, Note_on_c, 1, 50, 127
1, 14507, Note_off_c, 1, 70, 0
1, 14694, Note_off_c, 1, 50, 0
1, 14848, Note_on_c, 1, 49, 127
1, 15206, Note_off_c, 1, 49, 0
1, 16896, Note_on_c, 1, 57, 127
1, 17818, Note_off_c, 1, 57, 0
1, 17920, Note_on_c, 1, 55, 127
1, 18261, Note_on_c, 1, 79, 127
1, 18278, Note_off_c, 1, 55, 0
1, 18415, Note_off_c, 1, 79, 0
1, 18432, Note_on_c, 1, 45, 127
1, 18790, Note_off_c, 1, 45, 0
1, 21504, Note_on_c, 1, 43, 127
1, 21862, Note_off_c, 1, 43, 0
1, 24235, Note_on_c, 1, 75, 127
1, 24405, Note_off_c, 1, 75, 0
1, 24576, Note_on_c, 1, 51, 127
1, 25498, Note_off_c, 1, 51, 0
1, 25600, Note_on_c, 1, 81, 127
1, 25771, Note_off_c, 1, 81, 0
1, 26624, Note_on_c, 1, 84, 127
1, 26795, Note_off_c, 1, 84, 0
1, 29525, Note_on_c, 1, 82, 127
1, 29696, Note_off_c, 1, 82, 0
1, 30208, Note_on_c, 1, 88, 127
1, 30438, Note_off_c, 1, 88, 0
1, 30720, Note_on_c, 1, 46, 127
1, 31078, Note_off_c, 1, 46, 0
1, 36352, Note_on_c, 1, 42, 127
1, 36710, Note_off_c, 1, 42, 0
1, 46592, Note_on_c, 1, 65, 127
1, 47104, Note_off_c, 1, 65, 0
1, 53248, Note_on_c, 1, 44, 127
1, 53606, Note_off_c, 1, 44, 0
1, 54272, Note_on_c, 1, 40, 127
1, 54630, Note_off_c, 1, 40, 0
1, 59392, Note_on_c, 1, 72, 127
1, 59904, Note_off_c, 1, 72, 0
1, 59904, Note_on_c, 1, 63, 127
1, 60416, Note_off_c, 1, 63, 0
1, 98304, Note_on_c, 1, 60, 127
1, 99840, Note_off_c, 1, 60, 0
1, 112640, Note_on_c, 1, 55, 127
1, 112640, Note_on_c, 1, 47, 127
1, 112896, Note_off_c, 1, 55, 0
1, 112896, Note_on_c, 1, 74, 127
1, 112896, Note_on_c, 1, 54, 127
1, 112998, Note_off_c, 1, 47, 0
1, 113152, Note_off_c, 1, 74, 0
1, 113152, Note_off_c, 1, 54, 0
1, 113152, Note_on_c, 1, 73, 127
1, 113152, Note_on_c, 1, 52, 127
1, 113408, Note_off_c, 1, 73, 0
1, 113408, Note_off_c, 1, 52, 0
1, 113408, Note_on_c, 1, 71, 127
1, 113664, Note_off_c, 1, 71, 0
1, 113664, Note_on_c, 1, 46, 127
1, 113664, Note_on_c, 1, 58, 127
1, 113664, Note_on_c, 1, 61, 127
1, 113664, Note_on_c, 1, 66, 127
1, 113920, Note_on_c, 1, 78, 127
1, 114022, Note_off_c, 1, 46, 0
1, 114176, Note_off_c, 1, 78, 0
1, 114176, Note_on_c, 1, 82, 127
1, 114432, Note_off_c, 1, 82, 0
1, 114432, Note_on_c, 1, 85, 127
1, 114688, Note_off_c, 1, 58, 0
1, 114688, Note_off_c, 1, 66, 0
1, 114688, Note_off_c, 1, 85, 0
1, 114688, Note_on_c, 1, 88, 127
1, 114944, Note_off_c, 1, 61, 0
1, 114944, Note_on_c, 1, 62, 127
1, 115200, Note_off_c, 1, 88, 0
1, 115200, Note_off_c, 1, 62, 0
1, 115200, Note_on_c, 1, 64, 127
1, 115456, Note_off_c, 1, 64, 0
1, 115456, Note_on_c, 1, 67, 127
1, 115712, Note_off_c, 1, 67, 0
1, 116736, Note_on_c, 1, 63, 127
1, 116736, Note_on_c, 1, 45, 127
1, 116736, Note_on_c, 1, 57, 127
1, 116736, Note_on_c, 1, 60, 127
1, 116992, Note_on_c, 1, 69, 127
1, 117094, Note_off_c, 1, 45, 0
1, 117248, Note_on_c, 1, 72, 127
1, 117248, Note_on_c, 1, 42, 127
1, 117504, Note_off_c, 1, 72, 0
1, 117504, Note_on_c, 1, 75, 127
1, 117606, Note_off_c, 1, 42, 0
1, 117760, Note_off_c, 1, 63, 0
1, 117760, Note_off_c, 1, 57, 0
1, 117760, Note_off_c, 1, 60, 0
1, 117760, Note_off_c, 1, 69, 0
1, 117760, Note_off_c, 1, 75, 0
1, 117760, Note_on_c, 1, 39, 127
1, 118118, Note_off_c, 1, 39, 0
1, 118784, Note_on_c, 1, 59, 127
1, 119040, Note_off_c, 1, 59, 0
1, 119808, Note_on_c, 1, 40, 127
1, 120166, Note_off_c, 1, 40, 0
1, 121344, Note_on_c, 1, 50, 127
1, 121600, Note_on_c, 1, 76, 127
1, 121702, Note_off_c, 1, 50, 0
1, 121856, Note_off_c, 1, 76, 0
1, 121856, Note_on_c, 1, 79, 127
1, 121856, Note_on_c, 1, 49, 127
1, 122214, Note_off_c, 1, 49, 0
1, 122368, Note_off_c, 1, 79, 0
1, 126464, Note_on_c, 1, 70, 127
1, 126976, Note_off_c, 1, 70, 0
1, 127488, Note_on_c, 1, 83, 127
1, 127744, Note_off_c, 1, 83, 0
1, 127744, Note_on_c, 1, 86, 127
1, 128000, Note_off_c, 1, 86, 0
1, 128000, Note_on_c, 1, 90, 127
1, 128512, Note_off_c, 1, 90, 0
1, 131840, Note_on_c, 1, 68, 127
1, 132096, Note_off_c, 1, 68, 0
1, 132352, Note_on_c, 1, 65, 127
1, 132608, Note_off_c, 1, 65, 0
1, 138240, Note_on_c, 1, 44, 127
1, 138598, Note_off_c, 1, 44, 0
1, 139264, Note_on_c, 1, 77, 127
1, 140288, Note_on_c, 1, 37, 127
1, 140646, Note_off_c, 1, 37, 0
1, 141312, Note_off_c, 1, 77, 0
1, 148992, Note_on_c, 1, 54, 127
1, 149350, Note_off_c, 1, 54, 0
1, 149504, Note_on_c, 1, 71, 127
1, 149504, Note_on_c, 1, 59, 127
1, 149504, Note_on_c, 1, 62, 127
1, 149760, Note_on_c, 1, 78, 127
1, 150016, Note_off_c, 1, 71, 0
1, 150016, Note_off_c, 1, 62, 0
1, 150016, Note_off_c, 1, 78, 0
1, 150016, Note_on_c, 1, 83, 127
1, 150016, Note_on_c, 1, 66, 127
1, 150272, Note_off_c, 1, 83, 0
1, 150272, Note_on_c, 1, 86, 127
1, 150451, Note_off_c, 1, 86, 0
1, 150528, Note_off_c, 1, 66, 0
1, 150528, Note_on_c, 1, 85, 127
1, 150528, Note_on_c, 1, 64, 127
1, 150528, Note_on_c, 1, 67, 127
1, 150886, Note_off_c, 1, 59, 0
1, 150989, Note_off_c, 1, 85, 0
1, 151040, Note_off_c, 1, 64, 0
1, 151040, Note_off_c, 1, 67, 0
1, 151040, Note_on_c, 1, 76, 127
1, 151040, Note_on_c, 1, 58, 127
1, 151040, Note_on_c, 1, 61, 127
1, 151296, Note_off_c, 1, 58, 0
1, 151296, Note_off_c, 1, 61, 0
1, 151296, Note_on_c, 1, 56, 127
1, 151552, Note_off_c, 1, 56, 0
1, 152064, Note_off_c, 1, 76, 0
1, 152064, Note_on_c, 1, 74, 127
1, 152576, Note_off_c, 1, 74, 0
1, 152576, Note_on_c, 1, 73, 127
1, 153088, Note_on_c, 1, 54, 127
1, 153344, Note_off_c, 1, 73, 0
1, 153446, Note_off_c, 1, 54, 0
1, 153600, Note_on_c, 1, 47, 127
1, 153958, Note_off_c, 1, 47, 0
1, 155136, Note_on_c, 1, 57, 127
1, 156058, Note_off_c, 1, 57, 0
1, 156160, Note_on_c, 1, 55, 127
1, 156501, Note_on_c, 1, 79, 127
1, 156518, Note_off_c, 1, 55, 0
1, 156655, Note_off_c, 1, 79, 0
1, 156672, Note_on_c, 1, 45, 127
1, 156672, Note_on_c, 1, 52, 127
1, 157013, Note_on_c, 1, 69, 127
1, 157030, Note_off_c, 1, 45, 0
1, 157184, Note_off_c, 1, 52, 0
1, 157184, Note_off_c, 1, 69, 0
1, 159744, Note_on_c, 1, 43, 127
1, 159744, Note_on_c, 1, 50, 127
1, 160102, Note_off_c, 1, 43, 0
1, 160256, Note_off_c, 1, 50, 0
1, 162475, Note_on_c, 1, 75, 127
1, 162645, Note_off_c, 1, 75, 0
1, 162816, Note_on_c, 1, 51, 127
1, 163174, Note_off_c, 1, 51, 0
1, 163840, Note_on_c, 1, 81, 127
1, 164011, Note_off_c, 1, 81, 0
1, 164864, Note_on_c, 1, 84, 127
1, 165035, Note_off_c, 1, 84, 0
1, 166912, Note_on_c, 1, 70, 127
1, 167424, Note_off_c, 1, 70, 0
1, 167595, Note_on_c, 1, 80, 127
1, 167765, Note_off_c, 1, 80, 0
1, 167765, Note_on_c, 1, 82, 127
1, 167936, Note_off_c, 1, 82, 0
1, 167936, Note_on_c, 1, 49, 127
1, 168294, Note_off_c, 1, 49, 0
1, 168448, Note_on_c, 1, 88, 127
1, 168678, Note_off_c, 1, 88, 0
1, 168960, Note_on_c, 1, 46, 127
1, 169318, Note_off_c, 1, 46, 0
1, 174592, Note_on_c, 1, 42, 127
1, 174950, Note_off_c, 1, 42, 0
1, 174950, End_track
0, 0, End_of_file