0, 0, Header, 1, 1, 480
1, 0, Start_track
1, 0, Title_t, "Test"
1, 0, Tempo, 500000
1, 0, Instrument_name_t, "Church Organ"
1, 120, Note_on_c, 1, 57, 127
1, 140, Note_on_c, 1, 61, 127
1, 150, Note_off_c, 1, 57, 0
1, 150, Note_on_c, 1, 56, 127
1, 150, Note_on_c, 1, 64, 127
1, 180, Note_off_c, 1, 56, 0
1, 240, Note_on_c, 1, 52, 127
1, 275, Note_off_c, 1, 52, 0
1, 300, Note_off_c, 1, 61, 0
1, 300, Note_on_c, 1, 69, 127
1, 300, Note_on_c, 1, 49, 127
1, 420, Note_off_c, 1, 64, 0
1, 420, Note_off_c, 1, 69, 0
1, 420, Note_off_c, 1, 49, 0
1, 420, Note_on_c, 1, 71, 127
1, 420, Note_on_c, 1, 68, 127
1, 420, Note_on_c, 1, 47, 127
1, 420, Note_on_c, 1, 62, 127
1, 455, Note_off_c, 1, 47, 0
1, 480, Note_off_c, 1, 71, 0
1, 480, Note_off_c, 1, 68, 0
1, 480, Note_off_c, 1, 62, 0
1, 480, Note_on_c, 1, 73, 127
1, 480, Note_on_c, 1, 45, 127
1, 540, Note_on_c, 1, 74, 127
1, 600, Note_off_c, 1, 45, 0
1, 600, Note_off_c, 1, 74, 0
1, 600, Note_on_c, 1, 76, 127
1, 635, Note_off_c, 1, 76, 0
1, 660, Note_off_c, 1, 73, 0
1, 660, Note_on_c, 1, 50, 127
1, 660, Note_on_c, 1, 66, 127
1, 780, Note_off_c, 1, 50, 0
1, 780, Note_off_c, 1, 66, 0
1, 1320, Note_on_c, 1, 81, 127
1, 1355, Note_off_c, 1, 81, 0
1, 1380, Note_on_c, 1, 59, 127
1, 1500, Note_off_c, 1, 59, 0
1, 1590, Note_on_c, 1, 63, 127
1, 1620, Note_off_c, 1, 63, 0
1, 1860, Note_on_c, 1, 75, 127
1, 1860, Note_on_c, 1, 51, 127
1, 1895, Note_off_c, 1, 51, 0
1, 1920, Note_off_c, 1, 75, 0
1, 2100, Note_on_c, 1, 66, 127
1, 2100, Note_on_c, 1, 75, 127
1, 2160, Note_off_c, 1, 66, 0
1, 2160, Note_off_c, 1, 75, 0
1, 2160, Note_on_c, 1, 64, 127
1, 2160, Note_on_c, 1, 76, 127
1, 2195, Note_off_c, 1, 64, 0
1, 2195, Note_off_c, 1, 76, 0
1, 2220, Note_on_c, 1, 75, 127
1, 2220, Note_on_c, 1, 69, 127
1, 2280, Note_off_c, 1, 75, 0
1, 2280, Note_off_c, 1, 69, 0
1, 2280, Note_on_c, 1, 76, 127
1, 2280, Note_on_c, 1, 68, 127
1, 2280, Note_on_c, 1, 47, 127
1, 2280, Note_on_c, 1, 71, 127
1, 2400, Note_off_c, 1, 76, 0
1, 2400, Note_off_c, 1, 68, 0
1, 2400, Note_off_c, 1, 47, 0
1, 2400, Note_off_c, 1, 71, 0
1, 2400, Note_on_c, 1, 73, 127
1, 2435, Note_off_c, 1, 73, 0
1, 2460, Note_on_c, 1, 66, 127
1, 2460, Note_on_c, 1, 75, 127
1, 2520, Note_off_c, 1, 66, 0
1, 2520, Note_off_c, 1, 75, 0
1, 2520, Note_on_c, 1, 64, 127
1, 2520, Note_on_c, 1, 76, 127
1, 2555, Note_off_c, 1, 64, 0
1, 2555, Note_off_c, 1, 76, 0
1, 2580, Note_on_c, 1, 74, 127
1, 2640, Note_off_c, 1, 74, 0
1, 2640, Note_on_c, 1, 73, 127
1, 2640, Note_on_c, 1, 45, 127
1, 2640, Note_on_c, 1, 69, 127
1, 2675, Note_off_c, 1, 45, 0
1, 2700, Note_on_c, 1, 57, 127
1, 2760, Note_off_c, 1, 57, 0
1, 2760, Note_on_c, 1, 64, 127
1, 2760, Note_on_c, 1, 56, 127
1, 2795, Note_off_c, 1, 56, 0
1, 2820, Note_off_c, 1, 64, 0
1, 2820, Note_on_c, 1, 54, 127
1, 2880, Note_off_c, 1, 54, 0
1, 2880, Note_on_c, 1, 51, 127
1, 2915, Note_off_c, 1, 51, 0
1, 2940, Note_off_c, 1, 73, 0
1, 2940, Note_on_c, 1, 66, 127
1, 2940, Note_on_c, 1, 52, 127
1, 2975, Note_off_c, 1, 52, 0
1, 3000, Note_off_c, 1, 66, 0
1, 3000, Note_on_c, 1, 71, 127
1, 3060, Note_on_c, 1, 49, 127
1, 3120, Note_off_c, 1, 49, 0
1, 3120, Note_on_c, 1, 63, 127
1, 3120, Note_on_c, 1, 47, 127
1, 3155, Note_off_c, 1, 47, 0
1, 3180, Note_off_c, 1, 69, 0
1, 3180, Note_off_c, 1, 63, 0
1, 3180, Note_on_c, 1, 68, 127
1, 3300, Note_off_c, 1, 71, 0
1, 3300, Note_off_c, 1, 68, 0
1, 3300, Note_on_c, 1, 59, 127
1, 3360, Note_off_c, 1, 59, 0
1, 3360, Note_on_c, 1, 61, 127
1, 3480, Note_off_c, 1, 61, 0
1, 3540, Note_on_c, 1, 68, 127
1, 3540, Note_on_c, 1, 59, 127
1, 3540, Note_on_c, 1, 64, 127
1, 3551, Note_on_c, 1, 69, 127
1, 3564, Note_off_c, 1, 69, 0
1, 3600, Note_on_c, 1, 66, 127
1, 3660, Note_off_c, 1, 68, 0
1, 3660, Note_off_c, 1, 59, 0
1, 3660, Note_off_c, 1, 66, 0
1, 3695, Note_off_c, 1, 64, 0
1, 3720, Note_on_c, 1, 64, 127
1, 3720, Note_on_c, 1, 61, 127
1, 3720, Note_on_c, 1, 71, 127
1, 3720, Note_on_c, 1, 68, 127
1, 3780, Note_off_c, 1, 64, 0
1, 3840, Note_off_c, 1, 61, 0
1, 3840, Note_off_c, 1, 71, 0
1, 3875, Note_off_c, 1, 68, 0
1, 3900, Note_on_c, 1, 64, 127
1, 3900, Note_on_c, 1, 44, 127
1, 3900, Note_on_c, 1, 59, 127
1, 3900, Note_on_c, 1, 71, 127
1, 4020, Note_off_c, 1, 64, 0
1, 4020, Note_off_c, 1, 44, 0
1, 4020, Note_off_c, 1, 71, 0
1, 4080, Note_off_c, 1, 59, 0
1, 4080, Note_on_c, 1, 61, 127
1, 4080, Note_on_c, 1, 45, 127
1, 4140, Note_on_c, 1, 63, 127
1, 4200, Note_off_c, 1, 61, 0
1, 4200, Note_off_c, 1, 45, 0
1, 4200, Note_off_c, 1, 63, 0
1, 4260, Note_on_c, 1, 68, 127
1, 4260, Note_on_c, 1, 47, 127
1, 4260, Note_on_c, 1, 63, 127
1, 4271, Note_on_c, 1, 69, 127
1, 4284, Note_off_c, 1, 69, 0
1, 4320, Note_off_c, 1, 68, 0
1, 4320, Note_off_c, 1, 63, 0
1, 4320, Note_on_c, 1, 66, 127
1, 4380, Note_off_c, 1, 47, 0
1, 4380, Note_off_c, 1, 66, 0
1, 4380, Note_on_c, 1, 64, 127
1, 4380, Note_on_c, 1, 59, 127
1, 4380, Note_on_c, 1, 57, 127
1, 4440, Note_off_c, 1, 59, 0
1, 4440, Note_off_c, 1, 57, 0
1, 4440, Note_on_c, 1, 40, 127
1, 4450, Note_on_c, 1, 56, 127
1, 4475, Note_off_c, 1, 40, 0
1, 4500, Note_on_c, 1, 52, 127
1, 4535, Note_off_c, 1, 52, 0
1, 4560, Note_off_c, 1, 56, 0
1, 4560, Note_on_c, 1, 50, 127
1, 4595, Note_off_c, 1, 50, 0
1, 4620, Note_on_c, 1, 49, 127
1, 4650, Note_off_c, 1, 64, 0
1, 4650, Note_off_c, 1, 49, 0
1, 4740, Note_on_c, 1, 62, 127
1, 4800, Note_off_c, 1, 62, 0
1, 4800, Note_on_c, 1, 45, 127
1, 4800, Note_on_c, 1, 61, 127
1, 4920, Note_off_c, 1, 45, 0
1, 4920, Note_off_c, 1, 61, 0
1, 5100, Note_on_c, 1, 71, 127
1, 5160, Note_off_c, 1, 71, 0
1, 5160, Note_on_c, 1, 73, 127
1, 5340, Note_off_c, 1, 73, 0
1, 5340, Note_on_c, 1, 74, 127
1, 5520, Note_off_c, 1, 74, 0
1, 5880, Note_on_c, 1, 76, 127
1, 5940, Note_on_c, 1, 54, 127
1, 6000, Note_off_c, 1, 54, 0
1, 6120, Note_on_c, 1, 78, 127
1, 6180, Note_off_c, 1, 78, 0
1, 6180, Note_on_c, 1, 80, 127
1, 6240, Note_off_c, 1, 80, 0
1, 6240, Note_on_c, 1, 81, 127
1, 6275, Note_off_c, 1, 81, 0
1, 6360, Note_off_c, 1, 76, 0
1, 6420, Note_on_c, 1, 71, 127
1, 6420, Note_on_c, 1, 68, 127
1, 6480, Note_off_c, 1, 71, 0
1, 6480, Note_off_c, 1, 68, 0
1, 6480, Note_on_c, 1, 69, 127
1, 6515, Note_off_c, 1, 69, 0
1, 6540, Note_on_c, 1, 80, 127
1, 6540, Note_on_c, 1, 62, 127
1, 6600, Note_off_c, 1, 80, 0
1, 6600, Note_off_c, 1, 62, 0
1, 6600, Note_on_c, 1, 81, 127
1, 6600, Note_on_c, 1, 61, 127
1, 6600, Note_on_c, 1, 54, 127
1, 6600, Note_on_c, 1, 73, 127
1, 6600, Note_on_c, 1, 66, 127
1, 6600, Note_on_c, 1, 69, 127
1, 6635, Note_off_c, 1, 81, 0
1, 6635, Note_off_c, 1, 61, 0
1, 6660, Note_on_c, 1, 64, 127
1, 6720, Note_off_c, 1, 73, 0
1, 6720, Note_off_c, 1, 69, 0
1, 6720, Note_off_c, 1, 64, 0
1, 6720, Note_on_c, 1, 74, 127
1, 6755, Note_off_c, 1, 66, 0
1, 6755, Note_off_c, 1, 74, 0
1, 6780, Note_off_c, 1, 54, 0
1, 6780, Note_on_c, 1, 71, 127
1, 6780, Note_on_c, 1, 68, 127
1, 6840, Note_off_c, 1, 71, 0
1, 6840, Note_off_c, 1, 68, 0
1, 6900, Note_on_c, 1, 79, 127
1, 6900, Note_on_c, 1, 52, 127
1, 6900, Note_on_c, 1, 67, 127
1, 6900, Note_on_c, 1, 69, 127
1, 6900, Note_on_c, 1, 73, 127
1, 6935, Note_off_c, 1, 52, 0
1, 6960, Note_off_c, 1, 79, 0
1, 6960, Note_off_c, 1, 67, 0
1, 6960, Note_off_c, 1, 73, 0
1, 6960, Note_on_c, 1, 78, 127
1, 6960, Note_on_c, 1, 50, 127
1, 6960, Note_on_c, 1, 66, 127
1, 6960, Note_on_c, 1, 74, 127
1, 6995, Note_off_c, 1, 50, 0
1, 7020, Note_on_c, 1, 62, 127
1, 7080, Note_off_c, 1, 62, 0
1, 7080, Note_on_c, 1, 61, 127
1, 7115, Note_off_c, 1, 61, 0
1, 7140, Note_off_c, 1, 69, 0
1, 7140, Note_on_c, 1, 59, 127
1, 7140, Note_on_c, 1, 71, 127
1, 7200, Note_off_c, 1, 59, 0
1, 7200, Note_on_c, 1, 54, 127
1, 7235, Note_off_c, 1, 54, 0
1, 7260, Note_off_c, 1, 78, 0
1, 7260, Note_on_c, 1, 57, 127
1, 7295, Note_off_c, 1, 57, 0
1, 7320, Note_off_c, 1, 66, 0
1, 7320, Note_off_c, 1, 71, 0
1, 7320, Note_on_c, 1, 76, 127
1, 7320, Note_on_c, 1, 56, 127
1, 7320, Note_on_c, 1, 68, 127
1, 7380, Note_off_c, 1, 56, 0
1, 7500, Note_off_c, 1, 74, 0
1, 7500, Note_off_c, 1, 68, 0
1, 7620, Note_off_c, 1, 76, 0
1, 7620, Note_on_c, 1, 64, 127
1, 7680, Note_off_c, 1, 64, 0
1, 7860, Note_on_c, 1, 73, 127
1, 7860, Note_on_c, 1, 52, 127
1, 7860, Note_on_c, 1, 61, 127
1, 7860, Note_on_c, 1, 64, 127
1, 7860, Note_on_c, 1, 69, 127
1, 7871, Note_off_c, 1, 73, 0
1, 7871, Note_on_c, 1, 74, 127
1, 7884, Note_off_c, 1, 74, 0
1, 7920, Note_on_c, 1, 71, 127
1, 7980, Note_off_c, 1, 52, 0
1, 7980, Note_off_c, 1, 61, 0
1, 7980, Note_off_c, 1, 64, 0
1, 7980, Note_off_c, 1, 71, 0
1, 8015, Note_off_c, 1, 69, 0
1, 8040, Note_on_c, 1, 69, 127
1, 8040, Note_on_c, 1, 54, 127
1, 8040, Note_on_c, 1, 66, 127
1, 8040, Note_on_c, 1, 73, 127
1, 8100, Note_on_c, 1, 76, 127
1, 8160, Note_off_c, 1, 69, 0
1, 8160, Note_off_c, 1, 54, 0
1, 8160, Note_off_c, 1, 66, 0
1, 8160, Note_off_c, 1, 76, 0
1, 8195, Note_off_c, 1, 73, 0
1, 8220, Note_on_c, 1, 69, 127
1, 8220, Note_on_c, 1, 49, 127
1, 8220, Note_on_c, 1, 61, 127
1, 8220, Note_on_c, 1, 64, 127
1, 8280, Note_on_c, 1, 76, 127
1, 8315, Note_off_c, 1, 76, 0
1, 8340, Note_off_c, 1, 69, 0
1, 8340, Note_off_c, 1, 49, 0
1, 8340, Note_off_c, 1, 61, 0
1, 8400, Note_off_c, 1, 64, 0
1, 8400, Note_on_c, 1, 66, 127
1, 8400, Note_on_c, 1, 50, 127
1, 8400, Note_on_c, 1, 62, 127
1, 8460, Note_on_c, 1, 68, 127
1, 8520, Note_off_c, 1, 66, 0
1, 8520, Note_off_c, 1, 50, 0
1, 8520, Note_off_c, 1, 62, 0
1, 8520, Note_off_c, 1, 68, 0
1, 8580, Note_on_c, 1, 73, 127
1, 8580, Note_on_c, 1, 52, 127
1, 8580, Note_on_c, 1, 68, 127
1, 8591, Note_on_c, 1, 74, 127
1, 8604, Note_off_c, 1, 74, 0
1, 8640, Note_off_c, 1, 73, 0
1, 8640, Note_off_c, 1, 68, 0
1, 8640, Note_on_c, 1, 71, 127
1, 8700, Note_off_c, 1, 52, 0
1, 8700, Note_off_c, 1, 71, 0
1, 8700, Note_on_c, 1, 69, 127
1, 8760, Note_on_c, 1, 57, 127
1, 8770, Note_on_c, 1, 61, 127
1, 8780, Note_on_c, 1, 64, 127
1, 8790, Note_off_c, 1, 57, 0
1, 8790, Note_on_c, 1, 56, 127
1, 8820, Note_off_c, 1, 56, 0
1, 8880, Note_off_c, 1, 69, 0
1, 8880, Note_off_c, 1, 61, 0
1, 8880, Note_off_c, 1, 64, 0
1, 8940, Note_on_c, 1, 69, 127
1, 8940, Note_on_c, 1, 64, 127
1, 8940, Note_on_c, 1, 49, 127
1, 8940, Note_on_c, 1, 57, 127
1, 9060, Note_off_c, 1, 69, 0
1, 9060, Note_off_c, 1, 49, 0
1, 9060, Note_off_c, 1, 57, 0
1, 9060, Note_on_c, 1, 71, 127
1, 9060, Note_on_c, 1, 52, 127
1, 9060, Note_on_c, 1, 56, 127
1, 9095, Note_off_c, 1, 52, 0
1, 9095, Note_off_c, 1, 56, 0
1, 9120, Note_off_c, 1, 71, 0
1, 9120, Note_on_c, 1, 73, 127
1, 9120, Note_on_c, 1, 45, 127
1, 9180, Note_on_c, 1, 74, 127
1, 9180, Note_on_c, 1, 59, 127
1, 9240, Note_off_c, 1, 64, 0
1, 9240, Note_off_c, 1, 73, 0
1, 9240, Note_off_c, 1, 45, 0
1, 9240, Note_off_c, 1, 74, 0
1, 9240, Note_off_c, 1, 59, 0
1, 9240, Note_on_c, 1, 76, 127
1, 9240, Note_on_c, 1, 61, 127
1, 9275, Note_off_c, 1, 61, 0
1, 9300, Note_off_c, 1, 76, 0
1, 9300, Note_on_c, 1, 66, 127
1, 9300, Note_on_c, 1, 50, 127
1, 9420, Note_off_c, 1, 66, 0
1, 9420, Note_off_c, 1, 50, 0
1, 9420, Note_on_c, 1, 68, 127
1, 9480, Note_off_c, 1, 68, 0
1, 9660, Note_on_c, 1, 54, 127
1, 9720, Note_off_c, 1, 54, 0
1, 9960, Note_on_c, 1, 81, 127
1, 9995, Note_off_c, 1, 81, 0
1, 10020, Note_on_c, 1, 47, 127
1, 10140, Note_off_c, 1, 47, 0
1, 10230, Note_on_c, 1, 51, 127
1, 10260, Note_off_c, 1, 51, 0
1, 10380, Note_on_c, 1, 40, 127
1, 10415, Note_off_c, 1, 40, 0
1, 10500, Note_on_c, 1, 62, 127
1, 10560, Note_off_c, 1, 62, 0
1, 10740, Note_on_c, 1, 70, 127
1, 10800, Note_on_c, 1, 58, 127
1, 10860, Note_off_c, 1, 58, 0
1, 10980, Note_on_c, 1, 78, 127
1, 11040, Note_off_c, 1, 70, 0
1, 11040, Note_off_c, 1, 78, 0
1, 11040, Note_on_c, 1, 79, 127
1, 11100, Note_off_c, 1, 79, 0
1, 12420, Note_on_c, 1, 75, 127
1, 12480, Note_off_c, 1, 75, 0
1, 12570, Note_on_c, 1, 80, 127
1, 12600, Note_off_c, 1, 80, 0
1, 12720, Note_on_c, 1, 63, 127
1, 13080, Note_off_c, 1, 63, 0
1, 13260, Note_on_c, 1, 66, 127
1, 13260, Note_on_c, 1, 75, 127
1, 13260, Note_on_c, 1, 57, 127
1, 13320, Note_off_c, 1, 66, 0
1, 13320, Note_off_c, 1, 75, 0
1, 13320, Note_off_c, 1, 57, 0
1, 13320, Note_on_c, 1, 64, 127
1, 13320, Note_on_c, 1, 76, 127
1, 13320, Note_on_c, 1, 61, 127
1, 13355, Note_off_c, 1, 64, 0
1, 13355, Note_off_c, 1, 76, 0
1, 13380, Note_off_c, 1, 61, 0
1, 13380, Note_on_c, 1, 69, 127
1, 13380, Note_on_c, 1, 59, 127
1, 13415, Note_off_c, 1, 59, 0
1, 13440, Note_off_c, 1, 69, 0
1, 13440, Note_on_c, 1, 68, 127
1, 13440, Note_on_c, 1, 47, 127
1, 13500, Note_on_c, 1, 71, 127
1, 13560, Note_off_c, 1, 68, 0
1, 13560, Note_off_c, 1, 47, 0
1, 13560, Note_off_c, 1, 71, 0
1, 13560, Note_on_c, 1, 73, 127
1, 13595, Note_off_c, 1, 73, 0
1, 13740, Note_on_c, 1, 74, 127
1, 13800, Note_off_c, 1, 74, 0
1, 13800, Note_on_c, 1, 45, 127
1, 13835, Note_off_c, 1, 45, 0
1, 13860, Note_on_c, 1, 52, 127
1, 13920, Note_off_c, 1, 52, 0
1, 13920, Note_on_c, 1, 56, 127
1, 13980, Note_off_c, 1, 56, 0
1, 13980, Note_on_c, 1, 54, 127
1, 14040, Note_off_c, 1, 54, 0
1, 14040, Note_on_c, 1, 51, 127
1, 14075, Note_off_c, 1, 51, 0
1, 14160, Note_on_c, 1, 63, 127
1, 14340, Note_off_c, 1, 63, 0
1, 14460, Note_on_c, 1, 50, 127
1, 14495, Note_off_c, 1, 50, 0
1, 14520, Note_on_c, 1, 49, 127
1, 14580, Note_off_c, 1, 49, 0
1, 14700, Note_on_c, 1, 60, 127
1, 14760, Note_off_c, 1, 60, 0
1, 14760, Note_on_c, 1, 48, 127
1, 14820, Note_off_c, 1, 48, 0
1, 15000, Note_on_c, 1, 44, 127
1, 15035, Note_off_c, 1, 44, 0
1, 16680, Note_on_c, 1, 64, 127
1, 16680, Note_on_c, 1, 61, 127
1, 16680, Note_on_c, 1, 56, 127
1, 16680, Note_on_c, 1, 68, 127
1, 16740, Note_off_c, 1, 56, 0
1, 16740, Note_on_c, 1, 71, 127
1, 16740, Note_on_c, 1, 63, 127
1, 16800, Note_off_c, 1, 61, 0
1, 16800, Note_off_c, 1, 71, 0
1, 16800, Note_off_c, 1, 63, 0
1, 16860, Note_off_c, 1, 68, 0
1, 16860, Note_on_c, 1, 44, 127
1, 16860, Note_on_c, 1, 59, 127
1, 16980, Note_off_c, 1, 64, 0
1, 16980, Note_off_c, 1, 44, 0
1, 17040, Note_on_c, 1, 45, 127
1, 17075, Note_off_c, 1, 59, 0
1, 17100, Note_on_c, 1, 51, 127
1, 17160, Note_off_c, 1, 45, 0
1, 17160, Note_off_c, 1, 51, 0
1, 17160, Note_on_c, 1, 52, 127
1, 17220, Note_off_c, 1, 52, 0
1, 17220, Note_on_c, 1, 47, 127
1, 17231, Note_on_c, 1, 69, 127
1, 17244, Note_off_c, 1, 69, 0
1, 17280, Note_on_c, 1, 66, 127
1, 17280, Note_on_c, 1, 54, 127
1, 17340, Note_off_c, 1, 47, 0
1, 17340, Note_off_c, 1, 66, 0
1, 17340, Note_off_c, 1, 54, 0
1, 17580, Note_on_c, 1, 76, 127
1, 17700, Note_off_c, 1, 76, 0
1, 17700, Note_on_c, 1, 75, 127
1, 17700, Note_on_c, 1, 42, 127
1, 17735, Note_off_c, 1, 42, 0
1, 17760, Note_off_c, 1, 75, 0
1, 17760, Note_on_c, 1, 40, 127
1, 17820, Note_on_c, 1, 78, 127
1, 17880, Note_off_c, 1, 40, 0
1, 17880, Note_off_c, 1, 78, 0
1, 17880, Note_on_c, 1, 80, 127
1, 17940, Note_off_c, 1, 80, 0
1, 18300, Note_on_c, 1, 57, 127
1, 18420, Note_off_c, 1, 57, 0
1, 18960, Note_on_c, 1, 73, 127
1, 19020, Note_off_c, 1, 73, 0
1, 19380, Note_on_c, 1, 66, 127
1, 19380, Note_on_c, 1, 75, 127
1, 19440, Note_off_c, 1, 66, 0
1, 19440, Note_off_c, 1, 75, 0
1, 19440, Note_on_c, 1, 64, 127
1, 19440, Note_on_c, 1, 76, 127
1, 19475, Note_off_c, 1, 64, 0
1, 19475, Note_off_c, 1, 76, 0
1, 19500, Note_on_c, 1, 75, 127
1, 19500, Note_on_c, 1, 69, 127
1, 19560, Note_off_c, 1, 75, 0
1, 19560, Note_off_c, 1, 69, 0
1, 19560, Note_on_c, 1, 76, 127
1, 19560, Note_on_c, 1, 68, 127
1, 19560, Note_on_c, 1, 49, 127
1, 19560, Note_on_c, 1, 73, 127
1, 19620, Note_on_c, 1, 71, 127
1, 19680, Note_off_c, 1, 71, 0
1, 19740, Note_off_c, 1, 76, 0
1, 19740, Note_off_c, 1, 68, 0
1, 19740, Note_off_c, 1, 49, 0
1, 19740, Note_off_c, 1, 73, 0
1, 19740, Note_on_c, 1, 66, 127
1, 19800, Note_off_c, 1, 66, 0
1, 19800, Note_on_c, 1, 64, 127
1, 19835, Note_off_c, 1, 64, 0
1, 19860, Note_on_c, 1, 74, 127
1, 19860, Note_on_c, 1, 47, 127
1, 19860, Note_on_c, 1, 64, 127
1, 19860, Note_on_c, 1, 68, 127
1, 19895, Note_off_c, 1, 47, 0
1, 19920, Note_off_c, 1, 74, 0
1, 19920, Note_off_c, 1, 68, 0
1, 19920, Note_on_c, 1, 73, 127
1, 19920, Note_on_c, 1, 45, 127
1, 19920, Note_on_c, 1, 69, 127
1, 19980, Note_off_c, 1, 45, 0
1, 19980, Note_on_c, 1, 57, 127
1, 20040, Note_off_c, 1, 57, 0
1, 20040, Note_on_c, 1, 56, 127
1, 20075, Note_off_c, 1, 56, 0
1, 20100, Note_off_c, 1, 64, 0
1, 20100, Note_on_c, 1, 54, 127
1, 20100, Note_on_c, 1, 66, 127
1, 20160, Note_off_c, 1, 54, 0
1, 20160, Note_on_c, 1, 51, 127
1, 20220, Note_off_c, 1, 51, 0
1, 20220, Note_on_c, 1, 52, 127
1, 20255, Note_off_c, 1, 52, 0
1, 20280, Note_off_c, 1, 73, 0
1, 20280, Note_off_c, 1, 66, 0
1, 20280, Note_on_c, 1, 71, 127
1, 20280, Note_on_c, 1, 63, 127
1, 20340, Note_on_c, 1, 49, 127
1, 20400, Note_off_c, 1, 49, 0
1, 20460, Note_off_c, 1, 69, 0
1, 20460, Note_off_c, 1, 63, 0
1, 20580, Note_on_c, 1, 59, 127
1, 20640, Note_off_c, 1, 59, 0
1, 20640, Note_on_c, 1, 61, 127
1, 20700, Note_off_c, 1, 71, 0
1, 20700, Note_off_c, 1, 61, 0
1, 21180, Note_on_c, 1, 71, 127
1, 21180, Note_on_c, 1, 64, 127
1, 21180, Note_on_c, 1, 44, 127
1, 21180, Note_on_c, 1, 68, 127
1, 21240, Note_on_c, 1, 76, 127
1, 21275, Note_off_c, 1, 76, 0
1, 21300, Note_off_c, 1, 71, 0
1, 21300, Note_off_c, 1, 64, 0
1, 21300, Note_off_c, 1, 44, 0
1, 21300, Note_off_c, 1, 68, 0
1, 21300, Note_on_c, 1, 80, 127
1, 21300, Note_on_c, 1, 59, 127
1, 21360, Note_off_c, 1, 80, 0
1, 21360, Note_off_c, 1, 59, 0
1, 21360, Note_on_c, 1, 78, 127
1, 21360, Note_on_c, 1, 61, 127
1, 21360, Note_on_c, 1, 45, 127
1, 21360, Note_on_c, 1, 66, 127
1, 21360, Note_on_c, 1, 73, 127
1, 21420, Note_off_c, 1, 78, 0
1, 21420, Note_off_c, 1, 61, 0
1, 21420, Note_on_c, 1, 81, 127
1, 21420, Note_on_c, 1, 63, 127
1, 21480, Note_off_c, 1, 45, 0
1, 21480, Note_off_c, 1, 66, 0
1, 21480, Note_off_c, 1, 73, 0
1, 21480, Note_off_c, 1, 81, 0
1, 21480, Note_off_c, 1, 63, 0
1, 21540, Note_on_c, 1, 71, 127
1, 21540, Note_on_c, 1, 68, 127
1, 21540, Note_on_c, 1, 47, 127
1, 21551, Note_on_c, 1, 69, 127
1, 21564, Note_off_c, 1, 69, 0
1, 21600, Note_off_c, 1, 71, 0
1, 21600, Note_off_c, 1, 68, 0
1, 21600, Note_on_c, 1, 75, 127
1, 21600, Note_on_c, 1, 66, 127
1, 21660, Note_off_c, 1, 47, 0
1, 21660, Note_off_c, 1, 75, 0
1, 21660, Note_off_c, 1, 66, 0
1, 21660, Note_on_c, 1, 76, 127
1, 21660, Note_on_c, 1, 64, 127
1, 21720, Note_off_c, 1, 76, 0
1, 21720, Note_on_c, 1, 52, 127
1, 21730, Note_on_c, 1, 56, 127
1, 21740, Note_on_c, 1, 59, 127
1, 21750, Note_off_c, 1, 52, 0
1, 21750, Note_on_c, 1, 51, 127
1, 21780, Note_off_c, 1, 51, 0
1, 21900, Note_off_c, 1, 64, 0
1, 21900, Note_off_c, 1, 56, 0
1, 21900, Note_on_c, 1, 40, 127
1, 21900, Note_on_c, 1, 67, 127
1, 21960, Note_on_c, 1, 54, 127
1, 22020, Note_off_c, 1, 40, 0
1, 22020, Note_off_c, 1, 54, 0
1, 22020, Note_on_c, 1, 50, 127
1, 22020, Note_on_c, 1, 55, 127
1, 22055, Note_off_c, 1, 50, 0
1, 22055, Note_off_c, 1, 55, 0
1, 22080, Note_off_c, 1, 59, 0
1, 22080, Note_on_c, 1, 49, 127
1, 22080, Note_on_c, 1, 46, 127
1, 22080, Note_on_c, 1, 58, 127
1, 22140, Note_off_c, 1, 46, 0
1, 22200, Note_off_c, 1, 49, 0
1, 22200, Note_off_c, 1, 58, 0
1, 22260, Note_on_c, 1, 73, 127
1, 22380, Note_off_c, 1, 67, 0
1, 22380, Note_on_c, 1, 42, 127
1, 22415, Note_off_c, 1, 42, 0
1, 22560, Note_off_c, 1, 73, 0
1, 22560, Note_on_c, 1, 74, 127
1, 22620, Note_off_c, 1, 74, 0
1, 22680, Note_on_c, 1, 65, 127
1, 22740, Note_off_c, 1, 65, 0
1, 22740, Note_on_c, 1, 57, 127
1, 22800, Note_off_c, 1, 57, 0
1, 22860, Note_on_c, 1, 41, 127
1, 22860, Note_on_c, 1, 62, 127
1, 22920, Note_off_c, 1, 41, 0
1, 22920, Note_off_c, 1, 62, 0
1, 22920, Note_on_c, 1, 61, 127
1, 22980, Note_off_c, 1, 61, 0
1, 23100, Note_on_c, 1, 44, 127
1, 23135, Note_off_c, 1, 44, 0
1, 23160, Note_on_c, 1, 53, 127
1, 23220, Note_off_c, 1, 53, 0
1, 23220, Note_on_c, 1, 72, 127
1, 23280, Note_off_c, 1, 72, 0
1, 23340, Note_on_c, 1, 80, 127
1, 23460, Note_off_c, 1, 80, 0
1, 23700, Note_on_c, 1, 78, 127
1, 23820, Note_off_c, 1, 78, 0
1, 24600, Note_on_c, 1, 45, 127
1, 24660, Note_off_c, 1, 45, 0
1, 25500, Note_on_c, 1, 73, 127
1, 25500, Note_on_c, 1, 68, 127
1, 25500, Note_on_c, 1, 53, 127
1, 25500, Note_on_c, 1, 61, 127
1, 25560, Note_off_c, 1, 73, 0
1, 25560, Note_on_c, 1, 71, 127
1, 25590, Note_off_c, 1, 71, 0
1, 25590, Note_on_c, 1, 69, 127
1, 25620, Note_off_c, 1, 53, 0
1, 25620, Note_off_c, 1, 69, 0
1, 25680, Note_on_c, 1, 54, 127
1, 25740, Note_off_c, 1, 68, 0
1, 25740, Note_on_c, 1, 66, 127
1, 25740, Note_on_c, 1, 62, 127
1, 25800, Note_off_c, 1, 66, 0
1, 25800, Note_off_c, 1, 62, 0
1, 25800, Note_on_c, 1, 64, 127
1, 25860, Note_off_c, 1, 64, 0
1, 25920, Note_off_c, 1, 54, 0
1, 25920, Note_on_c, 1, 65, 127
1, 25920, Note_on_c, 1, 57, 127
1, 25950, Note_on_c, 1, 59, 127
1, 25980, Note_off_c, 1, 65, 0
1, 25980, Note_off_c, 1, 57, 0
1, 25980, Note_off_c, 1, 59, 0
1, 26040, Note_off_c, 1, 61, 0
1, 26040, Note_on_c, 1, 74, 127
1, 26040, Note_on_c, 1, 56, 127
1, 26160, Note_off_c, 1, 56, 0
1, 26280, Note_off_c, 1, 74, 0
1, 26340, Note_on_c, 1, 49, 127
1, 26375, Note_off_c, 1, 49, 0
1, 26520, Note_on_c, 1, 48, 127
1, 26555, Note_off_c, 1, 48, 0
1, 26700, Note_on_c, 1, 37, 127
1, 26735, Note_off_c, 1, 37, 0
1, 26760, Note_on_c, 1, 42, 127
1, 26820, Note_off_c, 1, 42, 0
1, 26820, Note_on_c, 1, 45, 127
1, 26880, Note_off_c, 1, 45, 0
1, 27300, Note_on_c, 1, 47, 127
1, 27420, Note_off_c, 1, 47, 0
1, 27960, Note_on_c, 1, 40, 127
1, 27995, Note_off_c, 1, 40, 0
1, 28020, Note_on_c, 1, 72, 127
1, 28020, Note_on_c, 1, 38, 127
1, 28095, Note_off_c, 1, 72, 0
1, 28140, Note_off_c, 1, 38, 0
1, 28140, Note_on_c, 1, 50, 127
1, 28175, Note_off_c, 1, 50, 0
1, 28440, Note_on_c, 1, 51, 127
1, 28500, Note_off_c, 1, 51, 0
1, 28800, Note_on_c, 1, 63, 127
1, 28860, Note_off_c, 1, 63, 0
1, 30600, Note_on_c, 1, 75, 127
1, 30660, Note_off_c, 1, 75, 0
1, 30660, Note_on_c, 1, 77, 127
1, 30720, Note_off_c, 1, 77, 0
1, 30720, Note_on_c, 1, 78, 127
1, 30755, Note_off_c, 1, 78, 0
1, 31080, Note_on_c, 1, 58, 127
1, 31140, Note_on_c, 1, 70, 127
1, 31140, Note_on_c, 1, 79, 127
1, 31200, Note_off_c, 1, 70, 0
1, 31200, Note_off_c, 1, 79, 0
1, 31260, Note_off_c, 1, 58, 0
1, 31260, Note_on_c, 1, 67, 127
1, 31260, Note_on_c, 1, 76, 127
1, 31320, Note_off_c, 1, 67, 0
1, 31320, Note_off_c, 1, 76, 0
1, 31380, Note_on_c, 1, 46, 127
1, 31440, Note_off_c, 1, 46, 0
1, 31620, Note_on_c, 1, 44, 127
1, 31680, Note_off_c, 1, 44, 0
1, 31740, Note_on_c, 1, 80, 127
1, 31775, Note_off_c, 1, 80, 0
1, 31800, Note_on_c, 1, 41, 127
1, 31920, Note_off_c, 1, 41, 0
1, 33060, Note_on_c, 1, 54, 127
1, 33060, Note_on_c, 1, 66, 127
1, 33060, Note_on_c, 1, 69, 127
1, 33060, Note_on_c, 1, 73, 127
1, 33120, Note_off_c, 1, 54, 0
1, 33120, Note_off_c, 1, 66, 0
1, 33120, Note_off_c, 1, 69, 0
1, 33120, Note_on_c, 1, 78, 127
1, 33120, Note_on_c, 1, 57, 127
1, 33180, Note_off_c, 1, 73, 0
1, 33180, Note_off_c, 1, 78, 0
1, 33180, Note_off_c, 1, 57, 0
1, 33180, Note_on_c, 1, 76, 127
1, 33180, Note_on_c, 1, 71, 127
1, 33180, Note_on_c, 1, 56, 127
1, 33215, Note_off_c, 1, 56, 0
1, 33240, Note_off_c, 1, 76, 0
1, 33240, Note_on_c, 1, 74, 127
1, 33300, Note_off_c, 1, 71, 0
1, 33300, Note_off_c, 1, 74, 0
1, 33360, Note_on_c, 1, 52, 127
1, 33360, Note_on_c, 1, 68, 127
1, 33395, Note_off_c, 1, 52, 0
1, 33420, Note_off_c, 1, 68, 0
1, 33420, Note_on_c, 1, 49, 127
1, 33420, Note_on_c, 1, 64, 127
1, 33480, Note_off_c, 1, 49, 0
1, 33480, Note_off_c, 1, 64, 0
1, 33480, Note_on_c, 1, 50, 127
1, 33480, Note_on_c, 1, 61, 127
1, 33540, Note_off_c, 1, 50, 0
1, 33540, Note_off_c, 1, 61, 0
1, 33540, Note_on_c, 1, 59, 127
1, 33600, Note_off_c, 1, 59, 0
1, 33600, Note_on_c, 1, 45, 127
1, 33660, Note_on_c, 1, 62, 127
1, 33720, Note_off_c, 1, 45, 0
1, 33720, Note_off_c, 1, 62, 0
1, 33780, Note_on_c, 1, 47, 127
1, 33900, Note_off_c, 1, 47, 0
1, 34980, Note_on_c, 1, 80, 127
1, 35040, Note_off_c, 1, 80, 0
1, 35040, Note_on_c, 1, 81, 127
1, 35075, Note_off_c, 1, 81, 0
1, 35220, Note_on_c, 1, 71, 127
1, 35220, Note_on_c, 1, 68, 127
1, 35280, Note_off_c, 1, 71, 0
1, 35280, Note_off_c, 1, 68, 0
1, 35280, Note_on_c, 1, 69, 127
1, 35315, Note_off_c, 1, 69, 0
1, 35340, Note_on_c, 1, 80, 127
1, 35340, Note_on_c, 1, 62, 127
1, 35400, Note_off_c, 1, 80, 0
1, 35400, Note_off_c, 1, 62, 0
1, 35400, Note_on_c, 1, 81, 127
1, 35400, Note_on_c, 1, 61, 127
1, 35400, Note_on_c, 1, 54, 127
1, 35400, Note_on_c, 1, 66, 127
1, 35400, Note_on_c, 1, 69, 127
1, 35400, Note_on_c, 1, 73, 127
1, 35435, Note_off_c, 1, 81, 0
1, 35435, Note_off_c, 1, 61, 0
1, 35460, Note_on_c, 1, 64, 127
1, 35520, Note_off_c, 1, 54, 0
1, 35520, Note_off_c, 1, 69, 0
1, 35520, Note_off_c, 1, 73, 0
1, 35520, Note_off_c, 1, 64, 0
1, 35520, Note_on_c, 1, 74, 127
1, 35555, Note_off_c, 1, 66, 0
1, 35555, Note_off_c, 1, 74, 0
1, 35580, Note_on_c, 1, 71, 127
1, 35580, Note_on_c, 1, 68, 127
1, 35640, Note_off_c, 1, 71, 0
1, 35640, Note_off_c, 1, 68, 0
1, 35640, Note_on_c, 1, 69, 127
1, 35675, Note_off_c, 1, 69, 0
1, 35700, Note_on_c, 1, 79, 127
1, 35700, Note_on_c, 1, 52, 127
1, 35700, Note_on_c, 1, 67, 127
1, 35700, Note_on_c, 1, 69, 127
1, 35700, Note_on_c, 1, 73, 127
1, 35760, Note_off_c, 1, 79, 0
1, 35760, Note_off_c, 1, 52, 0
1, 35760, Note_off_c, 1, 67, 0
1, 35760, Note_off_c, 1, 73, 0
1, 35760, Note_on_c, 1, 78, 127
1, 35760, Note_on_c, 1, 50, 127
1, 35760, Note_on_c, 1, 74, 127
1, 35760, Note_on_c, 1, 66, 127
1, 35795, Note_off_c, 1, 50, 0
1, 35820, Note_on_c, 1, 62, 127
1, 35880, Note_off_c, 1, 74, 0
1, 35880, Note_off_c, 1, 66, 0
1, 35880, Note_off_c, 1, 62, 0
1, 35880, Note_on_c, 1, 61, 127
1, 35880, Note_on_c, 1, 76, 127
1, 35915, Note_off_c, 1, 61, 0
1, 35940, Note_off_c, 1, 69, 0
1, 35940, Note_off_c, 1, 76, 0
1, 35940, Note_on_c, 1, 59, 127
1, 36000, Note_off_c, 1, 59, 0
1, 36000, Note_on_c, 1, 54, 127
1, 36035, Note_off_c, 1, 54, 0
1, 36060, Note_off_c, 1, 78, 0
1, 36060, Note_on_c, 1, 71, 127
1, 36060, Note_on_c, 1, 57, 127
1, 36095, Note_off_c, 1, 57, 0
1, 36120, Note_off_c, 1, 71, 0
1, 36120, Note_on_c, 1, 56, 127
1, 36120, Note_on_c, 1, 68, 127
1, 36180, Note_off_c, 1, 56, 0
1, 36300, Note_off_c, 1, 68, 0
1, 36420, Note_on_c, 1, 64, 127
1, 36480, Note_off_c, 1, 64, 0
1, 36660, Note_on_c, 1, 73, 127
1, 36660, Note_on_c, 1, 52, 127
1, 36660, Note_on_c, 1, 69, 127
1, 36671, Note_on_c, 1, 74, 127
1, 36684, Note_off_c, 1, 74, 0
1, 36720, Note_on_c, 1, 71, 127
1, 36780, Note_off_c, 1, 73, 0
1, 36780, Note_off_c, 1, 52, 0
1, 36780, Note_off_c, 1, 71, 0
1, 36815, Note_off_c, 1, 69, 0
1, 36840, Note_on_c, 1, 69, 127
1, 36840, Note_on_c, 1, 54, 127
1, 36840, Note_on_c, 1, 73, 127
1, 36900, Note_on_c, 1, 76, 127
1, 36960, Note_off_c, 1, 69, 0
1, 36960, Note_off_c, 1, 54, 0
1, 36960, Note_off_c, 1, 76, 0
1, 36995, Note_off_c, 1, 73, 0
1, 37020, Note_on_c, 1, 69, 127
1, 37020, Note_on_c, 1, 49, 127
1, 37020, Note_on_c, 1, 64, 127
1, 37080, Note_on_c, 1, 76, 127
1, 37115, Note_off_c, 1, 76, 0
1, 37140, Note_off_c, 1, 69, 0
1, 37140, Note_off_c, 1, 49, 0
1, 37200, Note_off_c, 1, 64, 0
1, 37200, Note_on_c, 1, 66, 127
1, 37200, Note_on_c, 1, 50, 127
1, 37260, Note_on_c, 1, 68, 127
1, 37320, Note_off_c, 1, 66, 0
1, 37320, Note_off_c, 1, 50, 0
1, 37320, Note_off_c, 1, 68, 0
1, 37380, Note_on_c, 1, 73, 127
1, 37380, Note_on_c, 1, 52, 127
1, 37380, Note_on_c, 1, 74, 127
1, 37380, Note_on_c, 1, 68, 127
1, 37391, Note_off_c, 1, 73, 0
1, 37410, Note_off_c, 1, 74, 0
1, 37410, Note_off_c, 1, 68, 0
1, 37440, Note_on_c, 1, 71, 127
1, 37500, Note_off_c, 1, 52, 0
1, 37500, Note_off_c, 1, 71, 0
1, 37500, Note_on_c, 1, 69, 127
1, 37560, Note_on_c, 1, 57, 127
1, 37570, Note_on_c, 1, 61, 127
1, 37580, Note_on_c, 1, 64, 127
1, 37590, Note_off_c, 1, 57, 0
1, 37590, Note_on_c, 1, 56, 127
1, 37620, Note_off_c, 1, 56, 0
1, 37740, Note_off_c, 1, 61, 0
1, 37740, Note_on_c, 1, 49, 127
1, 37740, Note_on_c, 1, 45, 127
1, 37800, Note_off_c, 1, 45, 0
1, 37860, Note_off_c, 1, 69, 0
1, 37860, Note_off_c, 1, 49, 0
1, 37860, Note_on_c, 1, 62, 127
1, 37860, Note_on_c, 1, 59, 127
1, 37920, Note_off_c, 1, 62, 0
1, 37920, Note_off_c, 1, 59, 0
1, 38040, Note_on_c, 1, 76, 127
1, 38075, Note_off_c, 1, 76, 0
1, 38100, Note_on_c, 1, 66, 127
1, 38100, Note_on_c, 1, 50, 127
1, 38220, Note_off_c, 1, 66, 0
1, 38220, Note_off_c, 1, 50, 0
1, 38460, Note_off_c, 1, 64, 0
1, 38460, Note_on_c, 1, 54, 127
1, 38520, Note_off_c, 1, 54, 0
1, 38760, Note_on_c, 1, 81, 127
1, 38795, Note_off_c, 1, 81, 0
1, 38820, Note_on_c, 1, 47, 127
1, 38940, Note_off_c, 1, 47, 0
1, 39030, Note_on_c, 1, 51, 127
1, 39060, Note_off_c, 1, 51, 0
1, 39180, Note_on_c, 1, 40, 127
1, 39215, Note_off_c, 1, 40, 0
1, 39600, Note_on_c, 1, 58, 127
1, 39635, Note_off_c, 1, 58, 0
1, 39780, Note_on_c, 1, 78, 127
1, 39840, Note_off_c, 1, 78, 0
1, 39840, Note_on_c, 1, 79, 127
1, 39900, Note_off_c, 1, 79, 0
1, 39900, Note_on_c, 1, 70, 127
1, 40020, Note_off_c, 1, 70, 0
1, 40920, Note_on_c, 1, 67, 127
1, 40980, Note_off_c, 1, 67, 0
1, 41220, Note_on_c, 1, 80, 127
1, 41280, Note_off_c, 1, 80, 0
1, 41340, Note_on_c, 1, 44, 127
1, 41460, Note_off_c, 1, 44, 0
1, 42060, Note_on_c, 1, 53, 127
1, 42120, Note_off_c, 1, 53, 0
1, 42180, Note_on_c, 1, 74, 127
1, 42180, Note_on_c, 1, 68, 127
1, 42180, Note_on_c, 1, 47, 127
1, 42180, Note_on_c, 1, 59, 127
1, 42180, Note_on_c, 1, 71, 127
1, 42215, Note_off_c, 1, 47, 0
1, 42240, Note_off_c, 1, 74, 0
1, 42240, Note_off_c, 1, 68, 0
1, 42240, Note_off_c, 1, 59, 0
1, 42240, Note_off_c, 1, 71, 0
1, 42240, Note_on_c, 1, 73, 127
1, 42240, Note_on_c, 1, 69, 127
1, 42240, Note_on_c, 1, 49, 127
1, 42240, Note_on_c, 1, 52, 127
1, 42240, Note_on_c, 1, 61, 127
1, 42240, Note_on_c, 1, 64, 127
1, 42275, Note_off_c, 1, 73, 0
1, 42300, Note_on_c, 1, 76, 127
1, 42360, Note_off_c, 1, 76, 0
1, 42360, Note_on_c, 1, 78, 127
1, 42360, Note_on_c, 1, 62, 127
1, 42395, Note_off_c, 1, 78, 0
1, 42395, Note_off_c, 1, 62, 0
1, 42420, Note_off_c, 1, 69, 0
1, 42420, Note_off_c, 1, 49, 0
1, 42420, Note_off_c, 1, 61, 0
1, 42420, Note_off_c, 1, 64, 0
1, 42420, Note_on_c, 1, 80, 127
1, 42480, Note_off_c, 1, 80, 0
1, 42480, Note_on_c, 1, 81, 127
1, 42480, Note_on_c, 1, 57, 127
1, 42515, Note_off_c, 1, 81, 0
1, 42515, Note_off_c, 1, 57, 0
1, 42540, Note_on_c, 1, 67, 127
1, 42540, Note_on_c, 1, 45, 127
1, 42600, Note_off_c, 1, 67, 0
1, 42600, Note_off_c, 1, 45, 0
1, 42600, Note_on_c, 1, 66, 127
1, 42600, Note_on_c, 1, 50, 127
1, 42630, Note_off_c, 1, 52, 0
1, 42630, Note_on_c, 1, 55, 127
1, 42635, Note_off_c, 1, 50, 0
1, 42660, Note_off_c, 1, 55, 0
1, 42660, Note_on_c, 1, 54, 127
1, 42690, Note_off_c, 1, 54, 0
1, 42720, Note_on_c, 1, 70, 127
1, 42780, Note_off_c, 1, 70, 0
1, 42840, Note_on_c, 1, 42, 127
1, 42875, Note_off_c, 1, 42, 0
1, 42900, Note_off_c, 1, 66, 0
1, 42960, Note_on_c, 1, 43, 127
1, 43080, Note_off_c, 1, 43, 0
1, 43140, Note_on_c, 1, 46, 127
1, 43260, Note_off_c, 1, 46, 0
1, 43260, Note_on_c, 1, 58, 127
1, 43320, Note_off_c, 1, 58, 0
1, 43500, Note_on_c, 1, 65, 127
1, 43500, Note_on_c, 1, 56, 127
1, 43560, Note_off_c, 1, 65, 0
1, 43560, Note_off_c, 1, 56, 0
1, 43560, Note_on_c, 1, 53, 127
1, 43595, Note_off_c, 1, 53, 0
1, 46200, Note_on_c, 1, 51, 127
1, 46207, Note_on_c, 1, 60, 127
1, 46215, Note_on_c, 1, 63, 127
1, 46260, Note_off_c, 1, 51, 0
1, 46320, Note_off_c, 1, 63, 0
1, 46355, Note_off_c, 1, 60, 0
1, 46380, Note_on_c, 1, 72, 127
1, 46620, Note_off_c, 1, 72, 0
1, 47460, Note_on_c, 1, 69, 127
1, 47460, Note_on_c, 1, 64, 127
1, 47460, Note_on_c, 1, 49, 127
1, 47580, Note_off_c, 1, 69, 0
1, 47580, Note_off_c, 1, 64, 0
1, 47580, Note_off_c, 1, 49, 0
1, 47580, Note_on_c, 1, 71, 127
1, 47580, Note_on_c, 1, 68, 127
1, 47580, Note_on_c, 1, 47, 127
1, 47580, Note_on_c, 1, 62, 127
1, 47615, Note_off_c, 1, 47, 0
1, 47640, Note_off_c, 1, 71, 0
1, 47640, Note_off_c, 1, 68, 0
1, 47640, Note_off_c, 1, 62, 0
1, 47640, Note_on_c, 1, 73, 127
1, 47640, Note_on_c, 1, 45, 127
1, 47700, Note_on_c, 1, 74, 127
1, 47760, Note_off_c, 1, 45, 0
1, 47760, Note_off_c, 1, 74, 0
1, 47760, Note_on_c, 1, 76, 127
1, 47760, Note_on_c, 1, 57, 127
1, 47795, Note_off_c, 1, 76, 0
1, 47795, Note_off_c, 1, 57, 0
1, 47820, Note_off_c, 1, 73, 0
1, 47820, Note_on_c, 1, 50, 127
1, 47820, Note_on_c, 1, 66, 127
1, 47940, Note_off_c, 1, 50, 0
1, 47940, Note_off_c, 1, 66, 0
1, 47940, Note_on_c, 1, 52, 127
1, 47975, Note_off_c, 1, 52, 0
1, 48480, Note_on_c, 1, 81, 127
1, 48515, Note_off_c, 1, 81, 0
1, 48840, Note_on_c, 1, 54, 127
1, 48875, Note_off_c, 1, 54, 0
1, 48900, Note_on_c, 1, 56, 127
1, 48960, Note_off_c, 1, 56, 0
1, 48960, Note_on_c, 1, 61, 127
1, 49020, Note_off_c, 1, 61, 0
1, 49020, Note_on_c, 1, 59, 127
1, 49055, Note_off_c, 1, 59, 0
1, 49200, Note_on_c, 1, 78, 127
1, 49235, Note_off_c, 1, 78, 0
1, 49260, Note_on_c, 1, 80, 127
1, 49260, Note_on_c, 1, 59, 127
1, 49320, Note_off_c, 1, 80, 0
1, 49320, Note_off_c, 1, 59, 0
1, 49320, Note_on_c, 1, 81, 127
1, 49320, Note_on_c, 1, 57, 127
1, 49331, Note_off_c, 1, 57, 0
1, 49355, Note_off_c, 1, 81, 0
1, 49380, Note_on_c, 1, 74, 127
1, 49380, Note_on_c, 1, 68, 127
1, 49440, Note_off_c, 1, 74, 0
1, 49440, Note_off_c, 1, 68, 0
1, 49440, Note_on_c, 1, 73, 127
1, 49440, Note_on_c, 1, 69, 127
1, 49440, Note_on_c, 1, 54, 127
1, 49440, Note_on_c, 1, 66, 127
1, 49500, Note_on_c, 1, 76, 127
1, 49500, Note_on_c, 1, 61, 127
1, 49560, Note_off_c, 1, 73, 0
1, 49560, Note_off_c, 1, 69, 0
1, 49560, Note_off_c, 1, 66, 0
1, 49560, Note_off_c, 1, 76, 0
1, 49560, Note_off_c, 1, 61, 0
1, 49560, Note_on_c, 1, 78, 127
1, 49560, Note_on_c, 1, 62, 127
1, 49595, Note_off_c, 1, 78, 0
1, 49595, Note_off_c, 1, 62, 0
1, 49620, Note_off_c, 1, 54, 0
1, 49620, Note_on_c, 1, 80, 127
1, 49620, Note_on_c, 1, 59, 127
1, 49680, Note_off_c, 1, 80, 0
1, 49680, Note_off_c, 1, 59, 0
1, 49680, Note_on_c, 1, 81, 127
1, 49680, Note_on_c, 1, 57, 127
1, 49715, Note_off_c, 1, 81, 0
1, 49715, Note_off_c, 1, 57, 0
1, 49740, Note_on_c, 1, 67, 127
1, 49740, Note_on_c, 1, 52, 127
1, 49740, Note_on_c, 1, 69, 127
1, 49740, Note_on_c, 1, 73, 127
1, 49800, Note_off_c, 1, 67, 0
1, 49800, Note_off_c, 1, 52, 0
1, 49800, Note_off_c, 1, 73, 0
1, 49800, Note_on_c, 1, 66, 127
1, 49800, Note_on_c, 1, 50, 127
1, 49800, Note_on_c, 1, 74, 127
1, 49835, Note_off_c, 1, 50, 0
1, 49860, Note_on_c, 1, 62, 127
1, 49920, Note_off_c, 1, 62, 0
1, 49920, Note_on_c, 1, 61, 127
1, 49955, Note_off_c, 1, 61, 0
1, 49980, Note_off_c, 1, 69, 0
1, 49980, Note_on_c, 1, 59, 127
1, 49980, Note_on_c, 1, 71, 127
1, 50040, Note_off_c, 1, 59, 0
1, 50040, Note_on_c, 1, 56, 127
1, 50075, Note_off_c, 1, 56, 0
1, 50100, Note_on_c, 1, 57, 127
1, 50135, Note_off_c, 1, 57, 0
1, 50160, Note_off_c, 1, 66, 0
1, 50160, Note_off_c, 1, 71, 0
1, 50160, Note_on_c, 1, 64, 127
1, 50160, Note_on_c, 1, 68, 127
1, 50160, Note_on_c, 1, 76, 127
1, 50220, Note_on_c, 1, 54, 127
1, 50280, Note_off_c, 1, 54, 0
1, 50340, Note_off_c, 1, 74, 0
1, 50340, Note_off_c, 1, 68, 0
1, 50435, Note_off_c, 1, 64, 0
1, 50460, Note_off_c, 1, 76, 0
1, 50700, Note_on_c, 1, 73, 127
1, 50700, Note_on_c, 1, 64, 127
1, 50700, Note_on_c, 1, 52, 127
1, 50700, Note_on_c, 1, 61, 127
1, 50700, Note_on_c, 1, 69, 127
1, 50711, Note_off_c, 1, 73, 0
1, 50711, Note_on_c, 1, 74, 127
1, 50724, Note_off_c, 1, 74, 0
1, 50760, Note_on_c, 1, 71, 127
1, 50760, Note_on_c, 1, 62, 127
1, 50820, Note_off_c, 1, 64, 0
1, 50820, Note_off_c, 1, 52, 0
1, 50820, Note_off_c, 1, 71, 0
1, 50820, Note_off_c, 1, 62, 0
1, 50855, Note_off_c, 1, 69, 0
1, 50880, Note_on_c, 1, 54, 127
1, 50880, Note_on_c, 1, 66, 127
1, 50940, Note_off_c, 1, 61, 0
1, 50940, Note_on_c, 1, 76, 127
1, 50940, Note_on_c, 1, 57, 127
1, 51000, Note_off_c, 1, 54, 0
1, 51000, Note_off_c, 1, 66, 0
1, 51000, Note_off_c, 1, 76, 0
1, 51000, Note_off_c, 1, 57, 0
1, 51060, Note_on_c, 1, 69, 127
1, 51060, Note_on_c, 1, 64, 127
1, 51060, Note_on_c, 1, 49, 127
1, 51060, Note_on_c, 1, 61, 127
1, 51120, Note_on_c, 1, 76, 127
1, 51155, Note_off_c, 1, 76, 0
1, 51180, Note_off_c, 1, 69, 0
1, 51180, Note_off_c, 1, 49, 0
1, 51180, Note_off_c, 1, 61, 0
1, 51180, Note_on_c, 1, 73, 127
1, 51215, Note_off_c, 1, 73, 0
1, 51240, Note_off_c, 1, 64, 0
1, 51240, Note_on_c, 1, 66, 127
1, 51240, Note_on_c, 1, 71, 127
1, 51240, Note_on_c, 1, 50, 127
1, 51240, Note_on_c, 1, 62, 127
1, 51300, Note_off_c, 1, 71, 0
1, 51300, Note_on_c, 1, 68, 127
1, 51300, Note_on_c, 1, 74, 127
1, 51360, Note_off_c, 1, 66, 0
1, 51360, Note_off_c, 1, 50, 0
1, 51360, Note_off_c, 1, 62, 0
1, 51360, Note_off_c, 1, 68, 0
1, 51360, Note_off_c, 1, 74, 0
1, 51420, Note_on_c, 1, 73, 127
1, 51420, Note_on_c, 1, 64, 127
1, 51420, Note_on_c, 1, 52, 127
1, 51420, Note_on_c, 1, 68, 127
1, 51431, Note_on_c, 1, 74, 127
1, 51444, Note_off_c, 1, 74, 0
1, 51480, Note_off_c, 1, 73, 0
1, 51480, Note_off_c, 1, 64, 0
1, 51480, Note_on_c, 1, 71, 127
1, 51540, Note_off_c, 1, 52, 0
1, 51540, Note_off_c, 1, 68, 0
1, 51540, Note_off_c, 1, 71, 0
1, 51540, Note_on_c, 1, 69, 127
1, 51600, Note_on_c, 1, 61, 127
1, 51600, Note_on_c, 1, 45, 127
1, 51780, Note_off_c, 1, 69, 0
1, 51780, Note_off_c, 1, 61, 0
1, 51780, Note_off_c, 1, 45, 0
1, 51780, End_track
0, 0, End_of_file