0, 0, Header, 1, 1, 480
1, 0, Start_track
1, 0, Title_t, "Test"
1, 0, Tempo, 500000
1, 0, Instrument_name_t, "Church Organ"
1, 1024, Note_on_c, 1, 62, 127
1, 1024, Note_on_c, 1, 50, 127
1, 1280, Note_off_c, 1, 62, 0
1, 1280, Note_off_c, 1, 50, 0
1, 1536, Note_on_c, 1, 69, 127
1, 1536, Note_on_c, 1, 57, 127
1, 1792, Note_off_c, 1, 69, 0
1, 1792, Note_off_c, 1, 57, 0
1, 2048, Note_on_c, 1, 57, 127
1, 2048, Note_on_c, 1, 69, 127
1, 2304, Note_off_c, 1, 57, 0
1, 2304, Note_off_c, 1, 69, 0
1, 2304, Note_on_c, 1, 54, 127
1, 2509, Note_off_c, 1, 54, 0
1, 2560, Note_on_c, 1, 55, 127
1, 2560, Note_on_c, 1, 69, 127
1, 2560, Note_on_c, 1, 57, 127
1, 2765, Note_off_c, 1, 55, 0
1, 2816, Note_off_c, 1, 69, 0
1, 2816, Note_off_c, 1, 57, 0
1, 2816, Note_on_c, 1, 52, 127
1, 3021, Note_off_c, 1, 52, 0
1, 3072, Note_on_c, 1, 54, 127
1, 3072, Note_on_c, 1, 74, 127
1, 3072, Note_on_c, 1, 62, 127
1, 3328, Note_off_c, 1, 54, 0
1, 3328, Note_off_c, 1, 74, 0
1, 3328, Note_off_c, 1, 62, 0
1, 3584, Note_on_c, 1, 81, 127
1, 3584, Note_on_c, 1, 78, 127
1, 3584, Note_on_c, 1, 50, 127
1, 3584, Note_on_c, 1, 69, 127
1, 3584, Note_on_c, 1, 57, 127
1, 3789, Note_off_c, 1, 81, 0
1, 3789, Note_off_c, 1, 78, 0
1, 3840, Note_off_c, 1, 50, 0
1, 3840, Note_off_c, 1, 69, 0
1, 3840, Note_off_c, 1, 57, 0
1, 3840, Note_on_c, 1, 74, 127
1, 4045, Note_off_c, 1, 74, 0
1, 4096, Note_on_c, 1, 79, 127
1, 4096, Note_on_c, 1, 76, 127
1, 4096, Note_on_c, 1, 57, 127
1, 4301, Note_off_c, 1, 79, 0
1, 4301, Note_off_c, 1, 76, 0
1, 4352, Note_off_c, 1, 57, 0
1, 4352, Note_on_c, 1, 73, 127
1, 4557, Note_off_c, 1, 73, 0
1, 4608, Note_on_c, 1, 78, 127
1, 4608, Note_on_c, 1, 74, 127
1, 4608, Note_on_c, 1, 62, 127
1, 4813, Note_off_c, 1, 78, 0
1, 4864, Note_off_c, 1, 74, 0
1, 4864, Note_off_c, 1, 62, 0
1, 4864, Note_on_c, 1, 76, 127
1, 5069, Note_off_c, 1, 76, 0
1, 5120, Note_on_c, 1, 74, 127
1, 5120, Note_on_c, 1, 69, 127
1, 5120, Note_on_c, 1, 54, 127
1, 5120, Note_on_c, 1, 81, 127
1, 5120, Note_on_c, 1, 78, 127
1, 5325, Note_off_c, 1, 74, 0
1, 5325, Note_off_c, 1, 69, 0
1, 5325, Note_off_c, 1, 81, 0
1, 5325, Note_off_c, 1, 78, 0
1, 5376, Note_off_c, 1, 54, 0
1, 5632, Note_on_c, 1, 76, 127
1, 5632, Note_on_c, 1, 73, 127
1, 5632, Note_on_c, 1, 57, 127
1, 5632, Note_on_c, 1, 79, 127
1, 5837, Note_off_c, 1, 76, 0
1, 5837, Note_off_c, 1, 73, 0
1, 5837, Note_off_c, 1, 79, 0
1, 5888, Note_off_c, 1, 57, 0
1, 6144, Note_on_c, 1, 78, 127
1, 6144, Note_on_c, 1, 74, 127
1, 6144, Note_on_c, 1, 50, 127
1, 6349, Note_off_c, 1, 78, 0
1, 6400, Note_off_c, 1, 74, 0
1, 6400, Note_off_c, 1, 50, 0
1, 6400, Note_on_c, 1, 79, 127
1, 6400, Note_on_c, 1, 76, 127
1, 6605, Note_off_c, 1, 79, 0
1, 6605, Note_off_c, 1, 76, 0
1, 6656, Note_on_c, 1, 81, 127
1, 6656, Note_on_c, 1, 78, 127
1, 6656, Note_on_c, 1, 42, 127
1, 6656, Note_on_c, 1, 74, 127
1, 6656, Note_on_c, 1, 69, 127
1, 6861, Note_off_c, 1, 74, 0
1, 6861, Note_off_c, 1, 69, 0
1, 6912, Note_off_c, 1, 81, 0
1, 6912, Note_off_c, 1, 42, 0
1, 7117, Note_off_c, 1, 78, 0
1, 7168, Note_on_c, 1, 78, 127
1, 7168, Note_on_c, 1, 73, 127
1, 7168, Note_on_c, 1, 45, 127
1, 7168, Note_on_c, 1, 79, 127
1, 7168, Note_on_c, 1, 76, 127
1, 7296, Note_off_c, 1, 78, 0
1, 7373, Note_off_c, 1, 79, 0
1, 7424, Note_off_c, 1, 45, 0
1, 7629, Note_off_c, 1, 73, 0
1, 7680, Note_off_c, 1, 76, 0
1, 7680, Note_on_c, 1, 74, 127
1, 7680, Note_on_c, 1, 69, 127
1, 7680, Note_on_c, 1, 50, 127
1, 7936, Note_off_c, 1, 74, 0
1, 7936, Note_off_c, 1, 69, 0
1, 7936, Note_off_c, 1, 50, 0
1, 8192, Note_on_c, 1, 78, 127
1, 8192, Note_on_c, 1, 62, 127
1, 8192, Note_on_c, 1, 81, 127
1, 8192, Note_on_c, 1, 50, 127
1, 8192, Note_on_c, 1, 86, 127
1, 8192, Note_on_c, 1, 66, 127
1, 8192, Note_on_c, 1, 42, 127
1, 8192, Note_on_c, 1, 74, 127
1, 8192, Note_on_c, 1, 69, 127
1, 8192, Note_on_c, 1, 57, 127
1, 8397, Note_off_c, 1, 74, 0
1, 8397, Note_off_c, 1, 69, 0
1, 8448, Note_off_c, 1, 62, 0
1, 8448, Note_off_c, 1, 81, 0
1, 8448, Note_off_c, 1, 50, 0
1, 8448, Note_off_c, 1, 86, 0
1, 8448, Note_off_c, 1, 66, 0
1, 8448, Note_off_c, 1, 42, 0
1, 8448, Note_off_c, 1, 57, 0
1, 8653, Note_off_c, 1, 78, 0
1, 8704, Note_on_c, 1, 76, 127
1, 8704, Note_on_c, 1, 69, 127
1, 8704, Note_on_c, 1, 79, 127
1, 8704, Note_on_c, 1, 45, 127
1, 8704, Note_on_c, 1, 81, 127
1, 8704, Note_on_c, 1, 73, 127
1, 8704, Note_on_c, 1, 57, 127
1, 8704, Note_on_c, 1, 78, 127
1, 8832, Note_off_c, 1, 78, 0
1, 8909, Note_off_c, 1, 79, 0
1, 8960, Note_off_c, 1, 69, 0
1, 8960, Note_off_c, 1, 45, 0
1, 8960, Note_off_c, 1, 81, 0
1, 8960, Note_off_c, 1, 57, 0
1, 9165, Note_off_c, 1, 73, 0
1, 9216, Note_off_c, 1, 76, 0
1, 9216, Note_on_c, 1, 74, 127
1, 9216, Note_on_c, 1, 50, 127
1, 9216, Note_on_c, 1, 38, 127
1, 9472, Note_off_c, 1, 74, 0
1, 9472, Note_off_c, 1, 50, 0
1, 9472, Note_off_c, 1, 38, 0
1, 9728, Note_on_c, 1, 81, 127
1, 9728, Note_on_c, 1, 74, 127
1, 9728, Note_on_c, 1, 50, 127
1, 9728, Note_on_c, 1, 78, 127
1, 9728, Note_on_c, 1, 62, 127
1, 9728, Note_on_c, 1, 69, 127
1, 9728, Note_on_c, 1, 66, 127
1, 9933, Note_off_c, 1, 50, 0
1, 9933, Note_off_c, 1, 78, 0
1, 9984, Note_off_c, 1, 81, 0
1, 9984, Note_off_c, 1, 74, 0
1, 9984, Note_off_c, 1, 62, 0
1, 9984, Note_off_c, 1, 69, 0
1, 9984, Note_off_c, 1, 66, 0
1, 9984, Note_on_c, 1, 76, 127
1, 9984, Note_on_c, 1, 52, 127
1, 9984, Note_on_c, 1, 79, 127
1, 10189, Note_off_c, 1, 76, 0
1, 10189, Note_off_c, 1, 52, 0
1, 10189, Note_off_c, 1, 79, 0
1, 10240, Note_on_c, 1, 78, 127
1, 10240, Note_on_c, 1, 69, 127
1, 10240, Note_on_c, 1, 81, 127
1, 10240, Note_on_c, 1, 50, 127
1, 10240, Note_on_c, 1, 74, 127
1, 10240, Note_on_c, 1, 54, 127
1, 10240, Note_on_c, 1, 62, 127
1, 10240, Note_on_c, 1, 66, 127
1, 10496, Note_off_c, 1, 69, 0
1, 10496, Note_off_c, 1, 81, 0
1, 10496, Note_off_c, 1, 74, 0
1, 10496, Note_off_c, 1, 54, 0
1, 10496, Note_off_c, 1, 62, 0
1, 10496, Note_off_c, 1, 66, 0
1, 10701, Note_off_c, 1, 78, 0
1, 10701, Note_off_c, 1, 50, 0
1, 10752, Note_on_c, 1, 76, 127
1, 10752, Note_on_c, 1, 69, 127
1, 10752, Note_on_c, 1, 81, 127
1, 10752, Note_on_c, 1, 45, 127
1, 10752, Note_on_c, 1, 57, 127
1, 10752, Note_on_c, 1, 73, 127
1, 10752, Note_on_c, 1, 64, 127
1, 10752, Note_on_c, 1, 61, 127
1, 11008, Note_off_c, 1, 76, 0
1, 11008, Note_off_c, 1, 45, 0
1, 11008, Note_off_c, 1, 57, 0
1, 11008, Note_off_c, 1, 73, 0
1, 11008, Note_off_c, 1, 64, 0
1, 11008, Note_off_c, 1, 61, 0
1, 11008, Note_on_c, 1, 74, 127
1, 11213, Note_off_c, 1, 74, 0
1, 11264, Note_on_c, 1, 67, 127
1, 11469, Note_off_c, 1, 67, 0
1, 11520, Note_on_c, 1, 78, 127
1, 11520, Note_on_c, 1, 71, 127
1, 11520, Note_on_c, 1, 66, 127
1, 11725, Note_off_c, 1, 78, 0
1, 11725, Note_off_c, 1, 71, 0
1, 11725, Note_off_c, 1, 66, 0
1, 12032, Note_on_c, 1, 79, 127
1, 12237, Note_off_c, 1, 79, 0
1, 12288, Note_on_c, 1, 50, 127
1, 12288, Note_on_c, 1, 62, 127
1, 12544, Note_off_c, 1, 69, 0
1, 12544, Note_off_c, 1, 50, 0
1, 12544, Note_off_c, 1, 62, 0
1, 13056, Note_on_c, 1, 54, 127
1, 13261, Note_off_c, 1, 54, 0
1, 13312, Note_on_c, 1, 55, 127
1, 13517, Note_off_c, 1, 55, 0
1, 13568, Note_on_c, 1, 52, 127
1, 13773, Note_off_c, 1, 52, 0
1, 14080, Note_off_c, 1, 81, 0
1, 14336, Note_on_c, 1, 74, 127
1, 14336, Note_on_c, 1, 79, 127
1, 14336, Note_on_c, 1, 83, 127
1, 14336, Note_on_c, 1, 50, 127
1, 14336, Note_on_c, 1, 73, 127
1, 14336, Note_on_c, 1, 55, 127
1, 14336, Note_on_c, 1, 67, 127
1, 14336, Note_on_c, 1, 62, 127
1, 14541, Note_off_c, 1, 73, 0
1, 14592, Note_off_c, 1, 74, 0
1, 14592, Note_off_c, 1, 79, 0
1, 14592, Note_off_c, 1, 83, 0
1, 14592, Note_off_c, 1, 50, 0
1, 14592, Note_off_c, 1, 55, 0
1, 14592, Note_off_c, 1, 67, 0
1, 14592, Note_off_c, 1, 62, 0
1, 14592, Note_on_c, 1, 71, 127
1, 14797, Note_off_c, 1, 71, 0
1, 14848, Note_on_c, 1, 81, 127
1, 14848, Note_on_c, 1, 76, 127
1, 14848, Note_on_c, 1, 85, 127
1, 14848, Note_on_c, 1, 45, 127
1, 14848, Note_on_c, 1, 69, 127
1, 14848, Note_on_c, 1, 57, 127
1, 14848, Note_on_c, 1, 64, 127
1, 14848, Note_on_c, 1, 61, 127
1, 15053, Note_off_c, 1, 69, 0
1, 15104, Note_off_c, 1, 81, 0
1, 15104, Note_off_c, 1, 76, 0
1, 15104, Note_off_c, 1, 85, 0
1, 15104, Note_off_c, 1, 45, 0
1, 15104, Note_off_c, 1, 57, 0
1, 15104, Note_off_c, 1, 64, 0
1, 15104, Note_off_c, 1, 61, 0
1, 15104, Note_on_c, 1, 67, 127
1, 15309, Note_off_c, 1, 67, 0
1, 15360, Note_on_c, 1, 81, 127
1, 15360, Note_on_c, 1, 78, 127
1, 15360, Note_on_c, 1, 86, 127
1, 15360, Note_on_c, 1, 50, 127
1, 15360, Note_on_c, 1, 66, 127
1, 15360, Note_on_c, 1, 62, 127
1, 15360, Note_on_c, 1, 57, 127
1, 15565, Note_off_c, 1, 81, 0
1, 15565, Note_off_c, 1, 78, 0
1, 15565, Note_off_c, 1, 86, 0
1, 15616, Note_off_c, 1, 50, 0
1, 15616, Note_off_c, 1, 66, 0
1, 15616, Note_off_c, 1, 62, 0
1, 15616, Note_off_c, 1, 57, 0
1, 15616, Note_on_c, 1, 79, 127
1, 15616, Note_on_c, 1, 76, 127
1, 15616, Note_on_c, 1, 85, 127
1, 15821, Note_off_c, 1, 79, 0
1, 15821, Note_off_c, 1, 76, 0
1, 15821, Note_off_c, 1, 85, 0
1, 15872, Note_on_c, 1, 81, 127
1, 15872, Note_on_c, 1, 78, 127
1, 15872, Note_on_c, 1, 86, 127
1, 15872, Note_on_c, 1, 50, 127
1, 15872, Note_on_c, 1, 62, 127
1, 15872, Note_on_c, 1, 38, 127
1, 15872, Note_on_c, 1, 57, 127
1, 15872, Note_on_c, 1, 54, 127
1, 15872, Note_on_c, 1, 66, 127
1, 16077, Note_off_c, 1, 38, 0
1, 16128, Note_off_c, 1, 81, 0
1, 16128, Note_off_c, 1, 78, 0
1, 16128, Note_off_c, 1, 86, 0
1, 16128, Note_off_c, 1, 50, 0
1, 16128, Note_off_c, 1, 62, 0
1, 16128, Note_off_c, 1, 57, 0
1, 16128, Note_off_c, 1, 54, 0
1, 16128, Note_off_c, 1, 66, 0
1, 16128, Note_on_c, 1, 40, 127
1, 16333, Note_off_c, 1, 40, 0
1, 16384, Note_on_c, 1, 42, 127
1, 16384, Note_on_c, 1, 74, 127
1, 16384, Note_on_c, 1, 69, 127
1, 16384, Note_on_c, 1, 62, 127
1, 16384, Note_on_c, 1, 54, 127
1, 16589, Note_off_c, 1, 42, 0
1, 16640, Note_off_c, 1, 74, 0
1, 16640, Note_off_c, 1, 69, 0
1, 16640, Note_off_c, 1, 62, 0
1, 16640, Note_off_c, 1, 54, 0
1, 16640, Note_on_c, 1, 38, 127
1, 16845, Note_off_c, 1, 38, 0
1, 16896, Note_on_c, 1, 43, 127
1, 16896, Note_on_c, 1, 72, 127
1, 16896, Note_on_c, 1, 67, 127
1, 16896, Note_on_c, 1, 62, 127
1, 16896, Note_on_c, 1, 55, 127
1, 17101, Note_off_c, 1, 72, 0
1, 17152, Note_off_c, 1, 43, 0
1, 17152, Note_off_c, 1, 67, 0
1, 17152, Note_off_c, 1, 62, 0
1, 17152, Note_off_c, 1, 55, 0
1, 17152, Note_on_c, 1, 71, 127
1, 17357, Note_off_c, 1, 71, 0
1, 17408, Note_on_c, 1, 55, 127
1, 17408, Note_on_c, 1, 69, 127
1, 17408, Note_on_c, 1, 62, 127
1, 17408, Note_on_c, 1, 59, 127
1, 17408, Note_on_c, 1, 43, 127
1, 17613, Note_off_c, 1, 55, 0
1, 17613, Note_off_c, 1, 69, 0
1, 17664, Note_off_c, 1, 62, 0
1, 17664, Note_off_c, 1, 59, 0
1, 17664, Note_off_c, 1, 43, 0
1, 17664, Note_on_c, 1, 54, 127
1, 17664, Note_on_c, 1, 67, 127
1, 17869, Note_off_c, 1, 54, 0
1, 17869, Note_off_c, 1, 67, 0
1, 17920, Note_on_c, 1, 56, 127
1, 17920, Note_on_c, 1, 76, 127
1, 17920, Note_on_c, 1, 64, 127
1, 17920, Note_on_c, 1, 71, 127
1, 18176, Note_off_c, 1, 56, 0
1, 18176, Note_off_c, 1, 76, 0
1, 18176, Note_off_c, 1, 64, 0
1, 18176, Note_off_c, 1, 71, 0
1, 18176, Note_on_c, 1, 52, 127
1, 18381, Note_off_c, 1, 52, 0
1, 18432, Note_on_c, 1, 57, 127
1, 18432, Note_on_c, 1, 74, 127
1, 18432, Note_on_c, 1, 64, 127
1, 18432, Note_on_c, 1, 69, 127
1, 18637, Note_off_c, 1, 74, 0
1, 18688, Note_off_c, 1, 57, 0
1, 18688, Note_off_c, 1, 64, 0
1, 18688, Note_off_c, 1, 69, 0
1, 18688, Note_on_c, 1, 73, 127
1, 18893, Note_off_c, 1, 73, 0
1, 18944, Note_on_c, 1, 45, 127
1, 18944, Note_on_c, 1, 71, 127
1, 18944, Note_on_c, 1, 61, 127
1, 18944, Note_on_c, 1, 64, 127
1, 19149, Note_off_c, 1, 71, 0
1, 19200, Note_off_c, 1, 45, 0
1, 19200, Note_off_c, 1, 61, 0
1, 19200, Note_off_c, 1, 64, 0
1, 19200, Note_on_c, 1, 42, 127
1, 19200, Note_on_c, 1, 69, 127
1, 19405, Note_off_c, 1, 42, 0
1, 19405, Note_off_c, 1, 69, 0
1, 19456, Note_on_c, 1, 76, 127
1, 19456, Note_on_c, 1, 69, 127
1, 19456, Note_on_c, 1, 81, 127
1, 19456, Note_on_c, 1, 45, 127
1, 19456, Note_on_c, 1, 43, 127
1, 19456, Note_on_c, 1, 61, 127
1, 19456, Note_on_c, 1, 55, 127
1, 19456, Note_on_c, 1, 73, 127
1, 19456, Note_on_c, 1, 64, 127
1, 19661, Note_off_c, 1, 43, 0
1, 19712, Note_off_c, 1, 76, 0
1, 19712, Note_off_c, 1, 69, 0
1, 19712, Note_off_c, 1, 81, 0
1, 19712, Note_off_c, 1, 45, 0
1, 19712, Note_off_c, 1, 61, 0
1, 19712, Note_off_c, 1, 55, 0
1, 19712, Note_off_c, 1, 73, 0
1, 19712, Note_off_c, 1, 64, 0
1, 19712, Note_on_c, 1, 40, 127
1, 19917, Note_off_c, 1, 40, 0
1, 19968, Note_on_c, 1, 74, 127
1, 19968, Note_on_c, 1, 66, 127
1, 19968, Note_on_c, 1, 81, 127
1, 19968, Note_on_c, 1, 50, 127
1, 19968, Note_on_c, 1, 42, 127
1, 19968, Note_on_c, 1, 57, 127
1, 19968, Note_on_c, 1, 78, 127
1, 19968, Note_on_c, 1, 69, 127
1, 19968, Note_on_c, 1, 62, 127
1, 19968, Note_on_c, 1, 54, 127
1, 20224, Note_off_c, 1, 74, 0
1, 20224, Note_off_c, 1, 66, 0
1, 20224, Note_off_c, 1, 81, 0
1, 20224, Note_off_c, 1, 50, 0
1, 20224, Note_off_c, 1, 42, 0
1, 20224, Note_off_c, 1, 57, 0
1, 20224, Note_off_c, 1, 78, 0
1, 20224, Note_off_c, 1, 69, 0
1, 20224, Note_off_c, 1, 62, 0
1, 20224, Note_off_c, 1, 54, 0
1, 20480, Note_on_c, 1, 76, 127
1, 20480, Note_on_c, 1, 69, 127
1, 20480, Note_on_c, 1, 81, 127
1, 20480, Note_on_c, 1, 45, 127
1, 20480, Note_on_c, 1, 79, 127
1, 20480, Note_on_c, 1, 40, 127
1, 20480, Note_on_c, 1, 73, 127
1, 20480, Note_on_c, 1, 64, 127
1, 20480, Note_on_c, 1, 52, 127
1, 20480, Note_on_c, 1, 55, 127
1, 20685, Note_off_c, 1, 81, 0
1, 20736, Note_off_c, 1, 76, 0
1, 20736, Note_off_c, 1, 69, 0
1, 20736, Note_off_c, 1, 45, 0
1, 20736, Note_off_c, 1, 40, 0
1, 20736, Note_off_c, 1, 73, 0
1, 20736, Note_off_c, 1, 64, 0
1, 20736, Note_off_c, 1, 52, 0
1, 20736, Note_off_c, 1, 55, 0
1, 20941, Note_off_c, 1, 79, 0
1, 20992, Note_on_c, 1, 78, 127
1, 20992, Note_on_c, 1, 62, 127
1, 20992, Note_on_c, 1, 81, 127
1, 20992, Note_on_c, 1, 50, 127
1, 20992, Note_on_c, 1, 38, 127
1, 20992, Note_on_c, 1, 74, 127
1, 20992, Note_on_c, 1, 69, 127
1, 20992, Note_on_c, 1, 66, 127
1, 20992, Note_on_c, 1, 57, 127
1, 21197, Note_off_c, 1, 81, 0
1, 21248, Note_off_c, 1, 78, 0
1, 21248, Note_off_c, 1, 62, 0
1, 21248, Note_off_c, 1, 50, 0
1, 21248, Note_off_c, 1, 38, 0
1, 21248, Note_off_c, 1, 74, 0
1, 21248, Note_off_c, 1, 69, 0
1, 21248, Note_off_c, 1, 66, 0
1, 21248, Note_off_c, 1, 57, 0
1, 21248, Note_on_c, 1, 83, 127
1, 21453, Note_off_c, 1, 83, 0
1, 21504, Note_on_c, 1, 76, 127
1, 21504, Note_on_c, 1, 69, 127
1, 21504, Note_on_c, 1, 85, 127
1, 21504, Note_on_c, 1, 45, 127
1, 21504, Note_on_c, 1, 73, 127
1, 21504, Note_on_c, 1, 61, 127
1, 21504, Note_on_c, 1, 57, 127
1, 21504, Note_on_c, 1, 64, 127
1, 21760, Note_off_c, 1, 76, 0
1, 21760, Note_off_c, 1, 69, 0
1, 21760, Note_off_c, 1, 85, 0
1, 21760, Note_off_c, 1, 45, 0
1, 21760, Note_off_c, 1, 73, 0
1, 21760, Note_off_c, 1, 61, 0
1, 21760, Note_off_c, 1, 57, 0
1, 21760, Note_off_c, 1, 64, 0
1, 21760, Note_on_c, 1, 74, 127
1, 21760, Note_on_c, 1, 71, 127
1, 21965, Note_off_c, 1, 74, 0
1, 21965, Note_off_c, 1, 71, 0
1, 22016, Note_on_c, 1, 69, 127
1, 22016, Note_on_c, 1, 45, 127
1, 22016, Note_on_c, 1, 81, 127
1, 22016, Note_on_c, 1, 57, 127
1, 22016, Note_on_c, 1, 73, 127
1, 22016, Note_on_c, 1, 64, 127
1, 22016, Note_on_c, 1, 76, 127
1, 22016, Note_on_c, 1, 61, 127
1, 22272, Note_off_c, 1, 69, 0
1, 22272, Note_off_c, 1, 45, 0
1, 22272, Note_off_c, 1, 81, 0
1, 22272, Note_off_c, 1, 57, 0
1, 22272, Note_off_c, 1, 73, 0
1, 22272, Note_off_c, 1, 64, 0
1, 22272, Note_off_c, 1, 76, 0
1, 22272, Note_off_c, 1, 61, 0
1, 22272, Note_on_c, 1, 59, 127
1, 22477, Note_off_c, 1, 59, 0
1, 22528, Note_on_c, 1, 61, 127
1, 22528, Note_on_c, 1, 64, 127
1, 22733, Note_off_c, 1, 61, 0
1, 22784, Note_off_c, 1, 64, 0
1, 22784, Note_on_c, 1, 57, 127
1, 22989, Note_off_c, 1, 57, 0
1, 23040, Note_on_c, 1, 62, 127
1, 23040, Note_on_c, 1, 66, 127
1, 23245, Note_off_c, 1, 66, 0
1, 23296, Note_off_c, 1, 62, 0
1, 23296, Note_on_c, 1, 64, 127
1, 23501, Note_off_c, 1, 64, 0
1, 23552, Note_on_c, 1, 86, 127
1, 23552, Note_on_c, 1, 81, 127
1, 23552, Note_on_c, 1, 54, 127
1, 23552, Note_on_c, 1, 62, 127
1, 23757, Note_off_c, 1, 62, 0
1, 23808, Note_off_c, 1, 86, 0
1, 23808, Note_off_c, 1, 81, 0
1, 23808, Note_off_c, 1, 54, 0
1, 23808, Note_on_c, 1, 66, 127
1, 24013, Note_off_c, 1, 66, 0
1, 24064, Note_on_c, 1, 85, 127
1, 24064, Note_on_c, 1, 81, 127
1, 24064, Note_on_c, 1, 57, 127
1, 24064, Note_on_c, 1, 64, 127
1, 24269, Note_off_c, 1, 64, 0
1, 24320, Note_off_c, 1, 85, 0
1, 24320, Note_off_c, 1, 81, 0
1, 24320, Note_off_c, 1, 57, 0
1, 24320, Note_on_c, 1, 67, 127
1, 24525, Note_off_c, 1, 67, 0
1, 24576, Note_on_c, 1, 86, 127
1, 24576, Note_on_c, 1, 81, 127
1, 24576, Note_on_c, 1, 50, 127
1, 24576, Note_on_c, 1, 66, 127
1, 24781, Note_off_c, 1, 66, 0
1, 24832, Note_off_c, 1, 86, 0
1, 24832, Note_off_c, 1, 81, 0
1, 24832, Note_off_c, 1, 50, 0
1, 24832, Note_on_c, 1, 64, 127
1, 25037, Note_off_c, 1, 64, 0
1, 25088, Note_on_c, 1, 62, 127
1, 25088, Note_on_c, 1, 66, 127
1, 25088, Note_on_c, 1, 69, 127
1, 25344, Note_off_c, 1, 62, 0
1, 25344, Note_off_c, 1, 66, 0
1, 25344, Note_off_c, 1, 69, 0
1, 25344, Note_on_c, 1, 67, 127
1, 25549, Note_off_c, 1, 67, 0
1, 25600, Note_on_c, 1, 60, 127
1, 25600, Note_on_c, 1, 69, 127
1, 25600, Note_on_c, 1, 64, 127
1, 25600, Note_on_c, 1, 74, 127
1, 25805, Note_off_c, 1, 64, 0
1, 25856, Note_off_c, 1, 60, 0
1, 25856, Note_off_c, 1, 69, 0
1, 25856, Note_off_c, 1, 74, 0
1, 25856, Note_on_c, 1, 66, 127
1, 26061, Note_off_c, 1, 66, 0
1, 26112, Note_on_c, 1, 59, 127
1, 26112, Note_on_c, 1, 71, 127
1, 26112, Note_on_c, 1, 67, 127
1, 26112, Note_on_c, 1, 62, 127
1, 26317, Note_off_c, 1, 71, 0
1, 26368, Note_off_c, 1, 59, 0
1, 26368, Note_off_c, 1, 67, 0
1, 26368, Note_off_c, 1, 62, 0
1, 26368, Note_on_c, 1, 69, 127
1, 26573, Note_off_c, 1, 69, 0
1, 26624, Note_on_c, 1, 47, 127
1, 26624, Note_on_c, 1, 74, 127
1, 26624, Note_on_c, 1, 71, 127
1, 26624, Note_on_c, 1, 67, 127
1, 26624, Note_on_c, 1, 62, 127
1, 26829, Note_off_c, 1, 62, 0
1, 26880, Note_off_c, 1, 47, 0
1, 26880, Note_off_c, 1, 74, 0
1, 27085, Note_off_c, 1, 71, 0
1, 27085, Note_off_c, 1, 67, 0
1, 27136, Note_on_c, 1, 50, 127
1, 27136, Note_on_c, 1, 72, 127
1, 27136, Note_on_c, 1, 69, 127
1, 27136, Note_on_c, 1, 66, 127
1, 27392, Note_off_c, 1, 50, 0
1, 27392, Note_off_c, 1, 66, 0
1, 27597, Note_off_c, 1, 72, 0
1, 27597, Note_off_c, 1, 69, 0
1, 27648, Note_on_c, 1, 43, 127
1, 27648, Note_on_c, 1, 71, 127
1, 27648, Note_on_c, 1, 67, 127
1, 27648, Note_on_c, 1, 62, 127
1, 27904, Note_off_c, 1, 43, 0
1, 27904, Note_off_c, 1, 71, 0
1, 27904, Note_off_c, 1, 67, 0
1, 27904, Note_off_c, 1, 62, 0
1, 27904, Note_on_c, 1, 69, 127
1, 27904, Note_on_c, 1, 66, 127
1, 28109, Note_off_c, 1, 69, 0
1, 28109, Note_off_c, 1, 66, 0
1, 28160, Note_on_c, 1, 88, 127
1, 28160, Note_on_c, 1, 79, 127
1, 28160, Note_on_c, 1, 55, 127
1, 28160, Note_on_c, 1, 71, 127
1, 28160, Note_on_c, 1, 67, 127
1, 28365, Note_off_c, 1, 71, 0
1, 28365, Note_off_c, 1, 67, 0
1, 28416, Note_off_c, 1, 88, 0
1, 28416, Note_off_c, 1, 79, 0
1, 28416, Note_off_c, 1, 55, 0
1, 28416, Note_on_c, 1, 73, 127
1, 28416, Note_on_c, 1, 69, 127
1, 28621, Note_off_c, 1, 73, 0
1, 28621, Note_off_c, 1, 69, 0
1, 28672, Note_on_c, 1, 86, 127
1, 28672, Note_on_c, 1, 83, 127
1, 28672, Note_on_c, 1, 52, 127
1, 28672, Note_on_c, 1, 69, 127
1, 28672, Note_on_c, 1, 66, 127
1, 28672, Note_on_c, 1, 55, 127
1, 28877, Note_off_c, 1, 69, 0
1, 28877, Note_off_c, 1, 66, 0
1, 28928, Note_off_c, 1, 86, 0
1, 28928, Note_off_c, 1, 83, 0
1, 28928, Note_off_c, 1, 52, 0
1, 28928, Note_off_c, 1, 55, 0
1, 28928, Note_on_c, 1, 71, 127
1, 28928, Note_on_c, 1, 67, 127
1, 29133, Note_off_c, 1, 71, 0
1, 29133, Note_off_c, 1, 67, 0
1, 29184, Note_on_c, 1, 85, 127
1, 29184, Note_on_c, 1, 81, 127
1, 29184, Note_on_c, 1, 57, 127
1, 29184, Note_on_c, 1, 73, 127
1, 29184, Note_on_c, 1, 64, 127
1, 29389, Note_off_c, 1, 73, 0
1, 29440, Note_off_c, 1, 85, 0
1, 29440, Note_off_c, 1, 81, 0
1, 29440, Note_off_c, 1, 57, 0
1, 29440, Note_off_c, 1, 64, 0
1, 29440, Note_on_c, 1, 76, 127
1, 29440, Note_on_c, 1, 55, 127
1, 29645, Note_off_c, 1, 76, 0
1, 29645, Note_off_c, 1, 55, 0
1, 29696, Note_on_c, 1, 57, 127
1, 29696, Note_on_c, 1, 74, 127
1, 29696, Note_on_c, 1, 69, 127
1, 29696, Note_on_c, 1, 54, 127
1, 29901, Note_off_c, 1, 54, 0
1, 29952, Note_off_c, 1, 74, 0
1, 29952, Note_off_c, 1, 69, 0
1, 29952, Note_on_c, 1, 78, 127
1, 30157, Note_off_c, 1, 57, 0
1, 30157, Note_off_c, 1, 78, 0
1, 30208, Note_on_c, 1, 57, 127
1, 30208, Note_on_c, 1, 76, 127
1, 30208, Note_on_c, 1, 71, 127
1, 30208, Note_on_c, 1, 56, 127
1, 30208, Note_on_c, 1, 62, 127
1, 30413, Note_off_c, 1, 76, 0
1, 30413, Note_off_c, 1, 56, 0
1, 30464, Note_off_c, 1, 57, 0
1, 30464, Note_off_c, 1, 71, 0
1, 30464, Note_off_c, 1, 62, 0
1, 30464, Note_on_c, 1, 74, 127
1, 30464, Note_on_c, 1, 59, 127
1, 30669, Note_off_c, 1, 74, 0
1, 30669, Note_off_c, 1, 59, 0
1, 30720, Note_on_c, 1, 57, 127
1, 30720, Note_on_c, 1, 73, 127
1, 30720, Note_on_c, 1, 64, 127
1, 30976, Note_off_c, 1, 57, 0
1, 30976, Note_off_c, 1, 73, 0
1, 30976, Note_off_c, 1, 64, 0
1, 30976, Note_on_c, 1, 71, 127
1, 30976, Note_on_c, 1, 56, 127
1, 31181, Note_off_c, 1, 71, 0
1, 31181, Note_off_c, 1, 56, 0
1, 31232, Note_on_c, 1, 55, 127
1, 31232, Note_on_c, 1, 76, 127
1, 31232, Note_on_c, 1, 73, 127
1, 31232, Note_on_c, 1, 69, 127
1, 31232, Note_on_c, 1, 57, 127
1, 31437, Note_off_c, 1, 57, 0
1, 31488, Note_off_c, 1, 55, 0
1, 31488, Note_off_c, 1, 76, 0
1, 31488, Note_off_c, 1, 73, 0
1, 31488, Note_off_c, 1, 69, 0
1, 31488, Note_on_c, 1, 74, 127
1, 31488, Note_on_c, 1, 59, 127
1, 31693, Note_off_c, 1, 74, 0
1, 31693, Note_off_c, 1, 59, 0
1, 31744, Note_on_c, 1, 54, 127
1, 31744, Note_on_c, 1, 78, 127
1, 31744, Note_on_c, 1, 70, 127
1, 31744, Note_on_c, 1, 73, 127
1, 31744, Note_on_c, 1, 76, 127
1, 31744, Note_on_c, 1, 61, 127
1, 31744, Note_on_c, 1, 56, 127
1, 31949, Note_off_c, 1, 76, 0
1, 31949, Note_off_c, 1, 56, 0
1, 32000, Note_off_c, 1, 54, 0
1, 32000, Note_off_c, 1, 70, 0
1, 32000, Note_off_c, 1, 73, 0
1, 32000, Note_off_c, 1, 61, 0
1, 32000, Note_on_c, 1, 58, 127
1, 32205, Note_off_c, 1, 78, 0
1, 32205, Note_off_c, 1, 58, 0
1, 32256, Note_on_c, 1, 59, 127
1, 32256, Note_on_c, 1, 74, 127
1, 32256, Note_on_c, 1, 66, 127
1, 32256, Note_on_c, 1, 71, 127
1, 32256, Note_on_c, 1, 62, 127
1, 32461, Note_off_c, 1, 62, 0
1, 32512, Note_off_c, 1, 59, 0
1, 32512, Note_off_c, 1, 74, 0
1, 32512, Note_off_c, 1, 71, 0
1, 32512, Note_on_c, 1, 76, 127
1, 32512, Note_on_c, 1, 61, 127
1, 32717, Note_off_c, 1, 76, 0
1, 32717, Note_off_c, 1, 61, 0
1, 32768, Note_on_c, 1, 78, 127
1, 32768, Note_on_c, 1, 50, 127
1, 32768, Note_on_c, 1, 54, 127
1, 32973, Note_off_c, 1, 54, 0
1, 33024, Note_off_c, 1, 78, 0
1, 33024, Note_off_c, 1, 50, 0
1, 33280, Note_on_c, 1, 70, 127
1, 33280, Note_on_c, 1, 58, 127
1, 33485, Note_off_c, 1, 58, 0
1, 33536, Note_off_c, 1, 70, 0
1, 33536, Note_on_c, 1, 73, 127
1, 33536, Note_on_c, 1, 64, 127
1, 33741, Note_off_c, 1, 73, 0
1, 33741, Note_off_c, 1, 64, 0
1, 33792, Note_on_c, 1, 47, 127
1, 33997, Note_off_c, 1, 47, 0
1, 34048, Note_off_c, 1, 66, 0
1, 34048, Note_on_c, 1, 45, 127
1, 34048, Note_on_c, 1, 57, 127
1, 34253, Note_off_c, 1, 45, 0
1, 34253, Note_off_c, 1, 57, 0
1, 34304, Note_on_c, 1, 47, 127
1, 34304, Note_on_c, 1, 71, 127
1, 34304, Note_on_c, 1, 66, 127
1, 34304, Note_on_c, 1, 62, 127
1, 34304, Note_on_c, 1, 59, 127
1, 34304, Note_on_c, 1, 74, 127
1, 34509, Note_off_c, 1, 47, 0
1, 34509, Note_off_c, 1, 66, 0
1, 34509, Note_off_c, 1, 62, 0
1, 34509, Note_off_c, 1, 59, 0
1, 34560, Note_off_c, 1, 71, 0
1, 34560, Note_off_c, 1, 74, 0
1, 34560, Note_on_c, 1, 49, 127
1, 34560, Note_on_c, 1, 64, 127
1, 34560, Note_on_c, 1, 61, 127
1, 34765, Note_off_c, 1, 49, 0
1, 34765, Note_off_c, 1, 64, 0
1, 34765, Note_off_c, 1, 61, 0
1, 34816, Note_on_c, 1, 45, 127
1, 34816, Note_on_c, 1, 78, 127
1, 34816, Note_on_c, 1, 66, 127
1, 34816, Note_on_c, 1, 61, 127
1, 34816, Note_on_c, 1, 57, 127
1, 34816, Note_on_c, 1, 71, 127
1, 35021, Note_off_c, 1, 45, 0
1, 35021, Note_off_c, 1, 66, 0
1, 35021, Note_off_c, 1, 61, 0
1, 35021, Note_off_c, 1, 57, 0
1, 35072, Note_off_c, 1, 78, 0
1, 35072, Note_off_c, 1, 71, 0
1, 35072, Note_on_c, 1, 47, 127
1, 35072, Note_on_c, 1, 68, 127
1, 35072, Note_on_c, 1, 62, 127
1, 35072, Note_on_c, 1, 59, 127
1, 35277, Note_off_c, 1, 47, 0
1, 35277, Note_off_c, 1, 68, 0
1, 35277, Note_off_c, 1, 62, 0
1, 35277, Note_off_c, 1, 59, 0
1, 35328, Note_on_c, 1, 49, 127
1, 35328, Note_on_c, 1, 76, 127
1, 35328, Note_on_c, 1, 69, 127
1, 35328, Note_on_c, 1, 64, 127
1, 35328, Note_on_c, 1, 61, 127
1, 35328, Note_on_c, 1, 81, 127
1, 35533, Note_off_c, 1, 49, 0
1, 35533, Note_off_c, 1, 64, 0
1, 35533, Note_off_c, 1, 61, 0
1, 35584, Note_off_c, 1, 76, 0
1, 35584, Note_off_c, 1, 81, 0
1, 35584, Note_on_c, 1, 47, 127
1, 35584, Note_on_c, 1, 62, 127
1, 35584, Note_on_c, 1, 59, 127
1, 35789, Note_off_c, 1, 47, 0
1, 35789, Note_off_c, 1, 62, 0
1, 35789, Note_off_c, 1, 59, 0
1, 35840, Note_on_c, 1, 45, 127
1, 35840, Note_on_c, 1, 57, 127
1, 36045, Note_off_c, 1, 45, 0
1, 36045, Note_off_c, 1, 57, 0
1, 36352, Note_on_c, 1, 74, 127
1, 36352, Note_on_c, 1, 67, 127
1, 36608, Note_off_c, 1, 74, 0
1, 36608, Note_off_c, 1, 67, 0
1, 36608, Note_on_c, 1, 50, 127
1, 36608, Note_on_c, 1, 66, 127
1, 36813, Note_off_c, 1, 50, 0
1, 36813, Note_off_c, 1, 66, 0
1, 38400, Note_on_c, 1, 86, 127
1, 38656, Note_off_c, 1, 69, 0
1, 38656, Note_off_c, 1, 86, 0
1, 38912, Note_on_c, 1, 81, 127
1, 38912, Note_on_c, 1, 42, 127
1, 38912, Note_on_c, 1, 69, 127
1, 38912, Note_on_c, 1, 74, 127
1, 38912, Note_on_c, 1, 62, 127
1, 38912, Note_on_c, 1, 54, 127
1, 39117, Note_off_c, 1, 81, 0
1, 39117, Note_off_c, 1, 62, 0
1, 39168, Note_off_c, 1, 42, 0
1, 39168, Note_off_c, 1, 69, 0
1, 39168, Note_off_c, 1, 74, 0
1, 39168, Note_off_c, 1, 54, 0
1, 39168, Note_on_c, 1, 78, 127
1, 39168, Note_on_c, 1, 66, 127
1, 39373, Note_off_c, 1, 78, 0
1, 39373, Note_off_c, 1, 66, 0
1, 39424, Note_on_c, 1, 79, 127
1, 39424, Note_on_c, 1, 45, 127
1, 39424, Note_on_c, 1, 67, 127
1, 39424, Note_on_c, 1, 73, 127
1, 39424, Note_on_c, 1, 69, 127
1, 39424, Note_on_c, 1, 64, 127
1, 39424, Note_on_c, 1, 57, 127
1, 39629, Note_off_c, 1, 79, 0
1, 39629, Note_off_c, 1, 67, 0
1, 39629, Note_off_c, 1, 64, 0
1, 39680, Note_off_c, 1, 45, 0
1, 39680, Note_off_c, 1, 73, 0
1, 39680, Note_off_c, 1, 69, 0
1, 39680, Note_off_c, 1, 57, 0
1, 39680, Note_on_c, 1, 76, 127
1, 39885, Note_off_c, 1, 76, 0
1, 39936, Note_on_c, 1, 78, 127
1, 39936, Note_on_c, 1, 38, 127
1, 39936, Note_on_c, 1, 66, 127
1, 39936, Note_on_c, 1, 74, 127
1, 39936, Note_on_c, 1, 69, 127
1, 39936, Note_on_c, 1, 50, 127
1, 40141, Note_off_c, 1, 78, 0
1, 40141, Note_off_c, 1, 38, 0
1, 40141, Note_off_c, 1, 50, 0
1, 40192, Note_on_c, 1, 76, 127
1, 40192, Note_on_c, 1, 37, 127
1, 40192, Note_on_c, 1, 79, 127
1, 40192, Note_on_c, 1, 49, 127
1, 40397, Note_off_c, 1, 76, 0
1, 40397, Note_off_c, 1, 37, 0
1, 40397, Note_off_c, 1, 79, 0
1, 40397, Note_off_c, 1, 49, 0
1, 40448, Note_on_c, 1, 62, 127
1, 40448, Note_on_c, 1, 57, 127
1, 40704, Note_off_c, 1, 62, 0
1, 40704, Note_off_c, 1, 57, 0
1, 40704, Note_on_c, 1, 40, 127
1, 40704, Note_on_c, 1, 52, 127
1, 40909, Note_off_c, 1, 40, 0
1, 40909, Note_off_c, 1, 52, 0
1, 40960, Note_on_c, 1, 81, 127
1, 40960, Note_on_c, 1, 42, 127
1, 40960, Note_on_c, 1, 54, 127
1, 41165, Note_off_c, 1, 42, 0
1, 41165, Note_off_c, 1, 54, 0
1, 41216, Note_on_c, 1, 43, 127
1, 41216, Note_on_c, 1, 55, 127
1, 41421, Note_off_c, 1, 43, 0
1, 41421, Note_off_c, 1, 55, 0
1, 41472, Note_on_c, 1, 45, 127
1, 41677, Note_off_c, 1, 81, 0
1, 41728, Note_off_c, 1, 66, 0
1, 41728, Note_off_c, 1, 74, 0
1, 41728, Note_off_c, 1, 69, 0
1, 41728, Note_off_c, 1, 45, 0
1, 41728, Note_on_c, 1, 83, 127
1, 41933, Note_off_c, 1, 83, 0
1, 41984, Note_on_c, 1, 69, 127
1, 41984, Note_on_c, 1, 45, 127
1, 41984, Note_on_c, 1, 81, 127
1, 41984, Note_on_c, 1, 73, 127
1, 41984, Note_on_c, 1, 64, 127
1, 41984, Note_on_c, 1, 57, 127
1, 42189, Note_off_c, 1, 45, 0
1, 42189, Note_off_c, 1, 81, 0
1, 42189, Note_off_c, 1, 73, 0
1, 42240, Note_off_c, 1, 64, 0
1, 42240, Note_off_c, 1, 57, 0
1, 42240, Note_on_c, 1, 79, 127
1, 42240, Note_on_c, 1, 47, 127
1, 42240, Note_on_c, 1, 74, 127
1, 42240, Note_on_c, 1, 59, 127
1, 42445, Note_off_c, 1, 69, 0
1, 42445, Note_off_c, 1, 79, 0
1, 42445, Note_off_c, 1, 47, 0
1, 42445, Note_off_c, 1, 74, 0
1, 42445, Note_off_c, 1, 59, 0
1, 42496, Note_on_c, 1, 69, 127
1, 42496, Note_on_c, 1, 45, 127
1, 42496, Note_on_c, 1, 81, 127
1, 42496, Note_on_c, 1, 49, 127
1, 42496, Note_on_c, 1, 76, 127
1, 42496, Note_on_c, 1, 64, 127
1, 42496, Note_on_c, 1, 61, 127
1, 42496, Note_on_c, 1, 57, 127
1, 42701, Note_off_c, 1, 45, 0
1, 42701, Note_off_c, 1, 81, 0
1, 42701, Note_off_c, 1, 49, 0
1, 42701, Note_off_c, 1, 76, 0
1, 42701, Note_off_c, 1, 61, 0
1, 42752, Note_off_c, 1, 64, 0
1, 42752, Note_on_c, 1, 73, 127
1, 42957, Note_off_c, 1, 57, 0
1, 42957, Note_off_c, 1, 73, 0
1, 43008, Note_on_c, 1, 74, 127
1, 43008, Note_on_c, 1, 50, 127
1, 43008, Note_on_c, 1, 78, 127
1, 43008, Note_on_c, 1, 62, 127
1, 43264, Note_off_c, 1, 69, 0
1, 43264, Note_off_c, 1, 50, 0
1, 43264, Note_off_c, 1, 78, 0
1, 43264, Note_off_c, 1, 62, 0
1, 43264, Note_on_c, 1, 79, 127
1, 43264, Note_on_c, 1, 71, 127
1, 43469, Note_off_c, 1, 74, 0
1, 43469, Note_off_c, 1, 79, 0
1, 43469, Note_off_c, 1, 71, 0
1, 43520, Note_on_c, 1, 69, 127
1, 43520, Note_on_c, 1, 45, 127
1, 43520, Note_on_c, 1, 81, 127
1, 43520, Note_on_c, 1, 76, 127
1, 43520, Note_on_c, 1, 73, 127
1, 43520, Note_on_c, 1, 61, 127
1, 43520, Note_on_c, 1, 57, 127
1, 43725, Note_off_c, 1, 81, 0
1, 43776, Note_off_c, 1, 69, 0
1, 43776, Note_off_c, 1, 45, 0
1, 43776, Note_off_c, 1, 76, 0
1, 43776, Note_off_c, 1, 73, 0
1, 43776, Note_off_c, 1, 61, 0
1, 43776, Note_off_c, 1, 57, 0
1, 43776, Note_on_c, 1, 79, 127
1, 43981, Note_off_c, 1, 79, 0
1, 44032, Note_on_c, 1, 78, 127
1, 44032, Note_on_c, 1, 46, 127
1, 44032, Note_on_c, 1, 73, 127
1, 44032, Note_on_c, 1, 61, 127
1, 44032, Note_on_c, 1, 66, 127
1, 44032, Note_on_c, 1, 58, 127
1, 44288, Note_off_c, 1, 78, 0
1, 44288, Note_off_c, 1, 46, 0
1, 44288, Note_off_c, 1, 73, 0
1, 44288, Note_off_c, 1, 61, 0
1, 44288, Note_off_c, 1, 66, 0
1, 44288, Note_off_c, 1, 58, 0
1, 44288, Note_on_c, 1, 76, 127
1, 44493, Note_off_c, 1, 76, 0
1, 44544, Note_on_c, 1, 74, 127
1, 44544, Note_on_c, 1, 47, 127
1, 44544, Note_on_c, 1, 71, 127
1, 44544, Note_on_c, 1, 66, 127
1, 44544, Note_on_c, 1, 59, 127
1, 44800, Note_off_c, 1, 74, 0
1, 44800, Note_off_c, 1, 47, 0
1, 44800, Note_off_c, 1, 71, 0
1, 44800, Note_off_c, 1, 66, 0
1, 44800, Note_off_c, 1, 59, 0
1, 44800, Note_on_c, 1, 76, 127
1, 45005, Note_off_c, 1, 76, 0
1, 45056, Note_on_c, 1, 73, 127
1, 45056, Note_on_c, 1, 40, 127
1, 45056, Note_on_c, 1, 76, 127
1, 45056, Note_on_c, 1, 67, 127
1, 45056, Note_on_c, 1, 52, 127
1, 45261, Note_off_c, 1, 76, 0
1, 45312, Note_off_c, 1, 73, 0
1, 45312, Note_off_c, 1, 40, 0
1, 45312, Note_off_c, 1, 67, 0
1, 45312, Note_off_c, 1, 52, 0
1, 45312, Note_on_c, 1, 74, 127
1, 45517, Note_off_c, 1, 74, 0
1, 45568, Note_on_c, 1, 76, 127
1, 45568, Note_on_c, 1, 42, 127
1, 45568, Note_on_c, 1, 70, 127
1, 45568, Note_on_c, 1, 66, 127
1, 45568, Note_on_c, 1, 54, 127
1, 45773, Note_off_c, 1, 76, 0
1, 45824, Note_off_c, 1, 42, 0
1, 45824, Note_off_c, 1, 70, 0
1, 45824, Note_off_c, 1, 66, 0
1, 45824, Note_off_c, 1, 54, 0
1, 45824, Note_on_c, 1, 73, 127
1, 46029, Note_off_c, 1, 73, 0
1, 46080, Note_on_c, 1, 74, 127
1, 46080, Note_on_c, 1, 47, 127
1, 46080, Note_on_c, 1, 71, 127
1, 46080, Note_on_c, 1, 66, 127
1, 46285, Note_off_c, 1, 47, 0
1, 46336, Note_on_c, 1, 73, 127
1, 46336, Note_on_c, 1, 46, 127
1, 46541, Note_off_c, 1, 73, 0
1, 46541, Note_off_c, 1, 46, 0
1, 46592, Note_on_c, 1, 62, 127
1, 46848, Note_off_c, 1, 62, 0
1, 46848, Note_on_c, 1, 76, 127
1, 46848, Note_on_c, 1, 49, 127
1, 47053, Note_off_c, 1, 76, 0
1, 47053, Note_off_c, 1, 49, 0
1, 47104, Note_on_c, 1, 78, 127
1, 47104, Note_on_c, 1, 50, 127
1, 47104, Note_on_c, 1, 59, 127
1, 47309, Note_off_c, 1, 50, 0
1, 47360, Note_off_c, 1, 59, 0
1, 47360, Note_on_c, 1, 52, 127
1, 47565, Note_off_c, 1, 52, 0
1, 47616, Note_on_c, 1, 54, 127
1, 47821, Note_off_c, 1, 78, 0
1, 47872, Note_off_c, 1, 74, 0
1, 47872, Note_off_c, 1, 71, 0
1, 47872, Note_off_c, 1, 66, 0
1, 47872, Note_off_c, 1, 54, 0
1, 47872, Note_on_c, 1, 79, 127
1, 48077, Note_off_c, 1, 79, 0
1, 48128, Note_on_c, 1, 78, 127
1, 48128, Note_on_c, 1, 54, 127
1, 48128, Note_on_c, 1, 73, 127
1, 48128, Note_on_c, 1, 66, 127
1, 48128, Note_on_c, 1, 70, 127
1, 48333, Note_off_c, 1, 78, 0
1, 48384, Note_off_c, 1, 54, 0
1, 48384, Note_off_c, 1, 73, 0
1, 48384, Note_off_c, 1, 66, 0
1, 48384, Note_off_c, 1, 70, 0
1, 48384, Note_on_c, 1, 76, 127
1, 48384, Note_on_c, 1, 56, 127
1, 48589, Note_off_c, 1, 76, 0
1, 48589, Note_off_c, 1, 56, 0
1, 48640, Note_on_c, 1, 78, 127
1, 48640, Note_on_c, 1, 58, 127
1, 48640, Note_on_c, 1, 66, 127
1, 48640, Note_on_c, 1, 73, 127
1, 48640, Note_on_c, 1, 54, 127
1, 48845, Note_off_c, 1, 58, 0
1, 48896, Note_off_c, 1, 78, 0
1, 48896, Note_off_c, 1, 66, 0
1, 49101, Note_off_c, 1, 73, 0
1, 49101, Note_off_c, 1, 54, 0
1, 49152, Note_on_c, 1, 74, 127
1, 49152, Note_on_c, 1, 59, 127
1, 49152, Note_on_c, 1, 71, 127
1, 49152, Note_on_c, 1, 66, 127
1, 49357, Note_off_c, 1, 66, 0
1, 49408, Note_off_c, 1, 74, 0
1, 49408, Note_off_c, 1, 59, 0
1, 49408, Note_off_c, 1, 71, 0
1, 49408, Note_on_c, 1, 73, 127
1, 49408, Note_on_c, 1, 64, 127
1, 49613, Note_off_c, 1, 73, 0
1, 49613, Note_off_c, 1, 64, 0
1, 49664, Note_on_c, 1, 71, 127
1, 49664, Note_on_c, 1, 47, 127
1, 49664, Note_on_c, 1, 66, 127
1, 49664, Note_on_c, 1, 62, 127
1, 49664, Note_on_c, 1, 54, 127
1, 49869, Note_off_c, 1, 62, 0
1, 49920, Note_off_c, 1, 71, 0
1, 49920, Note_off_c, 1, 47, 0
1, 49920, Note_off_c, 1, 66, 0
1, 49920, Note_off_c, 1, 54, 0
1, 49920, Note_on_c, 1, 73, 127
1, 49920, Note_on_c, 1, 64, 127
1, 49920, Note_on_c, 1, 61, 127
1, 50125, Note_off_c, 1, 73, 0
1, 50125, Note_off_c, 1, 64, 0
1, 50125, Note_off_c, 1, 61, 0
1, 50176, Note_on_c, 1, 74, 127
1, 50176, Note_on_c, 1, 47, 127
1, 50176, Note_on_c, 1, 66, 127
1, 50176, Note_on_c, 1, 62, 127
1, 50176, Note_on_c, 1, 59, 127
1, 50432, Note_off_c, 1, 74, 0
1, 50432, Note_off_c, 1, 47, 0
1, 50432, Note_off_c, 1, 66, 0
1, 50432, Note_off_c, 1, 59, 0
1, 50432, Note_on_c, 1, 78, 127
1, 50432, Note_on_c, 1, 71, 127
1, 50637, Note_off_c, 1, 62, 0
1, 50637, Note_off_c, 1, 78, 0
1, 50637, Note_off_c, 1, 71, 0
1, 50688, Note_on_c, 1, 76, 127
1, 50688, Note_on_c, 1, 47, 127
1, 50688, Note_on_c, 1, 67, 127
1, 50688, Note_on_c, 1, 60, 127
1, 50688, Note_on_c, 1, 59, 127
1, 50893, Note_off_c, 1, 60, 0
1, 50944, Note_off_c, 1, 76, 0
1, 50944, Note_off_c, 1, 47, 0
1, 50944, Note_off_c, 1, 67, 0
1, 50944, Note_on_c, 1, 79, 127
1, 51149, Note_off_c, 1, 59, 0
1, 51149, Note_off_c, 1, 79, 0
1, 51200, Note_on_c, 1, 78, 127
1, 51200, Note_on_c, 1, 45, 127
1, 51200, Note_on_c, 1, 79, 127
1, 51200, Note_on_c, 1, 71, 127
1, 51200, Note_on_c, 1, 60, 127
1, 51200, Note_on_c, 1, 69, 127
1, 51200, Note_on_c, 1, 57, 127
1, 51328, Note_off_c, 1, 79, 0
1, 51328, Note_off_c, 1, 71, 0
1, 51405, Note_off_c, 1, 60, 0
1, 51456, Note_off_c, 1, 78, 0
1, 51456, Note_off_c, 1, 45, 0
1, 51456, Note_off_c, 1, 69, 0
1, 51456, Note_off_c, 1, 57, 0
1, 51456, Note_on_c, 1, 76, 127
1, 51456, Note_on_c, 1, 64, 127
1, 51456, Note_on_c, 1, 67, 127
1, 51661, Note_off_c, 1, 76, 0
1, 51661, Note_off_c, 1, 64, 0
1, 51661, Note_off_c, 1, 67, 0
1, 51712, Note_on_c, 1, 38, 127
1, 51712, Note_on_c, 1, 62, 127
1, 51712, Note_on_c, 1, 50, 127
1, 51968, Note_off_c, 1, 38, 0
1, 51968, Note_off_c, 1, 62, 0
1, 51968, Note_off_c, 1, 50, 0
1, 51968, Note_on_c, 1, 81, 127
1, 52173, Note_off_c, 1, 81, 0
1, 52224, Note_on_c, 1, 43, 127
1, 52429, Note_off_c, 1, 43, 0
1, 52480, Note_on_c, 1, 42, 127
1, 52685, Note_off_c, 1, 42, 0
1, 52736, Note_on_c, 1, 83, 127
1, 52941, Note_off_c, 1, 83, 0
1, 52992, Note_on_c, 1, 84, 127
1, 53197, Note_off_c, 1, 84, 0
1, 53248, Note_on_c, 1, 86, 127
1, 53248, Note_on_c, 1, 47, 127
1, 53248, Note_on_c, 1, 55, 127
1, 53453, Note_off_c, 1, 47, 0
1, 53504, Note_off_c, 1, 55, 0
1, 53504, Note_on_c, 1, 48, 127
1, 53709, Note_off_c, 1, 48, 0
1, 53760, Note_on_c, 1, 74, 127
1, 54016, Note_off_c, 1, 86, 0
1, 54016, Note_off_c, 1, 74, 0
1, 54528, Note_on_c, 1, 72, 127
1, 54528, Note_on_c, 1, 52, 127
1, 54733, Note_off_c, 1, 72, 0
1, 54733, Note_off_c, 1, 52, 0
1, 54784, Note_on_c, 1, 54, 127
1, 54989, Note_off_c, 1, 54, 0
1, 55040, Note_on_c, 1, 66, 127
1, 55245, Note_off_c, 1, 66, 0
1, 55808, Note_on_c, 1, 78, 127
1, 55808, Note_on_c, 1, 50, 127
1, 55808, Note_on_c, 1, 69, 127
1, 55808, Note_on_c, 1, 74, 127
1, 55808, Note_on_c, 1, 66, 127
1, 55808, Note_on_c, 1, 62, 127
1, 56013, Note_off_c, 1, 78, 0
1, 56064, Note_off_c, 1, 50, 0
1, 56064, Note_off_c, 1, 69, 0
1, 56064, Note_off_c, 1, 74, 0
1, 56064, Note_off_c, 1, 66, 0
1, 56064, Note_off_c, 1, 62, 0
1, 56064, Note_on_c, 1, 79, 127
1, 56269, Note_off_c, 1, 79, 0
1, 56320, Note_on_c, 1, 81, 127
1, 56320, Note_on_c, 1, 51, 127
1, 56320, Note_on_c, 1, 71, 127
1, 56320, Note_on_c, 1, 66, 127
1, 56320, Note_on_c, 1, 59, 127
1, 56525, Note_off_c, 1, 81, 0
1, 56576, Note_off_c, 1, 51, 0
1, 56576, Note_off_c, 1, 71, 0
1, 56576, Note_off_c, 1, 66, 0
1, 56576, Note_off_c, 1, 59, 0
1, 56576, Note_on_c, 1, 78, 127
1, 56781, Note_off_c, 1, 78, 0
1, 56832, Note_on_c, 1, 79, 127
1, 56832, Note_on_c, 1, 52, 127
1, 56832, Note_on_c, 1, 67, 127
1, 56832, Note_on_c, 1, 64, 127
1, 56832, Note_on_c, 1, 71, 127
1, 56832, Note_on_c, 1, 59, 127
1, 57037, Note_off_c, 1, 79, 0
1, 57088, Note_off_c, 1, 52, 0
1, 57088, Note_off_c, 1, 67, 0
1, 57088, Note_off_c, 1, 64, 0
1, 57088, Note_off_c, 1, 71, 0
1, 57088, Note_off_c, 1, 59, 0
1, 57088, Note_on_c, 1, 76, 127
1, 57293, Note_off_c, 1, 76, 0
1, 57344, Note_on_c, 1, 84, 127
1, 57344, Note_on_c, 1, 45, 127
1, 57344, Note_on_c, 1, 66, 127
1, 57344, Note_on_c, 1, 64, 127
1, 57344, Note_on_c, 1, 69, 127
1, 57344, Note_on_c, 1, 60, 127
1, 57549, Note_off_c, 1, 66, 0
1, 57600, Note_off_c, 1, 84, 0
1, 57600, Note_off_c, 1, 45, 0
1, 57600, Note_off_c, 1, 64, 0
1, 57600, Note_off_c, 1, 69, 0
1, 57600, Note_off_c, 1, 60, 0
1, 57600, Note_on_c, 1, 67, 127
1, 57805, Note_off_c, 1, 67, 0
1, 57856, Note_on_c, 1, 75, 127
1, 57856, Note_on_c, 1, 47, 127
1, 57856, Note_on_c, 1, 69, 127
1, 57856, Note_on_c, 1, 59, 127
1, 57856, Note_on_c, 1, 66, 127
1, 57856, Note_on_c, 1, 63, 127
1, 58061, Note_off_c, 1, 69, 0
1, 58112, Note_off_c, 1, 75, 0
1, 58112, Note_off_c, 1, 47, 0
1, 58112, Note_off_c, 1, 59, 0
1, 58112, Note_off_c, 1, 63, 0
1, 58317, Note_off_c, 1, 66, 0
1, 58368, Note_on_c, 1, 76, 127
1, 58368, Note_on_c, 1, 52, 127
1, 58368, Note_on_c, 1, 67, 127
1, 58368, Note_on_c, 1, 59, 127
1, 58368, Note_on_c, 1, 64, 127
1, 58573, Note_off_c, 1, 76, 0
1, 58573, Note_off_c, 1, 52, 0
1, 58624, Note_off_c, 1, 59, 0
1, 58624, Note_on_c, 1, 74, 127
1, 58624, Note_on_c, 1, 54, 127
1, 58829, Note_off_c, 1, 74, 0
1, 58829, Note_off_c, 1, 54, 0
1, 58880, Note_on_c, 1, 61, 127
1, 59136, Note_off_c, 1, 61, 0
1, 59136, Note_on_c, 1, 78, 127
1, 59136, Note_on_c, 1, 50, 127
1, 59341, Note_off_c, 1, 78, 0
1, 59341, Note_off_c, 1, 50, 0
1, 59392, Note_on_c, 1, 79, 127
1, 59392, Note_on_c, 1, 49, 127
1, 59392, Note_on_c, 1, 62, 127
1, 59597, Note_off_c, 1, 79, 0
1, 59597, Note_off_c, 1, 49, 0
1, 59648, Note_off_c, 1, 62, 0
1, 59648, Note_on_c, 1, 47, 127
1, 59853, Note_off_c, 1, 47, 0
1, 59904, Note_on_c, 1, 81, 127
1, 59904, Note_on_c, 1, 45, 127
1, 60160, Note_off_c, 1, 81, 0
1, 60160, Note_off_c, 1, 45, 0
1, 60416, Note_on_c, 1, 57, 127
1, 60621, Note_off_c, 1, 57, 0
1, 61696, Note_off_c, 1, 67, 0
1, 61696, Note_off_c, 1, 64, 0
1, 61952, Note_on_c, 1, 45, 127
1, 61952, Note_on_c, 1, 64, 127
1, 61952, Note_on_c, 1, 61, 127
1, 61952, Note_on_c, 1, 76, 127
1, 61952, Note_on_c, 1, 73, 127
1, 62208, Note_off_c, 1, 45, 0
1, 62208, Note_off_c, 1, 64, 0
1, 62208, Note_off_c, 1, 61, 0
1, 62208, Note_off_c, 1, 76, 0
1, 62208, Note_off_c, 1, 73, 0
1, 62208, Note_on_c, 1, 62, 127
1, 62413, Note_off_c, 1, 62, 0
1, 62464, Note_on_c, 1, 43, 127
1, 62464, Note_on_c, 1, 69, 127
1, 62464, Note_on_c, 1, 64, 127
1, 62464, Note_on_c, 1, 61, 127
1, 62464, Note_on_c, 1, 55, 127
1, 62464, Note_on_c, 1, 59, 127
1, 62669, Note_off_c, 1, 59, 0
1, 62720, Note_off_c, 1, 43, 0
1, 62720, Note_off_c, 1, 69, 0
1, 62720, Note_off_c, 1, 64, 0
1, 62720, Note_off_c, 1, 55, 0
1, 62925, Note_off_c, 1, 61, 0
1, 62976, Note_on_c, 1, 42, 127
1, 62976, Note_on_c, 1, 74, 127
1, 62976, Note_on_c, 1, 69, 127
1, 62976, Note_on_c, 1, 57, 127
1, 62976, Note_on_c, 1, 54, 127
1, 62976, Note_on_c, 1, 62, 127
1, 62976, Note_on_c, 1, 66, 127
1, 63181, Note_off_c, 1, 54, 0
1, 63181, Note_off_c, 1, 66, 0
1, 63232, Note_off_c, 1, 42, 0
1, 63232, Note_off_c, 1, 74, 0
1, 63232, Note_off_c, 1, 69, 0
1, 63232, Note_off_c, 1, 57, 0
1, 63232, Note_off_c, 1, 62, 0
1, 63232, Note_on_c, 1, 55, 127
1, 63232, Note_on_c, 1, 64, 127
1, 63437, Note_off_c, 1, 55, 0
1, 63437, Note_off_c, 1, 64, 0
1, 63488, Note_on_c, 1, 54, 127
1, 63488, Note_on_c, 1, 69, 127
1, 63488, Note_on_c, 1, 66, 127
1, 63488, Note_on_c, 1, 62, 127
1, 63488, Note_on_c, 1, 78, 127
1, 63488, Note_on_c, 1, 57, 127
1, 63693, Note_off_c, 1, 78, 0
1, 63744, Note_off_c, 1, 54, 0
1, 63744, Note_off_c, 1, 69, 0
1, 63744, Note_off_c, 1, 57, 0
1, 63744, Note_on_c, 1, 74, 127
1, 63949, Note_off_c, 1, 66, 0
1, 63949, Note_off_c, 1, 62, 0
1, 63949, Note_off_c, 1, 74, 0
1, 64000, Note_on_c, 1, 57, 127
1, 64000, Note_on_c, 1, 67, 127
1, 64000, Note_on_c, 1, 64, 127
1, 64000, Note_on_c, 1, 61, 127
1, 64000, Note_on_c, 1, 76, 127
1, 64000, Note_on_c, 1, 45, 127
1, 64205, Note_off_c, 1, 76, 0
1, 64256, Note_off_c, 1, 57, 0
1, 64256, Note_off_c, 1, 61, 0
1, 64256, Note_off_c, 1, 45, 0
1, 64256, Note_on_c, 1, 73, 127
1, 64461, Note_off_c, 1, 67, 0
1, 64461, Note_off_c, 1, 64, 0
1, 64461, Note_off_c, 1, 73, 0
1, 64512, Note_on_c, 1, 62, 127
1, 64512, Note_on_c, 1, 66, 127
1, 64512, Note_on_c, 1, 57, 127
1, 64512, Note_on_c, 1, 74, 127
1, 64512, Note_on_c, 1, 50, 127
1, 64768, Note_off_c, 1, 62, 0
1, 64768, Note_off_c, 1, 66, 0
1, 64768, Note_off_c, 1, 57, 0
1, 64768, Note_off_c, 1, 74, 0
1, 64768, Note_off_c, 1, 50, 0
1, 64768, Note_on_c, 1, 61, 127
1, 64768, Note_on_c, 1, 64, 127
1, 64973, Note_off_c, 1, 61, 0
1, 64973, Note_off_c, 1, 64, 0
1, 65024, Note_on_c, 1, 78, 127
1, 65024, Note_on_c, 1, 74, 127
1, 65024, Note_on_c, 1, 50, 127
1, 65024, Note_on_c, 1, 62, 127
1, 65024, Note_on_c, 1, 66, 127
1, 65024, Note_on_c, 1, 57, 127
1, 65280, Note_off_c, 1, 78, 0
1, 65280, Note_off_c, 1, 74, 0
1, 65280, Note_off_c, 1, 50, 0
1, 65280, Note_off_c, 1, 62, 0
1, 65280, Note_off_c, 1, 66, 0
1, 65280, Note_off_c, 1, 57, 0
1, 65280, Note_on_c, 1, 64, 127
1, 65280, Note_on_c, 1, 68, 127
1, 65485, Note_off_c, 1, 64, 0
1, 65485, Note_off_c, 1, 68, 0
1, 65536, Note_on_c, 1, 83, 127
1, 65536, Note_on_c, 1, 78, 127
1, 65536, Note_on_c, 1, 47, 127
1, 65536, Note_on_c, 1, 61, 127
1, 65536, Note_on_c, 1, 64, 127
1, 65536, Note_on_c, 1, 50, 127
1, 65741, Note_off_c, 1, 61, 0
1, 65741, Note_off_c, 1, 64, 0
1, 65792, Note_off_c, 1, 83, 0
1, 65792, Note_off_c, 1, 78, 0
1, 65792, Note_off_c, 1, 47, 0
1, 65792, Note_off_c, 1, 50, 0
1, 65792, Note_on_c, 1, 62, 127
1, 65792, Note_on_c, 1, 66, 127
1, 65997, Note_off_c, 1, 62, 0
1, 65997, Note_off_c, 1, 66, 0
1, 66048, Note_on_c, 1, 80, 127
1, 66048, Note_on_c, 1, 76, 127
1, 66048, Note_on_c, 1, 52, 127
1, 66048, Note_on_c, 1, 59, 127
1, 66048, Note_on_c, 1, 68, 127
1, 66253, Note_off_c, 1, 68, 0
1, 66304, Note_off_c, 1, 80, 0
1, 66304, Note_off_c, 1, 76, 0
1, 66304, Note_off_c, 1, 52, 0
1, 66304, Note_off_c, 1, 59, 0
1, 66304, Note_on_c, 1, 71, 127
1, 66304, Note_on_c, 1, 50, 127
1, 66509, Note_off_c, 1, 71, 0
1, 66509, Note_off_c, 1, 50, 0
1, 66560, Note_on_c, 1, 52, 127
1, 66560, Note_on_c, 1, 81, 127
1, 66560, Note_on_c, 1, 76, 127
1, 66560, Note_on_c, 1, 64, 127
1, 66560, Note_on_c, 1, 69, 127
1, 66560, Note_on_c, 1, 49, 127
1, 66765, Note_off_c, 1, 69, 0
1, 66765, Note_off_c, 1, 49, 0
1, 66816, Note_off_c, 1, 81, 0
1, 66816, Note_off_c, 1, 76, 0
1, 66816, Note_off_c, 1, 64, 0
1, 66816, Note_on_c, 1, 73, 127
1, 67021, Note_off_c, 1, 52, 0
1, 67021, Note_off_c, 1, 73, 0
1, 67072, Note_on_c, 1, 52, 127
1, 67072, Note_on_c, 1, 78, 127
1, 67072, Note_on_c, 1, 69, 127
1, 67072, Note_on_c, 1, 66, 127
1, 67072, Note_on_c, 1, 71, 127
1, 67072, Note_on_c, 1, 51, 127
1, 67277, Note_off_c, 1, 71, 0
1, 67277, Note_off_c, 1, 51, 0
1, 67328, Note_off_c, 1, 52, 0
1, 67328, Note_off_c, 1, 78, 0
1, 67328, Note_off_c, 1, 66, 0
1, 67328, Note_on_c, 1, 54, 127
1, 67533, Note_off_c, 1, 69, 0
1, 67533, Note_off_c, 1, 54, 0
1, 67584, Note_on_c, 1, 52, 127
1, 67584, Note_on_c, 1, 76, 127
1, 67584, Note_on_c, 1, 71, 127
1, 67584, Note_on_c, 1, 59, 127
1, 67584, Note_on_c, 1, 68, 127
1, 67789, Note_off_c, 1, 68, 0
1, 67840, Note_off_c, 1, 52, 0
1, 67840, Note_off_c, 1, 76, 0
1, 67840, Note_off_c, 1, 71, 0
1, 67840, Note_off_c, 1, 59, 0
1, 67840, Note_on_c, 1, 66, 127
1, 67840, Note_on_c, 1, 51, 127
1, 68045, Note_off_c, 1, 66, 0
1, 68045, Note_off_c, 1, 51, 0
1, 68096, Note_on_c, 1, 50, 127
1, 68096, Note_on_c, 1, 71, 127
1, 68096, Note_on_c, 1, 68, 127
1, 68096, Note_on_c, 1, 64, 127
1, 68096, Note_on_c, 1, 52, 127
1, 68301, Note_off_c, 1, 52, 0
1, 68352, Note_off_c, 1, 50, 0
1, 68352, Note_off_c, 1, 71, 0
1, 68352, Note_off_c, 1, 68, 0
1, 68352, Note_off_c, 1, 64, 0
1, 68352, Note_on_c, 1, 69, 127
1, 68352, Note_on_c, 1, 54, 127
1, 68557, Note_off_c, 1, 69, 0
1, 68557, Note_off_c, 1, 54, 0
1, 68608, Note_on_c, 1, 49, 127
1, 68608, Note_on_c, 1, 73, 127
1, 68608, Note_on_c, 1, 65, 127
1, 68608, Note_on_c, 1, 68, 127
1, 68608, Note_on_c, 1, 71, 127
1, 68608, Note_on_c, 1, 51, 127
1, 68813, Note_off_c, 1, 71, 0
1, 68813, Note_off_c, 1, 51, 0
1, 68864, Note_off_c, 1, 49, 0
1, 68864, Note_off_c, 1, 65, 0
1, 68864, Note_off_c, 1, 68, 0
1, 68864, Note_on_c, 1, 53, 127
1, 69069, Note_off_c, 1, 73, 0
1, 69069, Note_off_c, 1, 53, 0
1, 69120, Note_on_c, 1, 54, 127
1, 69120, Note_on_c, 1, 69, 127
1, 69120, Note_on_c, 1, 61, 127
1, 69120, Note_on_c, 1, 66, 127
1, 69376, Note_off_c, 1, 54, 0
1, 69376, Note_off_c, 1, 69, 0
1, 69376, Note_off_c, 1, 66, 0
1, 69376, Note_on_c, 1, 68, 127
1, 69376, Note_on_c, 1, 71, 127
1, 69581, Note_off_c, 1, 68, 0
1, 69581, Note_off_c, 1, 71, 0
1, 69632, Note_on_c, 1, 85, 127
1, 69632, Note_on_c, 1, 81, 127
1, 69632, Note_on_c, 1, 45, 127
1, 69632, Note_on_c, 1, 73, 127
1, 69632, Note_on_c, 1, 49, 127
1, 69837, Note_off_c, 1, 73, 0
1, 69837, Note_off_c, 1, 49, 0
1, 69888, Note_off_c, 1, 85, 0
1, 69888, Note_off_c, 1, 81, 0
1, 69888, Note_off_c, 1, 45, 0
1, 70144, Note_on_c, 1, 83, 127
1, 70144, Note_on_c, 1, 77, 127
1, 70144, Note_on_c, 1, 53, 127
1, 70349, Note_off_c, 1, 53, 0
1, 70400, Note_off_c, 1, 83, 0
1, 70400, Note_off_c, 1, 77, 0
1, 70400, Note_on_c, 1, 56, 127
1, 70605, Note_off_c, 1, 56, 0
1, 70912, Note_off_c, 1, 61, 0
1, 70912, Note_on_c, 1, 52, 127
1, 71117, Note_off_c, 1, 52, 0
1, 71168, Note_on_c, 1, 54, 127
1, 71168, Note_on_c, 1, 69, 127
1, 71168, Note_on_c, 1, 66, 127
1, 71168, Note_on_c, 1, 61, 127
1, 71373, Note_off_c, 1, 54, 0
1, 71373, Note_off_c, 1, 61, 0
1, 71424, Note_off_c, 1, 69, 0
1, 71424, Note_off_c, 1, 66, 0
1, 71424, Note_on_c, 1, 56, 127
1, 71424, Note_on_c, 1, 71, 127
1, 71424, Note_on_c, 1, 59, 127
1, 71629, Note_off_c, 1, 56, 0
1, 71629, Note_off_c, 1, 71, 0
1, 71629, Note_off_c, 1, 59, 0
1, 71680, Note_on_c, 1, 52, 127
1, 71680, Note_on_c, 1, 68, 127
1, 71680, Note_on_c, 1, 78, 127
1, 71680, Note_on_c, 1, 73, 127
1, 71680, Note_on_c, 1, 61, 127
1, 71885, Note_off_c, 1, 52, 0
1, 71885, Note_off_c, 1, 68, 0
1, 71885, Note_off_c, 1, 61, 0
1, 71936, Note_off_c, 1, 78, 0
1, 71936, Note_off_c, 1, 73, 0
1, 71936, Note_on_c, 1, 54, 127
1, 71936, Note_on_c, 1, 69, 127
1, 71936, Note_on_c, 1, 57, 127
1, 72141, Note_off_c, 1, 54, 0
1, 72141, Note_off_c, 1, 69, 0
1, 72141, Note_off_c, 1, 57, 0
1, 72192, Note_on_c, 1, 56, 127
1, 72192, Note_on_c, 1, 71, 127
1, 72192, Note_on_c, 1, 76, 127
1, 72192, Note_on_c, 1, 64, 127
1, 72397, Note_off_c, 1, 56, 0
1, 72448, Note_off_c, 1, 71, 0
1, 72448, Note_off_c, 1, 76, 0
1, 72448, Note_on_c, 1, 54, 127
1, 72448, Note_on_c, 1, 69, 127
1, 72653, Note_off_c, 1, 54, 0
1, 72653, Note_off_c, 1, 69, 0
1, 72704, Note_on_c, 1, 52, 127
1, 72704, Note_on_c, 1, 68, 127
1, 72704, Note_on_c, 1, 59, 127
1, 72909, Note_off_c, 1, 52, 0
1, 72960, Note_off_c, 1, 68, 0
1, 72960, Note_off_c, 1, 59, 0
1, 73216, Note_on_c, 1, 62, 127
1, 73472, Note_off_c, 1, 62, 0
1, 73472, Note_on_c, 1, 57, 127
1, 73472, Note_on_c, 1, 73, 127
1, 73677, Note_off_c, 1, 57, 0
1, 73677, Note_off_c, 1, 73, 0
1, 74496, Note_on_c, 1, 61, 127
1, 74701, Note_off_c, 1, 61, 0
1, 75264, Note_on_c, 1, 81, 127
1, 75520, Note_off_c, 1, 64, 0
1, 75520, Note_off_c, 1, 81, 0
1, 75776, Note_on_c, 1, 76, 127
1, 75776, Note_on_c, 1, 49, 127
1, 75776, Note_on_c, 1, 69, 127
1, 75776, Note_on_c, 1, 64, 127
1, 75981, Note_off_c, 1, 76, 0
1, 76032, Note_off_c, 1, 49, 0
1, 76032, Note_off_c, 1, 69, 0
1, 76032, Note_off_c, 1, 64, 0
1, 76032, Note_on_c, 1, 73, 127
1, 76237, Note_off_c, 1, 73, 0
1, 76288, Note_on_c, 1, 74, 127
1, 76288, Note_on_c, 1, 52, 127
1, 76288, Note_on_c, 1, 71, 127
1, 76288, Note_on_c, 1, 64, 127
1, 76288, Note_on_c, 1, 68, 127
1, 76493, Note_off_c, 1, 74, 0
1, 76493, Note_off_c, 1, 71, 0
1, 76544, Note_off_c, 1, 52, 0
1, 76544, Note_off_c, 1, 64, 0
1, 76544, Note_off_c, 1, 68, 0
1, 76800, Note_on_c, 1, 73, 127
1, 76800, Note_on_c, 1, 45, 127
1, 76800, Note_on_c, 1, 64, 127
1, 76800, Note_on_c, 1, 69, 127
1, 77005, Note_off_c, 1, 45, 0
1, 77056, Note_on_c, 1, 71, 127
1, 77056, Note_on_c, 1, 44, 127
1, 77056, Note_on_c, 1, 74, 127
1, 77261, Note_off_c, 1, 71, 0
1, 77261, Note_off_c, 1, 44, 0
1, 77261, Note_off_c, 1, 74, 0
1, 77312, Note_on_c, 1, 76, 127
1, 77568, Note_off_c, 1, 76, 0
1, 77568, Note_on_c, 1, 47, 127
1, 77773, Note_off_c, 1, 47, 0
1, 77824, Note_on_c, 1, 49, 127
1, 77824, Note_on_c, 1, 57, 127
1, 78029, Note_off_c, 1, 49, 0
1, 78080, Note_off_c, 1, 57, 0
1, 78080, Note_on_c, 1, 50, 127
1, 78285, Note_off_c, 1, 50, 0
1, 78336, Note_on_c, 1, 52, 127
1, 78592, Note_off_c, 1, 73, 0
1, 78592, Note_off_c, 1, 64, 0
1, 78592, Note_off_c, 1, 69, 0
1, 78592, Note_off_c, 1, 52, 0
1, 78592, Note_on_c, 1, 78, 127
1, 78797, Note_off_c, 1, 78, 0
1, 78848, Note_on_c, 1, 76, 127
1, 78848, Note_on_c, 1, 52, 127
1, 78848, Note_on_c, 1, 71, 127
1, 78848, Note_on_c, 1, 68, 127
1, 78848, Note_on_c, 1, 64, 127
1, 79053, Note_off_c, 1, 68, 0
1, 79104, Note_off_c, 1, 52, 0
1, 79104, Note_off_c, 1, 71, 0
1, 79104, Note_off_c, 1, 64, 0
1, 79104, Note_on_c, 1, 74, 127
1, 79104, Note_on_c, 1, 54, 127
1, 79104, Note_on_c, 1, 69, 127
1, 79309, Note_off_c, 1, 76, 0
1, 79309, Note_off_c, 1, 74, 0
1, 79309, Note_off_c, 1, 54, 0
1, 79309, Note_off_c, 1, 69, 0
1, 79360, Note_on_c, 1, 76, 127
1, 79360, Note_on_c, 1, 56, 127
1, 79360, Note_on_c, 1, 71, 127
1, 79360, Note_on_c, 1, 64, 127
1, 79360, Note_on_c, 1, 52, 127
1, 79565, Note_off_c, 1, 56, 0
1, 79565, Note_off_c, 1, 71, 0
1, 79616, Note_off_c, 1, 64, 0
1, 79616, Note_on_c, 1, 68, 127
1, 79821, Note_off_c, 1, 76, 0
1, 79821, Note_off_c, 1, 52, 0
1, 79821, Note_off_c, 1, 68, 0
1, 79872, Note_on_c, 1, 81, 127
1, 79872, Note_on_c, 1, 73, 127
1, 79872, Note_on_c, 1, 57, 127
1, 79872, Note_on_c, 1, 74, 127
1, 79872, Note_on_c, 1, 69, 127
1, 79872, Note_on_c, 1, 64, 127
1, 80000, Note_off_c, 1, 74, 0
1, 80128, Note_off_c, 1, 81, 0
1, 80128, Note_off_c, 1, 73, 0
1, 80128, Note_off_c, 1, 57, 0
1, 80128, Note_off_c, 1, 69, 0
1, 80128, Note_off_c, 1, 64, 0
1, 80384, Note_on_c, 1, 76, 127
1, 80384, Note_on_c, 1, 52, 127
1, 80384, Note_on_c, 1, 71, 127
1, 80384, Note_on_c, 1, 68, 127
1, 80640, Note_off_c, 1, 76, 0
1, 80640, Note_off_c, 1, 52, 0
1, 80640, Note_off_c, 1, 71, 0
1, 80640, Note_off_c, 1, 68, 0
1, 80640, Note_on_c, 1, 66, 127
1, 80845, Note_off_c, 1, 66, 0
1, 80896, Note_on_c, 1, 73, 127
1, 80896, Note_on_c, 1, 53, 127
1, 80896, Note_on_c, 1, 68, 127
1, 80896, Note_on_c, 1, 61, 127
1, 81152, Note_off_c, 1, 73, 0
1, 81152, Note_off_c, 1, 53, 0
1, 81152, Note_off_c, 1, 68, 0
1, 81152, Note_off_c, 1, 61, 0
1, 81152, Note_on_c, 1, 71, 127
1, 81357, Note_off_c, 1, 71, 0
1, 81408, Note_on_c, 1, 69, 127
1, 81408, Note_on_c, 1, 54, 127
1, 81408, Note_on_c, 1, 66, 127
1, 81408, Note_on_c, 1, 61, 127
1, 81664, Note_off_c, 1, 69, 0
1, 81664, Note_off_c, 1, 54, 0
1, 81664, Note_off_c, 1, 66, 0
1, 81664, Note_off_c, 1, 61, 0
1, 81664, Note_on_c, 1, 71, 127
1, 81869, Note_off_c, 1, 71, 0
1, 81920, Note_on_c, 1, 68, 127
1, 81920, Note_on_c, 1, 47, 127
1, 81920, Note_on_c, 1, 71, 127
1, 81920, Note_on_c, 1, 62, 127
1, 82176, Note_off_c, 1, 68, 0
1, 82176, Note_off_c, 1, 47, 0
1, 82176, Note_off_c, 1, 71, 0
1, 82176, Note_off_c, 1, 62, 0
1, 82176, Note_on_c, 1, 69, 127
1, 82381, Note_off_c, 1, 69, 0
1, 82432, Note_on_c, 1, 71, 127
1, 82432, Note_on_c, 1, 49, 127
1, 82432, Note_on_c, 1, 68, 127
1, 82432, Note_on_c, 1, 65, 127
1, 82432, Note_on_c, 1, 61, 127
1, 82637, Note_off_c, 1, 71, 0
1, 82688, Note_off_c, 1, 49, 0
1, 82688, Note_off_c, 1, 65, 0
1, 82688, Note_off_c, 1, 61, 0
1, 82893, Note_off_c, 1, 68, 0
1, 82944, Note_on_c, 1, 69, 127
1, 82944, Note_on_c, 1, 42, 127
1, 82944, Note_on_c, 1, 66, 127
1, 82944, Note_on_c, 1, 61, 127
1, 82944, Note_on_c, 1, 54, 127
1, 83149, Note_off_c, 1, 42, 0
1, 83149, Note_off_c, 1, 54, 0
1, 83200, Note_on_c, 1, 68, 127
1, 83200, Note_on_c, 1, 41, 127
1, 83200, Note_on_c, 1, 53, 127
1, 83405, Note_off_c, 1, 68, 0
1, 83405, Note_off_c, 1, 41, 0
1, 83405, Note_off_c, 1, 53, 0
1, 83712, Note_on_c, 1, 71, 127
1, 83712, Note_on_c, 1, 44, 127
1, 83712, Note_on_c, 1, 56, 127
1, 83917, Note_off_c, 1, 71, 0
1, 83917, Note_off_c, 1, 44, 0
1, 83917, Note_off_c, 1, 56, 0
1, 83968, Note_on_c, 1, 73, 127
1, 83968, Note_on_c, 1, 45, 127
1, 83968, Note_on_c, 1, 57, 127
1, 84173, Note_off_c, 1, 45, 0
1, 84173, Note_off_c, 1, 57, 0
1, 84224, Note_on_c, 1, 47, 127
1, 84224, Note_on_c, 1, 59, 127
1, 84429, Note_off_c, 1, 47, 0
1, 84429, Note_off_c, 1, 59, 0
1, 84480, Note_on_c, 1, 49, 127
1, 84736, Note_off_c, 1, 69, 0
1, 84736, Note_off_c, 1, 66, 0
1, 84736, Note_off_c, 1, 61, 0
1, 84736, Note_off_c, 1, 73, 0
1, 84736, Note_off_c, 1, 49, 0
1, 84736, Note_on_c, 1, 74, 127
1, 84941, Note_off_c, 1, 74, 0
1, 84992, Note_on_c, 1, 73, 127
1, 84992, Note_on_c, 1, 49, 127
1, 84992, Note_on_c, 1, 68, 127
1, 84992, Note_on_c, 1, 65, 127
1, 84992, Note_on_c, 1, 61, 127
1, 85248, Note_off_c, 1, 73, 0
1, 85248, Note_off_c, 1, 49, 0
1, 85248, Note_off_c, 1, 68, 0
1, 85248, Note_off_c, 1, 65, 0
1, 85248, Note_off_c, 1, 61, 0
1, 85248, Note_on_c, 1, 71, 127
1, 85248, Note_on_c, 1, 51, 127
1, 85453, Note_off_c, 1, 71, 0
1, 85453, Note_off_c, 1, 51, 0
1, 85504, Note_on_c, 1, 73, 127
1, 85504, Note_on_c, 1, 53, 127
1, 85504, Note_on_c, 1, 68, 127
1, 85504, Note_on_c, 1, 61, 127
1, 85504, Note_on_c, 1, 49, 127
1, 85709, Note_off_c, 1, 53, 0
1, 85760, Note_off_c, 1, 73, 0
1, 85760, Note_off_c, 1, 61, 0
1, 85965, Note_off_c, 1, 68, 0
1, 85965, Note_off_c, 1, 49, 0
1, 86016, Note_on_c, 1, 69, 127
1, 86016, Note_on_c, 1, 54, 127
1, 86016, Note_on_c, 1, 66, 127
1, 86016, Note_on_c, 1, 61, 127
1, 86016, Note_on_c, 1, 78, 127
1, 86016, Note_on_c, 1, 73, 127
1, 86221, Note_off_c, 1, 73, 0
1, 86272, Note_off_c, 1, 69, 0
1, 86272, Note_off_c, 1, 66, 0
1, 86272, Note_off_c, 1, 61, 0
1, 86272, Note_off_c, 1, 78, 0
1, 86272, Note_on_c, 1, 68, 127
1, 86272, Note_on_c, 1, 62, 127
1, 86272, Note_on_c, 1, 71, 127
1, 86477, Note_off_c, 1, 68, 0
1, 86477, Note_off_c, 1, 62, 0
1, 86477, Note_off_c, 1, 71, 0
1, 86528, Note_on_c, 1, 42, 127
1, 86528, Note_on_c, 1, 49, 127
1, 86784, Note_off_c, 1, 42, 0
1, 86784, Note_off_c, 1, 49, 0
1, 86784, Note_on_c, 1, 59, 127
1, 86989, Note_off_c, 1, 59, 0
1, 87296, Note_on_c, 1, 57, 127
1, 87501, Note_off_c, 1, 57, 0
1, 87552, Note_on_c, 1, 67, 127
1, 87757, Note_off_c, 1, 67, 0
1, 87808, Note_off_c, 1, 54, 0
1, 87808, Note_on_c, 1, 74, 127
1, 88013, Note_off_c, 1, 74, 0
1, 88064, Note_on_c, 1, 73, 127
1, 88064, Note_on_c, 1, 52, 127
1, 88064, Note_on_c, 1, 74, 127
1, 88064, Note_on_c, 1, 66, 127
1, 88064, Note_on_c, 1, 64, 127
1, 88064, Note_on_c, 1, 67, 127
1, 88192, Note_off_c, 1, 74, 0
1, 88192, Note_off_c, 1, 66, 0
1, 88269, Note_off_c, 1, 67, 0
1, 88320, Note_off_c, 1, 73, 0
1, 88320, Note_off_c, 1, 52, 0
1, 88320, Note_off_c, 1, 64, 0
1, 88320, Note_on_c, 1, 71, 127
1, 88320, Note_on_c, 1, 62, 127
1, 88525, Note_off_c, 1, 71, 0
1, 88525, Note_off_c, 1, 62, 0
1, 88576, Note_on_c, 1, 45, 127
1, 88576, Note_on_c, 1, 69, 127
1, 88832, Note_off_c, 1, 45, 0
1, 88832, Note_off_c, 1, 69, 0
1, 88832, Note_on_c, 1, 76, 127
1, 89037, Note_off_c, 1, 76, 0
1, 89088, Note_on_c, 1, 50, 127
1, 89293, Note_off_c, 1, 50, 0
1, 89344, Note_on_c, 1, 49, 127
1, 89549, Note_off_c, 1, 49, 0
1, 89600, Note_on_c, 1, 78, 127
1, 89805, Note_off_c, 1, 78, 0
1, 89856, Note_on_c, 1, 79, 127
1, 90061, Note_off_c, 1, 79, 0
1, 90112, Note_on_c, 1, 81, 127
1, 90112, Note_on_c, 1, 54, 127
1, 90112, Note_on_c, 1, 57, 127
1, 90317, Note_off_c, 1, 54, 0
1, 90368, Note_off_c, 1, 57, 0
1, 90368, Note_on_c, 1, 55, 127
1, 90573, Note_off_c, 1, 55, 0
1, 90880, Note_off_c, 1, 81, 0
1, 91392, Note_on_c, 1, 68, 127
1, 91392, Note_on_c, 1, 59, 127
1, 91597, Note_off_c, 1, 68, 0
1, 91597, Note_off_c, 1, 59, 0
1, 91648, Note_on_c, 1, 61, 127
1, 91853, Note_off_c, 1, 61, 0
1, 92672, Note_on_c, 1, 69, 127
1, 92672, Note_on_c, 1, 45, 127
1, 92672, Note_on_c, 1, 73, 127
1, 92672, Note_on_c, 1, 57, 127
1, 92672, Note_on_c, 1, 64, 127
1, 92928, Note_off_c, 1, 69, 0
1, 92928, Note_off_c, 1, 45, 0
1, 92928, Note_off_c, 1, 73, 0
1, 92928, Note_off_c, 1, 57, 0
1, 92928, Note_off_c, 1, 64, 0
1, 92928, Note_on_c, 1, 74, 127
1, 93133, Note_off_c, 1, 74, 0
1, 93184, Note_on_c, 1, 76, 127
1, 93184, Note_on_c, 1, 58, 127
1, 93184, Note_on_c, 1, 73, 127
1, 93184, Note_on_c, 1, 66, 127
1, 93389, Note_off_c, 1, 76, 0
1, 93440, Note_off_c, 1, 58, 0
1, 93440, Note_off_c, 1, 66, 0
1, 93645, Note_off_c, 1, 73, 0
1, 93696, Note_on_c, 1, 74, 127
1, 93696, Note_on_c, 1, 59, 127
1, 93696, Note_on_c, 1, 71, 127
1, 93696, Note_on_c, 1, 66, 127
1, 93696, Note_on_c, 1, 62, 127
1, 93901, Note_off_c, 1, 74, 0
1, 93952, Note_off_c, 1, 59, 0
1, 93952, Note_off_c, 1, 66, 0
1, 93952, Note_off_c, 1, 62, 0
1, 94157, Note_off_c, 1, 71, 0
1, 94208, Note_on_c, 1, 79, 127
1, 94208, Note_on_c, 1, 52, 127
1, 94208, Note_on_c, 1, 71, 127
1, 94208, Note_on_c, 1, 64, 127
1, 94208, Note_on_c, 1, 61, 127
1, 94208, Note_on_c, 1, 67, 127
1, 94413, Note_off_c, 1, 64, 0
1, 94413, Note_off_c, 1, 61, 0
1, 94464, Note_off_c, 1, 79, 0
1, 94464, Note_off_c, 1, 52, 0
1, 94464, Note_off_c, 1, 71, 0
1, 94464, Note_off_c, 1, 67, 0
1, 94464, Note_on_c, 1, 62, 127
1, 94669, Note_off_c, 1, 62, 0
1, 94720, Note_on_c, 1, 73, 127
1, 94720, Note_on_c, 1, 54, 127
1, 94720, Note_on_c, 1, 70, 127
1, 94720, Note_on_c, 1, 64, 127
1, 94720, Note_on_c, 1, 66, 127
1, 94976, Note_off_c, 1, 73, 0
1, 94976, Note_off_c, 1, 54, 0
1, 94976, Note_off_c, 1, 70, 0
1, 94976, Note_off_c, 1, 64, 0
1, 94976, Note_off_c, 1, 66, 0
1, 94976, Note_on_c, 1, 61, 127
1, 95181, Note_off_c, 1, 61, 0
1, 95232, Note_on_c, 1, 71, 127
1, 95232, Note_on_c, 1, 47, 127
1, 95232, Note_on_c, 1, 62, 127
1, 95232, Note_on_c, 1, 66, 127
1, 95232, Note_on_c, 1, 59, 127
1, 95437, Note_off_c, 1, 47, 0
1, 95488, Note_off_c, 1, 71, 0
1, 95488, Note_off_c, 1, 62, 0
1, 95488, Note_off_c, 1, 66, 0
1, 95488, Note_off_c, 1, 59, 0
1, 95488, Note_on_c, 1, 46, 127
1, 95488, Note_on_c, 1, 73, 127
1, 95693, Note_off_c, 1, 46, 0
1, 95693, Note_off_c, 1, 73, 0
1, 95744, Note_on_c, 1, 66, 127
1, 95744, Note_on_c, 1, 47, 127
1, 95744, Note_on_c, 1, 74, 127
1, 95744, Note_on_c, 1, 61, 127
1, 95744, Note_on_c, 1, 71, 127
1, 95744, Note_on_c, 1, 62, 127
1, 96000, Note_off_c, 1, 66, 0
1, 96000, Note_off_c, 1, 47, 0
1, 96000, Note_off_c, 1, 74, 0
1, 96000, Note_off_c, 1, 61, 0
1, 96000, Note_off_c, 1, 71, 0
1, 96000, Note_off_c, 1, 62, 0
1, 96000, Note_on_c, 1, 49, 127
1, 96000, Note_on_c, 1, 76, 127
1, 96205, Note_off_c, 1, 49, 0
1, 96205, Note_off_c, 1, 76, 0
1, 96256, Note_on_c, 1, 50, 127
1, 96256, Note_on_c, 1, 78, 127
1, 96256, Note_on_c, 1, 61, 127
1, 96256, Note_on_c, 1, 66, 127
1, 96256, Note_on_c, 1, 59, 127
1, 96461, Note_off_c, 1, 50, 0
1, 96461, Note_off_c, 1, 78, 0
1, 96512, Note_off_c, 1, 61, 0
1, 96512, Note_off_c, 1, 66, 0
1, 96512, Note_off_c, 1, 59, 0
1, 96512, Note_on_c, 1, 47, 127
1, 96512, Note_on_c, 1, 74, 127
1, 96717, Note_off_c, 1, 47, 0
1, 96717, Note_off_c, 1, 74, 0
1, 96768, Note_on_c, 1, 52, 127
1, 96768, Note_on_c, 1, 79, 127
1, 96768, Note_on_c, 1, 61, 127
1, 96768, Note_on_c, 1, 64, 127
1, 96768, Note_on_c, 1, 55, 127
1, 96973, Note_off_c, 1, 55, 0
1, 97024, Note_off_c, 1, 52, 0
1, 97024, Note_off_c, 1, 79, 0
1, 97024, Note_off_c, 1, 61, 0
1, 97024, Note_off_c, 1, 64, 0
1, 97024, Note_on_c, 1, 54, 127
1, 97229, Note_off_c, 1, 54, 0
1, 97280, Note_on_c, 1, 79, 127
1, 97280, Note_on_c, 1, 71, 127
1, 97280, Note_on_c, 1, 55, 127
1, 97280, Note_on_c, 1, 52, 127
1, 97485, Note_off_c, 1, 79, 0
1, 97485, Note_off_c, 1, 71, 0
1, 97485, Note_off_c, 1, 52, 0
1, 97536, Note_on_c, 1, 76, 127
1, 97536, Note_on_c, 1, 67, 127
1, 97741, Note_off_c, 1, 55, 0
1, 97741, Note_off_c, 1, 76, 0
1, 97741, Note_off_c, 1, 67, 0
1, 97792, Note_on_c, 1, 78, 127
1, 97792, Note_on_c, 1, 69, 127
1, 97792, Note_on_c, 1, 59, 127
1, 97792, Note_on_c, 1, 75, 127
1, 97792, Note_on_c, 1, 54, 127
1, 97792, Note_on_c, 1, 71, 127
1, 97997, Note_off_c, 1, 78, 0
1, 97997, Note_off_c, 1, 69, 0
1, 98048, Note_off_c, 1, 59, 0
1, 98048, Note_off_c, 1, 54, 0
1, 98048, Note_off_c, 1, 71, 0
1, 98048, Note_on_c, 1, 66, 127
1, 98048, Note_on_c, 1, 57, 127
1, 98253, Note_off_c, 1, 75, 0
1, 98253, Note_off_c, 1, 66, 0
1, 98253, Note_off_c, 1, 57, 0
1, 98304, Note_on_c, 1, 76, 127
1, 98304, Note_on_c, 1, 67, 127
1, 98304, Note_on_c, 1, 52, 127
1, 98304, Note_on_c, 1, 83, 127
1, 98304, Note_on_c, 1, 66, 127
1, 98304, Note_on_c, 1, 55, 127
1, 98304, Note_on_c, 1, 64, 127
1, 98304, Note_on_c, 1, 71, 127
1, 98509, Note_off_c, 1, 55, 0
1, 98560, Note_off_c, 1, 76, 0
1, 98560, Note_off_c, 1, 67, 0
1, 98560, Note_off_c, 1, 52, 0
1, 98560, Note_off_c, 1, 83, 0
1, 98560, Note_off_c, 1, 66, 0
1, 98560, Note_off_c, 1, 64, 0
1, 98560, Note_off_c, 1, 71, 0
1, 98560, Note_on_c, 1, 54, 127
1, 98765, Note_off_c, 1, 54, 0
1, 98816, Note_on_c, 1, 55, 127
1, 98816, Note_on_c, 1, 71, 127
1, 98816, Note_on_c, 1, 76, 127
1, 98816, Note_on_c, 1, 64, 127
1, 98816, Note_on_c, 1, 67, 127
1, 98816, Note_on_c, 1, 52, 127
1, 99072, Note_off_c, 1, 55, 0
1, 99072, Note_off_c, 1, 71, 0
1, 99072, Note_off_c, 1, 76, 0
1, 99072, Note_off_c, 1, 64, 0
1, 99072, Note_off_c, 1, 67, 0
1, 99072, Note_off_c, 1, 52, 0
1, 99072, Note_on_c, 1, 57, 127
1, 99277, Note_off_c, 1, 57, 0
1, 99328, Note_on_c, 1, 52, 127
1, 99328, Note_on_c, 1, 64, 127
1, 99328, Note_on_c, 1, 54, 127
1, 99328, Note_on_c, 1, 71, 127
1, 99328, Note_on_c, 1, 68, 127
1, 99533, Note_off_c, 1, 54, 0
1, 99584, Note_off_c, 1, 52, 0
1, 99584, Note_off_c, 1, 64, 0
1, 99584, Note_off_c, 1, 71, 0
1, 99584, Note_off_c, 1, 68, 0
1, 99584, Note_on_c, 1, 56, 127
1, 99789, Note_off_c, 1, 56, 0
1, 99840, Note_on_c, 1, 57, 127
1, 99840, Note_on_c, 1, 81, 127
1, 99840, Note_on_c, 1, 73, 127
1, 99840, Note_on_c, 1, 64, 127
1, 99840, Note_on_c, 1, 61, 127
1, 100045, Note_off_c, 1, 61, 0
1, 100096, Note_off_c, 1, 57, 0
1, 100096, Note_off_c, 1, 81, 0
1, 100096, Note_off_c, 1, 73, 0
1, 100096, Note_off_c, 1, 64, 0
1, 100096, Note_on_c, 1, 59, 127
1, 100301, Note_off_c, 1, 59, 0
1, 100352, Note_on_c, 1, 85, 127
1, 100352, Note_on_c, 1, 76, 127
1, 100352, Note_on_c, 1, 49, 127
1, 100352, Note_on_c, 1, 57, 127
1, 100352, Note_on_c, 1, 52, 127
1, 100557, Note_off_c, 1, 85, 0
1, 100557, Note_off_c, 1, 76, 0
1, 100557, Note_off_c, 1, 57, 0
1, 100557, Note_off_c, 1, 52, 0
1, 100608, Note_off_c, 1, 49, 0
1, 100608, Note_on_c, 1, 81, 127
1, 100608, Note_on_c, 1, 73, 127
1, 100608, Note_on_c, 1, 61, 127
1, 100813, Note_off_c, 1, 81, 0
1, 100813, Note_off_c, 1, 73, 0
1, 100813, Note_off_c, 1, 61, 0
1, 100864, Note_on_c, 1, 83, 127
1, 100864, Note_on_c, 1, 74, 127
1, 100864, Note_on_c, 1, 52, 127
1, 100864, Note_on_c, 1, 76, 127
1, 100864, Note_on_c, 1, 59, 127
1, 100864, Note_on_c, 1, 56, 127
1, 100864, Note_on_c, 1, 68, 127
1, 101069, Note_off_c, 1, 83, 0
1, 101069, Note_off_c, 1, 74, 0
1, 101069, Note_off_c, 1, 56, 0
1, 101120, Note_off_c, 1, 52, 0
1, 101120, Note_off_c, 1, 76, 0
1, 101120, Note_off_c, 1, 68, 0
1, 101120, Note_on_c, 1, 80, 127
1, 101120, Note_on_c, 1, 71, 127
1, 101120, Note_on_c, 1, 62, 127
1, 101325, Note_off_c, 1, 59, 0
1, 101325, Note_off_c, 1, 80, 0
1, 101325, Note_off_c, 1, 71, 0
1, 101325, Note_off_c, 1, 62, 0
1, 101376, Note_on_c, 1, 81, 127
1, 101376, Note_on_c, 1, 73, 127
1, 101376, Note_on_c, 1, 45, 127
1, 101376, Note_on_c, 1, 76, 127
1, 101376, Note_on_c, 1, 69, 127
1, 101376, Note_on_c, 1, 61, 127
1, 101376, Note_on_c, 1, 57, 127
1, 101376, Note_on_c, 1, 64, 127
1, 101632, Note_off_c, 1, 81, 0
1, 101632, Note_off_c, 1, 73, 0
1, 101632, Note_off_c, 1, 45, 0
1, 101632, Note_off_c, 1, 76, 0
1, 101632, Note_off_c, 1, 69, 0
1, 101632, Note_off_c, 1, 61, 0
1, 101632, Note_off_c, 1, 64, 0
1, 101632, Note_on_c, 1, 59, 127
1, 101837, Note_off_c, 1, 59, 0
1, 101888, Note_on_c, 1, 49, 127
1, 102144, Note_off_c, 1, 49, 0
1, 102144, Note_on_c, 1, 62, 127
1, 102349, Note_off_c, 1, 62, 0
1, 102912, Note_on_c, 1, 50, 127
1, 102912, Note_on_c, 1, 78, 127
1, 102912, Note_on_c, 1, 66, 127
1, 103117, Note_off_c, 1, 66, 0
1, 103168, Note_off_c, 1, 50, 0
1, 103168, Note_off_c, 1, 78, 0
1, 103424, Note_on_c, 1, 54, 127
1, 103680, Note_off_c, 1, 54, 0
1, 103680, Note_on_c, 1, 74, 127
1, 103885, Note_off_c, 1, 74, 0
1, 103936, Note_on_c, 1, 67, 127
1, 104141, Note_off_c, 1, 67, 0
1, 104704, Note_off_c, 1, 57, 0
1, 105984, Note_on_c, 1, 55, 127
1, 105984, Note_on_c, 1, 79, 127
1, 105984, Note_on_c, 1, 71, 127
1, 106240, Note_off_c, 1, 55, 0
1, 106240, Note_off_c, 1, 79, 0
1, 106240, Note_off_c, 1, 71, 0
1, 106496, Note_on_c, 1, 83, 127
1, 106496, Note_on_c, 1, 47, 127
1, 106701, Note_off_c, 1, 83, 0
1, 106752, Note_off_c, 1, 47, 0
1, 107008, Note_on_c, 1, 72, 127
1, 107213, Note_off_c, 1, 72, 0
1, 107520, Note_on_c, 1, 43, 127
1, 107776, Note_off_c, 1, 43, 0
1, 108544, Note_on_c, 1, 70, 127
1, 108749, Note_off_c, 1, 70, 0
1, 109568, Note_on_c, 1, 52, 127
1, 109824, Note_off_c, 1, 52, 0
1, 111616, Note_on_c, 1, 68, 127
1, 111872, Note_off_c, 1, 68, 0
1, 112128, Note_on_c, 1, 42, 127
1, 112384, Note_off_c, 1, 42, 0
1, 112640, Note_on_c, 1, 82, 127
1, 112640, Note_on_c, 1, 46, 127
1, 112640, Note_on_c, 1, 58, 127
1, 112845, Note_off_c, 1, 82, 0
1, 112896, Note_off_c, 1, 46, 0
1, 112896, Note_off_c, 1, 58, 0
1, 113152, Note_on_c, 1, 80, 127
1, 113152, Note_on_c, 1, 77, 127
1, 113357, Note_off_c, 1, 80, 0
1, 113357, Note_off_c, 1, 77, 0
1, 115712, Note_on_c, 1, 86, 127
1, 115917, Note_off_c, 1, 86, 0
1, 116224, Note_on_c, 1, 85, 127
1, 116429, Note_off_c, 1, 85, 0
1, 118272, Note_on_c, 1, 56, 127
1, 118477, Note_off_c, 1, 56, 0
1, 118784, Note_on_c, 1, 44, 127
1, 119040, Note_off_c, 1, 44, 0
1, 119296, Note_on_c, 1, 63, 127
1, 119552, Note_off_c, 1, 63, 0
1, 119552, Note_on_c, 1, 75, 127
1, 119757, Note_off_c, 1, 75, 0
1, 119808, Note_on_c, 1, 40, 127
1, 120064, Note_off_c, 1, 40, 0
1, 123392, Note_on_c, 1, 73, 127
1, 123392, Note_on_c, 1, 57, 127
1, 123392, Note_on_c, 1, 64, 127
1, 123392, Note_on_c, 1, 69, 127
1, 123392, Note_on_c, 1, 61, 127
1, 123597, Note_off_c, 1, 73, 0
1, 123648, Note_off_c, 1, 57, 0
1, 123648, Note_off_c, 1, 64, 0
1, 123648, Note_off_c, 1, 69, 0
1, 123648, Note_off_c, 1, 61, 0
1, 123648, Note_on_c, 1, 74, 127
1, 123648, Note_on_c, 1, 55, 127
1, 123648, Note_on_c, 1, 66, 127
1, 123853, Note_off_c, 1, 74, 0
1, 123853, Note_off_c, 1, 55, 0
1, 123853, Note_off_c, 1, 66, 0
1, 123904, Note_on_c, 1, 69, 127
1, 123904, Note_on_c, 1, 81, 127
1, 123904, Note_on_c, 1, 71, 127
1, 123904, Note_on_c, 1, 54, 127
1, 123904, Note_on_c, 1, 62, 127
1, 123904, Note_on_c, 1, 57, 127
1, 124109, Note_off_c, 1, 71, 0
1, 124109, Note_off_c, 1, 54, 0
1, 124109, Note_off_c, 1, 62, 0
1, 124160, Note_off_c, 1, 69, 0
1, 124160, Note_off_c, 1, 81, 0
1, 124160, Note_off_c, 1, 57, 0
1, 124160, Note_on_c, 1, 73, 127
1, 124160, Note_on_c, 1, 52, 127
1, 124160, Note_on_c, 1, 64, 127
1, 124365, Note_off_c, 1, 73, 0
1, 124365, Note_off_c, 1, 52, 0
1, 124365, Note_off_c, 1, 64, 0
1, 124416, Note_on_c, 1, 74, 127
1, 124416, Note_on_c, 1, 78, 127
1, 124416, Note_on_c, 1, 50, 127
1, 124416, Note_on_c, 1, 66, 127
1, 124416, Note_on_c, 1, 69, 127
1, 124416, Note_on_c, 1, 57, 127
1, 124621, Note_off_c, 1, 78, 0
1, 124672, Note_off_c, 1, 74, 0
1, 124672, Note_off_c, 1, 66, 0
1, 124672, Note_off_c, 1, 69, 0
1, 124672, Note_on_c, 1, 76, 127
1, 124672, Note_on_c, 1, 67, 127
1, 124877, Note_off_c, 1, 76, 0
1, 124877, Note_off_c, 1, 67, 0
1, 124928, Note_on_c, 1, 62, 127
1, 125184, Note_off_c, 1, 62, 0
1, 125440, Note_on_c, 1, 73, 127
1, 125645, Note_off_c, 1, 73, 0
1, 125696, Note_on_c, 1, 79, 127
1, 125696, Note_on_c, 1, 64, 127
1, 125901, Note_off_c, 1, 79, 0
1, 125901, Note_off_c, 1, 64, 0
1, 126208, Note_off_c, 1, 50, 0
1, 126464, Note_on_c, 1, 54, 127
1, 126720, Note_off_c, 1, 54, 0
1, 126976, Note_on_c, 1, 81, 127
1, 127232, Note_off_c, 1, 81, 0
1, 127488, Note_on_c, 1, 49, 127
1, 127488, Note_on_c, 1, 61, 127
1, 127744, Note_off_c, 1, 57, 0
1, 127744, Note_off_c, 1, 61, 0
1, 128512, Note_off_c, 1, 49, 0
1, 129536, Note_on_c, 1, 76, 127
1, 129536, Note_on_c, 1, 79, 127
1, 129536, Note_on_c, 1, 49, 127
1, 129536, Note_on_c, 1, 69, 127
1, 129536, Note_on_c, 1, 73, 127
1, 129536, Note_on_c, 1, 57, 127
1, 129741, Note_off_c, 1, 79, 0
1, 129792, Note_off_c, 1, 76, 0
1, 129792, Note_off_c, 1, 49, 0
1, 129792, Note_off_c, 1, 69, 0
1, 129792, Note_off_c, 1, 73, 0
1, 129792, Note_off_c, 1, 57, 0
1, 129792, Note_on_c, 1, 78, 127
1, 129792, Note_on_c, 1, 81, 127
1, 129997, Note_off_c, 1, 78, 0
1, 129997, Note_off_c, 1, 81, 0
1, 130048, Note_on_c, 1, 74, 127
1, 130048, Note_on_c, 1, 69, 127
1, 130048, Note_on_c, 1, 78, 127
1, 130048, Note_on_c, 1, 45, 127
1, 130048, Note_on_c, 1, 81, 127
1, 130048, Note_on_c, 1, 57, 127
1, 130048, Note_on_c, 1, 64, 127
1, 130048, Note_on_c, 1, 73, 127
1, 130253, Note_off_c, 1, 74, 0
1, 130253, Note_off_c, 1, 78, 0
1, 130304, Note_off_c, 1, 69, 0
1, 130304, Note_off_c, 1, 45, 0
1, 130304, Note_off_c, 1, 81, 0
1, 130304, Note_off_c, 1, 57, 0
1, 130304, Note_off_c, 1, 64, 0
1, 130304, Note_off_c, 1, 73, 0
1, 130304, Note_on_c, 1, 76, 127
1, 130304, Note_on_c, 1, 79, 127
1, 130509, Note_off_c, 1, 76, 0
1, 130509, Note_off_c, 1, 79, 0
1, 130560, Note_on_c, 1, 62, 127
1, 130560, Note_on_c, 1, 78, 127
1, 130560, Note_on_c, 1, 81, 127
1, 130560, Note_on_c, 1, 50, 127
1, 130560, Note_on_c, 1, 69, 127
1, 130560, Note_on_c, 1, 57, 127
1, 130816, Note_off_c, 1, 62, 0
1, 130816, Note_off_c, 1, 50, 0
1, 130816, Note_off_c, 1, 69, 0
1, 130816, Note_off_c, 1, 57, 0
1, 130816, Note_on_c, 1, 74, 127
1, 131021, Note_off_c, 1, 74, 0
1, 131072, Note_on_c, 1, 66, 127
1, 131328, Note_off_c, 1, 66, 0
1, 131328, Note_on_c, 1, 54, 127
1, 131533, Note_off_c, 1, 54, 0
1, 131584, Note_on_c, 1, 55, 127
1, 131584, Note_on_c, 1, 76, 127
1, 131584, Note_on_c, 1, 73, 127
1, 131584, Note_on_c, 1, 64, 127
1, 131789, Note_off_c, 1, 76, 0
1, 131840, Note_off_c, 1, 55, 0
1, 131840, Note_off_c, 1, 64, 0
1, 131840, Note_on_c, 1, 52, 127
1, 132045, Note_off_c, 1, 73, 0
1, 132045, Note_off_c, 1, 52, 0
1, 132096, Note_on_c, 1, 86, 127
1, 132352, Note_off_c, 1, 86, 0
1, 133120, Note_on_c, 1, 79, 127
1, 133120, Note_on_c, 1, 61, 127
1, 133325, Note_off_c, 1, 79, 0
1, 133376, Note_off_c, 1, 61, 0
1, 133632, Note_on_c, 1, 60, 127
1, 133888, Note_off_c, 1, 60, 0
1, 133888, Note_on_c, 1, 71, 127
1, 134093, Note_off_c, 1, 71, 0
1, 134144, Note_on_c, 1, 72, 127
1, 134349, Note_off_c, 1, 72, 0
1, 134400, Note_on_c, 1, 51, 127
1, 134605, Note_off_c, 1, 51, 0
1, 134912, Note_on_c, 1, 49, 127
1, 135117, Note_off_c, 1, 49, 0
1, 135168, Note_on_c, 1, 84, 127
1, 135168, Note_on_c, 1, 63, 127
1, 135373, Note_off_c, 1, 63, 0
1, 135424, Note_off_c, 1, 84, 0
1, 135680, Note_on_c, 1, 83, 127
1, 135680, Note_on_c, 1, 59, 127
1, 135885, Note_off_c, 1, 83, 0
1, 135936, Note_off_c, 1, 59, 0
1, 136832, Note_off_c, 1, 78, 0
1, 136832, Note_off_c, 1, 81, 0
1, 137216, Note_on_c, 1, 67, 127
1, 137472, Note_off_c, 1, 67, 0
1, 138240, Note_on_c, 1, 88, 127
1, 138496, Note_off_c, 1, 88, 0
1, 139008, Note_on_c, 1, 85, 127
1, 139213, Note_off_c, 1, 85, 0
1, 139776, Note_on_c, 1, 45, 127
1, 140032, Note_off_c, 1, 45, 0
1, 141056, Note_on_c, 1, 47, 127
1, 141261, Note_off_c, 1, 47, 0
1, 143360, Note_on_c, 1, 74, 127
1, 143360, Note_on_c, 1, 69, 127
1, 143360, Note_on_c, 1, 78, 127
1, 143360, Note_on_c, 1, 50, 127
1, 143360, Note_on_c, 1, 62, 127
1, 143360, Note_on_c, 1, 57, 127
1, 143360, Note_on_c, 1, 66, 127
1, 143565, Note_off_c, 1, 74, 0
1, 143565, Note_off_c, 1, 78, 0
1, 143616, Note_off_c, 1, 69, 0
1, 143616, Note_off_c, 1, 50, 0
1, 143616, Note_off_c, 1, 62, 0
1, 143616, Note_off_c, 1, 57, 0
1, 143616, Note_off_c, 1, 66, 0
1, 143616, Note_on_c, 1, 73, 127
1, 143616, Note_on_c, 1, 76, 127
1, 143616, Note_on_c, 1, 79, 127
1, 143821, Note_off_c, 1, 73, 0
1, 143821, Note_off_c, 1, 76, 0
1, 143821, Note_off_c, 1, 79, 0
1, 143872, Note_on_c, 1, 74, 127
1, 143872, Note_on_c, 1, 69, 127
1, 143872, Note_on_c, 1, 78, 127
1, 143872, Note_on_c, 1, 45, 127
1, 143872, Note_on_c, 1, 81, 127
1, 143872, Note_on_c, 1, 61, 127
1, 143872, Note_on_c, 1, 66, 127
1, 143872, Note_on_c, 1, 62, 127
1, 143872, Note_on_c, 1, 57, 127
1, 143872, Note_on_c, 1, 49, 127
1, 144077, Note_off_c, 1, 81, 0
1, 144128, Note_off_c, 1, 74, 0
1, 144128, Note_off_c, 1, 69, 0
1, 144128, Note_off_c, 1, 45, 0
1, 144128, Note_off_c, 1, 61, 0
1, 144128, Note_off_c, 1, 66, 0
1, 144128, Note_off_c, 1, 62, 0
1, 144128, Note_off_c, 1, 57, 0
1, 144128, Note_off_c, 1, 49, 0
1, 144333, Note_off_c, 1, 78, 0
1, 144384, Note_on_c, 1, 74, 127
1, 144384, Note_on_c, 1, 69, 127
1, 144384, Note_on_c, 1, 78, 127
1, 144384, Note_on_c, 1, 50, 127
1, 144384, Note_on_c, 1, 59, 127
1, 144384, Note_on_c, 1, 71, 127
1, 144384, Note_on_c, 1, 66, 127
1, 144384, Note_on_c, 1, 62, 127
1, 144384, Note_on_c, 1, 47, 127
1, 144589, Note_off_c, 1, 78, 0
1, 144640, Note_off_c, 1, 74, 0
1, 144640, Note_off_c, 1, 50, 0
1, 144640, Note_off_c, 1, 59, 0
1, 144640, Note_off_c, 1, 66, 0
1, 144640, Note_off_c, 1, 62, 0
1, 144640, Note_off_c, 1, 47, 0
1, 144640, Note_on_c, 1, 73, 127
1, 144640, Note_on_c, 1, 64, 127
1, 144845, Note_off_c, 1, 69, 0
1, 144845, Note_off_c, 1, 73, 0
1, 144845, Note_off_c, 1, 64, 0
1, 145152, Note_on_c, 1, 76, 127
1, 145152, Note_on_c, 1, 67, 127
1, 145357, Note_off_c, 1, 76, 0
1, 145357, Note_off_c, 1, 67, 0
1, 145408, Note_on_c, 1, 45, 127
1, 145408, Note_on_c, 1, 57, 127
1, 145664, Note_off_c, 1, 45, 0
1, 145664, Note_off_c, 1, 57, 0
1, 145920, Note_on_c, 1, 43, 127
1, 145920, Note_on_c, 1, 55, 127
1, 146176, Note_off_c, 1, 71, 0
1, 146176, Note_off_c, 1, 43, 0
1, 146176, Note_off_c, 1, 55, 0
1, 146432, Note_on_c, 1, 83, 127
1, 146432, Note_on_c, 1, 55, 127
1, 146432, Note_on_c, 1, 71, 127
1, 146432, Note_on_c, 1, 67, 127
1, 146432, Note_on_c, 1, 76, 127
1, 146432, Note_on_c, 1, 59, 127
1, 146637, Note_off_c, 1, 71, 0
1, 146688, Note_off_c, 1, 83, 0
1, 146688, Note_off_c, 1, 55, 0
1, 146688, Note_off_c, 1, 67, 0
1, 146688, Note_off_c, 1, 76, 0
1, 146688, Note_off_c, 1, 59, 0
1, 146688, Note_on_c, 1, 73, 127
1, 146893, Note_off_c, 1, 73, 0
1, 146944, Note_on_c, 1, 81, 127
1, 146944, Note_on_c, 1, 54, 127
1, 146944, Note_on_c, 1, 75, 127
1, 146944, Note_on_c, 1, 69, 127
1, 146944, Note_on_c, 1, 78, 127
1, 146944, Note_on_c, 1, 57, 127
1, 147200, Note_off_c, 1, 81, 0
1, 147200, Note_off_c, 1, 54, 0
1, 147200, Note_off_c, 1, 75, 0
1, 147200, Note_off_c, 1, 69, 0
1, 147200, Note_off_c, 1, 78, 0
1, 147200, Note_off_c, 1, 57, 0
1, 147200, Note_on_c, 1, 71, 127
1, 147405, Note_off_c, 1, 71, 0
1, 147456, Note_on_c, 1, 79, 127
1, 147456, Note_on_c, 1, 52, 127
1, 147456, Note_on_c, 1, 76, 127
1, 147456, Note_on_c, 1, 71, 127
1, 147456, Note_on_c, 1, 64, 127
1, 147661, Note_off_c, 1, 79, 0
1, 147661, Note_off_c, 1, 76, 0
1, 147712, Note_off_c, 1, 52, 0
1, 147712, Note_off_c, 1, 71, 0
1, 147712, Note_off_c, 1, 64, 0
1, 147712, Note_on_c, 1, 78, 127
1, 147712, Note_on_c, 1, 75, 127
1, 147712, Note_on_c, 1, 69, 127
1, 147917, Note_off_c, 1, 78, 0
1, 147917, Note_off_c, 1, 75, 0
1, 147917, Note_off_c, 1, 69, 0
1, 147968, Note_on_c, 1, 76, 127
1, 147968, Note_on_c, 1, 40, 127
1, 147968, Note_on_c, 1, 67, 127
1, 147968, Note_on_c, 1, 79, 127
1, 147968, Note_on_c, 1, 71, 127
1, 147968, Note_on_c, 1, 64, 127
1, 147968, Note_on_c, 1, 52, 127
1, 148173, Note_off_c, 1, 67, 0
1, 148224, Note_off_c, 1, 40, 0
1, 148224, Note_off_c, 1, 79, 0
1, 148224, Note_off_c, 1, 71, 0
1, 148224, Note_off_c, 1, 64, 0
1, 148224, Note_off_c, 1, 52, 0
1, 148224, Note_on_c, 1, 78, 127
1, 148224, Note_on_c, 1, 69, 127
1, 148429, Note_off_c, 1, 78, 0
1, 148429, Note_off_c, 1, 69, 0
1, 148480, Note_on_c, 1, 38, 127
1, 148480, Note_on_c, 1, 62, 127
1, 148736, Note_off_c, 1, 38, 0
1, 148736, Note_off_c, 1, 62, 0
1, 148992, Note_on_c, 1, 37, 127
1, 148992, Note_on_c, 1, 81, 127
1, 148992, Note_on_c, 1, 61, 127
1, 149197, Note_off_c, 1, 76, 0
1, 149248, Note_off_c, 1, 37, 0
1, 149248, Note_off_c, 1, 81, 0
1, 149248, Note_off_c, 1, 61, 0
1, 149248, Note_on_c, 1, 74, 127
1, 149453, Note_off_c, 1, 74, 0
1, 149504, Note_on_c, 1, 76, 127
1, 149504, Note_on_c, 1, 69, 127
1, 149504, Note_on_c, 1, 79, 127
1, 149504, Note_on_c, 1, 45, 127
1, 149504, Note_on_c, 1, 49, 127
1, 149504, Note_on_c, 1, 61, 127
1, 149504, Note_on_c, 1, 57, 127
1, 149504, Note_on_c, 1, 64, 127
1, 149709, Note_off_c, 1, 76, 0
1, 149709, Note_off_c, 1, 79, 0
1, 149760, Note_off_c, 1, 69, 0
1, 149760, Note_off_c, 1, 45, 0
1, 149760, Note_off_c, 1, 49, 0
1, 149760, Note_off_c, 1, 61, 0
1, 149760, Note_off_c, 1, 57, 0
1, 149760, Note_off_c, 1, 64, 0
1, 149760, Note_on_c, 1, 74, 127
1, 149760, Note_on_c, 1, 78, 127
1, 149965, Note_off_c, 1, 74, 0
1, 149965, Note_off_c, 1, 78, 0
1, 150016, Note_on_c, 1, 76, 127
1, 150016, Note_on_c, 1, 69, 127
1, 150016, Note_on_c, 1, 79, 127
1, 150016, Note_on_c, 1, 45, 127
1, 150016, Note_on_c, 1, 47, 127
1, 150016, Note_on_c, 1, 71, 127
1, 150016, Note_on_c, 1, 64, 127
1, 150016, Note_on_c, 1, 67, 127
1, 150016, Note_on_c, 1, 59, 127
1, 150272, Note_off_c, 1, 69, 0
1, 150272, Note_off_c, 1, 79, 0
1, 150272, Note_off_c, 1, 45, 0
1, 150272, Note_off_c, 1, 47, 0
1, 150272, Note_off_c, 1, 71, 0
1, 150272, Note_off_c, 1, 67, 0
1, 150272, Note_off_c, 1, 59, 0
1, 150477, Note_off_c, 1, 76, 0
1, 150528, Note_on_c, 1, 73, 127
1, 150528, Note_on_c, 1, 61, 127
1, 150733, Note_off_c, 1, 73, 0
1, 150784, Note_off_c, 1, 64, 0
1, 150784, Note_off_c, 1, 61, 0
1, 150784, Note_on_c, 1, 74, 127
1, 150989, Note_off_c, 1, 74, 0
1, 151040, Note_on_c, 1, 73, 127
1, 151040, Note_on_c, 1, 57, 127
1, 151040, Note_on_c, 1, 76, 127
1, 151040, Note_on_c, 1, 69, 127
1, 151040, Note_on_c, 1, 61, 127
1, 151245, Note_off_c, 1, 73, 0
1, 151245, Note_off_c, 1, 69, 0
1, 151296, Note_off_c, 1, 57, 0
1, 151296, Note_off_c, 1, 61, 0
1, 151296, Note_on_c, 1, 74, 127
1, 151296, Note_on_c, 1, 59, 127
1, 151296, Note_on_c, 1, 71, 127
1, 151501, Note_off_c, 1, 74, 0
1, 151501, Note_off_c, 1, 59, 0
1, 151501, Note_off_c, 1, 71, 0
1, 151552, Note_on_c, 1, 55, 127
1, 151552, Note_on_c, 1, 64, 127
1, 151808, Note_off_c, 1, 55, 0
1, 151808, Note_off_c, 1, 64, 0
1, 152064, Note_on_c, 1, 54, 127
1, 152064, Note_on_c, 1, 66, 127
1, 152269, Note_off_c, 1, 76, 0
1, 152320, Note_off_c, 1, 54, 0
1, 152320, Note_off_c, 1, 66, 0
1, 152576, Note_on_c, 1, 81, 127
1, 152576, Note_on_c, 1, 42, 127
1, 152576, Note_on_c, 1, 69, 127
1, 152576, Note_on_c, 1, 62, 127
1, 152576, Note_on_c, 1, 74, 127
1, 152576, Note_on_c, 1, 66, 127
1, 152576, Note_on_c, 1, 57, 127
1, 152576, Note_on_c, 1, 54, 127
1, 152781, Note_off_c, 1, 69, 0
1, 152832, Note_off_c, 1, 81, 0
1, 152832, Note_off_c, 1, 42, 0
1, 152832, Note_off_c, 1, 62, 0
1, 152832, Note_off_c, 1, 74, 0
1, 152832, Note_off_c, 1, 66, 0
1, 152832, Note_off_c, 1, 57, 0
1, 152832, Note_off_c, 1, 54, 0
1, 152832, Note_on_c, 1, 71, 127
1, 153037, Note_off_c, 1, 71, 0
1, 153088, Note_on_c, 1, 79, 127
1, 153088, Note_on_c, 1, 40, 127
1, 153088, Note_on_c, 1, 73, 127
1, 153088, Note_on_c, 1, 64, 127
1, 153088, Note_on_c, 1, 76, 127
1, 153088, Note_on_c, 1, 67, 127
1, 153088, Note_on_c, 1, 55, 127
1, 153088, Note_on_c, 1, 52, 127
1, 153344, Note_off_c, 1, 79, 0
1, 153344, Note_off_c, 1, 40, 0
1, 153344, Note_off_c, 1, 73, 0
1, 153344, Note_off_c, 1, 64, 0
1, 153344, Note_off_c, 1, 76, 0
1, 153344, Note_off_c, 1, 67, 0
1, 153344, Note_off_c, 1, 55, 0
1, 153344, Note_off_c, 1, 52, 0
1, 153344, Note_on_c, 1, 69, 127
1, 153549, Note_off_c, 1, 69, 0
1, 153600, Note_on_c, 1, 78, 127
1, 153600, Note_on_c, 1, 38, 127
1, 153600, Note_on_c, 1, 74, 127
1, 153600, Note_on_c, 1, 57, 127
1, 153600, Note_on_c, 1, 69, 127
1, 153600, Note_on_c, 1, 62, 127
1, 153600, Note_on_c, 1, 50, 127
1, 153805, Note_off_c, 1, 78, 0
1, 153856, Note_off_c, 1, 38, 0
1, 153856, Note_off_c, 1, 74, 0
1, 153856, Note_off_c, 1, 57, 0
1, 153856, Note_off_c, 1, 69, 0
1, 153856, Note_off_c, 1, 62, 0
1, 153856, Note_off_c, 1, 50, 0
1, 153856, Note_on_c, 1, 76, 127
1, 154061, Note_off_c, 1, 76, 0
1, 154112, Note_on_c, 1, 74, 127
1, 154112, Note_on_c, 1, 54, 127
1, 154112, Note_on_c, 1, 69, 127
1, 154112, Note_on_c, 1, 62, 127
1, 154368, Note_off_c, 1, 74, 0
1, 154368, Note_off_c, 1, 54, 0
1, 154368, Note_off_c, 1, 69, 0
1, 154368, Note_off_c, 1, 62, 0
1, 154368, Note_on_c, 1, 67, 127
1, 154573, Note_off_c, 1, 67, 0
1, 154624, Note_on_c, 1, 74, 127
1, 154624, Note_on_c, 1, 69, 127
1, 154624, Note_on_c, 1, 78, 127
1, 154624, Note_on_c, 1, 50, 127
1, 154624, Note_on_c, 1, 72, 127
1, 154624, Note_on_c, 1, 66, 127
1, 154880, Note_off_c, 1, 74, 0
1, 154880, Note_off_c, 1, 69, 0
1, 154880, Note_off_c, 1, 50, 0
1, 155085, Note_off_c, 1, 66, 0
1, 155136, Note_on_c, 1, 62, 127
1, 155136, Note_on_c, 1, 43, 127
1, 155136, Note_on_c, 1, 67, 127
1, 155136, Note_on_c, 1, 55, 127
1, 155341, Note_off_c, 1, 72, 0
1, 155392, Note_off_c, 1, 78, 0
1, 155392, Note_off_c, 1, 62, 0
1, 155392, Note_off_c, 1, 43, 0
1, 155392, Note_off_c, 1, 67, 0
1, 155392, Note_off_c, 1, 55, 0
1, 155392, Note_on_c, 1, 71, 127
1, 155597, Note_off_c, 1, 71, 0
1, 155648, Note_on_c, 1, 76, 127
1, 155648, Note_on_c, 1, 55, 127
1, 155648, Note_on_c, 1, 71, 127
1, 155648, Note_on_c, 1, 67, 127
1, 155648, Note_on_c, 1, 62, 127
1, 155648, Note_on_c, 1, 43, 127
1, 155904, Note_off_c, 1, 76, 0
1, 155904, Note_off_c, 1, 55, 0
1, 155904, Note_off_c, 1, 71, 0
1, 155904, Note_off_c, 1, 67, 0
1, 155904, Note_off_c, 1, 62, 0
1, 155904, Note_off_c, 1, 43, 0
1, 155904, Note_on_c, 1, 73, 127
1, 156109, Note_off_c, 1, 73, 0
1, 156160, Note_on_c, 1, 76, 127
1, 156160, Note_on_c, 1, 79, 127
1, 156160, Note_on_c, 1, 74, 127
1, 156160, Note_on_c, 1, 52, 127
1, 156160, Note_on_c, 1, 67, 127
1, 156160, Note_on_c, 1, 71, 127
1, 156365, Note_off_c, 1, 74, 0
1, 156416, Note_off_c, 1, 76, 0
1, 156416, Note_off_c, 1, 52, 0
1, 156416, Note_off_c, 1, 67, 0
1, 156621, Note_off_c, 1, 71, 0
1, 156672, Note_on_c, 1, 73, 127
1, 156672, Note_on_c, 1, 45, 127
1, 156672, Note_on_c, 1, 64, 127
1, 156672, Note_on_c, 1, 69, 127
1, 156672, Note_on_c, 1, 57, 127
1, 156877, Note_off_c, 1, 73, 0
1, 156928, Note_off_c, 1, 79, 0
1, 156928, Note_off_c, 1, 45, 0
1, 156928, Note_off_c, 1, 64, 0
1, 156928, Note_off_c, 1, 57, 0
1, 157133, Note_off_c, 1, 69, 0
1, 157184, Note_on_c, 1, 78, 127
1, 157184, Note_on_c, 1, 57, 127
1, 157184, Note_on_c, 1, 73, 127
1, 157184, Note_on_c, 1, 69, 127
1, 157184, Note_on_c, 1, 64, 127
1, 157184, Note_on_c, 1, 45, 127
1, 157440, Note_off_c, 1, 78, 0
1, 157440, Note_off_c, 1, 57, 0
1, 157440, Note_off_c, 1, 73, 0
1, 157440, Note_off_c, 1, 69, 0
1, 157440, Note_off_c, 1, 64, 0
1, 157440, Note_off_c, 1, 45, 0
1, 157440, Note_on_c, 1, 74, 127
1, 157645, Note_off_c, 1, 74, 0
1, 157696, Note_on_c, 1, 78, 127
1, 157696, Note_on_c, 1, 66, 127
1, 157696, Note_on_c, 1, 81, 127
1, 157696, Note_on_c, 1, 45, 127
1, 157696, Note_on_c, 1, 76, 127
1, 157696, Note_on_c, 1, 54, 127
1, 157696, Note_on_c, 1, 69, 127
1, 157696, Note_on_c, 1, 73, 127
1, 157696, Note_on_c, 1, 61, 127
1, 157901, Note_off_c, 1, 76, 0
1, 157952, Note_off_c, 1, 78, 0
1, 157952, Note_off_c, 1, 66, 0
1, 157952, Note_off_c, 1, 81, 0
1, 157952, Note_off_c, 1, 45, 0
1, 157952, Note_off_c, 1, 54, 0
1, 157952, Note_off_c, 1, 69, 0
1, 157952, Note_off_c, 1, 61, 0
1, 158157, Note_off_c, 1, 73, 0
1, 158208, Note_on_c, 1, 74, 127
1, 158208, Note_on_c, 1, 66, 127
1, 158208, Note_on_c, 1, 78, 127
1, 158208, Note_on_c, 1, 50, 127
1, 158208, Note_on_c, 1, 47, 127
1, 158208, Note_on_c, 1, 71, 127
1, 158208, Note_on_c, 1, 59, 127
1, 158208, Note_on_c, 1, 62, 127
1, 158464, Note_off_c, 1, 74, 0
1, 158464, Note_off_c, 1, 66, 0
1, 158464, Note_off_c, 1, 78, 0
1, 158464, Note_off_c, 1, 50, 0
1, 158464, Note_off_c, 1, 47, 0
1, 158464, Note_off_c, 1, 71, 0
1, 158464, Note_off_c, 1, 59, 0
1, 158464, Note_off_c, 1, 62, 0
1, 158720, Note_on_c, 1, 76, 127
1, 158720, Note_on_c, 1, 74, 127
1, 158720, Note_on_c, 1, 79, 127
1, 158720, Note_on_c, 1, 50, 127
1, 158720, Note_on_c, 1, 43, 127
1, 158720, Note_on_c, 1, 71, 127
1, 158720, Note_on_c, 1, 64, 127
1, 158720, Note_on_c, 1, 55, 127
1, 158720, Note_on_c, 1, 59, 127
1, 158720, Note_on_c, 1, 67, 127
1, 158976, Note_off_c, 1, 76, 0
1, 158976, Note_off_c, 1, 74, 0
1, 158976, Note_off_c, 1, 79, 0
1, 158976, Note_off_c, 1, 50, 0
1, 158976, Note_off_c, 1, 43, 0
1, 158976, Note_off_c, 1, 71, 0
1, 158976, Note_off_c, 1, 64, 0
1, 158976, Note_off_c, 1, 55, 0
1, 158976, Note_off_c, 1, 59, 0
1, 158976, Note_off_c, 1, 67, 0
1, 158976, Note_on_c, 1, 78, 127
1, 159181, Note_off_c, 1, 78, 0
1, 159232, Note_on_c, 1, 79, 127
1, 159232, Note_on_c, 1, 69, 127
1, 159232, Note_on_c, 1, 76, 127
1, 159232, Note_on_c, 1, 45, 127
1, 159232, Note_on_c, 1, 73, 127
1, 159232, Note_on_c, 1, 64, 127
1, 159232, Note_on_c, 1, 57, 127
1, 159232, Note_on_c, 1, 61, 127
1, 159232, Note_on_c, 1, 67, 127
1, 159437, Note_off_c, 1, 79, 0
1, 159488, Note_off_c, 1, 69, 0
1, 159488, Note_off_c, 1, 76, 0
1, 159488, Note_off_c, 1, 45, 0
1, 159488, Note_off_c, 1, 73, 0
1, 159488, Note_off_c, 1, 64, 0
1, 159488, Note_off_c, 1, 57, 0
1, 159488, Note_off_c, 1, 61, 0
1, 159488, Note_off_c, 1, 67, 0
1, 159488, Note_on_c, 1, 81, 127
1, 159488, Note_on_c, 1, 78, 127
1, 159693, Note_off_c, 1, 81, 0
1, 159693, Note_off_c, 1, 78, 0
1, 159744, Note_on_c, 1, 78, 127
1, 159744, Note_on_c, 1, 69, 127
1, 159744, Note_on_c, 1, 74, 127
1, 159744, Note_on_c, 1, 50, 127
1, 159744, Note_on_c, 1, 38, 127
1, 159744, Note_on_c, 1, 66, 127
1, 159744, Note_on_c, 1, 62, 127
1, 159744, Note_on_c, 1, 57, 127
1, 159744, Note_on_c, 1, 54, 127
1, 160000, Note_off_c, 1, 78, 0
1, 160000, Note_off_c, 1, 38, 0
1, 160000, Note_off_c, 1, 62, 0
1, 160000, Note_off_c, 1, 57, 0
1, 160000, Note_off_c, 1, 54, 0
1, 160000, Note_on_c, 1, 76, 127
1, 160000, Note_on_c, 1, 67, 127
1, 160205, Note_off_c, 1, 76, 0
1, 160205, Note_off_c, 1, 67, 0
1, 160512, Note_on_c, 1, 52, 127
1, 160717, Note_off_c, 1, 52, 0
1, 160768, Note_off_c, 1, 69, 0
1, 161024, Note_off_c, 1, 74, 0
1, 161024, Note_off_c, 1, 66, 0
1, 161229, Note_off_c, 1, 50, 0
1, 161280, Note_on_c, 1, 57, 127
1, 161280, Note_on_c, 1, 74, 127
1, 161280, Note_on_c, 1, 66, 127
1, 161536, Note_off_c, 1, 57, 0
1, 161536, Note_off_c, 1, 74, 0
1, 161536, Note_off_c, 1, 66, 0
1, 161536, Note_on_c, 1, 55, 127
1, 161741, Note_off_c, 1, 55, 0
1, 161792, Note_on_c, 1, 73, 127
1, 161792, Note_on_c, 1, 64, 127
1, 161792, Note_on_c, 1, 57, 127
1, 161997, Note_off_c, 1, 57, 0
1, 162048, Note_off_c, 1, 73, 0
1, 162048, Note_off_c, 1, 64, 0
1, 162048, Note_on_c, 1, 59, 127
1, 162253, Note_off_c, 1, 59, 0
1, 162304, Note_on_c, 1, 45, 127
1, 162304, Note_on_c, 1, 76, 127
1, 162304, Note_on_c, 1, 61, 127
1, 162304, Note_on_c, 1, 67, 127
1, 162509, Note_off_c, 1, 61, 0
1, 162560, Note_off_c, 1, 45, 0
1, 162560, Note_off_c, 1, 76, 0
1, 162560, Note_off_c, 1, 67, 0
1, 162560, Note_on_c, 1, 57, 127
1, 162765, Note_off_c, 1, 57, 0
1, 162816, Note_on_c, 1, 47, 127
1, 162816, Note_on_c, 1, 76, 127
1, 162816, Note_on_c, 1, 62, 127
1, 162816, Note_on_c, 1, 67, 127
1, 163021, Note_off_c, 1, 62, 0
1, 163072, Note_off_c, 1, 47, 0
1, 163072, Note_off_c, 1, 76, 0
1, 163072, Note_off_c, 1, 67, 0
1, 163072, Note_on_c, 1, 61, 127
1, 163277, Note_off_c, 1, 61, 0
1, 163328, Note_on_c, 1, 74, 127
1, 163328, Note_on_c, 1, 66, 127
1, 163328, Note_on_c, 1, 62, 127
1, 163533, Note_off_c, 1, 62, 0
1, 163584, Note_off_c, 1, 74, 0
1, 163584, Note_off_c, 1, 66, 0
1, 163584, Note_on_c, 1, 64, 127
1, 163789, Note_off_c, 1, 64, 0
1, 163840, Note_on_c, 1, 59, 127
1, 163840, Note_on_c, 1, 78, 127
1, 163840, Note_on_c, 1, 69, 127
1, 163840, Note_on_c, 1, 62, 127
1, 163840, Note_on_c, 1, 50, 127
1, 164045, Note_off_c, 1, 62, 0
1, 164096, Note_off_c, 1, 59, 0
1, 164096, Note_off_c, 1, 78, 0
1, 164096, Note_off_c, 1, 69, 0
1, 164096, Note_off_c, 1, 50, 0
1, 164096, Note_on_c, 1, 61, 127
1, 164301, Note_off_c, 1, 61, 0
1, 164352, Note_on_c, 1, 55, 127
1, 164352, Note_on_c, 1, 78, 127
1, 164352, Note_on_c, 1, 69, 127
1, 164352, Note_on_c, 1, 59, 127
1, 164557, Note_off_c, 1, 59, 0
1, 164608, Note_off_c, 1, 55, 0
1, 164608, Note_off_c, 1, 78, 0
1, 164608, Note_off_c, 1, 69, 0
1, 164608, Note_on_c, 1, 60, 127
1, 164608, Note_on_c, 1, 54, 127
1, 164813, Note_off_c, 1, 60, 0
1, 164813, Note_off_c, 1, 54, 0
1, 164864, Note_on_c, 1, 76, 127
1, 164864, Note_on_c, 1, 67, 127
1, 164864, Note_on_c, 1, 59, 127
1, 164864, Note_on_c, 1, 55, 127
1, 164864, Note_on_c, 1, 71, 127
1, 165069, Note_off_c, 1, 59, 0
1, 165069, Note_off_c, 1, 55, 0
1, 165120, Note_off_c, 1, 76, 0
1, 165120, Note_off_c, 1, 67, 0
1, 165120, Note_off_c, 1, 71, 0
1, 165120, Note_on_c, 1, 57, 127
1, 165325, Note_off_c, 1, 57, 0
1, 165376, Note_on_c, 1, 52, 127
1, 165376, Note_on_c, 1, 79, 127
1, 165376, Note_on_c, 1, 55, 127
1, 165376, Note_on_c, 1, 59, 127
1, 165376, Note_on_c, 1, 71, 127
1, 165581, Note_off_c, 1, 55, 0
1, 165581, Note_off_c, 1, 59, 0
1, 165632, Note_off_c, 1, 52, 0
1, 165632, Note_off_c, 1, 79, 0
1, 165632, Note_off_c, 1, 71, 0
1, 165632, Note_on_c, 1, 54, 127
1, 165837, Note_off_c, 1, 54, 0
1, 165888, Note_on_c, 1, 49, 127
1, 165888, Note_on_c, 1, 79, 127
1, 165888, Note_on_c, 1, 52, 127
1, 165888, Note_on_c, 1, 61, 127
1, 165888, Note_on_c, 1, 71, 127
1, 166093, Note_off_c, 1, 61, 0
1, 166144, Note_off_c, 1, 49, 0
1, 166144, Note_off_c, 1, 79, 0
1, 166144, Note_off_c, 1, 52, 0
1, 166144, Note_off_c, 1, 71, 0
1, 166144, Note_on_c, 1, 62, 127
1, 166349, Note_off_c, 1, 62, 0
1, 166400, Note_on_c, 1, 45, 127
1, 166400, Note_on_c, 1, 78, 127
1, 166400, Note_on_c, 1, 64, 127
1, 166400, Note_on_c, 1, 61, 127
1, 166400, Note_on_c, 1, 69, 127
1, 166605, Note_off_c, 1, 78, 0
1, 166605, Note_off_c, 1, 61, 0
1, 166605, Note_off_c, 1, 69, 0
1, 166656, Note_off_c, 1, 45, 0
1, 166656, Note_off_c, 1, 64, 0
1, 166656, Note_on_c, 1, 76, 127
1, 166656, Note_on_c, 1, 59, 127
1, 166656, Note_on_c, 1, 67, 127
1, 166861, Note_off_c, 1, 76, 0
1, 166861, Note_off_c, 1, 59, 0
1, 166861, Note_off_c, 1, 67, 0
1, 166912, Note_on_c, 1, 78, 127
1, 166912, Note_on_c, 1, 69, 127
1, 166912, Note_on_c, 1, 81, 127
1, 166912, Note_on_c, 1, 50, 127
1, 166912, Note_on_c, 1, 74, 127
1, 166912, Note_on_c, 1, 62, 127
1, 166912, Note_on_c, 1, 66, 127
1, 166912, Note_on_c, 1, 57, 127
1, 167117, Note_off_c, 1, 57, 0
1, 167168, Note_off_c, 1, 78, 0
1, 167168, Note_off_c, 1, 81, 0
1, 167168, Note_off_c, 1, 50, 0
1, 167168, Note_off_c, 1, 62, 0
1, 167168, Note_off_c, 1, 66, 0
1, 167168, Note_on_c, 1, 59, 127
1, 167373, Note_off_c, 1, 74, 0
1, 167373, Note_off_c, 1, 59, 0
1, 167424, Note_on_c, 1, 76, 127
1, 167424, Note_on_c, 1, 45, 127
1, 167424, Note_on_c, 1, 73, 127
1, 167424, Note_on_c, 1, 64, 127
1, 167424, Note_on_c, 1, 61, 127
1, 167552, Note_on_c, 1, 83, 127
1, 167629, Note_off_c, 1, 76, 0
1, 167680, Note_off_c, 1, 45, 0
1, 167680, Note_off_c, 1, 73, 0
1, 167680, Note_off_c, 1, 64, 0
1, 167680, Note_off_c, 1, 61, 0
1, 167680, Note_off_c, 1, 83, 0
1, 167936, Note_on_c, 1, 67, 127
1, 168141, Note_off_c, 1, 67, 0
1, 168192, Note_on_c, 1, 71, 127
1, 168397, Note_off_c, 1, 71, 0
1, 168704, Note_on_c, 1, 79, 127
1, 168909, Note_off_c, 1, 79, 0
1, 169728, Note_on_c, 1, 54, 127
1, 169933, Note_off_c, 1, 54, 0
1, 169984, Note_on_c, 1, 55, 127
1, 170240, Note_off_c, 1, 55, 0
1, 170240, Note_on_c, 1, 52, 127
1, 170445, Note_off_c, 1, 52, 0
1, 170752, Note_off_c, 1, 69, 0
1, 171008, Note_on_c, 1, 74, 127
1, 171008, Note_on_c, 1, 79, 127
1, 171008, Note_on_c, 1, 83, 127
1, 171008, Note_on_c, 1, 50, 127
1, 171008, Note_on_c, 1, 73, 127
1, 171008, Note_on_c, 1, 55, 127
1, 171008, Note_on_c, 1, 67, 127
1, 171008, Note_on_c, 1, 62, 127
1, 171213, Note_off_c, 1, 73, 0
1, 171264, Note_off_c, 1, 74, 0
1, 171264, Note_off_c, 1, 79, 0
1, 171264, Note_off_c, 1, 83, 0
1, 171264, Note_off_c, 1, 50, 0
1, 171264, Note_off_c, 1, 55, 0
1, 171264, Note_off_c, 1, 67, 0
1, 171264, Note_off_c, 1, 62, 0
1, 171264, Note_on_c, 1, 71, 127
1, 171469, Note_off_c, 1, 71, 0
1, 171520, Note_on_c, 1, 81, 127
1, 171520, Note_on_c, 1, 76, 127
1, 171520, Note_on_c, 1, 85, 127
1, 171520, Note_on_c, 1, 45, 127
1, 171520, Note_on_c, 1, 69, 127
1, 171520, Note_on_c, 1, 57, 127
1, 171520, Note_on_c, 1, 64, 127
1, 171520, Note_on_c, 1, 61, 127
1, 171725, Note_off_c, 1, 69, 0
1, 171776, Note_off_c, 1, 81, 0
1, 171776, Note_off_c, 1, 76, 0
1, 171776, Note_off_c, 1, 85, 0
1, 171776, Note_off_c, 1, 45, 0
1, 171776, Note_off_c, 1, 57, 0
1, 171776, Note_off_c, 1, 64, 0
1, 171776, Note_off_c, 1, 61, 0
1, 171776, Note_on_c, 1, 67, 127
1, 171981, Note_off_c, 1, 67, 0
1, 172032, Note_on_c, 1, 81, 127
1, 172032, Note_on_c, 1, 78, 127
1, 172032, Note_on_c, 1, 86, 127
1, 172032, Note_on_c, 1, 50, 127
1, 172032, Note_on_c, 1, 66, 127
1, 172032, Note_on_c, 1, 62, 127
1, 172032, Note_on_c, 1, 57, 127
1, 172237, Note_off_c, 1, 81, 0
1, 172237, Note_off_c, 1, 78, 0
1, 172237, Note_off_c, 1, 86, 0
1, 172288, Note_off_c, 1, 50, 0
1, 172288, Note_off_c, 1, 66, 0
1, 172288, Note_off_c, 1, 62, 0
1, 172288, Note_off_c, 1, 57, 0
1, 172288, Note_on_c, 1, 79, 127
1, 172288, Note_on_c, 1, 76, 127
1, 172288, Note_on_c, 1, 85, 127
1, 172493, Note_off_c, 1, 79, 0
1, 172493, Note_off_c, 1, 76, 0
1, 172493, Note_off_c, 1, 85, 0
1, 172544, Note_on_c, 1, 81, 127
1, 172544, Note_on_c, 1, 78, 127
1, 172544, Note_on_c, 1, 86, 127
1, 172544, Note_on_c, 1, 50, 127
1, 172544, Note_on_c, 1, 62, 127
1, 172544, Note_on_c, 1, 38, 127
1, 172544, Note_on_c, 1, 57, 127
1, 172544, Note_on_c, 1, 54, 127
1, 172544, Note_on_c, 1, 66, 127
1, 172749, Note_off_c, 1, 38, 0
1, 172800, Note_off_c, 1, 81, 0
1, 172800, Note_off_c, 1, 78, 0
1, 172800, Note_off_c, 1, 86, 0
1, 172800, Note_off_c, 1, 50, 0
1, 172800, Note_off_c, 1, 62, 0
1, 172800, Note_off_c, 1, 57, 0
1, 172800, Note_off_c, 1, 54, 0
1, 172800, Note_off_c, 1, 66, 0
1, 172800, Note_on_c, 1, 40, 127
1, 173005, Note_off_c, 1, 40, 0
1, 173056, Note_on_c, 1, 42, 127
1, 173056, Note_on_c, 1, 72, 127
1, 173056, Note_on_c, 1, 69, 127
1, 173056, Note_on_c, 1, 62, 127
1, 173056, Note_on_c, 1, 54, 127
1, 173261, Note_off_c, 1, 42, 0
1, 173312, Note_off_c, 1, 72, 0
1, 173312, Note_off_c, 1, 69, 0
1, 173312, Note_off_c, 1, 62, 0
1, 173312, Note_off_c, 1, 54, 0
1, 173312, Note_on_c, 1, 38, 127
1, 173517, Note_off_c, 1, 38, 0
1, 173568, Note_on_c, 1, 43, 127
1, 173568, Note_on_c, 1, 72, 127
1, 173568, Note_on_c, 1, 69, 127
1, 173568, Note_on_c, 1, 62, 127
1, 173568, Note_on_c, 1, 55, 127
1, 173773, Note_off_c, 1, 72, 0
1, 173773, Note_off_c, 1, 69, 0
1, 173824, Note_off_c, 1, 43, 0
1, 173824, Note_off_c, 1, 62, 0
1, 173824, Note_off_c, 1, 55, 0
1, 173824, Note_on_c, 1, 71, 127
1, 173824, Note_on_c, 1, 67, 127
1, 174029, Note_off_c, 1, 71, 0
1, 174029, Note_off_c, 1, 67, 0
1, 174080, Note_on_c, 1, 55, 127
1, 174080, Note_on_c, 1, 71, 127
1, 174080, Note_on_c, 1, 67, 127
1, 174080, Note_on_c, 1, 62, 127
1, 174080, Note_on_c, 1, 43, 127
1, 174285, Note_off_c, 1, 55, 0
1, 174336, Note_off_c, 1, 71, 0
1, 174336, Note_off_c, 1, 67, 0
1, 174336, Note_off_c, 1, 62, 0
1, 174336, Note_off_c, 1, 43, 0
1, 174336, Note_on_c, 1, 54, 127
1, 174541, Note_off_c, 1, 54, 0
1, 174592, Note_on_c, 1, 56, 127
1, 174592, Note_on_c, 1, 74, 127
1, 174592, Note_on_c, 1, 64, 127
1, 174592, Note_on_c, 1, 71, 127
1, 174848, Note_off_c, 1, 56, 0
1, 174848, Note_off_c, 1, 74, 0
1, 174848, Note_off_c, 1, 64, 0
1, 174848, Note_off_c, 1, 71, 0
1, 174848, Note_on_c, 1, 52, 127
1, 175053, Note_off_c, 1, 52, 0
1, 175104, Note_on_c, 1, 57, 127
1, 175104, Note_on_c, 1, 74, 127
1, 175104, Note_on_c, 1, 64, 127
1, 175104, Note_on_c, 1, 71, 127
1, 175309, Note_off_c, 1, 74, 0
1, 175309, Note_off_c, 1, 71, 0
1, 175360, Note_off_c, 1, 57, 0
1, 175360, Note_off_c, 1, 64, 0
1, 175360, Note_on_c, 1, 73, 127
1, 175360, Note_on_c, 1, 69, 127
1, 175565, Note_off_c, 1, 73, 0
1, 175565, Note_off_c, 1, 69, 0
1, 175616, Note_on_c, 1, 45, 127
1, 175616, Note_on_c, 1, 76, 127
1, 175616, Note_on_c, 1, 73, 127
1, 175616, Note_on_c, 1, 69, 127
1, 175616, Note_on_c, 1, 64, 127
1, 175616, Note_on_c, 1, 57, 127
1, 175872, Note_off_c, 1, 45, 0
1, 175872, Note_off_c, 1, 76, 0
1, 175872, Note_off_c, 1, 73, 0
1, 175872, Note_off_c, 1, 69, 0
1, 175872, Note_off_c, 1, 64, 0
1, 175872, Note_off_c, 1, 57, 0
1, 175872, Note_on_c, 1, 47, 127
1, 176077, Note_off_c, 1, 47, 0
1, 176128, Note_on_c, 1, 76, 127
1, 176128, Note_on_c, 1, 69, 127
1, 176128, Note_on_c, 1, 81, 127
1, 176128, Note_on_c, 1, 45, 127
1, 176128, Note_on_c, 1, 49, 127
1, 176128, Note_on_c, 1, 57, 127
1, 176128, Note_on_c, 1, 64, 127
1, 176128, Note_on_c, 1, 61, 127
1, 176384, Note_off_c, 1, 76, 0
1, 176384, Note_off_c, 1, 69, 0
1, 176384, Note_off_c, 1, 81, 0
1, 176384, Note_off_c, 1, 49, 0
1, 176384, Note_off_c, 1, 57, 0
1, 176384, Note_off_c, 1, 64, 0
1, 176384, Note_off_c, 1, 61, 0
1, 176589, Note_off_c, 1, 45, 0
1, 176640, Note_on_c, 1, 78, 127
1, 176640, Note_on_c, 1, 66, 127
1, 176640, Note_on_c, 1, 81, 127
1, 176640, Note_on_c, 1, 50, 127
1, 176640, Note_on_c, 1, 69, 127
1, 176640, Note_on_c, 1, 57, 127
1, 176640, Note_on_c, 1, 62, 127
1, 176896, Note_off_c, 1, 78, 0
1, 176896, Note_off_c, 1, 66, 0
1, 176896, Note_off_c, 1, 81, 0
1, 176896, Note_off_c, 1, 50, 0
1, 177152, Note_on_c, 1, 79, 127
1, 177152, Note_on_c, 1, 83, 127
1, 177152, Note_on_c, 1, 74, 127
1, 177152, Note_on_c, 1, 42, 127
1, 177152, Note_on_c, 1, 54, 127
1, 177152, Note_on_c, 1, 71, 127
1, 177357, Note_off_c, 1, 79, 0
1, 177357, Note_off_c, 1, 83, 0
1, 177357, Note_off_c, 1, 71, 0
1, 177408, Note_off_c, 1, 74, 0
1, 177408, Note_off_c, 1, 42, 0
1, 177408, Note_off_c, 1, 54, 0
1, 177664, Note_off_c, 1, 62, 0
1, 177664, Note_on_c, 1, 76, 127
1, 177664, Note_on_c, 1, 45, 127
1, 177664, Note_on_c, 1, 73, 127
1, 177664, Note_on_c, 1, 64, 127
1, 177664, Note_on_c, 1, 67, 127
1, 177869, Note_off_c, 1, 76, 0
1, 177869, Note_off_c, 1, 67, 0
1, 177920, Note_off_c, 1, 45, 0
1, 177920, Note_off_c, 1, 73, 0
1, 177920, Note_off_c, 1, 64, 0
1, 178176, Note_on_c, 1, 38, 127
1, 179115, Note_off_c, 1, 57, 0
1, 179115, Note_off_c, 1, 38, 0
1, 179116, Note_off_c, 1, 69, 0
1, 179200, Note_on_c, 1, 74, 127
1, 179200, Note_on_c, 1, 50, 127
1, 179200, Note_on_c, 1, 62, 127
1, 179456, Note_off_c, 1, 74, 0
1, 179456, Note_off_c, 1, 50, 0
1, 179456, Note_off_c, 1, 62, 0
1, 179712, Note_on_c, 1, 81, 127
1, 179712, Note_on_c, 1, 57, 127
1, 179712, Note_on_c, 1, 69, 127
1, 179968, Note_off_c, 1, 81, 0
1, 179968, Note_off_c, 1, 57, 0
1, 179968, Note_off_c, 1, 69, 0
1, 180224, Note_on_c, 1, 81, 127
1, 180224, Note_on_c, 1, 57, 127
1, 180224, Note_on_c, 1, 69, 127
1, 180480, Note_off_c, 1, 81, 0
1, 180480, Note_off_c, 1, 57, 0
1, 180480, Note_off_c, 1, 69, 0
1, 180736, Note_on_c, 1, 81, 127
1, 180736, Note_on_c, 1, 57, 127
1, 180736, Note_on_c, 1, 69, 127
1, 180992, Note_off_c, 1, 81, 0
1, 180992, Note_off_c, 1, 57, 0
1, 180992, Note_off_c, 1, 69, 0
1, 181248, Note_on_c, 1, 86, 127
1, 181248, Note_on_c, 1, 62, 127
1, 181248, Note_on_c, 1, 74, 127
1, 181504, Note_off_c, 1, 86, 0
1, 181504, Note_off_c, 1, 62, 0
1, 181504, Note_off_c, 1, 74, 0
1, 181760, Note_on_c, 1, 81, 127
1, 181760, Note_on_c, 1, 57, 127
1, 181760, Note_on_c, 1, 69, 127
1, 181965, Note_off_c, 1, 81, 0
1, 181965, Note_off_c, 1, 57, 0
1, 181965, Note_off_c, 1, 69, 0
1, 182016, Note_on_c, 1, 78, 127
1, 182016, Note_on_c, 1, 54, 127
1, 182016, Note_on_c, 1, 66, 127
1, 182221, Note_off_c, 1, 78, 0
1, 182221, Note_off_c, 1, 54, 0
1, 182221, Note_off_c, 1, 66, 0
1, 182272, Note_on_c, 1, 79, 127
1, 182272, Note_on_c, 1, 55, 127
1, 182272, Note_on_c, 1, 67, 127
1, 182477, Note_off_c, 1, 79, 0
1, 182477, Note_off_c, 1, 55, 0
1, 182477, Note_off_c, 1, 67, 0
1, 182528, Note_on_c, 1, 76, 127
1, 182528, Note_on_c, 1, 52, 127
1, 182528, Note_on_c, 1, 64, 127
1, 182733, Note_off_c, 1, 76, 0
1, 182733, Note_off_c, 1, 52, 0
1, 182733, Note_off_c, 1, 64, 0
1, 182784, Note_on_c, 1, 78, 127
1, 182784, Note_on_c, 1, 54, 127
1, 182784, Note_on_c, 1, 66, 127
1, 183040, Note_off_c, 1, 78, 0
1, 183040, Note_off_c, 1, 54, 0
1, 183040, Note_off_c, 1, 66, 0
1, 183296, Note_on_c, 1, 78, 127
1, 183296, Note_on_c, 1, 54, 127
1, 183296, Note_on_c, 1, 66, 127
1, 183552, Note_off_c, 1, 78, 0
1, 183552, Note_off_c, 1, 54, 0
1, 183552, Note_off_c, 1, 66, 0
1, 183808, Note_on_c, 1, 78, 127
1, 183808, Note_on_c, 1, 54, 127
1, 183808, Note_on_c, 1, 66, 127
1, 184064, Note_off_c, 1, 78, 0
1, 184064, Note_off_c, 1, 54, 0
1, 184064, Note_off_c, 1, 66, 0
1, 184320, Note_on_c, 1, 81, 127
1, 184320, Note_on_c, 1, 57, 127
1, 184320, Note_on_c, 1, 69, 127
1, 184576, Note_off_c, 1, 81, 0
1, 184576, Note_off_c, 1, 57, 0
1, 184576, Note_off_c, 1, 69, 0
1, 184832, Note_on_c, 1, 78, 127
1, 184832, Note_on_c, 1, 54, 127
1, 184832, Note_on_c, 1, 66, 127
1, 185037, Note_off_c, 1, 78, 0
1, 185037, Note_off_c, 1, 54, 0
1, 185037, Note_off_c, 1, 66, 0
1, 185088, Note_on_c, 1, 74, 127
1, 185088, Note_on_c, 1, 50, 127
1, 185088, Note_on_c, 1, 62, 127
1, 185293, Note_off_c, 1, 74, 0
1, 185293, Note_off_c, 1, 50, 0
1, 185293, Note_off_c, 1, 62, 0
1, 185344, Note_on_c, 1, 76, 127
1, 185344, Note_on_c, 1, 69, 127
1, 185344, Note_on_c, 1, 81, 127
1, 185344, Note_on_c, 1, 45, 127
1, 185344, Note_on_c, 1, 52, 127
1, 185344, Note_on_c, 1, 64, 127
1, 185549, Note_off_c, 1, 52, 0
1, 185549, Note_off_c, 1, 64, 0
1, 185600, Note_off_c, 1, 76, 0
1, 185600, Note_off_c, 1, 69, 0
1, 185600, Note_off_c, 1, 81, 0
1, 185600, Note_off_c, 1, 45, 0
1, 185600, Note_on_c, 1, 73, 127
1, 185600, Note_on_c, 1, 49, 127
1, 185600, Note_on_c, 1, 61, 127
1, 185805, Note_off_c, 1, 73, 0
1, 185805, Note_off_c, 1, 49, 0
1, 185805, Note_off_c, 1, 61, 0
1, 185856, Note_on_c, 1, 74, 127
1, 185856, Note_on_c, 1, 69, 127
1, 185856, Note_on_c, 1, 78, 127
1, 185856, Note_on_c, 1, 50, 127
1, 185856, Note_on_c, 1, 62, 127
1, 186112, Note_off_c, 1, 74, 0
1, 186112, Note_off_c, 1, 69, 0
1, 186112, Note_off_c, 1, 78, 0
1, 186112, Note_off_c, 1, 50, 0
1, 186112, Note_off_c, 1, 62, 0
1, 186368, Note_on_c, 1, 69, 127
1, 186368, Note_on_c, 1, 66, 127
1, 186368, Note_on_c, 1, 74, 127
1, 186368, Note_on_c, 1, 50, 127
1, 186368, Note_on_c, 1, 62, 127
1, 186624, Note_off_c, 1, 69, 0
1, 186624, Note_off_c, 1, 66, 0
1, 186624, Note_off_c, 1, 74, 0
1, 186624, Note_off_c, 1, 62, 0
1, 186624, Note_on_c, 1, 76, 127
1, 186829, Note_off_c, 1, 50, 0
1, 186829, Note_off_c, 1, 76, 0
1, 186880, Note_on_c, 1, 74, 127
1, 186880, Note_on_c, 1, 69, 127
1, 186880, Note_on_c, 1, 78, 127
1, 186880, Note_on_c, 1, 50, 127
1, 186880, Note_on_c, 1, 62, 127
1, 187085, Note_off_c, 1, 78, 0
1, 187136, Note_off_c, 1, 74, 0
1, 187136, Note_off_c, 1, 69, 0
1, 187136, Note_off_c, 1, 62, 0
1, 187136, Note_on_c, 1, 79, 127
1, 187341, Note_off_c, 1, 50, 0
1, 187341, Note_off_c, 1, 79, 0
1, 187392, Note_on_c, 1, 78, 127
1, 187392, Note_on_c, 1, 74, 127
1, 187392, Note_on_c, 1, 81, 127
1, 187392, Note_on_c, 1, 50, 127
1, 187392, Note_on_c, 1, 62, 127
1, 187597, Note_off_c, 1, 62, 0
1, 187648, Note_off_c, 1, 74, 0
1, 187648, Note_off_c, 1, 50, 0
1, 187648, Note_on_c, 1, 54, 127
1, 187648, Note_on_c, 1, 66, 127
1, 187853, Note_off_c, 1, 78, 0
1, 187853, Note_off_c, 1, 54, 0
1, 187853, Note_off_c, 1, 66, 0
1, 187904, Note_on_c, 1, 79, 127
1, 187904, Note_on_c, 1, 76, 127
1, 187904, Note_on_c, 1, 45, 127
1, 187904, Note_on_c, 1, 52, 127
1, 187904, Note_on_c, 1, 64, 127
1, 188109, Note_off_c, 1, 52, 0
1, 188109, Note_off_c, 1, 64, 0
1, 188160, Note_off_c, 1, 79, 0
1, 188160, Note_off_c, 1, 76, 0
1, 188160, Note_off_c, 1, 45, 0
1, 188160, Note_on_c, 1, 73, 127
1, 188160, Note_on_c, 1, 49, 127
1, 188160, Note_on_c, 1, 61, 127
1, 188365, Note_off_c, 1, 73, 0
1, 188365, Note_off_c, 1, 49, 0
1, 188365, Note_off_c, 1, 61, 0
1, 189184, Note_on_c, 1, 57, 127
1, 189184, Note_on_c, 1, 69, 127
1, 189389, Note_off_c, 1, 81, 0
1, 189389, Note_off_c, 1, 57, 0
1, 189389, Note_off_c, 1, 69, 0
1, 189440, Note_on_c, 1, 76, 127
1, 189440, Note_on_c, 1, 69, 127
1, 189440, Note_on_c, 1, 85, 127
1, 189440, Note_on_c, 1, 45, 127
1, 189440, Note_on_c, 1, 79, 127
1, 189440, Note_on_c, 1, 55, 127
1, 189440, Note_on_c, 1, 67, 127
1, 189645, Note_off_c, 1, 76, 0
1, 189645, Note_off_c, 1, 79, 0
1, 189645, Note_off_c, 1, 55, 0
1, 189645, Note_off_c, 1, 67, 0
1, 189696, Note_off_c, 1, 69, 0
1, 189696, Note_off_c, 1, 85, 0
1, 189696, Note_off_c, 1, 45, 0
1, 189696, Note_on_c, 1, 52, 127
1, 189696, Note_on_c, 1, 64, 127
1, 189901, Note_off_c, 1, 52, 0
1, 189901, Note_off_c, 1, 64, 0
1, 189952, Note_on_c, 1, 78, 127
1, 189952, Note_on_c, 1, 69, 127
1, 189952, Note_on_c, 1, 86, 127
1, 189952, Note_on_c, 1, 50, 127
1, 189952, Note_on_c, 1, 54, 127
1, 189952, Note_on_c, 1, 66, 127
1, 190157, Note_off_c, 1, 78, 0
1, 190157, Note_off_c, 1, 54, 0
1, 190157, Note_off_c, 1, 66, 0
1, 190208, Note_off_c, 1, 69, 0
1, 190208, Note_off_c, 1, 86, 0
1, 190208, Note_on_c, 1, 81, 127
1, 190208, Note_on_c, 1, 74, 127
1, 190208, Note_on_c, 1, 62, 127
1, 190413, Note_off_c, 1, 50, 0
1, 190413, Note_off_c, 1, 81, 0
1, 190413, Note_off_c, 1, 74, 0
1, 190413, Note_off_c, 1, 62, 0
1, 190464, Note_on_c, 1, 85, 127
1, 190464, Note_on_c, 1, 88, 127
1, 190464, Note_on_c, 1, 45, 127
1, 190464, Note_on_c, 1, 69, 127
1, 190464, Note_on_c, 1, 57, 127
1, 190669, Note_off_c, 1, 85, 0
1, 190720, Note_off_c, 1, 88, 0
1, 190720, Note_off_c, 1, 57, 0
1, 190720, Note_on_c, 1, 81, 127
1, 190925, Note_off_c, 1, 81, 0
1, 190976, Note_on_c, 1, 76, 127
1, 191232, Note_off_c, 1, 76, 0
1, 191488, Note_off_c, 1, 45, 0
1, 191488, Note_on_c, 1, 79, 127
1, 191488, Note_on_c, 1, 61, 127
1, 191744, Note_off_c, 1, 79, 0
1, 191744, Note_off_c, 1, 61, 0
1, 192000, Note_on_c, 1, 74, 127
1, 192000, Note_on_c, 1, 78, 127
1, 192000, Note_on_c, 1, 62, 127
1, 192256, Note_off_c, 1, 74, 0
1, 192256, Note_off_c, 1, 78, 0
1, 192256, Note_off_c, 1, 62, 0
1, 192512, Note_on_c, 1, 66, 127
1, 192768, Note_off_c, 1, 66, 0
1, 193024, Note_on_c, 1, 73, 127
1, 193280, Note_off_c, 1, 73, 0
1, 197632, Note_on_c, 1, 50, 127
1, 197888, Note_off_c, 1, 69, 0
1, 197888, Note_off_c, 1, 50, 0
1, 198144, Note_on_c, 1, 78, 127
1, 198144, Note_on_c, 1, 74, 127
1, 198144, Note_on_c, 1, 81, 127
1, 198144, Note_on_c, 1, 50, 127
1, 198144, Note_on_c, 1, 62, 127
1, 198144, Note_on_c, 1, 66, 127
1, 198272, Note_off_c, 1, 78, 0
1, 198272, Note_on_c, 1, 79, 127
1, 198272, Note_on_c, 1, 83, 127
1, 198400, Note_off_c, 1, 74, 0
1, 198400, Note_off_c, 1, 50, 0
1, 198400, Note_off_c, 1, 62, 0
1, 198400, Note_off_c, 1, 66, 0
1, 198400, Note_off_c, 1, 79, 0
1, 198400, Note_off_c, 1, 83, 0
1, 198400, Note_on_c, 1, 76, 127
1, 198528, Note_off_c, 1, 81, 0
1, 198605, Note_off_c, 1, 76, 0
1, 198656, Note_on_c, 1, 57, 127
1, 198656, Note_on_c, 1, 69, 127
1, 198861, Note_off_c, 1, 57, 0
1, 198912, Note_off_c, 1, 69, 0
1, 198912, Note_on_c, 1, 54, 127
1, 199117, Note_off_c, 1, 54, 0
1, 199168, Note_on_c, 1, 55, 127
1, 199373, Note_off_c, 1, 55, 0
1, 199424, Note_on_c, 1, 52, 127
1, 199424, Note_on_c, 1, 73, 127
1, 199629, Note_off_c, 1, 52, 0
1, 199629, Note_off_c, 1, 73, 0
1, 199680, Note_on_c, 1, 86, 127
1, 199936, Note_off_c, 1, 86, 0
1, 201216, Note_on_c, 1, 60, 127
1, 201472, Note_off_c, 1, 60, 0
1, 201472, Note_on_c, 1, 71, 127
1, 201677, Note_off_c, 1, 71, 0
1, 201728, Note_on_c, 1, 72, 127
1, 201933, Note_off_c, 1, 72, 0
1, 201984, Note_on_c, 1, 51, 127
1, 202189, Note_off_c, 1, 51, 0
1, 202496, Note_on_c, 1, 49, 127
1, 202701, Note_off_c, 1, 49, 0
1, 202752, Note_on_c, 1, 84, 127
1, 203008, Note_off_c, 1, 84, 0
1, 203264, Note_on_c, 1, 63, 127
1, 203520, Note_off_c, 1, 63, 0
1, 203776, Note_on_c, 1, 59, 127
1, 204032, Note_off_c, 1, 59, 0
1, 204288, Note_on_c, 1, 64, 127
1, 204544, Note_off_c, 1, 64, 0
1, 204800, Note_on_c, 1, 67, 127
1, 205005, Note_off_c, 1, 67, 0
1, 205824, Note_on_c, 1, 88, 127
1, 206080, Note_off_c, 1, 88, 0
1, 206592, Note_on_c, 1, 85, 127
1, 206797, Note_off_c, 1, 85, 0
1, 207360, Note_on_c, 1, 45, 127
1, 207616, Note_off_c, 1, 45, 0
1, 208640, Note_on_c, 1, 47, 127
1, 208845, Note_off_c, 1, 47, 0
1, 210944, Note_on_c, 1, 74, 127
1, 210944, Note_on_c, 1, 69, 127
1, 210944, Note_on_c, 1, 78, 127
1, 210944, Note_on_c, 1, 50, 127
1, 210944, Note_on_c, 1, 62, 127
1, 210944, Note_on_c, 1, 57, 127
1, 211149, Note_off_c, 1, 74, 0
1, 211149, Note_off_c, 1, 78, 0
1, 211200, Note_off_c, 1, 69, 0
1, 211200, Note_off_c, 1, 50, 0
1, 211200, Note_off_c, 1, 62, 0
1, 211200, Note_off_c, 1, 57, 0
1, 211200, Note_on_c, 1, 73, 127
1, 211200, Note_on_c, 1, 76, 127
1, 211200, Note_on_c, 1, 79, 127
1, 211405, Note_off_c, 1, 73, 0
1, 211405, Note_off_c, 1, 76, 0
1, 211405, Note_off_c, 1, 79, 0
1, 211456, Note_on_c, 1, 74, 127
1, 211456, Note_on_c, 1, 69, 127
1, 211456, Note_on_c, 1, 78, 127
1, 211456, Note_on_c, 1, 45, 127
1, 211456, Note_on_c, 1, 81, 127
1, 211456, Note_on_c, 1, 61, 127
1, 211456, Note_on_c, 1, 66, 127
1, 211456, Note_on_c, 1, 62, 127
1, 211661, Note_off_c, 1, 81, 0
1, 211712, Note_off_c, 1, 74, 0
1, 211712, Note_off_c, 1, 69, 0
1, 211712, Note_off_c, 1, 45, 0
1, 211712, Note_off_c, 1, 61, 0
1, 211712, Note_off_c, 1, 66, 0
1, 211712, Note_off_c, 1, 62, 0
1, 211917, Note_off_c, 1, 78, 0
1, 211968, Note_on_c, 1, 74, 127
1, 211968, Note_on_c, 1, 69, 127
1, 211968, Note_on_c, 1, 78, 127
1, 211968, Note_on_c, 1, 50, 127
1, 211968, Note_on_c, 1, 59, 127
1, 211968, Note_on_c, 1, 71, 127
1, 211968, Note_on_c, 1, 66, 127
1, 212173, Note_off_c, 1, 66, 0
1, 212224, Note_off_c, 1, 74, 0
1, 212224, Note_off_c, 1, 69, 0
1, 212224, Note_off_c, 1, 78, 0
1, 212224, Note_off_c, 1, 50, 0
1, 212224, Note_off_c, 1, 59, 0
1, 212224, Note_on_c, 1, 73, 127
1, 212224, Note_on_c, 1, 64, 127
1, 212429, Note_off_c, 1, 73, 0
1, 212429, Note_off_c, 1, 64, 0
1, 212480, Note_on_c, 1, 47, 127
1, 212736, Note_off_c, 1, 47, 0
1, 212736, Note_on_c, 1, 76, 127
1, 212736, Note_on_c, 1, 67, 127
1, 212941, Note_off_c, 1, 76, 0
1, 212941, Note_off_c, 1, 67, 0
1, 212992, Note_on_c, 1, 45, 127
1, 213248, Note_off_c, 1, 45, 0
1, 213504, Note_on_c, 1, 43, 127
1, 213504, Note_on_c, 1, 62, 127
1, 213760, Note_off_c, 1, 71, 0
1, 213760, Note_off_c, 1, 43, 0
1, 213760, Note_off_c, 1, 62, 0
1, 214016, Note_on_c, 1, 83, 127
1, 214016, Note_on_c, 1, 55, 127
1, 214016, Note_on_c, 1, 71, 127
1, 214016, Note_on_c, 1, 67, 127
1, 214221, Note_off_c, 1, 71, 0
1, 214272, Note_off_c, 1, 83, 0
1, 214272, Note_off_c, 1, 55, 0
1, 214272, Note_off_c, 1, 67, 0
1, 214272, Note_on_c, 1, 73, 127
1, 214477, Note_off_c, 1, 73, 0
1, 214528, Note_on_c, 1, 81, 127
1, 214528, Note_on_c, 1, 54, 127
1, 214528, Note_on_c, 1, 75, 127
1, 214528, Note_on_c, 1, 69, 127
1, 214733, Note_off_c, 1, 75, 0
1, 214784, Note_off_c, 1, 81, 0
1, 214784, Note_off_c, 1, 54, 0
1, 214784, Note_off_c, 1, 69, 0
1, 214784, Note_on_c, 1, 71, 127
1, 214989, Note_off_c, 1, 71, 0
1, 215040, Note_on_c, 1, 79, 127
1, 215040, Note_on_c, 1, 52, 127
1, 215040, Note_on_c, 1, 76, 127
1, 215040, Note_on_c, 1, 71, 127
1, 215245, Note_off_c, 1, 79, 0
1, 215245, Note_off_c, 1, 76, 0
1, 215245, Note_off_c, 1, 71, 0
1, 215296, Note_off_c, 1, 52, 0
1, 215296, Note_on_c, 1, 78, 127
1, 215296, Note_on_c, 1, 75, 127
1, 215296, Note_on_c, 1, 69, 127
1, 215501, Note_off_c, 1, 78, 0
1, 215501, Note_off_c, 1, 75, 0
1, 215501, Note_off_c, 1, 69, 0
1, 215552, Note_on_c, 1, 76, 127
1, 215552, Note_on_c, 1, 40, 127
1, 215552, Note_on_c, 1, 67, 127
1, 215757, Note_off_c, 1, 67, 0
1, 215808, Note_off_c, 1, 40, 0
1, 215808, Note_on_c, 1, 78, 127
1, 215808, Note_on_c, 1, 69, 127
1, 216013, Note_off_c, 1, 78, 0
1, 216013, Note_off_c, 1, 69, 0
1, 216064, Note_on_c, 1, 38, 127
1, 216064, Note_on_c, 1, 79, 127
1, 216064, Note_on_c, 1, 71, 127
1, 216269, Note_off_c, 1, 79, 0
1, 216269, Note_off_c, 1, 71, 0
1, 216320, Note_off_c, 1, 38, 0
1, 216576, Note_on_c, 1, 37, 127
1, 216576, Note_on_c, 1, 81, 127
1, 216576, Note_on_c, 1, 64, 127
1, 216781, Note_off_c, 1, 76, 0
1, 216832, Note_off_c, 1, 37, 0
1, 216832, Note_off_c, 1, 81, 0
1, 216832, Note_off_c, 1, 64, 0
1, 216832, Note_on_c, 1, 74, 127
1, 217037, Note_off_c, 1, 74, 0
1, 217088, Note_on_c, 1, 76, 127
1, 217088, Note_on_c, 1, 69, 127
1, 217088, Note_on_c, 1, 79, 127
1, 217088, Note_on_c, 1, 45, 127
1, 217088, Note_on_c, 1, 49, 127
1, 217088, Note_on_c, 1, 61, 127
1, 217293, Note_off_c, 1, 76, 0
1, 217293, Note_off_c, 1, 79, 0
1, 217344, Note_off_c, 1, 69, 0
1, 217344, Note_off_c, 1, 45, 0
1, 217344, Note_off_c, 1, 49, 0
1, 217344, Note_off_c, 1, 61, 0
1, 217344, Note_on_c, 1, 74, 127
1, 217344, Note_on_c, 1, 78, 127
1, 217549, Note_off_c, 1, 74, 0
1, 217549, Note_off_c, 1, 78, 0
1, 217600, Note_on_c, 1, 76, 127
1, 217600, Note_on_c, 1, 69, 127
1, 217600, Note_on_c, 1, 79, 127
1, 217600, Note_on_c, 1, 45, 127
1, 217600, Note_on_c, 1, 47, 127
1, 217600, Note_on_c, 1, 71, 127
1, 217600, Note_on_c, 1, 64, 127
1, 217856, Note_off_c, 1, 69, 0
1, 217856, Note_off_c, 1, 79, 0
1, 217856, Note_off_c, 1, 45, 0
1, 217856, Note_off_c, 1, 47, 0
1, 217856, Note_off_c, 1, 71, 0
1, 218061, Note_off_c, 1, 76, 0
1, 218112, Note_on_c, 1, 73, 127
1, 218317, Note_off_c, 1, 73, 0
1, 218368, Note_off_c, 1, 64, 0
1, 218368, Note_on_c, 1, 74, 127
1, 218573, Note_off_c, 1, 74, 0
1, 218624, Note_on_c, 1, 73, 127
1, 218624, Note_on_c, 1, 57, 127
1, 218624, Note_on_c, 1, 76, 127
1, 218829, Note_off_c, 1, 73, 0
1, 218880, Note_off_c, 1, 57, 0
1, 218880, Note_on_c, 1, 74, 127
1, 218880, Note_on_c, 1, 59, 127
1, 219085, Note_off_c, 1, 74, 0
1, 219085, Note_off_c, 1, 59, 0
1, 219136, Note_on_c, 1, 55, 127
1, 219136, Note_on_c, 1, 61, 127
1, 219392, Note_off_c, 1, 55, 0
1, 219648, Note_on_c, 1, 69, 127
1, 219648, Note_on_c, 1, 54, 127
1, 219853, Note_off_c, 1, 76, 0
1, 219904, Note_off_c, 1, 61, 0
1, 219904, Note_off_c, 1, 69, 0
1, 219904, Note_off_c, 1, 54, 0
1, 220160, Note_on_c, 1, 81, 127
1, 220160, Note_on_c, 1, 42, 127
1, 220160, Note_on_c, 1, 69, 127
1, 220160, Note_on_c, 1, 62, 127
1, 220365, Note_off_c, 1, 69, 0
1, 220416, Note_off_c, 1, 81, 0
1, 220416, Note_off_c, 1, 42, 0
1, 220416, Note_off_c, 1, 62, 0
1, 220416, Note_on_c, 1, 71, 127
1, 220621, Note_off_c, 1, 71, 0
1, 220672, Note_on_c, 1, 79, 127
1, 220672, Note_on_c, 1, 40, 127
1, 220672, Note_on_c, 1, 73, 127
1, 220672, Note_on_c, 1, 64, 127
1, 220877, Note_off_c, 1, 73, 0
1, 220928, Note_off_c, 1, 79, 0
1, 220928, Note_off_c, 1, 40, 0
1, 220928, Note_off_c, 1, 64, 0
1, 220928, Note_on_c, 1, 69, 127
1, 221133, Note_off_c, 1, 69, 0
1, 221184, Note_on_c, 1, 78, 127
1, 221184, Note_on_c, 1, 38, 127
1, 221184, Note_on_c, 1, 74, 127
1, 221184, Note_on_c, 1, 57, 127
1, 221389, Note_off_c, 1, 78, 0
1, 221440, Note_off_c, 1, 38, 0
1, 221440, Note_off_c, 1, 74, 0
1, 221440, Note_off_c, 1, 57, 0
1, 221440, Note_on_c, 1, 76, 127
1, 221645, Note_off_c, 1, 76, 0
1, 221696, Note_on_c, 1, 74, 127
1, 221696, Note_on_c, 1, 42, 127
1, 221696, Note_on_c, 1, 69, 127
1, 221696, Note_on_c, 1, 62, 127
1, 221901, Note_off_c, 1, 69, 0
1, 221952, Note_off_c, 1, 74, 0
1, 221952, Note_off_c, 1, 42, 0
1, 221952, Note_off_c, 1, 62, 0
1, 221952, Note_on_c, 1, 67, 127
1, 222157, Note_off_c, 1, 67, 0
1, 222208, Note_on_c, 1, 74, 127
1, 222208, Note_on_c, 1, 69, 127
1, 222208, Note_on_c, 1, 78, 127
1, 222208, Note_on_c, 1, 50, 127
1, 222208, Note_on_c, 1, 72, 127
1, 222208, Note_on_c, 1, 38, 127
1, 222208, Note_on_c, 1, 66, 127
1, 222464, Note_off_c, 1, 74, 0
1, 222464, Note_off_c, 1, 69, 0
1, 222464, Note_off_c, 1, 50, 0
1, 222464, Note_off_c, 1, 38, 0
1, 222669, Note_off_c, 1, 66, 0
1, 222720, Note_on_c, 1, 62, 127
1, 222720, Note_on_c, 1, 43, 127
1, 222720, Note_on_c, 1, 67, 127
1, 222925, Note_off_c, 1, 72, 0
1, 222976, Note_off_c, 1, 78, 0
1, 222976, Note_off_c, 1, 62, 0
1, 222976, Note_off_c, 1, 43, 0
1, 222976, Note_off_c, 1, 67, 0
1, 222976, Note_on_c, 1, 71, 127
1, 223181, Note_off_c, 1, 71, 0
1, 223232, Note_on_c, 1, 76, 127
1, 223232, Note_on_c, 1, 55, 127
1, 223232, Note_on_c, 1, 71, 127
1, 223232, Note_on_c, 1, 67, 127
1, 223488, Note_off_c, 1, 76, 0
1, 223488, Note_off_c, 1, 55, 0
1, 223488, Note_off_c, 1, 71, 0
1, 223488, Note_off_c, 1, 67, 0
1, 223488, Note_on_c, 1, 73, 127
1, 223693, Note_off_c, 1, 73, 0
1, 223744, Note_on_c, 1, 76, 127
1, 223744, Note_on_c, 1, 79, 127
1, 223744, Note_on_c, 1, 74, 127
1, 223744, Note_on_c, 1, 52, 127
1, 223744, Note_on_c, 1, 67, 127
1, 223744, Note_on_c, 1, 71, 127
1, 223949, Note_off_c, 1, 74, 0
1, 224000, Note_off_c, 1, 76, 0
1, 224000, Note_off_c, 1, 52, 0
1, 224000, Note_off_c, 1, 67, 0
1, 224205, Note_off_c, 1, 71, 0
1, 224256, Note_on_c, 1, 73, 127
1, 224256, Note_on_c, 1, 45, 127
1, 224256, Note_on_c, 1, 64, 127
1, 224256, Note_on_c, 1, 69, 127
1, 224461, Note_off_c, 1, 73, 0
1, 224512, Note_off_c, 1, 79, 0
1, 224512, Note_off_c, 1, 45, 0
1, 224512, Note_off_c, 1, 64, 0
1, 224717, Note_off_c, 1, 69, 0
1, 224768, Note_on_c, 1, 78, 127
1, 224768, Note_on_c, 1, 57, 127
1, 224768, Note_on_c, 1, 73, 127
1, 224768, Note_on_c, 1, 69, 127
1, 225024, Note_off_c, 1, 78, 0
1, 225024, Note_off_c, 1, 57, 0
1, 225024, Note_off_c, 1, 73, 0
1, 225024, Note_off_c, 1, 69, 0
1, 225024, Note_on_c, 1, 74, 127
1, 225229, Note_off_c, 1, 74, 0
1, 225280, Note_on_c, 1, 78, 127
1, 225280, Note_on_c, 1, 66, 127
1, 225280, Note_on_c, 1, 81, 127
1, 225280, Note_on_c, 1, 45, 127
1, 225280, Note_on_c, 1, 76, 127
1, 225280, Note_on_c, 1, 54, 127
1, 225280, Note_on_c, 1, 69, 127
1, 225280, Note_on_c, 1, 73, 127
1, 225485, Note_off_c, 1, 76, 0
1, 225536, Note_off_c, 1, 78, 0
1, 225536, Note_off_c, 1, 66, 0
1, 225536, Note_off_c, 1, 81, 0
1, 225536, Note_off_c, 1, 45, 0
1, 225536, Note_off_c, 1, 54, 0
1, 225536, Note_off_c, 1, 69, 0
1, 225741, Note_off_c, 1, 73, 0
1, 225792, Note_on_c, 1, 74, 127
1, 225792, Note_on_c, 1, 66, 127
1, 225792, Note_on_c, 1, 78, 127
1, 225792, Note_on_c, 1, 50, 127
1, 225792, Note_on_c, 1, 47, 127
1, 225792, Note_on_c, 1, 71, 127
1, 226048, Note_off_c, 1, 74, 0
1, 226048, Note_off_c, 1, 66, 0
1, 226048, Note_off_c, 1, 78, 0
1, 226048, Note_off_c, 1, 50, 0
1, 226048, Note_off_c, 1, 47, 0
1, 226048, Note_off_c, 1, 71, 0
1, 226304, Note_on_c, 1, 76, 127
1, 226304, Note_on_c, 1, 74, 127
1, 226304, Note_on_c, 1, 79, 127
1, 226304, Note_on_c, 1, 50, 127
1, 226304, Note_on_c, 1, 43, 127
1, 226304, Note_on_c, 1, 71, 127
1, 226304, Note_on_c, 1, 64, 127
1, 226509, Note_off_c, 1, 79, 0
1, 226560, Note_off_c, 1, 76, 0
1, 226560, Note_off_c, 1, 74, 0
1, 226560, Note_off_c, 1, 50, 0
1, 226560, Note_off_c, 1, 43, 0
1, 226560, Note_off_c, 1, 71, 0
1, 226560, Note_off_c, 1, 64, 0
1, 226560, Note_on_c, 1, 78, 127
1, 226765, Note_off_c, 1, 78, 0
1, 226816, Note_on_c, 1, 79, 127
1, 226816, Note_on_c, 1, 69, 127
1, 226816, Note_on_c, 1, 76, 127
1, 226816, Note_on_c, 1, 45, 127
1, 226816, Note_on_c, 1, 73, 127
1, 226816, Note_on_c, 1, 64, 127
1, 227021, Note_off_c, 1, 79, 0
1, 227021, Note_off_c, 1, 76, 0
1, 227072, Note_off_c, 1, 69, 0
1, 227072, Note_off_c, 1, 45, 0
1, 227072, Note_off_c, 1, 73, 0
1, 227072, Note_off_c, 1, 64, 0
1, 227072, Note_on_c, 1, 81, 127
1, 227072, Note_on_c, 1, 78, 127
1, 227277, Note_off_c, 1, 81, 0
1, 227277, Note_off_c, 1, 78, 0
1, 227328, Note_on_c, 1, 78, 127
1, 227328, Note_on_c, 1, 69, 127
1, 227328, Note_on_c, 1, 74, 127
1, 227328, Note_on_c, 1, 50, 127
1, 227328, Note_on_c, 1, 38, 127
1, 227328, Note_on_c, 1, 66, 127
1, 228864, Note_off_c, 1, 78, 0
1, 228864, Note_off_c, 1, 69, 0
1, 228864, Note_off_c, 1, 74, 0
1, 228864, Note_off_c, 1, 50, 0
1, 228864, Note_off_c, 1, 38, 0
1, 228864, Note_off_c, 1, 66, 0
1, 228864, End_track
0, 0, End_of_file