0, 0, Header, 1, 1, 480
1, 0, Start_track
1, 0, Title_t, "Test"
1, 0, Tempo, 500000
1, 0, Instrument_name_t, "Church Organ"
1, 2560, Note_on_c, 1, 69, 127
1, 2560, Note_on_c, 1, 66, 127
1, 2560, Note_on_c, 1, 62, 127
1, 2560, Note_on_c, 1, 50, 127
1, 2816, Note_off_c, 1, 69, 0
1, 2816, Note_off_c, 1, 66, 0
1, 2816, Note_off_c, 1, 62, 0
1, 3072, Note_on_c, 1, 74, 127
1, 3072, Note_on_c, 1, 54, 127
1, 3328, Note_off_c, 1, 74, 0
1, 3328, Note_off_c, 1, 54, 0
1, 3584, Note_off_c, 1, 50, 0
1, 3584, Note_on_c, 1, 76, 127
1, 3584, Note_on_c, 1, 45, 127
1, 3584, Note_on_c, 1, 57, 127
1, 3584, Note_on_c, 1, 73, 127
1, 3584, Note_on_c, 1, 64, 127
1, 3840, Note_off_c, 1, 76, 0
1, 3840, Note_off_c, 1, 57, 0
1, 3840, Note_off_c, 1, 73, 0
1, 3840, Note_off_c, 1, 64, 0
1, 4096, Note_off_c, 1, 45, 0
1, 4096, Note_on_c, 1, 78, 127
1, 4608, Note_off_c, 1, 78, 0
1, 4608, Note_on_c, 1, 79, 127
1, 4608, Note_on_c, 1, 71, 127
1, 4779, Note_off_c, 1, 79, 0
1, 4779, Note_off_c, 1, 71, 0
1, 4949, Note_on_c, 1, 67, 127
1, 5120, Note_off_c, 1, 67, 0
1, 5632, Note_on_c, 1, 83, 127
1, 5632, Note_on_c, 1, 79, 127
1, 5632, Note_on_c, 1, 74, 127
1, 5632, Note_on_c, 1, 50, 127
1, 5632, Note_on_c, 1, 55, 127
1, 5632, Note_on_c, 1, 71, 127
1, 5632, Note_on_c, 1, 62, 127
1, 5888, Note_off_c, 1, 83, 0
1, 5888, Note_off_c, 1, 79, 0
1, 5888, Note_off_c, 1, 74, 0
1, 6144, Note_off_c, 1, 55, 0
1, 6144, Note_off_c, 1, 71, 0
1, 6144, Note_on_c, 1, 81, 127
1, 6144, Note_on_c, 1, 78, 127
1, 6144, Note_on_c, 1, 57, 127
1, 6144, Note_on_c, 1, 69, 127
1, 6400, Note_off_c, 1, 81, 0
1, 6400, Note_off_c, 1, 78, 0
1, 6400, Note_off_c, 1, 57, 0
1, 6400, Note_off_c, 1, 69, 0
1, 6656, Note_off_c, 1, 50, 0
1, 6656, Note_off_c, 1, 62, 0
1, 6656, Note_on_c, 1, 76, 127
1, 6656, Note_on_c, 1, 45, 127
1, 6656, Note_on_c, 1, 73, 127
1, 6656, Note_on_c, 1, 67, 127
1, 6912, Note_off_c, 1, 76, 0
1, 6912, Note_off_c, 1, 73, 0
1, 6912, Note_off_c, 1, 67, 0
1, 7168, Note_off_c, 1, 45, 0
1, 7168, Note_on_c, 1, 66, 127
1, 8090, Note_off_c, 1, 66, 0
1, 8192, Note_on_c, 1, 38, 127
1, 8448, Note_off_c, 1, 38, 0
1, 10752, Note_on_c, 1, 54, 127
1, 11008, Note_off_c, 1, 54, 0
1, 11264, Note_on_c, 1, 52, 127
1, 11520, Note_off_c, 1, 52, 0
1, 11776, Note_on_c, 1, 81, 127
1, 11776, Note_on_c, 1, 76, 127
1, 11776, Note_on_c, 1, 45, 127
1, 11776, Note_on_c, 1, 49, 127
1, 11776, Note_on_c, 1, 69, 127
1, 12032, Note_off_c, 1, 81, 0
1, 12032, Note_off_c, 1, 76, 0
1, 12032, Note_off_c, 1, 49, 0
1, 12032, Note_off_c, 1, 69, 0
1, 12288, Note_off_c, 1, 45, 0
1, 12288, Note_on_c, 1, 79, 127
1, 12288, Note_on_c, 1, 74, 127
1, 12288, Note_on_c, 1, 50, 127
1, 12544, Note_off_c, 1, 79, 0
1, 12544, Note_off_c, 1, 74, 0
1, 12544, Note_on_c, 1, 78, 127
1, 12800, Note_off_c, 1, 78, 0
1, 12800, Note_on_c, 1, 80, 127
1, 12800, Note_on_c, 1, 62, 127
1, 12800, Note_on_c, 1, 47, 127
1, 12800, Note_on_c, 1, 71, 127
1, 13056, Note_off_c, 1, 80, 0
1, 13056, Note_off_c, 1, 62, 0
1, 13056, Note_off_c, 1, 47, 0
1, 13056, Note_off_c, 1, 71, 0
1, 13312, Note_off_c, 1, 50, 0
1, 13312, Note_on_c, 1, 73, 127
1, 14592, Note_off_c, 1, 73, 0
1, 14848, Note_on_c, 1, 57, 127
1, 15104, Note_off_c, 1, 57, 0
1, 15104, Note_on_c, 1, 83, 127
1, 15104, Note_on_c, 1, 55, 127
1, 15360, Note_off_c, 1, 83, 0
1, 15360, Note_off_c, 1, 55, 0
1, 15360, Note_on_c, 1, 54, 127
1, 15616, Note_off_c, 1, 54, 0
1, 17920, Note_on_c, 1, 59, 127
1, 18176, Note_off_c, 1, 59, 0
1, 19712, Note_on_c, 1, 66, 127
1, 19968, Note_off_c, 1, 66, 0
1, 19968, Note_on_c, 1, 64, 127
1, 20224, Note_off_c, 1, 64, 0
1, 20480, Note_on_c, 1, 85, 127
1, 20480, Note_on_c, 1, 61, 127
1, 20736, Note_off_c, 1, 85, 0
1, 20736, Note_off_c, 1, 61, 0
1, 24064, Note_on_c, 1, 83, 127
1, 24064, Note_on_c, 1, 78, 127
1, 24064, Note_on_c, 1, 74, 127
1, 24064, Note_on_c, 1, 50, 127
1, 24064, Note_on_c, 1, 66, 127
1, 24064, Note_on_c, 1, 59, 127
1, 24320, Note_off_c, 1, 83, 0
1, 24320, Note_off_c, 1, 78, 0
1, 24320, Note_off_c, 1, 74, 0
1, 24320, Note_off_c, 1, 66, 0
1, 24320, Note_off_c, 1, 59, 0
1, 24576, Note_on_c, 1, 76, 127
1, 24576, Note_on_c, 1, 52, 127
1, 24576, Note_on_c, 1, 68, 127
1, 24576, Note_on_c, 1, 64, 127
1, 24704, Note_on_c, 1, 73, 127
1, 24832, Note_off_c, 1, 76, 0
1, 24832, Note_off_c, 1, 52, 0
1, 24832, Note_off_c, 1, 68, 0
1, 24832, Note_off_c, 1, 64, 0
1, 24832, Note_off_c, 1, 73, 0
1, 25088, Note_off_c, 1, 50, 0
1, 25088, Note_on_c, 1, 80, 127
1, 25088, Note_on_c, 1, 71, 127
1, 25088, Note_on_c, 1, 40, 127
1, 25344, Note_off_c, 1, 80, 0
1, 25344, Note_off_c, 1, 71, 0
1, 25344, Note_off_c, 1, 40, 0
1, 25344, Note_on_c, 1, 69, 127
1, 25600, Note_on_c, 1, 81, 127
1, 25600, Note_on_c, 1, 45, 127
1, 25600, Note_on_c, 1, 61, 127
1, 26112, Note_on_c, 1, 57, 127
1, 26368, Note_off_c, 1, 57, 0
1, 26624, Note_off_c, 1, 69, 0
1, 26624, Note_off_c, 1, 81, 0
1, 26624, Note_off_c, 1, 45, 0
1, 26624, Note_off_c, 1, 61, 0
1, 27136, Note_on_c, 1, 55, 127
1, 27136, Note_on_c, 1, 45, 127
1, 27392, Note_off_c, 1, 55, 0
1, 27392, Note_off_c, 1, 45, 0
1, 27648, Note_on_c, 1, 54, 127
1, 27648, Note_on_c, 1, 50, 127
1, 27904, Note_off_c, 1, 54, 0
1, 27904, Note_off_c, 1, 50, 0
1, 28160, Note_on_c, 1, 52, 127
1, 28416, Note_off_c, 1, 52, 0
1, 28672, Note_on_c, 1, 50, 127
1, 28672, Note_on_c, 1, 54, 127
1, 28928, Note_off_c, 1, 54, 0
1, 28928, Note_on_c, 1, 55, 127
1, 29184, Note_off_c, 1, 55, 0
1, 29184, Note_on_c, 1, 62, 127
1, 29184, Note_on_c, 1, 57, 127
1, 29440, Note_off_c, 1, 62, 0
1, 29440, Note_off_c, 1, 57, 0
1, 29440, Note_on_c, 1, 52, 127
1, 29696, Note_off_c, 1, 52, 0
1, 29952, Note_off_c, 1, 50, 0
1, 29952, Note_on_c, 1, 49, 127
1, 30208, Note_off_c, 1, 49, 0
1, 31232, Note_on_c, 1, 64, 127
1, 31488, Note_off_c, 1, 64, 0
1, 31744, Note_on_c, 1, 38, 127
1, 31744, Note_on_c, 1, 66, 127
1, 32000, Note_off_c, 1, 66, 0
1, 32000, Note_on_c, 1, 67, 127
1, 32000, Note_on_c, 1, 59, 127
1, 32256, Note_off_c, 1, 67, 0
1, 32256, Note_off_c, 1, 59, 0
1, 32768, Note_off_c, 1, 38, 0
1, 33024, Note_on_c, 1, 61, 127
1, 33280, Note_off_c, 1, 61, 0
1, 36864, Note_on_c, 1, 69, 127
1, 37120, Note_off_c, 1, 69, 0
1, 37376, Note_on_c, 1, 71, 127
1, 37632, Note_off_c, 1, 71, 0
1, 37888, Note_on_c, 1, 73, 127
1, 37888, Note_on_c, 1, 45, 127
1, 38144, Note_off_c, 1, 73, 0
1, 38144, Note_off_c, 1, 45, 0
1, 38144, Note_on_c, 1, 74, 127
1, 38400, Note_off_c, 1, 74, 0
1, 41216, Note_on_c, 1, 76, 127
1, 41472, Note_off_c, 1, 76, 0
1, 42496, Note_on_c, 1, 69, 127
1, 42496, Note_on_c, 1, 66, 127
1, 42496, Note_on_c, 1, 50, 127
1, 42496, Note_on_c, 1, 62, 127
1, 42752, Note_off_c, 1, 69, 0
1, 42752, Note_off_c, 1, 66, 0
1, 42752, Note_off_c, 1, 62, 0
1, 43008, Note_on_c, 1, 74, 127
1, 43008, Note_on_c, 1, 54, 127
1, 43264, Note_off_c, 1, 74, 0
1, 43264, Note_off_c, 1, 54, 0
1, 43520, Note_off_c, 1, 50, 0
1, 43520, Note_on_c, 1, 76, 127
1, 43520, Note_on_c, 1, 45, 127
1, 43520, Note_on_c, 1, 57, 127
1, 43520, Note_on_c, 1, 73, 127
1, 43776, Note_off_c, 1, 76, 0
1, 43776, Note_off_c, 1, 57, 0
1, 43776, Note_off_c, 1, 73, 0
1, 44032, Note_off_c, 1, 45, 0
1, 44032, Note_on_c, 1, 78, 127
1, 44544, Note_off_c, 1, 78, 0
1, 44544, Note_on_c, 1, 79, 127
1, 44544, Note_on_c, 1, 71, 127
1, 44715, Note_off_c, 1, 79, 0
1, 44715, Note_off_c, 1, 71, 0
1, 44885, Note_on_c, 1, 67, 127
1, 45056, Note_off_c, 1, 67, 0
1, 45568, Note_on_c, 1, 83, 127
1, 45568, Note_on_c, 1, 55, 127
1, 45824, Note_off_c, 1, 83, 0
1, 45824, Note_off_c, 1, 55, 0
1, 46080, Note_on_c, 1, 81, 127
1, 46336, Note_off_c, 1, 81, 0
1, 47872, Note_on_c, 1, 64, 127
1, 47872, Note_on_c, 1, 61, 127
1, 48128, Note_off_c, 1, 64, 0
1, 48128, Note_off_c, 1, 61, 0
1, 48128, Note_on_c, 1, 38, 127
1, 48384, Note_off_c, 1, 38, 0
1, 49920, Note_on_c, 1, 52, 127
1, 50176, Note_off_c, 1, 52, 0
1, 52224, Note_on_c, 1, 72, 127
1, 53248, Note_on_c, 1, 43, 127
1, 53504, Note_off_c, 1, 72, 0
1, 53504, Note_off_c, 1, 43, 0
1, 53760, Note_on_c, 1, 59, 127
1, 54016, Note_off_c, 1, 59, 0
1, 54784, Note_on_c, 1, 59, 127
1, 54784, Note_on_c, 1, 79, 127
1, 54784, Note_on_c, 1, 74, 127
1, 54784, Note_on_c, 1, 62, 127
1, 55040, Note_off_c, 1, 62, 0
1, 55040, Note_on_c, 1, 78, 127
1, 55296, Note_off_c, 1, 74, 0
1, 55296, Note_off_c, 1, 78, 0
1, 55296, Note_on_c, 1, 52, 127
1, 55296, Note_on_c, 1, 76, 127
1, 55296, Note_on_c, 1, 55, 127
1, 55552, Note_off_c, 1, 52, 0
1, 55552, Note_off_c, 1, 76, 0
1, 55552, Note_off_c, 1, 55, 0
1, 55706, Note_off_c, 1, 59, 0
1, 55808, Note_off_c, 1, 79, 0
1, 55808, Note_on_c, 1, 71, 127
1, 55808, Note_on_c, 1, 67, 127
1, 56064, Note_off_c, 1, 71, 0
1, 56064, Note_off_c, 1, 67, 0
1, 56320, Note_on_c, 1, 57, 127
1, 56320, Note_on_c, 1, 73, 127
1, 56320, Note_on_c, 1, 69, 127
1, 56320, Note_on_c, 1, 64, 127
1, 56320, Note_on_c, 1, 61, 127
1, 56576, Note_off_c, 1, 73, 0
1, 56832, Note_off_c, 1, 57, 0
1, 56832, Note_off_c, 1, 64, 0
1, 56832, Note_off_c, 1, 61, 0
1, 56832, Note_on_c, 1, 55, 127
1, 56832, Note_on_c, 1, 71, 127
1, 56832, Note_on_c, 1, 66, 127
1, 56832, Note_on_c, 1, 62, 127
1, 57088, Note_off_c, 1, 71, 0
1, 57088, Note_off_c, 1, 66, 0
1, 57088, Note_off_c, 1, 62, 0
1, 57088, Note_on_c, 1, 67, 127
1, 57344, Note_off_c, 1, 55, 0
1, 57344, Note_off_c, 1, 67, 0
1, 57344, Note_on_c, 1, 54, 127
1, 57344, Note_on_c, 1, 74, 127
1, 57600, Note_off_c, 1, 54, 0
1, 57600, Note_off_c, 1, 74, 0
1, 57600, Note_on_c, 1, 76, 127
1, 57856, Note_off_c, 1, 69, 0
1, 57856, Note_on_c, 1, 52, 127
1, 57856, Note_on_c, 1, 78, 127
1, 58112, Note_off_c, 1, 76, 0
1, 58112, Note_off_c, 1, 52, 0
1, 58112, Note_off_c, 1, 78, 0
1, 58112, Note_on_c, 1, 79, 127
1, 58368, Note_off_c, 1, 79, 0
1, 58368, Note_on_c, 1, 81, 127
1, 58624, Note_off_c, 1, 81, 0
1, 58880, Note_on_c, 1, 50, 127
1, 59392, Note_off_c, 1, 50, 0
1, 59392, Note_on_c, 1, 45, 127
1, 59904, Note_off_c, 1, 45, 0
1, 60160, Note_on_c, 1, 83, 127
1, 60416, Note_off_c, 1, 83, 0
1, 60416, Note_on_c, 1, 85, 127
1, 60672, Note_off_c, 1, 85, 0
1, 60672, Note_on_c, 1, 86, 127
1, 60928, Note_off_c, 1, 86, 0
1, 61440, Note_on_c, 1, 49, 127
1, 61696, Note_off_c, 1, 49, 0
1, 61952, Note_on_c, 1, 68, 127
1, 61952, Note_on_c, 1, 59, 127
1, 62208, Note_off_c, 1, 68, 0
1, 62208, Note_off_c, 1, 59, 0
1, 62976, Note_on_c, 1, 56, 127
1, 63232, Note_off_c, 1, 56, 0
1, 64512, Note_on_c, 1, 57, 127
1, 64512, Note_on_c, 1, 73, 127
1, 64512, Note_on_c, 1, 69, 127
1, 64512, Note_on_c, 1, 64, 127
1, 64512, Note_on_c, 1, 61, 127
1, 64768, Note_off_c, 1, 73, 0
1, 64768, Note_off_c, 1, 69, 0
1, 64768, Note_off_c, 1, 64, 0
1, 65024, Note_off_c, 1, 57, 0
1, 65024, Note_on_c, 1, 56, 127
1, 65024, Note_on_c, 1, 71, 127
1, 65024, Note_on_c, 1, 65, 127
1, 65024, Note_on_c, 1, 68, 127
1, 65280, Note_off_c, 1, 56, 0
1, 65280, Note_off_c, 1, 71, 0
1, 65280, Note_off_c, 1, 65, 0
1, 65280, Note_off_c, 1, 68, 0
1, 65536, Note_on_c, 1, 54, 127
1, 65536, Note_on_c, 1, 66, 127
1, 65536, Note_on_c, 1, 78, 127
1, 65792, Note_off_c, 1, 66, 0
1, 65792, Note_off_c, 1, 78, 0
1, 65792, Note_on_c, 1, 59, 127
1, 66048, Note_off_c, 1, 54, 0
1, 66048, Note_off_c, 1, 59, 0
1, 66048, Note_on_c, 1, 42, 127
1, 66048, Note_on_c, 1, 49, 127
1, 66304, Note_off_c, 1, 42, 0
1, 66304, Note_off_c, 1, 49, 0
1, 66304, Note_on_c, 1, 80, 127
1, 66304, Note_on_c, 1, 77, 127
1, 66458, Note_off_c, 1, 61, 0
1, 66560, Note_off_c, 1, 80, 0
1, 66560, Note_off_c, 1, 77, 0
1, 66560, Note_on_c, 1, 81, 127
1, 66816, Note_off_c, 1, 81, 0
1, 66816, Note_on_c, 1, 83, 127
1, 67072, Note_off_c, 1, 83, 0
1, 67584, Note_on_c, 1, 50, 127
1, 67584, Note_on_c, 1, 62, 127
1, 67840, Note_off_c, 1, 50, 0
1, 67840, Note_off_c, 1, 62, 0
1, 68608, Note_on_c, 1, 47, 127
1, 68608, Note_on_c, 1, 74, 127
1, 68864, Note_off_c, 1, 47, 0
1, 69120, Note_off_c, 1, 74, 0
1, 69632, Note_on_c, 1, 76, 127
1, 69888, Note_off_c, 1, 76, 0
1, 70656, Note_on_c, 1, 49, 127
1, 70656, Note_on_c, 1, 69, 127
1, 70656, Note_on_c, 1, 64, 127
1, 70656, Note_on_c, 1, 61, 127
1, 70912, Note_off_c, 1, 69, 0
1, 71168, Note_off_c, 1, 49, 0
1, 71168, Note_off_c, 1, 64, 0
1, 71168, Note_off_c, 1, 61, 0
1, 71168, Note_on_c, 1, 50, 127
1, 71168, Note_on_c, 1, 74, 127
1, 71168, Note_on_c, 1, 66, 127
1, 71168, Note_on_c, 1, 57, 127
1, 71424, Note_off_c, 1, 50, 0
1, 71424, Note_off_c, 1, 74, 0
1, 71424, Note_off_c, 1, 66, 0
1, 71424, Note_off_c, 1, 57, 0
1, 71680, Note_on_c, 1, 52, 127
1, 71680, Note_on_c, 1, 73, 127
1, 71680, Note_on_c, 1, 69, 127
1, 71680, Note_on_c, 1, 64, 127
1, 71680, Note_on_c, 1, 61, 127
1, 72192, Note_off_c, 1, 73, 0
1, 72192, Note_off_c, 1, 69, 0
1, 72192, Note_off_c, 1, 61, 0
1, 72192, Note_on_c, 1, 56, 127
1, 72192, Note_on_c, 1, 71, 127
1, 72192, Note_on_c, 1, 68, 127
1, 72192, Note_on_c, 1, 59, 127
1, 72448, Note_off_c, 1, 52, 0
1, 72448, Note_off_c, 1, 56, 0
1, 72448, Note_off_c, 1, 71, 0
1, 72448, Note_off_c, 1, 68, 0
1, 72448, Note_off_c, 1, 59, 0
1, 72448, Note_on_c, 1, 66, 127
1, 72448, Note_on_c, 1, 63, 127
1, 72448, Note_on_c, 1, 54, 127
1, 72704, Note_off_c, 1, 66, 0
1, 72704, Note_off_c, 1, 63, 0
1, 72704, Note_off_c, 1, 54, 0
1, 72960, Note_off_c, 1, 64, 0
1, 73216, Note_on_c, 1, 40, 127
1, 73472, Note_off_c, 1, 40, 0
1, 73472, Note_on_c, 1, 62, 127
1, 73728, Note_off_c, 1, 62, 0
1, 73728, Note_on_c, 1, 70, 127
1, 73984, Note_off_c, 1, 70, 0
1, 74240, Note_on_c, 1, 74, 127
1, 74240, Note_on_c, 1, 71, 127
1, 74240, Note_on_c, 1, 50, 127
1, 74240, Note_on_c, 1, 59, 127
1, 74240, Note_on_c, 1, 66, 127
1, 74240, Note_on_c, 1, 62, 127
1, 74496, Note_off_c, 1, 74, 0
1, 74496, Note_off_c, 1, 71, 0
1, 74496, Note_off_c, 1, 50, 0
1, 74496, Note_off_c, 1, 59, 0
1, 74496, Note_off_c, 1, 66, 0
1, 74496, Note_off_c, 1, 62, 0
1, 74752, Note_on_c, 1, 76, 127
1, 74752, Note_on_c, 1, 73, 127
1, 74752, Note_on_c, 1, 49, 127
1, 74752, Note_on_c, 1, 58, 127
1, 74752, Note_on_c, 1, 64, 127
1, 74752, Note_on_c, 1, 61, 127
1, 75008, Note_off_c, 1, 49, 0
1, 75008, Note_off_c, 1, 58, 0
1, 75008, Note_off_c, 1, 64, 0
1, 75008, Note_off_c, 1, 61, 0
1, 75264, Note_off_c, 1, 76, 0
1, 75264, Note_off_c, 1, 73, 0
1, 75264, Note_on_c, 1, 78, 127
1, 75264, Note_on_c, 1, 74, 127
1, 75264, Note_on_c, 1, 47, 127
1, 75264, Note_on_c, 1, 62, 127
1, 75264, Note_on_c, 1, 54, 127
1, 75264, Note_on_c, 1, 59, 127
1, 75435, Note_off_c, 1, 78, 0
1, 75435, Note_off_c, 1, 74, 0
1, 75520, Note_off_c, 1, 47, 0
1, 75520, Note_off_c, 1, 62, 0
1, 75520, Note_off_c, 1, 54, 0
1, 75520, Note_off_c, 1, 59, 0
1, 75605, Note_on_c, 1, 71, 127
1, 75776, Note_off_c, 1, 71, 0
1, 75776, Note_on_c, 1, 46, 127
1, 75776, Note_on_c, 1, 66, 127
1, 76032, Note_off_c, 1, 46, 0
1, 76800, Note_on_c, 1, 42, 127
1, 77056, Note_off_c, 1, 42, 0
1, 78080, Note_off_c, 1, 66, 0
1, 78336, Note_on_c, 1, 45, 127
1, 78336, Note_on_c, 1, 68, 127
1, 78336, Note_on_c, 1, 57, 127
1, 78592, Note_off_c, 1, 45, 0
1, 78592, Note_off_c, 1, 68, 0
1, 78592, Note_off_c, 1, 57, 0
1, 78592, Note_on_c, 1, 69, 127
1, 78848, Note_off_c, 1, 69, 0
1, 78848, Note_on_c, 1, 44, 127
1, 78848, Note_on_c, 1, 56, 127
1, 79104, Note_off_c, 1, 44, 0
1, 79104, Note_off_c, 1, 56, 0
1, 79872, Note_on_c, 1, 40, 127
1, 79872, Note_on_c, 1, 52, 127
1, 80128, Note_off_c, 1, 40, 0
1, 80384, Note_off_c, 1, 52, 0
1, 82944, Note_on_c, 1, 37, 127
1, 83200, Note_off_c, 1, 37, 0
1, 83968, Note_on_c, 1, 39, 127
1, 83968, Note_on_c, 1, 51, 127
1, 84224, Note_off_c, 1, 39, 0
1, 84224, Note_off_c, 1, 51, 0
1, 84992, Note_on_c, 1, 63, 127
1, 85248, Note_off_c, 1, 63, 0
1, 90112, Note_on_c, 1, 41, 127
1, 90368, Note_off_c, 1, 41, 0
1, 90624, Note_on_c, 1, 53, 127
1, 90880, Note_off_c, 1, 53, 0
1, 91136, Note_on_c, 1, 65, 127
1, 91392, Note_off_c, 1, 65, 0
1, 93696, Note_on_c, 1, 70, 127
1, 93952, Note_off_c, 1, 70, 0
1, 96768, Note_on_c, 1, 76, 127
1, 96768, Note_on_c, 1, 56, 127
1, 96768, Note_on_c, 1, 71, 127
1, 96768, Note_on_c, 1, 64, 127
1, 96768, Note_on_c, 1, 74, 127
1, 96768, Note_on_c, 1, 59, 127
1, 97024, Note_off_c, 1, 76, 0
1, 97024, Note_off_c, 1, 56, 0
1, 97024, Note_off_c, 1, 71, 0
1, 97024, Note_off_c, 1, 64, 0
1, 97024, Note_off_c, 1, 59, 0
1, 97280, Note_off_c, 1, 74, 0
1, 97280, Note_on_c, 1, 73, 127
1, 97280, Note_on_c, 1, 57, 127
1, 97280, Note_on_c, 1, 69, 127
1, 97536, Note_off_c, 1, 73, 0
1, 97536, Note_off_c, 1, 57, 0
1, 97536, Note_off_c, 1, 69, 0
1, 97792, Note_on_c, 1, 78, 127
1, 97792, Note_on_c, 1, 47, 127
1, 97792, Note_on_c, 1, 68, 127
1, 97792, Note_on_c, 1, 62, 127
1, 97792, Note_on_c, 1, 74, 127
1, 97792, Note_on_c, 1, 71, 127
1, 98048, Note_off_c, 1, 78, 0
1, 98048, Note_off_c, 1, 47, 0
1, 98048, Note_off_c, 1, 68, 0
1, 98048, Note_off_c, 1, 62, 0
1, 98048, Note_off_c, 1, 74, 0
1, 98048, Note_off_c, 1, 71, 0
1, 98304, Note_on_c, 1, 76, 127
1, 98304, Note_on_c, 1, 49, 127
1, 98304, Note_on_c, 1, 69, 127
1, 98304, Note_on_c, 1, 64, 127
1, 98304, Note_on_c, 1, 73, 127
1, 98560, Note_on_c, 1, 74, 127
1, 98816, Note_off_c, 1, 76, 0
1, 98816, Note_off_c, 1, 49, 0
1, 98816, Note_off_c, 1, 69, 0
1, 98816, Note_on_c, 1, 52, 127
1, 98816, Note_on_c, 1, 68, 127
1, 99072, Note_off_c, 1, 64, 0
1, 99072, Note_off_c, 1, 73, 0
1, 99072, Note_off_c, 1, 74, 0
1, 99072, Note_off_c, 1, 52, 0
1, 99072, Note_off_c, 1, 68, 0
1, 99072, Note_on_c, 1, 71, 127
1, 99328, Note_off_c, 1, 71, 0
1, 99328, Note_on_c, 1, 54, 127
1, 99328, Note_on_c, 1, 61, 127
1, 99328, Note_on_c, 1, 57, 127
1, 99584, Note_off_c, 1, 54, 0
1, 99584, Note_off_c, 1, 61, 0
1, 99840, Note_on_c, 1, 66, 127
1, 100096, Note_off_c, 1, 66, 0
1, 100096, Note_on_c, 1, 50, 127
1, 100352, Note_off_c, 1, 50, 0
1, 100864, Note_off_c, 1, 57, 0
1, 100864, Note_on_c, 1, 62, 127
1, 101376, Note_off_c, 1, 62, 0
1, 101888, Note_on_c, 1, 40, 127
1, 102144, Note_off_c, 1, 40, 0
1, 102400, Note_on_c, 1, 45, 127
1, 103424, Note_off_c, 1, 45, 0
1, 103936, Note_on_c, 1, 64, 127
1, 103936, Note_on_c, 1, 45, 127
1, 103936, Note_on_c, 1, 61, 127
1, 103936, Note_on_c, 1, 57, 127
1, 104192, Note_off_c, 1, 64, 0
1, 104192, Note_off_c, 1, 45, 0
1, 104192, Note_off_c, 1, 61, 0
1, 104192, Note_off_c, 1, 57, 0
1, 104448, Note_on_c, 1, 69, 127
1, 104448, Note_on_c, 1, 49, 127
1, 104448, Note_on_c, 1, 64, 127
1, 104448, Note_on_c, 1, 57, 127
1, 104704, Note_off_c, 1, 69, 0
1, 104704, Note_off_c, 1, 49, 0
1, 104704, Note_off_c, 1, 64, 0
1, 104704, Note_off_c, 1, 57, 0
1, 104960, Note_on_c, 1, 71, 127
1, 104960, Note_on_c, 1, 52, 127
1, 104960, Note_on_c, 1, 68, 127
1, 104960, Note_on_c, 1, 64, 127
1, 105216, Note_off_c, 1, 71, 0
1, 105216, Note_off_c, 1, 52, 0
1, 105216, Note_off_c, 1, 68, 0
1, 105216, Note_off_c, 1, 64, 0
1, 105472, Note_on_c, 1, 73, 127
1, 105472, Note_on_c, 1, 57, 127
1, 105472, Note_on_c, 1, 69, 127
1, 105472, Note_on_c, 1, 64, 127
1, 105728, Note_off_c, 1, 57, 0
1, 105728, Note_off_c, 1, 64, 0
1, 105984, Note_off_c, 1, 73, 0
1, 105984, Note_off_c, 1, 69, 0
1, 105984, Note_on_c, 1, 74, 127
1, 105984, Note_on_c, 1, 56, 127
1, 105984, Note_on_c, 1, 71, 127
1, 106155, Note_off_c, 1, 74, 0
1, 106155, Note_off_c, 1, 71, 0
1, 106240, Note_off_c, 1, 56, 0
1, 106325, Note_on_c, 1, 68, 127
1, 106496, Note_off_c, 1, 68, 0
1, 106496, Note_on_c, 1, 54, 127
1, 106752, Note_off_c, 1, 54, 0
1, 107008, Note_on_c, 1, 78, 127
1, 107008, Note_on_c, 1, 50, 127
1, 107008, Note_on_c, 1, 74, 127
1, 107008, Note_on_c, 1, 69, 127
1, 107264, Note_off_c, 1, 78, 0
1, 107264, Note_off_c, 1, 50, 0
1, 107264, Note_off_c, 1, 74, 0
1, 107264, Note_off_c, 1, 69, 0
1, 107520, Note_on_c, 1, 76, 127
1, 107520, Note_on_c, 1, 52, 127
1, 107520, Note_on_c, 1, 73, 127
1, 107520, Note_on_c, 1, 69, 127
1, 107776, Note_off_c, 1, 76, 0
1, 107776, Note_off_c, 1, 52, 0
1, 107776, Note_off_c, 1, 73, 0
1, 107776, Note_off_c, 1, 69, 0
1, 108032, Note_on_c, 1, 74, 127
1, 108032, Note_on_c, 1, 40, 127
1, 108032, Note_on_c, 1, 71, 127
1, 108032, Note_on_c, 1, 68, 127
1, 108288, Note_off_c, 1, 74, 0
1, 108288, Note_off_c, 1, 40, 0
1, 108288, Note_off_c, 1, 71, 0
1, 108288, Note_off_c, 1, 68, 0
1, 108544, Note_on_c, 1, 73, 127
1, 108544, Note_on_c, 1, 45, 127
1, 108544, Note_on_c, 1, 69, 127
1, 108544, Note_on_c, 1, 64, 127
1, 108800, Note_off_c, 1, 73, 0
1, 108800, Note_off_c, 1, 45, 0
1, 108800, Note_off_c, 1, 69, 0
1, 108800, Note_off_c, 1, 64, 0
1, 108800, Note_on_c, 1, 71, 127
1, 109056, Note_off_c, 1, 71, 0
1, 109056, Note_on_c, 1, 76, 127
1, 109312, Note_off_c, 1, 76, 0
1, 109568, Note_on_c, 1, 57, 127
1, 109824, Note_off_c, 1, 57, 0
1, 109824, Note_on_c, 1, 74, 127
1, 110080, Note_off_c, 1, 74, 0
1, 110080, Note_on_c, 1, 61, 127
1, 110336, Note_off_c, 1, 61, 0
1, 110336, Note_on_c, 1, 78, 127
1, 110592, Note_off_c, 1, 78, 0
1, 111616, Note_on_c, 1, 50, 127
1, 111616, Note_on_c, 1, 66, 127
1, 111616, Note_on_c, 1, 62, 127
1, 111872, Note_off_c, 1, 50, 0
1, 111872, Note_off_c, 1, 66, 0
1, 111872, Note_off_c, 1, 62, 0
1, 112128, Note_on_c, 1, 49, 127
1, 112128, Note_on_c, 1, 68, 127
1, 112384, Note_off_c, 1, 49, 0
1, 112384, Note_off_c, 1, 68, 0
1, 112640, Note_on_c, 1, 47, 127
1, 112896, Note_off_c, 1, 47, 0
1, 113152, Note_on_c, 1, 76, 127
1, 113152, Note_on_c, 1, 44, 127
1, 113152, Note_on_c, 1, 71, 127
1, 113152, Note_on_c, 1, 64, 127
1, 113408, Note_off_c, 1, 76, 0
1, 113408, Note_off_c, 1, 44, 0
1, 113408, Note_off_c, 1, 71, 0
1, 113408, Note_off_c, 1, 64, 0
1, 113664, Note_on_c, 1, 74, 127
1, 113664, Note_on_c, 1, 45, 127
1, 113664, Note_on_c, 1, 64, 127
1, 113664, Note_on_c, 1, 69, 127
1, 113920, Note_off_c, 1, 74, 0
1, 113920, Note_off_c, 1, 45, 0
1, 113920, Note_off_c, 1, 64, 0
1, 113920, Note_off_c, 1, 69, 0
1, 113920, Note_on_c, 1, 73, 127
1, 114176, Note_off_c, 1, 73, 0
1, 114176, Note_on_c, 1, 71, 127
1, 114176, Note_on_c, 1, 42, 127
1, 114176, Note_on_c, 1, 66, 127
1, 114176, Note_on_c, 1, 63, 127
1, 114432, Note_off_c, 1, 71, 0
1, 114432, Note_off_c, 1, 42, 0
1, 114432, Note_off_c, 1, 66, 0
1, 114432, Note_off_c, 1, 63, 0
1, 114688, Note_on_c, 1, 40, 127
1, 114688, Note_on_c, 1, 68, 127
1, 115712, Note_off_c, 1, 40, 0
1, 115968, Note_off_c, 1, 68, 0
1, 116224, Note_on_c, 1, 71, 127
1, 116224, Note_on_c, 1, 52, 127
1, 116224, Note_on_c, 1, 68, 127
1, 116224, Note_on_c, 1, 64, 127
1, 116480, Note_off_c, 1, 71, 0
1, 116480, Note_off_c, 1, 52, 0
1, 116480, Note_off_c, 1, 68, 0
1, 116480, Note_off_c, 1, 64, 0
1, 116480, Note_on_c, 1, 50, 127
1, 116736, Note_off_c, 1, 50, 0
1, 116736, Note_on_c, 1, 76, 127
1, 116736, Note_on_c, 1, 49, 127
1, 116736, Note_on_c, 1, 73, 127
1, 116992, Note_off_c, 1, 76, 0
1, 116992, Note_off_c, 1, 49, 0
1, 116992, Note_off_c, 1, 73, 0
1, 116992, Note_on_c, 1, 74, 127
1, 117248, Note_off_c, 1, 74, 0
1, 117248, Note_on_c, 1, 69, 127
1, 117504, Note_off_c, 1, 69, 0
1, 117760, Note_on_c, 1, 45, 127
1, 118016, Note_off_c, 1, 45, 0
1, 118272, Note_on_c, 1, 74, 127
1, 118272, Note_on_c, 1, 52, 127
1, 118272, Note_on_c, 1, 71, 127
1, 118272, Note_on_c, 1, 64, 127
1, 118443, Note_off_c, 1, 74, 0
1, 118443, Note_off_c, 1, 71, 0
1, 118443, Note_on_c, 1, 73, 127
1, 118443, Note_on_c, 1, 69, 127
1, 118528, Note_off_c, 1, 52, 0
1, 118528, Note_off_c, 1, 64, 0
1, 118613, Note_off_c, 1, 73, 0
1, 118613, Note_off_c, 1, 69, 0
1, 118613, Note_on_c, 1, 68, 127
1, 118784, Note_off_c, 1, 68, 0
1, 118784, Note_on_c, 1, 57, 127
1, 119040, Note_off_c, 1, 57, 0
1, 119296, Note_on_c, 1, 54, 127
1, 119296, Note_on_c, 1, 66, 127
1, 119552, Note_off_c, 1, 54, 0
1, 119552, Note_off_c, 1, 66, 0
1, 119808, Note_on_c, 1, 76, 127
1, 119808, Note_on_c, 1, 49, 127
1, 120064, Note_off_c, 1, 76, 0
1, 120064, Note_off_c, 1, 49, 0
1, 120320, Note_on_c, 1, 78, 127
1, 120320, Note_on_c, 1, 50, 127
1, 120576, Note_off_c, 1, 78, 0
1, 120576, Note_off_c, 1, 50, 0
1, 121344, Note_on_c, 1, 47, 127
1, 121600, Note_off_c, 1, 47, 0
1, 121856, Note_on_c, 1, 40, 127
1, 122112, Note_off_c, 1, 40, 0
1, 122368, Note_on_c, 1, 71, 127
1, 122368, Note_on_c, 1, 68, 127
1, 122368, Note_on_c, 1, 64, 127
1, 122624, Note_off_c, 1, 71, 0
1, 122624, Note_off_c, 1, 68, 0
1, 122624, Note_off_c, 1, 64, 0
1, 122624, Note_on_c, 1, 66, 127
1, 122880, Note_off_c, 1, 66, 0
1, 122880, Note_on_c, 1, 73, 127
1, 122880, Note_on_c, 1, 70, 127
1, 123136, Note_off_c, 1, 73, 0
1, 123136, Note_off_c, 1, 70, 0
1, 123392, Note_on_c, 1, 74, 127
1, 123392, Note_on_c, 1, 71, 127
1, 123392, Note_on_c, 1, 62, 127
1, 123648, Note_off_c, 1, 74, 0
1, 123648, Note_off_c, 1, 71, 0
1, 123648, Note_off_c, 1, 62, 0
1, 123904, Note_on_c, 1, 76, 127
1, 123904, Note_on_c, 1, 73, 127
1, 123904, Note_on_c, 1, 61, 127
1, 124160, Note_off_c, 1, 76, 0
1, 124160, Note_off_c, 1, 73, 0
1, 124160, Note_off_c, 1, 61, 0
1, 124416, Note_on_c, 1, 59, 127
1, 124416, Note_on_c, 1, 78, 127
1, 124416, Note_on_c, 1, 74, 127
1, 124587, Note_off_c, 1, 78, 0
1, 124587, Note_off_c, 1, 74, 0
1, 124587, Note_on_c, 1, 76, 127
1, 124587, Note_on_c, 1, 73, 127
1, 124672, Note_off_c, 1, 59, 0
1, 124757, Note_off_c, 1, 76, 0
1, 124757, Note_off_c, 1, 73, 0
1, 124757, Note_on_c, 1, 71, 127
1, 124928, Note_off_c, 1, 71, 0
1, 124928, Note_on_c, 1, 58, 127
1, 125184, Note_off_c, 1, 58, 0
1, 125440, Note_on_c, 1, 79, 127
1, 125440, Note_on_c, 1, 76, 127
1, 125440, Note_on_c, 1, 61, 127
1, 125696, Note_off_c, 1, 79, 0
1, 125696, Note_off_c, 1, 76, 0
1, 125696, Note_off_c, 1, 61, 0
1, 125952, Note_on_c, 1, 78, 127
1, 125952, Note_on_c, 1, 74, 127
1, 125952, Note_on_c, 1, 66, 127
1, 125952, Note_on_c, 1, 54, 127
1, 126208, Note_off_c, 1, 78, 0
1, 126208, Note_off_c, 1, 74, 0
1, 126208, Note_off_c, 1, 66, 0
1, 126208, Note_off_c, 1, 54, 0
1, 126464, Note_on_c, 1, 76, 127
1, 126464, Note_on_c, 1, 73, 127
1, 126464, Note_on_c, 1, 58, 127
1, 126720, Note_off_c, 1, 76, 0
1, 126720, Note_off_c, 1, 73, 0
1, 126720, Note_off_c, 1, 58, 0
1, 126976, Note_on_c, 1, 74, 127
1, 126976, Note_on_c, 1, 71, 127
1, 126976, Note_on_c, 1, 59, 127
1, 127232, Note_off_c, 1, 74, 0
1, 127232, Note_off_c, 1, 71, 0
1, 127232, Note_off_c, 1, 59, 0
1, 127488, Note_on_c, 1, 66, 127
1, 127488, Note_on_c, 1, 74, 127
1, 127488, Note_on_c, 1, 71, 127
1, 127744, Note_off_c, 1, 66, 0
1, 127744, Note_off_c, 1, 74, 0
1, 127744, Note_off_c, 1, 71, 0
1, 127744, Note_on_c, 1, 73, 127
1, 127744, Note_on_c, 1, 70, 127
1, 128000, Note_off_c, 1, 73, 0
1, 128000, Note_off_c, 1, 70, 0
1, 128000, Note_on_c, 1, 59, 127
1, 128256, Note_off_c, 1, 59, 0
1, 128512, Note_on_c, 1, 74, 127
1, 128512, Note_on_c, 1, 71, 127
1, 128512, Note_on_c, 1, 66, 127
1, 128768, Note_off_c, 1, 74, 0
1, 128768, Note_off_c, 1, 71, 0
1, 128768, Note_off_c, 1, 66, 0
1, 128768, Note_on_c, 1, 73, 127
1, 128768, Note_on_c, 1, 70, 127
1, 129024, Note_off_c, 1, 70, 0
1, 129024, Note_on_c, 1, 76, 127
1, 129024, Note_on_c, 1, 58, 127
1, 129280, Note_off_c, 1, 73, 0
1, 129280, Note_off_c, 1, 76, 0
1, 129280, Note_off_c, 1, 58, 0
1, 129536, Note_on_c, 1, 74, 127
1, 129536, Note_on_c, 1, 71, 127
1, 129536, Note_on_c, 1, 66, 127
1, 129792, Note_off_c, 1, 74, 0
1, 129792, Note_off_c, 1, 71, 0
1, 129792, Note_off_c, 1, 66, 0
1, 129792, Note_on_c, 1, 73, 127
1, 129792, Note_on_c, 1, 70, 127
1, 130048, Note_off_c, 1, 73, 0
1, 130048, Note_off_c, 1, 70, 0
1, 130048, Note_on_c, 1, 59, 127
1, 130304, Note_off_c, 1, 59, 0
1, 130560, Note_on_c, 1, 78, 127
1, 130560, Note_on_c, 1, 50, 127
1, 130816, Note_off_c, 1, 78, 0
1, 130816, Note_off_c, 1, 50, 0
1, 130816, Note_on_c, 1, 76, 127
1, 131072, Note_off_c, 1, 76, 0
1, 131072, Note_on_c, 1, 54, 127
1, 131328, Note_off_c, 1, 54, 0
1, 131584, Note_on_c, 1, 47, 127
1, 131584, Note_on_c, 1, 62, 127
1, 131840, Note_off_c, 1, 47, 0
1, 131840, Note_off_c, 1, 62, 0
1, 131840, Note_on_c, 1, 79, 127
1, 132096, Note_off_c, 1, 79, 0
1, 133888, Note_on_c, 1, 64, 127
1, 134144, Note_off_c, 1, 64, 0
1, 134656, Note_on_c, 1, 68, 127
1, 134912, Note_off_c, 1, 68, 0
1, 136704, Note_on_c, 1, 57, 127
1, 136960, Note_off_c, 1, 57, 0
1, 137216, Note_on_c, 1, 56, 127
1, 137472, Note_off_c, 1, 56, 0
1, 138240, Note_on_c, 1, 76, 127
1, 138240, Note_on_c, 1, 73, 127
1, 138240, Note_on_c, 1, 64, 127
1, 138240, Note_on_c, 1, 52, 127
1, 138496, Note_off_c, 1, 76, 0
1, 138496, Note_off_c, 1, 73, 0
1, 138496, Note_off_c, 1, 64, 0
1, 138496, Note_off_c, 1, 52, 0
1, 138752, Note_on_c, 1, 74, 127
1, 138752, Note_on_c, 1, 71, 127
1, 138752, Note_on_c, 1, 56, 127
1, 139008, Note_off_c, 1, 74, 0
1, 139008, Note_off_c, 1, 71, 0
1, 139008, Note_off_c, 1, 56, 0
1, 139264, Note_on_c, 1, 73, 127
1, 139264, Note_on_c, 1, 69, 127
1, 139264, Note_on_c, 1, 57, 127
1, 139520, Note_off_c, 1, 73, 0
1, 139520, Note_off_c, 1, 69, 0
1, 139520, Note_off_c, 1, 57, 0
1, 139776, Note_on_c, 1, 64, 127
1, 139776, Note_on_c, 1, 73, 127
1, 139776, Note_on_c, 1, 69, 127
1, 140032, Note_off_c, 1, 64, 0
1, 140032, Note_off_c, 1, 73, 0
1, 140032, Note_off_c, 1, 69, 0
1, 140032, Note_on_c, 1, 71, 127
1, 140032, Note_on_c, 1, 68, 127
1, 140288, Note_off_c, 1, 71, 0
1, 140288, Note_off_c, 1, 68, 0
1, 140288, Note_on_c, 1, 57, 127
1, 140544, Note_off_c, 1, 57, 0
1, 140800, Note_on_c, 1, 73, 127
1, 140800, Note_on_c, 1, 69, 127
1, 140800, Note_on_c, 1, 64, 127
1, 141056, Note_off_c, 1, 73, 0
1, 141056, Note_off_c, 1, 69, 0
1, 141056, Note_off_c, 1, 64, 0
1, 141056, Note_on_c, 1, 71, 127
1, 141056, Note_on_c, 1, 68, 127
1, 141312, Note_off_c, 1, 68, 0
1, 141312, Note_on_c, 1, 74, 127
1, 141312, Note_on_c, 1, 56, 127
1, 141568, Note_off_c, 1, 71, 0
1, 141568, Note_off_c, 1, 74, 0
1, 141568, Note_off_c, 1, 56, 0
1, 141824, Note_on_c, 1, 73, 127
1, 141824, Note_on_c, 1, 69, 127
1, 141824, Note_on_c, 1, 64, 127
1, 142080, Note_off_c, 1, 73, 0
1, 142080, Note_off_c, 1, 69, 0
1, 142080, Note_off_c, 1, 64, 0
1, 142080, Note_on_c, 1, 71, 127
1, 142080, Note_on_c, 1, 68, 127
1, 142336, Note_off_c, 1, 71, 0
1, 142336, Note_off_c, 1, 68, 0
1, 142336, Note_on_c, 1, 57, 127
1, 142592, Note_off_c, 1, 57, 0
1, 142848, Note_on_c, 1, 76, 127
1, 142848, Note_on_c, 1, 49, 127
1, 143104, Note_off_c, 1, 76, 0
1, 143104, Note_off_c, 1, 49, 0
1, 143104, Note_on_c, 1, 74, 127
1, 143360, Note_off_c, 1, 74, 0
1, 143360, Note_on_c, 1, 52, 127
1, 143616, Note_off_c, 1, 52, 0
1, 143872, Note_on_c, 1, 45, 127
1, 143872, Note_on_c, 1, 61, 127
1, 144128, Note_off_c, 1, 45, 0
1, 144128, Note_off_c, 1, 61, 0
1, 144128, Note_on_c, 1, 78, 127
1, 144384, Note_off_c, 1, 78, 0
1, 146176, Note_on_c, 1, 62, 127
1, 146432, Note_off_c, 1, 62, 0
1, 147200, Note_on_c, 1, 56, 127
1, 147456, Note_off_c, 1, 56, 0
1, 147456, Note_on_c, 1, 81, 127
1, 147712, Note_off_c, 1, 81, 0
1, 148224, Note_on_c, 1, 59, 127
1, 148480, Note_off_c, 1, 59, 0
1, 149248, Note_on_c, 1, 80, 127
1, 149504, Note_off_c, 1, 80, 0
1, 149504, Note_on_c, 1, 54, 127
1, 149760, Note_off_c, 1, 54, 0
1, 150016, Note_on_c, 1, 83, 127
1, 150016, Note_on_c, 1, 78, 127
1, 150016, Note_on_c, 1, 74, 127
1, 150016, Note_on_c, 1, 50, 127
1, 150016, Note_on_c, 1, 66, 127
1, 150016, Note_on_c, 1, 59, 127
1, 150272, Note_off_c, 1, 83, 0
1, 150272, Note_off_c, 1, 78, 0
1, 150272, Note_off_c, 1, 74, 0
1, 150272, Note_off_c, 1, 66, 0
1, 150272, Note_off_c, 1, 59, 0
1, 150528, Note_on_c, 1, 76, 127
1, 150528, Note_on_c, 1, 73, 127
1, 150528, Note_on_c, 1, 52, 127
1, 150528, Note_on_c, 1, 68, 127
1, 150528, Note_on_c, 1, 61, 127
1, 150784, Note_off_c, 1, 76, 0
1, 150784, Note_off_c, 1, 73, 0
1, 150784, Note_off_c, 1, 52, 0
1, 150784, Note_off_c, 1, 68, 0
1, 150784, Note_off_c, 1, 61, 0
1, 151040, Note_off_c, 1, 50, 0
1, 151040, Note_on_c, 1, 80, 127
1, 151040, Note_on_c, 1, 71, 127
1, 151040, Note_on_c, 1, 40, 127
1, 151040, Note_on_c, 1, 64, 127
1, 151040, Note_on_c, 1, 62, 127
1, 151296, Note_off_c, 1, 80, 0
1, 151296, Note_off_c, 1, 71, 0
1, 151296, Note_off_c, 1, 40, 0
1, 151296, Note_off_c, 1, 64, 0
1, 151296, Note_off_c, 1, 62, 0
1, 151296, Note_on_c, 1, 69, 127
1, 151552, Note_on_c, 1, 81, 127
1, 151552, Note_on_c, 1, 45, 127
1, 152576, Note_on_c, 1, 57, 127
1, 152832, Note_off_c, 1, 57, 0
1, 153088, Note_off_c, 1, 69, 0
1, 153088, Note_off_c, 1, 81, 0
1, 153344, Note_off_c, 1, 45, 0
1, 153600, Note_on_c, 1, 49, 127
1, 153600, Note_on_c, 1, 69, 127
1, 153600, Note_on_c, 1, 64, 127
1, 153600, Note_on_c, 1, 57, 127
1, 153856, Note_off_c, 1, 57, 0
1, 154112, Note_off_c, 1, 49, 0
1, 154112, Note_off_c, 1, 69, 0
1, 154112, Note_on_c, 1, 52, 127
1, 154112, Note_on_c, 1, 71, 127
1, 154112, Note_on_c, 1, 68, 127
1, 154112, Note_on_c, 1, 62, 127
1, 154368, Note_off_c, 1, 52, 0
1, 154368, Note_off_c, 1, 71, 0
1, 154368, Note_off_c, 1, 68, 0
1, 154624, Note_off_c, 1, 62, 0
1, 154624, Note_on_c, 1, 45, 127
1, 154624, Note_on_c, 1, 73, 127
1, 154624, Note_on_c, 1, 61, 127
1, 154880, Note_off_c, 1, 64, 0
1, 154880, Note_off_c, 1, 45, 0
1, 155136, Note_off_c, 1, 73, 0
1, 155136, Note_off_c, 1, 61, 0
1, 155136, Note_on_c, 1, 74, 127
1, 155136, Note_on_c, 1, 59, 127
1, 155307, Note_off_c, 1, 74, 0
1, 155392, Note_off_c, 1, 59, 0
1, 156160, Note_on_c, 1, 55, 127
1, 156160, Note_on_c, 1, 76, 127
1, 156416, Note_off_c, 1, 55, 0
1, 156672, Note_off_c, 1, 76, 0
1, 156672, Note_on_c, 1, 54, 127
1, 156672, Note_on_c, 1, 66, 127
1, 157184, Note_off_c, 1, 54, 0
1, 157184, Note_off_c, 1, 66, 0
1, 157184, Note_on_c, 1, 67, 127
1, 157696, Note_off_c, 1, 67, 0
1, 157696, Note_on_c, 1, 78, 127
1, 157696, Note_on_c, 1, 50, 127
1, 157952, Note_off_c, 1, 78, 0
1, 158208, Note_off_c, 1, 50, 0
1, 158720, Note_on_c, 1, 38, 127
1, 158976, Note_off_c, 1, 38, 0
1, 159232, Note_on_c, 1, 47, 127
1, 159232, Note_on_c, 1, 74, 127
1, 159232, Note_on_c, 1, 71, 127
1, 159232, Note_on_c, 1, 66, 127
1, 159232, Note_on_c, 1, 54, 127
1, 159232, Note_on_c, 1, 59, 127
1, 159488, Note_off_c, 1, 47, 0
1, 159488, Note_off_c, 1, 71, 0
1, 159488, Note_off_c, 1, 66, 0
1, 159488, Note_off_c, 1, 54, 0
1, 159744, Note_off_c, 1, 74, 0
1, 159744, Note_off_c, 1, 59, 0
1, 159744, Note_on_c, 1, 52, 127
1, 159744, Note_on_c, 1, 73, 127
1, 159744, Note_on_c, 1, 67, 127
1, 159744, Note_on_c, 1, 64, 127
1, 159744, Note_on_c, 1, 61, 127
1, 160000, Note_off_c, 1, 52, 0
1, 160000, Note_off_c, 1, 73, 0
1, 160000, Note_off_c, 1, 67, 0
1, 160000, Note_off_c, 1, 64, 0
1, 160000, Note_off_c, 1, 61, 0
1, 160256, Note_on_c, 1, 54, 127
1, 160256, Note_on_c, 1, 71, 127
1, 160256, Note_on_c, 1, 66, 127
1, 160256, Note_on_c, 1, 64, 127
1, 160256, Note_on_c, 1, 61, 127
1, 160512, Note_off_c, 1, 54, 0
1, 160512, Note_off_c, 1, 71, 0
1, 160512, Note_off_c, 1, 66, 0
1, 160512, Note_off_c, 1, 64, 0
1, 160512, Note_off_c, 1, 61, 0
1, 160512, Note_on_c, 1, 70, 127
1, 160768, Note_off_c, 1, 70, 0
1, 160768, Note_on_c, 1, 55, 127
1, 160768, Note_on_c, 1, 62, 127
1, 160768, Note_on_c, 1, 59, 127
1, 161024, Note_off_c, 1, 55, 0
1, 161280, Note_off_c, 1, 59, 0
1, 161280, Note_on_c, 1, 73, 127
1, 161451, Note_off_c, 1, 73, 0
1, 161536, Note_off_c, 1, 62, 0
1, 161792, Note_on_c, 1, 67, 127
1, 162048, Note_off_c, 1, 67, 0
1, 162304, Note_on_c, 1, 52, 127
1, 162304, Note_on_c, 1, 76, 127
1, 162304, Note_on_c, 1, 71, 127
1, 162304, Note_on_c, 1, 67, 127
1, 162304, Note_on_c, 1, 59, 127
1, 162304, Note_on_c, 1, 79, 127
1, 162560, Note_off_c, 1, 52, 0
1, 162560, Note_off_c, 1, 76, 0
1, 162560, Note_off_c, 1, 71, 0
1, 162560, Note_off_c, 1, 79, 0
1, 162560, Note_on_c, 1, 78, 127
1, 162560, Note_on_c, 1, 70, 127
1, 162560, Note_on_c, 1, 74, 127
1, 162816, Note_off_c, 1, 59, 0
1, 162816, Note_off_c, 1, 78, 0
1, 162816, Note_off_c, 1, 70, 0
1, 162816, Note_off_c, 1, 74, 0
1, 162816, Note_on_c, 1, 49, 127
1, 162816, Note_on_c, 1, 61, 127
1, 163072, Note_off_c, 1, 49, 0
1, 163072, Note_off_c, 1, 61, 0
1, 163328, Note_on_c, 1, 73, 127
1, 163584, Note_off_c, 1, 67, 0
1, 163584, Note_off_c, 1, 73, 0
1, 163840, Note_on_c, 1, 54, 127
1, 163840, Note_on_c, 1, 66, 127
1, 164352, Note_off_c, 1, 54, 0
1, 164608, Note_on_c, 1, 68, 127
1, 164864, Note_off_c, 1, 68, 0
1, 164864, Note_on_c, 1, 42, 127
1, 165120, Note_off_c, 1, 66, 0
1, 165120, Note_off_c, 1, 42, 0
1, 165376, Note_on_c, 1, 54, 127
1, 165376, Note_on_c, 1, 66, 127
1, 165376, Note_on_c, 1, 58, 127
1, 165376, Note_on_c, 1, 76, 127
1, 165376, Note_on_c, 1, 70, 127
1, 165632, Note_off_c, 1, 54, 0
1, 165632, Note_off_c, 1, 66, 0
1, 165632, Note_off_c, 1, 58, 0
1, 165632, Note_off_c, 1, 76, 0
1, 165632, Note_off_c, 1, 70, 0
1, 165888, Note_on_c, 1, 56, 127
1, 165888, Note_on_c, 1, 71, 127
1, 165888, Note_on_c, 1, 66, 127
1, 165888, Note_on_c, 1, 59, 127
1, 165888, Note_on_c, 1, 74, 127
1, 166144, Note_off_c, 1, 71, 0
1, 166144, Note_off_c, 1, 66, 0
1, 166144, Note_off_c, 1, 59, 0
1, 166144, Note_off_c, 1, 74, 0
1, 166400, Note_off_c, 1, 56, 0
1, 166400, Note_on_c, 1, 58, 127
1, 166400, Note_on_c, 1, 73, 127
1, 166400, Note_on_c, 1, 64, 127
1, 166656, Note_off_c, 1, 73, 0
1, 166656, Note_off_c, 1, 64, 0
1, 166912, Note_off_c, 1, 58, 0
1, 166912, Note_on_c, 1, 62, 127
1, 167424, Note_off_c, 1, 62, 0
1, 167424, Note_on_c, 1, 54, 127
1, 167424, Note_on_c, 1, 76, 127
1, 167424, Note_on_c, 1, 70, 127
1, 167424, Note_on_c, 1, 61, 127
1, 167595, Note_off_c, 1, 76, 0
1, 167680, Note_off_c, 1, 54, 0
1, 167680, Note_off_c, 1, 70, 0
1, 167936, Note_off_c, 1, 61, 0
1, 167936, Note_on_c, 1, 50, 127
1, 167936, Note_on_c, 1, 78, 127
1, 168192, Note_off_c, 1, 50, 0
1, 168192, Note_off_c, 1, 78, 0
1, 168448, Note_on_c, 1, 52, 127
1, 168448, Note_on_c, 1, 79, 127
1, 168448, Note_on_c, 1, 67, 127
1, 168704, Note_off_c, 1, 52, 0
1, 168704, Note_off_c, 1, 79, 0
1, 168704, Note_off_c, 1, 67, 0
1, 168960, Note_on_c, 1, 54, 127
1, 168960, Note_on_c, 1, 78, 127
1, 168960, Note_on_c, 1, 70, 127
1, 168960, Note_on_c, 1, 61, 127
1, 168960, Note_on_c, 1, 66, 127
1, 168960, Note_on_c, 1, 76, 127
1, 169216, Note_off_c, 1, 76, 0
1, 169216, Note_on_c, 1, 74, 127
1, 169472, Note_off_c, 1, 78, 0
1, 169472, Note_off_c, 1, 74, 0
1, 169472, Note_on_c, 1, 42, 127
1, 169472, Note_on_c, 1, 73, 127
1, 169728, Note_off_c, 1, 70, 0
1, 169728, Note_off_c, 1, 42, 0
1, 169728, Note_off_c, 1, 73, 0
1, 169984, Note_off_c, 1, 54, 0
1, 169984, Note_off_c, 1, 61, 0
1, 169984, Note_on_c, 1, 47, 127
1, 169984, Note_on_c, 1, 71, 127
1, 169984, Note_on_c, 1, 62, 127
1, 170240, Note_on_c, 1, 67, 127
1, 170496, Note_off_c, 1, 67, 0
1, 170752, Note_on_c, 1, 64, 127
1, 171008, Note_off_c, 1, 66, 0
1, 171008, Note_off_c, 1, 47, 0
1, 171008, Note_off_c, 1, 64, 0
1, 171008, Note_on_c, 1, 59, 127
1, 171264, Note_off_c, 1, 71, 0
1, 171264, Note_off_c, 1, 62, 0
1, 171264, Note_off_c, 1, 59, 0
1, 172032, Note_on_c, 1, 45, 127
1, 172288, Note_off_c, 1, 45, 0
1, 172544, Note_on_c, 1, 79, 127
1, 172544, Note_on_c, 1, 43, 127
1, 172800, Note_off_c, 1, 43, 0
1, 173056, Note_off_c, 1, 79, 0
1, 173056, Note_on_c, 1, 81, 127
1, 173056, Note_on_c, 1, 69, 127
1, 173312, Note_off_c, 1, 81, 0
1, 173312, Note_off_c, 1, 69, 0
1, 173568, Note_on_c, 1, 83, 127
1, 173568, Note_on_c, 1, 79, 127
1, 173568, Note_on_c, 1, 49, 127
1, 173739, Note_off_c, 1, 83, 0
1, 173739, Note_off_c, 1, 79, 0
1, 173739, Note_on_c, 1, 81, 127
1, 173739, Note_on_c, 1, 78, 127
1, 173824, Note_off_c, 1, 49, 0
1, 173909, Note_off_c, 1, 81, 0
1, 173909, Note_off_c, 1, 78, 0
1, 173909, Note_on_c, 1, 76, 127
1, 174080, Note_off_c, 1, 76, 0
1, 174080, Note_on_c, 1, 51, 127
1, 174336, Note_off_c, 1, 51, 0
1, 174592, Note_on_c, 1, 81, 127
1, 174592, Note_on_c, 1, 78, 127
1, 174592, Note_on_c, 1, 54, 127
1, 174848, Note_off_c, 1, 81, 0
1, 174848, Note_off_c, 1, 78, 0
1, 174848, Note_off_c, 1, 54, 0
1, 174848, Note_on_c, 1, 79, 127
1, 174848, Note_on_c, 1, 76, 127
1, 175104, Note_off_c, 1, 79, 0
1, 175104, Note_off_c, 1, 76, 0
1, 175104, Note_on_c, 1, 47, 127
1, 175360, Note_off_c, 1, 47, 0
1, 175616, Note_on_c, 1, 83, 127
1, 175616, Note_on_c, 1, 79, 127
1, 175616, Note_on_c, 1, 51, 127
1, 175616, Note_on_c, 1, 71, 127
1, 175872, Note_off_c, 1, 83, 0
1, 175872, Note_off_c, 1, 79, 0
1, 175872, Note_off_c, 1, 51, 0
1, 175872, Note_off_c, 1, 71, 0
1, 175872, Note_on_c, 1, 81, 127
1, 175872, Note_on_c, 1, 78, 127
1, 176128, Note_off_c, 1, 81, 0
1, 176128, Note_off_c, 1, 78, 0
1, 176128, Note_on_c, 1, 76, 127
1, 176128, Note_on_c, 1, 52, 127
1, 176384, Note_off_c, 1, 76, 0
1, 176384, Note_off_c, 1, 52, 0
1, 176640, Note_on_c, 1, 81, 127
1, 176640, Note_on_c, 1, 78, 127
1, 176640, Note_on_c, 1, 50, 127
1, 176640, Note_on_c, 1, 52, 127
1, 176811, Note_off_c, 1, 81, 0
1, 176811, Note_off_c, 1, 78, 0
1, 176811, Note_on_c, 1, 79, 127
1, 176811, Note_on_c, 1, 76, 127
1, 176896, Note_off_c, 1, 50, 0
1, 176896, Note_off_c, 1, 52, 0
1, 176981, Note_off_c, 1, 79, 0
1, 176981, Note_off_c, 1, 76, 0
1, 176981, Note_on_c, 1, 74, 127
1, 177152, Note_off_c, 1, 74, 0
1, 177152, Note_on_c, 1, 49, 127
1, 177152, Note_on_c, 1, 64, 127
1, 177408, Note_off_c, 1, 49, 0
1, 177408, Note_off_c, 1, 64, 0
1, 177664, Note_on_c, 1, 79, 127
1, 177664, Note_on_c, 1, 76, 127
1, 177664, Note_on_c, 1, 52, 127
1, 177664, Note_on_c, 1, 64, 127
1, 177920, Note_off_c, 1, 79, 0
1, 177920, Note_off_c, 1, 76, 0
1, 177920, Note_off_c, 1, 52, 0
1, 177920, Note_off_c, 1, 64, 0
1, 177920, Note_on_c, 1, 78, 127
1, 177920, Note_on_c, 1, 74, 127
1, 178176, Note_off_c, 1, 78, 0
1, 178176, Note_off_c, 1, 74, 0
1, 178176, Note_on_c, 1, 45, 127
1, 178176, Note_on_c, 1, 61, 127
1, 178432, Note_off_c, 1, 45, 0
1, 178688, Note_on_c, 1, 81, 127
1, 178688, Note_on_c, 1, 49, 127
1, 178688, Note_on_c, 1, 69, 127
1, 178944, Note_off_c, 1, 81, 0
1, 178944, Note_off_c, 1, 49, 0
1, 178944, Note_off_c, 1, 69, 0
1, 179200, Note_off_c, 1, 61, 0
1, 179200, Note_on_c, 1, 50, 127
1, 179200, Note_on_c, 1, 57, 127
1, 179456, Note_off_c, 1, 57, 0
1, 179712, Note_off_c, 1, 50, 0
1, 179712, Note_on_c, 1, 66, 127
1, 179968, Note_off_c, 1, 66, 0
1, 180053, Note_on_c, 1, 73, 127
1, 180224, Note_off_c, 1, 73, 0
1, 180224, Note_on_c, 1, 47, 127
1, 180224, Note_on_c, 1, 71, 127
1, 180480, Note_off_c, 1, 71, 0
1, 180736, Note_off_c, 1, 47, 0
1, 180992, Note_on_c, 1, 67, 127
1, 181248, Note_off_c, 1, 67, 0
1, 181248, Note_on_c, 1, 42, 127
1, 181248, Note_on_c, 1, 62, 127
1, 181248, Note_on_c, 1, 54, 127
1, 181504, Note_off_c, 1, 42, 0
1, 181504, Note_off_c, 1, 62, 0
1, 181504, Note_off_c, 1, 54, 0
1, 181760, Note_on_c, 1, 79, 127
1, 181760, Note_on_c, 1, 76, 127
1, 181760, Note_on_c, 1, 74, 127
1, 181760, Note_on_c, 1, 45, 127
1, 181760, Note_on_c, 1, 69, 127
1, 181760, Note_on_c, 1, 73, 127
1, 181760, Note_on_c, 1, 64, 127
1, 181760, Note_on_c, 1, 57, 127
1, 182016, Note_off_c, 1, 79, 0
1, 182016, Note_off_c, 1, 76, 0
1, 182016, Note_off_c, 1, 45, 0
1, 182016, Note_off_c, 1, 69, 0
1, 182016, Note_off_c, 1, 73, 0
1, 182016, Note_off_c, 1, 64, 0
1, 182016, Note_off_c, 1, 57, 0
1, 182016, Note_on_c, 1, 78, 127
1, 182016, Note_on_c, 1, 66, 127
1, 182272, Note_off_c, 1, 78, 0
1, 182272, Note_off_c, 1, 66, 0
1, 182272, Note_on_c, 1, 44, 127
1, 182272, Note_on_c, 1, 71, 127
1, 182272, Note_on_c, 1, 59, 127
1, 182272, Note_on_c, 1, 56, 127
1, 182528, Note_off_c, 1, 74, 0
1, 182528, Note_off_c, 1, 44, 0
1, 182784, Note_on_c, 1, 68, 127
1, 183040, Note_off_c, 1, 68, 0
1, 183194, Note_off_c, 1, 71, 0
1, 183194, Note_off_c, 1, 59, 0
1, 183194, Note_off_c, 1, 56, 0
1, 185344, Note_on_c, 1, 61, 127
1, 185856, Note_off_c, 1, 61, 0
1, 185856, Note_on_c, 1, 81, 127
1, 185856, Note_on_c, 1, 49, 127
1, 186112, Note_off_c, 1, 81, 0
1, 186112, Note_on_c, 1, 62, 127
1, 186368, Note_off_c, 1, 49, 0
1, 186368, Note_off_c, 1, 62, 0
1, 186368, Note_on_c, 1, 52, 127
1, 186880, Note_off_c, 1, 52, 0
1, 187904, Note_on_c, 1, 67, 127
1, 188160, Note_off_c, 1, 67, 0
1, 188416, Note_on_c, 1, 46, 127
1, 188416, Note_on_c, 1, 58, 127
1, 188672, Note_off_c, 1, 46, 0
1, 189440, Note_on_c, 1, 70, 127
1, 189440, Note_on_c, 1, 54, 127
1, 189696, Note_off_c, 1, 70, 0
1, 189696, Note_off_c, 1, 54, 0
1, 190362, Note_off_c, 1, 58, 0
1, 191488, Note_on_c, 1, 47, 127
1, 191744, Note_off_c, 1, 47, 0
1, 192000, Note_on_c, 1, 75, 127
1, 192000, Note_on_c, 1, 83, 127
1, 192256, Note_off_c, 1, 75, 0
1, 192256, Note_off_c, 1, 83, 0
1, 194560, Note_on_c, 1, 40, 127
1, 194816, Note_off_c, 1, 40, 0
1, 196096, Note_on_c, 1, 42, 127
1, 196352, Note_off_c, 1, 42, 0
1, 196608, Note_on_c, 1, 50, 127
1, 196864, Note_off_c, 1, 50, 0
1, 197632, Note_on_c, 1, 55, 127
1, 198144, Note_off_c, 1, 55, 0
1, 202240, Note_on_c, 1, 66, 127
1, 202240, Note_on_c, 1, 47, 127
1, 202240, Note_on_c, 1, 62, 127
1, 202240, Note_on_c, 1, 59, 127
1, 202496, Note_off_c, 1, 66, 0
1, 202496, Note_off_c, 1, 47, 0
1, 202496, Note_off_c, 1, 62, 0
1, 202496, Note_off_c, 1, 59, 0
1, 202752, Note_on_c, 1, 71, 127
1, 202752, Note_on_c, 1, 50, 127
1, 202752, Note_on_c, 1, 66, 127
1, 202752, Note_on_c, 1, 59, 127
1, 203008, Note_off_c, 1, 71, 0
1, 203008, Note_off_c, 1, 50, 0
1, 203008, Note_off_c, 1, 66, 0
1, 203008, Note_off_c, 1, 59, 0
1, 203264, Note_on_c, 1, 73, 127
1, 203264, Note_on_c, 1, 54, 127
1, 203264, Note_on_c, 1, 70, 127
1, 203264, Note_on_c, 1, 66, 127
1, 203520, Note_off_c, 1, 73, 0
1, 203520, Note_off_c, 1, 54, 0
1, 203520, Note_off_c, 1, 70, 0
1, 203520, Note_off_c, 1, 66, 0
1, 203776, Note_on_c, 1, 74, 127
1, 203776, Note_on_c, 1, 59, 127
1, 203776, Note_on_c, 1, 71, 127
1, 203776, Note_on_c, 1, 66, 127
1, 204032, Note_off_c, 1, 74, 0
1, 204032, Note_off_c, 1, 59, 0
1, 204032, Note_off_c, 1, 71, 0
1, 204032, Note_off_c, 1, 66, 0
1, 204288, Note_on_c, 1, 76, 127
1, 204288, Note_on_c, 1, 47, 127
1, 204288, Note_on_c, 1, 73, 127
1, 204288, Note_on_c, 1, 67, 127
1, 204459, Note_off_c, 1, 76, 0
1, 204459, Note_off_c, 1, 73, 0
1, 204459, Note_off_c, 1, 67, 0
1, 204459, Note_on_c, 1, 74, 127
1, 204459, Note_on_c, 1, 71, 127
1, 204459, Note_on_c, 1, 66, 127
1, 204544, Note_off_c, 1, 47, 0
1, 204629, Note_off_c, 1, 74, 0
1, 204629, Note_off_c, 1, 71, 0
1, 204629, Note_off_c, 1, 66, 0
1, 204629, Note_on_c, 1, 70, 127
1, 204629, Note_on_c, 1, 64, 127
1, 204800, Note_off_c, 1, 70, 0
1, 204800, Note_off_c, 1, 64, 0
1, 205312, Note_on_c, 1, 78, 127
1, 205312, Note_on_c, 1, 72, 127
1, 205312, Note_on_c, 1, 69, 127
1, 205568, Note_off_c, 1, 78, 0
1, 205568, Note_off_c, 1, 72, 0
1, 205568, Note_off_c, 1, 69, 0
1, 205824, Note_on_c, 1, 76, 127
1, 205824, Note_on_c, 1, 71, 127
1, 205824, Note_on_c, 1, 67, 127
1, 206080, Note_off_c, 1, 76, 0
1, 206080, Note_off_c, 1, 71, 0
1, 206080, Note_off_c, 1, 67, 0
1, 206336, Note_on_c, 1, 75, 127
1, 206336, Note_on_c, 1, 69, 127
1, 206336, Note_on_c, 1, 66, 127
1, 206592, Note_off_c, 1, 75, 0
1, 206592, Note_off_c, 1, 69, 0
1, 206592, Note_off_c, 1, 66, 0
1, 206848, Note_on_c, 1, 76, 127
1, 206848, Note_on_c, 1, 71, 127
1, 206848, Note_on_c, 1, 67, 127
1, 207104, Note_off_c, 1, 76, 0
1, 207104, Note_off_c, 1, 71, 0
1, 207104, Note_off_c, 1, 67, 0
1, 207360, Note_on_c, 1, 59, 127
1, 207616, Note_off_c, 1, 59, 0
1, 207616, Note_on_c, 1, 61, 127
1, 207872, Note_off_c, 1, 61, 0
1, 207872, Note_on_c, 1, 79, 127
1, 207872, Note_on_c, 1, 76, 127
1, 207872, Note_on_c, 1, 71, 127
1, 208128, Note_off_c, 1, 79, 0
1, 208128, Note_off_c, 1, 76, 0
1, 208128, Note_off_c, 1, 71, 0
1, 208384, Note_on_c, 1, 67, 127
1, 208640, Note_off_c, 1, 67, 0
1, 208896, Note_on_c, 1, 70, 127
1, 208896, Note_on_c, 1, 64, 127
1, 208896, Note_on_c, 1, 73, 127
1, 209152, Note_off_c, 1, 70, 0
1, 209152, Note_off_c, 1, 64, 0
1, 209152, Note_off_c, 1, 73, 0
1, 209408, Note_on_c, 1, 66, 127
1, 209408, Note_on_c, 1, 62, 127
1, 209664, Note_off_c, 1, 66, 0
1, 209664, Note_off_c, 1, 62, 0
1, 210432, Note_on_c, 1, 74, 127
1, 210432, Note_on_c, 1, 47, 127
1, 210432, Note_on_c, 1, 66, 127
1, 210432, Note_on_c, 1, 71, 127
1, 210603, Note_off_c, 1, 74, 0
1, 210603, Note_off_c, 1, 71, 0
1, 210603, Note_on_c, 1, 73, 127
1, 210603, Note_on_c, 1, 64, 127
1, 210603, Note_on_c, 1, 70, 127
1, 210688, Note_off_c, 1, 47, 0
1, 210688, Note_off_c, 1, 66, 0
1, 210773, Note_off_c, 1, 73, 0
1, 210773, Note_off_c, 1, 64, 0
1, 210773, Note_off_c, 1, 70, 0
1, 210773, Note_on_c, 1, 62, 127
1, 210773, Note_on_c, 1, 67, 127
1, 210944, Note_off_c, 1, 62, 0
1, 211200, Note_off_c, 1, 67, 0
1, 211456, Note_on_c, 1, 76, 127
1, 211456, Note_on_c, 1, 73, 127
1, 211456, Note_on_c, 1, 67, 127
1, 211712, Note_off_c, 1, 76, 0
1, 211712, Note_off_c, 1, 73, 0
1, 211712, Note_off_c, 1, 67, 0
1, 211968, Note_on_c, 1, 74, 127
1, 211968, Note_on_c, 1, 71, 127
1, 211968, Note_on_c, 1, 66, 127
1, 212224, Note_off_c, 1, 74, 0
1, 212224, Note_off_c, 1, 71, 0
1, 212224, Note_off_c, 1, 66, 0
1, 212480, Note_on_c, 1, 73, 127
1, 212480, Note_on_c, 1, 70, 127
1, 212480, Note_on_c, 1, 64, 127
1, 212736, Note_off_c, 1, 73, 0
1, 212736, Note_off_c, 1, 70, 0
1, 212736, Note_off_c, 1, 64, 0
1, 212992, Note_on_c, 1, 74, 127
1, 212992, Note_on_c, 1, 71, 127
1, 212992, Note_on_c, 1, 66, 127
1, 213248, Note_off_c, 1, 74, 0
1, 213248, Note_off_c, 1, 71, 0
1, 213248, Note_off_c, 1, 66, 0
1, 213504, Note_on_c, 1, 59, 127
1, 213760, Note_off_c, 1, 59, 0
1, 213760, Note_on_c, 1, 61, 127
1, 214016, Note_off_c, 1, 61, 0
1, 214016, Note_on_c, 1, 78, 127
1, 214016, Note_on_c, 1, 74, 127
1, 214016, Note_on_c, 1, 71, 127
1, 214272, Note_off_c, 1, 78, 0
1, 214272, Note_off_c, 1, 74, 0
1, 214272, Note_off_c, 1, 71, 0
1, 214528, Note_on_c, 1, 66, 127
1, 214784, Note_off_c, 1, 66, 0
1, 216064, Note_on_c, 1, 57, 127
1, 216064, Note_on_c, 1, 63, 127
1, 216320, Note_off_c, 1, 57, 0
1, 216320, Note_off_c, 1, 63, 0
1, 216576, Note_on_c, 1, 72, 127
1, 216576, Note_on_c, 1, 67, 127
1, 216576, Note_on_c, 1, 64, 127
1, 216747, Note_off_c, 1, 72, 0
1, 216747, Note_off_c, 1, 67, 0
1, 216832, Note_off_c, 1, 64, 0
1, 216832, Note_on_c, 1, 55, 127
1, 216917, Note_on_c, 1, 69, 127
1, 217088, Note_off_c, 1, 55, 0
1, 217088, Note_off_c, 1, 69, 0
1, 217088, Note_on_c, 1, 54, 127
1, 217344, Note_off_c, 1, 54, 0
1, 217344, Note_on_c, 1, 52, 127
1, 217600, Note_off_c, 1, 52, 0
1, 217600, Note_on_c, 1, 81, 127
1, 217600, Note_on_c, 1, 51, 127
1, 217856, Note_off_c, 1, 81, 0
1, 217856, Note_off_c, 1, 51, 0
1, 217856, Note_on_c, 1, 49, 127
1, 218112, Note_off_c, 1, 49, 0
1, 218112, Note_on_c, 1, 79, 127
1, 218112, Note_on_c, 1, 47, 127
1, 218112, Note_on_c, 1, 76, 127
1, 218368, Note_off_c, 1, 79, 0
1, 218368, Note_off_c, 1, 47, 0
1, 218368, Note_off_c, 1, 76, 0
1, 218624, Note_on_c, 1, 78, 127
1, 218624, Note_on_c, 1, 59, 127
1, 218624, Note_on_c, 1, 75, 127
1, 218624, Note_on_c, 1, 71, 127
1, 218880, Note_off_c, 1, 78, 0
1, 218880, Note_off_c, 1, 59, 0
1, 218880, Note_off_c, 1, 75, 0
1, 218880, Note_off_c, 1, 71, 0
1, 219136, Note_on_c, 1, 79, 127
1, 219136, Note_on_c, 1, 52, 127
1, 219136, Note_on_c, 1, 76, 127
1, 219136, Note_on_c, 1, 71, 127
1, 219392, Note_off_c, 1, 79, 0
1, 219392, Note_off_c, 1, 52, 0
1, 219392, Note_off_c, 1, 76, 0
1, 219392, Note_off_c, 1, 71, 0
1, 219392, Note_on_c, 1, 78, 127
1, 219392, Note_on_c, 1, 69, 127
1, 219648, Note_off_c, 1, 78, 0
1, 219648, Note_off_c, 1, 69, 0
1, 219648, Note_on_c, 1, 55, 127
1, 219648, Note_on_c, 1, 67, 127
1, 219904, Note_off_c, 1, 55, 0
1, 219904, Note_off_c, 1, 67, 0
1, 219904, Note_on_c, 1, 54, 127
1, 220160, Note_off_c, 1, 54, 0
1, 220416, Note_on_c, 1, 81, 127
1, 220672, Note_off_c, 1, 81, 0
1, 220672, Note_on_c, 1, 83, 127
1, 220672, Note_on_c, 1, 49, 127
1, 220672, Note_on_c, 1, 64, 127
1, 220928, Note_off_c, 1, 83, 0
1, 220928, Note_off_c, 1, 49, 0
1, 220928, Note_off_c, 1, 64, 0
1, 220928, Note_on_c, 1, 82, 127
1, 221184, Note_off_c, 1, 82, 0
1, 221184, Note_on_c, 1, 85, 127
1, 221184, Note_on_c, 1, 46, 127
1, 221184, Note_on_c, 1, 61, 127
1, 221440, Note_off_c, 1, 85, 0
1, 221440, Note_off_c, 1, 46, 0
1, 221440, Note_off_c, 1, 61, 0
1, 221696, Note_on_c, 1, 42, 127
1, 221696, Note_on_c, 1, 66, 127
1, 221952, Note_off_c, 1, 42, 0
1, 221952, Note_off_c, 1, 66, 0
1, 221952, Note_on_c, 1, 80, 127
1, 222208, Note_off_c, 1, 80, 0
1, 222208, Note_on_c, 1, 47, 127
1, 222208, Note_on_c, 1, 74, 127
1, 222464, Note_off_c, 1, 47, 0
1, 222464, Note_off_c, 1, 74, 0
1, 222464, Note_on_c, 1, 73, 127
1, 222720, Note_off_c, 1, 73, 0
1, 222976, Note_on_c, 1, 70, 127
1, 223232, Note_off_c, 1, 70, 0
1, 223232, Note_on_c, 1, 50, 127
1, 223232, Note_on_c, 1, 62, 127
1, 223488, Note_off_c, 1, 50, 0
1, 223488, Note_off_c, 1, 62, 0
1, 223744, Note_on_c, 1, 71, 127
1, 223744, Note_on_c, 1, 52, 127
1, 223744, Note_on_c, 1, 67, 127
1, 224000, Note_off_c, 1, 71, 0
1, 224000, Note_off_c, 1, 52, 0
1, 224000, Note_off_c, 1, 67, 0
1, 224256, Note_on_c, 1, 74, 127
1, 224256, Note_on_c, 1, 54, 127
1, 224256, Note_on_c, 1, 71, 127
1, 224256, Note_on_c, 1, 66, 127
1, 224512, Note_off_c, 1, 74, 0
1, 224512, Note_off_c, 1, 54, 0
1, 224512, Note_off_c, 1, 71, 0
1, 224512, Note_off_c, 1, 66, 0
1, 224512, Note_on_c, 1, 73, 127
1, 224768, Note_off_c, 1, 73, 0
1, 224768, Note_on_c, 1, 42, 127
1, 224768, Note_on_c, 1, 61, 127
1, 225024, Note_off_c, 1, 42, 0
1, 225024, Note_off_c, 1, 61, 0
1, 225024, Note_on_c, 1, 70, 127
1, 225280, Note_off_c, 1, 70, 0
1, 225280, Note_on_c, 1, 47, 127
1, 225280, Note_on_c, 1, 62, 127
1, 225536, Note_off_c, 1, 47, 0
1, 225792, Note_on_c, 1, 50, 127
1, 226048, Note_off_c, 1, 50, 0
1, 226816, Note_off_c, 1, 62, 0
1, 226816, Note_on_c, 1, 59, 127
1, 227072, Note_off_c, 1, 59, 0
1, 227328, Note_on_c, 1, 62, 127
1, 227328, Note_on_c, 1, 74, 127
1, 227328, Note_on_c, 1, 71, 127
1, 227328, Note_on_c, 1, 66, 127
1, 227328, Note_on_c, 1, 59, 127
1, 227584, Note_off_c, 1, 62, 0
1, 227584, Note_off_c, 1, 74, 0
1, 227584, Note_off_c, 1, 71, 0
1, 227584, Note_off_c, 1, 66, 0
1, 227584, Note_off_c, 1, 59, 0
1, 227584, Note_on_c, 1, 61, 127
1, 228096, Note_off_c, 1, 61, 0
1, 228096, Note_on_c, 1, 57, 127
1, 228352, Note_off_c, 1, 57, 0
1, 228352, Note_on_c, 1, 56, 127
1, 228352, Note_on_c, 1, 64, 127
1, 228608, Note_off_c, 1, 56, 0
1, 228608, Note_off_c, 1, 64, 0
1, 228864, Note_on_c, 1, 64, 127
1, 229035, Note_on_c, 1, 62, 127
1, 229120, Note_off_c, 1, 64, 0
1, 229205, Note_off_c, 1, 62, 0
1, 229205, Note_on_c, 1, 61, 127
1, 229376, Note_off_c, 1, 61, 0
1, 229376, Note_on_c, 1, 52, 127
1, 229376, Note_on_c, 1, 74, 127
1, 229376, Note_on_c, 1, 71, 127
1, 229376, Note_on_c, 1, 68, 127
1, 229632, Note_off_c, 1, 52, 0
1, 229632, Note_off_c, 1, 74, 0
1, 229632, Note_off_c, 1, 71, 0
1, 229632, Note_off_c, 1, 68, 0
1, 229888, Note_on_c, 1, 64, 127
1, 229888, Note_on_c, 1, 52, 127
1, 230144, Note_off_c, 1, 64, 0
1, 230144, Note_off_c, 1, 52, 0
1, 230144, Note_on_c, 1, 54, 127
1, 230272, Note_off_c, 1, 54, 0
1, 230400, Note_on_c, 1, 56, 127
1, 230400, Note_on_c, 1, 74, 127
1, 230400, Note_on_c, 1, 71, 127
1, 230400, Note_on_c, 1, 68, 127
1, 230656, Note_off_c, 1, 56, 0
1, 230656, Note_off_c, 1, 74, 0
1, 230656, Note_off_c, 1, 71, 0
1, 230656, Note_off_c, 1, 68, 0
1, 230656, Note_on_c, 1, 57, 127
1, 230784, Note_off_c, 1, 57, 0
1, 230912, Note_on_c, 1, 64, 127
1, 230912, Note_on_c, 1, 59, 127
1, 231168, Note_off_c, 1, 64, 0
1, 231168, Note_off_c, 1, 59, 0
1, 231168, Note_on_c, 1, 61, 127
1, 231296, Note_off_c, 1, 61, 0
1, 231424, Note_on_c, 1, 45, 127
1, 231424, Note_on_c, 1, 74, 127
1, 231424, Note_on_c, 1, 71, 127
1, 231424, Note_on_c, 1, 64, 127
1, 231424, Note_on_c, 1, 62, 127
1, 231680, Note_off_c, 1, 45, 0
1, 231680, Note_off_c, 1, 74, 0
1, 231680, Note_off_c, 1, 71, 0
1, 231680, Note_off_c, 1, 64, 0
1, 231680, Note_off_c, 1, 62, 0
1, 231936, Note_on_c, 1, 49, 127
1, 231936, Note_on_c, 1, 61, 127
1, 232192, Note_off_c, 1, 49, 0
1, 232192, Note_off_c, 1, 61, 0
1, 232192, Note_on_c, 1, 59, 127
1, 232448, Note_off_c, 1, 59, 0
1, 232448, Note_on_c, 1, 52, 127
1, 232448, Note_on_c, 1, 73, 127
1, 232448, Note_on_c, 1, 69, 127
1, 232448, Note_on_c, 1, 64, 127
1, 232704, Note_off_c, 1, 52, 0
1, 232704, Note_off_c, 1, 73, 0
1, 232704, Note_off_c, 1, 69, 0
1, 232704, Note_off_c, 1, 64, 0
1, 232960, Note_on_c, 1, 57, 127
1, 232960, Note_on_c, 1, 54, 127
1, 233216, Note_off_c, 1, 57, 0
1, 233216, Note_off_c, 1, 54, 0
1, 233472, Note_on_c, 1, 59, 127
1, 233472, Note_on_c, 1, 73, 127
1, 233472, Note_on_c, 1, 69, 127
1, 233472, Note_on_c, 1, 61, 127
1, 233472, Note_on_c, 1, 56, 127
1, 233728, Note_off_c, 1, 59, 0
1, 233728, Note_off_c, 1, 73, 0
1, 233728, Note_off_c, 1, 69, 0
1, 233728, Note_off_c, 1, 61, 0
1, 233728, Note_off_c, 1, 56, 0
1, 233728, Note_on_c, 1, 57, 127
1, 233728, Note_on_c, 1, 54, 127
1, 233856, Note_off_c, 1, 54, 0
1, 233984, Note_off_c, 1, 57, 0
1, 233984, Note_on_c, 1, 53, 127
1, 234240, Note_off_c, 1, 53, 0
1, 234496, Note_on_c, 1, 71, 127
1, 234496, Note_on_c, 1, 68, 127
1, 234752, Note_off_c, 1, 71, 0
1, 234752, Note_off_c, 1, 68, 0
1, 235008, Note_on_c, 1, 61, 127
1, 235179, Note_on_c, 1, 59, 127
1, 235264, Note_off_c, 1, 61, 0
1, 235349, Note_off_c, 1, 59, 0
1, 235349, Note_on_c, 1, 57, 127
1, 235520, Note_off_c, 1, 57, 0
1, 235520, Note_on_c, 1, 56, 127
1, 235520, Note_on_c, 1, 71, 127
1, 235520, Note_on_c, 1, 68, 127
1, 235776, Note_off_c, 1, 56, 0
1, 235776, Note_off_c, 1, 71, 0
1, 235776, Note_off_c, 1, 68, 0
1, 236032, Note_on_c, 1, 49, 127
1, 236288, Note_off_c, 1, 49, 0
1, 236288, Note_on_c, 1, 51, 127
1, 236544, Note_off_c, 1, 51, 0
1, 236544, Note_on_c, 1, 53, 127
1, 236800, Note_off_c, 1, 53, 0
1, 236800, Note_on_c, 1, 54, 127
1, 237056, Note_off_c, 1, 54, 0
1, 237568, Note_on_c, 1, 42, 127
1, 237824, Note_off_c, 1, 42, 0
1, 238080, Note_on_c, 1, 45, 127
1, 238080, Note_on_c, 1, 57, 127
1, 238336, Note_off_c, 1, 45, 0
1, 238336, Note_off_c, 1, 57, 0
1, 238336, Note_on_c, 1, 56, 127
1, 238592, Note_off_c, 1, 56, 0
1, 238592, Note_on_c, 1, 49, 127
1, 238592, Note_on_c, 1, 69, 127
1, 238592, Note_on_c, 1, 66, 127
1, 238592, Note_on_c, 1, 61, 127
1, 238848, Note_off_c, 1, 49, 0
1, 238848, Note_off_c, 1, 69, 0
1, 238848, Note_off_c, 1, 66, 0
1, 238848, Note_off_c, 1, 61, 0
1, 239104, Note_on_c, 1, 54, 127
1, 239104, Note_on_c, 1, 61, 127
1, 239360, Note_off_c, 1, 54, 0
1, 239360, Note_off_c, 1, 61, 0
1, 239616, Note_on_c, 1, 50, 127
1, 239616, Note_on_c, 1, 71, 127
1, 239616, Note_on_c, 1, 66, 127
1, 239616, Note_on_c, 1, 62, 127
1, 239616, Note_on_c, 1, 59, 127
1, 239872, Note_off_c, 1, 50, 0
1, 239872, Note_off_c, 1, 71, 0
1, 239872, Note_off_c, 1, 66, 0
1, 239872, Note_off_c, 1, 62, 0
1, 239872, Note_off_c, 1, 59, 0
1, 239872, Note_on_c, 1, 57, 127
1, 240000, Note_off_c, 1, 57, 0
1, 240128, Note_on_c, 1, 47, 127
1, 240128, Note_on_c, 1, 56, 127
1, 240384, Note_off_c, 1, 47, 0
1, 240384, Note_off_c, 1, 56, 0
1, 240384, Note_on_c, 1, 54, 127
1, 240512, Note_off_c, 1, 54, 0
1, 240640, Note_on_c, 1, 49, 127
1, 240640, Note_on_c, 1, 65, 127
1, 240640, Note_on_c, 1, 61, 127
1, 240640, Note_on_c, 1, 56, 127
1, 240640, Note_on_c, 1, 53, 127
1, 240896, Note_off_c, 1, 49, 0
1, 240896, Note_off_c, 1, 65, 0
1, 240896, Note_off_c, 1, 61, 0
1, 240896, Note_off_c, 1, 56, 0
1, 241920, Note_off_c, 1, 53, 0
1, 242176, Note_on_c, 1, 59, 127
1, 242176, Note_on_c, 1, 51, 127
1, 242304, Note_off_c, 1, 51, 0
1, 242432, Note_off_c, 1, 59, 0
1, 242688, Note_on_c, 1, 57, 127
1, 242688, Note_on_c, 1, 73, 127
1, 242688, Note_on_c, 1, 66, 127
1, 242688, Note_on_c, 1, 54, 127
1, 242944, Note_off_c, 1, 57, 0
1, 242944, Note_off_c, 1, 73, 0
1, 242944, Note_off_c, 1, 66, 0
1, 242944, Note_off_c, 1, 54, 0
1, 242944, Note_on_c, 1, 53, 127
1, 243200, Note_off_c, 1, 53, 0
1, 243200, Note_on_c, 1, 56, 127
1, 243712, Note_off_c, 1, 56, 0
1, 243712, Note_on_c, 1, 69, 127
1, 243712, Note_on_c, 1, 61, 127
1, 243968, Note_off_c, 1, 69, 0
1, 243968, Note_off_c, 1, 61, 0
1, 243968, Note_on_c, 1, 59, 127
1, 244224, Note_off_c, 1, 59, 0
1, 244224, Note_on_c, 1, 49, 127
1, 244480, Note_off_c, 1, 49, 0
1, 245760, Note_on_c, 1, 50, 127
1, 245760, Note_on_c, 1, 78, 127
1, 245760, Note_on_c, 1, 70, 127
1, 246016, Note_off_c, 1, 50, 0
1, 246016, Note_off_c, 1, 78, 0
1, 246016, Note_off_c, 1, 70, 0
1, 246016, Note_on_c, 1, 58, 127
1, 246144, Note_off_c, 1, 58, 0
1, 246272, Note_on_c, 1, 49, 127
1, 246272, Note_on_c, 1, 59, 127
1, 246528, Note_off_c, 1, 49, 0
1, 246528, Note_off_c, 1, 59, 0
1, 246528, Note_on_c, 1, 61, 127
1, 246656, Note_off_c, 1, 61, 0
1, 246784, Note_on_c, 1, 47, 127
1, 246784, Note_on_c, 1, 74, 127
1, 246784, Note_on_c, 1, 71, 127
1, 246784, Note_on_c, 1, 66, 127
1, 246784, Note_on_c, 1, 62, 127
1, 247040, Note_off_c, 1, 47, 0
1, 247040, Note_off_c, 1, 74, 0
1, 247040, Note_off_c, 1, 71, 0
1, 247040, Note_off_c, 1, 66, 0
1, 247040, Note_off_c, 1, 62, 0
1, 247296, Note_on_c, 1, 42, 127
1, 247296, Note_on_c, 1, 64, 127
1, 247467, Note_off_c, 1, 64, 0
1, 247467, Note_on_c, 1, 62, 127
1, 247552, Note_off_c, 1, 42, 0
1, 247637, Note_off_c, 1, 62, 0
1, 247637, Note_on_c, 1, 61, 127
1, 247808, Note_off_c, 1, 61, 0
1, 247808, Note_on_c, 1, 47, 127
1, 247808, Note_on_c, 1, 74, 127
1, 247808, Note_on_c, 1, 71, 127
1, 247808, Note_on_c, 1, 66, 127
1, 248064, Note_off_c, 1, 47, 0
1, 248064, Note_off_c, 1, 74, 0
1, 248064, Note_off_c, 1, 71, 0
1, 248064, Note_off_c, 1, 66, 0
1, 248320, Note_on_c, 1, 49, 127
1, 248320, Note_on_c, 1, 59, 127
1, 248576, Note_off_c, 1, 49, 0
1, 248576, Note_off_c, 1, 59, 0
1, 248576, Note_on_c, 1, 50, 127
1, 248832, Note_off_c, 1, 50, 0
1, 248832, Note_on_c, 1, 52, 127
1, 248832, Note_on_c, 1, 74, 127
1, 248832, Note_on_c, 1, 71, 127
1, 248832, Note_on_c, 1, 68, 127
1, 248832, Note_on_c, 1, 56, 127
1, 249088, Note_off_c, 1, 52, 0
1, 249088, Note_off_c, 1, 74, 0
1, 249088, Note_off_c, 1, 71, 0
1, 249088, Note_off_c, 1, 68, 0
1, 249600, Note_on_c, 1, 47, 127
1, 249856, Note_off_c, 1, 47, 0
1, 250112, Note_off_c, 1, 56, 0
1, 250368, Note_on_c, 1, 40, 127
1, 250368, Note_on_c, 1, 57, 127
1, 250624, Note_off_c, 1, 40, 0
1, 250624, Note_off_c, 1, 57, 0
1, 250624, Note_on_c, 1, 59, 127
1, 250880, Note_off_c, 1, 59, 0
1, 250880, Note_on_c, 1, 42, 127
1, 250880, Note_on_c, 1, 74, 127
1, 250880, Note_on_c, 1, 71, 127
1, 250880, Note_on_c, 1, 64, 127
1, 251136, Note_off_c, 1, 42, 0
1, 251136, Note_off_c, 1, 74, 0
1, 251136, Note_off_c, 1, 71, 0
1, 251136, Note_off_c, 1, 64, 0
1, 251136, Note_on_c, 1, 56, 127
1, 251264, Note_off_c, 1, 56, 0
1, 251392, Note_on_c, 1, 44, 127
1, 251392, Note_on_c, 1, 54, 127
1, 251648, Note_off_c, 1, 44, 0
1, 251648, Note_off_c, 1, 54, 0
1, 251648, Note_on_c, 1, 52, 127
1, 251776, Note_off_c, 1, 52, 0
1, 251904, Note_on_c, 1, 45, 127
1, 251904, Note_on_c, 1, 73, 127
1, 251904, Note_on_c, 1, 69, 127
1, 251904, Note_on_c, 1, 64, 127
1, 251904, Note_on_c, 1, 50, 127
1, 252160, Note_off_c, 1, 45, 0
1, 252160, Note_off_c, 1, 73, 0
1, 252160, Note_off_c, 1, 69, 0
1, 252160, Note_off_c, 1, 64, 0
1, 252160, Note_off_c, 1, 50, 0
1, 252160, Note_on_c, 1, 49, 127
1, 252288, Note_off_c, 1, 49, 0
1, 252416, Note_on_c, 1, 47, 127
1, 252416, Note_on_c, 1, 61, 127
1, 252672, Note_off_c, 1, 47, 0
1, 252672, Note_on_c, 1, 49, 127
1, 252928, Note_off_c, 1, 49, 0
1, 252928, Note_on_c, 1, 50, 127
1, 252928, Note_on_c, 1, 78, 127
1, 252928, Note_on_c, 1, 69, 127
1, 252928, Note_on_c, 1, 62, 127
1, 253184, Note_off_c, 1, 50, 0
1, 253184, Note_off_c, 1, 78, 0
1, 253184, Note_off_c, 1, 69, 0
1, 253184, Note_off_c, 1, 62, 0
1, 253440, Note_off_c, 1, 61, 0
1, 253696, Note_on_c, 1, 45, 127
1, 253952, Note_off_c, 1, 45, 0
1, 253952, Note_on_c, 1, 71, 127
1, 253952, Note_on_c, 1, 66, 127
1, 253952, Note_on_c, 1, 59, 127
1, 254208, Note_off_c, 1, 71, 0
1, 254208, Note_off_c, 1, 66, 0
1, 254208, Note_off_c, 1, 59, 0
1, 254208, Note_on_c, 1, 57, 127
1, 254464, Note_off_c, 1, 57, 0
1, 254464, Note_on_c, 1, 54, 127
1, 254464, Note_on_c, 1, 56, 127
1, 254720, Note_off_c, 1, 56, 0
1, 254976, Note_on_c, 1, 74, 127
1, 255232, Note_off_c, 1, 54, 0
1, 255232, Note_off_c, 1, 74, 0
1, 255488, Note_on_c, 1, 49, 127
1, 255488, Note_on_c, 1, 61, 127
1, 255744, Note_off_c, 1, 49, 0
1, 255744, Note_off_c, 1, 61, 0
1, 256000, Note_on_c, 1, 50, 127
1, 256000, Note_on_c, 1, 66, 127
1, 256000, Note_on_c, 1, 62, 127
1, 256000, Note_on_c, 1, 59, 127
1, 256256, Note_off_c, 1, 50, 0
1, 256256, Note_off_c, 1, 66, 0
1, 256256, Note_off_c, 1, 62, 0
1, 256256, Note_off_c, 1, 59, 0
1, 256256, Note_on_c, 1, 58, 127
1, 256512, Note_off_c, 1, 58, 0
1, 256512, Note_on_c, 1, 52, 127
1, 256768, Note_off_c, 1, 52, 0
1, 256768, Note_on_c, 1, 54, 127
1, 257024, Note_off_c, 1, 54, 0
1, 257024, Note_on_c, 1, 71, 127
1, 257280, Note_off_c, 1, 71, 0
1, 257536, Note_on_c, 1, 49, 127
1, 257792, Note_off_c, 1, 49, 0
1, 257792, Note_on_c, 1, 47, 127
1, 258048, Note_off_c, 1, 47, 0
1, 258048, Note_on_c, 1, 53, 127
1, 258048, Note_on_c, 1, 68, 127
1, 258048, Note_on_c, 1, 61, 127
1, 258304, Note_off_c, 1, 53, 0
1, 258304, Note_off_c, 1, 68, 0
1, 258304, Note_off_c, 1, 61, 0
1, 258560, Note_on_c, 1, 49, 127
1, 258560, Note_on_c, 1, 51, 127
1, 258816, Note_off_c, 1, 49, 0
1, 258816, Note_off_c, 1, 51, 0
1, 258816, Note_on_c, 1, 53, 127
1, 258944, Note_off_c, 1, 53, 0
1, 259072, Note_on_c, 1, 54, 127
1, 259072, Note_on_c, 1, 69, 127
1, 259072, Note_on_c, 1, 66, 127
1, 259072, Note_on_c, 1, 61, 127
1, 259328, Note_off_c, 1, 54, 0
1, 259328, Note_off_c, 1, 69, 0
1, 259328, Note_off_c, 1, 66, 0
1, 259328, Note_off_c, 1, 61, 0
1, 259328, Note_on_c, 1, 56, 127
1, 259456, Note_off_c, 1, 56, 0
1, 259584, Note_on_c, 1, 50, 127
1, 259584, Note_on_c, 1, 57, 127
1, 259840, Note_off_c, 1, 50, 0
1, 259840, Note_off_c, 1, 57, 0
1, 259840, Note_on_c, 1, 59, 127
1, 259968, Note_off_c, 1, 59, 0
1, 260096, Note_on_c, 1, 45, 127
1, 260096, Note_on_c, 1, 66, 127
1, 260096, Note_on_c, 1, 61, 127
1, 260096, Note_on_c, 1, 57, 127
1, 260352, Note_off_c, 1, 45, 0
1, 260352, Note_off_c, 1, 66, 0
1, 260352, Note_off_c, 1, 61, 0
1, 260352, Note_off_c, 1, 57, 0
1, 260608, Note_on_c, 1, 47, 127
1, 260608, Note_on_c, 1, 54, 127
1, 260864, Note_off_c, 1, 47, 0
1, 260864, Note_off_c, 1, 54, 0
1, 261120, Note_on_c, 1, 49, 127
1, 261120, Note_on_c, 1, 65, 127
1, 261120, Note_on_c, 1, 61, 127
1, 261120, Note_on_c, 1, 56, 127
1, 261376, Note_off_c, 1, 49, 0
1, 261376, Note_off_c, 1, 65, 0
1, 261376, Note_off_c, 1, 61, 0
1, 261376, Note_off_c, 1, 56, 0
1, 261376, Note_on_c, 1, 47, 127
1, 261632, Note_off_c, 1, 47, 0
1, 261632, Note_on_c, 1, 37, 127
1, 261888, Note_off_c, 1, 37, 0
1, 262144, Note_on_c, 1, 42, 127
1, 262144, Note_on_c, 1, 66, 127
1, 262144, Note_on_c, 1, 61, 127
1, 262144, Note_on_c, 1, 57, 127
1, 263168, Note_off_c, 1, 42, 0
1, 263168, Note_off_c, 1, 66, 0
1, 263168, Note_off_c, 1, 61, 0
1, 263168, Note_off_c, 1, 57, 0
1, 263680, Note_on_c, 1, 69, 127
1, 263680, Note_on_c, 1, 66, 127
1, 263680, Note_on_c, 1, 62, 127
1, 263680, Note_on_c, 1, 50, 127
1, 263680, Note_on_c, 1, 38, 127
1, 263936, Note_off_c, 1, 38, 0
1, 264192, Note_on_c, 1, 74, 127
1, 264192, Note_on_c, 1, 42, 127
1, 264192, Note_on_c, 1, 54, 127
1, 264448, Note_off_c, 1, 69, 0
1, 264448, Note_off_c, 1, 66, 0
1, 264448, Note_off_c, 1, 62, 0
1, 264448, Note_off_c, 1, 74, 0
1, 264448, Note_off_c, 1, 42, 0
1, 264448, Note_off_c, 1, 54, 0
1, 264704, Note_off_c, 1, 50, 0
1, 264704, Note_on_c, 1, 76, 127
1, 264704, Note_on_c, 1, 45, 127
1, 264704, Note_on_c, 1, 73, 127
1, 264704, Note_on_c, 1, 57, 127
1, 264704, Note_on_c, 1, 64, 127
1, 264960, Note_off_c, 1, 76, 0
1, 264960, Note_off_c, 1, 73, 0
1, 264960, Note_off_c, 1, 57, 0
1, 264960, Note_off_c, 1, 64, 0
1, 265216, Note_off_c, 1, 45, 0
1, 265216, Note_on_c, 1, 78, 127
1, 265472, Note_off_c, 1, 78, 0
1, 265728, Note_on_c, 1, 79, 127
1, 265728, Note_on_c, 1, 71, 127
1, 265899, Note_off_c, 1, 79, 0
1, 265899, Note_off_c, 1, 71, 0
1, 266069, Note_on_c, 1, 67, 127
1, 266240, Note_off_c, 1, 67, 0
1, 266752, Note_on_c, 1, 83, 127
1, 266752, Note_on_c, 1, 79, 127
1, 266752, Note_on_c, 1, 74, 127
1, 266752, Note_on_c, 1, 50, 127
1, 266752, Note_on_c, 1, 55, 127
1, 266752, Note_on_c, 1, 71, 127
1, 266752, Note_on_c, 1, 62, 127
1, 267008, Note_off_c, 1, 83, 0
1, 267008, Note_off_c, 1, 79, 0
1, 267008, Note_off_c, 1, 74, 0
1, 267008, Note_off_c, 1, 55, 0
1, 267008, Note_off_c, 1, 71, 0
1, 267008, Note_off_c, 1, 62, 0
1, 267264, Note_on_c, 1, 81, 127
1, 267264, Note_on_c, 1, 78, 127
1, 267264, Note_on_c, 1, 57, 127
1, 267264, Note_on_c, 1, 69, 127
1, 267520, Note_off_c, 1, 81, 0
1, 267520, Note_off_c, 1, 78, 0
1, 267520, Note_off_c, 1, 57, 0
1, 267520, Note_off_c, 1, 69, 0
1, 267776, Note_off_c, 1, 50, 0
1, 267776, Note_on_c, 1, 76, 127
1, 267776, Note_on_c, 1, 45, 127
1, 267776, Note_on_c, 1, 73, 127
1, 267776, Note_on_c, 1, 67, 127
1, 268032, Note_off_c, 1, 76, 0
1, 268032, Note_off_c, 1, 73, 0
1, 268032, Note_off_c, 1, 67, 0
1, 268288, Note_off_c, 1, 45, 0
1, 268288, Note_on_c, 1, 66, 127
1, 269210, Note_off_c, 1, 66, 0
1, 269312, Note_on_c, 1, 38, 127
1, 269568, Note_off_c, 1, 38, 0
1, 271872, Note_on_c, 1, 54, 127
1, 272128, Note_off_c, 1, 54, 0
1, 272384, Note_on_c, 1, 52, 127
1, 272640, Note_off_c, 1, 52, 0
1, 272896, Note_on_c, 1, 81, 127
1, 272896, Note_on_c, 1, 76, 127
1, 272896, Note_on_c, 1, 45, 127
1, 272896, Note_on_c, 1, 49, 127
1, 272896, Note_on_c, 1, 69, 127
1, 273152, Note_off_c, 1, 81, 0
1, 273152, Note_off_c, 1, 76, 0
1, 273152, Note_off_c, 1, 49, 0
1, 273152, Note_off_c, 1, 69, 0
1, 273408, Note_off_c, 1, 45, 0
1, 273408, Note_on_c, 1, 79, 127
1, 273408, Note_on_c, 1, 74, 127
1, 273408, Note_on_c, 1, 50, 127
1, 273664, Note_off_c, 1, 79, 0
1, 273664, Note_off_c, 1, 74, 0
1, 273664, Note_on_c, 1, 78, 127
1, 273920, Note_off_c, 1, 78, 0
1, 273920, Note_on_c, 1, 80, 127
1, 273920, Note_on_c, 1, 62, 127
1, 273920, Note_on_c, 1, 47, 127
1, 273920, Note_on_c, 1, 71, 127
1, 274176, Note_off_c, 1, 80, 0
1, 274176, Note_off_c, 1, 62, 0
1, 274176, Note_off_c, 1, 47, 0
1, 274176, Note_off_c, 1, 71, 0
1, 274432, Note_off_c, 1, 50, 0
1, 274432, Note_on_c, 1, 73, 127
1, 275712, Note_off_c, 1, 73, 0
1, 275968, Note_on_c, 1, 57, 127
1, 276224, Note_off_c, 1, 57, 0
1, 276224, Note_on_c, 1, 83, 127
1, 276224, Note_on_c, 1, 55, 127
1, 276480, Note_off_c, 1, 83, 0
1, 276480, Note_off_c, 1, 55, 0
1, 276480, Note_on_c, 1, 54, 127
1, 276736, Note_off_c, 1, 54, 0
1, 279040, Note_on_c, 1, 59, 127
1, 279296, Note_off_c, 1, 59, 0
1, 282112, Note_on_c, 1, 43, 127
1, 282112, Note_on_c, 1, 45, 127
1, 282368, Note_off_c, 1, 43, 0
1, 282624, Note_off_c, 1, 45, 0
1, 282624, Note_on_c, 1, 42, 127
1, 282624, Note_on_c, 1, 50, 127
1, 282880, Note_off_c, 1, 42, 0
1, 282880, Note_off_c, 1, 50, 0
1, 283136, Note_on_c, 1, 40, 127
1, 283136, Note_on_c, 1, 52, 127
1, 283392, Note_off_c, 1, 40, 0
1, 283392, Note_off_c, 1, 52, 0
1, 283648, Note_on_c, 1, 81, 127
1, 283648, Note_on_c, 1, 78, 127
1, 283648, Note_on_c, 1, 74, 127
1, 283648, Note_on_c, 1, 50, 127
1, 283648, Note_on_c, 1, 38, 127
1, 283648, Note_on_c, 1, 54, 127
1, 283904, Note_off_c, 1, 81, 0
1, 283904, Note_off_c, 1, 78, 0
1, 283904, Note_off_c, 1, 74, 0
1, 283904, Note_off_c, 1, 54, 0
1, 283904, Note_on_c, 1, 55, 127
1, 284160, Note_off_c, 1, 50, 0
1, 284160, Note_off_c, 1, 55, 0
1, 284160, Note_on_c, 1, 69, 127
1, 284160, Note_on_c, 1, 66, 127
1, 284160, Note_on_c, 1, 62, 127
1, 284416, Note_off_c, 1, 69, 0
1, 284416, Note_off_c, 1, 66, 0
1, 284416, Note_off_c, 1, 62, 0
1, 284416, Note_on_c, 1, 52, 127
1, 284672, Note_off_c, 1, 38, 0
1, 284672, Note_off_c, 1, 52, 0
1, 284672, Note_on_c, 1, 86, 127
1, 284928, Note_off_c, 1, 86, 0
1, 284928, Note_on_c, 1, 49, 127
1, 285184, Note_off_c, 1, 49, 0
1, 285184, Note_on_c, 1, 57, 127
1, 285696, Note_off_c, 1, 57, 0
1, 286208, Note_on_c, 1, 64, 127
1, 286464, Note_off_c, 1, 64, 0
1, 286976, Note_on_c, 1, 67, 127
1, 286976, Note_on_c, 1, 59, 127
1, 287232, Note_off_c, 1, 67, 0
1, 287232, Note_off_c, 1, 59, 0
1, 288000, Note_on_c, 1, 61, 127
1, 288256, Note_off_c, 1, 61, 0
1, 290304, Note_on_c, 1, 73, 127
1, 290560, Note_off_c, 1, 73, 0
1, 292352, Note_on_c, 1, 71, 127
1, 292608, Note_off_c, 1, 71, 0
1, 293376, Note_on_c, 1, 76, 127
1, 293632, Note_off_c, 1, 76, 0
1, 296704, Note_on_c, 1, 79, 127
1, 296960, Note_off_c, 1, 79, 0
1, 300544, Note_on_c, 1, 52, 127
1, 300544, Note_on_c, 1, 79, 127
1, 300544, Note_on_c, 1, 73, 127
1, 300544, Note_on_c, 1, 69, 127
1, 300544, Note_on_c, 1, 64, 127
1, 300800, Note_off_c, 1, 52, 0
1, 300800, Note_off_c, 1, 79, 0
1, 300800, Note_off_c, 1, 73, 0
1, 300800, Note_off_c, 1, 69, 0
1, 300800, Note_off_c, 1, 64, 0
1, 301056, Note_on_c, 1, 50, 127
1, 301056, Note_on_c, 1, 78, 127
1, 301056, Note_on_c, 1, 74, 127
1, 301056, Note_on_c, 1, 69, 127
1, 301056, Note_on_c, 1, 66, 127
1, 301312, Note_off_c, 1, 50, 0
1, 301312, Note_off_c, 1, 78, 0
1, 301312, Note_off_c, 1, 74, 0
1, 301312, Note_off_c, 1, 69, 0
1, 301312, Note_off_c, 1, 66, 0
1, 301568, Note_on_c, 1, 49, 127
1, 301568, Note_on_c, 1, 76, 127
1, 301568, Note_on_c, 1, 70, 127
1, 301568, Note_on_c, 1, 73, 127
1, 301568, Note_on_c, 1, 61, 127
1, 301824, Note_off_c, 1, 49, 0
1, 301824, Note_off_c, 1, 76, 0
1, 301824, Note_off_c, 1, 70, 0
1, 301824, Note_off_c, 1, 73, 0
1, 301824, Note_off_c, 1, 61, 0
1, 302080, Note_on_c, 1, 47, 127
1, 302080, Note_on_c, 1, 74, 127
1, 302080, Note_on_c, 1, 71, 127
1, 302080, Note_on_c, 1, 66, 127
1, 302080, Note_on_c, 1, 62, 127
1, 302080, Note_on_c, 1, 78, 127
1, 302336, Note_off_c, 1, 62, 0
1, 302336, Note_off_c, 1, 78, 0
1, 302592, Note_on_c, 1, 59, 127
1, 302848, Note_off_c, 1, 59, 0
1, 302848, Note_on_c, 1, 76, 127
1, 302848, Note_on_c, 1, 73, 127
1, 302848, Note_on_c, 1, 58, 127
1, 303002, Note_off_c, 1, 47, 0
1, 303104, Note_off_c, 1, 76, 0
1, 303104, Note_off_c, 1, 73, 0
1, 303104, Note_off_c, 1, 58, 0
1, 303104, Note_on_c, 1, 54, 127
1, 303104, Note_on_c, 1, 86, 127
1, 303360, Note_off_c, 1, 74, 0
1, 303360, Note_off_c, 1, 71, 0
1, 303360, Note_off_c, 1, 66, 0
1, 303360, Note_off_c, 1, 54, 0
1, 303360, Note_off_c, 1, 86, 0
1, 303616, Note_on_c, 1, 50, 127
1, 304128, Note_off_c, 1, 50, 0
1, 304128, Note_on_c, 1, 55, 127
1, 304128, Note_on_c, 1, 67, 127
1, 304128, Note_on_c, 1, 83, 127
1, 304384, Note_off_c, 1, 55, 0
1, 304384, Note_off_c, 1, 67, 0
1, 304384, Note_off_c, 1, 83, 0
1, 305152, Note_on_c, 1, 52, 127
1, 305152, Note_on_c, 1, 79, 127
1, 305152, Note_on_c, 1, 64, 127
1, 305408, Note_off_c, 1, 79, 0
1, 305664, Note_off_c, 1, 52, 0
1, 305664, Note_on_c, 1, 69, 127
1, 305920, Note_off_c, 1, 69, 0
1, 306176, Note_off_c, 1, 64, 0
1, 306176, Note_on_c, 1, 81, 127
1, 306432, Note_off_c, 1, 81, 0
1, 306688, Note_on_c, 1, 52, 127
1, 306688, Note_on_c, 1, 73, 127
1, 306688, Note_on_c, 1, 76, 127
1, 306688, Note_on_c, 1, 67, 127
1, 306688, Note_on_c, 1, 61, 127
1, 306944, Note_off_c, 1, 52, 0
1, 306944, Note_off_c, 1, 73, 0
1, 306944, Note_off_c, 1, 76, 0
1, 306944, Note_off_c, 1, 67, 0
1, 306944, Note_off_c, 1, 61, 0
1, 307200, Note_on_c, 1, 54, 127
1, 307200, Note_on_c, 1, 74, 127
1, 307200, Note_on_c, 1, 69, 127
1, 307200, Note_on_c, 1, 66, 127
1, 307200, Note_on_c, 1, 57, 127
1, 307456, Note_off_c, 1, 54, 0
1, 307456, Note_off_c, 1, 74, 0
1, 307456, Note_off_c, 1, 69, 0
1, 307456, Note_off_c, 1, 66, 0
1, 307456, Note_off_c, 1, 57, 0
1, 307712, Note_on_c, 1, 55, 127
1, 307712, Note_on_c, 1, 79, 127
1, 307712, Note_on_c, 1, 76, 127
1, 307712, Note_on_c, 1, 71, 127
1, 307712, Note_on_c, 1, 74, 127
1, 307712, Note_on_c, 1, 64, 127
1, 307968, Note_off_c, 1, 55, 0
1, 307968, Note_off_c, 1, 79, 0
1, 307968, Note_off_c, 1, 76, 0
1, 307968, Note_off_c, 1, 71, 0
1, 307968, Note_off_c, 1, 74, 0
1, 307968, Note_off_c, 1, 64, 0
1, 308224, Note_on_c, 1, 57, 127
1, 308224, Note_on_c, 1, 78, 127
1, 308224, Note_on_c, 1, 74, 127
1, 308224, Note_on_c, 1, 69, 127
1, 308224, Note_on_c, 1, 66, 127
1, 308480, Note_off_c, 1, 66, 0
1, 308480, Note_on_c, 1, 67, 127
1, 308736, Note_off_c, 1, 57, 0
1, 308736, Note_off_c, 1, 78, 0
1, 308736, Note_off_c, 1, 74, 0
1, 308736, Note_off_c, 1, 67, 0
1, 308736, Note_on_c, 1, 61, 127
1, 308736, Note_on_c, 1, 76, 127
1, 308736, Note_on_c, 1, 73, 127
1, 308736, Note_on_c, 1, 45, 127
1, 308992, Note_off_c, 1, 61, 0
1, 308992, Note_off_c, 1, 76, 0
1, 308992, Note_off_c, 1, 73, 0
1, 308992, Note_off_c, 1, 45, 0
1, 308992, Note_on_c, 1, 71, 127
1, 308992, Note_on_c, 1, 68, 127
1, 308992, Note_on_c, 1, 59, 127
1, 309248, Note_off_c, 1, 71, 0
1, 309248, Note_off_c, 1, 68, 0
1, 309248, Note_off_c, 1, 59, 0
1, 309504, Note_off_c, 1, 69, 0
1, 309760, Note_on_c, 1, 64, 127
1, 310272, Note_off_c, 1, 64, 0
1, 310272, Note_on_c, 1, 75, 127
1, 310528, Note_off_c, 1, 75, 0
1, 310784, Note_on_c, 1, 79, 127
1, 310784, Note_on_c, 1, 76, 127
1, 310784, Note_on_c, 1, 81, 127
1, 310784, Note_on_c, 1, 78, 127
1, 310784, Note_on_c, 1, 55, 127
1, 310784, Note_on_c, 1, 64, 127
1, 310784, Note_on_c, 1, 71, 127
1, 310784, Note_on_c, 1, 67, 127
1, 310912, Note_off_c, 1, 81, 0
1, 310912, Note_off_c, 1, 78, 0
1, 311040, Note_off_c, 1, 79, 0
1, 311040, Note_off_c, 1, 76, 0
1, 311040, Note_off_c, 1, 55, 0
1, 311040, Note_off_c, 1, 64, 0
1, 311040, Note_off_c, 1, 71, 0
1, 311040, Note_off_c, 1, 67, 0
1, 311296, Note_on_c, 1, 54, 127
1, 311296, Note_on_c, 1, 63, 127
1, 311296, Note_on_c, 1, 69, 127
1, 311808, Note_off_c, 1, 54, 0
1, 311808, Note_off_c, 1, 63, 0
1, 311808, Note_off_c, 1, 69, 0
1, 311808, Note_on_c, 1, 83, 127
1, 311808, Note_on_c, 1, 52, 127
1, 311979, Note_off_c, 1, 83, 0
1, 312064, Note_on_c, 1, 66, 127
1, 312320, Note_off_c, 1, 52, 0
1, 312320, Note_on_c, 1, 51, 127
1, 312320, Note_on_c, 1, 59, 127
1, 312832, Note_off_c, 1, 66, 0
1, 312832, Note_off_c, 1, 51, 0
1, 313344, Note_on_c, 1, 47, 127
1, 313856, Note_off_c, 1, 47, 0
1, 314624, Note_off_c, 1, 59, 0
1, 314880, Note_on_c, 1, 50, 127
1, 314880, Note_on_c, 1, 73, 127
1, 315136, Note_off_c, 1, 73, 0
1, 315136, Note_on_c, 1, 74, 127
1, 315392, Note_off_c, 1, 50, 0
1, 315392, Note_off_c, 1, 74, 0
1, 315392, Note_on_c, 1, 49, 127
1, 315904, Note_off_c, 1, 49, 0
1, 315904, Note_on_c, 1, 61, 127
1, 316416, Note_off_c, 1, 61, 0
1, 316416, Note_on_c, 1, 45, 127
1, 316928, Note_off_c, 1, 45, 0
1, 317440, Note_on_c, 1, 57, 127
1, 317952, Note_off_c, 1, 57, 0
1, 319488, Note_on_c, 1, 42, 127
1, 319488, Note_on_c, 1, 62, 127
1, 319744, Note_off_c, 1, 42, 0
1, 319744, Note_off_c, 1, 62, 0
1, 320512, Note_on_c, 1, 44, 127
1, 320512, Note_on_c, 1, 56, 127
1, 320768, Note_off_c, 1, 44, 0
1, 320768, Note_off_c, 1, 56, 0
1, 321536, Note_on_c, 1, 68, 127
1, 321792, Note_off_c, 1, 68, 0
1, 326656, Note_on_c, 1, 46, 127
1, 326656, Note_on_c, 1, 58, 127
1, 326912, Note_off_c, 1, 46, 0
1, 326912, Note_off_c, 1, 58, 0
1, 327680, Note_on_c, 1, 70, 127
1, 327936, Note_off_c, 1, 70, 0
1, 330240, Note_on_c, 1, 75, 127
1, 330496, Note_off_c, 1, 75, 0
1, 332800, Note_on_c, 1, 40, 127
1, 333056, Note_off_c, 1, 40, 0
1, 337408, Note_on_c, 1, 86, 127
1, 338432, Note_off_c, 1, 86, 0
1, 338432, Note_on_c, 1, 85, 127
1, 338944, Note_off_c, 1, 85, 0
1, 338944, Note_on_c, 1, 38, 127
1, 339968, Note_off_c, 1, 38, 0
1, 340480, Note_on_c, 1, 76, 127
1, 340480, Note_on_c, 1, 73, 127
1, 340480, Note_on_c, 1, 69, 127
1, 340736, Note_off_c, 1, 76, 0
1, 340736, Note_off_c, 1, 73, 0
1, 340736, Note_off_c, 1, 69, 0
1, 340736, Note_on_c, 1, 71, 127
1, 340992, Note_off_c, 1, 71, 0
1, 340992, Note_on_c, 1, 78, 127
1, 340992, Note_on_c, 1, 75, 127
1, 341248, Note_off_c, 1, 78, 0
1, 341248, Note_off_c, 1, 75, 0
1, 341504, Note_on_c, 1, 79, 127
1, 341504, Note_on_c, 1, 76, 127
1, 341504, Note_on_c, 1, 67, 127
1, 341760, Note_off_c, 1, 79, 0
1, 341760, Note_off_c, 1, 76, 0
1, 341760, Note_off_c, 1, 67, 0
1, 342016, Note_on_c, 1, 81, 127
1, 342016, Note_on_c, 1, 78, 127
1, 342016, Note_on_c, 1, 66, 127
1, 342272, Note_off_c, 1, 81, 0
1, 342272, Note_off_c, 1, 78, 0
1, 342272, Note_off_c, 1, 66, 0
1, 342528, Note_on_c, 1, 83, 127
1, 342528, Note_on_c, 1, 79, 127
1, 342528, Note_on_c, 1, 64, 127
1, 342699, Note_off_c, 1, 83, 0
1, 342699, Note_off_c, 1, 79, 0
1, 342699, Note_on_c, 1, 81, 127
1, 342699, Note_on_c, 1, 78, 127
1, 342784, Note_off_c, 1, 64, 0
1, 342869, Note_off_c, 1, 81, 0
1, 342869, Note_off_c, 1, 78, 0
1, 342869, Note_on_c, 1, 76, 127
1, 343040, Note_off_c, 1, 76, 0
1, 343040, Note_on_c, 1, 63, 127
1, 343296, Note_off_c, 1, 63, 0
1, 343552, Note_on_c, 1, 84, 127
1, 343552, Note_on_c, 1, 81, 127
1, 343552, Note_on_c, 1, 66, 127
1, 343808, Note_off_c, 1, 84, 0
1, 343808, Note_off_c, 1, 81, 0
1, 343808, Note_off_c, 1, 66, 0
1, 344064, Note_on_c, 1, 83, 127
1, 344064, Note_on_c, 1, 79, 127
1, 344064, Note_on_c, 1, 59, 127
1, 344320, Note_off_c, 1, 83, 0
1, 344320, Note_off_c, 1, 79, 0
1, 344320, Note_off_c, 1, 59, 0
1, 344576, Note_on_c, 1, 81, 127
1, 344576, Note_on_c, 1, 78, 127
1, 344576, Note_on_c, 1, 63, 127
1, 344832, Note_off_c, 1, 81, 0
1, 344832, Note_off_c, 1, 78, 0
1, 344832, Note_off_c, 1, 63, 0
1, 345088, Note_on_c, 1, 79, 127
1, 345088, Note_on_c, 1, 76, 127
1, 345088, Note_on_c, 1, 64, 127
1, 345344, Note_off_c, 1, 79, 0
1, 345344, Note_off_c, 1, 76, 0
1, 345344, Note_off_c, 1, 64, 0
1, 345600, Note_on_c, 1, 79, 127
1, 345600, Note_on_c, 1, 76, 127
1, 345600, Note_on_c, 1, 71, 127
1, 345856, Note_off_c, 1, 79, 0
1, 345856, Note_off_c, 1, 76, 0
1, 345856, Note_off_c, 1, 71, 0
1, 345856, Note_on_c, 1, 78, 127
1, 345856, Note_on_c, 1, 75, 127
1, 346112, Note_off_c, 1, 78, 0
1, 346112, Note_off_c, 1, 75, 0
1, 346112, Note_on_c, 1, 64, 127
1, 346368, Note_off_c, 1, 64, 0
1, 346624, Note_on_c, 1, 79, 127
1, 346624, Note_on_c, 1, 76, 127
1, 346624, Note_on_c, 1, 71, 127
1, 346880, Note_off_c, 1, 79, 0
1, 346880, Note_off_c, 1, 76, 0
1, 346880, Note_off_c, 1, 71, 0
1, 346880, Note_on_c, 1, 78, 127
1, 346880, Note_on_c, 1, 75, 127
1, 347136, Note_off_c, 1, 75, 0
1, 347136, Note_on_c, 1, 81, 127
1, 347136, Note_on_c, 1, 63, 127
1, 347392, Note_off_c, 1, 78, 0
1, 347392, Note_off_c, 1, 81, 0
1, 347392, Note_off_c, 1, 63, 0
1, 347648, Note_on_c, 1, 79, 127
1, 347648, Note_on_c, 1, 76, 127
1, 347648, Note_on_c, 1, 71, 127
1, 347904, Note_off_c, 1, 79, 0
1, 347904, Note_off_c, 1, 76, 0
1, 347904, Note_off_c, 1, 71, 0
1, 347904, Note_on_c, 1, 78, 127
1, 347904, Note_on_c, 1, 75, 127
1, 348160, Note_off_c, 1, 78, 0
1, 348160, Note_off_c, 1, 75, 0
1, 348160, Note_on_c, 1, 64, 127
1, 348416, Note_off_c, 1, 64, 0
1, 348672, Note_on_c, 1, 59, 127
1, 348672, Note_on_c, 1, 55, 127
1, 348672, Note_on_c, 1, 83, 127
1, 348928, Note_off_c, 1, 59, 0
1, 348928, Note_off_c, 1, 55, 0
1, 348928, Note_off_c, 1, 83, 0
1, 348928, Note_on_c, 1, 81, 127
1, 349184, Note_off_c, 1, 81, 0
1, 349696, Note_on_c, 1, 52, 127
1, 349696, Note_on_c, 1, 67, 127
1, 349952, Note_off_c, 1, 52, 0
1, 349952, Note_off_c, 1, 67, 0
1, 349952, Note_on_c, 1, 84, 127
1, 350208, Note_off_c, 1, 84, 0
1, 352000, Note_on_c, 1, 69, 127
1, 352256, Note_off_c, 1, 69, 0
1, 352768, Note_on_c, 1, 73, 127
1, 353024, Note_off_c, 1, 73, 0
1, 353024, Note_on_c, 1, 74, 127
1, 353280, Note_off_c, 1, 74, 0
1, 355328, Note_on_c, 1, 61, 127
1, 355584, Note_off_c, 1, 61, 0
1, 356352, Note_on_c, 1, 81, 127
1, 356352, Note_on_c, 1, 57, 127
1, 356352, Note_on_c, 1, 78, 127
1, 356608, Note_off_c, 1, 81, 0
1, 356608, Note_off_c, 1, 57, 0
1, 356608, Note_off_c, 1, 78, 0
1, 356864, Note_on_c, 1, 79, 127
1, 356864, Note_on_c, 1, 61, 127
1, 356864, Note_on_c, 1, 76, 127
1, 357120, Note_off_c, 1, 79, 0
1, 357120, Note_off_c, 1, 61, 0
1, 357120, Note_off_c, 1, 76, 0
1, 357376, Note_on_c, 1, 78, 127
1, 357376, Note_on_c, 1, 74, 127
1, 357376, Note_on_c, 1, 62, 127
1, 357632, Note_off_c, 1, 78, 0
1, 357632, Note_off_c, 1, 74, 0
1, 357632, Note_off_c, 1, 62, 0
1, 357888, Note_on_c, 1, 78, 127
1, 357888, Note_on_c, 1, 74, 127
1, 357888, Note_on_c, 1, 69, 127
1, 358144, Note_off_c, 1, 78, 0
1, 358144, Note_off_c, 1, 74, 0
1, 358144, Note_off_c, 1, 69, 0
1, 358144, Note_on_c, 1, 76, 127
1, 358144, Note_on_c, 1, 73, 127
1, 358400, Note_off_c, 1, 76, 0
1, 358400, Note_off_c, 1, 73, 0
1, 358400, Note_on_c, 1, 62, 127
1, 358656, Note_off_c, 1, 62, 0
1, 358912, Note_on_c, 1, 78, 127
1, 358912, Note_on_c, 1, 74, 127
1, 358912, Note_on_c, 1, 69, 127
1, 359168, Note_off_c, 1, 78, 0
1, 359168, Note_off_c, 1, 74, 0
1, 359168, Note_off_c, 1, 69, 0
1, 359168, Note_on_c, 1, 76, 127
1, 359168, Note_on_c, 1, 73, 127
1, 359424, Note_off_c, 1, 73, 0
1, 359424, Note_on_c, 1, 79, 127
1, 359424, Note_on_c, 1, 61, 127
1, 359680, Note_off_c, 1, 76, 0
1, 359680, Note_off_c, 1, 79, 0
1, 359680, Note_off_c, 1, 61, 0
1, 359936, Note_on_c, 1, 78, 127
1, 359936, Note_on_c, 1, 74, 127
1, 359936, Note_on_c, 1, 69, 127
1, 360192, Note_off_c, 1, 78, 0
1, 360192, Note_off_c, 1, 74, 0
1, 360192, Note_off_c, 1, 69, 0
1, 360192, Note_on_c, 1, 76, 127
1, 360192, Note_on_c, 1, 73, 127
1, 360448, Note_off_c, 1, 76, 0
1, 360448, Note_off_c, 1, 73, 0
1, 360448, Note_on_c, 1, 62, 127
1, 360704, Note_off_c, 1, 62, 0
1, 360960, Note_on_c, 1, 57, 127
1, 360960, Note_on_c, 1, 54, 127
1, 360960, Note_on_c, 1, 81, 127
1, 361216, Note_off_c, 1, 57, 0
1, 361216, Note_off_c, 1, 54, 0
1, 361216, Note_off_c, 1, 81, 0
1, 361216, Note_on_c, 1, 79, 127
1, 361472, Note_off_c, 1, 79, 0
1, 361984, Note_on_c, 1, 50, 127
1, 361984, Note_on_c, 1, 66, 127
1, 362240, Note_off_c, 1, 50, 0
1, 362240, Note_off_c, 1, 66, 0
1, 362240, Note_on_c, 1, 83, 127
1, 362496, Note_off_c, 1, 83, 0
1, 364288, Note_on_c, 1, 67, 127
1, 364544, Note_off_c, 1, 67, 0
1, 365056, Note_on_c, 1, 45, 127
1, 365312, Note_off_c, 1, 45, 0
1, 365568, Note_on_c, 1, 42, 127
1, 365824, Note_off_c, 1, 42, 0
1, 366592, Note_on_c, 1, 38, 127
1, 366848, Note_off_c, 1, 38, 0
1, 367104, Note_on_c, 1, 64, 127
1, 367360, Note_off_c, 1, 64, 0
1, 368128, Note_on_c, 1, 52, 127
1, 368128, Note_on_c, 1, 61, 127
1, 368384, Note_off_c, 1, 52, 0
1, 368384, Note_off_c, 1, 61, 0
1, 369152, Note_on_c, 1, 49, 127
1, 369408, Note_off_c, 1, 49, 0
1, 369664, Note_on_c, 1, 47, 127
1, 369664, Note_on_c, 1, 71, 127
1, 369920, Note_off_c, 1, 47, 0
1, 369920, Note_off_c, 1, 71, 0
1, 369920, Note_on_c, 1, 70, 127
1, 370176, Note_off_c, 1, 70, 0
1, 371200, Note_on_c, 1, 59, 127
1, 371456, Note_off_c, 1, 59, 0
1, 372224, Note_on_c, 1, 55, 127
1, 372480, Note_off_c, 1, 55, 0
1, 373248, Note_on_c, 1, 83, 127
1, 373248, Note_on_c, 1, 79, 127
1, 373248, Note_on_c, 1, 52, 127
1, 373419, Note_off_c, 1, 83, 0
1, 373419, Note_off_c, 1, 79, 0
1, 373419, Note_on_c, 1, 81, 127
1, 373419, Note_on_c, 1, 78, 127
1, 373504, Note_off_c, 1, 52, 0
1, 373589, Note_off_c, 1, 81, 0
1, 373589, Note_off_c, 1, 78, 0
1, 373589, Note_on_c, 1, 76, 127
1, 373760, Note_off_c, 1, 76, 0
1, 373760, Note_on_c, 1, 51, 127
1, 374016, Note_off_c, 1, 51, 0
1, 374272, Note_on_c, 1, 81, 127
1, 374272, Note_on_c, 1, 78, 127
1, 374272, Note_on_c, 1, 54, 127
1, 374528, Note_off_c, 1, 81, 0
1, 374528, Note_off_c, 1, 78, 0
1, 374528, Note_off_c, 1, 54, 0
1, 374528, Note_on_c, 1, 79, 127
1, 374528, Note_on_c, 1, 76, 127
1, 374784, Note_off_c, 1, 79, 0
1, 374784, Note_off_c, 1, 76, 0
1, 374784, Note_on_c, 1, 47, 127
1, 375040, Note_off_c, 1, 47, 0
1, 375296, Note_on_c, 1, 83, 127
1, 375296, Note_on_c, 1, 79, 127
1, 375296, Note_on_c, 1, 51, 127
1, 375296, Note_on_c, 1, 78, 127
1, 375296, Note_on_c, 1, 71, 127
1, 375552, Note_off_c, 1, 83, 0
1, 375552, Note_off_c, 1, 79, 0
1, 375552, Note_off_c, 1, 51, 0
1, 375552, Note_off_c, 1, 71, 0
1, 375552, Note_on_c, 1, 81, 127
1, 375808, Note_off_c, 1, 78, 0
1, 375808, Note_off_c, 1, 81, 0
1, 375808, Note_on_c, 1, 76, 127
1, 375808, Note_on_c, 1, 52, 127
1, 376064, Note_off_c, 1, 76, 0
1, 376064, Note_off_c, 1, 52, 0
1, 376320, Note_on_c, 1, 81, 127
1, 376320, Note_on_c, 1, 78, 127
1, 376320, Note_on_c, 1, 50, 127
1, 376491, Note_off_c, 1, 81, 0
1, 376491, Note_off_c, 1, 78, 0
1, 376491, Note_on_c, 1, 79, 127
1, 376491, Note_on_c, 1, 76, 127
1, 376576, Note_off_c, 1, 50, 0
1, 376661, Note_off_c, 1, 79, 0
1, 376661, Note_off_c, 1, 76, 0
1, 376661, Note_on_c, 1, 74, 127
1, 376832, Note_off_c, 1, 74, 0
1, 376832, Note_on_c, 1, 49, 127
1, 377088, Note_off_c, 1, 49, 0
1, 377344, Note_on_c, 1, 79, 127
1, 377344, Note_on_c, 1, 76, 127
1, 377344, Note_on_c, 1, 52, 127
1, 377600, Note_off_c, 1, 79, 0
1, 377600, Note_off_c, 1, 76, 0
1, 377600, Note_off_c, 1, 52, 0
1, 377600, Note_on_c, 1, 78, 127
1, 377600, Note_on_c, 1, 74, 127
1, 377856, Note_off_c, 1, 78, 0
1, 377856, Note_off_c, 1, 74, 0
1, 377856, Note_on_c, 1, 45, 127
1, 378112, Note_off_c, 1, 45, 0
1, 378368, Note_on_c, 1, 81, 127
1, 378368, Note_on_c, 1, 78, 127
1, 378368, Note_on_c, 1, 49, 127
1, 378368, Note_on_c, 1, 76, 127
1, 378368, Note_on_c, 1, 69, 127
1, 378624, Note_off_c, 1, 81, 0
1, 378624, Note_off_c, 1, 78, 0
1, 378624, Note_off_c, 1, 49, 0
1, 378624, Note_off_c, 1, 69, 0
1, 378624, Note_on_c, 1, 79, 127
1, 378880, Note_off_c, 1, 76, 0
1, 378880, Note_off_c, 1, 79, 0
1, 378880, Note_on_c, 1, 74, 127
1, 378880, Note_on_c, 1, 50, 127
1, 379136, Note_off_c, 1, 74, 0
1, 379136, Note_off_c, 1, 50, 0
1, 379392, Note_on_c, 1, 79, 127
1, 379392, Note_on_c, 1, 76, 127
1, 379392, Note_on_c, 1, 49, 127
1, 379563, Note_off_c, 1, 79, 0
1, 379563, Note_off_c, 1, 76, 0
1, 379563, Note_on_c, 1, 78, 127
1, 379563, Note_on_c, 1, 74, 127
1, 379648, Note_off_c, 1, 49, 0
1, 379733, Note_off_c, 1, 78, 0
1, 379733, Note_off_c, 1, 74, 0
1, 379733, Note_on_c, 1, 73, 127
1, 379904, Note_off_c, 1, 73, 0
1, 379904, Note_on_c, 1, 47, 127
1, 380160, Note_off_c, 1, 47, 0
1, 380416, Note_on_c, 1, 78, 127
1, 380416, Note_on_c, 1, 74, 127
1, 380416, Note_on_c, 1, 50, 127
1, 380672, Note_off_c, 1, 78, 0
1, 380672, Note_off_c, 1, 74, 0
1, 380672, Note_off_c, 1, 50, 0
1, 380672, Note_on_c, 1, 76, 127
1, 380672, Note_on_c, 1, 69, 127
1, 380672, Note_on_c, 1, 73, 127
1, 380928, Note_off_c, 1, 76, 0
1, 380928, Note_off_c, 1, 69, 0
1, 380928, Note_off_c, 1, 73, 0
1, 380928, Note_on_c, 1, 42, 127
1, 381184, Note_off_c, 1, 42, 0
1, 381440, Note_on_c, 1, 79, 127
1, 381440, Note_on_c, 1, 74, 127
1, 381440, Note_on_c, 1, 45, 127
1, 381440, Note_on_c, 1, 69, 127
1, 381696, Note_off_c, 1, 79, 0
1, 381696, Note_off_c, 1, 74, 0
1, 381696, Note_off_c, 1, 45, 0
1, 381696, Note_off_c, 1, 69, 0
1, 381696, Note_on_c, 1, 78, 127
1, 381952, Note_off_c, 1, 78, 0
1, 381952, Note_on_c, 1, 76, 127
1, 381952, Note_on_c, 1, 44, 127
1, 381952, Note_on_c, 1, 71, 127
1, 382208, Note_off_c, 1, 76, 0
1, 382208, Note_off_c, 1, 44, 0
1, 382208, Note_off_c, 1, 71, 0
1, 382464, Note_on_c, 1, 64, 127
1, 382464, Note_on_c, 1, 59, 127
1, 382464, Note_on_c, 1, 56, 127
1, 382720, Note_off_c, 1, 64, 0
1, 382720, Note_off_c, 1, 59, 0
1, 382720, Note_off_c, 1, 56, 0
1, 382976, Note_on_c, 1, 68, 127
1, 383232, Note_off_c, 1, 68, 0
1, 385536, Note_on_c, 1, 73, 127
1, 385792, Note_off_c, 1, 73, 0
1, 385792, Note_on_c, 1, 81, 127
1, 386048, Note_off_c, 1, 81, 0
1, 388096, Note_on_c, 1, 46, 127
1, 388352, Note_off_c, 1, 46, 0
1, 388608, Note_on_c, 1, 66, 127
1, 388608, Note_on_c, 1, 61, 127
1, 388608, Note_on_c, 1, 58, 127
1, 388864, Note_off_c, 1, 66, 0
1, 388864, Note_off_c, 1, 61, 0
1, 388864, Note_off_c, 1, 58, 0
1, 389120, Note_on_c, 1, 70, 127
1, 389376, Note_off_c, 1, 70, 0
1, 391168, Note_on_c, 1, 47, 127
1, 391424, Note_off_c, 1, 47, 0
1, 391680, Note_on_c, 1, 75, 127
1, 391936, Note_off_c, 1, 75, 0
1, 391936, Note_on_c, 1, 83, 127
1, 392192, Note_off_c, 1, 83, 0
1, 393216, Note_on_c, 1, 63, 127
1, 393472, Note_off_c, 1, 63, 0
1, 394240, Note_on_c, 1, 40, 127
1, 394496, Note_off_c, 1, 40, 0
1, 394752, Note_on_c, 1, 81, 127
1, 394752, Note_on_c, 1, 76, 127
1, 394752, Note_on_c, 1, 69, 127
1, 394752, Note_on_c, 1, 45, 127
1, 394752, Note_on_c, 1, 49, 127
1, 395008, Note_off_c, 1, 81, 0
1, 395008, Note_off_c, 1, 76, 0
1, 395008, Note_off_c, 1, 69, 0
1, 395008, Note_off_c, 1, 49, 0
1, 395008, Note_on_c, 1, 79, 127
1, 395264, Note_off_c, 1, 45, 0
1, 395264, Note_off_c, 1, 79, 0
1, 395264, Note_on_c, 1, 78, 127
1, 395264, Note_on_c, 1, 74, 127
1, 395264, Note_on_c, 1, 50, 127
1, 395520, Note_off_c, 1, 78, 0
1, 395520, Note_off_c, 1, 74, 0
1, 395776, Note_on_c, 1, 83, 127
1, 395776, Note_on_c, 1, 62, 127
1, 395776, Note_on_c, 1, 55, 127
1, 395776, Note_on_c, 1, 67, 127
1, 396032, Note_off_c, 1, 83, 0
1, 396032, Note_off_c, 1, 62, 0
1, 396032, Note_off_c, 1, 55, 0
1, 396032, Note_off_c, 1, 67, 0
1, 396288, Note_on_c, 1, 54, 127
1, 396544, Note_off_c, 1, 54, 0
1, 396800, Note_off_c, 1, 50, 0
1, 396800, Note_on_c, 1, 57, 127
1, 396800, Note_on_c, 1, 73, 127
1, 397056, Note_off_c, 1, 57, 0
1, 397056, Note_off_c, 1, 73, 0
1, 397312, Note_on_c, 1, 66, 127
1, 397312, Note_on_c, 1, 59, 127
1, 397568, Note_off_c, 1, 66, 0
1, 397568, Note_off_c, 1, 59, 0
1, 398848, Note_on_c, 1, 71, 127
1, 399104, Note_off_c, 1, 71, 0
1, 399360, Note_on_c, 1, 61, 127
1, 399616, Note_off_c, 1, 61, 0
1, 399872, Note_on_c, 1, 64, 127
1, 400128, Note_off_c, 1, 64, 0
1, 400384, Note_on_c, 1, 38, 127
1, 403456, Note_off_c, 1, 38, 0
1, 403456, End_track
0, 0, End_of_file