0, 0, Header, 1, 1, 480
1, 0, Start_track
1, 0, Title_t, "Test"
1, 0, Tempo, 500000
1, 0, Instrument_name_t, "Church Organ"
1, 1024, Note_on_c, 1, 66, 127
1, 1024, Note_on_c, 1, 78, 127
1, 1024, Note_on_c, 1, 50, 127
1, 1024, Note_on_c, 1, 74, 127
1, 1024, Note_on_c, 1, 69, 127
1, 1024, Note_on_c, 1, 62, 127
1, 1024, Note_on_c, 1, 81, 127
1, 1365, Note_off_c, 1, 66, 0
1, 1365, Note_on_c, 1, 67, 127
1, 1365, Note_on_c, 1, 79, 127
1, 1365, Note_on_c, 1, 76, 127
1, 1365, Note_on_c, 1, 64, 127
1, 1707, Note_off_c, 1, 67, 0
1, 1707, Note_off_c, 1, 79, 0
1, 1707, Note_off_c, 1, 76, 0
1, 1707, Note_off_c, 1, 64, 0
1, 1894, Note_off_c, 1, 62, 0
1, 2918, Note_off_c, 1, 50, 0
1, 2918, Note_off_c, 1, 81, 0
1, 3413, Note_off_c, 1, 69, 0
1, 3413, Note_on_c, 1, 73, 127
1, 3755, Note_off_c, 1, 78, 0
1, 3755, Note_off_c, 1, 73, 0
1, 4096, Note_off_c, 1, 74, 0
1, 4437, Note_on_c, 1, 71, 127
1, 4779, Note_off_c, 1, 71, 0
1, 8192, Note_on_c, 1, 72, 127
1, 9216, Note_off_c, 1, 72, 0
1, 9216, Note_on_c, 1, 83, 127
1, 9216, Note_on_c, 1, 59, 127
1, 9216, Note_on_c, 1, 86, 127
1, 9557, Note_off_c, 1, 59, 0
1, 9557, Note_on_c, 1, 84, 127
1, 9557, Note_on_c, 1, 60, 127
1, 9899, Note_off_c, 1, 84, 0
1, 9899, Note_off_c, 1, 60, 0
1, 11110, Note_off_c, 1, 83, 0
1, 11110, Note_off_c, 1, 86, 0
1, 17408, Note_on_c, 1, 57, 127
1, 17749, Note_off_c, 1, 57, 0
1, 18091, Note_on_c, 1, 61, 127
1, 18432, Note_off_c, 1, 61, 0
1, 19456, Note_on_c, 1, 68, 127
1, 19456, Note_on_c, 1, 56, 127
1, 20037, Note_off_c, 1, 68, 0
1, 20037, Note_off_c, 1, 56, 0
1, 20139, Note_on_c, 1, 80, 127
1, 20480, Note_off_c, 1, 80, 0
1, 20480, Note_on_c, 1, 49, 127
1, 21350, Note_off_c, 1, 49, 0
1, 21504, Note_on_c, 1, 54, 127
1, 22085, Note_off_c, 1, 54, 0
1, 22528, Note_on_c, 1, 52, 127
1, 23398, Note_off_c, 1, 52, 0
1, 23552, Note_on_c, 1, 85, 127
1, 23552, Note_on_c, 1, 45, 127
1, 24422, Note_off_c, 1, 85, 0
1, 25446, Note_off_c, 1, 45, 0
1, 45056, Note_on_c, 1, 47, 127
1, 45926, Note_off_c, 1, 47, 0
1, 46080, Note_on_c, 1, 88, 127
1, 46950, Note_off_c, 1, 88, 0
1, 72704, Note_on_c, 1, 58, 127
1, 73387, Note_on_c, 1, 70, 127
1, 73728, Note_off_c, 1, 70, 0
1, 73728, Note_on_c, 1, 46, 127
1, 74598, Note_off_c, 1, 58, 0
1, 74598, Note_off_c, 1, 46, 0
1, 78848, Note_on_c, 1, 55, 127
1, 79718, Note_off_c, 1, 55, 0
1, 79872, Note_on_c, 1, 43, 127
1, 80742, Note_off_c, 1, 43, 0
1, 81920, Note_on_c, 1, 42, 127
1, 82790, Note_off_c, 1, 42, 0
1, 88064, Note_on_c, 1, 40, 127
1, 88934, Note_off_c, 1, 40, 0
1, 89088, Note_on_c, 1, 63, 127
1, 89088, Note_on_c, 1, 51, 127
1, 90112, Note_on_c, 1, 39, 127
1, 90972, Note_off_c, 1, 63, 0
1, 90982, Note_off_c, 1, 51, 0
1, 90982, Note_off_c, 1, 39, 0
1, 93867, Note_on_c, 1, 82, 127
1, 94208, Note_off_c, 1, 82, 0
1, 94208, Note_on_c, 1, 38, 127
1, 95078, Note_off_c, 1, 38, 0
1, 139264, Note_on_c, 1, 44, 127
1, 140134, Note_off_c, 1, 44, 0
1, 146432, Note_on_c, 1, 65, 127
1, 146432, Note_on_c, 1, 53, 127
1, 147456, Note_on_c, 1, 41, 127
1, 148316, Note_off_c, 1, 65, 0
1, 148326, Note_off_c, 1, 53, 0
1, 148326, Note_off_c, 1, 41, 0
1, 148821, Note_on_c, 1, 77, 127
1, 149163, Note_off_c, 1, 77, 0
1, 155648, Note_on_c, 1, 37, 127
1, 156518, Note_off_c, 1, 37, 0
1, 183296, Note_on_c, 1, 33, 127
1, 183637, Note_off_c, 1, 33, 0
1, 183637, Note_on_c, 1, 35, 127
1, 183979, Note_off_c, 1, 35, 0
1, 195072, Note_on_c, 1, 66, 127
1, 195072, Note_on_c, 1, 57, 127
1, 195072, Note_on_c, 1, 62, 127
1, 195328, Note_off_c, 1, 66, 0
1, 195328, Note_off_c, 1, 57, 0
1, 195328, Note_off_c, 1, 62, 0
1, 195584, Note_on_c, 1, 50, 127
1, 195584, Note_on_c, 1, 66, 127
1, 195840, Note_off_c, 1, 50, 0
1, 195840, Note_off_c, 1, 66, 0
1, 195840, Note_on_c, 1, 52, 127
1, 196096, Note_off_c, 1, 52, 0
1, 196096, Note_on_c, 1, 54, 127
1, 196352, Note_off_c, 1, 54, 0
1, 196608, Note_on_c, 1, 55, 127
1, 196608, Note_on_c, 1, 59, 127
1, 196608, Note_on_c, 1, 62, 127
1, 196608, Note_on_c, 1, 67, 127
1, 196608, Note_on_c, 1, 71, 127
1, 196864, Note_off_c, 1, 55, 0
1, 196864, Note_off_c, 1, 62, 0
1, 196864, Note_off_c, 1, 67, 0
1, 196864, Note_off_c, 1, 71, 0
1, 197120, Note_on_c, 1, 43, 127
1, 197376, Note_off_c, 1, 59, 0
1, 197376, Note_off_c, 1, 43, 0
1, 197632, Note_on_c, 1, 61, 127
1, 197888, Note_off_c, 1, 61, 0
1, 197888, Note_on_c, 1, 62, 127
1, 198144, Note_off_c, 1, 62, 0
1, 198144, Note_on_c, 1, 64, 127
1, 198144, Note_on_c, 1, 55, 127
1, 198144, Note_on_c, 1, 59, 127
1, 198400, Note_off_c, 1, 64, 0
1, 198400, Note_off_c, 1, 55, 0
1, 198400, Note_off_c, 1, 59, 0
1, 198400, Note_on_c, 1, 66, 127
1, 198656, Note_off_c, 1, 66, 0
1, 198656, Note_on_c, 1, 52, 127
1, 198656, Note_on_c, 1, 67, 127
1, 198912, Note_off_c, 1, 52, 0
1, 198912, Note_off_c, 1, 67, 0
1, 198912, Note_on_c, 1, 54, 127
1, 199168, Note_off_c, 1, 54, 0
1, 199680, Note_on_c, 1, 57, 127
1, 199680, Note_on_c, 1, 73, 127
1, 199936, Note_off_c, 1, 57, 0
1, 199936, Note_off_c, 1, 73, 0
1, 200192, Note_on_c, 1, 54, 127
1, 200192, Note_on_c, 1, 59, 127
1, 200448, Note_off_c, 1, 54, 0
1, 200448, Note_off_c, 1, 59, 0
1, 200448, Note_on_c, 1, 57, 127
1, 200704, Note_off_c, 1, 57, 0
1, 200704, Note_on_c, 1, 62, 127
1, 200704, Note_on_c, 1, 66, 127
1, 200704, Note_on_c, 1, 74, 127
1, 200960, Note_off_c, 1, 66, 0
1, 200960, Note_off_c, 1, 74, 0
1, 201216, Note_on_c, 1, 55, 127
1, 201216, Note_on_c, 1, 64, 127
1, 201216, Note_on_c, 1, 71, 127
1, 201472, Note_off_c, 1, 62, 0
1, 201472, Note_off_c, 1, 55, 0
1, 201472, Note_off_c, 1, 71, 0
1, 201728, Note_on_c, 1, 61, 127
1, 201728, Note_on_c, 1, 69, 127
1, 201984, Note_off_c, 1, 64, 0
1, 201984, Note_off_c, 1, 69, 0
1, 202240, Note_on_c, 1, 45, 127
1, 202496, Note_off_c, 1, 61, 0
1, 202496, Note_off_c, 1, 45, 0
1, 202752, Note_on_c, 1, 50, 127
1, 203520, Note_on_c, 1, 67, 127
1, 203776, Note_off_c, 1, 50, 0
1, 203776, Note_off_c, 1, 67, 0
1, 207872, Note_on_c, 1, 73, 127
1, 208128, Note_off_c, 1, 73, 0
1, 210944, Note_on_c, 1, 68, 127
1, 211456, Note_on_c, 1, 52, 127
1, 211712, Note_off_c, 1, 68, 0
1, 211712, Note_off_c, 1, 52, 0
1, 212736, Note_on_c, 1, 47, 127
1, 212992, Note_off_c, 1, 47, 0
1, 212992, Note_on_c, 1, 49, 127
1, 213248, Note_off_c, 1, 49, 0
1, 213504, Note_on_c, 1, 78, 127
1, 213760, Note_off_c, 1, 78, 0
1, 215808, Note_on_c, 1, 72, 127
1, 215808, Note_on_c, 1, 51, 127
1, 216064, Note_off_c, 1, 72, 0
1, 216064, Note_off_c, 1, 51, 0
1, 216576, Note_on_c, 1, 76, 127
1, 216832, Note_off_c, 1, 76, 0
1, 217088, Note_on_c, 1, 79, 127
1, 217344, Note_off_c, 1, 79, 0
1, 221696, Note_on_c, 1, 62, 127
1, 221696, Note_on_c, 1, 38, 127
1, 221696, Note_on_c, 1, 78, 127
1, 221696, Note_on_c, 1, 66, 127
1, 221696, Note_on_c, 1, 57, 127
1, 221952, Note_off_c, 1, 62, 0
1, 221952, Note_off_c, 1, 38, 0
1, 221952, Note_off_c, 1, 78, 0
1, 221952, Note_off_c, 1, 66, 0
1, 221952, Note_off_c, 1, 57, 0
1, 221952, Note_on_c, 1, 79, 127
1, 221952, Note_on_c, 1, 59, 127
1, 222208, Note_off_c, 1, 79, 0
1, 222208, Note_off_c, 1, 59, 0
1, 222208, Note_on_c, 1, 69, 127
1, 222208, Note_on_c, 1, 50, 127
1, 222208, Note_on_c, 1, 61, 127
1, 222464, Note_off_c, 1, 69, 0
1, 222464, Note_off_c, 1, 61, 0
1, 222464, Note_on_c, 1, 67, 127
1, 222464, Note_on_c, 1, 76, 127
1, 222720, Note_off_c, 1, 67, 0
1, 222720, Note_off_c, 1, 76, 0
1, 222720, Note_on_c, 1, 74, 127
1, 222720, Note_on_c, 1, 71, 127
1, 222976, Note_off_c, 1, 50, 0
1, 222976, Note_off_c, 1, 74, 0
1, 222976, Note_off_c, 1, 71, 0
1, 222976, Note_on_c, 1, 64, 127
1, 222976, Note_on_c, 1, 73, 127
1, 223232, Note_off_c, 1, 64, 0
1, 223232, Note_off_c, 1, 73, 0
1, 223232, Note_on_c, 1, 54, 127
1, 223488, Note_off_c, 1, 54, 0
1, 224768, Note_on_c, 1, 52, 127
1, 225024, Note_off_c, 1, 52, 0
1, 226304, Note_on_c, 1, 45, 127
1, 226560, Note_off_c, 1, 45, 0
1, 227840, Note_on_c, 1, 68, 127
1, 228096, Note_off_c, 1, 68, 0
1, 230400, Note_on_c, 1, 85, 127
1, 230400, Note_on_c, 1, 81, 127
1, 230656, Note_off_c, 1, 85, 0
1, 230656, Note_off_c, 1, 81, 0
1, 233472, Note_on_c, 1, 86, 127
1, 233472, Note_on_c, 1, 47, 127
1, 233728, Note_off_c, 1, 86, 0
1, 234240, Note_off_c, 1, 47, 0
1, 234240, Note_on_c, 1, 72, 127
1, 234496, Note_off_c, 1, 72, 0
1, 234496, Note_on_c, 1, 49, 127
1, 234752, Note_off_c, 1, 49, 0
1, 235520, Note_on_c, 1, 55, 127
1, 235520, Note_on_c, 1, 83, 127
1, 235776, Note_off_c, 1, 55, 0
1, 235776, Note_off_c, 1, 83, 0
1, 247808, Note_on_c, 1, 67, 127
1, 247808, Note_on_c, 1, 52, 127
1, 247808, Note_on_c, 1, 71, 127
1, 247808, Note_on_c, 1, 64, 127
1, 247808, Note_on_c, 1, 79, 127
1, 247808, Note_on_c, 1, 76, 127
1, 248064, Note_off_c, 1, 67, 0
1, 248064, Note_off_c, 1, 52, 0
1, 248064, Note_off_c, 1, 71, 0
1, 248064, Note_off_c, 1, 64, 0
1, 248064, Note_off_c, 1, 79, 0
1, 248064, Note_off_c, 1, 76, 0
1, 248064, Note_on_c, 1, 54, 127
1, 248320, Note_off_c, 1, 54, 0
1, 248320, Note_on_c, 1, 55, 127
1, 248576, Note_off_c, 1, 55, 0
1, 248832, Note_on_c, 1, 59, 127
1, 249344, Note_on_c, 1, 63, 127
1, 249344, Note_on_c, 1, 75, 127
1, 249344, Note_on_c, 1, 66, 127
1, 249600, Note_off_c, 1, 59, 0
1, 249600, Note_off_c, 1, 63, 0
1, 249600, Note_off_c, 1, 75, 0
1, 249600, Note_off_c, 1, 66, 0
1, 249856, Note_on_c, 1, 69, 127
1, 250112, Note_off_c, 1, 69, 0
1, 251904, Note_on_c, 1, 47, 127
1, 252416, Note_off_c, 1, 47, 0
1, 253696, Note_on_c, 1, 61, 127
1, 253952, Note_off_c, 1, 61, 0
1, 253952, Note_on_c, 1, 78, 127
1, 254208, Note_off_c, 1, 78, 0
1, 255488, Note_on_c, 1, 59, 127
1, 255488, Note_on_c, 1, 40, 127
1, 255488, Note_on_c, 1, 79, 127
1, 255488, Note_on_c, 1, 71, 127
1, 255488, Note_on_c, 1, 64, 127
1, 255488, Note_on_c, 1, 76, 127
1, 255488, Note_on_c, 1, 67, 127
1, 255488, Note_on_c, 1, 52, 127
1, 255744, Note_off_c, 1, 59, 0
1, 255744, Note_off_c, 1, 40, 0
1, 255744, Note_off_c, 1, 79, 0
1, 255744, Note_off_c, 1, 71, 0
1, 255744, Note_off_c, 1, 64, 0
1, 255744, Note_off_c, 1, 76, 0
1, 255744, Note_off_c, 1, 67, 0
1, 255744, Note_off_c, 1, 52, 0
1, 255744, Note_on_c, 1, 42, 127
1, 255744, Note_on_c, 1, 54, 127
1, 256000, Note_off_c, 1, 42, 0
1, 256000, Note_off_c, 1, 54, 0
1, 256000, Note_on_c, 1, 43, 127
1, 256000, Note_on_c, 1, 55, 127
1, 256256, Note_off_c, 1, 43, 0
1, 256256, Note_off_c, 1, 55, 0
1, 256512, Note_on_c, 1, 45, 127
1, 256512, Note_on_c, 1, 73, 127
1, 256512, Note_on_c, 1, 61, 127
1, 256512, Note_on_c, 1, 57, 127
1, 256768, Note_off_c, 1, 45, 0
1, 256768, Note_off_c, 1, 61, 0
1, 256768, Note_off_c, 1, 57, 0
1, 257024, Note_on_c, 1, 66, 127
1, 257024, Note_on_c, 1, 78, 127
1, 257024, Note_on_c, 1, 69, 127
1, 257280, Note_off_c, 1, 73, 0
1, 257280, Note_off_c, 1, 66, 0
1, 257280, Note_off_c, 1, 78, 0
1, 257280, Note_off_c, 1, 69, 0
1, 257536, Note_on_c, 1, 72, 127
1, 257536, Note_on_c, 1, 81, 127
1, 257536, Note_on_c, 1, 63, 127
1, 257536, Note_on_c, 1, 75, 127
1, 257792, Note_off_c, 1, 63, 0
1, 257792, Note_off_c, 1, 75, 0
1, 258816, Note_off_c, 1, 72, 0
1, 258816, Note_off_c, 1, 81, 0
1, 259584, Note_on_c, 1, 47, 127
1, 259840, Note_off_c, 1, 47, 0
1, 260608, Note_on_c, 1, 48, 127
1, 260608, Note_on_c, 1, 60, 127
1, 260864, Note_off_c, 1, 48, 0
1, 260864, Note_off_c, 1, 60, 0
1, 261632, Note_on_c, 1, 83, 127
1, 261888, Note_off_c, 1, 83, 0
1, 262144, Note_on_c, 1, 35, 127
1, 262400, Note_off_c, 1, 35, 0
1, 263168, Note_on_c, 1, 64, 127
1, 263168, Note_on_c, 1, 79, 127
1, 263168, Note_on_c, 1, 71, 127
1, 263168, Note_on_c, 1, 67, 127
1, 263424, Note_off_c, 1, 64, 0
1, 263424, Note_off_c, 1, 71, 0
1, 263424, Note_off_c, 1, 67, 0
1, 263424, Note_on_c, 1, 66, 127
1, 263424, Note_on_c, 1, 69, 127
1, 263680, Note_off_c, 1, 66, 0
1, 263680, Note_off_c, 1, 69, 0
1, 263680, Note_on_c, 1, 76, 127
1, 263936, Note_off_c, 1, 76, 0
1, 264192, Note_on_c, 1, 45, 127
1, 264192, Note_on_c, 1, 73, 127
1, 264448, Note_off_c, 1, 79, 0
1, 264448, Note_off_c, 1, 45, 0
1, 264704, Note_on_c, 1, 61, 127
1, 264704, Note_on_c, 1, 57, 127
1, 264960, Note_off_c, 1, 61, 0
1, 264960, Note_off_c, 1, 57, 0
1, 264960, Note_on_c, 1, 62, 127
1, 264960, Note_on_c, 1, 59, 127
1, 265216, Note_off_c, 1, 62, 0
1, 265216, Note_off_c, 1, 59, 0
1, 265216, Note_on_c, 1, 81, 127
1, 265472, Note_off_c, 1, 81, 0
1, 265728, Note_on_c, 1, 38, 127
1, 265728, Note_on_c, 1, 78, 127
1, 265728, Note_on_c, 1, 74, 127
1, 265984, Note_off_c, 1, 73, 0
1, 265984, Note_off_c, 1, 38, 0
1, 265984, Note_off_c, 1, 74, 0
1, 266240, Note_on_c, 1, 54, 127
1, 266240, Note_on_c, 1, 50, 127
1, 266496, Note_off_c, 1, 54, 0
1, 266496, Note_off_c, 1, 50, 0
1, 266496, Note_on_c, 1, 55, 127
1, 266496, Note_on_c, 1, 52, 127
1, 266752, Note_off_c, 1, 55, 0
1, 266752, Note_off_c, 1, 52, 0
1, 267264, Note_on_c, 1, 43, 127
1, 267520, Note_off_c, 1, 78, 0
1, 267520, Note_off_c, 1, 43, 0
1, 268800, Note_on_c, 1, 37, 127
1, 269056, Note_off_c, 1, 37, 0
1, 270336, Note_on_c, 1, 42, 127
1, 270336, Note_on_c, 1, 70, 127
1, 270592, Note_off_c, 1, 42, 0
1, 270848, Note_on_c, 1, 58, 127
1, 271104, Note_off_c, 1, 58, 0
1, 271104, Note_on_c, 1, 68, 127
1, 271104, Note_on_c, 1, 56, 127
1, 271360, Note_off_c, 1, 68, 0
1, 271360, Note_off_c, 1, 56, 0
1, 271872, Note_off_c, 1, 70, 0
1, 271872, Note_on_c, 1, 47, 127
1, 272128, Note_off_c, 1, 47, 0
1, 272128, Note_on_c, 1, 46, 127
1, 272384, Note_off_c, 1, 46, 0
1, 272640, Note_on_c, 1, 49, 127
1, 272896, Note_off_c, 1, 49, 0
1, 280064, Note_on_c, 1, 59, 127
1, 280064, Note_on_c, 1, 78, 127
1, 280320, Note_off_c, 1, 59, 0
1, 280320, Note_off_c, 1, 78, 0
1, 280320, Note_on_c, 1, 61, 127
1, 280576, Note_off_c, 1, 61, 0
1, 280576, Note_on_c, 1, 62, 127
1, 280832, Note_off_c, 1, 62, 0
1, 281088, Note_on_c, 1, 66, 127
1, 281088, Note_on_c, 1, 54, 127
1, 281088, Note_on_c, 1, 58, 127
1, 281216, Note_on_c, 1, 79, 127
1, 281344, Note_off_c, 1, 66, 0
1, 281344, Note_off_c, 1, 54, 0
1, 281344, Note_off_c, 1, 58, 0
1, 281344, Note_off_c, 1, 79, 0
1, 281600, Note_on_c, 1, 73, 127
1, 281600, Note_on_c, 1, 70, 127
1, 281856, Note_off_c, 1, 73, 0
1, 281856, Note_off_c, 1, 70, 0
1, 281856, Note_on_c, 1, 74, 127
1, 281856, Note_on_c, 1, 71, 127
1, 282112, Note_off_c, 1, 74, 0
1, 282112, Note_off_c, 1, 71, 0
1, 282112, Note_on_c, 1, 76, 127
1, 282368, Note_off_c, 1, 76, 0
1, 284160, Note_on_c, 1, 42, 127
1, 284416, Note_off_c, 1, 42, 0
1, 285696, Note_on_c, 1, 82, 127
1, 285952, Note_off_c, 1, 82, 0
1, 286464, Note_on_c, 1, 56, 127
1, 286720, Note_off_c, 1, 56, 0
1, 287232, Note_on_c, 1, 47, 127
1, 287488, Note_off_c, 1, 47, 0
1, 287744, Note_on_c, 1, 83, 127
1, 288000, Note_off_c, 1, 83, 0
1, 288000, Note_on_c, 1, 64, 127
1, 288256, Note_off_c, 1, 64, 0
1, 288256, Note_on_c, 1, 81, 127
1, 288512, Note_off_c, 1, 81, 0
1, 288768, Note_on_c, 1, 69, 127
1, 288768, Note_on_c, 1, 49, 127
1, 289024, Note_off_c, 1, 69, 0
1, 289024, Note_off_c, 1, 49, 0
1, 289280, Note_on_c, 1, 57, 127
1, 289536, Note_off_c, 1, 57, 0
1, 289792, Note_on_c, 1, 67, 127
1, 290048, Note_off_c, 1, 67, 0
1, 290304, Note_on_c, 1, 50, 127
1, 290560, Note_off_c, 1, 50, 0
1, 291840, Note_on_c, 1, 45, 127
1, 292096, Note_off_c, 1, 45, 0
1, 293376, Note_on_c, 1, 85, 127
1, 293632, Note_off_c, 1, 85, 0
1, 294912, Note_on_c, 1, 86, 127
1, 295168, Note_off_c, 1, 86, 0
1, 296448, Note_on_c, 1, 43, 127
1, 296704, Note_off_c, 1, 43, 0
1, 297216, Note_on_c, 1, 72, 127
1, 297472, Note_off_c, 1, 72, 0
1, 297984, Note_on_c, 1, 40, 127
1, 298240, Note_off_c, 1, 40, 0
1, 298240, Note_on_c, 1, 38, 127
1, 298240, Note_on_c, 1, 84, 127
1, 298496, Note_off_c, 1, 38, 0
1, 298496, Note_off_c, 1, 84, 0
1, 298496, Note_on_c, 1, 52, 127
1, 298752, Note_off_c, 1, 52, 0
1, 299008, Note_on_c, 1, 55, 127
1, 299264, Note_off_c, 1, 55, 0
1, 309248, Note_on_c, 1, 68, 127
1, 309504, Note_off_c, 1, 68, 0
1, 311296, Note_on_c, 1, 80, 127
1, 311552, Note_off_c, 1, 80, 0
1, 322816, Note_on_c, 1, 60, 127
1, 323072, Note_off_c, 1, 60, 0
1, 326144, Note_on_c, 1, 88, 127
1, 326400, Note_off_c, 1, 88, 0
1, 330752, Note_on_c, 1, 67, 127
1, 330752, Note_on_c, 1, 55, 127
1, 330752, Note_on_c, 1, 76, 127
1, 330752, Note_on_c, 1, 71, 127
1, 330752, Note_on_c, 1, 59, 127
1, 330752, Note_on_c, 1, 62, 127
1, 331008, Note_off_c, 1, 67, 0
1, 331008, Note_off_c, 1, 76, 0
1, 331008, Note_off_c, 1, 71, 0
1, 331008, Note_off_c, 1, 59, 0
1, 331008, Note_off_c, 1, 62, 0
1, 331008, Note_on_c, 1, 69, 127
1, 331008, Note_on_c, 1, 78, 127
1, 331008, Note_on_c, 1, 73, 127
1, 331264, Note_off_c, 1, 69, 0
1, 331264, Note_off_c, 1, 78, 0
1, 331264, Note_off_c, 1, 73, 0
1, 331264, Note_on_c, 1, 79, 127
1, 331264, Note_on_c, 1, 74, 127
1, 331520, Note_off_c, 1, 79, 0
1, 331520, Note_off_c, 1, 74, 0
1, 331776, Note_on_c, 1, 64, 127
1, 331776, Note_on_c, 1, 81, 127
1, 331776, Note_on_c, 1, 57, 127
1, 332032, Note_off_c, 1, 55, 0
1, 332032, Note_off_c, 1, 64, 0
1, 332288, Note_off_c, 1, 81, 0
1, 332288, Note_on_c, 1, 54, 127
1, 332544, Note_off_c, 1, 54, 0
1, 332544, Note_on_c, 1, 66, 127
1, 332800, Note_off_c, 1, 66, 0
1, 332800, Note_on_c, 1, 52, 127
1, 333056, Note_off_c, 1, 52, 0
1, 333824, Note_off_c, 1, 57, 0
1, 333824, Note_on_c, 1, 50, 127
1, 334336, Note_off_c, 1, 50, 0
1, 334336, Note_on_c, 1, 72, 127
1, 334592, Note_off_c, 1, 72, 0
1, 335104, Note_on_c, 1, 61, 127
1, 335360, Note_off_c, 1, 61, 0
1, 338944, Note_on_c, 1, 49, 127
1, 339200, Note_off_c, 1, 49, 0
1, 342016, Note_on_c, 1, 47, 127
1, 342272, Note_off_c, 1, 47, 0
1, 342272, Note_on_c, 1, 83, 127
1, 342528, Note_off_c, 1, 83, 0
1, 343040, Note_on_c, 1, 45, 127
1, 343296, Note_off_c, 1, 45, 0
1, 345600, Note_on_c, 1, 85, 127
1, 345856, Note_off_c, 1, 85, 0
1, 345856, Note_on_c, 1, 86, 127
1, 346112, Note_off_c, 1, 86, 0
1, 356864, Note_on_c, 1, 56, 127
1, 356864, Note_on_c, 1, 68, 127
1, 357120, Note_off_c, 1, 56, 0
1, 357120, Note_off_c, 1, 68, 0
1, 357376, Note_on_c, 1, 80, 127
1, 357632, Note_off_c, 1, 80, 0
1, 358400, Note_on_c, 1, 58, 127
1, 358400, Note_on_c, 1, 70, 127
1, 358656, Note_off_c, 1, 58, 0
1, 358656, Note_off_c, 1, 70, 0
1, 358912, Note_on_c, 1, 82, 127
1, 359168, Note_off_c, 1, 82, 0
1, 360448, Note_on_c, 1, 43, 127
1, 360704, Note_off_c, 1, 43, 0
1, 360960, Note_on_c, 1, 88, 127
1, 361216, Note_off_c, 1, 88, 0
1, 377856, Note_on_c, 1, 38, 127
1, 379392, Note_off_c, 1, 38, 0
1, 379392, End_track
0, 0, End_of_file