0, 0, Header, 1, 1, 480
1, 0, Start_track
1, 0, Title_t, "Test"
1, 0, Tempo, 500000
1, 0, Instrument_name_t, "Church Organ"
1, 711, Note_on_c, 1, 64, 127
1, 807, Note_on_c, 1, 65, 127
1, 819, Note_off_c, 1, 64, 0
1, 912, Note_off_c, 1, 65, 0
1, 930, Note_on_c, 1, 67, 127
1, 1049, Note_off_c, 1, 67, 0
1, 1183, Note_on_c, 1, 72, 127
1, 1186, Note_on_c, 1, 55, 127
1, 1195, Note_on_c, 1, 48, 127
1, 1212, Note_on_c, 1, 64, 127
1, 1273, Note_off_c, 1, 55, 0
1, 1303, Note_off_c, 1, 64, 0
1, 1308, Note_on_c, 1, 65, 127
1, 1311, Note_on_c, 1, 50, 127
1, 1313, Note_off_c, 1, 48, 0
1, 1390, Note_off_c, 1, 65, 0
1, 1409, Note_off_c, 1, 50, 0
1, 1420, Note_on_c, 1, 60, 127
1, 1431, Note_on_c, 1, 52, 127
1, 1433, Note_on_c, 1, 67, 127
1, 1493, Note_off_c, 1, 72, 0
1, 1519, Note_off_c, 1, 67, 0
1, 1534, Note_off_c, 1, 52, 0
1, 1555, Note_off_c, 1, 60, 0
1, 1661, Note_on_c, 1, 67, 127
1, 1661, Note_on_c, 1, 62, 127
1, 1668, Note_on_c, 1, 59, 127
1, 1668, Note_on_c, 1, 55, 127
1, 1763, Note_off_c, 1, 55, 0
1, 1767, Note_off_c, 1, 59, 0
1, 1774, Note_off_c, 1, 67, 0
1, 1774, Note_off_c, 1, 62, 0
1, 1899, Note_on_c, 1, 64, 127
1, 1918, Note_on_c, 1, 60, 127
1, 2009, Note_on_c, 1, 62, 127
1, 2014, Note_on_c, 1, 59, 127
1, 2031, Note_off_c, 1, 60, 0
1, 2088, Note_off_c, 1, 64, 0
1, 2127, Note_on_c, 1, 67, 127
1, 2131, Note_off_c, 1, 59, 0
1, 2139, Note_off_c, 1, 62, 0
1, 2146, Note_on_c, 1, 55, 127
1, 2223, Note_off_c, 1, 67, 0
1, 2235, Note_on_c, 1, 65, 127
1, 2239, Note_off_c, 1, 55, 0
1, 2367, Note_off_c, 1, 65, 0
1, 2391, Note_on_c, 1, 48, 127
1, 2482, Note_off_c, 1, 48, 0
1, 2610, Note_on_c, 1, 69, 127
1, 2619, Note_on_c, 1, 53, 127
1, 2621, Note_on_c, 1, 60, 127
1, 2623, Note_on_c, 1, 65, 127
1, 2703, Note_off_c, 1, 65, 0
1, 2712, Note_off_c, 1, 53, 0
1, 2712, Note_on_c, 1, 71, 127
1, 2727, Note_off_c, 1, 60, 0
1, 2729, Note_off_c, 1, 69, 0
1, 2837, Note_on_c, 1, 72, 127
1, 2845, Note_off_c, 1, 71, 0
1, 2847, Note_on_c, 1, 52, 127
1, 2868, Note_on_c, 1, 67, 127
1, 2947, Note_off_c, 1, 72, 0
1, 2959, Note_on_c, 1, 74, 127
1, 2967, Note_off_c, 1, 67, 0
1, 2969, Note_off_c, 1, 52, 0
1, 3063, Note_on_c, 1, 76, 127
1, 3070, Note_off_c, 1, 74, 0
1, 3082, Note_on_c, 1, 50, 127
1, 3187, Note_off_c, 1, 76, 0
1, 3190, Note_off_c, 1, 50, 0
1, 3190, Note_on_c, 1, 77, 127
1, 3291, Note_off_c, 1, 77, 0
1, 3312, Note_on_c, 1, 52, 127
1, 3319, Note_on_c, 1, 64, 127
1, 3322, Note_on_c, 1, 79, 127
1, 3343, Note_on_c, 1, 72, 127
1, 3427, Note_off_c, 1, 72, 0
1, 3432, Note_off_c, 1, 64, 0
1, 3442, Note_off_c, 1, 52, 0
1, 3447, Note_off_c, 1, 79, 0
1, 3550, Note_on_c, 1, 60, 127
1, 3555, Note_on_c, 1, 53, 127
1, 3574, Note_on_c, 1, 72, 127
1, 3576, Note_on_c, 1, 81, 127
1, 3660, Note_off_c, 1, 60, 0
1, 3665, Note_off_c, 1, 72, 0
1, 3672, Note_off_c, 1, 53, 0
1, 3679, Note_off_c, 1, 81, 0
1, 3797, Note_on_c, 1, 67, 127
1, 3810, Note_on_c, 1, 55, 127
1, 3816, Note_on_c, 1, 74, 127
1, 3828, Note_on_c, 1, 71, 127
1, 3912, Note_off_c, 1, 67, 0
1, 3927, Note_on_c, 1, 72, 127
1, 3929, Note_off_c, 1, 71, 0
1, 3934, Note_off_c, 1, 74, 0
1, 3939, Note_off_c, 1, 55, 0
1, 4032, Note_off_c, 1, 72, 0
1, 4039, Note_on_c, 1, 74, 127
1, 4049, Note_on_c, 1, 57, 127
1, 4056, Note_on_c, 1, 66, 127
1, 4083, Note_on_c, 1, 72, 127
1, 4162, Note_off_c, 1, 66, 0
1, 4164, Note_off_c, 1, 74, 0
1, 4164, Note_on_c, 1, 76, 127
1, 4171, Note_off_c, 1, 57, 0
1, 4171, Note_off_c, 1, 72, 0
1, 4260, Note_off_c, 1, 76, 0
1, 4272, Note_on_c, 1, 59, 127
1, 4280, Note_on_c, 1, 67, 127
1, 4284, Note_on_c, 1, 74, 127
1, 4395, Note_off_c, 1, 67, 0
1, 4414, Note_off_c, 1, 59, 0
1, 4488, Note_off_c, 1, 74, 0
1, 4512, Note_on_c, 1, 67, 127
1, 4512, Note_on_c, 1, 60, 127
1, 4531, Note_on_c, 1, 76, 127
1, 4548, Note_on_c, 1, 72, 127
1, 4599, Note_off_c, 1, 67, 0
1, 4623, Note_on_c, 1, 69, 127
1, 4637, Note_off_c, 1, 72, 0
1, 4642, Note_off_c, 1, 76, 0
1, 4644, Note_off_c, 1, 60, 0
1, 4644, Note_on_c, 1, 78, 127
1, 4695, Note_off_c, 1, 69, 0
1, 4750, Note_on_c, 1, 71, 127
1, 4759, Note_off_c, 1, 78, 0
1, 4760, Note_on_c, 1, 59, 127
1, 4785, Note_on_c, 1, 79, 127
1, 4803, Note_on_c, 1, 74, 127
1, 4884, Note_off_c, 1, 59, 0
1, 4947, Note_off_c, 1, 79, 0
1, 4959, Note_off_c, 1, 71, 0
1, 4998, Note_on_c, 1, 57, 127
1, 5023, Note_off_c, 1, 74, 0
1, 5119, Note_off_c, 1, 57, 0
1, 5239, Note_on_c, 1, 55, 127
1, 5254, Note_on_c, 1, 74, 127
1, 5374, Note_off_c, 1, 55, 0
1, 5434, Note_off_c, 1, 74, 0
1, 5475, Note_on_c, 1, 54, 127
1, 5499, Note_on_c, 1, 67, 127
1, 5501, Note_on_c, 1, 76, 127
1, 5501, Note_on_c, 1, 59, 127
1, 5515, Note_on_c, 1, 74, 127
1, 5542, Note_off_c, 1, 74, 0
1, 5578, Note_off_c, 1, 67, 0
1, 5595, Note_off_c, 1, 59, 0
1, 5595, Note_on_c, 1, 69, 127
1, 5604, Note_off_c, 1, 54, 0
1, 5607, Note_off_c, 1, 76, 0
1, 5609, Note_on_c, 1, 78, 127
1, 5674, Note_off_c, 1, 69, 0
1, 5703, Note_off_c, 1, 78, 0
1, 5727, Note_on_c, 1, 71, 127
1, 5727, Note_on_c, 1, 52, 127
1, 5746, Note_on_c, 1, 79, 127
1, 5748, Note_on_c, 1, 64, 127
1, 5866, Note_off_c, 1, 52, 0
1, 5895, Note_off_c, 1, 79, 0
1, 5952, Note_off_c, 1, 64, 0
1, 5952, Note_on_c, 1, 50, 127
1, 5955, Note_off_c, 1, 71, 0
1, 5971, Note_on_c, 1, 69, 127
1, 6067, Note_off_c, 1, 69, 0
1, 6110, Note_off_c, 1, 50, 0
1, 6195, Note_on_c, 1, 52, 127
1, 6216, Note_on_c, 1, 72, 127
1, 6353, Note_off_c, 1, 72, 0
1, 6360, Note_off_c, 1, 52, 0
1, 6447, Note_on_c, 1, 54, 127
1, 6461, Note_on_c, 1, 69, 127
1, 6461, Note_on_c, 1, 57, 127
1, 6475, Note_on_c, 1, 74, 127
1, 6550, Note_off_c, 1, 69, 0
1, 6555, Note_off_c, 1, 57, 0
1, 6571, Note_off_c, 1, 74, 0
1, 6579, Note_off_c, 1, 54, 0
1, 6696, Note_on_c, 1, 55, 127
1, 6699, Note_on_c, 1, 67, 127
1, 6715, Note_on_c, 1, 62, 127
1, 6718, Note_on_c, 1, 71, 127
1, 6797, Note_off_c, 1, 67, 0
1, 6816, Note_off_c, 1, 55, 0
1, 6826, Note_off_c, 1, 62, 0
1, 6940, Note_on_c, 1, 64, 127
1, 6943, Note_on_c, 1, 48, 127
1, 7013, Note_off_c, 1, 71, 0
1, 7044, Note_on_c, 1, 69, 127
1, 7051, Note_off_c, 1, 64, 0
1, 7059, Note_off_c, 1, 48, 0
1, 7126, Note_off_c, 1, 69, 0
1, 7157, Note_on_c, 1, 71, 127
1, 7174, Note_on_c, 1, 67, 127
1, 7188, Note_on_c, 1, 62, 127
1, 7188, Note_on_c, 1, 50, 127
1, 7212, Note_on_c, 1, 69, 127
1, 7241, Note_off_c, 1, 71, 0
1, 7263, Note_off_c, 1, 67, 0
1, 7270, Note_off_c, 1, 62, 0
1, 7289, Note_on_c, 1, 72, 127
1, 7296, Note_off_c, 1, 50, 0
1, 7301, Note_off_c, 1, 69, 0
1, 7303, Note_off_c, 1, 72, 0
1, 7404, Note_on_c, 1, 66, 127
1, 7419, Note_on_c, 1, 60, 127
1, 7423, Note_on_c, 1, 38, 127
1, 7491, Note_off_c, 1, 66, 0
1, 7507, Note_off_c, 1, 60, 0
1, 7517, Note_off_c, 1, 38, 0
1, 7522, Note_on_c, 1, 67, 127
1, 7611, Note_off_c, 1, 67, 0
1, 7638, Note_on_c, 1, 67, 127
1, 7663, Note_on_c, 1, 62, 127
1, 7671, Note_on_c, 1, 59, 127
1, 7680, Note_on_c, 1, 43, 127
1, 7782, Note_off_c, 1, 43, 0
1, 7897, Note_on_c, 1, 50, 127
1, 7985, Note_off_c, 1, 50, 0
1, 8153, Note_on_c, 1, 55, 127
1, 8155, Note_off_c, 1, 62, 0
1, 8158, Note_off_c, 1, 67, 0
1, 8165, Note_off_c, 1, 59, 0
1, 8379, Note_on_c, 1, 64, 127
1, 8387, Note_off_c, 1, 55, 0
1, 8472, Note_on_c, 1, 65, 127
1, 8485, Note_off_c, 1, 64, 0
1, 8592, Note_off_c, 1, 65, 0
1, 8604, Note_on_c, 1, 67, 127
1, 8703, Note_off_c, 1, 67, 0
1, 8856, Note_on_c, 1, 72, 127
1, 8863, Note_on_c, 1, 55, 127
1, 8868, Note_on_c, 1, 64, 127
1, 8871, Note_on_c, 1, 48, 127
1, 8948, Note_on_c, 1, 50, 127
1, 8950, Note_off_c, 1, 64, 0
1, 8964, Note_off_c, 1, 55, 0
1, 8976, Note_on_c, 1, 65, 127
1, 8979, Note_off_c, 1, 48, 0
1, 9060, Note_off_c, 1, 65, 0
1, 9084, Note_on_c, 1, 52, 127
1, 9091, Note_off_c, 1, 50, 0
1, 9091, Note_on_c, 1, 67, 127
1, 9099, Note_on_c, 1, 60, 127
1, 9161, Note_off_c, 1, 72, 0
1, 9183, Note_off_c, 1, 67, 0
1, 9228, Note_off_c, 1, 60, 0
1, 9235, Note_off_c, 1, 52, 0
1, 9334, Note_on_c, 1, 59, 127
1, 9336, Note_on_c, 1, 62, 127
1, 9339, Note_on_c, 1, 67, 127
1, 9343, Note_on_c, 1, 55, 127
1, 9435, Note_off_c, 1, 67, 0
1, 9439, Note_off_c, 1, 62, 0
1, 9442, Note_off_c, 1, 59, 0
1, 9461, Note_off_c, 1, 55, 0
1, 9581, Note_on_c, 1, 64, 127
1, 9583, Note_on_c, 1, 60, 127
1, 9685, Note_on_c, 1, 62, 127
1, 9699, Note_on_c, 1, 59, 127
1, 9725, Note_off_c, 1, 60, 0
1, 9778, Note_off_c, 1, 64, 0
1, 9804, Note_off_c, 1, 59, 0
1, 9819, Note_on_c, 1, 67, 127
1, 9828, Note_off_c, 1, 62, 0
1, 9843, Note_on_c, 1, 55, 127
1, 9898, Note_on_c, 1, 65, 127
1, 9919, Note_off_c, 1, 67, 0
1, 9946, Note_off_c, 1, 55, 0
1, 10068, Note_off_c, 1, 65, 0
1, 10078, Note_on_c, 1, 48, 127
1, 10188, Note_off_c, 1, 48, 0
1, 10272, Note_on_c, 1, 69, 127
1, 10301, Note_on_c, 1, 65, 127
1, 10301, Note_on_c, 1, 60, 127
1, 10315, Note_on_c, 1, 53, 127
1, 10383, Note_on_c, 1, 71, 127
1, 10392, Note_off_c, 1, 60, 0
1, 10411, Note_off_c, 1, 69, 0
1, 10414, Note_off_c, 1, 65, 0
1, 10423, Note_off_c, 1, 53, 0
1, 10510, Note_on_c, 1, 72, 127
1, 10519, Note_on_c, 1, 67, 127
1, 10536, Note_off_c, 1, 71, 0
1, 10558, Note_on_c, 1, 52, 127
1, 10639, Note_on_c, 1, 74, 127
1, 10644, Note_off_c, 1, 72, 0
1, 10654, Note_off_c, 1, 67, 0
1, 10685, Note_off_c, 1, 52, 0
1, 10752, Note_on_c, 1, 76, 127
1, 10776, Note_on_c, 1, 50, 127
1, 10793, Note_off_c, 1, 74, 0
1, 10879, Note_on_c, 1, 77, 127
1, 10911, Note_off_c, 1, 76, 0
1, 10918, Note_off_c, 1, 50, 0
1, 11004, Note_off_c, 1, 77, 0
1, 11007, Note_on_c, 1, 72, 127
1, 11007, Note_on_c, 1, 64, 127
1, 11009, Note_on_c, 1, 52, 127
1, 11014, Note_on_c, 1, 79, 127
1, 11100, Note_off_c, 1, 64, 0
1, 11119, Note_off_c, 1, 72, 0
1, 11122, Note_off_c, 1, 52, 0
1, 11153, Note_off_c, 1, 79, 0
1, 11239, Note_on_c, 1, 53, 127
1, 11245, Note_on_c, 1, 60, 127
1, 11249, Note_on_c, 1, 72, 127
1, 11256, Note_on_c, 1, 81, 127
1, 11347, Note_off_c, 1, 60, 0
1, 11359, Note_off_c, 1, 72, 0
1, 11359, Note_off_c, 1, 81, 0
1, 11367, Note_off_c, 1, 53, 0
1, 11494, Note_on_c, 1, 74, 127
1, 11494, Note_on_c, 1, 55, 127
1, 11496, Note_on_c, 1, 71, 127
1, 11501, Note_on_c, 1, 67, 127
1, 11609, Note_off_c, 1, 67, 0
1, 11609, Note_on_c, 1, 72, 127
1, 11628, Note_off_c, 1, 55, 0
1, 11638, Note_off_c, 1, 71, 0
1, 11643, Note_off_c, 1, 74, 0
1, 11729, Note_on_c, 1, 57, 127
1, 11748, Note_on_c, 1, 66, 127
1, 11844, Note_on_c, 1, 76, 127
1, 11850, Note_off_c, 1, 72, 0
1, 11856, Note_off_c, 1, 66, 0
1, 11871, Note_off_c, 1, 57, 0
1, 11938, Note_off_c, 1, 76, 0
1, 11950, Note_on_c, 1, 59, 127
1, 11971, Note_on_c, 1, 74, 127
1, 11980, Note_on_c, 1, 67, 127
1, 12087, Note_off_c, 1, 67, 0
1, 12101, Note_off_c, 1, 59, 0
1, 12190, Note_off_c, 1, 74, 0
1, 12199, Note_on_c, 1, 60, 127
1, 12209, Note_on_c, 1, 72, 127
1, 12211, Note_on_c, 1, 67, 127
1, 12214, Note_on_c, 1, 76, 127
1, 12293, Note_off_c, 1, 67, 0
1, 12312, Note_off_c, 1, 72, 0
1, 12312, Note_on_c, 1, 69, 127
1, 12323, Note_on_c, 1, 78, 127
1, 12331, Note_off_c, 1, 60, 0
1, 12339, Note_off_c, 1, 76, 0
1, 12389, Note_off_c, 1, 69, 0
1, 12442, Note_on_c, 1, 71, 127
1, 12447, Note_on_c, 1, 59, 127
1, 12456, Note_off_c, 1, 78, 0
1, 12456, Note_on_c, 1, 74, 127
1, 12463, Note_on_c, 1, 79, 127
1, 12571, Note_off_c, 1, 59, 0
1, 12636, Note_off_c, 1, 79, 0
1, 12655, Note_off_c, 1, 74, 0
1, 12667, Note_off_c, 1, 71, 0
1, 12679, Note_on_c, 1, 57, 127
1, 12691, Note_on_c, 1, 71, 127
1, 12797, Note_off_c, 1, 71, 0
1, 12797, Note_on_c, 1, 72, 127
1, 12802, Note_off_c, 1, 57, 0
1, 12903, Note_off_c, 1, 72, 0
1, 12922, Note_on_c, 1, 55, 127
1, 12934, Note_on_c, 1, 74, 127
1, 13059, Note_off_c, 1, 55, 0
1, 13080, Note_off_c, 1, 74, 0
1, 13159, Note_on_c, 1, 54, 127
1, 13176, Note_on_c, 1, 76, 127
1, 13176, Note_on_c, 1, 67, 127
1, 13181, Note_on_c, 1, 59, 127
1, 13266, Note_off_c, 1, 59, 0
1, 13270, Note_off_c, 1, 67, 0
1, 13270, Note_on_c, 1, 69, 127
1, 13282, Note_off_c, 1, 76, 0
1, 13284, Note_on_c, 1, 78, 127
1, 13289, Note_off_c, 1, 54, 0
1, 13354, Note_off_c, 1, 69, 0
1, 13387, Note_off_c, 1, 78, 0
1, 13397, Note_on_c, 1, 71, 127
1, 13411, Note_on_c, 1, 52, 127
1, 13419, Note_on_c, 1, 79, 127
1, 13440, Note_on_c, 1, 64, 127
1, 13558, Note_off_c, 1, 52, 0
1, 13570, Note_off_c, 1, 79, 0
1, 13615, Note_off_c, 1, 71, 0
1, 13637, Note_on_c, 1, 50, 127
1, 13642, Note_on_c, 1, 69, 127
1, 13666, Note_off_c, 1, 64, 0
1, 13757, Note_off_c, 1, 69, 0
1, 13774, Note_off_c, 1, 50, 0
1, 13882, Note_on_c, 1, 52, 127
1, 13896, Note_on_c, 1, 72, 127
1, 14014, Note_off_c, 1, 72, 0
1, 14028, Note_off_c, 1, 52, 0
1, 14127, Note_on_c, 1, 54, 127
1, 14132, Note_on_c, 1, 69, 127
1, 14139, Note_on_c, 1, 57, 127
1, 14151, Note_on_c, 1, 74, 127
1, 14230, Note_off_c, 1, 57, 0
1, 14239, Note_off_c, 1, 69, 0
1, 14249, Note_off_c, 1, 54, 0
1, 14249, Note_off_c, 1, 74, 0
1, 14371, Note_on_c, 1, 55, 127
1, 14386, Note_on_c, 1, 67, 127
1, 14393, Note_on_c, 1, 71, 127
1, 14400, Note_on_c, 1, 62, 127
1, 14499, Note_off_c, 1, 67, 0
1, 14506, Note_off_c, 1, 55, 0
1, 14506, Note_off_c, 1, 62, 0
1, 14616, Note_on_c, 1, 48, 127
1, 14635, Note_on_c, 1, 64, 127
1, 14686, Note_off_c, 1, 71, 0
1, 14707, Note_on_c, 1, 69, 127
1, 14741, Note_off_c, 1, 48, 0
1, 14741, Note_off_c, 1, 64, 0
1, 14820, Note_off_c, 1, 69, 0
1, 14830, Note_on_c, 1, 71, 127
1, 14854, Note_on_c, 1, 50, 127
1, 14868, Note_on_c, 1, 67, 127
1, 14878, Note_on_c, 1, 62, 127
1, 14899, Note_on_c, 1, 69, 127
1, 14923, Note_off_c, 1, 71, 0
1, 14955, Note_off_c, 1, 50, 0
1, 14959, Note_off_c, 1, 62, 0
1, 14962, Note_off_c, 1, 67, 0
1, 14995, Note_off_c, 1, 69, 0
1, 15094, Note_on_c, 1, 38, 127
1, 15101, Note_on_c, 1, 66, 127
1, 15115, Note_on_c, 1, 60, 127
1, 15187, Note_off_c, 1, 66, 0
1, 15197, Note_off_c, 1, 38, 0
1, 15204, Note_off_c, 1, 60, 0
1, 15324, Note_on_c, 1, 67, 127
1, 15343, Note_on_c, 1, 62, 127
1, 15367, Note_on_c, 1, 43, 127
1, 15372, Note_on_c, 1, 59, 127
1, 15468, Note_off_c, 1, 43, 0
1, 15564, Note_on_c, 1, 50, 127
1, 15653, Note_off_c, 1, 50, 0
1, 15804, Note_off_c, 1, 67, 0
1, 15811, Note_off_c, 1, 59, 0
1, 15826, Note_on_c, 1, 55, 127
1, 15857, Note_off_c, 1, 62, 0
1, 16054, Note_off_c, 1, 55, 0
1, 16078, Note_on_c, 1, 71, 127
1, 16174, Note_on_c, 1, 72, 127
1, 16194, Note_off_c, 1, 71, 0
1, 16290, Note_off_c, 1, 72, 0
1, 16319, Note_on_c, 1, 74, 127
1, 16417, Note_off_c, 1, 74, 0
1, 16544, Note_on_c, 1, 55, 127
1, 16556, Note_on_c, 1, 71, 127
1, 16556, Note_on_c, 1, 79, 127
1, 16569, Note_on_c, 1, 74, 127
1, 16640, Note_off_c, 1, 71, 0
1, 16652, Note_off_c, 1, 55, 0
1, 16652, Note_on_c, 1, 53, 127
1, 16655, Note_on_c, 1, 69, 127
1, 16670, Note_off_c, 1, 74, 0
1, 16765, Note_off_c, 1, 53, 0
1, 16775, Note_on_c, 1, 52, 127
1, 16776, Note_off_c, 1, 69, 0
1, 16782, Note_on_c, 1, 67, 127
1, 16808, Note_on_c, 1, 73, 127
1, 16880, Note_off_c, 1, 52, 0
1, 16896, Note_off_c, 1, 79, 0
1, 16912, Note_off_c, 1, 67, 0
1, 16931, Note_off_c, 1, 73, 0
1, 17015, Note_on_c, 1, 65, 127
1, 17029, Note_on_c, 1, 55, 127
1, 17036, Note_on_c, 1, 74, 127
1, 17044, Note_on_c, 1, 82, 127
1, 17120, Note_off_c, 1, 65, 0
1, 17120, Note_off_c, 1, 74, 0
1, 17137, Note_off_c, 1, 55, 0
1, 17147, Note_off_c, 1, 82, 0
1, 17257, Note_on_c, 1, 64, 127
1, 17264, Note_on_c, 1, 69, 127
1, 17281, Note_on_c, 1, 57, 127
1, 17286, Note_on_c, 1, 73, 127
1, 17372, Note_off_c, 1, 64, 0
1, 17380, Note_on_c, 1, 62, 127
1, 17382, Note_on_c, 1, 67, 127
1, 17392, Note_off_c, 1, 69, 0
1, 17394, Note_on_c, 1, 71, 127
1, 17401, Note_off_c, 1, 57, 0
1, 17431, Note_off_c, 1, 73, 0
1, 17488, Note_off_c, 1, 67, 0
1, 17509, Note_off_c, 1, 62, 0
1, 17521, Note_on_c, 1, 45, 127
1, 17561, Note_off_c, 1, 71, 0
1, 17586, Note_on_c, 1, 65, 127
1, 17629, Note_on_c, 1, 74, 127
1, 17644, Note_off_c, 1, 45, 0
1, 17704, Note_off_c, 1, 65, 0
1, 17758, Note_on_c, 1, 76, 127
1, 17783, Note_off_c, 1, 74, 0
1, 17912, Note_off_c, 1, 76, 0
1, 17972, Note_on_c, 1, 74, 127
1, 17977, Note_on_c, 1, 55, 127
1, 17982, Note_on_c, 1, 77, 127
1, 17982, Note_on_c, 1, 57, 127
1, 18080, Note_on_c, 1, 76, 127
1, 18088, Note_off_c, 1, 74, 0
1, 18095, Note_off_c, 1, 55, 0
1, 18095, Note_off_c, 1, 57, 0
1, 18098, Note_on_c, 1, 79, 127
1, 18118, Note_off_c, 1, 77, 0
1, 18174, Note_off_c, 1, 76, 0
1, 18216, Note_off_c, 1, 79, 0
1, 18229, Note_on_c, 1, 53, 127
1, 18232, Note_on_c, 1, 62, 127
1, 18236, Note_on_c, 1, 81, 127
1, 18342, Note_off_c, 1, 62, 0
1, 18348, Note_off_c, 1, 53, 0
1, 18353, Note_off_c, 1, 81, 0
1, 18450, Note_on_c, 1, 55, 127
1, 18457, Note_on_c, 1, 76, 127
1, 18460, Note_on_c, 1, 81, 127
1, 18460, Note_on_c, 1, 67, 127
1, 18546, Note_off_c, 1, 67, 0
1, 18551, Note_off_c, 1, 76, 0
1, 18556, Note_off_c, 1, 55, 0
1, 18558, Note_on_c, 1, 74, 127
1, 18576, Note_on_c, 1, 82, 127
1, 18599, Note_off_c, 1, 81, 0
1, 18642, Note_off_c, 1, 74, 0
1, 18678, Note_off_c, 1, 82, 0
1, 18685, Note_on_c, 1, 73, 127
1, 18687, Note_on_c, 1, 81, 127
1, 18688, Note_on_c, 1, 57, 127
1, 18712, Note_on_c, 1, 64, 127
1, 18779, Note_off_c, 1, 57, 0
1, 18791, Note_off_c, 1, 64, 0
1, 18815, Note_off_c, 1, 73, 0
1, 18819, Note_on_c, 1, 79, 127
1, 18832, Note_off_c, 1, 81, 0
1, 18930, Note_on_c, 1, 45, 127
1, 18939, Note_on_c, 1, 77, 127
1, 18942, Note_off_c, 1, 79, 0
1, 18949, Note_on_c, 1, 69, 127
1, 19052, Note_off_c, 1, 77, 0
1, 19054, Note_on_c, 1, 76, 127
1, 19057, Note_off_c, 1, 69, 0
1, 19062, Note_off_c, 1, 45, 0
1, 19146, Note_off_c, 1, 76, 0
1, 19170, Note_on_c, 1, 50, 127
1, 19184, Note_on_c, 1, 77, 127
1, 19187, Note_on_c, 1, 74, 127
1, 19199, Note_on_c, 1, 69, 127
1, 19268, Note_off_c, 1, 50, 0
1, 19285, Note_off_c, 1, 74, 0
1, 19310, Note_on_c, 1, 70, 127
1, 19312, Note_on_c, 1, 79, 127
1, 19319, Note_off_c, 1, 77, 0
1, 19324, Note_off_c, 1, 69, 0
1, 19417, Note_on_c, 1, 45, 127
1, 19446, Note_off_c, 1, 70, 0
1, 19468, Note_off_c, 1, 79, 0
1, 19516, Note_off_c, 1, 45, 0
1, 19518, Note_on_c, 1, 67, 127
1, 19541, Note_on_c, 1, 76, 127
1, 19607, Note_off_c, 1, 67, 0
1, 19652, Note_off_c, 1, 76, 0
1, 19662, Note_on_c, 1, 69, 127
1, 19662, Note_on_c, 1, 65, 127
1, 19667, Note_on_c, 1, 38, 127
1, 19669, Note_on_c, 1, 74, 127
1, 19760, Note_off_c, 1, 65, 0
1, 19775, Note_on_c, 1, 67, 127
1, 19784, Note_off_c, 1, 69, 0
1, 19808, Note_off_c, 1, 38, 0
1, 19824, Note_off_c, 1, 74, 0
1, 19902, Note_off_c, 1, 67, 0
1, 19902, Note_on_c, 1, 56, 127
1, 19907, Note_on_c, 1, 83, 127
1, 19998, Note_on_c, 1, 64, 127
1, 20005, Note_on_c, 1, 57, 127
1, 20008, Note_on_c, 1, 72, 127
1, 20022, Note_off_c, 1, 56, 0
1, 20027, Note_on_c, 1, 84, 127
1, 20045, Note_off_c, 1, 83, 0
1, 20092, Note_off_c, 1, 72, 0
1, 20111, Note_off_c, 1, 64, 0
1, 20116, Note_off_c, 1, 57, 0
1, 20140, Note_on_c, 1, 62, 127
1, 20140, Note_on_c, 1, 59, 127
1, 20144, Note_on_c, 1, 86, 127
1, 20148, Note_off_c, 1, 84, 0
1, 20150, Note_on_c, 1, 71, 127
1, 20245, Note_off_c, 1, 62, 0
1, 20257, Note_off_c, 1, 71, 0
1, 20262, Note_off_c, 1, 59, 0
1, 20292, Note_off_c, 1, 86, 0
1, 20375, Note_on_c, 1, 80, 127
1, 20483, Note_on_c, 1, 81, 127
1, 20490, Note_on_c, 1, 60, 127
1, 20511, Note_off_c, 1, 80, 0
1, 20584, Note_off_c, 1, 60, 0
1, 20607, Note_off_c, 1, 81, 0
1, 20617, Note_on_c, 1, 68, 127
1, 20617, Note_on_c, 1, 62, 127
1, 20622, Note_on_c, 1, 83, 127
1, 20624, Note_on_c, 1, 65, 127
1, 20737, Note_off_c, 1, 65, 0
1, 20761, Note_off_c, 1, 68, 0
1, 20764, Note_off_c, 1, 83, 0
1, 20773, Note_off_c, 1, 62, 0
1, 20843, Note_on_c, 1, 59, 127
1, 20869, Note_on_c, 1, 74, 127
1, 20948, Note_on_c, 1, 60, 127
1, 20982, Note_off_c, 1, 59, 0
1, 20984, Note_on_c, 1, 76, 127
1, 21009, Note_off_c, 1, 74, 0
1, 21071, Note_off_c, 1, 60, 0
1, 21095, Note_on_c, 1, 62, 127
1, 21102, Note_off_c, 1, 76, 0
1, 21112, Note_on_c, 1, 77, 127
1, 21227, Note_off_c, 1, 62, 0
1, 21230, Note_off_c, 1, 77, 0
1, 21340, Note_on_c, 1, 62, 127
1, 21342, Note_on_c, 1, 71, 127
1, 21438, Note_on_c, 1, 64, 127
1, 21462, Note_off_c, 1, 62, 0
1, 21469, Note_on_c, 1, 72, 127
1, 21474, Note_off_c, 1, 71, 0
1, 21570, Note_on_c, 1, 65, 127
1, 21577, Note_off_c, 1, 64, 0
1, 21591, Note_on_c, 1, 74, 127
1, 21613, Note_off_c, 1, 72, 0
1, 21688, Note_off_c, 1, 74, 0
1, 21735, Note_off_c, 1, 65, 0
1, 21808, Note_on_c, 1, 59, 127
1, 21824, Note_on_c, 1, 68, 127
1, 21829, Note_on_c, 1, 64, 127
1, 21841, Note_on_c, 1, 50, 127
1, 21923, Note_off_c, 1, 59, 0
1, 21931, Note_off_c, 1, 64, 0
1, 21942, Note_off_c, 1, 50, 0
1, 21946, Note_off_c, 1, 68, 0
1, 22048, Note_on_c, 1, 69, 127
1, 22060, Note_on_c, 1, 64, 127
1, 22069, Note_on_c, 1, 48, 127
1, 22074, Note_on_c, 1, 60, 127
1, 22182, Note_on_c, 1, 47, 127
1, 22184, Note_off_c, 1, 60, 0
1, 22192, Note_off_c, 1, 64, 0
1, 22196, Note_off_c, 1, 48, 0
1, 22292, Note_off_c, 1, 47, 0
1, 22391, Note_on_c, 1, 71, 127
1, 22396, Note_off_c, 1, 69, 0
1, 22420, Note_on_c, 1, 50, 127
1, 22492, Note_off_c, 1, 71, 0
1, 22523, Note_on_c, 1, 72, 127
1, 22530, Note_off_c, 1, 50, 0
1, 22530, Note_on_c, 1, 52, 127
1, 22578, Note_on_c, 1, 68, 127
1, 22621, Note_off_c, 1, 72, 0
1, 22643, Note_off_c, 1, 68, 0
1, 22657, Note_off_c, 1, 52, 0
1, 22772, Note_on_c, 1, 40, 127
1, 22777, Note_on_c, 1, 59, 127
1, 22868, Note_off_c, 1, 59, 0
1, 22902, Note_off_c, 1, 40, 0
1, 23005, Note_on_c, 1, 69, 127
1, 23020, Note_on_c, 1, 45, 127
1, 23032, Note_on_c, 1, 60, 127
1, 23039, Note_on_c, 1, 64, 127
1, 23118, Note_off_c, 1, 45, 0
1, 23245, Note_on_c, 1, 52, 127
1, 23348, Note_off_c, 1, 52, 0
1, 23488, Note_on_c, 1, 57, 127
1, 23537, Note_off_c, 1, 69, 0
1, 23543, Note_off_c, 1, 60, 0
1, 23550, Note_off_c, 1, 64, 0
1, 23725, Note_on_c, 1, 76, 127
1, 23756, Note_off_c, 1, 57, 0
1, 23826, Note_on_c, 1, 77, 127
1, 23864, Note_off_c, 1, 76, 0
1, 23945, Note_off_c, 1, 77, 0
1, 23958, Note_on_c, 1, 79, 127
1, 24072, Note_off_c, 1, 79, 0
1, 24203, Note_on_c, 1, 64, 127
1, 24205, Note_on_c, 1, 79, 127
1, 24208, Note_on_c, 1, 48, 127
1, 24222, Note_on_c, 1, 84, 127
1, 24280, Note_on_c, 1, 65, 127
1, 24289, Note_on_c, 1, 50, 127
1, 24313, Note_on_c, 1, 77, 127
1, 24316, Note_off_c, 1, 79, 0
1, 24320, Note_off_c, 1, 64, 0
1, 24325, Note_off_c, 1, 48, 0
1, 24395, Note_off_c, 1, 65, 0
1, 24414, Note_off_c, 1, 50, 0
1, 24421, Note_off_c, 1, 77, 0
1, 24428, Note_on_c, 1, 67, 127
1, 24431, Note_on_c, 1, 52, 127
1, 24438, Note_on_c, 1, 76, 127
1, 24546, Note_off_c, 1, 84, 0
1, 24551, Note_off_c, 1, 52, 0
1, 24551, Note_off_c, 1, 76, 0
1, 24556, Note_on_c, 1, 74, 127
1, 24560, Note_off_c, 1, 67, 0
1, 24654, Note_off_c, 1, 74, 0
1, 24673, Note_on_c, 1, 76, 127
1, 24688, Note_on_c, 1, 67, 127
1, 24696, Note_on_c, 1, 79, 127
1, 24697, Note_on_c, 1, 52, 127
1, 24781, Note_off_c, 1, 76, 0
1, 24791, Note_on_c, 1, 72, 127
1, 24796, Note_on_c, 1, 53, 127
1, 24800, Note_on_c, 1, 69, 127
1, 24805, Note_off_c, 1, 67, 0
1, 24822, Note_off_c, 1, 79, 0
1, 24824, Note_off_c, 1, 52, 0
1, 24870, Note_off_c, 1, 72, 0
1, 24911, Note_off_c, 1, 69, 0
1, 24913, Note_on_c, 1, 70, 127
1, 24920, Note_off_c, 1, 53, 0
1, 24925, Note_on_c, 1, 55, 127
1, 25038, Note_off_c, 1, 55, 0
1, 25055, Note_on_c, 1, 74, 127
1, 25067, Note_off_c, 1, 70, 0
1, 25177, Note_off_c, 1, 74, 0
1, 25276, Note_on_c, 1, 57, 127
1, 25276, Note_on_c, 1, 77, 127
1, 25285, Note_on_c, 1, 65, 127
1, 25367, Note_off_c, 1, 65, 0
1, 25391, Note_off_c, 1, 77, 0
1, 25404, Note_off_c, 1, 57, 0
1, 25408, Note_on_c, 1, 79, 127
1, 25420, Note_on_c, 1, 67, 127
1, 25420, Note_on_c, 1, 64, 127
1, 25420, Note_on_c, 1, 58, 127
1, 25520, Note_off_c, 1, 58, 0
1, 25532, Note_off_c, 1, 79, 0
1, 25532, Note_off_c, 1, 67, 0
1, 25544, Note_off_c, 1, 64, 0
1, 25660, Note_on_c, 1, 52, 127
1, 25668, Note_on_c, 1, 60, 127
1, 25669, Note_on_c, 1, 67, 127
1, 25669, Note_on_c, 1, 70, 127
1, 25768, Note_off_c, 1, 52, 0
1, 25770, Note_off_c, 1, 60, 0
1, 25775, Note_off_c, 1, 67, 0
1, 25787, Note_off_c, 1, 70, 0
1, 25900, Note_on_c, 1, 53, 127
1, 25907, Note_on_c, 1, 60, 127
1, 25909, Note_on_c, 1, 69, 127
1, 25914, Note_on_c, 1, 65, 127
1, 26032, Note_off_c, 1, 65, 0
1, 26034, Note_off_c, 1, 53, 0
1, 26107, Note_off_c, 1, 69, 0
1, 26116, Note_off_c, 1, 60, 0
1, 26137, Note_on_c, 1, 46, 127
1, 26147, Note_on_c, 1, 65, 127
1, 26159, Note_on_c, 1, 58, 127
1, 26165, Note_on_c, 1, 74, 127
1, 26248, Note_on_c, 1, 60, 127
1, 26257, Note_off_c, 1, 65, 0
1, 26263, Note_off_c, 1, 58, 0
1, 26280, Note_on_c, 1, 72, 127
1, 26296, Note_off_c, 1, 46, 0
1, 26321, Note_off_c, 1, 74, 0
1, 26364, Note_off_c, 1, 60, 0
1, 26380, Note_on_c, 1, 62, 127
1, 26390, Note_on_c, 1, 70, 127
1, 26404, Note_on_c, 1, 43, 127
1, 26412, Note_off_c, 1, 72, 0
1, 26495, Note_on_c, 1, 69, 127
1, 26504, Note_off_c, 1, 62, 0
1, 26512, Note_off_c, 1, 43, 0
1, 26535, Note_off_c, 1, 70, 0
1, 26620, Note_on_c, 1, 64, 127
1, 26626, Note_on_c, 1, 48, 127
1, 26636, Note_off_c, 1, 69, 0
1, 26725, Note_off_c, 1, 48, 0
1, 26730, Note_on_c, 1, 67, 127
1, 26749, Note_off_c, 1, 64, 0
1, 26847, Note_off_c, 1, 67, 0
1, 26857, Note_on_c, 1, 69, 127
1, 26864, Note_on_c, 1, 60, 127
1, 26869, Note_on_c, 1, 65, 127
1, 26879, Note_on_c, 1, 41, 127
1, 26960, Note_on_c, 1, 70, 127
1, 26977, Note_on_c, 1, 62, 127
1, 26987, Note_off_c, 1, 41, 0
1, 26992, Note_off_c, 1, 69, 0
1, 26994, Note_off_c, 1, 60, 0
1, 26994, Note_off_c, 1, 65, 0
1, 27097, Note_off_c, 1, 62, 0
1, 27102, Note_on_c, 1, 53, 127
1, 27121, Note_off_c, 1, 70, 0
1, 27196, Note_on_c, 1, 67, 127
1, 27196, Note_on_c, 1, 58, 127
1, 27210, Note_on_c, 1, 55, 127
1, 27220, Note_off_c, 1, 53, 0
1, 27292, Note_off_c, 1, 58, 0
1, 27318, Note_off_c, 1, 67, 0
1, 27320, Note_off_c, 1, 55, 0
1, 27324, Note_on_c, 1, 65, 127
1, 27332, Note_on_c, 1, 60, 127
1, 27333, Note_on_c, 1, 57, 127
1, 27440, Note_off_c, 1, 60, 0
1, 27449, Note_off_c, 1, 65, 0
1, 27455, Note_on_c, 1, 58, 127
1, 27546, Note_on_c, 1, 62, 127
1, 27577, Note_on_c, 1, 77, 127
1, 27596, Note_off_c, 1, 58, 0
1, 27647, Note_on_c, 1, 64, 127
1, 27676, Note_off_c, 1, 62, 0
1, 27688, Note_on_c, 1, 79, 127
1, 27696, Note_off_c, 1, 77, 0
1, 27703, Note_on_c, 1, 55, 127
1, 27721, Note_off_c, 1, 57, 0
1, 27760, Note_off_c, 1, 64, 0
1, 27800, Note_off_c, 1, 79, 0
1, 27815, Note_off_c, 1, 55, 0
1, 27816, Note_on_c, 1, 81, 127
1, 27822, Note_on_c, 1, 53, 127
1, 27937, Note_off_c, 1, 53, 0
1, 27944, Note_off_c, 1, 81, 0
1, 28049, Note_on_c, 1, 74, 127
1, 28160, Note_on_c, 1, 76, 127
1, 28166, Note_off_c, 1, 74, 0
1, 28166, Note_on_c, 1, 52, 127
1, 28175, Note_on_c, 1, 67, 127
1, 28256, Note_off_c, 1, 52, 0
1, 28272, Note_off_c, 1, 76, 0
1, 28278, Note_off_c, 1, 67, 0
1, 28282, Note_on_c, 1, 77, 127
1, 28290, Note_on_c, 1, 69, 127
1, 28295, Note_on_c, 1, 50, 127
1, 28408, Note_on_c, 1, 52, 127
1, 28410, Note_off_c, 1, 77, 0
1, 28410, Note_off_c, 1, 50, 0
1, 28417, Note_on_c, 1, 67, 127
1, 28430, Note_off_c, 1, 69, 0
1, 28524, Note_on_c, 1, 65, 127
1, 28530, Note_on_c, 1, 71, 127
1, 28537, Note_off_c, 1, 67, 0
1, 28549, Note_on_c, 1, 55, 127
1, 28564, Note_off_c, 1, 52, 0
1, 28624, Note_on_c, 1, 57, 127
1, 28633, Note_on_c, 1, 72, 127
1, 28640, Note_on_c, 1, 48, 127
1, 28652, Note_on_c, 1, 64, 127
1, 28657, Note_off_c, 1, 65, 0
1, 28657, Note_off_c, 1, 55, 0
1, 28664, Note_off_c, 1, 71, 0
1, 28729, Note_off_c, 1, 57, 0
1, 28734, Note_off_c, 1, 48, 0
1, 28741, Note_off_c, 1, 72, 0
1, 28760, Note_on_c, 1, 59, 127
1, 28767, Note_on_c, 1, 74, 127
1, 28768, Note_off_c, 1, 64, 0
1, 28775, Note_on_c, 1, 62, 127
1, 28777, Note_on_c, 1, 47, 127
1, 28873, Note_off_c, 1, 74, 0
1, 28873, Note_off_c, 1, 62, 0
1, 28883, Note_off_c, 1, 59, 0
1, 28888, Note_off_c, 1, 47, 0
1, 29095, Note_on_c, 1, 60, 127
1, 29118, Note_on_c, 1, 45, 127
1, 29231, Note_on_c, 1, 43, 127
1, 29252, Note_off_c, 1, 45, 0
1, 29262, Note_off_c, 1, 60, 0
1, 29268, Note_on_c, 1, 79, 127
1, 29358, Note_off_c, 1, 79, 0
1, 29372, Note_off_c, 1, 43, 0
1, 29591, Note_on_c, 1, 41, 127
1, 29719, Note_off_c, 1, 41, 0
1, 29721, Note_on_c, 1, 40, 127
1, 29730, Note_on_c, 1, 67, 127
1, 29749, Note_on_c, 1, 72, 127
1, 29757, Note_on_c, 1, 64, 127
1, 29850, Note_off_c, 1, 40, 0
1, 29857, Note_off_c, 1, 67, 0
1, 29869, Note_off_c, 1, 64, 0
1, 29950, Note_on_c, 1, 41, 127
1, 29982, Note_on_c, 1, 69, 127
1, 30080, Note_on_c, 1, 74, 127
1, 30087, Note_off_c, 1, 41, 0
1, 30095, Note_off_c, 1, 72, 0
1, 30109, Note_off_c, 1, 69, 0
1, 30152, Note_off_c, 1, 74, 0
1, 30205, Note_on_c, 1, 71, 127
1, 30208, Note_on_c, 1, 43, 127
1, 30217, Note_on_c, 1, 67, 127
1, 30224, Note_on_c, 1, 76, 127
1, 30289, Note_on_c, 1, 74, 127
1, 30311, Note_off_c, 1, 76, 0
1, 30320, Note_off_c, 1, 43, 0
1, 30335, Note_off_c, 1, 67, 0
1, 30337, Note_off_c, 1, 71, 0
1, 30378, Note_off_c, 1, 74, 0
1, 30455, Note_on_c, 1, 62, 127
1, 30556, Note_on_c, 1, 72, 127
1, 30558, Note_off_c, 1, 62, 0
1, 30670, Note_off_c, 1, 72, 0
1, 30700, Note_on_c, 1, 72, 127
1, 30702, Note_on_c, 1, 67, 127
1, 30716, Note_on_c, 1, 36, 127
1, 30721, Note_on_c, 1, 64, 127
1, 31187, Note_off_c, 1, 64, 0
1, 31206, Note_off_c, 1, 72, 0
1, 31211, Note_off_c, 1, 67, 0
1, 31252, Note_off_c, 1, 36, 0
1, 31438, Note_on_c, 1, 71, 127
1, 31534, Note_on_c, 1, 72, 127
1, 31554, Note_off_c, 1, 71, 0
1, 31650, Note_off_c, 1, 72, 0
1, 31679, Note_on_c, 1, 74, 127
1, 31777, Note_off_c, 1, 74, 0
1, 31904, Note_on_c, 1, 55, 127
1, 31916, Note_on_c, 1, 71, 127
1, 31916, Note_on_c, 1, 79, 127
1, 31929, Note_on_c, 1, 74, 127
1, 32000, Note_off_c, 1, 71, 0
1, 32012, Note_off_c, 1, 55, 0
1, 32012, Note_on_c, 1, 53, 127
1, 32015, Note_on_c, 1, 69, 127
1, 32030, Note_off_c, 1, 74, 0
1, 32125, Note_off_c, 1, 53, 0
1, 32135, Note_on_c, 1, 52, 127
1, 32136, Note_off_c, 1, 69, 0
1, 32142, Note_on_c, 1, 67, 127
1, 32168, Note_on_c, 1, 73, 127
1, 32240, Note_off_c, 1, 52, 0
1, 32256, Note_off_c, 1, 79, 0
1, 32272, Note_off_c, 1, 67, 0
1, 32291, Note_off_c, 1, 73, 0
1, 32375, Note_on_c, 1, 65, 127
1, 32389, Note_on_c, 1, 55, 127
1, 32396, Note_on_c, 1, 74, 127
1, 32404, Note_on_c, 1, 82, 127
1, 32480, Note_off_c, 1, 65, 0
1, 32480, Note_off_c, 1, 74, 0
1, 32497, Note_off_c, 1, 55, 0
1, 32507, Note_off_c, 1, 82, 0
1, 32617, Note_on_c, 1, 64, 127
1, 32624, Note_on_c, 1, 69, 127
1, 32641, Note_on_c, 1, 57, 127
1, 32646, Note_on_c, 1, 73, 127
1, 32732, Note_off_c, 1, 64, 0
1, 32740, Note_on_c, 1, 62, 127
1, 32742, Note_on_c, 1, 67, 127
1, 32752, Note_off_c, 1, 69, 0
1, 32754, Note_on_c, 1, 71, 127
1, 32761, Note_off_c, 1, 57, 0
1, 32791, Note_off_c, 1, 73, 0
1, 32848, Note_off_c, 1, 67, 0
1, 32869, Note_off_c, 1, 62, 0
1, 32881, Note_on_c, 1, 45, 127
1, 32921, Note_off_c, 1, 71, 0
1, 32946, Note_on_c, 1, 65, 127
1, 32989, Note_on_c, 1, 74, 127
1, 33004, Note_off_c, 1, 45, 0
1, 33064, Note_off_c, 1, 65, 0
1, 33118, Note_on_c, 1, 76, 127
1, 33143, Note_off_c, 1, 74, 0
1, 33272, Note_off_c, 1, 76, 0
1, 33332, Note_on_c, 1, 74, 127
1, 33337, Note_on_c, 1, 55, 127
1, 33342, Note_on_c, 1, 77, 127
1, 33342, Note_on_c, 1, 57, 127
1, 33440, Note_on_c, 1, 76, 127
1, 33448, Note_off_c, 1, 74, 0
1, 33455, Note_off_c, 1, 55, 0
1, 33455, Note_off_c, 1, 57, 0
1, 33458, Note_on_c, 1, 79, 127
1, 33478, Note_off_c, 1, 77, 0
1, 33534, Note_off_c, 1, 76, 0
1, 33576, Note_off_c, 1, 79, 0
1, 33589, Note_on_c, 1, 53, 127
1, 33592, Note_on_c, 1, 62, 127
1, 33596, Note_on_c, 1, 81, 127
1, 33702, Note_off_c, 1, 62, 0
1, 33708, Note_off_c, 1, 53, 0
1, 33713, Note_off_c, 1, 81, 0
1, 33810, Note_on_c, 1, 55, 127
1, 33817, Note_on_c, 1, 76, 127
1, 33820, Note_on_c, 1, 81, 127
1, 33820, Note_on_c, 1, 67, 127
1, 33906, Note_off_c, 1, 67, 0
1, 33911, Note_off_c, 1, 76, 0
1, 33916, Note_off_c, 1, 55, 0
1, 33918, Note_on_c, 1, 74, 127
1, 33936, Note_on_c, 1, 82, 127
1, 33959, Note_off_c, 1, 81, 0
1, 34002, Note_off_c, 1, 74, 0
1, 34038, Note_off_c, 1, 82, 0
1, 34045, Note_on_c, 1, 73, 127
1, 34047, Note_on_c, 1, 81, 127
1, 34048, Note_on_c, 1, 57, 127
1, 34072, Note_on_c, 1, 64, 127
1, 34139, Note_off_c, 1, 57, 0
1, 34151, Note_off_c, 1, 64, 0
1, 34175, Note_off_c, 1, 73, 0
1, 34179, Note_on_c, 1, 79, 127
1, 34192, Note_off_c, 1, 81, 0
1, 34290, Note_on_c, 1, 45, 127
1, 34299, Note_on_c, 1, 77, 127
1, 34302, Note_off_c, 1, 79, 0
1, 34309, Note_on_c, 1, 69, 127
1, 34412, Note_off_c, 1, 77, 0
1, 34414, Note_on_c, 1, 76, 127
1, 34417, Note_off_c, 1, 69, 0
1, 34422, Note_off_c, 1, 45, 0
1, 34506, Note_off_c, 1, 76, 0
1, 34530, Note_on_c, 1, 50, 127
1, 34544, Note_on_c, 1, 77, 127
1, 34547, Note_on_c, 1, 74, 127
1, 34559, Note_on_c, 1, 69, 127
1, 34628, Note_off_c, 1, 50, 0
1, 34645, Note_off_c, 1, 74, 0
1, 34670, Note_on_c, 1, 70, 127
1, 34672, Note_on_c, 1, 79, 127
1, 34679, Note_off_c, 1, 77, 0
1, 34684, Note_off_c, 1, 69, 0
1, 34777, Note_on_c, 1, 45, 127
1, 34806, Note_off_c, 1, 70, 0
1, 34828, Note_off_c, 1, 79, 0
1, 34876, Note_off_c, 1, 45, 0
1, 34878, Note_on_c, 1, 67, 127
1, 34901, Note_on_c, 1, 76, 127
1, 34967, Note_off_c, 1, 67, 0
1, 35012, Note_off_c, 1, 76, 0
1, 35022, Note_on_c, 1, 69, 127
1, 35022, Note_on_c, 1, 65, 127
1, 35027, Note_on_c, 1, 38, 127
1, 35029, Note_on_c, 1, 74, 127
1, 35120, Note_off_c, 1, 65, 0
1, 35135, Note_on_c, 1, 67, 127
1, 35144, Note_off_c, 1, 69, 0
1, 35168, Note_off_c, 1, 38, 0
1, 35184, Note_off_c, 1, 74, 0
1, 35262, Note_off_c, 1, 67, 0
1, 35262, Note_on_c, 1, 56, 127
1, 35267, Note_on_c, 1, 83, 127
1, 35358, Note_on_c, 1, 64, 127
1, 35365, Note_on_c, 1, 57, 127
1, 35368, Note_on_c, 1, 72, 127
1, 35382, Note_off_c, 1, 56, 0
1, 35387, Note_on_c, 1, 84, 127
1, 35405, Note_off_c, 1, 83, 0
1, 35452, Note_off_c, 1, 72, 0
1, 35471, Note_off_c, 1, 64, 0
1, 35476, Note_off_c, 1, 57, 0
1, 35500, Note_on_c, 1, 62, 127
1, 35500, Note_on_c, 1, 59, 127
1, 35504, Note_on_c, 1, 86, 127
1, 35508, Note_off_c, 1, 84, 0
1, 35510, Note_on_c, 1, 71, 127
1, 35605, Note_off_c, 1, 62, 0
1, 35617, Note_off_c, 1, 71, 0
1, 35622, Note_off_c, 1, 59, 0
1, 35652, Note_off_c, 1, 86, 0
1, 35735, Note_on_c, 1, 80, 127
1, 35843, Note_on_c, 1, 81, 127
1, 35850, Note_on_c, 1, 60, 127
1, 35871, Note_off_c, 1, 80, 0
1, 35944, Note_off_c, 1, 60, 0
1, 35967, Note_off_c, 1, 81, 0
1, 35977, Note_on_c, 1, 68, 127
1, 35977, Note_on_c, 1, 62, 127
1, 35982, Note_on_c, 1, 83, 127
1, 35984, Note_on_c, 1, 65, 127
1, 36097, Note_off_c, 1, 65, 0
1, 36121, Note_off_c, 1, 68, 0
1, 36124, Note_off_c, 1, 83, 0
1, 36133, Note_off_c, 1, 62, 0
1, 36203, Note_on_c, 1, 59, 127
1, 36229, Note_on_c, 1, 74, 127
1, 36308, Note_on_c, 1, 60, 127
1, 36342, Note_off_c, 1, 59, 0
1, 36344, Note_on_c, 1, 76, 127
1, 36369, Note_off_c, 1, 74, 0
1, 36431, Note_off_c, 1, 60, 0
1, 36455, Note_on_c, 1, 62, 127
1, 36462, Note_off_c, 1, 76, 0
1, 36472, Note_on_c, 1, 77, 127
1, 36587, Note_off_c, 1, 62, 0
1, 36590, Note_off_c, 1, 77, 0
1, 36700, Note_on_c, 1, 62, 127
1, 36702, Note_on_c, 1, 71, 127
1, 36798, Note_on_c, 1, 64, 127
1, 36822, Note_off_c, 1, 62, 0
1, 36829, Note_on_c, 1, 72, 127
1, 36834, Note_off_c, 1, 71, 0
1, 36930, Note_on_c, 1, 65, 127
1, 36937, Note_off_c, 1, 64, 0
1, 36951, Note_on_c, 1, 74, 127
1, 36973, Note_off_c, 1, 72, 0
1, 37048, Note_off_c, 1, 74, 0
1, 37095, Note_off_c, 1, 65, 0
1, 37168, Note_on_c, 1, 59, 127
1, 37184, Note_on_c, 1, 68, 127
1, 37189, Note_on_c, 1, 64, 127
1, 37201, Note_on_c, 1, 50, 127
1, 37283, Note_off_c, 1, 59, 0
1, 37291, Note_off_c, 1, 64, 0
1, 37302, Note_off_c, 1, 50, 0
1, 37306, Note_off_c, 1, 68, 0
1, 37408, Note_on_c, 1, 69, 127
1, 37420, Note_on_c, 1, 64, 127
1, 37429, Note_on_c, 1, 48, 127
1, 37434, Note_on_c, 1, 60, 127
1, 37542, Note_on_c, 1, 47, 127
1, 37544, Note_off_c, 1, 60, 0
1, 37552, Note_off_c, 1, 64, 0
1, 37556, Note_off_c, 1, 48, 0
1, 37652, Note_off_c, 1, 47, 0
1, 37751, Note_on_c, 1, 71, 127
1, 37756, Note_off_c, 1, 69, 0
1, 37780, Note_on_c, 1, 50, 127
1, 37852, Note_off_c, 1, 71, 0
1, 37883, Note_on_c, 1, 72, 127
1, 37890, Note_off_c, 1, 50, 0
1, 37890, Note_on_c, 1, 52, 127
1, 37938, Note_on_c, 1, 68, 127
1, 37981, Note_off_c, 1, 72, 0
1, 38003, Note_off_c, 1, 68, 0
1, 38017, Note_off_c, 1, 52, 0
1, 38132, Note_on_c, 1, 40, 127
1, 38137, Note_on_c, 1, 59, 127
1, 38228, Note_off_c, 1, 59, 0
1, 38262, Note_off_c, 1, 40, 0
1, 38365, Note_on_c, 1, 69, 127
1, 38380, Note_on_c, 1, 45, 127
1, 38392, Note_on_c, 1, 60, 127
1, 38399, Note_on_c, 1, 64, 127
1, 38478, Note_off_c, 1, 45, 0
1, 38605, Note_on_c, 1, 52, 127
1, 38708, Note_off_c, 1, 52, 0
1, 38848, Note_on_c, 1, 57, 127
1, 38897, Note_off_c, 1, 69, 0
1, 38903, Note_off_c, 1, 60, 0
1, 38910, Note_off_c, 1, 64, 0
1, 39085, Note_on_c, 1, 76, 127
1, 39116, Note_off_c, 1, 57, 0
1, 39186, Note_on_c, 1, 77, 127
1, 39224, Note_off_c, 1, 76, 0
1, 39305, Note_off_c, 1, 77, 0
1, 39318, Note_on_c, 1, 79, 127
1, 39432, Note_off_c, 1, 79, 0
1, 39563, Note_on_c, 1, 64, 127
1, 39565, Note_on_c, 1, 79, 127
1, 39568, Note_on_c, 1, 48, 127
1, 39582, Note_on_c, 1, 84, 127
1, 39640, Note_on_c, 1, 65, 127
1, 39649, Note_on_c, 1, 50, 127
1, 39673, Note_on_c, 1, 77, 127
1, 39676, Note_off_c, 1, 79, 0
1, 39680, Note_off_c, 1, 64, 0
1, 39685, Note_off_c, 1, 48, 0
1, 39755, Note_off_c, 1, 65, 0
1, 39774, Note_off_c, 1, 50, 0
1, 39781, Note_off_c, 1, 77, 0
1, 39788, Note_on_c, 1, 67, 127
1, 39791, Note_on_c, 1, 52, 127
1, 39798, Note_on_c, 1, 76, 127
1, 39906, Note_off_c, 1, 84, 0
1, 39911, Note_off_c, 1, 52, 0
1, 39911, Note_off_c, 1, 76, 0
1, 39916, Note_on_c, 1, 74, 127
1, 39920, Note_off_c, 1, 67, 0
1, 40014, Note_off_c, 1, 74, 0
1, 40033, Note_on_c, 1, 76, 127
1, 40048, Note_on_c, 1, 67, 127
1, 40056, Note_on_c, 1, 79, 127
1, 40057, Note_on_c, 1, 52, 127
1, 40141, Note_off_c, 1, 76, 0
1, 40151, Note_on_c, 1, 72, 127
1, 40156, Note_on_c, 1, 53, 127
1, 40160, Note_on_c, 1, 69, 127
1, 40165, Note_off_c, 1, 67, 0
1, 40182, Note_off_c, 1, 79, 0
1, 40184, Note_off_c, 1, 52, 0
1, 40230, Note_off_c, 1, 72, 0
1, 40271, Note_off_c, 1, 69, 0
1, 40273, Note_on_c, 1, 70, 127
1, 40280, Note_off_c, 1, 53, 0
1, 40285, Note_on_c, 1, 55, 127
1, 40398, Note_off_c, 1, 55, 0
1, 40415, Note_on_c, 1, 74, 127
1, 40427, Note_off_c, 1, 70, 0
1, 40537, Note_off_c, 1, 74, 0
1, 40636, Note_on_c, 1, 57, 127
1, 40636, Note_on_c, 1, 77, 127
1, 40645, Note_on_c, 1, 65, 127
1, 40727, Note_off_c, 1, 65, 0
1, 40751, Note_off_c, 1, 77, 0
1, 40764, Note_off_c, 1, 57, 0
1, 40768, Note_on_c, 1, 79, 127
1, 40780, Note_on_c, 1, 67, 127
1, 40780, Note_on_c, 1, 64, 127
1, 40780, Note_on_c, 1, 58, 127
1, 40880, Note_off_c, 1, 58, 0
1, 40892, Note_off_c, 1, 79, 0
1, 40892, Note_off_c, 1, 67, 0
1, 40904, Note_off_c, 1, 64, 0
1, 41020, Note_on_c, 1, 52, 127
1, 41028, Note_on_c, 1, 60, 127
1, 41029, Note_on_c, 1, 67, 127
1, 41029, Note_on_c, 1, 70, 127
1, 41128, Note_off_c, 1, 52, 0
1, 41130, Note_off_c, 1, 60, 0
1, 41135, Note_off_c, 1, 67, 0
1, 41147, Note_off_c, 1, 70, 0
1, 41260, Note_on_c, 1, 53, 127
1, 41267, Note_on_c, 1, 60, 127
1, 41269, Note_on_c, 1, 69, 127
1, 41274, Note_on_c, 1, 65, 127
1, 41392, Note_off_c, 1, 65, 0
1, 41394, Note_off_c, 1, 53, 0
1, 41467, Note_off_c, 1, 69, 0
1, 41476, Note_off_c, 1, 60, 0
1, 41497, Note_on_c, 1, 46, 127
1, 41507, Note_on_c, 1, 65, 127
1, 41519, Note_on_c, 1, 58, 127
1, 41525, Note_on_c, 1, 74, 127
1, 41608, Note_on_c, 1, 60, 127
1, 41617, Note_off_c, 1, 65, 0
1, 41623, Note_off_c, 1, 58, 0
1, 41640, Note_on_c, 1, 72, 127
1, 41656, Note_off_c, 1, 46, 0
1, 41681, Note_off_c, 1, 74, 0
1, 41724, Note_off_c, 1, 60, 0
1, 41740, Note_on_c, 1, 62, 127
1, 41750, Note_on_c, 1, 70, 127
1, 41764, Note_on_c, 1, 43, 127
1, 41772, Note_off_c, 1, 72, 0
1, 41855, Note_on_c, 1, 69, 127
1, 41864, Note_off_c, 1, 62, 0
1, 41872, Note_off_c, 1, 43, 0
1, 41895, Note_off_c, 1, 70, 0
1, 41980, Note_on_c, 1, 64, 127
1, 41986, Note_on_c, 1, 48, 127
1, 41996, Note_off_c, 1, 69, 0
1, 42085, Note_off_c, 1, 48, 0
1, 42090, Note_on_c, 1, 67, 127
1, 42109, Note_off_c, 1, 64, 0
1, 42207, Note_off_c, 1, 67, 0
1, 42217, Note_on_c, 1, 69, 127
1, 42224, Note_on_c, 1, 60, 127
1, 42229, Note_on_c, 1, 65, 127
1, 42239, Note_on_c, 1, 41, 127
1, 42320, Note_on_c, 1, 70, 127
1, 42337, Note_on_c, 1, 62, 127
1, 42347, Note_off_c, 1, 41, 0
1, 42352, Note_off_c, 1, 69, 0
1, 42354, Note_off_c, 1, 60, 0
1, 42354, Note_off_c, 1, 65, 0
1, 42457, Note_off_c, 1, 62, 0
1, 42462, Note_on_c, 1, 53, 127
1, 42481, Note_off_c, 1, 70, 0
1, 42556, Note_on_c, 1, 67, 127
1, 42556, Note_on_c, 1, 58, 127
1, 42570, Note_on_c, 1, 55, 127
1, 42580, Note_off_c, 1, 53, 0
1, 42652, Note_off_c, 1, 58, 0
1, 42678, Note_off_c, 1, 67, 0
1, 42680, Note_off_c, 1, 55, 0
1, 42684, Note_on_c, 1, 65, 127
1, 42692, Note_on_c, 1, 60, 127
1, 42693, Note_on_c, 1, 57, 127
1, 42800, Note_off_c, 1, 60, 0
1, 42809, Note_off_c, 1, 65, 0
1, 42815, Note_on_c, 1, 58, 127
1, 42906, Note_on_c, 1, 62, 127
1, 42937, Note_on_c, 1, 77, 127
1, 42956, Note_off_c, 1, 58, 0
1, 43007, Note_on_c, 1, 64, 127
1, 43036, Note_off_c, 1, 62, 0
1, 43048, Note_on_c, 1, 79, 127
1, 43056, Note_off_c, 1, 77, 0
1, 43063, Note_on_c, 1, 55, 127
1, 43081, Note_off_c, 1, 57, 0
1, 43120, Note_off_c, 1, 64, 0
1, 43160, Note_off_c, 1, 79, 0
1, 43175, Note_off_c, 1, 55, 0
1, 43176, Note_on_c, 1, 81, 127
1, 43182, Note_on_c, 1, 53, 127
1, 43297, Note_off_c, 1, 53, 0
1, 43304, Note_off_c, 1, 81, 0
1, 43409, Note_on_c, 1, 74, 127
1, 43520, Note_on_c, 1, 76, 127
1, 43526, Note_off_c, 1, 74, 0
1, 43526, Note_on_c, 1, 52, 127
1, 43535, Note_on_c, 1, 67, 127
1, 43616, Note_off_c, 1, 52, 0
1, 43632, Note_off_c, 1, 76, 0
1, 43638, Note_off_c, 1, 67, 0
1, 43642, Note_on_c, 1, 77, 127
1, 43650, Note_on_c, 1, 69, 127
1, 43655, Note_on_c, 1, 50, 127
1, 43768, Note_on_c, 1, 52, 127
1, 43770, Note_off_c, 1, 77, 0
1, 43770, Note_off_c, 1, 50, 0
1, 43777, Note_on_c, 1, 67, 127
1, 43790, Note_off_c, 1, 69, 0
1, 43884, Note_on_c, 1, 65, 127
1, 43890, Note_on_c, 1, 71, 127
1, 43897, Note_off_c, 1, 67, 0
1, 43909, Note_on_c, 1, 55, 127
1, 43924, Note_off_c, 1, 52, 0
1, 43984, Note_on_c, 1, 57, 127
1, 43993, Note_on_c, 1, 72, 127
1, 44000, Note_on_c, 1, 48, 127
1, 44012, Note_on_c, 1, 64, 127
1, 44017, Note_off_c, 1, 65, 0
1, 44017, Note_off_c, 1, 55, 0
1, 44024, Note_off_c, 1, 71, 0
1, 44089, Note_off_c, 1, 57, 0
1, 44094, Note_off_c, 1, 48, 0
1, 44101, Note_off_c, 1, 72, 0
1, 44120, Note_on_c, 1, 59, 127
1, 44127, Note_on_c, 1, 74, 127
1, 44128, Note_off_c, 1, 64, 0
1, 44135, Note_on_c, 1, 62, 127
1, 44137, Note_on_c, 1, 47, 127
1, 44233, Note_off_c, 1, 74, 0
1, 44233, Note_off_c, 1, 62, 0
1, 44243, Note_off_c, 1, 59, 0
1, 44248, Note_off_c, 1, 47, 0
1, 44455, Note_on_c, 1, 60, 127
1, 44478, Note_on_c, 1, 45, 127
1, 44591, Note_on_c, 1, 43, 127
1, 44612, Note_off_c, 1, 45, 0
1, 44622, Note_off_c, 1, 60, 0
1, 44628, Note_on_c, 1, 79, 127
1, 44718, Note_off_c, 1, 79, 0
1, 44732, Note_off_c, 1, 43, 0
1, 44951, Note_on_c, 1, 41, 127
1, 45079, Note_off_c, 1, 41, 0
1, 45081, Note_on_c, 1, 40, 127
1, 45090, Note_on_c, 1, 67, 127
1, 45109, Note_on_c, 1, 72, 127
1, 45117, Note_on_c, 1, 64, 127
1, 45210, Note_off_c, 1, 40, 0
1, 45217, Note_off_c, 1, 67, 0
1, 45229, Note_off_c, 1, 64, 0
1, 45310, Note_on_c, 1, 41, 127
1, 45342, Note_on_c, 1, 69, 127
1, 45440, Note_on_c, 1, 74, 127
1, 45447, Note_off_c, 1, 41, 0
1, 45455, Note_off_c, 1, 72, 0
1, 45469, Note_off_c, 1, 69, 0
1, 45512, Note_off_c, 1, 74, 0
1, 45565, Note_on_c, 1, 71, 127
1, 45568, Note_on_c, 1, 43, 127
1, 45577, Note_on_c, 1, 67, 127
1, 45584, Note_on_c, 1, 76, 127
1, 45649, Note_on_c, 1, 74, 127
1, 45671, Note_off_c, 1, 76, 0
1, 45680, Note_off_c, 1, 43, 0
1, 45695, Note_off_c, 1, 67, 0
1, 45697, Note_off_c, 1, 71, 0
1, 45738, Note_off_c, 1, 74, 0
1, 45815, Note_on_c, 1, 62, 127
1, 45916, Note_on_c, 1, 72, 127
1, 45918, Note_off_c, 1, 62, 0
1, 46030, Note_off_c, 1, 72, 0
1, 46060, Note_on_c, 1, 72, 127
1, 46062, Note_on_c, 1, 67, 127
1, 46076, Note_on_c, 1, 36, 127
1, 46081, Note_on_c, 1, 64, 127
1, 46547, Note_off_c, 1, 64, 0
1, 46566, Note_off_c, 1, 72, 0
1, 46571, Note_off_c, 1, 67, 0
1, 46612, Note_off_c, 1, 36, 0
1, 46764, Note_on_c, 1, 60, 127
1, 46828, Note_on_c, 1, 67, 127
1, 46830, Note_on_c, 1, 75, 127
1, 46909, Note_off_c, 1, 60, 0
1, 46936, Note_on_c, 1, 74, 127
1, 46936, Note_on_c, 1, 65, 127
1, 46942, Note_off_c, 1, 67, 0
1, 46945, Note_off_c, 1, 75, 0
1, 47023, Note_off_c, 1, 74, 0
1, 47034, Note_off_c, 1, 65, 0
1, 47044, Note_on_c, 1, 53, 127
1, 47066, Note_on_c, 1, 75, 127
1, 47066, Note_on_c, 1, 67, 127
1, 47150, Note_off_c, 1, 75, 0
1, 47155, Note_off_c, 1, 67, 0
1, 47293, Note_on_c, 1, 65, 127
1, 47298, Note_on_c, 1, 74, 127
1, 47413, Note_off_c, 1, 53, 0
1, 47525, Note_on_c, 1, 55, 127
1, 47634, Note_off_c, 1, 65, 0
1, 47644, Note_off_c, 1, 74, 0
1, 47733, Note_on_c, 1, 72, 127
1, 47740, Note_on_c, 1, 63, 127
1, 47808, Note_off_c, 1, 55, 0
1, 47835, Note_off_c, 1, 72, 0
1, 47839, Note_on_c, 1, 71, 127
1, 47842, Note_on_c, 1, 62, 127
1, 47854, Note_off_c, 1, 63, 0
1, 47940, Note_off_c, 1, 71, 0
1, 47980, Note_off_c, 1, 62, 0
1, 47994, Note_on_c, 1, 51, 127
1, 48196, Note_off_c, 1, 51, 0
1, 48243, Note_on_c, 1, 50, 127
1, 48289, Note_on_c, 1, 68, 127
1, 48325, Note_on_c, 1, 77, 127
1, 48329, Note_off_c, 1, 50, 0
1, 48339, Note_on_c, 1, 48, 127
1, 48433, Note_off_c, 1, 48, 0
1, 48459, Note_on_c, 1, 47, 127
1, 48552, Note_off_c, 1, 47, 0
1, 48623, Note_off_c, 1, 68, 0
1, 48665, Note_off_c, 1, 77, 0
1, 48693, Note_on_c, 1, 67, 127
1, 48715, Note_on_c, 1, 43, 127
1, 48721, Note_on_c, 1, 75, 127
1, 48779, Note_off_c, 1, 67, 0
1, 48795, Note_on_c, 1, 65, 127
1, 48810, Note_off_c, 1, 75, 0
1, 48816, Note_off_c, 1, 43, 0
1, 48826, Note_on_c, 1, 74, 127
1, 48883, Note_off_c, 1, 65, 0
1, 48914, Note_off_c, 1, 74, 0
1, 48960, Note_on_c, 1, 48, 127
1, 49036, Note_on_c, 1, 63, 127
1, 49055, Note_on_c, 1, 72, 127
1, 49104, Note_off_c, 1, 63, 0
1, 49130, Note_off_c, 1, 48, 0
1, 49130, Note_off_c, 1, 72, 0
1, 49172, Note_on_c, 1, 65, 127
1, 49172, Note_on_c, 1, 44, 127
1, 49179, Note_on_c, 1, 74, 127
1, 49261, Note_off_c, 1, 44, 0
1, 49270, Note_on_c, 1, 41, 127
1, 49353, Note_off_c, 1, 41, 0
1, 49414, Note_on_c, 1, 43, 127
1, 49508, Note_off_c, 1, 65, 0
1, 49508, Note_off_c, 1, 74, 0
1, 49519, Note_off_c, 1, 43, 0
1, 49645, Note_on_c, 1, 72, 127
1, 49661, Note_on_c, 1, 63, 127
1, 49663, Note_on_c, 1, 43, 127
1, 49753, Note_off_c, 1, 72, 0
1, 49755, Note_on_c, 1, 71, 127
1, 49760, Note_on_c, 1, 62, 127
1, 49762, Note_off_c, 1, 43, 0
1, 49769, Note_off_c, 1, 63, 0
1, 49844, Note_off_c, 1, 71, 0
1, 49850, Note_off_c, 1, 62, 0
1, 49879, Note_on_c, 1, 72, 127
1, 49892, Note_on_c, 1, 48, 127
1, 49894, Note_on_c, 1, 63, 127
1, 49978, Note_off_c, 1, 72, 0
1, 49998, Note_on_c, 1, 67, 127
1, 50005, Note_off_c, 1, 48, 0
1, 50117, Note_on_c, 1, 69, 127
1, 50140, Note_off_c, 1, 67, 0
1, 50146, Note_on_c, 1, 43, 127
1, 50217, Note_off_c, 1, 63, 0
1, 50234, Note_off_c, 1, 69, 0
1, 50234, Note_off_c, 1, 43, 0
1, 50241, Note_on_c, 1, 71, 127
1, 50243, Note_on_c, 1, 62, 127
1, 50343, Note_off_c, 1, 71, 0
1, 50348, Note_off_c, 1, 62, 0
1, 50360, Note_on_c, 1, 63, 127
1, 50374, Note_on_c, 1, 72, 127
1, 50379, Note_on_c, 1, 39, 127
1, 50480, Note_off_c, 1, 63, 0
1, 50488, Note_off_c, 1, 72, 0
1, 50488, Note_off_c, 1, 39, 0
1, 50493, Note_on_c, 1, 74, 127
1, 50495, Note_on_c, 1, 65, 127
1, 50590, Note_on_c, 1, 75, 127
1, 50597, Note_off_c, 1, 65, 0
1, 50601, Note_off_c, 1, 74, 0
1, 50610, Note_on_c, 1, 36, 127
1, 50612, Note_on_c, 1, 67, 127
1, 50703, Note_off_c, 1, 75, 0
1, 50707, Note_off_c, 1, 36, 0
1, 50714, Note_on_c, 1, 77, 127
1, 50714, Note_on_c, 1, 68, 127
1, 50716, Note_off_c, 1, 67, 0
1, 50795, Note_off_c, 1, 68, 0
1, 50815, Note_off_c, 1, 77, 0
1, 50844, Note_on_c, 1, 67, 127
1, 50846, Note_on_c, 1, 75, 127
1, 50881, Note_on_c, 1, 41, 127
1, 50926, Note_off_c, 1, 67, 0
1, 50928, Note_off_c, 1, 75, 0
1, 51098, Note_on_c, 1, 74, 127
1, 51107, Note_on_c, 1, 65, 127
1, 51261, Note_off_c, 1, 41, 0
1, 51356, Note_on_c, 1, 43, 127
1, 51449, Note_off_c, 1, 74, 0
1, 51460, Note_off_c, 1, 65, 0
1, 51478, Note_off_c, 1, 43, 0
1, 51588, Note_on_c, 1, 72, 127
1, 51590, Note_on_c, 1, 63, 127
1, 51603, Note_on_c, 1, 55, 127
1, 51683, Note_on_c, 1, 62, 127
1, 51685, Note_off_c, 1, 72, 0
1, 51690, Note_off_c, 1, 63, 0
1, 51690, Note_on_c, 1, 71, 127
1, 51787, Note_off_c, 1, 62, 0
1, 51800, Note_off_c, 1, 71, 0
1, 52023, Note_off_c, 1, 55, 0
1, 52074, Note_on_c, 1, 65, 127
1, 52080, Note_on_c, 1, 80, 127
1, 52100, Note_on_c, 1, 53, 127
1, 52204, Note_off_c, 1, 53, 0
1, 52204, Note_on_c, 1, 51, 127
1, 52295, Note_off_c, 1, 51, 0
1, 52330, Note_on_c, 1, 50, 127
1, 52456, Note_off_c, 1, 80, 0
1, 52458, Note_off_c, 1, 50, 0
1, 52463, Note_off_c, 1, 65, 0
1, 52542, Note_on_c, 1, 79, 127
1, 52551, Note_on_c, 1, 63, 127
1, 52571, Note_on_c, 1, 46, 127
1, 52640, Note_off_c, 1, 79, 0
1, 52640, Note_on_c, 1, 62, 127
1, 52648, Note_on_c, 1, 77, 127
1, 52654, Note_off_c, 1, 63, 0
1, 52685, Note_off_c, 1, 46, 0
1, 52730, Note_off_c, 1, 62, 0
1, 52734, Note_off_c, 1, 77, 0
1, 52769, Note_on_c, 1, 63, 127
1, 52780, Note_on_c, 1, 79, 127
1, 52805, Note_on_c, 1, 51, 127
1, 52873, Note_off_c, 1, 63, 0
1, 52880, Note_off_c, 1, 79, 0
1, 52888, Note_on_c, 1, 67, 127
1, 52891, Note_on_c, 1, 75, 127
1, 52959, Note_off_c, 1, 67, 0
1, 52961, Note_off_c, 1, 75, 0
1, 52964, Note_off_c, 1, 51, 0
1, 53010, Note_on_c, 1, 68, 127
1, 53017, Note_on_c, 1, 77, 127
1, 53026, Note_on_c, 1, 48, 127
1, 53105, Note_off_c, 1, 48, 0
1, 53116, Note_on_c, 1, 44, 127
1, 53198, Note_off_c, 1, 44, 0
1, 53257, Note_on_c, 1, 46, 127
1, 53357, Note_off_c, 1, 46, 0
1, 53365, Note_off_c, 1, 77, 0
1, 53407, Note_off_c, 1, 68, 0
1, 53478, Note_on_c, 1, 75, 127
1, 53502, Note_on_c, 1, 67, 127
1, 53513, Note_on_c, 1, 46, 127
1, 53563, Note_off_c, 1, 75, 0
1, 53575, Note_on_c, 1, 74, 127
1, 53599, Note_off_c, 1, 67, 0
1, 53604, Note_off_c, 1, 46, 0
1, 53606, Note_on_c, 1, 65, 127
1, 53653, Note_off_c, 1, 74, 0
1, 53677, Note_off_c, 1, 65, 0
1, 53716, Note_on_c, 1, 75, 127
1, 53736, Note_on_c, 1, 67, 127
1, 53763, Note_on_c, 1, 39, 127
1, 54222, Note_off_c, 1, 67, 0
1, 54257, Note_off_c, 1, 75, 0
1, 54282, Note_off_c, 1, 39, 0
1, 54467, Note_on_c, 1, 67, 127
1, 54479, Note_on_c, 1, 60, 127
1, 54492, Note_on_c, 1, 75, 127
1, 54564, Note_off_c, 1, 60, 0
1, 54569, Note_on_c, 1, 65, 127
1, 54571, Note_off_c, 1, 67, 0
1, 54584, Note_on_c, 1, 74, 127
1, 54595, Note_off_c, 1, 75, 0
1, 54670, Note_off_c, 1, 65, 0
1, 54699, Note_off_c, 1, 74, 0
1, 54743, Note_on_c, 1, 53, 127
1, 55080, Note_off_c, 1, 53, 0
1, 55211, Note_on_c, 1, 55, 127
1, 55421, Note_on_c, 1, 72, 127
1, 55442, Note_on_c, 1, 63, 127
1, 55507, Note_off_c, 1, 55, 0
1, 55509, Note_on_c, 1, 71, 127
1, 55525, Note_off_c, 1, 72, 0
1, 55527, Note_on_c, 1, 62, 127
1, 55536, Note_off_c, 1, 63, 0
1, 55598, Note_off_c, 1, 71, 0
1, 55642, Note_off_c, 1, 62, 0
1, 55662, Note_on_c, 1, 51, 127
1, 55885, Note_off_c, 1, 51, 0
1, 55920, Note_on_c, 1, 50, 127
1, 55973, Note_on_c, 1, 77, 127
1, 56002, Note_on_c, 1, 68, 127
1, 56011, Note_off_c, 1, 50, 0
1, 56022, Note_on_c, 1, 48, 127
1, 56108, Note_off_c, 1, 48, 0
1, 56139, Note_on_c, 1, 47, 127
1, 56238, Note_off_c, 1, 47, 0
1, 56309, Note_off_c, 1, 77, 0
1, 56311, Note_off_c, 1, 68, 0
1, 56377, Note_on_c, 1, 67, 127
1, 56382, Note_on_c, 1, 75, 127
1, 56384, Note_on_c, 1, 43, 127
1, 56472, Note_off_c, 1, 75, 0
1, 56476, Note_on_c, 1, 74, 127
1, 56485, Note_on_c, 1, 65, 127
1, 56492, Note_off_c, 1, 67, 0
1, 56496, Note_off_c, 1, 43, 0
1, 56563, Note_off_c, 1, 74, 0
1, 56567, Note_off_c, 1, 65, 0
1, 56607, Note_on_c, 1, 75, 127
1, 56611, Note_on_c, 1, 67, 127
1, 56642, Note_on_c, 1, 48, 127
1, 56691, Note_off_c, 1, 67, 0
1, 56702, Note_off_c, 1, 75, 0
1, 56715, Note_on_c, 1, 72, 127
1, 56728, Note_on_c, 1, 63, 127
1, 56799, Note_off_c, 1, 63, 0
1, 56803, Note_off_c, 1, 48, 0
1, 56803, Note_off_c, 1, 72, 0
1, 56845, Note_on_c, 1, 74, 127
1, 56858, Note_on_c, 1, 44, 127
1, 56861, Note_on_c, 1, 65, 127
1, 56938, Note_off_c, 1, 44, 0
1, 56964, Note_on_c, 1, 41, 127
1, 57048, Note_off_c, 1, 41, 0
1, 57095, Note_on_c, 1, 43, 127
1, 57192, Note_off_c, 1, 43, 0
1, 57236, Note_off_c, 1, 65, 0
1, 57245, Note_off_c, 1, 74, 0
1, 57342, Note_on_c, 1, 72, 127
1, 57342, Note_on_c, 1, 43, 127
1, 57349, Note_on_c, 1, 63, 127
1, 57435, Note_off_c, 1, 72, 0
1, 57442, Note_off_c, 1, 43, 0
1, 57444, Note_on_c, 1, 71, 127
1, 57446, Note_on_c, 1, 62, 127
1, 57450, Note_off_c, 1, 63, 0
1, 57541, Note_off_c, 1, 71, 0
1, 57556, Note_off_c, 1, 62, 0
1, 57575, Note_on_c, 1, 72, 127
1, 57578, Note_on_c, 1, 63, 127
1, 57585, Note_on_c, 1, 48, 127
1, 57678, Note_off_c, 1, 72, 0
1, 57684, Note_off_c, 1, 48, 0
1, 57693, Note_on_c, 1, 67, 127
1, 57823, Note_on_c, 1, 69, 127
1, 57841, Note_on_c, 1, 43, 127
1, 57859, Note_off_c, 1, 67, 0
1, 57865, Note_off_c, 1, 63, 0
1, 57927, Note_off_c, 1, 43, 0
1, 57929, Note_on_c, 1, 62, 127
1, 57938, Note_on_c, 1, 71, 127
1, 57940, Note_off_c, 1, 69, 0
1, 58044, Note_off_c, 1, 71, 0
1, 58051, Note_off_c, 1, 62, 0
1, 58073, Note_on_c, 1, 39, 127
1, 58166, Note_off_c, 1, 39, 0
1, 58168, Note_on_c, 1, 65, 127
1, 58180, Note_on_c, 1, 74, 127
1, 58269, Note_off_c, 1, 65, 0
1, 58278, Note_on_c, 1, 75, 127
1, 58280, Note_on_c, 1, 67, 127
1, 58294, Note_off_c, 1, 74, 0
1, 58309, Note_on_c, 1, 36, 127
1, 58391, Note_off_c, 1, 67, 0
1, 58391, Note_on_c, 1, 68, 127
1, 58397, Note_off_c, 1, 36, 0
1, 58400, Note_off_c, 1, 75, 0
1, 58404, Note_on_c, 1, 77, 127
1, 58477, Note_off_c, 1, 68, 0
1, 58499, Note_off_c, 1, 77, 0
1, 58526, Note_on_c, 1, 75, 127
1, 58532, Note_on_c, 1, 67, 127
1, 58545, Note_on_c, 1, 41, 127
1, 58612, Note_off_c, 1, 75, 0
1, 58614, Note_off_c, 1, 67, 0
1, 58770, Note_on_c, 1, 74, 127
1, 58799, Note_on_c, 1, 65, 127
1, 58943, Note_off_c, 1, 41, 0
1, 59038, Note_on_c, 1, 43, 127
1, 59142, Note_off_c, 1, 43, 0
1, 59146, Note_off_c, 1, 74, 0
1, 59170, Note_off_c, 1, 65, 0
1, 59256, Note_on_c, 1, 63, 127
1, 59270, Note_on_c, 1, 72, 127
1, 59285, Note_on_c, 1, 55, 127
1, 59356, Note_on_c, 1, 62, 127
1, 59360, Note_off_c, 1, 63, 0
1, 59371, Note_off_c, 1, 72, 0
1, 59376, Note_on_c, 1, 71, 127
1, 59471, Note_off_c, 1, 62, 0
1, 59506, Note_off_c, 1, 71, 0
1, 59698, Note_off_c, 1, 55, 0
1, 59742, Note_on_c, 1, 77, 127
1, 59766, Note_on_c, 1, 65, 127
1, 59775, Note_on_c, 1, 53, 127
1, 59808, Note_on_c, 1, 79, 127
1, 59817, Note_off_c, 1, 77, 0
1, 59857, Note_off_c, 1, 53, 0
1, 59870, Note_on_c, 1, 80, 127
1, 59879, Note_on_c, 1, 51, 127
1, 59892, Note_off_c, 1, 79, 0
1, 59970, Note_off_c, 1, 51, 0
1, 60000, Note_on_c, 1, 50, 127
1, 60113, Note_off_c, 1, 50, 0
1, 60164, Note_off_c, 1, 80, 0
1, 60179, Note_off_c, 1, 65, 0
1, 60226, Note_on_c, 1, 46, 127
1, 60232, Note_on_c, 1, 79, 127
1, 60239, Note_on_c, 1, 63, 127
1, 60321, Note_off_c, 1, 79, 0
1, 60336, Note_on_c, 1, 62, 127
1, 60340, Note_on_c, 1, 77, 127
1, 60343, Note_off_c, 1, 46, 0
1, 60343, Note_off_c, 1, 63, 0
1, 60418, Note_off_c, 1, 77, 0
1, 60440, Note_off_c, 1, 62, 0
1, 60453, Note_on_c, 1, 79, 127
1, 60457, Note_on_c, 1, 63, 127
1, 60469, Note_on_c, 1, 51, 127
1, 60544, Note_off_c, 1, 63, 0
1, 60552, Note_off_c, 1, 79, 0
1, 60552, Note_on_c, 1, 75, 127
1, 60577, Note_on_c, 1, 67, 127
1, 60628, Note_off_c, 1, 75, 0
1, 60641, Note_off_c, 1, 51, 0
1, 60656, Note_off_c, 1, 67, 0
1, 60683, Note_on_c, 1, 77, 127
1, 60694, Note_on_c, 1, 68, 127
1, 60700, Note_on_c, 1, 48, 127
1, 60787, Note_off_c, 1, 48, 0
1, 60813, Note_on_c, 1, 44, 127
1, 60886, Note_off_c, 1, 44, 0
1, 60939, Note_on_c, 1, 46, 127
1, 61040, Note_off_c, 1, 46, 0
1, 61074, Note_off_c, 1, 77, 0
1, 61078, Note_off_c, 1, 68, 0
1, 61160, Note_on_c, 1, 67, 127
1, 61168, Note_on_c, 1, 75, 127
1, 61184, Note_on_c, 1, 46, 127
1, 61255, Note_off_c, 1, 67, 0
1, 61259, Note_off_c, 1, 75, 0
1, 61259, Note_on_c, 1, 65, 127
1, 61270, Note_off_c, 1, 46, 0
1, 61270, Note_on_c, 1, 74, 127
1, 61327, Note_off_c, 1, 65, 0
1, 61345, Note_off_c, 1, 74, 0
1, 61403, Note_on_c, 1, 75, 127
1, 61409, Note_on_c, 1, 67, 127
1, 61429, Note_on_c, 1, 39, 127
1, 61891, Note_off_c, 1, 67, 0
1, 61920, Note_off_c, 1, 75, 0
1, 61941, Note_off_c, 1, 39, 0
1, 62155, Note_on_c, 1, 79, 127
1, 62169, Note_on_c, 1, 51, 127
1, 62175, Note_on_c, 1, 70, 127
1, 62248, Note_off_c, 1, 79, 0
1, 62250, Note_on_c, 1, 77, 127
1, 62266, Note_off_c, 1, 70, 0
1, 62277, Note_off_c, 1, 51, 0
1, 62279, Note_on_c, 1, 69, 127
1, 62330, Note_off_c, 1, 77, 0
1, 62363, Note_off_c, 1, 69, 0
1, 62385, Note_on_c, 1, 79, 127
1, 62400, Note_on_c, 1, 70, 127
1, 62409, Note_on_c, 1, 50, 127
1, 62469, Note_off_c, 1, 79, 0
1, 62495, Note_off_c, 1, 70, 0
1, 62646, Note_on_c, 1, 81, 127
1, 62646, Note_on_c, 1, 72, 127
1, 62763, Note_off_c, 1, 50, 0
1, 62906, Note_on_c, 1, 48, 127
1, 62930, Note_off_c, 1, 72, 0
1, 63008, Note_off_c, 1, 81, 0
1, 63138, Note_on_c, 1, 82, 127
1, 63141, Note_on_c, 1, 74, 127
1, 63189, Note_off_c, 1, 48, 0
1, 63240, Note_on_c, 1, 75, 127
1, 63242, Note_off_c, 1, 74, 0
1, 63251, Note_off_c, 1, 82, 0
1, 63330, Note_off_c, 1, 75, 0
1, 63365, Note_on_c, 1, 74, 127
1, 63370, Note_on_c, 1, 77, 127
1, 63370, Note_on_c, 1, 46, 127
1, 63471, Note_off_c, 1, 74, 0
1, 63471, Note_on_c, 1, 72, 127
1, 63502, Note_off_c, 1, 46, 0
1, 63584, Note_off_c, 1, 77, 0
1, 63584, Note_off_c, 1, 72, 0
1, 63595, Note_on_c, 1, 58, 127
1, 63597, Note_on_c, 1, 74, 127
1, 63619, Note_on_c, 1, 70, 127
1, 63699, Note_off_c, 1, 58, 0
1, 63710, Note_on_c, 1, 75, 127
1, 63719, Note_off_c, 1, 74, 0
1, 63727, Note_on_c, 1, 72, 127
1, 63728, Note_off_c, 1, 70, 0
1, 63829, Note_off_c, 1, 75, 0
1, 63836, Note_on_c, 1, 56, 127
1, 63838, Note_off_c, 1, 72, 0
1, 63844, Note_on_c, 1, 77, 127
1, 63951, Note_off_c, 1, 77, 0
1, 63955, Note_off_c, 1, 56, 0
1, 64076, Note_on_c, 1, 55, 127
1, 64152, Note_off_c, 1, 55, 0
1, 64173, Note_on_c, 1, 79, 127
1, 64193, Note_on_c, 1, 76, 127
1, 64266, Note_off_c, 1, 79, 0
1, 64299, Note_on_c, 1, 80, 127
1, 64304, Note_off_c, 1, 76, 0
1, 64321, Note_on_c, 1, 53, 127
1, 64401, Note_off_c, 1, 80, 0
1, 64477, Note_off_c, 1, 53, 0
1, 64533, Note_on_c, 1, 49, 127
1, 64560, Note_on_c, 1, 82, 127
1, 64567, Note_on_c, 1, 79, 127
1, 64642, Note_off_c, 1, 49, 0
1, 64646, Note_on_c, 1, 46, 127
1, 64723, Note_off_c, 1, 46, 0
1, 64781, Note_on_c, 1, 48, 127
1, 64922, Note_off_c, 1, 48, 0
1, 64948, Note_off_c, 1, 82, 0
1, 64957, Note_off_c, 1, 79, 0
1, 65015, Note_on_c, 1, 77, 127
1, 65026, Note_on_c, 1, 80, 127
1, 65037, Note_on_c, 1, 36, 127
1, 65121, Note_off_c, 1, 77, 0
1, 65121, Note_on_c, 1, 76, 127
1, 65127, Note_off_c, 1, 80, 0
1, 65134, Note_off_c, 1, 36, 0
1, 65137, Note_on_c, 1, 79, 127
1, 65207, Note_off_c, 1, 76, 0
1, 65231, Note_off_c, 1, 79, 0
1, 65263, Note_on_c, 1, 77, 127
1, 65277, Note_on_c, 1, 80, 127
1, 65286, Note_on_c, 1, 41, 127
1, 65368, Note_off_c, 1, 77, 0
1, 65388, Note_on_c, 1, 79, 127
1, 65401, Note_off_c, 1, 41, 0
1, 65403, Note_off_c, 1, 80, 0
1, 65489, Note_off_c, 1, 79, 0
1, 65508, Note_on_c, 1, 72, 127
1, 65519, Note_on_c, 1, 77, 127
1, 65520, Note_on_c, 1, 53, 127
1, 65611, Note_on_c, 1, 80, 127
1, 65615, Note_off_c, 1, 72, 0
1, 65622, Note_off_c, 1, 53, 0
1, 65631, Note_off_c, 1, 77, 0
1, 65732, Note_on_c, 1, 47, 127
1, 65743, Note_on_c, 1, 79, 127
1, 65746, Note_on_c, 1, 74, 127
1, 65755, Note_off_c, 1, 80, 0
1, 65841, Note_off_c, 1, 74, 0
1, 65847, Note_off_c, 1, 47, 0
1, 65860, Note_off_c, 1, 79, 0
1, 65877, Note_on_c, 1, 77, 127
1, 65958, Note_off_c, 1, 77, 0
1, 65984, Note_on_c, 1, 71, 127
1, 65991, Note_on_c, 1, 55, 127
1, 66004, Note_on_c, 1, 75, 127
1, 66050, Note_off_c, 1, 55, 0
1, 66088, Note_off_c, 1, 71, 0
1, 66112, Note_off_c, 1, 75, 0
1, 66112, Note_on_c, 1, 74, 127
1, 66205, Note_off_c, 1, 74, 0
1, 66231, Note_on_c, 1, 60, 127
1, 66234, Note_on_c, 1, 72, 127
1, 66238, Note_on_c, 1, 75, 127
1, 66346, Note_off_c, 1, 75, 0
1, 66346, Note_on_c, 1, 71, 127
1, 66351, Note_off_c, 1, 72, 0
1, 66351, Note_on_c, 1, 74, 127
1, 66421, Note_off_c, 1, 71, 0
1, 66437, Note_off_c, 1, 74, 0
1, 66479, Note_on_c, 1, 77, 127
1, 66613, Note_off_c, 1, 60, 0
1, 66715, Note_on_c, 1, 59, 127
1, 66874, Note_off_c, 1, 77, 0
1, 66958, Note_on_c, 1, 67, 127
1, 67059, Note_off_c, 1, 67, 0
1, 67106, Note_off_c, 1, 59, 0
1, 67172, Note_on_c, 1, 75, 127
1, 67201, Note_on_c, 1, 72, 127
1, 67207, Note_on_c, 1, 60, 127
1, 67254, Note_off_c, 1, 75, 0
1, 67320, Note_on_c, 1, 67, 127
1, 67357, Note_off_c, 1, 72, 0
1, 67373, Note_off_c, 1, 67, 0
1, 67419, Note_on_c, 1, 78, 127
1, 67605, Note_off_c, 1, 60, 0
1, 67680, Note_on_c, 1, 57, 127
1, 67814, Note_off_c, 1, 78, 0
1, 67912, Note_on_c, 1, 79, 127
1, 67914, Note_on_c, 1, 74, 127
1, 68007, Note_off_c, 1, 74, 0
1, 68020, Note_on_c, 1, 81, 127
1, 68025, Note_off_c, 1, 79, 0
1, 68057, Note_off_c, 1, 57, 0
1, 68097, Note_off_c, 1, 81, 0
1, 68155, Note_on_c, 1, 70, 127
1, 68157, Note_on_c, 1, 74, 127
1, 68166, Note_on_c, 1, 58, 127
1, 68263, Note_off_c, 1, 58, 0
1, 68327, Note_off_c, 1, 70, 0
1, 68378, Note_off_c, 1, 74, 0
1, 68386, Note_on_c, 1, 69, 127
1, 68393, Note_on_c, 1, 72, 127
1, 68395, Note_on_c, 1, 60, 127
1, 68479, Note_off_c, 1, 69, 0
1, 68480, Note_on_c, 1, 67, 127
1, 68484, Note_off_c, 1, 72, 0
1, 68488, Note_off_c, 1, 60, 0
1, 68508, Note_on_c, 1, 70, 127
1, 68541, Note_off_c, 1, 67, 0
1, 68590, Note_off_c, 1, 70, 0
1, 68605, Note_on_c, 1, 62, 127
1, 68627, Note_on_c, 1, 72, 127
1, 68720, Note_off_c, 1, 62, 0
1, 68740, Note_on_c, 1, 70, 127
1, 68742, Note_off_c, 1, 72, 0
1, 68837, Note_off_c, 1, 70, 0
1, 68865, Note_on_c, 1, 66, 127
1, 68865, Note_on_c, 1, 50, 127
1, 68870, Note_on_c, 1, 69, 127
1, 68945, Note_off_c, 1, 66, 0
1, 68960, Note_off_c, 1, 50, 0
1, 68980, Note_off_c, 1, 69, 0
1, 68983, Note_on_c, 1, 70, 127
1, 69071, Note_off_c, 1, 70, 0
1, 69102, Note_on_c, 1, 55, 127
1, 69117, Note_on_c, 1, 67, 127
1, 69199, Note_off_c, 1, 55, 0
1, 69353, Note_on_c, 1, 50, 127
1, 69430, Note_off_c, 1, 50, 0
1, 69601, Note_on_c, 1, 43, 127
1, 69654, Note_off_c, 1, 67, 0
1, 69696, Note_off_c, 1, 43, 0
1, 69824, Note_on_c, 1, 67, 127
1, 69833, Note_on_c, 1, 53, 127
1, 69921, Note_off_c, 1, 53, 0
1, 69930, Note_on_c, 1, 68, 127
1, 69940, Note_off_c, 1, 67, 0
1, 70036, Note_off_c, 1, 68, 0
1, 70069, Note_on_c, 1, 70, 127
1, 70082, Note_on_c, 1, 52, 127
1, 70167, Note_off_c, 1, 70, 0
1, 70181, Note_on_c, 1, 72, 127
1, 70270, Note_off_c, 1, 72, 0
1, 70310, Note_on_c, 1, 73, 127
1, 70312, Note_on_c, 1, 67, 127
1, 70411, Note_on_c, 1, 68, 127
1, 70435, Note_off_c, 1, 67, 0
1, 70462, Note_off_c, 1, 52, 0
1, 70540, Note_off_c, 1, 68, 0
1, 70555, Note_on_c, 1, 55, 127
1, 70669, Note_off_c, 1, 73, 0
1, 70899, Note_off_c, 1, 55, 0
1, 70983, Note_on_c, 1, 76, 127
1, 71036, Note_on_c, 1, 48, 127
1, 71099, Note_off_c, 1, 76, 0
1, 71144, Note_off_c, 1, 48, 0
1, 71241, Note_on_c, 1, 72, 127
1, 71250, Note_on_c, 1, 77, 127
1, 71252, Note_on_c, 1, 56, 127
1, 71341, Note_on_c, 1, 70, 127
1, 71354, Note_off_c, 1, 56, 0
1, 71364, Note_off_c, 1, 72, 0
1, 71462, Note_on_c, 1, 68, 127
1, 71497, Note_on_c, 1, 50, 127
1, 71504, Note_off_c, 1, 70, 0
1, 71561, Note_off_c, 1, 68, 0
1, 71584, Note_on_c, 1, 65, 127
1, 71603, Note_off_c, 1, 50, 0
1, 71639, Note_off_c, 1, 77, 0
1, 71663, Note_off_c, 1, 65, 0
1, 71720, Note_on_c, 1, 74, 127
1, 71738, Note_on_c, 1, 59, 127
1, 71758, Note_on_c, 1, 79, 127
1, 71846, Note_off_c, 1, 59, 0
1, 71875, Note_on_c, 1, 80, 127
1, 71877, Note_off_c, 1, 79, 0
1, 71948, Note_off_c, 1, 80, 0
1, 71977, Note_on_c, 1, 51, 127
1, 72089, Note_off_c, 1, 51, 0
1, 72096, Note_on_c, 1, 77, 127
1, 72195, Note_off_c, 1, 74, 0
1, 72204, Note_off_c, 1, 77, 0
1, 72225, Note_on_c, 1, 75, 127
1, 72228, Note_on_c, 1, 60, 127
1, 72233, Note_on_c, 1, 72, 127
1, 72332, Note_off_c, 1, 60, 0
1, 72341, Note_on_c, 1, 70, 127
1, 72346, Note_off_c, 1, 75, 0
1, 72348, Note_on_c, 1, 79, 127
1, 72363, Note_off_c, 1, 72, 0
1, 72456, Note_on_c, 1, 68, 127
1, 72473, Note_off_c, 1, 79, 0
1, 72482, Note_on_c, 1, 77, 127
1, 72491, Note_on_c, 1, 53, 127
1, 72502, Note_off_c, 1, 70, 0
1, 72571, Note_on_c, 1, 67, 127
1, 72580, Note_off_c, 1, 68, 0
1, 72588, Note_off_c, 1, 53, 0
1, 72608, Note_off_c, 1, 77, 0
1, 72683, Note_on_c, 1, 65, 127
1, 72718, Note_off_c, 1, 67, 0
1, 72725, Note_on_c, 1, 62, 127
1, 72741, Note_on_c, 1, 74, 127
1, 72824, Note_on_c, 1, 63, 127
1, 72829, Note_off_c, 1, 62, 0
1, 72834, Note_off_c, 1, 65, 0
1, 72853, Note_off_c, 1, 74, 0
1, 72924, Note_off_c, 1, 63, 0
1, 72958, Note_on_c, 1, 55, 127
1, 72988, Note_on_c, 1, 71, 127
1, 73070, Note_off_c, 1, 55, 0
1, 73089, Note_off_c, 1, 71, 0
1, 73096, Note_on_c, 1, 69, 127
1, 73215, Note_off_c, 1, 69, 0
1, 73410, Note_on_c, 1, 51, 127
1, 73502, Note_off_c, 1, 51, 0
1, 73666, Note_on_c, 1, 50, 127
1, 73754, Note_off_c, 1, 50, 0
1, 73884, Note_on_c, 1, 67, 127
1, 73902, Note_on_c, 1, 75, 127
1, 73909, Note_on_c, 1, 48, 127
1, 73959, Note_off_c, 1, 67, 0
1, 74001, Note_off_c, 1, 75, 0
1, 74147, Note_on_c, 1, 65, 127
1, 74158, Note_on_c, 1, 74, 127
1, 74297, Note_off_c, 1, 48, 0
1, 74408, Note_on_c, 1, 43, 127
1, 74518, Note_off_c, 1, 74, 0
1, 74538, Note_off_c, 1, 65, 0
1, 74617, Note_on_c, 1, 72, 127
1, 74631, Note_on_c, 1, 63, 127
1, 74714, Note_on_c, 1, 71, 127
1, 74721, Note_off_c, 1, 72, 0
1, 74725, Note_off_c, 1, 63, 0
1, 74734, Note_on_c, 1, 62, 127
1, 74787, Note_off_c, 1, 43, 0
1, 74812, Note_off_c, 1, 71, 0
1, 74836, Note_off_c, 1, 62, 0
1, 74849, Note_on_c, 1, 72, 127
1, 74862, Note_on_c, 1, 63, 127
1, 74871, Note_on_c, 1, 51, 127
1, 75020, Note_off_c, 1, 72, 0
1, 75021, Note_off_c, 1, 63, 0
1, 75059, Note_off_c, 1, 51, 0
1, 75074, Note_on_c, 1, 65, 127
1, 75079, Note_on_c, 1, 74, 127
1, 75103, Note_on_c, 1, 50, 127
1, 75132, Note_on_c, 1, 75, 127
1, 75145, Note_on_c, 1, 67, 127
1, 75156, Note_off_c, 1, 74, 0
1, 75169, Note_off_c, 1, 65, 0
1, 75188, Note_off_c, 1, 50, 0
1, 75198, Note_on_c, 1, 77, 127
1, 75213, Note_on_c, 1, 48, 127
1, 75225, Note_off_c, 1, 75, 0
1, 75231, Note_on_c, 1, 68, 127
1, 75244, Note_off_c, 1, 67, 0
1, 75302, Note_off_c, 1, 48, 0
1, 75331, Note_on_c, 1, 47, 127
1, 75428, Note_off_c, 1, 47, 0
1, 75525, Note_off_c, 1, 77, 0
1, 75536, Note_off_c, 1, 68, 0
1, 75580, Note_on_c, 1, 75, 127
1, 75587, Note_on_c, 1, 67, 127
1, 75587, Note_on_c, 1, 43, 127
1, 75682, Note_off_c, 1, 43, 0
1, 75682, Note_on_c, 1, 65, 127
1, 75684, Note_off_c, 1, 75, 0
1, 75684, Note_off_c, 1, 67, 0
1, 75686, Note_on_c, 1, 74, 127
1, 75772, Note_off_c, 1, 65, 0
1, 75777, Note_off_c, 1, 74, 0
1, 75816, Note_on_c, 1, 75, 127
1, 75818, Note_on_c, 1, 67, 127
1, 75832, Note_on_c, 1, 48, 127
1, 75913, Note_off_c, 1, 75, 0
1, 75920, Note_on_c, 1, 63, 127
1, 75927, Note_off_c, 1, 67, 0
1, 75933, Note_on_c, 1, 72, 127
1, 76000, Note_off_c, 1, 63, 0
1, 76002, Note_off_c, 1, 72, 0
1, 76008, Note_off_c, 1, 48, 0
1, 76050, Note_on_c, 1, 65, 127
1, 76064, Note_on_c, 1, 74, 127
1, 76064, Note_on_c, 1, 44, 127
1, 76152, Note_off_c, 1, 44, 0
1, 76163, Note_on_c, 1, 41, 127
1, 76242, Note_off_c, 1, 41, 0
1, 76311, Note_on_c, 1, 43, 127
1, 76408, Note_off_c, 1, 43, 0
1, 76415, Note_off_c, 1, 65, 0
1, 76435, Note_off_c, 1, 74, 0
1, 76527, Note_on_c, 1, 72, 127
1, 76538, Note_on_c, 1, 63, 127
1, 76559, Note_on_c, 1, 43, 127
1, 76631, Note_off_c, 1, 72, 0
1, 76641, Note_on_c, 1, 62, 127
1, 76642, Note_off_c, 1, 63, 0
1, 76642, Note_on_c, 1, 71, 127
1, 76655, Note_off_c, 1, 43, 0
1, 76730, Note_off_c, 1, 62, 0
1, 76737, Note_off_c, 1, 71, 0
1, 76781, Note_on_c, 1, 72, 127
1, 76781, Note_on_c, 1, 63, 127
1, 76814, Note_on_c, 1, 36, 127
1, 77247, Note_off_c, 1, 72, 0
1, 77287, Note_off_c, 1, 63, 0
1, 77296, Note_off_c, 1, 36, 0
1, 77508, Note_on_c, 1, 70, 127
1, 77511, Note_on_c, 1, 79, 127
1, 77527, Note_on_c, 1, 51, 127
1, 77594, Note_off_c, 1, 79, 0
1, 77594, Note_on_c, 1, 69, 127
1, 77605, Note_off_c, 1, 70, 0
1, 77611, Note_on_c, 1, 77, 127
1, 77622, Note_off_c, 1, 51, 0
1, 77693, Note_off_c, 1, 77, 0
1, 77706, Note_off_c, 1, 69, 0
1, 77735, Note_on_c, 1, 70, 127
1, 77753, Note_on_c, 1, 79, 127
1, 77764, Note_on_c, 1, 50, 127
1, 77843, Note_off_c, 1, 79, 0
1, 77852, Note_off_c, 1, 70, 0
1, 77998, Note_on_c, 1, 72, 127
1, 78000, Note_on_c, 1, 81, 127
1, 78119, Note_off_c, 1, 50, 0
1, 78247, Note_on_c, 1, 48, 127
1, 78362, Note_off_c, 1, 72, 0
1, 78389, Note_off_c, 1, 81, 0
1, 78477, Note_on_c, 1, 74, 127
1, 78490, Note_on_c, 1, 82, 127
1, 78560, Note_off_c, 1, 48, 0
1, 78574, Note_off_c, 1, 74, 0
1, 78574, Note_on_c, 1, 75, 127
1, 78616, Note_off_c, 1, 82, 0
1, 78673, Note_off_c, 1, 75, 0
1, 78715, Note_on_c, 1, 77, 127
1, 78722, Note_on_c, 1, 74, 127
1, 78731, Note_on_c, 1, 46, 127
1, 78815, Note_off_c, 1, 74, 0
1, 78828, Note_on_c, 1, 72, 127
1, 78857, Note_off_c, 1, 46, 0
1, 78896, Note_off_c, 1, 77, 0
1, 78941, Note_on_c, 1, 58, 127
1, 78956, Note_off_c, 1, 72, 0
1, 78960, Note_on_c, 1, 70, 127
1, 79047, Note_off_c, 1, 58, 0
1, 79051, Note_on_c, 1, 75, 127
1, 79069, Note_off_c, 1, 70, 0
1, 79181, Note_off_c, 1, 75, 0
1, 79183, Note_on_c, 1, 56, 127
1, 79278, Note_off_c, 1, 56, 0
1, 79409, Note_on_c, 1, 55, 127
1, 79482, Note_off_c, 1, 55, 0
1, 79526, Note_on_c, 1, 79, 127
1, 79561, Note_on_c, 1, 76, 127
1, 79629, Note_off_c, 1, 79, 0
1, 79643, Note_on_c, 1, 80, 127
1, 79649, Note_off_c, 1, 76, 0
1, 79660, Note_on_c, 1, 53, 127
1, 79758, Note_off_c, 1, 80, 0
1, 79824, Note_off_c, 1, 53, 0
1, 79877, Note_on_c, 1, 49, 127
1, 79914, Note_on_c, 1, 82, 127
1, 79914, Note_on_c, 1, 79, 127
1, 79992, Note_on_c, 1, 46, 127
1, 79998, Note_off_c, 1, 49, 0
1, 80076, Note_off_c, 1, 46, 0
1, 80126, Note_on_c, 1, 48, 127
1, 80237, Note_off_c, 1, 48, 0
1, 80307, Note_off_c, 1, 79, 0
1, 80310, Note_off_c, 1, 82, 0
1, 80374, Note_on_c, 1, 80, 127
1, 80385, Note_on_c, 1, 77, 127
1, 80387, Note_on_c, 1, 36, 127
1, 80462, Note_off_c, 1, 80, 0
1, 80477, Note_off_c, 1, 36, 0
1, 80478, Note_on_c, 1, 79, 127
1, 80491, Note_on_c, 1, 76, 127
1, 80497, Note_off_c, 1, 77, 0
1, 80570, Note_off_c, 1, 79, 0
1, 80572, Note_off_c, 1, 76, 0
1, 80623, Note_on_c, 1, 80, 127
1, 80623, Note_on_c, 1, 77, 127
1, 80632, Note_on_c, 1, 41, 127
1, 80727, Note_off_c, 1, 77, 0
1, 80731, Note_on_c, 1, 79, 127
1, 80745, Note_off_c, 1, 80, 0
1, 80747, Note_off_c, 1, 41, 0
1, 80853, Note_off_c, 1, 79, 0
1, 80858, Note_on_c, 1, 77, 127
1, 80877, Note_on_c, 1, 53, 127
1, 80879, Note_on_c, 1, 72, 127
1, 80959, Note_off_c, 1, 53, 0
1, 80961, Note_on_c, 1, 80, 127
1, 80968, Note_off_c, 1, 72, 0
1, 80976, Note_off_c, 1, 77, 0
1, 81091, Note_on_c, 1, 79, 127
1, 81100, Note_off_c, 1, 80, 0
1, 81104, Note_on_c, 1, 47, 127
1, 81113, Note_on_c, 1, 74, 127
1, 81208, Note_off_c, 1, 74, 0
1, 81210, Note_off_c, 1, 79, 0
1, 81217, Note_off_c, 1, 47, 0
1, 81343, Note_on_c, 1, 75, 127
1, 81345, Note_on_c, 1, 55, 127
1, 81352, Note_on_c, 1, 71, 127
1, 81444, Note_off_c, 1, 55, 0
1, 81444, Note_off_c, 1, 71, 0
1, 81451, Note_on_c, 1, 74, 127
1, 81452, Note_off_c, 1, 75, 0
1, 81546, Note_off_c, 1, 74, 0
1, 81584, Note_on_c, 1, 75, 127
1, 81603, Note_on_c, 1, 72, 127
1, 81608, Note_on_c, 1, 60, 127
1, 81692, Note_off_c, 1, 75, 0
1, 81692, Note_on_c, 1, 71, 127
1, 81701, Note_on_c, 1, 74, 127
1, 81714, Note_off_c, 1, 72, 0
1, 81789, Note_off_c, 1, 74, 0
1, 81798, Note_off_c, 1, 71, 0
1, 81835, Note_on_c, 1, 77, 127
1, 82001, Note_off_c, 1, 60, 0
1, 82087, Note_on_c, 1, 59, 127
1, 82231, Note_off_c, 1, 77, 0
1, 82317, Note_on_c, 1, 67, 127
1, 82407, Note_off_c, 1, 67, 0
1, 82478, Note_off_c, 1, 59, 0
1, 82537, Note_on_c, 1, 75, 127
1, 82562, Note_on_c, 1, 72, 127
1, 82568, Note_on_c, 1, 60, 127
1, 82620, Note_off_c, 1, 75, 0
1, 82650, Note_off_c, 1, 72, 0
1, 82663, Note_on_c, 1, 67, 127
1, 82743, Note_off_c, 1, 67, 0
1, 82787, Note_on_c, 1, 78, 127
1, 82959, Note_off_c, 1, 60, 0
1, 83050, Note_on_c, 1, 57, 127
1, 83215, Note_off_c, 1, 78, 0
1, 83248, Note_on_c, 1, 74, 127
1, 83279, Note_on_c, 1, 79, 127
1, 83357, Note_off_c, 1, 74, 0
1, 83381, Note_off_c, 1, 79, 0
1, 83385, Note_on_c, 1, 81, 127
1, 83418, Note_off_c, 1, 57, 0
1, 83467, Note_off_c, 1, 81, 0
1, 83505, Note_on_c, 1, 70, 127
1, 83507, Note_on_c, 1, 58, 127
1, 83518, Note_on_c, 1, 74, 127
1, 83604, Note_off_c, 1, 58, 0
1, 83686, Note_off_c, 1, 70, 0
1, 83725, Note_off_c, 1, 74, 0
1, 83739, Note_on_c, 1, 60, 127
1, 83743, Note_on_c, 1, 69, 127
1, 83758, Note_on_c, 1, 72, 127
1, 83825, Note_off_c, 1, 69, 0
1, 83829, Note_off_c, 1, 60, 0
1, 83845, Note_on_c, 1, 67, 127
1, 83849, Note_off_c, 1, 72, 0
1, 83867, Note_on_c, 1, 70, 127
1, 83900, Note_off_c, 1, 67, 0
1, 83951, Note_off_c, 1, 70, 0
1, 83970, Note_on_c, 1, 62, 127
1, 83992, Note_on_c, 1, 72, 127
1, 84076, Note_off_c, 1, 62, 0
1, 84098, Note_on_c, 1, 70, 127
1, 84110, Note_off_c, 1, 72, 0
1, 84218, Note_on_c, 1, 66, 127
1, 84227, Note_on_c, 1, 69, 127
1, 84227, Note_on_c, 1, 50, 127
1, 84233, Note_off_c, 1, 70, 0
1, 84305, Note_off_c, 1, 66, 0
1, 84324, Note_off_c, 1, 69, 0
1, 84324, Note_off_c, 1, 50, 0
1, 84339, Note_on_c, 1, 70, 127
1, 84430, Note_off_c, 1, 70, 0
1, 84469, Note_on_c, 1, 67, 127
1, 84472, Note_on_c, 1, 55, 127
1, 84582, Note_off_c, 1, 55, 0
1, 84710, Note_on_c, 1, 50, 127
1, 84805, Note_off_c, 1, 50, 0
1, 84955, Note_on_c, 1, 43, 127
1, 85010, Note_off_c, 1, 67, 0
1, 85057, Note_off_c, 1, 43, 0
1, 85191, Note_on_c, 1, 67, 127
1, 85194, Note_on_c, 1, 53, 127
1, 85271, Note_off_c, 1, 53, 0
1, 85291, Note_off_c, 1, 67, 0
1, 85291, Note_on_c, 1, 68, 127
1, 85411, Note_off_c, 1, 68, 0
1, 85417, Note_on_c, 1, 70, 127
1, 85430, Note_on_c, 1, 52, 127
1, 85507, Note_off_c, 1, 70, 0
1, 85525, Note_on_c, 1, 72, 127
1, 85637, Note_off_c, 1, 72, 0
1, 85657, Note_on_c, 1, 73, 127
1, 85666, Note_on_c, 1, 67, 127
1, 85768, Note_on_c, 1, 68, 127
1, 85790, Note_off_c, 1, 67, 0
1, 85807, Note_off_c, 1, 52, 0
1, 85885, Note_off_c, 1, 68, 0
1, 85924, Note_on_c, 1, 55, 127
1, 86013, Note_off_c, 1, 73, 0
1, 86258, Note_off_c, 1, 55, 0
1, 86349, Note_on_c, 1, 76, 127
1, 86401, Note_on_c, 1, 48, 127
1, 86463, Note_off_c, 1, 76, 0
1, 86507, Note_off_c, 1, 48, 0
1, 86596, Note_on_c, 1, 72, 127
1, 86600, Note_on_c, 1, 77, 127
1, 86609, Note_on_c, 1, 56, 127
1, 86695, Note_off_c, 1, 56, 0
1, 86705, Note_on_c, 1, 70, 127
1, 86711, Note_off_c, 1, 72, 0
1, 86821, Note_on_c, 1, 68, 127
1, 86836, Note_off_c, 1, 70, 0
1, 86847, Note_on_c, 1, 50, 127
1, 86923, Note_off_c, 1, 68, 0
1, 86949, Note_on_c, 1, 65, 127
1, 86959, Note_off_c, 1, 50, 0
1, 86964, Note_off_c, 1, 77, 0
1, 87031, Note_off_c, 1, 65, 0
1, 87090, Note_on_c, 1, 74, 127
1, 87095, Note_on_c, 1, 59, 127
1, 87115, Note_on_c, 1, 79, 127
1, 87187, Note_off_c, 1, 59, 0
1, 87227, Note_on_c, 1, 80, 127
1, 87238, Note_off_c, 1, 79, 0
1, 87327, Note_off_c, 1, 80, 0
1, 87362, Note_on_c, 1, 51, 127
1, 87455, Note_on_c, 1, 77, 127
1, 87470, Note_off_c, 1, 51, 0
1, 87541, Note_off_c, 1, 74, 0
1, 87580, Note_off_c, 1, 77, 0
1, 87588, Note_on_c, 1, 75, 127
1, 87589, Note_on_c, 1, 72, 127
1, 87594, Note_on_c, 1, 60, 127
1, 87695, Note_off_c, 1, 60, 0
1, 87698, Note_off_c, 1, 75, 0
1, 87698, Note_on_c, 1, 70, 127
1, 87709, Note_on_c, 1, 79, 127
1, 87724, Note_off_c, 1, 72, 0
1, 87822, Note_on_c, 1, 68, 127
1, 87828, Note_on_c, 1, 77, 127
1, 87839, Note_on_c, 1, 53, 127
1, 87841, Note_off_c, 1, 79, 0
1, 87856, Note_off_c, 1, 70, 0
1, 87930, Note_on_c, 1, 67, 127
1, 87943, Note_off_c, 1, 53, 0
1, 87945, Note_off_c, 1, 68, 0
1, 87954, Note_off_c, 1, 77, 0
1, 88053, Note_on_c, 1, 65, 127
1, 88065, Note_off_c, 1, 67, 0
1, 88071, Note_on_c, 1, 62, 127
1, 88084, Note_on_c, 1, 74, 127
1, 88172, Note_off_c, 1, 62, 0
1, 88183, Note_off_c, 1, 65, 0
1, 88186, Note_on_c, 1, 63, 127
1, 88197, Note_off_c, 1, 74, 0
1, 88283, Note_off_c, 1, 63, 0
1, 88303, Note_on_c, 1, 62, 127
1, 88320, Note_on_c, 1, 55, 127
1, 88327, Note_on_c, 1, 71, 127
1, 88418, Note_on_c, 1, 60, 127
1, 88420, Note_off_c, 1, 62, 0
1, 88426, Note_off_c, 1, 71, 0
1, 88429, Note_on_c, 1, 69, 127
1, 88439, Note_off_c, 1, 55, 0
1, 88514, Note_off_c, 1, 60, 0
1, 88552, Note_off_c, 1, 69, 0
1, 88559, Note_on_c, 1, 53, 127
1, 88649, Note_on_c, 1, 63, 127
1, 88668, Note_on_c, 1, 72, 127
1, 88673, Note_off_c, 1, 53, 0
1, 88733, Note_off_c, 1, 63, 0
1, 88764, Note_off_c, 1, 72, 0
1, 88782, Note_on_c, 1, 65, 127
1, 88786, Note_on_c, 1, 51, 127
1, 88790, Note_on_c, 1, 74, 127
1, 88892, Note_off_c, 1, 51, 0
1, 88894, Note_off_c, 1, 65, 0
1, 88894, Note_on_c, 1, 67, 127
1, 88901, Note_on_c, 1, 75, 127
1, 88910, Note_off_c, 1, 74, 0
1, 89000, Note_off_c, 1, 67, 0
1, 89011, Note_on_c, 1, 68, 127
1, 89018, Note_on_c, 1, 77, 127
1, 89031, Note_on_c, 1, 50, 127
1, 89033, Note_off_c, 1, 75, 0
1, 89117, Note_off_c, 1, 68, 0
1, 89138, Note_off_c, 1, 50, 0
1, 89146, Note_off_c, 1, 77, 0
1, 89259, Note_on_c, 1, 75, 127
1, 89272, Note_on_c, 1, 67, 127
1, 89278, Note_on_c, 1, 48, 127
1, 89345, Note_off_c, 1, 75, 0
1, 89360, Note_off_c, 1, 67, 0
1, 89508, Note_on_c, 1, 74, 127
1, 89515, Note_on_c, 1, 65, 127
1, 89636, Note_off_c, 1, 48, 0
1, 89784, Note_on_c, 1, 43, 127
1, 89879, Note_off_c, 1, 65, 0
1, 89890, Note_off_c, 1, 74, 0
1, 89967, Note_on_c, 1, 72, 127
1, 89987, Note_on_c, 1, 63, 127
1, 90064, Note_on_c, 1, 71, 127
1, 90073, Note_off_c, 1, 72, 0
1, 90078, Note_off_c, 1, 63, 0
1, 90084, Note_on_c, 1, 62, 127
1, 90126, Note_off_c, 1, 43, 0
1, 90157, Note_off_c, 1, 71, 0
1, 90193, Note_off_c, 1, 62, 0
1, 90197, Note_on_c, 1, 72, 127
1, 90221, Note_on_c, 1, 63, 127
1, 90224, Note_on_c, 1, 51, 127
1, 90380, Note_off_c, 1, 72, 0
1, 90380, Note_off_c, 1, 63, 0
1, 90420, Note_off_c, 1, 51, 0
1, 90458, Note_on_c, 1, 65, 127
1, 90460, Note_on_c, 1, 74, 127
1, 90471, Note_on_c, 1, 50, 127
1, 90511, Note_on_c, 1, 75, 127
1, 90528, Note_on_c, 1, 67, 127
1, 90530, Note_off_c, 1, 74, 0
1, 90550, Note_off_c, 1, 50, 0
1, 90552, Note_off_c, 1, 65, 0
1, 90581, Note_on_c, 1, 48, 127
1, 90583, Note_on_c, 1, 77, 127
1, 90603, Note_on_c, 1, 68, 127
1, 90610, Note_off_c, 1, 75, 0
1, 90621, Note_off_c, 1, 67, 0
1, 90678, Note_off_c, 1, 48, 0
1, 90700, Note_on_c, 1, 47, 127
1, 90780, Note_off_c, 1, 47, 0
1, 90915, Note_off_c, 1, 68, 0
1, 90921, Note_off_c, 1, 77, 0
1, 90954, Note_on_c, 1, 43, 127
1, 90970, Note_on_c, 1, 75, 127
1, 90985, Note_on_c, 1, 67, 127
1, 91060, Note_off_c, 1, 75, 0
1, 91067, Note_on_c, 1, 74, 127
1, 91076, Note_off_c, 1, 43, 0
1, 91076, Note_off_c, 1, 67, 0
1, 91098, Note_on_c, 1, 65, 127
1, 91153, Note_off_c, 1, 74, 0
1, 91174, Note_off_c, 1, 65, 0
1, 91186, Note_on_c, 1, 48, 127
1, 91193, Note_on_c, 1, 75, 127
1, 91208, Note_on_c, 1, 67, 127
1, 91281, Note_off_c, 1, 75, 0
1, 91281, Note_off_c, 1, 67, 0
1, 91303, Note_on_c, 1, 72, 127
1, 91310, Note_on_c, 1, 63, 127
1, 91372, Note_off_c, 1, 72, 0
1, 91378, Note_off_c, 1, 48, 0
1, 91378, Note_off_c, 1, 63, 0
1, 91431, Note_on_c, 1, 74, 127
1, 91431, Note_on_c, 1, 44, 127
1, 91443, Note_on_c, 1, 65, 127
1, 91528, Note_off_c, 1, 44, 0
1, 91528, Note_on_c, 1, 41, 127
1, 91615, Note_off_c, 1, 41, 0
1, 91668, Note_on_c, 1, 43, 127
1, 91778, Note_off_c, 1, 43, 0
1, 91785, Note_off_c, 1, 65, 0
1, 91820, Note_off_c, 1, 74, 0
1, 91889, Note_on_c, 1, 72, 127
1, 91899, Note_on_c, 1, 63, 127
1, 91913, Note_on_c, 1, 43, 127
1, 91988, Note_off_c, 1, 63, 0
1, 91990, Note_off_c, 1, 72, 0
1, 91992, Note_on_c, 1, 71, 127
1, 92003, Note_on_c, 1, 62, 127
1, 92008, Note_off_c, 1, 43, 0
1, 92080, Note_off_c, 1, 71, 0
1, 92083, Note_off_c, 1, 62, 0
1, 92138, Note_on_c, 1, 72, 127
1, 92144, Note_on_c, 1, 63, 127
1, 92164, Note_on_c, 1, 36, 127
1, 92626, Note_off_c, 1, 63, 0
1, 92638, Note_off_c, 1, 72, 0
1, 92679, Note_off_c, 1, 36, 0
1, 92871, Note_on_c, 1, 64, 127
1, 92967, Note_on_c, 1, 65, 127
1, 92979, Note_off_c, 1, 64, 0
1, 93072, Note_off_c, 1, 65, 0
1, 93090, Note_on_c, 1, 67, 127
1, 93209, Note_off_c, 1, 67, 0
1, 93343, Note_on_c, 1, 72, 127
1, 93346, Note_on_c, 1, 55, 127
1, 93355, Note_on_c, 1, 48, 127
1, 93372, Note_on_c, 1, 64, 127
1, 93433, Note_off_c, 1, 55, 0
1, 93463, Note_off_c, 1, 64, 0
1, 93468, Note_on_c, 1, 65, 127
1, 93471, Note_on_c, 1, 50, 127
1, 93473, Note_off_c, 1, 48, 0
1, 93550, Note_off_c, 1, 65, 0
1, 93569, Note_off_c, 1, 50, 0
1, 93580, Note_on_c, 1, 60, 127
1, 93591, Note_on_c, 1, 52, 127
1, 93593, Note_on_c, 1, 67, 127
1, 93653, Note_off_c, 1, 72, 0
1, 93679, Note_off_c, 1, 67, 0
1, 93694, Note_off_c, 1, 52, 0
1, 93715, Note_off_c, 1, 60, 0
1, 93821, Note_on_c, 1, 67, 127
1, 93821, Note_on_c, 1, 62, 127
1, 93828, Note_on_c, 1, 59, 127
1, 93828, Note_on_c, 1, 55, 127
1, 93923, Note_off_c, 1, 55, 0
1, 93927, Note_off_c, 1, 59, 0
1, 93934, Note_off_c, 1, 67, 0
1, 93934, Note_off_c, 1, 62, 0
1, 94059, Note_on_c, 1, 64, 127
1, 94078, Note_on_c, 1, 60, 127
1, 94169, Note_on_c, 1, 62, 127
1, 94174, Note_on_c, 1, 59, 127
1, 94191, Note_off_c, 1, 60, 0
1, 94248, Note_off_c, 1, 64, 0
1, 94287, Note_on_c, 1, 67, 127
1, 94291, Note_off_c, 1, 59, 0
1, 94299, Note_off_c, 1, 62, 0
1, 94306, Note_on_c, 1, 55, 127
1, 94383, Note_off_c, 1, 67, 0
1, 94395, Note_on_c, 1, 65, 127
1, 94399, Note_off_c, 1, 55, 0
1, 94527, Note_off_c, 1, 65, 0
1, 94551, Note_on_c, 1, 48, 127
1, 94642, Note_off_c, 1, 48, 0
1, 94770, Note_on_c, 1, 69, 127
1, 94779, Note_on_c, 1, 53, 127
1, 94781, Note_on_c, 1, 60, 127
1, 94783, Note_on_c, 1, 65, 127
1, 94863, Note_off_c, 1, 65, 0
1, 94872, Note_off_c, 1, 53, 0
1, 94872, Note_on_c, 1, 71, 127
1, 94887, Note_off_c, 1, 60, 0
1, 94889, Note_off_c, 1, 69, 0
1, 94997, Note_on_c, 1, 72, 127
1, 95005, Note_off_c, 1, 71, 0
1, 95007, Note_on_c, 1, 52, 127
1, 95028, Note_on_c, 1, 67, 127
1, 95107, Note_off_c, 1, 72, 0
1, 95119, Note_on_c, 1, 74, 127
1, 95127, Note_off_c, 1, 67, 0
1, 95129, Note_off_c, 1, 52, 0
1, 95223, Note_on_c, 1, 76, 127
1, 95230, Note_off_c, 1, 74, 0
1, 95242, Note_on_c, 1, 50, 127
1, 95347, Note_off_c, 1, 76, 0
1, 95350, Note_off_c, 1, 50, 0
1, 95350, Note_on_c, 1, 77, 127
1, 95451, Note_off_c, 1, 77, 0
1, 95472, Note_on_c, 1, 52, 127
1, 95479, Note_on_c, 1, 64, 127
1, 95482, Note_on_c, 1, 79, 127
1, 95503, Note_on_c, 1, 72, 127
1, 95587, Note_off_c, 1, 72, 0
1, 95592, Note_off_c, 1, 64, 0
1, 95602, Note_off_c, 1, 52, 0
1, 95607, Note_off_c, 1, 79, 0
1, 95710, Note_on_c, 1, 60, 127
1, 95715, Note_on_c, 1, 53, 127
1, 95734, Note_on_c, 1, 72, 127
1, 95736, Note_on_c, 1, 81, 127
1, 95820, Note_off_c, 1, 60, 0
1, 95825, Note_off_c, 1, 72, 0
1, 95832, Note_off_c, 1, 53, 0
1, 95839, Note_off_c, 1, 81, 0
1, 95957, Note_on_c, 1, 67, 127
1, 95970, Note_on_c, 1, 55, 127
1, 95976, Note_on_c, 1, 74, 127
1, 95988, Note_on_c, 1, 71, 127
1, 96072, Note_off_c, 1, 67, 0
1, 96087, Note_on_c, 1, 72, 127
1, 96089, Note_off_c, 1, 71, 0
1, 96094, Note_off_c, 1, 74, 0
1, 96099, Note_off_c, 1, 55, 0
1, 96192, Note_off_c, 1, 72, 0
1, 96199, Note_on_c, 1, 74, 127
1, 96209, Note_on_c, 1, 57, 127
1, 96216, Note_on_c, 1, 66, 127
1, 96243, Note_on_c, 1, 72, 127
1, 96322, Note_off_c, 1, 66, 0
1, 96324, Note_off_c, 1, 74, 0
1, 96324, Note_on_c, 1, 76, 127
1, 96331, Note_off_c, 1, 57, 0
1, 96331, Note_off_c, 1, 72, 0
1, 96420, Note_off_c, 1, 76, 0
1, 96432, Note_on_c, 1, 59, 127
1, 96440, Note_on_c, 1, 67, 127
1, 96444, Note_on_c, 1, 74, 127
1, 96555, Note_off_c, 1, 67, 0
1, 96574, Note_off_c, 1, 59, 0
1, 96648, Note_off_c, 1, 74, 0
1, 96672, Note_on_c, 1, 67, 127
1, 96672, Note_on_c, 1, 60, 127
1, 96691, Note_on_c, 1, 76, 127
1, 96708, Note_on_c, 1, 72, 127
1, 96759, Note_off_c, 1, 67, 0
1, 96783, Note_on_c, 1, 69, 127
1, 96797, Note_off_c, 1, 72, 0
1, 96802, Note_off_c, 1, 76, 0
1, 96804, Note_off_c, 1, 60, 0
1, 96804, Note_on_c, 1, 78, 127
1, 96855, Note_off_c, 1, 69, 0
1, 96910, Note_on_c, 1, 71, 127
1, 96919, Note_off_c, 1, 78, 0
1, 96920, Note_on_c, 1, 59, 127
1, 96945, Note_on_c, 1, 79, 127
1, 96963, Note_on_c, 1, 74, 127
1, 97044, Note_off_c, 1, 59, 0
1, 97107, Note_off_c, 1, 79, 0
1, 97119, Note_off_c, 1, 71, 0
1, 97158, Note_on_c, 1, 57, 127
1, 97183, Note_off_c, 1, 74, 0
1, 97279, Note_off_c, 1, 57, 0
1, 97399, Note_on_c, 1, 55, 127
1, 97414, Note_on_c, 1, 74, 127
1, 97534, Note_off_c, 1, 55, 0
1, 97594, Note_off_c, 1, 74, 0
1, 97635, Note_on_c, 1, 54, 127
1, 97659, Note_on_c, 1, 67, 127
1, 97661, Note_on_c, 1, 76, 127
1, 97661, Note_on_c, 1, 59, 127
1, 97675, Note_on_c, 1, 74, 127
1, 97702, Note_off_c, 1, 74, 0
1, 97738, Note_off_c, 1, 67, 0
1, 97755, Note_off_c, 1, 59, 0
1, 97755, Note_on_c, 1, 69, 127
1, 97764, Note_off_c, 1, 54, 0
1, 97767, Note_off_c, 1, 76, 0
1, 97769, Note_on_c, 1, 78, 127
1, 97834, Note_off_c, 1, 69, 0
1, 97863, Note_off_c, 1, 78, 0
1, 97887, Note_on_c, 1, 71, 127
1, 97887, Note_on_c, 1, 52, 127
1, 97906, Note_on_c, 1, 79, 127
1, 97908, Note_on_c, 1, 64, 127
1, 98026, Note_off_c, 1, 52, 0
1, 98055, Note_off_c, 1, 79, 0
1, 98112, Note_off_c, 1, 64, 0
1, 98112, Note_on_c, 1, 50, 127
1, 98115, Note_off_c, 1, 71, 0
1, 98131, Note_on_c, 1, 69, 127
1, 98227, Note_off_c, 1, 69, 0
1, 98270, Note_off_c, 1, 50, 0
1, 98355, Note_on_c, 1, 52, 127
1, 98376, Note_on_c, 1, 72, 127
1, 98513, Note_off_c, 1, 72, 0
1, 98520, Note_off_c, 1, 52, 0
1, 98607, Note_on_c, 1, 54, 127
1, 98621, Note_on_c, 1, 69, 127
1, 98621, Note_on_c, 1, 57, 127
1, 98635, Note_on_c, 1, 74, 127
1, 98710, Note_off_c, 1, 69, 0
1, 98715, Note_off_c, 1, 57, 0
1, 98731, Note_off_c, 1, 74, 0
1, 98739, Note_off_c, 1, 54, 0
1, 98856, Note_on_c, 1, 55, 127
1, 98859, Note_on_c, 1, 67, 127
1, 98875, Note_on_c, 1, 62, 127
1, 98878, Note_on_c, 1, 71, 127
1, 98957, Note_off_c, 1, 67, 0
1, 98976, Note_off_c, 1, 55, 0
1, 98986, Note_off_c, 1, 62, 0
1, 99100, Note_on_c, 1, 64, 127
1, 99103, Note_on_c, 1, 48, 127
1, 99173, Note_off_c, 1, 71, 0
1, 99204, Note_on_c, 1, 69, 127
1, 99211, Note_off_c, 1, 64, 0
1, 99219, Note_off_c, 1, 48, 0
1, 99286, Note_off_c, 1, 69, 0
1, 99317, Note_on_c, 1, 71, 127
1, 99334, Note_on_c, 1, 67, 127
1, 99348, Note_on_c, 1, 62, 127
1, 99348, Note_on_c, 1, 50, 127
1, 99372, Note_on_c, 1, 69, 127
1, 99401, Note_off_c, 1, 71, 0
1, 99423, Note_off_c, 1, 67, 0
1, 99430, Note_off_c, 1, 62, 0
1, 99449, Note_on_c, 1, 72, 127
1, 99456, Note_off_c, 1, 50, 0
1, 99461, Note_off_c, 1, 69, 0
1, 99463, Note_off_c, 1, 72, 0
1, 99564, Note_on_c, 1, 66, 127
1, 99579, Note_on_c, 1, 60, 127
1, 99583, Note_on_c, 1, 38, 127
1, 99651, Note_off_c, 1, 66, 0
1, 99667, Note_off_c, 1, 60, 0
1, 99677, Note_off_c, 1, 38, 0
1, 99682, Note_on_c, 1, 67, 127
1, 99771, Note_off_c, 1, 67, 0
1, 99798, Note_on_c, 1, 67, 127
1, 99823, Note_on_c, 1, 62, 127
1, 99831, Note_on_c, 1, 59, 127
1, 99840, Note_on_c, 1, 43, 127
1, 99942, Note_off_c, 1, 43, 0
1, 100057, Note_on_c, 1, 50, 127
1, 100145, Note_off_c, 1, 50, 0
1, 100313, Note_on_c, 1, 55, 127
1, 100315, Note_off_c, 1, 62, 0
1, 100318, Note_off_c, 1, 67, 0
1, 100325, Note_off_c, 1, 59, 0
1, 100539, Note_on_c, 1, 64, 127
1, 100547, Note_off_c, 1, 55, 0
1, 100632, Note_on_c, 1, 65, 127
1, 100645, Note_off_c, 1, 64, 0
1, 100752, Note_off_c, 1, 65, 0
1, 100764, Note_on_c, 1, 67, 127
1, 100863, Note_off_c, 1, 67, 0
1, 101016, Note_on_c, 1, 72, 127
1, 101023, Note_on_c, 1, 55, 127
1, 101028, Note_on_c, 1, 64, 127
1, 101031, Note_on_c, 1, 48, 127
1, 101108, Note_on_c, 1, 50, 127
1, 101110, Note_off_c, 1, 64, 0
1, 101124, Note_off_c, 1, 55, 0
1, 101136, Note_on_c, 1, 65, 127
1, 101139, Note_off_c, 1, 48, 0
1, 101220, Note_off_c, 1, 65, 0
1, 101244, Note_on_c, 1, 52, 127
1, 101251, Note_off_c, 1, 50, 0
1, 101251, Note_on_c, 1, 67, 127
1, 101259, Note_on_c, 1, 60, 127
1, 101321, Note_off_c, 1, 72, 0
1, 101343, Note_off_c, 1, 67, 0
1, 101388, Note_off_c, 1, 60, 0
1, 101395, Note_off_c, 1, 52, 0
1, 101494, Note_on_c, 1, 59, 127
1, 101496, Note_on_c, 1, 62, 127
1, 101499, Note_on_c, 1, 67, 127
1, 101503, Note_on_c, 1, 55, 127
1, 101595, Note_off_c, 1, 67, 0
1, 101599, Note_off_c, 1, 62, 0
1, 101602, Note_off_c, 1, 59, 0
1, 101621, Note_off_c, 1, 55, 0
1, 101741, Note_on_c, 1, 64, 127
1, 101743, Note_on_c, 1, 60, 127
1, 101845, Note_on_c, 1, 62, 127
1, 101859, Note_on_c, 1, 59, 127
1, 101885, Note_off_c, 1, 60, 0
1, 101938, Note_off_c, 1, 64, 0
1, 101964, Note_off_c, 1, 59, 0
1, 101979, Note_on_c, 1, 67, 127
1, 101988, Note_off_c, 1, 62, 0
1, 102003, Note_on_c, 1, 55, 127
1, 102058, Note_on_c, 1, 65, 127
1, 102079, Note_off_c, 1, 67, 0
1, 102106, Note_off_c, 1, 55, 0
1, 102228, Note_off_c, 1, 65, 0
1, 102238, Note_on_c, 1, 48, 127
1, 102348, Note_off_c, 1, 48, 0
1, 102432, Note_on_c, 1, 69, 127
1, 102461, Note_on_c, 1, 65, 127
1, 102461, Note_on_c, 1, 60, 127
1, 102475, Note_on_c, 1, 53, 127
1, 102543, Note_on_c, 1, 71, 127
1, 102552, Note_off_c, 1, 60, 0
1, 102571, Note_off_c, 1, 69, 0
1, 102574, Note_off_c, 1, 65, 0
1, 102583, Note_off_c, 1, 53, 0
1, 102670, Note_on_c, 1, 72, 127
1, 102679, Note_on_c, 1, 67, 127
1, 102696, Note_off_c, 1, 71, 0
1, 102718, Note_on_c, 1, 52, 127
1, 102799, Note_on_c, 1, 74, 127
1, 102804, Note_off_c, 1, 72, 0
1, 102814, Note_off_c, 1, 67, 0
1, 102845, Note_off_c, 1, 52, 0
1, 102912, Note_on_c, 1, 76, 127
1, 102936, Note_on_c, 1, 50, 127
1, 102953, Note_off_c, 1, 74, 0
1, 103039, Note_on_c, 1, 77, 127
1, 103071, Note_off_c, 1, 76, 0
1, 103078, Note_off_c, 1, 50, 0
1, 103164, Note_off_c, 1, 77, 0
1, 103167, Note_on_c, 1, 72, 127
1, 103167, Note_on_c, 1, 64, 127
1, 103169, Note_on_c, 1, 52, 127
1, 103174, Note_on_c, 1, 79, 127
1, 103260, Note_off_c, 1, 64, 0
1, 103279, Note_off_c, 1, 72, 0
1, 103282, Note_off_c, 1, 52, 0
1, 103313, Note_off_c, 1, 79, 0
1, 103399, Note_on_c, 1, 53, 127
1, 103405, Note_on_c, 1, 60, 127
1, 103409, Note_on_c, 1, 72, 127
1, 103416, Note_on_c, 1, 81, 127
1, 103507, Note_off_c, 1, 60, 0
1, 103519, Note_off_c, 1, 72, 0
1, 103519, Note_off_c, 1, 81, 0
1, 103527, Note_off_c, 1, 53, 0
1, 103654, Note_on_c, 1, 74, 127
1, 103654, Note_on_c, 1, 55, 127
1, 103656, Note_on_c, 1, 71, 127
1, 103661, Note_on_c, 1, 67, 127
1, 103769, Note_off_c, 1, 67, 0
1, 103769, Note_on_c, 1, 72, 127
1, 103788, Note_off_c, 1, 55, 0
1, 103798, Note_off_c, 1, 71, 0
1, 103803, Note_off_c, 1, 74, 0
1, 103889, Note_on_c, 1, 57, 127
1, 103908, Note_on_c, 1, 66, 127
1, 104004, Note_on_c, 1, 76, 127
1, 104010, Note_off_c, 1, 72, 0
1, 104016, Note_off_c, 1, 66, 0
1, 104031, Note_off_c, 1, 57, 0
1, 104098, Note_off_c, 1, 76, 0
1, 104110, Note_on_c, 1, 59, 127
1, 104131, Note_on_c, 1, 74, 127
1, 104140, Note_on_c, 1, 67, 127
1, 104247, Note_off_c, 1, 67, 0
1, 104261, Note_off_c, 1, 59, 0
1, 104350, Note_off_c, 1, 74, 0
1, 104359, Note_on_c, 1, 60, 127
1, 104369, Note_on_c, 1, 72, 127
1, 104371, Note_on_c, 1, 67, 127
1, 104374, Note_on_c, 1, 76, 127
1, 104453, Note_off_c, 1, 67, 0
1, 104472, Note_off_c, 1, 72, 0
1, 104472, Note_on_c, 1, 69, 127
1, 104483, Note_on_c, 1, 78, 127
1, 104491, Note_off_c, 1, 60, 0
1, 104499, Note_off_c, 1, 76, 0
1, 104549, Note_off_c, 1, 69, 0
1, 104602, Note_on_c, 1, 71, 127
1, 104607, Note_on_c, 1, 59, 127
1, 104616, Note_off_c, 1, 78, 0
1, 104616, Note_on_c, 1, 74, 127
1, 104623, Note_on_c, 1, 79, 127
1, 104731, Note_off_c, 1, 59, 0
1, 104796, Note_off_c, 1, 79, 0
1, 104815, Note_off_c, 1, 74, 0
1, 104827, Note_off_c, 1, 71, 0
1, 104839, Note_on_c, 1, 57, 127
1, 104851, Note_on_c, 1, 71, 127
1, 104957, Note_off_c, 1, 71, 0
1, 104957, Note_on_c, 1, 72, 127
1, 104962, Note_off_c, 1, 57, 0
1, 105063, Note_off_c, 1, 72, 0
1, 105082, Note_on_c, 1, 55, 127
1, 105094, Note_on_c, 1, 74, 127
1, 105219, Note_off_c, 1, 55, 0
1, 105240, Note_off_c, 1, 74, 0
1, 105319, Note_on_c, 1, 54, 127
1, 105336, Note_on_c, 1, 76, 127
1, 105336, Note_on_c, 1, 67, 127
1, 105341, Note_on_c, 1, 59, 127
1, 105426, Note_off_c, 1, 59, 0
1, 105430, Note_off_c, 1, 67, 0
1, 105430, Note_on_c, 1, 69, 127
1, 105442, Note_off_c, 1, 76, 0
1, 105444, Note_on_c, 1, 78, 127
1, 105449, Note_off_c, 1, 54, 0
1, 105514, Note_off_c, 1, 69, 0
1, 105547, Note_off_c, 1, 78, 0
1, 105557, Note_on_c, 1, 71, 127
1, 105571, Note_on_c, 1, 52, 127
1, 105579, Note_on_c, 1, 79, 127
1, 105600, Note_on_c, 1, 64, 127
1, 105718, Note_off_c, 1, 52, 0
1, 105730, Note_off_c, 1, 79, 0
1, 105775, Note_off_c, 1, 71, 0
1, 105797, Note_on_c, 1, 50, 127
1, 105802, Note_on_c, 1, 69, 127
1, 105826, Note_off_c, 1, 64, 0
1, 105917, Note_off_c, 1, 69, 0
1, 105934, Note_off_c, 1, 50, 0
1, 106042, Note_on_c, 1, 52, 127
1, 106056, Note_on_c, 1, 72, 127
1, 106174, Note_off_c, 1, 72, 0
1, 106188, Note_off_c, 1, 52, 0
1, 106287, Note_on_c, 1, 54, 127
1, 106292, Note_on_c, 1, 69, 127
1, 106299, Note_on_c, 1, 57, 127
1, 106311, Note_on_c, 1, 74, 127
1, 106390, Note_off_c, 1, 57, 0
1, 106399, Note_off_c, 1, 69, 0
1, 106409, Note_off_c, 1, 54, 0
1, 106409, Note_off_c, 1, 74, 0
1, 106531, Note_on_c, 1, 55, 127
1, 106546, Note_on_c, 1, 67, 127
1, 106553, Note_on_c, 1, 71, 127
1, 106560, Note_on_c, 1, 62, 127
1, 106659, Note_off_c, 1, 67, 0
1, 106666, Note_off_c, 1, 55, 0
1, 106666, Note_off_c, 1, 62, 0
1, 106776, Note_on_c, 1, 48, 127
1, 106795, Note_on_c, 1, 64, 127
1, 106846, Note_off_c, 1, 71, 0
1, 106867, Note_on_c, 1, 69, 127
1, 106901, Note_off_c, 1, 48, 0
1, 106901, Note_off_c, 1, 64, 0
1, 106980, Note_off_c, 1, 69, 0
1, 106990, Note_on_c, 1, 71, 127
1, 107014, Note_on_c, 1, 50, 127
1, 107028, Note_on_c, 1, 67, 127
1, 107038, Note_on_c, 1, 62, 127
1, 107059, Note_on_c, 1, 69, 127
1, 107083, Note_off_c, 1, 71, 0
1, 107115, Note_off_c, 1, 50, 0
1, 107119, Note_off_c, 1, 62, 0
1, 107122, Note_off_c, 1, 67, 0
1, 107155, Note_off_c, 1, 69, 0
1, 107254, Note_on_c, 1, 38, 127
1, 107261, Note_on_c, 1, 66, 127
1, 107275, Note_on_c, 1, 60, 127
1, 107347, Note_off_c, 1, 66, 0
1, 107357, Note_off_c, 1, 38, 0
1, 107364, Note_off_c, 1, 60, 0
1, 107484, Note_on_c, 1, 67, 127
1, 107503, Note_on_c, 1, 62, 127
1, 107527, Note_on_c, 1, 43, 127
1, 107532, Note_on_c, 1, 59, 127
1, 107628, Note_off_c, 1, 43, 0
1, 107724, Note_on_c, 1, 50, 127
1, 107813, Note_off_c, 1, 50, 0
1, 107964, Note_off_c, 1, 67, 0
1, 107971, Note_off_c, 1, 59, 0
1, 107986, Note_on_c, 1, 55, 127
1, 108017, Note_off_c, 1, 62, 0
1, 108214, Note_off_c, 1, 55, 0
1, 108238, Note_on_c, 1, 71, 127
1, 108334, Note_on_c, 1, 72, 127
1, 108354, Note_off_c, 1, 71, 0
1, 108450, Note_off_c, 1, 72, 0
1, 108479, Note_on_c, 1, 74, 127
1, 108577, Note_off_c, 1, 74, 0
1, 108704, Note_on_c, 1, 55, 127
1, 108716, Note_on_c, 1, 71, 127
1, 108716, Note_on_c, 1, 79, 127
1, 108729, Note_on_c, 1, 74, 127
1, 108800, Note_off_c, 1, 71, 0
1, 108812, Note_off_c, 1, 55, 0
1, 108812, Note_on_c, 1, 53, 127
1, 108815, Note_on_c, 1, 69, 127
1, 108830, Note_off_c, 1, 74, 0
1, 108925, Note_off_c, 1, 53, 0
1, 108935, Note_on_c, 1, 52, 127
1, 108936, Note_off_c, 1, 69, 0
1, 108942, Note_on_c, 1, 67, 127
1, 108968, Note_on_c, 1, 73, 127
1, 109040, Note_off_c, 1, 52, 0
1, 109056, Note_off_c, 1, 79, 0
1, 109072, Note_off_c, 1, 67, 0
1, 109091, Note_off_c, 1, 73, 0
1, 109175, Note_on_c, 1, 65, 127
1, 109189, Note_on_c, 1, 55, 127
1, 109196, Note_on_c, 1, 74, 127
1, 109204, Note_on_c, 1, 82, 127
1, 109280, Note_off_c, 1, 65, 0
1, 109280, Note_off_c, 1, 74, 0
1, 109297, Note_off_c, 1, 55, 0
1, 109307, Note_off_c, 1, 82, 0
1, 109417, Note_on_c, 1, 64, 127
1, 109424, Note_on_c, 1, 69, 127
1, 109441, Note_on_c, 1, 57, 127
1, 109446, Note_on_c, 1, 73, 127
1, 109532, Note_off_c, 1, 64, 0
1, 109540, Note_on_c, 1, 62, 127
1, 109542, Note_on_c, 1, 67, 127
1, 109552, Note_off_c, 1, 69, 0
1, 109554, Note_on_c, 1, 71, 127
1, 109561, Note_off_c, 1, 57, 0
1, 109591, Note_off_c, 1, 73, 0
1, 109648, Note_off_c, 1, 67, 0
1, 109669, Note_off_c, 1, 62, 0
1, 109681, Note_on_c, 1, 45, 127
1, 109721, Note_off_c, 1, 71, 0
1, 109746, Note_on_c, 1, 65, 127
1, 109789, Note_on_c, 1, 74, 127
1, 109804, Note_off_c, 1, 45, 0
1, 109864, Note_off_c, 1, 65, 0
1, 109918, Note_on_c, 1, 76, 127
1, 109943, Note_off_c, 1, 74, 0
1, 110072, Note_off_c, 1, 76, 0
1, 110132, Note_on_c, 1, 74, 127
1, 110137, Note_on_c, 1, 55, 127
1, 110142, Note_on_c, 1, 77, 127
1, 110142, Note_on_c, 1, 57, 127
1, 110240, Note_on_c, 1, 76, 127
1, 110248, Note_off_c, 1, 74, 0
1, 110255, Note_off_c, 1, 55, 0
1, 110255, Note_off_c, 1, 57, 0
1, 110258, Note_on_c, 1, 79, 127
1, 110278, Note_off_c, 1, 77, 0
1, 110334, Note_off_c, 1, 76, 0
1, 110376, Note_off_c, 1, 79, 0
1, 110389, Note_on_c, 1, 53, 127
1, 110392, Note_on_c, 1, 62, 127
1, 110396, Note_on_c, 1, 81, 127
1, 110502, Note_off_c, 1, 62, 0
1, 110508, Note_off_c, 1, 53, 0
1, 110513, Note_off_c, 1, 81, 0
1, 110610, Note_on_c, 1, 55, 127
1, 110617, Note_on_c, 1, 76, 127
1, 110620, Note_on_c, 1, 81, 127
1, 110620, Note_on_c, 1, 67, 127
1, 110706, Note_off_c, 1, 67, 0
1, 110711, Note_off_c, 1, 76, 0
1, 110716, Note_off_c, 1, 55, 0
1, 110718, Note_on_c, 1, 74, 127
1, 110736, Note_on_c, 1, 82, 127
1, 110759, Note_off_c, 1, 81, 0
1, 110802, Note_off_c, 1, 74, 0
1, 110838, Note_off_c, 1, 82, 0
1, 110845, Note_on_c, 1, 73, 127
1, 110847, Note_on_c, 1, 81, 127
1, 110848, Note_on_c, 1, 57, 127
1, 110872, Note_on_c, 1, 64, 127
1, 110939, Note_off_c, 1, 57, 0
1, 110951, Note_off_c, 1, 64, 0
1, 110975, Note_off_c, 1, 73, 0
1, 110979, Note_on_c, 1, 79, 127
1, 110992, Note_off_c, 1, 81, 0
1, 111090, Note_on_c, 1, 45, 127
1, 111099, Note_on_c, 1, 77, 127
1, 111102, Note_off_c, 1, 79, 0
1, 111109, Note_on_c, 1, 69, 127
1, 111212, Note_off_c, 1, 77, 0
1, 111214, Note_on_c, 1, 76, 127
1, 111217, Note_off_c, 1, 69, 0
1, 111222, Note_off_c, 1, 45, 0
1, 111306, Note_off_c, 1, 76, 0
1, 111330, Note_on_c, 1, 50, 127
1, 111344, Note_on_c, 1, 77, 127
1, 111347, Note_on_c, 1, 74, 127
1, 111359, Note_on_c, 1, 69, 127
1, 111428, Note_off_c, 1, 50, 0
1, 111445, Note_off_c, 1, 74, 0
1, 111470, Note_on_c, 1, 70, 127
1, 111472, Note_on_c, 1, 79, 127
1, 111479, Note_off_c, 1, 77, 0
1, 111484, Note_off_c, 1, 69, 0
1, 111577, Note_on_c, 1, 45, 127
1, 111606, Note_off_c, 1, 70, 0
1, 111628, Note_off_c, 1, 79, 0
1, 111676, Note_off_c, 1, 45, 0
1, 111678, Note_on_c, 1, 67, 127
1, 111701, Note_on_c, 1, 76, 127
1, 111767, Note_off_c, 1, 67, 0
1, 111812, Note_off_c, 1, 76, 0
1, 111822, Note_on_c, 1, 69, 127
1, 111822, Note_on_c, 1, 65, 127
1, 111827, Note_on_c, 1, 38, 127
1, 111829, Note_on_c, 1, 74, 127
1, 111920, Note_off_c, 1, 65, 0
1, 111935, Note_on_c, 1, 67, 127
1, 111944, Note_off_c, 1, 69, 0
1, 111968, Note_off_c, 1, 38, 0
1, 111984, Note_off_c, 1, 74, 0
1, 112062, Note_off_c, 1, 67, 0
1, 112062, Note_on_c, 1, 56, 127
1, 112067, Note_on_c, 1, 83, 127
1, 112158, Note_on_c, 1, 64, 127
1, 112165, Note_on_c, 1, 57, 127
1, 112168, Note_on_c, 1, 72, 127
1, 112182, Note_off_c, 1, 56, 0
1, 112187, Note_on_c, 1, 84, 127
1, 112205, Note_off_c, 1, 83, 0
1, 112252, Note_off_c, 1, 72, 0
1, 112271, Note_off_c, 1, 64, 0
1, 112276, Note_off_c, 1, 57, 0
1, 112300, Note_on_c, 1, 62, 127
1, 112300, Note_on_c, 1, 59, 127
1, 112304, Note_on_c, 1, 86, 127
1, 112308, Note_off_c, 1, 84, 0
1, 112310, Note_on_c, 1, 71, 127
1, 112405, Note_off_c, 1, 62, 0
1, 112417, Note_off_c, 1, 71, 0
1, 112422, Note_off_c, 1, 59, 0
1, 112452, Note_off_c, 1, 86, 0
1, 112535, Note_on_c, 1, 80, 127
1, 112643, Note_on_c, 1, 81, 127
1, 112650, Note_on_c, 1, 60, 127
1, 112671, Note_off_c, 1, 80, 0
1, 112744, Note_off_c, 1, 60, 0
1, 112767, Note_off_c, 1, 81, 0
1, 112777, Note_on_c, 1, 68, 127
1, 112777, Note_on_c, 1, 62, 127
1, 112782, Note_on_c, 1, 83, 127
1, 112784, Note_on_c, 1, 65, 127
1, 112897, Note_off_c, 1, 65, 0
1, 112921, Note_off_c, 1, 68, 0
1, 112924, Note_off_c, 1, 83, 0
1, 112933, Note_off_c, 1, 62, 0
1, 113003, Note_on_c, 1, 59, 127
1, 113029, Note_on_c, 1, 74, 127
1, 113108, Note_on_c, 1, 60, 127
1, 113142, Note_off_c, 1, 59, 0
1, 113144, Note_on_c, 1, 76, 127
1, 113169, Note_off_c, 1, 74, 0
1, 113231, Note_off_c, 1, 60, 0
1, 113255, Note_on_c, 1, 62, 127
1, 113262, Note_off_c, 1, 76, 0
1, 113272, Note_on_c, 1, 77, 127
1, 113387, Note_off_c, 1, 62, 0
1, 113390, Note_off_c, 1, 77, 0
1, 113500, Note_on_c, 1, 62, 127
1, 113502, Note_on_c, 1, 71, 127
1, 113598, Note_on_c, 1, 64, 127
1, 113622, Note_off_c, 1, 62, 0
1, 113629, Note_on_c, 1, 72, 127
1, 113634, Note_off_c, 1, 71, 0
1, 113730, Note_on_c, 1, 65, 127
1, 113737, Note_off_c, 1, 64, 0
1, 113751, Note_on_c, 1, 74, 127
1, 113773, Note_off_c, 1, 72, 0
1, 113848, Note_off_c, 1, 74, 0
1, 113895, Note_off_c, 1, 65, 0
1, 113968, Note_on_c, 1, 59, 127
1, 113984, Note_on_c, 1, 68, 127
1, 113989, Note_on_c, 1, 64, 127
1, 114001, Note_on_c, 1, 50, 127
1, 114083, Note_off_c, 1, 59, 0
1, 114091, Note_off_c, 1, 64, 0
1, 114102, Note_off_c, 1, 50, 0
1, 114106, Note_off_c, 1, 68, 0
1, 114208, Note_on_c, 1, 69, 127
1, 114220, Note_on_c, 1, 64, 127
1, 114229, Note_on_c, 1, 48, 127
1, 114234, Note_on_c, 1, 60, 127
1, 114342, Note_on_c, 1, 47, 127
1, 114344, Note_off_c, 1, 60, 0
1, 114352, Note_off_c, 1, 64, 0
1, 114356, Note_off_c, 1, 48, 0
1, 114452, Note_off_c, 1, 47, 0
1, 114551, Note_on_c, 1, 71, 127
1, 114556, Note_off_c, 1, 69, 0
1, 114580, Note_on_c, 1, 50, 127
1, 114652, Note_off_c, 1, 71, 0
1, 114683, Note_on_c, 1, 72, 127
1, 114690, Note_off_c, 1, 50, 0
1, 114690, Note_on_c, 1, 52, 127
1, 114738, Note_on_c, 1, 68, 127
1, 114781, Note_off_c, 1, 72, 0
1, 114803, Note_off_c, 1, 68, 0
1, 114817, Note_off_c, 1, 52, 0
1, 114932, Note_on_c, 1, 40, 127
1, 114937, Note_on_c, 1, 59, 127
1, 115028, Note_off_c, 1, 59, 0
1, 115062, Note_off_c, 1, 40, 0
1, 115165, Note_on_c, 1, 69, 127
1, 115180, Note_on_c, 1, 45, 127
1, 115192, Note_on_c, 1, 60, 127
1, 115199, Note_on_c, 1, 64, 127
1, 115278, Note_off_c, 1, 45, 0
1, 115405, Note_on_c, 1, 52, 127
1, 115508, Note_off_c, 1, 52, 0
1, 115648, Note_on_c, 1, 57, 127
1, 115697, Note_off_c, 1, 69, 0
1, 115703, Note_off_c, 1, 60, 0
1, 115710, Note_off_c, 1, 64, 0
1, 115885, Note_on_c, 1, 76, 127
1, 115916, Note_off_c, 1, 57, 0
1, 115986, Note_on_c, 1, 77, 127
1, 116024, Note_off_c, 1, 76, 0
1, 116105, Note_off_c, 1, 77, 0
1, 116118, Note_on_c, 1, 79, 127
1, 116232, Note_off_c, 1, 79, 0
1, 116363, Note_on_c, 1, 64, 127
1, 116365, Note_on_c, 1, 79, 127
1, 116368, Note_on_c, 1, 48, 127
1, 116382, Note_on_c, 1, 84, 127
1, 116440, Note_on_c, 1, 65, 127
1, 116449, Note_on_c, 1, 50, 127
1, 116473, Note_on_c, 1, 77, 127
1, 116476, Note_off_c, 1, 79, 0
1, 116480, Note_off_c, 1, 64, 0
1, 116485, Note_off_c, 1, 48, 0
1, 116555, Note_off_c, 1, 65, 0
1, 116574, Note_off_c, 1, 50, 0
1, 116581, Note_off_c, 1, 77, 0
1, 116588, Note_on_c, 1, 67, 127
1, 116591, Note_on_c, 1, 52, 127
1, 116598, Note_on_c, 1, 76, 127
1, 116706, Note_off_c, 1, 84, 0
1, 116711, Note_off_c, 1, 52, 0
1, 116711, Note_off_c, 1, 76, 0
1, 116716, Note_on_c, 1, 74, 127
1, 116720, Note_off_c, 1, 67, 0
1, 116814, Note_off_c, 1, 74, 0
1, 116833, Note_on_c, 1, 76, 127
1, 116848, Note_on_c, 1, 67, 127
1, 116856, Note_on_c, 1, 79, 127
1, 116857, Note_on_c, 1, 52, 127
1, 116941, Note_off_c, 1, 76, 0
1, 116951, Note_on_c, 1, 72, 127
1, 116956, Note_on_c, 1, 53, 127
1, 116960, Note_on_c, 1, 69, 127
1, 116965, Note_off_c, 1, 67, 0
1, 116982, Note_off_c, 1, 79, 0
1, 116984, Note_off_c, 1, 52, 0
1, 117030, Note_off_c, 1, 72, 0
1, 117071, Note_off_c, 1, 69, 0
1, 117073, Note_on_c, 1, 70, 127
1, 117080, Note_off_c, 1, 53, 0
1, 117085, Note_on_c, 1, 55, 127
1, 117198, Note_off_c, 1, 55, 0
1, 117215, Note_on_c, 1, 74, 127
1, 117227, Note_off_c, 1, 70, 0
1, 117337, Note_off_c, 1, 74, 0
1, 117436, Note_on_c, 1, 57, 127
1, 117436, Note_on_c, 1, 77, 127
1, 117445, Note_on_c, 1, 65, 127
1, 117527, Note_off_c, 1, 65, 0
1, 117551, Note_off_c, 1, 77, 0
1, 117564, Note_off_c, 1, 57, 0
1, 117568, Note_on_c, 1, 79, 127
1, 117580, Note_on_c, 1, 67, 127
1, 117580, Note_on_c, 1, 64, 127
1, 117580, Note_on_c, 1, 58, 127
1, 117680, Note_off_c, 1, 58, 0
1, 117692, Note_off_c, 1, 79, 0
1, 117692, Note_off_c, 1, 67, 0
1, 117704, Note_off_c, 1, 64, 0
1, 117820, Note_on_c, 1, 52, 127
1, 117828, Note_on_c, 1, 60, 127
1, 117829, Note_on_c, 1, 67, 127
1, 117829, Note_on_c, 1, 70, 127
1, 117928, Note_off_c, 1, 52, 0
1, 117930, Note_off_c, 1, 60, 0
1, 117935, Note_off_c, 1, 67, 0
1, 117947, Note_off_c, 1, 70, 0
1, 118060, Note_on_c, 1, 53, 127
1, 118067, Note_on_c, 1, 60, 127
1, 118069, Note_on_c, 1, 69, 127
1, 118074, Note_on_c, 1, 65, 127
1, 118192, Note_off_c, 1, 65, 0
1, 118194, Note_off_c, 1, 53, 0
1, 118267, Note_off_c, 1, 69, 0
1, 118276, Note_off_c, 1, 60, 0
1, 118297, Note_on_c, 1, 46, 127
1, 118307, Note_on_c, 1, 65, 127
1, 118319, Note_on_c, 1, 58, 127
1, 118325, Note_on_c, 1, 74, 127
1, 118408, Note_on_c, 1, 60, 127
1, 118417, Note_off_c, 1, 65, 0
1, 118423, Note_off_c, 1, 58, 0
1, 118440, Note_on_c, 1, 72, 127
1, 118456, Note_off_c, 1, 46, 0
1, 118481, Note_off_c, 1, 74, 0
1, 118524, Note_off_c, 1, 60, 0
1, 118540, Note_on_c, 1, 62, 127
1, 118550, Note_on_c, 1, 70, 127
1, 118564, Note_on_c, 1, 43, 127
1, 118572, Note_off_c, 1, 72, 0
1, 118655, Note_on_c, 1, 69, 127
1, 118664, Note_off_c, 1, 62, 0
1, 118672, Note_off_c, 1, 43, 0
1, 118695, Note_off_c, 1, 70, 0
1, 118780, Note_on_c, 1, 64, 127
1, 118786, Note_on_c, 1, 48, 127
1, 118796, Note_off_c, 1, 69, 0
1, 118885, Note_off_c, 1, 48, 0
1, 118890, Note_on_c, 1, 67, 127
1, 118909, Note_off_c, 1, 64, 0
1, 119007, Note_off_c, 1, 67, 0
1, 119017, Note_on_c, 1, 69, 127
1, 119024, Note_on_c, 1, 60, 127
1, 119029, Note_on_c, 1, 65, 127
1, 119039, Note_on_c, 1, 41, 127
1, 119120, Note_on_c, 1, 70, 127
1, 119137, Note_on_c, 1, 62, 127
1, 119147, Note_off_c, 1, 41, 0
1, 119152, Note_off_c, 1, 69, 0
1, 119154, Note_off_c, 1, 60, 0
1, 119154, Note_off_c, 1, 65, 0
1, 119257, Note_off_c, 1, 62, 0
1, 119262, Note_on_c, 1, 53, 127
1, 119281, Note_off_c, 1, 70, 0
1, 119356, Note_on_c, 1, 67, 127
1, 119356, Note_on_c, 1, 58, 127
1, 119370, Note_on_c, 1, 55, 127
1, 119380, Note_off_c, 1, 53, 0
1, 119452, Note_off_c, 1, 58, 0
1, 119478, Note_off_c, 1, 67, 0
1, 119480, Note_off_c, 1, 55, 0
1, 119484, Note_on_c, 1, 65, 127
1, 119492, Note_on_c, 1, 60, 127
1, 119493, Note_on_c, 1, 57, 127
1, 119600, Note_off_c, 1, 60, 0
1, 119609, Note_off_c, 1, 65, 0
1, 119615, Note_on_c, 1, 58, 127
1, 119706, Note_on_c, 1, 62, 127
1, 119737, Note_on_c, 1, 77, 127
1, 119756, Note_off_c, 1, 58, 0
1, 119807, Note_on_c, 1, 64, 127
1, 119836, Note_off_c, 1, 62, 0
1, 119848, Note_on_c, 1, 79, 127
1, 119856, Note_off_c, 1, 77, 0
1, 119863, Note_on_c, 1, 55, 127
1, 119881, Note_off_c, 1, 57, 0
1, 119920, Note_off_c, 1, 64, 0
1, 119960, Note_off_c, 1, 79, 0
1, 119975, Note_off_c, 1, 55, 0
1, 119976, Note_on_c, 1, 81, 127
1, 119982, Note_on_c, 1, 53, 127
1, 120097, Note_off_c, 1, 53, 0
1, 120104, Note_off_c, 1, 81, 0
1, 120209, Note_on_c, 1, 74, 127
1, 120320, Note_on_c, 1, 76, 127
1, 120326, Note_off_c, 1, 74, 0
1, 120326, Note_on_c, 1, 52, 127
1, 120335, Note_on_c, 1, 67, 127
1, 120416, Note_off_c, 1, 52, 0
1, 120432, Note_off_c, 1, 76, 0
1, 120438, Note_off_c, 1, 67, 0
1, 120442, Note_on_c, 1, 77, 127
1, 120450, Note_on_c, 1, 69, 127
1, 120455, Note_on_c, 1, 50, 127
1, 120568, Note_on_c, 1, 52, 127
1, 120570, Note_off_c, 1, 77, 0
1, 120570, Note_off_c, 1, 50, 0
1, 120577, Note_on_c, 1, 67, 127
1, 120590, Note_off_c, 1, 69, 0
1, 120684, Note_on_c, 1, 65, 127
1, 120690, Note_on_c, 1, 71, 127
1, 120697, Note_off_c, 1, 67, 0
1, 120709, Note_on_c, 1, 55, 127
1, 120724, Note_off_c, 1, 52, 0
1, 120784, Note_on_c, 1, 57, 127
1, 120793, Note_on_c, 1, 72, 127
1, 120800, Note_on_c, 1, 48, 127
1, 120812, Note_on_c, 1, 64, 127
1, 120817, Note_off_c, 1, 65, 0
1, 120817, Note_off_c, 1, 55, 0
1, 120824, Note_off_c, 1, 71, 0
1, 120889, Note_off_c, 1, 57, 0
1, 120894, Note_off_c, 1, 48, 0
1, 120901, Note_off_c, 1, 72, 0
1, 120920, Note_on_c, 1, 59, 127
1, 120927, Note_on_c, 1, 74, 127
1, 120928, Note_off_c, 1, 64, 0
1, 120935, Note_on_c, 1, 62, 127
1, 120937, Note_on_c, 1, 47, 127
1, 121033, Note_off_c, 1, 74, 0
1, 121033, Note_off_c, 1, 62, 0
1, 121043, Note_off_c, 1, 59, 0
1, 121048, Note_off_c, 1, 47, 0
1, 121255, Note_on_c, 1, 60, 127
1, 121278, Note_on_c, 1, 45, 127
1, 121391, Note_on_c, 1, 43, 127
1, 121412, Note_off_c, 1, 45, 0
1, 121422, Note_off_c, 1, 60, 0
1, 121428, Note_on_c, 1, 79, 127
1, 121518, Note_off_c, 1, 79, 0
1, 121532, Note_off_c, 1, 43, 0
1, 121751, Note_on_c, 1, 41, 127
1, 121879, Note_off_c, 1, 41, 0
1, 121881, Note_on_c, 1, 40, 127
1, 121890, Note_on_c, 1, 67, 127
1, 121909, Note_on_c, 1, 72, 127
1, 121917, Note_on_c, 1, 64, 127
1, 122010, Note_off_c, 1, 40, 0
1, 122017, Note_off_c, 1, 67, 0
1, 122029, Note_off_c, 1, 64, 0
1, 122110, Note_on_c, 1, 41, 127
1, 122142, Note_on_c, 1, 69, 127
1, 122240, Note_on_c, 1, 74, 127
1, 122247, Note_off_c, 1, 41, 0
1, 122255, Note_off_c, 1, 72, 0
1, 122269, Note_off_c, 1, 69, 0
1, 122312, Note_off_c, 1, 74, 0
1, 122365, Note_on_c, 1, 71, 127
1, 122368, Note_on_c, 1, 43, 127
1, 122377, Note_on_c, 1, 67, 127
1, 122384, Note_on_c, 1, 76, 127
1, 122449, Note_on_c, 1, 74, 127
1, 122471, Note_off_c, 1, 76, 0
1, 122480, Note_off_c, 1, 43, 0
1, 122495, Note_off_c, 1, 67, 0
1, 122497, Note_off_c, 1, 71, 0
1, 122538, Note_off_c, 1, 74, 0
1, 122615, Note_on_c, 1, 62, 127
1, 122716, Note_on_c, 1, 72, 127
1, 122718, Note_off_c, 1, 62, 0
1, 122830, Note_off_c, 1, 72, 0
1, 122860, Note_on_c, 1, 72, 127
1, 122862, Note_on_c, 1, 67, 127
1, 122876, Note_on_c, 1, 36, 127
1, 122881, Note_on_c, 1, 64, 127
1, 123347, Note_off_c, 1, 64, 0
1, 123366, Note_off_c, 1, 72, 0
1, 123371, Note_off_c, 1, 67, 0
1, 123412, Note_off_c, 1, 36, 0
1, 123598, Note_on_c, 1, 71, 127
1, 123694, Note_on_c, 1, 72, 127
1, 123714, Note_off_c, 1, 71, 0
1, 123810, Note_off_c, 1, 72, 0
1, 123839, Note_on_c, 1, 74, 127
1, 123937, Note_off_c, 1, 74, 0
1, 124064, Note_on_c, 1, 55, 127
1, 124076, Note_on_c, 1, 71, 127
1, 124076, Note_on_c, 1, 79, 127
1, 124089, Note_on_c, 1, 74, 127
1, 124160, Note_off_c, 1, 71, 0
1, 124172, Note_off_c, 1, 55, 0
1, 124172, Note_on_c, 1, 53, 127
1, 124175, Note_on_c, 1, 69, 127
1, 124190, Note_off_c, 1, 74, 0
1, 124285, Note_off_c, 1, 53, 0
1, 124295, Note_on_c, 1, 52, 127
1, 124296, Note_off_c, 1, 69, 0
1, 124302, Note_on_c, 1, 67, 127
1, 124328, Note_on_c, 1, 73, 127
1, 124400, Note_off_c, 1, 52, 0
1, 124416, Note_off_c, 1, 79, 0
1, 124432, Note_off_c, 1, 67, 0
1, 124451, Note_off_c, 1, 73, 0
1, 124535, Note_on_c, 1, 65, 127
1, 124549, Note_on_c, 1, 55, 127
1, 124556, Note_on_c, 1, 74, 127
1, 124564, Note_on_c, 1, 82, 127
1, 124640, Note_off_c, 1, 65, 0
1, 124640, Note_off_c, 1, 74, 0
1, 124657, Note_off_c, 1, 55, 0
1, 124667, Note_off_c, 1, 82, 0
1, 124777, Note_on_c, 1, 64, 127
1, 124784, Note_on_c, 1, 69, 127
1, 124801, Note_on_c, 1, 57, 127
1, 124806, Note_on_c, 1, 73, 127
1, 124892, Note_off_c, 1, 64, 0
1, 124900, Note_on_c, 1, 62, 127
1, 124902, Note_on_c, 1, 67, 127
1, 124912, Note_off_c, 1, 69, 0
1, 124914, Note_on_c, 1, 71, 127
1, 124921, Note_off_c, 1, 57, 0
1, 124951, Note_off_c, 1, 73, 0
1, 125008, Note_off_c, 1, 67, 0
1, 125029, Note_off_c, 1, 62, 0
1, 125041, Note_on_c, 1, 45, 127
1, 125081, Note_off_c, 1, 71, 0
1, 125106, Note_on_c, 1, 65, 127
1, 125149, Note_on_c, 1, 74, 127
1, 125164, Note_off_c, 1, 45, 0
1, 125224, Note_off_c, 1, 65, 0
1, 125278, Note_on_c, 1, 76, 127
1, 125303, Note_off_c, 1, 74, 0
1, 125432, Note_off_c, 1, 76, 0
1, 125492, Note_on_c, 1, 74, 127
1, 125497, Note_on_c, 1, 55, 127
1, 125502, Note_on_c, 1, 77, 127
1, 125502, Note_on_c, 1, 57, 127
1, 125600, Note_on_c, 1, 76, 127
1, 125608, Note_off_c, 1, 74, 0
1, 125615, Note_off_c, 1, 55, 0
1, 125615, Note_off_c, 1, 57, 0
1, 125618, Note_on_c, 1, 79, 127
1, 125638, Note_off_c, 1, 77, 0
1, 125694, Note_off_c, 1, 76, 0
1, 125736, Note_off_c, 1, 79, 0
1, 125749, Note_on_c, 1, 53, 127
1, 125752, Note_on_c, 1, 62, 127
1, 125756, Note_on_c, 1, 81, 127
1, 125862, Note_off_c, 1, 62, 0
1, 125868, Note_off_c, 1, 53, 0
1, 125873, Note_off_c, 1, 81, 0
1, 125970, Note_on_c, 1, 55, 127
1, 125977, Note_on_c, 1, 76, 127
1, 125980, Note_on_c, 1, 81, 127
1, 125980, Note_on_c, 1, 67, 127
1, 126066, Note_off_c, 1, 67, 0
1, 126071, Note_off_c, 1, 76, 0
1, 126076, Note_off_c, 1, 55, 0
1, 126078, Note_on_c, 1, 74, 127
1, 126096, Note_on_c, 1, 82, 127
1, 126119, Note_off_c, 1, 81, 0
1, 126162, Note_off_c, 1, 74, 0
1, 126198, Note_off_c, 1, 82, 0
1, 126205, Note_on_c, 1, 73, 127
1, 126207, Note_on_c, 1, 81, 127
1, 126208, Note_on_c, 1, 57, 127
1, 126232, Note_on_c, 1, 64, 127
1, 126299, Note_off_c, 1, 57, 0
1, 126311, Note_off_c, 1, 64, 0
1, 126335, Note_off_c, 1, 73, 0
1, 126339, Note_on_c, 1, 79, 127
1, 126352, Note_off_c, 1, 81, 0
1, 126450, Note_on_c, 1, 45, 127
1, 126459, Note_on_c, 1, 77, 127
1, 126462, Note_off_c, 1, 79, 0
1, 126469, Note_on_c, 1, 69, 127
1, 126572, Note_off_c, 1, 77, 0
1, 126574, Note_on_c, 1, 76, 127
1, 126577, Note_off_c, 1, 69, 0
1, 126582, Note_off_c, 1, 45, 0
1, 126666, Note_off_c, 1, 76, 0
1, 126690, Note_on_c, 1, 50, 127
1, 126704, Note_on_c, 1, 77, 127
1, 126707, Note_on_c, 1, 74, 127
1, 126719, Note_on_c, 1, 69, 127
1, 126788, Note_off_c, 1, 50, 0
1, 126805, Note_off_c, 1, 74, 0
1, 126830, Note_on_c, 1, 70, 127
1, 126832, Note_on_c, 1, 79, 127
1, 126839, Note_off_c, 1, 77, 0
1, 126844, Note_off_c, 1, 69, 0
1, 126937, Note_on_c, 1, 45, 127
1, 126966, Note_off_c, 1, 70, 0
1, 126988, Note_off_c, 1, 79, 0
1, 127036, Note_off_c, 1, 45, 0
1, 127038, Note_on_c, 1, 67, 127
1, 127061, Note_on_c, 1, 76, 127
1, 127127, Note_off_c, 1, 67, 0
1, 127172, Note_off_c, 1, 76, 0
1, 127182, Note_on_c, 1, 69, 127
1, 127182, Note_on_c, 1, 65, 127
1, 127187, Note_on_c, 1, 38, 127
1, 127189, Note_on_c, 1, 74, 127
1, 127280, Note_off_c, 1, 65, 0
1, 127295, Note_on_c, 1, 67, 127
1, 127304, Note_off_c, 1, 69, 0
1, 127328, Note_off_c, 1, 38, 0
1, 127344, Note_off_c, 1, 74, 0
1, 127422, Note_off_c, 1, 67, 0
1, 127422, Note_on_c, 1, 56, 127
1, 127427, Note_on_c, 1, 83, 127
1, 127518, Note_on_c, 1, 64, 127
1, 127525, Note_on_c, 1, 57, 127
1, 127528, Note_on_c, 1, 72, 127
1, 127542, Note_off_c, 1, 56, 0
1, 127547, Note_on_c, 1, 84, 127
1, 127565, Note_off_c, 1, 83, 0
1, 127612, Note_off_c, 1, 72, 0
1, 127631, Note_off_c, 1, 64, 0
1, 127636, Note_off_c, 1, 57, 0
1, 127660, Note_on_c, 1, 62, 127
1, 127660, Note_on_c, 1, 59, 127
1, 127664, Note_on_c, 1, 86, 127
1, 127668, Note_off_c, 1, 84, 0
1, 127670, Note_on_c, 1, 71, 127
1, 127765, Note_off_c, 1, 62, 0
1, 127777, Note_off_c, 1, 71, 0
1, 127782, Note_off_c, 1, 59, 0
1, 127812, Note_off_c, 1, 86, 0
1, 127895, Note_on_c, 1, 80, 127
1, 128003, Note_on_c, 1, 81, 127
1, 128010, Note_on_c, 1, 60, 127
1, 128031, Note_off_c, 1, 80, 0
1, 128104, Note_off_c, 1, 60, 0
1, 128127, Note_off_c, 1, 81, 0
1, 128137, Note_on_c, 1, 68, 127
1, 128137, Note_on_c, 1, 62, 127
1, 128142, Note_on_c, 1, 83, 127
1, 128144, Note_on_c, 1, 65, 127
1, 128257, Note_off_c, 1, 65, 0
1, 128281, Note_off_c, 1, 68, 0
1, 128284, Note_off_c, 1, 83, 0
1, 128293, Note_off_c, 1, 62, 0
1, 128363, Note_on_c, 1, 59, 127
1, 128389, Note_on_c, 1, 74, 127
1, 128468, Note_on_c, 1, 60, 127
1, 128502, Note_off_c, 1, 59, 0
1, 128504, Note_on_c, 1, 76, 127
1, 128529, Note_off_c, 1, 74, 0
1, 128591, Note_off_c, 1, 60, 0
1, 128615, Note_on_c, 1, 62, 127
1, 128622, Note_off_c, 1, 76, 0
1, 128632, Note_on_c, 1, 77, 127
1, 128747, Note_off_c, 1, 62, 0
1, 128750, Note_off_c, 1, 77, 0
1, 128860, Note_on_c, 1, 62, 127
1, 128862, Note_on_c, 1, 71, 127
1, 128958, Note_on_c, 1, 64, 127
1, 128982, Note_off_c, 1, 62, 0
1, 128989, Note_on_c, 1, 72, 127
1, 128994, Note_off_c, 1, 71, 0
1, 129090, Note_on_c, 1, 65, 127
1, 129097, Note_off_c, 1, 64, 0
1, 129111, Note_on_c, 1, 74, 127
1, 129133, Note_off_c, 1, 72, 0
1, 129208, Note_off_c, 1, 74, 0
1, 129255, Note_off_c, 1, 65, 0
1, 129328, Note_on_c, 1, 59, 127
1, 129344, Note_on_c, 1, 68, 127
1, 129349, Note_on_c, 1, 64, 127
1, 129361, Note_on_c, 1, 50, 127
1, 129443, Note_off_c, 1, 59, 0
1, 129451, Note_off_c, 1, 64, 0
1, 129462, Note_off_c, 1, 50, 0
1, 129466, Note_off_c, 1, 68, 0
1, 129568, Note_on_c, 1, 69, 127
1, 129580, Note_on_c, 1, 64, 127
1, 129589, Note_on_c, 1, 48, 127
1, 129594, Note_on_c, 1, 60, 127
1, 129702, Note_on_c, 1, 47, 127
1, 129704, Note_off_c, 1, 60, 0
1, 129712, Note_off_c, 1, 64, 0
1, 129716, Note_off_c, 1, 48, 0
1, 129812, Note_off_c, 1, 47, 0
1, 129911, Note_on_c, 1, 71, 127
1, 129916, Note_off_c, 1, 69, 0
1, 129940, Note_on_c, 1, 50, 127
1, 130012, Note_off_c, 1, 71, 0
1, 130043, Note_on_c, 1, 72, 127
1, 130050, Note_off_c, 1, 50, 0
1, 130050, Note_on_c, 1, 52, 127
1, 130098, Note_on_c, 1, 68, 127
1, 130141, Note_off_c, 1, 72, 0
1, 130163, Note_off_c, 1, 68, 0
1, 130177, Note_off_c, 1, 52, 0
1, 130292, Note_on_c, 1, 40, 127
1, 130297, Note_on_c, 1, 59, 127
1, 130388, Note_off_c, 1, 59, 0
1, 130422, Note_off_c, 1, 40, 0
1, 130525, Note_on_c, 1, 69, 127
1, 130540, Note_on_c, 1, 45, 127
1, 130552, Note_on_c, 1, 60, 127
1, 130559, Note_on_c, 1, 64, 127
1, 130638, Note_off_c, 1, 45, 0
1, 130765, Note_on_c, 1, 52, 127
1, 130868, Note_off_c, 1, 52, 0
1, 131008, Note_on_c, 1, 57, 127
1, 131057, Note_off_c, 1, 69, 0
1, 131063, Note_off_c, 1, 60, 0
1, 131070, Note_off_c, 1, 64, 0
1, 131245, Note_on_c, 1, 76, 127
1, 131276, Note_off_c, 1, 57, 0
1, 131346, Note_on_c, 1, 77, 127
1, 131384, Note_off_c, 1, 76, 0
1, 131465, Note_off_c, 1, 77, 0
1, 131478, Note_on_c, 1, 79, 127
1, 131592, Note_off_c, 1, 79, 0
1, 131723, Note_on_c, 1, 64, 127
1, 131725, Note_on_c, 1, 79, 127
1, 131728, Note_on_c, 1, 48, 127
1, 131742, Note_on_c, 1, 84, 127
1, 131800, Note_on_c, 1, 65, 127
1, 131809, Note_on_c, 1, 50, 127
1, 131833, Note_on_c, 1, 77, 127
1, 131836, Note_off_c, 1, 79, 0
1, 131840, Note_off_c, 1, 64, 0
1, 131845, Note_off_c, 1, 48, 0
1, 131915, Note_off_c, 1, 65, 0
1, 131934, Note_off_c, 1, 50, 0
1, 131941, Note_off_c, 1, 77, 0
1, 131948, Note_on_c, 1, 67, 127
1, 131951, Note_on_c, 1, 52, 127
1, 131958, Note_on_c, 1, 76, 127
1, 132066, Note_off_c, 1, 84, 0
1, 132071, Note_off_c, 1, 52, 0
1, 132071, Note_off_c, 1, 76, 0
1, 132076, Note_on_c, 1, 74, 127
1, 132080, Note_off_c, 1, 67, 0
1, 132174, Note_off_c, 1, 74, 0
1, 132193, Note_on_c, 1, 76, 127
1, 132208, Note_on_c, 1, 67, 127
1, 132216, Note_on_c, 1, 79, 127
1, 132217, Note_on_c, 1, 52, 127
1, 132301, Note_off_c, 1, 76, 0
1, 132311, Note_on_c, 1, 72, 127
1, 132316, Note_on_c, 1, 53, 127
1, 132320, Note_on_c, 1, 69, 127
1, 132325, Note_off_c, 1, 67, 0
1, 132342, Note_off_c, 1, 79, 0
1, 132344, Note_off_c, 1, 52, 0
1, 132390, Note_off_c, 1, 72, 0
1, 132431, Note_off_c, 1, 69, 0
1, 132433, Note_on_c, 1, 70, 127
1, 132440, Note_off_c, 1, 53, 0
1, 132445, Note_on_c, 1, 55, 127
1, 132558, Note_off_c, 1, 55, 0
1, 132575, Note_on_c, 1, 74, 127
1, 132587, Note_off_c, 1, 70, 0
1, 132697, Note_off_c, 1, 74, 0
1, 132796, Note_on_c, 1, 57, 127
1, 132796, Note_on_c, 1, 77, 127
1, 132805, Note_on_c, 1, 65, 127
1, 132887, Note_off_c, 1, 65, 0
1, 132911, Note_off_c, 1, 77, 0
1, 132924, Note_off_c, 1, 57, 0
1, 132928, Note_on_c, 1, 79, 127
1, 132940, Note_on_c, 1, 67, 127
1, 132940, Note_on_c, 1, 64, 127
1, 132940, Note_on_c, 1, 58, 127
1, 133040, Note_off_c, 1, 58, 0
1, 133052, Note_off_c, 1, 79, 0
1, 133052, Note_off_c, 1, 67, 0
1, 133064, Note_off_c, 1, 64, 0
1, 133180, Note_on_c, 1, 52, 127
1, 133188, Note_on_c, 1, 60, 127
1, 133189, Note_on_c, 1, 67, 127
1, 133189, Note_on_c, 1, 70, 127
1, 133288, Note_off_c, 1, 52, 0
1, 133290, Note_off_c, 1, 60, 0
1, 133295, Note_off_c, 1, 67, 0
1, 133307, Note_off_c, 1, 70, 0
1, 133420, Note_on_c, 1, 53, 127
1, 133427, Note_on_c, 1, 60, 127
1, 133429, Note_on_c, 1, 69, 127
1, 133434, Note_on_c, 1, 65, 127
1, 133552, Note_off_c, 1, 65, 0
1, 133554, Note_off_c, 1, 53, 0
1, 133627, Note_off_c, 1, 69, 0
1, 133636, Note_off_c, 1, 60, 0
1, 133657, Note_on_c, 1, 46, 127
1, 133667, Note_on_c, 1, 65, 127
1, 133679, Note_on_c, 1, 58, 127
1, 133685, Note_on_c, 1, 74, 127
1, 133768, Note_on_c, 1, 60, 127
1, 133777, Note_off_c, 1, 65, 0
1, 133783, Note_off_c, 1, 58, 0
1, 133800, Note_on_c, 1, 72, 127
1, 133816, Note_off_c, 1, 46, 0
1, 133841, Note_off_c, 1, 74, 0
1, 133884, Note_off_c, 1, 60, 0
1, 133900, Note_on_c, 1, 62, 127
1, 133910, Note_on_c, 1, 70, 127
1, 133924, Note_on_c, 1, 43, 127
1, 133932, Note_off_c, 1, 72, 0
1, 134015, Note_on_c, 1, 69, 127
1, 134024, Note_off_c, 1, 62, 0
1, 134032, Note_off_c, 1, 43, 0
1, 134055, Note_off_c, 1, 70, 0
1, 134140, Note_on_c, 1, 64, 127
1, 134146, Note_on_c, 1, 48, 127
1, 134156, Note_off_c, 1, 69, 0
1, 134245, Note_off_c, 1, 48, 0
1, 134250, Note_on_c, 1, 67, 127
1, 134269, Note_off_c, 1, 64, 0
1, 134367, Note_off_c, 1, 67, 0
1, 134377, Note_on_c, 1, 69, 127
1, 134384, Note_on_c, 1, 60, 127
1, 134389, Note_on_c, 1, 65, 127
1, 134399, Note_on_c, 1, 41, 127
1, 134480, Note_on_c, 1, 70, 127
1, 134497, Note_on_c, 1, 62, 127
1, 134507, Note_off_c, 1, 41, 0
1, 134512, Note_off_c, 1, 69, 0
1, 134514, Note_off_c, 1, 60, 0
1, 134514, Note_off_c, 1, 65, 0
1, 134617, Note_off_c, 1, 62, 0
1, 134622, Note_on_c, 1, 53, 127
1, 134641, Note_off_c, 1, 70, 0
1, 134716, Note_on_c, 1, 67, 127
1, 134716, Note_on_c, 1, 58, 127
1, 134730, Note_on_c, 1, 55, 127
1, 134740, Note_off_c, 1, 53, 0
1, 134812, Note_off_c, 1, 58, 0
1, 134838, Note_off_c, 1, 67, 0
1, 134840, Note_off_c, 1, 55, 0
1, 134844, Note_on_c, 1, 65, 127
1, 134852, Note_on_c, 1, 60, 127
1, 134853, Note_on_c, 1, 57, 127
1, 134960, Note_off_c, 1, 60, 0
1, 134969, Note_off_c, 1, 65, 0
1, 134975, Note_on_c, 1, 58, 127
1, 135066, Note_on_c, 1, 62, 127
1, 135097, Note_on_c, 1, 77, 127
1, 135116, Note_off_c, 1, 58, 0
1, 135167, Note_on_c, 1, 64, 127
1, 135196, Note_off_c, 1, 62, 0
1, 135208, Note_on_c, 1, 79, 127
1, 135216, Note_off_c, 1, 77, 0
1, 135223, Note_on_c, 1, 55, 127
1, 135241, Note_off_c, 1, 57, 0
1, 135280, Note_off_c, 1, 64, 0
1, 135320, Note_off_c, 1, 79, 0
1, 135335, Note_off_c, 1, 55, 0
1, 135336, Note_on_c, 1, 81, 127
1, 135342, Note_on_c, 1, 53, 127
1, 135457, Note_off_c, 1, 53, 0
1, 135464, Note_off_c, 1, 81, 0
1, 135569, Note_on_c, 1, 74, 127
1, 135680, Note_on_c, 1, 76, 127
1, 135686, Note_off_c, 1, 74, 0
1, 135686, Note_on_c, 1, 52, 127
1, 135695, Note_on_c, 1, 67, 127
1, 135776, Note_off_c, 1, 52, 0
1, 135792, Note_off_c, 1, 76, 0
1, 135798, Note_off_c, 1, 67, 0
1, 135802, Note_on_c, 1, 77, 127
1, 135810, Note_on_c, 1, 69, 127
1, 135815, Note_on_c, 1, 50, 127
1, 135928, Note_on_c, 1, 52, 127
1, 135930, Note_off_c, 1, 77, 0
1, 135930, Note_off_c, 1, 50, 0
1, 135937, Note_on_c, 1, 67, 127
1, 135950, Note_off_c, 1, 69, 0
1, 136044, Note_on_c, 1, 65, 127
1, 136050, Note_on_c, 1, 71, 127
1, 136057, Note_off_c, 1, 67, 0
1, 136069, Note_on_c, 1, 55, 127
1, 136084, Note_off_c, 1, 52, 0
1, 136144, Note_on_c, 1, 57, 127
1, 136153, Note_on_c, 1, 72, 127
1, 136160, Note_on_c, 1, 48, 127
1, 136172, Note_on_c, 1, 64, 127
1, 136177, Note_off_c, 1, 65, 0
1, 136177, Note_off_c, 1, 55, 0
1, 136184, Note_off_c, 1, 71, 0
1, 136249, Note_off_c, 1, 57, 0
1, 136254, Note_off_c, 1, 48, 0
1, 136261, Note_off_c, 1, 72, 0
1, 136280, Note_on_c, 1, 59, 127
1, 136287, Note_on_c, 1, 74, 127
1, 136288, Note_off_c, 1, 64, 0
1, 136295, Note_on_c, 1, 62, 127
1, 136297, Note_on_c, 1, 47, 127
1, 136393, Note_off_c, 1, 74, 0
1, 136393, Note_off_c, 1, 62, 0
1, 136403, Note_off_c, 1, 59, 0
1, 136408, Note_off_c, 1, 47, 0
1, 136615, Note_on_c, 1, 60, 127
1, 136638, Note_on_c, 1, 45, 127
1, 136751, Note_on_c, 1, 43, 127
1, 136772, Note_off_c, 1, 45, 0
1, 136782, Note_off_c, 1, 60, 0
1, 136788, Note_on_c, 1, 79, 127
1, 136878, Note_off_c, 1, 79, 0
1, 136892, Note_off_c, 1, 43, 0
1, 137111, Note_on_c, 1, 41, 127
1, 137239, Note_off_c, 1, 41, 0
1, 137241, Note_on_c, 1, 40, 127
1, 137250, Note_on_c, 1, 67, 127
1, 137269, Note_on_c, 1, 72, 127
1, 137277, Note_on_c, 1, 64, 127
1, 137370, Note_off_c, 1, 40, 0
1, 137377, Note_off_c, 1, 67, 0
1, 137389, Note_off_c, 1, 64, 0
1, 137470, Note_on_c, 1, 41, 127
1, 137502, Note_on_c, 1, 69, 127
1, 137600, Note_on_c, 1, 74, 127
1, 137607, Note_off_c, 1, 41, 0
1, 137615, Note_off_c, 1, 72, 0
1, 137629, Note_off_c, 1, 69, 0
1, 137672, Note_off_c, 1, 74, 0
1, 137725, Note_on_c, 1, 71, 127
1, 137728, Note_on_c, 1, 43, 127
1, 137737, Note_on_c, 1, 67, 127
1, 137744, Note_on_c, 1, 76, 127
1, 137809, Note_on_c, 1, 74, 127
1, 137831, Note_off_c, 1, 76, 0
1, 137840, Note_off_c, 1, 43, 0
1, 137855, Note_off_c, 1, 67, 0
1, 137857, Note_off_c, 1, 71, 0
1, 137898, Note_off_c, 1, 74, 0
1, 137975, Note_on_c, 1, 62, 127
1, 138076, Note_on_c, 1, 72, 127
1, 138078, Note_off_c, 1, 62, 0
1, 138190, Note_off_c, 1, 72, 0
1, 138220, Note_on_c, 1, 72, 127
1, 138222, Note_on_c, 1, 67, 127
1, 138236, Note_on_c, 1, 36, 127
1, 138241, Note_on_c, 1, 64, 127
1, 138707, Note_off_c, 1, 64, 0
1, 138726, Note_off_c, 1, 72, 0
1, 138731, Note_off_c, 1, 67, 0
1, 138772, Note_off_c, 1, 36, 0
1, 138772, End_track
0, 0, End_of_file