0, 0, Header, 1, 1, 480
1, 0, Start_track
1, 0, Title_t, "Test"
1, 0, Tempo, 500000
1, 0, Instrument_name_t, "Church Organ"
1, 120, Note_on_c, 1, 69, 127
1, 120, Note_on_c, 1, 62, 127
1, 149, Note_off_c, 1, 62, 0
1, 150, Note_on_c, 1, 64, 127
1, 179, Note_off_c, 1, 69, 0
1, 179, Note_off_c, 1, 64, 0
1, 180, Note_on_c, 1, 74, 127
1, 180, Note_on_c, 1, 66, 127
1, 209, Note_off_c, 1, 66, 0
1, 210, Note_on_c, 1, 64, 127
1, 239, Note_off_c, 1, 64, 0
1, 240, Note_on_c, 1, 69, 127
1, 240, Note_on_c, 1, 62, 127
1, 240, Note_on_c, 1, 67, 127
1, 269, Note_off_c, 1, 67, 0
1, 299, Note_off_c, 1, 74, 0
1, 299, Note_off_c, 1, 69, 0
1, 299, Note_off_c, 1, 62, 0
1, 300, Note_on_c, 1, 69, 127
1, 300, Note_on_c, 1, 74, 127
1, 300, Note_on_c, 1, 66, 127
1, 300, Note_on_c, 1, 64, 127
1, 329, Note_off_c, 1, 64, 0
1, 330, Note_on_c, 1, 62, 127
1, 359, Note_off_c, 1, 69, 0
1, 359, Note_off_c, 1, 74, 0
1, 359, Note_off_c, 1, 66, 0
1, 359, Note_off_c, 1, 62, 0
1, 360, Note_on_c, 1, 76, 127
1, 360, Note_on_c, 1, 61, 127
1, 389, Note_off_c, 1, 61, 0
1, 390, Note_on_c, 1, 59, 127
1, 419, Note_off_c, 1, 59, 0
1, 420, Note_on_c, 1, 69, 127
1, 420, Note_on_c, 1, 64, 127
1, 420, Note_on_c, 1, 62, 127
1, 449, Note_off_c, 1, 62, 0
1, 479, Note_off_c, 1, 76, 0
1, 479, Note_off_c, 1, 69, 0
1, 479, Note_off_c, 1, 64, 0
1, 480, Note_on_c, 1, 69, 127
1, 480, Note_on_c, 1, 76, 127
1, 480, Note_on_c, 1, 73, 127
1, 480, Note_on_c, 1, 59, 127
1, 509, Note_off_c, 1, 59, 0
1, 510, Note_on_c, 1, 57, 127
1, 539, Note_off_c, 1, 69, 0
1, 539, Note_off_c, 1, 76, 0
1, 539, Note_off_c, 1, 73, 0
1, 539, Note_off_c, 1, 57, 0
1, 540, Note_on_c, 1, 78, 127
1, 540, Note_on_c, 1, 62, 127
1, 587, Note_off_c, 1, 62, 0
1, 599, Note_off_c, 1, 78, 0
1, 600, Note_on_c, 1, 76, 127
1, 600, Note_on_c, 1, 74, 127
1, 600, Note_on_c, 1, 71, 127
1, 600, Note_on_c, 1, 55, 127
1, 629, Note_off_c, 1, 76, 0
1, 630, Note_on_c, 1, 78, 127
1, 647, Note_off_c, 1, 55, 0
1, 659, Note_off_c, 1, 74, 0
1, 659, Note_off_c, 1, 71, 0
1, 659, Note_off_c, 1, 78, 0
1, 660, Note_on_c, 1, 79, 127
1, 660, Note_on_c, 1, 73, 127
1, 660, Note_on_c, 1, 69, 127
1, 660, Note_on_c, 1, 57, 127
1, 689, Note_off_c, 1, 79, 0
1, 690, Note_on_c, 1, 76, 127
1, 707, Note_off_c, 1, 57, 0
1, 719, Note_off_c, 1, 73, 0
1, 719, Note_off_c, 1, 69, 0
1, 719, Note_off_c, 1, 76, 0
1, 720, Note_on_c, 1, 79, 127
1, 720, Note_on_c, 1, 74, 127
1, 720, Note_on_c, 1, 69, 127
1, 720, Note_on_c, 1, 62, 127
1, 749, Note_off_c, 1, 79, 0
1, 750, Note_on_c, 1, 78, 127
1, 767, Note_off_c, 1, 62, 0
1, 779, Note_off_c, 1, 74, 0
1, 779, Note_off_c, 1, 69, 0
1, 779, Note_off_c, 1, 78, 0
1, 780, Note_on_c, 1, 76, 127
1, 780, Note_on_c, 1, 69, 127
1, 780, Note_on_c, 1, 66, 127
1, 809, Note_off_c, 1, 76, 0
1, 810, Note_on_c, 1, 74, 127
1, 839, Note_off_c, 1, 69, 0
1, 839, Note_off_c, 1, 66, 0
1, 839, Note_off_c, 1, 74, 0
1, 840, Note_on_c, 1, 78, 127
1, 840, Note_on_c, 1, 69, 127
1, 840, Note_on_c, 1, 62, 127
1, 840, Note_on_c, 1, 50, 127
1, 840, Note_on_c, 1, 66, 127
1, 840, Note_on_c, 1, 38, 127
1, 869, Note_off_c, 1, 78, 0
1, 870, Note_on_c, 1, 76, 127
1, 887, Note_off_c, 1, 38, 0
1, 899, Note_off_c, 1, 69, 0
1, 899, Note_off_c, 1, 62, 0
1, 899, Note_off_c, 1, 66, 0
1, 899, Note_off_c, 1, 76, 0
1, 900, Note_on_c, 1, 79, 127
1, 900, Note_on_c, 1, 74, 127
1, 929, Note_off_c, 1, 79, 0
1, 960, Note_off_c, 1, 50, 0
1, 960, Note_on_c, 1, 54, 127
1, 1007, Note_off_c, 1, 54, 0
1, 1019, Note_off_c, 1, 74, 0
1, 1020, Note_on_c, 1, 78, 127
1, 1020, Note_on_c, 1, 69, 127
1, 1020, Note_on_c, 1, 74, 127
1, 1020, Note_on_c, 1, 50, 127
1, 1020, Note_on_c, 1, 66, 127
1, 1049, Note_off_c, 1, 78, 0
1, 1050, Note_on_c, 1, 76, 127
1, 1067, Note_off_c, 1, 66, 0
1, 1079, Note_off_c, 1, 69, 0
1, 1079, Note_off_c, 1, 74, 0
1, 1079, Note_off_c, 1, 76, 0
1, 1080, Note_off_c, 1, 50, 0
1, 1080, Note_on_c, 1, 79, 127
1, 1080, Note_on_c, 1, 45, 127
1, 1080, Note_on_c, 1, 64, 127
1, 1080, Note_on_c, 1, 49, 127
1, 1109, Note_off_c, 1, 79, 0
1, 1127, Note_off_c, 1, 49, 0
1, 1175, Note_off_c, 1, 64, 0
1, 1187, Note_off_c, 1, 45, 0
1, 1200, Note_on_c, 1, 78, 127
1, 1200, Note_on_c, 1, 69, 127
1, 1200, Note_on_c, 1, 45, 127
1, 1200, Note_on_c, 1, 64, 127
1, 1200, Note_on_c, 1, 49, 127
1, 1229, Note_off_c, 1, 78, 0
1, 1230, Note_on_c, 1, 76, 127
1, 1247, Note_off_c, 1, 64, 0
1, 1247, Note_off_c, 1, 49, 0
1, 1259, Note_off_c, 1, 69, 0
1, 1259, Note_off_c, 1, 76, 0
1, 1260, Note_off_c, 1, 45, 0
1, 1260, Note_on_c, 1, 74, 127
1, 1260, Note_on_c, 1, 50, 127
1, 1260, Note_on_c, 1, 81, 127
1, 1260, Note_on_c, 1, 57, 127
1, 1307, Note_off_c, 1, 57, 0
1, 1319, Note_off_c, 1, 74, 0
1, 1319, Note_off_c, 1, 81, 0
1, 1320, Note_off_c, 1, 50, 0
1, 1320, Note_on_c, 1, 86, 127
1, 1320, Note_on_c, 1, 79, 127
1, 1349, Note_off_c, 1, 79, 0
1, 1379, Note_off_c, 1, 86, 0
1, 1380, Note_on_c, 1, 85, 127
1, 1380, Note_on_c, 1, 79, 127
1, 1380, Note_on_c, 1, 69, 127
1, 1380, Note_on_c, 1, 45, 127
1, 1380, Note_on_c, 1, 76, 127
1, 1380, Note_on_c, 1, 64, 127
1, 1409, Note_off_c, 1, 79, 0
1, 1409, Note_off_c, 1, 69, 0
1, 1409, Note_off_c, 1, 76, 0
1, 1410, Note_on_c, 1, 78, 127
1, 1410, Note_on_c, 1, 73, 127
1, 1427, Note_off_c, 1, 64, 0
1, 1439, Note_off_c, 1, 85, 0
1, 1439, Note_off_c, 1, 45, 0
1, 1439, Note_off_c, 1, 78, 0
1, 1439, Note_off_c, 1, 73, 0
1, 1440, Note_on_c, 1, 86, 127
1, 1440, Note_on_c, 1, 79, 127
1, 1440, Note_on_c, 1, 69, 127
1, 1440, Note_on_c, 1, 50, 127
1, 1440, Note_on_c, 1, 74, 127
1, 1440, Note_on_c, 1, 62, 127
1, 1469, Note_off_c, 1, 79, 0
1, 1470, Note_on_c, 1, 78, 127
1, 1487, Note_off_c, 1, 62, 0
1, 1499, Note_off_c, 1, 86, 0
1, 1499, Note_off_c, 1, 69, 0
1, 1499, Note_off_c, 1, 50, 0
1, 1499, Note_off_c, 1, 74, 0
1, 1499, Note_off_c, 1, 78, 0
1, 1500, Note_on_c, 1, 76, 127
1, 1500, Note_on_c, 1, 66, 127
1, 1500, Note_on_c, 1, 50, 127
1, 1500, Note_on_c, 1, 69, 127
1, 1500, Note_on_c, 1, 42, 127
1, 1529, Note_off_c, 1, 76, 0
1, 1530, Note_on_c, 1, 74, 127
1, 1547, Note_off_c, 1, 42, 0
1, 1559, Note_off_c, 1, 66, 0
1, 1559, Note_off_c, 1, 50, 0
1, 1559, Note_off_c, 1, 69, 0
1, 1559, Note_off_c, 1, 74, 0
1, 1560, Note_on_c, 1, 76, 127
1, 1560, Note_on_c, 1, 73, 127
1, 1560, Note_on_c, 1, 69, 127
1, 1560, Note_on_c, 1, 45, 127
1, 1607, Note_off_c, 1, 69, 0
1, 1607, Note_off_c, 1, 45, 0
1, 1619, Note_off_c, 1, 76, 0
1, 1619, Note_off_c, 1, 73, 0
1, 1620, Note_on_c, 1, 78, 127
1, 1620, Note_on_c, 1, 62, 127
1, 1620, Note_on_c, 1, 50, 127
1, 1649, Note_off_c, 1, 78, 0
1, 1650, Note_on_c, 1, 79, 127
1, 1664, Note_off_c, 1, 79, 0
1, 1665, Note_on_c, 1, 81, 127
1, 1679, Note_off_c, 1, 81, 0
1, 1680, Note_on_c, 1, 83, 127
1, 1680, Note_on_c, 1, 74, 127
1, 1709, Note_off_c, 1, 83, 0
1, 1709, Note_off_c, 1, 74, 0
1, 1710, Note_on_c, 1, 73, 127
1, 1715, Note_off_c, 1, 62, 0
1, 1715, Note_off_c, 1, 50, 0
1, 1739, Note_off_c, 1, 73, 0
1, 1740, Note_on_c, 1, 79, 127
1, 1740, Note_on_c, 1, 74, 127
1, 1740, Note_on_c, 1, 71, 127
1, 1770, Note_on_c, 1, 78, 127
1, 1787, Note_off_c, 1, 71, 0
1, 1799, Note_off_c, 1, 79, 0
1, 1799, Note_off_c, 1, 74, 0
1, 1799, Note_off_c, 1, 78, 0
1, 1800, Note_on_c, 1, 76, 127
1, 1800, Note_on_c, 1, 61, 127
1, 1829, Note_off_c, 1, 76, 0
1, 1830, Note_on_c, 1, 78, 127
1, 1844, Note_off_c, 1, 78, 0
1, 1845, Note_on_c, 1, 79, 127
1, 1859, Note_off_c, 1, 79, 0
1, 1860, Note_on_c, 1, 81, 127
1, 1860, Note_on_c, 1, 69, 127
1, 1889, Note_off_c, 1, 81, 0
1, 1889, Note_off_c, 1, 69, 0
1, 1890, Note_on_c, 1, 71, 127
1, 1895, Note_off_c, 1, 61, 0
1, 1919, Note_off_c, 1, 71, 0
1, 1920, Note_on_c, 1, 78, 127
1, 1920, Note_on_c, 1, 73, 127
1, 1920, Note_on_c, 1, 69, 127
1, 1950, Note_on_c, 1, 76, 127
1, 1967, Note_off_c, 1, 69, 0
1, 1979, Note_off_c, 1, 78, 0
1, 1979, Note_off_c, 1, 73, 0
1, 1979, Note_off_c, 1, 76, 0
1, 1980, Note_on_c, 1, 74, 127
1, 1980, Note_on_c, 1, 59, 127
1, 2009, Note_off_c, 1, 74, 0
1, 2010, Note_on_c, 1, 76, 127
1, 2024, Note_off_c, 1, 76, 0
1, 2025, Note_on_c, 1, 78, 127
1, 2027, Note_off_c, 1, 59, 0
1, 2039, Note_off_c, 1, 78, 0
1, 2040, Note_on_c, 1, 79, 127
1, 2040, Note_on_c, 1, 76, 127
1, 2040, Note_on_c, 1, 69, 127
1, 2040, Note_on_c, 1, 61, 127
1, 2069, Note_off_c, 1, 79, 0
1, 2070, Note_on_c, 1, 81, 127
1, 2084, Note_off_c, 1, 81, 0
1, 2087, Note_off_c, 1, 61, 0
1, 2099, Note_off_c, 1, 76, 0
1, 2099, Note_off_c, 1, 69, 0
1, 2100, Note_on_c, 1, 78, 127
1, 2100, Note_on_c, 1, 74, 127
1, 2100, Note_on_c, 1, 69, 127
1, 2100, Note_on_c, 1, 62, 127
1, 2129, Note_off_c, 1, 78, 0
1, 2130, Note_on_c, 1, 79, 127
1, 2144, Note_off_c, 1, 79, 0
1, 2147, Note_off_c, 1, 62, 0
1, 2159, Note_off_c, 1, 74, 0
1, 2159, Note_off_c, 1, 69, 0
1, 2160, Note_on_c, 1, 76, 127
1, 2160, Note_on_c, 1, 73, 127
1, 2160, Note_on_c, 1, 69, 127
1, 2160, Note_on_c, 1, 57, 127
1, 2175, Note_off_c, 1, 73, 0
1, 2175, Note_on_c, 1, 74, 127
1, 2189, Note_off_c, 1, 76, 0
1, 2207, Note_off_c, 1, 57, 0
1, 2219, Note_off_c, 1, 69, 0
1, 2219, Note_off_c, 1, 74, 0
1, 2220, Note_on_c, 1, 76, 127
1, 2220, Note_on_c, 1, 71, 127
1, 2220, Note_on_c, 1, 64, 127
1, 2220, Note_on_c, 1, 61, 127
1, 2249, Note_off_c, 1, 76, 0
1, 2249, Note_off_c, 1, 71, 0
1, 2250, Note_on_c, 1, 81, 127
1, 2250, Note_on_c, 1, 69, 127
1, 2267, Note_off_c, 1, 61, 0
1, 2279, Note_off_c, 1, 64, 0
1, 2279, Note_off_c, 1, 81, 0
1, 2279, Note_off_c, 1, 69, 0
1, 2280, Note_on_c, 1, 79, 127
1, 2280, Note_on_c, 1, 76, 127
1, 2280, Note_on_c, 1, 69, 127
1, 2280, Note_on_c, 1, 45, 127
1, 2280, Note_on_c, 1, 73, 127
1, 2280, Note_on_c, 1, 57, 127
1, 2309, Note_off_c, 1, 79, 0
1, 2310, Note_on_c, 1, 81, 127
1, 2327, Note_off_c, 1, 57, 0
1, 2339, Note_off_c, 1, 76, 0
1, 2339, Note_off_c, 1, 69, 0
1, 2339, Note_off_c, 1, 45, 0
1, 2339, Note_off_c, 1, 73, 0
1, 2339, Note_off_c, 1, 81, 0
1, 2340, Note_on_c, 1, 78, 127
1, 2340, Note_on_c, 1, 74, 127
1, 2340, Note_on_c, 1, 69, 127
1, 2340, Note_on_c, 1, 50, 127
1, 2369, Note_off_c, 1, 78, 0
1, 2370, Note_on_c, 1, 76, 127
1, 2370, Note_on_c, 1, 73, 127
1, 2399, Note_off_c, 1, 74, 0
1, 2399, Note_off_c, 1, 69, 0
1, 2399, Note_off_c, 1, 76, 0
1, 2399, Note_off_c, 1, 73, 0
1, 2400, Note_on_c, 1, 79, 127
1, 2400, Note_on_c, 1, 83, 127
1, 2400, Note_on_c, 1, 71, 127
1, 2400, Note_on_c, 1, 66, 127
1, 2429, Note_off_c, 1, 79, 0
1, 2429, Note_off_c, 1, 83, 0
1, 2430, Note_on_c, 1, 81, 127
1, 2435, Note_off_c, 1, 50, 0
1, 2447, Note_off_c, 1, 66, 0
1, 2459, Note_off_c, 1, 71, 0
1, 2459, Note_off_c, 1, 81, 0
1, 2460, Note_on_c, 1, 76, 127
1, 2460, Note_on_c, 1, 79, 127
1, 2460, Note_on_c, 1, 74, 127
1, 2460, Note_on_c, 1, 62, 127
1, 2460, Note_on_c, 1, 59, 127
1, 2489, Note_off_c, 1, 76, 0
1, 2489, Note_off_c, 1, 79, 0
1, 2490, Note_on_c, 1, 78, 127
1, 2507, Note_off_c, 1, 62, 0
1, 2507, Note_off_c, 1, 59, 0
1, 2519, Note_off_c, 1, 74, 0
1, 2519, Note_off_c, 1, 78, 0
1, 2520, Note_on_c, 1, 81, 127
1, 2520, Note_on_c, 1, 76, 127
1, 2520, Note_on_c, 1, 69, 127
1, 2520, Note_on_c, 1, 45, 127
1, 2520, Note_on_c, 1, 57, 127
1, 2520, Note_on_c, 1, 49, 127
1, 2550, Note_on_c, 1, 74, 127
1, 2567, Note_off_c, 1, 57, 0
1, 2579, Note_off_c, 1, 76, 0
1, 2579, Note_off_c, 1, 69, 0
1, 2579, Note_off_c, 1, 45, 0
1, 2579, Note_off_c, 1, 74, 0
1, 2580, Note_on_c, 1, 73, 127
1, 2580, Note_on_c, 1, 64, 127
1, 2609, Note_off_c, 1, 73, 0
1, 2610, Note_on_c, 1, 79, 127
1, 2610, Note_on_c, 1, 71, 127
1, 2615, Note_off_c, 1, 49, 0
1, 2627, Note_off_c, 1, 64, 0
1, 2639, Note_off_c, 1, 79, 0
1, 2639, Note_off_c, 1, 71, 0
1, 2640, Note_on_c, 1, 78, 127
1, 2669, Note_off_c, 1, 78, 0
1, 2700, Note_on_c, 1, 66, 127
1, 2700, Note_on_c, 1, 50, 127
1, 2700, Note_on_c, 1, 47, 127
1, 2747, Note_off_c, 1, 47, 0
1, 2759, Note_off_c, 1, 81, 0
1, 2759, Note_off_c, 1, 66, 0
1, 2759, Note_off_c, 1, 50, 0
1, 2760, Note_on_c, 1, 69, 127
1, 2760, Note_on_c, 1, 79, 127
1, 2760, Note_on_c, 1, 76, 127
1, 2760, Note_on_c, 1, 45, 127
1, 2760, Note_on_c, 1, 64, 127
1, 2760, Note_on_c, 1, 49, 127
1, 2789, Note_off_c, 1, 69, 0
1, 2807, Note_off_c, 1, 64, 0
1, 2807, Note_off_c, 1, 49, 0
1, 2819, Note_off_c, 1, 79, 0
1, 2819, Note_off_c, 1, 76, 0
1, 2819, Note_off_c, 1, 45, 0
1, 2820, Note_on_c, 1, 69, 127
1, 2820, Note_on_c, 1, 78, 127
1, 2820, Note_on_c, 1, 74, 127
1, 2820, Note_on_c, 1, 50, 127
1, 2879, Note_off_c, 1, 69, 0
1, 2879, Note_off_c, 1, 78, 0
1, 2879, Note_off_c, 1, 74, 0
1, 2879, Note_off_c, 1, 50, 0
1, 2880, Note_on_c, 1, 69, 127
1, 2880, Note_on_c, 1, 76, 127
1, 2880, Note_on_c, 1, 45, 127
1, 2880, Note_on_c, 1, 73, 127
1, 2939, Note_off_c, 1, 69, 0
1, 2939, Note_off_c, 1, 45, 0
1, 2939, Note_off_c, 1, 73, 0
1, 2940, Note_on_c, 1, 81, 127
1, 2940, Note_on_c, 1, 64, 127
1, 2940, Note_on_c, 1, 49, 127
1, 2969, Note_off_c, 1, 76, 0
1, 2970, Note_on_c, 1, 78, 127
1, 2970, Note_on_c, 1, 74, 127
1, 2987, Note_off_c, 1, 64, 0
1, 2987, Note_off_c, 1, 49, 0
1, 2999, Note_off_c, 1, 81, 0
1, 2999, Note_off_c, 1, 78, 0
1, 2999, Note_off_c, 1, 74, 0
1, 3000, Note_on_c, 1, 79, 127
1, 3000, Note_on_c, 1, 76, 127
1, 3000, Note_on_c, 1, 69, 127
1, 3000, Note_on_c, 1, 45, 127
1, 3000, Note_on_c, 1, 73, 127
1, 3000, Note_on_c, 1, 64, 127
1, 3029, Note_off_c, 1, 73, 0
1, 3030, Note_on_c, 1, 71, 127
1, 3059, Note_off_c, 1, 45, 0
1, 3059, Note_off_c, 1, 64, 0
1, 3059, Note_off_c, 1, 71, 0
1, 3060, Note_on_c, 1, 50, 127
1, 3060, Note_on_c, 1, 66, 127
1, 3089, Note_off_c, 1, 66, 0
1, 3090, Note_on_c, 1, 67, 127
1, 3090, Note_on_c, 1, 49, 127
1, 3119, Note_off_c, 1, 79, 0
1, 3119, Note_off_c, 1, 76, 0
1, 3119, Note_off_c, 1, 69, 0
1, 3119, Note_off_c, 1, 50, 0
1, 3119, Note_off_c, 1, 67, 0
1, 3119, Note_off_c, 1, 49, 0
1, 3120, Note_on_c, 1, 78, 127
1, 3120, Note_on_c, 1, 74, 127
1, 3120, Note_on_c, 1, 69, 127
1, 3120, Note_on_c, 1, 62, 127
1, 3120, Note_on_c, 1, 54, 127
1, 3149, Note_off_c, 1, 78, 0
1, 3149, Note_off_c, 1, 54, 0
1, 3150, Note_on_c, 1, 80, 127
1, 3150, Note_on_c, 1, 52, 127
1, 3167, Note_off_c, 1, 62, 0
1, 3179, Note_off_c, 1, 74, 0
1, 3179, Note_off_c, 1, 80, 0
1, 3179, Note_off_c, 1, 52, 0
1, 3180, Note_on_c, 1, 81, 127
1, 3180, Note_on_c, 1, 76, 127
1, 3180, Note_on_c, 1, 45, 127
1, 3180, Note_on_c, 1, 73, 127
1, 3180, Note_on_c, 1, 64, 127
1, 3180, Note_on_c, 1, 50, 127
1, 3209, Note_off_c, 1, 73, 0
1, 3209, Note_off_c, 1, 50, 0
1, 3210, Note_on_c, 1, 49, 127
1, 3227, Note_off_c, 1, 64, 0
1, 3239, Note_off_c, 1, 76, 0
1, 3239, Note_off_c, 1, 45, 0
1, 3239, Note_off_c, 1, 49, 0
1, 3269, Note_off_c, 1, 69, 0
1, 3270, Note_on_c, 1, 71, 127
1, 3270, Note_on_c, 1, 47, 127
1, 3299, Note_off_c, 1, 81, 0
1, 3299, Note_off_c, 1, 71, 0
1, 3299, Note_off_c, 1, 47, 0
1, 3300, Note_on_c, 1, 80, 127
1, 3300, Note_on_c, 1, 76, 127
1, 3300, Note_on_c, 1, 73, 127
1, 3300, Note_on_c, 1, 56, 127
1, 3300, Note_on_c, 1, 52, 127
1, 3329, Note_off_c, 1, 80, 0
1, 3329, Note_off_c, 1, 52, 0
1, 3330, Note_on_c, 1, 81, 127
1, 3330, Note_on_c, 1, 50, 127
1, 3347, Note_off_c, 1, 56, 0
1, 3359, Note_off_c, 1, 73, 0
1, 3359, Note_off_c, 1, 81, 0
1, 3359, Note_off_c, 1, 50, 0
1, 3360, Note_on_c, 1, 83, 127
1, 3360, Note_on_c, 1, 62, 127
1, 3360, Note_on_c, 1, 74, 127
1, 3360, Note_on_c, 1, 68, 127
1, 3360, Note_on_c, 1, 64, 127
1, 3360, Note_on_c, 1, 49, 127
1, 3389, Note_off_c, 1, 83, 0
1, 3389, Note_off_c, 1, 49, 0
1, 3390, Note_on_c, 1, 47, 127
1, 3419, Note_off_c, 1, 62, 0
1, 3419, Note_off_c, 1, 74, 0
1, 3419, Note_off_c, 1, 68, 0
1, 3419, Note_off_c, 1, 47, 0
1, 3420, Note_on_c, 1, 69, 127
1, 3420, Note_on_c, 1, 45, 127
1, 3455, Note_off_c, 1, 64, 0
1, 3479, Note_off_c, 1, 69, 0
1, 3479, Note_off_c, 1, 45, 0
1, 3480, Note_off_c, 1, 76, 0
1, 3480, Note_on_c, 1, 85, 127
1, 3480, Note_on_c, 1, 78, 127
1, 3480, Note_on_c, 1, 38, 127
1, 3509, Note_off_c, 1, 85, 0
1, 3527, Note_off_c, 1, 38, 0
1, 3539, Note_off_c, 1, 78, 0
1, 3540, Note_on_c, 1, 81, 127
1, 3540, Note_on_c, 1, 76, 127
1, 3540, Note_on_c, 1, 83, 127
1, 3540, Note_on_c, 1, 71, 127
1, 3540, Note_on_c, 1, 74, 127
1, 3540, Note_on_c, 1, 40, 127
1, 3569, Note_off_c, 1, 81, 0
1, 3570, Note_on_c, 1, 80, 127
1, 3587, Note_off_c, 1, 74, 0
1, 3587, Note_off_c, 1, 40, 0
1, 3599, Note_off_c, 1, 83, 0
1, 3599, Note_off_c, 1, 71, 0
1, 3599, Note_off_c, 1, 80, 0
1, 3600, Note_on_c, 1, 69, 127
1, 3600, Note_on_c, 1, 78, 127
1, 3600, Note_on_c, 1, 45, 127
1, 3600, Note_on_c, 1, 42, 127
1, 3630, Note_on_c, 1, 72, 127
1, 3630, Note_on_c, 1, 54, 127
1, 3653, Note_off_c, 1, 72, 0
1, 3659, Note_off_c, 1, 76, 0
1, 3659, Note_off_c, 1, 69, 0
1, 3659, Note_off_c, 1, 78, 0
1, 3659, Note_off_c, 1, 45, 0
1, 3659, Note_off_c, 1, 54, 0
1, 3660, Note_off_c, 1, 42, 0
1, 3720, Note_on_c, 1, 75, 127
1, 3720, Note_on_c, 1, 72, 127
1, 3720, Note_on_c, 1, 69, 127
1, 3720, Note_on_c, 1, 54, 127
1, 3743, Note_off_c, 1, 69, 0
1, 3749, Note_off_c, 1, 54, 0
1, 3780, Note_on_c, 1, 81, 127
1, 3780, Note_on_c, 1, 78, 127
1, 3780, Note_on_c, 1, 45, 127
1, 3780, Note_on_c, 1, 52, 127
1, 3780, Note_on_c, 1, 40, 127
1, 3809, Note_off_c, 1, 40, 0
1, 3839, Note_off_c, 1, 75, 0
1, 3839, Note_off_c, 1, 72, 0
1, 3839, Note_off_c, 1, 81, 0
1, 3839, Note_off_c, 1, 78, 0
1, 3839, Note_off_c, 1, 45, 0
1, 3869, Note_off_c, 1, 52, 0
1, 3900, Note_on_c, 1, 81, 127
1, 3900, Note_on_c, 1, 72, 127
1, 3900, Note_on_c, 1, 69, 127
1, 3900, Note_on_c, 1, 52, 127
1, 3923, Note_off_c, 1, 69, 0
1, 3929, Note_off_c, 1, 52, 0
1, 3960, Note_on_c, 1, 78, 127
1, 3960, Note_on_c, 1, 66, 127
1, 3960, Note_on_c, 1, 45, 127
1, 3960, Note_on_c, 1, 51, 127
1, 3960, Note_on_c, 1, 39, 127
1, 3989, Note_off_c, 1, 39, 0
1, 3990, Note_on_c, 1, 84, 127
1, 3990, Note_on_c, 1, 63, 127
1, 4013, Note_off_c, 1, 63, 0
1, 4019, Note_off_c, 1, 81, 0
1, 4019, Note_off_c, 1, 72, 0
1, 4019, Note_off_c, 1, 78, 0
1, 4019, Note_off_c, 1, 66, 0
1, 4019, Note_off_c, 1, 45, 0
1, 4019, Note_off_c, 1, 84, 0
1, 4020, Note_on_c, 1, 83, 127
1, 4049, Note_off_c, 1, 51, 0
1, 4049, Note_off_c, 1, 83, 0
1, 4050, Note_on_c, 1, 80, 127
1, 4050, Note_on_c, 1, 71, 127
1, 4073, Note_off_c, 1, 71, 0
1, 4079, Note_off_c, 1, 80, 0
1, 4080, Note_on_c, 1, 81, 127
1, 4080, Note_on_c, 1, 78, 127
1, 4080, Note_on_c, 1, 66, 127
1, 4080, Note_on_c, 1, 71, 127
1, 4080, Note_on_c, 1, 51, 127
1, 4103, Note_off_c, 1, 66, 0
1, 4103, Note_off_c, 1, 71, 0
1, 4109, Note_off_c, 1, 51, 0
1, 4139, Note_off_c, 1, 78, 0
1, 4140, Note_on_c, 1, 85, 127
1, 4140, Note_on_c, 1, 76, 127
1, 4140, Note_on_c, 1, 69, 127
1, 4140, Note_on_c, 1, 45, 127
1, 4140, Note_on_c, 1, 73, 127
1, 4140, Note_on_c, 1, 64, 127
1, 4140, Note_on_c, 1, 52, 127
1, 4169, Note_off_c, 1, 69, 0
1, 4169, Note_off_c, 1, 45, 0
1, 4169, Note_off_c, 1, 73, 0
1, 4169, Note_off_c, 1, 52, 0
1, 4170, Note_on_c, 1, 74, 127
1, 4170, Note_on_c, 1, 50, 127
1, 4187, Note_off_c, 1, 64, 0
1, 4199, Note_off_c, 1, 81, 0
1, 4199, Note_off_c, 1, 85, 0
1, 4199, Note_off_c, 1, 76, 0
1, 4199, Note_off_c, 1, 74, 0
1, 4199, Note_off_c, 1, 50, 0
1, 4200, Note_on_c, 1, 76, 127
1, 4200, Note_on_c, 1, 69, 127
1, 4200, Note_on_c, 1, 45, 127
1, 4200, Note_on_c, 1, 81, 127
1, 4200, Note_on_c, 1, 64, 127
1, 4200, Note_on_c, 1, 49, 127
1, 4229, Note_off_c, 1, 49, 0
1, 4230, Note_on_c, 1, 74, 127
1, 4230, Note_on_c, 1, 50, 127
1, 4247, Note_off_c, 1, 64, 0
1, 4259, Note_off_c, 1, 76, 0
1, 4259, Note_off_c, 1, 69, 0
1, 4259, Note_off_c, 1, 45, 0
1, 4259, Note_off_c, 1, 81, 0
1, 4259, Note_off_c, 1, 74, 0
1, 4259, Note_off_c, 1, 50, 0
1, 4260, Note_on_c, 1, 80, 127
1, 4260, Note_on_c, 1, 76, 127
1, 4260, Note_on_c, 1, 73, 127
1, 4260, Note_on_c, 1, 74, 127
1, 4260, Note_on_c, 1, 64, 127
1, 4260, Note_on_c, 1, 52, 127
1, 4289, Note_off_c, 1, 76, 0
1, 4289, Note_off_c, 1, 73, 0
1, 4290, Note_on_c, 1, 71, 127
1, 4307, Note_off_c, 1, 64, 0
1, 4307, Note_off_c, 1, 52, 0
1, 4319, Note_off_c, 1, 80, 0
1, 4319, Note_off_c, 1, 74, 0
1, 4319, Note_off_c, 1, 71, 0
1, 4320, Note_on_c, 1, 81, 127
1, 4320, Note_on_c, 1, 76, 127
1, 4320, Note_on_c, 1, 69, 127
1, 4320, Note_on_c, 1, 45, 127
1, 4320, Note_on_c, 1, 73, 127
1, 4320, Note_on_c, 1, 64, 127
1, 4349, Note_off_c, 1, 64, 0
1, 4410, Note_on_c, 1, 71, 127
1, 4439, Note_off_c, 1, 81, 0
1, 4439, Note_off_c, 1, 76, 0
1, 4439, Note_off_c, 1, 69, 0
1, 4439, Note_off_c, 1, 45, 0
1, 4439, Note_off_c, 1, 73, 0
1, 4439, Note_off_c, 1, 71, 0
1, 4440, Note_on_c, 1, 76, 127
1, 4440, Note_on_c, 1, 69, 127
1, 4469, Note_off_c, 1, 69, 0
1, 4470, Note_on_c, 1, 67, 127
1, 4499, Note_off_c, 1, 76, 0
1, 4499, Note_off_c, 1, 67, 0
1, 4500, Note_on_c, 1, 81, 127
1, 4500, Note_on_c, 1, 66, 127
1, 4529, Note_off_c, 1, 66, 0
1, 4560, Note_on_c, 1, 75, 127
1, 4560, Note_on_c, 1, 72, 127
1, 4560, Note_on_c, 1, 69, 127
1, 4589, Note_off_c, 1, 75, 0
1, 4589, Note_off_c, 1, 72, 0
1, 4589, Note_off_c, 1, 69, 0
1, 4590, Note_on_c, 1, 76, 127
1, 4590, Note_on_c, 1, 71, 127
1, 4590, Note_on_c, 1, 67, 127
1, 4619, Note_off_c, 1, 76, 0
1, 4619, Note_off_c, 1, 71, 0
1, 4619, Note_off_c, 1, 67, 0
1, 4620, Note_on_c, 1, 78, 127
1, 4650, Note_on_c, 1, 64, 127
1, 4679, Note_off_c, 1, 78, 0
1, 4679, Note_off_c, 1, 64, 0
1, 4680, Note_on_c, 1, 63, 127
1, 4709, Note_off_c, 1, 63, 0
1, 4710, Note_off_c, 1, 81, 0
1, 4710, Note_on_c, 1, 79, 127
1, 4710, Note_on_c, 1, 73, 127
1, 4739, Note_off_c, 1, 79, 0
1, 4739, Note_off_c, 1, 73, 0
1, 4740, Note_on_c, 1, 78, 127
1, 4740, Note_on_c, 1, 75, 127
1, 4740, Note_on_c, 1, 69, 127
1, 4740, Note_on_c, 1, 66, 127
1, 4769, Note_off_c, 1, 78, 0
1, 4769, Note_off_c, 1, 75, 0
1, 4769, Note_off_c, 1, 69, 0
1, 4769, Note_off_c, 1, 66, 0
1, 4770, Note_on_c, 1, 79, 127
1, 4770, Note_on_c, 1, 76, 127
1, 4770, Note_on_c, 1, 67, 127
1, 4770, Note_on_c, 1, 64, 127
1, 4799, Note_off_c, 1, 79, 0
1, 4799, Note_off_c, 1, 76, 0
1, 4799, Note_off_c, 1, 67, 0
1, 4799, Note_off_c, 1, 64, 0
1, 4800, Note_on_c, 1, 81, 127
1, 4800, Note_on_c, 1, 78, 127
1, 4800, Note_on_c, 1, 66, 127
1, 4800, Note_on_c, 1, 63, 127
1, 4829, Note_off_c, 1, 66, 0
1, 4829, Note_off_c, 1, 63, 0
1, 4830, Note_on_c, 1, 64, 127
1, 4830, Note_on_c, 1, 61, 127
1, 4859, Note_off_c, 1, 64, 0
1, 4859, Note_off_c, 1, 61, 0
1, 4860, Note_on_c, 1, 71, 127
1, 4860, Note_on_c, 1, 59, 127
1, 4889, Note_off_c, 1, 81, 0
1, 4889, Note_off_c, 1, 78, 0
1, 4890, Note_on_c, 1, 79, 127
1, 4890, Note_on_c, 1, 75, 127
1, 4907, Note_off_c, 1, 59, 0
1, 4919, Note_off_c, 1, 71, 0
1, 4919, Note_off_c, 1, 79, 0
1, 4919, Note_off_c, 1, 75, 0
1, 4920, Note_on_c, 1, 83, 127
1, 4920, Note_on_c, 1, 79, 127
1, 4920, Note_on_c, 1, 64, 127
1, 4920, Note_on_c, 1, 43, 127
1, 4949, Note_off_c, 1, 83, 0
1, 4949, Note_off_c, 1, 79, 0
1, 4950, Note_on_c, 1, 81, 127
1, 4950, Note_on_c, 1, 78, 127
1, 4967, Note_off_c, 1, 64, 0
1, 4967, Note_off_c, 1, 43, 0
1, 4979, Note_off_c, 1, 81, 0
1, 4979, Note_off_c, 1, 78, 0
1, 4980, Note_on_c, 1, 79, 127
1, 4980, Note_on_c, 1, 76, 127
1, 4980, Note_on_c, 1, 71, 127
1, 4980, Note_on_c, 1, 47, 127
1, 5009, Note_off_c, 1, 79, 0
1, 5009, Note_off_c, 1, 76, 0
1, 5010, Note_on_c, 1, 78, 127
1, 5010, Note_on_c, 1, 75, 127
1, 5027, Note_off_c, 1, 71, 0
1, 5027, Note_off_c, 1, 47, 0
1, 5039, Note_off_c, 1, 78, 0
1, 5039, Note_off_c, 1, 75, 0
1, 5040, Note_on_c, 1, 81, 127
1, 5040, Note_on_c, 1, 76, 127
1, 5040, Note_on_c, 1, 71, 127
1, 5040, Note_on_c, 1, 40, 127
1, 5069, Note_off_c, 1, 81, 0
1, 5070, Note_on_c, 1, 79, 127
1, 5087, Note_off_c, 1, 71, 0
1, 5087, Note_off_c, 1, 40, 0
1, 5099, Note_off_c, 1, 76, 0
1, 5099, Note_off_c, 1, 79, 0
1, 5100, Note_on_c, 1, 78, 127
1, 5100, Note_on_c, 1, 71, 127
1, 5100, Note_on_c, 1, 67, 127
1, 5100, Note_on_c, 1, 43, 127
1, 5129, Note_off_c, 1, 78, 0
1, 5130, Note_on_c, 1, 76, 127
1, 5147, Note_off_c, 1, 67, 0
1, 5147, Note_off_c, 1, 43, 0
1, 5159, Note_off_c, 1, 71, 0
1, 5159, Note_off_c, 1, 76, 0
1, 5160, Note_on_c, 1, 79, 127
1, 5160, Note_on_c, 1, 47, 127
1, 5189, Note_off_c, 1, 79, 0
1, 5190, Note_on_c, 1, 78, 127
1, 5207, Note_off_c, 1, 47, 0
1, 5219, Note_off_c, 1, 78, 0
1, 5220, Note_on_c, 1, 79, 127
1, 5220, Note_on_c, 1, 52, 127
1, 5280, Note_on_c, 1, 76, 127
1, 5280, Note_on_c, 1, 67, 127
1, 5309, Note_off_c, 1, 76, 0
1, 5309, Note_off_c, 1, 67, 0
1, 5310, Note_on_c, 1, 74, 127
1, 5310, Note_on_c, 1, 66, 127
1, 5315, Note_off_c, 1, 52, 0
1, 5339, Note_off_c, 1, 74, 0
1, 5339, Note_off_c, 1, 66, 0
1, 5340, Note_on_c, 1, 73, 127
1, 5340, Note_on_c, 1, 64, 127
1, 5369, Note_off_c, 1, 73, 0
1, 5369, Note_off_c, 1, 64, 0
1, 5370, Note_on_c, 1, 71, 127
1, 5370, Note_on_c, 1, 62, 127
1, 5399, Note_off_c, 1, 71, 0
1, 5399, Note_off_c, 1, 62, 0
1, 5400, Note_on_c, 1, 69, 127
1, 5400, Note_on_c, 1, 61, 127
1, 5429, Note_off_c, 1, 69, 0
1, 5429, Note_off_c, 1, 61, 0
1, 5430, Note_off_c, 1, 79, 0
1, 5430, Note_on_c, 1, 78, 127
1, 5459, Note_off_c, 1, 78, 0
1, 5460, Note_on_c, 1, 76, 127
1, 5460, Note_on_c, 1, 73, 127
1, 5460, Note_on_c, 1, 67, 127
1, 5460, Note_on_c, 1, 64, 127
1, 5489, Note_off_c, 1, 76, 0
1, 5489, Note_off_c, 1, 73, 0
1, 5489, Note_off_c, 1, 67, 0
1, 5489, Note_off_c, 1, 64, 0
1, 5490, Note_on_c, 1, 78, 127
1, 5490, Note_on_c, 1, 74, 127
1, 5490, Note_on_c, 1, 66, 127
1, 5490, Note_on_c, 1, 62, 127
1, 5519, Note_off_c, 1, 78, 0
1, 5519, Note_off_c, 1, 74, 0
1, 5519, Note_off_c, 1, 66, 0
1, 5519, Note_off_c, 1, 62, 0
1, 5520, Note_on_c, 1, 79, 127
1, 5520, Note_on_c, 1, 76, 127
1, 5520, Note_on_c, 1, 64, 127
1, 5520, Note_on_c, 1, 61, 127
1, 5549, Note_off_c, 1, 64, 0
1, 5549, Note_off_c, 1, 61, 0
1, 5550, Note_on_c, 1, 62, 127
1, 5550, Note_on_c, 1, 59, 127
1, 5579, Note_off_c, 1, 62, 0
1, 5579, Note_off_c, 1, 59, 0
1, 5580, Note_on_c, 1, 69, 127
1, 5580, Note_on_c, 1, 57, 127
1, 5609, Note_off_c, 1, 79, 0
1, 5609, Note_off_c, 1, 76, 0
1, 5610, Note_on_c, 1, 78, 127
1, 5610, Note_on_c, 1, 73, 127
1, 5627, Note_off_c, 1, 57, 0
1, 5639, Note_off_c, 1, 69, 0
1, 5639, Note_off_c, 1, 78, 0
1, 5639, Note_off_c, 1, 73, 0
1, 5640, Note_on_c, 1, 81, 127
1, 5640, Note_on_c, 1, 78, 127
1, 5640, Note_on_c, 1, 69, 127
1, 5640, Note_on_c, 1, 45, 127
1, 5640, Note_on_c, 1, 62, 127
1, 5640, Note_on_c, 1, 42, 127
1, 5669, Note_off_c, 1, 81, 0
1, 5670, Note_off_c, 1, 78, 0
1, 5670, Note_on_c, 1, 79, 127
1, 5670, Note_on_c, 1, 76, 127
1, 5687, Note_off_c, 1, 62, 0
1, 5687, Note_off_c, 1, 42, 0
1, 5699, Note_off_c, 1, 69, 0
1, 5699, Note_off_c, 1, 45, 0
1, 5699, Note_off_c, 1, 79, 0
1, 5700, Note_off_c, 1, 76, 0
1, 5700, Note_on_c, 1, 74, 127
1, 5730, Note_off_c, 1, 74, 0
1, 5730, Note_on_c, 1, 73, 127
1, 5760, Note_off_c, 1, 73, 0
1, 5760, Note_on_c, 1, 50, 127
1, 5819, Note_off_c, 1, 50, 0
1, 5820, Note_on_c, 1, 66, 127
1, 5820, Note_on_c, 1, 52, 127
1, 5867, Note_off_c, 1, 52, 0
1, 5879, Note_off_c, 1, 66, 0
1, 5880, Note_on_c, 1, 84, 127
1, 5880, Note_on_c, 1, 54, 127
1, 5927, Note_off_c, 1, 54, 0
1, 5939, Note_off_c, 1, 84, 0
1, 5940, Note_on_c, 1, 74, 127
1, 5940, Note_on_c, 1, 71, 127
1, 5940, Note_on_c, 1, 67, 127
1, 5940, Note_on_c, 1, 62, 127
1, 5940, Note_on_c, 1, 55, 127
1, 5969, Note_off_c, 1, 71, 0
1, 5970, Note_on_c, 1, 73, 127
1, 5999, Note_off_c, 1, 67, 0
1, 5999, Note_off_c, 1, 62, 0
1, 5999, Note_off_c, 1, 55, 0
1, 5999, Note_off_c, 1, 73, 0
1, 6000, Note_on_c, 1, 54, 127
1, 6030, Note_on_c, 1, 76, 127
1, 6047, Note_off_c, 1, 54, 0
1, 6059, Note_off_c, 1, 74, 0
1, 6059, Note_off_c, 1, 76, 0
1, 6060, Note_on_c, 1, 83, 127
1, 6060, Note_on_c, 1, 73, 127
1, 6060, Note_on_c, 1, 67, 127
1, 6060, Note_on_c, 1, 52, 127
1, 6089, Note_off_c, 1, 73, 0
1, 6090, Note_on_c, 1, 74, 127
1, 6107, Note_off_c, 1, 52, 0
1, 6119, Note_off_c, 1, 83, 0
1, 6119, Note_off_c, 1, 67, 0
1, 6119, Note_off_c, 1, 74, 0
1, 6120, Note_on_c, 1, 74, 127
1, 6120, Note_on_c, 1, 69, 127
1, 6120, Note_on_c, 1, 66, 127
1, 6120, Note_on_c, 1, 54, 127
1, 6150, Note_on_c, 1, 73, 127
1, 6179, Note_off_c, 1, 69, 0
1, 6179, Note_off_c, 1, 66, 0
1, 6179, Note_off_c, 1, 54, 0
1, 6179, Note_off_c, 1, 73, 0
1, 6180, Note_on_c, 1, 67, 127
1, 6180, Note_on_c, 1, 71, 127
1, 6180, Note_on_c, 1, 52, 127
1, 6210, Note_on_c, 1, 76, 127
1, 6227, Note_off_c, 1, 71, 0
1, 6227, Note_off_c, 1, 52, 0
1, 6239, Note_off_c, 1, 74, 0
1, 6239, Note_off_c, 1, 67, 0
1, 6239, Note_off_c, 1, 76, 0
1, 6240, Note_on_c, 1, 81, 127
1, 6240, Note_on_c, 1, 73, 127
1, 6240, Note_on_c, 1, 69, 127
1, 6240, Note_on_c, 1, 66, 127
1, 6240, Note_on_c, 1, 50, 127
1, 6269, Note_off_c, 1, 73, 0
1, 6270, Note_on_c, 1, 74, 127
1, 6287, Note_off_c, 1, 66, 0
1, 6287, Note_off_c, 1, 50, 0
1, 6299, Note_off_c, 1, 81, 0
1, 6299, Note_off_c, 1, 69, 0
1, 6299, Note_off_c, 1, 74, 0
1, 6300, Note_on_c, 1, 74, 127
1, 6300, Note_on_c, 1, 67, 127
1, 6300, Note_on_c, 1, 71, 127
1, 6300, Note_on_c, 1, 59, 127
1, 6330, Note_on_c, 1, 73, 127
1, 6359, Note_off_c, 1, 67, 0
1, 6359, Note_off_c, 1, 71, 0
1, 6359, Note_off_c, 1, 59, 0
1, 6359, Note_off_c, 1, 73, 0
1, 6360, Note_on_c, 1, 66, 127
1, 6360, Note_on_c, 1, 69, 127
1, 6360, Note_on_c, 1, 57, 127
1, 6390, Note_on_c, 1, 76, 127
1, 6407, Note_off_c, 1, 69, 0
1, 6407, Note_off_c, 1, 57, 0
1, 6419, Note_off_c, 1, 74, 0
1, 6419, Note_off_c, 1, 66, 0
1, 6419, Note_off_c, 1, 76, 0
1, 6420, Note_on_c, 1, 79, 127
1, 6420, Note_on_c, 1, 73, 127
1, 6420, Note_on_c, 1, 67, 127
1, 6420, Note_on_c, 1, 71, 127
1, 6420, Note_on_c, 1, 55, 127
1, 6449, Note_off_c, 1, 73, 0
1, 6450, Note_on_c, 1, 74, 127
1, 6467, Note_off_c, 1, 71, 0
1, 6467, Note_off_c, 1, 55, 0
1, 6479, Note_off_c, 1, 79, 0
1, 6479, Note_off_c, 1, 67, 0
1, 6479, Note_off_c, 1, 74, 0
1, 6480, Note_on_c, 1, 74, 127
1, 6480, Note_on_c, 1, 67, 127
1, 6480, Note_on_c, 1, 69, 127
1, 6480, Note_on_c, 1, 57, 127
1, 6509, Note_off_c, 1, 67, 0
1, 6510, Note_on_c, 1, 66, 127
1, 6527, Note_off_c, 1, 69, 0
1, 6539, Note_off_c, 1, 57, 0
1, 6539, Note_off_c, 1, 66, 0
1, 6540, Note_on_c, 1, 64, 127
1, 6540, Note_on_c, 1, 55, 127
1, 6569, Note_off_c, 1, 64, 0
1, 6570, Note_on_c, 1, 62, 127
1, 6587, Note_off_c, 1, 55, 0
1, 6599, Note_off_c, 1, 74, 0
1, 6599, Note_off_c, 1, 62, 0
1, 6600, Note_on_c, 1, 78, 127
1, 6600, Note_on_c, 1, 69, 127
1, 6600, Note_on_c, 1, 74, 127
1, 6600, Note_on_c, 1, 54, 127
1, 6630, Note_on_c, 1, 66, 127
1, 6647, Note_off_c, 1, 69, 0
1, 6647, Note_off_c, 1, 54, 0
1, 6659, Note_off_c, 1, 78, 0
1, 6659, Note_off_c, 1, 66, 0
1, 6660, Note_on_c, 1, 76, 127
1, 6660, Note_on_c, 1, 72, 127
1, 6660, Note_on_c, 1, 64, 127
1, 6660, Note_on_c, 1, 56, 127
1, 6689, Note_off_c, 1, 72, 0
1, 6690, Note_on_c, 1, 71, 127
1, 6707, Note_off_c, 1, 64, 0
1, 6719, Note_off_c, 1, 74, 0
1, 6719, Note_off_c, 1, 56, 0
1, 6719, Note_off_c, 1, 71, 0
1, 6720, Note_on_c, 1, 73, 127
1, 6720, Note_on_c, 1, 52, 127
1, 6750, Note_on_c, 1, 68, 127
1, 6767, Note_off_c, 1, 52, 0
1, 6779, Note_off_c, 1, 73, 0
1, 6779, Note_off_c, 1, 68, 0
1, 6840, Note_on_c, 1, 81, 127
1, 6840, Note_on_c, 1, 45, 127
1, 6840, Note_on_c, 1, 57, 127
1, 6887, Note_off_c, 1, 57, 0
1, 6899, Note_off_c, 1, 45, 0
1, 6900, Note_off_c, 1, 81, 0
1, 6960, Note_on_c, 1, 61, 127
1, 7007, Note_off_c, 1, 61, 0
1, 7020, Note_on_c, 1, 58, 127
1, 7079, Note_off_c, 1, 76, 0
1, 7079, Note_off_c, 1, 58, 0
1, 7110, Note_on_c, 1, 70, 127
1, 7139, Note_off_c, 1, 70, 0
1, 7200, Note_on_c, 1, 50, 127
1, 7200, Note_on_c, 1, 59, 127
1, 7247, Note_off_c, 1, 59, 0
1, 7259, Note_off_c, 1, 50, 0
1, 7320, Note_on_c, 1, 83, 127
1, 7320, Note_on_c, 1, 62, 127
1, 7349, Note_off_c, 1, 83, 0
1, 7367, Note_off_c, 1, 62, 0
1, 7380, Note_on_c, 1, 79, 127
1, 7380, Note_on_c, 1, 76, 127
1, 7380, Note_on_c, 1, 67, 127
1, 7380, Note_on_c, 1, 62, 127
1, 7380, Note_on_c, 1, 46, 127
1, 7409, Note_off_c, 1, 76, 0
1, 7410, Note_on_c, 1, 74, 127
1, 7427, Note_off_c, 1, 62, 0
1, 7427, Note_off_c, 1, 46, 0
1, 7439, Note_off_c, 1, 67, 0
1, 7439, Note_off_c, 1, 74, 0
1, 7440, Note_on_c, 1, 73, 127
1, 7440, Note_on_c, 1, 70, 127
1, 7469, Note_off_c, 1, 73, 0
1, 7499, Note_off_c, 1, 70, 0
1, 7559, Note_off_c, 1, 79, 0
1, 7560, Note_on_c, 1, 80, 127
1, 7560, Note_on_c, 1, 83, 127
1, 7560, Note_on_c, 1, 64, 127
1, 7560, Note_on_c, 1, 40, 127
1, 7589, Note_off_c, 1, 83, 0
1, 7607, Note_off_c, 1, 64, 0
1, 7607, Note_off_c, 1, 40, 0
1, 7739, Note_off_c, 1, 80, 0
1, 7740, Note_on_c, 1, 81, 127
1, 7740, Note_on_c, 1, 74, 127
1, 7740, Note_on_c, 1, 69, 127
1, 7740, Note_on_c, 1, 50, 127
1, 7740, Note_on_c, 1, 42, 127
1, 7799, Note_off_c, 1, 81, 0
1, 7799, Note_off_c, 1, 69, 0
1, 7799, Note_off_c, 1, 50, 0
1, 7799, Note_off_c, 1, 42, 0
1, 7800, Note_on_c, 1, 79, 127
1, 7800, Note_on_c, 1, 83, 127
1, 7800, Note_on_c, 1, 62, 127
1, 7800, Note_on_c, 1, 43, 127
1, 7829, Note_off_c, 1, 79, 0
1, 7830, Note_off_c, 1, 83, 0
1, 7830, Note_on_c, 1, 78, 127
1, 7847, Note_off_c, 1, 43, 0
1, 7859, Note_off_c, 1, 74, 0
1, 7859, Note_off_c, 1, 62, 0
1, 7859, Note_off_c, 1, 78, 0
1, 7860, Note_on_c, 1, 76, 127
1, 7860, Note_on_c, 1, 45, 127
1, 7860, Note_on_c, 1, 85, 127
1, 7860, Note_on_c, 1, 73, 127
1, 7889, Note_off_c, 1, 76, 0
1, 7889, Note_off_c, 1, 85, 0
1, 7919, Note_off_c, 1, 45, 0
1, 7919, Note_off_c, 1, 73, 0
1, 7920, Note_on_c, 1, 86, 127
1, 7920, Note_on_c, 1, 71, 127
1, 7920, Note_on_c, 1, 47, 127
1, 7950, Note_on_c, 1, 77, 127
1, 7950, Note_on_c, 1, 59, 127
1, 7973, Note_off_c, 1, 77, 0
1, 7979, Note_off_c, 1, 86, 0
1, 7979, Note_off_c, 1, 71, 0
1, 7979, Note_off_c, 1, 59, 0
1, 7980, Note_off_c, 1, 47, 0
1, 8040, Note_on_c, 1, 80, 127
1, 8100, Note_on_c, 1, 65, 127
1, 8123, Note_off_c, 1, 65, 0
1, 8130, Note_on_c, 1, 57, 127
1, 8159, Note_off_c, 1, 80, 0
1, 8159, Note_off_c, 1, 57, 0
1, 8280, Note_on_c, 1, 44, 127
1, 8310, Note_on_c, 1, 56, 127
1, 8339, Note_off_c, 1, 56, 0
1, 8340, Note_off_c, 1, 44, 0
1, 8400, Note_on_c, 1, 64, 127
1, 8423, Note_off_c, 1, 64, 0
1, 8460, Note_on_c, 1, 66, 127
1, 8507, Note_off_c, 1, 66, 0
1, 8640, Note_on_c, 1, 38, 127
1, 8735, Note_off_c, 1, 38, 0
1, 8790, Note_on_c, 1, 67, 127
1, 8790, Note_on_c, 1, 52, 127
1, 8819, Note_off_c, 1, 67, 0
1, 8819, Note_off_c, 1, 52, 0
1, 8820, Note_on_c, 1, 69, 127
1, 8820, Note_on_c, 1, 62, 127
1, 8820, Note_on_c, 1, 54, 127
1, 8849, Note_off_c, 1, 69, 0
1, 8850, Note_on_c, 1, 67, 127
1, 8867, Note_off_c, 1, 54, 0
1, 8879, Note_off_c, 1, 67, 0
1, 8880, Note_on_c, 1, 71, 127
1, 8880, Note_on_c, 1, 52, 127
1, 8909, Note_off_c, 1, 71, 0
1, 8927, Note_off_c, 1, 52, 0
1, 8939, Note_off_c, 1, 62, 0
1, 8940, Note_on_c, 1, 67, 127
1, 8940, Note_on_c, 1, 57, 127
1, 8940, Note_on_c, 1, 50, 127
1, 8969, Note_off_c, 1, 67, 0
1, 8970, Note_on_c, 1, 66, 127
1, 8987, Note_off_c, 1, 50, 0
1, 8999, Note_off_c, 1, 57, 0
1, 8999, Note_off_c, 1, 66, 0
1, 9000, Note_on_c, 1, 67, 127
1, 9000, Note_on_c, 1, 64, 127
1, 9000, Note_on_c, 1, 49, 127
1, 9029, Note_off_c, 1, 67, 0
1, 9030, Note_on_c, 1, 66, 127
1, 9047, Note_off_c, 1, 49, 0
1, 9059, Note_off_c, 1, 66, 0
1, 9060, Note_on_c, 1, 69, 127
1, 9060, Note_on_c, 1, 45, 127
1, 9089, Note_off_c, 1, 69, 0
1, 9107, Note_off_c, 1, 45, 0
1, 9119, Note_off_c, 1, 64, 0
1, 9120, Note_on_c, 1, 66, 127
1, 9120, Note_on_c, 1, 57, 127
1, 9120, Note_on_c, 1, 49, 127
1, 9149, Note_off_c, 1, 66, 0
1, 9150, Note_on_c, 1, 64, 127
1, 9167, Note_off_c, 1, 49, 0
1, 9179, Note_off_c, 1, 57, 0
1, 9179, Note_off_c, 1, 64, 0
1, 9180, Note_on_c, 1, 62, 127
1, 9180, Note_on_c, 1, 66, 127
1, 9180, Note_on_c, 1, 50, 127
1, 9227, Note_off_c, 1, 62, 0
1, 9227, Note_off_c, 1, 50, 0
1, 9240, Note_off_c, 1, 66, 0
1, 9240, Note_on_c, 1, 74, 127
1, 9240, Note_on_c, 1, 64, 127
1, 9240, Note_on_c, 1, 43, 127
1, 9269, Note_off_c, 1, 64, 0
1, 9287, Note_off_c, 1, 74, 0
1, 9287, Note_off_c, 1, 43, 0
1, 9300, Note_on_c, 1, 73, 127
1, 9300, Note_on_c, 1, 67, 127
1, 9300, Note_on_c, 1, 45, 127
1, 9329, Note_off_c, 1, 67, 0
1, 9330, Note_on_c, 1, 64, 127
1, 9347, Note_off_c, 1, 73, 0
1, 9347, Note_off_c, 1, 45, 0
1, 9359, Note_off_c, 1, 64, 0
1, 9360, Note_on_c, 1, 74, 127
1, 9360, Note_on_c, 1, 67, 127
1, 9360, Note_on_c, 1, 50, 127
1, 9389, Note_off_c, 1, 67, 0
1, 9390, Note_on_c, 1, 66, 127
1, 9407, Note_off_c, 1, 74, 0
1, 9407, Note_off_c, 1, 50, 0
1, 9419, Note_off_c, 1, 66, 0
1, 9420, Note_on_c, 1, 69, 127
1, 9420, Note_on_c, 1, 64, 127
1, 9420, Note_on_c, 1, 49, 127
1, 9449, Note_off_c, 1, 69, 0
1, 9449, Note_off_c, 1, 64, 0
1, 9450, Note_on_c, 1, 68, 127
1, 9450, Note_on_c, 1, 62, 127
1, 9467, Note_off_c, 1, 49, 0
1, 9479, Note_off_c, 1, 68, 0
1, 9479, Note_off_c, 1, 62, 0
1, 9480, Note_on_c, 1, 69, 127
1, 9480, Note_on_c, 1, 62, 127
1, 9480, Note_on_c, 1, 66, 127
1, 9480, Note_on_c, 1, 47, 127
1, 9509, Note_off_c, 1, 69, 0
1, 9509, Note_off_c, 1, 66, 0
1, 9510, Note_on_c, 1, 68, 127
1, 9527, Note_off_c, 1, 47, 0
1, 9539, Note_off_c, 1, 62, 0
1, 9539, Note_off_c, 1, 68, 0
1, 9540, Note_on_c, 1, 69, 127
1, 9540, Note_on_c, 1, 66, 127
1, 9540, Note_on_c, 1, 49, 127
1, 9569, Note_off_c, 1, 66, 0
1, 9570, Note_on_c, 1, 64, 127
1, 9587, Note_off_c, 1, 49, 0
1, 9599, Note_off_c, 1, 64, 0
1, 9600, Note_on_c, 1, 71, 127
1, 9600, Note_on_c, 1, 62, 127
1, 9600, Note_on_c, 1, 47, 127
1, 9629, Note_off_c, 1, 62, 0
1, 9630, Note_on_c, 1, 61, 127
1, 9647, Note_off_c, 1, 71, 0
1, 9647, Note_off_c, 1, 47, 0
1, 9659, Note_off_c, 1, 69, 0
1, 9659, Note_off_c, 1, 61, 0
1, 9660, Note_on_c, 1, 73, 127
1, 9660, Note_on_c, 1, 64, 127
1, 9660, Note_on_c, 1, 45, 127
1, 9690, Note_on_c, 1, 61, 127
1, 9707, Note_off_c, 1, 73, 0
1, 9707, Note_off_c, 1, 45, 0
1, 9719, Note_off_c, 1, 64, 0
1, 9719, Note_off_c, 1, 61, 0
1, 9720, Note_on_c, 1, 71, 127
1, 9720, Note_on_c, 1, 64, 127
1, 9720, Note_on_c, 1, 44, 127
1, 9749, Note_off_c, 1, 64, 0
1, 9750, Note_on_c, 1, 62, 127
1, 9767, Note_off_c, 1, 44, 0
1, 9779, Note_off_c, 1, 62, 0
1, 9780, Note_on_c, 1, 61, 127
1, 9780, Note_on_c, 1, 52, 127
1, 9809, Note_off_c, 1, 61, 0
1, 9810, Note_on_c, 1, 59, 127
1, 9827, Note_off_c, 1, 52, 0
1, 9839, Note_off_c, 1, 71, 0
1, 9839, Note_off_c, 1, 59, 0
1, 9840, Note_on_c, 1, 71, 127
1, 9840, Note_on_c, 1, 64, 127
1, 9840, Note_on_c, 1, 62, 127
1, 9840, Note_on_c, 1, 44, 127
1, 9869, Note_off_c, 1, 62, 0
1, 9870, Note_on_c, 1, 59, 127
1, 9887, Note_off_c, 1, 71, 0
1, 9887, Note_off_c, 1, 44, 0
1, 9899, Note_off_c, 1, 64, 0
1, 9899, Note_off_c, 1, 59, 0
1, 9900, Note_on_c, 1, 69, 127
1, 9900, Note_on_c, 1, 73, 127
1, 9900, Note_on_c, 1, 64, 127
1, 9900, Note_on_c, 1, 45, 127
1, 9947, Note_off_c, 1, 69, 0
1, 9947, Note_off_c, 1, 45, 0
1, 9959, Note_off_c, 1, 73, 0
1, 9959, Note_off_c, 1, 64, 0
1, 9960, Note_on_c, 1, 78, 127
1, 9960, Note_on_c, 1, 71, 127
1, 9960, Note_on_c, 1, 62, 127
1, 9960, Note_on_c, 1, 38, 127
1, 9989, Note_off_c, 1, 71, 0
1, 9989, Note_off_c, 1, 62, 0
1, 9990, Note_on_c, 1, 73, 127
1, 9990, Note_on_c, 1, 61, 127
1, 10007, Note_off_c, 1, 78, 0
1, 10007, Note_off_c, 1, 38, 0
1, 10019, Note_off_c, 1, 73, 0
1, 10019, Note_off_c, 1, 61, 0
1, 10020, Note_on_c, 1, 68, 127
1, 10020, Note_on_c, 1, 74, 127
1, 10020, Note_on_c, 1, 59, 127
1, 10020, Note_on_c, 1, 40, 127
1, 10049, Note_off_c, 1, 74, 0
1, 10049, Note_off_c, 1, 59, 0
1, 10050, Note_on_c, 1, 71, 127
1, 10050, Note_on_c, 1, 61, 127
1, 10067, Note_off_c, 1, 68, 0
1, 10067, Note_off_c, 1, 40, 0
1, 10079, Note_off_c, 1, 71, 0
1, 10079, Note_off_c, 1, 61, 0
1, 10080, Note_on_c, 1, 69, 127
1, 10080, Note_on_c, 1, 74, 127
1, 10080, Note_on_c, 1, 57, 127
1, 10080, Note_on_c, 1, 45, 127
1, 10109, Note_off_c, 1, 74, 0
1, 10110, Note_on_c, 1, 73, 127
1, 10127, Note_off_c, 1, 69, 0
1, 10127, Note_off_c, 1, 45, 0
1, 10139, Note_off_c, 1, 73, 0
1, 10140, Note_on_c, 1, 67, 127
1, 10140, Note_on_c, 1, 71, 127
1, 10169, Note_off_c, 1, 67, 0
1, 10169, Note_off_c, 1, 71, 0
1, 10170, Note_on_c, 1, 66, 127
1, 10199, Note_off_c, 1, 66, 0
1, 10200, Note_on_c, 1, 64, 127
1, 10200, Note_on_c, 1, 55, 127
1, 10229, Note_off_c, 1, 64, 0
1, 10247, Note_off_c, 1, 55, 0
1, 10260, Note_on_c, 1, 62, 127
1, 10260, Note_on_c, 1, 54, 127
1, 10307, Note_off_c, 1, 62, 0
1, 10307, Note_off_c, 1, 54, 0
1, 10320, Note_on_c, 1, 52, 127
1, 10367, Note_off_c, 1, 52, 0
1, 10380, Note_on_c, 1, 50, 127
1, 10427, Note_off_c, 1, 50, 0
1, 10440, Note_on_c, 1, 76, 127
1, 10440, Note_on_c, 1, 49, 127
1, 10487, Note_off_c, 1, 49, 0
1, 10500, Note_on_c, 1, 78, 127
1, 10500, Note_on_c, 1, 61, 127
1, 10514, Note_off_c, 1, 78, 0
1, 10547, Note_off_c, 1, 57, 0
1, 10559, Note_off_c, 1, 76, 0
1, 10559, Note_off_c, 1, 61, 0
1, 10560, Note_on_c, 1, 78, 127
1, 10560, Note_on_c, 1, 69, 127
1, 10560, Note_on_c, 1, 67, 127
1, 10560, Note_on_c, 1, 64, 127
1, 10560, Note_on_c, 1, 49, 127
1, 10574, Note_off_c, 1, 78, 0
1, 10575, Note_on_c, 1, 76, 127
1, 10589, Note_off_c, 1, 67, 0
1, 10589, Note_off_c, 1, 76, 0
1, 10590, Note_on_c, 1, 74, 127
1, 10604, Note_off_c, 1, 74, 0
1, 10607, Note_off_c, 1, 49, 0
1, 10619, Note_off_c, 1, 69, 0
1, 10619, Note_off_c, 1, 64, 0
1, 10620, Note_on_c, 1, 78, 127
1, 10620, Note_on_c, 1, 69, 127
1, 10620, Note_on_c, 1, 62, 127
1, 10620, Note_on_c, 1, 50, 127
1, 10650, Note_on_c, 1, 74, 127
1, 10667, Note_off_c, 1, 50, 0
1, 10679, Note_off_c, 1, 78, 0
1, 10679, Note_off_c, 1, 69, 0
1, 10679, Note_off_c, 1, 62, 0
1, 10679, Note_off_c, 1, 74, 0
1, 10680, Note_on_c, 1, 73, 127
1, 10680, Note_on_c, 1, 76, 127
1, 10680, Note_on_c, 1, 67, 127
1, 10680, Note_on_c, 1, 64, 127
1, 10680, Note_on_c, 1, 57, 127
1, 10709, Note_off_c, 1, 73, 0
1, 10709, Note_off_c, 1, 76, 0
1, 10709, Note_off_c, 1, 67, 0
1, 10709, Note_off_c, 1, 64, 0
1, 10710, Note_on_c, 1, 71, 127
1, 10710, Note_on_c, 1, 78, 127
1, 10710, Note_on_c, 1, 66, 127
1, 10710, Note_on_c, 1, 62, 127
1, 10727, Note_off_c, 1, 57, 0
1, 10739, Note_off_c, 1, 71, 0
1, 10739, Note_off_c, 1, 78, 0
1, 10739, Note_off_c, 1, 66, 0
1, 10739, Note_off_c, 1, 62, 0
1, 10740, Note_on_c, 1, 69, 127
1, 10740, Note_on_c, 1, 79, 127
1, 10740, Note_on_c, 1, 64, 127
1, 10740, Note_on_c, 1, 45, 127
1, 10769, Note_off_c, 1, 79, 0
1, 10769, Note_off_c, 1, 64, 0
1, 10770, Note_on_c, 1, 76, 127
1, 10770, Note_on_c, 1, 66, 127
1, 10770, Note_on_c, 1, 61, 127
1, 10787, Note_off_c, 1, 45, 0
1, 10799, Note_off_c, 1, 76, 0
1, 10799, Note_off_c, 1, 66, 0
1, 10799, Note_off_c, 1, 61, 0
1, 10800, Note_on_c, 1, 62, 127
1, 10800, Note_on_c, 1, 50, 127
1, 10830, Note_on_c, 1, 78, 127
1, 10847, Note_off_c, 1, 50, 0
1, 10859, Note_off_c, 1, 69, 0
1, 10859, Note_off_c, 1, 78, 0
1, 10860, Note_on_c, 1, 38, 127
1, 10890, Note_on_c, 1, 74, 127
1, 10907, Note_off_c, 1, 38, 0
1, 10919, Note_off_c, 1, 74, 0
1, 10980, Note_on_c, 1, 57, 127
1, 11010, Note_off_c, 1, 62, 0
1, 11070, Note_on_c, 1, 73, 127
1, 11099, Note_off_c, 1, 57, 0
1, 11099, Note_off_c, 1, 73, 0
1, 11100, Note_on_c, 1, 59, 127
1, 11100, Note_on_c, 1, 52, 127
1, 11129, Note_off_c, 1, 59, 0
1, 11159, Note_off_c, 1, 52, 0
1, 11160, Note_on_c, 1, 71, 127
1, 11160, Note_on_c, 1, 56, 127
1, 11219, Note_off_c, 1, 71, 0
1, 11219, Note_off_c, 1, 56, 0
1, 11220, Note_on_c, 1, 68, 127
1, 11279, Note_off_c, 1, 68, 0
1, 11280, Note_on_c, 1, 83, 127
1, 11280, Note_on_c, 1, 74, 127
1, 11280, Note_on_c, 1, 71, 127
1, 11280, Note_on_c, 1, 56, 127
1, 11280, Note_on_c, 1, 52, 127
1, 11309, Note_off_c, 1, 83, 0
1, 11309, Note_off_c, 1, 74, 0
1, 11339, Note_off_c, 1, 71, 0
1, 11339, Note_off_c, 1, 56, 0
1, 11339, Note_off_c, 1, 52, 0
1, 11340, Note_on_c, 1, 73, 127
1, 11340, Note_on_c, 1, 76, 127
1, 11340, Note_on_c, 1, 69, 127
1, 11340, Note_on_c, 1, 57, 127
1, 11340, Note_on_c, 1, 61, 127
1, 11369, Note_off_c, 1, 73, 0
1, 11399, Note_off_c, 1, 76, 0
1, 11399, Note_off_c, 1, 69, 0
1, 11399, Note_off_c, 1, 57, 0
1, 11399, Note_off_c, 1, 61, 0
1, 11400, Note_on_c, 1, 78, 127
1, 11400, Note_on_c, 1, 74, 127
1, 11400, Note_on_c, 1, 71, 127
1, 11400, Note_on_c, 1, 62, 127
1, 11400, Note_on_c, 1, 59, 127
1, 11429, Note_off_c, 1, 78, 0
1, 11429, Note_off_c, 1, 74, 0
1, 11429, Note_off_c, 1, 71, 0
1, 11429, Note_off_c, 1, 59, 0
1, 11430, Note_on_c, 1, 73, 127
1, 11430, Note_on_c, 1, 69, 127
1, 11430, Note_on_c, 1, 61, 127
1, 11459, Note_off_c, 1, 73, 0
1, 11459, Note_off_c, 1, 69, 0
1, 11459, Note_off_c, 1, 61, 0
1, 11460, Note_on_c, 1, 68, 127
1, 11489, Note_off_c, 1, 68, 0
1, 11519, Note_off_c, 1, 62, 0
1, 11520, Note_on_c, 1, 69, 127
1, 11520, Note_on_c, 1, 64, 127
1, 11520, Note_on_c, 1, 62, 127
1, 11520, Note_on_c, 1, 61, 127
1, 11549, Note_off_c, 1, 64, 0
1, 11549, Note_off_c, 1, 62, 0
1, 11550, Note_on_c, 1, 66, 127
1, 11579, Note_off_c, 1, 61, 0
1, 11579, Note_off_c, 1, 66, 0
1, 11580, Note_on_c, 1, 73, 127
1, 11580, Note_on_c, 1, 67, 127
1, 11580, Note_on_c, 1, 59, 127
1, 11580, Note_on_c, 1, 57, 127
1, 11609, Note_off_c, 1, 67, 0
1, 11609, Note_off_c, 1, 59, 0
1, 11639, Note_off_c, 1, 73, 0
1, 11639, Note_off_c, 1, 57, 0
1, 11640, Note_on_c, 1, 76, 127
1, 11640, Note_on_c, 1, 55, 127
1, 11687, Note_off_c, 1, 55, 0
1, 11699, Note_off_c, 1, 76, 0
1, 11700, Note_on_c, 1, 74, 127
1, 11700, Note_on_c, 1, 54, 127
1, 11747, Note_off_c, 1, 54, 0
1, 11760, Note_on_c, 1, 52, 127
1, 11807, Note_off_c, 1, 52, 0
1, 11819, Note_off_c, 1, 74, 0
1, 11820, Note_on_c, 1, 50, 127
1, 11879, Note_off_c, 1, 50, 0
1, 11880, Note_on_c, 1, 45, 127
1, 11880, Note_on_c, 1, 49, 127
1, 11927, Note_off_c, 1, 49, 0
1, 11939, Note_off_c, 1, 45, 0
1, 11999, Note_off_c, 1, 69, 0
1, 12000, Note_on_c, 1, 69, 127
1, 12000, Note_on_c, 1, 76, 127
1, 12000, Note_on_c, 1, 45, 127
1, 12000, Note_on_c, 1, 61, 127
1, 12000, Note_on_c, 1, 64, 127
1, 12000, Note_on_c, 1, 55, 127
1, 12000, Note_on_c, 1, 49, 127
1, 12029, Note_off_c, 1, 55, 0
1, 12030, Note_on_c, 1, 52, 127
1, 12047, Note_off_c, 1, 61, 0
1, 12047, Note_off_c, 1, 49, 0
1, 12059, Note_off_c, 1, 76, 0
1, 12059, Note_off_c, 1, 45, 0
1, 12059, Note_off_c, 1, 64, 0
1, 12059, Note_off_c, 1, 52, 0
1, 12060, Note_on_c, 1, 78, 127
1, 12060, Note_on_c, 1, 74, 127
1, 12060, Note_on_c, 1, 50, 127
1, 12060, Note_on_c, 1, 57, 127
1, 12060, Note_on_c, 1, 66, 127
1, 12119, Note_off_c, 1, 78, 0
1, 12119, Note_off_c, 1, 74, 0
1, 12119, Note_off_c, 1, 50, 0
1, 12119, Note_off_c, 1, 57, 0
1, 12119, Note_off_c, 1, 66, 0
1, 12150, Note_on_c, 1, 54, 127
1, 12179, Note_off_c, 1, 54, 0
1, 12180, Note_on_c, 1, 79, 127
1, 12209, Note_off_c, 1, 79, 0
1, 12210, Note_on_c, 1, 73, 127
1, 12239, Note_off_c, 1, 73, 0
1, 12299, Note_off_c, 1, 69, 0
1, 12300, Note_on_c, 1, 76, 127
1, 12300, Note_on_c, 1, 69, 127
1, 12300, Note_on_c, 1, 66, 127
1, 12300, Note_on_c, 1, 50, 127
1, 12300, Note_on_c, 1, 74, 127
1, 12300, Note_on_c, 1, 38, 127
1, 12329, Note_off_c, 1, 76, 0
1, 12347, Note_off_c, 1, 38, 0
1, 12359, Note_off_c, 1, 69, 0
1, 12359, Note_off_c, 1, 66, 0
1, 12359, Note_off_c, 1, 50, 0
1, 12359, Note_off_c, 1, 74, 0
1, 12360, Note_on_c, 1, 78, 127
1, 12360, Note_on_c, 1, 57, 127
1, 12360, Note_on_c, 1, 49, 127
1, 12389, Note_off_c, 1, 78, 0
1, 12390, Note_on_c, 1, 76, 127
1, 12407, Note_off_c, 1, 49, 0
1, 12419, Note_off_c, 1, 57, 0
1, 12419, Note_off_c, 1, 76, 0
1, 12420, Note_on_c, 1, 79, 127
1, 12420, Note_on_c, 1, 62, 127
1, 12420, Note_on_c, 1, 47, 127
1, 12449, Note_off_c, 1, 79, 0
1, 12450, Note_on_c, 1, 78, 127
1, 12467, Note_off_c, 1, 47, 0
1, 12479, Note_off_c, 1, 78, 0
1, 12480, Note_on_c, 1, 76, 127
1, 12480, Note_on_c, 1, 49, 127
1, 12509, Note_off_c, 1, 76, 0
1, 12510, Note_on_c, 1, 74, 127
1, 12527, Note_off_c, 1, 49, 0
1, 12539, Note_off_c, 1, 62, 0
1, 12539, Note_off_c, 1, 74, 0
1, 12540, Note_on_c, 1, 78, 127
1, 12540, Note_on_c, 1, 57, 127
1, 12540, Note_on_c, 1, 50, 127
1, 12569, Note_off_c, 1, 78, 0
1, 12570, Note_on_c, 1, 76, 127
1, 12587, Note_off_c, 1, 50, 0
1, 12599, Note_off_c, 1, 57, 0
1, 12599, Note_off_c, 1, 76, 0
1, 12600, Note_on_c, 1, 79, 127
1, 12600, Note_on_c, 1, 64, 127
1, 12600, Note_on_c, 1, 49, 127
1, 12629, Note_off_c, 1, 79, 0
1, 12630, Note_on_c, 1, 78, 127
1, 12647, Note_off_c, 1, 49, 0
1, 12659, Note_off_c, 1, 78, 0
1, 12660, Note_on_c, 1, 76, 127
1, 12660, Note_on_c, 1, 47, 127
1, 12689, Note_off_c, 1, 76, 0
1, 12690, Note_on_c, 1, 74, 127
1, 12707, Note_off_c, 1, 47, 0
1, 12719, Note_off_c, 1, 64, 0
1, 12719, Note_off_c, 1, 74, 0
1, 12720, Note_on_c, 1, 78, 127
1, 12720, Note_on_c, 1, 57, 127
1, 12720, Note_on_c, 1, 49, 127
1, 12749, Note_off_c, 1, 78, 0
1, 12750, Note_on_c, 1, 76, 127
1, 12767, Note_off_c, 1, 49, 0
1, 12779, Note_off_c, 1, 57, 0
1, 12779, Note_off_c, 1, 76, 0
1, 12780, Note_on_c, 1, 74, 127
1, 12780, Note_on_c, 1, 66, 127
1, 12780, Note_on_c, 1, 50, 127
1, 12827, Note_off_c, 1, 50, 0
1, 12839, Note_off_c, 1, 74, 0
1, 12839, Note_off_c, 1, 66, 0
1, 12840, Note_on_c, 1, 86, 127
1, 12840, Note_on_c, 1, 64, 127
1, 12840, Note_on_c, 1, 43, 127
1, 12869, Note_off_c, 1, 64, 0
1, 12870, Note_on_c, 1, 66, 127
1, 12887, Note_off_c, 1, 43, 0
1, 12899, Note_off_c, 1, 86, 0
1, 12899, Note_off_c, 1, 66, 0
1, 12900, Note_on_c, 1, 85, 127
1, 12900, Note_on_c, 1, 67, 127
1, 12900, Note_on_c, 1, 45, 127
1, 12929, Note_off_c, 1, 67, 0
1, 12930, Note_on_c, 1, 64, 127
1, 12947, Note_off_c, 1, 45, 0
1, 12959, Note_off_c, 1, 85, 0
1, 12959, Note_off_c, 1, 64, 0
1, 12960, Note_on_c, 1, 86, 127
1, 12960, Note_on_c, 1, 67, 127
1, 12960, Note_on_c, 1, 50, 127
1, 12989, Note_off_c, 1, 67, 0
1, 12990, Note_on_c, 1, 66, 127
1, 13007, Note_off_c, 1, 50, 0
1, 13019, Note_off_c, 1, 86, 0
1, 13019, Note_off_c, 1, 66, 0
1, 13020, Note_on_c, 1, 81, 127
1, 13020, Note_on_c, 1, 64, 127
1, 13020, Note_on_c, 1, 49, 127
1, 13049, Note_off_c, 1, 81, 0
1, 13049, Note_off_c, 1, 64, 0
1, 13050, Note_on_c, 1, 80, 127
1, 13050, Note_on_c, 1, 62, 127
1, 13067, Note_off_c, 1, 49, 0
1, 13079, Note_off_c, 1, 80, 0
1, 13079, Note_off_c, 1, 62, 0
1, 13080, Note_on_c, 1, 81, 127
1, 13080, Note_on_c, 1, 62, 127
1, 13080, Note_on_c, 1, 66, 127
1, 13080, Note_on_c, 1, 47, 127
1, 13109, Note_off_c, 1, 81, 0
1, 13109, Note_off_c, 1, 66, 0
1, 13110, Note_on_c, 1, 80, 127
1, 13127, Note_off_c, 1, 47, 0
1, 13139, Note_off_c, 1, 62, 0
1, 13139, Note_off_c, 1, 80, 0
1, 13140, Note_on_c, 1, 81, 127
1, 13140, Note_on_c, 1, 69, 127
1, 13140, Note_on_c, 1, 66, 127
1, 13140, Note_on_c, 1, 49, 127
1, 13169, Note_off_c, 1, 66, 0
1, 13170, Note_on_c, 1, 64, 127
1, 13187, Note_off_c, 1, 49, 0
1, 13199, Note_off_c, 1, 81, 0
1, 13199, Note_off_c, 1, 64, 0
1, 13200, Note_on_c, 1, 83, 127
1, 13200, Note_on_c, 1, 62, 127
1, 13200, Note_on_c, 1, 47, 127
1, 13229, Note_off_c, 1, 62, 0
1, 13230, Note_on_c, 1, 61, 127
1, 13247, Note_off_c, 1, 47, 0
1, 13259, Note_off_c, 1, 69, 0
1, 13259, Note_off_c, 1, 83, 0
1, 13259, Note_off_c, 1, 61, 0
1, 13260, Note_on_c, 1, 85, 127
1, 13260, Note_on_c, 1, 64, 127
1, 13260, Note_on_c, 1, 45, 127
1, 13290, Note_on_c, 1, 61, 127
1, 13307, Note_off_c, 1, 45, 0
1, 13319, Note_off_c, 1, 85, 0
1, 13319, Note_off_c, 1, 64, 0
1, 13319, Note_off_c, 1, 61, 0
1, 13320, Note_on_c, 1, 83, 127
1, 13320, Note_on_c, 1, 71, 127
1, 13320, Note_on_c, 1, 64, 127
1, 13320, Note_on_c, 1, 44, 127
1, 13349, Note_off_c, 1, 64, 0
1, 13350, Note_on_c, 1, 62, 127
1, 13367, Note_off_c, 1, 44, 0
1, 13379, Note_off_c, 1, 83, 0
1, 13379, Note_off_c, 1, 62, 0
1, 13380, Note_on_c, 1, 76, 127
1, 13380, Note_on_c, 1, 61, 127
1, 13380, Note_on_c, 1, 52, 127
1, 13409, Note_off_c, 1, 61, 0
1, 13410, Note_on_c, 1, 59, 127
1, 13427, Note_off_c, 1, 52, 0
1, 13439, Note_off_c, 1, 71, 0
1, 13439, Note_off_c, 1, 76, 0
1, 13439, Note_off_c, 1, 59, 0
1, 13440, Note_on_c, 1, 83, 127
1, 13440, Note_on_c, 1, 64, 127
1, 13440, Note_on_c, 1, 62, 127
1, 13440, Note_on_c, 1, 44, 127
1, 13469, Note_off_c, 1, 62, 0
1, 13470, Note_on_c, 1, 59, 127
1, 13487, Note_off_c, 1, 44, 0
1, 13499, Note_off_c, 1, 83, 0
1, 13499, Note_off_c, 1, 64, 0
1, 13499, Note_off_c, 1, 59, 0
1, 13500, Note_on_c, 1, 81, 127
1, 13500, Note_on_c, 1, 73, 127
1, 13500, Note_on_c, 1, 64, 127
1, 13500, Note_on_c, 1, 45, 127
1, 13547, Note_off_c, 1, 45, 0
1, 13559, Note_off_c, 1, 81, 0
1, 13559, Note_off_c, 1, 73, 0
1, 13559, Note_off_c, 1, 64, 0
1, 13560, Note_on_c, 1, 76, 127
1, 13560, Note_on_c, 1, 71, 127
1, 13560, Note_on_c, 1, 62, 127
1, 13560, Note_on_c, 1, 38, 127
1, 13589, Note_off_c, 1, 71, 0
1, 13589, Note_off_c, 1, 62, 0
1, 13590, Note_on_c, 1, 73, 127
1, 13590, Note_on_c, 1, 61, 127
1, 13607, Note_off_c, 1, 38, 0
1, 13619, Note_off_c, 1, 76, 0
1, 13619, Note_off_c, 1, 73, 0
1, 13619, Note_off_c, 1, 61, 0
1, 13620, Note_on_c, 1, 80, 127
1, 13620, Note_on_c, 1, 74, 127
1, 13620, Note_on_c, 1, 59, 127
1, 13620, Note_on_c, 1, 40, 127
1, 13649, Note_off_c, 1, 74, 0
1, 13649, Note_off_c, 1, 59, 0
1, 13650, Note_on_c, 1, 71, 127
1, 13650, Note_on_c, 1, 61, 127
1, 13667, Note_off_c, 1, 40, 0
1, 13679, Note_off_c, 1, 80, 0
1, 13679, Note_off_c, 1, 71, 0
1, 13679, Note_off_c, 1, 61, 0
1, 13680, Note_on_c, 1, 81, 127
1, 13680, Note_on_c, 1, 74, 127
1, 13680, Note_on_c, 1, 57, 127
1, 13680, Note_on_c, 1, 45, 127
1, 13709, Note_off_c, 1, 74, 0
1, 13710, Note_on_c, 1, 73, 127
1, 13727, Note_off_c, 1, 45, 0
1, 13739, Note_off_c, 1, 81, 0
1, 13739, Note_off_c, 1, 73, 0
1, 13740, Note_on_c, 1, 79, 127
1, 13740, Note_on_c, 1, 71, 127
1, 13769, Note_off_c, 1, 79, 0
1, 13769, Note_off_c, 1, 71, 0
1, 13770, Note_on_c, 1, 78, 127
1, 13770, Note_on_c, 1, 69, 127
1, 13799, Note_off_c, 1, 78, 0
1, 13799, Note_off_c, 1, 69, 0
1, 13800, Note_on_c, 1, 76, 127
1, 13800, Note_on_c, 1, 55, 127
1, 13829, Note_off_c, 1, 76, 0
1, 13847, Note_off_c, 1, 55, 0
1, 13860, Note_on_c, 1, 54, 127
1, 13907, Note_off_c, 1, 54, 0
1, 13920, Note_on_c, 1, 67, 127
1, 13920, Note_on_c, 1, 52, 127
1, 13949, Note_off_c, 1, 67, 0
1, 13950, Note_on_c, 1, 66, 127
1, 13967, Note_off_c, 1, 52, 0
1, 13979, Note_off_c, 1, 66, 0
1, 13980, Note_on_c, 1, 50, 127
1, 14027, Note_off_c, 1, 50, 0
1, 14040, Note_on_c, 1, 49, 127
1, 14087, Note_off_c, 1, 49, 0
1, 14100, Note_on_c, 1, 61, 127
1, 14130, Note_on_c, 1, 64, 127
1, 14147, Note_off_c, 1, 57, 0
1, 14159, Note_off_c, 1, 61, 0
1, 14159, Note_off_c, 1, 64, 0
1, 14190, Note_on_c, 1, 62, 127
1, 14219, Note_off_c, 1, 62, 0
1, 14340, Note_on_c, 1, 69, 127
1, 14340, Note_on_c, 1, 79, 127
1, 14340, Note_on_c, 1, 64, 127
1, 14340, Note_on_c, 1, 61, 127
1, 14340, Note_on_c, 1, 45, 127
1, 14369, Note_off_c, 1, 69, 0
1, 14369, Note_off_c, 1, 79, 0
1, 14369, Note_off_c, 1, 64, 0
1, 14370, Note_on_c, 1, 76, 127
1, 14370, Note_on_c, 1, 66, 127
1, 14387, Note_off_c, 1, 45, 0
1, 14399, Note_off_c, 1, 61, 0
1, 14399, Note_off_c, 1, 76, 0
1, 14399, Note_off_c, 1, 66, 0
1, 14400, Note_on_c, 1, 69, 127
1, 14400, Note_on_c, 1, 79, 127
1, 14400, Note_on_c, 1, 62, 127
1, 14400, Note_on_c, 1, 50, 127
1, 14429, Note_off_c, 1, 79, 0
1, 14430, Note_on_c, 1, 78, 127
1, 14447, Note_off_c, 1, 50, 0
1, 14459, Note_off_c, 1, 69, 0
1, 14459, Note_off_c, 1, 78, 0
1, 14460, Note_on_c, 1, 66, 127
1, 14460, Note_on_c, 1, 76, 127
1, 14460, Note_on_c, 1, 38, 127
1, 14489, Note_off_c, 1, 76, 0
1, 14490, Note_on_c, 1, 74, 127
1, 14507, Note_off_c, 1, 38, 0
1, 14519, Note_off_c, 1, 66, 0
1, 14519, Note_off_c, 1, 74, 0
1, 14580, Note_on_c, 1, 57, 127
1, 14610, Note_off_c, 1, 62, 0
1, 14610, Note_on_c, 1, 61, 127
1, 14639, Note_off_c, 1, 61, 0
1, 14640, Note_on_c, 1, 64, 127
1, 14670, Note_on_c, 1, 73, 127
1, 14699, Note_off_c, 1, 57, 0
1, 14699, Note_off_c, 1, 73, 0
1, 14700, Note_on_c, 1, 52, 127
1, 14759, Note_off_c, 1, 52, 0
1, 14760, Note_on_c, 1, 56, 127
1, 14760, Note_on_c, 1, 59, 127
1, 14819, Note_off_c, 1, 64, 0
1, 14819, Note_off_c, 1, 56, 0
1, 14820, Note_on_c, 1, 68, 127
1, 14850, Note_on_c, 1, 71, 127
1, 14879, Note_off_c, 1, 59, 0
1, 14879, Note_off_c, 1, 68, 0
1, 14879, Note_off_c, 1, 71, 0
1, 14880, Note_on_c, 1, 74, 127
1, 14880, Note_on_c, 1, 71, 127
1, 14880, Note_on_c, 1, 56, 127
1, 14880, Note_on_c, 1, 52, 127
1, 14909, Note_off_c, 1, 74, 0
1, 14939, Note_off_c, 1, 71, 0
1, 14939, Note_off_c, 1, 56, 0
1, 14939, Note_off_c, 1, 52, 0
1, 14940, Note_on_c, 1, 76, 127
1, 14940, Note_on_c, 1, 69, 127
1, 14940, Note_on_c, 1, 57, 127
1, 14940, Note_on_c, 1, 61, 127
1, 14999, Note_off_c, 1, 76, 0
1, 14999, Note_off_c, 1, 57, 0
1, 14999, Note_off_c, 1, 61, 0
1, 15000, Note_on_c, 1, 74, 127
1, 15000, Note_on_c, 1, 62, 127
1, 15000, Note_on_c, 1, 59, 127
1, 15029, Note_off_c, 1, 74, 0
1, 15029, Note_off_c, 1, 59, 0
1, 15030, Note_on_c, 1, 73, 127
1, 15059, Note_off_c, 1, 69, 0
1, 15059, Note_off_c, 1, 62, 0
1, 15059, Note_off_c, 1, 73, 0
1, 15060, Note_on_c, 1, 71, 127
1, 15060, Note_on_c, 1, 68, 127
1, 15060, Note_on_c, 1, 64, 127
1, 15060, Note_on_c, 1, 62, 127
1, 15089, Note_off_c, 1, 71, 0
1, 15089, Note_off_c, 1, 62, 0
1, 15090, Note_on_c, 1, 73, 127
1, 15090, Note_on_c, 1, 59, 127
1, 15119, Note_off_c, 1, 68, 0
1, 15119, Note_off_c, 1, 73, 0
1, 15119, Note_off_c, 1, 59, 0
1, 15120, Note_on_c, 1, 69, 127
1, 15120, Note_on_c, 1, 61, 127
1, 15149, Note_off_c, 1, 64, 0
1, 15150, Note_on_c, 1, 66, 127
1, 15179, Note_off_c, 1, 61, 0
1, 15179, Note_off_c, 1, 66, 0
1, 15180, Note_on_c, 1, 67, 127
1, 15180, Note_on_c, 1, 57, 127
1, 15209, Note_off_c, 1, 67, 0
1, 15239, Note_off_c, 1, 57, 0
1, 15240, Note_on_c, 1, 76, 127
1, 15240, Note_on_c, 1, 55, 127
1, 15287, Note_off_c, 1, 55, 0
1, 15299, Note_off_c, 1, 76, 0
1, 15300, Note_on_c, 1, 74, 127
1, 15300, Note_on_c, 1, 54, 127
1, 15347, Note_off_c, 1, 54, 0
1, 15360, Note_on_c, 1, 52, 127
1, 15407, Note_off_c, 1, 52, 0
1, 15419, Note_off_c, 1, 74, 0
1, 15420, Note_on_c, 1, 50, 127
1, 15479, Note_off_c, 1, 50, 0
1, 15480, Note_on_c, 1, 45, 127
1, 15480, Note_on_c, 1, 49, 127
1, 15527, Note_off_c, 1, 49, 0
1, 15539, Note_off_c, 1, 45, 0
1, 15599, Note_off_c, 1, 69, 0
1, 15600, Note_on_c, 1, 69, 127
1, 15600, Note_on_c, 1, 76, 127
1, 15600, Note_on_c, 1, 45, 127
1, 15600, Note_on_c, 1, 61, 127
1, 15600, Note_on_c, 1, 64, 127
1, 15600, Note_on_c, 1, 55, 127
1, 15600, Note_on_c, 1, 49, 127
1, 15629, Note_off_c, 1, 55, 0
1, 15630, Note_on_c, 1, 52, 127
1, 15647, Note_off_c, 1, 61, 0
1, 15647, Note_off_c, 1, 49, 0
1, 15659, Note_off_c, 1, 76, 0
1, 15659, Note_off_c, 1, 45, 0
1, 15659, Note_off_c, 1, 64, 0
1, 15659, Note_off_c, 1, 52, 0
1, 15660, Note_on_c, 1, 78, 127
1, 15660, Note_on_c, 1, 74, 127
1, 15660, Note_on_c, 1, 50, 127
1, 15660, Note_on_c, 1, 57, 127
1, 15660, Note_on_c, 1, 66, 127
1, 15719, Note_off_c, 1, 78, 0
1, 15719, Note_off_c, 1, 74, 0
1, 15719, Note_off_c, 1, 50, 0
1, 15719, Note_off_c, 1, 57, 0
1, 15719, Note_off_c, 1, 66, 0
1, 15750, Note_on_c, 1, 54, 127
1, 15779, Note_off_c, 1, 54, 0
1, 15780, Note_on_c, 1, 79, 127
1, 15809, Note_off_c, 1, 79, 0
1, 15810, Note_on_c, 1, 73, 127
1, 15839, Note_off_c, 1, 73, 0
1, 15899, Note_off_c, 1, 69, 0
1, 15900, Note_on_c, 1, 76, 127
1, 15900, Note_on_c, 1, 69, 127
1, 15900, Note_on_c, 1, 66, 127
1, 15900, Note_on_c, 1, 50, 127
1, 15900, Note_on_c, 1, 74, 127
1, 15900, Note_on_c, 1, 57, 127
1, 15900, Note_on_c, 1, 38, 127
1, 15929, Note_off_c, 1, 76, 0
1, 15947, Note_off_c, 1, 38, 0
1, 15959, Note_off_c, 1, 69, 0
1, 15959, Note_off_c, 1, 66, 0
1, 15959, Note_off_c, 1, 50, 0
1, 15959, Note_off_c, 1, 74, 0
1, 15959, Note_off_c, 1, 57, 0
1, 15960, Note_on_c, 1, 64, 127
1, 15960, Note_on_c, 1, 76, 127
1, 15960, Note_on_c, 1, 69, 127
1, 15960, Note_on_c, 1, 61, 127
1, 15960, Note_on_c, 1, 49, 127
1, 15960, Note_on_c, 1, 45, 127
1, 16007, Note_off_c, 1, 61, 0
1, 16007, Note_off_c, 1, 45, 0
1, 16019, Note_off_c, 1, 64, 0
1, 16019, Note_off_c, 1, 76, 0
1, 16019, Note_off_c, 1, 69, 0
1, 16019, Note_off_c, 1, 49, 0
1, 16020, Note_on_c, 1, 66, 127
1, 16020, Note_on_c, 1, 74, 127
1, 16020, Note_on_c, 1, 57, 127
1, 16020, Note_on_c, 1, 50, 127
1, 16067, Note_off_c, 1, 57, 0
1, 16079, Note_off_c, 1, 66, 0
1, 16079, Note_off_c, 1, 74, 0
1, 16080, Note_on_c, 1, 71, 127
1, 16080, Note_on_c, 1, 43, 127
1, 16109, Note_off_c, 1, 71, 0
1, 16109, Note_off_c, 1, 43, 0
1, 16110, Note_on_c, 1, 69, 127
1, 16110, Note_on_c, 1, 42, 127
1, 16139, Note_off_c, 1, 50, 0
1, 16139, Note_off_c, 1, 69, 0
1, 16139, Note_off_c, 1, 42, 0
1, 16140, Note_on_c, 1, 67, 127
1, 16140, Note_on_c, 1, 76, 127
1, 16140, Note_on_c, 1, 59, 127
1, 16140, Note_on_c, 1, 43, 127
1, 16170, Note_on_c, 1, 66, 127
1, 16199, Note_off_c, 1, 67, 0
1, 16199, Note_off_c, 1, 76, 0
1, 16199, Note_off_c, 1, 59, 0
1, 16199, Note_off_c, 1, 66, 0
1, 16200, Note_on_c, 1, 64, 127
1, 16200, Note_on_c, 1, 69, 127
1, 16200, Note_on_c, 1, 61, 127
1, 16200, Note_on_c, 1, 49, 127
1, 16235, Note_off_c, 1, 43, 0
1, 16247, Note_off_c, 1, 61, 0
1, 16259, Note_off_c, 1, 64, 0
1, 16259, Note_off_c, 1, 69, 0
1, 16260, Note_on_c, 1, 42, 127
1, 16289, Note_off_c, 1, 42, 0
1, 16290, Note_on_c, 1, 40, 127
1, 16319, Note_off_c, 1, 49, 0
1, 16319, Note_off_c, 1, 40, 0
1, 16320, Note_on_c, 1, 66, 127
1, 16320, Note_on_c, 1, 78, 127
1, 16320, Note_on_c, 1, 69, 127
1, 16320, Note_on_c, 1, 62, 127
1, 16320, Note_on_c, 1, 57, 127
1, 16320, Note_on_c, 1, 42, 127
1, 16349, Note_off_c, 1, 66, 0
1, 16350, Note_on_c, 1, 64, 127
1, 16367, Note_off_c, 1, 62, 0
1, 16379, Note_off_c, 1, 78, 0
1, 16379, Note_off_c, 1, 69, 0
1, 16379, Note_off_c, 1, 57, 0
1, 16379, Note_off_c, 1, 64, 0
1, 16380, Note_on_c, 1, 79, 127
1, 16380, Note_on_c, 1, 71, 127
1, 16380, Note_on_c, 1, 47, 127
1, 16415, Note_off_c, 1, 42, 0
1, 16439, Note_off_c, 1, 79, 0
1, 16439, Note_off_c, 1, 71, 0
1, 16439, Note_off_c, 1, 47, 0
1, 16440, Note_on_c, 1, 67, 127
1, 16440, Note_on_c, 1, 49, 127
1, 16440, Note_on_c, 1, 40, 127
1, 16487, Note_off_c, 1, 40, 0
1, 16499, Note_off_c, 1, 67, 0
1, 16499, Note_off_c, 1, 49, 0
1, 16500, Note_on_c, 1, 66, 127
1, 16500, Note_on_c, 1, 81, 127
1, 16500, Note_on_c, 1, 74, 127
1, 16500, Note_on_c, 1, 50, 127
1, 16500, Note_on_c, 1, 38, 127
1, 16547, Note_off_c, 1, 38, 0
1, 16559, Note_off_c, 1, 66, 0
1, 16559, Note_off_c, 1, 81, 0
1, 16559, Note_off_c, 1, 74, 0
1, 16559, Note_off_c, 1, 50, 0
1, 16560, Note_on_c, 1, 64, 127
1, 16560, Note_on_c, 1, 81, 127
1, 16560, Note_on_c, 1, 76, 127
1, 16560, Note_on_c, 1, 69, 127
1, 16560, Note_on_c, 1, 49, 127
1, 16560, Note_on_c, 1, 45, 127
1, 16589, Note_off_c, 1, 49, 0
1, 16590, Note_on_c, 1, 47, 127
1, 16607, Note_off_c, 1, 69, 0
1, 16607, Note_off_c, 1, 45, 0
1, 16619, Note_off_c, 1, 81, 0
1, 16619, Note_off_c, 1, 76, 0
1, 16619, Note_off_c, 1, 47, 0
1, 16650, Note_on_c, 1, 50, 127
1, 16679, Note_off_c, 1, 50, 0
1, 16680, Note_on_c, 1, 71, 127
1, 16680, Note_on_c, 1, 83, 127
1, 16680, Note_on_c, 1, 68, 127
1, 16680, Note_on_c, 1, 56, 127
1, 16680, Note_on_c, 1, 52, 127
1, 16727, Note_off_c, 1, 68, 0
1, 16739, Note_off_c, 1, 71, 0
1, 16739, Note_off_c, 1, 83, 0
1, 16739, Note_off_c, 1, 56, 0
1, 16739, Note_off_c, 1, 52, 0
1, 16740, Note_on_c, 1, 73, 127
1, 16740, Note_on_c, 1, 61, 127
1, 16740, Note_on_c, 1, 57, 127
1, 16787, Note_off_c, 1, 61, 0
1, 16799, Note_off_c, 1, 64, 0
1, 16799, Note_off_c, 1, 73, 0
1, 16800, Note_on_c, 1, 78, 127
1, 16800, Note_on_c, 1, 62, 127
1, 16829, Note_off_c, 1, 78, 0
1, 16859, Note_off_c, 1, 57, 0
1, 16859, Note_off_c, 1, 62, 0
1, 16860, Note_on_c, 1, 74, 127
1, 16860, Note_on_c, 1, 66, 127
1, 16860, Note_on_c, 1, 78, 127
1, 16860, Note_on_c, 1, 69, 127
1, 16860, Note_on_c, 1, 62, 127
1, 16860, Note_on_c, 1, 57, 127
1, 16860, Note_on_c, 1, 50, 127
1, 16889, Note_off_c, 1, 74, 0
1, 16890, Note_on_c, 1, 73, 127
1, 16907, Note_off_c, 1, 62, 0
1, 16919, Note_off_c, 1, 66, 0
1, 16919, Note_off_c, 1, 78, 0
1, 16919, Note_off_c, 1, 69, 0
1, 16919, Note_off_c, 1, 57, 0
1, 16919, Note_off_c, 1, 73, 0
1, 16920, Note_on_c, 1, 71, 127
1, 16920, Note_on_c, 1, 68, 127
1, 16920, Note_on_c, 1, 76, 127
1, 16920, Note_on_c, 1, 56, 127
1, 16920, Note_on_c, 1, 64, 127
1, 16949, Note_off_c, 1, 68, 0
1, 16979, Note_off_c, 1, 50, 0
1, 16979, Note_off_c, 1, 71, 0
1, 16979, Note_off_c, 1, 76, 0
1, 16980, Note_on_c, 1, 49, 127
1, 17009, Note_off_c, 1, 49, 0
1, 17010, Note_on_c, 1, 47, 127
1, 17039, Note_off_c, 1, 56, 0
1, 17039, Note_off_c, 1, 64, 0
1, 17039, Note_off_c, 1, 47, 0
1, 17040, Note_on_c, 1, 73, 127
1, 17040, Note_on_c, 1, 69, 127
1, 17040, Note_on_c, 1, 76, 127
1, 17040, Note_on_c, 1, 64, 127
1, 17040, Note_on_c, 1, 49, 127
1, 17069, Note_off_c, 1, 73, 0
1, 17070, Note_on_c, 1, 71, 127
1, 17070, Note_on_c, 1, 67, 127
1, 17099, Note_off_c, 1, 69, 0
1, 17099, Note_off_c, 1, 76, 0
1, 17099, Note_off_c, 1, 64, 0
1, 17099, Note_off_c, 1, 71, 0
1, 17099, Note_off_c, 1, 67, 0
1, 17100, Note_on_c, 1, 66, 127
1, 17100, Note_on_c, 1, 74, 127
1, 17100, Note_on_c, 1, 62, 127
1, 17100, Note_on_c, 1, 54, 127
1, 17147, Note_off_c, 1, 66, 0
1, 17159, Note_off_c, 1, 49, 0
1, 17159, Note_off_c, 1, 74, 0
1, 17159, Note_off_c, 1, 54, 0
1, 17160, Note_on_c, 1, 56, 127
1, 17160, Note_on_c, 1, 47, 127
1, 17219, Note_off_c, 1, 62, 0
1, 17219, Note_off_c, 1, 56, 0
1, 17219, Note_off_c, 1, 47, 0
1, 17220, Note_on_c, 1, 73, 127
1, 17220, Note_on_c, 1, 76, 127
1, 17220, Note_on_c, 1, 64, 127
1, 17220, Note_on_c, 1, 69, 127
1, 17220, Note_on_c, 1, 57, 127
1, 17220, Note_on_c, 1, 45, 127
1, 17267, Note_off_c, 1, 69, 0
1, 17279, Note_off_c, 1, 73, 0
1, 17279, Note_off_c, 1, 76, 0
1, 17279, Note_off_c, 1, 64, 0
1, 17279, Note_off_c, 1, 57, 0
1, 17279, Note_off_c, 1, 45, 0
1, 17280, Note_on_c, 1, 71, 127
1, 17280, Note_on_c, 1, 76, 127
1, 17280, Note_on_c, 1, 68, 127
1, 17280, Note_on_c, 1, 56, 127
1, 17280, Note_on_c, 1, 52, 127
1, 17280, Note_on_c, 1, 40, 127
1, 17309, Note_off_c, 1, 56, 0
1, 17310, Note_on_c, 1, 54, 127
1, 17327, Note_off_c, 1, 40, 0
1, 17339, Note_off_c, 1, 76, 0
1, 17339, Note_off_c, 1, 68, 0
1, 17339, Note_off_c, 1, 54, 0
1, 17340, Note_on_c, 1, 64, 127
1, 17369, Note_off_c, 1, 64, 0
1, 17370, Note_on_c, 1, 66, 127
1, 17370, Note_on_c, 1, 57, 127
1, 17399, Note_off_c, 1, 52, 0
1, 17399, Note_off_c, 1, 66, 0
1, 17399, Note_off_c, 1, 57, 0
1, 17400, Note_on_c, 1, 59, 127
1, 17400, Note_on_c, 1, 50, 127
1, 17459, Note_off_c, 1, 59, 0
1, 17459, Note_off_c, 1, 50, 0
1, 17460, Note_on_c, 1, 73, 127
1, 17460, Note_on_c, 1, 49, 127
1, 17489, Note_off_c, 1, 49, 0
1, 17490, Note_on_c, 1, 74, 127
1, 17490, Note_on_c, 1, 47, 127
1, 17519, Note_off_c, 1, 71, 0
1, 17519, Note_off_c, 1, 73, 0
1, 17519, Note_off_c, 1, 74, 0
1, 17519, Note_off_c, 1, 47, 0
1, 17520, Note_on_c, 1, 76, 127
1, 17520, Note_on_c, 1, 69, 127
1, 17520, Note_on_c, 1, 64, 127
1, 17520, Note_on_c, 1, 49, 127
1, 17549, Note_off_c, 1, 76, 0
1, 17549, Note_off_c, 1, 49, 0
1, 17550, Note_on_c, 1, 74, 127
1, 17550, Note_on_c, 1, 50, 127
1, 17579, Note_off_c, 1, 69, 0
1, 17579, Note_off_c, 1, 64, 0
1, 17579, Note_off_c, 1, 74, 0
1, 17579, Note_off_c, 1, 50, 0
1, 17580, Note_on_c, 1, 73, 127
1, 17580, Note_on_c, 1, 68, 127
1, 17580, Note_on_c, 1, 76, 127
1, 17580, Note_on_c, 1, 74, 127
1, 17580, Note_on_c, 1, 64, 127
1, 17580, Note_on_c, 1, 52, 127
1, 17609, Note_off_c, 1, 73, 0
1, 17610, Note_on_c, 1, 71, 127
1, 17639, Note_off_c, 1, 68, 0
1, 17639, Note_off_c, 1, 76, 0
1, 17639, Note_off_c, 1, 74, 0
1, 17639, Note_off_c, 1, 64, 0
1, 17639, Note_off_c, 1, 52, 0
1, 17639, Note_off_c, 1, 71, 0
1, 17640, Note_on_c, 1, 73, 127
1, 17640, Note_on_c, 1, 69, 127
1, 17640, Note_on_c, 1, 76, 127
1, 17640, Note_on_c, 1, 64, 127
1, 17640, Note_on_c, 1, 45, 127
1, 17670, Note_on_c, 1, 74, 127
1, 17670, Note_on_c, 1, 62, 127
1, 17687, Note_off_c, 1, 64, 0
1, 17699, Note_off_c, 1, 73, 0
1, 17699, Note_off_c, 1, 69, 0
1, 17699, Note_off_c, 1, 76, 0
1, 17699, Note_off_c, 1, 45, 0
1, 17699, Note_off_c, 1, 74, 0
1, 17699, Note_off_c, 1, 62, 0
1, 17700, Note_on_c, 1, 76, 127
1, 17700, Note_on_c, 1, 64, 127
1, 17700, Note_on_c, 1, 61, 127
1, 17700, Note_on_c, 1, 57, 127
1, 17729, Note_off_c, 1, 61, 0
1, 17730, Note_on_c, 1, 66, 127
1, 17730, Note_on_c, 1, 62, 127
1, 17759, Note_off_c, 1, 76, 0
1, 17759, Note_off_c, 1, 64, 0
1, 17759, Note_off_c, 1, 57, 0
1, 17759, Note_off_c, 1, 66, 0
1, 17759, Note_off_c, 1, 62, 0
1, 17760, Note_on_c, 1, 69, 127
1, 17760, Note_on_c, 1, 67, 127
1, 17760, Note_on_c, 1, 76, 127
1, 17760, Note_on_c, 1, 61, 127
1, 17760, Note_on_c, 1, 64, 127
1, 17760, Note_on_c, 1, 55, 127
1, 17789, Note_off_c, 1, 67, 0
1, 17819, Note_off_c, 1, 76, 0
1, 17819, Note_off_c, 1, 61, 0
1, 17819, Note_off_c, 1, 64, 0
1, 17819, Note_off_c, 1, 55, 0
1, 17820, Note_on_c, 1, 74, 127
1, 17820, Note_on_c, 1, 62, 127
1, 17820, Note_on_c, 1, 57, 127
1, 17820, Note_on_c, 1, 54, 127
1, 17849, Note_off_c, 1, 54, 0
1, 17850, Note_on_c, 1, 52, 127
1, 17879, Note_off_c, 1, 69, 0
1, 17879, Note_off_c, 1, 74, 0
1, 17879, Note_off_c, 1, 62, 0
1, 17879, Note_off_c, 1, 57, 0
1, 17879, Note_off_c, 1, 52, 0
1, 17880, Note_on_c, 1, 81, 127
1, 17880, Note_on_c, 1, 62, 127
1, 17880, Note_on_c, 1, 78, 127
1, 17880, Note_on_c, 1, 69, 127
1, 17880, Note_on_c, 1, 54, 127
1, 17909, Note_off_c, 1, 81, 0
1, 17909, Note_off_c, 1, 54, 0
1, 17910, Note_on_c, 1, 79, 127
1, 17910, Note_on_c, 1, 55, 127
1, 17939, Note_off_c, 1, 62, 0
1, 17939, Note_off_c, 1, 78, 0
1, 17939, Note_off_c, 1, 69, 0
1, 17939, Note_off_c, 1, 79, 0
1, 17939, Note_off_c, 1, 55, 0
1, 17940, Note_on_c, 1, 78, 127
1, 17940, Note_on_c, 1, 61, 127
1, 17940, Note_on_c, 1, 81, 127
1, 17940, Note_on_c, 1, 69, 127
1, 17940, Note_on_c, 1, 76, 127
1, 17940, Note_on_c, 1, 57, 127
1, 17969, Note_off_c, 1, 78, 0
1, 17999, Note_off_c, 1, 61, 0
1, 17999, Note_off_c, 1, 81, 0
1, 17999, Note_off_c, 1, 69, 0
1, 17999, Note_off_c, 1, 76, 0
1, 17999, Note_off_c, 1, 57, 0
1, 18000, Note_on_c, 1, 78, 127
1, 18000, Note_on_c, 1, 62, 127
1, 18000, Note_on_c, 1, 81, 127
1, 18000, Note_on_c, 1, 69, 127
1, 18000, Note_on_c, 1, 54, 127
1, 18000, Note_on_c, 1, 50, 127
1, 18029, Note_off_c, 1, 78, 0
1, 18030, Note_on_c, 1, 76, 127
1, 18047, Note_off_c, 1, 54, 0
1, 18059, Note_off_c, 1, 81, 0
1, 18059, Note_off_c, 1, 76, 0
1, 18060, Note_on_c, 1, 60, 127
1, 18060, Note_on_c, 1, 52, 127
1, 18089, Note_off_c, 1, 60, 0
1, 18090, Note_on_c, 1, 79, 127
1, 18090, Note_on_c, 1, 59, 127
1, 18107, Note_off_c, 1, 52, 0
1, 18119, Note_off_c, 1, 50, 0
1, 18119, Note_off_c, 1, 79, 0
1, 18119, Note_off_c, 1, 59, 0
1, 18120, Note_on_c, 1, 74, 127
1, 18120, Note_on_c, 1, 57, 127
1, 18179, Note_off_c, 1, 74, 0
1, 18179, Note_off_c, 1, 57, 0
1, 18180, Note_on_c, 1, 83, 127
1, 18180, Note_on_c, 1, 43, 127
1, 18239, Note_off_c, 1, 62, 0
1, 18239, Note_off_c, 1, 69, 0
1, 18239, Note_off_c, 1, 83, 0
1, 18240, Note_on_c, 1, 64, 127
1, 18240, Note_on_c, 1, 72, 127
1, 18240, Note_on_c, 1, 67, 127
1, 18269, Note_off_c, 1, 64, 0
1, 18269, Note_off_c, 1, 72, 0
1, 18269, Note_off_c, 1, 67, 0
1, 18270, Note_on_c, 1, 66, 127
1, 18270, Note_on_c, 1, 71, 127
1, 18275, Note_off_c, 1, 43, 0
1, 18299, Note_off_c, 1, 66, 0
1, 18299, Note_off_c, 1, 71, 0
1, 18300, Note_on_c, 1, 67, 127
1, 18300, Note_on_c, 1, 83, 127
1, 18300, Note_on_c, 1, 76, 127
1, 18300, Note_on_c, 1, 60, 127
1, 18300, Note_on_c, 1, 69, 127
1, 18300, Note_on_c, 1, 52, 127
1, 18329, Note_off_c, 1, 69, 0
1, 18330, Note_on_c, 1, 64, 127
1, 18330, Note_on_c, 1, 59, 127
1, 18347, Note_off_c, 1, 52, 0
1, 18359, Note_off_c, 1, 67, 0
1, 18359, Note_off_c, 1, 83, 0
1, 18359, Note_off_c, 1, 76, 0
1, 18359, Note_off_c, 1, 60, 0
1, 18359, Note_off_c, 1, 64, 0
1, 18359, Note_off_c, 1, 59, 0
1, 18360, Note_on_c, 1, 74, 127
1, 18360, Note_on_c, 1, 69, 127
1, 18360, Note_on_c, 1, 81, 127
1, 18360, Note_on_c, 1, 78, 127
1, 18360, Note_on_c, 1, 62, 127
1, 18360, Note_on_c, 1, 60, 127
1, 18360, Note_on_c, 1, 57, 127
1, 18360, Note_on_c, 1, 42, 127
1, 18407, Note_off_c, 1, 62, 0
1, 18419, Note_off_c, 1, 69, 0
1, 18419, Note_off_c, 1, 81, 0
1, 18419, Note_off_c, 1, 78, 0
1, 18419, Note_off_c, 1, 60, 0
1, 18419, Note_off_c, 1, 57, 0
1, 18420, Note_on_c, 1, 66, 127
1, 18420, Note_on_c, 1, 59, 127
1, 18449, Note_off_c, 1, 59, 0
1, 18455, Note_off_c, 1, 42, 0
1, 18479, Note_off_c, 1, 66, 0
1, 18480, Note_on_c, 1, 83, 127
1, 18480, Note_on_c, 1, 50, 127
1, 18527, Note_off_c, 1, 50, 0
1, 18539, Note_off_c, 1, 83, 0
1, 18540, Note_on_c, 1, 67, 127
1, 18540, Note_on_c, 1, 76, 127
1, 18540, Note_on_c, 1, 55, 127
1, 18540, Note_on_c, 1, 40, 127
1, 18587, Note_off_c, 1, 40, 0
1, 18599, Note_off_c, 1, 76, 0
1, 18599, Note_off_c, 1, 55, 0
1, 18630, Note_off_c, 1, 74, 0
1, 18659, Note_off_c, 1, 67, 0
1, 18660, Note_on_c, 1, 76, 127
1, 18660, Note_on_c, 1, 71, 127
1, 18660, Note_on_c, 1, 79, 127
1, 18660, Note_on_c, 1, 59, 127
1, 18660, Note_on_c, 1, 55, 127
1, 18660, Note_on_c, 1, 43, 127
1, 18690, Note_on_c, 1, 74, 127
1, 18690, Note_on_c, 1, 67, 127
1, 18719, Note_off_c, 1, 76, 0
1, 18719, Note_off_c, 1, 71, 0
1, 18719, Note_off_c, 1, 79, 0
1, 18719, Note_off_c, 1, 59, 0
1, 18719, Note_off_c, 1, 55, 0
1, 18719, Note_off_c, 1, 74, 0
1, 18719, Note_off_c, 1, 67, 0
1, 18720, Note_on_c, 1, 81, 127
1, 18720, Note_on_c, 1, 64, 127
1, 18720, Note_on_c, 1, 73, 127
1, 18720, Note_on_c, 1, 61, 127
1, 18720, Note_on_c, 1, 57, 127
1, 18731, Note_off_c, 1, 43, 0
1, 18779, Note_off_c, 1, 81, 0
1, 18779, Note_off_c, 1, 64, 0
1, 18779, Note_off_c, 1, 73, 0
1, 18779, Note_off_c, 1, 61, 0
1, 18780, Note_on_c, 1, 69, 127
1, 18780, Note_on_c, 1, 66, 127
1, 18780, Note_on_c, 1, 62, 127
1, 18780, Note_on_c, 1, 54, 127
1, 18809, Note_off_c, 1, 66, 0
1, 18809, Note_off_c, 1, 54, 0
1, 18810, Note_on_c, 1, 52, 127
1, 18839, Note_off_c, 1, 69, 0
1, 18839, Note_off_c, 1, 62, 0
1, 18839, Note_off_c, 1, 52, 0
1, 18840, Note_on_c, 1, 50, 127
1, 18869, Note_off_c, 1, 50, 0
1, 18870, Note_on_c, 1, 49, 127
1, 18899, Note_off_c, 1, 49, 0
1, 18900, Note_on_c, 1, 78, 127
1, 18959, Note_off_c, 1, 57, 0
1, 18959, Note_off_c, 1, 78, 0
1, 18960, Note_on_c, 1, 83, 127
1, 18989, Note_off_c, 1, 83, 0
1, 19020, Note_on_c, 1, 79, 127
1, 19020, Note_on_c, 1, 67, 127
1, 19020, Note_on_c, 1, 74, 127
1, 19020, Note_on_c, 1, 71, 127
1, 19020, Note_on_c, 1, 62, 127
1, 19020, Note_on_c, 1, 59, 127
1, 19049, Note_off_c, 1, 79, 0
1, 19050, Note_on_c, 1, 78, 127
1, 19079, Note_off_c, 1, 74, 0
1, 19079, Note_off_c, 1, 71, 0
1, 19079, Note_off_c, 1, 78, 0
1, 19080, Note_on_c, 1, 76, 127
1, 19080, Note_on_c, 1, 73, 127
1, 19080, Note_on_c, 1, 49, 127
1, 19139, Note_off_c, 1, 62, 0
1, 19139, Note_off_c, 1, 59, 0
1, 19139, Note_off_c, 1, 76, 0
1, 19139, Note_off_c, 1, 73, 0
1, 19140, Note_off_c, 1, 67, 0
1, 19140, Note_on_c, 1, 81, 127
1, 19140, Note_on_c, 1, 66, 127
1, 19140, Note_on_c, 1, 61, 127
1, 19169, Note_off_c, 1, 81, 0
1, 19169, Note_off_c, 1, 66, 0
1, 19169, Note_off_c, 1, 61, 0
1, 19170, Note_on_c, 1, 64, 127
1, 19199, Note_off_c, 1, 49, 0
1, 19199, Note_off_c, 1, 64, 0
1, 19200, Note_on_c, 1, 78, 127
1, 19200, Note_on_c, 1, 66, 127
1, 19200, Note_on_c, 1, 73, 127
1, 19200, Note_on_c, 1, 69, 127
1, 19200, Note_on_c, 1, 61, 127
1, 19200, Note_on_c, 1, 57, 127
1, 19230, Note_on_c, 1, 76, 127
1, 19247, Note_off_c, 1, 69, 0
1, 19259, Note_off_c, 1, 78, 0
1, 19259, Note_off_c, 1, 73, 0
1, 19259, Note_off_c, 1, 61, 0
1, 19259, Note_off_c, 1, 76, 0
1, 19260, Note_on_c, 1, 74, 127
1, 19260, Note_on_c, 1, 71, 127
1, 19260, Note_on_c, 1, 62, 127
1, 19260, Note_on_c, 1, 47, 127
1, 19289, Note_off_c, 1, 57, 0
1, 19289, Note_off_c, 1, 74, 0
1, 19290, Note_on_c, 1, 67, 127
1, 19290, Note_on_c, 1, 55, 127
1, 19307, Note_off_c, 1, 47, 0
1, 19319, Note_off_c, 1, 66, 0
1, 19319, Note_off_c, 1, 71, 0
1, 19319, Note_off_c, 1, 62, 0
1, 19319, Note_off_c, 1, 67, 0
1, 19319, Note_off_c, 1, 55, 0
1, 19320, Note_on_c, 1, 79, 127
1, 19320, Note_on_c, 1, 69, 127
1, 19320, Note_on_c, 1, 64, 127
1, 19320, Note_on_c, 1, 57, 127
1, 19320, Note_on_c, 1, 54, 127
1, 19320, Note_on_c, 1, 49, 127
1, 19349, Note_off_c, 1, 79, 0
1, 19349, Note_off_c, 1, 54, 0
1, 19350, Note_on_c, 1, 81, 127
1, 19350, Note_on_c, 1, 52, 127
1, 19364, Note_off_c, 1, 81, 0
1, 19367, Note_off_c, 1, 49, 0
1, 19379, Note_off_c, 1, 69, 0
1, 19379, Note_off_c, 1, 64, 0
1, 19379, Note_off_c, 1, 57, 0
1, 19379, Note_off_c, 1, 52, 0
1, 19380, Note_on_c, 1, 78, 127
1, 19380, Note_on_c, 1, 74, 127
1, 19380, Note_on_c, 1, 62, 127
1, 19380, Note_on_c, 1, 57, 127
1, 19380, Note_on_c, 1, 54, 127
1, 19380, Note_on_c, 1, 50, 127
1, 19409, Note_off_c, 1, 54, 0
1, 19410, Note_on_c, 1, 79, 127
1, 19424, Note_off_c, 1, 79, 0
1, 19439, Note_off_c, 1, 78, 0
1, 19439, Note_off_c, 1, 62, 0
1, 19439, Note_off_c, 1, 57, 0
1, 19439, Note_off_c, 1, 50, 0
1, 19440, Note_on_c, 1, 76, 127
1, 19440, Note_on_c, 1, 81, 127
1, 19440, Note_on_c, 1, 64, 127
1, 19469, Note_off_c, 1, 76, 0
1, 19499, Note_off_c, 1, 74, 0
1, 19499, Note_off_c, 1, 81, 0
1, 19499, Note_off_c, 1, 64, 0
1, 19500, Note_on_c, 1, 76, 127
1, 19500, Note_on_c, 1, 73, 127
1, 19500, Note_on_c, 1, 57, 127
1, 19500, Note_on_c, 1, 64, 127
1, 19500, Note_on_c, 1, 49, 127
1, 19529, Note_off_c, 1, 76, 0
1, 19529, Note_off_c, 1, 73, 0
1, 19530, Note_on_c, 1, 81, 127
1, 19530, Note_on_c, 1, 74, 127
1, 19547, Note_off_c, 1, 49, 0
1, 19559, Note_off_c, 1, 57, 0
1, 19559, Note_off_c, 1, 64, 0
1, 19559, Note_off_c, 1, 81, 0
1, 19559, Note_off_c, 1, 74, 0
1, 19560, Note_on_c, 1, 79, 127
1, 19560, Note_on_c, 1, 76, 127
1, 19560, Note_on_c, 1, 69, 127
1, 19560, Note_on_c, 1, 45, 127
1, 19560, Note_on_c, 1, 61, 127
1, 19589, Note_off_c, 1, 79, 0
1, 19590, Note_on_c, 1, 81, 127
1, 19590, Note_on_c, 1, 73, 127
1, 19619, Note_off_c, 1, 76, 0
1, 19619, Note_off_c, 1, 69, 0
1, 19619, Note_off_c, 1, 45, 0
1, 19619, Note_off_c, 1, 61, 0
1, 19619, Note_off_c, 1, 81, 0
1, 19619, Note_off_c, 1, 73, 0
1, 19620, Note_on_c, 1, 78, 127
1, 19620, Note_on_c, 1, 74, 127
1, 19620, Note_on_c, 1, 69, 127
1, 19620, Note_on_c, 1, 50, 127
1, 19620, Note_on_c, 1, 54, 127
1, 19649, Note_off_c, 1, 78, 0
1, 19649, Note_off_c, 1, 74, 0
1, 19650, Note_on_c, 1, 76, 127
1, 19650, Note_on_c, 1, 73, 127
1, 19679, Note_off_c, 1, 69, 0
1, 19679, Note_off_c, 1, 50, 0
1, 19679, Note_off_c, 1, 54, 0
1, 19679, Note_off_c, 1, 76, 0
1, 19679, Note_off_c, 1, 73, 0
1, 19680, Note_on_c, 1, 79, 127
1, 19680, Note_on_c, 1, 83, 127
1, 19680, Note_on_c, 1, 71, 127
1, 19680, Note_on_c, 1, 67, 127
1, 19680, Note_on_c, 1, 50, 127
1, 19680, Note_on_c, 1, 55, 127
1, 19680, Note_on_c, 1, 43, 127
1, 19709, Note_off_c, 1, 79, 0
1, 19709, Note_off_c, 1, 83, 0
1, 19709, Note_off_c, 1, 67, 0
1, 19709, Note_off_c, 1, 55, 0
1, 19709, Note_off_c, 1, 43, 0
1, 19710, Note_on_c, 1, 78, 127
1, 19710, Note_on_c, 1, 81, 127
1, 19710, Note_on_c, 1, 69, 127
1, 19710, Note_on_c, 1, 54, 127
1, 19710, Note_on_c, 1, 42, 127
1, 19739, Note_off_c, 1, 71, 0
1, 19739, Note_off_c, 1, 50, 0
1, 19739, Note_off_c, 1, 78, 0
1, 19739, Note_off_c, 1, 81, 0
1, 19739, Note_off_c, 1, 69, 0
1, 19739, Note_off_c, 1, 54, 0
1, 19739, Note_off_c, 1, 42, 0
1, 19740, Note_on_c, 1, 76, 127
1, 19740, Note_on_c, 1, 79, 127
1, 19740, Note_on_c, 1, 71, 127
1, 19740, Note_on_c, 1, 55, 127
1, 19740, Note_on_c, 1, 43, 127
1, 19769, Note_off_c, 1, 79, 0
1, 19770, Note_on_c, 1, 74, 127
1, 19770, Note_on_c, 1, 78, 127
1, 19799, Note_off_c, 1, 76, 0
1, 19799, Note_off_c, 1, 71, 0
1, 19799, Note_off_c, 1, 55, 0
1, 19799, Note_off_c, 1, 74, 0
1, 19799, Note_off_c, 1, 78, 0
1, 19800, Note_on_c, 1, 81, 127
1, 19800, Note_on_c, 1, 69, 127
1, 19800, Note_on_c, 1, 45, 127
1, 19800, Note_on_c, 1, 73, 127
1, 19800, Note_on_c, 1, 64, 127
1, 19800, Note_on_c, 1, 57, 127
1, 19835, Note_off_c, 1, 43, 0
1, 19859, Note_off_c, 1, 69, 0
1, 19859, Note_off_c, 1, 45, 0
1, 19859, Note_off_c, 1, 73, 0
1, 19859, Note_off_c, 1, 64, 0
1, 19859, Note_off_c, 1, 57, 0
1, 19860, Note_on_c, 1, 66, 127
1, 19860, Note_on_c, 1, 50, 127
1, 19860, Note_on_c, 1, 54, 127
1, 19860, Note_on_c, 1, 42, 127
1, 19889, Note_off_c, 1, 66, 0
1, 19889, Note_off_c, 1, 54, 0
1, 19889, Note_off_c, 1, 42, 0
1, 19890, Note_on_c, 1, 67, 127
1, 19890, Note_on_c, 1, 52, 127
1, 19890, Note_on_c, 1, 40, 127
1, 19919, Note_off_c, 1, 50, 0
1, 19919, Note_off_c, 1, 67, 0
1, 19919, Note_off_c, 1, 52, 0
1, 19919, Note_off_c, 1, 40, 0
1, 19920, Note_on_c, 1, 62, 127
1, 19949, Note_off_c, 1, 62, 0
1, 20039, Note_off_c, 1, 81, 0
1, 20040, Note_on_c, 1, 69, 127
1, 20040, Note_on_c, 1, 79, 127
1, 20040, Note_on_c, 1, 45, 127
1, 20040, Note_on_c, 1, 73, 127
1, 20040, Note_on_c, 1, 64, 127
1, 20040, Note_on_c, 1, 67, 127
1, 20040, Note_on_c, 1, 52, 127
1, 20040, Note_on_c, 1, 40, 127
1, 20087, Note_off_c, 1, 40, 0
1, 20099, Note_off_c, 1, 69, 0
1, 20099, Note_off_c, 1, 79, 0
1, 20099, Note_off_c, 1, 45, 0
1, 20099, Note_off_c, 1, 73, 0
1, 20099, Note_off_c, 1, 64, 0
1, 20099, Note_off_c, 1, 67, 0
1, 20099, Note_off_c, 1, 52, 0
1, 20100, Note_on_c, 1, 69, 127
1, 20100, Note_on_c, 1, 78, 127
1, 20100, Note_on_c, 1, 74, 127
1, 20100, Note_on_c, 1, 50, 127
1, 20100, Note_on_c, 1, 57, 127
1, 20100, Note_on_c, 1, 38, 127
1, 20147, Note_off_c, 1, 38, 0
1, 20159, Note_off_c, 1, 69, 0
1, 20159, Note_off_c, 1, 78, 0
1, 20159, Note_off_c, 1, 74, 0
1, 20159, Note_off_c, 1, 50, 0
1, 20159, Note_off_c, 1, 57, 0
1, 20160, Note_on_c, 1, 69, 127
1, 20160, Note_on_c, 1, 76, 127
1, 20160, Note_on_c, 1, 45, 127
1, 20160, Note_on_c, 1, 73, 127
1, 20160, Note_on_c, 1, 78, 127
1, 20160, Note_on_c, 1, 64, 127
1, 20160, Note_on_c, 1, 57, 127
1, 20189, Note_off_c, 1, 78, 0
1, 20189, Note_off_c, 1, 64, 0
1, 20190, Note_on_c, 1, 62, 127
1, 20219, Note_off_c, 1, 45, 0
1, 20219, Note_off_c, 1, 73, 0
1, 20219, Note_off_c, 1, 57, 0
1, 20219, Note_off_c, 1, 62, 0
1, 20220, Note_on_c, 1, 81, 127
1, 20220, Note_on_c, 1, 61, 127
1, 20220, Note_on_c, 1, 49, 127
1, 20249, Note_off_c, 1, 76, 0
1, 20249, Note_off_c, 1, 61, 0
1, 20250, Note_on_c, 1, 74, 127
1, 20250, Note_on_c, 1, 59, 127
1, 20279, Note_off_c, 1, 69, 0
1, 20279, Note_off_c, 1, 81, 0
1, 20279, Note_off_c, 1, 49, 0
1, 20279, Note_off_c, 1, 74, 0
1, 20279, Note_off_c, 1, 59, 0
1, 20280, Note_on_c, 1, 79, 127
1, 20280, Note_on_c, 1, 76, 127
1, 20280, Note_on_c, 1, 69, 127
1, 20280, Note_on_c, 1, 45, 127
1, 20280, Note_on_c, 1, 73, 127
1, 20280, Note_on_c, 1, 64, 127
1, 20280, Note_on_c, 1, 61, 127
1, 20309, Note_off_c, 1, 73, 0
1, 20310, Note_on_c, 1, 71, 127
1, 20339, Note_off_c, 1, 69, 0
1, 20339, Note_off_c, 1, 45, 0
1, 20339, Note_off_c, 1, 64, 0
1, 20339, Note_off_c, 1, 61, 0
1, 20339, Note_off_c, 1, 71, 0
1, 20340, Note_on_c, 1, 50, 127
1, 20340, Note_on_c, 1, 66, 127
1, 20340, Note_on_c, 1, 62, 127
1, 20369, Note_off_c, 1, 66, 0
1, 20370, Note_on_c, 1, 67, 127
1, 20370, Note_on_c, 1, 68, 127
1, 20370, Note_on_c, 1, 49, 127
1, 20399, Note_off_c, 1, 79, 0
1, 20399, Note_off_c, 1, 76, 0
1, 20399, Note_off_c, 1, 50, 0
1, 20399, Note_off_c, 1, 62, 0
1, 20399, Note_off_c, 1, 67, 0
1, 20399, Note_off_c, 1, 68, 0
1, 20399, Note_off_c, 1, 49, 0
1, 20400, Note_on_c, 1, 78, 127
1, 20400, Note_on_c, 1, 74, 127
1, 20400, Note_on_c, 1, 69, 127
1, 20400, Note_on_c, 1, 57, 127
1, 20400, Note_on_c, 1, 54, 127
1, 20429, Note_off_c, 1, 78, 0
1, 20429, Note_off_c, 1, 54, 0
1, 20430, Note_on_c, 1, 80, 127
1, 20430, Note_on_c, 1, 52, 127
1, 20459, Note_off_c, 1, 74, 0
1, 20459, Note_off_c, 1, 57, 0
1, 20459, Note_off_c, 1, 80, 0
1, 20459, Note_off_c, 1, 52, 0
1, 20460, Note_on_c, 1, 81, 127
1, 20460, Note_on_c, 1, 76, 127
1, 20460, Note_on_c, 1, 45, 127
1, 20460, Note_on_c, 1, 73, 127
1, 20460, Note_on_c, 1, 64, 127
1, 20460, Note_on_c, 1, 50, 127
1, 20489, Note_off_c, 1, 50, 0
1, 20490, Note_on_c, 1, 49, 127
1, 20519, Note_off_c, 1, 76, 0
1, 20519, Note_off_c, 1, 45, 0
1, 20519, Note_off_c, 1, 73, 0
1, 20519, Note_off_c, 1, 64, 0
1, 20519, Note_off_c, 1, 49, 0
1, 20520, Note_on_c, 1, 62, 127
1, 20549, Note_off_c, 1, 69, 0
1, 20550, Note_on_c, 1, 71, 127
1, 20550, Note_on_c, 1, 47, 127
1, 20579, Note_off_c, 1, 81, 0
1, 20579, Note_off_c, 1, 62, 0
1, 20579, Note_off_c, 1, 71, 0
1, 20579, Note_off_c, 1, 47, 0
1, 20580, Note_on_c, 1, 80, 127
1, 20580, Note_on_c, 1, 76, 127
1, 20580, Note_on_c, 1, 73, 127
1, 20580, Note_on_c, 1, 56, 127
1, 20580, Note_on_c, 1, 52, 127
1, 20609, Note_off_c, 1, 80, 0
1, 20609, Note_off_c, 1, 52, 0
1, 20610, Note_on_c, 1, 81, 127
1, 20610, Note_on_c, 1, 50, 127
1, 20639, Note_off_c, 1, 73, 0
1, 20639, Note_off_c, 1, 56, 0
1, 20639, Note_off_c, 1, 81, 0
1, 20639, Note_off_c, 1, 50, 0
1, 20640, Note_on_c, 1, 83, 127
1, 20640, Note_on_c, 1, 62, 127
1, 20640, Note_on_c, 1, 74, 127
1, 20640, Note_on_c, 1, 68, 127
1, 20640, Note_on_c, 1, 59, 127
1, 20640, Note_on_c, 1, 49, 127
1, 20669, Note_off_c, 1, 83, 0
1, 20669, Note_off_c, 1, 49, 0
1, 20670, Note_on_c, 1, 47, 127
1, 20699, Note_off_c, 1, 62, 0
1, 20699, Note_off_c, 1, 74, 0
1, 20699, Note_off_c, 1, 68, 0
1, 20699, Note_off_c, 1, 59, 0
1, 20699, Note_off_c, 1, 47, 0
1, 20700, Note_on_c, 1, 69, 127
1, 20700, Note_on_c, 1, 45, 127
1, 20700, Note_on_c, 1, 64, 127
1, 20759, Note_off_c, 1, 76, 0
1, 20759, Note_off_c, 1, 69, 0
1, 20759, Note_off_c, 1, 45, 0
1, 20759, Note_off_c, 1, 64, 0
1, 20760, Note_on_c, 1, 85, 127
1, 20760, Note_on_c, 1, 81, 127
1, 20760, Note_on_c, 1, 78, 127
1, 20760, Note_on_c, 1, 50, 127
1, 20760, Note_on_c, 1, 74, 127
1, 20760, Note_on_c, 1, 62, 127
1, 20760, Note_on_c, 1, 66, 127
1, 20760, Note_on_c, 1, 38, 127
1, 20789, Note_off_c, 1, 85, 0
1, 20790, Note_on_c, 1, 83, 127
1, 20807, Note_off_c, 1, 62, 0
1, 20807, Note_off_c, 1, 38, 0
1, 20819, Note_off_c, 1, 81, 0
1, 20819, Note_off_c, 1, 78, 0
1, 20819, Note_off_c, 1, 50, 0
1, 20819, Note_off_c, 1, 74, 0
1, 20819, Note_off_c, 1, 66, 0
1, 20819, Note_off_c, 1, 83, 0
1, 20820, Note_on_c, 1, 81, 127
1, 20820, Note_on_c, 1, 76, 127
1, 20820, Note_on_c, 1, 71, 127
1, 20820, Note_on_c, 1, 74, 127
1, 20820, Note_on_c, 1, 68, 127
1, 20820, Note_on_c, 1, 64, 127
1, 20820, Note_on_c, 1, 52, 127
1, 20820, Note_on_c, 1, 40, 127
1, 20850, Note_on_c, 1, 80, 127
1, 20867, Note_off_c, 1, 74, 0
1, 20867, Note_off_c, 1, 40, 0
1, 20879, Note_off_c, 1, 81, 0
1, 20879, Note_off_c, 1, 71, 0
1, 20879, Note_off_c, 1, 68, 0
1, 20879, Note_off_c, 1, 64, 0
1, 20879, Note_off_c, 1, 52, 0
1, 20879, Note_off_c, 1, 80, 0
1, 20880, Note_on_c, 1, 69, 127
1, 20880, Note_on_c, 1, 78, 127
1, 20880, Note_on_c, 1, 45, 127
1, 20880, Note_on_c, 1, 61, 127
1, 20880, Note_on_c, 1, 42, 127
1, 20910, Note_on_c, 1, 72, 127
1, 20910, Note_on_c, 1, 54, 127
1, 20933, Note_off_c, 1, 72, 0
1, 20939, Note_off_c, 1, 76, 0
1, 20939, Note_off_c, 1, 69, 0
1, 20939, Note_off_c, 1, 78, 0
1, 20939, Note_off_c, 1, 45, 0
1, 20939, Note_off_c, 1, 61, 0
1, 20939, Note_off_c, 1, 54, 0
1, 20940, Note_off_c, 1, 42, 0
1, 21000, Note_on_c, 1, 75, 127
1, 21000, Note_on_c, 1, 72, 127
1, 21000, Note_on_c, 1, 69, 127
1, 21000, Note_on_c, 1, 54, 127
1, 21029, Note_off_c, 1, 69, 0
1, 21029, Note_off_c, 1, 54, 0
1, 21060, Note_on_c, 1, 81, 127
1, 21060, Note_on_c, 1, 78, 127
1, 21060, Note_on_c, 1, 45, 127
1, 21060, Note_on_c, 1, 52, 127
1, 21060, Note_on_c, 1, 40, 127
1, 21089, Note_off_c, 1, 40, 0
1, 21119, Note_off_c, 1, 75, 0
1, 21119, Note_off_c, 1, 72, 0
1, 21119, Note_off_c, 1, 81, 0
1, 21119, Note_off_c, 1, 78, 0
1, 21119, Note_off_c, 1, 45, 0
1, 21149, Note_off_c, 1, 52, 0
1, 21180, Note_on_c, 1, 81, 127
1, 21180, Note_on_c, 1, 72, 127
1, 21180, Note_on_c, 1, 69, 127
1, 21180, Note_on_c, 1, 52, 127
1, 21203, Note_off_c, 1, 69, 0
1, 21209, Note_off_c, 1, 52, 0
1, 21240, Note_on_c, 1, 78, 127
1, 21240, Note_on_c, 1, 66, 127
1, 21240, Note_on_c, 1, 45, 127
1, 21240, Note_on_c, 1, 51, 127
1, 21240, Note_on_c, 1, 39, 127
1, 21269, Note_off_c, 1, 39, 0
1, 21270, Note_on_c, 1, 84, 127
1, 21270, Note_on_c, 1, 63, 127
1, 21293, Note_off_c, 1, 63, 0
1, 21299, Note_off_c, 1, 81, 0
1, 21299, Note_off_c, 1, 72, 0
1, 21299, Note_off_c, 1, 78, 0
1, 21299, Note_off_c, 1, 66, 0
1, 21299, Note_off_c, 1, 45, 0
1, 21299, Note_off_c, 1, 84, 0
1, 21300, Note_on_c, 1, 83, 127
1, 21329, Note_off_c, 1, 51, 0
1, 21329, Note_off_c, 1, 83, 0
1, 21330, Note_on_c, 1, 80, 127
1, 21330, Note_on_c, 1, 71, 127
1, 21353, Note_off_c, 1, 71, 0
1, 21359, Note_off_c, 1, 80, 0
1, 21360, Note_on_c, 1, 81, 127
1, 21360, Note_on_c, 1, 78, 127
1, 21360, Note_on_c, 1, 66, 127
1, 21360, Note_on_c, 1, 71, 127
1, 21360, Note_on_c, 1, 51, 127
1, 21383, Note_off_c, 1, 71, 0
1, 21389, Note_off_c, 1, 66, 0
1, 21389, Note_off_c, 1, 51, 0
1, 21419, Note_off_c, 1, 78, 0
1, 21420, Note_on_c, 1, 85, 127
1, 21420, Note_on_c, 1, 76, 127
1, 21420, Note_on_c, 1, 69, 127
1, 21420, Note_on_c, 1, 45, 127
1, 21420, Note_on_c, 1, 73, 127
1, 21420, Note_on_c, 1, 64, 127
1, 21420, Note_on_c, 1, 52, 127
1, 21449, Note_off_c, 1, 69, 0
1, 21449, Note_off_c, 1, 45, 0
1, 21449, Note_off_c, 1, 73, 0
1, 21449, Note_off_c, 1, 52, 0
1, 21450, Note_on_c, 1, 74, 127
1, 21450, Note_on_c, 1, 50, 127
1, 21467, Note_off_c, 1, 64, 0
1, 21479, Note_off_c, 1, 81, 0
1, 21479, Note_off_c, 1, 85, 0
1, 21479, Note_off_c, 1, 76, 0
1, 21479, Note_off_c, 1, 74, 0
1, 21479, Note_off_c, 1, 50, 0
1, 21480, Note_on_c, 1, 76, 127
1, 21480, Note_on_c, 1, 69, 127
1, 21480, Note_on_c, 1, 45, 127
1, 21480, Note_on_c, 1, 81, 127
1, 21480, Note_on_c, 1, 64, 127
1, 21480, Note_on_c, 1, 49, 127
1, 21509, Note_off_c, 1, 49, 0
1, 21510, Note_on_c, 1, 74, 127
1, 21510, Note_on_c, 1, 50, 127
1, 21527, Note_off_c, 1, 64, 0
1, 21539, Note_off_c, 1, 76, 0
1, 21539, Note_off_c, 1, 69, 0
1, 21539, Note_off_c, 1, 45, 0
1, 21539, Note_off_c, 1, 81, 0
1, 21539, Note_off_c, 1, 74, 0
1, 21539, Note_off_c, 1, 50, 0
1, 21540, Note_on_c, 1, 80, 127
1, 21540, Note_on_c, 1, 76, 127
1, 21540, Note_on_c, 1, 73, 127
1, 21540, Note_on_c, 1, 74, 127
1, 21540, Note_on_c, 1, 64, 127
1, 21540, Note_on_c, 1, 52, 127
1, 21569, Note_off_c, 1, 76, 0
1, 21569, Note_off_c, 1, 73, 0
1, 21570, Note_on_c, 1, 71, 127
1, 21587, Note_off_c, 1, 64, 0
1, 21587, Note_off_c, 1, 52, 0
1, 21599, Note_off_c, 1, 80, 0
1, 21599, Note_off_c, 1, 74, 0
1, 21599, Note_off_c, 1, 71, 0
1, 21600, Note_on_c, 1, 81, 127
1, 21600, Note_on_c, 1, 76, 127
1, 21600, Note_on_c, 1, 69, 127
1, 21600, Note_on_c, 1, 45, 127
1, 21600, Note_on_c, 1, 73, 127
1, 21600, Note_on_c, 1, 64, 127
1, 21660, Note_on_c, 1, 57, 127
1, 21719, Note_off_c, 1, 81, 0
1, 21719, Note_off_c, 1, 76, 0
1, 21719, Note_off_c, 1, 69, 0
1, 21719, Note_off_c, 1, 45, 0
1, 21719, Note_off_c, 1, 73, 0
1, 21719, Note_off_c, 1, 64, 0
1, 21719, Note_off_c, 1, 57, 0
1, 21720, Note_on_c, 1, 76, 127
1, 21720, Note_on_c, 1, 73, 127
1, 21720, Note_on_c, 1, 69, 127
1, 21720, Note_on_c, 1, 52, 127
1, 21720, Note_on_c, 1, 55, 127
1, 21767, Note_off_c, 1, 55, 0
1, 21768, Note_off_c, 1, 76, 0
1, 21768, Note_off_c, 1, 73, 0
1, 21768, Note_off_c, 1, 69, 0
1, 21779, Note_off_c, 1, 52, 0
1, 21780, Note_on_c, 1, 75, 127
1, 21780, Note_on_c, 1, 72, 127
1, 21780, Note_on_c, 1, 69, 127
1, 21780, Note_on_c, 1, 57, 127
1, 21780, Note_on_c, 1, 54, 127
1, 21827, Note_off_c, 1, 54, 0
1, 21828, Note_off_c, 1, 75, 0
1, 21828, Note_off_c, 1, 72, 0
1, 21828, Note_off_c, 1, 69, 0
1, 21870, Note_on_c, 1, 71, 127
1, 21870, Note_on_c, 1, 67, 127
1, 21899, Note_off_c, 1, 57, 0
1, 21899, Note_off_c, 1, 71, 0
1, 21899, Note_off_c, 1, 67, 0
1, 21900, Note_on_c, 1, 69, 127
1, 21900, Note_on_c, 1, 66, 127
1, 21900, Note_on_c, 1, 78, 127
1, 21900, Note_on_c, 1, 72, 127
1, 21900, Note_on_c, 1, 57, 127
1, 21900, Note_on_c, 1, 52, 127
1, 21947, Note_off_c, 1, 52, 0
1, 21948, Note_off_c, 1, 78, 0
1, 21948, Note_off_c, 1, 72, 0
1, 21959, Note_off_c, 1, 69, 0
1, 21959, Note_off_c, 1, 66, 0
1, 21959, Note_off_c, 1, 57, 0
1, 21960, Note_on_c, 1, 78, 127
1, 21960, Note_on_c, 1, 72, 127
1, 21960, Note_on_c, 1, 69, 127
1, 21960, Note_on_c, 1, 57, 127
1, 21960, Note_on_c, 1, 51, 127
1, 21990, Note_off_c, 1, 51, 0
1, 22008, Note_off_c, 1, 78, 0
1, 22008, Note_off_c, 1, 72, 0
1, 22008, Note_off_c, 1, 69, 0
1, 22019, Note_off_c, 1, 57, 0
1, 22020, Note_on_c, 1, 69, 127
1, 22020, Note_on_c, 1, 75, 127
1, 22020, Note_on_c, 1, 54, 127
1, 22049, Note_off_c, 1, 69, 0
1, 22049, Note_off_c, 1, 75, 0
1, 22049, Note_off_c, 1, 54, 0
1, 22050, Note_on_c, 1, 67, 127
1, 22050, Note_on_c, 1, 76, 127
1, 22050, Note_on_c, 1, 55, 127
1, 22050, Note_on_c, 1, 52, 127
1, 22079, Note_off_c, 1, 67, 0
1, 22079, Note_off_c, 1, 76, 0
1, 22079, Note_off_c, 1, 55, 0
1, 22079, Note_off_c, 1, 52, 0
1, 22080, Note_on_c, 1, 66, 127
1, 22080, Note_on_c, 1, 78, 127
1, 22080, Note_on_c, 1, 71, 127
1, 22080, Note_on_c, 1, 69, 127
1, 22080, Note_on_c, 1, 57, 127
1, 22080, Note_on_c, 1, 51, 127
1, 22109, Note_off_c, 1, 51, 0
1, 22110, Note_on_c, 1, 49, 127
1, 22128, Note_off_c, 1, 71, 0
1, 22128, Note_off_c, 1, 69, 0
1, 22139, Note_off_c, 1, 66, 0
1, 22139, Note_off_c, 1, 78, 0
1, 22139, Note_off_c, 1, 57, 0
1, 22139, Note_off_c, 1, 49, 0
1, 22140, Note_on_c, 1, 78, 127
1, 22140, Note_on_c, 1, 71, 127
1, 22140, Note_on_c, 1, 69, 127
1, 22140, Note_on_c, 1, 51, 127
1, 22140, Note_on_c, 1, 47, 127
1, 22187, Note_off_c, 1, 47, 0
1, 22188, Note_off_c, 1, 78, 0
1, 22188, Note_off_c, 1, 71, 0
1, 22188, Note_off_c, 1, 69, 0
1, 22199, Note_off_c, 1, 51, 0
1, 22200, Note_on_c, 1, 79, 127
1, 22200, Note_on_c, 1, 71, 127
1, 22200, Note_on_c, 1, 52, 127
1, 22200, Note_on_c, 1, 43, 127
1, 22229, Note_off_c, 1, 79, 0
1, 22229, Note_off_c, 1, 71, 0
1, 22230, Note_on_c, 1, 78, 127
1, 22230, Note_on_c, 1, 69, 127
1, 22247, Note_off_c, 1, 43, 0
1, 22259, Note_off_c, 1, 52, 0
1, 22259, Note_off_c, 1, 78, 0
1, 22259, Note_off_c, 1, 69, 0
1, 22260, Note_on_c, 1, 76, 127
1, 22260, Note_on_c, 1, 67, 127
1, 22260, Note_on_c, 1, 54, 127
1, 22260, Note_on_c, 1, 47, 127
1, 22289, Note_off_c, 1, 76, 0
1, 22289, Note_off_c, 1, 67, 0
1, 22290, Note_on_c, 1, 75, 127
1, 22290, Note_on_c, 1, 66, 127
1, 22307, Note_off_c, 1, 47, 0
1, 22319, Note_off_c, 1, 54, 0
1, 22319, Note_off_c, 1, 75, 0
1, 22319, Note_off_c, 1, 66, 0
1, 22320, Note_on_c, 1, 76, 127
1, 22320, Note_on_c, 1, 64, 127
1, 22320, Note_on_c, 1, 57, 127
1, 22320, Note_on_c, 1, 40, 127
1, 22349, Note_off_c, 1, 57, 0
1, 22350, Note_on_c, 1, 55, 127
1, 22367, Note_off_c, 1, 40, 0
1, 22379, Note_off_c, 1, 76, 0
1, 22379, Note_off_c, 1, 64, 0
1, 22379, Note_off_c, 1, 55, 0
1, 22380, Note_on_c, 1, 59, 127
1, 22380, Note_on_c, 1, 52, 127
1, 22409, Note_off_c, 1, 59, 0
1, 22410, Note_on_c, 1, 57, 127
1, 22439, Note_off_c, 1, 52, 0
1, 22439, Note_off_c, 1, 57, 0
1, 22440, Note_on_c, 1, 76, 127
1, 22440, Note_on_c, 1, 67, 127
1, 22440, Note_on_c, 1, 59, 127
1, 22440, Note_on_c, 1, 55, 127
1, 22440, Note_on_c, 1, 50, 127
1, 22469, Note_off_c, 1, 55, 0
1, 22470, Note_on_c, 1, 54, 127
1, 22487, Note_off_c, 1, 50, 0
1, 22488, Note_off_c, 1, 76, 0
1, 22488, Note_off_c, 1, 67, 0
1, 22499, Note_off_c, 1, 59, 0
1, 22499, Note_off_c, 1, 54, 0
1, 22500, Note_on_c, 1, 76, 127
1, 22500, Note_on_c, 1, 67, 127
1, 22500, Note_on_c, 1, 61, 127
1, 22500, Note_on_c, 1, 64, 127
1, 22500, Note_on_c, 1, 59, 127
1, 22500, Note_on_c, 1, 49, 127
1, 22529, Note_off_c, 1, 59, 0
1, 22530, Note_on_c, 1, 58, 127
1, 22547, Note_off_c, 1, 49, 0
1, 22548, Note_off_c, 1, 76, 0
1, 22548, Note_off_c, 1, 67, 0
1, 22548, Note_off_c, 1, 61, 0
1, 22559, Note_off_c, 1, 58, 0
1, 22560, Note_on_c, 1, 70, 127
1, 22589, Note_off_c, 1, 70, 0
1, 22590, Note_on_c, 1, 74, 127
1, 22590, Note_on_c, 1, 71, 127
1, 22619, Note_off_c, 1, 64, 0
1, 22619, Note_off_c, 1, 74, 0
1, 22619, Note_off_c, 1, 71, 0
1, 22620, Note_on_c, 1, 73, 127
1, 22620, Note_on_c, 1, 76, 127
1, 22620, Note_on_c, 1, 79, 127
1, 22620, Note_on_c, 1, 61, 127
1, 22620, Note_on_c, 1, 64, 127
1, 22620, Note_on_c, 1, 58, 127
1, 22620, Note_on_c, 1, 47, 127
1, 22649, Note_off_c, 1, 58, 0
1, 22650, Note_on_c, 1, 56, 127
1, 22667, Note_off_c, 1, 47, 0
1, 22668, Note_off_c, 1, 76, 0
1, 22668, Note_off_c, 1, 79, 0
1, 22668, Note_off_c, 1, 61, 0
1, 22679, Note_off_c, 1, 73, 0
1, 22679, Note_off_c, 1, 64, 0
1, 22679, Note_off_c, 1, 56, 0
1, 22680, Note_on_c, 1, 79, 127
1, 22680, Note_on_c, 1, 73, 127
1, 22680, Note_on_c, 1, 64, 127
1, 22680, Note_on_c, 1, 61, 127
1, 22680, Note_on_c, 1, 46, 127
1, 22710, Note_off_c, 1, 46, 0
1, 22728, Note_off_c, 1, 79, 0
1, 22728, Note_off_c, 1, 73, 0
1, 22739, Note_off_c, 1, 64, 0
1, 22740, Note_on_c, 1, 82, 127
1, 22740, Note_on_c, 1, 76, 127
1, 22740, Note_on_c, 1, 49, 127
1, 22769, Note_off_c, 1, 82, 0
1, 22769, Note_off_c, 1, 76, 0
1, 22769, Note_off_c, 1, 49, 0
1, 22770, Note_on_c, 1, 83, 127
1, 22770, Note_on_c, 1, 74, 127
1, 22770, Note_on_c, 1, 62, 127
1, 22770, Note_on_c, 1, 47, 127
1, 22799, Note_off_c, 1, 83, 0
1, 22799, Note_off_c, 1, 74, 0
1, 22799, Note_off_c, 1, 62, 0
1, 22799, Note_off_c, 1, 47, 0
1, 22800, Note_on_c, 1, 85, 127
1, 22800, Note_on_c, 1, 78, 127
1, 22800, Note_on_c, 1, 58, 127
1, 22830, Note_on_c, 1, 44, 127
1, 22848, Note_off_c, 1, 78, 0
1, 22848, Note_off_c, 1, 58, 0
1, 22859, Note_off_c, 1, 85, 0
1, 22859, Note_off_c, 1, 44, 0
1, 22860, Note_on_c, 1, 42, 127
1, 22890, Note_off_c, 1, 61, 0
1, 22890, Note_on_c, 1, 59, 127
1, 22907, Note_off_c, 1, 42, 0
1, 22919, Note_off_c, 1, 59, 0
1, 22920, Note_on_c, 1, 78, 127
1, 22920, Note_on_c, 1, 71, 127
1, 22920, Note_on_c, 1, 59, 127
1, 22920, Note_on_c, 1, 62, 127
1, 22920, Note_on_c, 1, 38, 127
1, 22949, Note_off_c, 1, 78, 0
1, 22949, Note_off_c, 1, 62, 0
1, 22950, Note_on_c, 1, 76, 127
1, 22950, Note_on_c, 1, 61, 127
1, 22967, Note_off_c, 1, 38, 0
1, 22979, Note_off_c, 1, 71, 0
1, 22979, Note_off_c, 1, 59, 0
1, 22979, Note_off_c, 1, 76, 0
1, 22979, Note_off_c, 1, 61, 0
1, 22980, Note_on_c, 1, 74, 127
1, 22980, Note_on_c, 1, 66, 127
1, 22980, Note_on_c, 1, 61, 127
1, 22980, Note_on_c, 1, 59, 127
1, 22980, Note_on_c, 1, 42, 127
1, 23009, Note_off_c, 1, 74, 0
1, 23009, Note_off_c, 1, 59, 0
1, 23010, Note_on_c, 1, 73, 127
1, 23010, Note_on_c, 1, 58, 127
1, 23027, Note_off_c, 1, 42, 0
1, 23039, Note_off_c, 1, 66, 0
1, 23039, Note_off_c, 1, 61, 0
1, 23039, Note_off_c, 1, 73, 0
1, 23039, Note_off_c, 1, 58, 0
1, 23040, Note_on_c, 1, 71, 127
1, 23040, Note_on_c, 1, 66, 127
1, 23040, Note_on_c, 1, 64, 127
1, 23040, Note_on_c, 1, 59, 127
1, 23040, Note_on_c, 1, 47, 127
1, 23069, Note_off_c, 1, 64, 0
1, 23070, Note_on_c, 1, 62, 127
1, 23087, Note_off_c, 1, 47, 0
1, 23099, Note_off_c, 1, 71, 0
1, 23099, Note_off_c, 1, 66, 0
1, 23099, Note_off_c, 1, 62, 0
1, 23159, Note_off_c, 1, 59, 0
1, 23160, Note_on_c, 1, 71, 127
1, 23160, Note_on_c, 1, 66, 127
1, 23160, Note_on_c, 1, 62, 127
1, 23160, Note_on_c, 1, 57, 127
1, 23190, Note_on_c, 1, 61, 127
1, 23208, Note_off_c, 1, 71, 0
1, 23208, Note_off_c, 1, 62, 0
1, 23219, Note_off_c, 1, 66, 0
1, 23219, Note_off_c, 1, 57, 0
1, 23219, Note_off_c, 1, 61, 0
1, 23220, Note_on_c, 1, 71, 127
1, 23220, Note_on_c, 1, 68, 127
1, 23220, Note_on_c, 1, 62, 127
1, 23220, Note_on_c, 1, 66, 127
1, 23220, Note_on_c, 1, 56, 127
1, 23249, Note_off_c, 1, 66, 0
1, 23250, Note_on_c, 1, 65, 127
1, 23268, Note_off_c, 1, 68, 0
1, 23268, Note_off_c, 1, 62, 0
1, 23279, Note_off_c, 1, 56, 0
1, 23279, Note_off_c, 1, 65, 0
1, 23280, Note_on_c, 1, 77, 127
1, 23309, Note_off_c, 1, 77, 0
1, 23310, Note_on_c, 1, 78, 127
1, 23310, Note_on_c, 1, 69, 127
1, 23339, Note_off_c, 1, 71, 0
1, 23339, Note_off_c, 1, 78, 0
1, 23339, Note_off_c, 1, 69, 0
1, 23340, Note_on_c, 1, 80, 127
1, 23340, Note_on_c, 1, 68, 127
1, 23340, Note_on_c, 1, 71, 127
1, 23340, Note_on_c, 1, 62, 127
1, 23340, Note_on_c, 1, 65, 127
1, 23340, Note_on_c, 1, 54, 127
1, 23369, Note_off_c, 1, 65, 0
1, 23370, Note_on_c, 1, 63, 127
1, 23388, Note_off_c, 1, 62, 0
1, 23399, Note_off_c, 1, 80, 0
1, 23399, Note_off_c, 1, 68, 0
1, 23399, Note_off_c, 1, 71, 0
1, 23399, Note_off_c, 1, 54, 0
1, 23399, Note_off_c, 1, 63, 0
1, 23400, Note_on_c, 1, 73, 127
1, 23400, Note_on_c, 1, 68, 127
1, 23400, Note_on_c, 1, 61, 127
1, 23400, Note_on_c, 1, 71, 127
1, 23400, Note_on_c, 1, 53, 127
1, 23448, Note_off_c, 1, 73, 0
1, 23448, Note_off_c, 1, 61, 0
1, 23459, Note_off_c, 1, 71, 0
1, 23459, Note_off_c, 1, 53, 0
1, 23460, Note_on_c, 1, 83, 127
1, 23460, Note_on_c, 1, 77, 127
1, 23460, Note_on_c, 1, 56, 127
1, 23489, Note_off_c, 1, 83, 0
1, 23489, Note_off_c, 1, 77, 0
1, 23489, Note_off_c, 1, 56, 0
1, 23490, Note_on_c, 1, 81, 127
1, 23490, Note_on_c, 1, 78, 127
1, 23490, Note_on_c, 1, 69, 127
1, 23490, Note_on_c, 1, 54, 127
1, 23519, Note_off_c, 1, 81, 0
1, 23519, Note_off_c, 1, 78, 0
1, 23519, Note_off_c, 1, 69, 0
1, 23519, Note_off_c, 1, 54, 0
1, 23520, Note_on_c, 1, 80, 127
1, 23550, Note_on_c, 1, 51, 127
1, 23579, Note_off_c, 1, 80, 0
1, 23579, Note_off_c, 1, 51, 0
1, 23580, Note_on_c, 1, 65, 127
1, 23580, Note_on_c, 1, 49, 127
1, 23610, Note_on_c, 1, 66, 127
1, 23628, Note_off_c, 1, 68, 0
1, 23639, Note_off_c, 1, 65, 0
1, 23639, Note_off_c, 1, 49, 0
1, 23639, Note_off_c, 1, 66, 0
1, 23640, Note_on_c, 1, 78, 127
1, 23640, Note_on_c, 1, 73, 127
1, 23640, Note_on_c, 1, 66, 127
1, 23640, Note_on_c, 1, 69, 127
1, 23640, Note_on_c, 1, 45, 127
1, 23669, Note_off_c, 1, 73, 0
1, 23669, Note_off_c, 1, 69, 0
1, 23670, Note_on_c, 1, 71, 127
1, 23670, Note_on_c, 1, 68, 127
1, 23699, Note_off_c, 1, 78, 0
1, 23699, Note_off_c, 1, 66, 0
1, 23699, Note_off_c, 1, 45, 0
1, 23699, Note_off_c, 1, 71, 0
1, 23699, Note_off_c, 1, 68, 0
1, 23700, Note_on_c, 1, 73, 127
1, 23700, Note_on_c, 1, 69, 127
1, 23700, Note_on_c, 1, 68, 127
1, 23700, Note_on_c, 1, 66, 127
1, 23700, Note_on_c, 1, 49, 127
1, 23729, Note_off_c, 1, 69, 0
1, 23729, Note_off_c, 1, 66, 0
1, 23730, Note_on_c, 1, 65, 127
1, 23759, Note_off_c, 1, 73, 0
1, 23759, Note_off_c, 1, 68, 0
1, 23759, Note_off_c, 1, 49, 0
1, 23759, Note_off_c, 1, 65, 0
1, 23760, Note_on_c, 1, 73, 127
1, 23760, Note_on_c, 1, 66, 127
1, 23760, Note_on_c, 1, 71, 127
1, 23760, Note_on_c, 1, 42, 127
1, 23789, Note_off_c, 1, 71, 0
1, 23790, Note_on_c, 1, 69, 127
1, 23819, Note_off_c, 1, 42, 0
1, 23819, Note_off_c, 1, 69, 0
1, 23820, Note_on_c, 1, 61, 127
1, 23820, Note_on_c, 1, 45, 127
1, 23879, Note_off_c, 1, 73, 0
1, 23879, Note_off_c, 1, 66, 0
1, 23879, Note_off_c, 1, 61, 0
1, 23879, Note_off_c, 1, 45, 0
1, 23880, Note_on_c, 1, 73, 127
1, 23880, Note_on_c, 1, 71, 127
1, 23880, Note_on_c, 1, 65, 127
1, 23880, Note_on_c, 1, 69, 127
1, 23880, Note_on_c, 1, 49, 127
1, 23909, Note_off_c, 1, 69, 0
1, 23910, Note_on_c, 1, 68, 127
1, 23928, Note_off_c, 1, 73, 0
1, 23928, Note_off_c, 1, 71, 0
1, 23939, Note_off_c, 1, 65, 0
1, 23939, Note_off_c, 1, 49, 0
1, 23939, Note_off_c, 1, 68, 0
1, 23940, Note_on_c, 1, 73, 127
1, 23940, Note_on_c, 1, 69, 127
1, 23940, Note_on_c, 1, 61, 127
1, 23940, Note_on_c, 1, 66, 127
1, 23940, Note_on_c, 1, 54, 127
1, 23988, Note_off_c, 1, 73, 0
1, 23988, Note_off_c, 1, 61, 0
1, 23999, Note_off_c, 1, 66, 0
1, 24000, Note_on_c, 1, 72, 127
1, 24000, Note_on_c, 1, 64, 127
1, 24029, Note_off_c, 1, 72, 0
1, 24029, Note_off_c, 1, 64, 0
1, 24030, Note_on_c, 1, 71, 127
1, 24030, Note_on_c, 1, 63, 127
1, 24059, Note_off_c, 1, 54, 0
1, 24059, Note_off_c, 1, 71, 0
1, 24059, Note_off_c, 1, 63, 0
1, 24060, Note_on_c, 1, 78, 127
1, 24108, Note_off_c, 1, 78, 0
1, 24120, Note_on_c, 1, 81, 127
1, 24150, Note_off_c, 1, 69, 0
1, 24168, Note_off_c, 1, 81, 0
1, 24180, Note_on_c, 1, 78, 127
1, 24180, Note_on_c, 1, 66, 127
1, 24180, Note_on_c, 1, 69, 127
1, 24180, Note_on_c, 1, 51, 127
1, 24209, Note_off_c, 1, 78, 0
1, 24209, Note_off_c, 1, 69, 0
1, 24209, Note_off_c, 1, 51, 0
1, 24210, Note_on_c, 1, 76, 127
1, 24210, Note_on_c, 1, 67, 127
1, 24210, Note_on_c, 1, 52, 127
1, 24239, Note_off_c, 1, 66, 0
1, 24239, Note_off_c, 1, 76, 0
1, 24239, Note_off_c, 1, 67, 0
1, 24239, Note_off_c, 1, 52, 0
1, 24240, Note_on_c, 1, 75, 127
1, 24240, Note_on_c, 1, 69, 127
1, 24240, Note_on_c, 1, 81, 127
1, 24240, Note_on_c, 1, 72, 127
1, 24240, Note_on_c, 1, 66, 127
1, 24240, Note_on_c, 1, 54, 127
1, 24270, Note_on_c, 1, 64, 127
1, 24288, Note_off_c, 1, 81, 0
1, 24288, Note_off_c, 1, 72, 0
1, 24288, Note_off_c, 1, 66, 0
1, 24299, Note_off_c, 1, 75, 0
1, 24299, Note_off_c, 1, 69, 0
1, 24299, Note_off_c, 1, 54, 0
1, 24299, Note_off_c, 1, 64, 0
1, 24300, Note_on_c, 1, 75, 127
1, 24300, Note_on_c, 1, 71, 127
1, 24300, Note_on_c, 1, 66, 127
1, 24300, Note_on_c, 1, 69, 127
1, 24300, Note_on_c, 1, 47, 127
1, 24330, Note_on_c, 1, 63, 127
1, 24348, Note_off_c, 1, 75, 0
1, 24348, Note_off_c, 1, 71, 0
1, 24348, Note_off_c, 1, 66, 0
1, 24359, Note_off_c, 1, 69, 0
1, 24359, Note_off_c, 1, 47, 0
1, 24359, Note_off_c, 1, 63, 0
1, 24360, Note_on_c, 1, 76, 127
1, 24360, Note_on_c, 1, 67, 127
1, 24360, Note_on_c, 1, 71, 127
1, 24360, Note_on_c, 1, 49, 127
1, 24389, Note_off_c, 1, 67, 0
1, 24389, Note_off_c, 1, 71, 0
1, 24390, Note_on_c, 1, 69, 127
1, 24390, Note_on_c, 1, 66, 127
1, 24419, Note_off_c, 1, 76, 0
1, 24419, Note_off_c, 1, 49, 0
1, 24419, Note_off_c, 1, 69, 0
1, 24419, Note_off_c, 1, 66, 0
1, 24420, Note_on_c, 1, 71, 127
1, 24420, Note_on_c, 1, 67, 127
1, 24420, Note_on_c, 1, 64, 127
1, 24420, Note_on_c, 1, 51, 127
1, 24449, Note_off_c, 1, 67, 0
1, 24449, Note_off_c, 1, 64, 0
1, 24450, Note_on_c, 1, 66, 127
1, 24479, Note_off_c, 1, 71, 0
1, 24479, Note_off_c, 1, 51, 0
1, 24479, Note_off_c, 1, 66, 0
1, 24480, Note_on_c, 1, 67, 127
1, 24480, Note_on_c, 1, 64, 127
1, 24480, Note_on_c, 1, 59, 127
1, 24480, Note_on_c, 1, 52, 127
1, 24510, Note_on_c, 1, 66, 127
1, 24539, Note_off_c, 1, 52, 0
1, 24539, Note_off_c, 1, 66, 0
1, 24540, Note_on_c, 1, 69, 127
1, 24569, Note_off_c, 1, 69, 0
1, 24599, Note_off_c, 1, 67, 0
1, 24599, Note_off_c, 1, 64, 0
1, 24599, Note_off_c, 1, 59, 0
1, 24600, Note_on_c, 1, 76, 127
1, 24600, Note_on_c, 1, 71, 127
1, 24600, Note_on_c, 1, 67, 127
1, 24600, Note_on_c, 1, 66, 127
1, 24600, Note_on_c, 1, 59, 127
1, 24600, Note_on_c, 1, 50, 127
1, 24629, Note_off_c, 1, 66, 0
1, 24630, Note_on_c, 1, 64, 127
1, 24648, Note_off_c, 1, 76, 0
1, 24648, Note_off_c, 1, 67, 0
1, 24659, Note_off_c, 1, 71, 0
1, 24659, Note_off_c, 1, 59, 0
1, 24659, Note_off_c, 1, 50, 0
1, 24659, Note_off_c, 1, 64, 0
1, 24660, Note_on_c, 1, 76, 127
1, 24660, Note_on_c, 1, 64, 127
1, 24660, Note_on_c, 1, 67, 127
1, 24660, Note_on_c, 1, 71, 127
1, 24660, Note_on_c, 1, 61, 127
1, 24660, Note_on_c, 1, 49, 127
1, 24689, Note_off_c, 1, 71, 0
1, 24690, Note_on_c, 1, 70, 127
1, 24708, Note_off_c, 1, 64, 0
1, 24708, Note_off_c, 1, 67, 0
1, 24719, Note_off_c, 1, 61, 0
1, 24719, Note_off_c, 1, 70, 0
1, 24720, Note_on_c, 1, 73, 127
1, 24749, Note_off_c, 1, 73, 0
1, 24750, Note_on_c, 1, 74, 127
1, 24779, Note_off_c, 1, 76, 0
1, 24779, Note_off_c, 1, 49, 0
1, 24779, Note_off_c, 1, 74, 0
1, 24780, Note_on_c, 1, 73, 127
1, 24780, Note_on_c, 1, 76, 127
1, 24780, Note_on_c, 1, 67, 127
1, 24780, Note_on_c, 1, 61, 127
1, 24780, Note_on_c, 1, 70, 127
1, 24780, Note_on_c, 1, 47, 127
1, 24809, Note_off_c, 1, 70, 0
1, 24810, Note_on_c, 1, 68, 127
1, 24828, Note_off_c, 1, 61, 0
1, 24839, Note_off_c, 1, 73, 0
1, 24839, Note_off_c, 1, 76, 0
1, 24839, Note_off_c, 1, 67, 0
1, 24839, Note_off_c, 1, 47, 0
1, 24839, Note_off_c, 1, 68, 0
1, 24840, Note_on_c, 1, 73, 127
1, 24840, Note_on_c, 1, 67, 127
1, 24840, Note_on_c, 1, 64, 127
1, 24840, Note_on_c, 1, 76, 127
1, 24840, Note_on_c, 1, 66, 127
1, 24840, Note_on_c, 1, 46, 127
1, 24888, Note_off_c, 1, 67, 0
1, 24888, Note_off_c, 1, 64, 0
1, 24899, Note_off_c, 1, 76, 0
1, 24899, Note_off_c, 1, 66, 0
1, 24899, Note_off_c, 1, 46, 0
1, 24900, Note_on_c, 1, 82, 127
1, 24900, Note_on_c, 1, 49, 127
1, 24929, Note_off_c, 1, 82, 0
1, 24929, Note_off_c, 1, 49, 0
1, 24930, Note_on_c, 1, 83, 127
1, 24930, Note_on_c, 1, 74, 127
1, 24930, Note_on_c, 1, 62, 127
1, 24930, Note_on_c, 1, 47, 127
1, 24959, Note_off_c, 1, 83, 0
1, 24959, Note_off_c, 1, 74, 0
1, 24959, Note_off_c, 1, 62, 0
1, 24959, Note_off_c, 1, 47, 0
1, 24960, Note_on_c, 1, 85, 127
1, 24960, Note_on_c, 1, 61, 127
1, 24990, Note_on_c, 1, 44, 127
1, 25008, Note_off_c, 1, 61, 0
1, 25019, Note_off_c, 1, 85, 0
1, 25019, Note_off_c, 1, 44, 0
1, 25020, Note_on_c, 1, 70, 127
1, 25020, Note_on_c, 1, 42, 127
1, 25050, Note_off_c, 1, 73, 0
1, 25050, Note_on_c, 1, 71, 127
1, 25079, Note_off_c, 1, 70, 0
1, 25079, Note_off_c, 1, 42, 0
1, 25079, Note_off_c, 1, 71, 0
1, 25080, Note_on_c, 1, 78, 127
1, 25080, Note_on_c, 1, 71, 127
1, 25080, Note_on_c, 1, 74, 127
1, 25080, Note_on_c, 1, 62, 127
1, 25080, Note_on_c, 1, 38, 127
1, 25109, Note_off_c, 1, 78, 0
1, 25109, Note_off_c, 1, 74, 0
1, 25110, Note_on_c, 1, 76, 127
1, 25110, Note_on_c, 1, 73, 127
1, 25127, Note_off_c, 1, 38, 0
1, 25139, Note_off_c, 1, 71, 0
1, 25139, Note_off_c, 1, 62, 0
1, 25139, Note_off_c, 1, 76, 0
1, 25139, Note_off_c, 1, 73, 0
1, 25140, Note_on_c, 1, 74, 127
1, 25140, Note_on_c, 1, 66, 127
1, 25140, Note_on_c, 1, 73, 127
1, 25140, Note_on_c, 1, 71, 127
1, 25140, Note_on_c, 1, 42, 127
1, 25169, Note_off_c, 1, 74, 0
1, 25169, Note_off_c, 1, 71, 0
1, 25170, Note_on_c, 1, 70, 127
1, 25187, Note_off_c, 1, 42, 0
1, 25199, Note_off_c, 1, 66, 0
1, 25199, Note_off_c, 1, 73, 0
1, 25199, Note_off_c, 1, 70, 0
1, 25200, Note_on_c, 1, 71, 127
1, 25200, Note_on_c, 1, 66, 127
1, 25200, Note_on_c, 1, 76, 127
1, 25200, Note_on_c, 1, 59, 127
1, 25200, Note_on_c, 1, 47, 127
1, 25229, Note_off_c, 1, 76, 0
1, 25230, Note_on_c, 1, 74, 127
1, 25259, Note_off_c, 1, 59, 0
1, 25259, Note_off_c, 1, 47, 0
1, 25259, Note_off_c, 1, 74, 0
1, 25260, Note_on_c, 1, 78, 127
1, 25260, Note_on_c, 1, 50, 127
1, 25289, Note_off_c, 1, 78, 0
1, 25319, Note_off_c, 1, 71, 0
1, 25319, Note_off_c, 1, 66, 0
1, 25319, Note_off_c, 1, 50, 0
1, 25320, Note_on_c, 1, 78, 127
1, 25320, Note_on_c, 1, 70, 127
1, 25320, Note_on_c, 1, 61, 127
1, 25320, Note_on_c, 1, 74, 127
1, 25320, Note_on_c, 1, 54, 127
1, 25349, Note_off_c, 1, 74, 0
1, 25350, Note_on_c, 1, 73, 127
1, 25368, Note_off_c, 1, 78, 0
1, 25368, Note_off_c, 1, 61, 0
1, 25379, Note_off_c, 1, 70, 0
1, 25379, Note_off_c, 1, 54, 0
1, 25379, Note_off_c, 1, 73, 0
1, 25380, Note_on_c, 1, 78, 127
1, 25380, Note_on_c, 1, 74, 127
1, 25380, Note_on_c, 1, 54, 127
1, 25380, Note_on_c, 1, 71, 127
1, 25380, Note_on_c, 1, 59, 127
1, 25380, Note_on_c, 1, 52, 127
1, 25409, Note_off_c, 1, 52, 0
1, 25410, Note_on_c, 1, 50, 127
1, 25428, Note_off_c, 1, 78, 0
1, 25428, Note_off_c, 1, 54, 0
1, 25439, Note_off_c, 1, 71, 0
1, 25439, Note_off_c, 1, 50, 0
1, 25440, Note_on_c, 1, 69, 127
1, 25469, Note_off_c, 1, 69, 0
1, 25470, Note_on_c, 1, 73, 127
1, 25470, Note_on_c, 1, 68, 127
1, 25499, Note_off_c, 1, 59, 0
1, 25499, Note_off_c, 1, 73, 0
1, 25499, Note_off_c, 1, 68, 0
1, 25500, Note_on_c, 1, 66, 127
1, 25500, Note_on_c, 1, 49, 127
1, 25529, Note_off_c, 1, 49, 0
1, 25530, Note_on_c, 1, 47, 127
1, 25559, Note_off_c, 1, 66, 0
1, 25559, Note_off_c, 1, 47, 0
1, 25560, Note_on_c, 1, 76, 127
1, 25590, Note_off_c, 1, 74, 0
1, 25608, Note_off_c, 1, 76, 0
1, 25620, Note_on_c, 1, 83, 127
1, 25620, Note_on_c, 1, 56, 127
1, 25649, Note_off_c, 1, 83, 0
1, 25649, Note_off_c, 1, 56, 0
1, 25650, Note_on_c, 1, 81, 127
1, 25650, Note_on_c, 1, 57, 127
1, 25679, Note_off_c, 1, 81, 0
1, 25679, Note_off_c, 1, 57, 0
1, 25680, Note_on_c, 1, 80, 127
1, 25680, Note_on_c, 1, 71, 127
1, 25680, Note_on_c, 1, 74, 127
1, 25680, Note_on_c, 1, 66, 127
1, 25680, Note_on_c, 1, 59, 127
1, 25680, Note_on_c, 1, 54, 127
1, 25709, Note_off_c, 1, 80, 0
1, 25710, Note_on_c, 1, 78, 127
1, 25710, Note_on_c, 1, 69, 127
1, 25728, Note_off_c, 1, 71, 0
1, 25728, Note_off_c, 1, 66, 0
1, 25739, Note_off_c, 1, 74, 0
1, 25739, Note_off_c, 1, 59, 0
1, 25739, Note_off_c, 1, 54, 0
1, 25739, Note_off_c, 1, 78, 0
1, 25739, Note_off_c, 1, 69, 0
1, 25740, Note_on_c, 1, 76, 127
1, 25740, Note_on_c, 1, 71, 127
1, 25740, Note_on_c, 1, 74, 127
1, 25740, Note_on_c, 1, 64, 127
1, 25740, Note_on_c, 1, 52, 127
1, 25740, Note_on_c, 1, 56, 127
1, 25770, Note_on_c, 1, 68, 127
1, 25788, Note_off_c, 1, 71, 0
1, 25788, Note_off_c, 1, 64, 0
1, 25799, Note_off_c, 1, 76, 0
1, 25799, Note_off_c, 1, 74, 0
1, 25799, Note_off_c, 1, 52, 0
1, 25799, Note_off_c, 1, 56, 0
1, 25799, Note_off_c, 1, 68, 0
1, 25800, Note_on_c, 1, 69, 127
1, 25800, Note_on_c, 1, 76, 127
1, 25800, Note_on_c, 1, 54, 127
1, 25829, Note_off_c, 1, 76, 0
1, 25830, Note_on_c, 1, 74, 127
1, 25859, Note_off_c, 1, 69, 0
1, 25859, Note_off_c, 1, 54, 0
1, 25859, Note_off_c, 1, 74, 0
1, 25860, Note_on_c, 1, 76, 127
1, 25860, Note_on_c, 1, 73, 127
1, 25860, Note_on_c, 1, 68, 127
1, 25860, Note_on_c, 1, 56, 127
1, 25860, Note_on_c, 1, 52, 127
1, 25889, Note_off_c, 1, 73, 0
1, 25890, Note_on_c, 1, 71, 127
1, 25919, Note_off_c, 1, 76, 0
1, 25919, Note_off_c, 1, 68, 0
1, 25919, Note_off_c, 1, 56, 0
1, 25919, Note_off_c, 1, 52, 0
1, 25919, Note_off_c, 1, 71, 0
1, 25920, Note_on_c, 1, 73, 127
1, 25920, Note_on_c, 1, 69, 127
1, 25920, Note_on_c, 1, 76, 127
1, 25920, Note_on_c, 1, 57, 127
1, 25920, Note_on_c, 1, 45, 127
1, 25949, Note_off_c, 1, 73, 0
1, 25950, Note_on_c, 1, 71, 127
1, 25967, Note_off_c, 1, 45, 0
1, 25979, Note_off_c, 1, 69, 0
1, 25979, Note_off_c, 1, 76, 0
1, 25979, Note_off_c, 1, 57, 0
1, 25979, Note_off_c, 1, 71, 0
1, 25980, Note_on_c, 1, 74, 127
1, 25980, Note_on_c, 1, 64, 127
1, 25980, Note_on_c, 1, 69, 127
1, 25980, Note_on_c, 1, 57, 127
1, 26009, Note_off_c, 1, 74, 0
1, 26010, Note_on_c, 1, 73, 127
1, 26039, Note_off_c, 1, 64, 0
1, 26039, Note_off_c, 1, 69, 0
1, 26039, Note_off_c, 1, 57, 0
1, 26039, Note_off_c, 1, 73, 0
1, 26040, Note_on_c, 1, 76, 127
1, 26040, Note_on_c, 1, 71, 127
1, 26040, Note_on_c, 1, 67, 127
1, 26040, Note_on_c, 1, 64, 127
1, 26040, Note_on_c, 1, 55, 127
1, 26070, Note_on_c, 1, 69, 127
1, 26099, Note_off_c, 1, 76, 0
1, 26099, Note_off_c, 1, 71, 0
1, 26099, Note_off_c, 1, 67, 0
1, 26099, Note_off_c, 1, 64, 0
1, 26099, Note_off_c, 1, 55, 0
1, 26099, Note_off_c, 1, 69, 0
1, 26100, Note_on_c, 1, 81, 127
1, 26100, Note_on_c, 1, 76, 127
1, 26100, Note_on_c, 1, 72, 127
1, 26100, Note_on_c, 1, 69, 127
1, 26100, Note_on_c, 1, 66, 127
1, 26100, Note_on_c, 1, 54, 127
1, 26129, Note_off_c, 1, 76, 0
1, 26129, Note_off_c, 1, 72, 0
1, 26130, Note_on_c, 1, 75, 127
1, 26130, Note_on_c, 1, 71, 127
1, 26159, Note_off_c, 1, 69, 0
1, 26159, Note_off_c, 1, 66, 0
1, 26159, Note_off_c, 1, 75, 0
1, 26159, Note_off_c, 1, 71, 0
1, 26160, Note_on_c, 1, 78, 127
1, 26160, Note_on_c, 1, 60, 127
1, 26189, Note_off_c, 1, 78, 0
1, 26190, Note_on_c, 1, 67, 127
1, 26219, Note_off_c, 1, 54, 0
1, 26219, Note_off_c, 1, 60, 0
1, 26219, Note_off_c, 1, 67, 0
1, 26220, Note_on_c, 1, 52, 127
1, 26250, Note_on_c, 1, 73, 127
1, 26250, Note_on_c, 1, 64, 127
1, 26279, Note_off_c, 1, 52, 0
1, 26279, Note_off_c, 1, 73, 0
1, 26279, Note_off_c, 1, 64, 0
1, 26280, Note_on_c, 1, 51, 127
1, 26310, Note_off_c, 1, 81, 0
1, 26310, Note_on_c, 1, 79, 127
1, 26339, Note_off_c, 1, 51, 0
1, 26340, Note_off_c, 1, 79, 0
1, 26340, Note_on_c, 1, 63, 127
1, 26399, Note_off_c, 1, 63, 0
1, 26430, Note_on_c, 1, 49, 127
1, 26459, Note_off_c, 1, 49, 0
1, 26460, Note_on_c, 1, 83, 127
1, 26460, Note_on_c, 1, 47, 127
1, 26508, Note_off_c, 1, 83, 0
1, 26519, Note_off_c, 1, 47, 0
1, 26520, Note_on_c, 1, 43, 127
1, 26579, Note_off_c, 1, 43, 0
1, 26580, Note_on_c, 1, 59, 127
1, 26639, Note_off_c, 1, 59, 0
1, 26640, Note_on_c, 1, 40, 127
1, 26687, Note_off_c, 1, 40, 0
1, 26700, Note_on_c, 1, 55, 127
1, 26759, Note_off_c, 1, 55, 0
1, 26910, Note_on_c, 1, 74, 127
1, 26939, Note_off_c, 1, 74, 0
1, 26940, Note_on_c, 1, 62, 127
1, 26970, Note_on_c, 1, 50, 127
1, 26999, Note_off_c, 1, 62, 0
1, 26999, Note_off_c, 1, 50, 0
1, 27000, Note_on_c, 1, 61, 127
1, 27059, Note_off_c, 1, 61, 0
1, 27180, Note_on_c, 1, 57, 127
1, 27180, Note_on_c, 1, 45, 127
1, 27227, Note_off_c, 1, 45, 0
1, 27239, Note_off_c, 1, 57, 0
1, 27240, Note_on_c, 1, 42, 127
1, 27287, Note_off_c, 1, 42, 0
1, 27360, Note_on_c, 1, 38, 127
1, 27390, Note_off_c, 1, 38, 0
1, 27420, Note_on_c, 1, 76, 127
1, 27420, Note_on_c, 1, 69, 127
1, 27420, Note_on_c, 1, 66, 127
1, 27420, Note_on_c, 1, 50, 127
1, 27420, Note_on_c, 1, 54, 127
1, 27449, Note_off_c, 1, 76, 0
1, 27450, Note_on_c, 1, 74, 127
1, 27450, Note_on_c, 1, 49, 127
1, 27479, Note_off_c, 1, 69, 0
1, 27479, Note_off_c, 1, 66, 0
1, 27479, Note_off_c, 1, 50, 0
1, 27479, Note_off_c, 1, 54, 0
1, 27479, Note_off_c, 1, 74, 0
1, 27479, Note_off_c, 1, 49, 0
1, 27480, Note_on_c, 1, 78, 127
1, 27480, Note_on_c, 1, 62, 127
1, 27480, Note_on_c, 1, 71, 127
1, 27480, Note_on_c, 1, 59, 127
1, 27480, Note_on_c, 1, 50, 127
1, 27480, Note_on_c, 1, 47, 127
1, 27509, Note_off_c, 1, 47, 0
1, 27510, Note_on_c, 1, 45, 127
1, 27539, Note_off_c, 1, 78, 0
1, 27539, Note_off_c, 1, 71, 0
1, 27539, Note_off_c, 1, 59, 0
1, 27539, Note_off_c, 1, 50, 0
1, 27539, Note_off_c, 1, 45, 0
1, 27540, Note_on_c, 1, 55, 127
1, 27540, Note_on_c, 1, 43, 127
1, 27587, Note_off_c, 1, 43, 0
1, 27599, Note_off_c, 1, 62, 0
1, 27600, Note_on_c, 1, 76, 127
1, 27600, Note_on_c, 1, 64, 127
1, 27659, Note_off_c, 1, 55, 0
1, 27659, Note_off_c, 1, 76, 0
1, 27659, Note_off_c, 1, 64, 0
1, 27660, Note_on_c, 1, 74, 127
1, 27660, Note_on_c, 1, 69, 127
1, 27660, Note_on_c, 1, 66, 127
1, 27660, Note_on_c, 1, 54, 127
1, 27719, Note_off_c, 1, 74, 0
1, 27719, Note_off_c, 1, 69, 0
1, 27719, Note_off_c, 1, 66, 0
1, 27719, Note_off_c, 1, 54, 0
1, 27720, Note_on_c, 1, 79, 127
1, 27720, Note_on_c, 1, 67, 127
1, 27720, Note_on_c, 1, 52, 127
1, 27749, Note_off_c, 1, 67, 0
1, 27750, Note_on_c, 1, 61, 127
1, 27779, Note_off_c, 1, 79, 0
1, 27779, Note_off_c, 1, 52, 0
1, 27779, Note_off_c, 1, 61, 0
1, 27840, Note_on_c, 1, 76, 127
1, 27840, Note_on_c, 1, 70, 127
1, 27840, Note_on_c, 1, 64, 127
1, 27840, Note_on_c, 1, 49, 127
1, 27899, Note_off_c, 1, 76, 0
1, 27899, Note_off_c, 1, 70, 0
1, 27899, Note_off_c, 1, 64, 0
1, 27899, Note_off_c, 1, 49, 0
1, 27900, Note_on_c, 1, 74, 127
1, 27900, Note_on_c, 1, 71, 127
1, 27900, Note_on_c, 1, 66, 127
1, 27900, Note_on_c, 1, 47, 127
1, 27959, Note_off_c, 1, 74, 0
1, 27959, Note_off_c, 1, 71, 0
1, 27959, Note_off_c, 1, 66, 0
1, 27959, Note_off_c, 1, 47, 0
1, 27960, Note_on_c, 1, 76, 127
1, 27960, Note_on_c, 1, 73, 127
1, 27960, Note_on_c, 1, 67, 127
1, 27960, Note_on_c, 1, 52, 127
1, 27960, Note_on_c, 1, 40, 127
1, 28007, Note_off_c, 1, 40, 0
1, 28019, Note_off_c, 1, 76, 0
1, 28019, Note_off_c, 1, 73, 0
1, 28019, Note_off_c, 1, 67, 0
1, 28019, Note_off_c, 1, 52, 0
1, 28020, Note_on_c, 1, 73, 127
1, 28020, Note_on_c, 1, 70, 127
1, 28020, Note_on_c, 1, 66, 127
1, 28020, Note_on_c, 1, 54, 127
1, 28020, Note_on_c, 1, 42, 127
1, 28067, Note_off_c, 1, 42, 0
1, 28079, Note_off_c, 1, 73, 0
1, 28079, Note_off_c, 1, 70, 0
1, 28079, Note_off_c, 1, 66, 0
1, 28079, Note_off_c, 1, 54, 0
1, 28080, Note_on_c, 1, 71, 127
1, 28080, Note_on_c, 1, 62, 127
1, 28080, Note_on_c, 1, 47, 127
1, 28080, Note_on_c, 1, 44, 127
1, 28110, Note_on_c, 1, 74, 127
1, 28110, Note_on_c, 1, 56, 127
1, 28133, Note_off_c, 1, 74, 0
1, 28139, Note_off_c, 1, 71, 0
1, 28139, Note_off_c, 1, 62, 0
1, 28139, Note_off_c, 1, 47, 0
1, 28139, Note_off_c, 1, 56, 0
1, 28140, Note_off_c, 1, 44, 0
1, 28140, Note_on_c, 1, 65, 127
1, 28199, Note_off_c, 1, 65, 0
1, 28200, Note_on_c, 1, 77, 127
1, 28200, Note_on_c, 1, 74, 127
1, 28200, Note_on_c, 1, 71, 127
1, 28200, Note_on_c, 1, 56, 127
1, 28229, Note_off_c, 1, 71, 0
1, 28229, Note_off_c, 1, 56, 0
1, 28260, Note_on_c, 1, 42, 127
1, 28290, Note_on_c, 1, 54, 127
1, 28319, Note_off_c, 1, 77, 0
1, 28319, Note_off_c, 1, 74, 0
1, 28319, Note_off_c, 1, 54, 0
1, 28320, Note_off_c, 1, 42, 0
1, 28320, Note_on_c, 1, 80, 127
1, 28379, Note_off_c, 1, 80, 0
1, 28380, Note_on_c, 1, 83, 127
1, 28380, Note_on_c, 1, 74, 127
1, 28380, Note_on_c, 1, 71, 127
1, 28380, Note_on_c, 1, 54, 127
1, 28403, Note_off_c, 1, 71, 0
1, 28409, Note_off_c, 1, 54, 0
1, 28440, Note_on_c, 1, 68, 127
1, 28440, Note_on_c, 1, 41, 127
1, 28463, Note_off_c, 1, 68, 0
1, 28469, Note_off_c, 1, 83, 0
1, 28470, Note_on_c, 1, 86, 127
1, 28470, Note_on_c, 1, 65, 127
1, 28470, Note_on_c, 1, 53, 127
1, 28493, Note_off_c, 1, 65, 0
1, 28499, Note_off_c, 1, 74, 0
1, 28499, Note_off_c, 1, 86, 0
1, 28499, Note_off_c, 1, 53, 0
1, 28500, Note_off_c, 1, 41, 0
1, 28500, Note_on_c, 1, 85, 127
1, 28500, Note_on_c, 1, 61, 127
1, 28500, Note_on_c, 1, 73, 127
1, 28529, Note_off_c, 1, 85, 0
1, 28530, Note_on_c, 1, 82, 127
1, 28530, Note_on_c, 1, 70, 127
1, 28559, Note_off_c, 1, 61, 0
1, 28559, Note_off_c, 1, 73, 0
1, 28559, Note_off_c, 1, 82, 0
1, 28559, Note_off_c, 1, 70, 0
1, 28560, Note_on_c, 1, 83, 127
1, 28560, Note_on_c, 1, 73, 127
1, 28560, Note_on_c, 1, 68, 127
1, 28560, Note_on_c, 1, 61, 127
1, 28560, Note_on_c, 1, 71, 127
1, 28560, Note_on_c, 1, 53, 127
1, 28589, Note_off_c, 1, 68, 0
1, 28619, Note_off_c, 1, 73, 0
1, 28619, Note_off_c, 1, 61, 0
1, 28619, Note_off_c, 1, 71, 0
1, 28619, Note_off_c, 1, 53, 0
1, 28620, Note_on_c, 1, 74, 127
1, 28620, Note_on_c, 1, 66, 127
1, 28620, Note_on_c, 1, 54, 127
1, 28620, Note_on_c, 1, 42, 127
1, 28650, Note_on_c, 1, 76, 127
1, 28668, Note_off_c, 1, 42, 0
1, 28679, Note_off_c, 1, 83, 0
1, 28679, Note_off_c, 1, 74, 0
1, 28679, Note_off_c, 1, 66, 0
1, 28679, Note_off_c, 1, 76, 0
1, 28680, Note_on_c, 1, 78, 127
1, 28680, Note_on_c, 1, 59, 127
1, 28709, Note_off_c, 1, 78, 0
1, 28739, Note_off_c, 1, 54, 0
1, 28739, Note_off_c, 1, 59, 0
1, 28740, Note_on_c, 1, 74, 127
1, 28740, Note_on_c, 1, 71, 127
1, 28740, Note_on_c, 1, 66, 127
1, 28740, Note_on_c, 1, 54, 127
1, 28740, Note_on_c, 1, 42, 127
1, 28769, Note_off_c, 1, 74, 0
1, 28769, Note_off_c, 1, 71, 0
1, 28770, Note_on_c, 1, 73, 127
1, 28770, Note_on_c, 1, 70, 127
1, 28788, Note_off_c, 1, 42, 0
1, 28799, Note_off_c, 1, 66, 0
1, 28799, Note_off_c, 1, 54, 0
1, 28799, Note_off_c, 1, 73, 0
1, 28799, Note_off_c, 1, 70, 0
1, 28800, Note_on_c, 1, 71, 127
1, 28800, Note_on_c, 1, 62, 127
1, 28800, Note_on_c, 1, 47, 127
1, 28919, Note_off_c, 1, 71, 0
1, 28919, Note_off_c, 1, 62, 0
1, 28919, Note_off_c, 1, 47, 0
1, 28920, Note_on_c, 1, 69, 127
1, 28920, Note_on_c, 1, 62, 127
1, 28949, Note_off_c, 1, 62, 0
1, 28950, Note_on_c, 1, 64, 127
1, 28979, Note_off_c, 1, 69, 0
1, 28979, Note_off_c, 1, 64, 0
1, 28980, Note_on_c, 1, 74, 127
1, 28980, Note_on_c, 1, 66, 127
1, 29009, Note_off_c, 1, 66, 0
1, 29010, Note_on_c, 1, 64, 127
1, 29039, Note_off_c, 1, 64, 0
1, 29040, Note_on_c, 1, 69, 127
1, 29040, Note_on_c, 1, 62, 127
1, 29040, Note_on_c, 1, 67, 127
1, 29069, Note_off_c, 1, 67, 0
1, 29099, Note_off_c, 1, 74, 0
1, 29099, Note_off_c, 1, 69, 0
1, 29099, Note_off_c, 1, 62, 0
1, 29100, Note_on_c, 1, 69, 127
1, 29100, Note_on_c, 1, 74, 127
1, 29100, Note_on_c, 1, 66, 127
1, 29100, Note_on_c, 1, 64, 127
1, 29129, Note_off_c, 1, 64, 0
1, 29130, Note_on_c, 1, 62, 127
1, 29159, Note_off_c, 1, 69, 0
1, 29159, Note_off_c, 1, 74, 0
1, 29159, Note_off_c, 1, 66, 0
1, 29159, Note_off_c, 1, 62, 0
1, 29160, Note_on_c, 1, 76, 127
1, 29160, Note_on_c, 1, 61, 127
1, 29189, Note_off_c, 1, 61, 0
1, 29190, Note_on_c, 1, 59, 127
1, 29219, Note_off_c, 1, 59, 0
1, 29220, Note_on_c, 1, 69, 127
1, 29220, Note_on_c, 1, 64, 127
1, 29220, Note_on_c, 1, 62, 127
1, 29249, Note_off_c, 1, 62, 0
1, 29279, Note_off_c, 1, 76, 0
1, 29279, Note_off_c, 1, 69, 0
1, 29279, Note_off_c, 1, 64, 0
1, 29280, Note_on_c, 1, 69, 127
1, 29280, Note_on_c, 1, 76, 127
1, 29280, Note_on_c, 1, 73, 127
1, 29280, Note_on_c, 1, 59, 127
1, 29309, Note_off_c, 1, 59, 0
1, 29310, Note_on_c, 1, 57, 127
1, 29339, Note_off_c, 1, 69, 0
1, 29339, Note_off_c, 1, 76, 0
1, 29339, Note_off_c, 1, 73, 0
1, 29339, Note_off_c, 1, 57, 0
1, 29340, Note_on_c, 1, 78, 127
1, 29340, Note_on_c, 1, 62, 127
1, 29399, Note_off_c, 1, 78, 0
1, 29399, Note_off_c, 1, 62, 0
1, 29400, Note_on_c, 1, 76, 127
1, 29400, Note_on_c, 1, 74, 127
1, 29400, Note_on_c, 1, 71, 127
1, 29400, Note_on_c, 1, 55, 127
1, 29429, Note_off_c, 1, 76, 0
1, 29430, Note_on_c, 1, 78, 127
1, 29459, Note_off_c, 1, 74, 0
1, 29459, Note_off_c, 1, 71, 0
1, 29459, Note_off_c, 1, 55, 0
1, 29459, Note_off_c, 1, 78, 0
1, 29460, Note_on_c, 1, 79, 127
1, 29460, Note_on_c, 1, 73, 127
1, 29460, Note_on_c, 1, 69, 127
1, 29460, Note_on_c, 1, 57, 127
1, 29489, Note_off_c, 1, 79, 0
1, 29490, Note_on_c, 1, 76, 127
1, 29519, Note_off_c, 1, 73, 0
1, 29519, Note_off_c, 1, 69, 0
1, 29519, Note_off_c, 1, 57, 0
1, 29519, Note_off_c, 1, 76, 0
1, 29520, Note_on_c, 1, 79, 127
1, 29520, Note_on_c, 1, 74, 127
1, 29520, Note_on_c, 1, 69, 127
1, 29520, Note_on_c, 1, 62, 127
1, 29549, Note_off_c, 1, 79, 0
1, 29550, Note_on_c, 1, 78, 127
1, 29579, Note_off_c, 1, 74, 0
1, 29579, Note_off_c, 1, 69, 0
1, 29579, Note_off_c, 1, 62, 0
1, 29579, Note_off_c, 1, 78, 0
1, 29580, Note_on_c, 1, 76, 127
1, 29580, Note_on_c, 1, 69, 127
1, 29580, Note_on_c, 1, 66, 127
1, 29609, Note_off_c, 1, 76, 0
1, 29610, Note_on_c, 1, 74, 127
1, 29639, Note_off_c, 1, 69, 0
1, 29639, Note_off_c, 1, 66, 0
1, 29639, Note_off_c, 1, 74, 0
1, 29640, Note_on_c, 1, 78, 127
1, 29640, Note_on_c, 1, 69, 127
1, 29640, Note_on_c, 1, 62, 127
1, 29640, Note_on_c, 1, 50, 127
1, 29640, Note_on_c, 1, 66, 127
1, 29640, Note_on_c, 1, 38, 127
1, 29669, Note_off_c, 1, 78, 0
1, 29670, Note_on_c, 1, 76, 127
1, 29687, Note_off_c, 1, 38, 0
1, 29699, Note_off_c, 1, 69, 0
1, 29699, Note_off_c, 1, 62, 0
1, 29699, Note_off_c, 1, 50, 0
1, 29699, Note_off_c, 1, 66, 0
1, 29699, Note_off_c, 1, 76, 0
1, 29700, Note_on_c, 1, 79, 127
1, 29700, Note_on_c, 1, 74, 127
1, 29700, Note_on_c, 1, 69, 127
1, 29700, Note_on_c, 1, 50, 127
1, 29700, Note_on_c, 1, 66, 127
1, 29700, Note_on_c, 1, 62, 127
1, 29729, Note_off_c, 1, 79, 0
1, 29730, Note_on_c, 1, 78, 127
1, 29759, Note_off_c, 1, 50, 0
1, 29759, Note_off_c, 1, 78, 0
1, 29760, Note_on_c, 1, 76, 127
1, 29760, Note_on_c, 1, 54, 127
1, 29789, Note_off_c, 1, 76, 0
1, 29807, Note_off_c, 1, 54, 0
1, 29819, Note_off_c, 1, 74, 0
1, 29819, Note_off_c, 1, 69, 0
1, 29819, Note_off_c, 1, 66, 0
1, 29819, Note_off_c, 1, 62, 0
1, 29820, Note_on_c, 1, 78, 127
1, 29820, Note_on_c, 1, 69, 127
1, 29820, Note_on_c, 1, 74, 127
1, 29820, Note_on_c, 1, 50, 127
1, 29820, Note_on_c, 1, 66, 127
1, 29849, Note_off_c, 1, 78, 0
1, 29850, Note_on_c, 1, 76, 127
1, 29879, Note_off_c, 1, 69, 0
1, 29879, Note_off_c, 1, 74, 0
1, 29879, Note_off_c, 1, 50, 0
1, 29879, Note_off_c, 1, 66, 0
1, 29879, Note_off_c, 1, 76, 0
1, 29880, Note_on_c, 1, 79, 127
1, 29880, Note_on_c, 1, 76, 127
1, 29880, Note_on_c, 1, 69, 127
1, 29880, Note_on_c, 1, 45, 127
1, 29880, Note_on_c, 1, 64, 127
1, 29880, Note_on_c, 1, 49, 127
1, 29909, Note_off_c, 1, 79, 0
1, 29910, Note_on_c, 1, 78, 127
1, 29939, Note_off_c, 1, 45, 0
1, 29939, Note_off_c, 1, 49, 0
1, 29939, Note_off_c, 1, 78, 0
1, 29940, Note_on_c, 1, 57, 127
1, 29970, Note_on_c, 1, 74, 127
1, 29999, Note_off_c, 1, 76, 0
1, 29999, Note_off_c, 1, 69, 0
1, 29999, Note_off_c, 1, 64, 0
1, 29999, Note_off_c, 1, 57, 0
1, 29999, Note_off_c, 1, 74, 0
1, 30000, Note_on_c, 1, 78, 127
1, 30000, Note_on_c, 1, 69, 127
1, 30000, Note_on_c, 1, 45, 127
1, 30000, Note_on_c, 1, 64, 127
1, 30000, Note_on_c, 1, 49, 127
1, 30029, Note_off_c, 1, 78, 0
1, 30030, Note_on_c, 1, 76, 127
1, 30059, Note_off_c, 1, 69, 0
1, 30059, Note_off_c, 1, 45, 0
1, 30059, Note_off_c, 1, 64, 0
1, 30059, Note_off_c, 1, 49, 0
1, 30059, Note_off_c, 1, 76, 0
1, 30060, Note_on_c, 1, 74, 127
1, 30060, Note_on_c, 1, 78, 127
1, 30060, Note_on_c, 1, 69, 127
1, 30060, Note_on_c, 1, 50, 127
1, 30060, Note_on_c, 1, 81, 127
1, 30060, Note_on_c, 1, 57, 127
1, 30060, Note_on_c, 1, 62, 127
1, 30107, Note_off_c, 1, 57, 0
1, 30119, Note_off_c, 1, 74, 0
1, 30119, Note_off_c, 1, 78, 0
1, 30119, Note_off_c, 1, 50, 0
1, 30119, Note_off_c, 1, 81, 0
1, 30120, Note_on_c, 1, 86, 127
1, 30120, Note_on_c, 1, 76, 127
1, 30120, Note_on_c, 1, 45, 127
1, 30120, Note_on_c, 1, 79, 127
1, 30149, Note_off_c, 1, 76, 0
1, 30149, Note_off_c, 1, 45, 0
1, 30149, Note_off_c, 1, 79, 0
1, 30179, Note_off_c, 1, 69, 0
1, 30179, Note_off_c, 1, 62, 0
1, 30179, Note_off_c, 1, 86, 0
1, 30180, Note_on_c, 1, 85, 127
1, 30180, Note_on_c, 1, 79, 127
1, 30180, Note_on_c, 1, 69, 127
1, 30180, Note_on_c, 1, 45, 127
1, 30180, Note_on_c, 1, 76, 127
1, 30180, Note_on_c, 1, 64, 127
1, 30180, Note_on_c, 1, 61, 127
1, 30209, Note_off_c, 1, 79, 0
1, 30209, Note_off_c, 1, 76, 0
1, 30210, Note_on_c, 1, 78, 127
1, 30210, Note_on_c, 1, 73, 127
1, 30227, Note_off_c, 1, 64, 0
1, 30239, Note_off_c, 1, 85, 0
1, 30239, Note_off_c, 1, 69, 0
1, 30239, Note_off_c, 1, 45, 0
1, 30239, Note_off_c, 1, 61, 0
1, 30239, Note_off_c, 1, 78, 0
1, 30239, Note_off_c, 1, 73, 0
1, 30240, Note_on_c, 1, 86, 127
1, 30240, Note_on_c, 1, 79, 127
1, 30240, Note_on_c, 1, 69, 127
1, 30240, Note_on_c, 1, 50, 127
1, 30240, Note_on_c, 1, 74, 127
1, 30240, Note_on_c, 1, 62, 127
1, 30269, Note_off_c, 1, 79, 0
1, 30270, Note_on_c, 1, 78, 127
1, 30299, Note_off_c, 1, 86, 0
1, 30299, Note_off_c, 1, 69, 0
1, 30299, Note_off_c, 1, 50, 0
1, 30299, Note_off_c, 1, 74, 0
1, 30299, Note_off_c, 1, 62, 0
1, 30299, Note_off_c, 1, 78, 0
1, 30300, Note_on_c, 1, 81, 127
1, 30300, Note_on_c, 1, 76, 127
1, 30300, Note_on_c, 1, 66, 127
1, 30300, Note_on_c, 1, 50, 127
1, 30300, Note_on_c, 1, 69, 127
1, 30300, Note_on_c, 1, 57, 127
1, 30300, Note_on_c, 1, 49, 127
1, 30329, Note_off_c, 1, 76, 0
1, 30330, Note_on_c, 1, 74, 127
1, 30347, Note_off_c, 1, 69, 0
1, 30347, Note_off_c, 1, 49, 0
1, 30359, Note_off_c, 1, 81, 0
1, 30359, Note_off_c, 1, 66, 0
1, 30359, Note_off_c, 1, 50, 0
1, 30359, Note_off_c, 1, 57, 0
1, 30359, Note_off_c, 1, 74, 0
1, 30360, Note_on_c, 1, 78, 127
1, 30360, Note_on_c, 1, 62, 127
1, 30360, Note_on_c, 1, 47, 127
1, 30389, Note_off_c, 1, 78, 0
1, 30390, Note_on_c, 1, 74, 127
1, 30407, Note_off_c, 1, 47, 0
1, 30419, Note_off_c, 1, 62, 0
1, 30419, Note_off_c, 1, 74, 0
1, 30420, Note_on_c, 1, 78, 127
1, 30420, Note_on_c, 1, 69, 127
1, 30420, Note_on_c, 1, 49, 127
1, 30449, Note_off_c, 1, 78, 0
1, 30450, Note_on_c, 1, 76, 127
1, 30467, Note_off_c, 1, 49, 0
1, 30479, Note_off_c, 1, 76, 0
1, 30480, Note_on_c, 1, 74, 127
1, 30480, Note_on_c, 1, 47, 127
1, 30509, Note_off_c, 1, 74, 0
1, 30510, Note_on_c, 1, 73, 127
1, 30527, Note_off_c, 1, 47, 0
1, 30539, Note_off_c, 1, 69, 0
1, 30539, Note_off_c, 1, 73, 0
1, 30540, Note_on_c, 1, 76, 127
1, 30540, Note_on_c, 1, 64, 127
1, 30540, Note_on_c, 1, 45, 127
1, 30569, Note_off_c, 1, 76, 0
1, 30570, Note_on_c, 1, 73, 127
1, 30587, Note_off_c, 1, 45, 0
1, 30599, Note_off_c, 1, 64, 0
1, 30599, Note_off_c, 1, 73, 0
1, 30600, Note_on_c, 1, 76, 127
1, 30600, Note_on_c, 1, 71, 127
1, 30600, Note_on_c, 1, 44, 127
1, 30629, Note_off_c, 1, 76, 0
1, 30630, Note_on_c, 1, 74, 127
1, 30647, Note_off_c, 1, 44, 0
1, 30659, Note_off_c, 1, 74, 0
1, 30660, Note_on_c, 1, 73, 127
1, 30660, Note_on_c, 1, 52, 127
1, 30689, Note_off_c, 1, 73, 0
1, 30707, Note_off_c, 1, 52, 0
1, 30719, Note_off_c, 1, 71, 0
1, 30720, Note_on_c, 1, 74, 127
1, 30720, Note_on_c, 1, 64, 127
1, 30720, Note_on_c, 1, 44, 127
1, 30749, Note_off_c, 1, 74, 0
1, 30750, Note_on_c, 1, 71, 127
1, 30767, Note_off_c, 1, 44, 0
1, 30779, Note_off_c, 1, 64, 0
1, 30779, Note_off_c, 1, 71, 0
1, 30780, Note_on_c, 1, 76, 127
1, 30780, Note_on_c, 1, 73, 127
1, 30780, Note_on_c, 1, 45, 127
1, 30827, Note_off_c, 1, 45, 0
1, 30839, Note_off_c, 1, 76, 0
1, 30839, Note_off_c, 1, 73, 0
1, 30840, Note_on_c, 1, 74, 127
1, 30840, Note_on_c, 1, 71, 127
1, 30840, Note_on_c, 1, 50, 127
1, 30869, Note_off_c, 1, 74, 0
1, 30869, Note_off_c, 1, 71, 0
1, 30870, Note_on_c, 1, 73, 127
1, 30887, Note_off_c, 1, 50, 0
1, 30899, Note_off_c, 1, 73, 0
1, 30900, Note_on_c, 1, 71, 127
1, 30900, Note_on_c, 1, 74, 127
1, 30900, Note_on_c, 1, 52, 127
1, 30929, Note_off_c, 1, 71, 0
1, 30929, Note_off_c, 1, 74, 0
1, 30930, Note_on_c, 1, 73, 127
1, 30947, Note_off_c, 1, 52, 0
1, 30959, Note_off_c, 1, 73, 0
1, 30960, Note_on_c, 1, 69, 127
1, 30960, Note_on_c, 1, 74, 127
1, 30960, Note_on_c, 1, 45, 127
1, 30989, Note_off_c, 1, 74, 0
1, 30990, Note_on_c, 1, 73, 127
1, 31007, Note_off_c, 1, 45, 0
1, 31019, Note_off_c, 1, 69, 0
1, 31019, Note_off_c, 1, 73, 0
1, 31020, Note_on_c, 1, 73, 127
1, 31020, Note_on_c, 1, 71, 127
1, 31020, Note_on_c, 1, 57, 127
1, 31049, Note_off_c, 1, 71, 0
1, 31050, Note_on_c, 1, 69, 127
1, 31067, Note_off_c, 1, 57, 0
1, 31079, Note_off_c, 1, 73, 0
1, 31079, Note_off_c, 1, 69, 0
1, 31080, Note_on_c, 1, 76, 127
1, 31080, Note_on_c, 1, 73, 127
1, 31080, Note_on_c, 1, 57, 127
1, 31080, Note_on_c, 1, 55, 127
1, 31109, Note_off_c, 1, 73, 0
1, 31110, Note_on_c, 1, 69, 127
1, 31127, Note_off_c, 1, 55, 0
1, 31139, Note_off_c, 1, 76, 0
1, 31139, Note_off_c, 1, 57, 0
1, 31139, Note_off_c, 1, 69, 0
1, 31140, Note_on_c, 1, 74, 127
1, 31140, Note_on_c, 1, 71, 127
1, 31140, Note_on_c, 1, 62, 127
1, 31140, Note_on_c, 1, 54, 127
1, 31169, Note_off_c, 1, 71, 0
1, 31170, Note_on_c, 1, 69, 127
1, 31187, Note_off_c, 1, 54, 0
1, 31199, Note_off_c, 1, 74, 0
1, 31199, Note_off_c, 1, 69, 0
1, 31200, Note_on_c, 1, 76, 127
1, 31200, Note_on_c, 1, 67, 127
1, 31200, Note_on_c, 1, 52, 127
1, 31229, Note_off_c, 1, 67, 0
1, 31230, Note_on_c, 1, 66, 127
1, 31247, Note_off_c, 1, 52, 0
1, 31259, Note_off_c, 1, 62, 0
1, 31259, Note_off_c, 1, 76, 0
1, 31259, Note_off_c, 1, 66, 0
1, 31260, Note_on_c, 1, 78, 127
1, 31260, Note_on_c, 1, 69, 127
1, 31260, Note_on_c, 1, 57, 127
1, 31260, Note_on_c, 1, 50, 127
1, 31289, Note_off_c, 1, 69, 0
1, 31290, Note_on_c, 1, 66, 127
1, 31307, Note_off_c, 1, 50, 0
1, 31319, Note_off_c, 1, 78, 0
1, 31319, Note_off_c, 1, 57, 0
1, 31319, Note_off_c, 1, 66, 0
1, 31320, Note_on_c, 1, 76, 127
1, 31320, Note_on_c, 1, 69, 127
1, 31320, Note_on_c, 1, 64, 127
1, 31320, Note_on_c, 1, 49, 127
1, 31349, Note_off_c, 1, 69, 0
1, 31350, Note_on_c, 1, 67, 127
1, 31367, Note_off_c, 1, 49, 0
1, 31379, Note_off_c, 1, 76, 0
1, 31379, Note_off_c, 1, 67, 0
1, 31380, Note_on_c, 1, 74, 127
1, 31380, Note_on_c, 1, 66, 127
1, 31380, Note_on_c, 1, 57, 127
1, 31409, Note_off_c, 1, 74, 0
1, 31409, Note_off_c, 1, 66, 0
1, 31410, Note_on_c, 1, 73, 127
1, 31427, Note_off_c, 1, 57, 0
1, 31439, Note_off_c, 1, 64, 0
1, 31439, Note_off_c, 1, 73, 0
1, 31440, Note_on_c, 1, 76, 127
1, 31440, Note_on_c, 1, 67, 127
1, 31440, Note_on_c, 1, 57, 127
1, 31440, Note_on_c, 1, 49, 127
1, 31469, Note_off_c, 1, 67, 0
1, 31470, Note_on_c, 1, 64, 127
1, 31487, Note_off_c, 1, 49, 0
1, 31499, Note_off_c, 1, 76, 0
1, 31499, Note_off_c, 1, 57, 0
1, 31499, Note_off_c, 1, 64, 0
1, 31500, Note_on_c, 1, 74, 127
1, 31500, Note_on_c, 1, 69, 127
1, 31500, Note_on_c, 1, 66, 127
1, 31500, Note_on_c, 1, 50, 127
1, 31547, Note_off_c, 1, 50, 0
1, 31559, Note_off_c, 1, 74, 0
1, 31559, Note_off_c, 1, 69, 0
1, 31559, Note_off_c, 1, 66, 0
1, 31560, Note_on_c, 1, 76, 127
1, 31560, Note_on_c, 1, 67, 127
1, 31560, Note_on_c, 1, 64, 127
1, 31560, Note_on_c, 1, 43, 127
1, 31589, Note_off_c, 1, 67, 0
1, 31589, Note_off_c, 1, 64, 0
1, 31590, Note_on_c, 1, 66, 127
1, 31607, Note_off_c, 1, 43, 0
1, 31619, Note_off_c, 1, 76, 0
1, 31619, Note_off_c, 1, 66, 0
1, 31620, Note_on_c, 1, 73, 127
1, 31620, Note_on_c, 1, 64, 127
1, 31620, Note_on_c, 1, 67, 127
1, 31620, Note_on_c, 1, 45, 127
1, 31649, Note_off_c, 1, 64, 0
1, 31649, Note_off_c, 1, 67, 0
1, 31650, Note_on_c, 1, 66, 127
1, 31667, Note_off_c, 1, 45, 0
1, 31679, Note_off_c, 1, 73, 0
1, 31679, Note_off_c, 1, 66, 0
1, 31680, Note_on_c, 1, 74, 127
1, 31680, Note_on_c, 1, 62, 127
1, 31680, Note_on_c, 1, 67, 127
1, 31680, Note_on_c, 1, 50, 127
1, 31709, Note_off_c, 1, 67, 0
1, 31710, Note_on_c, 1, 66, 127
1, 31727, Note_off_c, 1, 50, 0
1, 31739, Note_off_c, 1, 62, 0
1, 31739, Note_off_c, 1, 66, 0
1, 31740, Note_on_c, 1, 64, 127
1, 31740, Note_on_c, 1, 38, 127
1, 31769, Note_off_c, 1, 64, 0
1, 31787, Note_off_c, 1, 38, 0
1, 31800, Note_on_c, 1, 69, 127
1, 31860, Note_on_c, 1, 57, 127
1, 31890, Note_off_c, 1, 74, 0
1, 31890, Note_on_c, 1, 73, 127
1, 31919, Note_off_c, 1, 69, 0
1, 31919, Note_off_c, 1, 73, 0
1, 31920, Note_on_c, 1, 71, 127
1, 31950, Note_on_c, 1, 61, 127
1, 31979, Note_off_c, 1, 57, 0
1, 31979, Note_off_c, 1, 71, 0
1, 31979, Note_off_c, 1, 61, 0
1, 31980, Note_on_c, 1, 69, 127
1, 31980, Note_on_c, 1, 73, 127
1, 31980, Note_on_c, 1, 64, 127
1, 31980, Note_on_c, 1, 52, 127
1, 32009, Note_off_c, 1, 69, 0
1, 32009, Note_off_c, 1, 64, 0
1, 32010, Note_on_c, 1, 71, 127
1, 32010, Note_on_c, 1, 61, 127
1, 32039, Note_off_c, 1, 73, 0
1, 32039, Note_off_c, 1, 52, 0
1, 32039, Note_off_c, 1, 71, 0
1, 32039, Note_off_c, 1, 61, 0
1, 32040, Note_on_c, 1, 68, 127
1, 32040, Note_on_c, 1, 71, 127
1, 32040, Note_on_c, 1, 64, 127
1, 32040, Note_on_c, 1, 59, 127
1, 32069, Note_off_c, 1, 64, 0
1, 32070, Note_on_c, 1, 62, 127
1, 32099, Note_off_c, 1, 68, 0
1, 32099, Note_off_c, 1, 71, 0
1, 32099, Note_off_c, 1, 62, 0
1, 32100, Note_on_c, 1, 69, 127
1, 32100, Note_on_c, 1, 61, 127
1, 32129, Note_off_c, 1, 69, 0
1, 32129, Note_off_c, 1, 61, 0
1, 32159, Note_off_c, 1, 59, 0
1, 32160, Note_on_c, 1, 68, 127
1, 32160, Note_on_c, 1, 71, 127
1, 32160, Note_on_c, 1, 62, 127
1, 32160, Note_on_c, 1, 52, 127
1, 32189, Note_off_c, 1, 62, 0
1, 32190, Note_on_c, 1, 59, 127
1, 32219, Note_off_c, 1, 68, 0
1, 32219, Note_off_c, 1, 71, 0
1, 32219, Note_off_c, 1, 52, 0
1, 32219, Note_off_c, 1, 59, 0
1, 32220, Note_on_c, 1, 69, 127
1, 32220, Note_on_c, 1, 64, 127
1, 32220, Note_on_c, 1, 61, 127
1, 32279, Note_off_c, 1, 69, 0
1, 32279, Note_off_c, 1, 64, 0
1, 32279, Note_off_c, 1, 61, 0
1, 32280, Note_on_c, 1, 78, 127
1, 32280, Note_on_c, 1, 71, 127
1, 32280, Note_on_c, 1, 62, 127
1, 32280, Note_on_c, 1, 59, 127
1, 32309, Note_off_c, 1, 62, 0
1, 32309, Note_off_c, 1, 59, 0
1, 32310, Note_on_c, 1, 61, 127
1, 32339, Note_off_c, 1, 78, 0
1, 32339, Note_off_c, 1, 71, 0
1, 32339, Note_off_c, 1, 61, 0
1, 32340, Note_on_c, 1, 76, 127
1, 32340, Note_on_c, 1, 68, 127
1, 32340, Note_on_c, 1, 59, 127
1, 32340, Note_on_c, 1, 62, 127
1, 32369, Note_off_c, 1, 59, 0
1, 32369, Note_off_c, 1, 62, 0
1, 32370, Note_on_c, 1, 61, 127
1, 32399, Note_off_c, 1, 68, 0
1, 32399, Note_off_c, 1, 61, 0
1, 32400, Note_on_c, 1, 69, 127
1, 32400, Note_on_c, 1, 57, 127
1, 32459, Note_off_c, 1, 76, 0
1, 32459, Note_off_c, 1, 69, 0
1, 32459, Note_off_c, 1, 57, 0
1, 32460, Note_on_c, 1, 74, 127
1, 32460, Note_on_c, 1, 64, 127
1, 32460, Note_on_c, 1, 61, 127
1, 32460, Note_on_c, 1, 59, 127
1, 32460, Note_on_c, 1, 57, 127
1, 32489, Note_off_c, 1, 74, 0
1, 32489, Note_off_c, 1, 59, 0
1, 32490, Note_on_c, 1, 73, 127
1, 32519, Note_off_c, 1, 64, 0
1, 32519, Note_off_c, 1, 61, 0
1, 32519, Note_off_c, 1, 57, 0
1, 32519, Note_off_c, 1, 73, 0
1, 32520, Note_on_c, 1, 69, 127
1, 32520, Note_on_c, 1, 71, 127
1, 32520, Note_on_c, 1, 64, 127
1, 32520, Note_on_c, 1, 61, 127
1, 32520, Note_on_c, 1, 55, 127
1, 32549, Note_off_c, 1, 71, 0
1, 32579, Note_off_c, 1, 69, 0
1, 32579, Note_off_c, 1, 64, 0
1, 32579, Note_off_c, 1, 61, 0
1, 32579, Note_off_c, 1, 55, 0
1, 32580, Note_on_c, 1, 74, 127
1, 32580, Note_on_c, 1, 69, 127
1, 32580, Note_on_c, 1, 66, 127
1, 32580, Note_on_c, 1, 62, 127
1, 32580, Note_on_c, 1, 54, 127
1, 32609, Note_off_c, 1, 66, 0
1, 32610, Note_on_c, 1, 67, 127
1, 32639, Note_off_c, 1, 54, 0
1, 32639, Note_off_c, 1, 67, 0
1, 32640, Note_on_c, 1, 52, 127
1, 32699, Note_off_c, 1, 74, 0
1, 32699, Note_off_c, 1, 62, 0
1, 32699, Note_off_c, 1, 52, 0
1, 32700, Note_on_c, 1, 50, 127
1, 32759, Note_off_c, 1, 50, 0
1, 32760, Note_on_c, 1, 76, 127
1, 32760, Note_on_c, 1, 45, 127
1, 32760, Note_on_c, 1, 64, 127
1, 32760, Note_on_c, 1, 57, 127
1, 32760, Note_on_c, 1, 49, 127
1, 32790, Note_on_c, 1, 71, 127
1, 32819, Note_off_c, 1, 45, 0
1, 32819, Note_off_c, 1, 64, 0
1, 32819, Note_off_c, 1, 57, 0
1, 32819, Note_off_c, 1, 49, 0
1, 32819, Note_off_c, 1, 71, 0
1, 32820, Note_on_c, 1, 73, 127
1, 32820, Note_on_c, 1, 61, 127
1, 32849, Note_off_c, 1, 73, 0
1, 32879, Note_off_c, 1, 69, 0
1, 32879, Note_off_c, 1, 76, 0
1, 32879, Note_off_c, 1, 61, 0
1, 32880, Note_on_c, 1, 69, 127
1, 32880, Note_on_c, 1, 76, 127
1, 32880, Note_on_c, 1, 45, 127
1, 32880, Note_on_c, 1, 61, 127
1, 32880, Note_on_c, 1, 64, 127
1, 32880, Note_on_c, 1, 49, 127
1, 32927, Note_off_c, 1, 61, 0
1, 32939, Note_off_c, 1, 69, 0
1, 32939, Note_off_c, 1, 76, 0
1, 32939, Note_off_c, 1, 45, 0
1, 32939, Note_off_c, 1, 64, 0
1, 32939, Note_off_c, 1, 49, 0
1, 32940, Note_on_c, 1, 78, 127
1, 32940, Note_on_c, 1, 74, 127
1, 32940, Note_on_c, 1, 69, 127
1, 32940, Note_on_c, 1, 50, 127
1, 32940, Note_on_c, 1, 62, 127
1, 32999, Note_off_c, 1, 78, 0
1, 32999, Note_off_c, 1, 74, 0
1, 32999, Note_off_c, 1, 50, 0
1, 33000, Note_on_c, 1, 76, 127
1, 33000, Note_on_c, 1, 45, 127
1, 33000, Note_on_c, 1, 57, 127
1, 33029, Note_off_c, 1, 76, 0
1, 33029, Note_off_c, 1, 45, 0
1, 33059, Note_off_c, 1, 69, 0
1, 33059, Note_off_c, 1, 62, 0
1, 33059, Note_off_c, 1, 57, 0
1, 33060, Note_on_c, 1, 79, 127
1, 33060, Note_on_c, 1, 76, 127
1, 33060, Note_on_c, 1, 69, 127
1, 33060, Note_on_c, 1, 45, 127
1, 33060, Note_on_c, 1, 61, 127
1, 33060, Note_on_c, 1, 57, 127
1, 33089, Note_off_c, 1, 79, 0
1, 33089, Note_off_c, 1, 76, 0
1, 33090, Note_on_c, 1, 73, 127
1, 33107, Note_off_c, 1, 57, 0
1, 33119, Note_off_c, 1, 69, 0
1, 33119, Note_off_c, 1, 45, 0
1, 33119, Note_off_c, 1, 61, 0
1, 33119, Note_off_c, 1, 73, 0
1, 33120, Note_on_c, 1, 79, 127
1, 33120, Note_on_c, 1, 74, 127
1, 33120, Note_on_c, 1, 69, 127
1, 33120, Note_on_c, 1, 50, 127
1, 33120, Note_on_c, 1, 57, 127
1, 33149, Note_off_c, 1, 79, 0
1, 33150, Note_on_c, 1, 78, 127
1, 33179, Note_off_c, 1, 74, 0
1, 33179, Note_off_c, 1, 69, 0
1, 33179, Note_off_c, 1, 50, 0
1, 33179, Note_off_c, 1, 57, 0
1, 33179, Note_off_c, 1, 78, 0
1, 33180, Note_on_c, 1, 76, 127
1, 33180, Note_on_c, 1, 69, 127
1, 33180, Note_on_c, 1, 66, 127
1, 33180, Note_on_c, 1, 50, 127
1, 33180, Note_on_c, 1, 57, 127
1, 33180, Note_on_c, 1, 42, 127
1, 33209, Note_off_c, 1, 76, 0
1, 33210, Note_on_c, 1, 74, 127
1, 33227, Note_off_c, 1, 42, 0
1, 33239, Note_off_c, 1, 69, 0
1, 33239, Note_off_c, 1, 66, 0
1, 33239, Note_off_c, 1, 50, 0
1, 33239, Note_off_c, 1, 57, 0
1, 33239, Note_off_c, 1, 74, 0
1, 33240, Note_on_c, 1, 52, 127
1, 33240, Note_on_c, 1, 43, 127
1, 33287, Note_off_c, 1, 43, 0
1, 33299, Note_off_c, 1, 52, 0
1, 33300, Note_on_c, 1, 54, 127
1, 33300, Note_on_c, 1, 38, 127
1, 33347, Note_off_c, 1, 38, 0
1, 33359, Note_off_c, 1, 54, 0
1, 33360, Note_on_c, 1, 67, 127
1, 33360, Note_on_c, 1, 59, 127
1, 33360, Note_on_c, 1, 43, 127
1, 33389, Note_off_c, 1, 59, 0
1, 33389, Note_off_c, 1, 43, 0
1, 33390, Note_on_c, 1, 57, 127
1, 33390, Note_on_c, 1, 42, 127
1, 33419, Note_off_c, 1, 67, 0
1, 33419, Note_off_c, 1, 57, 0
1, 33419, Note_off_c, 1, 42, 0
1, 33420, Note_on_c, 1, 71, 127
1, 33420, Note_on_c, 1, 55, 127
1, 33420, Note_on_c, 1, 43, 127
1, 33449, Note_off_c, 1, 55, 0
1, 33450, Note_on_c, 1, 54, 127
1, 33479, Note_off_c, 1, 71, 0
1, 33479, Note_off_c, 1, 54, 0
1, 33480, Note_on_c, 1, 73, 127
1, 33480, Note_on_c, 1, 52, 127
1, 33515, Note_off_c, 1, 43, 0
1, 33539, Note_off_c, 1, 73, 0
1, 33539, Note_off_c, 1, 52, 0
1, 33540, Note_on_c, 1, 74, 127
1, 33540, Note_on_c, 1, 57, 127
1, 33540, Note_on_c, 1, 42, 127
1, 33569, Note_off_c, 1, 57, 0
1, 33569, Note_off_c, 1, 42, 0
1, 33570, Note_on_c, 1, 55, 127
1, 33570, Note_on_c, 1, 40, 127
1, 33599, Note_off_c, 1, 74, 0
1, 33599, Note_off_c, 1, 55, 0
1, 33599, Note_off_c, 1, 40, 0
1, 33600, Note_on_c, 1, 78, 127
1, 33600, Note_on_c, 1, 54, 127
1, 33600, Note_on_c, 1, 42, 127
1, 33629, Note_off_c, 1, 54, 0
1, 33630, Note_on_c, 1, 52, 127
1, 33659, Note_off_c, 1, 78, 0
1, 33659, Note_off_c, 1, 52, 0
1, 33660, Note_on_c, 1, 79, 127
1, 33660, Note_on_c, 1, 50, 127
1, 33695, Note_off_c, 1, 42, 0
1, 33719, Note_off_c, 1, 79, 0
1, 33719, Note_off_c, 1, 50, 0
1, 33720, Note_on_c, 1, 73, 127
1, 33720, Note_on_c, 1, 55, 127
1, 33720, Note_on_c, 1, 40, 127
1, 33767, Note_off_c, 1, 40, 0
1, 33779, Note_off_c, 1, 73, 0
1, 33779, Note_off_c, 1, 55, 0
1, 33780, Note_on_c, 1, 74, 127
1, 33780, Note_on_c, 1, 54, 127
1, 33780, Note_on_c, 1, 38, 127
1, 33827, Note_off_c, 1, 38, 0
1, 33839, Note_off_c, 1, 54, 0
1, 33840, Note_on_c, 1, 52, 127
1, 33840, Note_on_c, 1, 45, 127
1, 33887, Note_off_c, 1, 45, 0
1, 33899, Note_off_c, 1, 74, 0
1, 33899, Note_off_c, 1, 52, 0
1, 33900, Note_on_c, 1, 73, 127
1, 33900, Note_on_c, 1, 57, 127
1, 33900, Note_on_c, 1, 49, 127
1, 33947, Note_off_c, 1, 49, 0
1, 33959, Note_off_c, 1, 73, 0
1, 33959, Note_off_c, 1, 57, 0
1, 33960, Note_on_c, 1, 71, 127
1, 33960, Note_on_c, 1, 59, 127
1, 33960, Note_on_c, 1, 56, 127
1, 33960, Note_on_c, 1, 52, 127
1, 34007, Note_off_c, 1, 52, 0
1, 34019, Note_off_c, 1, 59, 0
1, 34019, Note_off_c, 1, 56, 0
1, 34020, Note_on_c, 1, 61, 127
1, 34020, Note_on_c, 1, 57, 127
1, 34049, Note_off_c, 1, 71, 0
1, 34050, Note_on_c, 1, 68, 127
1, 34079, Note_off_c, 1, 61, 0
1, 34079, Note_off_c, 1, 68, 0
1, 34080, Note_on_c, 1, 69, 127
1, 34080, Note_on_c, 1, 62, 127
1, 34080, Note_on_c, 1, 66, 127
1, 34080, Note_on_c, 1, 50, 127
1, 34109, Note_off_c, 1, 66, 0
1, 34109, Note_off_c, 1, 50, 0
1, 34110, Note_on_c, 1, 64, 127
1, 34110, Note_on_c, 1, 49, 127
1, 34139, Note_off_c, 1, 57, 0
1, 34139, Note_off_c, 1, 69, 0
1, 34139, Note_off_c, 1, 62, 0
1, 34139, Note_off_c, 1, 64, 0
1, 34139, Note_off_c, 1, 49, 0
1, 34140, Note_on_c, 1, 66, 127
1, 34140, Note_on_c, 1, 62, 127
1, 34140, Note_on_c, 1, 59, 127
1, 34140, Note_on_c, 1, 50, 127
1, 34169, Note_off_c, 1, 62, 0
1, 34170, Note_on_c, 1, 61, 127
1, 34199, Note_off_c, 1, 66, 0
1, 34199, Note_off_c, 1, 59, 0
1, 34199, Note_off_c, 1, 61, 0
1, 34200, Note_on_c, 1, 64, 127
1, 34200, Note_on_c, 1, 68, 127
1, 34200, Note_on_c, 1, 56, 127
1, 34229, Note_off_c, 1, 64, 0
1, 34235, Note_off_c, 1, 50, 0
1, 34259, Note_off_c, 1, 68, 0
1, 34259, Note_off_c, 1, 56, 0
1, 34260, Note_on_c, 1, 64, 127
1, 34260, Note_on_c, 1, 69, 127
1, 34260, Note_on_c, 1, 55, 127
1, 34260, Note_on_c, 1, 49, 127
1, 34289, Note_off_c, 1, 49, 0
1, 34290, Note_on_c, 1, 62, 127
1, 34290, Note_on_c, 1, 47, 127
1, 34319, Note_off_c, 1, 64, 0
1, 34319, Note_off_c, 1, 69, 0
1, 34319, Note_off_c, 1, 62, 0
1, 34319, Note_off_c, 1, 47, 0
1, 34320, Note_on_c, 1, 73, 127
1, 34320, Note_on_c, 1, 61, 127
1, 34349, Note_off_c, 1, 61, 0
1, 34350, Note_on_c, 1, 59, 127
1, 34379, Note_off_c, 1, 55, 0
1, 34379, Note_off_c, 1, 73, 0
1, 34379, Note_off_c, 1, 59, 0
1, 34380, Note_on_c, 1, 74, 127
1, 34380, Note_on_c, 1, 57, 127
1, 34380, Note_on_c, 1, 54, 127
1, 34439, Note_off_c, 1, 74, 0
1, 34439, Note_off_c, 1, 57, 0
1, 34439, Note_off_c, 1, 54, 0
1, 34440, Note_on_c, 1, 62, 127
1, 34440, Note_on_c, 1, 56, 127
1, 34440, Note_on_c, 1, 47, 127
1, 34470, Note_on_c, 1, 71, 127
1, 34487, Note_off_c, 1, 47, 0
1, 34499, Note_off_c, 1, 62, 0
1, 34499, Note_off_c, 1, 56, 0
1, 34499, Note_off_c, 1, 71, 0
1, 34500, Note_on_c, 1, 73, 127
1, 34500, Note_on_c, 1, 64, 127
1, 34500, Note_on_c, 1, 61, 127
1, 34500, Note_on_c, 1, 57, 127
1, 34500, Note_on_c, 1, 45, 127
1, 34529, Note_off_c, 1, 73, 0
1, 34530, Note_on_c, 1, 74, 127
1, 34547, Note_off_c, 1, 45, 0
1, 34559, Note_off_c, 1, 61, 0
1, 34559, Note_off_c, 1, 57, 0
1, 34559, Note_off_c, 1, 74, 0
1, 34560, Note_on_c, 1, 76, 127
1, 34560, Note_on_c, 1, 59, 127
1, 34560, Note_on_c, 1, 56, 127
1, 34560, Note_on_c, 1, 52, 127
1, 34589, Note_off_c, 1, 64, 0
1, 34590, Note_off_c, 1, 52, 0
1, 34590, Note_on_c, 1, 62, 127
1, 34619, Note_off_c, 1, 59, 0
1, 34619, Note_off_c, 1, 56, 0
1, 34619, Note_off_c, 1, 62, 0
1, 34620, Note_off_c, 1, 76, 0
1, 34620, Note_on_c, 1, 68, 127
1, 34620, Note_on_c, 1, 50, 127
1, 34649, Note_off_c, 1, 50, 0
1, 34650, Note_on_c, 1, 49, 127
1, 34679, Note_off_c, 1, 68, 0
1, 34679, Note_off_c, 1, 49, 0
1, 34680, Note_on_c, 1, 69, 127
1, 34680, Note_on_c, 1, 47, 127
1, 34709, Note_off_c, 1, 47, 0
1, 34739, Note_off_c, 1, 69, 0
1, 34740, Note_on_c, 1, 71, 127
1, 34740, Note_on_c, 1, 54, 127
1, 34769, Note_off_c, 1, 71, 0
1, 34799, Note_off_c, 1, 54, 0
1, 34800, Note_on_c, 1, 64, 127
1, 34800, Note_on_c, 1, 71, 127
1, 34800, Note_on_c, 1, 62, 127
1, 34800, Note_on_c, 1, 59, 127
1, 34800, Note_on_c, 1, 44, 127
1, 34829, Note_off_c, 1, 62, 0
1, 34829, Note_off_c, 1, 59, 0
1, 34830, Note_on_c, 1, 61, 127
1, 34830, Note_on_c, 1, 57, 127
1, 34847, Note_off_c, 1, 44, 0
1, 34859, Note_off_c, 1, 64, 0
1, 34859, Note_off_c, 1, 71, 0
1, 34859, Note_off_c, 1, 61, 0
1, 34859, Note_off_c, 1, 57, 0
1, 34860, Note_on_c, 1, 68, 127
1, 34860, Note_on_c, 1, 62, 127
1, 34860, Note_on_c, 1, 56, 127
1, 34860, Note_on_c, 1, 40, 127
1, 34889, Note_off_c, 1, 56, 0
1, 34890, Note_on_c, 1, 54, 127
1, 34907, Note_off_c, 1, 40, 0
1, 34919, Note_off_c, 1, 68, 0
1, 34919, Note_off_c, 1, 54, 0
1, 34920, Note_on_c, 1, 69, 127
1, 34920, Note_on_c, 1, 52, 127
1, 34920, Note_on_c, 1, 45, 127
1, 34950, Note_off_c, 1, 45, 0
1, 34979, Note_off_c, 1, 62, 0
1, 34979, Note_off_c, 1, 69, 0
1, 34979, Note_off_c, 1, 52, 0
1, 34980, Note_on_c, 1, 64, 127
1, 34980, Note_on_c, 1, 73, 127
1, 34980, Note_on_c, 1, 61, 127
1, 34980, Note_on_c, 1, 57, 127
1, 35010, Note_on_c, 1, 55, 127
1, 35039, Note_off_c, 1, 64, 0
1, 35039, Note_off_c, 1, 73, 0
1, 35039, Note_off_c, 1, 61, 0
1, 35039, Note_off_c, 1, 55, 0
1, 35040, Note_on_c, 1, 76, 127
1, 35040, Note_on_c, 1, 66, 127
1, 35040, Note_on_c, 1, 54, 127
1, 35069, Note_off_c, 1, 54, 0
1, 35070, Note_on_c, 1, 52, 127
1, 35099, Note_off_c, 1, 76, 0
1, 35099, Note_off_c, 1, 66, 0
1, 35099, Note_off_c, 1, 52, 0
1, 35100, Note_on_c, 1, 78, 127
1, 35100, Note_on_c, 1, 59, 127
1, 35100, Note_on_c, 1, 51, 127
1, 35147, Note_off_c, 1, 51, 0
1, 35159, Note_off_c, 1, 57, 0
1, 35159, Note_off_c, 1, 78, 0
1, 35159, Note_off_c, 1, 59, 0
1, 35160, Note_on_c, 1, 67, 127
1, 35160, Note_on_c, 1, 71, 127
1, 35160, Note_on_c, 1, 64, 127
1, 35160, Note_on_c, 1, 55, 127
1, 35160, Note_on_c, 1, 52, 127
1, 35189, Note_off_c, 1, 64, 0
1, 35189, Note_off_c, 1, 55, 0
1, 35190, Note_on_c, 1, 62, 127
1, 35190, Note_on_c, 1, 54, 127
1, 35207, Note_off_c, 1, 52, 0
1, 35219, Note_off_c, 1, 67, 0
1, 35219, Note_off_c, 1, 71, 0
1, 35219, Note_off_c, 1, 62, 0
1, 35219, Note_off_c, 1, 54, 0
1, 35220, Note_on_c, 1, 71, 127
1, 35220, Note_on_c, 1, 61, 127
1, 35220, Note_on_c, 1, 55, 127
1, 35220, Note_on_c, 1, 50, 127
1, 35249, Note_off_c, 1, 61, 0
1, 35250, Note_on_c, 1, 59, 127
1, 35267, Note_off_c, 1, 50, 0
1, 35279, Note_off_c, 1, 71, 0
1, 35279, Note_off_c, 1, 55, 0
1, 35279, Note_off_c, 1, 59, 0
1, 35280, Note_on_c, 1, 76, 127
1, 35280, Note_on_c, 1, 57, 127
1, 35280, Note_on_c, 1, 55, 127
1, 35280, Note_on_c, 1, 49, 127
1, 35310, Note_off_c, 1, 49, 0
1, 35339, Note_off_c, 1, 76, 0
1, 35339, Note_off_c, 1, 57, 0
1, 35339, Note_off_c, 1, 55, 0
1, 35340, Note_on_c, 1, 69, 127
1, 35340, Note_on_c, 1, 66, 127
1, 35340, Note_on_c, 1, 62, 127
1, 35340, Note_on_c, 1, 54, 127
1, 35340, Note_on_c, 1, 50, 127
1, 35369, Note_off_c, 1, 50, 0
1, 35370, Note_on_c, 1, 49, 127
1, 35399, Note_off_c, 1, 69, 0
1, 35399, Note_off_c, 1, 66, 0
1, 35399, Note_off_c, 1, 62, 0
1, 35399, Note_off_c, 1, 54, 0
1, 35399, Note_off_c, 1, 49, 0
1, 35400, Note_on_c, 1, 69, 127
1, 35400, Note_on_c, 1, 64, 127
1, 35400, Note_on_c, 1, 61, 127
1, 35400, Note_on_c, 1, 52, 127
1, 35400, Note_on_c, 1, 47, 127
1, 35429, Note_off_c, 1, 47, 0
1, 35430, Note_on_c, 1, 45, 127
1, 35459, Note_off_c, 1, 69, 0
1, 35459, Note_off_c, 1, 64, 0
1, 35459, Note_off_c, 1, 61, 0
1, 35459, Note_off_c, 1, 52, 0
1, 35459, Note_off_c, 1, 45, 0
1, 35460, Note_on_c, 1, 66, 127
1, 35460, Note_on_c, 1, 62, 127
1, 35460, Note_on_c, 1, 50, 127
1, 35490, Note_on_c, 1, 64, 127
1, 35519, Note_off_c, 1, 66, 0
1, 35519, Note_off_c, 1, 50, 0
1, 35519, Note_off_c, 1, 64, 0
1, 35520, Note_on_c, 1, 67, 127
1, 35520, Note_on_c, 1, 71, 127
1, 35520, Note_on_c, 1, 55, 127
1, 35549, Note_off_c, 1, 71, 0
1, 35549, Note_off_c, 1, 55, 0
1, 35550, Note_on_c, 1, 69, 127
1, 35550, Note_on_c, 1, 54, 127
1, 35579, Note_off_c, 1, 62, 0
1, 35579, Note_off_c, 1, 67, 0
1, 35579, Note_off_c, 1, 69, 0
1, 35579, Note_off_c, 1, 54, 0
1, 35580, Note_on_c, 1, 71, 127
1, 35580, Note_on_c, 1, 67, 127
1, 35580, Note_on_c, 1, 64, 127
1, 35580, Note_on_c, 1, 55, 127
1, 35609, Note_off_c, 1, 67, 0
1, 35610, Note_on_c, 1, 66, 127
1, 35639, Note_off_c, 1, 71, 0
1, 35639, Note_off_c, 1, 64, 0
1, 35639, Note_off_c, 1, 66, 0
1, 35640, Note_on_c, 1, 73, 127
1, 35640, Note_on_c, 1, 69, 127
1, 35640, Note_on_c, 1, 61, 127
1, 35669, Note_off_c, 1, 69, 0
1, 35699, Note_off_c, 1, 55, 0
1, 35699, Note_off_c, 1, 73, 0
1, 35699, Note_off_c, 1, 61, 0
1, 35700, Note_on_c, 1, 74, 127
1, 35700, Note_on_c, 1, 69, 127
1, 35700, Note_on_c, 1, 60, 127
1, 35700, Note_on_c, 1, 54, 127
1, 35729, Note_off_c, 1, 54, 0
1, 35730, Note_on_c, 1, 67, 127
1, 35730, Note_on_c, 1, 52, 127
1, 35759, Note_off_c, 1, 74, 0
1, 35759, Note_off_c, 1, 69, 0
1, 35759, Note_off_c, 1, 67, 0
1, 35759, Note_off_c, 1, 52, 0
1, 35760, Note_on_c, 1, 78, 127
1, 35760, Note_on_c, 1, 66, 127
1, 35789, Note_off_c, 1, 66, 0
1, 35790, Note_on_c, 1, 64, 127
1, 35819, Note_off_c, 1, 60, 0
1, 35819, Note_off_c, 1, 78, 0
1, 35819, Note_off_c, 1, 64, 0
1, 35820, Note_on_c, 1, 79, 127
1, 35820, Note_on_c, 1, 62, 127
1, 35820, Note_on_c, 1, 59, 127
1, 35879, Note_off_c, 1, 79, 0
1, 35879, Note_off_c, 1, 62, 0
1, 35879, Note_off_c, 1, 59, 0
1, 35880, Note_on_c, 1, 67, 127
1, 35880, Note_on_c, 1, 61, 127
1, 35880, Note_on_c, 1, 52, 127
1, 35910, Note_on_c, 1, 76, 127
1, 35939, Note_off_c, 1, 67, 0
1, 35939, Note_off_c, 1, 61, 0
1, 35939, Note_off_c, 1, 52, 0
1, 35939, Note_off_c, 1, 76, 0
1, 35940, Note_on_c, 1, 69, 127
1, 35940, Note_on_c, 1, 78, 127
1, 35940, Note_on_c, 1, 66, 127
1, 35940, Note_on_c, 1, 62, 127
1, 35940, Note_on_c, 1, 50, 127
1, 35969, Note_off_c, 1, 78, 0
1, 35970, Note_on_c, 1, 79, 127
1, 35999, Note_off_c, 1, 66, 0
1, 35999, Note_off_c, 1, 62, 0
1, 35999, Note_off_c, 1, 50, 0
1, 35999, Note_off_c, 1, 79, 0
1, 36000, Note_on_c, 1, 81, 127
1, 36000, Note_on_c, 1, 64, 127
1, 36000, Note_on_c, 1, 61, 127
1, 36000, Note_on_c, 1, 57, 127
1, 36029, Note_off_c, 1, 69, 0
1, 36029, Note_off_c, 1, 61, 0
1, 36030, Note_on_c, 1, 67, 127
1, 36059, Note_off_c, 1, 81, 0
1, 36059, Note_off_c, 1, 64, 0
1, 36059, Note_off_c, 1, 57, 0
1, 36059, Note_off_c, 1, 67, 0
1, 36060, Note_on_c, 1, 69, 127
1, 36060, Note_on_c, 1, 73, 127
1, 36060, Note_on_c, 1, 64, 127
1, 36060, Note_on_c, 1, 55, 127
1, 36119, Note_off_c, 1, 73, 0
1, 36119, Note_off_c, 1, 64, 0
1, 36119, Note_off_c, 1, 55, 0
1, 36120, Note_on_c, 1, 74, 127
1, 36120, Note_on_c, 1, 66, 127
1, 36120, Note_on_c, 1, 54, 127
1, 36179, Note_off_c, 1, 54, 0
1, 36180, Note_on_c, 1, 71, 127
1, 36239, Note_off_c, 1, 69, 0
1, 36239, Note_off_c, 1, 74, 0
1, 36239, Note_off_c, 1, 66, 0
1, 36239, Note_off_c, 1, 71, 0
1, 36240, Note_on_c, 1, 71, 127
1, 36240, Note_on_c, 1, 76, 127
1, 36240, Note_on_c, 1, 67, 127
1, 36240, Note_on_c, 1, 59, 127
1, 36240, Note_on_c, 1, 54, 127
1, 36269, Note_off_c, 1, 67, 0
1, 36270, Note_on_c, 1, 74, 127
1, 36270, Note_on_c, 1, 66, 127
1, 36299, Note_off_c, 1, 71, 0
1, 36299, Note_off_c, 1, 76, 0
1, 36299, Note_off_c, 1, 59, 0
1, 36299, Note_off_c, 1, 54, 0
1, 36299, Note_off_c, 1, 74, 0
1, 36299, Note_off_c, 1, 66, 0
1, 36300, Note_on_c, 1, 73, 127
1, 36300, Note_on_c, 1, 67, 127
1, 36300, Note_on_c, 1, 64, 127
1, 36300, Note_on_c, 1, 52, 127
1, 36330, Note_on_c, 1, 71, 127
1, 36359, Note_off_c, 1, 73, 0
1, 36359, Note_off_c, 1, 52, 0
1, 36359, Note_off_c, 1, 71, 0
1, 36360, Note_on_c, 1, 69, 127
1, 36360, Note_on_c, 1, 54, 127
1, 36419, Note_off_c, 1, 67, 0
1, 36419, Note_off_c, 1, 64, 0
1, 36419, Note_off_c, 1, 69, 0
1, 36419, Note_off_c, 1, 54, 0
1, 36420, Note_on_c, 1, 69, 127
1, 36420, Note_on_c, 1, 74, 127
1, 36420, Note_on_c, 1, 66, 127
1, 36420, Note_on_c, 1, 57, 127
1, 36420, Note_on_c, 1, 52, 127
1, 36450, Note_on_c, 1, 73, 127
1, 36479, Note_off_c, 1, 69, 0
1, 36479, Note_off_c, 1, 74, 0
1, 36479, Note_off_c, 1, 57, 0
1, 36479, Note_off_c, 1, 52, 0
1, 36479, Note_off_c, 1, 73, 0
1, 36480, Note_on_c, 1, 71, 127
1, 36480, Note_on_c, 1, 62, 127
1, 36480, Note_on_c, 1, 50, 127
1, 36539, Note_off_c, 1, 71, 0
1, 36539, Note_off_c, 1, 62, 0
1, 36539, Note_off_c, 1, 50, 0
1, 36540, Note_on_c, 1, 67, 127
1, 36540, Note_on_c, 1, 55, 127
1, 36599, Note_off_c, 1, 66, 0
1, 36599, Note_off_c, 1, 67, 0
1, 36599, Note_off_c, 1, 55, 0
1, 36600, Note_on_c, 1, 69, 127
1, 36600, Note_on_c, 1, 72, 127
1, 36600, Note_on_c, 1, 64, 127
1, 36600, Note_on_c, 1, 57, 127
1, 36600, Note_on_c, 1, 54, 127
1, 36659, Note_off_c, 1, 69, 0
1, 36659, Note_off_c, 1, 72, 0
1, 36659, Note_off_c, 1, 64, 0
1, 36659, Note_off_c, 1, 57, 0
1, 36659, Note_off_c, 1, 54, 0
1, 36660, Note_on_c, 1, 67, 127
1, 36660, Note_on_c, 1, 71, 127
1, 36660, Note_on_c, 1, 62, 127
1, 36660, Note_on_c, 1, 59, 127
1, 36660, Note_on_c, 1, 55, 127
1, 36719, Note_off_c, 1, 67, 0
1, 36719, Note_off_c, 1, 71, 0
1, 36719, Note_off_c, 1, 62, 0
1, 36719, Note_off_c, 1, 59, 0
1, 36720, Note_on_c, 1, 69, 127
1, 36720, Note_on_c, 1, 61, 127
1, 36720, Note_on_c, 1, 64, 127
1, 36779, Note_off_c, 1, 55, 0
1, 36779, Note_off_c, 1, 69, 0
1, 36779, Note_off_c, 1, 61, 0
1, 36779, Note_off_c, 1, 64, 0
1, 36780, Note_on_c, 1, 71, 127
1, 36780, Note_on_c, 1, 62, 127
1, 36780, Note_on_c, 1, 54, 127
1, 36839, Note_off_c, 1, 71, 0
1, 36839, Note_off_c, 1, 62, 0
1, 36839, Note_off_c, 1, 54, 0
1, 36840, Note_on_c, 1, 76, 127
1, 36840, Note_on_c, 1, 73, 127
1, 36840, Note_on_c, 1, 67, 127
1, 36840, Note_on_c, 1, 64, 127
1, 36840, Note_on_c, 1, 52, 127
1, 36899, Note_off_c, 1, 76, 0
1, 36899, Note_off_c, 1, 73, 0
1, 36899, Note_off_c, 1, 67, 0
1, 36899, Note_off_c, 1, 64, 0
1, 36899, Note_off_c, 1, 52, 0
1, 36900, Note_on_c, 1, 78, 127
1, 36900, Note_on_c, 1, 74, 127
1, 36900, Note_on_c, 1, 66, 127
1, 36900, Note_on_c, 1, 62, 127
1, 36900, Note_on_c, 1, 59, 127
1, 36929, Note_off_c, 1, 78, 0
1, 36929, Note_off_c, 1, 74, 0
1, 36929, Note_off_c, 1, 59, 0
1, 36930, Note_on_c, 1, 79, 127
1, 36930, Note_on_c, 1, 73, 127
1, 36930, Note_on_c, 1, 57, 127
1, 36944, Note_off_c, 1, 79, 0
1, 36945, Note_on_c, 1, 81, 127
1, 36959, Note_off_c, 1, 66, 0
1, 36959, Note_off_c, 1, 62, 0
1, 36959, Note_off_c, 1, 73, 0
1, 36959, Note_off_c, 1, 57, 0
1, 36959, Note_off_c, 1, 81, 0
1, 36960, Note_on_c, 1, 83, 127
1, 36960, Note_on_c, 1, 71, 127
1, 36960, Note_on_c, 1, 67, 127
1, 36960, Note_on_c, 1, 50, 127
1, 36960, Note_on_c, 1, 55, 127
1, 36989, Note_off_c, 1, 83, 0
1, 36989, Note_off_c, 1, 67, 0
1, 36989, Note_off_c, 1, 55, 0
1, 36990, Note_on_c, 1, 81, 127
1, 36990, Note_on_c, 1, 69, 127
1, 36990, Note_on_c, 1, 54, 127
1, 37019, Note_off_c, 1, 71, 0
1, 37019, Note_off_c, 1, 50, 0
1, 37019, Note_off_c, 1, 81, 0
1, 37019, Note_off_c, 1, 69, 0
1, 37019, Note_off_c, 1, 54, 0
1, 37020, Note_on_c, 1, 79, 127
1, 37020, Note_on_c, 1, 76, 127
1, 37020, Note_on_c, 1, 71, 127
1, 37020, Note_on_c, 1, 55, 127
1, 37049, Note_off_c, 1, 79, 0
1, 37050, Note_on_c, 1, 78, 127
1, 37079, Note_off_c, 1, 76, 0
1, 37079, Note_off_c, 1, 71, 0
1, 37079, Note_off_c, 1, 78, 0
1, 37080, Note_on_c, 1, 73, 127
1, 37080, Note_on_c, 1, 64, 127
1, 37080, Note_on_c, 1, 57, 127
1, 37139, Note_off_c, 1, 55, 0
1, 37139, Note_off_c, 1, 73, 0
1, 37139, Note_off_c, 1, 64, 0
1, 37139, Note_off_c, 1, 57, 0
1, 37140, Note_on_c, 1, 81, 127
1, 37140, Note_on_c, 1, 74, 127
1, 37140, Note_on_c, 1, 66, 127
1, 37140, Note_on_c, 1, 50, 127
1, 37140, Note_on_c, 1, 54, 127
1, 37169, Note_off_c, 1, 81, 0
1, 37169, Note_off_c, 1, 66, 0
1, 37169, Note_off_c, 1, 54, 0
1, 37170, Note_on_c, 1, 79, 127
1, 37170, Note_on_c, 1, 67, 127
1, 37170, Note_on_c, 1, 52, 127
1, 37199, Note_off_c, 1, 74, 0
1, 37199, Note_off_c, 1, 50, 0
1, 37199, Note_off_c, 1, 79, 0
1, 37199, Note_off_c, 1, 67, 0
1, 37199, Note_off_c, 1, 52, 0
1, 37200, Note_on_c, 1, 78, 127
1, 37200, Note_on_c, 1, 69, 127
1, 37200, Note_on_c, 1, 62, 127
1, 37200, Note_on_c, 1, 54, 127
1, 37229, Note_off_c, 1, 78, 0
1, 37229, Note_off_c, 1, 62, 0
1, 37230, Note_on_c, 1, 76, 127
1, 37230, Note_on_c, 1, 64, 127
1, 37259, Note_off_c, 1, 69, 0
1, 37259, Note_off_c, 1, 76, 0
1, 37259, Note_off_c, 1, 64, 0
1, 37260, Note_on_c, 1, 74, 127
1, 37260, Note_on_c, 1, 71, 127
1, 37260, Note_on_c, 1, 66, 127
1, 37319, Note_off_c, 1, 54, 0
1, 37319, Note_off_c, 1, 74, 0
1, 37319, Note_off_c, 1, 71, 0
1, 37319, Note_off_c, 1, 66, 0
1, 37320, Note_on_c, 1, 79, 127
1, 37320, Note_on_c, 1, 73, 127
1, 37320, Note_on_c, 1, 64, 127
1, 37320, Note_on_c, 1, 67, 127
1, 37320, Note_on_c, 1, 52, 127
1, 37350, Note_on_c, 1, 81, 127
1, 37364, Note_off_c, 1, 81, 0
1, 37379, Note_off_c, 1, 79, 0
1, 37379, Note_off_c, 1, 73, 0
1, 37379, Note_off_c, 1, 64, 0
1, 37379, Note_off_c, 1, 67, 0
1, 37379, Note_off_c, 1, 52, 0
1, 37380, Note_on_c, 1, 78, 127
1, 37380, Note_on_c, 1, 74, 127
1, 37380, Note_on_c, 1, 57, 127
1, 37380, Note_on_c, 1, 69, 127
1, 37380, Note_on_c, 1, 50, 127
1, 37410, Note_on_c, 1, 79, 127
1, 37424, Note_off_c, 1, 79, 0
1, 37439, Note_off_c, 1, 78, 0
1, 37439, Note_off_c, 1, 74, 0
1, 37439, Note_off_c, 1, 57, 0
1, 37439, Note_off_c, 1, 69, 0
1, 37439, Note_off_c, 1, 50, 0
1, 37440, Note_on_c, 1, 76, 127
1, 37440, Note_on_c, 1, 73, 127
1, 37440, Note_on_c, 1, 69, 127
1, 37440, Note_on_c, 1, 64, 127
1, 37440, Note_on_c, 1, 57, 127
1, 37470, Note_on_c, 1, 74, 127
1, 37470, Note_on_c, 1, 78, 127
1, 37499, Note_off_c, 1, 73, 0
1, 37499, Note_off_c, 1, 64, 0
1, 37499, Note_off_c, 1, 57, 0
1, 37499, Note_off_c, 1, 74, 0
1, 37499, Note_off_c, 1, 78, 0
1, 37500, Note_on_c, 1, 49, 127
1, 37529, Note_off_c, 1, 76, 0
1, 37559, Note_off_c, 1, 69, 0
1, 37559, Note_off_c, 1, 49, 0
1, 37560, Note_on_c, 1, 79, 127
1, 37560, Note_on_c, 1, 76, 127
1, 37560, Note_on_c, 1, 69, 127
1, 37560, Note_on_c, 1, 45, 127
1, 37560, Note_on_c, 1, 73, 127
1, 37560, Note_on_c, 1, 64, 127
1, 37560, Note_on_c, 1, 61, 127
1, 37589, Note_off_c, 1, 73, 0
1, 37590, Note_on_c, 1, 71, 127
1, 37619, Note_off_c, 1, 69, 0
1, 37619, Note_off_c, 1, 45, 0
1, 37619, Note_off_c, 1, 64, 0
1, 37619, Note_off_c, 1, 61, 0
1, 37619, Note_off_c, 1, 71, 0
1, 37620, Note_on_c, 1, 50, 127
1, 37620, Note_on_c, 1, 66, 127
1, 37620, Note_on_c, 1, 62, 127
1, 37649, Note_off_c, 1, 66, 0
1, 37650, Note_on_c, 1, 67, 127
1, 37650, Note_on_c, 1, 49, 127
1, 37679, Note_off_c, 1, 79, 0
1, 37679, Note_off_c, 1, 76, 0
1, 37679, Note_off_c, 1, 50, 0
1, 37679, Note_off_c, 1, 62, 0
1, 37679, Note_off_c, 1, 67, 0
1, 37679, Note_off_c, 1, 49, 0
1, 37680, Note_on_c, 1, 78, 127
1, 37680, Note_on_c, 1, 74, 127
1, 37680, Note_on_c, 1, 69, 127
1, 37680, Note_on_c, 1, 57, 127
1, 37680, Note_on_c, 1, 54, 127
1, 37709, Note_off_c, 1, 78, 0
1, 37709, Note_off_c, 1, 54, 0
1, 37710, Note_on_c, 1, 80, 127
1, 37710, Note_on_c, 1, 52, 127
1, 37739, Note_off_c, 1, 74, 0
1, 37739, Note_off_c, 1, 57, 0
1, 37739, Note_off_c, 1, 80, 0
1, 37739, Note_off_c, 1, 52, 0
1, 37740, Note_on_c, 1, 81, 127
1, 37740, Note_on_c, 1, 76, 127
1, 37740, Note_on_c, 1, 45, 127
1, 37740, Note_on_c, 1, 73, 127
1, 37740, Note_on_c, 1, 64, 127
1, 37740, Note_on_c, 1, 50, 127
1, 37769, Note_off_c, 1, 50, 0
1, 37770, Note_on_c, 1, 49, 127
1, 37799, Note_off_c, 1, 76, 0
1, 37799, Note_off_c, 1, 45, 0
1, 37799, Note_off_c, 1, 73, 0
1, 37799, Note_off_c, 1, 64, 0
1, 37799, Note_off_c, 1, 49, 0
1, 37800, Note_on_c, 1, 62, 127
1, 37829, Note_off_c, 1, 69, 0
1, 37830, Note_on_c, 1, 71, 127
1, 37830, Note_on_c, 1, 47, 127
1, 37859, Note_off_c, 1, 81, 0
1, 37859, Note_off_c, 1, 62, 0
1, 37859, Note_off_c, 1, 71, 0
1, 37859, Note_off_c, 1, 47, 0
1, 37860, Note_on_c, 1, 80, 127
1, 37860, Note_on_c, 1, 76, 127
1, 37860, Note_on_c, 1, 73, 127
1, 37860, Note_on_c, 1, 56, 127
1, 37860, Note_on_c, 1, 52, 127
1, 37889, Note_off_c, 1, 80, 0
1, 37889, Note_off_c, 1, 52, 0
1, 37890, Note_on_c, 1, 81, 127
1, 37890, Note_on_c, 1, 50, 127
1, 37919, Note_off_c, 1, 73, 0
1, 37919, Note_off_c, 1, 56, 0
1, 37919, Note_off_c, 1, 81, 0
1, 37919, Note_off_c, 1, 50, 0
1, 37920, Note_on_c, 1, 83, 127
1, 37920, Note_on_c, 1, 62, 127
1, 37920, Note_on_c, 1, 74, 127
1, 37920, Note_on_c, 1, 68, 127
1, 37920, Note_on_c, 1, 59, 127
1, 37920, Note_on_c, 1, 49, 127
1, 37949, Note_off_c, 1, 83, 0
1, 37949, Note_off_c, 1, 49, 0
1, 37950, Note_on_c, 1, 47, 127
1, 37979, Note_off_c, 1, 62, 0
1, 37979, Note_off_c, 1, 74, 0
1, 37979, Note_off_c, 1, 68, 0
1, 37979, Note_off_c, 1, 59, 0
1, 37979, Note_off_c, 1, 47, 0
1, 37980, Note_on_c, 1, 69, 127
1, 37980, Note_on_c, 1, 45, 127
1, 37980, Note_on_c, 1, 64, 127
1, 38039, Note_off_c, 1, 76, 0
1, 38039, Note_off_c, 1, 69, 0
1, 38039, Note_off_c, 1, 45, 0
1, 38039, Note_off_c, 1, 64, 0
1, 38040, Note_on_c, 1, 85, 127
1, 38040, Note_on_c, 1, 81, 127
1, 38040, Note_on_c, 1, 78, 127
1, 38040, Note_on_c, 1, 50, 127
1, 38040, Note_on_c, 1, 74, 127
1, 38040, Note_on_c, 1, 62, 127
1, 38040, Note_on_c, 1, 66, 127
1, 38040, Note_on_c, 1, 38, 127
1, 38069, Note_off_c, 1, 85, 0
1, 38070, Note_on_c, 1, 83, 127
1, 38087, Note_off_c, 1, 62, 0
1, 38087, Note_off_c, 1, 38, 0
1, 38099, Note_off_c, 1, 81, 0
1, 38099, Note_off_c, 1, 78, 0
1, 38099, Note_off_c, 1, 50, 0
1, 38099, Note_off_c, 1, 74, 0
1, 38099, Note_off_c, 1, 66, 0
1, 38099, Note_off_c, 1, 83, 0
1, 38100, Note_on_c, 1, 81, 127
1, 38100, Note_on_c, 1, 76, 127
1, 38100, Note_on_c, 1, 71, 127
1, 38100, Note_on_c, 1, 74, 127
1, 38100, Note_on_c, 1, 68, 127
1, 38100, Note_on_c, 1, 64, 127
1, 38100, Note_on_c, 1, 52, 127
1, 38100, Note_on_c, 1, 40, 127
1, 38130, Note_on_c, 1, 80, 127
1, 38147, Note_off_c, 1, 74, 0
1, 38147, Note_off_c, 1, 40, 0
1, 38159, Note_off_c, 1, 81, 0
1, 38159, Note_off_c, 1, 71, 0
1, 38159, Note_off_c, 1, 68, 0
1, 38159, Note_off_c, 1, 64, 0
1, 38159, Note_off_c, 1, 52, 0
1, 38159, Note_off_c, 1, 80, 0
1, 38160, Note_on_c, 1, 69, 127
1, 38160, Note_on_c, 1, 78, 127
1, 38160, Note_on_c, 1, 45, 127
1, 38160, Note_on_c, 1, 61, 127
1, 38160, Note_on_c, 1, 42, 127
1, 38190, Note_on_c, 1, 72, 127
1, 38190, Note_on_c, 1, 54, 127
1, 38213, Note_off_c, 1, 72, 0
1, 38219, Note_off_c, 1, 76, 0
1, 38219, Note_off_c, 1, 69, 0
1, 38219, Note_off_c, 1, 78, 0
1, 38219, Note_off_c, 1, 45, 0
1, 38219, Note_off_c, 1, 61, 0
1, 38219, Note_off_c, 1, 54, 0
1, 38220, Note_off_c, 1, 42, 0
1, 38280, Note_on_c, 1, 75, 127
1, 38399, Note_off_c, 1, 75, 0
1, 38520, Note_on_c, 1, 66, 127
1, 38520, Note_on_c, 1, 51, 127
1, 38520, Note_on_c, 1, 39, 127
1, 38543, Note_off_c, 1, 66, 0
1, 38549, Note_off_c, 1, 39, 0
1, 38550, Note_on_c, 1, 84, 127
1, 38550, Note_on_c, 1, 63, 127
1, 38573, Note_off_c, 1, 63, 0
1, 38579, Note_off_c, 1, 84, 0
1, 38580, Note_on_c, 1, 83, 127
1, 38580, Note_on_c, 1, 59, 127
1, 38609, Note_off_c, 1, 83, 0
1, 38639, Note_off_c, 1, 51, 0
1, 38639, Note_off_c, 1, 59, 0
1, 38640, Note_on_c, 1, 81, 127
1, 38640, Note_on_c, 1, 78, 127
1, 38640, Note_on_c, 1, 66, 127
1, 38640, Note_on_c, 1, 71, 127
1, 38640, Note_on_c, 1, 69, 127
1, 38640, Note_on_c, 1, 59, 127
1, 38640, Note_on_c, 1, 51, 127
1, 38669, Note_off_c, 1, 66, 0
1, 38699, Note_off_c, 1, 78, 0
1, 38699, Note_off_c, 1, 71, 0
1, 38699, Note_off_c, 1, 69, 0
1, 38699, Note_off_c, 1, 59, 0
1, 38699, Note_off_c, 1, 51, 0
1, 38700, Note_on_c, 1, 85, 127
1, 38700, Note_on_c, 1, 76, 127
1, 38700, Note_on_c, 1, 45, 127
1, 38700, Note_on_c, 1, 73, 127
1, 38700, Note_on_c, 1, 64, 127
1, 38700, Note_on_c, 1, 52, 127
1, 38729, Note_off_c, 1, 45, 0
1, 38729, Note_off_c, 1, 52, 0
1, 38730, Note_on_c, 1, 74, 127
1, 38730, Note_on_c, 1, 50, 127
1, 38759, Note_off_c, 1, 81, 0
1, 38759, Note_off_c, 1, 76, 0
1, 38759, Note_off_c, 1, 73, 0
1, 38759, Note_off_c, 1, 64, 0
1, 38759, Note_off_c, 1, 74, 0
1, 38759, Note_off_c, 1, 50, 0
1, 38760, Note_off_c, 1, 85, 0
1, 38760, Note_on_c, 1, 57, 127
1, 38760, Note_on_c, 1, 49, 127
1, 38789, Note_off_c, 1, 49, 0
1, 38819, Note_off_c, 1, 57, 0
1, 38820, Note_on_c, 1, 80, 127
1, 38850, Note_on_c, 1, 68, 127
1, 38879, Note_off_c, 1, 68, 0
1, 38880, Note_off_c, 1, 80, 0
1, 38880, Note_on_c, 1, 61, 127
1, 38999, Note_off_c, 1, 61, 0
1, 39030, Note_on_c, 1, 67, 127
1, 39059, Note_off_c, 1, 67, 0
1, 39060, Note_on_c, 1, 75, 127
1, 39060, Note_on_c, 1, 54, 127
1, 39119, Note_off_c, 1, 75, 0
1, 39119, Note_off_c, 1, 54, 0
1, 39120, Note_on_c, 1, 72, 127
1, 39149, Note_off_c, 1, 72, 0
1, 39180, Note_on_c, 1, 60, 127
1, 39239, Note_off_c, 1, 60, 0
1, 39240, Note_on_c, 1, 63, 127
1, 39269, Note_off_c, 1, 63, 0
1, 39270, Note_on_c, 1, 79, 127
1, 39299, Note_off_c, 1, 79, 0
1, 39360, Note_on_c, 1, 81, 127
1, 39360, Note_on_c, 1, 78, 127
1, 39360, Note_on_c, 1, 66, 127
1, 39360, Note_on_c, 1, 63, 127
1, 39360, Note_on_c, 1, 69, 127
1, 39360, Note_on_c, 1, 51, 127
1, 39389, Note_off_c, 1, 66, 0
1, 39389, Note_off_c, 1, 51, 0
1, 39390, Note_on_c, 1, 64, 127
1, 39390, Note_on_c, 1, 61, 127
1, 39390, Note_on_c, 1, 49, 127
1, 39419, Note_off_c, 1, 63, 0
1, 39419, Note_off_c, 1, 69, 0
1, 39419, Note_off_c, 1, 64, 0
1, 39419, Note_off_c, 1, 61, 0
1, 39419, Note_off_c, 1, 49, 0
1, 39420, Note_on_c, 1, 71, 127
1, 39420, Note_on_c, 1, 59, 127
1, 39420, Note_on_c, 1, 47, 127
1, 39449, Note_off_c, 1, 81, 0
1, 39449, Note_off_c, 1, 47, 0
1, 39450, Note_on_c, 1, 79, 127
1, 39450, Note_on_c, 1, 75, 127
1, 39450, Note_on_c, 1, 72, 127
1, 39450, Note_on_c, 1, 45, 127
1, 39467, Note_off_c, 1, 59, 0
1, 39479, Note_off_c, 1, 78, 0
1, 39479, Note_off_c, 1, 71, 0
1, 39479, Note_off_c, 1, 79, 0
1, 39479, Note_off_c, 1, 75, 0
1, 39479, Note_off_c, 1, 72, 0
1, 39479, Note_off_c, 1, 45, 0
1, 39480, Note_on_c, 1, 83, 127
1, 39480, Note_on_c, 1, 79, 127
1, 39480, Note_on_c, 1, 64, 127
1, 39480, Note_on_c, 1, 71, 127
1, 39480, Note_on_c, 1, 43, 127
1, 39509, Note_off_c, 1, 83, 0
1, 39509, Note_off_c, 1, 79, 0
1, 39509, Note_off_c, 1, 71, 0
1, 39510, Note_on_c, 1, 81, 127
1, 39510, Note_on_c, 1, 78, 127
1, 39510, Note_on_c, 1, 69, 127
1, 39539, Note_off_c, 1, 64, 0
1, 39539, Note_off_c, 1, 43, 0
1, 39539, Note_off_c, 1, 81, 0
1, 39539, Note_off_c, 1, 78, 0
1, 39539, Note_off_c, 1, 69, 0
1, 39540, Note_on_c, 1, 79, 127
1, 39540, Note_on_c, 1, 76, 127
1, 39540, Note_on_c, 1, 71, 127
1, 39540, Note_on_c, 1, 67, 127
1, 39540, Note_on_c, 1, 59, 127
1, 39540, Note_on_c, 1, 47, 127
1, 39569, Note_off_c, 1, 79, 0
1, 39569, Note_off_c, 1, 76, 0
1, 39569, Note_off_c, 1, 67, 0
1, 39570, Note_on_c, 1, 78, 127
1, 39570, Note_on_c, 1, 75, 127
1, 39570, Note_on_c, 1, 66, 127
1, 39587, Note_off_c, 1, 71, 0
1, 39599, Note_off_c, 1, 59, 0
1, 39599, Note_off_c, 1, 47, 0
1, 39599, Note_off_c, 1, 78, 0
1, 39599, Note_off_c, 1, 75, 0
1, 39599, Note_off_c, 1, 66, 0
1, 39600, Note_on_c, 1, 81, 127
1, 39600, Note_on_c, 1, 76, 127
1, 39600, Note_on_c, 1, 71, 127
1, 39600, Note_on_c, 1, 69, 127
1, 39600, Note_on_c, 1, 59, 127
1, 39600, Note_on_c, 1, 52, 127
1, 39600, Note_on_c, 1, 40, 127
1, 39629, Note_off_c, 1, 81, 0
1, 39629, Note_off_c, 1, 69, 0
1, 39630, Note_on_c, 1, 79, 127
1, 39630, Note_on_c, 1, 67, 127
1, 39647, Note_off_c, 1, 71, 0
1, 39647, Note_off_c, 1, 40, 0
1, 39659, Note_off_c, 1, 76, 0
1, 39659, Note_off_c, 1, 59, 0
1, 39659, Note_off_c, 1, 52, 0
1, 39659, Note_off_c, 1, 79, 0
1, 39659, Note_off_c, 1, 67, 0
1, 39660, Note_on_c, 1, 78, 127
1, 39660, Note_on_c, 1, 71, 127
1, 39660, Note_on_c, 1, 67, 127
1, 39660, Note_on_c, 1, 66, 127
1, 39660, Note_on_c, 1, 59, 127
1, 39660, Note_on_c, 1, 55, 127
1, 39660, Note_on_c, 1, 43, 127
1, 39689, Note_off_c, 1, 78, 0
1, 39689, Note_off_c, 1, 66, 0
1, 39690, Note_on_c, 1, 76, 127
1, 39690, Note_on_c, 1, 64, 127
1, 39707, Note_off_c, 1, 67, 0
1, 39707, Note_off_c, 1, 43, 0
1, 39719, Note_off_c, 1, 71, 0
1, 39719, Note_off_c, 1, 59, 0
1, 39719, Note_off_c, 1, 55, 0
1, 39719, Note_off_c, 1, 76, 0
1, 39719, Note_off_c, 1, 64, 0
1, 39720, Note_on_c, 1, 79, 127
1, 39720, Note_on_c, 1, 75, 127
1, 39720, Note_on_c, 1, 71, 127
1, 39720, Note_on_c, 1, 59, 127
1, 39720, Note_on_c, 1, 47, 127
1, 39749, Note_off_c, 1, 79, 0
1, 39750, Note_on_c, 1, 78, 127
1, 39767, Note_off_c, 1, 47, 0
1, 39779, Note_off_c, 1, 75, 0
1, 39779, Note_off_c, 1, 71, 0
1, 39779, Note_off_c, 1, 59, 0
1, 39779, Note_off_c, 1, 78, 0
1, 39780, Note_on_c, 1, 79, 127
1, 39780, Note_on_c, 1, 76, 127
1, 39780, Note_on_c, 1, 67, 127
1, 39780, Note_on_c, 1, 59, 127
1, 39780, Note_on_c, 1, 64, 127
1, 39780, Note_on_c, 1, 52, 127
1, 39839, Note_off_c, 1, 76, 0
1, 39839, Note_off_c, 1, 67, 0
1, 39839, Note_off_c, 1, 59, 0
1, 39839, Note_off_c, 1, 64, 0
1, 39870, Note_on_c, 1, 74, 127
1, 39870, Note_on_c, 1, 66, 127
1, 39875, Note_off_c, 1, 52, 0
1, 39899, Note_off_c, 1, 74, 0
1, 39899, Note_off_c, 1, 66, 0
1, 39900, Note_on_c, 1, 73, 127
1, 39900, Note_on_c, 1, 62, 127
1, 39929, Note_off_c, 1, 73, 0
1, 39930, Note_on_c, 1, 71, 127
1, 39959, Note_off_c, 1, 62, 0
1, 39959, Note_off_c, 1, 71, 0
1, 39960, Note_on_c, 1, 69, 127
1, 39960, Note_on_c, 1, 61, 127
1, 39960, Note_on_c, 1, 57, 127
1, 39989, Note_off_c, 1, 69, 0
1, 39990, Note_off_c, 1, 79, 0
1, 39990, Note_on_c, 1, 78, 127
1, 40019, Note_off_c, 1, 57, 0
1, 40019, Note_off_c, 1, 78, 0
1, 40049, Note_off_c, 1, 61, 0
1, 40080, Note_on_c, 1, 79, 127
1, 40080, Note_on_c, 1, 76, 127
1, 40080, Note_on_c, 1, 64, 127
1, 40080, Note_on_c, 1, 61, 127
1, 40080, Note_on_c, 1, 67, 127
1, 40109, Note_off_c, 1, 64, 0
1, 40110, Note_on_c, 1, 62, 127
1, 40110, Note_on_c, 1, 59, 127
1, 40139, Note_off_c, 1, 61, 0
1, 40139, Note_off_c, 1, 67, 0
1, 40139, Note_off_c, 1, 62, 0
1, 40139, Note_off_c, 1, 59, 0
1, 40140, Note_on_c, 1, 69, 127
1, 40140, Note_on_c, 1, 57, 127
1, 40169, Note_off_c, 1, 79, 0
1, 40170, Note_on_c, 1, 78, 127
1, 40170, Note_on_c, 1, 73, 127
1, 40170, Note_on_c, 1, 71, 127
1, 40199, Note_off_c, 1, 76, 0
1, 40199, Note_off_c, 1, 69, 0
1, 40199, Note_off_c, 1, 57, 0
1, 40199, Note_off_c, 1, 78, 0
1, 40199, Note_off_c, 1, 73, 0
1, 40199, Note_off_c, 1, 71, 0
1, 40200, Note_on_c, 1, 81, 127
1, 40200, Note_on_c, 1, 78, 127
1, 40200, Note_on_c, 1, 69, 127
1, 40200, Note_on_c, 1, 45, 127
1, 40200, Note_on_c, 1, 62, 127
1, 40200, Note_on_c, 1, 54, 127
1, 40200, Note_on_c, 1, 42, 127
1, 40229, Note_off_c, 1, 81, 0
1, 40229, Note_off_c, 1, 78, 0
1, 40229, Note_off_c, 1, 54, 0
1, 40230, Note_on_c, 1, 79, 127
1, 40230, Note_on_c, 1, 76, 127
1, 40230, Note_on_c, 1, 67, 127
1, 40230, Note_on_c, 1, 55, 127
1, 40247, Note_off_c, 1, 42, 0
1, 40259, Note_off_c, 1, 69, 0
1, 40259, Note_off_c, 1, 45, 0
1, 40259, Note_off_c, 1, 62, 0
1, 40259, Note_off_c, 1, 79, 0
1, 40259, Note_off_c, 1, 76, 0
1, 40259, Note_off_c, 1, 67, 0
1, 40259, Note_off_c, 1, 55, 0
1, 40260, Note_on_c, 1, 78, 127
1, 40260, Note_on_c, 1, 74, 127
1, 40260, Note_on_c, 1, 69, 127
1, 40260, Note_on_c, 1, 45, 127
1, 40260, Note_on_c, 1, 66, 127
1, 40260, Note_on_c, 1, 57, 127
1, 40289, Note_off_c, 1, 78, 0
1, 40289, Note_off_c, 1, 74, 0
1, 40289, Note_off_c, 1, 66, 0
1, 40290, Note_on_c, 1, 76, 127
1, 40290, Note_on_c, 1, 73, 127
1, 40290, Note_on_c, 1, 64, 127
1, 40319, Note_off_c, 1, 69, 0
1, 40319, Note_off_c, 1, 45, 0
1, 40319, Note_off_c, 1, 57, 0
1, 40319, Note_off_c, 1, 76, 0
1, 40319, Note_off_c, 1, 73, 0
1, 40319, Note_off_c, 1, 64, 0
1, 40320, Note_on_c, 1, 79, 127
1, 40320, Note_on_c, 1, 74, 127
1, 40320, Note_on_c, 1, 69, 127
1, 40320, Note_on_c, 1, 50, 127
1, 40320, Note_on_c, 1, 67, 127
1, 40320, Note_on_c, 1, 57, 127
1, 40349, Note_off_c, 1, 79, 0
1, 40349, Note_off_c, 1, 67, 0
1, 40350, Note_on_c, 1, 78, 127
1, 40350, Note_on_c, 1, 66, 127
1, 40379, Note_off_c, 1, 74, 0
1, 40379, Note_off_c, 1, 69, 0
1, 40379, Note_off_c, 1, 50, 0
1, 40379, Note_off_c, 1, 57, 0
1, 40379, Note_off_c, 1, 78, 0
1, 40379, Note_off_c, 1, 66, 0
1, 40380, Note_on_c, 1, 76, 127
1, 40380, Note_on_c, 1, 69, 127
1, 40380, Note_on_c, 1, 66, 127
1, 40380, Note_on_c, 1, 50, 127
1, 40380, Note_on_c, 1, 64, 127
1, 40380, Note_on_c, 1, 57, 127
1, 40380, Note_on_c, 1, 52, 127
1, 40409, Note_off_c, 1, 76, 0
1, 40409, Note_off_c, 1, 64, 0
1, 40410, Note_on_c, 1, 74, 127
1, 40410, Note_on_c, 1, 62, 127
1, 40439, Note_off_c, 1, 69, 0
1, 40439, Note_off_c, 1, 66, 0
1, 40439, Note_off_c, 1, 50, 0
1, 40439, Note_off_c, 1, 57, 0
1, 40439, Note_off_c, 1, 52, 0
1, 40439, Note_off_c, 1, 74, 0
1, 40439, Note_off_c, 1, 62, 0
1, 40440, Note_on_c, 1, 84, 127
1, 40440, Note_on_c, 1, 81, 127
1, 40440, Note_on_c, 1, 69, 127
1, 40440, Note_on_c, 1, 62, 127
1, 40440, Note_on_c, 1, 74, 127
1, 40440, Note_on_c, 1, 57, 127
1, 40440, Note_on_c, 1, 54, 127
1, 40469, Note_off_c, 1, 81, 0
1, 40487, Note_off_c, 1, 62, 0
1, 40499, Note_off_c, 1, 84, 0
1, 40499, Note_off_c, 1, 69, 0
1, 40499, Note_off_c, 1, 74, 0
1, 40499, Note_off_c, 1, 57, 0
1, 40499, Note_off_c, 1, 54, 0
1, 40500, Note_on_c, 1, 74, 127
1, 40500, Note_on_c, 1, 71, 127
1, 40500, Note_on_c, 1, 67, 127
1, 40500, Note_on_c, 1, 62, 127
1, 40500, Note_on_c, 1, 55, 127
1, 40529, Note_off_c, 1, 71, 0
1, 40530, Note_on_c, 1, 73, 127
1, 40530, Note_on_c, 1, 69, 127
1, 40547, Note_off_c, 1, 62, 0
1, 40559, Note_off_c, 1, 67, 0
1, 40559, Note_off_c, 1, 55, 0
1, 40559, Note_off_c, 1, 73, 0
1, 40559, Note_off_c, 1, 69, 0
1, 40560, Note_on_c, 1, 54, 127
1, 40590, Note_on_c, 1, 76, 127
1, 40619, Note_off_c, 1, 54, 0
1, 40619, Note_off_c, 1, 76, 0
1, 40620, Note_on_c, 1, 83, 127
1, 40620, Note_on_c, 1, 52, 127
1, 40679, Note_off_c, 1, 83, 0
1, 40679, Note_off_c, 1, 52, 0
1, 40680, Note_on_c, 1, 66, 127
1, 40739, Note_off_c, 1, 66, 0
1, 40740, Note_on_c, 1, 59, 127
1, 40799, Note_off_c, 1, 59, 0
1, 40800, Note_on_c, 1, 81, 127
1, 40800, Note_on_c, 1, 50, 127
1, 40859, Note_off_c, 1, 81, 0
1, 40859, Note_off_c, 1, 50, 0
1, 40920, Note_on_c, 1, 57, 127
1, 40979, Note_off_c, 1, 57, 0
1, 40980, Note_on_c, 1, 79, 127
1, 41039, Note_off_c, 1, 79, 0
1, 41100, Note_on_c, 1, 64, 127
1, 41129, Note_off_c, 1, 64, 0
1, 41160, Note_on_c, 1, 78, 127
1, 41219, Note_off_c, 1, 78, 0
1, 41220, Note_on_c, 1, 72, 127
1, 41220, Note_on_c, 1, 56, 127
1, 41249, Note_off_c, 1, 72, 0
1, 41279, Note_off_c, 1, 56, 0
1, 41280, Note_off_c, 1, 74, 0
1, 41310, Note_on_c, 1, 68, 127
1, 41339, Note_off_c, 1, 68, 0
1, 41400, Note_on_c, 1, 45, 127
1, 41459, Note_off_c, 1, 45, 0
1, 41460, Note_on_c, 1, 61, 127
1, 41519, Note_off_c, 1, 61, 0
1, 41580, Note_on_c, 1, 58, 127
1, 41639, Note_off_c, 1, 58, 0
1, 41670, Note_on_c, 1, 70, 127
1, 41699, Note_off_c, 1, 70, 0
1, 41940, Note_on_c, 1, 79, 127
1, 41940, Note_on_c, 1, 76, 127
1, 41940, Note_on_c, 1, 67, 127
1, 41940, Note_on_c, 1, 62, 127
1, 41940, Note_on_c, 1, 58, 127
1, 41940, Note_on_c, 1, 46, 127
1, 41969, Note_off_c, 1, 76, 0
1, 41970, Note_on_c, 1, 74, 127
1, 41987, Note_off_c, 1, 46, 0
1, 41999, Note_off_c, 1, 67, 0
1, 41999, Note_off_c, 1, 62, 0
1, 41999, Note_off_c, 1, 74, 0
1, 42000, Note_on_c, 1, 73, 127
1, 42000, Note_on_c, 1, 70, 127
1, 42029, Note_off_c, 1, 73, 0
1, 42059, Note_off_c, 1, 58, 0
1, 42059, Note_off_c, 1, 70, 0
1, 42119, Note_off_c, 1, 79, 0
1, 42120, Note_on_c, 1, 80, 127
1, 42120, Note_on_c, 1, 83, 127
1, 42120, Note_on_c, 1, 64, 127
1, 42120, Note_on_c, 1, 71, 127
1, 42120, Note_on_c, 1, 52, 127
1, 42120, Note_on_c, 1, 40, 127
1, 42149, Note_off_c, 1, 83, 0
1, 42167, Note_off_c, 1, 40, 0
1, 42239, Note_off_c, 1, 64, 0
1, 42239, Note_off_c, 1, 71, 0
1, 42239, Note_off_c, 1, 52, 0
1, 42240, Note_on_c, 1, 68, 127
1, 42299, Note_off_c, 1, 80, 0
1, 42299, Note_off_c, 1, 68, 0
1, 42300, Note_on_c, 1, 81, 127
1, 42300, Note_on_c, 1, 74, 127
1, 42300, Note_on_c, 1, 69, 127
1, 42300, Note_on_c, 1, 50, 127
1, 42300, Note_on_c, 1, 66, 127
1, 42300, Note_on_c, 1, 62, 127
1, 42300, Note_on_c, 1, 54, 127
1, 42300, Note_on_c, 1, 42, 127
1, 42347, Note_off_c, 1, 42, 0
1, 42359, Note_off_c, 1, 81, 0
1, 42359, Note_off_c, 1, 74, 0
1, 42359, Note_off_c, 1, 69, 0
1, 42359, Note_off_c, 1, 50, 0
1, 42359, Note_off_c, 1, 66, 0
1, 42359, Note_off_c, 1, 62, 0
1, 42359, Note_off_c, 1, 54, 0
1, 42360, Note_on_c, 1, 79, 127
1, 42360, Note_on_c, 1, 83, 127
1, 42360, Note_on_c, 1, 62, 127
1, 42360, Note_on_c, 1, 50, 127
1, 42360, Note_on_c, 1, 74, 127
1, 42360, Note_on_c, 1, 71, 127
1, 42360, Note_on_c, 1, 59, 127
1, 42360, Note_on_c, 1, 55, 127
1, 42360, Note_on_c, 1, 43, 127
1, 42389, Note_off_c, 1, 79, 0
1, 42389, Note_off_c, 1, 83, 0
1, 42390, Note_on_c, 1, 78, 127
1, 42390, Note_on_c, 1, 81, 127
1, 42407, Note_off_c, 1, 43, 0
1, 42419, Note_off_c, 1, 62, 0
1, 42419, Note_off_c, 1, 50, 0
1, 42419, Note_off_c, 1, 74, 0
1, 42419, Note_off_c, 1, 71, 0
1, 42419, Note_off_c, 1, 59, 0
1, 42419, Note_off_c, 1, 55, 0
1, 42419, Note_off_c, 1, 78, 0
1, 42419, Note_off_c, 1, 81, 0
1, 42420, Note_on_c, 1, 76, 127
1, 42420, Note_on_c, 1, 79, 127
1, 42420, Note_on_c, 1, 69, 127
1, 42420, Note_on_c, 1, 45, 127
1, 42420, Note_on_c, 1, 85, 127
1, 42420, Note_on_c, 1, 73, 127
1, 42420, Note_on_c, 1, 64, 127
1, 42420, Note_on_c, 1, 57, 127
1, 42449, Note_off_c, 1, 76, 0
1, 42449, Note_off_c, 1, 79, 0
1, 42449, Note_off_c, 1, 85, 0
1, 42450, Note_on_c, 1, 78, 127
1, 42450, Note_on_c, 1, 81, 127
1, 42450, Note_on_c, 1, 74, 127
1, 42479, Note_off_c, 1, 69, 0
1, 42479, Note_off_c, 1, 45, 0
1, 42479, Note_off_c, 1, 73, 0
1, 42479, Note_off_c, 1, 64, 0
1, 42479, Note_off_c, 1, 57, 0
1, 42479, Note_off_c, 1, 78, 0
1, 42479, Note_off_c, 1, 81, 0
1, 42479, Note_off_c, 1, 74, 0
1, 42480, Note_on_c, 1, 74, 127
1, 42480, Note_on_c, 1, 78, 127
1, 42480, Note_on_c, 1, 62, 127
1, 42480, Note_on_c, 1, 50, 127
1, 42480, Note_on_c, 1, 86, 127
1, 42480, Note_on_c, 1, 71, 127
1, 42480, Note_on_c, 1, 66, 127
1, 42480, Note_on_c, 1, 47, 127
1, 42510, Note_on_c, 1, 77, 127
1, 42510, Note_on_c, 1, 59, 127
1, 42539, Note_off_c, 1, 78, 0
1, 42539, Note_off_c, 1, 62, 0
1, 42539, Note_off_c, 1, 50, 0
1, 42539, Note_off_c, 1, 86, 0
1, 42539, Note_off_c, 1, 71, 0
1, 42539, Note_off_c, 1, 66, 0
1, 42539, Note_off_c, 1, 77, 0
1, 42539, Note_off_c, 1, 59, 0
1, 42540, Note_off_c, 1, 47, 0
1, 42540, Note_on_c, 1, 83, 127
1, 42599, Note_off_c, 1, 83, 0
1, 42600, Note_on_c, 1, 80, 127
1, 42660, Note_on_c, 1, 65, 127
1, 42660, Note_on_c, 1, 45, 127
1, 42690, Note_on_c, 1, 57, 127
1, 42719, Note_off_c, 1, 80, 0
1, 42719, Note_off_c, 1, 65, 0
1, 42719, Note_off_c, 1, 57, 0
1, 42720, Note_off_c, 1, 45, 0
1, 42750, Note_on_c, 1, 73, 127
1, 42750, Note_on_c, 1, 64, 127
1, 42779, Note_off_c, 1, 73, 0
1, 42779, Note_off_c, 1, 64, 0
1, 42840, Note_on_c, 1, 56, 127
1, 42840, Note_on_c, 1, 44, 127
1, 42899, Note_off_c, 1, 56, 0
1, 42900, Note_off_c, 1, 44, 0
1, 42900, Note_on_c, 1, 76, 127
1, 42929, Note_off_c, 1, 76, 0
1, 42930, Note_on_c, 1, 69, 127
1, 42959, Note_off_c, 1, 74, 0
1, 42959, Note_off_c, 1, 69, 0
1, 42960, Note_on_c, 1, 83, 127
1, 42960, Note_on_c, 1, 76, 127
1, 42960, Note_on_c, 1, 74, 127
1, 42960, Note_on_c, 1, 50, 127
1, 42960, Note_on_c, 1, 71, 127
1, 42960, Note_on_c, 1, 64, 127
1, 42960, Note_on_c, 1, 56, 127
1, 42983, Note_off_c, 1, 64, 0
1, 42989, Note_off_c, 1, 71, 0
1, 43019, Note_off_c, 1, 83, 0
1, 43019, Note_off_c, 1, 76, 0
1, 43019, Note_off_c, 1, 50, 0
1, 43019, Note_off_c, 1, 56, 0
1, 43020, Note_on_c, 1, 81, 127
1, 43020, Note_on_c, 1, 78, 127
1, 43020, Note_on_c, 1, 45, 127
1, 43020, Note_on_c, 1, 66, 127
1, 43020, Note_on_c, 1, 69, 127
1, 43020, Note_on_c, 1, 57, 127
1, 43049, Note_off_c, 1, 81, 0
1, 43050, Note_on_c, 1, 86, 127
1, 43050, Note_on_c, 1, 79, 127
1, 43079, Note_off_c, 1, 74, 0
1, 43079, Note_off_c, 1, 78, 0
1, 43079, Note_off_c, 1, 45, 0
1, 43079, Note_off_c, 1, 66, 0
1, 43079, Note_off_c, 1, 69, 0
1, 43079, Note_off_c, 1, 57, 0
1, 43079, Note_off_c, 1, 86, 0
1, 43079, Note_off_c, 1, 79, 0
1, 43080, Note_on_c, 1, 85, 127
1, 43080, Note_on_c, 1, 81, 127
1, 43080, Note_on_c, 1, 69, 127
1, 43080, Note_on_c, 1, 45, 127
1, 43080, Note_on_c, 1, 62, 127
1, 43080, Note_on_c, 1, 64, 127
1, 43080, Note_on_c, 1, 57, 127
1, 43080, Note_on_c, 1, 42, 127
1, 43109, Note_off_c, 1, 85, 0
1, 43109, Note_off_c, 1, 81, 0
1, 43109, Note_off_c, 1, 45, 0
1, 43109, Note_off_c, 1, 64, 0
1, 43110, Note_on_c, 1, 83, 127
1, 43110, Note_on_c, 1, 79, 127
1, 43127, Note_off_c, 1, 42, 0
1, 43139, Note_off_c, 1, 69, 0
1, 43139, Note_off_c, 1, 62, 0
1, 43139, Note_off_c, 1, 57, 0
1, 43139, Note_off_c, 1, 83, 0
1, 43139, Note_off_c, 1, 79, 0
1, 43140, Note_on_c, 1, 81, 127
1, 43140, Note_on_c, 1, 78, 127
1, 43140, Note_on_c, 1, 69, 127
1, 43140, Note_on_c, 1, 45, 127
1, 43140, Note_on_c, 1, 73, 127
1, 43140, Note_on_c, 1, 64, 127
1, 43169, Note_off_c, 1, 81, 0
1, 43169, Note_off_c, 1, 78, 0
1, 43170, Note_on_c, 1, 79, 127
1, 43170, Note_on_c, 1, 76, 127
1, 43199, Note_off_c, 1, 69, 0
1, 43199, Note_off_c, 1, 45, 0
1, 43199, Note_off_c, 1, 73, 0
1, 43199, Note_off_c, 1, 64, 0
1, 43199, Note_off_c, 1, 79, 0
1, 43199, Note_off_c, 1, 76, 0
1, 43200, Note_on_c, 1, 78, 127
1, 43200, Note_on_c, 1, 74, 127
1, 43200, Note_on_c, 1, 69, 127
1, 43200, Note_on_c, 1, 50, 127
1, 43200, Note_on_c, 1, 66, 127
1, 43200, Note_on_c, 1, 38, 127
1, 43295, Note_off_c, 1, 38, 0
1, 43319, Note_off_c, 1, 78, 0
1, 43319, Note_off_c, 1, 74, 0
1, 43319, Note_off_c, 1, 69, 0
1, 43319, Note_off_c, 1, 50, 0
1, 43319, Note_off_c, 1, 66, 0
1, 43560, Note_on_c, 1, 64, 127
1, 43560, Note_on_c, 1, 59, 127
1, 43560, Note_on_c, 1, 44, 127
1, 43920, Note_on_c, 1, 56, 127
1, 43979, Note_off_c, 1, 56, 0
1, 44010, Note_on_c, 1, 57, 127
1, 44039, Note_off_c, 1, 57, 0
1, 44040, Note_off_c, 1, 64, 0
1, 44040, Note_on_c, 1, 62, 127
1, 44100, Note_on_c, 1, 52, 127
1, 44159, Note_off_c, 1, 52, 0
1, 44400, Note_on_c, 1, 66, 127
1, 44459, Note_off_c, 1, 66, 0
1, 44640, Note_off_c, 1, 59, 0
1, 44640, Note_off_c, 1, 44, 0
1, 44640, Note_off_c, 1, 62, 0
1, 44640, Note_on_c, 1, 61, 127
1, 44640, Note_on_c, 1, 65, 127
1, 44640, Note_on_c, 1, 53, 127
1, 44999, Note_off_c, 1, 61, 0
1, 44999, Note_off_c, 1, 65, 0
1, 44999, Note_off_c, 1, 53, 0
1, 45000, Note_on_c, 1, 57, 127
1, 45000, Note_on_c, 1, 66, 127
1, 45000, Note_on_c, 1, 61, 127
1, 45000, Note_on_c, 1, 54, 127
1, 45059, Note_off_c, 1, 57, 0
1, 45119, Note_off_c, 1, 66, 0
1, 45119, Note_off_c, 1, 61, 0
1, 45119, Note_off_c, 1, 54, 0
1, 45120, Note_on_c, 1, 59, 127
1, 45120, Note_on_c, 1, 66, 127
1, 45120, Note_on_c, 1, 50, 127
1, 45180, Note_on_c, 1, 54, 127
1, 45239, Note_off_c, 1, 59, 0
1, 45239, Note_off_c, 1, 66, 0
1, 45239, Note_off_c, 1, 50, 0
1, 45239, Note_off_c, 1, 54, 0
1, 45240, Note_on_c, 1, 56, 127
1, 45240, Note_on_c, 1, 65, 127
1, 45240, Note_on_c, 1, 61, 127
1, 45240, Note_on_c, 1, 49, 127
1, 45299, Note_off_c, 1, 56, 0
1, 45479, Note_off_c, 1, 65, 0
1, 45479, Note_off_c, 1, 61, 0
1, 45479, Note_off_c, 1, 49, 0
1, 45480, Note_on_c, 1, 58, 127
1, 45480, Note_on_c, 1, 66, 127
1, 45480, Note_on_c, 1, 61, 127
1, 45480, Note_on_c, 1, 54, 127
1, 45600, Note_on_c, 1, 59, 127
1, 45659, Note_off_c, 1, 59, 0
1, 45719, Note_off_c, 1, 58, 0
1, 45719, Note_off_c, 1, 66, 0
1, 45719, Note_off_c, 1, 61, 0
1, 45719, Note_off_c, 1, 54, 0
1, 45720, Note_on_c, 1, 62, 127
1, 45720, Note_on_c, 1, 59, 127
1, 45720, Note_on_c, 1, 47, 127
1, 45750, Note_on_c, 1, 61, 127
1, 45779, Note_off_c, 1, 61, 0
1, 45839, Note_off_c, 1, 62, 0
1, 45839, Note_off_c, 1, 59, 0
1, 45839, Note_off_c, 1, 47, 0
1, 45840, Note_on_c, 1, 64, 127
1, 45840, Note_on_c, 1, 59, 127
1, 45840, Note_on_c, 1, 43, 127
1, 45959, Note_off_c, 1, 64, 0
1, 45959, Note_off_c, 1, 59, 0
1, 45959, Note_off_c, 1, 43, 0
1, 45960, Note_on_c, 1, 62, 127
1, 45960, Note_on_c, 1, 66, 127
1, 45960, Note_on_c, 1, 61, 127
1, 45960, Note_on_c, 1, 58, 127
1, 45960, Note_on_c, 1, 42, 127
1, 46019, Note_off_c, 1, 62, 0
1, 46260, Note_on_c, 1, 54, 127
1, 46289, Note_off_c, 1, 54, 0
1, 46290, Note_on_c, 1, 56, 127
1, 46319, Note_off_c, 1, 56, 0
1, 46440, Note_off_c, 1, 66, 0
1, 46440, Note_on_c, 1, 64, 127
1, 46800, Note_on_c, 1, 59, 127
1, 46859, Note_off_c, 1, 59, 0
1, 46920, Note_off_c, 1, 61, 0
1, 46920, Note_off_c, 1, 58, 0
1, 46920, Note_off_c, 1, 42, 0
1, 46920, Note_off_c, 1, 64, 0
1, 46920, Note_on_c, 1, 47, 127
1, 47220, Note_on_c, 1, 55, 127
1, 47279, Note_off_c, 1, 47, 0
1, 47279, Note_off_c, 1, 55, 0
1, 47280, Note_on_c, 1, 52, 127
1, 47280, Note_on_c, 1, 57, 127
1, 47280, Note_on_c, 1, 61, 127
1, 47280, Note_on_c, 1, 64, 127
1, 47280, Note_on_c, 1, 49, 127
1, 47339, Note_off_c, 1, 52, 0
1, 47519, Note_off_c, 1, 57, 0
1, 47519, Note_off_c, 1, 61, 0
1, 47519, Note_off_c, 1, 64, 0
1, 47519, Note_off_c, 1, 49, 0
1, 47520, Note_on_c, 1, 54, 127
1, 47520, Note_on_c, 1, 66, 127
1, 47520, Note_on_c, 1, 62, 127
1, 47520, Note_on_c, 1, 50, 127
1, 47579, Note_off_c, 1, 54, 0
1, 47759, Note_off_c, 1, 66, 0
1, 47759, Note_off_c, 1, 62, 0
1, 47759, Note_off_c, 1, 50, 0
1, 47760, Note_on_c, 1, 57, 127
1, 47760, Note_on_c, 1, 66, 127
1, 47760, Note_on_c, 1, 62, 127
1, 47760, Note_on_c, 1, 54, 127
1, 47819, Note_off_c, 1, 57, 0
1, 47820, Note_on_c, 1, 50, 127
1, 47879, Note_off_c, 1, 66, 0
1, 47879, Note_off_c, 1, 62, 0
1, 47879, Note_off_c, 1, 54, 0
1, 47879, Note_off_c, 1, 50, 0
1, 47880, Note_on_c, 1, 59, 127
1, 47880, Note_on_c, 1, 62, 127
1, 47880, Note_on_c, 1, 67, 127
1, 47880, Note_on_c, 1, 55, 127
1, 47999, Note_off_c, 1, 59, 0
1, 47999, Note_off_c, 1, 62, 0
1, 47999, Note_off_c, 1, 67, 0
1, 47999, Note_off_c, 1, 55, 0
1, 48000, Note_on_c, 1, 61, 127
1, 48000, Note_on_c, 1, 62, 127
1, 48000, Note_on_c, 1, 64, 127
1, 48000, Note_on_c, 1, 59, 127
1, 48000, Note_on_c, 1, 56, 127
1, 48059, Note_off_c, 1, 61, 0
1, 48119, Note_off_c, 1, 62, 0
1, 48119, Note_off_c, 1, 64, 0
1, 48119, Note_off_c, 1, 59, 0
1, 48119, Note_off_c, 1, 56, 0
1, 48120, Note_on_c, 1, 62, 127
1, 48209, Note_off_c, 1, 62, 0
1, 48210, Note_on_c, 1, 61, 127
1, 48224, Note_off_c, 1, 61, 0
1, 48225, Note_on_c, 1, 59, 127
1, 48239, Note_off_c, 1, 59, 0
1, 48240, Note_on_c, 1, 57, 127
1, 48240, Note_on_c, 1, 69, 127
1, 48240, Note_on_c, 1, 64, 127
1, 48240, Note_on_c, 1, 61, 127
1, 48329, Note_off_c, 1, 69, 0
1, 48330, Note_on_c, 1, 67, 127
1, 48359, Note_off_c, 1, 57, 0
1, 48359, Note_off_c, 1, 64, 0
1, 48359, Note_off_c, 1, 61, 0
1, 48360, Note_off_c, 1, 67, 0
1, 48360, Note_on_c, 1, 66, 127
1, 48360, Note_on_c, 1, 62, 127
1, 48360, Note_on_c, 1, 50, 127
1, 48600, Note_off_c, 1, 66, 0
1, 48600, Note_off_c, 1, 62, 0
1, 48600, Note_off_c, 1, 50, 0
1, 48840, Note_on_c, 1, 78, 127
1, 48840, Note_on_c, 1, 74, 127
1, 48840, Note_on_c, 1, 71, 127
1, 48840, Note_on_c, 1, 66, 127
1, 48840, Note_on_c, 1, 62, 127
1, 48840, Note_on_c, 1, 47, 127
1, 49079, Note_off_c, 1, 78, 0
1, 49079, Note_off_c, 1, 74, 0
1, 49079, Note_off_c, 1, 71, 0
1, 49080, Note_off_c, 1, 66, 0
1, 49080, Note_off_c, 1, 62, 0
1, 49080, Note_on_c, 1, 76, 127
1, 49080, Note_on_c, 1, 73, 127
1, 49080, Note_on_c, 1, 67, 127
1, 49080, Note_on_c, 1, 64, 127
1, 49080, Note_on_c, 1, 61, 127
1, 49320, Note_on_c, 1, 70, 127
1, 49439, Note_off_c, 1, 76, 0
1, 49439, Note_off_c, 1, 73, 0
1, 49439, Note_off_c, 1, 67, 0
1, 49440, Note_on_c, 1, 79, 127
1, 49499, Note_off_c, 1, 79, 0
1, 49560, Note_off_c, 1, 64, 0
1, 49560, Note_off_c, 1, 61, 0
1, 49560, Note_off_c, 1, 70, 0
1, 49980, Note_on_c, 1, 72, 127
1, 50039, Note_off_c, 1, 72, 0
1, 50040, Note_off_c, 1, 47, 0
1, 50040, Note_on_c, 1, 75, 127
1, 50040, Note_on_c, 1, 54, 127
1, 50040, Note_on_c, 1, 63, 127
1, 50040, Note_on_c, 1, 60, 127
1, 50040, Note_on_c, 1, 45, 127
1, 50280, Note_off_c, 1, 54, 0
1, 50280, Note_off_c, 1, 60, 0
1, 50280, Note_on_c, 1, 59, 127
1, 50400, Note_on_c, 1, 69, 127
1, 50459, Note_off_c, 1, 69, 0
1, 50460, Note_on_c, 1, 68, 127
1, 50519, Note_off_c, 1, 75, 0
1, 50519, Note_off_c, 1, 45, 0
1, 50519, Note_off_c, 1, 68, 0
1, 50520, Note_off_c, 1, 63, 0
1, 50520, Note_on_c, 1, 44, 127
1, 51120, Note_off_c, 1, 59, 0
1, 51120, Note_off_c, 1, 44, 0
1, 51120, Note_on_c, 1, 80, 127
1, 51120, Note_on_c, 1, 65, 127
1, 51120, Note_on_c, 1, 77, 127
1, 51179, Note_off_c, 1, 77, 0
1, 51239, Note_off_c, 1, 80, 0
1, 51240, Note_off_c, 1, 65, 0
1, 51360, Note_on_c, 1, 50, 127
1, 51480, Note_off_c, 1, 50, 0
1, 51600, Note_on_c, 1, 77, 127
1, 51600, Note_on_c, 1, 73, 127
1, 51600, Note_on_c, 1, 68, 127
1, 51600, Note_on_c, 1, 65, 127
1, 51600, Note_on_c, 1, 49, 127
1, 51719, Note_off_c, 1, 77, 0
1, 51719, Note_off_c, 1, 73, 0
1, 51720, Note_off_c, 1, 68, 0
1, 51720, Note_off_c, 1, 65, 0
1, 51720, Note_off_c, 1, 49, 0
1, 51720, Note_on_c, 1, 78, 127
1, 51720, Note_on_c, 1, 69, 127
1, 51720, Note_on_c, 1, 66, 127
1, 51720, Note_on_c, 1, 61, 127
1, 51720, Note_on_c, 1, 57, 127
1, 51720, Note_on_c, 1, 42, 127
1, 52079, Note_off_c, 1, 78, 0
1, 52080, Note_off_c, 1, 66, 0
1, 52080, Note_off_c, 1, 61, 0
1, 52080, Note_off_c, 1, 42, 0
1, 52080, Note_on_c, 1, 76, 127
1, 52080, Note_on_c, 1, 79, 127
1, 52080, Note_on_c, 1, 67, 127
1, 52139, Note_off_c, 1, 79, 0
1, 52560, Note_off_c, 1, 69, 0
1, 52560, Note_on_c, 1, 64, 127
1, 52619, Note_off_c, 1, 64, 0
1, 52680, Note_off_c, 1, 57, 0
1, 52680, Note_off_c, 1, 67, 0
1, 52680, Note_on_c, 1, 58, 127
1, 52680, Note_on_c, 1, 46, 127
1, 52860, Note_on_c, 1, 74, 127
1, 52919, Note_off_c, 1, 74, 0
1, 53400, Note_off_c, 1, 76, 0
1, 53400, Note_off_c, 1, 58, 0
1, 53400, Note_off_c, 1, 46, 0
1, 53400, Note_on_c, 1, 62, 127
1, 53400, Note_on_c, 1, 47, 127
1, 53640, Note_off_c, 1, 62, 0
1, 53640, Note_off_c, 1, 47, 0
1, 53700, Note_on_c, 1, 45, 127
1, 53760, Note_off_c, 1, 45, 0
1, 53760, Note_on_c, 1, 59, 127
1, 53760, Note_on_c, 1, 52, 127
1, 53820, Note_off_c, 1, 52, 0
1, 53820, Note_on_c, 1, 40, 127
1, 53880, Note_off_c, 1, 59, 0
1, 53880, Note_off_c, 1, 40, 0
1, 54360, Note_on_c, 1, 69, 127
1, 54360, Note_on_c, 1, 64, 127
1, 54360, Note_on_c, 1, 49, 127
1, 54419, Note_off_c, 1, 64, 0
1, 54420, Note_off_c, 1, 69, 0
1, 54420, Note_off_c, 1, 49, 0
1, 54420, Note_on_c, 1, 71, 127
1, 54420, Note_on_c, 1, 68, 127
1, 54420, Note_on_c, 1, 52, 127
1, 54450, Note_off_c, 1, 71, 0
1, 54450, Note_on_c, 1, 73, 127
1, 54480, Note_off_c, 1, 68, 0
1, 54480, Note_off_c, 1, 52, 0
1, 54480, Note_off_c, 1, 73, 0
1, 54480, Note_on_c, 1, 74, 127
1, 54480, Note_on_c, 1, 57, 127
1, 54510, Note_off_c, 1, 74, 0
1, 54540, Note_off_c, 1, 57, 0
1, 54540, Note_on_c, 1, 61, 127
1, 54600, Note_off_c, 1, 61, 0
1, 54600, Note_on_c, 1, 78, 127
1, 54600, Note_on_c, 1, 62, 127
1, 54660, Note_off_c, 1, 78, 0
1, 54660, Note_off_c, 1, 62, 0
1, 54720, Note_on_c, 1, 76, 127
1, 54720, Note_on_c, 1, 69, 127
1, 54720, Note_on_c, 1, 64, 127
1, 54720, Note_on_c, 1, 61, 127
1, 54779, Note_off_c, 1, 64, 0
1, 54780, Note_off_c, 1, 76, 0
1, 54780, Note_off_c, 1, 69, 0
1, 54780, Note_off_c, 1, 61, 0
1, 54840, Note_on_c, 1, 74, 127
1, 54840, Note_on_c, 1, 69, 127
1, 54840, Note_on_c, 1, 66, 127
1, 54840, Note_on_c, 1, 59, 127
1, 54855, Note_off_c, 1, 74, 0
1, 54855, Note_on_c, 1, 76, 127
1, 54870, Note_off_c, 1, 76, 0
1, 54899, Note_off_c, 1, 66, 0
1, 54900, Note_off_c, 1, 69, 0
1, 54900, Note_off_c, 1, 59, 0
1, 54900, Note_on_c, 1, 68, 127
1, 54900, Note_on_c, 1, 64, 127
1, 54900, Note_on_c, 1, 52, 127
1, 54960, Note_off_c, 1, 68, 0
1, 54960, Note_off_c, 1, 52, 0
1, 54960, Note_on_c, 1, 73, 127
1, 54960, Note_on_c, 1, 57, 127
1, 55019, Note_off_c, 1, 64, 0
1, 55020, Note_off_c, 1, 73, 0
1, 55020, Note_off_c, 1, 57, 0
1, 55020, Note_on_c, 1, 71, 127
1, 55020, Note_on_c, 1, 62, 127
1, 55020, Note_on_c, 1, 50, 127
1, 55049, Note_off_c, 1, 62, 0
1, 55050, Note_off_c, 1, 50, 0
1, 55050, Note_on_c, 1, 49, 127
1, 55080, Note_off_c, 1, 49, 0
1, 55110, Note_on_c, 1, 61, 127
1, 55140, Note_off_c, 1, 71, 0
1, 55140, Note_off_c, 1, 61, 0
1, 55320, Note_on_c, 1, 54, 127
1, 55380, Note_off_c, 1, 54, 0
1, 55380, Note_on_c, 1, 56, 127
1, 55440, Note_off_c, 1, 56, 0
1, 55620, Note_on_c, 1, 40, 127
1, 55680, Note_off_c, 1, 40, 0
1, 56040, Note_on_c, 1, 78, 127
1, 56100, Note_off_c, 1, 78, 0
1, 56160, Note_on_c, 1, 76, 127
1, 56160, Note_on_c, 1, 69, 127
1, 56160, Note_on_c, 1, 64, 127
1, 56160, Note_on_c, 1, 61, 127
1, 56219, Note_off_c, 1, 64, 0
1, 56220, Note_off_c, 1, 76, 0
1, 56220, Note_off_c, 1, 69, 0
1, 56220, Note_off_c, 1, 61, 0
1, 56280, Note_on_c, 1, 74, 127
1, 56280, Note_on_c, 1, 69, 127
1, 56280, Note_on_c, 1, 66, 127
1, 56280, Note_on_c, 1, 59, 127
1, 56295, Note_off_c, 1, 74, 0
1, 56295, Note_on_c, 1, 76, 127
1, 56310, Note_off_c, 1, 76, 0
1, 56339, Note_off_c, 1, 66, 0
1, 56340, Note_off_c, 1, 69, 0
1, 56340, Note_off_c, 1, 59, 0
1, 56340, Note_on_c, 1, 68, 127
1, 56340, Note_on_c, 1, 64, 127
1, 56340, Note_on_c, 1, 52, 127
1, 56400, Note_off_c, 1, 68, 0
1, 56400, Note_off_c, 1, 52, 0
1, 56400, Note_on_c, 1, 73, 127
1, 56400, Note_on_c, 1, 57, 127
1, 56459, Note_off_c, 1, 64, 0
1, 56460, Note_off_c, 1, 73, 0
1, 56460, Note_off_c, 1, 57, 0
1, 56460, Note_on_c, 1, 71, 127
1, 56460, Note_on_c, 1, 62, 127
1, 56460, Note_on_c, 1, 50, 127
1, 56489, Note_off_c, 1, 62, 0
1, 56490, Note_off_c, 1, 50, 0
1, 56490, Note_on_c, 1, 49, 127
1, 56520, Note_off_c, 1, 49, 0
1, 56550, Note_on_c, 1, 61, 127
1, 56580, Note_off_c, 1, 71, 0
1, 56580, Note_off_c, 1, 61, 0
1, 56760, Note_on_c, 1, 54, 127
1, 56820, Note_off_c, 1, 54, 0
1, 56820, Note_on_c, 1, 56, 127
1, 56880, Note_off_c, 1, 56, 0
1, 57240, Note_on_c, 1, 75, 127
1, 57270, Note_off_c, 1, 75, 0
1, 57300, Note_on_c, 1, 78, 127
1, 57300, Note_on_c, 1, 47, 127
1, 57330, Note_off_c, 1, 78, 0
1, 57360, Note_off_c, 1, 47, 0
1, 57360, Note_on_c, 1, 79, 127
1, 57390, Note_off_c, 1, 79, 0
1, 57420, Note_on_c, 1, 55, 127
1, 57480, Note_off_c, 1, 55, 0
1, 57480, Note_on_c, 1, 67, 127
1, 57509, Note_off_c, 1, 67, 0
1, 57660, Note_on_c, 1, 70, 127
1, 57720, Note_off_c, 1, 70, 0
1, 57720, Note_on_c, 1, 51, 127
1, 57780, Note_off_c, 1, 51, 0
1, 57840, Note_on_c, 1, 60, 127
1, 57840, Note_on_c, 1, 45, 127
1, 57870, Note_off_c, 1, 60, 0
1, 57870, Note_off_c, 1, 45, 0
1, 57870, Note_on_c, 1, 43, 127
1, 57900, Note_off_c, 1, 43, 0
1, 57960, Note_on_c, 1, 63, 127
1, 57990, Note_off_c, 1, 63, 0
1, 58020, Note_on_c, 1, 44, 127
1, 58080, Note_off_c, 1, 44, 0
1, 58080, Note_on_c, 1, 42, 127
1, 58140, Note_off_c, 1, 42, 0
1, 59940, Note_on_c, 1, 40, 127
1, 60000, Note_off_c, 1, 40, 0
1, 60660, Note_on_c, 1, 80, 127
1, 60719, Note_off_c, 1, 80, 0
1, 60720, Note_on_c, 1, 81, 127
1, 60779, Note_off_c, 1, 81, 0
1, 61860, Note_on_c, 1, 72, 127
1, 61920, Note_off_c, 1, 72, 0
1, 63150, Note_on_c, 1, 58, 127
1, 63179, Note_off_c, 1, 58, 0
1, 63720, Note_on_c, 1, 53, 127
1, 63780, Note_off_c, 1, 53, 0
1, 63780, Note_on_c, 1, 65, 127
1, 63839, Note_off_c, 1, 65, 0
1, 64080, Note_on_c, 1, 80, 127
1, 64080, Note_on_c, 1, 74, 127
1, 64080, Note_on_c, 1, 71, 127
1, 64080, Note_on_c, 1, 47, 127
1, 64139, Note_off_c, 1, 74, 0
1, 64139, Note_off_c, 1, 71, 0
1, 64140, Note_off_c, 1, 80, 0
1, 64140, Note_off_c, 1, 47, 0
1, 64200, Note_on_c, 1, 77, 127
1, 64200, Note_on_c, 1, 73, 127
1, 64200, Note_on_c, 1, 68, 127
1, 64200, Note_on_c, 1, 49, 127
1, 64215, Note_off_c, 1, 77, 0
1, 64215, Note_on_c, 1, 78, 127
1, 64230, Note_off_c, 1, 78, 0
1, 64259, Note_off_c, 1, 68, 0
1, 64260, Note_off_c, 1, 49, 0
1, 64260, Note_on_c, 1, 61, 127
1, 64320, Note_off_c, 1, 61, 0
1, 64320, Note_on_c, 1, 66, 127
1, 64320, Note_on_c, 1, 59, 127
1, 64350, Note_off_c, 1, 59, 0
1, 64350, Note_on_c, 1, 57, 127
1, 64379, Note_off_c, 1, 66, 0
1, 64380, Note_off_c, 1, 73, 0
1, 64380, Note_off_c, 1, 57, 0
1, 64380, Note_on_c, 1, 71, 127
1, 64380, Note_on_c, 1, 56, 127
1, 64409, Note_off_c, 1, 71, 0
1, 64410, Note_off_c, 1, 56, 0
1, 64410, Note_on_c, 1, 69, 127
1, 64410, Note_on_c, 1, 54, 127
1, 64439, Note_off_c, 1, 69, 0
1, 64440, Note_off_c, 1, 54, 0
1, 64500, Note_on_c, 1, 76, 127
1, 64500, Note_on_c, 1, 58, 127
1, 64530, Note_off_c, 1, 76, 0
1, 64530, Note_on_c, 1, 74, 127
1, 64560, Note_off_c, 1, 58, 0
1, 64560, Note_off_c, 1, 74, 0
1, 64620, Note_on_c, 1, 47, 127
1, 64680, Note_off_c, 1, 47, 0
1, 64680, Note_on_c, 1, 65, 127
1, 64739, Note_off_c, 1, 65, 0
1, 64740, Note_on_c, 1, 51, 127
1, 64800, Note_off_c, 1, 51, 0
1, 64800, Note_on_c, 1, 53, 127
1, 64860, Note_off_c, 1, 53, 0
1, 64860, Note_on_c, 1, 62, 127
1, 64979, Note_off_c, 1, 62, 0
1, 65340, Note_on_c, 1, 45, 127
1, 65400, Note_off_c, 1, 45, 0
1, 65400, Note_on_c, 1, 50, 127
1, 65460, Note_off_c, 1, 50, 0
1, 65580, Note_on_c, 1, 37, 127
1, 65640, Note_off_c, 1, 37, 0
1, 65640, Note_on_c, 1, 42, 127
1, 65700, Note_off_c, 1, 42, 0
1, 65820, Note_on_c, 1, 63, 127
1, 65849, Note_off_c, 1, 63, 0
1, 66060, Note_on_c, 1, 52, 127
1, 66090, Note_off_c, 1, 52, 0
1, 66180, Note_on_c, 1, 64, 127
1, 66240, Note_on_c, 1, 79, 127
1, 66270, Note_off_c, 1, 79, 0
1, 66299, Note_off_c, 1, 64, 0
1, 66390, Note_on_c, 1, 67, 127
1, 66419, Note_off_c, 1, 67, 0
1, 66600, Note_on_c, 1, 44, 127
1, 66660, Note_off_c, 1, 44, 0
1, 66660, Note_on_c, 1, 40, 127
1, 66720, Note_off_c, 1, 40, 0
1, 66840, Note_on_c, 1, 81, 127
1, 66870, Note_off_c, 1, 81, 0
1, 66870, Note_on_c, 1, 80, 127
1, 66900, Note_off_c, 1, 80, 0
1, 67080, Note_on_c, 1, 75, 127
1, 67170, Note_off_c, 1, 75, 0
1, 69090, Note_on_c, 1, 70, 127
1, 69119, Note_off_c, 1, 70, 0
1, 69600, Note_on_c, 1, 83, 127
1, 69660, Note_off_c, 1, 83, 0
1, 70680, Note_on_c, 1, 77, 127
1, 70680, Note_on_c, 1, 73, 127
1, 70680, Note_on_c, 1, 68, 127
1, 70680, Note_on_c, 1, 49, 127
1, 70695, Note_on_c, 1, 78, 127
1, 70710, Note_off_c, 1, 78, 0
1, 70739, Note_off_c, 1, 73, 0
1, 70739, Note_off_c, 1, 68, 0
1, 70740, Note_off_c, 1, 49, 0
1, 70740, Note_on_c, 1, 61, 127
1, 70800, Note_off_c, 1, 77, 0
1, 70800, Note_off_c, 1, 61, 0
1, 70800, Note_on_c, 1, 66, 127
1, 70800, Note_on_c, 1, 71, 127
1, 70800, Note_on_c, 1, 59, 127
1, 70830, Note_off_c, 1, 59, 0
1, 70830, Note_on_c, 1, 57, 127
1, 70859, Note_off_c, 1, 66, 0
1, 70859, Note_off_c, 1, 71, 0
1, 70860, Note_off_c, 1, 57, 0
1, 70860, Note_on_c, 1, 56, 127
1, 70890, Note_off_c, 1, 56, 0
1, 70890, Note_on_c, 1, 54, 127
1, 70920, Note_off_c, 1, 54, 0
1, 70980, Note_on_c, 1, 76, 127
1, 70980, Note_on_c, 1, 58, 127
1, 71009, Note_off_c, 1, 76, 0
1, 71010, Note_on_c, 1, 74, 127
1, 71039, Note_off_c, 1, 74, 0
1, 71040, Note_off_c, 1, 58, 0
1, 71100, Note_on_c, 1, 47, 127
1, 71130, Note_on_c, 1, 70, 127
1, 71130, Note_on_c, 1, 67, 127
1, 71159, Note_off_c, 1, 70, 0
1, 71159, Note_off_c, 1, 67, 0
1, 71160, Note_off_c, 1, 47, 0
1, 71280, Note_on_c, 1, 52, 127
1, 71400, Note_off_c, 1, 52, 0
1, 71400, Note_on_c, 1, 50, 127
1, 71460, Note_off_c, 1, 50, 0
1, 71520, Note_on_c, 1, 41, 127
1, 71580, Note_off_c, 1, 41, 0
1, 71580, Note_on_c, 1, 83, 127
1, 71580, Note_on_c, 1, 42, 127
1, 71640, Note_off_c, 1, 42, 0
1, 71640, Note_on_c, 1, 44, 127
1, 71700, Note_off_c, 1, 83, 0
1, 71700, Note_off_c, 1, 44, 0
1, 71700, Note_on_c, 1, 81, 127
1, 71700, Note_on_c, 1, 45, 127
1, 71730, Note_off_c, 1, 81, 0
1, 71730, Note_on_c, 1, 80, 127
1, 71760, Note_off_c, 1, 45, 0
1, 71760, Note_off_c, 1, 80, 0
1, 71760, Note_on_c, 1, 62, 127
1, 71819, Note_off_c, 1, 62, 0
1, 71880, Note_on_c, 1, 63, 127
1, 71939, Note_off_c, 1, 63, 0
1, 72030, Note_on_c, 1, 75, 127
1, 72060, Note_off_c, 1, 75, 0
1, 72180, Note_on_c, 1, 65, 127
1, 72300, Note_off_c, 1, 65, 0
1, 72510, Note_on_c, 1, 69, 127
1, 72539, Note_off_c, 1, 69, 0
1, 72780, Note_on_c, 1, 37, 127
1, 72840, Note_off_c, 1, 37, 0
1, 73320, Note_on_c, 1, 51, 127
1, 73380, Note_off_c, 1, 51, 0
1, 73410, Note_on_c, 1, 64, 127
1, 73439, Note_off_c, 1, 64, 0
1, 73500, Note_on_c, 1, 72, 127
1, 73560, Note_off_c, 1, 72, 0
1, 73560, Note_on_c, 1, 53, 127
1, 73620, Note_off_c, 1, 53, 0
1, 74880, Note_on_c, 1, 79, 127
1, 74909, Note_off_c, 1, 79, 0
1, 75000, Note_on_c, 1, 38, 127
1, 75060, Note_off_c, 1, 38, 0
1, 75480, Note_on_c, 1, 46, 127
1, 75600, Note_off_c, 1, 46, 0
1, 76560, Note_on_c, 1, 40, 127
1, 77520, Note_off_c, 1, 40, 0
1, 79200, Note_on_c, 1, 76, 127
1, 79200, Note_on_c, 1, 69, 127
1, 79200, Note_on_c, 1, 64, 127
1, 79200, Note_on_c, 1, 61, 127
1, 79259, Note_off_c, 1, 69, 0
1, 79259, Note_off_c, 1, 64, 0
1, 79260, Note_off_c, 1, 76, 0
1, 79260, Note_off_c, 1, 61, 0
1, 79320, Note_on_c, 1, 74, 127
1, 79320, Note_on_c, 1, 69, 127
1, 79320, Note_on_c, 1, 66, 127
1, 79320, Note_on_c, 1, 59, 127
1, 79335, Note_off_c, 1, 74, 0
1, 79335, Note_on_c, 1, 76, 127
1, 79350, Note_off_c, 1, 76, 0
1, 79379, Note_off_c, 1, 69, 0
1, 79379, Note_off_c, 1, 66, 0
1, 79380, Note_off_c, 1, 59, 0
1, 79380, Note_on_c, 1, 68, 127
1, 79380, Note_on_c, 1, 64, 127
1, 79380, Note_on_c, 1, 52, 127
1, 79439, Note_off_c, 1, 68, 0
1, 79440, Note_off_c, 1, 52, 0
1, 79440, Note_on_c, 1, 73, 127
1, 79440, Note_on_c, 1, 57, 127
1, 79499, Note_off_c, 1, 64, 0
1, 79500, Note_off_c, 1, 73, 0
1, 79500, Note_off_c, 1, 57, 0
1, 79500, Note_on_c, 1, 71, 127
1, 79500, Note_on_c, 1, 62, 127
1, 79500, Note_on_c, 1, 50, 127
1, 79529, Note_off_c, 1, 62, 0
1, 79530, Note_off_c, 1, 50, 0
1, 79530, Note_on_c, 1, 49, 127
1, 79560, Note_off_c, 1, 49, 0
1, 79590, Note_on_c, 1, 61, 127
1, 79619, Note_off_c, 1, 61, 0
1, 79620, Note_off_c, 1, 71, 0
1, 79800, Note_on_c, 1, 54, 127
1, 79860, Note_off_c, 1, 54, 0
1, 79860, Note_on_c, 1, 56, 127
1, 79920, Note_off_c, 1, 56, 0
1, 80100, Note_on_c, 1, 40, 127
1, 80160, Note_off_c, 1, 40, 0
1, 80520, Note_on_c, 1, 78, 127
1, 80580, Note_off_c, 1, 78, 0
1, 80640, Note_on_c, 1, 76, 127
1, 80640, Note_on_c, 1, 69, 127
1, 80640, Note_on_c, 1, 64, 127
1, 80640, Note_on_c, 1, 61, 127
1, 80699, Note_off_c, 1, 69, 0
1, 80699, Note_off_c, 1, 64, 0
1, 80700, Note_off_c, 1, 76, 0
1, 80700, Note_off_c, 1, 61, 0
1, 80760, Note_on_c, 1, 74, 127
1, 80760, Note_on_c, 1, 69, 127
1, 80760, Note_on_c, 1, 66, 127
1, 80760, Note_on_c, 1, 59, 127
1, 80775, Note_off_c, 1, 74, 0
1, 80775, Note_on_c, 1, 76, 127
1, 80790, Note_off_c, 1, 76, 0
1, 80819, Note_off_c, 1, 69, 0
1, 80819, Note_off_c, 1, 66, 0
1, 80820, Note_off_c, 1, 59, 0
1, 80820, Note_on_c, 1, 68, 127
1, 80820, Note_on_c, 1, 64, 127
1, 80820, Note_on_c, 1, 52, 127
1, 80879, Note_off_c, 1, 68, 0
1, 80880, Note_off_c, 1, 52, 0
1, 80880, Note_on_c, 1, 73, 127
1, 80880, Note_on_c, 1, 57, 127
1, 80939, Note_off_c, 1, 64, 0
1, 80940, Note_off_c, 1, 73, 0
1, 80940, Note_off_c, 1, 57, 0
1, 80940, Note_on_c, 1, 71, 127
1, 80940, Note_on_c, 1, 62, 127
1, 80940, Note_on_c, 1, 50, 127
1, 80969, Note_off_c, 1, 62, 0
1, 80970, Note_off_c, 1, 50, 0
1, 80970, Note_on_c, 1, 49, 127
1, 81000, Note_off_c, 1, 49, 0
1, 81030, Note_on_c, 1, 61, 127
1, 81059, Note_off_c, 1, 61, 0
1, 81060, Note_off_c, 1, 71, 0
1, 81240, Note_on_c, 1, 54, 127
1, 81300, Note_off_c, 1, 54, 0
1, 81300, Note_on_c, 1, 56, 127
1, 81360, Note_off_c, 1, 56, 0
1, 81720, Note_on_c, 1, 75, 127
1, 81750, Note_off_c, 1, 75, 0
1, 81780, Note_on_c, 1, 78, 127
1, 81780, Note_on_c, 1, 47, 127
1, 81810, Note_off_c, 1, 78, 0
1, 81840, Note_off_c, 1, 47, 0
1, 81840, Note_on_c, 1, 79, 127
1, 81870, Note_off_c, 1, 79, 0
1, 81900, Note_on_c, 1, 55, 127
1, 81960, Note_off_c, 1, 55, 0
1, 81960, Note_on_c, 1, 67, 127
1, 81989, Note_off_c, 1, 67, 0
1, 82140, Note_on_c, 1, 70, 127
1, 82200, Note_off_c, 1, 70, 0
1, 82200, Note_on_c, 1, 51, 127
1, 82260, Note_off_c, 1, 51, 0
1, 82320, Note_on_c, 1, 60, 127
1, 82320, Note_on_c, 1, 45, 127
1, 82349, Note_off_c, 1, 60, 0
1, 82350, Note_off_c, 1, 45, 0
1, 82350, Note_on_c, 1, 43, 127
1, 82380, Note_off_c, 1, 43, 0
1, 82440, Note_on_c, 1, 63, 127
1, 82470, Note_off_c, 1, 63, 0
1, 82500, Note_on_c, 1, 44, 127
1, 82560, Note_off_c, 1, 44, 0
1, 82560, Note_on_c, 1, 42, 127
1, 82620, Note_off_c, 1, 42, 0
1, 82920, Note_on_c, 1, 40, 127
1, 82980, Note_off_c, 1, 40, 0
1, 83310, Note_on_c, 1, 58, 127
1, 83339, Note_off_c, 1, 58, 0
1, 83880, Note_on_c, 1, 53, 127
1, 83940, Note_off_c, 1, 53, 0
1, 83940, Note_on_c, 1, 65, 127
1, 83999, Note_off_c, 1, 65, 0
1, 84135, Note_on_c, 1, 80, 127
1, 84150, Note_off_c, 1, 80, 0
1, 84150, Note_on_c, 1, 81, 127
1, 84180, Note_off_c, 1, 81, 0
1, 84240, Note_on_c, 1, 80, 127
1, 84240, Note_on_c, 1, 74, 127
1, 84240, Note_on_c, 1, 71, 127
1, 84240, Note_on_c, 1, 47, 127
1, 84299, Note_off_c, 1, 74, 0
1, 84299, Note_off_c, 1, 71, 0
1, 84300, Note_off_c, 1, 80, 0
1, 84300, Note_off_c, 1, 47, 0
1, 84360, Note_on_c, 1, 77, 127
1, 84360, Note_on_c, 1, 73, 127
1, 84360, Note_on_c, 1, 68, 127
1, 84360, Note_on_c, 1, 49, 127
1, 84375, Note_off_c, 1, 77, 0
1, 84375, Note_on_c, 1, 78, 127
1, 84390, Note_off_c, 1, 78, 0
1, 84419, Note_off_c, 1, 68, 0
1, 84420, Note_off_c, 1, 49, 0
1, 84420, Note_on_c, 1, 61, 127
1, 84480, Note_off_c, 1, 61, 0
1, 84480, Note_on_c, 1, 66, 127
1, 84480, Note_on_c, 1, 59, 127
1, 84510, Note_off_c, 1, 59, 0
1, 84510, Note_on_c, 1, 57, 127
1, 84539, Note_off_c, 1, 66, 0
1, 84540, Note_off_c, 1, 73, 0
1, 84540, Note_off_c, 1, 57, 0
1, 84540, Note_on_c, 1, 71, 127
1, 84540, Note_on_c, 1, 56, 127
1, 84569, Note_off_c, 1, 71, 0
1, 84570, Note_off_c, 1, 56, 0
1, 84570, Note_on_c, 1, 69, 127
1, 84570, Note_on_c, 1, 54, 127
1, 84599, Note_off_c, 1, 69, 0
1, 84600, Note_off_c, 1, 54, 0
1, 84660, Note_on_c, 1, 76, 127
1, 84660, Note_on_c, 1, 58, 127
1, 84690, Note_off_c, 1, 76, 0
1, 84690, Note_on_c, 1, 74, 127
1, 84720, Note_off_c, 1, 58, 0
1, 84720, Note_off_c, 1, 74, 0
1, 84780, Note_on_c, 1, 47, 127
1, 84840, Note_off_c, 1, 47, 0
1, 84840, Note_on_c, 1, 65, 127
1, 84899, Note_off_c, 1, 65, 0
1, 84900, Note_on_c, 1, 51, 127
1, 84960, Note_off_c, 1, 51, 0
1, 84960, Note_on_c, 1, 53, 127
1, 85020, Note_off_c, 1, 53, 0
1, 85020, Note_on_c, 1, 62, 127
1, 85139, Note_off_c, 1, 62, 0
1, 85500, Note_on_c, 1, 45, 127
1, 85560, Note_off_c, 1, 45, 0
1, 85560, Note_on_c, 1, 50, 127
1, 85620, Note_off_c, 1, 50, 0
1, 85740, Note_on_c, 1, 37, 127
1, 85800, Note_off_c, 1, 37, 0
1, 85800, Note_on_c, 1, 42, 127
1, 85860, Note_off_c, 1, 42, 0
1, 85980, Note_on_c, 1, 63, 127
1, 86009, Note_off_c, 1, 63, 0
1, 86220, Note_on_c, 1, 52, 127
1, 86250, Note_off_c, 1, 52, 0
1, 86340, Note_on_c, 1, 64, 127
1, 86400, Note_on_c, 1, 79, 127
1, 86430, Note_off_c, 1, 79, 0
1, 86459, Note_off_c, 1, 64, 0
1, 86550, Note_on_c, 1, 67, 127
1, 86579, Note_off_c, 1, 67, 0
1, 86760, Note_on_c, 1, 44, 127
1, 86820, Note_off_c, 1, 44, 0
1, 86820, Note_on_c, 1, 40, 127
1, 86880, Note_off_c, 1, 40, 0
1, 87000, Note_on_c, 1, 81, 127
1, 87030, Note_off_c, 1, 81, 0
1, 87030, Note_on_c, 1, 80, 127
1, 87060, Note_off_c, 1, 80, 0
1, 87240, Note_on_c, 1, 75, 127
1, 87330, Note_off_c, 1, 75, 0
1, 89040, Note_on_c, 1, 66, 127
1, 89040, Note_on_c, 1, 61, 127
1, 89040, Note_on_c, 1, 57, 127
1, 89040, Note_on_c, 1, 42, 127
1, 89220, Note_on_c, 1, 59, 127
1, 89279, Note_off_c, 1, 59, 0
1, 89460, Note_on_c, 1, 54, 127
1, 89519, Note_off_c, 1, 54, 0
1, 89520, Note_off_c, 1, 66, 0
1, 89520, Note_on_c, 1, 63, 127
1, 89640, Note_off_c, 1, 61, 0
1, 89640, Note_off_c, 1, 57, 0
1, 89640, Note_off_c, 1, 63, 0
1, 89640, Note_on_c, 1, 60, 127
1, 89640, Note_on_c, 1, 56, 127
1, 89759, Note_off_c, 1, 42, 0
1, 89760, Note_off_c, 1, 60, 0
1, 89760, Note_off_c, 1, 56, 0
1, 89760, Note_on_c, 1, 64, 127
1, 89760, Note_on_c, 1, 49, 127
1, 89999, Note_off_c, 1, 64, 0
1, 89999, Note_off_c, 1, 49, 0
1, 90000, Note_on_c, 1, 68, 127
1, 90000, Note_on_c, 1, 47, 127
1, 90000, Note_on_c, 1, 65, 127
1, 90000, Note_on_c, 1, 56, 127
1, 90000, Note_on_c, 1, 61, 127
1, 90059, Note_off_c, 1, 68, 0
1, 90420, Note_on_c, 1, 66, 127
1, 90479, Note_off_c, 1, 66, 0
1, 90720, Note_on_c, 1, 63, 127
1, 90779, Note_off_c, 1, 63, 0
1, 90840, Note_off_c, 1, 47, 0
1, 90840, Note_off_c, 1, 65, 0
1, 90840, Note_off_c, 1, 56, 0
1, 90840, Note_on_c, 1, 58, 127
1, 90840, Note_on_c, 1, 46, 127
1, 91050, Note_on_c, 1, 54, 127
1, 91079, Note_off_c, 1, 54, 0
1, 91080, Note_on_c, 1, 64, 127
1, 91199, Note_off_c, 1, 61, 0
1, 91199, Note_off_c, 1, 58, 0
1, 91199, Note_off_c, 1, 46, 0
1, 91200, Note_off_c, 1, 64, 0
1, 91200, Note_on_c, 1, 45, 127
1, 91200, Note_on_c, 1, 59, 127
1, 91440, Note_off_c, 1, 45, 0
1, 91440, Note_on_c, 1, 44, 127
1, 91620, Note_on_c, 1, 52, 127
1, 91679, Note_off_c, 1, 52, 0
1, 91680, Note_on_c, 1, 62, 127
1, 92160, Note_off_c, 1, 59, 0
1, 92160, Note_off_c, 1, 44, 0
1, 92160, Note_off_c, 1, 62, 0
1, 92160, Note_on_c, 1, 57, 127
1, 92519, Note_off_c, 1, 57, 0
1, 92520, Note_on_c, 1, 64, 127
1, 92520, Note_on_c, 1, 49, 127
1, 92520, Note_on_c, 1, 57, 127
1, 92520, Note_on_c, 1, 61, 127
1, 92730, Note_on_c, 1, 66, 127
1, 92759, Note_off_c, 1, 66, 0
1, 92760, Note_on_c, 1, 67, 127
1, 92819, Note_off_c, 1, 67, 0
1, 92820, Note_on_c, 1, 69, 127
1, 92849, Note_off_c, 1, 69, 0
1, 92879, Note_off_c, 1, 64, 0
1, 92879, Note_off_c, 1, 49, 0
1, 92879, Note_off_c, 1, 57, 0
1, 92879, Note_off_c, 1, 61, 0
1, 92880, Note_on_c, 1, 66, 127
1, 92880, Note_on_c, 1, 50, 127
1, 92880, Note_on_c, 1, 57, 127
1, 92880, Note_on_c, 1, 62, 127
1, 93240, Note_on_c, 1, 54, 127
1, 93299, Note_off_c, 1, 54, 0
1, 93359, Note_off_c, 1, 66, 0
1, 93359, Note_off_c, 1, 50, 0
1, 93359, Note_off_c, 1, 57, 0
1, 93359, Note_off_c, 1, 62, 0
1, 93360, Note_on_c, 1, 50, 127
1, 93360, Note_on_c, 1, 62, 127
1, 93360, Note_on_c, 1, 54, 127
1, 93360, Note_on_c, 1, 57, 127
1, 93419, Note_off_c, 1, 50, 0
1, 93570, Note_on_c, 1, 59, 127
1, 93599, Note_off_c, 1, 59, 0
1, 93600, Note_off_c, 1, 62, 0
1, 93600, Note_on_c, 1, 60, 127
1, 93720, Note_on_c, 1, 64, 127
1, 93779, Note_off_c, 1, 64, 0
1, 94080, Note_off_c, 1, 54, 0
1, 94080, Note_on_c, 1, 63, 127
1, 94080, Note_on_c, 1, 51, 127
1, 94320, Note_off_c, 1, 60, 0
1, 94560, Note_off_c, 1, 63, 0
1, 94800, Note_off_c, 1, 57, 0
1, 94800, Note_off_c, 1, 51, 0
1, 94800, Note_on_c, 1, 55, 127
1, 94800, Note_on_c, 1, 52, 127
1, 94980, Note_on_c, 1, 66, 127
1, 95039, Note_off_c, 1, 66, 0
1, 95040, Note_on_c, 1, 67, 127
1, 95099, Note_off_c, 1, 67, 0
1, 95279, Note_off_c, 1, 55, 0
1, 95279, Note_off_c, 1, 52, 0
1, 95280, Note_on_c, 1, 69, 127
1, 95280, Note_on_c, 1, 54, 127
1, 95280, Note_on_c, 1, 57, 127
1, 95280, Note_on_c, 1, 62, 127
1, 95280, Note_on_c, 1, 66, 127
1, 95339, Note_off_c, 1, 69, 0
1, 95519, Note_off_c, 1, 54, 0
1, 95519, Note_off_c, 1, 57, 0
1, 95519, Note_off_c, 1, 62, 0
1, 95519, Note_off_c, 1, 66, 0
1, 95520, Note_on_c, 1, 59, 127
1, 95520, Note_on_c, 1, 67, 127
1, 95520, Note_on_c, 1, 55, 127
1, 95520, Note_on_c, 1, 62, 127
1, 95580, Note_on_c, 1, 57, 127
1, 95609, Note_off_c, 1, 57, 0
1, 95640, Note_off_c, 1, 67, 0
1, 95640, Note_on_c, 1, 65, 127
1, 95759, Note_off_c, 1, 59, 0
1, 95759, Note_off_c, 1, 55, 0
1, 95759, Note_off_c, 1, 62, 0
1, 95760, Note_off_c, 1, 65, 0
1, 95760, Note_on_c, 1, 64, 127
1, 95760, Note_on_c, 1, 60, 127
1, 95760, Note_on_c, 1, 48, 127
1, 95820, Note_off_c, 1, 64, 0
1, 95820, Note_off_c, 1, 60, 0
1, 95820, Note_on_c, 1, 66, 127
1, 95820, Note_on_c, 1, 69, 127
1, 95879, Note_off_c, 1, 48, 0
1, 95880, Note_off_c, 1, 66, 0
1, 95880, Note_off_c, 1, 69, 0
1, 95880, Note_on_c, 1, 49, 127
1, 95880, Note_on_c, 1, 71, 127
1, 95999, Note_off_c, 1, 49, 0
1, 95999, Note_off_c, 1, 71, 0
1, 96000, Note_on_c, 1, 67, 127
1, 96059, Note_off_c, 1, 67, 0
1, 96060, Note_on_c, 1, 62, 127
1, 96119, Note_off_c, 1, 62, 0
1, 96120, Note_on_c, 1, 71, 127
1, 96120, Note_on_c, 1, 67, 127
1, 96120, Note_on_c, 1, 62, 127
1, 96120, Note_on_c, 1, 50, 127
1, 96180, Note_off_c, 1, 71, 0
1, 96180, Note_off_c, 1, 67, 0
1, 96180, Note_on_c, 1, 66, 127
1, 96180, Note_on_c, 1, 69, 127
1, 96239, Note_off_c, 1, 62, 0
1, 96239, Note_off_c, 1, 50, 0
1, 96240, Note_off_c, 1, 66, 0
1, 96240, Note_off_c, 1, 69, 0
1, 96240, Note_on_c, 1, 43, 127
1, 96479, Note_off_c, 1, 43, 0
1, 97080, Note_on_c, 1, 67, 127
1, 97080, Note_on_c, 1, 62, 127
1, 97080, Note_on_c, 1, 59, 127
1, 97080, Note_on_c, 1, 55, 127
1, 97140, Note_off_c, 1, 55, 0
1, 97140, Note_on_c, 1, 54, 127
1, 97140, Note_on_c, 1, 69, 127
1, 97200, Note_off_c, 1, 62, 0
1, 97200, Note_off_c, 1, 54, 0
1, 97200, Note_off_c, 1, 69, 0
1, 97200, Note_on_c, 1, 64, 127
1, 97200, Note_on_c, 1, 52, 127
1, 97260, Note_on_c, 1, 66, 127
1, 97260, Note_on_c, 1, 40, 127
1, 97320, Note_off_c, 1, 59, 0
1, 97320, Note_off_c, 1, 66, 0
1, 97320, Note_off_c, 1, 40, 0
1, 97320, Note_on_c, 1, 71, 127
1, 97380, Note_off_c, 1, 52, 0
1, 97380, Note_on_c, 1, 50, 127
1, 97440, Note_off_c, 1, 71, 0
1, 97440, Note_off_c, 1, 50, 0
1, 97440, Note_on_c, 1, 48, 127
1, 97500, Note_off_c, 1, 67, 0
1, 97500, Note_on_c, 1, 36, 127
1, 97560, Note_off_c, 1, 64, 0
1, 97560, Note_off_c, 1, 36, 0
1, 97620, Note_off_c, 1, 48, 0
1, 97620, Note_on_c, 1, 47, 127
1, 97680, Note_off_c, 1, 47, 0
1, 97740, Note_on_c, 1, 60, 127
1, 97740, Note_on_c, 1, 45, 127
1, 97800, Note_off_c, 1, 60, 0
1, 97800, Note_off_c, 1, 45, 0
1, 97800, Note_on_c, 1, 57, 127
1, 97860, Note_off_c, 1, 57, 0
1, 97860, Note_on_c, 1, 38, 127
1, 97920, Note_off_c, 1, 38, 0
1, 97920, Note_on_c, 1, 43, 127
1, 98028, Note_off_c, 1, 43, 0
1, 98040, Note_on_c, 1, 67, 127
1, 98040, Note_on_c, 1, 64, 127
1, 98040, Note_on_c, 1, 48, 127
1, 98100, Note_off_c, 1, 67, 0
1, 98100, Note_on_c, 1, 69, 127
1, 98100, Note_on_c, 1, 66, 127
1, 98160, Note_off_c, 1, 64, 0
1, 98160, Note_off_c, 1, 48, 0
1, 98160, Note_off_c, 1, 69, 0
1, 98160, Note_off_c, 1, 66, 0
1, 98160, Note_on_c, 1, 71, 127
1, 98160, Note_on_c, 1, 62, 127
1, 98160, Note_on_c, 1, 55, 127
1, 98220, Note_off_c, 1, 55, 0
1, 98220, Note_on_c, 1, 54, 127
1, 98280, Note_off_c, 1, 62, 0
1, 98280, Note_off_c, 1, 54, 0
1, 98280, Note_on_c, 1, 72, 127
1, 98280, Note_on_c, 1, 52, 127
1, 98340, Note_off_c, 1, 71, 0
1, 98340, Note_on_c, 1, 57, 127
1, 98340, Note_on_c, 1, 40, 127
1, 98400, Note_off_c, 1, 72, 0
1, 98400, Note_off_c, 1, 52, 0
1, 98400, Note_off_c, 1, 57, 0
1, 98400, Note_off_c, 1, 40, 0
1, 98400, Note_on_c, 1, 74, 127
1, 98400, Note_on_c, 1, 59, 127
1, 98400, Note_on_c, 1, 47, 127
1, 98460, Note_off_c, 1, 59, 0
1, 98460, Note_off_c, 1, 47, 0
1, 98460, Note_on_c, 1, 60, 127
1, 98460, Note_on_c, 1, 45, 127
1, 98520, Note_off_c, 1, 74, 0
1, 98520, Note_off_c, 1, 45, 0
1, 98520, Note_on_c, 1, 43, 127
1, 98580, Note_off_c, 1, 60, 0
1, 98580, Note_off_c, 1, 43, 0
1, 98640, Note_on_c, 1, 50, 127
1, 98760, Note_on_c, 1, 38, 127
1, 98880, Note_off_c, 1, 50, 0
1, 98880, Note_off_c, 1, 38, 0
1, 99000, Note_on_c, 1, 67, 127
1, 99000, Note_on_c, 1, 62, 127
1, 99000, Note_on_c, 1, 59, 127
1, 99000, Note_on_c, 1, 55, 127
1, 99060, Note_off_c, 1, 55, 0
1, 99060, Note_on_c, 1, 54, 127
1, 99060, Note_on_c, 1, 69, 127
1, 99120, Note_off_c, 1, 62, 0
1, 99120, Note_off_c, 1, 54, 0
1, 99120, Note_off_c, 1, 69, 0
1, 99120, Note_on_c, 1, 64, 127
1, 99120, Note_on_c, 1, 52, 127
1, 99180, Note_on_c, 1, 66, 127
1, 99180, Note_on_c, 1, 40, 127
1, 99240, Note_off_c, 1, 59, 0
1, 99240, Note_off_c, 1, 66, 0
1, 99240, Note_off_c, 1, 40, 0
1, 99240, Note_on_c, 1, 71, 127
1, 99300, Note_off_c, 1, 52, 0
1, 99300, Note_on_c, 1, 50, 127
1, 99360, Note_off_c, 1, 71, 0
1, 99360, Note_off_c, 1, 50, 0
1, 99360, Note_on_c, 1, 48, 127
1, 99420, Note_off_c, 1, 67, 0
1, 99420, Note_on_c, 1, 36, 127
1, 99480, Note_off_c, 1, 64, 0
1, 99480, Note_off_c, 1, 36, 0
1, 99540, Note_off_c, 1, 48, 0
1, 99540, Note_on_c, 1, 47, 127
1, 99600, Note_off_c, 1, 47, 0
1, 99660, Note_on_c, 1, 60, 127
1, 99660, Note_on_c, 1, 45, 127
1, 99720, Note_off_c, 1, 60, 0
1, 99720, Note_off_c, 1, 45, 0
1, 99720, Note_on_c, 1, 57, 127
1, 99780, Note_off_c, 1, 57, 0
1, 99780, Note_on_c, 1, 38, 127
1, 99840, Note_off_c, 1, 38, 0
1, 99840, Note_on_c, 1, 43, 127
1, 99948, Note_off_c, 1, 43, 0
1, 99960, Note_on_c, 1, 67, 127
1, 99960, Note_on_c, 1, 64, 127
1, 99960, Note_on_c, 1, 48, 127
1, 100020, Note_off_c, 1, 67, 0
1, 100020, Note_on_c, 1, 69, 127
1, 100020, Note_on_c, 1, 66, 127
1, 100080, Note_off_c, 1, 64, 0
1, 100080, Note_off_c, 1, 48, 0
1, 100080, Note_off_c, 1, 69, 0
1, 100080, Note_off_c, 1, 66, 0
1, 100080, Note_on_c, 1, 71, 127
1, 100080, Note_on_c, 1, 62, 127
1, 100080, Note_on_c, 1, 55, 127
1, 100140, Note_off_c, 1, 55, 0
1, 100140, Note_on_c, 1, 54, 127
1, 100200, Note_off_c, 1, 62, 0
1, 100200, Note_off_c, 1, 54, 0
1, 100200, Note_on_c, 1, 72, 127
1, 100200, Note_on_c, 1, 52, 127
1, 100260, Note_off_c, 1, 71, 0
1, 100260, Note_on_c, 1, 57, 127
1, 100260, Note_on_c, 1, 40, 127
1, 100320, Note_off_c, 1, 72, 0
1, 100320, Note_off_c, 1, 52, 0
1, 100320, Note_off_c, 1, 57, 0
1, 100320, Note_off_c, 1, 40, 0
1, 100320, Note_on_c, 1, 74, 127
1, 100320, Note_on_c, 1, 59, 127
1, 100320, Note_on_c, 1, 47, 127
1, 100380, Note_off_c, 1, 59, 0
1, 100380, Note_off_c, 1, 47, 0
1, 100380, Note_on_c, 1, 60, 127
1, 100380, Note_on_c, 1, 45, 127
1, 100440, Note_off_c, 1, 74, 0
1, 100440, Note_off_c, 1, 45, 0
1, 100440, Note_on_c, 1, 43, 127
1, 100500, Note_off_c, 1, 60, 0
1, 100500, Note_off_c, 1, 43, 0
1, 100560, Note_on_c, 1, 50, 127
1, 100680, Note_on_c, 1, 38, 127
1, 100800, Note_off_c, 1, 50, 0
1, 100800, Note_off_c, 1, 38, 0
1, 100920, Note_on_c, 1, 71, 127
1, 100920, Note_on_c, 1, 67, 127
1, 100920, Note_on_c, 1, 62, 127
1, 100920, Note_on_c, 1, 55, 127
1, 100920, Note_on_c, 1, 43, 127
1, 100980, Note_off_c, 1, 55, 0
1, 100980, Note_off_c, 1, 43, 0
1, 100980, Note_on_c, 1, 57, 127
1, 100980, Note_on_c, 1, 69, 127
1, 100980, Note_on_c, 1, 72, 127
1, 100980, Note_on_c, 1, 45, 127
1, 101040, Note_off_c, 1, 57, 0
1, 101040, Note_off_c, 1, 69, 0
1, 101040, Note_off_c, 1, 72, 0
1, 101040, Note_off_c, 1, 45, 0
1, 101040, Note_on_c, 1, 59, 127
1, 101040, Note_on_c, 1, 47, 127
1, 101100, Note_off_c, 1, 59, 0
1, 101100, Note_off_c, 1, 47, 0
1, 101100, Note_on_c, 1, 60, 127
1, 101100, Note_on_c, 1, 48, 127
1, 101160, Note_off_c, 1, 71, 0
1, 101160, Note_off_c, 1, 60, 0
1, 101160, Note_off_c, 1, 48, 0
1, 101160, Note_on_c, 1, 50, 127
1, 101220, Note_off_c, 1, 67, 0
1, 101220, Note_off_c, 1, 50, 0
1, 101220, Note_on_c, 1, 66, 127
1, 101220, Note_on_c, 1, 38, 127
1, 101280, Note_off_c, 1, 62, 0
1, 101280, Note_off_c, 1, 38, 0
1, 101340, Note_off_c, 1, 66, 0
1, 101340, Note_on_c, 1, 64, 127
1, 101460, Note_off_c, 1, 64, 0
1, 101460, Note_on_c, 1, 63, 127
1, 101520, Note_off_c, 1, 63, 0
1, 101520, Note_on_c, 1, 52, 127
1, 101580, Note_off_c, 1, 52, 0
1, 101580, Note_on_c, 1, 54, 127
1, 101640, Note_off_c, 1, 54, 0
1, 101880, Note_on_c, 1, 69, 127
1, 101880, Note_on_c, 1, 62, 127
1, 101880, Note_on_c, 1, 54, 127
1, 101880, Note_on_c, 1, 50, 127
1, 101940, Note_off_c, 1, 50, 0
1, 101940, Note_on_c, 1, 60, 127
1, 101940, Note_on_c, 1, 48, 127
1, 102000, Note_off_c, 1, 69, 0
1, 102000, Note_off_c, 1, 54, 0
1, 102000, Note_off_c, 1, 60, 0
1, 102000, Note_off_c, 1, 48, 0
1, 102000, Note_on_c, 1, 67, 127
1, 102000, Note_on_c, 1, 55, 127
1, 102000, Note_on_c, 1, 59, 127
1, 102000, Note_on_c, 1, 47, 127
1, 102060, Note_off_c, 1, 55, 0
1, 102060, Note_off_c, 1, 47, 0
1, 102060, Note_on_c, 1, 57, 127
1, 102120, Note_off_c, 1, 67, 0
1, 102120, Note_off_c, 1, 57, 0
1, 102120, Note_on_c, 1, 66, 127
1, 102180, Note_off_c, 1, 59, 0
1, 102180, Note_on_c, 1, 45, 127
1, 102240, Note_off_c, 1, 66, 0
1, 102240, Note_off_c, 1, 45, 0
1, 102240, Note_on_c, 1, 43, 127
1, 102300, Note_off_c, 1, 62, 0
1, 102300, Note_off_c, 1, 43, 0
1, 102420, Note_on_c, 1, 42, 127
1, 102480, Note_off_c, 1, 42, 0
1, 102480, Note_on_c, 1, 52, 127
1, 102480, Note_on_c, 1, 40, 127
1, 102540, Note_off_c, 1, 52, 0
1, 102540, Note_off_c, 1, 40, 0
1, 102540, Note_on_c, 1, 38, 127
1, 102600, Note_off_c, 1, 38, 0
1, 102600, Note_on_c, 1, 64, 127
1, 102600, Note_on_c, 1, 36, 127
1, 102660, Note_off_c, 1, 36, 0
1, 102720, Note_off_c, 1, 64, 0
1, 102720, Note_on_c, 1, 71, 127
1, 102720, Note_on_c, 1, 63, 127
1, 102828, Note_off_c, 1, 71, 0
1, 102828, Note_off_c, 1, 63, 0
1, 102840, Note_on_c, 1, 67, 127
1, 102840, Note_on_c, 1, 59, 127
1, 102840, Note_on_c, 1, 52, 127
1, 102840, Note_on_c, 1, 71, 127
1, 102840, Note_on_c, 1, 40, 127
1, 102900, Note_off_c, 1, 67, 0
1, 102900, Note_off_c, 1, 71, 0
1, 102900, Note_on_c, 1, 69, 127
1, 102900, Note_on_c, 1, 54, 127
1, 102900, Note_on_c, 1, 72, 127
1, 102960, Note_off_c, 1, 59, 0
1, 102960, Note_off_c, 1, 40, 0
1, 102960, Note_off_c, 1, 69, 0
1, 102960, Note_off_c, 1, 54, 0
1, 102960, Note_off_c, 1, 72, 0
1, 102960, Note_on_c, 1, 64, 127
1, 102960, Note_on_c, 1, 55, 127
1, 103020, Note_off_c, 1, 52, 0
1, 103020, Note_on_c, 1, 50, 127
1, 103080, Note_off_c, 1, 50, 0
1, 103080, Note_on_c, 1, 48, 127
1, 103140, Note_off_c, 1, 55, 0
1, 103140, Note_on_c, 1, 57, 127
1, 103140, Note_on_c, 1, 60, 127
1, 103200, Note_off_c, 1, 64, 0
1, 103200, Note_off_c, 1, 48, 0
1, 103200, Note_off_c, 1, 57, 0
1, 103200, Note_off_c, 1, 60, 0
1, 103200, Note_on_c, 1, 74, 127
1, 103200, Note_on_c, 1, 62, 127
1, 103200, Note_on_c, 1, 47, 127
1, 103260, Note_off_c, 1, 62, 0
1, 103260, Note_off_c, 1, 47, 0
1, 103260, Note_on_c, 1, 45, 127
1, 103260, Note_on_c, 1, 66, 127
1, 103320, Note_off_c, 1, 74, 0
1, 103320, Note_off_c, 1, 45, 0
1, 103320, Note_off_c, 1, 66, 0
1, 103320, Note_on_c, 1, 43, 127
1, 103440, Note_off_c, 1, 43, 0
1, 103560, Note_on_c, 1, 38, 127
1, 103680, Note_off_c, 1, 38, 0
1, 103920, Note_on_c, 1, 71, 127
1, 103920, Note_on_c, 1, 66, 127
1, 103920, Note_on_c, 1, 51, 127
1, 103980, Note_on_c, 1, 59, 127
1, 104040, Note_off_c, 1, 59, 0
1, 104040, Note_on_c, 1, 63, 127
1, 104100, Note_off_c, 1, 63, 0
1, 104100, Note_on_c, 1, 64, 127
1, 104160, Note_off_c, 1, 64, 0
1, 104340, Note_on_c, 1, 67, 127
1, 104370, Note_off_c, 1, 67, 0
1, 104370, Note_on_c, 1, 69, 127
1, 104400, Note_off_c, 1, 71, 0
1, 104400, Note_off_c, 1, 66, 0
1, 104400, Note_on_c, 1, 60, 127
1, 104400, Note_on_c, 1, 72, 127
1, 104460, Note_off_c, 1, 60, 0
1, 104610, Note_on_c, 1, 57, 127
1, 104640, Note_off_c, 1, 57, 0
1, 104640, Note_on_c, 1, 54, 127
1, 104820, Note_off_c, 1, 54, 0
1, 104820, Note_on_c, 1, 55, 127
1, 104880, Note_off_c, 1, 72, 0
1, 104880, Note_off_c, 1, 55, 0
1, 105120, Note_off_c, 1, 51, 0
1, 105120, Note_off_c, 1, 69, 0
1, 105120, Note_on_c, 1, 52, 127
1, 105360, Note_off_c, 1, 52, 0
1, 105360, Note_on_c, 1, 50, 127
1, 105600, Note_off_c, 1, 50, 0
1, 105600, Note_on_c, 1, 68, 127
1, 105600, Note_on_c, 1, 62, 127
1, 105600, Note_on_c, 1, 41, 127
1, 105660, Note_off_c, 1, 68, 0
1, 105780, Note_off_c, 1, 41, 0
1, 105780, Note_on_c, 1, 42, 127
1, 105810, Note_off_c, 1, 42, 0
1, 105810, Note_on_c, 1, 44, 127
1, 105840, Note_off_c, 1, 62, 0
1, 105840, Note_off_c, 1, 44, 0
1, 105840, Note_on_c, 1, 61, 127
1, 105840, Note_on_c, 1, 45, 127
1, 105900, Note_off_c, 1, 45, 0
1, 105900, Note_on_c, 1, 47, 127
1, 105930, Note_off_c, 1, 47, 0
1, 105930, Note_on_c, 1, 49, 127
1, 105960, Note_off_c, 1, 61, 0
1, 105960, Note_off_c, 1, 49, 0
1, 106200, Note_on_c, 1, 73, 127
1, 106200, Note_on_c, 1, 65, 127
1, 106260, Note_on_c, 1, 37, 127
1, 106320, Note_off_c, 1, 73, 0
1, 106320, Note_off_c, 1, 65, 0
1, 106320, Note_off_c, 1, 37, 0
1, 106320, Note_on_c, 1, 78, 127
1, 106679, Note_off_c, 1, 78, 0
1, 106680, Note_on_c, 1, 77, 127
1, 106680, Note_on_c, 1, 56, 127
1, 106739, Note_off_c, 1, 56, 0
1, 107039, Note_off_c, 1, 77, 0
1, 107520, Note_on_c, 1, 76, 127
1, 107879, Note_off_c, 1, 76, 0
1, 107880, Note_on_c, 1, 74, 127
1, 107999, Note_off_c, 1, 74, 0
1, 108060, Note_on_c, 1, 76, 127
1, 108060, Note_on_c, 1, 73, 127
1, 108060, Note_on_c, 1, 64, 127
1, 108089, Note_off_c, 1, 76, 0
1, 108089, Note_off_c, 1, 73, 0
1, 108090, Note_on_c, 1, 69, 127
1, 108119, Note_off_c, 1, 64, 0
1, 108119, Note_off_c, 1, 69, 0
1, 108120, Note_on_c, 1, 74, 127
1, 108120, Note_on_c, 1, 71, 127
1, 108120, Note_on_c, 1, 68, 127
1, 108120, Note_on_c, 1, 64, 127
1, 108120, Note_on_c, 1, 40, 127
1, 108149, Note_off_c, 1, 74, 0
1, 108149, Note_off_c, 1, 71, 0
1, 108180, Note_off_c, 1, 68, 0
1, 108180, Note_on_c, 1, 73, 127
1, 108180, Note_on_c, 1, 69, 127
1, 108180, Note_on_c, 1, 61, 127
1, 108209, Note_off_c, 1, 64, 0
1, 108209, Note_off_c, 1, 73, 0
1, 108210, Note_off_c, 1, 69, 0
1, 108210, Note_off_c, 1, 61, 0
1, 108210, Note_on_c, 1, 59, 127
1, 108239, Note_off_c, 1, 40, 0
1, 108240, Note_off_c, 1, 59, 0
1, 108240, Note_on_c, 1, 57, 127
1, 108240, Note_on_c, 1, 45, 127
1, 108300, Note_on_c, 1, 62, 127
1, 108329, Note_off_c, 1, 62, 0
1, 108330, Note_on_c, 1, 66, 127
1, 108359, Note_off_c, 1, 66, 0
1, 108540, Note_on_c, 1, 76, 127
1, 108599, Note_off_c, 1, 76, 0
1, 108600, Note_on_c, 1, 81, 127
1, 108659, Note_off_c, 1, 81, 0
1, 108660, Note_on_c, 1, 78, 127
1, 108719, Note_off_c, 1, 57, 0
1, 108719, Note_off_c, 1, 45, 0
1, 108719, Note_off_c, 1, 78, 0
1, 108720, Note_on_c, 1, 74, 127
1, 108720, Note_on_c, 1, 71, 127
1, 108720, Note_on_c, 1, 67, 127
1, 108720, Note_on_c, 1, 62, 127
1, 108720, Note_on_c, 1, 47, 127
1, 108960, Note_on_c, 1, 59, 127
1, 109019, Note_off_c, 1, 59, 0
1, 109199, Note_off_c, 1, 67, 0
1, 109199, Note_off_c, 1, 62, 0
1, 109199, Note_off_c, 1, 47, 0
1, 109200, Note_on_c, 1, 55, 127
1, 109200, Note_on_c, 1, 40, 127
1, 109259, Note_off_c, 1, 55, 0
1, 109260, Note_off_c, 1, 74, 0
1, 109380, Note_on_c, 1, 79, 127
1, 109380, Note_on_c, 1, 64, 127
1, 109439, Note_off_c, 1, 71, 0
1, 109439, Note_off_c, 1, 40, 0
1, 109439, Note_off_c, 1, 64, 0
1, 109440, Note_on_c, 1, 69, 127
1, 109440, Note_on_c, 1, 45, 127
1, 109470, Note_on_c, 1, 61, 127
1, 109499, Note_off_c, 1, 79, 0
1, 109499, Note_off_c, 1, 61, 0
1, 109500, Note_on_c, 1, 76, 127
1, 109530, Note_on_c, 1, 57, 127
1, 109559, Note_off_c, 1, 76, 0
1, 109559, Note_off_c, 1, 57, 0
1, 109560, Note_on_c, 1, 73, 127
1, 109679, Note_off_c, 1, 45, 0
1, 109679, Note_off_c, 1, 73, 0
1, 109680, Note_on_c, 1, 66, 127
1, 109680, Note_on_c, 1, 38, 127
1, 109739, Note_off_c, 1, 38, 0
1, 109740, Note_off_c, 1, 69, 0
1, 109740, Note_on_c, 1, 78, 127
1, 109740, Note_on_c, 1, 50, 127
1, 109769, Note_off_c, 1, 50, 0
1, 109799, Note_off_c, 1, 78, 0
1, 109800, Note_off_c, 1, 66, 0
1, 109800, Note_on_c, 1, 70, 127
1, 109800, Note_on_c, 1, 49, 127
1, 109829, Note_off_c, 1, 49, 0
1, 109830, Note_on_c, 1, 46, 127
1, 109859, Note_off_c, 1, 46, 0
1, 109860, Note_off_c, 1, 70, 0
1, 109860, Note_on_c, 1, 65, 127
1, 109890, Note_on_c, 1, 44, 127
1, 109919, Note_off_c, 1, 44, 0
1, 109920, Note_off_c, 1, 65, 0
1, 110160, Note_on_c, 1, 58, 127
1, 110249, Note_off_c, 1, 58, 0
1, 110460, Note_on_c, 1, 54, 127
1, 110519, Note_off_c, 1, 54, 0
1, 111000, Note_on_c, 1, 66, 127
1, 111000, Note_on_c, 1, 61, 127
1, 111000, Note_on_c, 1, 57, 127
1, 111029, Note_off_c, 1, 57, 0
1, 111030, Note_on_c, 1, 54, 127
1, 111059, Note_off_c, 1, 66, 0
1, 111059, Note_off_c, 1, 61, 0
1, 111059, Note_off_c, 1, 54, 0
1, 111060, Note_on_c, 1, 64, 127
1, 111060, Note_on_c, 1, 59, 127
1, 111060, Note_on_c, 1, 55, 127
1, 111089, Note_off_c, 1, 55, 0
1, 111090, Note_on_c, 1, 52, 127
1, 111119, Note_off_c, 1, 64, 0
1, 111119, Note_off_c, 1, 59, 0
1, 111119, Note_off_c, 1, 52, 0
1, 111120, Note_on_c, 1, 62, 127
1, 111120, Note_on_c, 1, 57, 127
1, 111120, Note_on_c, 1, 66, 127
1, 111120, Note_on_c, 1, 54, 127
1, 111330, Note_on_c, 1, 67, 127
1, 111359, Note_off_c, 1, 67, 0
1, 111360, Note_on_c, 1, 69, 127
1, 111419, Note_off_c, 1, 69, 0
1, 111480, Note_on_c, 1, 60, 127
1, 111510, Note_on_c, 1, 59, 127
1, 111539, Note_off_c, 1, 59, 0
1, 111599, Note_off_c, 1, 62, 0
1, 111599, Note_off_c, 1, 54, 0
1, 111600, Note_off_c, 1, 60, 0
1, 111600, Note_on_c, 1, 63, 127
1, 111600, Note_on_c, 1, 51, 127
1, 111780, Note_on_c, 1, 55, 127
1, 111839, Note_off_c, 1, 57, 0
1, 111839, Note_off_c, 1, 55, 0
1, 111840, Note_off_c, 1, 63, 0
1, 112140, Note_on_c, 1, 75, 127
1, 112199, Note_off_c, 1, 66, 0
1, 112199, Note_off_c, 1, 51, 0
1, 112199, Note_off_c, 1, 75, 0
1, 112200, Note_on_c, 1, 71, 127
1, 112200, Note_on_c, 1, 76, 127
1, 112200, Note_on_c, 1, 64, 127
1, 112230, Note_on_c, 1, 52, 127
1, 112259, Note_off_c, 1, 71, 0
1, 112259, Note_off_c, 1, 76, 0
1, 112259, Note_off_c, 1, 52, 0
1, 112260, Note_off_c, 1, 64, 0
1, 112260, Note_on_c, 1, 81, 127
1, 112319, Note_off_c, 1, 81, 0
1, 112320, Note_on_c, 1, 78, 127
1, 112320, Note_on_c, 1, 45, 127
1, 112440, Note_on_c, 1, 61, 127
1, 112499, Note_off_c, 1, 61, 0
1, 112559, Note_off_c, 1, 78, 0
1, 112559, Note_off_c, 1, 45, 0
1, 112560, Note_on_c, 1, 76, 127
1, 112560, Note_on_c, 1, 71, 127
1, 112560, Note_on_c, 1, 64, 127
1, 112560, Note_on_c, 1, 68, 127
1, 112560, Note_on_c, 1, 44, 127
1, 112740, Note_on_c, 1, 59, 127
1, 112799, Note_off_c, 1, 76, 0
1, 112799, Note_off_c, 1, 64, 0
1, 112799, Note_off_c, 1, 68, 0
1, 112799, Note_off_c, 1, 59, 0
1, 112800, Note_on_c, 1, 74, 127
1, 112800, Note_on_c, 1, 65, 127
1, 112980, Note_off_c, 1, 44, 0
1, 112980, Note_off_c, 1, 65, 0
1, 112980, Note_on_c, 1, 66, 127
1, 112980, Note_on_c, 1, 62, 127
1, 112980, Note_on_c, 1, 42, 127
1, 113040, Note_off_c, 1, 66, 0
1, 113040, Note_off_c, 1, 62, 0
1, 113040, Note_off_c, 1, 42, 0
1, 113040, Note_on_c, 1, 41, 127
1, 113070, Note_off_c, 1, 71, 0
1, 113070, Note_off_c, 1, 74, 0
1, 113070, Note_on_c, 1, 73, 127
1, 113070, Note_on_c, 1, 69, 127
1, 113099, Note_off_c, 1, 73, 0
1, 113099, Note_off_c, 1, 69, 0
1, 113219, Note_off_c, 1, 41, 0
1, 113220, Note_on_c, 1, 71, 127
1, 113220, Note_on_c, 1, 68, 127
1, 113220, Note_on_c, 1, 42, 127
1, 113249, Note_off_c, 1, 71, 0
1, 113249, Note_off_c, 1, 42, 0
1, 113250, Note_on_c, 1, 69, 127
1, 113250, Note_on_c, 1, 66, 127
1, 113250, Note_on_c, 1, 44, 127
1, 113279, Note_off_c, 1, 68, 0
1, 113279, Note_off_c, 1, 69, 0
1, 113279, Note_off_c, 1, 66, 0
1, 113279, Note_off_c, 1, 44, 0
1, 113280, Note_on_c, 1, 68, 127
1, 113280, Note_on_c, 1, 65, 127
1, 113280, Note_on_c, 1, 37, 127
1, 113340, Note_on_c, 1, 59, 127
1, 113399, Note_off_c, 1, 68, 0
1, 113399, Note_off_c, 1, 65, 0
1, 113399, Note_off_c, 1, 59, 0
1, 113400, Note_on_c, 1, 56, 127
1, 113459, Note_off_c, 1, 56, 0
1, 113460, Note_on_c, 1, 77, 127
1, 113460, Note_on_c, 1, 61, 127
1, 113519, Note_off_c, 1, 37, 0
1, 113519, Note_off_c, 1, 77, 0
1, 113519, Note_off_c, 1, 61, 0
1, 113520, Note_on_c, 1, 78, 127
1, 113520, Note_on_c, 1, 66, 127
1, 113520, Note_on_c, 1, 57, 127
1, 113520, Note_on_c, 1, 42, 127
1, 113549, Note_off_c, 1, 78, 0
1, 113549, Note_off_c, 1, 66, 0
1, 113550, Note_on_c, 1, 73, 127
1, 113550, Note_on_c, 1, 69, 127
1, 113579, Note_off_c, 1, 57, 0
1, 113579, Note_off_c, 1, 42, 0
1, 113579, Note_off_c, 1, 73, 0
1, 113579, Note_off_c, 1, 69, 0
1, 113580, Note_on_c, 1, 74, 127
1, 113580, Note_on_c, 1, 71, 127
1, 113580, Note_on_c, 1, 57, 127
1, 113580, Note_on_c, 1, 54, 127
1, 113609, Note_off_c, 1, 74, 0
1, 113609, Note_off_c, 1, 71, 0
1, 113610, Note_on_c, 1, 68, 127
1, 113639, Note_off_c, 1, 57, 0
1, 113639, Note_off_c, 1, 54, 0
1, 113639, Note_off_c, 1, 68, 0
1, 113640, Note_on_c, 1, 73, 127
1, 113640, Note_on_c, 1, 69, 127
1, 113640, Note_on_c, 1, 45, 127
1, 113669, Note_off_c, 1, 73, 0
1, 113669, Note_off_c, 1, 69, 0
1, 113670, Note_on_c, 1, 66, 127
1, 113699, Note_off_c, 1, 45, 0
1, 113699, Note_off_c, 1, 66, 0
1, 113700, Note_on_c, 1, 71, 127
1, 113700, Note_on_c, 1, 68, 127
1, 113700, Note_on_c, 1, 49, 127
1, 113729, Note_off_c, 1, 71, 0
1, 113729, Note_off_c, 1, 68, 0
1, 113730, Note_on_c, 1, 65, 127
1, 113759, Note_off_c, 1, 49, 0
1, 113759, Note_off_c, 1, 65, 0
1, 113760, Note_on_c, 1, 70, 127
1, 113760, Note_on_c, 1, 66, 127
1, 113760, Note_on_c, 1, 40, 127
1, 113820, Note_on_c, 1, 61, 127
1, 113879, Note_off_c, 1, 70, 0
1, 113879, Note_off_c, 1, 66, 0
1, 113879, Note_off_c, 1, 61, 0
1, 113880, Note_on_c, 1, 73, 127
1, 113999, Note_off_c, 1, 73, 0
1, 114000, Note_on_c, 1, 78, 127
1, 114000, Note_on_c, 1, 58, 127
1, 114059, Note_off_c, 1, 58, 0
1, 114120, Note_on_c, 1, 64, 127
1, 114179, Note_off_c, 1, 64, 0
1, 114180, Note_on_c, 1, 62, 127
1, 114239, Note_off_c, 1, 40, 0
1, 114239, Note_off_c, 1, 62, 0
1, 114240, Note_on_c, 1, 71, 127
1, 114240, Note_on_c, 1, 59, 127
1, 114240, Note_on_c, 1, 39, 127
1, 114299, Note_off_c, 1, 59, 0
1, 114420, Note_on_c, 1, 67, 127
1, 114479, Note_off_c, 1, 71, 0
1, 114479, Note_off_c, 1, 67, 0
1, 114480, Note_on_c, 1, 72, 127
1, 114480, Note_on_c, 1, 69, 127
1, 114539, Note_off_c, 1, 69, 0
1, 114599, Note_off_c, 1, 39, 0
1, 114599, Note_off_c, 1, 72, 0
1, 114600, Note_off_c, 1, 78, 0
1, 114600, Note_on_c, 1, 63, 127
1, 114659, Note_off_c, 1, 63, 0
1, 114660, Note_on_c, 1, 75, 127
1, 114660, Note_on_c, 1, 71, 127
1, 114660, Note_on_c, 1, 66, 127
1, 114660, Note_on_c, 1, 47, 127
1, 114719, Note_off_c, 1, 75, 0
1, 114719, Note_off_c, 1, 71, 0
1, 114719, Note_off_c, 1, 66, 0
1, 114719, Note_off_c, 1, 47, 0
1, 114720, Note_on_c, 1, 76, 127
1, 114720, Note_on_c, 1, 71, 127
1, 114720, Note_on_c, 1, 67, 127
1, 114720, Note_on_c, 1, 52, 127
1, 114779, Note_off_c, 1, 76, 0
1, 114779, Note_off_c, 1, 71, 0
1, 114779, Note_off_c, 1, 52, 0
1, 114780, Note_on_c, 1, 70, 127
1, 114780, Note_on_c, 1, 73, 127
1, 114839, Note_off_c, 1, 67, 0
1, 114839, Note_off_c, 1, 70, 0
1, 114839, Note_off_c, 1, 73, 0
1, 114840, Note_on_c, 1, 71, 127
1, 114840, Note_on_c, 1, 66, 127
1, 114840, Note_on_c, 1, 50, 127
1, 114899, Note_off_c, 1, 71, 0
1, 114899, Note_off_c, 1, 66, 0
1, 114899, Note_off_c, 1, 50, 0
1, 114900, Note_on_c, 1, 59, 127
1, 114900, Note_on_c, 1, 67, 127
1, 114900, Note_on_c, 1, 64, 127
1, 114900, Note_on_c, 1, 50, 127
1, 114959, Note_off_c, 1, 59, 0
1, 114959, Note_off_c, 1, 67, 0
1, 114959, Note_off_c, 1, 64, 0
1, 114959, Note_off_c, 1, 50, 0
1, 114960, Note_on_c, 1, 64, 127
1, 114960, Note_on_c, 1, 49, 127
1, 115019, Note_off_c, 1, 64, 0
1, 115019, Note_off_c, 1, 49, 0
1, 115020, Note_on_c, 1, 76, 127
1, 115020, Note_on_c, 1, 67, 127
1, 115020, Note_on_c, 1, 58, 127
1, 115020, Note_on_c, 1, 49, 127
1, 115079, Note_off_c, 1, 76, 0
1, 115079, Note_off_c, 1, 67, 0
1, 115079, Note_off_c, 1, 58, 0
1, 115079, Note_off_c, 1, 49, 0
1, 115080, Note_on_c, 1, 76, 127
1, 115080, Note_on_c, 1, 67, 127
1, 115080, Note_on_c, 1, 47, 127
1, 115139, Note_off_c, 1, 76, 0
1, 115139, Note_off_c, 1, 67, 0
1, 115139, Note_off_c, 1, 47, 0
1, 115140, Note_on_c, 1, 67, 127
1, 115140, Note_on_c, 1, 76, 127
1, 115140, Note_on_c, 1, 59, 127
1, 115140, Note_on_c, 1, 47, 127
1, 115199, Note_off_c, 1, 67, 0
1, 115199, Note_off_c, 1, 76, 0
1, 115199, Note_off_c, 1, 59, 0
1, 115199, Note_off_c, 1, 47, 0
1, 115200, Note_on_c, 1, 67, 127
1, 115200, Note_on_c, 1, 46, 127
1, 115259, Note_off_c, 1, 67, 0
1, 115259, Note_off_c, 1, 46, 0
1, 115260, Note_on_c, 1, 73, 127
1, 115260, Note_on_c, 1, 64, 127
1, 115260, Note_on_c, 1, 66, 127
1, 115260, Note_on_c, 1, 46, 127
1, 115319, Note_off_c, 1, 73, 0
1, 115319, Note_off_c, 1, 64, 0
1, 115319, Note_off_c, 1, 66, 0
1, 115319, Note_off_c, 1, 46, 0
1, 115320, Note_on_c, 1, 79, 127
1, 115320, Note_on_c, 1, 64, 127
1, 115320, Note_on_c, 1, 42, 127
1, 115379, Note_off_c, 1, 79, 0
1, 115379, Note_off_c, 1, 64, 0
1, 115379, Note_off_c, 1, 42, 0
1, 115380, Note_on_c, 1, 78, 127
1, 115380, Note_on_c, 1, 73, 127
1, 115380, Note_on_c, 1, 64, 127
1, 115380, Note_on_c, 1, 42, 127
1, 115439, Note_off_c, 1, 78, 0
1, 115439, Note_off_c, 1, 73, 0
1, 115439, Note_off_c, 1, 64, 0
1, 115439, Note_off_c, 1, 42, 0
1, 115440, Note_on_c, 1, 62, 127
1, 115440, Note_on_c, 1, 47, 127
1, 115499, Note_off_c, 1, 62, 0
1, 115499, Note_off_c, 1, 47, 0
1, 115500, Note_on_c, 1, 61, 127
1, 115500, Note_on_c, 1, 45, 127
1, 115559, Note_off_c, 1, 61, 0
1, 115559, Note_off_c, 1, 45, 0
1, 115560, Note_on_c, 1, 73, 127
1, 115560, Note_on_c, 1, 71, 127
1, 115560, Note_on_c, 1, 64, 127
1, 115560, Note_on_c, 1, 43, 127
1, 115619, Note_off_c, 1, 64, 0
1, 115619, Note_off_c, 1, 43, 0
1, 115620, Note_on_c, 1, 62, 127
1, 115620, Note_on_c, 1, 42, 127
1, 115679, Note_off_c, 1, 73, 0
1, 115679, Note_off_c, 1, 71, 0
1, 115679, Note_off_c, 1, 62, 0
1, 115679, Note_off_c, 1, 42, 0
1, 115680, Note_on_c, 1, 59, 127
1, 115680, Note_on_c, 1, 41, 127
1, 115740, Note_on_c, 1, 74, 127
1, 115740, Note_on_c, 1, 71, 127
1, 115799, Note_off_c, 1, 59, 0
1, 115799, Note_off_c, 1, 41, 0
1, 115799, Note_off_c, 1, 74, 0
1, 115799, Note_off_c, 1, 71, 0
1, 115800, Note_on_c, 1, 73, 127
1, 115800, Note_on_c, 1, 70, 127
1, 115800, Note_on_c, 1, 42, 127
1, 115859, Note_off_c, 1, 73, 0
1, 115859, Note_off_c, 1, 70, 0
1, 115860, Note_on_c, 1, 64, 127
1, 115860, Note_on_c, 1, 61, 127
1, 115919, Note_off_c, 1, 42, 0
1, 115919, Note_off_c, 1, 64, 0
1, 115919, Note_off_c, 1, 61, 0
1, 115920, Note_on_c, 1, 62, 127
1, 115920, Note_on_c, 1, 59, 127
1, 115920, Note_on_c, 1, 47, 127
1, 116160, Note_off_c, 1, 62, 0
1, 116160, Note_off_c, 1, 59, 0
1, 116160, Note_off_c, 1, 47, 0
1, 116580, Note_on_c, 1, 66, 127
1, 116580, Note_on_c, 1, 62, 127
1, 116580, Note_on_c, 1, 59, 127
1, 116580, Note_on_c, 1, 47, 127
1, 116639, Note_off_c, 1, 66, 0
1, 116639, Note_off_c, 1, 62, 0
1, 116639, Note_off_c, 1, 59, 0
1, 116639, Note_off_c, 1, 47, 0
1, 116640, Note_on_c, 1, 71, 127
1, 116640, Note_on_c, 1, 62, 127
1, 116640, Note_on_c, 1, 66, 127
1, 116640, Note_on_c, 1, 59, 127
1, 116699, Note_off_c, 1, 71, 0
1, 116700, Note_on_c, 1, 74, 127
1, 116759, Note_off_c, 1, 62, 0
1, 116759, Note_off_c, 1, 66, 0
1, 116759, Note_off_c, 1, 59, 0
1, 116759, Note_off_c, 1, 74, 0
1, 116760, Note_on_c, 1, 73, 127
1, 116760, Note_on_c, 1, 64, 127
1, 116819, Note_off_c, 1, 73, 0
1, 116819, Note_off_c, 1, 64, 0
1, 116820, Note_on_c, 1, 70, 127
1, 116820, Note_on_c, 1, 61, 127
1, 116879, Note_off_c, 1, 70, 0
1, 116879, Note_off_c, 1, 61, 0
1, 116880, Note_on_c, 1, 71, 127
1, 116880, Note_on_c, 1, 62, 127
1, 116880, Note_on_c, 1, 59, 127
1, 116880, Note_on_c, 1, 55, 127
1, 116939, Note_off_c, 1, 71, 0
1, 116940, Note_on_c, 1, 74, 127
1, 116940, Note_on_c, 1, 66, 127
1, 116999, Note_off_c, 1, 62, 0
1, 116999, Note_off_c, 1, 59, 0
1, 116999, Note_off_c, 1, 55, 0
1, 116999, Note_off_c, 1, 74, 0
1, 116999, Note_off_c, 1, 66, 0
1, 117000, Note_on_c, 1, 73, 127
1, 117000, Note_on_c, 1, 64, 127
1, 117059, Note_off_c, 1, 73, 0
1, 117059, Note_off_c, 1, 64, 0
1, 117060, Note_on_c, 1, 70, 127
1, 117060, Note_on_c, 1, 61, 127
1, 117119, Note_off_c, 1, 70, 0
1, 117119, Note_off_c, 1, 61, 0
1, 117120, Note_on_c, 1, 71, 127
1, 117120, Note_on_c, 1, 62, 127
1, 117179, Note_off_c, 1, 71, 0
1, 117179, Note_off_c, 1, 62, 0
1, 117180, Note_on_c, 1, 79, 127
1, 117180, Note_on_c, 1, 76, 127
1, 117180, Note_on_c, 1, 71, 127
1, 117180, Note_on_c, 1, 61, 127
1, 117180, Note_on_c, 1, 52, 127
1, 117239, Note_off_c, 1, 79, 0
1, 117239, Note_off_c, 1, 76, 0
1, 117239, Note_off_c, 1, 71, 0
1, 117239, Note_off_c, 1, 61, 0
1, 117239, Note_off_c, 1, 52, 0
1, 117240, Note_on_c, 1, 78, 127
1, 117240, Note_on_c, 1, 74, 127
1, 117240, Note_on_c, 1, 62, 127
1, 117240, Note_on_c, 1, 54, 127
1, 117299, Note_off_c, 1, 78, 0
1, 117299, Note_off_c, 1, 74, 0
1, 117299, Note_off_c, 1, 62, 0
1, 117299, Note_off_c, 1, 54, 0
1, 117300, Note_on_c, 1, 76, 127
1, 117300, Note_on_c, 1, 73, 127
1, 117300, Note_on_c, 1, 70, 127
1, 117300, Note_on_c, 1, 61, 127
1, 117300, Note_on_c, 1, 42, 127
1, 117359, Note_off_c, 1, 76, 0
1, 117359, Note_off_c, 1, 73, 0
1, 117359, Note_off_c, 1, 70, 0
1, 117359, Note_off_c, 1, 61, 0
1, 117359, Note_off_c, 1, 42, 0
1, 117360, Note_on_c, 1, 74, 127
1, 117360, Note_on_c, 1, 71, 127
1, 117360, Note_on_c, 1, 66, 127
1, 117360, Note_on_c, 1, 47, 127
1, 117389, Note_off_c, 1, 74, 0
1, 117390, Note_on_c, 1, 73, 127
1, 117390, Note_on_c, 1, 70, 127
1, 117419, Note_off_c, 1, 71, 0
1, 117419, Note_off_c, 1, 66, 0
1, 117419, Note_off_c, 1, 47, 0
1, 117419, Note_off_c, 1, 73, 0
1, 117419, Note_off_c, 1, 70, 0
1, 117420, Note_on_c, 1, 74, 127
1, 117420, Note_on_c, 1, 71, 127
1, 117420, Note_on_c, 1, 70, 127
1, 117420, Note_on_c, 1, 49, 127
1, 117449, Note_off_c, 1, 74, 0
1, 117449, Note_off_c, 1, 71, 0
1, 117450, Note_on_c, 1, 73, 127
1, 117479, Note_off_c, 1, 70, 0
1, 117479, Note_off_c, 1, 49, 0
1, 117479, Note_off_c, 1, 73, 0
1, 117480, Note_on_c, 1, 71, 127
1, 117480, Note_on_c, 1, 66, 127
1, 117480, Note_on_c, 1, 50, 127
1, 117509, Note_off_c, 1, 50, 0
1, 117510, Note_on_c, 1, 49, 127
1, 117539, Note_off_c, 1, 71, 0
1, 117539, Note_off_c, 1, 66, 0
1, 117539, Note_off_c, 1, 49, 0
1, 117540, Note_on_c, 1, 66, 127
1, 117540, Note_on_c, 1, 59, 127
1, 117540, Note_on_c, 1, 50, 127
1, 117569, Note_off_c, 1, 50, 0
1, 117570, Note_on_c, 1, 49, 127
1, 117599, Note_off_c, 1, 66, 0
1, 117599, Note_off_c, 1, 59, 0
1, 117599, Note_off_c, 1, 49, 0
1, 117600, Note_on_c, 1, 71, 127
1, 117600, Note_on_c, 1, 62, 127
1, 117600, Note_on_c, 1, 66, 127
1, 117600, Note_on_c, 1, 47, 127
1, 117659, Note_off_c, 1, 71, 0
1, 117660, Note_on_c, 1, 74, 127
1, 117719, Note_off_c, 1, 62, 0
1, 117719, Note_off_c, 1, 66, 0
1, 117719, Note_off_c, 1, 47, 0
1, 117719, Note_off_c, 1, 74, 0
1, 117720, Note_on_c, 1, 73, 127
1, 117720, Note_on_c, 1, 64, 127
1, 117779, Note_off_c, 1, 73, 0
1, 117779, Note_off_c, 1, 64, 0
1, 117780, Note_on_c, 1, 70, 127
1, 117780, Note_on_c, 1, 61, 127
1, 117839, Note_off_c, 1, 70, 0
1, 117839, Note_off_c, 1, 61, 0
1, 117840, Note_on_c, 1, 71, 127
1, 117840, Note_on_c, 1, 62, 127
1, 117840, Note_on_c, 1, 59, 127
1, 117840, Note_on_c, 1, 43, 127
1, 117899, Note_off_c, 1, 71, 0
1, 117900, Note_on_c, 1, 74, 127
1, 117900, Note_on_c, 1, 66, 127
1, 117959, Note_off_c, 1, 62, 0
1, 117959, Note_off_c, 1, 59, 0
1, 117959, Note_off_c, 1, 43, 0
1, 117959, Note_off_c, 1, 74, 0
1, 117959, Note_off_c, 1, 66, 0
1, 117960, Note_on_c, 1, 73, 127
1, 117960, Note_on_c, 1, 64, 127
1, 118019, Note_off_c, 1, 73, 0
1, 118019, Note_off_c, 1, 64, 0
1, 118020, Note_on_c, 1, 70, 127
1, 118020, Note_on_c, 1, 61, 127
1, 118079, Note_off_c, 1, 70, 0
1, 118079, Note_off_c, 1, 61, 0
1, 118080, Note_on_c, 1, 71, 127
1, 118080, Note_on_c, 1, 62, 127
1, 118139, Note_off_c, 1, 71, 0
1, 118139, Note_off_c, 1, 62, 0
1, 118140, Note_on_c, 1, 79, 127
1, 118140, Note_on_c, 1, 76, 127
1, 118140, Note_on_c, 1, 71, 127
1, 118140, Note_on_c, 1, 61, 127
1, 118140, Note_on_c, 1, 40, 127
1, 118199, Note_off_c, 1, 79, 0
1, 118199, Note_off_c, 1, 76, 0
1, 118199, Note_off_c, 1, 71, 0
1, 118199, Note_off_c, 1, 61, 0
1, 118199, Note_off_c, 1, 40, 0
1, 118200, Note_on_c, 1, 78, 127
1, 118200, Note_on_c, 1, 74, 127
1, 118200, Note_on_c, 1, 62, 127
1, 118200, Note_on_c, 1, 71, 127
1, 118200, Note_on_c, 1, 42, 127
1, 118259, Note_off_c, 1, 78, 0
1, 118259, Note_off_c, 1, 74, 0
1, 118259, Note_off_c, 1, 62, 0
1, 118259, Note_off_c, 1, 71, 0
1, 118259, Note_off_c, 1, 42, 0
1, 118260, Note_on_c, 1, 76, 127
1, 118260, Note_on_c, 1, 73, 127
1, 118260, Note_on_c, 1, 70, 127
1, 118260, Note_on_c, 1, 66, 127
1, 118260, Note_on_c, 1, 54, 127
1, 118319, Note_off_c, 1, 76, 0
1, 118319, Note_off_c, 1, 73, 0
1, 118319, Note_off_c, 1, 70, 0
1, 118319, Note_off_c, 1, 66, 0
1, 118319, Note_off_c, 1, 54, 0
1, 118320, Note_on_c, 1, 74, 127
1, 118320, Note_on_c, 1, 71, 127
1, 118320, Note_on_c, 1, 62, 127
1, 118320, Note_on_c, 1, 47, 127
1, 118349, Note_off_c, 1, 74, 0
1, 118350, Note_on_c, 1, 73, 127
1, 118350, Note_on_c, 1, 70, 127
1, 118379, Note_off_c, 1, 71, 0
1, 118379, Note_off_c, 1, 62, 0
1, 118379, Note_off_c, 1, 47, 0
1, 118379, Note_off_c, 1, 73, 0
1, 118379, Note_off_c, 1, 70, 0
1, 118380, Note_on_c, 1, 74, 127
1, 118380, Note_on_c, 1, 71, 127
1, 118380, Note_on_c, 1, 64, 127
1, 118380, Note_on_c, 1, 49, 127
1, 118409, Note_off_c, 1, 74, 0
1, 118409, Note_off_c, 1, 71, 0
1, 118410, Note_on_c, 1, 73, 127
1, 118410, Note_on_c, 1, 70, 127
1, 118439, Note_off_c, 1, 64, 0
1, 118439, Note_off_c, 1, 49, 0
1, 118439, Note_off_c, 1, 73, 0
1, 118439, Note_off_c, 1, 70, 0
1, 118440, Note_on_c, 1, 71, 127
1, 118440, Note_on_c, 1, 66, 127
1, 118440, Note_on_c, 1, 50, 127
1, 118499, Note_off_c, 1, 66, 0
1, 118499, Note_off_c, 1, 50, 0
1, 118500, Note_on_c, 1, 74, 127
1, 118500, Note_on_c, 1, 62, 127
1, 118500, Note_on_c, 1, 47, 127
1, 118559, Note_off_c, 1, 74, 0
1, 118559, Note_off_c, 1, 62, 0
1, 118559, Note_off_c, 1, 47, 0
1, 118560, Note_on_c, 1, 65, 127
1, 118560, Note_on_c, 1, 53, 127
1, 118589, Note_off_c, 1, 71, 0
1, 118590, Note_on_c, 1, 70, 127
1, 118619, Note_off_c, 1, 65, 0
1, 118619, Note_off_c, 1, 53, 0
1, 118619, Note_off_c, 1, 70, 0
1, 118620, Note_on_c, 1, 73, 127
1, 118620, Note_on_c, 1, 71, 127
1, 118620, Note_on_c, 1, 66, 127
1, 118620, Note_on_c, 1, 61, 127
1, 118620, Note_on_c, 1, 54, 127
1, 118649, Note_off_c, 1, 71, 0
1, 118650, Note_on_c, 1, 70, 127
1, 118679, Note_off_c, 1, 73, 0
1, 118679, Note_off_c, 1, 66, 0
1, 118679, Note_off_c, 1, 61, 0
1, 118679, Note_off_c, 1, 54, 0
1, 118679, Note_off_c, 1, 70, 0
1, 118680, Note_on_c, 1, 71, 127
1, 118680, Note_on_c, 1, 56, 127
1, 118739, Note_off_c, 1, 56, 0
1, 118740, Note_on_c, 1, 77, 127
1, 118740, Note_on_c, 1, 59, 127
1, 118740, Note_on_c, 1, 65, 127
1, 118740, Note_on_c, 1, 49, 127
1, 118799, Note_off_c, 1, 77, 0
1, 118799, Note_off_c, 1, 59, 0
1, 118799, Note_off_c, 1, 65, 0
1, 118799, Note_off_c, 1, 49, 0
1, 118800, Note_on_c, 1, 54, 127
1, 118859, Note_off_c, 1, 71, 0
1, 118859, Note_off_c, 1, 54, 0
1, 118860, Note_on_c, 1, 78, 127
1, 118860, Note_on_c, 1, 69, 127
1, 118860, Note_on_c, 1, 66, 127
1, 118860, Note_on_c, 1, 52, 127
1, 118889, Note_off_c, 1, 69, 0
1, 118890, Note_on_c, 1, 68, 127
1, 118919, Note_off_c, 1, 78, 0
1, 118919, Note_off_c, 1, 66, 0
1, 118919, Note_off_c, 1, 52, 0
1, 118919, Note_off_c, 1, 68, 0
1, 118920, Note_on_c, 1, 66, 127
1, 118920, Note_on_c, 1, 69, 127
1, 118920, Note_on_c, 1, 50, 127
1, 118979, Note_off_c, 1, 69, 0
1, 118979, Note_off_c, 1, 50, 0
1, 118980, Note_on_c, 1, 49, 127
1, 119039, Note_off_c, 1, 49, 0
1, 119040, Note_on_c, 1, 47, 127
1, 119069, Note_off_c, 1, 66, 0
1, 119070, Note_on_c, 1, 65, 127
1, 119099, Note_off_c, 1, 47, 0
1, 119099, Note_off_c, 1, 65, 0
1, 119100, Note_on_c, 1, 66, 127
1, 119100, Note_on_c, 1, 68, 127
1, 119100, Note_on_c, 1, 49, 127
1, 119129, Note_off_c, 1, 66, 0
1, 119130, Note_on_c, 1, 65, 127
1, 119159, Note_off_c, 1, 68, 0
1, 119159, Note_off_c, 1, 49, 0
1, 119159, Note_off_c, 1, 65, 0
1, 119160, Note_on_c, 1, 66, 127
1, 119160, Note_on_c, 1, 50, 127
1, 119219, Note_off_c, 1, 50, 0
1, 119220, Note_on_c, 1, 72, 127
1, 119220, Note_on_c, 1, 60, 127
1, 119220, Note_on_c, 1, 38, 127
1, 119279, Note_off_c, 1, 72, 0
1, 119279, Note_off_c, 1, 60, 0
1, 119279, Note_off_c, 1, 38, 0
1, 119280, Note_on_c, 1, 37, 127
1, 119309, Note_off_c, 1, 66, 0
1, 119310, Note_on_c, 1, 63, 127
1, 119339, Note_off_c, 1, 37, 0
1, 119339, Note_off_c, 1, 63, 0
1, 119340, Note_on_c, 1, 65, 127
1, 119340, Note_on_c, 1, 73, 127
1, 119340, Note_on_c, 1, 61, 127
1, 119340, Note_on_c, 1, 49, 127
1, 119369, Note_off_c, 1, 49, 0
1, 119370, Note_on_c, 1, 47, 127
1, 119399, Note_off_c, 1, 65, 0
1, 119399, Note_off_c, 1, 73, 0
1, 119399, Note_off_c, 1, 61, 0
1, 119399, Note_off_c, 1, 47, 0
1, 119400, Note_on_c, 1, 61, 127
1, 119400, Note_on_c, 1, 45, 127
1, 119459, Note_off_c, 1, 45, 0
1, 119460, Note_on_c, 1, 77, 127
1, 119460, Note_on_c, 1, 65, 127
1, 119460, Note_on_c, 1, 44, 127
1, 119519, Note_off_c, 1, 77, 0
1, 119519, Note_off_c, 1, 65, 0
1, 119519, Note_off_c, 1, 44, 0
1, 119520, Note_on_c, 1, 78, 127
1, 119520, Note_on_c, 1, 66, 127
1, 119549, Note_off_c, 1, 78, 0
1, 119550, Note_on_c, 1, 80, 127
1, 119579, Note_off_c, 1, 61, 0
1, 119579, Note_off_c, 1, 66, 0
1, 119579, Note_off_c, 1, 80, 0
1, 119580, Note_on_c, 1, 81, 127
1, 119580, Note_on_c, 1, 66, 127
1, 119580, Note_on_c, 1, 42, 127
1, 119609, Note_off_c, 1, 81, 0
1, 119610, Note_on_c, 1, 80, 127
1, 119639, Note_off_c, 1, 66, 0
1, 119639, Note_off_c, 1, 42, 0
1, 119639, Note_off_c, 1, 80, 0
1, 119640, Note_on_c, 1, 78, 127
1, 119640, Note_on_c, 1, 59, 127
1, 119640, Note_on_c, 1, 66, 127
1, 119640, Note_on_c, 1, 44, 127
1, 119699, Note_off_c, 1, 78, 0
1, 119699, Note_off_c, 1, 59, 0
1, 119699, Note_off_c, 1, 66, 0
1, 119699, Note_off_c, 1, 44, 0
1, 119700, Note_on_c, 1, 77, 127
1, 119700, Note_on_c, 1, 68, 127
1, 119700, Note_on_c, 1, 65, 127
1, 119700, Note_on_c, 1, 47, 127
1, 119759, Note_off_c, 1, 77, 0
1, 119759, Note_off_c, 1, 68, 0
1, 119759, Note_off_c, 1, 65, 0
1, 119759, Note_off_c, 1, 47, 0
1, 119760, Note_on_c, 1, 78, 127
1, 119760, Note_on_c, 1, 61, 127
1, 119760, Note_on_c, 1, 66, 127
1, 119760, Note_on_c, 1, 45, 127
1, 119819, Note_off_c, 1, 78, 0
1, 119819, Note_off_c, 1, 61, 0
1, 119819, Note_off_c, 1, 66, 0
1, 119819, Note_off_c, 1, 45, 0
1, 119820, Note_on_c, 1, 76, 127
1, 119820, Note_on_c, 1, 69, 127
1, 119820, Note_on_c, 1, 54, 127
1, 119849, Note_off_c, 1, 76, 0
1, 119850, Note_on_c, 1, 74, 127
1, 119879, Note_off_c, 1, 69, 0
1, 119879, Note_off_c, 1, 54, 0
1, 119879, Note_off_c, 1, 74, 0
1, 119880, Note_on_c, 1, 73, 127
1, 119880, Note_on_c, 1, 68, 127
1, 119880, Note_on_c, 1, 61, 127
1, 119880, Note_on_c, 1, 53, 127
1, 119910, Note_on_c, 1, 66, 127
1, 119939, Note_off_c, 1, 73, 0
1, 119939, Note_off_c, 1, 68, 0
1, 119939, Note_off_c, 1, 61, 0
1, 119939, Note_off_c, 1, 53, 0
1, 119939, Note_off_c, 1, 66, 0
1, 119940, Note_on_c, 1, 71, 127
1, 119940, Note_on_c, 1, 65, 127
1, 119940, Note_on_c, 1, 59, 127
1, 119940, Note_on_c, 1, 49, 127
1, 119969, Note_off_c, 1, 65, 0
1, 119970, Note_on_c, 1, 66, 127
1, 119999, Note_off_c, 1, 71, 0
1, 119999, Note_off_c, 1, 59, 0
1, 119999, Note_off_c, 1, 49, 0
1, 119999, Note_off_c, 1, 66, 0
1, 120000, Note_on_c, 1, 69, 127
1, 120000, Note_on_c, 1, 61, 127
1, 120000, Note_on_c, 1, 66, 127
1, 120000, Note_on_c, 1, 54, 127
1, 120029, Note_off_c, 1, 69, 0
1, 120030, Note_on_c, 1, 74, 127
1, 120059, Note_off_c, 1, 61, 0
1, 120059, Note_off_c, 1, 66, 0
1, 120059, Note_off_c, 1, 54, 0
1, 120059, Note_off_c, 1, 74, 0
1, 120060, Note_on_c, 1, 73, 127
1, 120060, Note_on_c, 1, 66, 127
1, 120060, Note_on_c, 1, 45, 127
1, 120089, Note_off_c, 1, 73, 0
1, 120090, Note_on_c, 1, 71, 127
1, 120119, Note_off_c, 1, 45, 0
1, 120119, Note_off_c, 1, 71, 0
1, 120120, Note_on_c, 1, 69, 127
1, 120120, Note_on_c, 1, 47, 127
1, 120179, Note_off_c, 1, 66, 0
1, 120179, Note_off_c, 1, 69, 0
1, 120179, Note_off_c, 1, 47, 0
1, 120180, Note_on_c, 1, 68, 127
1, 120180, Note_on_c, 1, 65, 127
1, 120180, Note_on_c, 1, 49, 127
1, 120239, Note_off_c, 1, 68, 0
1, 120239, Note_off_c, 1, 65, 0
1, 120239, Note_off_c, 1, 49, 0
1, 120240, Note_on_c, 1, 66, 127
1, 120240, Note_on_c, 1, 61, 127
1, 120240, Note_on_c, 1, 42, 127
1, 120299, Note_off_c, 1, 61, 0
1, 120299, Note_off_c, 1, 42, 0
1, 120300, Note_on_c, 1, 54, 127
1, 120329, Note_off_c, 1, 54, 0
1, 120330, Note_on_c, 1, 52, 127
1, 120359, Note_off_c, 1, 66, 0
1, 120359, Note_off_c, 1, 52, 0
1, 120360, Note_on_c, 1, 50, 127
1, 120389, Note_off_c, 1, 50, 0
1, 120390, Note_on_c, 1, 49, 127
1, 120419, Note_off_c, 1, 49, 0
1, 120420, Note_on_c, 1, 54, 127
1, 120420, Note_on_c, 1, 59, 127
1, 120420, Note_on_c, 1, 50, 127
1, 120449, Note_off_c, 1, 50, 0
1, 120450, Note_on_c, 1, 49, 127
1, 120479, Note_off_c, 1, 54, 0
1, 120479, Note_off_c, 1, 59, 0
1, 120479, Note_off_c, 1, 49, 0
1, 120480, Note_on_c, 1, 74, 127
1, 120480, Note_on_c, 1, 59, 127
1, 120480, Note_on_c, 1, 66, 127
1, 120480, Note_on_c, 1, 62, 127
1, 120480, Note_on_c, 1, 47, 127
1, 120539, Note_off_c, 1, 74, 0
1, 120539, Note_off_c, 1, 59, 0
1, 120599, Note_off_c, 1, 66, 0
1, 120599, Note_off_c, 1, 62, 0
1, 120599, Note_off_c, 1, 47, 0
1, 120600, Note_on_c, 1, 79, 127
1, 120600, Note_on_c, 1, 64, 127
1, 120600, Note_on_c, 1, 61, 127
1, 120659, Note_off_c, 1, 79, 0
1, 120659, Note_off_c, 1, 64, 0
1, 120659, Note_off_c, 1, 61, 0
1, 120660, Note_on_c, 1, 61, 127
1, 120660, Note_on_c, 1, 58, 127
1, 120719, Note_off_c, 1, 61, 0
1, 120719, Note_off_c, 1, 58, 0
1, 120720, Note_on_c, 1, 62, 127
1, 120720, Note_on_c, 1, 59, 127
1, 120720, Note_on_c, 1, 43, 127
1, 120780, Note_on_c, 1, 78, 127
1, 120839, Note_off_c, 1, 62, 0
1, 120839, Note_off_c, 1, 59, 0
1, 120839, Note_off_c, 1, 43, 0
1, 120839, Note_off_c, 1, 78, 0
1, 120840, Note_on_c, 1, 76, 127
1, 120840, Note_on_c, 1, 67, 127
1, 120840, Note_on_c, 1, 61, 127
1, 120899, Note_off_c, 1, 76, 0
1, 120899, Note_off_c, 1, 67, 0
1, 120899, Note_off_c, 1, 61, 0
1, 120900, Note_on_c, 1, 73, 127
1, 120900, Note_on_c, 1, 58, 127
1, 120959, Note_off_c, 1, 73, 0
1, 120959, Note_off_c, 1, 58, 0
1, 120960, Note_on_c, 1, 74, 127
1, 120960, Note_on_c, 1, 59, 127
1, 121019, Note_off_c, 1, 74, 0
1, 121019, Note_off_c, 1, 59, 0
1, 121020, Note_on_c, 1, 73, 127
1, 121020, Note_on_c, 1, 64, 127
1, 121020, Note_on_c, 1, 67, 127
1, 121020, Note_on_c, 1, 61, 127
1, 121020, Note_on_c, 1, 52, 127
1, 121079, Note_off_c, 1, 73, 0
1, 121079, Note_off_c, 1, 64, 0
1, 121079, Note_off_c, 1, 67, 0
1, 121079, Note_off_c, 1, 61, 0
1, 121079, Note_off_c, 1, 52, 0
1, 121080, Note_on_c, 1, 71, 127
1, 121080, Note_on_c, 1, 62, 127
1, 121080, Note_on_c, 1, 66, 127
1, 121080, Note_on_c, 1, 54, 127
1, 121139, Note_off_c, 1, 71, 0
1, 121139, Note_off_c, 1, 62, 0
1, 121139, Note_off_c, 1, 66, 0
1, 121139, Note_off_c, 1, 54, 0
1, 121140, Note_on_c, 1, 70, 127
1, 121140, Note_on_c, 1, 61, 127
1, 121140, Note_on_c, 1, 64, 127
1, 121140, Note_on_c, 1, 42, 127
1, 121199, Note_off_c, 1, 70, 0
1, 121199, Note_off_c, 1, 61, 0
1, 121199, Note_off_c, 1, 64, 0
1, 121199, Note_off_c, 1, 42, 0
1, 121200, Note_on_c, 1, 71, 127
1, 121200, Note_on_c, 1, 59, 127
1, 121200, Note_on_c, 1, 62, 127
1, 121200, Note_on_c, 1, 47, 127
1, 121230, Note_on_c, 1, 61, 127
1, 121259, Note_off_c, 1, 62, 0
1, 121259, Note_off_c, 1, 47, 0
1, 121259, Note_off_c, 1, 61, 0
1, 121260, Note_on_c, 1, 64, 127
1, 121260, Note_on_c, 1, 49, 127
1, 121319, Note_off_c, 1, 71, 0
1, 121319, Note_off_c, 1, 59, 0
1, 121319, Note_off_c, 1, 64, 0
1, 121319, Note_off_c, 1, 49, 0
1, 121320, Note_on_c, 1, 59, 127
1, 121320, Note_on_c, 1, 66, 127
1, 121320, Note_on_c, 1, 50, 127
1, 121349, Note_off_c, 1, 50, 0
1, 121350, Note_on_c, 1, 49, 127
1, 121379, Note_off_c, 1, 59, 0
1, 121379, Note_off_c, 1, 66, 0
1, 121379, Note_off_c, 1, 49, 0
1, 121380, Note_on_c, 1, 54, 127
1, 121380, Note_on_c, 1, 62, 127
1, 121380, Note_on_c, 1, 50, 127
1, 121409, Note_off_c, 1, 50, 0
1, 121410, Note_on_c, 1, 49, 127
1, 121439, Note_off_c, 1, 54, 0
1, 121439, Note_off_c, 1, 62, 0
1, 121439, Note_off_c, 1, 49, 0
1, 121440, Note_on_c, 1, 59, 127
1, 121440, Note_on_c, 1, 66, 127
1, 121440, Note_on_c, 1, 62, 127
1, 121440, Note_on_c, 1, 47, 127
1, 121499, Note_off_c, 1, 59, 0
1, 121500, Note_on_c, 1, 71, 127
1, 121559, Note_off_c, 1, 66, 0
1, 121559, Note_off_c, 1, 62, 0
1, 121559, Note_off_c, 1, 47, 0
1, 121559, Note_off_c, 1, 71, 0
1, 121560, Note_on_c, 1, 70, 127
1, 121560, Note_on_c, 1, 64, 127
1, 121560, Note_on_c, 1, 61, 127
1, 121619, Note_off_c, 1, 70, 0
1, 121619, Note_off_c, 1, 64, 0
1, 121619, Note_off_c, 1, 61, 0
1, 121620, Note_on_c, 1, 79, 127
1, 121620, Note_on_c, 1, 61, 127
1, 121620, Note_on_c, 1, 58, 127
1, 121679, Note_off_c, 1, 79, 0
1, 121679, Note_off_c, 1, 61, 0
1, 121679, Note_off_c, 1, 58, 0
1, 121680, Note_on_c, 1, 59, 127
1, 121680, Note_on_c, 1, 62, 127
1, 121680, Note_on_c, 1, 55, 127
1, 121740, Note_on_c, 1, 78, 127
1, 121740, Note_on_c, 1, 71, 127
1, 121799, Note_off_c, 1, 59, 0
1, 121799, Note_off_c, 1, 62, 0
1, 121799, Note_off_c, 1, 55, 0
1, 121799, Note_off_c, 1, 78, 0
1, 121799, Note_off_c, 1, 71, 0
1, 121800, Note_on_c, 1, 76, 127
1, 121800, Note_on_c, 1, 70, 127
1, 121800, Note_on_c, 1, 61, 127
1, 121859, Note_off_c, 1, 76, 0
1, 121859, Note_off_c, 1, 70, 0
1, 121859, Note_off_c, 1, 61, 0
1, 121860, Note_on_c, 1, 73, 127
1, 121860, Note_on_c, 1, 79, 127
1, 121860, Note_on_c, 1, 58, 127
1, 121919, Note_off_c, 1, 73, 0
1, 121919, Note_off_c, 1, 79, 0
1, 121919, Note_off_c, 1, 58, 0
1, 121920, Note_on_c, 1, 74, 127
1, 121920, Note_on_c, 1, 78, 127
1, 121920, Note_on_c, 1, 59, 127
1, 121979, Note_off_c, 1, 74, 0
1, 121979, Note_off_c, 1, 78, 0
1, 121979, Note_off_c, 1, 59, 0
1, 121980, Note_on_c, 1, 73, 127
1, 121980, Note_on_c, 1, 76, 127
1, 121980, Note_on_c, 1, 67, 127
1, 121980, Note_on_c, 1, 61, 127
1, 121980, Note_on_c, 1, 64, 127
1, 121980, Note_on_c, 1, 52, 127
1, 122039, Note_off_c, 1, 73, 0
1, 122039, Note_off_c, 1, 76, 0
1, 122039, Note_off_c, 1, 67, 0
1, 122039, Note_off_c, 1, 61, 0
1, 122039, Note_off_c, 1, 64, 0
1, 122039, Note_off_c, 1, 52, 0
1, 122040, Note_on_c, 1, 71, 127
1, 122040, Note_on_c, 1, 74, 127
1, 122040, Note_on_c, 1, 66, 127
1, 122040, Note_on_c, 1, 59, 127
1, 122040, Note_on_c, 1, 62, 127
1, 122040, Note_on_c, 1, 54, 127
1, 122099, Note_off_c, 1, 71, 0
1, 122099, Note_off_c, 1, 74, 0
1, 122099, Note_off_c, 1, 66, 0
1, 122099, Note_off_c, 1, 59, 0
1, 122099, Note_off_c, 1, 62, 0
1, 122099, Note_off_c, 1, 54, 0
1, 122100, Note_on_c, 1, 70, 127
1, 122100, Note_on_c, 1, 73, 127
1, 122100, Note_on_c, 1, 64, 127
1, 122100, Note_on_c, 1, 58, 127
1, 122100, Note_on_c, 1, 61, 127
1, 122100, Note_on_c, 1, 42, 127
1, 122159, Note_off_c, 1, 70, 0
1, 122159, Note_off_c, 1, 73, 0
1, 122159, Note_off_c, 1, 64, 0
1, 122159, Note_off_c, 1, 58, 0
1, 122159, Note_off_c, 1, 61, 0
1, 122159, Note_off_c, 1, 42, 0
1, 122160, Note_on_c, 1, 71, 127
1, 122160, Note_on_c, 1, 62, 127
1, 122160, Note_on_c, 1, 47, 127
1, 122190, Note_on_c, 1, 61, 127
1, 122219, Note_off_c, 1, 62, 0
1, 122219, Note_off_c, 1, 47, 0
1, 122220, Note_off_c, 1, 61, 0
1, 122220, Note_on_c, 1, 66, 127
1, 122220, Note_on_c, 1, 64, 127
1, 122220, Note_on_c, 1, 49, 127
1, 122279, Note_off_c, 1, 71, 0
1, 122279, Note_off_c, 1, 66, 0
1, 122279, Note_off_c, 1, 64, 0
1, 122279, Note_off_c, 1, 49, 0
1, 122280, Note_on_c, 1, 59, 127
1, 122280, Note_on_c, 1, 50, 127
1, 122339, Note_off_c, 1, 59, 0
1, 122339, Note_off_c, 1, 50, 0
1, 122400, Note_on_c, 1, 53, 127
1, 122430, Note_on_c, 1, 70, 127
1, 122459, Note_off_c, 1, 53, 0
1, 122459, Note_off_c, 1, 70, 0
1, 122460, Note_on_c, 1, 71, 127
1, 122460, Note_on_c, 1, 61, 127
1, 122460, Note_on_c, 1, 54, 127
1, 122489, Note_off_c, 1, 71, 0
1, 122490, Note_on_c, 1, 70, 127
1, 122519, Note_off_c, 1, 61, 0
1, 122519, Note_off_c, 1, 54, 0
1, 122519, Note_off_c, 1, 70, 0
1, 122520, Note_on_c, 1, 71, 127
1, 122520, Note_on_c, 1, 56, 127
1, 122579, Note_off_c, 1, 56, 0
1, 122580, Note_on_c, 1, 65, 127
1, 122580, Note_on_c, 1, 59, 127
1, 122580, Note_on_c, 1, 49, 127
1, 122639, Note_off_c, 1, 65, 0
1, 122639, Note_off_c, 1, 49, 0
1, 122640, Note_off_c, 1, 59, 0
1, 122640, Note_on_c, 1, 61, 127
1, 122640, Note_on_c, 1, 54, 127
1, 122699, Note_off_c, 1, 71, 0
1, 122699, Note_off_c, 1, 54, 0
1, 122700, Note_off_c, 1, 61, 0
1, 122700, Note_on_c, 1, 73, 127
1, 122700, Note_on_c, 1, 69, 127
1, 122700, Note_on_c, 1, 66, 127
1, 122700, Note_on_c, 1, 52, 127
1, 122729, Note_off_c, 1, 69, 0
1, 122730, Note_on_c, 1, 68, 127
1, 122759, Note_off_c, 1, 73, 0
1, 122759, Note_off_c, 1, 66, 0
1, 122759, Note_off_c, 1, 52, 0
1, 122759, Note_off_c, 1, 68, 0
1, 122760, Note_on_c, 1, 78, 127
1, 122760, Note_on_c, 1, 69, 127
1, 122760, Note_on_c, 1, 50, 127
1, 122819, Note_off_c, 1, 69, 0
1, 122819, Note_off_c, 1, 50, 0
1, 122820, Note_on_c, 1, 64, 127
1, 122820, Note_on_c, 1, 49, 127
1, 122879, Note_off_c, 1, 64, 0
1, 122879, Note_off_c, 1, 49, 0
1, 122880, Note_on_c, 1, 62, 127
1, 122880, Note_on_c, 1, 47, 127
1, 122909, Note_off_c, 1, 78, 0
1, 122910, Note_on_c, 1, 77, 127
1, 122939, Note_off_c, 1, 47, 0
1, 122939, Note_off_c, 1, 77, 0
1, 122940, Note_off_c, 1, 62, 0
1, 122940, Note_on_c, 1, 68, 127
1, 122940, Note_on_c, 1, 61, 127
1, 122999, Note_off_c, 1, 61, 0
1, 123000, Note_off_c, 1, 68, 0
1, 123000, Note_on_c, 1, 54, 127
1, 123059, Note_off_c, 1, 54, 0
1, 123060, Note_on_c, 1, 72, 127
1, 123060, Note_on_c, 1, 56, 127
1, 123060, Note_on_c, 1, 66, 127
1, 123060, Note_on_c, 1, 38, 127
1, 123119, Note_off_c, 1, 72, 0
1, 123119, Note_off_c, 1, 56, 0
1, 123119, Note_off_c, 1, 38, 0
1, 123120, Note_on_c, 1, 57, 127
1, 123120, Note_on_c, 1, 37, 127
1, 123150, Note_on_c, 1, 75, 127
1, 123179, Note_off_c, 1, 57, 0
1, 123179, Note_off_c, 1, 37, 0
1, 123179, Note_off_c, 1, 75, 0
1, 123180, Note_off_c, 1, 66, 0
1, 123180, Note_on_c, 1, 73, 127
1, 123180, Note_on_c, 1, 65, 127
1, 123239, Note_off_c, 1, 73, 0
1, 123240, Note_off_c, 1, 65, 0
1, 123240, Note_on_c, 1, 45, 127
1, 123269, Note_off_c, 1, 45, 0
1, 123270, Note_on_c, 1, 44, 127
1, 123299, Note_off_c, 1, 44, 0
1, 123300, Note_on_c, 1, 80, 127
1, 123300, Note_on_c, 1, 77, 127
1, 123300, Note_on_c, 1, 59, 127
1, 123300, Note_on_c, 1, 68, 127
1, 123300, Note_on_c, 1, 45, 127
1, 123329, Note_off_c, 1, 45, 0
1, 123330, Note_on_c, 1, 44, 127
1, 123359, Note_off_c, 1, 80, 0
1, 123359, Note_off_c, 1, 77, 0
1, 123359, Note_off_c, 1, 59, 0
1, 123359, Note_off_c, 1, 44, 0
1, 123360, Note_off_c, 1, 68, 0
1, 123360, Note_on_c, 1, 71, 127
1, 123360, Note_on_c, 1, 42, 127
1, 123419, Note_off_c, 1, 42, 0
1, 123420, Note_off_c, 1, 71, 0
1, 123420, Note_on_c, 1, 78, 127
1, 123420, Note_on_c, 1, 73, 127
1, 123420, Note_on_c, 1, 58, 127
1, 123420, Note_on_c, 1, 70, 127
1, 123420, Note_on_c, 1, 54, 127
1, 123449, Note_off_c, 1, 54, 0
1, 123450, Note_on_c, 1, 52, 127
1, 123479, Note_off_c, 1, 78, 0
1, 123479, Note_off_c, 1, 73, 0
1, 123479, Note_off_c, 1, 58, 0
1, 123479, Note_off_c, 1, 52, 0
1, 123480, Note_off_c, 1, 70, 0
1, 123480, Note_on_c, 1, 50, 127
1, 123509, Note_off_c, 1, 50, 0
1, 123510, Note_on_c, 1, 76, 127
1, 123510, Note_on_c, 1, 49, 127
1, 123539, Note_off_c, 1, 76, 0
1, 123539, Note_off_c, 1, 49, 0
1, 123540, Note_on_c, 1, 82, 127
1, 123540, Note_on_c, 1, 78, 127
1, 123540, Note_on_c, 1, 61, 127
1, 123540, Note_on_c, 1, 73, 127
1, 123540, Note_on_c, 1, 50, 127
1, 123569, Note_off_c, 1, 78, 0
1, 123569, Note_off_c, 1, 50, 0
1, 123570, Note_on_c, 1, 76, 127
1, 123570, Note_on_c, 1, 49, 127
1, 123599, Note_off_c, 1, 82, 0
1, 123599, Note_off_c, 1, 61, 0
1, 123599, Note_off_c, 1, 76, 0
1, 123599, Note_off_c, 1, 49, 0
1, 123600, Note_on_c, 1, 74, 127
1, 123600, Note_on_c, 1, 62, 127
1, 123600, Note_on_c, 1, 47, 127
1, 123659, Note_off_c, 1, 74, 0
1, 123659, Note_off_c, 1, 47, 0
1, 123660, Note_off_c, 1, 73, 0
1, 123660, Note_off_c, 1, 62, 0
1, 123660, Note_on_c, 1, 66, 127
1, 123660, Note_on_c, 1, 75, 127
1, 123660, Note_on_c, 1, 59, 127
1, 123660, Note_on_c, 1, 71, 127
1, 123690, Note_on_c, 1, 57, 127
1, 123719, Note_off_c, 1, 66, 0
1, 123719, Note_off_c, 1, 75, 0
1, 123719, Note_off_c, 1, 59, 0
1, 123719, Note_off_c, 1, 57, 0
1, 123720, Note_on_c, 1, 64, 127
1, 123720, Note_on_c, 1, 55, 127
1, 123749, Note_off_c, 1, 71, 0
1, 123749, Note_off_c, 1, 55, 0
1, 123750, Note_on_c, 1, 69, 127
1, 123750, Note_on_c, 1, 54, 127
1, 123779, Note_off_c, 1, 69, 0
1, 123779, Note_off_c, 1, 54, 0
1, 123780, Note_off_c, 1, 64, 0
1, 123780, Note_on_c, 1, 63, 127
1, 123839, Note_off_c, 1, 63, 0
1, 123840, Note_on_c, 1, 67, 127
1, 123840, Note_on_c, 1, 52, 127
1, 123900, Note_off_c, 1, 67, 0
1, 123900, Note_on_c, 1, 68, 127
1, 123929, Note_off_c, 1, 52, 0
1, 123960, Note_off_c, 1, 68, 0
1, 123960, Note_on_c, 1, 70, 127
1, 124020, Note_off_c, 1, 70, 0
1, 124080, Note_on_c, 1, 79, 127
1, 124080, Note_on_c, 1, 73, 127
1, 124080, Note_on_c, 1, 64, 127
1, 124080, Note_on_c, 1, 66, 127
1, 124080, Note_on_c, 1, 61, 127
1, 124080, Note_on_c, 1, 58, 127
1, 124080, Note_on_c, 1, 46, 127
1, 124139, Note_off_c, 1, 79, 0
1, 124140, Note_on_c, 1, 78, 127
1, 124199, Note_off_c, 1, 73, 0
1, 124199, Note_off_c, 1, 64, 0
1, 124199, Note_off_c, 1, 66, 0
1, 124199, Note_off_c, 1, 61, 0
1, 124199, Note_off_c, 1, 58, 0
1, 124199, Note_off_c, 1, 46, 0
1, 124199, Note_off_c, 1, 78, 0
1, 124260, Note_on_c, 1, 54, 127
1, 124260, Note_on_c, 1, 46, 127
1, 124319, Note_off_c, 1, 54, 0
1, 124319, Note_off_c, 1, 46, 0
1, 124320, Note_on_c, 1, 78, 127
1, 124320, Note_on_c, 1, 66, 127
1, 124320, Note_on_c, 1, 59, 127
1, 124320, Note_on_c, 1, 71, 127
1, 124320, Note_on_c, 1, 50, 127
1, 124349, Note_off_c, 1, 66, 0
1, 124350, Note_on_c, 1, 64, 127
1, 124379, Note_off_c, 1, 78, 0
1, 124379, Note_off_c, 1, 59, 0
1, 124379, Note_off_c, 1, 71, 0
1, 124379, Note_off_c, 1, 50, 0
1, 124379, Note_off_c, 1, 64, 0
1, 124380, Note_on_c, 1, 76, 127
1, 124380, Note_on_c, 1, 66, 127
1, 124380, Note_on_c, 1, 62, 127
1, 124380, Note_on_c, 1, 74, 127
1, 124380, Note_on_c, 1, 47, 127
1, 124409, Note_off_c, 1, 66, 0
1, 124410, Note_on_c, 1, 64, 127
1, 124439, Note_off_c, 1, 76, 0
1, 124439, Note_off_c, 1, 62, 0
1, 124439, Note_off_c, 1, 74, 0
1, 124439, Note_off_c, 1, 47, 0
1, 124439, Note_off_c, 1, 64, 0
1, 124440, Note_on_c, 1, 73, 127
1, 124440, Note_on_c, 1, 66, 127
1, 124440, Note_on_c, 1, 61, 127
1, 124440, Note_on_c, 1, 54, 127
1, 124469, Note_off_c, 1, 54, 0
1, 124470, Note_on_c, 1, 52, 127
1, 124499, Note_off_c, 1, 73, 0
1, 124499, Note_off_c, 1, 66, 0
1, 124499, Note_off_c, 1, 61, 0
1, 124499, Note_off_c, 1, 52, 0
1, 124500, Note_on_c, 1, 58, 127
1, 124500, Note_on_c, 1, 70, 127
1, 124500, Note_on_c, 1, 61, 127
1, 124500, Note_on_c, 1, 54, 127
1, 124529, Note_off_c, 1, 54, 0
1, 124530, Note_on_c, 1, 52, 127
1, 124559, Note_off_c, 1, 58, 0
1, 124559, Note_off_c, 1, 70, 0
1, 124559, Note_off_c, 1, 61, 0
1, 124559, Note_off_c, 1, 52, 0
1, 124560, Note_on_c, 1, 66, 127
1, 124560, Note_on_c, 1, 59, 127
1, 124560, Note_on_c, 1, 71, 127
1, 124560, Note_on_c, 1, 50, 127
1, 124589, Note_off_c, 1, 66, 0
1, 124590, Note_on_c, 1, 64, 127
1, 124619, Note_off_c, 1, 59, 0
1, 124619, Note_off_c, 1, 71, 0
1, 124619, Note_off_c, 1, 50, 0
1, 124619, Note_off_c, 1, 64, 0
1, 124620, Note_on_c, 1, 71, 127
1, 124620, Note_on_c, 1, 66, 127
1, 124620, Note_on_c, 1, 62, 127
1, 124620, Note_on_c, 1, 47, 127
1, 124650, Note_on_c, 1, 64, 127
1, 124679, Note_off_c, 1, 71, 0
1, 124679, Note_off_c, 1, 66, 0
1, 124679, Note_off_c, 1, 62, 0
1, 124679, Note_off_c, 1, 47, 0
1, 124679, Note_off_c, 1, 64, 0
1, 124680, Note_on_c, 1, 70, 127
1, 124680, Note_on_c, 1, 66, 127
1, 124680, Note_on_c, 1, 61, 127
1, 124680, Note_on_c, 1, 54, 127
1, 124709, Note_off_c, 1, 54, 0
1, 124710, Note_on_c, 1, 52, 127
1, 124739, Note_off_c, 1, 70, 0
1, 124739, Note_off_c, 1, 66, 0
1, 124739, Note_off_c, 1, 61, 0
1, 124739, Note_off_c, 1, 52, 0
1, 124740, Note_on_c, 1, 73, 127
1, 124740, Note_on_c, 1, 58, 127
1, 124740, Note_on_c, 1, 70, 127
1, 124740, Note_on_c, 1, 61, 127
1, 124740, Note_on_c, 1, 54, 127
1, 124769, Note_off_c, 1, 54, 0
1, 124770, Note_on_c, 1, 52, 127
1, 124799, Note_off_c, 1, 73, 0
1, 124799, Note_off_c, 1, 58, 0
1, 124799, Note_off_c, 1, 70, 0
1, 124799, Note_off_c, 1, 61, 0
1, 124799, Note_off_c, 1, 52, 0
1, 124800, Note_on_c, 1, 66, 127
1, 124800, Note_on_c, 1, 59, 127
1, 124800, Note_on_c, 1, 50, 127
1, 124859, Note_off_c, 1, 66, 0
1, 124859, Note_off_c, 1, 59, 0
1, 124859, Note_off_c, 1, 50, 0
1, 124860, Note_on_c, 1, 64, 127
1, 124860, Note_on_c, 1, 73, 127
1, 124860, Note_on_c, 1, 67, 127
1, 124860, Note_on_c, 1, 61, 127
1, 124860, Note_on_c, 1, 52, 127
1, 124919, Note_off_c, 1, 64, 0
1, 124919, Note_off_c, 1, 73, 0
1, 124919, Note_off_c, 1, 67, 0
1, 124919, Note_off_c, 1, 61, 0
1, 124919, Note_off_c, 1, 52, 0
1, 124920, Note_on_c, 1, 62, 127
1, 124920, Note_on_c, 1, 71, 127
1, 124920, Note_on_c, 1, 66, 127
1, 124920, Note_on_c, 1, 54, 127
1, 124979, Note_off_c, 1, 62, 0
1, 124979, Note_off_c, 1, 71, 0
1, 124979, Note_off_c, 1, 66, 0
1, 124979, Note_off_c, 1, 54, 0
1, 124980, Note_on_c, 1, 61, 127
1, 124980, Note_on_c, 1, 70, 127
1, 124980, Note_on_c, 1, 64, 127
1, 124980, Note_on_c, 1, 42, 127
1, 125039, Note_off_c, 1, 61, 0
1, 125039, Note_off_c, 1, 70, 0
1, 125039, Note_off_c, 1, 64, 0
1, 125039, Note_off_c, 1, 42, 0
1, 125040, Note_on_c, 1, 59, 127
1, 125040, Note_on_c, 1, 71, 127
1, 125040, Note_on_c, 1, 62, 127
1, 125040, Note_on_c, 1, 47, 127
1, 125069, Note_off_c, 1, 71, 0
1, 125070, Note_on_c, 1, 70, 127
1, 125070, Note_on_c, 1, 61, 127
1, 125099, Note_off_c, 1, 62, 0
1, 125099, Note_off_c, 1, 47, 0
1, 125099, Note_off_c, 1, 70, 0
1, 125099, Note_off_c, 1, 61, 0
1, 125100, Note_on_c, 1, 64, 127
1, 125100, Note_on_c, 1, 49, 127
1, 125159, Note_off_c, 1, 59, 0
1, 125159, Note_off_c, 1, 64, 0
1, 125159, Note_off_c, 1, 49, 0
1, 125160, Note_on_c, 1, 71, 127
1, 125160, Note_on_c, 1, 59, 127
1, 125160, Note_on_c, 1, 66, 127
1, 125160, Note_on_c, 1, 50, 127
1, 125189, Note_off_c, 1, 66, 0
1, 125189, Note_off_c, 1, 50, 0
1, 125190, Note_on_c, 1, 64, 127
1, 125190, Note_on_c, 1, 49, 127
1, 125219, Note_off_c, 1, 71, 0
1, 125219, Note_off_c, 1, 59, 0
1, 125219, Note_off_c, 1, 64, 0
1, 125219, Note_off_c, 1, 49, 0
1, 125220, Note_on_c, 1, 66, 127
1, 125220, Note_on_c, 1, 61, 127
1, 125220, Note_on_c, 1, 50, 127
1, 125249, Note_off_c, 1, 50, 0
1, 125250, Note_on_c, 1, 64, 127
1, 125250, Note_on_c, 1, 49, 127
1, 125279, Note_off_c, 1, 66, 0
1, 125279, Note_off_c, 1, 61, 0
1, 125279, Note_off_c, 1, 64, 0
1, 125279, Note_off_c, 1, 49, 0
1, 125280, Note_on_c, 1, 71, 127
1, 125280, Note_on_c, 1, 62, 127
1, 125280, Note_on_c, 1, 59, 127
1, 125280, Note_on_c, 1, 47, 127
1, 125339, Note_off_c, 1, 71, 0
1, 125340, Note_on_c, 1, 74, 127
1, 125340, Note_on_c, 1, 66, 127
1, 125399, Note_off_c, 1, 62, 0
1, 125399, Note_off_c, 1, 59, 0
1, 125399, Note_off_c, 1, 47, 0
1, 125399, Note_off_c, 1, 74, 0
1, 125399, Note_off_c, 1, 66, 0
1, 125400, Note_on_c, 1, 73, 127
1, 125400, Note_on_c, 1, 66, 127
1, 125400, Note_on_c, 1, 64, 127
1, 125459, Note_off_c, 1, 73, 0
1, 125459, Note_off_c, 1, 64, 0
1, 125460, Note_on_c, 1, 70, 127
1, 125460, Note_on_c, 1, 61, 127
1, 125519, Note_off_c, 1, 66, 0
1, 125519, Note_off_c, 1, 70, 0
1, 125519, Note_off_c, 1, 61, 0
1, 125520, Note_on_c, 1, 71, 127
1, 125520, Note_on_c, 1, 62, 127
1, 125520, Note_on_c, 1, 59, 127
1, 125520, Note_on_c, 1, 43, 127
1, 125579, Note_off_c, 1, 71, 0
1, 125580, Note_on_c, 1, 74, 127
1, 125580, Note_on_c, 1, 66, 127
1, 125639, Note_off_c, 1, 62, 0
1, 125639, Note_off_c, 1, 59, 0
1, 125639, Note_off_c, 1, 43, 0
1, 125639, Note_off_c, 1, 74, 0
1, 125639, Note_off_c, 1, 66, 0
1, 125640, Note_on_c, 1, 73, 127
1, 125640, Note_on_c, 1, 70, 127
1, 125640, Note_on_c, 1, 64, 127
1, 125699, Note_off_c, 1, 73, 0
1, 125699, Note_off_c, 1, 64, 0
1, 125700, Note_on_c, 1, 61, 127
1, 125759, Note_off_c, 1, 70, 0
1, 125759, Note_off_c, 1, 61, 0
1, 125760, Note_on_c, 1, 71, 127
1, 125760, Note_on_c, 1, 62, 127
1, 125819, Note_off_c, 1, 71, 0
1, 125819, Note_off_c, 1, 62, 0
1, 125820, Note_on_c, 1, 79, 127
1, 125820, Note_on_c, 1, 71, 127
1, 125820, Note_on_c, 1, 61, 127
1, 125820, Note_on_c, 1, 67, 127
1, 125820, Note_on_c, 1, 40, 127
1, 125849, Note_off_c, 1, 61, 0
1, 125850, Note_on_c, 1, 59, 127
1, 125879, Note_off_c, 1, 79, 0
1, 125879, Note_off_c, 1, 67, 0
1, 125879, Note_off_c, 1, 40, 0
1, 125879, Note_off_c, 1, 59, 0
1, 125880, Note_on_c, 1, 78, 127
1, 125880, Note_on_c, 1, 62, 127
1, 125880, Note_on_c, 1, 66, 127
1, 125880, Note_on_c, 1, 42, 127
1, 125909, Note_off_c, 1, 71, 0
1, 125909, Note_off_c, 1, 62, 0
1, 125910, Note_on_c, 1, 70, 127
1, 125939, Note_off_c, 1, 78, 0
1, 125939, Note_off_c, 1, 66, 0
1, 125939, Note_off_c, 1, 42, 0
1, 125939, Note_off_c, 1, 70, 0
1, 125940, Note_on_c, 1, 76, 127
1, 125940, Note_on_c, 1, 73, 127
1, 125940, Note_on_c, 1, 59, 127
1, 125940, Note_on_c, 1, 64, 127
1, 125940, Note_on_c, 1, 61, 127
1, 125940, Note_on_c, 1, 54, 127
1, 125969, Note_off_c, 1, 59, 0
1, 125970, Note_on_c, 1, 58, 127
1, 125999, Note_off_c, 1, 76, 0
1, 125999, Note_off_c, 1, 64, 0
1, 125999, Note_off_c, 1, 61, 0
1, 125999, Note_off_c, 1, 54, 0
1, 125999, Note_off_c, 1, 58, 0
1, 126000, Note_on_c, 1, 74, 127
1, 126000, Note_on_c, 1, 62, 127
1, 126000, Note_on_c, 1, 47, 127
1, 126029, Note_off_c, 1, 74, 0
1, 126029, Note_off_c, 1, 47, 0
1, 126030, Note_on_c, 1, 46, 127
1, 126059, Note_off_c, 1, 73, 0
1, 126059, Note_off_c, 1, 62, 0
1, 126059, Note_off_c, 1, 46, 0
1, 126060, Note_on_c, 1, 74, 127
1, 126060, Note_on_c, 1, 66, 127
1, 126060, Note_on_c, 1, 62, 127
1, 126060, Note_on_c, 1, 47, 127
1, 126089, Note_off_c, 1, 74, 0
1, 126089, Note_off_c, 1, 47, 0
1, 126090, Note_on_c, 1, 73, 127
1, 126090, Note_on_c, 1, 49, 127
1, 126119, Note_off_c, 1, 66, 0
1, 126119, Note_off_c, 1, 62, 0
1, 126119, Note_off_c, 1, 73, 0
1, 126119, Note_off_c, 1, 49, 0
1, 126120, Note_on_c, 1, 71, 127
1, 126120, Note_on_c, 1, 66, 127
1, 126120, Note_on_c, 1, 59, 127
1, 126120, Note_on_c, 1, 50, 127
1, 126179, Note_off_c, 1, 66, 0
1, 126179, Note_off_c, 1, 59, 0
1, 126179, Note_off_c, 1, 50, 0
1, 126180, Note_on_c, 1, 74, 127
1, 126180, Note_on_c, 1, 69, 127
1, 126180, Note_on_c, 1, 62, 127
1, 126180, Note_on_c, 1, 47, 127
1, 126239, Note_off_c, 1, 74, 0
1, 126239, Note_off_c, 1, 69, 0
1, 126239, Note_off_c, 1, 62, 0
1, 126239, Note_off_c, 1, 47, 0
1, 126240, Note_on_c, 1, 68, 127
1, 126240, Note_on_c, 1, 53, 127
1, 126269, Note_off_c, 1, 71, 0
1, 126269, Note_off_c, 1, 68, 0
1, 126270, Note_on_c, 1, 70, 127
1, 126299, Note_off_c, 1, 53, 0
1, 126299, Note_off_c, 1, 70, 0
1, 126300, Note_on_c, 1, 73, 127
1, 126300, Note_on_c, 1, 71, 127
1, 126300, Note_on_c, 1, 68, 127
1, 126300, Note_on_c, 1, 61, 127
1, 126300, Note_on_c, 1, 54, 127
1, 126329, Note_off_c, 1, 71, 0
1, 126329, Note_off_c, 1, 68, 0
1, 126330, Note_on_c, 1, 70, 127
1, 126330, Note_on_c, 1, 66, 127
1, 126359, Note_off_c, 1, 73, 0
1, 126359, Note_off_c, 1, 61, 0
1, 126359, Note_off_c, 1, 54, 0
1, 126359, Note_off_c, 1, 70, 0
1, 126359, Note_off_c, 1, 66, 0
1, 126360, Note_on_c, 1, 71, 127
1, 126360, Note_on_c, 1, 65, 127
1, 126360, Note_on_c, 1, 56, 127
1, 126419, Note_off_c, 1, 65, 0
1, 126419, Note_off_c, 1, 56, 0
1, 126420, Note_on_c, 1, 77, 127
1, 126420, Note_on_c, 1, 62, 127
1, 126420, Note_on_c, 1, 59, 127
1, 126420, Note_on_c, 1, 44, 127
1, 126479, Note_off_c, 1, 77, 0
1, 126479, Note_off_c, 1, 62, 0
1, 126479, Note_off_c, 1, 59, 0
1, 126479, Note_off_c, 1, 44, 0
1, 126480, Note_on_c, 1, 45, 127
1, 126539, Note_off_c, 1, 71, 0
1, 126539, Note_off_c, 1, 45, 0
1, 126540, Note_on_c, 1, 78, 127
1, 126540, Note_on_c, 1, 69, 127
1, 126540, Note_on_c, 1, 61, 127
1, 126540, Note_on_c, 1, 66, 127
1, 126540, Note_on_c, 1, 57, 127
1, 126569, Note_off_c, 1, 69, 0
1, 126570, Note_on_c, 1, 68, 127
1, 126599, Note_off_c, 1, 78, 0
1, 126599, Note_off_c, 1, 61, 0
1, 126599, Note_off_c, 1, 66, 0
1, 126599, Note_off_c, 1, 57, 0
1, 126599, Note_off_c, 1, 68, 0
1, 126600, Note_on_c, 1, 66, 127
1, 126600, Note_on_c, 1, 69, 127
1, 126600, Note_on_c, 1, 50, 127
1, 126659, Note_off_c, 1, 69, 0
1, 126659, Note_off_c, 1, 50, 0
1, 126660, Note_on_c, 1, 61, 127
1, 126660, Note_on_c, 1, 54, 127
1, 126719, Note_off_c, 1, 61, 0
1, 126719, Note_off_c, 1, 54, 0
1, 126720, Note_on_c, 1, 62, 127
1, 126720, Note_on_c, 1, 47, 127
1, 126749, Note_off_c, 1, 66, 0
1, 126750, Note_on_c, 1, 65, 127
1, 126779, Note_off_c, 1, 62, 0
1, 126779, Note_off_c, 1, 47, 0
1, 126779, Note_off_c, 1, 65, 0
1, 126780, Note_on_c, 1, 66, 127
1, 126780, Note_on_c, 1, 68, 127
1, 126780, Note_on_c, 1, 59, 127
1, 126780, Note_on_c, 1, 49, 127
1, 126809, Note_off_c, 1, 66, 0
1, 126810, Note_on_c, 1, 65, 127
1, 126839, Note_off_c, 1, 68, 0
1, 126839, Note_off_c, 1, 59, 0
1, 126839, Note_off_c, 1, 49, 0
1, 126839, Note_off_c, 1, 65, 0
1, 126840, Note_on_c, 1, 66, 127
1, 126840, Note_on_c, 1, 50, 127
1, 126899, Note_off_c, 1, 50, 0
1, 126900, Note_on_c, 1, 72, 127
1, 126900, Note_on_c, 1, 60, 127
1, 126900, Note_on_c, 1, 38, 127
1, 126959, Note_off_c, 1, 72, 0
1, 126959, Note_off_c, 1, 60, 0
1, 126959, Note_off_c, 1, 38, 0
1, 126960, Note_on_c, 1, 57, 127
1, 126960, Note_on_c, 1, 37, 127
1, 126989, Note_off_c, 1, 66, 0
1, 126990, Note_on_c, 1, 63, 127
1, 127019, Note_off_c, 1, 57, 0
1, 127019, Note_off_c, 1, 37, 0
1, 127019, Note_off_c, 1, 63, 0
1, 127020, Note_on_c, 1, 65, 127
1, 127020, Note_on_c, 1, 73, 127
1, 127020, Note_on_c, 1, 56, 127
1, 127020, Note_on_c, 1, 61, 127
1, 127020, Note_on_c, 1, 49, 127
1, 127049, Note_off_c, 1, 49, 0
1, 127050, Note_on_c, 1, 47, 127
1, 127079, Note_off_c, 1, 65, 0
1, 127079, Note_off_c, 1, 73, 0
1, 127079, Note_off_c, 1, 56, 0
1, 127079, Note_off_c, 1, 61, 0
1, 127079, Note_off_c, 1, 47, 0
1, 127080, Note_on_c, 1, 61, 127
1, 127080, Note_on_c, 1, 45, 127
1, 127109, Note_off_c, 1, 61, 0
1, 127109, Note_off_c, 1, 45, 0
1, 127110, Note_on_c, 1, 59, 127
1, 127110, Note_on_c, 1, 44, 127
1, 127139, Note_off_c, 1, 59, 0
1, 127139, Note_off_c, 1, 44, 0
1, 127140, Note_on_c, 1, 73, 127
1, 127140, Note_on_c, 1, 61, 127
1, 127140, Note_on_c, 1, 66, 127
1, 127140, Note_on_c, 1, 45, 127
1, 127169, Note_off_c, 1, 45, 0
1, 127170, Note_on_c, 1, 59, 127
1, 127170, Note_on_c, 1, 44, 127
1, 127199, Note_off_c, 1, 73, 0
1, 127199, Note_off_c, 1, 61, 0
1, 127199, Note_off_c, 1, 66, 0
1, 127199, Note_off_c, 1, 59, 0
1, 127199, Note_off_c, 1, 44, 0
1, 127200, Note_on_c, 1, 78, 127
1, 127200, Note_on_c, 1, 57, 127
1, 127200, Note_on_c, 1, 66, 127
1, 127200, Note_on_c, 1, 69, 127
1, 127200, Note_on_c, 1, 42, 127
1, 127229, Note_off_c, 1, 78, 0
1, 127229, Note_off_c, 1, 66, 0
1, 127229, Note_off_c, 1, 69, 0
1, 127230, Note_on_c, 1, 80, 127
1, 127230, Note_on_c, 1, 68, 127
1, 127230, Note_on_c, 1, 71, 127
1, 127259, Note_off_c, 1, 57, 0
1, 127259, Note_off_c, 1, 42, 0
1, 127259, Note_off_c, 1, 80, 0
1, 127259, Note_off_c, 1, 68, 0
1, 127259, Note_off_c, 1, 71, 0
1, 127260, Note_on_c, 1, 81, 127
1, 127260, Note_on_c, 1, 69, 127
1, 127260, Note_on_c, 1, 73, 127
1, 127260, Note_on_c, 1, 54, 127
1, 127289, Note_off_c, 1, 81, 0
1, 127289, Note_off_c, 1, 69, 0
1, 127289, Note_off_c, 1, 73, 0
1, 127290, Note_on_c, 1, 80, 127
1, 127290, Note_on_c, 1, 68, 127
1, 127290, Note_on_c, 1, 71, 127
1, 127319, Note_off_c, 1, 54, 0
1, 127319, Note_off_c, 1, 80, 0
1, 127319, Note_off_c, 1, 68, 0
1, 127319, Note_off_c, 1, 71, 0
1, 127320, Note_on_c, 1, 78, 127
1, 127320, Note_on_c, 1, 66, 127
1, 127320, Note_on_c, 1, 69, 127
1, 127320, Note_on_c, 1, 57, 127
1, 127349, Note_off_c, 1, 69, 0
1, 127350, Note_on_c, 1, 71, 127
1, 127379, Note_off_c, 1, 78, 0
1, 127379, Note_off_c, 1, 66, 0
1, 127379, Note_off_c, 1, 57, 0
1, 127379, Note_off_c, 1, 71, 0
1, 127380, Note_on_c, 1, 77, 127
1, 127380, Note_on_c, 1, 65, 127
1, 127380, Note_on_c, 1, 69, 127
1, 127380, Note_on_c, 1, 61, 127
1, 127409, Note_off_c, 1, 69, 0
1, 127410, Note_on_c, 1, 68, 127
1, 127439, Note_off_c, 1, 77, 0
1, 127439, Note_off_c, 1, 65, 0
1, 127439, Note_off_c, 1, 61, 0
1, 127439, Note_off_c, 1, 68, 0
1, 127440, Note_on_c, 1, 78, 127
1, 127440, Note_on_c, 1, 66, 127
1, 127440, Note_on_c, 1, 57, 127
1, 127499, Note_off_c, 1, 78, 0
1, 127499, Note_off_c, 1, 66, 0
1, 127499, Note_off_c, 1, 57, 0
1, 127500, Note_on_c, 1, 76, 127
1, 127500, Note_on_c, 1, 64, 127
1, 127500, Note_on_c, 1, 54, 127
1, 127529, Note_off_c, 1, 76, 0
1, 127529, Note_off_c, 1, 64, 0
1, 127530, Note_on_c, 1, 74, 127
1, 127530, Note_on_c, 1, 62, 127
1, 127559, Note_off_c, 1, 54, 0
1, 127559, Note_off_c, 1, 74, 0
1, 127559, Note_off_c, 1, 62, 0
1, 127560, Note_on_c, 1, 73, 127
1, 127560, Note_on_c, 1, 61, 127
1, 127560, Note_on_c, 1, 53, 127
1, 127590, Note_on_c, 1, 59, 127
1, 127619, Note_off_c, 1, 61, 0
1, 127619, Note_off_c, 1, 53, 0
1, 127619, Note_off_c, 1, 59, 0
1, 127620, Note_on_c, 1, 77, 127
1, 127620, Note_on_c, 1, 57, 127
1, 127620, Note_on_c, 1, 49, 127
1, 127649, Note_off_c, 1, 57, 0
1, 127679, Note_off_c, 1, 77, 0
1, 127679, Note_off_c, 1, 49, 0
1, 127680, Note_on_c, 1, 78, 127
1, 127680, Note_on_c, 1, 66, 127
1, 127680, Note_on_c, 1, 54, 127
1, 127710, Note_on_c, 1, 62, 127
1, 127739, Note_off_c, 1, 73, 0
1, 127739, Note_off_c, 1, 78, 0
1, 127739, Note_off_c, 1, 66, 0
1, 127739, Note_off_c, 1, 54, 0
1, 127739, Note_off_c, 1, 62, 0
1, 127740, Note_on_c, 1, 66, 127
1, 127740, Note_on_c, 1, 61, 127
1, 127740, Note_on_c, 1, 45, 127
1, 127770, Note_on_c, 1, 59, 127
1, 127799, Note_off_c, 1, 61, 0
1, 127799, Note_off_c, 1, 45, 0
1, 127799, Note_off_c, 1, 59, 0
1, 127800, Note_on_c, 1, 62, 127
1, 127800, Note_on_c, 1, 57, 127
1, 127800, Note_on_c, 1, 68, 127
1, 127800, Note_on_c, 1, 47, 127
1, 127859, Note_off_c, 1, 66, 0
1, 127859, Note_off_c, 1, 62, 0
1, 127859, Note_off_c, 1, 57, 0
1, 127859, Note_off_c, 1, 68, 0
1, 127859, Note_off_c, 1, 47, 0
1, 127860, Note_on_c, 1, 65, 127
1, 127860, Note_on_c, 1, 61, 127
1, 127860, Note_on_c, 1, 56, 127
1, 127860, Note_on_c, 1, 69, 127
1, 127860, Note_on_c, 1, 49, 127
1, 127919, Note_off_c, 1, 65, 0
1, 127919, Note_off_c, 1, 61, 0
1, 127919, Note_off_c, 1, 56, 0
1, 127919, Note_off_c, 1, 69, 0
1, 127919, Note_off_c, 1, 49, 0
1, 127920, Note_on_c, 1, 66, 127
1, 127920, Note_on_c, 1, 57, 127
1, 127920, Note_on_c, 1, 54, 127
1, 127980, Note_on_c, 1, 64, 127
1, 127980, Note_on_c, 1, 52, 127
1, 128009, Note_off_c, 1, 64, 0
1, 128009, Note_off_c, 1, 52, 0
1, 128010, Note_on_c, 1, 62, 127
1, 128010, Note_on_c, 1, 50, 127
1, 128039, Note_off_c, 1, 57, 0
1, 128039, Note_off_c, 1, 54, 0
1, 128039, Note_off_c, 1, 62, 0
1, 128039, Note_off_c, 1, 50, 0
1, 128040, Note_off_c, 1, 66, 0
1, 128040, Note_on_c, 1, 61, 127
1, 128040, Note_on_c, 1, 49, 127
1, 128069, Note_off_c, 1, 61, 0
1, 128069, Note_off_c, 1, 49, 0
1, 128070, Note_on_c, 1, 59, 127
1, 128070, Note_on_c, 1, 47, 127
1, 128099, Note_off_c, 1, 59, 0
1, 128099, Note_off_c, 1, 47, 0
1, 128100, Note_on_c, 1, 66, 127
1, 128100, Note_on_c, 1, 61, 127
1, 128100, Note_on_c, 1, 57, 127
1, 128100, Note_on_c, 1, 45, 127
1, 128129, Note_off_c, 1, 66, 0
1, 128129, Note_off_c, 1, 57, 0
1, 128129, Note_off_c, 1, 45, 0
1, 128130, Note_on_c, 1, 68, 127
1, 128130, Note_on_c, 1, 56, 127
1, 128130, Note_on_c, 1, 44, 127
1, 128159, Note_off_c, 1, 61, 0
1, 128159, Note_off_c, 1, 68, 0
1, 128159, Note_off_c, 1, 56, 0
1, 128159, Note_off_c, 1, 44, 0
1, 128160, Note_on_c, 1, 69, 127
1, 128160, Note_on_c, 1, 66, 127
1, 128160, Note_on_c, 1, 61, 127
1, 128160, Note_on_c, 1, 57, 127
1, 128160, Note_on_c, 1, 42, 127
1, 128219, Note_off_c, 1, 69, 0
1, 128219, Note_off_c, 1, 66, 0
1, 128220, Note_on_c, 1, 73, 127
1, 128279, Note_off_c, 1, 61, 0
1, 128279, Note_off_c, 1, 57, 0
1, 128279, Note_off_c, 1, 42, 0
1, 128279, Note_off_c, 1, 73, 0
1, 128280, Note_on_c, 1, 71, 127
1, 128280, Note_on_c, 1, 68, 127
1, 128339, Note_off_c, 1, 71, 0
1, 128339, Note_off_c, 1, 68, 0
1, 128340, Note_on_c, 1, 68, 127
1, 128340, Note_on_c, 1, 65, 127
1, 128399, Note_off_c, 1, 68, 0
1, 128399, Note_off_c, 1, 65, 0
1, 128400, Note_on_c, 1, 69, 127
1, 128400, Note_on_c, 1, 66, 127
1, 128400, Note_on_c, 1, 57, 127
1, 128400, Note_on_c, 1, 62, 127
1, 128400, Note_on_c, 1, 38, 127
1, 128459, Note_off_c, 1, 69, 0
1, 128459, Note_off_c, 1, 66, 0
1, 128460, Note_on_c, 1, 73, 127
1, 128519, Note_off_c, 1, 57, 0
1, 128519, Note_off_c, 1, 62, 0
1, 128519, Note_off_c, 1, 38, 0
1, 128519, Note_off_c, 1, 73, 0
1, 128520, Note_on_c, 1, 71, 127
1, 128520, Note_on_c, 1, 68, 127
1, 128579, Note_off_c, 1, 71, 0
1, 128579, Note_off_c, 1, 68, 0
1, 128580, Note_on_c, 1, 68, 127
1, 128580, Note_on_c, 1, 65, 127
1, 128639, Note_off_c, 1, 68, 0
1, 128639, Note_off_c, 1, 65, 0
1, 128640, Note_on_c, 1, 69, 127
1, 128640, Note_on_c, 1, 66, 127
1, 128699, Note_off_c, 1, 69, 0
1, 128699, Note_off_c, 1, 66, 0
1, 128700, Note_on_c, 1, 66, 127
1, 128700, Note_on_c, 1, 74, 127
1, 128700, Note_on_c, 1, 59, 127
1, 128759, Note_off_c, 1, 66, 0
1, 128759, Note_off_c, 1, 74, 0
1, 128759, Note_off_c, 1, 59, 0
1, 128760, Note_on_c, 1, 65, 127
1, 128760, Note_on_c, 1, 73, 127
1, 128760, Note_on_c, 1, 66, 127
1, 128760, Note_on_c, 1, 69, 127
1, 128760, Note_on_c, 1, 61, 127
1, 128819, Note_off_c, 1, 65, 0
1, 128819, Note_off_c, 1, 73, 0
1, 128819, Note_off_c, 1, 66, 0
1, 128819, Note_off_c, 1, 69, 0
1, 128819, Note_off_c, 1, 61, 0
1, 128820, Note_on_c, 1, 77, 127
1, 128820, Note_on_c, 1, 71, 127
1, 128820, Note_on_c, 1, 65, 127
1, 128820, Note_on_c, 1, 56, 127
1, 128820, Note_on_c, 1, 49, 127
1, 128879, Note_off_c, 1, 77, 0
1, 128879, Note_off_c, 1, 71, 0
1, 128879, Note_off_c, 1, 65, 0
1, 128879, Note_off_c, 1, 56, 0
1, 128879, Note_off_c, 1, 49, 0
1, 128880, Note_on_c, 1, 78, 127
1, 128880, Note_on_c, 1, 69, 127
1, 128880, Note_on_c, 1, 57, 127
1, 128880, Note_on_c, 1, 54, 127
1, 128909, Note_off_c, 1, 69, 0
1, 128910, Note_on_c, 1, 68, 127
1, 128939, Note_off_c, 1, 57, 0
1, 128939, Note_off_c, 1, 54, 0
1, 128939, Note_off_c, 1, 68, 0
1, 128940, Note_on_c, 1, 59, 127
1, 128940, Note_on_c, 1, 56, 127
1, 128999, Note_off_c, 1, 78, 0
1, 128999, Note_off_c, 1, 59, 0
1, 128999, Note_off_c, 1, 56, 0
1, 129000, Note_on_c, 1, 66, 127
1, 129000, Note_on_c, 1, 61, 127
1, 129000, Note_on_c, 1, 57, 127
1, 129029, Note_off_c, 1, 66, 0
1, 129030, Note_on_c, 1, 64, 127
1, 129059, Note_off_c, 1, 61, 0
1, 129059, Note_off_c, 1, 57, 0
1, 129059, Note_off_c, 1, 64, 0
1, 129060, Note_on_c, 1, 66, 127
1, 129060, Note_on_c, 1, 57, 127
1, 129060, Note_on_c, 1, 50, 127
1, 129090, Note_on_c, 1, 64, 127
1, 129119, Note_off_c, 1, 66, 0
1, 129119, Note_off_c, 1, 57, 0
1, 129119, Note_off_c, 1, 50, 0
1, 129119, Note_off_c, 1, 64, 0
1, 129120, Note_on_c, 1, 71, 127
1, 129120, Note_on_c, 1, 62, 127
1, 129120, Note_on_c, 1, 59, 127
1, 129120, Note_on_c, 1, 55, 127
1, 129179, Note_off_c, 1, 71, 0
1, 129180, Note_on_c, 1, 74, 127
1, 129180, Note_on_c, 1, 66, 127
1, 129239, Note_off_c, 1, 62, 0
1, 129239, Note_off_c, 1, 59, 0
1, 129239, Note_off_c, 1, 55, 0
1, 129239, Note_off_c, 1, 74, 0
1, 129239, Note_off_c, 1, 66, 0
1, 129240, Note_on_c, 1, 73, 127
1, 129240, Note_on_c, 1, 64, 127
1, 129299, Note_off_c, 1, 73, 0
1, 129299, Note_off_c, 1, 64, 0
1, 129300, Note_on_c, 1, 70, 127
1, 129300, Note_on_c, 1, 61, 127
1, 129359, Note_off_c, 1, 70, 0
1, 129359, Note_off_c, 1, 61, 0
1, 129360, Note_on_c, 1, 71, 127
1, 129360, Note_on_c, 1, 62, 127
1, 129360, Note_on_c, 1, 59, 127
1, 129360, Note_on_c, 1, 54, 127
1, 129419, Note_off_c, 1, 71, 0
1, 129420, Note_on_c, 1, 74, 127
1, 129420, Note_on_c, 1, 66, 127
1, 129479, Note_off_c, 1, 62, 0
1, 129479, Note_off_c, 1, 59, 0
1, 129479, Note_off_c, 1, 54, 0
1, 129479, Note_off_c, 1, 74, 0
1, 129479, Note_off_c, 1, 66, 0
1, 129480, Note_on_c, 1, 73, 127
1, 129480, Note_on_c, 1, 64, 127
1, 129539, Note_off_c, 1, 73, 0
1, 129539, Note_off_c, 1, 64, 0
1, 129540, Note_on_c, 1, 70, 127
1, 129540, Note_on_c, 1, 61, 127
1, 129599, Note_off_c, 1, 70, 0
1, 129599, Note_off_c, 1, 61, 0
1, 129600, Note_on_c, 1, 71, 127
1, 129600, Note_on_c, 1, 62, 127
1, 129659, Note_off_c, 1, 71, 0
1, 129659, Note_off_c, 1, 62, 0
1, 129660, Note_on_c, 1, 79, 127
1, 129660, Note_on_c, 1, 71, 127
1, 129660, Note_on_c, 1, 64, 127
1, 129660, Note_on_c, 1, 52, 127
1, 129719, Note_off_c, 1, 79, 0
1, 129719, Note_off_c, 1, 71, 0
1, 129719, Note_off_c, 1, 64, 0
1, 129719, Note_off_c, 1, 52, 0
1, 129720, Note_on_c, 1, 78, 127
1, 129720, Note_on_c, 1, 70, 127
1, 129720, Note_on_c, 1, 59, 127
1, 129720, Note_on_c, 1, 54, 127
1, 129779, Note_off_c, 1, 78, 0
1, 129779, Note_off_c, 1, 70, 0
1, 129779, Note_off_c, 1, 59, 0
1, 129779, Note_off_c, 1, 54, 0
1, 129780, Note_on_c, 1, 76, 127
1, 129780, Note_on_c, 1, 73, 127
1, 129780, Note_on_c, 1, 58, 127
1, 129780, Note_on_c, 1, 42, 127
1, 129839, Note_off_c, 1, 76, 0
1, 129839, Note_off_c, 1, 58, 0
1, 129839, Note_off_c, 1, 42, 0
1, 129840, Note_on_c, 1, 74, 127
1, 129840, Note_on_c, 1, 62, 127
1, 129840, Note_on_c, 1, 59, 127
1, 129840, Note_on_c, 1, 47, 127
1, 129869, Note_off_c, 1, 73, 0
1, 129869, Note_off_c, 1, 74, 0
1, 129870, Note_on_c, 1, 70, 127
1, 129899, Note_off_c, 1, 62, 0
1, 129899, Note_off_c, 1, 59, 0
1, 129899, Note_off_c, 1, 47, 0
1, 129899, Note_off_c, 1, 70, 0
1, 129900, Note_on_c, 1, 74, 127
1, 129900, Note_on_c, 1, 71, 127
1, 129900, Note_on_c, 1, 64, 127
1, 129900, Note_on_c, 1, 49, 127
1, 129929, Note_off_c, 1, 74, 0
1, 129930, Note_on_c, 1, 73, 127
1, 129959, Note_off_c, 1, 71, 0
1, 129959, Note_off_c, 1, 64, 0
1, 129959, Note_off_c, 1, 49, 0
1, 129959, Note_off_c, 1, 73, 0
1, 129960, Note_on_c, 1, 71, 127
1, 129960, Note_on_c, 1, 66, 127
1, 129960, Note_on_c, 1, 50, 127
1, 129989, Note_off_c, 1, 71, 0
1, 129990, Note_on_c, 1, 69, 127
1, 130019, Note_off_c, 1, 66, 0
1, 130019, Note_off_c, 1, 50, 0
1, 130019, Note_off_c, 1, 69, 0
1, 130020, Note_on_c, 1, 71, 127
1, 130020, Note_on_c, 1, 74, 127
1, 130020, Note_on_c, 1, 62, 127
1, 130020, Note_on_c, 1, 47, 127
1, 130049, Note_off_c, 1, 71, 0
1, 130050, Note_on_c, 1, 69, 127
1, 130079, Note_off_c, 1, 74, 0
1, 130079, Note_off_c, 1, 62, 0
1, 130079, Note_off_c, 1, 47, 0
1, 130079, Note_off_c, 1, 69, 0
1, 130080, Note_on_c, 1, 68, 127
1, 130080, Note_on_c, 1, 74, 127
1, 130080, Note_on_c, 1, 62, 127
1, 130080, Note_on_c, 1, 53, 127
1, 130109, Note_off_c, 1, 53, 0
1, 130110, Note_on_c, 1, 54, 127
1, 130139, Note_off_c, 1, 68, 0
1, 130139, Note_off_c, 1, 74, 0
1, 130139, Note_off_c, 1, 62, 0
1, 130139, Note_off_c, 1, 54, 0
1, 130140, Note_on_c, 1, 83, 127
1, 130140, Note_on_c, 1, 73, 127
1, 130140, Note_on_c, 1, 61, 127
1, 130140, Note_on_c, 1, 71, 127
1, 130140, Note_on_c, 1, 56, 127
1, 130169, Note_off_c, 1, 56, 0
1, 130170, Note_on_c, 1, 54, 127
1, 130199, Note_off_c, 1, 83, 0
1, 130199, Note_off_c, 1, 73, 0
1, 130199, Note_off_c, 1, 61, 0
1, 130199, Note_off_c, 1, 71, 0
1, 130199, Note_off_c, 1, 54, 0
1, 130200, Note_on_c, 1, 83, 127
1, 130200, Note_on_c, 1, 71, 127
1, 130200, Note_on_c, 1, 53, 127
1, 130259, Note_off_c, 1, 83, 0
1, 130259, Note_off_c, 1, 71, 0
1, 130259, Note_off_c, 1, 53, 0
1, 130260, Note_on_c, 1, 81, 127
1, 130260, Note_on_c, 1, 65, 127
1, 130260, Note_on_c, 1, 69, 127
1, 130260, Note_on_c, 1, 49, 127
1, 130319, Note_off_c, 1, 81, 0
1, 130319, Note_off_c, 1, 65, 0
1, 130319, Note_off_c, 1, 69, 0
1, 130319, Note_off_c, 1, 49, 0
1, 130320, Note_on_c, 1, 65, 127
1, 130320, Note_on_c, 1, 54, 127
1, 130349, Note_off_c, 1, 54, 0
1, 130350, Note_on_c, 1, 56, 127
1, 130379, Note_off_c, 1, 65, 0
1, 130379, Note_off_c, 1, 56, 0
1, 130380, Note_on_c, 1, 72, 127
1, 130380, Note_on_c, 1, 66, 127
1, 130380, Note_on_c, 1, 60, 127
1, 130380, Note_on_c, 1, 57, 127
1, 130409, Note_off_c, 1, 57, 0
1, 130410, Note_on_c, 1, 56, 127
1, 130439, Note_off_c, 1, 72, 0
1, 130439, Note_off_c, 1, 66, 0
1, 130439, Note_off_c, 1, 60, 0
1, 130439, Note_off_c, 1, 56, 0
1, 130440, Note_on_c, 1, 72, 127
1, 130440, Note_on_c, 1, 60, 127
1, 130440, Note_on_c, 1, 54, 127
1, 130499, Note_off_c, 1, 72, 0
1, 130499, Note_off_c, 1, 60, 0
1, 130499, Note_off_c, 1, 54, 0
1, 130500, Note_on_c, 1, 73, 127
1, 130500, Note_on_c, 1, 66, 127
1, 130500, Note_on_c, 1, 61, 127
1, 130500, Note_on_c, 1, 52, 127
1, 130559, Note_off_c, 1, 73, 0
1, 130559, Note_off_c, 1, 66, 0
1, 130559, Note_off_c, 1, 61, 0
1, 130559, Note_off_c, 1, 52, 0
1, 130560, Note_on_c, 1, 71, 127
1, 130560, Note_on_c, 1, 62, 127
1, 130560, Note_on_c, 1, 66, 127
1, 130560, Note_on_c, 1, 50, 127
1, 130589, Note_off_c, 1, 71, 0
1, 130589, Note_off_c, 1, 50, 0
1, 130590, Note_on_c, 1, 73, 127
1, 130590, Note_on_c, 1, 52, 127
1, 130619, Note_off_c, 1, 73, 0
1, 130619, Note_off_c, 1, 52, 0
1, 130620, Note_off_c, 1, 62, 0
1, 130620, Note_off_c, 1, 66, 0
1, 130620, Note_on_c, 1, 74, 127
1, 130620, Note_on_c, 1, 54, 127
1, 130649, Note_off_c, 1, 74, 0
1, 130649, Note_off_c, 1, 54, 0
1, 130650, Note_on_c, 1, 73, 127
1, 130650, Note_on_c, 1, 52, 127
1, 130679, Note_off_c, 1, 73, 0
1, 130679, Note_off_c, 1, 52, 0
1, 130680, Note_on_c, 1, 71, 127
1, 130680, Note_on_c, 1, 66, 127
1, 130680, Note_on_c, 1, 62, 127
1, 130680, Note_on_c, 1, 50, 127
1, 130739, Note_off_c, 1, 71, 0
1, 130739, Note_off_c, 1, 50, 0
1, 130740, Note_off_c, 1, 66, 0
1, 130740, Note_off_c, 1, 62, 0
1, 130740, Note_on_c, 1, 70, 127
1, 130740, Note_on_c, 1, 49, 127
1, 130799, Note_off_c, 1, 70, 0
1, 130799, Note_off_c, 1, 49, 0
1, 130800, Note_on_c, 1, 71, 127
1, 130800, Note_on_c, 1, 62, 127
1, 130800, Note_on_c, 1, 66, 127
1, 130800, Note_on_c, 1, 50, 127
1, 130859, Note_off_c, 1, 71, 0
1, 130859, Note_off_c, 1, 62, 0
1, 130859, Note_off_c, 1, 66, 0
1, 130859, Note_off_c, 1, 50, 0
1, 130860, Note_on_c, 1, 69, 127
1, 130860, Note_on_c, 1, 66, 127
1, 130860, Note_on_c, 1, 52, 127
1, 130889, Note_off_c, 1, 69, 0
1, 130889, Note_off_c, 1, 66, 0
1, 130890, Note_on_c, 1, 67, 127
1, 130890, Note_on_c, 1, 64, 127
1, 130919, Note_off_c, 1, 52, 0
1, 130919, Note_off_c, 1, 67, 0
1, 130919, Note_off_c, 1, 64, 0
1, 130920, Note_on_c, 1, 66, 127
1, 130920, Note_on_c, 1, 62, 127
1, 130920, Note_on_c, 1, 50, 127
1, 130979, Note_off_c, 1, 66, 0
1, 130979, Note_off_c, 1, 62, 0
1, 130979, Note_off_c, 1, 50, 0
1, 130980, Note_on_c, 1, 73, 127
1, 130980, Note_on_c, 1, 64, 127
1, 130980, Note_on_c, 1, 61, 127
1, 130980, Note_on_c, 1, 49, 127
1, 131039, Note_off_c, 1, 73, 0
1, 131039, Note_off_c, 1, 64, 0
1, 131039, Note_off_c, 1, 61, 0
1, 131039, Note_off_c, 1, 49, 0
1, 131040, Note_on_c, 1, 78, 127
1, 131040, Note_on_c, 1, 62, 127
1, 131040, Note_on_c, 1, 66, 127
1, 131040, Note_on_c, 1, 47, 127
1, 131069, Note_off_c, 1, 78, 0
1, 131069, Note_off_c, 1, 62, 0
1, 131069, Note_off_c, 1, 66, 0
1, 131070, Note_on_c, 1, 80, 127
1, 131070, Note_on_c, 1, 64, 127
1, 131070, Note_on_c, 1, 68, 127
1, 131099, Note_off_c, 1, 47, 0
1, 131099, Note_off_c, 1, 80, 0
1, 131099, Note_off_c, 1, 64, 0
1, 131099, Note_off_c, 1, 68, 0
1, 131100, Note_on_c, 1, 81, 127
1, 131100, Note_on_c, 1, 66, 127
1, 131100, Note_on_c, 1, 69, 127
1, 131100, Note_on_c, 1, 45, 127
1, 131129, Note_off_c, 1, 81, 0
1, 131129, Note_off_c, 1, 66, 0
1, 131129, Note_off_c, 1, 69, 0
1, 131130, Note_on_c, 1, 80, 127
1, 131130, Note_on_c, 1, 64, 127
1, 131130, Note_on_c, 1, 68, 127
1, 131159, Note_off_c, 1, 45, 0
1, 131159, Note_off_c, 1, 80, 0
1, 131159, Note_off_c, 1, 64, 0
1, 131159, Note_off_c, 1, 68, 0
1, 131160, Note_on_c, 1, 78, 127
1, 131160, Note_on_c, 1, 62, 127
1, 131160, Note_on_c, 1, 66, 127
1, 131160, Note_on_c, 1, 47, 127
1, 131219, Note_off_c, 1, 78, 0
1, 131219, Note_off_c, 1, 62, 0
1, 131219, Note_off_c, 1, 66, 0
1, 131219, Note_off_c, 1, 47, 0
1, 131220, Note_on_c, 1, 77, 127
1, 131220, Note_on_c, 1, 61, 127
1, 131220, Note_on_c, 1, 65, 127
1, 131220, Note_on_c, 1, 49, 127
1, 131279, Note_off_c, 1, 77, 0
1, 131279, Note_off_c, 1, 61, 0
1, 131279, Note_off_c, 1, 65, 0
1, 131279, Note_off_c, 1, 49, 0
1, 131280, Note_on_c, 1, 78, 127
1, 131280, Note_on_c, 1, 59, 127
1, 131280, Note_on_c, 1, 66, 127
1, 131280, Note_on_c, 1, 50, 127
1, 131339, Note_off_c, 1, 78, 0
1, 131339, Note_off_c, 1, 59, 0
1, 131339, Note_off_c, 1, 66, 0
1, 131339, Note_off_c, 1, 50, 0
1, 131340, Note_on_c, 1, 76, 127
1, 131340, Note_on_c, 1, 66, 127
1, 131340, Note_on_c, 1, 64, 127
1, 131340, Note_on_c, 1, 47, 127
1, 131369, Note_off_c, 1, 76, 0
1, 131369, Note_off_c, 1, 64, 0
1, 131370, Note_on_c, 1, 74, 127
1, 131370, Note_on_c, 1, 62, 127
1, 131399, Note_off_c, 1, 66, 0
1, 131399, Note_off_c, 1, 47, 0
1, 131399, Note_off_c, 1, 74, 0
1, 131399, Note_off_c, 1, 62, 0
1, 131400, Note_on_c, 1, 73, 127
1, 131400, Note_on_c, 1, 68, 127
1, 131400, Note_on_c, 1, 61, 127
1, 131400, Note_on_c, 1, 53, 127
1, 131459, Note_off_c, 1, 73, 0
1, 131459, Note_off_c, 1, 68, 0
1, 131459, Note_off_c, 1, 61, 0
1, 131459, Note_off_c, 1, 53, 0
1, 131460, Note_on_c, 1, 71, 127
1, 131460, Note_on_c, 1, 65, 127
1, 131460, Note_on_c, 1, 59, 127
1, 131460, Note_on_c, 1, 49, 127
1, 131519, Note_off_c, 1, 71, 0
1, 131519, Note_off_c, 1, 65, 0
1, 131519, Note_off_c, 1, 59, 0
1, 131519, Note_off_c, 1, 49, 0
1, 131520, Note_on_c, 1, 69, 127
1, 131520, Note_on_c, 1, 61, 127
1, 131520, Note_on_c, 1, 66, 127
1, 131520, Note_on_c, 1, 54, 127
1, 131549, Note_off_c, 1, 69, 0
1, 131550, Note_on_c, 1, 74, 127
1, 131579, Note_off_c, 1, 61, 0
1, 131579, Note_off_c, 1, 66, 0
1, 131579, Note_off_c, 1, 54, 0
1, 131579, Note_off_c, 1, 74, 0
1, 131580, Note_on_c, 1, 73, 127
1, 131580, Note_on_c, 1, 66, 127
1, 131580, Note_on_c, 1, 61, 127
1, 131580, Note_on_c, 1, 45, 127
1, 131609, Note_off_c, 1, 73, 0
1, 131610, Note_on_c, 1, 71, 127
1, 131639, Note_off_c, 1, 61, 0
1, 131639, Note_off_c, 1, 45, 0
1, 131639, Note_off_c, 1, 71, 0
1, 131640, Note_on_c, 1, 69, 127
1, 131640, Note_on_c, 1, 62, 127
1, 131640, Note_on_c, 1, 47, 127
1, 131699, Note_off_c, 1, 66, 0
1, 131699, Note_off_c, 1, 69, 0
1, 131699, Note_off_c, 1, 62, 0
1, 131699, Note_off_c, 1, 47, 0
1, 131700, Note_on_c, 1, 68, 127
1, 131700, Note_on_c, 1, 65, 127
1, 131700, Note_on_c, 1, 49, 127
1, 131759, Note_off_c, 1, 68, 0
1, 131759, Note_off_c, 1, 65, 0
1, 131759, Note_off_c, 1, 49, 0
1, 131760, Note_on_c, 1, 66, 127
1, 131760, Note_on_c, 1, 61, 127
1, 131760, Note_on_c, 1, 54, 127
1, 131819, Note_off_c, 1, 54, 0
1, 131820, Note_on_c, 1, 42, 127
1, 131849, Note_off_c, 1, 42, 0
1, 131850, Note_on_c, 1, 44, 127
1, 131879, Note_off_c, 1, 66, 0
1, 131879, Note_off_c, 1, 61, 0
1, 131879, Note_off_c, 1, 44, 0
1, 131880, Note_on_c, 1, 45, 127
1, 131939, Note_off_c, 1, 45, 0
1, 131940, Note_on_c, 1, 61, 127
1, 131940, Note_on_c, 1, 66, 127
1, 131940, Note_on_c, 1, 42, 127
1, 131999, Note_off_c, 1, 61, 0
1, 131999, Note_off_c, 1, 66, 0
1, 131999, Note_off_c, 1, 42, 0
1, 132000, Note_on_c, 1, 62, 127
1, 132000, Note_on_c, 1, 66, 127
1, 132000, Note_on_c, 1, 47, 127
1, 132060, Note_on_c, 1, 74, 127
1, 132060, Note_on_c, 1, 71, 127
1, 132060, Note_on_c, 1, 59, 127
1, 132119, Note_off_c, 1, 62, 0
1, 132119, Note_off_c, 1, 66, 0
1, 132119, Note_off_c, 1, 47, 0
1, 132119, Note_off_c, 1, 74, 0
1, 132119, Note_off_c, 1, 71, 0
1, 132119, Note_off_c, 1, 59, 0
1, 132120, Note_on_c, 1, 76, 127
1, 132120, Note_on_c, 1, 73, 127
1, 132120, Note_on_c, 1, 58, 127
1, 132179, Note_off_c, 1, 76, 0
1, 132179, Note_off_c, 1, 73, 0
1, 132179, Note_off_c, 1, 58, 0
1, 132180, Note_on_c, 1, 61, 127
1, 132180, Note_on_c, 1, 54, 127
1, 132239, Note_off_c, 1, 61, 0
1, 132239, Note_off_c, 1, 54, 0
1, 132240, Note_on_c, 1, 59, 127
1, 132240, Note_on_c, 1, 66, 127
1, 132240, Note_on_c, 1, 62, 127
1, 132240, Note_on_c, 1, 50, 127
1, 132269, Note_off_c, 1, 59, 0
1, 132270, Note_on_c, 1, 61, 127
1, 132299, Note_off_c, 1, 50, 0
1, 132299, Note_off_c, 1, 61, 0
1, 132300, Note_on_c, 1, 74, 127
1, 132300, Note_on_c, 1, 71, 127
1, 132300, Note_on_c, 1, 47, 127
1, 132330, Note_on_c, 1, 64, 127
1, 132359, Note_off_c, 1, 66, 0
1, 132359, Note_off_c, 1, 62, 0
1, 132359, Note_off_c, 1, 74, 0
1, 132359, Note_off_c, 1, 71, 0
1, 132359, Note_off_c, 1, 47, 0
1, 132359, Note_off_c, 1, 64, 0
1, 132360, Note_on_c, 1, 73, 127
1, 132360, Note_on_c, 1, 70, 127
1, 132360, Note_on_c, 1, 66, 127
1, 132419, Note_off_c, 1, 73, 0
1, 132419, Note_off_c, 1, 70, 0
1, 132419, Note_off_c, 1, 66, 0
1, 132420, Note_on_c, 1, 61, 127
1, 132420, Note_on_c, 1, 70, 127
1, 132420, Note_on_c, 1, 66, 127
1, 132420, Note_on_c, 1, 54, 127
1, 132479, Note_off_c, 1, 61, 0
1, 132479, Note_off_c, 1, 70, 0
1, 132479, Note_off_c, 1, 66, 0
1, 132479, Note_off_c, 1, 54, 0
1, 132480, Note_on_c, 1, 62, 127
1, 132480, Note_on_c, 1, 71, 127
1, 132480, Note_on_c, 1, 66, 127
1, 132480, Note_on_c, 1, 59, 127
1, 132539, Note_off_c, 1, 62, 0
1, 132539, Note_off_c, 1, 71, 0
1, 132539, Note_off_c, 1, 66, 0
1, 132539, Note_off_c, 1, 59, 0
1, 132540, Note_on_c, 1, 71, 127
1, 132540, Note_on_c, 1, 66, 127
1, 132540, Note_on_c, 1, 62, 127
1, 132599, Note_off_c, 1, 71, 0
1, 132599, Note_off_c, 1, 66, 0
1, 132599, Note_off_c, 1, 62, 0
1, 132600, Note_on_c, 1, 73, 127
1, 132600, Note_on_c, 1, 70, 127
1, 132600, Note_on_c, 1, 64, 127
1, 132600, Note_on_c, 1, 61, 127
1, 132659, Note_off_c, 1, 73, 0
1, 132659, Note_off_c, 1, 70, 0
1, 132659, Note_off_c, 1, 64, 0
1, 132659, Note_off_c, 1, 61, 0
1, 132660, Note_on_c, 1, 76, 127
1, 132660, Note_on_c, 1, 73, 127
1, 132660, Note_on_c, 1, 61, 127
1, 132660, Note_on_c, 1, 66, 127
1, 132660, Note_on_c, 1, 58, 127
1, 132719, Note_off_c, 1, 76, 0
1, 132719, Note_off_c, 1, 73, 0
1, 132719, Note_off_c, 1, 61, 0
1, 132719, Note_off_c, 1, 66, 0
1, 132719, Note_off_c, 1, 58, 0
1, 132720, Note_on_c, 1, 74, 127
1, 132720, Note_on_c, 1, 66, 127
1, 132720, Note_on_c, 1, 62, 127
1, 132720, Note_on_c, 1, 59, 127
1, 132750, Note_on_c, 1, 64, 127
1, 132750, Note_on_c, 1, 61, 127
1, 132779, Note_off_c, 1, 74, 0
1, 132779, Note_off_c, 1, 66, 0
1, 132779, Note_off_c, 1, 62, 0
1, 132779, Note_off_c, 1, 59, 0
1, 132779, Note_off_c, 1, 64, 0
1, 132779, Note_off_c, 1, 61, 0
1, 132780, Note_on_c, 1, 70, 127
1, 132780, Note_on_c, 1, 66, 127
1, 132780, Note_on_c, 1, 62, 127
1, 132780, Note_on_c, 1, 54, 127
1, 132809, Note_off_c, 1, 66, 0
1, 132809, Note_off_c, 1, 62, 0
1, 132810, Note_on_c, 1, 64, 127
1, 132810, Note_on_c, 1, 61, 127
1, 132839, Note_off_c, 1, 70, 0
1, 132839, Note_off_c, 1, 54, 0
1, 132839, Note_off_c, 1, 64, 0
1, 132839, Note_off_c, 1, 61, 0
1, 132840, Note_on_c, 1, 71, 127
1, 132840, Note_on_c, 1, 62, 127
1, 132840, Note_on_c, 1, 59, 127
1, 132840, Note_on_c, 1, 50, 127
1, 132869, Note_off_c, 1, 71, 0
1, 132869, Note_off_c, 1, 62, 0
1, 132870, Note_on_c, 1, 69, 127
1, 132870, Note_on_c, 1, 61, 127
1, 132899, Note_off_c, 1, 59, 0
1, 132899, Note_off_c, 1, 50, 0
1, 132899, Note_off_c, 1, 69, 0
1, 132899, Note_off_c, 1, 61, 0
1, 132900, Note_on_c, 1, 71, 127
1, 132900, Note_on_c, 1, 62, 127
1, 132900, Note_on_c, 1, 66, 127
1, 132900, Note_on_c, 1, 69, 127
1, 132900, Note_on_c, 1, 47, 127
1, 132929, Note_off_c, 1, 71, 0
1, 132929, Note_off_c, 1, 62, 0
1, 132930, Note_on_c, 1, 61, 127
1, 132959, Note_off_c, 1, 66, 0
1, 132959, Note_off_c, 1, 69, 0
1, 132959, Note_off_c, 1, 47, 0
1, 132959, Note_off_c, 1, 61, 0
1, 132960, Note_on_c, 1, 67, 127
1, 132960, Note_on_c, 1, 59, 127
1, 132960, Note_on_c, 1, 64, 127
1, 132960, Note_on_c, 1, 52, 127
1, 133019, Note_off_c, 1, 67, 0
1, 133019, Note_off_c, 1, 59, 0
1, 133019, Note_off_c, 1, 64, 0
1, 133019, Note_off_c, 1, 52, 0
1, 133020, Note_on_c, 1, 64, 127
1, 133020, Note_on_c, 1, 55, 127
1, 133079, Note_off_c, 1, 64, 0
1, 133079, Note_off_c, 1, 55, 0
1, 133080, Note_on_c, 1, 63, 127
1, 133080, Note_on_c, 1, 66, 127
1, 133080, Note_on_c, 1, 54, 127
1, 133139, Note_off_c, 1, 63, 0
1, 133139, Note_off_c, 1, 66, 0
1, 133139, Note_off_c, 1, 54, 0
1, 133140, Note_on_c, 1, 81, 127
1, 133140, Note_on_c, 1, 75, 127
1, 133140, Note_on_c, 1, 66, 127
1, 133199, Note_off_c, 1, 81, 0
1, 133199, Note_off_c, 1, 75, 0
1, 133199, Note_off_c, 1, 66, 0
1, 133200, Note_on_c, 1, 79, 127
1, 133200, Note_on_c, 1, 76, 127
1, 133200, Note_on_c, 1, 64, 127
1, 133229, Note_off_c, 1, 64, 0
1, 133230, Note_on_c, 1, 66, 127
1, 133259, Note_off_c, 1, 79, 0
1, 133259, Note_off_c, 1, 76, 0
1, 133259, Note_off_c, 1, 66, 0
1, 133260, Note_on_c, 1, 67, 127
1, 133260, Note_on_c, 1, 64, 127
1, 133260, Note_on_c, 1, 59, 127
1, 133290, Note_on_c, 1, 66, 127
1, 133319, Note_off_c, 1, 67, 0
1, 133319, Note_off_c, 1, 64, 0
1, 133319, Note_off_c, 1, 59, 0
1, 133319, Note_off_c, 1, 66, 0
1, 133320, Note_on_c, 1, 64, 127
1, 133320, Note_on_c, 1, 69, 127
1, 133320, Note_on_c, 1, 60, 127
1, 133350, Note_on_c, 1, 62, 127
1, 133379, Note_off_c, 1, 64, 0
1, 133379, Note_off_c, 1, 69, 0
1, 133379, Note_off_c, 1, 60, 0
1, 133379, Note_off_c, 1, 62, 0
1, 133380, Note_on_c, 1, 75, 127
1, 133380, Note_on_c, 1, 66, 127
1, 133380, Note_on_c, 1, 60, 127
1, 133409, Note_off_c, 1, 60, 0
1, 133410, Note_on_c, 1, 59, 127
1, 133439, Note_off_c, 1, 75, 0
1, 133439, Note_off_c, 1, 66, 0
1, 133439, Note_off_c, 1, 59, 0
1, 133440, Note_on_c, 1, 76, 127
1, 133440, Note_on_c, 1, 67, 127
1, 133440, Note_on_c, 1, 57, 127
1, 133499, Note_off_c, 1, 76, 0
1, 133499, Note_off_c, 1, 67, 0
1, 133499, Note_off_c, 1, 57, 0
1, 133500, Note_on_c, 1, 67, 127
1, 133500, Note_on_c, 1, 64, 127
1, 133500, Note_on_c, 1, 59, 127
1, 133559, Note_off_c, 1, 67, 0
1, 133559, Note_off_c, 1, 64, 0
1, 133559, Note_off_c, 1, 59, 0
1, 133560, Note_on_c, 1, 66, 127
1, 133560, Note_on_c, 1, 64, 127
1, 133560, Note_on_c, 1, 57, 127
1, 133619, Note_off_c, 1, 66, 0
1, 133619, Note_off_c, 1, 64, 0
1, 133619, Note_off_c, 1, 57, 0
1, 133620, Note_on_c, 1, 70, 127
1, 133620, Note_on_c, 1, 64, 127
1, 133620, Note_on_c, 1, 60, 127
1, 133679, Note_off_c, 1, 70, 0
1, 133679, Note_off_c, 1, 64, 0
1, 133679, Note_off_c, 1, 60, 0
1, 133680, Note_on_c, 1, 71, 127
1, 133680, Note_on_c, 1, 66, 127
1, 133680, Note_on_c, 1, 63, 127
1, 133680, Note_on_c, 1, 59, 127
1, 133710, Note_on_c, 1, 64, 127
1, 133739, Note_off_c, 1, 63, 0
1, 133739, Note_off_c, 1, 59, 0
1, 133739, Note_off_c, 1, 64, 0
1, 133740, Note_on_c, 1, 57, 127
1, 133799, Note_off_c, 1, 71, 0
1, 133799, Note_off_c, 1, 66, 0
1, 133799, Note_off_c, 1, 57, 0
1, 133800, Note_on_c, 1, 59, 127
1, 133800, Note_on_c, 1, 64, 127
1, 133800, Note_on_c, 1, 55, 127
1, 133859, Note_off_c, 1, 59, 0
1, 133859, Note_off_c, 1, 64, 0
1, 133859, Note_off_c, 1, 55, 0
1, 133860, Note_on_c, 1, 57, 127
1, 133860, Note_on_c, 1, 63, 127
1, 133860, Note_on_c, 1, 54, 127
1, 133919, Note_off_c, 1, 57, 0
1, 133919, Note_off_c, 1, 63, 0
1, 133919, Note_off_c, 1, 54, 0
1, 133920, Note_on_c, 1, 55, 127
1, 133920, Note_on_c, 1, 67, 127
1, 133920, Note_on_c, 1, 64, 127
1, 133920, Note_on_c, 1, 52, 127
1, 133979, Note_off_c, 1, 55, 0
1, 133979, Note_off_c, 1, 67, 0
1, 133979, Note_off_c, 1, 64, 0
1, 133979, Note_off_c, 1, 52, 0
1, 133980, Note_on_c, 1, 63, 127
1, 133980, Note_on_c, 1, 69, 127
1, 133980, Note_on_c, 1, 52, 127
1, 134039, Note_off_c, 1, 52, 0
1, 134040, Note_on_c, 1, 66, 127
1, 134099, Note_off_c, 1, 66, 0
1, 134100, Note_off_c, 1, 63, 0
1, 134100, Note_off_c, 1, 69, 0
1, 134100, Note_on_c, 1, 67, 127
1, 134100, Note_on_c, 1, 64, 127
1, 134159, Note_off_c, 1, 67, 0
1, 134159, Note_off_c, 1, 64, 0
1, 134160, Note_on_c, 1, 67, 127
1, 134160, Note_on_c, 1, 64, 127
1, 134160, Note_on_c, 1, 48, 127
1, 134219, Note_off_c, 1, 67, 0
1, 134219, Note_off_c, 1, 64, 0
1, 134219, Note_off_c, 1, 48, 0
1, 134220, Note_on_c, 1, 66, 127
1, 134220, Note_on_c, 1, 67, 127
1, 134220, Note_on_c, 1, 64, 127
1, 134220, Note_on_c, 1, 48, 127
1, 134279, Note_off_c, 1, 48, 0
1, 134280, Note_on_c, 1, 75, 127
1, 134280, Note_on_c, 1, 69, 127
1, 134339, Note_off_c, 1, 66, 0
1, 134339, Note_off_c, 1, 75, 0
1, 134339, Note_off_c, 1, 69, 0
1, 134340, Note_on_c, 1, 76, 127
1, 134399, Note_off_c, 1, 67, 0
1, 134399, Note_off_c, 1, 64, 0
1, 134399, Note_off_c, 1, 76, 0
1, 134400, Note_on_c, 1, 57, 127
1, 134400, Note_on_c, 1, 63, 127
1, 134400, Note_on_c, 1, 60, 127
1, 134400, Note_on_c, 1, 54, 127
1, 134459, Note_off_c, 1, 57, 0
1, 134459, Note_off_c, 1, 63, 0
1, 134459, Note_off_c, 1, 60, 0
1, 134459, Note_off_c, 1, 54, 0
1, 134460, Note_on_c, 1, 63, 127
1, 134460, Note_on_c, 1, 60, 127
1, 134460, Note_on_c, 1, 54, 127
1, 134519, Note_off_c, 1, 60, 0
1, 134519, Note_off_c, 1, 54, 0
1, 134520, Note_on_c, 1, 81, 127
1, 134520, Note_on_c, 1, 72, 127
1, 134579, Note_off_c, 1, 63, 0
1, 134579, Note_off_c, 1, 81, 0
1, 134579, Note_off_c, 1, 72, 0
1, 134580, Note_on_c, 1, 79, 127
1, 134580, Note_on_c, 1, 71, 127
1, 134580, Note_on_c, 1, 64, 127
1, 134580, Note_on_c, 1, 67, 127
1, 134580, Note_on_c, 1, 55, 127
1, 134639, Note_off_c, 1, 79, 0
1, 134639, Note_off_c, 1, 71, 0
1, 134639, Note_off_c, 1, 64, 0
1, 134639, Note_off_c, 1, 67, 0
1, 134639, Note_off_c, 1, 55, 0
1, 134640, Note_on_c, 1, 60, 127
1, 134640, Note_on_c, 1, 69, 127
1, 134640, Note_on_c, 1, 51, 127
1, 134670, Note_on_c, 1, 59, 127
1, 134699, Note_off_c, 1, 60, 0
1, 134699, Note_off_c, 1, 69, 0
1, 134699, Note_off_c, 1, 51, 0
1, 134699, Note_off_c, 1, 59, 0
1, 134700, Note_on_c, 1, 60, 127
1, 134700, Note_on_c, 1, 66, 127
1, 134700, Note_on_c, 1, 51, 127
1, 134759, Note_off_c, 1, 51, 0
1, 134760, Note_on_c, 1, 69, 127
1, 134820, Note_off_c, 1, 60, 0
1, 134820, Note_on_c, 1, 59, 127
1, 134879, Note_off_c, 1, 66, 0
1, 134879, Note_off_c, 1, 69, 0
1, 134879, Note_off_c, 1, 59, 0
1, 134880, Note_on_c, 1, 69, 127
1, 134880, Note_on_c, 1, 63, 127
1, 134880, Note_on_c, 1, 47, 127
1, 134939, Note_off_c, 1, 69, 0
1, 134939, Note_off_c, 1, 63, 0
1, 134939, Note_off_c, 1, 47, 0
1, 134940, Note_on_c, 1, 67, 127
1, 134940, Note_on_c, 1, 63, 127
1, 134940, Note_on_c, 1, 66, 127
1, 134940, Note_on_c, 1, 47, 127
1, 134999, Note_off_c, 1, 47, 0
1, 135000, Note_on_c, 1, 76, 127
1, 135000, Note_on_c, 1, 71, 127
1, 135059, Note_off_c, 1, 76, 0
1, 135059, Note_off_c, 1, 71, 0
1, 135060, Note_off_c, 1, 67, 0
1, 135060, Note_off_c, 1, 63, 0
1, 135060, Note_on_c, 1, 75, 127
1, 135060, Note_on_c, 1, 69, 127
1, 135119, Note_off_c, 1, 66, 0
1, 135119, Note_off_c, 1, 75, 0
1, 135119, Note_off_c, 1, 69, 0
1, 135120, Note_on_c, 1, 67, 127
1, 135120, Note_on_c, 1, 64, 127
1, 135120, Note_on_c, 1, 52, 127
1, 135179, Note_off_c, 1, 67, 0
1, 135179, Note_off_c, 1, 64, 0
1, 135179, Note_off_c, 1, 52, 0
1, 135180, Note_on_c, 1, 66, 127
1, 135180, Note_on_c, 1, 57, 127
1, 135209, Note_off_c, 1, 57, 0
1, 135210, Note_on_c, 1, 59, 127
1, 135239, Note_off_c, 1, 66, 0
1, 135239, Note_off_c, 1, 59, 0
1, 135240, Note_on_c, 1, 69, 127
1, 135240, Note_on_c, 1, 66, 127
1, 135240, Note_on_c, 1, 63, 127
1, 135240, Note_on_c, 1, 60, 127
1, 135299, Note_off_c, 1, 69, 0
1, 135299, Note_off_c, 1, 66, 0
1, 135299, Note_off_c, 1, 63, 0
1, 135299, Note_off_c, 1, 60, 0
1, 135300, Note_on_c, 1, 67, 127
1, 135300, Note_on_c, 1, 64, 127
1, 135359, Note_off_c, 1, 67, 0
1, 135359, Note_off_c, 1, 64, 0
1, 135360, Note_on_c, 1, 66, 127
1, 135360, Note_on_c, 1, 63, 127
1, 135360, Note_on_c, 1, 59, 127
1, 135419, Note_off_c, 1, 66, 0
1, 135419, Note_off_c, 1, 63, 0
1, 135419, Note_off_c, 1, 59, 0
1, 135420, Note_on_c, 1, 64, 127
1, 135420, Note_on_c, 1, 67, 127
1, 135420, Note_on_c, 1, 55, 127
1, 135449, Note_off_c, 1, 67, 0
1, 135450, Note_on_c, 1, 66, 127
1, 135479, Note_off_c, 1, 64, 0
1, 135479, Note_off_c, 1, 55, 0
1, 135479, Note_off_c, 1, 66, 0
1, 135480, Note_on_c, 1, 64, 127
1, 135480, Note_on_c, 1, 66, 127
1, 135480, Note_on_c, 1, 57, 127
1, 135539, Note_off_c, 1, 64, 0
1, 135539, Note_off_c, 1, 66, 0
1, 135539, Note_off_c, 1, 57, 0
1, 135540, Note_on_c, 1, 63, 127
1, 135540, Note_on_c, 1, 59, 127
1, 135599, Note_off_c, 1, 63, 0
1, 135599, Note_off_c, 1, 59, 0
1, 135600, Note_on_c, 1, 64, 127
1, 135600, Note_on_c, 1, 67, 127
1, 135600, Note_on_c, 1, 52, 127
1, 135659, Note_off_c, 1, 67, 0
1, 135659, Note_off_c, 1, 52, 0
1, 135660, Note_on_c, 1, 69, 127
1, 135660, Note_on_c, 1, 54, 127
1, 135719, Note_off_c, 1, 64, 0
1, 135719, Note_off_c, 1, 69, 0
1, 135719, Note_off_c, 1, 54, 0
1, 135720, Note_on_c, 1, 71, 127
1, 135720, Note_on_c, 1, 55, 127
1, 135779, Note_off_c, 1, 55, 0
1, 135780, Note_on_c, 1, 74, 127
1, 135780, Note_on_c, 1, 62, 127
1, 135780, Note_on_c, 1, 52, 127
1, 135839, Note_off_c, 1, 74, 0
1, 135839, Note_off_c, 1, 62, 0
1, 135839, Note_off_c, 1, 52, 0
1, 135840, Note_on_c, 1, 57, 127
1, 135870, Note_on_c, 1, 68, 127
1, 135899, Note_off_c, 1, 71, 0
1, 135899, Note_off_c, 1, 57, 0
1, 135899, Note_off_c, 1, 68, 0
1, 135900, Note_on_c, 1, 72, 127
1, 135900, Note_on_c, 1, 69, 127
1, 135900, Note_on_c, 1, 60, 127
1, 135900, Note_on_c, 1, 54, 127
1, 135930, Note_on_c, 1, 68, 127
1, 135959, Note_off_c, 1, 72, 0
1, 135959, Note_off_c, 1, 69, 0
1, 135959, Note_off_c, 1, 60, 0
1, 135959, Note_off_c, 1, 54, 0
1, 135959, Note_off_c, 1, 68, 0
1, 135960, Note_on_c, 1, 69, 127
1, 135960, Note_on_c, 1, 59, 127
1, 135960, Note_on_c, 1, 63, 127
1, 136019, Note_off_c, 1, 59, 0
1, 136019, Note_off_c, 1, 63, 0
1, 136020, Note_on_c, 1, 75, 127
1, 136020, Note_on_c, 1, 66, 127
1, 136079, Note_off_c, 1, 75, 0
1, 136079, Note_off_c, 1, 66, 0
1, 136080, Note_on_c, 1, 67, 127
1, 136080, Note_on_c, 1, 64, 127
1, 136139, Note_off_c, 1, 69, 0
1, 136139, Note_off_c, 1, 67, 0
1, 136139, Note_off_c, 1, 64, 0
1, 136140, Note_on_c, 1, 76, 127
1, 136140, Note_on_c, 1, 67, 127
1, 136140, Note_on_c, 1, 64, 127
1, 136140, Note_on_c, 1, 62, 127
1, 136169, Note_off_c, 1, 67, 0
1, 136170, Note_on_c, 1, 66, 127
1, 136199, Note_off_c, 1, 76, 0
1, 136199, Note_off_c, 1, 64, 0
1, 136199, Note_off_c, 1, 62, 0
1, 136199, Note_off_c, 1, 66, 0
1, 136200, Note_on_c, 1, 64, 127
1, 136200, Note_on_c, 1, 67, 127
1, 136200, Note_on_c, 1, 60, 127
1, 136259, Note_off_c, 1, 67, 0
1, 136259, Note_off_c, 1, 60, 0
1, 136260, Note_on_c, 1, 79, 127
1, 136260, Note_on_c, 1, 66, 127
1, 136260, Note_on_c, 1, 59, 127
1, 136319, Note_off_c, 1, 79, 0
1, 136319, Note_off_c, 1, 66, 0
1, 136319, Note_off_c, 1, 59, 0
1, 136320, Note_on_c, 1, 57, 127
1, 136350, Note_on_c, 1, 63, 127
1, 136379, Note_off_c, 1, 64, 0
1, 136379, Note_off_c, 1, 57, 0
1, 136379, Note_off_c, 1, 63, 0
1, 136380, Note_on_c, 1, 64, 127
1, 136380, Note_on_c, 1, 78, 127
1, 136380, Note_on_c, 1, 66, 127
1, 136380, Note_on_c, 1, 59, 127
1, 136410, Note_on_c, 1, 63, 127
1, 136439, Note_off_c, 1, 64, 0
1, 136439, Note_off_c, 1, 78, 0
1, 136439, Note_off_c, 1, 66, 0
1, 136439, Note_off_c, 1, 59, 0
1, 136439, Note_off_c, 1, 63, 0
1, 136440, Note_on_c, 1, 64, 127
1, 136440, Note_on_c, 1, 67, 127
1, 136440, Note_on_c, 1, 60, 127
1, 136499, Note_off_c, 1, 67, 0
1, 136499, Note_off_c, 1, 60, 0
1, 136500, Note_on_c, 1, 70, 127
1, 136500, Note_on_c, 1, 48, 127
1, 136559, Note_off_c, 1, 70, 0
1, 136559, Note_off_c, 1, 48, 0
1, 136560, Note_on_c, 1, 47, 127
1, 136589, Note_off_c, 1, 64, 0
1, 136590, Note_on_c, 1, 61, 127
1, 136619, Note_off_c, 1, 47, 0
1, 136619, Note_off_c, 1, 61, 0
1, 136620, Note_on_c, 1, 63, 127
1, 136620, Note_on_c, 1, 71, 127
1, 136620, Note_on_c, 1, 66, 127
1, 136620, Note_on_c, 1, 59, 127
1, 136649, Note_off_c, 1, 59, 0
1, 136650, Note_on_c, 1, 57, 127
1, 136679, Note_off_c, 1, 63, 0
1, 136679, Note_off_c, 1, 71, 0
1, 136679, Note_off_c, 1, 66, 0
1, 136679, Note_off_c, 1, 57, 0
1, 136680, Note_on_c, 1, 59, 127
1, 136680, Note_on_c, 1, 64, 127
1, 136680, Note_on_c, 1, 55, 127
1, 136739, Note_off_c, 1, 64, 0
1, 136739, Note_off_c, 1, 55, 0
1, 136740, Note_on_c, 1, 71, 127
1, 136740, Note_on_c, 1, 63, 127
1, 136740, Note_on_c, 1, 54, 127
1, 136799, Note_off_c, 1, 71, 0
1, 136799, Note_off_c, 1, 63, 0
1, 136799, Note_off_c, 1, 54, 0
1, 136800, Note_on_c, 1, 76, 127
1, 136829, Note_off_c, 1, 76, 0
1, 136830, Note_on_c, 1, 78, 127
1, 136859, Note_off_c, 1, 59, 0
1, 136859, Note_off_c, 1, 78, 0
1, 136860, Note_on_c, 1, 79, 127
1, 136860, Note_on_c, 1, 64, 127
1, 136860, Note_on_c, 1, 67, 127
1, 136860, Note_on_c, 1, 52, 127
1, 136889, Note_off_c, 1, 79, 0
1, 136890, Note_on_c, 1, 78, 127
1, 136919, Note_off_c, 1, 64, 0
1, 136919, Note_off_c, 1, 67, 0
1, 136919, Note_off_c, 1, 52, 0
1, 136919, Note_off_c, 1, 78, 0
1, 136920, Note_on_c, 1, 76, 127
1, 136920, Note_on_c, 1, 57, 127
1, 136920, Note_on_c, 1, 64, 127
1, 136920, Note_on_c, 1, 54, 127
1, 136979, Note_off_c, 1, 76, 0
1, 136979, Note_off_c, 1, 57, 0
1, 136979, Note_off_c, 1, 64, 0
1, 136979, Note_off_c, 1, 54, 0
1, 136980, Note_on_c, 1, 75, 127
1, 136980, Note_on_c, 1, 66, 127
1, 136980, Note_on_c, 1, 59, 127
1, 136980, Note_on_c, 1, 63, 127
1, 136980, Note_on_c, 1, 57, 127
1, 137039, Note_off_c, 1, 75, 0
1, 137039, Note_off_c, 1, 66, 0
1, 137039, Note_off_c, 1, 59, 0
1, 137039, Note_off_c, 1, 63, 0
1, 137039, Note_off_c, 1, 57, 0
1, 137040, Note_on_c, 1, 76, 127
1, 137040, Note_on_c, 1, 59, 127
1, 137040, Note_on_c, 1, 64, 127
1, 137040, Note_on_c, 1, 55, 127
1, 137099, Note_off_c, 1, 76, 0
1, 137099, Note_off_c, 1, 59, 0
1, 137099, Note_off_c, 1, 64, 0
1, 137099, Note_off_c, 1, 55, 0
1, 137100, Note_on_c, 1, 74, 127
1, 137100, Note_on_c, 1, 67, 127
1, 137100, Note_on_c, 1, 64, 127
1, 137100, Note_on_c, 1, 52, 127
1, 137129, Note_off_c, 1, 74, 0
1, 137130, Note_on_c, 1, 72, 127
1, 137159, Note_off_c, 1, 67, 0
1, 137159, Note_off_c, 1, 64, 0
1, 137159, Note_off_c, 1, 52, 0
1, 137159, Note_off_c, 1, 72, 0
1, 137160, Note_on_c, 1, 71, 127
1, 137160, Note_on_c, 1, 66, 127
1, 137160, Note_on_c, 1, 59, 127
1, 137160, Note_on_c, 1, 51, 127
1, 137190, Note_on_c, 1, 64, 127
1, 137219, Note_off_c, 1, 71, 0
1, 137219, Note_off_c, 1, 66, 0
1, 137219, Note_off_c, 1, 59, 0
1, 137219, Note_off_c, 1, 51, 0
1, 137219, Note_off_c, 1, 64, 0
1, 137220, Note_on_c, 1, 69, 127
1, 137220, Note_on_c, 1, 63, 127
1, 137220, Note_on_c, 1, 47, 127
1, 137250, Note_on_c, 1, 66, 127
1, 137279, Note_off_c, 1, 69, 0
1, 137279, Note_off_c, 1, 63, 0
1, 137279, Note_off_c, 1, 47, 0
1, 137279, Note_off_c, 1, 66, 0
1, 137280, Note_on_c, 1, 67, 127
1, 137280, Note_on_c, 1, 64, 127
1, 137280, Note_on_c, 1, 52, 127
1, 137310, Note_on_c, 1, 72, 127
1, 137339, Note_off_c, 1, 67, 0
1, 137339, Note_off_c, 1, 64, 0
1, 137339, Note_off_c, 1, 52, 0
1, 137339, Note_off_c, 1, 72, 0
1, 137340, Note_on_c, 1, 71, 127
1, 137340, Note_on_c, 1, 76, 127
1, 137340, Note_on_c, 1, 64, 127
1, 137340, Note_on_c, 1, 43, 127
1, 137369, Note_off_c, 1, 71, 0
1, 137370, Note_on_c, 1, 69, 127
1, 137399, Note_off_c, 1, 64, 0
1, 137399, Note_off_c, 1, 43, 0
1, 137399, Note_off_c, 1, 69, 0
1, 137400, Note_on_c, 1, 67, 127
1, 137400, Note_on_c, 1, 66, 127
1, 137400, Note_on_c, 1, 45, 127
1, 137459, Note_off_c, 1, 76, 0
1, 137459, Note_off_c, 1, 67, 0
1, 137459, Note_off_c, 1, 66, 0
1, 137459, Note_off_c, 1, 45, 0
1, 137460, Note_on_c, 1, 66, 127
1, 137460, Note_on_c, 1, 75, 127
1, 137460, Note_on_c, 1, 63, 127
1, 137460, Note_on_c, 1, 47, 127
1, 137519, Note_off_c, 1, 66, 0
1, 137519, Note_off_c, 1, 75, 0
1, 137519, Note_off_c, 1, 63, 0
1, 137519, Note_off_c, 1, 47, 0
1, 137520, Note_on_c, 1, 64, 127
1, 137520, Note_on_c, 1, 76, 127
1, 137520, Note_on_c, 1, 59, 127
1, 137520, Note_on_c, 1, 40, 127
1, 137579, Note_off_c, 1, 59, 0
1, 137579, Note_off_c, 1, 40, 0
1, 137610, Note_on_c, 1, 57, 127
1, 137639, Note_off_c, 1, 64, 0
1, 137639, Note_off_c, 1, 76, 0
1, 137639, Note_off_c, 1, 57, 0
1, 137640, Note_on_c, 1, 55, 127
1, 137669, Note_off_c, 1, 55, 0
1, 137670, Note_on_c, 1, 54, 127
1, 137699, Note_off_c, 1, 54, 0
1, 137700, Note_on_c, 1, 59, 127
1, 137700, Note_on_c, 1, 55, 127
1, 137729, Note_off_c, 1, 55, 0
1, 137730, Note_on_c, 1, 54, 127
1, 137759, Note_off_c, 1, 59, 0
1, 137759, Note_off_c, 1, 54, 0
1, 137760, Note_on_c, 1, 67, 127
1, 137760, Note_on_c, 1, 64, 127
1, 137760, Note_on_c, 1, 59, 127
1, 137760, Note_on_c, 1, 52, 127
1, 137790, Note_on_c, 1, 66, 127
1, 137819, Note_off_c, 1, 52, 0
1, 137819, Note_off_c, 1, 66, 0
1, 137879, Note_off_c, 1, 67, 0
1, 137879, Note_off_c, 1, 59, 0
1, 137880, Note_on_c, 1, 79, 127
1, 137880, Note_on_c, 1, 71, 127
1, 137939, Note_off_c, 1, 64, 0
1, 137940, Note_on_c, 1, 62, 127
1, 137999, Note_off_c, 1, 79, 0
1, 137999, Note_off_c, 1, 71, 0
1, 137999, Note_off_c, 1, 62, 0
1, 138000, Note_on_c, 1, 61, 127
1, 138000, Note_on_c, 1, 67, 127
1, 138000, Note_on_c, 1, 57, 127
1, 138030, Note_on_c, 1, 59, 127
1, 138059, Note_off_c, 1, 57, 0
1, 138059, Note_off_c, 1, 59, 0
1, 138119, Note_off_c, 1, 61, 0
1, 138119, Note_off_c, 1, 67, 0
1, 138120, Note_on_c, 1, 79, 127
1, 138120, Note_on_c, 1, 73, 127
1, 138239, Note_off_c, 1, 79, 0
1, 138239, Note_off_c, 1, 73, 0
1, 138240, Note_on_c, 1, 66, 127
1, 138240, Note_on_c, 1, 61, 127
1, 138240, Note_on_c, 1, 50, 127
1, 138270, Note_on_c, 1, 64, 127
1, 138299, Note_off_c, 1, 50, 0
1, 138299, Note_off_c, 1, 64, 0
1, 138300, Note_on_c, 1, 62, 127
1, 138359, Note_off_c, 1, 66, 0
1, 138359, Note_off_c, 1, 61, 0
1, 138360, Note_on_c, 1, 78, 127
1, 138360, Note_on_c, 1, 73, 127
1, 138419, Note_off_c, 1, 62, 0
1, 138479, Note_off_c, 1, 78, 0
1, 138479, Note_off_c, 1, 73, 0
1, 138480, Note_on_c, 1, 59, 127
1, 138480, Note_on_c, 1, 66, 127
1, 138480, Note_on_c, 1, 55, 127
1, 138510, Note_on_c, 1, 58, 127
1, 138539, Note_off_c, 1, 55, 0
1, 138539, Note_off_c, 1, 58, 0
1, 138599, Note_off_c, 1, 59, 0
1, 138599, Note_off_c, 1, 66, 0
1, 138600, Note_on_c, 1, 78, 127
1, 138600, Note_on_c, 1, 71, 127
1, 138600, Note_on_c, 1, 55, 127
1, 138659, Note_off_c, 1, 55, 0
1, 138719, Note_off_c, 1, 78, 0
1, 138719, Note_off_c, 1, 71, 0
1, 138720, Note_on_c, 1, 64, 127
1, 138720, Note_on_c, 1, 59, 127
1, 138720, Note_on_c, 1, 49, 127
1, 138750, Note_on_c, 1, 62, 127
1, 138779, Note_off_c, 1, 49, 0
1, 138779, Note_off_c, 1, 62, 0
1, 138780, Note_on_c, 1, 61, 127
1, 138839, Note_off_c, 1, 64, 0
1, 138839, Note_off_c, 1, 59, 0
1, 138840, Note_on_c, 1, 76, 127
1, 138840, Note_on_c, 1, 71, 127
1, 138899, Note_off_c, 1, 61, 0
1, 138959, Note_off_c, 1, 76, 0
1, 138959, Note_off_c, 1, 71, 0
1, 138960, Note_on_c, 1, 58, 127
1, 138960, Note_on_c, 1, 64, 127
1, 138960, Note_on_c, 1, 54, 127
1, 138990, Note_on_c, 1, 56, 127
1, 139019, Note_off_c, 1, 54, 0
1, 139019, Note_off_c, 1, 56, 0
1, 139079, Note_off_c, 1, 58, 0
1, 139079, Note_off_c, 1, 64, 0
1, 139080, Note_on_c, 1, 76, 127
1, 139080, Note_on_c, 1, 70, 127
1, 139140, Note_on_c, 1, 52, 127
1, 139199, Note_off_c, 1, 76, 0
1, 139199, Note_off_c, 1, 70, 0
1, 139199, Note_off_c, 1, 52, 0
1, 139200, Note_on_c, 1, 59, 127
1, 139200, Note_on_c, 1, 50, 127
1, 139259, Note_off_c, 1, 59, 0
1, 139259, Note_off_c, 1, 50, 0
1, 139260, Note_on_c, 1, 76, 127
1, 139260, Note_on_c, 1, 73, 127
1, 139260, Note_on_c, 1, 67, 127
1, 139260, Note_on_c, 1, 61, 127
1, 139260, Note_on_c, 1, 52, 127
1, 139319, Note_off_c, 1, 76, 0
1, 139319, Note_off_c, 1, 73, 0
1, 139319, Note_off_c, 1, 67, 0
1, 139319, Note_off_c, 1, 61, 0
1, 139319, Note_off_c, 1, 52, 0
1, 139320, Note_on_c, 1, 74, 127
1, 139320, Note_on_c, 1, 71, 127
1, 139320, Note_on_c, 1, 66, 127
1, 139320, Note_on_c, 1, 62, 127
1, 139320, Note_on_c, 1, 54, 127
1, 139379, Note_off_c, 1, 74, 0
1, 139379, Note_off_c, 1, 71, 0
1, 139379, Note_off_c, 1, 66, 0
1, 139379, Note_off_c, 1, 62, 0
1, 139379, Note_off_c, 1, 54, 0
1, 139380, Note_on_c, 1, 73, 127
1, 139380, Note_on_c, 1, 70, 127
1, 139380, Note_on_c, 1, 64, 127
1, 139380, Note_on_c, 1, 42, 127
1, 139439, Note_off_c, 1, 73, 0
1, 139439, Note_off_c, 1, 70, 0
1, 139439, Note_off_c, 1, 64, 0
1, 139439, Note_off_c, 1, 42, 0
1, 139440, Note_on_c, 1, 71, 127
1, 139440, Note_on_c, 1, 62, 127
1, 139440, Note_on_c, 1, 47, 127
1, 139470, Note_on_c, 1, 70, 127
1, 139470, Note_on_c, 1, 61, 127
1, 139499, Note_off_c, 1, 71, 0
1, 139499, Note_off_c, 1, 62, 0
1, 139499, Note_off_c, 1, 47, 0
1, 139499, Note_off_c, 1, 70, 0
1, 139499, Note_off_c, 1, 61, 0
1, 139500, Note_on_c, 1, 71, 127
1, 139500, Note_on_c, 1, 66, 127
1, 139500, Note_on_c, 1, 62, 127
1, 139500, Note_on_c, 1, 64, 127
1, 139500, Note_on_c, 1, 49, 127
1, 139529, Note_off_c, 1, 71, 0
1, 139529, Note_off_c, 1, 66, 0
1, 139529, Note_off_c, 1, 62, 0
1, 139530, Note_on_c, 1, 70, 127
1, 139530, Note_on_c, 1, 61, 127
1, 139559, Note_off_c, 1, 64, 0
1, 139559, Note_off_c, 1, 49, 0
1, 139559, Note_off_c, 1, 70, 0
1, 139559, Note_off_c, 1, 61, 0
1, 139560, Note_on_c, 1, 71, 127
1, 139560, Note_on_c, 1, 66, 127
1, 139560, Note_on_c, 1, 59, 127
1, 139560, Note_on_c, 1, 50, 127
1, 139619, Note_off_c, 1, 71, 0
1, 139619, Note_off_c, 1, 66, 0
1, 139619, Note_off_c, 1, 59, 0
1, 139619, Note_off_c, 1, 50, 0
1, 139620, Note_on_c, 1, 62, 127
1, 139620, Note_on_c, 1, 47, 127
1, 139679, Note_off_c, 1, 62, 0
1, 139679, Note_off_c, 1, 47, 0
1, 139680, Note_on_c, 1, 62, 127
1, 139680, Note_on_c, 1, 64, 127
1, 139680, Note_on_c, 1, 67, 127
1, 139680, Note_on_c, 1, 52, 127
1, 139739, Note_off_c, 1, 62, 0
1, 139739, Note_off_c, 1, 64, 0
1, 139739, Note_off_c, 1, 67, 0
1, 139739, Note_off_c, 1, 52, 0
1, 139740, Note_on_c, 1, 61, 127
1, 139740, Note_on_c, 1, 57, 127
1, 139740, Note_on_c, 1, 64, 127
1, 139740, Note_on_c, 1, 55, 127
1, 139769, Note_off_c, 1, 55, 0
1, 139770, Note_on_c, 1, 54, 127
1, 139799, Note_off_c, 1, 57, 0
1, 139799, Note_off_c, 1, 54, 0
1, 139800, Note_on_c, 1, 73, 127
1, 139800, Note_on_c, 1, 67, 127
1, 139800, Note_on_c, 1, 52, 127
1, 139829, Note_off_c, 1, 52, 0
1, 139830, Note_on_c, 1, 50, 127
1, 139859, Note_off_c, 1, 73, 0
1, 139859, Note_off_c, 1, 67, 0
1, 139859, Note_off_c, 1, 50, 0
1, 139860, Note_off_c, 1, 61, 0
1, 139860, Note_off_c, 1, 64, 0
1, 139860, Note_on_c, 1, 74, 127
1, 139860, Note_on_c, 1, 66, 127
1, 139860, Note_on_c, 1, 62, 127
1, 139860, Note_on_c, 1, 59, 127
1, 139919, Note_off_c, 1, 74, 0
1, 139919, Note_off_c, 1, 66, 0
1, 139919, Note_off_c, 1, 62, 0
1, 139919, Note_off_c, 1, 59, 0
1, 139920, Note_on_c, 1, 63, 127
1, 139920, Note_on_c, 1, 67, 127
1, 139920, Note_on_c, 1, 69, 127
1, 139920, Note_on_c, 1, 49, 127
1, 139949, Note_off_c, 1, 49, 0
1, 139950, Note_on_c, 1, 47, 127
1, 139979, Note_off_c, 1, 63, 0
1, 139979, Note_off_c, 1, 47, 0
1, 139980, Note_on_c, 1, 57, 127
1, 140039, Note_off_c, 1, 57, 0
1, 140040, Note_on_c, 1, 64, 127
1, 140069, Note_off_c, 1, 64, 0
1, 140070, Note_on_c, 1, 66, 127
1, 140070, Note_on_c, 1, 62, 127
1, 140099, Note_off_c, 1, 66, 0
1, 140099, Note_off_c, 1, 62, 0
1, 140100, Note_on_c, 1, 45, 127
1, 140130, Note_on_c, 1, 61, 127
1, 140159, Note_off_c, 1, 67, 0
1, 140159, Note_off_c, 1, 45, 0
1, 140159, Note_off_c, 1, 61, 0
1, 140160, Note_on_c, 1, 50, 127
1, 140189, Note_off_c, 1, 69, 0
1, 140219, Note_off_c, 1, 50, 0
1, 140220, Note_on_c, 1, 64, 127
1, 140220, Note_on_c, 1, 66, 127
1, 140220, Note_on_c, 1, 47, 127
1, 140249, Note_off_c, 1, 64, 0
1, 140250, Note_on_c, 1, 62, 127
1, 140279, Note_off_c, 1, 66, 0
1, 140279, Note_off_c, 1, 47, 0
1, 140279, Note_off_c, 1, 62, 0
1, 140280, Note_on_c, 1, 66, 127
1, 140280, Note_on_c, 1, 62, 127
1, 140280, Note_on_c, 1, 43, 127
1, 140339, Note_off_c, 1, 66, 0
1, 140339, Note_off_c, 1, 62, 0
1, 140339, Note_off_c, 1, 43, 0
1, 140340, Note_on_c, 1, 64, 127
1, 140340, Note_on_c, 1, 61, 127
1, 140340, Note_on_c, 1, 45, 127
1, 140399, Note_off_c, 1, 64, 0
1, 140399, Note_off_c, 1, 61, 0
1, 140399, Note_off_c, 1, 45, 0
1, 140400, Note_on_c, 1, 78, 127
1, 140400, Note_on_c, 1, 69, 127
1, 140400, Note_on_c, 1, 62, 127
1, 140400, Note_on_c, 1, 57, 127
1, 140400, Note_on_c, 1, 38, 127
1, 140429, Note_off_c, 1, 78, 0
1, 140429, Note_off_c, 1, 69, 0
1, 140430, Note_on_c, 1, 76, 127
1, 140430, Note_on_c, 1, 67, 127
1, 140459, Note_off_c, 1, 38, 0
1, 140459, Note_off_c, 1, 76, 0
1, 140459, Note_off_c, 1, 67, 0
1, 140460, Note_on_c, 1, 50, 127
1, 140519, Note_off_c, 1, 50, 0
1, 140520, Note_off_c, 1, 62, 0
1, 140520, Note_off_c, 1, 57, 0
1, 140520, Note_on_c, 1, 74, 127
1, 140520, Note_on_c, 1, 66, 127
1, 140579, Note_off_c, 1, 74, 0
1, 140579, Note_off_c, 1, 66, 0
1, 140580, Note_on_c, 1, 60, 127
1, 140580, Note_on_c, 1, 67, 127
1, 140580, Note_on_c, 1, 52, 127
1, 140609, Note_off_c, 1, 67, 0
1, 140609, Note_off_c, 1, 52, 0
1, 140610, Note_on_c, 1, 69, 127
1, 140610, Note_on_c, 1, 54, 127
1, 140639, Note_off_c, 1, 60, 0
1, 140639, Note_off_c, 1, 69, 0
1, 140639, Note_off_c, 1, 54, 0
1, 140640, Note_on_c, 1, 74, 127
1, 140640, Note_on_c, 1, 71, 127
1, 140640, Note_on_c, 1, 59, 127
1, 140640, Note_on_c, 1, 67, 127
1, 140640, Note_on_c, 1, 55, 127
1, 140669, Note_off_c, 1, 74, 0
1, 140670, Note_on_c, 1, 72, 127
1, 140670, Note_on_c, 1, 69, 127
1, 140699, Note_off_c, 1, 71, 0
1, 140699, Note_off_c, 1, 59, 0
1, 140699, Note_off_c, 1, 67, 0
1, 140699, Note_off_c, 1, 55, 0
1, 140699, Note_off_c, 1, 72, 0
1, 140699, Note_off_c, 1, 69, 0
1, 140700, Note_on_c, 1, 74, 127
1, 140700, Note_on_c, 1, 71, 127
1, 140700, Note_on_c, 1, 67, 127
1, 140700, Note_on_c, 1, 62, 127
1, 140700, Note_on_c, 1, 43, 127
1, 140729, Note_off_c, 1, 74, 0
1, 140729, Note_off_c, 1, 71, 0
1, 140730, Note_on_c, 1, 72, 127
1, 140730, Note_on_c, 1, 69, 127
1, 140759, Note_off_c, 1, 62, 0
1, 140759, Note_off_c, 1, 43, 0
1, 140759, Note_off_c, 1, 72, 0
1, 140759, Note_off_c, 1, 69, 0
1, 140790, Note_on_c, 1, 52, 127
1, 140819, Note_off_c, 1, 67, 0
1, 140819, Note_off_c, 1, 52, 0
1, 140820, Note_on_c, 1, 66, 127
1, 140820, Note_on_c, 1, 69, 127
1, 140820, Note_on_c, 1, 54, 127
1, 140849, Note_off_c, 1, 69, 0
1, 140849, Note_off_c, 1, 54, 0
1, 140850, Note_on_c, 1, 71, 127
1, 140850, Note_on_c, 1, 55, 127
1, 140879, Note_off_c, 1, 66, 0
1, 140879, Note_off_c, 1, 71, 0
1, 140879, Note_off_c, 1, 55, 0
1, 140880, Note_on_c, 1, 64, 127
1, 140880, Note_on_c, 1, 73, 127
1, 140880, Note_on_c, 1, 69, 127
1, 140880, Note_on_c, 1, 57, 127
1, 140909, Note_off_c, 1, 57, 0
1, 140910, Note_on_c, 1, 55, 127
1, 140939, Note_off_c, 1, 64, 0
1, 140939, Note_off_c, 1, 73, 0
1, 140939, Note_off_c, 1, 69, 0
1, 140939, Note_off_c, 1, 55, 0
1, 140940, Note_on_c, 1, 61, 127
1, 140940, Note_on_c, 1, 69, 127
1, 140940, Note_on_c, 1, 64, 127
1, 140940, Note_on_c, 1, 57, 127
1, 140969, Note_off_c, 1, 57, 0
1, 140970, Note_on_c, 1, 54, 127
1, 140999, Note_off_c, 1, 61, 0
1, 140999, Note_off_c, 1, 69, 0
1, 140999, Note_off_c, 1, 64, 0
1, 140999, Note_off_c, 1, 54, 0
1, 141000, Note_on_c, 1, 62, 127
1, 141000, Note_on_c, 1, 59, 127
1, 141059, Note_off_c, 1, 62, 0
1, 141059, Note_off_c, 1, 59, 0
1, 141060, Note_on_c, 1, 55, 127
1, 141060, Note_on_c, 1, 62, 127
1, 141060, Note_on_c, 1, 64, 127
1, 141060, Note_on_c, 1, 67, 127
1, 141119, Note_off_c, 1, 55, 0
1, 141119, Note_off_c, 1, 62, 0
1, 141119, Note_off_c, 1, 64, 0
1, 141119, Note_off_c, 1, 67, 0
1, 141120, Note_on_c, 1, 54, 127
1, 141120, Note_on_c, 1, 69, 127
1, 141120, Note_on_c, 1, 64, 127
1, 141120, Note_on_c, 1, 61, 127
1, 141120, Note_on_c, 1, 57, 127
1, 141239, Note_off_c, 1, 54, 0
1, 141239, Note_off_c, 1, 69, 0
1, 141239, Note_off_c, 1, 64, 0
1, 141239, Note_off_c, 1, 61, 0
1, 141239, Note_off_c, 1, 57, 0
1, 141240, Note_on_c, 1, 52, 127
1, 141240, Note_on_c, 1, 67, 127
1, 141240, Note_on_c, 1, 64, 127
1, 141240, Note_on_c, 1, 61, 127
1, 141240, Note_on_c, 1, 45, 127
1, 141255, Note_off_c, 1, 52, 0
1, 141255, Note_on_c, 1, 54, 127
1, 141270, Note_off_c, 1, 54, 0
1, 141359, Note_off_c, 1, 67, 0
1, 141359, Note_off_c, 1, 64, 0
1, 141359, Note_off_c, 1, 61, 0
1, 141359, Note_off_c, 1, 45, 0
1, 141360, Note_on_c, 1, 50, 127
1, 141360, Note_on_c, 1, 66, 127
1, 141360, Note_on_c, 1, 62, 127
1, 141360, Note_on_c, 1, 38, 127
1, 141479, Note_off_c, 1, 50, 0
1, 141479, Note_off_c, 1, 66, 0
1, 141479, Note_off_c, 1, 62, 0
1, 141479, Note_off_c, 1, 38, 0
1, 141540, Note_on_c, 1, 66, 127
1, 141599, Note_off_c, 1, 66, 0
1, 141600, Note_on_c, 1, 71, 127
1, 141659, Note_off_c, 1, 71, 0
1, 141660, Note_on_c, 1, 74, 127
1, 141660, Note_on_c, 1, 62, 127
1, 141660, Note_on_c, 1, 47, 127
1, 141719, Note_off_c, 1, 74, 0
1, 141719, Note_off_c, 1, 62, 0
1, 141719, Note_off_c, 1, 47, 0
1, 141720, Note_on_c, 1, 73, 127
1, 141720, Note_on_c, 1, 66, 127
1, 141720, Note_on_c, 1, 54, 127
1, 141749, Note_off_c, 1, 54, 0
1, 141750, Note_on_c, 1, 52, 127
1, 141779, Note_off_c, 1, 73, 0
1, 141779, Note_off_c, 1, 66, 0
1, 141779, Note_off_c, 1, 52, 0
1, 141780, Note_on_c, 1, 70, 127
1, 141780, Note_on_c, 1, 61, 127
1, 141780, Note_on_c, 1, 54, 127
1, 141809, Note_off_c, 1, 54, 0
1, 141810, Note_on_c, 1, 52, 127
1, 141839, Note_off_c, 1, 70, 0
1, 141839, Note_off_c, 1, 61, 0
1, 141839, Note_off_c, 1, 52, 0
1, 141840, Note_on_c, 1, 71, 127
1, 141840, Note_on_c, 1, 66, 127
1, 141840, Note_on_c, 1, 50, 127
1, 141869, Note_off_c, 1, 66, 0
1, 141870, Note_on_c, 1, 64, 127
1, 141899, Note_off_c, 1, 71, 0
1, 141899, Note_off_c, 1, 50, 0
1, 141899, Note_off_c, 1, 64, 0
1, 141900, Note_on_c, 1, 74, 127
1, 141900, Note_on_c, 1, 66, 127
1, 141900, Note_on_c, 1, 47, 127
1, 141929, Note_off_c, 1, 66, 0
1, 141930, Note_on_c, 1, 64, 127
1, 141959, Note_off_c, 1, 74, 0
1, 141959, Note_off_c, 1, 47, 0
1, 141959, Note_off_c, 1, 64, 0
1, 141960, Note_on_c, 1, 73, 127
1, 141960, Note_on_c, 1, 61, 127
1, 141960, Note_on_c, 1, 54, 127
1, 141989, Note_off_c, 1, 54, 0
1, 141990, Note_on_c, 1, 52, 127
1, 142019, Note_off_c, 1, 73, 0
1, 142019, Note_off_c, 1, 61, 0
1, 142019, Note_off_c, 1, 52, 0
1, 142020, Note_on_c, 1, 70, 127
1, 142020, Note_on_c, 1, 58, 127
1, 142020, Note_on_c, 1, 54, 127
1, 142049, Note_off_c, 1, 54, 0
1, 142050, Note_on_c, 1, 52, 127
1, 142079, Note_off_c, 1, 70, 0
1, 142079, Note_off_c, 1, 58, 0
1, 142079, Note_off_c, 1, 52, 0
1, 142080, Note_on_c, 1, 71, 127
1, 142080, Note_on_c, 1, 62, 127
1, 142080, Note_on_c, 1, 50, 127
1, 142109, Note_off_c, 1, 62, 0
1, 142110, Note_on_c, 1, 61, 127
1, 142139, Note_off_c, 1, 71, 0
1, 142139, Note_off_c, 1, 50, 0
1, 142139, Note_off_c, 1, 61, 0
1, 142140, Note_on_c, 1, 79, 127
1, 142140, Note_on_c, 1, 62, 127
1, 142140, Note_on_c, 1, 52, 127
1, 142169, Note_off_c, 1, 62, 0
1, 142170, Note_on_c, 1, 61, 127
1, 142199, Note_off_c, 1, 79, 0
1, 142199, Note_off_c, 1, 52, 0
1, 142199, Note_off_c, 1, 61, 0
1, 142200, Note_on_c, 1, 78, 127
1, 142200, Note_on_c, 1, 66, 127
1, 142200, Note_on_c, 1, 54, 127
1, 142259, Note_off_c, 1, 78, 0
1, 142259, Note_off_c, 1, 66, 0
1, 142259, Note_off_c, 1, 54, 0
1, 142260, Note_on_c, 1, 76, 127
1, 142260, Note_on_c, 1, 64, 127
1, 142260, Note_on_c, 1, 58, 127
1, 142260, Note_on_c, 1, 42, 127
1, 142319, Note_off_c, 1, 76, 0
1, 142319, Note_off_c, 1, 64, 0
1, 142319, Note_off_c, 1, 58, 0
1, 142319, Note_off_c, 1, 42, 0
1, 142320, Note_on_c, 1, 74, 127
1, 142320, Note_on_c, 1, 62, 127
1, 142320, Note_on_c, 1, 59, 127
1, 142320, Note_on_c, 1, 47, 127
1, 142349, Note_off_c, 1, 74, 0
1, 142350, Note_on_c, 1, 73, 127
1, 142379, Note_off_c, 1, 47, 0
1, 142379, Note_off_c, 1, 73, 0
1, 142410, Note_on_c, 1, 57, 127
1, 142439, Note_off_c, 1, 62, 0
1, 142439, Note_off_c, 1, 59, 0
1, 142439, Note_off_c, 1, 57, 0
1, 142440, Note_on_c, 1, 71, 127
1, 142440, Note_on_c, 1, 55, 127
1, 142469, Note_off_c, 1, 71, 0
1, 142469, Note_off_c, 1, 55, 0
1, 142470, Note_on_c, 1, 69, 127
1, 142470, Note_on_c, 1, 54, 127
1, 142499, Note_off_c, 1, 69, 0
1, 142499, Note_off_c, 1, 54, 0
1, 142500, Note_on_c, 1, 71, 127
1, 142500, Note_on_c, 1, 59, 127
1, 142500, Note_on_c, 1, 55, 127
1, 142529, Note_off_c, 1, 71, 0
1, 142529, Note_off_c, 1, 55, 0
1, 142530, Note_on_c, 1, 69, 127
1, 142530, Note_on_c, 1, 54, 127
1, 142559, Note_off_c, 1, 59, 0
1, 142559, Note_off_c, 1, 69, 0
1, 142559, Note_off_c, 1, 54, 0
1, 142560, Note_on_c, 1, 67, 127
1, 142560, Note_on_c, 1, 64, 127
1, 142560, Note_on_c, 1, 59, 127
1, 142560, Note_on_c, 1, 52, 127
1, 142619, Note_off_c, 1, 67, 0
1, 142620, Note_on_c, 1, 71, 127
1, 142679, Note_off_c, 1, 64, 0
1, 142679, Note_off_c, 1, 59, 0
1, 142679, Note_off_c, 1, 52, 0
1, 142679, Note_off_c, 1, 71, 0
1, 142680, Note_on_c, 1, 69, 127
1, 142680, Note_on_c, 1, 66, 127
1, 142739, Note_off_c, 1, 69, 0
1, 142739, Note_off_c, 1, 66, 0
1, 142740, Note_on_c, 1, 66, 127
1, 142740, Note_on_c, 1, 63, 127
1, 142799, Note_off_c, 1, 66, 0
1, 142799, Note_off_c, 1, 63, 0
1, 142800, Note_on_c, 1, 67, 127
1, 142800, Note_on_c, 1, 64, 127
1, 142800, Note_on_c, 1, 55, 127
1, 142800, Note_on_c, 1, 48, 127
1, 142859, Note_off_c, 1, 67, 0
1, 142860, Note_on_c, 1, 71, 127
1, 142919, Note_off_c, 1, 64, 0
1, 142919, Note_off_c, 1, 55, 0
1, 142919, Note_off_c, 1, 48, 0
1, 142919, Note_off_c, 1, 71, 0
1, 142920, Note_on_c, 1, 69, 127
1, 142920, Note_on_c, 1, 66, 127
1, 142979, Note_off_c, 1, 69, 0
1, 142979, Note_off_c, 1, 66, 0
1, 142980, Note_on_c, 1, 66, 127
1, 142980, Note_on_c, 1, 63, 127
1, 143039, Note_off_c, 1, 66, 0
1, 143039, Note_off_c, 1, 63, 0
1, 143040, Note_on_c, 1, 67, 127
1, 143040, Note_on_c, 1, 64, 127
1, 143099, Note_off_c, 1, 67, 0
1, 143099, Note_off_c, 1, 64, 0
1, 143100, Note_on_c, 1, 81, 127
1, 143100, Note_on_c, 1, 72, 127
1, 143100, Note_on_c, 1, 60, 127
1, 143100, Note_on_c, 1, 45, 127
1, 143159, Note_off_c, 1, 81, 0
1, 143159, Note_off_c, 1, 72, 0
1, 143159, Note_off_c, 1, 60, 0
1, 143159, Note_off_c, 1, 45, 0
1, 143160, Note_on_c, 1, 79, 127
1, 143160, Note_on_c, 1, 71, 127
1, 143160, Note_on_c, 1, 64, 127
1, 143160, Note_on_c, 1, 67, 127
1, 143160, Note_on_c, 1, 47, 127
1, 143219, Note_off_c, 1, 79, 0
1, 143219, Note_off_c, 1, 71, 0
1, 143219, Note_off_c, 1, 64, 0
1, 143219, Note_off_c, 1, 67, 0
1, 143219, Note_off_c, 1, 47, 0
1, 143220, Note_on_c, 1, 78, 127
1, 143220, Note_on_c, 1, 69, 127
1, 143220, Note_on_c, 1, 63, 127
1, 143220, Note_on_c, 1, 66, 127
1, 143220, Note_on_c, 1, 59, 127
1, 143279, Note_off_c, 1, 78, 0
1, 143279, Note_off_c, 1, 69, 0
1, 143279, Note_off_c, 1, 63, 0
1, 143279, Note_off_c, 1, 66, 0
1, 143279, Note_off_c, 1, 59, 0
1, 143280, Note_on_c, 1, 76, 127
1, 143280, Note_on_c, 1, 67, 127
1, 143280, Note_on_c, 1, 52, 127
1, 143309, Note_off_c, 1, 76, 0
1, 143310, Note_on_c, 1, 75, 127
1, 143310, Note_on_c, 1, 66, 127
1, 143339, Note_off_c, 1, 67, 0
1, 143339, Note_off_c, 1, 52, 0
1, 143339, Note_off_c, 1, 75, 0
1, 143339, Note_off_c, 1, 66, 0
1, 143340, Note_on_c, 1, 76, 127
1, 143340, Note_on_c, 1, 67, 127
1, 143340, Note_on_c, 1, 69, 127
1, 143340, Note_on_c, 1, 54, 127
1, 143369, Note_off_c, 1, 76, 0
1, 143369, Note_off_c, 1, 67, 0
1, 143370, Note_on_c, 1, 75, 127
1, 143370, Note_on_c, 1, 66, 127
1, 143399, Note_off_c, 1, 69, 0
1, 143399, Note_off_c, 1, 54, 0
1, 143399, Note_off_c, 1, 75, 0
1, 143399, Note_off_c, 1, 66, 0
1, 143400, Note_on_c, 1, 76, 127
1, 143400, Note_on_c, 1, 64, 127
1, 143400, Note_on_c, 1, 71, 127
1, 143400, Note_on_c, 1, 55, 127
1, 143459, Note_off_c, 1, 64, 0
1, 143459, Note_off_c, 1, 71, 0
1, 143459, Note_off_c, 1, 55, 0
1, 143460, Note_on_c, 1, 67, 127
1, 143460, Note_on_c, 1, 52, 127
1, 143519, Note_off_c, 1, 67, 0
1, 143519, Note_off_c, 1, 52, 0
1, 143520, Note_on_c, 1, 58, 127
1, 143549, Note_off_c, 1, 76, 0
1, 143550, Note_on_c, 1, 75, 127
1, 143579, Note_off_c, 1, 58, 0
1, 143579, Note_off_c, 1, 75, 0
1, 143580, Note_on_c, 1, 76, 127
1, 143580, Note_on_c, 1, 66, 127
1, 143580, Note_on_c, 1, 59, 127
1, 143609, Note_off_c, 1, 76, 0
1, 143610, Note_on_c, 1, 75, 127
1, 143639, Note_off_c, 1, 66, 0
1, 143639, Note_off_c, 1, 59, 0
1, 143639, Note_off_c, 1, 75, 0
1, 143640, Note_on_c, 1, 76, 127
1, 143640, Note_on_c, 1, 70, 127
1, 143640, Note_on_c, 1, 61, 127
1, 143699, Note_off_c, 1, 70, 0
1, 143699, Note_off_c, 1, 61, 0
1, 143700, Note_on_c, 1, 66, 127
1, 143700, Note_on_c, 1, 54, 127
1, 143759, Note_off_c, 1, 66, 0
1, 143759, Note_off_c, 1, 54, 0
1, 143760, Note_on_c, 1, 59, 127
1, 143819, Note_off_c, 1, 59, 0
1, 143820, Note_off_c, 1, 76, 0
1, 143820, Note_on_c, 1, 74, 127
1, 143820, Note_on_c, 1, 71, 127
1, 143849, Note_off_c, 1, 74, 0
1, 143849, Note_off_c, 1, 71, 0
1, 143850, Note_on_c, 1, 73, 127
1, 143879, Note_off_c, 1, 73, 0
1, 143880, Note_on_c, 1, 74, 127
1, 143880, Note_on_c, 1, 71, 127
1, 143880, Note_on_c, 1, 67, 127
1, 143880, Note_on_c, 1, 52, 127
1, 143909, Note_off_c, 1, 67, 0
1, 143909, Note_off_c, 1, 52, 0
1, 143910, Note_on_c, 1, 66, 127
1, 143910, Note_on_c, 1, 50, 127
1, 143939, Note_off_c, 1, 74, 0
1, 143939, Note_off_c, 1, 66, 0
1, 143939, Note_off_c, 1, 50, 0
1, 143940, Note_on_c, 1, 62, 127
1, 143940, Note_on_c, 1, 64, 127
1, 143940, Note_on_c, 1, 49, 127
1, 143969, Note_off_c, 1, 64, 0
1, 143969, Note_off_c, 1, 49, 0
1, 143970, Note_on_c, 1, 47, 127
1, 143999, Note_off_c, 1, 62, 0
1, 143999, Note_off_c, 1, 47, 0
1, 144000, Note_on_c, 1, 59, 127
1, 144029, Note_off_c, 1, 71, 0
1, 144030, Note_on_c, 1, 70, 127
1, 144059, Note_off_c, 1, 59, 0
1, 144059, Note_off_c, 1, 70, 0
1, 144060, Note_on_c, 1, 61, 127
1, 144060, Note_on_c, 1, 71, 127
1, 144060, Note_on_c, 1, 59, 127
1, 144060, Note_on_c, 1, 54, 127
1, 144089, Note_off_c, 1, 71, 0
1, 144090, Note_on_c, 1, 70, 127
1, 144119, Note_off_c, 1, 61, 0
1, 144119, Note_off_c, 1, 59, 0
1, 144119, Note_off_c, 1, 54, 0
1, 144119, Note_off_c, 1, 70, 0
1, 144120, Note_on_c, 1, 71, 127
1, 144120, Note_on_c, 1, 64, 127
1, 144120, Note_on_c, 1, 59, 127
1, 144120, Note_on_c, 1, 55, 127
1, 144179, Note_off_c, 1, 64, 0
1, 144179, Note_off_c, 1, 59, 0
1, 144179, Note_off_c, 1, 55, 0
1, 144180, Note_on_c, 1, 65, 127
1, 144180, Note_on_c, 1, 43, 127
1, 144239, Note_off_c, 1, 65, 0
1, 144239, Note_off_c, 1, 43, 0
1, 144240, Note_on_c, 1, 42, 127
1, 144269, Note_off_c, 1, 71, 0
1, 144270, Note_on_c, 1, 68, 127
1, 144299, Note_off_c, 1, 42, 0
1, 144299, Note_off_c, 1, 68, 0
1, 144300, Note_on_c, 1, 66, 127
1, 144300, Note_on_c, 1, 70, 127
1, 144300, Note_on_c, 1, 54, 127
1, 144329, Note_off_c, 1, 54, 0
1, 144330, Note_on_c, 1, 52, 127
1, 144359, Note_off_c, 1, 66, 0
1, 144359, Note_off_c, 1, 70, 0
1, 144359, Note_off_c, 1, 52, 0
1, 144360, Note_on_c, 1, 78, 127
1, 144360, Note_on_c, 1, 59, 127
1, 144360, Note_on_c, 1, 50, 127
1, 144419, Note_off_c, 1, 78, 0
1, 144419, Note_off_c, 1, 59, 0
1, 144419, Note_off_c, 1, 50, 0
1, 144420, Note_on_c, 1, 70, 127
1, 144420, Note_on_c, 1, 76, 127
1, 144420, Note_on_c, 1, 58, 127
1, 144420, Note_on_c, 1, 49, 127
1, 144479, Note_off_c, 1, 70, 0
1, 144479, Note_off_c, 1, 76, 0
1, 144479, Note_off_c, 1, 58, 0
1, 144479, Note_off_c, 1, 49, 0
1, 144480, Note_on_c, 1, 70, 127
1, 144480, Note_on_c, 1, 76, 127
1, 144480, Note_on_c, 1, 58, 127
1, 144480, Note_on_c, 1, 47, 127
1, 144509, Note_off_c, 1, 47, 0
1, 144510, Note_on_c, 1, 49, 127
1, 144539, Note_off_c, 1, 70, 0
1, 144539, Note_off_c, 1, 76, 0
1, 144539, Note_off_c, 1, 58, 0
1, 144539, Note_off_c, 1, 49, 0
1, 144540, Note_on_c, 1, 71, 127
1, 144540, Note_on_c, 1, 74, 127
1, 144540, Note_on_c, 1, 59, 127
1, 144540, Note_on_c, 1, 50, 127
1, 144569, Note_off_c, 1, 50, 0
1, 144570, Note_on_c, 1, 49, 127
1, 144599, Note_off_c, 1, 71, 0
1, 144599, Note_off_c, 1, 74, 0
1, 144599, Note_off_c, 1, 59, 0
1, 144599, Note_off_c, 1, 49, 0
1, 144600, Note_on_c, 1, 66, 127
1, 144600, Note_on_c, 1, 62, 127
1, 144600, Note_on_c, 1, 47, 127
1, 144659, Note_off_c, 1, 66, 0
1, 144659, Note_off_c, 1, 62, 0
1, 144659, Note_off_c, 1, 47, 0
1, 144660, Note_on_c, 1, 76, 127
1, 144660, Note_on_c, 1, 67, 127
1, 144660, Note_on_c, 1, 64, 127
1, 144660, Note_on_c, 1, 46, 127
1, 144719, Note_off_c, 1, 64, 0
1, 144719, Note_off_c, 1, 46, 0
1, 144720, Note_on_c, 1, 47, 127
1, 144749, Note_off_c, 1, 76, 0
1, 144750, Note_on_c, 1, 73, 127
1, 144779, Note_off_c, 1, 67, 0
1, 144779, Note_off_c, 1, 47, 0
1, 144779, Note_off_c, 1, 73, 0
1, 144780, Note_on_c, 1, 74, 127
1, 144780, Note_on_c, 1, 66, 127
1, 144780, Note_on_c, 1, 62, 127
1, 144780, Note_on_c, 1, 45, 127
1, 144809, Note_off_c, 1, 45, 0
1, 144810, Note_on_c, 1, 43, 127
1, 144839, Note_off_c, 1, 74, 0
1, 144839, Note_off_c, 1, 66, 0
1, 144839, Note_off_c, 1, 62, 0
1, 144839, Note_off_c, 1, 43, 0
1, 144840, Note_on_c, 1, 62, 127
1, 144840, Note_on_c, 1, 66, 127
1, 144840, Note_on_c, 1, 42, 127
1, 144899, Note_off_c, 1, 62, 0
1, 144899, Note_off_c, 1, 66, 0
1, 144899, Note_off_c, 1, 42, 0
1, 144900, Note_on_c, 1, 79, 127
1, 144900, Note_on_c, 1, 70, 127
1, 144900, Note_on_c, 1, 61, 127
1, 144900, Note_on_c, 1, 64, 127
1, 144900, Note_on_c, 1, 40, 127
1, 144959, Note_off_c, 1, 79, 0
1, 144959, Note_off_c, 1, 70, 0
1, 144959, Note_off_c, 1, 61, 0
1, 144959, Note_off_c, 1, 64, 0
1, 144959, Note_off_c, 1, 40, 0
1, 144960, Note_on_c, 1, 78, 127
1, 144960, Note_on_c, 1, 71, 127
1, 144960, Note_on_c, 1, 59, 127
1, 144960, Note_on_c, 1, 66, 127
1, 144960, Note_on_c, 1, 38, 127
1, 145019, Note_off_c, 1, 78, 0
1, 145019, Note_off_c, 1, 71, 0
1, 145019, Note_off_c, 1, 59, 0
1, 145019, Note_off_c, 1, 66, 0
1, 145019, Note_off_c, 1, 38, 0
1, 145020, Note_on_c, 1, 71, 127
1, 145020, Note_on_c, 1, 62, 127
1, 145020, Note_on_c, 1, 61, 127
1, 145020, Note_on_c, 1, 66, 127
1, 145020, Note_on_c, 1, 43, 127
1, 145079, Note_off_c, 1, 71, 0
1, 145079, Note_off_c, 1, 62, 0
1, 145079, Note_off_c, 1, 61, 0
1, 145079, Note_off_c, 1, 66, 0
1, 145079, Note_off_c, 1, 43, 0
1, 145080, Note_on_c, 1, 74, 127
1, 145080, Note_on_c, 1, 66, 127
1, 145080, Note_on_c, 1, 62, 127
1, 145080, Note_on_c, 1, 59, 127
1, 145080, Note_on_c, 1, 40, 127
1, 145109, Note_off_c, 1, 74, 0
1, 145109, Note_off_c, 1, 66, 0
1, 145110, Note_on_c, 1, 73, 127
1, 145110, Note_on_c, 1, 64, 127
1, 145139, Note_off_c, 1, 62, 0
1, 145139, Note_off_c, 1, 59, 0
1, 145139, Note_off_c, 1, 40, 0
1, 145139, Note_off_c, 1, 73, 0
1, 145139, Note_off_c, 1, 64, 0
1, 145140, Note_on_c, 1, 71, 127
1, 145140, Note_on_c, 1, 62, 127
1, 145140, Note_on_c, 1, 58, 127
1, 145140, Note_on_c, 1, 61, 127
1, 145140, Note_on_c, 1, 42, 127
1, 145169, Note_off_c, 1, 71, 0
1, 145169, Note_off_c, 1, 62, 0
1, 145170, Note_on_c, 1, 70, 127
1, 145199, Note_off_c, 1, 58, 0
1, 145199, Note_off_c, 1, 61, 0
1, 145199, Note_off_c, 1, 42, 0
1, 145199, Note_off_c, 1, 70, 0
1, 145200, Note_on_c, 1, 71, 127
1, 145200, Note_on_c, 1, 62, 127
1, 145200, Note_on_c, 1, 59, 127
1, 145200, Note_on_c, 1, 47, 127
1, 145229, Note_off_c, 1, 71, 0
1, 145230, Note_on_c, 1, 70, 127
1, 145230, Note_on_c, 1, 61, 127
1, 145259, Note_off_c, 1, 47, 0
1, 145259, Note_off_c, 1, 70, 0
1, 145259, Note_off_c, 1, 61, 0
1, 145320, Note_off_c, 1, 59, 0
1, 145320, Note_on_c, 1, 54, 127
1, 145349, Note_off_c, 1, 54, 0
1, 145350, Note_on_c, 1, 67, 127
1, 145350, Note_on_c, 1, 52, 127
1, 145379, Note_off_c, 1, 62, 0
1, 145379, Note_off_c, 1, 67, 0
1, 145379, Note_off_c, 1, 52, 0
1, 145380, Note_on_c, 1, 73, 127
1, 145380, Note_on_c, 1, 70, 127
1, 145380, Note_on_c, 1, 54, 127
1, 145380, Note_on_c, 1, 66, 127
1, 145380, Note_on_c, 1, 50, 127
1, 145409, Note_off_c, 1, 66, 0
1, 145409, Note_off_c, 1, 50, 0
1, 145410, Note_on_c, 1, 64, 127
1, 145410, Note_on_c, 1, 49, 127
1, 145439, Note_off_c, 1, 73, 0
1, 145439, Note_off_c, 1, 70, 0
1, 145439, Note_off_c, 1, 54, 0
1, 145439, Note_off_c, 1, 64, 0
1, 145439, Note_off_c, 1, 49, 0
1, 145440, Note_on_c, 1, 74, 127
1, 145440, Note_on_c, 1, 71, 127
1, 145440, Note_on_c, 1, 59, 127
1, 145440, Note_on_c, 1, 66, 127
1, 145440, Note_on_c, 1, 62, 127
1, 145440, Note_on_c, 1, 47, 127
1, 145499, Note_off_c, 1, 74, 0
1, 145499, Note_off_c, 1, 71, 0
1, 145499, Note_off_c, 1, 59, 0
1, 145559, Note_off_c, 1, 66, 0
1, 145559, Note_off_c, 1, 62, 0
1, 145559, Note_off_c, 1, 47, 0
1, 145560, Note_on_c, 1, 79, 127
1, 145560, Note_on_c, 1, 64, 127
1, 145560, Note_on_c, 1, 61, 127
1, 145619, Note_off_c, 1, 79, 0
1, 145619, Note_off_c, 1, 64, 0
1, 145619, Note_off_c, 1, 61, 0
1, 145620, Note_on_c, 1, 61, 127
1, 145620, Note_on_c, 1, 58, 127
1, 145679, Note_off_c, 1, 61, 0
1, 145679, Note_off_c, 1, 58, 0
1, 145680, Note_on_c, 1, 62, 127
1, 145680, Note_on_c, 1, 59, 127
1, 145680, Note_on_c, 1, 43, 127
1, 145740, Note_on_c, 1, 78, 127
1, 145799, Note_off_c, 1, 62, 0
1, 145799, Note_off_c, 1, 59, 0
1, 145799, Note_off_c, 1, 43, 0
1, 145799, Note_off_c, 1, 78, 0
1, 145800, Note_on_c, 1, 76, 127
1, 145800, Note_on_c, 1, 67, 127
1, 145800, Note_on_c, 1, 61, 127
1, 145859, Note_off_c, 1, 76, 0
1, 145859, Note_off_c, 1, 67, 0
1, 145859, Note_off_c, 1, 61, 0
1, 145860, Note_on_c, 1, 73, 127
1, 145860, Note_on_c, 1, 58, 127
1, 145919, Note_off_c, 1, 73, 0
1, 145919, Note_off_c, 1, 58, 0
1, 145920, Note_on_c, 1, 74, 127
1, 145920, Note_on_c, 1, 59, 127
1, 145979, Note_off_c, 1, 74, 0
1, 145979, Note_off_c, 1, 59, 0
1, 145980, Note_on_c, 1, 73, 127
1, 145980, Note_on_c, 1, 64, 127
1, 145980, Note_on_c, 1, 67, 127
1, 145980, Note_on_c, 1, 61, 127
1, 145980, Note_on_c, 1, 52, 127
1, 146039, Note_off_c, 1, 73, 0
1, 146039, Note_off_c, 1, 64, 0
1, 146039, Note_off_c, 1, 67, 0
1, 146039, Note_off_c, 1, 61, 0
1, 146039, Note_off_c, 1, 52, 0
1, 146040, Note_on_c, 1, 71, 127
1, 146040, Note_on_c, 1, 62, 127
1, 146040, Note_on_c, 1, 66, 127
1, 146040, Note_on_c, 1, 59, 127
1, 146040, Note_on_c, 1, 54, 127
1, 146099, Note_off_c, 1, 71, 0
1, 146099, Note_off_c, 1, 62, 0
1, 146099, Note_off_c, 1, 66, 0
1, 146099, Note_off_c, 1, 59, 0
1, 146099, Note_off_c, 1, 54, 0
1, 146100, Note_on_c, 1, 70, 127
1, 146100, Note_on_c, 1, 61, 127
1, 146100, Note_on_c, 1, 64, 127
1, 146100, Note_on_c, 1, 58, 127
1, 146100, Note_on_c, 1, 42, 127
1, 146159, Note_off_c, 1, 70, 0
1, 146159, Note_off_c, 1, 61, 0
1, 146159, Note_off_c, 1, 64, 0
1, 146159, Note_off_c, 1, 58, 0
1, 146159, Note_off_c, 1, 42, 0
1, 146160, Note_on_c, 1, 71, 127
1, 146160, Note_on_c, 1, 59, 127
1, 146160, Note_on_c, 1, 62, 127
1, 146160, Note_on_c, 1, 47, 127
1, 146190, Note_on_c, 1, 61, 127
1, 146219, Note_off_c, 1, 62, 0
1, 146219, Note_off_c, 1, 47, 0
1, 146219, Note_off_c, 1, 61, 0
1, 146220, Note_on_c, 1, 64, 127
1, 146220, Note_on_c, 1, 49, 127
1, 146279, Note_off_c, 1, 71, 0
1, 146279, Note_off_c, 1, 59, 0
1, 146279, Note_off_c, 1, 64, 0
1, 146279, Note_off_c, 1, 49, 0
1, 146280, Note_on_c, 1, 59, 127
1, 146280, Note_on_c, 1, 66, 127
1, 146280, Note_on_c, 1, 50, 127
1, 146309, Note_off_c, 1, 50, 0
1, 146310, Note_on_c, 1, 49, 127
1, 146339, Note_off_c, 1, 59, 0
1, 146339, Note_off_c, 1, 66, 0
1, 146339, Note_off_c, 1, 49, 0
1, 146340, Note_on_c, 1, 54, 127
1, 146340, Note_on_c, 1, 62, 127
1, 146340, Note_on_c, 1, 50, 127
1, 146369, Note_off_c, 1, 50, 0
1, 146370, Note_on_c, 1, 49, 127
1, 146399, Note_off_c, 1, 54, 0
1, 146399, Note_off_c, 1, 62, 0
1, 146399, Note_off_c, 1, 49, 0
1, 146400, Note_on_c, 1, 59, 127
1, 146400, Note_on_c, 1, 66, 127
1, 146400, Note_on_c, 1, 62, 127
1, 146400, Note_on_c, 1, 47, 127
1, 146459, Note_off_c, 1, 59, 0
1, 146460, Note_on_c, 1, 71, 127
1, 146519, Note_off_c, 1, 66, 0
1, 146519, Note_off_c, 1, 62, 0
1, 146519, Note_off_c, 1, 47, 0
1, 146519, Note_off_c, 1, 71, 0
1, 146520, Note_on_c, 1, 70, 127
1, 146520, Note_on_c, 1, 64, 127
1, 146520, Note_on_c, 1, 61, 127
1, 146579, Note_off_c, 1, 70, 0
1, 146579, Note_off_c, 1, 64, 0
1, 146579, Note_off_c, 1, 61, 0
1, 146580, Note_on_c, 1, 79, 127
1, 146580, Note_on_c, 1, 61, 127
1, 146580, Note_on_c, 1, 58, 127
1, 146639, Note_off_c, 1, 79, 0
1, 146639, Note_off_c, 1, 61, 0
1, 146639, Note_off_c, 1, 58, 0
1, 146640, Note_on_c, 1, 59, 127
1, 146640, Note_on_c, 1, 62, 127
1, 146640, Note_on_c, 1, 55, 127
1, 146700, Note_on_c, 1, 78, 127
1, 146700, Note_on_c, 1, 71, 127
1, 146759, Note_off_c, 1, 59, 0
1, 146759, Note_off_c, 1, 62, 0
1, 146759, Note_off_c, 1, 55, 0
1, 146759, Note_off_c, 1, 78, 0
1, 146759, Note_off_c, 1, 71, 0
1, 146760, Note_on_c, 1, 76, 127
1, 146760, Note_on_c, 1, 70, 127
1, 146760, Note_on_c, 1, 61, 127
1, 146819, Note_off_c, 1, 76, 0
1, 146819, Note_off_c, 1, 70, 0
1, 146819, Note_off_c, 1, 61, 0
1, 146820, Note_on_c, 1, 73, 127
1, 146820, Note_on_c, 1, 79, 127
1, 146820, Note_on_c, 1, 58, 127
1, 146879, Note_off_c, 1, 73, 0
1, 146879, Note_off_c, 1, 79, 0
1, 146879, Note_off_c, 1, 58, 0
1, 146880, Note_on_c, 1, 74, 127
1, 146880, Note_on_c, 1, 78, 127
1, 146880, Note_on_c, 1, 59, 127
1, 146939, Note_off_c, 1, 74, 0
1, 146939, Note_off_c, 1, 78, 0
1, 146939, Note_off_c, 1, 59, 0
1, 146940, Note_on_c, 1, 73, 127
1, 146940, Note_on_c, 1, 76, 127
1, 146940, Note_on_c, 1, 67, 127
1, 146940, Note_on_c, 1, 61, 127
1, 146940, Note_on_c, 1, 64, 127
1, 146940, Note_on_c, 1, 52, 127
1, 146999, Note_off_c, 1, 73, 0
1, 146999, Note_off_c, 1, 76, 0
1, 146999, Note_off_c, 1, 67, 0
1, 146999, Note_off_c, 1, 61, 0
1, 146999, Note_off_c, 1, 64, 0
1, 146999, Note_off_c, 1, 52, 0
1, 147000, Note_on_c, 1, 71, 127
1, 147000, Note_on_c, 1, 74, 127
1, 147000, Note_on_c, 1, 66, 127
1, 147000, Note_on_c, 1, 59, 127
1, 147000, Note_on_c, 1, 62, 127
1, 147000, Note_on_c, 1, 54, 127
1, 147059, Note_off_c, 1, 71, 0
1, 147059, Note_off_c, 1, 74, 0
1, 147059, Note_off_c, 1, 66, 0
1, 147059, Note_off_c, 1, 59, 0
1, 147059, Note_off_c, 1, 62, 0
1, 147059, Note_off_c, 1, 54, 0
1, 147060, Note_on_c, 1, 70, 127
1, 147060, Note_on_c, 1, 73, 127
1, 147060, Note_on_c, 1, 64, 127
1, 147060, Note_on_c, 1, 58, 127
1, 147060, Note_on_c, 1, 61, 127
1, 147060, Note_on_c, 1, 42, 127
1, 147119, Note_off_c, 1, 70, 0
1, 147119, Note_off_c, 1, 73, 0
1, 147119, Note_off_c, 1, 64, 0
1, 147119, Note_off_c, 1, 58, 0
1, 147119, Note_off_c, 1, 61, 0
1, 147119, Note_off_c, 1, 42, 0
1, 147120, Note_on_c, 1, 71, 127
1, 147120, Note_on_c, 1, 62, 127
1, 147120, Note_on_c, 1, 59, 127
1, 147120, Note_on_c, 1, 47, 127
1, 147150, Note_on_c, 1, 61, 127
1, 147179, Note_off_c, 1, 62, 0
1, 147179, Note_off_c, 1, 59, 0
1, 147179, Note_off_c, 1, 47, 0
1, 147179, Note_off_c, 1, 61, 0
1, 147180, Note_on_c, 1, 66, 127
1, 147180, Note_on_c, 1, 64, 127
1, 147180, Note_on_c, 1, 49, 127
1, 147239, Note_off_c, 1, 71, 0
1, 147239, Note_off_c, 1, 66, 0
1, 147239, Note_off_c, 1, 64, 0
1, 147239, Note_off_c, 1, 49, 0
1, 147240, Note_on_c, 1, 71, 127
1, 147240, Note_on_c, 1, 59, 127
1, 147240, Note_on_c, 1, 66, 127
1, 147240, Note_on_c, 1, 62, 127
1, 147240, Note_on_c, 1, 50, 127
1, 147299, Note_off_c, 1, 59, 0
1, 147299, Note_off_c, 1, 66, 0
1, 147299, Note_off_c, 1, 62, 0
1, 147299, Note_off_c, 1, 50, 0
1, 147300, Note_on_c, 1, 47, 127
1, 147359, Note_off_c, 1, 47, 0
1, 147360, Note_on_c, 1, 53, 127
1, 147389, Note_off_c, 1, 71, 0
1, 147390, Note_on_c, 1, 70, 127
1, 147419, Note_off_c, 1, 53, 0
1, 147419, Note_off_c, 1, 70, 0
1, 147420, Note_on_c, 1, 71, 127
1, 147420, Note_on_c, 1, 61, 127
1, 147420, Note_on_c, 1, 58, 127
1, 147420, Note_on_c, 1, 54, 127
1, 147449, Note_off_c, 1, 71, 0
1, 147450, Note_on_c, 1, 70, 127
1, 147479, Note_off_c, 1, 61, 0
1, 147479, Note_off_c, 1, 58, 0
1, 147479, Note_off_c, 1, 54, 0
1, 147479, Note_off_c, 1, 70, 0
1, 147480, Note_on_c, 1, 71, 127
1, 147480, Note_on_c, 1, 56, 127
1, 147539, Note_off_c, 1, 56, 0
1, 147540, Note_on_c, 1, 65, 127
1, 147540, Note_on_c, 1, 61, 127
1, 147540, Note_on_c, 1, 49, 127
1, 147599, Note_off_c, 1, 65, 0
1, 147599, Note_off_c, 1, 61, 0
1, 147599, Note_off_c, 1, 49, 0
1, 147600, Note_on_c, 1, 54, 127
1, 147659, Note_off_c, 1, 71, 0
1, 147659, Note_off_c, 1, 54, 0
1, 147660, Note_on_c, 1, 73, 127
1, 147660, Note_on_c, 1, 69, 127
1, 147660, Note_on_c, 1, 66, 127
1, 147660, Note_on_c, 1, 61, 127
1, 147660, Note_on_c, 1, 52, 127
1, 147689, Note_off_c, 1, 69, 0
1, 147690, Note_on_c, 1, 68, 127
1, 147719, Note_off_c, 1, 73, 0
1, 147719, Note_off_c, 1, 66, 0
1, 147719, Note_off_c, 1, 61, 0
1, 147719, Note_off_c, 1, 52, 0
1, 147719, Note_off_c, 1, 68, 0
1, 147720, Note_on_c, 1, 78, 127
1, 147720, Note_on_c, 1, 69, 127
1, 147720, Note_on_c, 1, 50, 127
1, 147779, Note_off_c, 1, 69, 0
1, 147779, Note_off_c, 1, 50, 0
1, 147780, Note_on_c, 1, 64, 127
1, 147780, Note_on_c, 1, 49, 127
1, 147839, Note_off_c, 1, 64, 0
1, 147839, Note_off_c, 1, 49, 0
1, 147840, Note_on_c, 1, 62, 127
1, 147840, Note_on_c, 1, 47, 127
1, 147869, Note_off_c, 1, 78, 0
1, 147870, Note_on_c, 1, 77, 127
1, 147899, Note_off_c, 1, 62, 0
1, 147899, Note_off_c, 1, 47, 0
1, 147899, Note_off_c, 1, 77, 0
1, 147900, Note_on_c, 1, 78, 127
1, 147900, Note_on_c, 1, 68, 127
1, 147900, Note_on_c, 1, 61, 127
1, 147900, Note_on_c, 1, 49, 127
1, 147929, Note_off_c, 1, 78, 0
1, 147930, Note_on_c, 1, 77, 127
1, 147959, Note_off_c, 1, 68, 0
1, 147959, Note_off_c, 1, 61, 0
1, 147959, Note_off_c, 1, 49, 0
1, 147959, Note_off_c, 1, 77, 0
1, 147960, Note_on_c, 1, 78, 127
1, 147960, Note_on_c, 1, 54, 127
1, 147960, Note_on_c, 1, 50, 127
1, 148019, Note_off_c, 1, 54, 0
1, 148019, Note_off_c, 1, 50, 0
1, 148020, Note_on_c, 1, 72, 127
1, 148020, Note_on_c, 1, 56, 127
1, 148020, Note_on_c, 1, 60, 127
1, 148020, Note_on_c, 1, 38, 127
1, 148079, Note_off_c, 1, 72, 0
1, 148079, Note_off_c, 1, 56, 0
1, 148079, Note_off_c, 1, 60, 0
1, 148079, Note_off_c, 1, 38, 0
1, 148080, Note_on_c, 1, 57, 127
1, 148080, Note_on_c, 1, 37, 127
1, 148109, Note_off_c, 1, 78, 0
1, 148110, Note_on_c, 1, 75, 127
1, 148139, Note_off_c, 1, 57, 0
1, 148139, Note_off_c, 1, 37, 0
1, 148139, Note_off_c, 1, 75, 0
1, 148140, Note_on_c, 1, 77, 127
1, 148140, Note_on_c, 1, 73, 127
1, 148140, Note_on_c, 1, 56, 127
1, 148140, Note_on_c, 1, 61, 127
1, 148140, Note_on_c, 1, 49, 127
1, 148169, Note_off_c, 1, 49, 0
1, 148170, Note_on_c, 1, 47, 127
1, 148199, Note_off_c, 1, 77, 0
1, 148199, Note_off_c, 1, 73, 0
1, 148199, Note_off_c, 1, 56, 0
1, 148199, Note_off_c, 1, 61, 0
1, 148199, Note_off_c, 1, 47, 0
1, 148200, Note_on_c, 1, 78, 127
1, 148200, Note_on_c, 1, 75, 127
1, 148200, Note_on_c, 1, 45, 127
1, 148229, Note_off_c, 1, 45, 0
1, 148230, Note_on_c, 1, 44, 127
1, 148259, Note_off_c, 1, 78, 0
1, 148259, Note_off_c, 1, 75, 0
1, 148259, Note_off_c, 1, 44, 0
1, 148260, Note_on_c, 1, 80, 127
1, 148260, Note_on_c, 1, 77, 127
1, 148260, Note_on_c, 1, 59, 127
1, 148260, Note_on_c, 1, 68, 127
1, 148260, Note_on_c, 1, 65, 127
1, 148260, Note_on_c, 1, 45, 127
1, 148289, Note_off_c, 1, 45, 0
1, 148290, Note_on_c, 1, 44, 127
1, 148319, Note_off_c, 1, 80, 0
1, 148319, Note_off_c, 1, 77, 0
1, 148319, Note_off_c, 1, 59, 0
1, 148319, Note_off_c, 1, 68, 0
1, 148319, Note_off_c, 1, 65, 0
1, 148319, Note_off_c, 1, 44, 0
1, 148320, Note_on_c, 1, 59, 127
1, 148320, Note_on_c, 1, 66, 127
1, 148320, Note_on_c, 1, 42, 127
1, 148379, Note_off_c, 1, 42, 0
1, 148380, Note_on_c, 1, 78, 127
1, 148380, Note_on_c, 1, 73, 127
1, 148380, Note_on_c, 1, 58, 127
1, 148380, Note_on_c, 1, 54, 127
1, 148409, Note_off_c, 1, 54, 0
1, 148410, Note_on_c, 1, 52, 127
1, 148439, Note_off_c, 1, 78, 0
1, 148439, Note_off_c, 1, 73, 0
1, 148439, Note_off_c, 1, 58, 0
1, 148439, Note_off_c, 1, 52, 0
1, 148440, Note_off_c, 1, 59, 0
1, 148440, Note_off_c, 1, 66, 0
1, 148440, Note_on_c, 1, 80, 127
1, 148440, Note_on_c, 1, 50, 127
1, 148469, Note_off_c, 1, 50, 0
1, 148470, Note_on_c, 1, 76, 127
1, 148470, Note_on_c, 1, 49, 127
1, 148499, Note_off_c, 1, 80, 0
1, 148499, Note_off_c, 1, 76, 0
1, 148499, Note_off_c, 1, 49, 0
1, 148500, Note_on_c, 1, 82, 127
1, 148500, Note_on_c, 1, 78, 127
1, 148500, Note_on_c, 1, 61, 127
1, 148500, Note_on_c, 1, 50, 127
1, 148529, Note_off_c, 1, 78, 0
1, 148529, Note_off_c, 1, 50, 0
1, 148530, Note_on_c, 1, 76, 127
1, 148530, Note_on_c, 1, 49, 127
1, 148559, Note_off_c, 1, 82, 0
1, 148559, Note_off_c, 1, 61, 0
1, 148559, Note_off_c, 1, 76, 0
1, 148559, Note_off_c, 1, 49, 0
1, 148560, Note_on_c, 1, 74, 127
1, 148560, Note_on_c, 1, 61, 127
1, 148560, Note_on_c, 1, 66, 127
1, 148560, Note_on_c, 1, 47, 127
1, 148619, Note_off_c, 1, 74, 0
1, 148619, Note_off_c, 1, 47, 0
1, 148620, Note_on_c, 1, 75, 127
1, 148620, Note_on_c, 1, 59, 127
1, 148650, Note_on_c, 1, 57, 127
1, 148679, Note_off_c, 1, 75, 0
1, 148679, Note_off_c, 1, 59, 0
1, 148679, Note_off_c, 1, 57, 0
1, 148680, Note_off_c, 1, 61, 0
1, 148680, Note_off_c, 1, 66, 0
1, 148680, Note_on_c, 1, 71, 127
1, 148680, Note_on_c, 1, 76, 127
1, 148680, Note_on_c, 1, 55, 127
1, 148709, Note_off_c, 1, 71, 0
1, 148709, Note_off_c, 1, 55, 0
1, 148710, Note_on_c, 1, 69, 127
1, 148710, Note_on_c, 1, 54, 127
1, 148739, Note_off_c, 1, 76, 0
1, 148739, Note_off_c, 1, 69, 0
1, 148739, Note_off_c, 1, 54, 0
1, 148740, Note_on_c, 1, 71, 127
1, 148740, Note_on_c, 1, 78, 127
1, 148740, Note_on_c, 1, 63, 127
1, 148740, Note_on_c, 1, 55, 127
1, 148769, Note_off_c, 1, 71, 0
1, 148769, Note_off_c, 1, 55, 0
1, 148770, Note_on_c, 1, 69, 127
1, 148770, Note_on_c, 1, 54, 127
1, 148799, Note_off_c, 1, 78, 0
1, 148799, Note_off_c, 1, 63, 0
1, 148799, Note_off_c, 1, 69, 0
1, 148799, Note_off_c, 1, 54, 0
1, 148800, Note_on_c, 1, 67, 127
1, 148800, Note_on_c, 1, 63, 127
1, 148800, Note_on_c, 1, 52, 127
1, 148829, Note_off_c, 1, 52, 0
1, 148830, Note_on_c, 1, 54, 127
1, 148859, Note_off_c, 1, 67, 0
1, 148859, Note_off_c, 1, 63, 0
1, 148859, Note_off_c, 1, 54, 0
1, 148860, Note_on_c, 1, 68, 127
1, 148860, Note_on_c, 1, 59, 127
1, 148860, Note_on_c, 1, 64, 127
1, 148860, Note_on_c, 1, 52, 127
1, 148889, Note_off_c, 1, 52, 0
1, 148890, Note_on_c, 1, 50, 127
1, 148919, Note_off_c, 1, 68, 0
1, 148919, Note_off_c, 1, 59, 0
1, 148919, Note_off_c, 1, 64, 0
1, 148919, Note_off_c, 1, 50, 0
1, 148920, Note_on_c, 1, 70, 127
1, 148920, Note_on_c, 1, 64, 127
1, 148920, Note_on_c, 1, 49, 127
1, 148949, Note_off_c, 1, 64, 0
1, 148949, Note_off_c, 1, 49, 0
1, 148950, Note_on_c, 1, 62, 127
1, 148950, Note_on_c, 1, 47, 127
1, 148979, Note_off_c, 1, 70, 0
1, 148979, Note_off_c, 1, 62, 0
1, 148979, Note_off_c, 1, 47, 0
1, 148980, Note_on_c, 1, 71, 127
1, 148980, Note_on_c, 1, 64, 127
1, 148980, Note_on_c, 1, 52, 127
1, 148980, Note_on_c, 1, 49, 127
1, 149009, Note_off_c, 1, 64, 0
1, 149009, Note_off_c, 1, 49, 0
1, 149010, Note_on_c, 1, 62, 127
1, 149010, Note_on_c, 1, 47, 127
1, 149039, Note_off_c, 1, 71, 0
1, 149039, Note_off_c, 1, 52, 0
1, 149039, Note_off_c, 1, 62, 0
1, 149039, Note_off_c, 1, 47, 0
1, 149040, Note_on_c, 1, 67, 127
1, 149040, Note_on_c, 1, 61, 127
1, 149040, Note_on_c, 1, 64, 127
1, 149040, Note_on_c, 1, 46, 127
1, 149100, Note_on_c, 1, 66, 127
1, 149159, Note_off_c, 1, 67, 0
1, 149159, Note_off_c, 1, 61, 0
1, 149159, Note_off_c, 1, 64, 0
1, 149159, Note_off_c, 1, 46, 0
1, 149159, Note_off_c, 1, 66, 0
1, 149220, Note_on_c, 1, 66, 127
1, 149220, Note_on_c, 1, 62, 127
1, 149220, Note_on_c, 1, 52, 127
1, 149279, Note_off_c, 1, 66, 0
1, 149279, Note_off_c, 1, 62, 0
1, 149279, Note_off_c, 1, 52, 0
1, 149280, Note_on_c, 1, 66, 127
1, 149280, Note_on_c, 1, 59, 127
1, 149280, Note_on_c, 1, 50, 127
1, 149309, Note_off_c, 1, 66, 0
1, 149310, Note_on_c, 1, 64, 127
1, 149339, Note_off_c, 1, 59, 0
1, 149339, Note_off_c, 1, 50, 0
1, 149339, Note_off_c, 1, 64, 0
1, 149340, Note_on_c, 1, 78, 127
1, 149340, Note_on_c, 1, 66, 127
1, 149340, Note_on_c, 1, 62, 127
1, 149340, Note_on_c, 1, 47, 127
1, 149369, Note_off_c, 1, 66, 0
1, 149370, Note_on_c, 1, 64, 127
1, 149399, Note_off_c, 1, 78, 0
1, 149399, Note_off_c, 1, 62, 0
1, 149399, Note_off_c, 1, 47, 0
1, 149399, Note_off_c, 1, 64, 0
1, 149400, Note_on_c, 1, 76, 127
1, 149400, Note_on_c, 1, 66, 127
1, 149400, Note_on_c, 1, 61, 127
1, 149400, Note_on_c, 1, 58, 127
1, 149400, Note_on_c, 1, 54, 127
1, 149429, Note_off_c, 1, 54, 0
1, 149430, Note_on_c, 1, 52, 127
1, 149459, Note_off_c, 1, 76, 0
1, 149459, Note_off_c, 1, 52, 0
1, 149460, Note_on_c, 1, 73, 127
1, 149519, Note_off_c, 1, 73, 0
1, 149520, Note_off_c, 1, 61, 0
1, 149520, Note_off_c, 1, 58, 0
1, 149520, Note_on_c, 1, 59, 127
1, 149520, Note_on_c, 1, 62, 127
1, 149520, Note_on_c, 1, 50, 127
1, 149550, Note_on_c, 1, 64, 127
1, 149579, Note_off_c, 1, 50, 0
1, 149579, Note_off_c, 1, 64, 0
1, 149580, Note_on_c, 1, 71, 127
1, 149580, Note_on_c, 1, 47, 127
1, 149639, Note_off_c, 1, 71, 0
1, 149639, Note_off_c, 1, 47, 0
1, 149640, Note_off_c, 1, 59, 0
1, 149640, Note_off_c, 1, 62, 0
1, 149640, Note_on_c, 1, 70, 127
1, 149699, Note_off_c, 1, 70, 0
1, 149820, Note_on_c, 1, 67, 127
1, 149879, Note_off_c, 1, 67, 0
1, 149939, Note_off_c, 1, 66, 0
1, 149940, Note_on_c, 1, 42, 127
1, 149999, Note_off_c, 1, 42, 0
1, 150120, Note_on_c, 1, 55, 127
1, 150179, Note_off_c, 1, 55, 0
1, 150180, Note_on_c, 1, 69, 127
1, 150180, Note_on_c, 1, 63, 127
1, 150180, Note_on_c, 1, 59, 127
1, 150239, Note_off_c, 1, 69, 0
1, 150239, Note_off_c, 1, 63, 0
1, 150239, Note_off_c, 1, 59, 0
1, 150240, Note_on_c, 1, 67, 127
1, 150240, Note_on_c, 1, 64, 127
1, 150240, Note_on_c, 1, 48, 127
1, 150300, Note_on_c, 1, 71, 127
1, 150359, Note_off_c, 1, 67, 0
1, 150359, Note_off_c, 1, 64, 0
1, 150359, Note_off_c, 1, 48, 0
1, 150359, Note_off_c, 1, 71, 0
1, 150360, Note_on_c, 1, 63, 127
1, 150360, Note_on_c, 1, 69, 127
1, 150360, Note_on_c, 1, 66, 127
1, 150419, Note_off_c, 1, 69, 0
1, 150419, Note_off_c, 1, 66, 0
1, 150479, Note_off_c, 1, 63, 0
1, 150480, Note_on_c, 1, 67, 127
1, 150480, Note_on_c, 1, 64, 127
1, 150480, Note_on_c, 1, 47, 127
1, 150540, Note_on_c, 1, 71, 127
1, 150599, Note_off_c, 1, 67, 0
1, 150599, Note_off_c, 1, 64, 0
1, 150599, Note_off_c, 1, 47, 0
1, 150599, Note_off_c, 1, 71, 0
1, 150600, Note_on_c, 1, 72, 127
1, 150600, Note_on_c, 1, 69, 127
1, 150600, Note_on_c, 1, 66, 127
1, 150659, Note_off_c, 1, 69, 0
1, 150659, Note_off_c, 1, 66, 0
1, 150660, Note_on_c, 1, 63, 127
1, 150660, Note_on_c, 1, 59, 127
1, 150660, Note_on_c, 1, 45, 127
1, 150719, Note_off_c, 1, 72, 0
1, 150719, Note_off_c, 1, 63, 0
1, 150719, Note_off_c, 1, 59, 0
1, 150719, Note_off_c, 1, 45, 0
1, 150720, Note_on_c, 1, 67, 127
1, 150720, Note_on_c, 1, 64, 127
1, 150720, Note_on_c, 1, 43, 127
1, 150779, Note_off_c, 1, 67, 0
1, 150779, Note_off_c, 1, 64, 0
1, 150779, Note_off_c, 1, 43, 0
1, 150780, Note_on_c, 1, 76, 127
1, 150780, Note_on_c, 1, 66, 127
1, 150780, Note_on_c, 1, 62, 127
1, 150780, Note_on_c, 1, 60, 127
1, 150780, Note_on_c, 1, 45, 127
1, 150809, Note_off_c, 1, 62, 0
1, 150839, Note_off_c, 1, 66, 0
1, 150839, Note_off_c, 1, 60, 0
1, 150839, Note_off_c, 1, 45, 0
1, 150840, Note_on_c, 1, 59, 127
1, 150840, Note_on_c, 1, 64, 127
1, 150840, Note_on_c, 1, 67, 127
1, 150840, Note_on_c, 1, 47, 127
1, 150869, Note_off_c, 1, 76, 0
1, 150870, Note_on_c, 1, 75, 127
1, 150899, Note_off_c, 1, 59, 0
1, 150899, Note_off_c, 1, 64, 0
1, 150899, Note_off_c, 1, 67, 0
1, 150899, Note_off_c, 1, 47, 0
1, 150899, Note_off_c, 1, 75, 0
1, 150900, Note_on_c, 1, 78, 127
1, 150900, Note_on_c, 1, 63, 127
1, 150900, Note_on_c, 1, 57, 127
1, 150900, Note_on_c, 1, 66, 127
1, 150900, Note_on_c, 1, 47, 127
1, 150959, Note_off_c, 1, 63, 0
1, 150959, Note_off_c, 1, 57, 0
1, 150959, Note_off_c, 1, 66, 0
1, 150959, Note_off_c, 1, 47, 0
1, 150960, Note_on_c, 1, 71, 127
1, 150960, Note_on_c, 1, 55, 127
1, 150960, Note_on_c, 1, 67, 127
1, 150960, Note_on_c, 1, 40, 127
1, 150989, Note_off_c, 1, 55, 0
1, 150989, Note_off_c, 1, 67, 0
1, 150989, Note_off_c, 1, 40, 0
1, 150990, Note_on_c, 1, 54, 127
1, 150990, Note_on_c, 1, 69, 127
1, 150990, Note_on_c, 1, 39, 127
1, 151019, Note_off_c, 1, 78, 0
1, 151019, Note_off_c, 1, 54, 0
1, 151019, Note_off_c, 1, 69, 0
1, 151019, Note_off_c, 1, 39, 0
1, 151050, Note_on_c, 1, 42, 127
1, 151079, Note_off_c, 1, 42, 0
1, 151080, Note_on_c, 1, 76, 127
1, 151080, Note_on_c, 1, 52, 127
1, 151080, Note_on_c, 1, 64, 127
1, 151080, Note_on_c, 1, 59, 127
1, 151080, Note_on_c, 1, 43, 127
1, 151109, Note_off_c, 1, 71, 0
1, 151110, Note_on_c, 1, 70, 127
1, 151139, Note_off_c, 1, 52, 0
1, 151139, Note_off_c, 1, 64, 0
1, 151139, Note_off_c, 1, 59, 0
1, 151139, Note_off_c, 1, 43, 0
1, 151139, Note_off_c, 1, 70, 0
1, 151170, Note_on_c, 1, 74, 127
1, 151199, Note_off_c, 1, 74, 0
1, 151200, Note_on_c, 1, 73, 127
1, 151200, Note_on_c, 1, 46, 127
1, 151229, Note_off_c, 1, 76, 0
1, 151230, Note_on_c, 1, 75, 127
1, 151259, Note_off_c, 1, 73, 0
1, 151259, Note_off_c, 1, 46, 0
1, 151259, Note_off_c, 1, 75, 0
1, 151260, Note_on_c, 1, 76, 127
1, 151260, Note_on_c, 1, 61, 127
1, 151260, Note_on_c, 1, 54, 127
1, 151260, Note_on_c, 1, 66, 127
1, 151260, Note_on_c, 1, 47, 127
1, 151289, Note_off_c, 1, 76, 0
1, 151290, Note_on_c, 1, 75, 127
1, 151319, Note_off_c, 1, 61, 0
1, 151319, Note_off_c, 1, 54, 0
1, 151319, Note_off_c, 1, 66, 0
1, 151319, Note_off_c, 1, 47, 0
1, 151319, Note_off_c, 1, 75, 0
1, 151320, Note_on_c, 1, 76, 127
1, 151320, Note_on_c, 1, 71, 127
1, 151320, Note_on_c, 1, 49, 127
1, 151379, Note_off_c, 1, 71, 0
1, 151379, Note_off_c, 1, 49, 0
1, 151380, Note_on_c, 1, 58, 127
1, 151380, Note_on_c, 1, 70, 127
1, 151380, Note_on_c, 1, 64, 127
1, 151380, Note_on_c, 1, 61, 127
1, 151380, Note_on_c, 1, 37, 127
1, 151439, Note_off_c, 1, 58, 0
1, 151439, Note_off_c, 1, 70, 0
1, 151439, Note_off_c, 1, 64, 0
1, 151439, Note_off_c, 1, 61, 0
1, 151439, Note_off_c, 1, 37, 0
1, 151440, Note_on_c, 1, 62, 127
1, 151440, Note_on_c, 1, 38, 127
1, 151499, Note_off_c, 1, 76, 0
1, 151499, Note_off_c, 1, 62, 0
1, 151499, Note_off_c, 1, 38, 0
1, 151500, Note_on_c, 1, 74, 127
1, 151500, Note_on_c, 1, 66, 127
1, 151500, Note_on_c, 1, 59, 127
1, 151500, Note_on_c, 1, 71, 127
1, 151500, Note_on_c, 1, 62, 127
1, 151500, Note_on_c, 1, 50, 127
1, 151529, Note_off_c, 1, 74, 0
1, 151530, Note_on_c, 1, 73, 127
1, 151559, Note_off_c, 1, 66, 0
1, 151559, Note_off_c, 1, 59, 0
1, 151559, Note_off_c, 1, 71, 0
1, 151559, Note_off_c, 1, 62, 0
1, 151559, Note_off_c, 1, 50, 0
1, 151559, Note_off_c, 1, 73, 0
1, 151560, Note_on_c, 1, 74, 127
1, 151560, Note_on_c, 1, 71, 127
1, 151560, Note_on_c, 1, 64, 127
1, 151560, Note_on_c, 1, 49, 127
1, 151619, Note_off_c, 1, 74, 0
1, 151619, Note_off_c, 1, 64, 0
1, 151619, Note_off_c, 1, 49, 0
1, 151620, Note_on_c, 1, 78, 127
1, 151620, Note_on_c, 1, 62, 127
1, 151620, Note_on_c, 1, 47, 127
1, 151679, Note_off_c, 1, 78, 0
1, 151679, Note_off_c, 1, 62, 0
1, 151679, Note_off_c, 1, 47, 0
1, 151680, Note_on_c, 1, 79, 127
1, 151680, Note_on_c, 1, 52, 127
1, 151709, Note_off_c, 1, 79, 0
1, 151710, Note_on_c, 1, 70, 127
1, 151739, Note_off_c, 1, 71, 0
1, 151739, Note_off_c, 1, 52, 0
1, 151739, Note_off_c, 1, 70, 0
1, 151740, Note_on_c, 1, 76, 127
1, 151740, Note_on_c, 1, 71, 127
1, 151740, Note_on_c, 1, 61, 127
1, 151740, Note_on_c, 1, 73, 127
1, 151740, Note_on_c, 1, 54, 127
1, 151769, Note_off_c, 1, 71, 0
1, 151770, Note_on_c, 1, 70, 127
1, 151799, Note_off_c, 1, 76, 0
1, 151799, Note_off_c, 1, 61, 0
1, 151799, Note_off_c, 1, 73, 0
1, 151799, Note_off_c, 1, 54, 0
1, 151799, Note_off_c, 1, 70, 0
1, 151800, Note_on_c, 1, 71, 127
1, 151800, Note_on_c, 1, 59, 127
1, 151800, Note_on_c, 1, 73, 127
1, 151800, Note_on_c, 1, 64, 127
1, 151800, Note_on_c, 1, 55, 127
1, 151859, Note_off_c, 1, 59, 0
1, 151859, Note_off_c, 1, 73, 0
1, 151859, Note_off_c, 1, 64, 0
1, 151859, Note_off_c, 1, 55, 0
1, 151860, Note_on_c, 1, 83, 127
1, 151860, Note_on_c, 1, 65, 127
1, 151860, Note_on_c, 1, 43, 127
1, 151919, Note_off_c, 1, 83, 0
1, 151919, Note_off_c, 1, 65, 0
1, 151919, Note_off_c, 1, 43, 0
1, 151920, Note_on_c, 1, 74, 127
1, 151920, Note_on_c, 1, 66, 127
1, 151920, Note_on_c, 1, 62, 127
1, 151920, Note_on_c, 1, 42, 127
1, 151979, Note_off_c, 1, 71, 0
1, 151979, Note_off_c, 1, 74, 0
1, 151979, Note_off_c, 1, 66, 0
1, 151979, Note_off_c, 1, 62, 0
1, 151979, Note_off_c, 1, 42, 0
1, 151980, Note_on_c, 1, 73, 127
1, 151980, Note_on_c, 1, 70, 127
1, 151980, Note_on_c, 1, 54, 127
1, 151980, Note_on_c, 1, 64, 127
1, 151980, Note_on_c, 1, 61, 127
1, 152009, Note_off_c, 1, 70, 0
1, 152010, Note_on_c, 1, 68, 127
1, 152010, Note_on_c, 1, 52, 127
1, 152039, Note_off_c, 1, 73, 0
1, 152039, Note_off_c, 1, 54, 0
1, 152039, Note_off_c, 1, 64, 0
1, 152039, Note_off_c, 1, 61, 0
1, 152039, Note_off_c, 1, 68, 0
1, 152039, Note_off_c, 1, 52, 0
1, 152040, Note_on_c, 1, 70, 127
1, 152040, Note_on_c, 1, 66, 127
1, 152040, Note_on_c, 1, 50, 127
1, 152069, Note_off_c, 1, 50, 0
1, 152070, Note_on_c, 1, 49, 127
1, 152099, Note_off_c, 1, 70, 0
1, 152099, Note_off_c, 1, 49, 0
1, 152159, Note_off_c, 1, 66, 0
1, 152160, Note_on_c, 1, 71, 127
1, 152160, Note_on_c, 1, 62, 127
1, 152160, Note_on_c, 1, 50, 127
1, 152189, Note_off_c, 1, 71, 0
1, 152189, Note_off_c, 1, 62, 0
1, 152190, Note_on_c, 1, 73, 127
1, 152190, Note_on_c, 1, 64, 127
1, 152219, Note_off_c, 1, 50, 0
1, 152219, Note_off_c, 1, 73, 0
1, 152219, Note_off_c, 1, 64, 0
1, 152220, Note_on_c, 1, 74, 127
1, 152220, Note_on_c, 1, 54, 127
1, 152220, Note_on_c, 1, 66, 127
1, 152220, Note_on_c, 1, 47, 127
1, 152249, Note_off_c, 1, 74, 0
1, 152249, Note_off_c, 1, 66, 0
1, 152250, Note_on_c, 1, 73, 127
1, 152250, Note_on_c, 1, 64, 127
1, 152279, Note_off_c, 1, 54, 0
1, 152279, Note_off_c, 1, 47, 0
1, 152279, Note_off_c, 1, 73, 0
1, 152279, Note_off_c, 1, 64, 0
1, 152280, Note_on_c, 1, 71, 127
1, 152280, Note_on_c, 1, 66, 127
1, 152280, Note_on_c, 1, 62, 127
1, 152280, Note_on_c, 1, 59, 127
1, 152280, Note_on_c, 1, 50, 127
1, 152309, Note_off_c, 1, 50, 0
1, 152310, Note_on_c, 1, 52, 127
1, 152339, Note_off_c, 1, 71, 0
1, 152339, Note_off_c, 1, 62, 0
1, 152339, Note_off_c, 1, 59, 0
1, 152339, Note_off_c, 1, 52, 0
1, 152340, Note_on_c, 1, 70, 127
1, 152340, Note_on_c, 1, 58, 127
1, 152340, Note_on_c, 1, 61, 127
1, 152340, Note_on_c, 1, 54, 127
1, 152369, Note_off_c, 1, 54, 0
1, 152399, Note_off_c, 1, 66, 0
1, 152399, Note_off_c, 1, 70, 0
1, 152399, Note_off_c, 1, 58, 0
1, 152399, Note_off_c, 1, 61, 0
1, 152400, Note_on_c, 1, 71, 127
1, 152400, Note_on_c, 1, 59, 127
1, 152400, Note_on_c, 1, 62, 127
1, 152400, Note_on_c, 1, 50, 127
1, 152459, Note_off_c, 1, 71, 0
1, 152459, Note_off_c, 1, 59, 0
1, 152459, Note_off_c, 1, 62, 0
1, 152459, Note_off_c, 1, 50, 0
1, 152460, Note_on_c, 1, 69, 127
1, 152460, Note_on_c, 1, 54, 127
1, 152460, Note_on_c, 1, 66, 127
1, 152460, Note_on_c, 1, 62, 127
1, 152460, Note_on_c, 1, 47, 127
1, 152489, Note_off_c, 1, 69, 0
1, 152490, Note_on_c, 1, 67, 127
1, 152519, Note_off_c, 1, 54, 0
1, 152519, Note_off_c, 1, 66, 0
1, 152519, Note_off_c, 1, 62, 0
1, 152519, Note_off_c, 1, 47, 0
1, 152519, Note_off_c, 1, 67, 0
1, 152520, Note_on_c, 1, 66, 127
1, 152520, Note_on_c, 1, 61, 127
1, 152520, Note_on_c, 1, 46, 127
1, 152579, Note_off_c, 1, 61, 0
1, 152579, Note_off_c, 1, 46, 0
1, 152580, Note_on_c, 1, 64, 127
1, 152580, Note_on_c, 1, 42, 127
1, 152639, Note_off_c, 1, 66, 0
1, 152639, Note_off_c, 1, 64, 0
1, 152639, Note_off_c, 1, 42, 0
1, 152640, Note_on_c, 1, 62, 127
1, 152640, Note_on_c, 1, 71, 127
1, 152669, Note_off_c, 1, 62, 0
1, 152669, Note_off_c, 1, 71, 0
1, 152670, Note_on_c, 1, 64, 127
1, 152670, Note_on_c, 1, 73, 127
1, 152699, Note_off_c, 1, 64, 0
1, 152699, Note_off_c, 1, 73, 0
1, 152700, Note_on_c, 1, 66, 127
1, 152700, Note_on_c, 1, 74, 127
1, 152700, Note_on_c, 1, 54, 127
1, 152700, Note_on_c, 1, 47, 127
1, 152729, Note_off_c, 1, 66, 0
1, 152729, Note_off_c, 1, 74, 0
1, 152730, Note_on_c, 1, 64, 127
1, 152730, Note_on_c, 1, 73, 127
1, 152759, Note_off_c, 1, 54, 0
1, 152759, Note_off_c, 1, 47, 0
1, 152759, Note_off_c, 1, 64, 0
1, 152759, Note_off_c, 1, 73, 0
1, 152760, Note_on_c, 1, 62, 127
1, 152760, Note_on_c, 1, 71, 127
1, 152760, Note_on_c, 1, 66, 127
1, 152760, Note_on_c, 1, 50, 127
1, 152789, Note_off_c, 1, 50, 0
1, 152790, Note_on_c, 1, 64, 127
1, 152790, Note_on_c, 1, 52, 127
1, 152819, Note_off_c, 1, 62, 0
1, 152819, Note_off_c, 1, 71, 0
1, 152819, Note_off_c, 1, 64, 0
1, 152819, Note_off_c, 1, 52, 0
1, 152820, Note_on_c, 1, 61, 127
1, 152820, Note_on_c, 1, 70, 127
1, 152820, Note_on_c, 1, 54, 127
1, 152849, Note_off_c, 1, 54, 0
1, 152879, Note_off_c, 1, 61, 0
1, 152879, Note_off_c, 1, 70, 0
1, 152880, Note_on_c, 1, 59, 127
1, 152940, Note_on_c, 1, 69, 127
1, 152940, Note_on_c, 1, 47, 127
1, 152969, Note_off_c, 1, 69, 0
1, 152970, Note_on_c, 1, 67, 127
1, 152999, Note_off_c, 1, 59, 0
1, 152999, Note_off_c, 1, 47, 0
1, 152999, Note_off_c, 1, 67, 0
1, 153000, Note_on_c, 1, 46, 127
1, 153059, Note_off_c, 1, 46, 0
1, 153060, Note_off_c, 1, 66, 0
1, 153060, Note_on_c, 1, 58, 127
1, 153060, Note_on_c, 1, 42, 127
1, 153119, Note_off_c, 1, 58, 0
1, 153119, Note_off_c, 1, 42, 0
1, 153120, Note_on_c, 1, 62, 127
1, 153120, Note_on_c, 1, 66, 127
1, 153120, Note_on_c, 1, 59, 127
1, 153120, Note_on_c, 1, 47, 127
1, 153179, Note_off_c, 1, 62, 0
1, 153179, Note_off_c, 1, 66, 0
1, 153179, Note_off_c, 1, 59, 0
1, 153179, Note_off_c, 1, 47, 0
1, 153180, Note_on_c, 1, 76, 127
1, 153180, Note_on_c, 1, 70, 127
1, 153180, Note_on_c, 1, 67, 127
1, 153239, Note_off_c, 1, 76, 0
1, 153239, Note_off_c, 1, 70, 0
1, 153239, Note_off_c, 1, 67, 0
1, 153240, Note_on_c, 1, 74, 127
1, 153240, Note_on_c, 1, 71, 127
1, 153240, Note_on_c, 1, 66, 127
1, 153299, Note_off_c, 1, 74, 0
1, 153299, Note_off_c, 1, 71, 0
1, 153299, Note_off_c, 1, 66, 0
1, 153300, Note_on_c, 1, 65, 127
1, 153300, Note_on_c, 1, 59, 127
1, 153300, Note_on_c, 1, 49, 127
1, 153359, Note_off_c, 1, 65, 0
1, 153359, Note_off_c, 1, 59, 0
1, 153359, Note_off_c, 1, 49, 0
1, 153360, Note_on_c, 1, 66, 127
1, 153360, Note_on_c, 1, 59, 127
1, 153360, Note_on_c, 1, 50, 127
1, 153419, Note_off_c, 1, 66, 0
1, 153419, Note_off_c, 1, 59, 0
1, 153419, Note_off_c, 1, 50, 0
1, 153420, Note_on_c, 1, 70, 127
1, 153420, Note_on_c, 1, 67, 127
1, 153420, Note_on_c, 1, 61, 127
1, 153479, Note_off_c, 1, 70, 0
1, 153479, Note_off_c, 1, 67, 0
1, 153479, Note_off_c, 1, 61, 0
1, 153480, Note_on_c, 1, 71, 127
1, 153480, Note_on_c, 1, 66, 127
1, 153480, Note_on_c, 1, 62, 127
1, 153539, Note_off_c, 1, 71, 0
1, 153539, Note_off_c, 1, 66, 0
1, 153539, Note_off_c, 1, 62, 0
1, 153540, Note_on_c, 1, 59, 127
1, 153540, Note_on_c, 1, 62, 127
1, 153540, Note_on_c, 1, 67, 127
1, 153540, Note_on_c, 1, 52, 127
1, 153599, Note_off_c, 1, 59, 0
1, 153599, Note_off_c, 1, 62, 0
1, 153599, Note_off_c, 1, 67, 0
1, 153599, Note_off_c, 1, 52, 0
1, 153600, Note_on_c, 1, 62, 127
1, 153600, Note_on_c, 1, 59, 127
1, 153600, Note_on_c, 1, 66, 127
1, 153600, Note_on_c, 1, 54, 127
1, 153659, Note_off_c, 1, 62, 0
1, 153659, Note_off_c, 1, 59, 0
1, 153659, Note_off_c, 1, 66, 0
1, 153659, Note_off_c, 1, 54, 0
1, 153660, Note_on_c, 1, 78, 127
1, 153660, Note_on_c, 1, 70, 127
1, 153660, Note_on_c, 1, 61, 127
1, 153719, Note_off_c, 1, 78, 0
1, 153719, Note_off_c, 1, 70, 0
1, 153719, Note_off_c, 1, 61, 0
1, 153720, Note_on_c, 1, 76, 127
1, 153720, Note_on_c, 1, 71, 127
1, 153720, Note_on_c, 1, 59, 127
1, 153749, Note_off_c, 1, 76, 0
1, 153750, Note_on_c, 1, 74, 127
1, 153779, Note_off_c, 1, 71, 0
1, 153779, Note_off_c, 1, 59, 0
1, 153779, Note_off_c, 1, 74, 0
1, 153780, Note_on_c, 1, 73, 127
1, 153780, Note_on_c, 1, 64, 127
1, 153780, Note_on_c, 1, 58, 127
1, 153780, Note_on_c, 1, 61, 127
1, 153780, Note_on_c, 1, 70, 127
1, 153780, Note_on_c, 1, 42, 127
1, 153809, Note_off_c, 1, 73, 0
1, 153810, Note_on_c, 1, 71, 127
1, 153839, Note_off_c, 1, 64, 0
1, 153839, Note_off_c, 1, 58, 0
1, 153839, Note_off_c, 1, 61, 0
1, 153839, Note_off_c, 1, 70, 0
1, 153839, Note_off_c, 1, 42, 0
1, 153839, Note_off_c, 1, 71, 0
1, 153840, Note_on_c, 1, 71, 127
1, 153840, Note_on_c, 1, 62, 127
1, 153840, Note_on_c, 1, 59, 127
1, 153840, Note_on_c, 1, 66, 127
1, 153840, Note_on_c, 1, 47, 127
1, 153899, Note_off_c, 1, 47, 0
1, 153959, Note_off_c, 1, 59, 0
1, 153960, Note_off_c, 1, 66, 0
1, 153960, Note_on_c, 1, 45, 127
1, 154019, Note_off_c, 1, 45, 0
1, 154020, Note_on_c, 1, 54, 127
1, 154079, Note_off_c, 1, 54, 0
1, 154080, Note_on_c, 1, 69, 127
1, 154080, Note_on_c, 1, 44, 127
1, 154139, Note_off_c, 1, 44, 0
1, 154140, Note_on_c, 1, 53, 127
1, 154140, Note_on_c, 1, 65, 127
1, 154199, Note_off_c, 1, 53, 0
1, 154199, Note_off_c, 1, 65, 0
1, 154200, Note_off_c, 1, 69, 0
1, 154200, Note_on_c, 1, 42, 127
1, 154259, Note_off_c, 1, 42, 0
1, 154320, Note_on_c, 1, 68, 127
1, 154320, Note_on_c, 1, 41, 127
1, 154439, Note_off_c, 1, 62, 0
1, 154439, Note_off_c, 1, 68, 0
1, 154439, Note_off_c, 1, 41, 0
1, 154440, Note_off_c, 1, 71, 0
1, 154500, Note_on_c, 1, 61, 127
1, 154500, Note_on_c, 1, 71, 127
1, 154500, Note_on_c, 1, 53, 127
1, 154559, Note_off_c, 1, 61, 0
1, 154559, Note_off_c, 1, 71, 0
1, 154559, Note_off_c, 1, 53, 0
1, 154560, Note_on_c, 1, 62, 127
1, 154560, Note_on_c, 1, 71, 127
1, 154560, Note_on_c, 1, 54, 127
1, 154590, Note_on_c, 1, 67, 127
1, 154619, Note_off_c, 1, 67, 0
1, 154620, Note_on_c, 1, 66, 127
1, 154649, Note_off_c, 1, 66, 0
1, 154650, Note_on_c, 1, 64, 127
1, 154679, Note_off_c, 1, 54, 0
1, 154679, Note_off_c, 1, 64, 0
1, 154680, Note_on_c, 1, 42, 127
1, 154740, Note_off_c, 1, 62, 0
1, 154740, Note_off_c, 1, 71, 0
1, 154740, Note_on_c, 1, 61, 127
1, 154740, Note_on_c, 1, 70, 127
1, 154799, Note_off_c, 1, 42, 0
1, 154800, Note_off_c, 1, 61, 0
1, 154800, Note_off_c, 1, 70, 0
1, 154800, Note_on_c, 1, 59, 127
1, 154800, Note_on_c, 1, 47, 127
1, 154919, Note_off_c, 1, 59, 0
1, 154919, Note_off_c, 1, 47, 0
1, 154920, Note_on_c, 1, 78, 127
1, 154980, Note_on_c, 1, 58, 127
1, 154980, Note_on_c, 1, 66, 127
1, 154980, Note_on_c, 1, 54, 127
1, 155039, Note_off_c, 1, 58, 0
1, 155039, Note_off_c, 1, 66, 0
1, 155039, Note_off_c, 1, 54, 0
1, 155040, Note_on_c, 1, 59, 127
1, 155069, Note_off_c, 1, 78, 0
1, 155070, Note_on_c, 1, 76, 127
1, 155099, Note_off_c, 1, 59, 0
1, 155099, Note_off_c, 1, 76, 0
1, 155100, Note_on_c, 1, 78, 127
1, 155100, Note_on_c, 1, 59, 127
1, 155100, Note_on_c, 1, 62, 127
1, 155100, Note_on_c, 1, 66, 127
1, 155129, Note_off_c, 1, 78, 0
1, 155130, Note_on_c, 1, 74, 127
1, 155159, Note_off_c, 1, 59, 0
1, 155159, Note_off_c, 1, 62, 0
1, 155159, Note_off_c, 1, 66, 0
1, 155159, Note_off_c, 1, 74, 0
1, 155160, Note_on_c, 1, 76, 127
1, 155160, Note_on_c, 1, 66, 127
1, 155160, Note_on_c, 1, 70, 127
1, 155160, Note_on_c, 1, 64, 127
1, 155160, Note_on_c, 1, 61, 127
1, 155189, Note_off_c, 1, 76, 0
1, 155190, Note_on_c, 1, 74, 127
1, 155219, Note_off_c, 1, 70, 0
1, 155219, Note_off_c, 1, 64, 0
1, 155219, Note_off_c, 1, 61, 0
1, 155219, Note_off_c, 1, 74, 0
1, 155220, Note_on_c, 1, 58, 127
1, 155250, Note_on_c, 1, 73, 127
1, 155279, Note_off_c, 1, 58, 0
1, 155279, Note_off_c, 1, 73, 0
1, 155280, Note_on_c, 1, 62, 127
1, 155280, Note_on_c, 1, 59, 127
1, 155339, Note_off_c, 1, 59, 0
1, 155340, Note_on_c, 1, 71, 127
1, 155399, Note_off_c, 1, 71, 0
1, 155400, Note_off_c, 1, 66, 0
1, 155400, Note_off_c, 1, 62, 0
1, 155460, Note_on_c, 1, 73, 127
1, 155460, Note_on_c, 1, 64, 127
1, 155460, Note_on_c, 1, 66, 127
1, 155460, Note_on_c, 1, 61, 127
1, 155460, Note_on_c, 1, 58, 127
1, 155489, Note_off_c, 1, 64, 0
1, 155519, Note_off_c, 1, 66, 0
1, 155519, Note_off_c, 1, 61, 0
1, 155519, Note_off_c, 1, 58, 0
1, 155520, Note_on_c, 1, 62, 127
1, 155520, Note_on_c, 1, 59, 127
1, 155549, Note_off_c, 1, 73, 0
1, 155550, Note_on_c, 1, 74, 127
1, 155579, Note_off_c, 1, 59, 0
1, 155579, Note_off_c, 1, 74, 0
1, 155580, Note_on_c, 1, 57, 127
1, 155609, Note_off_c, 1, 57, 0
1, 155610, Note_on_c, 1, 71, 127
1, 155610, Note_on_c, 1, 55, 127
1, 155639, Note_off_c, 1, 71, 0
1, 155639, Note_off_c, 1, 55, 0
1, 155640, Note_off_c, 1, 62, 0
1, 155640, Note_on_c, 1, 54, 127
1, 155699, Note_off_c, 1, 54, 0
1, 155700, Note_on_c, 1, 70, 127
1, 155700, Note_on_c, 1, 66, 127
1, 155700, Note_on_c, 1, 61, 127
1, 155700, Note_on_c, 1, 52, 127
1, 155759, Note_off_c, 1, 70, 0
1, 155759, Note_off_c, 1, 61, 0
1, 155759, Note_off_c, 1, 52, 0
1, 155760, Note_on_c, 1, 71, 127
1, 155760, Note_on_c, 1, 62, 127
1, 155760, Note_on_c, 1, 50, 127
1, 155789, Note_off_c, 1, 50, 0
1, 155790, Note_on_c, 1, 67, 127
1, 155790, Note_on_c, 1, 49, 127
1, 155819, Note_off_c, 1, 67, 0
1, 155819, Note_off_c, 1, 49, 0
1, 155850, Note_on_c, 1, 64, 127
1, 155879, Note_off_c, 1, 66, 0
1, 155879, Note_off_c, 1, 71, 0
1, 155879, Note_off_c, 1, 62, 0
1, 155879, Note_off_c, 1, 64, 0
1, 155880, Note_on_c, 1, 66, 127
1, 155880, Note_on_c, 1, 47, 127
1, 155909, Note_off_c, 1, 47, 0
1, 155910, Note_on_c, 1, 45, 127
1, 155939, Note_off_c, 1, 66, 0
1, 155939, Note_off_c, 1, 45, 0
1, 155940, Note_on_c, 1, 66, 127
1, 155940, Note_on_c, 1, 61, 127
1, 155940, Note_on_c, 1, 47, 127
1, 155969, Note_off_c, 1, 47, 0
1, 155970, Note_on_c, 1, 45, 127
1, 155999, Note_off_c, 1, 66, 0
1, 155999, Note_off_c, 1, 61, 0
1, 155999, Note_off_c, 1, 45, 0
1, 156000, Note_on_c, 1, 71, 127
1, 156000, Note_on_c, 1, 62, 127
1, 156000, Note_on_c, 1, 66, 127
1, 156000, Note_on_c, 1, 43, 127
1, 156059, Note_off_c, 1, 71, 0
1, 156060, Note_on_c, 1, 74, 127
1, 156119, Note_off_c, 1, 62, 0
1, 156119, Note_off_c, 1, 66, 0
1, 156119, Note_off_c, 1, 43, 0
1, 156119, Note_off_c, 1, 74, 0
1, 156120, Note_on_c, 1, 73, 127
1, 156120, Note_on_c, 1, 64, 127
1, 156179, Note_off_c, 1, 73, 0
1, 156179, Note_off_c, 1, 64, 0
1, 156180, Note_on_c, 1, 70, 127
1, 156180, Note_on_c, 1, 61, 127
1, 156239, Note_off_c, 1, 70, 0
1, 156239, Note_off_c, 1, 61, 0
1, 156240, Note_on_c, 1, 71, 127
1, 156240, Note_on_c, 1, 62, 127
1, 156240, Note_on_c, 1, 59, 127
1, 156240, Note_on_c, 1, 42, 127
1, 156299, Note_off_c, 1, 71, 0
1, 156300, Note_on_c, 1, 74, 127
1, 156300, Note_on_c, 1, 66, 127
1, 156359, Note_off_c, 1, 62, 0
1, 156359, Note_off_c, 1, 59, 0
1, 156359, Note_off_c, 1, 42, 0
1, 156359, Note_off_c, 1, 74, 0
1, 156359, Note_off_c, 1, 66, 0
1, 156360, Note_on_c, 1, 73, 127
1, 156360, Note_on_c, 1, 64, 127
1, 156419, Note_off_c, 1, 73, 0
1, 156419, Note_off_c, 1, 64, 0
1, 156420, Note_on_c, 1, 70, 127
1, 156420, Note_on_c, 1, 61, 127
1, 156479, Note_off_c, 1, 70, 0
1, 156479, Note_off_c, 1, 61, 0
1, 156480, Note_on_c, 1, 71, 127
1, 156480, Note_on_c, 1, 62, 127
1, 156539, Note_off_c, 1, 71, 0
1, 156539, Note_off_c, 1, 62, 0
1, 156540, Note_on_c, 1, 79, 127
1, 156540, Note_on_c, 1, 76, 127
1, 156540, Note_on_c, 1, 71, 127
1, 156540, Note_on_c, 1, 61, 127
1, 156540, Note_on_c, 1, 40, 127
1, 156599, Note_off_c, 1, 79, 0
1, 156599, Note_off_c, 1, 76, 0
1, 156599, Note_off_c, 1, 71, 0
1, 156599, Note_off_c, 1, 61, 0
1, 156599, Note_off_c, 1, 40, 0
1, 156600, Note_on_c, 1, 78, 127
1, 156600, Note_on_c, 1, 74, 127
1, 156600, Note_on_c, 1, 62, 127
1, 156600, Note_on_c, 1, 42, 127
1, 156659, Note_off_c, 1, 78, 0
1, 156659, Note_off_c, 1, 74, 0
1, 156659, Note_off_c, 1, 62, 0
1, 156659, Note_off_c, 1, 42, 0
1, 156660, Note_on_c, 1, 76, 127
1, 156660, Note_on_c, 1, 73, 127
1, 156660, Note_on_c, 1, 70, 127
1, 156660, Note_on_c, 1, 61, 127
1, 156660, Note_on_c, 1, 54, 127
1, 156719, Note_off_c, 1, 76, 0
1, 156719, Note_off_c, 1, 73, 0
1, 156719, Note_off_c, 1, 70, 0
1, 156719, Note_off_c, 1, 61, 0
1, 156719, Note_off_c, 1, 54, 0
1, 156720, Note_on_c, 1, 74, 127
1, 156720, Note_on_c, 1, 71, 127
1, 156720, Note_on_c, 1, 66, 127
1, 156720, Note_on_c, 1, 47, 127
1, 156749, Note_off_c, 1, 74, 0
1, 156750, Note_on_c, 1, 73, 127
1, 156779, Note_off_c, 1, 71, 0
1, 156779, Note_off_c, 1, 66, 0
1, 156779, Note_off_c, 1, 47, 0
1, 156779, Note_off_c, 1, 73, 0
1, 156780, Note_on_c, 1, 74, 127
1, 156780, Note_on_c, 1, 66, 127
1, 156780, Note_on_c, 1, 70, 127
1, 156780, Note_on_c, 1, 49, 127
1, 156809, Note_off_c, 1, 74, 0
1, 156810, Note_on_c, 1, 73, 127
1, 156839, Note_off_c, 1, 66, 0
1, 156839, Note_off_c, 1, 70, 0
1, 156839, Note_off_c, 1, 49, 0
1, 156839, Note_off_c, 1, 73, 0
1, 156840, Note_on_c, 1, 71, 127
1, 156840, Note_on_c, 1, 66, 127
1, 156840, Note_on_c, 1, 50, 127
1, 156899, Note_off_c, 1, 66, 0
1, 156899, Note_off_c, 1, 50, 0
1, 156900, Note_on_c, 1, 74, 127
1, 156900, Note_on_c, 1, 59, 127
1, 156900, Note_on_c, 1, 47, 127
1, 156959, Note_off_c, 1, 74, 0
1, 156959, Note_off_c, 1, 59, 0
1, 156959, Note_off_c, 1, 47, 0
1, 156960, Note_on_c, 1, 62, 127
1, 156960, Note_on_c, 1, 53, 127
1, 156989, Note_off_c, 1, 71, 0
1, 156990, Note_on_c, 1, 70, 127
1, 157019, Note_off_c, 1, 62, 0
1, 157019, Note_off_c, 1, 53, 0
1, 157019, Note_off_c, 1, 70, 0
1, 157020, Note_on_c, 1, 73, 127
1, 157020, Note_on_c, 1, 71, 127
1, 157020, Note_on_c, 1, 61, 127
1, 157020, Note_on_c, 1, 54, 127
1, 157049, Note_off_c, 1, 71, 0
1, 157050, Note_on_c, 1, 70, 127
1, 157079, Note_off_c, 1, 73, 0
1, 157079, Note_off_c, 1, 61, 0
1, 157079, Note_off_c, 1, 54, 0
1, 157079, Note_off_c, 1, 70, 0
1, 157080, Note_on_c, 1, 71, 127
1, 157080, Note_on_c, 1, 59, 127
1, 157080, Note_on_c, 1, 61, 127
1, 157080, Note_on_c, 1, 65, 127
1, 157080, Note_on_c, 1, 56, 127
1, 157139, Note_off_c, 1, 59, 0
1, 157139, Note_off_c, 1, 61, 0
1, 157139, Note_off_c, 1, 65, 0
1, 157139, Note_off_c, 1, 56, 0
1, 157140, Note_on_c, 1, 77, 127
1, 157140, Note_on_c, 1, 49, 127
1, 157199, Note_off_c, 1, 77, 0
1, 157199, Note_off_c, 1, 49, 0
1, 157200, Note_on_c, 1, 54, 127
1, 157229, Note_off_c, 1, 71, 0
1, 157230, Note_on_c, 1, 68, 127
1, 157259, Note_off_c, 1, 54, 0
1, 157259, Note_off_c, 1, 68, 0
1, 157260, Note_on_c, 1, 78, 127
1, 157260, Note_on_c, 1, 69, 127
1, 157260, Note_on_c, 1, 66, 127
1, 157260, Note_on_c, 1, 57, 127
1, 157260, Note_on_c, 1, 42, 127
1, 157319, Note_off_c, 1, 78, 0
1, 157319, Note_off_c, 1, 69, 0
1, 157319, Note_off_c, 1, 66, 0
1, 157319, Note_off_c, 1, 57, 0
1, 157319, Note_off_c, 1, 42, 0
1, 157320, Note_on_c, 1, 69, 127
1, 157320, Note_on_c, 1, 66, 127
1, 157320, Note_on_c, 1, 61, 127
1, 157320, Note_on_c, 1, 54, 127
1, 157379, Note_off_c, 1, 66, 0
1, 157379, Note_off_c, 1, 61, 0
1, 157379, Note_off_c, 1, 54, 0
1, 157380, Note_on_c, 1, 72, 127
1, 157380, Note_on_c, 1, 60, 127
1, 157380, Note_on_c, 1, 52, 127
1, 157439, Note_off_c, 1, 72, 0
1, 157439, Note_off_c, 1, 60, 0
1, 157439, Note_off_c, 1, 52, 0
1, 157440, Note_on_c, 1, 51, 127
1, 157470, Note_on_c, 1, 68, 127
1, 157499, Note_off_c, 1, 69, 0
1, 157499, Note_off_c, 1, 51, 0
1, 157499, Note_off_c, 1, 68, 0
1, 157500, Note_on_c, 1, 69, 127
1, 157500, Note_on_c, 1, 71, 127
1, 157500, Note_on_c, 1, 59, 127
1, 157500, Note_on_c, 1, 68, 127
1, 157500, Note_on_c, 1, 52, 127
1, 157529, Note_off_c, 1, 69, 0
1, 157559, Note_off_c, 1, 71, 0
1, 157559, Note_off_c, 1, 59, 0
1, 157559, Note_off_c, 1, 68, 0
1, 157559, Note_off_c, 1, 52, 0
1, 157560, Note_on_c, 1, 69, 127
1, 157560, Note_on_c, 1, 57, 127
1, 157560, Note_on_c, 1, 71, 127
1, 157560, Note_on_c, 1, 63, 127
1, 157560, Note_on_c, 1, 54, 127
1, 157619, Note_off_c, 1, 57, 0
1, 157619, Note_off_c, 1, 71, 0
1, 157619, Note_off_c, 1, 63, 0
1, 157619, Note_off_c, 1, 54, 0
1, 157620, Note_on_c, 1, 75, 127
1, 157620, Note_on_c, 1, 47, 127
1, 157679, Note_off_c, 1, 75, 0
1, 157679, Note_off_c, 1, 47, 0
1, 157680, Note_on_c, 1, 52, 127
1, 157710, Note_on_c, 1, 66, 127
1, 157739, Note_off_c, 1, 69, 0
1, 157739, Note_off_c, 1, 52, 0
1, 157739, Note_off_c, 1, 66, 0
1, 157740, Note_on_c, 1, 67, 127
1, 157740, Note_on_c, 1, 76, 127
1, 157740, Note_on_c, 1, 64, 127
1, 157740, Note_on_c, 1, 40, 127
1, 157799, Note_off_c, 1, 67, 0
1, 157799, Note_off_c, 1, 76, 0
1, 157799, Note_off_c, 1, 64, 0
1, 157799, Note_off_c, 1, 40, 0
1, 157800, Note_on_c, 1, 61, 127
1, 157800, Note_on_c, 1, 67, 127
1, 157800, Note_on_c, 1, 52, 127
1, 157830, Note_on_c, 1, 74, 127
1, 157859, Note_off_c, 1, 61, 0
1, 157859, Note_off_c, 1, 67, 0
1, 157859, Note_off_c, 1, 74, 0
1, 157860, Note_on_c, 1, 73, 127
1, 157860, Note_on_c, 1, 59, 127
1, 157860, Note_on_c, 1, 64, 127
1, 157889, Note_off_c, 1, 73, 0
1, 157890, Note_on_c, 1, 71, 127
1, 157919, Note_off_c, 1, 59, 0
1, 157919, Note_off_c, 1, 64, 0
1, 157919, Note_off_c, 1, 71, 0
1, 157920, Note_on_c, 1, 70, 127
1, 157920, Note_on_c, 1, 62, 127
1, 157920, Note_on_c, 1, 58, 127
1, 157949, Note_off_c, 1, 52, 0
1, 157950, Note_on_c, 1, 51, 127
1, 157979, Note_off_c, 1, 70, 0
1, 157979, Note_off_c, 1, 51, 0
1, 158040, Note_off_c, 1, 62, 0
1, 158040, Note_off_c, 1, 58, 0
1, 158040, Note_on_c, 1, 78, 127
1, 158040, Note_on_c, 1, 66, 127
1, 158099, Note_off_c, 1, 78, 0
1, 158099, Note_off_c, 1, 66, 0
1, 158100, Note_on_c, 1, 76, 127
1, 158159, Note_off_c, 1, 76, 0
1, 158160, Note_on_c, 1, 79, 127
1, 158190, Note_on_c, 1, 49, 127
1, 158219, Note_off_c, 1, 79, 0
1, 158219, Note_off_c, 1, 49, 0
1, 158220, Note_on_c, 1, 78, 127
1, 158220, Note_on_c, 1, 71, 127
1, 158220, Note_on_c, 1, 59, 127
1, 158220, Note_on_c, 1, 66, 127
1, 158220, Note_on_c, 1, 50, 127
1, 158249, Note_off_c, 1, 50, 0
1, 158250, Note_on_c, 1, 47, 127
1, 158279, Note_off_c, 1, 78, 0
1, 158279, Note_off_c, 1, 71, 0
1, 158279, Note_off_c, 1, 59, 0
1, 158279, Note_off_c, 1, 66, 0
1, 158279, Note_off_c, 1, 47, 0
1, 158280, Note_on_c, 1, 76, 127
1, 158280, Note_on_c, 1, 64, 127
1, 158280, Note_on_c, 1, 66, 127
1, 158280, Note_on_c, 1, 46, 127
1, 158339, Note_off_c, 1, 76, 0
1, 158339, Note_off_c, 1, 64, 0
1, 158339, Note_off_c, 1, 66, 0
1, 158339, Note_off_c, 1, 46, 0
1, 158340, Note_on_c, 1, 64, 127
1, 158340, Note_on_c, 1, 61, 127
1, 158340, Note_on_c, 1, 58, 127
1, 158399, Note_off_c, 1, 64, 0
1, 158399, Note_off_c, 1, 61, 0
1, 158399, Note_off_c, 1, 58, 0
1, 158400, Note_on_c, 1, 62, 127
1, 158400, Note_on_c, 1, 66, 127
1, 158400, Note_on_c, 1, 59, 127
1, 158430, Note_on_c, 1, 67, 127
1, 158459, Note_off_c, 1, 62, 0
1, 158459, Note_off_c, 1, 66, 0
1, 158459, Note_off_c, 1, 59, 0
1, 158459, Note_off_c, 1, 67, 0
1, 158460, Note_on_c, 1, 66, 127
1, 158460, Note_on_c, 1, 59, 127
1, 158460, Note_on_c, 1, 38, 127
1, 158490, Note_on_c, 1, 64, 127
1, 158519, Note_off_c, 1, 66, 0
1, 158519, Note_off_c, 1, 59, 0
1, 158519, Note_off_c, 1, 38, 0
1, 158519, Note_off_c, 1, 64, 0
1, 158520, Note_on_c, 1, 62, 127
1, 158520, Note_on_c, 1, 40, 127
1, 158579, Note_off_c, 1, 62, 0
1, 158579, Note_off_c, 1, 40, 0
1, 158580, Note_on_c, 1, 61, 127
1, 158580, Note_on_c, 1, 64, 127
1, 158580, Note_on_c, 1, 42, 127
1, 158639, Note_off_c, 1, 61, 0
1, 158639, Note_off_c, 1, 64, 0
1, 158639, Note_off_c, 1, 42, 0
1, 158640, Note_on_c, 1, 59, 127
1, 158640, Note_on_c, 1, 62, 127
1, 158640, Note_on_c, 1, 47, 127
1, 158759, Note_off_c, 1, 59, 0
1, 158759, Note_off_c, 1, 62, 0
1, 158759, Note_off_c, 1, 47, 0
1, 158880, Note_on_c, 1, 69, 127
1, 158880, Note_on_c, 1, 64, 127
1, 158880, Note_on_c, 1, 61, 127
1, 158880, Note_on_c, 1, 49, 127
1, 158940, Note_on_c, 1, 76, 127
1, 158999, Note_off_c, 1, 76, 0
1, 159000, Note_on_c, 1, 81, 127
1, 159059, Note_off_c, 1, 81, 0
1, 159120, Note_on_c, 1, 73, 127
1, 159179, Note_off_c, 1, 73, 0
1, 159240, Note_off_c, 1, 69, 0
1, 159240, Note_on_c, 1, 79, 127
1, 159240, Note_on_c, 1, 67, 127
1, 159269, Note_off_c, 1, 79, 0
1, 159270, Note_on_c, 1, 78, 127
1, 159299, Note_off_c, 1, 78, 0
1, 159359, Note_off_c, 1, 64, 0
1, 159359, Note_off_c, 1, 61, 0
1, 159359, Note_off_c, 1, 49, 0
1, 159360, Note_off_c, 1, 67, 0
1, 159360, Note_on_c, 1, 66, 127
1, 159360, Note_on_c, 1, 46, 127
1, 159600, Note_on_c, 1, 58, 127
1, 159659, Note_off_c, 1, 58, 0
1, 159660, Note_on_c, 1, 54, 127
1, 159719, Note_off_c, 1, 54, 0
1, 159720, Note_off_c, 1, 66, 0
1, 159750, Note_on_c, 1, 62, 127
1, 159779, Note_off_c, 1, 62, 0
1, 159839, Note_off_c, 1, 46, 0
1, 159840, Note_on_c, 1, 71, 127
1, 159840, Note_on_c, 1, 59, 127
1, 159840, Note_on_c, 1, 47, 127
1, 160200, Note_off_c, 1, 71, 0
1, 160230, Note_on_c, 1, 74, 127
1, 160230, Note_on_c, 1, 68, 127
1, 160259, Note_off_c, 1, 74, 0
1, 160259, Note_off_c, 1, 68, 0
1, 160319, Note_off_c, 1, 59, 0
1, 160319, Note_off_c, 1, 47, 0
1, 160320, Note_on_c, 1, 40, 127
1, 160560, Note_on_c, 1, 56, 127
1, 160619, Note_off_c, 1, 56, 0
1, 160620, Note_on_c, 1, 52, 127
1, 160679, Note_off_c, 1, 52, 0
1, 160799, Note_off_c, 1, 40, 0
1, 160800, Note_on_c, 1, 45, 127
1, 161100, Note_on_c, 1, 57, 127
1, 161159, Note_off_c, 1, 57, 0
1, 161279, Note_off_c, 1, 45, 0
1, 161280, Note_on_c, 1, 74, 127
1, 161280, Note_on_c, 1, 66, 127
1, 161280, Note_on_c, 1, 60, 127
1, 161280, Note_on_c, 1, 38, 127
1, 161340, Note_on_c, 1, 69, 127
1, 161399, Note_off_c, 1, 69, 0
1, 161579, Note_off_c, 1, 74, 0
1, 161580, Note_on_c, 1, 62, 127
1, 161580, Note_on_c, 1, 57, 127
1, 161639, Note_off_c, 1, 62, 0
1, 161639, Note_off_c, 1, 57, 0
1, 161640, Note_on_c, 1, 72, 127
1, 161640, Note_on_c, 1, 54, 127
1, 161669, Note_off_c, 1, 72, 0
1, 161670, Note_on_c, 1, 71, 127
1, 161699, Note_off_c, 1, 54, 0
1, 161699, Note_off_c, 1, 71, 0
1, 161700, Note_on_c, 1, 50, 127
1, 161759, Note_off_c, 1, 66, 0
1, 161759, Note_off_c, 1, 60, 0
1, 161759, Note_off_c, 1, 38, 0
1, 161759, Note_off_c, 1, 50, 0
1, 161760, Note_on_c, 1, 55, 127
1, 161760, Note_on_c, 1, 67, 127
1, 161760, Note_on_c, 1, 59, 127
1, 161760, Note_on_c, 1, 43, 127
1, 161819, Note_off_c, 1, 55, 0
1, 161819, Note_off_c, 1, 43, 0
1, 161880, Note_off_c, 1, 67, 0
1, 161880, Note_off_c, 1, 59, 0
1, 161880, Note_on_c, 1, 73, 127
1, 161880, Note_on_c, 1, 64, 127
1, 161880, Note_on_c, 1, 61, 127
1, 161939, Note_off_c, 1, 73, 0
1, 161939, Note_off_c, 1, 64, 0
1, 161940, Note_on_c, 1, 76, 127
1, 161940, Note_on_c, 1, 52, 127
1, 161999, Note_off_c, 1, 76, 0
1, 161999, Note_off_c, 1, 52, 0
1, 162000, Note_on_c, 1, 79, 127
1, 162000, Note_on_c, 1, 49, 127
1, 162059, Note_off_c, 1, 79, 0
1, 162059, Note_off_c, 1, 49, 0
1, 162060, Note_on_c, 1, 78, 127
1, 162060, Note_on_c, 1, 45, 127
1, 162119, Note_off_c, 1, 78, 0
1, 162119, Note_off_c, 1, 45, 0
1, 162120, Note_off_c, 1, 61, 0
1, 162180, Note_on_c, 1, 47, 127
1, 162239, Note_off_c, 1, 47, 0
1, 162240, Note_on_c, 1, 56, 127
1, 162240, Note_on_c, 1, 65, 127
1, 162240, Note_on_c, 1, 44, 127
1, 162359, Note_off_c, 1, 44, 0
1, 162419, Note_off_c, 1, 56, 0
1, 162419, Note_off_c, 1, 65, 0
1, 162420, Note_on_c, 1, 73, 127
1, 162420, Note_on_c, 1, 64, 127
1, 162420, Note_on_c, 1, 56, 127
1, 162449, Note_off_c, 1, 73, 0
1, 162449, Note_off_c, 1, 64, 0
1, 162450, Note_on_c, 1, 74, 127
1, 162450, Note_on_c, 1, 62, 127
1, 162450, Note_on_c, 1, 65, 127
1, 162479, Note_off_c, 1, 56, 0
1, 162479, Note_off_c, 1, 74, 0
1, 162479, Note_off_c, 1, 62, 0
1, 162479, Note_off_c, 1, 65, 0
1, 162480, Note_on_c, 1, 74, 127
1, 162480, Note_on_c, 1, 62, 127
1, 162480, Note_on_c, 1, 65, 127
1, 162480, Note_on_c, 1, 57, 127
1, 162539, Note_off_c, 1, 74, 0
1, 162539, Note_off_c, 1, 62, 0
1, 162539, Note_off_c, 1, 65, 0
1, 162540, Note_on_c, 1, 69, 127
1, 162540, Note_on_c, 1, 61, 127
1, 162540, Note_on_c, 1, 64, 127
1, 162599, Note_off_c, 1, 57, 0
1, 162599, Note_off_c, 1, 69, 0
1, 162599, Note_off_c, 1, 61, 0
1, 162599, Note_off_c, 1, 64, 0
1, 162600, Note_on_c, 1, 62, 127
1, 162600, Note_on_c, 1, 66, 127
1, 162600, Note_on_c, 1, 57, 127
1, 162600, Note_on_c, 1, 45, 127
1, 162660, Note_off_c, 1, 62, 0
1, 162660, Note_off_c, 1, 66, 0
1, 162660, Note_on_c, 1, 61, 127
1, 162660, Note_on_c, 1, 64, 127
1, 162719, Note_off_c, 1, 57, 0
1, 162719, Note_off_c, 1, 45, 0
1, 162720, Note_off_c, 1, 61, 0
1, 162720, Note_off_c, 1, 64, 0
1, 162720, Note_on_c, 1, 38, 127
1, 162959, Note_off_c, 1, 38, 0
1, 163620, Note_on_c, 1, 69, 127
1, 163667, Note_off_c, 1, 69, 0
1, 163680, Note_on_c, 1, 74, 127
1, 163680, Note_on_c, 1, 50, 127
1, 163703, Note_off_c, 1, 74, 0
1, 163710, Note_on_c, 1, 76, 127
1, 163727, Note_off_c, 1, 50, 0
1, 163733, Note_off_c, 1, 76, 0
1, 163740, Note_on_c, 1, 78, 127
1, 163740, Note_on_c, 1, 38, 127
1, 163763, Note_off_c, 1, 78, 0
1, 163770, Note_on_c, 1, 76, 127
1, 163787, Note_off_c, 1, 38, 0
1, 163793, Note_off_c, 1, 76, 0
1, 163800, Note_on_c, 1, 74, 127
1, 163830, Note_on_c, 1, 69, 127
1, 163847, Note_off_c, 1, 74, 0
1, 163853, Note_off_c, 1, 69, 0
1, 163860, Note_on_c, 1, 69, 127
1, 163860, Note_on_c, 1, 71, 127
1, 163883, Note_off_c, 1, 69, 0
1, 163883, Note_off_c, 1, 71, 0
1, 163890, Note_on_c, 1, 73, 127
1, 163913, Note_off_c, 1, 73, 0
1, 163920, Note_on_c, 1, 69, 127
1, 163920, Note_on_c, 1, 74, 127
1, 163943, Note_off_c, 1, 69, 0
1, 163943, Note_off_c, 1, 74, 0
1, 163950, Note_on_c, 1, 69, 127
1, 163973, Note_off_c, 1, 69, 0
1, 163980, Note_on_c, 1, 66, 127
1, 163980, Note_on_c, 1, 74, 127
1, 163980, Note_on_c, 1, 71, 127
1, 164003, Note_off_c, 1, 66, 0
1, 164003, Note_off_c, 1, 74, 0
1, 164003, Note_off_c, 1, 71, 0
1, 164010, Note_on_c, 1, 76, 127
1, 164010, Note_on_c, 1, 73, 127
1, 164033, Note_off_c, 1, 76, 0
1, 164033, Note_off_c, 1, 73, 0
1, 164040, Note_on_c, 1, 66, 127
1, 164040, Note_on_c, 1, 78, 127
1, 164040, Note_on_c, 1, 74, 127
1, 164063, Note_off_c, 1, 66, 0
1, 164063, Note_off_c, 1, 78, 0
1, 164063, Note_off_c, 1, 74, 0
1, 164070, Note_on_c, 1, 74, 127
1, 164070, Note_on_c, 1, 69, 127
1, 164093, Note_off_c, 1, 74, 0
1, 164093, Note_off_c, 1, 69, 0
1, 164100, Note_on_c, 1, 62, 127
1, 164100, Note_on_c, 1, 78, 127
1, 164100, Note_on_c, 1, 74, 127
1, 164123, Note_off_c, 1, 62, 0
1, 164123, Note_off_c, 1, 78, 0
1, 164123, Note_off_c, 1, 74, 0
1, 164130, Note_on_c, 1, 79, 127
1, 164130, Note_on_c, 1, 76, 127
1, 164153, Note_off_c, 1, 79, 0
1, 164153, Note_off_c, 1, 76, 0
1, 164160, Note_on_c, 1, 62, 127
1, 164160, Note_on_c, 1, 81, 127
1, 164160, Note_on_c, 1, 78, 127
1, 164183, Note_off_c, 1, 62, 0
1, 164207, Note_off_c, 1, 81, 0
1, 164207, Note_off_c, 1, 78, 0
1, 164220, Note_on_c, 1, 81, 127
1, 164220, Note_on_c, 1, 78, 127
1, 164220, Note_on_c, 1, 69, 127
1, 164220, Note_on_c, 1, 50, 127
1, 164220, Note_on_c, 1, 62, 127
1, 164250, Note_on_c, 1, 49, 127
1, 164267, Note_off_c, 1, 81, 0
1, 164267, Note_off_c, 1, 62, 0
1, 164268, Note_off_c, 1, 78, 0
1, 164268, Note_off_c, 1, 69, 0
1, 164268, Note_off_c, 1, 50, 0
1, 164273, Note_off_c, 1, 49, 0
1, 164280, Note_on_c, 1, 79, 127
1, 164280, Note_on_c, 1, 76, 127
1, 164280, Note_on_c, 1, 69, 127
1, 164280, Note_on_c, 1, 45, 127
1, 164280, Note_on_c, 1, 57, 127
1, 164280, Note_on_c, 1, 50, 127
1, 164303, Note_off_c, 1, 50, 0
1, 164310, Note_on_c, 1, 52, 127
1, 164327, Note_off_c, 1, 79, 0
1, 164327, Note_off_c, 1, 57, 0
1, 164328, Note_off_c, 1, 76, 0
1, 164328, Note_off_c, 1, 69, 0
1, 164328, Note_off_c, 1, 45, 0
1, 164333, Note_off_c, 1, 52, 0
1, 164340, Note_on_c, 1, 78, 127
1, 164340, Note_on_c, 1, 74, 127
1, 164340, Note_on_c, 1, 69, 127
1, 164340, Note_on_c, 1, 50, 127
1, 164340, Note_on_c, 1, 54, 127
1, 164363, Note_off_c, 1, 54, 0
1, 164370, Note_on_c, 1, 55, 127
1, 164387, Note_off_c, 1, 78, 0
1, 164388, Note_off_c, 1, 74, 0
1, 164388, Note_off_c, 1, 69, 0
1, 164388, Note_off_c, 1, 50, 0
1, 164393, Note_off_c, 1, 55, 0
1, 164400, Note_on_c, 1, 78, 127
1, 164400, Note_on_c, 1, 74, 127
1, 164400, Note_on_c, 1, 69, 127
1, 164400, Note_on_c, 1, 45, 127
1, 164400, Note_on_c, 1, 57, 127
1, 164423, Note_off_c, 1, 57, 0
1, 164430, Note_on_c, 1, 55, 127
1, 164447, Note_off_c, 1, 78, 0
1, 164448, Note_off_c, 1, 74, 0
1, 164448, Note_off_c, 1, 69, 0
1, 164448, Note_off_c, 1, 45, 0
1, 164453, Note_off_c, 1, 55, 0
1, 164460, Note_on_c, 1, 76, 127
1, 164460, Note_on_c, 1, 69, 127
1, 164460, Note_on_c, 1, 45, 127
1, 164460, Note_on_c, 1, 73, 127
1, 164460, Note_on_c, 1, 57, 127
1, 164490, Note_on_c, 1, 59, 127
1, 164507, Note_off_c, 1, 76, 0
1, 164507, Note_off_c, 1, 73, 0
1, 164507, Note_off_c, 1, 57, 0
1, 164508, Note_off_c, 1, 69, 0
1, 164508, Note_off_c, 1, 45, 0
1, 164513, Note_off_c, 1, 59, 0
1, 164520, Note_on_c, 1, 57, 127
1, 164543, Note_off_c, 1, 57, 0
1, 164550, Note_on_c, 1, 55, 127
1, 164573, Note_off_c, 1, 55, 0
1, 164580, Note_on_c, 1, 69, 127
1, 164580, Note_on_c, 1, 54, 127
1, 164603, Note_off_c, 1, 54, 0
1, 164610, Note_on_c, 1, 52, 127
1, 164627, Note_off_c, 1, 69, 0
1, 164633, Note_off_c, 1, 52, 0
1, 164640, Note_on_c, 1, 74, 127
1, 164640, Note_on_c, 1, 50, 127
1, 164663, Note_off_c, 1, 74, 0
1, 164670, Note_on_c, 1, 76, 127
1, 164687, Note_off_c, 1, 50, 0
1, 164693, Note_off_c, 1, 76, 0
1, 164700, Note_on_c, 1, 78, 127
1, 164700, Note_on_c, 1, 74, 127
1, 164700, Note_on_c, 1, 38, 127
1, 164723, Note_off_c, 1, 74, 0
1, 164747, Note_off_c, 1, 38, 0
1, 164771, Note_off_c, 1, 78, 0
1, 164790, Note_on_c, 1, 79, 127
1, 164813, Note_off_c, 1, 79, 0
1, 164820, Note_on_c, 1, 78, 127
1, 164820, Note_on_c, 1, 74, 127
1, 164820, Note_on_c, 1, 69, 127
1, 164843, Note_off_c, 1, 78, 0
1, 164843, Note_off_c, 1, 74, 0
1, 164843, Note_off_c, 1, 69, 0
1, 164850, Note_on_c, 1, 76, 127
1, 164873, Note_off_c, 1, 76, 0
1, 164880, Note_on_c, 1, 78, 127
1, 164880, Note_on_c, 1, 74, 127
1, 164880, Note_on_c, 1, 69, 127
1, 164903, Note_off_c, 1, 78, 0
1, 164903, Note_off_c, 1, 74, 0
1, 164903, Note_off_c, 1, 69, 0
1, 164910, Note_on_c, 1, 76, 127
1, 164933, Note_off_c, 1, 76, 0
1, 164940, Note_on_c, 1, 74, 127
1, 164940, Note_on_c, 1, 69, 127
1, 164940, Note_on_c, 1, 66, 127
1, 164963, Note_off_c, 1, 69, 0
1, 164963, Note_off_c, 1, 66, 0
1, 165011, Note_off_c, 1, 74, 0
1, 165030, Note_on_c, 1, 69, 127
1, 165053, Note_off_c, 1, 69, 0
1, 165060, Note_on_c, 1, 74, 127
1, 165060, Note_on_c, 1, 66, 127
1, 165060, Note_on_c, 1, 62, 127
1, 165083, Note_off_c, 1, 74, 0
1, 165083, Note_off_c, 1, 66, 0
1, 165083, Note_off_c, 1, 62, 0
1, 165090, Note_on_c, 1, 76, 127
1, 165113, Note_off_c, 1, 76, 0
1, 165120, Note_on_c, 1, 78, 127
1, 165120, Note_on_c, 1, 66, 127
1, 165120, Note_on_c, 1, 62, 127
1, 165143, Note_off_c, 1, 78, 0
1, 165143, Note_off_c, 1, 66, 0
1, 165143, Note_off_c, 1, 62, 0
1, 165150, Note_on_c, 1, 74, 127
1, 165173, Note_off_c, 1, 74, 0
1, 165180, Note_on_c, 1, 81, 127
1, 165180, Note_on_c, 1, 78, 127
1, 165180, Note_on_c, 1, 69, 127
1, 165180, Note_on_c, 1, 50, 127
1, 165180, Note_on_c, 1, 62, 127
1, 165210, Note_on_c, 1, 49, 127
1, 165227, Note_off_c, 1, 81, 0
1, 165227, Note_off_c, 1, 62, 0
1, 165228, Note_off_c, 1, 78, 0
1, 165228, Note_off_c, 1, 69, 0
1, 165228, Note_off_c, 1, 50, 0
1, 165233, Note_off_c, 1, 49, 0
1, 165240, Note_on_c, 1, 79, 127
1, 165240, Note_on_c, 1, 76, 127
1, 165240, Note_on_c, 1, 69, 127
1, 165240, Note_on_c, 1, 45, 127
1, 165240, Note_on_c, 1, 57, 127
1, 165240, Note_on_c, 1, 50, 127
1, 165263, Note_off_c, 1, 50, 0
1, 165270, Note_on_c, 1, 52, 127
1, 165287, Note_off_c, 1, 79, 0
1, 165287, Note_off_c, 1, 57, 0
1, 165288, Note_off_c, 1, 76, 0
1, 165288, Note_off_c, 1, 69, 0
1, 165288, Note_off_c, 1, 45, 0
1, 165293, Note_off_c, 1, 52, 0
1, 165300, Note_on_c, 1, 78, 127
1, 165300, Note_on_c, 1, 74, 127
1, 165300, Note_on_c, 1, 69, 127
1, 165300, Note_on_c, 1, 50, 127
1, 165300, Note_on_c, 1, 54, 127
1, 165323, Note_off_c, 1, 54, 0
1, 165330, Note_on_c, 1, 55, 127
1, 165347, Note_off_c, 1, 78, 0
1, 165348, Note_off_c, 1, 74, 0
1, 165348, Note_off_c, 1, 69, 0
1, 165348, Note_off_c, 1, 50, 0
1, 165353, Note_off_c, 1, 55, 0
1, 165360, Note_on_c, 1, 78, 127
1, 165360, Note_on_c, 1, 74, 127
1, 165360, Note_on_c, 1, 69, 127
1, 165360, Note_on_c, 1, 45, 127
1, 165360, Note_on_c, 1, 57, 127
1, 165383, Note_off_c, 1, 57, 0
1, 165390, Note_on_c, 1, 55, 127
1, 165407, Note_off_c, 1, 78, 0
1, 165408, Note_off_c, 1, 74, 0
1, 165408, Note_off_c, 1, 69, 0
1, 165408, Note_off_c, 1, 45, 0
1, 165413, Note_off_c, 1, 55, 0
1, 165420, Note_on_c, 1, 76, 127
1, 165420, Note_on_c, 1, 73, 127
1, 165420, Note_on_c, 1, 69, 127
1, 165420, Note_on_c, 1, 45, 127
1, 165420, Note_on_c, 1, 57, 127
1, 165450, Note_on_c, 1, 59, 127
1, 165467, Note_off_c, 1, 76, 0
1, 165467, Note_off_c, 1, 57, 0
1, 165468, Note_off_c, 1, 73, 0
1, 165468, Note_off_c, 1, 69, 0
1, 165468, Note_off_c, 1, 45, 0
1, 165473, Note_off_c, 1, 59, 0
1, 165480, Note_on_c, 1, 57, 127
1, 165503, Note_off_c, 1, 57, 0
1, 165510, Note_on_c, 1, 55, 127
1, 165533, Note_off_c, 1, 55, 0
1, 165540, Note_on_c, 1, 81, 127
1, 165540, Note_on_c, 1, 54, 127
1, 165563, Note_off_c, 1, 54, 0
1, 165570, Note_on_c, 1, 52, 127
1, 165587, Note_off_c, 1, 81, 0
1, 165593, Note_off_c, 1, 52, 0
1, 165600, Note_on_c, 1, 78, 127
1, 165600, Note_on_c, 1, 50, 127
1, 165611, Note_off_c, 1, 78, 0
1, 165647, Note_off_c, 1, 50, 0
1, 165660, Note_on_c, 1, 79, 127
1, 165660, Note_on_c, 1, 76, 127
1, 165660, Note_on_c, 1, 69, 127
1, 165660, Note_on_c, 1, 49, 127
1, 165683, Note_off_c, 1, 79, 0
1, 165684, Note_off_c, 1, 76, 0
1, 165684, Note_off_c, 1, 69, 0
1, 165690, Note_on_c, 1, 81, 127
1, 165707, Note_off_c, 1, 49, 0
1, 165713, Note_off_c, 1, 81, 0
1, 165720, Note_on_c, 1, 78, 127
1, 165720, Note_on_c, 1, 69, 127
1, 165720, Note_on_c, 1, 50, 127
1, 165744, Note_off_c, 1, 78, 0
1, 165744, Note_off_c, 1, 69, 0
1, 165767, Note_off_c, 1, 50, 0
1, 165780, Note_on_c, 1, 79, 127
1, 165780, Note_on_c, 1, 76, 127
1, 165780, Note_on_c, 1, 69, 127
1, 165780, Note_on_c, 1, 49, 127
1, 165803, Note_off_c, 1, 79, 0
1, 165804, Note_off_c, 1, 76, 0
1, 165804, Note_off_c, 1, 69, 0
1, 165810, Note_on_c, 1, 81, 127
1, 165827, Note_off_c, 1, 49, 0
1, 165833, Note_off_c, 1, 81, 0
1, 165840, Note_on_c, 1, 78, 127
1, 165840, Note_on_c, 1, 74, 127
1, 165840, Note_on_c, 1, 69, 127
1, 165840, Note_on_c, 1, 50, 127
1, 165864, Note_off_c, 1, 78, 0
1, 165864, Note_off_c, 1, 74, 0
1, 165864, Note_off_c, 1, 69, 0
1, 165887, Note_off_c, 1, 50, 0
1, 165900, Note_on_c, 1, 83, 127
1, 165900, Note_on_c, 1, 78, 127
1, 165900, Note_on_c, 1, 74, 127
1, 165900, Note_on_c, 1, 50, 127
1, 165900, Note_on_c, 1, 62, 127
1, 165923, Note_off_c, 1, 83, 0
1, 165923, Note_off_c, 1, 78, 0
1, 165923, Note_off_c, 1, 74, 0
1, 165923, Note_off_c, 1, 50, 0
1, 165923, Note_off_c, 1, 62, 0
1, 165930, Note_on_c, 1, 76, 127
1, 165930, Note_on_c, 1, 69, 127
1, 165930, Note_on_c, 1, 50, 127
1, 165930, Note_on_c, 1, 81, 127
1, 165930, Note_on_c, 1, 61, 127
1, 165953, Note_off_c, 1, 76, 0
1, 165953, Note_off_c, 1, 69, 0
1, 165953, Note_off_c, 1, 50, 0
1, 165953, Note_off_c, 1, 81, 0
1, 165953, Note_off_c, 1, 61, 0
1, 165960, Note_on_c, 1, 78, 127
1, 165960, Note_on_c, 1, 66, 127
1, 165960, Note_on_c, 1, 50, 127
1, 165960, Note_on_c, 1, 83, 127
1, 165960, Note_on_c, 1, 62, 127
1, 165990, Note_on_c, 1, 81, 127
1, 166007, Note_off_c, 1, 83, 0
1, 166007, Note_off_c, 1, 62, 0
1, 166008, Note_off_c, 1, 78, 0
1, 166008, Note_off_c, 1, 66, 0
1, 166008, Note_off_c, 1, 50, 0
1, 166013, Note_off_c, 1, 81, 0
1, 166020, Note_on_c, 1, 79, 127
1, 166020, Note_on_c, 1, 59, 127
1, 166043, Note_off_c, 1, 79, 0
1, 166050, Note_on_c, 1, 78, 127
1, 166067, Note_off_c, 1, 59, 0
1, 166073, Note_off_c, 1, 78, 0
1, 166080, Note_on_c, 1, 76, 127
1, 166080, Note_on_c, 1, 49, 127
1, 166091, Note_off_c, 1, 76, 0
1, 166127, Note_off_c, 1, 49, 0
1, 166140, Note_on_c, 1, 78, 127
1, 166140, Note_on_c, 1, 74, 127
1, 166140, Note_on_c, 1, 69, 127
1, 166140, Note_on_c, 1, 47, 127
1, 166163, Note_off_c, 1, 78, 0
1, 166164, Note_off_c, 1, 74, 0
1, 166164, Note_off_c, 1, 69, 0
1, 166170, Note_on_c, 1, 79, 127
1, 166187, Note_off_c, 1, 47, 0
1, 166193, Note_off_c, 1, 79, 0
1, 166200, Note_on_c, 1, 76, 127
1, 166200, Note_on_c, 1, 69, 127
1, 166200, Note_on_c, 1, 49, 127
1, 166224, Note_off_c, 1, 76, 0
1, 166224, Note_off_c, 1, 69, 0
1, 166247, Note_off_c, 1, 49, 0
1, 166260, Note_on_c, 1, 78, 127
1, 166260, Note_on_c, 1, 74, 127
1, 166260, Note_on_c, 1, 69, 127
1, 166260, Note_on_c, 1, 71, 127
1, 166260, Note_on_c, 1, 47, 127
1, 166283, Note_off_c, 1, 78, 0
1, 166284, Note_off_c, 1, 74, 0
1, 166284, Note_off_c, 1, 69, 0
1, 166284, Note_off_c, 1, 71, 0
1, 166290, Note_on_c, 1, 79, 127
1, 166307, Note_off_c, 1, 47, 0
1, 166313, Note_off_c, 1, 79, 0
1, 166320, Note_on_c, 1, 76, 127
1, 166320, Note_on_c, 1, 69, 127
1, 166320, Note_on_c, 1, 64, 127
1, 166320, Note_on_c, 1, 49, 127
1, 166344, Note_off_c, 1, 76, 0
1, 166344, Note_off_c, 1, 69, 0
1, 166344, Note_off_c, 1, 64, 0
1, 166367, Note_off_c, 1, 49, 0
1, 166380, Note_on_c, 1, 81, 127
1, 166380, Note_on_c, 1, 76, 127
1, 166380, Note_on_c, 1, 69, 127
1, 166380, Note_on_c, 1, 45, 127
1, 166380, Note_on_c, 1, 57, 127
1, 166380, Note_on_c, 1, 61, 127
1, 166403, Note_off_c, 1, 81, 0
1, 166403, Note_off_c, 1, 76, 0
1, 166403, Note_off_c, 1, 69, 0
1, 166403, Note_off_c, 1, 45, 0
1, 166403, Note_off_c, 1, 57, 0
1, 166403, Note_off_c, 1, 61, 0
1, 166410, Note_on_c, 1, 74, 127
1, 166410, Note_on_c, 1, 69, 127
1, 166410, Note_on_c, 1, 45, 127
1, 166410, Note_on_c, 1, 79, 127
1, 166410, Note_on_c, 1, 59, 127
1, 166433, Note_off_c, 1, 74, 0
1, 166433, Note_off_c, 1, 69, 0
1, 166433, Note_off_c, 1, 45, 0
1, 166433, Note_off_c, 1, 79, 0
1, 166433, Note_off_c, 1, 59, 0
1, 166440, Note_on_c, 1, 76, 127
1, 166440, Note_on_c, 1, 69, 127
1, 166440, Note_on_c, 1, 45, 127
1, 166440, Note_on_c, 1, 81, 127
1, 166440, Note_on_c, 1, 57, 127
1, 166440, Note_on_c, 1, 61, 127
1, 166470, Note_on_c, 1, 79, 127
1, 166487, Note_off_c, 1, 81, 0
1, 166487, Note_off_c, 1, 57, 0
1, 166487, Note_off_c, 1, 61, 0
1, 166488, Note_off_c, 1, 76, 0
1, 166488, Note_off_c, 1, 69, 0
1, 166488, Note_off_c, 1, 45, 0
1, 166493, Note_off_c, 1, 79, 0
1, 166500, Note_on_c, 1, 78, 127
1, 166500, Note_on_c, 1, 57, 127
1, 166523, Note_off_c, 1, 78, 0
1, 166530, Note_on_c, 1, 76, 127
1, 166547, Note_off_c, 1, 57, 0
1, 166553, Note_off_c, 1, 76, 0
1, 166560, Note_on_c, 1, 74, 127
1, 166560, Note_on_c, 1, 71, 127
1, 166560, Note_on_c, 1, 66, 127
1, 166560, Note_on_c, 1, 47, 127
1, 166590, Note_on_c, 1, 86, 127
1, 166607, Note_off_c, 1, 47, 0
1, 166613, Note_off_c, 1, 86, 0
1, 166620, Note_on_c, 1, 85, 127
1, 166620, Note_on_c, 1, 78, 127
1, 166620, Note_on_c, 1, 59, 127
1, 166643, Note_off_c, 1, 85, 0
1, 166650, Note_on_c, 1, 83, 127
1, 166667, Note_off_c, 1, 78, 0
1, 166667, Note_off_c, 1, 59, 0
1, 166673, Note_off_c, 1, 83, 0
1, 166680, Note_on_c, 1, 57, 127
1, 166727, Note_off_c, 1, 57, 0
1, 166740, Note_on_c, 1, 45, 127
1, 166751, Note_off_c, 1, 66, 0
1, 166770, Note_on_c, 1, 81, 127
1, 166787, Note_off_c, 1, 45, 0
1, 166793, Note_off_c, 1, 81, 0
1, 166800, Note_on_c, 1, 43, 127
1, 166847, Note_off_c, 1, 43, 0
1, 166860, Note_on_c, 1, 79, 127
1, 166860, Note_on_c, 1, 55, 127
1, 166907, Note_off_c, 1, 55, 0
1, 166913, Note_off_c, 1, 79, 0
1, 166920, Note_on_c, 1, 62, 127
1, 166920, Note_on_c, 1, 54, 127
1, 166967, Note_off_c, 1, 54, 0
1, 166980, Note_on_c, 1, 42, 127
1, 166992, Note_off_c, 1, 74, 0
1, 166992, Note_off_c, 1, 71, 0
1, 167015, Note_off_c, 1, 62, 0
1, 167027, Note_off_c, 1, 42, 0
1, 167040, Note_on_c, 1, 79, 127
1, 167040, Note_on_c, 1, 64, 127
1, 167040, Note_on_c, 1, 40, 127
1, 167063, Note_off_c, 1, 40, 0
1, 167070, Note_on_c, 1, 42, 127
1, 167087, Note_off_c, 1, 79, 0
1, 167087, Note_off_c, 1, 64, 0
1, 167093, Note_off_c, 1, 42, 0
1, 167100, Note_on_c, 1, 76, 127
1, 167100, Note_on_c, 1, 83, 127
1, 167100, Note_on_c, 1, 79, 127
1, 167100, Note_on_c, 1, 64, 127
1, 167100, Note_on_c, 1, 59, 127
1, 167100, Note_on_c, 1, 43, 127
1, 167123, Note_off_c, 1, 79, 0
1, 167123, Note_off_c, 1, 64, 0
1, 167123, Note_off_c, 1, 43, 0
1, 167130, Note_on_c, 1, 81, 127
1, 167130, Note_on_c, 1, 78, 127
1, 167130, Note_on_c, 1, 66, 127
1, 167130, Note_on_c, 1, 45, 127
1, 167147, Note_off_c, 1, 76, 0
1, 167147, Note_off_c, 1, 83, 0
1, 167147, Note_off_c, 1, 59, 0
1, 167153, Note_off_c, 1, 81, 0
1, 167153, Note_off_c, 1, 78, 0
1, 167153, Note_off_c, 1, 66, 0
1, 167153, Note_off_c, 1, 45, 0
1, 167160, Note_on_c, 1, 76, 127
1, 167160, Note_on_c, 1, 79, 127
1, 167160, Note_on_c, 1, 67, 127
1, 167160, Note_on_c, 1, 64, 127
1, 167160, Note_on_c, 1, 47, 127
1, 167183, Note_off_c, 1, 67, 0
1, 167183, Note_off_c, 1, 47, 0
1, 167190, Note_on_c, 1, 49, 127
1, 167207, Note_off_c, 1, 76, 0
1, 167207, Note_off_c, 1, 79, 0
1, 167213, Note_off_c, 1, 64, 0
1, 167213, Note_off_c, 1, 49, 0
1, 167220, Note_on_c, 1, 69, 127
1, 167220, Note_on_c, 1, 66, 127
1, 167220, Note_on_c, 1, 74, 127
1, 167220, Note_on_c, 1, 50, 127
1, 167243, Note_off_c, 1, 66, 0
1, 167243, Note_off_c, 1, 50, 0
1, 167250, Note_on_c, 1, 67, 127
1, 167250, Note_on_c, 1, 47, 127
1, 167267, Note_off_c, 1, 69, 0
1, 167267, Note_off_c, 1, 74, 0
1, 167273, Note_off_c, 1, 67, 0
1, 167273, Note_off_c, 1, 47, 0
1, 167280, Note_on_c, 1, 69, 127
1, 167280, Note_on_c, 1, 49, 127
1, 167303, Note_off_c, 1, 49, 0
1, 167310, Note_on_c, 1, 64, 127
1, 167310, Note_on_c, 1, 45, 127
1, 167327, Note_off_c, 1, 69, 0
1, 167333, Note_off_c, 1, 64, 0
1, 167333, Note_off_c, 1, 45, 0
1, 167340, Note_on_c, 1, 79, 127
1, 167340, Note_on_c, 1, 76, 127
1, 167340, Note_on_c, 1, 69, 127
1, 167340, Note_on_c, 1, 45, 127
1, 167340, Note_on_c, 1, 49, 127
1, 167363, Note_off_c, 1, 49, 0
1, 167364, Note_off_c, 1, 45, 0
1, 167370, Note_on_c, 1, 78, 127
1, 167370, Note_on_c, 1, 73, 127
1, 167370, Note_on_c, 1, 52, 127
1, 167387, Note_off_c, 1, 79, 0
1, 167393, Note_off_c, 1, 78, 0
1, 167393, Note_off_c, 1, 73, 0
1, 167393, Note_off_c, 1, 52, 0
1, 167394, Note_off_c, 1, 76, 0
1, 167394, Note_off_c, 1, 69, 0
1, 167400, Note_on_c, 1, 76, 127
1, 167400, Note_on_c, 1, 69, 127
1, 167400, Note_on_c, 1, 45, 127
1, 167400, Note_on_c, 1, 79, 127
1, 167400, Note_on_c, 1, 73, 127
1, 167400, Note_on_c, 1, 64, 127
1, 167400, Note_on_c, 1, 57, 127
1, 167447, Note_off_c, 1, 79, 0
1, 167447, Note_off_c, 1, 64, 0
1, 167447, Note_off_c, 1, 57, 0
1, 167448, Note_off_c, 1, 76, 0
1, 167448, Note_off_c, 1, 69, 0
1, 167448, Note_off_c, 1, 45, 0
1, 167453, Note_off_c, 1, 73, 0
1, 167460, Note_on_c, 1, 81, 127
1, 167460, Note_on_c, 1, 76, 127
1, 167460, Note_on_c, 1, 69, 127
1, 167460, Note_on_c, 1, 45, 127
1, 167460, Note_on_c, 1, 64, 127
1, 167460, Note_on_c, 1, 49, 127
1, 167507, Note_off_c, 1, 64, 0
1, 167507, Note_off_c, 1, 49, 0
1, 167508, Note_off_c, 1, 76, 0
1, 167508, Note_off_c, 1, 69, 0
1, 167508, Note_off_c, 1, 45, 0
1, 167513, Note_off_c, 1, 81, 0
1, 167520, Note_on_c, 1, 79, 127
1, 167520, Note_on_c, 1, 74, 127
1, 167520, Note_on_c, 1, 69, 127
1, 167520, Note_on_c, 1, 50, 127
1, 167520, Note_on_c, 1, 66, 127
1, 167543, Note_off_c, 1, 79, 0
1, 167550, Note_on_c, 1, 78, 127
1, 167567, Note_off_c, 1, 66, 0
1, 167568, Note_off_c, 1, 74, 0
1, 167568, Note_off_c, 1, 69, 0
1, 167568, Note_off_c, 1, 50, 0
1, 167573, Note_off_c, 1, 78, 0
1, 167580, Note_on_c, 1, 76, 127
1, 167580, Note_on_c, 1, 78, 127
1, 167580, Note_on_c, 1, 62, 127
1, 167580, Note_on_c, 1, 50, 127
1, 167580, Note_on_c, 1, 74, 127
1, 167580, Note_on_c, 1, 71, 127
1, 167580, Note_on_c, 1, 66, 127
1, 167580, Note_on_c, 1, 47, 127
1, 167603, Note_off_c, 1, 76, 0
1, 167604, Note_off_c, 1, 62, 0
1, 167604, Note_off_c, 1, 50, 0
1, 167627, Note_off_c, 1, 71, 0
1, 167627, Note_off_c, 1, 66, 0
1, 167627, Note_off_c, 1, 47, 0
1, 167628, Note_off_c, 1, 78, 0
1, 167633, Note_off_c, 1, 74, 0
1, 167640, Note_on_c, 1, 78, 127
1, 167640, Note_on_c, 1, 83, 127
1, 167640, Note_on_c, 1, 62, 127
1, 167640, Note_on_c, 1, 50, 127
1, 167640, Note_on_c, 1, 74, 127
1, 167640, Note_on_c, 1, 71, 127
1, 167640, Note_on_c, 1, 59, 127
1, 167640, Note_on_c, 1, 43, 127
1, 167687, Note_off_c, 1, 78, 0
1, 167687, Note_off_c, 1, 74, 0
1, 167687, Note_off_c, 1, 71, 0
1, 167687, Note_off_c, 1, 59, 0
1, 167687, Note_off_c, 1, 43, 0
1, 167688, Note_off_c, 1, 83, 0
1, 167688, Note_off_c, 1, 62, 0
1, 167688, Note_off_c, 1, 50, 0
1, 167700, Note_on_c, 1, 76, 127
1, 167700, Note_on_c, 1, 81, 127
1, 167700, Note_on_c, 1, 69, 127
1, 167700, Note_on_c, 1, 45, 127
1, 167700, Note_on_c, 1, 73, 127
1, 167700, Note_on_c, 1, 64, 127
1, 167724, Note_off_c, 1, 81, 0
1, 167730, Note_on_c, 1, 79, 127
1, 167747, Note_off_c, 1, 76, 0
1, 167747, Note_off_c, 1, 73, 0
1, 167747, Note_off_c, 1, 64, 0
1, 167748, Note_off_c, 1, 69, 0
1, 167748, Note_off_c, 1, 45, 0
1, 167754, Note_off_c, 1, 79, 0
1, 167760, Note_on_c, 1, 74, 127
1, 167760, Note_on_c, 1, 78, 127
1, 167760, Note_on_c, 1, 62, 127
1, 167760, Note_on_c, 1, 50, 127
1, 167760, Note_on_c, 1, 66, 127
1, 167760, Note_on_c, 1, 71, 127
1, 167760, Note_on_c, 1, 47, 127
1, 167807, Note_off_c, 1, 66, 0
1, 167807, Note_off_c, 1, 71, 0
1, 167807, Note_off_c, 1, 47, 0
1, 167808, Note_off_c, 1, 78, 0
1, 167808, Note_off_c, 1, 62, 0
1, 167808, Note_off_c, 1, 50, 0
1, 167820, Note_on_c, 1, 86, 127
1, 167820, Note_on_c, 1, 59, 127
1, 167843, Note_off_c, 1, 86, 0
1, 167843, Note_off_c, 1, 59, 0
1, 167850, Note_on_c, 1, 85, 127
1, 167850, Note_on_c, 1, 57, 127
1, 167873, Note_off_c, 1, 85, 0
1, 167873, Note_off_c, 1, 57, 0
1, 167879, Note_off_c, 1, 74, 0
1, 167880, Note_on_c, 1, 86, 127
1, 167880, Note_on_c, 1, 59, 127
1, 167910, Note_on_c, 1, 76, 127
1, 167921, Note_off_c, 1, 76, 0
1, 167925, Note_on_c, 1, 78, 127
1, 167927, Note_off_c, 1, 86, 0
1, 167927, Note_off_c, 1, 59, 0
1, 167936, Note_off_c, 1, 78, 0
1, 167940, Note_on_c, 1, 79, 127
1, 167940, Note_on_c, 1, 74, 127
1, 167940, Note_on_c, 1, 71, 127
1, 167940, Note_on_c, 1, 47, 127
1, 167970, Note_on_c, 1, 78, 127
1, 167981, Note_off_c, 1, 78, 0
1, 167985, Note_on_c, 1, 76, 127
1, 167987, Note_off_c, 1, 79, 0
1, 167987, Note_off_c, 1, 74, 0
1, 167987, Note_off_c, 1, 71, 0
1, 167987, Note_off_c, 1, 47, 0
1, 167996, Note_off_c, 1, 76, 0
1, 168000, Note_on_c, 1, 74, 127
1, 168000, Note_on_c, 1, 81, 127
1, 168000, Note_on_c, 1, 66, 127
1, 168000, Note_on_c, 1, 50, 127
1, 168000, Note_on_c, 1, 69, 127
1, 168000, Note_on_c, 1, 42, 127
1, 168047, Note_off_c, 1, 69, 0
1, 168047, Note_off_c, 1, 42, 0
1, 168048, Note_off_c, 1, 81, 0
1, 168048, Note_off_c, 1, 66, 0
1, 168048, Note_off_c, 1, 50, 0
1, 168060, Note_on_c, 1, 54, 127
1, 168083, Note_off_c, 1, 54, 0
1, 168090, Note_on_c, 1, 79, 127
1, 168090, Note_on_c, 1, 52, 127
1, 168113, Note_off_c, 1, 79, 0
1, 168113, Note_off_c, 1, 52, 0
1, 168119, Note_off_c, 1, 74, 0
1, 168120, Note_on_c, 1, 81, 127
1, 168120, Note_on_c, 1, 54, 127
1, 168150, Note_on_c, 1, 76, 127
1, 168161, Note_off_c, 1, 76, 0
1, 168165, Note_on_c, 1, 78, 127
1, 168167, Note_off_c, 1, 81, 0
1, 168167, Note_off_c, 1, 54, 0
1, 168176, Note_off_c, 1, 78, 0
1, 168180, Note_on_c, 1, 79, 127
1, 168180, Note_on_c, 1, 74, 127
1, 168180, Note_on_c, 1, 81, 127
1, 168180, Note_on_c, 1, 72, 127
1, 168180, Note_on_c, 1, 69, 127
1, 168180, Note_on_c, 1, 50, 127
1, 168203, Note_off_c, 1, 79, 0
1, 168210, Note_on_c, 1, 78, 127
1, 168221, Note_off_c, 1, 78, 0
1, 168225, Note_on_c, 1, 76, 127
1, 168227, Note_off_c, 1, 74, 0
1, 168227, Note_off_c, 1, 81, 0
1, 168227, Note_off_c, 1, 72, 0
1, 168227, Note_off_c, 1, 69, 0
1, 168227, Note_off_c, 1, 50, 0
1, 168236, Note_off_c, 1, 76, 0
1, 168240, Note_on_c, 1, 74, 127
1, 168240, Note_on_c, 1, 83, 127
1, 168240, Note_on_c, 1, 79, 127
1, 168240, Note_on_c, 1, 71, 127
1, 168240, Note_on_c, 1, 67, 127
1, 168240, Note_on_c, 1, 55, 127
1, 168263, Note_off_c, 1, 74, 0
1, 168270, Note_on_c, 1, 76, 127
1, 168281, Note_off_c, 1, 76, 0
1, 168285, Note_on_c, 1, 78, 127
1, 168287, Note_off_c, 1, 83, 0
1, 168287, Note_off_c, 1, 79, 0
1, 168287, Note_off_c, 1, 71, 0
1, 168287, Note_off_c, 1, 67, 0
1, 168287, Note_off_c, 1, 55, 0
1, 168296, Note_off_c, 1, 78, 0
1, 168300, Note_on_c, 1, 79, 127
1, 168300, Note_on_c, 1, 43, 127
1, 168323, Note_off_c, 1, 79, 0
1, 168330, Note_on_c, 1, 78, 127
1, 168341, Note_off_c, 1, 78, 0
1, 168345, Note_on_c, 1, 76, 127
1, 168347, Note_off_c, 1, 43, 0
1, 168356, Note_off_c, 1, 76, 0
1, 168360, Note_on_c, 1, 74, 127
1, 168360, Note_on_c, 1, 81, 127
1, 168360, Note_on_c, 1, 69, 127
1, 168360, Note_on_c, 1, 42, 127
1, 168390, Note_on_c, 1, 76, 127
1, 168401, Note_off_c, 1, 76, 0
1, 168405, Note_on_c, 1, 78, 127
1, 168407, Note_off_c, 1, 74, 0
1, 168407, Note_off_c, 1, 81, 0
1, 168407, Note_off_c, 1, 69, 0
1, 168407, Note_off_c, 1, 42, 0
1, 168416, Note_off_c, 1, 78, 0
1, 168420, Note_on_c, 1, 79, 127
1, 168420, Note_on_c, 1, 54, 127
1, 168443, Note_off_c, 1, 79, 0
1, 168450, Note_on_c, 1, 78, 127
1, 168461, Note_off_c, 1, 78, 0
1, 168465, Note_on_c, 1, 76, 127
1, 168467, Note_off_c, 1, 54, 0
1, 168476, Note_off_c, 1, 76, 0
1, 168480, Note_on_c, 1, 74, 127
1, 168480, Note_on_c, 1, 80, 127
1, 168480, Note_on_c, 1, 76, 127
1, 168480, Note_on_c, 1, 71, 127
1, 168480, Note_on_c, 1, 52, 127
1, 168527, Note_off_c, 1, 74, 0
1, 168527, Note_off_c, 1, 80, 0
1, 168527, Note_off_c, 1, 76, 0
1, 168527, Note_off_c, 1, 71, 0
1, 168527, Note_off_c, 1, 52, 0
1, 168540, Note_on_c, 1, 80, 127
1, 168540, Note_on_c, 1, 74, 127
1, 168540, Note_on_c, 1, 40, 127
1, 168563, Note_off_c, 1, 80, 0
1, 168563, Note_off_c, 1, 74, 0
1, 168570, Note_on_c, 1, 73, 127
1, 168587, Note_off_c, 1, 40, 0
1, 168593, Note_off_c, 1, 73, 0
1, 168600, Note_on_c, 1, 71, 127
1, 168600, Note_on_c, 1, 68, 127
1, 168600, Note_on_c, 1, 76, 127
1, 168600, Note_on_c, 1, 38, 127
1, 168630, Note_on_c, 1, 83, 127
1, 168647, Note_off_c, 1, 71, 0
1, 168647, Note_off_c, 1, 68, 0
1, 168647, Note_off_c, 1, 76, 0
1, 168647, Note_off_c, 1, 38, 0
1, 168653, Note_off_c, 1, 83, 0
1, 168660, Note_on_c, 1, 81, 127
1, 168660, Note_on_c, 1, 83, 127
1, 168660, Note_on_c, 1, 50, 127
1, 168683, Note_off_c, 1, 81, 0
1, 168690, Note_on_c, 1, 80, 127
1, 168707, Note_off_c, 1, 83, 0
1, 168707, Note_off_c, 1, 50, 0
1, 168713, Note_off_c, 1, 80, 0
1, 168720, Note_on_c, 1, 81, 127
1, 168720, Note_on_c, 1, 64, 127
1, 168720, Note_on_c, 1, 76, 127
1, 168720, Note_on_c, 1, 49, 127
1, 168743, Note_off_c, 1, 49, 0
1, 168750, Note_on_c, 1, 62, 127
1, 168767, Note_off_c, 1, 81, 0
1, 168767, Note_off_c, 1, 64, 0
1, 168767, Note_off_c, 1, 76, 0
1, 168773, Note_off_c, 1, 62, 0
1, 168780, Note_on_c, 1, 69, 127
1, 168780, Note_on_c, 1, 61, 127
1, 168803, Note_off_c, 1, 61, 0
1, 168810, Note_on_c, 1, 71, 127
1, 168810, Note_on_c, 1, 59, 127
1, 168827, Note_off_c, 1, 69, 0
1, 168833, Note_off_c, 1, 71, 0
1, 168833, Note_off_c, 1, 59, 0
1, 168840, Note_on_c, 1, 73, 127
1, 168840, Note_on_c, 1, 76, 127
1, 168840, Note_on_c, 1, 69, 127
1, 168840, Note_on_c, 1, 57, 127
1, 168863, Note_off_c, 1, 57, 0
1, 168870, Note_on_c, 1, 55, 127
1, 168887, Note_off_c, 1, 73, 0
1, 168887, Note_off_c, 1, 76, 0
1, 168887, Note_off_c, 1, 69, 0
1, 168893, Note_off_c, 1, 55, 0
1, 168900, Note_on_c, 1, 79, 127
1, 168900, Note_on_c, 1, 54, 127
1, 168923, Note_off_c, 1, 54, 0
1, 168930, Note_on_c, 1, 52, 127
1, 168947, Note_off_c, 1, 79, 0
1, 168953, Note_off_c, 1, 52, 0
1, 168960, Note_on_c, 1, 78, 127
1, 168960, Note_on_c, 1, 69, 127
1, 168960, Note_on_c, 1, 50, 127
1, 168983, Note_off_c, 1, 50, 0
1, 168990, Note_on_c, 1, 49, 127
1, 169007, Note_off_c, 1, 78, 0
1, 169007, Note_off_c, 1, 69, 0
1, 169013, Note_off_c, 1, 49, 0
1, 169020, Note_on_c, 1, 86, 127
1, 169020, Note_on_c, 1, 78, 127
1, 169020, Note_on_c, 1, 74, 127
1, 169020, Note_on_c, 1, 50, 127
1, 169020, Note_on_c, 1, 71, 127
1, 169020, Note_on_c, 1, 47, 127
1, 169043, Note_off_c, 1, 47, 0
1, 169044, Note_off_c, 1, 50, 0
1, 169050, Note_on_c, 1, 45, 127
1, 169067, Note_off_c, 1, 86, 0
1, 169067, Note_off_c, 1, 71, 0
1, 169068, Note_off_c, 1, 78, 0
1, 169068, Note_off_c, 1, 74, 0
1, 169073, Note_off_c, 1, 45, 0
1, 169080, Note_on_c, 1, 76, 127
1, 169080, Note_on_c, 1, 83, 127
1, 169080, Note_on_c, 1, 79, 127
1, 169080, Note_on_c, 1, 50, 127
1, 169080, Note_on_c, 1, 64, 127
1, 169080, Note_on_c, 1, 43, 127
1, 169127, Note_off_c, 1, 76, 0
1, 169127, Note_off_c, 1, 64, 0
1, 169127, Note_off_c, 1, 43, 0
1, 169128, Note_off_c, 1, 83, 0
1, 169128, Note_off_c, 1, 79, 0
1, 169128, Note_off_c, 1, 50, 0
1, 169140, Note_on_c, 1, 85, 127
1, 169140, Note_on_c, 1, 81, 127
1, 169140, Note_on_c, 1, 76, 127
1, 169140, Note_on_c, 1, 45, 127
1, 169140, Note_on_c, 1, 69, 127
1, 169187, Note_off_c, 1, 85, 0
1, 169187, Note_off_c, 1, 69, 0
1, 169188, Note_off_c, 1, 81, 0
1, 169188, Note_off_c, 1, 76, 0
1, 169188, Note_off_c, 1, 45, 0
1, 169200, Note_on_c, 1, 86, 127
1, 169200, Note_on_c, 1, 81, 127
1, 169200, Note_on_c, 1, 78, 127
1, 169200, Note_on_c, 1, 50, 127
1, 169200, Note_on_c, 1, 74, 127
1, 169200, Note_on_c, 1, 69, 127
1, 169200, Note_on_c, 1, 38, 127
1, 169247, Note_off_c, 1, 38, 0
1, 169290, Note_on_c, 1, 52, 127
1, 169295, Note_off_c, 1, 86, 0
1, 169295, Note_off_c, 1, 81, 0
1, 169295, Note_off_c, 1, 78, 0
1, 169295, Note_off_c, 1, 50, 0
1, 169295, Note_off_c, 1, 74, 0
1, 169295, Note_off_c, 1, 69, 0
1, 169313, Note_off_c, 1, 52, 0
1, 169320, Note_on_c, 1, 66, 127
1, 169320, Note_on_c, 1, 62, 127
1, 169320, Note_on_c, 1, 57, 127
1, 169320, Note_on_c, 1, 50, 127
1, 169350, Note_on_c, 1, 48, 127
1, 169373, Note_off_c, 1, 48, 0
1, 169380, Note_on_c, 1, 67, 127
1, 169380, Note_on_c, 1, 47, 127
1, 169403, Note_off_c, 1, 67, 0
1, 169403, Note_off_c, 1, 47, 0
1, 169410, Note_on_c, 1, 69, 127
1, 169410, Note_on_c, 1, 45, 127
1, 169433, Note_off_c, 1, 69, 0
1, 169433, Note_off_c, 1, 45, 0
1, 169439, Note_off_c, 1, 66, 0
1, 169439, Note_off_c, 1, 62, 0
1, 169439, Note_off_c, 1, 57, 0
1, 169439, Note_off_c, 1, 50, 0
1, 169440, Note_on_c, 1, 71, 127
1, 169440, Note_on_c, 1, 62, 127
1, 169440, Note_on_c, 1, 59, 127
1, 169440, Note_on_c, 1, 55, 127
1, 169440, Note_on_c, 1, 43, 127
1, 169487, Note_off_c, 1, 43, 0
1, 169499, Note_off_c, 1, 62, 0
1, 169499, Note_off_c, 1, 59, 0
1, 169500, Note_on_c, 1, 69, 127
1, 169500, Note_on_c, 1, 64, 127
1, 169500, Note_on_c, 1, 61, 127
1, 169523, Note_off_c, 1, 69, 0
1, 169530, Note_on_c, 1, 67, 127
1, 169553, Note_off_c, 1, 67, 0
1, 169559, Note_off_c, 1, 71, 0
1, 169559, Note_off_c, 1, 55, 0
1, 169559, Note_off_c, 1, 64, 0
1, 169559, Note_off_c, 1, 61, 0
1, 169560, Note_on_c, 1, 69, 127
1, 169560, Note_on_c, 1, 62, 127
1, 169560, Note_on_c, 1, 66, 127
1, 169560, Note_on_c, 1, 54, 127
1, 169620, Note_on_c, 1, 67, 127
1, 169620, Note_on_c, 1, 42, 127
1, 169643, Note_off_c, 1, 67, 0
1, 169667, Note_off_c, 1, 42, 0
1, 169679, Note_off_c, 1, 69, 0
1, 169679, Note_off_c, 1, 62, 0
1, 169679, Note_off_c, 1, 66, 0
1, 169679, Note_off_c, 1, 54, 0
1, 169680, Note_on_c, 1, 67, 127
1, 169680, Note_on_c, 1, 62, 127
1, 169680, Note_on_c, 1, 59, 127
1, 169680, Note_on_c, 1, 55, 127
1, 169680, Note_on_c, 1, 47, 127
1, 169692, Note_off_c, 1, 62, 0
1, 169727, Note_off_c, 1, 47, 0
1, 169740, Note_on_c, 1, 66, 127
1, 169740, Note_on_c, 1, 61, 127
1, 169763, Note_off_c, 1, 66, 0
1, 169770, Note_on_c, 1, 64, 127
1, 169793, Note_off_c, 1, 64, 0
1, 169799, Note_off_c, 1, 67, 0
1, 169799, Note_off_c, 1, 59, 0
1, 169799, Note_off_c, 1, 55, 0
1, 169799, Note_off_c, 1, 61, 0
1, 169800, Note_on_c, 1, 66, 127
1, 169800, Note_on_c, 1, 62, 127
1, 169800, Note_on_c, 1, 57, 127
1, 169860, Note_on_c, 1, 64, 127
1, 169860, Note_on_c, 1, 45, 127
1, 169883, Note_off_c, 1, 64, 0
1, 169907, Note_off_c, 1, 45, 0
1, 169919, Note_off_c, 1, 66, 0
1, 169919, Note_off_c, 1, 62, 0
1, 169919, Note_off_c, 1, 57, 0
1, 169920, Note_on_c, 1, 64, 127
1, 169920, Note_on_c, 1, 62, 127
1, 169920, Note_on_c, 1, 59, 127
1, 169920, Note_on_c, 1, 55, 127
1, 169920, Note_on_c, 1, 43, 127
1, 169950, Note_on_c, 1, 74, 127
1, 169967, Note_off_c, 1, 43, 0
1, 169973, Note_off_c, 1, 74, 0
1, 169979, Note_off_c, 1, 59, 0
1, 169980, Note_on_c, 1, 73, 127
1, 170003, Note_off_c, 1, 73, 0
1, 170010, Note_on_c, 1, 71, 127
1, 170033, Note_off_c, 1, 71, 0
1, 170039, Note_off_c, 1, 62, 0
1, 170039, Note_off_c, 1, 55, 0
1, 170040, Note_on_c, 1, 69, 127
1, 170040, Note_on_c, 1, 61, 127
1, 170040, Note_on_c, 1, 52, 127
1, 170040, Note_on_c, 1, 57, 127
1, 170063, Note_off_c, 1, 69, 0
1, 170070, Note_on_c, 1, 67, 127
1, 170093, Note_off_c, 1, 67, 0
1, 170099, Note_off_c, 1, 52, 0
1, 170100, Note_on_c, 1, 81, 127
1, 170100, Note_on_c, 1, 66, 127
1, 170100, Note_on_c, 1, 45, 127
1, 170123, Note_off_c, 1, 81, 0
1, 170123, Note_off_c, 1, 66, 0
1, 170130, Note_on_c, 1, 79, 127
1, 170147, Note_off_c, 1, 45, 0
1, 170153, Note_off_c, 1, 79, 0
1, 170159, Note_off_c, 1, 64, 0
1, 170159, Note_off_c, 1, 61, 0
1, 170159, Note_off_c, 1, 57, 0
1, 170160, Note_on_c, 1, 78, 127
1, 170160, Note_on_c, 1, 66, 127
1, 170160, Note_on_c, 1, 62, 127
1, 170160, Note_on_c, 1, 57, 127
1, 170160, Note_on_c, 1, 50, 127
1, 170183, Note_off_c, 1, 78, 0
1, 170190, Note_on_c, 1, 76, 127
1, 170213, Note_off_c, 1, 76, 0
1, 170220, Note_on_c, 1, 74, 127
1, 170220, Note_on_c, 1, 54, 127
1, 170243, Note_off_c, 1, 74, 0
1, 170243, Note_off_c, 1, 54, 0
1, 170250, Note_on_c, 1, 52, 127
1, 170273, Note_off_c, 1, 52, 0
1, 170279, Note_off_c, 1, 66, 0
1, 170279, Note_off_c, 1, 62, 0
1, 170279, Note_off_c, 1, 57, 0
1, 170279, Note_off_c, 1, 50, 0
1, 170280, Note_on_c, 1, 78, 127
1, 170280, Note_on_c, 1, 50, 127
1, 170303, Note_off_c, 1, 78, 0
1, 170310, Note_on_c, 1, 79, 127
1, 170327, Note_off_c, 1, 50, 0
1, 170333, Note_off_c, 1, 79, 0
1, 170340, Note_on_c, 1, 78, 127
1, 170340, Note_on_c, 1, 66, 127
1, 170340, Note_on_c, 1, 49, 127
1, 170363, Note_off_c, 1, 78, 0
1, 170370, Note_on_c, 1, 79, 127
1, 170387, Note_off_c, 1, 66, 0
1, 170387, Note_off_c, 1, 49, 0
1, 170393, Note_off_c, 1, 79, 0
1, 170400, Note_on_c, 1, 78, 127
1, 170400, Note_on_c, 1, 71, 127
1, 170400, Note_on_c, 1, 47, 127
1, 170423, Note_off_c, 1, 71, 0
1, 170430, Note_on_c, 1, 73, 127
1, 170453, Note_off_c, 1, 73, 0
1, 170460, Note_on_c, 1, 74, 127
1, 170460, Note_on_c, 1, 59, 127
1, 170483, Note_off_c, 1, 74, 0
1, 170495, Note_off_c, 1, 47, 0
1, 170508, Note_off_c, 1, 59, 0
1, 170550, Note_on_c, 1, 66, 127
1, 170573, Note_off_c, 1, 66, 0
1, 170580, Note_on_c, 1, 68, 127
1, 170603, Note_off_c, 1, 68, 0
1, 170610, Note_on_c, 1, 70, 127
1, 170633, Note_off_c, 1, 70, 0
1, 170700, Note_on_c, 1, 62, 127
1, 170724, Note_off_c, 1, 62, 0
1, 170850, Note_on_c, 1, 76, 127
1, 170873, Note_off_c, 1, 76, 0
1, 170970, Note_on_c, 1, 46, 127
1, 170993, Note_off_c, 1, 46, 0
1, 171000, Note_on_c, 1, 54, 127
1, 171030, Note_on_c, 1, 49, 127
1, 171047, Note_off_c, 1, 54, 0
1, 171053, Note_off_c, 1, 49, 0
1, 171060, Note_on_c, 1, 50, 127
1, 171072, Note_off_c, 1, 78, 0
1, 171083, Note_off_c, 1, 50, 0
1, 171090, Note_on_c, 1, 52, 127
1, 171113, Note_off_c, 1, 52, 0
1, 171120, Note_on_c, 1, 74, 127
1, 171120, Note_on_c, 1, 71, 127
1, 171120, Note_on_c, 1, 66, 127
1, 171120, Note_on_c, 1, 54, 127
1, 171143, Note_off_c, 1, 54, 0
1, 171150, Note_on_c, 1, 52, 127
1, 171167, Note_off_c, 1, 74, 0
1, 171167, Note_off_c, 1, 71, 0
1, 171167, Note_off_c, 1, 66, 0
1, 171173, Note_off_c, 1, 52, 0
1, 171180, Note_on_c, 1, 73, 127
1, 171180, Note_on_c, 1, 70, 127
1, 171180, Note_on_c, 1, 54, 127
1, 171210, Note_on_c, 1, 55, 127
1, 171227, Note_off_c, 1, 73, 0
1, 171227, Note_off_c, 1, 70, 0
1, 171227, Note_off_c, 1, 54, 0
1, 171233, Note_off_c, 1, 55, 0
1, 171240, Note_on_c, 1, 73, 127
1, 171240, Note_on_c, 1, 70, 127
1, 171240, Note_on_c, 1, 66, 127
1, 171240, Note_on_c, 1, 54, 127
1, 171270, Note_on_c, 1, 52, 127
1, 171293, Note_off_c, 1, 52, 0
1, 171300, Note_on_c, 1, 71, 127
1, 171300, Note_on_c, 1, 50, 127
1, 171323, Note_off_c, 1, 71, 0
1, 171323, Note_off_c, 1, 50, 0
1, 171330, Note_on_c, 1, 49, 127
1, 171353, Note_off_c, 1, 49, 0
1, 171359, Note_off_c, 1, 73, 0
1, 171359, Note_off_c, 1, 70, 0
1, 171359, Note_off_c, 1, 66, 0
1, 171359, Note_off_c, 1, 54, 0
1, 171360, Note_on_c, 1, 74, 127
1, 171360, Note_on_c, 1, 71, 127
1, 171360, Note_on_c, 1, 66, 127
1, 171360, Note_on_c, 1, 59, 127
1, 171360, Note_on_c, 1, 47, 127
1, 171407, Note_off_c, 1, 47, 0
1, 171419, Note_off_c, 1, 59, 0
1, 171420, Note_on_c, 1, 73, 127
1, 171420, Note_on_c, 1, 54, 127
1, 171443, Note_off_c, 1, 73, 0
1, 171479, Note_off_c, 1, 74, 0
1, 171479, Note_off_c, 1, 71, 0
1, 171479, Note_off_c, 1, 66, 0
1, 171479, Note_off_c, 1, 54, 0
1, 171480, Note_on_c, 1, 74, 127
1, 171480, Note_on_c, 1, 71, 127
1, 171480, Note_on_c, 1, 62, 127
1, 171480, Note_on_c, 1, 55, 127
1, 171539, Note_off_c, 1, 62, 0
1, 171539, Note_off_c, 1, 55, 0
1, 171540, Note_on_c, 1, 73, 127
1, 171540, Note_on_c, 1, 66, 127
1, 171540, Note_on_c, 1, 50, 127
1, 171563, Note_off_c, 1, 73, 0
1, 171599, Note_off_c, 1, 74, 0
1, 171599, Note_off_c, 1, 71, 0
1, 171599, Note_off_c, 1, 66, 0
1, 171599, Note_off_c, 1, 50, 0
1, 171600, Note_on_c, 1, 73, 127
1, 171600, Note_on_c, 1, 71, 127
1, 171600, Note_on_c, 1, 67, 127
1, 171600, Note_on_c, 1, 52, 127
1, 171659, Note_off_c, 1, 67, 0
1, 171659, Note_off_c, 1, 52, 0
1, 171660, Note_on_c, 1, 79, 127
1, 171660, Note_on_c, 1, 64, 127
1, 171660, Note_on_c, 1, 49, 127
1, 171684, Note_off_c, 1, 79, 0
1, 171689, Note_off_c, 1, 73, 0
1, 171690, Note_on_c, 1, 74, 127
1, 171704, Note_off_c, 1, 74, 0
1, 171705, Note_on_c, 1, 76, 127
1, 171719, Note_off_c, 1, 71, 0
1, 171719, Note_off_c, 1, 64, 0
1, 171719, Note_off_c, 1, 49, 0
1, 171719, Note_off_c, 1, 76, 0
1, 171720, Note_on_c, 1, 73, 127
1, 171720, Note_on_c, 1, 70, 127
1, 171720, Note_on_c, 1, 66, 127
1, 171720, Note_on_c, 1, 54, 127
1, 171750, Note_on_c, 1, 79, 127
1, 171773, Note_off_c, 1, 79, 0
1, 171779, Note_off_c, 1, 66, 0
1, 171780, Note_on_c, 1, 78, 127
1, 171780, Note_on_c, 1, 61, 127
1, 171780, Note_on_c, 1, 42, 127
1, 171803, Note_off_c, 1, 78, 0
1, 171810, Note_on_c, 1, 76, 127
1, 171827, Note_off_c, 1, 42, 0
1, 171833, Note_off_c, 1, 76, 0
1, 171839, Note_off_c, 1, 73, 0
1, 171839, Note_off_c, 1, 70, 0
1, 171839, Note_off_c, 1, 54, 0
1, 171839, Note_off_c, 1, 61, 0
1, 171840, Note_on_c, 1, 71, 127
1, 171840, Note_on_c, 1, 74, 127
1, 171840, Note_on_c, 1, 66, 127
1, 171840, Note_on_c, 1, 62, 127
1, 171840, Note_on_c, 1, 47, 127
1, 171852, Note_off_c, 1, 74, 0
1, 171900, Note_on_c, 1, 76, 127
1, 171900, Note_on_c, 1, 54, 127
1, 171923, Note_off_c, 1, 76, 0
1, 171930, Note_on_c, 1, 78, 127
1, 171947, Note_off_c, 1, 54, 0
1, 171953, Note_off_c, 1, 78, 0
1, 171959, Note_off_c, 1, 66, 0
1, 171959, Note_off_c, 1, 62, 0
1, 171959, Note_off_c, 1, 47, 0
1, 171960, Note_on_c, 1, 59, 127
1, 172007, Note_off_c, 1, 59, 0
1, 172080, Note_on_c, 1, 55, 127
1, 172127, Note_off_c, 1, 71, 0
1, 172127, Note_off_c, 1, 55, 0
1, 172140, Note_on_c, 1, 83, 127
1, 172140, Note_on_c, 1, 61, 127
1, 172140, Note_on_c, 1, 52, 127
1, 172164, Note_off_c, 1, 83, 0
1, 172164, Note_off_c, 1, 61, 0
1, 172170, Note_on_c, 1, 59, 127
1, 172187, Note_off_c, 1, 52, 0
1, 172193, Note_off_c, 1, 59, 0
1, 172200, Note_on_c, 1, 61, 127
1, 172200, Note_on_c, 1, 57, 127
1, 172223, Note_off_c, 1, 57, 0
1, 172230, Note_on_c, 1, 83, 127
1, 172230, Note_on_c, 1, 55, 127
1, 172253, Note_off_c, 1, 83, 0
1, 172253, Note_off_c, 1, 55, 0
1, 172260, Note_on_c, 1, 69, 127
1, 172260, Note_on_c, 1, 81, 127
1, 172260, Note_on_c, 1, 54, 127
1, 172271, Note_off_c, 1, 61, 0
1, 172283, Note_off_c, 1, 81, 0
1, 172283, Note_off_c, 1, 54, 0
1, 172290, Note_on_c, 1, 79, 127
1, 172290, Note_on_c, 1, 62, 127
1, 172290, Note_on_c, 1, 52, 127
1, 172307, Note_off_c, 1, 69, 0
1, 172313, Note_off_c, 1, 79, 0
1, 172313, Note_off_c, 1, 62, 0
1, 172313, Note_off_c, 1, 52, 0
1, 172320, Note_on_c, 1, 74, 127
1, 172320, Note_on_c, 1, 78, 127
1, 172320, Note_on_c, 1, 62, 127
1, 172320, Note_on_c, 1, 50, 127
1, 172343, Note_off_c, 1, 74, 0
1, 172350, Note_on_c, 1, 76, 127
1, 172367, Note_off_c, 1, 78, 0
1, 172367, Note_off_c, 1, 62, 0
1, 172367, Note_off_c, 1, 50, 0
1, 172373, Note_off_c, 1, 76, 0
1, 172380, Note_on_c, 1, 78, 127
1, 172380, Note_on_c, 1, 38, 127
1, 172403, Note_off_c, 1, 78, 0
1, 172410, Note_on_c, 1, 76, 127
1, 172427, Note_off_c, 1, 38, 0
1, 172433, Note_off_c, 1, 76, 0
1, 172440, Note_on_c, 1, 74, 127
1, 172470, Note_on_c, 1, 69, 127
1, 172487, Note_off_c, 1, 74, 0
1, 172493, Note_off_c, 1, 69, 0
1, 172500, Note_on_c, 1, 69, 127
1, 172500, Note_on_c, 1, 71, 127
1, 172523, Note_off_c, 1, 69, 0
1, 172523, Note_off_c, 1, 71, 0
1, 172530, Note_on_c, 1, 73, 127
1, 172553, Note_off_c, 1, 73, 0
1, 172560, Note_on_c, 1, 69, 127
1, 172560, Note_on_c, 1, 74, 127
1, 172583, Note_off_c, 1, 69, 0
1, 172583, Note_off_c, 1, 74, 0
1, 172590, Note_on_c, 1, 69, 127
1, 172613, Note_off_c, 1, 69, 0
1, 172620, Note_on_c, 1, 66, 127
1, 172620, Note_on_c, 1, 74, 127
1, 172620, Note_on_c, 1, 71, 127
1, 172643, Note_off_c, 1, 66, 0
1, 172643, Note_off_c, 1, 74, 0
1, 172643, Note_off_c, 1, 71, 0
1, 172650, Note_on_c, 1, 76, 127
1, 172650, Note_on_c, 1, 73, 127
1, 172673, Note_off_c, 1, 76, 0
1, 172673, Note_off_c, 1, 73, 0
1, 172680, Note_on_c, 1, 66, 127
1, 172680, Note_on_c, 1, 78, 127
1, 172680, Note_on_c, 1, 74, 127
1, 172703, Note_off_c, 1, 66, 0
1, 172703, Note_off_c, 1, 78, 0
1, 172703, Note_off_c, 1, 74, 0
1, 172710, Note_on_c, 1, 74, 127
1, 172710, Note_on_c, 1, 69, 127
1, 172733, Note_off_c, 1, 74, 0
1, 172733, Note_off_c, 1, 69, 0
1, 172740, Note_on_c, 1, 62, 127
1, 172740, Note_on_c, 1, 78, 127
1, 172740, Note_on_c, 1, 74, 127
1, 172763, Note_off_c, 1, 62, 0
1, 172763, Note_off_c, 1, 78, 0
1, 172763, Note_off_c, 1, 74, 0
1, 172770, Note_on_c, 1, 79, 127
1, 172770, Note_on_c, 1, 76, 127
1, 172793, Note_off_c, 1, 79, 0
1, 172793, Note_off_c, 1, 76, 0
1, 172800, Note_on_c, 1, 62, 127
1, 172800, Note_on_c, 1, 81, 127
1, 172800, Note_on_c, 1, 78, 127
1, 172823, Note_off_c, 1, 62, 0
1, 172847, Note_off_c, 1, 81, 0
1, 172847, Note_off_c, 1, 78, 0
1, 172860, Note_on_c, 1, 81, 127
1, 172860, Note_on_c, 1, 78, 127
1, 172860, Note_on_c, 1, 69, 127
1, 172860, Note_on_c, 1, 50, 127
1, 172860, Note_on_c, 1, 62, 127
1, 172890, Note_on_c, 1, 49, 127
1, 172907, Note_off_c, 1, 81, 0
1, 172907, Note_off_c, 1, 62, 0
1, 172908, Note_off_c, 1, 78, 0
1, 172908, Note_off_c, 1, 69, 0
1, 172908, Note_off_c, 1, 50, 0
1, 172913, Note_off_c, 1, 49, 0
1, 172920, Note_on_c, 1, 79, 127
1, 172920, Note_on_c, 1, 76, 127
1, 172920, Note_on_c, 1, 69, 127
1, 172920, Note_on_c, 1, 45, 127
1, 172920, Note_on_c, 1, 57, 127
1, 172920, Note_on_c, 1, 50, 127
1, 172943, Note_off_c, 1, 50, 0
1, 172950, Note_on_c, 1, 52, 127
1, 172967, Note_off_c, 1, 79, 0
1, 172967, Note_off_c, 1, 57, 0
1, 172968, Note_off_c, 1, 76, 0
1, 172968, Note_off_c, 1, 69, 0
1, 172968, Note_off_c, 1, 45, 0
1, 172973, Note_off_c, 1, 52, 0
1, 172980, Note_on_c, 1, 78, 127
1, 172980, Note_on_c, 1, 74, 127
1, 172980, Note_on_c, 1, 69, 127
1, 172980, Note_on_c, 1, 50, 127
1, 172980, Note_on_c, 1, 54, 127
1, 173003, Note_off_c, 1, 54, 0
1, 173010, Note_on_c, 1, 55, 127
1, 173027, Note_off_c, 1, 78, 0
1, 173028, Note_off_c, 1, 74, 0
1, 173028, Note_off_c, 1, 69, 0
1, 173028, Note_off_c, 1, 50, 0
1, 173033, Note_off_c, 1, 55, 0
1, 173040, Note_on_c, 1, 78, 127
1, 173040, Note_on_c, 1, 74, 127
1, 173040, Note_on_c, 1, 69, 127
1, 173040, Note_on_c, 1, 45, 127
1, 173040, Note_on_c, 1, 57, 127
1, 173063, Note_off_c, 1, 57, 0
1, 173070, Note_on_c, 1, 55, 127
1, 173087, Note_off_c, 1, 78, 0
1, 173088, Note_off_c, 1, 74, 0
1, 173088, Note_off_c, 1, 69, 0
1, 173088, Note_off_c, 1, 45, 0
1, 173093, Note_off_c, 1, 55, 0
1, 173100, Note_on_c, 1, 76, 127
1, 173100, Note_on_c, 1, 69, 127
1, 173100, Note_on_c, 1, 45, 127
1, 173100, Note_on_c, 1, 73, 127
1, 173100, Note_on_c, 1, 57, 127
1, 173130, Note_on_c, 1, 59, 127
1, 173147, Note_off_c, 1, 76, 0
1, 173147, Note_off_c, 1, 73, 0
1, 173147, Note_off_c, 1, 57, 0
1, 173148, Note_off_c, 1, 69, 0
1, 173148, Note_off_c, 1, 45, 0
1, 173153, Note_off_c, 1, 59, 0
1, 173160, Note_on_c, 1, 57, 127
1, 173183, Note_off_c, 1, 57, 0
1, 173190, Note_on_c, 1, 55, 127
1, 173213, Note_off_c, 1, 55, 0
1, 173220, Note_on_c, 1, 69, 127
1, 173220, Note_on_c, 1, 54, 127
1, 173243, Note_off_c, 1, 54, 0
1, 173250, Note_on_c, 1, 52, 127
1, 173267, Note_off_c, 1, 69, 0
1, 173273, Note_off_c, 1, 52, 0
1, 173280, Note_on_c, 1, 74, 127
1, 173280, Note_on_c, 1, 50, 127
1, 173303, Note_off_c, 1, 74, 0
1, 173310, Note_on_c, 1, 76, 127
1, 173327, Note_off_c, 1, 50, 0
1, 173333, Note_off_c, 1, 76, 0
1, 173340, Note_on_c, 1, 78, 127
1, 173340, Note_on_c, 1, 74, 127
1, 173340, Note_on_c, 1, 38, 127
1, 173363, Note_off_c, 1, 74, 0
1, 173387, Note_off_c, 1, 38, 0
1, 173411, Note_off_c, 1, 78, 0
1, 173430, Note_on_c, 1, 79, 127
1, 173453, Note_off_c, 1, 79, 0
1, 173460, Note_on_c, 1, 78, 127
1, 173460, Note_on_c, 1, 74, 127
1, 173460, Note_on_c, 1, 69, 127
1, 173483, Note_off_c, 1, 78, 0
1, 173483, Note_off_c, 1, 74, 0
1, 173483, Note_off_c, 1, 69, 0
1, 173490, Note_on_c, 1, 76, 127
1, 173513, Note_off_c, 1, 76, 0
1, 173520, Note_on_c, 1, 78, 127
1, 173520, Note_on_c, 1, 74, 127
1, 173520, Note_on_c, 1, 69, 127
1, 173543, Note_off_c, 1, 78, 0
1, 173543, Note_off_c, 1, 74, 0
1, 173543, Note_off_c, 1, 69, 0
1, 173550, Note_on_c, 1, 76, 127
1, 173573, Note_off_c, 1, 76, 0
1, 173580, Note_on_c, 1, 74, 127
1, 173580, Note_on_c, 1, 69, 127
1, 173580, Note_on_c, 1, 66, 127
1, 173603, Note_off_c, 1, 69, 0
1, 173603, Note_off_c, 1, 66, 0
1, 173651, Note_off_c, 1, 74, 0
1, 173670, Note_on_c, 1, 69, 127
1, 173693, Note_off_c, 1, 69, 0
1, 173700, Note_on_c, 1, 74, 127
1, 173700, Note_on_c, 1, 66, 127
1, 173700, Note_on_c, 1, 62, 127
1, 173723, Note_off_c, 1, 74, 0
1, 173723, Note_off_c, 1, 66, 0
1, 173723, Note_off_c, 1, 62, 0
1, 173730, Note_on_c, 1, 76, 127
1, 173753, Note_off_c, 1, 76, 0
1, 173760, Note_on_c, 1, 78, 127
1, 173760, Note_on_c, 1, 66, 127
1, 173760, Note_on_c, 1, 62, 127
1, 173783, Note_off_c, 1, 78, 0
1, 173783, Note_off_c, 1, 66, 0
1, 173783, Note_off_c, 1, 62, 0
1, 173790, Note_on_c, 1, 74, 127
1, 173813, Note_off_c, 1, 74, 0
1, 173820, Note_on_c, 1, 81, 127
1, 173820, Note_on_c, 1, 78, 127
1, 173820, Note_on_c, 1, 69, 127
1, 173820, Note_on_c, 1, 50, 127
1, 173820, Note_on_c, 1, 62, 127
1, 173850, Note_on_c, 1, 49, 127
1, 173867, Note_off_c, 1, 81, 0
1, 173867, Note_off_c, 1, 62, 0
1, 173868, Note_off_c, 1, 78, 0
1, 173868, Note_off_c, 1, 69, 0
1, 173868, Note_off_c, 1, 50, 0
1, 173873, Note_off_c, 1, 49, 0
1, 173880, Note_on_c, 1, 79, 127
1, 173880, Note_on_c, 1, 76, 127
1, 173880, Note_on_c, 1, 69, 127
1, 173880, Note_on_c, 1, 45, 127
1, 173880, Note_on_c, 1, 57, 127
1, 173880, Note_on_c, 1, 50, 127
1, 173903, Note_off_c, 1, 50, 0
1, 173910, Note_on_c, 1, 52, 127
1, 173927, Note_off_c, 1, 79, 0
1, 173927, Note_off_c, 1, 57, 0
1, 173928, Note_off_c, 1, 76, 0
1, 173928, Note_off_c, 1, 69, 0
1, 173928, Note_off_c, 1, 45, 0
1, 173933, Note_off_c, 1, 52, 0
1, 173940, Note_on_c, 1, 78, 127
1, 173940, Note_on_c, 1, 74, 127
1, 173940, Note_on_c, 1, 69, 127
1, 173940, Note_on_c, 1, 50, 127
1, 173940, Note_on_c, 1, 54, 127
1, 173963, Note_off_c, 1, 54, 0
1, 173970, Note_on_c, 1, 55, 127
1, 173987, Note_off_c, 1, 78, 0
1, 173988, Note_off_c, 1, 74, 0
1, 173988, Note_off_c, 1, 69, 0
1, 173988, Note_off_c, 1, 50, 0
1, 173993, Note_off_c, 1, 55, 0
1, 174000, Note_on_c, 1, 78, 127
1, 174000, Note_on_c, 1, 74, 127
1, 174000, Note_on_c, 1, 69, 127
1, 174000, Note_on_c, 1, 45, 127
1, 174000, Note_on_c, 1, 57, 127
1, 174023, Note_off_c, 1, 57, 0
1, 174030, Note_on_c, 1, 55, 127
1, 174047, Note_off_c, 1, 78, 0
1, 174048, Note_off_c, 1, 74, 0
1, 174048, Note_off_c, 1, 69, 0
1, 174048, Note_off_c, 1, 45, 0
1, 174053, Note_off_c, 1, 55, 0
1, 174060, Note_on_c, 1, 76, 127
1, 174060, Note_on_c, 1, 73, 127
1, 174060, Note_on_c, 1, 69, 127
1, 174060, Note_on_c, 1, 45, 127
1, 174060, Note_on_c, 1, 57, 127
1, 174090, Note_on_c, 1, 59, 127
1, 174107, Note_off_c, 1, 76, 0
1, 174107, Note_off_c, 1, 57, 0
1, 174108, Note_off_c, 1, 73, 0
1, 174108, Note_off_c, 1, 69, 0
1, 174108, Note_off_c, 1, 45, 0
1, 174113, Note_off_c, 1, 59, 0
1, 174120, Note_on_c, 1, 57, 127
1, 174143, Note_off_c, 1, 57, 0
1, 174150, Note_on_c, 1, 55, 127
1, 174173, Note_off_c, 1, 55, 0
1, 174180, Note_on_c, 1, 81, 127
1, 174180, Note_on_c, 1, 54, 127
1, 174203, Note_off_c, 1, 54, 0
1, 174210, Note_on_c, 1, 52, 127
1, 174227, Note_off_c, 1, 81, 0
1, 174233, Note_off_c, 1, 52, 0
1, 174240, Note_on_c, 1, 78, 127
1, 174240, Note_on_c, 1, 50, 127
1, 174251, Note_off_c, 1, 78, 0
1, 174287, Note_off_c, 1, 50, 0
1, 174300, Note_on_c, 1, 79, 127
1, 174300, Note_on_c, 1, 76, 127
1, 174300, Note_on_c, 1, 69, 127
1, 174300, Note_on_c, 1, 49, 127
1, 174323, Note_off_c, 1, 79, 0
1, 174324, Note_off_c, 1, 76, 0
1, 174324, Note_off_c, 1, 69, 0
1, 174330, Note_on_c, 1, 81, 127
1, 174347, Note_off_c, 1, 49, 0
1, 174353, Note_off_c, 1, 81, 0
1, 174360, Note_on_c, 1, 78, 127
1, 174360, Note_on_c, 1, 69, 127
1, 174360, Note_on_c, 1, 50, 127
1, 174384, Note_off_c, 1, 78, 0
1, 174384, Note_off_c, 1, 69, 0
1, 174407, Note_off_c, 1, 50, 0
1, 174420, Note_on_c, 1, 79, 127
1, 174420, Note_on_c, 1, 76, 127
1, 174420, Note_on_c, 1, 69, 127
1, 174420, Note_on_c, 1, 49, 127
1, 174443, Note_off_c, 1, 79, 0
1, 174444, Note_off_c, 1, 76, 0
1, 174444, Note_off_c, 1, 69, 0
1, 174450, Note_on_c, 1, 81, 127
1, 174467, Note_off_c, 1, 49, 0
1, 174473, Note_off_c, 1, 81, 0
1, 174480, Note_on_c, 1, 78, 127
1, 174480, Note_on_c, 1, 74, 127
1, 174480, Note_on_c, 1, 69, 127
1, 174480, Note_on_c, 1, 50, 127
1, 174504, Note_off_c, 1, 78, 0
1, 174504, Note_off_c, 1, 74, 0
1, 174504, Note_off_c, 1, 69, 0
1, 174527, Note_off_c, 1, 50, 0
1, 174540, Note_on_c, 1, 83, 127
1, 174540, Note_on_c, 1, 78, 127
1, 174540, Note_on_c, 1, 74, 127
1, 174540, Note_on_c, 1, 50, 127
1, 174540, Note_on_c, 1, 62, 127
1, 174563, Note_off_c, 1, 83, 0
1, 174563, Note_off_c, 1, 78, 0
1, 174563, Note_off_c, 1, 74, 0
1, 174563, Note_off_c, 1, 50, 0
1, 174563, Note_off_c, 1, 62, 0
1, 174570, Note_on_c, 1, 76, 127
1, 174570, Note_on_c, 1, 69, 127
1, 174570, Note_on_c, 1, 50, 127
1, 174570, Note_on_c, 1, 81, 127
1, 174570, Note_on_c, 1, 61, 127
1, 174593, Note_off_c, 1, 76, 0
1, 174593, Note_off_c, 1, 69, 0
1, 174593, Note_off_c, 1, 50, 0
1, 174593, Note_off_c, 1, 81, 0
1, 174593, Note_off_c, 1, 61, 0
1, 174600, Note_on_c, 1, 78, 127
1, 174600, Note_on_c, 1, 66, 127
1, 174600, Note_on_c, 1, 50, 127
1, 174600, Note_on_c, 1, 83, 127
1, 174600, Note_on_c, 1, 62, 127
1, 174630, Note_on_c, 1, 81, 127
1, 174647, Note_off_c, 1, 83, 0
1, 174647, Note_off_c, 1, 62, 0
1, 174648, Note_off_c, 1, 78, 0
1, 174648, Note_off_c, 1, 66, 0
1, 174648, Note_off_c, 1, 50, 0
1, 174653, Note_off_c, 1, 81, 0
1, 174660, Note_on_c, 1, 79, 127
1, 174660, Note_on_c, 1, 59, 127
1, 174683, Note_off_c, 1, 79, 0
1, 174690, Note_on_c, 1, 78, 127
1, 174707, Note_off_c, 1, 59, 0
1, 174713, Note_off_c, 1, 78, 0
1, 174720, Note_on_c, 1, 76, 127
1, 174720, Note_on_c, 1, 49, 127
1, 174731, Note_off_c, 1, 76, 0
1, 174767, Note_off_c, 1, 49, 0
1, 174780, Note_on_c, 1, 78, 127
1, 174780, Note_on_c, 1, 74, 127
1, 174780, Note_on_c, 1, 69, 127
1, 174780, Note_on_c, 1, 47, 127
1, 174803, Note_off_c, 1, 78, 0
1, 174804, Note_off_c, 1, 74, 0
1, 174804, Note_off_c, 1, 69, 0
1, 174810, Note_on_c, 1, 79, 127
1, 174827, Note_off_c, 1, 47, 0
1, 174833, Note_off_c, 1, 79, 0
1, 174840, Note_on_c, 1, 76, 127
1, 174840, Note_on_c, 1, 69, 127
1, 174840, Note_on_c, 1, 49, 127
1, 174864, Note_off_c, 1, 76, 0
1, 174864, Note_off_c, 1, 69, 0
1, 174887, Note_off_c, 1, 49, 0
1, 174900, Note_on_c, 1, 78, 127
1, 174900, Note_on_c, 1, 74, 127
1, 174900, Note_on_c, 1, 69, 127
1, 174900, Note_on_c, 1, 71, 127
1, 174900, Note_on_c, 1, 47, 127
1, 174923, Note_off_c, 1, 78, 0
1, 174924, Note_off_c, 1, 74, 0
1, 174924, Note_off_c, 1, 69, 0
1, 174924, Note_off_c, 1, 71, 0
1, 174930, Note_on_c, 1, 79, 127
1, 174947, Note_off_c, 1, 47, 0
1, 174953, Note_off_c, 1, 79, 0
1, 174960, Note_on_c, 1, 76, 127
1, 174960, Note_on_c, 1, 69, 127
1, 174960, Note_on_c, 1, 64, 127
1, 174960, Note_on_c, 1, 49, 127
1, 174984, Note_off_c, 1, 76, 0
1, 174984, Note_off_c, 1, 69, 0
1, 174984, Note_off_c, 1, 64, 0
1, 175007, Note_off_c, 1, 49, 0
1, 175020, Note_on_c, 1, 81, 127
1, 175020, Note_on_c, 1, 76, 127
1, 175020, Note_on_c, 1, 69, 127
1, 175020, Note_on_c, 1, 45, 127
1, 175020, Note_on_c, 1, 57, 127
1, 175020, Note_on_c, 1, 61, 127
1, 175043, Note_off_c, 1, 81, 0
1, 175043, Note_off_c, 1, 76, 0
1, 175043, Note_off_c, 1, 69, 0
1, 175043, Note_off_c, 1, 45, 0
1, 175043, Note_off_c, 1, 57, 0
1, 175043, Note_off_c, 1, 61, 0
1, 175050, Note_on_c, 1, 74, 127
1, 175050, Note_on_c, 1, 69, 127
1, 175050, Note_on_c, 1, 45, 127
1, 175050, Note_on_c, 1, 79, 127
1, 175050, Note_on_c, 1, 59, 127
1, 175073, Note_off_c, 1, 74, 0
1, 175073, Note_off_c, 1, 69, 0
1, 175073, Note_off_c, 1, 45, 0
1, 175073, Note_off_c, 1, 79, 0
1, 175073, Note_off_c, 1, 59, 0
1, 175080, Note_on_c, 1, 76, 127
1, 175080, Note_on_c, 1, 69, 127
1, 175080, Note_on_c, 1, 45, 127
1, 175080, Note_on_c, 1, 81, 127
1, 175080, Note_on_c, 1, 57, 127
1, 175080, Note_on_c, 1, 61, 127
1, 175110, Note_on_c, 1, 79, 127
1, 175127, Note_off_c, 1, 81, 0
1, 175127, Note_off_c, 1, 57, 0
1, 175127, Note_off_c, 1, 61, 0
1, 175128, Note_off_c, 1, 76, 0
1, 175128, Note_off_c, 1, 69, 0
1, 175128, Note_off_c, 1, 45, 0
1, 175133, Note_off_c, 1, 79, 0
1, 175140, Note_on_c, 1, 78, 127
1, 175140, Note_on_c, 1, 57, 127
1, 175163, Note_off_c, 1, 78, 0
1, 175170, Note_on_c, 1, 76, 127
1, 175187, Note_off_c, 1, 57, 0
1, 175193, Note_off_c, 1, 76, 0
1, 175200, Note_on_c, 1, 74, 127
1, 175200, Note_on_c, 1, 71, 127
1, 175200, Note_on_c, 1, 66, 127
1, 175200, Note_on_c, 1, 47, 127
1, 175230, Note_on_c, 1, 86, 127
1, 175247, Note_off_c, 1, 47, 0
1, 175253, Note_off_c, 1, 86, 0
1, 175260, Note_on_c, 1, 85, 127
1, 175260, Note_on_c, 1, 78, 127
1, 175260, Note_on_c, 1, 59, 127
1, 175283, Note_off_c, 1, 85, 0
1, 175290, Note_on_c, 1, 83, 127
1, 175307, Note_off_c, 1, 78, 0
1, 175307, Note_off_c, 1, 59, 0
1, 175313, Note_off_c, 1, 83, 0
1, 175320, Note_on_c, 1, 57, 127
1, 175367, Note_off_c, 1, 57, 0
1, 175380, Note_on_c, 1, 45, 127
1, 175391, Note_off_c, 1, 66, 0
1, 175410, Note_on_c, 1, 81, 127
1, 175427, Note_off_c, 1, 45, 0
1, 175433, Note_off_c, 1, 81, 0
1, 175440, Note_on_c, 1, 43, 127
1, 175487, Note_off_c, 1, 43, 0
1, 175500, Note_on_c, 1, 79, 127
1, 175500, Note_on_c, 1, 55, 127
1, 175547, Note_off_c, 1, 55, 0
1, 175553, Note_off_c, 1, 79, 0
1, 175560, Note_on_c, 1, 62, 127
1, 175560, Note_on_c, 1, 54, 127
1, 175607, Note_off_c, 1, 54, 0
1, 175620, Note_on_c, 1, 42, 127
1, 175632, Note_off_c, 1, 74, 0
1, 175632, Note_off_c, 1, 71, 0
1, 175655, Note_off_c, 1, 62, 0
1, 175667, Note_off_c, 1, 42, 0
1, 175680, Note_on_c, 1, 79, 127
1, 175680, Note_on_c, 1, 64, 127
1, 175680, Note_on_c, 1, 40, 127
1, 175703, Note_off_c, 1, 40, 0
1, 175710, Note_on_c, 1, 42, 127
1, 175727, Note_off_c, 1, 79, 0
1, 175727, Note_off_c, 1, 64, 0
1, 175733, Note_off_c, 1, 42, 0
1, 175740, Note_on_c, 1, 76, 127
1, 175740, Note_on_c, 1, 83, 127
1, 175740, Note_on_c, 1, 79, 127
1, 175740, Note_on_c, 1, 64, 127
1, 175740, Note_on_c, 1, 59, 127
1, 175740, Note_on_c, 1, 43, 127
1, 175763, Note_off_c, 1, 79, 0
1, 175763, Note_off_c, 1, 64, 0
1, 175763, Note_off_c, 1, 43, 0
1, 175770, Note_on_c, 1, 81, 127
1, 175770, Note_on_c, 1, 78, 127
1, 175770, Note_on_c, 1, 66, 127
1, 175770, Note_on_c, 1, 45, 127
1, 175787, Note_off_c, 1, 76, 0
1, 175787, Note_off_c, 1, 83, 0
1, 175787, Note_off_c, 1, 59, 0
1, 175793, Note_off_c, 1, 81, 0
1, 175793, Note_off_c, 1, 78, 0
1, 175793, Note_off_c, 1, 66, 0
1, 175793, Note_off_c, 1, 45, 0
1, 175800, Note_on_c, 1, 76, 127
1, 175800, Note_on_c, 1, 79, 127
1, 175800, Note_on_c, 1, 67, 127
1, 175800, Note_on_c, 1, 64, 127
1, 175800, Note_on_c, 1, 47, 127
1, 175823, Note_off_c, 1, 67, 0
1, 175823, Note_off_c, 1, 47, 0
1, 175830, Note_on_c, 1, 49, 127
1, 175847, Note_off_c, 1, 76, 0
1, 175847, Note_off_c, 1, 79, 0
1, 175853, Note_off_c, 1, 64, 0
1, 175853, Note_off_c, 1, 49, 0
1, 175860, Note_on_c, 1, 69, 127
1, 175860, Note_on_c, 1, 66, 127
1, 175860, Note_on_c, 1, 74, 127
1, 175860, Note_on_c, 1, 50, 127
1, 175883, Note_off_c, 1, 66, 0
1, 175883, Note_off_c, 1, 50, 0
1, 175890, Note_on_c, 1, 67, 127
1, 175890, Note_on_c, 1, 47, 127
1, 175907, Note_off_c, 1, 69, 0
1, 175907, Note_off_c, 1, 74, 0
1, 175913, Note_off_c, 1, 67, 0
1, 175913, Note_off_c, 1, 47, 0
1, 175920, Note_on_c, 1, 69, 127
1, 175920, Note_on_c, 1, 49, 127
1, 175943, Note_off_c, 1, 49, 0
1, 175950, Note_on_c, 1, 64, 127
1, 175950, Note_on_c, 1, 45, 127
1, 175967, Note_off_c, 1, 69, 0
1, 175973, Note_off_c, 1, 64, 0
1, 175973, Note_off_c, 1, 45, 0
1, 175980, Note_on_c, 1, 79, 127
1, 175980, Note_on_c, 1, 76, 127
1, 175980, Note_on_c, 1, 69, 127
1, 175980, Note_on_c, 1, 45, 127
1, 175980, Note_on_c, 1, 49, 127
1, 176003, Note_off_c, 1, 49, 0
1, 176004, Note_off_c, 1, 45, 0
1, 176010, Note_on_c, 1, 78, 127
1, 176010, Note_on_c, 1, 73, 127
1, 176010, Note_on_c, 1, 52, 127
1, 176027, Note_off_c, 1, 79, 0
1, 176033, Note_off_c, 1, 78, 0
1, 176033, Note_off_c, 1, 73, 0
1, 176033, Note_off_c, 1, 52, 0
1, 176034, Note_off_c, 1, 76, 0
1, 176034, Note_off_c, 1, 69, 0
1, 176040, Note_on_c, 1, 76, 127
1, 176040, Note_on_c, 1, 69, 127
1, 176040, Note_on_c, 1, 45, 127
1, 176040, Note_on_c, 1, 79, 127
1, 176040, Note_on_c, 1, 73, 127
1, 176040, Note_on_c, 1, 64, 127
1, 176040, Note_on_c, 1, 57, 127
1, 176087, Note_off_c, 1, 79, 0
1, 176087, Note_off_c, 1, 64, 0
1, 176087, Note_off_c, 1, 57, 0
1, 176088, Note_off_c, 1, 76, 0
1, 176088, Note_off_c, 1, 69, 0
1, 176088, Note_off_c, 1, 45, 0
1, 176093, Note_off_c, 1, 73, 0
1, 176100, Note_on_c, 1, 81, 127
1, 176100, Note_on_c, 1, 76, 127
1, 176100, Note_on_c, 1, 69, 127
1, 176100, Note_on_c, 1, 45, 127
1, 176100, Note_on_c, 1, 64, 127
1, 176100, Note_on_c, 1, 49, 127
1, 176147, Note_off_c, 1, 64, 0
1, 176147, Note_off_c, 1, 49, 0
1, 176148, Note_off_c, 1, 76, 0
1, 176148, Note_off_c, 1, 69, 0
1, 176148, Note_off_c, 1, 45, 0
1, 176153, Note_off_c, 1, 81, 0
1, 176160, Note_on_c, 1, 79, 127
1, 176160, Note_on_c, 1, 74, 127
1, 176160, Note_on_c, 1, 69, 127
1, 176160, Note_on_c, 1, 50, 127
1, 176160, Note_on_c, 1, 66, 127
1, 176183, Note_off_c, 1, 79, 0
1, 176190, Note_on_c, 1, 78, 127
1, 176207, Note_off_c, 1, 66, 0
1, 176208, Note_off_c, 1, 74, 0
1, 176208, Note_off_c, 1, 69, 0
1, 176208, Note_off_c, 1, 50, 0
1, 176213, Note_off_c, 1, 78, 0
1, 176220, Note_on_c, 1, 76, 127
1, 176220, Note_on_c, 1, 78, 127
1, 176220, Note_on_c, 1, 62, 127
1, 176220, Note_on_c, 1, 50, 127
1, 176220, Note_on_c, 1, 74, 127
1, 176220, Note_on_c, 1, 71, 127
1, 176220, Note_on_c, 1, 66, 127
1, 176220, Note_on_c, 1, 47, 127
1, 176243, Note_off_c, 1, 76, 0
1, 176244, Note_off_c, 1, 62, 0
1, 176244, Note_off_c, 1, 50, 0
1, 176267, Note_off_c, 1, 71, 0
1, 176267, Note_off_c, 1, 66, 0
1, 176267, Note_off_c, 1, 47, 0
1, 176268, Note_off_c, 1, 78, 0
1, 176273, Note_off_c, 1, 74, 0
1, 176280, Note_on_c, 1, 78, 127
1, 176280, Note_on_c, 1, 83, 127
1, 176280, Note_on_c, 1, 62, 127
1, 176280, Note_on_c, 1, 50, 127
1, 176280, Note_on_c, 1, 74, 127
1, 176280, Note_on_c, 1, 71, 127
1, 176280, Note_on_c, 1, 59, 127
1, 176280, Note_on_c, 1, 43, 127
1, 176327, Note_off_c, 1, 78, 0
1, 176327, Note_off_c, 1, 74, 0
1, 176327, Note_off_c, 1, 71, 0
1, 176327, Note_off_c, 1, 59, 0
1, 176327, Note_off_c, 1, 43, 0
1, 176328, Note_off_c, 1, 83, 0
1, 176328, Note_off_c, 1, 62, 0
1, 176328, Note_off_c, 1, 50, 0
1, 176340, Note_on_c, 1, 76, 127
1, 176340, Note_on_c, 1, 81, 127
1, 176340, Note_on_c, 1, 69, 127
1, 176340, Note_on_c, 1, 45, 127
1, 176340, Note_on_c, 1, 73, 127
1, 176340, Note_on_c, 1, 64, 127
1, 176364, Note_off_c, 1, 81, 0
1, 176370, Note_on_c, 1, 79, 127
1, 176387, Note_off_c, 1, 76, 0
1, 176387, Note_off_c, 1, 73, 0
1, 176387, Note_off_c, 1, 64, 0
1, 176388, Note_off_c, 1, 69, 0
1, 176388, Note_off_c, 1, 45, 0
1, 176394, Note_off_c, 1, 79, 0
1, 176400, Note_on_c, 1, 74, 127
1, 176400, Note_on_c, 1, 78, 127
1, 176400, Note_on_c, 1, 62, 127
1, 176400, Note_on_c, 1, 50, 127
1, 176400, Note_on_c, 1, 66, 127
1, 176400, Note_on_c, 1, 71, 127
1, 176400, Note_on_c, 1, 47, 127
1, 176447, Note_off_c, 1, 66, 0
1, 176447, Note_off_c, 1, 71, 0
1, 176447, Note_off_c, 1, 47, 0
1, 176448, Note_off_c, 1, 78, 0
1, 176448, Note_off_c, 1, 62, 0
1, 176448, Note_off_c, 1, 50, 0
1, 176460, Note_on_c, 1, 86, 127
1, 176460, Note_on_c, 1, 59, 127
1, 176483, Note_off_c, 1, 86, 0
1, 176483, Note_off_c, 1, 59, 0
1, 176490, Note_on_c, 1, 85, 127
1, 176490, Note_on_c, 1, 57, 127
1, 176513, Note_off_c, 1, 85, 0
1, 176513, Note_off_c, 1, 57, 0
1, 176519, Note_off_c, 1, 74, 0
1, 176520, Note_on_c, 1, 86, 127
1, 176520, Note_on_c, 1, 59, 127
1, 176550, Note_on_c, 1, 76, 127
1, 176561, Note_off_c, 1, 76, 0
1, 176565, Note_on_c, 1, 78, 127
1, 176567, Note_off_c, 1, 86, 0
1, 176567, Note_off_c, 1, 59, 0
1, 176576, Note_off_c, 1, 78, 0
1, 176580, Note_on_c, 1, 79, 127
1, 176580, Note_on_c, 1, 74, 127
1, 176580, Note_on_c, 1, 71, 127
1, 176580, Note_on_c, 1, 47, 127
1, 176610, Note_on_c, 1, 78, 127
1, 176621, Note_off_c, 1, 78, 0
1, 176625, Note_on_c, 1, 76, 127
1, 176627, Note_off_c, 1, 79, 0
1, 176627, Note_off_c, 1, 74, 0
1, 176627, Note_off_c, 1, 71, 0
1, 176627, Note_off_c, 1, 47, 0
1, 176636, Note_off_c, 1, 76, 0
1, 176640, Note_on_c, 1, 74, 127
1, 176640, Note_on_c, 1, 81, 127
1, 176640, Note_on_c, 1, 66, 127
1, 176640, Note_on_c, 1, 50, 127
1, 176640, Note_on_c, 1, 69, 127
1, 176640, Note_on_c, 1, 42, 127
1, 176687, Note_off_c, 1, 69, 0
1, 176687, Note_off_c, 1, 42, 0
1, 176688, Note_off_c, 1, 81, 0
1, 176688, Note_off_c, 1, 66, 0
1, 176688, Note_off_c, 1, 50, 0
1, 176700, Note_on_c, 1, 54, 127
1, 176723, Note_off_c, 1, 54, 0
1, 176730, Note_on_c, 1, 79, 127
1, 176730, Note_on_c, 1, 52, 127
1, 176753, Note_off_c, 1, 79, 0
1, 176753, Note_off_c, 1, 52, 0
1, 176759, Note_off_c, 1, 74, 0
1, 176760, Note_on_c, 1, 81, 127
1, 176760, Note_on_c, 1, 54, 127
1, 176790, Note_on_c, 1, 76, 127
1, 176801, Note_off_c, 1, 76, 0
1, 176805, Note_on_c, 1, 78, 127
1, 176807, Note_off_c, 1, 81, 0
1, 176807, Note_off_c, 1, 54, 0
1, 176816, Note_off_c, 1, 78, 0
1, 176820, Note_on_c, 1, 79, 127
1, 176820, Note_on_c, 1, 74, 127
1, 176820, Note_on_c, 1, 81, 127
1, 176820, Note_on_c, 1, 72, 127
1, 176820, Note_on_c, 1, 69, 127
1, 176820, Note_on_c, 1, 50, 127
1, 176843, Note_off_c, 1, 79, 0
1, 176850, Note_on_c, 1, 78, 127
1, 176861, Note_off_c, 1, 78, 0
1, 176865, Note_on_c, 1, 76, 127
1, 176867, Note_off_c, 1, 74, 0
1, 176867, Note_off_c, 1, 81, 0
1, 176867, Note_off_c, 1, 72, 0
1, 176867, Note_off_c, 1, 69, 0
1, 176867, Note_off_c, 1, 50, 0
1, 176876, Note_off_c, 1, 76, 0
1, 176880, Note_on_c, 1, 74, 127
1, 176880, Note_on_c, 1, 83, 127
1, 176880, Note_on_c, 1, 79, 127
1, 176880, Note_on_c, 1, 71, 127
1, 176880, Note_on_c, 1, 67, 127
1, 176880, Note_on_c, 1, 55, 127
1, 176903, Note_off_c, 1, 74, 0
1, 176910, Note_on_c, 1, 76, 127
1, 176921, Note_off_c, 1, 76, 0
1, 176925, Note_on_c, 1, 78, 127
1, 176927, Note_off_c, 1, 83, 0
1, 176927, Note_off_c, 1, 79, 0
1, 176927, Note_off_c, 1, 71, 0
1, 176927, Note_off_c, 1, 67, 0
1, 176927, Note_off_c, 1, 55, 0
1, 176936, Note_off_c, 1, 78, 0
1, 176940, Note_on_c, 1, 79, 127
1, 176940, Note_on_c, 1, 43, 127
1, 176963, Note_off_c, 1, 79, 0
1, 176970, Note_on_c, 1, 78, 127
1, 176981, Note_off_c, 1, 78, 0
1, 176985, Note_on_c, 1, 76, 127
1, 176987, Note_off_c, 1, 43, 0
1, 176996, Note_off_c, 1, 76, 0
1, 177000, Note_on_c, 1, 74, 127
1, 177000, Note_on_c, 1, 81, 127
1, 177000, Note_on_c, 1, 69, 127
1, 177000, Note_on_c, 1, 42, 127
1, 177030, Note_on_c, 1, 76, 127
1, 177041, Note_off_c, 1, 76, 0
1, 177045, Note_on_c, 1, 78, 127
1, 177047, Note_off_c, 1, 74, 0
1, 177047, Note_off_c, 1, 81, 0
1, 177047, Note_off_c, 1, 69, 0
1, 177047, Note_off_c, 1, 42, 0
1, 177056, Note_off_c, 1, 78, 0
1, 177060, Note_on_c, 1, 79, 127
1, 177060, Note_on_c, 1, 54, 127
1, 177083, Note_off_c, 1, 79, 0
1, 177090, Note_on_c, 1, 78, 127
1, 177101, Note_off_c, 1, 78, 0
1, 177105, Note_on_c, 1, 76, 127
1, 177107, Note_off_c, 1, 54, 0
1, 177116, Note_off_c, 1, 76, 0
1, 177120, Note_on_c, 1, 74, 127
1, 177120, Note_on_c, 1, 80, 127
1, 177120, Note_on_c, 1, 76, 127
1, 177120, Note_on_c, 1, 71, 127
1, 177120, Note_on_c, 1, 52, 127
1, 177167, Note_off_c, 1, 74, 0
1, 177167, Note_off_c, 1, 80, 0
1, 177167, Note_off_c, 1, 76, 0
1, 177167, Note_off_c, 1, 71, 0
1, 177167, Note_off_c, 1, 52, 0
1, 177180, Note_on_c, 1, 80, 127
1, 177180, Note_on_c, 1, 74, 127
1, 177180, Note_on_c, 1, 40, 127
1, 177203, Note_off_c, 1, 80, 0
1, 177203, Note_off_c, 1, 74, 0
1, 177210, Note_on_c, 1, 73, 127
1, 177227, Note_off_c, 1, 40, 0
1, 177233, Note_off_c, 1, 73, 0
1, 177240, Note_on_c, 1, 71, 127
1, 177240, Note_on_c, 1, 68, 127
1, 177240, Note_on_c, 1, 76, 127
1, 177240, Note_on_c, 1, 38, 127
1, 177270, Note_on_c, 1, 83, 127
1, 177287, Note_off_c, 1, 71, 0
1, 177287, Note_off_c, 1, 68, 0
1, 177287, Note_off_c, 1, 76, 0
1, 177287, Note_off_c, 1, 38, 0
1, 177293, Note_off_c, 1, 83, 0
1, 177300, Note_on_c, 1, 81, 127
1, 177300, Note_on_c, 1, 83, 127
1, 177300, Note_on_c, 1, 50, 127
1, 177323, Note_off_c, 1, 81, 0
1, 177330, Note_on_c, 1, 80, 127
1, 177347, Note_off_c, 1, 83, 0
1, 177347, Note_off_c, 1, 50, 0
1, 177353, Note_off_c, 1, 80, 0
1, 177360, Note_on_c, 1, 81, 127
1, 177360, Note_on_c, 1, 64, 127
1, 177360, Note_on_c, 1, 76, 127
1, 177360, Note_on_c, 1, 49, 127
1, 177383, Note_off_c, 1, 49, 0
1, 177390, Note_on_c, 1, 62, 127
1, 177407, Note_off_c, 1, 81, 0
1, 177407, Note_off_c, 1, 64, 0
1, 177407, Note_off_c, 1, 76, 0
1, 177413, Note_off_c, 1, 62, 0
1, 177420, Note_on_c, 1, 69, 127
1, 177420, Note_on_c, 1, 61, 127
1, 177443, Note_off_c, 1, 61, 0
1, 177450, Note_on_c, 1, 71, 127
1, 177450, Note_on_c, 1, 59, 127
1, 177467, Note_off_c, 1, 69, 0
1, 177473, Note_off_c, 1, 71, 0
1, 177473, Note_off_c, 1, 59, 0
1, 177480, Note_on_c, 1, 73, 127
1, 177480, Note_on_c, 1, 76, 127
1, 177480, Note_on_c, 1, 69, 127
1, 177480, Note_on_c, 1, 57, 127
1, 177503, Note_off_c, 1, 57, 0
1, 177510, Note_on_c, 1, 55, 127
1, 177527, Note_off_c, 1, 73, 0
1, 177527, Note_off_c, 1, 76, 0
1, 177527, Note_off_c, 1, 69, 0
1, 177533, Note_off_c, 1, 55, 0
1, 177540, Note_on_c, 1, 79, 127
1, 177540, Note_on_c, 1, 54, 127
1, 177563, Note_off_c, 1, 54, 0
1, 177570, Note_on_c, 1, 52, 127
1, 177587, Note_off_c, 1, 79, 0
1, 177593, Note_off_c, 1, 52, 0
1, 177600, Note_on_c, 1, 78, 127
1, 177600, Note_on_c, 1, 69, 127
1, 177600, Note_on_c, 1, 50, 127
1, 177623, Note_off_c, 1, 50, 0
1, 177630, Note_on_c, 1, 49, 127
1, 177647, Note_off_c, 1, 78, 0
1, 177647, Note_off_c, 1, 69, 0
1, 177653, Note_off_c, 1, 49, 0
1, 177660, Note_on_c, 1, 86, 127
1, 177660, Note_on_c, 1, 78, 127
1, 177660, Note_on_c, 1, 74, 127
1, 177660, Note_on_c, 1, 50, 127
1, 177660, Note_on_c, 1, 71, 127
1, 177660, Note_on_c, 1, 47, 127
1, 177683, Note_off_c, 1, 47, 0
1, 177684, Note_off_c, 1, 50, 0
1, 177690, Note_on_c, 1, 45, 127
1, 177707, Note_off_c, 1, 86, 0
1, 177707, Note_off_c, 1, 71, 0
1, 177708, Note_off_c, 1, 78, 0
1, 177708, Note_off_c, 1, 74, 0
1, 177713, Note_off_c, 1, 45, 0
1, 177720, Note_on_c, 1, 76, 127
1, 177720, Note_on_c, 1, 83, 127
1, 177720, Note_on_c, 1, 79, 127
1, 177720, Note_on_c, 1, 50, 127
1, 177720, Note_on_c, 1, 64, 127
1, 177720, Note_on_c, 1, 43, 127
1, 177767, Note_off_c, 1, 76, 0
1, 177767, Note_off_c, 1, 64, 0
1, 177767, Note_off_c, 1, 43, 0
1, 177768, Note_off_c, 1, 83, 0
1, 177768, Note_off_c, 1, 79, 0
1, 177768, Note_off_c, 1, 50, 0
1, 177780, Note_on_c, 1, 85, 127
1, 177780, Note_on_c, 1, 81, 127
1, 177780, Note_on_c, 1, 76, 127
1, 177780, Note_on_c, 1, 45, 127
1, 177780, Note_on_c, 1, 69, 127
1, 177827, Note_off_c, 1, 85, 0
1, 177827, Note_off_c, 1, 69, 0
1, 177828, Note_off_c, 1, 81, 0
1, 177828, Note_off_c, 1, 76, 0
1, 177828, Note_off_c, 1, 45, 0
1, 177840, Note_on_c, 1, 86, 127
1, 177840, Note_on_c, 1, 81, 127
1, 177840, Note_on_c, 1, 78, 127
1, 177840, Note_on_c, 1, 50, 127
1, 177840, Note_on_c, 1, 74, 127
1, 177840, Note_on_c, 1, 69, 127
1, 177840, Note_on_c, 1, 38, 127
1, 177887, Note_off_c, 1, 38, 0
1, 177930, Note_on_c, 1, 52, 127
1, 177935, Note_off_c, 1, 86, 0
1, 177935, Note_off_c, 1, 81, 0
1, 177935, Note_off_c, 1, 78, 0
1, 177935, Note_off_c, 1, 50, 0
1, 177935, Note_off_c, 1, 74, 0
1, 177935, Note_off_c, 1, 69, 0
1, 177953, Note_off_c, 1, 52, 0
1, 177960, Note_on_c, 1, 66, 127
1, 177960, Note_on_c, 1, 62, 127
1, 177960, Note_on_c, 1, 57, 127
1, 177960, Note_on_c, 1, 50, 127
1, 177990, Note_on_c, 1, 48, 127
1, 178013, Note_off_c, 1, 48, 0
1, 178020, Note_on_c, 1, 67, 127
1, 178020, Note_on_c, 1, 47, 127
1, 178043, Note_off_c, 1, 67, 0
1, 178043, Note_off_c, 1, 47, 0
1, 178050, Note_on_c, 1, 69, 127
1, 178050, Note_on_c, 1, 45, 127
1, 178073, Note_off_c, 1, 69, 0
1, 178073, Note_off_c, 1, 45, 0
1, 178079, Note_off_c, 1, 66, 0
1, 178079, Note_off_c, 1, 62, 0
1, 178079, Note_off_c, 1, 57, 0
1, 178079, Note_off_c, 1, 50, 0
1, 178080, Note_on_c, 1, 71, 127
1, 178080, Note_on_c, 1, 62, 127
1, 178080, Note_on_c, 1, 59, 127
1, 178080, Note_on_c, 1, 55, 127
1, 178080, Note_on_c, 1, 43, 127
1, 178127, Note_off_c, 1, 43, 0
1, 178139, Note_off_c, 1, 62, 0
1, 178139, Note_off_c, 1, 59, 0
1, 178140, Note_on_c, 1, 69, 127
1, 178140, Note_on_c, 1, 64, 127
1, 178140, Note_on_c, 1, 61, 127
1, 178163, Note_off_c, 1, 69, 0
1, 178170, Note_on_c, 1, 67, 127
1, 178193, Note_off_c, 1, 67, 0
1, 178199, Note_off_c, 1, 71, 0
1, 178199, Note_off_c, 1, 55, 0
1, 178199, Note_off_c, 1, 64, 0
1, 178199, Note_off_c, 1, 61, 0
1, 178200, Note_on_c, 1, 69, 127
1, 178200, Note_on_c, 1, 62, 127
1, 178200, Note_on_c, 1, 66, 127
1, 178200, Note_on_c, 1, 54, 127
1, 178260, Note_on_c, 1, 67, 127
1, 178260, Note_on_c, 1, 42, 127
1, 178283, Note_off_c, 1, 67, 0
1, 178307, Note_off_c, 1, 42, 0
1, 178319, Note_off_c, 1, 69, 0
1, 178319, Note_off_c, 1, 62, 0
1, 178319, Note_off_c, 1, 66, 0
1, 178319, Note_off_c, 1, 54, 0
1, 178320, Note_on_c, 1, 67, 127
1, 178320, Note_on_c, 1, 62, 127
1, 178320, Note_on_c, 1, 59, 127
1, 178320, Note_on_c, 1, 55, 127
1, 178320, Note_on_c, 1, 47, 127
1, 178332, Note_off_c, 1, 62, 0
1, 178367, Note_off_c, 1, 47, 0
1, 178380, Note_on_c, 1, 66, 127
1, 178380, Note_on_c, 1, 61, 127
1, 178403, Note_off_c, 1, 66, 0
1, 178410, Note_on_c, 1, 64, 127
1, 178433, Note_off_c, 1, 64, 0
1, 178439, Note_off_c, 1, 67, 0
1, 178439, Note_off_c, 1, 59, 0
1, 178439, Note_off_c, 1, 55, 0
1, 178439, Note_off_c, 1, 61, 0
1, 178440, Note_on_c, 1, 66, 127
1, 178440, Note_on_c, 1, 62, 127
1, 178440, Note_on_c, 1, 57, 127
1, 178500, Note_on_c, 1, 64, 127
1, 178500, Note_on_c, 1, 45, 127
1, 178523, Note_off_c, 1, 64, 0
1, 178547, Note_off_c, 1, 45, 0
1, 178559, Note_off_c, 1, 66, 0
1, 178559, Note_off_c, 1, 62, 0
1, 178559, Note_off_c, 1, 57, 0
1, 178560, Note_on_c, 1, 64, 127
1, 178560, Note_on_c, 1, 62, 127
1, 178560, Note_on_c, 1, 59, 127
1, 178560, Note_on_c, 1, 55, 127
1, 178560, Note_on_c, 1, 43, 127
1, 178590, Note_on_c, 1, 74, 127
1, 178607, Note_off_c, 1, 43, 0
1, 178613, Note_off_c, 1, 74, 0
1, 178619, Note_off_c, 1, 59, 0
1, 178620, Note_on_c, 1, 73, 127
1, 178643, Note_off_c, 1, 73, 0
1, 178650, Note_on_c, 1, 71, 127
1, 178673, Note_off_c, 1, 71, 0
1, 178679, Note_off_c, 1, 62, 0
1, 178679, Note_off_c, 1, 55, 0
1, 178680, Note_on_c, 1, 69, 127
1, 178680, Note_on_c, 1, 61, 127
1, 178680, Note_on_c, 1, 52, 127
1, 178680, Note_on_c, 1, 57, 127
1, 178703, Note_off_c, 1, 69, 0
1, 178710, Note_on_c, 1, 67, 127
1, 178733, Note_off_c, 1, 67, 0
1, 178739, Note_off_c, 1, 52, 0
1, 178740, Note_on_c, 1, 81, 127
1, 178740, Note_on_c, 1, 66, 127
1, 178740, Note_on_c, 1, 45, 127
1, 178763, Note_off_c, 1, 81, 0
1, 178763, Note_off_c, 1, 66, 0
1, 178770, Note_on_c, 1, 79, 127
1, 178787, Note_off_c, 1, 45, 0
1, 178793, Note_off_c, 1, 79, 0
1, 178799, Note_off_c, 1, 64, 0
1, 178799, Note_off_c, 1, 61, 0
1, 178799, Note_off_c, 1, 57, 0
1, 178800, Note_on_c, 1, 78, 127
1, 178800, Note_on_c, 1, 66, 127
1, 178800, Note_on_c, 1, 62, 127
1, 178800, Note_on_c, 1, 57, 127
1, 178800, Note_on_c, 1, 50, 127
1, 178823, Note_off_c, 1, 78, 0
1, 178830, Note_on_c, 1, 76, 127
1, 178853, Note_off_c, 1, 76, 0
1, 178860, Note_on_c, 1, 74, 127
1, 178860, Note_on_c, 1, 54, 127
1, 178883, Note_off_c, 1, 74, 0
1, 178883, Note_off_c, 1, 54, 0
1, 178890, Note_on_c, 1, 52, 127
1, 178913, Note_off_c, 1, 52, 0
1, 178919, Note_off_c, 1, 66, 0
1, 178919, Note_off_c, 1, 62, 0
1, 178919, Note_off_c, 1, 57, 0
1, 178919, Note_off_c, 1, 50, 0
1, 178920, Note_on_c, 1, 78, 127
1, 178920, Note_on_c, 1, 50, 127
1, 178943, Note_off_c, 1, 78, 0
1, 178950, Note_on_c, 1, 79, 127
1, 178967, Note_off_c, 1, 50, 0
1, 178973, Note_off_c, 1, 79, 0
1, 178980, Note_on_c, 1, 78, 127
1, 178980, Note_on_c, 1, 66, 127
1, 178980, Note_on_c, 1, 49, 127
1, 179003, Note_off_c, 1, 78, 0
1, 179010, Note_on_c, 1, 79, 127
1, 179027, Note_off_c, 1, 66, 0
1, 179027, Note_off_c, 1, 49, 0
1, 179033, Note_off_c, 1, 79, 0
1, 179040, Note_on_c, 1, 78, 127
1, 179040, Note_on_c, 1, 71, 127
1, 179040, Note_on_c, 1, 47, 127
1, 179063, Note_off_c, 1, 71, 0
1, 179070, Note_on_c, 1, 73, 127
1, 179093, Note_off_c, 1, 73, 0
1, 179100, Note_on_c, 1, 74, 127
1, 179100, Note_on_c, 1, 59, 127
1, 179123, Note_off_c, 1, 74, 0
1, 179135, Note_off_c, 1, 47, 0
1, 179148, Note_off_c, 1, 59, 0
1, 179190, Note_on_c, 1, 66, 127
1, 179213, Note_off_c, 1, 66, 0
1, 179220, Note_on_c, 1, 68, 127
1, 179243, Note_off_c, 1, 68, 0
1, 179250, Note_on_c, 1, 70, 127
1, 179273, Note_off_c, 1, 70, 0
1, 179340, Note_on_c, 1, 62, 127
1, 179364, Note_off_c, 1, 62, 0
1, 179490, Note_on_c, 1, 76, 127
1, 179513, Note_off_c, 1, 76, 0
1, 179610, Note_on_c, 1, 46, 127
1, 179633, Note_off_c, 1, 46, 0
1, 179640, Note_on_c, 1, 54, 127
1, 179670, Note_on_c, 1, 49, 127
1, 179687, Note_off_c, 1, 54, 0
1, 179693, Note_off_c, 1, 49, 0
1, 179700, Note_on_c, 1, 50, 127
1, 179712, Note_off_c, 1, 78, 0
1, 179723, Note_off_c, 1, 50, 0
1, 179730, Note_on_c, 1, 52, 127
1, 179753, Note_off_c, 1, 52, 0
1, 179760, Note_on_c, 1, 74, 127
1, 179760, Note_on_c, 1, 71, 127
1, 179760, Note_on_c, 1, 66, 127
1, 179760, Note_on_c, 1, 54, 127
1, 179783, Note_off_c, 1, 54, 0
1, 179790, Note_on_c, 1, 52, 127
1, 179807, Note_off_c, 1, 74, 0
1, 179807, Note_off_c, 1, 71, 0
1, 179807, Note_off_c, 1, 66, 0
1, 179813, Note_off_c, 1, 52, 0
1, 179820, Note_on_c, 1, 73, 127
1, 179820, Note_on_c, 1, 70, 127
1, 179820, Note_on_c, 1, 54, 127
1, 179850, Note_on_c, 1, 55, 127
1, 179867, Note_off_c, 1, 73, 0
1, 179867, Note_off_c, 1, 70, 0
1, 179867, Note_off_c, 1, 54, 0
1, 179873, Note_off_c, 1, 55, 0
1, 179880, Note_on_c, 1, 73, 127
1, 179880, Note_on_c, 1, 70, 127
1, 179880, Note_on_c, 1, 66, 127
1, 179880, Note_on_c, 1, 54, 127
1, 179910, Note_on_c, 1, 52, 127
1, 179933, Note_off_c, 1, 52, 0
1, 179940, Note_on_c, 1, 71, 127
1, 179940, Note_on_c, 1, 50, 127
1, 179963, Note_off_c, 1, 71, 0
1, 179963, Note_off_c, 1, 50, 0
1, 179970, Note_on_c, 1, 49, 127
1, 179993, Note_off_c, 1, 49, 0
1, 179999, Note_off_c, 1, 73, 0
1, 179999, Note_off_c, 1, 70, 0
1, 179999, Note_off_c, 1, 66, 0
1, 179999, Note_off_c, 1, 54, 0
1, 180000, Note_on_c, 1, 74, 127
1, 180000, Note_on_c, 1, 71, 127
1, 180000, Note_on_c, 1, 66, 127
1, 180000, Note_on_c, 1, 59, 127
1, 180000, Note_on_c, 1, 47, 127
1, 180047, Note_off_c, 1, 47, 0
1, 180059, Note_off_c, 1, 59, 0
1, 180060, Note_on_c, 1, 73, 127
1, 180060, Note_on_c, 1, 54, 127
1, 180083, Note_off_c, 1, 73, 0
1, 180119, Note_off_c, 1, 74, 0
1, 180119, Note_off_c, 1, 71, 0
1, 180119, Note_off_c, 1, 66, 0
1, 180119, Note_off_c, 1, 54, 0
1, 180120, Note_on_c, 1, 74, 127
1, 180120, Note_on_c, 1, 71, 127
1, 180120, Note_on_c, 1, 62, 127
1, 180120, Note_on_c, 1, 55, 127
1, 180179, Note_off_c, 1, 62, 0
1, 180179, Note_off_c, 1, 55, 0
1, 180180, Note_on_c, 1, 73, 127
1, 180180, Note_on_c, 1, 66, 127
1, 180180, Note_on_c, 1, 50, 127
1, 180203, Note_off_c, 1, 73, 0
1, 180239, Note_off_c, 1, 74, 0
1, 180239, Note_off_c, 1, 71, 0
1, 180239, Note_off_c, 1, 66, 0
1, 180239, Note_off_c, 1, 50, 0
1, 180240, Note_on_c, 1, 73, 127
1, 180240, Note_on_c, 1, 71, 127
1, 180240, Note_on_c, 1, 67, 127
1, 180240, Note_on_c, 1, 52, 127
1, 180299, Note_off_c, 1, 67, 0
1, 180299, Note_off_c, 1, 52, 0
1, 180300, Note_on_c, 1, 79, 127
1, 180300, Note_on_c, 1, 64, 127
1, 180300, Note_on_c, 1, 49, 127
1, 180324, Note_off_c, 1, 79, 0
1, 180329, Note_off_c, 1, 73, 0
1, 180330, Note_on_c, 1, 74, 127
1, 180344, Note_off_c, 1, 74, 0
1, 180345, Note_on_c, 1, 76, 127
1, 180359, Note_off_c, 1, 71, 0
1, 180359, Note_off_c, 1, 64, 0
1, 180359, Note_off_c, 1, 49, 0
1, 180359, Note_off_c, 1, 76, 0
1, 180360, Note_on_c, 1, 73, 127
1, 180360, Note_on_c, 1, 70, 127
1, 180360, Note_on_c, 1, 66, 127
1, 180360, Note_on_c, 1, 54, 127
1, 180390, Note_on_c, 1, 79, 127
1, 180413, Note_off_c, 1, 79, 0
1, 180419, Note_off_c, 1, 66, 0
1, 180420, Note_on_c, 1, 78, 127
1, 180420, Note_on_c, 1, 61, 127
1, 180420, Note_on_c, 1, 42, 127
1, 180443, Note_off_c, 1, 78, 0
1, 180450, Note_on_c, 1, 76, 127
1, 180467, Note_off_c, 1, 42, 0
1, 180473, Note_off_c, 1, 76, 0
1, 180479, Note_off_c, 1, 73, 0
1, 180479, Note_off_c, 1, 70, 0
1, 180479, Note_off_c, 1, 54, 0
1, 180479, Note_off_c, 1, 61, 0
1, 180480, Note_on_c, 1, 71, 127
1, 180480, Note_on_c, 1, 74, 127
1, 180480, Note_on_c, 1, 66, 127
1, 180480, Note_on_c, 1, 62, 127
1, 180480, Note_on_c, 1, 47, 127
1, 180492, Note_off_c, 1, 74, 0
1, 180540, Note_on_c, 1, 76, 127
1, 180540, Note_on_c, 1, 54, 127
1, 180563, Note_off_c, 1, 76, 0
1, 180570, Note_on_c, 1, 78, 127
1, 180587, Note_off_c, 1, 54, 0
1, 180593, Note_off_c, 1, 78, 0
1, 180599, Note_off_c, 1, 66, 0
1, 180599, Note_off_c, 1, 62, 0
1, 180599, Note_off_c, 1, 47, 0
1, 180600, Note_on_c, 1, 59, 127
1, 180647, Note_off_c, 1, 59, 0
1, 180720, Note_on_c, 1, 55, 127
1, 180767, Note_off_c, 1, 71, 0
1, 180767, Note_off_c, 1, 55, 0
1, 180780, Note_on_c, 1, 83, 127
1, 180780, Note_on_c, 1, 61, 127
1, 180780, Note_on_c, 1, 52, 127
1, 180804, Note_off_c, 1, 83, 0
1, 180804, Note_off_c, 1, 61, 0
1, 180810, Note_on_c, 1, 59, 127
1, 180827, Note_off_c, 1, 52, 0
1, 180833, Note_off_c, 1, 59, 0
1, 180840, Note_on_c, 1, 61, 127
1, 180840, Note_on_c, 1, 57, 127
1, 180863, Note_off_c, 1, 57, 0
1, 180870, Note_on_c, 1, 83, 127
1, 180870, Note_on_c, 1, 55, 127
1, 180893, Note_off_c, 1, 83, 0
1, 180893, Note_off_c, 1, 55, 0
1, 180900, Note_on_c, 1, 69, 127
1, 180900, Note_on_c, 1, 81, 127
1, 180900, Note_on_c, 1, 54, 127
1, 180911, Note_off_c, 1, 61, 0
1, 180923, Note_off_c, 1, 81, 0
1, 180923, Note_off_c, 1, 54, 0
1, 180930, Note_on_c, 1, 79, 127
1, 180930, Note_on_c, 1, 62, 127
1, 180930, Note_on_c, 1, 52, 127
1, 180947, Note_off_c, 1, 69, 0
1, 180953, Note_off_c, 1, 79, 0
1, 180953, Note_off_c, 1, 62, 0
1, 180953, Note_off_c, 1, 52, 0
1, 180960, Note_on_c, 1, 74, 127
1, 180960, Note_on_c, 1, 78, 127
1, 180960, Note_on_c, 1, 62, 127
1, 180960, Note_on_c, 1, 50, 127
1, 180983, Note_off_c, 1, 74, 0
1, 180990, Note_on_c, 1, 76, 127
1, 181007, Note_off_c, 1, 78, 0
1, 181007, Note_off_c, 1, 62, 0
1, 181007, Note_off_c, 1, 50, 0
1, 181013, Note_off_c, 1, 76, 0
1, 181020, Note_on_c, 1, 78, 127
1, 181020, Note_on_c, 1, 38, 127
1, 181043, Note_off_c, 1, 78, 0
1, 181050, Note_on_c, 1, 76, 127
1, 181067, Note_off_c, 1, 38, 0
1, 181073, Note_off_c, 1, 76, 0
1, 181080, Note_on_c, 1, 74, 127
1, 181110, Note_on_c, 1, 69, 127
1, 181127, Note_off_c, 1, 74, 0
1, 181133, Note_off_c, 1, 69, 0
1, 181140, Note_on_c, 1, 69, 127
1, 181140, Note_on_c, 1, 71, 127
1, 181163, Note_off_c, 1, 69, 0
1, 181163, Note_off_c, 1, 71, 0
1, 181170, Note_on_c, 1, 73, 127
1, 181193, Note_off_c, 1, 73, 0
1, 181200, Note_on_c, 1, 69, 127
1, 181200, Note_on_c, 1, 74, 127
1, 181223, Note_off_c, 1, 69, 0
1, 181223, Note_off_c, 1, 74, 0
1, 181230, Note_on_c, 1, 69, 127
1, 181253, Note_off_c, 1, 69, 0
1, 181260, Note_on_c, 1, 66, 127
1, 181260, Note_on_c, 1, 74, 127
1, 181260, Note_on_c, 1, 71, 127
1, 181283, Note_off_c, 1, 66, 0
1, 181283, Note_off_c, 1, 74, 0
1, 181283, Note_off_c, 1, 71, 0
1, 181290, Note_on_c, 1, 76, 127
1, 181290, Note_on_c, 1, 73, 127
1, 181313, Note_off_c, 1, 76, 0
1, 181313, Note_off_c, 1, 73, 0
1, 181320, Note_on_c, 1, 66, 127
1, 181320, Note_on_c, 1, 78, 127
1, 181320, Note_on_c, 1, 74, 127
1, 181343, Note_off_c, 1, 66, 0
1, 181343, Note_off_c, 1, 78, 0
1, 181343, Note_off_c, 1, 74, 0
1, 181350, Note_on_c, 1, 74, 127
1, 181350, Note_on_c, 1, 69, 127
1, 181373, Note_off_c, 1, 74, 0
1, 181373, Note_off_c, 1, 69, 0
1, 181380, Note_on_c, 1, 62, 127
1, 181380, Note_on_c, 1, 78, 127
1, 181380, Note_on_c, 1, 74, 127
1, 181403, Note_off_c, 1, 62, 0
1, 181403, Note_off_c, 1, 78, 0
1, 181403, Note_off_c, 1, 74, 0
1, 181410, Note_on_c, 1, 79, 127
1, 181410, Note_on_c, 1, 76, 127
1, 181433, Note_off_c, 1, 79, 0
1, 181433, Note_off_c, 1, 76, 0
1, 181440, Note_on_c, 1, 62, 127
1, 181440, Note_on_c, 1, 81, 127
1, 181440, Note_on_c, 1, 78, 127
1, 181463, Note_off_c, 1, 62, 0
1, 181487, Note_off_c, 1, 81, 0
1, 181487, Note_off_c, 1, 78, 0
1, 181500, Note_on_c, 1, 81, 127
1, 181500, Note_on_c, 1, 78, 127
1, 181500, Note_on_c, 1, 69, 127
1, 181500, Note_on_c, 1, 50, 127
1, 181530, Note_on_c, 1, 49, 127
1, 181547, Note_off_c, 1, 81, 0
1, 181547, Note_off_c, 1, 78, 0
1, 181547, Note_off_c, 1, 69, 0
1, 181547, Note_off_c, 1, 50, 0
1, 181553, Note_off_c, 1, 49, 0
1, 181560, Note_on_c, 1, 79, 127
1, 181560, Note_on_c, 1, 76, 127
1, 181560, Note_on_c, 1, 69, 127
1, 181560, Note_on_c, 1, 45, 127
1, 181560, Note_on_c, 1, 50, 127
1, 181583, Note_off_c, 1, 50, 0
1, 181590, Note_on_c, 1, 52, 127
1, 181607, Note_off_c, 1, 79, 0
1, 181607, Note_off_c, 1, 76, 0
1, 181607, Note_off_c, 1, 69, 0
1, 181607, Note_off_c, 1, 45, 0
1, 181613, Note_off_c, 1, 52, 0
1, 181620, Note_on_c, 1, 78, 127
1, 181620, Note_on_c, 1, 74, 127
1, 181620, Note_on_c, 1, 69, 127
1, 181620, Note_on_c, 1, 50, 127
1, 181620, Note_on_c, 1, 54, 127
1, 181643, Note_off_c, 1, 54, 0
1, 181650, Note_on_c, 1, 55, 127
1, 181667, Note_off_c, 1, 78, 0
1, 181667, Note_off_c, 1, 74, 0
1, 181667, Note_off_c, 1, 69, 0
1, 181667, Note_off_c, 1, 50, 0
1, 181673, Note_off_c, 1, 55, 0
1, 181680, Note_on_c, 1, 78, 127
1, 181680, Note_on_c, 1, 74, 127
1, 181680, Note_on_c, 1, 69, 127
1, 181680, Note_on_c, 1, 45, 127
1, 181680, Note_on_c, 1, 57, 127
1, 181703, Note_off_c, 1, 57, 0
1, 181710, Note_on_c, 1, 55, 127
1, 181727, Note_off_c, 1, 78, 0
1, 181727, Note_off_c, 1, 74, 0
1, 181727, Note_off_c, 1, 69, 0
1, 181727, Note_off_c, 1, 45, 0
1, 181733, Note_off_c, 1, 55, 0
1, 181740, Note_on_c, 1, 76, 127
1, 181740, Note_on_c, 1, 73, 127
1, 181740, Note_on_c, 1, 69, 127
1, 181740, Note_on_c, 1, 45, 127
1, 181740, Note_on_c, 1, 57, 127
1, 181763, Note_off_c, 1, 57, 0
1, 181770, Note_on_c, 1, 59, 127
1, 181787, Note_off_c, 1, 76, 0
1, 181787, Note_off_c, 1, 73, 0
1, 181787, Note_off_c, 1, 69, 0
1, 181787, Note_off_c, 1, 45, 0
1, 181793, Note_off_c, 1, 59, 0
1, 181800, Note_on_c, 1, 57, 127
1, 181823, Note_off_c, 1, 57, 0
1, 181830, Note_on_c, 1, 55, 127
1, 181853, Note_off_c, 1, 55, 0
1, 181860, Note_on_c, 1, 69, 127
1, 181860, Note_on_c, 1, 54, 127
1, 181883, Note_off_c, 1, 54, 0
1, 181890, Note_on_c, 1, 52, 127
1, 181907, Note_off_c, 1, 69, 0
1, 181913, Note_off_c, 1, 52, 0
1, 181920, Note_on_c, 1, 74, 127
1, 181920, Note_on_c, 1, 50, 127
1, 181943, Note_off_c, 1, 74, 0
1, 181950, Note_on_c, 1, 76, 127
1, 181967, Note_off_c, 1, 50, 0
1, 181973, Note_off_c, 1, 76, 0
1, 181980, Note_on_c, 1, 78, 127
1, 181980, Note_on_c, 1, 74, 127
1, 181980, Note_on_c, 1, 38, 127
1, 182003, Note_off_c, 1, 74, 0
1, 182027, Note_off_c, 1, 38, 0
1, 182051, Note_off_c, 1, 78, 0
1, 182070, Note_on_c, 1, 79, 127
1, 182093, Note_off_c, 1, 79, 0
1, 182100, Note_on_c, 1, 78, 127
1, 182100, Note_on_c, 1, 74, 127
1, 182100, Note_on_c, 1, 69, 127
1, 182123, Note_off_c, 1, 78, 0
1, 182123, Note_off_c, 1, 74, 0
1, 182123, Note_off_c, 1, 69, 0
1, 182130, Note_on_c, 1, 76, 127
1, 182153, Note_off_c, 1, 76, 0
1, 182160, Note_on_c, 1, 78, 127
1, 182160, Note_on_c, 1, 74, 127
1, 182160, Note_on_c, 1, 69, 127
1, 182183, Note_off_c, 1, 78, 0
1, 182183, Note_off_c, 1, 74, 0
1, 182183, Note_off_c, 1, 69, 0
1, 182190, Note_on_c, 1, 76, 127
1, 182213, Note_off_c, 1, 76, 0
1, 182220, Note_on_c, 1, 74, 127
1, 182220, Note_on_c, 1, 69, 127
1, 182220, Note_on_c, 1, 66, 127
1, 182243, Note_off_c, 1, 69, 0
1, 182243, Note_off_c, 1, 66, 0
1, 182291, Note_off_c, 1, 74, 0
1, 182310, Note_on_c, 1, 69, 127
1, 182333, Note_off_c, 1, 69, 0
1, 182340, Note_on_c, 1, 74, 127
1, 182340, Note_on_c, 1, 66, 127
1, 182340, Note_on_c, 1, 62, 127
1, 182363, Note_off_c, 1, 74, 0
1, 182363, Note_off_c, 1, 66, 0
1, 182363, Note_off_c, 1, 62, 0
1, 182370, Note_on_c, 1, 76, 127
1, 182393, Note_off_c, 1, 76, 0
1, 182400, Note_on_c, 1, 78, 127
1, 182400, Note_on_c, 1, 66, 127
1, 182400, Note_on_c, 1, 62, 127
1, 182423, Note_off_c, 1, 78, 0
1, 182423, Note_off_c, 1, 66, 0
1, 182423, Note_off_c, 1, 62, 0
1, 182430, Note_on_c, 1, 74, 127
1, 182453, Note_off_c, 1, 74, 0
1, 182460, Note_on_c, 1, 81, 127
1, 182460, Note_on_c, 1, 78, 127
1, 182460, Note_on_c, 1, 69, 127
1, 182460, Note_on_c, 1, 50, 127
1, 182490, Note_on_c, 1, 49, 127
1, 182507, Note_off_c, 1, 81, 0
1, 182507, Note_off_c, 1, 78, 0
1, 182507, Note_off_c, 1, 69, 0
1, 182507, Note_off_c, 1, 50, 0
1, 182513, Note_off_c, 1, 49, 0
1, 182520, Note_on_c, 1, 79, 127
1, 182520, Note_on_c, 1, 76, 127
1, 182520, Note_on_c, 1, 69, 127
1, 182520, Note_on_c, 1, 45, 127
1, 182520, Note_on_c, 1, 50, 127
1, 182543, Note_off_c, 1, 50, 0
1, 182550, Note_on_c, 1, 52, 127
1, 182567, Note_off_c, 1, 79, 0
1, 182567, Note_off_c, 1, 76, 0
1, 182567, Note_off_c, 1, 69, 0
1, 182567, Note_off_c, 1, 45, 0
1, 182573, Note_off_c, 1, 52, 0
1, 182580, Note_on_c, 1, 78, 127
1, 182580, Note_on_c, 1, 74, 127
1, 182580, Note_on_c, 1, 69, 127
1, 182580, Note_on_c, 1, 50, 127
1, 182580, Note_on_c, 1, 54, 127
1, 182603, Note_off_c, 1, 54, 0
1, 182610, Note_on_c, 1, 55, 127
1, 182627, Note_off_c, 1, 78, 0
1, 182627, Note_off_c, 1, 74, 0
1, 182627, Note_off_c, 1, 69, 0
1, 182627, Note_off_c, 1, 50, 0
1, 182633, Note_off_c, 1, 55, 0
1, 182640, Note_on_c, 1, 78, 127
1, 182640, Note_on_c, 1, 74, 127
1, 182640, Note_on_c, 1, 69, 127
1, 182640, Note_on_c, 1, 45, 127
1, 182640, Note_on_c, 1, 57, 127
1, 182663, Note_off_c, 1, 57, 0
1, 182670, Note_on_c, 1, 56, 127
1, 182687, Note_off_c, 1, 78, 0
1, 182687, Note_off_c, 1, 74, 0
1, 182687, Note_off_c, 1, 69, 0
1, 182687, Note_off_c, 1, 45, 0
1, 182693, Note_off_c, 1, 56, 0
1, 182700, Note_on_c, 1, 76, 127
1, 182700, Note_on_c, 1, 73, 127
1, 182700, Note_on_c, 1, 69, 127
1, 182700, Note_on_c, 1, 45, 127
1, 182700, Note_on_c, 1, 57, 127
1, 182723, Note_off_c, 1, 57, 0
1, 182730, Note_on_c, 1, 59, 127
1, 182747, Note_off_c, 1, 76, 0
1, 182747, Note_off_c, 1, 73, 0
1, 182747, Note_off_c, 1, 69, 0
1, 182747, Note_off_c, 1, 45, 0
1, 182753, Note_off_c, 1, 59, 0
1, 182760, Note_on_c, 1, 74, 127
1, 182760, Note_on_c, 1, 71, 127
1, 182760, Note_on_c, 1, 64, 127
1, 182760, Note_on_c, 1, 57, 127
1, 182790, Note_on_c, 1, 68, 127
1, 182790, Note_on_c, 1, 56, 127
1, 182813, Note_off_c, 1, 68, 0
1, 182813, Note_off_c, 1, 56, 0
1, 182820, Note_off_c, 1, 57, 0
1, 182820, Note_on_c, 1, 69, 127
1, 182820, Note_on_c, 1, 54, 127
1, 182843, Note_off_c, 1, 69, 0
1, 182843, Note_off_c, 1, 54, 0
1, 182850, Note_on_c, 1, 52, 127
1, 182873, Note_off_c, 1, 52, 0
1, 182879, Note_off_c, 1, 74, 0
1, 182879, Note_off_c, 1, 71, 0
1, 182879, Note_off_c, 1, 64, 0
1, 182880, Note_on_c, 1, 73, 127
1, 182940, Note_on_c, 1, 55, 127
1, 182970, Note_on_c, 1, 76, 127
1, 182993, Note_off_c, 1, 76, 0
1, 182999, Note_off_c, 1, 73, 0
1, 183000, Note_off_c, 1, 55, 0
1, 183000, Note_on_c, 1, 81, 127
1, 183000, Note_on_c, 1, 62, 127
1, 183023, Note_off_c, 1, 81, 0
1, 183030, Note_on_c, 1, 66, 127
1, 183053, Note_off_c, 1, 66, 0
1, 183060, Note_on_c, 1, 67, 127
1, 183060, Note_on_c, 1, 50, 127
1, 183090, Note_off_c, 1, 67, 0
1, 183119, Note_off_c, 1, 62, 0
1, 183120, Note_off_c, 1, 50, 0
1, 183240, Note_on_c, 1, 79, 127
1, 183287, Note_off_c, 1, 79, 0
1, 183300, Note_on_c, 1, 61, 127
1, 183360, Note_off_c, 1, 61, 0
1, 183360, Note_on_c, 1, 78, 127
1, 183360, Note_on_c, 1, 59, 127
1, 183371, Note_off_c, 1, 78, 0
1, 183420, Note_off_c, 1, 59, 0
1, 183660, Note_on_c, 1, 83, 127
1, 183683, Note_off_c, 1, 83, 0
1, 183780, Note_on_c, 1, 79, 127
1, 183780, Note_on_c, 1, 59, 127
1, 183803, Note_off_c, 1, 79, 0
1, 183810, Note_on_c, 1, 78, 127
1, 183827, Note_off_c, 1, 59, 0
1, 183833, Note_off_c, 1, 78, 0
1, 183840, Note_on_c, 1, 76, 127
1, 183840, Note_on_c, 1, 49, 127
1, 183851, Note_off_c, 1, 76, 0
1, 183887, Note_off_c, 1, 49, 0
1, 183900, Note_on_c, 1, 78, 127
1, 183900, Note_on_c, 1, 74, 127
1, 183900, Note_on_c, 1, 69, 127
1, 183900, Note_on_c, 1, 47, 127
1, 183923, Note_off_c, 1, 78, 0
1, 183923, Note_off_c, 1, 74, 0
1, 183923, Note_off_c, 1, 69, 0
1, 183930, Note_on_c, 1, 79, 127
1, 183947, Note_off_c, 1, 47, 0
1, 183953, Note_off_c, 1, 79, 0
1, 183960, Note_on_c, 1, 76, 127
1, 183960, Note_on_c, 1, 69, 127
1, 183960, Note_on_c, 1, 49, 127
1, 183983, Note_off_c, 1, 76, 0
1, 183983, Note_off_c, 1, 69, 0
1, 184007, Note_off_c, 1, 49, 0
1, 184020, Note_on_c, 1, 78, 127
1, 184020, Note_on_c, 1, 74, 127
1, 184020, Note_on_c, 1, 47, 127
1, 184043, Note_off_c, 1, 78, 0
1, 184043, Note_off_c, 1, 74, 0
1, 184050, Note_on_c, 1, 79, 127
1, 184067, Note_off_c, 1, 47, 0
1, 184073, Note_off_c, 1, 79, 0
1, 184080, Note_on_c, 1, 76, 127
1, 184080, Note_on_c, 1, 49, 127
1, 184103, Note_off_c, 1, 76, 0
1, 184127, Note_off_c, 1, 49, 0
1, 184140, Note_on_c, 1, 81, 127
1, 184140, Note_on_c, 1, 76, 127
1, 184140, Note_on_c, 1, 69, 127
1, 184140, Note_on_c, 1, 45, 127
1, 184140, Note_on_c, 1, 61, 127
1, 184163, Note_off_c, 1, 81, 0
1, 184163, Note_off_c, 1, 76, 0
1, 184163, Note_off_c, 1, 69, 0
1, 184163, Note_off_c, 1, 45, 0
1, 184163, Note_off_c, 1, 61, 0
1, 184170, Note_on_c, 1, 74, 127
1, 184170, Note_on_c, 1, 69, 127
1, 184170, Note_on_c, 1, 45, 127
1, 184170, Note_on_c, 1, 79, 127
1, 184170, Note_on_c, 1, 59, 127
1, 184193, Note_off_c, 1, 74, 0
1, 184193, Note_off_c, 1, 69, 0
1, 184193, Note_off_c, 1, 45, 0
1, 184193, Note_off_c, 1, 79, 0
1, 184193, Note_off_c, 1, 59, 0
1, 184200, Note_on_c, 1, 76, 127
1, 184200, Note_on_c, 1, 69, 127
1, 184200, Note_on_c, 1, 45, 127
1, 184200, Note_on_c, 1, 81, 127
1, 184200, Note_on_c, 1, 61, 127
1, 184230, Note_on_c, 1, 79, 127
1, 184247, Note_off_c, 1, 81, 0
1, 184247, Note_off_c, 1, 61, 0
1, 184248, Note_off_c, 1, 76, 0
1, 184248, Note_off_c, 1, 69, 0
1, 184248, Note_off_c, 1, 45, 0
1, 184253, Note_off_c, 1, 79, 0
1, 184260, Note_on_c, 1, 78, 127
1, 184260, Note_on_c, 1, 57, 127
1, 184283, Note_off_c, 1, 78, 0
1, 184290, Note_on_c, 1, 76, 127
1, 184307, Note_off_c, 1, 57, 0
1, 184313, Note_off_c, 1, 76, 0
1, 184320, Note_on_c, 1, 74, 127
1, 184320, Note_on_c, 1, 47, 127
1, 184331, Note_off_c, 1, 74, 0
1, 184350, Note_on_c, 1, 86, 127
1, 184367, Note_off_c, 1, 47, 0
1, 184373, Note_off_c, 1, 86, 0
1, 184380, Note_on_c, 1, 85, 127
1, 184380, Note_on_c, 1, 74, 127
1, 184380, Note_on_c, 1, 59, 127
1, 184403, Note_off_c, 1, 85, 0
1, 184410, Note_on_c, 1, 83, 127
1, 184427, Note_off_c, 1, 74, 0
1, 184427, Note_off_c, 1, 59, 0
1, 184433, Note_off_c, 1, 83, 0
1, 184440, Note_on_c, 1, 74, 127
1, 184440, Note_on_c, 1, 69, 127
1, 184440, Note_on_c, 1, 62, 127
1, 184440, Note_on_c, 1, 54, 127
1, 184470, Note_on_c, 1, 85, 127
1, 184487, Note_off_c, 1, 74, 0
1, 184493, Note_off_c, 1, 85, 0
1, 184499, Note_off_c, 1, 54, 0
1, 184500, Note_on_c, 1, 83, 127
1, 184500, Note_on_c, 1, 66, 127
1, 184500, Note_on_c, 1, 50, 127
1, 184523, Note_off_c, 1, 83, 0
1, 184530, Note_on_c, 1, 81, 127
1, 184553, Note_off_c, 1, 81, 0
1, 184559, Note_off_c, 1, 69, 0
1, 184559, Note_off_c, 1, 62, 0
1, 184559, Note_off_c, 1, 66, 0
1, 184559, Note_off_c, 1, 50, 0
1, 184560, Note_on_c, 1, 74, 127
1, 184560, Note_on_c, 1, 71, 127
1, 184560, Note_on_c, 1, 67, 127
1, 184560, Note_on_c, 1, 62, 127
1, 184560, Note_on_c, 1, 55, 127
1, 184560, Note_on_c, 1, 43, 127
1, 184571, Note_off_c, 1, 74, 0
1, 184590, Note_on_c, 1, 83, 127
1, 184607, Note_off_c, 1, 43, 0
1, 184613, Note_off_c, 1, 83, 0
1, 184620, Note_on_c, 1, 81, 127
1, 184643, Note_off_c, 1, 81, 0
1, 184650, Note_on_c, 1, 79, 127
1, 184673, Note_off_c, 1, 79, 0
1, 184679, Note_off_c, 1, 71, 0
1, 184679, Note_off_c, 1, 67, 0
1, 184679, Note_off_c, 1, 62, 0
1, 184679, Note_off_c, 1, 55, 0
1, 184680, Note_on_c, 1, 74, 127
1, 184680, Note_on_c, 1, 69, 127
1, 184680, Note_on_c, 1, 66, 127
1, 184680, Note_on_c, 1, 62, 127
1, 184680, Note_on_c, 1, 50, 127
1, 184710, Note_on_c, 1, 81, 127
1, 184727, Note_off_c, 1, 74, 0
1, 184733, Note_off_c, 1, 81, 0
1, 184739, Note_off_c, 1, 50, 0
1, 184740, Note_on_c, 1, 79, 127
1, 184740, Note_on_c, 1, 47, 127
1, 184763, Note_off_c, 1, 79, 0
1, 184770, Note_on_c, 1, 78, 127
1, 184793, Note_off_c, 1, 78, 0
1, 184799, Note_off_c, 1, 69, 0
1, 184799, Note_off_c, 1, 66, 0
1, 184799, Note_off_c, 1, 62, 0
1, 184799, Note_off_c, 1, 47, 0
1, 184800, Note_on_c, 1, 79, 127
1, 184800, Note_on_c, 1, 67, 127
1, 184800, Note_on_c, 1, 66, 127
1, 184800, Note_on_c, 1, 59, 127
1, 184800, Note_on_c, 1, 52, 127
1, 184800, Note_on_c, 1, 40, 127
1, 184823, Note_off_c, 1, 40, 0
1, 184830, Note_on_c, 1, 42, 127
1, 184847, Note_off_c, 1, 79, 0
1, 184853, Note_off_c, 1, 42, 0
1, 184859, Note_off_c, 1, 66, 0
1, 184860, Note_on_c, 1, 76, 127
1, 184860, Note_on_c, 1, 64, 127
1, 184860, Note_on_c, 1, 43, 127
1, 184883, Note_off_c, 1, 43, 0
1, 184890, Note_on_c, 1, 45, 127
1, 184907, Note_off_c, 1, 76, 0
1, 184913, Note_off_c, 1, 45, 0
1, 184919, Note_off_c, 1, 67, 0
1, 184919, Note_off_c, 1, 59, 0
1, 184919, Note_off_c, 1, 52, 0
1, 184919, Note_off_c, 1, 64, 0
1, 184920, Note_on_c, 1, 76, 127
1, 184920, Note_on_c, 1, 67, 127
1, 184920, Note_on_c, 1, 64, 127
1, 184920, Note_on_c, 1, 59, 127
1, 184920, Note_on_c, 1, 52, 127
1, 184920, Note_on_c, 1, 47, 127
1, 184943, Note_off_c, 1, 47, 0
1, 184950, Note_on_c, 1, 50, 127
1, 184967, Note_off_c, 1, 76, 0
1, 184973, Note_off_c, 1, 50, 0
1, 184979, Note_off_c, 1, 67, 0
1, 184979, Note_off_c, 1, 59, 0
1, 184980, Note_on_c, 1, 66, 127
1, 184980, Note_on_c, 1, 58, 127
1, 184980, Note_on_c, 1, 49, 127
1, 185003, Note_off_c, 1, 49, 0
1, 185039, Note_off_c, 1, 64, 0
1, 185039, Note_off_c, 1, 52, 0
1, 185039, Note_off_c, 1, 66, 0
1, 185039, Note_off_c, 1, 58, 0
1, 185040, Note_on_c, 1, 66, 127
1, 185040, Note_on_c, 1, 61, 127
1, 185040, Note_on_c, 1, 58, 127
1, 185040, Note_on_c, 1, 54, 127
1, 185040, Note_on_c, 1, 46, 127
1, 185063, Note_off_c, 1, 46, 0
1, 185070, Note_on_c, 1, 42, 127
1, 185093, Note_off_c, 1, 42, 0
1, 185100, Note_on_c, 1, 76, 127
1, 185130, Note_on_c, 1, 49, 127
1, 185147, Note_off_c, 1, 76, 0
1, 185153, Note_off_c, 1, 49, 0
1, 185159, Note_off_c, 1, 66, 0
1, 185159, Note_off_c, 1, 61, 0
1, 185159, Note_off_c, 1, 58, 0
1, 185159, Note_off_c, 1, 54, 0
1, 185160, Note_on_c, 1, 66, 127
1, 185160, Note_on_c, 1, 76, 127
1, 185160, Note_on_c, 1, 54, 127
1, 185183, Note_off_c, 1, 54, 0
1, 185190, Note_on_c, 1, 52, 127
1, 185207, Note_off_c, 1, 66, 0
1, 185207, Note_off_c, 1, 76, 0
1, 185213, Note_off_c, 1, 52, 0
1, 185220, Note_on_c, 1, 66, 127
1, 185220, Note_on_c, 1, 78, 127
1, 185220, Note_on_c, 1, 76, 127
1, 185220, Note_on_c, 1, 50, 127
1, 185243, Note_off_c, 1, 50, 0
1, 185250, Note_on_c, 1, 49, 127
1, 185267, Note_off_c, 1, 66, 0
1, 185267, Note_off_c, 1, 78, 0
1, 185267, Note_off_c, 1, 76, 0
1, 185273, Note_off_c, 1, 49, 0
1, 185280, Note_on_c, 1, 66, 127
1, 185280, Note_on_c, 1, 83, 127
1, 185280, Note_on_c, 1, 74, 127
1, 185280, Note_on_c, 1, 47, 127
1, 185303, Note_off_c, 1, 83, 0
1, 185310, Note_on_c, 1, 85, 127
1, 185327, Note_off_c, 1, 66, 0
1, 185327, Note_off_c, 1, 47, 0
1, 185333, Note_off_c, 1, 85, 0
1, 185340, Note_on_c, 1, 86, 127
1, 185340, Note_on_c, 1, 59, 127
1, 185363, Note_off_c, 1, 86, 0
1, 185375, Note_off_c, 1, 74, 0
1, 185387, Note_off_c, 1, 59, 0
1, 185400, Note_on_c, 1, 66, 127
1, 185400, Note_on_c, 1, 83, 127
1, 185447, Note_off_c, 1, 83, 0
1, 185453, Note_off_c, 1, 66, 0
1, 185460, Note_on_c, 1, 66, 127
1, 185460, Note_on_c, 1, 78, 127
1, 185460, Note_on_c, 1, 68, 127
1, 185483, Note_off_c, 1, 78, 0
1, 185483, Note_off_c, 1, 68, 0
1, 185490, Note_on_c, 1, 70, 127
1, 185507, Note_off_c, 1, 66, 0
1, 185513, Note_off_c, 1, 70, 0
1, 185520, Note_on_c, 1, 66, 127
1, 185520, Note_on_c, 1, 78, 127
1, 185520, Note_on_c, 1, 71, 127
1, 185543, Note_off_c, 1, 78, 0
1, 185543, Note_off_c, 1, 71, 0
1, 185573, Note_off_c, 1, 66, 0
1, 185580, Note_on_c, 1, 66, 127
1, 185580, Note_on_c, 1, 74, 127
1, 185580, Note_on_c, 1, 71, 127
1, 185603, Note_off_c, 1, 74, 0
1, 185603, Note_off_c, 1, 71, 0
1, 185610, Note_on_c, 1, 73, 127
1, 185627, Note_off_c, 1, 66, 0
1, 185633, Note_off_c, 1, 73, 0
1, 185640, Note_on_c, 1, 66, 127
1, 185640, Note_on_c, 1, 74, 127
1, 185663, Note_off_c, 1, 74, 0
1, 185670, Note_on_c, 1, 71, 127
1, 185687, Note_off_c, 1, 66, 0
1, 185693, Note_off_c, 1, 71, 0
1, 185700, Note_on_c, 1, 66, 127
1, 185700, Note_on_c, 1, 71, 127
1, 185700, Note_on_c, 1, 74, 127
1, 185723, Note_off_c, 1, 71, 0
1, 185723, Note_off_c, 1, 74, 0
1, 185730, Note_on_c, 1, 76, 127
1, 185747, Note_off_c, 1, 66, 0
1, 185753, Note_off_c, 1, 76, 0
1, 185760, Note_on_c, 1, 66, 127
1, 185760, Note_on_c, 1, 71, 127
1, 185760, Note_on_c, 1, 78, 127
1, 185783, Note_off_c, 1, 71, 0
1, 185807, Note_off_c, 1, 66, 0
1, 185807, Note_off_c, 1, 78, 0
1, 185820, Note_on_c, 1, 66, 127
1, 185820, Note_on_c, 1, 45, 127
1, 185820, Note_on_c, 1, 78, 127
1, 185820, Note_on_c, 1, 74, 127
1, 185820, Note_on_c, 1, 47, 127
1, 185843, Note_off_c, 1, 66, 0
1, 185843, Note_off_c, 1, 45, 0
1, 185843, Note_off_c, 1, 47, 0
1, 185850, Note_on_c, 1, 46, 127
1, 185867, Note_off_c, 1, 78, 0
1, 185867, Note_off_c, 1, 74, 0
1, 185873, Note_off_c, 1, 46, 0
1, 185880, Note_on_c, 1, 66, 127
1, 185880, Note_on_c, 1, 45, 127
1, 185880, Note_on_c, 1, 76, 127
1, 185880, Note_on_c, 1, 73, 127
1, 185880, Note_on_c, 1, 47, 127
1, 185903, Note_off_c, 1, 47, 0
1, 185910, Note_on_c, 1, 49, 127
1, 185927, Note_off_c, 1, 66, 0
1, 185927, Note_off_c, 1, 45, 0
1, 185927, Note_off_c, 1, 76, 0
1, 185927, Note_off_c, 1, 73, 0
1, 185933, Note_off_c, 1, 49, 0
1, 185940, Note_on_c, 1, 66, 127
1, 185940, Note_on_c, 1, 45, 127
1, 185940, Note_on_c, 1, 74, 127
1, 185940, Note_on_c, 1, 71, 127
1, 185940, Note_on_c, 1, 50, 127
1, 185963, Note_off_c, 1, 50, 0
1, 185970, Note_on_c, 1, 52, 127
1, 185987, Note_off_c, 1, 66, 0
1, 185987, Note_off_c, 1, 45, 0
1, 185987, Note_off_c, 1, 74, 0
1, 185987, Note_off_c, 1, 71, 0
1, 185993, Note_off_c, 1, 52, 0
1, 186000, Note_on_c, 1, 66, 127
1, 186000, Note_on_c, 1, 45, 127
1, 186000, Note_on_c, 1, 74, 127
1, 186000, Note_on_c, 1, 71, 127
1, 186000, Note_on_c, 1, 54, 127
1, 186023, Note_off_c, 1, 54, 0
1, 186030, Note_on_c, 1, 52, 127
1, 186047, Note_off_c, 1, 74, 0
1, 186047, Note_off_c, 1, 71, 0
1, 186053, Note_off_c, 1, 52, 0
1, 186060, Note_on_c, 1, 73, 127
1, 186060, Note_on_c, 1, 70, 127
1, 186090, Note_on_c, 1, 55, 127
1, 186095, Note_off_c, 1, 66, 0
1, 186095, Note_off_c, 1, 45, 0
1, 186107, Note_off_c, 1, 73, 0
1, 186107, Note_off_c, 1, 70, 0
1, 186113, Note_off_c, 1, 55, 0
1, 186120, Note_on_c, 1, 54, 127
1, 186143, Note_off_c, 1, 54, 0
1, 186150, Note_on_c, 1, 79, 127
1, 186150, Note_on_c, 1, 52, 127
1, 186173, Note_off_c, 1, 79, 0
1, 186173, Note_off_c, 1, 52, 0
1, 186180, Note_on_c, 1, 78, 127
1, 186180, Note_on_c, 1, 50, 127
1, 186203, Note_off_c, 1, 78, 0
1, 186203, Note_off_c, 1, 50, 0
1, 186210, Note_on_c, 1, 76, 127
1, 186210, Note_on_c, 1, 49, 127
1, 186233, Note_off_c, 1, 76, 0
1, 186233, Note_off_c, 1, 49, 0
1, 186240, Note_on_c, 1, 74, 127
1, 186240, Note_on_c, 1, 47, 127
1, 186251, Note_off_c, 1, 74, 0
1, 186287, Note_off_c, 1, 47, 0
1, 186300, Note_on_c, 1, 73, 127
1, 186300, Note_on_c, 1, 67, 127
1, 186300, Note_on_c, 1, 76, 127
1, 186300, Note_on_c, 1, 46, 127
1, 186323, Note_off_c, 1, 73, 0
1, 186323, Note_off_c, 1, 67, 0
1, 186323, Note_off_c, 1, 76, 0
1, 186330, Note_on_c, 1, 78, 127
1, 186347, Note_off_c, 1, 46, 0
1, 186353, Note_off_c, 1, 78, 0
1, 186360, Note_on_c, 1, 74, 127
1, 186360, Note_on_c, 1, 66, 127
1, 186360, Note_on_c, 1, 47, 127
1, 186383, Note_off_c, 1, 74, 0
1, 186383, Note_off_c, 1, 66, 0
1, 186407, Note_off_c, 1, 47, 0
1, 186420, Note_on_c, 1, 83, 127
1, 186420, Note_on_c, 1, 76, 127
1, 186420, Note_on_c, 1, 45, 127
1, 186443, Note_off_c, 1, 76, 0
1, 186444, Note_off_c, 1, 83, 0
1, 186450, Note_on_c, 1, 78, 127
1, 186467, Note_off_c, 1, 45, 0
1, 186473, Note_off_c, 1, 78, 0
1, 186480, Note_on_c, 1, 76, 127
1, 186480, Note_on_c, 1, 44, 127
1, 186504, Note_off_c, 1, 76, 0
1, 186527, Note_off_c, 1, 44, 0
1, 186540, Note_on_c, 1, 83, 127
1, 186540, Note_on_c, 1, 76, 127
1, 186540, Note_on_c, 1, 56, 127
1, 186563, Note_off_c, 1, 83, 0
1, 186563, Note_off_c, 1, 76, 0
1, 186563, Note_off_c, 1, 56, 0
1, 186570, Note_on_c, 1, 81, 127
1, 186570, Note_on_c, 1, 78, 127
1, 186570, Note_on_c, 1, 54, 127
1, 186593, Note_off_c, 1, 81, 0
1, 186593, Note_off_c, 1, 78, 0
1, 186593, Note_off_c, 1, 54, 0
1, 186600, Note_on_c, 1, 83, 127
1, 186600, Note_on_c, 1, 76, 127
1, 186600, Note_on_c, 1, 74, 127
1, 186600, Note_on_c, 1, 71, 127
1, 186600, Note_on_c, 1, 64, 127
1, 186600, Note_on_c, 1, 56, 127
1, 186630, Note_on_c, 1, 78, 127
1, 186647, Note_off_c, 1, 83, 0
1, 186647, Note_off_c, 1, 76, 0
1, 186653, Note_off_c, 1, 78, 0
1, 186659, Note_off_c, 1, 56, 0
1, 186660, Note_on_c, 1, 52, 127
1, 186719, Note_off_c, 1, 74, 0
1, 186719, Note_off_c, 1, 71, 0
1, 186719, Note_off_c, 1, 64, 0
1, 186719, Note_off_c, 1, 52, 0
1, 186720, Note_on_c, 1, 73, 127
1, 186720, Note_on_c, 1, 69, 127
1, 186720, Note_on_c, 1, 64, 127
1, 186720, Note_on_c, 1, 57, 127
1, 186720, Note_on_c, 1, 45, 127
1, 186767, Note_off_c, 1, 45, 0
1, 186780, Note_on_c, 1, 74, 127
1, 186780, Note_on_c, 1, 44, 127
1, 186803, Note_off_c, 1, 74, 0
1, 186810, Note_on_c, 1, 76, 127
1, 186827, Note_off_c, 1, 44, 0
1, 186833, Note_off_c, 1, 76, 0
1, 186839, Note_off_c, 1, 73, 0
1, 186900, Note_off_c, 1, 69, 0
1, 186900, Note_off_c, 1, 57, 0
1, 186900, Note_on_c, 1, 59, 127
1, 186900, Note_on_c, 1, 56, 127
1, 186959, Note_off_c, 1, 64, 0
1, 186959, Note_off_c, 1, 59, 0
1, 186959, Note_off_c, 1, 56, 0
1, 186960, Note_on_c, 1, 74, 127
1, 186960, Note_on_c, 1, 66, 127
1, 186960, Note_on_c, 1, 57, 127
1, 186960, Note_on_c, 1, 54, 127
1, 186960, Note_on_c, 1, 42, 127
1, 187007, Note_off_c, 1, 42, 0
1, 187020, Note_on_c, 1, 81, 127
1, 187043, Note_off_c, 1, 81, 0
1, 187050, Note_on_c, 1, 52, 127
1, 187073, Note_off_c, 1, 52, 0
1, 187079, Note_off_c, 1, 74, 0
1, 187080, Note_on_c, 1, 73, 127
1, 187140, Note_off_c, 1, 66, 0
1, 187140, Note_off_c, 1, 54, 0
1, 187140, Note_on_c, 1, 71, 127
1, 187140, Note_on_c, 1, 64, 127
1, 187140, Note_on_c, 1, 49, 127
1, 187163, Note_off_c, 1, 71, 0
1, 187170, Note_on_c, 1, 69, 127
1, 187193, Note_off_c, 1, 69, 0
1, 187199, Note_off_c, 1, 57, 0
1, 187199, Note_off_c, 1, 73, 0
1, 187199, Note_off_c, 1, 64, 0
1, 187199, Note_off_c, 1, 49, 0
1, 187200, Note_on_c, 1, 71, 127
1, 187200, Note_on_c, 1, 66, 127
1, 187200, Note_on_c, 1, 57, 127
1, 187200, Note_on_c, 1, 50, 127
1, 187230, Note_on_c, 1, 81, 127
1, 187253, Note_off_c, 1, 81, 0
1, 187259, Note_off_c, 1, 66, 0
1, 187259, Note_off_c, 1, 57, 0
1, 187259, Note_off_c, 1, 50, 0
1, 187260, Note_on_c, 1, 80, 127
1, 187260, Note_on_c, 1, 62, 127
1, 187260, Note_on_c, 1, 59, 127
1, 187260, Note_on_c, 1, 47, 127
1, 187283, Note_off_c, 1, 80, 0
1, 187290, Note_on_c, 1, 78, 127
1, 187313, Note_off_c, 1, 78, 0
1, 187319, Note_off_c, 1, 62, 0
1, 187319, Note_off_c, 1, 59, 0
1, 187319, Note_off_c, 1, 47, 0
1, 187320, Note_on_c, 1, 76, 127
1, 187320, Note_on_c, 1, 64, 127
1, 187320, Note_on_c, 1, 56, 127
1, 187320, Note_on_c, 1, 52, 127
1, 187343, Note_off_c, 1, 76, 0
1, 187350, Note_on_c, 1, 74, 127
1, 187373, Note_off_c, 1, 74, 0
1, 187380, Note_on_c, 1, 73, 127
1, 187380, Note_on_c, 1, 40, 127
1, 187403, Note_off_c, 1, 73, 0
1, 187427, Note_off_c, 1, 40, 0
1, 187439, Note_off_c, 1, 71, 0
1, 187439, Note_off_c, 1, 64, 0
1, 187439, Note_off_c, 1, 56, 0
1, 187439, Note_off_c, 1, 52, 0
1, 187440, Note_on_c, 1, 81, 127
1, 187440, Note_on_c, 1, 73, 127
1, 187440, Note_on_c, 1, 69, 127
1, 187440, Note_on_c, 1, 64, 127
1, 187440, Note_on_c, 1, 57, 127
1, 187440, Note_on_c, 1, 45, 127
1, 187463, Note_off_c, 1, 81, 0
1, 187470, Note_on_c, 1, 83, 127
1, 187493, Note_off_c, 1, 83, 0
1, 187500, Note_on_c, 1, 85, 127
1, 187523, Note_off_c, 1, 85, 0
1, 187535, Note_off_c, 1, 73, 0
1, 187559, Note_off_c, 1, 69, 0
1, 187559, Note_off_c, 1, 64, 0
1, 187559, Note_off_c, 1, 57, 0
1, 187559, Note_off_c, 1, 45, 0
1, 187560, Note_on_c, 1, 81, 127
1, 187590, Note_on_c, 1, 64, 127
1, 187607, Note_off_c, 1, 81, 0
1, 187613, Note_off_c, 1, 64, 0
1, 187620, Note_on_c, 1, 76, 127
1, 187620, Note_on_c, 1, 66, 127
1, 187643, Note_off_c, 1, 76, 0
1, 187643, Note_off_c, 1, 66, 0
1, 187650, Note_on_c, 1, 68, 127
1, 187673, Note_off_c, 1, 68, 0
1, 187680, Note_on_c, 1, 76, 127
1, 187680, Note_on_c, 1, 69, 127
1, 187703, Note_off_c, 1, 76, 0
1, 187703, Note_off_c, 1, 69, 0
1, 187710, Note_on_c, 1, 68, 127
1, 187710, Note_on_c, 1, 64, 127
1, 187733, Note_off_c, 1, 68, 0
1, 187733, Note_off_c, 1, 64, 0
1, 187740, Note_on_c, 1, 81, 127
1, 187740, Note_on_c, 1, 69, 127
1, 187740, Note_on_c, 1, 66, 127
1, 187763, Note_off_c, 1, 81, 0
1, 187763, Note_off_c, 1, 69, 0
1, 187763, Note_off_c, 1, 66, 0
1, 187770, Note_on_c, 1, 71, 127
1, 187770, Note_on_c, 1, 68, 127
1, 187793, Note_off_c, 1, 71, 0
1, 187793, Note_off_c, 1, 68, 0
1, 187800, Note_on_c, 1, 81, 127
1, 187800, Note_on_c, 1, 73, 127
1, 187800, Note_on_c, 1, 69, 127
1, 187823, Note_off_c, 1, 81, 0
1, 187823, Note_off_c, 1, 73, 0
1, 187823, Note_off_c, 1, 69, 0
1, 187830, Note_on_c, 1, 71, 127
1, 187830, Note_on_c, 1, 68, 127
1, 187853, Note_off_c, 1, 71, 0
1, 187853, Note_off_c, 1, 68, 0
1, 187860, Note_on_c, 1, 69, 127
1, 187860, Note_on_c, 1, 73, 127
1, 187883, Note_off_c, 1, 69, 0
1, 187883, Note_off_c, 1, 73, 0
1, 187890, Note_on_c, 1, 74, 127
1, 187890, Note_on_c, 1, 71, 127
1, 187913, Note_off_c, 1, 74, 0
1, 187913, Note_off_c, 1, 71, 0
1, 187920, Note_on_c, 1, 69, 127
1, 187920, Note_on_c, 1, 76, 127
1, 187920, Note_on_c, 1, 73, 127
1, 187943, Note_off_c, 1, 69, 0
1, 187967, Note_off_c, 1, 76, 0
1, 187967, Note_off_c, 1, 73, 0
1, 187980, Note_on_c, 1, 76, 127
1, 187980, Note_on_c, 1, 85, 127
1, 187980, Note_on_c, 1, 45, 127
1, 188003, Note_off_c, 1, 45, 0
1, 188010, Note_on_c, 1, 44, 127
1, 188027, Note_off_c, 1, 85, 0
1, 188033, Note_off_c, 1, 76, 0
1, 188033, Note_off_c, 1, 44, 0
1, 188040, Note_on_c, 1, 76, 127
1, 188040, Note_on_c, 1, 83, 127
1, 188040, Note_on_c, 1, 74, 127
1, 188040, Note_on_c, 1, 45, 127
1, 188063, Note_off_c, 1, 45, 0
1, 188070, Note_on_c, 1, 47, 127
1, 188087, Note_off_c, 1, 76, 0
1, 188087, Note_off_c, 1, 83, 0
1, 188087, Note_off_c, 1, 74, 0
1, 188093, Note_off_c, 1, 47, 0
1, 188100, Note_on_c, 1, 76, 127
1, 188100, Note_on_c, 1, 81, 127
1, 188100, Note_on_c, 1, 73, 127
1, 188100, Note_on_c, 1, 49, 127
1, 188123, Note_off_c, 1, 49, 0
1, 188130, Note_on_c, 1, 50, 127
1, 188147, Note_off_c, 1, 76, 0
1, 188147, Note_off_c, 1, 81, 0
1, 188147, Note_off_c, 1, 73, 0
1, 188153, Note_off_c, 1, 50, 0
1, 188160, Note_on_c, 1, 76, 127
1, 188160, Note_on_c, 1, 81, 127
1, 188160, Note_on_c, 1, 73, 127
1, 188160, Note_on_c, 1, 52, 127
1, 188183, Note_off_c, 1, 76, 0
1, 188183, Note_off_c, 1, 52, 0
1, 188190, Note_on_c, 1, 78, 127
1, 188190, Note_on_c, 1, 54, 127
1, 188207, Note_off_c, 1, 81, 0
1, 188207, Note_off_c, 1, 73, 0
1, 188213, Note_off_c, 1, 78, 0
1, 188213, Note_off_c, 1, 54, 0
1, 188220, Note_on_c, 1, 80, 127
1, 188220, Note_on_c, 1, 76, 127
1, 188220, Note_on_c, 1, 71, 127
1, 188220, Note_on_c, 1, 56, 127
1, 188243, Note_off_c, 1, 76, 0
1, 188243, Note_off_c, 1, 56, 0
1, 188250, Note_on_c, 1, 81, 127
1, 188250, Note_on_c, 1, 78, 127
1, 188250, Note_on_c, 1, 54, 127
1, 188267, Note_off_c, 1, 80, 0
1, 188267, Note_off_c, 1, 71, 0
1, 188273, Note_off_c, 1, 81, 0
1, 188273, Note_off_c, 1, 78, 0
1, 188273, Note_off_c, 1, 54, 0
1, 188280, Note_on_c, 1, 83, 127
1, 188280, Note_on_c, 1, 80, 127
1, 188280, Note_on_c, 1, 53, 127
1, 188303, Note_off_c, 1, 53, 0
1, 188310, Note_on_c, 1, 51, 127
1, 188327, Note_off_c, 1, 83, 0
1, 188328, Note_off_c, 1, 80, 0
1, 188333, Note_off_c, 1, 51, 0
1, 188340, Note_on_c, 1, 73, 127
1, 188340, Note_on_c, 1, 83, 127
1, 188340, Note_on_c, 1, 53, 127
1, 188363, Note_off_c, 1, 53, 0
1, 188370, Note_on_c, 1, 49, 127
1, 188387, Note_off_c, 1, 73, 0
1, 188387, Note_off_c, 1, 83, 0
1, 188393, Note_off_c, 1, 49, 0
1, 188400, Note_on_c, 1, 78, 127
1, 188400, Note_on_c, 1, 83, 127
1, 188400, Note_on_c, 1, 54, 127
1, 188423, Note_off_c, 1, 78, 0
1, 188430, Note_on_c, 1, 80, 127
1, 188447, Note_off_c, 1, 83, 0
1, 188447, Note_off_c, 1, 54, 0
1, 188453, Note_off_c, 1, 80, 0
1, 188460, Note_on_c, 1, 81, 127
1, 188460, Note_on_c, 1, 78, 127
1, 188460, Note_on_c, 1, 66, 127
1, 188460, Note_on_c, 1, 42, 127
1, 188483, Note_off_c, 1, 78, 0
1, 188483, Note_off_c, 1, 66, 0
1, 188490, Note_on_c, 1, 83, 127
1, 188490, Note_on_c, 1, 80, 127
1, 188507, Note_off_c, 1, 81, 0
1, 188507, Note_off_c, 1, 42, 0
1, 188513, Note_off_c, 1, 83, 0
1, 188513, Note_off_c, 1, 80, 0
1, 188520, Note_on_c, 1, 85, 127
1, 188520, Note_on_c, 1, 81, 127
1, 188520, Note_on_c, 1, 66, 127
1, 188520, Note_on_c, 1, 78, 127
1, 188550, Note_on_c, 1, 73, 127
1, 188567, Note_off_c, 1, 85, 0
1, 188567, Note_off_c, 1, 78, 0
1, 188568, Note_off_c, 1, 81, 0
1, 188568, Note_off_c, 1, 66, 0
1, 188573, Note_off_c, 1, 73, 0
1, 188580, Note_on_c, 1, 73, 127
1, 188580, Note_on_c, 1, 75, 127
1, 188603, Note_off_c, 1, 73, 0
1, 188603, Note_off_c, 1, 75, 0
1, 188610, Note_on_c, 1, 77, 127
1, 188633, Note_off_c, 1, 77, 0
1, 188640, Note_on_c, 1, 73, 127
1, 188640, Note_on_c, 1, 78, 127
1, 188663, Note_off_c, 1, 73, 0
1, 188663, Note_off_c, 1, 78, 0
1, 188670, Note_on_c, 1, 73, 127
1, 188693, Note_off_c, 1, 73, 0
1, 188700, Note_on_c, 1, 69, 127
1, 188700, Note_on_c, 1, 78, 127
1, 188723, Note_off_c, 1, 69, 0
1, 188723, Note_off_c, 1, 78, 0
1, 188730, Note_on_c, 1, 80, 127
1, 188753, Note_off_c, 1, 80, 0
1, 188760, Note_on_c, 1, 69, 127
1, 188760, Note_on_c, 1, 81, 127
1, 188783, Note_off_c, 1, 69, 0
1, 188783, Note_off_c, 1, 81, 0
1, 188790, Note_on_c, 1, 78, 127
1, 188813, Note_off_c, 1, 78, 0
1, 188820, Note_on_c, 1, 66, 127
1, 188820, Note_on_c, 1, 81, 127
1, 188843, Note_off_c, 1, 66, 0
1, 188843, Note_off_c, 1, 81, 0
1, 188850, Note_on_c, 1, 83, 127
1, 188873, Note_off_c, 1, 83, 0
1, 188880, Note_on_c, 1, 66, 127
1, 188880, Note_on_c, 1, 85, 127
1, 188903, Note_off_c, 1, 66, 0
1, 188927, Note_off_c, 1, 85, 0
1, 188940, Note_on_c, 1, 79, 127
1, 188940, Note_on_c, 1, 76, 127
1, 188940, Note_on_c, 1, 42, 127
1, 188963, Note_off_c, 1, 42, 0
1, 188970, Note_on_c, 1, 40, 127
1, 188987, Note_off_c, 1, 79, 0
1, 188987, Note_off_c, 1, 76, 0
1, 188993, Note_off_c, 1, 40, 0
1, 189000, Note_on_c, 1, 78, 127
1, 189000, Note_on_c, 1, 74, 127
1, 189000, Note_on_c, 1, 42, 127
1, 189023, Note_off_c, 1, 42, 0
1, 189030, Note_on_c, 1, 44, 127
1, 189047, Note_off_c, 1, 78, 0
1, 189047, Note_off_c, 1, 74, 0
1, 189053, Note_off_c, 1, 44, 0
1, 189060, Note_on_c, 1, 76, 127
1, 189060, Note_on_c, 1, 73, 127
1, 189060, Note_on_c, 1, 46, 127
1, 189083, Note_off_c, 1, 46, 0
1, 189090, Note_on_c, 1, 42, 127
1, 189107, Note_off_c, 1, 76, 0
1, 189107, Note_off_c, 1, 73, 0
1, 189113, Note_off_c, 1, 42, 0
1, 189120, Note_on_c, 1, 74, 127
1, 189120, Note_on_c, 1, 71, 127
1, 189120, Note_on_c, 1, 47, 127
1, 189167, Note_off_c, 1, 74, 0
1, 189167, Note_off_c, 1, 47, 0
1, 189173, Note_off_c, 1, 71, 0
1, 189180, Note_on_c, 1, 71, 127
1, 189180, Note_on_c, 1, 74, 127
1, 189180, Note_on_c, 1, 59, 127
1, 189203, Note_off_c, 1, 71, 0
1, 189203, Note_off_c, 1, 74, 0
1, 189210, Note_on_c, 1, 76, 127
1, 189227, Note_off_c, 1, 59, 0
1, 189233, Note_off_c, 1, 76, 0
1, 189240, Note_on_c, 1, 71, 127
1, 189240, Note_on_c, 1, 78, 127
1, 189263, Note_off_c, 1, 71, 0
1, 189263, Note_off_c, 1, 78, 0
1, 189270, Note_on_c, 1, 71, 127
1, 189293, Note_off_c, 1, 71, 0
1, 189300, Note_on_c, 1, 68, 127
1, 189300, Note_on_c, 1, 74, 127
1, 189323, Note_off_c, 1, 68, 0
1, 189323, Note_off_c, 1, 74, 0
1, 189330, Note_on_c, 1, 78, 127
1, 189353, Note_off_c, 1, 78, 0
1, 189360, Note_on_c, 1, 68, 127
1, 189360, Note_on_c, 1, 83, 127
1, 189383, Note_off_c, 1, 68, 0
1, 189407, Note_off_c, 1, 83, 0
1, 189420, Note_on_c, 1, 78, 127
1, 189420, Note_on_c, 1, 74, 127
1, 189420, Note_on_c, 1, 40, 127
1, 189443, Note_off_c, 1, 40, 0
1, 189450, Note_on_c, 1, 38, 127
1, 189467, Note_off_c, 1, 78, 0
1, 189467, Note_off_c, 1, 74, 0
1, 189473, Note_off_c, 1, 38, 0
1, 189480, Note_on_c, 1, 76, 127
1, 189480, Note_on_c, 1, 73, 127
1, 189480, Note_on_c, 1, 40, 127
1, 189503, Note_off_c, 1, 40, 0
1, 189510, Note_on_c, 1, 42, 127
1, 189527, Note_off_c, 1, 76, 0
1, 189527, Note_off_c, 1, 73, 0
1, 189533, Note_off_c, 1, 42, 0
1, 189540, Note_on_c, 1, 74, 127
1, 189540, Note_on_c, 1, 71, 127
1, 189540, Note_on_c, 1, 44, 127
1, 189563, Note_off_c, 1, 44, 0
1, 189570, Note_on_c, 1, 40, 127
1, 189587, Note_off_c, 1, 74, 0
1, 189587, Note_off_c, 1, 71, 0
1, 189593, Note_off_c, 1, 40, 0
1, 189600, Note_on_c, 1, 73, 127
1, 189600, Note_on_c, 1, 69, 127
1, 189600, Note_on_c, 1, 45, 127
1, 189647, Note_off_c, 1, 73, 0
1, 189647, Note_off_c, 1, 45, 0
1, 189653, Note_off_c, 1, 69, 0
1, 189660, Note_on_c, 1, 69, 127
1, 189660, Note_on_c, 1, 73, 127
1, 189660, Note_on_c, 1, 57, 127
1, 189683, Note_off_c, 1, 69, 0
1, 189683, Note_off_c, 1, 73, 0
1, 189690, Note_on_c, 1, 74, 127
1, 189707, Note_off_c, 1, 57, 0
1, 189713, Note_off_c, 1, 74, 0
1, 189720, Note_on_c, 1, 69, 127
1, 189720, Note_on_c, 1, 76, 127
1, 189743, Note_off_c, 1, 69, 0
1, 189743, Note_off_c, 1, 76, 0
1, 189750, Note_on_c, 1, 69, 127
1, 189773, Note_off_c, 1, 69, 0
1, 189780, Note_on_c, 1, 66, 127
1, 189780, Note_on_c, 1, 73, 127
1, 189803, Note_off_c, 1, 66, 0
1, 189803, Note_off_c, 1, 73, 0
1, 189810, Note_on_c, 1, 76, 127
1, 189833, Note_off_c, 1, 76, 0
1, 189840, Note_on_c, 1, 66, 127
1, 189840, Note_on_c, 1, 81, 127
1, 189863, Note_off_c, 1, 66, 0
1, 189887, Note_off_c, 1, 81, 0
1, 189900, Note_on_c, 1, 76, 127
1, 189900, Note_on_c, 1, 72, 127
1, 189900, Note_on_c, 1, 38, 127
1, 189923, Note_off_c, 1, 38, 0
1, 189930, Note_on_c, 1, 37, 127
1, 189947, Note_off_c, 1, 76, 0
1, 189947, Note_off_c, 1, 72, 0
1, 189953, Note_off_c, 1, 37, 0
1, 189960, Note_on_c, 1, 74, 127
1, 189960, Note_on_c, 1, 71, 127
1, 189960, Note_on_c, 1, 66, 127
1, 189960, Note_on_c, 1, 62, 127
1, 189960, Note_on_c, 1, 50, 127
1, 189960, Note_on_c, 1, 38, 127
1, 189983, Note_off_c, 1, 38, 0
1, 189990, Note_on_c, 1, 40, 127
1, 190007, Note_off_c, 1, 74, 0
1, 190007, Note_off_c, 1, 71, 0
1, 190013, Note_off_c, 1, 40, 0
1, 190020, Note_on_c, 1, 72, 127
1, 190020, Note_on_c, 1, 69, 127
1, 190020, Note_on_c, 1, 42, 127
1, 190043, Note_off_c, 1, 42, 0
1, 190067, Note_off_c, 1, 72, 0
1, 190067, Note_off_c, 1, 69, 0
1, 190080, Note_off_c, 1, 66, 0
1, 190080, Note_off_c, 1, 50, 0
1, 190080, Note_on_c, 1, 67, 127
1, 190080, Note_on_c, 1, 59, 127
1, 190080, Note_on_c, 1, 52, 127
1, 190139, Note_off_c, 1, 62, 0
1, 190139, Note_off_c, 1, 59, 0
1, 190140, Note_on_c, 1, 64, 127
1, 190140, Note_on_c, 1, 61, 127
1, 190170, Note_off_c, 1, 61, 0
1, 190170, Note_on_c, 1, 73, 127
1, 190193, Note_off_c, 1, 73, 0
1, 190199, Note_off_c, 1, 64, 0
1, 190200, Note_off_c, 1, 67, 0
1, 190200, Note_off_c, 1, 52, 0
1, 190200, Note_on_c, 1, 57, 127
1, 190200, Note_on_c, 1, 54, 127
1, 190230, Note_on_c, 1, 79, 127
1, 190253, Note_off_c, 1, 79, 0
1, 190259, Note_off_c, 1, 54, 0
1, 190260, Note_on_c, 1, 78, 127
1, 190260, Note_on_c, 1, 55, 127
1, 190283, Note_off_c, 1, 78, 0
1, 190290, Note_on_c, 1, 76, 127
1, 190313, Note_off_c, 1, 76, 0
1, 190319, Note_off_c, 1, 55, 0
1, 190500, Note_on_c, 1, 45, 127
1, 190559, Note_off_c, 1, 45, 0
1, 191040, Note_on_c, 1, 81, 127
1, 191087, Note_off_c, 1, 57, 0
1, 191087, Note_off_c, 1, 81, 0
1, 191100, Note_on_c, 1, 81, 127
1, 191100, Note_on_c, 1, 78, 127
1, 191100, Note_on_c, 1, 69, 127
1, 191100, Note_on_c, 1, 50, 127
1, 191100, Note_on_c, 1, 62, 127
1, 191130, Note_on_c, 1, 49, 127
1, 191147, Note_off_c, 1, 81, 0
1, 191147, Note_off_c, 1, 62, 0
1, 191148, Note_off_c, 1, 78, 0
1, 191148, Note_off_c, 1, 69, 0
1, 191148, Note_off_c, 1, 50, 0
1, 191153, Note_off_c, 1, 49, 0
1, 191160, Note_on_c, 1, 79, 127
1, 191160, Note_on_c, 1, 76, 127
1, 191160, Note_on_c, 1, 69, 127
1, 191160, Note_on_c, 1, 45, 127
1, 191160, Note_on_c, 1, 57, 127
1, 191160, Note_on_c, 1, 50, 127
1, 191183, Note_off_c, 1, 50, 0
1, 191190, Note_on_c, 1, 52, 127
1, 191207, Note_off_c, 1, 79, 0
1, 191207, Note_off_c, 1, 57, 0
1, 191208, Note_off_c, 1, 76, 0
1, 191208, Note_off_c, 1, 69, 0
1, 191208, Note_off_c, 1, 45, 0
1, 191213, Note_off_c, 1, 52, 0
1, 191220, Note_on_c, 1, 78, 127
1, 191220, Note_on_c, 1, 74, 127
1, 191220, Note_on_c, 1, 69, 127
1, 191220, Note_on_c, 1, 50, 127
1, 191220, Note_on_c, 1, 54, 127
1, 191243, Note_off_c, 1, 54, 0
1, 191250, Note_on_c, 1, 55, 127
1, 191267, Note_off_c, 1, 78, 0
1, 191268, Note_off_c, 1, 74, 0
1, 191268, Note_off_c, 1, 69, 0
1, 191268, Note_off_c, 1, 50, 0
1, 191273, Note_off_c, 1, 55, 0
1, 191280, Note_on_c, 1, 78, 127
1, 191280, Note_on_c, 1, 74, 127
1, 191280, Note_on_c, 1, 69, 127
1, 191280, Note_on_c, 1, 45, 127
1, 191280, Note_on_c, 1, 57, 127
1, 191303, Note_off_c, 1, 57, 0
1, 191310, Note_on_c, 1, 55, 127
1, 191327, Note_off_c, 1, 78, 0
1, 191328, Note_off_c, 1, 74, 0
1, 191328, Note_off_c, 1, 69, 0
1, 191328, Note_off_c, 1, 45, 0
1, 191333, Note_off_c, 1, 55, 0
1, 191340, Note_on_c, 1, 76, 127
1, 191340, Note_on_c, 1, 69, 127
1, 191340, Note_on_c, 1, 45, 127
1, 191340, Note_on_c, 1, 73, 127
1, 191340, Note_on_c, 1, 57, 127
1, 191370, Note_on_c, 1, 59, 127
1, 191387, Note_off_c, 1, 76, 0
1, 191387, Note_off_c, 1, 73, 0
1, 191387, Note_off_c, 1, 57, 0
1, 191388, Note_off_c, 1, 69, 0
1, 191388, Note_off_c, 1, 45, 0
1, 191393, Note_off_c, 1, 59, 0
1, 191400, Note_on_c, 1, 57, 127
1, 191423, Note_off_c, 1, 57, 0
1, 191430, Note_on_c, 1, 55, 127
1, 191453, Note_off_c, 1, 55, 0
1, 191460, Note_on_c, 1, 69, 127
1, 191460, Note_on_c, 1, 54, 127
1, 191483, Note_off_c, 1, 54, 0
1, 191490, Note_on_c, 1, 52, 127
1, 191507, Note_off_c, 1, 69, 0
1, 191513, Note_off_c, 1, 52, 0
1, 191520, Note_on_c, 1, 74, 127
1, 191520, Note_on_c, 1, 50, 127
1, 191543, Note_off_c, 1, 74, 0
1, 191550, Note_on_c, 1, 76, 127
1, 191567, Note_off_c, 1, 50, 0
1, 191573, Note_off_c, 1, 76, 0
1, 191580, Note_on_c, 1, 78, 127
1, 191580, Note_on_c, 1, 74, 127
1, 191580, Note_on_c, 1, 38, 127
1, 191603, Note_off_c, 1, 74, 0
1, 191627, Note_off_c, 1, 38, 0
1, 191651, Note_off_c, 1, 78, 0
1, 191670, Note_on_c, 1, 79, 127
1, 191693, Note_off_c, 1, 79, 0
1, 191700, Note_on_c, 1, 78, 127
1, 191700, Note_on_c, 1, 74, 127
1, 191700, Note_on_c, 1, 69, 127
1, 191723, Note_off_c, 1, 78, 0
1, 191723, Note_off_c, 1, 74, 0
1, 191723, Note_off_c, 1, 69, 0
1, 191730, Note_on_c, 1, 76, 127
1, 191753, Note_off_c, 1, 76, 0
1, 191760, Note_on_c, 1, 78, 127
1, 191760, Note_on_c, 1, 74, 127
1, 191760, Note_on_c, 1, 69, 127
1, 191783, Note_off_c, 1, 78, 0
1, 191783, Note_off_c, 1, 74, 0
1, 191783, Note_off_c, 1, 69, 0
1, 191790, Note_on_c, 1, 76, 127
1, 191813, Note_off_c, 1, 76, 0
1, 191820, Note_on_c, 1, 74, 127
1, 191820, Note_on_c, 1, 69, 127
1, 191820, Note_on_c, 1, 66, 127
1, 191843, Note_off_c, 1, 69, 0
1, 191843, Note_off_c, 1, 66, 0
1, 191891, Note_off_c, 1, 74, 0
1, 191910, Note_on_c, 1, 69, 127
1, 191933, Note_off_c, 1, 69, 0
1, 191940, Note_on_c, 1, 74, 127
1, 191940, Note_on_c, 1, 66, 127
1, 191940, Note_on_c, 1, 62, 127
1, 191963, Note_off_c, 1, 74, 0
1, 191963, Note_off_c, 1, 66, 0
1, 191963, Note_off_c, 1, 62, 0
1, 191970, Note_on_c, 1, 76, 127
1, 191993, Note_off_c, 1, 76, 0
1, 192000, Note_on_c, 1, 78, 127
1, 192000, Note_on_c, 1, 66, 127
1, 192000, Note_on_c, 1, 62, 127
1, 192023, Note_off_c, 1, 78, 0
1, 192023, Note_off_c, 1, 66, 0
1, 192023, Note_off_c, 1, 62, 0
1, 192030, Note_on_c, 1, 74, 127
1, 192053, Note_off_c, 1, 74, 0
1, 192060, Note_on_c, 1, 81, 127
1, 192060, Note_on_c, 1, 78, 127
1, 192060, Note_on_c, 1, 69, 127
1, 192060, Note_on_c, 1, 50, 127
1, 192060, Note_on_c, 1, 62, 127
1, 192090, Note_on_c, 1, 49, 127
1, 192107, Note_off_c, 1, 81, 0
1, 192107, Note_off_c, 1, 62, 0
1, 192108, Note_off_c, 1, 78, 0
1, 192108, Note_off_c, 1, 69, 0
1, 192108, Note_off_c, 1, 50, 0
1, 192113, Note_off_c, 1, 49, 0
1, 192120, Note_on_c, 1, 79, 127
1, 192120, Note_on_c, 1, 76, 127
1, 192120, Note_on_c, 1, 69, 127
1, 192120, Note_on_c, 1, 45, 127
1, 192120, Note_on_c, 1, 57, 127
1, 192120, Note_on_c, 1, 50, 127
1, 192143, Note_off_c, 1, 50, 0
1, 192150, Note_on_c, 1, 52, 127
1, 192167, Note_off_c, 1, 79, 0
1, 192167, Note_off_c, 1, 57, 0
1, 192168, Note_off_c, 1, 76, 0
1, 192168, Note_off_c, 1, 69, 0
1, 192168, Note_off_c, 1, 45, 0
1, 192173, Note_off_c, 1, 52, 0
1, 192180, Note_on_c, 1, 78, 127
1, 192180, Note_on_c, 1, 74, 127
1, 192180, Note_on_c, 1, 69, 127
1, 192180, Note_on_c, 1, 50, 127
1, 192180, Note_on_c, 1, 54, 127
1, 192203, Note_off_c, 1, 54, 0
1, 192210, Note_on_c, 1, 55, 127
1, 192227, Note_off_c, 1, 78, 0
1, 192228, Note_off_c, 1, 74, 0
1, 192228, Note_off_c, 1, 69, 0
1, 192228, Note_off_c, 1, 50, 0
1, 192233, Note_off_c, 1, 55, 0
1, 192240, Note_on_c, 1, 78, 127
1, 192240, Note_on_c, 1, 74, 127
1, 192240, Note_on_c, 1, 69, 127
1, 192240, Note_on_c, 1, 45, 127
1, 192240, Note_on_c, 1, 57, 127
1, 192263, Note_off_c, 1, 57, 0
1, 192270, Note_on_c, 1, 55, 127
1, 192287, Note_off_c, 1, 78, 0
1, 192288, Note_off_c, 1, 74, 0
1, 192288, Note_off_c, 1, 69, 0
1, 192288, Note_off_c, 1, 45, 0
1, 192293, Note_off_c, 1, 55, 0
1, 192300, Note_on_c, 1, 76, 127
1, 192300, Note_on_c, 1, 73, 127
1, 192300, Note_on_c, 1, 69, 127
1, 192300, Note_on_c, 1, 45, 127
1, 192300, Note_on_c, 1, 57, 127
1, 192330, Note_on_c, 1, 59, 127
1, 192347, Note_off_c, 1, 76, 0
1, 192347, Note_off_c, 1, 57, 0
1, 192348, Note_off_c, 1, 73, 0
1, 192348, Note_off_c, 1, 69, 0
1, 192348, Note_off_c, 1, 45, 0
1, 192353, Note_off_c, 1, 59, 0
1, 192360, Note_on_c, 1, 57, 127
1, 192383, Note_off_c, 1, 57, 0
1, 192390, Note_on_c, 1, 55, 127
1, 192413, Note_off_c, 1, 55, 0
1, 192420, Note_on_c, 1, 81, 127
1, 192420, Note_on_c, 1, 54, 127
1, 192443, Note_off_c, 1, 54, 0
1, 192450, Note_on_c, 1, 52, 127
1, 192467, Note_off_c, 1, 81, 0
1, 192473, Note_off_c, 1, 52, 0
1, 192480, Note_on_c, 1, 78, 127
1, 192480, Note_on_c, 1, 50, 127
1, 192491, Note_off_c, 1, 78, 0
1, 192527, Note_off_c, 1, 50, 0
1, 192540, Note_on_c, 1, 79, 127
1, 192540, Note_on_c, 1, 76, 127
1, 192540, Note_on_c, 1, 69, 127
1, 192540, Note_on_c, 1, 49, 127
1, 192563, Note_off_c, 1, 79, 0
1, 192564, Note_off_c, 1, 76, 0
1, 192564, Note_off_c, 1, 69, 0
1, 192570, Note_on_c, 1, 81, 127
1, 192587, Note_off_c, 1, 49, 0
1, 192593, Note_off_c, 1, 81, 0
1, 192600, Note_on_c, 1, 78, 127
1, 192600, Note_on_c, 1, 69, 127
1, 192600, Note_on_c, 1, 50, 127
1, 192624, Note_off_c, 1, 78, 0
1, 192624, Note_off_c, 1, 69, 0
1, 192647, Note_off_c, 1, 50, 0
1, 192660, Note_on_c, 1, 79, 127
1, 192660, Note_on_c, 1, 76, 127
1, 192660, Note_on_c, 1, 69, 127
1, 192660, Note_on_c, 1, 49, 127
1, 192683, Note_off_c, 1, 79, 0
1, 192684, Note_off_c, 1, 76, 0
1, 192684, Note_off_c, 1, 69, 0
1, 192690, Note_on_c, 1, 81, 127
1, 192707, Note_off_c, 1, 49, 0
1, 192713, Note_off_c, 1, 81, 0
1, 192720, Note_on_c, 1, 78, 127
1, 192720, Note_on_c, 1, 74, 127
1, 192720, Note_on_c, 1, 69, 127
1, 192720, Note_on_c, 1, 50, 127
1, 192744, Note_off_c, 1, 78, 0
1, 192744, Note_off_c, 1, 74, 0
1, 192744, Note_off_c, 1, 69, 0
1, 192767, Note_off_c, 1, 50, 0
1, 192780, Note_on_c, 1, 83, 127
1, 192780, Note_on_c, 1, 78, 127
1, 192780, Note_on_c, 1, 74, 127
1, 192780, Note_on_c, 1, 50, 127
1, 192780, Note_on_c, 1, 62, 127
1, 192803, Note_off_c, 1, 83, 0
1, 192803, Note_off_c, 1, 78, 0
1, 192803, Note_off_c, 1, 74, 0
1, 192803, Note_off_c, 1, 50, 0
1, 192803, Note_off_c, 1, 62, 0
1, 192810, Note_on_c, 1, 76, 127
1, 192810, Note_on_c, 1, 69, 127
1, 192810, Note_on_c, 1, 50, 127
1, 192810, Note_on_c, 1, 81, 127
1, 192810, Note_on_c, 1, 61, 127
1, 192833, Note_off_c, 1, 76, 0
1, 192833, Note_off_c, 1, 69, 0
1, 192833, Note_off_c, 1, 50, 0
1, 192833, Note_off_c, 1, 81, 0
1, 192833, Note_off_c, 1, 61, 0
1, 192840, Note_on_c, 1, 78, 127
1, 192840, Note_on_c, 1, 66, 127
1, 192840, Note_on_c, 1, 50, 127
1, 192840, Note_on_c, 1, 83, 127
1, 192840, Note_on_c, 1, 62, 127
1, 192870, Note_on_c, 1, 81, 127
1, 192887, Note_off_c, 1, 83, 0
1, 192887, Note_off_c, 1, 62, 0
1, 192888, Note_off_c, 1, 78, 0
1, 192888, Note_off_c, 1, 66, 0
1, 192888, Note_off_c, 1, 50, 0
1, 192893, Note_off_c, 1, 81, 0
1, 192900, Note_on_c, 1, 79, 127
1, 192900, Note_on_c, 1, 59, 127
1, 192923, Note_off_c, 1, 79, 0
1, 192930, Note_on_c, 1, 78, 127
1, 192947, Note_off_c, 1, 59, 0
1, 192953, Note_off_c, 1, 78, 0
1, 192960, Note_on_c, 1, 76, 127
1, 192960, Note_on_c, 1, 49, 127
1, 192971, Note_off_c, 1, 76, 0
1, 193007, Note_off_c, 1, 49, 0
1, 193020, Note_on_c, 1, 78, 127
1, 193020, Note_on_c, 1, 74, 127
1, 193020, Note_on_c, 1, 69, 127
1, 193020, Note_on_c, 1, 47, 127
1, 193043, Note_off_c, 1, 78, 0
1, 193044, Note_off_c, 1, 74, 0
1, 193044, Note_off_c, 1, 69, 0
1, 193050, Note_on_c, 1, 79, 127
1, 193067, Note_off_c, 1, 47, 0
1, 193073, Note_off_c, 1, 79, 0
1, 193080, Note_on_c, 1, 76, 127
1, 193080, Note_on_c, 1, 69, 127
1, 193080, Note_on_c, 1, 49, 127
1, 193104, Note_off_c, 1, 76, 0
1, 193104, Note_off_c, 1, 69, 0
1, 193127, Note_off_c, 1, 49, 0
1, 193140, Note_on_c, 1, 78, 127
1, 193140, Note_on_c, 1, 74, 127
1, 193140, Note_on_c, 1, 69, 127
1, 193140, Note_on_c, 1, 71, 127
1, 193140, Note_on_c, 1, 47, 127
1, 193163, Note_off_c, 1, 78, 0
1, 193164, Note_off_c, 1, 74, 0
1, 193164, Note_off_c, 1, 69, 0
1, 193164, Note_off_c, 1, 71, 0
1, 193170, Note_on_c, 1, 79, 127
1, 193187, Note_off_c, 1, 47, 0
1, 193193, Note_off_c, 1, 79, 0
1, 193200, Note_on_c, 1, 76, 127
1, 193200, Note_on_c, 1, 69, 127
1, 193200, Note_on_c, 1, 64, 127
1, 193200, Note_on_c, 1, 49, 127
1, 193224, Note_off_c, 1, 76, 0
1, 193224, Note_off_c, 1, 69, 0
1, 193224, Note_off_c, 1, 64, 0
1, 193247, Note_off_c, 1, 49, 0
1, 193260, Note_on_c, 1, 81, 127
1, 193260, Note_on_c, 1, 76, 127
1, 193260, Note_on_c, 1, 69, 127
1, 193260, Note_on_c, 1, 45, 127
1, 193260, Note_on_c, 1, 57, 127
1, 193260, Note_on_c, 1, 61, 127
1, 193283, Note_off_c, 1, 81, 0
1, 193283, Note_off_c, 1, 76, 0
1, 193283, Note_off_c, 1, 69, 0
1, 193283, Note_off_c, 1, 45, 0
1, 193283, Note_off_c, 1, 57, 0
1, 193283, Note_off_c, 1, 61, 0
1, 193290, Note_on_c, 1, 74, 127
1, 193290, Note_on_c, 1, 69, 127
1, 193290, Note_on_c, 1, 45, 127
1, 193290, Note_on_c, 1, 79, 127
1, 193290, Note_on_c, 1, 59, 127
1, 193313, Note_off_c, 1, 74, 0
1, 193313, Note_off_c, 1, 69, 0
1, 193313, Note_off_c, 1, 45, 0
1, 193313, Note_off_c, 1, 79, 0
1, 193313, Note_off_c, 1, 59, 0
1, 193320, Note_on_c, 1, 76, 127
1, 193320, Note_on_c, 1, 69, 127
1, 193320, Note_on_c, 1, 45, 127
1, 193320, Note_on_c, 1, 81, 127
1, 193320, Note_on_c, 1, 57, 127
1, 193320, Note_on_c, 1, 61, 127
1, 193350, Note_on_c, 1, 79, 127
1, 193367, Note_off_c, 1, 81, 0
1, 193367, Note_off_c, 1, 57, 0
1, 193367, Note_off_c, 1, 61, 0
1, 193368, Note_off_c, 1, 76, 0
1, 193368, Note_off_c, 1, 69, 0
1, 193368, Note_off_c, 1, 45, 0
1, 193373, Note_off_c, 1, 79, 0
1, 193380, Note_on_c, 1, 78, 127
1, 193380, Note_on_c, 1, 57, 127
1, 193403, Note_off_c, 1, 78, 0
1, 193410, Note_on_c, 1, 76, 127
1, 193427, Note_off_c, 1, 57, 0
1, 193433, Note_off_c, 1, 76, 0
1, 193440, Note_on_c, 1, 74, 127
1, 193440, Note_on_c, 1, 71, 127
1, 193440, Note_on_c, 1, 66, 127
1, 193440, Note_on_c, 1, 47, 127
1, 193470, Note_on_c, 1, 86, 127
1, 193487, Note_off_c, 1, 47, 0
1, 193493, Note_off_c, 1, 86, 0
1, 193500, Note_on_c, 1, 85, 127
1, 193500, Note_on_c, 1, 78, 127
1, 193500, Note_on_c, 1, 59, 127
1, 193523, Note_off_c, 1, 85, 0
1, 193530, Note_on_c, 1, 83, 127
1, 193547, Note_off_c, 1, 78, 0
1, 193547, Note_off_c, 1, 59, 0
1, 193553, Note_off_c, 1, 83, 0
1, 193560, Note_on_c, 1, 57, 127
1, 193607, Note_off_c, 1, 57, 0
1, 193620, Note_on_c, 1, 45, 127
1, 193631, Note_off_c, 1, 66, 0
1, 193650, Note_on_c, 1, 81, 127
1, 193667, Note_off_c, 1, 45, 0
1, 193673, Note_off_c, 1, 81, 0
1, 193680, Note_on_c, 1, 43, 127
1, 193727, Note_off_c, 1, 43, 0
1, 193740, Note_on_c, 1, 79, 127
1, 193740, Note_on_c, 1, 55, 127
1, 193787, Note_off_c, 1, 55, 0
1, 193793, Note_off_c, 1, 79, 0
1, 193800, Note_on_c, 1, 62, 127
1, 193800, Note_on_c, 1, 54, 127
1, 193847, Note_off_c, 1, 54, 0
1, 193860, Note_on_c, 1, 42, 127
1, 193872, Note_off_c, 1, 74, 0
1, 193872, Note_off_c, 1, 71, 0
1, 193895, Note_off_c, 1, 62, 0
1, 193907, Note_off_c, 1, 42, 0
1, 193920, Note_on_c, 1, 79, 127
1, 193920, Note_on_c, 1, 64, 127
1, 193920, Note_on_c, 1, 40, 127
1, 193943, Note_off_c, 1, 40, 0
1, 193950, Note_on_c, 1, 42, 127
1, 193967, Note_off_c, 1, 79, 0
1, 193967, Note_off_c, 1, 64, 0
1, 193973, Note_off_c, 1, 42, 0
1, 193980, Note_on_c, 1, 76, 127
1, 193980, Note_on_c, 1, 83, 127
1, 193980, Note_on_c, 1, 79, 127
1, 193980, Note_on_c, 1, 64, 127
1, 193980, Note_on_c, 1, 59, 127
1, 193980, Note_on_c, 1, 43, 127
1, 194003, Note_off_c, 1, 79, 0
1, 194003, Note_off_c, 1, 64, 0
1, 194003, Note_off_c, 1, 43, 0
1, 194010, Note_on_c, 1, 81, 127
1, 194010, Note_on_c, 1, 78, 127
1, 194010, Note_on_c, 1, 66, 127
1, 194010, Note_on_c, 1, 45, 127
1, 194027, Note_off_c, 1, 76, 0
1, 194027, Note_off_c, 1, 83, 0
1, 194027, Note_off_c, 1, 59, 0
1, 194033, Note_off_c, 1, 81, 0
1, 194033, Note_off_c, 1, 78, 0
1, 194033, Note_off_c, 1, 66, 0
1, 194033, Note_off_c, 1, 45, 0
1, 194040, Note_on_c, 1, 76, 127
1, 194040, Note_on_c, 1, 79, 127
1, 194040, Note_on_c, 1, 67, 127
1, 194040, Note_on_c, 1, 64, 127
1, 194040, Note_on_c, 1, 47, 127
1, 194063, Note_off_c, 1, 67, 0
1, 194063, Note_off_c, 1, 47, 0
1, 194070, Note_on_c, 1, 49, 127
1, 194087, Note_off_c, 1, 76, 0
1, 194087, Note_off_c, 1, 79, 0
1, 194093, Note_off_c, 1, 64, 0
1, 194093, Note_off_c, 1, 49, 0
1, 194100, Note_on_c, 1, 69, 127
1, 194100, Note_on_c, 1, 66, 127
1, 194100, Note_on_c, 1, 74, 127
1, 194100, Note_on_c, 1, 50, 127
1, 194123, Note_off_c, 1, 66, 0
1, 194123, Note_off_c, 1, 50, 0
1, 194130, Note_on_c, 1, 67, 127
1, 194130, Note_on_c, 1, 47, 127
1, 194147, Note_off_c, 1, 69, 0
1, 194147, Note_off_c, 1, 74, 0
1, 194153, Note_off_c, 1, 67, 0
1, 194153, Note_off_c, 1, 47, 0
1, 194160, Note_on_c, 1, 69, 127
1, 194160, Note_on_c, 1, 49, 127
1, 194183, Note_off_c, 1, 49, 0
1, 194190, Note_on_c, 1, 64, 127
1, 194190, Note_on_c, 1, 45, 127
1, 194207, Note_off_c, 1, 69, 0
1, 194213, Note_off_c, 1, 64, 0
1, 194213, Note_off_c, 1, 45, 0
1, 194220, Note_on_c, 1, 79, 127
1, 194220, Note_on_c, 1, 76, 127
1, 194220, Note_on_c, 1, 69, 127
1, 194220, Note_on_c, 1, 45, 127
1, 194220, Note_on_c, 1, 49, 127
1, 194243, Note_off_c, 1, 49, 0
1, 194244, Note_off_c, 1, 45, 0
1, 194250, Note_on_c, 1, 78, 127
1, 194250, Note_on_c, 1, 73, 127
1, 194250, Note_on_c, 1, 52, 127
1, 194267, Note_off_c, 1, 79, 0
1, 194273, Note_off_c, 1, 78, 0
1, 194273, Note_off_c, 1, 73, 0
1, 194273, Note_off_c, 1, 52, 0
1, 194274, Note_off_c, 1, 76, 0
1, 194274, Note_off_c, 1, 69, 0
1, 194280, Note_on_c, 1, 76, 127
1, 194280, Note_on_c, 1, 69, 127
1, 194280, Note_on_c, 1, 45, 127
1, 194280, Note_on_c, 1, 79, 127
1, 194280, Note_on_c, 1, 73, 127
1, 194280, Note_on_c, 1, 64, 127
1, 194280, Note_on_c, 1, 57, 127
1, 194327, Note_off_c, 1, 79, 0
1, 194327, Note_off_c, 1, 64, 0
1, 194327, Note_off_c, 1, 57, 0
1, 194328, Note_off_c, 1, 76, 0
1, 194328, Note_off_c, 1, 69, 0
1, 194328, Note_off_c, 1, 45, 0
1, 194333, Note_off_c, 1, 73, 0
1, 194340, Note_on_c, 1, 81, 127
1, 194340, Note_on_c, 1, 76, 127
1, 194340, Note_on_c, 1, 69, 127
1, 194340, Note_on_c, 1, 45, 127
1, 194340, Note_on_c, 1, 64, 127
1, 194340, Note_on_c, 1, 49, 127
1, 194387, Note_off_c, 1, 64, 0
1, 194387, Note_off_c, 1, 49, 0
1, 194388, Note_off_c, 1, 76, 0
1, 194388, Note_off_c, 1, 69, 0
1, 194388, Note_off_c, 1, 45, 0
1, 194393, Note_off_c, 1, 81, 0
1, 194400, Note_on_c, 1, 79, 127
1, 194400, Note_on_c, 1, 74, 127
1, 194400, Note_on_c, 1, 69, 127
1, 194400, Note_on_c, 1, 50, 127
1, 194400, Note_on_c, 1, 66, 127
1, 194423, Note_off_c, 1, 79, 0
1, 194430, Note_on_c, 1, 78, 127
1, 194447, Note_off_c, 1, 66, 0
1, 194448, Note_off_c, 1, 74, 0
1, 194448, Note_off_c, 1, 69, 0
1, 194448, Note_off_c, 1, 50, 0
1, 194453, Note_off_c, 1, 78, 0
1, 194460, Note_on_c, 1, 76, 127
1, 194460, Note_on_c, 1, 78, 127
1, 194460, Note_on_c, 1, 62, 127
1, 194460, Note_on_c, 1, 50, 127
1, 194460, Note_on_c, 1, 74, 127
1, 194460, Note_on_c, 1, 71, 127
1, 194460, Note_on_c, 1, 66, 127
1, 194460, Note_on_c, 1, 47, 127
1, 194483, Note_off_c, 1, 76, 0
1, 194484, Note_off_c, 1, 62, 0
1, 194484, Note_off_c, 1, 50, 0
1, 194507, Note_off_c, 1, 71, 0
1, 194507, Note_off_c, 1, 66, 0
1, 194507, Note_off_c, 1, 47, 0
1, 194508, Note_off_c, 1, 78, 0
1, 194513, Note_off_c, 1, 74, 0
1, 194520, Note_on_c, 1, 78, 127
1, 194520, Note_on_c, 1, 83, 127
1, 194520, Note_on_c, 1, 62, 127
1, 194520, Note_on_c, 1, 50, 127
1, 194520, Note_on_c, 1, 74, 127
1, 194520, Note_on_c, 1, 71, 127
1, 194520, Note_on_c, 1, 59, 127
1, 194520, Note_on_c, 1, 43, 127
1, 194567, Note_off_c, 1, 78, 0
1, 194567, Note_off_c, 1, 74, 0
1, 194567, Note_off_c, 1, 71, 0
1, 194567, Note_off_c, 1, 59, 0
1, 194567, Note_off_c, 1, 43, 0
1, 194568, Note_off_c, 1, 83, 0
1, 194568, Note_off_c, 1, 62, 0
1, 194568, Note_off_c, 1, 50, 0
1, 194580, Note_on_c, 1, 76, 127
1, 194580, Note_on_c, 1, 81, 127
1, 194580, Note_on_c, 1, 69, 127
1, 194580, Note_on_c, 1, 45, 127
1, 194580, Note_on_c, 1, 73, 127
1, 194580, Note_on_c, 1, 64, 127
1, 194604, Note_off_c, 1, 81, 0
1, 194610, Note_on_c, 1, 79, 127
1, 194627, Note_off_c, 1, 76, 0
1, 194627, Note_off_c, 1, 73, 0
1, 194627, Note_off_c, 1, 64, 0
1, 194628, Note_off_c, 1, 69, 0
1, 194628, Note_off_c, 1, 45, 0
1, 194634, Note_off_c, 1, 79, 0
1, 194640, Note_on_c, 1, 74, 127
1, 194640, Note_on_c, 1, 78, 127
1, 194640, Note_on_c, 1, 62, 127
1, 194640, Note_on_c, 1, 50, 127
1, 194640, Note_on_c, 1, 66, 127
1, 194640, Note_on_c, 1, 71, 127
1, 194640, Note_on_c, 1, 47, 127
1, 194687, Note_off_c, 1, 66, 0
1, 194687, Note_off_c, 1, 71, 0
1, 194687, Note_off_c, 1, 47, 0
1, 194688, Note_off_c, 1, 78, 0
1, 194688, Note_off_c, 1, 62, 0
1, 194688, Note_off_c, 1, 50, 0
1, 194700, Note_on_c, 1, 86, 127
1, 194700, Note_on_c, 1, 59, 127
1, 194723, Note_off_c, 1, 86, 0
1, 194723, Note_off_c, 1, 59, 0
1, 194730, Note_on_c, 1, 85, 127
1, 194730, Note_on_c, 1, 57, 127
1, 194753, Note_off_c, 1, 85, 0
1, 194753, Note_off_c, 1, 57, 0
1, 194759, Note_off_c, 1, 74, 0
1, 194760, Note_on_c, 1, 86, 127
1, 194760, Note_on_c, 1, 59, 127
1, 194790, Note_on_c, 1, 76, 127
1, 194801, Note_off_c, 1, 76, 0
1, 194805, Note_on_c, 1, 78, 127
1, 194807, Note_off_c, 1, 86, 0
1, 194807, Note_off_c, 1, 59, 0
1, 194816, Note_off_c, 1, 78, 0
1, 194820, Note_on_c, 1, 79, 127
1, 194820, Note_on_c, 1, 74, 127
1, 194820, Note_on_c, 1, 71, 127
1, 194820, Note_on_c, 1, 47, 127
1, 194850, Note_on_c, 1, 78, 127
1, 194861, Note_off_c, 1, 78, 0
1, 194865, Note_on_c, 1, 76, 127
1, 194867, Note_off_c, 1, 79, 0
1, 194867, Note_off_c, 1, 74, 0
1, 194867, Note_off_c, 1, 71, 0
1, 194867, Note_off_c, 1, 47, 0
1, 194876, Note_off_c, 1, 76, 0
1, 194880, Note_on_c, 1, 74, 127
1, 194880, Note_on_c, 1, 81, 127
1, 194880, Note_on_c, 1, 66, 127
1, 194880, Note_on_c, 1, 50, 127
1, 194880, Note_on_c, 1, 69, 127
1, 194880, Note_on_c, 1, 42, 127
1, 194927, Note_off_c, 1, 69, 0
1, 194927, Note_off_c, 1, 42, 0
1, 194928, Note_off_c, 1, 81, 0
1, 194928, Note_off_c, 1, 66, 0
1, 194928, Note_off_c, 1, 50, 0
1, 194940, Note_on_c, 1, 54, 127
1, 194963, Note_off_c, 1, 54, 0
1, 194970, Note_on_c, 1, 79, 127
1, 194970, Note_on_c, 1, 52, 127
1, 194993, Note_off_c, 1, 79, 0
1, 194993, Note_off_c, 1, 52, 0
1, 194999, Note_off_c, 1, 74, 0
1, 195000, Note_on_c, 1, 81, 127
1, 195000, Note_on_c, 1, 54, 127
1, 195030, Note_on_c, 1, 76, 127
1, 195041, Note_off_c, 1, 76, 0
1, 195045, Note_on_c, 1, 78, 127
1, 195047, Note_off_c, 1, 81, 0
1, 195047, Note_off_c, 1, 54, 0
1, 195056, Note_off_c, 1, 78, 0
1, 195060, Note_on_c, 1, 79, 127
1, 195060, Note_on_c, 1, 74, 127
1, 195060, Note_on_c, 1, 81, 127
1, 195060, Note_on_c, 1, 72, 127
1, 195060, Note_on_c, 1, 69, 127
1, 195060, Note_on_c, 1, 50, 127
1, 195083, Note_off_c, 1, 79, 0
1, 195090, Note_on_c, 1, 78, 127
1, 195101, Note_off_c, 1, 78, 0
1, 195105, Note_on_c, 1, 76, 127
1, 195107, Note_off_c, 1, 74, 0
1, 195107, Note_off_c, 1, 81, 0
1, 195107, Note_off_c, 1, 72, 0
1, 195107, Note_off_c, 1, 69, 0
1, 195107, Note_off_c, 1, 50, 0
1, 195116, Note_off_c, 1, 76, 0
1, 195120, Note_on_c, 1, 74, 127
1, 195120, Note_on_c, 1, 83, 127
1, 195120, Note_on_c, 1, 79, 127
1, 195120, Note_on_c, 1, 71, 127
1, 195120, Note_on_c, 1, 67, 127
1, 195120, Note_on_c, 1, 55, 127
1, 195143, Note_off_c, 1, 74, 0
1, 195150, Note_on_c, 1, 76, 127
1, 195161, Note_off_c, 1, 76, 0
1, 195165, Note_on_c, 1, 78, 127
1, 195167, Note_off_c, 1, 83, 0
1, 195167, Note_off_c, 1, 79, 0
1, 195167, Note_off_c, 1, 71, 0
1, 195167, Note_off_c, 1, 67, 0
1, 195167, Note_off_c, 1, 55, 0
1, 195176, Note_off_c, 1, 78, 0
1, 195180, Note_on_c, 1, 79, 127
1, 195180, Note_on_c, 1, 43, 127
1, 195203, Note_off_c, 1, 79, 0
1, 195210, Note_on_c, 1, 78, 127
1, 195221, Note_off_c, 1, 78, 0
1, 195225, Note_on_c, 1, 76, 127
1, 195227, Note_off_c, 1, 43, 0
1, 195236, Note_off_c, 1, 76, 0
1, 195240, Note_on_c, 1, 74, 127
1, 195240, Note_on_c, 1, 81, 127
1, 195240, Note_on_c, 1, 69, 127
1, 195240, Note_on_c, 1, 42, 127
1, 195270, Note_on_c, 1, 76, 127
1, 195281, Note_off_c, 1, 76, 0
1, 195285, Note_on_c, 1, 78, 127
1, 195287, Note_off_c, 1, 74, 0
1, 195287, Note_off_c, 1, 81, 0
1, 195287, Note_off_c, 1, 69, 0
1, 195287, Note_off_c, 1, 42, 0
1, 195296, Note_off_c, 1, 78, 0
1, 195300, Note_on_c, 1, 79, 127
1, 195300, Note_on_c, 1, 54, 127
1, 195323, Note_off_c, 1, 79, 0
1, 195330, Note_on_c, 1, 78, 127
1, 195341, Note_off_c, 1, 78, 0
1, 195345, Note_on_c, 1, 76, 127
1, 195347, Note_off_c, 1, 54, 0
1, 195356, Note_off_c, 1, 76, 0
1, 195360, Note_on_c, 1, 74, 127
1, 195360, Note_on_c, 1, 80, 127
1, 195360, Note_on_c, 1, 76, 127
1, 195360, Note_on_c, 1, 71, 127
1, 195360, Note_on_c, 1, 52, 127
1, 195407, Note_off_c, 1, 74, 0
1, 195407, Note_off_c, 1, 80, 0
1, 195407, Note_off_c, 1, 76, 0
1, 195407, Note_off_c, 1, 71, 0
1, 195407, Note_off_c, 1, 52, 0
1, 195420, Note_on_c, 1, 80, 127
1, 195420, Note_on_c, 1, 74, 127
1, 195420, Note_on_c, 1, 40, 127
1, 195443, Note_off_c, 1, 80, 0
1, 195443, Note_off_c, 1, 74, 0
1, 195450, Note_on_c, 1, 73, 127
1, 195467, Note_off_c, 1, 40, 0
1, 195473, Note_off_c, 1, 73, 0
1, 195480, Note_on_c, 1, 71, 127
1, 195480, Note_on_c, 1, 68, 127
1, 195480, Note_on_c, 1, 76, 127
1, 195480, Note_on_c, 1, 38, 127
1, 195510, Note_on_c, 1, 83, 127
1, 195527, Note_off_c, 1, 71, 0
1, 195527, Note_off_c, 1, 68, 0
1, 195527, Note_off_c, 1, 76, 0
1, 195527, Note_off_c, 1, 38, 0
1, 195533, Note_off_c, 1, 83, 0
1, 195540, Note_on_c, 1, 81, 127
1, 195540, Note_on_c, 1, 83, 127
1, 195540, Note_on_c, 1, 50, 127
1, 195563, Note_off_c, 1, 81, 0
1, 195570, Note_on_c, 1, 80, 127
1, 195587, Note_off_c, 1, 83, 0
1, 195587, Note_off_c, 1, 50, 0
1, 195593, Note_off_c, 1, 80, 0
1, 195600, Note_on_c, 1, 81, 127
1, 195600, Note_on_c, 1, 64, 127
1, 195600, Note_on_c, 1, 76, 127
1, 195600, Note_on_c, 1, 49, 127
1, 195623, Note_off_c, 1, 49, 0
1, 195630, Note_on_c, 1, 62, 127
1, 195647, Note_off_c, 1, 81, 0
1, 195647, Note_off_c, 1, 64, 0
1, 195647, Note_off_c, 1, 76, 0
1, 195653, Note_off_c, 1, 62, 0
1, 195660, Note_on_c, 1, 69, 127
1, 195660, Note_on_c, 1, 61, 127
1, 195683, Note_off_c, 1, 61, 0
1, 195690, Note_on_c, 1, 71, 127
1, 195690, Note_on_c, 1, 59, 127
1, 195707, Note_off_c, 1, 69, 0
1, 195713, Note_off_c, 1, 71, 0
1, 195713, Note_off_c, 1, 59, 0
1, 195720, Note_on_c, 1, 73, 127
1, 195720, Note_on_c, 1, 76, 127
1, 195720, Note_on_c, 1, 69, 127
1, 195720, Note_on_c, 1, 57, 127
1, 195743, Note_off_c, 1, 57, 0
1, 195750, Note_on_c, 1, 55, 127
1, 195767, Note_off_c, 1, 73, 0
1, 195767, Note_off_c, 1, 76, 0
1, 195767, Note_off_c, 1, 69, 0
1, 195773, Note_off_c, 1, 55, 0
1, 195780, Note_on_c, 1, 79, 127
1, 195780, Note_on_c, 1, 54, 127
1, 195803, Note_off_c, 1, 54, 0
1, 195810, Note_on_c, 1, 52, 127
1, 195827, Note_off_c, 1, 79, 0
1, 195833, Note_off_c, 1, 52, 0
1, 195840, Note_on_c, 1, 78, 127
1, 195840, Note_on_c, 1, 69, 127
1, 195840, Note_on_c, 1, 50, 127
1, 195863, Note_off_c, 1, 50, 0
1, 195870, Note_on_c, 1, 49, 127
1, 195887, Note_off_c, 1, 78, 0
1, 195887, Note_off_c, 1, 69, 0
1, 195893, Note_off_c, 1, 49, 0
1, 195900, Note_on_c, 1, 86, 127
1, 195900, Note_on_c, 1, 78, 127
1, 195900, Note_on_c, 1, 74, 127
1, 195900, Note_on_c, 1, 50, 127
1, 195900, Note_on_c, 1, 71, 127
1, 195900, Note_on_c, 1, 47, 127
1, 195923, Note_off_c, 1, 47, 0
1, 195924, Note_off_c, 1, 50, 0
1, 195930, Note_on_c, 1, 45, 127
1, 195947, Note_off_c, 1, 86, 0
1, 195947, Note_off_c, 1, 71, 0
1, 195948, Note_off_c, 1, 78, 0
1, 195948, Note_off_c, 1, 74, 0
1, 195953, Note_off_c, 1, 45, 0
1, 195960, Note_on_c, 1, 76, 127
1, 195960, Note_on_c, 1, 83, 127
1, 195960, Note_on_c, 1, 79, 127
1, 195960, Note_on_c, 1, 50, 127
1, 195960, Note_on_c, 1, 64, 127
1, 195960, Note_on_c, 1, 43, 127
1, 196007, Note_off_c, 1, 76, 0
1, 196007, Note_off_c, 1, 64, 0
1, 196007, Note_off_c, 1, 43, 0
1, 196008, Note_off_c, 1, 83, 0
1, 196008, Note_off_c, 1, 79, 0
1, 196008, Note_off_c, 1, 50, 0
1, 196020, Note_on_c, 1, 85, 127
1, 196020, Note_on_c, 1, 81, 127
1, 196020, Note_on_c, 1, 76, 127
1, 196020, Note_on_c, 1, 45, 127
1, 196020, Note_on_c, 1, 69, 127
1, 196067, Note_off_c, 1, 85, 0
1, 196067, Note_off_c, 1, 69, 0
1, 196068, Note_off_c, 1, 81, 0
1, 196068, Note_off_c, 1, 76, 0
1, 196068, Note_off_c, 1, 45, 0
1, 196080, Note_on_c, 1, 86, 127
1, 196080, Note_on_c, 1, 81, 127
1, 196080, Note_on_c, 1, 78, 127
1, 196080, Note_on_c, 1, 50, 127
1, 196080, Note_on_c, 1, 74, 127
1, 196080, Note_on_c, 1, 69, 127
1, 196080, Note_on_c, 1, 38, 127
1, 196224, Note_off_c, 1, 86, 0
1, 196224, Note_off_c, 1, 81, 0
1, 196224, Note_off_c, 1, 78, 0
1, 196224, Note_off_c, 1, 50, 0
1, 196224, Note_off_c, 1, 74, 0
1, 196224, Note_off_c, 1, 69, 0
1, 196224, Note_off_c, 1, 38, 0
1, 196224, End_track
0, 0, End_of_file