0, 0, Header, 1, 1, 480
1, 0, Start_track
1, 0, Title_t, "Test"
1, 0, Tempo, 500000
1, 0, Instrument_name_t, "Church Organ"
1, 0, Note_on_c, 1, 74, 127
1, 0, Note_on_c, 1, 69, 127
1, 0, Note_on_c, 1, 66, 127
1, 0, Note_on_c, 1, 50, 127
1, 60, Note_off_c, 1, 74, 0
1, 60, Note_on_c, 1, 62, 127
1, 60, Note_on_c, 1, 76, 127
1, 60, Note_on_c, 1, 38, 127
1, 90, Note_off_c, 1, 76, 0
1, 90, Note_on_c, 1, 78, 127
1, 120, Note_off_c, 1, 69, 0
1, 120, Note_off_c, 1, 50, 0
1, 120, Note_off_c, 1, 78, 0
1, 120, Note_on_c, 1, 79, 127
1, 120, Note_on_c, 1, 57, 127
1, 150, Note_off_c, 1, 79, 0
1, 150, Note_on_c, 1, 81, 127
1, 180, Note_off_c, 1, 66, 0
1, 180, Note_off_c, 1, 81, 0
1, 180, Note_on_c, 1, 83, 127
1, 180, Note_on_c, 1, 54, 127
1, 210, Note_off_c, 1, 83, 0
1, 210, Note_on_c, 1, 85, 127
1, 240, Note_off_c, 1, 62, 0
1, 240, Note_off_c, 1, 85, 0
1, 240, Note_on_c, 1, 86, 127
1, 270, Note_off_c, 1, 86, 0
1, 300, Note_off_c, 1, 57, 0
1, 360, Note_off_c, 1, 38, 0
1, 360, Note_off_c, 1, 54, 0
1, 420, Note_on_c, 1, 67, 127
1, 450, Note_off_c, 1, 67, 0
1, 480, Note_on_c, 1, 71, 127
1, 510, Note_off_c, 1, 71, 0
1, 510, Note_on_c, 1, 73, 127
1, 540, Note_off_c, 1, 73, 0
1, 780, Note_on_c, 1, 64, 127
1, 810, Note_off_c, 1, 64, 0
1, 1140, Note_on_c, 1, 59, 127
1, 1140, Note_on_c, 1, 55, 127
1, 1170, Note_off_c, 1, 59, 0
1, 1170, Note_off_c, 1, 55, 0
1, 1170, Note_on_c, 1, 61, 127
1, 1200, Note_off_c, 1, 61, 0
1, 1500, Note_on_c, 1, 52, 127
1, 1529, Note_off_c, 1, 52, 0
1, 1830, Note_on_c, 1, 47, 127
1, 1859, Note_off_c, 1, 47, 0
1, 1860, Note_on_c, 1, 49, 127
1, 1889, Note_off_c, 1, 49, 0
1, 2100, Note_on_c, 1, 80, 127
1, 2129, Note_off_c, 1, 80, 0
1, 2160, Note_on_c, 1, 56, 127
1, 2189, Note_off_c, 1, 56, 0
1, 2220, Note_on_c, 1, 68, 127
1, 2249, Note_off_c, 1, 68, 0
1, 2520, Note_on_c, 1, 45, 127
1, 2549, Note_off_c, 1, 45, 0
1, 2550, Note_on_c, 1, 40, 127
1, 2579, Note_off_c, 1, 40, 0
1, 2580, Note_on_c, 1, 42, 127
1, 2609, Note_off_c, 1, 42, 0
1, 2610, Note_on_c, 1, 44, 127
1, 2639, Note_off_c, 1, 44, 0
1, 3060, Note_on_c, 1, 76, 127
1, 3060, Note_on_c, 1, 73, 127
1, 3060, Note_on_c, 1, 66, 127
1, 3089, Note_off_c, 1, 66, 0
1, 3090, Note_on_c, 1, 67, 127
1, 3119, Note_off_c, 1, 76, 0
1, 3119, Note_off_c, 1, 73, 0
1, 3119, Note_off_c, 1, 67, 0
1, 3120, Note_on_c, 1, 76, 127
1, 3120, Note_on_c, 1, 73, 127
1, 3120, Note_on_c, 1, 69, 127
1, 3149, Note_off_c, 1, 69, 0
1, 3150, Note_on_c, 1, 67, 127
1, 3179, Note_off_c, 1, 76, 0
1, 3179, Note_off_c, 1, 73, 0
1, 3179, Note_off_c, 1, 67, 0
1, 3180, Note_on_c, 1, 78, 127
1, 3180, Note_on_c, 1, 74, 127
1, 3180, Note_on_c, 1, 69, 127
1, 3209, Note_off_c, 1, 78, 0
1, 3209, Note_off_c, 1, 74, 0
1, 3209, Note_off_c, 1, 69, 0
1, 3210, Note_on_c, 1, 79, 127
1, 3210, Note_on_c, 1, 76, 127
1, 3210, Note_on_c, 1, 67, 127
1, 3239, Note_off_c, 1, 79, 0
1, 3239, Note_off_c, 1, 76, 0
1, 3239, Note_off_c, 1, 67, 0
1, 3240, Note_on_c, 1, 81, 127
1, 3240, Note_on_c, 1, 78, 127
1, 3240, Note_on_c, 1, 66, 127
1, 3299, Note_off_c, 1, 81, 0
1, 3299, Note_off_c, 1, 78, 0
1, 3299, Note_off_c, 1, 66, 0
1, 3300, Note_on_c, 1, 84, 127
1, 3300, Note_on_c, 1, 81, 127
1, 3300, Note_on_c, 1, 67, 127
1, 3300, Note_on_c, 1, 66, 127
1, 3329, Note_off_c, 1, 84, 0
1, 3329, Note_off_c, 1, 81, 0
1, 3329, Note_off_c, 1, 67, 0
1, 3330, Note_on_c, 1, 83, 127
1, 3330, Note_on_c, 1, 79, 127
1, 3330, Note_on_c, 1, 69, 127
1, 3359, Note_off_c, 1, 66, 0
1, 3359, Note_off_c, 1, 83, 0
1, 3359, Note_off_c, 1, 79, 0
1, 3359, Note_off_c, 1, 69, 0
1, 3360, Note_on_c, 1, 81, 127
1, 3360, Note_on_c, 1, 78, 127
1, 3360, Note_on_c, 1, 71, 127
1, 3360, Note_on_c, 1, 66, 127
1, 3389, Note_off_c, 1, 71, 0
1, 3390, Note_on_c, 1, 73, 127
1, 3419, Note_off_c, 1, 81, 0
1, 3419, Note_off_c, 1, 78, 0
1, 3419, Note_off_c, 1, 66, 0
1, 3419, Note_off_c, 1, 73, 0
1, 3420, Note_on_c, 1, 84, 127
1, 3420, Note_on_c, 1, 81, 127
1, 3420, Note_on_c, 1, 75, 127
1, 3420, Note_on_c, 1, 74, 127
1, 3420, Note_on_c, 1, 66, 127
1, 3449, Note_off_c, 1, 84, 0
1, 3449, Note_off_c, 1, 81, 0
1, 3449, Note_off_c, 1, 75, 0
1, 3449, Note_off_c, 1, 74, 0
1, 3450, Note_on_c, 1, 83, 127
1, 3450, Note_on_c, 1, 79, 127
1, 3450, Note_on_c, 1, 76, 127
1, 3479, Note_off_c, 1, 66, 0
1, 3479, Note_off_c, 1, 83, 0
1, 3479, Note_off_c, 1, 79, 0
1, 3479, Note_off_c, 1, 76, 0
1, 3480, Note_on_c, 1, 81, 127
1, 3480, Note_on_c, 1, 78, 127
1, 3480, Note_on_c, 1, 66, 127
1, 3510, Note_on_c, 1, 76, 127
1, 3539, Note_off_c, 1, 81, 0
1, 3539, Note_off_c, 1, 78, 0
1, 3539, Note_off_c, 1, 66, 0
1, 3539, Note_off_c, 1, 76, 0
1, 3540, Note_on_c, 1, 81, 127
1, 3540, Note_on_c, 1, 78, 127
1, 3540, Note_on_c, 1, 67, 127
1, 3569, Note_off_c, 1, 67, 0
1, 3570, Note_on_c, 1, 76, 127
1, 3570, Note_on_c, 1, 69, 127
1, 3599, Note_off_c, 1, 81, 0
1, 3599, Note_off_c, 1, 78, 0
1, 3599, Note_off_c, 1, 76, 0
1, 3599, Note_off_c, 1, 69, 0
1, 3600, Note_on_c, 1, 81, 127
1, 3600, Note_on_c, 1, 78, 127
1, 3600, Note_on_c, 1, 75, 127
1, 3600, Note_on_c, 1, 71, 127
1, 3629, Note_off_c, 1, 75, 0
1, 3629, Note_off_c, 1, 71, 0
1, 3630, Note_on_c, 1, 63, 127
1, 3630, Note_on_c, 1, 66, 127
1, 3630, Note_on_c, 1, 59, 127
1, 3659, Note_off_c, 1, 63, 0
1, 3659, Note_off_c, 1, 66, 0
1, 3659, Note_off_c, 1, 59, 0
1, 3660, Note_on_c, 1, 73, 127
1, 3660, Note_on_c, 1, 64, 127
1, 3660, Note_on_c, 1, 67, 127
1, 3660, Note_on_c, 1, 57, 127
1, 3689, Note_off_c, 1, 73, 0
1, 3689, Note_off_c, 1, 64, 0
1, 3689, Note_off_c, 1, 67, 0
1, 3689, Note_off_c, 1, 57, 0
1, 3690, Note_on_c, 1, 69, 127
1, 3690, Note_on_c, 1, 55, 127
1, 3719, Note_off_c, 1, 69, 0
1, 3719, Note_off_c, 1, 55, 0
1, 3720, Note_on_c, 1, 76, 127
1, 3720, Note_on_c, 1, 54, 127
1, 3749, Note_off_c, 1, 76, 0
1, 3749, Note_off_c, 1, 54, 0
1, 3750, Note_on_c, 1, 52, 127
1, 3779, Note_off_c, 1, 52, 0
1, 3780, Note_on_c, 1, 79, 127
1, 3780, Note_on_c, 1, 51, 127
1, 3809, Note_off_c, 1, 79, 0
1, 3809, Note_off_c, 1, 51, 0
1, 3810, Note_on_c, 1, 49, 127
1, 3839, Note_off_c, 1, 49, 0
1, 3840, Note_on_c, 1, 83, 127
1, 3840, Note_on_c, 1, 47, 127
1, 3869, Note_off_c, 1, 83, 0
1, 3869, Note_off_c, 1, 47, 0
1, 3870, Note_on_c, 1, 84, 127
1, 3870, Note_on_c, 1, 45, 127
1, 3899, Note_off_c, 1, 84, 0
1, 3899, Note_off_c, 1, 45, 0
1, 3900, Note_on_c, 1, 43, 127
1, 3929, Note_off_c, 1, 43, 0
1, 3930, Note_on_c, 1, 42, 127
1, 3959, Note_off_c, 1, 81, 0
1, 3959, Note_off_c, 1, 78, 0
1, 3959, Note_off_c, 1, 42, 0
1, 3960, Note_on_c, 1, 79, 127
1, 3960, Note_on_c, 1, 76, 127
1, 3960, Note_on_c, 1, 71, 127
1, 3960, Note_on_c, 1, 40, 127
1, 4019, Note_off_c, 1, 79, 0
1, 4019, Note_off_c, 1, 76, 0
1, 4019, Note_off_c, 1, 71, 0
1, 4020, Note_on_c, 1, 73, 127
1, 4020, Note_on_c, 1, 67, 127
1, 4049, Note_off_c, 1, 73, 0
1, 4050, Note_on_c, 1, 75, 127
1, 4079, Note_off_c, 1, 40, 0
1, 4079, Note_off_c, 1, 67, 0
1, 4079, Note_off_c, 1, 75, 0
1, 4080, Note_on_c, 1, 76, 127
1, 4080, Note_on_c, 1, 71, 127
1, 4080, Note_on_c, 1, 67, 127
1, 4109, Note_off_c, 1, 76, 0
1, 4110, Note_on_c, 1, 78, 127
1, 4139, Note_off_c, 1, 71, 0
1, 4139, Note_off_c, 1, 67, 0
1, 4139, Note_off_c, 1, 78, 0
1, 4140, Note_on_c, 1, 79, 127
1, 4140, Note_on_c, 1, 71, 127
1, 4140, Note_on_c, 1, 67, 127
1, 4169, Note_off_c, 1, 79, 0
1, 4170, Note_on_c, 1, 81, 127
1, 4199, Note_off_c, 1, 71, 0
1, 4199, Note_off_c, 1, 67, 0
1, 4199, Note_off_c, 1, 81, 0
1, 4200, Note_on_c, 1, 83, 127
1, 4200, Note_on_c, 1, 71, 127
1, 4200, Note_on_c, 1, 67, 127
1, 4229, Note_off_c, 1, 83, 0
1, 4230, Note_on_c, 1, 81, 127
1, 4259, Note_off_c, 1, 71, 0
1, 4259, Note_off_c, 1, 67, 0
1, 4259, Note_off_c, 1, 81, 0
1, 4260, Note_on_c, 1, 83, 127
1, 4260, Note_on_c, 1, 73, 127
1, 4260, Note_on_c, 1, 64, 127
1, 4289, Note_off_c, 1, 83, 0
1, 4289, Note_off_c, 1, 73, 0
1, 4289, Note_off_c, 1, 64, 0
1, 4290, Note_on_c, 1, 81, 127
1, 4290, Note_on_c, 1, 75, 127
1, 4290, Note_on_c, 1, 66, 127
1, 4319, Note_off_c, 1, 81, 0
1, 4319, Note_off_c, 1, 75, 0
1, 4319, Note_off_c, 1, 66, 0
1, 4320, Note_on_c, 1, 79, 127
1, 4320, Note_on_c, 1, 76, 127
1, 4320, Note_on_c, 1, 67, 127
1, 4350, Note_on_c, 1, 64, 127
1, 4379, Note_off_c, 1, 76, 0
1, 4379, Note_off_c, 1, 67, 0
1, 4379, Note_off_c, 1, 64, 0
1, 4380, Note_on_c, 1, 71, 127
1, 4380, Note_on_c, 1, 66, 127
1, 4409, Note_off_c, 1, 71, 0
1, 4409, Note_off_c, 1, 66, 0
1, 4410, Note_on_c, 1, 78, 127
1, 4410, Note_on_c, 1, 69, 127
1, 4439, Note_off_c, 1, 78, 0
1, 4439, Note_off_c, 1, 69, 0
1, 4500, Note_on_c, 1, 73, 127
1, 4529, Note_off_c, 1, 73, 0
1, 4530, Note_on_c, 1, 74, 127
1, 4559, Note_off_c, 1, 74, 0
1, 4679, Note_off_c, 1, 79, 0
1, 4680, Note_on_c, 1, 69, 127
1, 4680, Note_on_c, 1, 76, 127
1, 4680, Note_on_c, 1, 73, 127
1, 4709, Note_off_c, 1, 73, 0
1, 4710, Note_on_c, 1, 64, 127
1, 4710, Note_on_c, 1, 61, 127
1, 4710, Note_on_c, 1, 57, 127
1, 4739, Note_off_c, 1, 64, 0
1, 4739, Note_off_c, 1, 61, 0
1, 4739, Note_off_c, 1, 57, 0
1, 4740, Note_on_c, 1, 71, 127
1, 4740, Note_on_c, 1, 66, 127
1, 4740, Note_on_c, 1, 62, 127
1, 4740, Note_on_c, 1, 55, 127
1, 4769, Note_off_c, 1, 71, 0
1, 4769, Note_off_c, 1, 66, 0
1, 4769, Note_off_c, 1, 62, 0
1, 4769, Note_off_c, 1, 55, 0
1, 4770, Note_on_c, 1, 67, 127
1, 4770, Note_on_c, 1, 54, 127
1, 4799, Note_off_c, 1, 67, 0
1, 4799, Note_off_c, 1, 54, 0
1, 4800, Note_on_c, 1, 74, 127
1, 4800, Note_on_c, 1, 52, 127
1, 4829, Note_off_c, 1, 74, 0
1, 4829, Note_off_c, 1, 52, 0
1, 4830, Note_on_c, 1, 50, 127
1, 4859, Note_off_c, 1, 50, 0
1, 4860, Note_on_c, 1, 78, 127
1, 4860, Note_on_c, 1, 49, 127
1, 4889, Note_off_c, 1, 78, 0
1, 4889, Note_off_c, 1, 49, 0
1, 4890, Note_on_c, 1, 79, 127
1, 4890, Note_on_c, 1, 47, 127
1, 4919, Note_off_c, 1, 79, 0
1, 4919, Note_off_c, 1, 47, 0
1, 4920, Note_on_c, 1, 81, 127
1, 4920, Note_on_c, 1, 45, 127
1, 4949, Note_off_c, 1, 81, 0
1, 4949, Note_off_c, 1, 45, 0
1, 4950, Note_on_c, 1, 83, 127
1, 4950, Note_on_c, 1, 43, 127
1, 4979, Note_off_c, 1, 83, 0
1, 4979, Note_off_c, 1, 43, 0
1, 4980, Note_on_c, 1, 42, 127
1, 5009, Note_off_c, 1, 42, 0
1, 5010, Note_on_c, 1, 40, 127
1, 5039, Note_off_c, 1, 69, 0
1, 5039, Note_off_c, 1, 76, 0
1, 5039, Note_off_c, 1, 40, 0
1, 5040, Note_on_c, 1, 74, 127
1, 5040, Note_on_c, 1, 69, 127
1, 5040, Note_on_c, 1, 50, 127
1, 5040, Note_on_c, 1, 57, 127
1, 5040, Note_on_c, 1, 78, 127
1, 5040, Note_on_c, 1, 38, 127
1, 5069, Note_off_c, 1, 78, 0
1, 5070, Note_on_c, 1, 66, 127
1, 5099, Note_off_c, 1, 74, 0
1, 5099, Note_off_c, 1, 69, 0
1, 5099, Note_off_c, 1, 38, 0
1, 5099, Note_off_c, 1, 66, 0
1, 5100, Note_on_c, 1, 76, 127
1, 5100, Note_on_c, 1, 71, 127
1, 5100, Note_on_c, 1, 67, 127
1, 5100, Note_on_c, 1, 73, 127
1, 5100, Note_on_c, 1, 64, 127
1, 5129, Note_off_c, 1, 76, 0
1, 5129, Note_off_c, 1, 71, 0
1, 5129, Note_off_c, 1, 67, 0
1, 5129, Note_off_c, 1, 73, 0
1, 5129, Note_off_c, 1, 64, 0
1, 5130, Note_on_c, 1, 62, 127
1, 5159, Note_off_c, 1, 50, 0
1, 5159, Note_off_c, 1, 57, 0
1, 5159, Note_off_c, 1, 62, 0
1, 5160, Note_on_c, 1, 79, 127
1, 5160, Note_on_c, 1, 74, 127
1, 5160, Note_on_c, 1, 71, 127
1, 5160, Note_on_c, 1, 69, 127
1, 5160, Note_on_c, 1, 64, 127
1, 5160, Note_on_c, 1, 61, 127
1, 5160, Note_on_c, 1, 50, 127
1, 5189, Note_off_c, 1, 79, 0
1, 5189, Note_off_c, 1, 74, 0
1, 5189, Note_off_c, 1, 71, 0
1, 5189, Note_off_c, 1, 69, 0
1, 5189, Note_off_c, 1, 64, 0
1, 5189, Note_off_c, 1, 61, 0
1, 5190, Note_on_c, 1, 81, 127
1, 5190, Note_on_c, 1, 76, 127
1, 5190, Note_on_c, 1, 73, 127
1, 5190, Note_on_c, 1, 67, 127
1, 5190, Note_on_c, 1, 62, 127
1, 5190, Note_on_c, 1, 59, 127
1, 5219, Note_off_c, 1, 50, 0
1, 5219, Note_off_c, 1, 81, 0
1, 5219, Note_off_c, 1, 76, 0
1, 5219, Note_off_c, 1, 73, 0
1, 5219, Note_off_c, 1, 67, 0
1, 5219, Note_off_c, 1, 62, 0
1, 5219, Note_off_c, 1, 59, 0
1, 5220, Note_on_c, 1, 83, 127
1, 5220, Note_on_c, 1, 78, 127
1, 5220, Note_on_c, 1, 74, 127
1, 5220, Note_on_c, 1, 66, 127
1, 5220, Note_on_c, 1, 61, 127
1, 5220, Note_on_c, 1, 57, 127
1, 5220, Note_on_c, 1, 50, 127
1, 5249, Note_off_c, 1, 83, 0
1, 5249, Note_off_c, 1, 78, 0
1, 5249, Note_off_c, 1, 74, 0
1, 5249, Note_off_c, 1, 66, 0
1, 5249, Note_off_c, 1, 61, 0
1, 5249, Note_off_c, 1, 57, 0
1, 5250, Note_on_c, 1, 85, 127
1, 5250, Note_on_c, 1, 79, 127
1, 5250, Note_on_c, 1, 76, 127
1, 5250, Note_on_c, 1, 64, 127
1, 5250, Note_on_c, 1, 59, 127
1, 5250, Note_on_c, 1, 55, 127
1, 5279, Note_off_c, 1, 50, 0
1, 5279, Note_off_c, 1, 85, 0
1, 5279, Note_off_c, 1, 79, 0
1, 5279, Note_off_c, 1, 76, 0
1, 5279, Note_off_c, 1, 64, 0
1, 5279, Note_off_c, 1, 59, 0
1, 5279, Note_off_c, 1, 55, 0
1, 5280, Note_on_c, 1, 86, 127
1, 5280, Note_on_c, 1, 69, 127
1, 5280, Note_on_c, 1, 66, 127
1, 5280, Note_on_c, 1, 81, 127
1, 5280, Note_on_c, 1, 78, 127
1, 5280, Note_on_c, 1, 62, 127
1, 5280, Note_on_c, 1, 57, 127
1, 5280, Note_on_c, 1, 54, 127
1, 5280, Note_on_c, 1, 50, 127
1, 5309, Note_off_c, 1, 86, 0
1, 5310, Note_on_c, 1, 85, 127
1, 5339, Note_off_c, 1, 69, 0
1, 5339, Note_off_c, 1, 66, 0
1, 5339, Note_off_c, 1, 81, 0
1, 5339, Note_off_c, 1, 78, 0
1, 5339, Note_off_c, 1, 62, 0
1, 5339, Note_off_c, 1, 57, 0
1, 5339, Note_off_c, 1, 54, 0
1, 5339, Note_off_c, 1, 50, 0
1, 5339, Note_off_c, 1, 85, 0
1, 5340, Note_on_c, 1, 86, 127
1, 5340, Note_on_c, 1, 69, 127
1, 5340, Note_on_c, 1, 66, 127
1, 5340, Note_on_c, 1, 52, 127
1, 5369, Note_off_c, 1, 86, 0
1, 5369, Note_off_c, 1, 52, 0
1, 5370, Note_on_c, 1, 85, 127
1, 5370, Note_on_c, 1, 54, 127
1, 5399, Note_off_c, 1, 69, 0
1, 5399, Note_off_c, 1, 66, 0
1, 5399, Note_off_c, 1, 85, 0
1, 5399, Note_off_c, 1, 54, 0
1, 5400, Note_on_c, 1, 83, 127
1, 5400, Note_on_c, 1, 69, 127
1, 5400, Note_on_c, 1, 66, 127
1, 5400, Note_on_c, 1, 55, 127
1, 5430, Note_on_c, 1, 71, 127
1, 5459, Note_off_c, 1, 83, 0
1, 5459, Note_off_c, 1, 69, 0
1, 5459, Note_off_c, 1, 66, 0
1, 5459, Note_off_c, 1, 55, 0
1, 5459, Note_off_c, 1, 71, 0
1, 5460, Note_on_c, 1, 79, 127
1, 5460, Note_on_c, 1, 71, 127
1, 5460, Note_on_c, 1, 67, 127
1, 5460, Note_on_c, 1, 73, 127
1, 5460, Note_on_c, 1, 64, 127
1, 5460, Note_on_c, 1, 49, 127
1, 5489, Note_off_c, 1, 71, 0
1, 5489, Note_off_c, 1, 67, 0
1, 5489, Note_off_c, 1, 73, 0
1, 5490, Note_on_c, 1, 69, 127
1, 5490, Note_on_c, 1, 66, 127
1, 5490, Note_on_c, 1, 74, 127
1, 5519, Note_off_c, 1, 79, 0
1, 5519, Note_off_c, 1, 64, 0
1, 5519, Note_off_c, 1, 49, 0
1, 5519, Note_off_c, 1, 69, 0
1, 5519, Note_off_c, 1, 66, 0
1, 5519, Note_off_c, 1, 74, 0
1, 5520, Note_on_c, 1, 79, 127
1, 5520, Note_on_c, 1, 67, 127
1, 5520, Note_on_c, 1, 64, 127
1, 5520, Note_on_c, 1, 76, 127
1, 5520, Note_on_c, 1, 49, 127
1, 5549, Note_off_c, 1, 76, 0
1, 5550, Note_on_c, 1, 78, 127
1, 5550, Note_on_c, 1, 81, 127
1, 5579, Note_off_c, 1, 79, 0
1, 5579, Note_off_c, 1, 67, 0
1, 5579, Note_off_c, 1, 64, 0
1, 5579, Note_off_c, 1, 49, 0
1, 5579, Note_off_c, 1, 78, 0
1, 5579, Note_off_c, 1, 81, 0
1, 5580, Note_on_c, 1, 83, 127
1, 5580, Note_on_c, 1, 67, 127
1, 5580, Note_on_c, 1, 64, 127
1, 5580, Note_on_c, 1, 79, 127
1, 5580, Note_on_c, 1, 49, 127
1, 5609, Note_off_c, 1, 79, 0
1, 5610, Note_on_c, 1, 81, 127
1, 5610, Note_on_c, 1, 78, 127
1, 5639, Note_off_c, 1, 83, 0
1, 5639, Note_off_c, 1, 67, 0
1, 5639, Note_off_c, 1, 64, 0
1, 5639, Note_off_c, 1, 49, 0
1, 5639, Note_off_c, 1, 81, 0
1, 5639, Note_off_c, 1, 78, 0
1, 5640, Note_on_c, 1, 83, 127
1, 5640, Note_on_c, 1, 67, 127
1, 5640, Note_on_c, 1, 64, 127
1, 5640, Note_on_c, 1, 76, 127
1, 5640, Note_on_c, 1, 49, 127
1, 5669, Note_off_c, 1, 76, 0
1, 5670, Note_on_c, 1, 74, 127
1, 5699, Note_off_c, 1, 83, 0
1, 5699, Note_off_c, 1, 67, 0
1, 5699, Note_off_c, 1, 64, 0
1, 5699, Note_off_c, 1, 49, 0
1, 5699, Note_off_c, 1, 74, 0
1, 5700, Note_on_c, 1, 81, 127
1, 5700, Note_on_c, 1, 67, 127
1, 5700, Note_on_c, 1, 64, 127
1, 5700, Note_on_c, 1, 73, 127
1, 5700, Note_on_c, 1, 66, 127
1, 5700, Note_on_c, 1, 50, 127
1, 5729, Note_off_c, 1, 81, 0
1, 5729, Note_off_c, 1, 73, 0
1, 5729, Note_off_c, 1, 66, 0
1, 5729, Note_off_c, 1, 50, 0
1, 5730, Note_on_c, 1, 79, 127
1, 5730, Note_on_c, 1, 71, 127
1, 5730, Note_on_c, 1, 52, 127
1, 5759, Note_off_c, 1, 67, 0
1, 5759, Note_off_c, 1, 64, 0
1, 5759, Note_off_c, 1, 79, 0
1, 5759, Note_off_c, 1, 71, 0
1, 5759, Note_off_c, 1, 52, 0
1, 5760, Note_on_c, 1, 81, 127
1, 5760, Note_on_c, 1, 76, 127
1, 5760, Note_on_c, 1, 69, 127
1, 5760, Note_on_c, 1, 45, 127
1, 5760, Note_on_c, 1, 67, 127
1, 5760, Note_on_c, 1, 64, 127
1, 5760, Note_on_c, 1, 61, 127
1, 5760, Note_on_c, 1, 54, 127
1, 5819, Note_off_c, 1, 81, 0
1, 5819, Note_off_c, 1, 76, 0
1, 5819, Note_off_c, 1, 69, 0
1, 5819, Note_off_c, 1, 67, 0
1, 5819, Note_off_c, 1, 64, 0
1, 5819, Note_off_c, 1, 61, 0
1, 5819, Note_off_c, 1, 54, 0
1, 5820, Note_on_c, 1, 78, 127
1, 5820, Note_on_c, 1, 62, 127
1, 5820, Note_on_c, 1, 66, 127
1, 5820, Note_on_c, 1, 71, 127
1, 5820, Note_on_c, 1, 47, 127
1, 5849, Note_off_c, 1, 66, 0
1, 5849, Note_off_c, 1, 71, 0
1, 5850, Note_on_c, 1, 73, 127
1, 5879, Note_off_c, 1, 45, 0
1, 5879, Note_off_c, 1, 78, 0
1, 5879, Note_off_c, 1, 62, 0
1, 5879, Note_off_c, 1, 47, 0
1, 5879, Note_off_c, 1, 73, 0
1, 5880, Note_on_c, 1, 78, 127
1, 5880, Note_on_c, 1, 66, 127
1, 5880, Note_on_c, 1, 62, 127
1, 5880, Note_on_c, 1, 74, 127
1, 5880, Note_on_c, 1, 47, 127
1, 5909, Note_off_c, 1, 74, 0
1, 5910, Note_on_c, 1, 76, 127
1, 5910, Note_on_c, 1, 79, 127
1, 5939, Note_off_c, 1, 78, 0
1, 5939, Note_off_c, 1, 66, 0
1, 5939, Note_off_c, 1, 62, 0
1, 5939, Note_off_c, 1, 47, 0
1, 5939, Note_off_c, 1, 76, 0
1, 5939, Note_off_c, 1, 79, 0
1, 5940, Note_on_c, 1, 81, 127
1, 5940, Note_on_c, 1, 66, 127
1, 5940, Note_on_c, 1, 62, 127
1, 5940, Note_on_c, 1, 78, 127
1, 5940, Note_on_c, 1, 47, 127
1, 5969, Note_off_c, 1, 78, 0
1, 5970, Note_on_c, 1, 79, 127
1, 5970, Note_on_c, 1, 76, 127
1, 5999, Note_off_c, 1, 81, 0
1, 5999, Note_off_c, 1, 66, 0
1, 5999, Note_off_c, 1, 62, 0
1, 5999, Note_off_c, 1, 47, 0
1, 5999, Note_off_c, 1, 79, 0
1, 5999, Note_off_c, 1, 76, 0
1, 6000, Note_on_c, 1, 81, 127
1, 6000, Note_on_c, 1, 66, 127
1, 6000, Note_on_c, 1, 62, 127
1, 6000, Note_on_c, 1, 74, 127
1, 6000, Note_on_c, 1, 47, 127
1, 6029, Note_off_c, 1, 74, 0
1, 6030, Note_on_c, 1, 73, 127
1, 6059, Note_off_c, 1, 81, 0
1, 6059, Note_off_c, 1, 66, 0
1, 6059, Note_off_c, 1, 62, 0
1, 6059, Note_off_c, 1, 47, 0
1, 6059, Note_off_c, 1, 73, 0
1, 6060, Note_on_c, 1, 79, 127
1, 6060, Note_on_c, 1, 66, 127
1, 6060, Note_on_c, 1, 62, 127
1, 6060, Note_on_c, 1, 71, 127
1, 6060, Note_on_c, 1, 64, 127
1, 6060, Note_on_c, 1, 49, 127
1, 6089, Note_off_c, 1, 79, 0
1, 6089, Note_off_c, 1, 71, 0
1, 6089, Note_off_c, 1, 64, 0
1, 6089, Note_off_c, 1, 49, 0
1, 6090, Note_on_c, 1, 78, 127
1, 6090, Note_on_c, 1, 69, 127
1, 6090, Note_on_c, 1, 50, 127
1, 6119, Note_off_c, 1, 66, 0
1, 6119, Note_off_c, 1, 62, 0
1, 6119, Note_off_c, 1, 78, 0
1, 6119, Note_off_c, 1, 69, 0
1, 6119, Note_off_c, 1, 50, 0
1, 6120, Note_on_c, 1, 79, 127
1, 6120, Note_on_c, 1, 66, 127
1, 6120, Note_on_c, 1, 62, 127
1, 6120, Note_on_c, 1, 67, 127
1, 6120, Note_on_c, 1, 59, 127
1, 6120, Note_on_c, 1, 52, 127
1, 6179, Note_off_c, 1, 79, 0
1, 6179, Note_off_c, 1, 66, 0
1, 6179, Note_off_c, 1, 62, 0
1, 6179, Note_off_c, 1, 67, 0
1, 6179, Note_off_c, 1, 59, 0
1, 6179, Note_off_c, 1, 52, 0
1, 6180, Note_on_c, 1, 76, 127
1, 6180, Note_on_c, 1, 67, 127
1, 6180, Note_on_c, 1, 64, 127
1, 6180, Note_on_c, 1, 69, 127
1, 6180, Note_on_c, 1, 61, 127
1, 6180, Note_on_c, 1, 45, 127
1, 6209, Note_off_c, 1, 67, 0
1, 6209, Note_off_c, 1, 64, 0
1, 6209, Note_off_c, 1, 69, 0
1, 6210, Note_on_c, 1, 66, 127
1, 6210, Note_on_c, 1, 62, 127
1, 6210, Note_on_c, 1, 71, 127
1, 6239, Note_off_c, 1, 76, 0
1, 6239, Note_off_c, 1, 61, 0
1, 6239, Note_off_c, 1, 45, 0
1, 6239, Note_off_c, 1, 66, 0
1, 6239, Note_off_c, 1, 62, 0
1, 6239, Note_off_c, 1, 71, 0
1, 6240, Note_on_c, 1, 76, 127
1, 6240, Note_on_c, 1, 64, 127
1, 6240, Note_on_c, 1, 57, 127
1, 6240, Note_on_c, 1, 73, 127
1, 6240, Note_on_c, 1, 61, 127
1, 6240, Note_on_c, 1, 45, 127
1, 6269, Note_off_c, 1, 73, 0
1, 6270, Note_on_c, 1, 74, 127
1, 6270, Note_on_c, 1, 78, 127
1, 6299, Note_off_c, 1, 76, 0
1, 6299, Note_off_c, 1, 64, 0
1, 6299, Note_off_c, 1, 57, 0
1, 6299, Note_off_c, 1, 61, 0
1, 6299, Note_off_c, 1, 45, 0
1, 6299, Note_off_c, 1, 74, 0
1, 6299, Note_off_c, 1, 78, 0
1, 6300, Note_on_c, 1, 79, 127
1, 6300, Note_on_c, 1, 64, 127
1, 6300, Note_on_c, 1, 57, 127
1, 6300, Note_on_c, 1, 76, 127
1, 6300, Note_on_c, 1, 61, 127
1, 6300, Note_on_c, 1, 45, 127
1, 6329, Note_off_c, 1, 76, 0
1, 6330, Note_on_c, 1, 78, 127
1, 6330, Note_on_c, 1, 74, 127
1, 6359, Note_off_c, 1, 79, 0
1, 6359, Note_off_c, 1, 64, 0
1, 6359, Note_off_c, 1, 57, 0
1, 6359, Note_off_c, 1, 61, 0
1, 6359, Note_off_c, 1, 45, 0
1, 6359, Note_off_c, 1, 78, 0
1, 6359, Note_off_c, 1, 74, 0
1, 6360, Note_on_c, 1, 79, 127
1, 6360, Note_on_c, 1, 64, 127
1, 6360, Note_on_c, 1, 57, 127
1, 6360, Note_on_c, 1, 73, 127
1, 6360, Note_on_c, 1, 61, 127
1, 6360, Note_on_c, 1, 45, 127
1, 6389, Note_off_c, 1, 73, 0
1, 6390, Note_on_c, 1, 71, 127
1, 6419, Note_off_c, 1, 79, 0
1, 6419, Note_off_c, 1, 64, 0
1, 6419, Note_off_c, 1, 57, 0
1, 6419, Note_off_c, 1, 61, 0
1, 6419, Note_off_c, 1, 45, 0
1, 6419, Note_off_c, 1, 71, 0
1, 6420, Note_on_c, 1, 78, 127
1, 6420, Note_on_c, 1, 64, 127
1, 6420, Note_on_c, 1, 57, 127
1, 6420, Note_on_c, 1, 69, 127
1, 6420, Note_on_c, 1, 62, 127
1, 6420, Note_on_c, 1, 47, 127
1, 6449, Note_off_c, 1, 78, 0
1, 6449, Note_off_c, 1, 69, 0
1, 6449, Note_off_c, 1, 62, 0
1, 6449, Note_off_c, 1, 47, 0
1, 6450, Note_on_c, 1, 76, 127
1, 6450, Note_on_c, 1, 67, 127
1, 6450, Note_on_c, 1, 49, 127
1, 6479, Note_off_c, 1, 64, 0
1, 6479, Note_off_c, 1, 57, 0
1, 6479, Note_off_c, 1, 76, 0
1, 6479, Note_off_c, 1, 67, 0
1, 6479, Note_off_c, 1, 49, 0
1, 6480, Note_on_c, 1, 78, 127
1, 6480, Note_on_c, 1, 62, 127
1, 6480, Note_on_c, 1, 57, 127
1, 6480, Note_on_c, 1, 66, 127
1, 6480, Note_on_c, 1, 50, 127
1, 6509, Note_off_c, 1, 50, 0
1, 6539, Note_off_c, 1, 78, 0
1, 6539, Note_off_c, 1, 62, 0
1, 6539, Note_off_c, 1, 57, 0
1, 6539, Note_off_c, 1, 66, 0
1, 6540, Note_on_c, 1, 78, 127
1, 6540, Note_on_c, 1, 74, 127
1, 6540, Note_on_c, 1, 69, 127
1, 6540, Note_on_c, 1, 50, 127
1, 6540, Note_on_c, 1, 66, 127
1, 6540, Note_on_c, 1, 62, 127
1, 6540, Note_on_c, 1, 67, 127
1, 6540, Note_on_c, 1, 59, 127
1, 6569, Note_off_c, 1, 50, 0
1, 6569, Note_off_c, 1, 67, 0
1, 6569, Note_off_c, 1, 59, 0
1, 6570, Note_on_c, 1, 61, 127
1, 6599, Note_off_c, 1, 78, 0
1, 6599, Note_off_c, 1, 74, 0
1, 6599, Note_off_c, 1, 69, 0
1, 6599, Note_off_c, 1, 66, 0
1, 6599, Note_off_c, 1, 62, 0
1, 6599, Note_off_c, 1, 61, 0
1, 6600, Note_on_c, 1, 78, 127
1, 6600, Note_on_c, 1, 74, 127
1, 6600, Note_on_c, 1, 69, 127
1, 6600, Note_on_c, 1, 50, 127
1, 6600, Note_on_c, 1, 66, 127
1, 6600, Note_on_c, 1, 62, 127
1, 6600, Note_on_c, 1, 71, 127
1, 6629, Note_off_c, 1, 50, 0
1, 6629, Note_off_c, 1, 71, 0
1, 6630, Note_on_c, 1, 73, 127
1, 6630, Note_on_c, 1, 76, 127
1, 6630, Note_on_c, 1, 64, 127
1, 6659, Note_off_c, 1, 78, 0
1, 6659, Note_off_c, 1, 74, 0
1, 6659, Note_off_c, 1, 69, 0
1, 6659, Note_off_c, 1, 66, 0
1, 6659, Note_off_c, 1, 62, 0
1, 6659, Note_off_c, 1, 73, 0
1, 6659, Note_off_c, 1, 76, 0
1, 6659, Note_off_c, 1, 64, 0
1, 6660, Note_on_c, 1, 78, 127
1, 6660, Note_on_c, 1, 74, 127
1, 6660, Note_on_c, 1, 69, 127
1, 6660, Note_on_c, 1, 50, 127
1, 6660, Note_on_c, 1, 66, 127
1, 6660, Note_on_c, 1, 62, 127
1, 6689, Note_off_c, 1, 50, 0
1, 6690, Note_on_c, 1, 76, 127
1, 6690, Note_on_c, 1, 73, 127
1, 6690, Note_on_c, 1, 64, 127
1, 6719, Note_off_c, 1, 78, 0
1, 6719, Note_off_c, 1, 74, 0
1, 6719, Note_off_c, 1, 69, 0
1, 6719, Note_off_c, 1, 66, 0
1, 6719, Note_off_c, 1, 62, 0
1, 6719, Note_off_c, 1, 76, 0
1, 6719, Note_off_c, 1, 73, 0
1, 6719, Note_off_c, 1, 64, 0
1, 6720, Note_on_c, 1, 78, 127
1, 6720, Note_on_c, 1, 74, 127
1, 6720, Note_on_c, 1, 69, 127
1, 6720, Note_on_c, 1, 50, 127
1, 6720, Note_on_c, 1, 66, 127
1, 6720, Note_on_c, 1, 62, 127
1, 6720, Note_on_c, 1, 71, 127
1, 6749, Note_off_c, 1, 71, 0
1, 6750, Note_on_c, 1, 61, 127
1, 6779, Note_off_c, 1, 78, 0
1, 6779, Note_off_c, 1, 74, 0
1, 6779, Note_off_c, 1, 69, 0
1, 6779, Note_off_c, 1, 50, 0
1, 6779, Note_off_c, 1, 66, 0
1, 6779, Note_off_c, 1, 62, 0
1, 6779, Note_off_c, 1, 61, 0
1, 6780, Note_on_c, 1, 78, 127
1, 6780, Note_on_c, 1, 74, 127
1, 6780, Note_on_c, 1, 69, 127
1, 6780, Note_on_c, 1, 66, 127
1, 6780, Note_on_c, 1, 62, 127
1, 6780, Note_on_c, 1, 68, 127
1, 6780, Note_on_c, 1, 71, 127
1, 6780, Note_on_c, 1, 59, 127
1, 6809, Note_off_c, 1, 68, 0
1, 6809, Note_off_c, 1, 71, 0
1, 6809, Note_off_c, 1, 59, 0
1, 6810, Note_on_c, 1, 73, 127
1, 6810, Note_on_c, 1, 57, 127
1, 6839, Note_off_c, 1, 78, 0
1, 6839, Note_off_c, 1, 74, 0
1, 6839, Note_off_c, 1, 69, 0
1, 6839, Note_off_c, 1, 66, 0
1, 6839, Note_off_c, 1, 62, 0
1, 6839, Note_off_c, 1, 73, 0
1, 6839, Note_off_c, 1, 57, 0
1, 6840, Note_on_c, 1, 68, 127
1, 6840, Note_on_c, 1, 74, 127
1, 6840, Note_on_c, 1, 59, 127
1, 6869, Note_off_c, 1, 74, 0
1, 6869, Note_off_c, 1, 59, 0
1, 6870, Note_on_c, 1, 69, 127
1, 6870, Note_on_c, 1, 72, 127
1, 6870, Note_on_c, 1, 60, 127
1, 6899, Note_off_c, 1, 68, 0
1, 6899, Note_off_c, 1, 69, 0
1, 6899, Note_off_c, 1, 72, 0
1, 6899, Note_off_c, 1, 60, 0
1, 6900, Note_on_c, 1, 77, 127
1, 6900, Note_on_c, 1, 83, 127
1, 6900, Note_on_c, 1, 74, 127
1, 6900, Note_on_c, 1, 50, 127
1, 6900, Note_on_c, 1, 68, 127
1, 6900, Note_on_c, 1, 62, 127
1, 6900, Note_on_c, 1, 71, 127
1, 6929, Note_off_c, 1, 50, 0
1, 6929, Note_off_c, 1, 71, 0
1, 6930, Note_on_c, 1, 69, 127
1, 6930, Note_on_c, 1, 60, 127
1, 6959, Note_off_c, 1, 77, 0
1, 6959, Note_off_c, 1, 83, 0
1, 6959, Note_off_c, 1, 74, 0
1, 6959, Note_off_c, 1, 68, 0
1, 6959, Note_off_c, 1, 62, 0
1, 6959, Note_off_c, 1, 69, 0
1, 6959, Note_off_c, 1, 60, 0
1, 6960, Note_on_c, 1, 77, 127
1, 6960, Note_on_c, 1, 83, 127
1, 6960, Note_on_c, 1, 74, 127
1, 6960, Note_on_c, 1, 50, 127
1, 6960, Note_on_c, 1, 68, 127
1, 6960, Note_on_c, 1, 62, 127
1, 6960, Note_on_c, 1, 71, 127
1, 6960, Note_on_c, 1, 59, 127
1, 6989, Note_off_c, 1, 50, 0
1, 6989, Note_off_c, 1, 71, 0
1, 6989, Note_off_c, 1, 59, 0
1, 6990, Note_on_c, 1, 73, 127
1, 6990, Note_on_c, 1, 76, 127
1, 6990, Note_on_c, 1, 57, 127
1, 7019, Note_off_c, 1, 77, 0
1, 7019, Note_off_c, 1, 83, 0
1, 7019, Note_off_c, 1, 74, 0
1, 7019, Note_off_c, 1, 68, 0
1, 7019, Note_off_c, 1, 62, 0
1, 7019, Note_off_c, 1, 73, 0
1, 7019, Note_off_c, 1, 76, 0
1, 7019, Note_off_c, 1, 57, 0
1, 7020, Note_on_c, 1, 77, 127
1, 7020, Note_on_c, 1, 83, 127
1, 7020, Note_on_c, 1, 74, 127
1, 7020, Note_on_c, 1, 50, 127
1, 7020, Note_on_c, 1, 68, 127
1, 7020, Note_on_c, 1, 62, 127
1, 7020, Note_on_c, 1, 56, 127
1, 7049, Note_off_c, 1, 50, 0
1, 7049, Note_off_c, 1, 56, 0
1, 7050, Note_on_c, 1, 76, 127
1, 7050, Note_on_c, 1, 72, 127
1, 7050, Note_on_c, 1, 54, 127
1, 7079, Note_off_c, 1, 77, 0
1, 7079, Note_off_c, 1, 83, 0
1, 7079, Note_off_c, 1, 74, 0
1, 7079, Note_off_c, 1, 68, 0
1, 7079, Note_off_c, 1, 62, 0
1, 7079, Note_off_c, 1, 76, 0
1, 7079, Note_off_c, 1, 72, 0
1, 7079, Note_off_c, 1, 54, 0
1, 7080, Note_on_c, 1, 77, 127
1, 7080, Note_on_c, 1, 83, 127
1, 7080, Note_on_c, 1, 74, 127
1, 7080, Note_on_c, 1, 50, 127
1, 7080, Note_on_c, 1, 68, 127
1, 7080, Note_on_c, 1, 62, 127
1, 7080, Note_on_c, 1, 71, 127
1, 7080, Note_on_c, 1, 56, 127
1, 7109, Note_off_c, 1, 71, 0
1, 7109, Note_off_c, 1, 56, 0
1, 7110, Note_on_c, 1, 69, 127
1, 7110, Note_on_c, 1, 66, 127
1, 7110, Note_on_c, 1, 57, 127
1, 7139, Note_off_c, 1, 77, 0
1, 7139, Note_off_c, 1, 83, 0
1, 7139, Note_off_c, 1, 74, 0
1, 7139, Note_off_c, 1, 50, 0
1, 7139, Note_off_c, 1, 68, 0
1, 7139, Note_off_c, 1, 62, 0
1, 7139, Note_off_c, 1, 69, 0
1, 7139, Note_off_c, 1, 66, 0
1, 7139, Note_off_c, 1, 57, 0
1, 7140, Note_on_c, 1, 77, 127
1, 7140, Note_on_c, 1, 83, 127
1, 7140, Note_on_c, 1, 74, 127
1, 7140, Note_on_c, 1, 68, 127
1, 7140, Note_on_c, 1, 62, 127
1, 7140, Note_on_c, 1, 59, 127
1, 7169, Note_off_c, 1, 59, 0
1, 7170, Note_on_c, 1, 66, 127
1, 7170, Note_on_c, 1, 69, 127
1, 7170, Note_on_c, 1, 57, 127
1, 7199, Note_off_c, 1, 77, 0
1, 7199, Note_off_c, 1, 83, 0
1, 7199, Note_off_c, 1, 74, 0
1, 7199, Note_off_c, 1, 68, 0
1, 7199, Note_off_c, 1, 62, 0
1, 7199, Note_off_c, 1, 66, 0
1, 7199, Note_off_c, 1, 69, 0
1, 7199, Note_off_c, 1, 57, 0
1, 7200, Note_on_c, 1, 64, 127
1, 7200, Note_on_c, 1, 71, 127
1, 7200, Note_on_c, 1, 56, 127
1, 7229, Note_off_c, 1, 71, 0
1, 7229, Note_off_c, 1, 56, 0
1, 7230, Note_on_c, 1, 74, 127
1, 7230, Note_on_c, 1, 69, 127
1, 7230, Note_on_c, 1, 54, 127
1, 7259, Note_off_c, 1, 64, 0
1, 7259, Note_off_c, 1, 74, 0
1, 7259, Note_off_c, 1, 69, 0
1, 7259, Note_off_c, 1, 54, 0
1, 7260, Note_on_c, 1, 76, 127
1, 7260, Note_on_c, 1, 83, 127
1, 7260, Note_on_c, 1, 74, 127
1, 7260, Note_on_c, 1, 50, 127
1, 7260, Note_on_c, 1, 71, 127
1, 7260, Note_on_c, 1, 64, 127
1, 7260, Note_on_c, 1, 68, 127
1, 7260, Note_on_c, 1, 52, 127
1, 7289, Note_off_c, 1, 50, 0
1, 7289, Note_off_c, 1, 68, 0
1, 7289, Note_off_c, 1, 52, 0
1, 7290, Note_on_c, 1, 78, 127
1, 7290, Note_on_c, 1, 66, 127
1, 7319, Note_off_c, 1, 76, 0
1, 7319, Note_off_c, 1, 83, 0
1, 7319, Note_off_c, 1, 74, 0
1, 7319, Note_off_c, 1, 71, 0
1, 7319, Note_off_c, 1, 64, 0
1, 7319, Note_off_c, 1, 78, 0
1, 7319, Note_off_c, 1, 66, 0
1, 7320, Note_on_c, 1, 76, 127
1, 7320, Note_on_c, 1, 83, 127
1, 7320, Note_on_c, 1, 74, 127
1, 7320, Note_on_c, 1, 50, 127
1, 7320, Note_on_c, 1, 71, 127
1, 7320, Note_on_c, 1, 64, 127
1, 7320, Note_on_c, 1, 80, 127
1, 7320, Note_on_c, 1, 52, 127
1, 7349, Note_off_c, 1, 50, 0
1, 7349, Note_off_c, 1, 80, 0
1, 7349, Note_off_c, 1, 52, 0
1, 7350, Note_on_c, 1, 81, 127
1, 7350, Note_on_c, 1, 73, 127
1, 7350, Note_on_c, 1, 54, 127
1, 7379, Note_off_c, 1, 76, 0
1, 7379, Note_off_c, 1, 83, 0
1, 7379, Note_off_c, 1, 74, 0
1, 7379, Note_off_c, 1, 71, 0
1, 7379, Note_off_c, 1, 64, 0
1, 7379, Note_off_c, 1, 81, 0
1, 7379, Note_off_c, 1, 73, 0
1, 7379, Note_off_c, 1, 54, 0
1, 7380, Note_on_c, 1, 76, 127
1, 7380, Note_on_c, 1, 83, 127
1, 7380, Note_on_c, 1, 74, 127
1, 7380, Note_on_c, 1, 50, 127
1, 7380, Note_on_c, 1, 71, 127
1, 7380, Note_on_c, 1, 64, 127
1, 7380, Note_on_c, 1, 56, 127
1, 7409, Note_off_c, 1, 50, 0
1, 7409, Note_off_c, 1, 56, 0
1, 7410, Note_on_c, 1, 85, 127
1, 7410, Note_on_c, 1, 69, 127
1, 7410, Note_on_c, 1, 54, 127
1, 7439, Note_off_c, 1, 76, 0
1, 7439, Note_off_c, 1, 83, 0
1, 7439, Note_off_c, 1, 74, 0
1, 7439, Note_off_c, 1, 71, 0
1, 7439, Note_off_c, 1, 64, 0
1, 7439, Note_off_c, 1, 85, 0
1, 7439, Note_off_c, 1, 69, 0
1, 7439, Note_off_c, 1, 54, 0
1, 7440, Note_on_c, 1, 76, 127
1, 7440, Note_on_c, 1, 83, 127
1, 7440, Note_on_c, 1, 74, 127
1, 7440, Note_on_c, 1, 50, 127
1, 7440, Note_on_c, 1, 71, 127
1, 7440, Note_on_c, 1, 64, 127
1, 7440, Note_on_c, 1, 86, 127
1, 7440, Note_on_c, 1, 68, 127
1, 7440, Note_on_c, 1, 52, 127
1, 7469, Note_off_c, 1, 68, 0
1, 7469, Note_off_c, 1, 52, 0
1, 7470, Note_on_c, 1, 66, 127
1, 7470, Note_on_c, 1, 59, 127
1, 7499, Note_off_c, 1, 76, 0
1, 7499, Note_off_c, 1, 83, 0
1, 7499, Note_off_c, 1, 74, 0
1, 7499, Note_off_c, 1, 50, 0
1, 7499, Note_off_c, 1, 71, 0
1, 7499, Note_off_c, 1, 64, 0
1, 7499, Note_off_c, 1, 86, 0
1, 7499, Note_off_c, 1, 66, 0
1, 7499, Note_off_c, 1, 59, 0
1, 7500, Note_on_c, 1, 76, 127
1, 7500, Note_on_c, 1, 83, 127
1, 7500, Note_on_c, 1, 74, 127
1, 7500, Note_on_c, 1, 71, 127
1, 7500, Note_on_c, 1, 64, 127
1, 7500, Note_on_c, 1, 69, 127
1, 7500, Note_on_c, 1, 66, 127
1, 7500, Note_on_c, 1, 61, 127
1, 7500, Note_on_c, 1, 49, 127
1, 7529, Note_off_c, 1, 69, 0
1, 7529, Note_off_c, 1, 66, 0
1, 7529, Note_off_c, 1, 61, 0
1, 7529, Note_off_c, 1, 49, 0
1, 7530, Note_on_c, 1, 62, 127
1, 7530, Note_on_c, 1, 68, 127
1, 7530, Note_on_c, 1, 47, 127
1, 7559, Note_off_c, 1, 76, 0
1, 7559, Note_off_c, 1, 83, 0
1, 7559, Note_off_c, 1, 74, 0
1, 7559, Note_off_c, 1, 71, 0
1, 7559, Note_off_c, 1, 64, 0
1, 7559, Note_off_c, 1, 62, 0
1, 7559, Note_off_c, 1, 68, 0
1, 7559, Note_off_c, 1, 47, 0
1, 7560, Note_on_c, 1, 85, 127
1, 7560, Note_on_c, 1, 76, 127
1, 7560, Note_on_c, 1, 81, 127
1, 7560, Note_on_c, 1, 45, 127
1, 7560, Note_on_c, 1, 73, 127
1, 7560, Note_on_c, 1, 64, 127
1, 7560, Note_on_c, 1, 69, 127
1, 7589, Note_off_c, 1, 45, 0
1, 7619, Note_off_c, 1, 85, 0
1, 7619, Note_off_c, 1, 76, 0
1, 7619, Note_off_c, 1, 81, 0
1, 7619, Note_off_c, 1, 73, 0
1, 7619, Note_off_c, 1, 64, 0
1, 7619, Note_off_c, 1, 69, 0
1, 7620, Note_on_c, 1, 81, 127
1, 7620, Note_on_c, 1, 69, 127
1, 7620, Note_on_c, 1, 76, 127
1, 7620, Note_on_c, 1, 45, 127
1, 7620, Note_on_c, 1, 64, 127
1, 7620, Note_on_c, 1, 57, 127
1, 7620, Note_on_c, 1, 73, 127
1, 7620, Note_on_c, 1, 47, 127
1, 7634, Note_off_c, 1, 45, 0
1, 7649, Note_off_c, 1, 47, 0
1, 7650, Note_on_c, 1, 49, 127
1, 7679, Note_off_c, 1, 81, 0
1, 7679, Note_off_c, 1, 69, 0
1, 7679, Note_off_c, 1, 76, 0
1, 7679, Note_off_c, 1, 64, 0
1, 7679, Note_off_c, 1, 57, 0
1, 7679, Note_off_c, 1, 73, 0
1, 7679, Note_off_c, 1, 49, 0
1, 7680, Note_on_c, 1, 45, 127
1, 7680, Note_on_c, 1, 64, 127
1, 7680, Note_on_c, 1, 57, 127
1, 7680, Note_on_c, 1, 81, 127
1, 7680, Note_on_c, 1, 76, 127
1, 7680, Note_on_c, 1, 73, 127
1, 7680, Note_on_c, 1, 50, 127
1, 7694, Note_off_c, 1, 45, 0
1, 7709, Note_off_c, 1, 50, 0
1, 7710, Note_on_c, 1, 52, 127
1, 7739, Note_off_c, 1, 64, 0
1, 7739, Note_off_c, 1, 57, 0
1, 7739, Note_off_c, 1, 81, 0
1, 7739, Note_off_c, 1, 76, 0
1, 7739, Note_off_c, 1, 73, 0
1, 7739, Note_off_c, 1, 52, 0
1, 7740, Note_on_c, 1, 45, 127
1, 7740, Note_on_c, 1, 64, 127
1, 7740, Note_on_c, 1, 57, 127
1, 7740, Note_on_c, 1, 76, 127
1, 7740, Note_on_c, 1, 73, 127
1, 7740, Note_on_c, 1, 69, 127
1, 7740, Note_on_c, 1, 54, 127
1, 7754, Note_off_c, 1, 45, 0
1, 7769, Note_off_c, 1, 54, 0
1, 7770, Note_on_c, 1, 55, 127
1, 7799, Note_off_c, 1, 64, 0
1, 7799, Note_off_c, 1, 57, 0
1, 7799, Note_off_c, 1, 76, 0
1, 7799, Note_off_c, 1, 73, 0
1, 7799, Note_off_c, 1, 69, 0
1, 7799, Note_off_c, 1, 55, 0
1, 7800, Note_on_c, 1, 45, 127
1, 7800, Note_on_c, 1, 64, 127
1, 7800, Note_on_c, 1, 57, 127
1, 7800, Note_on_c, 1, 76, 127
1, 7800, Note_on_c, 1, 73, 127
1, 7800, Note_on_c, 1, 69, 127
1, 7814, Note_off_c, 1, 45, 0
1, 7830, Note_on_c, 1, 55, 127
1, 7859, Note_off_c, 1, 64, 0
1, 7859, Note_off_c, 1, 57, 0
1, 7859, Note_off_c, 1, 76, 0
1, 7859, Note_off_c, 1, 73, 0
1, 7859, Note_off_c, 1, 69, 0
1, 7859, Note_off_c, 1, 55, 0
1, 7860, Note_on_c, 1, 45, 127
1, 7860, Note_on_c, 1, 62, 127
1, 7860, Note_on_c, 1, 54, 127
1, 7860, Note_on_c, 1, 73, 127
1, 7860, Note_on_c, 1, 69, 127
1, 7860, Note_on_c, 1, 64, 127
1, 7860, Note_on_c, 1, 57, 127
1, 7874, Note_off_c, 1, 45, 0
1, 7889, Note_off_c, 1, 62, 0
1, 7889, Note_off_c, 1, 54, 0
1, 7889, Note_off_c, 1, 57, 0
1, 7890, Note_on_c, 1, 55, 127
1, 7919, Note_off_c, 1, 73, 0
1, 7919, Note_off_c, 1, 69, 0
1, 7919, Note_off_c, 1, 64, 0
1, 7919, Note_off_c, 1, 55, 0
1, 7920, Note_on_c, 1, 86, 127
1, 7920, Note_on_c, 1, 81, 127
1, 7920, Note_on_c, 1, 78, 127
1, 7920, Note_on_c, 1, 45, 127
1, 7920, Note_on_c, 1, 66, 127
1, 7920, Note_on_c, 1, 62, 127
1, 7920, Note_on_c, 1, 57, 127
1, 7934, Note_off_c, 1, 45, 0
1, 7949, Note_off_c, 1, 57, 0
1, 7979, Note_off_c, 1, 86, 0
1, 7979, Note_off_c, 1, 81, 0
1, 7979, Note_off_c, 1, 78, 0
1, 7979, Note_off_c, 1, 66, 0
1, 7979, Note_off_c, 1, 62, 0
1, 7980, Note_on_c, 1, 81, 127
1, 7980, Note_on_c, 1, 78, 127
1, 7980, Note_on_c, 1, 74, 127
1, 7980, Note_on_c, 1, 45, 127
1, 7980, Note_on_c, 1, 66, 127
1, 7980, Note_on_c, 1, 62, 127
1, 7980, Note_on_c, 1, 47, 127
1, 7994, Note_off_c, 1, 45, 0
1, 8009, Note_off_c, 1, 47, 0
1, 8010, Note_on_c, 1, 49, 127
1, 8039, Note_off_c, 1, 81, 0
1, 8039, Note_off_c, 1, 78, 0
1, 8039, Note_off_c, 1, 74, 0
1, 8039, Note_off_c, 1, 66, 0
1, 8039, Note_off_c, 1, 62, 0
1, 8039, Note_off_c, 1, 49, 0
1, 8040, Note_on_c, 1, 45, 127
1, 8040, Note_on_c, 1, 66, 127
1, 8040, Note_on_c, 1, 62, 127
1, 8040, Note_on_c, 1, 81, 127
1, 8040, Note_on_c, 1, 78, 127
1, 8040, Note_on_c, 1, 74, 127
1, 8040, Note_on_c, 1, 50, 127
1, 8054, Note_off_c, 1, 45, 0
1, 8069, Note_off_c, 1, 50, 0
1, 8070, Note_on_c, 1, 52, 127
1, 8099, Note_off_c, 1, 66, 0
1, 8099, Note_off_c, 1, 62, 0
1, 8099, Note_off_c, 1, 81, 0
1, 8099, Note_off_c, 1, 78, 0
1, 8099, Note_off_c, 1, 74, 0
1, 8099, Note_off_c, 1, 52, 0
1, 8100, Note_on_c, 1, 45, 127
1, 8100, Note_on_c, 1, 66, 127
1, 8100, Note_on_c, 1, 62, 127
1, 8100, Note_on_c, 1, 78, 127
1, 8100, Note_on_c, 1, 74, 127
1, 8100, Note_on_c, 1, 69, 127
1, 8100, Note_on_c, 1, 54, 127
1, 8114, Note_off_c, 1, 45, 0
1, 8129, Note_off_c, 1, 54, 0
1, 8130, Note_on_c, 1, 55, 127
1, 8159, Note_off_c, 1, 66, 0
1, 8159, Note_off_c, 1, 62, 0
1, 8159, Note_off_c, 1, 78, 0
1, 8159, Note_off_c, 1, 74, 0
1, 8159, Note_off_c, 1, 69, 0
1, 8159, Note_off_c, 1, 55, 0
1, 8160, Note_on_c, 1, 45, 127
1, 8160, Note_on_c, 1, 66, 127
1, 8160, Note_on_c, 1, 62, 127
1, 8160, Note_on_c, 1, 78, 127
1, 8160, Note_on_c, 1, 74, 127
1, 8160, Note_on_c, 1, 69, 127
1, 8160, Note_on_c, 1, 57, 127
1, 8174, Note_off_c, 1, 45, 0
1, 8189, Note_off_c, 1, 57, 0
1, 8190, Note_on_c, 1, 55, 127
1, 8219, Note_off_c, 1, 66, 0
1, 8219, Note_off_c, 1, 62, 0
1, 8219, Note_off_c, 1, 78, 0
1, 8219, Note_off_c, 1, 74, 0
1, 8219, Note_off_c, 1, 69, 0
1, 8219, Note_off_c, 1, 55, 0
1, 8220, Note_on_c, 1, 45, 127
1, 8220, Note_on_c, 1, 64, 127
1, 8220, Note_on_c, 1, 57, 127
1, 8220, Note_on_c, 1, 74, 127
1, 8220, Note_on_c, 1, 69, 127
1, 8220, Note_on_c, 1, 66, 127
1, 8234, Note_off_c, 1, 45, 0
1, 8249, Note_off_c, 1, 64, 0
1, 8249, Note_off_c, 1, 57, 0
1, 8250, Note_on_c, 1, 62, 127
1, 8250, Note_on_c, 1, 55, 127
1, 8279, Note_off_c, 1, 74, 0
1, 8279, Note_off_c, 1, 69, 0
1, 8279, Note_off_c, 1, 66, 0
1, 8279, Note_off_c, 1, 62, 0
1, 8279, Note_off_c, 1, 55, 0
1, 8280, Note_on_c, 1, 85, 127
1, 8280, Note_on_c, 1, 81, 127
1, 8280, Note_on_c, 1, 76, 127
1, 8280, Note_on_c, 1, 45, 127
1, 8280, Note_on_c, 1, 67, 127
1, 8280, Note_on_c, 1, 64, 127
1, 8280, Note_on_c, 1, 57, 127
1, 8309, Note_off_c, 1, 57, 0
1, 8339, Note_off_c, 1, 85, 0
1, 8339, Note_off_c, 1, 81, 0
1, 8339, Note_off_c, 1, 76, 0
1, 8339, Note_off_c, 1, 67, 0
1, 8339, Note_off_c, 1, 64, 0
1, 8340, Note_on_c, 1, 69, 127
1, 8340, Note_on_c, 1, 47, 127
1, 8369, Note_off_c, 1, 47, 0
1, 8370, Note_on_c, 1, 49, 127
1, 8399, Note_off_c, 1, 69, 0
1, 8399, Note_off_c, 1, 49, 0
1, 8400, Note_on_c, 1, 73, 127
1, 8400, Note_on_c, 1, 50, 127
1, 8429, Note_off_c, 1, 50, 0
1, 8430, Note_on_c, 1, 52, 127
1, 8459, Note_off_c, 1, 73, 0
1, 8459, Note_off_c, 1, 52, 0
1, 8460, Note_on_c, 1, 54, 127
1, 8489, Note_off_c, 1, 54, 0
1, 8490, Note_on_c, 1, 55, 127
1, 8519, Note_off_c, 1, 45, 0
1, 8519, Note_off_c, 1, 55, 0
1, 8520, Note_on_c, 1, 67, 127
1, 8520, Note_on_c, 1, 64, 127
1, 8520, Note_on_c, 1, 76, 127
1, 8520, Note_on_c, 1, 73, 127
1, 8520, Note_on_c, 1, 69, 127
1, 8520, Note_on_c, 1, 57, 127
1, 8549, Note_off_c, 1, 57, 0
1, 8550, Note_on_c, 1, 55, 127
1, 8579, Note_off_c, 1, 67, 0
1, 8579, Note_off_c, 1, 64, 0
1, 8579, Note_off_c, 1, 76, 0
1, 8579, Note_off_c, 1, 73, 0
1, 8579, Note_off_c, 1, 69, 0
1, 8579, Note_off_c, 1, 55, 0
1, 8580, Note_on_c, 1, 66, 127
1, 8580, Note_on_c, 1, 62, 127
1, 8580, Note_on_c, 1, 73, 127
1, 8580, Note_on_c, 1, 69, 127
1, 8580, Note_on_c, 1, 64, 127
1, 8580, Note_on_c, 1, 57, 127
1, 8609, Note_off_c, 1, 66, 0
1, 8609, Note_off_c, 1, 62, 0
1, 8609, Note_off_c, 1, 57, 0
1, 8610, Note_on_c, 1, 67, 127
1, 8610, Note_on_c, 1, 55, 127
1, 8639, Note_off_c, 1, 73, 0
1, 8639, Note_off_c, 1, 69, 0
1, 8639, Note_off_c, 1, 64, 0
1, 8639, Note_off_c, 1, 67, 0
1, 8639, Note_off_c, 1, 55, 0
1, 8640, Note_on_c, 1, 69, 127
1, 8640, Note_on_c, 1, 66, 127
1, 8640, Note_on_c, 1, 74, 127
1, 8640, Note_on_c, 1, 62, 127
1, 8640, Note_on_c, 1, 54, 127
1, 8669, Note_off_c, 1, 74, 0
1, 8669, Note_off_c, 1, 54, 0
1, 8670, Note_off_c, 1, 62, 0
1, 8670, Note_on_c, 1, 78, 127
1, 8670, Note_on_c, 1, 50, 127
1, 8699, Note_off_c, 1, 50, 0
1, 8700, Note_on_c, 1, 81, 127
1, 8700, Note_on_c, 1, 67, 127
1, 8700, Note_on_c, 1, 76, 127
1, 8700, Note_on_c, 1, 73, 127
1, 8700, Note_on_c, 1, 52, 127
1, 8729, Note_off_c, 1, 67, 0
1, 8729, Note_off_c, 1, 73, 0
1, 8729, Note_off_c, 1, 52, 0
1, 8730, Note_off_c, 1, 76, 0
1, 8730, Note_on_c, 1, 71, 127
1, 8759, Note_off_c, 1, 78, 0
1, 8759, Note_off_c, 1, 81, 0
1, 8759, Note_off_c, 1, 71, 0
1, 8760, Note_on_c, 1, 55, 127
1, 8789, Note_off_c, 1, 55, 0
1, 8790, Note_on_c, 1, 57, 127
1, 8819, Note_off_c, 1, 57, 0
1, 8820, Note_on_c, 1, 59, 127
1, 8849, Note_off_c, 1, 59, 0
1, 8850, Note_on_c, 1, 64, 127
1, 8850, Note_on_c, 1, 61, 127
1, 8879, Note_off_c, 1, 64, 0
1, 8879, Note_off_c, 1, 61, 0
1, 8940, Note_on_c, 1, 83, 127
1, 8969, Note_off_c, 1, 83, 0
1, 8970, Note_on_c, 1, 85, 127
1, 8999, Note_off_c, 1, 85, 0
1, 9000, Note_on_c, 1, 86, 127
1, 9030, Note_on_c, 1, 47, 127
1, 9059, Note_off_c, 1, 86, 0
1, 9059, Note_off_c, 1, 47, 0
1, 9060, Note_on_c, 1, 49, 127
1, 9089, Note_off_c, 1, 49, 0
1, 9120, Note_on_c, 1, 79, 127
1, 9149, Note_off_c, 1, 79, 0
1, 9270, Note_off_c, 1, 69, 0
1, 9299, Note_off_c, 1, 66, 0
1, 9300, Note_on_c, 1, 79, 127
1, 9300, Note_on_c, 1, 74, 127
1, 9300, Note_on_c, 1, 66, 127
1, 9300, Note_on_c, 1, 67, 127
1, 9300, Note_on_c, 1, 64, 127
1, 9300, Note_on_c, 1, 86, 127
1, 9300, Note_on_c, 1, 59, 127
1, 9329, Note_off_c, 1, 79, 0
1, 9329, Note_off_c, 1, 67, 0
1, 9329, Note_off_c, 1, 64, 0
1, 9329, Note_off_c, 1, 86, 0
1, 9329, Note_off_c, 1, 59, 0
1, 9330, Note_on_c, 1, 81, 127
1, 9330, Note_on_c, 1, 69, 127
1, 9330, Note_on_c, 1, 85, 127
1, 9330, Note_on_c, 1, 57, 127
1, 9359, Note_off_c, 1, 74, 0
1, 9359, Note_off_c, 1, 66, 0
1, 9359, Note_off_c, 1, 81, 0
1, 9359, Note_off_c, 1, 69, 0
1, 9359, Note_off_c, 1, 85, 0
1, 9359, Note_off_c, 1, 57, 0
1, 9360, Note_on_c, 1, 83, 127
1, 9360, Note_on_c, 1, 71, 127
1, 9360, Note_on_c, 1, 67, 127
1, 9360, Note_on_c, 1, 74, 127
1, 9360, Note_on_c, 1, 55, 127
1, 9389, Note_off_c, 1, 83, 0
1, 9389, Note_off_c, 1, 71, 0
1, 9389, Note_off_c, 1, 55, 0
1, 9390, Note_on_c, 1, 81, 127
1, 9390, Note_on_c, 1, 69, 127
1, 9390, Note_on_c, 1, 54, 127
1, 9419, Note_off_c, 1, 67, 0
1, 9419, Note_off_c, 1, 74, 0
1, 9419, Note_off_c, 1, 81, 0
1, 9419, Note_off_c, 1, 69, 0
1, 9419, Note_off_c, 1, 54, 0
1, 9420, Note_on_c, 1, 83, 127
1, 9420, Note_on_c, 1, 74, 127
1, 9420, Note_on_c, 1, 71, 127
1, 9420, Note_on_c, 1, 62, 127
1, 9420, Note_on_c, 1, 55, 127
1, 9449, Note_off_c, 1, 83, 0
1, 9449, Note_off_c, 1, 55, 0
1, 9450, Note_on_c, 1, 81, 127
1, 9450, Note_on_c, 1, 69, 127
1, 9450, Note_on_c, 1, 54, 127
1, 9479, Note_off_c, 1, 74, 0
1, 9479, Note_off_c, 1, 71, 0
1, 9479, Note_off_c, 1, 62, 0
1, 9479, Note_off_c, 1, 81, 0
1, 9479, Note_off_c, 1, 69, 0
1, 9479, Note_off_c, 1, 54, 0
1, 9480, Note_on_c, 1, 79, 127
1, 9480, Note_on_c, 1, 76, 127
1, 9480, Note_on_c, 1, 67, 127
1, 9480, Note_on_c, 1, 64, 127
1, 9480, Note_on_c, 1, 73, 127
1, 9480, Note_on_c, 1, 52, 127
1, 9509, Note_off_c, 1, 79, 0
1, 9509, Note_off_c, 1, 76, 0
1, 9509, Note_off_c, 1, 67, 0
1, 9509, Note_off_c, 1, 64, 0
1, 9509, Note_off_c, 1, 73, 0
1, 9509, Note_off_c, 1, 52, 0
1, 9510, Note_on_c, 1, 78, 127
1, 9510, Note_on_c, 1, 66, 127
1, 9510, Note_on_c, 1, 74, 127
1, 9510, Note_on_c, 1, 50, 127
1, 9539, Note_off_c, 1, 78, 0
1, 9539, Note_off_c, 1, 66, 0
1, 9539, Note_off_c, 1, 74, 0
1, 9539, Note_off_c, 1, 50, 0
1, 9540, Note_on_c, 1, 79, 127
1, 9540, Note_on_c, 1, 76, 127
1, 9540, Note_on_c, 1, 67, 127
1, 9540, Note_on_c, 1, 64, 127
1, 9540, Note_on_c, 1, 73, 127
1, 9540, Note_on_c, 1, 52, 127
1, 9569, Note_off_c, 1, 79, 0
1, 9569, Note_off_c, 1, 76, 0
1, 9569, Note_off_c, 1, 67, 0
1, 9569, Note_off_c, 1, 64, 0
1, 9569, Note_off_c, 1, 73, 0
1, 9569, Note_off_c, 1, 52, 0
1, 9570, Note_on_c, 1, 78, 127
1, 9570, Note_on_c, 1, 66, 127
1, 9570, Note_on_c, 1, 74, 127
1, 9570, Note_on_c, 1, 50, 127
1, 9599, Note_off_c, 1, 78, 0
1, 9599, Note_off_c, 1, 66, 0
1, 9599, Note_off_c, 1, 74, 0
1, 9599, Note_off_c, 1, 50, 0
1, 9600, Note_on_c, 1, 76, 127
1, 9600, Note_on_c, 1, 79, 127
1, 9600, Note_on_c, 1, 64, 127
1, 9600, Note_on_c, 1, 67, 127
1, 9600, Note_on_c, 1, 49, 127
1, 9629, Note_off_c, 1, 79, 0
1, 9629, Note_off_c, 1, 64, 0
1, 9629, Note_off_c, 1, 67, 0
1, 9629, Note_off_c, 1, 49, 0
1, 9630, Note_on_c, 1, 74, 127
1, 9630, Note_on_c, 1, 81, 127
1, 9630, Note_on_c, 1, 62, 127
1, 9630, Note_on_c, 1, 69, 127
1, 9630, Note_on_c, 1, 47, 127
1, 9659, Note_off_c, 1, 76, 0
1, 9659, Note_off_c, 1, 74, 0
1, 9659, Note_off_c, 1, 81, 0
1, 9659, Note_off_c, 1, 62, 0
1, 9659, Note_off_c, 1, 69, 0
1, 9659, Note_off_c, 1, 47, 0
1, 9660, Note_on_c, 1, 76, 127
1, 9660, Note_on_c, 1, 78, 127
1, 9660, Note_on_c, 1, 64, 127
1, 9660, Note_on_c, 1, 66, 127
1, 9660, Note_on_c, 1, 69, 127
1, 9660, Note_on_c, 1, 49, 127
1, 9689, Note_off_c, 1, 76, 0
1, 9689, Note_off_c, 1, 78, 0
1, 9689, Note_off_c, 1, 64, 0
1, 9689, Note_off_c, 1, 66, 0
1, 9689, Note_off_c, 1, 49, 0
1, 9690, Note_on_c, 1, 74, 127
1, 9690, Note_on_c, 1, 79, 127
1, 9690, Note_on_c, 1, 62, 127
1, 9690, Note_on_c, 1, 67, 127
1, 9690, Note_on_c, 1, 47, 127
1, 9719, Note_off_c, 1, 69, 0
1, 9719, Note_off_c, 1, 74, 0
1, 9719, Note_off_c, 1, 79, 0
1, 9719, Note_off_c, 1, 62, 0
1, 9719, Note_off_c, 1, 67, 0
1, 9719, Note_off_c, 1, 47, 0
1, 9720, Note_on_c, 1, 79, 127
1, 9720, Note_on_c, 1, 81, 127
1, 9720, Note_on_c, 1, 67, 127
1, 9720, Note_on_c, 1, 69, 127
1, 9720, Note_on_c, 1, 64, 127
1, 9720, Note_on_c, 1, 49, 127
1, 9749, Note_off_c, 1, 81, 0
1, 9749, Note_off_c, 1, 69, 0
1, 9749, Note_off_c, 1, 64, 0
1, 9749, Note_off_c, 1, 49, 0
1, 9750, Note_on_c, 1, 61, 127
1, 9750, Note_on_c, 1, 45, 127
1, 9779, Note_off_c, 1, 79, 0
1, 9779, Note_off_c, 1, 67, 0
1, 9779, Note_off_c, 1, 61, 0
1, 9779, Note_off_c, 1, 45, 0
1, 9780, Note_on_c, 1, 81, 127
1, 9780, Note_on_c, 1, 78, 127
1, 9780, Note_on_c, 1, 69, 127
1, 9780, Note_on_c, 1, 45, 127
1, 9780, Note_on_c, 1, 66, 127
1, 9780, Note_on_c, 1, 62, 127
1, 9780, Note_on_c, 1, 47, 127
1, 9809, Note_off_c, 1, 81, 0
1, 9809, Note_off_c, 1, 78, 0
1, 9809, Note_off_c, 1, 69, 0
1, 9809, Note_off_c, 1, 45, 0
1, 9809, Note_off_c, 1, 66, 0
1, 9809, Note_off_c, 1, 62, 0
1, 9809, Note_off_c, 1, 47, 0
1, 9810, Note_on_c, 1, 79, 127
1, 9810, Note_on_c, 1, 76, 127
1, 9810, Note_on_c, 1, 69, 127
1, 9810, Note_on_c, 1, 45, 127
1, 9810, Note_on_c, 1, 67, 127
1, 9810, Note_on_c, 1, 64, 127
1, 9810, Note_on_c, 1, 49, 127
1, 9839, Note_off_c, 1, 79, 0
1, 9839, Note_off_c, 1, 76, 0
1, 9839, Note_off_c, 1, 69, 0
1, 9839, Note_off_c, 1, 45, 0
1, 9839, Note_off_c, 1, 67, 0
1, 9839, Note_off_c, 1, 64, 0
1, 9839, Note_off_c, 1, 49, 0
1, 9840, Note_on_c, 1, 78, 127
1, 9840, Note_on_c, 1, 74, 127
1, 9840, Note_on_c, 1, 69, 127
1, 9840, Note_on_c, 1, 50, 127
1, 9840, Note_on_c, 1, 66, 127
1, 9840, Note_on_c, 1, 62, 127
1, 9869, Note_off_c, 1, 78, 0
1, 9869, Note_off_c, 1, 69, 0
1, 9869, Note_off_c, 1, 50, 0
1, 9869, Note_off_c, 1, 66, 0
1, 9870, Note_on_c, 1, 76, 127
1, 9870, Note_on_c, 1, 64, 127
1, 9870, Note_on_c, 1, 73, 127
1, 9870, Note_on_c, 1, 67, 127
1, 9870, Note_on_c, 1, 52, 127
1, 9899, Note_off_c, 1, 74, 0
1, 9899, Note_off_c, 1, 62, 0
1, 9899, Note_off_c, 1, 76, 0
1, 9899, Note_off_c, 1, 64, 0
1, 9899, Note_off_c, 1, 73, 0
1, 9899, Note_off_c, 1, 67, 0
1, 9899, Note_off_c, 1, 52, 0
1, 9900, Note_on_c, 1, 74, 127
1, 9900, Note_on_c, 1, 69, 127
1, 9900, Note_on_c, 1, 50, 127
1, 9900, Note_on_c, 1, 62, 127
1, 9900, Note_on_c, 1, 57, 127
1, 9900, Note_on_c, 1, 54, 127
1, 9929, Note_off_c, 1, 74, 0
1, 9929, Note_off_c, 1, 50, 0
1, 9929, Note_off_c, 1, 62, 0
1, 9929, Note_off_c, 1, 54, 0
1, 9930, Note_on_c, 1, 76, 127
1, 9930, Note_on_c, 1, 64, 127
1, 9930, Note_on_c, 1, 71, 127
1, 9930, Note_on_c, 1, 55, 127
1, 9959, Note_off_c, 1, 69, 0
1, 9959, Note_off_c, 1, 57, 0
1, 9959, Note_off_c, 1, 76, 0
1, 9959, Note_off_c, 1, 64, 0
1, 9959, Note_off_c, 1, 71, 0
1, 9959, Note_off_c, 1, 55, 0
1, 9960, Note_on_c, 1, 76, 127
1, 9960, Note_on_c, 1, 69, 127
1, 9960, Note_on_c, 1, 45, 127
1, 9960, Note_on_c, 1, 64, 127
1, 9960, Note_on_c, 1, 57, 127
1, 9960, Note_on_c, 1, 73, 127
1, 9990, Note_on_c, 1, 54, 127
1, 10019, Note_off_c, 1, 45, 0
1, 10019, Note_off_c, 1, 57, 0
1, 10019, Note_off_c, 1, 54, 0
1, 10020, Note_on_c, 1, 61, 127
1, 10049, Note_off_c, 1, 76, 0
1, 10049, Note_off_c, 1, 73, 0
1, 10050, Note_on_c, 1, 74, 127
1, 10050, Note_on_c, 1, 62, 127
1, 10079, Note_off_c, 1, 69, 0
1, 10079, Note_off_c, 1, 64, 0
1, 10079, Note_off_c, 1, 61, 0
1, 10079, Note_off_c, 1, 74, 0
1, 10079, Note_off_c, 1, 62, 0
1, 10080, Note_on_c, 1, 74, 127
1, 10080, Note_on_c, 1, 69, 127
1, 10080, Note_on_c, 1, 66, 127
1, 10080, Note_on_c, 1, 50, 127
1, 10080, Note_on_c, 1, 62, 127
1, 10080, Note_on_c, 1, 54, 127
1, 10139, Note_off_c, 1, 62, 0
1, 10140, Note_on_c, 1, 64, 127
1, 10140, Note_on_c, 1, 57, 127
1, 10140, Note_on_c, 1, 61, 127
1, 10169, Note_off_c, 1, 64, 0
1, 10169, Note_off_c, 1, 61, 0
1, 10170, Note_on_c, 1, 59, 127
1, 10199, Note_off_c, 1, 74, 0
1, 10199, Note_off_c, 1, 69, 0
1, 10199, Note_off_c, 1, 66, 0
1, 10199, Note_off_c, 1, 50, 0
1, 10199, Note_off_c, 1, 57, 0
1, 10199, Note_off_c, 1, 59, 0
1, 10200, Note_off_c, 1, 54, 0
1, 10200, Note_on_c, 1, 78, 127
1, 10200, Note_on_c, 1, 67, 127
1, 10229, Note_off_c, 1, 67, 0
1, 10230, Note_on_c, 1, 55, 127
1, 10259, Note_off_c, 1, 78, 0
1, 10259, Note_off_c, 1, 55, 0
1, 10260, Note_on_c, 1, 50, 127
1, 10260, Note_on_c, 1, 74, 127
1, 10260, Note_on_c, 1, 69, 127
1, 10260, Note_on_c, 1, 66, 127
1, 10260, Note_on_c, 1, 71, 127
1, 10260, Note_on_c, 1, 54, 127
1, 10289, Note_off_c, 1, 71, 0
1, 10289, Note_off_c, 1, 54, 0
1, 10290, Note_on_c, 1, 73, 127
1, 10290, Note_on_c, 1, 52, 127
1, 10319, Note_off_c, 1, 50, 0
1, 10319, Note_off_c, 1, 74, 0
1, 10319, Note_off_c, 1, 69, 0
1, 10319, Note_off_c, 1, 66, 0
1, 10319, Note_off_c, 1, 73, 0
1, 10319, Note_off_c, 1, 52, 0
1, 10320, Note_on_c, 1, 50, 127
1, 10320, Note_on_c, 1, 81, 127
1, 10320, Note_on_c, 1, 78, 127
1, 10320, Note_on_c, 1, 74, 127
1, 10350, Note_on_c, 1, 73, 127
1, 10379, Note_off_c, 1, 50, 0
1, 10379, Note_off_c, 1, 81, 0
1, 10379, Note_off_c, 1, 78, 0
1, 10379, Note_off_c, 1, 74, 0
1, 10379, Note_off_c, 1, 73, 0
1, 10380, Note_on_c, 1, 50, 127
1, 10380, Note_on_c, 1, 78, 127
1, 10380, Note_on_c, 1, 74, 127
1, 10380, Note_on_c, 1, 69, 127
1, 10380, Note_on_c, 1, 66, 127
1, 10380, Note_on_c, 1, 57, 127
1, 10410, Note_on_c, 1, 73, 127
1, 10439, Note_off_c, 1, 50, 0
1, 10439, Note_off_c, 1, 78, 0
1, 10439, Note_off_c, 1, 74, 0
1, 10439, Note_off_c, 1, 69, 0
1, 10439, Note_off_c, 1, 66, 0
1, 10439, Note_off_c, 1, 57, 0
1, 10439, Note_off_c, 1, 73, 0
1, 10440, Note_on_c, 1, 86, 127
1, 10440, Note_on_c, 1, 83, 127
1, 10440, Note_on_c, 1, 78, 127
1, 10440, Note_on_c, 1, 50, 127
1, 10440, Note_on_c, 1, 62, 127
1, 10440, Note_on_c, 1, 74, 127
1, 10440, Note_on_c, 1, 66, 127
1, 10440, Note_on_c, 1, 59, 127
1, 10469, Note_off_c, 1, 74, 0
1, 10499, Note_off_c, 1, 86, 0
1, 10499, Note_off_c, 1, 83, 0
1, 10499, Note_off_c, 1, 78, 0
1, 10499, Note_off_c, 1, 62, 0
1, 10499, Note_off_c, 1, 66, 0
1, 10499, Note_off_c, 1, 59, 0
1, 10500, Note_on_c, 1, 67, 127
1, 10500, Note_on_c, 1, 64, 127
1, 10500, Note_on_c, 1, 47, 127
1, 10500, Note_on_c, 1, 57, 127
1, 10529, Note_off_c, 1, 67, 0
1, 10529, Note_off_c, 1, 64, 0
1, 10529, Note_off_c, 1, 57, 0
1, 10530, Note_on_c, 1, 69, 127
1, 10530, Note_on_c, 1, 55, 127
1, 10559, Note_off_c, 1, 50, 0
1, 10559, Note_off_c, 1, 47, 0
1, 10559, Note_off_c, 1, 69, 0
1, 10559, Note_off_c, 1, 55, 0
1, 10560, Note_on_c, 1, 50, 127
1, 10560, Note_on_c, 1, 62, 127
1, 10560, Note_on_c, 1, 78, 127
1, 10560, Note_on_c, 1, 71, 127
1, 10560, Note_on_c, 1, 67, 127
1, 10560, Note_on_c, 1, 54, 127
1, 10589, Note_off_c, 1, 67, 0
1, 10589, Note_off_c, 1, 54, 0
1, 10590, Note_on_c, 1, 73, 127
1, 10590, Note_on_c, 1, 69, 127
1, 10590, Note_on_c, 1, 52, 127
1, 10619, Note_off_c, 1, 50, 0
1, 10619, Note_off_c, 1, 62, 0
1, 10619, Note_off_c, 1, 78, 0
1, 10619, Note_off_c, 1, 71, 0
1, 10619, Note_off_c, 1, 73, 0
1, 10619, Note_off_c, 1, 69, 0
1, 10619, Note_off_c, 1, 52, 0
1, 10620, Note_on_c, 1, 50, 127
1, 10620, Note_on_c, 1, 74, 127
1, 10620, Note_on_c, 1, 66, 127
1, 10620, Note_on_c, 1, 71, 127
1, 10649, Note_off_c, 1, 71, 0
1, 10650, Note_on_c, 1, 76, 127
1, 10650, Note_on_c, 1, 73, 127
1, 10650, Note_on_c, 1, 49, 127
1, 10679, Note_off_c, 1, 50, 0
1, 10679, Note_off_c, 1, 74, 0
1, 10679, Note_off_c, 1, 66, 0
1, 10679, Note_off_c, 1, 76, 0
1, 10679, Note_off_c, 1, 73, 0
1, 10679, Note_off_c, 1, 49, 0
1, 10680, Note_on_c, 1, 50, 127
1, 10680, Note_on_c, 1, 71, 127
1, 10680, Note_on_c, 1, 66, 127
1, 10680, Note_on_c, 1, 62, 127
1, 10680, Note_on_c, 1, 78, 127
1, 10680, Note_on_c, 1, 74, 127
1, 10680, Note_on_c, 1, 47, 127
1, 10709, Note_off_c, 1, 78, 0
1, 10709, Note_off_c, 1, 74, 0
1, 10710, Note_on_c, 1, 76, 127
1, 10710, Note_on_c, 1, 73, 127
1, 10739, Note_off_c, 1, 50, 0
1, 10739, Note_off_c, 1, 71, 0
1, 10739, Note_off_c, 1, 66, 0
1, 10739, Note_off_c, 1, 62, 0
1, 10739, Note_off_c, 1, 47, 0
1, 10739, Note_off_c, 1, 76, 0
1, 10739, Note_off_c, 1, 73, 0
1, 10740, Note_on_c, 1, 50, 127
1, 10740, Note_on_c, 1, 66, 127
1, 10740, Note_on_c, 1, 62, 127
1, 10740, Note_on_c, 1, 59, 127
1, 10740, Note_on_c, 1, 78, 127
1, 10740, Note_on_c, 1, 74, 127
1, 10769, Note_off_c, 1, 78, 0
1, 10769, Note_off_c, 1, 74, 0
1, 10770, Note_on_c, 1, 76, 127
1, 10770, Note_on_c, 1, 73, 127
1, 10799, Note_off_c, 1, 50, 0
1, 10799, Note_off_c, 1, 66, 0
1, 10799, Note_off_c, 1, 62, 0
1, 10799, Note_off_c, 1, 59, 0
1, 10799, Note_off_c, 1, 76, 0
1, 10799, Note_off_c, 1, 73, 0
1, 10800, Note_on_c, 1, 69, 127
1, 10800, Note_on_c, 1, 66, 127
1, 10800, Note_on_c, 1, 62, 127
1, 10800, Note_on_c, 1, 50, 127
1, 10800, Note_on_c, 1, 78, 127
1, 10800, Note_on_c, 1, 74, 127
1, 10800, Note_on_c, 1, 57, 127
1, 10800, Note_on_c, 1, 54, 127
1, 10829, Note_off_c, 1, 78, 0
1, 10829, Note_off_c, 1, 74, 0
1, 10829, Note_off_c, 1, 57, 0
1, 10859, Note_off_c, 1, 69, 0
1, 10859, Note_off_c, 1, 66, 0
1, 10859, Note_off_c, 1, 62, 0
1, 10859, Note_off_c, 1, 54, 0
1, 10860, Note_on_c, 1, 73, 127
1, 10860, Note_on_c, 1, 67, 127
1, 10860, Note_on_c, 1, 52, 127
1, 10860, Note_on_c, 1, 42, 127
1, 10889, Note_off_c, 1, 73, 0
1, 10889, Note_off_c, 1, 67, 0
1, 10889, Note_off_c, 1, 52, 0
1, 10890, Note_on_c, 1, 71, 127
1, 10919, Note_off_c, 1, 50, 0
1, 10919, Note_off_c, 1, 42, 0
1, 10919, Note_off_c, 1, 71, 0
1, 10920, Note_on_c, 1, 50, 127
1, 10920, Note_on_c, 1, 62, 127
1, 10920, Note_on_c, 1, 74, 127
1, 10920, Note_on_c, 1, 69, 127
1, 10920, Note_on_c, 1, 66, 127
1, 10920, Note_on_c, 1, 64, 127
1, 10920, Note_on_c, 1, 55, 127
1, 10920, Note_on_c, 1, 49, 127
1, 10949, Note_off_c, 1, 64, 0
1, 10949, Note_off_c, 1, 55, 0
1, 10949, Note_off_c, 1, 49, 0
1, 10950, Note_on_c, 1, 67, 127
1, 10950, Note_on_c, 1, 57, 127
1, 10950, Note_on_c, 1, 47, 127
1, 10979, Note_off_c, 1, 50, 0
1, 10979, Note_off_c, 1, 62, 0
1, 10979, Note_off_c, 1, 74, 0
1, 10979, Note_off_c, 1, 69, 0
1, 10979, Note_off_c, 1, 66, 0
1, 10979, Note_off_c, 1, 67, 0
1, 10979, Note_off_c, 1, 57, 0
1, 10979, Note_off_c, 1, 47, 0
1, 10980, Note_on_c, 1, 50, 127
1, 10980, Note_on_c, 1, 69, 127
1, 10980, Note_on_c, 1, 66, 127
1, 10980, Note_on_c, 1, 62, 127
1, 10980, Note_on_c, 1, 61, 127
1, 10980, Note_on_c, 1, 59, 127
1, 10980, Note_on_c, 1, 45, 127
1, 11009, Note_off_c, 1, 61, 0
1, 11009, Note_off_c, 1, 59, 0
1, 11009, Note_off_c, 1, 45, 0
1, 11010, Note_on_c, 1, 64, 127
1, 11010, Note_on_c, 1, 43, 127
1, 11039, Note_off_c, 1, 50, 0
1, 11039, Note_off_c, 1, 69, 0
1, 11039, Note_off_c, 1, 66, 0
1, 11039, Note_off_c, 1, 62, 0
1, 11039, Note_off_c, 1, 64, 0
1, 11039, Note_off_c, 1, 43, 0
1, 11040, Note_on_c, 1, 50, 127
1, 11040, Note_on_c, 1, 78, 127
1, 11040, Note_on_c, 1, 74, 127
1, 11040, Note_on_c, 1, 69, 127
1, 11040, Note_on_c, 1, 62, 127
1, 11040, Note_on_c, 1, 57, 127
1, 11040, Note_on_c, 1, 42, 127
1, 11070, Note_on_c, 1, 61, 127
1, 11099, Note_off_c, 1, 50, 0
1, 11099, Note_off_c, 1, 78, 0
1, 11099, Note_off_c, 1, 74, 0
1, 11099, Note_off_c, 1, 69, 0
1, 11099, Note_off_c, 1, 62, 0
1, 11099, Note_off_c, 1, 57, 0
1, 11099, Note_off_c, 1, 42, 0
1, 11099, Note_off_c, 1, 61, 0
1, 11100, Note_on_c, 1, 50, 127
1, 11100, Note_on_c, 1, 74, 127
1, 11100, Note_on_c, 1, 69, 127
1, 11100, Note_on_c, 1, 66, 127
1, 11100, Note_on_c, 1, 62, 127
1, 11100, Note_on_c, 1, 54, 127
1, 11129, Note_off_c, 1, 62, 0
1, 11130, Note_on_c, 1, 61, 127
1, 11159, Note_off_c, 1, 50, 0
1, 11159, Note_off_c, 1, 74, 0
1, 11159, Note_off_c, 1, 69, 0
1, 11159, Note_off_c, 1, 66, 0
1, 11159, Note_off_c, 1, 54, 0
1, 11159, Note_off_c, 1, 61, 0
1, 11160, Note_on_c, 1, 83, 127
1, 11160, Note_on_c, 1, 79, 127
1, 11160, Note_on_c, 1, 74, 127
1, 11160, Note_on_c, 1, 50, 127
1, 11160, Note_on_c, 1, 62, 127
1, 11160, Note_on_c, 1, 71, 127
1, 11160, Note_on_c, 1, 59, 127
1, 11160, Note_on_c, 1, 55, 127
1, 11189, Note_off_c, 1, 71, 0
1, 11189, Note_off_c, 1, 59, 0
1, 11189, Note_off_c, 1, 55, 0
1, 11190, Note_on_c, 1, 38, 127
1, 11219, Note_off_c, 1, 83, 0
1, 11219, Note_off_c, 1, 79, 0
1, 11219, Note_off_c, 1, 74, 0
1, 11219, Note_off_c, 1, 62, 0
1, 11219, Note_off_c, 1, 38, 0
1, 11220, Note_on_c, 1, 78, 127
1, 11220, Note_on_c, 1, 60, 127
1, 11220, Note_on_c, 1, 57, 127
1, 11220, Note_on_c, 1, 52, 127
1, 11220, Note_on_c, 1, 40, 127
1, 11249, Note_off_c, 1, 78, 0
1, 11249, Note_off_c, 1, 60, 0
1, 11249, Note_off_c, 1, 57, 0
1, 11249, Note_off_c, 1, 52, 0
1, 11249, Note_off_c, 1, 40, 0
1, 11250, Note_on_c, 1, 76, 127
1, 11250, Note_on_c, 1, 54, 127
1, 11250, Note_on_c, 1, 42, 127
1, 11279, Note_off_c, 1, 50, 0
1, 11279, Note_off_c, 1, 76, 0
1, 11279, Note_off_c, 1, 54, 0
1, 11279, Note_off_c, 1, 42, 0
1, 11280, Note_on_c, 1, 50, 127
1, 11280, Note_on_c, 1, 62, 127
1, 11280, Note_on_c, 1, 74, 127
1, 11280, Note_on_c, 1, 67, 127
1, 11280, Note_on_c, 1, 64, 127
1, 11280, Note_on_c, 1, 60, 127
1, 11280, Note_on_c, 1, 55, 127
1, 11280, Note_on_c, 1, 43, 127
1, 11309, Note_off_c, 1, 64, 0
1, 11309, Note_off_c, 1, 60, 0
1, 11309, Note_off_c, 1, 55, 0
1, 11309, Note_off_c, 1, 43, 0
1, 11310, Note_on_c, 1, 72, 127
1, 11310, Note_on_c, 1, 66, 127
1, 11310, Note_on_c, 1, 57, 127
1, 11310, Note_on_c, 1, 45, 127
1, 11339, Note_off_c, 1, 50, 0
1, 11339, Note_off_c, 1, 62, 0
1, 11339, Note_off_c, 1, 74, 0
1, 11339, Note_off_c, 1, 67, 0
1, 11339, Note_off_c, 1, 72, 0
1, 11339, Note_off_c, 1, 66, 0
1, 11339, Note_off_c, 1, 57, 0
1, 11339, Note_off_c, 1, 45, 0
1, 11340, Note_on_c, 1, 50, 127
1, 11340, Note_on_c, 1, 71, 127
1, 11340, Note_on_c, 1, 62, 127
1, 11340, Note_on_c, 1, 67, 127
1, 11340, Note_on_c, 1, 64, 127
1, 11340, Note_on_c, 1, 59, 127
1, 11340, Note_on_c, 1, 47, 127
1, 11369, Note_off_c, 1, 67, 0
1, 11369, Note_off_c, 1, 64, 0
1, 11369, Note_off_c, 1, 59, 0
1, 11369, Note_off_c, 1, 47, 0
1, 11370, Note_on_c, 1, 69, 127
1, 11370, Note_on_c, 1, 66, 127
1, 11370, Note_on_c, 1, 61, 127
1, 11370, Note_on_c, 1, 49, 127
1, 11399, Note_off_c, 1, 50, 0
1, 11399, Note_off_c, 1, 71, 0
1, 11399, Note_off_c, 1, 62, 0
1, 11399, Note_off_c, 1, 69, 0
1, 11399, Note_off_c, 1, 66, 0
1, 11399, Note_off_c, 1, 61, 0
1, 11399, Note_off_c, 1, 49, 0
1, 11400, Note_on_c, 1, 50, 127
1, 11400, Note_on_c, 1, 67, 127
1, 11400, Note_on_c, 1, 62, 127
1, 11400, Note_on_c, 1, 59, 127
1, 11400, Note_on_c, 1, 71, 127
1, 11429, Note_off_c, 1, 71, 0
1, 11430, Note_on_c, 1, 69, 127
1, 11430, Note_on_c, 1, 66, 127
1, 11430, Note_on_c, 1, 61, 127
1, 11430, Note_on_c, 1, 49, 127
1, 11459, Note_off_c, 1, 50, 0
1, 11459, Note_off_c, 1, 67, 0
1, 11459, Note_off_c, 1, 62, 0
1, 11459, Note_off_c, 1, 59, 0
1, 11459, Note_off_c, 1, 69, 0
1, 11459, Note_off_c, 1, 66, 0
1, 11459, Note_off_c, 1, 61, 0
1, 11459, Note_off_c, 1, 49, 0
1, 11460, Note_on_c, 1, 50, 127
1, 11460, Note_on_c, 1, 62, 127
1, 11460, Note_on_c, 1, 59, 127
1, 11460, Note_on_c, 1, 55, 127
1, 11460, Note_on_c, 1, 71, 127
1, 11460, Note_on_c, 1, 67, 127
1, 11489, Note_off_c, 1, 71, 0
1, 11489, Note_off_c, 1, 67, 0
1, 11490, Note_on_c, 1, 69, 127
1, 11490, Note_on_c, 1, 64, 127
1, 11490, Note_on_c, 1, 61, 127
1, 11490, Note_on_c, 1, 49, 127
1, 11519, Note_off_c, 1, 50, 0
1, 11519, Note_off_c, 1, 62, 0
1, 11519, Note_off_c, 1, 59, 0
1, 11519, Note_off_c, 1, 55, 0
1, 11519, Note_off_c, 1, 69, 0
1, 11519, Note_off_c, 1, 64, 0
1, 11519, Note_off_c, 1, 61, 0
1, 11519, Note_off_c, 1, 49, 0
1, 11520, Note_on_c, 1, 50, 127
1, 11520, Note_on_c, 1, 69, 127
1, 11520, Note_on_c, 1, 66, 127
1, 11520, Note_on_c, 1, 62, 127
1, 11550, Note_on_c, 1, 45, 127
1, 11579, Note_off_c, 1, 50, 0
1, 11579, Note_off_c, 1, 69, 0
1, 11579, Note_off_c, 1, 66, 0
1, 11579, Note_off_c, 1, 62, 0
1, 11579, Note_off_c, 1, 45, 0
1, 11580, Note_on_c, 1, 81, 127
1, 11580, Note_on_c, 1, 78, 127
1, 11580, Note_on_c, 1, 74, 127
1, 11580, Note_on_c, 1, 50, 127
1, 11580, Note_on_c, 1, 62, 127
1, 11580, Note_on_c, 1, 57, 127
1, 11580, Note_on_c, 1, 66, 127
1, 11580, Note_on_c, 1, 47, 127
1, 11609, Note_off_c, 1, 47, 0
1, 11610, Note_on_c, 1, 64, 127
1, 11610, Note_on_c, 1, 79, 127
1, 11610, Note_on_c, 1, 49, 127
1, 11639, Note_off_c, 1, 81, 0
1, 11639, Note_off_c, 1, 78, 0
1, 11639, Note_off_c, 1, 74, 0
1, 11639, Note_off_c, 1, 50, 0
1, 11639, Note_off_c, 1, 62, 0
1, 11639, Note_off_c, 1, 57, 0
1, 11639, Note_off_c, 1, 66, 0
1, 11639, Note_off_c, 1, 64, 0
1, 11639, Note_off_c, 1, 79, 0
1, 11639, Note_off_c, 1, 49, 0
1, 11640, Note_on_c, 1, 81, 127
1, 11640, Note_on_c, 1, 78, 127
1, 11640, Note_on_c, 1, 74, 127
1, 11640, Note_on_c, 1, 50, 127
1, 11640, Note_on_c, 1, 66, 127
1, 11640, Note_on_c, 1, 57, 127
1, 11640, Note_on_c, 1, 69, 127
1, 11640, Note_on_c, 1, 62, 127
1, 11669, Note_off_c, 1, 50, 0
1, 11669, Note_off_c, 1, 66, 0
1, 11669, Note_off_c, 1, 69, 0
1, 11670, Note_on_c, 1, 67, 127
1, 11670, Note_on_c, 1, 76, 127
1, 11670, Note_on_c, 1, 52, 127
1, 11699, Note_off_c, 1, 81, 0
1, 11699, Note_off_c, 1, 78, 0
1, 11699, Note_off_c, 1, 74, 0
1, 11699, Note_off_c, 1, 57, 0
1, 11699, Note_off_c, 1, 62, 0
1, 11699, Note_off_c, 1, 67, 0
1, 11699, Note_off_c, 1, 76, 0
1, 11699, Note_off_c, 1, 52, 0
1, 11700, Note_on_c, 1, 81, 127
1, 11700, Note_on_c, 1, 78, 127
1, 11700, Note_on_c, 1, 74, 127
1, 11700, Note_on_c, 1, 50, 127
1, 11700, Note_on_c, 1, 69, 127
1, 11700, Note_on_c, 1, 62, 127
1, 11700, Note_on_c, 1, 66, 127
1, 11700, Note_on_c, 1, 57, 127
1, 11700, Note_on_c, 1, 54, 127
1, 11729, Note_off_c, 1, 54, 0
1, 11730, Note_on_c, 1, 71, 127
1, 11730, Note_on_c, 1, 73, 127
1, 11730, Note_on_c, 1, 64, 127
1, 11730, Note_on_c, 1, 55, 127
1, 11759, Note_off_c, 1, 81, 0
1, 11759, Note_off_c, 1, 78, 0
1, 11759, Note_off_c, 1, 74, 0
1, 11759, Note_off_c, 1, 50, 0
1, 11759, Note_off_c, 1, 69, 0
1, 11759, Note_off_c, 1, 62, 0
1, 11759, Note_off_c, 1, 66, 0
1, 11759, Note_off_c, 1, 57, 0
1, 11759, Note_off_c, 1, 71, 0
1, 11759, Note_off_c, 1, 73, 0
1, 11759, Note_off_c, 1, 64, 0
1, 11759, Note_off_c, 1, 55, 0
1, 11760, Note_on_c, 1, 81, 127
1, 11760, Note_on_c, 1, 78, 127
1, 11760, Note_on_c, 1, 74, 127
1, 11760, Note_on_c, 1, 50, 127
1, 11760, Note_on_c, 1, 69, 127
1, 11760, Note_on_c, 1, 66, 127
1, 11760, Note_on_c, 1, 62, 127
1, 11760, Note_on_c, 1, 57, 127
1, 11790, Note_on_c, 1, 71, 127
1, 11790, Note_on_c, 1, 56, 127
1, 11819, Note_off_c, 1, 81, 0
1, 11819, Note_off_c, 1, 78, 0
1, 11819, Note_off_c, 1, 74, 0
1, 11819, Note_off_c, 1, 50, 0
1, 11819, Note_off_c, 1, 69, 0
1, 11819, Note_off_c, 1, 66, 0
1, 11819, Note_off_c, 1, 62, 0
1, 11819, Note_off_c, 1, 57, 0
1, 11819, Note_off_c, 1, 71, 0
1, 11819, Note_off_c, 1, 56, 0
1, 11820, Note_on_c, 1, 81, 127
1, 11820, Note_on_c, 1, 76, 127
1, 11820, Note_on_c, 1, 69, 127
1, 11820, Note_on_c, 1, 67, 127
1, 11820, Note_on_c, 1, 64, 127
1, 11820, Note_on_c, 1, 73, 127
1, 11820, Note_on_c, 1, 61, 127
1, 11820, Note_on_c, 1, 57, 127
1, 11849, Note_off_c, 1, 81, 0
1, 11849, Note_off_c, 1, 67, 0
1, 11849, Note_off_c, 1, 64, 0
1, 11849, Note_off_c, 1, 73, 0
1, 11849, Note_off_c, 1, 61, 0
1, 11849, Note_off_c, 1, 57, 0
1, 11850, Note_on_c, 1, 83, 127
1, 11850, Note_on_c, 1, 66, 127
1, 11850, Note_on_c, 1, 62, 127
1, 11850, Note_on_c, 1, 56, 127
1, 11879, Note_off_c, 1, 76, 0
1, 11879, Note_off_c, 1, 69, 0
1, 11879, Note_off_c, 1, 83, 0
1, 11879, Note_off_c, 1, 66, 0
1, 11879, Note_off_c, 1, 62, 0
1, 11879, Note_off_c, 1, 56, 0
1, 11880, Note_on_c, 1, 85, 127
1, 11880, Note_on_c, 1, 76, 127
1, 11880, Note_on_c, 1, 81, 127
1, 11880, Note_on_c, 1, 45, 127
1, 11880, Note_on_c, 1, 64, 127
1, 11880, Note_on_c, 1, 57, 127
1, 11880, Note_on_c, 1, 73, 127
1, 11880, Note_on_c, 1, 69, 127
1, 11880, Note_on_c, 1, 61, 127
1, 11939, Note_off_c, 1, 85, 0
1, 11939, Note_off_c, 1, 81, 0
1, 11940, Note_on_c, 1, 47, 127
1, 11969, Note_off_c, 1, 47, 0
1, 11970, Note_on_c, 1, 49, 127
1, 11999, Note_off_c, 1, 76, 0
1, 11999, Note_off_c, 1, 45, 0
1, 11999, Note_off_c, 1, 64, 0
1, 11999, Note_off_c, 1, 57, 0
1, 11999, Note_off_c, 1, 73, 0
1, 11999, Note_off_c, 1, 69, 0
1, 11999, Note_off_c, 1, 61, 0
1, 11999, Note_off_c, 1, 49, 0
1, 12000, Note_on_c, 1, 45, 127
1, 12000, Note_on_c, 1, 64, 127
1, 12000, Note_on_c, 1, 57, 127
1, 12000, Note_on_c, 1, 81, 127
1, 12000, Note_on_c, 1, 76, 127
1, 12000, Note_on_c, 1, 73, 127
1, 12000, Note_on_c, 1, 50, 127
1, 12014, Note_off_c, 1, 45, 0
1, 12029, Note_off_c, 1, 50, 0
1, 12030, Note_on_c, 1, 52, 127
1, 12059, Note_off_c, 1, 64, 0
1, 12059, Note_off_c, 1, 57, 0
1, 12059, Note_off_c, 1, 81, 0
1, 12059, Note_off_c, 1, 76, 0
1, 12059, Note_off_c, 1, 73, 0
1, 12059, Note_off_c, 1, 52, 0
1, 12060, Note_on_c, 1, 45, 127
1, 12060, Note_on_c, 1, 64, 127
1, 12060, Note_on_c, 1, 57, 127
1, 12060, Note_on_c, 1, 76, 127
1, 12060, Note_on_c, 1, 73, 127
1, 12060, Note_on_c, 1, 69, 127
1, 12060, Note_on_c, 1, 54, 127
1, 12074, Note_off_c, 1, 45, 0
1, 12089, Note_off_c, 1, 54, 0
1, 12090, Note_on_c, 1, 55, 127
1, 12119, Note_off_c, 1, 64, 0
1, 12119, Note_off_c, 1, 57, 0
1, 12119, Note_off_c, 1, 76, 0
1, 12119, Note_off_c, 1, 73, 0
1, 12119, Note_off_c, 1, 69, 0
1, 12119, Note_off_c, 1, 55, 0
1, 12120, Note_on_c, 1, 45, 127
1, 12120, Note_on_c, 1, 64, 127
1, 12120, Note_on_c, 1, 57, 127
1, 12120, Note_on_c, 1, 76, 127
1, 12120, Note_on_c, 1, 73, 127
1, 12120, Note_on_c, 1, 69, 127
1, 12134, Note_off_c, 1, 45, 0
1, 12150, Note_on_c, 1, 56, 127
1, 12179, Note_off_c, 1, 64, 0
1, 12179, Note_off_c, 1, 57, 0
1, 12179, Note_off_c, 1, 76, 0
1, 12179, Note_off_c, 1, 73, 0
1, 12179, Note_off_c, 1, 69, 0
1, 12179, Note_off_c, 1, 56, 0
1, 12180, Note_on_c, 1, 45, 127
1, 12180, Note_on_c, 1, 62, 127
1, 12180, Note_on_c, 1, 54, 127
1, 12180, Note_on_c, 1, 73, 127
1, 12180, Note_on_c, 1, 69, 127
1, 12180, Note_on_c, 1, 64, 127
1, 12180, Note_on_c, 1, 57, 127
1, 12194, Note_off_c, 1, 45, 0
1, 12209, Note_off_c, 1, 62, 0
1, 12209, Note_off_c, 1, 54, 0
1, 12209, Note_off_c, 1, 57, 0
1, 12210, Note_on_c, 1, 56, 127
1, 12239, Note_off_c, 1, 73, 0
1, 12239, Note_off_c, 1, 69, 0
1, 12239, Note_off_c, 1, 64, 0
1, 12239, Note_off_c, 1, 56, 0
1, 12240, Note_on_c, 1, 86, 127
1, 12240, Note_on_c, 1, 81, 127
1, 12240, Note_on_c, 1, 78, 127
1, 12240, Note_on_c, 1, 45, 127
1, 12240, Note_on_c, 1, 66, 127
1, 12240, Note_on_c, 1, 62, 127
1, 12240, Note_on_c, 1, 57, 127
1, 12254, Note_off_c, 1, 45, 0
1, 12269, Note_off_c, 1, 57, 0
1, 12299, Note_off_c, 1, 86, 0
1, 12299, Note_off_c, 1, 81, 0
1, 12299, Note_off_c, 1, 78, 0
1, 12299, Note_off_c, 1, 66, 0
1, 12299, Note_off_c, 1, 62, 0
1, 12300, Note_on_c, 1, 81, 127
1, 12300, Note_on_c, 1, 78, 127
1, 12300, Note_on_c, 1, 74, 127
1, 12300, Note_on_c, 1, 45, 127
1, 12300, Note_on_c, 1, 66, 127
1, 12300, Note_on_c, 1, 62, 127
1, 12300, Note_on_c, 1, 47, 127
1, 12314, Note_off_c, 1, 45, 0
1, 12329, Note_off_c, 1, 47, 0
1, 12330, Note_on_c, 1, 49, 127
1, 12359, Note_off_c, 1, 81, 0
1, 12359, Note_off_c, 1, 78, 0
1, 12359, Note_off_c, 1, 74, 0
1, 12359, Note_off_c, 1, 66, 0
1, 12359, Note_off_c, 1, 62, 0
1, 12359, Note_off_c, 1, 49, 0
1, 12360, Note_on_c, 1, 45, 127
1, 12360, Note_on_c, 1, 66, 127
1, 12360, Note_on_c, 1, 62, 127
1, 12360, Note_on_c, 1, 81, 127
1, 12360, Note_on_c, 1, 78, 127
1, 12360, Note_on_c, 1, 74, 127
1, 12360, Note_on_c, 1, 50, 127
1, 12374, Note_off_c, 1, 45, 0
1, 12389, Note_off_c, 1, 50, 0
1, 12390, Note_on_c, 1, 52, 127
1, 12419, Note_off_c, 1, 66, 0
1, 12419, Note_off_c, 1, 62, 0
1, 12419, Note_off_c, 1, 81, 0
1, 12419, Note_off_c, 1, 78, 0
1, 12419, Note_off_c, 1, 74, 0
1, 12419, Note_off_c, 1, 52, 0
1, 12420, Note_on_c, 1, 45, 127
1, 12420, Note_on_c, 1, 66, 127
1, 12420, Note_on_c, 1, 62, 127
1, 12420, Note_on_c, 1, 78, 127
1, 12420, Note_on_c, 1, 74, 127
1, 12420, Note_on_c, 1, 69, 127
1, 12420, Note_on_c, 1, 54, 127
1, 12434, Note_off_c, 1, 45, 0
1, 12449, Note_off_c, 1, 54, 0
1, 12450, Note_on_c, 1, 55, 127
1, 12479, Note_off_c, 1, 66, 0
1, 12479, Note_off_c, 1, 62, 0
1, 12479, Note_off_c, 1, 78, 0
1, 12479, Note_off_c, 1, 74, 0
1, 12479, Note_off_c, 1, 69, 0
1, 12479, Note_off_c, 1, 55, 0
1, 12480, Note_on_c, 1, 45, 127
1, 12480, Note_on_c, 1, 66, 127
1, 12480, Note_on_c, 1, 62, 127
1, 12480, Note_on_c, 1, 78, 127
1, 12480, Note_on_c, 1, 74, 127
1, 12480, Note_on_c, 1, 69, 127
1, 12480, Note_on_c, 1, 57, 127
1, 12494, Note_off_c, 1, 45, 0
1, 12509, Note_off_c, 1, 57, 0
1, 12510, Note_on_c, 1, 56, 127
1, 12539, Note_off_c, 1, 66, 0
1, 12539, Note_off_c, 1, 62, 0
1, 12539, Note_off_c, 1, 78, 0
1, 12539, Note_off_c, 1, 74, 0
1, 12539, Note_off_c, 1, 69, 0
1, 12539, Note_off_c, 1, 56, 0
1, 12540, Note_on_c, 1, 45, 127
1, 12540, Note_on_c, 1, 64, 127
1, 12540, Note_on_c, 1, 57, 127
1, 12540, Note_on_c, 1, 74, 127
1, 12540, Note_on_c, 1, 69, 127
1, 12540, Note_on_c, 1, 66, 127
1, 12554, Note_off_c, 1, 45, 0
1, 12569, Note_off_c, 1, 64, 0
1, 12569, Note_off_c, 1, 57, 0
1, 12570, Note_on_c, 1, 62, 127
1, 12570, Note_on_c, 1, 56, 127
1, 12599, Note_off_c, 1, 74, 0
1, 12599, Note_off_c, 1, 69, 0
1, 12599, Note_off_c, 1, 66, 0
1, 12599, Note_off_c, 1, 62, 0
1, 12599, Note_off_c, 1, 56, 0
1, 12600, Note_on_c, 1, 85, 127
1, 12600, Note_on_c, 1, 81, 127
1, 12600, Note_on_c, 1, 76, 127
1, 12600, Note_on_c, 1, 45, 127
1, 12600, Note_on_c, 1, 67, 127
1, 12600, Note_on_c, 1, 64, 127
1, 12600, Note_on_c, 1, 57, 127
1, 12629, Note_off_c, 1, 57, 0
1, 12659, Note_off_c, 1, 85, 0
1, 12659, Note_off_c, 1, 81, 0
1, 12659, Note_off_c, 1, 76, 0
1, 12659, Note_off_c, 1, 67, 0
1, 12659, Note_off_c, 1, 64, 0
1, 12660, Note_on_c, 1, 69, 127
1, 12660, Note_on_c, 1, 47, 127
1, 12689, Note_off_c, 1, 47, 0
1, 12690, Note_on_c, 1, 49, 127
1, 12719, Note_off_c, 1, 69, 0
1, 12719, Note_off_c, 1, 49, 0
1, 12720, Note_on_c, 1, 73, 127
1, 12720, Note_on_c, 1, 50, 127
1, 12749, Note_off_c, 1, 50, 0
1, 12750, Note_on_c, 1, 52, 127
1, 12779, Note_off_c, 1, 73, 0
1, 12779, Note_off_c, 1, 52, 0
1, 12780, Note_on_c, 1, 54, 127
1, 12809, Note_off_c, 1, 54, 0
1, 12810, Note_on_c, 1, 55, 127
1, 12839, Note_off_c, 1, 45, 0
1, 12839, Note_off_c, 1, 55, 0
1, 12840, Note_on_c, 1, 67, 127
1, 12840, Note_on_c, 1, 64, 127
1, 12840, Note_on_c, 1, 76, 127
1, 12840, Note_on_c, 1, 73, 127
1, 12840, Note_on_c, 1, 69, 127
1, 12840, Note_on_c, 1, 57, 127
1, 12869, Note_off_c, 1, 57, 0
1, 12870, Note_on_c, 1, 56, 127
1, 12899, Note_off_c, 1, 67, 0
1, 12899, Note_off_c, 1, 64, 0
1, 12899, Note_off_c, 1, 76, 0
1, 12899, Note_off_c, 1, 73, 0
1, 12899, Note_off_c, 1, 69, 0
1, 12899, Note_off_c, 1, 56, 0
1, 12900, Note_on_c, 1, 66, 127
1, 12900, Note_on_c, 1, 62, 127
1, 12900, Note_on_c, 1, 73, 127
1, 12900, Note_on_c, 1, 69, 127
1, 12900, Note_on_c, 1, 64, 127
1, 12900, Note_on_c, 1, 57, 127
1, 12929, Note_off_c, 1, 66, 0
1, 12929, Note_off_c, 1, 62, 0
1, 12929, Note_off_c, 1, 57, 0
1, 12930, Note_on_c, 1, 67, 127
1, 12930, Note_on_c, 1, 55, 127
1, 12959, Note_off_c, 1, 73, 0
1, 12959, Note_off_c, 1, 69, 0
1, 12959, Note_off_c, 1, 64, 0
1, 12959, Note_off_c, 1, 67, 0
1, 12959, Note_off_c, 1, 55, 0
1, 12960, Note_on_c, 1, 69, 127
1, 12960, Note_on_c, 1, 66, 127
1, 12960, Note_on_c, 1, 74, 127
1, 12960, Note_on_c, 1, 62, 127
1, 12960, Note_on_c, 1, 54, 127
1, 12989, Note_off_c, 1, 74, 0
1, 12989, Note_off_c, 1, 62, 0
1, 12989, Note_off_c, 1, 54, 0
1, 12990, Note_on_c, 1, 78, 127
1, 12990, Note_on_c, 1, 50, 127
1, 13019, Note_off_c, 1, 78, 0
1, 13019, Note_off_c, 1, 50, 0
1, 13020, Note_on_c, 1, 81, 127
1, 13020, Note_on_c, 1, 67, 127
1, 13020, Note_on_c, 1, 76, 127
1, 13020, Note_on_c, 1, 73, 127
1, 13020, Note_on_c, 1, 52, 127
1, 13049, Note_off_c, 1, 67, 0
1, 13049, Note_off_c, 1, 76, 0
1, 13049, Note_off_c, 1, 73, 0
1, 13049, Note_off_c, 1, 52, 0
1, 13050, Note_on_c, 1, 71, 127
1, 13079, Note_off_c, 1, 81, 0
1, 13079, Note_off_c, 1, 71, 0
1, 13080, Note_on_c, 1, 55, 127
1, 13109, Note_off_c, 1, 55, 0
1, 13110, Note_on_c, 1, 57, 127
1, 13139, Note_off_c, 1, 57, 0
1, 13140, Note_on_c, 1, 59, 127
1, 13169, Note_off_c, 1, 59, 0
1, 13170, Note_on_c, 1, 64, 127
1, 13170, Note_on_c, 1, 61, 127
1, 13199, Note_off_c, 1, 64, 0
1, 13199, Note_off_c, 1, 61, 0
1, 13260, Note_on_c, 1, 83, 127
1, 13289, Note_off_c, 1, 83, 0
1, 13290, Note_on_c, 1, 85, 127
1, 13319, Note_off_c, 1, 85, 0
1, 13320, Note_on_c, 1, 86, 127
1, 13350, Note_on_c, 1, 47, 127
1, 13379, Note_off_c, 1, 86, 0
1, 13379, Note_off_c, 1, 47, 0
1, 13380, Note_on_c, 1, 49, 127
1, 13409, Note_off_c, 1, 49, 0
1, 13440, Note_on_c, 1, 79, 127
1, 13469, Note_off_c, 1, 79, 0
1, 13590, Note_off_c, 1, 69, 0
1, 13619, Note_off_c, 1, 66, 0
1, 13620, Note_on_c, 1, 79, 127
1, 13620, Note_on_c, 1, 74, 127
1, 13620, Note_on_c, 1, 66, 127
1, 13620, Note_on_c, 1, 67, 127
1, 13620, Note_on_c, 1, 64, 127
1, 13620, Note_on_c, 1, 86, 127
1, 13620, Note_on_c, 1, 59, 127
1, 13649, Note_off_c, 1, 79, 0
1, 13649, Note_off_c, 1, 67, 0
1, 13649, Note_off_c, 1, 64, 0
1, 13649, Note_off_c, 1, 86, 0
1, 13649, Note_off_c, 1, 59, 0
1, 13650, Note_on_c, 1, 81, 127
1, 13650, Note_on_c, 1, 69, 127
1, 13650, Note_on_c, 1, 85, 127
1, 13650, Note_on_c, 1, 57, 127
1, 13679, Note_off_c, 1, 74, 0
1, 13679, Note_off_c, 1, 66, 0
1, 13679, Note_off_c, 1, 81, 0
1, 13679, Note_off_c, 1, 69, 0
1, 13679, Note_off_c, 1, 85, 0
1, 13679, Note_off_c, 1, 57, 0
1, 13680, Note_on_c, 1, 83, 127
1, 13680, Note_on_c, 1, 71, 127
1, 13680, Note_on_c, 1, 67, 127
1, 13680, Note_on_c, 1, 74, 127
1, 13680, Note_on_c, 1, 55, 127
1, 13709, Note_off_c, 1, 83, 0
1, 13709, Note_off_c, 1, 71, 0
1, 13709, Note_off_c, 1, 55, 0
1, 13710, Note_on_c, 1, 81, 127
1, 13710, Note_on_c, 1, 69, 127
1, 13710, Note_on_c, 1, 54, 127
1, 13739, Note_off_c, 1, 67, 0
1, 13739, Note_off_c, 1, 74, 0
1, 13739, Note_off_c, 1, 81, 0
1, 13739, Note_off_c, 1, 69, 0
1, 13739, Note_off_c, 1, 54, 0
1, 13740, Note_on_c, 1, 83, 127
1, 13740, Note_on_c, 1, 74, 127
1, 13740, Note_on_c, 1, 71, 127
1, 13740, Note_on_c, 1, 62, 127
1, 13740, Note_on_c, 1, 55, 127
1, 13769, Note_off_c, 1, 83, 0
1, 13769, Note_off_c, 1, 55, 0
1, 13770, Note_on_c, 1, 81, 127
1, 13770, Note_on_c, 1, 69, 127
1, 13770, Note_on_c, 1, 54, 127
1, 13799, Note_off_c, 1, 74, 0
1, 13799, Note_off_c, 1, 71, 0
1, 13799, Note_off_c, 1, 62, 0
1, 13799, Note_off_c, 1, 81, 0
1, 13799, Note_off_c, 1, 69, 0
1, 13799, Note_off_c, 1, 54, 0
1, 13800, Note_on_c, 1, 79, 127
1, 13800, Note_on_c, 1, 76, 127
1, 13800, Note_on_c, 1, 67, 127
1, 13800, Note_on_c, 1, 64, 127
1, 13800, Note_on_c, 1, 73, 127
1, 13800, Note_on_c, 1, 52, 127
1, 13829, Note_off_c, 1, 79, 0
1, 13829, Note_off_c, 1, 76, 0
1, 13829, Note_off_c, 1, 67, 0
1, 13829, Note_off_c, 1, 64, 0
1, 13829, Note_off_c, 1, 73, 0
1, 13829, Note_off_c, 1, 52, 0
1, 13830, Note_on_c, 1, 78, 127
1, 13830, Note_on_c, 1, 66, 127
1, 13830, Note_on_c, 1, 74, 127
1, 13830, Note_on_c, 1, 50, 127
1, 13859, Note_off_c, 1, 78, 0
1, 13859, Note_off_c, 1, 66, 0
1, 13859, Note_off_c, 1, 74, 0
1, 13859, Note_off_c, 1, 50, 0
1, 13860, Note_on_c, 1, 79, 127
1, 13860, Note_on_c, 1, 76, 127
1, 13860, Note_on_c, 1, 67, 127
1, 13860, Note_on_c, 1, 64, 127
1, 13860, Note_on_c, 1, 73, 127
1, 13860, Note_on_c, 1, 52, 127
1, 13889, Note_off_c, 1, 79, 0
1, 13889, Note_off_c, 1, 76, 0
1, 13889, Note_off_c, 1, 67, 0
1, 13889, Note_off_c, 1, 64, 0
1, 13889, Note_off_c, 1, 73, 0
1, 13889, Note_off_c, 1, 52, 0
1, 13890, Note_on_c, 1, 78, 127
1, 13890, Note_on_c, 1, 66, 127
1, 13890, Note_on_c, 1, 74, 127
1, 13890, Note_on_c, 1, 50, 127
1, 13919, Note_off_c, 1, 78, 0
1, 13919, Note_off_c, 1, 66, 0
1, 13919, Note_off_c, 1, 74, 0
1, 13919, Note_off_c, 1, 50, 0
1, 13920, Note_on_c, 1, 76, 127
1, 13920, Note_on_c, 1, 79, 127
1, 13920, Note_on_c, 1, 64, 127
1, 13920, Note_on_c, 1, 67, 127
1, 13920, Note_on_c, 1, 49, 127
1, 13949, Note_off_c, 1, 79, 0
1, 13949, Note_off_c, 1, 64, 0
1, 13949, Note_off_c, 1, 67, 0
1, 13949, Note_off_c, 1, 49, 0
1, 13950, Note_on_c, 1, 74, 127
1, 13950, Note_on_c, 1, 81, 127
1, 13950, Note_on_c, 1, 62, 127
1, 13950, Note_on_c, 1, 69, 127
1, 13950, Note_on_c, 1, 47, 127
1, 13979, Note_off_c, 1, 76, 0
1, 13979, Note_off_c, 1, 74, 0
1, 13979, Note_off_c, 1, 81, 0
1, 13979, Note_off_c, 1, 62, 0
1, 13979, Note_off_c, 1, 69, 0
1, 13979, Note_off_c, 1, 47, 0
1, 13980, Note_on_c, 1, 76, 127
1, 13980, Note_on_c, 1, 78, 127
1, 13980, Note_on_c, 1, 64, 127
1, 13980, Note_on_c, 1, 66, 127
1, 13980, Note_on_c, 1, 69, 127
1, 13980, Note_on_c, 1, 49, 127
1, 14009, Note_off_c, 1, 76, 0
1, 14009, Note_off_c, 1, 78, 0
1, 14009, Note_off_c, 1, 64, 0
1, 14009, Note_off_c, 1, 66, 0
1, 14009, Note_off_c, 1, 49, 0
1, 14010, Note_on_c, 1, 74, 127
1, 14010, Note_on_c, 1, 79, 127
1, 14010, Note_on_c, 1, 62, 127
1, 14010, Note_on_c, 1, 67, 127
1, 14010, Note_on_c, 1, 47, 127
1, 14039, Note_off_c, 1, 69, 0
1, 14039, Note_off_c, 1, 74, 0
1, 14039, Note_off_c, 1, 79, 0
1, 14039, Note_off_c, 1, 62, 0
1, 14039, Note_off_c, 1, 67, 0
1, 14039, Note_off_c, 1, 47, 0
1, 14040, Note_on_c, 1, 79, 127
1, 14040, Note_on_c, 1, 81, 127
1, 14040, Note_on_c, 1, 67, 127
1, 14040, Note_on_c, 1, 69, 127
1, 14040, Note_on_c, 1, 64, 127
1, 14040, Note_on_c, 1, 49, 127
1, 14069, Note_off_c, 1, 81, 0
1, 14069, Note_off_c, 1, 69, 0
1, 14069, Note_off_c, 1, 64, 0
1, 14069, Note_off_c, 1, 49, 0
1, 14070, Note_on_c, 1, 61, 127
1, 14070, Note_on_c, 1, 45, 127
1, 14099, Note_off_c, 1, 79, 0
1, 14099, Note_off_c, 1, 67, 0
1, 14099, Note_off_c, 1, 61, 0
1, 14099, Note_off_c, 1, 45, 0
1, 14100, Note_on_c, 1, 81, 127
1, 14100, Note_on_c, 1, 78, 127
1, 14100, Note_on_c, 1, 69, 127
1, 14100, Note_on_c, 1, 45, 127
1, 14100, Note_on_c, 1, 66, 127
1, 14100, Note_on_c, 1, 62, 127
1, 14100, Note_on_c, 1, 47, 127
1, 14129, Note_off_c, 1, 81, 0
1, 14129, Note_off_c, 1, 78, 0
1, 14129, Note_off_c, 1, 69, 0
1, 14129, Note_off_c, 1, 45, 0
1, 14129, Note_off_c, 1, 66, 0
1, 14129, Note_off_c, 1, 62, 0
1, 14129, Note_off_c, 1, 47, 0
1, 14130, Note_on_c, 1, 79, 127
1, 14130, Note_on_c, 1, 76, 127
1, 14130, Note_on_c, 1, 69, 127
1, 14130, Note_on_c, 1, 45, 127
1, 14130, Note_on_c, 1, 67, 127
1, 14130, Note_on_c, 1, 64, 127
1, 14130, Note_on_c, 1, 49, 127
1, 14159, Note_off_c, 1, 79, 0
1, 14159, Note_off_c, 1, 76, 0
1, 14159, Note_off_c, 1, 69, 0
1, 14159, Note_off_c, 1, 45, 0
1, 14159, Note_off_c, 1, 67, 0
1, 14159, Note_off_c, 1, 64, 0
1, 14159, Note_off_c, 1, 49, 0
1, 14160, Note_on_c, 1, 78, 127
1, 14160, Note_on_c, 1, 69, 127
1, 14160, Note_on_c, 1, 50, 127
1, 14160, Note_on_c, 1, 66, 127
1, 14160, Note_on_c, 1, 62, 127
1, 14160, Note_on_c, 1, 74, 127
1, 14189, Note_off_c, 1, 69, 0
1, 14189, Note_off_c, 1, 50, 0
1, 14189, Note_off_c, 1, 66, 0
1, 14189, Note_off_c, 1, 74, 0
1, 14190, Note_on_c, 1, 76, 127
1, 14190, Note_on_c, 1, 64, 127
1, 14190, Note_on_c, 1, 73, 127
1, 14190, Note_on_c, 1, 67, 127
1, 14190, Note_on_c, 1, 52, 127
1, 14219, Note_off_c, 1, 78, 0
1, 14219, Note_off_c, 1, 62, 0
1, 14219, Note_off_c, 1, 76, 0
1, 14219, Note_off_c, 1, 64, 0
1, 14219, Note_off_c, 1, 73, 0
1, 14219, Note_off_c, 1, 67, 0
1, 14219, Note_off_c, 1, 52, 0
1, 14220, Note_on_c, 1, 74, 127
1, 14220, Note_on_c, 1, 69, 127
1, 14220, Note_on_c, 1, 50, 127
1, 14220, Note_on_c, 1, 62, 127
1, 14220, Note_on_c, 1, 57, 127
1, 14220, Note_on_c, 1, 54, 127
1, 14249, Note_off_c, 1, 74, 0
1, 14249, Note_off_c, 1, 50, 0
1, 14249, Note_off_c, 1, 62, 0
1, 14249, Note_off_c, 1, 54, 0
1, 14250, Note_on_c, 1, 76, 127
1, 14250, Note_on_c, 1, 64, 127
1, 14250, Note_on_c, 1, 71, 127
1, 14250, Note_on_c, 1, 55, 127
1, 14279, Note_off_c, 1, 69, 0
1, 14279, Note_off_c, 1, 57, 0
1, 14279, Note_off_c, 1, 76, 0
1, 14279, Note_off_c, 1, 64, 0
1, 14279, Note_off_c, 1, 71, 0
1, 14279, Note_off_c, 1, 55, 0
1, 14280, Note_on_c, 1, 76, 127
1, 14280, Note_on_c, 1, 69, 127
1, 14280, Note_on_c, 1, 45, 127
1, 14280, Note_on_c, 1, 64, 127
1, 14280, Note_on_c, 1, 57, 127
1, 14280, Note_on_c, 1, 73, 127
1, 14310, Note_on_c, 1, 54, 127
1, 14339, Note_off_c, 1, 45, 0
1, 14339, Note_off_c, 1, 57, 0
1, 14339, Note_off_c, 1, 54, 0
1, 14369, Note_off_c, 1, 76, 0
1, 14370, Note_on_c, 1, 74, 127
1, 14370, Note_on_c, 1, 62, 127
1, 14399, Note_off_c, 1, 69, 0
1, 14399, Note_off_c, 1, 64, 0
1, 14399, Note_off_c, 1, 73, 0
1, 14399, Note_off_c, 1, 74, 0
1, 14399, Note_off_c, 1, 62, 0
1, 14400, Note_on_c, 1, 74, 127
1, 14400, Note_on_c, 1, 69, 127
1, 14400, Note_on_c, 1, 66, 127
1, 14400, Note_on_c, 1, 50, 127
1, 14400, Note_on_c, 1, 62, 127
1, 14400, Note_on_c, 1, 54, 127
1, 14459, Note_off_c, 1, 50, 0
1, 14460, Note_on_c, 1, 76, 127
1, 14460, Note_on_c, 1, 38, 127
1, 14489, Note_off_c, 1, 76, 0
1, 14490, Note_on_c, 1, 78, 127
1, 14519, Note_off_c, 1, 74, 0
1, 14519, Note_off_c, 1, 69, 0
1, 14519, Note_off_c, 1, 66, 0
1, 14519, Note_off_c, 1, 62, 0
1, 14519, Note_off_c, 1, 54, 0
1, 14519, Note_off_c, 1, 38, 0
1, 14519, Note_off_c, 1, 78, 0
1, 14520, Note_on_c, 1, 69, 127
1, 14520, Note_on_c, 1, 66, 127
1, 14520, Note_on_c, 1, 62, 127
1, 14520, Note_on_c, 1, 50, 127
1, 14520, Note_on_c, 1, 79, 127
1, 14520, Note_on_c, 1, 38, 127
1, 14534, Note_off_c, 1, 50, 0
1, 14549, Note_off_c, 1, 79, 0
1, 14550, Note_on_c, 1, 81, 127
1, 14579, Note_off_c, 1, 69, 0
1, 14579, Note_off_c, 1, 66, 0
1, 14579, Note_off_c, 1, 62, 0
1, 14579, Note_off_c, 1, 38, 0
1, 14579, Note_off_c, 1, 81, 0
1, 14580, Note_on_c, 1, 66, 127
1, 14580, Note_on_c, 1, 62, 127
1, 14580, Note_on_c, 1, 57, 127
1, 14580, Note_on_c, 1, 50, 127
1, 14580, Note_on_c, 1, 83, 127
1, 14580, Note_on_c, 1, 38, 127
1, 14609, Note_off_c, 1, 83, 0
1, 14610, Note_on_c, 1, 85, 127
1, 14639, Note_off_c, 1, 66, 0
1, 14639, Note_off_c, 1, 62, 0
1, 14639, Note_off_c, 1, 57, 0
1, 14639, Note_off_c, 1, 50, 0
1, 14639, Note_off_c, 1, 38, 0
1, 14639, Note_off_c, 1, 85, 0
1, 14640, Note_on_c, 1, 50, 127
1, 14640, Note_on_c, 1, 62, 127
1, 14640, Note_on_c, 1, 86, 127
1, 14640, Note_on_c, 1, 66, 127
1, 14640, Note_on_c, 1, 57, 127
1, 14640, Note_on_c, 1, 38, 127
1, 14669, Note_off_c, 1, 86, 0
1, 14670, Note_on_c, 1, 85, 127
1, 14699, Note_off_c, 1, 50, 0
1, 14699, Note_off_c, 1, 62, 0
1, 14699, Note_off_c, 1, 66, 0
1, 14699, Note_off_c, 1, 57, 0
1, 14699, Note_off_c, 1, 38, 0
1, 14699, Note_off_c, 1, 85, 0
1, 14700, Note_on_c, 1, 50, 127
1, 14700, Note_on_c, 1, 86, 127
1, 14700, Note_on_c, 1, 62, 127
1, 14700, Note_on_c, 1, 57, 127
1, 14700, Note_on_c, 1, 54, 127
1, 14700, Note_on_c, 1, 74, 127
1, 14700, Note_on_c, 1, 69, 127
1, 14700, Note_on_c, 1, 66, 127
1, 14700, Note_on_c, 1, 38, 127
1, 14729, Note_off_c, 1, 86, 0
1, 14730, Note_on_c, 1, 85, 127
1, 14759, Note_off_c, 1, 50, 0
1, 14759, Note_off_c, 1, 62, 0
1, 14759, Note_off_c, 1, 57, 0
1, 14759, Note_off_c, 1, 54, 0
1, 14759, Note_off_c, 1, 74, 0
1, 14759, Note_off_c, 1, 69, 0
1, 14759, Note_off_c, 1, 66, 0
1, 14759, Note_off_c, 1, 38, 0
1, 14759, Note_off_c, 1, 85, 0
1, 14760, Note_on_c, 1, 50, 127
1, 14760, Note_on_c, 1, 86, 127
1, 14760, Note_on_c, 1, 78, 127
1, 14760, Note_on_c, 1, 74, 127
1, 14760, Note_on_c, 1, 69, 127
1, 14760, Note_on_c, 1, 62, 127
1, 14789, Note_off_c, 1, 86, 0
1, 14790, Note_on_c, 1, 66, 127
1, 14819, Note_off_c, 1, 50, 0
1, 14819, Note_off_c, 1, 78, 0
1, 14819, Note_off_c, 1, 74, 0
1, 14819, Note_off_c, 1, 69, 0
1, 14819, Note_off_c, 1, 62, 0
1, 14819, Note_off_c, 1, 66, 0
1, 14820, Note_on_c, 1, 50, 127
1, 14820, Note_on_c, 1, 67, 127
1, 14820, Note_on_c, 1, 76, 127
1, 14820, Note_on_c, 1, 69, 127
1, 14820, Note_on_c, 1, 66, 127
1, 14820, Note_on_c, 1, 38, 127
1, 14849, Note_off_c, 1, 67, 0
1, 14850, Note_on_c, 1, 78, 127
1, 14879, Note_off_c, 1, 50, 0
1, 14879, Note_off_c, 1, 76, 0
1, 14879, Note_off_c, 1, 69, 0
1, 14879, Note_off_c, 1, 66, 0
1, 14879, Note_off_c, 1, 38, 0
1, 14879, Note_off_c, 1, 78, 0
1, 14880, Note_on_c, 1, 74, 127
1, 14880, Note_on_c, 1, 69, 127
1, 14880, Note_on_c, 1, 66, 127
1, 14880, Note_on_c, 1, 50, 127
1, 14880, Note_on_c, 1, 62, 127
1, 14880, Note_on_c, 1, 71, 127
1, 14880, Note_on_c, 1, 79, 127
1, 14880, Note_on_c, 1, 38, 127
1, 14909, Note_off_c, 1, 71, 0
1, 14909, Note_off_c, 1, 79, 0
1, 14910, Note_on_c, 1, 73, 127
1, 14910, Note_on_c, 1, 81, 127
1, 14939, Note_off_c, 1, 74, 0
1, 14939, Note_off_c, 1, 69, 0
1, 14939, Note_off_c, 1, 66, 0
1, 14939, Note_off_c, 1, 50, 0
1, 14939, Note_off_c, 1, 62, 0
1, 14939, Note_off_c, 1, 38, 0
1, 14939, Note_off_c, 1, 73, 0
1, 14939, Note_off_c, 1, 81, 0
1, 14940, Note_on_c, 1, 69, 127
1, 14940, Note_on_c, 1, 66, 127
1, 14940, Note_on_c, 1, 62, 127
1, 14940, Note_on_c, 1, 50, 127
1, 14940, Note_on_c, 1, 74, 127
1, 14940, Note_on_c, 1, 83, 127
1, 14940, Note_on_c, 1, 38, 127
1, 14969, Note_off_c, 1, 74, 0
1, 14969, Note_off_c, 1, 83, 0
1, 14970, Note_on_c, 1, 76, 127
1, 14970, Note_on_c, 1, 85, 127
1, 14999, Note_off_c, 1, 69, 0
1, 14999, Note_off_c, 1, 66, 0
1, 14999, Note_off_c, 1, 62, 0
1, 14999, Note_off_c, 1, 50, 0
1, 14999, Note_off_c, 1, 38, 0
1, 14999, Note_off_c, 1, 76, 0
1, 14999, Note_off_c, 1, 85, 0
1, 15000, Note_on_c, 1, 50, 127
1, 15000, Note_on_c, 1, 62, 127
1, 15000, Note_on_c, 1, 78, 127
1, 15000, Note_on_c, 1, 86, 127
1, 15000, Note_on_c, 1, 69, 127
1, 15000, Note_on_c, 1, 66, 127
1, 15000, Note_on_c, 1, 38, 127
1, 15029, Note_off_c, 1, 78, 0
1, 15029, Note_off_c, 1, 86, 0
1, 15030, Note_on_c, 1, 76, 127
1, 15030, Note_on_c, 1, 85, 127
1, 15059, Note_off_c, 1, 50, 0
1, 15059, Note_off_c, 1, 62, 0
1, 15059, Note_off_c, 1, 69, 0
1, 15059, Note_off_c, 1, 66, 0
1, 15059, Note_off_c, 1, 38, 0
1, 15059, Note_off_c, 1, 76, 0
1, 15059, Note_off_c, 1, 85, 0
1, 15060, Note_on_c, 1, 50, 127
1, 15060, Note_on_c, 1, 78, 127
1, 15060, Note_on_c, 1, 86, 127
1, 15060, Note_on_c, 1, 66, 127
1, 15060, Note_on_c, 1, 62, 127
1, 15060, Note_on_c, 1, 57, 127
1, 15060, Note_on_c, 1, 69, 127
1, 15060, Note_on_c, 1, 38, 127
1, 15089, Note_off_c, 1, 86, 0
1, 15090, Note_on_c, 1, 76, 127
1, 15090, Note_on_c, 1, 85, 127
1, 15119, Note_off_c, 1, 50, 0
1, 15119, Note_off_c, 1, 78, 0
1, 15119, Note_off_c, 1, 66, 0
1, 15119, Note_off_c, 1, 62, 0
1, 15119, Note_off_c, 1, 57, 0
1, 15119, Note_off_c, 1, 69, 0
1, 15119, Note_off_c, 1, 38, 0
1, 15119, Note_off_c, 1, 76, 0
1, 15119, Note_off_c, 1, 85, 0
1, 15120, Note_on_c, 1, 50, 127
1, 15120, Note_on_c, 1, 78, 127
1, 15120, Note_on_c, 1, 86, 127
1, 15120, Note_on_c, 1, 81, 127
1, 15120, Note_on_c, 1, 74, 127
1, 15120, Note_on_c, 1, 66, 127
1, 15120, Note_on_c, 1, 62, 127
1, 15149, Note_off_c, 1, 78, 0
1, 15149, Note_off_c, 1, 86, 0
1, 15179, Note_off_c, 1, 50, 0
1, 15179, Note_off_c, 1, 81, 0
1, 15179, Note_off_c, 1, 74, 0
1, 15179, Note_off_c, 1, 66, 0
1, 15179, Note_off_c, 1, 62, 0
1, 15180, Note_on_c, 1, 50, 127
1, 15180, Note_on_c, 1, 79, 127
1, 15180, Note_on_c, 1, 67, 127
1, 15180, Note_on_c, 1, 64, 127
1, 15180, Note_on_c, 1, 78, 127
1, 15180, Note_on_c, 1, 69, 127
1, 15180, Note_on_c, 1, 62, 127
1, 15180, Note_on_c, 1, 38, 127
1, 15209, Note_off_c, 1, 79, 0
1, 15209, Note_off_c, 1, 67, 0
1, 15209, Note_off_c, 1, 64, 0
1, 15209, Note_off_c, 1, 78, 0
1, 15209, Note_off_c, 1, 69, 0
1, 15209, Note_off_c, 1, 62, 0
1, 15210, Note_on_c, 1, 66, 127
1, 15210, Note_on_c, 1, 74, 127
1, 15210, Note_on_c, 1, 57, 127
1, 15239, Note_off_c, 1, 50, 0
1, 15239, Note_off_c, 1, 38, 0
1, 15239, Note_off_c, 1, 66, 0
1, 15239, Note_off_c, 1, 74, 0
1, 15239, Note_off_c, 1, 57, 0
1, 15240, Note_on_c, 1, 78, 127
1, 15240, Note_on_c, 1, 74, 127
1, 15240, Note_on_c, 1, 69, 127
1, 15240, Note_on_c, 1, 50, 127
1, 15240, Note_on_c, 1, 62, 127
1, 15240, Note_on_c, 1, 76, 127
1, 15240, Note_on_c, 1, 71, 127
1, 15240, Note_on_c, 1, 67, 127
1, 15240, Note_on_c, 1, 54, 127
1, 15240, Note_on_c, 1, 38, 127
1, 15269, Note_off_c, 1, 76, 0
1, 15269, Note_off_c, 1, 71, 0
1, 15269, Note_off_c, 1, 67, 0
1, 15270, Note_on_c, 1, 73, 127
1, 15299, Note_off_c, 1, 78, 0
1, 15299, Note_off_c, 1, 74, 0
1, 15299, Note_off_c, 1, 50, 0
1, 15299, Note_off_c, 1, 38, 0
1, 15299, Note_off_c, 1, 73, 0
1, 15300, Note_on_c, 1, 66, 127
1, 15359, Note_off_c, 1, 69, 0
1, 15359, Note_off_c, 1, 62, 0
1, 15359, Note_off_c, 1, 54, 0
1, 15359, Note_off_c, 1, 66, 0
1, 15360, Note_on_c, 1, 50, 127
1, 15360, Note_on_c, 1, 62, 127
1, 15360, Note_on_c, 1, 69, 127
1, 15360, Note_on_c, 1, 78, 127
1, 15360, Note_on_c, 1, 74, 127
1, 15360, Note_on_c, 1, 66, 127
1, 15360, Note_on_c, 1, 38, 127
1, 15389, Note_off_c, 1, 78, 0
1, 15390, Note_on_c, 1, 67, 127
1, 15390, Note_on_c, 1, 76, 127
1, 15390, Note_on_c, 1, 73, 127
1, 15419, Note_off_c, 1, 50, 0
1, 15419, Note_off_c, 1, 62, 0
1, 15419, Note_off_c, 1, 69, 0
1, 15419, Note_off_c, 1, 74, 0
1, 15419, Note_off_c, 1, 66, 0
1, 15419, Note_off_c, 1, 38, 0
1, 15419, Note_off_c, 1, 67, 0
1, 15419, Note_off_c, 1, 76, 0
1, 15419, Note_off_c, 1, 73, 0
1, 15420, Note_on_c, 1, 50, 127
1, 15420, Note_on_c, 1, 66, 127
1, 15420, Note_on_c, 1, 78, 127
1, 15420, Note_on_c, 1, 74, 127
1, 15420, Note_on_c, 1, 69, 127
1, 15420, Note_on_c, 1, 62, 127
1, 15420, Note_on_c, 1, 38, 127
1, 15449, Note_off_c, 1, 78, 0
1, 15449, Note_off_c, 1, 74, 0
1, 15450, Note_on_c, 1, 76, 127
1, 15450, Note_on_c, 1, 73, 127
1, 15479, Note_off_c, 1, 50, 0
1, 15479, Note_off_c, 1, 66, 0
1, 15479, Note_off_c, 1, 69, 0
1, 15479, Note_off_c, 1, 62, 0
1, 15479, Note_off_c, 1, 38, 0
1, 15479, Note_off_c, 1, 76, 0
1, 15479, Note_off_c, 1, 73, 0
1, 15480, Note_on_c, 1, 50, 127
1, 15480, Note_on_c, 1, 62, 127
1, 15480, Note_on_c, 1, 78, 127
1, 15480, Note_on_c, 1, 74, 127
1, 15480, Note_on_c, 1, 66, 127
1, 15480, Note_on_c, 1, 57, 127
1, 15509, Note_off_c, 1, 62, 0
1, 15509, Note_off_c, 1, 78, 0
1, 15509, Note_off_c, 1, 74, 0
1, 15509, Note_off_c, 1, 66, 0
1, 15509, Note_off_c, 1, 57, 0
1, 15510, Note_on_c, 1, 86, 127
1, 15510, Note_on_c, 1, 81, 127
1, 15510, Note_on_c, 1, 54, 127
1, 15539, Note_off_c, 1, 86, 0
1, 15539, Note_off_c, 1, 81, 0
1, 15539, Note_off_c, 1, 54, 0
1, 15540, Note_on_c, 1, 69, 127
1, 15540, Note_on_c, 1, 85, 127
1, 15540, Note_on_c, 1, 79, 127
1, 15540, Note_on_c, 1, 76, 127
1, 15540, Note_on_c, 1, 64, 127
1, 15540, Note_on_c, 1, 59, 127
1, 15540, Note_on_c, 1, 55, 127
1, 15540, Note_on_c, 1, 38, 127
1, 15569, Note_off_c, 1, 85, 0
1, 15569, Note_off_c, 1, 79, 0
1, 15569, Note_off_c, 1, 76, 0
1, 15569, Note_off_c, 1, 64, 0
1, 15569, Note_off_c, 1, 59, 0
1, 15569, Note_off_c, 1, 55, 0
1, 15570, Note_on_c, 1, 83, 127
1, 15570, Note_on_c, 1, 61, 127
1, 15599, Note_off_c, 1, 50, 0
1, 15599, Note_off_c, 1, 69, 0
1, 15599, Note_off_c, 1, 38, 0
1, 15599, Note_off_c, 1, 83, 0
1, 15599, Note_off_c, 1, 61, 0
1, 15600, Note_on_c, 1, 69, 127
1, 15600, Note_on_c, 1, 66, 127
1, 15600, Note_on_c, 1, 62, 127
1, 15600, Note_on_c, 1, 50, 127
1, 15600, Note_on_c, 1, 81, 127
1, 15600, Note_on_c, 1, 76, 127
1, 15600, Note_on_c, 1, 73, 127
1, 15600, Note_on_c, 1, 67, 127
1, 15600, Note_on_c, 1, 59, 127
1, 15600, Note_on_c, 1, 38, 127
1, 15629, Note_off_c, 1, 81, 0
1, 15629, Note_off_c, 1, 76, 0
1, 15629, Note_off_c, 1, 73, 0
1, 15629, Note_off_c, 1, 67, 0
1, 15629, Note_off_c, 1, 59, 0
1, 15630, Note_on_c, 1, 79, 127
1, 15630, Note_on_c, 1, 74, 127
1, 15630, Note_on_c, 1, 71, 127
1, 15630, Note_on_c, 1, 64, 127
1, 15630, Note_on_c, 1, 61, 127
1, 15659, Note_off_c, 1, 69, 0
1, 15659, Note_off_c, 1, 66, 0
1, 15659, Note_off_c, 1, 62, 0
1, 15659, Note_off_c, 1, 50, 0
1, 15659, Note_off_c, 1, 38, 0
1, 15659, Note_off_c, 1, 79, 0
1, 15659, Note_off_c, 1, 74, 0
1, 15659, Note_off_c, 1, 71, 0
1, 15659, Note_off_c, 1, 64, 0
1, 15659, Note_off_c, 1, 61, 0
1, 15660, Note_on_c, 1, 74, 127
1, 15660, Note_on_c, 1, 69, 127
1, 15660, Note_on_c, 1, 66, 127
1, 15660, Note_on_c, 1, 50, 127
1, 15660, Note_on_c, 1, 78, 127
1, 15660, Note_on_c, 1, 73, 127
1, 15660, Note_on_c, 1, 71, 127
1, 15660, Note_on_c, 1, 62, 127
1, 15660, Note_on_c, 1, 38, 127
1, 15689, Note_off_c, 1, 78, 0
1, 15689, Note_off_c, 1, 73, 0
1, 15689, Note_off_c, 1, 71, 0
1, 15689, Note_off_c, 1, 62, 0
1, 15690, Note_on_c, 1, 76, 127
1, 15690, Note_on_c, 1, 67, 127
1, 15690, Note_on_c, 1, 64, 127
1, 15719, Note_off_c, 1, 74, 0
1, 15719, Note_off_c, 1, 69, 0
1, 15719, Note_off_c, 1, 66, 0
1, 15719, Note_off_c, 1, 50, 0
1, 15719, Note_off_c, 1, 38, 0
1, 15719, Note_off_c, 1, 76, 0
1, 15719, Note_off_c, 1, 67, 0
1, 15719, Note_off_c, 1, 64, 0
1, 15720, Note_on_c, 1, 74, 127
1, 15720, Note_on_c, 1, 69, 127
1, 15720, Note_on_c, 1, 66, 127
1, 15720, Note_on_c, 1, 50, 127
1, 15720, Note_on_c, 1, 62, 127
1, 15720, Note_on_c, 1, 38, 127
1, 15750, Note_on_c, 1, 76, 127
1, 15750, Note_on_c, 1, 71, 127
1, 15750, Note_on_c, 1, 67, 127
1, 15750, Note_on_c, 1, 73, 127
1, 15750, Note_on_c, 1, 64, 127
1, 15779, Note_off_c, 1, 74, 0
1, 15779, Note_off_c, 1, 69, 0
1, 15779, Note_off_c, 1, 66, 0
1, 15779, Note_off_c, 1, 50, 0
1, 15779, Note_off_c, 1, 62, 0
1, 15779, Note_off_c, 1, 38, 0
1, 15779, Note_off_c, 1, 76, 0
1, 15779, Note_off_c, 1, 71, 0
1, 15779, Note_off_c, 1, 67, 0
1, 15779, Note_off_c, 1, 73, 0
1, 15779, Note_off_c, 1, 64, 0
1, 15780, Note_on_c, 1, 78, 127
1, 15780, Note_on_c, 1, 74, 127
1, 15780, Note_on_c, 1, 69, 127
1, 15780, Note_on_c, 1, 50, 127
1, 15780, Note_on_c, 1, 66, 127
1, 15780, Note_on_c, 1, 62, 127
1, 15780, Note_on_c, 1, 57, 127
1, 15780, Note_on_c, 1, 38, 127
1, 15809, Note_off_c, 1, 66, 0
1, 15809, Note_off_c, 1, 62, 0
1, 15810, Note_on_c, 1, 76, 127
1, 15810, Note_on_c, 1, 71, 127
1, 15810, Note_on_c, 1, 67, 127
1, 15810, Note_on_c, 1, 73, 127
1, 15810, Note_on_c, 1, 64, 127
1, 15839, Note_off_c, 1, 78, 0
1, 15839, Note_off_c, 1, 74, 0
1, 15839, Note_off_c, 1, 69, 0
1, 15839, Note_off_c, 1, 50, 0
1, 15839, Note_off_c, 1, 57, 0
1, 15839, Note_off_c, 1, 38, 0
1, 15839, Note_off_c, 1, 76, 0
1, 15839, Note_off_c, 1, 71, 0
1, 15839, Note_off_c, 1, 67, 0
1, 15839, Note_off_c, 1, 73, 0
1, 15839, Note_off_c, 1, 64, 0
1, 15840, Note_on_c, 1, 78, 127
1, 15840, Note_on_c, 1, 74, 127
1, 15840, Note_on_c, 1, 69, 127
1, 15840, Note_on_c, 1, 50, 127
1, 15840, Note_on_c, 1, 66, 127
1, 15840, Note_on_c, 1, 62, 127
1, 15840, Note_on_c, 1, 54, 127
1, 15869, Note_off_c, 1, 54, 0
1, 15899, Note_off_c, 1, 78, 0
1, 15899, Note_off_c, 1, 74, 0
1, 15899, Note_off_c, 1, 69, 0
1, 15899, Note_off_c, 1, 50, 0
1, 15900, Note_on_c, 1, 81, 127
1, 15900, Note_on_c, 1, 76, 127
1, 15900, Note_on_c, 1, 67, 127
1, 15900, Note_on_c, 1, 73, 127
1, 15900, Note_on_c, 1, 64, 127
1, 15900, Note_on_c, 1, 52, 127
1, 15929, Note_off_c, 1, 76, 0
1, 15929, Note_off_c, 1, 67, 0
1, 15929, Note_off_c, 1, 73, 0
1, 15929, Note_off_c, 1, 64, 0
1, 15929, Note_off_c, 1, 52, 0
1, 15930, Note_on_c, 1, 71, 127
1, 15959, Note_off_c, 1, 81, 0
1, 15959, Note_off_c, 1, 71, 0
1, 15960, Note_on_c, 1, 61, 127
1, 15960, Note_on_c, 1, 55, 127
1, 15989, Note_off_c, 1, 61, 0
1, 15989, Note_off_c, 1, 55, 0
1, 15990, Note_on_c, 1, 59, 127
1, 15990, Note_on_c, 1, 57, 127
1, 16019, Note_off_c, 1, 59, 0
1, 16019, Note_off_c, 1, 57, 0
1, 16140, Note_on_c, 1, 83, 127
1, 16169, Note_off_c, 1, 83, 0
1, 16170, Note_on_c, 1, 85, 127
1, 16199, Note_off_c, 1, 85, 0
1, 16200, Note_on_c, 1, 86, 127
1, 16230, Note_on_c, 1, 47, 127
1, 16259, Note_off_c, 1, 86, 0
1, 16259, Note_off_c, 1, 47, 0
1, 16260, Note_on_c, 1, 49, 127
1, 16289, Note_off_c, 1, 49, 0
1, 16320, Note_on_c, 1, 79, 127
1, 16349, Note_off_c, 1, 79, 0
1, 16500, Note_on_c, 1, 80, 127
1, 16529, Note_off_c, 1, 80, 0
1, 16559, Note_off_c, 1, 66, 0
1, 16560, Note_on_c, 1, 56, 127
1, 16589, Note_off_c, 1, 56, 0
1, 16620, Note_on_c, 1, 68, 127
1, 16649, Note_off_c, 1, 68, 0
1, 16920, Note_off_c, 1, 62, 0
1, 16920, Note_on_c, 1, 45, 127
1, 16950, Note_on_c, 1, 40, 127
1, 16979, Note_off_c, 1, 45, 0
1, 16979, Note_off_c, 1, 40, 0
1, 16980, Note_on_c, 1, 42, 127
1, 17009, Note_off_c, 1, 42, 0
1, 17010, Note_on_c, 1, 44, 127
1, 17039, Note_off_c, 1, 44, 0
1, 17280, Note_on_c, 1, 85, 127
1, 17280, Note_on_c, 1, 81, 127
1, 17280, Note_on_c, 1, 76, 127
1, 17280, Note_on_c, 1, 45, 127
1, 17280, Note_on_c, 1, 64, 127
1, 17280, Note_on_c, 1, 61, 127
1, 17280, Note_on_c, 1, 69, 127
1, 17310, Note_on_c, 1, 73, 127
1, 17310, Note_on_c, 1, 52, 127
1, 17339, Note_off_c, 1, 85, 0
1, 17339, Note_off_c, 1, 73, 0
1, 17339, Note_off_c, 1, 52, 0
1, 17340, Note_on_c, 1, 57, 127
1, 17340, Note_on_c, 1, 74, 127
1, 17340, Note_on_c, 1, 54, 127
1, 17369, Note_off_c, 1, 74, 0
1, 17369, Note_off_c, 1, 54, 0
1, 17370, Note_on_c, 1, 56, 127
1, 17399, Note_off_c, 1, 81, 0
1, 17399, Note_off_c, 1, 76, 0
1, 17399, Note_off_c, 1, 45, 0
1, 17399, Note_off_c, 1, 64, 0
1, 17399, Note_off_c, 1, 61, 0
1, 17399, Note_off_c, 1, 69, 0
1, 17399, Note_off_c, 1, 57, 0
1, 17399, Note_off_c, 1, 56, 0
1, 17400, Note_on_c, 1, 85, 127
1, 17400, Note_on_c, 1, 81, 127
1, 17400, Note_on_c, 1, 76, 127
1, 17400, Note_on_c, 1, 45, 127
1, 17400, Note_on_c, 1, 64, 127
1, 17400, Note_on_c, 1, 57, 127
1, 17400, Note_on_c, 1, 78, 127
1, 17429, Note_off_c, 1, 45, 0
1, 17429, Note_off_c, 1, 78, 0
1, 17430, Note_on_c, 1, 80, 127
1, 17430, Note_on_c, 1, 83, 127
1, 17430, Note_on_c, 1, 59, 127
1, 17459, Note_off_c, 1, 85, 0
1, 17459, Note_off_c, 1, 81, 0
1, 17459, Note_off_c, 1, 76, 0
1, 17459, Note_off_c, 1, 64, 0
1, 17459, Note_off_c, 1, 57, 0
1, 17459, Note_off_c, 1, 80, 0
1, 17459, Note_off_c, 1, 83, 0
1, 17459, Note_off_c, 1, 59, 0
1, 17460, Note_on_c, 1, 85, 127
1, 17460, Note_on_c, 1, 81, 127
1, 17460, Note_on_c, 1, 76, 127
1, 17460, Note_on_c, 1, 45, 127
1, 17460, Note_on_c, 1, 64, 127
1, 17460, Note_on_c, 1, 57, 127
1, 17460, Note_on_c, 1, 61, 127
1, 17489, Note_off_c, 1, 45, 0
1, 17489, Note_off_c, 1, 61, 0
1, 17490, Note_on_c, 1, 83, 127
1, 17490, Note_on_c, 1, 80, 127
1, 17490, Note_on_c, 1, 59, 127
1, 17519, Note_off_c, 1, 85, 0
1, 17519, Note_off_c, 1, 81, 0
1, 17519, Note_off_c, 1, 76, 0
1, 17519, Note_off_c, 1, 64, 0
1, 17519, Note_off_c, 1, 57, 0
1, 17519, Note_off_c, 1, 83, 0
1, 17519, Note_off_c, 1, 80, 0
1, 17519, Note_off_c, 1, 59, 0
1, 17520, Note_on_c, 1, 85, 127
1, 17520, Note_on_c, 1, 81, 127
1, 17520, Note_on_c, 1, 76, 127
1, 17520, Note_on_c, 1, 45, 127
1, 17520, Note_on_c, 1, 64, 127
1, 17520, Note_on_c, 1, 57, 127
1, 17520, Note_on_c, 1, 78, 127
1, 17549, Note_off_c, 1, 78, 0
1, 17550, Note_on_c, 1, 56, 127
1, 17579, Note_off_c, 1, 85, 0
1, 17579, Note_off_c, 1, 81, 0
1, 17579, Note_off_c, 1, 76, 0
1, 17579, Note_off_c, 1, 45, 0
1, 17579, Note_off_c, 1, 64, 0
1, 17579, Note_off_c, 1, 57, 0
1, 17579, Note_off_c, 1, 56, 0
1, 17580, Note_on_c, 1, 85, 127
1, 17580, Note_on_c, 1, 81, 127
1, 17580, Note_on_c, 1, 76, 127
1, 17580, Note_on_c, 1, 64, 127
1, 17580, Note_on_c, 1, 57, 127
1, 17580, Note_on_c, 1, 75, 127
1, 17580, Note_on_c, 1, 66, 127
1, 17580, Note_on_c, 1, 54, 127
1, 17609, Note_off_c, 1, 75, 0
1, 17609, Note_off_c, 1, 66, 0
1, 17609, Note_off_c, 1, 54, 0
1, 17610, Note_on_c, 1, 73, 127
1, 17610, Note_on_c, 1, 68, 127
1, 17610, Note_on_c, 1, 52, 127
1, 17639, Note_off_c, 1, 85, 0
1, 17639, Note_off_c, 1, 81, 0
1, 17639, Note_off_c, 1, 76, 0
1, 17639, Note_off_c, 1, 64, 0
1, 17639, Note_off_c, 1, 57, 0
1, 17639, Note_off_c, 1, 73, 0
1, 17639, Note_off_c, 1, 68, 0
1, 17639, Note_off_c, 1, 52, 0
1, 17640, Note_on_c, 1, 75, 127
1, 17640, Note_on_c, 1, 69, 127
1, 17640, Note_on_c, 1, 54, 127
1, 17669, Note_off_c, 1, 69, 0
1, 17669, Note_off_c, 1, 54, 0
1, 17670, Note_on_c, 1, 76, 127
1, 17670, Note_on_c, 1, 68, 127
1, 17670, Note_on_c, 1, 56, 127
1, 17699, Note_off_c, 1, 75, 0
1, 17699, Note_off_c, 1, 76, 0
1, 17699, Note_off_c, 1, 68, 0
1, 17699, Note_off_c, 1, 56, 0
1, 17700, Note_on_c, 1, 84, 127
1, 17700, Note_on_c, 1, 81, 127
1, 17700, Note_on_c, 1, 69, 127
1, 17700, Note_on_c, 1, 45, 127
1, 17700, Note_on_c, 1, 66, 127
1, 17700, Note_on_c, 1, 57, 127
1, 17700, Note_on_c, 1, 75, 127
1, 17729, Note_off_c, 1, 45, 0
1, 17729, Note_off_c, 1, 75, 0
1, 17730, Note_on_c, 1, 76, 127
1, 17730, Note_on_c, 1, 64, 127
1, 17730, Note_on_c, 1, 56, 127
1, 17759, Note_off_c, 1, 84, 0
1, 17759, Note_off_c, 1, 81, 0
1, 17759, Note_off_c, 1, 69, 0
1, 17759, Note_off_c, 1, 66, 0
1, 17759, Note_off_c, 1, 57, 0
1, 17759, Note_off_c, 1, 76, 0
1, 17759, Note_off_c, 1, 64, 0
1, 17759, Note_off_c, 1, 56, 0
1, 17760, Note_on_c, 1, 84, 127
1, 17760, Note_on_c, 1, 81, 127
1, 17760, Note_on_c, 1, 69, 127
1, 17760, Note_on_c, 1, 45, 127
1, 17760, Note_on_c, 1, 66, 127
1, 17760, Note_on_c, 1, 57, 127
1, 17760, Note_on_c, 1, 78, 127
1, 17760, Note_on_c, 1, 63, 127
1, 17760, Note_on_c, 1, 54, 127
1, 17789, Note_off_c, 1, 45, 0
1, 17789, Note_off_c, 1, 78, 0
1, 17789, Note_off_c, 1, 54, 0
1, 17790, Note_on_c, 1, 80, 127
1, 17790, Note_on_c, 1, 83, 127
1, 17790, Note_on_c, 1, 52, 127
1, 17819, Note_off_c, 1, 84, 0
1, 17819, Note_off_c, 1, 81, 0
1, 17819, Note_off_c, 1, 69, 0
1, 17819, Note_off_c, 1, 66, 0
1, 17819, Note_off_c, 1, 57, 0
1, 17819, Note_off_c, 1, 63, 0
1, 17819, Note_off_c, 1, 80, 0
1, 17819, Note_off_c, 1, 83, 0
1, 17819, Note_off_c, 1, 52, 0
1, 17820, Note_on_c, 1, 84, 127
1, 17820, Note_on_c, 1, 81, 127
1, 17820, Note_on_c, 1, 69, 127
1, 17820, Note_on_c, 1, 45, 127
1, 17820, Note_on_c, 1, 66, 127
1, 17820, Note_on_c, 1, 57, 127
1, 17820, Note_on_c, 1, 51, 127
1, 17849, Note_off_c, 1, 45, 0
1, 17849, Note_off_c, 1, 51, 0
1, 17850, Note_on_c, 1, 83, 127
1, 17850, Note_on_c, 1, 80, 127
1, 17850, Note_on_c, 1, 49, 127
1, 17879, Note_off_c, 1, 84, 0
1, 17879, Note_off_c, 1, 81, 0
1, 17879, Note_off_c, 1, 69, 0
1, 17879, Note_off_c, 1, 66, 0
1, 17879, Note_off_c, 1, 57, 0
1, 17879, Note_off_c, 1, 83, 0
1, 17879, Note_off_c, 1, 80, 0
1, 17879, Note_off_c, 1, 49, 0
1, 17880, Note_on_c, 1, 84, 127
1, 17880, Note_on_c, 1, 81, 127
1, 17880, Note_on_c, 1, 69, 127
1, 17880, Note_on_c, 1, 45, 127
1, 17880, Note_on_c, 1, 66, 127
1, 17880, Note_on_c, 1, 57, 127
1, 17880, Note_on_c, 1, 78, 127
1, 17880, Note_on_c, 1, 51, 127
1, 17909, Note_off_c, 1, 78, 0
1, 17909, Note_off_c, 1, 51, 0
1, 17910, Note_on_c, 1, 76, 127
1, 17910, Note_on_c, 1, 61, 127
1, 17910, Note_on_c, 1, 52, 127
1, 17939, Note_off_c, 1, 84, 0
1, 17939, Note_off_c, 1, 81, 0
1, 17939, Note_off_c, 1, 69, 0
1, 17939, Note_off_c, 1, 45, 0
1, 17939, Note_off_c, 1, 66, 0
1, 17939, Note_off_c, 1, 57, 0
1, 17939, Note_off_c, 1, 76, 0
1, 17939, Note_off_c, 1, 61, 0
1, 17939, Note_off_c, 1, 52, 0
1, 17940, Note_on_c, 1, 84, 127
1, 17940, Note_on_c, 1, 81, 127
1, 17940, Note_on_c, 1, 69, 127
1, 17940, Note_on_c, 1, 66, 127
1, 17940, Note_on_c, 1, 57, 127
1, 17940, Note_on_c, 1, 75, 127
1, 17940, Note_on_c, 1, 63, 127
1, 17940, Note_on_c, 1, 54, 127
1, 17969, Note_off_c, 1, 75, 0
1, 17969, Note_off_c, 1, 63, 0
1, 17969, Note_off_c, 1, 54, 0
1, 17970, Note_on_c, 1, 73, 127
1, 17970, Note_on_c, 1, 64, 127
1, 17970, Note_on_c, 1, 52, 127
1, 17999, Note_off_c, 1, 84, 0
1, 17999, Note_off_c, 1, 81, 0
1, 17999, Note_off_c, 1, 69, 0
1, 17999, Note_off_c, 1, 66, 0
1, 17999, Note_off_c, 1, 57, 0
1, 17999, Note_off_c, 1, 73, 0
1, 17999, Note_off_c, 1, 64, 0
1, 17999, Note_off_c, 1, 52, 0
1, 18000, Note_on_c, 1, 71, 127
1, 18000, Note_on_c, 1, 66, 127
1, 18000, Note_on_c, 1, 51, 127
1, 18029, Note_off_c, 1, 66, 0
1, 18029, Note_off_c, 1, 51, 0
1, 18030, Note_on_c, 1, 69, 127
1, 18030, Note_on_c, 1, 64, 127
1, 18030, Note_on_c, 1, 49, 127
1, 18059, Note_off_c, 1, 71, 0
1, 18059, Note_off_c, 1, 69, 0
1, 18059, Note_off_c, 1, 64, 0
1, 18059, Note_off_c, 1, 49, 0
1, 18060, Note_on_c, 1, 83, 127
1, 18060, Note_on_c, 1, 81, 127
1, 18060, Note_on_c, 1, 78, 127
1, 18060, Note_on_c, 1, 45, 127
1, 18060, Note_on_c, 1, 66, 127
1, 18060, Note_on_c, 1, 54, 127
1, 18060, Note_on_c, 1, 71, 127
1, 18060, Note_on_c, 1, 63, 127
1, 18060, Note_on_c, 1, 47, 127
1, 18089, Note_off_c, 1, 45, 0
1, 18089, Note_off_c, 1, 71, 0
1, 18089, Note_off_c, 1, 63, 0
1, 18089, Note_off_c, 1, 47, 0
1, 18090, Note_on_c, 1, 73, 127
1, 18090, Note_on_c, 1, 61, 127
1, 18119, Note_off_c, 1, 83, 0
1, 18119, Note_off_c, 1, 81, 0
1, 18119, Note_off_c, 1, 78, 0
1, 18119, Note_off_c, 1, 66, 0
1, 18119, Note_off_c, 1, 54, 0
1, 18119, Note_off_c, 1, 73, 0
1, 18119, Note_off_c, 1, 61, 0
1, 18120, Note_on_c, 1, 83, 127
1, 18120, Note_on_c, 1, 81, 127
1, 18120, Note_on_c, 1, 78, 127
1, 18120, Note_on_c, 1, 45, 127
1, 18120, Note_on_c, 1, 66, 127
1, 18120, Note_on_c, 1, 54, 127
1, 18120, Note_on_c, 1, 75, 127
1, 18120, Note_on_c, 1, 59, 127
1, 18120, Note_on_c, 1, 47, 127
1, 18149, Note_off_c, 1, 45, 0
1, 18149, Note_off_c, 1, 75, 0
1, 18149, Note_off_c, 1, 47, 0
1, 18150, Note_on_c, 1, 76, 127
1, 18150, Note_on_c, 1, 80, 127
1, 18150, Note_on_c, 1, 49, 127
1, 18179, Note_off_c, 1, 83, 0
1, 18179, Note_off_c, 1, 81, 0
1, 18179, Note_off_c, 1, 78, 0
1, 18179, Note_off_c, 1, 66, 0
1, 18179, Note_off_c, 1, 54, 0
1, 18179, Note_off_c, 1, 59, 0
1, 18179, Note_off_c, 1, 76, 0
1, 18179, Note_off_c, 1, 80, 0
1, 18179, Note_off_c, 1, 49, 0
1, 18180, Note_on_c, 1, 83, 127
1, 18180, Note_on_c, 1, 81, 127
1, 18180, Note_on_c, 1, 78, 127
1, 18180, Note_on_c, 1, 45, 127
1, 18180, Note_on_c, 1, 66, 127
1, 18180, Note_on_c, 1, 54, 127
1, 18180, Note_on_c, 1, 51, 127
1, 18209, Note_off_c, 1, 45, 0
1, 18209, Note_off_c, 1, 51, 0
1, 18210, Note_on_c, 1, 80, 127
1, 18210, Note_on_c, 1, 76, 127
1, 18210, Note_on_c, 1, 49, 127
1, 18239, Note_off_c, 1, 83, 0
1, 18239, Note_off_c, 1, 81, 0
1, 18239, Note_off_c, 1, 78, 0
1, 18239, Note_off_c, 1, 66, 0
1, 18239, Note_off_c, 1, 54, 0
1, 18239, Note_off_c, 1, 80, 0
1, 18239, Note_off_c, 1, 76, 0
1, 18239, Note_off_c, 1, 49, 0
1, 18240, Note_on_c, 1, 83, 127
1, 18240, Note_on_c, 1, 81, 127
1, 18240, Note_on_c, 1, 78, 127
1, 18240, Note_on_c, 1, 45, 127
1, 18240, Note_on_c, 1, 66, 127
1, 18240, Note_on_c, 1, 54, 127
1, 18240, Note_on_c, 1, 75, 127
1, 18240, Note_on_c, 1, 47, 127
1, 18269, Note_off_c, 1, 75, 0
1, 18269, Note_off_c, 1, 47, 0
1, 18270, Note_on_c, 1, 73, 127
1, 18270, Note_on_c, 1, 63, 127
1, 18270, Note_on_c, 1, 59, 127
1, 18299, Note_off_c, 1, 83, 0
1, 18299, Note_off_c, 1, 81, 0
1, 18299, Note_off_c, 1, 78, 0
1, 18299, Note_off_c, 1, 45, 0
1, 18299, Note_off_c, 1, 66, 0
1, 18299, Note_off_c, 1, 54, 0
1, 18299, Note_off_c, 1, 73, 0
1, 18299, Note_off_c, 1, 63, 0
1, 18299, Note_off_c, 1, 59, 0
1, 18300, Note_on_c, 1, 83, 127
1, 18300, Note_on_c, 1, 81, 127
1, 18300, Note_on_c, 1, 78, 127
1, 18300, Note_on_c, 1, 66, 127
1, 18300, Note_on_c, 1, 54, 127
1, 18300, Note_on_c, 1, 71, 127
1, 18300, Note_on_c, 1, 64, 127
1, 18300, Note_on_c, 1, 61, 127
1, 18300, Note_on_c, 1, 56, 127
1, 18300, Note_on_c, 1, 44, 127
1, 18329, Note_off_c, 1, 71, 0
1, 18329, Note_off_c, 1, 64, 0
1, 18329, Note_off_c, 1, 61, 0
1, 18329, Note_off_c, 1, 56, 0
1, 18329, Note_off_c, 1, 44, 0
1, 18330, Note_on_c, 1, 69, 127
1, 18330, Note_on_c, 1, 63, 127
1, 18330, Note_on_c, 1, 57, 127
1, 18330, Note_on_c, 1, 42, 127
1, 18359, Note_off_c, 1, 83, 0
1, 18359, Note_off_c, 1, 81, 0
1, 18359, Note_off_c, 1, 78, 0
1, 18359, Note_off_c, 1, 66, 0
1, 18359, Note_off_c, 1, 54, 0
1, 18359, Note_off_c, 1, 69, 0
1, 18359, Note_off_c, 1, 63, 0
1, 18359, Note_off_c, 1, 57, 0
1, 18359, Note_off_c, 1, 42, 0
1, 18360, Note_on_c, 1, 83, 127
1, 18360, Note_on_c, 1, 80, 127
1, 18360, Note_on_c, 1, 76, 127
1, 18360, Note_on_c, 1, 68, 127
1, 18360, Note_on_c, 1, 64, 127
1, 18360, Note_on_c, 1, 59, 127
1, 18360, Note_on_c, 1, 40, 127
1, 18389, Note_off_c, 1, 40, 0
1, 18419, Note_off_c, 1, 83, 0
1, 18419, Note_off_c, 1, 80, 0
1, 18419, Note_off_c, 1, 76, 0
1, 18419, Note_off_c, 1, 68, 0
1, 18419, Note_off_c, 1, 64, 0
1, 18419, Note_off_c, 1, 59, 0
1, 18420, Note_on_c, 1, 80, 127
1, 18420, Note_on_c, 1, 76, 127
1, 18420, Note_on_c, 1, 74, 127
1, 18420, Note_on_c, 1, 83, 127
1, 18420, Note_on_c, 1, 71, 127
1, 18420, Note_on_c, 1, 68, 127
1, 18420, Note_on_c, 1, 64, 127
1, 18420, Note_on_c, 1, 42, 127
1, 18449, Note_off_c, 1, 42, 0
1, 18450, Note_on_c, 1, 44, 127
1, 18479, Note_off_c, 1, 80, 0
1, 18479, Note_off_c, 1, 76, 0
1, 18479, Note_off_c, 1, 74, 0
1, 18479, Note_off_c, 1, 83, 0
1, 18479, Note_off_c, 1, 71, 0
1, 18479, Note_off_c, 1, 68, 0
1, 18479, Note_off_c, 1, 64, 0
1, 18479, Note_off_c, 1, 44, 0
1, 18480, Note_on_c, 1, 68, 127
1, 18480, Note_on_c, 1, 83, 127
1, 18480, Note_on_c, 1, 80, 127
1, 18480, Note_on_c, 1, 76, 127
1, 18480, Note_on_c, 1, 71, 127
1, 18480, Note_on_c, 1, 45, 127
1, 18509, Note_off_c, 1, 45, 0
1, 18510, Note_on_c, 1, 47, 127
1, 18539, Note_off_c, 1, 68, 0
1, 18539, Note_off_c, 1, 83, 0
1, 18539, Note_off_c, 1, 80, 0
1, 18539, Note_off_c, 1, 76, 0
1, 18539, Note_off_c, 1, 71, 0
1, 18539, Note_off_c, 1, 47, 0
1, 18540, Note_on_c, 1, 64, 127
1, 18540, Note_on_c, 1, 83, 127
1, 18540, Note_on_c, 1, 80, 127
1, 18540, Note_on_c, 1, 71, 127
1, 18540, Note_on_c, 1, 68, 127
1, 18540, Note_on_c, 1, 49, 127
1, 18569, Note_off_c, 1, 49, 0
1, 18570, Note_on_c, 1, 50, 127
1, 18599, Note_off_c, 1, 64, 0
1, 18599, Note_off_c, 1, 83, 0
1, 18599, Note_off_c, 1, 80, 0
1, 18599, Note_off_c, 1, 71, 0
1, 18599, Note_off_c, 1, 68, 0
1, 18599, Note_off_c, 1, 50, 0
1, 18600, Note_on_c, 1, 83, 127
1, 18600, Note_on_c, 1, 80, 127
1, 18600, Note_on_c, 1, 68, 127
1, 18600, Note_on_c, 1, 64, 127
1, 18600, Note_on_c, 1, 59, 127
1, 18600, Note_on_c, 1, 52, 127
1, 18629, Note_off_c, 1, 52, 0
1, 18630, Note_on_c, 1, 50, 127
1, 18659, Note_off_c, 1, 83, 0
1, 18659, Note_off_c, 1, 80, 0
1, 18659, Note_off_c, 1, 68, 0
1, 18659, Note_off_c, 1, 64, 0
1, 18659, Note_off_c, 1, 59, 0
1, 18659, Note_off_c, 1, 50, 0
1, 18660, Note_on_c, 1, 81, 127
1, 18660, Note_on_c, 1, 78, 127
1, 18660, Note_on_c, 1, 64, 127
1, 18660, Note_on_c, 1, 59, 127
1, 18660, Note_on_c, 1, 56, 127
1, 18660, Note_on_c, 1, 52, 127
1, 18689, Note_off_c, 1, 81, 0
1, 18689, Note_off_c, 1, 78, 0
1, 18689, Note_off_c, 1, 52, 0
1, 18690, Note_on_c, 1, 83, 127
1, 18690, Note_on_c, 1, 80, 127
1, 18690, Note_on_c, 1, 50, 127
1, 18719, Note_off_c, 1, 64, 0
1, 18719, Note_off_c, 1, 59, 0
1, 18719, Note_off_c, 1, 56, 0
1, 18719, Note_off_c, 1, 83, 0
1, 18719, Note_off_c, 1, 80, 0
1, 18719, Note_off_c, 1, 50, 0
1, 18720, Note_on_c, 1, 85, 127
1, 18720, Note_on_c, 1, 81, 127
1, 18720, Note_on_c, 1, 76, 127
1, 18720, Note_on_c, 1, 52, 127
1, 18749, Note_off_c, 1, 52, 0
1, 18750, Note_on_c, 1, 40, 127
1, 18779, Note_off_c, 1, 85, 0
1, 18779, Note_off_c, 1, 81, 0
1, 18779, Note_off_c, 1, 76, 0
1, 18779, Note_off_c, 1, 40, 0
1, 18780, Note_on_c, 1, 81, 127
1, 18780, Note_on_c, 1, 76, 127
1, 18780, Note_on_c, 1, 69, 127
1, 18780, Note_on_c, 1, 85, 127
1, 18780, Note_on_c, 1, 42, 127
1, 18809, Note_off_c, 1, 42, 0
1, 18810, Note_on_c, 1, 44, 127
1, 18839, Note_off_c, 1, 81, 0
1, 18839, Note_off_c, 1, 76, 0
1, 18839, Note_off_c, 1, 69, 0
1, 18839, Note_off_c, 1, 85, 0
1, 18839, Note_off_c, 1, 44, 0
1, 18840, Note_on_c, 1, 69, 127
1, 18840, Note_on_c, 1, 85, 127
1, 18840, Note_on_c, 1, 81, 127
1, 18840, Note_on_c, 1, 76, 127
1, 18840, Note_on_c, 1, 73, 127
1, 18840, Note_on_c, 1, 45, 127
1, 18869, Note_off_c, 1, 45, 0
1, 18870, Note_on_c, 1, 47, 127
1, 18899, Note_off_c, 1, 69, 0
1, 18899, Note_off_c, 1, 85, 0
1, 18899, Note_off_c, 1, 81, 0
1, 18899, Note_off_c, 1, 76, 0
1, 18899, Note_off_c, 1, 73, 0
1, 18899, Note_off_c, 1, 47, 0
1, 18900, Note_on_c, 1, 64, 127
1, 18900, Note_on_c, 1, 85, 127
1, 18900, Note_on_c, 1, 81, 127
1, 18900, Note_on_c, 1, 73, 127
1, 18900, Note_on_c, 1, 69, 127
1, 18900, Note_on_c, 1, 49, 127
1, 18929, Note_off_c, 1, 49, 0
1, 18930, Note_on_c, 1, 50, 127
1, 18959, Note_off_c, 1, 64, 0
1, 18959, Note_off_c, 1, 85, 0
1, 18959, Note_off_c, 1, 81, 0
1, 18959, Note_off_c, 1, 73, 0
1, 18959, Note_off_c, 1, 69, 0
1, 18959, Note_off_c, 1, 50, 0
1, 18960, Note_on_c, 1, 85, 127
1, 18960, Note_on_c, 1, 81, 127
1, 18960, Note_on_c, 1, 69, 127
1, 18960, Note_on_c, 1, 64, 127
1, 18960, Note_on_c, 1, 61, 127
1, 18960, Note_on_c, 1, 52, 127
1, 18989, Note_off_c, 1, 52, 0
1, 18990, Note_on_c, 1, 50, 127
1, 19019, Note_off_c, 1, 85, 0
1, 19019, Note_off_c, 1, 81, 0
1, 19019, Note_off_c, 1, 69, 0
1, 19019, Note_off_c, 1, 64, 0
1, 19019, Note_off_c, 1, 61, 0
1, 19019, Note_off_c, 1, 50, 0
1, 19020, Note_on_c, 1, 83, 127
1, 19020, Note_on_c, 1, 80, 127
1, 19020, Note_on_c, 1, 64, 127
1, 19020, Note_on_c, 1, 61, 127
1, 19020, Note_on_c, 1, 57, 127
1, 19020, Note_on_c, 1, 52, 127
1, 19049, Note_off_c, 1, 83, 0
1, 19049, Note_off_c, 1, 80, 0
1, 19049, Note_off_c, 1, 52, 0
1, 19050, Note_on_c, 1, 85, 127
1, 19050, Note_on_c, 1, 81, 127
1, 19050, Note_on_c, 1, 50, 127
1, 19079, Note_off_c, 1, 64, 0
1, 19079, Note_off_c, 1, 61, 0
1, 19079, Note_off_c, 1, 57, 0
1, 19079, Note_off_c, 1, 85, 0
1, 19079, Note_off_c, 1, 81, 0
1, 19079, Note_off_c, 1, 50, 0
1, 19080, Note_on_c, 1, 83, 127
1, 19080, Note_on_c, 1, 80, 127
1, 19080, Note_on_c, 1, 76, 127
1, 19080, Note_on_c, 1, 86, 127
1, 19080, Note_on_c, 1, 52, 127
1, 19109, Note_off_c, 1, 52, 0
1, 19110, Note_on_c, 1, 40, 127
1, 19139, Note_off_c, 1, 83, 0
1, 19139, Note_off_c, 1, 80, 0
1, 19139, Note_off_c, 1, 76, 0
1, 19139, Note_off_c, 1, 86, 0
1, 19139, Note_off_c, 1, 40, 0
1, 19140, Note_on_c, 1, 80, 127
1, 19140, Note_on_c, 1, 76, 127
1, 19140, Note_on_c, 1, 74, 127
1, 19140, Note_on_c, 1, 86, 127
1, 19140, Note_on_c, 1, 83, 127
1, 19140, Note_on_c, 1, 42, 127
1, 19169, Note_off_c, 1, 42, 0
1, 19170, Note_on_c, 1, 44, 127
1, 19199, Note_off_c, 1, 80, 0
1, 19199, Note_off_c, 1, 76, 0
1, 19199, Note_off_c, 1, 74, 0
1, 19199, Note_off_c, 1, 86, 0
1, 19199, Note_off_c, 1, 83, 0
1, 19199, Note_off_c, 1, 44, 0
1, 19200, Note_on_c, 1, 68, 127
1, 19200, Note_on_c, 1, 86, 127
1, 19200, Note_on_c, 1, 83, 127
1, 19200, Note_on_c, 1, 76, 127
1, 19200, Note_on_c, 1, 71, 127
1, 19200, Note_on_c, 1, 45, 127
1, 19229, Note_off_c, 1, 45, 0
1, 19230, Note_on_c, 1, 47, 127
1, 19259, Note_off_c, 1, 68, 0
1, 19259, Note_off_c, 1, 86, 0
1, 19259, Note_off_c, 1, 83, 0
1, 19259, Note_off_c, 1, 76, 0
1, 19259, Note_off_c, 1, 71, 0
1, 19259, Note_off_c, 1, 47, 0
1, 19260, Note_on_c, 1, 64, 127
1, 19260, Note_on_c, 1, 86, 127
1, 19260, Note_on_c, 1, 83, 127
1, 19260, Note_on_c, 1, 71, 127
1, 19260, Note_on_c, 1, 68, 127
1, 19260, Note_on_c, 1, 49, 127
1, 19289, Note_off_c, 1, 49, 0
1, 19290, Note_on_c, 1, 50, 127
1, 19319, Note_off_c, 1, 64, 0
1, 19319, Note_off_c, 1, 86, 0
1, 19319, Note_off_c, 1, 83, 0
1, 19319, Note_off_c, 1, 71, 0
1, 19319, Note_off_c, 1, 68, 0
1, 19319, Note_off_c, 1, 50, 0
1, 19320, Note_on_c, 1, 86, 127
1, 19320, Note_on_c, 1, 83, 127
1, 19320, Note_on_c, 1, 68, 127
1, 19320, Note_on_c, 1, 64, 127
1, 19320, Note_on_c, 1, 59, 127
1, 19320, Note_on_c, 1, 52, 127
1, 19349, Note_off_c, 1, 52, 0
1, 19350, Note_on_c, 1, 50, 127
1, 19379, Note_off_c, 1, 86, 0
1, 19379, Note_off_c, 1, 83, 0
1, 19379, Note_off_c, 1, 68, 0
1, 19379, Note_off_c, 1, 64, 0
1, 19379, Note_off_c, 1, 59, 0
1, 19379, Note_off_c, 1, 50, 0
1, 19380, Note_on_c, 1, 85, 127
1, 19380, Note_on_c, 1, 81, 127
1, 19380, Note_on_c, 1, 64, 127
1, 19380, Note_on_c, 1, 59, 127
1, 19380, Note_on_c, 1, 56, 127
1, 19380, Note_on_c, 1, 52, 127
1, 19409, Note_off_c, 1, 85, 0
1, 19409, Note_off_c, 1, 81, 0
1, 19409, Note_off_c, 1, 52, 0
1, 19410, Note_on_c, 1, 86, 127
1, 19410, Note_on_c, 1, 83, 127
1, 19410, Note_on_c, 1, 50, 127
1, 19439, Note_off_c, 1, 64, 0
1, 19439, Note_off_c, 1, 59, 0
1, 19439, Note_off_c, 1, 56, 0
1, 19439, Note_off_c, 1, 86, 0
1, 19439, Note_off_c, 1, 83, 0
1, 19439, Note_off_c, 1, 50, 0
1, 19440, Note_on_c, 1, 88, 127
1, 19440, Note_on_c, 1, 85, 127
1, 19440, Note_on_c, 1, 69, 127
1, 19440, Note_on_c, 1, 64, 127
1, 19440, Note_on_c, 1, 61, 127
1, 19440, Note_on_c, 1, 49, 127
1, 19469, Note_off_c, 1, 69, 0
1, 19469, Note_off_c, 1, 64, 0
1, 19469, Note_off_c, 1, 61, 0
1, 19469, Note_off_c, 1, 49, 0
1, 19470, Note_on_c, 1, 73, 127
1, 19470, Note_on_c, 1, 45, 127
1, 19499, Note_off_c, 1, 73, 0
1, 19499, Note_off_c, 1, 45, 0
1, 19500, Note_on_c, 1, 81, 127
1, 19500, Note_on_c, 1, 76, 127
1, 19500, Note_on_c, 1, 62, 127
1, 19500, Note_on_c, 1, 71, 127
1, 19500, Note_on_c, 1, 68, 127
1, 19500, Note_on_c, 1, 47, 127
1, 19529, Note_off_c, 1, 62, 0
1, 19529, Note_off_c, 1, 71, 0
1, 19529, Note_off_c, 1, 68, 0
1, 19529, Note_off_c, 1, 47, 0
1, 19530, Note_on_c, 1, 66, 127
1, 19559, Note_off_c, 1, 81, 0
1, 19559, Note_off_c, 1, 76, 0
1, 19559, Note_off_c, 1, 66, 0
1, 19560, Note_on_c, 1, 50, 127
1, 19589, Note_off_c, 1, 50, 0
1, 19590, Note_on_c, 1, 52, 127
1, 19619, Note_off_c, 1, 52, 0
1, 19620, Note_on_c, 1, 54, 127
1, 19649, Note_off_c, 1, 54, 0
1, 19650, Note_on_c, 1, 59, 127
1, 19650, Note_on_c, 1, 56, 127
1, 19679, Note_off_c, 1, 59, 0
1, 19679, Note_off_c, 1, 56, 0
1, 19680, Note_on_c, 1, 57, 127
1, 19739, Note_off_c, 1, 57, 0
1, 19830, Note_on_c, 1, 78, 127
1, 19830, Note_on_c, 1, 42, 127
1, 19859, Note_off_c, 1, 78, 0
1, 19859, Note_off_c, 1, 42, 0
1, 19860, Note_on_c, 1, 44, 127
1, 19889, Note_off_c, 1, 44, 0
1, 19890, Note_on_c, 1, 74, 127
1, 19919, Note_off_c, 1, 74, 0
1, 20010, Note_on_c, 1, 80, 127
1, 20039, Note_off_c, 1, 80, 0
1, 20040, Note_off_c, 1, 88, 0
1, 20070, Note_on_c, 1, 90, 127
1, 20070, Note_on_c, 1, 86, 127
1, 20099, Note_off_c, 1, 85, 0
1, 20099, Note_off_c, 1, 90, 0
1, 20099, Note_off_c, 1, 86, 0
1, 20100, Note_on_c, 1, 62, 127
1, 20100, Note_on_c, 1, 86, 127
1, 20100, Note_on_c, 1, 83, 127
1, 20100, Note_on_c, 1, 81, 127
1, 20100, Note_on_c, 1, 54, 127
1, 20129, Note_off_c, 1, 62, 0
1, 20129, Note_off_c, 1, 86, 0
1, 20129, Note_off_c, 1, 83, 0
1, 20129, Note_off_c, 1, 81, 0
1, 20129, Note_off_c, 1, 54, 0
1, 20130, Note_on_c, 1, 64, 127
1, 20130, Note_on_c, 1, 88, 127
1, 20130, Note_on_c, 1, 85, 127
1, 20130, Note_on_c, 1, 80, 127
1, 20130, Note_on_c, 1, 52, 127
1, 20159, Note_off_c, 1, 64, 0
1, 20159, Note_off_c, 1, 88, 0
1, 20159, Note_off_c, 1, 85, 0
1, 20159, Note_off_c, 1, 80, 0
1, 20159, Note_off_c, 1, 52, 0
1, 20160, Note_on_c, 1, 66, 127
1, 20160, Note_on_c, 1, 90, 127
1, 20160, Note_on_c, 1, 86, 127
1, 20160, Note_on_c, 1, 78, 127
1, 20160, Note_on_c, 1, 50, 127
1, 20189, Note_off_c, 1, 90, 0
1, 20189, Note_off_c, 1, 78, 0
1, 20189, Note_off_c, 1, 50, 0
1, 20190, Note_on_c, 1, 88, 127
1, 20190, Note_on_c, 1, 76, 127
1, 20190, Note_on_c, 1, 49, 127
1, 20219, Note_off_c, 1, 66, 0
1, 20219, Note_off_c, 1, 88, 0
1, 20219, Note_off_c, 1, 76, 0
1, 20219, Note_off_c, 1, 49, 0
1, 20220, Note_off_c, 1, 86, 0
1, 20220, Note_on_c, 1, 81, 127
1, 20220, Note_on_c, 1, 69, 127
1, 20279, Note_off_c, 1, 69, 0
1, 20280, Note_off_c, 1, 81, 0
1, 20280, Note_on_c, 1, 83, 127
1, 20280, Note_on_c, 1, 68, 127
1, 20280, Note_on_c, 1, 74, 127
1, 20280, Note_on_c, 1, 71, 127
1, 20280, Note_on_c, 1, 47, 127
1, 20309, Note_off_c, 1, 83, 0
1, 20309, Note_off_c, 1, 68, 0
1, 20309, Note_off_c, 1, 74, 0
1, 20309, Note_off_c, 1, 71, 0
1, 20309, Note_off_c, 1, 47, 0
1, 20310, Note_on_c, 1, 85, 127
1, 20310, Note_on_c, 1, 69, 127
1, 20310, Note_on_c, 1, 73, 127
1, 20310, Note_on_c, 1, 45, 127
1, 20339, Note_off_c, 1, 85, 0
1, 20339, Note_off_c, 1, 69, 0
1, 20339, Note_off_c, 1, 73, 0
1, 20339, Note_off_c, 1, 45, 0
1, 20340, Note_on_c, 1, 83, 127
1, 20340, Note_on_c, 1, 68, 127
1, 20340, Note_on_c, 1, 86, 127
1, 20340, Note_on_c, 1, 74, 127
1, 20340, Note_on_c, 1, 71, 127
1, 20340, Note_on_c, 1, 47, 127
1, 20369, Note_off_c, 1, 83, 0
1, 20369, Note_off_c, 1, 68, 0
1, 20369, Note_off_c, 1, 86, 0
1, 20369, Note_off_c, 1, 74, 0
1, 20369, Note_off_c, 1, 71, 0
1, 20369, Note_off_c, 1, 47, 0
1, 20370, Note_on_c, 1, 85, 127
1, 20370, Note_on_c, 1, 69, 127
1, 20370, Note_on_c, 1, 73, 127
1, 20370, Note_on_c, 1, 45, 127
1, 20399, Note_off_c, 1, 85, 0
1, 20399, Note_off_c, 1, 69, 0
1, 20399, Note_off_c, 1, 73, 0
1, 20399, Note_off_c, 1, 45, 0
1, 20400, Note_on_c, 1, 86, 127
1, 20400, Note_on_c, 1, 71, 127
1, 20400, Note_on_c, 1, 83, 127
1, 20400, Note_on_c, 1, 74, 127
1, 20400, Note_on_c, 1, 44, 127
1, 20429, Note_off_c, 1, 86, 0
1, 20429, Note_off_c, 1, 83, 0
1, 20429, Note_off_c, 1, 74, 0
1, 20429, Note_off_c, 1, 44, 0
1, 20430, Note_on_c, 1, 88, 127
1, 20430, Note_on_c, 1, 81, 127
1, 20430, Note_on_c, 1, 69, 127
1, 20430, Note_on_c, 1, 76, 127
1, 20430, Note_on_c, 1, 42, 127
1, 20459, Note_off_c, 1, 71, 0
1, 20459, Note_off_c, 1, 88, 0
1, 20459, Note_off_c, 1, 81, 0
1, 20459, Note_off_c, 1, 69, 0
1, 20459, Note_off_c, 1, 76, 0
1, 20459, Note_off_c, 1, 42, 0
1, 20460, Note_on_c, 1, 85, 127
1, 20460, Note_on_c, 1, 64, 127
1, 20460, Note_on_c, 1, 83, 127
1, 20460, Note_on_c, 1, 71, 127
1, 20460, Note_on_c, 1, 73, 127
1, 20460, Note_on_c, 1, 44, 127
1, 20489, Note_off_c, 1, 85, 0
1, 20489, Note_off_c, 1, 83, 0
1, 20489, Note_off_c, 1, 71, 0
1, 20489, Note_off_c, 1, 73, 0
1, 20489, Note_off_c, 1, 44, 0
1, 20490, Note_on_c, 1, 86, 127
1, 20490, Note_on_c, 1, 81, 127
1, 20490, Note_on_c, 1, 69, 127
1, 20490, Note_on_c, 1, 74, 127
1, 20490, Note_on_c, 1, 42, 127
1, 20519, Note_off_c, 1, 64, 0
1, 20519, Note_off_c, 1, 86, 0
1, 20519, Note_off_c, 1, 81, 0
1, 20519, Note_off_c, 1, 69, 0
1, 20519, Note_off_c, 1, 74, 0
1, 20519, Note_off_c, 1, 42, 0
1, 20520, Note_on_c, 1, 88, 127
1, 20520, Note_on_c, 1, 64, 127
1, 20520, Note_on_c, 1, 86, 127
1, 20520, Note_on_c, 1, 74, 127
1, 20520, Note_on_c, 1, 76, 127
1, 20520, Note_on_c, 1, 59, 127
1, 20520, Note_on_c, 1, 44, 127
1, 20549, Note_off_c, 1, 88, 0
1, 20549, Note_off_c, 1, 76, 0
1, 20549, Note_off_c, 1, 59, 0
1, 20549, Note_off_c, 1, 44, 0
1, 20550, Note_on_c, 1, 56, 127
1, 20550, Note_on_c, 1, 40, 127
1, 20579, Note_off_c, 1, 64, 0
1, 20579, Note_off_c, 1, 86, 0
1, 20579, Note_off_c, 1, 74, 0
1, 20579, Note_off_c, 1, 56, 0
1, 20579, Note_off_c, 1, 40, 0
1, 20580, Note_on_c, 1, 85, 127
1, 20580, Note_on_c, 1, 76, 127
1, 20580, Note_on_c, 1, 69, 127
1, 20580, Note_on_c, 1, 45, 127
1, 20580, Note_on_c, 1, 64, 127
1, 20580, Note_on_c, 1, 88, 127
1, 20580, Note_on_c, 1, 73, 127
1, 20580, Note_on_c, 1, 57, 127
1, 20580, Note_on_c, 1, 42, 127
1, 20609, Note_off_c, 1, 85, 0
1, 20609, Note_off_c, 1, 45, 0
1, 20609, Note_off_c, 1, 64, 0
1, 20609, Note_off_c, 1, 88, 0
1, 20609, Note_off_c, 1, 73, 0
1, 20609, Note_off_c, 1, 57, 0
1, 20609, Note_off_c, 1, 42, 0
1, 20610, Note_on_c, 1, 83, 127
1, 20610, Note_on_c, 1, 86, 127
1, 20610, Note_on_c, 1, 74, 127
1, 20610, Note_on_c, 1, 71, 127
1, 20610, Note_on_c, 1, 59, 127
1, 20610, Note_on_c, 1, 44, 127
1, 20639, Note_off_c, 1, 76, 0
1, 20639, Note_off_c, 1, 69, 0
1, 20639, Note_off_c, 1, 83, 0
1, 20639, Note_off_c, 1, 86, 0
1, 20639, Note_off_c, 1, 74, 0
1, 20639, Note_off_c, 1, 71, 0
1, 20639, Note_off_c, 1, 59, 0
1, 20639, Note_off_c, 1, 44, 0
1, 20640, Note_on_c, 1, 81, 127
1, 20640, Note_on_c, 1, 76, 127
1, 20640, Note_on_c, 1, 69, 127
1, 20640, Note_on_c, 1, 45, 127
1, 20640, Note_on_c, 1, 64, 127
1, 20640, Note_on_c, 1, 85, 127
1, 20640, Note_on_c, 1, 73, 127
1, 20640, Note_on_c, 1, 61, 127
1, 20669, Note_off_c, 1, 81, 0
1, 20669, Note_off_c, 1, 76, 0
1, 20669, Note_off_c, 1, 64, 0
1, 20669, Note_off_c, 1, 85, 0
1, 20669, Note_off_c, 1, 73, 0
1, 20669, Note_off_c, 1, 61, 0
1, 20670, Note_on_c, 1, 80, 127
1, 20670, Note_on_c, 1, 74, 127
1, 20670, Note_on_c, 1, 83, 127
1, 20670, Note_on_c, 1, 71, 127
1, 20670, Note_on_c, 1, 68, 127
1, 20670, Note_on_c, 1, 62, 127
1, 20670, Note_on_c, 1, 47, 127
1, 20699, Note_off_c, 1, 69, 0
1, 20699, Note_off_c, 1, 45, 0
1, 20699, Note_off_c, 1, 80, 0
1, 20699, Note_off_c, 1, 74, 0
1, 20699, Note_off_c, 1, 83, 0
1, 20699, Note_off_c, 1, 71, 0
1, 20699, Note_off_c, 1, 68, 0
1, 20699, Note_off_c, 1, 62, 0
1, 20699, Note_off_c, 1, 47, 0
1, 20700, Note_on_c, 1, 81, 127
1, 20700, Note_on_c, 1, 76, 127
1, 20700, Note_on_c, 1, 69, 127
1, 20700, Note_on_c, 1, 45, 127
1, 20700, Note_on_c, 1, 64, 127
1, 20700, Note_on_c, 1, 49, 127
1, 20729, Note_off_c, 1, 81, 0
1, 20729, Note_off_c, 1, 76, 0
1, 20729, Note_off_c, 1, 64, 0
1, 20729, Note_off_c, 1, 49, 0
1, 20730, Note_on_c, 1, 78, 127
1, 20730, Note_on_c, 1, 83, 127
1, 20730, Note_on_c, 1, 71, 127
1, 20730, Note_on_c, 1, 66, 127
1, 20730, Note_on_c, 1, 50, 127
1, 20759, Note_off_c, 1, 69, 0
1, 20759, Note_off_c, 1, 45, 0
1, 20759, Note_off_c, 1, 78, 0
1, 20759, Note_off_c, 1, 83, 0
1, 20759, Note_off_c, 1, 71, 0
1, 20759, Note_off_c, 1, 66, 0
1, 20759, Note_off_c, 1, 50, 0
1, 20760, Note_on_c, 1, 80, 127
1, 20760, Note_on_c, 1, 76, 127
1, 20760, Note_on_c, 1, 64, 127
1, 20760, Note_on_c, 1, 83, 127
1, 20760, Note_on_c, 1, 71, 127
1, 20760, Note_on_c, 1, 68, 127
1, 20760, Note_on_c, 1, 52, 127
1, 20819, Note_off_c, 1, 64, 0
1, 20819, Note_off_c, 1, 52, 0
1, 20820, Note_on_c, 1, 59, 127
1, 20820, Note_on_c, 1, 40, 127
1, 20849, Note_off_c, 1, 80, 0
1, 20849, Note_off_c, 1, 76, 0
1, 20849, Note_off_c, 1, 83, 0
1, 20849, Note_off_c, 1, 71, 0
1, 20849, Note_off_c, 1, 68, 0
1, 20850, Note_on_c, 1, 81, 127
1, 20850, Note_on_c, 1, 69, 127
1, 20879, Note_off_c, 1, 59, 0
1, 20879, Note_off_c, 1, 40, 0
1, 20879, Note_off_c, 1, 81, 0
1, 20879, Note_off_c, 1, 69, 0
1, 20880, Note_on_c, 1, 45, 127
1, 20880, Note_on_c, 1, 61, 127
1, 20909, Note_off_c, 1, 61, 0
1, 20910, Note_on_c, 1, 57, 127
1, 20939, Note_off_c, 1, 57, 0
1, 20940, Note_on_c, 1, 73, 127
1, 20999, Note_off_c, 1, 45, 0
1, 20999, Note_off_c, 1, 73, 0
1, 21000, Note_on_c, 1, 62, 127
1, 21029, Note_off_c, 1, 62, 0
1, 21060, Note_on_c, 1, 66, 127
1, 21089, Note_off_c, 1, 66, 0
1, 21090, Note_on_c, 1, 67, 127
1, 21119, Note_off_c, 1, 67, 0
1, 21180, Note_on_c, 1, 78, 127
1, 21180, Note_on_c, 1, 74, 127
1, 21209, Note_off_c, 1, 78, 0
1, 21209, Note_off_c, 1, 74, 0
1, 21210, Note_on_c, 1, 79, 127
1, 21239, Note_off_c, 1, 79, 0
1, 21240, Note_on_c, 1, 72, 127
1, 21300, Note_off_c, 1, 72, 0
1, 21300, Note_on_c, 1, 84, 127
1, 21300, Note_on_c, 1, 54, 127
1, 21329, Note_off_c, 1, 84, 0
1, 21329, Note_off_c, 1, 54, 0
1, 21420, Note_on_c, 1, 75, 127
1, 21420, Note_on_c, 1, 60, 127
1, 21449, Note_off_c, 1, 75, 0
1, 21479, Note_off_c, 1, 60, 0
1, 21600, Note_on_c, 1, 81, 127
1, 21600, Note_on_c, 1, 78, 127
1, 21600, Note_on_c, 1, 75, 127
1, 21600, Note_on_c, 1, 71, 127
1, 21600, Note_on_c, 1, 69, 127
1, 21600, Note_on_c, 1, 59, 127
1, 21600, Note_on_c, 1, 47, 127
1, 21629, Note_off_c, 1, 71, 0
1, 21630, Note_on_c, 1, 63, 127
1, 21630, Note_on_c, 1, 66, 127
1, 21659, Note_off_c, 1, 63, 0
1, 21659, Note_off_c, 1, 66, 0
1, 21660, Note_on_c, 1, 73, 127
1, 21660, Note_on_c, 1, 64, 127
1, 21660, Note_on_c, 1, 67, 127
1, 21660, Note_on_c, 1, 57, 127
1, 21689, Note_off_c, 1, 73, 0
1, 21689, Note_off_c, 1, 64, 0
1, 21689, Note_off_c, 1, 67, 0
1, 21689, Note_off_c, 1, 57, 0
1, 21690, Note_on_c, 1, 55, 127
1, 21719, Note_off_c, 1, 55, 0
1, 21720, Note_on_c, 1, 76, 127
1, 21720, Note_on_c, 1, 54, 127
1, 21749, Note_off_c, 1, 76, 0
1, 21749, Note_off_c, 1, 54, 0
1, 21750, Note_on_c, 1, 52, 127
1, 21779, Note_off_c, 1, 52, 0
1, 21780, Note_on_c, 1, 79, 127
1, 21780, Note_on_c, 1, 51, 127
1, 21809, Note_off_c, 1, 79, 0
1, 21809, Note_off_c, 1, 51, 0
1, 21810, Note_on_c, 1, 49, 127
1, 21839, Note_off_c, 1, 49, 0
1, 21840, Note_off_c, 1, 69, 0
1, 21840, Note_on_c, 1, 83, 127
1, 21869, Note_off_c, 1, 83, 0
1, 21870, Note_on_c, 1, 84, 127
1, 21870, Note_on_c, 1, 45, 127
1, 21899, Note_off_c, 1, 84, 0
1, 21899, Note_off_c, 1, 45, 0
1, 21900, Note_on_c, 1, 43, 127
1, 21929, Note_off_c, 1, 43, 0
1, 21930, Note_on_c, 1, 42, 127
1, 21959, Note_off_c, 1, 81, 0
1, 21959, Note_off_c, 1, 78, 0
1, 21959, Note_off_c, 1, 75, 0
1, 21959, Note_off_c, 1, 59, 0
1, 21959, Note_off_c, 1, 47, 0
1, 21959, Note_off_c, 1, 42, 0
1, 21960, Note_on_c, 1, 40, 127
1, 22079, Note_off_c, 1, 40, 0
1, 22530, Note_on_c, 1, 74, 127
1, 22559, Note_off_c, 1, 74, 0
1, 22680, Note_on_c, 1, 69, 127
1, 22680, Note_on_c, 1, 76, 127
1, 22680, Note_on_c, 1, 67, 127
1, 22680, Note_on_c, 1, 73, 127
1, 22680, Note_on_c, 1, 64, 127
1, 22680, Note_on_c, 1, 57, 127
1, 22680, Note_on_c, 1, 45, 127
1, 22710, Note_on_c, 1, 61, 127
1, 22739, Note_off_c, 1, 69, 0
1, 22739, Note_off_c, 1, 61, 0
1, 22740, Note_on_c, 1, 71, 127
1, 22740, Note_on_c, 1, 66, 127
1, 22740, Note_on_c, 1, 62, 127
1, 22740, Note_on_c, 1, 55, 127
1, 22769, Note_off_c, 1, 71, 0
1, 22769, Note_off_c, 1, 66, 0
1, 22769, Note_off_c, 1, 62, 0
1, 22769, Note_off_c, 1, 55, 0
1, 22770, Note_on_c, 1, 54, 127
1, 22799, Note_off_c, 1, 54, 0
1, 22800, Note_on_c, 1, 74, 127
1, 22800, Note_on_c, 1, 52, 127
1, 22829, Note_off_c, 1, 74, 0
1, 22829, Note_off_c, 1, 52, 0
1, 22830, Note_on_c, 1, 50, 127
1, 22859, Note_off_c, 1, 50, 0
1, 22860, Note_on_c, 1, 78, 127
1, 22860, Note_on_c, 1, 49, 127
1, 22889, Note_off_c, 1, 78, 0
1, 22889, Note_off_c, 1, 49, 0
1, 22890, Note_on_c, 1, 79, 127
1, 22890, Note_on_c, 1, 47, 127
1, 22919, Note_off_c, 1, 79, 0
1, 22919, Note_off_c, 1, 47, 0
1, 22920, Note_on_c, 1, 81, 127
1, 22949, Note_off_c, 1, 81, 0
1, 22950, Note_on_c, 1, 83, 127
1, 22950, Note_on_c, 1, 43, 127
1, 22979, Note_off_c, 1, 83, 0
1, 22979, Note_off_c, 1, 43, 0
1, 22980, Note_on_c, 1, 42, 127
1, 23009, Note_off_c, 1, 42, 0
1, 23010, Note_on_c, 1, 40, 127
1, 23039, Note_off_c, 1, 76, 0
1, 23039, Note_off_c, 1, 67, 0
1, 23039, Note_off_c, 1, 73, 0
1, 23039, Note_off_c, 1, 64, 0
1, 23039, Note_off_c, 1, 57, 0
1, 23039, Note_off_c, 1, 45, 0
1, 23039, Note_off_c, 1, 40, 0
1, 23040, Note_on_c, 1, 74, 127
1, 23040, Note_on_c, 1, 69, 127
1, 23040, Note_on_c, 1, 50, 127
1, 23040, Note_on_c, 1, 57, 127
1, 23040, Note_on_c, 1, 78, 127
1, 23040, Note_on_c, 1, 38, 127
1, 23069, Note_off_c, 1, 78, 0
1, 23070, Note_on_c, 1, 66, 127
1, 23099, Note_off_c, 1, 74, 0
1, 23099, Note_off_c, 1, 69, 0
1, 23099, Note_off_c, 1, 38, 0
1, 23099, Note_off_c, 1, 66, 0
1, 23100, Note_on_c, 1, 76, 127
1, 23100, Note_on_c, 1, 71, 127
1, 23100, Note_on_c, 1, 67, 127
1, 23100, Note_on_c, 1, 73, 127
1, 23100, Note_on_c, 1, 64, 127
1, 23129, Note_off_c, 1, 76, 0
1, 23129, Note_off_c, 1, 71, 0
1, 23129, Note_off_c, 1, 67, 0
1, 23129, Note_off_c, 1, 73, 0
1, 23129, Note_off_c, 1, 64, 0
1, 23130, Note_on_c, 1, 62, 127
1, 23159, Note_off_c, 1, 50, 0
1, 23159, Note_off_c, 1, 57, 0
1, 23159, Note_off_c, 1, 62, 0
1, 23160, Note_on_c, 1, 79, 127
1, 23160, Note_on_c, 1, 74, 127
1, 23160, Note_on_c, 1, 71, 127
1, 23160, Note_on_c, 1, 69, 127
1, 23160, Note_on_c, 1, 64, 127
1, 23160, Note_on_c, 1, 61, 127
1, 23160, Note_on_c, 1, 50, 127
1, 23189, Note_off_c, 1, 79, 0
1, 23189, Note_off_c, 1, 74, 0
1, 23189, Note_off_c, 1, 71, 0
1, 23189, Note_off_c, 1, 69, 0
1, 23189, Note_off_c, 1, 64, 0
1, 23189, Note_off_c, 1, 61, 0
1, 23190, Note_on_c, 1, 81, 127
1, 23190, Note_on_c, 1, 76, 127
1, 23190, Note_on_c, 1, 73, 127
1, 23190, Note_on_c, 1, 67, 127
1, 23190, Note_on_c, 1, 62, 127
1, 23190, Note_on_c, 1, 59, 127
1, 23219, Note_off_c, 1, 50, 0
1, 23219, Note_off_c, 1, 81, 0
1, 23219, Note_off_c, 1, 76, 0
1, 23219, Note_off_c, 1, 73, 0
1, 23219, Note_off_c, 1, 67, 0
1, 23219, Note_off_c, 1, 62, 0
1, 23219, Note_off_c, 1, 59, 0
1, 23220, Note_on_c, 1, 83, 127
1, 23220, Note_on_c, 1, 78, 127
1, 23220, Note_on_c, 1, 74, 127
1, 23220, Note_on_c, 1, 66, 127
1, 23220, Note_on_c, 1, 61, 127
1, 23220, Note_on_c, 1, 57, 127
1, 23220, Note_on_c, 1, 69, 127
1, 23220, Note_on_c, 1, 50, 127
1, 23249, Note_off_c, 1, 83, 0
1, 23249, Note_off_c, 1, 74, 0
1, 23249, Note_off_c, 1, 61, 0
1, 23249, Note_off_c, 1, 57, 0
1, 23250, Note_on_c, 1, 85, 127
1, 23250, Note_on_c, 1, 79, 127
1, 23250, Note_on_c, 1, 76, 127
1, 23250, Note_on_c, 1, 64, 127
1, 23250, Note_on_c, 1, 59, 127
1, 23250, Note_on_c, 1, 55, 127
1, 23279, Note_off_c, 1, 78, 0
1, 23279, Note_off_c, 1, 66, 0
1, 23279, Note_off_c, 1, 69, 0
1, 23279, Note_off_c, 1, 50, 0
1, 23279, Note_off_c, 1, 85, 0
1, 23279, Note_off_c, 1, 79, 0
1, 23279, Note_off_c, 1, 76, 0
1, 23279, Note_off_c, 1, 64, 0
1, 23279, Note_off_c, 1, 59, 0
1, 23279, Note_off_c, 1, 55, 0
1, 23280, Note_on_c, 1, 86, 127
1, 23280, Note_on_c, 1, 69, 127
1, 23280, Note_on_c, 1, 66, 127
1, 23280, Note_on_c, 1, 81, 127
1, 23280, Note_on_c, 1, 78, 127
1, 23280, Note_on_c, 1, 62, 127
1, 23280, Note_on_c, 1, 57, 127
1, 23280, Note_on_c, 1, 54, 127
1, 23280, Note_on_c, 1, 50, 127
1, 23309, Note_off_c, 1, 86, 0
1, 23310, Note_on_c, 1, 85, 127
1, 23339, Note_off_c, 1, 69, 0
1, 23339, Note_off_c, 1, 66, 0
1, 23339, Note_off_c, 1, 81, 0
1, 23339, Note_off_c, 1, 78, 0
1, 23339, Note_off_c, 1, 62, 0
1, 23339, Note_off_c, 1, 57, 0
1, 23339, Note_off_c, 1, 54, 0
1, 23339, Note_off_c, 1, 50, 0
1, 23339, Note_off_c, 1, 85, 0
1, 23340, Note_on_c, 1, 86, 127
1, 23340, Note_on_c, 1, 69, 127
1, 23340, Note_on_c, 1, 66, 127
1, 23340, Note_on_c, 1, 78, 127
1, 23340, Note_on_c, 1, 67, 127
1, 23340, Note_on_c, 1, 52, 127
1, 23369, Note_off_c, 1, 86, 0
1, 23369, Note_off_c, 1, 78, 0
1, 23369, Note_off_c, 1, 67, 0
1, 23369, Note_off_c, 1, 52, 0
1, 23370, Note_on_c, 1, 85, 127
1, 23370, Note_on_c, 1, 54, 127
1, 23399, Note_off_c, 1, 69, 0
1, 23399, Note_off_c, 1, 66, 0
1, 23399, Note_off_c, 1, 85, 0
1, 23399, Note_off_c, 1, 54, 0
1, 23400, Note_on_c, 1, 83, 127
1, 23400, Note_on_c, 1, 69, 127
1, 23400, Note_on_c, 1, 66, 127
1, 23400, Note_on_c, 1, 78, 127
1, 23400, Note_on_c, 1, 59, 127
1, 23400, Note_on_c, 1, 55, 127
1, 23430, Note_on_c, 1, 71, 127
1, 23459, Note_off_c, 1, 83, 0
1, 23459, Note_off_c, 1, 69, 0
1, 23459, Note_off_c, 1, 66, 0
1, 23459, Note_off_c, 1, 78, 0
1, 23459, Note_off_c, 1, 59, 0
1, 23459, Note_off_c, 1, 55, 0
1, 23459, Note_off_c, 1, 71, 0
1, 23460, Note_on_c, 1, 79, 127
1, 23460, Note_on_c, 1, 71, 127
1, 23460, Note_on_c, 1, 67, 127
1, 23460, Note_on_c, 1, 73, 127
1, 23460, Note_on_c, 1, 64, 127
1, 23460, Note_on_c, 1, 49, 127
1, 23489, Note_off_c, 1, 71, 0
1, 23489, Note_off_c, 1, 67, 0
1, 23489, Note_off_c, 1, 73, 0
1, 23490, Note_on_c, 1, 69, 127
1, 23490, Note_on_c, 1, 66, 127
1, 23490, Note_on_c, 1, 74, 127
1, 23490, Note_on_c, 1, 78, 127
1, 23519, Note_off_c, 1, 79, 0
1, 23519, Note_off_c, 1, 64, 0
1, 23519, Note_off_c, 1, 49, 0
1, 23519, Note_off_c, 1, 69, 0
1, 23519, Note_off_c, 1, 66, 0
1, 23519, Note_off_c, 1, 74, 0
1, 23519, Note_off_c, 1, 78, 0
1, 23520, Note_on_c, 1, 79, 127
1, 23520, Note_on_c, 1, 67, 127
1, 23520, Note_on_c, 1, 64, 127
1, 23520, Note_on_c, 1, 76, 127
1, 23520, Note_on_c, 1, 49, 127
1, 23550, Note_on_c, 1, 78, 127
1, 23550, Note_on_c, 1, 81, 127
1, 23579, Note_off_c, 1, 79, 0
1, 23579, Note_off_c, 1, 67, 0
1, 23579, Note_off_c, 1, 64, 0
1, 23579, Note_off_c, 1, 76, 0
1, 23579, Note_off_c, 1, 49, 0
1, 23579, Note_off_c, 1, 78, 0
1, 23579, Note_off_c, 1, 81, 0
1, 23580, Note_on_c, 1, 83, 127
1, 23580, Note_on_c, 1, 67, 127
1, 23580, Note_on_c, 1, 64, 127
1, 23580, Note_on_c, 1, 79, 127
1, 23580, Note_on_c, 1, 76, 127
1, 23580, Note_on_c, 1, 49, 127
1, 23609, Note_off_c, 1, 79, 0
1, 23610, Note_on_c, 1, 81, 127
1, 23610, Note_on_c, 1, 78, 127
1, 23639, Note_off_c, 1, 83, 0
1, 23639, Note_off_c, 1, 67, 0
1, 23639, Note_off_c, 1, 64, 0
1, 23639, Note_off_c, 1, 76, 0
1, 23639, Note_off_c, 1, 49, 0
1, 23639, Note_off_c, 1, 81, 0
1, 23639, Note_off_c, 1, 78, 0
1, 23640, Note_on_c, 1, 83, 127
1, 23640, Note_on_c, 1, 67, 127
1, 23640, Note_on_c, 1, 64, 127
1, 23640, Note_on_c, 1, 76, 127
1, 23640, Note_on_c, 1, 49, 127
1, 23670, Note_on_c, 1, 74, 127
1, 23699, Note_off_c, 1, 83, 0
1, 23699, Note_off_c, 1, 67, 0
1, 23699, Note_off_c, 1, 64, 0
1, 23699, Note_off_c, 1, 76, 0
1, 23699, Note_off_c, 1, 49, 0
1, 23699, Note_off_c, 1, 74, 0
1, 23700, Note_on_c, 1, 81, 127
1, 23700, Note_on_c, 1, 67, 127
1, 23700, Note_on_c, 1, 64, 127
1, 23700, Note_on_c, 1, 73, 127
1, 23700, Note_on_c, 1, 66, 127
1, 23700, Note_on_c, 1, 76, 127
1, 23700, Note_on_c, 1, 50, 127
1, 23729, Note_off_c, 1, 81, 0
1, 23729, Note_off_c, 1, 73, 0
1, 23729, Note_off_c, 1, 66, 0
1, 23729, Note_off_c, 1, 76, 0
1, 23729, Note_off_c, 1, 50, 0
1, 23730, Note_on_c, 1, 79, 127
1, 23730, Note_on_c, 1, 71, 127
1, 23730, Note_on_c, 1, 52, 127
1, 23759, Note_off_c, 1, 67, 0
1, 23759, Note_off_c, 1, 64, 0
1, 23759, Note_off_c, 1, 79, 0
1, 23759, Note_off_c, 1, 71, 0
1, 23759, Note_off_c, 1, 52, 0
1, 23760, Note_on_c, 1, 81, 127
1, 23760, Note_on_c, 1, 76, 127
1, 23760, Note_on_c, 1, 69, 127
1, 23760, Note_on_c, 1, 45, 127
1, 23760, Note_on_c, 1, 67, 127
1, 23760, Note_on_c, 1, 64, 127
1, 23760, Note_on_c, 1, 61, 127
1, 23760, Note_on_c, 1, 57, 127
1, 23760, Note_on_c, 1, 54, 127
1, 23819, Note_off_c, 1, 81, 0
1, 23819, Note_off_c, 1, 76, 0
1, 23819, Note_off_c, 1, 69, 0
1, 23819, Note_off_c, 1, 67, 0
1, 23819, Note_off_c, 1, 64, 0
1, 23819, Note_off_c, 1, 61, 0
1, 23819, Note_off_c, 1, 57, 0
1, 23819, Note_off_c, 1, 54, 0
1, 23820, Note_on_c, 1, 78, 127
1, 23820, Note_on_c, 1, 62, 127
1, 23820, Note_on_c, 1, 66, 127
1, 23820, Note_on_c, 1, 71, 127
1, 23820, Note_on_c, 1, 47, 127
1, 23849, Note_off_c, 1, 66, 0
1, 23849, Note_off_c, 1, 71, 0
1, 23850, Note_on_c, 1, 73, 127
1, 23879, Note_off_c, 1, 45, 0
1, 23879, Note_off_c, 1, 78, 0
1, 23879, Note_off_c, 1, 62, 0
1, 23879, Note_off_c, 1, 47, 0
1, 23879, Note_off_c, 1, 73, 0
1, 23880, Note_on_c, 1, 78, 127
1, 23880, Note_on_c, 1, 66, 127
1, 23880, Note_on_c, 1, 62, 127
1, 23880, Note_on_c, 1, 74, 127
1, 23880, Note_on_c, 1, 47, 127
1, 23910, Note_on_c, 1, 76, 127
1, 23910, Note_on_c, 1, 79, 127
1, 23939, Note_off_c, 1, 78, 0
1, 23939, Note_off_c, 1, 66, 0
1, 23939, Note_off_c, 1, 62, 0
1, 23939, Note_off_c, 1, 74, 0
1, 23939, Note_off_c, 1, 47, 0
1, 23939, Note_off_c, 1, 76, 0
1, 23939, Note_off_c, 1, 79, 0
1, 23940, Note_on_c, 1, 81, 127
1, 23940, Note_on_c, 1, 66, 127
1, 23940, Note_on_c, 1, 62, 127
1, 23940, Note_on_c, 1, 78, 127
1, 23940, Note_on_c, 1, 74, 127
1, 23940, Note_on_c, 1, 47, 127
1, 23969, Note_off_c, 1, 78, 0
1, 23970, Note_on_c, 1, 79, 127
1, 23970, Note_on_c, 1, 76, 127
1, 23999, Note_off_c, 1, 81, 0
1, 23999, Note_off_c, 1, 66, 0
1, 23999, Note_off_c, 1, 62, 0
1, 23999, Note_off_c, 1, 74, 0
1, 23999, Note_off_c, 1, 47, 0
1, 23999, Note_off_c, 1, 79, 0
1, 23999, Note_off_c, 1, 76, 0
1, 24000, Note_on_c, 1, 81, 127
1, 24000, Note_on_c, 1, 66, 127
1, 24000, Note_on_c, 1, 62, 127
1, 24000, Note_on_c, 1, 74, 127
1, 24000, Note_on_c, 1, 47, 127
1, 24030, Note_on_c, 1, 73, 127
1, 24059, Note_off_c, 1, 81, 0
1, 24059, Note_off_c, 1, 66, 0
1, 24059, Note_off_c, 1, 62, 0
1, 24059, Note_off_c, 1, 74, 0
1, 24059, Note_off_c, 1, 47, 0
1, 24059, Note_off_c, 1, 73, 0
1, 24060, Note_on_c, 1, 79, 127
1, 24060, Note_on_c, 1, 66, 127
1, 24060, Note_on_c, 1, 62, 127
1, 24060, Note_on_c, 1, 71, 127
1, 24060, Note_on_c, 1, 64, 127
1, 24060, Note_on_c, 1, 74, 127
1, 24060, Note_on_c, 1, 49, 127
1, 24089, Note_off_c, 1, 79, 0
1, 24089, Note_off_c, 1, 71, 0
1, 24089, Note_off_c, 1, 64, 0
1, 24089, Note_off_c, 1, 74, 0
1, 24089, Note_off_c, 1, 49, 0
1, 24090, Note_on_c, 1, 78, 127
1, 24090, Note_on_c, 1, 69, 127
1, 24090, Note_on_c, 1, 50, 127
1, 24119, Note_off_c, 1, 66, 0
1, 24119, Note_off_c, 1, 62, 0
1, 24119, Note_off_c, 1, 78, 0
1, 24119, Note_off_c, 1, 69, 0
1, 24119, Note_off_c, 1, 50, 0
1, 24120, Note_on_c, 1, 79, 127
1, 24120, Note_on_c, 1, 66, 127
1, 24120, Note_on_c, 1, 62, 127
1, 24120, Note_on_c, 1, 67, 127
1, 24120, Note_on_c, 1, 59, 127
1, 24120, Note_on_c, 1, 74, 127
1, 24120, Note_on_c, 1, 55, 127
1, 24120, Note_on_c, 1, 52, 127
1, 24179, Note_off_c, 1, 79, 0
1, 24179, Note_off_c, 1, 66, 0
1, 24179, Note_off_c, 1, 62, 0
1, 24179, Note_off_c, 1, 67, 0
1, 24179, Note_off_c, 1, 59, 0
1, 24179, Note_off_c, 1, 74, 0
1, 24179, Note_off_c, 1, 55, 0
1, 24179, Note_off_c, 1, 52, 0
1, 24180, Note_on_c, 1, 76, 127
1, 24180, Note_on_c, 1, 67, 127
1, 24180, Note_on_c, 1, 64, 127
1, 24180, Note_on_c, 1, 69, 127
1, 24180, Note_on_c, 1, 61, 127
1, 24180, Note_on_c, 1, 52, 127
1, 24180, Note_on_c, 1, 45, 127
1, 24209, Note_off_c, 1, 67, 0
1, 24209, Note_off_c, 1, 64, 0
1, 24209, Note_off_c, 1, 69, 0
1, 24210, Note_on_c, 1, 66, 127
1, 24210, Note_on_c, 1, 62, 127
1, 24210, Note_on_c, 1, 71, 127
1, 24210, Note_on_c, 1, 74, 127
1, 24239, Note_off_c, 1, 76, 0
1, 24239, Note_off_c, 1, 61, 0
1, 24239, Note_off_c, 1, 52, 0
1, 24239, Note_off_c, 1, 45, 0
1, 24239, Note_off_c, 1, 66, 0
1, 24239, Note_off_c, 1, 62, 0
1, 24239, Note_off_c, 1, 71, 0
1, 24239, Note_off_c, 1, 74, 0
1, 24240, Note_on_c, 1, 76, 127
1, 24240, Note_on_c, 1, 64, 127
1, 24240, Note_on_c, 1, 57, 127
1, 24240, Note_on_c, 1, 73, 127
1, 24240, Note_on_c, 1, 61, 127
1, 24240, Note_on_c, 1, 45, 127
1, 24270, Note_on_c, 1, 74, 127
1, 24270, Note_on_c, 1, 78, 127
1, 24299, Note_off_c, 1, 76, 0
1, 24299, Note_off_c, 1, 57, 0
1, 24299, Note_off_c, 1, 61, 0
1, 24299, Note_off_c, 1, 45, 0
1, 24299, Note_off_c, 1, 74, 0
1, 24299, Note_off_c, 1, 78, 0
1, 24300, Note_on_c, 1, 79, 127
1, 24359, Note_off_c, 1, 64, 0
1, 24359, Note_off_c, 1, 73, 0
1, 24359, Note_off_c, 1, 79, 0
1, 24360, Note_on_c, 1, 79, 127
1, 24360, Note_on_c, 1, 64, 127
1, 24360, Note_on_c, 1, 57, 127
1, 24360, Note_on_c, 1, 73, 127
1, 24360, Note_on_c, 1, 61, 127
1, 24360, Note_on_c, 1, 45, 127
1, 24389, Note_off_c, 1, 73, 0
1, 24390, Note_on_c, 1, 71, 127
1, 24419, Note_off_c, 1, 79, 0
1, 24419, Note_off_c, 1, 64, 0
1, 24419, Note_off_c, 1, 57, 0
1, 24419, Note_off_c, 1, 61, 0
1, 24419, Note_off_c, 1, 45, 0
1, 24419, Note_off_c, 1, 71, 0
1, 24420, Note_on_c, 1, 78, 127
1, 24420, Note_on_c, 1, 64, 127
1, 24420, Note_on_c, 1, 57, 127
1, 24420, Note_on_c, 1, 69, 127
1, 24420, Note_on_c, 1, 62, 127
1, 24420, Note_on_c, 1, 61, 127
1, 24420, Note_on_c, 1, 47, 127
1, 24449, Note_off_c, 1, 78, 0
1, 24449, Note_off_c, 1, 62, 0
1, 24449, Note_off_c, 1, 47, 0
1, 24450, Note_on_c, 1, 76, 127
1, 24450, Note_on_c, 1, 67, 127
1, 24450, Note_on_c, 1, 49, 127
1, 24479, Note_off_c, 1, 64, 0
1, 24479, Note_off_c, 1, 57, 0
1, 24479, Note_off_c, 1, 69, 0
1, 24479, Note_off_c, 1, 61, 0
1, 24479, Note_off_c, 1, 76, 0
1, 24479, Note_off_c, 1, 67, 0
1, 24479, Note_off_c, 1, 49, 0
1, 24480, Note_on_c, 1, 78, 127
1, 24480, Note_on_c, 1, 62, 127
1, 24480, Note_on_c, 1, 54, 127
1, 24480, Note_on_c, 1, 66, 127
1, 24480, Note_on_c, 1, 57, 127
1, 24480, Note_on_c, 1, 69, 127
1, 24480, Note_on_c, 1, 50, 127
1, 24509, Note_off_c, 1, 69, 0
1, 24509, Note_off_c, 1, 50, 0
1, 24539, Note_off_c, 1, 78, 0
1, 24539, Note_off_c, 1, 62, 0
1, 24539, Note_off_c, 1, 54, 0
1, 24539, Note_off_c, 1, 66, 0
1, 24539, Note_off_c, 1, 57, 0
1, 24540, Note_on_c, 1, 78, 127
1, 24540, Note_on_c, 1, 74, 127
1, 24540, Note_on_c, 1, 69, 127
1, 24540, Note_on_c, 1, 50, 127
1, 24540, Note_on_c, 1, 66, 127
1, 24540, Note_on_c, 1, 62, 127
1, 24540, Note_on_c, 1, 67, 127
1, 24540, Note_on_c, 1, 59, 127
1, 24569, Note_off_c, 1, 50, 0
1, 24569, Note_off_c, 1, 67, 0
1, 24569, Note_off_c, 1, 59, 0
1, 24570, Note_on_c, 1, 61, 127
1, 24599, Note_off_c, 1, 78, 0
1, 24599, Note_off_c, 1, 74, 0
1, 24599, Note_off_c, 1, 69, 0
1, 24599, Note_off_c, 1, 66, 0
1, 24599, Note_off_c, 1, 62, 0
1, 24599, Note_off_c, 1, 61, 0
1, 24600, Note_on_c, 1, 78, 127
1, 24600, Note_on_c, 1, 74, 127
1, 24600, Note_on_c, 1, 69, 127
1, 24600, Note_on_c, 1, 50, 127
1, 24600, Note_on_c, 1, 66, 127
1, 24600, Note_on_c, 1, 62, 127
1, 24600, Note_on_c, 1, 71, 127
1, 24629, Note_off_c, 1, 50, 0
1, 24629, Note_off_c, 1, 71, 0
1, 24630, Note_on_c, 1, 73, 127
1, 24630, Note_on_c, 1, 76, 127
1, 24630, Note_on_c, 1, 64, 127
1, 24659, Note_off_c, 1, 78, 0
1, 24659, Note_off_c, 1, 74, 0
1, 24659, Note_off_c, 1, 69, 0
1, 24659, Note_off_c, 1, 66, 0
1, 24659, Note_off_c, 1, 62, 0
1, 24659, Note_off_c, 1, 73, 0
1, 24659, Note_off_c, 1, 76, 0
1, 24659, Note_off_c, 1, 64, 0
1, 24660, Note_on_c, 1, 78, 127
1, 24660, Note_on_c, 1, 74, 127
1, 24660, Note_on_c, 1, 69, 127
1, 24660, Note_on_c, 1, 50, 127
1, 24660, Note_on_c, 1, 66, 127
1, 24660, Note_on_c, 1, 62, 127
1, 24689, Note_off_c, 1, 50, 0
1, 24690, Note_on_c, 1, 76, 127
1, 24690, Note_on_c, 1, 73, 127
1, 24690, Note_on_c, 1, 61, 127
1, 24690, Note_on_c, 1, 64, 127
1, 24719, Note_off_c, 1, 78, 0
1, 24719, Note_off_c, 1, 74, 0
1, 24719, Note_off_c, 1, 69, 0
1, 24719, Note_off_c, 1, 66, 0
1, 24719, Note_off_c, 1, 62, 0
1, 24719, Note_off_c, 1, 76, 0
1, 24719, Note_off_c, 1, 73, 0
1, 24719, Note_off_c, 1, 61, 0
1, 24719, Note_off_c, 1, 64, 0
1, 24720, Note_on_c, 1, 78, 127
1, 24720, Note_on_c, 1, 74, 127
1, 24720, Note_on_c, 1, 69, 127
1, 24720, Note_on_c, 1, 50, 127
1, 24720, Note_on_c, 1, 66, 127
1, 24720, Note_on_c, 1, 62, 127
1, 24720, Note_on_c, 1, 71, 127
1, 24720, Note_on_c, 1, 59, 127
1, 24749, Note_off_c, 1, 71, 0
1, 24749, Note_off_c, 1, 59, 0
1, 24750, Note_on_c, 1, 57, 127
1, 24750, Note_on_c, 1, 61, 127
1, 24779, Note_off_c, 1, 78, 0
1, 24779, Note_off_c, 1, 74, 0
1, 24779, Note_off_c, 1, 69, 0
1, 24779, Note_off_c, 1, 50, 0
1, 24779, Note_off_c, 1, 66, 0
1, 24779, Note_off_c, 1, 62, 0
1, 24779, Note_off_c, 1, 57, 0
1, 24779, Note_off_c, 1, 61, 0
1, 24780, Note_on_c, 1, 78, 127
1, 24780, Note_on_c, 1, 74, 127
1, 24780, Note_on_c, 1, 69, 127
1, 24780, Note_on_c, 1, 66, 127
1, 24780, Note_on_c, 1, 62, 127
1, 24780, Note_on_c, 1, 68, 127
1, 24780, Note_on_c, 1, 71, 127
1, 24780, Note_on_c, 1, 56, 127
1, 24780, Note_on_c, 1, 59, 127
1, 24809, Note_off_c, 1, 68, 0
1, 24809, Note_off_c, 1, 71, 0
1, 24809, Note_off_c, 1, 56, 0
1, 24809, Note_off_c, 1, 59, 0
1, 24810, Note_on_c, 1, 73, 127
1, 24810, Note_on_c, 1, 54, 127
1, 24810, Note_on_c, 1, 57, 127
1, 24839, Note_off_c, 1, 78, 0
1, 24839, Note_off_c, 1, 74, 0
1, 24839, Note_off_c, 1, 69, 0
1, 24839, Note_off_c, 1, 66, 0
1, 24839, Note_off_c, 1, 62, 0
1, 24839, Note_off_c, 1, 73, 0
1, 24839, Note_off_c, 1, 54, 0
1, 24839, Note_off_c, 1, 57, 0
1, 24840, Note_on_c, 1, 68, 127
1, 24840, Note_on_c, 1, 74, 127
1, 24840, Note_on_c, 1, 56, 127
1, 24840, Note_on_c, 1, 59, 127
1, 24869, Note_off_c, 1, 59, 0
1, 24870, Note_on_c, 1, 69, 127
1, 24870, Note_on_c, 1, 72, 127
1, 24870, Note_on_c, 1, 60, 127
1, 24899, Note_off_c, 1, 68, 0
1, 24899, Note_off_c, 1, 74, 0
1, 24899, Note_off_c, 1, 56, 0
1, 24899, Note_off_c, 1, 69, 0
1, 24899, Note_off_c, 1, 72, 0
1, 24899, Note_off_c, 1, 60, 0
1, 24900, Note_on_c, 1, 77, 127
1, 24900, Note_on_c, 1, 83, 127
1, 24900, Note_on_c, 1, 74, 127
1, 24900, Note_on_c, 1, 50, 127
1, 24900, Note_on_c, 1, 68, 127
1, 24900, Note_on_c, 1, 62, 127
1, 24900, Note_on_c, 1, 71, 127
1, 24900, Note_on_c, 1, 52, 127
1, 24929, Note_off_c, 1, 50, 0
1, 24929, Note_off_c, 1, 71, 0
1, 24929, Note_off_c, 1, 52, 0
1, 24930, Note_on_c, 1, 69, 127
1, 24930, Note_on_c, 1, 60, 127
1, 24959, Note_off_c, 1, 77, 0
1, 24959, Note_off_c, 1, 83, 0
1, 24959, Note_off_c, 1, 74, 0
1, 24959, Note_off_c, 1, 68, 0
1, 24959, Note_off_c, 1, 62, 0
1, 24959, Note_off_c, 1, 69, 0
1, 24959, Note_off_c, 1, 60, 0
1, 24960, Note_on_c, 1, 77, 127
1, 24960, Note_on_c, 1, 83, 127
1, 24960, Note_on_c, 1, 74, 127
1, 24960, Note_on_c, 1, 50, 127
1, 24960, Note_on_c, 1, 68, 127
1, 24960, Note_on_c, 1, 62, 127
1, 24960, Note_on_c, 1, 71, 127
1, 24960, Note_on_c, 1, 59, 127
1, 24989, Note_off_c, 1, 50, 0
1, 24989, Note_off_c, 1, 71, 0
1, 24989, Note_off_c, 1, 59, 0
1, 24990, Note_on_c, 1, 73, 127
1, 24990, Note_on_c, 1, 76, 127
1, 24990, Note_on_c, 1, 64, 127
1, 24990, Note_on_c, 1, 57, 127
1, 25019, Note_off_c, 1, 77, 0
1, 25019, Note_off_c, 1, 83, 0
1, 25019, Note_off_c, 1, 74, 0
1, 25019, Note_off_c, 1, 68, 0
1, 25019, Note_off_c, 1, 62, 0
1, 25019, Note_off_c, 1, 73, 0
1, 25019, Note_off_c, 1, 76, 0
1, 25019, Note_off_c, 1, 64, 0
1, 25019, Note_off_c, 1, 57, 0
1, 25020, Note_on_c, 1, 77, 127
1, 25020, Note_on_c, 1, 83, 127
1, 25020, Note_on_c, 1, 74, 127
1, 25020, Note_on_c, 1, 50, 127
1, 25020, Note_on_c, 1, 68, 127
1, 25020, Note_on_c, 1, 62, 127
1, 25020, Note_on_c, 1, 64, 127
1, 25020, Note_on_c, 1, 56, 127
1, 25049, Note_off_c, 1, 50, 0
1, 25049, Note_off_c, 1, 64, 0
1, 25049, Note_off_c, 1, 56, 0
1, 25050, Note_on_c, 1, 76, 127
1, 25050, Note_on_c, 1, 72, 127
1, 25050, Note_on_c, 1, 60, 127
1, 25050, Note_on_c, 1, 54, 127
1, 25079, Note_off_c, 1, 77, 0
1, 25079, Note_off_c, 1, 83, 0
1, 25079, Note_off_c, 1, 74, 0
1, 25079, Note_off_c, 1, 68, 0
1, 25079, Note_off_c, 1, 62, 0
1, 25079, Note_off_c, 1, 76, 0
1, 25079, Note_off_c, 1, 72, 0
1, 25079, Note_off_c, 1, 60, 0
1, 25079, Note_off_c, 1, 54, 0
1, 25080, Note_on_c, 1, 77, 127
1, 25080, Note_on_c, 1, 83, 127
1, 25080, Note_on_c, 1, 74, 127
1, 25080, Note_on_c, 1, 50, 127
1, 25080, Note_on_c, 1, 68, 127
1, 25080, Note_on_c, 1, 62, 127
1, 25080, Note_on_c, 1, 71, 127
1, 25080, Note_on_c, 1, 59, 127
1, 25080, Note_on_c, 1, 56, 127
1, 25109, Note_off_c, 1, 71, 0
1, 25109, Note_off_c, 1, 59, 0
1, 25109, Note_off_c, 1, 56, 0
1, 25110, Note_on_c, 1, 69, 127
1, 25110, Note_on_c, 1, 57, 127
1, 25139, Note_off_c, 1, 77, 0
1, 25139, Note_off_c, 1, 83, 0
1, 25139, Note_off_c, 1, 74, 0
1, 25139, Note_off_c, 1, 50, 0
1, 25139, Note_off_c, 1, 68, 0
1, 25139, Note_off_c, 1, 62, 0
1, 25139, Note_off_c, 1, 69, 0
1, 25139, Note_off_c, 1, 57, 0
1, 25140, Note_on_c, 1, 77, 127
1, 25140, Note_on_c, 1, 83, 127
1, 25140, Note_on_c, 1, 74, 127
1, 25140, Note_on_c, 1, 68, 127
1, 25140, Note_on_c, 1, 62, 127
1, 25140, Note_on_c, 1, 56, 127
1, 25140, Note_on_c, 1, 59, 127
1, 25169, Note_off_c, 1, 56, 0
1, 25169, Note_off_c, 1, 59, 0
1, 25170, Note_on_c, 1, 66, 127
1, 25170, Note_on_c, 1, 69, 127
1, 25170, Note_on_c, 1, 54, 127
1, 25170, Note_on_c, 1, 57, 127
1, 25199, Note_off_c, 1, 77, 0
1, 25199, Note_off_c, 1, 83, 0
1, 25199, Note_off_c, 1, 74, 0
1, 25199, Note_off_c, 1, 68, 0
1, 25199, Note_off_c, 1, 62, 0
1, 25199, Note_off_c, 1, 66, 0
1, 25199, Note_off_c, 1, 69, 0
1, 25199, Note_off_c, 1, 54, 0
1, 25199, Note_off_c, 1, 57, 0
1, 25200, Note_on_c, 1, 64, 127
1, 25200, Note_on_c, 1, 71, 127
1, 25200, Note_on_c, 1, 74, 127
1, 25200, Note_on_c, 1, 52, 127
1, 25200, Note_on_c, 1, 56, 127
1, 25229, Note_off_c, 1, 71, 0
1, 25229, Note_off_c, 1, 74, 0
1, 25229, Note_off_c, 1, 56, 0
1, 25230, Note_on_c, 1, 69, 127
1, 25230, Note_on_c, 1, 62, 127
1, 25230, Note_on_c, 1, 54, 127
1, 25259, Note_off_c, 1, 52, 0
1, 25259, Note_off_c, 1, 69, 0
1, 25259, Note_off_c, 1, 62, 0
1, 25259, Note_off_c, 1, 54, 0
1, 25260, Note_on_c, 1, 76, 127
1, 25260, Note_on_c, 1, 83, 127
1, 25260, Note_on_c, 1, 50, 127
1, 25260, Note_on_c, 1, 68, 127
1, 25260, Note_on_c, 1, 59, 127
1, 25289, Note_off_c, 1, 50, 0
1, 25289, Note_off_c, 1, 68, 0
1, 25289, Note_off_c, 1, 59, 0
1, 25290, Note_on_c, 1, 78, 127
1, 25290, Note_on_c, 1, 66, 127
1, 25290, Note_on_c, 1, 61, 127
1, 25319, Note_off_c, 1, 64, 0
1, 25319, Note_off_c, 1, 76, 0
1, 25319, Note_off_c, 1, 83, 0
1, 25319, Note_off_c, 1, 78, 0
1, 25319, Note_off_c, 1, 66, 0
1, 25319, Note_off_c, 1, 61, 0
1, 25320, Note_on_c, 1, 76, 127
1, 25320, Note_on_c, 1, 83, 127
1, 25320, Note_on_c, 1, 74, 127
1, 25320, Note_on_c, 1, 50, 127
1, 25320, Note_on_c, 1, 71, 127
1, 25320, Note_on_c, 1, 64, 127
1, 25320, Note_on_c, 1, 80, 127
1, 25320, Note_on_c, 1, 68, 127
1, 25320, Note_on_c, 1, 62, 127
1, 25320, Note_on_c, 1, 49, 127
1, 25320, Note_on_c, 1, 52, 127
1, 25349, Note_off_c, 1, 50, 0
1, 25349, Note_off_c, 1, 80, 0
1, 25349, Note_off_c, 1, 68, 0
1, 25349, Note_off_c, 1, 62, 0
1, 25349, Note_off_c, 1, 49, 0
1, 25349, Note_off_c, 1, 52, 0
1, 25350, Note_on_c, 1, 81, 127
1, 25350, Note_on_c, 1, 73, 127
1, 25350, Note_on_c, 1, 69, 127
1, 25350, Note_on_c, 1, 61, 127
1, 25350, Note_on_c, 1, 54, 127
1, 25379, Note_off_c, 1, 76, 0
1, 25379, Note_off_c, 1, 83, 0
1, 25379, Note_off_c, 1, 74, 0
1, 25379, Note_off_c, 1, 71, 0
1, 25379, Note_off_c, 1, 64, 0
1, 25379, Note_off_c, 1, 81, 0
1, 25379, Note_off_c, 1, 73, 0
1, 25379, Note_off_c, 1, 69, 0
1, 25379, Note_off_c, 1, 61, 0
1, 25379, Note_off_c, 1, 54, 0
1, 25380, Note_on_c, 1, 76, 127
1, 25380, Note_on_c, 1, 83, 127
1, 25380, Note_on_c, 1, 74, 127
1, 25380, Note_on_c, 1, 50, 127
1, 25380, Note_on_c, 1, 71, 127
1, 25380, Note_on_c, 1, 64, 127
1, 25380, Note_on_c, 1, 59, 127
1, 25380, Note_on_c, 1, 52, 127
1, 25380, Note_on_c, 1, 56, 127
1, 25409, Note_off_c, 1, 50, 0
1, 25409, Note_off_c, 1, 59, 0
1, 25409, Note_off_c, 1, 52, 0
1, 25409, Note_off_c, 1, 56, 0
1, 25410, Note_on_c, 1, 85, 127
1, 25410, Note_on_c, 1, 69, 127
1, 25410, Note_on_c, 1, 73, 127
1, 25410, Note_on_c, 1, 57, 127
1, 25410, Note_on_c, 1, 54, 127
1, 25439, Note_off_c, 1, 76, 0
1, 25439, Note_off_c, 1, 83, 0
1, 25439, Note_off_c, 1, 74, 0
1, 25439, Note_off_c, 1, 71, 0
1, 25439, Note_off_c, 1, 64, 0
1, 25439, Note_off_c, 1, 85, 0
1, 25439, Note_off_c, 1, 69, 0
1, 25439, Note_off_c, 1, 73, 0
1, 25439, Note_off_c, 1, 57, 0
1, 25439, Note_off_c, 1, 54, 0
1, 25440, Note_on_c, 1, 76, 127
1, 25440, Note_on_c, 1, 83, 127
1, 25440, Note_on_c, 1, 74, 127
1, 25440, Note_on_c, 1, 50, 127
1, 25440, Note_on_c, 1, 71, 127
1, 25440, Note_on_c, 1, 64, 127
1, 25440, Note_on_c, 1, 86, 127
1, 25440, Note_on_c, 1, 68, 127
1, 25440, Note_on_c, 1, 56, 127
1, 25440, Note_on_c, 1, 52, 127
1, 25469, Note_off_c, 1, 56, 0
1, 25469, Note_off_c, 1, 52, 0
1, 25470, Note_on_c, 1, 66, 127
1, 25470, Note_on_c, 1, 59, 127
1, 25470, Note_on_c, 1, 54, 127
1, 25499, Note_off_c, 1, 76, 0
1, 25499, Note_off_c, 1, 83, 0
1, 25499, Note_off_c, 1, 74, 0
1, 25499, Note_off_c, 1, 50, 0
1, 25499, Note_off_c, 1, 71, 0
1, 25499, Note_off_c, 1, 64, 0
1, 25499, Note_off_c, 1, 86, 0
1, 25499, Note_off_c, 1, 68, 0
1, 25499, Note_off_c, 1, 66, 0
1, 25499, Note_off_c, 1, 59, 0
1, 25499, Note_off_c, 1, 54, 0
1, 25500, Note_on_c, 1, 76, 127
1, 25500, Note_on_c, 1, 83, 127
1, 25500, Note_on_c, 1, 74, 127
1, 25500, Note_on_c, 1, 71, 127
1, 25500, Note_on_c, 1, 64, 127
1, 25500, Note_on_c, 1, 69, 127
1, 25500, Note_on_c, 1, 66, 127
1, 25500, Note_on_c, 1, 61, 127
1, 25500, Note_on_c, 1, 68, 127
1, 25500, Note_on_c, 1, 52, 127
1, 25500, Note_on_c, 1, 49, 127
1, 25529, Note_off_c, 1, 69, 0
1, 25529, Note_off_c, 1, 66, 0
1, 25529, Note_off_c, 1, 61, 0
1, 25529, Note_off_c, 1, 68, 0
1, 25529, Note_off_c, 1, 52, 0
1, 25529, Note_off_c, 1, 49, 0
1, 25530, Note_on_c, 1, 62, 127
1, 25530, Note_on_c, 1, 50, 127
1, 25530, Note_on_c, 1, 47, 127
1, 25559, Note_off_c, 1, 76, 0
1, 25559, Note_off_c, 1, 83, 0
1, 25559, Note_off_c, 1, 74, 0
1, 25559, Note_off_c, 1, 71, 0
1, 25559, Note_off_c, 1, 64, 0
1, 25559, Note_off_c, 1, 62, 0
1, 25559, Note_off_c, 1, 50, 0
1, 25559, Note_off_c, 1, 47, 0
1, 25560, Note_on_c, 1, 85, 127
1, 25560, Note_on_c, 1, 76, 127
1, 25560, Note_on_c, 1, 81, 127
1, 25560, Note_on_c, 1, 45, 127
1, 25560, Note_on_c, 1, 73, 127
1, 25560, Note_on_c, 1, 64, 127
1, 25560, Note_on_c, 1, 69, 127
1, 25560, Note_on_c, 1, 52, 127
1, 25619, Note_off_c, 1, 85, 0
1, 25619, Note_off_c, 1, 76, 0
1, 25619, Note_off_c, 1, 81, 0
1, 25619, Note_off_c, 1, 45, 0
1, 25619, Note_off_c, 1, 64, 0
1, 25620, Note_on_c, 1, 57, 127
1, 25620, Note_on_c, 1, 47, 127
1, 25649, Note_off_c, 1, 47, 0
1, 25650, Note_on_c, 1, 49, 127
1, 25679, Note_off_c, 1, 73, 0
1, 25679, Note_off_c, 1, 69, 0
1, 25679, Note_off_c, 1, 52, 0
1, 25679, Note_off_c, 1, 57, 0
1, 25679, Note_off_c, 1, 49, 0
1, 25680, Note_on_c, 1, 45, 127
1, 25680, Note_on_c, 1, 64, 127
1, 25680, Note_on_c, 1, 57, 127
1, 25680, Note_on_c, 1, 81, 127
1, 25680, Note_on_c, 1, 76, 127
1, 25680, Note_on_c, 1, 73, 127
1, 25680, Note_on_c, 1, 50, 127
1, 25694, Note_off_c, 1, 45, 0
1, 25709, Note_off_c, 1, 50, 0
1, 25710, Note_on_c, 1, 52, 127
1, 25739, Note_off_c, 1, 64, 0
1, 25739, Note_off_c, 1, 57, 0
1, 25739, Note_off_c, 1, 81, 0
1, 25739, Note_off_c, 1, 76, 0
1, 25739, Note_off_c, 1, 73, 0
1, 25739, Note_off_c, 1, 52, 0
1, 25740, Note_on_c, 1, 45, 127
1, 25740, Note_on_c, 1, 64, 127
1, 25740, Note_on_c, 1, 57, 127
1, 25740, Note_on_c, 1, 76, 127
1, 25740, Note_on_c, 1, 73, 127
1, 25740, Note_on_c, 1, 69, 127
1, 25740, Note_on_c, 1, 54, 127
1, 25754, Note_off_c, 1, 45, 0
1, 25769, Note_off_c, 1, 54, 0
1, 25770, Note_on_c, 1, 55, 127
1, 25799, Note_off_c, 1, 64, 0
1, 25799, Note_off_c, 1, 57, 0
1, 25799, Note_off_c, 1, 76, 0
1, 25799, Note_off_c, 1, 73, 0
1, 25799, Note_off_c, 1, 69, 0
1, 25799, Note_off_c, 1, 55, 0
1, 25800, Note_on_c, 1, 45, 127
1, 25800, Note_on_c, 1, 64, 127
1, 25800, Note_on_c, 1, 57, 127
1, 25800, Note_on_c, 1, 76, 127
1, 25800, Note_on_c, 1, 73, 127
1, 25800, Note_on_c, 1, 69, 127
1, 25800, Note_on_c, 1, 67, 127
1, 25814, Note_off_c, 1, 45, 0
1, 25830, Note_on_c, 1, 55, 127
1, 25859, Note_off_c, 1, 64, 0
1, 25859, Note_off_c, 1, 57, 0
1, 25859, Note_off_c, 1, 76, 0
1, 25859, Note_off_c, 1, 73, 0
1, 25859, Note_off_c, 1, 69, 0
1, 25859, Note_off_c, 1, 67, 0
1, 25859, Note_off_c, 1, 55, 0
1, 25860, Note_on_c, 1, 45, 127
1, 25860, Note_on_c, 1, 62, 127
1, 25860, Note_on_c, 1, 54, 127
1, 25860, Note_on_c, 1, 73, 127
1, 25860, Note_on_c, 1, 69, 127
1, 25860, Note_on_c, 1, 64, 127
1, 25860, Note_on_c, 1, 78, 127
1, 25860, Note_on_c, 1, 74, 127
1, 25860, Note_on_c, 1, 57, 127
1, 25874, Note_off_c, 1, 45, 0
1, 25889, Note_off_c, 1, 62, 0
1, 25889, Note_off_c, 1, 54, 0
1, 25889, Note_off_c, 1, 78, 0
1, 25889, Note_off_c, 1, 74, 0
1, 25889, Note_off_c, 1, 57, 0
1, 25890, Note_on_c, 1, 76, 127
1, 25890, Note_on_c, 1, 67, 127
1, 25890, Note_on_c, 1, 55, 127
1, 25919, Note_off_c, 1, 73, 0
1, 25919, Note_off_c, 1, 69, 0
1, 25919, Note_off_c, 1, 64, 0
1, 25919, Note_off_c, 1, 76, 0
1, 25919, Note_off_c, 1, 67, 0
1, 25919, Note_off_c, 1, 55, 0
1, 25920, Note_on_c, 1, 86, 127
1, 25920, Note_on_c, 1, 81, 127
1, 25920, Note_on_c, 1, 78, 127
1, 25920, Note_on_c, 1, 45, 127
1, 25920, Note_on_c, 1, 66, 127
1, 25920, Note_on_c, 1, 62, 127
1, 25920, Note_on_c, 1, 74, 127
1, 25920, Note_on_c, 1, 69, 127
1, 25920, Note_on_c, 1, 57, 127
1, 25934, Note_off_c, 1, 45, 0
1, 25949, Note_off_c, 1, 57, 0
1, 25979, Note_off_c, 1, 86, 0
1, 25979, Note_off_c, 1, 81, 0
1, 25979, Note_off_c, 1, 78, 0
1, 25979, Note_off_c, 1, 66, 0
1, 25979, Note_off_c, 1, 62, 0
1, 25979, Note_off_c, 1, 74, 0
1, 25979, Note_off_c, 1, 69, 0
1, 25980, Note_on_c, 1, 81, 127
1, 25980, Note_on_c, 1, 78, 127
1, 25980, Note_on_c, 1, 74, 127
1, 25980, Note_on_c, 1, 45, 127
1, 25980, Note_on_c, 1, 66, 127
1, 25980, Note_on_c, 1, 62, 127
1, 25980, Note_on_c, 1, 69, 127
1, 25980, Note_on_c, 1, 47, 127
1, 25994, Note_off_c, 1, 45, 0
1, 26009, Note_off_c, 1, 47, 0
1, 26010, Note_on_c, 1, 49, 127
1, 26039, Note_off_c, 1, 81, 0
1, 26039, Note_off_c, 1, 78, 0
1, 26039, Note_off_c, 1, 74, 0
1, 26039, Note_off_c, 1, 66, 0
1, 26039, Note_off_c, 1, 62, 0
1, 26039, Note_off_c, 1, 69, 0
1, 26039, Note_off_c, 1, 49, 0
1, 26040, Note_on_c, 1, 45, 127
1, 26040, Note_on_c, 1, 66, 127
1, 26040, Note_on_c, 1, 62, 127
1, 26040, Note_on_c, 1, 81, 127
1, 26040, Note_on_c, 1, 78, 127
1, 26040, Note_on_c, 1, 74, 127
1, 26040, Note_on_c, 1, 50, 127
1, 26054, Note_off_c, 1, 45, 0
1, 26069, Note_off_c, 1, 50, 0
1, 26070, Note_on_c, 1, 52, 127
1, 26099, Note_off_c, 1, 66, 0
1, 26099, Note_off_c, 1, 62, 0
1, 26099, Note_off_c, 1, 81, 0
1, 26099, Note_off_c, 1, 78, 0
1, 26099, Note_off_c, 1, 74, 0
1, 26099, Note_off_c, 1, 52, 0
1, 26100, Note_on_c, 1, 45, 127
1, 26100, Note_on_c, 1, 66, 127
1, 26100, Note_on_c, 1, 62, 127
1, 26100, Note_on_c, 1, 78, 127
1, 26100, Note_on_c, 1, 74, 127
1, 26100, Note_on_c, 1, 69, 127
1, 26100, Note_on_c, 1, 54, 127
1, 26114, Note_off_c, 1, 45, 0
1, 26129, Note_off_c, 1, 54, 0
1, 26130, Note_on_c, 1, 55, 127
1, 26159, Note_off_c, 1, 66, 0
1, 26159, Note_off_c, 1, 62, 0
1, 26159, Note_off_c, 1, 78, 0
1, 26159, Note_off_c, 1, 74, 0
1, 26159, Note_off_c, 1, 69, 0
1, 26159, Note_off_c, 1, 55, 0
1, 26160, Note_on_c, 1, 45, 127
1, 26160, Note_on_c, 1, 66, 127
1, 26160, Note_on_c, 1, 62, 127
1, 26160, Note_on_c, 1, 78, 127
1, 26160, Note_on_c, 1, 74, 127
1, 26160, Note_on_c, 1, 69, 127
1, 26160, Note_on_c, 1, 57, 127
1, 26174, Note_off_c, 1, 45, 0
1, 26190, Note_on_c, 1, 55, 127
1, 26219, Note_off_c, 1, 66, 0
1, 26219, Note_off_c, 1, 62, 0
1, 26219, Note_off_c, 1, 78, 0
1, 26219, Note_off_c, 1, 74, 0
1, 26219, Note_off_c, 1, 69, 0
1, 26219, Note_off_c, 1, 57, 0
1, 26219, Note_off_c, 1, 55, 0
1, 26220, Note_on_c, 1, 45, 127
1, 26220, Note_on_c, 1, 64, 127
1, 26220, Note_on_c, 1, 57, 127
1, 26220, Note_on_c, 1, 74, 127
1, 26220, Note_on_c, 1, 69, 127
1, 26220, Note_on_c, 1, 66, 127
1, 26220, Note_on_c, 1, 79, 127
1, 26220, Note_on_c, 1, 76, 127
1, 26220, Note_on_c, 1, 61, 127
1, 26234, Note_off_c, 1, 45, 0
1, 26249, Note_off_c, 1, 64, 0
1, 26249, Note_off_c, 1, 57, 0
1, 26249, Note_off_c, 1, 79, 0
1, 26249, Note_off_c, 1, 76, 0
1, 26249, Note_off_c, 1, 61, 0
1, 26250, Note_on_c, 1, 62, 127
1, 26250, Note_on_c, 1, 78, 127
1, 26250, Note_on_c, 1, 55, 127
1, 26279, Note_off_c, 1, 74, 0
1, 26279, Note_off_c, 1, 69, 0
1, 26279, Note_off_c, 1, 66, 0
1, 26279, Note_off_c, 1, 62, 0
1, 26279, Note_off_c, 1, 78, 0
1, 26279, Note_off_c, 1, 55, 0
1, 26280, Note_on_c, 1, 85, 127
1, 26280, Note_on_c, 1, 81, 127
1, 26280, Note_on_c, 1, 76, 127
1, 26280, Note_on_c, 1, 45, 127
1, 26280, Note_on_c, 1, 67, 127
1, 26280, Note_on_c, 1, 64, 127
1, 26280, Note_on_c, 1, 73, 127
1, 26280, Note_on_c, 1, 57, 127
1, 26294, Note_off_c, 1, 45, 0
1, 26339, Note_off_c, 1, 85, 0
1, 26339, Note_off_c, 1, 81, 0
1, 26339, Note_off_c, 1, 76, 0
1, 26339, Note_off_c, 1, 67, 0
1, 26339, Note_off_c, 1, 64, 0
1, 26339, Note_off_c, 1, 73, 0
1, 26339, Note_off_c, 1, 57, 0
1, 26340, Note_on_c, 1, 81, 127
1, 26340, Note_on_c, 1, 76, 127
1, 26340, Note_on_c, 1, 69, 127
1, 26340, Note_on_c, 1, 45, 127
1, 26340, Note_on_c, 1, 67, 127
1, 26340, Note_on_c, 1, 64, 127
1, 26340, Note_on_c, 1, 73, 127
1, 26340, Note_on_c, 1, 57, 127
1, 26340, Note_on_c, 1, 47, 127
1, 26354, Note_off_c, 1, 45, 0
1, 26369, Note_off_c, 1, 47, 0
1, 26370, Note_on_c, 1, 49, 127
1, 26399, Note_off_c, 1, 81, 0
1, 26399, Note_off_c, 1, 76, 0
1, 26399, Note_off_c, 1, 69, 0
1, 26399, Note_off_c, 1, 67, 0
1, 26399, Note_off_c, 1, 64, 0
1, 26399, Note_off_c, 1, 73, 0
1, 26399, Note_off_c, 1, 57, 0
1, 26399, Note_off_c, 1, 49, 0
1, 26400, Note_on_c, 1, 45, 127
1, 26400, Note_on_c, 1, 67, 127
1, 26400, Note_on_c, 1, 64, 127
1, 26400, Note_on_c, 1, 81, 127
1, 26400, Note_on_c, 1, 76, 127
1, 26400, Note_on_c, 1, 73, 127
1, 26400, Note_on_c, 1, 50, 127
1, 26414, Note_off_c, 1, 45, 0
1, 26429, Note_off_c, 1, 50, 0
1, 26430, Note_on_c, 1, 52, 127
1, 26459, Note_off_c, 1, 67, 0
1, 26459, Note_off_c, 1, 64, 0
1, 26459, Note_off_c, 1, 81, 0
1, 26459, Note_off_c, 1, 76, 0
1, 26459, Note_off_c, 1, 73, 0
1, 26459, Note_off_c, 1, 52, 0
1, 26460, Note_on_c, 1, 45, 127
1, 26460, Note_on_c, 1, 67, 127
1, 26460, Note_on_c, 1, 64, 127
1, 26460, Note_on_c, 1, 76, 127
1, 26460, Note_on_c, 1, 73, 127
1, 26460, Note_on_c, 1, 69, 127
1, 26460, Note_on_c, 1, 54, 127
1, 26474, Note_off_c, 1, 45, 0
1, 26489, Note_off_c, 1, 54, 0
1, 26490, Note_on_c, 1, 55, 127
1, 26519, Note_off_c, 1, 67, 0
1, 26519, Note_off_c, 1, 64, 0
1, 26519, Note_off_c, 1, 76, 0
1, 26519, Note_off_c, 1, 73, 0
1, 26519, Note_off_c, 1, 69, 0
1, 26519, Note_off_c, 1, 55, 0
1, 26520, Note_on_c, 1, 45, 127
1, 26520, Note_on_c, 1, 67, 127
1, 26520, Note_on_c, 1, 64, 127
1, 26520, Note_on_c, 1, 76, 127
1, 26520, Note_on_c, 1, 73, 127
1, 26520, Note_on_c, 1, 69, 127
1, 26520, Note_on_c, 1, 79, 127
1, 26520, Note_on_c, 1, 61, 127
1, 26520, Note_on_c, 1, 57, 127
1, 26534, Note_off_c, 1, 45, 0
1, 26550, Note_on_c, 1, 55, 127
1, 26579, Note_off_c, 1, 67, 0
1, 26579, Note_off_c, 1, 64, 0
1, 26579, Note_off_c, 1, 76, 0
1, 26579, Note_off_c, 1, 73, 0
1, 26579, Note_off_c, 1, 69, 0
1, 26579, Note_off_c, 1, 79, 0
1, 26579, Note_off_c, 1, 61, 0
1, 26579, Note_off_c, 1, 57, 0
1, 26579, Note_off_c, 1, 55, 0
1, 26580, Note_on_c, 1, 45, 127
1, 26580, Note_on_c, 1, 66, 127
1, 26580, Note_on_c, 1, 62, 127
1, 26580, Note_on_c, 1, 73, 127
1, 26580, Note_on_c, 1, 69, 127
1, 26580, Note_on_c, 1, 64, 127
1, 26580, Note_on_c, 1, 81, 127
1, 26580, Note_on_c, 1, 57, 127
1, 26594, Note_off_c, 1, 45, 0
1, 26609, Note_off_c, 1, 66, 0
1, 26609, Note_off_c, 1, 62, 0
1, 26609, Note_off_c, 1, 81, 0
1, 26609, Note_off_c, 1, 57, 0
1, 26610, Note_on_c, 1, 67, 127
1, 26610, Note_on_c, 1, 55, 127
1, 26639, Note_off_c, 1, 73, 0
1, 26639, Note_off_c, 1, 69, 0
1, 26639, Note_off_c, 1, 64, 0
1, 26639, Note_off_c, 1, 67, 0
1, 26639, Note_off_c, 1, 55, 0
1, 26640, Note_on_c, 1, 50, 127
1, 26640, Note_on_c, 1, 69, 127
1, 26640, Note_on_c, 1, 66, 127
1, 26640, Note_on_c, 1, 74, 127
1, 26640, Note_on_c, 1, 62, 127
1, 26640, Note_on_c, 1, 54, 127
1, 26669, Note_off_c, 1, 62, 0
1, 26670, Note_on_c, 1, 78, 127
1, 26699, Note_off_c, 1, 50, 0
1, 26699, Note_off_c, 1, 78, 0
1, 26700, Note_on_c, 1, 81, 127
1, 26700, Note_on_c, 1, 67, 127
1, 26700, Note_on_c, 1, 76, 127
1, 26700, Note_on_c, 1, 73, 127
1, 26700, Note_on_c, 1, 52, 127
1, 26729, Note_off_c, 1, 76, 0
1, 26729, Note_off_c, 1, 73, 0
1, 26729, Note_off_c, 1, 52, 0
1, 26730, Note_off_c, 1, 67, 0
1, 26730, Note_on_c, 1, 71, 127
1, 26759, Note_off_c, 1, 81, 0
1, 26759, Note_off_c, 1, 71, 0
1, 26760, Note_on_c, 1, 55, 127
1, 26789, Note_off_c, 1, 55, 0
1, 26790, Note_on_c, 1, 57, 127
1, 26819, Note_off_c, 1, 57, 0
1, 26820, Note_on_c, 1, 59, 127
1, 26849, Note_off_c, 1, 59, 0
1, 26850, Note_on_c, 1, 64, 127
1, 26850, Note_on_c, 1, 61, 127
1, 26879, Note_off_c, 1, 64, 0
1, 26879, Note_off_c, 1, 61, 0
1, 26940, Note_on_c, 1, 83, 127
1, 26969, Note_off_c, 1, 83, 0
1, 26970, Note_on_c, 1, 85, 127
1, 26999, Note_off_c, 1, 85, 0
1, 27000, Note_on_c, 1, 86, 127
1, 27030, Note_on_c, 1, 47, 127
1, 27059, Note_off_c, 1, 86, 0
1, 27059, Note_off_c, 1, 47, 0
1, 27060, Note_on_c, 1, 49, 127
1, 27089, Note_off_c, 1, 49, 0
1, 27120, Note_on_c, 1, 79, 127
1, 27150, Note_off_c, 1, 79, 0
1, 27300, Note_off_c, 1, 54, 0
1, 27359, Note_off_c, 1, 69, 0
1, 27359, Note_off_c, 1, 66, 0
1, 27359, Note_off_c, 1, 74, 0
1, 27750, Note_on_c, 1, 45, 127
1, 27779, Note_off_c, 1, 45, 0
1, 27780, Note_on_c, 1, 81, 127
1, 27780, Note_on_c, 1, 78, 127
1, 27780, Note_on_c, 1, 69, 127
1, 27780, Note_on_c, 1, 45, 127
1, 27780, Note_on_c, 1, 66, 127
1, 27780, Note_on_c, 1, 62, 127
1, 27780, Note_on_c, 1, 57, 127
1, 27780, Note_on_c, 1, 47, 127
1, 27809, Note_off_c, 1, 81, 0
1, 27809, Note_off_c, 1, 78, 0
1, 27809, Note_off_c, 1, 69, 0
1, 27809, Note_off_c, 1, 45, 0
1, 27809, Note_off_c, 1, 66, 0
1, 27809, Note_off_c, 1, 62, 0
1, 27809, Note_off_c, 1, 47, 0
1, 27810, Note_on_c, 1, 79, 127
1, 27810, Note_on_c, 1, 76, 127
1, 27810, Note_on_c, 1, 67, 127
1, 27810, Note_on_c, 1, 64, 127
1, 27810, Note_on_c, 1, 49, 127
1, 27839, Note_off_c, 1, 57, 0
1, 27839, Note_off_c, 1, 79, 0
1, 27839, Note_off_c, 1, 76, 0
1, 27839, Note_off_c, 1, 67, 0
1, 27839, Note_off_c, 1, 64, 0
1, 27839, Note_off_c, 1, 49, 0
1, 27840, Note_on_c, 1, 78, 127
1, 27840, Note_on_c, 1, 74, 127
1, 27840, Note_on_c, 1, 69, 127
1, 27840, Note_on_c, 1, 50, 127
1, 27840, Note_on_c, 1, 66, 127
1, 27840, Note_on_c, 1, 62, 127
1, 27869, Note_off_c, 1, 78, 0
1, 27869, Note_off_c, 1, 69, 0
1, 27869, Note_off_c, 1, 50, 0
1, 27869, Note_off_c, 1, 66, 0
1, 27870, Note_on_c, 1, 76, 127
1, 27870, Note_on_c, 1, 64, 127
1, 27870, Note_on_c, 1, 73, 127
1, 27870, Note_on_c, 1, 67, 127
1, 27870, Note_on_c, 1, 52, 127
1, 27899, Note_off_c, 1, 74, 0
1, 27899, Note_off_c, 1, 62, 0
1, 27899, Note_off_c, 1, 76, 0
1, 27899, Note_off_c, 1, 64, 0
1, 27899, Note_off_c, 1, 73, 0
1, 27899, Note_off_c, 1, 67, 0
1, 27899, Note_off_c, 1, 52, 0
1, 27900, Note_on_c, 1, 74, 127
1, 27900, Note_on_c, 1, 69, 127
1, 27900, Note_on_c, 1, 50, 127
1, 27900, Note_on_c, 1, 62, 127
1, 27900, Note_on_c, 1, 57, 127
1, 27900, Note_on_c, 1, 66, 127
1, 27900, Note_on_c, 1, 54, 127
1, 27929, Note_off_c, 1, 74, 0
1, 27929, Note_off_c, 1, 50, 0
1, 27929, Note_off_c, 1, 62, 0
1, 27929, Note_off_c, 1, 66, 0
1, 27929, Note_off_c, 1, 54, 0
1, 27930, Note_on_c, 1, 76, 127
1, 27930, Note_on_c, 1, 64, 127
1, 27930, Note_on_c, 1, 71, 127
1, 27930, Note_on_c, 1, 55, 127
1, 27959, Note_off_c, 1, 69, 0
1, 27959, Note_off_c, 1, 57, 0
1, 27959, Note_off_c, 1, 76, 0
1, 27959, Note_off_c, 1, 64, 0
1, 27959, Note_off_c, 1, 71, 0
1, 27959, Note_off_c, 1, 55, 0
1, 27960, Note_on_c, 1, 76, 127
1, 27960, Note_on_c, 1, 69, 127
1, 27960, Note_on_c, 1, 45, 127
1, 27960, Note_on_c, 1, 64, 127
1, 27960, Note_on_c, 1, 57, 127
1, 27960, Note_on_c, 1, 73, 127
1, 27960, Note_on_c, 1, 67, 127
1, 27989, Note_off_c, 1, 67, 0
1, 27990, Note_on_c, 1, 54, 127
1, 27990, Note_on_c, 1, 66, 127
1, 28019, Note_off_c, 1, 45, 0
1, 28019, Note_off_c, 1, 57, 0
1, 28019, Note_off_c, 1, 54, 0
1, 28019, Note_off_c, 1, 66, 0
1, 28049, Note_off_c, 1, 73, 0
1, 28050, Note_off_c, 1, 76, 0
1, 28050, Note_on_c, 1, 74, 127
1, 28050, Note_on_c, 1, 62, 127
1, 28079, Note_off_c, 1, 69, 0
1, 28079, Note_off_c, 1, 64, 0
1, 28079, Note_off_c, 1, 62, 0
1, 28080, Note_on_c, 1, 78, 127
1, 28080, Note_on_c, 1, 50, 127
1, 28110, Note_on_c, 1, 38, 127
1, 28139, Note_off_c, 1, 78, 0
1, 28139, Note_off_c, 1, 38, 0
1, 28140, Note_on_c, 1, 81, 127
1, 28140, Note_on_c, 1, 40, 127
1, 28169, Note_off_c, 1, 40, 0
1, 28170, Note_on_c, 1, 42, 127
1, 28199, Note_off_c, 1, 74, 0
1, 28199, Note_off_c, 1, 50, 0
1, 28199, Note_off_c, 1, 81, 0
1, 28199, Note_off_c, 1, 42, 0
1, 28200, Note_on_c, 1, 81, 127
1, 28200, Note_on_c, 1, 78, 127
1, 28200, Note_on_c, 1, 50, 127
1, 28200, Note_on_c, 1, 74, 127
1, 28200, Note_on_c, 1, 43, 127
1, 28214, Note_off_c, 1, 50, 0
1, 28229, Note_off_c, 1, 43, 0
1, 28230, Note_on_c, 1, 45, 127
1, 28259, Note_off_c, 1, 81, 0
1, 28259, Note_off_c, 1, 78, 0
1, 28259, Note_off_c, 1, 74, 0
1, 28259, Note_off_c, 1, 45, 0
1, 28260, Note_on_c, 1, 81, 127
1, 28260, Note_on_c, 1, 78, 127
1, 28260, Note_on_c, 1, 50, 127
1, 28260, Note_on_c, 1, 74, 127
1, 28260, Note_on_c, 1, 69, 127
1, 28260, Note_on_c, 1, 47, 127
1, 28274, Note_off_c, 1, 50, 0
1, 28289, Note_off_c, 1, 47, 0
1, 28290, Note_on_c, 1, 49, 127
1, 28319, Note_off_c, 1, 81, 0
1, 28319, Note_off_c, 1, 78, 0
1, 28319, Note_off_c, 1, 74, 0
1, 28319, Note_off_c, 1, 69, 0
1, 28319, Note_off_c, 1, 49, 0
1, 28320, Note_on_c, 1, 81, 127
1, 28320, Note_on_c, 1, 78, 127
1, 28320, Note_on_c, 1, 50, 127
1, 28320, Note_on_c, 1, 86, 127
1, 28320, Note_on_c, 1, 66, 127
1, 28349, Note_off_c, 1, 50, 0
1, 28350, Note_on_c, 1, 49, 127
1, 28379, Note_off_c, 1, 81, 0
1, 28379, Note_off_c, 1, 78, 0
1, 28379, Note_off_c, 1, 86, 0
1, 28379, Note_off_c, 1, 66, 0
1, 28379, Note_off_c, 1, 49, 0
1, 28380, Note_on_c, 1, 79, 127
1, 28380, Note_on_c, 1, 76, 127
1, 28380, Note_on_c, 1, 50, 127
1, 28380, Note_on_c, 1, 81, 127
1, 28380, Note_on_c, 1, 78, 127
1, 28380, Note_on_c, 1, 74, 127
1, 28409, Note_off_c, 1, 79, 0
1, 28409, Note_off_c, 1, 76, 0
1, 28409, Note_off_c, 1, 50, 0
1, 28410, Note_on_c, 1, 49, 127
1, 28439, Note_off_c, 1, 81, 0
1, 28439, Note_off_c, 1, 78, 0
1, 28439, Note_off_c, 1, 74, 0
1, 28439, Note_off_c, 1, 49, 0
1, 28440, Note_on_c, 1, 83, 127
1, 28440, Note_on_c, 1, 79, 127
1, 28440, Note_on_c, 1, 50, 127
1, 28440, Note_on_c, 1, 67, 127
1, 28440, Note_on_c, 1, 62, 127
1, 28469, Note_off_c, 1, 50, 0
1, 28470, Note_on_c, 1, 38, 127
1, 28499, Note_off_c, 1, 83, 0
1, 28499, Note_off_c, 1, 79, 0
1, 28499, Note_off_c, 1, 67, 0
1, 28499, Note_off_c, 1, 62, 0
1, 28499, Note_off_c, 1, 38, 0
1, 28500, Note_on_c, 1, 83, 127
1, 28500, Note_on_c, 1, 79, 127
1, 28500, Note_on_c, 1, 50, 127
1, 28500, Note_on_c, 1, 62, 127
1, 28500, Note_on_c, 1, 40, 127
1, 28529, Note_off_c, 1, 40, 0
1, 28530, Note_on_c, 1, 42, 127
1, 28559, Note_off_c, 1, 83, 0
1, 28559, Note_off_c, 1, 79, 0
1, 28559, Note_off_c, 1, 50, 0
1, 28559, Note_off_c, 1, 62, 0
1, 28559, Note_off_c, 1, 42, 0
1, 28560, Note_on_c, 1, 83, 127
1, 28560, Note_on_c, 1, 79, 127
1, 28560, Note_on_c, 1, 50, 127
1, 28560, Note_on_c, 1, 74, 127
1, 28560, Note_on_c, 1, 71, 127
1, 28560, Note_on_c, 1, 43, 127
1, 28574, Note_off_c, 1, 50, 0
1, 28589, Note_off_c, 1, 43, 0
1, 28590, Note_on_c, 1, 45, 127
1, 28619, Note_off_c, 1, 83, 0
1, 28619, Note_off_c, 1, 79, 0
1, 28619, Note_off_c, 1, 74, 0
1, 28619, Note_off_c, 1, 71, 0
1, 28619, Note_off_c, 1, 45, 0
1, 28620, Note_on_c, 1, 83, 127
1, 28620, Note_on_c, 1, 79, 127
1, 28620, Note_on_c, 1, 50, 127
1, 28620, Note_on_c, 1, 74, 127
1, 28620, Note_on_c, 1, 71, 127
1, 28620, Note_on_c, 1, 67, 127
1, 28620, Note_on_c, 1, 47, 127
1, 28634, Note_off_c, 1, 50, 0
1, 28649, Note_off_c, 1, 47, 0
1, 28650, Note_on_c, 1, 49, 127
1, 28679, Note_off_c, 1, 83, 0
1, 28679, Note_off_c, 1, 79, 0
1, 28679, Note_off_c, 1, 74, 0
1, 28679, Note_off_c, 1, 71, 0
1, 28679, Note_off_c, 1, 67, 0
1, 28679, Note_off_c, 1, 49, 0
1, 28680, Note_on_c, 1, 83, 127
1, 28680, Note_on_c, 1, 79, 127
1, 28680, Note_on_c, 1, 50, 127
1, 28680, Note_on_c, 1, 74, 127
1, 28709, Note_off_c, 1, 50, 0
1, 28710, Note_on_c, 1, 49, 127
1, 28739, Note_off_c, 1, 83, 0
1, 28739, Note_off_c, 1, 79, 0
1, 28739, Note_off_c, 1, 74, 0
1, 28739, Note_off_c, 1, 49, 0
1, 28740, Note_on_c, 1, 81, 127
1, 28740, Note_on_c, 1, 78, 127
1, 28740, Note_on_c, 1, 50, 127
1, 28740, Note_on_c, 1, 79, 127
1, 28740, Note_on_c, 1, 74, 127
1, 28740, Note_on_c, 1, 71, 127
1, 28769, Note_off_c, 1, 81, 0
1, 28769, Note_off_c, 1, 78, 0
1, 28769, Note_off_c, 1, 50, 0
1, 28770, Note_on_c, 1, 83, 127
1, 28770, Note_on_c, 1, 49, 127
1, 28799, Note_off_c, 1, 79, 0
1, 28799, Note_off_c, 1, 74, 0
1, 28799, Note_off_c, 1, 71, 0
1, 28799, Note_off_c, 1, 83, 0
1, 28799, Note_off_c, 1, 49, 0
1, 28800, Note_on_c, 1, 84, 127
1, 28800, Note_on_c, 1, 81, 127
1, 28800, Note_on_c, 1, 50, 127
1, 28800, Note_on_c, 1, 66, 127
1, 28800, Note_on_c, 1, 62, 127
1, 28829, Note_off_c, 1, 50, 0
1, 28830, Note_on_c, 1, 38, 127
1, 28859, Note_off_c, 1, 84, 0
1, 28859, Note_off_c, 1, 81, 0
1, 28859, Note_off_c, 1, 66, 0
1, 28859, Note_off_c, 1, 62, 0
1, 28859, Note_off_c, 1, 38, 0
1, 28860, Note_on_c, 1, 84, 127
1, 28860, Note_on_c, 1, 81, 127
1, 28860, Note_on_c, 1, 78, 127
1, 28860, Note_on_c, 1, 50, 127
1, 28860, Note_on_c, 1, 62, 127
1, 28860, Note_on_c, 1, 57, 127
1, 28860, Note_on_c, 1, 40, 127
1, 28874, Note_off_c, 1, 50, 0
1, 28889, Note_off_c, 1, 40, 0
1, 28890, Note_on_c, 1, 42, 127
1, 28919, Note_off_c, 1, 84, 0
1, 28919, Note_off_c, 1, 81, 0
1, 28919, Note_off_c, 1, 78, 0
1, 28919, Note_off_c, 1, 62, 0
1, 28919, Note_off_c, 1, 57, 0
1, 28919, Note_off_c, 1, 42, 0
1, 28920, Note_on_c, 1, 84, 127
1, 28920, Note_on_c, 1, 81, 127
1, 28920, Note_on_c, 1, 50, 127
1, 28920, Note_on_c, 1, 78, 127
1, 28920, Note_on_c, 1, 74, 127
1, 28920, Note_on_c, 1, 69, 127
1, 28920, Note_on_c, 1, 43, 127
1, 28934, Note_off_c, 1, 50, 0
1, 28949, Note_off_c, 1, 43, 0
1, 28950, Note_on_c, 1, 45, 127
1, 28979, Note_off_c, 1, 84, 0
1, 28979, Note_off_c, 1, 81, 0
1, 28979, Note_off_c, 1, 78, 0
1, 28979, Note_off_c, 1, 74, 0
1, 28979, Note_off_c, 1, 69, 0
1, 28979, Note_off_c, 1, 45, 0
1, 28980, Note_on_c, 1, 84, 127
1, 28980, Note_on_c, 1, 81, 127
1, 28980, Note_on_c, 1, 50, 127
1, 28980, Note_on_c, 1, 74, 127
1, 28980, Note_on_c, 1, 69, 127
1, 28980, Note_on_c, 1, 66, 127
1, 28980, Note_on_c, 1, 47, 127
1, 28994, Note_off_c, 1, 50, 0
1, 29009, Note_off_c, 1, 47, 0
1, 29010, Note_on_c, 1, 49, 127
1, 29039, Note_off_c, 1, 84, 0
1, 29039, Note_off_c, 1, 81, 0
1, 29039, Note_off_c, 1, 74, 0
1, 29039, Note_off_c, 1, 69, 0
1, 29039, Note_off_c, 1, 66, 0
1, 29039, Note_off_c, 1, 49, 0
1, 29040, Note_on_c, 1, 84, 127
1, 29040, Note_on_c, 1, 81, 127
1, 29040, Note_on_c, 1, 50, 127
1, 29040, Note_on_c, 1, 78, 127
1, 29040, Note_on_c, 1, 74, 127
1, 29069, Note_off_c, 1, 50, 0
1, 29070, Note_on_c, 1, 52, 127
1, 29099, Note_off_c, 1, 84, 0
1, 29099, Note_off_c, 1, 81, 0
1, 29099, Note_off_c, 1, 78, 0
1, 29099, Note_off_c, 1, 74, 0
1, 29099, Note_off_c, 1, 52, 0
1, 29100, Note_on_c, 1, 83, 127
1, 29100, Note_on_c, 1, 74, 127
1, 29100, Note_on_c, 1, 50, 127
1, 29100, Note_on_c, 1, 78, 127
1, 29100, Note_on_c, 1, 67, 127
1, 29100, Note_on_c, 1, 54, 127
1, 29114, Note_off_c, 1, 50, 0
1, 29129, Note_off_c, 1, 83, 0
1, 29129, Note_off_c, 1, 54, 0
1, 29130, Note_on_c, 1, 81, 127
1, 29159, Note_off_c, 1, 74, 0
1, 29159, Note_off_c, 1, 78, 0
1, 29159, Note_off_c, 1, 67, 0
1, 29159, Note_off_c, 1, 81, 0
1, 29160, Note_on_c, 1, 83, 127
1, 29160, Note_on_c, 1, 74, 127
1, 29160, Note_on_c, 1, 50, 127
1, 29160, Note_on_c, 1, 55, 127
1, 29189, Note_off_c, 1, 83, 0
1, 29189, Note_off_c, 1, 55, 0
1, 29190, Note_on_c, 1, 81, 127
1, 29190, Note_on_c, 1, 54, 127
1, 29219, Note_off_c, 1, 74, 0
1, 29219, Note_off_c, 1, 81, 0
1, 29219, Note_off_c, 1, 54, 0
1, 29220, Note_on_c, 1, 62, 127
1, 29220, Note_on_c, 1, 71, 127
1, 29250, Note_on_c, 1, 69, 127
1, 29279, Note_off_c, 1, 50, 0
1, 29279, Note_off_c, 1, 62, 0
1, 29279, Note_off_c, 1, 71, 0
1, 29279, Note_off_c, 1, 69, 0
1, 29280, Note_on_c, 1, 79, 127
1, 29280, Note_on_c, 1, 76, 127
1, 29280, Note_on_c, 1, 67, 127
1, 29280, Note_on_c, 1, 64, 127
1, 29280, Note_on_c, 1, 73, 127
1, 29280, Note_on_c, 1, 52, 127
1, 29309, Note_off_c, 1, 79, 0
1, 29309, Note_off_c, 1, 76, 0
1, 29309, Note_off_c, 1, 67, 0
1, 29309, Note_off_c, 1, 64, 0
1, 29309, Note_off_c, 1, 73, 0
1, 29309, Note_off_c, 1, 52, 0
1, 29310, Note_on_c, 1, 78, 127
1, 29310, Note_on_c, 1, 66, 127
1, 29310, Note_on_c, 1, 74, 127
1, 29310, Note_on_c, 1, 50, 127
1, 29339, Note_off_c, 1, 78, 0
1, 29339, Note_off_c, 1, 66, 0
1, 29339, Note_off_c, 1, 74, 0
1, 29339, Note_off_c, 1, 50, 0
1, 29340, Note_on_c, 1, 79, 127
1, 29340, Note_on_c, 1, 76, 127
1, 29340, Note_on_c, 1, 67, 127
1, 29340, Note_on_c, 1, 64, 127
1, 29340, Note_on_c, 1, 73, 127
1, 29340, Note_on_c, 1, 52, 127
1, 29369, Note_off_c, 1, 79, 0
1, 29369, Note_off_c, 1, 76, 0
1, 29369, Note_off_c, 1, 67, 0
1, 29369, Note_off_c, 1, 64, 0
1, 29369, Note_off_c, 1, 73, 0
1, 29369, Note_off_c, 1, 52, 0
1, 29370, Note_on_c, 1, 78, 127
1, 29370, Note_on_c, 1, 66, 127
1, 29370, Note_on_c, 1, 74, 127
1, 29370, Note_on_c, 1, 50, 127
1, 29399, Note_off_c, 1, 78, 0
1, 29399, Note_off_c, 1, 66, 0
1, 29399, Note_off_c, 1, 74, 0
1, 29399, Note_off_c, 1, 50, 0
1, 29400, Note_on_c, 1, 76, 127
1, 29400, Note_on_c, 1, 79, 127
1, 29400, Note_on_c, 1, 64, 127
1, 29400, Note_on_c, 1, 67, 127
1, 29400, Note_on_c, 1, 49, 127
1, 29429, Note_off_c, 1, 79, 0
1, 29429, Note_off_c, 1, 64, 0
1, 29429, Note_off_c, 1, 67, 0
1, 29429, Note_off_c, 1, 49, 0
1, 29430, Note_on_c, 1, 74, 127
1, 29430, Note_on_c, 1, 81, 127
1, 29430, Note_on_c, 1, 62, 127
1, 29430, Note_on_c, 1, 69, 127
1, 29430, Note_on_c, 1, 47, 127
1, 29459, Note_off_c, 1, 76, 0
1, 29459, Note_off_c, 1, 74, 0
1, 29459, Note_off_c, 1, 81, 0
1, 29459, Note_off_c, 1, 62, 0
1, 29459, Note_off_c, 1, 69, 0
1, 29459, Note_off_c, 1, 47, 0
1, 29460, Note_on_c, 1, 76, 127
1, 29460, Note_on_c, 1, 78, 127
1, 29460, Note_on_c, 1, 64, 127
1, 29460, Note_on_c, 1, 66, 127
1, 29460, Note_on_c, 1, 69, 127
1, 29460, Note_on_c, 1, 49, 127
1, 29489, Note_off_c, 1, 76, 0
1, 29489, Note_off_c, 1, 78, 0
1, 29489, Note_off_c, 1, 64, 0
1, 29489, Note_off_c, 1, 66, 0
1, 29489, Note_off_c, 1, 49, 0
1, 29490, Note_on_c, 1, 74, 127
1, 29490, Note_on_c, 1, 79, 127
1, 29490, Note_on_c, 1, 62, 127
1, 29490, Note_on_c, 1, 67, 127
1, 29490, Note_on_c, 1, 47, 127
1, 29519, Note_off_c, 1, 69, 0
1, 29519, Note_off_c, 1, 74, 0
1, 29519, Note_off_c, 1, 79, 0
1, 29519, Note_off_c, 1, 62, 0
1, 29519, Note_off_c, 1, 67, 0
1, 29519, Note_off_c, 1, 47, 0
1, 29520, Note_on_c, 1, 79, 127
1, 29520, Note_on_c, 1, 81, 127
1, 29520, Note_on_c, 1, 67, 127
1, 29520, Note_on_c, 1, 69, 127
1, 29520, Note_on_c, 1, 64, 127
1, 29520, Note_on_c, 1, 49, 127
1, 29549, Note_off_c, 1, 81, 0
1, 29549, Note_off_c, 1, 69, 0
1, 29549, Note_off_c, 1, 64, 0
1, 29549, Note_off_c, 1, 49, 0
1, 29550, Note_on_c, 1, 61, 127
1, 29550, Note_on_c, 1, 45, 127
1, 29579, Note_off_c, 1, 79, 0
1, 29579, Note_off_c, 1, 67, 0
1, 29579, Note_off_c, 1, 61, 0
1, 29579, Note_off_c, 1, 45, 0
1, 29580, Note_on_c, 1, 81, 127
1, 29580, Note_on_c, 1, 78, 127
1, 29580, Note_on_c, 1, 69, 127
1, 29580, Note_on_c, 1, 45, 127
1, 29580, Note_on_c, 1, 66, 127
1, 29580, Note_on_c, 1, 62, 127
1, 29580, Note_on_c, 1, 47, 127
1, 29609, Note_off_c, 1, 81, 0
1, 29609, Note_off_c, 1, 78, 0
1, 29609, Note_off_c, 1, 69, 0
1, 29609, Note_off_c, 1, 45, 0
1, 29609, Note_off_c, 1, 66, 0
1, 29609, Note_off_c, 1, 62, 0
1, 29609, Note_off_c, 1, 47, 0
1, 29610, Note_on_c, 1, 79, 127
1, 29610, Note_on_c, 1, 76, 127
1, 29610, Note_on_c, 1, 69, 127
1, 29610, Note_on_c, 1, 45, 127
1, 29610, Note_on_c, 1, 67, 127
1, 29610, Note_on_c, 1, 64, 127
1, 29610, Note_on_c, 1, 49, 127
1, 29639, Note_off_c, 1, 79, 0
1, 29639, Note_off_c, 1, 76, 0
1, 29639, Note_off_c, 1, 69, 0
1, 29639, Note_off_c, 1, 45, 0
1, 29639, Note_off_c, 1, 67, 0
1, 29639, Note_off_c, 1, 64, 0
1, 29639, Note_off_c, 1, 49, 0
1, 29640, Note_on_c, 1, 78, 127
1, 29640, Note_on_c, 1, 74, 127
1, 29640, Note_on_c, 1, 69, 127
1, 29640, Note_on_c, 1, 50, 127
1, 29640, Note_on_c, 1, 66, 127
1, 29640, Note_on_c, 1, 64, 127
1, 29669, Note_off_c, 1, 78, 0
1, 29669, Note_off_c, 1, 69, 0
1, 29669, Note_off_c, 1, 50, 0
1, 29669, Note_off_c, 1, 66, 0
1, 29670, Note_on_c, 1, 76, 127
1, 29670, Note_on_c, 1, 73, 127
1, 29670, Note_on_c, 1, 67, 127
1, 29670, Note_on_c, 1, 52, 127
1, 29699, Note_off_c, 1, 74, 0
1, 29699, Note_off_c, 1, 64, 0
1, 29699, Note_off_c, 1, 76, 0
1, 29699, Note_off_c, 1, 73, 0
1, 29699, Note_off_c, 1, 67, 0
1, 29699, Note_off_c, 1, 52, 0
1, 29700, Note_on_c, 1, 74, 127
1, 29700, Note_on_c, 1, 69, 127
1, 29700, Note_on_c, 1, 50, 127
1, 29700, Note_on_c, 1, 62, 127
1, 29700, Note_on_c, 1, 57, 127
1, 29700, Note_on_c, 1, 54, 127
1, 29729, Note_off_c, 1, 74, 0
1, 29729, Note_off_c, 1, 50, 0
1, 29729, Note_off_c, 1, 62, 0
1, 29729, Note_off_c, 1, 54, 0
1, 29730, Note_on_c, 1, 76, 127
1, 29730, Note_on_c, 1, 64, 127
1, 29730, Note_on_c, 1, 71, 127
1, 29730, Note_on_c, 1, 55, 127
1, 29759, Note_off_c, 1, 69, 0
1, 29759, Note_off_c, 1, 57, 0
1, 29759, Note_off_c, 1, 76, 0
1, 29759, Note_off_c, 1, 64, 0
1, 29759, Note_off_c, 1, 71, 0
1, 29759, Note_off_c, 1, 55, 0
1, 29760, Note_on_c, 1, 76, 127
1, 29760, Note_on_c, 1, 69, 127
1, 29760, Note_on_c, 1, 45, 127
1, 29760, Note_on_c, 1, 64, 127
1, 29760, Note_on_c, 1, 57, 127
1, 29760, Note_on_c, 1, 73, 127
1, 29790, Note_on_c, 1, 54, 127
1, 29819, Note_off_c, 1, 45, 0
1, 29819, Note_off_c, 1, 57, 0
1, 29819, Note_off_c, 1, 54, 0
1, 29849, Note_off_c, 1, 76, 0
1, 29849, Note_off_c, 1, 73, 0
1, 29850, Note_on_c, 1, 74, 127
1, 29850, Note_on_c, 1, 62, 127
1, 29879, Note_off_c, 1, 69, 0
1, 29879, Note_off_c, 1, 64, 0
1, 29879, Note_off_c, 1, 74, 0
1, 29879, Note_off_c, 1, 62, 0
1, 29880, Note_on_c, 1, 74, 127
1, 29880, Note_on_c, 1, 69, 127
1, 29880, Note_on_c, 1, 50, 127
1, 29880, Note_on_c, 1, 62, 127
1, 29880, Note_on_c, 1, 54, 127
1, 29880, Note_on_c, 1, 66, 127
1, 29940, Note_on_c, 1, 38, 127
1, 29999, Note_off_c, 1, 74, 0
1, 29999, Note_off_c, 1, 69, 0
1, 29999, Note_off_c, 1, 50, 0
1, 29999, Note_off_c, 1, 62, 0
1, 29999, Note_off_c, 1, 54, 0
1, 29999, Note_off_c, 1, 66, 0
1, 29999, Note_off_c, 1, 38, 0
1, 30000, Note_on_c, 1, 38, 127
1, 30059, Note_off_c, 1, 38, 0
1, 30060, Note_on_c, 1, 69, 127
1, 30060, Note_on_c, 1, 66, 127
1, 30060, Note_on_c, 1, 62, 127
1, 30060, Note_on_c, 1, 50, 127
1, 30119, Note_off_c, 1, 69, 0
1, 30119, Note_off_c, 1, 66, 0
1, 30119, Note_off_c, 1, 62, 0
1, 30119, Note_off_c, 1, 50, 0
1, 30120, Note_on_c, 1, 74, 127
1, 30120, Note_on_c, 1, 69, 127
1, 30120, Note_on_c, 1, 62, 127
1, 30120, Note_on_c, 1, 54, 127
1, 30179, Note_off_c, 1, 74, 0
1, 30179, Note_off_c, 1, 69, 0
1, 30179, Note_off_c, 1, 62, 0
1, 30179, Note_off_c, 1, 54, 0
1, 30180, Note_on_c, 1, 76, 127
1, 30180, Note_on_c, 1, 69, 127
1, 30180, Note_on_c, 1, 61, 127
1, 30180, Note_on_c, 1, 52, 127
1, 30209, Note_off_c, 1, 76, 0
1, 30209, Note_off_c, 1, 69, 0
1, 30209, Note_off_c, 1, 61, 0
1, 30209, Note_off_c, 1, 52, 0
1, 30210, Note_on_c, 1, 78, 127
1, 30210, Note_on_c, 1, 69, 127
1, 30210, Note_on_c, 1, 62, 127
1, 30210, Note_on_c, 1, 50, 127
1, 30239, Note_off_c, 1, 78, 0
1, 30239, Note_off_c, 1, 69, 0
1, 30239, Note_off_c, 1, 62, 0
1, 30239, Note_off_c, 1, 50, 0
1, 30240, Note_on_c, 1, 69, 127
1, 30240, Note_on_c, 1, 76, 127
1, 30240, Note_on_c, 1, 61, 127
1, 30240, Note_on_c, 1, 57, 127
1, 30270, Note_on_c, 1, 73, 127
1, 30270, Note_on_c, 1, 81, 127
1, 30270, Note_on_c, 1, 45, 127
1, 30299, Note_off_c, 1, 73, 0
1, 30299, Note_off_c, 1, 81, 0
1, 30299, Note_off_c, 1, 45, 0
1, 30300, Note_on_c, 1, 74, 127
1, 30300, Note_on_c, 1, 79, 127
1, 30300, Note_on_c, 1, 47, 127
1, 30329, Note_off_c, 1, 74, 0
1, 30329, Note_off_c, 1, 79, 0
1, 30329, Note_off_c, 1, 47, 0
1, 30330, Note_on_c, 1, 78, 127
1, 30330, Note_on_c, 1, 49, 127
1, 30359, Note_off_c, 1, 69, 0
1, 30359, Note_off_c, 1, 76, 0
1, 30359, Note_off_c, 1, 61, 0
1, 30359, Note_off_c, 1, 57, 0
1, 30359, Note_off_c, 1, 78, 0
1, 30359, Note_off_c, 1, 49, 0
1, 30360, Note_on_c, 1, 57, 127
1, 30360, Note_on_c, 1, 69, 127
1, 30360, Note_on_c, 1, 78, 127
1, 30360, Note_on_c, 1, 76, 127
1, 30360, Note_on_c, 1, 50, 127
1, 30389, Note_off_c, 1, 78, 0
1, 30389, Note_off_c, 1, 76, 0
1, 30389, Note_off_c, 1, 50, 0
1, 30390, Note_on_c, 1, 79, 127
1, 30390, Note_on_c, 1, 74, 127
1, 30390, Note_on_c, 1, 71, 127
1, 30390, Note_on_c, 1, 52, 127
1, 30419, Note_off_c, 1, 57, 0
1, 30419, Note_off_c, 1, 69, 0
1, 30419, Note_off_c, 1, 79, 0
1, 30419, Note_off_c, 1, 74, 0
1, 30419, Note_off_c, 1, 71, 0
1, 30419, Note_off_c, 1, 52, 0
1, 30420, Note_on_c, 1, 57, 127
1, 30420, Note_on_c, 1, 81, 127
1, 30420, Note_on_c, 1, 73, 127
1, 30420, Note_on_c, 1, 69, 127
1, 30420, Note_on_c, 1, 54, 127
1, 30449, Note_off_c, 1, 81, 0
1, 30449, Note_off_c, 1, 73, 0
1, 30449, Note_off_c, 1, 69, 0
1, 30449, Note_off_c, 1, 54, 0
1, 30450, Note_on_c, 1, 83, 127
1, 30450, Note_on_c, 1, 71, 127
1, 30450, Note_on_c, 1, 67, 127
1, 30450, Note_on_c, 1, 55, 127
1, 30479, Note_off_c, 1, 57, 0
1, 30479, Note_off_c, 1, 83, 0
1, 30479, Note_off_c, 1, 71, 0
1, 30479, Note_off_c, 1, 67, 0
1, 30479, Note_off_c, 1, 55, 0
1, 30480, Note_on_c, 1, 57, 127
1, 30480, Note_on_c, 1, 85, 127
1, 30480, Note_on_c, 1, 69, 127
1, 30480, Note_on_c, 1, 66, 127
1, 30509, Note_off_c, 1, 85, 0
1, 30509, Note_off_c, 1, 66, 0
1, 30510, Note_on_c, 1, 86, 127
1, 30510, Note_on_c, 1, 64, 127
1, 30510, Note_on_c, 1, 59, 127
1, 30539, Note_off_c, 1, 57, 0
1, 30539, Note_off_c, 1, 69, 0
1, 30539, Note_off_c, 1, 86, 0
1, 30539, Note_off_c, 1, 64, 0
1, 30539, Note_off_c, 1, 59, 0
1, 30540, Note_on_c, 1, 57, 127
1, 30540, Note_on_c, 1, 88, 127
1, 30540, Note_on_c, 1, 62, 127
1, 30540, Note_on_c, 1, 61, 127
1, 30569, Note_off_c, 1, 88, 0
1, 30569, Note_off_c, 1, 62, 0
1, 30569, Note_off_c, 1, 61, 0
1, 30570, Note_on_c, 1, 90, 127
1, 30599, Note_off_c, 1, 57, 0
1, 30599, Note_off_c, 1, 90, 0
1, 30600, Note_on_c, 1, 64, 127
1, 30600, Note_on_c, 1, 91, 127
1, 30600, Note_on_c, 1, 59, 127
1, 30629, Note_off_c, 1, 59, 0
1, 30630, Note_on_c, 1, 57, 127
1, 30659, Note_off_c, 1, 91, 0
1, 30659, Note_off_c, 1, 57, 0
1, 30660, Note_on_c, 1, 55, 127
1, 30660, Note_on_c, 1, 40, 127
1, 30689, Note_off_c, 1, 55, 0
1, 30719, Note_off_c, 1, 40, 0
1, 30779, Note_off_c, 1, 64, 0
1, 30780, Note_on_c, 1, 71, 127
1, 30780, Note_on_c, 1, 67, 127
1, 30780, Note_on_c, 1, 64, 127
1, 30780, Note_on_c, 1, 52, 127
1, 30839, Note_off_c, 1, 71, 0
1, 30839, Note_off_c, 1, 67, 0
1, 30839, Note_off_c, 1, 64, 0
1, 30839, Note_off_c, 1, 52, 0
1, 30840, Note_on_c, 1, 76, 127
1, 30840, Note_on_c, 1, 71, 127
1, 30840, Note_on_c, 1, 64, 127
1, 30840, Note_on_c, 1, 55, 127
1, 30899, Note_off_c, 1, 76, 0
1, 30899, Note_off_c, 1, 71, 0
1, 30899, Note_off_c, 1, 64, 0
1, 30899, Note_off_c, 1, 55, 0
1, 30900, Note_on_c, 1, 78, 127
1, 30900, Note_on_c, 1, 70, 127
1, 30900, Note_on_c, 1, 64, 127
1, 30900, Note_on_c, 1, 54, 127
1, 30929, Note_off_c, 1, 78, 0
1, 30929, Note_off_c, 1, 70, 0
1, 30929, Note_off_c, 1, 64, 0
1, 30929, Note_off_c, 1, 54, 0
1, 30930, Note_on_c, 1, 79, 127
1, 30930, Note_on_c, 1, 71, 127
1, 30930, Note_on_c, 1, 64, 127
1, 30930, Note_on_c, 1, 52, 127
1, 30959, Note_off_c, 1, 79, 0
1, 30959, Note_off_c, 1, 71, 0
1, 30959, Note_off_c, 1, 64, 0
1, 30959, Note_off_c, 1, 52, 0
1, 30960, Note_on_c, 1, 66, 127
1, 30960, Note_on_c, 1, 78, 127
1, 30960, Note_on_c, 1, 73, 127
1, 30960, Note_on_c, 1, 64, 127
1, 30960, Note_on_c, 1, 58, 127
1, 30990, Note_on_c, 1, 79, 127
1, 30990, Note_on_c, 1, 74, 127
1, 30990, Note_on_c, 1, 71, 127
1, 30990, Note_on_c, 1, 59, 127
1, 31019, Note_off_c, 1, 66, 0
1, 31019, Note_off_c, 1, 79, 0
1, 31019, Note_off_c, 1, 74, 0
1, 31019, Note_off_c, 1, 71, 0
1, 31019, Note_off_c, 1, 59, 0
1, 31020, Note_on_c, 1, 54, 127
1, 31020, Note_on_c, 1, 70, 127
1, 31049, Note_off_c, 1, 70, 0
1, 31050, Note_on_c, 1, 76, 127
1, 31050, Note_on_c, 1, 68, 127
1, 31050, Note_on_c, 1, 56, 127
1, 31079, Note_off_c, 1, 78, 0
1, 31079, Note_off_c, 1, 73, 0
1, 31079, Note_off_c, 1, 64, 0
1, 31079, Note_off_c, 1, 58, 0
1, 31079, Note_off_c, 1, 54, 0
1, 31079, Note_off_c, 1, 76, 0
1, 31079, Note_off_c, 1, 68, 0
1, 31079, Note_off_c, 1, 56, 0
1, 31080, Note_on_c, 1, 54, 127
1, 31080, Note_on_c, 1, 62, 127
1, 31080, Note_on_c, 1, 74, 127
1, 31080, Note_on_c, 1, 70, 127
1, 31080, Note_on_c, 1, 66, 127
1, 31109, Note_off_c, 1, 74, 0
1, 31109, Note_off_c, 1, 70, 0
1, 31109, Note_off_c, 1, 66, 0
1, 31110, Note_on_c, 1, 73, 127
1, 31110, Note_on_c, 1, 67, 127
1, 31110, Note_on_c, 1, 64, 127
1, 31110, Note_on_c, 1, 52, 127
1, 31139, Note_off_c, 1, 54, 0
1, 31139, Note_off_c, 1, 62, 0
1, 31139, Note_off_c, 1, 73, 0
1, 31139, Note_off_c, 1, 67, 0
1, 31139, Note_off_c, 1, 64, 0
1, 31139, Note_off_c, 1, 52, 0
1, 31140, Note_on_c, 1, 54, 127
1, 31140, Note_on_c, 1, 71, 127
1, 31140, Note_on_c, 1, 66, 127
1, 31140, Note_on_c, 1, 62, 127
1, 31140, Note_on_c, 1, 73, 127
1, 31140, Note_on_c, 1, 70, 127
1, 31140, Note_on_c, 1, 64, 127
1, 31140, Note_on_c, 1, 50, 127
1, 31169, Note_off_c, 1, 71, 0
1, 31169, Note_off_c, 1, 66, 0
1, 31169, Note_off_c, 1, 62, 0
1, 31169, Note_off_c, 1, 50, 0
1, 31170, Note_on_c, 1, 61, 127
1, 31170, Note_on_c, 1, 49, 127
1, 31199, Note_off_c, 1, 54, 0
1, 31199, Note_off_c, 1, 73, 0
1, 31199, Note_off_c, 1, 70, 0
1, 31199, Note_off_c, 1, 64, 0
1, 31199, Note_off_c, 1, 61, 0
1, 31199, Note_off_c, 1, 49, 0
1, 31200, Note_on_c, 1, 54, 127
1, 31200, Note_on_c, 1, 71, 127
1, 31200, Note_on_c, 1, 62, 127
1, 31200, Note_on_c, 1, 59, 127
1, 31200, Note_on_c, 1, 74, 127
1, 31200, Note_on_c, 1, 47, 127
1, 31229, Note_off_c, 1, 47, 0
1, 31230, Note_on_c, 1, 45, 127
1, 31259, Note_off_c, 1, 54, 0
1, 31259, Note_off_c, 1, 71, 0
1, 31259, Note_off_c, 1, 62, 0
1, 31259, Note_off_c, 1, 59, 0
1, 31259, Note_off_c, 1, 74, 0
1, 31259, Note_off_c, 1, 45, 0
1, 31260, Note_on_c, 1, 54, 127
1, 31260, Note_on_c, 1, 73, 127
1, 31260, Note_on_c, 1, 70, 127
1, 31260, Note_on_c, 1, 64, 127
1, 31260, Note_on_c, 1, 61, 127
1, 31260, Note_on_c, 1, 43, 127
1, 31289, Note_off_c, 1, 73, 0
1, 31289, Note_off_c, 1, 70, 0
1, 31289, Note_off_c, 1, 64, 0
1, 31289, Note_off_c, 1, 61, 0
1, 31289, Note_off_c, 1, 43, 0
1, 31290, Note_on_c, 1, 71, 127
1, 31290, Note_on_c, 1, 66, 127
1, 31290, Note_on_c, 1, 62, 127
1, 31290, Note_on_c, 1, 42, 127
1, 31319, Note_off_c, 1, 54, 0
1, 31319, Note_off_c, 1, 71, 0
1, 31319, Note_off_c, 1, 66, 0
1, 31319, Note_off_c, 1, 62, 0
1, 31319, Note_off_c, 1, 42, 0
1, 31320, Note_on_c, 1, 79, 127
1, 31320, Note_on_c, 1, 71, 127
1, 31320, Note_on_c, 1, 64, 127
1, 31320, Note_on_c, 1, 40, 127
1, 31379, Note_off_c, 1, 79, 0
1, 31379, Note_off_c, 1, 71, 0
1, 31379, Note_off_c, 1, 40, 0
1, 31380, Note_on_c, 1, 78, 127
1, 31380, Note_on_c, 1, 69, 127
1, 31380, Note_on_c, 1, 59, 127
1, 31380, Note_on_c, 1, 52, 127
1, 31439, Note_off_c, 1, 64, 0
1, 31439, Note_off_c, 1, 78, 0
1, 31439, Note_off_c, 1, 69, 0
1, 31439, Note_off_c, 1, 59, 0
1, 31439, Note_off_c, 1, 52, 0
1, 31440, Note_on_c, 1, 76, 127
1, 31440, Note_on_c, 1, 67, 127
1, 31440, Note_on_c, 1, 59, 127
1, 31440, Note_on_c, 1, 52, 127
1, 31499, Note_off_c, 1, 76, 0
1, 31499, Note_off_c, 1, 67, 0
1, 31499, Note_off_c, 1, 59, 0
1, 31499, Note_off_c, 1, 52, 0
1, 31500, Note_on_c, 1, 74, 127
1, 31500, Note_on_c, 1, 66, 127
1, 31500, Note_on_c, 1, 59, 127
1, 31500, Note_on_c, 1, 54, 127
1, 31559, Note_off_c, 1, 74, 0
1, 31559, Note_off_c, 1, 66, 0
1, 31559, Note_off_c, 1, 59, 0
1, 31559, Note_off_c, 1, 54, 0
1, 31560, Note_on_c, 1, 73, 127
1, 31560, Note_on_c, 1, 64, 127
1, 31560, Note_on_c, 1, 58, 127
1, 31560, Note_on_c, 1, 55, 127
1, 31619, Note_off_c, 1, 73, 0
1, 31619, Note_off_c, 1, 64, 0
1, 31619, Note_off_c, 1, 58, 0
1, 31619, Note_off_c, 1, 55, 0
1, 31620, Note_on_c, 1, 74, 127
1, 31620, Note_on_c, 1, 66, 127
1, 31620, Note_on_c, 1, 59, 127
1, 31620, Note_on_c, 1, 54, 127
1, 31649, Note_off_c, 1, 74, 0
1, 31649, Note_off_c, 1, 66, 0
1, 31649, Note_off_c, 1, 59, 0
1, 31649, Note_off_c, 1, 54, 0
1, 31650, Note_on_c, 1, 71, 127
1, 31650, Note_on_c, 1, 67, 127
1, 31650, Note_on_c, 1, 55, 127
1, 31650, Note_on_c, 1, 52, 127
1, 31679, Note_off_c, 1, 71, 0
1, 31679, Note_off_c, 1, 67, 0
1, 31679, Note_off_c, 1, 55, 0
1, 31679, Note_off_c, 1, 52, 0
1, 31680, Note_on_c, 1, 70, 127
1, 31680, Note_on_c, 1, 61, 127
1, 31680, Note_on_c, 1, 54, 127
1, 31739, Note_off_c, 1, 70, 0
1, 31740, Note_on_c, 1, 66, 127
1, 31740, Note_on_c, 1, 58, 127
1, 31740, Note_on_c, 1, 68, 127
1, 31740, Note_on_c, 1, 56, 127
1, 31740, Note_on_c, 1, 42, 127
1, 31769, Note_off_c, 1, 66, 0
1, 31770, Note_on_c, 1, 71, 127
1, 31799, Note_off_c, 1, 61, 0
1, 31799, Note_off_c, 1, 54, 0
1, 31799, Note_off_c, 1, 58, 0
1, 31799, Note_off_c, 1, 68, 0
1, 31799, Note_off_c, 1, 56, 0
1, 31799, Note_off_c, 1, 42, 0
1, 31799, Note_off_c, 1, 71, 0
1, 31800, Note_on_c, 1, 66, 127
1, 31800, Note_on_c, 1, 73, 127
1, 31800, Note_on_c, 1, 70, 127
1, 31800, Note_on_c, 1, 61, 127
1, 31800, Note_on_c, 1, 58, 127
1, 31800, Note_on_c, 1, 42, 127
1, 31829, Note_off_c, 1, 73, 0
1, 31829, Note_off_c, 1, 70, 0
1, 31830, Note_on_c, 1, 74, 127
1, 31830, Note_on_c, 1, 71, 127
1, 31859, Note_off_c, 1, 66, 0
1, 31859, Note_off_c, 1, 61, 0
1, 31859, Note_off_c, 1, 58, 0
1, 31859, Note_off_c, 1, 42, 0
1, 31859, Note_off_c, 1, 74, 0
1, 31859, Note_off_c, 1, 71, 0
1, 31860, Note_on_c, 1, 54, 127
1, 31860, Note_on_c, 1, 76, 127
1, 31860, Note_on_c, 1, 73, 127
1, 31860, Note_on_c, 1, 61, 127
1, 31860, Note_on_c, 1, 58, 127
1, 31860, Note_on_c, 1, 42, 127
1, 31889, Note_off_c, 1, 76, 0
1, 31889, Note_off_c, 1, 73, 0
1, 31890, Note_on_c, 1, 78, 127
1, 31890, Note_on_c, 1, 74, 127
1, 31919, Note_off_c, 1, 54, 0
1, 31919, Note_off_c, 1, 61, 0
1, 31919, Note_off_c, 1, 58, 0
1, 31919, Note_off_c, 1, 42, 0
1, 31919, Note_off_c, 1, 78, 0
1, 31919, Note_off_c, 1, 74, 0
1, 31920, Note_on_c, 1, 54, 127
1, 31920, Note_on_c, 1, 66, 127
1, 31920, Note_on_c, 1, 79, 127
1, 31920, Note_on_c, 1, 76, 127
1, 31920, Note_on_c, 1, 61, 127
1, 31920, Note_on_c, 1, 58, 127
1, 31920, Note_on_c, 1, 42, 127
1, 31949, Note_off_c, 1, 79, 0
1, 31949, Note_off_c, 1, 76, 0
1, 31950, Note_on_c, 1, 78, 127
1, 31950, Note_on_c, 1, 74, 127
1, 31979, Note_off_c, 1, 54, 0
1, 31979, Note_off_c, 1, 66, 0
1, 31979, Note_off_c, 1, 61, 0
1, 31979, Note_off_c, 1, 58, 0
1, 31979, Note_off_c, 1, 42, 0
1, 31979, Note_off_c, 1, 78, 0
1, 31979, Note_off_c, 1, 74, 0
1, 31980, Note_on_c, 1, 54, 127
1, 31980, Note_on_c, 1, 79, 127
1, 31980, Note_on_c, 1, 76, 127
1, 31980, Note_on_c, 1, 61, 127
1, 31980, Note_on_c, 1, 58, 127
1, 31980, Note_on_c, 1, 42, 127
1, 32009, Note_off_c, 1, 79, 0
1, 32009, Note_off_c, 1, 76, 0
1, 32009, Note_off_c, 1, 61, 0
1, 32009, Note_off_c, 1, 58, 0
1, 32010, Note_on_c, 1, 78, 127
1, 32010, Note_on_c, 1, 74, 127
1, 32010, Note_on_c, 1, 62, 127
1, 32010, Note_on_c, 1, 59, 127
1, 32039, Note_off_c, 1, 54, 0
1, 32039, Note_off_c, 1, 42, 0
1, 32039, Note_off_c, 1, 78, 0
1, 32039, Note_off_c, 1, 74, 0
1, 32039, Note_off_c, 1, 62, 0
1, 32039, Note_off_c, 1, 59, 0
1, 32040, Note_on_c, 1, 54, 127
1, 32040, Note_on_c, 1, 76, 127
1, 32040, Note_on_c, 1, 73, 127
1, 32040, Note_on_c, 1, 64, 127
1, 32040, Note_on_c, 1, 61, 127
1, 32069, Note_off_c, 1, 76, 0
1, 32069, Note_off_c, 1, 73, 0
1, 32070, Note_on_c, 1, 74, 127
1, 32070, Note_on_c, 1, 71, 127
1, 32099, Note_off_c, 1, 54, 0
1, 32099, Note_off_c, 1, 64, 0
1, 32099, Note_off_c, 1, 61, 0
1, 32099, Note_off_c, 1, 74, 0
1, 32099, Note_off_c, 1, 71, 0
1, 32100, Note_on_c, 1, 54, 127
1, 32100, Note_on_c, 1, 73, 127
1, 32100, Note_on_c, 1, 70, 127
1, 32100, Note_on_c, 1, 67, 127
1, 32100, Note_on_c, 1, 64, 127
1, 32100, Note_on_c, 1, 42, 127
1, 32129, Note_off_c, 1, 73, 0
1, 32129, Note_off_c, 1, 70, 0
1, 32129, Note_off_c, 1, 67, 0
1, 32129, Note_off_c, 1, 64, 0
1, 32130, Note_on_c, 1, 74, 127
1, 32130, Note_on_c, 1, 71, 127
1, 32130, Note_on_c, 1, 66, 127
1, 32130, Note_on_c, 1, 62, 127
1, 32159, Note_off_c, 1, 54, 0
1, 32159, Note_off_c, 1, 42, 0
1, 32159, Note_off_c, 1, 74, 0
1, 32159, Note_off_c, 1, 71, 0
1, 32159, Note_off_c, 1, 66, 0
1, 32159, Note_off_c, 1, 62, 0
1, 32160, Note_on_c, 1, 66, 127
1, 32160, Note_on_c, 1, 54, 127
1, 32160, Note_on_c, 1, 76, 127
1, 32160, Note_on_c, 1, 73, 127
1, 32160, Note_on_c, 1, 64, 127
1, 32160, Note_on_c, 1, 61, 127
1, 32160, Note_on_c, 1, 42, 127
1, 32189, Note_off_c, 1, 76, 0
1, 32189, Note_off_c, 1, 73, 0
1, 32190, Note_on_c, 1, 74, 127
1, 32190, Note_on_c, 1, 71, 127
1, 32219, Note_off_c, 1, 66, 0
1, 32219, Note_off_c, 1, 54, 0
1, 32219, Note_off_c, 1, 64, 0
1, 32219, Note_off_c, 1, 61, 0
1, 32219, Note_off_c, 1, 42, 0
1, 32219, Note_off_c, 1, 74, 0
1, 32219, Note_off_c, 1, 71, 0
1, 32220, Note_on_c, 1, 54, 127
1, 32220, Note_on_c, 1, 73, 127
1, 32220, Note_on_c, 1, 70, 127
1, 32220, Note_on_c, 1, 67, 127
1, 32220, Note_on_c, 1, 64, 127
1, 32220, Note_on_c, 1, 42, 127
1, 32249, Note_off_c, 1, 73, 0
1, 32249, Note_off_c, 1, 70, 0
1, 32249, Note_off_c, 1, 67, 0
1, 32249, Note_off_c, 1, 64, 0
1, 32250, Note_on_c, 1, 74, 127
1, 32250, Note_on_c, 1, 71, 127
1, 32250, Note_on_c, 1, 66, 127
1, 32250, Note_on_c, 1, 62, 127
1, 32279, Note_off_c, 1, 54, 0
1, 32279, Note_off_c, 1, 42, 0
1, 32279, Note_off_c, 1, 74, 0
1, 32279, Note_off_c, 1, 71, 0
1, 32279, Note_off_c, 1, 66, 0
1, 32279, Note_off_c, 1, 62, 0
1, 32280, Note_on_c, 1, 54, 127
1, 32280, Note_on_c, 1, 66, 127
1, 32280, Note_on_c, 1, 76, 127
1, 32280, Note_on_c, 1, 73, 127
1, 32280, Note_on_c, 1, 64, 127
1, 32280, Note_on_c, 1, 61, 127
1, 32280, Note_on_c, 1, 42, 127
1, 32309, Note_off_c, 1, 76, 0
1, 32309, Note_off_c, 1, 73, 0
1, 32310, Note_on_c, 1, 74, 127
1, 32310, Note_on_c, 1, 71, 127
1, 32339, Note_off_c, 1, 54, 0
1, 32339, Note_off_c, 1, 66, 0
1, 32339, Note_off_c, 1, 64, 0
1, 32339, Note_off_c, 1, 61, 0
1, 32339, Note_off_c, 1, 42, 0
1, 32339, Note_off_c, 1, 74, 0
1, 32339, Note_off_c, 1, 71, 0
1, 32340, Note_on_c, 1, 54, 127
1, 32340, Note_on_c, 1, 73, 127
1, 32340, Note_on_c, 1, 70, 127
1, 32340, Note_on_c, 1, 64, 127
1, 32340, Note_on_c, 1, 61, 127
1, 32340, Note_on_c, 1, 42, 127
1, 32369, Note_off_c, 1, 73, 0
1, 32369, Note_off_c, 1, 70, 0
1, 32370, Note_on_c, 1, 71, 127
1, 32370, Note_on_c, 1, 68, 127
1, 32399, Note_off_c, 1, 54, 0
1, 32399, Note_off_c, 1, 64, 0
1, 32399, Note_off_c, 1, 61, 0
1, 32399, Note_off_c, 1, 42, 0
1, 32399, Note_off_c, 1, 71, 0
1, 32399, Note_off_c, 1, 68, 0
1, 32400, Note_on_c, 1, 54, 127
1, 32400, Note_on_c, 1, 73, 127
1, 32400, Note_on_c, 1, 70, 127
1, 32400, Note_on_c, 1, 64, 127
1, 32400, Note_on_c, 1, 61, 127
1, 32400, Note_on_c, 1, 42, 127
1, 32429, Note_off_c, 1, 73, 0
1, 32429, Note_off_c, 1, 70, 0
1, 32429, Note_off_c, 1, 42, 0
1, 32430, Note_on_c, 1, 66, 127
1, 32430, Note_on_c, 1, 58, 127
1, 32459, Note_off_c, 1, 54, 0
1, 32459, Note_off_c, 1, 66, 0
1, 32459, Note_off_c, 1, 58, 0
1, 32460, Note_on_c, 1, 68, 127
1, 32460, Note_on_c, 1, 59, 127
1, 32489, Note_off_c, 1, 68, 0
1, 32489, Note_off_c, 1, 59, 0
1, 32490, Note_on_c, 1, 62, 127
1, 32519, Note_off_c, 1, 64, 0
1, 32519, Note_off_c, 1, 61, 0
1, 32519, Note_off_c, 1, 62, 0
1, 32520, Note_on_c, 1, 66, 127
1, 32520, Note_on_c, 1, 54, 127
1, 32520, Note_on_c, 1, 71, 127
1, 32520, Note_on_c, 1, 62, 127
1, 32520, Note_on_c, 1, 61, 127
1, 32549, Note_off_c, 1, 71, 0
1, 32549, Note_off_c, 1, 62, 0
1, 32549, Note_off_c, 1, 61, 0
1, 32550, Note_on_c, 1, 73, 127
1, 32550, Note_on_c, 1, 64, 127
1, 32550, Note_on_c, 1, 59, 127
1, 32579, Note_off_c, 1, 66, 0
1, 32579, Note_off_c, 1, 54, 0
1, 32579, Note_off_c, 1, 73, 0
1, 32579, Note_off_c, 1, 64, 0
1, 32579, Note_off_c, 1, 59, 0
1, 32580, Note_on_c, 1, 54, 127
1, 32580, Note_on_c, 1, 74, 127
1, 32580, Note_on_c, 1, 75, 127
1, 32580, Note_on_c, 1, 61, 127
1, 32580, Note_on_c, 1, 66, 127
1, 32580, Note_on_c, 1, 58, 127
1, 32609, Note_off_c, 1, 74, 0
1, 32609, Note_off_c, 1, 75, 0
1, 32609, Note_off_c, 1, 61, 0
1, 32610, Note_on_c, 1, 76, 127
1, 32610, Note_on_c, 1, 59, 127
1, 32610, Note_on_c, 1, 67, 127
1, 32610, Note_on_c, 1, 56, 127
1, 32639, Note_off_c, 1, 54, 0
1, 32639, Note_off_c, 1, 66, 0
1, 32639, Note_off_c, 1, 58, 0
1, 32639, Note_off_c, 1, 76, 0
1, 32639, Note_off_c, 1, 59, 0
1, 32639, Note_off_c, 1, 67, 0
1, 32639, Note_off_c, 1, 56, 0
1, 32640, Note_on_c, 1, 54, 127
1, 32640, Note_on_c, 1, 66, 127
1, 32640, Note_on_c, 1, 78, 127
1, 32640, Note_on_c, 1, 58, 127
1, 32640, Note_on_c, 1, 61, 127
1, 32640, Note_on_c, 1, 73, 127
1, 32669, Note_off_c, 1, 78, 0
1, 32670, Note_on_c, 1, 79, 127
1, 32670, Note_on_c, 1, 59, 127
1, 32670, Note_on_c, 1, 52, 127
1, 32699, Note_off_c, 1, 54, 0
1, 32699, Note_off_c, 1, 66, 0
1, 32699, Note_off_c, 1, 58, 0
1, 32699, Note_off_c, 1, 61, 0
1, 32699, Note_off_c, 1, 73, 0
1, 32699, Note_off_c, 1, 79, 0
1, 32699, Note_off_c, 1, 59, 0
1, 32699, Note_off_c, 1, 52, 0
1, 32700, Note_on_c, 1, 54, 127
1, 32700, Note_on_c, 1, 76, 127
1, 32700, Note_on_c, 1, 56, 127
1, 32700, Note_on_c, 1, 66, 127
1, 32700, Note_on_c, 1, 71, 127
1, 32700, Note_on_c, 1, 50, 127
1, 32729, Note_off_c, 1, 76, 0
1, 32729, Note_off_c, 1, 56, 0
1, 32729, Note_off_c, 1, 71, 0
1, 32729, Note_off_c, 1, 50, 0
1, 32730, Note_on_c, 1, 78, 127
1, 32730, Note_on_c, 1, 58, 127
1, 32730, Note_on_c, 1, 73, 127
1, 32730, Note_on_c, 1, 49, 127
1, 32759, Note_off_c, 1, 54, 0
1, 32759, Note_off_c, 1, 66, 0
1, 32759, Note_off_c, 1, 78, 0
1, 32759, Note_off_c, 1, 58, 0
1, 32759, Note_off_c, 1, 73, 0
1, 32759, Note_off_c, 1, 49, 0
1, 32760, Note_on_c, 1, 54, 127
1, 32760, Note_on_c, 1, 74, 127
1, 32760, Note_on_c, 1, 59, 127
1, 32760, Note_on_c, 1, 66, 127
1, 32760, Note_on_c, 1, 71, 127
1, 32760, Note_on_c, 1, 47, 127
1, 32790, Note_on_c, 1, 73, 127
1, 32819, Note_off_c, 1, 73, 0
1, 32820, Note_on_c, 1, 62, 127
1, 32849, Note_off_c, 1, 62, 0
1, 32850, Note_on_c, 1, 64, 127
1, 32879, Note_off_c, 1, 54, 0
1, 32879, Note_off_c, 1, 74, 0
1, 32879, Note_off_c, 1, 59, 0
1, 32879, Note_off_c, 1, 66, 0
1, 32879, Note_off_c, 1, 71, 0
1, 32879, Note_off_c, 1, 47, 0
1, 32879, Note_off_c, 1, 64, 0
1, 32880, Note_on_c, 1, 74, 127
1, 32880, Note_on_c, 1, 66, 127
1, 32880, Note_on_c, 1, 59, 127
1, 32880, Note_on_c, 1, 71, 127
1, 32909, Note_off_c, 1, 74, 0
1, 32909, Note_off_c, 1, 66, 0
1, 32910, Note_on_c, 1, 76, 127
1, 32910, Note_on_c, 1, 67, 127
1, 32939, Note_off_c, 1, 59, 0
1, 32939, Note_off_c, 1, 71, 0
1, 32939, Note_off_c, 1, 76, 0
1, 32939, Note_off_c, 1, 67, 0
1, 32940, Note_on_c, 1, 78, 127
1, 32940, Note_on_c, 1, 69, 127
1, 32940, Note_on_c, 1, 59, 127
1, 32940, Note_on_c, 1, 66, 127
1, 32940, Note_on_c, 1, 62, 127
1, 32969, Note_off_c, 1, 78, 0
1, 32969, Note_off_c, 1, 69, 0
1, 32970, Note_on_c, 1, 79, 127
1, 32970, Note_on_c, 1, 71, 127
1, 32999, Note_off_c, 1, 59, 0
1, 32999, Note_off_c, 1, 66, 0
1, 32999, Note_off_c, 1, 62, 0
1, 32999, Note_off_c, 1, 79, 0
1, 32999, Note_off_c, 1, 71, 0
1, 33000, Note_on_c, 1, 81, 127
1, 33000, Note_on_c, 1, 72, 127
1, 33000, Note_on_c, 1, 59, 127
1, 33000, Note_on_c, 1, 71, 127
1, 33000, Note_on_c, 1, 66, 127
1, 33000, Note_on_c, 1, 63, 127
1, 33029, Note_off_c, 1, 81, 0
1, 33029, Note_off_c, 1, 72, 0
1, 33030, Note_on_c, 1, 79, 127
1, 33059, Note_off_c, 1, 59, 0
1, 33059, Note_off_c, 1, 71, 0
1, 33059, Note_off_c, 1, 66, 0
1, 33059, Note_off_c, 1, 63, 0
1, 33059, Note_off_c, 1, 79, 0
1, 33060, Note_on_c, 1, 81, 127
1, 33060, Note_on_c, 1, 72, 127
1, 33060, Note_on_c, 1, 59, 127
1, 33060, Note_on_c, 1, 66, 127
1, 33060, Note_on_c, 1, 63, 127
1, 33089, Note_off_c, 1, 81, 0
1, 33089, Note_off_c, 1, 72, 0
1, 33089, Note_off_c, 1, 66, 0
1, 33089, Note_off_c, 1, 63, 0
1, 33090, Note_on_c, 1, 79, 127
1, 33090, Note_on_c, 1, 71, 127
1, 33090, Note_on_c, 1, 67, 127
1, 33090, Note_on_c, 1, 64, 127
1, 33119, Note_off_c, 1, 59, 0
1, 33119, Note_off_c, 1, 79, 0
1, 33119, Note_off_c, 1, 71, 0
1, 33119, Note_off_c, 1, 67, 0
1, 33119, Note_off_c, 1, 64, 0
1, 33120, Note_on_c, 1, 78, 127
1, 33120, Note_on_c, 1, 69, 127
1, 33120, Note_on_c, 1, 71, 127
1, 33120, Note_on_c, 1, 59, 127
1, 33120, Note_on_c, 1, 66, 127
1, 33120, Note_on_c, 1, 63, 127
1, 33149, Note_off_c, 1, 78, 0
1, 33150, Note_on_c, 1, 76, 127
1, 33150, Note_on_c, 1, 67, 127
1, 33179, Note_off_c, 1, 69, 0
1, 33179, Note_off_c, 1, 71, 0
1, 33179, Note_off_c, 1, 66, 0
1, 33179, Note_off_c, 1, 76, 0
1, 33179, Note_off_c, 1, 67, 0
1, 33180, Note_on_c, 1, 75, 127
1, 33180, Note_on_c, 1, 72, 127
1, 33209, Note_off_c, 1, 75, 0
1, 33209, Note_off_c, 1, 72, 0
1, 33239, Note_off_c, 1, 59, 0
1, 33239, Note_off_c, 1, 63, 0
1, 33240, Note_on_c, 1, 78, 127
1, 33240, Note_on_c, 1, 69, 127
1, 33240, Note_on_c, 1, 59, 127
1, 33240, Note_on_c, 1, 71, 127
1, 33240, Note_on_c, 1, 66, 127
1, 33240, Note_on_c, 1, 63, 127
1, 33240, Note_on_c, 1, 47, 127
1, 33269, Note_off_c, 1, 78, 0
1, 33270, Note_on_c, 1, 76, 127
1, 33270, Note_on_c, 1, 67, 127
1, 33299, Note_off_c, 1, 69, 0
1, 33299, Note_off_c, 1, 59, 0
1, 33299, Note_off_c, 1, 71, 0
1, 33299, Note_off_c, 1, 66, 0
1, 33299, Note_off_c, 1, 63, 0
1, 33299, Note_off_c, 1, 47, 0
1, 33299, Note_off_c, 1, 76, 0
1, 33299, Note_off_c, 1, 67, 0
1, 33300, Note_on_c, 1, 75, 127
1, 33300, Note_on_c, 1, 66, 127
1, 33300, Note_on_c, 1, 59, 127
1, 33300, Note_on_c, 1, 72, 127
1, 33300, Note_on_c, 1, 69, 127
1, 33300, Note_on_c, 1, 51, 127
1, 33300, Note_on_c, 1, 47, 127
1, 33329, Note_off_c, 1, 75, 0
1, 33329, Note_off_c, 1, 66, 0
1, 33329, Note_off_c, 1, 72, 0
1, 33329, Note_off_c, 1, 69, 0
1, 33330, Note_on_c, 1, 76, 127
1, 33330, Note_on_c, 1, 67, 127
1, 33330, Note_on_c, 1, 71, 127
1, 33359, Note_off_c, 1, 59, 0
1, 33359, Note_off_c, 1, 51, 0
1, 33359, Note_off_c, 1, 47, 0
1, 33359, Note_off_c, 1, 76, 0
1, 33359, Note_off_c, 1, 67, 0
1, 33359, Note_off_c, 1, 71, 0
1, 33360, Note_on_c, 1, 78, 127
1, 33360, Note_on_c, 1, 69, 127
1, 33360, Note_on_c, 1, 59, 127
1, 33360, Note_on_c, 1, 71, 127
1, 33360, Note_on_c, 1, 66, 127
1, 33360, Note_on_c, 1, 51, 127
1, 33360, Note_on_c, 1, 47, 127
1, 33389, Note_off_c, 1, 78, 0
1, 33390, Note_on_c, 1, 76, 127
1, 33390, Note_on_c, 1, 67, 127
1, 33419, Note_off_c, 1, 69, 0
1, 33419, Note_off_c, 1, 59, 0
1, 33419, Note_off_c, 1, 71, 0
1, 33419, Note_off_c, 1, 66, 0
1, 33419, Note_off_c, 1, 51, 0
1, 33419, Note_off_c, 1, 47, 0
1, 33419, Note_off_c, 1, 76, 0
1, 33419, Note_off_c, 1, 67, 0
1, 33420, Note_on_c, 1, 75, 127
1, 33420, Note_on_c, 1, 66, 127
1, 33420, Note_on_c, 1, 59, 127
1, 33420, Note_on_c, 1, 72, 127
1, 33420, Note_on_c, 1, 69, 127
1, 33420, Note_on_c, 1, 51, 127
1, 33420, Note_on_c, 1, 47, 127
1, 33449, Note_off_c, 1, 75, 0
1, 33449, Note_off_c, 1, 66, 0
1, 33449, Note_off_c, 1, 72, 0
1, 33449, Note_off_c, 1, 69, 0
1, 33449, Note_off_c, 1, 51, 0
1, 33449, Note_off_c, 1, 47, 0
1, 33450, Note_on_c, 1, 76, 127
1, 33450, Note_on_c, 1, 67, 127
1, 33450, Note_on_c, 1, 71, 127
1, 33479, Note_off_c, 1, 59, 0
1, 33479, Note_off_c, 1, 76, 0
1, 33479, Note_off_c, 1, 67, 0
1, 33479, Note_off_c, 1, 71, 0
1, 33480, Note_on_c, 1, 78, 127
1, 33480, Note_on_c, 1, 69, 127
1, 33480, Note_on_c, 1, 71, 127
1, 33480, Note_on_c, 1, 59, 127
1, 33480, Note_on_c, 1, 66, 127
1, 33480, Note_on_c, 1, 51, 127
1, 33480, Note_on_c, 1, 47, 127
1, 33509, Note_off_c, 1, 78, 0
1, 33509, Note_off_c, 1, 71, 0
1, 33509, Note_off_c, 1, 59, 0
1, 33510, Note_on_c, 1, 63, 127
1, 33539, Note_off_c, 1, 63, 0
1, 33540, Note_on_c, 1, 64, 127
1, 33540, Note_on_c, 1, 61, 127
1, 33540, Note_on_c, 1, 57, 127
1, 33569, Note_off_c, 1, 64, 0
1, 33569, Note_off_c, 1, 61, 0
1, 33569, Note_off_c, 1, 57, 0
1, 33570, Note_on_c, 1, 55, 127
1, 33599, Note_off_c, 1, 55, 0
1, 33600, Note_on_c, 1, 67, 127
1, 33600, Note_on_c, 1, 54, 127
1, 33629, Note_off_c, 1, 67, 0
1, 33629, Note_off_c, 1, 54, 0
1, 33630, Note_on_c, 1, 52, 127
1, 33659, Note_off_c, 1, 66, 0
1, 33659, Note_off_c, 1, 51, 0
1, 33659, Note_off_c, 1, 52, 0
1, 33690, Note_on_c, 1, 73, 127
1, 33690, Note_on_c, 1, 49, 127
1, 33719, Note_off_c, 1, 73, 0
1, 33719, Note_off_c, 1, 49, 0
1, 33720, Note_on_c, 1, 75, 127
1, 33749, Note_off_c, 1, 75, 0
1, 33750, Note_on_c, 1, 76, 127
1, 33750, Note_on_c, 1, 72, 127
1, 33750, Note_on_c, 1, 45, 127
1, 33779, Note_off_c, 1, 76, 0
1, 33779, Note_off_c, 1, 72, 0
1, 33779, Note_off_c, 1, 45, 0
1, 33780, Note_on_c, 1, 43, 127
1, 33809, Note_off_c, 1, 43, 0
1, 33810, Note_on_c, 1, 42, 127
1, 33839, Note_off_c, 1, 69, 0
1, 33839, Note_off_c, 1, 47, 0
1, 33839, Note_off_c, 1, 42, 0
1, 33840, Note_on_c, 1, 76, 127
1, 33840, Note_on_c, 1, 67, 127
1, 33840, Note_on_c, 1, 59, 127
1, 33840, Note_on_c, 1, 52, 127
1, 33840, Note_on_c, 1, 40, 127
1, 33870, Note_on_c, 1, 71, 127
1, 33899, Note_off_c, 1, 67, 0
1, 33899, Note_off_c, 1, 59, 0
1, 33899, Note_off_c, 1, 71, 0
1, 33900, Note_on_c, 1, 73, 127
1, 33900, Note_on_c, 1, 64, 127
1, 33929, Note_off_c, 1, 73, 0
1, 33930, Note_on_c, 1, 75, 127
1, 33959, Note_off_c, 1, 76, 0
1, 33959, Note_off_c, 1, 52, 0
1, 33959, Note_off_c, 1, 40, 0
1, 33959, Note_off_c, 1, 64, 0
1, 33959, Note_off_c, 1, 75, 0
1, 33960, Note_on_c, 1, 76, 127
1, 33960, Note_on_c, 1, 64, 127
1, 33960, Note_on_c, 1, 67, 127
1, 33990, Note_on_c, 1, 78, 127
1, 33990, Note_on_c, 1, 81, 127
1, 33990, Note_on_c, 1, 72, 127
1, 34019, Note_off_c, 1, 76, 0
1, 34019, Note_off_c, 1, 64, 0
1, 34019, Note_off_c, 1, 67, 0
1, 34019, Note_off_c, 1, 78, 0
1, 34019, Note_off_c, 1, 81, 0
1, 34019, Note_off_c, 1, 72, 0
1, 34020, Note_on_c, 1, 79, 127
1, 34020, Note_on_c, 1, 71, 127
1, 34020, Note_on_c, 1, 64, 127
1, 34020, Note_on_c, 1, 76, 127
1, 34020, Note_on_c, 1, 59, 127
1, 34049, Note_off_c, 1, 79, 0
1, 34049, Note_off_c, 1, 71, 0
1, 34049, Note_off_c, 1, 76, 0
1, 34050, Note_on_c, 1, 81, 127
1, 34050, Note_on_c, 1, 78, 127
1, 34050, Note_on_c, 1, 69, 127
1, 34079, Note_off_c, 1, 64, 0
1, 34079, Note_off_c, 1, 59, 0
1, 34079, Note_off_c, 1, 81, 0
1, 34079, Note_off_c, 1, 78, 0
1, 34079, Note_off_c, 1, 69, 0
1, 34080, Note_on_c, 1, 83, 127
1, 34080, Note_on_c, 1, 76, 127
1, 34080, Note_on_c, 1, 67, 127
1, 34080, Note_on_c, 1, 64, 127
1, 34080, Note_on_c, 1, 79, 127
1, 34109, Note_off_c, 1, 76, 0
1, 34110, Note_on_c, 1, 74, 127
1, 34110, Note_on_c, 1, 66, 127
1, 34139, Note_off_c, 1, 83, 0
1, 34139, Note_off_c, 1, 67, 0
1, 34139, Note_off_c, 1, 64, 0
1, 34139, Note_off_c, 1, 74, 0
1, 34139, Note_off_c, 1, 66, 0
1, 34140, Note_on_c, 1, 73, 127
1, 34140, Note_on_c, 1, 62, 127
1, 34140, Note_on_c, 1, 52, 127
1, 34169, Note_off_c, 1, 73, 0
1, 34169, Note_off_c, 1, 62, 0
1, 34170, Note_on_c, 1, 71, 127
1, 34199, Note_off_c, 1, 52, 0
1, 34199, Note_off_c, 1, 71, 0
1, 34200, Note_on_c, 1, 69, 127
1, 34200, Note_on_c, 1, 61, 127
1, 34200, Note_on_c, 1, 57, 127
1, 34230, Note_on_c, 1, 81, 127
1, 34259, Note_off_c, 1, 69, 0
1, 34259, Note_off_c, 1, 61, 0
1, 34259, Note_off_c, 1, 57, 0
1, 34259, Note_off_c, 1, 81, 0
1, 34260, Note_on_c, 1, 45, 127
1, 34289, Note_off_c, 1, 79, 0
1, 34290, Note_on_c, 1, 78, 127
1, 34319, Note_off_c, 1, 45, 0
1, 34319, Note_off_c, 1, 78, 0
1, 34320, Note_on_c, 1, 74, 127
1, 34320, Note_on_c, 1, 76, 127
1, 34320, Note_on_c, 1, 57, 127
1, 34320, Note_on_c, 1, 73, 127
1, 34320, Note_on_c, 1, 69, 127
1, 34320, Note_on_c, 1, 45, 127
1, 34349, Note_off_c, 1, 74, 0
1, 34349, Note_off_c, 1, 76, 0
1, 34379, Note_off_c, 1, 73, 0
1, 34379, Note_off_c, 1, 69, 0
1, 34379, Note_off_c, 1, 45, 0
1, 34380, Note_on_c, 1, 78, 127
1, 34409, Note_off_c, 1, 78, 0
1, 34410, Note_on_c, 1, 79, 127
1, 34410, Note_on_c, 1, 71, 127
1, 34439, Note_off_c, 1, 57, 0
1, 34439, Note_off_c, 1, 79, 0
1, 34439, Note_off_c, 1, 71, 0
1, 34440, Note_on_c, 1, 81, 127
1, 34440, Note_on_c, 1, 69, 127
1, 34440, Note_on_c, 1, 57, 127
1, 34440, Note_on_c, 1, 67, 127
1, 34440, Note_on_c, 1, 73, 127
1, 34440, Note_on_c, 1, 45, 127
1, 34469, Note_off_c, 1, 81, 0
1, 34469, Note_off_c, 1, 69, 0
1, 34470, Note_on_c, 1, 83, 127
1, 34499, Note_off_c, 1, 57, 0
1, 34499, Note_off_c, 1, 67, 0
1, 34499, Note_off_c, 1, 73, 0
1, 34499, Note_off_c, 1, 45, 0
1, 34499, Note_off_c, 1, 83, 0
1, 34500, Note_on_c, 1, 81, 127
1, 34500, Note_on_c, 1, 66, 127
1, 34500, Note_on_c, 1, 57, 127
1, 34500, Note_on_c, 1, 47, 127
1, 34529, Note_off_c, 1, 81, 0
1, 34529, Note_off_c, 1, 66, 0
1, 34529, Note_off_c, 1, 47, 0
1, 34530, Note_on_c, 1, 79, 127
1, 34530, Note_on_c, 1, 64, 127
1, 34530, Note_on_c, 1, 49, 127
1, 34559, Note_off_c, 1, 57, 0
1, 34559, Note_off_c, 1, 79, 0
1, 34559, Note_off_c, 1, 64, 0
1, 34559, Note_off_c, 1, 49, 0
1, 34560, Note_on_c, 1, 78, 127
1, 34560, Note_on_c, 1, 62, 127
1, 34560, Note_on_c, 1, 57, 127
1, 34560, Note_on_c, 1, 66, 127
1, 34560, Note_on_c, 1, 50, 127
1, 34589, Note_off_c, 1, 78, 0
1, 34590, Note_on_c, 1, 69, 127
1, 34619, Note_off_c, 1, 57, 0
1, 34619, Note_off_c, 1, 66, 0
1, 34619, Note_off_c, 1, 50, 0
1, 34619, Note_off_c, 1, 69, 0
1, 34620, Note_on_c, 1, 71, 127
1, 34620, Note_on_c, 1, 64, 127
1, 34620, Note_on_c, 1, 38, 127
1, 34649, Note_off_c, 1, 71, 0
1, 34650, Note_on_c, 1, 73, 127
1, 34679, Note_off_c, 1, 62, 0
1, 34679, Note_off_c, 1, 64, 0
1, 34679, Note_off_c, 1, 38, 0
1, 34679, Note_off_c, 1, 73, 0
1, 34680, Note_on_c, 1, 74, 127
1, 34680, Note_on_c, 1, 62, 127
1, 34680, Note_on_c, 1, 66, 127
1, 34709, Note_off_c, 1, 74, 0
1, 34710, Note_on_c, 1, 76, 127
1, 34710, Note_on_c, 1, 79, 127
1, 34710, Note_on_c, 1, 71, 127
1, 34739, Note_off_c, 1, 62, 0
1, 34739, Note_off_c, 1, 66, 0
1, 34739, Note_off_c, 1, 76, 0
1, 34739, Note_off_c, 1, 79, 0
1, 34739, Note_off_c, 1, 71, 0
1, 34740, Note_on_c, 1, 78, 127
1, 34740, Note_on_c, 1, 69, 127
1, 34740, Note_on_c, 1, 62, 127
1, 34769, Note_off_c, 1, 78, 0
1, 34770, Note_on_c, 1, 79, 127
1, 34770, Note_on_c, 1, 76, 127
1, 34770, Note_on_c, 1, 67, 127
1, 34770, Note_on_c, 1, 64, 127
1, 34799, Note_off_c, 1, 69, 0
1, 34799, Note_off_c, 1, 62, 0
1, 34799, Note_off_c, 1, 79, 0
1, 34799, Note_off_c, 1, 76, 0
1, 34799, Note_off_c, 1, 67, 0
1, 34799, Note_off_c, 1, 64, 0
1, 34800, Note_on_c, 1, 81, 127
1, 34800, Note_on_c, 1, 74, 127
1, 34800, Note_on_c, 1, 66, 127
1, 34800, Note_on_c, 1, 62, 127
1, 34830, Note_on_c, 1, 73, 127
1, 34830, Note_on_c, 1, 64, 127
1, 34859, Note_off_c, 1, 81, 0
1, 34859, Note_off_c, 1, 74, 0
1, 34859, Note_off_c, 1, 62, 0
1, 34859, Note_off_c, 1, 73, 0
1, 34859, Note_off_c, 1, 64, 0
1, 34860, Note_on_c, 1, 71, 127
1, 34860, Note_on_c, 1, 50, 127
1, 34889, Note_off_c, 1, 71, 0
1, 34890, Note_on_c, 1, 69, 127
1, 34890, Note_on_c, 1, 61, 127
1, 34919, Note_off_c, 1, 50, 0
1, 34919, Note_off_c, 1, 69, 0
1, 34919, Note_off_c, 1, 61, 0
1, 34920, Note_on_c, 1, 67, 127
1, 34920, Note_on_c, 1, 55, 127
1, 34950, Note_on_c, 1, 79, 127
1, 34979, Note_off_c, 1, 66, 0
1, 34979, Note_off_c, 1, 67, 0
1, 34979, Note_off_c, 1, 55, 0
1, 34979, Note_off_c, 1, 79, 0
1, 34980, Note_on_c, 1, 69, 127
1, 34980, Note_on_c, 1, 78, 127
1, 34980, Note_on_c, 1, 55, 127
1, 34980, Note_on_c, 1, 62, 127
1, 34980, Note_on_c, 1, 43, 127
1, 35009, Note_off_c, 1, 69, 0
1, 35009, Note_off_c, 1, 78, 0
1, 35010, Note_on_c, 1, 71, 127
1, 35010, Note_on_c, 1, 76, 127
1, 35039, Note_off_c, 1, 55, 0
1, 35039, Note_off_c, 1, 62, 0
1, 35039, Note_off_c, 1, 43, 0
1, 35039, Note_off_c, 1, 71, 0
1, 35039, Note_off_c, 1, 76, 0
1, 35040, Note_on_c, 1, 73, 127
1, 35040, Note_on_c, 1, 74, 127
1, 35040, Note_on_c, 1, 55, 127
1, 35040, Note_on_c, 1, 67, 127
1, 35040, Note_on_c, 1, 59, 127
1, 35040, Note_on_c, 1, 43, 127
1, 35069, Note_off_c, 1, 73, 0
1, 35069, Note_off_c, 1, 74, 0
1, 35099, Note_off_c, 1, 67, 0
1, 35099, Note_off_c, 1, 59, 0
1, 35099, Note_off_c, 1, 43, 0
1, 35100, Note_on_c, 1, 76, 127
1, 35100, Note_on_c, 1, 71, 127
1, 35129, Note_off_c, 1, 76, 0
1, 35129, Note_off_c, 1, 71, 0
1, 35130, Note_on_c, 1, 78, 127
1, 35130, Note_on_c, 1, 69, 127
1, 35159, Note_off_c, 1, 55, 0
1, 35159, Note_off_c, 1, 78, 0
1, 35159, Note_off_c, 1, 69, 0
1, 35160, Note_on_c, 1, 79, 127
1, 35160, Note_on_c, 1, 67, 127
1, 35160, Note_on_c, 1, 55, 127
1, 35160, Note_on_c, 1, 71, 127
1, 35160, Note_on_c, 1, 54, 127
1, 35160, Note_on_c, 1, 43, 127
1, 35189, Note_off_c, 1, 79, 0
1, 35189, Note_off_c, 1, 67, 0
1, 35190, Note_on_c, 1, 81, 127
1, 35190, Note_on_c, 1, 66, 127
1, 35219, Note_off_c, 1, 55, 0
1, 35219, Note_off_c, 1, 71, 0
1, 35219, Note_off_c, 1, 54, 0
1, 35219, Note_off_c, 1, 43, 0
1, 35219, Note_off_c, 1, 81, 0
1, 35219, Note_off_c, 1, 66, 0
1, 35220, Note_on_c, 1, 79, 127
1, 35220, Note_on_c, 1, 64, 127
1, 35220, Note_on_c, 1, 55, 127
1, 35220, Note_on_c, 1, 52, 127
1, 35220, Note_on_c, 1, 45, 127
1, 35249, Note_off_c, 1, 79, 0
1, 35249, Note_off_c, 1, 64, 0
1, 35249, Note_off_c, 1, 52, 0
1, 35249, Note_off_c, 1, 45, 0
1, 35250, Note_on_c, 1, 78, 127
1, 35250, Note_on_c, 1, 62, 127
1, 35250, Note_on_c, 1, 50, 127
1, 35250, Note_on_c, 1, 47, 127
1, 35279, Note_off_c, 1, 55, 0
1, 35279, Note_off_c, 1, 78, 0
1, 35279, Note_off_c, 1, 62, 0
1, 35279, Note_off_c, 1, 50, 0
1, 35279, Note_off_c, 1, 47, 0
1, 35280, Note_on_c, 1, 76, 127
1, 35280, Note_on_c, 1, 67, 127
1, 35280, Note_on_c, 1, 55, 127
1, 35280, Note_on_c, 1, 52, 127
1, 35280, Note_on_c, 1, 49, 127
1, 35309, Note_off_c, 1, 76, 0
1, 35339, Note_off_c, 1, 55, 0
1, 35339, Note_off_c, 1, 52, 0
1, 35339, Note_off_c, 1, 49, 0
1, 35340, Note_on_c, 1, 69, 127
1, 35340, Note_on_c, 1, 61, 127
1, 35340, Note_on_c, 1, 71, 127
1, 35340, Note_on_c, 1, 50, 127
1, 35340, Note_on_c, 1, 37, 127
1, 35369, Note_off_c, 1, 69, 0
1, 35399, Note_off_c, 1, 67, 0
1, 35399, Note_off_c, 1, 61, 0
1, 35399, Note_off_c, 1, 71, 0
1, 35399, Note_off_c, 1, 50, 0
1, 35399, Note_off_c, 1, 37, 0
1, 35400, Note_on_c, 1, 73, 127
1, 35400, Note_on_c, 1, 61, 127
1, 35400, Note_on_c, 1, 64, 127
1, 35400, Note_on_c, 1, 49, 127
1, 35430, Note_on_c, 1, 74, 127
1, 35430, Note_on_c, 1, 78, 127
1, 35430, Note_on_c, 1, 81, 127
1, 35459, Note_off_c, 1, 73, 0
1, 35459, Note_off_c, 1, 61, 0
1, 35459, Note_off_c, 1, 64, 0
1, 35459, Note_off_c, 1, 49, 0
1, 35459, Note_off_c, 1, 74, 0
1, 35459, Note_off_c, 1, 78, 0
1, 35459, Note_off_c, 1, 81, 0
1, 35460, Note_on_c, 1, 76, 127
1, 35460, Note_on_c, 1, 79, 127
1, 35460, Note_on_c, 1, 61, 127
1, 35460, Note_on_c, 1, 67, 127
1, 35460, Note_on_c, 1, 49, 127
1, 35489, Note_off_c, 1, 76, 0
1, 35489, Note_off_c, 1, 79, 0
1, 35489, Note_off_c, 1, 67, 0
1, 35490, Note_on_c, 1, 78, 127
1, 35490, Note_on_c, 1, 74, 127
1, 35490, Note_on_c, 1, 66, 127
1, 35519, Note_off_c, 1, 61, 0
1, 35519, Note_off_c, 1, 49, 0
1, 35519, Note_off_c, 1, 78, 0
1, 35519, Note_off_c, 1, 74, 0
1, 35519, Note_off_c, 1, 66, 0
1, 35520, Note_on_c, 1, 79, 127
1, 35520, Note_on_c, 1, 73, 127
1, 35520, Note_on_c, 1, 76, 127
1, 35520, Note_on_c, 1, 61, 127
1, 35520, Note_on_c, 1, 64, 127
1, 35549, Note_off_c, 1, 73, 0
1, 35550, Note_on_c, 1, 71, 127
1, 35550, Note_on_c, 1, 74, 127
1, 35579, Note_off_c, 1, 79, 0
1, 35579, Note_off_c, 1, 61, 0
1, 35579, Note_off_c, 1, 64, 0
1, 35579, Note_off_c, 1, 71, 0
1, 35579, Note_off_c, 1, 74, 0
1, 35580, Note_on_c, 1, 70, 127
1, 35580, Note_on_c, 1, 62, 127
1, 35580, Note_on_c, 1, 59, 127
1, 35580, Note_on_c, 1, 49, 127
1, 35609, Note_off_c, 1, 70, 0
1, 35609, Note_off_c, 1, 62, 0
1, 35609, Note_off_c, 1, 59, 0
1, 35610, Note_on_c, 1, 68, 127
1, 35639, Note_off_c, 1, 49, 0
1, 35639, Note_off_c, 1, 68, 0
1, 35640, Note_on_c, 1, 78, 127
1, 35640, Note_on_c, 1, 66, 127
1, 35640, Note_on_c, 1, 58, 127
1, 35640, Note_on_c, 1, 54, 127
1, 35699, Note_off_c, 1, 78, 0
1, 35699, Note_off_c, 1, 66, 0
1, 35699, Note_off_c, 1, 54, 0
1, 35700, Note_on_c, 1, 42, 127
1, 35729, Note_off_c, 1, 76, 0
1, 35759, Note_off_c, 1, 58, 0
1, 35759, Note_off_c, 1, 42, 0
1, 35760, Note_on_c, 1, 71, 127
1, 35760, Note_on_c, 1, 73, 127
1, 35760, Note_on_c, 1, 66, 127
1, 35760, Note_on_c, 1, 70, 127
1, 35760, Note_on_c, 1, 54, 127
1, 35760, Note_on_c, 1, 42, 127
1, 35789, Note_off_c, 1, 71, 0
1, 35789, Note_off_c, 1, 73, 0
1, 35819, Note_off_c, 1, 66, 0
1, 35819, Note_off_c, 1, 70, 0
1, 35819, Note_off_c, 1, 54, 0
1, 35819, Note_off_c, 1, 42, 0
1, 35820, Note_on_c, 1, 74, 127
1, 35820, Note_on_c, 1, 70, 127
1, 35820, Note_on_c, 1, 66, 127
1, 35820, Note_on_c, 1, 61, 127
1, 35820, Note_on_c, 1, 42, 127
1, 35849, Note_off_c, 1, 74, 0
1, 35849, Note_off_c, 1, 70, 0
1, 35850, Note_on_c, 1, 76, 127
1, 35850, Note_on_c, 1, 68, 127
1, 35879, Note_off_c, 1, 66, 0
1, 35879, Note_off_c, 1, 61, 0
1, 35879, Note_off_c, 1, 42, 0
1, 35879, Note_off_c, 1, 76, 0
1, 35879, Note_off_c, 1, 68, 0
1, 35880, Note_on_c, 1, 78, 127
1, 35880, Note_on_c, 1, 66, 127
1, 35880, Note_on_c, 1, 76, 127
1, 35880, Note_on_c, 1, 70, 127
1, 35880, Note_on_c, 1, 42, 127
1, 35909, Note_off_c, 1, 78, 0
1, 35910, Note_on_c, 1, 79, 127
1, 35939, Note_off_c, 1, 66, 0
1, 35939, Note_off_c, 1, 76, 0
1, 35939, Note_off_c, 1, 70, 0
1, 35939, Note_off_c, 1, 42, 0
1, 35939, Note_off_c, 1, 79, 0
1, 35940, Note_on_c, 1, 78, 127
1, 35940, Note_on_c, 1, 74, 127
1, 35940, Note_on_c, 1, 66, 127
1, 35940, Note_on_c, 1, 54, 127
1, 35940, Note_on_c, 1, 44, 127
1, 35969, Note_off_c, 1, 78, 0
1, 35969, Note_off_c, 1, 74, 0
1, 35969, Note_off_c, 1, 44, 0
1, 35970, Note_on_c, 1, 76, 127
1, 35970, Note_on_c, 1, 73, 127
1, 35970, Note_on_c, 1, 46, 127
1, 35999, Note_off_c, 1, 66, 0
1, 35999, Note_off_c, 1, 54, 0
1, 35999, Note_off_c, 1, 76, 0
1, 35999, Note_off_c, 1, 73, 0
1, 35999, Note_off_c, 1, 46, 0
1, 36000, Note_on_c, 1, 74, 127
1, 36000, Note_on_c, 1, 66, 127
1, 36000, Note_on_c, 1, 59, 127
1, 36000, Note_on_c, 1, 47, 127
1, 36030, Note_on_c, 1, 71, 127
1, 36059, Note_off_c, 1, 74, 0
1, 36059, Note_off_c, 1, 66, 0
1, 36059, Note_off_c, 1, 59, 0
1, 36059, Note_off_c, 1, 47, 0
1, 36059, Note_off_c, 1, 71, 0
1, 36060, Note_on_c, 1, 79, 127
1, 36060, Note_on_c, 1, 74, 127
1, 36060, Note_on_c, 1, 59, 127
1, 36060, Note_on_c, 1, 71, 127
1, 36060, Note_on_c, 1, 62, 127
1, 36089, Note_off_c, 1, 79, 0
1, 36089, Note_off_c, 1, 74, 0
1, 36090, Note_on_c, 1, 78, 127
1, 36090, Note_on_c, 1, 73, 127
1, 36090, Note_on_c, 1, 57, 127
1, 36119, Note_off_c, 1, 59, 0
1, 36119, Note_off_c, 1, 62, 0
1, 36119, Note_off_c, 1, 78, 0
1, 36119, Note_off_c, 1, 73, 0
1, 36119, Note_off_c, 1, 57, 0
1, 36120, Note_on_c, 1, 76, 127
1, 36120, Note_on_c, 1, 64, 127
1, 36120, Note_on_c, 1, 67, 127
1, 36120, Note_on_c, 1, 55, 127
1, 36149, Note_off_c, 1, 76, 0
1, 36150, Note_on_c, 1, 69, 127
1, 36150, Note_on_c, 1, 66, 127
1, 36150, Note_on_c, 1, 54, 127
1, 36179, Note_off_c, 1, 64, 0
1, 36179, Note_off_c, 1, 55, 0
1, 36179, Note_off_c, 1, 69, 0
1, 36179, Note_off_c, 1, 66, 0
1, 36179, Note_off_c, 1, 54, 0
1, 36209, Note_off_c, 1, 71, 0
1, 36240, Note_on_c, 1, 72, 127
1, 36240, Note_on_c, 1, 52, 127
1, 36270, Note_on_c, 1, 50, 127
1, 36299, Note_off_c, 1, 67, 0
1, 36299, Note_off_c, 1, 72, 0
1, 36299, Note_off_c, 1, 52, 0
1, 36299, Note_off_c, 1, 50, 0
1, 36300, Note_on_c, 1, 72, 127
1, 36300, Note_on_c, 1, 67, 127
1, 36300, Note_on_c, 1, 64, 127
1, 36300, Note_on_c, 1, 71, 127
1, 36300, Note_on_c, 1, 52, 127
1, 36329, Note_off_c, 1, 72, 0
1, 36329, Note_off_c, 1, 67, 0
1, 36329, Note_off_c, 1, 71, 0
1, 36329, Note_off_c, 1, 52, 0
1, 36330, Note_on_c, 1, 73, 127
1, 36330, Note_on_c, 1, 49, 127
1, 36359, Note_off_c, 1, 64, 0
1, 36359, Note_off_c, 1, 73, 0
1, 36359, Note_off_c, 1, 49, 0
1, 36360, Note_on_c, 1, 66, 127
1, 36360, Note_on_c, 1, 70, 127
1, 36360, Note_on_c, 1, 61, 127
1, 36360, Note_on_c, 1, 54, 127
1, 36390, Note_on_c, 1, 42, 127
1, 36419, Note_off_c, 1, 42, 0
1, 36420, Note_on_c, 1, 44, 127
1, 36449, Note_off_c, 1, 44, 0
1, 36450, Note_on_c, 1, 71, 127
1, 36450, Note_on_c, 1, 46, 127
1, 36465, Note_off_c, 1, 71, 0
1, 36465, Note_on_c, 1, 73, 127
1, 36479, Note_off_c, 1, 66, 0
1, 36479, Note_off_c, 1, 70, 0
1, 36479, Note_off_c, 1, 61, 0
1, 36479, Note_off_c, 1, 54, 0
1, 36479, Note_off_c, 1, 46, 0
1, 36480, Note_on_c, 1, 76, 127
1, 36480, Note_on_c, 1, 58, 127
1, 36480, Note_on_c, 1, 47, 127
1, 36509, Note_off_c, 1, 47, 0
1, 36510, Note_on_c, 1, 49, 127
1, 36539, Note_off_c, 1, 73, 0
1, 36539, Note_off_c, 1, 76, 0
1, 36539, Note_off_c, 1, 58, 0
1, 36539, Note_off_c, 1, 49, 0
1, 36540, Note_on_c, 1, 50, 127
1, 36569, Note_off_c, 1, 50, 0
1, 36570, Note_on_c, 1, 52, 127
1, 36599, Note_off_c, 1, 52, 0
1, 36600, Note_on_c, 1, 64, 127
1, 36659, Note_off_c, 1, 64, 0
1, 36660, Note_on_c, 1, 68, 127
1, 36689, Note_off_c, 1, 68, 0
1, 36720, Note_on_c, 1, 66, 127
1, 36720, Note_on_c, 1, 54, 127
1, 36720, Note_on_c, 1, 74, 127
1, 36720, Note_on_c, 1, 71, 127
1, 36720, Note_on_c, 1, 62, 127
1, 36750, Note_on_c, 1, 42, 127
1, 36779, Note_off_c, 1, 66, 0
1, 36779, Note_off_c, 1, 54, 0
1, 36779, Note_off_c, 1, 74, 0
1, 36779, Note_off_c, 1, 71, 0
1, 36779, Note_off_c, 1, 62, 0
1, 36779, Note_off_c, 1, 42, 0
1, 36780, Note_on_c, 1, 54, 127
1, 36780, Note_on_c, 1, 71, 127
1, 36780, Note_on_c, 1, 66, 127
1, 36780, Note_on_c, 1, 62, 127
1, 36780, Note_on_c, 1, 59, 127
1, 36780, Note_on_c, 1, 44, 127
1, 36809, Note_off_c, 1, 62, 0
1, 36809, Note_off_c, 1, 59, 0
1, 36809, Note_off_c, 1, 44, 0
1, 36810, Note_on_c, 1, 61, 127
1, 36810, Note_on_c, 1, 58, 127
1, 36810, Note_on_c, 1, 46, 127
1, 36839, Note_off_c, 1, 54, 0
1, 36839, Note_off_c, 1, 71, 0
1, 36839, Note_off_c, 1, 66, 0
1, 36839, Note_off_c, 1, 61, 0
1, 36839, Note_off_c, 1, 58, 0
1, 36839, Note_off_c, 1, 46, 0
1, 36840, Note_on_c, 1, 54, 127
1, 36840, Note_on_c, 1, 66, 127
1, 36840, Note_on_c, 1, 78, 127
1, 36840, Note_on_c, 1, 74, 127
1, 36840, Note_on_c, 1, 71, 127
1, 36840, Note_on_c, 1, 62, 127
1, 36840, Note_on_c, 1, 59, 127
1, 36840, Note_on_c, 1, 47, 127
1, 36869, Note_off_c, 1, 47, 0
1, 36870, Note_on_c, 1, 49, 127
1, 36899, Note_off_c, 1, 54, 0
1, 36899, Note_off_c, 1, 66, 0
1, 36899, Note_off_c, 1, 78, 0
1, 36899, Note_off_c, 1, 74, 0
1, 36899, Note_off_c, 1, 71, 0
1, 36899, Note_off_c, 1, 62, 0
1, 36899, Note_off_c, 1, 59, 0
1, 36899, Note_off_c, 1, 49, 0
1, 36900, Note_on_c, 1, 54, 127
1, 36900, Note_on_c, 1, 74, 127
1, 36900, Note_on_c, 1, 71, 127
1, 36900, Note_on_c, 1, 66, 127
1, 36900, Note_on_c, 1, 50, 127
1, 36929, Note_off_c, 1, 50, 0
1, 36930, Note_on_c, 1, 52, 127
1, 36959, Note_off_c, 1, 54, 0
1, 36959, Note_off_c, 1, 74, 0
1, 36959, Note_off_c, 1, 71, 0
1, 36959, Note_off_c, 1, 66, 0
1, 36959, Note_off_c, 1, 52, 0
1, 36960, Note_on_c, 1, 54, 127
1, 36960, Note_on_c, 1, 71, 127
1, 36960, Note_on_c, 1, 66, 127
1, 36960, Note_on_c, 1, 62, 127
1, 36960, Note_on_c, 1, 74, 127
1, 36990, Note_on_c, 1, 52, 127
1, 37019, Note_off_c, 1, 54, 0
1, 37019, Note_off_c, 1, 71, 0
1, 37019, Note_off_c, 1, 66, 0
1, 37019, Note_off_c, 1, 62, 0
1, 37019, Note_off_c, 1, 74, 0
1, 37019, Note_off_c, 1, 52, 0
1, 37020, Note_on_c, 1, 54, 127
1, 37020, Note_on_c, 1, 66, 127
1, 37020, Note_on_c, 1, 62, 127
1, 37020, Note_on_c, 1, 59, 127
1, 37020, Note_on_c, 1, 73, 127
1, 37020, Note_on_c, 1, 70, 127
1, 37020, Note_on_c, 1, 64, 127
1, 37049, Note_off_c, 1, 73, 0
1, 37049, Note_off_c, 1, 70, 0
1, 37049, Note_off_c, 1, 64, 0
1, 37050, Note_on_c, 1, 74, 127
1, 37050, Note_on_c, 1, 71, 127
1, 37050, Note_on_c, 1, 52, 127
1, 37079, Note_off_c, 1, 54, 0
1, 37079, Note_off_c, 1, 66, 0
1, 37079, Note_off_c, 1, 62, 0
1, 37079, Note_off_c, 1, 59, 0
1, 37079, Note_off_c, 1, 74, 0
1, 37079, Note_off_c, 1, 71, 0
1, 37079, Note_off_c, 1, 52, 0
1, 37080, Note_on_c, 1, 66, 127
1, 37080, Note_on_c, 1, 54, 127
1, 37080, Note_on_c, 1, 76, 127
1, 37080, Note_on_c, 1, 73, 127
1, 37080, Note_on_c, 1, 58, 127
1, 37110, Note_on_c, 1, 42, 127
1, 37139, Note_off_c, 1, 66, 0
1, 37139, Note_off_c, 1, 76, 0
1, 37139, Note_off_c, 1, 73, 0
1, 37139, Note_off_c, 1, 42, 0
1, 37140, Note_on_c, 1, 70, 127
1, 37140, Note_on_c, 1, 44, 127
1, 37169, Note_off_c, 1, 44, 0
1, 37170, Note_on_c, 1, 46, 127
1, 37199, Note_off_c, 1, 54, 0
1, 37199, Note_off_c, 1, 58, 0
1, 37199, Note_off_c, 1, 70, 0
1, 37199, Note_off_c, 1, 46, 0
1, 37200, Note_on_c, 1, 54, 127
1, 37200, Note_on_c, 1, 66, 127
1, 37200, Note_on_c, 1, 79, 127
1, 37200, Note_on_c, 1, 73, 127
1, 37200, Note_on_c, 1, 70, 127
1, 37200, Note_on_c, 1, 61, 127
1, 37200, Note_on_c, 1, 42, 127
1, 37200, Note_on_c, 1, 47, 127
1, 37229, Note_off_c, 1, 47, 0
1, 37230, Note_on_c, 1, 49, 127
1, 37259, Note_off_c, 1, 54, 0
1, 37259, Note_off_c, 1, 66, 0
1, 37259, Note_off_c, 1, 79, 0
1, 37259, Note_off_c, 1, 73, 0
1, 37259, Note_off_c, 1, 70, 0
1, 37259, Note_off_c, 1, 61, 0
1, 37259, Note_off_c, 1, 42, 0
1, 37259, Note_off_c, 1, 49, 0
1, 37260, Note_on_c, 1, 54, 127
1, 37260, Note_on_c, 1, 76, 127
1, 37260, Note_on_c, 1, 70, 127
1, 37260, Note_on_c, 1, 73, 127
1, 37260, Note_on_c, 1, 66, 127
1, 37260, Note_on_c, 1, 50, 127
1, 37289, Note_off_c, 1, 50, 0
1, 37290, Note_on_c, 1, 52, 127
1, 37319, Note_off_c, 1, 54, 0
1, 37319, Note_off_c, 1, 76, 0
1, 37319, Note_off_c, 1, 70, 0
1, 37319, Note_off_c, 1, 73, 0
1, 37319, Note_off_c, 1, 66, 0
1, 37319, Note_off_c, 1, 52, 0
1, 37320, Note_on_c, 1, 54, 127
1, 37320, Note_on_c, 1, 73, 127
1, 37320, Note_on_c, 1, 70, 127
1, 37320, Note_on_c, 1, 66, 127
1, 37320, Note_on_c, 1, 78, 127
1, 37320, Note_on_c, 1, 58, 127
1, 37350, Note_on_c, 1, 56, 127
1, 37379, Note_off_c, 1, 54, 0
1, 37379, Note_off_c, 1, 73, 0
1, 37379, Note_off_c, 1, 70, 0
1, 37379, Note_off_c, 1, 66, 0
1, 37379, Note_off_c, 1, 78, 0
1, 37379, Note_off_c, 1, 58, 0
1, 37379, Note_off_c, 1, 56, 0
1, 37380, Note_on_c, 1, 54, 127
1, 37380, Note_on_c, 1, 70, 127
1, 37380, Note_on_c, 1, 66, 127
1, 37380, Note_on_c, 1, 61, 127
1, 37380, Note_on_c, 1, 76, 127
1, 37380, Note_on_c, 1, 58, 127
1, 37409, Note_off_c, 1, 58, 0
1, 37439, Note_off_c, 1, 54, 0
1, 37439, Note_off_c, 1, 70, 0
1, 37439, Note_off_c, 1, 66, 0
1, 37439, Note_off_c, 1, 61, 0
1, 37439, Note_off_c, 1, 76, 0
1, 37440, Note_on_c, 1, 54, 127
1, 37440, Note_on_c, 1, 78, 127
1, 37440, Note_on_c, 1, 74, 127
1, 37440, Note_on_c, 1, 59, 127
1, 37440, Note_on_c, 1, 66, 127
1, 37470, Note_on_c, 1, 50, 127
1, 37499, Note_off_c, 1, 54, 0
1, 37499, Note_off_c, 1, 78, 0
1, 37499, Note_off_c, 1, 74, 0
1, 37499, Note_off_c, 1, 66, 0
1, 37499, Note_off_c, 1, 50, 0
1, 37500, Note_on_c, 1, 79, 127
1, 37500, Note_on_c, 1, 76, 127
1, 37500, Note_on_c, 1, 71, 127
1, 37500, Note_on_c, 1, 64, 127
1, 37500, Note_on_c, 1, 52, 127
1, 37529, Note_off_c, 1, 76, 0
1, 37529, Note_off_c, 1, 64, 0
1, 37529, Note_off_c, 1, 52, 0
1, 37530, Note_off_c, 1, 79, 0
1, 37530, Note_on_c, 1, 62, 127
1, 37530, Note_on_c, 1, 57, 127
1, 37559, Note_off_c, 1, 59, 0
1, 37559, Note_off_c, 1, 62, 0
1, 37559, Note_off_c, 1, 57, 0
1, 37560, Note_on_c, 1, 73, 127
1, 37560, Note_on_c, 1, 55, 127
1, 37589, Note_off_c, 1, 73, 0
1, 37619, Note_off_c, 1, 71, 0
1, 37619, Note_off_c, 1, 55, 0
1, 37620, Note_on_c, 1, 70, 127
1, 37620, Note_on_c, 1, 67, 127
1, 37649, Note_off_c, 1, 70, 0
1, 37679, Note_off_c, 1, 67, 0
1, 37680, Note_on_c, 1, 58, 127
1, 37739, Note_off_c, 1, 58, 0
1, 37740, Note_on_c, 1, 71, 127
1, 37740, Note_on_c, 1, 66, 127
1, 37740, Note_on_c, 1, 61, 127
1, 37740, Note_on_c, 1, 73, 127
1, 37740, Note_on_c, 1, 54, 127
1, 37740, Note_on_c, 1, 42, 127
1, 37769, Note_off_c, 1, 71, 0
1, 37770, Note_on_c, 1, 70, 127
1, 37799, Note_off_c, 1, 66, 0
1, 37799, Note_off_c, 1, 61, 0
1, 37799, Note_off_c, 1, 73, 0
1, 37799, Note_off_c, 1, 54, 0
1, 37799, Note_off_c, 1, 42, 0
1, 37799, Note_off_c, 1, 70, 0
1, 37800, Note_on_c, 1, 83, 127
1, 37800, Note_on_c, 1, 80, 127
1, 37800, Note_on_c, 1, 71, 127
1, 37800, Note_on_c, 1, 68, 127
1, 37800, Note_on_c, 1, 65, 127
1, 37800, Note_on_c, 1, 49, 127
1, 37859, Note_off_c, 1, 83, 0
1, 37859, Note_off_c, 1, 80, 0
1, 37860, Note_on_c, 1, 77, 127
1, 37860, Note_on_c, 1, 51, 127
1, 37889, Note_off_c, 1, 51, 0
1, 37890, Note_on_c, 1, 53, 127
1, 37919, Note_off_c, 1, 77, 0
1, 37919, Note_off_c, 1, 53, 0
1, 37920, Note_on_c, 1, 73, 127
1, 37920, Note_on_c, 1, 54, 127
1, 37949, Note_off_c, 1, 54, 0
1, 37950, Note_on_c, 1, 56, 127
1, 37979, Note_off_c, 1, 73, 0
1, 37979, Note_off_c, 1, 56, 0
1, 37980, Note_on_c, 1, 57, 127
1, 38009, Note_off_c, 1, 57, 0
1, 38010, Note_on_c, 1, 59, 127
1, 38039, Note_off_c, 1, 59, 0
1, 38040, Note_on_c, 1, 74, 127
1, 38040, Note_on_c, 1, 61, 127
1, 38069, Note_off_c, 1, 61, 0
1, 38099, Note_off_c, 1, 74, 0
1, 38100, Note_on_c, 1, 75, 127
1, 38100, Note_on_c, 1, 66, 127
1, 38129, Note_off_c, 1, 75, 0
1, 38129, Note_off_c, 1, 66, 0
1, 38159, Note_off_c, 1, 71, 0
1, 38159, Note_off_c, 1, 68, 0
1, 38159, Note_off_c, 1, 65, 0
1, 38160, Note_on_c, 1, 81, 127
1, 38160, Note_on_c, 1, 78, 127
1, 38160, Note_on_c, 1, 69, 127
1, 38219, Note_off_c, 1, 81, 0
1, 38219, Note_off_c, 1, 78, 0
1, 38519, Note_off_c, 1, 69, 0
1, 38759, Note_off_c, 1, 49, 0
1, 38820, Note_on_c, 1, 62, 127
1, 38879, Note_off_c, 1, 62, 0
1, 38880, Note_on_c, 1, 78, 127
1, 38880, Note_on_c, 1, 73, 127
1, 38880, Note_on_c, 1, 81, 127
1, 38880, Note_on_c, 1, 69, 127
1, 38880, Note_on_c, 1, 57, 127
1, 38880, Note_on_c, 1, 54, 127
1, 38910, Note_on_c, 1, 56, 127
1, 38939, Note_off_c, 1, 78, 0
1, 38939, Note_off_c, 1, 81, 0
1, 38939, Note_off_c, 1, 54, 0
1, 38939, Note_off_c, 1, 56, 0
1, 39000, Note_on_c, 1, 66, 127
1, 39030, Note_on_c, 1, 52, 127
1, 39059, Note_off_c, 1, 73, 0
1, 39059, Note_off_c, 1, 69, 0
1, 39059, Note_off_c, 1, 57, 0
1, 39059, Note_off_c, 1, 66, 0
1, 39059, Note_off_c, 1, 52, 0
1, 39060, Note_on_c, 1, 73, 127
1, 39060, Note_on_c, 1, 81, 127
1, 39060, Note_on_c, 1, 69, 127
1, 39060, Note_on_c, 1, 66, 127
1, 39060, Note_on_c, 1, 61, 127
1, 39060, Note_on_c, 1, 52, 127
1, 39060, Note_on_c, 1, 54, 127
1, 39089, Note_off_c, 1, 54, 0
1, 39119, Note_off_c, 1, 73, 0
1, 39119, Note_off_c, 1, 81, 0
1, 39119, Note_off_c, 1, 69, 0
1, 39119, Note_off_c, 1, 66, 0
1, 39119, Note_off_c, 1, 61, 0
1, 39119, Note_off_c, 1, 52, 0
1, 39120, Note_on_c, 1, 69, 127
1, 39120, Note_on_c, 1, 66, 127
1, 39120, Note_on_c, 1, 78, 127
1, 39120, Note_on_c, 1, 81, 127
1, 39120, Note_on_c, 1, 73, 127
1, 39120, Note_on_c, 1, 50, 127
1, 39150, Note_on_c, 1, 76, 127
1, 39150, Note_on_c, 1, 49, 127
1, 39179, Note_off_c, 1, 69, 0
1, 39179, Note_off_c, 1, 66, 0
1, 39179, Note_off_c, 1, 78, 0
1, 39179, Note_off_c, 1, 81, 0
1, 39179, Note_off_c, 1, 73, 0
1, 39179, Note_off_c, 1, 50, 0
1, 39179, Note_off_c, 1, 76, 0
1, 39179, Note_off_c, 1, 49, 0
1, 39180, Note_on_c, 1, 66, 127
1, 39180, Note_on_c, 1, 54, 127
1, 39180, Note_on_c, 1, 78, 127
1, 39180, Note_on_c, 1, 80, 127
1, 39180, Note_on_c, 1, 71, 127
1, 39180, Note_on_c, 1, 73, 127
1, 39180, Note_on_c, 1, 76, 127
1, 39180, Note_on_c, 1, 49, 127
1, 39180, Note_on_c, 1, 50, 127
1, 39209, Note_off_c, 1, 78, 0
1, 39209, Note_off_c, 1, 80, 0
1, 39209, Note_off_c, 1, 71, 0
1, 39209, Note_off_c, 1, 50, 0
1, 39210, Note_on_c, 1, 81, 127
1, 39239, Note_off_c, 1, 66, 0
1, 39239, Note_off_c, 1, 54, 0
1, 39239, Note_off_c, 1, 73, 0
1, 39239, Note_off_c, 1, 76, 0
1, 39239, Note_off_c, 1, 49, 0
1, 39239, Note_off_c, 1, 81, 0
1, 39240, Note_on_c, 1, 74, 127
1, 39240, Note_on_c, 1, 83, 127
1, 39240, Note_on_c, 1, 66, 127
1, 39240, Note_on_c, 1, 71, 127
1, 39240, Note_on_c, 1, 47, 127
1, 39269, Note_off_c, 1, 74, 0
1, 39270, Note_on_c, 1, 73, 127
1, 39299, Note_off_c, 1, 83, 0
1, 39299, Note_off_c, 1, 66, 0
1, 39299, Note_off_c, 1, 71, 0
1, 39299, Note_off_c, 1, 73, 0
1, 39300, Note_on_c, 1, 80, 127
1, 39300, Note_on_c, 1, 68, 127
1, 39330, Note_on_c, 1, 69, 127
1, 39359, Note_off_c, 1, 80, 0
1, 39359, Note_off_c, 1, 68, 0
1, 39359, Note_off_c, 1, 69, 0
1, 39360, Note_on_c, 1, 77, 127
1, 39360, Note_on_c, 1, 61, 127
1, 39419, Note_off_c, 1, 47, 0
1, 39419, Note_off_c, 1, 77, 0
1, 39419, Note_off_c, 1, 61, 0
1, 39420, Note_on_c, 1, 78, 127
1, 39420, Note_on_c, 1, 74, 127
1, 39420, Note_on_c, 1, 66, 127
1, 39420, Note_on_c, 1, 61, 127
1, 39420, Note_on_c, 1, 45, 127
1, 39449, Note_off_c, 1, 74, 0
1, 39449, Note_off_c, 1, 45, 0
1, 39450, Note_on_c, 1, 73, 127
1, 39450, Note_on_c, 1, 47, 127
1, 39479, Note_off_c, 1, 78, 0
1, 39479, Note_off_c, 1, 66, 0
1, 39479, Note_off_c, 1, 73, 0
1, 39479, Note_off_c, 1, 47, 0
1, 39480, Note_on_c, 1, 71, 127
1, 39480, Note_on_c, 1, 69, 127
1, 39480, Note_on_c, 1, 49, 127
1, 39509, Note_off_c, 1, 71, 0
1, 39539, Note_off_c, 1, 61, 0
1, 39539, Note_off_c, 1, 69, 0
1, 39539, Note_off_c, 1, 49, 0
1, 39540, Note_on_c, 1, 77, 127
1, 39540, Note_on_c, 1, 68, 127
1, 39540, Note_on_c, 1, 61, 127
1, 39540, Note_on_c, 1, 59, 127
1, 39540, Note_on_c, 1, 49, 127
1, 39540, Note_on_c, 1, 37, 127
1, 39570, Note_on_c, 1, 66, 127
1, 39599, Note_off_c, 1, 77, 0
1, 39599, Note_off_c, 1, 68, 0
1, 39599, Note_off_c, 1, 61, 0
1, 39599, Note_off_c, 1, 59, 0
1, 39599, Note_off_c, 1, 49, 0
1, 39599, Note_off_c, 1, 37, 0
1, 39599, Note_off_c, 1, 66, 0
1, 39600, Note_on_c, 1, 78, 127
1, 39600, Note_on_c, 1, 66, 127
1, 39600, Note_on_c, 1, 69, 127
1, 39600, Note_on_c, 1, 61, 127
1, 39600, Note_on_c, 1, 57, 127
1, 39600, Note_on_c, 1, 42, 127
1, 39959, Note_off_c, 1, 78, 0
1, 39959, Note_off_c, 1, 66, 0
1, 39959, Note_off_c, 1, 69, 0
1, 39959, Note_off_c, 1, 61, 0
1, 39959, Note_off_c, 1, 57, 0
1, 39959, Note_off_c, 1, 42, 0
1, 39960, Note_on_c, 1, 74, 127
1, 39960, Note_on_c, 1, 69, 127
1, 39960, Note_on_c, 1, 66, 127
1, 39960, Note_on_c, 1, 50, 127
1, 40020, Note_off_c, 1, 74, 0
1, 40020, Note_on_c, 1, 62, 127
1, 40020, Note_on_c, 1, 76, 127
1, 40020, Note_on_c, 1, 38, 127
1, 40050, Note_off_c, 1, 76, 0
1, 40050, Note_on_c, 1, 78, 127
1, 40080, Note_off_c, 1, 69, 0
1, 40080, Note_off_c, 1, 50, 0
1, 40080, Note_off_c, 1, 78, 0
1, 40080, Note_on_c, 1, 79, 127
1, 40080, Note_on_c, 1, 57, 127
1, 40110, Note_off_c, 1, 79, 0
1, 40110, Note_on_c, 1, 81, 127
1, 40140, Note_off_c, 1, 66, 0
1, 40140, Note_off_c, 1, 81, 0
1, 40140, Note_on_c, 1, 83, 127
1, 40140, Note_on_c, 1, 54, 127
1, 40170, Note_off_c, 1, 83, 0
1, 40170, Note_on_c, 1, 85, 127
1, 40200, Note_off_c, 1, 62, 0
1, 40200, Note_off_c, 1, 85, 0
1, 40200, Note_on_c, 1, 86, 127
1, 40230, Note_off_c, 1, 86, 0
1, 40260, Note_off_c, 1, 57, 0
1, 40320, Note_off_c, 1, 38, 0
1, 40320, Note_off_c, 1, 54, 0
1, 40380, Note_on_c, 1, 67, 127
1, 40410, Note_off_c, 1, 67, 0
1, 40440, Note_on_c, 1, 71, 127
1, 40470, Note_off_c, 1, 71, 0
1, 40470, Note_on_c, 1, 73, 127
1, 40500, Note_off_c, 1, 73, 0
1, 40740, Note_on_c, 1, 64, 127
1, 40770, Note_off_c, 1, 64, 0
1, 41100, Note_on_c, 1, 59, 127
1, 41100, Note_on_c, 1, 55, 127
1, 41130, Note_off_c, 1, 59, 0
1, 41130, Note_off_c, 1, 55, 0
1, 41130, Note_on_c, 1, 61, 127
1, 41160, Note_off_c, 1, 61, 0
1, 41460, Note_on_c, 1, 52, 127
1, 41489, Note_off_c, 1, 52, 0
1, 41790, Note_on_c, 1, 47, 127
1, 41819, Note_off_c, 1, 47, 0
1, 41820, Note_on_c, 1, 49, 127
1, 41849, Note_off_c, 1, 49, 0
1, 42060, Note_on_c, 1, 80, 127
1, 42089, Note_off_c, 1, 80, 0
1, 42120, Note_on_c, 1, 56, 127
1, 42149, Note_off_c, 1, 56, 0
1, 42180, Note_on_c, 1, 68, 127
1, 42209, Note_off_c, 1, 68, 0
1, 42480, Note_on_c, 1, 45, 127
1, 42509, Note_off_c, 1, 45, 0
1, 42510, Note_on_c, 1, 40, 127
1, 42539, Note_off_c, 1, 40, 0
1, 42540, Note_on_c, 1, 42, 127
1, 42569, Note_off_c, 1, 42, 0
1, 42570, Note_on_c, 1, 44, 127
1, 42599, Note_off_c, 1, 44, 0
1, 43020, Note_on_c, 1, 76, 127
1, 43020, Note_on_c, 1, 73, 127
1, 43020, Note_on_c, 1, 66, 127
1, 43049, Note_off_c, 1, 66, 0
1, 43050, Note_on_c, 1, 67, 127
1, 43079, Note_off_c, 1, 76, 0
1, 43079, Note_off_c, 1, 73, 0
1, 43079, Note_off_c, 1, 67, 0
1, 43080, Note_on_c, 1, 76, 127
1, 43080, Note_on_c, 1, 73, 127
1, 43080, Note_on_c, 1, 69, 127
1, 43109, Note_off_c, 1, 69, 0
1, 43110, Note_on_c, 1, 67, 127
1, 43139, Note_off_c, 1, 76, 0
1, 43139, Note_off_c, 1, 73, 0
1, 43139, Note_off_c, 1, 67, 0
1, 43140, Note_on_c, 1, 78, 127
1, 43140, Note_on_c, 1, 74, 127
1, 43140, Note_on_c, 1, 69, 127
1, 43169, Note_off_c, 1, 78, 0
1, 43169, Note_off_c, 1, 74, 0
1, 43169, Note_off_c, 1, 69, 0
1, 43170, Note_on_c, 1, 79, 127
1, 43170, Note_on_c, 1, 76, 127
1, 43170, Note_on_c, 1, 67, 127
1, 43199, Note_off_c, 1, 79, 0
1, 43199, Note_off_c, 1, 76, 0
1, 43199, Note_off_c, 1, 67, 0
1, 43200, Note_on_c, 1, 81, 127
1, 43200, Note_on_c, 1, 78, 127
1, 43200, Note_on_c, 1, 66, 127
1, 43259, Note_off_c, 1, 81, 0
1, 43259, Note_off_c, 1, 78, 0
1, 43259, Note_off_c, 1, 66, 0
1, 43260, Note_on_c, 1, 84, 127
1, 43260, Note_on_c, 1, 81, 127
1, 43260, Note_on_c, 1, 67, 127
1, 43260, Note_on_c, 1, 66, 127
1, 43289, Note_off_c, 1, 84, 0
1, 43289, Note_off_c, 1, 81, 0
1, 43289, Note_off_c, 1, 67, 0
1, 43290, Note_on_c, 1, 83, 127
1, 43290, Note_on_c, 1, 79, 127
1, 43290, Note_on_c, 1, 69, 127
1, 43319, Note_off_c, 1, 66, 0
1, 43319, Note_off_c, 1, 83, 0
1, 43319, Note_off_c, 1, 79, 0
1, 43319, Note_off_c, 1, 69, 0
1, 43320, Note_on_c, 1, 81, 127
1, 43320, Note_on_c, 1, 78, 127
1, 43320, Note_on_c, 1, 71, 127
1, 43320, Note_on_c, 1, 66, 127
1, 43349, Note_off_c, 1, 71, 0
1, 43350, Note_on_c, 1, 73, 127
1, 43379, Note_off_c, 1, 81, 0
1, 43379, Note_off_c, 1, 78, 0
1, 43379, Note_off_c, 1, 66, 0
1, 43379, Note_off_c, 1, 73, 0
1, 43380, Note_on_c, 1, 84, 127
1, 43380, Note_on_c, 1, 81, 127
1, 43380, Note_on_c, 1, 75, 127
1, 43380, Note_on_c, 1, 74, 127
1, 43380, Note_on_c, 1, 66, 127
1, 43409, Note_off_c, 1, 84, 0
1, 43409, Note_off_c, 1, 81, 0
1, 43409, Note_off_c, 1, 75, 0
1, 43409, Note_off_c, 1, 74, 0
1, 43410, Note_on_c, 1, 83, 127
1, 43410, Note_on_c, 1, 79, 127
1, 43410, Note_on_c, 1, 76, 127
1, 43439, Note_off_c, 1, 66, 0
1, 43439, Note_off_c, 1, 83, 0
1, 43439, Note_off_c, 1, 79, 0
1, 43439, Note_off_c, 1, 76, 0
1, 43440, Note_on_c, 1, 81, 127
1, 43440, Note_on_c, 1, 78, 127
1, 43440, Note_on_c, 1, 66, 127
1, 43470, Note_on_c, 1, 76, 127
1, 43499, Note_off_c, 1, 81, 0
1, 43499, Note_off_c, 1, 78, 0
1, 43499, Note_off_c, 1, 66, 0
1, 43499, Note_off_c, 1, 76, 0
1, 43500, Note_on_c, 1, 81, 127
1, 43500, Note_on_c, 1, 78, 127
1, 43500, Note_on_c, 1, 67, 127
1, 43529, Note_off_c, 1, 67, 0
1, 43530, Note_on_c, 1, 76, 127
1, 43530, Note_on_c, 1, 69, 127
1, 43559, Note_off_c, 1, 81, 0
1, 43559, Note_off_c, 1, 78, 0
1, 43559, Note_off_c, 1, 76, 0
1, 43559, Note_off_c, 1, 69, 0
1, 43560, Note_on_c, 1, 81, 127
1, 43560, Note_on_c, 1, 78, 127
1, 43560, Note_on_c, 1, 75, 127
1, 43560, Note_on_c, 1, 71, 127
1, 43589, Note_off_c, 1, 75, 0
1, 43589, Note_off_c, 1, 71, 0
1, 43590, Note_on_c, 1, 63, 127
1, 43590, Note_on_c, 1, 66, 127
1, 43590, Note_on_c, 1, 59, 127
1, 43619, Note_off_c, 1, 63, 0
1, 43619, Note_off_c, 1, 66, 0
1, 43619, Note_off_c, 1, 59, 0
1, 43620, Note_on_c, 1, 73, 127
1, 43620, Note_on_c, 1, 64, 127
1, 43620, Note_on_c, 1, 67, 127
1, 43620, Note_on_c, 1, 57, 127
1, 43649, Note_off_c, 1, 73, 0
1, 43649, Note_off_c, 1, 64, 0
1, 43649, Note_off_c, 1, 67, 0
1, 43649, Note_off_c, 1, 57, 0
1, 43650, Note_on_c, 1, 69, 127
1, 43650, Note_on_c, 1, 55, 127
1, 43679, Note_off_c, 1, 69, 0
1, 43679, Note_off_c, 1, 55, 0
1, 43680, Note_on_c, 1, 76, 127
1, 43680, Note_on_c, 1, 54, 127
1, 43709, Note_off_c, 1, 76, 0
1, 43709, Note_off_c, 1, 54, 0
1, 43710, Note_on_c, 1, 52, 127
1, 43739, Note_off_c, 1, 52, 0
1, 43740, Note_on_c, 1, 79, 127
1, 43740, Note_on_c, 1, 51, 127
1, 43769, Note_off_c, 1, 79, 0
1, 43769, Note_off_c, 1, 51, 0
1, 43770, Note_on_c, 1, 49, 127
1, 43799, Note_off_c, 1, 49, 0
1, 43800, Note_on_c, 1, 83, 127
1, 43800, Note_on_c, 1, 47, 127
1, 43829, Note_off_c, 1, 83, 0
1, 43829, Note_off_c, 1, 47, 0
1, 43830, Note_on_c, 1, 84, 127
1, 43830, Note_on_c, 1, 45, 127
1, 43859, Note_off_c, 1, 84, 0
1, 43859, Note_off_c, 1, 45, 0
1, 43860, Note_on_c, 1, 43, 127
1, 43889, Note_off_c, 1, 43, 0
1, 43890, Note_on_c, 1, 42, 127
1, 43919, Note_off_c, 1, 81, 0
1, 43919, Note_off_c, 1, 78, 0
1, 43919, Note_off_c, 1, 42, 0
1, 43920, Note_on_c, 1, 79, 127
1, 43920, Note_on_c, 1, 76, 127
1, 43920, Note_on_c, 1, 71, 127
1, 43920, Note_on_c, 1, 40, 127
1, 43979, Note_off_c, 1, 79, 0
1, 43979, Note_off_c, 1, 76, 0
1, 43979, Note_off_c, 1, 71, 0
1, 43980, Note_on_c, 1, 73, 127
1, 43980, Note_on_c, 1, 67, 127
1, 44009, Note_off_c, 1, 73, 0
1, 44010, Note_on_c, 1, 75, 127
1, 44039, Note_off_c, 1, 40, 0
1, 44039, Note_off_c, 1, 67, 0
1, 44039, Note_off_c, 1, 75, 0
1, 44040, Note_on_c, 1, 76, 127
1, 44040, Note_on_c, 1, 71, 127
1, 44040, Note_on_c, 1, 67, 127
1, 44069, Note_off_c, 1, 76, 0
1, 44070, Note_on_c, 1, 78, 127
1, 44099, Note_off_c, 1, 71, 0
1, 44099, Note_off_c, 1, 67, 0
1, 44099, Note_off_c, 1, 78, 0
1, 44100, Note_on_c, 1, 79, 127
1, 44100, Note_on_c, 1, 71, 127
1, 44100, Note_on_c, 1, 67, 127
1, 44129, Note_off_c, 1, 79, 0
1, 44130, Note_on_c, 1, 81, 127
1, 44159, Note_off_c, 1, 71, 0
1, 44159, Note_off_c, 1, 67, 0
1, 44159, Note_off_c, 1, 81, 0
1, 44160, Note_on_c, 1, 83, 127
1, 44160, Note_on_c, 1, 71, 127
1, 44160, Note_on_c, 1, 67, 127
1, 44189, Note_off_c, 1, 83, 0
1, 44190, Note_on_c, 1, 81, 127
1, 44219, Note_off_c, 1, 71, 0
1, 44219, Note_off_c, 1, 67, 0
1, 44219, Note_off_c, 1, 81, 0
1, 44220, Note_on_c, 1, 83, 127
1, 44220, Note_on_c, 1, 73, 127
1, 44220, Note_on_c, 1, 64, 127
1, 44249, Note_off_c, 1, 83, 0
1, 44249, Note_off_c, 1, 73, 0
1, 44249, Note_off_c, 1, 64, 0
1, 44250, Note_on_c, 1, 81, 127
1, 44250, Note_on_c, 1, 75, 127
1, 44250, Note_on_c, 1, 66, 127
1, 44279, Note_off_c, 1, 81, 0
1, 44279, Note_off_c, 1, 75, 0
1, 44279, Note_off_c, 1, 66, 0
1, 44280, Note_on_c, 1, 79, 127
1, 44280, Note_on_c, 1, 76, 127
1, 44280, Note_on_c, 1, 67, 127
1, 44310, Note_on_c, 1, 64, 127
1, 44339, Note_off_c, 1, 76, 0
1, 44339, Note_off_c, 1, 67, 0
1, 44339, Note_off_c, 1, 64, 0
1, 44340, Note_on_c, 1, 71, 127
1, 44340, Note_on_c, 1, 66, 127
1, 44369, Note_off_c, 1, 71, 0
1, 44369, Note_off_c, 1, 66, 0
1, 44370, Note_on_c, 1, 78, 127
1, 44370, Note_on_c, 1, 69, 127
1, 44399, Note_off_c, 1, 78, 0
1, 44399, Note_off_c, 1, 69, 0
1, 44460, Note_on_c, 1, 73, 127
1, 44489, Note_off_c, 1, 73, 0
1, 44490, Note_on_c, 1, 74, 127
1, 44519, Note_off_c, 1, 74, 0
1, 44639, Note_off_c, 1, 79, 0
1, 44640, Note_on_c, 1, 69, 127
1, 44640, Note_on_c, 1, 76, 127
1, 44640, Note_on_c, 1, 73, 127
1, 44669, Note_off_c, 1, 73, 0
1, 44670, Note_on_c, 1, 64, 127
1, 44670, Note_on_c, 1, 61, 127
1, 44670, Note_on_c, 1, 57, 127
1, 44699, Note_off_c, 1, 64, 0
1, 44699, Note_off_c, 1, 61, 0
1, 44699, Note_off_c, 1, 57, 0
1, 44700, Note_on_c, 1, 71, 127
1, 44700, Note_on_c, 1, 66, 127
1, 44700, Note_on_c, 1, 62, 127
1, 44700, Note_on_c, 1, 55, 127
1, 44729, Note_off_c, 1, 71, 0
1, 44729, Note_off_c, 1, 66, 0
1, 44729, Note_off_c, 1, 62, 0
1, 44729, Note_off_c, 1, 55, 0
1, 44730, Note_on_c, 1, 67, 127
1, 44730, Note_on_c, 1, 54, 127
1, 44759, Note_off_c, 1, 67, 0
1, 44759, Note_off_c, 1, 54, 0
1, 44760, Note_on_c, 1, 74, 127
1, 44760, Note_on_c, 1, 52, 127
1, 44789, Note_off_c, 1, 74, 0
1, 44789, Note_off_c, 1, 52, 0
1, 44790, Note_on_c, 1, 50, 127
1, 44819, Note_off_c, 1, 50, 0
1, 44820, Note_on_c, 1, 78, 127
1, 44820, Note_on_c, 1, 49, 127
1, 44849, Note_off_c, 1, 78, 0
1, 44849, Note_off_c, 1, 49, 0
1, 44850, Note_on_c, 1, 79, 127
1, 44850, Note_on_c, 1, 47, 127
1, 44879, Note_off_c, 1, 79, 0
1, 44879, Note_off_c, 1, 47, 0
1, 44880, Note_on_c, 1, 81, 127
1, 44880, Note_on_c, 1, 45, 127
1, 44909, Note_off_c, 1, 81, 0
1, 44909, Note_off_c, 1, 45, 0
1, 44910, Note_on_c, 1, 83, 127
1, 44910, Note_on_c, 1, 43, 127
1, 44939, Note_off_c, 1, 83, 0
1, 44939, Note_off_c, 1, 43, 0
1, 44940, Note_on_c, 1, 42, 127
1, 44969, Note_off_c, 1, 42, 0
1, 44970, Note_on_c, 1, 40, 127
1, 44999, Note_off_c, 1, 69, 0
1, 44999, Note_off_c, 1, 76, 0
1, 44999, Note_off_c, 1, 40, 0
1, 45000, Note_on_c, 1, 74, 127
1, 45000, Note_on_c, 1, 69, 127
1, 45000, Note_on_c, 1, 50, 127
1, 45000, Note_on_c, 1, 57, 127
1, 45000, Note_on_c, 1, 78, 127
1, 45000, Note_on_c, 1, 38, 127
1, 45029, Note_off_c, 1, 78, 0
1, 45030, Note_on_c, 1, 66, 127
1, 45059, Note_off_c, 1, 74, 0
1, 45059, Note_off_c, 1, 69, 0
1, 45059, Note_off_c, 1, 38, 0
1, 45059, Note_off_c, 1, 66, 0
1, 45060, Note_on_c, 1, 76, 127
1, 45060, Note_on_c, 1, 71, 127
1, 45060, Note_on_c, 1, 67, 127
1, 45060, Note_on_c, 1, 73, 127
1, 45060, Note_on_c, 1, 64, 127
1, 45089, Note_off_c, 1, 76, 0
1, 45089, Note_off_c, 1, 71, 0
1, 45089, Note_off_c, 1, 67, 0
1, 45089, Note_off_c, 1, 73, 0
1, 45089, Note_off_c, 1, 64, 0
1, 45090, Note_on_c, 1, 62, 127
1, 45119, Note_off_c, 1, 50, 0
1, 45119, Note_off_c, 1, 57, 0
1, 45119, Note_off_c, 1, 62, 0
1, 45120, Note_on_c, 1, 79, 127
1, 45120, Note_on_c, 1, 74, 127
1, 45120, Note_on_c, 1, 71, 127
1, 45120, Note_on_c, 1, 69, 127
1, 45120, Note_on_c, 1, 64, 127
1, 45120, Note_on_c, 1, 61, 127
1, 45120, Note_on_c, 1, 50, 127
1, 45149, Note_off_c, 1, 79, 0
1, 45149, Note_off_c, 1, 74, 0
1, 45149, Note_off_c, 1, 71, 0
1, 45149, Note_off_c, 1, 69, 0
1, 45149, Note_off_c, 1, 64, 0
1, 45149, Note_off_c, 1, 61, 0
1, 45150, Note_on_c, 1, 81, 127
1, 45150, Note_on_c, 1, 76, 127
1, 45150, Note_on_c, 1, 73, 127
1, 45150, Note_on_c, 1, 67, 127
1, 45150, Note_on_c, 1, 62, 127
1, 45150, Note_on_c, 1, 59, 127
1, 45179, Note_off_c, 1, 50, 0
1, 45179, Note_off_c, 1, 81, 0
1, 45179, Note_off_c, 1, 76, 0
1, 45179, Note_off_c, 1, 73, 0
1, 45179, Note_off_c, 1, 67, 0
1, 45179, Note_off_c, 1, 62, 0
1, 45179, Note_off_c, 1, 59, 0
1, 45180, Note_on_c, 1, 83, 127
1, 45180, Note_on_c, 1, 78, 127
1, 45180, Note_on_c, 1, 74, 127
1, 45180, Note_on_c, 1, 66, 127
1, 45180, Note_on_c, 1, 61, 127
1, 45180, Note_on_c, 1, 57, 127
1, 45180, Note_on_c, 1, 50, 127
1, 45209, Note_off_c, 1, 83, 0
1, 45209, Note_off_c, 1, 78, 0
1, 45209, Note_off_c, 1, 74, 0
1, 45209, Note_off_c, 1, 66, 0
1, 45209, Note_off_c, 1, 61, 0
1, 45209, Note_off_c, 1, 57, 0
1, 45210, Note_on_c, 1, 85, 127
1, 45210, Note_on_c, 1, 79, 127
1, 45210, Note_on_c, 1, 76, 127
1, 45210, Note_on_c, 1, 64, 127
1, 45210, Note_on_c, 1, 59, 127
1, 45210, Note_on_c, 1, 55, 127
1, 45239, Note_off_c, 1, 50, 0
1, 45239, Note_off_c, 1, 85, 0
1, 45239, Note_off_c, 1, 79, 0
1, 45239, Note_off_c, 1, 76, 0
1, 45239, Note_off_c, 1, 64, 0
1, 45239, Note_off_c, 1, 59, 0
1, 45239, Note_off_c, 1, 55, 0
1, 45240, Note_on_c, 1, 86, 127
1, 45240, Note_on_c, 1, 69, 127
1, 45240, Note_on_c, 1, 66, 127
1, 45240, Note_on_c, 1, 81, 127
1, 45240, Note_on_c, 1, 78, 127
1, 45240, Note_on_c, 1, 62, 127
1, 45240, Note_on_c, 1, 57, 127
1, 45240, Note_on_c, 1, 54, 127
1, 45240, Note_on_c, 1, 50, 127
1, 45269, Note_off_c, 1, 86, 0
1, 45270, Note_on_c, 1, 85, 127
1, 45299, Note_off_c, 1, 69, 0
1, 45299, Note_off_c, 1, 66, 0
1, 45299, Note_off_c, 1, 81, 0
1, 45299, Note_off_c, 1, 78, 0
1, 45299, Note_off_c, 1, 62, 0
1, 45299, Note_off_c, 1, 57, 0
1, 45299, Note_off_c, 1, 54, 0
1, 45299, Note_off_c, 1, 50, 0
1, 45299, Note_off_c, 1, 85, 0
1, 45300, Note_on_c, 1, 86, 127
1, 45300, Note_on_c, 1, 69, 127
1, 45300, Note_on_c, 1, 66, 127
1, 45300, Note_on_c, 1, 52, 127
1, 45329, Note_off_c, 1, 86, 0
1, 45329, Note_off_c, 1, 52, 0
1, 45330, Note_on_c, 1, 85, 127
1, 45330, Note_on_c, 1, 54, 127
1, 45359, Note_off_c, 1, 69, 0
1, 45359, Note_off_c, 1, 66, 0
1, 45359, Note_off_c, 1, 85, 0
1, 45359, Note_off_c, 1, 54, 0
1, 45360, Note_on_c, 1, 83, 127
1, 45360, Note_on_c, 1, 69, 127
1, 45360, Note_on_c, 1, 66, 127
1, 45360, Note_on_c, 1, 55, 127
1, 45390, Note_on_c, 1, 71, 127
1, 45419, Note_off_c, 1, 83, 0
1, 45419, Note_off_c, 1, 69, 0
1, 45419, Note_off_c, 1, 66, 0
1, 45419, Note_off_c, 1, 55, 0
1, 45419, Note_off_c, 1, 71, 0
1, 45420, Note_on_c, 1, 79, 127
1, 45420, Note_on_c, 1, 71, 127
1, 45420, Note_on_c, 1, 67, 127
1, 45420, Note_on_c, 1, 73, 127
1, 45420, Note_on_c, 1, 64, 127
1, 45420, Note_on_c, 1, 49, 127
1, 45449, Note_off_c, 1, 71, 0
1, 45449, Note_off_c, 1, 67, 0
1, 45449, Note_off_c, 1, 73, 0
1, 45450, Note_on_c, 1, 69, 127
1, 45450, Note_on_c, 1, 66, 127
1, 45450, Note_on_c, 1, 74, 127
1, 45479, Note_off_c, 1, 79, 0
1, 45479, Note_off_c, 1, 64, 0
1, 45479, Note_off_c, 1, 49, 0
1, 45479, Note_off_c, 1, 69, 0
1, 45479, Note_off_c, 1, 66, 0
1, 45479, Note_off_c, 1, 74, 0
1, 45480, Note_on_c, 1, 79, 127
1, 45480, Note_on_c, 1, 67, 127
1, 45480, Note_on_c, 1, 64, 127
1, 45480, Note_on_c, 1, 76, 127
1, 45480, Note_on_c, 1, 49, 127
1, 45509, Note_off_c, 1, 76, 0
1, 45510, Note_on_c, 1, 78, 127
1, 45510, Note_on_c, 1, 81, 127
1, 45539, Note_off_c, 1, 79, 0
1, 45539, Note_off_c, 1, 67, 0
1, 45539, Note_off_c, 1, 64, 0
1, 45539, Note_off_c, 1, 49, 0
1, 45539, Note_off_c, 1, 78, 0
1, 45539, Note_off_c, 1, 81, 0
1, 45540, Note_on_c, 1, 83, 127
1, 45540, Note_on_c, 1, 67, 127
1, 45540, Note_on_c, 1, 64, 127
1, 45540, Note_on_c, 1, 79, 127
1, 45540, Note_on_c, 1, 49, 127
1, 45569, Note_off_c, 1, 79, 0
1, 45570, Note_on_c, 1, 81, 127
1, 45570, Note_on_c, 1, 78, 127
1, 45599, Note_off_c, 1, 83, 0
1, 45599, Note_off_c, 1, 67, 0
1, 45599, Note_off_c, 1, 64, 0
1, 45599, Note_off_c, 1, 49, 0
1, 45599, Note_off_c, 1, 81, 0
1, 45599, Note_off_c, 1, 78, 0
1, 45600, Note_on_c, 1, 83, 127
1, 45600, Note_on_c, 1, 67, 127
1, 45600, Note_on_c, 1, 64, 127
1, 45600, Note_on_c, 1, 76, 127
1, 45600, Note_on_c, 1, 49, 127
1, 45629, Note_off_c, 1, 76, 0
1, 45630, Note_on_c, 1, 74, 127
1, 45659, Note_off_c, 1, 83, 0
1, 45659, Note_off_c, 1, 67, 0
1, 45659, Note_off_c, 1, 64, 0
1, 45659, Note_off_c, 1, 49, 0
1, 45659, Note_off_c, 1, 74, 0
1, 45660, Note_on_c, 1, 81, 127
1, 45660, Note_on_c, 1, 67, 127
1, 45660, Note_on_c, 1, 64, 127
1, 45660, Note_on_c, 1, 73, 127
1, 45660, Note_on_c, 1, 66, 127
1, 45660, Note_on_c, 1, 50, 127
1, 45689, Note_off_c, 1, 81, 0
1, 45689, Note_off_c, 1, 73, 0
1, 45689, Note_off_c, 1, 66, 0
1, 45689, Note_off_c, 1, 50, 0
1, 45690, Note_on_c, 1, 79, 127
1, 45690, Note_on_c, 1, 71, 127
1, 45690, Note_on_c, 1, 52, 127
1, 45719, Note_off_c, 1, 67, 0
1, 45719, Note_off_c, 1, 64, 0
1, 45719, Note_off_c, 1, 79, 0
1, 45719, Note_off_c, 1, 71, 0
1, 45719, Note_off_c, 1, 52, 0
1, 45720, Note_on_c, 1, 81, 127
1, 45720, Note_on_c, 1, 76, 127
1, 45720, Note_on_c, 1, 69, 127
1, 45720, Note_on_c, 1, 45, 127
1, 45720, Note_on_c, 1, 67, 127
1, 45720, Note_on_c, 1, 64, 127
1, 45720, Note_on_c, 1, 61, 127
1, 45720, Note_on_c, 1, 54, 127
1, 45779, Note_off_c, 1, 81, 0
1, 45779, Note_off_c, 1, 76, 0
1, 45779, Note_off_c, 1, 69, 0
1, 45779, Note_off_c, 1, 67, 0
1, 45779, Note_off_c, 1, 64, 0
1, 45779, Note_off_c, 1, 61, 0
1, 45779, Note_off_c, 1, 54, 0
1, 45780, Note_on_c, 1, 78, 127
1, 45780, Note_on_c, 1, 62, 127
1, 45780, Note_on_c, 1, 66, 127
1, 45780, Note_on_c, 1, 71, 127
1, 45780, Note_on_c, 1, 47, 127
1, 45809, Note_off_c, 1, 66, 0
1, 45809, Note_off_c, 1, 71, 0
1, 45810, Note_on_c, 1, 73, 127
1, 45839, Note_off_c, 1, 45, 0
1, 45839, Note_off_c, 1, 78, 0
1, 45839, Note_off_c, 1, 62, 0
1, 45839, Note_off_c, 1, 47, 0
1, 45839, Note_off_c, 1, 73, 0
1, 45840, Note_on_c, 1, 78, 127
1, 45840, Note_on_c, 1, 66, 127
1, 45840, Note_on_c, 1, 62, 127
1, 45840, Note_on_c, 1, 74, 127
1, 45840, Note_on_c, 1, 47, 127
1, 45869, Note_off_c, 1, 74, 0
1, 45870, Note_on_c, 1, 76, 127
1, 45870, Note_on_c, 1, 79, 127
1, 45899, Note_off_c, 1, 78, 0
1, 45899, Note_off_c, 1, 66, 0
1, 45899, Note_off_c, 1, 62, 0
1, 45899, Note_off_c, 1, 47, 0
1, 45899, Note_off_c, 1, 76, 0
1, 45899, Note_off_c, 1, 79, 0
1, 45900, Note_on_c, 1, 81, 127
1, 45900, Note_on_c, 1, 66, 127
1, 45900, Note_on_c, 1, 62, 127
1, 45900, Note_on_c, 1, 78, 127
1, 45900, Note_on_c, 1, 47, 127
1, 45929, Note_off_c, 1, 78, 0
1, 45930, Note_on_c, 1, 79, 127
1, 45930, Note_on_c, 1, 76, 127
1, 45959, Note_off_c, 1, 81, 0
1, 45959, Note_off_c, 1, 66, 0
1, 45959, Note_off_c, 1, 62, 0
1, 45959, Note_off_c, 1, 47, 0
1, 45959, Note_off_c, 1, 79, 0
1, 45959, Note_off_c, 1, 76, 0
1, 45960, Note_on_c, 1, 81, 127
1, 45960, Note_on_c, 1, 66, 127
1, 45960, Note_on_c, 1, 62, 127
1, 45960, Note_on_c, 1, 74, 127
1, 45960, Note_on_c, 1, 47, 127
1, 45989, Note_off_c, 1, 74, 0
1, 45990, Note_on_c, 1, 73, 127
1, 46019, Note_off_c, 1, 81, 0
1, 46019, Note_off_c, 1, 66, 0
1, 46019, Note_off_c, 1, 62, 0
1, 46019, Note_off_c, 1, 47, 0
1, 46019, Note_off_c, 1, 73, 0
1, 46020, Note_on_c, 1, 79, 127
1, 46020, Note_on_c, 1, 66, 127
1, 46020, Note_on_c, 1, 62, 127
1, 46020, Note_on_c, 1, 71, 127
1, 46020, Note_on_c, 1, 64, 127
1, 46020, Note_on_c, 1, 49, 127
1, 46049, Note_off_c, 1, 79, 0
1, 46049, Note_off_c, 1, 71, 0
1, 46049, Note_off_c, 1, 64, 0
1, 46049, Note_off_c, 1, 49, 0
1, 46050, Note_on_c, 1, 78, 127
1, 46050, Note_on_c, 1, 69, 127
1, 46050, Note_on_c, 1, 50, 127
1, 46079, Note_off_c, 1, 66, 0
1, 46079, Note_off_c, 1, 62, 0
1, 46079, Note_off_c, 1, 78, 0
1, 46079, Note_off_c, 1, 69, 0
1, 46079, Note_off_c, 1, 50, 0
1, 46080, Note_on_c, 1, 79, 127
1, 46080, Note_on_c, 1, 66, 127
1, 46080, Note_on_c, 1, 62, 127
1, 46080, Note_on_c, 1, 67, 127
1, 46080, Note_on_c, 1, 59, 127
1, 46080, Note_on_c, 1, 52, 127
1, 46139, Note_off_c, 1, 79, 0
1, 46139, Note_off_c, 1, 66, 0
1, 46139, Note_off_c, 1, 62, 0
1, 46139, Note_off_c, 1, 67, 0
1, 46139, Note_off_c, 1, 59, 0
1, 46139, Note_off_c, 1, 52, 0
1, 46140, Note_on_c, 1, 76, 127
1, 46140, Note_on_c, 1, 67, 127
1, 46140, Note_on_c, 1, 64, 127
1, 46140, Note_on_c, 1, 69, 127
1, 46140, Note_on_c, 1, 61, 127
1, 46140, Note_on_c, 1, 45, 127
1, 46169, Note_off_c, 1, 67, 0
1, 46169, Note_off_c, 1, 64, 0
1, 46169, Note_off_c, 1, 69, 0
1, 46170, Note_on_c, 1, 66, 127
1, 46170, Note_on_c, 1, 62, 127
1, 46170, Note_on_c, 1, 71, 127
1, 46199, Note_off_c, 1, 76, 0
1, 46199, Note_off_c, 1, 61, 0
1, 46199, Note_off_c, 1, 45, 0
1, 46199, Note_off_c, 1, 66, 0
1, 46199, Note_off_c, 1, 62, 0
1, 46199, Note_off_c, 1, 71, 0
1, 46200, Note_on_c, 1, 76, 127
1, 46200, Note_on_c, 1, 64, 127
1, 46200, Note_on_c, 1, 57, 127
1, 46200, Note_on_c, 1, 73, 127
1, 46200, Note_on_c, 1, 61, 127
1, 46200, Note_on_c, 1, 45, 127
1, 46229, Note_off_c, 1, 73, 0
1, 46230, Note_on_c, 1, 74, 127
1, 46230, Note_on_c, 1, 78, 127
1, 46259, Note_off_c, 1, 76, 0
1, 46259, Note_off_c, 1, 64, 0
1, 46259, Note_off_c, 1, 57, 0
1, 46259, Note_off_c, 1, 61, 0
1, 46259, Note_off_c, 1, 45, 0
1, 46259, Note_off_c, 1, 74, 0
1, 46259, Note_off_c, 1, 78, 0
1, 46260, Note_on_c, 1, 79, 127
1, 46260, Note_on_c, 1, 64, 127
1, 46260, Note_on_c, 1, 57, 127
1, 46260, Note_on_c, 1, 76, 127
1, 46260, Note_on_c, 1, 61, 127
1, 46260, Note_on_c, 1, 45, 127
1, 46289, Note_off_c, 1, 76, 0
1, 46290, Note_on_c, 1, 78, 127
1, 46290, Note_on_c, 1, 74, 127
1, 46319, Note_off_c, 1, 79, 0
1, 46319, Note_off_c, 1, 64, 0
1, 46319, Note_off_c, 1, 57, 0
1, 46319, Note_off_c, 1, 61, 0
1, 46319, Note_off_c, 1, 45, 0
1, 46319, Note_off_c, 1, 78, 0
1, 46319, Note_off_c, 1, 74, 0
1, 46320, Note_on_c, 1, 79, 127
1, 46320, Note_on_c, 1, 64, 127
1, 46320, Note_on_c, 1, 57, 127
1, 46320, Note_on_c, 1, 73, 127
1, 46320, Note_on_c, 1, 61, 127
1, 46320, Note_on_c, 1, 45, 127
1, 46349, Note_off_c, 1, 73, 0
1, 46350, Note_on_c, 1, 71, 127
1, 46379, Note_off_c, 1, 79, 0
1, 46379, Note_off_c, 1, 64, 0
1, 46379, Note_off_c, 1, 57, 0
1, 46379, Note_off_c, 1, 61, 0
1, 46379, Note_off_c, 1, 45, 0
1, 46379, Note_off_c, 1, 71, 0
1, 46380, Note_on_c, 1, 78, 127
1, 46380, Note_on_c, 1, 64, 127
1, 46380, Note_on_c, 1, 57, 127
1, 46380, Note_on_c, 1, 69, 127
1, 46380, Note_on_c, 1, 62, 127
1, 46380, Note_on_c, 1, 47, 127
1, 46409, Note_off_c, 1, 78, 0
1, 46409, Note_off_c, 1, 69, 0
1, 46409, Note_off_c, 1, 62, 0
1, 46409, Note_off_c, 1, 47, 0
1, 46410, Note_on_c, 1, 76, 127
1, 46410, Note_on_c, 1, 67, 127
1, 46410, Note_on_c, 1, 49, 127
1, 46439, Note_off_c, 1, 64, 0
1, 46439, Note_off_c, 1, 57, 0
1, 46439, Note_off_c, 1, 76, 0
1, 46439, Note_off_c, 1, 67, 0
1, 46439, Note_off_c, 1, 49, 0
1, 46440, Note_on_c, 1, 78, 127
1, 46440, Note_on_c, 1, 62, 127
1, 46440, Note_on_c, 1, 57, 127
1, 46440, Note_on_c, 1, 66, 127
1, 46440, Note_on_c, 1, 50, 127
1, 46469, Note_off_c, 1, 50, 0
1, 46499, Note_off_c, 1, 78, 0
1, 46499, Note_off_c, 1, 62, 0
1, 46499, Note_off_c, 1, 57, 0
1, 46499, Note_off_c, 1, 66, 0
1, 46500, Note_on_c, 1, 78, 127
1, 46500, Note_on_c, 1, 74, 127
1, 46500, Note_on_c, 1, 69, 127
1, 46500, Note_on_c, 1, 50, 127
1, 46500, Note_on_c, 1, 66, 127
1, 46500, Note_on_c, 1, 62, 127
1, 46500, Note_on_c, 1, 67, 127
1, 46500, Note_on_c, 1, 59, 127
1, 46529, Note_off_c, 1, 50, 0
1, 46529, Note_off_c, 1, 67, 0
1, 46529, Note_off_c, 1, 59, 0
1, 46530, Note_on_c, 1, 61, 127
1, 46559, Note_off_c, 1, 78, 0
1, 46559, Note_off_c, 1, 74, 0
1, 46559, Note_off_c, 1, 69, 0
1, 46559, Note_off_c, 1, 66, 0
1, 46559, Note_off_c, 1, 62, 0
1, 46559, Note_off_c, 1, 61, 0
1, 46560, Note_on_c, 1, 78, 127
1, 46560, Note_on_c, 1, 74, 127
1, 46560, Note_on_c, 1, 69, 127
1, 46560, Note_on_c, 1, 50, 127
1, 46560, Note_on_c, 1, 66, 127
1, 46560, Note_on_c, 1, 62, 127
1, 46560, Note_on_c, 1, 71, 127
1, 46589, Note_off_c, 1, 50, 0
1, 46589, Note_off_c, 1, 71, 0
1, 46590, Note_on_c, 1, 73, 127
1, 46590, Note_on_c, 1, 76, 127
1, 46590, Note_on_c, 1, 64, 127
1, 46619, Note_off_c, 1, 78, 0
1, 46619, Note_off_c, 1, 74, 0
1, 46619, Note_off_c, 1, 69, 0
1, 46619, Note_off_c, 1, 66, 0
1, 46619, Note_off_c, 1, 62, 0
1, 46619, Note_off_c, 1, 73, 0
1, 46619, Note_off_c, 1, 76, 0
1, 46619, Note_off_c, 1, 64, 0
1, 46620, Note_on_c, 1, 78, 127
1, 46620, Note_on_c, 1, 74, 127
1, 46620, Note_on_c, 1, 69, 127
1, 46620, Note_on_c, 1, 50, 127
1, 46620, Note_on_c, 1, 66, 127
1, 46620, Note_on_c, 1, 62, 127
1, 46649, Note_off_c, 1, 50, 0
1, 46650, Note_on_c, 1, 76, 127
1, 46650, Note_on_c, 1, 73, 127
1, 46650, Note_on_c, 1, 64, 127
1, 46679, Note_off_c, 1, 78, 0
1, 46679, Note_off_c, 1, 74, 0
1, 46679, Note_off_c, 1, 69, 0
1, 46679, Note_off_c, 1, 66, 0
1, 46679, Note_off_c, 1, 62, 0
1, 46679, Note_off_c, 1, 76, 0
1, 46679, Note_off_c, 1, 73, 0
1, 46679, Note_off_c, 1, 64, 0
1, 46680, Note_on_c, 1, 78, 127
1, 46680, Note_on_c, 1, 74, 127
1, 46680, Note_on_c, 1, 69, 127
1, 46680, Note_on_c, 1, 50, 127
1, 46680, Note_on_c, 1, 66, 127
1, 46680, Note_on_c, 1, 62, 127
1, 46680, Note_on_c, 1, 71, 127
1, 46709, Note_off_c, 1, 71, 0
1, 46710, Note_on_c, 1, 61, 127
1, 46739, Note_off_c, 1, 78, 0
1, 46739, Note_off_c, 1, 74, 0
1, 46739, Note_off_c, 1, 69, 0
1, 46739, Note_off_c, 1, 50, 0
1, 46739, Note_off_c, 1, 66, 0
1, 46739, Note_off_c, 1, 62, 0
1, 46739, Note_off_c, 1, 61, 0
1, 46740, Note_on_c, 1, 78, 127
1, 46740, Note_on_c, 1, 74, 127
1, 46740, Note_on_c, 1, 69, 127
1, 46740, Note_on_c, 1, 66, 127
1, 46740, Note_on_c, 1, 62, 127
1, 46740, Note_on_c, 1, 68, 127
1, 46740, Note_on_c, 1, 71, 127
1, 46740, Note_on_c, 1, 59, 127
1, 46769, Note_off_c, 1, 68, 0
1, 46769, Note_off_c, 1, 71, 0
1, 46769, Note_off_c, 1, 59, 0
1, 46770, Note_on_c, 1, 73, 127
1, 46770, Note_on_c, 1, 57, 127
1, 46799, Note_off_c, 1, 78, 0
1, 46799, Note_off_c, 1, 74, 0
1, 46799, Note_off_c, 1, 69, 0
1, 46799, Note_off_c, 1, 66, 0
1, 46799, Note_off_c, 1, 62, 0
1, 46799, Note_off_c, 1, 73, 0
1, 46799, Note_off_c, 1, 57, 0
1, 46800, Note_on_c, 1, 68, 127
1, 46800, Note_on_c, 1, 74, 127
1, 46800, Note_on_c, 1, 59, 127
1, 46829, Note_off_c, 1, 74, 0
1, 46829, Note_off_c, 1, 59, 0
1, 46830, Note_on_c, 1, 69, 127
1, 46830, Note_on_c, 1, 72, 127
1, 46830, Note_on_c, 1, 60, 127
1, 46859, Note_off_c, 1, 68, 0
1, 46859, Note_off_c, 1, 69, 0
1, 46859, Note_off_c, 1, 72, 0
1, 46859, Note_off_c, 1, 60, 0
1, 46860, Note_on_c, 1, 77, 127
1, 46860, Note_on_c, 1, 83, 127
1, 46860, Note_on_c, 1, 74, 127
1, 46860, Note_on_c, 1, 50, 127
1, 46860, Note_on_c, 1, 68, 127
1, 46860, Note_on_c, 1, 62, 127
1, 46860, Note_on_c, 1, 71, 127
1, 46889, Note_off_c, 1, 50, 0
1, 46889, Note_off_c, 1, 71, 0
1, 46890, Note_on_c, 1, 69, 127
1, 46890, Note_on_c, 1, 60, 127
1, 46919, Note_off_c, 1, 77, 0
1, 46919, Note_off_c, 1, 83, 0
1, 46919, Note_off_c, 1, 74, 0
1, 46919, Note_off_c, 1, 68, 0
1, 46919, Note_off_c, 1, 62, 0
1, 46919, Note_off_c, 1, 69, 0
1, 46919, Note_off_c, 1, 60, 0
1, 46920, Note_on_c, 1, 77, 127
1, 46920, Note_on_c, 1, 83, 127
1, 46920, Note_on_c, 1, 74, 127
1, 46920, Note_on_c, 1, 50, 127
1, 46920, Note_on_c, 1, 68, 127
1, 46920, Note_on_c, 1, 62, 127
1, 46920, Note_on_c, 1, 71, 127
1, 46920, Note_on_c, 1, 59, 127
1, 46949, Note_off_c, 1, 50, 0
1, 46949, Note_off_c, 1, 71, 0
1, 46949, Note_off_c, 1, 59, 0
1, 46950, Note_on_c, 1, 73, 127
1, 46950, Note_on_c, 1, 76, 127
1, 46950, Note_on_c, 1, 57, 127
1, 46979, Note_off_c, 1, 77, 0
1, 46979, Note_off_c, 1, 83, 0
1, 46979, Note_off_c, 1, 74, 0
1, 46979, Note_off_c, 1, 68, 0
1, 46979, Note_off_c, 1, 62, 0
1, 46979, Note_off_c, 1, 73, 0
1, 46979, Note_off_c, 1, 76, 0
1, 46979, Note_off_c, 1, 57, 0
1, 46980, Note_on_c, 1, 77, 127
1, 46980, Note_on_c, 1, 83, 127
1, 46980, Note_on_c, 1, 74, 127
1, 46980, Note_on_c, 1, 50, 127
1, 46980, Note_on_c, 1, 68, 127
1, 46980, Note_on_c, 1, 62, 127
1, 46980, Note_on_c, 1, 56, 127
1, 47009, Note_off_c, 1, 50, 0
1, 47009, Note_off_c, 1, 56, 0
1, 47010, Note_on_c, 1, 76, 127
1, 47010, Note_on_c, 1, 72, 127
1, 47010, Note_on_c, 1, 54, 127
1, 47039, Note_off_c, 1, 77, 0
1, 47039, Note_off_c, 1, 83, 0
1, 47039, Note_off_c, 1, 74, 0
1, 47039, Note_off_c, 1, 68, 0
1, 47039, Note_off_c, 1, 62, 0
1, 47039, Note_off_c, 1, 76, 0
1, 47039, Note_off_c, 1, 72, 0
1, 47039, Note_off_c, 1, 54, 0
1, 47040, Note_on_c, 1, 77, 127
1, 47040, Note_on_c, 1, 83, 127
1, 47040, Note_on_c, 1, 74, 127
1, 47040, Note_on_c, 1, 50, 127
1, 47040, Note_on_c, 1, 68, 127
1, 47040, Note_on_c, 1, 62, 127
1, 47040, Note_on_c, 1, 71, 127
1, 47040, Note_on_c, 1, 56, 127
1, 47069, Note_off_c, 1, 71, 0
1, 47069, Note_off_c, 1, 56, 0
1, 47070, Note_on_c, 1, 69, 127
1, 47070, Note_on_c, 1, 66, 127
1, 47070, Note_on_c, 1, 57, 127
1, 47099, Note_off_c, 1, 77, 0
1, 47099, Note_off_c, 1, 83, 0
1, 47099, Note_off_c, 1, 74, 0
1, 47099, Note_off_c, 1, 50, 0
1, 47099, Note_off_c, 1, 68, 0
1, 47099, Note_off_c, 1, 62, 0
1, 47099, Note_off_c, 1, 69, 0
1, 47099, Note_off_c, 1, 66, 0
1, 47099, Note_off_c, 1, 57, 0
1, 47100, Note_on_c, 1, 77, 127
1, 47100, Note_on_c, 1, 83, 127
1, 47100, Note_on_c, 1, 74, 127
1, 47100, Note_on_c, 1, 68, 127
1, 47100, Note_on_c, 1, 62, 127
1, 47100, Note_on_c, 1, 59, 127
1, 47129, Note_off_c, 1, 59, 0
1, 47130, Note_on_c, 1, 66, 127
1, 47130, Note_on_c, 1, 69, 127
1, 47130, Note_on_c, 1, 57, 127
1, 47159, Note_off_c, 1, 77, 0
1, 47159, Note_off_c, 1, 83, 0
1, 47159, Note_off_c, 1, 74, 0
1, 47159, Note_off_c, 1, 68, 0
1, 47159, Note_off_c, 1, 62, 0
1, 47159, Note_off_c, 1, 66, 0
1, 47159, Note_off_c, 1, 69, 0
1, 47159, Note_off_c, 1, 57, 0
1, 47160, Note_on_c, 1, 64, 127
1, 47160, Note_on_c, 1, 71, 127
1, 47160, Note_on_c, 1, 56, 127
1, 47189, Note_off_c, 1, 71, 0
1, 47189, Note_off_c, 1, 56, 0
1, 47190, Note_on_c, 1, 74, 127
1, 47190, Note_on_c, 1, 69, 127
1, 47190, Note_on_c, 1, 54, 127
1, 47219, Note_off_c, 1, 64, 0
1, 47219, Note_off_c, 1, 74, 0
1, 47219, Note_off_c, 1, 69, 0
1, 47219, Note_off_c, 1, 54, 0
1, 47220, Note_on_c, 1, 76, 127
1, 47220, Note_on_c, 1, 83, 127
1, 47220, Note_on_c, 1, 74, 127
1, 47220, Note_on_c, 1, 50, 127
1, 47220, Note_on_c, 1, 71, 127
1, 47220, Note_on_c, 1, 64, 127
1, 47220, Note_on_c, 1, 68, 127
1, 47220, Note_on_c, 1, 52, 127
1, 47249, Note_off_c, 1, 50, 0
1, 47249, Note_off_c, 1, 68, 0
1, 47249, Note_off_c, 1, 52, 0
1, 47250, Note_on_c, 1, 78, 127
1, 47250, Note_on_c, 1, 66, 127
1, 47279, Note_off_c, 1, 76, 0
1, 47279, Note_off_c, 1, 83, 0
1, 47279, Note_off_c, 1, 74, 0
1, 47279, Note_off_c, 1, 71, 0
1, 47279, Note_off_c, 1, 64, 0
1, 47279, Note_off_c, 1, 78, 0
1, 47279, Note_off_c, 1, 66, 0
1, 47280, Note_on_c, 1, 76, 127
1, 47280, Note_on_c, 1, 83, 127
1, 47280, Note_on_c, 1, 74, 127
1, 47280, Note_on_c, 1, 50, 127
1, 47280, Note_on_c, 1, 71, 127
1, 47280, Note_on_c, 1, 64, 127
1, 47280, Note_on_c, 1, 80, 127
1, 47280, Note_on_c, 1, 52, 127
1, 47309, Note_off_c, 1, 50, 0
1, 47309, Note_off_c, 1, 80, 0
1, 47309, Note_off_c, 1, 52, 0
1, 47310, Note_on_c, 1, 81, 127
1, 47310, Note_on_c, 1, 73, 127
1, 47310, Note_on_c, 1, 54, 127
1, 47339, Note_off_c, 1, 76, 0
1, 47339, Note_off_c, 1, 83, 0
1, 47339, Note_off_c, 1, 74, 0
1, 47339, Note_off_c, 1, 71, 0
1, 47339, Note_off_c, 1, 64, 0
1, 47339, Note_off_c, 1, 81, 0
1, 47339, Note_off_c, 1, 73, 0
1, 47339, Note_off_c, 1, 54, 0
1, 47340, Note_on_c, 1, 76, 127
1, 47340, Note_on_c, 1, 83, 127
1, 47340, Note_on_c, 1, 74, 127
1, 47340, Note_on_c, 1, 50, 127
1, 47340, Note_on_c, 1, 71, 127
1, 47340, Note_on_c, 1, 64, 127
1, 47340, Note_on_c, 1, 56, 127
1, 47369, Note_off_c, 1, 50, 0
1, 47369, Note_off_c, 1, 56, 0
1, 47370, Note_on_c, 1, 85, 127
1, 47370, Note_on_c, 1, 69, 127
1, 47370, Note_on_c, 1, 54, 127
1, 47399, Note_off_c, 1, 76, 0
1, 47399, Note_off_c, 1, 83, 0
1, 47399, Note_off_c, 1, 74, 0
1, 47399, Note_off_c, 1, 71, 0
1, 47399, Note_off_c, 1, 64, 0
1, 47399, Note_off_c, 1, 85, 0
1, 47399, Note_off_c, 1, 69, 0
1, 47399, Note_off_c, 1, 54, 0
1, 47400, Note_on_c, 1, 76, 127
1, 47400, Note_on_c, 1, 83, 127
1, 47400, Note_on_c, 1, 74, 127
1, 47400, Note_on_c, 1, 50, 127
1, 47400, Note_on_c, 1, 71, 127
1, 47400, Note_on_c, 1, 64, 127
1, 47400, Note_on_c, 1, 86, 127
1, 47400, Note_on_c, 1, 68, 127
1, 47400, Note_on_c, 1, 52, 127
1, 47429, Note_off_c, 1, 68, 0
1, 47429, Note_off_c, 1, 52, 0
1, 47430, Note_on_c, 1, 66, 127
1, 47430, Note_on_c, 1, 59, 127
1, 47459, Note_off_c, 1, 76, 0
1, 47459, Note_off_c, 1, 83, 0
1, 47459, Note_off_c, 1, 74, 0
1, 47459, Note_off_c, 1, 50, 0
1, 47459, Note_off_c, 1, 71, 0
1, 47459, Note_off_c, 1, 64, 0
1, 47459, Note_off_c, 1, 86, 0
1, 47459, Note_off_c, 1, 66, 0
1, 47459, Note_off_c, 1, 59, 0
1, 47460, Note_on_c, 1, 76, 127
1, 47460, Note_on_c, 1, 83, 127
1, 47460, Note_on_c, 1, 74, 127
1, 47460, Note_on_c, 1, 71, 127
1, 47460, Note_on_c, 1, 64, 127
1, 47460, Note_on_c, 1, 69, 127
1, 47460, Note_on_c, 1, 66, 127
1, 47460, Note_on_c, 1, 61, 127
1, 47460, Note_on_c, 1, 49, 127
1, 47489, Note_off_c, 1, 69, 0
1, 47489, Note_off_c, 1, 66, 0
1, 47489, Note_off_c, 1, 61, 0
1, 47489, Note_off_c, 1, 49, 0
1, 47490, Note_on_c, 1, 62, 127
1, 47490, Note_on_c, 1, 68, 127
1, 47490, Note_on_c, 1, 47, 127
1, 47519, Note_off_c, 1, 76, 0
1, 47519, Note_off_c, 1, 83, 0
1, 47519, Note_off_c, 1, 74, 0
1, 47519, Note_off_c, 1, 71, 0
1, 47519, Note_off_c, 1, 64, 0
1, 47519, Note_off_c, 1, 62, 0
1, 47519, Note_off_c, 1, 68, 0
1, 47519, Note_off_c, 1, 47, 0
1, 47520, Note_on_c, 1, 85, 127
1, 47520, Note_on_c, 1, 76, 127
1, 47520, Note_on_c, 1, 81, 127
1, 47520, Note_on_c, 1, 45, 127
1, 47520, Note_on_c, 1, 73, 127
1, 47520, Note_on_c, 1, 64, 127
1, 47520, Note_on_c, 1, 69, 127
1, 47549, Note_off_c, 1, 45, 0
1, 47579, Note_off_c, 1, 85, 0
1, 47579, Note_off_c, 1, 76, 0
1, 47579, Note_off_c, 1, 81, 0
1, 47579, Note_off_c, 1, 73, 0
1, 47579, Note_off_c, 1, 64, 0
1, 47579, Note_off_c, 1, 69, 0
1, 47580, Note_on_c, 1, 81, 127
1, 47580, Note_on_c, 1, 69, 127
1, 47580, Note_on_c, 1, 76, 127
1, 47580, Note_on_c, 1, 45, 127
1, 47580, Note_on_c, 1, 64, 127
1, 47580, Note_on_c, 1, 57, 127
1, 47580, Note_on_c, 1, 73, 127
1, 47580, Note_on_c, 1, 47, 127
1, 47594, Note_off_c, 1, 45, 0
1, 47609, Note_off_c, 1, 47, 0
1, 47610, Note_on_c, 1, 49, 127
1, 47639, Note_off_c, 1, 81, 0
1, 47639, Note_off_c, 1, 69, 0
1, 47639, Note_off_c, 1, 76, 0
1, 47639, Note_off_c, 1, 64, 0
1, 47639, Note_off_c, 1, 57, 0
1, 47639, Note_off_c, 1, 73, 0
1, 47639, Note_off_c, 1, 49, 0
1, 47640, Note_on_c, 1, 45, 127
1, 47640, Note_on_c, 1, 64, 127
1, 47640, Note_on_c, 1, 57, 127
1, 47640, Note_on_c, 1, 81, 127
1, 47640, Note_on_c, 1, 76, 127
1, 47640, Note_on_c, 1, 73, 127
1, 47640, Note_on_c, 1, 50, 127
1, 47654, Note_off_c, 1, 45, 0
1, 47669, Note_off_c, 1, 50, 0
1, 47670, Note_on_c, 1, 52, 127
1, 47699, Note_off_c, 1, 64, 0
1, 47699, Note_off_c, 1, 57, 0
1, 47699, Note_off_c, 1, 81, 0
1, 47699, Note_off_c, 1, 76, 0
1, 47699, Note_off_c, 1, 73, 0
1, 47699, Note_off_c, 1, 52, 0
1, 47700, Note_on_c, 1, 45, 127
1, 47700, Note_on_c, 1, 64, 127
1, 47700, Note_on_c, 1, 57, 127
1, 47700, Note_on_c, 1, 76, 127
1, 47700, Note_on_c, 1, 73, 127
1, 47700, Note_on_c, 1, 69, 127
1, 47700, Note_on_c, 1, 54, 127
1, 47714, Note_off_c, 1, 45, 0
1, 47729, Note_off_c, 1, 54, 0
1, 47730, Note_on_c, 1, 55, 127
1, 47759, Note_off_c, 1, 64, 0
1, 47759, Note_off_c, 1, 57, 0
1, 47759, Note_off_c, 1, 76, 0
1, 47759, Note_off_c, 1, 73, 0
1, 47759, Note_off_c, 1, 69, 0
1, 47759, Note_off_c, 1, 55, 0
1, 47760, Note_on_c, 1, 45, 127
1, 47760, Note_on_c, 1, 64, 127
1, 47760, Note_on_c, 1, 57, 127
1, 47760, Note_on_c, 1, 76, 127
1, 47760, Note_on_c, 1, 73, 127
1, 47760, Note_on_c, 1, 69, 127
1, 47774, Note_off_c, 1, 45, 0
1, 47790, Note_on_c, 1, 55, 127
1, 47819, Note_off_c, 1, 64, 0
1, 47819, Note_off_c, 1, 57, 0
1, 47819, Note_off_c, 1, 76, 0
1, 47819, Note_off_c, 1, 73, 0
1, 47819, Note_off_c, 1, 69, 0
1, 47819, Note_off_c, 1, 55, 0
1, 47820, Note_on_c, 1, 45, 127
1, 47820, Note_on_c, 1, 62, 127
1, 47820, Note_on_c, 1, 54, 127
1, 47820, Note_on_c, 1, 73, 127
1, 47820, Note_on_c, 1, 69, 127
1, 47820, Note_on_c, 1, 64, 127
1, 47820, Note_on_c, 1, 57, 127
1, 47834, Note_off_c, 1, 45, 0
1, 47849, Note_off_c, 1, 62, 0
1, 47849, Note_off_c, 1, 54, 0
1, 47849, Note_off_c, 1, 57, 0
1, 47850, Note_on_c, 1, 55, 127
1, 47879, Note_off_c, 1, 73, 0
1, 47879, Note_off_c, 1, 69, 0
1, 47879, Note_off_c, 1, 64, 0
1, 47879, Note_off_c, 1, 55, 0
1, 47880, Note_on_c, 1, 86, 127
1, 47880, Note_on_c, 1, 81, 127
1, 47880, Note_on_c, 1, 78, 127
1, 47880, Note_on_c, 1, 45, 127
1, 47880, Note_on_c, 1, 66, 127
1, 47880, Note_on_c, 1, 62, 127
1, 47880, Note_on_c, 1, 57, 127
1, 47894, Note_off_c, 1, 45, 0
1, 47909, Note_off_c, 1, 57, 0
1, 47939, Note_off_c, 1, 86, 0
1, 47939, Note_off_c, 1, 81, 0
1, 47939, Note_off_c, 1, 78, 0
1, 47939, Note_off_c, 1, 66, 0
1, 47939, Note_off_c, 1, 62, 0
1, 47940, Note_on_c, 1, 81, 127
1, 47940, Note_on_c, 1, 78, 127
1, 47940, Note_on_c, 1, 74, 127
1, 47940, Note_on_c, 1, 45, 127
1, 47940, Note_on_c, 1, 66, 127
1, 47940, Note_on_c, 1, 62, 127
1, 47940, Note_on_c, 1, 47, 127
1, 47954, Note_off_c, 1, 45, 0
1, 47969, Note_off_c, 1, 47, 0
1, 47970, Note_on_c, 1, 49, 127
1, 47999, Note_off_c, 1, 81, 0
1, 47999, Note_off_c, 1, 78, 0
1, 47999, Note_off_c, 1, 74, 0
1, 47999, Note_off_c, 1, 66, 0
1, 47999, Note_off_c, 1, 62, 0
1, 47999, Note_off_c, 1, 49, 0
1, 48000, Note_on_c, 1, 45, 127
1, 48000, Note_on_c, 1, 66, 127
1, 48000, Note_on_c, 1, 62, 127
1, 48000, Note_on_c, 1, 81, 127
1, 48000, Note_on_c, 1, 78, 127
1, 48000, Note_on_c, 1, 74, 127
1, 48000, Note_on_c, 1, 50, 127
1, 48014, Note_off_c, 1, 45, 0
1, 48029, Note_off_c, 1, 50, 0
1, 48030, Note_on_c, 1, 52, 127
1, 48059, Note_off_c, 1, 66, 0
1, 48059, Note_off_c, 1, 62, 0
1, 48059, Note_off_c, 1, 81, 0
1, 48059, Note_off_c, 1, 78, 0
1, 48059, Note_off_c, 1, 74, 0
1, 48059, Note_off_c, 1, 52, 0
1, 48060, Note_on_c, 1, 45, 127
1, 48060, Note_on_c, 1, 66, 127
1, 48060, Note_on_c, 1, 62, 127
1, 48060, Note_on_c, 1, 78, 127
1, 48060, Note_on_c, 1, 74, 127
1, 48060, Note_on_c, 1, 69, 127
1, 48060, Note_on_c, 1, 54, 127
1, 48074, Note_off_c, 1, 45, 0
1, 48089, Note_off_c, 1, 54, 0
1, 48090, Note_on_c, 1, 55, 127
1, 48119, Note_off_c, 1, 66, 0
1, 48119, Note_off_c, 1, 62, 0
1, 48119, Note_off_c, 1, 78, 0
1, 48119, Note_off_c, 1, 74, 0
1, 48119, Note_off_c, 1, 69, 0
1, 48119, Note_off_c, 1, 55, 0
1, 48120, Note_on_c, 1, 45, 127
1, 48120, Note_on_c, 1, 66, 127
1, 48120, Note_on_c, 1, 62, 127
1, 48120, Note_on_c, 1, 78, 127
1, 48120, Note_on_c, 1, 74, 127
1, 48120, Note_on_c, 1, 69, 127
1, 48120, Note_on_c, 1, 57, 127
1, 48134, Note_off_c, 1, 45, 0
1, 48149, Note_off_c, 1, 57, 0
1, 48150, Note_on_c, 1, 55, 127
1, 48179, Note_off_c, 1, 66, 0
1, 48179, Note_off_c, 1, 62, 0
1, 48179, Note_off_c, 1, 78, 0
1, 48179, Note_off_c, 1, 74, 0
1, 48179, Note_off_c, 1, 69, 0
1, 48179, Note_off_c, 1, 55, 0
1, 48180, Note_on_c, 1, 45, 127
1, 48180, Note_on_c, 1, 64, 127
1, 48180, Note_on_c, 1, 57, 127
1, 48180, Note_on_c, 1, 74, 127
1, 48180, Note_on_c, 1, 69, 127
1, 48180, Note_on_c, 1, 66, 127
1, 48194, Note_off_c, 1, 45, 0
1, 48209, Note_off_c, 1, 64, 0
1, 48209, Note_off_c, 1, 57, 0
1, 48210, Note_on_c, 1, 62, 127
1, 48210, Note_on_c, 1, 55, 127
1, 48239, Note_off_c, 1, 74, 0
1, 48239, Note_off_c, 1, 69, 0
1, 48239, Note_off_c, 1, 66, 0
1, 48239, Note_off_c, 1, 62, 0
1, 48239, Note_off_c, 1, 55, 0
1, 48240, Note_on_c, 1, 85, 127
1, 48240, Note_on_c, 1, 81, 127
1, 48240, Note_on_c, 1, 76, 127
1, 48240, Note_on_c, 1, 45, 127
1, 48240, Note_on_c, 1, 67, 127
1, 48240, Note_on_c, 1, 64, 127
1, 48240, Note_on_c, 1, 57, 127
1, 48269, Note_off_c, 1, 57, 0
1, 48299, Note_off_c, 1, 85, 0
1, 48299, Note_off_c, 1, 81, 0
1, 48299, Note_off_c, 1, 76, 0
1, 48299, Note_off_c, 1, 67, 0
1, 48299, Note_off_c, 1, 64, 0
1, 48300, Note_on_c, 1, 69, 127
1, 48300, Note_on_c, 1, 47, 127
1, 48329, Note_off_c, 1, 47, 0
1, 48330, Note_on_c, 1, 49, 127
1, 48359, Note_off_c, 1, 69, 0
1, 48359, Note_off_c, 1, 49, 0
1, 48360, Note_on_c, 1, 73, 127
1, 48360, Note_on_c, 1, 50, 127
1, 48389, Note_off_c, 1, 50, 0
1, 48390, Note_on_c, 1, 52, 127
1, 48419, Note_off_c, 1, 73, 0
1, 48419, Note_off_c, 1, 52, 0
1, 48420, Note_on_c, 1, 54, 127
1, 48449, Note_off_c, 1, 54, 0
1, 48450, Note_on_c, 1, 55, 127
1, 48479, Note_off_c, 1, 45, 0
1, 48479, Note_off_c, 1, 55, 0
1, 48480, Note_on_c, 1, 67, 127
1, 48480, Note_on_c, 1, 64, 127
1, 48480, Note_on_c, 1, 76, 127
1, 48480, Note_on_c, 1, 73, 127
1, 48480, Note_on_c, 1, 69, 127
1, 48480, Note_on_c, 1, 57, 127
1, 48509, Note_off_c, 1, 57, 0
1, 48510, Note_on_c, 1, 55, 127
1, 48539, Note_off_c, 1, 67, 0
1, 48539, Note_off_c, 1, 64, 0
1, 48539, Note_off_c, 1, 76, 0
1, 48539, Note_off_c, 1, 73, 0
1, 48539, Note_off_c, 1, 69, 0
1, 48539, Note_off_c, 1, 55, 0
1, 48540, Note_on_c, 1, 66, 127
1, 48540, Note_on_c, 1, 62, 127
1, 48540, Note_on_c, 1, 73, 127
1, 48540, Note_on_c, 1, 69, 127
1, 48540, Note_on_c, 1, 64, 127
1, 48540, Note_on_c, 1, 57, 127
1, 48569, Note_off_c, 1, 66, 0
1, 48569, Note_off_c, 1, 62, 0
1, 48569, Note_off_c, 1, 57, 0
1, 48570, Note_on_c, 1, 67, 127
1, 48570, Note_on_c, 1, 55, 127
1, 48599, Note_off_c, 1, 73, 0
1, 48599, Note_off_c, 1, 69, 0
1, 48599, Note_off_c, 1, 64, 0
1, 48599, Note_off_c, 1, 67, 0
1, 48599, Note_off_c, 1, 55, 0
1, 48600, Note_on_c, 1, 69, 127
1, 48600, Note_on_c, 1, 66, 127
1, 48600, Note_on_c, 1, 74, 127
1, 48600, Note_on_c, 1, 62, 127
1, 48600, Note_on_c, 1, 54, 127
1, 48629, Note_off_c, 1, 74, 0
1, 48629, Note_off_c, 1, 54, 0
1, 48630, Note_off_c, 1, 62, 0
1, 48630, Note_on_c, 1, 78, 127
1, 48630, Note_on_c, 1, 50, 127
1, 48659, Note_off_c, 1, 50, 0
1, 48660, Note_on_c, 1, 81, 127
1, 48660, Note_on_c, 1, 67, 127
1, 48660, Note_on_c, 1, 76, 127
1, 48660, Note_on_c, 1, 73, 127
1, 48660, Note_on_c, 1, 52, 127
1, 48689, Note_off_c, 1, 67, 0
1, 48689, Note_off_c, 1, 73, 0
1, 48689, Note_off_c, 1, 52, 0
1, 48690, Note_off_c, 1, 76, 0
1, 48690, Note_on_c, 1, 71, 127
1, 48719, Note_off_c, 1, 78, 0
1, 48719, Note_off_c, 1, 81, 0
1, 48719, Note_off_c, 1, 71, 0
1, 48720, Note_on_c, 1, 55, 127
1, 48749, Note_off_c, 1, 55, 0
1, 48750, Note_on_c, 1, 57, 127
1, 48779, Note_off_c, 1, 57, 0
1, 48780, Note_on_c, 1, 59, 127
1, 48809, Note_off_c, 1, 59, 0
1, 48810, Note_on_c, 1, 64, 127
1, 48810, Note_on_c, 1, 61, 127
1, 48839, Note_off_c, 1, 64, 0
1, 48839, Note_off_c, 1, 61, 0
1, 48900, Note_on_c, 1, 83, 127
1, 48929, Note_off_c, 1, 83, 0
1, 48930, Note_on_c, 1, 85, 127
1, 48959, Note_off_c, 1, 85, 0
1, 48960, Note_on_c, 1, 86, 127
1, 48990, Note_on_c, 1, 47, 127
1, 49019, Note_off_c, 1, 86, 0
1, 49019, Note_off_c, 1, 47, 0
1, 49020, Note_on_c, 1, 49, 127
1, 49049, Note_off_c, 1, 49, 0
1, 49080, Note_on_c, 1, 79, 127
1, 49109, Note_off_c, 1, 79, 0
1, 49230, Note_off_c, 1, 69, 0
1, 49259, Note_off_c, 1, 66, 0
1, 49260, Note_on_c, 1, 79, 127
1, 49260, Note_on_c, 1, 74, 127
1, 49260, Note_on_c, 1, 66, 127
1, 49260, Note_on_c, 1, 67, 127
1, 49260, Note_on_c, 1, 64, 127
1, 49260, Note_on_c, 1, 86, 127
1, 49260, Note_on_c, 1, 59, 127
1, 49289, Note_off_c, 1, 79, 0
1, 49289, Note_off_c, 1, 67, 0
1, 49289, Note_off_c, 1, 64, 0
1, 49289, Note_off_c, 1, 86, 0
1, 49289, Note_off_c, 1, 59, 0
1, 49290, Note_on_c, 1, 81, 127
1, 49290, Note_on_c, 1, 69, 127
1, 49290, Note_on_c, 1, 85, 127
1, 49290, Note_on_c, 1, 57, 127
1, 49319, Note_off_c, 1, 74, 0
1, 49319, Note_off_c, 1, 66, 0
1, 49319, Note_off_c, 1, 81, 0
1, 49319, Note_off_c, 1, 69, 0
1, 49319, Note_off_c, 1, 85, 0
1, 49319, Note_off_c, 1, 57, 0
1, 49320, Note_on_c, 1, 83, 127
1, 49320, Note_on_c, 1, 71, 127
1, 49320, Note_on_c, 1, 67, 127
1, 49320, Note_on_c, 1, 74, 127
1, 49320, Note_on_c, 1, 55, 127
1, 49349, Note_off_c, 1, 83, 0
1, 49349, Note_off_c, 1, 71, 0
1, 49349, Note_off_c, 1, 55, 0
1, 49350, Note_on_c, 1, 81, 127
1, 49350, Note_on_c, 1, 69, 127
1, 49350, Note_on_c, 1, 54, 127
1, 49379, Note_off_c, 1, 67, 0
1, 49379, Note_off_c, 1, 74, 0
1, 49379, Note_off_c, 1, 81, 0
1, 49379, Note_off_c, 1, 69, 0
1, 49379, Note_off_c, 1, 54, 0
1, 49380, Note_on_c, 1, 83, 127
1, 49380, Note_on_c, 1, 74, 127
1, 49380, Note_on_c, 1, 71, 127
1, 49380, Note_on_c, 1, 62, 127
1, 49380, Note_on_c, 1, 55, 127
1, 49409, Note_off_c, 1, 83, 0
1, 49409, Note_off_c, 1, 55, 0
1, 49410, Note_on_c, 1, 81, 127
1, 49410, Note_on_c, 1, 69, 127
1, 49410, Note_on_c, 1, 54, 127
1, 49439, Note_off_c, 1, 74, 0
1, 49439, Note_off_c, 1, 71, 0
1, 49439, Note_off_c, 1, 62, 0
1, 49439, Note_off_c, 1, 81, 0
1, 49439, Note_off_c, 1, 69, 0
1, 49439, Note_off_c, 1, 54, 0
1, 49440, Note_on_c, 1, 79, 127
1, 49440, Note_on_c, 1, 76, 127
1, 49440, Note_on_c, 1, 67, 127
1, 49440, Note_on_c, 1, 64, 127
1, 49440, Note_on_c, 1, 73, 127
1, 49440, Note_on_c, 1, 52, 127
1, 49469, Note_off_c, 1, 79, 0
1, 49469, Note_off_c, 1, 76, 0
1, 49469, Note_off_c, 1, 67, 0
1, 49469, Note_off_c, 1, 64, 0
1, 49469, Note_off_c, 1, 73, 0
1, 49469, Note_off_c, 1, 52, 0
1, 49470, Note_on_c, 1, 78, 127
1, 49470, Note_on_c, 1, 66, 127
1, 49470, Note_on_c, 1, 74, 127
1, 49470, Note_on_c, 1, 50, 127
1, 49499, Note_off_c, 1, 78, 0
1, 49499, Note_off_c, 1, 66, 0
1, 49499, Note_off_c, 1, 74, 0
1, 49499, Note_off_c, 1, 50, 0
1, 49500, Note_on_c, 1, 79, 127
1, 49500, Note_on_c, 1, 76, 127
1, 49500, Note_on_c, 1, 67, 127
1, 49500, Note_on_c, 1, 64, 127
1, 49500, Note_on_c, 1, 73, 127
1, 49500, Note_on_c, 1, 52, 127
1, 49529, Note_off_c, 1, 79, 0
1, 49529, Note_off_c, 1, 76, 0
1, 49529, Note_off_c, 1, 67, 0
1, 49529, Note_off_c, 1, 64, 0
1, 49529, Note_off_c, 1, 73, 0
1, 49529, Note_off_c, 1, 52, 0
1, 49530, Note_on_c, 1, 78, 127
1, 49530, Note_on_c, 1, 66, 127
1, 49530, Note_on_c, 1, 74, 127
1, 49530, Note_on_c, 1, 50, 127
1, 49559, Note_off_c, 1, 78, 0
1, 49559, Note_off_c, 1, 66, 0
1, 49559, Note_off_c, 1, 74, 0
1, 49559, Note_off_c, 1, 50, 0
1, 49560, Note_on_c, 1, 76, 127
1, 49560, Note_on_c, 1, 79, 127
1, 49560, Note_on_c, 1, 64, 127
1, 49560, Note_on_c, 1, 67, 127
1, 49560, Note_on_c, 1, 49, 127
1, 49589, Note_off_c, 1, 79, 0
1, 49589, Note_off_c, 1, 64, 0
1, 49589, Note_off_c, 1, 67, 0
1, 49589, Note_off_c, 1, 49, 0
1, 49590, Note_on_c, 1, 74, 127
1, 49590, Note_on_c, 1, 81, 127
1, 49590, Note_on_c, 1, 62, 127
1, 49590, Note_on_c, 1, 69, 127
1, 49590, Note_on_c, 1, 47, 127
1, 49619, Note_off_c, 1, 76, 0
1, 49619, Note_off_c, 1, 74, 0
1, 49619, Note_off_c, 1, 81, 0
1, 49619, Note_off_c, 1, 62, 0
1, 49619, Note_off_c, 1, 69, 0
1, 49619, Note_off_c, 1, 47, 0
1, 49620, Note_on_c, 1, 76, 127
1, 49620, Note_on_c, 1, 78, 127
1, 49620, Note_on_c, 1, 64, 127
1, 49620, Note_on_c, 1, 66, 127
1, 49620, Note_on_c, 1, 69, 127
1, 49620, Note_on_c, 1, 49, 127
1, 49649, Note_off_c, 1, 76, 0
1, 49649, Note_off_c, 1, 78, 0
1, 49649, Note_off_c, 1, 64, 0
1, 49649, Note_off_c, 1, 66, 0
1, 49649, Note_off_c, 1, 49, 0
1, 49650, Note_on_c, 1, 74, 127
1, 49650, Note_on_c, 1, 79, 127
1, 49650, Note_on_c, 1, 62, 127
1, 49650, Note_on_c, 1, 67, 127
1, 49650, Note_on_c, 1, 47, 127
1, 49679, Note_off_c, 1, 69, 0
1, 49679, Note_off_c, 1, 74, 0
1, 49679, Note_off_c, 1, 79, 0
1, 49679, Note_off_c, 1, 62, 0
1, 49679, Note_off_c, 1, 67, 0
1, 49679, Note_off_c, 1, 47, 0
1, 49680, Note_on_c, 1, 79, 127
1, 49680, Note_on_c, 1, 81, 127
1, 49680, Note_on_c, 1, 67, 127
1, 49680, Note_on_c, 1, 69, 127
1, 49680, Note_on_c, 1, 64, 127
1, 49680, Note_on_c, 1, 49, 127
1, 49709, Note_off_c, 1, 81, 0
1, 49709, Note_off_c, 1, 69, 0
1, 49709, Note_off_c, 1, 64, 0
1, 49709, Note_off_c, 1, 49, 0
1, 49710, Note_on_c, 1, 61, 127
1, 49710, Note_on_c, 1, 45, 127
1, 49739, Note_off_c, 1, 79, 0
1, 49739, Note_off_c, 1, 67, 0
1, 49739, Note_off_c, 1, 61, 0
1, 49739, Note_off_c, 1, 45, 0
1, 49740, Note_on_c, 1, 81, 127
1, 49740, Note_on_c, 1, 78, 127
1, 49740, Note_on_c, 1, 69, 127
1, 49740, Note_on_c, 1, 45, 127
1, 49740, Note_on_c, 1, 66, 127
1, 49740, Note_on_c, 1, 62, 127
1, 49740, Note_on_c, 1, 47, 127
1, 49769, Note_off_c, 1, 81, 0
1, 49769, Note_off_c, 1, 78, 0
1, 49769, Note_off_c, 1, 69, 0
1, 49769, Note_off_c, 1, 45, 0
1, 49769, Note_off_c, 1, 66, 0
1, 49769, Note_off_c, 1, 62, 0
1, 49769, Note_off_c, 1, 47, 0
1, 49770, Note_on_c, 1, 79, 127
1, 49770, Note_on_c, 1, 76, 127
1, 49770, Note_on_c, 1, 69, 127
1, 49770, Note_on_c, 1, 45, 127
1, 49770, Note_on_c, 1, 67, 127
1, 49770, Note_on_c, 1, 64, 127
1, 49770, Note_on_c, 1, 49, 127
1, 49799, Note_off_c, 1, 79, 0
1, 49799, Note_off_c, 1, 76, 0
1, 49799, Note_off_c, 1, 69, 0
1, 49799, Note_off_c, 1, 45, 0
1, 49799, Note_off_c, 1, 67, 0
1, 49799, Note_off_c, 1, 64, 0
1, 49799, Note_off_c, 1, 49, 0
1, 49800, Note_on_c, 1, 78, 127
1, 49800, Note_on_c, 1, 74, 127
1, 49800, Note_on_c, 1, 69, 127
1, 49800, Note_on_c, 1, 50, 127
1, 49800, Note_on_c, 1, 66, 127
1, 49800, Note_on_c, 1, 62, 127
1, 49829, Note_off_c, 1, 78, 0
1, 49829, Note_off_c, 1, 69, 0
1, 49829, Note_off_c, 1, 50, 0
1, 49829, Note_off_c, 1, 66, 0
1, 49830, Note_on_c, 1, 76, 127
1, 49830, Note_on_c, 1, 64, 127
1, 49830, Note_on_c, 1, 73, 127
1, 49830, Note_on_c, 1, 67, 127
1, 49830, Note_on_c, 1, 52, 127
1, 49859, Note_off_c, 1, 74, 0
1, 49859, Note_off_c, 1, 62, 0
1, 49859, Note_off_c, 1, 76, 0
1, 49859, Note_off_c, 1, 64, 0
1, 49859, Note_off_c, 1, 73, 0
1, 49859, Note_off_c, 1, 67, 0
1, 49859, Note_off_c, 1, 52, 0
1, 49860, Note_on_c, 1, 74, 127
1, 49860, Note_on_c, 1, 69, 127
1, 49860, Note_on_c, 1, 50, 127
1, 49860, Note_on_c, 1, 62, 127
1, 49860, Note_on_c, 1, 57, 127
1, 49860, Note_on_c, 1, 54, 127
1, 49889, Note_off_c, 1, 74, 0
1, 49889, Note_off_c, 1, 50, 0
1, 49889, Note_off_c, 1, 62, 0
1, 49889, Note_off_c, 1, 54, 0
1, 49890, Note_on_c, 1, 76, 127
1, 49890, Note_on_c, 1, 64, 127
1, 49890, Note_on_c, 1, 71, 127
1, 49890, Note_on_c, 1, 55, 127
1, 49919, Note_off_c, 1, 69, 0
1, 49919, Note_off_c, 1, 57, 0
1, 49919, Note_off_c, 1, 76, 0
1, 49919, Note_off_c, 1, 64, 0
1, 49919, Note_off_c, 1, 71, 0
1, 49919, Note_off_c, 1, 55, 0
1, 49920, Note_on_c, 1, 76, 127
1, 49920, Note_on_c, 1, 69, 127
1, 49920, Note_on_c, 1, 45, 127
1, 49920, Note_on_c, 1, 64, 127
1, 49920, Note_on_c, 1, 57, 127
1, 49920, Note_on_c, 1, 73, 127
1, 49950, Note_on_c, 1, 54, 127
1, 49979, Note_off_c, 1, 45, 0
1, 49979, Note_off_c, 1, 57, 0
1, 49979, Note_off_c, 1, 54, 0
1, 49980, Note_on_c, 1, 61, 127
1, 50009, Note_off_c, 1, 76, 0
1, 50009, Note_off_c, 1, 73, 0
1, 50010, Note_on_c, 1, 74, 127
1, 50010, Note_on_c, 1, 62, 127
1, 50039, Note_off_c, 1, 69, 0
1, 50039, Note_off_c, 1, 64, 0
1, 50039, Note_off_c, 1, 61, 0
1, 50039, Note_off_c, 1, 74, 0
1, 50039, Note_off_c, 1, 62, 0
1, 50040, Note_on_c, 1, 74, 127
1, 50040, Note_on_c, 1, 69, 127
1, 50040, Note_on_c, 1, 66, 127
1, 50040, Note_on_c, 1, 50, 127
1, 50040, Note_on_c, 1, 62, 127
1, 50040, Note_on_c, 1, 54, 127
1, 50099, Note_off_c, 1, 62, 0
1, 50100, Note_on_c, 1, 64, 127
1, 50100, Note_on_c, 1, 57, 127
1, 50100, Note_on_c, 1, 61, 127
1, 50129, Note_off_c, 1, 64, 0
1, 50129, Note_off_c, 1, 61, 0
1, 50130, Note_on_c, 1, 59, 127
1, 50159, Note_off_c, 1, 74, 0
1, 50159, Note_off_c, 1, 69, 0
1, 50159, Note_off_c, 1, 66, 0
1, 50159, Note_off_c, 1, 50, 0
1, 50159, Note_off_c, 1, 57, 0
1, 50159, Note_off_c, 1, 59, 0
1, 50160, Note_off_c, 1, 54, 0
1, 50160, Note_on_c, 1, 78, 127
1, 50160, Note_on_c, 1, 67, 127
1, 50189, Note_off_c, 1, 67, 0
1, 50190, Note_on_c, 1, 55, 127
1, 50219, Note_off_c, 1, 78, 0
1, 50219, Note_off_c, 1, 55, 0
1, 50220, Note_on_c, 1, 50, 127
1, 50220, Note_on_c, 1, 74, 127
1, 50220, Note_on_c, 1, 69, 127
1, 50220, Note_on_c, 1, 66, 127
1, 50220, Note_on_c, 1, 71, 127
1, 50220, Note_on_c, 1, 54, 127
1, 50249, Note_off_c, 1, 71, 0
1, 50249, Note_off_c, 1, 54, 0
1, 50250, Note_on_c, 1, 73, 127
1, 50250, Note_on_c, 1, 52, 127
1, 50279, Note_off_c, 1, 50, 0
1, 50279, Note_off_c, 1, 74, 0
1, 50279, Note_off_c, 1, 69, 0
1, 50279, Note_off_c, 1, 66, 0
1, 50279, Note_off_c, 1, 73, 0
1, 50279, Note_off_c, 1, 52, 0
1, 50280, Note_on_c, 1, 50, 127
1, 50280, Note_on_c, 1, 81, 127
1, 50280, Note_on_c, 1, 78, 127
1, 50280, Note_on_c, 1, 74, 127
1, 50310, Note_on_c, 1, 73, 127
1, 50339, Note_off_c, 1, 50, 0
1, 50339, Note_off_c, 1, 81, 0
1, 50339, Note_off_c, 1, 78, 0
1, 50339, Note_off_c, 1, 74, 0
1, 50339, Note_off_c, 1, 73, 0
1, 50340, Note_on_c, 1, 50, 127
1, 50340, Note_on_c, 1, 78, 127
1, 50340, Note_on_c, 1, 74, 127
1, 50340, Note_on_c, 1, 69, 127
1, 50340, Note_on_c, 1, 66, 127
1, 50340, Note_on_c, 1, 57, 127
1, 50370, Note_on_c, 1, 73, 127
1, 50399, Note_off_c, 1, 50, 0
1, 50399, Note_off_c, 1, 78, 0
1, 50399, Note_off_c, 1, 74, 0
1, 50399, Note_off_c, 1, 69, 0
1, 50399, Note_off_c, 1, 66, 0
1, 50399, Note_off_c, 1, 57, 0
1, 50399, Note_off_c, 1, 73, 0
1, 50400, Note_on_c, 1, 86, 127
1, 50400, Note_on_c, 1, 83, 127
1, 50400, Note_on_c, 1, 78, 127
1, 50400, Note_on_c, 1, 50, 127
1, 50400, Note_on_c, 1, 62, 127
1, 50400, Note_on_c, 1, 74, 127
1, 50400, Note_on_c, 1, 66, 127
1, 50400, Note_on_c, 1, 59, 127
1, 50429, Note_off_c, 1, 74, 0
1, 50459, Note_off_c, 1, 86, 0
1, 50459, Note_off_c, 1, 83, 0
1, 50459, Note_off_c, 1, 78, 0
1, 50459, Note_off_c, 1, 62, 0
1, 50459, Note_off_c, 1, 66, 0
1, 50459, Note_off_c, 1, 59, 0
1, 50460, Note_on_c, 1, 67, 127
1, 50460, Note_on_c, 1, 64, 127
1, 50460, Note_on_c, 1, 47, 127
1, 50460, Note_on_c, 1, 57, 127
1, 50489, Note_off_c, 1, 67, 0
1, 50489, Note_off_c, 1, 64, 0
1, 50489, Note_off_c, 1, 57, 0
1, 50490, Note_on_c, 1, 69, 127
1, 50490, Note_on_c, 1, 55, 127
1, 50519, Note_off_c, 1, 50, 0
1, 50519, Note_off_c, 1, 47, 0
1, 50519, Note_off_c, 1, 69, 0
1, 50519, Note_off_c, 1, 55, 0
1, 50520, Note_on_c, 1, 50, 127
1, 50520, Note_on_c, 1, 62, 127
1, 50520, Note_on_c, 1, 78, 127
1, 50520, Note_on_c, 1, 71, 127
1, 50520, Note_on_c, 1, 67, 127
1, 50520, Note_on_c, 1, 54, 127
1, 50549, Note_off_c, 1, 67, 0
1, 50549, Note_off_c, 1, 54, 0
1, 50550, Note_on_c, 1, 73, 127
1, 50550, Note_on_c, 1, 69, 127
1, 50550, Note_on_c, 1, 52, 127
1, 50579, Note_off_c, 1, 50, 0
1, 50579, Note_off_c, 1, 62, 0
1, 50579, Note_off_c, 1, 78, 0
1, 50579, Note_off_c, 1, 71, 0
1, 50579, Note_off_c, 1, 73, 0
1, 50579, Note_off_c, 1, 69, 0
1, 50579, Note_off_c, 1, 52, 0
1, 50580, Note_on_c, 1, 50, 127
1, 50580, Note_on_c, 1, 74, 127
1, 50580, Note_on_c, 1, 66, 127
1, 50580, Note_on_c, 1, 71, 127
1, 50609, Note_off_c, 1, 71, 0
1, 50610, Note_on_c, 1, 76, 127
1, 50610, Note_on_c, 1, 73, 127
1, 50610, Note_on_c, 1, 49, 127
1, 50639, Note_off_c, 1, 50, 0
1, 50639, Note_off_c, 1, 74, 0
1, 50639, Note_off_c, 1, 66, 0
1, 50639, Note_off_c, 1, 76, 0
1, 50639, Note_off_c, 1, 73, 0
1, 50639, Note_off_c, 1, 49, 0
1, 50640, Note_on_c, 1, 50, 127
1, 50640, Note_on_c, 1, 71, 127
1, 50640, Note_on_c, 1, 66, 127
1, 50640, Note_on_c, 1, 62, 127
1, 50640, Note_on_c, 1, 78, 127
1, 50640, Note_on_c, 1, 74, 127
1, 50640, Note_on_c, 1, 47, 127
1, 50669, Note_off_c, 1, 78, 0
1, 50669, Note_off_c, 1, 74, 0
1, 50670, Note_on_c, 1, 76, 127
1, 50670, Note_on_c, 1, 73, 127
1, 50699, Note_off_c, 1, 50, 0
1, 50699, Note_off_c, 1, 71, 0
1, 50699, Note_off_c, 1, 66, 0
1, 50699, Note_off_c, 1, 62, 0
1, 50699, Note_off_c, 1, 47, 0
1, 50699, Note_off_c, 1, 76, 0
1, 50699, Note_off_c, 1, 73, 0
1, 50700, Note_on_c, 1, 50, 127
1, 50700, Note_on_c, 1, 66, 127
1, 50700, Note_on_c, 1, 62, 127
1, 50700, Note_on_c, 1, 59, 127
1, 50700, Note_on_c, 1, 78, 127
1, 50700, Note_on_c, 1, 74, 127
1, 50729, Note_off_c, 1, 78, 0
1, 50729, Note_off_c, 1, 74, 0
1, 50730, Note_on_c, 1, 76, 127
1, 50730, Note_on_c, 1, 73, 127
1, 50759, Note_off_c, 1, 50, 0
1, 50759, Note_off_c, 1, 66, 0
1, 50759, Note_off_c, 1, 62, 0
1, 50759, Note_off_c, 1, 59, 0
1, 50759, Note_off_c, 1, 76, 0
1, 50759, Note_off_c, 1, 73, 0
1, 50760, Note_on_c, 1, 69, 127
1, 50760, Note_on_c, 1, 66, 127
1, 50760, Note_on_c, 1, 62, 127
1, 50760, Note_on_c, 1, 50, 127
1, 50760, Note_on_c, 1, 78, 127
1, 50760, Note_on_c, 1, 74, 127
1, 50760, Note_on_c, 1, 57, 127
1, 50760, Note_on_c, 1, 54, 127
1, 50789, Note_off_c, 1, 78, 0
1, 50789, Note_off_c, 1, 74, 0
1, 50789, Note_off_c, 1, 57, 0
1, 50819, Note_off_c, 1, 69, 0
1, 50819, Note_off_c, 1, 66, 0
1, 50819, Note_off_c, 1, 62, 0
1, 50819, Note_off_c, 1, 54, 0
1, 50820, Note_on_c, 1, 73, 127
1, 50820, Note_on_c, 1, 67, 127
1, 50820, Note_on_c, 1, 52, 127
1, 50820, Note_on_c, 1, 42, 127
1, 50849, Note_off_c, 1, 73, 0
1, 50849, Note_off_c, 1, 67, 0
1, 50849, Note_off_c, 1, 52, 0
1, 50850, Note_on_c, 1, 71, 127
1, 50879, Note_off_c, 1, 50, 0
1, 50879, Note_off_c, 1, 42, 0
1, 50879, Note_off_c, 1, 71, 0
1, 50880, Note_on_c, 1, 50, 127
1, 50880, Note_on_c, 1, 62, 127
1, 50880, Note_on_c, 1, 74, 127
1, 50880, Note_on_c, 1, 69, 127
1, 50880, Note_on_c, 1, 66, 127
1, 50880, Note_on_c, 1, 64, 127
1, 50880, Note_on_c, 1, 55, 127
1, 50880, Note_on_c, 1, 49, 127
1, 50909, Note_off_c, 1, 64, 0
1, 50909, Note_off_c, 1, 55, 0
1, 50909, Note_off_c, 1, 49, 0
1, 50910, Note_on_c, 1, 67, 127
1, 50910, Note_on_c, 1, 57, 127
1, 50910, Note_on_c, 1, 47, 127
1, 50939, Note_off_c, 1, 50, 0
1, 50939, Note_off_c, 1, 62, 0
1, 50939, Note_off_c, 1, 74, 0
1, 50939, Note_off_c, 1, 69, 0
1, 50939, Note_off_c, 1, 66, 0
1, 50939, Note_off_c, 1, 67, 0
1, 50939, Note_off_c, 1, 57, 0
1, 50939, Note_off_c, 1, 47, 0
1, 50940, Note_on_c, 1, 50, 127
1, 50940, Note_on_c, 1, 69, 127
1, 50940, Note_on_c, 1, 66, 127
1, 50940, Note_on_c, 1, 62, 127
1, 50940, Note_on_c, 1, 61, 127
1, 50940, Note_on_c, 1, 59, 127
1, 50940, Note_on_c, 1, 45, 127
1, 50969, Note_off_c, 1, 61, 0
1, 50969, Note_off_c, 1, 59, 0
1, 50969, Note_off_c, 1, 45, 0
1, 50970, Note_on_c, 1, 64, 127
1, 50970, Note_on_c, 1, 43, 127
1, 50999, Note_off_c, 1, 50, 0
1, 50999, Note_off_c, 1, 69, 0
1, 50999, Note_off_c, 1, 66, 0
1, 50999, Note_off_c, 1, 62, 0
1, 50999, Note_off_c, 1, 64, 0
1, 50999, Note_off_c, 1, 43, 0
1, 51000, Note_on_c, 1, 50, 127
1, 51000, Note_on_c, 1, 78, 127
1, 51000, Note_on_c, 1, 74, 127
1, 51000, Note_on_c, 1, 69, 127
1, 51000, Note_on_c, 1, 62, 127
1, 51000, Note_on_c, 1, 57, 127
1, 51000, Note_on_c, 1, 42, 127
1, 51030, Note_on_c, 1, 61, 127
1, 51059, Note_off_c, 1, 50, 0
1, 51059, Note_off_c, 1, 78, 0
1, 51059, Note_off_c, 1, 74, 0
1, 51059, Note_off_c, 1, 69, 0
1, 51059, Note_off_c, 1, 62, 0
1, 51059, Note_off_c, 1, 57, 0
1, 51059, Note_off_c, 1, 42, 0
1, 51059, Note_off_c, 1, 61, 0
1, 51060, Note_on_c, 1, 50, 127
1, 51060, Note_on_c, 1, 74, 127
1, 51060, Note_on_c, 1, 69, 127
1, 51060, Note_on_c, 1, 66, 127
1, 51060, Note_on_c, 1, 62, 127
1, 51060, Note_on_c, 1, 54, 127
1, 51089, Note_off_c, 1, 62, 0
1, 51090, Note_on_c, 1, 61, 127
1, 51119, Note_off_c, 1, 50, 0
1, 51119, Note_off_c, 1, 74, 0
1, 51119, Note_off_c, 1, 69, 0
1, 51119, Note_off_c, 1, 66, 0
1, 51119, Note_off_c, 1, 54, 0
1, 51119, Note_off_c, 1, 61, 0
1, 51120, Note_on_c, 1, 83, 127
1, 51120, Note_on_c, 1, 79, 127
1, 51120, Note_on_c, 1, 74, 127
1, 51120, Note_on_c, 1, 50, 127
1, 51120, Note_on_c, 1, 62, 127
1, 51120, Note_on_c, 1, 71, 127
1, 51120, Note_on_c, 1, 59, 127
1, 51120, Note_on_c, 1, 55, 127
1, 51149, Note_off_c, 1, 71, 0
1, 51149, Note_off_c, 1, 59, 0
1, 51149, Note_off_c, 1, 55, 0
1, 51150, Note_on_c, 1, 38, 127
1, 51179, Note_off_c, 1, 83, 0
1, 51179, Note_off_c, 1, 79, 0
1, 51179, Note_off_c, 1, 74, 0
1, 51179, Note_off_c, 1, 62, 0
1, 51179, Note_off_c, 1, 38, 0
1, 51180, Note_on_c, 1, 78, 127
1, 51180, Note_on_c, 1, 60, 127
1, 51180, Note_on_c, 1, 57, 127
1, 51180, Note_on_c, 1, 52, 127
1, 51180, Note_on_c, 1, 40, 127
1, 51209, Note_off_c, 1, 78, 0
1, 51209, Note_off_c, 1, 60, 0
1, 51209, Note_off_c, 1, 57, 0
1, 51209, Note_off_c, 1, 52, 0
1, 51209, Note_off_c, 1, 40, 0
1, 51210, Note_on_c, 1, 76, 127
1, 51210, Note_on_c, 1, 54, 127
1, 51210, Note_on_c, 1, 42, 127
1, 51239, Note_off_c, 1, 50, 0
1, 51239, Note_off_c, 1, 76, 0
1, 51239, Note_off_c, 1, 54, 0
1, 51239, Note_off_c, 1, 42, 0
1, 51240, Note_on_c, 1, 50, 127
1, 51240, Note_on_c, 1, 62, 127
1, 51240, Note_on_c, 1, 74, 127
1, 51240, Note_on_c, 1, 67, 127
1, 51240, Note_on_c, 1, 64, 127
1, 51240, Note_on_c, 1, 60, 127
1, 51240, Note_on_c, 1, 55, 127
1, 51240, Note_on_c, 1, 43, 127
1, 51269, Note_off_c, 1, 64, 0
1, 51269, Note_off_c, 1, 60, 0
1, 51269, Note_off_c, 1, 55, 0
1, 51269, Note_off_c, 1, 43, 0
1, 51270, Note_on_c, 1, 72, 127
1, 51270, Note_on_c, 1, 66, 127
1, 51270, Note_on_c, 1, 57, 127
1, 51270, Note_on_c, 1, 45, 127
1, 51299, Note_off_c, 1, 50, 0
1, 51299, Note_off_c, 1, 62, 0
1, 51299, Note_off_c, 1, 74, 0
1, 51299, Note_off_c, 1, 67, 0
1, 51299, Note_off_c, 1, 72, 0
1, 51299, Note_off_c, 1, 66, 0
1, 51299, Note_off_c, 1, 57, 0
1, 51299, Note_off_c, 1, 45, 0
1, 51300, Note_on_c, 1, 50, 127
1, 51300, Note_on_c, 1, 71, 127
1, 51300, Note_on_c, 1, 62, 127
1, 51300, Note_on_c, 1, 67, 127
1, 51300, Note_on_c, 1, 64, 127
1, 51300, Note_on_c, 1, 59, 127
1, 51300, Note_on_c, 1, 47, 127
1, 51329, Note_off_c, 1, 67, 0
1, 51329, Note_off_c, 1, 64, 0
1, 51329, Note_off_c, 1, 59, 0
1, 51329, Note_off_c, 1, 47, 0
1, 51330, Note_on_c, 1, 69, 127
1, 51330, Note_on_c, 1, 66, 127
1, 51330, Note_on_c, 1, 61, 127
1, 51330, Note_on_c, 1, 49, 127
1, 51359, Note_off_c, 1, 50, 0
1, 51359, Note_off_c, 1, 71, 0
1, 51359, Note_off_c, 1, 62, 0
1, 51359, Note_off_c, 1, 69, 0
1, 51359, Note_off_c, 1, 66, 0
1, 51359, Note_off_c, 1, 61, 0
1, 51359, Note_off_c, 1, 49, 0
1, 51360, Note_on_c, 1, 50, 127
1, 51360, Note_on_c, 1, 67, 127
1, 51360, Note_on_c, 1, 62, 127
1, 51360, Note_on_c, 1, 59, 127
1, 51360, Note_on_c, 1, 71, 127
1, 51389, Note_off_c, 1, 71, 0
1, 51390, Note_on_c, 1, 69, 127
1, 51390, Note_on_c, 1, 66, 127
1, 51390, Note_on_c, 1, 61, 127
1, 51390, Note_on_c, 1, 49, 127
1, 51419, Note_off_c, 1, 50, 0
1, 51419, Note_off_c, 1, 67, 0
1, 51419, Note_off_c, 1, 62, 0
1, 51419, Note_off_c, 1, 59, 0
1, 51419, Note_off_c, 1, 69, 0
1, 51419, Note_off_c, 1, 66, 0
1, 51419, Note_off_c, 1, 61, 0
1, 51419, Note_off_c, 1, 49, 0
1, 51420, Note_on_c, 1, 50, 127
1, 51420, Note_on_c, 1, 62, 127
1, 51420, Note_on_c, 1, 59, 127
1, 51420, Note_on_c, 1, 55, 127
1, 51420, Note_on_c, 1, 71, 127
1, 51420, Note_on_c, 1, 67, 127
1, 51449, Note_off_c, 1, 71, 0
1, 51449, Note_off_c, 1, 67, 0
1, 51450, Note_on_c, 1, 69, 127
1, 51450, Note_on_c, 1, 64, 127
1, 51450, Note_on_c, 1, 61, 127
1, 51450, Note_on_c, 1, 49, 127
1, 51479, Note_off_c, 1, 50, 0
1, 51479, Note_off_c, 1, 62, 0
1, 51479, Note_off_c, 1, 59, 0
1, 51479, Note_off_c, 1, 55, 0
1, 51479, Note_off_c, 1, 69, 0
1, 51479, Note_off_c, 1, 64, 0
1, 51479, Note_off_c, 1, 61, 0
1, 51479, Note_off_c, 1, 49, 0
1, 51480, Note_on_c, 1, 50, 127
1, 51480, Note_on_c, 1, 69, 127
1, 51480, Note_on_c, 1, 66, 127
1, 51480, Note_on_c, 1, 62, 127
1, 51510, Note_on_c, 1, 45, 127
1, 51539, Note_off_c, 1, 50, 0
1, 51539, Note_off_c, 1, 69, 0
1, 51539, Note_off_c, 1, 66, 0
1, 51539, Note_off_c, 1, 62, 0
1, 51539, Note_off_c, 1, 45, 0
1, 51540, Note_on_c, 1, 81, 127
1, 51540, Note_on_c, 1, 78, 127
1, 51540, Note_on_c, 1, 74, 127
1, 51540, Note_on_c, 1, 50, 127
1, 51540, Note_on_c, 1, 62, 127
1, 51540, Note_on_c, 1, 57, 127
1, 51540, Note_on_c, 1, 66, 127
1, 51540, Note_on_c, 1, 47, 127
1, 51569, Note_off_c, 1, 47, 0
1, 51570, Note_on_c, 1, 64, 127
1, 51570, Note_on_c, 1, 79, 127
1, 51570, Note_on_c, 1, 49, 127
1, 51599, Note_off_c, 1, 81, 0
1, 51599, Note_off_c, 1, 78, 0
1, 51599, Note_off_c, 1, 74, 0
1, 51599, Note_off_c, 1, 50, 0
1, 51599, Note_off_c, 1, 62, 0
1, 51599, Note_off_c, 1, 57, 0
1, 51599, Note_off_c, 1, 66, 0
1, 51599, Note_off_c, 1, 64, 0
1, 51599, Note_off_c, 1, 79, 0
1, 51599, Note_off_c, 1, 49, 0
1, 51600, Note_on_c, 1, 81, 127
1, 51600, Note_on_c, 1, 78, 127
1, 51600, Note_on_c, 1, 74, 127
1, 51600, Note_on_c, 1, 50, 127
1, 51600, Note_on_c, 1, 66, 127
1, 51600, Note_on_c, 1, 57, 127
1, 51600, Note_on_c, 1, 69, 127
1, 51600, Note_on_c, 1, 62, 127
1, 51629, Note_off_c, 1, 50, 0
1, 51629, Note_off_c, 1, 66, 0
1, 51629, Note_off_c, 1, 69, 0
1, 51630, Note_on_c, 1, 67, 127
1, 51630, Note_on_c, 1, 76, 127
1, 51630, Note_on_c, 1, 52, 127
1, 51659, Note_off_c, 1, 81, 0
1, 51659, Note_off_c, 1, 78, 0
1, 51659, Note_off_c, 1, 74, 0
1, 51659, Note_off_c, 1, 57, 0
1, 51659, Note_off_c, 1, 62, 0
1, 51659, Note_off_c, 1, 67, 0
1, 51659, Note_off_c, 1, 76, 0
1, 51659, Note_off_c, 1, 52, 0
1, 51660, Note_on_c, 1, 81, 127
1, 51660, Note_on_c, 1, 78, 127
1, 51660, Note_on_c, 1, 74, 127
1, 51660, Note_on_c, 1, 50, 127
1, 51660, Note_on_c, 1, 69, 127
1, 51660, Note_on_c, 1, 62, 127
1, 51660, Note_on_c, 1, 66, 127
1, 51660, Note_on_c, 1, 57, 127
1, 51660, Note_on_c, 1, 54, 127
1, 51689, Note_off_c, 1, 54, 0
1, 51690, Note_on_c, 1, 71, 127
1, 51690, Note_on_c, 1, 73, 127
1, 51690, Note_on_c, 1, 64, 127
1, 51690, Note_on_c, 1, 55, 127
1, 51719, Note_off_c, 1, 81, 0
1, 51719, Note_off_c, 1, 78, 0
1, 51719, Note_off_c, 1, 74, 0
1, 51719, Note_off_c, 1, 50, 0
1, 51719, Note_off_c, 1, 69, 0
1, 51719, Note_off_c, 1, 62, 0
1, 51719, Note_off_c, 1, 66, 0
1, 51719, Note_off_c, 1, 57, 0
1, 51719, Note_off_c, 1, 71, 0
1, 51719, Note_off_c, 1, 73, 0
1, 51719, Note_off_c, 1, 64, 0
1, 51719, Note_off_c, 1, 55, 0
1, 51720, Note_on_c, 1, 81, 127
1, 51720, Note_on_c, 1, 78, 127
1, 51720, Note_on_c, 1, 74, 127
1, 51720, Note_on_c, 1, 50, 127
1, 51720, Note_on_c, 1, 69, 127
1, 51720, Note_on_c, 1, 66, 127
1, 51720, Note_on_c, 1, 62, 127
1, 51720, Note_on_c, 1, 57, 127
1, 51750, Note_on_c, 1, 71, 127
1, 51750, Note_on_c, 1, 56, 127
1, 51779, Note_off_c, 1, 81, 0
1, 51779, Note_off_c, 1, 78, 0
1, 51779, Note_off_c, 1, 74, 0
1, 51779, Note_off_c, 1, 50, 0
1, 51779, Note_off_c, 1, 69, 0
1, 51779, Note_off_c, 1, 66, 0
1, 51779, Note_off_c, 1, 62, 0
1, 51779, Note_off_c, 1, 57, 0
1, 51779, Note_off_c, 1, 71, 0
1, 51779, Note_off_c, 1, 56, 0
1, 51780, Note_on_c, 1, 81, 127
1, 51780, Note_on_c, 1, 76, 127
1, 51780, Note_on_c, 1, 69, 127
1, 51780, Note_on_c, 1, 67, 127
1, 51780, Note_on_c, 1, 64, 127
1, 51780, Note_on_c, 1, 73, 127
1, 51780, Note_on_c, 1, 61, 127
1, 51780, Note_on_c, 1, 57, 127
1, 51809, Note_off_c, 1, 81, 0
1, 51809, Note_off_c, 1, 67, 0
1, 51809, Note_off_c, 1, 64, 0
1, 51809, Note_off_c, 1, 73, 0
1, 51809, Note_off_c, 1, 61, 0
1, 51809, Note_off_c, 1, 57, 0
1, 51810, Note_on_c, 1, 83, 127
1, 51810, Note_on_c, 1, 66, 127
1, 51810, Note_on_c, 1, 62, 127
1, 51810, Note_on_c, 1, 56, 127
1, 51839, Note_off_c, 1, 76, 0
1, 51839, Note_off_c, 1, 69, 0
1, 51839, Note_off_c, 1, 83, 0
1, 51839, Note_off_c, 1, 66, 0
1, 51839, Note_off_c, 1, 62, 0
1, 51839, Note_off_c, 1, 56, 0
1, 51840, Note_on_c, 1, 85, 127
1, 51840, Note_on_c, 1, 76, 127
1, 51840, Note_on_c, 1, 81, 127
1, 51840, Note_on_c, 1, 45, 127
1, 51840, Note_on_c, 1, 64, 127
1, 51840, Note_on_c, 1, 57, 127
1, 51840, Note_on_c, 1, 73, 127
1, 51840, Note_on_c, 1, 69, 127
1, 51840, Note_on_c, 1, 61, 127
1, 51899, Note_off_c, 1, 85, 0
1, 51899, Note_off_c, 1, 81, 0
1, 51900, Note_on_c, 1, 47, 127
1, 51929, Note_off_c, 1, 47, 0
1, 51930, Note_on_c, 1, 49, 127
1, 51959, Note_off_c, 1, 76, 0
1, 51959, Note_off_c, 1, 45, 0
1, 51959, Note_off_c, 1, 64, 0
1, 51959, Note_off_c, 1, 57, 0
1, 51959, Note_off_c, 1, 73, 0
1, 51959, Note_off_c, 1, 69, 0
1, 51959, Note_off_c, 1, 61, 0
1, 51959, Note_off_c, 1, 49, 0
1, 51960, Note_on_c, 1, 45, 127
1, 51960, Note_on_c, 1, 64, 127
1, 51960, Note_on_c, 1, 57, 127
1, 51960, Note_on_c, 1, 81, 127
1, 51960, Note_on_c, 1, 76, 127
1, 51960, Note_on_c, 1, 73, 127
1, 51960, Note_on_c, 1, 50, 127
1, 51974, Note_off_c, 1, 45, 0
1, 51989, Note_off_c, 1, 50, 0
1, 51990, Note_on_c, 1, 52, 127
1, 52019, Note_off_c, 1, 64, 0
1, 52019, Note_off_c, 1, 57, 0
1, 52019, Note_off_c, 1, 81, 0
1, 52019, Note_off_c, 1, 76, 0
1, 52019, Note_off_c, 1, 73, 0
1, 52019, Note_off_c, 1, 52, 0
1, 52020, Note_on_c, 1, 45, 127
1, 52020, Note_on_c, 1, 64, 127
1, 52020, Note_on_c, 1, 57, 127
1, 52020, Note_on_c, 1, 76, 127
1, 52020, Note_on_c, 1, 73, 127
1, 52020, Note_on_c, 1, 69, 127
1, 52020, Note_on_c, 1, 54, 127
1, 52034, Note_off_c, 1, 45, 0
1, 52049, Note_off_c, 1, 54, 0
1, 52050, Note_on_c, 1, 55, 127
1, 52079, Note_off_c, 1, 64, 0
1, 52079, Note_off_c, 1, 57, 0
1, 52079, Note_off_c, 1, 76, 0
1, 52079, Note_off_c, 1, 73, 0
1, 52079, Note_off_c, 1, 69, 0
1, 52079, Note_off_c, 1, 55, 0
1, 52080, Note_on_c, 1, 45, 127
1, 52080, Note_on_c, 1, 64, 127
1, 52080, Note_on_c, 1, 57, 127
1, 52080, Note_on_c, 1, 76, 127
1, 52080, Note_on_c, 1, 73, 127
1, 52080, Note_on_c, 1, 69, 127
1, 52094, Note_off_c, 1, 45, 0
1, 52110, Note_on_c, 1, 56, 127
1, 52139, Note_off_c, 1, 64, 0
1, 52139, Note_off_c, 1, 57, 0
1, 52139, Note_off_c, 1, 76, 0
1, 52139, Note_off_c, 1, 73, 0
1, 52139, Note_off_c, 1, 69, 0
1, 52139, Note_off_c, 1, 56, 0
1, 52140, Note_on_c, 1, 45, 127
1, 52140, Note_on_c, 1, 62, 127
1, 52140, Note_on_c, 1, 54, 127
1, 52140, Note_on_c, 1, 73, 127
1, 52140, Note_on_c, 1, 69, 127
1, 52140, Note_on_c, 1, 64, 127
1, 52140, Note_on_c, 1, 57, 127
1, 52154, Note_off_c, 1, 45, 0
1, 52169, Note_off_c, 1, 62, 0
1, 52169, Note_off_c, 1, 54, 0
1, 52169, Note_off_c, 1, 57, 0
1, 52170, Note_on_c, 1, 56, 127
1, 52199, Note_off_c, 1, 73, 0
1, 52199, Note_off_c, 1, 69, 0
1, 52199, Note_off_c, 1, 64, 0
1, 52199, Note_off_c, 1, 56, 0
1, 52200, Note_on_c, 1, 86, 127
1, 52200, Note_on_c, 1, 81, 127
1, 52200, Note_on_c, 1, 78, 127
1, 52200, Note_on_c, 1, 45, 127
1, 52200, Note_on_c, 1, 66, 127
1, 52200, Note_on_c, 1, 62, 127
1, 52200, Note_on_c, 1, 57, 127
1, 52214, Note_off_c, 1, 45, 0
1, 52229, Note_off_c, 1, 57, 0
1, 52259, Note_off_c, 1, 86, 0
1, 52259, Note_off_c, 1, 81, 0
1, 52259, Note_off_c, 1, 78, 0
1, 52259, Note_off_c, 1, 66, 0
1, 52259, Note_off_c, 1, 62, 0
1, 52260, Note_on_c, 1, 81, 127
1, 52260, Note_on_c, 1, 78, 127
1, 52260, Note_on_c, 1, 74, 127
1, 52260, Note_on_c, 1, 45, 127
1, 52260, Note_on_c, 1, 66, 127
1, 52260, Note_on_c, 1, 62, 127
1, 52260, Note_on_c, 1, 47, 127
1, 52274, Note_off_c, 1, 45, 0
1, 52289, Note_off_c, 1, 47, 0
1, 52290, Note_on_c, 1, 49, 127
1, 52319, Note_off_c, 1, 81, 0
1, 52319, Note_off_c, 1, 78, 0
1, 52319, Note_off_c, 1, 74, 0
1, 52319, Note_off_c, 1, 66, 0
1, 52319, Note_off_c, 1, 62, 0
1, 52319, Note_off_c, 1, 49, 0
1, 52320, Note_on_c, 1, 45, 127
1, 52320, Note_on_c, 1, 66, 127
1, 52320, Note_on_c, 1, 62, 127
1, 52320, Note_on_c, 1, 81, 127
1, 52320, Note_on_c, 1, 78, 127
1, 52320, Note_on_c, 1, 74, 127
1, 52320, Note_on_c, 1, 50, 127
1, 52334, Note_off_c, 1, 45, 0
1, 52349, Note_off_c, 1, 50, 0
1, 52350, Note_on_c, 1, 52, 127
1, 52379, Note_off_c, 1, 66, 0
1, 52379, Note_off_c, 1, 62, 0
1, 52379, Note_off_c, 1, 81, 0
1, 52379, Note_off_c, 1, 78, 0
1, 52379, Note_off_c, 1, 74, 0
1, 52379, Note_off_c, 1, 52, 0
1, 52380, Note_on_c, 1, 45, 127
1, 52380, Note_on_c, 1, 66, 127
1, 52380, Note_on_c, 1, 62, 127
1, 52380, Note_on_c, 1, 78, 127
1, 52380, Note_on_c, 1, 74, 127
1, 52380, Note_on_c, 1, 69, 127
1, 52380, Note_on_c, 1, 54, 127
1, 52394, Note_off_c, 1, 45, 0
1, 52409, Note_off_c, 1, 54, 0
1, 52410, Note_on_c, 1, 55, 127
1, 52439, Note_off_c, 1, 66, 0
1, 52439, Note_off_c, 1, 62, 0
1, 52439, Note_off_c, 1, 78, 0
1, 52439, Note_off_c, 1, 74, 0
1, 52439, Note_off_c, 1, 69, 0
1, 52439, Note_off_c, 1, 55, 0
1, 52440, Note_on_c, 1, 45, 127
1, 52440, Note_on_c, 1, 66, 127
1, 52440, Note_on_c, 1, 62, 127
1, 52440, Note_on_c, 1, 78, 127
1, 52440, Note_on_c, 1, 74, 127
1, 52440, Note_on_c, 1, 69, 127
1, 52440, Note_on_c, 1, 57, 127
1, 52454, Note_off_c, 1, 45, 0
1, 52469, Note_off_c, 1, 57, 0
1, 52470, Note_on_c, 1, 56, 127
1, 52499, Note_off_c, 1, 66, 0
1, 52499, Note_off_c, 1, 62, 0
1, 52499, Note_off_c, 1, 78, 0
1, 52499, Note_off_c, 1, 74, 0
1, 52499, Note_off_c, 1, 69, 0
1, 52499, Note_off_c, 1, 56, 0
1, 52500, Note_on_c, 1, 45, 127
1, 52500, Note_on_c, 1, 64, 127
1, 52500, Note_on_c, 1, 57, 127
1, 52500, Note_on_c, 1, 74, 127
1, 52500, Note_on_c, 1, 69, 127
1, 52500, Note_on_c, 1, 66, 127
1, 52514, Note_off_c, 1, 45, 0
1, 52529, Note_off_c, 1, 64, 0
1, 52529, Note_off_c, 1, 57, 0
1, 52530, Note_on_c, 1, 62, 127
1, 52530, Note_on_c, 1, 56, 127
1, 52559, Note_off_c, 1, 74, 0
1, 52559, Note_off_c, 1, 69, 0
1, 52559, Note_off_c, 1, 66, 0
1, 52559, Note_off_c, 1, 62, 0
1, 52559, Note_off_c, 1, 56, 0
1, 52560, Note_on_c, 1, 85, 127
1, 52560, Note_on_c, 1, 81, 127
1, 52560, Note_on_c, 1, 76, 127
1, 52560, Note_on_c, 1, 45, 127
1, 52560, Note_on_c, 1, 67, 127
1, 52560, Note_on_c, 1, 64, 127
1, 52560, Note_on_c, 1, 57, 127
1, 52589, Note_off_c, 1, 57, 0
1, 52619, Note_off_c, 1, 85, 0
1, 52619, Note_off_c, 1, 81, 0
1, 52619, Note_off_c, 1, 76, 0
1, 52619, Note_off_c, 1, 67, 0
1, 52619, Note_off_c, 1, 64, 0
1, 52620, Note_on_c, 1, 69, 127
1, 52620, Note_on_c, 1, 47, 127
1, 52649, Note_off_c, 1, 47, 0
1, 52650, Note_on_c, 1, 49, 127
1, 52679, Note_off_c, 1, 69, 0
1, 52679, Note_off_c, 1, 49, 0
1, 52680, Note_on_c, 1, 73, 127
1, 52680, Note_on_c, 1, 50, 127
1, 52709, Note_off_c, 1, 50, 0
1, 52710, Note_on_c, 1, 52, 127
1, 52739, Note_off_c, 1, 73, 0
1, 52739, Note_off_c, 1, 52, 0
1, 52740, Note_on_c, 1, 54, 127
1, 52769, Note_off_c, 1, 54, 0
1, 52770, Note_on_c, 1, 55, 127
1, 52799, Note_off_c, 1, 45, 0
1, 52799, Note_off_c, 1, 55, 0
1, 52800, Note_on_c, 1, 67, 127
1, 52800, Note_on_c, 1, 64, 127
1, 52800, Note_on_c, 1, 76, 127
1, 52800, Note_on_c, 1, 73, 127
1, 52800, Note_on_c, 1, 69, 127
1, 52800, Note_on_c, 1, 57, 127
1, 52829, Note_off_c, 1, 57, 0
1, 52830, Note_on_c, 1, 56, 127
1, 52859, Note_off_c, 1, 67, 0
1, 52859, Note_off_c, 1, 64, 0
1, 52859, Note_off_c, 1, 76, 0
1, 52859, Note_off_c, 1, 73, 0
1, 52859, Note_off_c, 1, 69, 0
1, 52859, Note_off_c, 1, 56, 0
1, 52860, Note_on_c, 1, 66, 127
1, 52860, Note_on_c, 1, 62, 127
1, 52860, Note_on_c, 1, 73, 127
1, 52860, Note_on_c, 1, 69, 127
1, 52860, Note_on_c, 1, 64, 127
1, 52860, Note_on_c, 1, 57, 127
1, 52889, Note_off_c, 1, 66, 0
1, 52889, Note_off_c, 1, 62, 0
1, 52889, Note_off_c, 1, 57, 0
1, 52890, Note_on_c, 1, 67, 127
1, 52890, Note_on_c, 1, 55, 127
1, 52919, Note_off_c, 1, 73, 0
1, 52919, Note_off_c, 1, 69, 0
1, 52919, Note_off_c, 1, 64, 0
1, 52919, Note_off_c, 1, 67, 0
1, 52919, Note_off_c, 1, 55, 0
1, 52920, Note_on_c, 1, 69, 127
1, 52920, Note_on_c, 1, 66, 127
1, 52920, Note_on_c, 1, 74, 127
1, 52920, Note_on_c, 1, 62, 127
1, 52920, Note_on_c, 1, 54, 127
1, 52949, Note_off_c, 1, 74, 0
1, 52949, Note_off_c, 1, 62, 0
1, 52949, Note_off_c, 1, 54, 0
1, 52950, Note_on_c, 1, 78, 127
1, 52950, Note_on_c, 1, 50, 127
1, 52979, Note_off_c, 1, 78, 0
1, 52979, Note_off_c, 1, 50, 0
1, 52980, Note_on_c, 1, 81, 127
1, 52980, Note_on_c, 1, 67, 127
1, 52980, Note_on_c, 1, 76, 127
1, 52980, Note_on_c, 1, 73, 127
1, 52980, Note_on_c, 1, 52, 127
1, 53009, Note_off_c, 1, 67, 0
1, 53009, Note_off_c, 1, 76, 0
1, 53009, Note_off_c, 1, 73, 0
1, 53009, Note_off_c, 1, 52, 0
1, 53010, Note_on_c, 1, 71, 127
1, 53039, Note_off_c, 1, 81, 0
1, 53039, Note_off_c, 1, 71, 0
1, 53040, Note_on_c, 1, 55, 127
1, 53069, Note_off_c, 1, 55, 0
1, 53070, Note_on_c, 1, 57, 127
1, 53099, Note_off_c, 1, 57, 0
1, 53100, Note_on_c, 1, 59, 127
1, 53129, Note_off_c, 1, 59, 0
1, 53130, Note_on_c, 1, 64, 127
1, 53130, Note_on_c, 1, 61, 127
1, 53159, Note_off_c, 1, 64, 0
1, 53159, Note_off_c, 1, 61, 0
1, 53220, Note_on_c, 1, 83, 127
1, 53249, Note_off_c, 1, 83, 0
1, 53250, Note_on_c, 1, 85, 127
1, 53279, Note_off_c, 1, 85, 0
1, 53280, Note_on_c, 1, 86, 127
1, 53310, Note_on_c, 1, 47, 127
1, 53339, Note_off_c, 1, 86, 0
1, 53339, Note_off_c, 1, 47, 0
1, 53340, Note_on_c, 1, 49, 127
1, 53369, Note_off_c, 1, 49, 0
1, 53400, Note_on_c, 1, 79, 127
1, 53429, Note_off_c, 1, 79, 0
1, 53550, Note_off_c, 1, 69, 0
1, 53579, Note_off_c, 1, 66, 0
1, 53580, Note_on_c, 1, 79, 127
1, 53580, Note_on_c, 1, 74, 127
1, 53580, Note_on_c, 1, 66, 127
1, 53580, Note_on_c, 1, 67, 127
1, 53580, Note_on_c, 1, 64, 127
1, 53580, Note_on_c, 1, 86, 127
1, 53580, Note_on_c, 1, 59, 127
1, 53609, Note_off_c, 1, 79, 0
1, 53609, Note_off_c, 1, 67, 0
1, 53609, Note_off_c, 1, 64, 0
1, 53609, Note_off_c, 1, 86, 0
1, 53609, Note_off_c, 1, 59, 0
1, 53610, Note_on_c, 1, 81, 127
1, 53610, Note_on_c, 1, 69, 127
1, 53610, Note_on_c, 1, 85, 127
1, 53610, Note_on_c, 1, 57, 127
1, 53639, Note_off_c, 1, 74, 0
1, 53639, Note_off_c, 1, 66, 0
1, 53639, Note_off_c, 1, 81, 0
1, 53639, Note_off_c, 1, 69, 0
1, 53639, Note_off_c, 1, 85, 0
1, 53639, Note_off_c, 1, 57, 0
1, 53640, Note_on_c, 1, 83, 127
1, 53640, Note_on_c, 1, 71, 127
1, 53640, Note_on_c, 1, 67, 127
1, 53640, Note_on_c, 1, 74, 127
1, 53640, Note_on_c, 1, 55, 127
1, 53669, Note_off_c, 1, 83, 0
1, 53669, Note_off_c, 1, 71, 0
1, 53669, Note_off_c, 1, 55, 0
1, 53670, Note_on_c, 1, 81, 127
1, 53670, Note_on_c, 1, 69, 127
1, 53670, Note_on_c, 1, 54, 127
1, 53699, Note_off_c, 1, 67, 0
1, 53699, Note_off_c, 1, 74, 0
1, 53699, Note_off_c, 1, 81, 0
1, 53699, Note_off_c, 1, 69, 0
1, 53699, Note_off_c, 1, 54, 0
1, 53700, Note_on_c, 1, 83, 127
1, 53700, Note_on_c, 1, 74, 127
1, 53700, Note_on_c, 1, 71, 127
1, 53700, Note_on_c, 1, 62, 127
1, 53700, Note_on_c, 1, 55, 127
1, 53729, Note_off_c, 1, 83, 0
1, 53729, Note_off_c, 1, 55, 0
1, 53730, Note_on_c, 1, 81, 127
1, 53730, Note_on_c, 1, 69, 127
1, 53730, Note_on_c, 1, 54, 127
1, 53759, Note_off_c, 1, 74, 0
1, 53759, Note_off_c, 1, 71, 0
1, 53759, Note_off_c, 1, 62, 0
1, 53759, Note_off_c, 1, 81, 0
1, 53759, Note_off_c, 1, 69, 0
1, 53759, Note_off_c, 1, 54, 0
1, 53760, Note_on_c, 1, 79, 127
1, 53760, Note_on_c, 1, 76, 127
1, 53760, Note_on_c, 1, 67, 127
1, 53760, Note_on_c, 1, 64, 127
1, 53760, Note_on_c, 1, 73, 127
1, 53760, Note_on_c, 1, 52, 127
1, 53789, Note_off_c, 1, 79, 0
1, 53789, Note_off_c, 1, 76, 0
1, 53789, Note_off_c, 1, 67, 0
1, 53789, Note_off_c, 1, 64, 0
1, 53789, Note_off_c, 1, 73, 0
1, 53789, Note_off_c, 1, 52, 0
1, 53790, Note_on_c, 1, 78, 127
1, 53790, Note_on_c, 1, 66, 127
1, 53790, Note_on_c, 1, 74, 127
1, 53790, Note_on_c, 1, 50, 127
1, 53819, Note_off_c, 1, 78, 0
1, 53819, Note_off_c, 1, 66, 0
1, 53819, Note_off_c, 1, 74, 0
1, 53819, Note_off_c, 1, 50, 0
1, 53820, Note_on_c, 1, 79, 127
1, 53820, Note_on_c, 1, 76, 127
1, 53820, Note_on_c, 1, 67, 127
1, 53820, Note_on_c, 1, 64, 127
1, 53820, Note_on_c, 1, 73, 127
1, 53820, Note_on_c, 1, 52, 127
1, 53849, Note_off_c, 1, 79, 0
1, 53849, Note_off_c, 1, 76, 0
1, 53849, Note_off_c, 1, 67, 0
1, 53849, Note_off_c, 1, 64, 0
1, 53849, Note_off_c, 1, 73, 0
1, 53849, Note_off_c, 1, 52, 0
1, 53850, Note_on_c, 1, 78, 127
1, 53850, Note_on_c, 1, 66, 127
1, 53850, Note_on_c, 1, 74, 127
1, 53850, Note_on_c, 1, 50, 127
1, 53879, Note_off_c, 1, 78, 0
1, 53879, Note_off_c, 1, 66, 0
1, 53879, Note_off_c, 1, 74, 0
1, 53879, Note_off_c, 1, 50, 0
1, 53880, Note_on_c, 1, 76, 127
1, 53880, Note_on_c, 1, 79, 127
1, 53880, Note_on_c, 1, 64, 127
1, 53880, Note_on_c, 1, 67, 127
1, 53880, Note_on_c, 1, 49, 127
1, 53909, Note_off_c, 1, 79, 0
1, 53909, Note_off_c, 1, 64, 0
1, 53909, Note_off_c, 1, 67, 0
1, 53909, Note_off_c, 1, 49, 0
1, 53910, Note_on_c, 1, 74, 127
1, 53910, Note_on_c, 1, 81, 127
1, 53910, Note_on_c, 1, 62, 127
1, 53910, Note_on_c, 1, 69, 127
1, 53910, Note_on_c, 1, 47, 127
1, 53939, Note_off_c, 1, 76, 0
1, 53939, Note_off_c, 1, 74, 0
1, 53939, Note_off_c, 1, 81, 0
1, 53939, Note_off_c, 1, 62, 0
1, 53939, Note_off_c, 1, 69, 0
1, 53939, Note_off_c, 1, 47, 0
1, 53940, Note_on_c, 1, 76, 127
1, 53940, Note_on_c, 1, 78, 127
1, 53940, Note_on_c, 1, 64, 127
1, 53940, Note_on_c, 1, 66, 127
1, 53940, Note_on_c, 1, 69, 127
1, 53940, Note_on_c, 1, 49, 127
1, 53969, Note_off_c, 1, 76, 0
1, 53969, Note_off_c, 1, 78, 0
1, 53969, Note_off_c, 1, 64, 0
1, 53969, Note_off_c, 1, 66, 0
1, 53969, Note_off_c, 1, 49, 0
1, 53970, Note_on_c, 1, 74, 127
1, 53970, Note_on_c, 1, 79, 127
1, 53970, Note_on_c, 1, 62, 127
1, 53970, Note_on_c, 1, 67, 127
1, 53970, Note_on_c, 1, 47, 127
1, 53999, Note_off_c, 1, 69, 0
1, 53999, Note_off_c, 1, 74, 0
1, 53999, Note_off_c, 1, 79, 0
1, 53999, Note_off_c, 1, 62, 0
1, 53999, Note_off_c, 1, 67, 0
1, 53999, Note_off_c, 1, 47, 0
1, 54000, Note_on_c, 1, 79, 127
1, 54000, Note_on_c, 1, 81, 127
1, 54000, Note_on_c, 1, 67, 127
1, 54000, Note_on_c, 1, 69, 127
1, 54000, Note_on_c, 1, 64, 127
1, 54000, Note_on_c, 1, 49, 127
1, 54029, Note_off_c, 1, 81, 0
1, 54029, Note_off_c, 1, 69, 0
1, 54029, Note_off_c, 1, 64, 0
1, 54029, Note_off_c, 1, 49, 0
1, 54030, Note_on_c, 1, 61, 127
1, 54030, Note_on_c, 1, 45, 127
1, 54059, Note_off_c, 1, 79, 0
1, 54059, Note_off_c, 1, 67, 0
1, 54059, Note_off_c, 1, 61, 0
1, 54059, Note_off_c, 1, 45, 0
1, 54060, Note_on_c, 1, 81, 127
1, 54060, Note_on_c, 1, 78, 127
1, 54060, Note_on_c, 1, 69, 127
1, 54060, Note_on_c, 1, 45, 127
1, 54060, Note_on_c, 1, 66, 127
1, 54060, Note_on_c, 1, 62, 127
1, 54060, Note_on_c, 1, 47, 127
1, 54089, Note_off_c, 1, 81, 0
1, 54089, Note_off_c, 1, 78, 0
1, 54089, Note_off_c, 1, 69, 0
1, 54089, Note_off_c, 1, 45, 0
1, 54089, Note_off_c, 1, 66, 0
1, 54089, Note_off_c, 1, 62, 0
1, 54089, Note_off_c, 1, 47, 0
1, 54090, Note_on_c, 1, 79, 127
1, 54090, Note_on_c, 1, 76, 127
1, 54090, Note_on_c, 1, 69, 127
1, 54090, Note_on_c, 1, 45, 127
1, 54090, Note_on_c, 1, 67, 127
1, 54090, Note_on_c, 1, 64, 127
1, 54090, Note_on_c, 1, 49, 127
1, 54119, Note_off_c, 1, 79, 0
1, 54119, Note_off_c, 1, 76, 0
1, 54119, Note_off_c, 1, 69, 0
1, 54119, Note_off_c, 1, 45, 0
1, 54119, Note_off_c, 1, 67, 0
1, 54119, Note_off_c, 1, 64, 0
1, 54119, Note_off_c, 1, 49, 0
1, 54120, Note_on_c, 1, 78, 127
1, 54120, Note_on_c, 1, 69, 127
1, 54120, Note_on_c, 1, 50, 127
1, 54120, Note_on_c, 1, 66, 127
1, 54120, Note_on_c, 1, 62, 127
1, 54120, Note_on_c, 1, 74, 127
1, 54149, Note_off_c, 1, 69, 0
1, 54149, Note_off_c, 1, 50, 0
1, 54149, Note_off_c, 1, 66, 0
1, 54149, Note_off_c, 1, 74, 0
1, 54150, Note_on_c, 1, 76, 127
1, 54150, Note_on_c, 1, 64, 127
1, 54150, Note_on_c, 1, 73, 127
1, 54150, Note_on_c, 1, 67, 127
1, 54150, Note_on_c, 1, 52, 127
1, 54179, Note_off_c, 1, 78, 0
1, 54179, Note_off_c, 1, 62, 0
1, 54179, Note_off_c, 1, 76, 0
1, 54179, Note_off_c, 1, 64, 0
1, 54179, Note_off_c, 1, 73, 0
1, 54179, Note_off_c, 1, 67, 0
1, 54179, Note_off_c, 1, 52, 0
1, 54180, Note_on_c, 1, 74, 127
1, 54180, Note_on_c, 1, 69, 127
1, 54180, Note_on_c, 1, 50, 127
1, 54180, Note_on_c, 1, 62, 127
1, 54180, Note_on_c, 1, 57, 127
1, 54180, Note_on_c, 1, 54, 127
1, 54209, Note_off_c, 1, 74, 0
1, 54209, Note_off_c, 1, 50, 0
1, 54209, Note_off_c, 1, 62, 0
1, 54209, Note_off_c, 1, 54, 0
1, 54210, Note_on_c, 1, 76, 127
1, 54210, Note_on_c, 1, 64, 127
1, 54210, Note_on_c, 1, 71, 127
1, 54210, Note_on_c, 1, 55, 127
1, 54239, Note_off_c, 1, 69, 0
1, 54239, Note_off_c, 1, 57, 0
1, 54239, Note_off_c, 1, 76, 0
1, 54239, Note_off_c, 1, 64, 0
1, 54239, Note_off_c, 1, 71, 0
1, 54239, Note_off_c, 1, 55, 0
1, 54240, Note_on_c, 1, 76, 127
1, 54240, Note_on_c, 1, 69, 127
1, 54240, Note_on_c, 1, 45, 127
1, 54240, Note_on_c, 1, 64, 127
1, 54240, Note_on_c, 1, 57, 127
1, 54240, Note_on_c, 1, 73, 127
1, 54270, Note_on_c, 1, 54, 127
1, 54299, Note_off_c, 1, 45, 0
1, 54299, Note_off_c, 1, 57, 0
1, 54299, Note_off_c, 1, 54, 0
1, 54329, Note_off_c, 1, 76, 0
1, 54330, Note_on_c, 1, 74, 127
1, 54330, Note_on_c, 1, 62, 127
1, 54359, Note_off_c, 1, 69, 0
1, 54359, Note_off_c, 1, 64, 0
1, 54359, Note_off_c, 1, 73, 0
1, 54359, Note_off_c, 1, 74, 0
1, 54359, Note_off_c, 1, 62, 0
1, 54360, Note_on_c, 1, 74, 127
1, 54360, Note_on_c, 1, 69, 127
1, 54360, Note_on_c, 1, 66, 127
1, 54360, Note_on_c, 1, 50, 127
1, 54360, Note_on_c, 1, 62, 127
1, 54360, Note_on_c, 1, 54, 127
1, 54419, Note_off_c, 1, 50, 0
1, 54420, Note_on_c, 1, 76, 127
1, 54420, Note_on_c, 1, 38, 127
1, 54449, Note_off_c, 1, 76, 0
1, 54450, Note_on_c, 1, 78, 127
1, 54479, Note_off_c, 1, 74, 0
1, 54479, Note_off_c, 1, 69, 0
1, 54479, Note_off_c, 1, 66, 0
1, 54479, Note_off_c, 1, 62, 0
1, 54479, Note_off_c, 1, 54, 0
1, 54479, Note_off_c, 1, 38, 0
1, 54479, Note_off_c, 1, 78, 0
1, 54480, Note_on_c, 1, 69, 127
1, 54480, Note_on_c, 1, 66, 127
1, 54480, Note_on_c, 1, 62, 127
1, 54480, Note_on_c, 1, 50, 127
1, 54480, Note_on_c, 1, 79, 127
1, 54480, Note_on_c, 1, 38, 127
1, 54494, Note_off_c, 1, 50, 0
1, 54509, Note_off_c, 1, 79, 0
1, 54510, Note_on_c, 1, 81, 127
1, 54539, Note_off_c, 1, 69, 0
1, 54539, Note_off_c, 1, 66, 0
1, 54539, Note_off_c, 1, 62, 0
1, 54539, Note_off_c, 1, 38, 0
1, 54539, Note_off_c, 1, 81, 0
1, 54540, Note_on_c, 1, 66, 127
1, 54540, Note_on_c, 1, 62, 127
1, 54540, Note_on_c, 1, 57, 127
1, 54540, Note_on_c, 1, 50, 127
1, 54540, Note_on_c, 1, 83, 127
1, 54540, Note_on_c, 1, 38, 127
1, 54569, Note_off_c, 1, 83, 0
1, 54570, Note_on_c, 1, 85, 127
1, 54599, Note_off_c, 1, 66, 0
1, 54599, Note_off_c, 1, 62, 0
1, 54599, Note_off_c, 1, 57, 0
1, 54599, Note_off_c, 1, 50, 0
1, 54599, Note_off_c, 1, 38, 0
1, 54599, Note_off_c, 1, 85, 0
1, 54600, Note_on_c, 1, 50, 127
1, 54600, Note_on_c, 1, 62, 127
1, 54600, Note_on_c, 1, 86, 127
1, 54600, Note_on_c, 1, 66, 127
1, 54600, Note_on_c, 1, 57, 127
1, 54600, Note_on_c, 1, 38, 127
1, 54629, Note_off_c, 1, 86, 0
1, 54630, Note_on_c, 1, 85, 127
1, 54659, Note_off_c, 1, 50, 0
1, 54659, Note_off_c, 1, 62, 0
1, 54659, Note_off_c, 1, 66, 0
1, 54659, Note_off_c, 1, 57, 0
1, 54659, Note_off_c, 1, 38, 0
1, 54659, Note_off_c, 1, 85, 0
1, 54660, Note_on_c, 1, 50, 127
1, 54660, Note_on_c, 1, 86, 127
1, 54660, Note_on_c, 1, 62, 127
1, 54660, Note_on_c, 1, 57, 127
1, 54660, Note_on_c, 1, 54, 127
1, 54660, Note_on_c, 1, 74, 127
1, 54660, Note_on_c, 1, 69, 127
1, 54660, Note_on_c, 1, 66, 127
1, 54660, Note_on_c, 1, 38, 127
1, 54689, Note_off_c, 1, 86, 0
1, 54690, Note_on_c, 1, 85, 127
1, 54719, Note_off_c, 1, 50, 0
1, 54719, Note_off_c, 1, 62, 0
1, 54719, Note_off_c, 1, 57, 0
1, 54719, Note_off_c, 1, 54, 0
1, 54719, Note_off_c, 1, 74, 0
1, 54719, Note_off_c, 1, 69, 0
1, 54719, Note_off_c, 1, 66, 0
1, 54719, Note_off_c, 1, 38, 0
1, 54719, Note_off_c, 1, 85, 0
1, 54720, Note_on_c, 1, 50, 127
1, 54720, Note_on_c, 1, 86, 127
1, 54720, Note_on_c, 1, 78, 127
1, 54720, Note_on_c, 1, 74, 127
1, 54720, Note_on_c, 1, 69, 127
1, 54720, Note_on_c, 1, 62, 127
1, 54749, Note_off_c, 1, 86, 0
1, 54750, Note_on_c, 1, 66, 127
1, 54779, Note_off_c, 1, 50, 0
1, 54779, Note_off_c, 1, 78, 0
1, 54779, Note_off_c, 1, 74, 0
1, 54779, Note_off_c, 1, 69, 0
1, 54779, Note_off_c, 1, 62, 0
1, 54779, Note_off_c, 1, 66, 0
1, 54780, Note_on_c, 1, 50, 127
1, 54780, Note_on_c, 1, 67, 127
1, 54780, Note_on_c, 1, 76, 127
1, 54780, Note_on_c, 1, 69, 127
1, 54780, Note_on_c, 1, 66, 127
1, 54780, Note_on_c, 1, 38, 127
1, 54809, Note_off_c, 1, 67, 0
1, 54810, Note_on_c, 1, 78, 127
1, 54839, Note_off_c, 1, 50, 0
1, 54839, Note_off_c, 1, 76, 0
1, 54839, Note_off_c, 1, 69, 0
1, 54839, Note_off_c, 1, 66, 0
1, 54839, Note_off_c, 1, 38, 0
1, 54839, Note_off_c, 1, 78, 0
1, 54840, Note_on_c, 1, 74, 127
1, 54840, Note_on_c, 1, 69, 127
1, 54840, Note_on_c, 1, 66, 127
1, 54840, Note_on_c, 1, 50, 127
1, 54840, Note_on_c, 1, 62, 127
1, 54840, Note_on_c, 1, 71, 127
1, 54840, Note_on_c, 1, 79, 127
1, 54840, Note_on_c, 1, 38, 127
1, 54869, Note_off_c, 1, 71, 0
1, 54869, Note_off_c, 1, 79, 0
1, 54870, Note_on_c, 1, 73, 127
1, 54870, Note_on_c, 1, 81, 127
1, 54899, Note_off_c, 1, 74, 0
1, 54899, Note_off_c, 1, 69, 0
1, 54899, Note_off_c, 1, 66, 0
1, 54899, Note_off_c, 1, 50, 0
1, 54899, Note_off_c, 1, 62, 0
1, 54899, Note_off_c, 1, 38, 0
1, 54899, Note_off_c, 1, 73, 0
1, 54899, Note_off_c, 1, 81, 0
1, 54900, Note_on_c, 1, 69, 127
1, 54900, Note_on_c, 1, 66, 127
1, 54900, Note_on_c, 1, 62, 127
1, 54900, Note_on_c, 1, 50, 127
1, 54900, Note_on_c, 1, 74, 127
1, 54900, Note_on_c, 1, 83, 127
1, 54900, Note_on_c, 1, 38, 127
1, 54929, Note_off_c, 1, 74, 0
1, 54929, Note_off_c, 1, 83, 0
1, 54930, Note_on_c, 1, 76, 127
1, 54930, Note_on_c, 1, 85, 127
1, 54959, Note_off_c, 1, 69, 0
1, 54959, Note_off_c, 1, 66, 0
1, 54959, Note_off_c, 1, 62, 0
1, 54959, Note_off_c, 1, 50, 0
1, 54959, Note_off_c, 1, 38, 0
1, 54959, Note_off_c, 1, 76, 0
1, 54959, Note_off_c, 1, 85, 0
1, 54960, Note_on_c, 1, 50, 127
1, 54960, Note_on_c, 1, 62, 127
1, 54960, Note_on_c, 1, 78, 127
1, 54960, Note_on_c, 1, 86, 127
1, 54960, Note_on_c, 1, 69, 127
1, 54960, Note_on_c, 1, 66, 127
1, 54960, Note_on_c, 1, 38, 127
1, 54989, Note_off_c, 1, 78, 0
1, 54989, Note_off_c, 1, 86, 0
1, 54990, Note_on_c, 1, 76, 127
1, 54990, Note_on_c, 1, 85, 127
1, 55019, Note_off_c, 1, 50, 0
1, 55019, Note_off_c, 1, 62, 0
1, 55019, Note_off_c, 1, 69, 0
1, 55019, Note_off_c, 1, 66, 0
1, 55019, Note_off_c, 1, 38, 0
1, 55019, Note_off_c, 1, 76, 0
1, 55019, Note_off_c, 1, 85, 0
1, 55020, Note_on_c, 1, 50, 127
1, 55020, Note_on_c, 1, 78, 127
1, 55020, Note_on_c, 1, 86, 127
1, 55020, Note_on_c, 1, 66, 127
1, 55020, Note_on_c, 1, 62, 127
1, 55020, Note_on_c, 1, 57, 127
1, 55020, Note_on_c, 1, 69, 127
1, 55020, Note_on_c, 1, 38, 127
1, 55049, Note_off_c, 1, 86, 0
1, 55050, Note_on_c, 1, 76, 127
1, 55050, Note_on_c, 1, 85, 127
1, 55079, Note_off_c, 1, 50, 0
1, 55079, Note_off_c, 1, 78, 0
1, 55079, Note_off_c, 1, 66, 0
1, 55079, Note_off_c, 1, 62, 0
1, 55079, Note_off_c, 1, 57, 0
1, 55079, Note_off_c, 1, 69, 0
1, 55079, Note_off_c, 1, 38, 0
1, 55079, Note_off_c, 1, 76, 0
1, 55079, Note_off_c, 1, 85, 0
1, 55080, Note_on_c, 1, 50, 127
1, 55080, Note_on_c, 1, 78, 127
1, 55080, Note_on_c, 1, 86, 127
1, 55080, Note_on_c, 1, 81, 127
1, 55080, Note_on_c, 1, 74, 127
1, 55080, Note_on_c, 1, 66, 127
1, 55080, Note_on_c, 1, 62, 127
1, 55109, Note_off_c, 1, 78, 0
1, 55109, Note_off_c, 1, 86, 0
1, 55139, Note_off_c, 1, 50, 0
1, 55139, Note_off_c, 1, 81, 0
1, 55139, Note_off_c, 1, 74, 0
1, 55139, Note_off_c, 1, 66, 0
1, 55139, Note_off_c, 1, 62, 0
1, 55140, Note_on_c, 1, 50, 127
1, 55140, Note_on_c, 1, 79, 127
1, 55140, Note_on_c, 1, 67, 127
1, 55140, Note_on_c, 1, 64, 127
1, 55140, Note_on_c, 1, 78, 127
1, 55140, Note_on_c, 1, 69, 127
1, 55140, Note_on_c, 1, 62, 127
1, 55140, Note_on_c, 1, 38, 127
1, 55169, Note_off_c, 1, 79, 0
1, 55169, Note_off_c, 1, 67, 0
1, 55169, Note_off_c, 1, 64, 0
1, 55169, Note_off_c, 1, 78, 0
1, 55169, Note_off_c, 1, 69, 0
1, 55169, Note_off_c, 1, 62, 0
1, 55170, Note_on_c, 1, 66, 127
1, 55170, Note_on_c, 1, 74, 127
1, 55170, Note_on_c, 1, 57, 127
1, 55199, Note_off_c, 1, 50, 0
1, 55199, Note_off_c, 1, 38, 0
1, 55199, Note_off_c, 1, 66, 0
1, 55199, Note_off_c, 1, 74, 0
1, 55199, Note_off_c, 1, 57, 0
1, 55200, Note_on_c, 1, 78, 127
1, 55200, Note_on_c, 1, 74, 127
1, 55200, Note_on_c, 1, 69, 127
1, 55200, Note_on_c, 1, 50, 127
1, 55200, Note_on_c, 1, 62, 127
1, 55200, Note_on_c, 1, 76, 127
1, 55200, Note_on_c, 1, 71, 127
1, 55200, Note_on_c, 1, 67, 127
1, 55200, Note_on_c, 1, 54, 127
1, 55200, Note_on_c, 1, 38, 127
1, 55229, Note_off_c, 1, 76, 0
1, 55229, Note_off_c, 1, 71, 0
1, 55229, Note_off_c, 1, 67, 0
1, 55230, Note_on_c, 1, 73, 127
1, 55259, Note_off_c, 1, 78, 0
1, 55259, Note_off_c, 1, 74, 0
1, 55259, Note_off_c, 1, 50, 0
1, 55259, Note_off_c, 1, 38, 0
1, 55259, Note_off_c, 1, 73, 0
1, 55260, Note_on_c, 1, 66, 127
1, 55319, Note_off_c, 1, 69, 0
1, 55319, Note_off_c, 1, 62, 0
1, 55319, Note_off_c, 1, 54, 0
1, 55319, Note_off_c, 1, 66, 0
1, 55320, Note_on_c, 1, 50, 127
1, 55320, Note_on_c, 1, 62, 127
1, 55320, Note_on_c, 1, 69, 127
1, 55320, Note_on_c, 1, 78, 127
1, 55320, Note_on_c, 1, 74, 127
1, 55320, Note_on_c, 1, 66, 127
1, 55320, Note_on_c, 1, 38, 127
1, 55349, Note_off_c, 1, 78, 0
1, 55350, Note_on_c, 1, 67, 127
1, 55350, Note_on_c, 1, 76, 127
1, 55350, Note_on_c, 1, 73, 127
1, 55379, Note_off_c, 1, 50, 0
1, 55379, Note_off_c, 1, 62, 0
1, 55379, Note_off_c, 1, 69, 0
1, 55379, Note_off_c, 1, 74, 0
1, 55379, Note_off_c, 1, 66, 0
1, 55379, Note_off_c, 1, 38, 0
1, 55379, Note_off_c, 1, 67, 0
1, 55379, Note_off_c, 1, 76, 0
1, 55379, Note_off_c, 1, 73, 0
1, 55380, Note_on_c, 1, 50, 127
1, 55380, Note_on_c, 1, 66, 127
1, 55380, Note_on_c, 1, 78, 127
1, 55380, Note_on_c, 1, 74, 127
1, 55380, Note_on_c, 1, 69, 127
1, 55380, Note_on_c, 1, 62, 127
1, 55380, Note_on_c, 1, 38, 127
1, 55409, Note_off_c, 1, 78, 0
1, 55409, Note_off_c, 1, 74, 0
1, 55410, Note_on_c, 1, 76, 127
1, 55410, Note_on_c, 1, 73, 127
1, 55439, Note_off_c, 1, 50, 0
1, 55439, Note_off_c, 1, 66, 0
1, 55439, Note_off_c, 1, 69, 0
1, 55439, Note_off_c, 1, 62, 0
1, 55439, Note_off_c, 1, 38, 0
1, 55439, Note_off_c, 1, 76, 0
1, 55439, Note_off_c, 1, 73, 0
1, 55440, Note_on_c, 1, 50, 127
1, 55440, Note_on_c, 1, 62, 127
1, 55440, Note_on_c, 1, 78, 127
1, 55440, Note_on_c, 1, 74, 127
1, 55440, Note_on_c, 1, 66, 127
1, 55440, Note_on_c, 1, 57, 127
1, 55469, Note_off_c, 1, 62, 0
1, 55469, Note_off_c, 1, 78, 0
1, 55469, Note_off_c, 1, 74, 0
1, 55469, Note_off_c, 1, 66, 0
1, 55469, Note_off_c, 1, 57, 0
1, 55470, Note_on_c, 1, 86, 127
1, 55470, Note_on_c, 1, 81, 127
1, 55470, Note_on_c, 1, 54, 127
1, 55499, Note_off_c, 1, 86, 0
1, 55499, Note_off_c, 1, 81, 0
1, 55499, Note_off_c, 1, 54, 0
1, 55500, Note_on_c, 1, 69, 127
1, 55500, Note_on_c, 1, 85, 127
1, 55500, Note_on_c, 1, 79, 127
1, 55500, Note_on_c, 1, 76, 127
1, 55500, Note_on_c, 1, 64, 127
1, 55500, Note_on_c, 1, 59, 127
1, 55500, Note_on_c, 1, 55, 127
1, 55500, Note_on_c, 1, 38, 127
1, 55529, Note_off_c, 1, 85, 0
1, 55529, Note_off_c, 1, 79, 0
1, 55529, Note_off_c, 1, 76, 0
1, 55529, Note_off_c, 1, 64, 0
1, 55529, Note_off_c, 1, 59, 0
1, 55529, Note_off_c, 1, 55, 0
1, 55530, Note_on_c, 1, 83, 127
1, 55530, Note_on_c, 1, 61, 127
1, 55559, Note_off_c, 1, 50, 0
1, 55559, Note_off_c, 1, 69, 0
1, 55559, Note_off_c, 1, 38, 0
1, 55559, Note_off_c, 1, 83, 0
1, 55559, Note_off_c, 1, 61, 0
1, 55560, Note_on_c, 1, 69, 127
1, 55560, Note_on_c, 1, 66, 127
1, 55560, Note_on_c, 1, 62, 127
1, 55560, Note_on_c, 1, 50, 127
1, 55560, Note_on_c, 1, 81, 127
1, 55560, Note_on_c, 1, 76, 127
1, 55560, Note_on_c, 1, 73, 127
1, 55560, Note_on_c, 1, 67, 127
1, 55560, Note_on_c, 1, 59, 127
1, 55560, Note_on_c, 1, 38, 127
1, 55589, Note_off_c, 1, 81, 0
1, 55589, Note_off_c, 1, 76, 0
1, 55589, Note_off_c, 1, 73, 0
1, 55589, Note_off_c, 1, 67, 0
1, 55589, Note_off_c, 1, 59, 0
1, 55590, Note_on_c, 1, 79, 127
1, 55590, Note_on_c, 1, 74, 127
1, 55590, Note_on_c, 1, 71, 127
1, 55590, Note_on_c, 1, 64, 127
1, 55590, Note_on_c, 1, 61, 127
1, 55619, Note_off_c, 1, 69, 0
1, 55619, Note_off_c, 1, 66, 0
1, 55619, Note_off_c, 1, 62, 0
1, 55619, Note_off_c, 1, 50, 0
1, 55619, Note_off_c, 1, 38, 0
1, 55619, Note_off_c, 1, 79, 0
1, 55619, Note_off_c, 1, 74, 0
1, 55619, Note_off_c, 1, 71, 0
1, 55619, Note_off_c, 1, 64, 0
1, 55619, Note_off_c, 1, 61, 0
1, 55620, Note_on_c, 1, 74, 127
1, 55620, Note_on_c, 1, 69, 127
1, 55620, Note_on_c, 1, 66, 127
1, 55620, Note_on_c, 1, 50, 127
1, 55620, Note_on_c, 1, 78, 127
1, 55620, Note_on_c, 1, 73, 127
1, 55620, Note_on_c, 1, 71, 127
1, 55620, Note_on_c, 1, 62, 127
1, 55620, Note_on_c, 1, 38, 127
1, 55649, Note_off_c, 1, 78, 0
1, 55649, Note_off_c, 1, 73, 0
1, 55649, Note_off_c, 1, 71, 0
1, 55649, Note_off_c, 1, 62, 0
1, 55650, Note_on_c, 1, 76, 127
1, 55650, Note_on_c, 1, 67, 127
1, 55650, Note_on_c, 1, 64, 127
1, 55679, Note_off_c, 1, 74, 0
1, 55679, Note_off_c, 1, 69, 0
1, 55679, Note_off_c, 1, 66, 0
1, 55679, Note_off_c, 1, 50, 0
1, 55679, Note_off_c, 1, 38, 0
1, 55679, Note_off_c, 1, 76, 0
1, 55679, Note_off_c, 1, 67, 0
1, 55679, Note_off_c, 1, 64, 0
1, 55680, Note_on_c, 1, 74, 127
1, 55680, Note_on_c, 1, 69, 127
1, 55680, Note_on_c, 1, 66, 127
1, 55680, Note_on_c, 1, 50, 127
1, 55680, Note_on_c, 1, 62, 127
1, 55680, Note_on_c, 1, 38, 127
1, 55710, Note_on_c, 1, 76, 127
1, 55710, Note_on_c, 1, 71, 127
1, 55710, Note_on_c, 1, 67, 127
1, 55710, Note_on_c, 1, 73, 127
1, 55710, Note_on_c, 1, 64, 127
1, 55739, Note_off_c, 1, 74, 0
1, 55739, Note_off_c, 1, 69, 0
1, 55739, Note_off_c, 1, 66, 0
1, 55739, Note_off_c, 1, 50, 0
1, 55739, Note_off_c, 1, 62, 0
1, 55739, Note_off_c, 1, 38, 0
1, 55739, Note_off_c, 1, 76, 0
1, 55739, Note_off_c, 1, 71, 0
1, 55739, Note_off_c, 1, 67, 0
1, 55739, Note_off_c, 1, 73, 0
1, 55739, Note_off_c, 1, 64, 0
1, 55740, Note_on_c, 1, 78, 127
1, 55740, Note_on_c, 1, 74, 127
1, 55740, Note_on_c, 1, 69, 127
1, 55740, Note_on_c, 1, 50, 127
1, 55740, Note_on_c, 1, 66, 127
1, 55740, Note_on_c, 1, 62, 127
1, 55740, Note_on_c, 1, 57, 127
1, 55740, Note_on_c, 1, 38, 127
1, 55769, Note_off_c, 1, 66, 0
1, 55769, Note_off_c, 1, 62, 0
1, 55770, Note_on_c, 1, 76, 127
1, 55770, Note_on_c, 1, 71, 127
1, 55770, Note_on_c, 1, 67, 127
1, 55770, Note_on_c, 1, 73, 127
1, 55770, Note_on_c, 1, 64, 127
1, 55799, Note_off_c, 1, 78, 0
1, 55799, Note_off_c, 1, 74, 0
1, 55799, Note_off_c, 1, 69, 0
1, 55799, Note_off_c, 1, 50, 0
1, 55799, Note_off_c, 1, 57, 0
1, 55799, Note_off_c, 1, 38, 0
1, 55799, Note_off_c, 1, 76, 0
1, 55799, Note_off_c, 1, 71, 0
1, 55799, Note_off_c, 1, 67, 0
1, 55799, Note_off_c, 1, 73, 0
1, 55799, Note_off_c, 1, 64, 0
1, 55800, Note_on_c, 1, 78, 127
1, 55800, Note_on_c, 1, 74, 127
1, 55800, Note_on_c, 1, 69, 127
1, 55800, Note_on_c, 1, 50, 127
1, 55800, Note_on_c, 1, 66, 127
1, 55800, Note_on_c, 1, 62, 127
1, 55800, Note_on_c, 1, 54, 127
1, 55829, Note_off_c, 1, 54, 0
1, 55859, Note_off_c, 1, 78, 0
1, 55859, Note_off_c, 1, 74, 0
1, 55859, Note_off_c, 1, 69, 0
1, 55859, Note_off_c, 1, 50, 0
1, 55860, Note_on_c, 1, 81, 127
1, 55860, Note_on_c, 1, 76, 127
1, 55860, Note_on_c, 1, 67, 127
1, 55860, Note_on_c, 1, 73, 127
1, 55860, Note_on_c, 1, 64, 127
1, 55860, Note_on_c, 1, 52, 127
1, 55889, Note_off_c, 1, 76, 0
1, 55889, Note_off_c, 1, 67, 0
1, 55889, Note_off_c, 1, 73, 0
1, 55889, Note_off_c, 1, 64, 0
1, 55889, Note_off_c, 1, 52, 0
1, 55890, Note_on_c, 1, 71, 127
1, 55919, Note_off_c, 1, 81, 0
1, 55919, Note_off_c, 1, 71, 0
1, 55920, Note_on_c, 1, 61, 127
1, 55920, Note_on_c, 1, 55, 127
1, 55949, Note_off_c, 1, 61, 0
1, 55949, Note_off_c, 1, 55, 0
1, 55950, Note_on_c, 1, 59, 127
1, 55950, Note_on_c, 1, 57, 127
1, 55979, Note_off_c, 1, 59, 0
1, 55979, Note_off_c, 1, 57, 0
1, 56100, Note_on_c, 1, 83, 127
1, 56129, Note_off_c, 1, 83, 0
1, 56130, Note_on_c, 1, 85, 127
1, 56159, Note_off_c, 1, 85, 0
1, 56160, Note_on_c, 1, 86, 127
1, 56190, Note_on_c, 1, 47, 127
1, 56219, Note_off_c, 1, 86, 0
1, 56219, Note_off_c, 1, 47, 0
1, 56220, Note_on_c, 1, 49, 127
1, 56249, Note_off_c, 1, 49, 0
1, 56280, Note_on_c, 1, 79, 127
1, 56309, Note_off_c, 1, 79, 0
1, 56460, Note_on_c, 1, 80, 127
1, 56489, Note_off_c, 1, 80, 0
1, 56519, Note_off_c, 1, 66, 0
1, 56520, Note_on_c, 1, 56, 127
1, 56549, Note_off_c, 1, 56, 0
1, 56580, Note_on_c, 1, 68, 127
1, 56609, Note_off_c, 1, 68, 0
1, 56880, Note_off_c, 1, 62, 0
1, 56880, Note_on_c, 1, 45, 127
1, 56910, Note_on_c, 1, 40, 127
1, 56939, Note_off_c, 1, 45, 0
1, 56939, Note_off_c, 1, 40, 0
1, 56940, Note_on_c, 1, 42, 127
1, 56969, Note_off_c, 1, 42, 0
1, 56970, Note_on_c, 1, 44, 127
1, 56999, Note_off_c, 1, 44, 0
1, 57240, Note_on_c, 1, 85, 127
1, 57240, Note_on_c, 1, 81, 127
1, 57240, Note_on_c, 1, 76, 127
1, 57240, Note_on_c, 1, 45, 127
1, 57240, Note_on_c, 1, 64, 127
1, 57240, Note_on_c, 1, 61, 127
1, 57240, Note_on_c, 1, 69, 127
1, 57270, Note_on_c, 1, 73, 127
1, 57270, Note_on_c, 1, 52, 127
1, 57299, Note_off_c, 1, 85, 0
1, 57299, Note_off_c, 1, 73, 0
1, 57299, Note_off_c, 1, 52, 0
1, 57300, Note_on_c, 1, 57, 127
1, 57300, Note_on_c, 1, 74, 127
1, 57300, Note_on_c, 1, 54, 127
1, 57329, Note_off_c, 1, 74, 0
1, 57329, Note_off_c, 1, 54, 0
1, 57330, Note_on_c, 1, 56, 127
1, 57359, Note_off_c, 1, 81, 0
1, 57359, Note_off_c, 1, 76, 0
1, 57359, Note_off_c, 1, 45, 0
1, 57359, Note_off_c, 1, 64, 0
1, 57359, Note_off_c, 1, 61, 0
1, 57359, Note_off_c, 1, 69, 0
1, 57359, Note_off_c, 1, 57, 0
1, 57359, Note_off_c, 1, 56, 0
1, 57360, Note_on_c, 1, 85, 127
1, 57360, Note_on_c, 1, 81, 127
1, 57360, Note_on_c, 1, 76, 127
1, 57360, Note_on_c, 1, 45, 127
1, 57360, Note_on_c, 1, 64, 127
1, 57360, Note_on_c, 1, 57, 127
1, 57360, Note_on_c, 1, 78, 127
1, 57389, Note_off_c, 1, 45, 0
1, 57389, Note_off_c, 1, 78, 0
1, 57390, Note_on_c, 1, 80, 127
1, 57390, Note_on_c, 1, 83, 127
1, 57390, Note_on_c, 1, 59, 127
1, 57419, Note_off_c, 1, 85, 0
1, 57419, Note_off_c, 1, 81, 0
1, 57419, Note_off_c, 1, 76, 0
1, 57419, Note_off_c, 1, 64, 0
1, 57419, Note_off_c, 1, 57, 0
1, 57419, Note_off_c, 1, 80, 0
1, 57419, Note_off_c, 1, 83, 0
1, 57419, Note_off_c, 1, 59, 0
1, 57420, Note_on_c, 1, 85, 127
1, 57420, Note_on_c, 1, 81, 127
1, 57420, Note_on_c, 1, 76, 127
1, 57420, Note_on_c, 1, 45, 127
1, 57420, Note_on_c, 1, 64, 127
1, 57420, Note_on_c, 1, 57, 127
1, 57420, Note_on_c, 1, 61, 127
1, 57449, Note_off_c, 1, 45, 0
1, 57449, Note_off_c, 1, 61, 0
1, 57450, Note_on_c, 1, 83, 127
1, 57450, Note_on_c, 1, 80, 127
1, 57450, Note_on_c, 1, 59, 127
1, 57479, Note_off_c, 1, 85, 0
1, 57479, Note_off_c, 1, 81, 0
1, 57479, Note_off_c, 1, 76, 0
1, 57479, Note_off_c, 1, 64, 0
1, 57479, Note_off_c, 1, 57, 0
1, 57479, Note_off_c, 1, 83, 0
1, 57479, Note_off_c, 1, 80, 0
1, 57479, Note_off_c, 1, 59, 0
1, 57480, Note_on_c, 1, 85, 127
1, 57480, Note_on_c, 1, 81, 127
1, 57480, Note_on_c, 1, 76, 127
1, 57480, Note_on_c, 1, 45, 127
1, 57480, Note_on_c, 1, 64, 127
1, 57480, Note_on_c, 1, 57, 127
1, 57480, Note_on_c, 1, 78, 127
1, 57509, Note_off_c, 1, 78, 0
1, 57510, Note_on_c, 1, 56, 127
1, 57539, Note_off_c, 1, 85, 0
1, 57539, Note_off_c, 1, 81, 0
1, 57539, Note_off_c, 1, 76, 0
1, 57539, Note_off_c, 1, 45, 0
1, 57539, Note_off_c, 1, 64, 0
1, 57539, Note_off_c, 1, 57, 0
1, 57539, Note_off_c, 1, 56, 0
1, 57540, Note_on_c, 1, 85, 127
1, 57540, Note_on_c, 1, 81, 127
1, 57540, Note_on_c, 1, 76, 127
1, 57540, Note_on_c, 1, 64, 127
1, 57540, Note_on_c, 1, 57, 127
1, 57540, Note_on_c, 1, 75, 127
1, 57540, Note_on_c, 1, 66, 127
1, 57540, Note_on_c, 1, 54, 127
1, 57569, Note_off_c, 1, 75, 0
1, 57569, Note_off_c, 1, 66, 0
1, 57569, Note_off_c, 1, 54, 0
1, 57570, Note_on_c, 1, 73, 127
1, 57570, Note_on_c, 1, 68, 127
1, 57570, Note_on_c, 1, 52, 127
1, 57599, Note_off_c, 1, 85, 0
1, 57599, Note_off_c, 1, 81, 0
1, 57599, Note_off_c, 1, 76, 0
1, 57599, Note_off_c, 1, 64, 0
1, 57599, Note_off_c, 1, 57, 0
1, 57599, Note_off_c, 1, 73, 0
1, 57599, Note_off_c, 1, 68, 0
1, 57599, Note_off_c, 1, 52, 0
1, 57600, Note_on_c, 1, 75, 127
1, 57600, Note_on_c, 1, 69, 127
1, 57600, Note_on_c, 1, 54, 127
1, 57629, Note_off_c, 1, 69, 0
1, 57629, Note_off_c, 1, 54, 0
1, 57630, Note_on_c, 1, 76, 127
1, 57630, Note_on_c, 1, 68, 127
1, 57630, Note_on_c, 1, 56, 127
1, 57659, Note_off_c, 1, 75, 0
1, 57659, Note_off_c, 1, 76, 0
1, 57659, Note_off_c, 1, 68, 0
1, 57659, Note_off_c, 1, 56, 0
1, 57660, Note_on_c, 1, 84, 127
1, 57660, Note_on_c, 1, 81, 127
1, 57660, Note_on_c, 1, 69, 127
1, 57660, Note_on_c, 1, 45, 127
1, 57660, Note_on_c, 1, 66, 127
1, 57660, Note_on_c, 1, 57, 127
1, 57660, Note_on_c, 1, 75, 127
1, 57689, Note_off_c, 1, 45, 0
1, 57689, Note_off_c, 1, 75, 0
1, 57690, Note_on_c, 1, 76, 127
1, 57690, Note_on_c, 1, 64, 127
1, 57690, Note_on_c, 1, 56, 127
1, 57719, Note_off_c, 1, 84, 0
1, 57719, Note_off_c, 1, 81, 0
1, 57719, Note_off_c, 1, 69, 0
1, 57719, Note_off_c, 1, 66, 0
1, 57719, Note_off_c, 1, 57, 0
1, 57719, Note_off_c, 1, 76, 0
1, 57719, Note_off_c, 1, 64, 0
1, 57719, Note_off_c, 1, 56, 0
1, 57720, Note_on_c, 1, 84, 127
1, 57720, Note_on_c, 1, 81, 127
1, 57720, Note_on_c, 1, 69, 127
1, 57720, Note_on_c, 1, 45, 127
1, 57720, Note_on_c, 1, 66, 127
1, 57720, Note_on_c, 1, 57, 127
1, 57720, Note_on_c, 1, 78, 127
1, 57720, Note_on_c, 1, 63, 127
1, 57720, Note_on_c, 1, 54, 127
1, 57749, Note_off_c, 1, 45, 0
1, 57749, Note_off_c, 1, 78, 0
1, 57749, Note_off_c, 1, 54, 0
1, 57750, Note_on_c, 1, 80, 127
1, 57750, Note_on_c, 1, 83, 127
1, 57750, Note_on_c, 1, 52, 127
1, 57779, Note_off_c, 1, 84, 0
1, 57779, Note_off_c, 1, 81, 0
1, 57779, Note_off_c, 1, 69, 0
1, 57779, Note_off_c, 1, 66, 0
1, 57779, Note_off_c, 1, 57, 0
1, 57779, Note_off_c, 1, 63, 0
1, 57779, Note_off_c, 1, 80, 0
1, 57779, Note_off_c, 1, 83, 0
1, 57779, Note_off_c, 1, 52, 0
1, 57780, Note_on_c, 1, 84, 127
1, 57780, Note_on_c, 1, 81, 127
1, 57780, Note_on_c, 1, 69, 127
1, 57780, Note_on_c, 1, 45, 127
1, 57780, Note_on_c, 1, 66, 127
1, 57780, Note_on_c, 1, 57, 127
1, 57780, Note_on_c, 1, 51, 127
1, 57809, Note_off_c, 1, 45, 0
1, 57809, Note_off_c, 1, 51, 0
1, 57810, Note_on_c, 1, 83, 127
1, 57810, Note_on_c, 1, 80, 127
1, 57810, Note_on_c, 1, 49, 127
1, 57839, Note_off_c, 1, 84, 0
1, 57839, Note_off_c, 1, 81, 0
1, 57839, Note_off_c, 1, 69, 0
1, 57839, Note_off_c, 1, 66, 0
1, 57839, Note_off_c, 1, 57, 0
1, 57839, Note_off_c, 1, 83, 0
1, 57839, Note_off_c, 1, 80, 0
1, 57839, Note_off_c, 1, 49, 0
1, 57840, Note_on_c, 1, 84, 127
1, 57840, Note_on_c, 1, 81, 127
1, 57840, Note_on_c, 1, 69, 127
1, 57840, Note_on_c, 1, 45, 127
1, 57840, Note_on_c, 1, 66, 127
1, 57840, Note_on_c, 1, 57, 127
1, 57840, Note_on_c, 1, 78, 127
1, 57840, Note_on_c, 1, 51, 127
1, 57869, Note_off_c, 1, 78, 0
1, 57869, Note_off_c, 1, 51, 0
1, 57870, Note_on_c, 1, 76, 127
1, 57870, Note_on_c, 1, 61, 127
1, 57870, Note_on_c, 1, 52, 127
1, 57899, Note_off_c, 1, 84, 0
1, 57899, Note_off_c, 1, 81, 0
1, 57899, Note_off_c, 1, 69, 0
1, 57899, Note_off_c, 1, 45, 0
1, 57899, Note_off_c, 1, 66, 0
1, 57899, Note_off_c, 1, 57, 0
1, 57899, Note_off_c, 1, 76, 0
1, 57899, Note_off_c, 1, 61, 0
1, 57899, Note_off_c, 1, 52, 0
1, 57900, Note_on_c, 1, 84, 127
1, 57900, Note_on_c, 1, 81, 127
1, 57900, Note_on_c, 1, 69, 127
1, 57900, Note_on_c, 1, 66, 127
1, 57900, Note_on_c, 1, 57, 127
1, 57900, Note_on_c, 1, 75, 127
1, 57900, Note_on_c, 1, 63, 127
1, 57900, Note_on_c, 1, 54, 127
1, 57929, Note_off_c, 1, 75, 0
1, 57929, Note_off_c, 1, 63, 0
1, 57929, Note_off_c, 1, 54, 0
1, 57930, Note_on_c, 1, 73, 127
1, 57930, Note_on_c, 1, 64, 127
1, 57930, Note_on_c, 1, 52, 127
1, 57959, Note_off_c, 1, 84, 0
1, 57959, Note_off_c, 1, 81, 0
1, 57959, Note_off_c, 1, 69, 0
1, 57959, Note_off_c, 1, 66, 0
1, 57959, Note_off_c, 1, 57, 0
1, 57959, Note_off_c, 1, 73, 0
1, 57959, Note_off_c, 1, 64, 0
1, 57959, Note_off_c, 1, 52, 0
1, 57960, Note_on_c, 1, 71, 127
1, 57960, Note_on_c, 1, 66, 127
1, 57960, Note_on_c, 1, 51, 127
1, 57989, Note_off_c, 1, 66, 0
1, 57989, Note_off_c, 1, 51, 0
1, 57990, Note_on_c, 1, 69, 127
1, 57990, Note_on_c, 1, 64, 127
1, 57990, Note_on_c, 1, 49, 127
1, 58019, Note_off_c, 1, 71, 0
1, 58019, Note_off_c, 1, 69, 0
1, 58019, Note_off_c, 1, 64, 0
1, 58019, Note_off_c, 1, 49, 0
1, 58020, Note_on_c, 1, 83, 127
1, 58020, Note_on_c, 1, 81, 127
1, 58020, Note_on_c, 1, 78, 127
1, 58020, Note_on_c, 1, 45, 127
1, 58020, Note_on_c, 1, 66, 127
1, 58020, Note_on_c, 1, 54, 127
1, 58020, Note_on_c, 1, 71, 127
1, 58020, Note_on_c, 1, 63, 127
1, 58020, Note_on_c, 1, 47, 127
1, 58049, Note_off_c, 1, 45, 0
1, 58049, Note_off_c, 1, 71, 0
1, 58049, Note_off_c, 1, 63, 0
1, 58049, Note_off_c, 1, 47, 0
1, 58050, Note_on_c, 1, 73, 127
1, 58050, Note_on_c, 1, 61, 127
1, 58079, Note_off_c, 1, 83, 0
1, 58079, Note_off_c, 1, 81, 0
1, 58079, Note_off_c, 1, 78, 0
1, 58079, Note_off_c, 1, 66, 0
1, 58079, Note_off_c, 1, 54, 0
1, 58079, Note_off_c, 1, 73, 0
1, 58079, Note_off_c, 1, 61, 0
1, 58080, Note_on_c, 1, 83, 127
1, 58080, Note_on_c, 1, 81, 127
1, 58080, Note_on_c, 1, 78, 127
1, 58080, Note_on_c, 1, 45, 127
1, 58080, Note_on_c, 1, 66, 127
1, 58080, Note_on_c, 1, 54, 127
1, 58080, Note_on_c, 1, 75, 127
1, 58080, Note_on_c, 1, 59, 127
1, 58080, Note_on_c, 1, 47, 127
1, 58109, Note_off_c, 1, 45, 0
1, 58109, Note_off_c, 1, 75, 0
1, 58109, Note_off_c, 1, 47, 0
1, 58110, Note_on_c, 1, 76, 127
1, 58110, Note_on_c, 1, 80, 127
1, 58110, Note_on_c, 1, 49, 127
1, 58139, Note_off_c, 1, 83, 0
1, 58139, Note_off_c, 1, 81, 0
1, 58139, Note_off_c, 1, 78, 0
1, 58139, Note_off_c, 1, 66, 0
1, 58139, Note_off_c, 1, 54, 0
1, 58139, Note_off_c, 1, 59, 0
1, 58139, Note_off_c, 1, 76, 0
1, 58139, Note_off_c, 1, 80, 0
1, 58139, Note_off_c, 1, 49, 0
1, 58140, Note_on_c, 1, 83, 127
1, 58140, Note_on_c, 1, 81, 127
1, 58140, Note_on_c, 1, 78, 127
1, 58140, Note_on_c, 1, 45, 127
1, 58140, Note_on_c, 1, 66, 127
1, 58140, Note_on_c, 1, 54, 127
1, 58140, Note_on_c, 1, 51, 127
1, 58169, Note_off_c, 1, 45, 0
1, 58169, Note_off_c, 1, 51, 0
1, 58170, Note_on_c, 1, 80, 127
1, 58170, Note_on_c, 1, 76, 127
1, 58170, Note_on_c, 1, 49, 127
1, 58199, Note_off_c, 1, 83, 0
1, 58199, Note_off_c, 1, 81, 0
1, 58199, Note_off_c, 1, 78, 0
1, 58199, Note_off_c, 1, 66, 0
1, 58199, Note_off_c, 1, 54, 0
1, 58199, Note_off_c, 1, 80, 0
1, 58199, Note_off_c, 1, 76, 0
1, 58199, Note_off_c, 1, 49, 0
1, 58200, Note_on_c, 1, 83, 127
1, 58200, Note_on_c, 1, 81, 127
1, 58200, Note_on_c, 1, 78, 127
1, 58200, Note_on_c, 1, 45, 127
1, 58200, Note_on_c, 1, 66, 127
1, 58200, Note_on_c, 1, 54, 127
1, 58200, Note_on_c, 1, 75, 127
1, 58200, Note_on_c, 1, 47, 127
1, 58229, Note_off_c, 1, 75, 0
1, 58229, Note_off_c, 1, 47, 0
1, 58230, Note_on_c, 1, 73, 127
1, 58230, Note_on_c, 1, 63, 127
1, 58230, Note_on_c, 1, 59, 127
1, 58259, Note_off_c, 1, 83, 0
1, 58259, Note_off_c, 1, 81, 0
1, 58259, Note_off_c, 1, 78, 0
1, 58259, Note_off_c, 1, 45, 0
1, 58259, Note_off_c, 1, 66, 0
1, 58259, Note_off_c, 1, 54, 0
1, 58259, Note_off_c, 1, 73, 0
1, 58259, Note_off_c, 1, 63, 0
1, 58259, Note_off_c, 1, 59, 0
1, 58260, Note_on_c, 1, 83, 127
1, 58260, Note_on_c, 1, 81, 127
1, 58260, Note_on_c, 1, 78, 127
1, 58260, Note_on_c, 1, 66, 127
1, 58260, Note_on_c, 1, 54, 127
1, 58260, Note_on_c, 1, 71, 127
1, 58260, Note_on_c, 1, 64, 127
1, 58260, Note_on_c, 1, 61, 127
1, 58260, Note_on_c, 1, 56, 127
1, 58260, Note_on_c, 1, 44, 127
1, 58289, Note_off_c, 1, 71, 0
1, 58289, Note_off_c, 1, 64, 0
1, 58289, Note_off_c, 1, 61, 0
1, 58289, Note_off_c, 1, 56, 0
1, 58289, Note_off_c, 1, 44, 0
1, 58290, Note_on_c, 1, 69, 127
1, 58290, Note_on_c, 1, 63, 127
1, 58290, Note_on_c, 1, 57, 127
1, 58290, Note_on_c, 1, 42, 127
1, 58319, Note_off_c, 1, 83, 0
1, 58319, Note_off_c, 1, 81, 0
1, 58319, Note_off_c, 1, 78, 0
1, 58319, Note_off_c, 1, 66, 0
1, 58319, Note_off_c, 1, 54, 0
1, 58319, Note_off_c, 1, 69, 0
1, 58319, Note_off_c, 1, 63, 0
1, 58319, Note_off_c, 1, 57, 0
1, 58319, Note_off_c, 1, 42, 0
1, 58320, Note_on_c, 1, 83, 127
1, 58320, Note_on_c, 1, 80, 127
1, 58320, Note_on_c, 1, 76, 127
1, 58320, Note_on_c, 1, 68, 127
1, 58320, Note_on_c, 1, 64, 127
1, 58320, Note_on_c, 1, 59, 127
1, 58320, Note_on_c, 1, 40, 127
1, 58349, Note_off_c, 1, 40, 0
1, 58379, Note_off_c, 1, 83, 0
1, 58379, Note_off_c, 1, 80, 0
1, 58379, Note_off_c, 1, 76, 0
1, 58379, Note_off_c, 1, 68, 0
1, 58379, Note_off_c, 1, 64, 0
1, 58379, Note_off_c, 1, 59, 0
1, 58380, Note_on_c, 1, 80, 127
1, 58380, Note_on_c, 1, 76, 127
1, 58380, Note_on_c, 1, 74, 127
1, 58380, Note_on_c, 1, 83, 127
1, 58380, Note_on_c, 1, 71, 127
1, 58380, Note_on_c, 1, 68, 127
1, 58380, Note_on_c, 1, 64, 127
1, 58380, Note_on_c, 1, 42, 127
1, 58409, Note_off_c, 1, 42, 0
1, 58410, Note_on_c, 1, 44, 127
1, 58439, Note_off_c, 1, 80, 0
1, 58439, Note_off_c, 1, 76, 0
1, 58439, Note_off_c, 1, 74, 0
1, 58439, Note_off_c, 1, 83, 0
1, 58439, Note_off_c, 1, 71, 0
1, 58439, Note_off_c, 1, 68, 0
1, 58439, Note_off_c, 1, 64, 0
1, 58439, Note_off_c, 1, 44, 0
1, 58440, Note_on_c, 1, 68, 127
1, 58440, Note_on_c, 1, 83, 127
1, 58440, Note_on_c, 1, 80, 127
1, 58440, Note_on_c, 1, 76, 127
1, 58440, Note_on_c, 1, 71, 127
1, 58440, Note_on_c, 1, 45, 127
1, 58469, Note_off_c, 1, 45, 0
1, 58470, Note_on_c, 1, 47, 127
1, 58499, Note_off_c, 1, 68, 0
1, 58499, Note_off_c, 1, 83, 0
1, 58499, Note_off_c, 1, 80, 0
1, 58499, Note_off_c, 1, 76, 0
1, 58499, Note_off_c, 1, 71, 0
1, 58499, Note_off_c, 1, 47, 0
1, 58500, Note_on_c, 1, 64, 127
1, 58500, Note_on_c, 1, 83, 127
1, 58500, Note_on_c, 1, 80, 127
1, 58500, Note_on_c, 1, 71, 127
1, 58500, Note_on_c, 1, 68, 127
1, 58500, Note_on_c, 1, 49, 127
1, 58529, Note_off_c, 1, 49, 0
1, 58530, Note_on_c, 1, 50, 127
1, 58559, Note_off_c, 1, 64, 0
1, 58559, Note_off_c, 1, 83, 0
1, 58559, Note_off_c, 1, 80, 0
1, 58559, Note_off_c, 1, 71, 0
1, 58559, Note_off_c, 1, 68, 0
1, 58559, Note_off_c, 1, 50, 0
1, 58560, Note_on_c, 1, 83, 127
1, 58560, Note_on_c, 1, 80, 127
1, 58560, Note_on_c, 1, 68, 127
1, 58560, Note_on_c, 1, 64, 127
1, 58560, Note_on_c, 1, 59, 127
1, 58560, Note_on_c, 1, 52, 127
1, 58589, Note_off_c, 1, 52, 0
1, 58590, Note_on_c, 1, 50, 127
1, 58619, Note_off_c, 1, 83, 0
1, 58619, Note_off_c, 1, 80, 0
1, 58619, Note_off_c, 1, 68, 0
1, 58619, Note_off_c, 1, 64, 0
1, 58619, Note_off_c, 1, 59, 0
1, 58619, Note_off_c, 1, 50, 0
1, 58620, Note_on_c, 1, 81, 127
1, 58620, Note_on_c, 1, 78, 127
1, 58620, Note_on_c, 1, 64, 127
1, 58620, Note_on_c, 1, 59, 127
1, 58620, Note_on_c, 1, 56, 127
1, 58620, Note_on_c, 1, 52, 127
1, 58649, Note_off_c, 1, 81, 0
1, 58649, Note_off_c, 1, 78, 0
1, 58649, Note_off_c, 1, 52, 0
1, 58650, Note_on_c, 1, 83, 127
1, 58650, Note_on_c, 1, 80, 127
1, 58650, Note_on_c, 1, 50, 127
1, 58679, Note_off_c, 1, 64, 0
1, 58679, Note_off_c, 1, 59, 0
1, 58679, Note_off_c, 1, 56, 0
1, 58679, Note_off_c, 1, 83, 0
1, 58679, Note_off_c, 1, 80, 0
1, 58679, Note_off_c, 1, 50, 0
1, 58680, Note_on_c, 1, 85, 127
1, 58680, Note_on_c, 1, 81, 127
1, 58680, Note_on_c, 1, 76, 127
1, 58680, Note_on_c, 1, 52, 127
1, 58709, Note_off_c, 1, 52, 0
1, 58710, Note_on_c, 1, 40, 127
1, 58739, Note_off_c, 1, 85, 0
1, 58739, Note_off_c, 1, 81, 0
1, 58739, Note_off_c, 1, 76, 0
1, 58739, Note_off_c, 1, 40, 0
1, 58740, Note_on_c, 1, 81, 127
1, 58740, Note_on_c, 1, 76, 127
1, 58740, Note_on_c, 1, 69, 127
1, 58740, Note_on_c, 1, 85, 127
1, 58740, Note_on_c, 1, 42, 127
1, 58769, Note_off_c, 1, 42, 0
1, 58770, Note_on_c, 1, 44, 127
1, 58799, Note_off_c, 1, 81, 0
1, 58799, Note_off_c, 1, 76, 0
1, 58799, Note_off_c, 1, 69, 0
1, 58799, Note_off_c, 1, 85, 0
1, 58799, Note_off_c, 1, 44, 0
1, 58800, Note_on_c, 1, 69, 127
1, 58800, Note_on_c, 1, 85, 127
1, 58800, Note_on_c, 1, 81, 127
1, 58800, Note_on_c, 1, 76, 127
1, 58800, Note_on_c, 1, 73, 127
1, 58800, Note_on_c, 1, 45, 127
1, 58829, Note_off_c, 1, 45, 0
1, 58830, Note_on_c, 1, 47, 127
1, 58859, Note_off_c, 1, 69, 0
1, 58859, Note_off_c, 1, 85, 0
1, 58859, Note_off_c, 1, 81, 0
1, 58859, Note_off_c, 1, 76, 0
1, 58859, Note_off_c, 1, 73, 0
1, 58859, Note_off_c, 1, 47, 0
1, 58860, Note_on_c, 1, 64, 127
1, 58860, Note_on_c, 1, 85, 127
1, 58860, Note_on_c, 1, 81, 127
1, 58860, Note_on_c, 1, 73, 127
1, 58860, Note_on_c, 1, 69, 127
1, 58860, Note_on_c, 1, 49, 127
1, 58889, Note_off_c, 1, 49, 0
1, 58890, Note_on_c, 1, 50, 127
1, 58919, Note_off_c, 1, 64, 0
1, 58919, Note_off_c, 1, 85, 0
1, 58919, Note_off_c, 1, 81, 0
1, 58919, Note_off_c, 1, 73, 0
1, 58919, Note_off_c, 1, 69, 0
1, 58919, Note_off_c, 1, 50, 0
1, 58920, Note_on_c, 1, 85, 127
1, 58920, Note_on_c, 1, 81, 127
1, 58920, Note_on_c, 1, 69, 127
1, 58920, Note_on_c, 1, 64, 127
1, 58920, Note_on_c, 1, 61, 127
1, 58920, Note_on_c, 1, 52, 127
1, 58949, Note_off_c, 1, 52, 0
1, 58950, Note_on_c, 1, 50, 127
1, 58979, Note_off_c, 1, 85, 0
1, 58979, Note_off_c, 1, 81, 0
1, 58979, Note_off_c, 1, 69, 0
1, 58979, Note_off_c, 1, 64, 0
1, 58979, Note_off_c, 1, 61, 0
1, 58979, Note_off_c, 1, 50, 0
1, 58980, Note_on_c, 1, 83, 127
1, 58980, Note_on_c, 1, 80, 127
1, 58980, Note_on_c, 1, 64, 127
1, 58980, Note_on_c, 1, 61, 127
1, 58980, Note_on_c, 1, 57, 127
1, 58980, Note_on_c, 1, 52, 127
1, 59009, Note_off_c, 1, 83, 0
1, 59009, Note_off_c, 1, 80, 0
1, 59009, Note_off_c, 1, 52, 0
1, 59010, Note_on_c, 1, 85, 127
1, 59010, Note_on_c, 1, 81, 127
1, 59010, Note_on_c, 1, 50, 127
1, 59039, Note_off_c, 1, 64, 0
1, 59039, Note_off_c, 1, 61, 0
1, 59039, Note_off_c, 1, 57, 0
1, 59039, Note_off_c, 1, 85, 0
1, 59039, Note_off_c, 1, 81, 0
1, 59039, Note_off_c, 1, 50, 0
1, 59040, Note_on_c, 1, 83, 127
1, 59040, Note_on_c, 1, 80, 127
1, 59040, Note_on_c, 1, 76, 127
1, 59040, Note_on_c, 1, 86, 127
1, 59040, Note_on_c, 1, 52, 127
1, 59069, Note_off_c, 1, 52, 0
1, 59070, Note_on_c, 1, 40, 127
1, 59099, Note_off_c, 1, 83, 0
1, 59099, Note_off_c, 1, 80, 0
1, 59099, Note_off_c, 1, 76, 0
1, 59099, Note_off_c, 1, 86, 0
1, 59099, Note_off_c, 1, 40, 0
1, 59100, Note_on_c, 1, 80, 127
1, 59100, Note_on_c, 1, 76, 127
1, 59100, Note_on_c, 1, 74, 127
1, 59100, Note_on_c, 1, 86, 127
1, 59100, Note_on_c, 1, 83, 127
1, 59100, Note_on_c, 1, 42, 127
1, 59129, Note_off_c, 1, 42, 0
1, 59130, Note_on_c, 1, 44, 127
1, 59159, Note_off_c, 1, 80, 0
1, 59159, Note_off_c, 1, 76, 0
1, 59159, Note_off_c, 1, 74, 0
1, 59159, Note_off_c, 1, 86, 0
1, 59159, Note_off_c, 1, 83, 0
1, 59159, Note_off_c, 1, 44, 0
1, 59160, Note_on_c, 1, 68, 127
1, 59160, Note_on_c, 1, 86, 127
1, 59160, Note_on_c, 1, 83, 127
1, 59160, Note_on_c, 1, 76, 127
1, 59160, Note_on_c, 1, 71, 127
1, 59160, Note_on_c, 1, 45, 127
1, 59189, Note_off_c, 1, 45, 0
1, 59190, Note_on_c, 1, 47, 127
1, 59219, Note_off_c, 1, 68, 0
1, 59219, Note_off_c, 1, 86, 0
1, 59219, Note_off_c, 1, 83, 0
1, 59219, Note_off_c, 1, 76, 0
1, 59219, Note_off_c, 1, 71, 0
1, 59219, Note_off_c, 1, 47, 0
1, 59220, Note_on_c, 1, 64, 127
1, 59220, Note_on_c, 1, 86, 127
1, 59220, Note_on_c, 1, 83, 127
1, 59220, Note_on_c, 1, 71, 127
1, 59220, Note_on_c, 1, 68, 127
1, 59220, Note_on_c, 1, 49, 127
1, 59249, Note_off_c, 1, 49, 0
1, 59250, Note_on_c, 1, 50, 127
1, 59279, Note_off_c, 1, 64, 0
1, 59279, Note_off_c, 1, 86, 0
1, 59279, Note_off_c, 1, 83, 0
1, 59279, Note_off_c, 1, 71, 0
1, 59279, Note_off_c, 1, 68, 0
1, 59279, Note_off_c, 1, 50, 0
1, 59280, Note_on_c, 1, 86, 127
1, 59280, Note_on_c, 1, 83, 127
1, 59280, Note_on_c, 1, 68, 127
1, 59280, Note_on_c, 1, 64, 127
1, 59280, Note_on_c, 1, 59, 127
1, 59280, Note_on_c, 1, 52, 127
1, 59309, Note_off_c, 1, 52, 0
1, 59310, Note_on_c, 1, 50, 127
1, 59339, Note_off_c, 1, 86, 0
1, 59339, Note_off_c, 1, 83, 0
1, 59339, Note_off_c, 1, 68, 0
1, 59339, Note_off_c, 1, 64, 0
1, 59339, Note_off_c, 1, 59, 0
1, 59339, Note_off_c, 1, 50, 0
1, 59340, Note_on_c, 1, 85, 127
1, 59340, Note_on_c, 1, 81, 127
1, 59340, Note_on_c, 1, 64, 127
1, 59340, Note_on_c, 1, 59, 127
1, 59340, Note_on_c, 1, 56, 127
1, 59340, Note_on_c, 1, 52, 127
1, 59369, Note_off_c, 1, 85, 0
1, 59369, Note_off_c, 1, 81, 0
1, 59369, Note_off_c, 1, 52, 0
1, 59370, Note_on_c, 1, 86, 127
1, 59370, Note_on_c, 1, 83, 127
1, 59370, Note_on_c, 1, 50, 127
1, 59399, Note_off_c, 1, 64, 0
1, 59399, Note_off_c, 1, 59, 0
1, 59399, Note_off_c, 1, 56, 0
1, 59399, Note_off_c, 1, 86, 0
1, 59399, Note_off_c, 1, 83, 0
1, 59399, Note_off_c, 1, 50, 0
1, 59400, Note_on_c, 1, 88, 127
1, 59400, Note_on_c, 1, 85, 127
1, 59400, Note_on_c, 1, 69, 127
1, 59400, Note_on_c, 1, 64, 127
1, 59400, Note_on_c, 1, 61, 127
1, 59400, Note_on_c, 1, 49, 127
1, 59429, Note_off_c, 1, 69, 0
1, 59429, Note_off_c, 1, 64, 0
1, 59429, Note_off_c, 1, 61, 0
1, 59429, Note_off_c, 1, 49, 0
1, 59430, Note_on_c, 1, 73, 127
1, 59430, Note_on_c, 1, 45, 127
1, 59459, Note_off_c, 1, 73, 0
1, 59459, Note_off_c, 1, 45, 0
1, 59460, Note_on_c, 1, 81, 127
1, 59460, Note_on_c, 1, 76, 127
1, 59460, Note_on_c, 1, 62, 127
1, 59460, Note_on_c, 1, 71, 127
1, 59460, Note_on_c, 1, 68, 127
1, 59460, Note_on_c, 1, 47, 127
1, 59489, Note_off_c, 1, 62, 0
1, 59489, Note_off_c, 1, 71, 0
1, 59489, Note_off_c, 1, 68, 0
1, 59489, Note_off_c, 1, 47, 0
1, 59490, Note_on_c, 1, 66, 127
1, 59519, Note_off_c, 1, 81, 0
1, 59519, Note_off_c, 1, 76, 0
1, 59519, Note_off_c, 1, 66, 0
1, 59520, Note_on_c, 1, 50, 127
1, 59549, Note_off_c, 1, 50, 0
1, 59550, Note_on_c, 1, 52, 127
1, 59579, Note_off_c, 1, 52, 0
1, 59580, Note_on_c, 1, 54, 127
1, 59609, Note_off_c, 1, 54, 0
1, 59610, Note_on_c, 1, 59, 127
1, 59610, Note_on_c, 1, 56, 127
1, 59639, Note_off_c, 1, 59, 0
1, 59639, Note_off_c, 1, 56, 0
1, 59640, Note_on_c, 1, 57, 127
1, 59699, Note_off_c, 1, 57, 0
1, 59790, Note_on_c, 1, 78, 127
1, 59790, Note_on_c, 1, 42, 127
1, 59819, Note_off_c, 1, 78, 0
1, 59819, Note_off_c, 1, 42, 0
1, 59820, Note_on_c, 1, 44, 127
1, 59849, Note_off_c, 1, 44, 0
1, 59850, Note_on_c, 1, 74, 127
1, 59879, Note_off_c, 1, 74, 0
1, 59970, Note_on_c, 1, 80, 127
1, 59999, Note_off_c, 1, 80, 0
1, 60000, Note_off_c, 1, 88, 0
1, 60030, Note_on_c, 1, 90, 127
1, 60030, Note_on_c, 1, 86, 127
1, 60059, Note_off_c, 1, 85, 0
1, 60059, Note_off_c, 1, 90, 0
1, 60059, Note_off_c, 1, 86, 0
1, 60060, Note_on_c, 1, 62, 127
1, 60060, Note_on_c, 1, 86, 127
1, 60060, Note_on_c, 1, 83, 127
1, 60060, Note_on_c, 1, 81, 127
1, 60060, Note_on_c, 1, 54, 127
1, 60089, Note_off_c, 1, 62, 0
1, 60089, Note_off_c, 1, 86, 0
1, 60089, Note_off_c, 1, 83, 0
1, 60089, Note_off_c, 1, 81, 0
1, 60089, Note_off_c, 1, 54, 0
1, 60090, Note_on_c, 1, 64, 127
1, 60090, Note_on_c, 1, 88, 127
1, 60090, Note_on_c, 1, 85, 127
1, 60090, Note_on_c, 1, 80, 127
1, 60090, Note_on_c, 1, 52, 127
1, 60119, Note_off_c, 1, 64, 0
1, 60119, Note_off_c, 1, 88, 0
1, 60119, Note_off_c, 1, 85, 0
1, 60119, Note_off_c, 1, 80, 0
1, 60119, Note_off_c, 1, 52, 0
1, 60120, Note_on_c, 1, 66, 127
1, 60120, Note_on_c, 1, 90, 127
1, 60120, Note_on_c, 1, 86, 127
1, 60120, Note_on_c, 1, 78, 127
1, 60120, Note_on_c, 1, 50, 127
1, 60149, Note_off_c, 1, 90, 0
1, 60149, Note_off_c, 1, 78, 0
1, 60149, Note_off_c, 1, 50, 0
1, 60150, Note_on_c, 1, 88, 127
1, 60150, Note_on_c, 1, 76, 127
1, 60150, Note_on_c, 1, 49, 127
1, 60179, Note_off_c, 1, 66, 0
1, 60179, Note_off_c, 1, 88, 0
1, 60179, Note_off_c, 1, 76, 0
1, 60179, Note_off_c, 1, 49, 0
1, 60180, Note_off_c, 1, 86, 0
1, 60180, Note_on_c, 1, 81, 127
1, 60180, Note_on_c, 1, 69, 127
1, 60239, Note_off_c, 1, 69, 0
1, 60240, Note_off_c, 1, 81, 0
1, 60240, Note_on_c, 1, 83, 127
1, 60240, Note_on_c, 1, 68, 127
1, 60240, Note_on_c, 1, 74, 127
1, 60240, Note_on_c, 1, 71, 127
1, 60240, Note_on_c, 1, 47, 127
1, 60269, Note_off_c, 1, 83, 0
1, 60269, Note_off_c, 1, 68, 0
1, 60269, Note_off_c, 1, 74, 0
1, 60269, Note_off_c, 1, 71, 0
1, 60269, Note_off_c, 1, 47, 0
1, 60270, Note_on_c, 1, 85, 127
1, 60270, Note_on_c, 1, 69, 127
1, 60270, Note_on_c, 1, 73, 127
1, 60270, Note_on_c, 1, 45, 127
1, 60299, Note_off_c, 1, 85, 0
1, 60299, Note_off_c, 1, 69, 0
1, 60299, Note_off_c, 1, 73, 0
1, 60299, Note_off_c, 1, 45, 0
1, 60300, Note_on_c, 1, 83, 127
1, 60300, Note_on_c, 1, 68, 127
1, 60300, Note_on_c, 1, 86, 127
1, 60300, Note_on_c, 1, 74, 127
1, 60300, Note_on_c, 1, 71, 127
1, 60300, Note_on_c, 1, 47, 127
1, 60329, Note_off_c, 1, 83, 0
1, 60329, Note_off_c, 1, 68, 0
1, 60329, Note_off_c, 1, 86, 0
1, 60329, Note_off_c, 1, 74, 0
1, 60329, Note_off_c, 1, 71, 0
1, 60329, Note_off_c, 1, 47, 0
1, 60330, Note_on_c, 1, 85, 127
1, 60330, Note_on_c, 1, 69, 127
1, 60330, Note_on_c, 1, 73, 127
1, 60330, Note_on_c, 1, 45, 127
1, 60359, Note_off_c, 1, 85, 0
1, 60359, Note_off_c, 1, 69, 0
1, 60359, Note_off_c, 1, 73, 0
1, 60359, Note_off_c, 1, 45, 0
1, 60360, Note_on_c, 1, 86, 127
1, 60360, Note_on_c, 1, 71, 127
1, 60360, Note_on_c, 1, 83, 127
1, 60360, Note_on_c, 1, 74, 127
1, 60360, Note_on_c, 1, 44, 127
1, 60389, Note_off_c, 1, 86, 0
1, 60389, Note_off_c, 1, 83, 0
1, 60389, Note_off_c, 1, 74, 0
1, 60389, Note_off_c, 1, 44, 0
1, 60390, Note_on_c, 1, 88, 127
1, 60390, Note_on_c, 1, 81, 127
1, 60390, Note_on_c, 1, 69, 127
1, 60390, Note_on_c, 1, 76, 127
1, 60390, Note_on_c, 1, 42, 127
1, 60419, Note_off_c, 1, 71, 0
1, 60419, Note_off_c, 1, 88, 0
1, 60419, Note_off_c, 1, 81, 0
1, 60419, Note_off_c, 1, 69, 0
1, 60419, Note_off_c, 1, 76, 0
1, 60419, Note_off_c, 1, 42, 0
1, 60420, Note_on_c, 1, 85, 127
1, 60420, Note_on_c, 1, 64, 127
1, 60420, Note_on_c, 1, 83, 127
1, 60420, Note_on_c, 1, 71, 127
1, 60420, Note_on_c, 1, 73, 127
1, 60420, Note_on_c, 1, 44, 127
1, 60449, Note_off_c, 1, 85, 0
1, 60449, Note_off_c, 1, 83, 0
1, 60449, Note_off_c, 1, 71, 0
1, 60449, Note_off_c, 1, 73, 0
1, 60449, Note_off_c, 1, 44, 0
1, 60450, Note_on_c, 1, 86, 127
1, 60450, Note_on_c, 1, 81, 127
1, 60450, Note_on_c, 1, 69, 127
1, 60450, Note_on_c, 1, 74, 127
1, 60450, Note_on_c, 1, 42, 127
1, 60479, Note_off_c, 1, 64, 0
1, 60479, Note_off_c, 1, 86, 0
1, 60479, Note_off_c, 1, 81, 0
1, 60479, Note_off_c, 1, 69, 0
1, 60479, Note_off_c, 1, 74, 0
1, 60479, Note_off_c, 1, 42, 0
1, 60480, Note_on_c, 1, 88, 127
1, 60480, Note_on_c, 1, 64, 127
1, 60480, Note_on_c, 1, 86, 127
1, 60480, Note_on_c, 1, 74, 127
1, 60480, Note_on_c, 1, 76, 127
1, 60480, Note_on_c, 1, 59, 127
1, 60480, Note_on_c, 1, 44, 127
1, 60509, Note_off_c, 1, 88, 0
1, 60509, Note_off_c, 1, 76, 0
1, 60509, Note_off_c, 1, 59, 0
1, 60509, Note_off_c, 1, 44, 0
1, 60510, Note_on_c, 1, 56, 127
1, 60510, Note_on_c, 1, 40, 127
1, 60539, Note_off_c, 1, 64, 0
1, 60539, Note_off_c, 1, 86, 0
1, 60539, Note_off_c, 1, 74, 0
1, 60539, Note_off_c, 1, 56, 0
1, 60539, Note_off_c, 1, 40, 0
1, 60540, Note_on_c, 1, 85, 127
1, 60540, Note_on_c, 1, 76, 127
1, 60540, Note_on_c, 1, 69, 127
1, 60540, Note_on_c, 1, 45, 127
1, 60540, Note_on_c, 1, 64, 127
1, 60540, Note_on_c, 1, 88, 127
1, 60540, Note_on_c, 1, 73, 127
1, 60540, Note_on_c, 1, 57, 127
1, 60540, Note_on_c, 1, 42, 127
1, 60569, Note_off_c, 1, 85, 0
1, 60569, Note_off_c, 1, 45, 0
1, 60569, Note_off_c, 1, 64, 0
1, 60569, Note_off_c, 1, 88, 0
1, 60569, Note_off_c, 1, 73, 0
1, 60569, Note_off_c, 1, 57, 0
1, 60569, Note_off_c, 1, 42, 0
1, 60570, Note_on_c, 1, 83, 127
1, 60570, Note_on_c, 1, 86, 127
1, 60570, Note_on_c, 1, 74, 127
1, 60570, Note_on_c, 1, 71, 127
1, 60570, Note_on_c, 1, 59, 127
1, 60570, Note_on_c, 1, 44, 127
1, 60599, Note_off_c, 1, 76, 0
1, 60599, Note_off_c, 1, 69, 0
1, 60599, Note_off_c, 1, 83, 0
1, 60599, Note_off_c, 1, 86, 0
1, 60599, Note_off_c, 1, 74, 0
1, 60599, Note_off_c, 1, 71, 0
1, 60599, Note_off_c, 1, 59, 0
1, 60599, Note_off_c, 1, 44, 0
1, 60600, Note_on_c, 1, 81, 127
1, 60600, Note_on_c, 1, 76, 127
1, 60600, Note_on_c, 1, 69, 127
1, 60600, Note_on_c, 1, 45, 127
1, 60600, Note_on_c, 1, 64, 127
1, 60600, Note_on_c, 1, 85, 127
1, 60600, Note_on_c, 1, 73, 127
1, 60600, Note_on_c, 1, 61, 127
1, 60629, Note_off_c, 1, 81, 0
1, 60629, Note_off_c, 1, 76, 0
1, 60629, Note_off_c, 1, 64, 0
1, 60629, Note_off_c, 1, 85, 0
1, 60629, Note_off_c, 1, 73, 0
1, 60629, Note_off_c, 1, 61, 0
1, 60630, Note_on_c, 1, 80, 127
1, 60630, Note_on_c, 1, 74, 127
1, 60630, Note_on_c, 1, 83, 127
1, 60630, Note_on_c, 1, 71, 127
1, 60630, Note_on_c, 1, 68, 127
1, 60630, Note_on_c, 1, 62, 127
1, 60630, Note_on_c, 1, 47, 127
1, 60659, Note_off_c, 1, 69, 0
1, 60659, Note_off_c, 1, 45, 0
1, 60659, Note_off_c, 1, 80, 0
1, 60659, Note_off_c, 1, 74, 0
1, 60659, Note_off_c, 1, 83, 0
1, 60659, Note_off_c, 1, 71, 0
1, 60659, Note_off_c, 1, 68, 0
1, 60659, Note_off_c, 1, 62, 0
1, 60659, Note_off_c, 1, 47, 0
1, 60660, Note_on_c, 1, 81, 127
1, 60660, Note_on_c, 1, 76, 127
1, 60660, Note_on_c, 1, 69, 127
1, 60660, Note_on_c, 1, 45, 127
1, 60660, Note_on_c, 1, 64, 127
1, 60660, Note_on_c, 1, 49, 127
1, 60689, Note_off_c, 1, 81, 0
1, 60689, Note_off_c, 1, 76, 0
1, 60689, Note_off_c, 1, 64, 0
1, 60689, Note_off_c, 1, 49, 0
1, 60690, Note_on_c, 1, 78, 127
1, 60690, Note_on_c, 1, 83, 127
1, 60690, Note_on_c, 1, 71, 127
1, 60690, Note_on_c, 1, 66, 127
1, 60690, Note_on_c, 1, 50, 127
1, 60719, Note_off_c, 1, 69, 0
1, 60719, Note_off_c, 1, 45, 0
1, 60719, Note_off_c, 1, 78, 0
1, 60719, Note_off_c, 1, 83, 0
1, 60719, Note_off_c, 1, 71, 0
1, 60719, Note_off_c, 1, 66, 0
1, 60719, Note_off_c, 1, 50, 0
1, 60720, Note_on_c, 1, 80, 127
1, 60720, Note_on_c, 1, 76, 127
1, 60720, Note_on_c, 1, 64, 127
1, 60720, Note_on_c, 1, 83, 127
1, 60720, Note_on_c, 1, 71, 127
1, 60720, Note_on_c, 1, 68, 127
1, 60720, Note_on_c, 1, 52, 127
1, 60779, Note_off_c, 1, 64, 0
1, 60779, Note_off_c, 1, 52, 0
1, 60780, Note_on_c, 1, 59, 127
1, 60780, Note_on_c, 1, 40, 127
1, 60809, Note_off_c, 1, 80, 0
1, 60809, Note_off_c, 1, 76, 0
1, 60809, Note_off_c, 1, 83, 0
1, 60809, Note_off_c, 1, 71, 0
1, 60809, Note_off_c, 1, 68, 0
1, 60810, Note_on_c, 1, 81, 127
1, 60810, Note_on_c, 1, 69, 127
1, 60839, Note_off_c, 1, 59, 0
1, 60839, Note_off_c, 1, 40, 0
1, 60839, Note_off_c, 1, 81, 0
1, 60839, Note_off_c, 1, 69, 0
1, 60840, Note_on_c, 1, 45, 127
1, 60840, Note_on_c, 1, 61, 127
1, 60869, Note_off_c, 1, 61, 0
1, 60870, Note_on_c, 1, 57, 127
1, 60899, Note_off_c, 1, 57, 0
1, 60900, Note_on_c, 1, 73, 127
1, 60959, Note_off_c, 1, 45, 0
1, 60959, Note_off_c, 1, 73, 0
1, 60960, Note_on_c, 1, 62, 127
1, 60989, Note_off_c, 1, 62, 0
1, 61020, Note_on_c, 1, 66, 127
1, 61049, Note_off_c, 1, 66, 0
1, 61050, Note_on_c, 1, 67, 127
1, 61079, Note_off_c, 1, 67, 0
1, 61140, Note_on_c, 1, 78, 127
1, 61140, Note_on_c, 1, 74, 127
1, 61169, Note_off_c, 1, 78, 0
1, 61169, Note_off_c, 1, 74, 0
1, 61170, Note_on_c, 1, 79, 127
1, 61199, Note_off_c, 1, 79, 0
1, 61200, Note_on_c, 1, 72, 127
1, 61260, Note_off_c, 1, 72, 0
1, 61260, Note_on_c, 1, 84, 127
1, 61260, Note_on_c, 1, 54, 127
1, 61289, Note_off_c, 1, 84, 0
1, 61289, Note_off_c, 1, 54, 0
1, 61380, Note_on_c, 1, 75, 127
1, 61380, Note_on_c, 1, 60, 127
1, 61409, Note_off_c, 1, 75, 0
1, 61439, Note_off_c, 1, 60, 0
1, 61560, Note_on_c, 1, 81, 127
1, 61560, Note_on_c, 1, 78, 127
1, 61560, Note_on_c, 1, 75, 127
1, 61560, Note_on_c, 1, 71, 127
1, 61560, Note_on_c, 1, 69, 127
1, 61560, Note_on_c, 1, 59, 127
1, 61560, Note_on_c, 1, 47, 127
1, 61589, Note_off_c, 1, 71, 0
1, 61590, Note_on_c, 1, 63, 127
1, 61590, Note_on_c, 1, 66, 127
1, 61619, Note_off_c, 1, 63, 0
1, 61619, Note_off_c, 1, 66, 0
1, 61620, Note_on_c, 1, 73, 127
1, 61620, Note_on_c, 1, 64, 127
1, 61620, Note_on_c, 1, 67, 127
1, 61620, Note_on_c, 1, 57, 127
1, 61649, Note_off_c, 1, 73, 0
1, 61649, Note_off_c, 1, 64, 0
1, 61649, Note_off_c, 1, 67, 0
1, 61649, Note_off_c, 1, 57, 0
1, 61650, Note_on_c, 1, 55, 127
1, 61679, Note_off_c, 1, 55, 0
1, 61680, Note_on_c, 1, 76, 127
1, 61680, Note_on_c, 1, 54, 127
1, 61709, Note_off_c, 1, 76, 0
1, 61709, Note_off_c, 1, 54, 0
1, 61710, Note_on_c, 1, 52, 127
1, 61739, Note_off_c, 1, 52, 0
1, 61740, Note_on_c, 1, 79, 127
1, 61740, Note_on_c, 1, 51, 127
1, 61769, Note_off_c, 1, 79, 0
1, 61769, Note_off_c, 1, 51, 0
1, 61770, Note_on_c, 1, 49, 127
1, 61799, Note_off_c, 1, 49, 0
1, 61800, Note_off_c, 1, 69, 0
1, 61800, Note_on_c, 1, 83, 127
1, 61829, Note_off_c, 1, 83, 0
1, 61830, Note_on_c, 1, 84, 127
1, 61830, Note_on_c, 1, 45, 127
1, 61859, Note_off_c, 1, 84, 0
1, 61859, Note_off_c, 1, 45, 0
1, 61860, Note_on_c, 1, 43, 127
1, 61889, Note_off_c, 1, 43, 0
1, 61890, Note_on_c, 1, 42, 127
1, 61919, Note_off_c, 1, 81, 0
1, 61919, Note_off_c, 1, 78, 0
1, 61919, Note_off_c, 1, 75, 0
1, 61919, Note_off_c, 1, 59, 0
1, 61919, Note_off_c, 1, 47, 0
1, 61919, Note_off_c, 1, 42, 0
1, 61920, Note_on_c, 1, 40, 127
1, 62039, Note_off_c, 1, 40, 0
1, 62490, Note_on_c, 1, 74, 127
1, 62519, Note_off_c, 1, 74, 0
1, 62640, Note_on_c, 1, 69, 127
1, 62640, Note_on_c, 1, 76, 127
1, 62640, Note_on_c, 1, 67, 127
1, 62640, Note_on_c, 1, 73, 127
1, 62640, Note_on_c, 1, 64, 127
1, 62640, Note_on_c, 1, 57, 127
1, 62640, Note_on_c, 1, 45, 127
1, 62670, Note_on_c, 1, 61, 127
1, 62699, Note_off_c, 1, 69, 0
1, 62699, Note_off_c, 1, 61, 0
1, 62700, Note_on_c, 1, 71, 127
1, 62700, Note_on_c, 1, 66, 127
1, 62700, Note_on_c, 1, 62, 127
1, 62700, Note_on_c, 1, 55, 127
1, 62729, Note_off_c, 1, 71, 0
1, 62729, Note_off_c, 1, 66, 0
1, 62729, Note_off_c, 1, 62, 0
1, 62729, Note_off_c, 1, 55, 0
1, 62730, Note_on_c, 1, 54, 127
1, 62759, Note_off_c, 1, 54, 0
1, 62760, Note_on_c, 1, 74, 127
1, 62760, Note_on_c, 1, 52, 127
1, 62789, Note_off_c, 1, 74, 0
1, 62789, Note_off_c, 1, 52, 0
1, 62790, Note_on_c, 1, 50, 127
1, 62819, Note_off_c, 1, 50, 0
1, 62820, Note_on_c, 1, 78, 127
1, 62820, Note_on_c, 1, 49, 127
1, 62849, Note_off_c, 1, 78, 0
1, 62849, Note_off_c, 1, 49, 0
1, 62850, Note_on_c, 1, 79, 127
1, 62850, Note_on_c, 1, 47, 127
1, 62879, Note_off_c, 1, 79, 0
1, 62879, Note_off_c, 1, 47, 0
1, 62880, Note_on_c, 1, 81, 127
1, 62909, Note_off_c, 1, 81, 0
1, 62910, Note_on_c, 1, 83, 127
1, 62910, Note_on_c, 1, 43, 127
1, 62939, Note_off_c, 1, 83, 0
1, 62939, Note_off_c, 1, 43, 0
1, 62940, Note_on_c, 1, 42, 127
1, 62969, Note_off_c, 1, 42, 0
1, 62970, Note_on_c, 1, 40, 127
1, 62999, Note_off_c, 1, 76, 0
1, 62999, Note_off_c, 1, 67, 0
1, 62999, Note_off_c, 1, 73, 0
1, 62999, Note_off_c, 1, 64, 0
1, 62999, Note_off_c, 1, 57, 0
1, 62999, Note_off_c, 1, 45, 0
1, 62999, Note_off_c, 1, 40, 0
1, 63000, Note_on_c, 1, 74, 127
1, 63000, Note_on_c, 1, 69, 127
1, 63000, Note_on_c, 1, 50, 127
1, 63000, Note_on_c, 1, 57, 127
1, 63000, Note_on_c, 1, 78, 127
1, 63000, Note_on_c, 1, 38, 127
1, 63029, Note_off_c, 1, 78, 0
1, 63030, Note_on_c, 1, 66, 127
1, 63059, Note_off_c, 1, 74, 0
1, 63059, Note_off_c, 1, 69, 0
1, 63059, Note_off_c, 1, 38, 0
1, 63059, Note_off_c, 1, 66, 0
1, 63060, Note_on_c, 1, 76, 127
1, 63060, Note_on_c, 1, 71, 127
1, 63060, Note_on_c, 1, 67, 127
1, 63060, Note_on_c, 1, 73, 127
1, 63060, Note_on_c, 1, 64, 127
1, 63089, Note_off_c, 1, 76, 0
1, 63089, Note_off_c, 1, 71, 0
1, 63089, Note_off_c, 1, 67, 0
1, 63089, Note_off_c, 1, 73, 0
1, 63089, Note_off_c, 1, 64, 0
1, 63090, Note_on_c, 1, 62, 127
1, 63119, Note_off_c, 1, 50, 0
1, 63119, Note_off_c, 1, 57, 0
1, 63119, Note_off_c, 1, 62, 0
1, 63120, Note_on_c, 1, 79, 127
1, 63120, Note_on_c, 1, 74, 127
1, 63120, Note_on_c, 1, 71, 127
1, 63120, Note_on_c, 1, 69, 127
1, 63120, Note_on_c, 1, 64, 127
1, 63120, Note_on_c, 1, 61, 127
1, 63120, Note_on_c, 1, 50, 127
1, 63149, Note_off_c, 1, 79, 0
1, 63149, Note_off_c, 1, 74, 0
1, 63149, Note_off_c, 1, 71, 0
1, 63149, Note_off_c, 1, 69, 0
1, 63149, Note_off_c, 1, 64, 0
1, 63149, Note_off_c, 1, 61, 0
1, 63150, Note_on_c, 1, 81, 127
1, 63150, Note_on_c, 1, 76, 127
1, 63150, Note_on_c, 1, 73, 127
1, 63150, Note_on_c, 1, 67, 127
1, 63150, Note_on_c, 1, 62, 127
1, 63150, Note_on_c, 1, 59, 127
1, 63179, Note_off_c, 1, 50, 0
1, 63179, Note_off_c, 1, 81, 0
1, 63179, Note_off_c, 1, 76, 0
1, 63179, Note_off_c, 1, 73, 0
1, 63179, Note_off_c, 1, 67, 0
1, 63179, Note_off_c, 1, 62, 0
1, 63179, Note_off_c, 1, 59, 0
1, 63180, Note_on_c, 1, 83, 127
1, 63180, Note_on_c, 1, 78, 127
1, 63180, Note_on_c, 1, 74, 127
1, 63180, Note_on_c, 1, 66, 127
1, 63180, Note_on_c, 1, 61, 127
1, 63180, Note_on_c, 1, 57, 127
1, 63180, Note_on_c, 1, 69, 127
1, 63180, Note_on_c, 1, 50, 127
1, 63209, Note_off_c, 1, 83, 0
1, 63209, Note_off_c, 1, 74, 0
1, 63209, Note_off_c, 1, 61, 0
1, 63209, Note_off_c, 1, 57, 0
1, 63210, Note_on_c, 1, 85, 127
1, 63210, Note_on_c, 1, 79, 127
1, 63210, Note_on_c, 1, 76, 127
1, 63210, Note_on_c, 1, 64, 127
1, 63210, Note_on_c, 1, 59, 127
1, 63210, Note_on_c, 1, 55, 127
1, 63239, Note_off_c, 1, 78, 0
1, 63239, Note_off_c, 1, 66, 0
1, 63239, Note_off_c, 1, 69, 0
1, 63239, Note_off_c, 1, 50, 0
1, 63239, Note_off_c, 1, 85, 0
1, 63239, Note_off_c, 1, 79, 0
1, 63239, Note_off_c, 1, 76, 0
1, 63239, Note_off_c, 1, 64, 0
1, 63239, Note_off_c, 1, 59, 0
1, 63239, Note_off_c, 1, 55, 0
1, 63240, Note_on_c, 1, 86, 127
1, 63240, Note_on_c, 1, 69, 127
1, 63240, Note_on_c, 1, 66, 127
1, 63240, Note_on_c, 1, 81, 127
1, 63240, Note_on_c, 1, 78, 127
1, 63240, Note_on_c, 1, 62, 127
1, 63240, Note_on_c, 1, 57, 127
1, 63240, Note_on_c, 1, 54, 127
1, 63240, Note_on_c, 1, 50, 127
1, 63269, Note_off_c, 1, 86, 0
1, 63270, Note_on_c, 1, 85, 127
1, 63299, Note_off_c, 1, 69, 0
1, 63299, Note_off_c, 1, 66, 0
1, 63299, Note_off_c, 1, 81, 0
1, 63299, Note_off_c, 1, 78, 0
1, 63299, Note_off_c, 1, 62, 0
1, 63299, Note_off_c, 1, 57, 0
1, 63299, Note_off_c, 1, 54, 0
1, 63299, Note_off_c, 1, 50, 0
1, 63299, Note_off_c, 1, 85, 0
1, 63300, Note_on_c, 1, 86, 127
1, 63300, Note_on_c, 1, 69, 127
1, 63300, Note_on_c, 1, 66, 127
1, 63300, Note_on_c, 1, 78, 127
1, 63300, Note_on_c, 1, 67, 127
1, 63300, Note_on_c, 1, 52, 127
1, 63329, Note_off_c, 1, 86, 0
1, 63329, Note_off_c, 1, 78, 0
1, 63329, Note_off_c, 1, 67, 0
1, 63329, Note_off_c, 1, 52, 0
1, 63330, Note_on_c, 1, 85, 127
1, 63330, Note_on_c, 1, 54, 127
1, 63359, Note_off_c, 1, 69, 0
1, 63359, Note_off_c, 1, 66, 0
1, 63359, Note_off_c, 1, 85, 0
1, 63359, Note_off_c, 1, 54, 0
1, 63360, Note_on_c, 1, 83, 127
1, 63360, Note_on_c, 1, 69, 127
1, 63360, Note_on_c, 1, 66, 127
1, 63360, Note_on_c, 1, 78, 127
1, 63360, Note_on_c, 1, 59, 127
1, 63360, Note_on_c, 1, 55, 127
1, 63390, Note_on_c, 1, 71, 127
1, 63419, Note_off_c, 1, 83, 0
1, 63419, Note_off_c, 1, 69, 0
1, 63419, Note_off_c, 1, 66, 0
1, 63419, Note_off_c, 1, 78, 0
1, 63419, Note_off_c, 1, 59, 0
1, 63419, Note_off_c, 1, 55, 0
1, 63419, Note_off_c, 1, 71, 0
1, 63420, Note_on_c, 1, 79, 127
1, 63420, Note_on_c, 1, 71, 127
1, 63420, Note_on_c, 1, 67, 127
1, 63420, Note_on_c, 1, 73, 127
1, 63420, Note_on_c, 1, 64, 127
1, 63420, Note_on_c, 1, 49, 127
1, 63449, Note_off_c, 1, 71, 0
1, 63449, Note_off_c, 1, 67, 0
1, 63449, Note_off_c, 1, 73, 0
1, 63450, Note_on_c, 1, 69, 127
1, 63450, Note_on_c, 1, 66, 127
1, 63450, Note_on_c, 1, 74, 127
1, 63450, Note_on_c, 1, 78, 127
1, 63479, Note_off_c, 1, 79, 0
1, 63479, Note_off_c, 1, 64, 0
1, 63479, Note_off_c, 1, 49, 0
1, 63479, Note_off_c, 1, 69, 0
1, 63479, Note_off_c, 1, 66, 0
1, 63479, Note_off_c, 1, 74, 0
1, 63479, Note_off_c, 1, 78, 0
1, 63480, Note_on_c, 1, 79, 127
1, 63480, Note_on_c, 1, 67, 127
1, 63480, Note_on_c, 1, 64, 127
1, 63480, Note_on_c, 1, 76, 127
1, 63480, Note_on_c, 1, 49, 127
1, 63510, Note_on_c, 1, 78, 127
1, 63510, Note_on_c, 1, 81, 127
1, 63539, Note_off_c, 1, 79, 0
1, 63539, Note_off_c, 1, 67, 0
1, 63539, Note_off_c, 1, 64, 0
1, 63539, Note_off_c, 1, 76, 0
1, 63539, Note_off_c, 1, 49, 0
1, 63539, Note_off_c, 1, 78, 0
1, 63539, Note_off_c, 1, 81, 0
1, 63540, Note_on_c, 1, 83, 127
1, 63540, Note_on_c, 1, 67, 127
1, 63540, Note_on_c, 1, 64, 127
1, 63540, Note_on_c, 1, 79, 127
1, 63540, Note_on_c, 1, 76, 127
1, 63540, Note_on_c, 1, 49, 127
1, 63569, Note_off_c, 1, 79, 0
1, 63570, Note_on_c, 1, 81, 127
1, 63570, Note_on_c, 1, 78, 127
1, 63599, Note_off_c, 1, 83, 0
1, 63599, Note_off_c, 1, 67, 0
1, 63599, Note_off_c, 1, 64, 0
1, 63599, Note_off_c, 1, 76, 0
1, 63599, Note_off_c, 1, 49, 0
1, 63599, Note_off_c, 1, 81, 0
1, 63599, Note_off_c, 1, 78, 0
1, 63600, Note_on_c, 1, 83, 127
1, 63600, Note_on_c, 1, 67, 127
1, 63600, Note_on_c, 1, 64, 127
1, 63600, Note_on_c, 1, 76, 127
1, 63600, Note_on_c, 1, 49, 127
1, 63630, Note_on_c, 1, 74, 127
1, 63659, Note_off_c, 1, 83, 0
1, 63659, Note_off_c, 1, 67, 0
1, 63659, Note_off_c, 1, 64, 0
1, 63659, Note_off_c, 1, 76, 0
1, 63659, Note_off_c, 1, 49, 0
1, 63659, Note_off_c, 1, 74, 0
1, 63660, Note_on_c, 1, 81, 127
1, 63660, Note_on_c, 1, 67, 127
1, 63660, Note_on_c, 1, 64, 127
1, 63660, Note_on_c, 1, 73, 127
1, 63660, Note_on_c, 1, 66, 127
1, 63660, Note_on_c, 1, 76, 127
1, 63660, Note_on_c, 1, 50, 127
1, 63689, Note_off_c, 1, 81, 0
1, 63689, Note_off_c, 1, 73, 0
1, 63689, Note_off_c, 1, 66, 0
1, 63689, Note_off_c, 1, 76, 0
1, 63689, Note_off_c, 1, 50, 0
1, 63690, Note_on_c, 1, 79, 127
1, 63690, Note_on_c, 1, 71, 127
1, 63690, Note_on_c, 1, 52, 127
1, 63719, Note_off_c, 1, 67, 0
1, 63719, Note_off_c, 1, 64, 0
1, 63719, Note_off_c, 1, 79, 0
1, 63719, Note_off_c, 1, 71, 0
1, 63719, Note_off_c, 1, 52, 0
1, 63720, Note_on_c, 1, 81, 127
1, 63720, Note_on_c, 1, 76, 127
1, 63720, Note_on_c, 1, 69, 127
1, 63720, Note_on_c, 1, 45, 127
1, 63720, Note_on_c, 1, 67, 127
1, 63720, Note_on_c, 1, 64, 127
1, 63720, Note_on_c, 1, 61, 127
1, 63720, Note_on_c, 1, 57, 127
1, 63720, Note_on_c, 1, 54, 127
1, 63779, Note_off_c, 1, 81, 0
1, 63779, Note_off_c, 1, 76, 0
1, 63779, Note_off_c, 1, 69, 0
1, 63779, Note_off_c, 1, 67, 0
1, 63779, Note_off_c, 1, 64, 0
1, 63779, Note_off_c, 1, 61, 0
1, 63779, Note_off_c, 1, 57, 0
1, 63779, Note_off_c, 1, 54, 0
1, 63780, Note_on_c, 1, 78, 127
1, 63780, Note_on_c, 1, 62, 127
1, 63780, Note_on_c, 1, 66, 127
1, 63780, Note_on_c, 1, 71, 127
1, 63780, Note_on_c, 1, 47, 127
1, 63809, Note_off_c, 1, 66, 0
1, 63809, Note_off_c, 1, 71, 0
1, 63810, Note_on_c, 1, 73, 127
1, 63839, Note_off_c, 1, 45, 0
1, 63839, Note_off_c, 1, 78, 0
1, 63839, Note_off_c, 1, 62, 0
1, 63839, Note_off_c, 1, 47, 0
1, 63839, Note_off_c, 1, 73, 0
1, 63840, Note_on_c, 1, 78, 127
1, 63840, Note_on_c, 1, 66, 127
1, 63840, Note_on_c, 1, 62, 127
1, 63840, Note_on_c, 1, 74, 127
1, 63840, Note_on_c, 1, 47, 127
1, 63870, Note_on_c, 1, 76, 127
1, 63870, Note_on_c, 1, 79, 127
1, 63899, Note_off_c, 1, 78, 0
1, 63899, Note_off_c, 1, 66, 0
1, 63899, Note_off_c, 1, 62, 0
1, 63899, Note_off_c, 1, 74, 0
1, 63899, Note_off_c, 1, 47, 0
1, 63899, Note_off_c, 1, 76, 0
1, 63899, Note_off_c, 1, 79, 0
1, 63900, Note_on_c, 1, 81, 127
1, 63900, Note_on_c, 1, 66, 127
1, 63900, Note_on_c, 1, 62, 127
1, 63900, Note_on_c, 1, 78, 127
1, 63900, Note_on_c, 1, 74, 127
1, 63900, Note_on_c, 1, 47, 127
1, 63929, Note_off_c, 1, 78, 0
1, 63930, Note_on_c, 1, 79, 127
1, 63930, Note_on_c, 1, 76, 127
1, 63959, Note_off_c, 1, 81, 0
1, 63959, Note_off_c, 1, 66, 0
1, 63959, Note_off_c, 1, 62, 0
1, 63959, Note_off_c, 1, 74, 0
1, 63959, Note_off_c, 1, 47, 0
1, 63959, Note_off_c, 1, 79, 0
1, 63959, Note_off_c, 1, 76, 0
1, 63960, Note_on_c, 1, 81, 127
1, 63960, Note_on_c, 1, 66, 127
1, 63960, Note_on_c, 1, 62, 127
1, 63960, Note_on_c, 1, 74, 127
1, 63960, Note_on_c, 1, 47, 127
1, 63990, Note_on_c, 1, 73, 127
1, 64019, Note_off_c, 1, 81, 0
1, 64019, Note_off_c, 1, 66, 0
1, 64019, Note_off_c, 1, 62, 0
1, 64019, Note_off_c, 1, 74, 0
1, 64019, Note_off_c, 1, 47, 0
1, 64019, Note_off_c, 1, 73, 0
1, 64020, Note_on_c, 1, 79, 127
1, 64020, Note_on_c, 1, 66, 127
1, 64020, Note_on_c, 1, 62, 127
1, 64020, Note_on_c, 1, 71, 127
1, 64020, Note_on_c, 1, 64, 127
1, 64020, Note_on_c, 1, 74, 127
1, 64020, Note_on_c, 1, 49, 127
1, 64049, Note_off_c, 1, 79, 0
1, 64049, Note_off_c, 1, 71, 0
1, 64049, Note_off_c, 1, 64, 0
1, 64049, Note_off_c, 1, 74, 0
1, 64049, Note_off_c, 1, 49, 0
1, 64050, Note_on_c, 1, 78, 127
1, 64050, Note_on_c, 1, 69, 127
1, 64050, Note_on_c, 1, 50, 127
1, 64079, Note_off_c, 1, 66, 0
1, 64079, Note_off_c, 1, 62, 0
1, 64079, Note_off_c, 1, 78, 0
1, 64079, Note_off_c, 1, 69, 0
1, 64079, Note_off_c, 1, 50, 0
1, 64080, Note_on_c, 1, 79, 127
1, 64080, Note_on_c, 1, 66, 127
1, 64080, Note_on_c, 1, 62, 127
1, 64080, Note_on_c, 1, 67, 127
1, 64080, Note_on_c, 1, 59, 127
1, 64080, Note_on_c, 1, 74, 127
1, 64080, Note_on_c, 1, 55, 127
1, 64080, Note_on_c, 1, 52, 127
1, 64139, Note_off_c, 1, 79, 0
1, 64139, Note_off_c, 1, 66, 0
1, 64139, Note_off_c, 1, 62, 0
1, 64139, Note_off_c, 1, 67, 0
1, 64139, Note_off_c, 1, 59, 0
1, 64139, Note_off_c, 1, 74, 0
1, 64139, Note_off_c, 1, 55, 0
1, 64139, Note_off_c, 1, 52, 0
1, 64140, Note_on_c, 1, 76, 127
1, 64140, Note_on_c, 1, 67, 127
1, 64140, Note_on_c, 1, 64, 127
1, 64140, Note_on_c, 1, 69, 127
1, 64140, Note_on_c, 1, 61, 127
1, 64140, Note_on_c, 1, 52, 127
1, 64140, Note_on_c, 1, 45, 127
1, 64169, Note_off_c, 1, 67, 0
1, 64169, Note_off_c, 1, 64, 0
1, 64169, Note_off_c, 1, 69, 0
1, 64170, Note_on_c, 1, 66, 127
1, 64170, Note_on_c, 1, 62, 127
1, 64170, Note_on_c, 1, 71, 127
1, 64170, Note_on_c, 1, 74, 127
1, 64199, Note_off_c, 1, 76, 0
1, 64199, Note_off_c, 1, 61, 0
1, 64199, Note_off_c, 1, 52, 0
1, 64199, Note_off_c, 1, 45, 0
1, 64199, Note_off_c, 1, 66, 0
1, 64199, Note_off_c, 1, 62, 0
1, 64199, Note_off_c, 1, 71, 0
1, 64199, Note_off_c, 1, 74, 0
1, 64200, Note_on_c, 1, 76, 127
1, 64200, Note_on_c, 1, 64, 127
1, 64200, Note_on_c, 1, 57, 127
1, 64200, Note_on_c, 1, 73, 127
1, 64200, Note_on_c, 1, 61, 127
1, 64200, Note_on_c, 1, 45, 127
1, 64230, Note_on_c, 1, 74, 127
1, 64230, Note_on_c, 1, 78, 127
1, 64259, Note_off_c, 1, 76, 0
1, 64259, Note_off_c, 1, 57, 0
1, 64259, Note_off_c, 1, 61, 0
1, 64259, Note_off_c, 1, 45, 0
1, 64259, Note_off_c, 1, 74, 0
1, 64259, Note_off_c, 1, 78, 0
1, 64260, Note_on_c, 1, 79, 127
1, 64319, Note_off_c, 1, 64, 0
1, 64319, Note_off_c, 1, 73, 0
1, 64319, Note_off_c, 1, 79, 0
1, 64320, Note_on_c, 1, 79, 127
1, 64320, Note_on_c, 1, 64, 127
1, 64320, Note_on_c, 1, 57, 127
1, 64320, Note_on_c, 1, 73, 127
1, 64320, Note_on_c, 1, 61, 127
1, 64320, Note_on_c, 1, 45, 127
1, 64349, Note_off_c, 1, 73, 0
1, 64350, Note_on_c, 1, 71, 127
1, 64379, Note_off_c, 1, 79, 0
1, 64379, Note_off_c, 1, 64, 0
1, 64379, Note_off_c, 1, 57, 0
1, 64379, Note_off_c, 1, 61, 0
1, 64379, Note_off_c, 1, 45, 0
1, 64379, Note_off_c, 1, 71, 0
1, 64380, Note_on_c, 1, 78, 127
1, 64380, Note_on_c, 1, 64, 127
1, 64380, Note_on_c, 1, 57, 127
1, 64380, Note_on_c, 1, 69, 127
1, 64380, Note_on_c, 1, 62, 127
1, 64380, Note_on_c, 1, 61, 127
1, 64380, Note_on_c, 1, 47, 127
1, 64409, Note_off_c, 1, 78, 0
1, 64409, Note_off_c, 1, 62, 0
1, 64409, Note_off_c, 1, 47, 0
1, 64410, Note_on_c, 1, 76, 127
1, 64410, Note_on_c, 1, 67, 127
1, 64410, Note_on_c, 1, 49, 127
1, 64439, Note_off_c, 1, 64, 0
1, 64439, Note_off_c, 1, 57, 0
1, 64439, Note_off_c, 1, 69, 0
1, 64439, Note_off_c, 1, 61, 0
1, 64439, Note_off_c, 1, 76, 0
1, 64439, Note_off_c, 1, 67, 0
1, 64439, Note_off_c, 1, 49, 0
1, 64440, Note_on_c, 1, 78, 127
1, 64440, Note_on_c, 1, 62, 127
1, 64440, Note_on_c, 1, 54, 127
1, 64440, Note_on_c, 1, 66, 127
1, 64440, Note_on_c, 1, 57, 127
1, 64440, Note_on_c, 1, 69, 127
1, 64440, Note_on_c, 1, 50, 127
1, 64469, Note_off_c, 1, 69, 0
1, 64469, Note_off_c, 1, 50, 0
1, 64499, Note_off_c, 1, 78, 0
1, 64499, Note_off_c, 1, 62, 0
1, 64499, Note_off_c, 1, 54, 0
1, 64499, Note_off_c, 1, 66, 0
1, 64499, Note_off_c, 1, 57, 0
1, 64500, Note_on_c, 1, 78, 127
1, 64500, Note_on_c, 1, 74, 127
1, 64500, Note_on_c, 1, 69, 127
1, 64500, Note_on_c, 1, 50, 127
1, 64500, Note_on_c, 1, 66, 127
1, 64500, Note_on_c, 1, 62, 127
1, 64500, Note_on_c, 1, 67, 127
1, 64500, Note_on_c, 1, 59, 127
1, 64529, Note_off_c, 1, 50, 0
1, 64529, Note_off_c, 1, 67, 0
1, 64529, Note_off_c, 1, 59, 0
1, 64530, Note_on_c, 1, 61, 127
1, 64559, Note_off_c, 1, 78, 0
1, 64559, Note_off_c, 1, 74, 0
1, 64559, Note_off_c, 1, 69, 0
1, 64559, Note_off_c, 1, 66, 0
1, 64559, Note_off_c, 1, 62, 0
1, 64559, Note_off_c, 1, 61, 0
1, 64560, Note_on_c, 1, 78, 127
1, 64560, Note_on_c, 1, 74, 127
1, 64560, Note_on_c, 1, 69, 127
1, 64560, Note_on_c, 1, 50, 127
1, 64560, Note_on_c, 1, 66, 127
1, 64560, Note_on_c, 1, 62, 127
1, 64560, Note_on_c, 1, 71, 127
1, 64589, Note_off_c, 1, 50, 0
1, 64589, Note_off_c, 1, 71, 0
1, 64590, Note_on_c, 1, 73, 127
1, 64590, Note_on_c, 1, 76, 127
1, 64590, Note_on_c, 1, 64, 127
1, 64619, Note_off_c, 1, 78, 0
1, 64619, Note_off_c, 1, 74, 0
1, 64619, Note_off_c, 1, 69, 0
1, 64619, Note_off_c, 1, 66, 0
1, 64619, Note_off_c, 1, 62, 0
1, 64619, Note_off_c, 1, 73, 0
1, 64619, Note_off_c, 1, 76, 0
1, 64619, Note_off_c, 1, 64, 0
1, 64620, Note_on_c, 1, 78, 127
1, 64620, Note_on_c, 1, 74, 127
1, 64620, Note_on_c, 1, 69, 127
1, 64620, Note_on_c, 1, 50, 127
1, 64620, Note_on_c, 1, 66, 127
1, 64620, Note_on_c, 1, 62, 127
1, 64649, Note_off_c, 1, 50, 0
1, 64650, Note_on_c, 1, 76, 127
1, 64650, Note_on_c, 1, 73, 127
1, 64650, Note_on_c, 1, 61, 127
1, 64650, Note_on_c, 1, 64, 127
1, 64679, Note_off_c, 1, 78, 0
1, 64679, Note_off_c, 1, 74, 0
1, 64679, Note_off_c, 1, 69, 0
1, 64679, Note_off_c, 1, 66, 0
1, 64679, Note_off_c, 1, 62, 0
1, 64679, Note_off_c, 1, 76, 0
1, 64679, Note_off_c, 1, 73, 0
1, 64679, Note_off_c, 1, 61, 0
1, 64679, Note_off_c, 1, 64, 0
1, 64680, Note_on_c, 1, 78, 127
1, 64680, Note_on_c, 1, 74, 127
1, 64680, Note_on_c, 1, 69, 127
1, 64680, Note_on_c, 1, 50, 127
1, 64680, Note_on_c, 1, 66, 127
1, 64680, Note_on_c, 1, 62, 127
1, 64680, Note_on_c, 1, 71, 127
1, 64680, Note_on_c, 1, 59, 127
1, 64709, Note_off_c, 1, 71, 0
1, 64709, Note_off_c, 1, 59, 0
1, 64710, Note_on_c, 1, 57, 127
1, 64710, Note_on_c, 1, 61, 127
1, 64739, Note_off_c, 1, 78, 0
1, 64739, Note_off_c, 1, 74, 0
1, 64739, Note_off_c, 1, 69, 0
1, 64739, Note_off_c, 1, 50, 0
1, 64739, Note_off_c, 1, 66, 0
1, 64739, Note_off_c, 1, 62, 0
1, 64739, Note_off_c, 1, 57, 0
1, 64739, Note_off_c, 1, 61, 0
1, 64740, Note_on_c, 1, 78, 127
1, 64740, Note_on_c, 1, 74, 127
1, 64740, Note_on_c, 1, 69, 127
1, 64740, Note_on_c, 1, 66, 127
1, 64740, Note_on_c, 1, 62, 127
1, 64740, Note_on_c, 1, 68, 127
1, 64740, Note_on_c, 1, 71, 127
1, 64740, Note_on_c, 1, 56, 127
1, 64740, Note_on_c, 1, 59, 127
1, 64769, Note_off_c, 1, 68, 0
1, 64769, Note_off_c, 1, 71, 0
1, 64769, Note_off_c, 1, 56, 0
1, 64769, Note_off_c, 1, 59, 0
1, 64770, Note_on_c, 1, 73, 127
1, 64770, Note_on_c, 1, 54, 127
1, 64770, Note_on_c, 1, 57, 127
1, 64799, Note_off_c, 1, 78, 0
1, 64799, Note_off_c, 1, 74, 0
1, 64799, Note_off_c, 1, 69, 0
1, 64799, Note_off_c, 1, 66, 0
1, 64799, Note_off_c, 1, 62, 0
1, 64799, Note_off_c, 1, 73, 0
1, 64799, Note_off_c, 1, 54, 0
1, 64799, Note_off_c, 1, 57, 0
1, 64800, Note_on_c, 1, 68, 127
1, 64800, Note_on_c, 1, 74, 127
1, 64800, Note_on_c, 1, 56, 127
1, 64800, Note_on_c, 1, 59, 127
1, 64829, Note_off_c, 1, 59, 0
1, 64830, Note_on_c, 1, 69, 127
1, 64830, Note_on_c, 1, 72, 127
1, 64830, Note_on_c, 1, 60, 127
1, 64859, Note_off_c, 1, 68, 0
1, 64859, Note_off_c, 1, 74, 0
1, 64859, Note_off_c, 1, 56, 0
1, 64859, Note_off_c, 1, 69, 0
1, 64859, Note_off_c, 1, 72, 0
1, 64859, Note_off_c, 1, 60, 0
1, 64860, Note_on_c, 1, 77, 127
1, 64860, Note_on_c, 1, 83, 127
1, 64860, Note_on_c, 1, 74, 127
1, 64860, Note_on_c, 1, 50, 127
1, 64860, Note_on_c, 1, 68, 127
1, 64860, Note_on_c, 1, 62, 127
1, 64860, Note_on_c, 1, 71, 127
1, 64860, Note_on_c, 1, 52, 127
1, 64889, Note_off_c, 1, 50, 0
1, 64889, Note_off_c, 1, 71, 0
1, 64889, Note_off_c, 1, 52, 0
1, 64890, Note_on_c, 1, 69, 127
1, 64890, Note_on_c, 1, 60, 127
1, 64919, Note_off_c, 1, 77, 0
1, 64919, Note_off_c, 1, 83, 0
1, 64919, Note_off_c, 1, 74, 0
1, 64919, Note_off_c, 1, 68, 0
1, 64919, Note_off_c, 1, 62, 0
1, 64919, Note_off_c, 1, 69, 0
1, 64919, Note_off_c, 1, 60, 0
1, 64920, Note_on_c, 1, 77, 127
1, 64920, Note_on_c, 1, 83, 127
1, 64920, Note_on_c, 1, 74, 127
1, 64920, Note_on_c, 1, 50, 127
1, 64920, Note_on_c, 1, 68, 127
1, 64920, Note_on_c, 1, 62, 127
1, 64920, Note_on_c, 1, 71, 127
1, 64920, Note_on_c, 1, 59, 127
1, 64949, Note_off_c, 1, 50, 0
1, 64949, Note_off_c, 1, 71, 0
1, 64949, Note_off_c, 1, 59, 0
1, 64950, Note_on_c, 1, 73, 127
1, 64950, Note_on_c, 1, 76, 127
1, 64950, Note_on_c, 1, 64, 127
1, 64950, Note_on_c, 1, 57, 127
1, 64979, Note_off_c, 1, 77, 0
1, 64979, Note_off_c, 1, 83, 0
1, 64979, Note_off_c, 1, 74, 0
1, 64979, Note_off_c, 1, 68, 0
1, 64979, Note_off_c, 1, 62, 0
1, 64979, Note_off_c, 1, 73, 0
1, 64979, Note_off_c, 1, 76, 0
1, 64979, Note_off_c, 1, 64, 0
1, 64979, Note_off_c, 1, 57, 0
1, 64980, Note_on_c, 1, 77, 127
1, 64980, Note_on_c, 1, 83, 127
1, 64980, Note_on_c, 1, 74, 127
1, 64980, Note_on_c, 1, 50, 127
1, 64980, Note_on_c, 1, 68, 127
1, 64980, Note_on_c, 1, 62, 127
1, 64980, Note_on_c, 1, 64, 127
1, 64980, Note_on_c, 1, 56, 127
1, 65009, Note_off_c, 1, 50, 0
1, 65009, Note_off_c, 1, 64, 0
1, 65009, Note_off_c, 1, 56, 0
1, 65010, Note_on_c, 1, 76, 127
1, 65010, Note_on_c, 1, 72, 127
1, 65010, Note_on_c, 1, 60, 127
1, 65010, Note_on_c, 1, 54, 127
1, 65039, Note_off_c, 1, 77, 0
1, 65039, Note_off_c, 1, 83, 0
1, 65039, Note_off_c, 1, 74, 0
1, 65039, Note_off_c, 1, 68, 0
1, 65039, Note_off_c, 1, 62, 0
1, 65039, Note_off_c, 1, 76, 0
1, 65039, Note_off_c, 1, 72, 0
1, 65039, Note_off_c, 1, 60, 0
1, 65039, Note_off_c, 1, 54, 0
1, 65040, Note_on_c, 1, 77, 127
1, 65040, Note_on_c, 1, 83, 127
1, 65040, Note_on_c, 1, 74, 127
1, 65040, Note_on_c, 1, 50, 127
1, 65040, Note_on_c, 1, 68, 127
1, 65040, Note_on_c, 1, 62, 127
1, 65040, Note_on_c, 1, 71, 127
1, 65040, Note_on_c, 1, 59, 127
1, 65040, Note_on_c, 1, 56, 127
1, 65069, Note_off_c, 1, 71, 0
1, 65069, Note_off_c, 1, 59, 0
1, 65069, Note_off_c, 1, 56, 0
1, 65070, Note_on_c, 1, 69, 127
1, 65070, Note_on_c, 1, 57, 127
1, 65099, Note_off_c, 1, 77, 0
1, 65099, Note_off_c, 1, 83, 0
1, 65099, Note_off_c, 1, 74, 0
1, 65099, Note_off_c, 1, 50, 0
1, 65099, Note_off_c, 1, 68, 0
1, 65099, Note_off_c, 1, 62, 0
1, 65099, Note_off_c, 1, 69, 0
1, 65099, Note_off_c, 1, 57, 0
1, 65100, Note_on_c, 1, 77, 127
1, 65100, Note_on_c, 1, 83, 127
1, 65100, Note_on_c, 1, 74, 127
1, 65100, Note_on_c, 1, 68, 127
1, 65100, Note_on_c, 1, 62, 127
1, 65100, Note_on_c, 1, 56, 127
1, 65100, Note_on_c, 1, 59, 127
1, 65129, Note_off_c, 1, 56, 0
1, 65129, Note_off_c, 1, 59, 0
1, 65130, Note_on_c, 1, 66, 127
1, 65130, Note_on_c, 1, 69, 127
1, 65130, Note_on_c, 1, 54, 127
1, 65130, Note_on_c, 1, 57, 127
1, 65159, Note_off_c, 1, 77, 0
1, 65159, Note_off_c, 1, 83, 0
1, 65159, Note_off_c, 1, 74, 0
1, 65159, Note_off_c, 1, 68, 0
1, 65159, Note_off_c, 1, 62, 0
1, 65159, Note_off_c, 1, 66, 0
1, 65159, Note_off_c, 1, 69, 0
1, 65159, Note_off_c, 1, 54, 0
1, 65159, Note_off_c, 1, 57, 0
1, 65160, Note_on_c, 1, 64, 127
1, 65160, Note_on_c, 1, 71, 127
1, 65160, Note_on_c, 1, 74, 127
1, 65160, Note_on_c, 1, 52, 127
1, 65160, Note_on_c, 1, 56, 127
1, 65189, Note_off_c, 1, 71, 0
1, 65189, Note_off_c, 1, 74, 0
1, 65189, Note_off_c, 1, 56, 0
1, 65190, Note_on_c, 1, 69, 127
1, 65190, Note_on_c, 1, 62, 127
1, 65190, Note_on_c, 1, 54, 127
1, 65219, Note_off_c, 1, 52, 0
1, 65219, Note_off_c, 1, 69, 0
1, 65219, Note_off_c, 1, 62, 0
1, 65219, Note_off_c, 1, 54, 0
1, 65220, Note_on_c, 1, 76, 127
1, 65220, Note_on_c, 1, 83, 127
1, 65220, Note_on_c, 1, 50, 127
1, 65220, Note_on_c, 1, 68, 127
1, 65220, Note_on_c, 1, 59, 127
1, 65249, Note_off_c, 1, 50, 0
1, 65249, Note_off_c, 1, 68, 0
1, 65249, Note_off_c, 1, 59, 0
1, 65250, Note_on_c, 1, 78, 127
1, 65250, Note_on_c, 1, 66, 127
1, 65250, Note_on_c, 1, 61, 127
1, 65279, Note_off_c, 1, 64, 0
1, 65279, Note_off_c, 1, 76, 0
1, 65279, Note_off_c, 1, 83, 0
1, 65279, Note_off_c, 1, 78, 0
1, 65279, Note_off_c, 1, 66, 0
1, 65279, Note_off_c, 1, 61, 0
1, 65280, Note_on_c, 1, 76, 127
1, 65280, Note_on_c, 1, 83, 127
1, 65280, Note_on_c, 1, 74, 127
1, 65280, Note_on_c, 1, 50, 127
1, 65280, Note_on_c, 1, 71, 127
1, 65280, Note_on_c, 1, 64, 127
1, 65280, Note_on_c, 1, 80, 127
1, 65280, Note_on_c, 1, 68, 127
1, 65280, Note_on_c, 1, 62, 127
1, 65280, Note_on_c, 1, 49, 127
1, 65280, Note_on_c, 1, 52, 127
1, 65309, Note_off_c, 1, 50, 0
1, 65309, Note_off_c, 1, 80, 0
1, 65309, Note_off_c, 1, 68, 0
1, 65309, Note_off_c, 1, 62, 0
1, 65309, Note_off_c, 1, 49, 0
1, 65309, Note_off_c, 1, 52, 0
1, 65310, Note_on_c, 1, 81, 127
1, 65310, Note_on_c, 1, 73, 127
1, 65310, Note_on_c, 1, 69, 127
1, 65310, Note_on_c, 1, 61, 127
1, 65310, Note_on_c, 1, 54, 127
1, 65339, Note_off_c, 1, 76, 0
1, 65339, Note_off_c, 1, 83, 0
1, 65339, Note_off_c, 1, 74, 0
1, 65339, Note_off_c, 1, 71, 0
1, 65339, Note_off_c, 1, 64, 0
1, 65339, Note_off_c, 1, 81, 0
1, 65339, Note_off_c, 1, 73, 0
1, 65339, Note_off_c, 1, 69, 0
1, 65339, Note_off_c, 1, 61, 0
1, 65339, Note_off_c, 1, 54, 0
1, 65340, Note_on_c, 1, 76, 127
1, 65340, Note_on_c, 1, 83, 127
1, 65340, Note_on_c, 1, 74, 127
1, 65340, Note_on_c, 1, 50, 127
1, 65340, Note_on_c, 1, 71, 127
1, 65340, Note_on_c, 1, 64, 127
1, 65340, Note_on_c, 1, 59, 127
1, 65340, Note_on_c, 1, 52, 127
1, 65340, Note_on_c, 1, 56, 127
1, 65369, Note_off_c, 1, 50, 0
1, 65369, Note_off_c, 1, 59, 0
1, 65369, Note_off_c, 1, 52, 0
1, 65369, Note_off_c, 1, 56, 0
1, 65370, Note_on_c, 1, 85, 127
1, 65370, Note_on_c, 1, 69, 127
1, 65370, Note_on_c, 1, 73, 127
1, 65370, Note_on_c, 1, 57, 127
1, 65370, Note_on_c, 1, 54, 127
1, 65399, Note_off_c, 1, 76, 0
1, 65399, Note_off_c, 1, 83, 0
1, 65399, Note_off_c, 1, 74, 0
1, 65399, Note_off_c, 1, 71, 0
1, 65399, Note_off_c, 1, 64, 0
1, 65399, Note_off_c, 1, 85, 0
1, 65399, Note_off_c, 1, 69, 0
1, 65399, Note_off_c, 1, 73, 0
1, 65399, Note_off_c, 1, 57, 0
1, 65399, Note_off_c, 1, 54, 0
1, 65400, Note_on_c, 1, 76, 127
1, 65400, Note_on_c, 1, 83, 127
1, 65400, Note_on_c, 1, 74, 127
1, 65400, Note_on_c, 1, 50, 127
1, 65400, Note_on_c, 1, 71, 127
1, 65400, Note_on_c, 1, 64, 127
1, 65400, Note_on_c, 1, 86, 127
1, 65400, Note_on_c, 1, 68, 127
1, 65400, Note_on_c, 1, 56, 127
1, 65400, Note_on_c, 1, 52, 127
1, 65429, Note_off_c, 1, 56, 0
1, 65429, Note_off_c, 1, 52, 0
1, 65430, Note_on_c, 1, 66, 127
1, 65430, Note_on_c, 1, 59, 127
1, 65430, Note_on_c, 1, 54, 127
1, 65459, Note_off_c, 1, 76, 0
1, 65459, Note_off_c, 1, 83, 0
1, 65459, Note_off_c, 1, 74, 0
1, 65459, Note_off_c, 1, 50, 0
1, 65459, Note_off_c, 1, 71, 0
1, 65459, Note_off_c, 1, 64, 0
1, 65459, Note_off_c, 1, 86, 0
1, 65459, Note_off_c, 1, 68, 0
1, 65459, Note_off_c, 1, 66, 0
1, 65459, Note_off_c, 1, 59, 0
1, 65459, Note_off_c, 1, 54, 0
1, 65460, Note_on_c, 1, 76, 127
1, 65460, Note_on_c, 1, 83, 127
1, 65460, Note_on_c, 1, 74, 127
1, 65460, Note_on_c, 1, 71, 127
1, 65460, Note_on_c, 1, 64, 127
1, 65460, Note_on_c, 1, 69, 127
1, 65460, Note_on_c, 1, 66, 127
1, 65460, Note_on_c, 1, 61, 127
1, 65460, Note_on_c, 1, 68, 127
1, 65460, Note_on_c, 1, 52, 127
1, 65460, Note_on_c, 1, 49, 127
1, 65489, Note_off_c, 1, 69, 0
1, 65489, Note_off_c, 1, 66, 0
1, 65489, Note_off_c, 1, 61, 0
1, 65489, Note_off_c, 1, 68, 0
1, 65489, Note_off_c, 1, 52, 0
1, 65489, Note_off_c, 1, 49, 0
1, 65490, Note_on_c, 1, 62, 127
1, 65490, Note_on_c, 1, 50, 127
1, 65490, Note_on_c, 1, 47, 127
1, 65519, Note_off_c, 1, 76, 0
1, 65519, Note_off_c, 1, 83, 0
1, 65519, Note_off_c, 1, 74, 0
1, 65519, Note_off_c, 1, 71, 0
1, 65519, Note_off_c, 1, 64, 0
1, 65519, Note_off_c, 1, 62, 0
1, 65519, Note_off_c, 1, 50, 0
1, 65519, Note_off_c, 1, 47, 0
1, 65520, Note_on_c, 1, 85, 127
1, 65520, Note_on_c, 1, 76, 127
1, 65520, Note_on_c, 1, 81, 127
1, 65520, Note_on_c, 1, 45, 127
1, 65520, Note_on_c, 1, 73, 127
1, 65520, Note_on_c, 1, 64, 127
1, 65520, Note_on_c, 1, 69, 127
1, 65520, Note_on_c, 1, 52, 127
1, 65579, Note_off_c, 1, 85, 0
1, 65579, Note_off_c, 1, 76, 0
1, 65579, Note_off_c, 1, 81, 0
1, 65579, Note_off_c, 1, 45, 0
1, 65579, Note_off_c, 1, 64, 0
1, 65580, Note_on_c, 1, 57, 127
1, 65580, Note_on_c, 1, 47, 127
1, 65609, Note_off_c, 1, 47, 0
1, 65610, Note_on_c, 1, 49, 127
1, 65639, Note_off_c, 1, 73, 0
1, 65639, Note_off_c, 1, 69, 0
1, 65639, Note_off_c, 1, 52, 0
1, 65639, Note_off_c, 1, 57, 0
1, 65639, Note_off_c, 1, 49, 0
1, 65640, Note_on_c, 1, 45, 127
1, 65640, Note_on_c, 1, 64, 127
1, 65640, Note_on_c, 1, 57, 127
1, 65640, Note_on_c, 1, 81, 127
1, 65640, Note_on_c, 1, 76, 127
1, 65640, Note_on_c, 1, 73, 127
1, 65640, Note_on_c, 1, 50, 127
1, 65654, Note_off_c, 1, 45, 0
1, 65669, Note_off_c, 1, 50, 0
1, 65670, Note_on_c, 1, 52, 127
1, 65699, Note_off_c, 1, 64, 0
1, 65699, Note_off_c, 1, 57, 0
1, 65699, Note_off_c, 1, 81, 0
1, 65699, Note_off_c, 1, 76, 0
1, 65699, Note_off_c, 1, 73, 0
1, 65699, Note_off_c, 1, 52, 0
1, 65700, Note_on_c, 1, 45, 127
1, 65700, Note_on_c, 1, 64, 127
1, 65700, Note_on_c, 1, 57, 127
1, 65700, Note_on_c, 1, 76, 127
1, 65700, Note_on_c, 1, 73, 127
1, 65700, Note_on_c, 1, 69, 127
1, 65700, Note_on_c, 1, 54, 127
1, 65714, Note_off_c, 1, 45, 0
1, 65729, Note_off_c, 1, 54, 0
1, 65730, Note_on_c, 1, 55, 127
1, 65759, Note_off_c, 1, 64, 0
1, 65759, Note_off_c, 1, 57, 0
1, 65759, Note_off_c, 1, 76, 0
1, 65759, Note_off_c, 1, 73, 0
1, 65759, Note_off_c, 1, 69, 0
1, 65759, Note_off_c, 1, 55, 0
1, 65760, Note_on_c, 1, 45, 127
1, 65760, Note_on_c, 1, 64, 127
1, 65760, Note_on_c, 1, 57, 127
1, 65760, Note_on_c, 1, 76, 127
1, 65760, Note_on_c, 1, 73, 127
1, 65760, Note_on_c, 1, 69, 127
1, 65760, Note_on_c, 1, 67, 127
1, 65774, Note_off_c, 1, 45, 0
1, 65790, Note_on_c, 1, 55, 127
1, 65819, Note_off_c, 1, 64, 0
1, 65819, Note_off_c, 1, 57, 0
1, 65819, Note_off_c, 1, 76, 0
1, 65819, Note_off_c, 1, 73, 0
1, 65819, Note_off_c, 1, 69, 0
1, 65819, Note_off_c, 1, 67, 0
1, 65819, Note_off_c, 1, 55, 0
1, 65820, Note_on_c, 1, 45, 127
1, 65820, Note_on_c, 1, 62, 127
1, 65820, Note_on_c, 1, 54, 127
1, 65820, Note_on_c, 1, 73, 127
1, 65820, Note_on_c, 1, 69, 127
1, 65820, Note_on_c, 1, 64, 127
1, 65820, Note_on_c, 1, 78, 127
1, 65820, Note_on_c, 1, 74, 127
1, 65820, Note_on_c, 1, 57, 127
1, 65834, Note_off_c, 1, 45, 0
1, 65849, Note_off_c, 1, 62, 0
1, 65849, Note_off_c, 1, 54, 0
1, 65849, Note_off_c, 1, 78, 0
1, 65849, Note_off_c, 1, 74, 0
1, 65849, Note_off_c, 1, 57, 0
1, 65850, Note_on_c, 1, 76, 127
1, 65850, Note_on_c, 1, 67, 127
1, 65850, Note_on_c, 1, 55, 127
1, 65879, Note_off_c, 1, 73, 0
1, 65879, Note_off_c, 1, 69, 0
1, 65879, Note_off_c, 1, 64, 0
1, 65879, Note_off_c, 1, 76, 0
1, 65879, Note_off_c, 1, 67, 0
1, 65879, Note_off_c, 1, 55, 0
1, 65880, Note_on_c, 1, 86, 127
1, 65880, Note_on_c, 1, 81, 127
1, 65880, Note_on_c, 1, 78, 127
1, 65880, Note_on_c, 1, 45, 127
1, 65880, Note_on_c, 1, 66, 127
1, 65880, Note_on_c, 1, 62, 127
1, 65880, Note_on_c, 1, 74, 127
1, 65880, Note_on_c, 1, 69, 127
1, 65880, Note_on_c, 1, 57, 127
1, 65894, Note_off_c, 1, 45, 0
1, 65909, Note_off_c, 1, 57, 0
1, 65939, Note_off_c, 1, 86, 0
1, 65939, Note_off_c, 1, 81, 0
1, 65939, Note_off_c, 1, 78, 0
1, 65939, Note_off_c, 1, 66, 0
1, 65939, Note_off_c, 1, 62, 0
1, 65939, Note_off_c, 1, 74, 0
1, 65939, Note_off_c, 1, 69, 0
1, 65940, Note_on_c, 1, 81, 127
1, 65940, Note_on_c, 1, 78, 127
1, 65940, Note_on_c, 1, 74, 127
1, 65940, Note_on_c, 1, 45, 127
1, 65940, Note_on_c, 1, 66, 127
1, 65940, Note_on_c, 1, 62, 127
1, 65940, Note_on_c, 1, 69, 127
1, 65940, Note_on_c, 1, 47, 127
1, 65954, Note_off_c, 1, 45, 0
1, 65969, Note_off_c, 1, 47, 0
1, 65970, Note_on_c, 1, 49, 127
1, 65999, Note_off_c, 1, 81, 0
1, 65999, Note_off_c, 1, 78, 0
1, 65999, Note_off_c, 1, 74, 0
1, 65999, Note_off_c, 1, 66, 0
1, 65999, Note_off_c, 1, 62, 0
1, 65999, Note_off_c, 1, 69, 0
1, 65999, Note_off_c, 1, 49, 0
1, 66000, Note_on_c, 1, 45, 127
1, 66000, Note_on_c, 1, 66, 127
1, 66000, Note_on_c, 1, 62, 127
1, 66000, Note_on_c, 1, 81, 127
1, 66000, Note_on_c, 1, 78, 127
1, 66000, Note_on_c, 1, 74, 127
1, 66000, Note_on_c, 1, 50, 127
1, 66014, Note_off_c, 1, 45, 0
1, 66029, Note_off_c, 1, 50, 0
1, 66030, Note_on_c, 1, 52, 127
1, 66059, Note_off_c, 1, 66, 0
1, 66059, Note_off_c, 1, 62, 0
1, 66059, Note_off_c, 1, 81, 0
1, 66059, Note_off_c, 1, 78, 0
1, 66059, Note_off_c, 1, 74, 0
1, 66059, Note_off_c, 1, 52, 0
1, 66060, Note_on_c, 1, 45, 127
1, 66060, Note_on_c, 1, 66, 127
1, 66060, Note_on_c, 1, 62, 127
1, 66060, Note_on_c, 1, 78, 127
1, 66060, Note_on_c, 1, 74, 127
1, 66060, Note_on_c, 1, 69, 127
1, 66060, Note_on_c, 1, 54, 127
1, 66074, Note_off_c, 1, 45, 0
1, 66089, Note_off_c, 1, 54, 0
1, 66090, Note_on_c, 1, 55, 127
1, 66119, Note_off_c, 1, 66, 0
1, 66119, Note_off_c, 1, 62, 0
1, 66119, Note_off_c, 1, 78, 0
1, 66119, Note_off_c, 1, 74, 0
1, 66119, Note_off_c, 1, 69, 0
1, 66119, Note_off_c, 1, 55, 0
1, 66120, Note_on_c, 1, 45, 127
1, 66120, Note_on_c, 1, 66, 127
1, 66120, Note_on_c, 1, 62, 127
1, 66120, Note_on_c, 1, 78, 127
1, 66120, Note_on_c, 1, 74, 127
1, 66120, Note_on_c, 1, 69, 127
1, 66120, Note_on_c, 1, 57, 127
1, 66134, Note_off_c, 1, 45, 0
1, 66150, Note_on_c, 1, 55, 127
1, 66179, Note_off_c, 1, 66, 0
1, 66179, Note_off_c, 1, 62, 0
1, 66179, Note_off_c, 1, 78, 0
1, 66179, Note_off_c, 1, 74, 0
1, 66179, Note_off_c, 1, 69, 0
1, 66179, Note_off_c, 1, 57, 0
1, 66179, Note_off_c, 1, 55, 0
1, 66180, Note_on_c, 1, 45, 127
1, 66180, Note_on_c, 1, 64, 127
1, 66180, Note_on_c, 1, 57, 127
1, 66180, Note_on_c, 1, 74, 127
1, 66180, Note_on_c, 1, 69, 127
1, 66180, Note_on_c, 1, 66, 127
1, 66180, Note_on_c, 1, 79, 127
1, 66180, Note_on_c, 1, 76, 127
1, 66180, Note_on_c, 1, 61, 127
1, 66194, Note_off_c, 1, 45, 0
1, 66209, Note_off_c, 1, 64, 0
1, 66209, Note_off_c, 1, 57, 0
1, 66209, Note_off_c, 1, 79, 0
1, 66209, Note_off_c, 1, 76, 0
1, 66209, Note_off_c, 1, 61, 0
1, 66210, Note_on_c, 1, 62, 127
1, 66210, Note_on_c, 1, 78, 127
1, 66210, Note_on_c, 1, 55, 127
1, 66239, Note_off_c, 1, 74, 0
1, 66239, Note_off_c, 1, 69, 0
1, 66239, Note_off_c, 1, 66, 0
1, 66239, Note_off_c, 1, 62, 0
1, 66239, Note_off_c, 1, 78, 0
1, 66239, Note_off_c, 1, 55, 0
1, 66240, Note_on_c, 1, 85, 127
1, 66240, Note_on_c, 1, 81, 127
1, 66240, Note_on_c, 1, 76, 127
1, 66240, Note_on_c, 1, 45, 127
1, 66240, Note_on_c, 1, 67, 127
1, 66240, Note_on_c, 1, 64, 127
1, 66240, Note_on_c, 1, 73, 127
1, 66240, Note_on_c, 1, 57, 127
1, 66254, Note_off_c, 1, 45, 0
1, 66299, Note_off_c, 1, 85, 0
1, 66299, Note_off_c, 1, 81, 0
1, 66299, Note_off_c, 1, 76, 0
1, 66299, Note_off_c, 1, 67, 0
1, 66299, Note_off_c, 1, 64, 0
1, 66299, Note_off_c, 1, 73, 0
1, 66299, Note_off_c, 1, 57, 0
1, 66300, Note_on_c, 1, 81, 127
1, 66300, Note_on_c, 1, 76, 127
1, 66300, Note_on_c, 1, 69, 127
1, 66300, Note_on_c, 1, 45, 127
1, 66300, Note_on_c, 1, 67, 127
1, 66300, Note_on_c, 1, 64, 127
1, 66300, Note_on_c, 1, 73, 127
1, 66300, Note_on_c, 1, 57, 127
1, 66300, Note_on_c, 1, 47, 127
1, 66314, Note_off_c, 1, 45, 0
1, 66329, Note_off_c, 1, 47, 0
1, 66330, Note_on_c, 1, 49, 127
1, 66359, Note_off_c, 1, 81, 0
1, 66359, Note_off_c, 1, 76, 0
1, 66359, Note_off_c, 1, 69, 0
1, 66359, Note_off_c, 1, 67, 0
1, 66359, Note_off_c, 1, 64, 0
1, 66359, Note_off_c, 1, 73, 0
1, 66359, Note_off_c, 1, 57, 0
1, 66359, Note_off_c, 1, 49, 0
1, 66360, Note_on_c, 1, 45, 127
1, 66360, Note_on_c, 1, 67, 127
1, 66360, Note_on_c, 1, 64, 127
1, 66360, Note_on_c, 1, 81, 127
1, 66360, Note_on_c, 1, 76, 127
1, 66360, Note_on_c, 1, 73, 127
1, 66360, Note_on_c, 1, 50, 127
1, 66374, Note_off_c, 1, 45, 0
1, 66389, Note_off_c, 1, 50, 0
1, 66390, Note_on_c, 1, 52, 127
1, 66419, Note_off_c, 1, 67, 0
1, 66419, Note_off_c, 1, 64, 0
1, 66419, Note_off_c, 1, 81, 0
1, 66419, Note_off_c, 1, 76, 0
1, 66419, Note_off_c, 1, 73, 0
1, 66419, Note_off_c, 1, 52, 0
1, 66420, Note_on_c, 1, 45, 127
1, 66420, Note_on_c, 1, 67, 127
1, 66420, Note_on_c, 1, 64, 127
1, 66420, Note_on_c, 1, 76, 127
1, 66420, Note_on_c, 1, 73, 127
1, 66420, Note_on_c, 1, 69, 127
1, 66420, Note_on_c, 1, 54, 127
1, 66434, Note_off_c, 1, 45, 0
1, 66449, Note_off_c, 1, 54, 0
1, 66450, Note_on_c, 1, 55, 127
1, 66479, Note_off_c, 1, 67, 0
1, 66479, Note_off_c, 1, 64, 0
1, 66479, Note_off_c, 1, 76, 0
1, 66479, Note_off_c, 1, 73, 0
1, 66479, Note_off_c, 1, 69, 0
1, 66479, Note_off_c, 1, 55, 0
1, 66480, Note_on_c, 1, 45, 127
1, 66480, Note_on_c, 1, 67, 127
1, 66480, Note_on_c, 1, 64, 127
1, 66480, Note_on_c, 1, 76, 127
1, 66480, Note_on_c, 1, 73, 127
1, 66480, Note_on_c, 1, 69, 127
1, 66480, Note_on_c, 1, 79, 127
1, 66480, Note_on_c, 1, 61, 127
1, 66480, Note_on_c, 1, 57, 127
1, 66494, Note_off_c, 1, 45, 0
1, 66510, Note_on_c, 1, 55, 127
1, 66539, Note_off_c, 1, 67, 0
1, 66539, Note_off_c, 1, 64, 0
1, 66539, Note_off_c, 1, 76, 0
1, 66539, Note_off_c, 1, 73, 0
1, 66539, Note_off_c, 1, 69, 0
1, 66539, Note_off_c, 1, 79, 0
1, 66539, Note_off_c, 1, 61, 0
1, 66539, Note_off_c, 1, 57, 0
1, 66539, Note_off_c, 1, 55, 0
1, 66540, Note_on_c, 1, 45, 127
1, 66540, Note_on_c, 1, 66, 127
1, 66540, Note_on_c, 1, 62, 127
1, 66540, Note_on_c, 1, 73, 127
1, 66540, Note_on_c, 1, 69, 127
1, 66540, Note_on_c, 1, 64, 127
1, 66540, Note_on_c, 1, 81, 127
1, 66540, Note_on_c, 1, 57, 127
1, 66554, Note_off_c, 1, 45, 0
1, 66569, Note_off_c, 1, 66, 0
1, 66569, Note_off_c, 1, 62, 0
1, 66569, Note_off_c, 1, 81, 0
1, 66569, Note_off_c, 1, 57, 0
1, 66570, Note_on_c, 1, 67, 127
1, 66570, Note_on_c, 1, 55, 127
1, 66599, Note_off_c, 1, 73, 0
1, 66599, Note_off_c, 1, 69, 0
1, 66599, Note_off_c, 1, 64, 0
1, 66599, Note_off_c, 1, 67, 0
1, 66599, Note_off_c, 1, 55, 0
1, 66600, Note_on_c, 1, 50, 127
1, 66600, Note_on_c, 1, 69, 127
1, 66600, Note_on_c, 1, 66, 127
1, 66600, Note_on_c, 1, 74, 127
1, 66600, Note_on_c, 1, 62, 127
1, 66600, Note_on_c, 1, 54, 127
1, 66629, Note_off_c, 1, 62, 0
1, 66630, Note_on_c, 1, 78, 127
1, 66659, Note_off_c, 1, 50, 0
1, 66659, Note_off_c, 1, 78, 0
1, 66660, Note_on_c, 1, 81, 127
1, 66660, Note_on_c, 1, 67, 127
1, 66660, Note_on_c, 1, 76, 127
1, 66660, Note_on_c, 1, 73, 127
1, 66660, Note_on_c, 1, 52, 127
1, 66689, Note_off_c, 1, 76, 0
1, 66689, Note_off_c, 1, 73, 0
1, 66689, Note_off_c, 1, 52, 0
1, 66690, Note_off_c, 1, 67, 0
1, 66690, Note_on_c, 1, 71, 127
1, 66719, Note_off_c, 1, 81, 0
1, 66719, Note_off_c, 1, 71, 0
1, 66720, Note_on_c, 1, 55, 127
1, 66749, Note_off_c, 1, 55, 0
1, 66750, Note_on_c, 1, 57, 127
1, 66779, Note_off_c, 1, 57, 0
1, 66780, Note_on_c, 1, 59, 127
1, 66809, Note_off_c, 1, 59, 0
1, 66810, Note_on_c, 1, 64, 127
1, 66810, Note_on_c, 1, 61, 127
1, 66839, Note_off_c, 1, 64, 0
1, 66839, Note_off_c, 1, 61, 0
1, 66900, Note_on_c, 1, 83, 127
1, 66929, Note_off_c, 1, 83, 0
1, 66930, Note_on_c, 1, 85, 127
1, 66959, Note_off_c, 1, 85, 0
1, 66960, Note_on_c, 1, 86, 127
1, 66990, Note_on_c, 1, 47, 127
1, 67019, Note_off_c, 1, 86, 0
1, 67019, Note_off_c, 1, 47, 0
1, 67020, Note_on_c, 1, 49, 127
1, 67049, Note_off_c, 1, 49, 0
1, 67080, Note_on_c, 1, 79, 127
1, 67110, Note_off_c, 1, 79, 0
1, 67260, Note_off_c, 1, 54, 0
1, 67319, Note_off_c, 1, 69, 0
1, 67319, Note_off_c, 1, 66, 0
1, 67319, Note_off_c, 1, 74, 0
1, 67710, Note_on_c, 1, 45, 127
1, 67739, Note_off_c, 1, 45, 0
1, 67740, Note_on_c, 1, 81, 127
1, 67740, Note_on_c, 1, 78, 127
1, 67740, Note_on_c, 1, 69, 127
1, 67740, Note_on_c, 1, 45, 127
1, 67740, Note_on_c, 1, 66, 127
1, 67740, Note_on_c, 1, 62, 127
1, 67740, Note_on_c, 1, 57, 127
1, 67740, Note_on_c, 1, 47, 127
1, 67769, Note_off_c, 1, 81, 0
1, 67769, Note_off_c, 1, 78, 0
1, 67769, Note_off_c, 1, 69, 0
1, 67769, Note_off_c, 1, 45, 0
1, 67769, Note_off_c, 1, 66, 0
1, 67769, Note_off_c, 1, 62, 0
1, 67769, Note_off_c, 1, 47, 0
1, 67770, Note_on_c, 1, 79, 127
1, 67770, Note_on_c, 1, 76, 127
1, 67770, Note_on_c, 1, 67, 127
1, 67770, Note_on_c, 1, 64, 127
1, 67770, Note_on_c, 1, 49, 127
1, 67799, Note_off_c, 1, 57, 0
1, 67799, Note_off_c, 1, 79, 0
1, 67799, Note_off_c, 1, 76, 0
1, 67799, Note_off_c, 1, 67, 0
1, 67799, Note_off_c, 1, 64, 0
1, 67799, Note_off_c, 1, 49, 0
1, 67800, Note_on_c, 1, 78, 127
1, 67800, Note_on_c, 1, 74, 127
1, 67800, Note_on_c, 1, 69, 127
1, 67800, Note_on_c, 1, 50, 127
1, 67800, Note_on_c, 1, 66, 127
1, 67800, Note_on_c, 1, 62, 127
1, 67829, Note_off_c, 1, 78, 0
1, 67829, Note_off_c, 1, 69, 0
1, 67829, Note_off_c, 1, 50, 0
1, 67829, Note_off_c, 1, 66, 0
1, 67830, Note_on_c, 1, 76, 127
1, 67830, Note_on_c, 1, 64, 127
1, 67830, Note_on_c, 1, 73, 127
1, 67830, Note_on_c, 1, 67, 127
1, 67830, Note_on_c, 1, 52, 127
1, 67859, Note_off_c, 1, 74, 0
1, 67859, Note_off_c, 1, 62, 0
1, 67859, Note_off_c, 1, 76, 0
1, 67859, Note_off_c, 1, 64, 0
1, 67859, Note_off_c, 1, 73, 0
1, 67859, Note_off_c, 1, 67, 0
1, 67859, Note_off_c, 1, 52, 0
1, 67860, Note_on_c, 1, 74, 127
1, 67860, Note_on_c, 1, 69, 127
1, 67860, Note_on_c, 1, 50, 127
1, 67860, Note_on_c, 1, 62, 127
1, 67860, Note_on_c, 1, 57, 127
1, 67860, Note_on_c, 1, 66, 127
1, 67860, Note_on_c, 1, 54, 127
1, 67889, Note_off_c, 1, 74, 0
1, 67889, Note_off_c, 1, 50, 0
1, 67889, Note_off_c, 1, 62, 0
1, 67889, Note_off_c, 1, 66, 0
1, 67889, Note_off_c, 1, 54, 0
1, 67890, Note_on_c, 1, 76, 127
1, 67890, Note_on_c, 1, 64, 127
1, 67890, Note_on_c, 1, 71, 127
1, 67890, Note_on_c, 1, 55, 127
1, 67919, Note_off_c, 1, 69, 0
1, 67919, Note_off_c, 1, 57, 0
1, 67919, Note_off_c, 1, 76, 0
1, 67919, Note_off_c, 1, 64, 0
1, 67919, Note_off_c, 1, 71, 0
1, 67919, Note_off_c, 1, 55, 0
1, 67920, Note_on_c, 1, 76, 127
1, 67920, Note_on_c, 1, 69, 127
1, 67920, Note_on_c, 1, 45, 127
1, 67920, Note_on_c, 1, 64, 127
1, 67920, Note_on_c, 1, 57, 127
1, 67920, Note_on_c, 1, 73, 127
1, 67920, Note_on_c, 1, 67, 127
1, 67949, Note_off_c, 1, 67, 0
1, 67950, Note_on_c, 1, 54, 127
1, 67950, Note_on_c, 1, 66, 127
1, 67979, Note_off_c, 1, 45, 0
1, 67979, Note_off_c, 1, 57, 0
1, 67979, Note_off_c, 1, 54, 0
1, 67979, Note_off_c, 1, 66, 0
1, 68009, Note_off_c, 1, 73, 0
1, 68010, Note_off_c, 1, 76, 0
1, 68010, Note_on_c, 1, 74, 127
1, 68010, Note_on_c, 1, 62, 127
1, 68039, Note_off_c, 1, 69, 0
1, 68039, Note_off_c, 1, 64, 0
1, 68039, Note_off_c, 1, 62, 0
1, 68040, Note_on_c, 1, 78, 127
1, 68040, Note_on_c, 1, 50, 127
1, 68070, Note_on_c, 1, 38, 127
1, 68099, Note_off_c, 1, 78, 0
1, 68099, Note_off_c, 1, 38, 0
1, 68100, Note_on_c, 1, 81, 127
1, 68100, Note_on_c, 1, 40, 127
1, 68129, Note_off_c, 1, 40, 0
1, 68130, Note_on_c, 1, 42, 127
1, 68159, Note_off_c, 1, 74, 0
1, 68159, Note_off_c, 1, 50, 0
1, 68159, Note_off_c, 1, 81, 0
1, 68159, Note_off_c, 1, 42, 0
1, 68160, Note_on_c, 1, 81, 127
1, 68160, Note_on_c, 1, 78, 127
1, 68160, Note_on_c, 1, 50, 127
1, 68160, Note_on_c, 1, 74, 127
1, 68160, Note_on_c, 1, 43, 127
1, 68174, Note_off_c, 1, 50, 0
1, 68189, Note_off_c, 1, 43, 0
1, 68190, Note_on_c, 1, 45, 127
1, 68219, Note_off_c, 1, 81, 0
1, 68219, Note_off_c, 1, 78, 0
1, 68219, Note_off_c, 1, 74, 0
1, 68219, Note_off_c, 1, 45, 0
1, 68220, Note_on_c, 1, 81, 127
1, 68220, Note_on_c, 1, 78, 127
1, 68220, Note_on_c, 1, 50, 127
1, 68220, Note_on_c, 1, 74, 127
1, 68220, Note_on_c, 1, 69, 127
1, 68220, Note_on_c, 1, 47, 127
1, 68234, Note_off_c, 1, 50, 0
1, 68249, Note_off_c, 1, 47, 0
1, 68250, Note_on_c, 1, 49, 127
1, 68279, Note_off_c, 1, 81, 0
1, 68279, Note_off_c, 1, 78, 0
1, 68279, Note_off_c, 1, 74, 0
1, 68279, Note_off_c, 1, 69, 0
1, 68279, Note_off_c, 1, 49, 0
1, 68280, Note_on_c, 1, 81, 127
1, 68280, Note_on_c, 1, 78, 127
1, 68280, Note_on_c, 1, 50, 127
1, 68280, Note_on_c, 1, 86, 127
1, 68280, Note_on_c, 1, 66, 127
1, 68309, Note_off_c, 1, 50, 0
1, 68310, Note_on_c, 1, 49, 127
1, 68339, Note_off_c, 1, 81, 0
1, 68339, Note_off_c, 1, 78, 0
1, 68339, Note_off_c, 1, 86, 0
1, 68339, Note_off_c, 1, 66, 0
1, 68339, Note_off_c, 1, 49, 0
1, 68340, Note_on_c, 1, 79, 127
1, 68340, Note_on_c, 1, 76, 127
1, 68340, Note_on_c, 1, 50, 127
1, 68340, Note_on_c, 1, 81, 127
1, 68340, Note_on_c, 1, 78, 127
1, 68340, Note_on_c, 1, 74, 127
1, 68369, Note_off_c, 1, 79, 0
1, 68369, Note_off_c, 1, 76, 0
1, 68369, Note_off_c, 1, 50, 0
1, 68370, Note_on_c, 1, 49, 127
1, 68399, Note_off_c, 1, 81, 0
1, 68399, Note_off_c, 1, 78, 0
1, 68399, Note_off_c, 1, 74, 0
1, 68399, Note_off_c, 1, 49, 0
1, 68400, Note_on_c, 1, 83, 127
1, 68400, Note_on_c, 1, 79, 127
1, 68400, Note_on_c, 1, 50, 127
1, 68400, Note_on_c, 1, 67, 127
1, 68400, Note_on_c, 1, 62, 127
1, 68429, Note_off_c, 1, 50, 0
1, 68430, Note_on_c, 1, 38, 127
1, 68459, Note_off_c, 1, 83, 0
1, 68459, Note_off_c, 1, 79, 0
1, 68459, Note_off_c, 1, 67, 0
1, 68459, Note_off_c, 1, 62, 0
1, 68459, Note_off_c, 1, 38, 0
1, 68460, Note_on_c, 1, 83, 127
1, 68460, Note_on_c, 1, 79, 127
1, 68460, Note_on_c, 1, 50, 127
1, 68460, Note_on_c, 1, 62, 127
1, 68460, Note_on_c, 1, 40, 127
1, 68489, Note_off_c, 1, 40, 0
1, 68490, Note_on_c, 1, 42, 127
1, 68519, Note_off_c, 1, 83, 0
1, 68519, Note_off_c, 1, 79, 0
1, 68519, Note_off_c, 1, 50, 0
1, 68519, Note_off_c, 1, 62, 0
1, 68519, Note_off_c, 1, 42, 0
1, 68520, Note_on_c, 1, 83, 127
1, 68520, Note_on_c, 1, 79, 127
1, 68520, Note_on_c, 1, 50, 127
1, 68520, Note_on_c, 1, 74, 127
1, 68520, Note_on_c, 1, 71, 127
1, 68520, Note_on_c, 1, 43, 127
1, 68534, Note_off_c, 1, 50, 0
1, 68549, Note_off_c, 1, 43, 0
1, 68550, Note_on_c, 1, 45, 127
1, 68579, Note_off_c, 1, 83, 0
1, 68579, Note_off_c, 1, 79, 0
1, 68579, Note_off_c, 1, 74, 0
1, 68579, Note_off_c, 1, 71, 0
1, 68579, Note_off_c, 1, 45, 0
1, 68580, Note_on_c, 1, 83, 127
1, 68580, Note_on_c, 1, 79, 127
1, 68580, Note_on_c, 1, 50, 127
1, 68580, Note_on_c, 1, 74, 127
1, 68580, Note_on_c, 1, 71, 127
1, 68580, Note_on_c, 1, 67, 127
1, 68580, Note_on_c, 1, 47, 127
1, 68594, Note_off_c, 1, 50, 0
1, 68609, Note_off_c, 1, 47, 0
1, 68610, Note_on_c, 1, 49, 127
1, 68639, Note_off_c, 1, 83, 0
1, 68639, Note_off_c, 1, 79, 0
1, 68639, Note_off_c, 1, 74, 0
1, 68639, Note_off_c, 1, 71, 0
1, 68639, Note_off_c, 1, 67, 0
1, 68639, Note_off_c, 1, 49, 0
1, 68640, Note_on_c, 1, 83, 127
1, 68640, Note_on_c, 1, 79, 127
1, 68640, Note_on_c, 1, 50, 127
1, 68640, Note_on_c, 1, 74, 127
1, 68669, Note_off_c, 1, 50, 0
1, 68670, Note_on_c, 1, 49, 127
1, 68699, Note_off_c, 1, 83, 0
1, 68699, Note_off_c, 1, 79, 0
1, 68699, Note_off_c, 1, 74, 0
1, 68699, Note_off_c, 1, 49, 0
1, 68700, Note_on_c, 1, 81, 127
1, 68700, Note_on_c, 1, 78, 127
1, 68700, Note_on_c, 1, 50, 127
1, 68700, Note_on_c, 1, 79, 127
1, 68700, Note_on_c, 1, 74, 127
1, 68700, Note_on_c, 1, 71, 127
1, 68729, Note_off_c, 1, 81, 0
1, 68729, Note_off_c, 1, 78, 0
1, 68729, Note_off_c, 1, 50, 0
1, 68730, Note_on_c, 1, 83, 127
1, 68730, Note_on_c, 1, 49, 127
1, 68759, Note_off_c, 1, 79, 0
1, 68759, Note_off_c, 1, 74, 0
1, 68759, Note_off_c, 1, 71, 0
1, 68759, Note_off_c, 1, 83, 0
1, 68759, Note_off_c, 1, 49, 0
1, 68760, Note_on_c, 1, 84, 127
1, 68760, Note_on_c, 1, 81, 127
1, 68760, Note_on_c, 1, 50, 127
1, 68760, Note_on_c, 1, 66, 127
1, 68760, Note_on_c, 1, 62, 127
1, 68789, Note_off_c, 1, 50, 0
1, 68790, Note_on_c, 1, 38, 127
1, 68819, Note_off_c, 1, 84, 0
1, 68819, Note_off_c, 1, 81, 0
1, 68819, Note_off_c, 1, 66, 0
1, 68819, Note_off_c, 1, 62, 0
1, 68819, Note_off_c, 1, 38, 0
1, 68820, Note_on_c, 1, 84, 127
1, 68820, Note_on_c, 1, 81, 127
1, 68820, Note_on_c, 1, 78, 127
1, 68820, Note_on_c, 1, 50, 127
1, 68820, Note_on_c, 1, 62, 127
1, 68820, Note_on_c, 1, 57, 127
1, 68820, Note_on_c, 1, 40, 127
1, 68834, Note_off_c, 1, 50, 0
1, 68849, Note_off_c, 1, 40, 0
1, 68850, Note_on_c, 1, 42, 127
1, 68879, Note_off_c, 1, 84, 0
1, 68879, Note_off_c, 1, 81, 0
1, 68879, Note_off_c, 1, 78, 0
1, 68879, Note_off_c, 1, 62, 0
1, 68879, Note_off_c, 1, 57, 0
1, 68879, Note_off_c, 1, 42, 0
1, 68880, Note_on_c, 1, 84, 127
1, 68880, Note_on_c, 1, 81, 127
1, 68880, Note_on_c, 1, 50, 127
1, 68880, Note_on_c, 1, 78, 127
1, 68880, Note_on_c, 1, 74, 127
1, 68880, Note_on_c, 1, 69, 127
1, 68880, Note_on_c, 1, 43, 127
1, 68894, Note_off_c, 1, 50, 0
1, 68909, Note_off_c, 1, 43, 0
1, 68910, Note_on_c, 1, 45, 127
1, 68939, Note_off_c, 1, 84, 0
1, 68939, Note_off_c, 1, 81, 0
1, 68939, Note_off_c, 1, 78, 0
1, 68939, Note_off_c, 1, 74, 0
1, 68939, Note_off_c, 1, 69, 0
1, 68939, Note_off_c, 1, 45, 0
1, 68940, Note_on_c, 1, 84, 127
1, 68940, Note_on_c, 1, 81, 127
1, 68940, Note_on_c, 1, 50, 127
1, 68940, Note_on_c, 1, 74, 127
1, 68940, Note_on_c, 1, 69, 127
1, 68940, Note_on_c, 1, 66, 127
1, 68940, Note_on_c, 1, 47, 127
1, 68954, Note_off_c, 1, 50, 0
1, 68969, Note_off_c, 1, 47, 0
1, 68970, Note_on_c, 1, 49, 127
1, 68999, Note_off_c, 1, 84, 0
1, 68999, Note_off_c, 1, 81, 0
1, 68999, Note_off_c, 1, 74, 0
1, 68999, Note_off_c, 1, 69, 0
1, 68999, Note_off_c, 1, 66, 0
1, 68999, Note_off_c, 1, 49, 0
1, 69000, Note_on_c, 1, 84, 127
1, 69000, Note_on_c, 1, 81, 127
1, 69000, Note_on_c, 1, 50, 127
1, 69000, Note_on_c, 1, 78, 127
1, 69000, Note_on_c, 1, 74, 127
1, 69029, Note_off_c, 1, 50, 0
1, 69030, Note_on_c, 1, 52, 127
1, 69059, Note_off_c, 1, 84, 0
1, 69059, Note_off_c, 1, 81, 0
1, 69059, Note_off_c, 1, 78, 0
1, 69059, Note_off_c, 1, 74, 0
1, 69059, Note_off_c, 1, 52, 0
1, 69060, Note_on_c, 1, 83, 127
1, 69060, Note_on_c, 1, 74, 127
1, 69060, Note_on_c, 1, 50, 127
1, 69060, Note_on_c, 1, 78, 127
1, 69060, Note_on_c, 1, 67, 127
1, 69060, Note_on_c, 1, 54, 127
1, 69074, Note_off_c, 1, 50, 0
1, 69089, Note_off_c, 1, 83, 0
1, 69089, Note_off_c, 1, 54, 0
1, 69090, Note_on_c, 1, 81, 127
1, 69119, Note_off_c, 1, 74, 0
1, 69119, Note_off_c, 1, 78, 0
1, 69119, Note_off_c, 1, 67, 0
1, 69119, Note_off_c, 1, 81, 0
1, 69120, Note_on_c, 1, 83, 127
1, 69120, Note_on_c, 1, 74, 127
1, 69120, Note_on_c, 1, 50, 127
1, 69120, Note_on_c, 1, 55, 127
1, 69149, Note_off_c, 1, 83, 0
1, 69149, Note_off_c, 1, 55, 0
1, 69150, Note_on_c, 1, 81, 127
1, 69150, Note_on_c, 1, 54, 127
1, 69179, Note_off_c, 1, 74, 0
1, 69179, Note_off_c, 1, 81, 0
1, 69179, Note_off_c, 1, 54, 0
1, 69180, Note_on_c, 1, 62, 127
1, 69180, Note_on_c, 1, 71, 127
1, 69210, Note_on_c, 1, 69, 127
1, 69239, Note_off_c, 1, 50, 0
1, 69239, Note_off_c, 1, 62, 0
1, 69239, Note_off_c, 1, 71, 0
1, 69239, Note_off_c, 1, 69, 0
1, 69240, Note_on_c, 1, 79, 127
1, 69240, Note_on_c, 1, 76, 127
1, 69240, Note_on_c, 1, 67, 127
1, 69240, Note_on_c, 1, 64, 127
1, 69240, Note_on_c, 1, 73, 127
1, 69240, Note_on_c, 1, 52, 127
1, 69269, Note_off_c, 1, 79, 0
1, 69269, Note_off_c, 1, 76, 0
1, 69269, Note_off_c, 1, 67, 0
1, 69269, Note_off_c, 1, 64, 0
1, 69269, Note_off_c, 1, 73, 0
1, 69269, Note_off_c, 1, 52, 0
1, 69270, Note_on_c, 1, 78, 127
1, 69270, Note_on_c, 1, 66, 127
1, 69270, Note_on_c, 1, 74, 127
1, 69270, Note_on_c, 1, 50, 127
1, 69299, Note_off_c, 1, 78, 0
1, 69299, Note_off_c, 1, 66, 0
1, 69299, Note_off_c, 1, 74, 0
1, 69299, Note_off_c, 1, 50, 0
1, 69300, Note_on_c, 1, 79, 127
1, 69300, Note_on_c, 1, 76, 127
1, 69300, Note_on_c, 1, 67, 127
1, 69300, Note_on_c, 1, 64, 127
1, 69300, Note_on_c, 1, 73, 127
1, 69300, Note_on_c, 1, 52, 127
1, 69329, Note_off_c, 1, 79, 0
1, 69329, Note_off_c, 1, 76, 0
1, 69329, Note_off_c, 1, 67, 0
1, 69329, Note_off_c, 1, 64, 0
1, 69329, Note_off_c, 1, 73, 0
1, 69329, Note_off_c, 1, 52, 0
1, 69330, Note_on_c, 1, 78, 127
1, 69330, Note_on_c, 1, 66, 127
1, 69330, Note_on_c, 1, 74, 127
1, 69330, Note_on_c, 1, 50, 127
1, 69359, Note_off_c, 1, 78, 0
1, 69359, Note_off_c, 1, 66, 0
1, 69359, Note_off_c, 1, 74, 0
1, 69359, Note_off_c, 1, 50, 0
1, 69360, Note_on_c, 1, 76, 127
1, 69360, Note_on_c, 1, 79, 127
1, 69360, Note_on_c, 1, 64, 127
1, 69360, Note_on_c, 1, 67, 127
1, 69360, Note_on_c, 1, 49, 127
1, 69389, Note_off_c, 1, 79, 0
1, 69389, Note_off_c, 1, 64, 0
1, 69389, Note_off_c, 1, 67, 0
1, 69389, Note_off_c, 1, 49, 0
1, 69390, Note_on_c, 1, 74, 127
1, 69390, Note_on_c, 1, 81, 127
1, 69390, Note_on_c, 1, 62, 127
1, 69390, Note_on_c, 1, 69, 127
1, 69390, Note_on_c, 1, 47, 127
1, 69419, Note_off_c, 1, 76, 0
1, 69419, Note_off_c, 1, 74, 0
1, 69419, Note_off_c, 1, 81, 0
1, 69419, Note_off_c, 1, 62, 0
1, 69419, Note_off_c, 1, 69, 0
1, 69419, Note_off_c, 1, 47, 0
1, 69420, Note_on_c, 1, 76, 127
1, 69420, Note_on_c, 1, 78, 127
1, 69420, Note_on_c, 1, 64, 127
1, 69420, Note_on_c, 1, 66, 127
1, 69420, Note_on_c, 1, 69, 127
1, 69420, Note_on_c, 1, 49, 127
1, 69449, Note_off_c, 1, 76, 0
1, 69449, Note_off_c, 1, 78, 0
1, 69449, Note_off_c, 1, 64, 0
1, 69449, Note_off_c, 1, 66, 0
1, 69449, Note_off_c, 1, 49, 0
1, 69450, Note_on_c, 1, 74, 127
1, 69450, Note_on_c, 1, 79, 127
1, 69450, Note_on_c, 1, 62, 127
1, 69450, Note_on_c, 1, 67, 127
1, 69450, Note_on_c, 1, 47, 127
1, 69479, Note_off_c, 1, 69, 0
1, 69479, Note_off_c, 1, 74, 0
1, 69479, Note_off_c, 1, 79, 0
1, 69479, Note_off_c, 1, 62, 0
1, 69479, Note_off_c, 1, 67, 0
1, 69479, Note_off_c, 1, 47, 0
1, 69480, Note_on_c, 1, 79, 127
1, 69480, Note_on_c, 1, 81, 127
1, 69480, Note_on_c, 1, 67, 127
1, 69480, Note_on_c, 1, 69, 127
1, 69480, Note_on_c, 1, 64, 127
1, 69480, Note_on_c, 1, 49, 127
1, 69509, Note_off_c, 1, 81, 0
1, 69509, Note_off_c, 1, 69, 0
1, 69509, Note_off_c, 1, 64, 0
1, 69509, Note_off_c, 1, 49, 0
1, 69510, Note_on_c, 1, 61, 127
1, 69510, Note_on_c, 1, 45, 127
1, 69539, Note_off_c, 1, 79, 0
1, 69539, Note_off_c, 1, 67, 0
1, 69539, Note_off_c, 1, 61, 0
1, 69539, Note_off_c, 1, 45, 0
1, 69540, Note_on_c, 1, 81, 127
1, 69540, Note_on_c, 1, 78, 127
1, 69540, Note_on_c, 1, 69, 127
1, 69540, Note_on_c, 1, 45, 127
1, 69540, Note_on_c, 1, 66, 127
1, 69540, Note_on_c, 1, 62, 127
1, 69540, Note_on_c, 1, 47, 127
1, 69569, Note_off_c, 1, 81, 0
1, 69569, Note_off_c, 1, 78, 0
1, 69569, Note_off_c, 1, 69, 0
1, 69569, Note_off_c, 1, 45, 0
1, 69569, Note_off_c, 1, 66, 0
1, 69569, Note_off_c, 1, 62, 0
1, 69569, Note_off_c, 1, 47, 0
1, 69570, Note_on_c, 1, 79, 127
1, 69570, Note_on_c, 1, 76, 127
1, 69570, Note_on_c, 1, 69, 127
1, 69570, Note_on_c, 1, 45, 127
1, 69570, Note_on_c, 1, 67, 127
1, 69570, Note_on_c, 1, 64, 127
1, 69570, Note_on_c, 1, 49, 127
1, 69599, Note_off_c, 1, 79, 0
1, 69599, Note_off_c, 1, 76, 0
1, 69599, Note_off_c, 1, 69, 0
1, 69599, Note_off_c, 1, 45, 0
1, 69599, Note_off_c, 1, 67, 0
1, 69599, Note_off_c, 1, 64, 0
1, 69599, Note_off_c, 1, 49, 0
1, 69600, Note_on_c, 1, 78, 127
1, 69600, Note_on_c, 1, 74, 127
1, 69600, Note_on_c, 1, 69, 127
1, 69600, Note_on_c, 1, 50, 127
1, 69600, Note_on_c, 1, 66, 127
1, 69600, Note_on_c, 1, 64, 127
1, 69629, Note_off_c, 1, 78, 0
1, 69629, Note_off_c, 1, 69, 0
1, 69629, Note_off_c, 1, 50, 0
1, 69629, Note_off_c, 1, 66, 0
1, 69630, Note_on_c, 1, 76, 127
1, 69630, Note_on_c, 1, 73, 127
1, 69630, Note_on_c, 1, 67, 127
1, 69630, Note_on_c, 1, 52, 127
1, 69659, Note_off_c, 1, 74, 0
1, 69659, Note_off_c, 1, 64, 0
1, 69659, Note_off_c, 1, 76, 0
1, 69659, Note_off_c, 1, 73, 0
1, 69659, Note_off_c, 1, 67, 0
1, 69659, Note_off_c, 1, 52, 0
1, 69660, Note_on_c, 1, 74, 127
1, 69660, Note_on_c, 1, 69, 127
1, 69660, Note_on_c, 1, 50, 127
1, 69660, Note_on_c, 1, 62, 127
1, 69660, Note_on_c, 1, 57, 127
1, 69660, Note_on_c, 1, 54, 127
1, 69689, Note_off_c, 1, 74, 0
1, 69689, Note_off_c, 1, 50, 0
1, 69689, Note_off_c, 1, 62, 0
1, 69689, Note_off_c, 1, 54, 0
1, 69690, Note_on_c, 1, 76, 127
1, 69690, Note_on_c, 1, 64, 127
1, 69690, Note_on_c, 1, 71, 127
1, 69690, Note_on_c, 1, 55, 127
1, 69719, Note_off_c, 1, 69, 0
1, 69719, Note_off_c, 1, 57, 0
1, 69719, Note_off_c, 1, 76, 0
1, 69719, Note_off_c, 1, 64, 0
1, 69719, Note_off_c, 1, 71, 0
1, 69719, Note_off_c, 1, 55, 0
1, 69720, Note_on_c, 1, 76, 127
1, 69720, Note_on_c, 1, 69, 127
1, 69720, Note_on_c, 1, 45, 127
1, 69720, Note_on_c, 1, 64, 127
1, 69720, Note_on_c, 1, 57, 127
1, 69720, Note_on_c, 1, 73, 127
1, 69750, Note_on_c, 1, 54, 127
1, 69779, Note_off_c, 1, 45, 0
1, 69779, Note_off_c, 1, 57, 0
1, 69779, Note_off_c, 1, 54, 0
1, 69809, Note_off_c, 1, 76, 0
1, 69809, Note_off_c, 1, 73, 0
1, 69810, Note_on_c, 1, 74, 127
1, 69810, Note_on_c, 1, 62, 127
1, 69839, Note_off_c, 1, 69, 0
1, 69839, Note_off_c, 1, 64, 0
1, 69839, Note_off_c, 1, 74, 0
1, 69839, Note_off_c, 1, 62, 0
1, 69840, Note_on_c, 1, 74, 127
1, 69840, Note_on_c, 1, 69, 127
1, 69840, Note_on_c, 1, 50, 127
1, 69840, Note_on_c, 1, 62, 127
1, 69840, Note_on_c, 1, 54, 127
1, 69840, Note_on_c, 1, 66, 127
1, 69959, Note_off_c, 1, 74, 0
1, 69959, Note_off_c, 1, 69, 0
1, 69959, Note_off_c, 1, 62, 0
1, 69959, Note_off_c, 1, 54, 0
1, 69959, Note_off_c, 1, 66, 0
1, 69960, Note_off_c, 1, 50, 0
1, 70560, Note_on_c, 1, 83, 127
1, 70560, Note_on_c, 1, 79, 127
1, 70560, Note_on_c, 1, 74, 127
1, 70560, Note_on_c, 1, 50, 127
1, 70560, Note_on_c, 1, 67, 127
1, 70560, Note_on_c, 1, 62, 127
1, 70560, Note_on_c, 1, 86, 127
1, 70560, Note_on_c, 1, 71, 127
1, 70560, Note_on_c, 1, 43, 127
1, 70679, Note_off_c, 1, 83, 0
1, 70679, Note_off_c, 1, 67, 0
1, 70679, Note_off_c, 1, 62, 0
1, 70679, Note_off_c, 1, 86, 0
1, 70680, Note_off_c, 1, 79, 0
1, 70680, Note_off_c, 1, 74, 0
1, 70680, Note_off_c, 1, 50, 0
1, 70680, Note_off_c, 1, 71, 0
1, 70680, Note_off_c, 1, 43, 0
1, 70740, Note_on_c, 1, 50, 127
1, 70800, Note_off_c, 1, 50, 0
1, 70800, Note_on_c, 1, 55, 127
1, 70860, Note_off_c, 1, 55, 0
1, 70890, Note_on_c, 1, 55, 127
1, 70920, Note_off_c, 1, 55, 0
1, 70920, Note_on_c, 1, 62, 127
1, 71040, Note_off_c, 1, 62, 0
1, 71040, Note_on_c, 1, 59, 127
1, 71100, Note_off_c, 1, 59, 0
1, 71100, Note_on_c, 1, 60, 127
1, 71160, Note_off_c, 1, 60, 0
1, 71280, Note_on_c, 1, 84, 127
1, 71280, Note_on_c, 1, 79, 127
1, 71280, Note_on_c, 1, 76, 127
1, 71280, Note_on_c, 1, 67, 127
1, 71280, Note_on_c, 1, 72, 127
1, 71280, Note_on_c, 1, 64, 127
1, 71280, Note_on_c, 1, 43, 127
1, 71340, Note_off_c, 1, 64, 0
1, 71399, Note_off_c, 1, 84, 0
1, 71399, Note_off_c, 1, 79, 0
1, 71400, Note_off_c, 1, 76, 0
1, 71400, Note_off_c, 1, 67, 0
1, 71400, Note_off_c, 1, 72, 0
1, 71400, Note_off_c, 1, 43, 0
1, 71460, Note_on_c, 1, 57, 127
1, 71520, Note_off_c, 1, 57, 0
1, 71520, Note_on_c, 1, 54, 127
1, 71700, Note_off_c, 1, 54, 0
1, 71760, Note_on_c, 1, 81, 127
1, 71760, Note_on_c, 1, 74, 127
1, 71760, Note_on_c, 1, 50, 127
1, 71760, Note_on_c, 1, 66, 127
1, 71760, Note_on_c, 1, 78, 127
1, 71760, Note_on_c, 1, 69, 127
1, 71879, Note_off_c, 1, 81, 0
1, 71879, Note_off_c, 1, 74, 0
1, 71879, Note_off_c, 1, 78, 0
1, 71880, Note_off_c, 1, 50, 0
1, 71880, Note_off_c, 1, 66, 0
1, 71880, Note_off_c, 1, 69, 0
1, 71910, Note_on_c, 1, 50, 127
1, 71940, Note_off_c, 1, 50, 0
1, 71940, Note_on_c, 1, 54, 127
1, 71970, Note_off_c, 1, 54, 0
1, 71970, Note_on_c, 1, 55, 127
1, 72000, Note_off_c, 1, 55, 0
1, 72000, Note_on_c, 1, 57, 127
1, 72060, Note_off_c, 1, 57, 0
1, 72060, Note_on_c, 1, 48, 127
1, 72120, Note_off_c, 1, 48, 0
1, 72120, Note_on_c, 1, 52, 127
1, 72180, Note_off_c, 1, 52, 0
1, 72240, Note_on_c, 1, 81, 127
1, 72240, Note_on_c, 1, 78, 127
1, 72240, Note_on_c, 1, 71, 127
1, 72240, Note_on_c, 1, 69, 127
1, 72240, Note_on_c, 1, 66, 127
1, 72240, Note_on_c, 1, 47, 127
1, 72240, Note_on_c, 1, 39, 127
1, 72359, Note_off_c, 1, 81, 0
1, 72359, Note_off_c, 1, 78, 0
1, 72360, Note_off_c, 1, 71, 0
1, 72360, Note_off_c, 1, 69, 0
1, 72360, Note_off_c, 1, 66, 0
1, 72360, Note_off_c, 1, 47, 0
1, 72360, Note_off_c, 1, 39, 0
1, 72390, Note_on_c, 1, 47, 127
1, 72420, Note_off_c, 1, 47, 0
1, 72420, Note_on_c, 1, 54, 127
1, 72450, Note_off_c, 1, 54, 0
1, 72450, Note_on_c, 1, 55, 127
1, 72480, Note_off_c, 1, 55, 0
1, 72480, Note_on_c, 1, 57, 127
1, 72600, Note_off_c, 1, 57, 0
1, 72600, Note_on_c, 1, 60, 127
1, 72660, Note_off_c, 1, 60, 0
1, 72660, Note_on_c, 1, 59, 127
1, 72720, Note_on_c, 1, 83, 127
1, 72720, Note_on_c, 1, 79, 127
1, 72720, Note_on_c, 1, 76, 127
1, 72720, Note_on_c, 1, 67, 127
1, 72720, Note_on_c, 1, 64, 127
1, 72720, Note_on_c, 1, 71, 127
1, 72720, Note_on_c, 1, 40, 127
1, 72839, Note_off_c, 1, 83, 0
1, 72839, Note_off_c, 1, 79, 0
1, 72839, Note_off_c, 1, 64, 0
1, 72839, Note_off_c, 1, 71, 0
1, 72840, Note_off_c, 1, 59, 0
1, 72840, Note_off_c, 1, 76, 0
1, 72840, Note_off_c, 1, 67, 0
1, 72840, Note_off_c, 1, 40, 0
1, 72900, Note_on_c, 1, 59, 127
1, 72960, Note_off_c, 1, 59, 0
1, 72960, Note_on_c, 1, 81, 127
1, 72960, Note_on_c, 1, 79, 127
1, 72960, Note_on_c, 1, 76, 127
1, 72960, Note_on_c, 1, 69, 127
1, 72960, Note_on_c, 1, 64, 127
1, 72960, Note_on_c, 1, 84, 127
1, 72960, Note_on_c, 1, 67, 127
1, 72960, Note_on_c, 1, 60, 127
1, 72960, Note_on_c, 1, 36, 127
1, 73020, Note_on_c, 1, 62, 127
1, 73079, Note_off_c, 1, 79, 0
1, 73079, Note_off_c, 1, 69, 0
1, 73079, Note_off_c, 1, 64, 0
1, 73079, Note_off_c, 1, 84, 0
1, 73079, Note_off_c, 1, 67, 0
1, 73080, Note_off_c, 1, 81, 0
1, 73080, Note_off_c, 1, 76, 0
1, 73080, Note_off_c, 1, 36, 0
1, 73080, Note_off_c, 1, 62, 0
1, 73140, Note_off_c, 1, 60, 0
1, 73200, Note_on_c, 1, 57, 127
1, 73260, Note_off_c, 1, 57, 0
1, 73260, Note_on_c, 1, 55, 127
1, 73320, Note_off_c, 1, 55, 0
1, 73320, Note_on_c, 1, 78, 127
1, 73320, Note_on_c, 1, 74, 127
1, 73320, Note_on_c, 1, 50, 127
1, 73320, Note_on_c, 1, 66, 127
1, 73320, Note_on_c, 1, 38, 127
1, 73439, Note_off_c, 1, 66, 0
1, 73440, Note_off_c, 1, 78, 0
1, 73440, Note_off_c, 1, 38, 0
1, 73440, Note_on_c, 1, 83, 127
1, 73440, Note_on_c, 1, 43, 127
1, 73559, Note_off_c, 1, 83, 0
1, 73560, Note_off_c, 1, 74, 0
1, 73560, Note_off_c, 1, 50, 0
1, 73560, Note_off_c, 1, 43, 0
1, 73710, Note_on_c, 1, 85, 127
1, 73710, Note_on_c, 1, 45, 127
1, 73710, Note_on_c, 1, 73, 127
1, 73739, Note_off_c, 1, 85, 0
1, 73785, Note_on_c, 1, 86, 127
1, 73799, Note_off_c, 1, 86, 0
1, 73800, Note_on_c, 1, 88, 127
1, 73859, Note_off_c, 1, 45, 0
1, 73859, Note_off_c, 1, 88, 0
1, 73860, Note_off_c, 1, 73, 0
1, 73920, Note_on_c, 1, 49, 127
1, 73980, Note_off_c, 1, 49, 0
1, 73980, Note_on_c, 1, 52, 127
1, 74040, Note_off_c, 1, 52, 0
1, 74100, Note_on_c, 1, 61, 127
1, 74160, Note_off_c, 1, 61, 0
1, 74190, Note_on_c, 1, 54, 127
1, 74190, Note_on_c, 1, 42, 127
1, 74219, Note_off_c, 1, 54, 0
1, 74400, Note_off_c, 1, 42, 0
1, 74610, Note_on_c, 1, 47, 127
1, 74640, Note_off_c, 1, 47, 0
1, 74640, Note_on_c, 1, 46, 127
1, 74670, Note_on_c, 1, 70, 127
1, 74670, Note_on_c, 1, 58, 127
1, 74670, Note_on_c, 1, 40, 127
1, 74699, Note_off_c, 1, 70, 0
1, 74700, Note_off_c, 1, 46, 0
1, 74715, Note_on_c, 1, 80, 127
1, 74729, Note_off_c, 1, 80, 0
1, 74730, Note_on_c, 1, 82, 127
1, 74744, Note_off_c, 1, 82, 0
1, 74790, Note_on_c, 1, 56, 127
1, 74820, Note_off_c, 1, 56, 0
1, 74850, Note_off_c, 1, 58, 0
1, 74880, Note_off_c, 1, 40, 0
1, 74895, Note_on_c, 1, 71, 127
1, 74909, Note_off_c, 1, 71, 0
1, 75060, Note_on_c, 1, 66, 127
1, 75060, Note_on_c, 1, 50, 127
1, 75060, Note_on_c, 1, 83, 127
1, 75060, Note_on_c, 1, 78, 127
1, 75060, Note_on_c, 1, 74, 127
1, 75060, Note_on_c, 1, 69, 127
1, 75060, Note_on_c, 1, 61, 127
1, 75060, Note_on_c, 1, 59, 127
1, 75074, Note_off_c, 1, 83, 0
1, 75074, Note_off_c, 1, 69, 0
1, 75074, Note_off_c, 1, 61, 0
1, 75075, Note_on_c, 1, 85, 127
1, 75075, Note_on_c, 1, 67, 127
1, 75075, Note_on_c, 1, 64, 127
1, 75089, Note_off_c, 1, 66, 0
1, 75089, Note_off_c, 1, 50, 0
1, 75089, Note_off_c, 1, 78, 0
1, 75089, Note_off_c, 1, 74, 0
1, 75089, Note_off_c, 1, 59, 0
1, 75089, Note_off_c, 1, 85, 0
1, 75089, Note_off_c, 1, 67, 0
1, 75089, Note_off_c, 1, 64, 0
1, 75090, Note_on_c, 1, 66, 127
1, 75090, Note_on_c, 1, 50, 127
1, 75090, Note_on_c, 1, 86, 127
1, 75090, Note_on_c, 1, 83, 127
1, 75090, Note_on_c, 1, 78, 127
1, 75090, Note_on_c, 1, 62, 127
1, 75090, Note_on_c, 1, 57, 127
1, 75090, Note_on_c, 1, 47, 127
1, 75104, Note_off_c, 1, 86, 0
1, 75104, Note_off_c, 1, 62, 0
1, 75104, Note_off_c, 1, 57, 0
1, 75105, Note_on_c, 1, 88, 127
1, 75105, Note_on_c, 1, 64, 127
1, 75105, Note_on_c, 1, 61, 127
1, 75105, Note_on_c, 1, 55, 127
1, 75119, Note_off_c, 1, 66, 0
1, 75119, Note_off_c, 1, 50, 0
1, 75119, Note_off_c, 1, 83, 0
1, 75119, Note_off_c, 1, 78, 0
1, 75119, Note_off_c, 1, 47, 0
1, 75119, Note_off_c, 1, 88, 0
1, 75119, Note_off_c, 1, 64, 0
1, 75119, Note_off_c, 1, 61, 0
1, 75119, Note_off_c, 1, 55, 0
1, 75120, Note_on_c, 1, 66, 127
1, 75120, Note_on_c, 1, 54, 127
1, 75120, Note_on_c, 1, 90, 127
1, 75120, Note_on_c, 1, 83, 127
1, 75120, Note_on_c, 1, 78, 127
1, 75120, Note_on_c, 1, 63, 127
1, 75120, Note_on_c, 1, 59, 127
1, 75120, Note_on_c, 1, 47, 127
1, 75134, Note_off_c, 1, 47, 0
1, 75150, Note_on_c, 1, 57, 127
1, 75164, Note_off_c, 1, 57, 0
1, 75165, Note_on_c, 1, 55, 127
1, 75179, Note_off_c, 1, 66, 0
1, 75179, Note_off_c, 1, 54, 0
1, 75179, Note_off_c, 1, 90, 0
1, 75179, Note_off_c, 1, 83, 0
1, 75179, Note_off_c, 1, 78, 0
1, 75179, Note_off_c, 1, 63, 0
1, 75179, Note_off_c, 1, 59, 0
1, 75179, Note_off_c, 1, 55, 0
1, 75180, Note_on_c, 1, 54, 127
1, 75194, Note_off_c, 1, 54, 0
1, 75195, Note_on_c, 1, 52, 127
1, 75209, Note_off_c, 1, 52, 0
1, 75210, Note_on_c, 1, 51, 127
1, 75224, Note_off_c, 1, 51, 0
1, 75225, Note_on_c, 1, 49, 127
1, 75239, Note_off_c, 1, 49, 0
1, 75240, Note_on_c, 1, 47, 127
1, 75254, Note_off_c, 1, 47, 0
1, 75255, Note_on_c, 1, 55, 127
1, 75269, Note_off_c, 1, 55, 0
1, 75270, Note_on_c, 1, 54, 127
1, 75284, Note_off_c, 1, 54, 0
1, 75285, Note_on_c, 1, 52, 127
1, 75299, Note_off_c, 1, 52, 0
1, 75300, Note_on_c, 1, 59, 127
1, 75300, Note_on_c, 1, 51, 127
1, 75314, Note_off_c, 1, 51, 0
1, 75315, Note_on_c, 1, 49, 127
1, 75329, Note_off_c, 1, 49, 0
1, 75330, Note_on_c, 1, 47, 127
1, 75344, Note_off_c, 1, 47, 0
1, 75345, Note_on_c, 1, 45, 127
1, 75359, Note_off_c, 1, 45, 0
1, 75360, Note_on_c, 1, 88, 127
1, 75360, Note_on_c, 1, 83, 127
1, 75360, Note_on_c, 1, 74, 127
1, 75360, Note_on_c, 1, 76, 127
1, 75360, Note_on_c, 1, 71, 127
1, 75360, Note_on_c, 1, 64, 127
1, 75360, Note_on_c, 1, 44, 127
1, 75419, Note_off_c, 1, 88, 0
1, 75419, Note_off_c, 1, 83, 0
1, 75419, Note_off_c, 1, 74, 0
1, 75419, Note_off_c, 1, 71, 0
1, 75419, Note_off_c, 1, 64, 0
1, 75420, Note_off_c, 1, 59, 0
1, 75420, Note_off_c, 1, 76, 0
1, 75420, Note_on_c, 1, 55, 127
1, 75479, Note_off_c, 1, 44, 0
1, 75480, Note_off_c, 1, 55, 0
1, 75600, Note_on_c, 1, 81, 127
1, 75600, Note_on_c, 1, 69, 127
1, 75600, Note_on_c, 1, 57, 127
1, 75600, Note_on_c, 1, 73, 127
1, 75600, Note_on_c, 1, 61, 127
1, 75600, Note_on_c, 1, 43, 127
1, 75719, Note_off_c, 1, 81, 0
1, 75719, Note_off_c, 1, 69, 0
1, 75719, Note_off_c, 1, 57, 0
1, 75719, Note_off_c, 1, 73, 0
1, 75719, Note_off_c, 1, 61, 0
1, 75719, Note_off_c, 1, 43, 0
1, 75780, Note_on_c, 1, 52, 127
1, 75840, Note_off_c, 1, 52, 0
1, 75840, Note_on_c, 1, 49, 127
1, 75960, Note_off_c, 1, 49, 0
1, 75960, Note_on_c, 1, 58, 127
1, 76020, Note_off_c, 1, 58, 0
1, 76020, Note_on_c, 1, 57, 127
1, 76080, Note_off_c, 1, 57, 0
1, 76080, Note_on_c, 1, 69, 127
1, 76080, Note_on_c, 1, 66, 127
1, 76080, Note_on_c, 1, 81, 127
1, 76080, Note_on_c, 1, 75, 127
1, 76080, Note_on_c, 1, 72, 127
1, 76080, Note_on_c, 1, 63, 127
1, 76080, Note_on_c, 1, 60, 127
1, 76080, Note_on_c, 1, 42, 127
1, 76199, Note_off_c, 1, 66, 0
1, 76199, Note_off_c, 1, 81, 0
1, 76199, Note_off_c, 1, 75, 0
1, 76199, Note_off_c, 1, 72, 0
1, 76199, Note_off_c, 1, 63, 0
1, 76199, Note_off_c, 1, 60, 0
1, 76199, Note_off_c, 1, 42, 0
1, 76200, Note_off_c, 1, 69, 0
1, 76260, Note_on_c, 1, 50, 127
1, 76320, Note_off_c, 1, 50, 0
1, 76320, Note_on_c, 1, 71, 127
1, 76320, Note_on_c, 1, 62, 127
1, 76320, Note_on_c, 1, 86, 127
1, 76320, Note_on_c, 1, 83, 127
1, 76320, Note_on_c, 1, 77, 127
1, 76320, Note_on_c, 1, 74, 127
1, 76320, Note_on_c, 1, 59, 127
1, 76320, Note_on_c, 1, 44, 127
1, 76439, Note_off_c, 1, 71, 0
1, 76439, Note_off_c, 1, 62, 0
1, 76439, Note_off_c, 1, 86, 0
1, 76439, Note_off_c, 1, 83, 0
1, 76439, Note_off_c, 1, 74, 0
1, 76439, Note_off_c, 1, 44, 0
1, 76440, Note_off_c, 1, 77, 0
1, 76440, Note_off_c, 1, 59, 0
1, 76440, Note_on_c, 1, 61, 127
1, 76500, Note_off_c, 1, 61, 0
1, 76575, Note_on_c, 1, 69, 127
1, 76575, Note_on_c, 1, 81, 127
1, 76589, Note_off_c, 1, 69, 0
1, 76589, Note_off_c, 1, 81, 0
1, 76590, Note_on_c, 1, 78, 127
1, 76590, Note_on_c, 1, 45, 127
1, 76590, Note_on_c, 1, 66, 127
1, 76590, Note_on_c, 1, 79, 127
1, 76590, Note_on_c, 1, 57, 127
1, 76604, Note_off_c, 1, 79, 0
1, 76605, Note_on_c, 1, 73, 127
1, 76619, Note_off_c, 1, 78, 0
1, 76619, Note_off_c, 1, 45, 0
1, 76619, Note_off_c, 1, 66, 0
1, 76619, Note_off_c, 1, 57, 0
1, 76619, Note_off_c, 1, 73, 0
1, 76620, Note_on_c, 1, 76, 127
1, 76634, Note_off_c, 1, 76, 0
1, 76680, Note_on_c, 1, 85, 127
1, 76680, Note_on_c, 1, 67, 127
1, 76680, Note_on_c, 1, 64, 127
1, 76709, Note_off_c, 1, 85, 0
1, 76709, Note_off_c, 1, 67, 0
1, 76709, Note_off_c, 1, 64, 0
1, 76710, Note_on_c, 1, 85, 127
1, 76710, Note_on_c, 1, 81, 127
1, 76710, Note_on_c, 1, 76, 127
1, 76710, Note_on_c, 1, 45, 127
1, 76710, Note_on_c, 1, 67, 127
1, 76710, Note_on_c, 1, 64, 127
1, 76710, Note_on_c, 1, 73, 127
1, 76710, Note_on_c, 1, 57, 127
1, 76725, Note_on_c, 1, 78, 127
1, 76725, Note_on_c, 1, 71, 127
1, 76725, Note_on_c, 1, 66, 127
1, 76725, Note_on_c, 1, 62, 127
1, 76739, Note_off_c, 1, 85, 0
1, 76739, Note_off_c, 1, 81, 0
1, 76739, Note_off_c, 1, 76, 0
1, 76739, Note_off_c, 1, 45, 0
1, 76739, Note_off_c, 1, 67, 0
1, 76739, Note_off_c, 1, 64, 0
1, 76739, Note_off_c, 1, 73, 0
1, 76739, Note_off_c, 1, 57, 0
1, 76739, Note_off_c, 1, 78, 0
1, 76739, Note_off_c, 1, 71, 0
1, 76739, Note_off_c, 1, 66, 0
1, 76739, Note_off_c, 1, 62, 0
1, 76740, Note_on_c, 1, 85, 127
1, 76740, Note_on_c, 1, 81, 127
1, 76740, Note_on_c, 1, 76, 127
1, 76740, Note_on_c, 1, 45, 127
1, 76740, Note_on_c, 1, 67, 127
1, 76740, Note_on_c, 1, 64, 127
1, 76740, Note_on_c, 1, 79, 127
1, 76740, Note_on_c, 1, 69, 127
1, 76740, Note_on_c, 1, 61, 127
1, 76740, Note_on_c, 1, 57, 127
1, 76754, Note_off_c, 1, 79, 0
1, 76754, Note_off_c, 1, 69, 0
1, 76754, Note_off_c, 1, 61, 0
1, 76755, Note_on_c, 1, 62, 127
1, 76755, Note_on_c, 1, 59, 127
1, 76769, Note_off_c, 1, 85, 0
1, 76769, Note_off_c, 1, 81, 0
1, 76769, Note_off_c, 1, 76, 0
1, 76769, Note_off_c, 1, 45, 0
1, 76769, Note_off_c, 1, 67, 0
1, 76769, Note_off_c, 1, 64, 0
1, 76769, Note_off_c, 1, 57, 0
1, 76769, Note_off_c, 1, 62, 0
1, 76769, Note_off_c, 1, 59, 0
1, 76770, Note_on_c, 1, 85, 127
1, 76770, Note_on_c, 1, 81, 127
1, 76770, Note_on_c, 1, 79, 127
1, 76770, Note_on_c, 1, 45, 127
1, 76770, Note_on_c, 1, 64, 127
1, 76770, Note_on_c, 1, 57, 127
1, 76770, Note_on_c, 1, 83, 127
1, 76770, Note_on_c, 1, 66, 127
1, 76770, Note_on_c, 1, 61, 127
1, 76784, Note_off_c, 1, 83, 0
1, 76784, Note_off_c, 1, 66, 0
1, 76784, Note_off_c, 1, 61, 0
1, 76785, Note_on_c, 1, 59, 127
1, 76785, Note_on_c, 1, 55, 127
1, 76799, Note_off_c, 1, 85, 0
1, 76799, Note_off_c, 1, 81, 0
1, 76799, Note_off_c, 1, 79, 0
1, 76799, Note_off_c, 1, 45, 0
1, 76799, Note_off_c, 1, 64, 0
1, 76799, Note_off_c, 1, 57, 0
1, 76799, Note_off_c, 1, 59, 0
1, 76799, Note_off_c, 1, 55, 0
1, 76800, Note_on_c, 1, 86, 127
1, 76800, Note_on_c, 1, 81, 127
1, 76800, Note_on_c, 1, 78, 127
1, 76800, Note_on_c, 1, 50, 127
1, 76800, Note_on_c, 1, 66, 127
1, 76800, Note_on_c, 1, 57, 127
1, 76800, Note_on_c, 1, 62, 127
1, 76800, Note_on_c, 1, 54, 127
1, 76814, Note_off_c, 1, 62, 0
1, 76815, Note_on_c, 1, 38, 127
1, 76829, Note_off_c, 1, 86, 0
1, 76829, Note_off_c, 1, 81, 0
1, 76829, Note_off_c, 1, 78, 0
1, 76829, Note_off_c, 1, 50, 0
1, 76829, Note_off_c, 1, 66, 0
1, 76829, Note_off_c, 1, 57, 0
1, 76829, Note_off_c, 1, 54, 0
1, 76829, Note_off_c, 1, 38, 0
1, 76830, Note_on_c, 1, 81, 127
1, 76830, Note_on_c, 1, 78, 127
1, 76830, Note_on_c, 1, 74, 127
1, 76830, Note_on_c, 1, 50, 127
1, 76830, Note_on_c, 1, 54, 127
1, 76830, Note_on_c, 1, 85, 127
1, 76830, Note_on_c, 1, 67, 127
1, 76830, Note_on_c, 1, 57, 127
1, 76830, Note_on_c, 1, 40, 127
1, 76844, Note_off_c, 1, 85, 0
1, 76844, Note_off_c, 1, 67, 0
1, 76844, Note_off_c, 1, 40, 0
1, 76845, Note_on_c, 1, 83, 127
1, 76845, Note_on_c, 1, 69, 127
1, 76845, Note_on_c, 1, 42, 127
1, 76859, Note_off_c, 1, 81, 0
1, 76859, Note_off_c, 1, 78, 0
1, 76859, Note_off_c, 1, 74, 0
1, 76859, Note_off_c, 1, 50, 0
1, 76859, Note_off_c, 1, 54, 0
1, 76859, Note_off_c, 1, 57, 0
1, 76859, Note_off_c, 1, 83, 0
1, 76859, Note_off_c, 1, 69, 0
1, 76859, Note_off_c, 1, 42, 0
1, 76860, Note_on_c, 1, 81, 127
1, 76860, Note_on_c, 1, 78, 127
1, 76860, Note_on_c, 1, 74, 127
1, 76860, Note_on_c, 1, 50, 127
1, 76860, Note_on_c, 1, 54, 127
1, 76860, Note_on_c, 1, 71, 127
1, 76860, Note_on_c, 1, 57, 127
1, 76860, Note_on_c, 1, 43, 127
1, 76874, Note_off_c, 1, 71, 0
1, 76874, Note_off_c, 1, 43, 0
1, 76875, Note_on_c, 1, 79, 127
1, 76875, Note_on_c, 1, 73, 127
1, 76875, Note_on_c, 1, 45, 127
1, 76889, Note_off_c, 1, 81, 0
1, 76889, Note_off_c, 1, 78, 0
1, 76889, Note_off_c, 1, 74, 0
1, 76889, Note_off_c, 1, 50, 0
1, 76889, Note_off_c, 1, 54, 0
1, 76889, Note_off_c, 1, 57, 0
1, 76889, Note_off_c, 1, 79, 0
1, 76889, Note_off_c, 1, 73, 0
1, 76889, Note_off_c, 1, 45, 0
1, 76890, Note_on_c, 1, 78, 127
1, 76890, Note_on_c, 1, 74, 127
1, 76890, Note_on_c, 1, 69, 127
1, 76890, Note_on_c, 1, 50, 127
1, 76890, Note_on_c, 1, 54, 127
1, 76890, Note_on_c, 1, 57, 127
1, 76890, Note_on_c, 1, 47, 127
1, 76904, Note_off_c, 1, 47, 0
1, 76905, Note_on_c, 1, 76, 127
1, 76905, Note_on_c, 1, 49, 127
1, 76919, Note_off_c, 1, 78, 0
1, 76919, Note_off_c, 1, 74, 0
1, 76919, Note_off_c, 1, 69, 0
1, 76919, Note_off_c, 1, 50, 0
1, 76919, Note_off_c, 1, 54, 0
1, 76919, Note_off_c, 1, 57, 0
1, 76919, Note_off_c, 1, 76, 0
1, 76919, Note_off_c, 1, 49, 0
1, 76920, Note_on_c, 1, 78, 127
1, 76920, Note_on_c, 1, 73, 127
1, 76920, Note_on_c, 1, 69, 127
1, 76920, Note_on_c, 1, 50, 127
1, 76920, Note_on_c, 1, 54, 127
1, 76920, Note_on_c, 1, 74, 127
1, 76920, Note_on_c, 1, 57, 127
1, 76935, Note_on_c, 1, 49, 127
1, 76949, Note_off_c, 1, 78, 0
1, 76949, Note_off_c, 1, 73, 0
1, 76949, Note_off_c, 1, 69, 0
1, 76949, Note_off_c, 1, 50, 0
1, 76949, Note_off_c, 1, 54, 0
1, 76949, Note_off_c, 1, 74, 0
1, 76949, Note_off_c, 1, 57, 0
1, 76949, Note_off_c, 1, 49, 0
1, 76950, Note_on_c, 1, 74, 127
1, 76950, Note_on_c, 1, 69, 127
1, 76950, Note_on_c, 1, 66, 127
1, 76950, Note_on_c, 1, 50, 127
1, 76950, Note_on_c, 1, 54, 127
1, 76950, Note_on_c, 1, 73, 127
1, 76950, Note_on_c, 1, 78, 127
1, 76950, Note_on_c, 1, 71, 127
1, 76950, Note_on_c, 1, 57, 127
1, 76964, Note_off_c, 1, 73, 0
1, 76964, Note_off_c, 1, 71, 0
1, 76965, Note_on_c, 1, 52, 127
1, 76979, Note_off_c, 1, 74, 0
1, 76979, Note_off_c, 1, 69, 0
1, 76979, Note_off_c, 1, 66, 0
1, 76979, Note_off_c, 1, 50, 0
1, 76979, Note_off_c, 1, 54, 0
1, 76979, Note_off_c, 1, 78, 0
1, 76979, Note_off_c, 1, 57, 0
1, 76979, Note_off_c, 1, 52, 0
1, 76980, Note_on_c, 1, 74, 127
1, 76980, Note_on_c, 1, 69, 127
1, 76980, Note_on_c, 1, 66, 127
1, 76980, Note_on_c, 1, 50, 127
1, 76980, Note_on_c, 1, 54, 127
1, 76980, Note_on_c, 1, 57, 127
1, 76995, Note_on_c, 1, 67, 127
1, 76995, Note_on_c, 1, 76, 127
1, 76995, Note_on_c, 1, 55, 127
1, 77009, Note_off_c, 1, 74, 0
1, 77009, Note_off_c, 1, 69, 0
1, 77009, Note_off_c, 1, 66, 0
1, 77009, Note_off_c, 1, 50, 0
1, 77009, Note_off_c, 1, 54, 0
1, 77009, Note_off_c, 1, 57, 0
1, 77009, Note_off_c, 1, 67, 0
1, 77009, Note_off_c, 1, 76, 0
1, 77009, Note_off_c, 1, 55, 0
1, 77010, Note_on_c, 1, 69, 127
1, 77010, Note_on_c, 1, 66, 127
1, 77010, Note_on_c, 1, 62, 127
1, 77010, Note_on_c, 1, 50, 127
1, 77010, Note_on_c, 1, 54, 127
1, 77010, Note_on_c, 1, 74, 127
1, 77010, Note_on_c, 1, 78, 127
1, 77010, Note_on_c, 1, 57, 127
1, 77024, Note_off_c, 1, 78, 0
1, 77025, Note_on_c, 1, 64, 127
1, 77025, Note_on_c, 1, 79, 127
1, 77025, Note_on_c, 1, 59, 127
1, 77039, Note_off_c, 1, 69, 0
1, 77039, Note_off_c, 1, 66, 0
1, 77039, Note_off_c, 1, 62, 0
1, 77039, Note_off_c, 1, 50, 0
1, 77039, Note_off_c, 1, 54, 0
1, 77039, Note_off_c, 1, 74, 0
1, 77039, Note_off_c, 1, 57, 0
1, 77039, Note_off_c, 1, 64, 0
1, 77039, Note_off_c, 1, 79, 0
1, 77039, Note_off_c, 1, 59, 0
1, 77040, Note_on_c, 1, 69, 127
1, 77040, Note_on_c, 1, 66, 127
1, 77040, Note_on_c, 1, 62, 127
1, 77040, Note_on_c, 1, 50, 127
1, 77040, Note_on_c, 1, 54, 127
1, 77040, Note_on_c, 1, 78, 127
1, 77040, Note_on_c, 1, 74, 127
1, 77040, Note_on_c, 1, 81, 127
1, 77040, Note_on_c, 1, 57, 127
1, 77040, Note_on_c, 1, 60, 127
1, 77159, Note_off_c, 1, 69, 0
1, 77159, Note_off_c, 1, 66, 0
1, 77159, Note_off_c, 1, 62, 0
1, 77159, Note_off_c, 1, 54, 0
1, 77159, Note_off_c, 1, 78, 0
1, 77159, Note_off_c, 1, 74, 0
1, 77159, Note_off_c, 1, 81, 0
1, 77159, Note_off_c, 1, 57, 0
1, 77159, Note_off_c, 1, 60, 0
1, 77160, Note_off_c, 1, 50, 0
1, 77295, Note_on_c, 1, 68, 127
1, 77295, Note_on_c, 1, 86, 127
1, 77309, Note_off_c, 1, 68, 0
1, 77309, Note_off_c, 1, 86, 0
1, 77310, Note_on_c, 1, 80, 127
1, 77310, Note_on_c, 1, 85, 127
1, 77310, Note_on_c, 1, 59, 127
1, 77324, Note_off_c, 1, 85, 0
1, 77325, Note_on_c, 1, 71, 127
1, 77325, Note_on_c, 1, 83, 127
1, 77339, Note_off_c, 1, 80, 0
1, 77339, Note_off_c, 1, 59, 0
1, 77339, Note_off_c, 1, 71, 0
1, 77339, Note_off_c, 1, 83, 0
1, 77340, Note_on_c, 1, 73, 127
1, 77354, Note_off_c, 1, 73, 0
1, 77370, Note_on_c, 1, 76, 127
1, 77384, Note_off_c, 1, 76, 0
1, 77400, Note_on_c, 1, 79, 127
1, 77414, Note_off_c, 1, 79, 0
1, 77430, Note_on_c, 1, 62, 127
1, 77430, Note_on_c, 1, 76, 127
1, 77430, Note_on_c, 1, 83, 127
1, 77430, Note_on_c, 1, 74, 127
1, 77430, Note_on_c, 1, 81, 127
1, 77430, Note_on_c, 1, 78, 127
1, 77430, Note_on_c, 1, 61, 127
1, 77430, Note_on_c, 1, 59, 127
1, 77444, Note_off_c, 1, 76, 0
1, 77444, Note_off_c, 1, 81, 0
1, 77444, Note_off_c, 1, 78, 0
1, 77444, Note_off_c, 1, 61, 0
1, 77445, Note_on_c, 1, 80, 127
1, 77459, Note_off_c, 1, 62, 0
1, 77459, Note_off_c, 1, 83, 0
1, 77459, Note_off_c, 1, 74, 0
1, 77459, Note_off_c, 1, 59, 0
1, 77459, Note_off_c, 1, 80, 0
1, 77460, Note_on_c, 1, 62, 127
1, 77460, Note_on_c, 1, 79, 127
1, 77460, Note_on_c, 1, 83, 127
1, 77460, Note_on_c, 1, 74, 127
1, 77460, Note_on_c, 1, 78, 127
1, 77460, Note_on_c, 1, 57, 127
1, 77474, Note_off_c, 1, 79, 0
1, 77474, Note_off_c, 1, 78, 0
1, 77475, Note_on_c, 1, 81, 127
1, 77475, Note_on_c, 1, 76, 127
1, 77475, Note_on_c, 1, 73, 127
1, 77475, Note_on_c, 1, 56, 127
1, 77489, Note_off_c, 1, 83, 0
1, 77489, Note_off_c, 1, 74, 0
1, 77489, Note_off_c, 1, 57, 0
1, 77489, Note_off_c, 1, 81, 0
1, 77489, Note_off_c, 1, 76, 0
1, 77489, Note_off_c, 1, 73, 0
1, 77489, Note_off_c, 1, 56, 0
1, 77490, Note_on_c, 1, 71, 127
1, 77490, Note_on_c, 1, 54, 127
1, 77504, Note_off_c, 1, 71, 0
1, 77504, Note_off_c, 1, 54, 0
1, 77505, Note_on_c, 1, 85, 127
1, 77505, Note_on_c, 1, 69, 127
1, 77505, Note_on_c, 1, 52, 127
1, 77519, Note_off_c, 1, 85, 0
1, 77519, Note_off_c, 1, 69, 0
1, 77519, Note_off_c, 1, 52, 0
1, 77520, Note_on_c, 1, 64, 127
1, 77520, Note_on_c, 1, 86, 127
1, 77520, Note_on_c, 1, 59, 127
1, 77579, Note_off_c, 1, 62, 0
1, 77579, Note_off_c, 1, 86, 0
1, 77579, Note_off_c, 1, 59, 0
1, 77580, Note_off_c, 1, 64, 0
1, 77760, Note_on_c, 1, 61, 127
1, 77790, Note_on_c, 1, 45, 127
1, 77819, Note_off_c, 1, 45, 0
1, 77835, Note_on_c, 1, 80, 127
1, 77835, Note_on_c, 1, 50, 127
1, 77849, Note_off_c, 1, 80, 0
1, 77849, Note_off_c, 1, 50, 0
1, 77850, Note_on_c, 1, 49, 127
1, 77864, Note_off_c, 1, 49, 0
1, 77865, Note_on_c, 1, 47, 127
1, 77879, Note_off_c, 1, 47, 0
1, 77880, Note_off_c, 1, 61, 0
1, 77910, Note_on_c, 1, 85, 127
1, 77910, Note_on_c, 1, 81, 127
1, 77910, Note_on_c, 1, 76, 127
1, 77910, Note_on_c, 1, 45, 127
1, 77910, Note_on_c, 1, 57, 127
1, 77910, Note_on_c, 1, 88, 127
1, 77910, Note_on_c, 1, 73, 127
1, 77910, Note_on_c, 1, 55, 127
1, 77910, Note_on_c, 1, 49, 127
1, 77924, Note_off_c, 1, 88, 0
1, 77924, Note_off_c, 1, 55, 0
1, 77924, Note_off_c, 1, 49, 0
1, 77925, Note_on_c, 1, 86, 127
1, 77925, Note_on_c, 1, 78, 127
1, 77925, Note_on_c, 1, 74, 127
1, 77925, Note_on_c, 1, 47, 127
1, 77939, Note_off_c, 1, 85, 0
1, 77939, Note_off_c, 1, 81, 0
1, 77939, Note_off_c, 1, 76, 0
1, 77939, Note_off_c, 1, 45, 0
1, 77939, Note_off_c, 1, 73, 0
1, 77939, Note_off_c, 1, 86, 0
1, 77939, Note_off_c, 1, 78, 0
1, 77939, Note_off_c, 1, 74, 0
1, 77939, Note_off_c, 1, 47, 0
1, 77940, Note_on_c, 1, 79, 127
1, 77940, Note_on_c, 1, 59, 127
1, 77940, Note_on_c, 1, 61, 127
1, 77954, Note_off_c, 1, 59, 0
1, 77955, Note_on_c, 1, 83, 127
1, 77955, Note_on_c, 1, 43, 127
1, 77969, Note_off_c, 1, 57, 0
1, 77969, Note_off_c, 1, 79, 0
1, 77969, Note_off_c, 1, 83, 0
1, 77969, Note_off_c, 1, 43, 0
1, 77970, Note_off_c, 1, 61, 0
1, 77970, Note_on_c, 1, 62, 127
1, 77970, Note_on_c, 1, 64, 127
1, 77970, Note_on_c, 1, 42, 127
1, 77984, Note_off_c, 1, 62, 0
1, 77984, Note_off_c, 1, 42, 0
1, 77985, Note_on_c, 1, 40, 127
1, 77999, Note_off_c, 1, 40, 0
1, 78000, Note_off_c, 1, 64, 0
1, 78000, Note_on_c, 1, 50, 127
1, 78000, Note_on_c, 1, 66, 127
1, 78000, Note_on_c, 1, 38, 127
1, 78060, Note_off_c, 1, 50, 0
1, 78060, Note_off_c, 1, 66, 0
1, 78060, Note_on_c, 1, 54, 127
1, 78119, Note_off_c, 1, 38, 0
1, 78120, Note_off_c, 1, 54, 0
1, 78285, Note_on_c, 1, 80, 127
1, 78285, Note_on_c, 1, 44, 127
1, 78299, Note_off_c, 1, 80, 0
1, 78299, Note_off_c, 1, 44, 0
1, 78360, Note_on_c, 1, 71, 127
1, 78360, Note_on_c, 1, 52, 127
1, 78374, Note_off_c, 1, 52, 0
1, 78375, Note_on_c, 1, 69, 127
1, 78389, Note_off_c, 1, 71, 0
1, 78389, Note_off_c, 1, 69, 0
1, 78390, Note_on_c, 1, 86, 127
1, 78390, Note_on_c, 1, 80, 127
1, 78390, Note_on_c, 1, 76, 127
1, 78390, Note_on_c, 1, 64, 127
1, 78390, Note_on_c, 1, 71, 127
1, 78390, Note_on_c, 1, 68, 127
1, 78390, Note_on_c, 1, 56, 127
1, 78404, Note_off_c, 1, 68, 0
1, 78404, Note_off_c, 1, 56, 0
1, 78405, Note_on_c, 1, 69, 127
1, 78405, Note_on_c, 1, 66, 127
1, 78405, Note_on_c, 1, 74, 127
1, 78405, Note_on_c, 1, 57, 127
1, 78419, Note_off_c, 1, 86, 0
1, 78419, Note_off_c, 1, 80, 0
1, 78419, Note_off_c, 1, 76, 0
1, 78419, Note_off_c, 1, 64, 0
1, 78419, Note_off_c, 1, 71, 0
1, 78419, Note_off_c, 1, 69, 0
1, 78419, Note_off_c, 1, 66, 0
1, 78419, Note_off_c, 1, 74, 0
1, 78419, Note_off_c, 1, 57, 0
1, 78420, Note_on_c, 1, 86, 127
1, 78420, Note_on_c, 1, 80, 127
1, 78420, Note_on_c, 1, 76, 127
1, 78420, Note_on_c, 1, 64, 127
1, 78420, Note_on_c, 1, 68, 127
1, 78420, Note_on_c, 1, 71, 127
1, 78420, Note_on_c, 1, 73, 127
1, 78420, Note_on_c, 1, 59, 127
1, 78434, Note_off_c, 1, 68, 0
1, 78434, Note_off_c, 1, 73, 0
1, 78434, Note_off_c, 1, 59, 0
1, 78435, Note_on_c, 1, 66, 127
1, 78435, Note_on_c, 1, 62, 127
1, 78435, Note_on_c, 1, 61, 127
1, 78449, Note_off_c, 1, 86, 0
1, 78449, Note_off_c, 1, 80, 0
1, 78449, Note_off_c, 1, 76, 0
1, 78449, Note_off_c, 1, 64, 0
1, 78449, Note_off_c, 1, 71, 0
1, 78449, Note_off_c, 1, 66, 0
1, 78449, Note_off_c, 1, 62, 0
1, 78449, Note_off_c, 1, 61, 0
1, 78450, Note_on_c, 1, 86, 127
1, 78450, Note_on_c, 1, 80, 127
1, 78450, Note_on_c, 1, 76, 127
1, 78450, Note_on_c, 1, 64, 127
1, 78450, Note_on_c, 1, 71, 127
1, 78450, Note_on_c, 1, 61, 127
1, 78450, Note_on_c, 1, 69, 127
1, 78450, Note_on_c, 1, 62, 127
1, 78464, Note_off_c, 1, 61, 0
1, 78464, Note_off_c, 1, 69, 0
1, 78464, Note_off_c, 1, 62, 0
1, 78465, Note_on_c, 1, 59, 127
1, 78465, Note_on_c, 1, 68, 127
1, 78479, Note_off_c, 1, 86, 0
1, 78479, Note_off_c, 1, 80, 0
1, 78479, Note_off_c, 1, 76, 0
1, 78479, Note_off_c, 1, 64, 0
1, 78479, Note_off_c, 1, 71, 0
1, 78479, Note_off_c, 1, 59, 0
1, 78479, Note_off_c, 1, 68, 0
1, 78480, Note_on_c, 1, 85, 127
1, 78480, Note_on_c, 1, 81, 127
1, 78480, Note_on_c, 1, 76, 127
1, 78480, Note_on_c, 1, 64, 127
1, 78480, Note_on_c, 1, 73, 127
1, 78480, Note_on_c, 1, 57, 127
1, 78480, Note_on_c, 1, 69, 127
1, 78509, Note_off_c, 1, 85, 0
1, 78509, Note_off_c, 1, 81, 0
1, 78509, Note_off_c, 1, 76, 0
1, 78509, Note_off_c, 1, 64, 0
1, 78509, Note_off_c, 1, 73, 0
1, 78509, Note_off_c, 1, 57, 0
1, 78509, Note_off_c, 1, 69, 0
1, 78510, Note_on_c, 1, 69, 127
1, 78510, Note_on_c, 1, 45, 127
1, 78510, Note_on_c, 1, 64, 127
1, 78510, Note_on_c, 1, 61, 127
1, 78524, Note_off_c, 1, 64, 0
1, 78524, Note_off_c, 1, 61, 0
1, 78525, Note_on_c, 1, 73, 127
1, 78539, Note_off_c, 1, 69, 0
1, 78539, Note_off_c, 1, 45, 0
1, 78539, Note_off_c, 1, 73, 0
1, 78540, Note_on_c, 1, 69, 127
1, 78540, Note_on_c, 1, 45, 127
1, 78540, Note_on_c, 1, 76, 127
1, 78540, Note_on_c, 1, 73, 127
1, 78540, Note_on_c, 1, 57, 127
1, 78569, Note_off_c, 1, 69, 0
1, 78569, Note_off_c, 1, 45, 0
1, 78569, Note_off_c, 1, 76, 0
1, 78569, Note_off_c, 1, 73, 0
1, 78569, Note_off_c, 1, 57, 0
1, 78570, Note_on_c, 1, 69, 127
1, 78570, Note_on_c, 1, 45, 127
1, 78570, Note_on_c, 1, 73, 127
1, 78570, Note_on_c, 1, 64, 127
1, 78570, Note_on_c, 1, 61, 127
1, 78584, Note_off_c, 1, 73, 0
1, 78584, Note_off_c, 1, 64, 0
1, 78584, Note_off_c, 1, 61, 0
1, 78585, Note_on_c, 1, 76, 127
1, 78585, Note_on_c, 1, 57, 127
1, 78599, Note_off_c, 1, 69, 0
1, 78599, Note_off_c, 1, 45, 0
1, 78599, Note_off_c, 1, 76, 0
1, 78599, Note_off_c, 1, 57, 0
1, 78600, Note_on_c, 1, 69, 127
1, 78600, Note_on_c, 1, 45, 127
1, 78600, Note_on_c, 1, 81, 127
1, 78600, Note_on_c, 1, 76, 127
1, 78600, Note_on_c, 1, 73, 127
1, 78600, Note_on_c, 1, 52, 127
1, 78629, Note_off_c, 1, 69, 0
1, 78629, Note_off_c, 1, 45, 0
1, 78629, Note_off_c, 1, 81, 0
1, 78629, Note_off_c, 1, 76, 0
1, 78629, Note_off_c, 1, 73, 0
1, 78629, Note_off_c, 1, 52, 0
1, 78630, Note_on_c, 1, 69, 127
1, 78630, Note_on_c, 1, 45, 127
1, 78630, Note_on_c, 1, 76, 127
1, 78630, Note_on_c, 1, 73, 127
1, 78630, Note_on_c, 1, 57, 127
1, 78644, Note_off_c, 1, 76, 0
1, 78644, Note_off_c, 1, 73, 0
1, 78644, Note_off_c, 1, 57, 0
1, 78645, Note_on_c, 1, 81, 127
1, 78645, Note_on_c, 1, 52, 127
1, 78659, Note_off_c, 1, 69, 0
1, 78659, Note_off_c, 1, 45, 0
1, 78659, Note_off_c, 1, 81, 0
1, 78659, Note_off_c, 1, 52, 0
1, 78660, Note_on_c, 1, 69, 127
1, 78660, Note_on_c, 1, 45, 127
1, 78660, Note_on_c, 1, 85, 127
1, 78660, Note_on_c, 1, 81, 127
1, 78660, Note_on_c, 1, 76, 127
1, 78660, Note_on_c, 1, 49, 127
1, 78689, Note_off_c, 1, 69, 0
1, 78689, Note_off_c, 1, 45, 0
1, 78689, Note_off_c, 1, 85, 0
1, 78689, Note_off_c, 1, 81, 0
1, 78689, Note_off_c, 1, 76, 0
1, 78689, Note_off_c, 1, 49, 0
1, 78690, Note_on_c, 1, 69, 127
1, 78690, Note_on_c, 1, 45, 127
1, 78690, Note_on_c, 1, 81, 127
1, 78690, Note_on_c, 1, 76, 127
1, 78690, Note_on_c, 1, 73, 127
1, 78690, Note_on_c, 1, 52, 127
1, 78704, Note_off_c, 1, 81, 0
1, 78704, Note_off_c, 1, 76, 0
1, 78704, Note_off_c, 1, 73, 0
1, 78704, Note_off_c, 1, 52, 0
1, 78705, Note_on_c, 1, 85, 127
1, 78705, Note_on_c, 1, 49, 127
1, 78719, Note_off_c, 1, 69, 0
1, 78719, Note_off_c, 1, 45, 0
1, 78719, Note_off_c, 1, 85, 0
1, 78719, Note_off_c, 1, 49, 0
1, 78720, Note_on_c, 1, 69, 127
1, 78720, Note_on_c, 1, 45, 127
1, 78720, Note_on_c, 1, 88, 127
1, 78720, Note_on_c, 1, 85, 127
1, 78720, Note_on_c, 1, 81, 127
1, 78720, Note_on_c, 1, 64, 127
1, 78780, Note_on_c, 1, 52, 127
1, 78839, Note_off_c, 1, 69, 0
1, 78839, Note_off_c, 1, 45, 0
1, 78839, Note_off_c, 1, 88, 0
1, 78839, Note_off_c, 1, 85, 0
1, 78839, Note_off_c, 1, 64, 0
1, 78840, Note_off_c, 1, 81, 0
1, 78840, Note_off_c, 1, 52, 0
1, 78840, Note_on_c, 1, 57, 127
1, 78900, Note_off_c, 1, 57, 0
1, 78900, Note_on_c, 1, 59, 127
1, 78960, Note_off_c, 1, 59, 0
1, 78960, Note_on_c, 1, 61, 127
1, 78975, Note_on_c, 1, 73, 127
1, 78989, Note_off_c, 1, 73, 0
1, 78990, Note_on_c, 1, 66, 127
1, 78990, Note_on_c, 1, 74, 127
1, 78990, Note_on_c, 1, 78, 127
1, 78990, Note_on_c, 1, 76, 127
1, 78990, Note_on_c, 1, 46, 127
1, 79004, Note_off_c, 1, 74, 0
1, 79019, Note_off_c, 1, 66, 0
1, 79019, Note_off_c, 1, 78, 0
1, 79019, Note_off_c, 1, 76, 0
1, 79019, Note_off_c, 1, 46, 0
1, 79035, Note_on_c, 1, 80, 127
1, 79049, Note_off_c, 1, 80, 0
1, 79050, Note_on_c, 1, 82, 127
1, 79064, Note_off_c, 1, 82, 0
1, 79065, Note_on_c, 1, 83, 127
1, 79079, Note_off_c, 1, 83, 0
1, 79080, Note_off_c, 1, 61, 0
1, 79200, Note_on_c, 1, 58, 127
1, 79260, Note_off_c, 1, 58, 0
1, 79320, Note_on_c, 1, 55, 127
1, 79380, Note_off_c, 1, 55, 0
1, 79380, Note_on_c, 1, 54, 127
1, 79440, Note_off_c, 1, 54, 0
1, 79440, Note_on_c, 1, 51, 127
1, 79470, Note_on_c, 1, 71, 127
1, 79470, Note_on_c, 1, 75, 127
1, 79485, Note_on_c, 1, 79, 127
1, 79499, Note_off_c, 1, 71, 0
1, 79499, Note_off_c, 1, 75, 0
1, 79499, Note_off_c, 1, 79, 0
1, 79560, Note_off_c, 1, 51, 0
1, 79590, Note_on_c, 1, 66, 127
1, 79590, Note_on_c, 1, 71, 127
1, 79590, Note_on_c, 1, 75, 127
1, 79590, Note_on_c, 1, 83, 127
1, 79590, Note_on_c, 1, 78, 127
1, 79590, Note_on_c, 1, 63, 127
1, 79590, Note_on_c, 1, 54, 127
1, 79590, Note_on_c, 1, 45, 127
1, 79604, Note_off_c, 1, 75, 0
1, 79605, Note_on_c, 1, 76, 127
1, 79619, Note_off_c, 1, 66, 0
1, 79619, Note_off_c, 1, 71, 0
1, 79619, Note_off_c, 1, 83, 0
1, 79619, Note_off_c, 1, 78, 0
1, 79619, Note_off_c, 1, 63, 0
1, 79619, Note_off_c, 1, 45, 0
1, 79619, Note_off_c, 1, 76, 0
1, 79620, Note_off_c, 1, 54, 0
1, 79620, Note_on_c, 1, 59, 127
1, 79635, Note_on_c, 1, 79, 127
1, 79649, Note_off_c, 1, 79, 0
1, 79650, Note_off_c, 1, 59, 0
1, 79650, Note_on_c, 1, 81, 127
1, 79650, Note_on_c, 1, 61, 127
1, 79664, Note_off_c, 1, 81, 0
1, 79680, Note_off_c, 1, 61, 0
1, 79680, Note_on_c, 1, 69, 127
1, 79680, Note_on_c, 1, 84, 127
1, 79739, Note_off_c, 1, 69, 0
1, 79739, Note_off_c, 1, 84, 0
1, 79920, Note_on_c, 1, 64, 127
1, 79935, Note_on_c, 1, 44, 127
1, 79949, Note_off_c, 1, 44, 0
1, 79950, Note_on_c, 1, 80, 127
1, 79965, Note_on_c, 1, 68, 127
1, 79965, Note_on_c, 1, 62, 127
1, 79965, Note_on_c, 1, 47, 127
1, 79979, Note_off_c, 1, 80, 0
1, 79979, Note_off_c, 1, 68, 0
1, 79979, Note_off_c, 1, 62, 0
1, 79979, Note_off_c, 1, 47, 0
1, 79980, Note_on_c, 1, 49, 127
1, 79994, Note_off_c, 1, 49, 0
1, 79995, Note_on_c, 1, 50, 127
1, 80009, Note_off_c, 1, 50, 0
1, 80010, Note_on_c, 1, 73, 127
1, 80010, Note_on_c, 1, 52, 127
1, 80024, Note_off_c, 1, 73, 0
1, 80024, Note_off_c, 1, 52, 0
1, 80025, Note_on_c, 1, 74, 127
1, 80039, Note_off_c, 1, 74, 0
1, 80040, Note_on_c, 1, 56, 127
1, 80099, Note_off_c, 1, 64, 0
1, 80099, Note_off_c, 1, 56, 0
1, 80100, Note_on_c, 1, 57, 127
1, 80130, Note_off_c, 1, 57, 0
1, 80145, Note_on_c, 1, 85, 127
1, 80159, Note_off_c, 1, 85, 0
1, 80160, Note_on_c, 1, 86, 127
1, 80160, Note_on_c, 1, 65, 127
1, 80219, Note_off_c, 1, 86, 0
1, 80220, Note_off_c, 1, 65, 0
1, 80430, Note_on_c, 1, 77, 127
1, 80430, Note_on_c, 1, 53, 127
1, 80444, Note_off_c, 1, 77, 0
1, 80459, Note_off_c, 1, 53, 0
1, 80580, Note_on_c, 1, 62, 127
1, 80640, Note_off_c, 1, 62, 0
1, 80640, Note_on_c, 1, 61, 127
1, 80700, Note_off_c, 1, 61, 0
1, 80700, Note_on_c, 1, 56, 127
1, 80760, Note_off_c, 1, 56, 0
1, 80760, Note_on_c, 1, 53, 127
1, 80820, Note_off_c, 1, 53, 0
1, 80880, Note_on_c, 1, 57, 127
1, 80910, Note_on_c, 1, 85, 127
1, 80910, Note_on_c, 1, 73, 127
1, 80910, Note_on_c, 1, 69, 127
1, 80910, Note_on_c, 1, 63, 127
1, 80910, Note_on_c, 1, 59, 127
1, 80910, Note_on_c, 1, 66, 127
1, 80910, Note_on_c, 1, 54, 127
1, 80924, Note_off_c, 1, 85, 0
1, 80924, Note_off_c, 1, 63, 0
1, 80924, Note_off_c, 1, 59, 0
1, 80925, Note_on_c, 1, 83, 127
1, 80925, Note_on_c, 1, 65, 127
1, 80939, Note_off_c, 1, 73, 0
1, 80939, Note_off_c, 1, 69, 0
1, 80939, Note_off_c, 1, 66, 0
1, 80939, Note_off_c, 1, 54, 0
1, 80939, Note_off_c, 1, 83, 0
1, 80939, Note_off_c, 1, 65, 0
1, 80940, Note_on_c, 1, 81, 127
1, 80954, Note_off_c, 1, 81, 0
1, 80955, Note_on_c, 1, 80, 127
1, 80955, Note_on_c, 1, 68, 127
1, 80969, Note_off_c, 1, 80, 0
1, 80969, Note_off_c, 1, 68, 0
1, 80970, Note_on_c, 1, 78, 127
1, 80984, Note_off_c, 1, 78, 0
1, 80985, Note_on_c, 1, 77, 127
1, 80985, Note_on_c, 1, 71, 127
1, 80999, Note_off_c, 1, 77, 0
1, 80999, Note_off_c, 1, 71, 0
1, 81000, Note_off_c, 1, 57, 0
1, 81060, Note_on_c, 1, 57, 127
1, 81120, Note_off_c, 1, 57, 0
1, 81120, Note_on_c, 1, 62, 127
1, 81150, Note_on_c, 1, 74, 127
1, 81150, Note_on_c, 1, 59, 127
1, 81150, Note_on_c, 1, 55, 127
1, 81150, Note_on_c, 1, 47, 127
1, 81164, Note_off_c, 1, 74, 0
1, 81165, Note_on_c, 1, 73, 127
1, 81179, Note_off_c, 1, 59, 0
1, 81179, Note_off_c, 1, 55, 0
1, 81179, Note_off_c, 1, 47, 0
1, 81179, Note_off_c, 1, 73, 0
1, 81180, Note_on_c, 1, 71, 127
1, 81194, Note_off_c, 1, 71, 0
1, 81195, Note_on_c, 1, 69, 127
1, 81209, Note_off_c, 1, 62, 0
1, 81209, Note_off_c, 1, 69, 0
1, 81210, Note_on_c, 1, 67, 127
1, 81224, Note_off_c, 1, 67, 0
1, 81225, Note_on_c, 1, 66, 127
1, 81239, Note_off_c, 1, 66, 0
1, 81300, Note_on_c, 1, 53, 127
1, 81330, Note_off_c, 1, 53, 0
1, 81330, Note_on_c, 1, 54, 127
1, 81390, Note_on_c, 1, 71, 127
1, 81390, Note_on_c, 1, 49, 127
1, 81404, Note_off_c, 1, 71, 0
1, 81405, Note_on_c, 1, 69, 127
1, 81419, Note_off_c, 1, 49, 0
1, 81419, Note_off_c, 1, 69, 0
1, 81420, Note_off_c, 1, 54, 0
1, 81420, Note_on_c, 1, 68, 127
1, 81434, Note_off_c, 1, 68, 0
1, 81435, Note_on_c, 1, 66, 127
1, 81449, Note_off_c, 1, 66, 0
1, 81450, Note_on_c, 1, 65, 127
1, 81450, Note_on_c, 1, 37, 127
1, 81464, Note_off_c, 1, 65, 0
1, 81465, Note_on_c, 1, 63, 127
1, 81479, Note_off_c, 1, 37, 0
1, 81479, Note_off_c, 1, 63, 0
1, 81540, Note_on_c, 1, 49, 127
1, 81569, Note_off_c, 1, 49, 0
1, 81570, Note_on_c, 1, 37, 127
1, 81599, Note_off_c, 1, 37, 0
1, 81600, Note_on_c, 1, 42, 127
1, 81840, Note_off_c, 1, 42, 0
1, 82500, Note_on_c, 1, 64, 127
1, 82500, Note_on_c, 1, 61, 127
1, 82500, Note_on_c, 1, 57, 127
1, 82529, Note_off_c, 1, 61, 0
1, 82529, Note_off_c, 1, 57, 0
1, 82530, Note_on_c, 1, 62, 127
1, 82530, Note_on_c, 1, 59, 127
1, 82559, Note_off_c, 1, 64, 0
1, 82559, Note_off_c, 1, 62, 0
1, 82559, Note_off_c, 1, 59, 0
1, 82560, Note_on_c, 1, 69, 127
1, 82560, Note_on_c, 1, 64, 127
1, 82560, Note_on_c, 1, 61, 127
1, 82619, Note_off_c, 1, 69, 0
1, 82619, Note_off_c, 1, 64, 0
1, 82619, Note_off_c, 1, 61, 0
1, 82620, Note_on_c, 1, 69, 127
1, 82620, Note_on_c, 1, 66, 127
1, 82620, Note_on_c, 1, 62, 127
1, 82679, Note_off_c, 1, 69, 0
1, 82679, Note_off_c, 1, 66, 0
1, 82679, Note_off_c, 1, 62, 0
1, 82680, Note_on_c, 1, 69, 127
1, 82680, Note_on_c, 1, 64, 127
1, 82680, Note_on_c, 1, 61, 127
1, 82739, Note_off_c, 1, 69, 0
1, 82739, Note_off_c, 1, 64, 0
1, 82739, Note_off_c, 1, 61, 0
1, 82740, Note_on_c, 1, 69, 127
1, 82740, Note_on_c, 1, 62, 127
1, 82740, Note_on_c, 1, 59, 127
1, 82799, Note_off_c, 1, 69, 0
1, 82799, Note_off_c, 1, 62, 0
1, 82799, Note_off_c, 1, 59, 0
1, 82800, Note_on_c, 1, 69, 127
1, 82800, Note_on_c, 1, 64, 127
1, 82800, Note_on_c, 1, 61, 127
1, 82859, Note_off_c, 1, 69, 0
1, 82859, Note_off_c, 1, 64, 0
1, 82859, Note_off_c, 1, 61, 0
1, 82860, Note_on_c, 1, 64, 127
1, 82860, Note_on_c, 1, 62, 127
1, 82860, Note_on_c, 1, 59, 127
1, 82889, Note_off_c, 1, 64, 0
1, 82889, Note_off_c, 1, 62, 0
1, 82889, Note_off_c, 1, 59, 0
1, 82890, Note_on_c, 1, 69, 127
1, 82890, Note_on_c, 1, 64, 127
1, 82890, Note_on_c, 1, 61, 127
1, 82919, Note_off_c, 1, 69, 0
1, 82919, Note_off_c, 1, 64, 0
1, 82919, Note_off_c, 1, 61, 0
1, 82920, Note_on_c, 1, 73, 127
1, 82920, Note_on_c, 1, 61, 127
1, 82920, Note_on_c, 1, 57, 127
1, 82920, Note_on_c, 1, 76, 127
1, 82949, Note_off_c, 1, 73, 0
1, 82949, Note_off_c, 1, 76, 0
1, 82950, Note_on_c, 1, 71, 127
1, 82950, Note_on_c, 1, 74, 127
1, 82979, Note_off_c, 1, 61, 0
1, 82979, Note_off_c, 1, 57, 0
1, 82979, Note_off_c, 1, 71, 0
1, 82979, Note_off_c, 1, 74, 0
1, 82980, Note_on_c, 1, 69, 127
1, 82980, Note_on_c, 1, 62, 127
1, 82980, Note_on_c, 1, 59, 127
1, 82980, Note_on_c, 1, 73, 127
1, 83009, Note_off_c, 1, 69, 0
1, 83009, Note_off_c, 1, 73, 0
1, 83010, Note_on_c, 1, 68, 127
1, 83010, Note_on_c, 1, 71, 127
1, 83039, Note_off_c, 1, 62, 0
1, 83039, Note_off_c, 1, 59, 0
1, 83039, Note_off_c, 1, 68, 0
1, 83039, Note_off_c, 1, 71, 0
1, 83040, Note_on_c, 1, 69, 127
1, 83040, Note_on_c, 1, 64, 127
1, 83040, Note_on_c, 1, 61, 127
1, 83099, Note_off_c, 1, 69, 0
1, 83099, Note_off_c, 1, 64, 0
1, 83099, Note_off_c, 1, 61, 0
1, 83100, Note_on_c, 1, 64, 127
1, 83100, Note_on_c, 1, 59, 127
1, 83129, Note_off_c, 1, 59, 0
1, 83130, Note_on_c, 1, 69, 127
1, 83130, Note_on_c, 1, 61, 127
1, 83159, Note_off_c, 1, 64, 0
1, 83159, Note_off_c, 1, 69, 0
1, 83159, Note_off_c, 1, 61, 0
1, 83160, Note_on_c, 1, 74, 127
1, 83160, Note_on_c, 1, 64, 127
1, 83160, Note_on_c, 1, 57, 127
1, 83160, Note_on_c, 1, 71, 127
1, 83189, Note_off_c, 1, 74, 0
1, 83189, Note_off_c, 1, 71, 0
1, 83190, Note_on_c, 1, 73, 127
1, 83190, Note_on_c, 1, 69, 127
1, 83219, Note_off_c, 1, 64, 0
1, 83219, Note_off_c, 1, 57, 0
1, 83219, Note_off_c, 1, 73, 0
1, 83219, Note_off_c, 1, 69, 0
1, 83220, Note_on_c, 1, 71, 127
1, 83220, Note_on_c, 1, 64, 127
1, 83220, Note_on_c, 1, 61, 127
1, 83220, Note_on_c, 1, 68, 127
1, 83249, Note_off_c, 1, 71, 0
1, 83249, Note_off_c, 1, 68, 0
1, 83250, Note_on_c, 1, 69, 127
1, 83250, Note_on_c, 1, 66, 127
1, 83279, Note_off_c, 1, 64, 0
1, 83279, Note_off_c, 1, 61, 0
1, 83279, Note_off_c, 1, 69, 0
1, 83279, Note_off_c, 1, 66, 0
1, 83280, Note_on_c, 1, 71, 127
1, 83280, Note_on_c, 1, 64, 127
1, 83280, Note_on_c, 1, 56, 127
1, 83280, Note_on_c, 1, 68, 127
1, 83339, Note_off_c, 1, 71, 0
1, 83339, Note_off_c, 1, 64, 0
1, 83339, Note_off_c, 1, 56, 0
1, 83339, Note_off_c, 1, 68, 0
1, 83340, Note_on_c, 1, 64, 127
1, 83340, Note_on_c, 1, 54, 127
1, 83369, Note_off_c, 1, 54, 0
1, 83370, Note_on_c, 1, 71, 127
1, 83370, Note_on_c, 1, 69, 127
1, 83370, Note_on_c, 1, 56, 127
1, 83399, Note_off_c, 1, 64, 0
1, 83399, Note_off_c, 1, 71, 0
1, 83399, Note_off_c, 1, 69, 0
1, 83399, Note_off_c, 1, 56, 0
1, 83400, Note_on_c, 1, 76, 127
1, 83400, Note_on_c, 1, 64, 127
1, 83400, Note_on_c, 1, 52, 127
1, 83400, Note_on_c, 1, 73, 127
1, 83429, Note_off_c, 1, 76, 0
1, 83429, Note_off_c, 1, 73, 0
1, 83430, Note_on_c, 1, 74, 127
1, 83430, Note_on_c, 1, 71, 127
1, 83459, Note_off_c, 1, 64, 0
1, 83459, Note_off_c, 1, 52, 0
1, 83459, Note_off_c, 1, 74, 0
1, 83459, Note_off_c, 1, 71, 0
1, 83460, Note_on_c, 1, 73, 127
1, 83460, Note_on_c, 1, 64, 127
1, 83460, Note_on_c, 1, 56, 127
1, 83460, Note_on_c, 1, 69, 127
1, 83489, Note_off_c, 1, 73, 0
1, 83489, Note_off_c, 1, 69, 0
1, 83490, Note_on_c, 1, 71, 127
1, 83490, Note_on_c, 1, 68, 127
1, 83519, Note_off_c, 1, 64, 0
1, 83519, Note_off_c, 1, 56, 0
1, 83519, Note_off_c, 1, 71, 0
1, 83519, Note_off_c, 1, 68, 0
1, 83520, Note_on_c, 1, 73, 127
1, 83520, Note_on_c, 1, 64, 127
1, 83520, Note_on_c, 1, 57, 127
1, 83579, Note_off_c, 1, 73, 0
1, 83579, Note_off_c, 1, 64, 0
1, 83579, Note_off_c, 1, 57, 0
1, 83580, Note_on_c, 1, 71, 127
1, 83580, Note_on_c, 1, 62, 127
1, 83580, Note_on_c, 1, 52, 127
1, 83609, Note_off_c, 1, 71, 0
1, 83609, Note_off_c, 1, 62, 0
1, 83610, Note_on_c, 1, 73, 127
1, 83610, Note_on_c, 1, 64, 127
1, 83639, Note_off_c, 1, 52, 0
1, 83639, Note_off_c, 1, 73, 0
1, 83639, Note_off_c, 1, 64, 0
1, 83640, Note_on_c, 1, 69, 127
1, 83640, Note_on_c, 1, 61, 127
1, 83640, Note_on_c, 1, 45, 127
1, 83669, Note_off_c, 1, 61, 0
1, 83670, Note_on_c, 1, 62, 127
1, 83699, Note_off_c, 1, 69, 0
1, 83699, Note_off_c, 1, 45, 0
1, 83699, Note_off_c, 1, 62, 0
1, 83700, Note_on_c, 1, 73, 127
1, 83700, Note_on_c, 1, 64, 127
1, 83700, Note_on_c, 1, 57, 127
1, 83729, Note_off_c, 1, 64, 0
1, 83730, Note_on_c, 1, 66, 127
1, 83759, Note_off_c, 1, 73, 0
1, 83759, Note_off_c, 1, 57, 0
1, 83759, Note_off_c, 1, 66, 0
1, 83760, Note_on_c, 1, 71, 127
1, 83760, Note_on_c, 1, 68, 127
1, 83760, Note_on_c, 1, 52, 127
1, 83819, Note_off_c, 1, 71, 0
1, 83819, Note_off_c, 1, 68, 0
1, 83819, Note_off_c, 1, 52, 0
1, 83820, Note_on_c, 1, 71, 127
1, 83820, Note_on_c, 1, 69, 127
1, 83820, Note_on_c, 1, 66, 127
1, 83820, Note_on_c, 1, 51, 127
1, 83879, Note_off_c, 1, 71, 0
1, 83879, Note_off_c, 1, 69, 0
1, 83879, Note_off_c, 1, 66, 0
1, 83879, Note_off_c, 1, 51, 0
1, 83880, Note_on_c, 1, 71, 127
1, 83880, Note_on_c, 1, 68, 127
1, 83880, Note_on_c, 1, 64, 127
1, 83880, Note_on_c, 1, 52, 127
1, 83939, Note_off_c, 1, 71, 0
1, 83939, Note_off_c, 1, 68, 0
1, 83939, Note_off_c, 1, 64, 0
1, 83939, Note_off_c, 1, 52, 0
1, 83940, Note_on_c, 1, 71, 127
1, 83940, Note_on_c, 1, 66, 127
1, 83940, Note_on_c, 1, 63, 127
1, 83940, Note_on_c, 1, 54, 127
1, 83999, Note_off_c, 1, 71, 0
1, 83999, Note_off_c, 1, 66, 0
1, 83999, Note_off_c, 1, 63, 0
1, 83999, Note_off_c, 1, 54, 0
1, 84000, Note_on_c, 1, 71, 127
1, 84000, Note_on_c, 1, 64, 127
1, 84000, Note_on_c, 1, 56, 127
1, 84029, Note_off_c, 1, 56, 0
1, 84030, Note_on_c, 1, 54, 127
1, 84059, Note_off_c, 1, 71, 0
1, 84059, Note_off_c, 1, 64, 0
1, 84059, Note_off_c, 1, 54, 0
1, 84060, Note_on_c, 1, 73, 127
1, 84060, Note_on_c, 1, 68, 127
1, 84060, Note_on_c, 1, 64, 127
1, 84060, Note_on_c, 1, 52, 127
1, 84089, Note_off_c, 1, 73, 0
1, 84089, Note_off_c, 1, 68, 0
1, 84089, Note_off_c, 1, 52, 0
1, 84090, Note_on_c, 1, 75, 127
1, 84090, Note_on_c, 1, 66, 127
1, 84090, Note_on_c, 1, 51, 127
1, 84119, Note_off_c, 1, 64, 0
1, 84119, Note_off_c, 1, 75, 0
1, 84119, Note_off_c, 1, 66, 0
1, 84119, Note_off_c, 1, 51, 0
1, 84120, Note_on_c, 1, 76, 127
1, 84120, Note_on_c, 1, 68, 127
1, 84120, Note_on_c, 1, 64, 127
1, 84120, Note_on_c, 1, 49, 127
1, 84149, Note_off_c, 1, 76, 0
1, 84150, Note_on_c, 1, 78, 127
1, 84179, Note_off_c, 1, 68, 0
1, 84179, Note_off_c, 1, 64, 0
1, 84179, Note_off_c, 1, 49, 0
1, 84179, Note_off_c, 1, 78, 0
1, 84180, Note_on_c, 1, 80, 127
1, 84180, Note_on_c, 1, 68, 127
1, 84180, Note_on_c, 1, 61, 127
1, 84180, Note_on_c, 1, 52, 127
1, 84209, Note_off_c, 1, 80, 0
1, 84210, Note_on_c, 1, 76, 127
1, 84239, Note_off_c, 1, 68, 0
1, 84239, Note_off_c, 1, 61, 0
1, 84239, Note_off_c, 1, 52, 0
1, 84239, Note_off_c, 1, 76, 0
1, 84240, Note_on_c, 1, 69, 127
1, 84240, Note_on_c, 1, 68, 127
1, 84240, Note_on_c, 1, 61, 127
1, 84240, Note_on_c, 1, 54, 127
1, 84269, Note_off_c, 1, 54, 0
1, 84270, Note_on_c, 1, 52, 127
1, 84299, Note_off_c, 1, 69, 0
1, 84299, Note_off_c, 1, 68, 0
1, 84299, Note_off_c, 1, 61, 0
1, 84299, Note_off_c, 1, 52, 0
1, 84300, Note_on_c, 1, 71, 127
1, 84300, Note_on_c, 1, 66, 127
1, 84300, Note_on_c, 1, 54, 127
1, 84300, Note_on_c, 1, 51, 127
1, 84300, Note_on_c, 1, 69, 127
1, 84329, Note_off_c, 1, 71, 0
1, 84329, Note_off_c, 1, 66, 0
1, 84329, Note_off_c, 1, 51, 0
1, 84330, Note_on_c, 1, 73, 127
1, 84330, Note_on_c, 1, 64, 127
1, 84330, Note_on_c, 1, 49, 127
1, 84359, Note_off_c, 1, 54, 0
1, 84359, Note_off_c, 1, 69, 0
1, 84359, Note_off_c, 1, 73, 0
1, 84359, Note_off_c, 1, 64, 0
1, 84359, Note_off_c, 1, 49, 0
1, 84360, Note_on_c, 1, 75, 127
1, 84360, Note_on_c, 1, 66, 127
1, 84360, Note_on_c, 1, 59, 127
1, 84360, Note_on_c, 1, 47, 127
1, 84389, Note_off_c, 1, 75, 0
1, 84390, Note_on_c, 1, 76, 127
1, 84419, Note_off_c, 1, 66, 0
1, 84419, Note_off_c, 1, 59, 0
1, 84419, Note_off_c, 1, 47, 0
1, 84419, Note_off_c, 1, 76, 0
1, 84420, Note_on_c, 1, 78, 127
1, 84420, Note_on_c, 1, 66, 127
1, 84420, Note_on_c, 1, 59, 127
1, 84420, Note_on_c, 1, 57, 127
1, 84449, Note_off_c, 1, 78, 0
1, 84450, Note_on_c, 1, 75, 127
1, 84479, Note_off_c, 1, 66, 0
1, 84479, Note_off_c, 1, 59, 0
1, 84479, Note_off_c, 1, 57, 0
1, 84479, Note_off_c, 1, 75, 0
1, 84480, Note_on_c, 1, 76, 127
1, 84480, Note_on_c, 1, 71, 127
1, 84480, Note_on_c, 1, 59, 127
1, 84480, Note_on_c, 1, 56, 127
1, 84539, Note_off_c, 1, 76, 0
1, 84539, Note_off_c, 1, 71, 0
1, 84539, Note_off_c, 1, 59, 0
1, 84539, Note_off_c, 1, 56, 0
1, 84540, Note_on_c, 1, 71, 127
1, 84540, Note_on_c, 1, 68, 127
1, 84540, Note_on_c, 1, 59, 127
1, 84540, Note_on_c, 1, 52, 127
1, 84599, Note_off_c, 1, 71, 0
1, 84599, Note_off_c, 1, 68, 0
1, 84599, Note_off_c, 1, 59, 0
1, 84599, Note_off_c, 1, 52, 0
1, 84600, Note_on_c, 1, 68, 127
1, 84600, Note_on_c, 1, 64, 127
1, 84600, Note_on_c, 1, 59, 127
1, 84659, Note_off_c, 1, 68, 0
1, 84659, Note_off_c, 1, 64, 0
1, 84659, Note_off_c, 1, 59, 0
1, 84660, Note_on_c, 1, 66, 127
1, 84660, Note_on_c, 1, 63, 127
1, 84660, Note_on_c, 1, 57, 127
1, 84660, Note_on_c, 1, 47, 127
1, 84689, Note_off_c, 1, 66, 0
1, 84690, Note_on_c, 1, 64, 127
1, 84719, Note_off_c, 1, 63, 0
1, 84719, Note_off_c, 1, 57, 0
1, 84719, Note_off_c, 1, 47, 0
1, 84719, Note_off_c, 1, 64, 0
1, 84720, Note_on_c, 1, 64, 127
1, 84720, Note_on_c, 1, 59, 127
1, 84720, Note_on_c, 1, 56, 127
1, 84720, Note_on_c, 1, 52, 127
1, 84779, Note_off_c, 1, 52, 0
1, 84780, Note_on_c, 1, 51, 127
1, 84809, Note_off_c, 1, 51, 0
1, 84810, Note_on_c, 1, 49, 127
1, 84839, Note_off_c, 1, 64, 0
1, 84839, Note_off_c, 1, 49, 0
1, 84840, Note_on_c, 1, 47, 127
1, 84869, Note_off_c, 1, 47, 0
1, 84870, Note_on_c, 1, 66, 127
1, 84870, Note_on_c, 1, 63, 127
1, 84870, Note_on_c, 1, 45, 127
1, 84899, Note_off_c, 1, 59, 0
1, 84899, Note_off_c, 1, 56, 0
1, 84899, Note_off_c, 1, 66, 0
1, 84899, Note_off_c, 1, 63, 0
1, 84899, Note_off_c, 1, 45, 0
1, 84900, Note_on_c, 1, 68, 127
1, 84900, Note_on_c, 1, 64, 127
1, 84900, Note_on_c, 1, 59, 127
1, 84900, Note_on_c, 1, 44, 127
1, 84929, Note_off_c, 1, 68, 0
1, 84929, Note_off_c, 1, 64, 0
1, 84929, Note_off_c, 1, 44, 0
1, 84930, Note_on_c, 1, 69, 127
1, 84930, Note_on_c, 1, 66, 127
1, 84930, Note_on_c, 1, 42, 127
1, 84959, Note_off_c, 1, 59, 0
1, 84959, Note_off_c, 1, 69, 0
1, 84959, Note_off_c, 1, 66, 0
1, 84959, Note_off_c, 1, 42, 0
1, 84960, Note_on_c, 1, 71, 127
1, 84960, Note_on_c, 1, 68, 127
1, 84960, Note_on_c, 1, 64, 127
1, 84960, Note_on_c, 1, 40, 127
1, 84989, Note_off_c, 1, 64, 0
1, 84990, Note_on_c, 1, 62, 127
1, 85019, Note_off_c, 1, 71, 0
1, 85019, Note_off_c, 1, 68, 0
1, 85019, Note_off_c, 1, 40, 0
1, 85019, Note_off_c, 1, 62, 0
1, 85020, Note_on_c, 1, 73, 127
1, 85020, Note_on_c, 1, 69, 127
1, 85020, Note_on_c, 1, 61, 127
1, 85020, Note_on_c, 1, 40, 127
1, 85049, Note_off_c, 1, 61, 0
1, 85050, Note_on_c, 1, 62, 127
1, 85079, Note_off_c, 1, 73, 0
1, 85079, Note_off_c, 1, 69, 0
1, 85079, Note_off_c, 1, 40, 0
1, 85079, Note_off_c, 1, 62, 0
1, 85080, Note_on_c, 1, 71, 127
1, 85080, Note_on_c, 1, 68, 127
1, 85080, Note_on_c, 1, 64, 127
1, 85080, Note_on_c, 1, 40, 127
1, 85109, Note_off_c, 1, 64, 0
1, 85110, Note_on_c, 1, 66, 127
1, 85139, Note_off_c, 1, 71, 0
1, 85139, Note_off_c, 1, 68, 0
1, 85139, Note_off_c, 1, 40, 0
1, 85139, Note_off_c, 1, 66, 0
1, 85140, Note_on_c, 1, 69, 127
1, 85140, Note_on_c, 1, 66, 127
1, 85140, Note_on_c, 1, 64, 127
1, 85140, Note_on_c, 1, 40, 127
1, 85169, Note_off_c, 1, 64, 0
1, 85199, Note_off_c, 1, 69, 0
1, 85199, Note_off_c, 1, 66, 0
1, 85199, Note_off_c, 1, 40, 0
1, 85200, Note_on_c, 1, 71, 127
1, 85200, Note_on_c, 1, 68, 127
1, 85200, Note_on_c, 1, 64, 127
1, 85200, Note_on_c, 1, 40, 127
1, 85259, Note_off_c, 1, 71, 0
1, 85259, Note_off_c, 1, 68, 0
1, 85259, Note_off_c, 1, 64, 0
1, 85259, Note_off_c, 1, 40, 0
1, 85260, Note_on_c, 1, 69, 127
1, 85260, Note_on_c, 1, 66, 127
1, 85260, Note_on_c, 1, 59, 127
1, 85260, Note_on_c, 1, 40, 127
1, 85289, Note_off_c, 1, 69, 0
1, 85289, Note_off_c, 1, 66, 0
1, 85290, Note_on_c, 1, 71, 127
1, 85290, Note_on_c, 1, 68, 127
1, 85319, Note_off_c, 1, 59, 0
1, 85319, Note_off_c, 1, 40, 0
1, 85319, Note_off_c, 1, 71, 0
1, 85319, Note_off_c, 1, 68, 0
1, 85320, Note_on_c, 1, 68, 127
1, 85320, Note_on_c, 1, 64, 127
1, 85320, Note_on_c, 1, 59, 127
1, 85320, Note_on_c, 1, 40, 127
1, 85349, Note_off_c, 1, 68, 0
1, 85350, Note_on_c, 1, 69, 127
1, 85379, Note_off_c, 1, 64, 0
1, 85379, Note_off_c, 1, 59, 0
1, 85379, Note_off_c, 1, 40, 0
1, 85379, Note_off_c, 1, 69, 0
1, 85380, Note_on_c, 1, 71, 127
1, 85380, Note_on_c, 1, 68, 127
1, 85380, Note_on_c, 1, 64, 127
1, 85380, Note_on_c, 1, 40, 127
1, 85409, Note_off_c, 1, 71, 0
1, 85410, Note_on_c, 1, 73, 127
1, 85439, Note_off_c, 1, 68, 0
1, 85439, Note_off_c, 1, 64, 0
1, 85439, Note_off_c, 1, 40, 0
1, 85439, Note_off_c, 1, 73, 0
1, 85440, Note_on_c, 1, 74, 127
1, 85440, Note_on_c, 1, 69, 127
1, 85440, Note_on_c, 1, 62, 127
1, 85440, Note_on_c, 1, 42, 127
1, 85499, Note_off_c, 1, 74, 0
1, 85499, Note_off_c, 1, 69, 0
1, 85499, Note_off_c, 1, 62, 0
1, 85499, Note_off_c, 1, 42, 0
1, 85500, Note_on_c, 1, 69, 127
1, 85500, Note_on_c, 1, 66, 127
1, 85500, Note_on_c, 1, 62, 127
1, 85500, Note_on_c, 1, 42, 127
1, 85529, Note_off_c, 1, 69, 0
1, 85529, Note_off_c, 1, 66, 0
1, 85530, Note_on_c, 1, 74, 127
1, 85530, Note_on_c, 1, 67, 127
1, 85559, Note_off_c, 1, 62, 0
1, 85559, Note_off_c, 1, 42, 0
1, 85559, Note_off_c, 1, 74, 0
1, 85559, Note_off_c, 1, 67, 0
1, 85560, Note_on_c, 1, 78, 127
1, 85560, Note_on_c, 1, 69, 127
1, 85560, Note_on_c, 1, 62, 127
1, 85560, Note_on_c, 1, 42, 127
1, 85560, Note_on_c, 1, 74, 127
1, 85589, Note_off_c, 1, 78, 0
1, 85589, Note_off_c, 1, 62, 0
1, 85589, Note_off_c, 1, 74, 0
1, 85590, Note_on_c, 1, 76, 127
1, 85590, Note_on_c, 1, 61, 127
1, 85590, Note_on_c, 1, 73, 127
1, 85619, Note_off_c, 1, 69, 0
1, 85619, Note_off_c, 1, 42, 0
1, 85619, Note_off_c, 1, 76, 0
1, 85619, Note_off_c, 1, 61, 0
1, 85619, Note_off_c, 1, 73, 0
1, 85620, Note_on_c, 1, 74, 127
1, 85620, Note_on_c, 1, 69, 127
1, 85620, Note_on_c, 1, 62, 127
1, 85620, Note_on_c, 1, 42, 127
1, 85620, Note_on_c, 1, 71, 127
1, 85649, Note_off_c, 1, 74, 0
1, 85649, Note_off_c, 1, 62, 0
1, 85649, Note_off_c, 1, 71, 0
1, 85650, Note_on_c, 1, 73, 127
1, 85650, Note_on_c, 1, 64, 127
1, 85679, Note_off_c, 1, 69, 0
1, 85679, Note_off_c, 1, 42, 0
1, 85679, Note_off_c, 1, 73, 0
1, 85679, Note_off_c, 1, 64, 0
1, 85680, Note_on_c, 1, 74, 127
1, 85680, Note_on_c, 1, 69, 127
1, 85680, Note_on_c, 1, 66, 127
1, 85680, Note_on_c, 1, 42, 127
1, 85739, Note_off_c, 1, 74, 0
1, 85739, Note_off_c, 1, 69, 0
1, 85739, Note_off_c, 1, 66, 0
1, 85739, Note_off_c, 1, 42, 0
1, 85740, Note_on_c, 1, 69, 127
1, 85740, Note_on_c, 1, 66, 127
1, 85740, Note_on_c, 1, 62, 127
1, 85740, Note_on_c, 1, 42, 127
1, 85769, Note_off_c, 1, 69, 0
1, 85769, Note_off_c, 1, 66, 0
1, 85770, Note_on_c, 1, 74, 127
1, 85770, Note_on_c, 1, 67, 127
1, 85799, Note_off_c, 1, 62, 0
1, 85799, Note_off_c, 1, 42, 0
1, 85799, Note_off_c, 1, 74, 0
1, 85799, Note_off_c, 1, 67, 0
1, 85800, Note_on_c, 1, 78, 127
1, 85800, Note_on_c, 1, 69, 127
1, 85800, Note_on_c, 1, 62, 127
1, 85800, Note_on_c, 1, 42, 127
1, 85800, Note_on_c, 1, 74, 127
1, 85829, Note_off_c, 1, 78, 0
1, 85829, Note_off_c, 1, 62, 0
1, 85829, Note_off_c, 1, 74, 0
1, 85830, Note_on_c, 1, 76, 127
1, 85830, Note_on_c, 1, 61, 127
1, 85830, Note_on_c, 1, 73, 127
1, 85859, Note_off_c, 1, 69, 0
1, 85859, Note_off_c, 1, 42, 0
1, 85859, Note_off_c, 1, 76, 0
1, 85859, Note_off_c, 1, 61, 0
1, 85859, Note_off_c, 1, 73, 0
1, 85860, Note_on_c, 1, 74, 127
1, 85860, Note_on_c, 1, 69, 127
1, 85860, Note_on_c, 1, 59, 127
1, 85860, Note_on_c, 1, 42, 127
1, 85860, Note_on_c, 1, 71, 127
1, 85889, Note_off_c, 1, 74, 0
1, 85889, Note_off_c, 1, 59, 0
1, 85889, Note_off_c, 1, 71, 0
1, 85890, Note_on_c, 1, 73, 127
1, 85890, Note_on_c, 1, 57, 127
1, 85919, Note_off_c, 1, 69, 0
1, 85919, Note_off_c, 1, 42, 0
1, 85919, Note_off_c, 1, 73, 0
1, 85919, Note_off_c, 1, 57, 0
1, 85920, Note_on_c, 1, 74, 127
1, 85920, Note_on_c, 1, 71, 127
1, 85920, Note_on_c, 1, 64, 127
1, 85920, Note_on_c, 1, 44, 127
1, 85979, Note_off_c, 1, 74, 0
1, 85979, Note_off_c, 1, 71, 0
1, 85979, Note_off_c, 1, 64, 0
1, 85979, Note_off_c, 1, 44, 0
1, 85980, Note_on_c, 1, 64, 127
1, 85980, Note_on_c, 1, 68, 127
1, 85980, Note_on_c, 1, 44, 127
1, 86009, Note_off_c, 1, 68, 0
1, 86010, Note_on_c, 1, 73, 127
1, 86010, Note_on_c, 1, 69, 127
1, 86039, Note_off_c, 1, 64, 0
1, 86039, Note_off_c, 1, 44, 0
1, 86039, Note_off_c, 1, 73, 0
1, 86039, Note_off_c, 1, 69, 0
1, 86040, Note_on_c, 1, 74, 127
1, 86040, Note_on_c, 1, 71, 127
1, 86040, Note_on_c, 1, 64, 127
1, 86040, Note_on_c, 1, 44, 127
1, 86069, Note_off_c, 1, 74, 0
1, 86069, Note_off_c, 1, 64, 0
1, 86070, Note_on_c, 1, 73, 127
1, 86070, Note_on_c, 1, 66, 127
1, 86099, Note_off_c, 1, 71, 0
1, 86099, Note_off_c, 1, 44, 0
1, 86099, Note_off_c, 1, 73, 0
1, 86099, Note_off_c, 1, 66, 0
1, 86100, Note_on_c, 1, 71, 127
1, 86100, Note_on_c, 1, 68, 127
1, 86100, Note_on_c, 1, 44, 127
1, 86129, Note_off_c, 1, 68, 0
1, 86130, Note_on_c, 1, 69, 127
1, 86130, Note_on_c, 1, 66, 127
1, 86159, Note_off_c, 1, 71, 0
1, 86159, Note_off_c, 1, 44, 0
1, 86159, Note_off_c, 1, 69, 0
1, 86159, Note_off_c, 1, 66, 0
1, 86160, Note_on_c, 1, 71, 127
1, 86160, Note_on_c, 1, 64, 127
1, 86160, Note_on_c, 1, 44, 127
1, 86219, Note_off_c, 1, 71, 0
1, 86219, Note_off_c, 1, 64, 0
1, 86219, Note_off_c, 1, 44, 0
1, 86220, Note_on_c, 1, 64, 127
1, 86220, Note_on_c, 1, 68, 127
1, 86220, Note_on_c, 1, 44, 127
1, 86249, Note_off_c, 1, 68, 0
1, 86250, Note_on_c, 1, 74, 127
1, 86250, Note_on_c, 1, 69, 127
1, 86279, Note_off_c, 1, 64, 0
1, 86279, Note_off_c, 1, 44, 0
1, 86279, Note_off_c, 1, 74, 0
1, 86279, Note_off_c, 1, 69, 0
1, 86280, Note_on_c, 1, 76, 127
1, 86280, Note_on_c, 1, 71, 127
1, 86280, Note_on_c, 1, 64, 127
1, 86280, Note_on_c, 1, 44, 127
1, 86309, Note_off_c, 1, 76, 0
1, 86310, Note_on_c, 1, 74, 127
1, 86339, Note_off_c, 1, 71, 0
1, 86339, Note_off_c, 1, 64, 0
1, 86339, Note_off_c, 1, 44, 0
1, 86339, Note_off_c, 1, 74, 0
1, 86340, Note_on_c, 1, 73, 127
1, 86340, Note_on_c, 1, 71, 127
1, 86340, Note_on_c, 1, 64, 127
1, 86340, Note_on_c, 1, 44, 127
1, 86369, Note_off_c, 1, 73, 0
1, 86399, Note_off_c, 1, 71, 0
1, 86399, Note_off_c, 1, 64, 0
1, 86399, Note_off_c, 1, 44, 0
1, 86400, Note_on_c, 1, 74, 127
1, 86400, Note_on_c, 1, 69, 127
1, 86400, Note_on_c, 1, 64, 127
1, 86400, Note_on_c, 1, 45, 127
1, 86429, Note_off_c, 1, 74, 0
1, 86430, Note_on_c, 1, 73, 127
1, 86459, Note_off_c, 1, 69, 0
1, 86459, Note_off_c, 1, 64, 0
1, 86459, Note_off_c, 1, 45, 0
1, 86459, Note_off_c, 1, 73, 0
1, 86460, Note_on_c, 1, 71, 127
1, 86460, Note_on_c, 1, 64, 127
1, 86460, Note_on_c, 1, 49, 127
1, 86489, Note_off_c, 1, 71, 0
1, 86490, Note_on_c, 1, 69, 127
1, 86519, Note_off_c, 1, 64, 0
1, 86519, Note_off_c, 1, 49, 0
1, 86519, Note_off_c, 1, 69, 0
1, 86520, Note_on_c, 1, 71, 127
1, 86520, Note_on_c, 1, 66, 127
1, 86520, Note_on_c, 1, 62, 127
1, 86520, Note_on_c, 1, 50, 127
1, 86579, Note_off_c, 1, 71, 0
1, 86579, Note_off_c, 1, 66, 0
1, 86579, Note_off_c, 1, 62, 0
1, 86579, Note_off_c, 1, 50, 0
1, 86580, Note_on_c, 1, 68, 127
1, 86580, Note_on_c, 1, 64, 127
1, 86580, Note_on_c, 1, 59, 127
1, 86580, Note_on_c, 1, 52, 127
1, 86639, Note_off_c, 1, 68, 0
1, 86639, Note_off_c, 1, 64, 0
1, 86639, Note_off_c, 1, 59, 0
1, 86639, Note_off_c, 1, 52, 0
1, 86640, Note_on_c, 1, 69, 127
1, 86640, Note_on_c, 1, 64, 127
1, 86640, Note_on_c, 1, 61, 127
1, 86640, Note_on_c, 1, 45, 127
1, 86699, Note_off_c, 1, 69, 0
1, 86699, Note_off_c, 1, 64, 0
1, 86699, Note_off_c, 1, 61, 0
1, 86699, Note_off_c, 1, 45, 0
1, 86700, Note_on_c, 1, 73, 127
1, 86700, Note_on_c, 1, 61, 127
1, 86700, Note_on_c, 1, 49, 127
1, 86729, Note_off_c, 1, 73, 0
1, 86729, Note_off_c, 1, 61, 0
1, 86729, Note_off_c, 1, 49, 0
1, 86730, Note_on_c, 1, 74, 127
1, 86730, Note_on_c, 1, 62, 127
1, 86730, Note_on_c, 1, 50, 127
1, 86759, Note_off_c, 1, 74, 0
1, 86759, Note_off_c, 1, 62, 0
1, 86759, Note_off_c, 1, 50, 0
1, 86760, Note_on_c, 1, 76, 127
1, 86760, Note_on_c, 1, 64, 127
1, 86760, Note_on_c, 1, 52, 127
1, 86819, Note_off_c, 1, 76, 0
1, 86819, Note_off_c, 1, 64, 0
1, 86819, Note_off_c, 1, 52, 0
1, 86820, Note_on_c, 1, 78, 127
1, 86820, Note_on_c, 1, 66, 127
1, 86820, Note_on_c, 1, 54, 127
1, 86849, Note_off_c, 1, 78, 0
1, 86849, Note_off_c, 1, 66, 0
1, 86849, Note_off_c, 1, 54, 0
1, 86850, Note_on_c, 1, 80, 127
1, 86850, Note_on_c, 1, 68, 127
1, 86850, Note_on_c, 1, 56, 127
1, 86879, Note_off_c, 1, 80, 0
1, 86879, Note_off_c, 1, 68, 0
1, 86879, Note_off_c, 1, 56, 0
1, 86880, Note_on_c, 1, 81, 127
1, 86880, Note_on_c, 1, 69, 127
1, 86880, Note_on_c, 1, 57, 127
1, 86939, Note_off_c, 1, 81, 0
1, 86939, Note_off_c, 1, 69, 0
1, 86939, Note_off_c, 1, 57, 0
1, 86940, Note_on_c, 1, 69, 127
1, 86940, Note_on_c, 1, 64, 127
1, 86940, Note_on_c, 1, 49, 127
1, 86969, Note_off_c, 1, 49, 0
1, 86970, Note_on_c, 1, 50, 127
1, 86999, Note_off_c, 1, 69, 0
1, 86999, Note_off_c, 1, 64, 0
1, 86999, Note_off_c, 1, 50, 0
1, 87000, Note_on_c, 1, 64, 127
1, 87000, Note_on_c, 1, 69, 127
1, 87000, Note_on_c, 1, 61, 127
1, 87000, Note_on_c, 1, 52, 127
1, 87059, Note_off_c, 1, 64, 0
1, 87059, Note_off_c, 1, 69, 0
1, 87059, Note_off_c, 1, 61, 0
1, 87059, Note_off_c, 1, 52, 0
1, 87060, Note_on_c, 1, 68, 127
1, 87060, Note_on_c, 1, 64, 127
1, 87060, Note_on_c, 1, 59, 127
1, 87060, Note_on_c, 1, 40, 127
1, 87119, Note_off_c, 1, 68, 0
1, 87119, Note_off_c, 1, 64, 0
1, 87119, Note_off_c, 1, 59, 0
1, 87119, Note_off_c, 1, 40, 0
1, 87120, Note_on_c, 1, 69, 127
1, 87120, Note_on_c, 1, 64, 127
1, 87120, Note_on_c, 1, 61, 127
1, 87120, Note_on_c, 1, 45, 127
1, 87179, Note_off_c, 1, 45, 0
1, 87180, Note_on_c, 1, 49, 127
1, 87209, Note_off_c, 1, 49, 0
1, 87210, Note_on_c, 1, 52, 127
1, 87239, Note_off_c, 1, 52, 0
1, 87240, Note_on_c, 1, 57, 127
1, 87299, Note_off_c, 1, 69, 0
1, 87299, Note_off_c, 1, 64, 0
1, 87299, Note_off_c, 1, 61, 0
1, 87299, Note_off_c, 1, 57, 0
1, 87300, Note_on_c, 1, 64, 127
1, 87300, Note_on_c, 1, 61, 127
1, 87300, Note_on_c, 1, 52, 127
1, 87300, Note_on_c, 1, 57, 127
1, 87329, Note_off_c, 1, 61, 0
1, 87329, Note_off_c, 1, 57, 0
1, 87330, Note_on_c, 1, 62, 127
1, 87330, Note_on_c, 1, 59, 127
1, 87359, Note_off_c, 1, 64, 0
1, 87359, Note_off_c, 1, 52, 0
1, 87359, Note_off_c, 1, 62, 0
1, 87359, Note_off_c, 1, 59, 0
1, 87360, Note_on_c, 1, 69, 127
1, 87360, Note_on_c, 1, 64, 127
1, 87360, Note_on_c, 1, 57, 127
1, 87360, Note_on_c, 1, 61, 127
1, 87419, Note_off_c, 1, 69, 0
1, 87419, Note_off_c, 1, 64, 0
1, 87419, Note_off_c, 1, 57, 0
1, 87419, Note_off_c, 1, 61, 0
1, 87420, Note_on_c, 1, 69, 127
1, 87420, Note_on_c, 1, 66, 127
1, 87420, Note_on_c, 1, 57, 127
1, 87420, Note_on_c, 1, 62, 127
1, 87479, Note_off_c, 1, 69, 0
1, 87479, Note_off_c, 1, 66, 0
1, 87479, Note_off_c, 1, 57, 0
1, 87479, Note_off_c, 1, 62, 0
1, 87480, Note_on_c, 1, 69, 127
1, 87480, Note_on_c, 1, 64, 127
1, 87480, Note_on_c, 1, 57, 127
1, 87480, Note_on_c, 1, 61, 127
1, 87539, Note_off_c, 1, 69, 0
1, 87539, Note_off_c, 1, 64, 0
1, 87539, Note_off_c, 1, 57, 0
1, 87539, Note_off_c, 1, 61, 0
1, 87540, Note_on_c, 1, 69, 127
1, 87540, Note_on_c, 1, 62, 127
1, 87540, Note_on_c, 1, 57, 127
1, 87540, Note_on_c, 1, 59, 127
1, 87599, Note_off_c, 1, 69, 0
1, 87599, Note_off_c, 1, 62, 0
1, 87599, Note_off_c, 1, 57, 0
1, 87599, Note_off_c, 1, 59, 0
1, 87600, Note_on_c, 1, 69, 127
1, 87600, Note_on_c, 1, 64, 127
1, 87600, Note_on_c, 1, 57, 127
1, 87600, Note_on_c, 1, 61, 127
1, 87659, Note_off_c, 1, 69, 0
1, 87659, Note_off_c, 1, 64, 0
1, 87659, Note_off_c, 1, 57, 0
1, 87659, Note_off_c, 1, 61, 0
1, 87660, Note_on_c, 1, 64, 127
1, 87660, Note_on_c, 1, 62, 127
1, 87660, Note_on_c, 1, 52, 127
1, 87660, Note_on_c, 1, 59, 127
1, 87689, Note_off_c, 1, 64, 0
1, 87689, Note_off_c, 1, 62, 0
1, 87689, Note_off_c, 1, 52, 0
1, 87689, Note_off_c, 1, 59, 0
1, 87690, Note_on_c, 1, 69, 127
1, 87690, Note_on_c, 1, 64, 127
1, 87690, Note_on_c, 1, 57, 127
1, 87690, Note_on_c, 1, 61, 127
1, 87719, Note_off_c, 1, 69, 0
1, 87719, Note_off_c, 1, 64, 0
1, 87719, Note_off_c, 1, 57, 0
1, 87719, Note_off_c, 1, 61, 0
1, 87720, Note_on_c, 1, 73, 127
1, 87720, Note_on_c, 1, 61, 127
1, 87720, Note_on_c, 1, 57, 127
1, 87749, Note_off_c, 1, 73, 0
1, 87750, Note_on_c, 1, 71, 127
1, 87750, Note_on_c, 1, 59, 127
1, 87779, Note_off_c, 1, 61, 0
1, 87779, Note_off_c, 1, 57, 0
1, 87779, Note_off_c, 1, 71, 0
1, 87779, Note_off_c, 1, 59, 0
1, 87780, Note_on_c, 1, 69, 127
1, 87780, Note_on_c, 1, 62, 127
1, 87780, Note_on_c, 1, 57, 127
1, 87780, Note_on_c, 1, 59, 127
1, 87809, Note_off_c, 1, 69, 0
1, 87809, Note_off_c, 1, 57, 0
1, 87810, Note_on_c, 1, 68, 127
1, 87810, Note_on_c, 1, 56, 127
1, 87839, Note_off_c, 1, 62, 0
1, 87839, Note_off_c, 1, 59, 0
1, 87839, Note_off_c, 1, 68, 0
1, 87839, Note_off_c, 1, 56, 0
1, 87840, Note_on_c, 1, 69, 127
1, 87840, Note_on_c, 1, 64, 127
1, 87840, Note_on_c, 1, 57, 127
1, 87840, Note_on_c, 1, 61, 127
1, 87899, Note_off_c, 1, 69, 0
1, 87899, Note_off_c, 1, 64, 0
1, 87899, Note_off_c, 1, 57, 0
1, 87899, Note_off_c, 1, 61, 0
1, 87900, Note_on_c, 1, 64, 127
1, 87900, Note_on_c, 1, 52, 127
1, 87900, Note_on_c, 1, 59, 127
1, 87929, Note_off_c, 1, 52, 0
1, 87929, Note_off_c, 1, 59, 0
1, 87930, Note_on_c, 1, 69, 127
1, 87930, Note_on_c, 1, 57, 127
1, 87930, Note_on_c, 1, 61, 127
1, 87959, Note_off_c, 1, 64, 0
1, 87959, Note_off_c, 1, 69, 0
1, 87959, Note_off_c, 1, 57, 0
1, 87959, Note_off_c, 1, 61, 0
1, 87960, Note_on_c, 1, 74, 127
1, 87960, Note_on_c, 1, 64, 127
1, 87960, Note_on_c, 1, 62, 127
1, 87960, Note_on_c, 1, 57, 127
1, 87989, Note_off_c, 1, 74, 0
1, 87989, Note_off_c, 1, 62, 0
1, 87990, Note_on_c, 1, 73, 127
1, 87990, Note_on_c, 1, 61, 127
1, 88019, Note_off_c, 1, 64, 0
1, 88019, Note_off_c, 1, 57, 0
1, 88019, Note_off_c, 1, 73, 0
1, 88019, Note_off_c, 1, 61, 0
1, 88020, Note_on_c, 1, 71, 127
1, 88020, Note_on_c, 1, 64, 127
1, 88020, Note_on_c, 1, 59, 127
1, 88020, Note_on_c, 1, 61, 127
1, 88049, Note_off_c, 1, 71, 0
1, 88049, Note_off_c, 1, 59, 0
1, 88050, Note_on_c, 1, 69, 127
1, 88050, Note_on_c, 1, 57, 127
1, 88079, Note_off_c, 1, 64, 0
1, 88079, Note_off_c, 1, 61, 0
1, 88079, Note_off_c, 1, 69, 0
1, 88079, Note_off_c, 1, 57, 0
1, 88080, Note_on_c, 1, 71, 127
1, 88080, Note_on_c, 1, 64, 127
1, 88080, Note_on_c, 1, 59, 127
1, 88080, Note_on_c, 1, 56, 127
1, 88139, Note_off_c, 1, 71, 0
1, 88139, Note_off_c, 1, 64, 0
1, 88139, Note_off_c, 1, 59, 0
1, 88139, Note_off_c, 1, 56, 0
1, 88140, Note_on_c, 1, 64, 127
1, 88140, Note_on_c, 1, 52, 127
1, 88140, Note_on_c, 1, 54, 127
1, 88169, Note_off_c, 1, 52, 0
1, 88169, Note_off_c, 1, 54, 0
1, 88170, Note_on_c, 1, 71, 127
1, 88170, Note_on_c, 1, 59, 127
1, 88170, Note_on_c, 1, 56, 127
1, 88199, Note_off_c, 1, 64, 0
1, 88199, Note_off_c, 1, 71, 0
1, 88199, Note_off_c, 1, 59, 0
1, 88199, Note_off_c, 1, 56, 0
1, 88200, Note_on_c, 1, 76, 127
1, 88200, Note_on_c, 1, 64, 127
1, 88200, Note_on_c, 1, 52, 127
1, 88229, Note_off_c, 1, 76, 0
1, 88230, Note_on_c, 1, 74, 127
1, 88230, Note_on_c, 1, 62, 127
1, 88259, Note_off_c, 1, 64, 0
1, 88259, Note_off_c, 1, 52, 0
1, 88259, Note_off_c, 1, 74, 0
1, 88259, Note_off_c, 1, 62, 0
1, 88260, Note_on_c, 1, 73, 127
1, 88260, Note_on_c, 1, 64, 127
1, 88260, Note_on_c, 1, 61, 127
1, 88260, Note_on_c, 1, 56, 127
1, 88289, Note_off_c, 1, 73, 0
1, 88289, Note_off_c, 1, 61, 0
1, 88290, Note_on_c, 1, 71, 127
1, 88290, Note_on_c, 1, 59, 127
1, 88319, Note_off_c, 1, 64, 0
1, 88319, Note_off_c, 1, 56, 0
1, 88319, Note_off_c, 1, 71, 0
1, 88319, Note_off_c, 1, 59, 0
1, 88320, Note_on_c, 1, 73, 127
1, 88320, Note_on_c, 1, 64, 127
1, 88320, Note_on_c, 1, 61, 127
1, 88320, Note_on_c, 1, 57, 127
1, 88379, Note_off_c, 1, 73, 0
1, 88379, Note_off_c, 1, 64, 0
1, 88379, Note_off_c, 1, 61, 0
1, 88379, Note_off_c, 1, 57, 0
1, 88380, Note_on_c, 1, 71, 127
1, 88380, Note_on_c, 1, 64, 127
1, 88380, Note_on_c, 1, 59, 127
1, 88380, Note_on_c, 1, 52, 127
1, 88409, Note_off_c, 1, 71, 0
1, 88409, Note_off_c, 1, 59, 0
1, 88410, Note_on_c, 1, 73, 127
1, 88410, Note_on_c, 1, 61, 127
1, 88439, Note_off_c, 1, 64, 0
1, 88439, Note_off_c, 1, 52, 0
1, 88439, Note_off_c, 1, 73, 0
1, 88439, Note_off_c, 1, 61, 0
1, 88440, Note_on_c, 1, 69, 127
1, 88440, Note_on_c, 1, 64, 127
1, 88440, Note_on_c, 1, 57, 127
1, 88440, Note_on_c, 1, 49, 127
1, 88469, Note_off_c, 1, 69, 0
1, 88470, Note_on_c, 1, 71, 127
1, 88470, Note_on_c, 1, 68, 127
1, 88499, Note_off_c, 1, 64, 0
1, 88499, Note_off_c, 1, 57, 0
1, 88499, Note_off_c, 1, 49, 0
1, 88499, Note_off_c, 1, 71, 0
1, 88499, Note_off_c, 1, 68, 0
1, 88500, Note_on_c, 1, 73, 127
1, 88500, Note_on_c, 1, 69, 127
1, 88500, Note_on_c, 1, 64, 127
1, 88500, Note_on_c, 1, 52, 127
1, 88529, Note_off_c, 1, 73, 0
1, 88529, Note_off_c, 1, 69, 0
1, 88530, Note_on_c, 1, 74, 127
1, 88530, Note_on_c, 1, 71, 127
1, 88559, Note_off_c, 1, 64, 0
1, 88559, Note_off_c, 1, 52, 0
1, 88559, Note_off_c, 1, 74, 0
1, 88559, Note_off_c, 1, 71, 0
1, 88560, Note_on_c, 1, 76, 127
1, 88560, Note_on_c, 1, 73, 127
1, 88560, Note_on_c, 1, 64, 127
1, 88560, Note_on_c, 1, 57, 127
1, 88619, Note_off_c, 1, 76, 0
1, 88619, Note_off_c, 1, 73, 0
1, 88619, Note_off_c, 1, 64, 0
1, 88619, Note_off_c, 1, 57, 0
1, 88620, Note_on_c, 1, 76, 127
1, 88620, Note_on_c, 1, 74, 127
1, 88620, Note_on_c, 1, 71, 127
1, 88620, Note_on_c, 1, 56, 127
1, 88679, Note_off_c, 1, 76, 0
1, 88679, Note_off_c, 1, 74, 0
1, 88679, Note_off_c, 1, 71, 0
1, 88679, Note_off_c, 1, 56, 0
1, 88680, Note_on_c, 1, 76, 127
1, 88680, Note_on_c, 1, 73, 127
1, 88680, Note_on_c, 1, 69, 127
1, 88680, Note_on_c, 1, 57, 127
1, 88739, Note_off_c, 1, 76, 0
1, 88739, Note_off_c, 1, 73, 0
1, 88739, Note_off_c, 1, 69, 0
1, 88739, Note_off_c, 1, 57, 0
1, 88740, Note_on_c, 1, 76, 127
1, 88740, Note_on_c, 1, 71, 127
1, 88740, Note_on_c, 1, 68, 127
1, 88740, Note_on_c, 1, 59, 127
1, 88799, Note_off_c, 1, 76, 0
1, 88799, Note_off_c, 1, 71, 0
1, 88799, Note_off_c, 1, 68, 0
1, 88799, Note_off_c, 1, 59, 0
1, 88800, Note_on_c, 1, 76, 127
1, 88800, Note_on_c, 1, 69, 127
1, 88800, Note_on_c, 1, 61, 127
1, 88829, Note_off_c, 1, 61, 0
1, 88830, Note_on_c, 1, 59, 127
1, 88859, Note_off_c, 1, 76, 0
1, 88859, Note_off_c, 1, 69, 0
1, 88859, Note_off_c, 1, 59, 0
1, 88860, Note_on_c, 1, 78, 127
1, 88860, Note_on_c, 1, 73, 127
1, 88860, Note_on_c, 1, 69, 127
1, 88860, Note_on_c, 1, 57, 127
1, 88889, Note_off_c, 1, 78, 0
1, 88889, Note_off_c, 1, 73, 0
1, 88889, Note_off_c, 1, 57, 0
1, 88890, Note_on_c, 1, 80, 127
1, 88890, Note_on_c, 1, 71, 127
1, 88890, Note_on_c, 1, 56, 127
1, 88919, Note_off_c, 1, 69, 0
1, 88919, Note_off_c, 1, 80, 0
1, 88919, Note_off_c, 1, 71, 0
1, 88919, Note_off_c, 1, 56, 0
1, 88920, Note_on_c, 1, 81, 127
1, 88920, Note_on_c, 1, 73, 127
1, 88920, Note_on_c, 1, 69, 127
1, 88920, Note_on_c, 1, 54, 127
1, 88949, Note_off_c, 1, 81, 0
1, 88950, Note_on_c, 1, 83, 127
1, 88979, Note_off_c, 1, 73, 0
1, 88979, Note_off_c, 1, 69, 0
1, 88979, Note_off_c, 1, 54, 0
1, 88979, Note_off_c, 1, 83, 0
1, 88980, Note_on_c, 1, 85, 127
1, 88980, Note_on_c, 1, 73, 127
1, 88980, Note_on_c, 1, 66, 127
1, 88980, Note_on_c, 1, 57, 127
1, 89009, Note_off_c, 1, 85, 0
1, 89010, Note_on_c, 1, 81, 127
1, 89039, Note_off_c, 1, 73, 0
1, 89039, Note_off_c, 1, 66, 0
1, 89039, Note_off_c, 1, 57, 0
1, 89039, Note_off_c, 1, 81, 0
1, 89040, Note_on_c, 1, 74, 127
1, 89040, Note_on_c, 1, 73, 127
1, 89040, Note_on_c, 1, 66, 127
1, 89040, Note_on_c, 1, 59, 127
1, 89069, Note_off_c, 1, 59, 0
1, 89070, Note_on_c, 1, 57, 127
1, 89099, Note_off_c, 1, 74, 0
1, 89099, Note_off_c, 1, 73, 0
1, 89099, Note_off_c, 1, 66, 0
1, 89099, Note_off_c, 1, 57, 0
1, 89100, Note_on_c, 1, 76, 127
1, 89100, Note_on_c, 1, 71, 127
1, 89100, Note_on_c, 1, 59, 127
1, 89100, Note_on_c, 1, 56, 127
1, 89129, Note_off_c, 1, 76, 0
1, 89129, Note_off_c, 1, 71, 0
1, 89129, Note_off_c, 1, 56, 0
1, 89130, Note_on_c, 1, 78, 127
1, 89130, Note_on_c, 1, 69, 127
1, 89130, Note_on_c, 1, 54, 127
1, 89159, Note_off_c, 1, 59, 0
1, 89159, Note_off_c, 1, 78, 0
1, 89159, Note_off_c, 1, 69, 0
1, 89159, Note_off_c, 1, 54, 0
1, 89160, Note_on_c, 1, 80, 127
1, 89160, Note_on_c, 1, 71, 127
1, 89160, Note_on_c, 1, 64, 127
1, 89160, Note_on_c, 1, 52, 127
1, 89189, Note_off_c, 1, 80, 0
1, 89190, Note_on_c, 1, 81, 127
1, 89219, Note_off_c, 1, 71, 0
1, 89219, Note_off_c, 1, 64, 0
1, 89219, Note_off_c, 1, 52, 0
1, 89219, Note_off_c, 1, 81, 0
1, 89220, Note_on_c, 1, 83, 127
1, 89220, Note_on_c, 1, 71, 127
1, 89220, Note_on_c, 1, 64, 127
1, 89220, Note_on_c, 1, 62, 127
1, 89249, Note_off_c, 1, 83, 0
1, 89250, Note_on_c, 1, 80, 127
1, 89279, Note_off_c, 1, 71, 0
1, 89279, Note_off_c, 1, 64, 0
1, 89279, Note_off_c, 1, 62, 0
1, 89279, Note_off_c, 1, 80, 0
1, 89280, Note_on_c, 1, 81, 127
1, 89280, Note_on_c, 1, 76, 127
1, 89280, Note_on_c, 1, 64, 127
1, 89280, Note_on_c, 1, 61, 127
1, 89339, Note_off_c, 1, 81, 0
1, 89339, Note_off_c, 1, 76, 0
1, 89339, Note_off_c, 1, 64, 0
1, 89339, Note_off_c, 1, 61, 0
1, 89340, Note_on_c, 1, 76, 127
1, 89340, Note_on_c, 1, 73, 127
1, 89340, Note_on_c, 1, 64, 127
1, 89340, Note_on_c, 1, 57, 127
1, 89399, Note_off_c, 1, 76, 0
1, 89399, Note_off_c, 1, 73, 0
1, 89399, Note_off_c, 1, 64, 0
1, 89399, Note_off_c, 1, 57, 0
1, 89400, Note_on_c, 1, 73, 127
1, 89400, Note_on_c, 1, 69, 127
1, 89400, Note_on_c, 1, 64, 127
1, 89459, Note_off_c, 1, 73, 0
1, 89459, Note_off_c, 1, 69, 0
1, 89459, Note_off_c, 1, 64, 0
1, 89460, Note_on_c, 1, 71, 127
1, 89460, Note_on_c, 1, 68, 127
1, 89460, Note_on_c, 1, 62, 127
1, 89460, Note_on_c, 1, 52, 127
1, 89489, Note_off_c, 1, 71, 0
1, 89490, Note_on_c, 1, 69, 127
1, 89519, Note_off_c, 1, 68, 0
1, 89519, Note_off_c, 1, 62, 0
1, 89519, Note_off_c, 1, 52, 0
1, 89519, Note_off_c, 1, 69, 0
1, 89520, Note_on_c, 1, 69, 127
1, 89520, Note_on_c, 1, 64, 127
1, 89520, Note_on_c, 1, 61, 127
1, 89520, Note_on_c, 1, 57, 127
1, 89549, Note_off_c, 1, 69, 0
1, 89550, Note_on_c, 1, 68, 127
1, 89579, Note_off_c, 1, 57, 0
1, 89579, Note_off_c, 1, 68, 0
1, 89580, Note_on_c, 1, 66, 127
1, 89580, Note_on_c, 1, 56, 127
1, 89609, Note_off_c, 1, 66, 0
1, 89610, Note_off_c, 1, 56, 0
1, 89610, Note_on_c, 1, 54, 127
1, 89639, Note_off_c, 1, 64, 0
1, 89639, Note_off_c, 1, 61, 0
1, 89640, Note_off_c, 1, 54, 0
1, 89640, Note_on_c, 1, 73, 127
1, 89640, Note_on_c, 1, 52, 127
1, 89669, Note_off_c, 1, 73, 0
1, 89670, Note_off_c, 1, 52, 0
1, 89670, Note_on_c, 1, 71, 127
1, 89670, Note_on_c, 1, 50, 127
1, 89699, Note_off_c, 1, 71, 0
1, 89700, Note_off_c, 1, 50, 0
1, 89700, Note_on_c, 1, 49, 127
1, 89730, Note_off_c, 1, 49, 0
1, 89730, Note_on_c, 1, 62, 127
1, 89730, Note_on_c, 1, 59, 127
1, 89730, Note_on_c, 1, 47, 127
1, 89759, Note_off_c, 1, 62, 0
1, 89759, Note_off_c, 1, 59, 0
1, 89760, Note_off_c, 1, 47, 0
1, 89760, Note_on_c, 1, 45, 127
1, 89819, Note_off_c, 1, 45, 0
1, 90090, Note_on_c, 1, 69, 127
1, 90090, Note_on_c, 1, 64, 127
1, 90090, Note_on_c, 1, 61, 127
1, 90119, Note_off_c, 1, 69, 0
1, 90119, Note_off_c, 1, 64, 0
1, 90119, Note_off_c, 1, 61, 0
1, 90120, Note_on_c, 1, 73, 127
1, 90120, Note_on_c, 1, 61, 127
1, 90120, Note_on_c, 1, 57, 127
1, 90149, Note_off_c, 1, 73, 0
1, 90150, Note_on_c, 1, 71, 127
1, 90179, Note_off_c, 1, 61, 0
1, 90179, Note_off_c, 1, 71, 0
1, 90180, Note_off_c, 1, 57, 0
1, 90180, Note_on_c, 1, 69, 127
1, 90180, Note_on_c, 1, 62, 127
1, 90180, Note_on_c, 1, 59, 127
1, 90209, Note_off_c, 1, 69, 0
1, 90210, Note_on_c, 1, 68, 127
1, 90239, Note_off_c, 1, 62, 0
1, 90239, Note_off_c, 1, 68, 0
1, 90240, Note_off_c, 1, 59, 0
1, 90240, Note_on_c, 1, 64, 127
1, 90299, Note_off_c, 1, 64, 0
1, 90360, Note_on_c, 1, 74, 127
1, 90360, Note_on_c, 1, 64, 127
1, 90360, Note_on_c, 1, 57, 127
1, 90389, Note_off_c, 1, 74, 0
1, 90390, Note_on_c, 1, 73, 127
1, 90419, Note_off_c, 1, 64, 0
1, 90419, Note_off_c, 1, 73, 0
1, 90420, Note_on_c, 1, 71, 127
1, 90420, Note_on_c, 1, 61, 127
1, 90449, Note_off_c, 1, 71, 0
1, 90450, Note_on_c, 1, 69, 127
1, 90479, Note_off_c, 1, 57, 0
1, 90479, Note_off_c, 1, 69, 0
1, 90480, Note_off_c, 1, 61, 0
1, 90480, Note_on_c, 1, 59, 127
1, 90480, Note_on_c, 1, 56, 127
1, 90539, Note_off_c, 1, 56, 0
1, 90540, Note_off_c, 1, 59, 0
1, 90540, Note_on_c, 1, 54, 127
1, 90569, Note_off_c, 1, 54, 0
1, 90600, Note_on_c, 1, 76, 127
1, 90600, Note_on_c, 1, 64, 127
1, 90600, Note_on_c, 1, 56, 127
1, 90600, Note_on_c, 1, 52, 127
1, 90629, Note_off_c, 1, 76, 0
1, 90630, Note_on_c, 1, 74, 127
1, 90659, Note_off_c, 1, 64, 0
1, 90659, Note_off_c, 1, 52, 0
1, 90659, Note_off_c, 1, 74, 0
1, 90660, Note_on_c, 1, 73, 127
1, 90689, Note_off_c, 1, 73, 0
1, 90690, Note_on_c, 1, 71, 127
1, 90719, Note_off_c, 1, 56, 0
1, 90719, Note_off_c, 1, 71, 0
1, 90720, Note_on_c, 1, 61, 127
1, 90720, Note_on_c, 1, 57, 127
1, 90779, Note_off_c, 1, 57, 0
1, 90780, Note_off_c, 1, 61, 0
1, 90780, Note_on_c, 1, 62, 127
1, 90780, Note_on_c, 1, 59, 127
1, 90809, Note_off_c, 1, 62, 0
1, 90809, Note_off_c, 1, 59, 0
1, 90840, Note_on_c, 1, 69, 127
1, 90840, Note_on_c, 1, 61, 127
1, 90840, Note_on_c, 1, 57, 127
1, 90840, Note_on_c, 1, 45, 127
1, 90869, Note_off_c, 1, 61, 0
1, 90870, Note_on_c, 1, 62, 127
1, 90899, Note_off_c, 1, 69, 0
1, 90899, Note_off_c, 1, 45, 0
1, 90899, Note_off_c, 1, 62, 0
1, 90900, Note_on_c, 1, 73, 127
1, 90900, Note_on_c, 1, 64, 127
1, 90929, Note_off_c, 1, 64, 0
1, 90930, Note_on_c, 1, 66, 127
1, 90959, Note_off_c, 1, 57, 0
1, 90959, Note_off_c, 1, 73, 0
1, 90959, Note_off_c, 1, 66, 0
1, 90960, Note_on_c, 1, 71, 127
1, 90960, Note_on_c, 1, 68, 127
1, 90960, Note_on_c, 1, 59, 127
1, 90960, Note_on_c, 1, 52, 127
1, 91019, Note_off_c, 1, 71, 0
1, 91019, Note_off_c, 1, 68, 0
1, 91019, Note_off_c, 1, 52, 0
1, 91020, Note_on_c, 1, 51, 127
1, 91079, Note_off_c, 1, 51, 0
1, 91140, Note_on_c, 1, 63, 127
1, 91140, Note_on_c, 1, 54, 127
1, 91199, Note_off_c, 1, 63, 0
1, 91199, Note_off_c, 1, 54, 0
1, 91200, Note_on_c, 1, 56, 127
1, 91229, Note_off_c, 1, 59, 0
1, 91230, Note_off_c, 1, 56, 0
1, 91290, Note_on_c, 1, 75, 127
1, 91319, Note_off_c, 1, 75, 0
1, 91320, Note_on_c, 1, 76, 127
1, 91320, Note_on_c, 1, 49, 127
1, 91349, Note_off_c, 1, 76, 0
1, 91350, Note_on_c, 1, 78, 127
1, 91379, Note_off_c, 1, 49, 0
1, 91379, Note_off_c, 1, 78, 0
1, 91380, Note_on_c, 1, 80, 127
1, 91380, Note_on_c, 1, 64, 127
1, 91380, Note_on_c, 1, 61, 127
1, 91380, Note_on_c, 1, 52, 127
1, 91409, Note_off_c, 1, 80, 0
1, 91410, Note_on_c, 1, 76, 127
1, 91410, Note_on_c, 1, 59, 127
1, 91439, Note_off_c, 1, 64, 0
1, 91439, Note_off_c, 1, 61, 0
1, 91439, Note_off_c, 1, 52, 0
1, 91439, Note_off_c, 1, 76, 0
1, 91439, Note_off_c, 1, 59, 0
1, 91440, Note_on_c, 1, 69, 127
1, 91440, Note_on_c, 1, 64, 127
1, 91440, Note_on_c, 1, 61, 127
1, 91440, Note_on_c, 1, 57, 127
1, 91440, Note_on_c, 1, 54, 127
1, 91469, Note_off_c, 1, 64, 0
1, 91469, Note_off_c, 1, 57, 0
1, 91469, Note_off_c, 1, 54, 0
1, 91470, Note_on_c, 1, 56, 127
1, 91470, Note_on_c, 1, 52, 127
1, 91499, Note_off_c, 1, 69, 0
1, 91499, Note_off_c, 1, 61, 0
1, 91499, Note_off_c, 1, 56, 0
1, 91499, Note_off_c, 1, 52, 0
1, 91500, Note_on_c, 1, 71, 127
1, 91500, Note_on_c, 1, 63, 127
1, 91500, Note_on_c, 1, 59, 127
1, 91500, Note_on_c, 1, 54, 127
1, 91500, Note_on_c, 1, 51, 127
1, 91529, Note_off_c, 1, 71, 0
1, 91529, Note_off_c, 1, 63, 0
1, 91529, Note_off_c, 1, 54, 0
1, 91529, Note_off_c, 1, 51, 0
1, 91530, Note_on_c, 1, 73, 127
1, 91530, Note_on_c, 1, 64, 127
1, 91530, Note_on_c, 1, 52, 127
1, 91530, Note_on_c, 1, 49, 127
1, 91559, Note_off_c, 1, 59, 0
1, 91559, Note_off_c, 1, 73, 0
1, 91559, Note_off_c, 1, 64, 0
1, 91559, Note_off_c, 1, 52, 0
1, 91559, Note_off_c, 1, 49, 0
1, 91560, Note_on_c, 1, 75, 127
1, 91560, Note_on_c, 1, 66, 127
1, 91560, Note_on_c, 1, 59, 127
1, 91560, Note_on_c, 1, 51, 127
1, 91560, Note_on_c, 1, 47, 127
1, 91589, Note_off_c, 1, 75, 0
1, 91589, Note_off_c, 1, 51, 0
1, 91590, Note_on_c, 1, 76, 127
1, 91590, Note_on_c, 1, 54, 127
1, 91619, Note_off_c, 1, 66, 0
1, 91619, Note_off_c, 1, 59, 0
1, 91619, Note_off_c, 1, 47, 0
1, 91619, Note_off_c, 1, 76, 0
1, 91619, Note_off_c, 1, 54, 0
1, 91620, Note_on_c, 1, 78, 127
1, 91620, Note_on_c, 1, 66, 127
1, 91620, Note_on_c, 1, 59, 127
1, 91620, Note_on_c, 1, 57, 127
1, 91649, Note_off_c, 1, 78, 0
1, 91650, Note_on_c, 1, 75, 127
1, 91679, Note_off_c, 1, 66, 0
1, 91679, Note_off_c, 1, 59, 0
1, 91679, Note_off_c, 1, 57, 0
1, 91679, Note_off_c, 1, 75, 0
1, 91680, Note_on_c, 1, 76, 127
1, 91680, Note_on_c, 1, 71, 127
1, 91680, Note_on_c, 1, 59, 127
1, 91680, Note_on_c, 1, 56, 127
1, 91710, Note_on_c, 1, 54, 127
1, 91739, Note_off_c, 1, 76, 0
1, 91739, Note_off_c, 1, 71, 0
1, 91739, Note_off_c, 1, 59, 0
1, 91739, Note_off_c, 1, 56, 0
1, 91739, Note_off_c, 1, 54, 0
1, 91740, Note_on_c, 1, 71, 127
1, 91740, Note_on_c, 1, 68, 127
1, 91740, Note_on_c, 1, 59, 127
1, 91740, Note_on_c, 1, 56, 127
1, 91740, Note_on_c, 1, 52, 127
1, 91769, Note_off_c, 1, 56, 0
1, 91799, Note_off_c, 1, 71, 0
1, 91799, Note_off_c, 1, 68, 0
1, 91799, Note_off_c, 1, 59, 0
1, 91799, Note_off_c, 1, 52, 0
1, 91800, Note_on_c, 1, 68, 127
1, 91800, Note_on_c, 1, 64, 127
1, 91800, Note_on_c, 1, 59, 127
1, 91859, Note_off_c, 1, 68, 0
1, 91859, Note_off_c, 1, 64, 0
1, 91859, Note_off_c, 1, 59, 0
1, 91860, Note_on_c, 1, 66, 127
1, 91860, Note_on_c, 1, 63, 127
1, 91860, Note_on_c, 1, 57, 127
1, 91860, Note_on_c, 1, 47, 127
1, 91889, Note_off_c, 1, 66, 0
1, 91890, Note_on_c, 1, 64, 127
1, 91919, Note_off_c, 1, 63, 0
1, 91919, Note_off_c, 1, 57, 0
1, 91919, Note_off_c, 1, 47, 0
1, 91919, Note_off_c, 1, 64, 0
1, 91920, Note_on_c, 1, 64, 127
1, 91920, Note_on_c, 1, 59, 127
1, 91920, Note_on_c, 1, 56, 127
1, 91920, Note_on_c, 1, 52, 127
1, 91980, Note_on_c, 1, 51, 127
1, 92009, Note_off_c, 1, 51, 0
1, 92010, Note_on_c, 1, 49, 127
1, 92039, Note_off_c, 1, 64, 0
1, 92039, Note_off_c, 1, 59, 0
1, 92039, Note_off_c, 1, 56, 0
1, 92039, Note_off_c, 1, 52, 0
1, 92039, Note_off_c, 1, 49, 0
1, 92040, Note_on_c, 1, 47, 127
1, 92069, Note_off_c, 1, 47, 0
1, 92070, Note_on_c, 1, 66, 127
1, 92070, Note_on_c, 1, 63, 127
1, 92070, Note_on_c, 1, 59, 127
1, 92070, Note_on_c, 1, 45, 127
1, 92099, Note_off_c, 1, 66, 0
1, 92099, Note_off_c, 1, 63, 0
1, 92099, Note_off_c, 1, 59, 0
1, 92099, Note_off_c, 1, 45, 0
1, 92100, Note_on_c, 1, 68, 127
1, 92100, Note_on_c, 1, 64, 127
1, 92100, Note_on_c, 1, 59, 127
1, 92100, Note_on_c, 1, 44, 127
1, 92129, Note_off_c, 1, 68, 0
1, 92129, Note_off_c, 1, 64, 0
1, 92129, Note_off_c, 1, 44, 0
1, 92130, Note_on_c, 1, 69, 127
1, 92130, Note_on_c, 1, 66, 127
1, 92130, Note_on_c, 1, 42, 127
1, 92159, Note_off_c, 1, 59, 0
1, 92159, Note_off_c, 1, 69, 0
1, 92159, Note_off_c, 1, 66, 0
1, 92159, Note_off_c, 1, 42, 0
1, 92160, Note_on_c, 1, 71, 127
1, 92160, Note_on_c, 1, 68, 127
1, 92160, Note_on_c, 1, 64, 127
1, 92160, Note_on_c, 1, 40, 127
1, 92219, Note_off_c, 1, 71, 0
1, 92219, Note_off_c, 1, 68, 0
1, 92219, Note_off_c, 1, 64, 0
1, 92219, Note_off_c, 1, 40, 0
1, 92220, Note_on_c, 1, 73, 127
1, 92220, Note_on_c, 1, 69, 127
1, 92220, Note_on_c, 1, 64, 127
1, 92220, Note_on_c, 1, 52, 127
1, 92249, Note_off_c, 1, 52, 0
1, 92250, Note_on_c, 1, 51, 127
1, 92279, Note_off_c, 1, 73, 0
1, 92279, Note_off_c, 1, 69, 0
1, 92279, Note_off_c, 1, 64, 0
1, 92279, Note_off_c, 1, 51, 0
1, 92280, Note_on_c, 1, 71, 127
1, 92280, Note_on_c, 1, 68, 127
1, 92280, Note_on_c, 1, 64, 127
1, 92280, Note_on_c, 1, 52, 127
1, 92339, Note_off_c, 1, 71, 0
1, 92339, Note_off_c, 1, 68, 0
1, 92339, Note_off_c, 1, 64, 0
1, 92339, Note_off_c, 1, 52, 0
1, 92340, Note_on_c, 1, 69, 127
1, 92340, Note_on_c, 1, 66, 127
1, 92340, Note_on_c, 1, 64, 127
1, 92399, Note_off_c, 1, 69, 0
1, 92399, Note_off_c, 1, 66, 0
1, 92399, Note_off_c, 1, 64, 0
1, 92400, Note_on_c, 1, 71, 127
1, 92400, Note_on_c, 1, 68, 127
1, 92400, Note_on_c, 1, 64, 127
1, 92429, Note_off_c, 1, 64, 0
1, 92430, Note_on_c, 1, 62, 127
1, 92459, Note_off_c, 1, 71, 0
1, 92459, Note_off_c, 1, 68, 0
1, 92459, Note_off_c, 1, 62, 0
1, 92460, Note_on_c, 1, 69, 127
1, 92460, Note_on_c, 1, 66, 127
1, 92460, Note_on_c, 1, 61, 127
1, 92460, Note_on_c, 1, 49, 127
1, 92489, Note_off_c, 1, 69, 0
1, 92489, Note_off_c, 1, 66, 0
1, 92489, Note_off_c, 1, 61, 0
1, 92489, Note_off_c, 1, 49, 0
1, 92490, Note_on_c, 1, 71, 127
1, 92490, Note_on_c, 1, 68, 127
1, 92490, Note_on_c, 1, 59, 127
1, 92490, Note_on_c, 1, 50, 127
1, 92519, Note_off_c, 1, 71, 0
1, 92519, Note_off_c, 1, 68, 0
1, 92519, Note_off_c, 1, 59, 0
1, 92519, Note_off_c, 1, 50, 0
1, 92520, Note_on_c, 1, 68, 127
1, 92520, Note_on_c, 1, 64, 127
1, 92520, Note_on_c, 1, 52, 127
1, 92550, Note_on_c, 1, 62, 127
1, 92579, Note_off_c, 1, 68, 0
1, 92579, Note_off_c, 1, 64, 0
1, 92579, Note_off_c, 1, 52, 0
1, 92579, Note_off_c, 1, 62, 0
1, 92580, Note_on_c, 1, 76, 127
1, 92580, Note_on_c, 1, 71, 127
1, 92580, Note_on_c, 1, 64, 127
1, 92580, Note_on_c, 1, 61, 127
1, 92580, Note_on_c, 1, 54, 127
1, 92609, Note_off_c, 1, 61, 0
1, 92609, Note_off_c, 1, 54, 0
1, 92610, Note_on_c, 1, 59, 127
1, 92610, Note_on_c, 1, 56, 127
1, 92639, Note_off_c, 1, 76, 0
1, 92639, Note_off_c, 1, 71, 0
1, 92639, Note_off_c, 1, 64, 0
1, 92639, Note_off_c, 1, 59, 0
1, 92639, Note_off_c, 1, 56, 0
1, 92640, Note_on_c, 1, 73, 127
1, 92640, Note_on_c, 1, 69, 127
1, 92640, Note_on_c, 1, 64, 127
1, 92640, Note_on_c, 1, 61, 127
1, 92640, Note_on_c, 1, 57, 127
1, 92669, Note_off_c, 1, 61, 0
1, 92670, Note_on_c, 1, 59, 127
1, 92699, Note_off_c, 1, 57, 0
1, 92699, Note_off_c, 1, 59, 0
1, 92700, Note_on_c, 1, 45, 127
1, 92729, Note_off_c, 1, 45, 0
1, 92730, Note_on_c, 1, 56, 127
1, 92730, Note_on_c, 1, 47, 127
1, 92759, Note_off_c, 1, 73, 0
1, 92759, Note_off_c, 1, 69, 0
1, 92759, Note_off_c, 1, 64, 0
1, 92759, Note_off_c, 1, 56, 0
1, 92759, Note_off_c, 1, 47, 0
1, 92760, Note_on_c, 1, 61, 127
1, 92760, Note_on_c, 1, 49, 127
1, 92789, Note_off_c, 1, 61, 0
1, 92790, Note_on_c, 1, 59, 127
1, 92819, Note_off_c, 1, 49, 0
1, 92819, Note_off_c, 1, 59, 0
1, 92820, Note_on_c, 1, 73, 127
1, 92820, Note_on_c, 1, 68, 127
1, 92820, Note_on_c, 1, 61, 127
1, 92820, Note_on_c, 1, 57, 127
1, 92820, Note_on_c, 1, 51, 127
1, 92849, Note_off_c, 1, 57, 0
1, 92849, Note_off_c, 1, 51, 0
1, 92850, Note_on_c, 1, 56, 127
1, 92850, Note_on_c, 1, 53, 127
1, 92879, Note_off_c, 1, 73, 0
1, 92879, Note_off_c, 1, 68, 0
1, 92879, Note_off_c, 1, 61, 0
1, 92879, Note_off_c, 1, 56, 0
1, 92879, Note_off_c, 1, 53, 0
1, 92880, Note_on_c, 1, 69, 127
1, 92880, Note_on_c, 1, 66, 127
1, 92880, Note_on_c, 1, 61, 127
1, 92880, Note_on_c, 1, 57, 127
1, 92880, Note_on_c, 1, 54, 127
1, 92939, Note_off_c, 1, 57, 0
1, 92939, Note_off_c, 1, 54, 0
1, 92940, Note_on_c, 1, 56, 127
1, 92940, Note_on_c, 1, 42, 127
1, 92969, Note_off_c, 1, 56, 0
1, 92999, Note_off_c, 1, 69, 0
1, 92999, Note_off_c, 1, 66, 0
1, 92999, Note_off_c, 1, 42, 0
1, 93030, Note_on_c, 1, 73, 127
1, 93030, Note_on_c, 1, 52, 127
1, 93059, Note_off_c, 1, 61, 0
1, 93059, Note_off_c, 1, 73, 0
1, 93059, Note_off_c, 1, 52, 0
1, 93060, Note_on_c, 1, 74, 127
1, 93060, Note_on_c, 1, 71, 127
1, 93060, Note_on_c, 1, 59, 127
1, 93060, Note_on_c, 1, 54, 127
1, 93060, Note_on_c, 1, 50, 127
1, 93089, Note_off_c, 1, 74, 0
1, 93089, Note_off_c, 1, 71, 0
1, 93089, Note_off_c, 1, 50, 0
1, 93090, Note_on_c, 1, 76, 127
1, 93090, Note_on_c, 1, 73, 127
1, 93090, Note_on_c, 1, 49, 127
1, 93119, Note_off_c, 1, 59, 0
1, 93119, Note_off_c, 1, 54, 0
1, 93119, Note_off_c, 1, 76, 0
1, 93119, Note_off_c, 1, 73, 0
1, 93119, Note_off_c, 1, 49, 0
1, 93120, Note_on_c, 1, 78, 127
1, 93120, Note_on_c, 1, 74, 127
1, 93120, Note_on_c, 1, 71, 127
1, 93120, Note_on_c, 1, 62, 127
1, 93120, Note_on_c, 1, 47, 127
1, 93149, Note_off_c, 1, 74, 0
1, 93150, Note_on_c, 1, 73, 127
1, 93179, Note_off_c, 1, 78, 0
1, 93179, Note_off_c, 1, 71, 0
1, 93179, Note_off_c, 1, 62, 0
1, 93179, Note_off_c, 1, 47, 0
1, 93179, Note_off_c, 1, 73, 0
1, 93180, Note_on_c, 1, 79, 127
1, 93180, Note_on_c, 1, 71, 127
1, 93180, Note_on_c, 1, 64, 127
1, 93180, Note_on_c, 1, 47, 127
1, 93209, Note_off_c, 1, 71, 0
1, 93210, Note_on_c, 1, 73, 127
1, 93239, Note_off_c, 1, 79, 0
1, 93239, Note_off_c, 1, 64, 0
1, 93239, Note_off_c, 1, 47, 0
1, 93239, Note_off_c, 1, 73, 0
1, 93240, Note_on_c, 1, 78, 127
1, 93240, Note_on_c, 1, 74, 127
1, 93240, Note_on_c, 1, 66, 127
1, 93240, Note_on_c, 1, 62, 127
1, 93240, Note_on_c, 1, 47, 127
1, 93269, Note_off_c, 1, 74, 0
1, 93270, Note_on_c, 1, 73, 127
1, 93299, Note_off_c, 1, 78, 0
1, 93299, Note_off_c, 1, 66, 0
1, 93299, Note_off_c, 1, 62, 0
1, 93299, Note_off_c, 1, 47, 0
1, 93299, Note_off_c, 1, 73, 0
1, 93300, Note_on_c, 1, 76, 127
1, 93300, Note_on_c, 1, 71, 127
1, 93300, Note_on_c, 1, 67, 127
1, 93300, Note_on_c, 1, 61, 127
1, 93300, Note_on_c, 1, 47, 127
1, 93329, Note_off_c, 1, 71, 0
1, 93330, Note_on_c, 1, 70, 127
1, 93359, Note_off_c, 1, 76, 0
1, 93359, Note_off_c, 1, 67, 0
1, 93359, Note_off_c, 1, 61, 0
1, 93359, Note_off_c, 1, 47, 0
1, 93359, Note_off_c, 1, 70, 0
1, 93360, Note_on_c, 1, 74, 127
1, 93360, Note_on_c, 1, 71, 127
1, 93360, Note_on_c, 1, 66, 127
1, 93360, Note_on_c, 1, 62, 127
1, 93360, Note_on_c, 1, 47, 127
1, 93389, Note_off_c, 1, 62, 0
1, 93390, Note_on_c, 1, 61, 127
1, 93419, Note_off_c, 1, 74, 0
1, 93419, Note_off_c, 1, 47, 0
1, 93419, Note_off_c, 1, 61, 0
1, 93420, Note_on_c, 1, 59, 127
1, 93449, Note_off_c, 1, 59, 0
1, 93450, Note_on_c, 1, 73, 127
1, 93450, Note_on_c, 1, 57, 127
1, 93450, Note_on_c, 1, 49, 127
1, 93479, Note_off_c, 1, 71, 0
1, 93479, Note_off_c, 1, 66, 0
1, 93479, Note_off_c, 1, 73, 0
1, 93479, Note_off_c, 1, 57, 0
1, 93479, Note_off_c, 1, 49, 0
1, 93480, Note_on_c, 1, 71, 127
1, 93480, Note_on_c, 1, 62, 127
1, 93480, Note_on_c, 1, 50, 127
1, 93509, Note_off_c, 1, 62, 0
1, 93510, Note_on_c, 1, 61, 127
1, 93539, Note_off_c, 1, 71, 0
1, 93539, Note_off_c, 1, 50, 0
1, 93539, Note_off_c, 1, 61, 0
1, 93540, Note_on_c, 1, 74, 127
1, 93540, Note_on_c, 1, 71, 127
1, 93540, Note_on_c, 1, 68, 127
1, 93540, Note_on_c, 1, 59, 127
1, 93540, Note_on_c, 1, 52, 127
1, 93569, Note_off_c, 1, 74, 0
1, 93569, Note_off_c, 1, 59, 0
1, 93569, Note_off_c, 1, 52, 0
1, 93570, Note_on_c, 1, 73, 127
1, 93570, Note_on_c, 1, 57, 127
1, 93570, Note_on_c, 1, 54, 127
1, 93599, Note_off_c, 1, 71, 0
1, 93599, Note_off_c, 1, 68, 0
1, 93599, Note_off_c, 1, 73, 0
1, 93599, Note_off_c, 1, 57, 0
1, 93599, Note_off_c, 1, 54, 0
1, 93600, Note_on_c, 1, 71, 127
1, 93600, Note_on_c, 1, 64, 127
1, 93600, Note_on_c, 1, 69, 127
1, 93600, Note_on_c, 1, 59, 127
1, 93600, Note_on_c, 1, 56, 127
1, 93629, Note_off_c, 1, 59, 0
1, 93630, Note_on_c, 1, 57, 127
1, 93659, Note_off_c, 1, 71, 0
1, 93659, Note_off_c, 1, 56, 0
1, 93659, Note_off_c, 1, 57, 0
1, 93660, Note_on_c, 1, 44, 127
1, 93689, Note_off_c, 1, 44, 0
1, 93690, Note_on_c, 1, 54, 127
1, 93690, Note_on_c, 1, 45, 127
1, 93719, Note_off_c, 1, 64, 0
1, 93719, Note_off_c, 1, 69, 0
1, 93719, Note_off_c, 1, 54, 0
1, 93719, Note_off_c, 1, 45, 0
1, 93720, Note_on_c, 1, 68, 127
1, 93720, Note_on_c, 1, 59, 127
1, 93720, Note_on_c, 1, 47, 127
1, 93749, Note_off_c, 1, 59, 0
1, 93750, Note_on_c, 1, 57, 127
1, 93779, Note_off_c, 1, 68, 0
1, 93779, Note_off_c, 1, 47, 0
1, 93779, Note_off_c, 1, 57, 0
1, 93780, Note_on_c, 1, 71, 127
1, 93780, Note_on_c, 1, 66, 127
1, 93780, Note_on_c, 1, 59, 127
1, 93780, Note_on_c, 1, 56, 127
1, 93780, Note_on_c, 1, 49, 127
1, 93809, Note_off_c, 1, 71, 0
1, 93809, Note_off_c, 1, 56, 0
1, 93809, Note_off_c, 1, 49, 0
1, 93810, Note_on_c, 1, 69, 127
1, 93810, Note_on_c, 1, 54, 127
1, 93810, Note_on_c, 1, 51, 127
1, 93839, Note_off_c, 1, 66, 0
1, 93839, Note_off_c, 1, 59, 0
1, 93839, Note_off_c, 1, 69, 0
1, 93839, Note_off_c, 1, 54, 0
1, 93839, Note_off_c, 1, 51, 0
1, 93840, Note_on_c, 1, 68, 127
1, 93840, Note_on_c, 1, 64, 127
1, 93840, Note_on_c, 1, 59, 127
1, 93840, Note_on_c, 1, 56, 127
1, 93840, Note_on_c, 1, 52, 127
1, 93899, Note_off_c, 1, 56, 0
1, 93899, Note_off_c, 1, 52, 0
1, 93900, Note_on_c, 1, 54, 127
1, 93900, Note_on_c, 1, 40, 127
1, 93929, Note_off_c, 1, 54, 0
1, 93959, Note_off_c, 1, 68, 0
1, 93959, Note_off_c, 1, 64, 0
1, 93959, Note_off_c, 1, 40, 0
1, 93990, Note_on_c, 1, 71, 127
1, 93990, Note_on_c, 1, 50, 127
1, 94019, Note_off_c, 1, 59, 0
1, 94019, Note_off_c, 1, 71, 0
1, 94019, Note_off_c, 1, 50, 0
1, 94020, Note_on_c, 1, 73, 127
1, 94020, Note_on_c, 1, 69, 127
1, 94020, Note_on_c, 1, 52, 127
1, 94020, Note_on_c, 1, 49, 127
1, 94049, Note_off_c, 1, 73, 0
1, 94049, Note_off_c, 1, 69, 0
1, 94049, Note_off_c, 1, 49, 0
1, 94050, Note_on_c, 1, 74, 127
1, 94050, Note_on_c, 1, 71, 127
1, 94050, Note_on_c, 1, 68, 127
1, 94050, Note_on_c, 1, 47, 127
1, 94079, Note_off_c, 1, 52, 0
1, 94079, Note_off_c, 1, 74, 0
1, 94079, Note_off_c, 1, 71, 0
1, 94079, Note_off_c, 1, 68, 0
1, 94079, Note_off_c, 1, 47, 0
1, 94080, Note_on_c, 1, 76, 127
1, 94080, Note_on_c, 1, 73, 127
1, 94080, Note_on_c, 1, 69, 127
1, 94080, Note_on_c, 1, 57, 127
1, 94080, Note_on_c, 1, 45, 127
1, 94109, Note_off_c, 1, 69, 0
1, 94110, Note_on_c, 1, 68, 127
1, 94139, Note_off_c, 1, 76, 0
1, 94139, Note_off_c, 1, 73, 0
1, 94139, Note_off_c, 1, 57, 0
1, 94139, Note_off_c, 1, 45, 0
1, 94139, Note_off_c, 1, 68, 0
1, 94140, Note_on_c, 1, 78, 127
1, 94140, Note_on_c, 1, 74, 127
1, 94140, Note_on_c, 1, 66, 127
1, 94140, Note_on_c, 1, 57, 127
1, 94140, Note_on_c, 1, 45, 127
1, 94169, Note_off_c, 1, 66, 0
1, 94170, Note_on_c, 1, 68, 127
1, 94199, Note_off_c, 1, 78, 0
1, 94199, Note_off_c, 1, 74, 0
1, 94199, Note_off_c, 1, 57, 0
1, 94199, Note_off_c, 1, 45, 0
1, 94199, Note_off_c, 1, 68, 0
1, 94200, Note_on_c, 1, 76, 127
1, 94200, Note_on_c, 1, 73, 127
1, 94200, Note_on_c, 1, 69, 127
1, 94200, Note_on_c, 1, 57, 127
1, 94200, Note_on_c, 1, 45, 127
1, 94229, Note_off_c, 1, 69, 0
1, 94230, Note_on_c, 1, 68, 127
1, 94259, Note_off_c, 1, 76, 0
1, 94259, Note_off_c, 1, 73, 0
1, 94259, Note_off_c, 1, 57, 0
1, 94259, Note_off_c, 1, 45, 0
1, 94259, Note_off_c, 1, 68, 0
1, 94260, Note_on_c, 1, 74, 127
1, 94260, Note_on_c, 1, 71, 127
1, 94260, Note_on_c, 1, 66, 127
1, 94260, Note_on_c, 1, 57, 127
1, 94260, Note_on_c, 1, 45, 127
1, 94289, Note_off_c, 1, 66, 0
1, 94290, Note_on_c, 1, 68, 127
1, 94319, Note_off_c, 1, 74, 0
1, 94319, Note_off_c, 1, 71, 0
1, 94319, Note_off_c, 1, 57, 0
1, 94319, Note_off_c, 1, 45, 0
1, 94319, Note_off_c, 1, 68, 0
1, 94320, Note_on_c, 1, 76, 127
1, 94320, Note_on_c, 1, 73, 127
1, 94320, Note_on_c, 1, 69, 127
1, 94320, Note_on_c, 1, 57, 127
1, 94320, Note_on_c, 1, 45, 127
1, 94379, Note_off_c, 1, 76, 0
1, 94379, Note_off_c, 1, 73, 0
1, 94379, Note_off_c, 1, 69, 0
1, 94379, Note_off_c, 1, 57, 0
1, 94379, Note_off_c, 1, 45, 0
1, 94380, Note_on_c, 1, 74, 127
1, 94380, Note_on_c, 1, 71, 127
1, 94380, Note_on_c, 1, 68, 127
1, 94380, Note_on_c, 1, 52, 127
1, 94380, Note_on_c, 1, 45, 127
1, 94409, Note_off_c, 1, 74, 0
1, 94409, Note_off_c, 1, 71, 0
1, 94409, Note_off_c, 1, 52, 0
1, 94410, Note_on_c, 1, 76, 127
1, 94410, Note_on_c, 1, 73, 127
1, 94410, Note_on_c, 1, 57, 127
1, 94439, Note_off_c, 1, 68, 0
1, 94439, Note_off_c, 1, 45, 0
1, 94439, Note_off_c, 1, 76, 0
1, 94439, Note_off_c, 1, 73, 0
1, 94439, Note_off_c, 1, 57, 0
1, 94440, Note_on_c, 1, 73, 127
1, 94440, Note_on_c, 1, 69, 127
1, 94440, Note_on_c, 1, 64, 127
1, 94440, Note_on_c, 1, 61, 127
1, 94440, Note_on_c, 1, 45, 127
1, 94469, Note_off_c, 1, 61, 0
1, 94470, Note_on_c, 1, 59, 127
1, 94499, Note_off_c, 1, 73, 0
1, 94499, Note_off_c, 1, 69, 0
1, 94499, Note_off_c, 1, 64, 0
1, 94499, Note_off_c, 1, 45, 0
1, 94499, Note_off_c, 1, 59, 0
1, 94500, Note_on_c, 1, 78, 127
1, 94500, Note_on_c, 1, 74, 127
1, 94500, Note_on_c, 1, 62, 127
1, 94500, Note_on_c, 1, 57, 127
1, 94500, Note_on_c, 1, 45, 127
1, 94529, Note_off_c, 1, 57, 0
1, 94530, Note_on_c, 1, 56, 127
1, 94559, Note_off_c, 1, 78, 0
1, 94559, Note_off_c, 1, 74, 0
1, 94559, Note_off_c, 1, 62, 0
1, 94559, Note_off_c, 1, 45, 0
1, 94559, Note_off_c, 1, 56, 0
1, 94560, Note_on_c, 1, 76, 127
1, 94560, Note_on_c, 1, 73, 127
1, 94560, Note_on_c, 1, 64, 127
1, 94560, Note_on_c, 1, 57, 127
1, 94560, Note_on_c, 1, 45, 127
1, 94619, Note_off_c, 1, 76, 0
1, 94619, Note_off_c, 1, 73, 0
1, 94619, Note_off_c, 1, 57, 0
1, 94619, Note_off_c, 1, 45, 0
1, 94620, Note_on_c, 1, 71, 127
1, 94620, Note_on_c, 1, 52, 127
1, 94620, Note_on_c, 1, 44, 127
1, 94649, Note_off_c, 1, 71, 0
1, 94649, Note_off_c, 1, 52, 0
1, 94649, Note_off_c, 1, 44, 0
1, 94680, Note_off_c, 1, 64, 0
1, 94680, Note_on_c, 1, 69, 127
1, 94680, Note_on_c, 1, 62, 127
1, 94680, Note_on_c, 1, 42, 127
1, 94709, Note_off_c, 1, 62, 0
1, 94710, Note_on_c, 1, 61, 127
1, 94739, Note_off_c, 1, 69, 0
1, 94739, Note_off_c, 1, 42, 0
1, 94739, Note_off_c, 1, 61, 0
1, 94740, Note_on_c, 1, 76, 127
1, 94740, Note_on_c, 1, 73, 127
1, 94740, Note_on_c, 1, 64, 127
1, 94740, Note_on_c, 1, 59, 127
1, 94740, Note_on_c, 1, 45, 127
1, 94769, Note_off_c, 1, 59, 0
1, 94770, Note_on_c, 1, 57, 127
1, 94799, Note_off_c, 1, 76, 0
1, 94799, Note_off_c, 1, 73, 0
1, 94799, Note_off_c, 1, 45, 0
1, 94799, Note_off_c, 1, 57, 0
1, 94800, Note_on_c, 1, 71, 127
1, 94800, Note_on_c, 1, 44, 127
1, 94859, Note_off_c, 1, 71, 0
1, 94859, Note_off_c, 1, 44, 0
1, 94860, Note_on_c, 1, 69, 127
1, 94860, Note_on_c, 1, 52, 127
1, 94860, Note_on_c, 1, 42, 127
1, 94889, Note_off_c, 1, 69, 0
1, 94889, Note_off_c, 1, 52, 0
1, 94889, Note_off_c, 1, 42, 0
1, 94920, Note_on_c, 1, 68, 127
1, 94920, Note_on_c, 1, 40, 127
1, 94949, Note_off_c, 1, 64, 0
1, 94950, Note_on_c, 1, 62, 127
1, 94979, Note_off_c, 1, 68, 0
1, 94979, Note_off_c, 1, 40, 0
1, 94979, Note_off_c, 1, 62, 0
1, 94980, Note_on_c, 1, 76, 127
1, 94980, Note_on_c, 1, 71, 127
1, 94980, Note_on_c, 1, 64, 127
1, 94980, Note_on_c, 1, 61, 127
1, 94980, Note_on_c, 1, 44, 127
1, 95009, Note_off_c, 1, 61, 0
1, 95010, Note_on_c, 1, 59, 127
1, 95039, Note_off_c, 1, 76, 0
1, 95039, Note_off_c, 1, 71, 0
1, 95039, Note_off_c, 1, 44, 0
1, 95039, Note_off_c, 1, 59, 0
1, 95040, Note_on_c, 1, 69, 127
1, 95040, Note_on_c, 1, 45, 127
1, 95099, Note_off_c, 1, 69, 0
1, 95099, Note_off_c, 1, 45, 0
1, 95100, Note_off_c, 1, 64, 0
1, 95100, Note_on_c, 1, 74, 127
1, 95100, Note_on_c, 1, 68, 127
1, 95100, Note_on_c, 1, 47, 127
1, 95129, Note_off_c, 1, 74, 0
1, 95159, Note_off_c, 1, 47, 0
1, 95160, Note_off_c, 1, 68, 0
1, 95160, Note_on_c, 1, 73, 127
1, 95160, Note_on_c, 1, 57, 127
1, 95160, Note_on_c, 1, 49, 127
1, 95219, Note_off_c, 1, 73, 0
1, 95219, Note_off_c, 1, 57, 0
1, 95219, Note_off_c, 1, 49, 0
1, 95220, Note_on_c, 1, 81, 127
1, 95220, Note_on_c, 1, 78, 127
1, 95220, Note_on_c, 1, 50, 127
1, 95279, Note_off_c, 1, 81, 0
1, 95279, Note_off_c, 1, 78, 0
1, 95279, Note_off_c, 1, 50, 0
1, 95280, Note_on_c, 1, 80, 127
1, 95280, Note_on_c, 1, 52, 127
1, 95339, Note_off_c, 1, 52, 0
1, 95370, Note_on_c, 1, 62, 127
1, 95399, Note_off_c, 1, 80, 0
1, 95399, Note_off_c, 1, 62, 0
1, 95460, Note_on_c, 1, 85, 127
1, 95460, Note_on_c, 1, 80, 127
1, 95460, Note_on_c, 1, 64, 127
1, 95460, Note_on_c, 1, 57, 127
1, 95460, Note_on_c, 1, 52, 127
1, 95460, Note_on_c, 1, 76, 127
1, 95489, Note_off_c, 1, 57, 0
1, 95490, Note_on_c, 1, 56, 127
1, 95519, Note_off_c, 1, 85, 0
1, 95519, Note_off_c, 1, 80, 0
1, 95519, Note_off_c, 1, 52, 0
1, 95519, Note_off_c, 1, 56, 0
1, 95520, Note_off_c, 1, 64, 0
1, 95520, Note_off_c, 1, 76, 0
1, 95520, Note_on_c, 1, 81, 127
1, 95520, Note_on_c, 1, 78, 127
1, 95520, Note_on_c, 1, 61, 127
1, 95520, Note_on_c, 1, 54, 127
1, 95520, Note_on_c, 1, 73, 127
1, 95549, Note_off_c, 1, 78, 0
1, 95549, Note_off_c, 1, 61, 0
1, 95549, Note_off_c, 1, 73, 0
1, 95550, Note_on_c, 1, 59, 127
1, 95550, Note_on_c, 1, 71, 127
1, 95579, Note_off_c, 1, 81, 0
1, 95579, Note_off_c, 1, 54, 0
1, 95579, Note_off_c, 1, 59, 0
1, 95579, Note_off_c, 1, 71, 0
1, 95580, Note_on_c, 1, 73, 127
1, 95580, Note_on_c, 1, 81, 127
1, 95580, Note_on_c, 1, 57, 127
1, 95580, Note_on_c, 1, 54, 127
1, 95580, Note_on_c, 1, 69, 127
1, 95609, Note_off_c, 1, 73, 0
1, 95609, Note_off_c, 1, 81, 0
1, 95609, Note_off_c, 1, 57, 0
1, 95609, Note_off_c, 1, 69, 0
1, 95610, Note_on_c, 1, 80, 127
1, 95610, Note_on_c, 1, 59, 127
1, 95610, Note_on_c, 1, 71, 127
1, 95639, Note_off_c, 1, 54, 0
1, 95639, Note_off_c, 1, 80, 0
1, 95639, Note_off_c, 1, 59, 0
1, 95639, Note_off_c, 1, 71, 0
1, 95640, Note_on_c, 1, 85, 127
1, 95640, Note_on_c, 1, 78, 127
1, 95640, Note_on_c, 1, 61, 127
1, 95640, Note_on_c, 1, 57, 127
1, 95640, Note_on_c, 1, 54, 127
1, 95640, Note_on_c, 1, 73, 127
1, 95669, Note_off_c, 1, 85, 0
1, 95669, Note_off_c, 1, 61, 0
1, 95669, Note_off_c, 1, 73, 0
1, 95670, Note_on_c, 1, 83, 127
1, 95670, Note_on_c, 1, 62, 127
1, 95670, Note_on_c, 1, 74, 127
1, 95699, Note_off_c, 1, 78, 0
1, 95699, Note_off_c, 1, 57, 0
1, 95699, Note_off_c, 1, 54, 0
1, 95699, Note_off_c, 1, 83, 0
1, 95699, Note_off_c, 1, 62, 0
1, 95699, Note_off_c, 1, 74, 0
1, 95700, Note_on_c, 1, 81, 127
1, 95700, Note_on_c, 1, 73, 127
1, 95700, Note_on_c, 1, 61, 127
1, 95700, Note_on_c, 1, 57, 127
1, 95700, Note_on_c, 1, 54, 127
1, 95729, Note_off_c, 1, 81, 0
1, 95729, Note_off_c, 1, 73, 0
1, 95729, Note_off_c, 1, 61, 0
1, 95730, Note_on_c, 1, 80, 127
1, 95730, Note_on_c, 1, 74, 127
1, 95730, Note_on_c, 1, 59, 127
1, 95730, Note_on_c, 1, 71, 127
1, 95759, Note_off_c, 1, 57, 0
1, 95759, Note_off_c, 1, 54, 0
1, 95759, Note_off_c, 1, 80, 0
1, 95759, Note_off_c, 1, 74, 0
1, 95759, Note_off_c, 1, 59, 0
1, 95759, Note_off_c, 1, 71, 0
1, 95760, Note_on_c, 1, 81, 127
1, 95760, Note_on_c, 1, 76, 127
1, 95760, Note_on_c, 1, 57, 127
1, 95760, Note_on_c, 1, 49, 127
1, 95760, Note_on_c, 1, 69, 127
1, 95789, Note_off_c, 1, 76, 0
1, 95790, Note_on_c, 1, 74, 127
1, 95790, Note_on_c, 1, 52, 127
1, 95819, Note_off_c, 1, 81, 0
1, 95819, Note_off_c, 1, 57, 0
1, 95819, Note_off_c, 1, 49, 0
1, 95819, Note_off_c, 1, 69, 0
1, 95819, Note_off_c, 1, 74, 0
1, 95819, Note_off_c, 1, 52, 0
1, 95820, Note_on_c, 1, 73, 127
1, 95820, Note_on_c, 1, 69, 127
1, 95820, Note_on_c, 1, 54, 127
1, 95820, Note_on_c, 1, 49, 127
1, 95849, Note_off_c, 1, 73, 0
1, 95849, Note_off_c, 1, 54, 0
1, 95850, Note_on_c, 1, 81, 127
1, 95850, Note_on_c, 1, 71, 127
1, 95850, Note_on_c, 1, 56, 127
1, 95879, Note_off_c, 1, 69, 0
1, 95879, Note_off_c, 1, 49, 0
1, 95879, Note_off_c, 1, 81, 0
1, 95879, Note_off_c, 1, 71, 0
1, 95879, Note_off_c, 1, 56, 0
1, 95880, Note_on_c, 1, 85, 127
1, 95880, Note_on_c, 1, 69, 127
1, 95880, Note_on_c, 1, 64, 127
1, 95880, Note_on_c, 1, 57, 127
1, 95880, Note_on_c, 1, 49, 127
1, 95909, Note_off_c, 1, 85, 0
1, 95909, Note_off_c, 1, 64, 0
1, 95909, Note_off_c, 1, 57, 0
1, 95910, Note_on_c, 1, 83, 127
1, 95910, Note_on_c, 1, 68, 127
1, 95910, Note_on_c, 1, 59, 127
1, 95939, Note_off_c, 1, 69, 0
1, 95939, Note_off_c, 1, 49, 0
1, 95939, Note_off_c, 1, 83, 0
1, 95939, Note_off_c, 1, 68, 0
1, 95939, Note_off_c, 1, 59, 0
1, 95940, Note_on_c, 1, 81, 127
1, 95940, Note_on_c, 1, 76, 127
1, 95940, Note_on_c, 1, 66, 127
1, 95940, Note_on_c, 1, 61, 127
1, 95940, Note_on_c, 1, 49, 127
1, 95969, Note_off_c, 1, 81, 0
1, 95969, Note_off_c, 1, 66, 0
1, 95969, Note_off_c, 1, 61, 0
1, 95970, Note_on_c, 1, 80, 127
1, 95970, Note_on_c, 1, 64, 127
1, 95970, Note_on_c, 1, 59, 127
1, 95999, Note_off_c, 1, 76, 0
1, 95999, Note_off_c, 1, 49, 0
1, 95999, Note_off_c, 1, 80, 0
1, 95999, Note_off_c, 1, 64, 0
1, 95999, Note_off_c, 1, 59, 0
1, 96000, Note_on_c, 1, 81, 127
1, 96000, Note_on_c, 1, 78, 127
1, 96000, Note_on_c, 1, 71, 127
1, 96000, Note_on_c, 1, 57, 127
1, 96000, Note_on_c, 1, 51, 127
1, 96029, Note_off_c, 1, 78, 0
1, 96029, Note_off_c, 1, 57, 0
1, 96030, Note_on_c, 1, 76, 127
1, 96030, Note_on_c, 1, 56, 127
1, 96059, Note_off_c, 1, 81, 0
1, 96059, Note_off_c, 1, 71, 0
1, 96059, Note_off_c, 1, 51, 0
1, 96059, Note_off_c, 1, 76, 0
1, 96059, Note_off_c, 1, 56, 0
1, 96060, Note_on_c, 1, 71, 127
1, 96060, Note_on_c, 1, 75, 127
1, 96060, Note_on_c, 1, 59, 127
1, 96060, Note_on_c, 1, 54, 127
1, 96060, Note_on_c, 1, 51, 127
1, 96089, Note_off_c, 1, 71, 0
1, 96089, Note_off_c, 1, 75, 0
1, 96089, Note_off_c, 1, 59, 0
1, 96089, Note_off_c, 1, 54, 0
1, 96090, Note_on_c, 1, 80, 127
1, 96090, Note_on_c, 1, 73, 127
1, 96090, Note_on_c, 1, 61, 127
1, 96090, Note_on_c, 1, 52, 127
1, 96119, Note_off_c, 1, 51, 0
1, 96119, Note_off_c, 1, 80, 0
1, 96119, Note_off_c, 1, 73, 0
1, 96119, Note_off_c, 1, 61, 0
1, 96119, Note_off_c, 1, 52, 0
1, 96120, Note_on_c, 1, 81, 127
1, 96120, Note_on_c, 1, 71, 127
1, 96120, Note_on_c, 1, 63, 127
1, 96120, Note_on_c, 1, 54, 127
1, 96120, Note_on_c, 1, 51, 127
1, 96149, Note_off_c, 1, 81, 0
1, 96149, Note_off_c, 1, 63, 0
1, 96149, Note_off_c, 1, 54, 0
1, 96150, Note_on_c, 1, 80, 127
1, 96150, Note_on_c, 1, 64, 127
1, 96150, Note_on_c, 1, 52, 127
1, 96179, Note_off_c, 1, 71, 0
1, 96179, Note_off_c, 1, 51, 0
1, 96179, Note_off_c, 1, 80, 0
1, 96179, Note_off_c, 1, 64, 0
1, 96179, Note_off_c, 1, 52, 0
1, 96180, Note_on_c, 1, 78, 127
1, 96180, Note_on_c, 1, 71, 127
1, 96180, Note_on_c, 1, 66, 127
1, 96180, Note_on_c, 1, 51, 127
1, 96209, Note_off_c, 1, 78, 0
1, 96209, Note_off_c, 1, 66, 0
1, 96210, Note_on_c, 1, 76, 127
1, 96210, Note_on_c, 1, 68, 127
1, 96210, Note_on_c, 1, 49, 127
1, 96239, Note_off_c, 1, 71, 0
1, 96239, Note_off_c, 1, 51, 0
1, 96239, Note_off_c, 1, 76, 0
1, 96239, Note_off_c, 1, 68, 0
1, 96239, Note_off_c, 1, 49, 0
1, 96240, Note_on_c, 1, 78, 127
1, 96240, Note_on_c, 1, 71, 127
1, 96240, Note_on_c, 1, 69, 127
1, 96240, Note_on_c, 1, 51, 127
1, 96240, Note_on_c, 1, 47, 127
1, 96269, Note_off_c, 1, 71, 0
1, 96269, Note_off_c, 1, 69, 0
1, 96269, Note_off_c, 1, 51, 0
1, 96270, Note_on_c, 1, 63, 127
1, 96270, Note_on_c, 1, 73, 127
1, 96299, Note_off_c, 1, 78, 0
1, 96299, Note_off_c, 1, 47, 0
1, 96299, Note_off_c, 1, 63, 0
1, 96299, Note_off_c, 1, 73, 0
1, 96300, Note_on_c, 1, 71, 127
1, 96300, Note_on_c, 1, 64, 127
1, 96300, Note_on_c, 1, 49, 127
1, 96300, Note_on_c, 1, 47, 127
1, 96329, Note_off_c, 1, 71, 0
1, 96329, Note_off_c, 1, 64, 0
1, 96329, Note_off_c, 1, 49, 0
1, 96330, Note_on_c, 1, 81, 127
1, 96330, Note_on_c, 1, 66, 127
1, 96330, Note_on_c, 1, 69, 127
1, 96330, Note_on_c, 1, 51, 127
1, 96359, Note_off_c, 1, 47, 0
1, 96359, Note_off_c, 1, 81, 0
1, 96359, Note_off_c, 1, 66, 0
1, 96359, Note_off_c, 1, 69, 0
1, 96359, Note_off_c, 1, 51, 0
1, 96360, Note_on_c, 1, 83, 127
1, 96360, Note_on_c, 1, 68, 127
1, 96360, Note_on_c, 1, 52, 127
1, 96360, Note_on_c, 1, 47, 127
1, 96389, Note_off_c, 1, 83, 0
1, 96389, Note_off_c, 1, 68, 0
1, 96389, Note_off_c, 1, 52, 0
1, 96390, Note_on_c, 1, 81, 127
1, 96390, Note_on_c, 1, 69, 127
1, 96390, Note_on_c, 1, 66, 127
1, 96390, Note_on_c, 1, 54, 127
1, 96419, Note_off_c, 1, 47, 0
1, 96419, Note_off_c, 1, 81, 0
1, 96419, Note_off_c, 1, 69, 0
1, 96419, Note_off_c, 1, 66, 0
1, 96419, Note_off_c, 1, 54, 0
1, 96420, Note_on_c, 1, 80, 127
1, 96420, Note_on_c, 1, 71, 127
1, 96420, Note_on_c, 1, 64, 127
1, 96420, Note_on_c, 1, 56, 127
1, 96420, Note_on_c, 1, 47, 127
1, 96449, Note_off_c, 1, 80, 0
1, 96449, Note_off_c, 1, 71, 0
1, 96449, Note_off_c, 1, 64, 0
1, 96449, Note_off_c, 1, 56, 0
1, 96450, Note_on_c, 1, 78, 127
1, 96450, Note_on_c, 1, 69, 127
1, 96450, Note_on_c, 1, 63, 127
1, 96450, Note_on_c, 1, 57, 127
1, 96479, Note_off_c, 1, 47, 0
1, 96479, Note_off_c, 1, 78, 0
1, 96479, Note_off_c, 1, 69, 0
1, 96479, Note_off_c, 1, 63, 0
1, 96479, Note_off_c, 1, 57, 0
1, 96480, Note_on_c, 1, 80, 127
1, 96480, Note_on_c, 1, 68, 127
1, 96480, Note_on_c, 1, 64, 127
1, 96480, Note_on_c, 1, 59, 127
1, 96480, Note_on_c, 1, 52, 127
1, 96539, Note_off_c, 1, 80, 0
1, 96539, Note_off_c, 1, 68, 0
1, 96539, Note_off_c, 1, 64, 0
1, 96539, Note_off_c, 1, 59, 0
1, 96539, Note_off_c, 1, 52, 0
1, 96540, Note_on_c, 1, 78, 127
1, 96540, Note_on_c, 1, 71, 127
1, 96540, Note_on_c, 1, 68, 127
1, 96540, Note_on_c, 1, 57, 127
1, 96540, Note_on_c, 1, 44, 127
1, 96569, Note_off_c, 1, 78, 0
1, 96569, Note_off_c, 1, 57, 0
1, 96570, Note_on_c, 1, 76, 127
1, 96570, Note_on_c, 1, 56, 127
1, 96599, Note_off_c, 1, 71, 0
1, 96599, Note_off_c, 1, 68, 0
1, 96599, Note_off_c, 1, 44, 0
1, 96599, Note_off_c, 1, 76, 0
1, 96599, Note_off_c, 1, 56, 0
1, 96600, Note_on_c, 1, 78, 127
1, 96600, Note_on_c, 1, 73, 127
1, 96600, Note_on_c, 1, 66, 127
1, 96600, Note_on_c, 1, 57, 127
1, 96600, Note_on_c, 1, 45, 127
1, 96659, Note_off_c, 1, 78, 0
1, 96659, Note_off_c, 1, 73, 0
1, 96659, Note_off_c, 1, 66, 0
1, 96659, Note_off_c, 1, 57, 0
1, 96659, Note_off_c, 1, 45, 0
1, 96660, Note_on_c, 1, 75, 127
1, 96660, Note_on_c, 1, 71, 127
1, 96660, Note_on_c, 1, 66, 127
1, 96660, Note_on_c, 1, 54, 127
1, 96660, Note_on_c, 1, 47, 127
1, 96719, Note_off_c, 1, 75, 0
1, 96719, Note_off_c, 1, 71, 0
1, 96719, Note_off_c, 1, 66, 0
1, 96719, Note_off_c, 1, 54, 0
1, 96719, Note_off_c, 1, 47, 0
1, 96720, Note_on_c, 1, 76, 127
1, 96720, Note_on_c, 1, 71, 127
1, 96720, Note_on_c, 1, 68, 127
1, 96720, Note_on_c, 1, 52, 127
1, 96720, Note_on_c, 1, 40, 127
1, 96749, Note_off_c, 1, 76, 0
1, 96749, Note_off_c, 1, 40, 0
1, 96750, Note_on_c, 1, 75, 127
1, 96750, Note_on_c, 1, 42, 127
1, 96779, Note_off_c, 1, 75, 0
1, 96779, Note_off_c, 1, 42, 0
1, 96780, Note_on_c, 1, 73, 127
1, 96780, Note_on_c, 1, 44, 127
1, 96809, Note_off_c, 1, 73, 0
1, 96809, Note_off_c, 1, 44, 0
1, 96810, Note_on_c, 1, 45, 127
1, 96839, Note_off_c, 1, 71, 0
1, 96839, Note_off_c, 1, 68, 0
1, 96839, Note_off_c, 1, 52, 0
1, 96839, Note_off_c, 1, 45, 0
1, 96840, Note_on_c, 1, 69, 127
1, 96840, Note_on_c, 1, 47, 127
1, 96869, Note_off_c, 1, 69, 0
1, 96869, Note_off_c, 1, 47, 0
1, 96870, Note_on_c, 1, 68, 127
1, 96870, Note_on_c, 1, 49, 127
1, 96899, Note_off_c, 1, 68, 0
1, 96899, Note_off_c, 1, 49, 0
1, 96900, Note_on_c, 1, 66, 127
1, 96900, Note_on_c, 1, 59, 127
1, 96900, Note_on_c, 1, 56, 127
1, 96900, Note_on_c, 1, 51, 127
1, 96929, Note_off_c, 1, 66, 0
1, 96929, Note_off_c, 1, 51, 0
1, 96930, Note_on_c, 1, 64, 127
1, 96930, Note_on_c, 1, 52, 127
1, 96959, Note_off_c, 1, 59, 0
1, 96959, Note_off_c, 1, 56, 0
1, 96959, Note_off_c, 1, 64, 0
1, 96959, Note_off_c, 1, 52, 0
1, 96960, Note_on_c, 1, 69, 127
1, 96960, Note_on_c, 1, 64, 127
1, 96960, Note_on_c, 1, 57, 127
1, 96960, Note_on_c, 1, 49, 127
1, 97019, Note_off_c, 1, 69, 0
1, 97019, Note_off_c, 1, 64, 0
1, 97019, Note_off_c, 1, 57, 0
1, 97019, Note_off_c, 1, 49, 0
1, 97020, Note_on_c, 1, 64, 127
1, 97020, Note_on_c, 1, 61, 127
1, 97020, Note_on_c, 1, 57, 127
1, 97020, Note_on_c, 1, 49, 127
1, 97049, Note_off_c, 1, 64, 0
1, 97049, Note_off_c, 1, 61, 0
1, 97050, Note_on_c, 1, 69, 127
1, 97050, Note_on_c, 1, 62, 127
1, 97079, Note_off_c, 1, 57, 0
1, 97079, Note_off_c, 1, 49, 0
1, 97079, Note_off_c, 1, 69, 0
1, 97079, Note_off_c, 1, 62, 0
1, 97080, Note_on_c, 1, 73, 127
1, 97080, Note_on_c, 1, 64, 127
1, 97080, Note_on_c, 1, 57, 127
1, 97080, Note_on_c, 1, 49, 127
1, 97109, Note_off_c, 1, 73, 0
1, 97109, Note_off_c, 1, 57, 0
1, 97110, Note_on_c, 1, 71, 127
1, 97110, Note_on_c, 1, 56, 127
1, 97139, Note_off_c, 1, 64, 0
1, 97139, Note_off_c, 1, 49, 0
1, 97139, Note_off_c, 1, 71, 0
1, 97139, Note_off_c, 1, 56, 0
1, 97140, Note_on_c, 1, 69, 127
1, 97140, Note_on_c, 1, 64, 127
1, 97140, Note_on_c, 1, 57, 127
1, 97140, Note_on_c, 1, 49, 127
1, 97169, Note_off_c, 1, 69, 0
1, 97169, Note_off_c, 1, 57, 0
1, 97170, Note_on_c, 1, 68, 127
1, 97170, Note_on_c, 1, 59, 127
1, 97199, Note_off_c, 1, 64, 0
1, 97199, Note_off_c, 1, 49, 0
1, 97199, Note_off_c, 1, 68, 0
1, 97199, Note_off_c, 1, 59, 0
1, 97200, Note_on_c, 1, 69, 127
1, 97200, Note_on_c, 1, 64, 127
1, 97200, Note_on_c, 1, 61, 127
1, 97200, Note_on_c, 1, 54, 127
1, 97259, Note_off_c, 1, 69, 0
1, 97259, Note_off_c, 1, 64, 0
1, 97259, Note_off_c, 1, 61, 0
1, 97259, Note_off_c, 1, 54, 0
1, 97260, Note_on_c, 1, 64, 127
1, 97260, Note_on_c, 1, 61, 127
1, 97260, Note_on_c, 1, 57, 127
1, 97260, Note_on_c, 1, 54, 127
1, 97289, Note_off_c, 1, 64, 0
1, 97289, Note_off_c, 1, 61, 0
1, 97290, Note_on_c, 1, 69, 127
1, 97290, Note_on_c, 1, 62, 127
1, 97319, Note_off_c, 1, 57, 0
1, 97319, Note_off_c, 1, 54, 0
1, 97319, Note_off_c, 1, 69, 0
1, 97319, Note_off_c, 1, 62, 0
1, 97320, Note_on_c, 1, 73, 127
1, 97320, Note_on_c, 1, 64, 127
1, 97320, Note_on_c, 1, 57, 127
1, 97320, Note_on_c, 1, 54, 127
1, 97349, Note_off_c, 1, 73, 0
1, 97349, Note_off_c, 1, 57, 0
1, 97350, Note_on_c, 1, 71, 127
1, 97350, Note_on_c, 1, 56, 127
1, 97379, Note_off_c, 1, 64, 0
1, 97379, Note_off_c, 1, 54, 0
1, 97379, Note_off_c, 1, 71, 0
1, 97379, Note_off_c, 1, 56, 0
1, 97380, Note_on_c, 1, 69, 127
1, 97380, Note_on_c, 1, 64, 127
1, 97380, Note_on_c, 1, 54, 127
1, 97409, Note_off_c, 1, 69, 0
1, 97410, Note_on_c, 1, 68, 127
1, 97410, Note_on_c, 1, 52, 127
1, 97439, Note_off_c, 1, 64, 0
1, 97439, Note_off_c, 1, 54, 0
1, 97439, Note_off_c, 1, 68, 0
1, 97439, Note_off_c, 1, 52, 0
1, 97440, Note_on_c, 1, 69, 127
1, 97440, Note_on_c, 1, 66, 127
1, 97440, Note_on_c, 1, 59, 127
1, 97440, Note_on_c, 1, 51, 127
1, 97499, Note_off_c, 1, 69, 0
1, 97499, Note_off_c, 1, 66, 0
1, 97499, Note_off_c, 1, 59, 0
1, 97499, Note_off_c, 1, 51, 0
1, 97500, Note_on_c, 1, 59, 127
1, 97500, Note_on_c, 1, 63, 127
1, 97500, Note_on_c, 1, 51, 127
1, 97529, Note_off_c, 1, 63, 0
1, 97530, Note_on_c, 1, 68, 127
1, 97530, Note_on_c, 1, 64, 127
1, 97559, Note_off_c, 1, 59, 0
1, 97559, Note_off_c, 1, 51, 0
1, 97559, Note_off_c, 1, 68, 0
1, 97559, Note_off_c, 1, 64, 0
1, 97560, Note_on_c, 1, 69, 127
1, 97560, Note_on_c, 1, 66, 127
1, 97560, Note_on_c, 1, 59, 127
1, 97560, Note_on_c, 1, 51, 127
1, 97589, Note_off_c, 1, 69, 0
1, 97589, Note_off_c, 1, 59, 0
1, 97590, Note_on_c, 1, 68, 127
1, 97590, Note_on_c, 1, 61, 127
1, 97619, Note_off_c, 1, 66, 0
1, 97619, Note_off_c, 1, 51, 0
1, 97619, Note_off_c, 1, 68, 0
1, 97619, Note_off_c, 1, 61, 0
1, 97620, Note_on_c, 1, 66, 127
1, 97620, Note_on_c, 1, 63, 127
1, 97620, Note_on_c, 1, 51, 127
1, 97649, Note_off_c, 1, 63, 0
1, 97650, Note_on_c, 1, 64, 127
1, 97679, Note_off_c, 1, 66, 0
1, 97679, Note_off_c, 1, 51, 0
1, 97679, Note_off_c, 1, 64, 0
1, 97680, Note_on_c, 1, 66, 127
1, 97680, Note_on_c, 1, 63, 127
1, 97680, Note_on_c, 1, 47, 127
1, 97739, Note_off_c, 1, 66, 0
1, 97739, Note_off_c, 1, 63, 0
1, 97739, Note_off_c, 1, 47, 0
1, 97740, Note_on_c, 1, 59, 127
1, 97740, Note_on_c, 1, 63, 127
1, 97740, Note_on_c, 1, 54, 127
1, 97740, Note_on_c, 1, 47, 127
1, 97769, Note_off_c, 1, 59, 0
1, 97769, Note_off_c, 1, 63, 0
1, 97770, Note_on_c, 1, 69, 127
1, 97770, Note_on_c, 1, 64, 127
1, 97799, Note_off_c, 1, 54, 0
1, 97799, Note_off_c, 1, 47, 0
1, 97799, Note_off_c, 1, 69, 0
1, 97799, Note_off_c, 1, 64, 0
1, 97800, Note_on_c, 1, 71, 127
1, 97800, Note_on_c, 1, 66, 127
1, 97800, Note_on_c, 1, 63, 127
1, 97800, Note_on_c, 1, 47, 127
1, 97829, Note_off_c, 1, 71, 0
1, 97830, Note_on_c, 1, 69, 127
1, 97859, Note_off_c, 1, 66, 0
1, 97859, Note_off_c, 1, 63, 0
1, 97859, Note_off_c, 1, 47, 0
1, 97859, Note_off_c, 1, 69, 0
1, 97860, Note_on_c, 1, 68, 127
1, 97860, Note_on_c, 1, 66, 127
1, 97860, Note_on_c, 1, 63, 127
1, 97860, Note_on_c, 1, 47, 127
1, 97889, Note_off_c, 1, 68, 0
1, 97919, Note_off_c, 1, 66, 0
1, 97919, Note_off_c, 1, 63, 0
1, 97919, Note_off_c, 1, 47, 0
1, 97920, Note_on_c, 1, 69, 127
1, 97920, Note_on_c, 1, 64, 127
1, 97920, Note_on_c, 1, 59, 127
1, 97920, Note_on_c, 1, 52, 127
1, 97949, Note_off_c, 1, 69, 0
1, 97950, Note_on_c, 1, 68, 127
1, 97979, Note_off_c, 1, 64, 0
1, 97979, Note_off_c, 1, 59, 0
1, 97979, Note_off_c, 1, 52, 0
1, 97979, Note_off_c, 1, 68, 0
1, 97980, Note_on_c, 1, 66, 127
1, 97980, Note_on_c, 1, 59, 127
1, 97980, Note_on_c, 1, 44, 127
1, 98009, Note_off_c, 1, 66, 0
1, 98010, Note_on_c, 1, 64, 127
1, 98039, Note_off_c, 1, 59, 0
1, 98039, Note_off_c, 1, 44, 0
1, 98039, Note_off_c, 1, 64, 0
1, 98040, Note_on_c, 1, 66, 127
1, 98040, Note_on_c, 1, 61, 127
1, 98040, Note_on_c, 1, 57, 127
1, 98040, Note_on_c, 1, 45, 127
1, 98099, Note_off_c, 1, 66, 0
1, 98099, Note_off_c, 1, 61, 0
1, 98099, Note_off_c, 1, 57, 0
1, 98099, Note_off_c, 1, 45, 0
1, 98100, Note_on_c, 1, 63, 127
1, 98100, Note_on_c, 1, 59, 127
1, 98100, Note_on_c, 1, 54, 127
1, 98100, Note_on_c, 1, 47, 127
1, 98159, Note_off_c, 1, 63, 0
1, 98159, Note_off_c, 1, 59, 0
1, 98159, Note_off_c, 1, 54, 0
1, 98159, Note_off_c, 1, 47, 0
1, 98160, Note_on_c, 1, 64, 127
1, 98160, Note_on_c, 1, 59, 127
1, 98160, Note_on_c, 1, 56, 127
1, 98160, Note_on_c, 1, 40, 127
1, 98219, Note_off_c, 1, 64, 0
1, 98219, Note_off_c, 1, 59, 0
1, 98219, Note_off_c, 1, 56, 0
1, 98219, Note_off_c, 1, 40, 0
1, 98220, Note_on_c, 1, 68, 127
1, 98220, Note_on_c, 1, 56, 127
1, 98220, Note_on_c, 1, 44, 127
1, 98249, Note_off_c, 1, 68, 0
1, 98249, Note_off_c, 1, 44, 0
1, 98250, Note_off_c, 1, 56, 0
1, 98250, Note_on_c, 1, 69, 127
1, 98250, Note_on_c, 1, 57, 127
1, 98250, Note_on_c, 1, 45, 127
1, 98279, Note_off_c, 1, 69, 0
1, 98279, Note_off_c, 1, 45, 0
1, 98280, Note_off_c, 1, 57, 0
1, 98280, Note_on_c, 1, 71, 127
1, 98280, Note_on_c, 1, 59, 127
1, 98280, Note_on_c, 1, 47, 127
1, 98339, Note_off_c, 1, 71, 0
1, 98339, Note_off_c, 1, 59, 0
1, 98339, Note_off_c, 1, 47, 0
1, 98340, Note_on_c, 1, 73, 127
1, 98340, Note_on_c, 1, 61, 127
1, 98340, Note_on_c, 1, 49, 127
1, 98369, Note_off_c, 1, 73, 0
1, 98369, Note_off_c, 1, 61, 0
1, 98369, Note_off_c, 1, 49, 0
1, 98370, Note_on_c, 1, 75, 127
1, 98370, Note_on_c, 1, 63, 127
1, 98370, Note_on_c, 1, 51, 127
1, 98399, Note_off_c, 1, 75, 0
1, 98399, Note_off_c, 1, 63, 0
1, 98399, Note_off_c, 1, 51, 0
1, 98400, Note_on_c, 1, 76, 127
1, 98400, Note_on_c, 1, 64, 127
1, 98400, Note_on_c, 1, 52, 127
1, 98459, Note_off_c, 1, 76, 0
1, 98459, Note_off_c, 1, 64, 0
1, 98459, Note_off_c, 1, 52, 0
1, 98460, Note_on_c, 1, 83, 127
1, 98460, Note_on_c, 1, 76, 127
1, 98460, Note_on_c, 1, 64, 127
1, 98460, Note_on_c, 1, 54, 127
1, 98489, Note_off_c, 1, 64, 0
1, 98489, Note_off_c, 1, 54, 0
1, 98490, Note_on_c, 1, 66, 127
1, 98490, Note_on_c, 1, 56, 127
1, 98519, Note_off_c, 1, 83, 0
1, 98519, Note_off_c, 1, 76, 0
1, 98519, Note_off_c, 1, 66, 0
1, 98519, Note_off_c, 1, 56, 0
1, 98520, Note_on_c, 1, 71, 127
1, 98520, Note_on_c, 1, 76, 127
1, 98520, Note_on_c, 1, 68, 127
1, 98520, Note_on_c, 1, 59, 127
1, 98579, Note_off_c, 1, 71, 0
1, 98579, Note_off_c, 1, 76, 0
1, 98579, Note_off_c, 1, 68, 0
1, 98579, Note_off_c, 1, 59, 0
1, 98580, Note_on_c, 1, 75, 127
1, 98580, Note_on_c, 1, 71, 127
1, 98580, Note_on_c, 1, 66, 127
1, 98580, Note_on_c, 1, 47, 127
1, 98639, Note_off_c, 1, 75, 0
1, 98639, Note_off_c, 1, 71, 0
1, 98639, Note_off_c, 1, 66, 0
1, 98639, Note_off_c, 1, 47, 0
1, 98640, Note_on_c, 1, 76, 127
1, 98640, Note_on_c, 1, 71, 127
1, 98640, Note_on_c, 1, 68, 127
1, 98640, Note_on_c, 1, 52, 127
1, 98699, Note_off_c, 1, 52, 0
1, 98700, Note_on_c, 1, 51, 127
1, 98729, Note_off_c, 1, 51, 0
1, 98730, Note_on_c, 1, 49, 127
1, 98759, Note_off_c, 1, 76, 0
1, 98759, Note_off_c, 1, 71, 0
1, 98759, Note_off_c, 1, 68, 0
1, 98759, Note_off_c, 1, 49, 0
1, 98760, Note_on_c, 1, 47, 127
1, 98789, Note_off_c, 1, 47, 0
1, 98790, Note_on_c, 1, 45, 127
1, 98819, Note_off_c, 1, 45, 0
1, 98820, Note_on_c, 1, 52, 127
1, 98820, Note_on_c, 1, 44, 127
1, 98849, Note_off_c, 1, 44, 0
1, 98850, Note_on_c, 1, 42, 127
1, 98879, Note_off_c, 1, 52, 0
1, 98879, Note_off_c, 1, 42, 0
1, 98880, Note_on_c, 1, 62, 127
1, 98880, Note_on_c, 1, 40, 127
1, 98910, Note_on_c, 1, 71, 127
1, 98910, Note_on_c, 1, 64, 127
1, 98939, Note_off_c, 1, 62, 0
1, 98939, Note_off_c, 1, 40, 0
1, 98939, Note_off_c, 1, 71, 0
1, 98939, Note_off_c, 1, 64, 0
1, 98940, Note_on_c, 1, 76, 127
1, 98940, Note_on_c, 1, 68, 127
1, 98940, Note_on_c, 1, 62, 127
1, 98940, Note_on_c, 1, 40, 127
1, 98969, Note_off_c, 1, 76, 0
1, 98969, Note_off_c, 1, 68, 0
1, 98970, Note_on_c, 1, 78, 127
1, 98970, Note_on_c, 1, 69, 127
1, 98970, Note_on_c, 1, 66, 127
1, 98999, Note_off_c, 1, 62, 0
1, 98999, Note_off_c, 1, 40, 0
1, 98999, Note_off_c, 1, 78, 0
1, 98999, Note_off_c, 1, 69, 0
1, 98999, Note_off_c, 1, 66, 0
1, 99000, Note_on_c, 1, 80, 127
1, 99000, Note_on_c, 1, 71, 127
1, 99000, Note_on_c, 1, 64, 127
1, 99000, Note_on_c, 1, 62, 127
1, 99000, Note_on_c, 1, 40, 127
1, 99029, Note_off_c, 1, 80, 0
1, 99029, Note_off_c, 1, 71, 0
1, 99029, Note_off_c, 1, 64, 0
1, 99030, Note_on_c, 1, 76, 127
1, 99030, Note_on_c, 1, 68, 127
1, 99059, Note_off_c, 1, 62, 0
1, 99059, Note_off_c, 1, 40, 0
1, 99059, Note_off_c, 1, 76, 0
1, 99059, Note_off_c, 1, 68, 0
1, 99060, Note_on_c, 1, 71, 127
1, 99060, Note_on_c, 1, 64, 127
1, 99060, Note_on_c, 1, 62, 127
1, 99060, Note_on_c, 1, 40, 127
1, 99089, Note_off_c, 1, 71, 0
1, 99089, Note_off_c, 1, 64, 0
1, 99090, Note_on_c, 1, 76, 127
1, 99090, Note_on_c, 1, 68, 127
1, 99119, Note_off_c, 1, 62, 0
1, 99119, Note_off_c, 1, 40, 0
1, 99119, Note_off_c, 1, 76, 0
1, 99119, Note_off_c, 1, 68, 0
1, 99120, Note_on_c, 1, 80, 127
1, 99120, Note_on_c, 1, 71, 127
1, 99120, Note_on_c, 1, 65, 127
1, 99120, Note_on_c, 1, 62, 127
1, 99120, Note_on_c, 1, 41, 127
1, 99179, Note_off_c, 1, 80, 0
1, 99179, Note_off_c, 1, 71, 0
1, 99179, Note_off_c, 1, 65, 0
1, 99179, Note_off_c, 1, 62, 0
1, 99179, Note_off_c, 1, 41, 0
1, 99180, Note_on_c, 1, 61, 127
1, 99180, Note_on_c, 1, 41, 127
1, 99209, Note_off_c, 1, 61, 0
1, 99210, Note_on_c, 1, 59, 127
1, 99239, Note_off_c, 1, 41, 0
1, 99239, Note_off_c, 1, 59, 0
1, 99240, Note_on_c, 1, 61, 127
1, 99240, Note_on_c, 1, 41, 127
1, 99299, Note_off_c, 1, 61, 0
1, 99299, Note_off_c, 1, 41, 0
1, 99300, Note_on_c, 1, 56, 127
1, 99300, Note_on_c, 1, 41, 127
1, 99359, Note_off_c, 1, 56, 0
1, 99359, Note_off_c, 1, 41, 0
1, 99360, Note_on_c, 1, 57, 127
1, 99360, Note_on_c, 1, 42, 127
1, 99390, Note_on_c, 1, 73, 127
1, 99390, Note_on_c, 1, 66, 127
1, 99419, Note_off_c, 1, 42, 0
1, 99419, Note_off_c, 1, 73, 0
1, 99419, Note_off_c, 1, 66, 0
1, 99420, Note_on_c, 1, 78, 127
1, 99420, Note_on_c, 1, 69, 127
1, 99449, Note_off_c, 1, 78, 0
1, 99449, Note_off_c, 1, 69, 0
1, 99450, Note_on_c, 1, 80, 127
1, 99479, Note_off_c, 1, 80, 0
1, 99480, Note_on_c, 1, 81, 127
1, 99480, Note_on_c, 1, 61, 127
1, 99509, Note_off_c, 1, 81, 0
1, 99509, Note_off_c, 1, 61, 0
1, 99600, Note_on_c, 1, 79, 127
1, 99600, Note_on_c, 1, 76, 127
1, 99600, Note_on_c, 1, 64, 127
1, 99600, Note_on_c, 1, 49, 127
1, 99629, Note_off_c, 1, 79, 0
1, 99629, Note_off_c, 1, 76, 0
1, 99629, Note_off_c, 1, 64, 0
1, 99659, Note_off_c, 1, 49, 0
1, 99840, Note_on_c, 1, 74, 127
1, 99840, Note_on_c, 1, 50, 127
1, 99869, Note_off_c, 1, 74, 0
1, 99870, Note_on_c, 1, 62, 127
1, 99899, Note_off_c, 1, 50, 0
1, 99899, Note_off_c, 1, 62, 0
1, 99989, Note_off_c, 1, 57, 0
1, 100020, Note_on_c, 1, 69, 127
1, 100020, Note_on_c, 1, 66, 127
1, 100020, Note_on_c, 1, 54, 127
1, 100020, Note_on_c, 1, 50, 127
1, 100049, Note_off_c, 1, 69, 0
1, 100049, Note_off_c, 1, 66, 0
1, 100050, Note_on_c, 1, 74, 127
1, 100050, Note_on_c, 1, 62, 127
1, 100079, Note_off_c, 1, 54, 0
1, 100079, Note_off_c, 1, 50, 0
1, 100079, Note_off_c, 1, 74, 0
1, 100079, Note_off_c, 1, 62, 0
1, 100080, Note_on_c, 1, 78, 127
1, 100080, Note_on_c, 1, 73, 127
1, 100080, Note_on_c, 1, 61, 127
1, 100080, Note_on_c, 1, 64, 127
1, 100080, Note_on_c, 1, 46, 127
1, 100109, Note_off_c, 1, 78, 0
1, 100109, Note_off_c, 1, 73, 0
1, 100109, Note_off_c, 1, 61, 0
1, 100110, Note_on_c, 1, 70, 127
1, 100139, Note_off_c, 1, 64, 0
1, 100139, Note_off_c, 1, 46, 0
1, 100139, Note_off_c, 1, 70, 0
1, 100140, Note_on_c, 1, 70, 127
1, 100140, Note_on_c, 1, 66, 127
1, 100140, Note_on_c, 1, 64, 127
1, 100140, Note_on_c, 1, 46, 127
1, 100169, Note_off_c, 1, 70, 0
1, 100169, Note_off_c, 1, 66, 0
1, 100170, Note_on_c, 1, 73, 127
1, 100199, Note_off_c, 1, 64, 0
1, 100199, Note_off_c, 1, 46, 0
1, 100199, Note_off_c, 1, 73, 0
1, 100200, Note_on_c, 1, 78, 127
1, 100200, Note_on_c, 1, 73, 127
1, 100200, Note_on_c, 1, 61, 127
1, 100200, Note_on_c, 1, 64, 127
1, 100200, Note_on_c, 1, 46, 127
1, 100229, Note_off_c, 1, 78, 0
1, 100229, Note_off_c, 1, 73, 0
1, 100229, Note_off_c, 1, 61, 0
1, 100230, Note_on_c, 1, 70, 127
1, 100259, Note_off_c, 1, 64, 0
1, 100259, Note_off_c, 1, 46, 0
1, 100259, Note_off_c, 1, 70, 0
1, 100260, Note_on_c, 1, 70, 127
1, 100260, Note_on_c, 1, 66, 127
1, 100260, Note_on_c, 1, 64, 127
1, 100260, Note_on_c, 1, 46, 127
1, 100289, Note_off_c, 1, 70, 0
1, 100289, Note_off_c, 1, 66, 0
1, 100290, Note_on_c, 1, 73, 127
1, 100319, Note_off_c, 1, 64, 0
1, 100319, Note_off_c, 1, 46, 0
1, 100319, Note_off_c, 1, 73, 0
1, 100320, Note_on_c, 1, 66, 127
1, 100320, Note_on_c, 1, 59, 127
1, 100320, Note_on_c, 1, 54, 127
1, 100320, Note_on_c, 1, 64, 127
1, 100320, Note_on_c, 1, 47, 127
1, 100320, Note_on_c, 1, 71, 127
1, 100349, Note_off_c, 1, 64, 0
1, 100350, Note_on_c, 1, 62, 127
1, 100379, Note_off_c, 1, 66, 0
1, 100379, Note_off_c, 1, 59, 0
1, 100379, Note_off_c, 1, 54, 0
1, 100379, Note_off_c, 1, 47, 0
1, 100379, Note_off_c, 1, 71, 0
1, 100379, Note_off_c, 1, 62, 0
1, 100380, Note_on_c, 1, 61, 127
1, 100380, Note_on_c, 1, 45, 127
1, 100409, Note_off_c, 1, 61, 0
1, 100409, Note_off_c, 1, 45, 0
1, 100410, Note_on_c, 1, 59, 127
1, 100410, Note_on_c, 1, 44, 127
1, 100439, Note_off_c, 1, 59, 0
1, 100439, Note_off_c, 1, 44, 0
1, 100440, Note_on_c, 1, 61, 127
1, 100440, Note_on_c, 1, 45, 127
1, 100499, Note_off_c, 1, 61, 0
1, 100499, Note_off_c, 1, 45, 0
1, 100500, Note_on_c, 1, 54, 127
1, 100500, Note_on_c, 1, 47, 127
1, 100559, Note_off_c, 1, 54, 0
1, 100559, Note_off_c, 1, 47, 0
1, 100560, Note_on_c, 1, 53, 127
1, 100560, Note_on_c, 1, 49, 127
1, 100619, Note_off_c, 1, 49, 0
1, 100620, Note_on_c, 1, 51, 127
1, 100649, Note_off_c, 1, 51, 0
1, 100679, Note_off_c, 1, 53, 0
1, 100680, Note_on_c, 1, 54, 127
1, 100709, Note_off_c, 1, 54, 0
1, 100710, Note_on_c, 1, 53, 127
1, 100739, Note_off_c, 1, 53, 0
1, 100740, Note_on_c, 1, 73, 127
1, 100740, Note_on_c, 1, 69, 127
1, 100740, Note_on_c, 1, 66, 127
1, 100740, Note_on_c, 1, 49, 127
1, 100740, Note_on_c, 1, 54, 127
1, 100769, Note_off_c, 1, 69, 0
1, 100769, Note_off_c, 1, 54, 0
1, 100770, Note_on_c, 1, 71, 127
1, 100770, Note_on_c, 1, 56, 127
1, 100799, Note_off_c, 1, 73, 0
1, 100799, Note_off_c, 1, 66, 0
1, 100799, Note_off_c, 1, 49, 0
1, 100799, Note_off_c, 1, 71, 0
1, 100799, Note_off_c, 1, 56, 0
1, 100800, Note_on_c, 1, 78, 127
1, 100800, Note_on_c, 1, 73, 127
1, 100800, Note_on_c, 1, 61, 127
1, 100800, Note_on_c, 1, 54, 127
1, 100800, Note_on_c, 1, 57, 127
1, 100859, Note_off_c, 1, 73, 0
1, 100859, Note_off_c, 1, 61, 0
1, 100859, Note_off_c, 1, 54, 0
1, 100859, Note_off_c, 1, 57, 0
1, 100860, Note_on_c, 1, 74, 127
1, 100860, Note_on_c, 1, 59, 127
1, 100875, Note_off_c, 1, 78, 0
1, 100890, Note_on_c, 1, 71, 127
1, 100904, Note_off_c, 1, 71, 0
1, 100919, Note_off_c, 1, 74, 0
1, 100919, Note_off_c, 1, 59, 0
1, 100920, Note_on_c, 1, 78, 127
1, 100920, Note_on_c, 1, 73, 127
1, 100920, Note_on_c, 1, 61, 127
1, 100920, Note_on_c, 1, 66, 127
1, 100920, Note_on_c, 1, 57, 127
1, 100979, Note_off_c, 1, 73, 0
1, 100979, Note_off_c, 1, 61, 0
1, 100979, Note_off_c, 1, 66, 0
1, 100979, Note_off_c, 1, 57, 0
1, 100980, Note_on_c, 1, 71, 127
1, 100980, Note_on_c, 1, 62, 127
1, 100980, Note_on_c, 1, 54, 127
1, 100980, Note_on_c, 1, 56, 127
1, 100995, Note_off_c, 1, 78, 0
1, 101039, Note_off_c, 1, 71, 0
1, 101039, Note_off_c, 1, 62, 0
1, 101039, Note_off_c, 1, 54, 0
1, 101039, Note_off_c, 1, 56, 0
1, 101040, Note_on_c, 1, 73, 127
1, 101040, Note_on_c, 1, 61, 127
1, 101040, Note_on_c, 1, 54, 127
1, 101040, Note_on_c, 1, 57, 127
1, 101041, Note_on_c, 1, 78, 127
1, 101099, Note_off_c, 1, 73, 0
1, 101099, Note_off_c, 1, 61, 0
1, 101099, Note_off_c, 1, 54, 0
1, 101099, Note_off_c, 1, 57, 0
1, 101100, Note_on_c, 1, 71, 127
1, 101100, Note_on_c, 1, 49, 127
1, 101100, Note_on_c, 1, 56, 127
1, 101116, Note_off_c, 1, 78, 0
1, 101129, Note_off_c, 1, 71, 0
1, 101129, Note_off_c, 1, 49, 0
1, 101129, Note_off_c, 1, 56, 0
1, 101160, Note_on_c, 1, 69, 127
1, 101219, Note_off_c, 1, 69, 0
1, 101250, Note_on_c, 1, 53, 127
1, 101279, Note_off_c, 1, 53, 0
1, 101340, Note_on_c, 1, 66, 127
1, 101400, Note_on_c, 1, 59, 127
1, 101429, Note_off_c, 1, 66, 0
1, 101429, Note_off_c, 1, 59, 0
1, 101520, Note_on_c, 1, 80, 127
1, 101550, Note_on_c, 1, 68, 127
1, 101579, Note_off_c, 1, 68, 0
1, 101580, Note_on_c, 1, 65, 127
1, 101580, Note_on_c, 1, 51, 127
1, 101595, Note_off_c, 1, 80, 0
1, 101609, Note_off_c, 1, 51, 0
1, 101669, Note_off_c, 1, 65, 0
1, 101670, Note_on_c, 1, 74, 127
1, 101699, Note_off_c, 1, 74, 0
1, 101760, Note_on_c, 1, 81, 127
1, 101835, Note_off_c, 1, 81, 0
1, 101880, Note_on_c, 1, 42, 127
1, 101939, Note_off_c, 1, 42, 0
1, 101940, Note_on_c, 1, 45, 127
1, 101970, Note_on_c, 1, 76, 127
1, 101999, Note_off_c, 1, 45, 0
1, 101999, Note_off_c, 1, 76, 0
1, 102000, Note_on_c, 1, 81, 127
1, 102000, Note_on_c, 1, 74, 127
1, 102000, Note_on_c, 1, 59, 127
1, 102000, Note_on_c, 1, 62, 127
1, 102000, Note_on_c, 1, 47, 127
1, 102014, Note_off_c, 1, 81, 0
1, 102015, Note_on_c, 1, 71, 127
1, 102029, Note_off_c, 1, 71, 0
1, 102030, Note_on_c, 1, 73, 127
1, 102044, Note_off_c, 1, 73, 0
1, 102059, Note_off_c, 1, 74, 0
1, 102059, Note_off_c, 1, 59, 0
1, 102059, Note_off_c, 1, 62, 0
1, 102059, Note_off_c, 1, 47, 0
1, 102060, Note_on_c, 1, 76, 127
1, 102060, Note_on_c, 1, 71, 127
1, 102060, Note_on_c, 1, 59, 127
1, 102060, Note_on_c, 1, 62, 127
1, 102074, Note_off_c, 1, 76, 0
1, 102075, Note_on_c, 1, 78, 127
1, 102089, Note_off_c, 1, 78, 0
1, 102090, Note_on_c, 1, 80, 127
1, 102090, Note_on_c, 1, 57, 127
1, 102104, Note_off_c, 1, 80, 0
1, 102105, Note_on_c, 1, 81, 127
1, 102119, Note_off_c, 1, 71, 0
1, 102119, Note_off_c, 1, 59, 0
1, 102119, Note_off_c, 1, 62, 0
1, 102119, Note_off_c, 1, 57, 0
1, 102119, Note_off_c, 1, 81, 0
1, 102120, Note_on_c, 1, 83, 127
1, 102120, Note_on_c, 1, 71, 127
1, 102120, Note_on_c, 1, 59, 127
1, 102120, Note_on_c, 1, 62, 127
1, 102120, Note_on_c, 1, 56, 127
1, 102134, Note_off_c, 1, 83, 0
1, 102135, Note_on_c, 1, 80, 127
1, 102149, Note_off_c, 1, 80, 0
1, 102150, Note_on_c, 1, 78, 127
1, 102164, Note_off_c, 1, 78, 0
1, 102179, Note_off_c, 1, 71, 0
1, 102179, Note_off_c, 1, 59, 0
1, 102179, Note_off_c, 1, 62, 0
1, 102179, Note_off_c, 1, 56, 0
1, 102180, Note_on_c, 1, 81, 127
1, 102180, Note_on_c, 1, 74, 127
1, 102180, Note_on_c, 1, 66, 127
1, 102180, Note_on_c, 1, 62, 127
1, 102180, Note_on_c, 1, 54, 127
1, 102194, Note_off_c, 1, 81, 0
1, 102195, Note_on_c, 1, 78, 127
1, 102209, Note_off_c, 1, 78, 0
1, 102210, Note_on_c, 1, 76, 127
1, 102224, Note_off_c, 1, 76, 0
1, 102239, Note_off_c, 1, 74, 0
1, 102239, Note_off_c, 1, 66, 0
1, 102239, Note_off_c, 1, 62, 0
1, 102239, Note_off_c, 1, 54, 0
1, 102240, Note_on_c, 1, 80, 127
1, 102240, Note_on_c, 1, 76, 127
1, 102240, Note_on_c, 1, 71, 127
1, 102240, Note_on_c, 1, 62, 127
1, 102240, Note_on_c, 1, 52, 127
1, 102269, Note_off_c, 1, 76, 0
1, 102299, Note_off_c, 1, 71, 0
1, 102299, Note_off_c, 1, 62, 0
1, 102299, Note_off_c, 1, 52, 0
1, 102300, Note_on_c, 1, 64, 127
1, 102300, Note_on_c, 1, 59, 127
1, 102300, Note_on_c, 1, 56, 127
1, 102300, Note_on_c, 1, 40, 127
1, 102315, Note_off_c, 1, 80, 0
1, 102329, Note_off_c, 1, 56, 0
1, 102330, Note_on_c, 1, 69, 127
1, 102344, Note_off_c, 1, 69, 0
1, 102359, Note_off_c, 1, 59, 0
1, 102359, Note_off_c, 1, 40, 0
1, 102389, Note_off_c, 1, 64, 0
1, 102420, Note_on_c, 1, 61, 127
1, 102449, Note_off_c, 1, 61, 0
1, 102450, Note_on_c, 1, 74, 127
1, 102479, Note_off_c, 1, 74, 0
1, 102480, Note_on_c, 1, 80, 127
1, 102480, Note_on_c, 1, 73, 127
1, 102480, Note_on_c, 1, 57, 127
1, 102480, Note_on_c, 1, 61, 127
1, 102480, Note_on_c, 1, 45, 127
1, 102494, Note_off_c, 1, 80, 0
1, 102495, Note_on_c, 1, 69, 127
1, 102509, Note_off_c, 1, 69, 0
1, 102510, Note_on_c, 1, 71, 127
1, 102524, Note_off_c, 1, 71, 0
1, 102539, Note_off_c, 1, 73, 0
1, 102539, Note_off_c, 1, 57, 0
1, 102539, Note_off_c, 1, 45, 0
1, 102540, Note_on_c, 1, 74, 127
1, 102554, Note_off_c, 1, 74, 0
1, 102555, Note_on_c, 1, 76, 127
1, 102569, Note_off_c, 1, 61, 0
1, 102569, Note_off_c, 1, 76, 0
1, 102570, Note_on_c, 1, 78, 127
1, 102570, Note_on_c, 1, 56, 127
1, 102584, Note_off_c, 1, 78, 0
1, 102599, Note_off_c, 1, 56, 0
1, 102600, Note_on_c, 1, 81, 127
1, 102600, Note_on_c, 1, 69, 127
1, 102600, Note_on_c, 1, 57, 127
1, 102600, Note_on_c, 1, 61, 127
1, 102600, Note_on_c, 1, 54, 127
1, 102614, Note_off_c, 1, 81, 0
1, 102615, Note_on_c, 1, 78, 127
1, 102629, Note_off_c, 1, 78, 0
1, 102630, Note_on_c, 1, 76, 127
1, 102644, Note_off_c, 1, 76, 0
1, 102659, Note_off_c, 1, 69, 0
1, 102659, Note_off_c, 1, 57, 0
1, 102659, Note_off_c, 1, 54, 0
1, 102660, Note_on_c, 1, 80, 127
1, 102660, Note_on_c, 1, 73, 127
1, 102660, Note_on_c, 1, 64, 127
1, 102660, Note_on_c, 1, 52, 127
1, 102674, Note_off_c, 1, 80, 0
1, 102689, Note_off_c, 1, 61, 0
1, 102690, Note_on_c, 1, 74, 127
1, 102704, Note_off_c, 1, 74, 0
1, 102719, Note_off_c, 1, 73, 0
1, 102719, Note_off_c, 1, 64, 0
1, 102719, Note_off_c, 1, 52, 0
1, 102720, Note_on_c, 1, 78, 127
1, 102720, Note_on_c, 1, 74, 127
1, 102720, Note_on_c, 1, 69, 127
1, 102720, Note_on_c, 1, 61, 127
1, 102720, Note_on_c, 1, 50, 127
1, 102749, Note_off_c, 1, 74, 0
1, 102779, Note_off_c, 1, 69, 0
1, 102779, Note_off_c, 1, 61, 0
1, 102779, Note_off_c, 1, 50, 0
1, 102780, Note_on_c, 1, 62, 127
1, 102780, Note_on_c, 1, 57, 127
1, 102780, Note_on_c, 1, 54, 127
1, 102780, Note_on_c, 1, 38, 127
1, 102795, Note_off_c, 1, 78, 0
1, 102809, Note_off_c, 1, 54, 0
1, 102810, Note_on_c, 1, 68, 127
1, 102824, Note_off_c, 1, 68, 0
1, 102839, Note_off_c, 1, 57, 0
1, 102839, Note_off_c, 1, 38, 0
1, 102869, Note_off_c, 1, 62, 0
1, 102900, Note_on_c, 1, 59, 127
1, 102929, Note_off_c, 1, 59, 0
1, 102930, Note_on_c, 1, 73, 127
1, 102959, Note_off_c, 1, 73, 0
1, 102960, Note_on_c, 1, 78, 127
1, 102960, Note_on_c, 1, 71, 127
1, 102960, Note_on_c, 1, 56, 127
1, 102960, Note_on_c, 1, 59, 127
1, 102960, Note_on_c, 1, 43, 127
1, 102960, Note_on_c, 1, 44, 127
1, 102974, Note_off_c, 1, 78, 0
1, 102975, Note_on_c, 1, 68, 127
1, 102989, Note_off_c, 1, 68, 0
1, 102990, Note_on_c, 1, 69, 127
1, 103004, Note_off_c, 1, 69, 0
1, 103019, Note_off_c, 1, 71, 0
1, 103019, Note_off_c, 1, 56, 0
1, 103019, Note_off_c, 1, 43, 0
1, 103019, Note_off_c, 1, 44, 0
1, 103020, Note_on_c, 1, 73, 127
1, 103034, Note_off_c, 1, 73, 0
1, 103035, Note_on_c, 1, 74, 127
1, 103049, Note_off_c, 1, 59, 0
1, 103049, Note_off_c, 1, 74, 0
1, 103050, Note_on_c, 1, 76, 127
1, 103050, Note_on_c, 1, 54, 127
1, 103064, Note_off_c, 1, 76, 0
1, 103079, Note_off_c, 1, 54, 0
1, 103080, Note_on_c, 1, 80, 127
1, 103080, Note_on_c, 1, 68, 127
1, 103080, Note_on_c, 1, 56, 127
1, 103080, Note_on_c, 1, 59, 127
1, 103080, Note_on_c, 1, 53, 127
1, 103094, Note_off_c, 1, 80, 0
1, 103095, Note_on_c, 1, 71, 127
1, 103109, Note_off_c, 1, 71, 0
1, 103110, Note_on_c, 1, 69, 127
1, 103124, Note_off_c, 1, 69, 0
1, 103139, Note_off_c, 1, 68, 0
1, 103139, Note_off_c, 1, 56, 0
1, 103139, Note_off_c, 1, 53, 0
1, 103140, Note_on_c, 1, 78, 127
1, 103140, Note_on_c, 1, 63, 127
1, 103140, Note_on_c, 1, 51, 127
1, 103154, Note_off_c, 1, 78, 0
1, 103169, Note_off_c, 1, 59, 0
1, 103199, Note_off_c, 1, 63, 0
1, 103199, Note_off_c, 1, 51, 0
1, 103200, Note_on_c, 1, 77, 127
1, 103200, Note_on_c, 1, 73, 127
1, 103200, Note_on_c, 1, 68, 127
1, 103200, Note_on_c, 1, 59, 127
1, 103200, Note_on_c, 1, 49, 127
1, 103259, Note_off_c, 1, 77, 0
1, 103259, Note_off_c, 1, 73, 0
1, 103259, Note_off_c, 1, 68, 0
1, 103259, Note_off_c, 1, 59, 0
1, 103259, Note_off_c, 1, 49, 0
1, 103260, Note_on_c, 1, 73, 127
1, 103260, Note_on_c, 1, 68, 127
1, 103260, Note_on_c, 1, 56, 127
1, 103260, Note_on_c, 1, 53, 127
1, 103260, Note_on_c, 1, 37, 127
1, 103289, Note_off_c, 1, 53, 0
1, 103319, Note_off_c, 1, 73, 0
1, 103319, Note_off_c, 1, 68, 0
1, 103319, Note_off_c, 1, 56, 0
1, 103319, Note_off_c, 1, 37, 0
1, 103320, Note_on_c, 1, 61, 127
1, 103320, Note_on_c, 1, 37, 127
1, 103349, Note_off_c, 1, 61, 0
1, 103350, Note_on_c, 1, 59, 127
1, 103379, Note_off_c, 1, 37, 0
1, 103379, Note_off_c, 1, 59, 0
1, 103380, Note_on_c, 1, 57, 127
1, 103380, Note_on_c, 1, 37, 127
1, 103409, Note_off_c, 1, 57, 0
1, 103410, Note_on_c, 1, 56, 127
1, 103439, Note_off_c, 1, 37, 0
1, 103439, Note_off_c, 1, 56, 0
1, 103440, Note_on_c, 1, 57, 127
1, 103440, Note_on_c, 1, 42, 127
1, 103469, Note_off_c, 1, 42, 0
1, 103470, Note_on_c, 1, 54, 127
1, 103499, Note_off_c, 1, 57, 0
1, 103499, Note_off_c, 1, 54, 0
1, 103500, Note_on_c, 1, 59, 127
1, 103500, Note_on_c, 1, 56, 127
1, 103529, Note_off_c, 1, 59, 0
1, 103529, Note_off_c, 1, 56, 0
1, 103530, Note_on_c, 1, 61, 127
1, 103530, Note_on_c, 1, 57, 127
1, 103559, Note_off_c, 1, 61, 0
1, 103559, Note_off_c, 1, 57, 0
1, 103560, Note_on_c, 1, 62, 127
1, 103560, Note_on_c, 1, 59, 127
1, 103589, Note_off_c, 1, 59, 0
1, 103590, Note_on_c, 1, 56, 127
1, 103619, Note_off_c, 1, 62, 0
1, 103619, Note_off_c, 1, 56, 0
1, 103620, Note_on_c, 1, 73, 127
1, 103620, Note_on_c, 1, 69, 127
1, 103620, Note_on_c, 1, 66, 127
1, 103620, Note_on_c, 1, 61, 127
1, 103620, Note_on_c, 1, 57, 127
1, 103649, Note_off_c, 1, 73, 0
1, 103649, Note_off_c, 1, 57, 0
1, 103650, Note_on_c, 1, 75, 127
1, 103650, Note_on_c, 1, 59, 127
1, 103679, Note_off_c, 1, 69, 0
1, 103679, Note_off_c, 1, 66, 0
1, 103679, Note_off_c, 1, 61, 0
1, 103679, Note_off_c, 1, 75, 0
1, 103679, Note_off_c, 1, 59, 0
1, 103680, Note_on_c, 1, 77, 127
1, 103680, Note_on_c, 1, 68, 127
1, 103680, Note_on_c, 1, 56, 127
1, 103680, Note_on_c, 1, 61, 127
1, 103739, Note_off_c, 1, 77, 0
1, 103739, Note_off_c, 1, 68, 0
1, 103739, Note_off_c, 1, 56, 0
1, 103739, Note_off_c, 1, 61, 0
1, 103740, Note_on_c, 1, 78, 127
1, 103740, Note_on_c, 1, 73, 127
1, 103740, Note_on_c, 1, 61, 127
1, 103740, Note_on_c, 1, 57, 127
1, 103740, Note_on_c, 1, 49, 127
1, 103799, Note_off_c, 1, 78, 0
1, 103799, Note_off_c, 1, 73, 0
1, 103799, Note_off_c, 1, 61, 0
1, 103799, Note_off_c, 1, 57, 0
1, 103799, Note_off_c, 1, 49, 0
1, 103800, Note_on_c, 1, 77, 127
1, 103800, Note_on_c, 1, 71, 127
1, 103800, Note_on_c, 1, 61, 127
1, 103800, Note_on_c, 1, 56, 127
1, 103800, Note_on_c, 1, 49, 127
1, 103859, Note_off_c, 1, 77, 0
1, 103859, Note_off_c, 1, 71, 0
1, 103859, Note_off_c, 1, 61, 0
1, 103859, Note_off_c, 1, 56, 0
1, 103859, Note_off_c, 1, 49, 0
1, 103860, Note_on_c, 1, 75, 127
1, 103860, Note_on_c, 1, 69, 127
1, 103860, Note_on_c, 1, 61, 127
1, 103860, Note_on_c, 1, 54, 127
1, 103860, Note_on_c, 1, 49, 127
1, 103919, Note_off_c, 1, 75, 0
1, 103919, Note_off_c, 1, 69, 0
1, 103919, Note_off_c, 1, 61, 0
1, 103919, Note_off_c, 1, 54, 0
1, 103919, Note_off_c, 1, 49, 0
1, 103920, Note_on_c, 1, 77, 127
1, 103920, Note_on_c, 1, 68, 127
1, 103920, Note_on_c, 1, 61, 127
1, 103920, Note_on_c, 1, 56, 127
1, 103920, Note_on_c, 1, 49, 127
1, 103979, Note_off_c, 1, 77, 0
1, 103979, Note_off_c, 1, 56, 0
1, 103979, Note_off_c, 1, 49, 0
1, 103980, Note_on_c, 1, 75, 127
1, 104009, Note_off_c, 1, 75, 0
1, 104010, Note_on_c, 1, 51, 127
1, 104039, Note_off_c, 1, 68, 0
1, 104039, Note_off_c, 1, 61, 0
1, 104039, Note_off_c, 1, 51, 0
1, 104040, Note_on_c, 1, 73, 127
1, 104040, Note_on_c, 1, 53, 127
1, 104040, Note_on_c, 1, 49, 127
1, 104069, Note_off_c, 1, 53, 0
1, 104070, Note_on_c, 1, 54, 127
1, 104099, Note_off_c, 1, 73, 0
1, 104099, Note_off_c, 1, 49, 0
1, 104099, Note_off_c, 1, 54, 0
1, 104100, Note_on_c, 1, 85, 127
1, 104100, Note_on_c, 1, 68, 127
1, 104100, Note_on_c, 1, 65, 127
1, 104100, Note_on_c, 1, 56, 127
1, 104100, Note_on_c, 1, 49, 127
1, 104129, Note_off_c, 1, 56, 0
1, 104130, Note_on_c, 1, 57, 127
1, 104159, Note_off_c, 1, 85, 0
1, 104159, Note_off_c, 1, 68, 0
1, 104159, Note_off_c, 1, 65, 0
1, 104159, Note_off_c, 1, 49, 0
1, 104159, Note_off_c, 1, 57, 0
1, 104160, Note_on_c, 1, 78, 127
1, 104160, Note_on_c, 1, 66, 127
1, 104160, Note_on_c, 1, 71, 127
1, 104160, Note_on_c, 1, 59, 127
1, 104160, Note_on_c, 1, 50, 127
1, 104219, Note_off_c, 1, 78, 0
1, 104219, Note_off_c, 1, 59, 0
1, 104219, Note_off_c, 1, 50, 0
1, 104220, Note_on_c, 1, 81, 127
1, 104220, Note_on_c, 1, 54, 127
1, 104249, Note_off_c, 1, 81, 0
1, 104249, Note_off_c, 1, 54, 0
1, 104250, Note_on_c, 1, 80, 127
1, 104279, Note_off_c, 1, 71, 0
1, 104279, Note_off_c, 1, 80, 0
1, 104280, Note_off_c, 1, 66, 0
1, 104280, Note_on_c, 1, 62, 127
1, 104309, Note_off_c, 1, 62, 0
1, 104310, Note_on_c, 1, 61, 127
1, 104339, Note_off_c, 1, 61, 0
1, 104340, Note_on_c, 1, 78, 127
1, 104340, Note_on_c, 1, 74, 127
1, 104340, Note_on_c, 1, 71, 127
1, 104340, Note_on_c, 1, 59, 127
1, 104340, Note_on_c, 1, 50, 127
1, 104369, Note_off_c, 1, 59, 0
1, 104370, Note_on_c, 1, 57, 127
1, 104399, Note_off_c, 1, 78, 0
1, 104399, Note_off_c, 1, 74, 0
1, 104399, Note_off_c, 1, 71, 0
1, 104399, Note_off_c, 1, 50, 0
1, 104399, Note_off_c, 1, 57, 0
1, 104400, Note_on_c, 1, 78, 127
1, 104400, Note_on_c, 1, 71, 127
1, 104400, Note_on_c, 1, 62, 127
1, 104400, Note_on_c, 1, 59, 127
1, 104400, Note_on_c, 1, 44, 127
1, 104400, Note_on_c, 1, 74, 127
1, 104459, Note_off_c, 1, 78, 0
1, 104459, Note_off_c, 1, 59, 0
1, 104459, Note_off_c, 1, 44, 0
1, 104460, Note_on_c, 1, 75, 127
1, 104460, Note_on_c, 1, 54, 127
1, 104489, Note_off_c, 1, 75, 0
1, 104489, Note_off_c, 1, 54, 0
1, 104490, Note_on_c, 1, 77, 127
1, 104519, Note_off_c, 1, 62, 0
1, 104519, Note_off_c, 1, 74, 0
1, 104519, Note_off_c, 1, 77, 0
1, 104520, Note_off_c, 1, 71, 0
1, 104550, Note_on_c, 1, 61, 127
1, 104579, Note_off_c, 1, 61, 0
1, 104580, Note_on_c, 1, 78, 127
1, 104580, Note_on_c, 1, 71, 127
1, 104580, Note_on_c, 1, 62, 127
1, 104580, Note_on_c, 1, 59, 127
1, 104580, Note_on_c, 1, 44, 127
1, 104609, Note_off_c, 1, 59, 0
1, 104610, Note_on_c, 1, 57, 127
1, 104639, Note_off_c, 1, 78, 0
1, 104639, Note_off_c, 1, 71, 0
1, 104639, Note_off_c, 1, 62, 0
1, 104639, Note_off_c, 1, 44, 0
1, 104639, Note_off_c, 1, 57, 0
1, 104640, Note_on_c, 1, 80, 127
1, 104640, Note_on_c, 1, 68, 127
1, 104640, Note_on_c, 1, 61, 127
1, 104640, Note_on_c, 1, 59, 127
1, 104640, Note_on_c, 1, 41, 127
1, 104699, Note_off_c, 1, 80, 0
1, 104699, Note_off_c, 1, 59, 0
1, 104699, Note_off_c, 1, 41, 0
1, 104700, Note_on_c, 1, 77, 127
1, 104700, Note_on_c, 1, 56, 127
1, 104729, Note_off_c, 1, 77, 0
1, 104729, Note_off_c, 1, 56, 0
1, 104730, Note_on_c, 1, 78, 127
1, 104730, Note_on_c, 1, 57, 127
1, 104759, Note_off_c, 1, 61, 0
1, 104759, Note_off_c, 1, 78, 0
1, 104759, Note_off_c, 1, 57, 0
1, 104760, Note_off_c, 1, 68, 0
1, 104820, Note_on_c, 1, 80, 127
1, 104820, Note_on_c, 1, 71, 127
1, 104820, Note_on_c, 1, 56, 127
1, 104820, Note_on_c, 1, 41, 127
1, 104849, Note_off_c, 1, 56, 0
1, 104850, Note_on_c, 1, 54, 127
1, 104879, Note_off_c, 1, 80, 0
1, 104879, Note_off_c, 1, 71, 0
1, 104879, Note_off_c, 1, 41, 0
1, 104879, Note_off_c, 1, 54, 0
1, 104880, Note_on_c, 1, 80, 127
1, 104880, Note_on_c, 1, 77, 127
1, 104880, Note_on_c, 1, 71, 127
1, 104880, Note_on_c, 1, 56, 127
1, 104880, Note_on_c, 1, 37, 127
1, 104939, Note_off_c, 1, 80, 0
1, 104939, Note_off_c, 1, 56, 0
1, 104939, Note_off_c, 1, 37, 0
1, 104940, Note_on_c, 1, 83, 127
1, 104940, Note_on_c, 1, 53, 127
1, 104969, Note_off_c, 1, 83, 0
1, 104969, Note_off_c, 1, 53, 0
1, 104970, Note_on_c, 1, 81, 127
1, 104999, Note_off_c, 1, 71, 0
1, 104999, Note_off_c, 1, 81, 0
1, 105000, Note_off_c, 1, 77, 0
1, 105000, Note_on_c, 1, 61, 127
1, 105029, Note_off_c, 1, 61, 0
1, 105030, Note_on_c, 1, 59, 127
1, 105059, Note_off_c, 1, 59, 0
1, 105060, Note_on_c, 1, 80, 127
1, 105060, Note_on_c, 1, 77, 127
1, 105060, Note_on_c, 1, 73, 127
1, 105060, Note_on_c, 1, 57, 127
1, 105060, Note_on_c, 1, 37, 127
1, 105089, Note_off_c, 1, 57, 0
1, 105090, Note_on_c, 1, 56, 127
1, 105119, Note_off_c, 1, 80, 0
1, 105119, Note_off_c, 1, 77, 0
1, 105119, Note_off_c, 1, 73, 0
1, 105119, Note_off_c, 1, 37, 0
1, 105119, Note_off_c, 1, 56, 0
1, 105120, Note_on_c, 1, 80, 127
1, 105120, Note_on_c, 1, 73, 127
1, 105120, Note_on_c, 1, 61, 127
1, 105120, Note_on_c, 1, 59, 127
1, 105120, Note_on_c, 1, 42, 127
1, 105149, Note_off_c, 1, 80, 0
1, 105149, Note_off_c, 1, 59, 0
1, 105150, Note_on_c, 1, 78, 127
1, 105150, Note_on_c, 1, 57, 127
1, 105179, Note_off_c, 1, 42, 0
1, 105179, Note_off_c, 1, 78, 0
1, 105179, Note_off_c, 1, 57, 0
1, 105180, Note_on_c, 1, 77, 127
1, 105180, Note_on_c, 1, 56, 127
1, 105180, Note_on_c, 1, 50, 127
1, 105209, Note_off_c, 1, 77, 0
1, 105209, Note_off_c, 1, 56, 0
1, 105210, Note_on_c, 1, 54, 127
1, 105239, Note_off_c, 1, 61, 0
1, 105239, Note_off_c, 1, 50, 0
1, 105239, Note_off_c, 1, 54, 0
1, 105240, Note_off_c, 1, 73, 0
1, 105240, Note_on_c, 1, 83, 127
1, 105240, Note_on_c, 1, 47, 127
1, 105299, Note_off_c, 1, 83, 0
1, 105299, Note_off_c, 1, 47, 0
1, 105300, Note_on_c, 1, 80, 127
1, 105300, Note_on_c, 1, 71, 127
1, 105300, Note_on_c, 1, 61, 127
1, 105300, Note_on_c, 1, 53, 127
1, 105300, Note_on_c, 1, 49, 127
1, 105359, Note_off_c, 1, 80, 0
1, 105359, Note_off_c, 1, 71, 0
1, 105359, Note_off_c, 1, 61, 0
1, 105359, Note_off_c, 1, 53, 0
1, 105359, Note_off_c, 1, 49, 0
1, 105360, Note_on_c, 1, 78, 127
1, 105360, Note_on_c, 1, 69, 127
1, 105360, Note_on_c, 1, 61, 127
1, 105360, Note_on_c, 1, 54, 127
1, 105360, Note_on_c, 1, 42, 127
1, 105419, Note_off_c, 1, 78, 0
1, 105419, Note_off_c, 1, 69, 0
1, 105419, Note_off_c, 1, 61, 0
1, 105419, Note_off_c, 1, 54, 0
1, 105419, Note_off_c, 1, 42, 0
1, 105420, Note_on_c, 1, 69, 127
1, 105420, Note_on_c, 1, 57, 127
1, 105420, Note_on_c, 1, 45, 127
1, 105449, Note_off_c, 1, 57, 0
1, 105449, Note_off_c, 1, 45, 0
1, 105450, Note_off_c, 1, 69, 0
1, 105450, Note_on_c, 1, 71, 127
1, 105450, Note_on_c, 1, 59, 127
1, 105450, Note_on_c, 1, 47, 127
1, 105479, Note_off_c, 1, 59, 0
1, 105479, Note_off_c, 1, 47, 0
1, 105480, Note_off_c, 1, 71, 0
1, 105480, Note_on_c, 1, 73, 127
1, 105480, Note_on_c, 1, 61, 127
1, 105480, Note_on_c, 1, 49, 127
1, 105539, Note_off_c, 1, 73, 0
1, 105539, Note_off_c, 1, 61, 0
1, 105539, Note_off_c, 1, 49, 0
1, 105540, Note_on_c, 1, 75, 127
1, 105540, Note_on_c, 1, 63, 127
1, 105540, Note_on_c, 1, 51, 127
1, 105569, Note_off_c, 1, 63, 0
1, 105569, Note_off_c, 1, 51, 0
1, 105570, Note_off_c, 1, 75, 0
1, 105570, Note_on_c, 1, 77, 127
1, 105570, Note_on_c, 1, 65, 127
1, 105570, Note_on_c, 1, 53, 127
1, 105599, Note_off_c, 1, 65, 0
1, 105599, Note_off_c, 1, 53, 0
1, 105600, Note_off_c, 1, 77, 0
1, 105600, Note_on_c, 1, 78, 127
1, 105600, Note_on_c, 1, 66, 127
1, 105600, Note_on_c, 1, 54, 127
1, 105659, Note_off_c, 1, 78, 0
1, 105659, Note_off_c, 1, 66, 0
1, 105659, Note_off_c, 1, 54, 0
1, 105660, Note_on_c, 1, 54, 127
1, 105660, Note_on_c, 1, 45, 127
1, 105689, Note_off_c, 1, 45, 0
1, 105690, Note_on_c, 1, 47, 127
1, 105719, Note_off_c, 1, 54, 0
1, 105719, Note_off_c, 1, 47, 0
1, 105720, Note_on_c, 1, 49, 127
1, 105779, Note_off_c, 1, 49, 0
1, 105780, Note_on_c, 1, 53, 127
1, 105780, Note_on_c, 1, 37, 127
1, 105839, Note_off_c, 1, 53, 0
1, 105839, Note_off_c, 1, 37, 0
1, 105840, Note_on_c, 1, 54, 127
1, 105840, Note_on_c, 1, 42, 127
1, 105899, Note_off_c, 1, 42, 0
1, 105900, Note_on_c, 1, 45, 127
1, 105929, Note_off_c, 1, 45, 0
1, 105930, Note_on_c, 1, 49, 127
1, 105959, Note_off_c, 1, 54, 0
1, 105959, Note_off_c, 1, 49, 0
1, 105960, Note_on_c, 1, 42, 127
1, 105960, Note_on_c, 1, 54, 127
1, 106019, Note_off_c, 1, 42, 0
1, 106019, Note_off_c, 1, 54, 0
1, 106020, Note_on_c, 1, 73, 127
1, 106020, Note_on_c, 1, 69, 127
1, 106020, Note_on_c, 1, 66, 127
1, 106020, Note_on_c, 1, 54, 127
1, 106049, Note_off_c, 1, 69, 0
1, 106049, Note_off_c, 1, 66, 0
1, 106049, Note_off_c, 1, 54, 0
1, 106050, Note_on_c, 1, 71, 127
1, 106050, Note_on_c, 1, 65, 127
1, 106050, Note_on_c, 1, 56, 127
1, 106079, Note_off_c, 1, 73, 0
1, 106079, Note_off_c, 1, 71, 0
1, 106079, Note_off_c, 1, 65, 0
1, 106079, Note_off_c, 1, 56, 0
1, 106080, Note_on_c, 1, 73, 127
1, 106080, Note_on_c, 1, 66, 127
1, 106080, Note_on_c, 1, 57, 127
1, 106139, Note_off_c, 1, 73, 0
1, 106139, Note_off_c, 1, 66, 0
1, 106139, Note_off_c, 1, 57, 0
1, 106140, Note_on_c, 1, 73, 127
1, 106140, Note_on_c, 1, 65, 127
1, 106140, Note_on_c, 1, 68, 127
1, 106140, Note_on_c, 1, 59, 127
1, 106199, Note_off_c, 1, 73, 0
1, 106199, Note_off_c, 1, 65, 0
1, 106199, Note_off_c, 1, 68, 0
1, 106199, Note_off_c, 1, 59, 0
1, 106200, Note_on_c, 1, 73, 127
1, 106200, Note_on_c, 1, 66, 127
1, 106200, Note_on_c, 1, 57, 127
1, 106259, Note_off_c, 1, 73, 0
1, 106259, Note_off_c, 1, 66, 0
1, 106259, Note_off_c, 1, 57, 0
1, 106260, Note_on_c, 1, 73, 127
1, 106260, Note_on_c, 1, 68, 127
1, 106260, Note_on_c, 1, 65, 127
1, 106260, Note_on_c, 1, 56, 127
1, 106319, Note_off_c, 1, 73, 0
1, 106319, Note_off_c, 1, 68, 0
1, 106319, Note_off_c, 1, 65, 0
1, 106319, Note_off_c, 1, 56, 0
1, 106320, Note_on_c, 1, 73, 127
1, 106320, Note_on_c, 1, 61, 127
1, 106320, Note_on_c, 1, 66, 127
1, 106320, Note_on_c, 1, 57, 127
1, 106379, Note_off_c, 1, 73, 0
1, 106379, Note_off_c, 1, 57, 0
1, 106380, Note_on_c, 1, 69, 127
1, 106380, Note_on_c, 1, 56, 127
1, 106409, Note_off_c, 1, 69, 0
1, 106409, Note_off_c, 1, 56, 0
1, 106439, Note_off_c, 1, 61, 0
1, 106439, Note_off_c, 1, 66, 0
1, 106440, Note_on_c, 1, 78, 127
1, 106440, Note_on_c, 1, 54, 127
1, 106469, Note_off_c, 1, 78, 0
1, 106470, Note_on_c, 1, 76, 127
1, 106499, Note_off_c, 1, 54, 0
1, 106499, Note_off_c, 1, 76, 0
1, 106500, Note_on_c, 1, 74, 127
1, 106500, Note_on_c, 1, 65, 127
1, 106500, Note_on_c, 1, 71, 127
1, 106500, Note_on_c, 1, 56, 127
1, 106529, Note_off_c, 1, 74, 0
1, 106529, Note_off_c, 1, 65, 0
1, 106529, Note_off_c, 1, 71, 0
1, 106529, Note_off_c, 1, 56, 0
1, 106530, Note_on_c, 1, 73, 127
1, 106530, Note_on_c, 1, 66, 127
1, 106530, Note_on_c, 1, 69, 127
1, 106530, Note_on_c, 1, 57, 127
1, 106559, Note_off_c, 1, 73, 0
1, 106559, Note_off_c, 1, 66, 0
1, 106559, Note_off_c, 1, 69, 0
1, 106559, Note_off_c, 1, 57, 0
1, 106560, Note_on_c, 1, 73, 127
1, 106560, Note_on_c, 1, 68, 127
1, 106560, Note_on_c, 1, 59, 127
1, 106619, Note_off_c, 1, 73, 0
1, 106619, Note_off_c, 1, 68, 0
1, 106619, Note_off_c, 1, 59, 0
1, 106620, Note_on_c, 1, 73, 127
1, 106620, Note_on_c, 1, 69, 127
1, 106620, Note_on_c, 1, 66, 127
1, 106620, Note_on_c, 1, 57, 127
1, 106679, Note_off_c, 1, 73, 0
1, 106679, Note_off_c, 1, 69, 0
1, 106679, Note_off_c, 1, 66, 0
1, 106679, Note_off_c, 1, 57, 0
1, 106680, Note_on_c, 1, 73, 127
1, 106680, Note_on_c, 1, 71, 127
1, 106680, Note_on_c, 1, 65, 127
1, 106680, Note_on_c, 1, 56, 127
1, 106739, Note_off_c, 1, 73, 0
1, 106739, Note_off_c, 1, 71, 0
1, 106739, Note_off_c, 1, 65, 0
1, 106739, Note_off_c, 1, 56, 0
1, 106740, Note_on_c, 1, 73, 127
1, 106740, Note_on_c, 1, 69, 127
1, 106740, Note_on_c, 1, 66, 127
1, 106740, Note_on_c, 1, 54, 127
1, 106799, Note_off_c, 1, 73, 0
1, 106799, Note_off_c, 1, 69, 0
1, 106799, Note_off_c, 1, 66, 0
1, 106799, Note_off_c, 1, 54, 0
1, 106800, Note_on_c, 1, 73, 127
1, 106800, Note_on_c, 1, 68, 127
1, 106800, Note_on_c, 1, 61, 127
1, 106800, Note_on_c, 1, 53, 127
1, 106859, Note_off_c, 1, 73, 0
1, 106859, Note_off_c, 1, 53, 0
1, 106860, Note_on_c, 1, 51, 127
1, 106889, Note_off_c, 1, 51, 0
1, 106919, Note_off_c, 1, 68, 0
1, 106919, Note_off_c, 1, 61, 0
1, 106920, Note_on_c, 1, 80, 127
1, 106920, Note_on_c, 1, 49, 127
1, 106949, Note_off_c, 1, 80, 0
1, 106950, Note_on_c, 1, 78, 127
1, 106979, Note_off_c, 1, 49, 0
1, 106979, Note_off_c, 1, 78, 0
1, 106980, Note_on_c, 1, 77, 127
1, 106980, Note_on_c, 1, 68, 127
1, 106980, Note_on_c, 1, 61, 127
1, 107009, Note_off_c, 1, 77, 0
1, 107010, Note_on_c, 1, 75, 127
1, 107010, Note_on_c, 1, 59, 127
1, 107039, Note_off_c, 1, 68, 0
1, 107039, Note_off_c, 1, 61, 0
1, 107039, Note_off_c, 1, 75, 0
1, 107039, Note_off_c, 1, 59, 0
1, 107040, Note_on_c, 1, 73, 127
1, 107040, Note_on_c, 1, 69, 127
1, 107040, Note_on_c, 1, 66, 127
1, 107040, Note_on_c, 1, 57, 127
1, 107069, Note_off_c, 1, 57, 0
1, 107070, Note_on_c, 1, 56, 127
1, 107099, Note_off_c, 1, 73, 0
1, 107099, Note_off_c, 1, 69, 0
1, 107099, Note_off_c, 1, 66, 0
1, 107099, Note_off_c, 1, 56, 0
1, 107100, Note_on_c, 1, 75, 127
1, 107100, Note_on_c, 1, 69, 127
1, 107100, Note_on_c, 1, 66, 127
1, 107100, Note_on_c, 1, 54, 127
1, 107129, Note_off_c, 1, 75, 0
1, 107129, Note_off_c, 1, 69, 0
1, 107129, Note_off_c, 1, 54, 0
1, 107130, Note_on_c, 1, 77, 127
1, 107130, Note_on_c, 1, 68, 127
1, 107130, Note_on_c, 1, 52, 127
1, 107159, Note_off_c, 1, 66, 0
1, 107159, Note_off_c, 1, 77, 0
1, 107159, Note_off_c, 1, 68, 0
1, 107159, Note_off_c, 1, 52, 0
1, 107160, Note_on_c, 1, 78, 127
1, 107160, Note_on_c, 1, 69, 127
1, 107160, Note_on_c, 1, 66, 127
1, 107160, Note_on_c, 1, 50, 127
1, 107189, Note_off_c, 1, 78, 0
1, 107190, Note_on_c, 1, 80, 127
1, 107219, Note_off_c, 1, 69, 0
1, 107219, Note_off_c, 1, 66, 0
1, 107219, Note_off_c, 1, 50, 0
1, 107219, Note_off_c, 1, 80, 0
1, 107220, Note_on_c, 1, 81, 127
1, 107220, Note_on_c, 1, 69, 127
1, 107220, Note_on_c, 1, 62, 127
1, 107220, Note_on_c, 1, 54, 127
1, 107249, Note_off_c, 1, 81, 0
1, 107250, Note_on_c, 1, 78, 127
1, 107279, Note_off_c, 1, 69, 0
1, 107279, Note_off_c, 1, 62, 0
1, 107279, Note_off_c, 1, 54, 0
1, 107279, Note_off_c, 1, 78, 0
1, 107280, Note_on_c, 1, 71, 127
1, 107280, Note_on_c, 1, 69, 127
1, 107280, Note_on_c, 1, 62, 127
1, 107280, Note_on_c, 1, 56, 127
1, 107309, Note_off_c, 1, 56, 0
1, 107310, Note_on_c, 1, 54, 127
1, 107339, Note_off_c, 1, 71, 0
1, 107339, Note_off_c, 1, 69, 0
1, 107339, Note_off_c, 1, 62, 0
1, 107339, Note_off_c, 1, 54, 0
1, 107340, Note_on_c, 1, 73, 127
1, 107340, Note_on_c, 1, 68, 127
1, 107340, Note_on_c, 1, 56, 127
1, 107340, Note_on_c, 1, 53, 127
1, 107369, Note_off_c, 1, 73, 0
1, 107369, Note_off_c, 1, 68, 0
1, 107369, Note_off_c, 1, 53, 0
1, 107370, Note_on_c, 1, 75, 127
1, 107370, Note_on_c, 1, 66, 127
1, 107370, Note_on_c, 1, 51, 127
1, 107399, Note_off_c, 1, 56, 0
1, 107399, Note_off_c, 1, 75, 0
1, 107399, Note_off_c, 1, 66, 0
1, 107399, Note_off_c, 1, 51, 0
1, 107400, Note_on_c, 1, 77, 127
1, 107400, Note_on_c, 1, 68, 127
1, 107400, Note_on_c, 1, 61, 127
1, 107400, Note_on_c, 1, 49, 127
1, 107429, Note_off_c, 1, 77, 0
1, 107430, Note_on_c, 1, 78, 127
1, 107459, Note_off_c, 1, 68, 0
1, 107459, Note_off_c, 1, 61, 0
1, 107459, Note_off_c, 1, 49, 0
1, 107459, Note_off_c, 1, 78, 0
1, 107460, Note_on_c, 1, 80, 127
1, 107460, Note_on_c, 1, 68, 127
1, 107460, Note_on_c, 1, 61, 127
1, 107460, Note_on_c, 1, 59, 127
1, 107489, Note_off_c, 1, 80, 0
1, 107490, Note_on_c, 1, 77, 127
1, 107519, Note_off_c, 1, 68, 0
1, 107519, Note_off_c, 1, 61, 0
1, 107519, Note_off_c, 1, 59, 0
1, 107519, Note_off_c, 1, 77, 0
1, 107520, Note_on_c, 1, 78, 127
1, 107520, Note_on_c, 1, 73, 127
1, 107520, Note_on_c, 1, 61, 127
1, 107520, Note_on_c, 1, 57, 127
1, 107579, Note_off_c, 1, 78, 0
1, 107579, Note_off_c, 1, 73, 0
1, 107579, Note_off_c, 1, 61, 0
1, 107579, Note_off_c, 1, 57, 0
1, 107580, Note_on_c, 1, 73, 127
1, 107580, Note_on_c, 1, 69, 127
1, 107580, Note_on_c, 1, 61, 127
1, 107580, Note_on_c, 1, 54, 127
1, 107639, Note_off_c, 1, 73, 0
1, 107639, Note_off_c, 1, 69, 0
1, 107639, Note_off_c, 1, 61, 0
1, 107639, Note_off_c, 1, 54, 0
1, 107640, Note_on_c, 1, 69, 127
1, 107640, Note_on_c, 1, 66, 127
1, 107640, Note_on_c, 1, 61, 127
1, 107699, Note_off_c, 1, 69, 0
1, 107699, Note_off_c, 1, 66, 0
1, 107699, Note_off_c, 1, 61, 0
1, 107700, Note_on_c, 1, 68, 127
1, 107700, Note_on_c, 1, 65, 127
1, 107700, Note_on_c, 1, 59, 127
1, 107700, Note_on_c, 1, 49, 127
1, 107729, Note_off_c, 1, 68, 0
1, 107730, Note_on_c, 1, 66, 127
1, 107759, Note_off_c, 1, 65, 0
1, 107759, Note_off_c, 1, 59, 0
1, 107759, Note_off_c, 1, 49, 0
1, 107759, Note_off_c, 1, 66, 0
1, 107760, Note_on_c, 1, 66, 127
1, 107760, Note_on_c, 1, 61, 127
1, 107760, Note_on_c, 1, 57, 127
1, 107760, Note_on_c, 1, 54, 127
1, 107789, Note_off_c, 1, 66, 0
1, 107790, Note_on_c, 1, 65, 127
1, 107819, Note_off_c, 1, 54, 0
1, 107819, Note_off_c, 1, 65, 0
1, 107820, Note_on_c, 1, 49, 127
1, 107850, Note_on_c, 1, 68, 127
1, 107879, Note_off_c, 1, 61, 0
1, 107879, Note_off_c, 1, 57, 0
1, 107879, Note_off_c, 1, 49, 0
1, 107879, Note_off_c, 1, 68, 0
1, 107880, Note_on_c, 1, 69, 127
1, 107880, Note_on_c, 1, 42, 127
1, 107909, Note_off_c, 1, 69, 0
1, 107910, Note_on_c, 1, 71, 127
1, 107939, Note_off_c, 1, 42, 0
1, 107939, Note_off_c, 1, 71, 0
1, 107940, Note_on_c, 1, 73, 127
1, 107940, Note_on_c, 1, 69, 127
1, 107940, Note_on_c, 1, 66, 127
1, 107940, Note_on_c, 1, 57, 127
1, 107940, Note_on_c, 1, 54, 127
1, 107969, Note_off_c, 1, 73, 0
1, 107969, Note_off_c, 1, 57, 0
1, 107970, Note_on_c, 1, 74, 127
1, 107970, Note_on_c, 1, 59, 127
1, 107999, Note_off_c, 1, 69, 0
1, 107999, Note_off_c, 1, 66, 0
1, 107999, Note_off_c, 1, 54, 0
1, 107999, Note_off_c, 1, 74, 0
1, 107999, Note_off_c, 1, 59, 0
1, 108000, Note_on_c, 1, 76, 127
1, 108000, Note_on_c, 1, 69, 127
1, 108000, Note_on_c, 1, 64, 127
1, 108000, Note_on_c, 1, 61, 127
1, 108000, Note_on_c, 1, 49, 127
1, 108059, Note_off_c, 1, 76, 0
1, 108059, Note_off_c, 1, 61, 0
1, 108060, Note_on_c, 1, 78, 127
1, 108060, Note_on_c, 1, 62, 127
1, 108119, Note_off_c, 1, 69, 0
1, 108119, Note_off_c, 1, 64, 0
1, 108119, Note_off_c, 1, 49, 0
1, 108119, Note_off_c, 1, 78, 0
1, 108119, Note_off_c, 1, 62, 0
1, 108120, Note_on_c, 1, 76, 127
1, 108120, Note_on_c, 1, 61, 127
1, 108179, Note_off_c, 1, 76, 0
1, 108179, Note_off_c, 1, 61, 0
1, 108180, Note_on_c, 1, 74, 127
1, 108180, Note_on_c, 1, 68, 127
1, 108180, Note_on_c, 1, 64, 127
1, 108180, Note_on_c, 1, 59, 127
1, 108180, Note_on_c, 1, 52, 127
1, 108239, Note_off_c, 1, 74, 0
1, 108239, Note_off_c, 1, 68, 0
1, 108239, Note_off_c, 1, 64, 0
1, 108239, Note_off_c, 1, 59, 0
1, 108239, Note_off_c, 1, 52, 0
1, 108240, Note_on_c, 1, 73, 127
1, 108240, Note_on_c, 1, 69, 127
1, 108240, Note_on_c, 1, 64, 127
1, 108240, Note_on_c, 1, 57, 127
1, 108240, Note_on_c, 1, 45, 127
1, 108299, Note_off_c, 1, 73, 0
1, 108299, Note_off_c, 1, 69, 0
1, 108299, Note_off_c, 1, 64, 0
1, 108299, Note_off_c, 1, 57, 0
1, 108299, Note_off_c, 1, 45, 0
1, 108300, Note_on_c, 1, 71, 127
1, 108300, Note_on_c, 1, 68, 127
1, 108300, Note_on_c, 1, 62, 127
1, 108300, Note_on_c, 1, 52, 127
1, 108300, Note_on_c, 1, 45, 127
1, 108329, Note_off_c, 1, 71, 0
1, 108329, Note_off_c, 1, 68, 0
1, 108329, Note_off_c, 1, 62, 0
1, 108329, Note_off_c, 1, 52, 0
1, 108330, Note_on_c, 1, 73, 127
1, 108330, Note_on_c, 1, 69, 127
1, 108330, Note_on_c, 1, 64, 127
1, 108330, Note_on_c, 1, 57, 127
1, 108359, Note_off_c, 1, 45, 0
1, 108359, Note_off_c, 1, 73, 0
1, 108359, Note_off_c, 1, 69, 0
1, 108359, Note_off_c, 1, 64, 0
1, 108359, Note_off_c, 1, 57, 0
1, 108360, Note_on_c, 1, 69, 127
1, 108360, Note_on_c, 1, 64, 127
1, 108360, Note_on_c, 1, 61, 127
1, 108360, Note_on_c, 1, 45, 127
1, 108390, Note_on_c, 1, 59, 127
1, 108419, Note_off_c, 1, 69, 0
1, 108419, Note_off_c, 1, 64, 0
1, 108419, Note_off_c, 1, 61, 0
1, 108419, Note_off_c, 1, 45, 0
1, 108419, Note_off_c, 1, 59, 0
1, 108420, Note_on_c, 1, 71, 127
1, 108420, Note_on_c, 1, 62, 127
1, 108420, Note_on_c, 1, 57, 127
1, 108420, Note_on_c, 1, 45, 127
1, 108449, Note_off_c, 1, 57, 0
1, 108450, Note_on_c, 1, 56, 127
1, 108479, Note_off_c, 1, 71, 0
1, 108479, Note_off_c, 1, 62, 0
1, 108479, Note_off_c, 1, 45, 0
1, 108479, Note_off_c, 1, 56, 0
1, 108480, Note_on_c, 1, 73, 127
1, 108480, Note_on_c, 1, 69, 127
1, 108480, Note_on_c, 1, 64, 127
1, 108480, Note_on_c, 1, 57, 127
1, 108480, Note_on_c, 1, 45, 127
1, 108539, Note_off_c, 1, 73, 0
1, 108539, Note_off_c, 1, 69, 0
1, 108539, Note_off_c, 1, 64, 0
1, 108539, Note_off_c, 1, 57, 0
1, 108539, Note_off_c, 1, 45, 0
1, 108540, Note_on_c, 1, 71, 127
1, 108540, Note_on_c, 1, 68, 127
1, 108540, Note_on_c, 1, 62, 127
1, 108540, Note_on_c, 1, 52, 127
1, 108540, Note_on_c, 1, 45, 127
1, 108569, Note_off_c, 1, 71, 0
1, 108569, Note_off_c, 1, 68, 0
1, 108569, Note_off_c, 1, 62, 0
1, 108569, Note_off_c, 1, 52, 0
1, 108570, Note_on_c, 1, 73, 127
1, 108570, Note_on_c, 1, 69, 127
1, 108570, Note_on_c, 1, 64, 127
1, 108570, Note_on_c, 1, 57, 127
1, 108599, Note_off_c, 1, 45, 0
1, 108599, Note_off_c, 1, 73, 0
1, 108599, Note_off_c, 1, 69, 0
1, 108599, Note_off_c, 1, 64, 0
1, 108599, Note_off_c, 1, 57, 0
1, 108600, Note_on_c, 1, 69, 127
1, 108600, Note_on_c, 1, 64, 127
1, 108600, Note_on_c, 1, 61, 127
1, 108600, Note_on_c, 1, 62, 127
1, 108600, Note_on_c, 1, 45, 127
1, 108629, Note_off_c, 1, 62, 0
1, 108659, Note_off_c, 1, 69, 0
1, 108659, Note_off_c, 1, 64, 0
1, 108659, Note_off_c, 1, 61, 0
1, 108659, Note_off_c, 1, 45, 0
1, 108660, Note_on_c, 1, 73, 127
1, 108660, Note_on_c, 1, 69, 127
1, 108660, Note_on_c, 1, 64, 127
1, 108660, Note_on_c, 1, 59, 127
1, 108660, Note_on_c, 1, 45, 127
1, 108689, Note_off_c, 1, 59, 0
1, 108690, Note_on_c, 1, 57, 127
1, 108719, Note_off_c, 1, 73, 0
1, 108719, Note_off_c, 1, 69, 0
1, 108719, Note_off_c, 1, 64, 0
1, 108719, Note_off_c, 1, 45, 0
1, 108719, Note_off_c, 1, 57, 0
1, 108720, Note_on_c, 1, 74, 127
1, 108720, Note_on_c, 1, 68, 127
1, 108720, Note_on_c, 1, 59, 127
1, 108720, Note_on_c, 1, 45, 127
1, 108779, Note_off_c, 1, 74, 0
1, 108779, Note_off_c, 1, 68, 0
1, 108779, Note_off_c, 1, 59, 0
1, 108779, Note_off_c, 1, 45, 0
1, 108780, Note_on_c, 1, 73, 127
1, 108780, Note_on_c, 1, 69, 127
1, 108780, Note_on_c, 1, 61, 127
1, 108780, Note_on_c, 1, 52, 127
1, 108780, Note_on_c, 1, 45, 127
1, 108809, Note_off_c, 1, 73, 0
1, 108809, Note_off_c, 1, 69, 0
1, 108809, Note_off_c, 1, 52, 0
1, 108810, Note_on_c, 1, 74, 127
1, 108810, Note_on_c, 1, 66, 127
1, 108810, Note_on_c, 1, 59, 127
1, 108839, Note_off_c, 1, 61, 0
1, 108839, Note_off_c, 1, 45, 0
1, 108839, Note_off_c, 1, 74, 0
1, 108839, Note_off_c, 1, 66, 0
1, 108839, Note_off_c, 1, 59, 0
1, 108840, Note_on_c, 1, 71, 127
1, 108840, Note_on_c, 1, 68, 127
1, 108840, Note_on_c, 1, 62, 127
1, 108840, Note_on_c, 1, 64, 127
1, 108840, Note_on_c, 1, 45, 127
1, 108869, Note_off_c, 1, 64, 0
1, 108899, Note_off_c, 1, 71, 0
1, 108899, Note_off_c, 1, 68, 0
1, 108899, Note_off_c, 1, 62, 0
1, 108899, Note_off_c, 1, 45, 0
1, 108900, Note_on_c, 1, 74, 127
1, 108900, Note_on_c, 1, 71, 127
1, 108900, Note_on_c, 1, 56, 127
1, 108900, Note_on_c, 1, 61, 127
1, 108900, Note_on_c, 1, 45, 127
1, 108929, Note_off_c, 1, 61, 0
1, 108930, Note_on_c, 1, 59, 127
1, 108959, Note_off_c, 1, 74, 0
1, 108959, Note_off_c, 1, 71, 0
1, 108959, Note_off_c, 1, 56, 0
1, 108959, Note_off_c, 1, 45, 0
1, 108959, Note_off_c, 1, 59, 0
1, 108960, Note_on_c, 1, 76, 127
1, 108960, Note_on_c, 1, 69, 127
1, 108960, Note_on_c, 1, 61, 127
1, 108960, Note_on_c, 1, 45, 127
1, 109019, Note_off_c, 1, 76, 0
1, 109019, Note_off_c, 1, 69, 0
1, 109019, Note_off_c, 1, 61, 0
1, 109019, Note_off_c, 1, 45, 0
1, 109020, Note_on_c, 1, 74, 127
1, 109020, Note_on_c, 1, 71, 127
1, 109020, Note_on_c, 1, 68, 127
1, 109020, Note_on_c, 1, 59, 127
1, 109020, Note_on_c, 1, 45, 127
1, 109049, Note_off_c, 1, 74, 0
1, 109049, Note_off_c, 1, 59, 0
1, 109050, Note_on_c, 1, 76, 127
1, 109050, Note_on_c, 1, 61, 127
1, 109079, Note_off_c, 1, 71, 0
1, 109079, Note_off_c, 1, 68, 0
1, 109079, Note_off_c, 1, 45, 0
1, 109079, Note_off_c, 1, 76, 0
1, 109079, Note_off_c, 1, 61, 0
1, 109080, Note_on_c, 1, 73, 127
1, 109080, Note_on_c, 1, 64, 127
1, 109080, Note_on_c, 1, 69, 127
1, 109080, Note_on_c, 1, 57, 127
1, 109080, Note_on_c, 1, 45, 127
1, 109139, Note_off_c, 1, 73, 0
1, 109139, Note_off_c, 1, 64, 0
1, 109139, Note_off_c, 1, 69, 0
1, 109139, Note_off_c, 1, 57, 0
1, 109139, Note_off_c, 1, 45, 0
1, 109140, Note_on_c, 1, 76, 127
1, 109140, Note_on_c, 1, 69, 127
1, 109140, Note_on_c, 1, 64, 127
1, 109140, Note_on_c, 1, 61, 127
1, 109140, Note_on_c, 1, 45, 127
1, 109199, Note_off_c, 1, 76, 0
1, 109199, Note_off_c, 1, 69, 0
1, 109199, Note_off_c, 1, 64, 0
1, 109199, Note_off_c, 1, 61, 0
1, 109199, Note_off_c, 1, 45, 0
1, 109200, Note_on_c, 1, 71, 127
1, 109200, Note_on_c, 1, 66, 127
1, 109200, Note_on_c, 1, 63, 127
1, 109200, Note_on_c, 1, 45, 127
1, 109259, Note_off_c, 1, 71, 0
1, 109259, Note_off_c, 1, 66, 0
1, 109259, Note_off_c, 1, 63, 0
1, 109259, Note_off_c, 1, 45, 0
1, 109260, Note_on_c, 1, 71, 127
1, 109260, Note_on_c, 1, 66, 127
1, 109260, Note_on_c, 1, 63, 127
1, 109260, Note_on_c, 1, 59, 127
1, 109260, Note_on_c, 1, 57, 127
1, 109289, Note_off_c, 1, 57, 0
1, 109290, Note_on_c, 1, 56, 127
1, 109319, Note_off_c, 1, 71, 0
1, 109319, Note_off_c, 1, 66, 0
1, 109319, Note_off_c, 1, 63, 0
1, 109319, Note_off_c, 1, 59, 0
1, 109319, Note_off_c, 1, 56, 0
1, 109320, Note_on_c, 1, 71, 127
1, 109320, Note_on_c, 1, 66, 127
1, 109320, Note_on_c, 1, 63, 127
1, 109320, Note_on_c, 1, 59, 127
1, 109320, Note_on_c, 1, 57, 127
1, 109349, Note_off_c, 1, 57, 0
1, 109350, Note_on_c, 1, 61, 127
1, 109379, Note_off_c, 1, 71, 0
1, 109379, Note_off_c, 1, 66, 0
1, 109379, Note_off_c, 1, 63, 0
1, 109379, Note_off_c, 1, 59, 0
1, 109379, Note_off_c, 1, 61, 0
1, 109380, Note_on_c, 1, 71, 127
1, 109380, Note_on_c, 1, 66, 127
1, 109380, Note_on_c, 1, 63, 127
1, 109380, Note_on_c, 1, 59, 127
1, 109410, Note_on_c, 1, 57, 127
1, 109439, Note_off_c, 1, 71, 0
1, 109439, Note_off_c, 1, 66, 0
1, 109439, Note_off_c, 1, 63, 0
1, 109439, Note_off_c, 1, 59, 0
1, 109439, Note_off_c, 1, 57, 0
1, 109440, Note_on_c, 1, 71, 127
1, 109440, Note_on_c, 1, 64, 127
1, 109440, Note_on_c, 1, 59, 127
1, 109440, Note_on_c, 1, 56, 127
1, 109469, Note_off_c, 1, 59, 0
1, 109469, Note_off_c, 1, 56, 0
1, 109470, Note_on_c, 1, 63, 127
1, 109470, Note_on_c, 1, 57, 127
1, 109470, Note_on_c, 1, 54, 127
1, 109499, Note_off_c, 1, 71, 0
1, 109499, Note_off_c, 1, 64, 0
1, 109499, Note_off_c, 1, 63, 0
1, 109499, Note_off_c, 1, 57, 0
1, 109499, Note_off_c, 1, 54, 0
1, 109500, Note_on_c, 1, 73, 127
1, 109500, Note_on_c, 1, 64, 127
1, 109500, Note_on_c, 1, 56, 127
1, 109500, Note_on_c, 1, 52, 127
1, 109529, Note_off_c, 1, 73, 0
1, 109529, Note_off_c, 1, 56, 0
1, 109529, Note_off_c, 1, 52, 0
1, 109530, Note_on_c, 1, 75, 127
1, 109530, Note_on_c, 1, 66, 127
1, 109530, Note_on_c, 1, 54, 127
1, 109530, Note_on_c, 1, 51, 127
1, 109559, Note_off_c, 1, 64, 0
1, 109559, Note_off_c, 1, 75, 0
1, 109559, Note_off_c, 1, 66, 0
1, 109559, Note_off_c, 1, 54, 0
1, 109559, Note_off_c, 1, 51, 0
1, 109560, Note_on_c, 1, 76, 127
1, 109560, Note_on_c, 1, 68, 127
1, 109560, Note_on_c, 1, 64, 127
1, 109560, Note_on_c, 1, 52, 127
1, 109560, Note_on_c, 1, 49, 127
1, 109589, Note_off_c, 1, 76, 0
1, 109589, Note_off_c, 1, 52, 0
1, 109590, Note_on_c, 1, 78, 127
1, 109590, Note_on_c, 1, 56, 127
1, 109619, Note_off_c, 1, 68, 0
1, 109619, Note_off_c, 1, 64, 0
1, 109619, Note_off_c, 1, 49, 0
1, 109619, Note_off_c, 1, 78, 0
1, 109619, Note_off_c, 1, 56, 0
1, 109620, Note_on_c, 1, 80, 127
1, 109620, Note_on_c, 1, 64, 127
1, 109620, Note_on_c, 1, 61, 127
1, 109620, Note_on_c, 1, 52, 127
1, 109649, Note_off_c, 1, 80, 0
1, 109650, Note_on_c, 1, 76, 127
1, 109650, Note_on_c, 1, 59, 127
1, 109679, Note_off_c, 1, 64, 0
1, 109679, Note_off_c, 1, 61, 0
1, 109679, Note_off_c, 1, 52, 0
1, 109679, Note_off_c, 1, 76, 0
1, 109679, Note_off_c, 1, 59, 0
1, 109680, Note_on_c, 1, 69, 127
1, 109680, Note_on_c, 1, 64, 127
1, 109680, Note_on_c, 1, 61, 127
1, 109680, Note_on_c, 1, 57, 127
1, 109680, Note_on_c, 1, 54, 127
1, 109709, Note_off_c, 1, 64, 0
1, 109709, Note_off_c, 1, 57, 0
1, 109709, Note_off_c, 1, 54, 0
1, 109710, Note_on_c, 1, 56, 127
1, 109710, Note_on_c, 1, 52, 127
1, 109739, Note_off_c, 1, 69, 0
1, 109739, Note_off_c, 1, 61, 0
1, 109739, Note_off_c, 1, 56, 0
1, 109739, Note_off_c, 1, 52, 0
1, 109740, Note_on_c, 1, 71, 127
1, 109740, Note_on_c, 1, 63, 127
1, 109740, Note_on_c, 1, 59, 127
1, 109740, Note_on_c, 1, 54, 127
1, 109740, Note_on_c, 1, 51, 127
1, 109769, Note_off_c, 1, 71, 0
1, 109769, Note_off_c, 1, 63, 0
1, 109769, Note_off_c, 1, 54, 0
1, 109769, Note_off_c, 1, 51, 0
1, 109770, Note_on_c, 1, 73, 127
1, 109770, Note_on_c, 1, 64, 127
1, 109770, Note_on_c, 1, 52, 127
1, 109770, Note_on_c, 1, 49, 127
1, 109799, Note_off_c, 1, 59, 0
1, 109799, Note_off_c, 1, 73, 0
1, 109799, Note_off_c, 1, 64, 0
1, 109799, Note_off_c, 1, 52, 0
1, 109799, Note_off_c, 1, 49, 0
1, 109800, Note_on_c, 1, 75, 127
1, 109800, Note_on_c, 1, 66, 127
1, 109800, Note_on_c, 1, 59, 127
1, 109800, Note_on_c, 1, 51, 127
1, 109800, Note_on_c, 1, 47, 127
1, 109829, Note_off_c, 1, 75, 0
1, 109829, Note_off_c, 1, 51, 0
1, 109830, Note_on_c, 1, 76, 127
1, 109830, Note_on_c, 1, 54, 127
1, 109859, Note_off_c, 1, 66, 0
1, 109859, Note_off_c, 1, 59, 0
1, 109859, Note_off_c, 1, 47, 0
1, 109859, Note_off_c, 1, 76, 0
1, 109859, Note_off_c, 1, 54, 0
1, 109860, Note_on_c, 1, 78, 127
1, 109860, Note_on_c, 1, 66, 127
1, 109860, Note_on_c, 1, 59, 127
1, 109860, Note_on_c, 1, 57, 127
1, 109889, Note_off_c, 1, 78, 0
1, 109890, Note_on_c, 1, 75, 127
1, 109919, Note_off_c, 1, 66, 0
1, 109919, Note_off_c, 1, 59, 0
1, 109919, Note_off_c, 1, 57, 0
1, 109919, Note_off_c, 1, 75, 0
1, 109920, Note_on_c, 1, 76, 127
1, 109920, Note_on_c, 1, 71, 127
1, 109920, Note_on_c, 1, 59, 127
1, 109920, Note_on_c, 1, 56, 127
1, 109950, Note_on_c, 1, 54, 127
1, 109979, Note_off_c, 1, 76, 0
1, 109979, Note_off_c, 1, 71, 0
1, 109979, Note_off_c, 1, 59, 0
1, 109979, Note_off_c, 1, 56, 0
1, 109979, Note_off_c, 1, 54, 0
1, 109980, Note_on_c, 1, 71, 127
1, 109980, Note_on_c, 1, 68, 127
1, 109980, Note_on_c, 1, 59, 127
1, 109980, Note_on_c, 1, 56, 127
1, 109980, Note_on_c, 1, 52, 127
1, 110009, Note_off_c, 1, 56, 0
1, 110039, Note_off_c, 1, 71, 0
1, 110039, Note_off_c, 1, 68, 0
1, 110039, Note_off_c, 1, 59, 0
1, 110039, Note_off_c, 1, 52, 0
1, 110040, Note_on_c, 1, 68, 127
1, 110040, Note_on_c, 1, 64, 127
1, 110040, Note_on_c, 1, 59, 127
1, 110099, Note_off_c, 1, 68, 0
1, 110099, Note_off_c, 1, 64, 0
1, 110099, Note_off_c, 1, 59, 0
1, 110100, Note_on_c, 1, 66, 127
1, 110100, Note_on_c, 1, 63, 127
1, 110100, Note_on_c, 1, 57, 127
1, 110100, Note_on_c, 1, 47, 127
1, 110129, Note_off_c, 1, 66, 0
1, 110130, Note_on_c, 1, 64, 127
1, 110159, Note_off_c, 1, 63, 0
1, 110159, Note_off_c, 1, 57, 0
1, 110159, Note_off_c, 1, 47, 0
1, 110159, Note_off_c, 1, 64, 0
1, 110160, Note_on_c, 1, 64, 127
1, 110160, Note_on_c, 1, 56, 127
1, 110160, Note_on_c, 1, 52, 127
1, 110250, Note_on_c, 1, 54, 127
1, 110279, Note_off_c, 1, 52, 0
1, 110279, Note_off_c, 1, 54, 0
1, 110340, Note_on_c, 1, 61, 127
1, 110340, Note_on_c, 1, 49, 127
1, 110399, Note_off_c, 1, 56, 0
1, 110399, Note_off_c, 1, 61, 0
1, 110399, Note_off_c, 1, 49, 0
1, 110400, Note_on_c, 1, 58, 127
1, 110459, Note_off_c, 1, 58, 0
1, 110460, Note_on_c, 1, 59, 127
1, 110519, Note_off_c, 1, 59, 0
1, 110819, Note_off_c, 1, 64, 0
1, 110820, Note_on_c, 1, 61, 127
1, 110820, Note_on_c, 1, 54, 127
1, 110879, Note_off_c, 1, 61, 0
1, 110879, Note_off_c, 1, 54, 0
1, 110880, Note_on_c, 1, 62, 127
1, 110880, Note_on_c, 1, 47, 127
1, 110910, Note_on_c, 1, 66, 127
1, 110910, Note_on_c, 1, 71, 127
1, 110939, Note_off_c, 1, 47, 0
1, 110939, Note_off_c, 1, 66, 0
1, 110939, Note_off_c, 1, 71, 0
1, 110970, Note_on_c, 1, 74, 127
1, 110999, Note_off_c, 1, 74, 0
1, 111000, Note_on_c, 1, 78, 127
1, 111000, Note_on_c, 1, 59, 127
1, 111029, Note_off_c, 1, 78, 0
1, 111029, Note_off_c, 1, 59, 0
1, 111090, Note_on_c, 1, 80, 127
1, 111119, Note_off_c, 1, 80, 0
1, 111120, Note_on_c, 1, 81, 127
1, 111120, Note_on_c, 1, 57, 127
1, 111120, Note_on_c, 1, 42, 127
1, 111120, Note_on_c, 1, 69, 127
1, 111149, Note_off_c, 1, 81, 0
1, 111149, Note_off_c, 1, 57, 0
1, 111149, Note_off_c, 1, 69, 0
1, 111179, Note_off_c, 1, 42, 0
1, 111360, Note_on_c, 1, 83, 127
1, 111360, Note_on_c, 1, 76, 127
1, 111360, Note_on_c, 1, 44, 127
1, 111389, Note_off_c, 1, 83, 0
1, 111389, Note_off_c, 1, 76, 0
1, 111390, Note_on_c, 1, 64, 127
1, 111419, Note_off_c, 1, 44, 0
1, 111419, Note_off_c, 1, 64, 0
1, 111420, Note_on_c, 1, 68, 127
1, 111449, Note_off_c, 1, 68, 0
1, 111480, Note_off_c, 1, 62, 0
1, 111540, Note_on_c, 1, 76, 127
1, 111540, Note_on_c, 1, 68, 127
1, 111540, Note_on_c, 1, 71, 127
1, 111540, Note_on_c, 1, 52, 127
1, 111540, Note_on_c, 1, 44, 127
1, 111569, Note_off_c, 1, 76, 0
1, 111569, Note_off_c, 1, 68, 0
1, 111569, Note_off_c, 1, 71, 0
1, 111570, Note_on_c, 1, 80, 127
1, 111599, Note_off_c, 1, 52, 0
1, 111599, Note_off_c, 1, 44, 0
1, 111599, Note_off_c, 1, 80, 0
1, 111600, Note_on_c, 1, 69, 127
1, 111600, Note_on_c, 1, 73, 127
1, 111600, Note_on_c, 1, 64, 127
1, 111600, Note_on_c, 1, 61, 127
1, 111600, Note_on_c, 1, 45, 127
1, 111629, Note_off_c, 1, 69, 0
1, 111629, Note_off_c, 1, 73, 0
1, 111629, Note_off_c, 1, 64, 0
1, 111659, Note_off_c, 1, 61, 0
1, 111659, Note_off_c, 1, 45, 0
1, 111660, Note_on_c, 1, 76, 127
1, 111660, Note_on_c, 1, 69, 127
1, 111660, Note_on_c, 1, 64, 127
1, 111660, Note_on_c, 1, 61, 127
1, 111660, Note_on_c, 1, 45, 127
1, 111689, Note_off_c, 1, 76, 0
1, 111689, Note_off_c, 1, 69, 0
1, 111689, Note_off_c, 1, 64, 0
1, 111690, Note_on_c, 1, 81, 127
1, 111690, Note_on_c, 1, 73, 127
1, 111719, Note_off_c, 1, 61, 0
1, 111719, Note_off_c, 1, 45, 0
1, 111719, Note_off_c, 1, 81, 0
1, 111719, Note_off_c, 1, 73, 0
1, 111720, Note_on_c, 1, 85, 127
1, 111720, Note_on_c, 1, 76, 127
1, 111720, Note_on_c, 1, 57, 127
1, 111720, Note_on_c, 1, 61, 127
1, 111720, Note_on_c, 1, 45, 127
1, 111720, Note_on_c, 1, 69, 127
1, 111749, Note_off_c, 1, 85, 0
1, 111749, Note_off_c, 1, 76, 0
1, 111749, Note_off_c, 1, 57, 0
1, 111749, Note_off_c, 1, 69, 0
1, 111750, Note_on_c, 1, 81, 127
1, 111750, Note_on_c, 1, 73, 127
1, 111779, Note_off_c, 1, 61, 0
1, 111779, Note_off_c, 1, 45, 0
1, 111779, Note_off_c, 1, 81, 0
1, 111779, Note_off_c, 1, 73, 0
1, 111780, Note_on_c, 1, 76, 127
1, 111780, Note_on_c, 1, 69, 127
1, 111780, Note_on_c, 1, 64, 127
1, 111780, Note_on_c, 1, 61, 127
1, 111780, Note_on_c, 1, 45, 127
1, 111809, Note_off_c, 1, 76, 0
1, 111809, Note_off_c, 1, 69, 0
1, 111809, Note_off_c, 1, 64, 0
1, 111810, Note_on_c, 1, 79, 127
1, 111810, Note_on_c, 1, 73, 127
1, 111839, Note_off_c, 1, 61, 0
1, 111839, Note_off_c, 1, 45, 0
1, 111839, Note_off_c, 1, 79, 0
1, 111839, Note_off_c, 1, 73, 0
1, 111840, Note_on_c, 1, 78, 127
1, 111840, Note_on_c, 1, 74, 127
1, 111840, Note_on_c, 1, 57, 127
1, 111840, Note_on_c, 1, 61, 127
1, 111840, Note_on_c, 1, 50, 127
1, 111840, Note_on_c, 1, 69, 127
1, 111899, Note_off_c, 1, 78, 0
1, 111899, Note_off_c, 1, 74, 0
1, 111899, Note_off_c, 1, 57, 0
1, 111899, Note_off_c, 1, 61, 0
1, 111899, Note_off_c, 1, 50, 0
1, 111899, Note_off_c, 1, 69, 0
1, 111900, Note_on_c, 1, 59, 127
1, 111900, Note_on_c, 1, 50, 127
1, 111929, Note_off_c, 1, 59, 0
1, 111930, Note_on_c, 1, 57, 127
1, 111959, Note_off_c, 1, 50, 0
1, 111959, Note_off_c, 1, 57, 0
1, 111960, Note_on_c, 1, 59, 127
1, 111960, Note_on_c, 1, 50, 127
1, 112019, Note_off_c, 1, 59, 0
1, 112019, Note_off_c, 1, 50, 0
1, 112020, Note_on_c, 1, 62, 127
1, 112020, Note_on_c, 1, 50, 127
1, 112079, Note_off_c, 1, 62, 0
1, 112079, Note_off_c, 1, 50, 0
1, 112080, Note_on_c, 1, 52, 127
1, 112080, Note_on_c, 1, 50, 127
1, 112139, Note_off_c, 1, 50, 0
1, 112200, Note_on_c, 1, 49, 127
1, 112229, Note_off_c, 1, 49, 0
1, 112230, Note_on_c, 1, 47, 127
1, 112259, Note_off_c, 1, 47, 0
1, 112260, Note_on_c, 1, 64, 127
1, 112260, Note_on_c, 1, 61, 127
1, 112260, Note_on_c, 1, 45, 127
1, 112289, Note_off_c, 1, 61, 0
1, 112289, Note_off_c, 1, 45, 0
1, 112290, Note_on_c, 1, 62, 127
1, 112319, Note_off_c, 1, 64, 0
1, 112319, Note_off_c, 1, 62, 0
1, 112320, Note_on_c, 1, 69, 127
1, 112379, Note_off_c, 1, 69, 0
1, 112380, Note_on_c, 1, 66, 127
1, 112439, Note_off_c, 1, 66, 0
1, 112680, Note_on_c, 1, 73, 127
1, 112709, Note_off_c, 1, 73, 0
1, 112710, Note_on_c, 1, 71, 127
1, 112739, Note_off_c, 1, 71, 0
1, 112770, Note_on_c, 1, 68, 127
1, 112799, Note_off_c, 1, 68, 0
1, 112920, Note_on_c, 1, 74, 127
1, 112949, Note_off_c, 1, 74, 0
1, 112980, Note_on_c, 1, 57, 127
1, 113039, Note_off_c, 1, 57, 0
1, 113040, Note_on_c, 1, 59, 127
1, 113040, Note_on_c, 1, 56, 127
1, 113099, Note_off_c, 1, 56, 0
1, 113100, Note_on_c, 1, 54, 127
1, 113129, Note_off_c, 1, 54, 0
1, 113159, Note_off_c, 1, 59, 0
1, 113160, Note_on_c, 1, 76, 127
1, 113189, Note_off_c, 1, 76, 0
1, 113400, Note_off_c, 1, 52, 0
1, 113460, Note_on_c, 1, 74, 127
1, 113460, Note_on_c, 1, 69, 127
1, 113460, Note_on_c, 1, 57, 127
1, 113460, Note_on_c, 1, 49, 127
1, 113489, Note_off_c, 1, 74, 0
1, 113490, Note_on_c, 1, 76, 127
1, 113519, Note_off_c, 1, 69, 0
1, 113519, Note_off_c, 1, 57, 0
1, 113519, Note_off_c, 1, 49, 0
1, 113519, Note_off_c, 1, 76, 0
1, 113520, Note_on_c, 1, 78, 127
1, 113520, Note_on_c, 1, 69, 127
1, 113520, Note_on_c, 1, 62, 127
1, 113520, Note_on_c, 1, 50, 127
1, 113579, Note_off_c, 1, 62, 0
1, 113579, Note_off_c, 1, 50, 0
1, 113595, Note_off_c, 1, 78, 0
1, 113595, Note_on_c, 1, 74, 127
1, 113609, Note_off_c, 1, 69, 0
1, 113609, Note_off_c, 1, 74, 0
1, 113610, Note_on_c, 1, 73, 127
1, 113610, Note_on_c, 1, 61, 127
1, 113624, Note_off_c, 1, 73, 0
1, 113639, Note_off_c, 1, 61, 0
1, 113640, Note_on_c, 1, 74, 127
1, 113640, Note_on_c, 1, 62, 127
1, 113640, Note_on_c, 1, 59, 127
1, 113641, Note_on_c, 1, 78, 127
1, 113699, Note_off_c, 1, 62, 0
1, 113699, Note_off_c, 1, 59, 0
1, 113700, Note_on_c, 1, 66, 127
1, 113700, Note_on_c, 1, 54, 127
1, 113700, Note_on_c, 1, 57, 127
1, 113716, Note_off_c, 1, 78, 0
1, 113729, Note_off_c, 1, 74, 0
1, 113730, Note_on_c, 1, 73, 127
1, 113730, Note_on_c, 1, 69, 127
1, 113744, Note_off_c, 1, 73, 0
1, 113759, Note_off_c, 1, 66, 0
1, 113759, Note_off_c, 1, 54, 0
1, 113759, Note_off_c, 1, 57, 0
1, 113759, Note_off_c, 1, 69, 0
1, 113760, Note_on_c, 1, 78, 127
1, 113760, Note_on_c, 1, 74, 127
1, 113760, Note_on_c, 1, 68, 127
1, 113760, Note_on_c, 1, 59, 127
1, 113760, Note_on_c, 1, 56, 127
1, 113774, Note_off_c, 1, 78, 0
1, 113790, Note_on_c, 1, 69, 127
1, 113804, Note_off_c, 1, 69, 0
1, 113805, Note_on_c, 1, 71, 127
1, 113819, Note_off_c, 1, 68, 0
1, 113819, Note_off_c, 1, 59, 0
1, 113819, Note_off_c, 1, 56, 0
1, 113819, Note_off_c, 1, 71, 0
1, 113820, Note_on_c, 1, 73, 127
1, 113820, Note_on_c, 1, 44, 127
1, 113834, Note_off_c, 1, 73, 0
1, 113849, Note_off_c, 1, 74, 0
1, 113850, Note_on_c, 1, 76, 127
1, 113864, Note_off_c, 1, 76, 0
1, 113879, Note_off_c, 1, 44, 0
1, 113880, Note_on_c, 1, 80, 127
1, 113880, Note_on_c, 1, 74, 127
1, 113880, Note_on_c, 1, 68, 127
1, 113880, Note_on_c, 1, 59, 127
1, 113880, Note_on_c, 1, 44, 127
1, 113894, Note_off_c, 1, 80, 0
1, 113895, Note_on_c, 1, 76, 127
1, 113909, Note_off_c, 1, 76, 0
1, 113939, Note_off_c, 1, 68, 0
1, 113939, Note_off_c, 1, 59, 0
1, 113939, Note_off_c, 1, 44, 0
1, 113940, Note_on_c, 1, 78, 127
1, 113954, Note_off_c, 1, 78, 0
1, 113969, Note_off_c, 1, 74, 0
1, 113970, Note_on_c, 1, 73, 127
1, 113970, Note_on_c, 1, 71, 127
1, 113984, Note_off_c, 1, 73, 0
1, 113999, Note_off_c, 1, 71, 0
1, 114000, Note_on_c, 1, 76, 127
1, 114000, Note_on_c, 1, 73, 127
1, 114000, Note_on_c, 1, 68, 127
1, 114000, Note_on_c, 1, 59, 127
1, 114000, Note_on_c, 1, 49, 127
1, 114059, Note_off_c, 1, 68, 0
1, 114059, Note_off_c, 1, 59, 0
1, 114059, Note_off_c, 1, 49, 0
1, 114060, Note_on_c, 1, 64, 127
1, 114060, Note_on_c, 1, 52, 127
1, 114060, Note_on_c, 1, 61, 127
1, 114075, Note_off_c, 1, 76, 0
1, 114089, Note_off_c, 1, 73, 0
1, 114089, Note_off_c, 1, 52, 0
1, 114089, Note_off_c, 1, 61, 0
1, 114090, Note_on_c, 1, 71, 127
1, 114090, Note_on_c, 1, 56, 127
1, 114104, Note_off_c, 1, 71, 0
1, 114119, Note_off_c, 1, 64, 0
1, 114119, Note_off_c, 1, 56, 0
1, 114120, Note_on_c, 1, 76, 127
1, 114120, Note_on_c, 1, 73, 127
1, 114120, Note_on_c, 1, 61, 127
1, 114120, Note_on_c, 1, 57, 127
1, 114150, Note_on_c, 1, 59, 127
1, 114179, Note_off_c, 1, 61, 0
1, 114179, Note_off_c, 1, 57, 0
1, 114179, Note_off_c, 1, 59, 0
1, 114180, Note_on_c, 1, 64, 127
1, 114180, Note_on_c, 1, 56, 127
1, 114195, Note_off_c, 1, 76, 0
1, 114210, Note_off_c, 1, 73, 0
1, 114210, Note_on_c, 1, 68, 127
1, 114211, Note_on_c, 1, 71, 127
1, 114225, Note_off_c, 1, 71, 0
1, 114239, Note_off_c, 1, 64, 0
1, 114239, Note_off_c, 1, 56, 0
1, 114239, Note_off_c, 1, 68, 0
1, 114240, Note_on_c, 1, 66, 127
1, 114240, Note_on_c, 1, 54, 127
1, 114285, Note_on_c, 1, 69, 127
1, 114299, Note_off_c, 1, 66, 0
1, 114299, Note_off_c, 1, 54, 0
1, 114299, Note_off_c, 1, 69, 0
1, 114300, Note_on_c, 1, 42, 127
1, 114330, Note_on_c, 1, 74, 127
1, 114344, Note_off_c, 1, 74, 0
1, 114359, Note_off_c, 1, 42, 0
1, 114360, Note_on_c, 1, 78, 127
1, 114360, Note_on_c, 1, 73, 127
1, 114360, Note_on_c, 1, 66, 127
1, 114360, Note_on_c, 1, 57, 127
1, 114360, Note_on_c, 1, 42, 127
1, 114374, Note_off_c, 1, 78, 0
1, 114375, Note_on_c, 1, 74, 127
1, 114389, Note_off_c, 1, 74, 0
1, 114419, Note_off_c, 1, 66, 0
1, 114419, Note_off_c, 1, 42, 0
1, 114420, Note_on_c, 1, 76, 127
1, 114434, Note_off_c, 1, 76, 0
1, 114449, Note_off_c, 1, 73, 0
1, 114449, Note_off_c, 1, 57, 0
1, 114450, Note_on_c, 1, 71, 127
1, 114450, Note_on_c, 1, 69, 127
1, 114450, Note_on_c, 1, 54, 127
1, 114464, Note_off_c, 1, 71, 0
1, 114479, Note_off_c, 1, 69, 0
1, 114479, Note_off_c, 1, 54, 0
1, 114480, Note_on_c, 1, 74, 127
1, 114480, Note_on_c, 1, 71, 127
1, 114480, Note_on_c, 1, 66, 127
1, 114480, Note_on_c, 1, 57, 127
1, 114480, Note_on_c, 1, 47, 127
1, 114539, Note_off_c, 1, 66, 0
1, 114539, Note_off_c, 1, 57, 0
1, 114539, Note_off_c, 1, 47, 0
1, 114540, Note_on_c, 1, 62, 127
1, 114540, Note_on_c, 1, 50, 127
1, 114540, Note_on_c, 1, 59, 127
1, 114555, Note_off_c, 1, 74, 0
1, 114569, Note_off_c, 1, 71, 0
1, 114569, Note_off_c, 1, 50, 0
1, 114569, Note_off_c, 1, 59, 0
1, 114570, Note_on_c, 1, 69, 127
1, 114570, Note_on_c, 1, 54, 127
1, 114584, Note_off_c, 1, 69, 0
1, 114599, Note_off_c, 1, 62, 0
1, 114599, Note_off_c, 1, 54, 0
1, 114600, Note_on_c, 1, 74, 127
1, 114600, Note_on_c, 1, 71, 127
1, 114600, Note_on_c, 1, 59, 127
1, 114600, Note_on_c, 1, 56, 127
1, 114630, Note_on_c, 1, 57, 127
1, 114659, Note_off_c, 1, 59, 0
1, 114659, Note_off_c, 1, 56, 0
1, 114659, Note_off_c, 1, 57, 0
1, 114660, Note_on_c, 1, 62, 127
1, 114660, Note_on_c, 1, 54, 127
1, 114675, Note_off_c, 1, 74, 0
1, 114689, Note_off_c, 1, 71, 0
1, 114690, Note_on_c, 1, 69, 127
1, 114690, Note_on_c, 1, 66, 127
1, 114704, Note_off_c, 1, 69, 0
1, 114719, Note_off_c, 1, 62, 0
1, 114719, Note_off_c, 1, 54, 0
1, 114719, Note_off_c, 1, 66, 0
1, 114720, Note_on_c, 1, 74, 127
1, 114720, Note_on_c, 1, 71, 127
1, 114720, Note_on_c, 1, 64, 127
1, 114720, Note_on_c, 1, 56, 127
1, 114720, Note_on_c, 1, 52, 127
1, 114734, Note_off_c, 1, 74, 0
1, 114750, Note_on_c, 1, 66, 127
1, 114764, Note_off_c, 1, 66, 0
1, 114765, Note_on_c, 1, 68, 127
1, 114779, Note_off_c, 1, 64, 0
1, 114779, Note_off_c, 1, 52, 0
1, 114779, Note_off_c, 1, 68, 0
1, 114780, Note_on_c, 1, 69, 127
1, 114780, Note_on_c, 1, 40, 127
1, 114794, Note_off_c, 1, 69, 0
1, 114809, Note_off_c, 1, 71, 0
1, 114809, Note_off_c, 1, 56, 0
1, 114810, Note_on_c, 1, 73, 127
1, 114824, Note_off_c, 1, 73, 0
1, 114839, Note_off_c, 1, 40, 0
1, 114840, Note_on_c, 1, 76, 127
1, 114840, Note_on_c, 1, 71, 127
1, 114840, Note_on_c, 1, 64, 127
1, 114840, Note_on_c, 1, 56, 127
1, 114840, Note_on_c, 1, 40, 127
1, 114854, Note_off_c, 1, 76, 0
1, 114855, Note_on_c, 1, 73, 127
1, 114869, Note_off_c, 1, 73, 0
1, 114899, Note_off_c, 1, 64, 0
1, 114899, Note_off_c, 1, 40, 0
1, 114900, Note_on_c, 1, 74, 127
1, 114914, Note_off_c, 1, 74, 0
1, 114929, Note_off_c, 1, 71, 0
1, 114929, Note_off_c, 1, 56, 0
1, 114930, Note_on_c, 1, 69, 127
1, 114930, Note_on_c, 1, 68, 127
1, 114930, Note_on_c, 1, 52, 127
1, 114944, Note_off_c, 1, 69, 0
1, 114959, Note_off_c, 1, 68, 0
1, 114959, Note_off_c, 1, 52, 0
1, 114960, Note_on_c, 1, 73, 127
1, 114960, Note_on_c, 1, 69, 127
1, 114960, Note_on_c, 1, 64, 127
1, 114960, Note_on_c, 1, 57, 127
1, 114960, Note_on_c, 1, 52, 127
1, 114974, Note_off_c, 1, 73, 0
1, 114975, Note_on_c, 1, 71, 127
1, 114989, Note_off_c, 1, 71, 0
1, 115005, Note_on_c, 1, 74, 127
1, 115019, Note_off_c, 1, 64, 0
1, 115019, Note_off_c, 1, 57, 0
1, 115019, Note_off_c, 1, 52, 0
1, 115019, Note_off_c, 1, 74, 0
1, 115020, Note_on_c, 1, 76, 127
1, 115020, Note_on_c, 1, 40, 127
1, 115034, Note_off_c, 1, 76, 0
1, 115035, Note_on_c, 1, 78, 127
1, 115049, Note_off_c, 1, 69, 0
1, 115049, Note_off_c, 1, 78, 0
1, 115050, Note_on_c, 1, 80, 127
1, 115064, Note_off_c, 1, 80, 0
1, 115065, Note_on_c, 1, 81, 127
1, 115079, Note_off_c, 1, 40, 0
1, 115079, Note_off_c, 1, 81, 0
1, 115080, Note_on_c, 1, 83, 127
1, 115080, Note_on_c, 1, 76, 127
1, 115080, Note_on_c, 1, 64, 127
1, 115080, Note_on_c, 1, 62, 127
1, 115080, Note_on_c, 1, 40, 127
1, 115094, Note_off_c, 1, 83, 0
1, 115095, Note_on_c, 1, 80, 127
1, 115109, Note_off_c, 1, 62, 0
1, 115109, Note_off_c, 1, 80, 0
1, 115110, Note_on_c, 1, 78, 127
1, 115110, Note_on_c, 1, 61, 127
1, 115124, Note_off_c, 1, 78, 0
1, 115139, Note_off_c, 1, 64, 0
1, 115139, Note_off_c, 1, 40, 0
1, 115139, Note_off_c, 1, 61, 0
1, 115140, Note_on_c, 1, 81, 127
1, 115140, Note_on_c, 1, 59, 127
1, 115154, Note_off_c, 1, 81, 0
1, 115169, Note_off_c, 1, 76, 0
1, 115169, Note_off_c, 1, 59, 0
1, 115170, Note_on_c, 1, 73, 127
1, 115170, Note_on_c, 1, 57, 127
1, 115199, Note_off_c, 1, 73, 0
1, 115199, Note_off_c, 1, 57, 0
1, 115200, Note_on_c, 1, 80, 127
1, 115200, Note_on_c, 1, 74, 127
1, 115200, Note_on_c, 1, 64, 127
1, 115200, Note_on_c, 1, 59, 127
1, 115200, Note_on_c, 1, 52, 127
1, 115214, Note_off_c, 1, 80, 0
1, 115215, Note_on_c, 1, 76, 127
1, 115229, Note_off_c, 1, 76, 0
1, 115259, Note_off_c, 1, 64, 0
1, 115259, Note_off_c, 1, 52, 0
1, 115260, Note_on_c, 1, 78, 127
1, 115260, Note_on_c, 1, 40, 127
1, 115274, Note_off_c, 1, 78, 0
1, 115289, Note_off_c, 1, 74, 0
1, 115290, Note_on_c, 1, 73, 127
1, 115290, Note_on_c, 1, 71, 127
1, 115304, Note_off_c, 1, 73, 0
1, 115319, Note_off_c, 1, 59, 0
1, 115319, Note_off_c, 1, 40, 0
1, 115319, Note_off_c, 1, 71, 0
1, 115320, Note_on_c, 1, 76, 127
1, 115320, Note_on_c, 1, 66, 127
1, 115320, Note_on_c, 1, 59, 127
1, 115320, Note_on_c, 1, 40, 127
1, 115334, Note_off_c, 1, 76, 0
1, 115335, Note_on_c, 1, 73, 127
1, 115349, Note_off_c, 1, 73, 0
1, 115350, Note_on_c, 1, 71, 127
1, 115364, Note_off_c, 1, 71, 0
1, 115379, Note_off_c, 1, 40, 0
1, 115380, Note_on_c, 1, 74, 127
1, 115380, Note_on_c, 1, 64, 127
1, 115380, Note_on_c, 1, 42, 127
1, 115394, Note_off_c, 1, 74, 0
1, 115409, Note_off_c, 1, 66, 0
1, 115409, Note_off_c, 1, 59, 0
1, 115409, Note_off_c, 1, 42, 0
1, 115410, Note_on_c, 1, 69, 127
1, 115410, Note_on_c, 1, 52, 127
1, 115410, Note_on_c, 1, 44, 127
1, 115424, Note_off_c, 1, 69, 0
1, 115439, Note_off_c, 1, 64, 0
1, 115439, Note_off_c, 1, 52, 0
1, 115439, Note_off_c, 1, 44, 0
1, 115440, Note_on_c, 1, 73, 127
1, 115440, Note_on_c, 1, 66, 127
1, 115440, Note_on_c, 1, 64, 127
1, 115440, Note_on_c, 1, 61, 127
1, 115440, Note_on_c, 1, 45, 127
1, 115469, Note_off_c, 1, 73, 0
1, 115469, Note_off_c, 1, 66, 0
1, 115469, Note_off_c, 1, 45, 0
1, 115470, Note_on_c, 1, 76, 127
1, 115470, Note_on_c, 1, 47, 127
1, 115499, Note_off_c, 1, 64, 0
1, 115499, Note_off_c, 1, 61, 0
1, 115499, Note_off_c, 1, 76, 0
1, 115499, Note_off_c, 1, 47, 0
1, 115500, Note_on_c, 1, 81, 127
1, 115500, Note_on_c, 1, 76, 127
1, 115500, Note_on_c, 1, 61, 127
1, 115500, Note_on_c, 1, 57, 127
1, 115500, Note_on_c, 1, 49, 127
1, 115529, Note_off_c, 1, 57, 0
1, 115529, Note_off_c, 1, 49, 0
1, 115530, Note_on_c, 1, 45, 127
1, 115559, Note_off_c, 1, 81, 0
1, 115559, Note_off_c, 1, 61, 0
1, 115559, Note_off_c, 1, 45, 0
1, 115560, Note_off_c, 1, 76, 0
1, 115560, Note_on_c, 1, 66, 127
1, 115560, Note_on_c, 1, 50, 127
1, 115589, Note_off_c, 1, 66, 0
1, 115589, Note_off_c, 1, 50, 0
1, 115590, Note_on_c, 1, 64, 127
1, 115590, Note_on_c, 1, 52, 127
1, 115619, Note_off_c, 1, 64, 0
1, 115619, Note_off_c, 1, 52, 0
1, 115620, Note_on_c, 1, 62, 127
1, 115620, Note_on_c, 1, 54, 127
1, 115649, Note_off_c, 1, 62, 0
1, 115649, Note_off_c, 1, 54, 0
1, 115650, Note_on_c, 1, 61, 127
1, 115650, Note_on_c, 1, 50, 127
1, 115679, Note_off_c, 1, 61, 0
1, 115679, Note_off_c, 1, 50, 0
1, 115680, Note_on_c, 1, 59, 127
1, 115680, Note_on_c, 1, 52, 127
1, 115739, Note_off_c, 1, 59, 0
1, 115739, Note_off_c, 1, 52, 0
1, 115740, Note_on_c, 1, 56, 127
1, 115740, Note_on_c, 1, 50, 127
1, 115769, Note_off_c, 1, 56, 0
1, 115769, Note_off_c, 1, 50, 0
1, 115770, Note_on_c, 1, 57, 127
1, 115770, Note_on_c, 1, 49, 127
1, 115799, Note_off_c, 1, 57, 0
1, 115799, Note_off_c, 1, 49, 0
1, 115800, Note_on_c, 1, 59, 127
1, 115800, Note_on_c, 1, 47, 127
1, 115829, Note_off_c, 1, 47, 0
1, 115830, Note_on_c, 1, 45, 127
1, 115859, Note_off_c, 1, 59, 0
1, 115859, Note_off_c, 1, 45, 0
1, 115860, Note_on_c, 1, 68, 127
1, 115860, Note_on_c, 1, 64, 127
1, 115860, Note_on_c, 1, 59, 127
1, 115860, Note_on_c, 1, 44, 127
1, 115889, Note_off_c, 1, 68, 0
1, 115889, Note_off_c, 1, 64, 0
1, 115889, Note_off_c, 1, 44, 0
1, 115890, Note_on_c, 1, 69, 127
1, 115890, Note_on_c, 1, 66, 127
1, 115890, Note_on_c, 1, 42, 127
1, 115919, Note_off_c, 1, 59, 0
1, 115919, Note_off_c, 1, 69, 0
1, 115919, Note_off_c, 1, 66, 0
1, 115919, Note_off_c, 1, 42, 0
1, 115920, Note_on_c, 1, 71, 127
1, 115920, Note_on_c, 1, 68, 127
1, 115920, Note_on_c, 1, 64, 127
1, 115920, Note_on_c, 1, 40, 127
1, 115949, Note_off_c, 1, 64, 0
1, 115950, Note_on_c, 1, 63, 127
1, 115979, Note_off_c, 1, 71, 0
1, 115979, Note_off_c, 1, 68, 0
1, 115979, Note_off_c, 1, 40, 0
1, 115979, Note_off_c, 1, 63, 0
1, 115980, Note_on_c, 1, 69, 127
1, 115980, Note_on_c, 1, 66, 127
1, 115980, Note_on_c, 1, 64, 127
1, 115980, Note_on_c, 1, 40, 127
1, 116009, Note_off_c, 1, 64, 0
1, 116010, Note_on_c, 1, 63, 127
1, 116039, Note_off_c, 1, 69, 0
1, 116039, Note_off_c, 1, 66, 0
1, 116039, Note_off_c, 1, 40, 0
1, 116039, Note_off_c, 1, 63, 0
1, 116040, Note_on_c, 1, 71, 127
1, 116040, Note_on_c, 1, 68, 127
1, 116040, Note_on_c, 1, 64, 127
1, 116040, Note_on_c, 1, 40, 127
1, 116099, Note_off_c, 1, 71, 0
1, 116099, Note_off_c, 1, 68, 0
1, 116099, Note_off_c, 1, 64, 0
1, 116099, Note_off_c, 1, 40, 0
1, 116100, Note_on_c, 1, 73, 127
1, 116100, Note_on_c, 1, 68, 127
1, 116100, Note_on_c, 1, 52, 127
1, 116100, Note_on_c, 1, 40, 127
1, 116159, Note_off_c, 1, 73, 0
1, 116159, Note_off_c, 1, 68, 0
1, 116159, Note_off_c, 1, 52, 0
1, 116159, Note_off_c, 1, 40, 0
1, 116160, Note_on_c, 1, 74, 127
1, 116160, Note_on_c, 1, 69, 127
1, 116160, Note_on_c, 1, 66, 127
1, 116160, Note_on_c, 1, 57, 127
1, 116160, Note_on_c, 1, 42, 127
1, 116219, Note_off_c, 1, 74, 0
1, 116219, Note_off_c, 1, 69, 0
1, 116219, Note_off_c, 1, 66, 0
1, 116219, Note_off_c, 1, 57, 0
1, 116219, Note_off_c, 1, 42, 0
1, 116220, Note_on_c, 1, 69, 127
1, 116220, Note_on_c, 1, 66, 127
1, 116220, Note_on_c, 1, 62, 127
1, 116220, Note_on_c, 1, 57, 127
1, 116220, Note_on_c, 1, 42, 127
1, 116249, Note_off_c, 1, 69, 0
1, 116249, Note_off_c, 1, 66, 0
1, 116249, Note_off_c, 1, 62, 0
1, 116250, Note_on_c, 1, 74, 127
1, 116279, Note_off_c, 1, 57, 0
1, 116279, Note_off_c, 1, 42, 0
1, 116279, Note_off_c, 1, 74, 0
1, 116280, Note_on_c, 1, 78, 127
1, 116280, Note_on_c, 1, 74, 127
1, 116280, Note_on_c, 1, 69, 127
1, 116280, Note_on_c, 1, 57, 127
1, 116280, Note_on_c, 1, 42, 127
1, 116309, Note_off_c, 1, 78, 0
1, 116310, Note_on_c, 1, 76, 127
1, 116339, Note_off_c, 1, 74, 0
1, 116339, Note_off_c, 1, 69, 0
1, 116339, Note_off_c, 1, 57, 0
1, 116339, Note_off_c, 1, 42, 0
1, 116339, Note_off_c, 1, 76, 0
1, 116340, Note_on_c, 1, 74, 127
1, 116340, Note_on_c, 1, 57, 127
1, 116340, Note_on_c, 1, 42, 127
1, 116369, Note_off_c, 1, 74, 0
1, 116370, Note_on_c, 1, 73, 127
1, 116399, Note_off_c, 1, 57, 0
1, 116399, Note_off_c, 1, 42, 0
1, 116399, Note_off_c, 1, 73, 0
1, 116400, Note_on_c, 1, 74, 127
1, 116400, Note_on_c, 1, 57, 127
1, 116400, Note_on_c, 1, 42, 127
1, 116459, Note_off_c, 1, 74, 0
1, 116459, Note_off_c, 1, 57, 0
1, 116459, Note_off_c, 1, 42, 0
1, 116460, Note_on_c, 1, 69, 127
1, 116460, Note_on_c, 1, 74, 127
1, 116460, Note_on_c, 1, 54, 127
1, 116460, Note_on_c, 1, 42, 127
1, 116489, Note_off_c, 1, 69, 0
1, 116489, Note_off_c, 1, 74, 0
1, 116489, Note_off_c, 1, 54, 0
1, 116490, Note_on_c, 1, 66, 127
1, 116490, Note_on_c, 1, 56, 127
1, 116519, Note_off_c, 1, 42, 0
1, 116519, Note_off_c, 1, 66, 0
1, 116519, Note_off_c, 1, 56, 0
1, 116520, Note_on_c, 1, 78, 127
1, 116520, Note_on_c, 1, 66, 127
1, 116520, Note_on_c, 1, 62, 127
1, 116520, Note_on_c, 1, 57, 127
1, 116520, Note_on_c, 1, 42, 127
1, 116549, Note_off_c, 1, 78, 0
1, 116550, Note_on_c, 1, 76, 127
1, 116579, Note_off_c, 1, 66, 0
1, 116579, Note_off_c, 1, 62, 0
1, 116579, Note_off_c, 1, 57, 0
1, 116579, Note_off_c, 1, 42, 0
1, 116579, Note_off_c, 1, 76, 0
1, 116580, Note_on_c, 1, 74, 127
1, 116580, Note_on_c, 1, 56, 127
1, 116580, Note_on_c, 1, 42, 127
1, 116609, Note_off_c, 1, 74, 0
1, 116609, Note_off_c, 1, 56, 0
1, 116610, Note_on_c, 1, 73, 127
1, 116610, Note_on_c, 1, 57, 127
1, 116639, Note_off_c, 1, 42, 0
1, 116639, Note_off_c, 1, 73, 0
1, 116639, Note_off_c, 1, 57, 0
1, 116640, Note_on_c, 1, 74, 127
1, 116640, Note_on_c, 1, 59, 127
1, 116640, Note_on_c, 1, 44, 127
1, 116699, Note_off_c, 1, 74, 0
1, 116699, Note_off_c, 1, 59, 0
1, 116699, Note_off_c, 1, 44, 0
1, 116700, Note_on_c, 1, 64, 127
1, 116700, Note_on_c, 1, 59, 127
1, 116700, Note_on_c, 1, 62, 127
1, 116700, Note_on_c, 1, 44, 127
1, 116729, Note_off_c, 1, 64, 0
1, 116729, Note_off_c, 1, 59, 0
1, 116729, Note_off_c, 1, 62, 0
1, 116730, Note_on_c, 1, 73, 127
1, 116730, Note_on_c, 1, 68, 127
1, 116730, Note_on_c, 1, 61, 127
1, 116759, Note_off_c, 1, 44, 0
1, 116759, Note_off_c, 1, 73, 0
1, 116759, Note_off_c, 1, 68, 0
1, 116759, Note_off_c, 1, 61, 0
1, 116760, Note_on_c, 1, 74, 127
1, 116760, Note_on_c, 1, 71, 127
1, 116760, Note_on_c, 1, 68, 127
1, 116760, Note_on_c, 1, 59, 127
1, 116760, Note_on_c, 1, 44, 127
1, 116789, Note_off_c, 1, 74, 0
1, 116790, Note_on_c, 1, 73, 127
1, 116819, Note_off_c, 1, 71, 0
1, 116819, Note_off_c, 1, 68, 0
1, 116819, Note_off_c, 1, 59, 0
1, 116819, Note_off_c, 1, 44, 0
1, 116819, Note_off_c, 1, 73, 0
1, 116820, Note_on_c, 1, 71, 127
1, 116820, Note_on_c, 1, 59, 127
1, 116820, Note_on_c, 1, 44, 127
1, 116849, Note_off_c, 1, 71, 0
1, 116850, Note_on_c, 1, 69, 127
1, 116879, Note_off_c, 1, 59, 0
1, 116879, Note_off_c, 1, 44, 0
1, 116879, Note_off_c, 1, 69, 0
1, 116880, Note_on_c, 1, 71, 127
1, 116880, Note_on_c, 1, 59, 127
1, 116880, Note_on_c, 1, 44, 127
1, 116939, Note_off_c, 1, 71, 0
1, 116939, Note_off_c, 1, 59, 0
1, 116939, Note_off_c, 1, 44, 0
1, 116940, Note_on_c, 1, 64, 127
1, 116940, Note_on_c, 1, 71, 127
1, 116940, Note_on_c, 1, 68, 127
1, 116940, Note_on_c, 1, 56, 127
1, 116940, Note_on_c, 1, 44, 127
1, 116969, Note_off_c, 1, 64, 0
1, 116969, Note_off_c, 1, 71, 0
1, 116969, Note_off_c, 1, 68, 0
1, 116969, Note_off_c, 1, 56, 0
1, 116970, Note_on_c, 1, 74, 127
1, 116970, Note_on_c, 1, 57, 127
1, 116999, Note_off_c, 1, 44, 0
1, 116999, Note_off_c, 1, 74, 0
1, 116999, Note_off_c, 1, 57, 0
1, 117000, Note_on_c, 1, 76, 127
1, 117000, Note_on_c, 1, 64, 127
1, 117000, Note_on_c, 1, 59, 127
1, 117000, Note_on_c, 1, 44, 127
1, 117029, Note_off_c, 1, 76, 0
1, 117030, Note_on_c, 1, 74, 127
1, 117059, Note_off_c, 1, 64, 0
1, 117059, Note_off_c, 1, 59, 0
1, 117059, Note_off_c, 1, 44, 0
1, 117059, Note_off_c, 1, 74, 0
1, 117060, Note_on_c, 1, 73, 127
1, 117060, Note_on_c, 1, 64, 127
1, 117060, Note_on_c, 1, 59, 127
1, 117060, Note_on_c, 1, 44, 127
1, 117089, Note_off_c, 1, 73, 0
1, 117090, Note_on_c, 1, 71, 127
1, 117119, Note_off_c, 1, 64, 0
1, 117119, Note_off_c, 1, 59, 0
1, 117119, Note_off_c, 1, 44, 0
1, 117119, Note_off_c, 1, 71, 0
1, 117120, Note_on_c, 1, 73, 127
1, 117120, Note_on_c, 1, 64, 127
1, 117120, Note_on_c, 1, 57, 127
1, 117120, Note_on_c, 1, 62, 127
1, 117120, Note_on_c, 1, 45, 127
1, 117149, Note_off_c, 1, 62, 0
1, 117150, Note_on_c, 1, 61, 127
1, 117179, Note_off_c, 1, 73, 0
1, 117179, Note_off_c, 1, 64, 0
1, 117179, Note_off_c, 1, 57, 0
1, 117179, Note_off_c, 1, 45, 0
1, 117179, Note_off_c, 1, 61, 0
1, 117180, Note_on_c, 1, 76, 127
1, 117180, Note_on_c, 1, 69, 127
1, 117180, Note_on_c, 1, 57, 127
1, 117180, Note_on_c, 1, 59, 127
1, 117180, Note_on_c, 1, 49, 127
1, 117209, Note_off_c, 1, 59, 0
1, 117209, Note_off_c, 1, 49, 0
1, 117210, Note_on_c, 1, 50, 127
1, 117239, Note_off_c, 1, 76, 0
1, 117239, Note_off_c, 1, 69, 0
1, 117239, Note_off_c, 1, 57, 0
1, 117239, Note_off_c, 1, 50, 0
1, 117240, Note_on_c, 1, 74, 127
1, 117240, Note_on_c, 1, 69, 127
1, 117240, Note_on_c, 1, 59, 127
1, 117240, Note_on_c, 1, 52, 127
1, 117269, Note_off_c, 1, 74, 0
1, 117270, Note_on_c, 1, 73, 127
1, 117299, Note_off_c, 1, 69, 0
1, 117299, Note_off_c, 1, 59, 0
1, 117299, Note_off_c, 1, 52, 0
1, 117299, Note_off_c, 1, 73, 0
1, 117300, Note_on_c, 1, 71, 127
1, 117300, Note_on_c, 1, 64, 127
1, 117300, Note_on_c, 1, 59, 127
1, 117300, Note_on_c, 1, 56, 127
1, 117300, Note_on_c, 1, 40, 127
1, 117329, Note_off_c, 1, 71, 0
1, 117330, Note_on_c, 1, 73, 127
1, 117359, Note_off_c, 1, 64, 0
1, 117359, Note_off_c, 1, 59, 0
1, 117359, Note_off_c, 1, 56, 0
1, 117359, Note_off_c, 1, 40, 0
1, 117359, Note_off_c, 1, 73, 0
1, 117360, Note_on_c, 1, 69, 127
1, 117360, Note_on_c, 1, 64, 127
1, 117360, Note_on_c, 1, 61, 127
1, 117360, Note_on_c, 1, 45, 127
1, 117419, Note_off_c, 1, 69, 0
1, 117419, Note_off_c, 1, 64, 0
1, 117419, Note_off_c, 1, 61, 0
1, 117419, Note_off_c, 1, 45, 0
1, 117420, Note_on_c, 1, 73, 127
1, 117420, Note_on_c, 1, 61, 127
1, 117420, Note_on_c, 1, 49, 127
1, 117449, Note_off_c, 1, 73, 0
1, 117449, Note_off_c, 1, 61, 0
1, 117449, Note_off_c, 1, 49, 0
1, 117450, Note_on_c, 1, 74, 127
1, 117450, Note_on_c, 1, 62, 127
1, 117450, Note_on_c, 1, 50, 127
1, 117479, Note_off_c, 1, 74, 0
1, 117479, Note_off_c, 1, 62, 0
1, 117479, Note_off_c, 1, 50, 0
1, 117480, Note_on_c, 1, 76, 127
1, 117480, Note_on_c, 1, 64, 127
1, 117480, Note_on_c, 1, 52, 127
1, 117539, Note_off_c, 1, 76, 0
1, 117539, Note_off_c, 1, 64, 0
1, 117539, Note_off_c, 1, 52, 0
1, 117540, Note_on_c, 1, 78, 127
1, 117540, Note_on_c, 1, 66, 127
1, 117540, Note_on_c, 1, 54, 127
1, 117569, Note_off_c, 1, 78, 0
1, 117569, Note_off_c, 1, 66, 0
1, 117569, Note_off_c, 1, 54, 0
1, 117570, Note_on_c, 1, 80, 127
1, 117570, Note_on_c, 1, 68, 127
1, 117570, Note_on_c, 1, 56, 127
1, 117599, Note_off_c, 1, 80, 0
1, 117599, Note_off_c, 1, 68, 0
1, 117599, Note_off_c, 1, 56, 0
1, 117600, Note_on_c, 1, 81, 127
1, 117600, Note_on_c, 1, 69, 127
1, 117600, Note_on_c, 1, 57, 127
1, 117659, Note_off_c, 1, 81, 0
1, 117659, Note_off_c, 1, 69, 0
1, 117659, Note_off_c, 1, 57, 0
1, 117660, Note_on_c, 1, 52, 127
1, 117660, Note_on_c, 1, 49, 127
1, 117689, Note_off_c, 1, 49, 0
1, 117690, Note_on_c, 1, 50, 127
1, 117719, Note_off_c, 1, 52, 0
1, 117719, Note_off_c, 1, 50, 0
1, 117720, Note_on_c, 1, 62, 127
1, 117720, Note_on_c, 1, 52, 127
1, 117749, Note_off_c, 1, 62, 0
1, 117750, Note_on_c, 1, 61, 127
1, 117779, Note_off_c, 1, 52, 0
1, 117779, Note_off_c, 1, 61, 0
1, 117780, Note_on_c, 1, 59, 127
1, 117780, Note_on_c, 1, 40, 127
1, 117809, Note_off_c, 1, 59, 0
1, 117810, Note_on_c, 1, 61, 127
1, 117839, Note_off_c, 1, 40, 0
1, 117839, Note_off_c, 1, 61, 0
1, 117840, Note_on_c, 1, 57, 127
1, 117840, Note_on_c, 1, 45, 127
1, 117959, Note_off_c, 1, 57, 0
1, 118019, Note_off_c, 1, 45, 0
1, 118020, Note_on_c, 1, 64, 127
1, 118020, Note_on_c, 1, 61, 127
1, 118020, Note_on_c, 1, 57, 127
1, 118049, Note_off_c, 1, 61, 0
1, 118049, Note_off_c, 1, 57, 0
1, 118050, Note_on_c, 1, 62, 127
1, 118050, Note_on_c, 1, 59, 127
1, 118079, Note_off_c, 1, 64, 0
1, 118079, Note_off_c, 1, 62, 0
1, 118079, Note_off_c, 1, 59, 0
1, 118080, Note_on_c, 1, 69, 127
1, 118080, Note_on_c, 1, 64, 127
1, 118080, Note_on_c, 1, 61, 127
1, 118139, Note_off_c, 1, 69, 0
1, 118139, Note_off_c, 1, 64, 0
1, 118139, Note_off_c, 1, 61, 0
1, 118140, Note_on_c, 1, 69, 127
1, 118140, Note_on_c, 1, 66, 127
1, 118140, Note_on_c, 1, 62, 127
1, 118199, Note_off_c, 1, 69, 0
1, 118199, Note_off_c, 1, 66, 0
1, 118199, Note_off_c, 1, 62, 0
1, 118200, Note_on_c, 1, 69, 127
1, 118200, Note_on_c, 1, 64, 127
1, 118200, Note_on_c, 1, 61, 127
1, 118259, Note_off_c, 1, 69, 0
1, 118259, Note_off_c, 1, 64, 0
1, 118259, Note_off_c, 1, 61, 0
1, 118260, Note_on_c, 1, 69, 127
1, 118260, Note_on_c, 1, 62, 127
1, 118260, Note_on_c, 1, 59, 127
1, 118319, Note_off_c, 1, 69, 0
1, 118319, Note_off_c, 1, 62, 0
1, 118319, Note_off_c, 1, 59, 0
1, 118320, Note_on_c, 1, 69, 127
1, 118320, Note_on_c, 1, 64, 127
1, 118320, Note_on_c, 1, 61, 127
1, 118379, Note_off_c, 1, 69, 0
1, 118379, Note_off_c, 1, 64, 0
1, 118379, Note_off_c, 1, 61, 0
1, 118380, Note_on_c, 1, 64, 127
1, 118380, Note_on_c, 1, 62, 127
1, 118380, Note_on_c, 1, 59, 127
1, 118409, Note_off_c, 1, 64, 0
1, 118409, Note_off_c, 1, 62, 0
1, 118409, Note_off_c, 1, 59, 0
1, 118410, Note_on_c, 1, 69, 127
1, 118410, Note_on_c, 1, 64, 127
1, 118410, Note_on_c, 1, 61, 127
1, 118439, Note_off_c, 1, 69, 0
1, 118439, Note_off_c, 1, 64, 0
1, 118439, Note_off_c, 1, 61, 0
1, 118440, Note_on_c, 1, 73, 127
1, 118440, Note_on_c, 1, 61, 127
1, 118440, Note_on_c, 1, 57, 127
1, 118440, Note_on_c, 1, 76, 127
1, 118469, Note_off_c, 1, 73, 0
1, 118469, Note_off_c, 1, 76, 0
1, 118470, Note_on_c, 1, 71, 127
1, 118470, Note_on_c, 1, 74, 127
1, 118499, Note_off_c, 1, 61, 0
1, 118499, Note_off_c, 1, 57, 0
1, 118499, Note_off_c, 1, 71, 0
1, 118499, Note_off_c, 1, 74, 0
1, 118500, Note_on_c, 1, 69, 127
1, 118500, Note_on_c, 1, 62, 127
1, 118500, Note_on_c, 1, 59, 127
1, 118500, Note_on_c, 1, 73, 127
1, 118529, Note_off_c, 1, 69, 0
1, 118529, Note_off_c, 1, 73, 0
1, 118530, Note_on_c, 1, 68, 127
1, 118530, Note_on_c, 1, 71, 127
1, 118559, Note_off_c, 1, 62, 0
1, 118559, Note_off_c, 1, 59, 0
1, 118559, Note_off_c, 1, 68, 0
1, 118559, Note_off_c, 1, 71, 0
1, 118560, Note_on_c, 1, 69, 127
1, 118560, Note_on_c, 1, 64, 127
1, 118560, Note_on_c, 1, 61, 127
1, 118560, Note_on_c, 1, 73, 127
1, 118619, Note_off_c, 1, 69, 0
1, 118619, Note_off_c, 1, 64, 0
1, 118619, Note_off_c, 1, 61, 0
1, 118619, Note_off_c, 1, 73, 0
1, 118620, Note_on_c, 1, 64, 127
1, 118620, Note_on_c, 1, 59, 127
1, 118649, Note_off_c, 1, 59, 0
1, 118650, Note_on_c, 1, 69, 127
1, 118650, Note_on_c, 1, 61, 127
1, 118679, Note_off_c, 1, 64, 0
1, 118679, Note_off_c, 1, 69, 0
1, 118679, Note_off_c, 1, 61, 0
1, 118680, Note_on_c, 1, 74, 127
1, 118680, Note_on_c, 1, 64, 127
1, 118680, Note_on_c, 1, 57, 127
1, 118680, Note_on_c, 1, 71, 127
1, 118709, Note_off_c, 1, 74, 0
1, 118709, Note_off_c, 1, 71, 0
1, 118710, Note_on_c, 1, 73, 127
1, 118710, Note_on_c, 1, 69, 127
1, 118739, Note_off_c, 1, 64, 0
1, 118739, Note_off_c, 1, 57, 0
1, 118739, Note_off_c, 1, 73, 0
1, 118739, Note_off_c, 1, 69, 0
1, 118740, Note_on_c, 1, 71, 127
1, 118740, Note_on_c, 1, 64, 127
1, 118740, Note_on_c, 1, 61, 127
1, 118740, Note_on_c, 1, 68, 127
1, 118769, Note_off_c, 1, 71, 0
1, 118769, Note_off_c, 1, 68, 0
1, 118770, Note_on_c, 1, 69, 127
1, 118770, Note_on_c, 1, 66, 127
1, 118799, Note_off_c, 1, 64, 0
1, 118799, Note_off_c, 1, 61, 0
1, 118799, Note_off_c, 1, 69, 0
1, 118799, Note_off_c, 1, 66, 0
1, 118800, Note_on_c, 1, 71, 127
1, 118800, Note_on_c, 1, 64, 127
1, 118800, Note_on_c, 1, 56, 127
1, 118859, Note_off_c, 1, 71, 0
1, 118859, Note_off_c, 1, 64, 0
1, 118859, Note_off_c, 1, 56, 0
1, 118860, Note_on_c, 1, 64, 127
1, 118860, Note_on_c, 1, 54, 127
1, 118889, Note_off_c, 1, 54, 0
1, 118890, Note_on_c, 1, 71, 127
1, 118890, Note_on_c, 1, 56, 127
1, 118919, Note_off_c, 1, 64, 0
1, 118919, Note_off_c, 1, 71, 0
1, 118919, Note_off_c, 1, 56, 0
1, 118920, Note_on_c, 1, 76, 127
1, 118920, Note_on_c, 1, 64, 127
1, 118920, Note_on_c, 1, 52, 127
1, 118920, Note_on_c, 1, 73, 127
1, 118949, Note_off_c, 1, 76, 0
1, 118949, Note_off_c, 1, 73, 0
1, 118950, Note_on_c, 1, 74, 127
1, 118950, Note_on_c, 1, 71, 127
1, 118979, Note_off_c, 1, 64, 0
1, 118979, Note_off_c, 1, 52, 0
1, 118979, Note_off_c, 1, 74, 0
1, 118979, Note_off_c, 1, 71, 0
1, 118980, Note_on_c, 1, 73, 127
1, 118980, Note_on_c, 1, 64, 127
1, 118980, Note_on_c, 1, 56, 127
1, 118980, Note_on_c, 1, 69, 127
1, 119009, Note_off_c, 1, 73, 0
1, 119009, Note_off_c, 1, 69, 0
1, 119010, Note_on_c, 1, 71, 127
1, 119010, Note_on_c, 1, 68, 127
1, 119039, Note_off_c, 1, 64, 0
1, 119039, Note_off_c, 1, 56, 0
1, 119039, Note_off_c, 1, 71, 0
1, 119039, Note_off_c, 1, 68, 0
1, 119040, Note_on_c, 1, 73, 127
1, 119040, Note_on_c, 1, 64, 127
1, 119040, Note_on_c, 1, 57, 127
1, 119099, Note_off_c, 1, 73, 0
1, 119099, Note_off_c, 1, 64, 0
1, 119099, Note_off_c, 1, 57, 0
1, 119100, Note_on_c, 1, 71, 127
1, 119100, Note_on_c, 1, 62, 127
1, 119100, Note_on_c, 1, 52, 127
1, 119129, Note_off_c, 1, 71, 0
1, 119129, Note_off_c, 1, 62, 0
1, 119130, Note_on_c, 1, 73, 127
1, 119130, Note_on_c, 1, 64, 127
1, 119159, Note_off_c, 1, 52, 0
1, 119159, Note_off_c, 1, 73, 0
1, 119159, Note_off_c, 1, 64, 0
1, 119160, Note_on_c, 1, 69, 127
1, 119160, Note_on_c, 1, 61, 127
1, 119160, Note_on_c, 1, 45, 127
1, 119189, Note_off_c, 1, 61, 0
1, 119190, Note_on_c, 1, 62, 127
1, 119219, Note_off_c, 1, 69, 0
1, 119219, Note_off_c, 1, 45, 0
1, 119219, Note_off_c, 1, 62, 0
1, 119220, Note_on_c, 1, 73, 127
1, 119220, Note_on_c, 1, 64, 127
1, 119220, Note_on_c, 1, 57, 127
1, 119249, Note_off_c, 1, 64, 0
1, 119250, Note_on_c, 1, 66, 127
1, 119279, Note_off_c, 1, 73, 0
1, 119279, Note_off_c, 1, 57, 0
1, 119279, Note_off_c, 1, 66, 0
1, 119280, Note_on_c, 1, 71, 127
1, 119280, Note_on_c, 1, 68, 127
1, 119280, Note_on_c, 1, 52, 127
1, 119339, Note_off_c, 1, 71, 0
1, 119339, Note_off_c, 1, 68, 0
1, 119339, Note_off_c, 1, 52, 0
1, 119340, Note_on_c, 1, 71, 127
1, 119340, Note_on_c, 1, 69, 127
1, 119340, Note_on_c, 1, 66, 127
1, 119340, Note_on_c, 1, 51, 127
1, 119399, Note_off_c, 1, 71, 0
1, 119399, Note_off_c, 1, 69, 0
1, 119399, Note_off_c, 1, 66, 0
1, 119399, Note_off_c, 1, 51, 0
1, 119400, Note_on_c, 1, 71, 127
1, 119400, Note_on_c, 1, 68, 127
1, 119400, Note_on_c, 1, 64, 127
1, 119400, Note_on_c, 1, 52, 127
1, 119459, Note_off_c, 1, 71, 0
1, 119459, Note_off_c, 1, 68, 0
1, 119459, Note_off_c, 1, 64, 0
1, 119459, Note_off_c, 1, 52, 0
1, 119460, Note_on_c, 1, 71, 127
1, 119460, Note_on_c, 1, 66, 127
1, 119460, Note_on_c, 1, 63, 127
1, 119460, Note_on_c, 1, 54, 127
1, 119519, Note_off_c, 1, 71, 0
1, 119519, Note_off_c, 1, 66, 0
1, 119519, Note_off_c, 1, 63, 0
1, 119519, Note_off_c, 1, 54, 0
1, 119520, Note_on_c, 1, 71, 127
1, 119520, Note_on_c, 1, 64, 127
1, 119520, Note_on_c, 1, 56, 127
1, 119549, Note_off_c, 1, 56, 0
1, 119550, Note_on_c, 1, 54, 127
1, 119579, Note_off_c, 1, 71, 0
1, 119579, Note_off_c, 1, 64, 0
1, 119579, Note_off_c, 1, 54, 0
1, 119580, Note_on_c, 1, 73, 127
1, 119580, Note_on_c, 1, 68, 127
1, 119580, Note_on_c, 1, 64, 127
1, 119580, Note_on_c, 1, 52, 127
1, 119609, Note_off_c, 1, 73, 0
1, 119609, Note_off_c, 1, 68, 0
1, 119609, Note_off_c, 1, 52, 0
1, 119610, Note_on_c, 1, 75, 127
1, 119610, Note_on_c, 1, 66, 127
1, 119610, Note_on_c, 1, 51, 127
1, 119639, Note_off_c, 1, 64, 0
1, 119639, Note_off_c, 1, 75, 0
1, 119639, Note_off_c, 1, 66, 0
1, 119639, Note_off_c, 1, 51, 0
1, 119640, Note_on_c, 1, 76, 127
1, 119640, Note_on_c, 1, 68, 127
1, 119640, Note_on_c, 1, 64, 127
1, 119640, Note_on_c, 1, 49, 127
1, 119669, Note_off_c, 1, 76, 0
1, 119670, Note_on_c, 1, 78, 127
1, 119699, Note_off_c, 1, 68, 0
1, 119699, Note_off_c, 1, 64, 0
1, 119699, Note_off_c, 1, 49, 0
1, 119699, Note_off_c, 1, 78, 0
1, 119700, Note_on_c, 1, 80, 127
1, 119700, Note_on_c, 1, 68, 127
1, 119700, Note_on_c, 1, 61, 127
1, 119700, Note_on_c, 1, 52, 127
1, 119729, Note_off_c, 1, 80, 0
1, 119730, Note_on_c, 1, 76, 127
1, 119759, Note_off_c, 1, 68, 0
1, 119759, Note_off_c, 1, 61, 0
1, 119759, Note_off_c, 1, 52, 0
1, 119759, Note_off_c, 1, 76, 0
1, 119760, Note_on_c, 1, 69, 127
1, 119760, Note_on_c, 1, 68, 127
1, 119760, Note_on_c, 1, 61, 127
1, 119760, Note_on_c, 1, 54, 127
1, 119789, Note_off_c, 1, 54, 0
1, 119790, Note_on_c, 1, 52, 127
1, 119819, Note_off_c, 1, 69, 0
1, 119819, Note_off_c, 1, 68, 0
1, 119819, Note_off_c, 1, 61, 0
1, 119819, Note_off_c, 1, 52, 0
1, 119820, Note_on_c, 1, 71, 127
1, 119820, Note_on_c, 1, 66, 127
1, 119820, Note_on_c, 1, 54, 127
1, 119820, Note_on_c, 1, 51, 127
1, 119820, Note_on_c, 1, 69, 127
1, 119849, Note_off_c, 1, 71, 0
1, 119849, Note_off_c, 1, 66, 0
1, 119849, Note_off_c, 1, 51, 0
1, 119850, Note_on_c, 1, 73, 127
1, 119850, Note_on_c, 1, 64, 127
1, 119850, Note_on_c, 1, 49, 127
1, 119879, Note_off_c, 1, 54, 0
1, 119879, Note_off_c, 1, 69, 0
1, 119879, Note_off_c, 1, 73, 0
1, 119879, Note_off_c, 1, 64, 0
1, 119879, Note_off_c, 1, 49, 0
1, 119880, Note_on_c, 1, 75, 127
1, 119880, Note_on_c, 1, 66, 127
1, 119880, Note_on_c, 1, 59, 127
1, 119880, Note_on_c, 1, 47, 127
1, 119909, Note_off_c, 1, 75, 0
1, 119910, Note_on_c, 1, 76, 127
1, 119939, Note_off_c, 1, 66, 0
1, 119939, Note_off_c, 1, 59, 0
1, 119939, Note_off_c, 1, 47, 0
1, 119939, Note_off_c, 1, 76, 0
1, 119940, Note_on_c, 1, 78, 127
1, 119940, Note_on_c, 1, 66, 127
1, 119940, Note_on_c, 1, 59, 127
1, 119940, Note_on_c, 1, 57, 127
1, 119969, Note_off_c, 1, 78, 0
1, 119970, Note_on_c, 1, 75, 127
1, 119999, Note_off_c, 1, 66, 0
1, 119999, Note_off_c, 1, 59, 0
1, 119999, Note_off_c, 1, 57, 0
1, 119999, Note_off_c, 1, 75, 0
1, 120000, Note_on_c, 1, 76, 127
1, 120000, Note_on_c, 1, 71, 127
1, 120000, Note_on_c, 1, 59, 127
1, 120000, Note_on_c, 1, 56, 127
1, 120059, Note_off_c, 1, 76, 0
1, 120059, Note_off_c, 1, 71, 0
1, 120059, Note_off_c, 1, 59, 0
1, 120059, Note_off_c, 1, 56, 0
1, 120060, Note_on_c, 1, 71, 127
1, 120060, Note_on_c, 1, 68, 127
1, 120060, Note_on_c, 1, 59, 127
1, 120060, Note_on_c, 1, 52, 127
1, 120119, Note_off_c, 1, 71, 0
1, 120119, Note_off_c, 1, 68, 0
1, 120119, Note_off_c, 1, 59, 0
1, 120119, Note_off_c, 1, 52, 0
1, 120120, Note_on_c, 1, 68, 127
1, 120120, Note_on_c, 1, 64, 127
1, 120120, Note_on_c, 1, 59, 127
1, 120179, Note_off_c, 1, 68, 0
1, 120179, Note_off_c, 1, 64, 0
1, 120179, Note_off_c, 1, 59, 0
1, 120180, Note_on_c, 1, 66, 127
1, 120180, Note_on_c, 1, 63, 127
1, 120180, Note_on_c, 1, 57, 127
1, 120180, Note_on_c, 1, 47, 127
1, 120209, Note_off_c, 1, 66, 0
1, 120210, Note_on_c, 1, 64, 127
1, 120239, Note_off_c, 1, 63, 0
1, 120239, Note_off_c, 1, 57, 0
1, 120239, Note_off_c, 1, 47, 0
1, 120239, Note_off_c, 1, 64, 0
1, 120240, Note_on_c, 1, 64, 127
1, 120240, Note_on_c, 1, 59, 127
1, 120240, Note_on_c, 1, 56, 127
1, 120240, Note_on_c, 1, 52, 127
1, 120299, Note_off_c, 1, 52, 0
1, 120300, Note_on_c, 1, 51, 127
1, 120329, Note_off_c, 1, 51, 0
1, 120330, Note_on_c, 1, 49, 127
1, 120359, Note_off_c, 1, 64, 0
1, 120359, Note_off_c, 1, 59, 0
1, 120359, Note_off_c, 1, 49, 0
1, 120360, Note_on_c, 1, 47, 127
1, 120389, Note_off_c, 1, 47, 0
1, 120390, Note_on_c, 1, 66, 127
1, 120390, Note_on_c, 1, 63, 127
1, 120390, Note_on_c, 1, 45, 127
1, 120419, Note_off_c, 1, 56, 0
1, 120419, Note_off_c, 1, 66, 0
1, 120419, Note_off_c, 1, 63, 0
1, 120419, Note_off_c, 1, 45, 0
1, 120420, Note_on_c, 1, 68, 127
1, 120420, Note_on_c, 1, 64, 127
1, 120420, Note_on_c, 1, 59, 127
1, 120420, Note_on_c, 1, 44, 127
1, 120449, Note_off_c, 1, 68, 0
1, 120449, Note_off_c, 1, 64, 0
1, 120449, Note_off_c, 1, 44, 0
1, 120450, Note_on_c, 1, 69, 127
1, 120450, Note_on_c, 1, 66, 127
1, 120450, Note_on_c, 1, 42, 127
1, 120479, Note_off_c, 1, 59, 0
1, 120479, Note_off_c, 1, 69, 0
1, 120479, Note_off_c, 1, 66, 0
1, 120479, Note_off_c, 1, 42, 0
1, 120480, Note_on_c, 1, 71, 127
1, 120480, Note_on_c, 1, 68, 127
1, 120480, Note_on_c, 1, 64, 127
1, 120480, Note_on_c, 1, 40, 127
1, 120509, Note_off_c, 1, 64, 0
1, 120510, Note_on_c, 1, 62, 127
1, 120539, Note_off_c, 1, 71, 0
1, 120539, Note_off_c, 1, 68, 0
1, 120539, Note_off_c, 1, 40, 0
1, 120539, Note_off_c, 1, 62, 0
1, 120540, Note_on_c, 1, 73, 127
1, 120540, Note_on_c, 1, 69, 127
1, 120540, Note_on_c, 1, 61, 127
1, 120540, Note_on_c, 1, 40, 127
1, 120569, Note_off_c, 1, 61, 0
1, 120570, Note_on_c, 1, 62, 127
1, 120599, Note_off_c, 1, 73, 0
1, 120599, Note_off_c, 1, 69, 0
1, 120599, Note_off_c, 1, 40, 0
1, 120599, Note_off_c, 1, 62, 0
1, 120600, Note_on_c, 1, 71, 127
1, 120600, Note_on_c, 1, 68, 127
1, 120600, Note_on_c, 1, 64, 127
1, 120600, Note_on_c, 1, 40, 127
1, 120629, Note_off_c, 1, 64, 0
1, 120630, Note_on_c, 1, 66, 127
1, 120659, Note_off_c, 1, 71, 0
1, 120659, Note_off_c, 1, 68, 0
1, 120659, Note_off_c, 1, 40, 0
1, 120659, Note_off_c, 1, 66, 0
1, 120660, Note_on_c, 1, 69, 127
1, 120660, Note_on_c, 1, 66, 127
1, 120660, Note_on_c, 1, 64, 127
1, 120660, Note_on_c, 1, 40, 127
1, 120689, Note_off_c, 1, 64, 0
1, 120719, Note_off_c, 1, 69, 0
1, 120719, Note_off_c, 1, 66, 0
1, 120719, Note_off_c, 1, 40, 0
1, 120720, Note_on_c, 1, 71, 127
1, 120720, Note_on_c, 1, 68, 127
1, 120720, Note_on_c, 1, 64, 127
1, 120720, Note_on_c, 1, 40, 127
1, 120779, Note_off_c, 1, 71, 0
1, 120779, Note_off_c, 1, 68, 0
1, 120779, Note_off_c, 1, 64, 0
1, 120779, Note_off_c, 1, 40, 0
1, 120780, Note_on_c, 1, 69, 127
1, 120780, Note_on_c, 1, 66, 127
1, 120780, Note_on_c, 1, 59, 127
1, 120780, Note_on_c, 1, 40, 127
1, 120809, Note_off_c, 1, 69, 0
1, 120809, Note_off_c, 1, 66, 0
1, 120810, Note_on_c, 1, 71, 127
1, 120810, Note_on_c, 1, 68, 127
1, 120839, Note_off_c, 1, 59, 0
1, 120839, Note_off_c, 1, 40, 0
1, 120839, Note_off_c, 1, 71, 0
1, 120839, Note_off_c, 1, 68, 0
1, 120840, Note_on_c, 1, 68, 127
1, 120840, Note_on_c, 1, 64, 127
1, 120840, Note_on_c, 1, 59, 127
1, 120840, Note_on_c, 1, 40, 127
1, 120869, Note_off_c, 1, 68, 0
1, 120870, Note_on_c, 1, 69, 127
1, 120899, Note_off_c, 1, 64, 0
1, 120899, Note_off_c, 1, 59, 0
1, 120899, Note_off_c, 1, 40, 0
1, 120899, Note_off_c, 1, 69, 0
1, 120900, Note_on_c, 1, 71, 127
1, 120900, Note_on_c, 1, 68, 127
1, 120900, Note_on_c, 1, 64, 127
1, 120900, Note_on_c, 1, 40, 127
1, 120929, Note_off_c, 1, 71, 0
1, 120930, Note_on_c, 1, 73, 127
1, 120959, Note_off_c, 1, 68, 0
1, 120959, Note_off_c, 1, 64, 0
1, 120959, Note_off_c, 1, 40, 0
1, 120959, Note_off_c, 1, 73, 0
1, 120960, Note_on_c, 1, 74, 127
1, 120960, Note_on_c, 1, 69, 127
1, 120960, Note_on_c, 1, 62, 127
1, 120960, Note_on_c, 1, 42, 127
1, 121019, Note_off_c, 1, 74, 0
1, 121019, Note_off_c, 1, 69, 0
1, 121019, Note_off_c, 1, 62, 0
1, 121019, Note_off_c, 1, 42, 0
1, 121020, Note_on_c, 1, 69, 127
1, 121020, Note_on_c, 1, 66, 127
1, 121020, Note_on_c, 1, 62, 127
1, 121020, Note_on_c, 1, 42, 127
1, 121049, Note_off_c, 1, 69, 0
1, 121049, Note_off_c, 1, 66, 0
1, 121050, Note_on_c, 1, 74, 127
1, 121050, Note_on_c, 1, 67, 127
1, 121079, Note_off_c, 1, 62, 0
1, 121079, Note_off_c, 1, 42, 0
1, 121079, Note_off_c, 1, 74, 0
1, 121079, Note_off_c, 1, 67, 0
1, 121080, Note_on_c, 1, 78, 127
1, 121080, Note_on_c, 1, 69, 127
1, 121080, Note_on_c, 1, 62, 127
1, 121080, Note_on_c, 1, 42, 127
1, 121109, Note_off_c, 1, 78, 0
1, 121109, Note_off_c, 1, 62, 0
1, 121110, Note_on_c, 1, 76, 127
1, 121110, Note_on_c, 1, 61, 127
1, 121139, Note_off_c, 1, 69, 0
1, 121139, Note_off_c, 1, 42, 0
1, 121139, Note_off_c, 1, 76, 0
1, 121139, Note_off_c, 1, 61, 0
1, 121140, Note_on_c, 1, 74, 127
1, 121140, Note_on_c, 1, 69, 127
1, 121140, Note_on_c, 1, 62, 127
1, 121140, Note_on_c, 1, 42, 127
1, 121169, Note_off_c, 1, 74, 0
1, 121169, Note_off_c, 1, 62, 0
1, 121170, Note_on_c, 1, 73, 127
1, 121170, Note_on_c, 1, 64, 127
1, 121199, Note_off_c, 1, 69, 0
1, 121199, Note_off_c, 1, 42, 0
1, 121199, Note_off_c, 1, 73, 0
1, 121199, Note_off_c, 1, 64, 0
1, 121200, Note_on_c, 1, 74, 127
1, 121200, Note_on_c, 1, 69, 127
1, 121200, Note_on_c, 1, 66, 127
1, 121200, Note_on_c, 1, 42, 127
1, 121259, Note_off_c, 1, 74, 0
1, 121259, Note_off_c, 1, 69, 0
1, 121259, Note_off_c, 1, 66, 0
1, 121259, Note_off_c, 1, 42, 0
1, 121260, Note_on_c, 1, 69, 127
1, 121260, Note_on_c, 1, 66, 127
1, 121260, Note_on_c, 1, 62, 127
1, 121260, Note_on_c, 1, 42, 127
1, 121289, Note_off_c, 1, 69, 0
1, 121289, Note_off_c, 1, 66, 0
1, 121290, Note_on_c, 1, 74, 127
1, 121290, Note_on_c, 1, 67, 127
1, 121319, Note_off_c, 1, 62, 0
1, 121319, Note_off_c, 1, 42, 0
1, 121319, Note_off_c, 1, 74, 0
1, 121319, Note_off_c, 1, 67, 0
1, 121320, Note_on_c, 1, 78, 127
1, 121320, Note_on_c, 1, 69, 127
1, 121320, Note_on_c, 1, 62, 127
1, 121320, Note_on_c, 1, 42, 127
1, 121320, Note_on_c, 1, 74, 127
1, 121349, Note_off_c, 1, 78, 0
1, 121349, Note_off_c, 1, 62, 0
1, 121349, Note_off_c, 1, 74, 0
1, 121350, Note_on_c, 1, 76, 127
1, 121350, Note_on_c, 1, 61, 127
1, 121379, Note_off_c, 1, 69, 0
1, 121379, Note_off_c, 1, 42, 0
1, 121379, Note_off_c, 1, 76, 0
1, 121379, Note_off_c, 1, 61, 0
1, 121380, Note_on_c, 1, 74, 127
1, 121380, Note_on_c, 1, 69, 127
1, 121380, Note_on_c, 1, 59, 127
1, 121380, Note_on_c, 1, 42, 127
1, 121409, Note_off_c, 1, 74, 0
1, 121409, Note_off_c, 1, 59, 0
1, 121410, Note_on_c, 1, 73, 127
1, 121410, Note_on_c, 1, 57, 127
1, 121439, Note_off_c, 1, 69, 0
1, 121439, Note_off_c, 1, 42, 0
1, 121439, Note_off_c, 1, 73, 0
1, 121439, Note_off_c, 1, 57, 0
1, 121440, Note_on_c, 1, 74, 127
1, 121440, Note_on_c, 1, 71, 127
1, 121440, Note_on_c, 1, 64, 127
1, 121440, Note_on_c, 1, 44, 127
1, 121499, Note_off_c, 1, 74, 0
1, 121499, Note_off_c, 1, 71, 0
1, 121499, Note_off_c, 1, 64, 0
1, 121499, Note_off_c, 1, 44, 0
1, 121500, Note_on_c, 1, 64, 127
1, 121500, Note_on_c, 1, 68, 127
1, 121500, Note_on_c, 1, 44, 127
1, 121529, Note_off_c, 1, 68, 0
1, 121530, Note_on_c, 1, 73, 127
1, 121530, Note_on_c, 1, 69, 127
1, 121559, Note_off_c, 1, 64, 0
1, 121559, Note_off_c, 1, 44, 0
1, 121559, Note_off_c, 1, 73, 0
1, 121559, Note_off_c, 1, 69, 0
1, 121560, Note_on_c, 1, 74, 127
1, 121560, Note_on_c, 1, 71, 127
1, 121560, Note_on_c, 1, 64, 127
1, 121560, Note_on_c, 1, 44, 127
1, 121589, Note_off_c, 1, 74, 0
1, 121589, Note_off_c, 1, 64, 0
1, 121590, Note_on_c, 1, 73, 127
1, 121590, Note_on_c, 1, 66, 127
1, 121619, Note_off_c, 1, 71, 0
1, 121619, Note_off_c, 1, 44, 0
1, 121619, Note_off_c, 1, 73, 0
1, 121619, Note_off_c, 1, 66, 0
1, 121620, Note_on_c, 1, 71, 127
1, 121620, Note_on_c, 1, 68, 127
1, 121620, Note_on_c, 1, 44, 127
1, 121649, Note_off_c, 1, 68, 0
1, 121650, Note_on_c, 1, 69, 127
1, 121650, Note_on_c, 1, 66, 127
1, 121679, Note_off_c, 1, 71, 0
1, 121679, Note_off_c, 1, 44, 0
1, 121679, Note_off_c, 1, 69, 0
1, 121679, Note_off_c, 1, 66, 0
1, 121680, Note_on_c, 1, 71, 127
1, 121680, Note_on_c, 1, 64, 127
1, 121680, Note_on_c, 1, 44, 127
1, 121739, Note_off_c, 1, 71, 0
1, 121739, Note_off_c, 1, 64, 0
1, 121739, Note_off_c, 1, 44, 0
1, 121740, Note_on_c, 1, 64, 127
1, 121740, Note_on_c, 1, 68, 127
1, 121740, Note_on_c, 1, 44, 127
1, 121769, Note_off_c, 1, 68, 0
1, 121770, Note_on_c, 1, 74, 127
1, 121770, Note_on_c, 1, 69, 127
1, 121799, Note_off_c, 1, 64, 0
1, 121799, Note_off_c, 1, 44, 0
1, 121799, Note_off_c, 1, 74, 0
1, 121799, Note_off_c, 1, 69, 0
1, 121800, Note_on_c, 1, 76, 127
1, 121800, Note_on_c, 1, 71, 127
1, 121800, Note_on_c, 1, 64, 127
1, 121800, Note_on_c, 1, 44, 127
1, 121829, Note_off_c, 1, 76, 0
1, 121830, Note_on_c, 1, 74, 127
1, 121859, Note_off_c, 1, 71, 0
1, 121859, Note_off_c, 1, 64, 0
1, 121859, Note_off_c, 1, 44, 0
1, 121859, Note_off_c, 1, 74, 0
1, 121860, Note_on_c, 1, 73, 127
1, 121860, Note_on_c, 1, 71, 127
1, 121860, Note_on_c, 1, 64, 127
1, 121860, Note_on_c, 1, 44, 127
1, 121889, Note_off_c, 1, 73, 0
1, 121919, Note_off_c, 1, 71, 0
1, 121919, Note_off_c, 1, 64, 0
1, 121919, Note_off_c, 1, 44, 0
1, 121920, Note_on_c, 1, 74, 127
1, 121920, Note_on_c, 1, 69, 127
1, 121920, Note_on_c, 1, 64, 127
1, 121920, Note_on_c, 1, 45, 127
1, 121949, Note_off_c, 1, 74, 0
1, 121950, Note_on_c, 1, 73, 127
1, 121979, Note_off_c, 1, 69, 0
1, 121979, Note_off_c, 1, 64, 0
1, 121979, Note_off_c, 1, 45, 0
1, 121979, Note_off_c, 1, 73, 0
1, 121980, Note_on_c, 1, 71, 127
1, 121980, Note_on_c, 1, 64, 127
1, 121980, Note_on_c, 1, 49, 127
1, 122009, Note_off_c, 1, 71, 0
1, 122010, Note_on_c, 1, 69, 127
1, 122039, Note_off_c, 1, 64, 0
1, 122039, Note_off_c, 1, 49, 0
1, 122039, Note_off_c, 1, 69, 0
1, 122040, Note_on_c, 1, 71, 127
1, 122040, Note_on_c, 1, 66, 127
1, 122040, Note_on_c, 1, 62, 127
1, 122040, Note_on_c, 1, 50, 127
1, 122099, Note_off_c, 1, 71, 0
1, 122099, Note_off_c, 1, 66, 0
1, 122099, Note_off_c, 1, 62, 0
1, 122099, Note_off_c, 1, 50, 0
1, 122100, Note_on_c, 1, 68, 127
1, 122100, Note_on_c, 1, 64, 127
1, 122100, Note_on_c, 1, 59, 127
1, 122100, Note_on_c, 1, 52, 127
1, 122159, Note_off_c, 1, 68, 0
1, 122159, Note_off_c, 1, 64, 0
1, 122159, Note_off_c, 1, 59, 0
1, 122159, Note_off_c, 1, 52, 0
1, 122160, Note_on_c, 1, 69, 127
1, 122160, Note_on_c, 1, 64, 127
1, 122160, Note_on_c, 1, 61, 127
1, 122160, Note_on_c, 1, 45, 127
1, 122219, Note_off_c, 1, 69, 0
1, 122219, Note_off_c, 1, 64, 0
1, 122219, Note_off_c, 1, 61, 0
1, 122219, Note_off_c, 1, 45, 0
1, 122220, Note_on_c, 1, 73, 127
1, 122220, Note_on_c, 1, 61, 127
1, 122220, Note_on_c, 1, 49, 127
1, 122249, Note_off_c, 1, 73, 0
1, 122249, Note_off_c, 1, 61, 0
1, 122249, Note_off_c, 1, 49, 0
1, 122250, Note_on_c, 1, 74, 127
1, 122250, Note_on_c, 1, 62, 127
1, 122250, Note_on_c, 1, 50, 127
1, 122279, Note_off_c, 1, 74, 0
1, 122279, Note_off_c, 1, 62, 0
1, 122279, Note_off_c, 1, 50, 0
1, 122280, Note_on_c, 1, 76, 127
1, 122280, Note_on_c, 1, 64, 127
1, 122280, Note_on_c, 1, 52, 127
1, 122339, Note_off_c, 1, 76, 0
1, 122339, Note_off_c, 1, 64, 0
1, 122339, Note_off_c, 1, 52, 0
1, 122340, Note_on_c, 1, 78, 127
1, 122340, Note_on_c, 1, 66, 127
1, 122340, Note_on_c, 1, 54, 127
1, 122369, Note_off_c, 1, 78, 0
1, 122369, Note_off_c, 1, 66, 0
1, 122369, Note_off_c, 1, 54, 0
1, 122370, Note_on_c, 1, 80, 127
1, 122370, Note_on_c, 1, 68, 127
1, 122370, Note_on_c, 1, 56, 127
1, 122399, Note_off_c, 1, 80, 0
1, 122399, Note_off_c, 1, 68, 0
1, 122399, Note_off_c, 1, 56, 0
1, 122400, Note_on_c, 1, 81, 127
1, 122400, Note_on_c, 1, 69, 127
1, 122400, Note_on_c, 1, 57, 127
1, 122459, Note_off_c, 1, 81, 0
1, 122459, Note_off_c, 1, 69, 0
1, 122459, Note_off_c, 1, 57, 0
1, 122460, Note_on_c, 1, 69, 127
1, 122460, Note_on_c, 1, 64, 127
1, 122460, Note_on_c, 1, 49, 127
1, 122489, Note_off_c, 1, 49, 0
1, 122490, Note_on_c, 1, 50, 127
1, 122519, Note_off_c, 1, 69, 0
1, 122519, Note_off_c, 1, 64, 0
1, 122519, Note_off_c, 1, 50, 0
1, 122520, Note_on_c, 1, 64, 127
1, 122520, Note_on_c, 1, 69, 127
1, 122520, Note_on_c, 1, 61, 127
1, 122520, Note_on_c, 1, 52, 127
1, 122579, Note_off_c, 1, 64, 0
1, 122579, Note_off_c, 1, 69, 0
1, 122579, Note_off_c, 1, 61, 0
1, 122579, Note_off_c, 1, 52, 0
1, 122580, Note_on_c, 1, 68, 127
1, 122580, Note_on_c, 1, 64, 127
1, 122580, Note_on_c, 1, 59, 127
1, 122580, Note_on_c, 1, 40, 127
1, 122639, Note_off_c, 1, 68, 0
1, 122639, Note_off_c, 1, 64, 0
1, 122639, Note_off_c, 1, 59, 0
1, 122639, Note_off_c, 1, 40, 0
1, 122640, Note_on_c, 1, 69, 127
1, 122640, Note_on_c, 1, 64, 127
1, 122640, Note_on_c, 1, 61, 127
1, 122640, Note_on_c, 1, 45, 127
1, 122699, Note_off_c, 1, 45, 0
1, 122759, Note_off_c, 1, 69, 0
1, 122759, Note_off_c, 1, 64, 0
1, 122759, Note_off_c, 1, 61, 0
1, 122880, Note_on_c, 1, 48, 127
1, 122880, Note_on_c, 1, 68, 127
1, 122880, Note_on_c, 1, 63, 127
1, 123120, Note_on_c, 1, 75, 127
1, 123179, Note_off_c, 1, 75, 0
1, 123180, Note_on_c, 1, 76, 127
1, 123239, Note_off_c, 1, 76, 0
1, 123240, Note_on_c, 1, 78, 127
1, 123329, Note_off_c, 1, 78, 0
1, 123360, Note_on_c, 1, 72, 127
1, 123420, Note_off_c, 1, 72, 0
1, 123480, Note_on_c, 1, 73, 127
1, 123539, Note_off_c, 1, 73, 0
1, 123600, Note_on_c, 1, 66, 127
1, 123659, Note_off_c, 1, 66, 0
1, 123720, Note_on_c, 1, 69, 127
1, 123779, Note_off_c, 1, 69, 0
1, 123840, Note_off_c, 1, 48, 0
1, 123840, Note_off_c, 1, 63, 0
1, 123840, Note_on_c, 1, 64, 127
1, 123840, Note_on_c, 1, 49, 127
1, 124080, Note_off_c, 1, 68, 0
1, 124080, Note_off_c, 1, 64, 0
1, 124080, Note_off_c, 1, 49, 0
1, 124080, Note_on_c, 1, 42, 127
1, 124260, Note_on_c, 1, 71, 127
1, 124319, Note_off_c, 1, 71, 0
1, 124320, Note_off_c, 1, 42, 0
1, 124320, Note_on_c, 1, 40, 127
1, 124500, Note_on_c, 1, 74, 127
1, 124529, Note_off_c, 1, 74, 0
1, 124560, Note_off_c, 1, 40, 0
1, 124560, Note_on_c, 1, 77, 127
1, 124560, Note_on_c, 1, 47, 127
1, 124560, Note_on_c, 1, 65, 127
1, 124619, Note_off_c, 1, 77, 0
1, 124800, Note_off_c, 1, 47, 0
1, 124800, Note_off_c, 1, 65, 0
1, 124800, Note_on_c, 1, 44, 127
1, 125040, Note_off_c, 1, 44, 0
1, 125040, Note_on_c, 1, 43, 127
1, 125040, Note_on_c, 1, 67, 127
1, 125280, Note_off_c, 1, 43, 0
1, 125280, Note_off_c, 1, 67, 0
1, 125280, Note_on_c, 1, 70, 127
1, 125760, Note_off_c, 1, 70, 0
1, 125880, Note_on_c, 1, 50, 127
1, 126000, Note_off_c, 1, 50, 0
1, 126000, Note_on_c, 1, 52, 127
1, 126120, Note_off_c, 1, 52, 0
1, 126120, Note_on_c, 1, 55, 127
1, 126240, Note_off_c, 1, 55, 0
1, 126300, Note_on_c, 1, 66, 127
1, 126359, Note_off_c, 1, 66, 0
1, 126360, Note_on_c, 1, 54, 127
1, 126360, Note_on_c, 1, 73, 127
1, 126360, Note_on_c, 1, 66, 127
1, 126360, Note_on_c, 1, 70, 127
1, 126480, Note_off_c, 1, 54, 0
1, 126480, Note_off_c, 1, 73, 0
1, 126480, Note_off_c, 1, 70, 0
1, 126480, Note_on_c, 1, 47, 127
1, 126480, Note_on_c, 1, 71, 127
1, 126480, Note_on_c, 1, 62, 127
1, 126720, Note_off_c, 1, 66, 0
1, 126720, Note_off_c, 1, 47, 0
1, 126720, Note_off_c, 1, 71, 0
1, 126720, Note_off_c, 1, 62, 0
1, 126900, Note_on_c, 1, 71, 127
1, 126900, Note_on_c, 1, 54, 127
1, 126900, Note_on_c, 1, 50, 127
1, 126930, Note_off_c, 1, 71, 0
1, 126930, Note_on_c, 1, 73, 127
1, 126960, Note_off_c, 1, 50, 0
1, 126960, Note_off_c, 1, 73, 0
1, 126960, Note_on_c, 1, 74, 127
1, 126960, Note_on_c, 1, 47, 127
1, 127020, Note_off_c, 1, 74, 0
1, 127020, Note_off_c, 1, 47, 0
1, 127020, Note_on_c, 1, 52, 127
1, 127080, Note_off_c, 1, 52, 0
1, 127140, Note_on_c, 1, 66, 127
1, 127140, Note_on_c, 1, 49, 127
1, 127170, Note_off_c, 1, 66, 0
1, 127170, Note_on_c, 1, 64, 127
1, 127200, Note_off_c, 1, 49, 0
1, 127200, Note_off_c, 1, 64, 0
1, 127260, Note_on_c, 1, 46, 127
1, 127320, Note_off_c, 1, 46, 0
1, 127320, Note_on_c, 1, 76, 127
1, 127320, Note_on_c, 1, 42, 127
1, 127350, Note_off_c, 1, 76, 0
1, 127380, Note_off_c, 1, 42, 0
1, 127560, Note_on_c, 1, 58, 127
1, 127620, Note_off_c, 1, 54, 0
1, 127620, Note_off_c, 1, 58, 0
1, 127620, Note_on_c, 1, 59, 127
1, 127650, Note_on_c, 1, 61, 127
1, 127680, Note_off_c, 1, 59, 0
1, 127680, Note_off_c, 1, 61, 0
1, 127680, Note_on_c, 1, 62, 127
1, 127710, Note_off_c, 1, 62, 0
1, 127740, Note_on_c, 1, 70, 127
1, 127770, Note_off_c, 1, 70, 0
1, 127800, Note_on_c, 1, 67, 127
1, 127860, Note_on_c, 1, 55, 127
1, 127920, Note_off_c, 1, 55, 0
1, 127920, Note_on_c, 1, 79, 127
1, 127950, Note_off_c, 1, 79, 0
1, 127980, Note_on_c, 1, 57, 127
1, 128010, Note_off_c, 1, 67, 0
1, 128040, Note_off_c, 1, 57, 0
1, 128040, Note_on_c, 1, 45, 127
1, 128100, Note_off_c, 1, 45, 0
1, 128190, Note_on_c, 1, 69, 127
1, 128220, Note_off_c, 1, 69, 0
1, 128220, Note_on_c, 1, 68, 127
1, 128250, Note_off_c, 1, 68, 0
1, 128280, Note_on_c, 1, 78, 127
1, 128310, Note_off_c, 1, 78, 0
1, 128430, Note_on_c, 1, 63, 127
1, 128460, Note_off_c, 1, 63, 0
1, 130380, Note_on_c, 1, 44, 127
1, 130440, Note_off_c, 1, 44, 0
1, 130620, Note_on_c, 1, 82, 127
1, 130650, Note_off_c, 1, 82, 0
1, 130650, Note_on_c, 1, 83, 127
1, 130680, Note_off_c, 1, 83, 0
1, 130740, Note_on_c, 1, 40, 127
1, 130800, Note_off_c, 1, 40, 0
1, 131100, Note_on_c, 1, 56, 127
1, 131100, Note_on_c, 1, 38, 127
1, 131130, Note_off_c, 1, 56, 0
1, 131160, Note_off_c, 1, 38, 0
1, 131250, Note_on_c, 1, 75, 127
1, 131280, Note_off_c, 1, 75, 0
1, 131520, Note_on_c, 1, 81, 127
1, 131580, Note_off_c, 1, 81, 0
1, 132300, Note_on_c, 1, 78, 127
1, 132300, Note_on_c, 1, 54, 127
1, 132330, Note_on_c, 1, 67, 127
1, 132360, Note_off_c, 1, 78, 0
1, 132360, Note_off_c, 1, 54, 0
1, 132360, Note_off_c, 1, 67, 0
1, 132360, Note_on_c, 1, 66, 127
1, 132360, Note_on_c, 1, 58, 127
1, 132390, Note_off_c, 1, 66, 0
1, 132390, Note_on_c, 1, 62, 127
1, 132420, Note_off_c, 1, 58, 0
1, 132420, Note_off_c, 1, 62, 0
1, 132420, Note_on_c, 1, 64, 127
1, 132450, Note_off_c, 1, 64, 0
1, 132450, Note_on_c, 1, 61, 127
1, 132480, Note_off_c, 1, 61, 0
1, 132480, Note_on_c, 1, 59, 127
1, 132510, Note_on_c, 1, 73, 127
1, 132540, Note_off_c, 1, 59, 0
1, 132540, Note_off_c, 1, 73, 0
1, 132540, Note_on_c, 1, 71, 127
1, 132570, Note_off_c, 1, 71, 0
1, 132570, Note_on_c, 1, 68, 127
1, 132600, Note_off_c, 1, 68, 0
1, 132600, Note_on_c, 1, 69, 127
1, 132630, Note_off_c, 1, 69, 0
1, 132660, Note_on_c, 1, 76, 127
1, 132660, Note_on_c, 1, 52, 127
1, 132720, Note_off_c, 1, 52, 0
1, 132720, Note_on_c, 1, 56, 127
1, 132780, Note_off_c, 1, 56, 0
1, 132840, Note_on_c, 1, 57, 127
1, 132870, Note_off_c, 1, 76, 0
1, 132900, Note_off_c, 1, 57, 0
1, 133020, Note_on_c, 1, 50, 127
1, 133080, Note_off_c, 1, 50, 0
1, 133140, Note_on_c, 1, 74, 127
1, 133140, Note_on_c, 1, 47, 127
1, 133200, Note_off_c, 1, 74, 0
1, 133200, Note_off_c, 1, 47, 0
1, 133200, Note_on_c, 1, 42, 127
1, 133260, Note_off_c, 1, 42, 0
1, 133260, Note_on_c, 1, 44, 127
1, 133320, Note_off_c, 1, 44, 0
1, 133320, Note_on_c, 1, 45, 127
1, 133380, Note_off_c, 1, 45, 0
1, 133440, Note_on_c, 1, 41, 127
1, 133500, Note_off_c, 1, 41, 0
1, 133560, Note_on_c, 1, 65, 127
1, 133560, Note_on_c, 1, 37, 127
1, 133590, Note_off_c, 1, 37, 0
1, 133620, Note_off_c, 1, 65, 0
1, 133620, Note_on_c, 1, 77, 127
1, 133620, Note_on_c, 1, 49, 127
1, 133635, Note_off_c, 1, 77, 0
1, 133650, Note_off_c, 1, 49, 0
1, 133650, Note_on_c, 1, 80, 127
1, 133650, Note_on_c, 1, 51, 127
1, 133680, Note_off_c, 1, 80, 0
1, 133680, Note_off_c, 1, 51, 0
1, 133680, Note_on_c, 1, 53, 127
1, 133710, Note_off_c, 1, 53, 0
1, 133800, Note_on_c, 1, 81, 127
1, 133860, Note_off_c, 1, 81, 0
1, 134880, Note_on_c, 1, 40, 127
1, 134940, Note_off_c, 1, 40, 0
1, 135210, Note_on_c, 1, 70, 127
1, 135240, Note_off_c, 1, 70, 0
1, 135900, Note_on_c, 1, 46, 127
1, 135960, Note_off_c, 1, 46, 0
1, 136440, Note_on_c, 1, 38, 127
1, 136500, Note_off_c, 1, 38, 0
1, 137220, Note_on_c, 1, 83, 127
1, 137280, Note_off_c, 1, 83, 0
1, 137610, Note_on_c, 1, 55, 127
1, 137640, Note_off_c, 1, 55, 0
1, 137640, Note_on_c, 1, 60, 127
1, 137700, Note_on_c, 1, 75, 127
1, 137760, Note_off_c, 1, 60, 0
1, 137760, Note_off_c, 1, 75, 0
1, 137880, Note_on_c, 1, 79, 127
1, 137970, Note_on_c, 1, 43, 127
1, 138000, Note_off_c, 1, 79, 0
1, 138000, Note_off_c, 1, 43, 0
1, 138240, Note_on_c, 1, 36, 127
1, 138300, Note_off_c, 1, 36, 0
1, 138300, Note_on_c, 1, 48, 127
1, 138360, Note_off_c, 1, 48, 0
1, 138660, Note_on_c, 1, 72, 127
1, 138690, Note_off_c, 1, 72, 0
1, 138780, Note_on_c, 1, 63, 127
1, 138810, Note_off_c, 1, 63, 0
1, 138960, Note_on_c, 1, 79, 127
1, 138960, Note_on_c, 1, 52, 127
1, 138990, Note_on_c, 1, 66, 127
1, 139020, Note_off_c, 1, 79, 0
1, 139020, Note_off_c, 1, 52, 0
1, 139020, Note_off_c, 1, 66, 0
1, 139020, Note_on_c, 1, 67, 127
1, 139020, Note_on_c, 1, 40, 127
1, 139050, Note_off_c, 1, 67, 0
1, 139050, Note_on_c, 1, 71, 127
1, 139080, Note_off_c, 1, 40, 0
1, 139080, Note_off_c, 1, 71, 0
1, 139080, Note_on_c, 1, 75, 127
1, 139080, Note_on_c, 1, 43, 127
1, 139110, Note_off_c, 1, 75, 0
1, 139110, Note_on_c, 1, 76, 127
1, 139140, Note_off_c, 1, 43, 0
1, 139140, Note_off_c, 1, 76, 0
1, 139140, Note_on_c, 1, 72, 127
1, 139140, Note_on_c, 1, 45, 127
1, 139200, Note_off_c, 1, 45, 0
1, 139200, Note_on_c, 1, 51, 127
1, 139200, Note_on_c, 1, 69, 127
1, 139200, Note_on_c, 1, 48, 127
1, 139230, Note_off_c, 1, 51, 0
1, 139260, Note_off_c, 1, 69, 0
1, 139260, Note_off_c, 1, 48, 0
1, 139260, Note_on_c, 1, 60, 127
1, 139290, Note_off_c, 1, 60, 0
1, 139290, Note_on_c, 1, 57, 127
1, 139320, Note_off_c, 1, 57, 0
1, 139320, Note_on_c, 1, 54, 127
1, 139320, Note_on_c, 1, 50, 127
1, 139350, Note_off_c, 1, 72, 0
1, 139380, Note_off_c, 1, 50, 0
1, 139380, Note_on_c, 1, 78, 127
1, 139380, Note_on_c, 1, 38, 127
1, 139440, Note_off_c, 1, 38, 0
1, 139440, Note_on_c, 1, 64, 127
1, 139440, Note_on_c, 1, 42, 127
1, 139470, Note_off_c, 1, 64, 0
1, 139470, Note_on_c, 1, 62, 127
1, 139500, Note_off_c, 1, 42, 0
1, 139500, Note_off_c, 1, 62, 0
1, 139530, Note_off_c, 1, 54, 0
1, 139560, Note_off_c, 1, 78, 0
1, 139560, Note_on_c, 1, 49, 127
1, 139560, Note_on_c, 1, 47, 127
1, 139590, Note_off_c, 1, 49, 0
1, 139620, Note_off_c, 1, 47, 0
1, 139620, Note_on_c, 1, 59, 127
1, 139650, Note_off_c, 1, 59, 0
1, 139650, Note_on_c, 1, 55, 127
1, 139680, Note_off_c, 1, 55, 0
1, 139770, Note_on_c, 1, 68, 127
1, 139800, Note_off_c, 1, 68, 0
1, 140040, Note_on_c, 1, 77, 127
1, 140100, Note_off_c, 1, 77, 0
1, 140580, Note_on_c, 1, 39, 127
1, 140640, Note_off_c, 1, 39, 0
1, 140640, Note_on_c, 1, 81, 127
1, 140670, Note_off_c, 1, 81, 0
1, 141030, Note_on_c, 1, 56, 127
1, 141060, Note_off_c, 1, 56, 0
1, 141360, Note_on_c, 1, 84, 127
1, 141390, Note_off_c, 1, 84, 0
1, 141390, Note_on_c, 1, 83, 127
1, 141420, Note_off_c, 1, 83, 0
1, 141750, Note_on_c, 1, 70, 127
1, 141780, Note_off_c, 1, 70, 0
1, 141840, Note_on_c, 1, 73, 127
1, 141840, Note_on_c, 1, 61, 127
1, 141870, Note_off_c, 1, 73, 0
1, 141870, Note_on_c, 1, 74, 127
1, 141900, Note_off_c, 1, 74, 0
1, 141900, Note_on_c, 1, 46, 127
1, 141960, Note_off_c, 1, 61, 0
1, 141960, Note_off_c, 1, 46, 0
1, 142140, Note_on_c, 1, 58, 127
1, 142170, Note_off_c, 1, 58, 0
1, 144240, Note_on_c, 1, 44, 127
1, 144360, Note_off_c, 1, 44, 0
1, 145170, Note_on_c, 1, 63, 127
1, 145200, Note_off_c, 1, 63, 0
1, 146160, Note_on_c, 1, 74, 127
1, 146160, Note_on_c, 1, 47, 127
1, 146190, Note_on_c, 1, 84, 127
1, 146220, Note_off_c, 1, 74, 0
1, 146220, Note_off_c, 1, 47, 0
1, 146220, Note_off_c, 1, 84, 0
1, 146220, Note_on_c, 1, 83, 127
1, 146220, Note_on_c, 1, 50, 127
1, 146250, Note_off_c, 1, 83, 0
1, 146250, Note_on_c, 1, 79, 127
1, 146280, Note_off_c, 1, 50, 0
1, 146280, Note_off_c, 1, 79, 0
1, 146280, Note_on_c, 1, 81, 127
1, 146310, Note_off_c, 1, 81, 0
1, 146310, Note_on_c, 1, 78, 127
1, 146340, Note_off_c, 1, 78, 0
1, 146340, Note_on_c, 1, 52, 127
1, 146370, Note_on_c, 1, 66, 127
1, 146400, Note_off_c, 1, 52, 0
1, 146400, Note_off_c, 1, 66, 0
1, 146400, Note_on_c, 1, 64, 127
1, 146400, Note_on_c, 1, 55, 127
1, 146430, Note_off_c, 1, 64, 0
1, 146430, Note_on_c, 1, 61, 127
1, 146460, Note_off_c, 1, 55, 0
1, 146460, Note_off_c, 1, 61, 0
1, 146460, Note_on_c, 1, 62, 127
1, 146490, Note_off_c, 1, 62, 0
1, 146490, Note_on_c, 1, 59, 127
1, 146520, Note_off_c, 1, 59, 0
1, 146520, Note_on_c, 1, 57, 127
1, 146520, Note_on_c, 1, 73, 127
1, 146520, Note_on_c, 1, 45, 127
1, 146580, Note_off_c, 1, 57, 0
1, 146580, Note_off_c, 1, 73, 0
1, 146580, Note_off_c, 1, 45, 0
1, 146580, Note_on_c, 1, 69, 127
1, 146580, Note_on_c, 1, 49, 127
1, 146640, Note_off_c, 1, 49, 0
1, 146670, Note_on_c, 1, 76, 127
1, 146700, Note_off_c, 1, 76, 0
1, 146730, Note_off_c, 1, 69, 0
1, 146760, Note_on_c, 1, 54, 127
1, 146820, Note_off_c, 1, 54, 0
1, 146820, Note_on_c, 1, 60, 127
1, 146850, Note_off_c, 1, 60, 0
1, 146880, Note_on_c, 1, 71, 127
1, 146880, Note_on_c, 1, 43, 127
1, 146940, Note_off_c, 1, 71, 0
1, 146940, Note_off_c, 1, 43, 0
1, 146970, Note_on_c, 1, 75, 127
1, 147000, Note_off_c, 1, 75, 0
1, 147000, Note_on_c, 1, 40, 127
1, 147060, Note_off_c, 1, 40, 0
1, 147120, Note_on_c, 1, 67, 127
1, 147150, Note_off_c, 1, 67, 0
1, 147300, Note_on_c, 1, 46, 127
1, 147360, Note_off_c, 1, 46, 0
1, 147420, Note_on_c, 1, 70, 127
1, 147420, Note_on_c, 1, 42, 127
1, 147450, Note_off_c, 1, 42, 0
1, 147480, Note_off_c, 1, 70, 0
1, 147510, Note_on_c, 1, 44, 127
1, 147540, Note_off_c, 1, 44, 0
1, 148920, Note_on_c, 1, 68, 127
1, 148950, Note_off_c, 1, 68, 0
1, 149130, Note_on_c, 1, 63, 127
1, 149160, Note_off_c, 1, 63, 0
1, 149760, Note_on_c, 1, 51, 127
1, 149820, Note_off_c, 1, 51, 0
1, 149850, Note_on_c, 1, 58, 127
1, 149880, Note_off_c, 1, 58, 0
1, 151200, Note_on_c, 1, 49, 127
1, 151200, Note_on_c, 1, 64, 127
1, 151200, Note_on_c, 1, 69, 127
1, 151200, Note_on_c, 1, 73, 127
1, 151260, Note_on_c, 1, 57, 127
1, 151319, Note_off_c, 1, 57, 0
1, 151320, Note_on_c, 1, 59, 127
1, 151379, Note_off_c, 1, 59, 0
1, 151380, Note_on_c, 1, 55, 127
1, 151439, Note_off_c, 1, 55, 0
1, 151440, Note_on_c, 1, 52, 127
1, 151499, Note_off_c, 1, 52, 0
1, 151500, Note_on_c, 1, 54, 127
1, 151559, Note_off_c, 1, 54, 0
1, 151680, Note_off_c, 1, 49, 0
1, 151680, Note_off_c, 1, 64, 0
1, 151680, Note_off_c, 1, 73, 0
1, 151680, Note_on_c, 1, 50, 127
1, 151680, Note_on_c, 1, 74, 127
1, 151680, Note_on_c, 1, 66, 127
1, 151920, Note_on_c, 1, 62, 127
1, 151979, Note_off_c, 1, 62, 0
1, 152400, Note_off_c, 1, 69, 0
1, 152400, Note_off_c, 1, 50, 0
1, 152400, Note_off_c, 1, 74, 0
1, 152400, Note_off_c, 1, 66, 0
1, 152400, Note_on_c, 1, 44, 127
1, 152400, Note_on_c, 1, 68, 127
1, 152400, Note_on_c, 1, 71, 127
1, 152880, Note_on_c, 1, 56, 127
1, 152939, Note_off_c, 1, 56, 0
1, 153060, Note_on_c, 1, 61, 127
1, 153119, Note_off_c, 1, 61, 0
1, 153120, Note_off_c, 1, 44, 0
1, 153120, Note_off_c, 1, 68, 0
1, 153120, Note_off_c, 1, 71, 0
1, 153120, Note_on_c, 1, 45, 127
1, 153360, Note_off_c, 1, 45, 0
1, 153360, Note_on_c, 1, 43, 127
1, 154080, Note_off_c, 1, 43, 0
1, 154080, Note_on_c, 1, 42, 127
1, 154440, Note_on_c, 1, 60, 127
1, 154499, Note_off_c, 1, 60, 0
1, 154560, Note_off_c, 1, 42, 0
1, 154560, Note_on_c, 1, 67, 127
1, 154800, Note_off_c, 1, 67, 0
1, 154860, Note_on_c, 1, 57, 127
1, 154919, Note_off_c, 1, 57, 0
1, 154920, Note_on_c, 1, 45, 127
1, 154920, Note_on_c, 1, 69, 127
1, 154920, Note_on_c, 1, 64, 127
1, 154920, Note_on_c, 1, 61, 127
1, 154979, Note_off_c, 1, 69, 0
1, 154980, Note_on_c, 1, 67, 127
1, 155039, Note_off_c, 1, 67, 0
1, 155040, Note_off_c, 1, 45, 0
1, 155040, Note_off_c, 1, 64, 0
1, 155040, Note_off_c, 1, 61, 0
1, 155040, Note_on_c, 1, 38, 127
1, 155040, Note_on_c, 1, 66, 127
1, 155040, Note_on_c, 1, 62, 127
1, 155280, Note_off_c, 1, 38, 0
1, 155280, Note_off_c, 1, 66, 0
1, 155280, Note_off_c, 1, 62, 0
1, 155520, Note_on_c, 1, 69, 127
1, 155520, Note_on_c, 1, 42, 127
1, 155520, Note_on_c, 1, 66, 127
1, 155520, Note_on_c, 1, 61, 127
1, 155550, Note_on_c, 1, 71, 127
1, 155580, Note_off_c, 1, 42, 0
1, 155580, Note_off_c, 1, 71, 0
1, 155580, Note_on_c, 1, 73, 127
1, 155580, Note_on_c, 1, 54, 127
1, 155640, Note_off_c, 1, 69, 0
1, 155640, Note_off_c, 1, 66, 0
1, 155640, Note_off_c, 1, 61, 0
1, 155640, Note_off_c, 1, 54, 0
1, 155640, Note_on_c, 1, 53, 127
1, 155700, Note_off_c, 1, 73, 0
1, 155700, Note_off_c, 1, 53, 0
1, 155700, Note_on_c, 1, 49, 127
1, 155700, Note_on_c, 1, 68, 127
1, 155700, Note_on_c, 1, 65, 127
1, 155760, Note_off_c, 1, 49, 0
1, 155760, Note_off_c, 1, 68, 0
1, 155760, Note_off_c, 1, 65, 0
1, 155820, Note_on_c, 1, 50, 127
1, 155880, Note_off_c, 1, 50, 0
1, 155880, Note_on_c, 1, 47, 127
1, 155940, Note_off_c, 1, 47, 0
1, 156570, Note_on_c, 1, 74, 127
1, 156600, Note_on_c, 1, 56, 127
1, 156660, Note_off_c, 1, 74, 0
1, 156660, Note_off_c, 1, 56, 0
1, 156660, Note_on_c, 1, 57, 127
1, 156720, Note_off_c, 1, 57, 0
1, 156840, Note_on_c, 1, 76, 127
1, 156900, Note_off_c, 1, 76, 0
1, 156900, Note_on_c, 1, 52, 127
1, 156960, Note_off_c, 1, 52, 0
1, 157020, Note_on_c, 1, 59, 127
1, 157080, Note_off_c, 1, 59, 0
1, 157200, Note_on_c, 1, 58, 127
1, 157230, Note_on_c, 1, 78, 127
1, 157260, Note_off_c, 1, 58, 0
1, 157260, Note_off_c, 1, 78, 0
1, 157260, Note_on_c, 1, 79, 127
1, 157380, Note_off_c, 1, 79, 0
1, 157560, Note_on_c, 1, 80, 127
1, 157590, Note_off_c, 1, 80, 0
1, 157980, Note_on_c, 1, 51, 127
1, 158040, Note_off_c, 1, 51, 0
1, 158130, Note_on_c, 1, 70, 127
1, 158190, Note_off_c, 1, 70, 0
1, 159090, Note_on_c, 1, 72, 127
1, 159150, Note_off_c, 1, 72, 0
1, 159150, Note_on_c, 1, 81, 127
1, 159180, Note_off_c, 1, 81, 0
1, 159270, Note_on_c, 1, 75, 127
1, 159300, Note_off_c, 1, 75, 0
1, 159300, Note_on_c, 1, 44, 127
1, 159360, Note_off_c, 1, 44, 0
1, 159660, Note_on_c, 1, 45, 127
1, 159720, Note_off_c, 1, 45, 0
1, 161250, Note_on_c, 1, 64, 127
1, 161280, Note_off_c, 1, 64, 0
1, 161520, Note_on_c, 1, 67, 127
1, 161580, Note_off_c, 1, 67, 0
1, 162030, Note_on_c, 1, 77, 127
1, 162060, Note_off_c, 1, 77, 0
1, 162480, Note_on_c, 1, 70, 127
1, 162480, Note_on_c, 1, 54, 127
1, 162509, Note_off_c, 1, 70, 0
1, 162510, Note_on_c, 1, 79, 127
1, 162539, Note_off_c, 1, 79, 0
1, 162540, Note_on_c, 1, 78, 127
1, 162569, Note_off_c, 1, 78, 0
1, 162570, Note_on_c, 1, 71, 127
1, 162599, Note_off_c, 1, 54, 0
1, 162599, Note_off_c, 1, 71, 0
1, 162600, Note_on_c, 1, 70, 127
1, 162629, Note_off_c, 1, 70, 0
1, 162630, Note_on_c, 1, 76, 127
1, 162659, Note_off_c, 1, 76, 0
1, 162660, Note_on_c, 1, 74, 127
1, 162660, Note_on_c, 1, 54, 127
1, 162689, Note_off_c, 1, 74, 0
1, 162690, Note_on_c, 1, 73, 127
1, 162719, Note_off_c, 1, 54, 0
1, 162719, Note_off_c, 1, 73, 0
1, 162720, Note_on_c, 1, 74, 127
1, 162720, Note_on_c, 1, 47, 127
1, 162749, Note_off_c, 1, 74, 0
1, 162750, Note_on_c, 1, 73, 127
1, 162779, Note_off_c, 1, 47, 0
1, 162779, Note_off_c, 1, 73, 0
1, 162780, Note_on_c, 1, 71, 127
1, 162780, Note_on_c, 1, 49, 127
1, 162839, Note_off_c, 1, 49, 0
1, 162840, Note_on_c, 1, 50, 127
1, 162869, Note_off_c, 1, 71, 0
1, 162870, Note_on_c, 1, 69, 127
1, 162899, Note_off_c, 1, 50, 0
1, 162899, Note_off_c, 1, 69, 0
1, 162900, Note_on_c, 1, 69, 127
1, 162900, Note_on_c, 1, 47, 127
1, 162929, Note_off_c, 1, 69, 0
1, 162930, Note_on_c, 1, 68, 127
1, 162959, Note_off_c, 1, 47, 0
1, 162959, Note_off_c, 1, 68, 0
1, 162960, Note_on_c, 1, 68, 127
1, 162960, Note_on_c, 1, 52, 127
1, 162989, Note_off_c, 1, 68, 0
1, 162990, Note_on_c, 1, 78, 127
1, 163019, Note_off_c, 1, 78, 0
1, 163020, Note_on_c, 1, 76, 127
1, 163049, Note_off_c, 1, 76, 0
1, 163050, Note_on_c, 1, 69, 127
1, 163079, Note_off_c, 1, 52, 0
1, 163079, Note_off_c, 1, 69, 0
1, 163080, Note_on_c, 1, 68, 127
1, 163109, Note_off_c, 1, 68, 0
1, 163110, Note_on_c, 1, 74, 127
1, 163139, Note_off_c, 1, 74, 0
1, 163140, Note_on_c, 1, 73, 127
1, 163140, Note_on_c, 1, 52, 127
1, 163169, Note_off_c, 1, 73, 0
1, 163170, Note_on_c, 1, 71, 127
1, 163199, Note_off_c, 1, 52, 0
1, 163199, Note_off_c, 1, 71, 0
1, 163200, Note_on_c, 1, 73, 127
1, 163200, Note_on_c, 1, 45, 127
1, 163229, Note_off_c, 1, 73, 0
1, 163230, Note_on_c, 1, 71, 127
1, 163259, Note_off_c, 1, 45, 0
1, 163259, Note_off_c, 1, 71, 0
1, 163260, Note_on_c, 1, 69, 127
1, 163260, Note_on_c, 1, 73, 127
1, 163260, Note_on_c, 1, 47, 127
1, 163319, Note_off_c, 1, 47, 0
1, 163320, Note_on_c, 1, 49, 127
1, 163349, Note_off_c, 1, 69, 0
1, 163350, Note_on_c, 1, 68, 127
1, 163379, Note_off_c, 1, 49, 0
1, 163379, Note_off_c, 1, 68, 0
1, 163380, Note_off_c, 1, 73, 0
1, 163380, Note_on_c, 1, 66, 127
1, 163380, Note_on_c, 1, 71, 127
1, 163380, Note_on_c, 1, 37, 127
1, 163409, Note_off_c, 1, 66, 0
1, 163410, Note_on_c, 1, 65, 127
1, 163439, Note_off_c, 1, 37, 0
1, 163439, Note_off_c, 1, 65, 0
1, 163440, Note_off_c, 1, 71, 0
1, 163440, Note_on_c, 1, 42, 127
1, 163499, Note_off_c, 1, 42, 0
1, 163500, Note_on_c, 1, 61, 127
1, 163500, Note_on_c, 1, 45, 127
1, 163559, Note_off_c, 1, 45, 0
1, 163560, Note_off_c, 1, 61, 0
1, 163740, Note_on_c, 1, 74, 127
1, 163859, Note_off_c, 1, 74, 0
1, 163860, Note_on_c, 1, 54, 127
1, 163979, Note_off_c, 1, 54, 0
1, 163980, Note_on_c, 1, 53, 127
1, 164039, Note_off_c, 1, 53, 0
1, 164220, Note_on_c, 1, 52, 127
1, 164279, Note_off_c, 1, 52, 0
1, 164280, Note_on_c, 1, 50, 127
1, 164339, Note_off_c, 1, 50, 0
1, 164340, Note_on_c, 1, 68, 127
1, 164340, Note_on_c, 1, 47, 127
1, 164369, Note_off_c, 1, 68, 0
1, 164370, Note_on_c, 1, 69, 127
1, 164399, Note_off_c, 1, 47, 0
1, 164399, Note_off_c, 1, 69, 0
1, 164400, Note_on_c, 1, 71, 127
1, 164400, Note_on_c, 1, 44, 127
1, 164429, Note_off_c, 1, 71, 0
1, 164430, Note_on_c, 1, 61, 127
1, 164459, Note_off_c, 1, 44, 0
1, 164459, Note_off_c, 1, 61, 0
1, 164460, Note_on_c, 1, 68, 127
1, 164460, Note_on_c, 1, 53, 127
1, 164489, Note_off_c, 1, 68, 0
1, 164490, Note_on_c, 1, 71, 127
1, 164519, Note_off_c, 1, 53, 0
1, 164519, Note_off_c, 1, 71, 0
1, 164520, Note_on_c, 1, 69, 127
1, 164520, Note_on_c, 1, 49, 127
1, 164549, Note_off_c, 1, 69, 0
1, 164550, Note_on_c, 1, 68, 127
1, 164579, Note_off_c, 1, 49, 0
1, 164579, Note_off_c, 1, 68, 0
1, 164580, Note_on_c, 1, 66, 127
1, 164580, Note_on_c, 1, 53, 127
1, 164609, Note_off_c, 1, 66, 0
1, 164610, Note_on_c, 1, 68, 127
1, 164639, Note_off_c, 1, 53, 0
1, 164639, Note_off_c, 1, 68, 0
1, 164640, Note_on_c, 1, 69, 127
1, 164640, Note_on_c, 1, 54, 127
1, 164669, Note_off_c, 1, 69, 0
1, 164670, Note_on_c, 1, 61, 127
1, 164699, Note_off_c, 1, 54, 0
1, 164699, Note_off_c, 1, 61, 0
1, 164700, Note_on_c, 1, 66, 127
1, 164700, Note_on_c, 1, 61, 127
1, 164700, Note_on_c, 1, 52, 127
1, 164729, Note_off_c, 1, 66, 0
1, 164730, Note_on_c, 1, 69, 127
1, 164759, Note_off_c, 1, 52, 0
1, 164759, Note_off_c, 1, 69, 0
1, 164760, Note_off_c, 1, 61, 0
1, 164760, Note_on_c, 1, 68, 127
1, 164760, Note_on_c, 1, 51, 127
1, 164789, Note_off_c, 1, 68, 0
1, 164819, Note_off_c, 1, 51, 0
1, 164820, Note_on_c, 1, 64, 127
1, 164820, Note_on_c, 1, 49, 127
1, 164849, Note_off_c, 1, 64, 0
1, 164879, Note_off_c, 1, 49, 0
1, 164880, Note_on_c, 1, 68, 127
1, 164880, Note_on_c, 1, 64, 127
1, 164880, Note_on_c, 1, 48, 127
1, 164909, Note_off_c, 1, 68, 0
1, 164909, Note_off_c, 1, 64, 0
1, 164910, Note_on_c, 1, 60, 127
1, 164910, Note_on_c, 1, 63, 127
1, 164939, Note_off_c, 1, 48, 0
1, 164939, Note_off_c, 1, 60, 0
1, 164939, Note_off_c, 1, 63, 0
1, 164940, Note_on_c, 1, 63, 127
1, 164940, Note_on_c, 1, 68, 127
1, 164940, Note_on_c, 1, 44, 127
1, 164969, Note_off_c, 1, 63, 0
1, 164970, Note_on_c, 1, 66, 127
1, 164999, Note_off_c, 1, 44, 0
1, 164999, Note_off_c, 1, 66, 0
1, 165000, Note_on_c, 1, 64, 127
1, 165000, Note_on_c, 1, 46, 127
1, 165029, Note_off_c, 1, 64, 0
1, 165059, Note_off_c, 1, 46, 0
1, 165060, Note_off_c, 1, 68, 0
1, 165060, Note_on_c, 1, 61, 127
1, 165060, Note_on_c, 1, 48, 127
1, 165089, Note_off_c, 1, 61, 0
1, 165119, Note_off_c, 1, 48, 0
1, 165120, Note_on_c, 1, 49, 127
1, 165239, Note_off_c, 1, 49, 0
1, 165270, Note_on_c, 1, 69, 127
1, 165270, Note_on_c, 1, 66, 127
1, 165299, Note_off_c, 1, 69, 0
1, 165299, Note_off_c, 1, 66, 0
1, 165300, Note_on_c, 1, 71, 127
1, 165300, Note_on_c, 1, 68, 127
1, 165300, Note_on_c, 1, 47, 127
1, 165329, Note_off_c, 1, 71, 0
1, 165329, Note_off_c, 1, 68, 0
1, 165329, Note_off_c, 1, 47, 0
1, 165330, Note_on_c, 1, 73, 127
1, 165330, Note_on_c, 1, 69, 127
1, 165330, Note_on_c, 1, 45, 127
1, 165359, Note_off_c, 1, 73, 0
1, 165359, Note_off_c, 1, 69, 0
1, 165359, Note_off_c, 1, 45, 0
1, 165360, Note_on_c, 1, 74, 127
1, 165360, Note_on_c, 1, 71, 127
1, 165360, Note_on_c, 1, 44, 127
1, 165389, Note_off_c, 1, 71, 0
1, 165389, Note_off_c, 1, 44, 0
1, 165390, Note_on_c, 1, 73, 127
1, 165390, Note_on_c, 1, 42, 127
1, 165419, Note_off_c, 1, 74, 0
1, 165419, Note_off_c, 1, 73, 0
1, 165419, Note_off_c, 1, 42, 0
1, 165420, Note_on_c, 1, 71, 127
1, 165420, Note_on_c, 1, 74, 127
1, 165420, Note_on_c, 1, 41, 127
1, 165449, Note_off_c, 1, 41, 0
1, 165450, Note_on_c, 1, 42, 127
1, 165479, Note_off_c, 1, 71, 0
1, 165479, Note_off_c, 1, 42, 0
1, 165480, Note_on_c, 1, 77, 127
1, 165480, Note_on_c, 1, 37, 127
1, 165539, Note_off_c, 1, 37, 0
1, 165540, Note_off_c, 1, 74, 0
1, 165540, Note_on_c, 1, 73, 127
1, 165540, Note_on_c, 1, 49, 127
1, 165569, Note_off_c, 1, 77, 0
1, 165570, Note_on_c, 1, 78, 127
1, 165599, Note_off_c, 1, 73, 0
1, 165599, Note_off_c, 1, 49, 0
1, 165599, Note_off_c, 1, 78, 0
1, 165600, Note_on_c, 1, 78, 127
1, 165600, Note_on_c, 1, 71, 127
1, 165600, Note_on_c, 1, 54, 127
1, 165629, Note_off_c, 1, 78, 0
1, 165629, Note_off_c, 1, 71, 0
1, 165630, Note_on_c, 1, 80, 127
1, 165630, Note_on_c, 1, 69, 127
1, 165659, Note_off_c, 1, 54, 0
1, 165659, Note_off_c, 1, 80, 0
1, 165659, Note_off_c, 1, 69, 0
1, 165660, Note_on_c, 1, 81, 127
1, 165660, Note_on_c, 1, 68, 127
1, 165660, Note_on_c, 1, 51, 127
1, 165689, Note_off_c, 1, 68, 0
1, 165690, Note_on_c, 1, 66, 127
1, 165719, Note_off_c, 1, 51, 0
1, 165719, Note_off_c, 1, 66, 0
1, 165720, Note_on_c, 1, 75, 127
1, 165720, Note_on_c, 1, 48, 127
1, 165749, Note_off_c, 1, 81, 0
1, 165750, Note_on_c, 1, 78, 127
1, 165779, Note_off_c, 1, 48, 0
1, 165779, Note_off_c, 1, 78, 0
1, 165780, Note_on_c, 1, 80, 127
1, 165780, Note_on_c, 1, 44, 127
1, 165809, Note_off_c, 1, 80, 0
1, 165839, Note_off_c, 1, 44, 0
1, 165840, Note_on_c, 1, 76, 127
1, 165840, Note_on_c, 1, 49, 127
1, 165870, Note_off_c, 1, 75, 0
1, 165870, Note_on_c, 1, 72, 127
1, 165899, Note_off_c, 1, 49, 0
1, 165900, Note_off_c, 1, 72, 0
1, 165900, Note_on_c, 1, 73, 127
1, 165900, Note_on_c, 1, 53, 127
1, 165930, Note_off_c, 1, 73, 0
1, 165930, Note_on_c, 1, 69, 127
1, 165959, Note_off_c, 1, 76, 0
1, 165959, Note_off_c, 1, 53, 0
1, 165960, Note_off_c, 1, 69, 0
1, 165960, Note_on_c, 1, 45, 127
1, 166079, Note_off_c, 1, 45, 0
1, 166140, Note_on_c, 1, 46, 127
1, 166199, Note_off_c, 1, 46, 0
1, 166260, Note_on_c, 1, 75, 127
1, 166260, Note_on_c, 1, 44, 127
1, 166290, Note_off_c, 1, 75, 0
1, 166290, Note_on_c, 1, 66, 127
1, 166319, Note_off_c, 1, 44, 0
1, 166320, Note_off_c, 1, 66, 0
1, 166320, Note_on_c, 1, 64, 127
1, 166320, Note_on_c, 1, 49, 127
1, 166350, Note_off_c, 1, 64, 0
1, 166350, Note_on_c, 1, 63, 127
1, 166379, Note_off_c, 1, 49, 0
1, 166380, Note_off_c, 1, 63, 0
1, 166380, Note_on_c, 1, 51, 127
1, 166439, Note_off_c, 1, 51, 0
1, 166440, Note_on_c, 1, 73, 127
1, 166440, Note_on_c, 1, 52, 127
1, 166499, Note_off_c, 1, 52, 0
1, 166500, Note_off_c, 1, 73, 0
1, 166530, Note_on_c, 1, 69, 127
1, 166560, Note_off_c, 1, 69, 0
1, 166590, Note_on_c, 1, 59, 127
1, 166619, Note_off_c, 1, 59, 0
1, 166620, Note_on_c, 1, 57, 127
1, 166649, Note_off_c, 1, 57, 0
1, 166770, Note_on_c, 1, 68, 127
1, 166800, Note_off_c, 1, 68, 0
1, 166860, Note_on_c, 1, 47, 127
1, 166919, Note_off_c, 1, 47, 0
1, 166980, Note_on_c, 1, 64, 127
1, 166980, Note_on_c, 1, 51, 127
1, 167009, Note_off_c, 1, 64, 0
1, 167010, Note_on_c, 1, 66, 127
1, 167039, Note_off_c, 1, 51, 0
1, 167039, Note_off_c, 1, 66, 0
1, 167040, Note_on_c, 1, 68, 127
1, 167040, Note_on_c, 1, 52, 127
1, 167069, Note_off_c, 1, 52, 0
1, 167070, Note_on_c, 1, 61, 127
1, 167099, Note_off_c, 1, 61, 0
1, 167100, Note_on_c, 1, 59, 127
1, 167129, Note_off_c, 1, 59, 0
1, 167130, Note_on_c, 1, 66, 127
1, 167130, Note_on_c, 1, 51, 127
1, 167159, Note_off_c, 1, 68, 0
1, 167159, Note_off_c, 1, 51, 0
1, 167160, Note_off_c, 1, 66, 0
1, 167250, Note_on_c, 1, 69, 127
1, 167250, Note_on_c, 1, 54, 127
1, 167279, Note_off_c, 1, 54, 0
1, 167280, Note_off_c, 1, 69, 0
1, 167280, Note_on_c, 1, 71, 127
1, 167280, Note_on_c, 1, 53, 127
1, 167339, Note_off_c, 1, 53, 0
1, 167340, Note_on_c, 1, 49, 127
1, 167399, Note_off_c, 1, 49, 0
1, 167400, Note_off_c, 1, 71, 0
1, 167460, Note_on_c, 1, 66, 127
1, 167460, Note_on_c, 1, 53, 127
1, 167489, Note_off_c, 1, 66, 0
1, 167490, Note_on_c, 1, 68, 127
1, 167519, Note_off_c, 1, 53, 0
1, 167519, Note_off_c, 1, 68, 0
1, 167520, Note_on_c, 1, 69, 127
1, 167520, Note_on_c, 1, 42, 127
1, 167549, Note_off_c, 1, 42, 0
1, 167550, Note_on_c, 1, 54, 127
1, 167579, Note_off_c, 1, 54, 0
1, 167580, Note_on_c, 1, 73, 127
1, 167580, Note_on_c, 1, 52, 127
1, 167609, Note_off_c, 1, 52, 0
1, 167639, Note_off_c, 1, 69, 0
1, 167640, Note_on_c, 1, 43, 127
1, 167669, Note_off_c, 1, 73, 0
1, 167669, Note_off_c, 1, 43, 0
1, 167670, Note_on_c, 1, 74, 127
1, 167670, Note_on_c, 1, 54, 127
1, 167684, Note_off_c, 1, 74, 0
1, 167685, Note_on_c, 1, 76, 127
1, 167699, Note_off_c, 1, 54, 0
1, 167699, Note_off_c, 1, 76, 0
1, 167700, Note_on_c, 1, 73, 127
1, 167700, Note_on_c, 1, 52, 127
1, 167729, Note_off_c, 1, 52, 0
1, 167730, Note_on_c, 1, 43, 127
1, 167759, Note_off_c, 1, 73, 0
1, 167759, Note_off_c, 1, 43, 0
1, 167760, Note_on_c, 1, 70, 127
1, 167760, Note_on_c, 1, 42, 127
1, 167819, Note_off_c, 1, 70, 0
1, 167819, Note_off_c, 1, 42, 0
1, 167820, Note_on_c, 1, 68, 127
1, 167820, Note_on_c, 1, 52, 127
1, 167849, Note_off_c, 1, 68, 0
1, 167850, Note_on_c, 1, 66, 127
1, 167879, Note_off_c, 1, 52, 0
1, 167879, Note_off_c, 1, 66, 0
1, 167880, Note_on_c, 1, 71, 127
1, 167880, Note_on_c, 1, 50, 127
1, 167939, Note_off_c, 1, 71, 0
1, 167939, Note_off_c, 1, 50, 0
1, 167940, Note_on_c, 1, 73, 127
1, 167940, Note_on_c, 1, 49, 127
1, 167999, Note_off_c, 1, 73, 0
1, 167999, Note_off_c, 1, 49, 0
1, 168000, Note_on_c, 1, 74, 127
1, 168000, Note_on_c, 1, 47, 127
1, 168059, Note_off_c, 1, 47, 0
1, 168060, Note_on_c, 1, 54, 127
1, 168119, Note_off_c, 1, 74, 0
1, 168119, Note_off_c, 1, 54, 0
1, 168120, Note_on_c, 1, 74, 127
1, 168120, Note_on_c, 1, 59, 127
1, 168149, Note_off_c, 1, 74, 0
1, 168150, Note_on_c, 1, 73, 127
1, 168179, Note_off_c, 1, 59, 0
1, 168179, Note_off_c, 1, 73, 0
1, 168180, Note_on_c, 1, 73, 127
1, 168180, Note_on_c, 1, 57, 127
1, 168209, Note_off_c, 1, 73, 0
1, 168210, Note_on_c, 1, 71, 127
1, 168239, Note_off_c, 1, 57, 0
1, 168239, Note_off_c, 1, 71, 0
1, 168240, Note_on_c, 1, 64, 127
1, 168240, Note_on_c, 1, 71, 127
1, 168240, Note_on_c, 1, 55, 127
1, 168269, Note_off_c, 1, 71, 0
1, 168270, Note_on_c, 1, 69, 127
1, 168299, Note_off_c, 1, 55, 0
1, 168299, Note_off_c, 1, 69, 0
1, 168300, Note_on_c, 1, 54, 127
1, 168330, Note_on_c, 1, 67, 127
1, 168359, Note_off_c, 1, 54, 0
1, 168359, Note_off_c, 1, 67, 0
1, 168360, Note_on_c, 1, 52, 127
1, 168390, Note_off_c, 1, 64, 0
1, 168390, Note_on_c, 1, 74, 127
1, 168390, Note_on_c, 1, 66, 127
1, 168419, Note_off_c, 1, 52, 0
1, 168419, Note_off_c, 1, 74, 0
1, 168419, Note_off_c, 1, 66, 0
1, 168420, Note_on_c, 1, 74, 127
1, 168420, Note_on_c, 1, 66, 127
1, 168420, Note_on_c, 1, 54, 127
1, 168449, Note_off_c, 1, 74, 0
1, 168449, Note_off_c, 1, 66, 0
1, 168449, Note_off_c, 1, 54, 0
1, 168450, Note_on_c, 1, 73, 127
1, 168450, Note_on_c, 1, 64, 127
1, 168450, Note_on_c, 1, 55, 127
1, 168479, Note_off_c, 1, 73, 0
1, 168479, Note_off_c, 1, 64, 0
1, 168479, Note_off_c, 1, 55, 0
1, 168480, Note_on_c, 1, 73, 127
1, 168480, Note_on_c, 1, 64, 127
1, 168480, Note_on_c, 1, 57, 127
1, 168509, Note_off_c, 1, 73, 0
1, 168509, Note_off_c, 1, 64, 0
1, 168510, Note_on_c, 1, 69, 127
1, 168510, Note_on_c, 1, 74, 127
1, 168539, Note_off_c, 1, 57, 0
1, 168539, Note_off_c, 1, 69, 0
1, 168539, Note_off_c, 1, 74, 0
1, 168540, Note_on_c, 1, 64, 127
1, 168540, Note_on_c, 1, 73, 127
1, 168540, Note_on_c, 1, 45, 127
1, 168599, Note_off_c, 1, 64, 0
1, 168599, Note_off_c, 1, 73, 0
1, 168599, Note_off_c, 1, 45, 0
1, 168600, Note_on_c, 1, 72, 127
1, 168600, Note_on_c, 1, 57, 127
1, 168629, Note_off_c, 1, 72, 0
1, 168630, Note_on_c, 1, 71, 127
1, 168659, Note_off_c, 1, 57, 0
1, 168659, Note_off_c, 1, 71, 0
1, 168660, Note_on_c, 1, 71, 127
1, 168660, Note_on_c, 1, 55, 127
1, 168689, Note_off_c, 1, 71, 0
1, 168690, Note_on_c, 1, 69, 127
1, 168719, Note_off_c, 1, 55, 0
1, 168719, Note_off_c, 1, 69, 0
1, 168720, Note_on_c, 1, 62, 127
1, 168720, Note_on_c, 1, 69, 127
1, 168720, Note_on_c, 1, 54, 127
1, 168749, Note_off_c, 1, 69, 0
1, 168750, Note_on_c, 1, 67, 127
1, 168779, Note_off_c, 1, 54, 0
1, 168779, Note_off_c, 1, 67, 0
1, 168780, Note_on_c, 1, 52, 127
1, 168810, Note_on_c, 1, 66, 127
1, 168839, Note_off_c, 1, 52, 0
1, 168839, Note_off_c, 1, 66, 0
1, 168840, Note_on_c, 1, 50, 127
1, 168870, Note_off_c, 1, 62, 0
1, 168870, Note_on_c, 1, 72, 127
1, 168870, Note_on_c, 1, 64, 127
1, 168899, Note_off_c, 1, 50, 0
1, 168899, Note_off_c, 1, 72, 0
1, 168899, Note_off_c, 1, 64, 0
1, 168900, Note_on_c, 1, 72, 127
1, 168900, Note_on_c, 1, 64, 127
1, 168900, Note_on_c, 1, 52, 127
1, 168929, Note_off_c, 1, 72, 0
1, 168929, Note_off_c, 1, 64, 0
1, 168929, Note_off_c, 1, 52, 0
1, 168930, Note_on_c, 1, 71, 127
1, 168930, Note_on_c, 1, 62, 127
1, 168930, Note_on_c, 1, 54, 127
1, 168959, Note_off_c, 1, 71, 0
1, 168959, Note_off_c, 1, 62, 0
1, 168959, Note_off_c, 1, 54, 0
1, 168960, Note_on_c, 1, 71, 127
1, 168960, Note_on_c, 1, 62, 127
1, 168960, Note_on_c, 1, 55, 127
1, 168989, Note_off_c, 1, 71, 0
1, 168989, Note_off_c, 1, 62, 0
1, 168990, Note_on_c, 1, 67, 127
1, 168990, Note_on_c, 1, 72, 127
1, 169019, Note_off_c, 1, 55, 0
1, 169019, Note_off_c, 1, 67, 0
1, 169019, Note_off_c, 1, 72, 0
1, 169020, Note_on_c, 1, 62, 127
1, 169020, Note_on_c, 1, 71, 127
1, 169020, Note_on_c, 1, 43, 127
1, 169079, Note_off_c, 1, 62, 0
1, 169079, Note_off_c, 1, 71, 0
1, 169079, Note_off_c, 1, 43, 0
1, 169080, Note_on_c, 1, 76, 127
1, 169110, Note_on_c, 1, 64, 127
1, 169139, Note_off_c, 1, 76, 0
1, 169139, Note_off_c, 1, 64, 0
1, 169140, Note_on_c, 1, 64, 127
1, 169140, Note_on_c, 1, 72, 127
1, 169140, Note_on_c, 1, 57, 127
1, 169169, Note_off_c, 1, 64, 0
1, 169170, Note_on_c, 1, 63, 127
1, 169199, Note_off_c, 1, 72, 0
1, 169199, Note_off_c, 1, 57, 0
1, 169199, Note_off_c, 1, 63, 0
1, 169200, Note_on_c, 1, 63, 127
1, 169200, Note_on_c, 1, 69, 127
1, 169200, Note_on_c, 1, 54, 127
1, 169229, Note_off_c, 1, 63, 0
1, 169230, Note_on_c, 1, 72, 127
1, 169259, Note_off_c, 1, 69, 0
1, 169259, Note_off_c, 1, 72, 0
1, 169260, Note_on_c, 1, 71, 127
1, 169289, Note_off_c, 1, 71, 0
1, 169290, Note_on_c, 1, 64, 127
1, 169319, Note_off_c, 1, 54, 0
1, 169319, Note_off_c, 1, 64, 0
1, 169320, Note_on_c, 1, 63, 127
1, 169320, Note_on_c, 1, 69, 127
1, 169349, Note_off_c, 1, 63, 0
1, 169349, Note_off_c, 1, 69, 0
1, 169350, Note_on_c, 1, 69, 127
1, 169350, Note_on_c, 1, 71, 127
1, 169364, Note_off_c, 1, 71, 0
1, 169365, Note_on_c, 1, 72, 127
1, 169379, Note_off_c, 1, 69, 0
1, 169379, Note_off_c, 1, 72, 0
1, 169380, Note_on_c, 1, 67, 127
1, 169380, Note_on_c, 1, 71, 127
1, 169380, Note_on_c, 1, 59, 127
1, 169409, Note_off_c, 1, 67, 0
1, 169409, Note_off_c, 1, 71, 0
1, 169410, Note_on_c, 1, 66, 127
1, 169410, Note_on_c, 1, 69, 127
1, 169439, Note_off_c, 1, 59, 0
1, 169439, Note_off_c, 1, 66, 0
1, 169439, Note_off_c, 1, 69, 0
1, 169440, Note_on_c, 1, 67, 127
1, 169440, Note_on_c, 1, 71, 127
1, 169440, Note_on_c, 1, 52, 127
1, 169469, Note_off_c, 1, 67, 0
1, 169469, Note_off_c, 1, 71, 0
1, 169499, Note_off_c, 1, 52, 0
1, 169500, Note_on_c, 1, 71, 127
1, 169500, Note_on_c, 1, 64, 127
1, 169500, Note_on_c, 1, 50, 127
1, 169529, Note_off_c, 1, 71, 0
1, 169530, Note_on_c, 1, 70, 127
1, 169559, Note_off_c, 1, 64, 0
1, 169559, Note_off_c, 1, 50, 0
1, 169559, Note_off_c, 1, 70, 0
1, 169560, Note_on_c, 1, 70, 127
1, 169560, Note_on_c, 1, 49, 127
1, 169589, Note_off_c, 1, 70, 0
1, 169590, Note_on_c, 1, 79, 127
1, 169619, Note_off_c, 1, 49, 0
1, 169619, Note_off_c, 1, 79, 0
1, 169620, Note_on_c, 1, 79, 127
1, 169620, Note_on_c, 1, 70, 127
1, 169620, Note_on_c, 1, 52, 127
1, 169649, Note_off_c, 1, 79, 0
1, 169649, Note_off_c, 1, 70, 0
1, 169650, Note_on_c, 1, 78, 127
1, 169650, Note_on_c, 1, 71, 127
1, 169679, Note_off_c, 1, 52, 0
1, 169679, Note_off_c, 1, 78, 0
1, 169679, Note_off_c, 1, 71, 0
1, 169680, Note_on_c, 1, 78, 127
1, 169680, Note_on_c, 1, 73, 127
1, 169680, Note_on_c, 1, 46, 127
1, 169709, Note_off_c, 1, 73, 0
1, 169710, Note_on_c, 1, 66, 127
1, 169739, Note_off_c, 1, 78, 0
1, 169739, Note_off_c, 1, 46, 0
1, 169739, Note_off_c, 1, 66, 0
1, 169740, Note_on_c, 1, 74, 127
1, 169740, Note_on_c, 1, 47, 127
1, 169769, Note_off_c, 1, 74, 0
1, 169770, Note_on_c, 1, 73, 127
1, 169799, Note_off_c, 1, 47, 0
1, 169799, Note_off_c, 1, 73, 0
1, 169800, Note_on_c, 1, 70, 127
1, 169800, Note_on_c, 1, 54, 127
1, 169859, Note_off_c, 1, 54, 0
1, 169860, Note_on_c, 1, 42, 127
1, 169889, Note_off_c, 1, 70, 0
1, 169890, Note_on_c, 1, 71, 127
1, 169919, Note_off_c, 1, 42, 0
1, 169919, Note_off_c, 1, 71, 0
1, 169920, Note_on_c, 1, 71, 127
1, 169920, Note_on_c, 1, 47, 127
1, 169950, Note_on_c, 1, 66, 127
1, 169979, Note_off_c, 1, 66, 0
1, 170010, Note_on_c, 1, 74, 127
1, 170039, Note_off_c, 1, 71, 0
1, 170039, Note_off_c, 1, 47, 0
1, 170039, Note_off_c, 1, 74, 0
1, 170040, Note_on_c, 1, 73, 127
1, 170069, Note_off_c, 1, 73, 0
1, 170070, Note_on_c, 1, 71, 127
1, 170099, Note_off_c, 1, 71, 0
1, 170100, Note_on_c, 1, 70, 127
1, 170100, Note_on_c, 1, 59, 127
1, 170129, Note_off_c, 1, 70, 0
1, 170130, Note_on_c, 1, 71, 127
1, 170159, Note_off_c, 1, 59, 0
1, 170159, Note_off_c, 1, 71, 0
1, 170160, Note_on_c, 1, 73, 127
1, 170160, Note_on_c, 1, 58, 127
1, 170189, Note_off_c, 1, 73, 0
1, 170190, Note_on_c, 1, 66, 127
1, 170219, Note_off_c, 1, 66, 0
1, 170250, Note_on_c, 1, 76, 127
1, 170279, Note_off_c, 1, 58, 0
1, 170279, Note_off_c, 1, 76, 0
1, 170280, Note_on_c, 1, 74, 127
1, 170309, Note_off_c, 1, 74, 0
1, 170310, Note_on_c, 1, 73, 127
1, 170339, Note_off_c, 1, 73, 0
1, 170340, Note_on_c, 1, 71, 127
1, 170340, Note_on_c, 1, 54, 127
1, 170369, Note_off_c, 1, 71, 0
1, 170370, Note_on_c, 1, 73, 127
1, 170399, Note_off_c, 1, 54, 0
1, 170399, Note_off_c, 1, 73, 0
1, 170400, Note_on_c, 1, 74, 127
1, 170400, Note_on_c, 1, 59, 127
1, 170459, Note_off_c, 1, 59, 0
1, 170460, Note_off_c, 1, 74, 0
1, 170460, Note_on_c, 1, 76, 127
1, 170460, Note_on_c, 1, 47, 127
1, 170474, Note_off_c, 1, 76, 0
1, 170475, Note_on_c, 1, 78, 127
1, 170489, Note_off_c, 1, 78, 0
1, 170490, Note_on_c, 1, 79, 127
1, 170519, Note_off_c, 1, 47, 0
1, 170520, Note_on_c, 1, 49, 127
1, 170579, Note_off_c, 1, 79, 0
1, 170579, Note_off_c, 1, 49, 0
1, 170580, Note_on_c, 1, 78, 127
1, 170580, Note_on_c, 1, 50, 127
1, 170639, Note_off_c, 1, 78, 0
1, 170639, Note_off_c, 1, 50, 0
1, 170640, Note_on_c, 1, 76, 127
1, 170640, Note_on_c, 1, 49, 127
1, 170699, Note_off_c, 1, 76, 0
1, 170699, Note_off_c, 1, 49, 0
1, 170700, Note_on_c, 1, 74, 127
1, 170700, Note_on_c, 1, 47, 127
1, 170729, Note_off_c, 1, 74, 0
1, 170730, Note_on_c, 1, 73, 127
1, 170759, Note_off_c, 1, 47, 0
1, 170759, Note_off_c, 1, 73, 0
1, 170760, Note_on_c, 1, 81, 127
1, 170760, Note_on_c, 1, 49, 127
1, 170819, Note_off_c, 1, 81, 0
1, 170819, Note_off_c, 1, 49, 0
1, 170820, Note_on_c, 1, 76, 127
1, 170820, Note_on_c, 1, 45, 127
1, 170879, Note_off_c, 1, 76, 0
1, 170879, Note_off_c, 1, 45, 0
1, 170880, Note_on_c, 1, 78, 127
1, 170880, Note_on_c, 1, 50, 127
1, 170939, Note_off_c, 1, 50, 0
1, 170940, Note_on_c, 1, 66, 127
1, 170940, Note_on_c, 1, 49, 127
1, 170999, Note_off_c, 1, 78, 0
1, 170999, Note_off_c, 1, 49, 0
1, 171059, Note_off_c, 1, 66, 0
1, 171060, Note_on_c, 1, 71, 127
1, 171060, Note_on_c, 1, 47, 127
1, 171119, Note_off_c, 1, 71, 0
1, 171119, Note_off_c, 1, 47, 0
1, 171120, Note_on_c, 1, 68, 127
1, 171120, Note_on_c, 1, 52, 127
1, 171179, Note_off_c, 1, 68, 0
1, 171179, Note_off_c, 1, 52, 0
1, 171180, Note_on_c, 1, 66, 127
1, 171180, Note_on_c, 1, 50, 127
1, 171209, Note_off_c, 1, 66, 0
1, 171210, Note_on_c, 1, 64, 127
1, 171239, Note_off_c, 1, 50, 0
1, 171239, Note_off_c, 1, 64, 0
1, 171240, Note_on_c, 1, 69, 127
1, 171240, Note_on_c, 1, 49, 127
1, 171299, Note_off_c, 1, 49, 0
1, 171300, Note_on_c, 1, 47, 127
1, 171329, Note_off_c, 1, 69, 0
1, 171330, Note_on_c, 1, 71, 127
1, 171359, Note_off_c, 1, 47, 0
1, 171359, Note_off_c, 1, 71, 0
1, 171360, Note_on_c, 1, 73, 127
1, 171360, Note_on_c, 1, 45, 127
1, 171419, Note_off_c, 1, 45, 0
1, 171420, Note_on_c, 1, 47, 127
1, 171479, Note_off_c, 1, 73, 0
1, 171479, Note_off_c, 1, 47, 0
1, 171480, Note_on_c, 1, 49, 127
1, 171539, Note_off_c, 1, 49, 0
1, 171540, Note_on_c, 1, 73, 127
1, 171540, Note_on_c, 1, 45, 127
1, 171599, Note_off_c, 1, 73, 0
1, 171599, Note_off_c, 1, 45, 0
1, 171600, Note_on_c, 1, 73, 127
1, 171600, Note_on_c, 1, 50, 127
1, 171630, Note_on_c, 1, 66, 127
1, 171659, Note_off_c, 1, 73, 0
1, 171659, Note_off_c, 1, 50, 0
1, 171659, Note_off_c, 1, 66, 0
1, 171660, Note_on_c, 1, 73, 127
1, 171660, Note_on_c, 1, 66, 127
1, 171660, Note_on_c, 1, 49, 127
1, 171689, Note_off_c, 1, 73, 0
1, 171690, Note_on_c, 1, 76, 127
1, 171719, Note_off_c, 1, 66, 0
1, 171719, Note_off_c, 1, 49, 0
1, 171719, Note_off_c, 1, 76, 0
1, 171720, Note_on_c, 1, 74, 127
1, 171720, Note_on_c, 1, 47, 127
1, 171749, Note_off_c, 1, 74, 0
1, 171750, Note_on_c, 1, 73, 127
1, 171779, Note_off_c, 1, 47, 0
1, 171779, Note_off_c, 1, 73, 0
1, 171780, Note_on_c, 1, 71, 127
1, 171780, Note_on_c, 1, 68, 127
1, 171780, Note_on_c, 1, 45, 127
1, 171809, Note_off_c, 1, 71, 0
1, 171809, Note_off_c, 1, 68, 0
1, 171810, Note_on_c, 1, 73, 127
1, 171810, Note_on_c, 1, 69, 127
1, 171839, Note_off_c, 1, 45, 0
1, 171839, Note_off_c, 1, 73, 0
1, 171839, Note_off_c, 1, 69, 0
1, 171840, Note_on_c, 1, 74, 127
1, 171840, Note_on_c, 1, 71, 127
1, 171840, Note_on_c, 1, 44, 127
1, 171869, Note_off_c, 1, 74, 0
1, 171870, Note_on_c, 1, 69, 127
1, 171899, Note_off_c, 1, 44, 0
1, 171899, Note_off_c, 1, 69, 0
1, 171900, Note_on_c, 1, 45, 127
1, 171930, Note_on_c, 1, 68, 127
1, 171959, Note_off_c, 1, 71, 0
1, 171959, Note_off_c, 1, 45, 0
1, 171959, Note_off_c, 1, 68, 0
1, 171960, Note_on_c, 1, 68, 127
1, 171960, Note_on_c, 1, 47, 127
1, 171989, Note_off_c, 1, 68, 0
1, 171990, Note_on_c, 1, 66, 127
1, 172019, Note_off_c, 1, 47, 0
1, 172019, Note_off_c, 1, 66, 0
1, 172020, Note_on_c, 1, 66, 127
1, 172020, Note_on_c, 1, 71, 127
1, 172020, Note_on_c, 1, 44, 127
1, 172049, Note_off_c, 1, 66, 0
1, 172050, Note_on_c, 1, 65, 127
1, 172079, Note_off_c, 1, 71, 0
1, 172079, Note_off_c, 1, 44, 0
1, 172079, Note_off_c, 1, 65, 0
1, 172080, Note_on_c, 1, 65, 127
1, 172080, Note_on_c, 1, 71, 127
1, 172080, Note_on_c, 1, 49, 127
1, 172109, Note_off_c, 1, 65, 0
1, 172110, Note_on_c, 1, 74, 127
1, 172139, Note_off_c, 1, 71, 0
1, 172139, Note_off_c, 1, 49, 0
1, 172139, Note_off_c, 1, 74, 0
1, 172140, Note_on_c, 1, 73, 127
1, 172140, Note_on_c, 1, 65, 127
1, 172140, Note_on_c, 1, 47, 127
1, 172169, Note_off_c, 1, 73, 0
1, 172170, Note_on_c, 1, 66, 127
1, 172199, Note_off_c, 1, 65, 0
1, 172199, Note_off_c, 1, 47, 0
1, 172199, Note_off_c, 1, 66, 0
1, 172200, Note_on_c, 1, 65, 127
1, 172200, Note_on_c, 1, 45, 127
1, 172229, Note_off_c, 1, 65, 0
1, 172230, Note_on_c, 1, 74, 127
1, 172259, Note_off_c, 1, 45, 0
1, 172259, Note_off_c, 1, 74, 0
1, 172260, Note_on_c, 1, 73, 127
1, 172260, Note_on_c, 1, 66, 127
1, 172260, Note_on_c, 1, 44, 127
1, 172289, Note_off_c, 1, 73, 0
1, 172289, Note_off_c, 1, 66, 0
1, 172290, Note_on_c, 1, 71, 127
1, 172290, Note_on_c, 1, 68, 127
1, 172319, Note_off_c, 1, 44, 0
1, 172319, Note_off_c, 1, 71, 0
1, 172319, Note_off_c, 1, 68, 0
1, 172320, Note_on_c, 1, 69, 127
1, 172320, Note_on_c, 1, 42, 127
1, 172350, Note_on_c, 1, 73, 127
1, 172379, Note_off_c, 1, 73, 0
1, 172380, Note_on_c, 1, 78, 127
1, 172409, Note_off_c, 1, 78, 0
1, 172410, Note_on_c, 1, 76, 127
1, 172439, Note_off_c, 1, 69, 0
1, 172439, Note_off_c, 1, 42, 0
1, 172439, Note_off_c, 1, 76, 0
1, 172440, Note_on_c, 1, 76, 127
1, 172440, Note_on_c, 1, 73, 127
1, 172469, Note_off_c, 1, 76, 0
1, 172469, Note_off_c, 1, 73, 0
1, 172470, Note_on_c, 1, 74, 127
1, 172470, Note_on_c, 1, 71, 127
1, 172499, Note_off_c, 1, 74, 0
1, 172499, Note_off_c, 1, 71, 0
1, 172500, Note_on_c, 1, 74, 127
1, 172500, Note_on_c, 1, 71, 127
1, 172529, Note_off_c, 1, 74, 0
1, 172529, Note_off_c, 1, 71, 0
1, 172530, Note_on_c, 1, 73, 127
1, 172530, Note_on_c, 1, 70, 127
1, 172559, Note_off_c, 1, 73, 0
1, 172559, Note_off_c, 1, 70, 0
1, 172560, Note_on_c, 1, 73, 127
1, 172560, Note_on_c, 1, 70, 127
1, 172589, Note_off_c, 1, 73, 0
1, 172589, Note_off_c, 1, 70, 0
1, 172590, Note_on_c, 1, 71, 127
1, 172590, Note_on_c, 1, 67, 127
1, 172619, Note_off_c, 1, 71, 0
1, 172619, Note_off_c, 1, 67, 0
1, 172620, Note_on_c, 1, 71, 127
1, 172620, Note_on_c, 1, 67, 127
1, 172649, Note_off_c, 1, 71, 0
1, 172649, Note_off_c, 1, 67, 0
1, 172650, Note_on_c, 1, 70, 127
1, 172650, Note_on_c, 1, 66, 127
1, 172679, Note_off_c, 1, 70, 0
1, 172679, Note_off_c, 1, 66, 0
1, 172680, Note_on_c, 1, 70, 127
1, 172680, Note_on_c, 1, 66, 127
1, 172680, Note_on_c, 1, 54, 127
1, 172709, Note_off_c, 1, 70, 0
1, 172710, Note_on_c, 1, 67, 127
1, 172739, Note_off_c, 1, 66, 0
1, 172739, Note_off_c, 1, 54, 0
1, 172739, Note_off_c, 1, 67, 0
1, 172740, Note_on_c, 1, 67, 127
1, 172740, Note_on_c, 1, 76, 127
1, 172740, Note_on_c, 1, 46, 127
1, 172769, Note_off_c, 1, 67, 0
1, 172769, Note_off_c, 1, 76, 0
1, 172770, Note_on_c, 1, 66, 127
1, 172770, Note_on_c, 1, 74, 127
1, 172799, Note_off_c, 1, 46, 0
1, 172799, Note_off_c, 1, 66, 0
1, 172799, Note_off_c, 1, 74, 0
1, 172800, Note_on_c, 1, 66, 127
1, 172800, Note_on_c, 1, 74, 127
1, 172800, Note_on_c, 1, 47, 127
1, 172829, Note_off_c, 1, 66, 0
1, 172829, Note_off_c, 1, 74, 0
1, 172830, Note_on_c, 1, 76, 127
1, 172830, Note_on_c, 1, 73, 127
1, 172859, Note_off_c, 1, 47, 0
1, 172859, Note_off_c, 1, 76, 0
1, 172859, Note_off_c, 1, 73, 0
1, 172860, Note_on_c, 1, 76, 127
1, 172860, Note_on_c, 1, 73, 127
1, 172860, Note_on_c, 1, 54, 127
1, 172889, Note_off_c, 1, 76, 0
1, 172889, Note_off_c, 1, 73, 0
1, 172890, Note_on_c, 1, 74, 127
1, 172890, Note_on_c, 1, 71, 127
1, 172919, Note_off_c, 1, 54, 0
1, 172919, Note_off_c, 1, 74, 0
1, 172919, Note_off_c, 1, 71, 0
1, 172920, Note_on_c, 1, 74, 127
1, 172920, Note_on_c, 1, 71, 127
1, 172920, Note_on_c, 1, 59, 127
1, 172949, Note_off_c, 1, 74, 0
1, 172949, Note_off_c, 1, 71, 0
1, 172950, Note_on_c, 1, 73, 127
1, 172950, Note_on_c, 1, 69, 127
1, 172979, Note_off_c, 1, 59, 0
1, 172979, Note_off_c, 1, 73, 0
1, 172979, Note_off_c, 1, 69, 0
1, 172980, Note_on_c, 1, 73, 127
1, 172980, Note_on_c, 1, 69, 127
1, 173009, Note_off_c, 1, 73, 0
1, 173009, Note_off_c, 1, 69, 0
1, 173010, Note_on_c, 1, 71, 127
1, 173010, Note_on_c, 1, 68, 127
1, 173039, Note_off_c, 1, 71, 0
1, 173039, Note_off_c, 1, 68, 0
1, 173040, Note_on_c, 1, 71, 127
1, 173040, Note_on_c, 1, 68, 127
1, 173069, Note_off_c, 1, 71, 0
1, 173069, Note_off_c, 1, 68, 0
1, 173070, Note_on_c, 1, 69, 127
1, 173070, Note_on_c, 1, 66, 127
1, 173099, Note_off_c, 1, 69, 0
1, 173099, Note_off_c, 1, 66, 0
1, 173100, Note_on_c, 1, 69, 127
1, 173100, Note_on_c, 1, 66, 127
1, 173129, Note_off_c, 1, 69, 0
1, 173129, Note_off_c, 1, 66, 0
1, 173130, Note_on_c, 1, 68, 127
1, 173130, Note_on_c, 1, 64, 127
1, 173159, Note_off_c, 1, 68, 0
1, 173159, Note_off_c, 1, 64, 0
1, 173160, Note_on_c, 1, 68, 127
1, 173160, Note_on_c, 1, 64, 127
1, 173160, Note_on_c, 1, 52, 127
1, 173189, Note_off_c, 1, 68, 0
1, 173190, Note_on_c, 1, 66, 127
1, 173219, Note_off_c, 1, 64, 0
1, 173219, Note_off_c, 1, 52, 0
1, 173219, Note_off_c, 1, 66, 0
1, 173220, Note_on_c, 1, 66, 127
1, 173220, Note_on_c, 1, 74, 127
1, 173220, Note_on_c, 1, 44, 127
1, 173249, Note_off_c, 1, 66, 0
1, 173249, Note_off_c, 1, 74, 0
1, 173250, Note_on_c, 1, 64, 127
1, 173250, Note_on_c, 1, 73, 127
1, 173279, Note_off_c, 1, 44, 0
1, 173279, Note_off_c, 1, 64, 0
1, 173279, Note_off_c, 1, 73, 0
1, 173280, Note_on_c, 1, 64, 127
1, 173280, Note_on_c, 1, 73, 127
1, 173280, Note_on_c, 1, 45, 127
1, 173309, Note_off_c, 1, 64, 0
1, 173309, Note_off_c, 1, 73, 0
1, 173310, Note_on_c, 1, 74, 127
1, 173310, Note_on_c, 1, 71, 127
1, 173339, Note_off_c, 1, 45, 0
1, 173339, Note_off_c, 1, 74, 0
1, 173339, Note_off_c, 1, 71, 0
1, 173340, Note_on_c, 1, 74, 127
1, 173340, Note_on_c, 1, 71, 127
1, 173340, Note_on_c, 1, 52, 127
1, 173369, Note_off_c, 1, 74, 0
1, 173369, Note_off_c, 1, 71, 0
1, 173370, Note_on_c, 1, 73, 127
1, 173370, Note_on_c, 1, 69, 127
1, 173399, Note_off_c, 1, 52, 0
1, 173399, Note_off_c, 1, 73, 0
1, 173399, Note_off_c, 1, 69, 0
1, 173400, Note_on_c, 1, 73, 127
1, 173400, Note_on_c, 1, 69, 127
1, 173400, Note_on_c, 1, 57, 127
1, 173429, Note_off_c, 1, 73, 0
1, 173429, Note_off_c, 1, 69, 0
1, 173430, Note_on_c, 1, 71, 127
1, 173430, Note_on_c, 1, 68, 127
1, 173459, Note_off_c, 1, 57, 0
1, 173459, Note_off_c, 1, 71, 0
1, 173459, Note_off_c, 1, 68, 0
1, 173460, Note_on_c, 1, 71, 127
1, 173460, Note_on_c, 1, 68, 127
1, 173489, Note_off_c, 1, 71, 0
1, 173489, Note_off_c, 1, 68, 0
1, 173490, Note_on_c, 1, 69, 127
1, 173490, Note_on_c, 1, 66, 127
1, 173519, Note_off_c, 1, 69, 0
1, 173519, Note_off_c, 1, 66, 0
1, 173520, Note_on_c, 1, 69, 127
1, 173520, Note_on_c, 1, 66, 127
1, 173549, Note_off_c, 1, 69, 0
1, 173549, Note_off_c, 1, 66, 0
1, 173550, Note_on_c, 1, 68, 127
1, 173550, Note_on_c, 1, 64, 127
1, 173579, Note_off_c, 1, 68, 0
1, 173579, Note_off_c, 1, 64, 0
1, 173580, Note_on_c, 1, 68, 127
1, 173580, Note_on_c, 1, 64, 127
1, 173609, Note_off_c, 1, 68, 0
1, 173609, Note_off_c, 1, 64, 0
1, 173610, Note_on_c, 1, 66, 127
1, 173610, Note_on_c, 1, 62, 127
1, 173639, Note_off_c, 1, 66, 0
1, 173639, Note_off_c, 1, 62, 0
1, 173640, Note_on_c, 1, 66, 127
1, 173640, Note_on_c, 1, 62, 127
1, 173640, Note_on_c, 1, 50, 127
1, 173669, Note_off_c, 1, 66, 0
1, 173670, Note_on_c, 1, 64, 127
1, 173699, Note_off_c, 1, 62, 0
1, 173699, Note_off_c, 1, 50, 0
1, 173699, Note_off_c, 1, 64, 0
1, 173700, Note_on_c, 1, 64, 127
1, 173700, Note_on_c, 1, 73, 127
1, 173700, Note_on_c, 1, 42, 127
1, 173729, Note_off_c, 1, 64, 0
1, 173729, Note_off_c, 1, 73, 0
1, 173730, Note_on_c, 1, 62, 127
1, 173730, Note_on_c, 1, 71, 127
1, 173759, Note_off_c, 1, 42, 0
1, 173759, Note_off_c, 1, 62, 0
1, 173759, Note_off_c, 1, 71, 0
1, 173760, Note_on_c, 1, 62, 127
1, 173760, Note_on_c, 1, 71, 127
1, 173760, Note_on_c, 1, 44, 127
1, 173789, Note_off_c, 1, 62, 0
1, 173789, Note_off_c, 1, 71, 0
1, 173790, Note_on_c, 1, 73, 127
1, 173790, Note_on_c, 1, 69, 127
1, 173819, Note_off_c, 1, 73, 0
1, 173819, Note_off_c, 1, 69, 0
1, 173850, Note_on_c, 1, 68, 127
1, 173879, Note_off_c, 1, 44, 0
1, 173879, Note_off_c, 1, 68, 0
1, 173880, Note_on_c, 1, 71, 127
1, 173880, Note_on_c, 1, 68, 127
1, 173909, Note_off_c, 1, 71, 0
1, 173909, Note_off_c, 1, 68, 0
1, 173910, Note_on_c, 1, 69, 127
1, 173910, Note_on_c, 1, 66, 127
1, 173939, Note_off_c, 1, 69, 0
1, 173939, Note_off_c, 1, 66, 0
1, 173940, Note_on_c, 1, 69, 127
1, 173940, Note_on_c, 1, 66, 127
1, 173940, Note_on_c, 1, 45, 127
1, 173969, Note_off_c, 1, 69, 0
1, 173969, Note_off_c, 1, 66, 0
1, 173970, Note_on_c, 1, 68, 127
1, 173970, Note_on_c, 1, 65, 127
1, 173999, Note_off_c, 1, 45, 0
1, 173999, Note_off_c, 1, 68, 0
1, 173999, Note_off_c, 1, 65, 0
1, 174000, Note_on_c, 1, 68, 127
1, 174000, Note_on_c, 1, 65, 127
1, 174000, Note_on_c, 1, 47, 127
1, 174029, Note_off_c, 1, 68, 0
1, 174029, Note_off_c, 1, 65, 0
1, 174030, Note_on_c, 1, 78, 127
1, 174030, Note_on_c, 1, 63, 127
1, 174059, Note_off_c, 1, 47, 0
1, 174059, Note_off_c, 1, 78, 0
1, 174059, Note_off_c, 1, 63, 0
1, 174060, Note_on_c, 1, 78, 127
1, 174060, Note_on_c, 1, 63, 127
1, 174060, Note_on_c, 1, 48, 127
1, 174089, Note_off_c, 1, 78, 0
1, 174089, Note_off_c, 1, 63, 0
1, 174090, Note_on_c, 1, 77, 127
1, 174090, Note_on_c, 1, 61, 127
1, 174119, Note_off_c, 1, 48, 0
1, 174119, Note_off_c, 1, 77, 0
1, 174119, Note_off_c, 1, 61, 0
1, 174120, Note_on_c, 1, 77, 127
1, 174120, Note_on_c, 1, 61, 127
1, 174120, Note_on_c, 1, 49, 127
1, 174149, Note_off_c, 1, 77, 0
1, 174150, Note_on_c, 1, 80, 127
1, 174179, Note_off_c, 1, 61, 0
1, 174179, Note_off_c, 1, 49, 0
1, 174179, Note_off_c, 1, 80, 0
1, 174180, Note_on_c, 1, 80, 127
1, 174180, Note_on_c, 1, 71, 127
1, 174180, Note_on_c, 1, 41, 127
1, 174209, Note_off_c, 1, 80, 0
1, 174209, Note_off_c, 1, 71, 0
1, 174210, Note_on_c, 1, 73, 127
1, 174210, Note_on_c, 1, 69, 127
1, 174239, Note_off_c, 1, 41, 0
1, 174239, Note_off_c, 1, 73, 0
1, 174239, Note_off_c, 1, 69, 0
1, 174240, Note_on_c, 1, 73, 127
1, 174240, Note_on_c, 1, 69, 127
1, 174240, Note_on_c, 1, 42, 127
1, 174269, Note_off_c, 1, 73, 0
1, 174270, Note_on_c, 1, 76, 127
1, 174299, Note_off_c, 1, 42, 0
1, 174299, Note_off_c, 1, 76, 0
1, 174300, Note_on_c, 1, 44, 127
1, 174330, Note_on_c, 1, 75, 127
1, 174359, Note_off_c, 1, 69, 0
1, 174359, Note_off_c, 1, 44, 0
1, 174359, Note_off_c, 1, 75, 0
1, 174360, Note_on_c, 1, 75, 127
1, 174360, Note_on_c, 1, 66, 127
1, 174360, Note_on_c, 1, 45, 127
1, 174389, Note_off_c, 1, 75, 0
1, 174390, Note_on_c, 1, 73, 127
1, 174419, Note_off_c, 1, 66, 0
1, 174419, Note_off_c, 1, 45, 0
1, 174419, Note_off_c, 1, 73, 0
1, 174420, Note_on_c, 1, 73, 127
1, 174420, Note_on_c, 1, 69, 127
1, 174420, Note_on_c, 1, 42, 127
1, 174449, Note_off_c, 1, 73, 0
1, 174450, Note_on_c, 1, 72, 127
1, 174479, Note_off_c, 1, 69, 0
1, 174479, Note_off_c, 1, 42, 0
1, 174479, Note_off_c, 1, 72, 0
1, 174480, Note_on_c, 1, 72, 127
1, 174480, Note_on_c, 1, 69, 127
1, 174480, Note_on_c, 1, 44, 127
1, 174509, Note_off_c, 1, 72, 0
1, 174510, Note_on_c, 1, 81, 127
1, 174539, Note_off_c, 1, 69, 0
1, 174539, Note_off_c, 1, 81, 0
1, 174540, Note_on_c, 1, 80, 127
1, 174540, Note_on_c, 1, 63, 127
1, 174569, Note_off_c, 1, 80, 0
1, 174570, Note_on_c, 1, 73, 127
1, 174599, Note_off_c, 1, 44, 0
1, 174599, Note_off_c, 1, 63, 0
1, 174599, Note_off_c, 1, 73, 0
1, 174600, Note_on_c, 1, 72, 127
1, 174600, Note_on_c, 1, 63, 127
1, 174629, Note_off_c, 1, 72, 0
1, 174630, Note_on_c, 1, 75, 127
1, 174659, Note_off_c, 1, 63, 0
1, 174659, Note_off_c, 1, 75, 0
1, 174660, Note_on_c, 1, 68, 127
1, 174660, Note_on_c, 1, 71, 127
1, 174660, Note_on_c, 1, 56, 127
1, 174689, Note_off_c, 1, 68, 0
1, 174690, Note_on_c, 1, 66, 127
1, 174719, Note_off_c, 1, 71, 0
1, 174719, Note_off_c, 1, 56, 0
1, 174719, Note_off_c, 1, 66, 0
1, 174720, Note_on_c, 1, 65, 127
1, 174720, Note_on_c, 1, 71, 127
1, 174720, Note_on_c, 1, 49, 127
1, 174749, Note_off_c, 1, 65, 0
1, 174750, Note_on_c, 1, 74, 127
1, 174779, Note_off_c, 1, 71, 0
1, 174779, Note_off_c, 1, 74, 0
1, 174780, Note_on_c, 1, 73, 127
1, 174809, Note_off_c, 1, 73, 0
1, 174810, Note_on_c, 1, 66, 127
1, 174839, Note_off_c, 1, 49, 0
1, 174839, Note_off_c, 1, 66, 0
1, 174840, Note_on_c, 1, 65, 127
1, 174870, Note_on_c, 1, 68, 127
1, 174899, Note_off_c, 1, 65, 0
1, 174899, Note_off_c, 1, 68, 0
1, 174900, Note_on_c, 1, 61, 127
1, 174900, Note_on_c, 1, 73, 127
1, 174900, Note_on_c, 1, 45, 127
1, 174929, Note_off_c, 1, 61, 0
1, 174930, Note_on_c, 1, 59, 127
1, 174959, Note_off_c, 1, 73, 0
1, 174959, Note_off_c, 1, 45, 0
1, 174959, Note_off_c, 1, 59, 0
1, 174960, Note_on_c, 1, 57, 127
1, 174960, Note_on_c, 1, 73, 127
1, 174960, Note_on_c, 1, 50, 127
1, 174989, Note_off_c, 1, 73, 0
1, 174990, Note_on_c, 1, 71, 127
1, 175019, Note_off_c, 1, 57, 0
1, 175019, Note_off_c, 1, 50, 0
1, 175019, Note_off_c, 1, 71, 0
1, 175020, Note_on_c, 1, 74, 127
1, 175020, Note_on_c, 1, 47, 127
1, 175049, Note_off_c, 1, 74, 0
1, 175050, Note_on_c, 1, 73, 127
1, 175079, Note_off_c, 1, 47, 0
1, 175079, Note_off_c, 1, 73, 0
1, 175080, Note_on_c, 1, 65, 127
1, 175080, Note_on_c, 1, 49, 127
1, 175139, Note_off_c, 1, 49, 0
1, 175140, Note_on_c, 1, 37, 127
1, 175169, Note_off_c, 1, 65, 0
1, 175170, Note_on_c, 1, 66, 127
1, 175199, Note_off_c, 1, 37, 0
1, 175199, Note_off_c, 1, 66, 0
1, 175200, Note_on_c, 1, 69, 127
1, 175200, Note_on_c, 1, 66, 127
1, 175200, Note_on_c, 1, 42, 127
1, 175229, Note_off_c, 1, 69, 0
1, 175230, Note_on_c, 1, 71, 127
1, 175259, Note_off_c, 1, 42, 0
1, 175259, Note_off_c, 1, 71, 0
1, 175260, Note_on_c, 1, 73, 127
1, 175260, Note_on_c, 1, 54, 127
1, 175319, Note_off_c, 1, 66, 0
1, 175319, Note_off_c, 1, 54, 0
1, 175320, Note_on_c, 1, 53, 127
1, 175379, Note_off_c, 1, 73, 0
1, 175379, Note_off_c, 1, 53, 0
1, 175380, Note_on_c, 1, 71, 127
1, 175380, Note_on_c, 1, 49, 127
1, 175439, Note_off_c, 1, 71, 0
1, 175439, Note_off_c, 1, 49, 0
1, 175440, Note_on_c, 1, 69, 127
1, 175440, Note_on_c, 1, 54, 127
1, 175499, Note_off_c, 1, 69, 0
1, 175499, Note_off_c, 1, 54, 0
1, 175500, Note_on_c, 1, 68, 127
1, 175500, Note_on_c, 1, 50, 127
1, 175529, Note_off_c, 1, 68, 0
1, 175530, Note_on_c, 1, 66, 127
1, 175559, Note_off_c, 1, 50, 0
1, 175559, Note_off_c, 1, 66, 0
1, 175560, Note_on_c, 1, 68, 127
1, 175560, Note_on_c, 1, 47, 127
1, 175619, Note_off_c, 1, 68, 0
1, 175619, Note_off_c, 1, 47, 0
1, 175620, Note_on_c, 1, 65, 127
1, 175620, Note_on_c, 1, 49, 127
1, 175679, Note_off_c, 1, 65, 0
1, 175679, Note_off_c, 1, 49, 0
1, 175680, Note_on_c, 1, 66, 127
1, 175680, Note_on_c, 1, 42, 127
1, 175709, Note_off_c, 1, 66, 0
1, 175710, Note_on_c, 1, 61, 127
1, 175739, Note_off_c, 1, 61, 0
1, 175770, Note_on_c, 1, 69, 127
1, 175799, Note_off_c, 1, 42, 0
1, 175799, Note_off_c, 1, 69, 0
1, 175800, Note_on_c, 1, 68, 127
1, 175829, Note_off_c, 1, 68, 0
1, 175830, Note_on_c, 1, 66, 127
1, 175859, Note_off_c, 1, 66, 0
1, 175860, Note_on_c, 1, 65, 127
1, 175860, Note_on_c, 1, 54, 127
1, 175889, Note_off_c, 1, 65, 0
1, 175890, Note_on_c, 1, 66, 127
1, 175919, Note_off_c, 1, 54, 0
1, 175919, Note_off_c, 1, 66, 0
1, 175920, Note_on_c, 1, 68, 127
1, 175920, Note_on_c, 1, 53, 127
1, 175949, Note_off_c, 1, 68, 0
1, 175950, Note_on_c, 1, 61, 127
1, 175979, Note_off_c, 1, 61, 0
1, 176010, Note_on_c, 1, 71, 127
1, 176039, Note_off_c, 1, 53, 0
1, 176039, Note_off_c, 1, 71, 0
1, 176040, Note_on_c, 1, 69, 127
1, 176069, Note_off_c, 1, 69, 0
1, 176070, Note_on_c, 1, 68, 127
1, 176099, Note_off_c, 1, 68, 0
1, 176100, Note_on_c, 1, 66, 127
1, 176100, Note_on_c, 1, 49, 127
1, 176129, Note_off_c, 1, 66, 0
1, 176130, Note_on_c, 1, 68, 127
1, 176159, Note_off_c, 1, 49, 0
1, 176159, Note_off_c, 1, 68, 0
1, 176160, Note_on_c, 1, 69, 127
1, 176160, Note_on_c, 1, 42, 127
1, 176219, Note_off_c, 1, 69, 0
1, 176219, Note_off_c, 1, 42, 0
1, 176220, Note_on_c, 1, 71, 127
1, 176220, Note_on_c, 1, 54, 127
1, 176234, Note_off_c, 1, 71, 0
1, 176235, Note_on_c, 1, 73, 127
1, 176249, Note_off_c, 1, 73, 0
1, 176250, Note_on_c, 1, 74, 127
1, 176279, Note_off_c, 1, 54, 0
1, 176280, Note_on_c, 1, 56, 127
1, 176339, Note_off_c, 1, 74, 0
1, 176339, Note_off_c, 1, 56, 0
1, 176340, Note_on_c, 1, 73, 127
1, 176340, Note_on_c, 1, 57, 127
1, 176399, Note_off_c, 1, 73, 0
1, 176399, Note_off_c, 1, 57, 0
1, 176400, Note_on_c, 1, 71, 127
1, 176400, Note_on_c, 1, 56, 127
1, 176459, Note_off_c, 1, 71, 0
1, 176459, Note_off_c, 1, 56, 0
1, 176460, Note_on_c, 1, 69, 127
1, 176460, Note_on_c, 1, 54, 127
1, 176489, Note_off_c, 1, 69, 0
1, 176490, Note_on_c, 1, 68, 127
1, 176519, Note_off_c, 1, 54, 0
1, 176519, Note_off_c, 1, 68, 0
1, 176520, Note_on_c, 1, 76, 127
1, 176520, Note_on_c, 1, 56, 127
1, 176579, Note_off_c, 1, 76, 0
1, 176579, Note_off_c, 1, 56, 0
1, 176580, Note_on_c, 1, 71, 127
1, 176580, Note_on_c, 1, 52, 127
1, 176639, Note_off_c, 1, 71, 0
1, 176639, Note_off_c, 1, 52, 0
1, 176640, Note_on_c, 1, 73, 127
1, 176640, Note_on_c, 1, 57, 127
1, 176669, Note_off_c, 1, 73, 0
1, 176670, Note_on_c, 1, 71, 127
1, 176699, Note_off_c, 1, 57, 0
1, 176699, Note_off_c, 1, 71, 0
1, 176700, Note_on_c, 1, 69, 127
1, 176700, Note_on_c, 1, 59, 127
1, 176729, Note_off_c, 1, 69, 0
1, 176730, Note_on_c, 1, 68, 127
1, 176759, Note_off_c, 1, 59, 0
1, 176759, Note_off_c, 1, 68, 0
1, 176760, Note_on_c, 1, 69, 127
1, 176760, Note_on_c, 1, 61, 127
1, 176789, Note_off_c, 1, 69, 0
1, 176790, Note_on_c, 1, 71, 127
1, 176819, Note_off_c, 1, 61, 0
1, 176819, Note_off_c, 1, 71, 0
1, 176820, Note_on_c, 1, 73, 127
1, 176820, Note_on_c, 1, 59, 127
1, 176849, Note_off_c, 1, 73, 0
1, 176850, Note_on_c, 1, 74, 127
1, 176879, Note_off_c, 1, 59, 0
1, 176879, Note_off_c, 1, 74, 0
1, 176880, Note_on_c, 1, 76, 127
1, 176880, Note_on_c, 1, 58, 127
1, 176909, Note_off_c, 1, 76, 0
1, 176910, Note_on_c, 1, 78, 127
1, 176939, Note_off_c, 1, 58, 0
1, 176939, Note_off_c, 1, 78, 0
1, 176940, Note_on_c, 1, 79, 127
1, 176940, Note_on_c, 1, 59, 127
1, 176999, Note_off_c, 1, 59, 0
1, 177000, Note_on_c, 1, 61, 127
1, 177059, Note_off_c, 1, 79, 0
1, 177059, Note_off_c, 1, 61, 0
1, 177060, Note_on_c, 1, 78, 127
1, 177060, Note_on_c, 1, 58, 127
1, 177119, Note_off_c, 1, 78, 0
1, 177119, Note_off_c, 1, 58, 0
1, 177120, Note_on_c, 1, 76, 127
1, 177120, Note_on_c, 1, 59, 127
1, 177149, Note_off_c, 1, 76, 0
1, 177150, Note_on_c, 1, 74, 127
1, 177179, Note_off_c, 1, 59, 0
1, 177179, Note_off_c, 1, 74, 0
1, 177180, Note_on_c, 1, 73, 127
1, 177180, Note_on_c, 1, 56, 127
1, 177209, Note_off_c, 1, 73, 0
1, 177210, Note_on_c, 1, 71, 127
1, 177239, Note_off_c, 1, 56, 0
1, 177239, Note_off_c, 1, 71, 0
1, 177240, Note_on_c, 1, 80, 127
1, 177240, Note_on_c, 1, 53, 127
1, 177269, Note_off_c, 1, 80, 0
1, 177270, Note_on_c, 1, 71, 127
1, 177299, Note_off_c, 1, 53, 0
1, 177299, Note_off_c, 1, 71, 0
1, 177300, Note_on_c, 1, 73, 127
1, 177300, Note_on_c, 1, 49, 127
1, 177329, Note_off_c, 1, 73, 0
1, 177330, Note_on_c, 1, 68, 127
1, 177359, Note_off_c, 1, 49, 0
1, 177359, Note_off_c, 1, 68, 0
1, 177360, Note_on_c, 1, 69, 127
1, 177360, Note_on_c, 1, 54, 127
1, 177389, Note_off_c, 1, 69, 0
1, 177390, Note_on_c, 1, 65, 127
1, 177419, Note_off_c, 1, 54, 0
1, 177419, Note_off_c, 1, 65, 0
1, 177420, Note_on_c, 1, 66, 127
1, 177420, Note_on_c, 1, 57, 127
1, 177449, Note_off_c, 1, 66, 0
1, 177450, Note_on_c, 1, 74, 127
1, 177479, Note_off_c, 1, 57, 0
1, 177479, Note_off_c, 1, 74, 0
1, 177480, Note_on_c, 1, 71, 127
1, 177480, Note_on_c, 1, 50, 127
1, 177569, Note_off_c, 1, 71, 0
1, 177570, Note_on_c, 1, 73, 127
1, 177599, Note_off_c, 1, 50, 0
1, 177599, Note_off_c, 1, 73, 0
1, 177600, Note_on_c, 1, 73, 127
1, 177600, Note_on_c, 1, 49, 127
1, 177659, Note_off_c, 1, 49, 0
1, 177660, Note_on_c, 1, 51, 127
1, 177719, Note_off_c, 1, 73, 0
1, 177719, Note_off_c, 1, 51, 0
1, 177720, Note_on_c, 1, 53, 127
1, 177750, Note_on_c, 1, 71, 127
1, 177779, Note_off_c, 1, 53, 0
1, 177779, Note_off_c, 1, 71, 0
1, 177780, Note_on_c, 1, 71, 127
1, 177780, Note_on_c, 1, 49, 127
1, 177809, Note_off_c, 1, 71, 0
1, 177810, Note_on_c, 1, 70, 127
1, 177839, Note_off_c, 1, 49, 0
1, 177839, Note_off_c, 1, 70, 0
1, 177840, Note_on_c, 1, 70, 127
1, 177840, Note_on_c, 1, 54, 127
1, 177869, Note_off_c, 1, 70, 0
1, 177870, Note_on_c, 1, 79, 127
1, 177899, Note_off_c, 1, 79, 0
1, 177900, Note_on_c, 1, 78, 127
1, 177929, Note_off_c, 1, 78, 0
1, 177930, Note_on_c, 1, 71, 127
1, 177959, Note_off_c, 1, 54, 0
1, 177959, Note_off_c, 1, 71, 0
1, 177960, Note_on_c, 1, 70, 127
1, 177989, Note_off_c, 1, 70, 0
1, 177990, Note_on_c, 1, 76, 127
1, 178019, Note_off_c, 1, 76, 0
1, 178020, Note_on_c, 1, 74, 127
1, 178020, Note_on_c, 1, 42, 127
1, 178049, Note_off_c, 1, 74, 0
1, 178050, Note_on_c, 1, 73, 127
1, 178079, Note_off_c, 1, 42, 0
1, 178079, Note_off_c, 1, 73, 0
1, 178080, Note_on_c, 1, 74, 127
1, 178080, Note_on_c, 1, 47, 127
1, 178109, Note_off_c, 1, 74, 0
1, 178110, Note_on_c, 1, 73, 127
1, 178139, Note_off_c, 1, 47, 0
1, 178139, Note_off_c, 1, 73, 0
1, 178140, Note_on_c, 1, 71, 127
1, 178140, Note_on_c, 1, 49, 127
1, 178199, Note_off_c, 1, 49, 0
1, 178200, Note_on_c, 1, 50, 127
1, 178229, Note_off_c, 1, 71, 0
1, 178230, Note_on_c, 1, 69, 127
1, 178259, Note_off_c, 1, 50, 0
1, 178259, Note_off_c, 1, 69, 0
1, 178260, Note_on_c, 1, 69, 127
1, 178260, Note_on_c, 1, 47, 127
1, 178289, Note_off_c, 1, 69, 0
1, 178290, Note_on_c, 1, 68, 127
1, 178319, Note_off_c, 1, 47, 0
1, 178319, Note_off_c, 1, 68, 0
1, 178320, Note_on_c, 1, 68, 127
1, 178320, Note_on_c, 1, 53, 127
1, 178349, Note_off_c, 1, 68, 0
1, 178350, Note_on_c, 1, 74, 127
1, 178379, Note_off_c, 1, 74, 0
1, 178380, Note_on_c, 1, 73, 127
1, 178409, Note_off_c, 1, 73, 0
1, 178410, Note_on_c, 1, 66, 127
1, 178439, Note_off_c, 1, 53, 0
1, 178439, Note_off_c, 1, 66, 0
1, 178440, Note_on_c, 1, 65, 127
1, 178469, Note_off_c, 1, 65, 0
1, 178470, Note_on_c, 1, 71, 127
1, 178499, Note_off_c, 1, 71, 0
1, 178500, Note_on_c, 1, 69, 127
1, 178500, Note_on_c, 1, 49, 127
1, 178529, Note_off_c, 1, 69, 0
1, 178530, Note_on_c, 1, 68, 127
1, 178559, Note_off_c, 1, 49, 0
1, 178559, Note_off_c, 1, 68, 0
1, 178560, Note_on_c, 1, 69, 127
1, 178560, Note_on_c, 1, 54, 127
1, 178589, Note_off_c, 1, 69, 0
1, 178590, Note_on_c, 1, 68, 127
1, 178619, Note_off_c, 1, 54, 0
1, 178619, Note_off_c, 1, 68, 0
1, 178620, Note_on_c, 1, 66, 127
1, 178620, Note_on_c, 1, 56, 127
1, 178679, Note_off_c, 1, 56, 0
1, 178680, Note_on_c, 1, 57, 127
1, 178709, Note_off_c, 1, 66, 0
1, 178710, Note_on_c, 1, 73, 127
1, 178739, Note_off_c, 1, 57, 0
1, 178739, Note_off_c, 1, 73, 0
1, 178740, Note_on_c, 1, 73, 127
1, 178740, Note_on_c, 1, 54, 127
1, 178769, Note_off_c, 1, 73, 0
1, 178770, Note_on_c, 1, 72, 127
1, 178799, Note_off_c, 1, 54, 0
1, 178799, Note_off_c, 1, 72, 0
1, 178800, Note_on_c, 1, 72, 127
1, 178800, Note_on_c, 1, 56, 127
1, 178829, Note_off_c, 1, 72, 0
1, 178830, Note_on_c, 1, 81, 127
1, 178859, Note_off_c, 1, 81, 0
1, 178860, Note_on_c, 1, 80, 127
1, 178889, Note_off_c, 1, 80, 0
1, 178890, Note_on_c, 1, 73, 127
1, 178919, Note_off_c, 1, 56, 0
1, 178919, Note_off_c, 1, 73, 0
1, 178920, Note_on_c, 1, 72, 127
1, 178949, Note_off_c, 1, 72, 0
1, 178950, Note_on_c, 1, 75, 127
1, 178979, Note_off_c, 1, 75, 0
1, 178980, Note_on_c, 1, 68, 127
1, 178980, Note_on_c, 1, 44, 127
1, 179009, Note_off_c, 1, 68, 0
1, 179010, Note_on_c, 1, 66, 127
1, 179039, Note_off_c, 1, 44, 0
1, 179039, Note_off_c, 1, 66, 0
1, 179040, Note_on_c, 1, 65, 127
1, 179040, Note_on_c, 1, 49, 127
1, 179069, Note_off_c, 1, 65, 0
1, 179070, Note_on_c, 1, 74, 127
1, 179099, Note_off_c, 1, 74, 0
1, 179100, Note_on_c, 1, 73, 127
1, 179129, Note_off_c, 1, 73, 0
1, 179130, Note_on_c, 1, 66, 127
1, 179159, Note_off_c, 1, 49, 0
1, 179159, Note_off_c, 1, 66, 0
1, 179160, Note_on_c, 1, 65, 127
1, 179189, Note_off_c, 1, 65, 0
1, 179190, Note_on_c, 1, 68, 127
1, 179219, Note_off_c, 1, 68, 0
1, 179220, Note_on_c, 1, 61, 127
1, 179220, Note_on_c, 1, 53, 127
1, 179249, Note_off_c, 1, 61, 0
1, 179250, Note_on_c, 1, 59, 127
1, 179279, Note_off_c, 1, 53, 0
1, 179279, Note_off_c, 1, 59, 0
1, 179280, Note_on_c, 1, 57, 127
1, 179280, Note_on_c, 1, 54, 127
1, 179309, Note_off_c, 1, 57, 0
1, 179310, Note_on_c, 1, 61, 127
1, 179339, Note_off_c, 1, 54, 0
1, 179339, Note_off_c, 1, 61, 0
1, 179340, Note_on_c, 1, 66, 127
1, 179340, Note_on_c, 1, 45, 127
1, 179369, Note_off_c, 1, 66, 0
1, 179370, Note_on_c, 1, 71, 127
1, 179399, Note_off_c, 1, 45, 0
1, 179399, Note_off_c, 1, 71, 0
1, 179400, Note_on_c, 1, 68, 127
1, 179400, Note_on_c, 1, 47, 127
1, 179459, Note_off_c, 1, 47, 0
1, 179460, Note_on_c, 1, 49, 127
1, 179489, Note_off_c, 1, 68, 0
1, 179490, Note_on_c, 1, 66, 127
1, 179519, Note_off_c, 1, 49, 0
1, 179519, Note_off_c, 1, 66, 0
1, 179520, Note_on_c, 1, 66, 127
1, 179520, Note_on_c, 1, 42, 127
1, 179639, Note_off_c, 1, 66, 0
1, 179639, Note_off_c, 1, 42, 0
1, 180000, Note_on_c, 1, 51, 127
1, 180000, Note_on_c, 1, 66, 127
1, 180000, Note_on_c, 1, 72, 127
1, 180000, Note_on_c, 1, 63, 127
1, 180450, Note_on_c, 1, 73, 127
1, 180479, Note_off_c, 1, 73, 0
1, 180480, Note_off_c, 1, 51, 0
1, 180480, Note_off_c, 1, 66, 0
1, 180480, Note_off_c, 1, 72, 0
1, 180480, Note_on_c, 1, 75, 127
1, 180480, Note_on_c, 1, 48, 127
1, 180480, Note_on_c, 1, 68, 127
1, 180509, Note_off_c, 1, 75, 0
1, 180720, Note_off_c, 1, 63, 0
1, 180720, Note_off_c, 1, 48, 0
1, 180720, Note_off_c, 1, 68, 0
1, 180720, Note_on_c, 1, 65, 127
1, 180720, Note_on_c, 1, 47, 127
1, 180720, Note_on_c, 1, 62, 127
1, 180840, Note_on_c, 1, 74, 127
1, 180899, Note_off_c, 1, 74, 0
1, 180960, Note_off_c, 1, 65, 0
1, 180960, Note_off_c, 1, 47, 0
1, 180960, Note_off_c, 1, 62, 0
1, 180960, Note_on_c, 1, 45, 127
1, 180960, Note_on_c, 1, 69, 127
1, 180960, Note_on_c, 1, 64, 127
1, 180960, Note_on_c, 1, 61, 127
1, 181200, Note_off_c, 1, 45, 0
1, 181200, Note_off_c, 1, 69, 0
1, 181200, Note_off_c, 1, 64, 0
1, 181200, Note_off_c, 1, 61, 0
1, 181200, Note_on_c, 1, 50, 127
1, 181200, Note_on_c, 1, 71, 127
1, 181440, Note_off_c, 1, 50, 0
1, 181440, Note_off_c, 1, 71, 0
1, 181440, Note_on_c, 1, 49, 127
1, 181680, Note_off_c, 1, 49, 0
1, 181680, Note_on_c, 1, 46, 127
1, 181680, Note_on_c, 1, 70, 127
1, 182040, Note_on_c, 1, 78, 127
1, 182099, Note_off_c, 1, 78, 0
1, 182280, Note_on_c, 1, 79, 127
1, 182339, Note_off_c, 1, 79, 0
1, 182400, Note_off_c, 1, 46, 0
1, 182400, Note_off_c, 1, 70, 0
1, 183120, Note_on_c, 1, 80, 127
1, 183239, Note_off_c, 1, 80, 0
1, 183600, Note_on_c, 1, 41, 127
1, 183840, Note_off_c, 1, 41, 0
1, 183840, Note_on_c, 1, 42, 127
1, 184080, Note_off_c, 1, 42, 0
1, 184170, Note_on_c, 1, 76, 127
1, 184199, Note_off_c, 1, 76, 0
1, 184320, Note_on_c, 1, 44, 127
1, 184560, Note_off_c, 1, 44, 0
1, 185040, Note_on_c, 1, 40, 127
1, 185040, Note_on_c, 1, 59, 127
1, 185280, Note_off_c, 1, 40, 0
1, 185280, Note_off_c, 1, 59, 0
1, 185520, Note_on_c, 1, 40, 127
1, 185579, Note_off_c, 1, 40, 0
1, 185580, Note_on_c, 1, 44, 127
1, 185639, Note_off_c, 1, 44, 0
1, 185640, Note_on_c, 1, 47, 127
1, 185699, Note_off_c, 1, 47, 0
1, 185700, Note_on_c, 1, 64, 127
1, 185700, Note_on_c, 1, 52, 127
1, 185730, Note_on_c, 1, 68, 127
1, 185759, Note_off_c, 1, 64, 0
1, 185759, Note_off_c, 1, 68, 0
1, 185760, Note_on_c, 1, 71, 127
1, 185789, Note_off_c, 1, 71, 0
1, 185790, Note_on_c, 1, 76, 127
1, 185819, Note_off_c, 1, 76, 0
1, 185820, Note_on_c, 1, 80, 127
1, 185849, Note_off_c, 1, 80, 0
1, 185850, Note_on_c, 1, 83, 127
1, 185879, Note_off_c, 1, 83, 0
1, 185939, Note_off_c, 1, 52, 0
1, 185940, Note_on_c, 1, 78, 127
1, 185940, Note_on_c, 1, 51, 127
1, 185999, Note_off_c, 1, 78, 0
1, 185999, Note_off_c, 1, 51, 0
1, 186000, Note_on_c, 1, 81, 127
1, 186000, Note_on_c, 1, 49, 127
1, 186059, Note_off_c, 1, 49, 0
1, 186060, Note_on_c, 1, 47, 127
1, 186090, Note_on_c, 1, 75, 127
1, 186119, Note_off_c, 1, 81, 0
1, 186120, Note_off_c, 1, 75, 0
1, 186120, Note_on_c, 1, 73, 127
1, 186150, Note_off_c, 1, 73, 0
1, 186179, Note_off_c, 1, 47, 0
1, 186180, Note_on_c, 1, 45, 127
1, 186180, Note_on_c, 1, 69, 127
1, 186210, Note_off_c, 1, 69, 0
1, 186239, Note_off_c, 1, 45, 0
1, 186240, Note_on_c, 1, 66, 127
1, 186299, Note_off_c, 1, 66, 0
1, 186360, Note_on_c, 1, 71, 127
1, 186360, Note_on_c, 1, 51, 127
1, 186360, Note_on_c, 1, 63, 127
1, 186389, Note_off_c, 1, 71, 0
1, 186390, Note_on_c, 1, 69, 127
1, 186419, Note_off_c, 1, 51, 0
1, 186419, Note_off_c, 1, 63, 0
1, 186419, Note_off_c, 1, 69, 0
1, 186420, Note_on_c, 1, 68, 127
1, 186420, Note_on_c, 1, 52, 127
1, 186450, Note_on_c, 1, 71, 127
1, 186479, Note_off_c, 1, 68, 0
1, 186479, Note_off_c, 1, 52, 0
1, 186479, Note_off_c, 1, 71, 0
1, 186480, Note_on_c, 1, 76, 127
1, 186480, Note_on_c, 1, 56, 127
1, 186480, Note_on_c, 1, 71, 127
1, 186509, Note_off_c, 1, 76, 0
1, 186510, Note_on_c, 1, 80, 127
1, 186539, Note_off_c, 1, 56, 0
1, 186539, Note_off_c, 1, 71, 0
1, 186539, Note_off_c, 1, 80, 0
1, 186540, Note_on_c, 1, 83, 127
1, 186540, Note_on_c, 1, 52, 127
1, 186540, Note_on_c, 1, 68, 127
1, 186569, Note_off_c, 1, 83, 0
1, 186570, Note_on_c, 1, 86, 127
1, 186599, Note_off_c, 1, 52, 0
1, 186599, Note_off_c, 1, 68, 0
1, 186599, Note_off_c, 1, 86, 0
1, 186600, Note_on_c, 1, 85, 127
1, 186600, Note_on_c, 1, 57, 127
1, 186600, Note_on_c, 1, 64, 127
1, 186629, Note_off_c, 1, 85, 0
1, 186630, Note_on_c, 1, 80, 127
1, 186659, Note_off_c, 1, 80, 0
1, 186660, Note_on_c, 1, 81, 127
1, 186660, Note_on_c, 1, 69, 127
1, 186689, Note_off_c, 1, 81, 0
1, 186690, Note_on_c, 1, 76, 127
1, 186719, Note_off_c, 1, 76, 0
1, 186720, Note_on_c, 1, 73, 127
1, 186780, Note_on_c, 1, 66, 127
1, 186809, Note_off_c, 1, 66, 0
1, 186839, Note_off_c, 1, 57, 0
1, 186839, Note_off_c, 1, 64, 0
1, 186840, Note_off_c, 1, 73, 0
1, 186840, Note_on_c, 1, 75, 127
1, 186840, Note_on_c, 1, 54, 127
1, 186869, Note_off_c, 1, 75, 0
1, 186870, Note_off_c, 1, 69, 0
1, 186870, Note_on_c, 1, 78, 127
1, 186870, Note_on_c, 1, 68, 127
1, 186899, Note_off_c, 1, 54, 0
1, 186899, Note_off_c, 1, 78, 0
1, 186900, Note_off_c, 1, 68, 0
1, 186900, Note_on_c, 1, 51, 127
1, 186959, Note_off_c, 1, 51, 0
1, 186960, Note_on_c, 1, 83, 127
1, 186960, Note_on_c, 1, 56, 127
1, 186960, Note_on_c, 1, 63, 127
1, 186989, Note_off_c, 1, 83, 0
1, 187080, Note_on_c, 1, 71, 127
1, 187199, Note_off_c, 1, 56, 0
1, 187199, Note_off_c, 1, 63, 0
1, 187200, Note_off_c, 1, 71, 0
1, 187200, Note_on_c, 1, 52, 127
1, 187259, Note_off_c, 1, 52, 0
1, 187260, Note_on_c, 1, 49, 127
1, 187319, Note_off_c, 1, 49, 0
1, 187320, Note_on_c, 1, 61, 127
1, 187559, Note_off_c, 1, 61, 0
1, 187620, Note_on_c, 1, 78, 127
1, 187620, Note_on_c, 1, 47, 127
1, 187620, Note_on_c, 1, 66, 127
1, 187649, Note_off_c, 1, 78, 0
1, 187650, Note_on_c, 1, 81, 127
1, 187679, Note_off_c, 1, 47, 0
1, 187679, Note_off_c, 1, 66, 0
1, 187679, Note_off_c, 1, 81, 0
1, 187680, Note_on_c, 1, 80, 127
1, 187680, Note_on_c, 1, 52, 127
1, 187680, Note_on_c, 1, 64, 127
1, 187680, Note_on_c, 1, 68, 127
1, 187709, Note_off_c, 1, 80, 0
1, 187710, Note_on_c, 1, 75, 127
1, 187739, Note_off_c, 1, 75, 0
1, 187740, Note_on_c, 1, 76, 127
1, 187769, Note_off_c, 1, 76, 0
1, 187770, Note_on_c, 1, 71, 127
1, 187799, Note_off_c, 1, 71, 0
1, 187860, Note_on_c, 1, 74, 127
1, 187889, Note_off_c, 1, 74, 0
1, 187919, Note_off_c, 1, 52, 0
1, 187919, Note_off_c, 1, 64, 0
1, 187919, Note_off_c, 1, 68, 0
1, 187920, Note_on_c, 1, 80, 127
1, 187920, Note_on_c, 1, 40, 127
1, 187920, Note_on_c, 1, 68, 127
1, 187949, Note_off_c, 1, 80, 0
1, 187950, Note_on_c, 1, 74, 127
1, 187979, Note_off_c, 1, 40, 0
1, 187979, Note_off_c, 1, 68, 0
1, 187979, Note_off_c, 1, 74, 0
1, 187980, Note_on_c, 1, 83, 127
1, 187980, Note_on_c, 1, 44, 127
1, 187980, Note_on_c, 1, 71, 127
1, 188009, Note_off_c, 1, 83, 0
1, 188010, Note_on_c, 1, 74, 127
1, 188039, Note_off_c, 1, 44, 0
1, 188039, Note_off_c, 1, 71, 0
1, 188039, Note_off_c, 1, 74, 0
1, 188040, Note_on_c, 1, 73, 127
1, 188040, Note_on_c, 1, 45, 127
1, 188040, Note_on_c, 1, 64, 127
1, 188040, Note_on_c, 1, 69, 127
1, 188069, Note_off_c, 1, 73, 0
1, 188070, Note_on_c, 1, 71, 127
1, 188099, Note_off_c, 1, 71, 0
1, 188220, Note_on_c, 1, 76, 127
1, 188249, Note_off_c, 1, 76, 0
1, 188279, Note_off_c, 1, 45, 0
1, 188279, Note_off_c, 1, 64, 0
1, 188279, Note_off_c, 1, 69, 0
1, 188280, Note_on_c, 1, 82, 127
1, 188280, Note_on_c, 1, 49, 127
1, 188280, Note_on_c, 1, 70, 127
1, 188309, Note_off_c, 1, 82, 0
1, 188310, Note_on_c, 1, 76, 127
1, 188339, Note_off_c, 1, 49, 0
1, 188339, Note_off_c, 1, 70, 0
1, 188339, Note_off_c, 1, 76, 0
1, 188340, Note_on_c, 1, 85, 127
1, 188340, Note_on_c, 1, 42, 127
1, 188340, Note_on_c, 1, 73, 127
1, 188369, Note_off_c, 1, 85, 0
1, 188370, Note_on_c, 1, 76, 127
1, 188399, Note_off_c, 1, 42, 0
1, 188399, Note_off_c, 1, 73, 0
1, 188399, Note_off_c, 1, 76, 0
1, 188400, Note_on_c, 1, 75, 127
1, 188400, Note_on_c, 1, 47, 127
1, 188400, Note_on_c, 1, 63, 127
1, 188429, Note_off_c, 1, 75, 0
1, 188430, Note_on_c, 1, 73, 127
1, 188459, Note_off_c, 1, 73, 0
1, 188460, Note_on_c, 1, 71, 127
1, 188460, Note_on_c, 1, 66, 127
1, 188489, Note_off_c, 1, 71, 0
1, 188580, Note_on_c, 1, 78, 127
1, 188609, Note_off_c, 1, 78, 0
1, 188610, Note_on_c, 1, 69, 127
1, 188639, Note_off_c, 1, 47, 0
1, 188639, Note_off_c, 1, 63, 0
1, 188639, Note_off_c, 1, 69, 0
1, 188640, Note_off_c, 1, 66, 0
1, 188640, Note_on_c, 1, 83, 127
1, 188640, Note_on_c, 1, 51, 127
1, 188669, Note_off_c, 1, 83, 0
1, 188699, Note_off_c, 1, 51, 0
1, 188700, Note_on_c, 1, 87, 127
1, 188700, Note_on_c, 1, 54, 127
1, 188729, Note_off_c, 1, 87, 0
1, 188730, Note_on_c, 1, 69, 127
1, 188759, Note_off_c, 1, 54, 0
1, 188759, Note_off_c, 1, 69, 0
1, 188760, Note_on_c, 1, 88, 127
1, 188760, Note_on_c, 1, 47, 127
1, 188760, Note_on_c, 1, 64, 127
1, 188789, Note_off_c, 1, 88, 0
1, 188790, Note_on_c, 1, 83, 127
1, 188819, Note_off_c, 1, 83, 0
1, 188820, Note_on_c, 1, 80, 127
1, 188820, Note_on_c, 1, 68, 127
1, 188849, Note_off_c, 1, 80, 0
1, 188850, Note_on_c, 1, 78, 127
1, 188879, Note_off_c, 1, 78, 0
1, 188880, Note_on_c, 1, 76, 127
1, 188880, Note_on_c, 1, 71, 127
1, 188909, Note_off_c, 1, 76, 0
1, 188999, Note_off_c, 1, 47, 0
1, 188999, Note_off_c, 1, 64, 0
1, 189000, Note_off_c, 1, 68, 0
1, 189000, Note_off_c, 1, 71, 0
1, 189000, Note_on_c, 1, 52, 127
1, 189059, Note_off_c, 1, 52, 0
1, 189060, Note_on_c, 1, 88, 127
1, 189060, Note_on_c, 1, 56, 127
1, 189089, Note_off_c, 1, 88, 0
1, 189090, Note_on_c, 1, 83, 127
1, 189119, Note_off_c, 1, 56, 0
1, 189119, Note_off_c, 1, 83, 0
1, 189120, Note_on_c, 1, 90, 127
1, 189120, Note_on_c, 1, 47, 127
1, 189120, Note_on_c, 1, 63, 127
1, 189149, Note_off_c, 1, 90, 0
1, 189150, Note_on_c, 1, 87, 127
1, 189179, Note_off_c, 1, 87, 0
1, 189180, Note_on_c, 1, 81, 127
1, 189180, Note_on_c, 1, 66, 127
1, 189209, Note_off_c, 1, 81, 0
1, 189210, Note_on_c, 1, 80, 127
1, 189239, Note_off_c, 1, 80, 0
1, 189240, Note_on_c, 1, 78, 127
1, 189240, Note_on_c, 1, 71, 127
1, 189269, Note_off_c, 1, 78, 0
1, 189359, Note_off_c, 1, 47, 0
1, 189359, Note_off_c, 1, 63, 0
1, 189360, Note_off_c, 1, 66, 0
1, 189360, Note_off_c, 1, 71, 0
1, 189360, Note_on_c, 1, 54, 127
1, 189419, Note_off_c, 1, 54, 0
1, 189420, Note_on_c, 1, 90, 127
1, 189420, Note_on_c, 1, 59, 127
1, 189449, Note_off_c, 1, 90, 0
1, 189450, Note_on_c, 1, 87, 127
1, 189479, Note_off_c, 1, 59, 0
1, 189479, Note_off_c, 1, 87, 0
1, 189480, Note_on_c, 1, 92, 127
1, 189480, Note_on_c, 1, 52, 127
1, 189480, Note_on_c, 1, 68, 127
1, 189509, Note_off_c, 1, 92, 0
1, 189510, Note_on_c, 1, 87, 127
1, 189539, Note_off_c, 1, 52, 0
1, 189539, Note_off_c, 1, 68, 0
1, 189539, Note_off_c, 1, 87, 0
1, 189540, Note_on_c, 1, 88, 127
1, 189540, Note_on_c, 1, 56, 127
1, 189540, Note_on_c, 1, 64, 127
1, 189569, Note_off_c, 1, 88, 0
1, 189570, Note_on_c, 1, 83, 127
1, 189599, Note_off_c, 1, 56, 0
1, 189599, Note_off_c, 1, 64, 0
1, 189599, Note_off_c, 1, 83, 0
1, 189600, Note_on_c, 1, 80, 127
1, 189600, Note_on_c, 1, 57, 127
1, 189600, Note_on_c, 1, 73, 127
1, 189629, Note_off_c, 1, 80, 0
1, 189630, Note_on_c, 1, 76, 127
1, 189659, Note_off_c, 1, 57, 0
1, 189659, Note_off_c, 1, 73, 0
1, 189659, Note_off_c, 1, 76, 0
1, 189660, Note_on_c, 1, 71, 127
1, 189660, Note_on_c, 1, 59, 127
1, 189660, Note_on_c, 1, 68, 127
1, 189690, Note_on_c, 1, 73, 127
1, 189704, Note_off_c, 1, 73, 0
1, 189705, Note_on_c, 1, 75, 127
1, 189719, Note_off_c, 1, 75, 0
1, 189720, Note_on_c, 1, 76, 127
1, 189734, Note_off_c, 1, 76, 0
1, 189735, Note_on_c, 1, 78, 127
1, 189749, Note_off_c, 1, 78, 0
1, 189750, Note_on_c, 1, 80, 127
1, 189764, Note_off_c, 1, 80, 0
1, 189765, Note_on_c, 1, 81, 127
1, 189779, Note_off_c, 1, 71, 0
1, 189779, Note_off_c, 1, 59, 0
1, 189779, Note_off_c, 1, 68, 0
1, 189779, Note_off_c, 1, 81, 0
1, 189780, Note_on_c, 1, 83, 127
1, 189780, Note_on_c, 1, 47, 127
1, 189780, Note_on_c, 1, 69, 127
1, 189780, Note_on_c, 1, 66, 127
1, 189794, Note_off_c, 1, 83, 0
1, 189795, Note_on_c, 1, 85, 127
1, 189809, Note_off_c, 1, 85, 0
1, 189810, Note_on_c, 1, 87, 127
1, 189839, Note_off_c, 1, 47, 0
1, 189839, Note_off_c, 1, 69, 0
1, 189839, Note_off_c, 1, 66, 0
1, 189839, Note_off_c, 1, 87, 0
1, 189840, Note_on_c, 1, 88, 127
1, 189840, Note_on_c, 1, 40, 127
1, 189840, Note_on_c, 1, 68, 127
1, 189840, Note_on_c, 1, 64, 127
1, 189869, Note_off_c, 1, 88, 0
1, 189870, Note_on_c, 1, 83, 127
1, 189899, Note_off_c, 1, 40, 0
1, 189899, Note_off_c, 1, 83, 0
1, 189900, Note_on_c, 1, 80, 127
1, 189900, Note_on_c, 1, 44, 127
1, 189929, Note_off_c, 1, 80, 0
1, 189930, Note_on_c, 1, 76, 127
1, 189959, Note_off_c, 1, 44, 0
1, 189959, Note_off_c, 1, 76, 0
1, 189960, Note_on_c, 1, 71, 127
1, 189960, Note_on_c, 1, 47, 127
1, 189989, Note_off_c, 1, 71, 0
1, 190019, Note_off_c, 1, 47, 0
1, 190020, Note_off_c, 1, 68, 0
1, 190020, Note_on_c, 1, 52, 127
1, 190080, Note_on_c, 1, 69, 127
1, 190109, Note_off_c, 1, 69, 0
1, 190139, Note_off_c, 1, 52, 0
1, 190140, Note_on_c, 1, 54, 127
1, 190170, Note_on_c, 1, 73, 127
1, 190199, Note_off_c, 1, 54, 0
1, 190199, Note_off_c, 1, 73, 0
1, 190200, Note_on_c, 1, 56, 127
1, 190259, Note_off_c, 1, 56, 0
1, 190290, Note_on_c, 1, 51, 127
1, 190319, Note_off_c, 1, 51, 0
1, 190320, Note_on_c, 1, 75, 127
1, 190350, Note_on_c, 1, 66, 127
1, 190379, Note_off_c, 1, 75, 0
1, 190380, Note_off_c, 1, 66, 0
1, 190380, Note_on_c, 1, 57, 127
1, 190439, Note_off_c, 1, 57, 0
1, 190980, Note_on_c, 1, 78, 127
1, 191040, Note_off_c, 1, 64, 0
1, 191040, Note_off_c, 1, 78, 0
1, 191040, Note_on_c, 1, 81, 127
1, 191160, Note_off_c, 1, 81, 0
1, 191220, Note_on_c, 1, 45, 127
1, 191279, Note_off_c, 1, 45, 0
1, 191460, Note_on_c, 1, 59, 127
1, 191460, Note_on_c, 1, 63, 127
1, 191519, Note_off_c, 1, 59, 0
1, 191640, Note_off_c, 1, 63, 0
1, 192000, Note_on_c, 1, 78, 127
1, 192000, Note_on_c, 1, 47, 127
1, 192029, Note_off_c, 1, 78, 0
1, 192030, Note_on_c, 1, 75, 127
1, 192059, Note_off_c, 1, 75, 0
1, 192060, Note_on_c, 1, 69, 127
1, 192060, Note_on_c, 1, 66, 127
1, 192089, Note_off_c, 1, 69, 0
1, 192090, Note_on_c, 1, 68, 127
1, 192119, Note_off_c, 1, 68, 0
1, 192150, Note_on_c, 1, 59, 127
1, 192179, Note_off_c, 1, 59, 0
1, 192239, Note_off_c, 1, 47, 0
1, 192240, Note_on_c, 1, 54, 127
1, 192299, Note_off_c, 1, 66, 0
1, 192299, Note_off_c, 1, 54, 0
1, 192360, Note_on_c, 1, 80, 127
1, 192360, Note_on_c, 1, 52, 127
1, 192360, Note_on_c, 1, 71, 127
1, 192360, Note_on_c, 1, 68, 127
1, 192389, Note_off_c, 1, 80, 0
1, 192390, Note_on_c, 1, 75, 127
1, 192419, Note_off_c, 1, 52, 0
1, 192419, Note_off_c, 1, 75, 0
1, 192420, Note_on_c, 1, 76, 127
1, 192420, Note_on_c, 1, 56, 127
1, 192449, Note_off_c, 1, 76, 0
1, 192479, Note_off_c, 1, 56, 0
1, 192480, Note_off_c, 1, 71, 0
1, 192480, Note_on_c, 1, 57, 127
1, 192480, Note_on_c, 1, 73, 127
1, 192480, Note_on_c, 1, 69, 127
1, 192509, Note_off_c, 1, 68, 0
1, 192510, Note_on_c, 1, 64, 127
1, 192539, Note_off_c, 1, 57, 0
1, 192539, Note_off_c, 1, 73, 0
1, 192539, Note_off_c, 1, 69, 0
1, 192539, Note_off_c, 1, 64, 0
1, 192540, Note_on_c, 1, 59, 127
1, 192540, Note_on_c, 1, 71, 127
1, 192540, Note_on_c, 1, 66, 127
1, 192540, Note_on_c, 1, 63, 127
1, 192570, Note_on_c, 1, 61, 127
1, 192584, Note_off_c, 1, 61, 0
1, 192600, Note_on_c, 1, 64, 127
1, 192614, Note_off_c, 1, 64, 0
1, 192630, Note_on_c, 1, 68, 127
1, 192644, Note_off_c, 1, 68, 0
1, 192645, Note_on_c, 1, 69, 127
1, 192659, Note_off_c, 1, 59, 0
1, 192659, Note_off_c, 1, 71, 0
1, 192659, Note_off_c, 1, 66, 0
1, 192659, Note_off_c, 1, 63, 0
1, 192659, Note_off_c, 1, 69, 0
1, 192660, Note_on_c, 1, 71, 127
1, 192660, Note_on_c, 1, 47, 127
1, 192660, Note_on_c, 1, 63, 127
1, 192660, Note_on_c, 1, 69, 127
1, 192660, Note_on_c, 1, 66, 127
1, 192674, Note_off_c, 1, 71, 0
1, 192675, Note_on_c, 1, 73, 127
1, 192689, Note_off_c, 1, 73, 0
1, 192690, Note_on_c, 1, 75, 127
1, 192719, Note_off_c, 1, 47, 0
1, 192719, Note_off_c, 1, 63, 0
1, 192719, Note_off_c, 1, 69, 0
1, 192719, Note_off_c, 1, 66, 0
1, 192719, Note_off_c, 1, 75, 0
1, 192720, Note_on_c, 1, 76, 127
1, 192720, Note_on_c, 1, 52, 127
1, 192720, Note_on_c, 1, 68, 127
1, 192720, Note_on_c, 1, 64, 127
1, 192749, Note_off_c, 1, 76, 0
1, 192750, Note_on_c, 1, 71, 127
1, 192779, Note_off_c, 1, 52, 0
1, 192779, Note_off_c, 1, 71, 0
1, 192780, Note_on_c, 1, 47, 127
1, 192839, Note_off_c, 1, 47, 0
1, 192840, Note_on_c, 1, 44, 127
1, 192870, Note_on_c, 1, 78, 127
1, 192899, Note_off_c, 1, 44, 0
1, 192899, Note_off_c, 1, 78, 0
1, 192900, Note_off_c, 1, 68, 0
1, 192900, Note_off_c, 1, 64, 0
1, 192900, Note_on_c, 1, 80, 127
1, 192900, Note_on_c, 1, 40, 127
1, 192959, Note_off_c, 1, 80, 0
1, 192960, Note_on_c, 1, 69, 127
1, 192960, Note_on_c, 1, 59, 127
1, 192989, Note_off_c, 1, 69, 0
1, 193050, Note_on_c, 1, 81, 127
1, 193050, Note_on_c, 1, 73, 127
1, 193079, Note_off_c, 1, 81, 0
1, 193079, Note_off_c, 1, 73, 0
1, 193110, Note_on_c, 1, 85, 127
1, 193139, Note_off_c, 1, 85, 0
1, 193140, Note_on_c, 1, 83, 127
1, 193169, Note_off_c, 1, 83, 0
1, 193200, Note_on_c, 1, 75, 127
1, 193259, Note_off_c, 1, 75, 0
1, 193500, Note_off_c, 1, 40, 0
1, 193560, Note_off_c, 1, 59, 0
1, 193560, Note_on_c, 1, 66, 127
1, 193589, Note_off_c, 1, 66, 0
1, 193680, Note_on_c, 1, 56, 127
1, 193739, Note_off_c, 1, 56, 0
1, 193740, Note_on_c, 1, 54, 127
1, 193799, Note_off_c, 1, 54, 0
1, 193920, Note_on_c, 1, 81, 127
1, 193920, Note_on_c, 1, 73, 127
1, 193920, Note_on_c, 1, 51, 127
1, 193920, Note_on_c, 1, 66, 127
1, 193920, Note_on_c, 1, 69, 127
1, 193979, Note_off_c, 1, 51, 0
1, 193979, Note_off_c, 1, 66, 0
1, 193979, Note_off_c, 1, 69, 0
1, 193980, Note_on_c, 1, 52, 127
1, 193980, Note_on_c, 1, 71, 127
1, 193980, Note_on_c, 1, 68, 127
1, 194039, Note_off_c, 1, 81, 0
1, 194039, Note_off_c, 1, 73, 0
1, 194040, Note_on_c, 1, 80, 127
1, 194099, Note_off_c, 1, 52, 0
1, 194099, Note_off_c, 1, 71, 0
1, 194099, Note_off_c, 1, 68, 0
1, 194099, Note_off_c, 1, 80, 0
1, 194100, Note_on_c, 1, 78, 127
1, 194100, Note_on_c, 1, 69, 127
1, 194100, Note_on_c, 1, 45, 127
1, 194100, Note_on_c, 1, 66, 127
1, 194159, Note_off_c, 1, 78, 0
1, 194159, Note_off_c, 1, 69, 0
1, 194159, Note_off_c, 1, 45, 0
1, 194159, Note_off_c, 1, 66, 0
1, 194160, Note_on_c, 1, 75, 127
1, 194160, Note_on_c, 1, 66, 127
1, 194160, Note_on_c, 1, 47, 127
1, 194160, Note_on_c, 1, 69, 127
1, 194160, Note_on_c, 1, 63, 127
1, 194189, Note_off_c, 1, 75, 0
1, 194190, Note_on_c, 1, 80, 127
1, 194219, Note_off_c, 1, 47, 0
1, 194219, Note_off_c, 1, 80, 0
1, 194220, Note_on_c, 1, 78, 127
1, 194220, Note_on_c, 1, 51, 127
1, 194249, Note_off_c, 1, 78, 0
1, 194250, Note_on_c, 1, 76, 127
1, 194279, Note_off_c, 1, 66, 0
1, 194279, Note_off_c, 1, 51, 0
1, 194279, Note_off_c, 1, 76, 0
1, 194280, Note_on_c, 1, 54, 127
1, 194310, Note_on_c, 1, 73, 127
1, 194339, Note_off_c, 1, 54, 0
1, 194339, Note_off_c, 1, 73, 0
1, 194340, Note_off_c, 1, 69, 0
1, 194340, Note_off_c, 1, 63, 0
1, 194340, Note_on_c, 1, 71, 127
1, 194340, Note_on_c, 1, 59, 127
1, 194400, Note_on_c, 1, 68, 127
1, 194459, Note_off_c, 1, 71, 0
1, 194459, Note_off_c, 1, 59, 0
1, 194459, Note_off_c, 1, 68, 0
1, 194460, Note_on_c, 1, 69, 127
1, 194460, Note_on_c, 1, 57, 127
1, 194519, Note_off_c, 1, 69, 0
1, 194519, Note_off_c, 1, 57, 0
1, 194520, Note_on_c, 1, 71, 127
1, 194520, Note_on_c, 1, 56, 127
1, 194550, Note_on_c, 1, 74, 127
1, 194579, Note_off_c, 1, 71, 0
1, 194579, Note_off_c, 1, 74, 0
1, 194580, Note_on_c, 1, 73, 127
1, 194639, Note_off_c, 1, 56, 0
1, 194639, Note_off_c, 1, 73, 0
1, 194640, Note_on_c, 1, 69, 127
1, 194640, Note_on_c, 1, 74, 127
1, 194640, Note_on_c, 1, 54, 127
1, 194669, Note_off_c, 1, 69, 0
1, 194670, Note_on_c, 1, 68, 127
1, 194699, Note_off_c, 1, 54, 0
1, 194699, Note_off_c, 1, 68, 0
1, 194700, Note_on_c, 1, 80, 127
1, 194700, Note_on_c, 1, 53, 127
1, 194759, Note_off_c, 1, 74, 0
1, 194760, Note_on_c, 1, 73, 127
1, 194819, Note_off_c, 1, 53, 0
1, 194819, Note_off_c, 1, 73, 0
1, 194820, Note_on_c, 1, 71, 127
1, 194820, Note_on_c, 1, 49, 127
1, 194879, Note_off_c, 1, 80, 0
1, 194879, Note_off_c, 1, 71, 0
1, 194879, Note_off_c, 1, 49, 0
1, 194880, Note_on_c, 1, 69, 127
1, 194880, Note_on_c, 1, 54, 127
1, 194910, Note_on_c, 1, 73, 127
1, 194939, Note_off_c, 1, 69, 0
1, 194939, Note_off_c, 1, 73, 0
1, 194940, Note_on_c, 1, 71, 127
1, 194940, Note_on_c, 1, 78, 127
1, 194969, Note_off_c, 1, 71, 0
1, 194999, Note_off_c, 1, 54, 0
1, 194999, Note_off_c, 1, 78, 0
1, 195000, Note_on_c, 1, 68, 127
1, 195000, Note_on_c, 1, 76, 127
1, 195000, Note_on_c, 1, 56, 127
1, 195029, Note_off_c, 1, 68, 0
1, 195030, Note_on_c, 1, 66, 127
1, 195059, Note_off_c, 1, 76, 0
1, 195059, Note_off_c, 1, 56, 0
1, 195059, Note_off_c, 1, 66, 0
1, 195060, Note_on_c, 1, 78, 127
1, 195060, Note_on_c, 1, 75, 127
1, 195060, Note_on_c, 1, 57, 127
1, 195119, Note_off_c, 1, 75, 0
1, 195120, Note_on_c, 1, 73, 127
1, 195149, Note_off_c, 1, 73, 0
1, 195150, Note_on_c, 1, 72, 127
1, 195179, Note_off_c, 1, 57, 0
1, 195179, Note_off_c, 1, 72, 0
1, 195180, Note_on_c, 1, 54, 127
1, 195239, Note_off_c, 1, 78, 0
1, 195239, Note_off_c, 1, 54, 0
1, 195240, Note_on_c, 1, 68, 127
1, 195240, Note_on_c, 1, 47, 127
1, 195270, Note_on_c, 1, 75, 127
1, 195299, Note_off_c, 1, 47, 0
1, 195299, Note_off_c, 1, 75, 0
1, 195300, Note_on_c, 1, 73, 127
1, 195300, Note_on_c, 1, 48, 127
1, 195329, Note_off_c, 1, 73, 0
1, 195330, Note_on_c, 1, 72, 127
1, 195359, Note_off_c, 1, 48, 0
1, 195359, Note_off_c, 1, 72, 0
1, 195360, Note_on_c, 1, 70, 127
1, 195389, Note_off_c, 1, 70, 0
1, 195420, Note_on_c, 1, 66, 127
1, 195420, Note_on_c, 1, 44, 127
1, 195449, Note_off_c, 1, 66, 0
1, 195450, Note_on_c, 1, 69, 127
1, 195479, Note_off_c, 1, 44, 0
1, 195479, Note_off_c, 1, 69, 0
1, 195540, Note_on_c, 1, 64, 127
1, 195569, Note_off_c, 1, 64, 0
1, 195570, Note_on_c, 1, 63, 127
1, 195599, Note_off_c, 1, 63, 0
1, 195600, Note_on_c, 1, 49, 127
1, 195719, Note_off_c, 1, 68, 0
1, 195719, Note_off_c, 1, 49, 0
1, 195720, Note_on_c, 1, 63, 127
1, 195720, Note_on_c, 1, 68, 127
1, 195720, Note_on_c, 1, 47, 127
1, 195749, Note_off_c, 1, 63, 0
1, 195750, Note_on_c, 1, 61, 127
1, 195779, Note_off_c, 1, 68, 0
1, 195779, Note_off_c, 1, 47, 0
1, 195779, Note_off_c, 1, 61, 0
1, 195780, Note_on_c, 1, 76, 127
1, 195780, Note_on_c, 1, 46, 127
1, 195839, Note_off_c, 1, 76, 0
1, 195839, Note_off_c, 1, 46, 0
1, 195840, Note_on_c, 1, 75, 127
1, 195840, Note_on_c, 1, 54, 127
1, 195899, Note_off_c, 1, 75, 0
1, 195899, Note_off_c, 1, 54, 0
1, 195900, Note_on_c, 1, 73, 127
1, 195900, Note_on_c, 1, 52, 127
1, 195959, Note_off_c, 1, 73, 0
1, 195959, Note_off_c, 1, 52, 0
1, 195960, Note_on_c, 1, 78, 127
1, 195960, Note_on_c, 1, 51, 127
1, 196019, Note_off_c, 1, 78, 0
1, 196019, Note_off_c, 1, 51, 0
1, 196020, Note_on_c, 1, 76, 127
1, 196020, Note_on_c, 1, 56, 127
1, 196079, Note_off_c, 1, 76, 0
1, 196079, Note_off_c, 1, 56, 0
1, 196080, Note_on_c, 1, 75, 127
1, 196080, Note_on_c, 1, 54, 127
1, 196139, Note_off_c, 1, 75, 0
1, 196139, Note_off_c, 1, 54, 0
1, 196140, Note_on_c, 1, 80, 127
1, 196140, Note_on_c, 1, 52, 127
1, 196199, Note_off_c, 1, 80, 0
1, 196199, Note_off_c, 1, 52, 0
1, 196200, Note_on_c, 1, 78, 127
1, 196200, Note_on_c, 1, 49, 127
1, 196229, Note_off_c, 1, 78, 0
1, 196230, Note_on_c, 1, 76, 127
1, 196259, Note_off_c, 1, 49, 0
1, 196259, Note_off_c, 1, 76, 0
1, 196260, Note_on_c, 1, 75, 127
1, 196260, Note_on_c, 1, 52, 127
1, 196289, Note_off_c, 1, 75, 0
1, 196290, Note_on_c, 1, 73, 127
1, 196319, Note_off_c, 1, 52, 0
1, 196319, Note_off_c, 1, 73, 0
1, 196320, Note_on_c, 1, 70, 127
1, 196320, Note_on_c, 1, 54, 127
1, 196350, Note_on_c, 1, 61, 127
1, 196379, Note_off_c, 1, 54, 0
1, 196379, Note_off_c, 1, 61, 0
1, 196380, Note_on_c, 1, 66, 127
1, 196380, Note_on_c, 1, 49, 127
1, 196409, Note_off_c, 1, 66, 0
1, 196410, Note_on_c, 1, 68, 127
1, 196439, Note_off_c, 1, 70, 0
1, 196439, Note_off_c, 1, 49, 0
1, 196439, Note_off_c, 1, 68, 0
1, 196440, Note_on_c, 1, 70, 127
1, 196440, Note_on_c, 1, 66, 127
1, 196440, Note_on_c, 1, 46, 127
1, 196469, Note_off_c, 1, 70, 0
1, 196470, Note_on_c, 1, 71, 127
1, 196499, Note_off_c, 1, 66, 0
1, 196499, Note_off_c, 1, 46, 0
1, 196499, Note_off_c, 1, 71, 0
1, 196500, Note_on_c, 1, 73, 127
1, 196500, Note_on_c, 1, 42, 127
1, 196529, Note_off_c, 1, 73, 0
1, 196530, Note_on_c, 1, 75, 127
1, 196559, Note_off_c, 1, 42, 0
1, 196559, Note_off_c, 1, 75, 0
1, 196560, Note_on_c, 1, 76, 127
1, 196560, Note_on_c, 1, 73, 127
1, 196560, Note_on_c, 1, 46, 127
1, 196589, Note_off_c, 1, 76, 0
1, 196619, Note_off_c, 1, 73, 0
1, 196619, Note_off_c, 1, 46, 0
1, 196620, Note_on_c, 1, 82, 127
1, 196620, Note_on_c, 1, 66, 127
1, 196620, Note_on_c, 1, 49, 127
1, 196649, Note_off_c, 1, 82, 0
1, 196650, Note_on_c, 1, 76, 127
1, 196679, Note_off_c, 1, 66, 0
1, 196679, Note_off_c, 1, 49, 0
1, 196679, Note_off_c, 1, 76, 0
1, 196680, Note_on_c, 1, 83, 127
1, 196680, Note_on_c, 1, 75, 127
1, 196680, Note_on_c, 1, 42, 127
1, 196709, Note_off_c, 1, 83, 0
1, 196710, Note_on_c, 1, 78, 127
1, 196739, Note_off_c, 1, 78, 0
1, 196770, Note_on_c, 1, 73, 127
1, 196799, Note_off_c, 1, 75, 0
1, 196799, Note_off_c, 1, 73, 0
1, 196800, Note_on_c, 1, 71, 127
1, 196829, Note_off_c, 1, 71, 0
1, 196830, Note_on_c, 1, 66, 127
1, 196859, Note_off_c, 1, 66, 0
1, 196919, Note_off_c, 1, 42, 0
1, 196920, Note_on_c, 1, 78, 127
1, 196920, Note_on_c, 1, 76, 127
1, 196920, Note_on_c, 1, 47, 127
1, 196949, Note_off_c, 1, 78, 0
1, 196949, Note_off_c, 1, 76, 0
1, 196950, Note_on_c, 1, 75, 127
1, 196979, Note_off_c, 1, 47, 0
1, 196979, Note_off_c, 1, 75, 0
1, 196980, Note_on_c, 1, 83, 127
1, 196980, Note_on_c, 1, 73, 127
1, 196980, Note_on_c, 1, 51, 127
1, 197009, Note_off_c, 1, 83, 0
1, 197009, Note_off_c, 1, 73, 0
1, 197010, Note_on_c, 1, 78, 127
1, 197010, Note_on_c, 1, 75, 127
1, 197039, Note_off_c, 1, 51, 0
1, 197039, Note_off_c, 1, 78, 0
1, 197039, Note_off_c, 1, 75, 0
1, 197040, Note_on_c, 1, 85, 127
1, 197040, Note_on_c, 1, 76, 127
1, 197040, Note_on_c, 1, 42, 127
1, 197069, Note_off_c, 1, 85, 0
1, 197070, Note_on_c, 1, 82, 127
1, 197099, Note_off_c, 1, 82, 0
1, 197130, Note_on_c, 1, 75, 127
1, 197159, Note_off_c, 1, 75, 0
1, 197160, Note_on_c, 1, 73, 127
1, 197189, Note_off_c, 1, 73, 0
1, 197190, Note_on_c, 1, 66, 127
1, 197219, Note_off_c, 1, 66, 0
1, 197279, Note_off_c, 1, 76, 0
1, 197279, Note_off_c, 1, 42, 0
1, 197280, Note_on_c, 1, 82, 127
1, 197280, Note_on_c, 1, 78, 127
1, 197280, Note_on_c, 1, 49, 127
1, 197309, Note_off_c, 1, 82, 0
1, 197309, Note_off_c, 1, 78, 0
1, 197310, Note_on_c, 1, 76, 127
1, 197339, Note_off_c, 1, 49, 0
1, 197339, Note_off_c, 1, 76, 0
1, 197340, Note_on_c, 1, 85, 127
1, 197340, Note_on_c, 1, 75, 127
1, 197340, Note_on_c, 1, 52, 127
1, 197369, Note_off_c, 1, 85, 0
1, 197369, Note_off_c, 1, 75, 0
1, 197370, Note_on_c, 1, 82, 127
1, 197370, Note_on_c, 1, 76, 127
1, 197399, Note_off_c, 1, 52, 0
1, 197399, Note_off_c, 1, 82, 0
1, 197399, Note_off_c, 1, 76, 0
1, 197400, Note_on_c, 1, 87, 127
1, 197400, Note_on_c, 1, 78, 127
1, 197400, Note_on_c, 1, 51, 127
1, 197429, Note_off_c, 1, 87, 0
1, 197430, Note_on_c, 1, 82, 127
1, 197459, Note_off_c, 1, 78, 0
1, 197459, Note_off_c, 1, 82, 0
1, 197460, Note_on_c, 1, 83, 127
1, 197460, Note_on_c, 1, 71, 127
1, 197489, Note_off_c, 1, 83, 0
1, 197519, Note_off_c, 1, 51, 0
1, 197519, Note_off_c, 1, 71, 0
1, 197520, Note_on_c, 1, 75, 127
1, 197520, Note_on_c, 1, 80, 127
1, 197520, Note_on_c, 1, 52, 127
1, 197549, Note_off_c, 1, 75, 0
1, 197550, Note_on_c, 1, 71, 127
1, 197579, Note_off_c, 1, 80, 0
1, 197579, Note_off_c, 1, 52, 0
1, 197579, Note_off_c, 1, 71, 0
1, 197580, Note_on_c, 1, 66, 127
1, 197580, Note_on_c, 1, 75, 127
1, 197580, Note_on_c, 1, 54, 127
1, 197609, Note_off_c, 1, 66, 0
1, 197610, Note_on_c, 1, 68, 127
1, 197624, Note_off_c, 1, 68, 0
1, 197625, Note_on_c, 1, 70, 127
1, 197639, Note_off_c, 1, 75, 0
1, 197639, Note_off_c, 1, 70, 0
1, 197640, Note_on_c, 1, 71, 127
1, 197640, Note_on_c, 1, 73, 127
1, 197654, Note_off_c, 1, 71, 0
1, 197669, Note_off_c, 1, 73, 0
1, 197685, Note_on_c, 1, 76, 127
1, 197699, Note_off_c, 1, 54, 0
1, 197699, Note_off_c, 1, 76, 0
1, 197700, Note_on_c, 1, 78, 127
1, 197700, Note_on_c, 1, 73, 127
1, 197700, Note_on_c, 1, 42, 127
1, 197714, Note_off_c, 1, 78, 0
1, 197715, Note_on_c, 1, 80, 127
1, 197729, Note_off_c, 1, 80, 0
1, 197730, Note_on_c, 1, 82, 127
1, 197759, Note_off_c, 1, 73, 0
1, 197759, Note_off_c, 1, 42, 0
1, 197759, Note_off_c, 1, 82, 0
1, 197760, Note_on_c, 1, 83, 127
1, 197760, Note_on_c, 1, 71, 127
1, 197760, Note_on_c, 1, 47, 127
1, 197789, Note_off_c, 1, 83, 0
1, 197790, Note_on_c, 1, 78, 127
1, 197819, Note_off_c, 1, 47, 0
1, 197819, Note_off_c, 1, 78, 0
1, 197820, Note_on_c, 1, 75, 127
1, 197820, Note_on_c, 1, 51, 127
1, 197849, Note_off_c, 1, 75, 0
1, 197879, Note_off_c, 1, 71, 0
1, 197879, Note_off_c, 1, 51, 0
1, 197880, Note_on_c, 1, 66, 127
1, 197880, Note_on_c, 1, 54, 127
1, 197909, Note_off_c, 1, 66, 0
1, 197910, Note_on_c, 1, 63, 127
1, 197939, Note_off_c, 1, 54, 0
1, 197939, Note_off_c, 1, 63, 0
1, 197940, Note_on_c, 1, 59, 127
1, 197970, Note_on_c, 1, 63, 127
1, 197999, Note_off_c, 1, 63, 0
1, 198000, Note_on_c, 1, 66, 127
1, 198029, Note_off_c, 1, 66, 0
1, 198030, Note_on_c, 1, 71, 127
1, 198059, Note_off_c, 1, 71, 0
1, 198060, Note_on_c, 1, 75, 127
1, 198089, Note_off_c, 1, 75, 0
1, 198090, Note_on_c, 1, 78, 127
1, 198119, Note_off_c, 1, 78, 0
1, 198179, Note_off_c, 1, 59, 0
1, 198180, Note_on_c, 1, 73, 127
1, 198180, Note_on_c, 1, 58, 127
1, 198239, Note_off_c, 1, 73, 0
1, 198239, Note_off_c, 1, 58, 0
1, 198240, Note_on_c, 1, 76, 127
1, 198240, Note_on_c, 1, 56, 127
1, 198299, Note_off_c, 1, 56, 0
1, 198300, Note_on_c, 1, 54, 127
1, 198359, Note_off_c, 1, 76, 0
1, 198360, Note_on_c, 1, 75, 127
1, 198419, Note_off_c, 1, 54, 0
1, 198419, Note_off_c, 1, 75, 0
1, 198420, Note_on_c, 1, 71, 127
1, 198420, Note_on_c, 1, 52, 127
1, 198479, Note_off_c, 1, 71, 0
1, 198479, Note_off_c, 1, 52, 0
1, 198480, Note_on_c, 1, 70, 127
1, 198480, Note_on_c, 1, 54, 127
1, 198539, Note_off_c, 1, 54, 0
1, 198540, Note_on_c, 1, 56, 127
1, 198569, Note_off_c, 1, 70, 0
1, 198570, Note_on_c, 1, 68, 127
1, 198599, Note_off_c, 1, 56, 0
1, 198599, Note_off_c, 1, 68, 0
1, 198600, Note_on_c, 1, 66, 127
1, 198600, Note_on_c, 1, 58, 127
1, 198629, Note_off_c, 1, 66, 0
1, 198630, Note_on_c, 1, 64, 127
1, 198659, Note_off_c, 1, 58, 0
1, 198659, Note_off_c, 1, 64, 0
1, 198660, Note_on_c, 1, 63, 127
1, 198660, Note_on_c, 1, 59, 127
1, 198689, Note_off_c, 1, 63, 0
1, 198690, Note_on_c, 1, 66, 127
1, 198719, Note_off_c, 1, 59, 0
1, 198719, Note_off_c, 1, 66, 0
1, 198720, Note_on_c, 1, 71, 127
1, 198720, Note_on_c, 1, 63, 127
1, 198749, Note_off_c, 1, 71, 0
1, 198750, Note_on_c, 1, 75, 127
1, 198779, Note_off_c, 1, 63, 0
1, 198779, Note_off_c, 1, 75, 0
1, 198780, Note_on_c, 1, 78, 127
1, 198780, Note_on_c, 1, 59, 127
1, 198809, Note_off_c, 1, 78, 0
1, 198810, Note_on_c, 1, 81, 127
1, 198839, Note_off_c, 1, 59, 0
1, 198839, Note_off_c, 1, 81, 0
1, 198840, Note_on_c, 1, 80, 127
1, 198840, Note_on_c, 1, 52, 127
1, 198869, Note_off_c, 1, 80, 0
1, 198870, Note_on_c, 1, 75, 127
1, 198899, Note_off_c, 1, 75, 0
1, 198900, Note_on_c, 1, 76, 127
1, 198929, Note_off_c, 1, 76, 0
1, 198930, Note_on_c, 1, 71, 127
1, 198959, Note_off_c, 1, 71, 0
1, 198960, Note_on_c, 1, 68, 127
1, 198989, Note_off_c, 1, 68, 0
1, 198990, Note_on_c, 1, 64, 127
1, 199019, Note_off_c, 1, 64, 0
1, 199020, Note_on_c, 1, 61, 127
1, 199049, Note_off_c, 1, 61, 0
1, 199079, Note_off_c, 1, 52, 0
1, 199080, Note_on_c, 1, 70, 127
1, 199080, Note_on_c, 1, 61, 127
1, 199109, Note_off_c, 1, 70, 0
1, 199110, Note_on_c, 1, 73, 127
1, 199139, Note_off_c, 1, 61, 0
1, 199139, Note_off_c, 1, 73, 0
1, 199140, Note_on_c, 1, 76, 127
1, 199140, Note_on_c, 1, 58, 127
1, 199169, Note_off_c, 1, 76, 0
1, 199170, Note_on_c, 1, 80, 127
1, 199199, Note_off_c, 1, 58, 0
1, 199199, Note_off_c, 1, 80, 0
1, 199200, Note_on_c, 1, 78, 127
1, 199200, Note_on_c, 1, 51, 127
1, 199229, Note_off_c, 1, 78, 0
1, 199230, Note_on_c, 1, 73, 127
1, 199259, Note_off_c, 1, 73, 0
1, 199260, Note_on_c, 1, 75, 127
1, 199289, Note_off_c, 1, 75, 0
1, 199290, Note_on_c, 1, 70, 127
1, 199319, Note_off_c, 1, 70, 0
1, 199320, Note_on_c, 1, 66, 127
1, 199349, Note_off_c, 1, 66, 0
1, 199350, Note_on_c, 1, 63, 127
1, 199379, Note_off_c, 1, 63, 0
1, 199380, Note_on_c, 1, 59, 127
1, 199409, Note_off_c, 1, 59, 0
1, 199439, Note_off_c, 1, 51, 0
1, 199440, Note_on_c, 1, 68, 127
1, 199440, Note_on_c, 1, 59, 127
1, 199469, Note_off_c, 1, 68, 0
1, 199470, Note_on_c, 1, 71, 127
1, 199499, Note_off_c, 1, 59, 0
1, 199499, Note_off_c, 1, 71, 0
1, 199500, Note_on_c, 1, 75, 127
1, 199500, Note_on_c, 1, 56, 127
1, 199529, Note_off_c, 1, 75, 0
1, 199530, Note_on_c, 1, 78, 127
1, 199559, Note_off_c, 1, 56, 0
1, 199559, Note_off_c, 1, 78, 0
1, 199560, Note_on_c, 1, 76, 127
1, 199560, Note_on_c, 1, 49, 127
1, 199589, Note_off_c, 1, 76, 0
1, 199590, Note_on_c, 1, 71, 127
1, 199619, Note_off_c, 1, 71, 0
1, 199620, Note_on_c, 1, 73, 127
1, 199649, Note_off_c, 1, 73, 0
1, 199650, Note_on_c, 1, 68, 127
1, 199679, Note_off_c, 1, 68, 0
1, 199680, Note_on_c, 1, 64, 127
1, 199709, Note_off_c, 1, 64, 0
1, 199710, Note_on_c, 1, 61, 127
1, 199739, Note_off_c, 1, 61, 0
1, 199740, Note_on_c, 1, 58, 127
1, 199769, Note_off_c, 1, 58, 0
1, 199799, Note_off_c, 1, 49, 0
1, 199800, Note_on_c, 1, 66, 127
1, 199800, Note_on_c, 1, 58, 127
1, 199829, Note_off_c, 1, 66, 0
1, 199830, Note_on_c, 1, 70, 127
1, 199859, Note_off_c, 1, 58, 0
1, 199859, Note_off_c, 1, 70, 0
1, 199860, Note_on_c, 1, 73, 127
1, 199860, Note_on_c, 1, 54, 127
1, 199889, Note_off_c, 1, 73, 0
1, 199890, Note_on_c, 1, 76, 127
1, 199919, Note_off_c, 1, 54, 0
1, 199919, Note_off_c, 1, 76, 0
1, 199920, Note_on_c, 1, 75, 127
1, 199920, Note_on_c, 1, 47, 127
1, 199979, Note_off_c, 1, 75, 0
1, 199979, Note_off_c, 1, 47, 0
1, 199980, Note_on_c, 1, 73, 127
1, 199980, Note_on_c, 1, 54, 127
1, 200039, Note_off_c, 1, 73, 0
1, 200039, Note_off_c, 1, 54, 0
1, 200040, Note_on_c, 1, 76, 127
1, 200040, Note_on_c, 1, 56, 127
1, 200099, Note_off_c, 1, 56, 0
1, 200100, Note_on_c, 1, 58, 127
1, 200159, Note_off_c, 1, 76, 0
1, 200159, Note_off_c, 1, 58, 0
1, 200160, Note_on_c, 1, 75, 127
1, 200160, Note_on_c, 1, 59, 127
1, 200219, Note_off_c, 1, 75, 0
1, 200219, Note_off_c, 1, 59, 0
1, 200220, Note_on_c, 1, 80, 127
1, 200220, Note_on_c, 1, 61, 127
1, 200279, Note_off_c, 1, 61, 0
1, 200280, Note_on_c, 1, 63, 127
1, 200339, Note_off_c, 1, 80, 0
1, 200339, Note_off_c, 1, 63, 0
1, 200340, Note_on_c, 1, 78, 127
1, 200340, Note_on_c, 1, 51, 127
1, 200399, Note_off_c, 1, 78, 0
1, 200399, Note_off_c, 1, 51, 0
1, 200400, Note_on_c, 1, 71, 127
1, 200400, Note_on_c, 1, 52, 127
1, 200459, Note_off_c, 1, 71, 0
1, 200459, Note_off_c, 1, 52, 0
1, 200460, Note_on_c, 1, 70, 127
1, 200460, Note_on_c, 1, 54, 127
1, 200579, Note_off_c, 1, 70, 0
1, 200579, Note_off_c, 1, 54, 0
1, 200580, Note_on_c, 1, 71, 127
1, 200580, Note_on_c, 1, 42, 127
1, 200639, Note_off_c, 1, 71, 0
1, 200639, Note_off_c, 1, 42, 0
1, 200640, Note_on_c, 1, 71, 127
1, 200640, Note_on_c, 1, 47, 127
1, 200669, Note_off_c, 1, 71, 0
1, 200670, Note_on_c, 1, 68, 127
1, 200699, Note_off_c, 1, 47, 0
1, 200699, Note_off_c, 1, 68, 0
1, 200700, Note_on_c, 1, 66, 127
1, 200700, Note_on_c, 1, 51, 127
1, 200729, Note_off_c, 1, 66, 0
1, 200730, Note_on_c, 1, 64, 127
1, 200759, Note_off_c, 1, 51, 0
1, 200759, Note_off_c, 1, 64, 0
1, 200760, Note_on_c, 1, 63, 127
1, 200760, Note_on_c, 1, 54, 127
1, 200789, Note_off_c, 1, 63, 0
1, 200790, Note_on_c, 1, 61, 127
1, 200819, Note_off_c, 1, 54, 0
1, 200819, Note_off_c, 1, 61, 0
1, 200820, Note_on_c, 1, 59, 127
1, 200820, Note_on_c, 1, 75, 127
1, 200849, Note_off_c, 1, 75, 0
1, 200850, Note_on_c, 1, 76, 127
1, 200879, Note_off_c, 1, 76, 0
1, 200880, Note_on_c, 1, 78, 127
1, 200939, Note_off_c, 1, 59, 0
1, 200939, Note_off_c, 1, 78, 0
1, 200940, Note_on_c, 1, 71, 127
1, 200940, Note_on_c, 1, 57, 127
1, 200999, Note_off_c, 1, 71, 0
1, 200999, Note_off_c, 1, 57, 0
1, 201000, Note_on_c, 1, 76, 127
1, 201000, Note_on_c, 1, 56, 127
1, 201059, Note_off_c, 1, 56, 0
1, 201060, Note_on_c, 1, 59, 127
1, 201119, Note_off_c, 1, 76, 0
1, 201119, Note_off_c, 1, 59, 0
1, 201120, Note_on_c, 1, 76, 127
1, 201120, Note_on_c, 1, 56, 127
1, 201179, Note_off_c, 1, 76, 0
1, 201179, Note_off_c, 1, 56, 0
1, 201180, Note_on_c, 1, 68, 127
1, 201180, Note_on_c, 1, 52, 127
1, 201209, Note_off_c, 1, 68, 0
1, 201210, Note_on_c, 1, 71, 127
1, 201239, Note_off_c, 1, 52, 0
1, 201239, Note_off_c, 1, 71, 0
1, 201240, Note_on_c, 1, 76, 127
1, 201240, Note_on_c, 1, 56, 127
1, 201269, Note_off_c, 1, 76, 0
1, 201270, Note_on_c, 1, 80, 127
1, 201299, Note_off_c, 1, 56, 0
1, 201299, Note_off_c, 1, 80, 0
1, 201300, Note_on_c, 1, 83, 127
1, 201300, Note_on_c, 1, 52, 127
1, 201329, Note_off_c, 1, 83, 0
1, 201330, Note_on_c, 1, 86, 127
1, 201359, Note_off_c, 1, 52, 0
1, 201359, Note_off_c, 1, 86, 0
1, 201360, Note_on_c, 1, 85, 127
1, 201360, Note_on_c, 1, 45, 127
1, 201389, Note_off_c, 1, 85, 0
1, 201390, Note_on_c, 1, 80, 127
1, 201419, Note_off_c, 1, 45, 0
1, 201419, Note_off_c, 1, 80, 0
1, 201420, Note_on_c, 1, 81, 127
1, 201420, Note_on_c, 1, 49, 127
1, 201449, Note_off_c, 1, 81, 0
1, 201450, Note_on_c, 1, 76, 127
1, 201479, Note_off_c, 1, 49, 0
1, 201479, Note_off_c, 1, 76, 0
1, 201480, Note_on_c, 1, 73, 127
1, 201480, Note_on_c, 1, 52, 127
1, 201509, Note_off_c, 1, 73, 0
1, 201510, Note_on_c, 1, 69, 127
1, 201539, Note_off_c, 1, 52, 0
1, 201539, Note_off_c, 1, 69, 0
1, 201540, Note_on_c, 1, 73, 127
1, 201540, Note_on_c, 1, 57, 127
1, 201569, Note_off_c, 1, 73, 0
1, 201570, Note_on_c, 1, 75, 127
1, 201599, Note_off_c, 1, 75, 0
1, 201600, Note_on_c, 1, 76, 127
1, 201659, Note_off_c, 1, 57, 0
1, 201659, Note_off_c, 1, 76, 0
1, 201660, Note_on_c, 1, 73, 127
1, 201660, Note_on_c, 1, 56, 127
1, 201719, Note_off_c, 1, 73, 0
1, 201719, Note_off_c, 1, 56, 0
1, 201720, Note_on_c, 1, 81, 127
1, 201720, Note_on_c, 1, 54, 127
1, 201750, Note_on_c, 1, 73, 127
1, 201779, Note_off_c, 1, 81, 0
1, 201779, Note_off_c, 1, 73, 0
1, 201780, Note_on_c, 1, 72, 127
1, 201780, Note_on_c, 1, 80, 127
1, 201809, Note_off_c, 1, 72, 0
1, 201839, Note_off_c, 1, 54, 0
1, 201839, Note_off_c, 1, 80, 0
1, 201840, Note_on_c, 1, 75, 127
1, 201840, Note_on_c, 1, 52, 127
1, 201869, Note_off_c, 1, 75, 0
1, 201870, Note_on_c, 1, 76, 127
1, 201899, Note_off_c, 1, 52, 0
1, 201899, Note_off_c, 1, 76, 0
1, 201900, Note_on_c, 1, 78, 127
1, 201900, Note_on_c, 1, 73, 127
1, 201900, Note_on_c, 1, 57, 127
1, 201929, Note_off_c, 1, 78, 0
1, 201930, Note_on_c, 1, 80, 127
1, 201959, Note_off_c, 1, 73, 0
1, 201959, Note_off_c, 1, 80, 0
1, 201960, Note_on_c, 1, 81, 127
1, 201989, Note_off_c, 1, 81, 0
1, 202019, Note_off_c, 1, 57, 0
1, 202020, Note_on_c, 1, 80, 127
1, 202020, Note_on_c, 1, 75, 127
1, 202020, Note_on_c, 1, 54, 127
1, 202049, Note_off_c, 1, 80, 0
1, 202050, Note_on_c, 1, 81, 127
1, 202079, Note_off_c, 1, 75, 0
1, 202079, Note_off_c, 1, 54, 0
1, 202079, Note_off_c, 1, 81, 0
1, 202080, Note_on_c, 1, 75, 127
1, 202080, Note_on_c, 1, 72, 127
1, 202080, Note_on_c, 1, 56, 127
1, 202109, Note_off_c, 1, 75, 0
1, 202110, Note_on_c, 1, 80, 127
1, 202139, Note_off_c, 1, 80, 0
1, 202140, Note_off_c, 1, 56, 0
1, 202140, Note_on_c, 1, 78, 127
1, 202140, Note_on_c, 1, 51, 127
1, 202169, Note_off_c, 1, 78, 0
1, 202170, Note_on_c, 1, 76, 127
1, 202199, Note_off_c, 1, 51, 0
1, 202199, Note_off_c, 1, 76, 0
1, 202200, Note_on_c, 1, 48, 127
1, 202230, Note_on_c, 1, 73, 127
1, 202259, Note_off_c, 1, 72, 0
1, 202259, Note_off_c, 1, 73, 0
1, 202260, Note_off_c, 1, 48, 0
1, 202260, Note_on_c, 1, 44, 127
1, 202380, Note_off_c, 1, 44, 0
1, 202380, Note_on_c, 1, 68, 127
1, 202439, Note_off_c, 1, 68, 0
1, 202440, Note_on_c, 1, 49, 127
1, 202470, Note_on_c, 1, 66, 127
1, 202499, Note_off_c, 1, 49, 0
1, 202499, Note_off_c, 1, 66, 0
1, 202500, Note_on_c, 1, 52, 127
1, 202530, Note_on_c, 1, 63, 127
1, 202559, Note_off_c, 1, 52, 0
1, 202559, Note_off_c, 1, 63, 0
1, 202560, Note_on_c, 1, 64, 127
1, 202560, Note_on_c, 1, 76, 127
1, 202560, Note_on_c, 1, 56, 127
1, 202589, Note_off_c, 1, 64, 0
1, 202590, Note_on_c, 1, 60, 127
1, 202619, Note_off_c, 1, 76, 0
1, 202619, Note_off_c, 1, 56, 0
1, 202619, Note_off_c, 1, 60, 0
1, 202620, Note_on_c, 1, 61, 127
1, 202620, Note_on_c, 1, 76, 127
1, 202649, Note_off_c, 1, 76, 0
1, 202650, Note_on_c, 1, 63, 127
1, 202650, Note_on_c, 1, 80, 127
1, 202679, Note_off_c, 1, 61, 0
1, 202679, Note_off_c, 1, 63, 0
1, 202679, Note_off_c, 1, 80, 0
1, 202680, Note_on_c, 1, 64, 127
1, 202680, Note_on_c, 1, 78, 127
1, 202680, Note_on_c, 1, 58, 127
1, 202709, Note_off_c, 1, 64, 0
1, 202710, Note_on_c, 1, 66, 127
1, 202739, Note_off_c, 1, 78, 0
1, 202739, Note_off_c, 1, 58, 0
1, 202739, Note_off_c, 1, 66, 0
1, 202740, Note_on_c, 1, 68, 127
1, 202740, Note_on_c, 1, 76, 127
1, 202740, Note_on_c, 1, 54, 127
1, 202769, Note_off_c, 1, 68, 0
1, 202770, Note_on_c, 1, 70, 127
1, 202799, Note_off_c, 1, 76, 0
1, 202799, Note_off_c, 1, 54, 0
1, 202799, Note_off_c, 1, 70, 0
1, 202800, Note_on_c, 1, 71, 127
1, 202800, Note_on_c, 1, 75, 127
1, 202800, Note_on_c, 1, 47, 127
1, 202829, Note_off_c, 1, 71, 0
1, 202830, Note_on_c, 1, 64, 127
1, 202859, Note_off_c, 1, 47, 0
1, 202859, Note_off_c, 1, 64, 0
1, 202860, Note_on_c, 1, 66, 127
1, 202860, Note_on_c, 1, 51, 127
1, 202889, Note_off_c, 1, 66, 0
1, 202890, Note_on_c, 1, 61, 127
1, 202919, Note_off_c, 1, 51, 0
1, 202919, Note_off_c, 1, 61, 0
1, 202920, Note_on_c, 1, 63, 127
1, 202920, Note_on_c, 1, 54, 127
1, 202949, Note_off_c, 1, 63, 0
1, 202950, Note_on_c, 1, 58, 127
1, 202979, Note_off_c, 1, 75, 0
1, 202979, Note_off_c, 1, 54, 0
1, 202979, Note_off_c, 1, 58, 0
1, 202980, Note_on_c, 1, 59, 127
1, 203010, Note_on_c, 1, 63, 127
1, 203039, Note_off_c, 1, 63, 0
1, 203040, Note_on_c, 1, 64, 127
1, 203040, Note_on_c, 1, 71, 127
1, 203069, Note_off_c, 1, 64, 0
1, 203070, Note_on_c, 1, 66, 127
1, 203099, Note_off_c, 1, 59, 0
1, 203099, Note_off_c, 1, 71, 0
1, 203099, Note_off_c, 1, 66, 0
1, 203100, Note_on_c, 1, 68, 127
1, 203100, Note_on_c, 1, 73, 127
1, 203100, Note_on_c, 1, 57, 127
1, 203129, Note_off_c, 1, 68, 0
1, 203130, Note_on_c, 1, 69, 127
1, 203159, Note_off_c, 1, 73, 0
1, 203159, Note_off_c, 1, 57, 0
1, 203159, Note_off_c, 1, 69, 0
1, 203160, Note_on_c, 1, 71, 127
1, 203160, Note_on_c, 1, 74, 127
1, 203160, Note_on_c, 1, 56, 127
1, 203189, Note_off_c, 1, 71, 0
1, 203190, Note_on_c, 1, 66, 127
1, 203219, Note_off_c, 1, 74, 0
1, 203219, Note_off_c, 1, 66, 0
1, 203220, Note_on_c, 1, 68, 127
1, 203220, Note_on_c, 1, 76, 127
1, 203249, Note_off_c, 1, 68, 0
1, 203250, Note_on_c, 1, 61, 127
1, 203279, Note_off_c, 1, 56, 0
1, 203279, Note_off_c, 1, 76, 0
1, 203279, Note_off_c, 1, 61, 0
1, 203280, Note_on_c, 1, 62, 127
1, 203280, Note_on_c, 1, 78, 127
1, 203280, Note_on_c, 1, 54, 127
1, 203309, Note_off_c, 1, 62, 0
1, 203310, Note_on_c, 1, 57, 127
1, 203339, Note_off_c, 1, 54, 0
1, 203339, Note_off_c, 1, 57, 0
1, 203340, Note_on_c, 1, 59, 127
1, 203340, Note_on_c, 1, 56, 127
1, 203369, Note_off_c, 1, 59, 0
1, 203370, Note_on_c, 1, 61, 127
1, 203399, Note_off_c, 1, 78, 0
1, 203399, Note_off_c, 1, 61, 0
1, 203400, Note_on_c, 1, 76, 127
1, 203430, Note_on_c, 1, 64, 127
1, 203459, Note_off_c, 1, 56, 0
1, 203459, Note_off_c, 1, 76, 0
1, 203459, Note_off_c, 1, 64, 0
1, 203460, Note_on_c, 1, 66, 127
1, 203460, Note_on_c, 1, 74, 127
1, 203460, Note_on_c, 1, 52, 127
1, 203489, Note_off_c, 1, 66, 0
1, 203490, Note_on_c, 1, 68, 127
1, 203519, Note_off_c, 1, 74, 0
1, 203519, Note_off_c, 1, 52, 0
1, 203519, Note_off_c, 1, 68, 0
1, 203520, Note_on_c, 1, 69, 127
1, 203520, Note_on_c, 1, 73, 127
1, 203520, Note_on_c, 1, 45, 127
1, 203579, Note_off_c, 1, 73, 0
1, 203579, Note_off_c, 1, 45, 0
1, 203580, Note_on_c, 1, 74, 127
1, 203580, Note_on_c, 1, 54, 127
1, 203639, Note_off_c, 1, 74, 0
1, 203639, Note_off_c, 1, 54, 0
1, 203640, Note_on_c, 1, 52, 127
1, 203699, Note_off_c, 1, 52, 0
1, 203700, Note_on_c, 1, 71, 127
1, 203700, Note_on_c, 1, 50, 127
1, 203759, Note_off_c, 1, 71, 0
1, 203759, Note_off_c, 1, 50, 0
1, 203789, Note_off_c, 1, 69, 0
1, 203790, Note_on_c, 1, 68, 127
1, 203819, Note_off_c, 1, 68, 0
1, 203820, Note_on_c, 1, 69, 127
1, 203820, Note_on_c, 1, 54, 127
1, 203879, Note_off_c, 1, 69, 0
1, 203879, Note_off_c, 1, 54, 0
1, 203880, Note_on_c, 1, 64, 127
1, 203880, Note_on_c, 1, 44, 127
1, 203910, Note_on_c, 1, 83, 127
1, 203939, Note_off_c, 1, 44, 0
1, 203939, Note_off_c, 1, 83, 0
1, 203940, Note_on_c, 1, 81, 127
1, 203969, Note_off_c, 1, 81, 0
1, 203970, Note_on_c, 1, 80, 127
1, 203999, Note_off_c, 1, 80, 0
1, 204000, Note_on_c, 1, 78, 127
1, 204029, Note_off_c, 1, 78, 0
1, 204030, Note_on_c, 1, 76, 127
1, 204059, Note_off_c, 1, 76, 0
1, 204060, Note_on_c, 1, 74, 127
1, 204060, Note_on_c, 1, 40, 127
1, 204089, Note_off_c, 1, 74, 0
1, 204119, Note_off_c, 1, 40, 0
1, 204180, Note_on_c, 1, 73, 127
1, 204209, Note_off_c, 1, 73, 0
1, 204210, Note_on_c, 1, 71, 127
1, 204239, Note_off_c, 1, 71, 0
1, 204240, Note_on_c, 1, 45, 127
1, 204299, Note_off_c, 1, 45, 0
1, 204300, Note_on_c, 1, 49, 127
1, 204359, Note_off_c, 1, 64, 0
1, 204359, Note_off_c, 1, 49, 0
1, 204360, Note_on_c, 1, 71, 127
1, 204360, Note_on_c, 1, 64, 127
1, 204360, Note_on_c, 1, 52, 127
1, 204389, Note_off_c, 1, 71, 0
1, 204390, Note_on_c, 1, 69, 127
1, 204419, Note_off_c, 1, 64, 0
1, 204419, Note_off_c, 1, 52, 0
1, 204419, Note_off_c, 1, 69, 0
1, 204420, Note_on_c, 1, 81, 127
1, 204420, Note_on_c, 1, 73, 127
1, 204420, Note_on_c, 1, 57, 127
1, 204479, Note_off_c, 1, 73, 0
1, 204480, Note_on_c, 1, 71, 127
1, 204539, Note_off_c, 1, 57, 0
1, 204539, Note_off_c, 1, 71, 0
1, 204540, Note_on_c, 1, 69, 127
1, 204540, Note_on_c, 1, 56, 127
1, 204599, Note_off_c, 1, 69, 0
1, 204599, Note_off_c, 1, 56, 0
1, 204600, Note_on_c, 1, 74, 127
1, 204600, Note_on_c, 1, 54, 127
1, 204659, Note_off_c, 1, 74, 0
1, 204659, Note_off_c, 1, 54, 0
1, 204660, Note_on_c, 1, 52, 127
1, 204719, Note_off_c, 1, 52, 0
1, 204720, Note_on_c, 1, 50, 127
1, 204779, Note_off_c, 1, 50, 0
1, 204780, Note_on_c, 1, 76, 127
1, 204780, Note_on_c, 1, 49, 127
1, 204839, Note_off_c, 1, 76, 0
1, 204839, Note_off_c, 1, 49, 0
1, 204840, Note_on_c, 1, 47, 127
1, 204899, Note_off_c, 1, 47, 0
1, 204960, Note_on_c, 1, 78, 127
1, 204990, Note_off_c, 1, 81, 0
1, 204990, Note_on_c, 1, 62, 127
1, 205019, Note_off_c, 1, 62, 0
1, 205020, Note_off_c, 1, 78, 0
1, 205020, Note_on_c, 1, 64, 127
1, 205049, Note_off_c, 1, 64, 0
1, 205050, Note_on_c, 1, 66, 127
1, 205079, Note_off_c, 1, 66, 0
1, 205080, Note_on_c, 1, 68, 127
1, 205109, Note_off_c, 1, 68, 0
1, 205200, Note_on_c, 1, 74, 127
1, 205200, Note_on_c, 1, 47, 127
1, 205229, Note_off_c, 1, 74, 0
1, 205230, Note_on_c, 1, 71, 127
1, 205259, Note_off_c, 1, 47, 0
1, 205259, Note_off_c, 1, 71, 0
1, 205260, Note_on_c, 1, 80, 127
1, 205260, Note_on_c, 1, 64, 127
1, 205260, Note_on_c, 1, 44, 127
1, 205289, Note_off_c, 1, 80, 0
1, 205290, Note_on_c, 1, 74, 127
1, 205319, Note_off_c, 1, 44, 0
1, 205319, Note_off_c, 1, 74, 0
1, 205320, Note_off_c, 1, 64, 0
1, 205320, Note_on_c, 1, 81, 127
1, 205320, Note_on_c, 1, 73, 127
1, 205320, Note_on_c, 1, 40, 127
1, 205349, Note_off_c, 1, 81, 0
1, 205350, Note_on_c, 1, 76, 127
1, 205379, Note_off_c, 1, 76, 0
1, 205410, Note_on_c, 1, 71, 127
1, 205439, Note_off_c, 1, 73, 0
1, 205439, Note_off_c, 1, 71, 0
1, 205440, Note_on_c, 1, 69, 127
1, 205469, Note_off_c, 1, 69, 0
1, 205559, Note_off_c, 1, 40, 0
1, 205560, Note_on_c, 1, 76, 127
1, 205560, Note_on_c, 1, 74, 127
1, 205560, Note_on_c, 1, 45, 127
1, 205589, Note_off_c, 1, 76, 0
1, 205589, Note_off_c, 1, 74, 0
1, 205590, Note_on_c, 1, 73, 127
1, 205619, Note_off_c, 1, 45, 0
1, 205619, Note_off_c, 1, 73, 0
1, 205620, Note_on_c, 1, 81, 127
1, 205620, Note_on_c, 1, 71, 127
1, 205620, Note_on_c, 1, 49, 127
1, 205649, Note_off_c, 1, 81, 0
1, 205649, Note_off_c, 1, 71, 0
1, 205650, Note_on_c, 1, 76, 127
1, 205650, Note_on_c, 1, 73, 127
1, 205679, Note_off_c, 1, 49, 0
1, 205679, Note_off_c, 1, 76, 0
1, 205679, Note_off_c, 1, 73, 0
1, 205680, Note_on_c, 1, 83, 127
1, 205680, Note_on_c, 1, 74, 127
1, 205680, Note_on_c, 1, 40, 127
1, 205709, Note_off_c, 1, 83, 0
1, 205710, Note_on_c, 1, 80, 127
1, 205739, Note_off_c, 1, 80, 0
1, 205770, Note_on_c, 1, 73, 127
1, 205799, Note_off_c, 1, 73, 0
1, 205800, Note_on_c, 1, 71, 127
1, 205829, Note_off_c, 1, 71, 0
1, 205830, Note_on_c, 1, 64, 127
1, 205859, Note_off_c, 1, 64, 0
1, 205919, Note_off_c, 1, 74, 0
1, 205919, Note_off_c, 1, 40, 0
1, 205920, Note_on_c, 1, 80, 127
1, 205920, Note_on_c, 1, 76, 127
1, 205920, Note_on_c, 1, 47, 127
1, 205949, Note_off_c, 1, 80, 0
1, 205949, Note_off_c, 1, 76, 0
1, 205950, Note_on_c, 1, 74, 127
1, 205979, Note_off_c, 1, 47, 0
1, 205979, Note_off_c, 1, 74, 0
1, 205980, Note_on_c, 1, 83, 127
1, 205980, Note_on_c, 1, 73, 127
1, 205980, Note_on_c, 1, 50, 127
1, 206009, Note_off_c, 1, 83, 0
1, 206009, Note_off_c, 1, 73, 0
1, 206010, Note_on_c, 1, 80, 127
1, 206010, Note_on_c, 1, 74, 127
1, 206039, Note_off_c, 1, 50, 0
1, 206039, Note_off_c, 1, 80, 0
1, 206039, Note_off_c, 1, 74, 0
1, 206040, Note_on_c, 1, 85, 127
1, 206040, Note_on_c, 1, 76, 127
1, 206040, Note_on_c, 1, 49, 127
1, 206069, Note_off_c, 1, 85, 0
1, 206070, Note_on_c, 1, 80, 127
1, 206099, Note_off_c, 1, 76, 0
1, 206099, Note_off_c, 1, 80, 0
1, 206100, Note_on_c, 1, 81, 127
1, 206100, Note_on_c, 1, 69, 127
1, 206129, Note_off_c, 1, 81, 0
1, 206159, Note_off_c, 1, 49, 0
1, 206159, Note_off_c, 1, 69, 0
1, 206160, Note_on_c, 1, 73, 127
1, 206160, Note_on_c, 1, 78, 127
1, 206160, Note_on_c, 1, 50, 127
1, 206189, Note_off_c, 1, 73, 0
1, 206190, Note_on_c, 1, 69, 127
1, 206219, Note_off_c, 1, 78, 0
1, 206219, Note_off_c, 1, 50, 0
1, 206219, Note_off_c, 1, 69, 0
1, 206220, Note_on_c, 1, 64, 127
1, 206220, Note_on_c, 1, 73, 127
1, 206220, Note_on_c, 1, 52, 127
1, 206249, Note_off_c, 1, 64, 0
1, 206250, Note_on_c, 1, 66, 127
1, 206264, Note_off_c, 1, 66, 0
1, 206265, Note_on_c, 1, 68, 127
1, 206279, Note_off_c, 1, 73, 0
1, 206279, Note_off_c, 1, 68, 0
1, 206280, Note_on_c, 1, 69, 127
1, 206280, Note_on_c, 1, 71, 127
1, 206294, Note_off_c, 1, 69, 0
1, 206309, Note_off_c, 1, 71, 0
1, 206325, Note_on_c, 1, 74, 127
1, 206339, Note_off_c, 1, 52, 0
1, 206339, Note_off_c, 1, 74, 0
1, 206340, Note_on_c, 1, 76, 127
1, 206340, Note_on_c, 1, 71, 127
1, 206340, Note_on_c, 1, 40, 127
1, 206354, Note_off_c, 1, 76, 0
1, 206355, Note_on_c, 1, 78, 127
1, 206369, Note_off_c, 1, 78, 0
1, 206370, Note_on_c, 1, 80, 127
1, 206399, Note_off_c, 1, 71, 0
1, 206399, Note_off_c, 1, 40, 0
1, 206399, Note_off_c, 1, 80, 0
1, 206400, Note_on_c, 1, 81, 127
1, 206400, Note_on_c, 1, 69, 127
1, 206400, Note_on_c, 1, 45, 127
1, 206429, Note_off_c, 1, 81, 0
1, 206430, Note_on_c, 1, 76, 127
1, 206459, Note_off_c, 1, 45, 0
1, 206459, Note_off_c, 1, 76, 0
1, 206460, Note_on_c, 1, 73, 127
1, 206460, Note_on_c, 1, 49, 127
1, 206489, Note_off_c, 1, 73, 0
1, 206519, Note_off_c, 1, 69, 0
1, 206519, Note_off_c, 1, 49, 0
1, 206520, Note_on_c, 1, 64, 127
1, 206520, Note_on_c, 1, 52, 127
1, 206549, Note_off_c, 1, 64, 0
1, 206550, Note_on_c, 1, 61, 127
1, 206579, Note_off_c, 1, 52, 0
1, 206579, Note_off_c, 1, 61, 0
1, 206580, Note_on_c, 1, 57, 127
1, 206610, Note_on_c, 1, 61, 127
1, 206639, Note_off_c, 1, 61, 0
1, 206640, Note_on_c, 1, 64, 127
1, 206669, Note_off_c, 1, 64, 0
1, 206670, Note_on_c, 1, 69, 127
1, 206699, Note_off_c, 1, 69, 0
1, 206700, Note_on_c, 1, 73, 127
1, 206729, Note_off_c, 1, 73, 0
1, 206730, Note_on_c, 1, 76, 127
1, 206759, Note_off_c, 1, 76, 0
1, 206819, Note_off_c, 1, 57, 0
1, 206820, Note_on_c, 1, 71, 127
1, 206820, Note_on_c, 1, 56, 127
1, 206879, Note_off_c, 1, 71, 0
1, 206879, Note_off_c, 1, 56, 0
1, 206880, Note_on_c, 1, 74, 127
1, 206880, Note_on_c, 1, 54, 127
1, 206939, Note_off_c, 1, 54, 0
1, 206940, Note_on_c, 1, 52, 127
1, 206999, Note_off_c, 1, 74, 0
1, 207000, Note_on_c, 1, 73, 127
1, 207059, Note_off_c, 1, 52, 0
1, 207059, Note_off_c, 1, 73, 0
1, 207060, Note_on_c, 1, 71, 127
1, 207060, Note_on_c, 1, 50, 127
1, 207119, Note_off_c, 1, 71, 0
1, 207119, Note_off_c, 1, 50, 0
1, 207120, Note_on_c, 1, 68, 127
1, 207120, Note_on_c, 1, 52, 127
1, 207179, Note_off_c, 1, 52, 0
1, 207180, Note_on_c, 1, 56, 127
1, 207239, Note_off_c, 1, 68, 0
1, 207239, Note_off_c, 1, 56, 0
1, 207240, Note_on_c, 1, 59, 127
1, 207299, Note_off_c, 1, 59, 0
1, 207300, Note_on_c, 1, 76, 127
1, 207300, Note_on_c, 1, 56, 127
1, 207329, Note_off_c, 1, 76, 0
1, 207330, Note_on_c, 1, 78, 127
1, 207359, Note_off_c, 1, 56, 0
1, 207359, Note_off_c, 1, 78, 0
1, 207360, Note_on_c, 1, 79, 127
1, 207360, Note_on_c, 1, 52, 127
1, 207419, Note_off_c, 1, 79, 0
1, 207419, Note_off_c, 1, 52, 0
1, 207420, Note_on_c, 1, 76, 127
1, 207420, Note_on_c, 1, 56, 127
1, 207479, Note_off_c, 1, 76, 0
1, 207479, Note_off_c, 1, 56, 0
1, 207480, Note_on_c, 1, 73, 127
1, 207480, Note_on_c, 1, 57, 127
1, 207539, Note_off_c, 1, 57, 0
1, 207540, Note_on_c, 1, 56, 127
1, 207599, Note_off_c, 1, 73, 0
1, 207599, Note_off_c, 1, 56, 0
1, 207600, Note_on_c, 1, 73, 127
1, 207600, Note_on_c, 1, 54, 127
1, 207659, Note_off_c, 1, 73, 0
1, 207659, Note_off_c, 1, 54, 0
1, 207660, Note_on_c, 1, 68, 127
1, 207660, Note_on_c, 1, 53, 127
1, 207689, Note_off_c, 1, 68, 0
1, 207690, Note_on_c, 1, 73, 127
1, 207719, Note_off_c, 1, 53, 0
1, 207719, Note_off_c, 1, 73, 0
1, 207720, Note_on_c, 1, 77, 127
1, 207720, Note_on_c, 1, 49, 127
1, 207749, Note_off_c, 1, 77, 0
1, 207750, Note_on_c, 1, 80, 127
1, 207779, Note_off_c, 1, 49, 0
1, 207779, Note_off_c, 1, 80, 0
1, 207780, Note_on_c, 1, 81, 127
1, 207780, Note_on_c, 1, 53, 127
1, 207809, Note_off_c, 1, 81, 0
1, 207810, Note_on_c, 1, 83, 127
1, 207839, Note_off_c, 1, 53, 0
1, 207839, Note_off_c, 1, 83, 0
1, 207840, Note_on_c, 1, 81, 127
1, 207840, Note_on_c, 1, 54, 127
1, 207869, Note_off_c, 1, 81, 0
1, 207870, Note_on_c, 1, 77, 127
1, 207899, Note_off_c, 1, 54, 0
1, 207899, Note_off_c, 1, 77, 0
1, 207900, Note_on_c, 1, 78, 127
1, 207900, Note_on_c, 1, 57, 127
1, 207929, Note_off_c, 1, 78, 0
1, 207930, Note_on_c, 1, 73, 127
1, 207959, Note_off_c, 1, 57, 0
1, 207959, Note_off_c, 1, 73, 0
1, 207960, Note_on_c, 1, 69, 127
1, 207960, Note_on_c, 1, 61, 127
1, 207989, Note_off_c, 1, 69, 0
1, 207990, Note_on_c, 1, 66, 127
1, 208019, Note_off_c, 1, 61, 0
1, 208019, Note_off_c, 1, 66, 0
1, 208020, Note_on_c, 1, 78, 127
1, 208020, Note_on_c, 1, 57, 127
1, 208049, Note_off_c, 1, 78, 0
1, 208050, Note_on_c, 1, 80, 127
1, 208079, Note_off_c, 1, 57, 0
1, 208079, Note_off_c, 1, 80, 0
1, 208080, Note_on_c, 1, 81, 127
1, 208080, Note_on_c, 1, 54, 127
1, 208139, Note_off_c, 1, 81, 0
1, 208139, Note_off_c, 1, 54, 0
1, 208140, Note_on_c, 1, 78, 127
1, 208140, Note_on_c, 1, 57, 127
1, 208199, Note_off_c, 1, 78, 0
1, 208199, Note_off_c, 1, 57, 0
1, 208200, Note_on_c, 1, 75, 127
1, 208200, Note_on_c, 1, 59, 127
1, 208259, Note_off_c, 1, 59, 0
1, 208260, Note_on_c, 1, 57, 127
1, 208319, Note_off_c, 1, 75, 0
1, 208319, Note_off_c, 1, 57, 0
1, 208320, Note_on_c, 1, 76, 127
1, 208320, Note_on_c, 1, 56, 127
1, 208379, Note_off_c, 1, 76, 0
1, 208379, Note_off_c, 1, 56, 0
1, 208380, Note_on_c, 1, 71, 127
1, 208380, Note_on_c, 1, 57, 127
1, 208439, Note_off_c, 1, 71, 0
1, 208439, Note_off_c, 1, 57, 0
1, 208440, Note_on_c, 1, 73, 127
1, 208440, Note_on_c, 1, 56, 127
1, 208469, Note_off_c, 1, 73, 0
1, 208470, Note_on_c, 1, 75, 127
1, 208499, Note_off_c, 1, 56, 0
1, 208499, Note_off_c, 1, 75, 0
1, 208500, Note_on_c, 1, 76, 127
1, 208500, Note_on_c, 1, 52, 127
1, 208529, Note_off_c, 1, 76, 0
1, 208530, Note_on_c, 1, 80, 127
1, 208559, Note_off_c, 1, 52, 0
1, 208559, Note_off_c, 1, 80, 0
1, 208560, Note_on_c, 1, 78, 127
1, 208560, Note_on_c, 1, 47, 127
1, 208590, Note_on_c, 1, 83, 127
1, 208619, Note_off_c, 1, 47, 0
1, 208619, Note_off_c, 1, 83, 0
1, 208620, Note_on_c, 1, 81, 127
1, 208620, Note_on_c, 1, 51, 127
1, 208649, Note_off_c, 1, 81, 0
1, 208650, Note_on_c, 1, 80, 127
1, 208679, Note_off_c, 1, 51, 0
1, 208679, Note_off_c, 1, 80, 0
1, 208680, Note_on_c, 1, 54, 127
1, 208710, Note_on_c, 1, 76, 127
1, 208739, Note_off_c, 1, 78, 0
1, 208739, Note_off_c, 1, 54, 0
1, 208739, Note_off_c, 1, 76, 0
1, 208740, Note_on_c, 1, 75, 127
1, 208740, Note_on_c, 1, 59, 127
1, 208859, Note_off_c, 1, 75, 0
1, 208859, Note_off_c, 1, 59, 0
1, 208860, Note_on_c, 1, 71, 127
1, 208860, Note_on_c, 1, 57, 127
1, 208919, Note_off_c, 1, 71, 0
1, 208919, Note_off_c, 1, 57, 0
1, 208920, Note_on_c, 1, 76, 127
1, 208920, Note_on_c, 1, 56, 127
1, 208950, Note_on_c, 1, 59, 127
1, 208979, Note_off_c, 1, 76, 0
1, 208979, Note_off_c, 1, 59, 0
1, 208980, Note_on_c, 1, 61, 127
1, 208980, Note_on_c, 1, 68, 127
1, 209009, Note_off_c, 1, 61, 0
1, 209010, Note_on_c, 1, 63, 127
1, 209039, Note_off_c, 1, 56, 0
1, 209039, Note_off_c, 1, 68, 0
1, 209039, Note_off_c, 1, 63, 0
1, 209040, Note_on_c, 1, 64, 127
1, 209040, Note_on_c, 1, 69, 127
1, 209040, Note_on_c, 1, 54, 127
1, 209069, Note_off_c, 1, 64, 0
1, 209070, Note_on_c, 1, 66, 127
1, 209099, Note_off_c, 1, 69, 0
1, 209099, Note_off_c, 1, 54, 0
1, 209099, Note_off_c, 1, 66, 0
1, 209100, Note_on_c, 1, 68, 127
1, 209100, Note_on_c, 1, 71, 127
1, 209100, Note_on_c, 1, 53, 127
1, 209129, Note_off_c, 1, 68, 0
1, 209129, Note_off_c, 1, 71, 0
1, 209130, Note_on_c, 1, 74, 127
1, 209159, Note_off_c, 1, 74, 0
1, 209160, Note_on_c, 1, 69, 127
1, 209160, Note_on_c, 1, 73, 127
1, 209189, Note_off_c, 1, 69, 0
1, 209219, Note_off_c, 1, 53, 0
1, 209219, Note_off_c, 1, 73, 0
1, 209220, Note_on_c, 1, 66, 127
1, 209220, Note_on_c, 1, 71, 127
1, 209220, Note_on_c, 1, 49, 127
1, 209249, Note_off_c, 1, 66, 0
1, 209250, Note_on_c, 1, 65, 127
1, 209279, Note_off_c, 1, 71, 0
1, 209279, Note_off_c, 1, 49, 0
1, 209279, Note_off_c, 1, 65, 0
1, 209280, Note_on_c, 1, 66, 127
1, 209280, Note_on_c, 1, 69, 127
1, 209280, Note_on_c, 1, 54, 127
1, 209309, Note_off_c, 1, 66, 0
1, 209310, Note_on_c, 1, 68, 127
1, 209339, Note_off_c, 1, 54, 0
1, 209339, Note_off_c, 1, 68, 0
1, 209340, Note_on_c, 1, 49, 127
1, 209370, Note_on_c, 1, 71, 127
1, 209399, Note_off_c, 1, 49, 0
1, 209399, Note_off_c, 1, 71, 0
1, 209400, Note_on_c, 1, 73, 127
1, 209400, Note_on_c, 1, 45, 127
1, 209429, Note_off_c, 1, 73, 0
1, 209430, Note_on_c, 1, 75, 127
1, 209459, Note_off_c, 1, 69, 0
1, 209459, Note_off_c, 1, 45, 0
1, 209459, Note_off_c, 1, 75, 0
1, 209460, Note_on_c, 1, 76, 127
1, 209460, Note_on_c, 1, 42, 127
1, 209489, Note_off_c, 1, 76, 0
1, 209490, Note_on_c, 1, 80, 127
1, 209519, Note_off_c, 1, 80, 0
1, 209520, Note_on_c, 1, 78, 127
1, 209520, Note_on_c, 1, 69, 127
1, 209549, Note_off_c, 1, 78, 0
1, 209579, Note_off_c, 1, 42, 0
1, 209579, Note_off_c, 1, 69, 0
1, 209580, Note_on_c, 1, 75, 127
1, 209580, Note_on_c, 1, 66, 127
1, 209580, Note_on_c, 1, 45, 127
1, 209609, Note_off_c, 1, 75, 0
1, 209610, Note_on_c, 1, 73, 127
1, 209639, Note_off_c, 1, 66, 0
1, 209639, Note_off_c, 1, 73, 0
1, 209640, Note_on_c, 1, 72, 127
1, 209670, Note_on_c, 1, 76, 127
1, 209699, Note_off_c, 1, 45, 0
1, 209699, Note_off_c, 1, 72, 0
1, 209699, Note_off_c, 1, 76, 0
1, 209700, Note_on_c, 1, 78, 127
1, 209700, Note_on_c, 1, 73, 127
1, 209700, Note_on_c, 1, 44, 127
1, 209729, Note_off_c, 1, 78, 0
1, 209730, Note_on_c, 1, 80, 127
1, 209759, Note_off_c, 1, 73, 0
1, 209759, Note_off_c, 1, 44, 0
1, 209759, Note_off_c, 1, 80, 0
1, 209760, Note_on_c, 1, 81, 127
1, 209760, Note_on_c, 1, 75, 127
1, 209760, Note_on_c, 1, 42, 127
1, 209789, Note_off_c, 1, 81, 0
1, 209790, Note_on_c, 1, 78, 127
1, 209819, Note_off_c, 1, 42, 0
1, 209819, Note_off_c, 1, 78, 0
1, 209820, Note_on_c, 1, 72, 127
1, 209820, Note_on_c, 1, 40, 127
1, 209849, Note_off_c, 1, 72, 0
1, 209879, Note_off_c, 1, 75, 0
1, 209880, Note_on_c, 1, 73, 127
1, 209880, Note_on_c, 1, 76, 127
1, 209909, Note_off_c, 1, 73, 0
1, 209939, Note_off_c, 1, 40, 0
1, 209939, Note_off_c, 1, 76, 0
1, 209940, Note_on_c, 1, 70, 127
1, 209940, Note_on_c, 1, 78, 127
1, 209940, Note_on_c, 1, 39, 127
1, 209969, Note_off_c, 1, 70, 0
1, 209970, Note_on_c, 1, 68, 127
1, 209999, Note_off_c, 1, 78, 0
1, 209999, Note_off_c, 1, 39, 0
1, 209999, Note_off_c, 1, 68, 0
1, 210000, Note_on_c, 1, 80, 127
1, 210000, Note_on_c, 1, 76, 127
1, 210000, Note_on_c, 1, 37, 127
1, 210059, Note_off_c, 1, 80, 0
1, 210059, Note_off_c, 1, 76, 0
1, 210059, Note_off_c, 1, 37, 0
1, 210060, Note_on_c, 1, 81, 127
1, 210060, Note_on_c, 1, 49, 127
1, 210119, Note_off_c, 1, 81, 0
1, 210119, Note_off_c, 1, 49, 0
1, 210120, Note_on_c, 1, 80, 127
1, 210120, Note_on_c, 1, 47, 127
1, 210179, Note_off_c, 1, 80, 0
1, 210179, Note_off_c, 1, 47, 0
1, 210180, Note_on_c, 1, 78, 127
1, 210180, Note_on_c, 1, 45, 127
1, 210239, Note_off_c, 1, 78, 0
1, 210239, Note_off_c, 1, 45, 0
1, 210240, Note_on_c, 1, 76, 127
1, 210240, Note_on_c, 1, 44, 127
1, 210269, Note_off_c, 1, 76, 0
1, 210269, Note_off_c, 1, 44, 0
1, 210270, Note_on_c, 1, 75, 127
1, 210270, Note_on_c, 1, 42, 127
1, 210299, Note_off_c, 1, 75, 0
1, 210299, Note_off_c, 1, 42, 0
1, 210300, Note_on_c, 1, 76, 127
1, 210300, Note_on_c, 1, 44, 127
1, 210359, Note_off_c, 1, 76, 0
1, 210359, Note_off_c, 1, 44, 0
1, 210360, Note_on_c, 1, 71, 127
1, 210360, Note_on_c, 1, 39, 127
1, 210390, Note_on_c, 1, 90, 127
1, 210419, Note_off_c, 1, 39, 0
1, 210419, Note_off_c, 1, 90, 0
1, 210420, Note_on_c, 1, 88, 127
1, 210449, Note_off_c, 1, 88, 0
1, 210450, Note_on_c, 1, 87, 127
1, 210479, Note_off_c, 1, 87, 0
1, 210480, Note_on_c, 1, 85, 127
1, 210509, Note_off_c, 1, 85, 0
1, 210510, Note_on_c, 1, 83, 127
1, 210539, Note_off_c, 1, 83, 0
1, 210540, Note_on_c, 1, 81, 127
1, 210540, Note_on_c, 1, 47, 127
1, 210569, Note_off_c, 1, 81, 0
1, 210599, Note_off_c, 1, 47, 0
1, 210660, Note_on_c, 1, 80, 127
1, 210689, Note_off_c, 1, 80, 0
1, 210690, Note_on_c, 1, 78, 127
1, 210719, Note_off_c, 1, 78, 0
1, 210720, Note_on_c, 1, 52, 127
1, 210839, Note_off_c, 1, 71, 0
1, 210840, Note_on_c, 1, 69, 127
1, 210870, Note_on_c, 1, 76, 127
1, 210899, Note_off_c, 1, 69, 0
1, 210899, Note_off_c, 1, 76, 0
1, 210900, Note_on_c, 1, 68, 127
1, 210959, Note_off_c, 1, 68, 0
1, 210960, Note_on_c, 1, 66, 127
1, 211019, Note_off_c, 1, 52, 0
1, 211019, Note_off_c, 1, 66, 0
1, 211020, Note_on_c, 1, 64, 127
1, 211020, Note_on_c, 1, 50, 127
1, 211079, Note_off_c, 1, 64, 0
1, 211079, Note_off_c, 1, 50, 0
1, 211080, Note_on_c, 1, 49, 127
1, 211139, Note_off_c, 1, 49, 0
1, 211140, Note_on_c, 1, 73, 127
1, 211199, Note_off_c, 1, 73, 0
1, 211200, Note_on_c, 1, 57, 127
1, 211259, Note_off_c, 1, 57, 0
1, 211260, Note_on_c, 1, 56, 127
1, 211319, Note_off_c, 1, 56, 0
1, 211320, Note_on_c, 1, 74, 127
1, 211320, Note_on_c, 1, 54, 127
1, 211379, Note_off_c, 1, 74, 0
1, 211379, Note_off_c, 1, 54, 0
1, 211560, Note_on_c, 1, 68, 127
1, 211560, Note_on_c, 1, 71, 127
1, 211560, Note_on_c, 1, 54, 127
1, 211589, Note_off_c, 1, 68, 0
1, 211619, Note_off_c, 1, 71, 0
1, 211619, Note_off_c, 1, 54, 0
1, 211620, Note_on_c, 1, 74, 127
1, 211620, Note_on_c, 1, 56, 127
1, 211649, Note_off_c, 1, 74, 0
1, 211650, Note_on_c, 1, 71, 127
1, 211679, Note_off_c, 1, 56, 0
1, 211679, Note_off_c, 1, 71, 0
1, 211680, Note_on_c, 1, 80, 127
1, 211680, Note_on_c, 1, 54, 127
1, 211709, Note_off_c, 1, 80, 0
1, 211710, Note_on_c, 1, 74, 127
1, 211739, Note_off_c, 1, 54, 0
1, 211739, Note_off_c, 1, 74, 0
1, 211740, Note_on_c, 1, 83, 127
1, 211740, Note_on_c, 1, 76, 127
1, 211740, Note_on_c, 1, 52, 127
1, 211769, Note_off_c, 1, 83, 0
1, 211770, Note_on_c, 1, 74, 127
1, 211799, Note_off_c, 1, 76, 0
1, 211799, Note_off_c, 1, 52, 0
1, 211799, Note_off_c, 1, 74, 0
1, 211800, Note_on_c, 1, 73, 127
1, 211800, Note_on_c, 1, 76, 127
1, 211800, Note_on_c, 1, 57, 127
1, 211829, Note_off_c, 1, 73, 0
1, 211830, Note_on_c, 1, 71, 127
1, 211859, Note_off_c, 1, 57, 0
1, 211859, Note_off_c, 1, 71, 0
1, 211860, Note_on_c, 1, 69, 127
1, 211860, Note_on_c, 1, 61, 127
1, 211889, Note_off_c, 1, 69, 0
1, 211890, Note_on_c, 1, 64, 127
1, 211919, Note_off_c, 1, 61, 0
1, 211919, Note_off_c, 1, 64, 0
1, 211920, Note_on_c, 1, 59, 127
1, 211979, Note_off_c, 1, 59, 0
1, 211980, Note_on_c, 1, 58, 127
1, 212039, Note_off_c, 1, 76, 0
1, 212039, Note_off_c, 1, 58, 0
1, 212040, Note_on_c, 1, 82, 127
1, 212040, Note_on_c, 1, 75, 127
1, 212040, Note_on_c, 1, 56, 127
1, 212069, Note_off_c, 1, 82, 0
1, 212069, Note_off_c, 1, 75, 0
1, 212070, Note_on_c, 1, 76, 127
1, 212070, Note_on_c, 1, 73, 127
1, 212099, Note_off_c, 1, 56, 0
1, 212099, Note_off_c, 1, 76, 0
1, 212099, Note_off_c, 1, 73, 0
1, 212100, Note_on_c, 1, 85, 127
1, 212100, Note_on_c, 1, 71, 127
1, 212100, Note_on_c, 1, 54, 127
1, 212129, Note_off_c, 1, 85, 0
1, 212129, Note_off_c, 1, 71, 0
1, 212130, Note_on_c, 1, 76, 127
1, 212130, Note_on_c, 1, 70, 127
1, 212159, Note_off_c, 1, 54, 0
1, 212159, Note_off_c, 1, 76, 0
1, 212159, Note_off_c, 1, 70, 0
1, 212160, Note_on_c, 1, 75, 127
1, 212160, Note_on_c, 1, 78, 127
1, 212160, Note_on_c, 1, 59, 127
1, 212189, Note_off_c, 1, 75, 0
1, 212190, Note_on_c, 1, 73, 127
1, 212219, Note_off_c, 1, 78, 0
1, 212219, Note_off_c, 1, 73, 0
1, 212220, Note_on_c, 1, 71, 127
1, 212249, Note_off_c, 1, 71, 0
1, 212250, Note_on_c, 1, 66, 127
1, 212279, Note_off_c, 1, 66, 0
1, 212370, Note_on_c, 1, 69, 127
1, 212399, Note_off_c, 1, 59, 0
1, 212399, Note_off_c, 1, 69, 0
1, 212400, Note_on_c, 1, 83, 127
1, 212400, Note_on_c, 1, 54, 127
1, 212429, Note_off_c, 1, 83, 0
1, 212430, Note_on_c, 1, 69, 127
1, 212459, Note_off_c, 1, 54, 0
1, 212459, Note_off_c, 1, 69, 0
1, 212460, Note_on_c, 1, 87, 127
1, 212460, Note_on_c, 1, 66, 127
1, 212460, Note_on_c, 1, 51, 127
1, 212489, Note_off_c, 1, 87, 0
1, 212490, Note_on_c, 1, 69, 127
1, 212519, Note_off_c, 1, 66, 0
1, 212519, Note_off_c, 1, 51, 0
1, 212519, Note_off_c, 1, 69, 0
1, 212520, Note_on_c, 1, 88, 127
1, 212520, Note_on_c, 1, 68, 127
1, 212520, Note_on_c, 1, 47, 127
1, 212549, Note_off_c, 1, 88, 0
1, 212550, Note_on_c, 1, 83, 127
1, 212579, Note_off_c, 1, 68, 0
1, 212579, Note_off_c, 1, 47, 0
1, 212579, Note_off_c, 1, 83, 0
1, 212580, Note_on_c, 1, 80, 127
1, 212580, Note_on_c, 1, 71, 127
1, 212580, Note_on_c, 1, 52, 127
1, 212609, Note_off_c, 1, 80, 0
1, 212610, Note_on_c, 1, 78, 127
1, 212639, Note_off_c, 1, 71, 0
1, 212639, Note_off_c, 1, 52, 0
1, 212639, Note_off_c, 1, 78, 0
1, 212640, Note_on_c, 1, 76, 127
1, 212640, Note_on_c, 1, 56, 127
1, 212670, Note_on_c, 1, 71, 127
1, 212699, Note_off_c, 1, 76, 0
1, 212699, Note_off_c, 1, 56, 0
1, 212699, Note_off_c, 1, 71, 0
1, 212700, Note_on_c, 1, 76, 127
1, 212700, Note_on_c, 1, 80, 127
1, 212700, Note_on_c, 1, 47, 127
1, 212729, Note_off_c, 1, 76, 0
1, 212759, Note_off_c, 1, 80, 0
1, 212759, Note_off_c, 1, 47, 0
1, 212760, Note_on_c, 1, 83, 127
1, 212760, Note_on_c, 1, 78, 127
1, 212760, Note_on_c, 1, 52, 127
1, 212789, Note_off_c, 1, 83, 0
1, 212790, Note_on_c, 1, 80, 127
1, 212819, Note_off_c, 1, 78, 0
1, 212819, Note_off_c, 1, 52, 0
1, 212819, Note_off_c, 1, 80, 0
1, 212820, Note_on_c, 1, 88, 127
1, 212820, Note_on_c, 1, 76, 127
1, 212820, Note_on_c, 1, 56, 127
1, 212849, Note_off_c, 1, 88, 0
1, 212850, Note_on_c, 1, 83, 127
1, 212879, Note_off_c, 1, 76, 0
1, 212879, Note_off_c, 1, 56, 0
1, 212879, Note_off_c, 1, 83, 0
1, 212880, Note_on_c, 1, 90, 127
1, 212880, Note_on_c, 1, 78, 127
1, 212880, Note_on_c, 1, 47, 127
1, 212909, Note_off_c, 1, 90, 0
1, 212910, Note_on_c, 1, 87, 127
1, 212939, Note_off_c, 1, 47, 0
1, 212939, Note_off_c, 1, 87, 0
1, 212940, Note_on_c, 1, 81, 127
1, 212940, Note_on_c, 1, 51, 127
1, 212969, Note_off_c, 1, 81, 0
1, 212970, Note_on_c, 1, 80, 127
1, 212999, Note_off_c, 1, 51, 0
1, 212999, Note_off_c, 1, 80, 0
1, 213000, Note_on_c, 1, 54, 127
1, 213030, Note_on_c, 1, 71, 127
1, 213059, Note_off_c, 1, 54, 0
1, 213059, Note_off_c, 1, 71, 0
1, 213119, Note_off_c, 1, 78, 0
1, 213120, Note_on_c, 1, 87, 127
1, 213120, Note_on_c, 1, 80, 127
1, 213120, Note_on_c, 1, 54, 127
1, 213149, Note_off_c, 1, 87, 0
1, 213149, Note_off_c, 1, 80, 0
1, 213150, Note_on_c, 1, 81, 127
1, 213150, Note_on_c, 1, 78, 127
1, 213179, Note_off_c, 1, 54, 0
1, 213179, Note_off_c, 1, 81, 0
1, 213179, Note_off_c, 1, 78, 0
1, 213180, Note_on_c, 1, 90, 127
1, 213180, Note_on_c, 1, 76, 127
1, 213180, Note_on_c, 1, 57, 127
1, 213209, Note_off_c, 1, 90, 0
1, 213209, Note_off_c, 1, 76, 0
1, 213210, Note_on_c, 1, 87, 127
1, 213210, Note_on_c, 1, 75, 127
1, 213239, Note_off_c, 1, 57, 0
1, 213239, Note_off_c, 1, 87, 0
1, 213239, Note_off_c, 1, 75, 0
1, 213240, Note_on_c, 1, 92, 127
1, 213240, Note_on_c, 1, 76, 127
1, 213240, Note_on_c, 1, 56, 127
1, 213269, Note_off_c, 1, 92, 0
1, 213269, Note_off_c, 1, 76, 0
1, 213270, Note_on_c, 1, 87, 127
1, 213270, Note_on_c, 1, 78, 127
1, 213299, Note_off_c, 1, 56, 0
1, 213299, Note_off_c, 1, 87, 0
1, 213299, Note_off_c, 1, 78, 0
1, 213300, Note_on_c, 1, 88, 127
1, 213300, Note_on_c, 1, 76, 127
1, 213300, Note_on_c, 1, 61, 127
1, 213329, Note_off_c, 1, 88, 0
1, 213329, Note_off_c, 1, 76, 0
1, 213330, Note_on_c, 1, 83, 127
1, 213330, Note_on_c, 1, 75, 127
1, 213359, Note_off_c, 1, 61, 0
1, 213359, Note_off_c, 1, 83, 0
1, 213359, Note_off_c, 1, 75, 0
1, 213360, Note_on_c, 1, 80, 127
1, 213360, Note_on_c, 1, 76, 127
1, 213360, Note_on_c, 1, 57, 127
1, 213389, Note_off_c, 1, 80, 0
1, 213389, Note_off_c, 1, 76, 0
1, 213390, Note_on_c, 1, 73, 127
1, 213419, Note_off_c, 1, 57, 0
1, 213419, Note_off_c, 1, 73, 0
1, 213420, Note_on_c, 1, 71, 127
1, 213420, Note_on_c, 1, 75, 127
1, 213420, Note_on_c, 1, 59, 127
1, 213449, Note_off_c, 1, 71, 0
1, 213450, Note_on_c, 1, 73, 127
1, 213464, Note_off_c, 1, 73, 0
1, 213480, Note_on_c, 1, 76, 127
1, 213494, Note_off_c, 1, 76, 0
1, 213495, Note_on_c, 1, 78, 127
1, 213509, Note_off_c, 1, 78, 0
1, 213510, Note_on_c, 1, 80, 127
1, 213524, Note_off_c, 1, 80, 0
1, 213525, Note_on_c, 1, 81, 127
1, 213539, Note_off_c, 1, 59, 0
1, 213539, Note_off_c, 1, 81, 0
1, 213540, Note_on_c, 1, 83, 127
1, 213540, Note_on_c, 1, 47, 127
1, 213554, Note_off_c, 1, 83, 0
1, 213555, Note_on_c, 1, 85, 127
1, 213569, Note_off_c, 1, 85, 0
1, 213570, Note_on_c, 1, 87, 127
1, 213599, Note_off_c, 1, 75, 0
1, 213599, Note_off_c, 1, 47, 0
1, 213599, Note_off_c, 1, 87, 0
1, 213600, Note_on_c, 1, 88, 127
1, 213600, Note_on_c, 1, 76, 127
1, 213600, Note_on_c, 1, 40, 127
1, 213629, Note_off_c, 1, 88, 0
1, 213630, Note_on_c, 1, 83, 127
1, 213659, Note_off_c, 1, 83, 0
1, 213660, Note_on_c, 1, 80, 127
1, 213689, Note_off_c, 1, 80, 0
1, 213720, Note_on_c, 1, 71, 127
1, 213749, Note_off_c, 1, 71, 0
1, 213750, Note_on_c, 1, 68, 127
1, 213779, Note_off_c, 1, 76, 0
1, 213779, Note_off_c, 1, 68, 0
1, 213780, Note_on_c, 1, 64, 127
1, 213839, Note_off_c, 1, 40, 0
1, 213840, Note_on_c, 1, 44, 127
1, 213899, Note_off_c, 1, 44, 0
1, 213900, Note_on_c, 1, 73, 127
1, 213900, Note_on_c, 1, 47, 127
1, 213959, Note_off_c, 1, 73, 0
1, 213959, Note_off_c, 1, 47, 0
1, 213960, Note_on_c, 1, 50, 127
1, 214020, Note_on_c, 1, 69, 127
1, 214079, Note_off_c, 1, 50, 0
1, 214079, Note_off_c, 1, 69, 0
1, 214260, Note_on_c, 1, 74, 127
1, 214319, Note_off_c, 1, 74, 0
1, 214320, Note_on_c, 1, 45, 127
1, 214380, Note_on_c, 1, 75, 127
1, 214439, Note_off_c, 1, 45, 0
1, 214439, Note_off_c, 1, 75, 0
1, 214500, Note_on_c, 1, 49, 127
1, 214590, Note_on_c, 1, 66, 127
1, 214619, Note_off_c, 1, 49, 0
1, 214619, Note_off_c, 1, 66, 0
1, 214680, Note_on_c, 1, 46, 127
1, 214739, Note_off_c, 1, 64, 0
1, 214740, Note_on_c, 1, 63, 127
1, 214769, Note_off_c, 1, 63, 0
1, 214799, Note_off_c, 1, 46, 0
1, 214800, Note_on_c, 1, 70, 127
1, 214829, Note_off_c, 1, 70, 0
1, 214920, Note_on_c, 1, 42, 127
1, 214979, Note_off_c, 1, 42, 0
1, 215160, Note_on_c, 1, 69, 127
1, 215160, Note_on_c, 1, 45, 127
1, 215219, Note_off_c, 1, 69, 0
1, 215219, Note_off_c, 1, 45, 0
1, 215220, Note_on_c, 1, 71, 127
1, 215220, Note_on_c, 1, 44, 127
1, 215279, Note_off_c, 1, 71, 0
1, 215280, Note_on_c, 1, 73, 127
1, 215339, Note_off_c, 1, 44, 0
1, 215339, Note_off_c, 1, 73, 0
1, 215340, Note_on_c, 1, 75, 127
1, 215340, Note_on_c, 1, 42, 127
1, 215399, Note_off_c, 1, 75, 0
1, 215399, Note_off_c, 1, 42, 0
1, 215400, Note_on_c, 1, 76, 127
1, 215400, Note_on_c, 1, 44, 127
1, 215459, Note_off_c, 1, 76, 0
1, 215460, Note_on_c, 1, 78, 127
1, 215519, Note_off_c, 1, 44, 0
1, 215519, Note_off_c, 1, 78, 0
1, 215520, Note_on_c, 1, 80, 127
1, 215520, Note_on_c, 1, 40, 127
1, 215579, Note_off_c, 1, 80, 0
1, 215579, Note_off_c, 1, 40, 0
1, 215580, Note_on_c, 1, 73, 127
1, 215580, Note_on_c, 1, 45, 127
1, 215609, Note_off_c, 1, 73, 0
1, 215610, Note_on_c, 1, 69, 127
1, 215639, Note_off_c, 1, 69, 0
1, 215640, Note_on_c, 1, 71, 127
1, 215669, Note_off_c, 1, 71, 0
1, 215699, Note_off_c, 1, 45, 0
1, 215700, Note_on_c, 1, 75, 127
1, 215700, Note_on_c, 1, 44, 127
1, 215729, Note_off_c, 1, 75, 0
1, 215730, Note_on_c, 1, 76, 127
1, 215759, Note_off_c, 1, 44, 0
1, 215759, Note_off_c, 1, 76, 0
1, 215760, Note_on_c, 1, 78, 127
1, 215760, Note_on_c, 1, 45, 127
1, 215789, Note_off_c, 1, 78, 0
1, 215790, Note_on_c, 1, 80, 127
1, 215819, Note_off_c, 1, 45, 0
1, 215819, Note_off_c, 1, 80, 0
1, 215820, Note_on_c, 1, 81, 127
1, 215820, Note_on_c, 1, 42, 127
1, 215849, Note_off_c, 1, 81, 0
1, 215850, Note_on_c, 1, 80, 127
1, 215879, Note_off_c, 1, 42, 0
1, 215879, Note_off_c, 1, 80, 0
1, 215880, Note_on_c, 1, 78, 127
1, 215880, Note_on_c, 1, 45, 127
1, 215909, Note_off_c, 1, 78, 0
1, 215910, Note_on_c, 1, 76, 127
1, 215939, Note_off_c, 1, 45, 0
1, 215939, Note_off_c, 1, 76, 0
1, 215940, Note_on_c, 1, 75, 127
1, 215940, Note_on_c, 1, 47, 127
1, 215969, Note_off_c, 1, 75, 0
1, 215970, Note_on_c, 1, 78, 127
1, 215999, Note_off_c, 1, 47, 0
1, 215999, Note_off_c, 1, 78, 0
1, 216000, Note_on_c, 1, 76, 127
1, 216000, Note_on_c, 1, 49, 127
1, 216029, Note_off_c, 1, 76, 0
1, 216030, Note_on_c, 1, 75, 127
1, 216059, Note_off_c, 1, 49, 0
1, 216059, Note_off_c, 1, 75, 0
1, 216060, Note_on_c, 1, 73, 127
1, 216060, Note_on_c, 1, 51, 127
1, 216089, Note_off_c, 1, 73, 0
1, 216090, Note_on_c, 1, 71, 127
1, 216119, Note_off_c, 1, 51, 0
1, 216119, Note_off_c, 1, 71, 0
1, 216120, Note_on_c, 1, 80, 127
1, 216120, Note_on_c, 1, 52, 127
1, 216179, Note_off_c, 1, 80, 0
1, 216179, Note_off_c, 1, 52, 0
1, 216180, Note_on_c, 1, 78, 127
1, 216180, Note_on_c, 1, 57, 127
1, 216209, Note_off_c, 1, 78, 0
1, 216210, Note_on_c, 1, 75, 127
1, 216239, Note_off_c, 1, 57, 0
1, 216239, Note_off_c, 1, 75, 0
1, 216240, Note_on_c, 1, 76, 127
1, 216240, Note_on_c, 1, 54, 127
1, 216269, Note_off_c, 1, 76, 0
1, 216270, Note_on_c, 1, 73, 127
1, 216299, Note_off_c, 1, 54, 0
1, 216299, Note_off_c, 1, 73, 0
1, 216300, Note_on_c, 1, 75, 127
1, 216300, Note_on_c, 1, 59, 127
1, 216419, Note_off_c, 1, 75, 0
1, 216419, Note_off_c, 1, 59, 0
1, 216420, Note_on_c, 1, 76, 127
1, 216420, Note_on_c, 1, 47, 127
1, 216479, Note_off_c, 1, 76, 0
1, 216479, Note_off_c, 1, 47, 0
1, 216480, Note_on_c, 1, 76, 127
1, 216480, Note_on_c, 1, 40, 127
1, 216539, Note_off_c, 1, 40, 0
1, 216540, Note_on_c, 1, 44, 127
1, 216599, Note_off_c, 1, 44, 0
1, 216600, Note_on_c, 1, 47, 127
1, 216659, Note_off_c, 1, 76, 0
1, 216659, Note_off_c, 1, 47, 0
1, 216660, Note_on_c, 1, 64, 127
1, 216660, Note_on_c, 1, 52, 127
1, 216689, Note_off_c, 1, 64, 0
1, 216690, Note_on_c, 1, 68, 127
1, 216719, Note_off_c, 1, 68, 0
1, 216720, Note_on_c, 1, 71, 127
1, 216749, Note_off_c, 1, 71, 0
1, 216750, Note_on_c, 1, 76, 127
1, 216779, Note_off_c, 1, 76, 0
1, 216780, Note_on_c, 1, 80, 127
1, 216809, Note_off_c, 1, 80, 0
1, 216810, Note_on_c, 1, 83, 127
1, 216839, Note_off_c, 1, 83, 0
1, 216899, Note_off_c, 1, 52, 0
1, 216900, Note_on_c, 1, 78, 127
1, 216900, Note_on_c, 1, 51, 127
1, 216959, Note_off_c, 1, 78, 0
1, 216959, Note_off_c, 1, 51, 0
1, 216960, Note_on_c, 1, 81, 127
1, 216960, Note_on_c, 1, 49, 127
1, 217019, Note_off_c, 1, 49, 0
1, 217020, Note_on_c, 1, 47, 127
1, 217079, Note_off_c, 1, 81, 0
1, 217080, Note_on_c, 1, 80, 127
1, 217139, Note_off_c, 1, 47, 0
1, 217139, Note_off_c, 1, 80, 0
1, 217140, Note_on_c, 1, 78, 127
1, 217140, Note_on_c, 1, 45, 127
1, 217199, Note_off_c, 1, 78, 0
1, 217199, Note_off_c, 1, 45, 0
1, 217200, Note_on_c, 1, 75, 127
1, 217200, Note_on_c, 1, 47, 127
1, 217259, Note_off_c, 1, 47, 0
1, 217260, Note_on_c, 1, 49, 127
1, 217289, Note_off_c, 1, 75, 0
1, 217290, Note_on_c, 1, 73, 127
1, 217319, Note_off_c, 1, 49, 0
1, 217319, Note_off_c, 1, 73, 0
1, 217320, Note_on_c, 1, 71, 127
1, 217320, Note_on_c, 1, 51, 127
1, 217349, Note_off_c, 1, 71, 0
1, 217350, Note_on_c, 1, 69, 127
1, 217379, Note_off_c, 1, 51, 0
1, 217379, Note_off_c, 1, 69, 0
1, 217380, Note_on_c, 1, 68, 127
1, 217380, Note_on_c, 1, 52, 127
1, 217409, Note_off_c, 1, 68, 0
1, 217410, Note_on_c, 1, 71, 127
1, 217439, Note_off_c, 1, 52, 0
1, 217439, Note_off_c, 1, 71, 0
1, 217440, Note_on_c, 1, 76, 127
1, 217440, Note_on_c, 1, 56, 127
1, 217469, Note_off_c, 1, 76, 0
1, 217470, Note_on_c, 1, 80, 127
1, 217499, Note_off_c, 1, 56, 0
1, 217499, Note_off_c, 1, 80, 0
1, 217500, Note_on_c, 1, 83, 127
1, 217500, Note_on_c, 1, 52, 127
1, 217529, Note_off_c, 1, 83, 0
1, 217530, Note_on_c, 1, 86, 127
1, 217559, Note_off_c, 1, 52, 0
1, 217559, Note_off_c, 1, 86, 0
1, 217560, Note_on_c, 1, 85, 127
1, 217560, Note_on_c, 1, 57, 127
1, 217589, Note_off_c, 1, 85, 0
1, 217590, Note_on_c, 1, 80, 127
1, 217619, Note_off_c, 1, 80, 0
1, 217620, Note_on_c, 1, 81, 127
1, 217649, Note_off_c, 1, 81, 0
1, 217650, Note_on_c, 1, 76, 127
1, 217679, Note_off_c, 1, 76, 0
1, 217680, Note_on_c, 1, 73, 127
1, 217709, Note_off_c, 1, 73, 0
1, 217710, Note_on_c, 1, 69, 127
1, 217739, Note_off_c, 1, 69, 0
1, 217740, Note_on_c, 1, 66, 127
1, 217769, Note_off_c, 1, 66, 0
1, 217799, Note_off_c, 1, 57, 0
1, 217800, Note_on_c, 1, 75, 127
1, 217800, Note_on_c, 1, 54, 127
1, 217829, Note_off_c, 1, 75, 0
1, 217830, Note_on_c, 1, 78, 127
1, 217859, Note_off_c, 1, 54, 0
1, 217859, Note_off_c, 1, 78, 0
1, 217860, Note_on_c, 1, 81, 127
1, 217860, Note_on_c, 1, 51, 127
1, 217889, Note_off_c, 1, 81, 0
1, 217890, Note_on_c, 1, 85, 127
1, 217919, Note_off_c, 1, 51, 0
1, 217919, Note_off_c, 1, 85, 0
1, 217920, Note_on_c, 1, 83, 127
1, 217920, Note_on_c, 1, 56, 127
1, 217949, Note_off_c, 1, 83, 0
1, 217950, Note_on_c, 1, 78, 127
1, 217979, Note_off_c, 1, 78, 0
1, 217980, Note_on_c, 1, 80, 127
1, 218009, Note_off_c, 1, 80, 0
1, 218010, Note_on_c, 1, 75, 127
1, 218039, Note_off_c, 1, 75, 0
1, 218040, Note_on_c, 1, 71, 127
1, 218069, Note_off_c, 1, 71, 0
1, 218070, Note_on_c, 1, 68, 127
1, 218099, Note_off_c, 1, 68, 0
1, 218100, Note_on_c, 1, 64, 127
1, 218129, Note_off_c, 1, 64, 0
1, 218159, Note_off_c, 1, 56, 0
1, 218160, Note_on_c, 1, 73, 127
1, 218160, Note_on_c, 1, 52, 127
1, 218189, Note_off_c, 1, 73, 0
1, 218190, Note_on_c, 1, 76, 127
1, 218219, Note_off_c, 1, 52, 0
1, 218219, Note_off_c, 1, 76, 0
1, 218220, Note_on_c, 1, 80, 127
1, 218220, Note_on_c, 1, 49, 127
1, 218249, Note_off_c, 1, 80, 0
1, 218250, Note_on_c, 1, 83, 127
1, 218279, Note_off_c, 1, 49, 0
1, 218279, Note_off_c, 1, 83, 0
1, 218280, Note_on_c, 1, 81, 127
1, 218280, Note_on_c, 1, 54, 127
1, 218309, Note_off_c, 1, 81, 0
1, 218310, Note_on_c, 1, 76, 127
1, 218339, Note_off_c, 1, 76, 0
1, 218340, Note_on_c, 1, 78, 127
1, 218369, Note_off_c, 1, 78, 0
1, 218370, Note_on_c, 1, 73, 127
1, 218399, Note_off_c, 1, 73, 0
1, 218400, Note_on_c, 1, 69, 127
1, 218429, Note_off_c, 1, 69, 0
1, 218430, Note_on_c, 1, 66, 127
1, 218459, Note_off_c, 1, 66, 0
1, 218460, Note_on_c, 1, 63, 127
1, 218489, Note_off_c, 1, 63, 0
1, 218519, Note_off_c, 1, 54, 0
1, 218520, Note_on_c, 1, 71, 127
1, 218520, Note_on_c, 1, 51, 127
1, 218549, Note_off_c, 1, 71, 0
1, 218550, Note_on_c, 1, 75, 127
1, 218579, Note_off_c, 1, 51, 0
1, 218579, Note_off_c, 1, 75, 0
1, 218580, Note_on_c, 1, 78, 127
1, 218580, Note_on_c, 1, 47, 127
1, 218609, Note_off_c, 1, 78, 0
1, 218610, Note_on_c, 1, 81, 127
1, 218639, Note_off_c, 1, 47, 0
1, 218639, Note_off_c, 1, 81, 0
1, 218640, Note_on_c, 1, 80, 127
1, 218640, Note_on_c, 1, 52, 127
1, 218669, Note_off_c, 1, 80, 0
1, 218670, Note_on_c, 1, 75, 127
1, 218699, Note_off_c, 1, 75, 0
1, 218700, Note_on_c, 1, 76, 127
1, 218729, Note_off_c, 1, 76, 0
1, 218730, Note_on_c, 1, 71, 127
1, 218759, Note_off_c, 1, 71, 0
1, 218760, Note_on_c, 1, 68, 127
1, 218789, Note_off_c, 1, 68, 0
1, 218820, Note_on_c, 1, 74, 127
1, 218849, Note_off_c, 1, 74, 0
1, 218879, Note_off_c, 1, 52, 0
1, 218880, Note_on_c, 1, 80, 127
1, 218880, Note_on_c, 1, 40, 127
1, 218909, Note_off_c, 1, 80, 0
1, 218910, Note_on_c, 1, 74, 127
1, 218939, Note_off_c, 1, 40, 0
1, 218939, Note_off_c, 1, 74, 0
1, 218940, Note_on_c, 1, 83, 127
1, 218940, Note_on_c, 1, 44, 127
1, 218969, Note_off_c, 1, 83, 0
1, 218970, Note_on_c, 1, 74, 127
1, 218999, Note_off_c, 1, 44, 0
1, 218999, Note_off_c, 1, 74, 0
1, 219000, Note_on_c, 1, 73, 127
1, 219000, Note_on_c, 1, 45, 127
1, 219029, Note_off_c, 1, 73, 0
1, 219030, Note_on_c, 1, 71, 127
1, 219059, Note_off_c, 1, 71, 0
1, 219060, Note_on_c, 1, 69, 127
1, 219089, Note_off_c, 1, 69, 0
1, 219090, Note_on_c, 1, 64, 127
1, 219119, Note_off_c, 1, 64, 0
1, 219180, Note_on_c, 1, 76, 127
1, 219209, Note_off_c, 1, 76, 0
1, 219239, Note_off_c, 1, 45, 0
1, 219240, Note_on_c, 1, 82, 127
1, 219240, Note_on_c, 1, 49, 127
1, 219269, Note_off_c, 1, 82, 0
1, 219270, Note_on_c, 1, 76, 127
1, 219299, Note_off_c, 1, 49, 0
1, 219299, Note_off_c, 1, 76, 0
1, 219300, Note_on_c, 1, 85, 127
1, 219300, Note_on_c, 1, 42, 127
1, 219329, Note_off_c, 1, 85, 0
1, 219330, Note_on_c, 1, 76, 127
1, 219359, Note_off_c, 1, 42, 0
1, 219359, Note_off_c, 1, 76, 0
1, 219360, Note_on_c, 1, 75, 127
1, 219360, Note_on_c, 1, 47, 127
1, 219389, Note_off_c, 1, 75, 0
1, 219390, Note_on_c, 1, 73, 127
1, 219419, Note_off_c, 1, 73, 0
1, 219420, Note_on_c, 1, 71, 127
1, 219449, Note_off_c, 1, 71, 0
1, 219450, Note_on_c, 1, 66, 127
1, 219479, Note_off_c, 1, 66, 0
1, 219540, Note_on_c, 1, 78, 127
1, 219569, Note_off_c, 1, 78, 0
1, 219570, Note_on_c, 1, 69, 127
1, 219599, Note_off_c, 1, 47, 0
1, 219599, Note_off_c, 1, 69, 0
1, 219600, Note_on_c, 1, 83, 127
1, 219600, Note_on_c, 1, 51, 127
1, 219629, Note_off_c, 1, 83, 0
1, 219630, Note_on_c, 1, 69, 127
1, 219659, Note_off_c, 1, 51, 0
1, 219659, Note_off_c, 1, 69, 0
1, 219660, Note_on_c, 1, 87, 127
1, 219660, Note_on_c, 1, 54, 127
1, 219689, Note_off_c, 1, 87, 0
1, 219690, Note_on_c, 1, 69, 127
1, 219719, Note_off_c, 1, 54, 0
1, 219719, Note_off_c, 1, 69, 0
1, 219720, Note_on_c, 1, 88, 127
1, 219720, Note_on_c, 1, 47, 127
1, 219749, Note_off_c, 1, 88, 0
1, 219750, Note_on_c, 1, 83, 127
1, 219779, Note_off_c, 1, 83, 0
1, 219780, Note_on_c, 1, 80, 127
1, 219809, Note_off_c, 1, 80, 0
1, 219810, Note_on_c, 1, 78, 127
1, 219839, Note_off_c, 1, 78, 0
1, 219840, Note_on_c, 1, 76, 127
1, 219869, Note_off_c, 1, 76, 0
1, 219870, Note_on_c, 1, 71, 127
1, 219899, Note_off_c, 1, 71, 0
1, 219959, Note_off_c, 1, 47, 0
1, 219960, Note_on_c, 1, 83, 127
1, 219960, Note_on_c, 1, 52, 127
1, 219989, Note_off_c, 1, 83, 0
1, 219990, Note_on_c, 1, 80, 127
1, 220019, Note_off_c, 1, 52, 0
1, 220019, Note_off_c, 1, 80, 0
1, 220020, Note_on_c, 1, 88, 127
1, 220020, Note_on_c, 1, 56, 127
1, 220049, Note_off_c, 1, 88, 0
1, 220050, Note_on_c, 1, 83, 127
1, 220079, Note_off_c, 1, 56, 0
1, 220079, Note_off_c, 1, 83, 0
1, 220080, Note_on_c, 1, 90, 127
1, 220080, Note_on_c, 1, 47, 127
1, 220109, Note_off_c, 1, 90, 0
1, 220110, Note_on_c, 1, 87, 127
1, 220139, Note_off_c, 1, 87, 0
1, 220140, Note_on_c, 1, 81, 127
1, 220169, Note_off_c, 1, 81, 0
1, 220170, Note_on_c, 1, 80, 127
1, 220199, Note_off_c, 1, 80, 0
1, 220200, Note_on_c, 1, 78, 127
1, 220229, Note_off_c, 1, 78, 0
1, 220230, Note_on_c, 1, 71, 127
1, 220259, Note_off_c, 1, 71, 0
1, 220319, Note_off_c, 1, 47, 0
1, 220320, Note_on_c, 1, 87, 127
1, 220320, Note_on_c, 1, 54, 127
1, 220349, Note_off_c, 1, 87, 0
1, 220350, Note_on_c, 1, 81, 127
1, 220379, Note_off_c, 1, 54, 0
1, 220379, Note_off_c, 1, 81, 0
1, 220380, Note_on_c, 1, 90, 127
1, 220380, Note_on_c, 1, 59, 127
1, 220409, Note_off_c, 1, 90, 0
1, 220410, Note_on_c, 1, 87, 127
1, 220439, Note_off_c, 1, 59, 0
1, 220439, Note_off_c, 1, 87, 0
1, 220440, Note_on_c, 1, 92, 127
1, 220440, Note_on_c, 1, 52, 127
1, 220469, Note_off_c, 1, 92, 0
1, 220470, Note_on_c, 1, 87, 127
1, 220499, Note_off_c, 1, 52, 0
1, 220499, Note_off_c, 1, 87, 0
1, 220500, Note_on_c, 1, 88, 127
1, 220500, Note_on_c, 1, 56, 127
1, 220529, Note_off_c, 1, 88, 0
1, 220530, Note_on_c, 1, 83, 127
1, 220559, Note_off_c, 1, 56, 0
1, 220559, Note_off_c, 1, 83, 0
1, 220560, Note_on_c, 1, 80, 127
1, 220560, Note_on_c, 1, 57, 127
1, 220589, Note_off_c, 1, 80, 0
1, 220590, Note_on_c, 1, 76, 127
1, 220619, Note_off_c, 1, 57, 0
1, 220619, Note_off_c, 1, 76, 0
1, 220620, Note_on_c, 1, 71, 127
1, 220620, Note_on_c, 1, 59, 127
1, 220649, Note_off_c, 1, 71, 0
1, 220650, Note_on_c, 1, 73, 127
1, 220664, Note_off_c, 1, 73, 0
1, 220665, Note_on_c, 1, 75, 127
1, 220679, Note_off_c, 1, 75, 0
1, 220680, Note_on_c, 1, 76, 127
1, 220694, Note_off_c, 1, 76, 0
1, 220695, Note_on_c, 1, 78, 127
1, 220709, Note_off_c, 1, 78, 0
1, 220710, Note_on_c, 1, 80, 127
1, 220724, Note_off_c, 1, 80, 0
1, 220725, Note_on_c, 1, 81, 127
1, 220739, Note_off_c, 1, 59, 0
1, 220739, Note_off_c, 1, 81, 0
1, 220740, Note_on_c, 1, 83, 127
1, 220740, Note_on_c, 1, 47, 127
1, 220754, Note_off_c, 1, 83, 0
1, 220755, Note_on_c, 1, 85, 127
1, 220769, Note_off_c, 1, 85, 0
1, 220770, Note_on_c, 1, 87, 127
1, 220799, Note_off_c, 1, 47, 0
1, 220799, Note_off_c, 1, 87, 0
1, 220800, Note_on_c, 1, 88, 127
1, 220800, Note_on_c, 1, 40, 127
1, 220829, Note_off_c, 1, 88, 0
1, 220830, Note_on_c, 1, 83, 127
1, 220859, Note_off_c, 1, 40, 0
1, 220859, Note_off_c, 1, 83, 0
1, 220860, Note_on_c, 1, 80, 127
1, 220860, Note_on_c, 1, 44, 127
1, 220889, Note_off_c, 1, 80, 0
1, 220890, Note_on_c, 1, 76, 127
1, 220919, Note_off_c, 1, 44, 0
1, 220919, Note_off_c, 1, 76, 0
1, 220920, Note_on_c, 1, 71, 127
1, 220920, Note_on_c, 1, 47, 127
1, 220949, Note_off_c, 1, 71, 0
1, 220950, Note_on_c, 1, 68, 127
1, 220979, Note_off_c, 1, 47, 0
1, 220979, Note_off_c, 1, 68, 0
1, 220980, Note_on_c, 1, 64, 127
1, 220980, Note_on_c, 1, 52, 127
1, 221099, Note_off_c, 1, 64, 0
1, 221099, Note_off_c, 1, 52, 0
1, 221520, Note_on_c, 1, 70, 127
1, 221520, Note_on_c, 1, 66, 127
1, 221520, Note_on_c, 1, 61, 127
1, 221520, Note_on_c, 1, 46, 127
1, 221700, Note_on_c, 1, 78, 127
1, 221759, Note_off_c, 1, 78, 0
1, 221790, Note_on_c, 1, 73, 127
1, 221819, Note_off_c, 1, 73, 0
1, 222000, Note_on_c, 1, 76, 127
1, 222029, Note_off_c, 1, 76, 0
1, 222060, Note_on_c, 1, 79, 127
1, 222089, Note_off_c, 1, 79, 0
1, 222239, Note_off_c, 1, 70, 0
1, 222239, Note_off_c, 1, 66, 0
1, 222239, Note_off_c, 1, 61, 0
1, 222239, Note_off_c, 1, 46, 0
1, 222240, Note_on_c, 1, 74, 127
1, 222240, Note_on_c, 1, 62, 127
1, 222240, Note_on_c, 1, 66, 127
1, 222240, Note_on_c, 1, 71, 127
1, 222240, Note_on_c, 1, 47, 127
1, 222299, Note_off_c, 1, 74, 0
1, 222420, Note_on_c, 1, 78, 127
1, 222479, Note_off_c, 1, 78, 0
1, 222600, Note_on_c, 1, 73, 127
1, 222659, Note_off_c, 1, 73, 0
1, 222719, Note_off_c, 1, 62, 0
1, 222719, Note_off_c, 1, 66, 0
1, 222719, Note_off_c, 1, 71, 0
1, 222719, Note_off_c, 1, 47, 0
1, 222720, Note_on_c, 1, 80, 127
1, 222720, Note_on_c, 1, 68, 127
1, 222720, Note_on_c, 1, 71, 127
1, 222720, Note_on_c, 1, 53, 127
1, 222749, Note_off_c, 1, 80, 0
1, 222960, Note_on_c, 1, 73, 127
1, 223019, Note_off_c, 1, 73, 0
1, 223080, Note_on_c, 1, 65, 127
1, 223109, Note_off_c, 1, 65, 0
1, 223170, Note_on_c, 1, 66, 127
1, 223199, Note_off_c, 1, 66, 0
1, 223260, Note_on_c, 1, 61, 127
1, 223319, Note_off_c, 1, 61, 0
1, 223410, Note_on_c, 1, 69, 127
1, 223439, Note_off_c, 1, 69, 0
1, 223560, Note_on_c, 1, 74, 127
1, 223619, Note_off_c, 1, 74, 0
1, 223680, Note_off_c, 1, 68, 0
1, 223680, Note_off_c, 1, 71, 0
1, 223680, Note_off_c, 1, 53, 0
1, 223680, Note_on_c, 1, 54, 127
1, 223860, Note_on_c, 1, 49, 127
1, 223919, Note_off_c, 1, 49, 0
1, 224100, Note_on_c, 1, 56, 127
1, 224159, Note_off_c, 1, 56, 0
1, 224160, Note_on_c, 1, 57, 127
1, 224219, Note_off_c, 1, 57, 0
1, 224400, Note_on_c, 1, 63, 127
1, 224429, Note_off_c, 1, 63, 0
1, 224490, Note_on_c, 1, 64, 127
1, 224519, Note_off_c, 1, 64, 0
1, 224580, Note_on_c, 1, 59, 127
1, 224639, Note_off_c, 1, 59, 0
1, 224640, Note_off_c, 1, 54, 0
1, 225060, Note_on_c, 1, 52, 127
1, 225119, Note_off_c, 1, 52, 0
1, 225120, Note_on_c, 1, 70, 127
1, 225120, Note_on_c, 1, 46, 127
1, 225600, Note_on_c, 1, 55, 127
1, 225719, Note_off_c, 1, 55, 0
1, 225810, Note_on_c, 1, 50, 127
1, 225839, Note_off_c, 1, 50, 0
1, 226320, Note_on_c, 1, 58, 127
1, 226379, Note_off_c, 1, 58, 0
1, 226560, Note_off_c, 1, 70, 0
1, 226560, Note_off_c, 1, 46, 0
1, 226560, Note_on_c, 1, 62, 127
1, 226560, Note_on_c, 1, 47, 127
1, 226800, Note_off_c, 1, 47, 0
1, 226800, Note_on_c, 1, 79, 127
1, 226800, Note_on_c, 1, 67, 127
1, 226800, Note_on_c, 1, 43, 127
1, 227040, Note_off_c, 1, 62, 0
1, 227040, Note_on_c, 1, 72, 127
1, 227040, Note_on_c, 1, 76, 127
1, 227159, Note_off_c, 1, 76, 0
1, 227280, Note_off_c, 1, 79, 0
1, 227280, Note_off_c, 1, 67, 0
1, 227280, Note_on_c, 1, 78, 127
1, 227520, Note_off_c, 1, 72, 0
1, 227520, Note_off_c, 1, 78, 0
1, 228000, Note_off_c, 1, 43, 0
1, 228000, Note_on_c, 1, 44, 127
1, 228360, Note_on_c, 1, 83, 127
1, 228360, Note_on_c, 1, 77, 127
1, 228419, Note_off_c, 1, 77, 0
1, 228480, Note_off_c, 1, 44, 0
1, 228480, Note_off_c, 1, 83, 0
1, 228480, Note_on_c, 1, 81, 127
1, 228480, Note_on_c, 1, 60, 127
1, 228480, Note_on_c, 1, 45, 127
1, 228960, Note_off_c, 1, 60, 0
1, 228960, Note_off_c, 1, 45, 0
1, 229680, Note_off_c, 1, 81, 0
1, 229680, Note_on_c, 1, 85, 127
1, 229920, Note_off_c, 1, 85, 0
1, 229920, Note_on_c, 1, 86, 127
1, 230160, Note_off_c, 1, 86, 0
1, 230460, Note_on_c, 1, 71, 127
1, 230519, Note_off_c, 1, 71, 0
1, 230520, Note_on_c, 1, 85, 127
1, 230520, Note_on_c, 1, 76, 127
1, 230520, Note_on_c, 1, 73, 127
1, 230520, Note_on_c, 1, 64, 127
1, 230520, Note_on_c, 1, 66, 127
1, 230520, Note_on_c, 1, 54, 127
1, 230550, Note_off_c, 1, 85, 0
1, 230550, Note_off_c, 1, 76, 0
1, 230550, Note_on_c, 1, 83, 127
1, 230550, Note_on_c, 1, 74, 127
1, 230580, Note_off_c, 1, 73, 0
1, 230580, Note_off_c, 1, 64, 0
1, 230580, Note_off_c, 1, 83, 0
1, 230580, Note_off_c, 1, 74, 0
1, 230580, Note_on_c, 1, 61, 127
1, 230580, Note_on_c, 1, 70, 127
1, 230610, Note_on_c, 1, 82, 127
1, 230639, Note_off_c, 1, 66, 0
1, 230639, Note_off_c, 1, 54, 0
1, 230640, Note_off_c, 1, 61, 0
1, 230640, Note_off_c, 1, 70, 0
1, 230640, Note_off_c, 1, 82, 0
1, 230640, Note_on_c, 1, 71, 127
1, 230640, Note_on_c, 1, 59, 127
1, 230640, Note_on_c, 1, 47, 127
1, 231119, Note_off_c, 1, 71, 0
1, 231119, Note_off_c, 1, 59, 0
1, 231119, Note_off_c, 1, 47, 0
1, 231120, Note_on_c, 1, 81, 127
1, 231120, Note_on_c, 1, 62, 127
1, 231120, Note_on_c, 1, 69, 127
1, 231120, Note_on_c, 1, 42, 127
1, 231239, Note_off_c, 1, 62, 0
1, 231240, Note_on_c, 1, 78, 127
1, 231359, Note_off_c, 1, 69, 0
1, 231359, Note_off_c, 1, 42, 0
1, 231360, Note_off_c, 1, 81, 0
1, 231360, Note_off_c, 1, 78, 0
1, 231360, Note_on_c, 1, 68, 127
1, 231360, Note_on_c, 1, 44, 127
1, 231480, Note_on_c, 1, 56, 127
1, 231539, Note_off_c, 1, 56, 0
1, 231540, Note_on_c, 1, 52, 127
1, 231599, Note_off_c, 1, 68, 0
1, 231599, Note_off_c, 1, 44, 0
1, 231599, Note_off_c, 1, 52, 0
1, 231600, Note_on_c, 1, 45, 127
1, 231839, Note_off_c, 1, 45, 0
1, 231840, Note_on_c, 1, 80, 127
1, 231840, Note_on_c, 1, 41, 127
1, 232079, Note_off_c, 1, 41, 0
1, 232080, Note_off_c, 1, 80, 0
1, 232080, Note_on_c, 1, 57, 127
1, 232199, Note_off_c, 1, 57, 0
1, 232260, Note_on_c, 1, 49, 127
1, 232319, Note_off_c, 1, 49, 0
1, 232560, Note_on_c, 1, 39, 127
1, 232800, Note_on_c, 1, 51, 127
1, 232859, Note_off_c, 1, 51, 0
1, 233039, Note_off_c, 1, 39, 0
1, 233040, Note_on_c, 1, 75, 127
1, 233040, Note_on_c, 1, 63, 127
1, 233040, Note_on_c, 1, 72, 127
1, 233040, Note_on_c, 1, 48, 127
1, 233220, Note_on_c, 1, 60, 127
1, 233249, Note_off_c, 1, 60, 0
1, 233280, Note_off_c, 1, 75, 0
1, 233519, Note_off_c, 1, 63, 0
1, 233519, Note_off_c, 1, 72, 0
1, 233519, Note_off_c, 1, 48, 0
1, 233760, Note_on_c, 1, 58, 127
1, 233879, Note_off_c, 1, 58, 0
1, 234000, Note_on_c, 1, 46, 127
1, 234239, Note_off_c, 1, 46, 0
1, 234240, Note_on_c, 1, 50, 127
1, 234299, Note_off_c, 1, 50, 0
1, 234780, Note_on_c, 1, 57, 127
1, 234839, Note_off_c, 1, 57, 0
1, 234840, Note_on_c, 1, 73, 127
1, 234840, Note_on_c, 1, 64, 127
1, 234840, Note_on_c, 1, 69, 127
1, 234840, Note_on_c, 1, 61, 127
1, 234840, Note_on_c, 1, 45, 127
1, 234870, Note_on_c, 1, 76, 127
1, 234900, Note_off_c, 1, 69, 0
1, 234900, Note_off_c, 1, 76, 0
1, 234900, Note_on_c, 1, 79, 127
1, 234900, Note_on_c, 1, 67, 127
1, 234930, Note_off_c, 1, 79, 0
1, 234959, Note_off_c, 1, 64, 0
1, 234959, Note_off_c, 1, 61, 0
1, 234959, Note_off_c, 1, 45, 0
1, 234960, Note_off_c, 1, 73, 0
1, 234960, Note_off_c, 1, 67, 0
1, 234960, Note_on_c, 1, 78, 127
1, 234960, Note_on_c, 1, 74, 127
1, 234960, Note_on_c, 1, 66, 127
1, 234960, Note_on_c, 1, 62, 127
1, 234960, Note_on_c, 1, 38, 127
1, 235199, Note_off_c, 1, 66, 0
1, 235199, Note_off_c, 1, 62, 0
1, 235199, Note_off_c, 1, 38, 0
1, 235200, Note_off_c, 1, 78, 0
1, 235200, Note_off_c, 1, 74, 0
1, 235560, Note_on_c, 1, 69, 127
1, 235560, Note_on_c, 1, 66, 127
1, 235560, Note_on_c, 1, 62, 127
1, 235560, Note_on_c, 1, 50, 127
1, 235620, Note_on_c, 1, 74, 127
1, 235620, Note_on_c, 1, 38, 127
1, 235650, Note_off_c, 1, 74, 0
1, 235650, Note_on_c, 1, 76, 127
1, 235680, Note_off_c, 1, 66, 0
1, 235680, Note_off_c, 1, 38, 0
1, 235680, Note_off_c, 1, 76, 0
1, 235680, Note_on_c, 1, 78, 127
1, 235680, Note_on_c, 1, 57, 127
1, 235710, Note_off_c, 1, 78, 0
1, 235710, Note_on_c, 1, 79, 127
1, 235740, Note_off_c, 1, 69, 0
1, 235740, Note_off_c, 1, 62, 0
1, 235740, Note_off_c, 1, 79, 0
1, 235740, Note_on_c, 1, 81, 127
1, 235740, Note_on_c, 1, 54, 127
1, 235770, Note_off_c, 1, 81, 0
1, 235800, Note_off_c, 1, 54, 0
1, 235920, Note_off_c, 1, 57, 0
1, 236010, Note_on_c, 1, 64, 127
1, 236040, Note_off_c, 1, 64, 0
1, 236070, Note_on_c, 1, 67, 127
1, 236100, Note_off_c, 1, 67, 0
1, 236370, Note_on_c, 1, 40, 127
1, 236400, Note_off_c, 1, 40, 0
1, 236400, Note_on_c, 1, 42, 127
1, 236430, Note_off_c, 1, 42, 0
1, 236430, Note_on_c, 1, 43, 127
1, 236460, Note_off_c, 1, 43, 0
1, 236460, Note_on_c, 1, 45, 127
1, 236490, Note_off_c, 1, 45, 0
1, 236580, Note_on_c, 1, 86, 127
1, 236640, Note_off_c, 1, 86, 0
1, 236760, Note_on_c, 1, 83, 127
1, 236790, Note_off_c, 1, 83, 0
1, 236880, Note_off_c, 1, 50, 0
1, 237000, Note_on_c, 1, 61, 127
1, 237060, Note_off_c, 1, 61, 0
1, 237180, Note_on_c, 1, 84, 127
1, 237210, Note_off_c, 1, 84, 0
1, 237240, Note_on_c, 1, 51, 127
1, 237300, Note_off_c, 1, 51, 0
1, 237300, Note_on_c, 1, 47, 127
1, 237330, Note_on_c, 1, 71, 127
1, 237360, Note_off_c, 1, 47, 0
1, 237360, Note_off_c, 1, 71, 0
1, 237420, Note_on_c, 1, 52, 127
1, 237480, Note_off_c, 1, 52, 0
1, 237840, Note_on_c, 1, 55, 127
1, 237900, Note_off_c, 1, 55, 0
1, 237960, Note_on_c, 1, 49, 127
1, 238020, Note_off_c, 1, 49, 0
1, 238200, Note_on_c, 1, 81, 127
1, 238200, Note_on_c, 1, 78, 127
1, 238200, Note_on_c, 1, 74, 127
1, 238200, Note_on_c, 1, 50, 127
1, 238200, Note_on_c, 1, 66, 127
1, 238200, Note_on_c, 1, 62, 127
1, 238229, Note_off_c, 1, 50, 0
1, 238229, Note_off_c, 1, 66, 0
1, 238230, Note_on_c, 1, 67, 127
1, 238230, Note_on_c, 1, 64, 127
1, 238259, Note_off_c, 1, 81, 0
1, 238259, Note_off_c, 1, 78, 0
1, 238259, Note_off_c, 1, 74, 0
1, 238259, Note_off_c, 1, 62, 0
1, 238259, Note_off_c, 1, 67, 0
1, 238259, Note_off_c, 1, 64, 0
1, 238260, Note_on_c, 1, 78, 127
1, 238260, Note_on_c, 1, 74, 127
1, 238260, Note_on_c, 1, 69, 127
1, 238260, Note_on_c, 1, 50, 127
1, 238260, Note_on_c, 1, 66, 127
1, 238289, Note_off_c, 1, 66, 0
1, 238290, Note_on_c, 1, 67, 127
1, 238290, Note_on_c, 1, 64, 127
1, 238319, Note_off_c, 1, 78, 0
1, 238319, Note_off_c, 1, 74, 0
1, 238319, Note_off_c, 1, 69, 0
1, 238319, Note_off_c, 1, 50, 0
1, 238319, Note_off_c, 1, 67, 0
1, 238319, Note_off_c, 1, 64, 0
1, 238320, Note_on_c, 1, 78, 127
1, 238320, Note_on_c, 1, 74, 127
1, 238320, Note_on_c, 1, 69, 127
1, 238320, Note_on_c, 1, 50, 127
1, 238320, Note_on_c, 1, 66, 127
1, 238320, Note_on_c, 1, 62, 127
1, 238349, Note_off_c, 1, 66, 0
1, 238349, Note_off_c, 1, 62, 0
1, 238350, Note_on_c, 1, 67, 127
1, 238350, Note_on_c, 1, 64, 127
1, 238379, Note_off_c, 1, 78, 0
1, 238379, Note_off_c, 1, 74, 0
1, 238379, Note_off_c, 1, 69, 0
1, 238379, Note_off_c, 1, 50, 0
1, 238379, Note_off_c, 1, 67, 0
1, 238379, Note_off_c, 1, 64, 0
1, 238380, Note_on_c, 1, 81, 127
1, 238380, Note_on_c, 1, 78, 127
1, 238380, Note_on_c, 1, 74, 127
1, 238380, Note_on_c, 1, 50, 127
1, 238380, Note_on_c, 1, 66, 127
1, 238380, Note_on_c, 1, 62, 127
1, 238409, Note_off_c, 1, 50, 0
1, 238409, Note_off_c, 1, 66, 0
1, 238410, Note_on_c, 1, 67, 127
1, 238410, Note_on_c, 1, 64, 127
1, 238439, Note_off_c, 1, 81, 0
1, 238439, Note_off_c, 1, 78, 0
1, 238439, Note_off_c, 1, 74, 0
1, 238439, Note_off_c, 1, 62, 0
1, 238439, Note_off_c, 1, 67, 0
1, 238439, Note_off_c, 1, 64, 0
1, 238440, Note_on_c, 1, 78, 127
1, 238440, Note_on_c, 1, 74, 127
1, 238440, Note_on_c, 1, 69, 127
1, 238440, Note_on_c, 1, 50, 127
1, 238440, Note_on_c, 1, 66, 127
1, 238499, Note_off_c, 1, 78, 0
1, 238499, Note_off_c, 1, 74, 0
1, 238499, Note_off_c, 1, 69, 0
1, 238499, Note_off_c, 1, 50, 0
1, 238499, Note_off_c, 1, 66, 0
1, 238500, Note_on_c, 1, 83, 127
1, 238500, Note_on_c, 1, 79, 127
1, 238500, Note_on_c, 1, 74, 127
1, 238500, Note_on_c, 1, 50, 127
1, 238500, Note_on_c, 1, 45, 127
1, 238529, Note_off_c, 1, 45, 0
1, 238530, Note_on_c, 1, 57, 127
1, 238559, Note_off_c, 1, 74, 0
1, 238559, Note_off_c, 1, 50, 0
1, 238559, Note_off_c, 1, 57, 0
1, 238560, Note_on_c, 1, 71, 127
1, 238560, Note_on_c, 1, 67, 127
1, 238560, Note_on_c, 1, 55, 127
1, 238589, Note_off_c, 1, 55, 0
1, 238590, Note_on_c, 1, 54, 127
1, 238619, Note_off_c, 1, 71, 0
1, 238619, Note_off_c, 1, 67, 0
1, 238619, Note_off_c, 1, 54, 0
1, 238620, Note_on_c, 1, 52, 127
1, 238649, Note_off_c, 1, 52, 0
1, 238679, Note_off_c, 1, 83, 0
1, 238680, Note_on_c, 1, 76, 127
1, 238680, Note_on_c, 1, 64, 127
1, 238680, Note_on_c, 1, 49, 127
1, 238710, Note_off_c, 1, 79, 0
1, 238710, Note_on_c, 1, 81, 127
1, 238710, Note_on_c, 1, 78, 127
1, 238739, Note_off_c, 1, 76, 0
1, 238739, Note_off_c, 1, 64, 0
1, 238739, Note_off_c, 1, 49, 0
1, 238739, Note_off_c, 1, 81, 0
1, 238739, Note_off_c, 1, 78, 0
1, 238740, Note_on_c, 1, 83, 127
1, 238740, Note_on_c, 1, 79, 127
1, 238740, Note_on_c, 1, 71, 127
1, 238740, Note_on_c, 1, 67, 127
1, 238740, Note_on_c, 1, 61, 127
1, 238769, Note_off_c, 1, 83, 0
1, 238769, Note_off_c, 1, 79, 0
1, 238770, Note_on_c, 1, 85, 127
1, 238770, Note_on_c, 1, 81, 127
1, 238799, Note_off_c, 1, 71, 0
1, 238799, Note_off_c, 1, 67, 0
1, 238799, Note_off_c, 1, 61, 0
1, 238799, Note_off_c, 1, 85, 0
1, 238799, Note_off_c, 1, 81, 0
1, 238800, Note_on_c, 1, 83, 127
1, 238800, Note_on_c, 1, 79, 127
1, 238800, Note_on_c, 1, 64, 127
1, 238800, Note_on_c, 1, 73, 127
1, 238800, Note_on_c, 1, 49, 127
1, 238829, Note_off_c, 1, 83, 0
1, 238829, Note_off_c, 1, 79, 0
1, 238830, Note_on_c, 1, 85, 127
1, 238830, Note_on_c, 1, 81, 127
1, 238859, Note_off_c, 1, 64, 0
1, 238859, Note_off_c, 1, 73, 0
1, 238859, Note_off_c, 1, 49, 0
1, 238859, Note_off_c, 1, 85, 0
1, 238859, Note_off_c, 1, 81, 0
1, 238860, Note_on_c, 1, 81, 127
1, 238860, Note_on_c, 1, 78, 127
1, 238860, Note_on_c, 1, 66, 127
1, 238860, Note_on_c, 1, 42, 127
1, 238889, Note_off_c, 1, 42, 0
1, 238890, Note_on_c, 1, 55, 127
1, 238919, Note_off_c, 1, 66, 0
1, 238919, Note_off_c, 1, 55, 0
1, 238920, Note_on_c, 1, 69, 127
1, 238920, Note_on_c, 1, 54, 127
1, 238949, Note_off_c, 1, 54, 0
1, 238950, Note_on_c, 1, 52, 127
1, 238979, Note_off_c, 1, 69, 0
1, 238979, Note_off_c, 1, 52, 0
1, 238980, Note_on_c, 1, 50, 127
1, 239009, Note_off_c, 1, 50, 0
1, 239010, Note_on_c, 1, 49, 127
1, 239039, Note_off_c, 1, 81, 0
1, 239039, Note_off_c, 1, 49, 0
1, 239040, Note_on_c, 1, 62, 127
1, 239040, Note_on_c, 1, 47, 127
1, 239070, Note_off_c, 1, 78, 0
1, 239070, Note_on_c, 1, 79, 127
1, 239070, Note_on_c, 1, 76, 127
1, 239099, Note_off_c, 1, 62, 0
1, 239099, Note_off_c, 1, 47, 0
1, 239099, Note_off_c, 1, 79, 0
1, 239099, Note_off_c, 1, 76, 0
1, 239100, Note_on_c, 1, 81, 127
1, 239100, Note_on_c, 1, 78, 127
1, 239100, Note_on_c, 1, 69, 127
1, 239100, Note_on_c, 1, 66, 127
1, 239100, Note_on_c, 1, 59, 127
1, 239129, Note_off_c, 1, 81, 0
1, 239129, Note_off_c, 1, 78, 0
1, 239130, Note_on_c, 1, 83, 127
1, 239130, Note_on_c, 1, 79, 127
1, 239159, Note_off_c, 1, 69, 0
1, 239159, Note_off_c, 1, 66, 0
1, 239159, Note_off_c, 1, 59, 0
1, 239159, Note_off_c, 1, 83, 0
1, 239159, Note_off_c, 1, 79, 0
1, 239160, Note_on_c, 1, 81, 127
1, 239160, Note_on_c, 1, 78, 127
1, 239160, Note_on_c, 1, 62, 127
1, 239160, Note_on_c, 1, 71, 127
1, 239160, Note_on_c, 1, 47, 127
1, 239189, Note_off_c, 1, 81, 0
1, 239189, Note_off_c, 1, 78, 0
1, 239190, Note_on_c, 1, 83, 127
1, 239190, Note_on_c, 1, 79, 127
1, 239219, Note_off_c, 1, 62, 0
1, 239219, Note_off_c, 1, 71, 0
1, 239219, Note_off_c, 1, 47, 0
1, 239219, Note_off_c, 1, 83, 0
1, 239219, Note_off_c, 1, 79, 0
1, 239220, Note_on_c, 1, 79, 127
1, 239220, Note_on_c, 1, 76, 127
1, 239220, Note_on_c, 1, 40, 127
1, 239249, Note_off_c, 1, 40, 0
1, 239250, Note_on_c, 1, 54, 127
1, 239279, Note_off_c, 1, 54, 0
1, 239280, Note_on_c, 1, 67, 127
1, 239280, Note_on_c, 1, 64, 127
1, 239280, Note_on_c, 1, 52, 127
1, 239309, Note_off_c, 1, 52, 0
1, 239310, Note_on_c, 1, 50, 127
1, 239339, Note_off_c, 1, 67, 0
1, 239339, Note_off_c, 1, 64, 0
1, 239339, Note_off_c, 1, 50, 0
1, 239340, Note_on_c, 1, 49, 127
1, 239369, Note_off_c, 1, 49, 0
1, 239370, Note_on_c, 1, 47, 127
1, 239399, Note_off_c, 1, 79, 0
1, 239399, Note_off_c, 1, 47, 0
1, 239400, Note_on_c, 1, 69, 127
1, 239400, Note_on_c, 1, 57, 127
1, 239400, Note_on_c, 1, 45, 127
1, 239430, Note_off_c, 1, 76, 0
1, 239430, Note_on_c, 1, 78, 127
1, 239430, Note_on_c, 1, 74, 127
1, 239459, Note_off_c, 1, 69, 0
1, 239459, Note_off_c, 1, 57, 0
1, 239459, Note_off_c, 1, 45, 0
1, 239459, Note_off_c, 1, 78, 0
1, 239459, Note_off_c, 1, 74, 0
1, 239460, Note_on_c, 1, 79, 127
1, 239460, Note_on_c, 1, 76, 127
1, 239460, Note_on_c, 1, 67, 127
1, 239460, Note_on_c, 1, 64, 127
1, 239460, Note_on_c, 1, 57, 127
1, 239489, Note_off_c, 1, 79, 0
1, 239489, Note_off_c, 1, 76, 0
1, 239490, Note_on_c, 1, 81, 127
1, 239490, Note_on_c, 1, 78, 127
1, 239519, Note_off_c, 1, 67, 0
1, 239519, Note_off_c, 1, 64, 0
1, 239519, Note_off_c, 1, 57, 0
1, 239519, Note_off_c, 1, 81, 0
1, 239519, Note_off_c, 1, 78, 0
1, 239520, Note_on_c, 1, 79, 127
1, 239520, Note_on_c, 1, 76, 127
1, 239520, Note_on_c, 1, 57, 127
1, 239520, Note_on_c, 1, 69, 127
1, 239520, Note_on_c, 1, 45, 127
1, 239549, Note_off_c, 1, 79, 0
1, 239549, Note_off_c, 1, 76, 0
1, 239550, Note_on_c, 1, 81, 127
1, 239550, Note_on_c, 1, 78, 127
1, 239579, Note_off_c, 1, 57, 0
1, 239579, Note_off_c, 1, 69, 0
1, 239579, Note_off_c, 1, 45, 0
1, 239579, Note_off_c, 1, 81, 0
1, 239579, Note_off_c, 1, 78, 0
1, 239580, Note_on_c, 1, 78, 127
1, 239580, Note_on_c, 1, 74, 127
1, 239580, Note_on_c, 1, 69, 127
1, 239580, Note_on_c, 1, 38, 127
1, 239609, Note_off_c, 1, 38, 0
1, 239610, Note_on_c, 1, 50, 127
1, 239639, Note_off_c, 1, 78, 0
1, 239639, Note_off_c, 1, 74, 0
1, 239639, Note_off_c, 1, 69, 0
1, 239639, Note_off_c, 1, 50, 0
1, 239640, Note_on_c, 1, 81, 127
1, 239640, Note_on_c, 1, 78, 127
1, 239640, Note_on_c, 1, 69, 127
1, 239640, Note_on_c, 1, 50, 127
1, 239640, Note_on_c, 1, 66, 127
1, 239640, Note_on_c, 1, 62, 127
1, 239640, Note_on_c, 1, 49, 127
1, 239669, Note_off_c, 1, 69, 0
1, 239669, Note_off_c, 1, 66, 0
1, 239669, Note_off_c, 1, 62, 0
1, 239669, Note_off_c, 1, 49, 0
1, 239670, Note_on_c, 1, 67, 127
1, 239670, Note_on_c, 1, 64, 127
1, 239670, Note_on_c, 1, 47, 127
1, 239699, Note_off_c, 1, 81, 0
1, 239699, Note_off_c, 1, 78, 0
1, 239699, Note_off_c, 1, 50, 0
1, 239699, Note_off_c, 1, 67, 0
1, 239699, Note_off_c, 1, 64, 0
1, 239699, Note_off_c, 1, 47, 0
1, 239700, Note_on_c, 1, 78, 127
1, 239700, Note_on_c, 1, 74, 127
1, 239700, Note_on_c, 1, 69, 127
1, 239700, Note_on_c, 1, 50, 127
1, 239700, Note_on_c, 1, 66, 127
1, 239700, Note_on_c, 1, 62, 127
1, 239700, Note_on_c, 1, 45, 127
1, 239729, Note_off_c, 1, 69, 0
1, 239729, Note_off_c, 1, 66, 0
1, 239729, Note_off_c, 1, 62, 0
1, 239729, Note_off_c, 1, 45, 0
1, 239730, Note_on_c, 1, 67, 127
1, 239730, Note_on_c, 1, 64, 127
1, 239730, Note_on_c, 1, 43, 127
1, 239759, Note_off_c, 1, 78, 0
1, 239759, Note_off_c, 1, 74, 0
1, 239759, Note_off_c, 1, 50, 0
1, 239759, Note_off_c, 1, 67, 0
1, 239759, Note_off_c, 1, 64, 0
1, 239759, Note_off_c, 1, 43, 0
1, 239760, Note_on_c, 1, 74, 127
1, 239760, Note_on_c, 1, 69, 127
1, 239760, Note_on_c, 1, 50, 127
1, 239760, Note_on_c, 1, 66, 127
1, 239760, Note_on_c, 1, 42, 127
1, 239789, Note_off_c, 1, 42, 0
1, 239790, Note_on_c, 1, 45, 127
1, 239819, Note_off_c, 1, 74, 0
1, 239819, Note_off_c, 1, 69, 0
1, 239819, Note_off_c, 1, 50, 0
1, 239819, Note_off_c, 1, 66, 0
1, 239819, Note_off_c, 1, 45, 0
1, 239820, Note_on_c, 1, 69, 127
1, 239820, Note_on_c, 1, 66, 127
1, 239820, Note_on_c, 1, 62, 127
1, 239820, Note_on_c, 1, 50, 127
1, 239820, Note_on_c, 1, 71, 127
1, 239820, Note_on_c, 1, 43, 127
1, 239849, Note_off_c, 1, 71, 0
1, 239849, Note_off_c, 1, 43, 0
1, 239850, Note_on_c, 1, 42, 127
1, 239879, Note_off_c, 1, 69, 0
1, 239879, Note_off_c, 1, 66, 0
1, 239879, Note_off_c, 1, 62, 0
1, 239879, Note_off_c, 1, 50, 0
1, 239879, Note_off_c, 1, 42, 0
1, 239880, Note_on_c, 1, 74, 127
1, 239880, Note_on_c, 1, 69, 127
1, 239880, Note_on_c, 1, 66, 127
1, 239880, Note_on_c, 1, 50, 127
1, 239880, Note_on_c, 1, 67, 127
1, 239880, Note_on_c, 1, 57, 127
1, 239880, Note_on_c, 1, 40, 127
1, 239909, Note_off_c, 1, 67, 0
1, 239909, Note_off_c, 1, 40, 0
1, 239910, Note_on_c, 1, 38, 127
1, 239939, Note_off_c, 1, 74, 0
1, 239939, Note_off_c, 1, 69, 0
1, 239939, Note_off_c, 1, 66, 0
1, 239939, Note_off_c, 1, 50, 0
1, 239939, Note_off_c, 1, 57, 0
1, 239939, Note_off_c, 1, 38, 0
1, 239940, Note_on_c, 1, 76, 127
1, 239940, Note_on_c, 1, 69, 127
1, 239940, Note_on_c, 1, 45, 127
1, 239940, Note_on_c, 1, 64, 127
1, 239940, Note_on_c, 1, 57, 127
1, 239969, Note_off_c, 1, 76, 0
1, 239970, Note_on_c, 1, 78, 127
1, 239970, Note_on_c, 1, 74, 127
1, 239999, Note_off_c, 1, 69, 0
1, 239999, Note_off_c, 1, 45, 0
1, 239999, Note_off_c, 1, 64, 0
1, 239999, Note_off_c, 1, 57, 0
1, 239999, Note_off_c, 1, 78, 0
1, 239999, Note_off_c, 1, 74, 0
1, 240000, Note_on_c, 1, 76, 127
1, 240000, Note_on_c, 1, 69, 127
1, 240000, Note_on_c, 1, 45, 127
1, 240000, Note_on_c, 1, 67, 127
1, 240000, Note_on_c, 1, 64, 127
1, 240000, Note_on_c, 1, 57, 127
1, 240014, Note_off_c, 1, 45, 0
1, 240029, Note_off_c, 1, 76, 0
1, 240029, Note_off_c, 1, 69, 0
1, 240030, Note_on_c, 1, 78, 127
1, 240030, Note_on_c, 1, 74, 127
1, 240059, Note_off_c, 1, 67, 0
1, 240059, Note_off_c, 1, 64, 0
1, 240059, Note_off_c, 1, 57, 0
1, 240059, Note_off_c, 1, 78, 0
1, 240059, Note_off_c, 1, 74, 0
1, 240060, Note_on_c, 1, 79, 127
1, 240060, Note_on_c, 1, 76, 127
1, 240060, Note_on_c, 1, 69, 127
1, 240060, Note_on_c, 1, 45, 127
1, 240089, Note_off_c, 1, 79, 0
1, 240089, Note_off_c, 1, 76, 0
1, 240089, Note_off_c, 1, 69, 0
1, 240090, Note_on_c, 1, 78, 127
1, 240090, Note_on_c, 1, 74, 127
1, 240119, Note_off_c, 1, 45, 0
1, 240119, Note_off_c, 1, 78, 0
1, 240119, Note_off_c, 1, 74, 0
1, 240120, Note_on_c, 1, 76, 127
1, 240120, Note_on_c, 1, 69, 127
1, 240120, Note_on_c, 1, 45, 127
1, 240120, Note_on_c, 1, 64, 127
1, 240120, Note_on_c, 1, 57, 127
1, 240149, Note_off_c, 1, 64, 0
1, 240149, Note_off_c, 1, 57, 0
1, 240150, Note_on_c, 1, 66, 127
1, 240150, Note_on_c, 1, 62, 127
1, 240179, Note_off_c, 1, 76, 0
1, 240179, Note_off_c, 1, 69, 0
1, 240179, Note_off_c, 1, 45, 0
1, 240179, Note_off_c, 1, 66, 0
1, 240179, Note_off_c, 1, 62, 0
1, 240180, Note_on_c, 1, 79, 127
1, 240180, Note_on_c, 1, 76, 127
1, 240180, Note_on_c, 1, 69, 127
1, 240180, Note_on_c, 1, 45, 127
1, 240180, Note_on_c, 1, 64, 127
1, 240180, Note_on_c, 1, 57, 127
1, 240194, Note_off_c, 1, 45, 0
1, 240209, Note_off_c, 1, 64, 0
1, 240210, Note_on_c, 1, 66, 127
1, 240210, Note_on_c, 1, 62, 127
1, 240239, Note_off_c, 1, 79, 0
1, 240239, Note_off_c, 1, 76, 0
1, 240239, Note_off_c, 1, 69, 0
1, 240239, Note_off_c, 1, 57, 0
1, 240239, Note_off_c, 1, 66, 0
1, 240239, Note_off_c, 1, 62, 0
1, 240240, Note_on_c, 1, 45, 127
1, 240240, Note_on_c, 1, 67, 127
1, 240240, Note_on_c, 1, 64, 127
1, 240269, Note_off_c, 1, 67, 0
1, 240269, Note_off_c, 1, 64, 0
1, 240270, Note_on_c, 1, 57, 127
1, 240299, Note_off_c, 1, 45, 0
1, 240299, Note_off_c, 1, 57, 0
1, 240300, Note_on_c, 1, 78, 127
1, 240300, Note_on_c, 1, 74, 127
1, 240300, Note_on_c, 1, 69, 127
1, 240300, Note_on_c, 1, 45, 127
1, 240300, Note_on_c, 1, 66, 127
1, 240300, Note_on_c, 1, 62, 127
1, 240329, Note_off_c, 1, 78, 0
1, 240329, Note_off_c, 1, 74, 0
1, 240330, Note_on_c, 1, 79, 127
1, 240330, Note_on_c, 1, 76, 127
1, 240359, Note_off_c, 1, 69, 0
1, 240359, Note_off_c, 1, 45, 0
1, 240359, Note_off_c, 1, 66, 0
1, 240359, Note_off_c, 1, 62, 0
1, 240359, Note_off_c, 1, 79, 0
1, 240359, Note_off_c, 1, 76, 0
1, 240360, Note_on_c, 1, 78, 127
1, 240360, Note_on_c, 1, 74, 127
1, 240360, Note_on_c, 1, 69, 127
1, 240360, Note_on_c, 1, 45, 127
1, 240360, Note_on_c, 1, 66, 127
1, 240360, Note_on_c, 1, 57, 127
1, 240374, Note_off_c, 1, 45, 0
1, 240389, Note_off_c, 1, 78, 0
1, 240389, Note_off_c, 1, 74, 0
1, 240390, Note_on_c, 1, 79, 127
1, 240390, Note_on_c, 1, 76, 127
1, 240419, Note_off_c, 1, 69, 0
1, 240419, Note_off_c, 1, 66, 0
1, 240419, Note_off_c, 1, 57, 0
1, 240419, Note_off_c, 1, 79, 0
1, 240419, Note_off_c, 1, 76, 0
1, 240420, Note_on_c, 1, 81, 127
1, 240420, Note_on_c, 1, 78, 127
1, 240420, Note_on_c, 1, 69, 127
1, 240420, Note_on_c, 1, 45, 127
1, 240449, Note_off_c, 1, 81, 0
1, 240449, Note_off_c, 1, 78, 0
1, 240449, Note_off_c, 1, 69, 0
1, 240450, Note_on_c, 1, 79, 127
1, 240450, Note_on_c, 1, 76, 127
1, 240479, Note_off_c, 1, 45, 0
1, 240479, Note_off_c, 1, 79, 0
1, 240479, Note_off_c, 1, 76, 0
1, 240480, Note_on_c, 1, 78, 127
1, 240480, Note_on_c, 1, 74, 127
1, 240480, Note_on_c, 1, 69, 127
1, 240480, Note_on_c, 1, 45, 127
1, 240480, Note_on_c, 1, 66, 127
1, 240480, Note_on_c, 1, 62, 127
1, 240509, Note_off_c, 1, 66, 0
1, 240509, Note_off_c, 1, 62, 0
1, 240510, Note_on_c, 1, 67, 127
1, 240510, Note_on_c, 1, 64, 127
1, 240539, Note_off_c, 1, 78, 0
1, 240539, Note_off_c, 1, 74, 0
1, 240539, Note_off_c, 1, 69, 0
1, 240539, Note_off_c, 1, 45, 0
1, 240539, Note_off_c, 1, 67, 0
1, 240539, Note_off_c, 1, 64, 0
1, 240540, Note_on_c, 1, 81, 127
1, 240540, Note_on_c, 1, 78, 127
1, 240540, Note_on_c, 1, 74, 127
1, 240540, Note_on_c, 1, 45, 127
1, 240540, Note_on_c, 1, 66, 127
1, 240540, Note_on_c, 1, 62, 127
1, 240540, Note_on_c, 1, 57, 127
1, 240554, Note_off_c, 1, 45, 0
1, 240569, Note_off_c, 1, 66, 0
1, 240569, Note_off_c, 1, 62, 0
1, 240570, Note_on_c, 1, 67, 127
1, 240570, Note_on_c, 1, 64, 127
1, 240599, Note_off_c, 1, 81, 0
1, 240599, Note_off_c, 1, 78, 0
1, 240599, Note_off_c, 1, 74, 0
1, 240599, Note_off_c, 1, 57, 0
1, 240599, Note_off_c, 1, 67, 0
1, 240599, Note_off_c, 1, 64, 0
1, 240600, Note_on_c, 1, 45, 127
1, 240600, Note_on_c, 1, 69, 127
1, 240600, Note_on_c, 1, 66, 127
1, 240629, Note_off_c, 1, 69, 0
1, 240629, Note_off_c, 1, 66, 0
1, 240630, Note_on_c, 1, 64, 127
1, 240659, Note_off_c, 1, 45, 0
1, 240659, Note_off_c, 1, 64, 0
1, 240660, Note_on_c, 1, 80, 127
1, 240660, Note_on_c, 1, 76, 127
1, 240660, Note_on_c, 1, 74, 127
1, 240660, Note_on_c, 1, 45, 127
1, 240660, Note_on_c, 1, 71, 127
1, 240660, Note_on_c, 1, 62, 127
1, 240689, Note_off_c, 1, 80, 0
1, 240689, Note_off_c, 1, 71, 0
1, 240689, Note_off_c, 1, 62, 0
1, 240690, Note_on_c, 1, 81, 127
1, 240690, Note_on_c, 1, 73, 127
1, 240690, Note_on_c, 1, 64, 127
1, 240719, Note_off_c, 1, 76, 0
1, 240719, Note_off_c, 1, 74, 0
1, 240719, Note_off_c, 1, 45, 0
1, 240719, Note_off_c, 1, 81, 0
1, 240719, Note_off_c, 1, 73, 0
1, 240719, Note_off_c, 1, 64, 0
1, 240720, Note_on_c, 1, 80, 127
1, 240720, Note_on_c, 1, 76, 127
1, 240720, Note_on_c, 1, 74, 127
1, 240720, Note_on_c, 1, 45, 127
1, 240720, Note_on_c, 1, 71, 127
1, 240720, Note_on_c, 1, 62, 127
1, 240720, Note_on_c, 1, 57, 127
1, 240734, Note_off_c, 1, 45, 0
1, 240749, Note_off_c, 1, 80, 0
1, 240749, Note_off_c, 1, 71, 0
1, 240749, Note_off_c, 1, 62, 0
1, 240750, Note_on_c, 1, 81, 127
1, 240750, Note_on_c, 1, 73, 127
1, 240750, Note_on_c, 1, 64, 127
1, 240779, Note_off_c, 1, 76, 0
1, 240779, Note_off_c, 1, 74, 0
1, 240779, Note_off_c, 1, 57, 0
1, 240779, Note_off_c, 1, 81, 0
1, 240779, Note_off_c, 1, 73, 0
1, 240779, Note_off_c, 1, 64, 0
1, 240780, Note_on_c, 1, 83, 127
1, 240780, Note_on_c, 1, 76, 127
1, 240780, Note_on_c, 1, 74, 127
1, 240780, Note_on_c, 1, 45, 127
1, 240780, Note_on_c, 1, 66, 127
1, 240809, Note_off_c, 1, 83, 0
1, 240809, Note_off_c, 1, 66, 0
1, 240810, Note_on_c, 1, 80, 127
1, 240810, Note_on_c, 1, 71, 127
1, 240810, Note_on_c, 1, 62, 127
1, 240839, Note_off_c, 1, 76, 0
1, 240839, Note_off_c, 1, 74, 0
1, 240839, Note_off_c, 1, 45, 0
1, 240839, Note_off_c, 1, 80, 0
1, 240839, Note_off_c, 1, 71, 0
1, 240839, Note_off_c, 1, 62, 0
1, 240840, Note_on_c, 1, 81, 127
1, 240840, Note_on_c, 1, 76, 127
1, 240840, Note_on_c, 1, 69, 127
1, 240840, Note_on_c, 1, 45, 127
1, 240840, Note_on_c, 1, 73, 127
1, 240840, Note_on_c, 1, 64, 127
1, 240869, Note_off_c, 1, 73, 0
1, 240869, Note_off_c, 1, 64, 0
1, 240870, Note_on_c, 1, 71, 127
1, 240870, Note_on_c, 1, 62, 127
1, 240899, Note_off_c, 1, 81, 0
1, 240899, Note_off_c, 1, 76, 0
1, 240899, Note_off_c, 1, 69, 0
1, 240899, Note_off_c, 1, 45, 0
1, 240899, Note_off_c, 1, 71, 0
1, 240899, Note_off_c, 1, 62, 0
1, 240900, Note_on_c, 1, 76, 127
1, 240900, Note_on_c, 1, 69, 127
1, 240900, Note_on_c, 1, 45, 127
1, 240900, Note_on_c, 1, 64, 127
1, 240900, Note_on_c, 1, 49, 127
1, 240929, Note_off_c, 1, 64, 0
1, 240930, Note_on_c, 1, 67, 127
1, 240930, Note_on_c, 1, 57, 127
1, 240959, Note_off_c, 1, 76, 0
1, 240959, Note_off_c, 1, 69, 0
1, 240959, Note_off_c, 1, 45, 0
1, 240959, Note_off_c, 1, 49, 0
1, 240959, Note_off_c, 1, 67, 0
1, 240959, Note_off_c, 1, 57, 0
1, 240960, Note_on_c, 1, 78, 127
1, 240960, Note_on_c, 1, 74, 127
1, 240960, Note_on_c, 1, 69, 127
1, 240960, Note_on_c, 1, 50, 127
1, 240960, Note_on_c, 1, 66, 127
1, 240960, Note_on_c, 1, 62, 127
1, 240989, Note_off_c, 1, 66, 0
1, 240989, Note_off_c, 1, 62, 0
1, 240990, Note_on_c, 1, 67, 127
1, 240990, Note_on_c, 1, 64, 127
1, 241019, Note_off_c, 1, 50, 0
1, 241019, Note_off_c, 1, 67, 0
1, 241019, Note_off_c, 1, 64, 0
1, 241020, Note_on_c, 1, 42, 127
1, 241049, Note_off_c, 1, 78, 0
1, 241050, Note_on_c, 1, 79, 127
1, 241050, Note_on_c, 1, 71, 127
1, 241079, Note_off_c, 1, 74, 0
1, 241079, Note_off_c, 1, 69, 0
1, 241079, Note_off_c, 1, 42, 0
1, 241079, Note_off_c, 1, 79, 0
1, 241079, Note_off_c, 1, 71, 0
1, 241080, Note_on_c, 1, 76, 127
1, 241080, Note_on_c, 1, 69, 127
1, 241080, Note_on_c, 1, 45, 127
1, 241080, Note_on_c, 1, 73, 127
1, 241080, Note_on_c, 1, 64, 127
1, 241109, Note_off_c, 1, 69, 0
1, 241109, Note_off_c, 1, 73, 0
1, 241109, Note_off_c, 1, 64, 0
1, 241110, Note_on_c, 1, 74, 127
1, 241110, Note_on_c, 1, 66, 127
1, 241139, Note_off_c, 1, 45, 0
1, 241139, Note_off_c, 1, 74, 0
1, 241139, Note_off_c, 1, 66, 0
1, 241140, Note_on_c, 1, 71, 127
1, 241140, Note_on_c, 1, 62, 127
1, 241169, Note_off_c, 1, 76, 0
1, 241169, Note_off_c, 1, 71, 0
1, 241169, Note_off_c, 1, 62, 0
1, 241200, Note_on_c, 1, 74, 127
1, 241200, Note_on_c, 1, 69, 127
1, 241200, Note_on_c, 1, 66, 127
1, 241200, Note_on_c, 1, 50, 127
1, 241200, Note_on_c, 1, 38, 127
1, 241229, Note_off_c, 1, 38, 0
1, 241230, Note_on_c, 1, 45, 127
1, 241259, Note_off_c, 1, 45, 0
1, 241290, Note_on_c, 1, 49, 127
1, 241319, Note_off_c, 1, 74, 0
1, 241319, Note_off_c, 1, 69, 0
1, 241319, Note_off_c, 1, 66, 0
1, 241319, Note_off_c, 1, 50, 0
1, 241319, Note_off_c, 1, 49, 0
1, 241320, Note_on_c, 1, 57, 127
1, 241320, Note_on_c, 1, 50, 127
1, 241349, Note_off_c, 1, 50, 0
1, 241350, Note_on_c, 1, 52, 127
1, 241379, Note_off_c, 1, 57, 0
1, 241379, Note_off_c, 1, 52, 0
1, 241380, Note_on_c, 1, 62, 127
1, 241380, Note_on_c, 1, 54, 127
1, 241409, Note_off_c, 1, 54, 0
1, 241410, Note_on_c, 1, 52, 127
1, 241439, Note_off_c, 1, 62, 0
1, 241439, Note_off_c, 1, 52, 0
1, 241440, Note_on_c, 1, 57, 127
1, 241440, Note_on_c, 1, 54, 127
1, 241469, Note_off_c, 1, 54, 0
1, 241470, Note_on_c, 1, 55, 127
1, 241499, Note_off_c, 1, 57, 0
1, 241499, Note_off_c, 1, 55, 0
1, 241500, Note_on_c, 1, 54, 127
1, 241500, Note_on_c, 1, 57, 127
1, 241529, Note_off_c, 1, 57, 0
1, 241530, Note_on_c, 1, 55, 127
1, 241559, Note_off_c, 1, 54, 0
1, 241559, Note_off_c, 1, 55, 0
1, 241560, Note_on_c, 1, 57, 127
1, 241560, Note_on_c, 1, 54, 127
1, 241589, Note_off_c, 1, 54, 0
1, 241590, Note_on_c, 1, 55, 127
1, 241619, Note_off_c, 1, 57, 0
1, 241619, Note_off_c, 1, 55, 0
1, 241620, Note_on_c, 1, 54, 127
1, 241650, Note_on_c, 1, 55, 127
1, 241679, Note_off_c, 1, 54, 0
1, 241679, Note_off_c, 1, 55, 0
1, 241680, Note_on_c, 1, 50, 127
1, 241680, Note_on_c, 1, 57, 127
1, 241709, Note_off_c, 1, 57, 0
1, 241710, Note_on_c, 1, 54, 127
1, 241739, Note_off_c, 1, 50, 0
1, 241739, Note_off_c, 1, 54, 0
1, 241740, Note_on_c, 1, 52, 127
1, 241740, Note_on_c, 1, 55, 127
1, 241769, Note_off_c, 1, 52, 0
1, 241770, Note_on_c, 1, 50, 127
1, 241799, Note_off_c, 1, 55, 0
1, 241799, Note_off_c, 1, 50, 0
1, 241800, Note_on_c, 1, 52, 127
1, 241830, Note_on_c, 1, 54, 127
1, 241859, Note_off_c, 1, 52, 0
1, 241859, Note_off_c, 1, 54, 0
1, 241860, Note_on_c, 1, 55, 127
1, 241860, Note_on_c, 1, 57, 127
1, 241889, Note_off_c, 1, 55, 0
1, 241890, Note_on_c, 1, 52, 127
1, 241919, Note_off_c, 1, 57, 0
1, 241919, Note_off_c, 1, 52, 0
1, 241920, Note_on_c, 1, 54, 127
1, 241920, Note_on_c, 1, 50, 127
1, 241949, Note_off_c, 1, 50, 0
1, 241950, Note_on_c, 1, 52, 127
1, 241979, Note_off_c, 1, 54, 0
1, 241979, Note_off_c, 1, 52, 0
1, 241980, Note_on_c, 1, 50, 127
1, 242010, Note_on_c, 1, 52, 127
1, 242039, Note_off_c, 1, 50, 0
1, 242039, Note_off_c, 1, 52, 0
1, 242040, Note_on_c, 1, 69, 127
1, 242040, Note_on_c, 1, 66, 127
1, 242040, Note_on_c, 1, 62, 127
1, 242040, Note_on_c, 1, 50, 127
1, 242040, Note_on_c, 1, 54, 127
1, 242069, Note_off_c, 1, 54, 0
1, 242070, Note_on_c, 1, 52, 127
1, 242099, Note_off_c, 1, 69, 0
1, 242099, Note_off_c, 1, 66, 0
1, 242099, Note_off_c, 1, 62, 0
1, 242099, Note_off_c, 1, 50, 0
1, 242099, Note_off_c, 1, 52, 0
1, 242100, Note_on_c, 1, 74, 127
1, 242100, Note_on_c, 1, 69, 127
1, 242100, Note_on_c, 1, 66, 127
1, 242100, Note_on_c, 1, 50, 127
1, 242100, Note_on_c, 1, 62, 127
1, 242129, Note_off_c, 1, 74, 0
1, 242129, Note_off_c, 1, 50, 0
1, 242130, Note_on_c, 1, 76, 127
1, 242130, Note_on_c, 1, 49, 127
1, 242159, Note_off_c, 1, 69, 0
1, 242159, Note_off_c, 1, 66, 0
1, 242159, Note_off_c, 1, 62, 0
1, 242159, Note_off_c, 1, 76, 0
1, 242159, Note_off_c, 1, 49, 0
1, 242160, Note_on_c, 1, 78, 127
1, 242160, Note_on_c, 1, 74, 127
1, 242160, Note_on_c, 1, 69, 127
1, 242160, Note_on_c, 1, 50, 127
1, 242160, Note_on_c, 1, 62, 127
1, 242160, Note_on_c, 1, 57, 127
1, 242189, Note_off_c, 1, 78, 0
1, 242189, Note_off_c, 1, 74, 0
1, 242190, Note_on_c, 1, 79, 127
1, 242190, Note_on_c, 1, 76, 127
1, 242219, Note_off_c, 1, 69, 0
1, 242219, Note_off_c, 1, 50, 0
1, 242219, Note_off_c, 1, 62, 0
1, 242219, Note_off_c, 1, 57, 0
1, 242219, Note_off_c, 1, 79, 0
1, 242219, Note_off_c, 1, 76, 0
1, 242220, Note_on_c, 1, 81, 127
1, 242220, Note_on_c, 1, 78, 127
1, 242220, Note_on_c, 1, 74, 127
1, 242220, Note_on_c, 1, 50, 127
1, 242220, Note_on_c, 1, 57, 127
1, 242220, Note_on_c, 1, 54, 127
1, 242220, Note_on_c, 1, 38, 127
1, 242234, Note_off_c, 1, 50, 0
1, 242249, Note_off_c, 1, 81, 0
1, 242249, Note_off_c, 1, 78, 0
1, 242250, Note_on_c, 1, 79, 127
1, 242250, Note_on_c, 1, 76, 127
1, 242279, Note_off_c, 1, 74, 0
1, 242279, Note_off_c, 1, 57, 0
1, 242279, Note_off_c, 1, 54, 0
1, 242279, Note_off_c, 1, 38, 0
1, 242279, Note_off_c, 1, 79, 0
1, 242279, Note_off_c, 1, 76, 0
1, 242280, Note_on_c, 1, 78, 127
1, 242280, Note_on_c, 1, 74, 127
1, 242280, Note_on_c, 1, 69, 127
1, 242280, Note_on_c, 1, 50, 127
1, 242280, Note_on_c, 1, 62, 127
1, 242280, Note_on_c, 1, 57, 127
1, 242280, Note_on_c, 1, 38, 127
1, 242294, Note_off_c, 1, 50, 0
1, 242309, Note_off_c, 1, 78, 0
1, 242309, Note_off_c, 1, 74, 0
1, 242310, Note_on_c, 1, 79, 127
1, 242310, Note_on_c, 1, 76, 127
1, 242339, Note_off_c, 1, 69, 0
1, 242339, Note_off_c, 1, 62, 0
1, 242339, Note_off_c, 1, 57, 0
1, 242339, Note_off_c, 1, 38, 0
1, 242339, Note_off_c, 1, 79, 0
1, 242339, Note_off_c, 1, 76, 0
1, 242340, Note_on_c, 1, 78, 127
1, 242340, Note_on_c, 1, 74, 127
1, 242340, Note_on_c, 1, 69, 127
1, 242340, Note_on_c, 1, 50, 127
1, 242340, Note_on_c, 1, 57, 127
1, 242340, Note_on_c, 1, 54, 127
1, 242369, Note_off_c, 1, 78, 0
1, 242369, Note_off_c, 1, 74, 0
1, 242369, Note_off_c, 1, 69, 0
1, 242370, Note_on_c, 1, 79, 127
1, 242370, Note_on_c, 1, 76, 127
1, 242399, Note_off_c, 1, 50, 0
1, 242399, Note_off_c, 1, 57, 0
1, 242399, Note_off_c, 1, 54, 0
1, 242399, Note_off_c, 1, 79, 0
1, 242399, Note_off_c, 1, 76, 0
1, 242400, Note_on_c, 1, 81, 127
1, 242400, Note_on_c, 1, 78, 127
1, 242400, Note_on_c, 1, 74, 127
1, 242400, Note_on_c, 1, 50, 127
1, 242400, Note_on_c, 1, 54, 127
1, 242400, Note_on_c, 1, 49, 127
1, 242400, Note_on_c, 1, 38, 127
1, 242429, Note_off_c, 1, 81, 0
1, 242429, Note_off_c, 1, 78, 0
1, 242429, Note_off_c, 1, 74, 0
1, 242429, Note_off_c, 1, 54, 0
1, 242430, Note_on_c, 1, 79, 127
1, 242430, Note_on_c, 1, 76, 127
1, 242430, Note_on_c, 1, 57, 127
1, 242459, Note_off_c, 1, 50, 0
1, 242459, Note_off_c, 1, 49, 0
1, 242459, Note_off_c, 1, 38, 0
1, 242459, Note_off_c, 1, 79, 0
1, 242459, Note_off_c, 1, 76, 0
1, 242459, Note_off_c, 1, 57, 0
1, 242460, Note_on_c, 1, 78, 127
1, 242460, Note_on_c, 1, 74, 127
1, 242460, Note_on_c, 1, 69, 127
1, 242460, Note_on_c, 1, 50, 127
1, 242460, Note_on_c, 1, 62, 127
1, 242460, Note_on_c, 1, 54, 127
1, 242460, Note_on_c, 1, 38, 127
1, 242474, Note_off_c, 1, 50, 0
1, 242489, Note_off_c, 1, 62, 0
1, 242489, Note_off_c, 1, 54, 0
1, 242490, Note_on_c, 1, 64, 127
1, 242490, Note_on_c, 1, 57, 127
1, 242519, Note_off_c, 1, 78, 0
1, 242519, Note_off_c, 1, 74, 0
1, 242519, Note_off_c, 1, 69, 0
1, 242519, Note_off_c, 1, 38, 0
1, 242519, Note_off_c, 1, 64, 0
1, 242519, Note_off_c, 1, 57, 0
1, 242520, Note_on_c, 1, 74, 127
1, 242520, Note_on_c, 1, 69, 127
1, 242520, Note_on_c, 1, 66, 127
1, 242520, Note_on_c, 1, 50, 127
1, 242520, Note_on_c, 1, 62, 127
1, 242549, Note_off_c, 1, 62, 0
1, 242550, Note_on_c, 1, 67, 127
1, 242550, Note_on_c, 1, 64, 127
1, 242579, Note_off_c, 1, 74, 0
1, 242579, Note_off_c, 1, 69, 0
1, 242579, Note_off_c, 1, 66, 0
1, 242579, Note_off_c, 1, 50, 0
1, 242579, Note_off_c, 1, 67, 0
1, 242579, Note_off_c, 1, 64, 0
1, 242580, Note_on_c, 1, 69, 127
1, 242580, Note_on_c, 1, 66, 127
1, 242580, Note_on_c, 1, 62, 127
1, 242580, Note_on_c, 1, 50, 127
1, 242580, Note_on_c, 1, 38, 127
1, 242594, Note_off_c, 1, 50, 0
1, 242610, Note_on_c, 1, 67, 127
1, 242610, Note_on_c, 1, 64, 127
1, 242639, Note_off_c, 1, 69, 0
1, 242639, Note_off_c, 1, 66, 0
1, 242639, Note_off_c, 1, 62, 0
1, 242639, Note_off_c, 1, 38, 0
1, 242639, Note_off_c, 1, 67, 0
1, 242639, Note_off_c, 1, 64, 0
1, 242640, Note_on_c, 1, 74, 127
1, 242640, Note_on_c, 1, 69, 127
1, 242640, Note_on_c, 1, 66, 127
1, 242640, Note_on_c, 1, 50, 127
1, 242640, Note_on_c, 1, 62, 127
1, 242640, Note_on_c, 1, 38, 127
1, 242654, Note_off_c, 1, 50, 0
1, 242669, Note_off_c, 1, 62, 0
1, 242670, Note_on_c, 1, 67, 127
1, 242670, Note_on_c, 1, 64, 127
1, 242699, Note_off_c, 1, 74, 0
1, 242699, Note_off_c, 1, 69, 0
1, 242699, Note_off_c, 1, 66, 0
1, 242699, Note_off_c, 1, 38, 0
1, 242699, Note_off_c, 1, 67, 0
1, 242699, Note_off_c, 1, 64, 0
1, 242700, Note_on_c, 1, 69, 127
1, 242700, Note_on_c, 1, 66, 127
1, 242700, Note_on_c, 1, 62, 127
1, 242700, Note_on_c, 1, 50, 127
1, 242730, Note_on_c, 1, 67, 127
1, 242730, Note_on_c, 1, 64, 127
1, 242759, Note_off_c, 1, 69, 0
1, 242759, Note_off_c, 1, 66, 0
1, 242759, Note_off_c, 1, 62, 0
1, 242759, Note_off_c, 1, 50, 0
1, 242759, Note_off_c, 1, 67, 0
1, 242759, Note_off_c, 1, 64, 0
1, 242760, Note_on_c, 1, 66, 127
1, 242760, Note_on_c, 1, 62, 127
1, 242760, Note_on_c, 1, 57, 127
1, 242760, Note_on_c, 1, 50, 127
1, 242760, Note_on_c, 1, 69, 127
1, 242760, Note_on_c, 1, 38, 127
1, 242774, Note_off_c, 1, 50, 0
1, 242789, Note_off_c, 1, 69, 0
1, 242790, Note_on_c, 1, 67, 127
1, 242790, Note_on_c, 1, 64, 127
1, 242819, Note_off_c, 1, 66, 0
1, 242819, Note_off_c, 1, 62, 0
1, 242819, Note_off_c, 1, 57, 0
1, 242819, Note_off_c, 1, 38, 0
1, 242819, Note_off_c, 1, 67, 0
1, 242819, Note_off_c, 1, 64, 0
1, 242820, Note_on_c, 1, 69, 127
1, 242820, Note_on_c, 1, 62, 127
1, 242820, Note_on_c, 1, 66, 127
1, 242820, Note_on_c, 1, 50, 127
1, 242849, Note_off_c, 1, 50, 0
1, 242850, Note_on_c, 1, 52, 127
1, 242879, Note_off_c, 1, 52, 0
1, 242880, Note_on_c, 1, 57, 127
1, 242880, Note_on_c, 1, 54, 127
1, 242909, Note_off_c, 1, 54, 0
1, 242910, Note_on_c, 1, 55, 127
1, 242939, Note_off_c, 1, 57, 0
1, 242939, Note_off_c, 1, 55, 0
1, 243000, Note_on_c, 1, 45, 127
1, 243059, Note_off_c, 1, 69, 0
1, 243059, Note_off_c, 1, 62, 0
1, 243059, Note_off_c, 1, 66, 0
1, 243059, Note_off_c, 1, 45, 0
1, 243060, Note_on_c, 1, 54, 127
1, 243090, Note_on_c, 1, 55, 127
1, 243119, Note_off_c, 1, 54, 0
1, 243119, Note_off_c, 1, 55, 0
1, 243120, Note_on_c, 1, 50, 127
1, 243120, Note_on_c, 1, 57, 127
1, 243149, Note_off_c, 1, 57, 0
1, 243150, Note_on_c, 1, 54, 127
1, 243179, Note_off_c, 1, 50, 0
1, 243179, Note_off_c, 1, 54, 0
1, 243180, Note_on_c, 1, 52, 127
1, 243180, Note_on_c, 1, 55, 127
1, 243209, Note_off_c, 1, 52, 0
1, 243210, Note_on_c, 1, 50, 127
1, 243239, Note_off_c, 1, 55, 0
1, 243239, Note_off_c, 1, 50, 0
1, 243240, Note_on_c, 1, 52, 127
1, 243270, Note_on_c, 1, 54, 127
1, 243299, Note_off_c, 1, 52, 0
1, 243299, Note_off_c, 1, 54, 0
1, 243300, Note_on_c, 1, 55, 127
1, 243300, Note_on_c, 1, 57, 127
1, 243329, Note_off_c, 1, 55, 0
1, 243330, Note_on_c, 1, 52, 127
1, 243359, Note_off_c, 1, 57, 0
1, 243359, Note_off_c, 1, 52, 0
1, 243360, Note_on_c, 1, 54, 127
1, 243360, Note_on_c, 1, 50, 127
1, 243389, Note_off_c, 1, 50, 0
1, 243390, Note_on_c, 1, 52, 127
1, 243419, Note_off_c, 1, 54, 0
1, 243419, Note_off_c, 1, 52, 0
1, 243420, Note_on_c, 1, 50, 127
1, 243450, Note_on_c, 1, 52, 127
1, 243479, Note_off_c, 1, 50, 0
1, 243479, Note_off_c, 1, 52, 0
1, 243480, Note_on_c, 1, 57, 127
1, 243480, Note_on_c, 1, 54, 127
1, 243509, Note_off_c, 1, 54, 0
1, 243510, Note_on_c, 1, 52, 127
1, 243539, Note_off_c, 1, 57, 0
1, 243539, Note_off_c, 1, 52, 0
1, 243540, Note_on_c, 1, 48, 127
1, 243540, Note_on_c, 1, 50, 127
1, 243569, Note_off_c, 1, 50, 0
1, 243570, Note_on_c, 1, 52, 127
1, 243599, Note_off_c, 1, 48, 0
1, 243599, Note_off_c, 1, 52, 0
1, 243600, Note_on_c, 1, 50, 127
1, 243629, Note_off_c, 1, 50, 0
1, 243630, Note_on_c, 1, 48, 127
1, 243630, Note_on_c, 1, 52, 127
1, 243659, Note_off_c, 1, 48, 0
1, 243659, Note_off_c, 1, 52, 0
1, 243660, Note_on_c, 1, 69, 127
1, 243660, Note_on_c, 1, 66, 127
1, 243660, Note_on_c, 1, 47, 127
1, 243660, Note_on_c, 1, 54, 127
1, 243689, Note_off_c, 1, 47, 0
1, 243689, Note_off_c, 1, 54, 0
1, 243690, Note_on_c, 1, 48, 127
1, 243690, Note_on_c, 1, 50, 127
1, 243719, Note_off_c, 1, 48, 0
1, 243719, Note_off_c, 1, 50, 0
1, 243720, Note_off_c, 1, 69, 0
1, 243720, Note_off_c, 1, 66, 0
1, 243720, Note_on_c, 1, 71, 127
1, 243720, Note_on_c, 1, 67, 127
1, 243720, Note_on_c, 1, 55, 127
1, 243749, Note_off_c, 1, 55, 0
1, 243780, Note_off_c, 1, 71, 0
1, 243780, Note_on_c, 1, 62, 127
1, 243810, Note_on_c, 1, 57, 127
1, 243839, Note_off_c, 1, 57, 0
1, 243840, Note_off_c, 1, 67, 0
1, 243840, Note_off_c, 1, 62, 0
1, 243840, Note_on_c, 1, 49, 127
1, 243899, Note_off_c, 1, 49, 0
1, 243900, Note_on_c, 1, 50, 127
1, 243900, Note_on_c, 1, 52, 127
1, 243929, Note_off_c, 1, 52, 0
1, 243930, Note_on_c, 1, 54, 127
1, 243959, Note_off_c, 1, 50, 0
1, 243959, Note_off_c, 1, 54, 0
1, 243960, Note_on_c, 1, 49, 127
1, 243960, Note_on_c, 1, 52, 127
1, 243989, Note_off_c, 1, 49, 0
1, 243989, Note_off_c, 1, 52, 0
1, 243990, Note_on_c, 1, 47, 127
1, 243990, Note_on_c, 1, 54, 127
1, 244019, Note_off_c, 1, 47, 0
1, 244019, Note_off_c, 1, 54, 0
1, 244020, Note_on_c, 1, 83, 127
1, 244020, Note_on_c, 1, 80, 127
1, 244020, Note_on_c, 1, 76, 127
1, 244020, Note_on_c, 1, 52, 127
1, 244020, Note_on_c, 1, 56, 127
1, 244049, Note_off_c, 1, 56, 0
1, 244079, Note_off_c, 1, 76, 0
1, 244079, Note_off_c, 1, 52, 0
1, 244080, Note_off_c, 1, 80, 0
1, 244080, Note_on_c, 1, 85, 127
1, 244080, Note_on_c, 1, 45, 127
1, 244080, Note_on_c, 1, 49, 127
1, 244080, Note_on_c, 1, 57, 127
1, 244109, Note_off_c, 1, 57, 0
1, 244110, Note_on_c, 1, 59, 127
1, 244139, Note_off_c, 1, 59, 0
1, 244140, Note_off_c, 1, 83, 0
1, 244140, Note_off_c, 1, 85, 0
1, 244140, Note_off_c, 1, 45, 0
1, 244140, Note_on_c, 1, 81, 127
1, 244140, Note_on_c, 1, 69, 127
1, 244199, Note_off_c, 1, 49, 0
1, 244199, Note_off_c, 1, 69, 0
1, 244200, Note_off_c, 1, 81, 0
1, 244200, Note_on_c, 1, 64, 127
1, 244200, Note_on_c, 1, 61, 127
1, 244200, Note_on_c, 1, 54, 127
1, 244229, Note_off_c, 1, 54, 0
1, 244259, Note_off_c, 1, 64, 0
1, 244259, Note_off_c, 1, 61, 0
1, 244260, Note_on_c, 1, 66, 127
1, 244260, Note_on_c, 1, 61, 127
1, 244260, Note_on_c, 1, 50, 127
1, 244289, Note_off_c, 1, 50, 0
1, 244290, Note_on_c, 1, 52, 127
1, 244319, Note_off_c, 1, 61, 0
1, 244319, Note_off_c, 1, 52, 0
1, 244320, Note_on_c, 1, 54, 127
1, 244350, Note_on_c, 1, 49, 127
1, 244379, Note_off_c, 1, 54, 0
1, 244379, Note_off_c, 1, 49, 0
1, 244380, Note_on_c, 1, 81, 127
1, 244380, Note_on_c, 1, 47, 127
1, 244409, Note_off_c, 1, 47, 0
1, 244410, Note_on_c, 1, 45, 127
1, 244439, Note_off_c, 1, 81, 0
1, 244439, Note_off_c, 1, 45, 0
1, 244440, Note_on_c, 1, 83, 127
1, 244440, Note_on_c, 1, 44, 127
1, 244469, Note_off_c, 1, 44, 0
1, 244470, Note_on_c, 1, 57, 127
1, 244499, Note_off_c, 1, 66, 0
1, 244499, Note_off_c, 1, 57, 0
1, 244500, Note_on_c, 1, 71, 127
1, 244500, Note_on_c, 1, 56, 127
1, 244529, Note_off_c, 1, 71, 0
1, 244529, Note_off_c, 1, 56, 0
1, 244530, Note_on_c, 1, 69, 127
1, 244559, Note_off_c, 1, 69, 0
1, 244560, Note_on_c, 1, 68, 127
1, 244560, Note_on_c, 1, 59, 127
1, 244589, Note_off_c, 1, 68, 0
1, 244619, Note_off_c, 1, 83, 0
1, 244619, Note_off_c, 1, 59, 0
1, 244620, Note_on_c, 1, 64, 127
1, 244620, Note_on_c, 1, 49, 127
1, 244649, Note_off_c, 1, 49, 0
1, 244650, Note_on_c, 1, 80, 127
1, 244650, Note_on_c, 1, 50, 127
1, 244679, Note_off_c, 1, 80, 0
1, 244679, Note_off_c, 1, 50, 0
1, 244680, Note_on_c, 1, 81, 127
1, 244680, Note_on_c, 1, 52, 127
1, 244709, Note_off_c, 1, 81, 0
1, 244710, Note_on_c, 1, 83, 127
1, 244710, Note_on_c, 1, 47, 127
1, 244739, Note_off_c, 1, 52, 0
1, 244739, Note_off_c, 1, 83, 0
1, 244739, Note_off_c, 1, 47, 0
1, 244740, Note_on_c, 1, 85, 127
1, 244740, Note_on_c, 1, 45, 127
1, 244769, Note_off_c, 1, 85, 0
1, 244769, Note_off_c, 1, 45, 0
1, 244770, Note_on_c, 1, 44, 127
1, 244799, Note_off_c, 1, 44, 0
1, 244800, Note_on_c, 1, 42, 127
1, 244829, Note_off_c, 1, 42, 0
1, 244830, Note_on_c, 1, 56, 127
1, 244859, Note_off_c, 1, 64, 0
1, 244859, Note_off_c, 1, 56, 0
1, 244860, Note_on_c, 1, 69, 127
1, 244860, Note_on_c, 1, 54, 127
1, 244889, Note_off_c, 1, 69, 0
1, 244889, Note_off_c, 1, 54, 0
1, 244890, Note_on_c, 1, 68, 127
1, 244919, Note_off_c, 1, 68, 0
1, 244920, Note_on_c, 1, 66, 127
1, 244920, Note_on_c, 1, 57, 127
1, 244949, Note_off_c, 1, 66, 0
1, 244979, Note_off_c, 1, 57, 0
1, 244980, Note_on_c, 1, 62, 127
1, 244980, Note_on_c, 1, 47, 127
1, 245009, Note_off_c, 1, 47, 0
1, 245010, Note_on_c, 1, 78, 127
1, 245010, Note_on_c, 1, 64, 127
1, 245010, Note_on_c, 1, 49, 127
1, 245039, Note_off_c, 1, 62, 0
1, 245039, Note_off_c, 1, 78, 0
1, 245039, Note_off_c, 1, 64, 0
1, 245039, Note_off_c, 1, 49, 0
1, 245040, Note_on_c, 1, 80, 127
1, 245040, Note_on_c, 1, 62, 127
1, 245040, Note_on_c, 1, 47, 127
1, 245069, Note_off_c, 1, 80, 0
1, 245069, Note_off_c, 1, 62, 0
1, 245069, Note_off_c, 1, 47, 0
1, 245070, Note_on_c, 1, 81, 127
1, 245070, Note_on_c, 1, 61, 127
1, 245070, Note_on_c, 1, 45, 127
1, 245099, Note_off_c, 1, 81, 0
1, 245099, Note_off_c, 1, 61, 0
1, 245099, Note_off_c, 1, 45, 0
1, 245100, Note_on_c, 1, 83, 127
1, 245100, Note_on_c, 1, 59, 127
1, 245100, Note_on_c, 1, 44, 127
1, 245129, Note_off_c, 1, 83, 0
1, 245129, Note_off_c, 1, 59, 0
1, 245129, Note_off_c, 1, 44, 0
1, 245130, Note_on_c, 1, 85, 127
1, 245130, Note_on_c, 1, 57, 127
1, 245130, Note_on_c, 1, 42, 127
1, 245159, Note_off_c, 1, 85, 0
1, 245159, Note_off_c, 1, 57, 0
1, 245159, Note_off_c, 1, 42, 0
1, 245160, Note_on_c, 1, 86, 127
1, 245160, Note_on_c, 1, 56, 127
1, 245160, Note_on_c, 1, 40, 127
1, 245189, Note_off_c, 1, 56, 0
1, 245189, Note_off_c, 1, 40, 0
1, 245190, Note_on_c, 1, 57, 127
1, 245190, Note_on_c, 1, 54, 127
1, 245219, Note_off_c, 1, 86, 0
1, 245219, Note_off_c, 1, 57, 0
1, 245219, Note_off_c, 1, 54, 0
1, 245220, Note_on_c, 1, 56, 127
1, 245220, Note_on_c, 1, 52, 127
1, 245249, Note_off_c, 1, 56, 0
1, 245249, Note_off_c, 1, 52, 0
1, 245250, Note_on_c, 1, 54, 127
1, 245250, Note_on_c, 1, 50, 127
1, 245279, Note_off_c, 1, 54, 0
1, 245279, Note_off_c, 1, 50, 0
1, 245280, Note_on_c, 1, 52, 127
1, 245280, Note_on_c, 1, 49, 127
1, 245309, Note_off_c, 1, 52, 0
1, 245309, Note_off_c, 1, 49, 0
1, 245310, Note_on_c, 1, 50, 127
1, 245310, Note_on_c, 1, 47, 127
1, 245339, Note_off_c, 1, 50, 0
1, 245339, Note_off_c, 1, 47, 0
1, 245340, Note_on_c, 1, 49, 127
1, 245340, Note_on_c, 1, 45, 127
1, 245369, Note_off_c, 1, 49, 0
1, 245369, Note_off_c, 1, 45, 0
1, 245370, Note_on_c, 1, 50, 127
1, 245370, Note_on_c, 1, 57, 127
1, 245399, Note_off_c, 1, 50, 0
1, 245399, Note_off_c, 1, 57, 0
1, 245400, Note_on_c, 1, 52, 127
1, 245400, Note_on_c, 1, 56, 127
1, 245429, Note_off_c, 1, 52, 0
1, 245429, Note_off_c, 1, 56, 0
1, 245430, Note_on_c, 1, 54, 127
1, 245459, Note_off_c, 1, 54, 0
1, 245460, Note_on_c, 1, 56, 127
1, 245460, Note_on_c, 1, 52, 127
1, 245489, Note_off_c, 1, 56, 0
1, 245489, Note_off_c, 1, 52, 0
1, 245490, Note_on_c, 1, 52, 127
1, 245490, Note_on_c, 1, 50, 127
1, 245519, Note_off_c, 1, 52, 0
1, 245519, Note_off_c, 1, 50, 0
1, 245520, Note_on_c, 1, 57, 127
1, 245520, Note_on_c, 1, 49, 127
1, 245549, Note_off_c, 1, 49, 0
1, 245550, Note_on_c, 1, 52, 127
1, 245579, Note_off_c, 1, 57, 0
1, 245579, Note_off_c, 1, 52, 0
1, 245580, Note_on_c, 1, 59, 127
1, 245580, Note_on_c, 1, 50, 127
1, 245609, Note_off_c, 1, 59, 0
1, 245609, Note_off_c, 1, 50, 0
1, 245610, Note_on_c, 1, 57, 127
1, 245610, Note_on_c, 1, 49, 127
1, 245639, Note_off_c, 1, 57, 0
1, 245639, Note_off_c, 1, 49, 0
1, 245640, Note_on_c, 1, 56, 127
1, 245640, Note_on_c, 1, 47, 127
1, 245669, Note_off_c, 1, 56, 0
1, 245669, Note_off_c, 1, 47, 0
1, 245670, Note_on_c, 1, 57, 127
1, 245670, Note_on_c, 1, 45, 127
1, 245699, Note_off_c, 1, 57, 0
1, 245699, Note_off_c, 1, 45, 0
1, 245700, Note_on_c, 1, 83, 127
1, 245700, Note_on_c, 1, 80, 127
1, 245700, Note_on_c, 1, 76, 127
1, 245700, Note_on_c, 1, 59, 127
1, 245700, Note_on_c, 1, 40, 127
1, 245729, Note_off_c, 1, 83, 0
1, 245729, Note_off_c, 1, 80, 0
1, 245730, Note_on_c, 1, 85, 127
1, 245730, Note_on_c, 1, 81, 127
1, 245759, Note_off_c, 1, 76, 0
1, 245759, Note_off_c, 1, 59, 0
1, 245759, Note_off_c, 1, 40, 0
1, 245759, Note_off_c, 1, 85, 0
1, 245759, Note_off_c, 1, 81, 0
1, 245760, Note_on_c, 1, 83, 127
1, 245760, Note_on_c, 1, 80, 127
1, 245760, Note_on_c, 1, 76, 127
1, 245760, Note_on_c, 1, 52, 127
1, 245789, Note_off_c, 1, 83, 0
1, 245789, Note_off_c, 1, 80, 0
1, 245789, Note_off_c, 1, 76, 0
1, 245790, Note_on_c, 1, 85, 127
1, 245790, Note_on_c, 1, 81, 127
1, 245819, Note_off_c, 1, 52, 0
1, 245819, Note_off_c, 1, 85, 0
1, 245819, Note_off_c, 1, 81, 0
1, 245820, Note_on_c, 1, 86, 127
1, 245820, Note_on_c, 1, 83, 127
1, 245820, Note_on_c, 1, 76, 127
1, 245820, Note_on_c, 1, 40, 127
1, 245849, Note_off_c, 1, 86, 0
1, 245849, Note_off_c, 1, 83, 0
1, 245849, Note_off_c, 1, 76, 0
1, 245850, Note_on_c, 1, 85, 127
1, 245850, Note_on_c, 1, 81, 127
1, 245879, Note_off_c, 1, 40, 0
1, 245879, Note_off_c, 1, 85, 0
1, 245879, Note_off_c, 1, 81, 0
1, 245880, Note_on_c, 1, 83, 127
1, 245880, Note_on_c, 1, 80, 127
1, 245880, Note_on_c, 1, 76, 127
1, 245880, Note_on_c, 1, 71, 127
1, 245880, Note_on_c, 1, 68, 127
1, 245880, Note_on_c, 1, 40, 127
1, 245909, Note_off_c, 1, 71, 0
1, 245909, Note_off_c, 1, 68, 0
1, 245910, Note_on_c, 1, 73, 127
1, 245910, Note_on_c, 1, 69, 127
1, 245939, Note_off_c, 1, 83, 0
1, 245939, Note_off_c, 1, 80, 0
1, 245939, Note_off_c, 1, 76, 0
1, 245939, Note_off_c, 1, 40, 0
1, 245939, Note_off_c, 1, 73, 0
1, 245939, Note_off_c, 1, 69, 0
1, 245940, Note_on_c, 1, 86, 127
1, 245940, Note_on_c, 1, 83, 127
1, 245940, Note_on_c, 1, 71, 127
1, 245940, Note_on_c, 1, 68, 127
1, 245940, Note_on_c, 1, 52, 127
1, 245969, Note_off_c, 1, 71, 0
1, 245969, Note_off_c, 1, 68, 0
1, 245970, Note_on_c, 1, 73, 127
1, 245970, Note_on_c, 1, 69, 127
1, 245999, Note_off_c, 1, 86, 0
1, 245999, Note_off_c, 1, 83, 0
1, 245999, Note_off_c, 1, 52, 0
1, 245999, Note_off_c, 1, 73, 0
1, 245999, Note_off_c, 1, 69, 0
1, 246000, Note_on_c, 1, 74, 127
1, 246000, Note_on_c, 1, 71, 127
1, 246000, Note_on_c, 1, 64, 127
1, 246000, Note_on_c, 1, 40, 127
1, 246029, Note_off_c, 1, 74, 0
1, 246029, Note_off_c, 1, 71, 0
1, 246030, Note_on_c, 1, 68, 127
1, 246059, Note_off_c, 1, 64, 0
1, 246059, Note_off_c, 1, 40, 0
1, 246059, Note_off_c, 1, 68, 0
1, 246060, Note_on_c, 1, 81, 127
1, 246060, Note_on_c, 1, 73, 127
1, 246060, Note_on_c, 1, 69, 127
1, 246060, Note_on_c, 1, 61, 127
1, 246060, Note_on_c, 1, 40, 127
1, 246089, Note_off_c, 1, 81, 0
1, 246089, Note_off_c, 1, 61, 0
1, 246090, Note_on_c, 1, 83, 127
1, 246090, Note_on_c, 1, 62, 127
1, 246119, Note_off_c, 1, 73, 0
1, 246119, Note_off_c, 1, 69, 0
1, 246119, Note_off_c, 1, 40, 0
1, 246119, Note_off_c, 1, 83, 0
1, 246119, Note_off_c, 1, 62, 0
1, 246120, Note_on_c, 1, 81, 127
1, 246120, Note_on_c, 1, 69, 127
1, 246120, Note_on_c, 1, 64, 127
1, 246120, Note_on_c, 1, 61, 127
1, 246120, Note_on_c, 1, 52, 127
1, 246149, Note_off_c, 1, 81, 0
1, 246149, Note_off_c, 1, 61, 0
1, 246150, Note_on_c, 1, 83, 127
1, 246150, Note_on_c, 1, 62, 127
1, 246179, Note_off_c, 1, 69, 0
1, 246179, Note_off_c, 1, 64, 0
1, 246179, Note_off_c, 1, 52, 0
1, 246179, Note_off_c, 1, 83, 0
1, 246179, Note_off_c, 1, 62, 0
1, 246180, Note_on_c, 1, 85, 127
1, 246180, Note_on_c, 1, 64, 127
1, 246180, Note_on_c, 1, 40, 127
1, 246209, Note_off_c, 1, 85, 0
1, 246209, Note_off_c, 1, 64, 0
1, 246210, Note_on_c, 1, 83, 127
1, 246210, Note_on_c, 1, 62, 127
1, 246239, Note_off_c, 1, 40, 0
1, 246239, Note_off_c, 1, 83, 0
1, 246239, Note_off_c, 1, 62, 0
1, 246240, Note_on_c, 1, 81, 127
1, 246240, Note_on_c, 1, 76, 127
1, 246240, Note_on_c, 1, 69, 127
1, 246240, Note_on_c, 1, 45, 127
1, 246240, Note_on_c, 1, 57, 127
1, 246240, Note_on_c, 1, 61, 127
1, 246240, Note_on_c, 1, 40, 127
1, 246269, Note_off_c, 1, 61, 0
1, 246270, Note_on_c, 1, 71, 127
1, 246270, Note_on_c, 1, 62, 127
1, 246299, Note_off_c, 1, 81, 0
1, 246299, Note_off_c, 1, 76, 0
1, 246299, Note_off_c, 1, 69, 0
1, 246299, Note_off_c, 1, 57, 0
1, 246299, Note_off_c, 1, 40, 0
1, 246299, Note_off_c, 1, 71, 0
1, 246299, Note_off_c, 1, 62, 0
1, 246300, Note_on_c, 1, 85, 127
1, 246300, Note_on_c, 1, 52, 127
1, 246359, Note_off_c, 1, 85, 0
1, 246359, Note_off_c, 1, 52, 0
1, 246360, Note_off_c, 1, 45, 0
1, 246360, Note_on_c, 1, 73, 127
1, 246360, Note_on_c, 1, 64, 127
1, 246389, Note_off_c, 1, 73, 0
1, 246389, Note_off_c, 1, 64, 0
1, 246390, Note_on_c, 1, 66, 127
1, 246419, Note_off_c, 1, 66, 0
1, 246420, Note_on_c, 1, 80, 127
1, 246420, Note_on_c, 1, 71, 127
1, 246420, Note_on_c, 1, 64, 127
1, 246420, Note_on_c, 1, 59, 127
1, 246420, Note_on_c, 1, 40, 127
1, 246449, Note_off_c, 1, 80, 0
1, 246449, Note_off_c, 1, 59, 0
1, 246450, Note_on_c, 1, 81, 127
1, 246450, Note_on_c, 1, 61, 127
1, 246479, Note_off_c, 1, 71, 0
1, 246479, Note_off_c, 1, 64, 0
1, 246479, Note_off_c, 1, 40, 0
1, 246479, Note_off_c, 1, 81, 0
1, 246479, Note_off_c, 1, 61, 0
1, 246480, Note_on_c, 1, 80, 127
1, 246480, Note_on_c, 1, 64, 127
1, 246480, Note_on_c, 1, 59, 127
1, 246480, Note_on_c, 1, 52, 127
1, 246509, Note_off_c, 1, 80, 0
1, 246509, Note_off_c, 1, 59, 0
1, 246510, Note_on_c, 1, 81, 127
1, 246510, Note_on_c, 1, 61, 127
1, 246539, Note_off_c, 1, 64, 0
1, 246539, Note_off_c, 1, 52, 0
1, 246539, Note_off_c, 1, 81, 0
1, 246539, Note_off_c, 1, 61, 0
1, 246540, Note_on_c, 1, 83, 127
1, 246540, Note_on_c, 1, 62, 127
1, 246540, Note_on_c, 1, 40, 127
1, 246569, Note_off_c, 1, 83, 0
1, 246569, Note_off_c, 1, 62, 0
1, 246570, Note_on_c, 1, 81, 127
1, 246570, Note_on_c, 1, 61, 127
1, 246599, Note_off_c, 1, 40, 0
1, 246599, Note_off_c, 1, 81, 0
1, 246599, Note_off_c, 1, 61, 0
1, 246600, Note_on_c, 1, 83, 127
1, 246600, Note_on_c, 1, 80, 127
1, 246600, Note_on_c, 1, 76, 127
1, 246600, Note_on_c, 1, 68, 127
1, 246600, Note_on_c, 1, 64, 127
1, 246600, Note_on_c, 1, 59, 127
1, 246600, Note_on_c, 1, 40, 127
1, 246629, Note_off_c, 1, 68, 0
1, 246629, Note_off_c, 1, 59, 0
1, 246630, Note_on_c, 1, 69, 127
1, 246630, Note_on_c, 1, 61, 127
1, 246659, Note_off_c, 1, 83, 0
1, 246659, Note_off_c, 1, 80, 0
1, 246659, Note_off_c, 1, 76, 0
1, 246659, Note_off_c, 1, 64, 0
1, 246659, Note_off_c, 1, 40, 0
1, 246659, Note_off_c, 1, 69, 0
1, 246659, Note_off_c, 1, 61, 0
1, 246660, Note_on_c, 1, 86, 127
1, 246660, Note_on_c, 1, 83, 127
1, 246660, Note_on_c, 1, 80, 127
1, 246660, Note_on_c, 1, 68, 127
1, 246660, Note_on_c, 1, 64, 127
1, 246660, Note_on_c, 1, 59, 127
1, 246660, Note_on_c, 1, 52, 127
1, 246689, Note_off_c, 1, 68, 0
1, 246689, Note_off_c, 1, 59, 0
1, 246690, Note_on_c, 1, 69, 127
1, 246690, Note_on_c, 1, 61, 127
1, 246719, Note_off_c, 1, 86, 0
1, 246719, Note_off_c, 1, 83, 0
1, 246719, Note_off_c, 1, 80, 0
1, 246719, Note_off_c, 1, 64, 0
1, 246719, Note_off_c, 1, 52, 0
1, 246719, Note_off_c, 1, 69, 0
1, 246719, Note_off_c, 1, 61, 0
1, 246720, Note_on_c, 1, 71, 127
1, 246720, Note_on_c, 1, 64, 127
1, 246720, Note_on_c, 1, 62, 127
1, 246720, Note_on_c, 1, 50, 127
1, 246749, Note_off_c, 1, 71, 0
1, 246749, Note_off_c, 1, 62, 0
1, 246750, Note_on_c, 1, 68, 127
1, 246779, Note_off_c, 1, 64, 0
1, 246779, Note_off_c, 1, 50, 0
1, 246779, Note_off_c, 1, 68, 0
1, 246780, Note_on_c, 1, 45, 127
1, 246780, Note_on_c, 1, 69, 127
1, 246780, Note_on_c, 1, 64, 127
1, 246780, Note_on_c, 1, 57, 127
1, 246780, Note_on_c, 1, 49, 127
1, 246809, Note_off_c, 1, 57, 0
1, 246809, Note_off_c, 1, 49, 0
1, 246810, Note_on_c, 1, 59, 127
1, 246810, Note_on_c, 1, 50, 127
1, 246839, Note_off_c, 1, 69, 0
1, 246839, Note_off_c, 1, 64, 0
1, 246839, Note_off_c, 1, 59, 0
1, 246839, Note_off_c, 1, 50, 0
1, 246869, Note_off_c, 1, 45, 0
1, 246900, Note_on_c, 1, 45, 127
1, 246900, Note_on_c, 1, 61, 127
1, 246900, Note_on_c, 1, 52, 127
1, 246929, Note_off_c, 1, 45, 0
1, 246929, Note_off_c, 1, 61, 0
1, 246929, Note_off_c, 1, 52, 0
1, 246930, Note_on_c, 1, 45, 127
1, 246930, Note_on_c, 1, 59, 127
1, 246930, Note_on_c, 1, 50, 127
1, 246959, Note_off_c, 1, 45, 0
1, 246959, Note_off_c, 1, 59, 0
1, 246959, Note_off_c, 1, 50, 0
1, 246960, Note_on_c, 1, 45, 127
1, 246960, Note_on_c, 1, 57, 127
1, 246960, Note_on_c, 1, 49, 127
1, 247019, Note_off_c, 1, 45, 0
1, 247019, Note_off_c, 1, 57, 0
1, 247019, Note_off_c, 1, 49, 0
1, 247020, Note_on_c, 1, 62, 127
1, 247020, Note_on_c, 1, 54, 127
1, 247049, Note_off_c, 1, 62, 0
1, 247050, Note_on_c, 1, 61, 127
1, 247079, Note_off_c, 1, 54, 0
1, 247079, Note_off_c, 1, 61, 0
1, 247080, Note_on_c, 1, 59, 127
1, 247080, Note_on_c, 1, 50, 127
1, 247109, Note_off_c, 1, 59, 0
1, 247110, Note_on_c, 1, 57, 127
1, 247139, Note_off_c, 1, 50, 0
1, 247139, Note_off_c, 1, 57, 0
1, 247140, Note_on_c, 1, 56, 127
1, 247140, Note_on_c, 1, 52, 127
1, 247199, Note_off_c, 1, 56, 0
1, 247199, Note_off_c, 1, 52, 0
1, 247200, Note_on_c, 1, 54, 127
1, 247200, Note_on_c, 1, 40, 127
1, 247229, Note_off_c, 1, 54, 0
1, 247230, Note_on_c, 1, 52, 127
1, 247259, Note_off_c, 1, 40, 0
1, 247259, Note_off_c, 1, 52, 0
1, 247260, Note_on_c, 1, 54, 127
1, 247260, Note_on_c, 1, 52, 127
1, 247289, Note_off_c, 1, 54, 0
1, 247290, Note_on_c, 1, 56, 127
1, 247319, Note_off_c, 1, 52, 0
1, 247319, Note_off_c, 1, 56, 0
1, 247320, Note_on_c, 1, 76, 127
1, 247320, Note_on_c, 1, 69, 127
1, 247320, Note_on_c, 1, 45, 127
1, 247320, Note_on_c, 1, 57, 127
1, 247320, Note_on_c, 1, 49, 127
1, 247334, Note_off_c, 1, 45, 0
1, 247349, Note_off_c, 1, 76, 0
1, 247350, Note_on_c, 1, 78, 127
1, 247350, Note_on_c, 1, 74, 127
1, 247379, Note_off_c, 1, 69, 0
1, 247379, Note_off_c, 1, 49, 0
1, 247379, Note_off_c, 1, 78, 0
1, 247379, Note_off_c, 1, 74, 0
1, 247440, Note_on_c, 1, 79, 127
1, 247469, Note_off_c, 1, 79, 0
1, 247500, Note_on_c, 1, 64, 127
1, 247529, Note_off_c, 1, 64, 0
1, 247530, Note_on_c, 1, 66, 127
1, 247530, Note_on_c, 1, 62, 127
1, 247559, Note_off_c, 1, 66, 0
1, 247559, Note_off_c, 1, 62, 0
1, 247620, Note_on_c, 1, 67, 127
1, 247649, Note_off_c, 1, 67, 0
1, 247680, Note_on_c, 1, 50, 127
1, 247739, Note_off_c, 1, 50, 0
1, 247800, Note_on_c, 1, 81, 127
1, 247829, Note_off_c, 1, 81, 0
1, 247920, Note_off_c, 1, 57, 0
1, 247920, Note_on_c, 1, 54, 127
1, 247979, Note_off_c, 1, 54, 0
1, 247980, Note_on_c, 1, 69, 127
1, 247980, Note_on_c, 1, 66, 127
1, 247980, Note_on_c, 1, 50, 127
1, 248009, Note_off_c, 1, 69, 0
1, 248009, Note_off_c, 1, 66, 0
1, 248010, Note_on_c, 1, 64, 127
1, 248039, Note_off_c, 1, 50, 0
1, 248039, Note_off_c, 1, 64, 0
1, 248040, Note_on_c, 1, 80, 127
1, 248040, Note_on_c, 1, 71, 127
1, 248040, Note_on_c, 1, 62, 127
1, 248040, Note_on_c, 1, 47, 127
1, 248069, Note_off_c, 1, 80, 0
1, 248069, Note_off_c, 1, 71, 0
1, 248070, Note_on_c, 1, 81, 127
1, 248070, Note_on_c, 1, 73, 127
1, 248099, Note_off_c, 1, 62, 0
1, 248099, Note_off_c, 1, 47, 0
1, 248099, Note_off_c, 1, 81, 0
1, 248099, Note_off_c, 1, 73, 0
1, 248100, Note_on_c, 1, 80, 127
1, 248100, Note_on_c, 1, 71, 127
1, 248100, Note_on_c, 1, 50, 127
1, 248100, Note_on_c, 1, 59, 127
1, 248100, Note_on_c, 1, 47, 127
1, 248129, Note_off_c, 1, 80, 0
1, 248129, Note_off_c, 1, 71, 0
1, 248130, Note_on_c, 1, 81, 127
1, 248130, Note_on_c, 1, 73, 127
1, 248159, Note_off_c, 1, 50, 0
1, 248159, Note_off_c, 1, 59, 0
1, 248159, Note_off_c, 1, 47, 0
1, 248159, Note_off_c, 1, 81, 0
1, 248159, Note_off_c, 1, 73, 0
1, 248160, Note_on_c, 1, 83, 127
1, 248160, Note_on_c, 1, 74, 127
1, 248160, Note_on_c, 1, 56, 127
1, 248160, Note_on_c, 1, 47, 127
1, 248189, Note_off_c, 1, 83, 0
1, 248189, Note_off_c, 1, 74, 0
1, 248190, Note_on_c, 1, 80, 127
1, 248190, Note_on_c, 1, 71, 127
1, 248219, Note_off_c, 1, 56, 0
1, 248219, Note_off_c, 1, 47, 0
1, 248219, Note_off_c, 1, 80, 0
1, 248219, Note_off_c, 1, 71, 0
1, 248220, Note_on_c, 1, 81, 127
1, 248220, Note_on_c, 1, 73, 127
1, 248220, Note_on_c, 1, 64, 127
1, 248220, Note_on_c, 1, 45, 127
1, 248279, Note_off_c, 1, 81, 0
1, 248279, Note_off_c, 1, 73, 0
1, 248279, Note_off_c, 1, 64, 0
1, 248279, Note_off_c, 1, 45, 0
1, 248280, Note_on_c, 1, 76, 127
1, 248280, Note_on_c, 1, 69, 127
1, 248280, Note_on_c, 1, 62, 127
1, 248280, Note_on_c, 1, 49, 127
1, 248309, Note_off_c, 1, 62, 0
1, 248310, Note_on_c, 1, 61, 127
1, 248339, Note_off_c, 1, 76, 0
1, 248339, Note_off_c, 1, 69, 0
1, 248339, Note_off_c, 1, 49, 0
1, 248339, Note_off_c, 1, 61, 0
1, 248340, Note_on_c, 1, 59, 127
1, 248340, Note_on_c, 1, 50, 127
1, 248369, Note_off_c, 1, 59, 0
1, 248370, Note_on_c, 1, 57, 127
1, 248399, Note_off_c, 1, 50, 0
1, 248399, Note_off_c, 1, 57, 0
1, 248400, Note_on_c, 1, 52, 127
1, 248460, Note_on_c, 1, 50, 127
1, 248489, Note_off_c, 1, 52, 0
1, 248490, Note_on_c, 1, 62, 127
1, 248519, Note_off_c, 1, 50, 0
1, 248519, Note_off_c, 1, 62, 0
1, 248520, Note_on_c, 1, 61, 127
1, 248520, Note_on_c, 1, 52, 127
1, 248579, Note_off_c, 1, 61, 0
1, 248579, Note_off_c, 1, 52, 0
1, 248580, Note_on_c, 1, 57, 127
1, 248580, Note_on_c, 1, 45, 127
1, 248609, Note_off_c, 1, 45, 0
1, 248640, Note_on_c, 1, 56, 127
1, 248669, Note_off_c, 1, 56, 0
1, 248670, Note_on_c, 1, 54, 127
1, 248699, Note_off_c, 1, 57, 0
1, 248699, Note_off_c, 1, 54, 0
1, 248700, Note_on_c, 1, 76, 127
1, 248700, Note_on_c, 1, 64, 127
1, 248700, Note_on_c, 1, 52, 127
1, 248729, Note_off_c, 1, 52, 0
1, 248730, Note_on_c, 1, 50, 127
1, 248759, Note_off_c, 1, 76, 0
1, 248759, Note_off_c, 1, 64, 0
1, 248759, Note_off_c, 1, 50, 0
1, 248760, Note_on_c, 1, 81, 127
1, 248760, Note_on_c, 1, 64, 127
1, 248760, Note_on_c, 1, 49, 127
1, 248789, Note_off_c, 1, 81, 0
1, 248790, Note_on_c, 1, 83, 127
1, 248819, Note_off_c, 1, 64, 0
1, 248819, Note_off_c, 1, 49, 0
1, 248819, Note_off_c, 1, 83, 0
1, 248820, Note_on_c, 1, 81, 127
1, 248820, Note_on_c, 1, 64, 127
1, 248820, Note_on_c, 1, 47, 127
1, 248849, Note_off_c, 1, 81, 0
1, 248850, Note_on_c, 1, 83, 127
1, 248879, Note_off_c, 1, 64, 0
1, 248879, Note_off_c, 1, 47, 0
1, 248879, Note_off_c, 1, 83, 0
1, 248880, Note_on_c, 1, 85, 127
1, 248880, Note_on_c, 1, 64, 127
1, 248880, Note_on_c, 1, 45, 127
1, 248909, Note_off_c, 1, 85, 0
1, 248910, Note_on_c, 1, 83, 127
1, 248939, Note_off_c, 1, 64, 0
1, 248939, Note_off_c, 1, 45, 0
1, 248939, Note_off_c, 1, 83, 0
1, 248940, Note_on_c, 1, 81, 127
1, 248940, Note_on_c, 1, 64, 127
1, 248940, Note_on_c, 1, 49, 127
1, 248969, Note_off_c, 1, 81, 0
1, 248970, Note_on_c, 1, 83, 127
1, 248999, Note_off_c, 1, 64, 0
1, 248999, Note_off_c, 1, 49, 0
1, 248999, Note_off_c, 1, 83, 0
1, 249000, Note_on_c, 1, 81, 127
1, 249000, Note_on_c, 1, 64, 127
1, 249000, Note_on_c, 1, 47, 127
1, 249029, Note_off_c, 1, 81, 0
1, 249030, Note_on_c, 1, 83, 127
1, 249059, Note_off_c, 1, 64, 0
1, 249059, Note_off_c, 1, 47, 0
1, 249059, Note_off_c, 1, 83, 0
1, 249060, Note_on_c, 1, 85, 127
1, 249060, Note_on_c, 1, 76, 127
1, 249060, Note_on_c, 1, 64, 127
1, 249060, Note_on_c, 1, 45, 127
1, 249089, Note_off_c, 1, 85, 0
1, 249090, Note_on_c, 1, 81, 127
1, 249119, Note_off_c, 1, 64, 0
1, 249119, Note_off_c, 1, 45, 0
1, 249119, Note_off_c, 1, 81, 0
1, 249120, Note_off_c, 1, 76, 0
1, 249120, Note_on_c, 1, 83, 127
1, 249120, Note_on_c, 1, 80, 127
1, 249120, Note_on_c, 1, 40, 127
1, 249149, Note_off_c, 1, 83, 0
1, 249149, Note_off_c, 1, 80, 0
1, 249179, Note_off_c, 1, 40, 0
1, 249180, Note_on_c, 1, 83, 127
1, 249180, Note_on_c, 1, 80, 127
1, 249180, Note_on_c, 1, 64, 127
1, 249180, Note_on_c, 1, 52, 127
1, 249209, Note_off_c, 1, 83, 0
1, 249209, Note_off_c, 1, 80, 0
1, 249210, Note_on_c, 1, 85, 127
1, 249210, Note_on_c, 1, 81, 127
1, 249239, Note_off_c, 1, 64, 0
1, 249239, Note_off_c, 1, 52, 0
1, 249239, Note_off_c, 1, 85, 0
1, 249239, Note_off_c, 1, 81, 0
1, 249240, Note_on_c, 1, 86, 127
1, 249240, Note_on_c, 1, 83, 127
1, 249240, Note_on_c, 1, 64, 127
1, 249240, Note_on_c, 1, 40, 127
1, 249269, Note_off_c, 1, 86, 0
1, 249269, Note_off_c, 1, 83, 0
1, 249270, Note_on_c, 1, 85, 127
1, 249270, Note_on_c, 1, 81, 127
1, 249299, Note_off_c, 1, 64, 0
1, 249299, Note_off_c, 1, 40, 0
1, 249299, Note_off_c, 1, 85, 0
1, 249299, Note_off_c, 1, 81, 0
1, 249300, Note_on_c, 1, 83, 127
1, 249300, Note_on_c, 1, 80, 127
1, 249300, Note_on_c, 1, 64, 127
1, 249300, Note_on_c, 1, 40, 127
1, 249329, Note_off_c, 1, 83, 0
1, 249329, Note_off_c, 1, 80, 0
1, 249330, Note_on_c, 1, 85, 127
1, 249330, Note_on_c, 1, 81, 127
1, 249359, Note_off_c, 1, 64, 0
1, 249359, Note_off_c, 1, 40, 0
1, 249359, Note_off_c, 1, 85, 0
1, 249359, Note_off_c, 1, 81, 0
1, 249360, Note_on_c, 1, 83, 127
1, 249360, Note_on_c, 1, 80, 127
1, 249360, Note_on_c, 1, 64, 127
1, 249360, Note_on_c, 1, 52, 127
1, 249389, Note_off_c, 1, 83, 0
1, 249389, Note_off_c, 1, 80, 0
1, 249390, Note_on_c, 1, 85, 127
1, 249390, Note_on_c, 1, 81, 127
1, 249419, Note_off_c, 1, 64, 0
1, 249419, Note_off_c, 1, 52, 0
1, 249419, Note_off_c, 1, 85, 0
1, 249419, Note_off_c, 1, 81, 0
1, 249420, Note_on_c, 1, 86, 127
1, 249420, Note_on_c, 1, 83, 127
1, 249420, Note_on_c, 1, 76, 127
1, 249420, Note_on_c, 1, 64, 127
1, 249420, Note_on_c, 1, 40, 127
1, 249449, Note_off_c, 1, 86, 0
1, 249449, Note_off_c, 1, 83, 0
1, 249450, Note_on_c, 1, 80, 127
1, 249479, Note_off_c, 1, 76, 0
1, 249479, Note_off_c, 1, 64, 0
1, 249479, Note_off_c, 1, 40, 0
1, 249479, Note_off_c, 1, 80, 0
1, 249480, Note_on_c, 1, 85, 127
1, 249480, Note_on_c, 1, 81, 127
1, 249480, Note_on_c, 1, 76, 127
1, 249480, Note_on_c, 1, 45, 127
1, 249480, Note_on_c, 1, 64, 127
1, 249510, Note_on_c, 1, 67, 127
1, 249539, Note_off_c, 1, 85, 0
1, 249539, Note_off_c, 1, 81, 0
1, 249539, Note_off_c, 1, 76, 0
1, 249539, Note_off_c, 1, 64, 0
1, 249539, Note_off_c, 1, 67, 0
1, 249540, Note_off_c, 1, 45, 0
1, 249540, Note_on_c, 1, 83, 127
1, 249540, Note_on_c, 1, 78, 127
1, 249540, Note_on_c, 1, 50, 127
1, 249540, Note_on_c, 1, 66, 127
1, 249540, Note_on_c, 1, 62, 127
1, 249569, Note_off_c, 1, 66, 0
1, 249569, Note_off_c, 1, 62, 0
1, 249599, Note_off_c, 1, 83, 0
1, 249599, Note_off_c, 1, 78, 0
1, 249600, Note_off_c, 1, 50, 0
1, 249600, Note_on_c, 1, 86, 127
1, 249600, Note_on_c, 1, 69, 127
1, 249600, Note_on_c, 1, 47, 127
1, 249629, Note_off_c, 1, 69, 0
1, 249659, Note_off_c, 1, 47, 0
1, 249660, Note_on_c, 1, 68, 127
1, 249660, Note_on_c, 1, 52, 127
1, 249689, Note_off_c, 1, 68, 0
1, 249719, Note_off_c, 1, 52, 0
1, 249720, Note_off_c, 1, 86, 0
1, 249720, Note_on_c, 1, 40, 127
1, 249779, Note_off_c, 1, 40, 0
1, 249780, Note_on_c, 1, 83, 127
1, 249780, Note_on_c, 1, 71, 127
1, 249780, Note_on_c, 1, 68, 127
1, 249780, Note_on_c, 1, 52, 127
1, 249809, Note_off_c, 1, 71, 0
1, 249839, Note_off_c, 1, 83, 0
1, 249839, Note_off_c, 1, 68, 0
1, 249839, Note_off_c, 1, 52, 0
1, 249840, Note_on_c, 1, 85, 127
1, 249840, Note_on_c, 1, 81, 127
1, 249840, Note_on_c, 1, 76, 127
1, 249840, Note_on_c, 1, 45, 127
1, 249840, Note_on_c, 1, 69, 127
1, 249840, Note_on_c, 1, 64, 127
1, 249840, Note_on_c, 1, 57, 127
1, 249899, Note_off_c, 1, 85, 0
1, 249899, Note_off_c, 1, 81, 0
1, 249899, Note_off_c, 1, 76, 0
1, 249899, Note_off_c, 1, 69, 0
1, 249899, Note_off_c, 1, 64, 0
1, 249899, Note_off_c, 1, 57, 0
1, 249900, Note_off_c, 1, 45, 0
1, 249900, Note_on_c, 1, 86, 127
1, 249900, Note_on_c, 1, 78, 127
1, 249900, Note_on_c, 1, 74, 127
1, 249900, Note_on_c, 1, 50, 127
1, 249900, Note_on_c, 1, 71, 127
1, 249900, Note_on_c, 1, 66, 127
1, 249929, Note_off_c, 1, 86, 0
1, 249959, Note_off_c, 1, 78, 0
1, 249959, Note_off_c, 1, 74, 0
1, 249959, Note_off_c, 1, 71, 0
1, 249959, Note_off_c, 1, 66, 0
1, 249960, Note_off_c, 1, 50, 0
1, 249960, Note_on_c, 1, 83, 127
1, 249960, Note_on_c, 1, 80, 127
1, 249960, Note_on_c, 1, 68, 127
1, 249960, Note_on_c, 1, 52, 127
1, 249989, Note_off_c, 1, 83, 0
1, 250019, Note_off_c, 1, 80, 0
1, 250019, Note_off_c, 1, 68, 0
1, 250019, Note_off_c, 1, 52, 0
1, 250020, Note_on_c, 1, 81, 127
1, 250020, Note_on_c, 1, 76, 127
1, 250020, Note_on_c, 1, 69, 127
1, 250020, Note_on_c, 1, 45, 127
1, 250020, Note_on_c, 1, 64, 127
1, 250050, Note_on_c, 1, 47, 127
1, 250079, Note_off_c, 1, 47, 0
1, 250139, Note_off_c, 1, 81, 0
1, 250139, Note_off_c, 1, 76, 0
1, 250139, Note_off_c, 1, 69, 0
1, 250139, Note_off_c, 1, 64, 0
1, 250140, Note_off_c, 1, 45, 0
1, 250140, Note_on_c, 1, 52, 127
1, 250140, Note_on_c, 1, 49, 127
1, 250169, Note_off_c, 1, 49, 0
1, 250199, Note_off_c, 1, 52, 0
1, 250200, Note_on_c, 1, 61, 127
1, 250200, Note_on_c, 1, 45, 127
1, 250229, Note_off_c, 1, 61, 0
1, 250230, Note_on_c, 1, 62, 127
1, 250259, Note_off_c, 1, 45, 0
1, 250259, Note_off_c, 1, 62, 0
1, 250260, Note_on_c, 1, 69, 127
1, 250260, Note_on_c, 1, 61, 127
1, 250260, Note_on_c, 1, 57, 127
1, 250289, Note_off_c, 1, 61, 0
1, 250290, Note_on_c, 1, 62, 127
1, 250319, Note_off_c, 1, 57, 0
1, 250319, Note_off_c, 1, 62, 0
1, 250320, Note_on_c, 1, 64, 127
1, 250320, Note_on_c, 1, 55, 127
1, 250349, Note_off_c, 1, 64, 0
1, 250379, Note_off_c, 1, 55, 0
1, 250380, Note_on_c, 1, 54, 127
1, 250439, Note_off_c, 1, 54, 0
1, 250440, Note_on_c, 1, 66, 127
1, 250440, Note_on_c, 1, 52, 127
1, 250469, Note_off_c, 1, 66, 0
1, 250499, Note_off_c, 1, 52, 0
1, 250560, Note_off_c, 1, 69, 0
1, 250560, Note_on_c, 1, 59, 127
1, 250560, Note_on_c, 1, 43, 127
1, 250589, Note_off_c, 1, 59, 0
1, 250619, Note_off_c, 1, 43, 0
1, 250620, Note_on_c, 1, 67, 127
1, 250620, Note_on_c, 1, 59, 127
1, 250620, Note_on_c, 1, 55, 127
1, 250649, Note_off_c, 1, 59, 0
1, 250650, Note_on_c, 1, 61, 127
1, 250679, Note_off_c, 1, 55, 0
1, 250679, Note_off_c, 1, 61, 0
1, 250680, Note_on_c, 1, 62, 127
1, 250680, Note_on_c, 1, 54, 127
1, 250709, Note_off_c, 1, 62, 0
1, 250739, Note_off_c, 1, 54, 0
1, 250740, Note_on_c, 1, 52, 127
1, 250799, Note_off_c, 1, 52, 0
1, 250800, Note_on_c, 1, 64, 127
1, 250800, Note_on_c, 1, 49, 127
1, 250829, Note_off_c, 1, 64, 0
1, 250859, Note_off_c, 1, 49, 0
1, 250920, Note_off_c, 1, 67, 0
1, 250920, Note_on_c, 1, 58, 127
1, 250920, Note_on_c, 1, 42, 127
1, 250949, Note_off_c, 1, 58, 0
1, 250979, Note_off_c, 1, 42, 0
1, 250980, Note_on_c, 1, 66, 127
1, 250980, Note_on_c, 1, 58, 127
1, 250980, Note_on_c, 1, 54, 127
1, 251009, Note_off_c, 1, 58, 0
1, 251010, Note_on_c, 1, 59, 127
1, 251039, Note_off_c, 1, 54, 0
1, 251039, Note_off_c, 1, 59, 0
1, 251040, Note_on_c, 1, 61, 127
1, 251040, Note_on_c, 1, 52, 127
1, 251069, Note_off_c, 1, 61, 0
1, 251099, Note_off_c, 1, 52, 0
1, 251100, Note_on_c, 1, 50, 127
1, 251159, Note_off_c, 1, 50, 0
1, 251160, Note_on_c, 1, 62, 127
1, 251160, Note_on_c, 1, 47, 127
1, 251189, Note_off_c, 1, 62, 0
1, 251219, Note_off_c, 1, 47, 0
1, 251250, Note_on_c, 1, 57, 127
1, 251279, Note_off_c, 1, 57, 0
1, 251280, Note_off_c, 1, 66, 0
1, 251280, Note_on_c, 1, 55, 127
1, 251280, Note_on_c, 1, 40, 127
1, 251339, Note_off_c, 1, 55, 0
1, 251339, Note_off_c, 1, 40, 0
1, 251340, Note_on_c, 1, 64, 127
1, 251340, Note_on_c, 1, 54, 127
1, 251340, Note_on_c, 1, 42, 127
1, 251369, Note_off_c, 1, 54, 0
1, 251370, Note_on_c, 1, 52, 127
1, 251399, Note_off_c, 1, 42, 0
1, 251399, Note_off_c, 1, 52, 0
1, 251400, Note_on_c, 1, 61, 127
1, 251400, Note_on_c, 1, 43, 127
1, 251459, Note_off_c, 1, 61, 0
1, 251459, Note_off_c, 1, 43, 0
1, 251460, Note_on_c, 1, 58, 127
1, 251579, Note_off_c, 1, 58, 0
1, 251640, Note_off_c, 1, 64, 0
1, 251640, Note_on_c, 1, 74, 127
1, 251640, Note_on_c, 1, 62, 127
1, 251640, Note_on_c, 1, 59, 127
1, 251669, Note_off_c, 1, 74, 0
1, 251670, Note_on_c, 1, 76, 127
1, 251699, Note_off_c, 1, 59, 0
1, 251699, Note_off_c, 1, 76, 0
1, 251759, Note_off_c, 1, 62, 0
1, 251760, Note_on_c, 1, 78, 127
1, 251760, Note_on_c, 1, 61, 127
1, 251760, Note_on_c, 1, 42, 127
1, 251789, Note_off_c, 1, 78, 0
1, 251790, Note_on_c, 1, 76, 127
1, 251819, Note_off_c, 1, 61, 0
1, 251819, Note_off_c, 1, 42, 0
1, 251819, Note_off_c, 1, 76, 0
1, 251820, Note_on_c, 1, 74, 127
1, 251820, Note_on_c, 1, 62, 127
1, 251820, Note_on_c, 1, 59, 127
1, 251820, Note_on_c, 1, 42, 127
1, 251849, Note_off_c, 1, 62, 0
1, 251850, Note_on_c, 1, 64, 127
1, 251879, Note_off_c, 1, 74, 0
1, 251879, Note_off_c, 1, 59, 0
1, 251879, Note_off_c, 1, 42, 0
1, 251879, Note_off_c, 1, 64, 0
1, 251880, Note_on_c, 1, 83, 127
1, 251880, Note_on_c, 1, 62, 127
1, 251880, Note_on_c, 1, 54, 127
1, 251880, Note_on_c, 1, 42, 127
1, 251909, Note_off_c, 1, 62, 0
1, 251910, Note_on_c, 1, 64, 127
1, 251939, Note_off_c, 1, 83, 0
1, 251939, Note_off_c, 1, 54, 0
1, 251939, Note_off_c, 1, 42, 0
1, 251939, Note_off_c, 1, 64, 0
1, 251940, Note_on_c, 1, 66, 127
1, 251940, Note_on_c, 1, 42, 127
1, 251969, Note_off_c, 1, 66, 0
1, 251970, Note_on_c, 1, 62, 127
1, 251999, Note_off_c, 1, 42, 0
1, 251999, Note_off_c, 1, 62, 0
1, 252000, Note_on_c, 1, 76, 127
1, 252000, Note_on_c, 1, 64, 127
1, 252000, Note_on_c, 1, 61, 127
1, 252000, Note_on_c, 1, 42, 127
1, 252029, Note_off_c, 1, 76, 0
1, 252030, Note_on_c, 1, 78, 127
1, 252059, Note_off_c, 1, 64, 0
1, 252059, Note_off_c, 1, 61, 0
1, 252059, Note_off_c, 1, 42, 0
1, 252059, Note_off_c, 1, 78, 0
1, 252060, Note_on_c, 1, 76, 127
1, 252060, Note_on_c, 1, 67, 127
1, 252060, Note_on_c, 1, 64, 127
1, 252060, Note_on_c, 1, 42, 127
1, 252089, Note_off_c, 1, 76, 0
1, 252090, Note_on_c, 1, 78, 127
1, 252119, Note_off_c, 1, 67, 0
1, 252119, Note_off_c, 1, 64, 0
1, 252119, Note_off_c, 1, 42, 0
1, 252119, Note_off_c, 1, 78, 0
1, 252120, Note_on_c, 1, 79, 127
1, 252120, Note_on_c, 1, 62, 127
1, 252120, Note_on_c, 1, 42, 127
1, 252149, Note_off_c, 1, 79, 0
1, 252150, Note_on_c, 1, 78, 127
1, 252179, Note_off_c, 1, 62, 0
1, 252179, Note_off_c, 1, 42, 0
1, 252179, Note_off_c, 1, 78, 0
1, 252180, Note_on_c, 1, 76, 127
1, 252180, Note_on_c, 1, 64, 127
1, 252180, Note_on_c, 1, 61, 127
1, 252180, Note_on_c, 1, 42, 127
1, 252209, Note_off_c, 1, 64, 0
1, 252210, Note_on_c, 1, 66, 127
1, 252239, Note_off_c, 1, 76, 0
1, 252239, Note_off_c, 1, 61, 0
1, 252239, Note_off_c, 1, 42, 0
1, 252239, Note_off_c, 1, 66, 0
1, 252240, Note_on_c, 1, 85, 127
1, 252240, Note_on_c, 1, 64, 127
1, 252240, Note_on_c, 1, 54, 127
1, 252269, Note_off_c, 1, 64, 0
1, 252270, Note_on_c, 1, 66, 127
1, 252299, Note_off_c, 1, 85, 0
1, 252299, Note_off_c, 1, 54, 0
1, 252299, Note_off_c, 1, 66, 0
1, 252300, Note_on_c, 1, 67, 127
1, 252300, Note_on_c, 1, 58, 127
1, 252300, Note_on_c, 1, 52, 127
1, 252329, Note_off_c, 1, 67, 0
1, 252330, Note_on_c, 1, 64, 127
1, 252359, Note_off_c, 1, 58, 0
1, 252359, Note_off_c, 1, 52, 0
1, 252359, Note_off_c, 1, 64, 0
1, 252360, Note_on_c, 1, 66, 127
1, 252360, Note_on_c, 1, 59, 127
1, 252360, Note_on_c, 1, 50, 127
1, 252389, Note_off_c, 1, 59, 0
1, 252389, Note_off_c, 1, 50, 0
1, 252390, Note_on_c, 1, 55, 127
1, 252390, Note_on_c, 1, 52, 127
1, 252419, Note_off_c, 1, 66, 0
1, 252419, Note_off_c, 1, 55, 0
1, 252419, Note_off_c, 1, 52, 0
1, 252420, Note_on_c, 1, 54, 127
1, 252420, Note_on_c, 1, 50, 127
1, 252449, Note_off_c, 1, 50, 0
1, 252450, Note_on_c, 1, 52, 127
1, 252479, Note_off_c, 1, 52, 0
1, 252510, Note_on_c, 1, 49, 127
1, 252539, Note_off_c, 1, 49, 0
1, 252660, Note_on_c, 1, 47, 127
1, 252719, Note_off_c, 1, 47, 0
1, 252720, Note_on_c, 1, 51, 127
1, 252749, Note_off_c, 1, 51, 0
1, 252810, Note_on_c, 1, 55, 127
1, 252839, Note_off_c, 1, 55, 0
1, 252840, Note_on_c, 1, 57, 127
1, 252869, Note_off_c, 1, 57, 0
1, 252870, Note_on_c, 1, 59, 127
1, 252899, Note_off_c, 1, 59, 0
1, 252900, Note_on_c, 1, 60, 127
1, 252959, Note_off_c, 1, 60, 0
1, 253080, Note_off_c, 1, 54, 0
1, 253140, Note_on_c, 1, 64, 127
1, 253140, Note_on_c, 1, 52, 127
1, 253169, Note_off_c, 1, 64, 0
1, 253169, Note_off_c, 1, 52, 0
1, 253170, Note_on_c, 1, 62, 127
1, 253170, Note_on_c, 1, 54, 127
1, 253199, Note_off_c, 1, 62, 0
1, 253199, Note_off_c, 1, 54, 0
1, 253200, Note_on_c, 1, 61, 127
1, 253200, Note_on_c, 1, 55, 127
1, 253229, Note_off_c, 1, 61, 0
1, 253229, Note_off_c, 1, 55, 0
1, 253230, Note_on_c, 1, 59, 127
1, 253230, Note_on_c, 1, 52, 127
1, 253259, Note_off_c, 1, 59, 0
1, 253259, Note_off_c, 1, 52, 0
1, 253260, Note_on_c, 1, 58, 127
1, 253260, Note_on_c, 1, 54, 127
1, 253289, Note_off_c, 1, 58, 0
1, 253290, Note_on_c, 1, 56, 127
1, 253319, Note_off_c, 1, 54, 0
1, 253319, Note_off_c, 1, 56, 0
1, 253320, Note_on_c, 1, 54, 127
1, 253320, Note_on_c, 1, 46, 127
1, 253349, Note_off_c, 1, 54, 0
1, 253350, Note_on_c, 1, 52, 127
1, 253379, Note_off_c, 1, 46, 0
1, 253379, Note_off_c, 1, 52, 0
1, 253380, Note_on_c, 1, 50, 127
1, 253380, Note_on_c, 1, 47, 127
1, 253409, Note_off_c, 1, 50, 0
1, 253410, Note_on_c, 1, 55, 127
1, 253439, Note_off_c, 1, 47, 0
1, 253439, Note_off_c, 1, 55, 0
1, 253440, Note_on_c, 1, 54, 127
1, 253440, Note_on_c, 1, 40, 127
1, 253469, Note_off_c, 1, 54, 0
1, 253470, Note_on_c, 1, 52, 127
1, 253499, Note_off_c, 1, 40, 0
1, 253499, Note_off_c, 1, 52, 0
1, 253500, Note_on_c, 1, 50, 127
1, 253500, Note_on_c, 1, 42, 127
1, 253559, Note_off_c, 1, 50, 0
1, 253559, Note_off_c, 1, 42, 0
1, 253560, Note_on_c, 1, 49, 127
1, 253560, Note_on_c, 1, 42, 127
1, 253589, Note_off_c, 1, 49, 0
1, 253590, Note_on_c, 1, 47, 127
1, 253619, Note_off_c, 1, 42, 0
1, 253619, Note_off_c, 1, 47, 0
1, 253620, Note_on_c, 1, 47, 127
1, 253650, Note_on_c, 1, 49, 127
1, 253679, Note_off_c, 1, 49, 0
1, 253739, Note_off_c, 1, 47, 0
1, 253740, Note_on_c, 1, 66, 127
1, 253740, Note_on_c, 1, 62, 127
1, 253740, Note_on_c, 1, 50, 127
1, 253769, Note_off_c, 1, 66, 0
1, 253769, Note_off_c, 1, 62, 0
1, 253769, Note_off_c, 1, 50, 0
1, 253770, Note_on_c, 1, 67, 127
1, 253770, Note_on_c, 1, 64, 127
1, 253770, Note_on_c, 1, 49, 127
1, 253799, Note_off_c, 1, 67, 0
1, 253799, Note_off_c, 1, 64, 0
1, 253799, Note_off_c, 1, 49, 0
1, 253800, Note_on_c, 1, 69, 127
1, 253800, Note_on_c, 1, 66, 127
1, 253800, Note_on_c, 1, 47, 127
1, 253829, Note_off_c, 1, 47, 0
1, 253830, Note_on_c, 1, 49, 127
1, 253859, Note_off_c, 1, 69, 0
1, 253859, Note_off_c, 1, 66, 0
1, 253859, Note_off_c, 1, 49, 0
1, 253860, Note_on_c, 1, 69, 127
1, 253860, Note_on_c, 1, 66, 127
1, 253860, Note_on_c, 1, 47, 127
1, 253889, Note_off_c, 1, 47, 0
1, 253890, Note_on_c, 1, 49, 127
1, 253919, Note_off_c, 1, 69, 0
1, 253919, Note_off_c, 1, 66, 0
1, 253919, Note_off_c, 1, 49, 0
1, 253920, Note_on_c, 1, 69, 127
1, 253920, Note_on_c, 1, 66, 127
1, 253920, Note_on_c, 1, 51, 127
1, 253949, Note_off_c, 1, 51, 0
1, 253950, Note_on_c, 1, 49, 127
1, 253979, Note_off_c, 1, 69, 0
1, 253979, Note_off_c, 1, 66, 0
1, 253979, Note_off_c, 1, 49, 0
1, 253980, Note_on_c, 1, 69, 127
1, 253980, Note_on_c, 1, 66, 127
1, 253980, Note_on_c, 1, 47, 127
1, 254009, Note_off_c, 1, 47, 0
1, 254010, Note_on_c, 1, 49, 127
1, 254039, Note_off_c, 1, 69, 0
1, 254039, Note_off_c, 1, 66, 0
1, 254039, Note_off_c, 1, 49, 0
1, 254040, Note_on_c, 1, 69, 127
1, 254040, Note_on_c, 1, 66, 127
1, 254040, Note_on_c, 1, 47, 127
1, 254069, Note_off_c, 1, 47, 0
1, 254070, Note_on_c, 1, 49, 127
1, 254099, Note_off_c, 1, 69, 0
1, 254099, Note_off_c, 1, 66, 0
1, 254099, Note_off_c, 1, 49, 0
1, 254100, Note_on_c, 1, 69, 127
1, 254100, Note_on_c, 1, 66, 127
1, 254100, Note_on_c, 1, 51, 127
1, 254129, Note_off_c, 1, 51, 0
1, 254130, Note_on_c, 1, 47, 127
1, 254159, Note_off_c, 1, 69, 0
1, 254159, Note_off_c, 1, 66, 0
1, 254159, Note_off_c, 1, 47, 0
1, 254160, Note_on_c, 1, 67, 127
1, 254160, Note_on_c, 1, 64, 127
1, 254160, Note_on_c, 1, 52, 127
1, 254189, Note_off_c, 1, 67, 0
1, 254189, Note_off_c, 1, 64, 0
1, 254190, Note_on_c, 1, 69, 127
1, 254190, Note_on_c, 1, 66, 127
1, 254219, Note_off_c, 1, 52, 0
1, 254219, Note_off_c, 1, 69, 0
1, 254219, Note_off_c, 1, 66, 0
1, 254220, Note_on_c, 1, 67, 127
1, 254220, Note_on_c, 1, 64, 127
1, 254220, Note_on_c, 1, 47, 127
1, 254249, Note_off_c, 1, 67, 0
1, 254249, Note_off_c, 1, 64, 0
1, 254250, Note_on_c, 1, 69, 127
1, 254250, Note_on_c, 1, 66, 127
1, 254279, Note_off_c, 1, 47, 0
1, 254279, Note_off_c, 1, 69, 0
1, 254279, Note_off_c, 1, 66, 0
1, 254280, Note_on_c, 1, 71, 127
1, 254280, Note_on_c, 1, 67, 127
1, 254280, Note_on_c, 1, 43, 127
1, 254309, Note_off_c, 1, 71, 0
1, 254309, Note_off_c, 1, 67, 0
1, 254310, Note_on_c, 1, 69, 127
1, 254310, Note_on_c, 1, 66, 127
1, 254339, Note_off_c, 1, 43, 0
1, 254339, Note_off_c, 1, 69, 0
1, 254339, Note_off_c, 1, 66, 0
1, 254340, Note_on_c, 1, 67, 127
1, 254340, Note_on_c, 1, 64, 127
1, 254340, Note_on_c, 1, 47, 127
1, 254369, Note_off_c, 1, 67, 0
1, 254369, Note_off_c, 1, 64, 0
1, 254370, Note_on_c, 1, 69, 127
1, 254370, Note_on_c, 1, 66, 127
1, 254399, Note_off_c, 1, 47, 0
1, 254399, Note_off_c, 1, 69, 0
1, 254399, Note_off_c, 1, 66, 0
1, 254400, Note_on_c, 1, 67, 127
1, 254400, Note_on_c, 1, 64, 127
1, 254400, Note_on_c, 1, 43, 127
1, 254429, Note_off_c, 1, 67, 0
1, 254429, Note_off_c, 1, 64, 0
1, 254430, Note_on_c, 1, 69, 127
1, 254430, Note_on_c, 1, 66, 127
1, 254459, Note_off_c, 1, 43, 0
1, 254459, Note_off_c, 1, 69, 0
1, 254459, Note_off_c, 1, 66, 0
1, 254460, Note_on_c, 1, 71, 127
1, 254460, Note_on_c, 1, 67, 127
1, 254460, Note_on_c, 1, 40, 127
1, 254489, Note_off_c, 1, 71, 0
1, 254489, Note_off_c, 1, 67, 0
1, 254490, Note_on_c, 1, 69, 127
1, 254490, Note_on_c, 1, 66, 127
1, 254519, Note_off_c, 1, 40, 0
1, 254519, Note_off_c, 1, 69, 0
1, 254519, Note_off_c, 1, 66, 0
1, 254520, Note_on_c, 1, 67, 127
1, 254520, Note_on_c, 1, 64, 127
1, 254520, Note_on_c, 1, 45, 127
1, 254549, Note_off_c, 1, 45, 0
1, 254550, Note_on_c, 1, 47, 127
1, 254579, Note_off_c, 1, 67, 0
1, 254579, Note_off_c, 1, 64, 0
1, 254579, Note_off_c, 1, 47, 0
1, 254580, Note_on_c, 1, 67, 127
1, 254580, Note_on_c, 1, 64, 127
1, 254580, Note_on_c, 1, 45, 127
1, 254609, Note_off_c, 1, 45, 0
1, 254610, Note_on_c, 1, 47, 127
1, 254639, Note_off_c, 1, 67, 0
1, 254639, Note_off_c, 1, 64, 0
1, 254639, Note_off_c, 1, 47, 0
1, 254640, Note_on_c, 1, 67, 127
1, 254640, Note_on_c, 1, 64, 127
1, 254640, Note_on_c, 1, 49, 127
1, 254669, Note_off_c, 1, 49, 0
1, 254670, Note_on_c, 1, 47, 127
1, 254699, Note_off_c, 1, 67, 0
1, 254699, Note_off_c, 1, 64, 0
1, 254699, Note_off_c, 1, 47, 0
1, 254700, Note_on_c, 1, 67, 127
1, 254700, Note_on_c, 1, 64, 127
1, 254700, Note_on_c, 1, 45, 127
1, 254729, Note_off_c, 1, 45, 0
1, 254730, Note_on_c, 1, 47, 127
1, 254759, Note_off_c, 1, 67, 0
1, 254759, Note_off_c, 1, 64, 0
1, 254759, Note_off_c, 1, 47, 0
1, 254760, Note_on_c, 1, 67, 127
1, 254760, Note_on_c, 1, 64, 127
1, 254760, Note_on_c, 1, 45, 127
1, 254789, Note_off_c, 1, 45, 0
1, 254790, Note_on_c, 1, 47, 127
1, 254819, Note_off_c, 1, 67, 0
1, 254819, Note_off_c, 1, 64, 0
1, 254819, Note_off_c, 1, 47, 0
1, 254820, Note_on_c, 1, 67, 127
1, 254820, Note_on_c, 1, 64, 127
1, 254820, Note_on_c, 1, 49, 127
1, 254849, Note_off_c, 1, 49, 0
1, 254850, Note_on_c, 1, 45, 127
1, 254879, Note_off_c, 1, 67, 0
1, 254879, Note_off_c, 1, 64, 0
1, 254879, Note_off_c, 1, 45, 0
1, 254880, Note_on_c, 1, 66, 127
1, 254880, Note_on_c, 1, 62, 127
1, 254880, Note_on_c, 1, 50, 127
1, 254909, Note_off_c, 1, 66, 0
1, 254909, Note_off_c, 1, 62, 0
1, 254910, Note_on_c, 1, 67, 127
1, 254910, Note_on_c, 1, 64, 127
1, 254939, Note_off_c, 1, 50, 0
1, 254939, Note_off_c, 1, 67, 0
1, 254939, Note_off_c, 1, 64, 0
1, 254940, Note_on_c, 1, 66, 127
1, 254940, Note_on_c, 1, 62, 127
1, 254940, Note_on_c, 1, 45, 127
1, 254969, Note_off_c, 1, 66, 0
1, 254969, Note_off_c, 1, 62, 0
1, 254970, Note_on_c, 1, 67, 127
1, 254970, Note_on_c, 1, 64, 127
1, 254999, Note_off_c, 1, 45, 0
1, 254999, Note_off_c, 1, 67, 0
1, 254999, Note_off_c, 1, 64, 0
1, 255000, Note_on_c, 1, 69, 127
1, 255000, Note_on_c, 1, 66, 127
1, 255000, Note_on_c, 1, 42, 127
1, 255029, Note_off_c, 1, 69, 0
1, 255029, Note_off_c, 1, 66, 0
1, 255030, Note_on_c, 1, 67, 127
1, 255030, Note_on_c, 1, 64, 127
1, 255059, Note_off_c, 1, 42, 0
1, 255059, Note_off_c, 1, 67, 0
1, 255059, Note_off_c, 1, 64, 0
1, 255060, Note_on_c, 1, 66, 127
1, 255060, Note_on_c, 1, 62, 127
1, 255060, Note_on_c, 1, 45, 127
1, 255089, Note_off_c, 1, 66, 0
1, 255089, Note_off_c, 1, 62, 0
1, 255090, Note_on_c, 1, 67, 127
1, 255090, Note_on_c, 1, 64, 127
1, 255119, Note_off_c, 1, 45, 0
1, 255119, Note_off_c, 1, 67, 0
1, 255119, Note_off_c, 1, 64, 0
1, 255120, Note_on_c, 1, 66, 127
1, 255120, Note_on_c, 1, 62, 127
1, 255120, Note_on_c, 1, 42, 127
1, 255149, Note_off_c, 1, 66, 0
1, 255149, Note_off_c, 1, 62, 0
1, 255150, Note_on_c, 1, 67, 127
1, 255150, Note_on_c, 1, 64, 127
1, 255179, Note_off_c, 1, 42, 0
1, 255179, Note_off_c, 1, 67, 0
1, 255179, Note_off_c, 1, 64, 0
1, 255180, Note_on_c, 1, 69, 127
1, 255180, Note_on_c, 1, 66, 127
1, 255180, Note_on_c, 1, 62, 127
1, 255180, Note_on_c, 1, 50, 127
1, 255180, Note_on_c, 1, 38, 127
1, 255210, Note_on_c, 1, 67, 127
1, 255210, Note_on_c, 1, 64, 127
1, 255239, Note_off_c, 1, 69, 0
1, 255239, Note_off_c, 1, 66, 0
1, 255239, Note_off_c, 1, 62, 0
1, 255239, Note_off_c, 1, 38, 0
1, 255239, Note_off_c, 1, 67, 0
1, 255239, Note_off_c, 1, 64, 0
1, 255240, Note_on_c, 1, 74, 127
1, 255254, Note_off_c, 1, 50, 0
1, 255269, Note_off_c, 1, 74, 0
1, 255270, Note_on_c, 1, 76, 127
1, 255299, Note_off_c, 1, 76, 0
1, 255300, Note_on_c, 1, 78, 127
1, 255300, Note_on_c, 1, 74, 127
1, 255300, Note_on_c, 1, 69, 127
1, 255300, Note_on_c, 1, 50, 127
1, 255300, Note_on_c, 1, 62, 127
1, 255300, Note_on_c, 1, 57, 127
1, 255329, Note_off_c, 1, 78, 0
1, 255329, Note_off_c, 1, 74, 0
1, 255330, Note_on_c, 1, 79, 127
1, 255330, Note_on_c, 1, 76, 127
1, 255359, Note_off_c, 1, 69, 0
1, 255359, Note_off_c, 1, 50, 0
1, 255359, Note_off_c, 1, 62, 0
1, 255359, Note_off_c, 1, 57, 0
1, 255359, Note_off_c, 1, 79, 0
1, 255359, Note_off_c, 1, 76, 0
1, 255360, Note_on_c, 1, 81, 127
1, 255360, Note_on_c, 1, 78, 127
1, 255360, Note_on_c, 1, 74, 127
1, 255360, Note_on_c, 1, 50, 127
1, 255360, Note_on_c, 1, 57, 127
1, 255360, Note_on_c, 1, 54, 127
1, 255360, Note_on_c, 1, 38, 127
1, 255374, Note_off_c, 1, 50, 0
1, 255389, Note_off_c, 1, 81, 0
1, 255389, Note_off_c, 1, 78, 0
1, 255390, Note_on_c, 1, 79, 127
1, 255390, Note_on_c, 1, 76, 127
1, 255419, Note_off_c, 1, 74, 0
1, 255419, Note_off_c, 1, 57, 0
1, 255419, Note_off_c, 1, 54, 0
1, 255419, Note_off_c, 1, 38, 0
1, 255419, Note_off_c, 1, 79, 0
1, 255419, Note_off_c, 1, 76, 0
1, 255420, Note_on_c, 1, 78, 127
1, 255420, Note_on_c, 1, 74, 127
1, 255420, Note_on_c, 1, 69, 127
1, 255420, Note_on_c, 1, 50, 127
1, 255420, Note_on_c, 1, 62, 127
1, 255420, Note_on_c, 1, 57, 127
1, 255420, Note_on_c, 1, 38, 127
1, 255434, Note_off_c, 1, 50, 0
1, 255449, Note_off_c, 1, 78, 0
1, 255449, Note_off_c, 1, 74, 0
1, 255450, Note_on_c, 1, 79, 127
1, 255450, Note_on_c, 1, 76, 127
1, 255479, Note_off_c, 1, 69, 0
1, 255479, Note_off_c, 1, 62, 0
1, 255479, Note_off_c, 1, 57, 0
1, 255479, Note_off_c, 1, 38, 0
1, 255479, Note_off_c, 1, 79, 0
1, 255479, Note_off_c, 1, 76, 0
1, 255480, Note_on_c, 1, 78, 127
1, 255480, Note_on_c, 1, 74, 127
1, 255480, Note_on_c, 1, 69, 127
1, 255480, Note_on_c, 1, 50, 127
1, 255480, Note_on_c, 1, 57, 127
1, 255480, Note_on_c, 1, 54, 127
1, 255509, Note_off_c, 1, 78, 0
1, 255509, Note_off_c, 1, 74, 0
1, 255509, Note_off_c, 1, 69, 0
1, 255510, Note_on_c, 1, 79, 127
1, 255510, Note_on_c, 1, 76, 127
1, 255539, Note_off_c, 1, 50, 0
1, 255539, Note_off_c, 1, 57, 0
1, 255539, Note_off_c, 1, 54, 0
1, 255539, Note_off_c, 1, 79, 0
1, 255539, Note_off_c, 1, 76, 0
1, 255540, Note_on_c, 1, 81, 127
1, 255540, Note_on_c, 1, 78, 127
1, 255540, Note_on_c, 1, 74, 127
1, 255540, Note_on_c, 1, 50, 127
1, 255540, Note_on_c, 1, 54, 127
1, 255540, Note_on_c, 1, 38, 127
1, 255569, Note_off_c, 1, 81, 0
1, 255569, Note_off_c, 1, 78, 0
1, 255569, Note_off_c, 1, 74, 0
1, 255569, Note_off_c, 1, 54, 0
1, 255570, Note_on_c, 1, 79, 127
1, 255570, Note_on_c, 1, 76, 127
1, 255570, Note_on_c, 1, 57, 127
1, 255599, Note_off_c, 1, 50, 0
1, 255599, Note_off_c, 1, 38, 0
1, 255599, Note_off_c, 1, 79, 0
1, 255599, Note_off_c, 1, 76, 0
1, 255599, Note_off_c, 1, 57, 0
1, 255600, Note_on_c, 1, 78, 127
1, 255600, Note_on_c, 1, 74, 127
1, 255600, Note_on_c, 1, 69, 127
1, 255600, Note_on_c, 1, 50, 127
1, 255600, Note_on_c, 1, 62, 127
1, 255600, Note_on_c, 1, 54, 127
1, 255600, Note_on_c, 1, 38, 127
1, 255614, Note_off_c, 1, 50, 0
1, 255629, Note_off_c, 1, 62, 0
1, 255629, Note_off_c, 1, 54, 0
1, 255630, Note_on_c, 1, 64, 127
1, 255630, Note_on_c, 1, 57, 127
1, 255659, Note_off_c, 1, 78, 0
1, 255659, Note_off_c, 1, 74, 0
1, 255659, Note_off_c, 1, 69, 0
1, 255659, Note_off_c, 1, 38, 0
1, 255659, Note_off_c, 1, 64, 0
1, 255659, Note_off_c, 1, 57, 0
1, 255660, Note_on_c, 1, 74, 127
1, 255660, Note_on_c, 1, 69, 127
1, 255660, Note_on_c, 1, 66, 127
1, 255660, Note_on_c, 1, 50, 127
1, 255660, Note_on_c, 1, 62, 127
1, 255689, Note_off_c, 1, 62, 0
1, 255690, Note_on_c, 1, 67, 127
1, 255690, Note_on_c, 1, 64, 127
1, 255719, Note_off_c, 1, 74, 0
1, 255719, Note_off_c, 1, 69, 0
1, 255719, Note_off_c, 1, 66, 0
1, 255719, Note_off_c, 1, 50, 0
1, 255719, Note_off_c, 1, 67, 0
1, 255719, Note_off_c, 1, 64, 0
1, 255720, Note_on_c, 1, 69, 127
1, 255720, Note_on_c, 1, 66, 127
1, 255720, Note_on_c, 1, 62, 127
1, 255720, Note_on_c, 1, 50, 127
1, 255720, Note_on_c, 1, 38, 127
1, 255734, Note_off_c, 1, 50, 0
1, 255750, Note_on_c, 1, 67, 127
1, 255750, Note_on_c, 1, 64, 127
1, 255779, Note_off_c, 1, 69, 0
1, 255779, Note_off_c, 1, 66, 0
1, 255779, Note_off_c, 1, 62, 0
1, 255779, Note_off_c, 1, 38, 0
1, 255779, Note_off_c, 1, 67, 0
1, 255779, Note_off_c, 1, 64, 0
1, 255780, Note_on_c, 1, 74, 127
1, 255780, Note_on_c, 1, 69, 127
1, 255780, Note_on_c, 1, 66, 127
1, 255780, Note_on_c, 1, 50, 127
1, 255780, Note_on_c, 1, 62, 127
1, 255780, Note_on_c, 1, 38, 127
1, 255794, Note_off_c, 1, 50, 0
1, 255809, Note_off_c, 1, 62, 0
1, 255810, Note_on_c, 1, 67, 127
1, 255810, Note_on_c, 1, 64, 127
1, 255839, Note_off_c, 1, 74, 0
1, 255839, Note_off_c, 1, 69, 0
1, 255839, Note_off_c, 1, 66, 0
1, 255839, Note_off_c, 1, 38, 0
1, 255839, Note_off_c, 1, 67, 0
1, 255839, Note_off_c, 1, 64, 0
1, 255840, Note_on_c, 1, 69, 127
1, 255840, Note_on_c, 1, 66, 127
1, 255840, Note_on_c, 1, 62, 127
1, 255840, Note_on_c, 1, 50, 127
1, 255870, Note_on_c, 1, 67, 127
1, 255870, Note_on_c, 1, 64, 127
1, 255899, Note_off_c, 1, 69, 0
1, 255899, Note_off_c, 1, 66, 0
1, 255899, Note_off_c, 1, 62, 0
1, 255899, Note_off_c, 1, 50, 0
1, 255899, Note_off_c, 1, 67, 0
1, 255899, Note_off_c, 1, 64, 0
1, 255900, Note_on_c, 1, 66, 127
1, 255900, Note_on_c, 1, 62, 127
1, 255900, Note_on_c, 1, 57, 127
1, 255900, Note_on_c, 1, 50, 127
1, 255900, Note_on_c, 1, 69, 127
1, 255900, Note_on_c, 1, 38, 127
1, 255914, Note_off_c, 1, 50, 0
1, 255929, Note_off_c, 1, 69, 0
1, 255930, Note_on_c, 1, 67, 127
1, 255930, Note_on_c, 1, 64, 127
1, 255959, Note_off_c, 1, 66, 0
1, 255959, Note_off_c, 1, 62, 0
1, 255959, Note_off_c, 1, 57, 0
1, 255959, Note_off_c, 1, 38, 0
1, 255959, Note_off_c, 1, 67, 0
1, 255959, Note_off_c, 1, 64, 0
1, 255960, Note_on_c, 1, 50, 127
1, 255960, Note_on_c, 1, 66, 127
1, 255960, Note_on_c, 1, 62, 127
1, 255990, Note_on_c, 1, 52, 127
1, 256019, Note_off_c, 1, 66, 0
1, 256019, Note_off_c, 1, 62, 0
1, 256019, Note_off_c, 1, 52, 0
1, 256020, Note_on_c, 1, 57, 127
1, 256049, Note_off_c, 1, 50, 0
1, 256079, Note_off_c, 1, 57, 0
1, 256080, Note_on_c, 1, 54, 127
1, 256110, Note_on_c, 1, 52, 127
1, 256139, Note_off_c, 1, 54, 0
1, 256139, Note_off_c, 1, 52, 0
1, 256140, Note_on_c, 1, 57, 127
1, 256140, Note_on_c, 1, 50, 127
1, 256169, Note_off_c, 1, 50, 0
1, 256170, Note_on_c, 1, 52, 127
1, 256199, Note_off_c, 1, 57, 0
1, 256199, Note_off_c, 1, 52, 0
1, 256200, Note_on_c, 1, 54, 127
1, 256200, Note_on_c, 1, 50, 127
1, 256229, Note_off_c, 1, 50, 0
1, 256230, Note_on_c, 1, 52, 127
1, 256259, Note_off_c, 1, 54, 0
1, 256259, Note_off_c, 1, 52, 0
1, 256260, Note_on_c, 1, 50, 127
1, 256260, Note_on_c, 1, 54, 127
1, 256289, Note_off_c, 1, 54, 0
1, 256319, Note_off_c, 1, 50, 0
1, 256320, Note_on_c, 1, 52, 127
1, 256320, Note_on_c, 1, 55, 127
1, 256349, Note_off_c, 1, 52, 0
1, 256350, Note_on_c, 1, 50, 127
1, 256379, Note_off_c, 1, 55, 0
1, 256379, Note_off_c, 1, 50, 0
1, 256380, Note_on_c, 1, 52, 127
1, 256410, Note_on_c, 1, 54, 127
1, 256439, Note_off_c, 1, 52, 0
1, 256439, Note_off_c, 1, 54, 0
1, 256440, Note_on_c, 1, 55, 127
1, 256440, Note_on_c, 1, 57, 127
1, 256469, Note_off_c, 1, 55, 0
1, 256470, Note_on_c, 1, 52, 127
1, 256499, Note_off_c, 1, 57, 0
1, 256499, Note_off_c, 1, 52, 0
1, 256500, Note_on_c, 1, 62, 127
1, 256500, Note_on_c, 1, 54, 127
1, 256500, Note_on_c, 1, 50, 127
1, 256529, Note_off_c, 1, 62, 0
1, 256530, Note_on_c, 1, 64, 127
1, 256530, Note_on_c, 1, 57, 127
1, 256559, Note_off_c, 1, 54, 0
1, 256559, Note_off_c, 1, 50, 0
1, 256559, Note_off_c, 1, 64, 0
1, 256559, Note_off_c, 1, 57, 0
1, 256560, Note_on_c, 1, 62, 127
1, 256560, Note_on_c, 1, 54, 127
1, 256560, Note_on_c, 1, 50, 127
1, 256560, Note_on_c, 1, 49, 127
1, 256589, Note_off_c, 1, 62, 0
1, 256589, Note_off_c, 1, 54, 0
1, 256590, Note_on_c, 1, 64, 127
1, 256590, Note_on_c, 1, 57, 127
1, 256619, Note_off_c, 1, 50, 0
1, 256619, Note_off_c, 1, 49, 0
1, 256619, Note_off_c, 1, 64, 0
1, 256619, Note_off_c, 1, 57, 0
1, 256620, Note_on_c, 1, 66, 127
1, 256620, Note_on_c, 1, 62, 127
1, 256620, Note_on_c, 1, 47, 127
1, 256649, Note_off_c, 1, 66, 0
1, 256650, Note_on_c, 1, 68, 127
1, 256679, Note_off_c, 1, 62, 0
1, 256679, Note_off_c, 1, 47, 0
1, 256679, Note_off_c, 1, 68, 0
1, 256680, Note_on_c, 1, 76, 127
1, 256680, Note_on_c, 1, 69, 127
1, 256680, Note_on_c, 1, 45, 127
1, 256680, Note_on_c, 1, 64, 127
1, 256709, Note_off_c, 1, 76, 0
1, 256710, Note_on_c, 1, 78, 127
1, 256710, Note_on_c, 1, 74, 127
1, 256739, Note_off_c, 1, 69, 0
1, 256739, Note_off_c, 1, 45, 0
1, 256739, Note_off_c, 1, 64, 0
1, 256739, Note_off_c, 1, 78, 0
1, 256739, Note_off_c, 1, 74, 0
1, 256740, Note_on_c, 1, 76, 127
1, 256740, Note_on_c, 1, 69, 127
1, 256740, Note_on_c, 1, 45, 127
1, 256740, Note_on_c, 1, 64, 127
1, 256740, Note_on_c, 1, 57, 127
1, 256754, Note_off_c, 1, 45, 0
1, 256769, Note_off_c, 1, 76, 0
1, 256769, Note_off_c, 1, 69, 0
1, 256770, Note_on_c, 1, 78, 127
1, 256770, Note_on_c, 1, 74, 127
1, 256799, Note_off_c, 1, 64, 0
1, 256799, Note_off_c, 1, 57, 0
1, 256799, Note_off_c, 1, 78, 0
1, 256799, Note_off_c, 1, 74, 0
1, 256800, Note_on_c, 1, 79, 127
1, 256800, Note_on_c, 1, 76, 127
1, 256800, Note_on_c, 1, 69, 127
1, 256800, Note_on_c, 1, 45, 127
1, 256829, Note_off_c, 1, 79, 0
1, 256829, Note_off_c, 1, 76, 0
1, 256829, Note_off_c, 1, 69, 0
1, 256830, Note_on_c, 1, 78, 127
1, 256830, Note_on_c, 1, 74, 127
1, 256859, Note_off_c, 1, 45, 0
1, 256859, Note_off_c, 1, 78, 0
1, 256859, Note_off_c, 1, 74, 0
1, 256860, Note_on_c, 1, 76, 127
1, 256860, Note_on_c, 1, 69, 127
1, 256860, Note_on_c, 1, 45, 127
1, 256860, Note_on_c, 1, 64, 127
1, 256860, Note_on_c, 1, 57, 127
1, 256889, Note_off_c, 1, 64, 0
1, 256889, Note_off_c, 1, 57, 0
1, 256890, Note_on_c, 1, 66, 127
1, 256890, Note_on_c, 1, 62, 127
1, 256919, Note_off_c, 1, 76, 0
1, 256919, Note_off_c, 1, 69, 0
1, 256919, Note_off_c, 1, 45, 0
1, 256919, Note_off_c, 1, 66, 0
1, 256919, Note_off_c, 1, 62, 0
1, 256920, Note_on_c, 1, 79, 127
1, 256920, Note_on_c, 1, 76, 127
1, 256920, Note_on_c, 1, 69, 127
1, 256920, Note_on_c, 1, 45, 127
1, 256920, Note_on_c, 1, 64, 127
1, 256920, Note_on_c, 1, 57, 127
1, 256934, Note_off_c, 1, 45, 0
1, 256949, Note_off_c, 1, 64, 0
1, 256950, Note_on_c, 1, 66, 127
1, 256950, Note_on_c, 1, 62, 127
1, 256979, Note_off_c, 1, 79, 0
1, 256979, Note_off_c, 1, 76, 0
1, 256979, Note_off_c, 1, 69, 0
1, 256979, Note_off_c, 1, 57, 0
1, 256979, Note_off_c, 1, 66, 0
1, 256979, Note_off_c, 1, 62, 0
1, 256980, Note_on_c, 1, 45, 127
1, 256980, Note_on_c, 1, 67, 127
1, 256980, Note_on_c, 1, 64, 127
1, 257009, Note_off_c, 1, 67, 0
1, 257009, Note_off_c, 1, 64, 0
1, 257010, Note_on_c, 1, 57, 127
1, 257039, Note_off_c, 1, 45, 0
1, 257039, Note_off_c, 1, 57, 0
1, 257040, Note_on_c, 1, 78, 127
1, 257040, Note_on_c, 1, 74, 127
1, 257040, Note_on_c, 1, 69, 127
1, 257040, Note_on_c, 1, 45, 127
1, 257040, Note_on_c, 1, 66, 127
1, 257040, Note_on_c, 1, 62, 127
1, 257069, Note_off_c, 1, 78, 0
1, 257069, Note_off_c, 1, 74, 0
1, 257070, Note_on_c, 1, 79, 127
1, 257070, Note_on_c, 1, 76, 127
1, 257099, Note_off_c, 1, 69, 0
1, 257099, Note_off_c, 1, 45, 0
1, 257099, Note_off_c, 1, 66, 0
1, 257099, Note_off_c, 1, 62, 0
1, 257099, Note_off_c, 1, 79, 0
1, 257099, Note_off_c, 1, 76, 0
1, 257100, Note_on_c, 1, 78, 127
1, 257100, Note_on_c, 1, 74, 127
1, 257100, Note_on_c, 1, 69, 127
1, 257100, Note_on_c, 1, 45, 127
1, 257100, Note_on_c, 1, 66, 127
1, 257100, Note_on_c, 1, 57, 127
1, 257114, Note_off_c, 1, 45, 0
1, 257129, Note_off_c, 1, 78, 0
1, 257129, Note_off_c, 1, 74, 0
1, 257130, Note_on_c, 1, 79, 127
1, 257130, Note_on_c, 1, 76, 127
1, 257159, Note_off_c, 1, 69, 0
1, 257159, Note_off_c, 1, 66, 0
1, 257159, Note_off_c, 1, 57, 0
1, 257159, Note_off_c, 1, 79, 0
1, 257159, Note_off_c, 1, 76, 0
1, 257160, Note_on_c, 1, 81, 127
1, 257160, Note_on_c, 1, 78, 127
1, 257160, Note_on_c, 1, 69, 127
1, 257160, Note_on_c, 1, 45, 127
1, 257189, Note_off_c, 1, 81, 0
1, 257189, Note_off_c, 1, 78, 0
1, 257189, Note_off_c, 1, 69, 0
1, 257190, Note_on_c, 1, 79, 127
1, 257190, Note_on_c, 1, 76, 127
1, 257219, Note_off_c, 1, 45, 0
1, 257219, Note_off_c, 1, 79, 0
1, 257219, Note_off_c, 1, 76, 0
1, 257220, Note_on_c, 1, 78, 127
1, 257220, Note_on_c, 1, 74, 127
1, 257220, Note_on_c, 1, 69, 127
1, 257220, Note_on_c, 1, 45, 127
1, 257220, Note_on_c, 1, 66, 127
1, 257220, Note_on_c, 1, 62, 127
1, 257249, Note_off_c, 1, 66, 0
1, 257249, Note_off_c, 1, 62, 0
1, 257250, Note_on_c, 1, 67, 127
1, 257250, Note_on_c, 1, 64, 127
1, 257279, Note_off_c, 1, 78, 0
1, 257279, Note_off_c, 1, 74, 0
1, 257279, Note_off_c, 1, 69, 0
1, 257279, Note_off_c, 1, 45, 0
1, 257279, Note_off_c, 1, 67, 0
1, 257279, Note_off_c, 1, 64, 0
1, 257280, Note_on_c, 1, 81, 127
1, 257280, Note_on_c, 1, 78, 127
1, 257280, Note_on_c, 1, 74, 127
1, 257280, Note_on_c, 1, 45, 127
1, 257280, Note_on_c, 1, 66, 127
1, 257280, Note_on_c, 1, 62, 127
1, 257280, Note_on_c, 1, 57, 127
1, 257294, Note_off_c, 1, 45, 0
1, 257309, Note_off_c, 1, 66, 0
1, 257309, Note_off_c, 1, 62, 0
1, 257310, Note_on_c, 1, 67, 127
1, 257310, Note_on_c, 1, 64, 127
1, 257339, Note_off_c, 1, 81, 0
1, 257339, Note_off_c, 1, 78, 0
1, 257339, Note_off_c, 1, 74, 0
1, 257339, Note_off_c, 1, 57, 0
1, 257339, Note_off_c, 1, 67, 0
1, 257339, Note_off_c, 1, 64, 0
1, 257340, Note_on_c, 1, 45, 127
1, 257340, Note_on_c, 1, 69, 127
1, 257340, Note_on_c, 1, 66, 127
1, 257369, Note_off_c, 1, 69, 0
1, 257369, Note_off_c, 1, 66, 0
1, 257370, Note_on_c, 1, 64, 127
1, 257399, Note_off_c, 1, 45, 0
1, 257399, Note_off_c, 1, 64, 0
1, 257400, Note_on_c, 1, 80, 127
1, 257400, Note_on_c, 1, 76, 127
1, 257400, Note_on_c, 1, 74, 127
1, 257400, Note_on_c, 1, 45, 127
1, 257400, Note_on_c, 1, 71, 127
1, 257400, Note_on_c, 1, 62, 127
1, 257429, Note_off_c, 1, 80, 0
1, 257429, Note_off_c, 1, 71, 0
1, 257429, Note_off_c, 1, 62, 0
1, 257430, Note_on_c, 1, 81, 127
1, 257430, Note_on_c, 1, 73, 127
1, 257430, Note_on_c, 1, 64, 127
1, 257459, Note_off_c, 1, 76, 0
1, 257459, Note_off_c, 1, 74, 0
1, 257459, Note_off_c, 1, 45, 0
1, 257459, Note_off_c, 1, 81, 0
1, 257459, Note_off_c, 1, 73, 0
1, 257459, Note_off_c, 1, 64, 0
1, 257460, Note_on_c, 1, 80, 127
1, 257460, Note_on_c, 1, 76, 127
1, 257460, Note_on_c, 1, 74, 127
1, 257460, Note_on_c, 1, 45, 127
1, 257460, Note_on_c, 1, 71, 127
1, 257460, Note_on_c, 1, 62, 127
1, 257460, Note_on_c, 1, 57, 127
1, 257474, Note_off_c, 1, 45, 0
1, 257489, Note_off_c, 1, 80, 0
1, 257489, Note_off_c, 1, 71, 0
1, 257489, Note_off_c, 1, 62, 0
1, 257490, Note_on_c, 1, 81, 127
1, 257490, Note_on_c, 1, 73, 127
1, 257490, Note_on_c, 1, 64, 127
1, 257519, Note_off_c, 1, 76, 0
1, 257519, Note_off_c, 1, 74, 0
1, 257519, Note_off_c, 1, 57, 0
1, 257519, Note_off_c, 1, 81, 0
1, 257519, Note_off_c, 1, 73, 0
1, 257519, Note_off_c, 1, 64, 0
1, 257520, Note_on_c, 1, 83, 127
1, 257520, Note_on_c, 1, 76, 127
1, 257520, Note_on_c, 1, 74, 127
1, 257520, Note_on_c, 1, 45, 127
1, 257520, Note_on_c, 1, 66, 127
1, 257549, Note_off_c, 1, 83, 0
1, 257549, Note_off_c, 1, 66, 0
1, 257550, Note_on_c, 1, 80, 127
1, 257550, Note_on_c, 1, 71, 127
1, 257550, Note_on_c, 1, 62, 127
1, 257579, Note_off_c, 1, 76, 0
1, 257579, Note_off_c, 1, 74, 0
1, 257579, Note_off_c, 1, 45, 0
1, 257579, Note_off_c, 1, 80, 0
1, 257579, Note_off_c, 1, 71, 0
1, 257579, Note_off_c, 1, 62, 0
1, 257580, Note_on_c, 1, 81, 127
1, 257580, Note_on_c, 1, 76, 127
1, 257580, Note_on_c, 1, 69, 127
1, 257580, Note_on_c, 1, 45, 127
1, 257580, Note_on_c, 1, 73, 127
1, 257580, Note_on_c, 1, 64, 127
1, 257609, Note_off_c, 1, 73, 0
1, 257609, Note_off_c, 1, 64, 0
1, 257610, Note_on_c, 1, 71, 127
1, 257610, Note_on_c, 1, 62, 127
1, 257639, Note_off_c, 1, 81, 0
1, 257639, Note_off_c, 1, 76, 0
1, 257639, Note_off_c, 1, 69, 0
1, 257639, Note_off_c, 1, 45, 0
1, 257639, Note_off_c, 1, 71, 0
1, 257639, Note_off_c, 1, 62, 0
1, 257640, Note_on_c, 1, 76, 127
1, 257640, Note_on_c, 1, 69, 127
1, 257640, Note_on_c, 1, 45, 127
1, 257640, Note_on_c, 1, 64, 127
1, 257640, Note_on_c, 1, 49, 127
1, 257669, Note_off_c, 1, 64, 0
1, 257670, Note_on_c, 1, 67, 127
1, 257670, Note_on_c, 1, 57, 127
1, 257699, Note_off_c, 1, 76, 0
1, 257699, Note_off_c, 1, 69, 0
1, 257699, Note_off_c, 1, 45, 0
1, 257699, Note_off_c, 1, 49, 0
1, 257699, Note_off_c, 1, 67, 0
1, 257699, Note_off_c, 1, 57, 0
1, 257700, Note_on_c, 1, 78, 127
1, 257700, Note_on_c, 1, 74, 127
1, 257700, Note_on_c, 1, 69, 127
1, 257700, Note_on_c, 1, 50, 127
1, 257700, Note_on_c, 1, 66, 127
1, 257700, Note_on_c, 1, 62, 127
1, 257729, Note_off_c, 1, 66, 0
1, 257729, Note_off_c, 1, 62, 0
1, 257730, Note_on_c, 1, 67, 127
1, 257730, Note_on_c, 1, 64, 127
1, 257759, Note_off_c, 1, 50, 0
1, 257759, Note_off_c, 1, 67, 0
1, 257759, Note_off_c, 1, 64, 0
1, 257760, Note_on_c, 1, 42, 127
1, 257789, Note_off_c, 1, 78, 0
1, 257790, Note_on_c, 1, 79, 127
1, 257790, Note_on_c, 1, 71, 127
1, 257819, Note_off_c, 1, 74, 0
1, 257819, Note_off_c, 1, 69, 0
1, 257819, Note_off_c, 1, 42, 0
1, 257819, Note_off_c, 1, 79, 0
1, 257819, Note_off_c, 1, 71, 0
1, 257820, Note_on_c, 1, 76, 127
1, 257820, Note_on_c, 1, 69, 127
1, 257820, Note_on_c, 1, 45, 127
1, 257820, Note_on_c, 1, 73, 127
1, 257820, Note_on_c, 1, 64, 127
1, 257849, Note_off_c, 1, 69, 0
1, 257849, Note_off_c, 1, 73, 0
1, 257849, Note_off_c, 1, 64, 0
1, 257850, Note_on_c, 1, 74, 127
1, 257850, Note_on_c, 1, 66, 127
1, 257879, Note_off_c, 1, 45, 0
1, 257879, Note_off_c, 1, 74, 0
1, 257879, Note_off_c, 1, 66, 0
1, 257880, Note_on_c, 1, 71, 127
1, 257880, Note_on_c, 1, 62, 127
1, 257909, Note_off_c, 1, 76, 0
1, 257909, Note_off_c, 1, 71, 0
1, 257909, Note_off_c, 1, 62, 0
1, 257940, Note_on_c, 1, 74, 127
1, 257940, Note_on_c, 1, 69, 127
1, 257940, Note_on_c, 1, 66, 127
1, 257940, Note_on_c, 1, 50, 127
1, 257940, Note_on_c, 1, 38, 127
1, 257970, Note_on_c, 1, 76, 127
1, 257999, Note_off_c, 1, 74, 0
1, 257999, Note_off_c, 1, 69, 0
1, 257999, Note_off_c, 1, 66, 0
1, 257999, Note_off_c, 1, 50, 0
1, 257999, Note_off_c, 1, 38, 0
1, 257999, Note_off_c, 1, 76, 0
1, 258000, Note_on_c, 1, 74, 127
1, 258000, Note_on_c, 1, 69, 127
1, 258000, Note_on_c, 1, 66, 127
1, 258000, Note_on_c, 1, 50, 127
1, 258029, Note_off_c, 1, 74, 0
1, 258030, Note_on_c, 1, 76, 127
1, 258059, Note_off_c, 1, 69, 0
1, 258059, Note_off_c, 1, 66, 0
1, 258059, Note_off_c, 1, 50, 0
1, 258059, Note_off_c, 1, 76, 0
1, 258060, Note_on_c, 1, 78, 127
1, 258060, Note_on_c, 1, 74, 127
1, 258060, Note_on_c, 1, 69, 127
1, 258060, Note_on_c, 1, 66, 127
1, 258060, Note_on_c, 1, 62, 127
1, 258060, Note_on_c, 1, 57, 127
1, 258060, Note_on_c, 1, 38, 127
1, 258089, Note_off_c, 1, 78, 0
1, 258090, Note_on_c, 1, 76, 127
1, 258119, Note_off_c, 1, 74, 0
1, 258119, Note_off_c, 1, 69, 0
1, 258119, Note_off_c, 1, 66, 0
1, 258119, Note_off_c, 1, 62, 0
1, 258119, Note_off_c, 1, 57, 0
1, 258119, Note_off_c, 1, 38, 0
1, 258119, Note_off_c, 1, 76, 0
1, 258120, Note_on_c, 1, 74, 127
1, 258120, Note_on_c, 1, 69, 127
1, 258120, Note_on_c, 1, 66, 127
1, 258120, Note_on_c, 1, 45, 127
1, 258120, Note_on_c, 1, 62, 127
1, 258120, Note_on_c, 1, 50, 127
1, 258149, Note_off_c, 1, 50, 0
1, 258150, Note_on_c, 1, 52, 127
1, 258179, Note_off_c, 1, 45, 0
1, 258179, Note_off_c, 1, 62, 0
1, 258179, Note_off_c, 1, 52, 0
1, 258180, Note_on_c, 1, 57, 127
1, 258180, Note_on_c, 1, 54, 127
1, 258209, Note_off_c, 1, 54, 0
1, 258210, Note_on_c, 1, 55, 127
1, 258239, Note_off_c, 1, 57, 0
1, 258239, Note_off_c, 1, 55, 0
1, 258359, Note_off_c, 1, 74, 0
1, 258359, Note_off_c, 1, 69, 0
1, 258359, Note_off_c, 1, 66, 0
1, 258360, Note_on_c, 1, 54, 127
1, 258390, Note_on_c, 1, 55, 127
1, 258419, Note_off_c, 1, 54, 0
1, 258419, Note_off_c, 1, 55, 0
1, 258420, Note_on_c, 1, 50, 127
1, 258420, Note_on_c, 1, 57, 127
1, 258449, Note_off_c, 1, 57, 0
1, 258450, Note_on_c, 1, 54, 127
1, 258479, Note_off_c, 1, 50, 0
1, 258479, Note_off_c, 1, 54, 0
1, 258480, Note_on_c, 1, 52, 127
1, 258480, Note_on_c, 1, 55, 127
1, 258509, Note_off_c, 1, 52, 0
1, 258510, Note_on_c, 1, 50, 127
1, 258539, Note_off_c, 1, 55, 0
1, 258539, Note_off_c, 1, 50, 0
1, 258540, Note_on_c, 1, 52, 127
1, 258570, Note_on_c, 1, 54, 127
1, 258599, Note_off_c, 1, 52, 0
1, 258599, Note_off_c, 1, 54, 0
1, 258600, Note_on_c, 1, 55, 127
1, 258600, Note_on_c, 1, 57, 127
1, 258629, Note_off_c, 1, 55, 0
1, 258630, Note_on_c, 1, 52, 127
1, 258659, Note_off_c, 1, 57, 0
1, 258659, Note_off_c, 1, 52, 0
1, 258660, Note_on_c, 1, 54, 127
1, 258660, Note_on_c, 1, 50, 127
1, 258689, Note_off_c, 1, 50, 0
1, 258690, Note_on_c, 1, 52, 127
1, 258719, Note_off_c, 1, 54, 0
1, 258719, Note_off_c, 1, 52, 0
1, 258720, Note_on_c, 1, 50, 127
1, 258750, Note_on_c, 1, 52, 127
1, 258779, Note_off_c, 1, 50, 0
1, 258779, Note_off_c, 1, 52, 0
1, 258780, Note_on_c, 1, 57, 127
1, 258780, Note_on_c, 1, 54, 127
1, 258809, Note_off_c, 1, 54, 0
1, 258810, Note_on_c, 1, 52, 127
1, 258839, Note_off_c, 1, 57, 0
1, 258839, Note_off_c, 1, 52, 0
1, 258840, Note_on_c, 1, 60, 127
1, 258840, Note_on_c, 1, 50, 127
1, 258869, Note_off_c, 1, 50, 0
1, 258870, Note_on_c, 1, 52, 127
1, 258899, Note_off_c, 1, 60, 0
1, 258899, Note_off_c, 1, 52, 0
1, 258900, Note_on_c, 1, 62, 127
1, 258900, Note_on_c, 1, 50, 127
1, 258929, Note_off_c, 1, 62, 0
1, 258929, Note_off_c, 1, 50, 0
1, 258930, Note_on_c, 1, 59, 127
1, 258930, Note_on_c, 1, 52, 127
1, 258959, Note_off_c, 1, 59, 0
1, 258959, Note_off_c, 1, 52, 0
1, 258960, Note_on_c, 1, 69, 127
1, 258960, Note_on_c, 1, 66, 127
1, 258960, Note_on_c, 1, 60, 127
1, 258960, Note_on_c, 1, 54, 127
1, 258989, Note_off_c, 1, 54, 0
1, 258990, Note_on_c, 1, 50, 127
1, 259019, Note_off_c, 1, 60, 0
1, 259019, Note_off_c, 1, 50, 0
1, 259020, Note_off_c, 1, 69, 0
1, 259020, Note_off_c, 1, 66, 0
1, 259020, Note_on_c, 1, 71, 127
1, 259020, Note_on_c, 1, 67, 127
1, 259020, Note_on_c, 1, 59, 127
1, 259020, Note_on_c, 1, 55, 127
1, 259049, Note_off_c, 1, 55, 0
1, 259080, Note_off_c, 1, 71, 0
1, 259080, Note_on_c, 1, 62, 127
1, 259110, Note_on_c, 1, 57, 127
1, 259139, Note_off_c, 1, 59, 0
1, 259139, Note_off_c, 1, 57, 0
1, 259140, Note_off_c, 1, 67, 0
1, 259140, Note_off_c, 1, 62, 0
1, 259200, Note_on_c, 1, 50, 127
1, 259200, Note_on_c, 1, 52, 127
1, 259229, Note_off_c, 1, 52, 0
1, 259230, Note_on_c, 1, 54, 127
1, 259259, Note_off_c, 1, 50, 0
1, 259259, Note_off_c, 1, 54, 0
1, 259260, Note_on_c, 1, 49, 127
1, 259260, Note_on_c, 1, 52, 127
1, 259289, Note_off_c, 1, 49, 0
1, 259289, Note_off_c, 1, 52, 0
1, 259290, Note_on_c, 1, 47, 127
1, 259290, Note_on_c, 1, 54, 127
1, 259319, Note_off_c, 1, 47, 0
1, 259319, Note_off_c, 1, 54, 0
1, 259320, Note_on_c, 1, 83, 127
1, 259320, Note_on_c, 1, 80, 127
1, 259320, Note_on_c, 1, 76, 127
1, 259320, Note_on_c, 1, 52, 127
1, 259320, Note_on_c, 1, 56, 127
1, 259349, Note_off_c, 1, 56, 0
1, 259379, Note_off_c, 1, 83, 0
1, 259379, Note_off_c, 1, 80, 0
1, 259379, Note_off_c, 1, 76, 0
1, 259379, Note_off_c, 1, 52, 0
1, 259380, Note_on_c, 1, 85, 127
1, 259380, Note_on_c, 1, 81, 127
1, 259380, Note_on_c, 1, 76, 127
1, 259380, Note_on_c, 1, 45, 127
1, 259380, Note_on_c, 1, 49, 127
1, 259380, Note_on_c, 1, 57, 127
1, 259409, Note_off_c, 1, 57, 0
1, 259410, Note_on_c, 1, 59, 127
1, 259439, Note_off_c, 1, 85, 0
1, 259439, Note_off_c, 1, 81, 0
1, 259439, Note_off_c, 1, 76, 0
1, 259439, Note_off_c, 1, 59, 0
1, 259440, Note_off_c, 1, 45, 0
1, 259440, Note_on_c, 1, 69, 127
1, 259499, Note_off_c, 1, 49, 0
1, 259499, Note_off_c, 1, 69, 0
1, 259500, Note_on_c, 1, 81, 127
1, 259500, Note_on_c, 1, 76, 127
1, 259500, Note_on_c, 1, 64, 127
1, 259500, Note_on_c, 1, 57, 127
1, 259500, Note_on_c, 1, 61, 127
1, 259529, Note_off_c, 1, 61, 0
1, 259559, Note_off_c, 1, 81, 0
1, 259559, Note_off_c, 1, 76, 0
1, 259559, Note_off_c, 1, 64, 0
1, 259559, Note_off_c, 1, 57, 0
1, 259560, Note_on_c, 1, 81, 127
1, 259560, Note_on_c, 1, 78, 127
1, 259560, Note_on_c, 1, 69, 127
1, 259560, Note_on_c, 1, 66, 127
1, 259560, Note_on_c, 1, 51, 127
1, 259560, Note_on_c, 1, 54, 127
1, 259589, Note_off_c, 1, 69, 0
1, 259589, Note_off_c, 1, 66, 0
1, 259590, Note_on_c, 1, 71, 127
1, 259590, Note_on_c, 1, 67, 127
1, 259619, Note_off_c, 1, 54, 0
1, 259619, Note_off_c, 1, 71, 0
1, 259619, Note_off_c, 1, 67, 0
1, 259620, Note_on_c, 1, 57, 127
1, 259679, Note_off_c, 1, 57, 0
1, 259680, Note_on_c, 1, 72, 127
1, 259709, Note_off_c, 1, 72, 0
1, 259739, Note_off_c, 1, 81, 0
1, 259739, Note_off_c, 1, 78, 0
1, 259770, Note_on_c, 1, 79, 127
1, 259770, Note_on_c, 1, 76, 127
1, 259799, Note_off_c, 1, 51, 0
1, 259799, Note_off_c, 1, 79, 0
1, 259799, Note_off_c, 1, 76, 0
1, 259800, Note_on_c, 1, 81, 127
1, 259800, Note_on_c, 1, 78, 127
1, 259800, Note_on_c, 1, 52, 127
1, 259800, Note_on_c, 1, 47, 127
1, 259829, Note_off_c, 1, 81, 0
1, 259829, Note_off_c, 1, 78, 0
1, 259829, Note_off_c, 1, 52, 0
1, 259830, Note_on_c, 1, 83, 127
1, 259830, Note_on_c, 1, 79, 127
1, 259830, Note_on_c, 1, 51, 127
1, 259859, Note_off_c, 1, 47, 0
1, 259859, Note_off_c, 1, 83, 0
1, 259859, Note_off_c, 1, 79, 0
1, 259859, Note_off_c, 1, 51, 0
1, 259860, Note_on_c, 1, 81, 127
1, 259860, Note_on_c, 1, 78, 127
1, 259860, Note_on_c, 1, 49, 127
1, 259860, Note_on_c, 1, 51, 127
1, 259889, Note_off_c, 1, 81, 0
1, 259889, Note_off_c, 1, 78, 0
1, 259889, Note_off_c, 1, 49, 0
1, 259890, Note_on_c, 1, 83, 127
1, 259890, Note_on_c, 1, 79, 127
1, 259919, Note_off_c, 1, 51, 0
1, 259919, Note_off_c, 1, 83, 0
1, 259919, Note_off_c, 1, 79, 0
1, 259920, Note_on_c, 1, 79, 127
1, 259920, Note_on_c, 1, 76, 127
1, 259920, Note_on_c, 1, 52, 127
1, 259949, Note_off_c, 1, 79, 0
1, 259949, Note_off_c, 1, 76, 0
1, 259950, Note_on_c, 1, 81, 127
1, 259950, Note_on_c, 1, 78, 127
1, 259979, Note_off_c, 1, 52, 0
1, 259979, Note_off_c, 1, 81, 0
1, 259979, Note_off_c, 1, 78, 0
1, 259980, Note_on_c, 1, 79, 127
1, 259980, Note_on_c, 1, 76, 127
1, 259980, Note_on_c, 1, 71, 127
1, 259980, Note_on_c, 1, 67, 127
1, 259980, Note_on_c, 1, 64, 127
1, 260009, Note_off_c, 1, 79, 0
1, 260009, Note_off_c, 1, 76, 0
1, 260010, Note_on_c, 1, 81, 127
1, 260010, Note_on_c, 1, 78, 127
1, 260039, Note_off_c, 1, 71, 0
1, 260039, Note_off_c, 1, 67, 0
1, 260039, Note_off_c, 1, 64, 0
1, 260039, Note_off_c, 1, 81, 0
1, 260039, Note_off_c, 1, 78, 0
1, 260040, Note_on_c, 1, 83, 127
1, 260040, Note_on_c, 1, 79, 127
1, 260040, Note_on_c, 1, 67, 127
1, 260040, Note_on_c, 1, 64, 127
1, 260040, Note_on_c, 1, 59, 127
1, 260040, Note_on_c, 1, 52, 127
1, 260069, Note_off_c, 1, 83, 0
1, 260069, Note_off_c, 1, 79, 0
1, 260070, Note_on_c, 1, 81, 127
1, 260070, Note_on_c, 1, 78, 127
1, 260099, Note_off_c, 1, 67, 0
1, 260099, Note_off_c, 1, 64, 0
1, 260099, Note_off_c, 1, 59, 0
1, 260099, Note_off_c, 1, 52, 0
1, 260099, Note_off_c, 1, 81, 0
1, 260099, Note_off_c, 1, 78, 0
1, 260100, Note_on_c, 1, 79, 127
1, 260100, Note_on_c, 1, 76, 127
1, 260100, Note_on_c, 1, 67, 127
1, 260100, Note_on_c, 1, 64, 127
1, 260100, Note_on_c, 1, 52, 127
1, 260129, Note_off_c, 1, 79, 0
1, 260129, Note_off_c, 1, 76, 0
1, 260130, Note_on_c, 1, 81, 127
1, 260130, Note_on_c, 1, 78, 127
1, 260159, Note_off_c, 1, 67, 0
1, 260159, Note_off_c, 1, 64, 0
1, 260159, Note_off_c, 1, 52, 0
1, 260159, Note_off_c, 1, 81, 0
1, 260159, Note_off_c, 1, 78, 0
1, 260160, Note_on_c, 1, 79, 127
1, 260160, Note_on_c, 1, 76, 127
1, 260160, Note_on_c, 1, 71, 127
1, 260160, Note_on_c, 1, 67, 127
1, 260160, Note_on_c, 1, 52, 127
1, 260160, Note_on_c, 1, 64, 127
1, 260189, Note_off_c, 1, 79, 0
1, 260189, Note_off_c, 1, 76, 0
1, 260190, Note_on_c, 1, 81, 127
1, 260190, Note_on_c, 1, 78, 127
1, 260219, Note_off_c, 1, 71, 0
1, 260219, Note_off_c, 1, 67, 0
1, 260219, Note_off_c, 1, 52, 0
1, 260219, Note_off_c, 1, 64, 0
1, 260219, Note_off_c, 1, 81, 0
1, 260219, Note_off_c, 1, 78, 0
1, 260220, Note_on_c, 1, 83, 127
1, 260220, Note_on_c, 1, 79, 127
1, 260220, Note_on_c, 1, 67, 127
1, 260220, Note_on_c, 1, 64, 127
1, 260220, Note_on_c, 1, 55, 127
1, 260220, Note_on_c, 1, 52, 127
1, 260249, Note_off_c, 1, 83, 0
1, 260249, Note_off_c, 1, 79, 0
1, 260250, Note_on_c, 1, 81, 127
1, 260250, Note_on_c, 1, 78, 127
1, 260279, Note_off_c, 1, 67, 0
1, 260279, Note_off_c, 1, 64, 0
1, 260279, Note_off_c, 1, 55, 0
1, 260279, Note_off_c, 1, 52, 0
1, 260279, Note_off_c, 1, 81, 0
1, 260279, Note_off_c, 1, 78, 0
1, 260280, Note_on_c, 1, 79, 127
1, 260280, Note_on_c, 1, 76, 127
1, 260280, Note_on_c, 1, 67, 127
1, 260280, Note_on_c, 1, 64, 127
1, 260280, Note_on_c, 1, 49, 127
1, 260280, Note_on_c, 1, 52, 127
1, 260309, Note_off_c, 1, 67, 0
1, 260309, Note_off_c, 1, 64, 0
1, 260310, Note_on_c, 1, 69, 127
1, 260310, Note_on_c, 1, 66, 127
1, 260339, Note_off_c, 1, 52, 0
1, 260339, Note_off_c, 1, 69, 0
1, 260339, Note_off_c, 1, 66, 0
1, 260340, Note_on_c, 1, 55, 127
1, 260399, Note_off_c, 1, 55, 0
1, 260400, Note_on_c, 1, 71, 127
1, 260429, Note_off_c, 1, 71, 0
1, 260459, Note_off_c, 1, 79, 0
1, 260459, Note_off_c, 1, 76, 0
1, 260490, Note_on_c, 1, 78, 127
1, 260490, Note_on_c, 1, 74, 127
1, 260519, Note_off_c, 1, 49, 0
1, 260519, Note_off_c, 1, 78, 0
1, 260519, Note_off_c, 1, 74, 0
1, 260520, Note_on_c, 1, 79, 127
1, 260520, Note_on_c, 1, 76, 127
1, 260520, Note_on_c, 1, 50, 127
1, 260520, Note_on_c, 1, 52, 127
1, 260549, Note_off_c, 1, 79, 0
1, 260549, Note_off_c, 1, 76, 0
1, 260549, Note_off_c, 1, 50, 0
1, 260550, Note_on_c, 1, 81, 127
1, 260550, Note_on_c, 1, 78, 127
1, 260550, Note_on_c, 1, 49, 127
1, 260579, Note_off_c, 1, 52, 0
1, 260579, Note_off_c, 1, 81, 0
1, 260579, Note_off_c, 1, 78, 0
1, 260579, Note_off_c, 1, 49, 0
1, 260580, Note_on_c, 1, 79, 127
1, 260580, Note_on_c, 1, 76, 127
1, 260580, Note_on_c, 1, 47, 127
1, 260580, Note_on_c, 1, 45, 127
1, 260609, Note_off_c, 1, 79, 0
1, 260609, Note_off_c, 1, 76, 0
1, 260609, Note_off_c, 1, 47, 0
1, 260610, Note_on_c, 1, 81, 127
1, 260610, Note_on_c, 1, 78, 127
1, 260610, Note_on_c, 1, 49, 127
1, 260639, Note_off_c, 1, 45, 0
1, 260639, Note_off_c, 1, 81, 0
1, 260639, Note_off_c, 1, 78, 0
1, 260639, Note_off_c, 1, 49, 0
1, 260640, Note_on_c, 1, 79, 127
1, 260640, Note_on_c, 1, 74, 127
1, 260640, Note_on_c, 1, 50, 127
1, 260669, Note_off_c, 1, 79, 0
1, 260669, Note_off_c, 1, 74, 0
1, 260670, Note_on_c, 1, 81, 127
1, 260670, Note_on_c, 1, 76, 127
1, 260699, Note_off_c, 1, 50, 0
1, 260699, Note_off_c, 1, 81, 0
1, 260699, Note_off_c, 1, 76, 0
1, 260700, Note_on_c, 1, 79, 127
1, 260700, Note_on_c, 1, 74, 127
1, 260700, Note_on_c, 1, 69, 127
1, 260700, Note_on_c, 1, 50, 127
1, 260700, Note_on_c, 1, 66, 127
1, 260700, Note_on_c, 1, 62, 127
1, 260729, Note_off_c, 1, 79, 0
1, 260729, Note_off_c, 1, 74, 0
1, 260730, Note_on_c, 1, 81, 127
1, 260730, Note_on_c, 1, 76, 127
1, 260759, Note_off_c, 1, 69, 0
1, 260759, Note_off_c, 1, 66, 0
1, 260759, Note_off_c, 1, 62, 0
1, 260759, Note_off_c, 1, 81, 0
1, 260759, Note_off_c, 1, 76, 0
1, 260760, Note_on_c, 1, 83, 127
1, 260760, Note_on_c, 1, 78, 127
1, 260760, Note_on_c, 1, 57, 127
1, 260789, Note_off_c, 1, 83, 0
1, 260789, Note_off_c, 1, 78, 0
1, 260819, Note_off_c, 1, 57, 0
1, 260939, Note_off_c, 1, 50, 0
1, 260940, Note_on_c, 1, 83, 127
1, 260940, Note_on_c, 1, 78, 127
1, 260940, Note_on_c, 1, 66, 127
1, 260940, Note_on_c, 1, 62, 127
1, 260940, Note_on_c, 1, 50, 127
1, 260999, Note_off_c, 1, 83, 0
1, 260999, Note_off_c, 1, 78, 0
1, 260999, Note_off_c, 1, 66, 0
1, 260999, Note_off_c, 1, 62, 0
1, 260999, Note_off_c, 1, 50, 0
1, 261000, Note_on_c, 1, 71, 127
1, 261000, Note_on_c, 1, 67, 127
1, 261000, Note_on_c, 1, 43, 127
1, 261029, Note_off_c, 1, 43, 0
1, 261030, Note_on_c, 1, 57, 127
1, 261059, Note_off_c, 1, 57, 0
1, 261060, Note_on_c, 1, 83, 127
1, 261060, Note_on_c, 1, 79, 127
1, 261060, Note_on_c, 1, 55, 127
1, 261089, Note_off_c, 1, 55, 0
1, 261090, Note_on_c, 1, 54, 127
1, 261119, Note_off_c, 1, 83, 0
1, 261119, Note_off_c, 1, 79, 0
1, 261119, Note_off_c, 1, 54, 0
1, 261120, Note_on_c, 1, 59, 127
1, 261120, Note_on_c, 1, 52, 127
1, 261149, Note_off_c, 1, 52, 0
1, 261150, Note_on_c, 1, 50, 127
1, 261179, Note_off_c, 1, 71, 0
1, 261179, Note_off_c, 1, 67, 0
1, 261179, Note_off_c, 1, 59, 0
1, 261179, Note_off_c, 1, 50, 0
1, 261180, Note_on_c, 1, 79, 127
1, 261180, Note_on_c, 1, 76, 127
1, 261180, Note_on_c, 1, 61, 127
1, 261180, Note_on_c, 1, 49, 127
1, 261210, Note_on_c, 1, 69, 127
1, 261210, Note_on_c, 1, 66, 127
1, 261239, Note_off_c, 1, 79, 0
1, 261239, Note_off_c, 1, 76, 0
1, 261239, Note_off_c, 1, 61, 0
1, 261239, Note_off_c, 1, 49, 0
1, 261239, Note_off_c, 1, 69, 0
1, 261239, Note_off_c, 1, 66, 0
1, 261240, Note_on_c, 1, 83, 127
1, 261240, Note_on_c, 1, 79, 127
1, 261240, Note_on_c, 1, 71, 127
1, 261240, Note_on_c, 1, 67, 127
1, 261240, Note_on_c, 1, 49, 127
1, 261240, Note_on_c, 1, 61, 127
1, 261269, Note_off_c, 1, 71, 0
1, 261269, Note_off_c, 1, 67, 0
1, 261270, Note_on_c, 1, 73, 127
1, 261270, Note_on_c, 1, 69, 127
1, 261299, Note_off_c, 1, 83, 0
1, 261299, Note_off_c, 1, 79, 0
1, 261299, Note_off_c, 1, 49, 0
1, 261299, Note_off_c, 1, 61, 0
1, 261299, Note_off_c, 1, 73, 0
1, 261299, Note_off_c, 1, 69, 0
1, 261300, Note_on_c, 1, 76, 127
1, 261300, Note_on_c, 1, 85, 127
1, 261300, Note_on_c, 1, 71, 127
1, 261300, Note_on_c, 1, 67, 127
1, 261300, Note_on_c, 1, 49, 127
1, 261329, Note_off_c, 1, 71, 0
1, 261329, Note_off_c, 1, 67, 0
1, 261330, Note_on_c, 1, 73, 127
1, 261330, Note_on_c, 1, 69, 127
1, 261359, Note_off_c, 1, 76, 0
1, 261359, Note_off_c, 1, 85, 0
1, 261359, Note_off_c, 1, 49, 0
1, 261359, Note_off_c, 1, 73, 0
1, 261359, Note_off_c, 1, 69, 0
1, 261360, Note_on_c, 1, 69, 127
1, 261360, Note_on_c, 1, 66, 127
1, 261360, Note_on_c, 1, 42, 127
1, 261389, Note_off_c, 1, 42, 0
1, 261390, Note_on_c, 1, 55, 127
1, 261419, Note_off_c, 1, 55, 0
1, 261420, Note_on_c, 1, 81, 127
1, 261420, Note_on_c, 1, 78, 127
1, 261420, Note_on_c, 1, 54, 127
1, 261449, Note_off_c, 1, 54, 0
1, 261450, Note_on_c, 1, 52, 127
1, 261479, Note_off_c, 1, 81, 0
1, 261479, Note_off_c, 1, 78, 0
1, 261479, Note_off_c, 1, 52, 0
1, 261480, Note_on_c, 1, 50, 127
1, 261509, Note_off_c, 1, 50, 0
1, 261510, Note_on_c, 1, 49, 127
1, 261539, Note_off_c, 1, 69, 0
1, 261539, Note_off_c, 1, 66, 0
1, 261539, Note_off_c, 1, 49, 0
1, 261540, Note_on_c, 1, 78, 127
1, 261540, Note_on_c, 1, 74, 127
1, 261540, Note_on_c, 1, 69, 127
1, 261540, Note_on_c, 1, 59, 127
1, 261540, Note_on_c, 1, 47, 127
1, 261569, Note_off_c, 1, 69, 0
1, 261570, Note_on_c, 1, 67, 127
1, 261570, Note_on_c, 1, 64, 127
1, 261599, Note_off_c, 1, 78, 0
1, 261599, Note_off_c, 1, 74, 0
1, 261599, Note_off_c, 1, 59, 0
1, 261599, Note_off_c, 1, 47, 0
1, 261599, Note_off_c, 1, 67, 0
1, 261599, Note_off_c, 1, 64, 0
1, 261600, Note_on_c, 1, 81, 127
1, 261600, Note_on_c, 1, 78, 127
1, 261600, Note_on_c, 1, 69, 127
1, 261600, Note_on_c, 1, 66, 127
1, 261600, Note_on_c, 1, 47, 127
1, 261600, Note_on_c, 1, 59, 127
1, 261629, Note_off_c, 1, 69, 0
1, 261629, Note_off_c, 1, 66, 0
1, 261630, Note_on_c, 1, 71, 127
1, 261630, Note_on_c, 1, 67, 127
1, 261659, Note_off_c, 1, 81, 0
1, 261659, Note_off_c, 1, 78, 0
1, 261659, Note_off_c, 1, 47, 0
1, 261659, Note_off_c, 1, 59, 0
1, 261659, Note_off_c, 1, 71, 0
1, 261659, Note_off_c, 1, 67, 0
1, 261660, Note_on_c, 1, 74, 127
1, 261660, Note_on_c, 1, 83, 127
1, 261660, Note_on_c, 1, 69, 127
1, 261660, Note_on_c, 1, 66, 127
1, 261660, Note_on_c, 1, 47, 127
1, 261689, Note_off_c, 1, 69, 0
1, 261689, Note_off_c, 1, 66, 0
1, 261690, Note_on_c, 1, 71, 127
1, 261690, Note_on_c, 1, 67, 127
1, 261719, Note_off_c, 1, 74, 0
1, 261719, Note_off_c, 1, 83, 0
1, 261719, Note_off_c, 1, 47, 0
1, 261719, Note_off_c, 1, 71, 0
1, 261719, Note_off_c, 1, 67, 0
1, 261720, Note_on_c, 1, 67, 127
1, 261720, Note_on_c, 1, 64, 127
1, 261720, Note_on_c, 1, 40, 127
1, 261749, Note_off_c, 1, 40, 0
1, 261750, Note_on_c, 1, 54, 127
1, 261779, Note_off_c, 1, 54, 0
1, 261780, Note_on_c, 1, 79, 127
1, 261780, Note_on_c, 1, 76, 127
1, 261780, Note_on_c, 1, 52, 127
1, 261809, Note_off_c, 1, 52, 0
1, 261810, Note_on_c, 1, 50, 127
1, 261839, Note_off_c, 1, 79, 0
1, 261839, Note_off_c, 1, 76, 0
1, 261839, Note_off_c, 1, 50, 0
1, 261840, Note_on_c, 1, 49, 127
1, 261869, Note_off_c, 1, 49, 0
1, 261870, Note_on_c, 1, 47, 127
1, 261899, Note_off_c, 1, 67, 0
1, 261899, Note_off_c, 1, 64, 0
1, 261899, Note_off_c, 1, 47, 0
1, 261900, Note_on_c, 1, 76, 127
1, 261900, Note_on_c, 1, 69, 127
1, 261900, Note_on_c, 1, 57, 127
1, 261900, Note_on_c, 1, 45, 127
1, 261930, Note_on_c, 1, 66, 127
1, 261930, Note_on_c, 1, 62, 127
1, 261959, Note_off_c, 1, 76, 0
1, 261959, Note_off_c, 1, 69, 0
1, 261959, Note_off_c, 1, 57, 0
1, 261959, Note_off_c, 1, 45, 0
1, 261959, Note_off_c, 1, 66, 0
1, 261959, Note_off_c, 1, 62, 0
1, 261960, Note_on_c, 1, 79, 127
1, 261960, Note_on_c, 1, 76, 127
1, 261960, Note_on_c, 1, 67, 127
1, 261960, Note_on_c, 1, 64, 127
1, 261960, Note_on_c, 1, 45, 127
1, 261960, Note_on_c, 1, 57, 127
1, 261989, Note_off_c, 1, 67, 0
1, 261989, Note_off_c, 1, 64, 0
1, 261990, Note_on_c, 1, 69, 127
1, 261990, Note_on_c, 1, 66, 127
1, 262019, Note_off_c, 1, 79, 0
1, 262019, Note_off_c, 1, 76, 0
1, 262019, Note_off_c, 1, 45, 0
1, 262019, Note_off_c, 1, 57, 0
1, 262019, Note_off_c, 1, 69, 0
1, 262019, Note_off_c, 1, 66, 0
1, 262020, Note_on_c, 1, 69, 127
1, 262020, Note_on_c, 1, 81, 127
1, 262020, Note_on_c, 1, 67, 127
1, 262020, Note_on_c, 1, 64, 127
1, 262020, Note_on_c, 1, 57, 127
1, 262020, Note_on_c, 1, 45, 127
1, 262049, Note_off_c, 1, 67, 0
1, 262049, Note_off_c, 1, 64, 0
1, 262050, Note_on_c, 1, 66, 127
1, 262079, Note_off_c, 1, 69, 0
1, 262079, Note_off_c, 1, 81, 0
1, 262079, Note_off_c, 1, 57, 0
1, 262079, Note_off_c, 1, 45, 0
1, 262079, Note_off_c, 1, 66, 0
1, 262080, Note_on_c, 1, 66, 127
1, 262080, Note_on_c, 1, 62, 127
1, 262080, Note_on_c, 1, 59, 127
1, 262080, Note_on_c, 1, 38, 127
1, 262109, Note_off_c, 1, 38, 0
1, 262110, Note_on_c, 1, 50, 127
1, 262139, Note_off_c, 1, 66, 0
1, 262139, Note_off_c, 1, 62, 0
1, 262139, Note_off_c, 1, 59, 0
1, 262139, Note_off_c, 1, 50, 0
1, 262140, Note_on_c, 1, 78, 127
1, 262140, Note_on_c, 1, 74, 127
1, 262140, Note_on_c, 1, 69, 127
1, 262140, Note_on_c, 1, 50, 127
1, 262140, Note_on_c, 1, 66, 127
1, 262140, Note_on_c, 1, 61, 127
1, 262140, Note_on_c, 1, 49, 127
1, 262169, Note_off_c, 1, 78, 0
1, 262169, Note_off_c, 1, 74, 0
1, 262169, Note_off_c, 1, 50, 0
1, 262169, Note_off_c, 1, 61, 0
1, 262169, Note_off_c, 1, 49, 0
1, 262170, Note_on_c, 1, 79, 127
1, 262170, Note_on_c, 1, 76, 127
1, 262170, Note_on_c, 1, 59, 127
1, 262170, Note_on_c, 1, 47, 127
1, 262199, Note_off_c, 1, 69, 0
1, 262199, Note_off_c, 1, 66, 0
1, 262199, Note_off_c, 1, 79, 0
1, 262199, Note_off_c, 1, 76, 0
1, 262199, Note_off_c, 1, 59, 0
1, 262199, Note_off_c, 1, 47, 0
1, 262200, Note_on_c, 1, 78, 127
1, 262200, Note_on_c, 1, 74, 127
1, 262200, Note_on_c, 1, 69, 127
1, 262200, Note_on_c, 1, 50, 127
1, 262200, Note_on_c, 1, 66, 127
1, 262200, Note_on_c, 1, 62, 127
1, 262200, Note_on_c, 1, 57, 127
1, 262200, Note_on_c, 1, 45, 127
1, 262229, Note_off_c, 1, 78, 0
1, 262229, Note_off_c, 1, 74, 0
1, 262229, Note_off_c, 1, 69, 0
1, 262229, Note_off_c, 1, 50, 0
1, 262229, Note_off_c, 1, 57, 0
1, 262229, Note_off_c, 1, 45, 0
1, 262230, Note_on_c, 1, 79, 127
1, 262230, Note_on_c, 1, 76, 127
1, 262230, Note_on_c, 1, 55, 127
1, 262230, Note_on_c, 1, 43, 127
1, 262259, Note_off_c, 1, 66, 0
1, 262259, Note_off_c, 1, 62, 0
1, 262259, Note_off_c, 1, 79, 0
1, 262259, Note_off_c, 1, 76, 0
1, 262259, Note_off_c, 1, 55, 0
1, 262259, Note_off_c, 1, 43, 0
1, 262260, Note_on_c, 1, 81, 127
1, 262260, Note_on_c, 1, 78, 127
1, 262260, Note_on_c, 1, 69, 127
1, 262260, Note_on_c, 1, 50, 127
1, 262260, Note_on_c, 1, 62, 127
1, 262260, Note_on_c, 1, 57, 127
1, 262260, Note_on_c, 1, 54, 127
1, 262260, Note_on_c, 1, 42, 127
1, 262289, Note_off_c, 1, 54, 0
1, 262289, Note_off_c, 1, 42, 0
1, 262290, Note_on_c, 1, 45, 127
1, 262319, Note_off_c, 1, 81, 0
1, 262319, Note_off_c, 1, 78, 0
1, 262319, Note_off_c, 1, 69, 0
1, 262319, Note_off_c, 1, 50, 0
1, 262319, Note_off_c, 1, 62, 0
1, 262319, Note_off_c, 1, 57, 0
1, 262319, Note_off_c, 1, 45, 0
1, 262320, Note_on_c, 1, 83, 127
1, 262320, Note_on_c, 1, 74, 127
1, 262320, Note_on_c, 1, 62, 127
1, 262320, Note_on_c, 1, 50, 127
1, 262320, Note_on_c, 1, 57, 127
1, 262320, Note_on_c, 1, 54, 127
1, 262320, Note_on_c, 1, 55, 127
1, 262320, Note_on_c, 1, 43, 127
1, 262349, Note_off_c, 1, 83, 0
1, 262349, Note_off_c, 1, 55, 0
1, 262349, Note_off_c, 1, 43, 0
1, 262350, Note_on_c, 1, 81, 127
1, 262350, Note_on_c, 1, 42, 127
1, 262379, Note_off_c, 1, 74, 0
1, 262379, Note_off_c, 1, 62, 0
1, 262379, Note_off_c, 1, 50, 0
1, 262379, Note_off_c, 1, 57, 0
1, 262379, Note_off_c, 1, 54, 0
1, 262379, Note_off_c, 1, 81, 0
1, 262379, Note_off_c, 1, 42, 0
1, 262380, Note_on_c, 1, 79, 127
1, 262380, Note_on_c, 1, 69, 127
1, 262380, Note_on_c, 1, 66, 127
1, 262380, Note_on_c, 1, 50, 127
1, 262380, Note_on_c, 1, 62, 127
1, 262380, Note_on_c, 1, 57, 127
1, 262380, Note_on_c, 1, 52, 127
1, 262380, Note_on_c, 1, 40, 127
1, 262409, Note_off_c, 1, 79, 0
1, 262409, Note_off_c, 1, 52, 0
1, 262409, Note_off_c, 1, 40, 0
1, 262410, Note_on_c, 1, 78, 127
1, 262410, Note_on_c, 1, 38, 127
1, 262439, Note_off_c, 1, 69, 0
1, 262439, Note_off_c, 1, 66, 0
1, 262439, Note_off_c, 1, 50, 0
1, 262439, Note_off_c, 1, 62, 0
1, 262439, Note_off_c, 1, 57, 0
1, 262439, Note_off_c, 1, 78, 0
1, 262439, Note_off_c, 1, 38, 0
1, 262440, Note_on_c, 1, 76, 127
1, 262440, Note_on_c, 1, 69, 127
1, 262440, Note_on_c, 1, 45, 127
1, 262440, Note_on_c, 1, 64, 127
1, 262440, Note_on_c, 1, 57, 127
1, 262469, Note_off_c, 1, 64, 0
1, 262470, Note_on_c, 1, 66, 127
1, 262470, Note_on_c, 1, 62, 127
1, 262499, Note_off_c, 1, 76, 0
1, 262499, Note_off_c, 1, 69, 0
1, 262499, Note_off_c, 1, 45, 0
1, 262499, Note_off_c, 1, 57, 0
1, 262499, Note_off_c, 1, 66, 0
1, 262499, Note_off_c, 1, 62, 0
1, 262500, Note_on_c, 1, 79, 127
1, 262500, Note_on_c, 1, 76, 127
1, 262500, Note_on_c, 1, 45, 127
1, 262500, Note_on_c, 1, 64, 127
1, 262500, Note_on_c, 1, 57, 127
1, 262529, Note_off_c, 1, 64, 0
1, 262530, Note_on_c, 1, 66, 127
1, 262530, Note_on_c, 1, 62, 127
1, 262559, Note_off_c, 1, 79, 0
1, 262559, Note_off_c, 1, 76, 0
1, 262559, Note_off_c, 1, 45, 0
1, 262559, Note_off_c, 1, 57, 0
1, 262559, Note_off_c, 1, 66, 0
1, 262559, Note_off_c, 1, 62, 0
1, 262560, Note_on_c, 1, 45, 127
1, 262560, Note_on_c, 1, 67, 127
1, 262560, Note_on_c, 1, 64, 127
1, 262560, Note_on_c, 1, 57, 127
1, 262589, Note_off_c, 1, 67, 0
1, 262589, Note_off_c, 1, 64, 0
1, 262590, Note_on_c, 1, 66, 127
1, 262590, Note_on_c, 1, 62, 127
1, 262619, Note_off_c, 1, 45, 0
1, 262619, Note_off_c, 1, 57, 0
1, 262619, Note_off_c, 1, 66, 0
1, 262619, Note_off_c, 1, 62, 0
1, 262620, Note_on_c, 1, 76, 127
1, 262620, Note_on_c, 1, 69, 127
1, 262620, Note_on_c, 1, 45, 127
1, 262620, Note_on_c, 1, 64, 127
1, 262620, Note_on_c, 1, 57, 127
1, 262649, Note_off_c, 1, 76, 0
1, 262650, Note_on_c, 1, 78, 127
1, 262650, Note_on_c, 1, 74, 127
1, 262679, Note_off_c, 1, 69, 0
1, 262679, Note_off_c, 1, 45, 0
1, 262679, Note_off_c, 1, 64, 0
1, 262679, Note_off_c, 1, 78, 0
1, 262679, Note_off_c, 1, 74, 0
1, 262680, Note_on_c, 1, 67, 127
1, 262739, Note_off_c, 1, 67, 0
1, 262740, Note_on_c, 1, 79, 127
1, 262769, Note_off_c, 1, 79, 0
1, 262800, Note_on_c, 1, 66, 127
1, 262800, Note_on_c, 1, 62, 127
1, 262829, Note_off_c, 1, 66, 0
1, 262829, Note_off_c, 1, 62, 0
1, 262860, Note_on_c, 1, 81, 127
1, 262919, Note_off_c, 1, 81, 0
1, 263160, Note_on_c, 1, 83, 127
1, 263160, Note_on_c, 1, 68, 127
1, 263189, Note_off_c, 1, 83, 0
1, 263189, Note_off_c, 1, 68, 0
1, 263190, Note_on_c, 1, 85, 127
1, 263219, Note_off_c, 1, 85, 0
1, 263280, Note_on_c, 1, 86, 127
1, 263280, Note_on_c, 1, 71, 127
1, 263309, Note_off_c, 1, 86, 0
1, 263309, Note_off_c, 1, 71, 0
1, 263400, Note_on_c, 1, 49, 127
1, 263459, Note_off_c, 1, 49, 0
1, 263460, Note_on_c, 1, 50, 127
1, 263519, Note_off_c, 1, 50, 0
1, 263520, Note_on_c, 1, 42, 127
1, 263579, Note_off_c, 1, 42, 0
1, 263580, Note_on_c, 1, 55, 127
1, 263609, Note_off_c, 1, 57, 0
1, 263609, Note_off_c, 1, 55, 0
1, 263610, Note_on_c, 1, 54, 127
1, 263639, Note_off_c, 1, 54, 0
1, 263700, Note_on_c, 1, 86, 127
1, 263700, Note_on_c, 1, 78, 127
1, 263700, Note_on_c, 1, 69, 127
1, 263700, Note_on_c, 1, 50, 127
1, 263700, Note_on_c, 1, 62, 127
1, 263700, Note_on_c, 1, 54, 127
1, 263730, Note_on_c, 1, 52, 127
1, 263759, Note_off_c, 1, 86, 0
1, 263759, Note_off_c, 1, 78, 0
1, 263759, Note_off_c, 1, 69, 0
1, 263759, Note_off_c, 1, 50, 0
1, 263759, Note_off_c, 1, 62, 0
1, 263759, Note_off_c, 1, 54, 0
1, 263759, Note_off_c, 1, 52, 0
1, 263760, Note_on_c, 1, 50, 127
1, 263789, Note_off_c, 1, 50, 0
1, 263790, Note_on_c, 1, 49, 127
1, 263819, Note_off_c, 1, 49, 0
1, 263820, Note_on_c, 1, 50, 127
1, 263820, Note_on_c, 1, 47, 127
1, 263849, Note_off_c, 1, 47, 0
1, 263850, Note_on_c, 1, 45, 127
1, 263879, Note_off_c, 1, 50, 0
1, 263879, Note_off_c, 1, 45, 0
1, 263880, Note_on_c, 1, 59, 127
1, 263880, Note_on_c, 1, 43, 127
1, 263909, Note_off_c, 1, 43, 0
1, 263910, Note_on_c, 1, 54, 127
1, 263939, Note_off_c, 1, 59, 0
1, 263939, Note_off_c, 1, 54, 0
1, 263940, Note_on_c, 1, 55, 127
1, 263940, Note_on_c, 1, 52, 127
1, 263969, Note_off_c, 1, 52, 0
1, 263970, Note_on_c, 1, 50, 127
1, 263999, Note_off_c, 1, 55, 0
1, 263999, Note_off_c, 1, 50, 0
1, 264000, Note_on_c, 1, 52, 127
1, 264000, Note_on_c, 1, 49, 127
1, 264029, Note_off_c, 1, 49, 0
1, 264030, Note_on_c, 1, 47, 127
1, 264059, Note_off_c, 1, 52, 0
1, 264059, Note_off_c, 1, 47, 0
1, 264060, Note_on_c, 1, 61, 127
1, 264060, Note_on_c, 1, 45, 127
1, 264089, Note_off_c, 1, 45, 0
1, 264090, Note_on_c, 1, 55, 127
1, 264119, Note_off_c, 1, 61, 0
1, 264119, Note_off_c, 1, 55, 0
1, 264120, Note_on_c, 1, 57, 127
1, 264120, Note_on_c, 1, 54, 127
1, 264149, Note_off_c, 1, 54, 0
1, 264150, Note_on_c, 1, 52, 127
1, 264179, Note_off_c, 1, 57, 0
1, 264179, Note_off_c, 1, 52, 0
1, 264180, Note_on_c, 1, 54, 127
1, 264180, Note_on_c, 1, 50, 127
1, 264209, Note_off_c, 1, 50, 0
1, 264210, Note_on_c, 1, 49, 127
1, 264239, Note_off_c, 1, 54, 0
1, 264239, Note_off_c, 1, 49, 0
1, 264240, Note_on_c, 1, 62, 127
1, 264240, Note_on_c, 1, 47, 127
1, 264269, Note_off_c, 1, 62, 0
1, 264270, Note_on_c, 1, 64, 127
1, 264299, Note_off_c, 1, 47, 0
1, 264299, Note_off_c, 1, 64, 0
1, 264300, Note_on_c, 1, 62, 127
1, 264300, Note_on_c, 1, 49, 127
1, 264329, Note_off_c, 1, 62, 0
1, 264330, Note_on_c, 1, 61, 127
1, 264359, Note_off_c, 1, 49, 0
1, 264359, Note_off_c, 1, 61, 0
1, 264360, Note_on_c, 1, 59, 127
1, 264360, Note_on_c, 1, 50, 127
1, 264389, Note_off_c, 1, 59, 0
1, 264390, Note_on_c, 1, 57, 127
1, 264419, Note_off_c, 1, 50, 0
1, 264419, Note_off_c, 1, 57, 0
1, 264420, Note_on_c, 1, 55, 127
1, 264420, Note_on_c, 1, 52, 127
1, 264449, Note_off_c, 1, 55, 0
1, 264450, Note_on_c, 1, 59, 127
1, 264479, Note_off_c, 1, 52, 0
1, 264479, Note_off_c, 1, 59, 0
1, 264480, Note_on_c, 1, 64, 127
1, 264480, Note_on_c, 1, 54, 127
1, 264509, Note_off_c, 1, 64, 0
1, 264510, Note_on_c, 1, 62, 127
1, 264539, Note_off_c, 1, 54, 0
1, 264539, Note_off_c, 1, 62, 0
1, 264540, Note_on_c, 1, 61, 127
1, 264540, Note_on_c, 1, 55, 127
1, 264569, Note_off_c, 1, 61, 0
1, 264570, Note_on_c, 1, 59, 127
1, 264599, Note_off_c, 1, 55, 0
1, 264599, Note_off_c, 1, 59, 0
1, 264600, Note_on_c, 1, 61, 127
1, 264600, Note_on_c, 1, 57, 127
1, 264629, Note_off_c, 1, 61, 0
1, 264630, Note_on_c, 1, 62, 127
1, 264659, Note_off_c, 1, 57, 0
1, 264659, Note_off_c, 1, 62, 0
1, 264660, Note_on_c, 1, 61, 127
1, 264660, Note_on_c, 1, 59, 127
1, 264689, Note_off_c, 1, 61, 0
1, 264719, Note_off_c, 1, 59, 0
1, 264720, Note_on_c, 1, 57, 127
1, 264720, Note_on_c, 1, 61, 127
1, 264749, Note_off_c, 1, 57, 0
1, 264750, Note_on_c, 1, 55, 127
1, 264779, Note_off_c, 1, 61, 0
1, 264779, Note_off_c, 1, 55, 0
1, 264780, Note_on_c, 1, 54, 127
1, 264780, Note_on_c, 1, 62, 127
1, 264809, Note_off_c, 1, 54, 0
1, 264810, Note_on_c, 1, 57, 127
1, 264839, Note_off_c, 1, 62, 0
1, 264839, Note_off_c, 1, 57, 0
1, 264840, Note_on_c, 1, 62, 127
1, 264840, Note_on_c, 1, 64, 127
1, 264869, Note_off_c, 1, 62, 0
1, 264870, Note_on_c, 1, 61, 127
1, 264899, Note_off_c, 1, 64, 0
1, 264899, Note_off_c, 1, 61, 0
1, 264900, Note_on_c, 1, 59, 127
1, 264900, Note_on_c, 1, 66, 127
1, 264929, Note_off_c, 1, 59, 0
1, 264930, Note_on_c, 1, 57, 127
1, 264959, Note_off_c, 1, 66, 0
1, 264959, Note_off_c, 1, 57, 0
1, 264960, Note_on_c, 1, 59, 127
1, 264960, Note_on_c, 1, 67, 127
1, 264989, Note_off_c, 1, 59, 0
1, 264989, Note_off_c, 1, 67, 0
1, 264990, Note_on_c, 1, 57, 127
1, 264990, Note_on_c, 1, 66, 127
1, 265019, Note_off_c, 1, 57, 0
1, 265019, Note_off_c, 1, 66, 0
1, 265020, Note_on_c, 1, 55, 127
1, 265020, Note_on_c, 1, 64, 127
1, 265049, Note_off_c, 1, 55, 0
1, 265049, Note_off_c, 1, 64, 0
1, 265050, Note_on_c, 1, 54, 127
1, 265050, Note_on_c, 1, 62, 127
1, 265079, Note_off_c, 1, 54, 0
1, 265079, Note_off_c, 1, 62, 0
1, 265080, Note_on_c, 1, 52, 127
1, 265080, Note_on_c, 1, 61, 127
1, 265109, Note_off_c, 1, 52, 0
1, 265109, Note_off_c, 1, 61, 0
1, 265110, Note_on_c, 1, 50, 127
1, 265110, Note_on_c, 1, 59, 127
1, 265139, Note_off_c, 1, 50, 0
1, 265139, Note_off_c, 1, 59, 0
1, 265140, Note_on_c, 1, 57, 127
1, 265140, Note_on_c, 1, 61, 127
1, 265169, Note_off_c, 1, 61, 0
1, 265170, Note_on_c, 1, 59, 127
1, 265199, Note_off_c, 1, 57, 0
1, 265199, Note_off_c, 1, 59, 0
1, 265200, Note_on_c, 1, 57, 127
1, 265230, Note_on_c, 1, 55, 127
1, 265259, Note_off_c, 1, 57, 0
1, 265259, Note_off_c, 1, 55, 0
1, 265260, Note_on_c, 1, 62, 127
1, 265260, Note_on_c, 1, 54, 127
1, 265289, Note_off_c, 1, 54, 0
1, 265290, Note_on_c, 1, 57, 127
1, 265319, Note_off_c, 1, 62, 0
1, 265319, Note_off_c, 1, 57, 0
1, 265320, Note_on_c, 1, 59, 127
1, 265320, Note_on_c, 1, 55, 127
1, 265349, Note_off_c, 1, 55, 0
1, 265350, Note_on_c, 1, 54, 127
1, 265379, Note_off_c, 1, 59, 0
1, 265379, Note_off_c, 1, 54, 0
1, 265380, Note_on_c, 1, 55, 127
1, 265380, Note_on_c, 1, 52, 127
1, 265409, Note_off_c, 1, 52, 0
1, 265410, Note_on_c, 1, 50, 127
1, 265439, Note_off_c, 1, 55, 0
1, 265439, Note_off_c, 1, 50, 0
1, 265440, Note_on_c, 1, 52, 127
1, 265440, Note_on_c, 1, 49, 127
1, 265469, Note_off_c, 1, 49, 0
1, 265470, Note_on_c, 1, 47, 127
1, 265499, Note_off_c, 1, 52, 0
1, 265499, Note_off_c, 1, 47, 0
1, 265500, Note_on_c, 1, 49, 127
1, 265500, Note_on_c, 1, 45, 127
1, 265529, Note_off_c, 1, 45, 0
1, 265530, Note_on_c, 1, 43, 127
1, 265559, Note_off_c, 1, 49, 0
1, 265559, Note_off_c, 1, 43, 0
1, 265560, Note_on_c, 1, 45, 127
1, 265560, Note_on_c, 1, 42, 127
1, 265589, Note_off_c, 1, 42, 0
1, 265590, Note_on_c, 1, 40, 127
1, 265619, Note_off_c, 1, 45, 0
1, 265619, Note_off_c, 1, 40, 0
1, 265620, Note_on_c, 1, 57, 127
1, 265620, Note_on_c, 1, 38, 127
1, 265649, Note_off_c, 1, 38, 0
1, 265650, Note_on_c, 1, 40, 127
1, 265679, Note_off_c, 1, 57, 0
1, 265679, Note_off_c, 1, 40, 0
1, 265680, Note_on_c, 1, 57, 127
1, 265680, Note_on_c, 1, 42, 127
1, 265709, Note_off_c, 1, 42, 0
1, 265710, Note_on_c, 1, 43, 127
1, 265739, Note_off_c, 1, 57, 0
1, 265739, Note_off_c, 1, 43, 0
1, 265740, Note_on_c, 1, 55, 127
1, 265740, Note_on_c, 1, 45, 127
1, 265769, Note_off_c, 1, 55, 0
1, 265770, Note_on_c, 1, 54, 127
1, 265799, Note_off_c, 1, 45, 0
1, 265799, Note_off_c, 1, 54, 0
1, 265800, Note_on_c, 1, 52, 127
1, 265800, Note_on_c, 1, 57, 127
1, 265829, Note_off_c, 1, 52, 0
1, 265830, Note_on_c, 1, 54, 127
1, 265859, Note_off_c, 1, 57, 0
1, 265859, Note_off_c, 1, 54, 0
1, 265860, Note_on_c, 1, 50, 127
1, 265919, Note_off_c, 1, 50, 0
1, 265920, Note_on_c, 1, 50, 127
1, 265979, Note_off_c, 1, 50, 0
1, 265980, Note_on_c, 1, 69, 127
1, 265980, Note_on_c, 1, 66, 127
1, 265980, Note_on_c, 1, 62, 127
1, 265980, Note_on_c, 1, 50, 127
1, 266040, Note_on_c, 1, 74, 127
1, 266040, Note_on_c, 1, 38, 127
1, 266070, Note_off_c, 1, 74, 0
1, 266070, Note_on_c, 1, 76, 127
1, 266100, Note_off_c, 1, 66, 0
1, 266100, Note_off_c, 1, 38, 0
1, 266100, Note_off_c, 1, 76, 0
1, 266100, Note_on_c, 1, 78, 127
1, 266100, Note_on_c, 1, 57, 127
1, 266130, Note_off_c, 1, 78, 0
1, 266130, Note_on_c, 1, 79, 127
1, 266160, Note_off_c, 1, 69, 0
1, 266160, Note_off_c, 1, 62, 0
1, 266160, Note_off_c, 1, 79, 0
1, 266160, Note_on_c, 1, 81, 127
1, 266160, Note_on_c, 1, 54, 127
1, 266190, Note_off_c, 1, 81, 0
1, 266220, Note_off_c, 1, 54, 0
1, 266340, Note_off_c, 1, 57, 0
1, 266430, Note_on_c, 1, 64, 127
1, 266460, Note_off_c, 1, 64, 0
1, 266490, Note_on_c, 1, 67, 127
1, 266520, Note_off_c, 1, 67, 0
1, 266790, Note_on_c, 1, 40, 127
1, 266820, Note_off_c, 1, 40, 0
1, 266820, Note_on_c, 1, 42, 127
1, 266850, Note_off_c, 1, 42, 0
1, 266850, Note_on_c, 1, 43, 127
1, 266880, Note_off_c, 1, 43, 0
1, 266880, Note_on_c, 1, 45, 127
1, 266910, Note_off_c, 1, 45, 0
1, 267000, Note_on_c, 1, 86, 127
1, 267060, Note_off_c, 1, 86, 0
1, 267180, Note_on_c, 1, 83, 127
1, 267210, Note_off_c, 1, 83, 0
1, 267300, Note_off_c, 1, 50, 0
1, 267420, Note_on_c, 1, 61, 127
1, 267480, Note_off_c, 1, 61, 0
1, 267600, Note_on_c, 1, 84, 127
1, 267630, Note_off_c, 1, 84, 0
1, 267660, Note_on_c, 1, 51, 127
1, 267720, Note_off_c, 1, 51, 0
1, 267720, Note_on_c, 1, 47, 127
1, 267750, Note_on_c, 1, 71, 127
1, 267780, Note_off_c, 1, 47, 0
1, 267780, Note_off_c, 1, 71, 0
1, 267840, Note_on_c, 1, 52, 127
1, 267900, Note_off_c, 1, 52, 0
1, 268260, Note_on_c, 1, 55, 127
1, 268320, Note_off_c, 1, 55, 0
1, 268380, Note_on_c, 1, 49, 127
1, 268440, Note_off_c, 1, 49, 0
1, 268620, Note_on_c, 1, 81, 127
1, 268620, Note_on_c, 1, 78, 127
1, 268620, Note_on_c, 1, 74, 127
1, 268620, Note_on_c, 1, 50, 127
1, 268620, Note_on_c, 1, 66, 127
1, 268620, Note_on_c, 1, 62, 127
1, 268649, Note_off_c, 1, 50, 0
1, 268649, Note_off_c, 1, 66, 0
1, 268650, Note_on_c, 1, 67, 127
1, 268650, Note_on_c, 1, 64, 127
1, 268679, Note_off_c, 1, 81, 0
1, 268679, Note_off_c, 1, 78, 0
1, 268679, Note_off_c, 1, 74, 0
1, 268679, Note_off_c, 1, 62, 0
1, 268679, Note_off_c, 1, 67, 0
1, 268679, Note_off_c, 1, 64, 0
1, 268680, Note_on_c, 1, 78, 127
1, 268680, Note_on_c, 1, 74, 127
1, 268680, Note_on_c, 1, 69, 127
1, 268680, Note_on_c, 1, 50, 127
1, 268680, Note_on_c, 1, 66, 127
1, 268709, Note_off_c, 1, 66, 0
1, 268710, Note_on_c, 1, 67, 127
1, 268710, Note_on_c, 1, 64, 127
1, 268739, Note_off_c, 1, 78, 0
1, 268739, Note_off_c, 1, 74, 0
1, 268739, Note_off_c, 1, 69, 0
1, 268739, Note_off_c, 1, 50, 0
1, 268739, Note_off_c, 1, 67, 0
1, 268739, Note_off_c, 1, 64, 0
1, 268740, Note_on_c, 1, 78, 127
1, 268740, Note_on_c, 1, 74, 127
1, 268740, Note_on_c, 1, 69, 127
1, 268740, Note_on_c, 1, 50, 127
1, 268740, Note_on_c, 1, 66, 127
1, 268740, Note_on_c, 1, 62, 127
1, 268769, Note_off_c, 1, 66, 0
1, 268769, Note_off_c, 1, 62, 0
1, 268770, Note_on_c, 1, 67, 127
1, 268770, Note_on_c, 1, 64, 127
1, 268799, Note_off_c, 1, 78, 0
1, 268799, Note_off_c, 1, 74, 0
1, 268799, Note_off_c, 1, 69, 0
1, 268799, Note_off_c, 1, 50, 0
1, 268799, Note_off_c, 1, 67, 0
1, 268799, Note_off_c, 1, 64, 0
1, 268800, Note_on_c, 1, 81, 127
1, 268800, Note_on_c, 1, 78, 127
1, 268800, Note_on_c, 1, 74, 127
1, 268800, Note_on_c, 1, 50, 127
1, 268800, Note_on_c, 1, 66, 127
1, 268800, Note_on_c, 1, 62, 127
1, 268829, Note_off_c, 1, 50, 0
1, 268829, Note_off_c, 1, 66, 0
1, 268830, Note_on_c, 1, 67, 127
1, 268830, Note_on_c, 1, 64, 127
1, 268859, Note_off_c, 1, 81, 0
1, 268859, Note_off_c, 1, 78, 0
1, 268859, Note_off_c, 1, 74, 0
1, 268859, Note_off_c, 1, 62, 0
1, 268859, Note_off_c, 1, 67, 0
1, 268859, Note_off_c, 1, 64, 0
1, 268860, Note_on_c, 1, 78, 127
1, 268860, Note_on_c, 1, 74, 127
1, 268860, Note_on_c, 1, 69, 127
1, 268860, Note_on_c, 1, 50, 127
1, 268860, Note_on_c, 1, 66, 127
1, 268919, Note_off_c, 1, 78, 0
1, 268919, Note_off_c, 1, 74, 0
1, 268919, Note_off_c, 1, 69, 0
1, 268919, Note_off_c, 1, 50, 0
1, 268919, Note_off_c, 1, 66, 0
1, 268920, Note_on_c, 1, 83, 127
1, 268920, Note_on_c, 1, 79, 127
1, 268920, Note_on_c, 1, 74, 127
1, 268920, Note_on_c, 1, 50, 127
1, 268920, Note_on_c, 1, 45, 127
1, 268949, Note_off_c, 1, 45, 0
1, 268950, Note_on_c, 1, 57, 127
1, 268979, Note_off_c, 1, 74, 0
1, 268979, Note_off_c, 1, 50, 0
1, 268979, Note_off_c, 1, 57, 0
1, 268980, Note_on_c, 1, 71, 127
1, 268980, Note_on_c, 1, 67, 127
1, 268980, Note_on_c, 1, 55, 127
1, 269009, Note_off_c, 1, 55, 0
1, 269010, Note_on_c, 1, 54, 127
1, 269039, Note_off_c, 1, 71, 0
1, 269039, Note_off_c, 1, 67, 0
1, 269039, Note_off_c, 1, 54, 0
1, 269040, Note_on_c, 1, 52, 127
1, 269069, Note_off_c, 1, 52, 0
1, 269099, Note_off_c, 1, 83, 0
1, 269100, Note_on_c, 1, 76, 127
1, 269100, Note_on_c, 1, 64, 127
1, 269100, Note_on_c, 1, 49, 127
1, 269130, Note_off_c, 1, 79, 0
1, 269130, Note_on_c, 1, 81, 127
1, 269130, Note_on_c, 1, 78, 127
1, 269159, Note_off_c, 1, 76, 0
1, 269159, Note_off_c, 1, 64, 0
1, 269159, Note_off_c, 1, 49, 0
1, 269159, Note_off_c, 1, 81, 0
1, 269159, Note_off_c, 1, 78, 0
1, 269160, Note_on_c, 1, 83, 127
1, 269160, Note_on_c, 1, 79, 127
1, 269160, Note_on_c, 1, 71, 127
1, 269160, Note_on_c, 1, 67, 127
1, 269160, Note_on_c, 1, 61, 127
1, 269189, Note_off_c, 1, 83, 0
1, 269189, Note_off_c, 1, 79, 0
1, 269190, Note_on_c, 1, 85, 127
1, 269190, Note_on_c, 1, 81, 127
1, 269219, Note_off_c, 1, 71, 0
1, 269219, Note_off_c, 1, 67, 0
1, 269219, Note_off_c, 1, 61, 0
1, 269219, Note_off_c, 1, 85, 0
1, 269219, Note_off_c, 1, 81, 0
1, 269220, Note_on_c, 1, 83, 127
1, 269220, Note_on_c, 1, 79, 127
1, 269220, Note_on_c, 1, 64, 127
1, 269220, Note_on_c, 1, 73, 127
1, 269220, Note_on_c, 1, 49, 127
1, 269249, Note_off_c, 1, 83, 0
1, 269249, Note_off_c, 1, 79, 0
1, 269250, Note_on_c, 1, 85, 127
1, 269250, Note_on_c, 1, 81, 127
1, 269279, Note_off_c, 1, 64, 0
1, 269279, Note_off_c, 1, 73, 0
1, 269279, Note_off_c, 1, 49, 0
1, 269279, Note_off_c, 1, 85, 0
1, 269279, Note_off_c, 1, 81, 0
1, 269280, Note_on_c, 1, 81, 127
1, 269280, Note_on_c, 1, 78, 127
1, 269280, Note_on_c, 1, 66, 127
1, 269280, Note_on_c, 1, 42, 127
1, 269309, Note_off_c, 1, 42, 0
1, 269310, Note_on_c, 1, 55, 127
1, 269339, Note_off_c, 1, 66, 0
1, 269339, Note_off_c, 1, 55, 0
1, 269340, Note_on_c, 1, 69, 127
1, 269340, Note_on_c, 1, 54, 127
1, 269369, Note_off_c, 1, 54, 0
1, 269370, Note_on_c, 1, 52, 127
1, 269399, Note_off_c, 1, 69, 0
1, 269399, Note_off_c, 1, 52, 0
1, 269400, Note_on_c, 1, 50, 127
1, 269429, Note_off_c, 1, 50, 0
1, 269430, Note_on_c, 1, 49, 127
1, 269459, Note_off_c, 1, 81, 0
1, 269459, Note_off_c, 1, 49, 0
1, 269460, Note_on_c, 1, 62, 127
1, 269460, Note_on_c, 1, 47, 127
1, 269490, Note_off_c, 1, 78, 0
1, 269490, Note_on_c, 1, 79, 127
1, 269490, Note_on_c, 1, 76, 127
1, 269519, Note_off_c, 1, 62, 0
1, 269519, Note_off_c, 1, 47, 0
1, 269519, Note_off_c, 1, 79, 0
1, 269519, Note_off_c, 1, 76, 0
1, 269520, Note_on_c, 1, 81, 127
1, 269520, Note_on_c, 1, 78, 127
1, 269520, Note_on_c, 1, 69, 127
1, 269520, Note_on_c, 1, 66, 127
1, 269520, Note_on_c, 1, 59, 127
1, 269549, Note_off_c, 1, 81, 0
1, 269549, Note_off_c, 1, 78, 0
1, 269550, Note_on_c, 1, 83, 127
1, 269550, Note_on_c, 1, 79, 127
1, 269579, Note_off_c, 1, 69, 0
1, 269579, Note_off_c, 1, 66, 0
1, 269579, Note_off_c, 1, 59, 0
1, 269579, Note_off_c, 1, 83, 0
1, 269579, Note_off_c, 1, 79, 0
1, 269580, Note_on_c, 1, 81, 127
1, 269580, Note_on_c, 1, 78, 127
1, 269580, Note_on_c, 1, 62, 127
1, 269580, Note_on_c, 1, 71, 127
1, 269580, Note_on_c, 1, 47, 127
1, 269609, Note_off_c, 1, 81, 0
1, 269609, Note_off_c, 1, 78, 0
1, 269610, Note_on_c, 1, 83, 127
1, 269610, Note_on_c, 1, 79, 127
1, 269639, Note_off_c, 1, 62, 0
1, 269639, Note_off_c, 1, 71, 0
1, 269639, Note_off_c, 1, 47, 0
1, 269639, Note_off_c, 1, 83, 0
1, 269639, Note_off_c, 1, 79, 0
1, 269640, Note_on_c, 1, 79, 127
1, 269640, Note_on_c, 1, 76, 127
1, 269640, Note_on_c, 1, 40, 127
1, 269669, Note_off_c, 1, 40, 0
1, 269670, Note_on_c, 1, 54, 127
1, 269699, Note_off_c, 1, 54, 0
1, 269700, Note_on_c, 1, 67, 127
1, 269700, Note_on_c, 1, 64, 127
1, 269700, Note_on_c, 1, 52, 127
1, 269729, Note_off_c, 1, 52, 0
1, 269730, Note_on_c, 1, 50, 127
1, 269759, Note_off_c, 1, 67, 0
1, 269759, Note_off_c, 1, 64, 0
1, 269759, Note_off_c, 1, 50, 0
1, 269760, Note_on_c, 1, 49, 127
1, 269789, Note_off_c, 1, 49, 0
1, 269790, Note_on_c, 1, 47, 127
1, 269819, Note_off_c, 1, 79, 0
1, 269819, Note_off_c, 1, 47, 0
1, 269820, Note_on_c, 1, 69, 127
1, 269820, Note_on_c, 1, 57, 127
1, 269820, Note_on_c, 1, 45, 127
1, 269850, Note_off_c, 1, 76, 0
1, 269850, Note_on_c, 1, 78, 127
1, 269850, Note_on_c, 1, 74, 127
1, 269879, Note_off_c, 1, 69, 0
1, 269879, Note_off_c, 1, 57, 0
1, 269879, Note_off_c, 1, 45, 0
1, 269879, Note_off_c, 1, 78, 0
1, 269879, Note_off_c, 1, 74, 0
1, 269880, Note_on_c, 1, 79, 127
1, 269880, Note_on_c, 1, 76, 127
1, 269880, Note_on_c, 1, 67, 127
1, 269880, Note_on_c, 1, 64, 127
1, 269880, Note_on_c, 1, 57, 127
1, 269909, Note_off_c, 1, 79, 0
1, 269909, Note_off_c, 1, 76, 0
1, 269910, Note_on_c, 1, 81, 127
1, 269910, Note_on_c, 1, 78, 127
1, 269939, Note_off_c, 1, 67, 0
1, 269939, Note_off_c, 1, 64, 0
1, 269939, Note_off_c, 1, 57, 0
1, 269939, Note_off_c, 1, 81, 0
1, 269939, Note_off_c, 1, 78, 0
1, 269940, Note_on_c, 1, 79, 127
1, 269940, Note_on_c, 1, 76, 127
1, 269940, Note_on_c, 1, 57, 127
1, 269940, Note_on_c, 1, 69, 127
1, 269940, Note_on_c, 1, 45, 127
1, 269969, Note_off_c, 1, 79, 0
1, 269969, Note_off_c, 1, 76, 0
1, 269970, Note_on_c, 1, 81, 127
1, 269970, Note_on_c, 1, 78, 127
1, 269999, Note_off_c, 1, 57, 0
1, 269999, Note_off_c, 1, 69, 0
1, 269999, Note_off_c, 1, 45, 0
1, 269999, Note_off_c, 1, 81, 0
1, 269999, Note_off_c, 1, 78, 0
1, 270000, Note_on_c, 1, 78, 127
1, 270000, Note_on_c, 1, 74, 127
1, 270000, Note_on_c, 1, 69, 127
1, 270000, Note_on_c, 1, 38, 127
1, 270029, Note_off_c, 1, 38, 0
1, 270030, Note_on_c, 1, 50, 127
1, 270059, Note_off_c, 1, 78, 0
1, 270059, Note_off_c, 1, 74, 0
1, 270059, Note_off_c, 1, 69, 0
1, 270059, Note_off_c, 1, 50, 0
1, 270060, Note_on_c, 1, 81, 127
1, 270060, Note_on_c, 1, 78, 127
1, 270060, Note_on_c, 1, 69, 127
1, 270060, Note_on_c, 1, 50, 127
1, 270060, Note_on_c, 1, 66, 127
1, 270060, Note_on_c, 1, 62, 127
1, 270060, Note_on_c, 1, 49, 127
1, 270089, Note_off_c, 1, 69, 0
1, 270089, Note_off_c, 1, 66, 0
1, 270089, Note_off_c, 1, 62, 0
1, 270089, Note_off_c, 1, 49, 0
1, 270090, Note_on_c, 1, 67, 127
1, 270090, Note_on_c, 1, 64, 127
1, 270090, Note_on_c, 1, 47, 127
1, 270119, Note_off_c, 1, 81, 0
1, 270119, Note_off_c, 1, 78, 0
1, 270119, Note_off_c, 1, 50, 0
1, 270119, Note_off_c, 1, 67, 0
1, 270119, Note_off_c, 1, 64, 0
1, 270119, Note_off_c, 1, 47, 0
1, 270120, Note_on_c, 1, 78, 127
1, 270120, Note_on_c, 1, 74, 127
1, 270120, Note_on_c, 1, 69, 127
1, 270120, Note_on_c, 1, 50, 127
1, 270120, Note_on_c, 1, 66, 127
1, 270120, Note_on_c, 1, 62, 127
1, 270120, Note_on_c, 1, 45, 127
1, 270149, Note_off_c, 1, 69, 0
1, 270149, Note_off_c, 1, 66, 0
1, 270149, Note_off_c, 1, 62, 0
1, 270149, Note_off_c, 1, 45, 0
1, 270150, Note_on_c, 1, 67, 127
1, 270150, Note_on_c, 1, 64, 127
1, 270150, Note_on_c, 1, 43, 127
1, 270179, Note_off_c, 1, 78, 0
1, 270179, Note_off_c, 1, 74, 0
1, 270179, Note_off_c, 1, 50, 0
1, 270179, Note_off_c, 1, 67, 0
1, 270179, Note_off_c, 1, 64, 0
1, 270179, Note_off_c, 1, 43, 0
1, 270180, Note_on_c, 1, 74, 127
1, 270180, Note_on_c, 1, 69, 127
1, 270180, Note_on_c, 1, 50, 127
1, 270180, Note_on_c, 1, 66, 127
1, 270180, Note_on_c, 1, 42, 127
1, 270209, Note_off_c, 1, 42, 0
1, 270210, Note_on_c, 1, 45, 127
1, 270239, Note_off_c, 1, 74, 0
1, 270239, Note_off_c, 1, 69, 0
1, 270239, Note_off_c, 1, 50, 0
1, 270239, Note_off_c, 1, 66, 0
1, 270239, Note_off_c, 1, 45, 0
1, 270240, Note_on_c, 1, 69, 127
1, 270240, Note_on_c, 1, 66, 127
1, 270240, Note_on_c, 1, 62, 127
1, 270240, Note_on_c, 1, 50, 127
1, 270240, Note_on_c, 1, 71, 127
1, 270240, Note_on_c, 1, 43, 127
1, 270269, Note_off_c, 1, 71, 0
1, 270269, Note_off_c, 1, 43, 0
1, 270270, Note_on_c, 1, 42, 127
1, 270299, Note_off_c, 1, 69, 0
1, 270299, Note_off_c, 1, 66, 0
1, 270299, Note_off_c, 1, 62, 0
1, 270299, Note_off_c, 1, 50, 0
1, 270299, Note_off_c, 1, 42, 0
1, 270300, Note_on_c, 1, 74, 127
1, 270300, Note_on_c, 1, 69, 127
1, 270300, Note_on_c, 1, 66, 127
1, 270300, Note_on_c, 1, 50, 127
1, 270300, Note_on_c, 1, 67, 127
1, 270300, Note_on_c, 1, 57, 127
1, 270300, Note_on_c, 1, 40, 127
1, 270329, Note_off_c, 1, 67, 0
1, 270329, Note_off_c, 1, 40, 0
1, 270330, Note_on_c, 1, 38, 127
1, 270359, Note_off_c, 1, 74, 0
1, 270359, Note_off_c, 1, 69, 0
1, 270359, Note_off_c, 1, 66, 0
1, 270359, Note_off_c, 1, 50, 0
1, 270359, Note_off_c, 1, 57, 0
1, 270359, Note_off_c, 1, 38, 0
1, 270360, Note_on_c, 1, 76, 127
1, 270360, Note_on_c, 1, 69, 127
1, 270360, Note_on_c, 1, 45, 127
1, 270360, Note_on_c, 1, 64, 127
1, 270360, Note_on_c, 1, 57, 127
1, 270389, Note_off_c, 1, 76, 0
1, 270390, Note_on_c, 1, 78, 127
1, 270390, Note_on_c, 1, 74, 127
1, 270419, Note_off_c, 1, 69, 0
1, 270419, Note_off_c, 1, 45, 0
1, 270419, Note_off_c, 1, 64, 0
1, 270419, Note_off_c, 1, 57, 0
1, 270419, Note_off_c, 1, 78, 0
1, 270419, Note_off_c, 1, 74, 0
1, 270420, Note_on_c, 1, 76, 127
1, 270420, Note_on_c, 1, 69, 127
1, 270420, Note_on_c, 1, 45, 127
1, 270420, Note_on_c, 1, 67, 127
1, 270420, Note_on_c, 1, 64, 127
1, 270420, Note_on_c, 1, 57, 127
1, 270434, Note_off_c, 1, 45, 0
1, 270449, Note_off_c, 1, 76, 0
1, 270449, Note_off_c, 1, 69, 0
1, 270450, Note_on_c, 1, 78, 127
1, 270450, Note_on_c, 1, 74, 127
1, 270479, Note_off_c, 1, 67, 0
1, 270479, Note_off_c, 1, 64, 0
1, 270479, Note_off_c, 1, 57, 0
1, 270479, Note_off_c, 1, 78, 0
1, 270479, Note_off_c, 1, 74, 0
1, 270480, Note_on_c, 1, 79, 127
1, 270480, Note_on_c, 1, 76, 127
1, 270480, Note_on_c, 1, 69, 127
1, 270480, Note_on_c, 1, 45, 127
1, 270509, Note_off_c, 1, 79, 0
1, 270509, Note_off_c, 1, 76, 0
1, 270509, Note_off_c, 1, 69, 0
1, 270510, Note_on_c, 1, 78, 127
1, 270510, Note_on_c, 1, 74, 127
1, 270539, Note_off_c, 1, 45, 0
1, 270539, Note_off_c, 1, 78, 0
1, 270539, Note_off_c, 1, 74, 0
1, 270540, Note_on_c, 1, 76, 127
1, 270540, Note_on_c, 1, 69, 127
1, 270540, Note_on_c, 1, 45, 127
1, 270540, Note_on_c, 1, 64, 127
1, 270540, Note_on_c, 1, 57, 127
1, 270569, Note_off_c, 1, 64, 0
1, 270569, Note_off_c, 1, 57, 0
1, 270570, Note_on_c, 1, 66, 127
1, 270570, Note_on_c, 1, 62, 127
1, 270599, Note_off_c, 1, 76, 0
1, 270599, Note_off_c, 1, 69, 0
1, 270599, Note_off_c, 1, 45, 0
1, 270599, Note_off_c, 1, 66, 0
1, 270599, Note_off_c, 1, 62, 0
1, 270600, Note_on_c, 1, 79, 127
1, 270600, Note_on_c, 1, 76, 127
1, 270600, Note_on_c, 1, 69, 127
1, 270600, Note_on_c, 1, 45, 127
1, 270600, Note_on_c, 1, 64, 127
1, 270600, Note_on_c, 1, 57, 127
1, 270614, Note_off_c, 1, 45, 0
1, 270629, Note_off_c, 1, 64, 0
1, 270630, Note_on_c, 1, 66, 127
1, 270630, Note_on_c, 1, 62, 127
1, 270659, Note_off_c, 1, 79, 0
1, 270659, Note_off_c, 1, 76, 0
1, 270659, Note_off_c, 1, 69, 0
1, 270659, Note_off_c, 1, 57, 0
1, 270659, Note_off_c, 1, 66, 0
1, 270659, Note_off_c, 1, 62, 0
1, 270660, Note_on_c, 1, 45, 127
1, 270660, Note_on_c, 1, 67, 127
1, 270660, Note_on_c, 1, 64, 127
1, 270689, Note_off_c, 1, 67, 0
1, 270689, Note_off_c, 1, 64, 0
1, 270690, Note_on_c, 1, 57, 127
1, 270719, Note_off_c, 1, 45, 0
1, 270719, Note_off_c, 1, 57, 0
1, 270720, Note_on_c, 1, 78, 127
1, 270720, Note_on_c, 1, 74, 127
1, 270720, Note_on_c, 1, 69, 127
1, 270720, Note_on_c, 1, 45, 127
1, 270720, Note_on_c, 1, 66, 127
1, 270720, Note_on_c, 1, 62, 127
1, 270749, Note_off_c, 1, 78, 0
1, 270749, Note_off_c, 1, 74, 0
1, 270750, Note_on_c, 1, 79, 127
1, 270750, Note_on_c, 1, 76, 127
1, 270779, Note_off_c, 1, 69, 0
1, 270779, Note_off_c, 1, 45, 0
1, 270779, Note_off_c, 1, 66, 0
1, 270779, Note_off_c, 1, 62, 0
1, 270779, Note_off_c, 1, 79, 0
1, 270779, Note_off_c, 1, 76, 0
1, 270780, Note_on_c, 1, 78, 127
1, 270780, Note_on_c, 1, 74, 127
1, 270780, Note_on_c, 1, 69, 127
1, 270780, Note_on_c, 1, 45, 127
1, 270780, Note_on_c, 1, 66, 127
1, 270780, Note_on_c, 1, 57, 127
1, 270794, Note_off_c, 1, 45, 0
1, 270809, Note_off_c, 1, 78, 0
1, 270809, Note_off_c, 1, 74, 0
1, 270810, Note_on_c, 1, 79, 127
1, 270810, Note_on_c, 1, 76, 127
1, 270839, Note_off_c, 1, 69, 0
1, 270839, Note_off_c, 1, 66, 0
1, 270839, Note_off_c, 1, 57, 0
1, 270839, Note_off_c, 1, 79, 0
1, 270839, Note_off_c, 1, 76, 0
1, 270840, Note_on_c, 1, 81, 127
1, 270840, Note_on_c, 1, 78, 127
1, 270840, Note_on_c, 1, 69, 127
1, 270840, Note_on_c, 1, 45, 127
1, 270869, Note_off_c, 1, 81, 0
1, 270869, Note_off_c, 1, 78, 0
1, 270869, Note_off_c, 1, 69, 0
1, 270870, Note_on_c, 1, 79, 127
1, 270870, Note_on_c, 1, 76, 127
1, 270899, Note_off_c, 1, 45, 0
1, 270899, Note_off_c, 1, 79, 0
1, 270899, Note_off_c, 1, 76, 0
1, 270900, Note_on_c, 1, 78, 127
1, 270900, Note_on_c, 1, 74, 127
1, 270900, Note_on_c, 1, 69, 127
1, 270900, Note_on_c, 1, 45, 127
1, 270900, Note_on_c, 1, 66, 127
1, 270900, Note_on_c, 1, 62, 127
1, 270929, Note_off_c, 1, 66, 0
1, 270929, Note_off_c, 1, 62, 0
1, 270930, Note_on_c, 1, 67, 127
1, 270930, Note_on_c, 1, 64, 127
1, 270959, Note_off_c, 1, 78, 0
1, 270959, Note_off_c, 1, 74, 0
1, 270959, Note_off_c, 1, 69, 0
1, 270959, Note_off_c, 1, 45, 0
1, 270959, Note_off_c, 1, 67, 0
1, 270959, Note_off_c, 1, 64, 0
1, 270960, Note_on_c, 1, 81, 127
1, 270960, Note_on_c, 1, 78, 127
1, 270960, Note_on_c, 1, 74, 127
1, 270960, Note_on_c, 1, 45, 127
1, 270960, Note_on_c, 1, 66, 127
1, 270960, Note_on_c, 1, 62, 127
1, 270960, Note_on_c, 1, 57, 127
1, 270974, Note_off_c, 1, 45, 0
1, 270989, Note_off_c, 1, 66, 0
1, 270989, Note_off_c, 1, 62, 0
1, 270990, Note_on_c, 1, 67, 127
1, 270990, Note_on_c, 1, 64, 127
1, 271019, Note_off_c, 1, 81, 0
1, 271019, Note_off_c, 1, 78, 0
1, 271019, Note_off_c, 1, 74, 0
1, 271019, Note_off_c, 1, 57, 0
1, 271019, Note_off_c, 1, 67, 0
1, 271019, Note_off_c, 1, 64, 0
1, 271020, Note_on_c, 1, 45, 127
1, 271020, Note_on_c, 1, 69, 127
1, 271020, Note_on_c, 1, 66, 127
1, 271049, Note_off_c, 1, 69, 0
1, 271049, Note_off_c, 1, 66, 0
1, 271050, Note_on_c, 1, 64, 127
1, 271079, Note_off_c, 1, 45, 0
1, 271079, Note_off_c, 1, 64, 0
1, 271080, Note_on_c, 1, 80, 127
1, 271080, Note_on_c, 1, 76, 127
1, 271080, Note_on_c, 1, 74, 127
1, 271080, Note_on_c, 1, 45, 127
1, 271080, Note_on_c, 1, 71, 127
1, 271080, Note_on_c, 1, 62, 127
1, 271109, Note_off_c, 1, 80, 0
1, 271109, Note_off_c, 1, 71, 0
1, 271109, Note_off_c, 1, 62, 0
1, 271110, Note_on_c, 1, 81, 127
1, 271110, Note_on_c, 1, 73, 127
1, 271110, Note_on_c, 1, 64, 127
1, 271139, Note_off_c, 1, 76, 0
1, 271139, Note_off_c, 1, 74, 0
1, 271139, Note_off_c, 1, 45, 0
1, 271139, Note_off_c, 1, 81, 0
1, 271139, Note_off_c, 1, 73, 0
1, 271139, Note_off_c, 1, 64, 0
1, 271140, Note_on_c, 1, 80, 127
1, 271140, Note_on_c, 1, 76, 127
1, 271140, Note_on_c, 1, 74, 127
1, 271140, Note_on_c, 1, 45, 127
1, 271140, Note_on_c, 1, 71, 127
1, 271140, Note_on_c, 1, 62, 127
1, 271140, Note_on_c, 1, 57, 127
1, 271154, Note_off_c, 1, 45, 0
1, 271169, Note_off_c, 1, 80, 0
1, 271169, Note_off_c, 1, 71, 0
1, 271169, Note_off_c, 1, 62, 0
1, 271170, Note_on_c, 1, 81, 127
1, 271170, Note_on_c, 1, 73, 127
1, 271170, Note_on_c, 1, 64, 127
1, 271199, Note_off_c, 1, 76, 0
1, 271199, Note_off_c, 1, 74, 0
1, 271199, Note_off_c, 1, 57, 0
1, 271199, Note_off_c, 1, 81, 0
1, 271199, Note_off_c, 1, 73, 0
1, 271199, Note_off_c, 1, 64, 0
1, 271200, Note_on_c, 1, 83, 127
1, 271200, Note_on_c, 1, 76, 127
1, 271200, Note_on_c, 1, 74, 127
1, 271200, Note_on_c, 1, 45, 127
1, 271200, Note_on_c, 1, 66, 127
1, 271229, Note_off_c, 1, 83, 0
1, 271229, Note_off_c, 1, 66, 0
1, 271230, Note_on_c, 1, 80, 127
1, 271230, Note_on_c, 1, 71, 127
1, 271230, Note_on_c, 1, 62, 127
1, 271259, Note_off_c, 1, 76, 0
1, 271259, Note_off_c, 1, 74, 0
1, 271259, Note_off_c, 1, 45, 0
1, 271259, Note_off_c, 1, 80, 0
1, 271259, Note_off_c, 1, 71, 0
1, 271259, Note_off_c, 1, 62, 0
1, 271260, Note_on_c, 1, 81, 127
1, 271260, Note_on_c, 1, 76, 127
1, 271260, Note_on_c, 1, 69, 127
1, 271260, Note_on_c, 1, 45, 127
1, 271260, Note_on_c, 1, 73, 127
1, 271260, Note_on_c, 1, 64, 127
1, 271289, Note_off_c, 1, 73, 0
1, 271289, Note_off_c, 1, 64, 0
1, 271290, Note_on_c, 1, 71, 127
1, 271290, Note_on_c, 1, 62, 127
1, 271319, Note_off_c, 1, 81, 0
1, 271319, Note_off_c, 1, 76, 0
1, 271319, Note_off_c, 1, 69, 0
1, 271319, Note_off_c, 1, 45, 0
1, 271319, Note_off_c, 1, 71, 0
1, 271319, Note_off_c, 1, 62, 0
1, 271320, Note_on_c, 1, 76, 127
1, 271320, Note_on_c, 1, 69, 127
1, 271320, Note_on_c, 1, 45, 127
1, 271320, Note_on_c, 1, 64, 127
1, 271320, Note_on_c, 1, 49, 127
1, 271349, Note_off_c, 1, 64, 0
1, 271350, Note_on_c, 1, 67, 127
1, 271350, Note_on_c, 1, 57, 127
1, 271379, Note_off_c, 1, 76, 0
1, 271379, Note_off_c, 1, 69, 0
1, 271379, Note_off_c, 1, 45, 0
1, 271379, Note_off_c, 1, 49, 0
1, 271379, Note_off_c, 1, 67, 0
1, 271379, Note_off_c, 1, 57, 0
1, 271380, Note_on_c, 1, 78, 127
1, 271380, Note_on_c, 1, 74, 127
1, 271380, Note_on_c, 1, 69, 127
1, 271380, Note_on_c, 1, 50, 127
1, 271380, Note_on_c, 1, 66, 127
1, 271380, Note_on_c, 1, 62, 127
1, 271409, Note_off_c, 1, 66, 0
1, 271409, Note_off_c, 1, 62, 0
1, 271410, Note_on_c, 1, 67, 127
1, 271410, Note_on_c, 1, 64, 127
1, 271439, Note_off_c, 1, 50, 0
1, 271439, Note_off_c, 1, 67, 0
1, 271439, Note_off_c, 1, 64, 0
1, 271440, Note_on_c, 1, 42, 127
1, 271469, Note_off_c, 1, 78, 0
1, 271470, Note_on_c, 1, 79, 127
1, 271470, Note_on_c, 1, 71, 127
1, 271499, Note_off_c, 1, 74, 0
1, 271499, Note_off_c, 1, 69, 0
1, 271499, Note_off_c, 1, 42, 0
1, 271499, Note_off_c, 1, 79, 0
1, 271499, Note_off_c, 1, 71, 0
1, 271500, Note_on_c, 1, 76, 127
1, 271500, Note_on_c, 1, 69, 127
1, 271500, Note_on_c, 1, 45, 127
1, 271500, Note_on_c, 1, 73, 127
1, 271500, Note_on_c, 1, 64, 127
1, 271529, Note_off_c, 1, 69, 0
1, 271529, Note_off_c, 1, 73, 0
1, 271529, Note_off_c, 1, 64, 0
1, 271530, Note_on_c, 1, 74, 127
1, 271530, Note_on_c, 1, 66, 127
1, 271559, Note_off_c, 1, 45, 0
1, 271559, Note_off_c, 1, 74, 0
1, 271559, Note_off_c, 1, 66, 0
1, 271560, Note_on_c, 1, 71, 127
1, 271560, Note_on_c, 1, 62, 127
1, 271589, Note_off_c, 1, 76, 0
1, 271589, Note_off_c, 1, 71, 0
1, 271589, Note_off_c, 1, 62, 0
1, 271620, Note_on_c, 1, 74, 127
1, 271620, Note_on_c, 1, 69, 127
1, 271620, Note_on_c, 1, 66, 127
1, 271620, Note_on_c, 1, 50, 127
1, 271620, Note_on_c, 1, 38, 127
1, 271739, Note_off_c, 1, 74, 0
1, 271739, Note_off_c, 1, 69, 0
1, 271739, Note_off_c, 1, 66, 0
1, 271739, Note_off_c, 1, 50, 0
1, 271739, Note_off_c, 1, 38, 0
1, 271980, Note_on_c, 1, 55, 127
1, 271980, Note_on_c, 1, 67, 127
1, 271980, Note_on_c, 1, 62, 127
1, 271980, Note_on_c, 1, 71, 127
1, 272039, Note_off_c, 1, 55, 0
1, 272039, Note_off_c, 1, 67, 0
1, 272039, Note_off_c, 1, 62, 0
1, 272039, Note_off_c, 1, 71, 0
1, 272040, Note_on_c, 1, 59, 127
1, 272040, Note_on_c, 1, 74, 127
1, 272040, Note_on_c, 1, 71, 127
1, 272069, Note_off_c, 1, 59, 0
1, 272069, Note_off_c, 1, 74, 0
1, 272069, Note_off_c, 1, 71, 0
1, 272070, Note_on_c, 1, 57, 127
1, 272070, Note_on_c, 1, 72, 127
1, 272099, Note_off_c, 1, 57, 0
1, 272099, Note_off_c, 1, 72, 0
1, 272100, Note_on_c, 1, 55, 127
1, 272100, Note_on_c, 1, 71, 127
1, 272100, Note_on_c, 1, 67, 127
1, 272159, Note_off_c, 1, 55, 0
1, 272159, Note_off_c, 1, 71, 0
1, 272159, Note_off_c, 1, 67, 0
1, 272160, Note_on_c, 1, 74, 127
1, 272160, Note_on_c, 1, 55, 127
1, 272160, Note_on_c, 1, 71, 127
1, 272160, Note_on_c, 1, 67, 127
1, 272219, Note_off_c, 1, 55, 0
1, 272219, Note_off_c, 1, 71, 0
1, 272219, Note_off_c, 1, 67, 0
1, 272220, Note_off_c, 1, 74, 0
1, 272220, Note_on_c, 1, 79, 127
1, 272280, Note_on_c, 1, 50, 127
1, 272280, Note_on_c, 1, 62, 127
1, 272339, Note_off_c, 1, 50, 0
1, 272339, Note_off_c, 1, 62, 0
1, 272340, Note_off_c, 1, 79, 0
1, 272400, Note_on_c, 1, 74, 127
1, 272400, Note_on_c, 1, 55, 127
1, 272400, Note_on_c, 1, 71, 127
1, 272400, Note_on_c, 1, 67, 127
1, 272459, Note_off_c, 1, 55, 0
1, 272459, Note_off_c, 1, 71, 0
1, 272459, Note_off_c, 1, 67, 0
1, 272460, Note_off_c, 1, 74, 0
1, 272520, Note_on_c, 1, 59, 127
1, 272549, Note_off_c, 1, 59, 0
1, 272550, Note_on_c, 1, 57, 127
1, 272550, Note_on_c, 1, 72, 127
1, 272579, Note_off_c, 1, 57, 0
1, 272579, Note_off_c, 1, 72, 0
1, 272640, Note_on_c, 1, 62, 127
1, 272640, Note_on_c, 1, 55, 127
1, 272640, Note_on_c, 1, 71, 127
1, 272640, Note_on_c, 1, 67, 127
1, 272670, Note_off_c, 1, 62, 0
1, 272699, Note_off_c, 1, 71, 0
1, 272699, Note_off_c, 1, 67, 0
1, 272700, Note_on_c, 1, 64, 127
1, 272759, Note_off_c, 1, 55, 0
1, 272760, Note_on_c, 1, 48, 127
1, 272760, Note_on_c, 1, 60, 127
1, 272819, Note_off_c, 1, 48, 0
1, 272819, Note_off_c, 1, 60, 0
1, 272820, Note_on_c, 1, 72, 127
1, 272879, Note_off_c, 1, 64, 0
1, 272879, Note_off_c, 1, 72, 0
1, 272880, Note_on_c, 1, 76, 127
1, 272880, Note_on_c, 1, 72, 127
1, 272880, Note_on_c, 1, 64, 127
1, 272880, Note_on_c, 1, 55, 127
1, 272939, Note_off_c, 1, 55, 0
1, 272940, Note_on_c, 1, 66, 127
1, 272940, Note_on_c, 1, 57, 127
1, 272969, Note_off_c, 1, 57, 0
1, 273000, Note_off_c, 1, 76, 0
1, 273000, Note_on_c, 1, 69, 127
1, 273000, Note_on_c, 1, 54, 127
1, 273029, Note_off_c, 1, 54, 0
1, 273030, Note_on_c, 1, 52, 127
1, 273059, Note_off_c, 1, 52, 0
1, 273060, Note_off_c, 1, 64, 0
1, 273060, Note_on_c, 1, 50, 127
1, 273089, Note_off_c, 1, 50, 0
1, 273090, Note_on_c, 1, 71, 127
1, 273090, Note_on_c, 1, 48, 127
1, 273119, Note_off_c, 1, 48, 0
1, 273120, Note_off_c, 1, 71, 0
1, 273120, Note_on_c, 1, 62, 127
1, 273120, Note_on_c, 1, 47, 127
1, 273149, Note_off_c, 1, 47, 0
1, 273150, Note_on_c, 1, 45, 127
1, 273179, Note_off_c, 1, 45, 0
1, 273180, Note_off_c, 1, 72, 0
1, 273180, Note_off_c, 1, 66, 0
1, 273180, Note_off_c, 1, 69, 0
1, 273180, Note_on_c, 1, 67, 127
1, 273180, Note_on_c, 1, 43, 127
1, 273209, Note_off_c, 1, 43, 0
1, 273210, Note_on_c, 1, 38, 127
1, 273239, Note_off_c, 1, 38, 0
1, 273240, Note_on_c, 1, 40, 127
1, 273269, Note_off_c, 1, 40, 0
1, 273270, Note_on_c, 1, 42, 127
1, 273299, Note_off_c, 1, 42, 0
1, 273300, Note_off_c, 1, 62, 0
1, 273300, Note_off_c, 1, 67, 0
1, 273330, Note_on_c, 1, 45, 127
1, 273359, Note_off_c, 1, 45, 0
1, 273360, Note_on_c, 1, 71, 127
1, 273360, Note_on_c, 1, 47, 127
1, 273360, Note_on_c, 1, 67, 127
1, 273389, Note_off_c, 1, 47, 0
1, 273390, Note_on_c, 1, 48, 127
1, 273419, Note_off_c, 1, 48, 0
1, 273420, Note_off_c, 1, 71, 0
1, 273420, Note_off_c, 1, 67, 0
1, 273420, Note_on_c, 1, 69, 127
1, 273420, Note_on_c, 1, 50, 127
1, 273420, Note_on_c, 1, 66, 127
1, 273449, Note_off_c, 1, 50, 0
1, 273480, Note_on_c, 1, 74, 127
1, 273510, Note_off_c, 1, 74, 0
1, 273510, Note_on_c, 1, 72, 127
1, 273510, Note_on_c, 1, 52, 127
1, 273539, Note_off_c, 1, 52, 0
1, 273540, Note_off_c, 1, 72, 0
1, 273540, Note_on_c, 1, 54, 127
1, 273569, Note_off_c, 1, 54, 0
1, 273660, Note_off_c, 1, 69, 0
1, 273660, Note_off_c, 1, 66, 0
1, 273660, Note_on_c, 1, 62, 127
1, 273660, Note_on_c, 1, 55, 127
1, 273689, Note_off_c, 1, 55, 0
1, 273720, Note_off_c, 1, 62, 0
1, 273750, Note_on_c, 1, 57, 127
1, 273779, Note_off_c, 1, 57, 0
1, 273780, Note_on_c, 1, 59, 127
1, 273809, Note_off_c, 1, 59, 0
1, 273810, Note_on_c, 1, 60, 127
1, 273839, Note_off_c, 1, 60, 0
1, 273900, Note_on_c, 1, 76, 127
1, 273900, Note_on_c, 1, 64, 127
1, 274020, Note_off_c, 1, 76, 0
1, 274020, Note_on_c, 1, 79, 127
1, 274080, Note_off_c, 1, 64, 0
1, 274080, Note_off_c, 1, 79, 0
1, 274080, Note_on_c, 1, 78, 127
1, 274110, Note_off_c, 1, 78, 0
1, 274140, Note_on_c, 1, 61, 127
1, 274140, Note_on_c, 1, 73, 127
1, 274260, Note_off_c, 1, 61, 0
1, 274379, Note_off_c, 1, 73, 0
1, 274440, Note_on_c, 1, 81, 127
1, 274560, Note_off_c, 1, 81, 0
1, 275400, Note_on_c, 1, 45, 127
1, 275459, Note_off_c, 1, 45, 0
1, 275520, Note_on_c, 1, 49, 127
1, 275579, Note_off_c, 1, 49, 0
1, 276000, Note_on_c, 1, 50, 127
1, 276000, Note_on_c, 1, 66, 127
1, 276000, Note_on_c, 1, 62, 127
1, 276059, Note_off_c, 1, 50, 0
1, 276059, Note_off_c, 1, 66, 0
1, 276059, Note_off_c, 1, 62, 0
1, 276060, Note_on_c, 1, 50, 127
1, 276060, Note_on_c, 1, 66, 127
1, 276060, Note_on_c, 1, 62, 127
1, 276119, Note_off_c, 1, 50, 0
1, 276119, Note_off_c, 1, 66, 0
1, 276119, Note_off_c, 1, 62, 0
1, 276120, Note_on_c, 1, 45, 127
1, 276120, Note_on_c, 1, 57, 127
1, 276179, Note_off_c, 1, 45, 0
1, 276179, Note_off_c, 1, 57, 0
1, 276180, Note_on_c, 1, 50, 127
1, 276180, Note_on_c, 1, 66, 127
1, 276180, Note_on_c, 1, 69, 127
1, 276239, Note_off_c, 1, 50, 0
1, 276239, Note_off_c, 1, 66, 0
1, 276239, Note_off_c, 1, 69, 0
1, 276240, Note_on_c, 1, 50, 127
1, 276240, Note_on_c, 1, 69, 127
1, 276240, Note_on_c, 1, 66, 127
1, 276299, Note_off_c, 1, 50, 0
1, 276299, Note_off_c, 1, 69, 0
1, 276299, Note_off_c, 1, 66, 0
1, 276300, Note_on_c, 1, 50, 127
1, 276300, Note_on_c, 1, 69, 127
1, 276300, Note_on_c, 1, 66, 127
1, 276359, Note_off_c, 1, 50, 0
1, 276359, Note_off_c, 1, 69, 0
1, 276359, Note_off_c, 1, 66, 0
1, 276360, Note_on_c, 1, 54, 127
1, 276360, Note_on_c, 1, 69, 127
1, 276389, Note_off_c, 1, 54, 0
1, 276389, Note_off_c, 1, 69, 0
1, 276390, Note_on_c, 1, 52, 127
1, 276390, Note_on_c, 1, 67, 127
1, 276419, Note_off_c, 1, 52, 0
1, 276419, Note_off_c, 1, 67, 0
1, 276420, Note_on_c, 1, 50, 127
1, 276420, Note_on_c, 1, 69, 127
1, 276420, Note_on_c, 1, 66, 127
1, 276479, Note_off_c, 1, 50, 0
1, 276479, Note_off_c, 1, 69, 0
1, 276479, Note_off_c, 1, 66, 0
1, 276480, Note_on_c, 1, 50, 127
1, 276480, Note_on_c, 1, 66, 127
1, 276480, Note_on_c, 1, 62, 127
1, 276539, Note_off_c, 1, 50, 0
1, 276539, Note_off_c, 1, 66, 0
1, 276539, Note_off_c, 1, 62, 0
1, 276540, Note_on_c, 1, 52, 127
1, 276540, Note_on_c, 1, 64, 127
1, 276540, Note_on_c, 1, 67, 127
1, 276569, Note_off_c, 1, 52, 0
1, 276570, Note_on_c, 1, 45, 127
1, 276599, Note_off_c, 1, 45, 0
1, 276600, Note_on_c, 1, 47, 127
1, 276629, Note_off_c, 1, 47, 0
1, 276630, Note_on_c, 1, 49, 127
1, 276659, Note_off_c, 1, 49, 0
1, 276660, Note_on_c, 1, 50, 127
1, 276689, Note_off_c, 1, 50, 0
1, 276720, Note_on_c, 1, 54, 127
1, 276749, Note_off_c, 1, 54, 0
1, 276750, Note_on_c, 1, 55, 127
1, 276779, Note_off_c, 1, 55, 0
1, 276780, Note_off_c, 1, 67, 0
1, 276780, Note_on_c, 1, 57, 127
1, 276780, Note_on_c, 1, 69, 127
1, 276809, Note_off_c, 1, 57, 0
1, 276900, Note_off_c, 1, 64, 0
1, 276900, Note_on_c, 1, 66, 127
1, 276959, Note_off_c, 1, 69, 0
1, 277020, Note_on_c, 1, 62, 127
1, 277080, Note_on_c, 1, 78, 127
1, 277139, Note_off_c, 1, 78, 0
1, 277200, Note_on_c, 1, 74, 127
1, 277259, Note_off_c, 1, 74, 0
1, 277260, Note_on_c, 1, 71, 127
1, 277319, Note_off_c, 1, 71, 0
1, 277440, Note_on_c, 1, 68, 127
1, 277499, Note_off_c, 1, 68, 0
1, 277500, Note_on_c, 1, 76, 127
1, 277559, Note_off_c, 1, 76, 0
1, 277620, Note_off_c, 1, 66, 0
1, 277620, Note_off_c, 1, 62, 0
1, 277620, Note_on_c, 1, 61, 127
1, 277680, Note_on_c, 1, 73, 127
1, 277709, Note_off_c, 1, 73, 0
1, 277739, Note_off_c, 1, 61, 0
1, 277740, Note_on_c, 1, 78, 127
1, 277740, Note_on_c, 1, 47, 127
1, 277740, Note_on_c, 1, 66, 127
1, 277740, Note_on_c, 1, 62, 127
1, 277799, Note_off_c, 1, 78, 0
1, 277800, Note_on_c, 1, 74, 127
1, 277859, Note_off_c, 1, 74, 0
1, 277860, Note_on_c, 1, 71, 127
1, 277919, Note_off_c, 1, 71, 0
1, 277920, Note_on_c, 1, 76, 127
1, 277979, Note_off_c, 1, 47, 0
1, 277979, Note_off_c, 1, 66, 0
1, 277979, Note_off_c, 1, 62, 0
1, 277979, Note_off_c, 1, 76, 0
1, 277980, Note_on_c, 1, 73, 127
1, 277980, Note_on_c, 1, 45, 127
1, 277980, Note_on_c, 1, 69, 127
1, 277980, Note_on_c, 1, 64, 127
1, 277980, Note_on_c, 1, 61, 127
1, 278039, Note_off_c, 1, 73, 0
1, 278340, Note_on_c, 1, 71, 127
1, 278399, Note_off_c, 1, 71, 0
1, 278459, Note_off_c, 1, 45, 0
1, 278459, Note_off_c, 1, 69, 0
1, 278459, Note_off_c, 1, 64, 0
1, 278459, Note_off_c, 1, 61, 0
1, 278460, Note_on_c, 1, 74, 127
1, 278460, Note_on_c, 1, 42, 127
1, 278460, Note_on_c, 1, 69, 127
1, 278460, Note_on_c, 1, 66, 127
1, 278460, Note_on_c, 1, 62, 127
1, 278519, Note_off_c, 1, 74, 0
1, 278699, Note_off_c, 1, 42, 0
1, 278699, Note_off_c, 1, 69, 0
1, 278699, Note_off_c, 1, 66, 0
1, 278699, Note_off_c, 1, 62, 0
1, 278700, Note_on_c, 1, 67, 127
1, 278700, Note_on_c, 1, 40, 127
1, 278700, Note_on_c, 1, 59, 127
1, 278700, Note_on_c, 1, 64, 127
1, 278820, Note_on_c, 1, 71, 127
1, 278879, Note_off_c, 1, 71, 0
1, 278880, Note_on_c, 1, 69, 127
1, 278939, Note_off_c, 1, 67, 0
1, 278939, Note_off_c, 1, 40, 0
1, 278939, Note_off_c, 1, 59, 0
1, 278939, Note_off_c, 1, 64, 0
1, 278939, Note_off_c, 1, 69, 0
1, 278940, Note_on_c, 1, 66, 127
1, 278940, Note_on_c, 1, 38, 127
1, 278940, Note_on_c, 1, 62, 127
1, 279090, Note_on_c, 1, 69, 127
1, 279119, Note_off_c, 1, 69, 0
1, 279120, Note_on_c, 1, 74, 127
1, 279149, Note_off_c, 1, 74, 0
1, 279150, Note_on_c, 1, 76, 127
1, 279179, Note_off_c, 1, 76, 0
1, 279180, Note_on_c, 1, 78, 127
1, 279239, Note_off_c, 1, 78, 0
1, 279300, Note_on_c, 1, 72, 127
1, 279329, Note_off_c, 1, 72, 0
1, 279330, Note_on_c, 1, 71, 127
1, 279359, Note_off_c, 1, 71, 0
1, 279419, Note_off_c, 1, 66, 0
1, 279419, Note_off_c, 1, 38, 0
1, 279419, Note_off_c, 1, 62, 0
1, 279420, Note_on_c, 1, 71, 127
1, 279420, Note_on_c, 1, 39, 127
1, 279420, Note_on_c, 1, 63, 127
1, 279420, Note_on_c, 1, 66, 127
1, 279659, Note_off_c, 1, 71, 0
1, 279659, Note_off_c, 1, 39, 0
1, 279659, Note_off_c, 1, 63, 0
1, 279659, Note_off_c, 1, 66, 0
1, 279660, Note_on_c, 1, 79, 127
1, 279660, Note_on_c, 1, 40, 127
1, 279660, Note_on_c, 1, 71, 127
1, 279660, Note_on_c, 1, 67, 127
1, 279719, Note_off_c, 1, 79, 0
1, 279720, Note_on_c, 1, 78, 127
1, 279779, Note_off_c, 1, 40, 0
1, 279779, Note_off_c, 1, 71, 0
1, 279779, Note_off_c, 1, 67, 0
1, 279779, Note_off_c, 1, 78, 0
1, 279780, Note_on_c, 1, 76, 127
1, 279780, Note_on_c, 1, 43, 127
1, 279780, Note_on_c, 1, 71, 127
1, 279780, Note_on_c, 1, 62, 127
1, 279839, Note_off_c, 1, 76, 0
1, 279840, Note_on_c, 1, 74, 127
1, 279899, Note_off_c, 1, 43, 0
1, 279899, Note_off_c, 1, 71, 0
1, 279899, Note_off_c, 1, 62, 0
1, 279899, Note_off_c, 1, 74, 0
1, 279900, Note_on_c, 1, 73, 127
1, 279959, Note_off_c, 1, 73, 0
1, 279960, Note_on_c, 1, 71, 127
1, 280019, Note_off_c, 1, 71, 0
1, 280020, Note_on_c, 1, 42, 127
1, 280020, Note_on_c, 1, 66, 127
1, 280020, Note_on_c, 1, 73, 127
1, 280020, Note_on_c, 1, 70, 127
1, 280080, Note_off_c, 1, 66, 0
1, 280080, Note_on_c, 1, 64, 127
1, 280139, Note_off_c, 1, 42, 0
1, 280139, Note_off_c, 1, 73, 0
1, 280139, Note_off_c, 1, 70, 0
1, 280140, Note_off_c, 1, 64, 0
1, 280140, Note_on_c, 1, 47, 127
1, 280140, Note_on_c, 1, 62, 127
1, 280199, Note_off_c, 1, 47, 0
1, 280199, Note_off_c, 1, 62, 0
1, 280200, Note_on_c, 1, 50, 127
1, 280200, Note_on_c, 1, 66, 127
1, 280229, Note_off_c, 1, 50, 0
1, 280229, Note_off_c, 1, 66, 0
1, 280230, Note_on_c, 1, 49, 127
1, 280230, Note_on_c, 1, 64, 127
1, 280259, Note_off_c, 1, 49, 0
1, 280259, Note_off_c, 1, 64, 0
1, 280260, Note_on_c, 1, 47, 127
1, 280260, Note_on_c, 1, 66, 127
1, 280260, Note_on_c, 1, 71, 127
1, 280319, Note_off_c, 1, 47, 0
1, 280319, Note_off_c, 1, 66, 0
1, 280319, Note_off_c, 1, 71, 0
1, 280320, Note_on_c, 1, 66, 127
1, 280320, Note_on_c, 1, 74, 127
1, 280320, Note_on_c, 1, 47, 127
1, 280320, Note_on_c, 1, 71, 127
1, 280379, Note_off_c, 1, 66, 0
1, 280379, Note_off_c, 1, 74, 0
1, 280379, Note_off_c, 1, 47, 0
1, 280379, Note_off_c, 1, 71, 0
1, 280380, Note_on_c, 1, 66, 127
1, 280380, Note_on_c, 1, 74, 127
1, 280380, Note_on_c, 1, 47, 127
1, 280380, Note_on_c, 1, 71, 127
1, 280439, Note_off_c, 1, 66, 0
1, 280439, Note_off_c, 1, 74, 0
1, 280439, Note_off_c, 1, 47, 0
1, 280439, Note_off_c, 1, 71, 0
1, 280440, Note_on_c, 1, 62, 127
1, 280440, Note_on_c, 1, 71, 127
1, 280440, Note_on_c, 1, 42, 127
1, 280469, Note_off_c, 1, 71, 0
1, 280470, Note_on_c, 1, 64, 127
1, 280470, Note_on_c, 1, 73, 127
1, 280499, Note_off_c, 1, 62, 0
1, 280499, Note_off_c, 1, 42, 0
1, 280499, Note_off_c, 1, 64, 0
1, 280499, Note_off_c, 1, 73, 0
1, 280500, Note_on_c, 1, 66, 127
1, 280500, Note_on_c, 1, 74, 127
1, 280500, Note_on_c, 1, 47, 127
1, 280500, Note_on_c, 1, 71, 127
1, 280529, Note_off_c, 1, 74, 0
1, 280530, Note_on_c, 1, 76, 127
1, 280559, Note_off_c, 1, 66, 0
1, 280559, Note_off_c, 1, 47, 0
1, 280559, Note_off_c, 1, 71, 0
1, 280559, Note_off_c, 1, 76, 0
1, 280560, Note_on_c, 1, 67, 127
1, 280560, Note_on_c, 1, 73, 127
1, 280560, Note_on_c, 1, 47, 127
1, 280560, Note_on_c, 1, 71, 127
1, 280560, Note_on_c, 1, 66, 127
1, 280589, Note_off_c, 1, 73, 0
1, 280590, Note_on_c, 1, 74, 127
1, 280619, Note_off_c, 1, 67, 0
1, 280619, Note_off_c, 1, 47, 0
1, 280619, Note_off_c, 1, 71, 0
1, 280619, Note_off_c, 1, 66, 0
1, 280619, Note_off_c, 1, 74, 0
1, 280620, Note_on_c, 1, 69, 127
1, 280620, Note_on_c, 1, 76, 127
1, 280620, Note_on_c, 1, 49, 127
1, 280620, Note_on_c, 1, 64, 127
1, 280620, Note_on_c, 1, 73, 127
1, 280649, Note_off_c, 1, 76, 0
1, 280650, Note_on_c, 1, 74, 127
1, 280679, Note_off_c, 1, 69, 0
1, 280679, Note_off_c, 1, 49, 0
1, 280679, Note_off_c, 1, 64, 0
1, 280679, Note_off_c, 1, 73, 0
1, 280679, Note_off_c, 1, 74, 0
1, 280680, Note_on_c, 1, 67, 127
1, 280680, Note_on_c, 1, 73, 127
1, 280680, Note_on_c, 1, 52, 127
1, 280709, Note_off_c, 1, 73, 0
1, 280710, Note_off_c, 1, 67, 0
1, 280710, Note_off_c, 1, 52, 0
1, 280710, Note_on_c, 1, 66, 127
1, 280710, Note_on_c, 1, 74, 127
1, 280710, Note_on_c, 1, 50, 127
1, 280739, Note_off_c, 1, 74, 0
1, 280740, Note_off_c, 1, 66, 0
1, 280740, Note_off_c, 1, 50, 0
1, 280740, Note_on_c, 1, 64, 127
1, 280740, Note_on_c, 1, 76, 127
1, 280740, Note_on_c, 1, 49, 127
1, 280799, Note_off_c, 1, 64, 0
1, 280799, Note_off_c, 1, 76, 0
1, 280799, Note_off_c, 1, 49, 0
1, 280800, Note_on_c, 1, 67, 127
1, 280800, Note_on_c, 1, 69, 127
1, 280800, Note_on_c, 1, 49, 127
1, 280800, Note_on_c, 1, 73, 127
1, 280800, Note_on_c, 1, 64, 127
1, 280829, Note_off_c, 1, 67, 0
1, 280830, Note_on_c, 1, 66, 127
1, 280859, Note_off_c, 1, 69, 0
1, 280859, Note_off_c, 1, 49, 0
1, 280859, Note_off_c, 1, 73, 0
1, 280859, Note_off_c, 1, 64, 0
1, 280859, Note_off_c, 1, 66, 0
1, 280860, Note_on_c, 1, 67, 127
1, 280860, Note_on_c, 1, 76, 127
1, 280860, Note_on_c, 1, 49, 127
1, 280860, Note_on_c, 1, 73, 127
1, 280860, Note_on_c, 1, 64, 127
1, 280919, Note_off_c, 1, 67, 0
1, 280919, Note_off_c, 1, 76, 0
1, 280919, Note_off_c, 1, 49, 0
1, 280919, Note_off_c, 1, 73, 0
1, 280919, Note_off_c, 1, 64, 0
1, 280920, Note_on_c, 1, 71, 127
1, 280920, Note_on_c, 1, 79, 127
1, 280920, Note_on_c, 1, 45, 127
1, 280920, Note_on_c, 1, 61, 127
1, 280949, Note_off_c, 1, 71, 0
1, 280949, Note_off_c, 1, 79, 0
1, 280950, Note_on_c, 1, 69, 127
1, 280950, Note_on_c, 1, 78, 127
1, 280979, Note_off_c, 1, 45, 0
1, 280979, Note_off_c, 1, 61, 0
1, 280979, Note_off_c, 1, 69, 0
1, 280979, Note_off_c, 1, 78, 0
1, 280980, Note_on_c, 1, 71, 127
1, 280980, Note_on_c, 1, 79, 127
1, 280980, Note_on_c, 1, 49, 127
1, 280980, Note_on_c, 1, 73, 127
1, 280980, Note_on_c, 1, 64, 127
1, 281039, Note_off_c, 1, 71, 0
1, 281039, Note_off_c, 1, 79, 0
1, 281039, Note_off_c, 1, 49, 0
1, 281039, Note_off_c, 1, 73, 0
1, 281039, Note_off_c, 1, 64, 0
1, 281040, Note_on_c, 1, 69, 127
1, 281040, Note_on_c, 1, 78, 127
1, 281040, Note_on_c, 1, 49, 127
1, 281040, Note_on_c, 1, 73, 127
1, 281040, Note_on_c, 1, 64, 127
1, 281099, Note_off_c, 1, 69, 0
1, 281099, Note_off_c, 1, 78, 0
1, 281099, Note_off_c, 1, 49, 0
1, 281099, Note_off_c, 1, 73, 0
1, 281099, Note_off_c, 1, 64, 0
1, 281100, Note_on_c, 1, 67, 127
1, 281100, Note_on_c, 1, 76, 127
1, 281100, Note_on_c, 1, 50, 127
1, 281100, Note_on_c, 1, 74, 127
1, 281100, Note_on_c, 1, 66, 127
1, 281159, Note_off_c, 1, 67, 0
1, 281159, Note_off_c, 1, 76, 0
1, 281159, Note_off_c, 1, 50, 0
1, 281159, Note_off_c, 1, 74, 0
1, 281159, Note_off_c, 1, 66, 0
1, 281160, Note_on_c, 1, 66, 127
1, 281160, Note_on_c, 1, 74, 127
1, 281160, Note_on_c, 1, 54, 127
1, 281160, Note_on_c, 1, 69, 127
1, 281189, Note_off_c, 1, 54, 0
1, 281189, Note_off_c, 1, 69, 0
1, 281190, Note_on_c, 1, 52, 127
1, 281190, Note_on_c, 1, 67, 127
1, 281219, Note_off_c, 1, 66, 0
1, 281219, Note_off_c, 1, 74, 0
1, 281219, Note_off_c, 1, 52, 0
1, 281219, Note_off_c, 1, 67, 0
1, 281220, Note_on_c, 1, 50, 127
1, 281220, Note_on_c, 1, 66, 127
1, 281220, Note_on_c, 1, 74, 127
1, 281279, Note_off_c, 1, 50, 0
1, 281279, Note_off_c, 1, 66, 0
1, 281279, Note_off_c, 1, 74, 0
1, 281280, Note_on_c, 1, 69, 127
1, 281280, Note_on_c, 1, 78, 127
1, 281280, Note_on_c, 1, 50, 127
1, 281280, Note_on_c, 1, 74, 127
1, 281280, Note_on_c, 1, 66, 127
1, 281339, Note_off_c, 1, 69, 0
1, 281339, Note_off_c, 1, 78, 0
1, 281339, Note_off_c, 1, 50, 0
1, 281339, Note_off_c, 1, 74, 0
1, 281339, Note_off_c, 1, 66, 0
1, 281340, Note_on_c, 1, 69, 127
1, 281340, Note_on_c, 1, 78, 127
1, 281340, Note_on_c, 1, 50, 127
1, 281340, Note_on_c, 1, 74, 127
1, 281340, Note_on_c, 1, 66, 127
1, 281399, Note_off_c, 1, 69, 0
1, 281399, Note_off_c, 1, 78, 0
1, 281399, Note_off_c, 1, 50, 0
1, 281399, Note_off_c, 1, 74, 0
1, 281399, Note_off_c, 1, 66, 0
1, 281400, Note_on_c, 1, 74, 127
1, 281400, Note_on_c, 1, 45, 127
1, 281400, Note_on_c, 1, 62, 127
1, 281429, Note_off_c, 1, 74, 0
1, 281430, Note_on_c, 1, 73, 127
1, 281430, Note_on_c, 1, 76, 127
1, 281459, Note_off_c, 1, 45, 0
1, 281459, Note_off_c, 1, 62, 0
1, 281459, Note_off_c, 1, 73, 0
1, 281459, Note_off_c, 1, 76, 0
1, 281460, Note_on_c, 1, 74, 127
1, 281460, Note_on_c, 1, 78, 127
1, 281460, Note_on_c, 1, 50, 127
1, 281460, Note_on_c, 1, 66, 127
1, 281519, Note_off_c, 1, 74, 0
1, 281519, Note_off_c, 1, 78, 0
1, 281519, Note_off_c, 1, 50, 0
1, 281519, Note_off_c, 1, 66, 0
1, 281520, Note_on_c, 1, 66, 127
1, 281520, Note_on_c, 1, 74, 127
1, 281520, Note_on_c, 1, 50, 127
1, 281579, Note_off_c, 1, 66, 0
1, 281579, Note_off_c, 1, 74, 0
1, 281579, Note_off_c, 1, 50, 0
1, 281580, Note_on_c, 1, 67, 127
1, 281580, Note_on_c, 1, 71, 127
1, 281580, Note_on_c, 1, 52, 127
1, 281610, Note_on_c, 1, 66, 127
1, 281639, Note_off_c, 1, 67, 0
1, 281639, Note_off_c, 1, 52, 0
1, 281639, Note_off_c, 1, 66, 0
1, 281640, Note_on_c, 1, 64, 127
1, 281640, Note_on_c, 1, 55, 127
1, 281669, Note_off_c, 1, 71, 0
1, 281669, Note_off_c, 1, 64, 0
1, 281669, Note_off_c, 1, 55, 0
1, 281670, Note_on_c, 1, 66, 127
1, 281670, Note_on_c, 1, 69, 127
1, 281670, Note_on_c, 1, 54, 127
1, 281699, Note_off_c, 1, 66, 0
1, 281699, Note_off_c, 1, 69, 0
1, 281699, Note_off_c, 1, 54, 0
1, 281700, Note_on_c, 1, 67, 127
1, 281700, Note_on_c, 1, 71, 127
1, 281700, Note_on_c, 1, 52, 127
1, 281730, Note_on_c, 1, 69, 127
1, 281759, Note_off_c, 1, 67, 0
1, 281759, Note_off_c, 1, 71, 0
1, 281759, Note_off_c, 1, 52, 0
1, 281759, Note_off_c, 1, 69, 0
1, 281760, Note_on_c, 1, 67, 127
1, 281760, Note_on_c, 1, 71, 127
1, 281760, Note_on_c, 1, 52, 127
1, 281790, Note_on_c, 1, 69, 127
1, 281819, Note_off_c, 1, 67, 0
1, 281819, Note_off_c, 1, 71, 0
1, 281819, Note_off_c, 1, 52, 0
1, 281819, Note_off_c, 1, 69, 0
1, 281820, Note_on_c, 1, 67, 127
1, 281820, Note_on_c, 1, 72, 127
1, 281820, Note_on_c, 1, 52, 127
1, 281850, Note_on_c, 1, 66, 127
1, 281879, Note_off_c, 1, 67, 0
1, 281879, Note_off_c, 1, 72, 0
1, 281879, Note_off_c, 1, 52, 0
1, 281879, Note_off_c, 1, 66, 0
1, 281880, Note_on_c, 1, 64, 127
1, 281880, Note_on_c, 1, 76, 127
1, 281880, Note_on_c, 1, 45, 127
1, 281909, Note_off_c, 1, 76, 0
1, 281910, Note_on_c, 1, 66, 127
1, 281910, Note_on_c, 1, 74, 127
1, 281939, Note_off_c, 1, 64, 0
1, 281939, Note_off_c, 1, 45, 0
1, 281939, Note_off_c, 1, 66, 0
1, 281939, Note_off_c, 1, 74, 0
1, 281940, Note_on_c, 1, 67, 127
1, 281940, Note_on_c, 1, 76, 127
1, 281940, Note_on_c, 1, 52, 127
1, 281940, Note_on_c, 1, 72, 127
1, 281970, Note_on_c, 1, 69, 127
1, 281999, Note_off_c, 1, 67, 0
1, 281999, Note_off_c, 1, 76, 0
1, 281999, Note_off_c, 1, 52, 0
1, 281999, Note_off_c, 1, 72, 0
1, 281999, Note_off_c, 1, 69, 0
1, 282000, Note_on_c, 1, 66, 127
1, 282000, Note_on_c, 1, 72, 127
1, 282000, Note_on_c, 1, 52, 127
1, 282030, Note_on_c, 1, 67, 127
1, 282059, Note_off_c, 1, 66, 0
1, 282059, Note_off_c, 1, 72, 0
1, 282059, Note_off_c, 1, 52, 0
1, 282059, Note_off_c, 1, 67, 0
1, 282060, Note_on_c, 1, 69, 127
1, 282060, Note_on_c, 1, 54, 127
1, 282060, Note_on_c, 1, 66, 127
1, 282060, Note_on_c, 1, 74, 127
1, 282090, Note_on_c, 1, 67, 127
1, 282119, Note_off_c, 1, 69, 0
1, 282119, Note_off_c, 1, 54, 0
1, 282119, Note_off_c, 1, 66, 0
1, 282119, Note_off_c, 1, 74, 0
1, 282119, Note_off_c, 1, 67, 0
1, 282120, Note_on_c, 1, 66, 127
1, 282120, Note_on_c, 1, 62, 127
1, 282120, Note_on_c, 1, 57, 127
1, 282149, Note_off_c, 1, 66, 0
1, 282149, Note_off_c, 1, 57, 0
1, 282150, Note_on_c, 1, 67, 127
1, 282150, Note_on_c, 1, 55, 127
1, 282150, Note_on_c, 1, 64, 127
1, 282179, Note_off_c, 1, 62, 0
1, 282179, Note_off_c, 1, 67, 0
1, 282179, Note_off_c, 1, 55, 0
1, 282179, Note_off_c, 1, 64, 0
1, 282180, Note_on_c, 1, 69, 127
1, 282180, Note_on_c, 1, 66, 127
1, 282180, Note_on_c, 1, 54, 127
1, 282180, Note_on_c, 1, 74, 127
1, 282209, Note_off_c, 1, 69, 0
1, 282210, Note_on_c, 1, 71, 127
1, 282239, Note_off_c, 1, 66, 0
1, 282239, Note_off_c, 1, 54, 0
1, 282239, Note_off_c, 1, 74, 0
1, 282239, Note_off_c, 1, 71, 0
1, 282240, Note_on_c, 1, 69, 127
1, 282240, Note_on_c, 1, 54, 127
1, 282240, Note_on_c, 1, 74, 127
1, 282240, Note_on_c, 1, 66, 127
1, 282270, Note_on_c, 1, 71, 127
1, 282299, Note_off_c, 1, 69, 0
1, 282299, Note_off_c, 1, 54, 0
1, 282299, Note_off_c, 1, 74, 0
1, 282299, Note_off_c, 1, 66, 0
1, 282299, Note_off_c, 1, 71, 0
1, 282300, Note_on_c, 1, 69, 127
1, 282300, Note_on_c, 1, 74, 127
1, 282300, Note_on_c, 1, 54, 127
1, 282300, Note_on_c, 1, 66, 127
1, 282329, Note_off_c, 1, 69, 0
1, 282330, Note_on_c, 1, 67, 127
1, 282359, Note_off_c, 1, 74, 0
1, 282359, Note_off_c, 1, 54, 0
1, 282359, Note_off_c, 1, 66, 0
1, 282359, Note_off_c, 1, 67, 0
1, 282360, Note_on_c, 1, 66, 127
1, 282360, Note_on_c, 1, 72, 127
1, 282360, Note_on_c, 1, 50, 127
1, 282360, Note_on_c, 1, 69, 127
1, 282389, Note_off_c, 1, 66, 0
1, 282390, Note_on_c, 1, 67, 127
1, 282390, Note_on_c, 1, 71, 127
1, 282419, Note_off_c, 1, 72, 0
1, 282419, Note_off_c, 1, 50, 0
1, 282419, Note_off_c, 1, 69, 0
1, 282419, Note_off_c, 1, 67, 0
1, 282419, Note_off_c, 1, 71, 0
1, 282420, Note_on_c, 1, 69, 127
1, 282420, Note_on_c, 1, 72, 127
1, 282420, Note_on_c, 1, 54, 127
1, 282450, Note_on_c, 1, 71, 127
1, 282479, Note_off_c, 1, 69, 0
1, 282479, Note_off_c, 1, 72, 0
1, 282479, Note_off_c, 1, 54, 0
1, 282479, Note_off_c, 1, 71, 0
1, 282480, Note_on_c, 1, 67, 127
1, 282480, Note_on_c, 1, 69, 127
1, 282480, Note_on_c, 1, 54, 127
1, 282480, Note_on_c, 1, 72, 127
1, 282509, Note_off_c, 1, 67, 0
1, 282539, Note_off_c, 1, 69, 0
1, 282539, Note_off_c, 1, 54, 0
1, 282539, Note_off_c, 1, 72, 0
1, 282540, Note_on_c, 1, 71, 127
1, 282540, Note_on_c, 1, 67, 127
1, 282540, Note_on_c, 1, 55, 127
1, 282570, Note_on_c, 1, 69, 127
1, 282599, Note_off_c, 1, 71, 0
1, 282599, Note_off_c, 1, 55, 0
1, 282599, Note_off_c, 1, 69, 0
1, 282600, Note_on_c, 1, 59, 127
1, 282629, Note_off_c, 1, 59, 0
1, 282630, Note_on_c, 1, 57, 127
1, 282630, Note_on_c, 1, 66, 127
1, 282659, Note_off_c, 1, 67, 0
1, 282659, Note_off_c, 1, 57, 0
1, 282659, Note_off_c, 1, 66, 0
1, 282660, Note_on_c, 1, 71, 127
1, 282660, Note_on_c, 1, 55, 127
1, 282660, Note_on_c, 1, 67, 127
1, 282719, Note_off_c, 1, 71, 0
1, 282719, Note_off_c, 1, 55, 0
1, 282719, Note_off_c, 1, 67, 0
1, 282720, Note_on_c, 1, 71, 127
1, 282720, Note_on_c, 1, 74, 127
1, 282720, Note_on_c, 1, 55, 127
1, 282720, Note_on_c, 1, 67, 127
1, 282779, Note_off_c, 1, 71, 0
1, 282779, Note_off_c, 1, 74, 0
1, 282779, Note_off_c, 1, 55, 0
1, 282779, Note_off_c, 1, 67, 0
1, 282780, Note_on_c, 1, 71, 127
1, 282780, Note_on_c, 1, 74, 127
1, 282780, Note_on_c, 1, 55, 127
1, 282780, Note_on_c, 1, 67, 127
1, 282810, Note_on_c, 1, 69, 127
1, 282839, Note_off_c, 1, 71, 0
1, 282839, Note_off_c, 1, 74, 0
1, 282839, Note_off_c, 1, 55, 0
1, 282839, Note_off_c, 1, 67, 0
1, 282839, Note_off_c, 1, 69, 0
1, 282840, Note_on_c, 1, 67, 127
1, 282840, Note_on_c, 1, 79, 127
1, 282840, Note_on_c, 1, 50, 127
1, 282840, Note_on_c, 1, 62, 127
1, 282869, Note_off_c, 1, 67, 0
1, 282869, Note_off_c, 1, 79, 0
1, 282870, Note_on_c, 1, 69, 127
1, 282870, Note_on_c, 1, 78, 127
1, 282899, Note_off_c, 1, 50, 0
1, 282899, Note_off_c, 1, 62, 0
1, 282899, Note_off_c, 1, 69, 0
1, 282899, Note_off_c, 1, 78, 0
1, 282900, Note_on_c, 1, 71, 127
1, 282900, Note_on_c, 1, 79, 127
1, 282900, Note_on_c, 1, 55, 127
1, 282900, Note_on_c, 1, 67, 127
1, 282959, Note_off_c, 1, 71, 0
1, 282959, Note_off_c, 1, 79, 0
1, 282959, Note_off_c, 1, 55, 0
1, 282959, Note_off_c, 1, 67, 0
1, 282960, Note_on_c, 1, 67, 127
1, 282960, Note_on_c, 1, 71, 127
1, 282960, Note_on_c, 1, 55, 127
1, 283019, Note_off_c, 1, 67, 0
1, 283019, Note_off_c, 1, 71, 0
1, 283019, Note_off_c, 1, 55, 0
1, 283020, Note_on_c, 1, 64, 127
1, 283020, Note_on_c, 1, 72, 127
1, 283020, Note_on_c, 1, 57, 127
1, 283020, Note_on_c, 1, 69, 127
1, 283050, Note_on_c, 1, 71, 127
1, 283079, Note_off_c, 1, 72, 0
1, 283079, Note_off_c, 1, 57, 0
1, 283079, Note_off_c, 1, 69, 0
1, 283079, Note_off_c, 1, 71, 0
1, 283080, Note_on_c, 1, 60, 127
1, 283109, Note_off_c, 1, 64, 0
1, 283109, Note_off_c, 1, 60, 0
1, 283110, Note_on_c, 1, 62, 127
1, 283110, Note_on_c, 1, 71, 127
1, 283110, Note_on_c, 1, 59, 127
1, 283110, Note_on_c, 1, 67, 127
1, 283139, Note_off_c, 1, 62, 0
1, 283139, Note_off_c, 1, 71, 0
1, 283139, Note_off_c, 1, 59, 0
1, 283139, Note_off_c, 1, 67, 0
1, 283140, Note_on_c, 1, 64, 127
1, 283140, Note_on_c, 1, 72, 127
1, 283140, Note_on_c, 1, 57, 127
1, 283140, Note_on_c, 1, 69, 127
1, 283170, Note_on_c, 1, 74, 127
1, 283199, Note_off_c, 1, 64, 0
1, 283199, Note_off_c, 1, 72, 0
1, 283199, Note_off_c, 1, 57, 0
1, 283199, Note_off_c, 1, 69, 0
1, 283199, Note_off_c, 1, 74, 0
1, 283200, Note_on_c, 1, 64, 127
1, 283200, Note_on_c, 1, 72, 127
1, 283200, Note_on_c, 1, 57, 127
1, 283200, Note_on_c, 1, 69, 127
1, 283230, Note_on_c, 1, 74, 127
1, 283259, Note_off_c, 1, 64, 0
1, 283259, Note_off_c, 1, 72, 0
1, 283259, Note_off_c, 1, 57, 0
1, 283259, Note_off_c, 1, 69, 0
1, 283259, Note_off_c, 1, 74, 0
1, 283260, Note_on_c, 1, 66, 127
1, 283260, Note_on_c, 1, 72, 127
1, 283260, Note_on_c, 1, 57, 127
1, 283260, Note_on_c, 1, 69, 127
1, 283290, Note_on_c, 1, 71, 127
1, 283319, Note_off_c, 1, 66, 0
1, 283319, Note_off_c, 1, 72, 0
1, 283319, Note_off_c, 1, 57, 0
1, 283319, Note_off_c, 1, 69, 0
1, 283319, Note_off_c, 1, 71, 0
1, 283320, Note_on_c, 1, 69, 127
1, 283320, Note_on_c, 1, 50, 127
1, 283320, Note_on_c, 1, 66, 127
1, 283349, Note_off_c, 1, 69, 0
1, 283350, Note_on_c, 1, 67, 127
1, 283350, Note_on_c, 1, 71, 127
1, 283379, Note_off_c, 1, 50, 0
1, 283379, Note_off_c, 1, 66, 0
1, 283379, Note_off_c, 1, 67, 0
1, 283379, Note_off_c, 1, 71, 0
1, 283380, Note_on_c, 1, 69, 127
1, 283380, Note_on_c, 1, 72, 127
1, 283380, Note_on_c, 1, 57, 127
1, 283380, Note_on_c, 1, 66, 127
1, 283409, Note_off_c, 1, 72, 0
1, 283410, Note_on_c, 1, 74, 127
1, 283439, Note_off_c, 1, 69, 0
1, 283439, Note_off_c, 1, 57, 0
1, 283439, Note_off_c, 1, 66, 0
1, 283439, Note_off_c, 1, 74, 0
1, 283440, Note_on_c, 1, 66, 127
1, 283440, Note_on_c, 1, 76, 127
1, 283440, Note_on_c, 1, 57, 127
1, 283440, Note_on_c, 1, 69, 127
1, 283469, Note_off_c, 1, 76, 0
1, 283470, Note_on_c, 1, 78, 127
1, 283499, Note_off_c, 1, 66, 0
1, 283499, Note_off_c, 1, 57, 0
1, 283499, Note_off_c, 1, 69, 0
1, 283499, Note_off_c, 1, 78, 0
1, 283500, Note_on_c, 1, 74, 127
1, 283500, Note_on_c, 1, 79, 127
1, 283500, Note_on_c, 1, 59, 127
1, 283500, Note_on_c, 1, 67, 127
1, 283500, Note_on_c, 1, 71, 127
1, 283559, Note_off_c, 1, 74, 0
1, 283559, Note_off_c, 1, 79, 0
1, 283559, Note_off_c, 1, 59, 0
1, 283559, Note_off_c, 1, 67, 0
1, 283559, Note_off_c, 1, 71, 0
1, 283560, Note_on_c, 1, 72, 127
1, 283560, Note_on_c, 1, 67, 127
1, 283560, Note_on_c, 1, 57, 127
1, 283589, Note_off_c, 1, 72, 0
1, 283589, Note_off_c, 1, 57, 0
1, 283590, Note_on_c, 1, 71, 127
1, 283590, Note_on_c, 1, 55, 127
1, 283619, Note_off_c, 1, 67, 0
1, 283619, Note_off_c, 1, 71, 0
1, 283619, Note_off_c, 1, 55, 0
1, 283620, Note_on_c, 1, 72, 127
1, 283620, Note_on_c, 1, 62, 127
1, 283620, Note_on_c, 1, 69, 127
1, 283679, Note_off_c, 1, 72, 0
1, 283679, Note_off_c, 1, 62, 0
1, 283679, Note_off_c, 1, 69, 0
1, 283680, Note_on_c, 1, 69, 127
1, 283680, Note_on_c, 1, 66, 127
1, 283680, Note_on_c, 1, 50, 127
1, 283680, Note_on_c, 1, 72, 127
1, 283739, Note_off_c, 1, 69, 0
1, 283739, Note_off_c, 1, 66, 0
1, 283739, Note_off_c, 1, 50, 0
1, 283739, Note_off_c, 1, 72, 0
1, 283740, Note_on_c, 1, 67, 127
1, 283740, Note_on_c, 1, 55, 127
1, 283740, Note_on_c, 1, 74, 127
1, 283740, Note_on_c, 1, 71, 127
1, 283799, Note_off_c, 1, 55, 0
1, 283799, Note_off_c, 1, 74, 0
1, 283799, Note_off_c, 1, 71, 0
1, 283800, Note_on_c, 1, 59, 127
1, 283829, Note_off_c, 1, 59, 0
1, 283830, Note_on_c, 1, 57, 127
1, 283830, Note_on_c, 1, 66, 127
1, 283859, Note_off_c, 1, 67, 0
1, 283859, Note_off_c, 1, 57, 0
1, 283859, Note_off_c, 1, 66, 0
1, 283860, Note_on_c, 1, 55, 127
1, 283860, Note_on_c, 1, 67, 127
1, 283860, Note_on_c, 1, 71, 127
1, 283919, Note_off_c, 1, 55, 0
1, 283919, Note_off_c, 1, 67, 0
1, 283919, Note_off_c, 1, 71, 0
1, 283920, Note_on_c, 1, 55, 127
1, 283920, Note_on_c, 1, 74, 127
1, 283920, Note_on_c, 1, 71, 127
1, 283979, Note_off_c, 1, 55, 0
1, 283979, Note_off_c, 1, 74, 0
1, 283979, Note_off_c, 1, 71, 0
1, 283980, Note_on_c, 1, 55, 127
1, 283980, Note_on_c, 1, 74, 127
1, 283980, Note_on_c, 1, 71, 127
1, 284039, Note_off_c, 1, 55, 0
1, 284039, Note_off_c, 1, 74, 0
1, 284039, Note_off_c, 1, 71, 0
1, 284040, Note_on_c, 1, 50, 127
1, 284040, Note_on_c, 1, 71, 127
1, 284099, Note_off_c, 1, 50, 0
1, 284099, Note_off_c, 1, 71, 0
1, 284100, Note_on_c, 1, 55, 127
1, 284100, Note_on_c, 1, 74, 127
1, 284100, Note_on_c, 1, 71, 127
1, 284159, Note_off_c, 1, 55, 0
1, 284159, Note_off_c, 1, 74, 0
1, 284159, Note_off_c, 1, 71, 0
1, 284160, Note_on_c, 1, 55, 127
1, 284160, Note_on_c, 1, 74, 127
1, 284160, Note_on_c, 1, 71, 127
1, 284219, Note_off_c, 1, 55, 0
1, 284219, Note_off_c, 1, 74, 0
1, 284219, Note_off_c, 1, 71, 0
1, 284220, Note_on_c, 1, 57, 127
1, 284220, Note_on_c, 1, 76, 127
1, 284220, Note_on_c, 1, 72, 127
1, 284279, Note_off_c, 1, 57, 0
1, 284279, Note_off_c, 1, 76, 0
1, 284279, Note_off_c, 1, 72, 0
1, 284280, Note_on_c, 1, 60, 127
1, 284280, Note_on_c, 1, 69, 127
1, 284309, Note_off_c, 1, 60, 0
1, 284309, Note_off_c, 1, 69, 0
1, 284310, Note_on_c, 1, 59, 127
1, 284310, Note_on_c, 1, 67, 127
1, 284339, Note_off_c, 1, 59, 0
1, 284339, Note_off_c, 1, 67, 0
1, 284340, Note_on_c, 1, 57, 127
1, 284340, Note_on_c, 1, 72, 127
1, 284369, Note_off_c, 1, 72, 0
1, 284370, Note_on_c, 1, 71, 127
1, 284399, Note_off_c, 1, 57, 0
1, 284399, Note_off_c, 1, 71, 0
1, 284400, Note_on_c, 1, 57, 127
1, 284400, Note_on_c, 1, 69, 127
1, 284429, Note_off_c, 1, 69, 0
1, 284430, Note_on_c, 1, 67, 127
1, 284459, Note_off_c, 1, 57, 0
1, 284459, Note_off_c, 1, 67, 0
1, 284460, Note_on_c, 1, 57, 127
1, 284460, Note_on_c, 1, 64, 127
1, 284460, Note_on_c, 1, 60, 127
1, 284460, Note_on_c, 1, 69, 127
1, 284489, Note_off_c, 1, 57, 0
1, 284490, Note_on_c, 1, 50, 127
1, 284519, Note_off_c, 1, 50, 0
1, 284520, Note_on_c, 1, 52, 127
1, 284549, Note_off_c, 1, 52, 0
1, 284550, Note_on_c, 1, 54, 127
1, 284579, Note_off_c, 1, 54, 0
1, 284580, Note_off_c, 1, 64, 0
1, 284580, Note_off_c, 1, 60, 0
1, 284580, Note_off_c, 1, 69, 0
1, 284580, Note_on_c, 1, 55, 127
1, 284609, Note_off_c, 1, 55, 0
1, 284610, Note_on_c, 1, 57, 127
1, 284610, Note_on_c, 1, 72, 127
1, 284639, Note_off_c, 1, 57, 0
1, 284639, Note_off_c, 1, 72, 0
1, 284640, Note_on_c, 1, 59, 127
1, 284640, Note_on_c, 1, 71, 127
1, 284669, Note_off_c, 1, 59, 0
1, 284669, Note_off_c, 1, 71, 0
1, 284670, Note_on_c, 1, 60, 127
1, 284670, Note_on_c, 1, 69, 127
1, 284699, Note_off_c, 1, 60, 0
1, 284699, Note_off_c, 1, 69, 0
1, 284700, Note_on_c, 1, 62, 127
1, 284700, Note_on_c, 1, 69, 127
1, 284700, Note_on_c, 1, 66, 127
1, 284729, Note_off_c, 1, 62, 0
1, 284730, Note_on_c, 1, 60, 127
1, 284759, Note_off_c, 1, 60, 0
1, 284760, Note_on_c, 1, 59, 127
1, 284789, Note_off_c, 1, 59, 0
1, 284820, Note_on_c, 1, 74, 127
1, 284880, Note_off_c, 1, 74, 0
1, 284880, Note_on_c, 1, 50, 127
1, 284880, Note_on_c, 1, 72, 127
1, 284939, Note_off_c, 1, 50, 0
1, 284940, Note_off_c, 1, 69, 0
1, 284940, Note_off_c, 1, 66, 0
1, 284940, Note_off_c, 1, 72, 0
1, 284940, Note_on_c, 1, 43, 127
1, 284940, Note_on_c, 1, 71, 127
1, 284940, Note_on_c, 1, 67, 127
1, 285179, Note_off_c, 1, 43, 0
1, 285179, Note_off_c, 1, 71, 0
1, 285179, Note_off_c, 1, 67, 0
1, 285420, Note_on_c, 1, 74, 127
1, 285420, Note_on_c, 1, 43, 127
1, 285420, Note_on_c, 1, 71, 127
1, 285420, Note_on_c, 1, 67, 127
1, 285420, Note_on_c, 1, 62, 127
1, 285450, Note_off_c, 1, 74, 0
1, 285450, Note_on_c, 1, 79, 127
1, 285480, Note_off_c, 1, 43, 0
1, 285480, Note_off_c, 1, 67, 0
1, 285480, Note_off_c, 1, 62, 0
1, 285480, Note_off_c, 1, 79, 0
1, 285480, Note_on_c, 1, 83, 127
1, 285480, Note_on_c, 1, 55, 127
1, 285510, Note_off_c, 1, 71, 0
1, 285510, Note_off_c, 1, 55, 0
1, 285510, Note_on_c, 1, 54, 127
1, 285510, Note_on_c, 1, 69, 127
1, 285540, Note_off_c, 1, 54, 0
1, 285540, Note_off_c, 1, 69, 0
1, 285570, Note_off_c, 1, 83, 0
1, 285570, Note_on_c, 1, 81, 127
1, 285600, Note_off_c, 1, 81, 0
1, 285600, Note_on_c, 1, 59, 127
1, 285630, Note_off_c, 1, 59, 0
1, 285630, Note_on_c, 1, 78, 127
1, 285630, Note_on_c, 1, 57, 127
1, 285630, Note_on_c, 1, 72, 127
1, 285660, Note_off_c, 1, 78, 0
1, 285660, Note_off_c, 1, 57, 0
1, 285660, Note_off_c, 1, 72, 0
1, 285720, Note_on_c, 1, 50, 127
1, 285780, Note_off_c, 1, 50, 0
1, 285780, Note_on_c, 1, 47, 127
1, 285840, Note_off_c, 1, 47, 0
1, 285840, Note_on_c, 1, 86, 127
1, 285870, Note_off_c, 1, 86, 0
1, 285870, Note_on_c, 1, 84, 127
1, 285870, Note_on_c, 1, 45, 127
1, 285900, Note_off_c, 1, 84, 0
1, 285900, Note_off_c, 1, 45, 0
1, 286110, Note_on_c, 1, 77, 127
1, 286140, Note_off_c, 1, 77, 0
1, 286140, Note_on_c, 1, 76, 127
1, 286140, Note_on_c, 1, 60, 127
1, 286230, Note_off_c, 1, 76, 0
1, 286230, Note_off_c, 1, 60, 0
1, 286230, Note_on_c, 1, 66, 127
1, 286260, Note_off_c, 1, 66, 0
1, 286260, Note_on_c, 1, 64, 127
1, 286320, Note_off_c, 1, 64, 0
1, 286680, Note_on_c, 1, 52, 127
1, 286920, Note_off_c, 1, 52, 0
1, 287640, Note_on_c, 1, 40, 127
1, 287700, Note_off_c, 1, 40, 0
1, 287910, Note_on_c, 1, 73, 127
1, 287940, Note_off_c, 1, 73, 0
1, 288120, Note_on_c, 1, 61, 127
1, 288150, Note_off_c, 1, 61, 0
1, 288900, Note_on_c, 1, 49, 127
1, 288960, Note_off_c, 1, 49, 0
1, 289440, Note_on_c, 1, 38, 127
1, 289500, Note_off_c, 1, 38, 0
1, 290190, Note_on_c, 1, 42, 127
1, 290220, Note_off_c, 1, 42, 0
1, 290430, Note_on_c, 1, 48, 127
1, 290460, Note_off_c, 1, 48, 0
1, 291240, Note_on_c, 1, 83, 127
1, 291240, Note_on_c, 1, 50, 127
1, 291299, Note_off_c, 1, 50, 0
1, 291300, Note_on_c, 1, 74, 127
1, 291300, Note_on_c, 1, 55, 127
1, 291329, Note_off_c, 1, 83, 0
1, 291330, Note_on_c, 1, 81, 127
1, 291359, Note_off_c, 1, 55, 0
1, 291359, Note_off_c, 1, 81, 0
1, 291360, Note_on_c, 1, 79, 127
1, 291360, Note_on_c, 1, 59, 127
1, 291389, Note_off_c, 1, 79, 0
1, 291389, Note_off_c, 1, 59, 0
1, 291390, Note_on_c, 1, 78, 127
1, 291390, Note_on_c, 1, 57, 127
1, 291419, Note_off_c, 1, 78, 0
1, 291419, Note_off_c, 1, 57, 0
1, 291480, Note_on_c, 1, 71, 127
1, 291509, Note_off_c, 1, 71, 0
1, 291540, Note_on_c, 1, 47, 127
1, 291570, Note_off_c, 1, 74, 0
1, 291570, Note_on_c, 1, 72, 127
1, 291599, Note_off_c, 1, 47, 0
1, 291600, Note_off_c, 1, 72, 0
1, 291600, Note_on_c, 1, 86, 127
1, 291600, Note_on_c, 1, 43, 127
1, 291629, Note_off_c, 1, 86, 0
1, 291630, Note_on_c, 1, 84, 127
1, 291630, Note_on_c, 1, 69, 127
1, 291659, Note_off_c, 1, 43, 0
1, 291659, Note_off_c, 1, 84, 0
1, 291660, Note_off_c, 1, 69, 0
1, 291720, Note_on_c, 1, 67, 127
1, 291750, Note_off_c, 1, 67, 0
1, 291750, Note_on_c, 1, 66, 127
1, 291780, Note_off_c, 1, 66, 0
1, 291840, Note_on_c, 1, 62, 127
1, 291900, Note_off_c, 1, 62, 0
1, 291900, Note_on_c, 1, 64, 127
1, 291900, Note_on_c, 1, 60, 127
1, 291959, Note_off_c, 1, 60, 0
1, 291990, Note_off_c, 1, 64, 0
1, 292140, Note_on_c, 1, 65, 127
1, 292170, Note_off_c, 1, 65, 0
1, 292800, Note_on_c, 1, 76, 127
1, 292830, Note_off_c, 1, 76, 0
1, 292860, Note_on_c, 1, 54, 127
1, 292919, Note_off_c, 1, 54, 0
1, 293040, Note_on_c, 1, 38, 127
1, 293099, Note_off_c, 1, 38, 0
1, 293190, Note_on_c, 1, 49, 127
1, 293219, Note_off_c, 1, 49, 0
1, 293320, Note_on_c, 1, 73, 127
1, 293339, Note_off_c, 1, 73, 0
1, 293400, Note_on_c, 1, 78, 127
1, 293400, Note_on_c, 1, 57, 127
1, 293429, Note_off_c, 1, 57, 0
1, 293430, Note_on_c, 1, 55, 127
1, 293459, Note_off_c, 1, 55, 0
1, 293489, Note_off_c, 1, 78, 0
1, 293490, Note_on_c, 1, 76, 127
1, 293519, Note_off_c, 1, 76, 0
1, 293520, Note_on_c, 1, 74, 127
1, 293520, Note_on_c, 1, 54, 127
1, 293549, Note_off_c, 1, 74, 0
1, 293550, Note_on_c, 1, 73, 127
1, 293579, Note_off_c, 1, 54, 0
1, 293579, Note_off_c, 1, 73, 0
1, 293580, Note_on_c, 1, 74, 127
1, 293580, Note_on_c, 1, 54, 127
1, 293609, Note_off_c, 1, 74, 0
1, 293610, Note_on_c, 1, 69, 127
1, 293639, Note_off_c, 1, 54, 0
1, 293639, Note_off_c, 1, 69, 0
1, 293640, Note_on_c, 1, 66, 127
1, 293640, Note_on_c, 1, 57, 127
1, 293669, Note_off_c, 1, 66, 0
1, 293670, Note_on_c, 1, 69, 127
1, 293699, Note_off_c, 1, 57, 0
1, 293699, Note_off_c, 1, 69, 0
1, 293700, Note_on_c, 1, 74, 127
1, 293700, Note_on_c, 1, 50, 127
1, 293729, Note_off_c, 1, 74, 0
1, 293730, Note_on_c, 1, 78, 127
1, 293759, Note_off_c, 1, 50, 0
1, 293759, Note_off_c, 1, 78, 0
1, 293760, Note_on_c, 1, 81, 127
1, 293760, Note_on_c, 1, 54, 127
1, 293789, Note_off_c, 1, 81, 0
1, 293789, Note_off_c, 1, 54, 0
1, 293790, Note_on_c, 1, 79, 127
1, 293790, Note_on_c, 1, 52, 127
1, 293819, Note_off_c, 1, 79, 0
1, 293819, Note_off_c, 1, 52, 0
1, 293820, Note_on_c, 1, 81, 127
1, 293820, Note_on_c, 1, 54, 127
1, 293849, Note_off_c, 1, 81, 0
1, 293850, Note_on_c, 1, 79, 127
1, 293879, Note_off_c, 1, 54, 0
1, 293879, Note_off_c, 1, 79, 0
1, 293880, Note_on_c, 1, 78, 127
1, 293880, Note_on_c, 1, 50, 127
1, 293909, Note_off_c, 1, 78, 0
1, 293910, Note_on_c, 1, 76, 127
1, 293939, Note_off_c, 1, 50, 0
1, 293939, Note_off_c, 1, 76, 0
1, 293940, Note_on_c, 1, 78, 127
1, 293940, Note_on_c, 1, 50, 127
1, 293969, Note_off_c, 1, 78, 0
1, 293970, Note_on_c, 1, 74, 127
1, 293999, Note_off_c, 1, 50, 0
1, 293999, Note_off_c, 1, 74, 0
1, 294000, Note_on_c, 1, 69, 127
1, 294000, Note_on_c, 1, 54, 127
1, 294029, Note_off_c, 1, 69, 0
1, 294030, Note_on_c, 1, 74, 127
1, 294059, Note_off_c, 1, 54, 0
1, 294059, Note_off_c, 1, 74, 0
1, 294060, Note_on_c, 1, 78, 127
1, 294060, Note_on_c, 1, 69, 127
1, 294060, Note_on_c, 1, 50, 127
1, 294089, Note_off_c, 1, 78, 0
1, 294090, Note_on_c, 1, 81, 127
1, 294119, Note_off_c, 1, 50, 0
1, 294119, Note_off_c, 1, 81, 0
1, 294120, Note_off_c, 1, 69, 0
1, 294120, Note_on_c, 1, 86, 127
1, 294120, Note_on_c, 1, 66, 127
1, 294120, Note_on_c, 1, 52, 127
1, 294149, Note_off_c, 1, 86, 0
1, 294150, Note_off_c, 1, 66, 0
1, 294150, Note_on_c, 1, 85, 127
1, 294150, Note_on_c, 1, 67, 127
1, 294179, Note_off_c, 1, 52, 0
1, 294179, Note_off_c, 1, 85, 0
1, 294180, Note_off_c, 1, 67, 0
1, 294180, Note_on_c, 1, 54, 127
1, 294239, Note_off_c, 1, 54, 0
1, 294240, Note_on_c, 1, 71, 127
1, 294240, Note_on_c, 1, 55, 127
1, 294270, Note_off_c, 1, 71, 0
1, 294270, Note_on_c, 1, 73, 127
1, 294299, Note_off_c, 1, 55, 0
1, 294300, Note_off_c, 1, 73, 0
1, 294300, Note_on_c, 1, 74, 127
1, 294330, Note_off_c, 1, 74, 0
1, 294480, Note_on_c, 1, 68, 127
1, 294509, Note_off_c, 1, 68, 0
1, 294540, Note_on_c, 1, 76, 127
1, 294540, Note_on_c, 1, 49, 127
1, 294599, Note_off_c, 1, 49, 0
1, 294660, Note_on_c, 1, 83, 127
1, 294689, Note_off_c, 1, 83, 0
1, 294690, Note_on_c, 1, 79, 127
1, 294719, Note_off_c, 1, 79, 0
1, 294780, Note_off_c, 1, 76, 0
1, 294780, Note_on_c, 1, 45, 127
1, 294839, Note_off_c, 1, 45, 0
1, 294840, Note_on_c, 1, 79, 127
1, 294840, Note_on_c, 1, 69, 127
1, 294840, Note_on_c, 1, 49, 127
1, 294869, Note_off_c, 1, 69, 0
1, 294869, Note_off_c, 1, 49, 0
1, 294870, Note_on_c, 1, 68, 127
1, 294870, Note_on_c, 1, 47, 127
1, 294899, Note_off_c, 1, 79, 0
1, 294899, Note_off_c, 1, 68, 0
1, 294899, Note_off_c, 1, 47, 0
1, 294900, Note_on_c, 1, 79, 127
1, 294900, Note_on_c, 1, 69, 127
1, 294900, Note_on_c, 1, 49, 127
1, 294929, Note_off_c, 1, 69, 0
1, 294930, Note_on_c, 1, 71, 127
1, 294959, Note_off_c, 1, 49, 0
1, 294959, Note_off_c, 1, 71, 0
1, 294960, Note_on_c, 1, 73, 127
1, 294960, Note_on_c, 1, 52, 127
1, 294989, Note_off_c, 1, 73, 0
1, 294990, Note_on_c, 1, 74, 127
1, 295019, Note_off_c, 1, 52, 0
1, 295019, Note_off_c, 1, 74, 0
1, 295020, Note_on_c, 1, 76, 127
1, 295049, Note_off_c, 1, 76, 0
1, 295050, Note_on_c, 1, 78, 127
1, 295079, Note_off_c, 1, 78, 0
1, 295080, Note_on_c, 1, 45, 127
1, 295139, Note_off_c, 1, 79, 0
1, 295139, Note_off_c, 1, 45, 0
1, 295140, Note_on_c, 1, 79, 127
1, 295140, Note_on_c, 1, 50, 127
1, 295169, Note_off_c, 1, 79, 0
1, 295170, Note_on_c, 1, 69, 127
1, 295170, Note_on_c, 1, 76, 127
1, 295199, Note_off_c, 1, 50, 0
1, 295199, Note_off_c, 1, 69, 0
1, 295199, Note_off_c, 1, 76, 0
1, 295200, Note_on_c, 1, 68, 127
1, 295200, Note_on_c, 1, 78, 127
1, 295200, Note_on_c, 1, 38, 127
1, 295229, Note_off_c, 1, 68, 0
1, 295230, Note_on_c, 1, 69, 127
1, 295259, Note_off_c, 1, 78, 0
1, 295259, Note_off_c, 1, 38, 0
1, 295259, Note_off_c, 1, 69, 0
1, 295260, Note_on_c, 1, 71, 127
1, 295260, Note_on_c, 1, 78, 127
1, 295260, Note_on_c, 1, 38, 127
1, 295289, Note_off_c, 1, 71, 0
1, 295290, Note_on_c, 1, 69, 127
1, 295319, Note_off_c, 1, 38, 0
1, 295319, Note_off_c, 1, 69, 0
1, 295320, Note_on_c, 1, 68, 127
1, 295320, Note_on_c, 1, 45, 127
1, 295349, Note_off_c, 1, 68, 0
1, 295379, Note_off_c, 1, 45, 0
1, 295380, Note_on_c, 1, 79, 127
1, 295380, Note_on_c, 1, 50, 127
1, 295409, Note_off_c, 1, 79, 0
1, 295410, Note_on_c, 1, 76, 127
1, 295439, Note_off_c, 1, 50, 0
1, 295439, Note_off_c, 1, 76, 0
1, 295440, Note_on_c, 1, 52, 127
1, 295469, Note_off_c, 1, 52, 0
1, 295470, Note_on_c, 1, 54, 127
1, 295499, Note_off_c, 1, 78, 0
1, 295499, Note_off_c, 1, 54, 0
1, 295500, Note_on_c, 1, 78, 127
1, 295500, Note_on_c, 1, 71, 127
1, 295500, Note_on_c, 1, 55, 127
1, 295529, Note_off_c, 1, 78, 0
1, 295530, Note_on_c, 1, 74, 127
1, 295559, Note_off_c, 1, 71, 0
1, 295559, Note_off_c, 1, 55, 0
1, 295559, Note_off_c, 1, 74, 0
1, 295560, Note_on_c, 1, 76, 127
1, 295560, Note_on_c, 1, 71, 127
1, 295560, Note_on_c, 1, 55, 127
1, 295589, Note_off_c, 1, 71, 0
1, 295589, Note_off_c, 1, 55, 0
1, 295590, Note_on_c, 1, 69, 127
1, 295590, Note_on_c, 1, 54, 127
1, 295619, Note_off_c, 1, 76, 0
1, 295619, Note_off_c, 1, 69, 0
1, 295619, Note_off_c, 1, 54, 0
1, 295620, Note_on_c, 1, 76, 127
1, 295620, Note_on_c, 1, 71, 127
1, 295620, Note_on_c, 1, 55, 127
1, 295679, Note_off_c, 1, 71, 0
1, 295679, Note_off_c, 1, 55, 0
1, 295680, Note_on_c, 1, 74, 127
1, 295680, Note_on_c, 1, 54, 127
1, 295739, Note_off_c, 1, 76, 0
1, 295739, Note_off_c, 1, 74, 0
1, 295739, Note_off_c, 1, 54, 0
1, 295740, Note_on_c, 1, 73, 127
1, 295740, Note_on_c, 1, 52, 127
1, 295769, Note_off_c, 1, 73, 0
1, 295770, Note_on_c, 1, 71, 127
1, 295799, Note_off_c, 1, 52, 0
1, 295799, Note_off_c, 1, 71, 0
1, 295800, Note_on_c, 1, 76, 127
1, 295800, Note_on_c, 1, 69, 127
1, 295800, Note_on_c, 1, 55, 127
1, 295829, Note_off_c, 1, 69, 0
1, 295830, Note_on_c, 1, 67, 127
1, 295859, Note_off_c, 1, 76, 0
1, 295859, Note_off_c, 1, 55, 0
1, 295859, Note_off_c, 1, 67, 0
1, 295860, Note_on_c, 1, 76, 127
1, 295860, Note_on_c, 1, 69, 127
1, 295860, Note_on_c, 1, 54, 127
1, 295889, Note_off_c, 1, 76, 0
1, 295890, Note_on_c, 1, 73, 127
1, 295919, Note_off_c, 1, 69, 0
1, 295919, Note_off_c, 1, 54, 0
1, 295919, Note_off_c, 1, 73, 0
1, 295920, Note_on_c, 1, 74, 127
1, 295920, Note_on_c, 1, 54, 127
1, 295949, Note_off_c, 1, 54, 0
1, 295950, Note_on_c, 1, 73, 127
1, 295950, Note_on_c, 1, 52, 127
1, 295979, Note_off_c, 1, 74, 0
1, 295979, Note_off_c, 1, 73, 0
1, 295979, Note_off_c, 1, 52, 0
1, 295980, Note_on_c, 1, 74, 127
1, 295980, Note_on_c, 1, 54, 127
1, 296010, Note_on_c, 1, 78, 127
1, 296039, Note_off_c, 1, 54, 0
1, 296039, Note_off_c, 1, 78, 0
1, 296040, Note_on_c, 1, 52, 127
1, 296070, Note_on_c, 1, 69, 127
1, 296099, Note_off_c, 1, 52, 0
1, 296099, Note_off_c, 1, 69, 0
1, 296100, Note_on_c, 1, 71, 127
1, 296100, Note_on_c, 1, 50, 127
1, 296129, Note_off_c, 1, 71, 0
1, 296130, Note_on_c, 1, 67, 127
1, 296159, Note_off_c, 1, 50, 0
1, 296159, Note_off_c, 1, 67, 0
1, 296219, Note_off_c, 1, 74, 0
1, 296220, Note_on_c, 1, 69, 127
1, 296220, Note_on_c, 1, 76, 127
1, 296220, Note_on_c, 1, 49, 127
1, 296249, Note_off_c, 1, 69, 0
1, 296250, Note_on_c, 1, 66, 127
1, 296279, Note_off_c, 1, 76, 0
1, 296279, Note_off_c, 1, 49, 0
1, 296279, Note_off_c, 1, 66, 0
1, 296280, Note_on_c, 1, 67, 127
1, 296280, Note_on_c, 1, 74, 127
1, 296280, Note_on_c, 1, 45, 127
1, 296309, Note_off_c, 1, 74, 0
1, 296310, Note_on_c, 1, 73, 127
1, 296339, Note_off_c, 1, 67, 0
1, 296339, Note_off_c, 1, 45, 0
1, 296339, Note_off_c, 1, 73, 0
1, 296340, Note_on_c, 1, 67, 127
1, 296340, Note_on_c, 1, 74, 127
1, 296340, Note_on_c, 1, 47, 127
1, 296399, Note_off_c, 1, 74, 0
1, 296399, Note_off_c, 1, 47, 0
1, 296400, Note_on_c, 1, 69, 127
1, 296400, Note_on_c, 1, 49, 127
1, 296459, Note_off_c, 1, 69, 0
1, 296459, Note_off_c, 1, 49, 0
1, 296460, Note_on_c, 1, 50, 127
1, 296490, Note_off_c, 1, 67, 0
1, 296490, Note_on_c, 1, 79, 127
1, 296519, Note_off_c, 1, 50, 0
1, 296519, Note_off_c, 1, 79, 0
1, 296520, Note_on_c, 1, 76, 127
1, 296520, Note_on_c, 1, 67, 127
1, 296520, Note_on_c, 1, 43, 127
1, 296549, Note_off_c, 1, 76, 0
1, 296550, Note_on_c, 1, 73, 127
1, 296579, Note_off_c, 1, 67, 0
1, 296579, Note_off_c, 1, 43, 0
1, 296579, Note_off_c, 1, 73, 0
1, 296580, Note_on_c, 1, 74, 127
1, 296580, Note_on_c, 1, 66, 127
1, 296580, Note_on_c, 1, 45, 127
1, 296609, Note_off_c, 1, 74, 0
1, 296609, Note_off_c, 1, 66, 0
1, 296610, Note_on_c, 1, 71, 127
1, 296610, Note_on_c, 1, 62, 127
1, 296639, Note_off_c, 1, 45, 0
1, 296639, Note_off_c, 1, 71, 0
1, 296639, Note_off_c, 1, 62, 0
1, 296640, Note_on_c, 1, 73, 127
1, 296640, Note_on_c, 1, 64, 127
1, 296640, Note_on_c, 1, 57, 127
1, 296669, Note_off_c, 1, 57, 0
1, 296670, Note_on_c, 1, 55, 127
1, 296699, Note_off_c, 1, 73, 0
1, 296699, Note_off_c, 1, 64, 0
1, 296699, Note_off_c, 1, 55, 0
1, 296700, Note_on_c, 1, 73, 127
1, 296700, Note_on_c, 1, 64, 127
1, 296700, Note_on_c, 1, 57, 127
1, 296759, Note_off_c, 1, 57, 0
1, 296760, Note_on_c, 1, 55, 127
1, 296819, Note_off_c, 1, 64, 0
1, 296819, Note_off_c, 1, 55, 0
1, 296820, Note_on_c, 1, 54, 127
1, 296850, Note_off_c, 1, 73, 0
1, 296850, Note_on_c, 1, 81, 127
1, 296879, Note_off_c, 1, 54, 0
1, 296879, Note_off_c, 1, 81, 0
1, 296880, Note_on_c, 1, 78, 127
1, 296880, Note_on_c, 1, 81, 127
1, 296880, Note_on_c, 1, 50, 127
1, 296909, Note_off_c, 1, 78, 0
1, 296910, Note_on_c, 1, 74, 127
1, 296939, Note_off_c, 1, 81, 0
1, 296939, Note_off_c, 1, 50, 0
1, 296939, Note_off_c, 1, 74, 0
1, 296940, Note_on_c, 1, 76, 127
1, 296940, Note_on_c, 1, 79, 127
1, 296940, Note_on_c, 1, 59, 127
1, 296969, Note_off_c, 1, 76, 0
1, 296970, Note_on_c, 1, 73, 127
1, 296999, Note_off_c, 1, 79, 0
1, 296999, Note_off_c, 1, 59, 0
1, 296999, Note_off_c, 1, 73, 0
1, 297000, Note_on_c, 1, 74, 127
1, 297000, Note_on_c, 1, 78, 127
1, 297000, Note_on_c, 1, 57, 127
1, 297059, Note_off_c, 1, 74, 0
1, 297059, Note_off_c, 1, 78, 0
1, 297059, Note_off_c, 1, 57, 0
1, 297060, Note_on_c, 1, 74, 127
1, 297060, Note_on_c, 1, 76, 127
1, 297060, Note_on_c, 1, 55, 127
1, 297089, Note_off_c, 1, 74, 0
1, 297090, Note_on_c, 1, 79, 127
1, 297119, Note_off_c, 1, 76, 0
1, 297119, Note_off_c, 1, 55, 0
1, 297119, Note_off_c, 1, 79, 0
1, 297120, Note_on_c, 1, 78, 127
1, 297120, Note_on_c, 1, 74, 127
1, 297120, Note_on_c, 1, 59, 127
1, 297179, Note_off_c, 1, 78, 0
1, 297179, Note_off_c, 1, 74, 0
1, 297179, Note_off_c, 1, 59, 0
1, 297180, Note_on_c, 1, 78, 127
1, 297180, Note_on_c, 1, 73, 127
1, 297180, Note_on_c, 1, 57, 127
1, 297209, Note_off_c, 1, 78, 0
1, 297210, Note_on_c, 1, 83, 127
1, 297239, Note_off_c, 1, 73, 0
1, 297239, Note_off_c, 1, 57, 0
1, 297239, Note_off_c, 1, 83, 0
1, 297240, Note_on_c, 1, 81, 127
1, 297240, Note_on_c, 1, 74, 127
1, 297240, Note_on_c, 1, 59, 127
1, 297269, Note_off_c, 1, 74, 0
1, 297269, Note_off_c, 1, 59, 0
1, 297270, Note_on_c, 1, 76, 127
1, 297270, Note_on_c, 1, 61, 127
1, 297299, Note_off_c, 1, 81, 0
1, 297299, Note_off_c, 1, 76, 0
1, 297299, Note_off_c, 1, 61, 0
1, 297300, Note_on_c, 1, 81, 127
1, 297300, Note_on_c, 1, 78, 127
1, 297300, Note_on_c, 1, 62, 127
1, 297359, Note_off_c, 1, 78, 0
1, 297359, Note_off_c, 1, 62, 0
1, 297360, Note_on_c, 1, 76, 127
1, 297360, Note_on_c, 1, 61, 127
1, 297419, Note_off_c, 1, 76, 0
1, 297419, Note_off_c, 1, 61, 0
1, 297420, Note_on_c, 1, 74, 127
1, 297420, Note_on_c, 1, 59, 127
1, 297450, Note_off_c, 1, 81, 0
1, 297450, Note_on_c, 1, 69, 127
1, 297479, Note_off_c, 1, 74, 0
1, 297479, Note_off_c, 1, 59, 0
1, 297479, Note_off_c, 1, 69, 0
1, 297480, Note_on_c, 1, 71, 127
1, 297480, Note_on_c, 1, 73, 127
1, 297480, Note_on_c, 1, 61, 127
1, 297509, Note_off_c, 1, 71, 0
1, 297509, Note_off_c, 1, 61, 0
1, 297510, Note_on_c, 1, 69, 127
1, 297510, Note_on_c, 1, 62, 127
1, 297539, Note_off_c, 1, 73, 0
1, 297539, Note_off_c, 1, 69, 0
1, 297539, Note_off_c, 1, 62, 0
1, 297540, Note_on_c, 1, 79, 127
1, 297540, Note_on_c, 1, 71, 127
1, 297540, Note_on_c, 1, 64, 127
1, 297569, Note_off_c, 1, 79, 0
1, 297570, Note_on_c, 1, 69, 127
1, 297599, Note_off_c, 1, 71, 0
1, 297599, Note_off_c, 1, 64, 0
1, 297599, Note_off_c, 1, 69, 0
1, 297600, Note_on_c, 1, 71, 127
1, 297600, Note_on_c, 1, 73, 127
1, 297600, Note_on_c, 1, 62, 127
1, 297629, Note_off_c, 1, 71, 0
1, 297629, Note_off_c, 1, 73, 0
1, 297630, Note_on_c, 1, 69, 127
1, 297630, Note_on_c, 1, 74, 127
1, 297659, Note_off_c, 1, 62, 0
1, 297659, Note_off_c, 1, 69, 0
1, 297659, Note_off_c, 1, 74, 0
1, 297660, Note_on_c, 1, 79, 127
1, 297660, Note_on_c, 1, 76, 127
1, 297660, Note_on_c, 1, 61, 127
1, 297719, Note_off_c, 1, 79, 0
1, 297719, Note_off_c, 1, 76, 0
1, 297719, Note_off_c, 1, 61, 0
1, 297720, Note_on_c, 1, 78, 127
1, 297720, Note_on_c, 1, 57, 127
1, 297749, Note_off_c, 1, 78, 0
1, 297750, Note_on_c, 1, 79, 127
1, 297779, Note_off_c, 1, 57, 0
1, 297779, Note_off_c, 1, 79, 0
1, 297780, Note_on_c, 1, 79, 127
1, 297780, Note_on_c, 1, 62, 127
1, 297809, Note_off_c, 1, 79, 0
1, 297810, Note_on_c, 1, 78, 127
1, 297839, Note_off_c, 1, 62, 0
1, 297839, Note_off_c, 1, 78, 0
1, 297840, Note_on_c, 1, 76, 127
1, 297840, Note_on_c, 1, 55, 127
1, 297869, Note_off_c, 1, 76, 0
1, 297870, Note_on_c, 1, 74, 127
1, 297899, Note_off_c, 1, 55, 0
1, 297899, Note_off_c, 1, 74, 0
1, 297900, Note_on_c, 1, 78, 127
1, 297900, Note_on_c, 1, 57, 127
1, 297959, Note_off_c, 1, 78, 0
1, 297959, Note_off_c, 1, 57, 0
1, 297960, Note_on_c, 1, 76, 127
1, 297960, Note_on_c, 1, 45, 127
1, 298019, Note_off_c, 1, 76, 0
1, 298019, Note_off_c, 1, 45, 0
1, 298020, Note_on_c, 1, 69, 127
1, 298020, Note_on_c, 1, 74, 127
1, 298020, Note_on_c, 1, 50, 127
1, 298049, Note_off_c, 1, 69, 0
1, 298049, Note_off_c, 1, 74, 0
1, 298050, Note_on_c, 1, 73, 127
1, 298079, Note_off_c, 1, 50, 0
1, 298079, Note_off_c, 1, 73, 0
1, 298080, Note_on_c, 1, 78, 127
1, 298080, Note_on_c, 1, 74, 127
1, 298080, Note_on_c, 1, 38, 127
1, 298139, Note_off_c, 1, 74, 0
1, 298139, Note_off_c, 1, 38, 0
1, 298140, Note_on_c, 1, 62, 127
1, 298140, Note_on_c, 1, 50, 127
1, 298169, Note_off_c, 1, 78, 0
1, 298170, Note_on_c, 1, 76, 127
1, 298199, Note_off_c, 1, 50, 0
1, 298199, Note_off_c, 1, 76, 0
1, 298200, Note_on_c, 1, 79, 127
1, 298200, Note_on_c, 1, 52, 127
1, 298229, Note_off_c, 1, 79, 0
1, 298259, Note_off_c, 1, 52, 0
1, 298260, Note_on_c, 1, 54, 127
1, 298319, Note_off_c, 1, 54, 0
1, 298320, Note_on_c, 1, 73, 127
1, 298349, Note_off_c, 1, 73, 0
1, 298379, Note_off_c, 1, 62, 0
1, 298380, Note_on_c, 1, 83, 127
1, 298380, Note_on_c, 1, 50, 127
1, 298439, Note_off_c, 1, 83, 0
1, 298439, Note_off_c, 1, 50, 0
1, 298440, Note_on_c, 1, 83, 127
1, 298440, Note_on_c, 1, 55, 127
1, 298469, Note_off_c, 1, 83, 0
1, 298469, Note_off_c, 1, 55, 0
1, 298470, Note_on_c, 1, 81, 127
1, 298470, Note_on_c, 1, 54, 127
1, 298499, Note_off_c, 1, 81, 0
1, 298499, Note_off_c, 1, 54, 0
1, 298500, Note_on_c, 1, 83, 127
1, 298500, Note_on_c, 1, 55, 127
1, 298559, Note_off_c, 1, 83, 0
1, 298559, Note_off_c, 1, 55, 0
1, 298560, Note_on_c, 1, 83, 127
1, 298560, Note_on_c, 1, 50, 127
1, 298589, Note_off_c, 1, 83, 0
1, 298590, Note_on_c, 1, 86, 127
1, 298619, Note_off_c, 1, 50, 0
1, 298619, Note_off_c, 1, 86, 0
1, 298620, Note_on_c, 1, 84, 127
1, 298620, Note_on_c, 1, 50, 127
1, 298649, Note_off_c, 1, 84, 0
1, 298650, Note_on_c, 1, 83, 127
1, 298679, Note_off_c, 1, 50, 0
1, 298679, Note_off_c, 1, 83, 0
1, 298680, Note_on_c, 1, 81, 127
1, 298680, Note_on_c, 1, 50, 127
1, 298709, Note_off_c, 1, 81, 0
1, 298710, Note_on_c, 1, 79, 127
1, 298739, Note_off_c, 1, 50, 0
1, 298739, Note_off_c, 1, 79, 0
1, 298740, Note_on_c, 1, 81, 127
1, 298740, Note_on_c, 1, 50, 127
1, 298799, Note_off_c, 1, 81, 0
1, 298799, Note_off_c, 1, 50, 0
1, 298800, Note_on_c, 1, 86, 127
1, 298800, Note_on_c, 1, 54, 127
1, 298829, Note_off_c, 1, 86, 0
1, 298829, Note_off_c, 1, 54, 0
1, 298830, Note_on_c, 1, 85, 127
1, 298830, Note_on_c, 1, 52, 127
1, 298859, Note_off_c, 1, 85, 0
1, 298859, Note_off_c, 1, 52, 0
1, 298860, Note_on_c, 1, 86, 127
1, 298860, Note_on_c, 1, 54, 127
1, 298919, Note_off_c, 1, 86, 0
1, 298919, Note_off_c, 1, 54, 0
1, 298920, Note_on_c, 1, 74, 127
1, 298920, Note_on_c, 1, 47, 127
1, 298979, Note_off_c, 1, 47, 0
1, 299039, Note_off_c, 1, 74, 0
1, 299040, Note_on_c, 1, 76, 127
1, 299040, Note_on_c, 1, 47, 127
1, 299069, Note_off_c, 1, 76, 0
1, 299070, Note_on_c, 1, 78, 127
1, 299099, Note_off_c, 1, 47, 0
1, 299099, Note_off_c, 1, 78, 0
1, 299100, Note_on_c, 1, 79, 127
1, 299100, Note_on_c, 1, 47, 127
1, 299159, Note_off_c, 1, 79, 0
1, 299159, Note_off_c, 1, 47, 0
1, 299160, Note_on_c, 1, 79, 127
1, 299160, Note_on_c, 1, 52, 127
1, 299189, Note_off_c, 1, 79, 0
1, 299189, Note_off_c, 1, 52, 0
1, 299190, Note_on_c, 1, 78, 127
1, 299190, Note_on_c, 1, 50, 127
1, 299219, Note_off_c, 1, 78, 0
1, 299219, Note_off_c, 1, 50, 0
1, 299220, Note_on_c, 1, 79, 127
1, 299220, Note_on_c, 1, 52, 127
1, 299279, Note_off_c, 1, 79, 0
1, 299279, Note_off_c, 1, 52, 0
1, 299280, Note_on_c, 1, 79, 127
1, 299280, Note_on_c, 1, 49, 127
1, 299309, Note_off_c, 1, 79, 0
1, 299310, Note_on_c, 1, 88, 127
1, 299339, Note_off_c, 1, 49, 0
1, 299339, Note_off_c, 1, 88, 0
1, 299340, Note_on_c, 1, 86, 127
1, 299340, Note_on_c, 1, 45, 127
1, 299369, Note_off_c, 1, 86, 0
1, 299370, Note_on_c, 1, 85, 127
1, 299399, Note_off_c, 1, 45, 0
1, 299399, Note_off_c, 1, 85, 0
1, 299400, Note_on_c, 1, 83, 127
1, 299400, Note_on_c, 1, 49, 127
1, 299429, Note_off_c, 1, 83, 0
1, 299430, Note_on_c, 1, 81, 127
1, 299459, Note_off_c, 1, 49, 0
1, 299459, Note_off_c, 1, 81, 0
1, 299460, Note_on_c, 1, 79, 127
1, 299460, Note_on_c, 1, 50, 127
1, 299489, Note_off_c, 1, 79, 0
1, 299490, Note_on_c, 1, 76, 127
1, 299519, Note_off_c, 1, 50, 0
1, 299519, Note_off_c, 1, 76, 0
1, 299520, Note_on_c, 1, 78, 127
1, 299520, Note_on_c, 1, 38, 127
1, 299579, Note_off_c, 1, 78, 0
1, 299579, Note_off_c, 1, 38, 0
1, 299580, Note_on_c, 1, 78, 127
1, 299580, Note_on_c, 1, 50, 127
1, 299639, Note_off_c, 1, 50, 0
1, 299640, Note_on_c, 1, 54, 127
1, 299669, Note_off_c, 1, 54, 0
1, 299670, Note_on_c, 1, 52, 127
1, 299699, Note_off_c, 1, 52, 0
1, 299730, Note_off_c, 1, 78, 0
1, 299730, Note_on_c, 1, 81, 127
1, 299759, Note_off_c, 1, 81, 0
1, 299760, Note_on_c, 1, 78, 127
1, 299760, Note_on_c, 1, 49, 127
1, 299789, Note_off_c, 1, 78, 0
1, 299790, Note_on_c, 1, 74, 127
1, 299819, Note_off_c, 1, 49, 0
1, 299819, Note_off_c, 1, 74, 0
1, 299820, Note_on_c, 1, 76, 127
1, 299820, Note_on_c, 1, 47, 127
1, 299849, Note_off_c, 1, 76, 0
1, 299850, Note_on_c, 1, 73, 127
1, 299879, Note_off_c, 1, 47, 0
1, 299879, Note_off_c, 1, 73, 0
1, 299880, Note_on_c, 1, 74, 127
1, 299880, Note_on_c, 1, 59, 127
1, 299939, Note_off_c, 1, 74, 0
1, 299939, Note_off_c, 1, 59, 0
1, 299940, Note_on_c, 1, 74, 127
1, 299940, Note_on_c, 1, 57, 127
1, 299969, Note_off_c, 1, 74, 0
1, 299970, Note_on_c, 1, 79, 127
1, 299999, Note_off_c, 1, 57, 0
1, 299999, Note_off_c, 1, 79, 0
1, 300000, Note_on_c, 1, 78, 127
1, 300000, Note_on_c, 1, 45, 127
1, 300059, Note_off_c, 1, 78, 0
1, 300059, Note_off_c, 1, 45, 0
1, 300060, Note_on_c, 1, 78, 127
1, 300060, Note_on_c, 1, 43, 127
1, 300089, Note_off_c, 1, 78, 0
1, 300090, Note_on_c, 1, 83, 127
1, 300119, Note_off_c, 1, 43, 0
1, 300119, Note_off_c, 1, 83, 0
1, 300120, Note_on_c, 1, 81, 127
1, 300120, Note_on_c, 1, 55, 127
1, 300179, Note_off_c, 1, 81, 0
1, 300179, Note_off_c, 1, 55, 0
1, 300180, Note_on_c, 1, 81, 127
1, 300180, Note_on_c, 1, 55, 127
1, 300239, Note_off_c, 1, 55, 0
1, 300240, Note_on_c, 1, 49, 127
1, 300269, Note_off_c, 1, 49, 0
1, 300270, Note_on_c, 1, 47, 127
1, 300299, Note_off_c, 1, 47, 0
1, 300330, Note_off_c, 1, 81, 0
1, 300330, Note_on_c, 1, 69, 127
1, 300359, Note_off_c, 1, 69, 0
1, 300360, Note_on_c, 1, 71, 127
1, 300360, Note_on_c, 1, 52, 127
1, 300389, Note_off_c, 1, 71, 0
1, 300390, Note_on_c, 1, 69, 127
1, 300419, Note_off_c, 1, 52, 0
1, 300419, Note_off_c, 1, 69, 0
1, 300420, Note_on_c, 1, 79, 127
1, 300420, Note_on_c, 1, 45, 127
1, 300449, Note_off_c, 1, 79, 0
1, 300450, Note_on_c, 1, 69, 127
1, 300479, Note_off_c, 1, 45, 0
1, 300479, Note_off_c, 1, 69, 0
1, 300480, Note_on_c, 1, 71, 127
1, 300480, Note_on_c, 1, 49, 127
1, 300509, Note_off_c, 1, 71, 0
1, 300510, Note_on_c, 1, 69, 127
1, 300539, Note_off_c, 1, 49, 0
1, 300539, Note_off_c, 1, 69, 0
1, 300540, Note_on_c, 1, 78, 127
1, 300540, Note_on_c, 1, 50, 127
1, 300569, Note_off_c, 1, 78, 0
1, 300570, Note_on_c, 1, 74, 127
1, 300584, Note_off_c, 1, 74, 0
1, 300585, Note_on_c, 1, 76, 127
1, 300599, Note_off_c, 1, 50, 0
1, 300599, Note_off_c, 1, 76, 0
1, 300600, Note_on_c, 1, 78, 127
1, 300600, Note_on_c, 1, 62, 127
1, 300629, Note_off_c, 1, 78, 0
1, 300629, Note_off_c, 1, 62, 0
1, 300630, Note_on_c, 1, 81, 127
1, 300630, Note_on_c, 1, 61, 127
1, 300659, Note_off_c, 1, 81, 0
1, 300659, Note_off_c, 1, 61, 0
1, 300660, Note_on_c, 1, 78, 127
1, 300660, Note_on_c, 1, 62, 127
1, 300689, Note_off_c, 1, 78, 0
1, 300690, Note_on_c, 1, 74, 127
1, 300704, Note_off_c, 1, 74, 0
1, 300705, Note_on_c, 1, 76, 127
1, 300719, Note_off_c, 1, 62, 0
1, 300719, Note_off_c, 1, 76, 0
1, 300720, Note_on_c, 1, 78, 127
1, 300720, Note_on_c, 1, 55, 127
1, 300749, Note_off_c, 1, 78, 0
1, 300750, Note_on_c, 1, 81, 127
1, 300779, Note_off_c, 1, 55, 0
1, 300779, Note_off_c, 1, 81, 0
1, 300780, Note_on_c, 1, 78, 127
1, 300780, Note_on_c, 1, 57, 127
1, 300799, Note_off_c, 1, 78, 0
1, 300800, Note_on_c, 1, 76, 127
1, 300819, Note_off_c, 1, 76, 0
1, 300820, Note_on_c, 1, 74, 127
1, 300839, Note_off_c, 1, 57, 0
1, 300839, Note_off_c, 1, 74, 0
1, 300840, Note_on_c, 1, 76, 127
1, 300840, Note_on_c, 1, 45, 127
1, 300859, Note_off_c, 1, 76, 0
1, 300860, Note_on_c, 1, 74, 127
1, 300879, Note_off_c, 1, 74, 0
1, 300880, Note_on_c, 1, 73, 127
1, 300899, Note_off_c, 1, 45, 0
1, 300899, Note_off_c, 1, 73, 0
1, 300900, Note_on_c, 1, 74, 127
1, 300900, Note_on_c, 1, 50, 127
1, 300959, Note_off_c, 1, 50, 0
1, 300960, Note_on_c, 1, 38, 127
1, 301019, Note_off_c, 1, 74, 0
1, 301019, Note_off_c, 1, 38, 0
1, 301020, Note_on_c, 1, 86, 127
1, 301020, Note_on_c, 1, 38, 127
1, 301079, Note_off_c, 1, 38, 0
1, 301080, Note_on_c, 1, 62, 127
1, 301080, Note_on_c, 1, 50, 127
1, 301109, Note_off_c, 1, 50, 0
1, 301110, Note_on_c, 1, 52, 127
1, 301139, Note_off_c, 1, 62, 0
1, 301139, Note_off_c, 1, 52, 0
1, 301140, Note_on_c, 1, 54, 127
1, 301199, Note_off_c, 1, 54, 0
1, 301200, Note_on_c, 1, 64, 127
1, 301229, Note_off_c, 1, 64, 0
1, 301230, Note_on_c, 1, 66, 127
1, 301259, Note_off_c, 1, 86, 0
1, 301259, Note_off_c, 1, 66, 0
1, 301260, Note_on_c, 1, 67, 127
1, 301260, Note_on_c, 1, 47, 127
1, 301319, Note_off_c, 1, 67, 0
1, 301319, Note_off_c, 1, 47, 0
1, 301320, Note_on_c, 1, 79, 127
1, 301320, Note_on_c, 1, 71, 127
1, 301320, Note_on_c, 1, 43, 127
1, 301349, Note_off_c, 1, 79, 0
1, 301349, Note_off_c, 1, 71, 0
1, 301349, Note_off_c, 1, 43, 0
1, 301350, Note_on_c, 1, 78, 127
1, 301350, Note_on_c, 1, 69, 127
1, 301350, Note_on_c, 1, 45, 127
1, 301379, Note_off_c, 1, 78, 0
1, 301379, Note_off_c, 1, 69, 0
1, 301379, Note_off_c, 1, 45, 0
1, 301380, Note_on_c, 1, 79, 127
1, 301380, Note_on_c, 1, 67, 127
1, 301380, Note_on_c, 1, 47, 127
1, 301439, Note_off_c, 1, 79, 0
1, 301439, Note_off_c, 1, 67, 0
1, 301439, Note_off_c, 1, 47, 0
1, 301440, Note_on_c, 1, 79, 127
1, 301440, Note_on_c, 1, 71, 127
1, 301440, Note_on_c, 1, 50, 127
1, 301469, Note_off_c, 1, 79, 0
1, 301470, Note_on_c, 1, 78, 127
1, 301499, Note_off_c, 1, 71, 0
1, 301499, Note_off_c, 1, 50, 0
1, 301499, Note_off_c, 1, 78, 0
1, 301500, Note_on_c, 1, 79, 127
1, 301500, Note_on_c, 1, 71, 127
1, 301500, Note_on_c, 1, 55, 127
1, 301559, Note_off_c, 1, 79, 0
1, 301559, Note_off_c, 1, 71, 0
1, 301559, Note_off_c, 1, 55, 0
1, 301560, Note_on_c, 1, 72, 127
1, 301560, Note_on_c, 1, 57, 127
1, 301589, Note_off_c, 1, 57, 0
1, 301590, Note_off_c, 1, 72, 0
1, 301590, Note_on_c, 1, 74, 127
1, 301590, Note_on_c, 1, 59, 127
1, 301619, Note_off_c, 1, 59, 0
1, 301620, Note_off_c, 1, 74, 0
1, 301620, Note_on_c, 1, 76, 127
1, 301620, Note_on_c, 1, 60, 127
1, 301679, Note_off_c, 1, 76, 0
1, 301679, Note_off_c, 1, 60, 0
1, 301680, Note_on_c, 1, 76, 127
1, 301680, Note_on_c, 1, 79, 127
1, 301680, Note_on_c, 1, 48, 127
1, 301709, Note_off_c, 1, 76, 0
1, 301710, Note_off_c, 1, 79, 0
1, 301710, Note_on_c, 1, 74, 127
1, 301710, Note_on_c, 1, 78, 127
1, 301739, Note_off_c, 1, 48, 0
1, 301739, Note_off_c, 1, 74, 0
1, 301740, Note_off_c, 1, 78, 0
1, 301800, Note_on_c, 1, 76, 127
1, 301800, Note_on_c, 1, 67, 127
1, 301800, Note_on_c, 1, 60, 127
1, 301829, Note_off_c, 1, 60, 0
1, 301830, Note_on_c, 1, 74, 127
1, 301830, Note_on_c, 1, 62, 127
1, 301859, Note_off_c, 1, 76, 0
1, 301859, Note_off_c, 1, 67, 0
1, 301859, Note_off_c, 1, 74, 0
1, 301859, Note_off_c, 1, 62, 0
1, 301860, Note_on_c, 1, 76, 127
1, 301860, Note_on_c, 1, 67, 127
1, 301860, Note_on_c, 1, 60, 127
1, 301890, Note_on_c, 1, 74, 127
1, 301919, Note_off_c, 1, 76, 0
1, 301919, Note_off_c, 1, 67, 0
1, 301919, Note_off_c, 1, 60, 0
1, 301920, Note_off_c, 1, 74, 0
1, 301920, Note_on_c, 1, 69, 127
1, 301920, Note_on_c, 1, 59, 127
1, 301949, Note_off_c, 1, 69, 0
1, 301950, Note_on_c, 1, 71, 127
1, 301979, Note_off_c, 1, 59, 0
1, 301979, Note_off_c, 1, 71, 0
1, 301980, Note_on_c, 1, 72, 127
1, 301980, Note_on_c, 1, 57, 127
1, 302039, Note_off_c, 1, 72, 0
1, 302039, Note_off_c, 1, 57, 0
1, 302040, Note_on_c, 1, 81, 127
1, 302040, Note_on_c, 1, 72, 127
1, 302040, Note_on_c, 1, 76, 127
1, 302040, Note_on_c, 1, 52, 127
1, 302069, Note_off_c, 1, 81, 0
1, 302069, Note_off_c, 1, 72, 0
1, 302069, Note_off_c, 1, 76, 0
1, 302070, Note_on_c, 1, 80, 127
1, 302070, Note_on_c, 1, 71, 127
1, 302070, Note_on_c, 1, 74, 127
1, 302099, Note_off_c, 1, 52, 0
1, 302099, Note_off_c, 1, 80, 0
1, 302099, Note_off_c, 1, 71, 0
1, 302099, Note_off_c, 1, 74, 0
1, 302100, Note_on_c, 1, 81, 127
1, 302100, Note_on_c, 1, 69, 127
1, 302100, Note_on_c, 1, 72, 127
1, 302100, Note_on_c, 1, 53, 127
1, 302159, Note_off_c, 1, 81, 0
1, 302159, Note_off_c, 1, 69, 0
1, 302159, Note_off_c, 1, 72, 0
1, 302159, Note_off_c, 1, 53, 0
1, 302160, Note_on_c, 1, 81, 127
1, 302160, Note_on_c, 1, 72, 127
1, 302160, Note_on_c, 1, 76, 127
1, 302160, Note_on_c, 1, 48, 127
1, 302189, Note_off_c, 1, 81, 0
1, 302190, Note_on_c, 1, 80, 127
1, 302219, Note_off_c, 1, 72, 0
1, 302219, Note_off_c, 1, 76, 0
1, 302219, Note_off_c, 1, 48, 0
1, 302219, Note_off_c, 1, 80, 0
1, 302220, Note_on_c, 1, 81, 127
1, 302220, Note_on_c, 1, 72, 127
1, 302220, Note_on_c, 1, 76, 127
1, 302220, Note_on_c, 1, 50, 127
1, 302249, Note_off_c, 1, 72, 0
1, 302249, Note_off_c, 1, 76, 0
1, 302250, Note_on_c, 1, 71, 127
1, 302250, Note_on_c, 1, 74, 127
1, 302279, Note_off_c, 1, 81, 0
1, 302279, Note_off_c, 1, 50, 0
1, 302279, Note_off_c, 1, 71, 0
1, 302279, Note_off_c, 1, 74, 0
1, 302280, Note_on_c, 1, 69, 127
1, 302280, Note_on_c, 1, 72, 127
1, 302280, Note_on_c, 1, 52, 127
1, 302309, Note_off_c, 1, 69, 0
1, 302309, Note_off_c, 1, 72, 0
1, 302310, Note_on_c, 1, 68, 127
1, 302310, Note_on_c, 1, 71, 127
1, 302339, Note_off_c, 1, 52, 0
1, 302339, Note_off_c, 1, 68, 0
1, 302339, Note_off_c, 1, 71, 0
1, 302340, Note_on_c, 1, 69, 127
1, 302340, Note_on_c, 1, 72, 127
1, 302340, Note_on_c, 1, 45, 127
1, 302399, Note_off_c, 1, 69, 0
1, 302399, Note_off_c, 1, 72, 0
1, 302399, Note_off_c, 1, 45, 0
1, 302400, Note_on_c, 1, 71, 127
1, 302400, Note_on_c, 1, 74, 127
1, 302400, Note_on_c, 1, 57, 127
1, 302429, Note_off_c, 1, 71, 0
1, 302429, Note_off_c, 1, 74, 0
1, 302430, Note_on_c, 1, 68, 127
1, 302459, Note_off_c, 1, 57, 0
1, 302459, Note_off_c, 1, 68, 0
1, 302460, Note_on_c, 1, 81, 127
1, 302460, Note_on_c, 1, 69, 127
1, 302460, Note_on_c, 1, 72, 127
1, 302460, Note_on_c, 1, 57, 127
1, 302519, Note_off_c, 1, 69, 0
1, 302519, Note_off_c, 1, 72, 0
1, 302519, Note_off_c, 1, 57, 0
1, 302520, Note_on_c, 1, 76, 127
1, 302520, Note_on_c, 1, 45, 127
1, 302549, Note_off_c, 1, 45, 0
1, 302550, Note_on_c, 1, 44, 127
1, 302579, Note_off_c, 1, 76, 0
1, 302579, Note_off_c, 1, 44, 0
1, 302580, Note_on_c, 1, 74, 127
1, 302580, Note_on_c, 1, 77, 127
1, 302609, Note_off_c, 1, 74, 0
1, 302609, Note_off_c, 1, 77, 0
1, 302640, Note_on_c, 1, 71, 127
1, 302669, Note_off_c, 1, 71, 0
1, 303030, Note_on_c, 1, 68, 127
1, 303059, Note_off_c, 1, 68, 0
1, 303150, Note_on_c, 1, 56, 127
1, 303179, Note_off_c, 1, 56, 0
1, 303300, Note_off_c, 1, 81, 0
1, 303300, Note_on_c, 1, 78, 127
1, 303300, Note_on_c, 1, 50, 127
1, 303359, Note_off_c, 1, 78, 0
1, 303359, Note_off_c, 1, 50, 0
1, 303360, Note_on_c, 1, 72, 127
1, 303360, Note_on_c, 1, 81, 127
1, 303360, Note_on_c, 1, 38, 127
1, 303389, Note_off_c, 1, 72, 0
1, 303389, Note_off_c, 1, 81, 0
1, 303390, Note_on_c, 1, 69, 127
1, 303390, Note_on_c, 1, 78, 127
1, 303419, Note_off_c, 1, 38, 0
1, 303419, Note_off_c, 1, 69, 0
1, 303419, Note_off_c, 1, 78, 0
1, 303420, Note_on_c, 1, 71, 127
1, 303420, Note_on_c, 1, 79, 127
1, 303420, Note_on_c, 1, 43, 127
1, 303479, Note_off_c, 1, 71, 0
1, 303479, Note_off_c, 1, 79, 0
1, 303479, Note_off_c, 1, 43, 0
1, 303480, Note_on_c, 1, 67, 127
1, 303480, Note_on_c, 1, 76, 127
1, 303480, Note_on_c, 1, 55, 127
1, 303509, Note_off_c, 1, 67, 0
1, 303509, Note_off_c, 1, 76, 0
1, 303509, Note_off_c, 1, 55, 0
1, 303510, Note_on_c, 1, 69, 127
1, 303510, Note_on_c, 1, 78, 127
1, 303510, Note_on_c, 1, 54, 127
1, 303539, Note_off_c, 1, 69, 0
1, 303539, Note_off_c, 1, 78, 0
1, 303539, Note_off_c, 1, 54, 0
1, 303540, Note_on_c, 1, 71, 127
1, 303540, Note_on_c, 1, 79, 127
1, 303540, Note_on_c, 1, 52, 127
1, 303599, Note_off_c, 1, 71, 0
1, 303599, Note_off_c, 1, 79, 0
1, 303599, Note_off_c, 1, 52, 0
1, 303600, Note_on_c, 1, 64, 127
1, 303600, Note_on_c, 1, 67, 127
1, 303600, Note_on_c, 1, 60, 127
1, 303659, Note_off_c, 1, 64, 0
1, 303659, Note_off_c, 1, 67, 0
1, 303659, Note_off_c, 1, 60, 0
1, 303660, Note_on_c, 1, 69, 127
1, 303660, Note_on_c, 1, 72, 127
1, 303660, Note_on_c, 1, 54, 127
1, 303689, Note_off_c, 1, 69, 0
1, 303689, Note_off_c, 1, 72, 0
1, 303690, Note_on_c, 1, 67, 127
1, 303690, Note_on_c, 1, 71, 127
1, 303719, Note_off_c, 1, 54, 0
1, 303719, Note_off_c, 1, 67, 0
1, 303719, Note_off_c, 1, 71, 0
1, 303720, Note_on_c, 1, 66, 127
1, 303720, Note_on_c, 1, 69, 127
1, 303720, Note_on_c, 1, 57, 127
1, 303749, Note_off_c, 1, 66, 0
1, 303749, Note_off_c, 1, 69, 0
1, 303750, Note_on_c, 1, 64, 127
1, 303750, Note_on_c, 1, 67, 127
1, 303779, Note_off_c, 1, 57, 0
1, 303779, Note_off_c, 1, 64, 0
1, 303779, Note_off_c, 1, 67, 0
1, 303780, Note_on_c, 1, 63, 127
1, 303780, Note_on_c, 1, 66, 127
1, 303780, Note_on_c, 1, 59, 127
1, 303839, Note_off_c, 1, 59, 0
1, 303840, Note_off_c, 1, 63, 0
1, 303840, Note_off_c, 1, 66, 0
1, 303840, Note_on_c, 1, 64, 127
1, 303840, Note_on_c, 1, 67, 127
1, 303840, Note_on_c, 1, 47, 127
1, 303870, Note_off_c, 1, 67, 0
1, 303870, Note_on_c, 1, 61, 127
1, 303899, Note_off_c, 1, 47, 0
1, 303900, Note_off_c, 1, 64, 0
1, 303900, Note_off_c, 1, 61, 0
1, 303960, Note_on_c, 1, 78, 127
1, 303960, Note_on_c, 1, 71, 127
1, 303990, Note_on_c, 1, 57, 127
1, 304019, Note_off_c, 1, 78, 0
1, 304019, Note_off_c, 1, 57, 0
1, 304020, Note_on_c, 1, 83, 127
1, 304049, Note_off_c, 1, 71, 0
1, 304049, Note_off_c, 1, 83, 0
1, 304050, Note_on_c, 1, 79, 127
1, 304050, Note_on_c, 1, 72, 127
1, 304079, Note_off_c, 1, 79, 0
1, 304079, Note_off_c, 1, 72, 0
1, 304080, Note_on_c, 1, 81, 127
1, 304080, Note_on_c, 1, 63, 127
1, 304080, Note_on_c, 1, 71, 127
1, 304080, Note_on_c, 1, 54, 127
1, 304109, Note_off_c, 1, 71, 0
1, 304110, Note_on_c, 1, 72, 127
1, 304139, Note_off_c, 1, 81, 0
1, 304139, Note_off_c, 1, 54, 0
1, 304139, Note_off_c, 1, 72, 0
1, 304140, Note_off_c, 1, 63, 0
1, 304140, Note_on_c, 1, 64, 127
1, 304140, Note_on_c, 1, 55, 127
1, 304170, Note_on_c, 1, 78, 127
1, 304170, Note_on_c, 1, 76, 127
1, 304199, Note_off_c, 1, 55, 0
1, 304199, Note_off_c, 1, 78, 0
1, 304199, Note_off_c, 1, 76, 0
1, 304200, Note_off_c, 1, 64, 0
1, 304200, Note_on_c, 1, 79, 127
1, 304200, Note_on_c, 1, 75, 127
1, 304200, Note_on_c, 1, 47, 127
1, 304229, Note_off_c, 1, 75, 0
1, 304230, Note_on_c, 1, 69, 127
1, 304259, Note_off_c, 1, 79, 0
1, 304259, Note_off_c, 1, 47, 0
1, 304260, Note_off_c, 1, 69, 0
1, 304380, Note_on_c, 1, 66, 127
1, 304410, Note_off_c, 1, 66, 0
1, 304410, Note_on_c, 1, 67, 127
1, 304439, Note_off_c, 1, 67, 0
1, 304440, Note_on_c, 1, 52, 127
1, 304499, Note_off_c, 1, 52, 0
1, 304500, Note_on_c, 1, 51, 127
1, 304559, Note_off_c, 1, 51, 0
1, 304560, Note_on_c, 1, 45, 127
1, 304619, Note_off_c, 1, 45, 0
1, 304710, Note_on_c, 1, 49, 127
1, 304739, Note_off_c, 1, 49, 0
1, 304980, Note_on_c, 1, 48, 127
1, 305039, Note_off_c, 1, 48, 0
1, 305040, Note_on_c, 1, 43, 127
1, 305099, Note_off_c, 1, 43, 0
1, 305220, Note_on_c, 1, 40, 127
1, 305279, Note_off_c, 1, 40, 0
1, 305280, Note_on_c, 1, 83, 127
1, 305309, Note_off_c, 1, 83, 0
1, 305400, Note_on_c, 1, 59, 127
1, 305429, Note_off_c, 1, 59, 0
1, 305430, Note_on_c, 1, 57, 127
1, 305459, Note_off_c, 1, 57, 0
1, 305640, Note_on_c, 1, 72, 127
1, 305640, Note_on_c, 1, 57, 127
1, 305669, Note_off_c, 1, 72, 0
1, 305669, Note_off_c, 1, 57, 0
1, 305670, Note_on_c, 1, 71, 127
1, 305670, Note_on_c, 1, 56, 127
1, 305699, Note_off_c, 1, 71, 0
1, 305699, Note_off_c, 1, 56, 0
1, 305700, Note_on_c, 1, 72, 127
1, 305700, Note_on_c, 1, 57, 127
1, 305759, Note_off_c, 1, 72, 0
1, 305759, Note_off_c, 1, 57, 0
1, 305760, Note_on_c, 1, 72, 127
1, 305760, Note_on_c, 1, 52, 127
1, 305789, Note_off_c, 1, 72, 0
1, 305790, Note_on_c, 1, 76, 127
1, 305819, Note_off_c, 1, 52, 0
1, 305819, Note_off_c, 1, 76, 0
1, 305820, Note_on_c, 1, 74, 127
1, 305820, Note_on_c, 1, 52, 127
1, 305849, Note_off_c, 1, 74, 0
1, 305850, Note_on_c, 1, 72, 127
1, 305879, Note_off_c, 1, 52, 0
1, 305879, Note_off_c, 1, 72, 0
1, 305880, Note_on_c, 1, 71, 127
1, 305880, Note_on_c, 1, 52, 127
1, 305909, Note_off_c, 1, 71, 0
1, 305910, Note_on_c, 1, 69, 127
1, 305939, Note_off_c, 1, 52, 0
1, 305939, Note_off_c, 1, 69, 0
1, 305940, Note_on_c, 1, 71, 127
1, 305940, Note_on_c, 1, 52, 127
1, 305999, Note_off_c, 1, 71, 0
1, 305999, Note_off_c, 1, 52, 0
1, 306000, Note_on_c, 1, 76, 127
1, 306000, Note_on_c, 1, 55, 127
1, 306029, Note_off_c, 1, 76, 0
1, 306029, Note_off_c, 1, 55, 0
1, 306030, Note_on_c, 1, 75, 127
1, 306030, Note_on_c, 1, 54, 127
1, 306059, Note_off_c, 1, 75, 0
1, 306059, Note_off_c, 1, 54, 0
1, 306060, Note_on_c, 1, 76, 127
1, 306060, Note_on_c, 1, 55, 127
1, 306119, Note_off_c, 1, 76, 0
1, 306119, Note_off_c, 1, 55, 0
1, 306120, Note_on_c, 1, 64, 127
1, 306120, Note_on_c, 1, 52, 127
1, 306179, Note_off_c, 1, 52, 0
1, 306239, Note_off_c, 1, 64, 0
1, 306240, Note_on_c, 1, 66, 127
1, 306240, Note_on_c, 1, 52, 127
1, 306269, Note_off_c, 1, 66, 0
1, 306270, Note_on_c, 1, 67, 127
1, 306299, Note_off_c, 1, 52, 0
1, 306299, Note_off_c, 1, 67, 0
1, 306300, Note_on_c, 1, 69, 127
1, 306300, Note_on_c, 1, 52, 127
1, 306359, Note_off_c, 1, 69, 0
1, 306359, Note_off_c, 1, 52, 0
1, 306360, Note_on_c, 1, 69, 127
1, 306360, Note_on_c, 1, 54, 127
1, 306389, Note_off_c, 1, 69, 0
1, 306389, Note_off_c, 1, 54, 0
1, 306390, Note_on_c, 1, 67, 127
1, 306390, Note_on_c, 1, 52, 127
1, 306419, Note_off_c, 1, 67, 0
1, 306419, Note_off_c, 1, 52, 0
1, 306420, Note_on_c, 1, 69, 127
1, 306420, Note_on_c, 1, 54, 127
1, 306479, Note_off_c, 1, 69, 0
1, 306479, Note_off_c, 1, 54, 0
1, 306480, Note_on_c, 1, 69, 127
1, 306480, Note_on_c, 1, 51, 127
1, 306509, Note_off_c, 1, 69, 0
1, 306510, Note_on_c, 1, 78, 127
1, 306539, Note_off_c, 1, 51, 0
1, 306539, Note_off_c, 1, 78, 0
1, 306540, Note_on_c, 1, 76, 127
1, 306540, Note_on_c, 1, 47, 127
1, 306569, Note_off_c, 1, 76, 0
1, 306570, Note_on_c, 1, 75, 127
1, 306599, Note_off_c, 1, 47, 0
1, 306599, Note_off_c, 1, 75, 0
1, 306600, Note_on_c, 1, 73, 127
1, 306600, Note_on_c, 1, 51, 127
1, 306629, Note_off_c, 1, 73, 0
1, 306630, Note_on_c, 1, 71, 127
1, 306659, Note_off_c, 1, 51, 0
1, 306659, Note_off_c, 1, 71, 0
1, 306660, Note_on_c, 1, 81, 127
1, 306660, Note_on_c, 1, 52, 127
1, 306689, Note_off_c, 1, 81, 0
1, 306690, Note_on_c, 1, 78, 127
1, 306719, Note_off_c, 1, 52, 0
1, 306719, Note_off_c, 1, 78, 0
1, 306720, Note_on_c, 1, 79, 127
1, 306720, Note_on_c, 1, 40, 127
1, 306779, Note_off_c, 1, 79, 0
1, 306779, Note_off_c, 1, 40, 0
1, 306780, Note_on_c, 1, 80, 127
1, 306780, Note_on_c, 1, 38, 127
1, 306809, Note_off_c, 1, 80, 0
1, 306810, Note_on_c, 1, 83, 127
1, 306839, Note_off_c, 1, 38, 0
1, 306839, Note_off_c, 1, 83, 0
1, 306840, Note_on_c, 1, 81, 127
1, 306840, Note_on_c, 1, 50, 127
1, 306899, Note_off_c, 1, 81, 0
1, 306899, Note_off_c, 1, 50, 0
1, 306900, Note_on_c, 1, 81, 127
1, 306900, Note_on_c, 1, 48, 127
1, 306929, Note_off_c, 1, 81, 0
1, 306930, Note_on_c, 1, 84, 127
1, 306959, Note_off_c, 1, 48, 0
1, 306959, Note_off_c, 1, 84, 0
1, 306960, Note_on_c, 1, 83, 127
1, 306960, Note_on_c, 1, 45, 127
1, 307019, Note_off_c, 1, 83, 0
1, 307019, Note_off_c, 1, 45, 0
1, 307020, Note_on_c, 1, 83, 127
1, 307020, Note_on_c, 1, 57, 127
1, 307079, Note_off_c, 1, 57, 0
1, 307080, Note_on_c, 1, 55, 127
1, 307109, Note_off_c, 1, 55, 0
1, 307110, Note_on_c, 1, 54, 127
1, 307139, Note_off_c, 1, 54, 0
1, 307170, Note_off_c, 1, 83, 0
1, 307170, Note_on_c, 1, 79, 127
1, 307184, Note_off_c, 1, 79, 0
1, 307185, Note_on_c, 1, 81, 127
1, 307199, Note_off_c, 1, 81, 0
1, 307200, Note_on_c, 1, 83, 127
1, 307200, Note_on_c, 1, 52, 127
1, 307229, Note_off_c, 1, 83, 0
1, 307230, Note_on_c, 1, 88, 127
1, 307259, Note_off_c, 1, 52, 0
1, 307259, Note_off_c, 1, 88, 0
1, 307260, Note_on_c, 1, 79, 127
1, 307260, Note_on_c, 1, 59, 127
1, 307279, Note_off_c, 1, 79, 0
1, 307280, Note_on_c, 1, 78, 127
1, 307299, Note_off_c, 1, 78, 0
1, 307300, Note_on_c, 1, 76, 127
1, 307319, Note_off_c, 1, 59, 0
1, 307319, Note_off_c, 1, 76, 0
1, 307320, Note_on_c, 1, 78, 127
1, 307320, Note_on_c, 1, 47, 127
1, 307339, Note_off_c, 1, 78, 0
1, 307340, Note_on_c, 1, 76, 127
1, 307359, Note_off_c, 1, 76, 0
1, 307360, Note_on_c, 1, 75, 127
1, 307379, Note_off_c, 1, 47, 0
1, 307379, Note_off_c, 1, 75, 0
1, 307380, Note_on_c, 1, 76, 127
1, 307380, Note_on_c, 1, 52, 127
1, 307439, Note_off_c, 1, 52, 0
1, 307440, Note_on_c, 1, 40, 127
1, 307499, Note_off_c, 1, 76, 0
1, 307499, Note_off_c, 1, 40, 0
1, 307500, Note_on_c, 1, 64, 127
1, 307500, Note_on_c, 1, 40, 127
1, 307559, Note_off_c, 1, 40, 0
1, 307560, Note_on_c, 1, 71, 127
1, 307560, Note_on_c, 1, 52, 127
1, 307589, Note_off_c, 1, 52, 0
1, 307590, Note_on_c, 1, 54, 127
1, 307619, Note_off_c, 1, 54, 0
1, 307620, Note_off_c, 1, 71, 0
1, 307620, Note_on_c, 1, 76, 127
1, 307620, Note_on_c, 1, 55, 127
1, 307679, Note_off_c, 1, 55, 0
1, 307680, Note_off_c, 1, 76, 0
1, 307680, Note_on_c, 1, 78, 127
1, 307710, Note_off_c, 1, 78, 0
1, 307710, Note_on_c, 1, 79, 127
1, 307739, Note_off_c, 1, 64, 0
1, 307740, Note_on_c, 1, 57, 127
1, 307799, Note_off_c, 1, 57, 0
1, 307800, Note_off_c, 1, 79, 0
1, 307800, Note_on_c, 1, 72, 127
1, 307800, Note_on_c, 1, 45, 127
1, 307830, Note_off_c, 1, 72, 0
1, 307830, Note_on_c, 1, 74, 127
1, 307859, Note_off_c, 1, 45, 0
1, 307859, Note_off_c, 1, 74, 0
1, 307950, Note_on_c, 1, 59, 127
1, 307979, Note_off_c, 1, 59, 0
1, 307980, Note_on_c, 1, 69, 127
1, 307980, Note_on_c, 1, 60, 127
1, 308039, Note_off_c, 1, 60, 0
1, 308040, Note_off_c, 1, 69, 0
1, 308100, Note_on_c, 1, 62, 127
1, 308159, Note_off_c, 1, 62, 0
1, 308160, Note_on_c, 1, 66, 127
1, 308160, Note_on_c, 1, 50, 127
1, 308190, Note_off_c, 1, 66, 0
1, 308219, Note_off_c, 1, 50, 0
1, 308220, Note_on_c, 1, 48, 127
1, 308279, Note_off_c, 1, 48, 0
1, 308460, Note_on_c, 1, 43, 127
1, 308519, Note_off_c, 1, 43, 0
1, 308580, Note_on_c, 1, 67, 127
1, 308640, Note_off_c, 1, 67, 0
1, 308700, Note_on_c, 1, 42, 127
1, 308759, Note_off_c, 1, 42, 0
1, 308880, Note_on_c, 1, 38, 127
1, 308939, Note_off_c, 1, 38, 0
1, 308940, Note_on_c, 1, 86, 127
1, 309180, Note_on_c, 1, 47, 127
1, 309239, Note_off_c, 1, 47, 0
1, 309840, Note_off_c, 1, 86, 0
1, 310500, Note_on_c, 1, 84, 127
1, 310529, Note_off_c, 1, 84, 0
1, 310530, Note_on_c, 1, 81, 127
1, 310559, Note_off_c, 1, 81, 0
1, 310560, Note_on_c, 1, 83, 127
1, 310560, Note_on_c, 1, 62, 127
1, 310560, Note_on_c, 1, 79, 127
1, 310560, Note_on_c, 1, 43, 127
1, 310589, Note_off_c, 1, 62, 0
1, 310590, Note_on_c, 1, 64, 127
1, 310619, Note_off_c, 1, 83, 0
1, 310619, Note_off_c, 1, 79, 0
1, 310619, Note_off_c, 1, 43, 0
1, 310619, Note_off_c, 1, 64, 0
1, 310620, Note_on_c, 1, 83, 127
1, 310620, Note_on_c, 1, 62, 127
1, 310620, Note_on_c, 1, 78, 127
1, 310620, Note_on_c, 1, 50, 127
1, 310649, Note_off_c, 1, 83, 0
1, 310649, Note_off_c, 1, 62, 0
1, 310650, Note_on_c, 1, 79, 127
1, 310650, Note_on_c, 1, 67, 127
1, 310679, Note_off_c, 1, 78, 0
1, 310679, Note_off_c, 1, 50, 0
1, 310679, Note_off_c, 1, 79, 0
1, 310679, Note_off_c, 1, 67, 0
1, 310680, Note_on_c, 1, 81, 127
1, 310680, Note_on_c, 1, 66, 127
1, 310680, Note_on_c, 1, 38, 127
1, 310709, Note_off_c, 1, 66, 0
1, 310710, Note_on_c, 1, 64, 127
1, 310710, Note_on_c, 1, 79, 127
1, 310739, Note_off_c, 1, 81, 0
1, 310739, Note_off_c, 1, 38, 0
1, 310739, Note_off_c, 1, 64, 0
1, 310739, Note_off_c, 1, 79, 0
1, 310740, Note_on_c, 1, 81, 127
1, 310740, Note_on_c, 1, 62, 127
1, 310740, Note_on_c, 1, 38, 127
1, 310769, Note_off_c, 1, 62, 0
1, 310770, Note_on_c, 1, 64, 127
1, 310799, Note_off_c, 1, 81, 0
1, 310799, Note_off_c, 1, 38, 0
1, 310799, Note_off_c, 1, 64, 0
1, 310800, Note_on_c, 1, 74, 127
1, 310800, Note_on_c, 1, 62, 127
1, 310800, Note_on_c, 1, 76, 127
1, 310800, Note_on_c, 1, 54, 127
1, 310829, Note_off_c, 1, 62, 0
1, 310829, Note_off_c, 1, 54, 0
1, 310830, Note_on_c, 1, 64, 127
1, 310830, Note_on_c, 1, 52, 127
1, 310859, Note_off_c, 1, 74, 0
1, 310859, Note_off_c, 1, 76, 0
1, 310859, Note_off_c, 1, 64, 0
1, 310859, Note_off_c, 1, 52, 0
1, 310860, Note_on_c, 1, 83, 127
1, 310860, Note_on_c, 1, 62, 127
1, 310860, Note_on_c, 1, 78, 127
1, 310860, Note_on_c, 1, 54, 127
1, 310889, Note_off_c, 1, 83, 0
1, 310889, Note_off_c, 1, 62, 0
1, 310889, Note_off_c, 1, 78, 0
1, 310890, Note_on_c, 1, 79, 127
1, 310890, Note_on_c, 1, 64, 127
1, 310890, Note_on_c, 1, 76, 127
1, 310919, Note_off_c, 1, 54, 0
1, 310919, Note_off_c, 1, 79, 0
1, 310919, Note_off_c, 1, 64, 0
1, 310919, Note_off_c, 1, 76, 0
1, 310920, Note_on_c, 1, 81, 127
1, 310920, Note_on_c, 1, 62, 127
1, 310920, Note_on_c, 1, 74, 127
1, 310920, Note_on_c, 1, 50, 127
1, 310949, Note_off_c, 1, 62, 0
1, 310949, Note_off_c, 1, 74, 0
1, 310950, Note_on_c, 1, 64, 127
1, 310950, Note_on_c, 1, 72, 127
1, 310979, Note_off_c, 1, 81, 0
1, 310979, Note_off_c, 1, 50, 0
1, 310979, Note_off_c, 1, 64, 0
1, 310979, Note_off_c, 1, 72, 0
1, 310980, Note_on_c, 1, 81, 127
1, 310980, Note_on_c, 1, 62, 127
1, 310980, Note_on_c, 1, 74, 127
1, 310980, Note_on_c, 1, 55, 127
1, 311009, Note_off_c, 1, 81, 0
1, 311009, Note_off_c, 1, 62, 0
1, 311010, Note_on_c, 1, 78, 127
1, 311010, Note_on_c, 1, 67, 127
1, 311039, Note_off_c, 1, 74, 0
1, 311039, Note_off_c, 1, 55, 0
1, 311039, Note_off_c, 1, 78, 0
1, 311039, Note_off_c, 1, 67, 0
1, 311040, Note_on_c, 1, 79, 127
1, 311040, Note_on_c, 1, 66, 127
1, 311040, Note_on_c, 1, 74, 127
1, 311040, Note_on_c, 1, 43, 127
1, 311069, Note_off_c, 1, 66, 0
1, 311069, Note_off_c, 1, 74, 0
1, 311070, Note_on_c, 1, 64, 127
1, 311070, Note_on_c, 1, 72, 127
1, 311099, Note_off_c, 1, 79, 0
1, 311099, Note_off_c, 1, 43, 0
1, 311099, Note_off_c, 1, 64, 0
1, 311099, Note_off_c, 1, 72, 0
1, 311100, Note_on_c, 1, 79, 127
1, 311100, Note_on_c, 1, 62, 127
1, 311100, Note_on_c, 1, 74, 127
1, 311100, Note_on_c, 1, 43, 127
1, 311129, Note_off_c, 1, 62, 0
1, 311130, Note_on_c, 1, 64, 127
1, 311159, Note_off_c, 1, 79, 0
1, 311159, Note_off_c, 1, 74, 0
1, 311159, Note_off_c, 1, 43, 0
1, 311159, Note_off_c, 1, 64, 0
1, 311160, Note_on_c, 1, 66, 127
1, 311160, Note_on_c, 1, 67, 127
1, 311160, Note_on_c, 1, 45, 127
1, 311189, Note_off_c, 1, 66, 0
1, 311189, Note_off_c, 1, 45, 0
1, 311190, Note_on_c, 1, 47, 127
1, 311219, Note_off_c, 1, 67, 0
1, 311219, Note_off_c, 1, 47, 0
1, 311220, Note_on_c, 1, 69, 127
1, 311220, Note_on_c, 1, 64, 127
1, 311220, Note_on_c, 1, 48, 127
1, 311249, Note_off_c, 1, 69, 0
1, 311250, Note_on_c, 1, 71, 127
1, 311279, Note_off_c, 1, 64, 0
1, 311279, Note_off_c, 1, 48, 0
1, 311279, Note_off_c, 1, 71, 0
1, 311280, Note_on_c, 1, 72, 127
1, 311280, Note_on_c, 1, 66, 127
1, 311280, Note_on_c, 1, 45, 127
1, 311309, Note_off_c, 1, 72, 0
1, 311309, Note_off_c, 1, 66, 0
1, 311310, Note_on_c, 1, 69, 127
1, 311310, Note_on_c, 1, 67, 127
1, 311339, Note_off_c, 1, 45, 0
1, 311339, Note_off_c, 1, 69, 0
1, 311339, Note_off_c, 1, 67, 0
1, 311340, Note_on_c, 1, 74, 127
1, 311340, Note_on_c, 1, 69, 127
1, 311340, Note_on_c, 1, 42, 127
1, 311399, Note_off_c, 1, 74, 0
1, 311399, Note_off_c, 1, 69, 0
1, 311399, Note_off_c, 1, 42, 0
1, 311400, Note_on_c, 1, 71, 127
1, 311400, Note_on_c, 1, 67, 127
1, 311400, Note_on_c, 1, 43, 127
1, 311429, Note_off_c, 1, 71, 0
1, 311429, Note_off_c, 1, 67, 0
1, 311429, Note_off_c, 1, 43, 0
1, 311430, Note_on_c, 1, 69, 127
1, 311430, Note_on_c, 1, 42, 127
1, 311459, Note_off_c, 1, 69, 0
1, 311459, Note_off_c, 1, 42, 0
1, 311460, Note_on_c, 1, 67, 127
1, 311460, Note_on_c, 1, 71, 127
1, 311460, Note_on_c, 1, 40, 127
1, 311489, Note_off_c, 1, 71, 0
1, 311490, Note_on_c, 1, 72, 127
1, 311519, Note_off_c, 1, 67, 0
1, 311519, Note_off_c, 1, 40, 0
1, 311519, Note_off_c, 1, 72, 0
1, 311520, Note_on_c, 1, 71, 127
1, 311520, Note_on_c, 1, 74, 127
1, 311520, Note_on_c, 1, 47, 127
1, 311579, Note_off_c, 1, 71, 0
1, 311579, Note_off_c, 1, 74, 0
1, 311579, Note_off_c, 1, 47, 0
1, 311580, Note_on_c, 1, 71, 127
1, 311580, Note_on_c, 1, 74, 127
1, 311580, Note_on_c, 1, 48, 127
1, 311609, Note_off_c, 1, 71, 0
1, 311609, Note_off_c, 1, 74, 0
1, 311610, Note_on_c, 1, 69, 127
1, 311610, Note_on_c, 1, 72, 127
1, 311639, Note_off_c, 1, 48, 0
1, 311639, Note_off_c, 1, 69, 0
1, 311639, Note_off_c, 1, 72, 0
1, 311640, Note_on_c, 1, 67, 127
1, 311640, Note_on_c, 1, 71, 127
1, 311640, Note_on_c, 1, 50, 127
1, 311669, Note_off_c, 1, 67, 0
1, 311669, Note_off_c, 1, 71, 0
1, 311670, Note_on_c, 1, 66, 127
1, 311670, Note_on_c, 1, 69, 127
1, 311699, Note_off_c, 1, 50, 0
1, 311699, Note_off_c, 1, 66, 0
1, 311699, Note_off_c, 1, 69, 0
1, 311700, Note_on_c, 1, 67, 127
1, 311700, Note_on_c, 1, 71, 127
1, 311700, Note_on_c, 1, 55, 127
1, 311759, Note_off_c, 1, 67, 0
1, 311759, Note_off_c, 1, 71, 0
1, 311759, Note_off_c, 1, 55, 0
1, 311760, Note_on_c, 1, 69, 127
1, 311760, Note_on_c, 1, 72, 127
1, 311760, Note_on_c, 1, 43, 127
1, 311789, Note_off_c, 1, 69, 0
1, 311789, Note_off_c, 1, 72, 0
1, 311790, Note_on_c, 1, 66, 127
1, 311819, Note_off_c, 1, 43, 0
1, 311819, Note_off_c, 1, 66, 0
1, 311820, Note_on_c, 1, 67, 127
1, 311820, Note_on_c, 1, 43, 127
1, 311879, Note_off_c, 1, 43, 0
1, 311880, Note_on_c, 1, 69, 127
1, 311880, Note_on_c, 1, 55, 127
1, 311909, Note_off_c, 1, 69, 0
1, 311909, Note_off_c, 1, 55, 0
1, 311910, Note_on_c, 1, 71, 127
1, 311910, Note_on_c, 1, 54, 127
1, 311939, Note_off_c, 1, 71, 0
1, 311939, Note_off_c, 1, 54, 0
1, 311940, Note_on_c, 1, 72, 127
1, 311969, Note_off_c, 1, 72, 0
1, 312000, Note_on_c, 1, 57, 127
1, 312029, Note_off_c, 1, 57, 0
1, 312030, Note_on_c, 1, 59, 127
1, 312059, Note_off_c, 1, 67, 0
1, 312059, Note_off_c, 1, 59, 0
1, 312060, Note_on_c, 1, 76, 127
1, 312060, Note_on_c, 1, 60, 127
1, 312119, Note_off_c, 1, 76, 0
1, 312119, Note_off_c, 1, 60, 0
1, 312120, Note_on_c, 1, 76, 127
1, 312120, Note_on_c, 1, 55, 127
1, 312149, Note_off_c, 1, 76, 0
1, 312149, Note_off_c, 1, 55, 0
1, 312150, Note_on_c, 1, 74, 127
1, 312150, Note_on_c, 1, 54, 127
1, 312179, Note_off_c, 1, 74, 0
1, 312179, Note_off_c, 1, 54, 0
1, 312180, Note_on_c, 1, 76, 127
1, 312180, Note_on_c, 1, 55, 127
1, 312239, Note_off_c, 1, 76, 0
1, 312239, Note_off_c, 1, 55, 0
1, 312240, Note_on_c, 1, 76, 127
1, 312240, Note_on_c, 1, 60, 127
1, 312269, Note_off_c, 1, 76, 0
1, 312270, Note_on_c, 1, 79, 127
1, 312299, Note_off_c, 1, 60, 0
1, 312299, Note_off_c, 1, 79, 0
1, 312300, Note_on_c, 1, 77, 127
1, 312300, Note_on_c, 1, 60, 127
1, 312329, Note_off_c, 1, 77, 0
1, 312330, Note_on_c, 1, 76, 127
1, 312359, Note_off_c, 1, 60, 0
1, 312359, Note_off_c, 1, 76, 0
1, 312360, Note_on_c, 1, 74, 127
1, 312360, Note_on_c, 1, 59, 127
1, 312389, Note_off_c, 1, 74, 0
1, 312389, Note_off_c, 1, 59, 0
1, 312390, Note_on_c, 1, 72, 127
1, 312390, Note_on_c, 1, 57, 127
1, 312419, Note_off_c, 1, 72, 0
1, 312419, Note_off_c, 1, 57, 0
1, 312420, Note_on_c, 1, 74, 127
1, 312420, Note_on_c, 1, 59, 127
1, 312479, Note_off_c, 1, 74, 0
1, 312479, Note_off_c, 1, 59, 0
1, 312480, Note_on_c, 1, 79, 127
1, 312480, Note_on_c, 1, 55, 127
1, 312509, Note_off_c, 1, 79, 0
1, 312510, Note_on_c, 1, 78, 127
1, 312539, Note_off_c, 1, 55, 0
1, 312539, Note_off_c, 1, 78, 0
1, 312540, Note_on_c, 1, 79, 127
1, 312540, Note_on_c, 1, 52, 127
1, 312599, Note_off_c, 1, 79, 0
1, 312599, Note_off_c, 1, 52, 0
1, 312600, Note_on_c, 1, 67, 127
1, 312600, Note_on_c, 1, 52, 127
1, 312629, Note_off_c, 1, 52, 0
1, 312630, Note_on_c, 1, 50, 127
1, 312659, Note_off_c, 1, 50, 0
1, 312719, Note_off_c, 1, 67, 0
1, 312720, Note_on_c, 1, 69, 127
1, 312720, Note_on_c, 1, 54, 127
1, 312749, Note_off_c, 1, 69, 0
1, 312749, Note_off_c, 1, 54, 0
1, 312750, Note_on_c, 1, 71, 127
1, 312750, Note_on_c, 1, 55, 127
1, 312779, Note_off_c, 1, 71, 0
1, 312779, Note_off_c, 1, 55, 0
1, 312780, Note_on_c, 1, 72, 127
1, 312780, Note_on_c, 1, 57, 127
1, 312839, Note_off_c, 1, 72, 0
1, 312839, Note_off_c, 1, 57, 0
1, 312840, Note_on_c, 1, 72, 127
1, 312840, Note_on_c, 1, 55, 127
1, 312869, Note_off_c, 1, 72, 0
1, 312870, Note_on_c, 1, 71, 127
1, 312899, Note_off_c, 1, 55, 0
1, 312899, Note_off_c, 1, 71, 0
1, 312900, Note_on_c, 1, 72, 127
1, 312900, Note_on_c, 1, 54, 127
1, 312959, Note_off_c, 1, 72, 0
1, 312959, Note_off_c, 1, 54, 0
1, 312960, Note_on_c, 1, 72, 127
1, 312960, Note_on_c, 1, 50, 127
1, 312989, Note_off_c, 1, 72, 0
1, 312990, Note_on_c, 1, 81, 127
1, 313019, Note_off_c, 1, 50, 0
1, 313019, Note_off_c, 1, 81, 0
1, 313020, Note_on_c, 1, 79, 127
1, 313020, Note_on_c, 1, 52, 127
1, 313049, Note_off_c, 1, 79, 0
1, 313050, Note_on_c, 1, 78, 127
1, 313079, Note_off_c, 1, 52, 0
1, 313079, Note_off_c, 1, 78, 0
1, 313080, Note_on_c, 1, 76, 127
1, 313080, Note_on_c, 1, 54, 127
1, 313109, Note_off_c, 1, 76, 0
1, 313110, Note_on_c, 1, 74, 127
1, 313139, Note_off_c, 1, 54, 0
1, 313139, Note_off_c, 1, 74, 0
1, 313140, Note_on_c, 1, 72, 127
1, 313140, Note_on_c, 1, 55, 127
1, 313169, Note_off_c, 1, 72, 0
1, 313170, Note_on_c, 1, 69, 127
1, 313199, Note_off_c, 1, 55, 0
1, 313199, Note_off_c, 1, 69, 0
1, 313200, Note_on_c, 1, 71, 127
1, 313200, Note_on_c, 1, 43, 127
1, 313259, Note_off_c, 1, 71, 0
1, 313259, Note_off_c, 1, 43, 0
1, 313260, Note_on_c, 1, 71, 127
1, 313260, Note_on_c, 1, 43, 127
1, 313319, Note_off_c, 1, 43, 0
1, 313320, Note_on_c, 1, 55, 127
1, 313349, Note_off_c, 1, 55, 0
1, 313350, Note_on_c, 1, 53, 127
1, 313379, Note_off_c, 1, 53, 0
1, 313380, Note_on_c, 1, 52, 127
1, 313410, Note_off_c, 1, 71, 0
1, 313410, Note_on_c, 1, 74, 127
1, 313439, Note_off_c, 1, 52, 0
1, 313439, Note_off_c, 1, 74, 0
1, 313440, Note_on_c, 1, 71, 127
1, 313440, Note_on_c, 1, 50, 127
1, 313469, Note_off_c, 1, 71, 0
1, 313470, Note_on_c, 1, 67, 127
1, 313499, Note_off_c, 1, 50, 0
1, 313499, Note_off_c, 1, 67, 0
1, 313500, Note_on_c, 1, 77, 127
1, 313500, Note_on_c, 1, 48, 127
1, 313529, Note_off_c, 1, 77, 0
1, 313530, Note_on_c, 1, 74, 127
1, 313559, Note_off_c, 1, 48, 0
1, 313559, Note_off_c, 1, 74, 0
1, 313560, Note_on_c, 1, 76, 127
1, 313560, Note_on_c, 1, 36, 127
1, 313619, Note_off_c, 1, 76, 0
1, 313619, Note_off_c, 1, 36, 0
1, 313620, Note_on_c, 1, 76, 127
1, 313620, Note_on_c, 1, 36, 127
1, 313679, Note_off_c, 1, 36, 0
1, 313680, Note_on_c, 1, 57, 127
1, 313709, Note_off_c, 1, 57, 0
1, 313710, Note_on_c, 1, 55, 127
1, 313739, Note_off_c, 1, 55, 0
1, 313740, Note_on_c, 1, 54, 127
1, 313799, Note_off_c, 1, 76, 0
1, 313799, Note_off_c, 1, 54, 0
1, 313800, Note_on_c, 1, 73, 127
1, 313800, Note_on_c, 1, 52, 127
1, 313829, Note_off_c, 1, 73, 0
1, 313830, Note_on_c, 1, 69, 127
1, 313859, Note_off_c, 1, 52, 0
1, 313859, Note_off_c, 1, 69, 0
1, 313860, Note_on_c, 1, 79, 127
1, 313860, Note_on_c, 1, 50, 127
1, 313889, Note_off_c, 1, 79, 0
1, 313890, Note_on_c, 1, 76, 127
1, 313919, Note_off_c, 1, 50, 0
1, 313919, Note_off_c, 1, 76, 0
1, 313920, Note_on_c, 1, 78, 127
1, 313920, Note_on_c, 1, 38, 127
1, 313979, Note_off_c, 1, 78, 0
1, 313979, Note_off_c, 1, 38, 0
1, 313980, Note_on_c, 1, 78, 127
1, 313980, Note_on_c, 1, 38, 127
1, 314039, Note_off_c, 1, 38, 0
1, 314040, Note_on_c, 1, 59, 127
1, 314069, Note_off_c, 1, 59, 0
1, 314070, Note_on_c, 1, 57, 127
1, 314099, Note_off_c, 1, 57, 0
1, 314100, Note_on_c, 1, 55, 127
1, 314130, Note_off_c, 1, 78, 0
1, 314130, Note_on_c, 1, 75, 127
1, 314159, Note_off_c, 1, 55, 0
1, 314159, Note_off_c, 1, 75, 0
1, 314160, Note_on_c, 1, 71, 127
1, 314160, Note_on_c, 1, 54, 127
1, 314189, Note_off_c, 1, 71, 0
1, 314190, Note_on_c, 1, 67, 127
1, 314219, Note_off_c, 1, 54, 0
1, 314219, Note_off_c, 1, 67, 0
1, 314220, Note_on_c, 1, 69, 127
1, 314220, Note_on_c, 1, 52, 127
1, 314249, Note_off_c, 1, 69, 0
1, 314250, Note_on_c, 1, 66, 127
1, 314279, Note_off_c, 1, 52, 0
1, 314279, Note_off_c, 1, 66, 0
1, 314280, Note_on_c, 1, 67, 127
1, 314280, Note_on_c, 1, 40, 127
1, 314339, Note_off_c, 1, 67, 0
1, 314339, Note_off_c, 1, 40, 0
1, 314340, Note_on_c, 1, 67, 127
1, 314340, Note_on_c, 1, 38, 127
1, 314369, Note_off_c, 1, 67, 0
1, 314370, Note_on_c, 1, 72, 127
1, 314399, Note_off_c, 1, 38, 0
1, 314399, Note_off_c, 1, 72, 0
1, 314400, Note_on_c, 1, 71, 127
1, 314400, Note_on_c, 1, 50, 127
1, 314459, Note_off_c, 1, 71, 0
1, 314459, Note_off_c, 1, 50, 0
1, 314460, Note_on_c, 1, 71, 127
1, 314460, Note_on_c, 1, 48, 127
1, 314489, Note_off_c, 1, 71, 0
1, 314490, Note_on_c, 1, 76, 127
1, 314519, Note_off_c, 1, 48, 0
1, 314519, Note_off_c, 1, 76, 0
1, 314520, Note_on_c, 1, 74, 127
1, 314520, Note_on_c, 1, 36, 127
1, 314579, Note_off_c, 1, 74, 0
1, 314579, Note_off_c, 1, 36, 0
1, 314580, Note_on_c, 1, 86, 127
1, 314580, Note_on_c, 1, 36, 127
1, 314639, Note_off_c, 1, 36, 0
1, 314640, Note_on_c, 1, 60, 127
1, 314669, Note_off_c, 1, 60, 0
1, 314670, Note_on_c, 1, 59, 127
1, 314699, Note_off_c, 1, 59, 0
1, 314730, Note_off_c, 1, 86, 0
1, 314730, Note_on_c, 1, 74, 127
1, 314759, Note_off_c, 1, 74, 0
1, 314760, Note_on_c, 1, 76, 127
1, 314760, Note_on_c, 1, 57, 127
1, 314789, Note_off_c, 1, 76, 0
1, 314790, Note_on_c, 1, 74, 127
1, 314819, Note_off_c, 1, 57, 0
1, 314819, Note_off_c, 1, 74, 0
1, 314820, Note_on_c, 1, 84, 127
1, 314820, Note_on_c, 1, 54, 127
1, 314849, Note_off_c, 1, 84, 0
1, 314850, Note_on_c, 1, 74, 127
1, 314879, Note_off_c, 1, 54, 0
1, 314879, Note_off_c, 1, 74, 0
1, 314880, Note_on_c, 1, 76, 127
1, 314880, Note_on_c, 1, 50, 127
1, 314909, Note_off_c, 1, 76, 0
1, 314910, Note_on_c, 1, 74, 127
1, 314939, Note_off_c, 1, 50, 0
1, 314939, Note_off_c, 1, 74, 0
1, 314940, Note_on_c, 1, 83, 127
1, 314940, Note_on_c, 1, 55, 127
1, 314969, Note_off_c, 1, 83, 0
1, 314970, Note_on_c, 1, 79, 127
1, 314984, Note_off_c, 1, 79, 0
1, 314985, Note_on_c, 1, 81, 127
1, 314999, Note_off_c, 1, 55, 0
1, 314999, Note_off_c, 1, 81, 0
1, 315000, Note_on_c, 1, 83, 127
1, 315000, Note_on_c, 1, 43, 127
1, 315029, Note_off_c, 1, 83, 0
1, 315029, Note_off_c, 1, 43, 0
1, 315030, Note_on_c, 1, 86, 127
1, 315030, Note_on_c, 1, 42, 127
1, 315059, Note_off_c, 1, 86, 0
1, 315059, Note_off_c, 1, 42, 0
1, 315060, Note_on_c, 1, 83, 127
1, 315060, Note_on_c, 1, 43, 127
1, 315089, Note_off_c, 1, 83, 0
1, 315090, Note_on_c, 1, 79, 127
1, 315104, Note_off_c, 1, 79, 0
1, 315105, Note_on_c, 1, 81, 127
1, 315119, Note_off_c, 1, 43, 0
1, 315119, Note_off_c, 1, 81, 0
1, 315120, Note_on_c, 1, 83, 127
1, 315120, Note_on_c, 1, 48, 127
1, 315149, Note_off_c, 1, 83, 0
1, 315150, Note_on_c, 1, 86, 127
1, 315179, Note_off_c, 1, 48, 0
1, 315179, Note_off_c, 1, 86, 0
1, 315180, Note_on_c, 1, 83, 127
1, 315180, Note_on_c, 1, 50, 127
1, 315199, Note_off_c, 1, 83, 0
1, 315200, Note_on_c, 1, 81, 127
1, 315219, Note_off_c, 1, 81, 0
1, 315220, Note_on_c, 1, 79, 127
1, 315239, Note_off_c, 1, 50, 0
1, 315239, Note_off_c, 1, 79, 0
1, 315240, Note_on_c, 1, 81, 127
1, 315240, Note_on_c, 1, 38, 127
1, 315259, Note_off_c, 1, 81, 0
1, 315260, Note_on_c, 1, 79, 127
1, 315279, Note_off_c, 1, 79, 0
1, 315280, Note_on_c, 1, 78, 127
1, 315299, Note_off_c, 1, 38, 0
1, 315299, Note_off_c, 1, 78, 0
1, 315300, Note_on_c, 1, 79, 127
1, 315300, Note_on_c, 1, 43, 127
1, 315419, Note_off_c, 1, 79, 0
1, 315420, Note_on_c, 1, 91, 127
1, 315659, Note_off_c, 1, 43, 0
1, 315659, Note_off_c, 1, 91, 0
1, 316020, Note_on_c, 1, 45, 127
1, 316080, Note_on_c, 1, 69, 127
1, 316139, Note_off_c, 1, 69, 0
1, 316140, Note_on_c, 1, 76, 127
1, 316199, Note_off_c, 1, 76, 0
1, 316260, Note_on_c, 1, 73, 127
1, 316319, Note_off_c, 1, 73, 0
1, 316320, Note_on_c, 1, 74, 127
1, 316379, Note_off_c, 1, 74, 0
1, 316500, Note_on_c, 1, 67, 127
1, 316559, Note_off_c, 1, 67, 0
1, 316740, Note_off_c, 1, 45, 0
1, 316740, Note_on_c, 1, 66, 127
1, 316740, Note_on_c, 1, 50, 127
1, 316859, Note_off_c, 1, 66, 0
1, 316980, Note_on_c, 1, 78, 127
1, 317039, Note_off_c, 1, 78, 0
1, 317220, Note_off_c, 1, 50, 0
1, 317220, Note_on_c, 1, 81, 127
1, 317220, Note_on_c, 1, 54, 127
1, 317279, Note_off_c, 1, 81, 0
1, 317400, Note_on_c, 1, 71, 127
1, 317429, Note_off_c, 1, 71, 0
1, 317460, Note_off_c, 1, 54, 0
1, 317460, Note_on_c, 1, 47, 127
1, 317580, Note_off_c, 1, 47, 0
1, 317580, Note_on_c, 1, 44, 127
1, 317700, Note_off_c, 1, 44, 0
1, 317820, Note_on_c, 1, 48, 127
1, 317940, Note_off_c, 1, 48, 0
1, 318240, Note_on_c, 1, 69, 127
1, 318299, Note_off_c, 1, 69, 0
1, 318300, Note_on_c, 1, 52, 127
1, 318420, Note_off_c, 1, 52, 0
1, 318420, Note_on_c, 1, 45, 127
1, 318570, Note_on_c, 1, 69, 127
1, 318599, Note_off_c, 1, 69, 0
1, 318600, Note_on_c, 1, 71, 127
1, 318629, Note_off_c, 1, 71, 0
1, 318630, Note_on_c, 1, 73, 127
1, 318659, Note_off_c, 1, 73, 0
1, 318660, Note_on_c, 1, 74, 127
1, 318689, Note_off_c, 1, 74, 0
1, 318690, Note_on_c, 1, 76, 127
1, 318719, Note_off_c, 1, 76, 0
1, 318720, Note_on_c, 1, 78, 127
1, 318749, Note_off_c, 1, 78, 0
1, 318750, Note_on_c, 1, 80, 127
1, 318779, Note_off_c, 1, 80, 0
1, 318780, Note_on_c, 1, 81, 127
1, 318839, Note_off_c, 1, 81, 0
1, 319140, Note_on_c, 1, 79, 127
1, 319170, Note_off_c, 1, 45, 0
1, 319170, Note_on_c, 1, 47, 127
1, 319199, Note_off_c, 1, 79, 0
1, 319199, Note_off_c, 1, 47, 0
1, 319200, Note_on_c, 1, 79, 127
1, 319200, Note_on_c, 1, 49, 127
1, 319229, Note_off_c, 1, 49, 0
1, 319230, Note_on_c, 1, 50, 127
1, 319259, Note_off_c, 1, 79, 0
1, 319259, Note_off_c, 1, 50, 0
1, 319260, Note_on_c, 1, 52, 127
1, 319289, Note_off_c, 1, 52, 0
1, 319290, Note_on_c, 1, 54, 127
1, 319319, Note_off_c, 1, 54, 0
1, 319320, Note_on_c, 1, 69, 127
1, 319320, Note_on_c, 1, 55, 127
1, 319349, Note_off_c, 1, 55, 0
1, 319350, Note_on_c, 1, 57, 127
1, 319379, Note_off_c, 1, 69, 0
1, 319379, Note_off_c, 1, 57, 0
1, 319380, Note_on_c, 1, 78, 127
1, 319380, Note_on_c, 1, 50, 127
1, 319409, Note_off_c, 1, 50, 0
1, 319410, Note_on_c, 1, 52, 127
1, 319439, Note_off_c, 1, 52, 0
1, 319440, Note_on_c, 1, 54, 127
1, 319469, Note_off_c, 1, 54, 0
1, 319470, Note_on_c, 1, 55, 127
1, 319499, Note_off_c, 1, 78, 0
1, 319499, Note_off_c, 1, 55, 0
1, 319500, Note_on_c, 1, 57, 127
1, 319529, Note_off_c, 1, 57, 0
1, 319530, Note_on_c, 1, 59, 127
1, 319559, Note_off_c, 1, 59, 0
1, 319560, Note_on_c, 1, 74, 127
1, 319560, Note_on_c, 1, 61, 127
1, 319589, Note_off_c, 1, 61, 0
1, 319590, Note_on_c, 1, 62, 127
1, 319619, Note_off_c, 1, 74, 0
1, 319619, Note_off_c, 1, 62, 0
1, 319620, Note_on_c, 1, 71, 127
1, 319620, Note_on_c, 1, 55, 127
1, 319634, Note_off_c, 1, 71, 0
1, 319635, Note_on_c, 1, 69, 127
1, 319649, Note_off_c, 1, 69, 0
1, 319679, Note_off_c, 1, 55, 0
1, 319680, Note_on_c, 1, 76, 127
1, 319680, Note_on_c, 1, 52, 127
1, 319709, Note_off_c, 1, 76, 0
1, 319709, Note_off_c, 1, 52, 0
1, 319710, Note_on_c, 1, 71, 127
1, 319710, Note_on_c, 1, 55, 127
1, 319739, Note_off_c, 1, 71, 0
1, 319739, Note_off_c, 1, 55, 0
1, 319740, Note_on_c, 1, 73, 127
1, 319740, Note_on_c, 1, 57, 127
1, 319754, Note_off_c, 1, 73, 0
1, 319755, Note_on_c, 1, 71, 127
1, 319769, Note_off_c, 1, 71, 0
1, 319799, Note_off_c, 1, 57, 0
1, 319800, Note_on_c, 1, 78, 127
1, 319800, Note_on_c, 1, 54, 127
1, 319829, Note_off_c, 1, 78, 0
1, 319829, Note_off_c, 1, 54, 0
1, 319830, Note_on_c, 1, 73, 127
1, 319830, Note_on_c, 1, 57, 127
1, 319859, Note_off_c, 1, 73, 0
1, 319859, Note_off_c, 1, 57, 0
1, 319860, Note_on_c, 1, 74, 127
1, 319860, Note_on_c, 1, 59, 127
1, 319874, Note_off_c, 1, 74, 0
1, 319875, Note_on_c, 1, 73, 127
1, 319889, Note_off_c, 1, 73, 0
1, 319919, Note_off_c, 1, 59, 0
1, 319920, Note_on_c, 1, 79, 127
1, 319920, Note_on_c, 1, 55, 127
1, 319949, Note_off_c, 1, 79, 0
1, 319949, Note_off_c, 1, 55, 0
1, 319950, Note_on_c, 1, 74, 127
1, 319950, Note_on_c, 1, 59, 127
1, 319979, Note_off_c, 1, 74, 0
1, 319979, Note_off_c, 1, 59, 0
1, 319980, Note_on_c, 1, 76, 127
1, 319980, Note_on_c, 1, 61, 127
1, 319994, Note_off_c, 1, 76, 0
1, 319995, Note_on_c, 1, 74, 127
1, 320009, Note_off_c, 1, 74, 0
1, 320039, Note_off_c, 1, 61, 0
1, 320040, Note_on_c, 1, 81, 127
1, 320040, Note_on_c, 1, 57, 127
1, 320069, Note_off_c, 1, 81, 0
1, 320069, Note_off_c, 1, 57, 0
1, 320070, Note_on_c, 1, 76, 127
1, 320070, Note_on_c, 1, 61, 127
1, 320099, Note_off_c, 1, 76, 0
1, 320099, Note_off_c, 1, 61, 0
1, 320100, Note_on_c, 1, 78, 127
1, 320100, Note_on_c, 1, 62, 127
1, 320159, Note_off_c, 1, 78, 0
1, 320159, Note_off_c, 1, 62, 0
1, 320160, Note_on_c, 1, 69, 127
1, 320219, Note_off_c, 1, 69, 0
1, 320220, Note_on_c, 1, 71, 127
1, 320220, Note_on_c, 1, 56, 127
1, 320279, Note_off_c, 1, 71, 0
1, 320279, Note_off_c, 1, 56, 0
1, 320280, Note_on_c, 1, 73, 127
1, 320309, Note_off_c, 1, 73, 0
1, 320310, Note_on_c, 1, 74, 127
1, 320339, Note_off_c, 1, 74, 0
1, 320340, Note_on_c, 1, 74, 127
1, 320399, Note_off_c, 1, 74, 0
1, 320400, Note_on_c, 1, 69, 127
1, 320459, Note_off_c, 1, 69, 0
1, 320460, Note_on_c, 1, 57, 127
1, 320579, Note_off_c, 1, 57, 0
1, 320580, Note_on_c, 1, 50, 127
1, 320819, Note_off_c, 1, 50, 0
1, 321060, Note_on_c, 1, 86, 127
1, 321060, Note_on_c, 1, 81, 127
1, 321060, Note_on_c, 1, 78, 127
1, 321060, Note_on_c, 1, 50, 127
1, 321060, Note_on_c, 1, 66, 127
1, 321060, Note_on_c, 1, 62, 127
1, 321060, Note_on_c, 1, 74, 127
1, 321060, Note_on_c, 1, 69, 127
1, 321119, Note_off_c, 1, 62, 0
1, 321120, Note_on_c, 1, 67, 127
1, 321120, Note_on_c, 1, 64, 127
1, 321179, Note_off_c, 1, 67, 0
1, 321179, Note_off_c, 1, 64, 0
1, 321299, Note_off_c, 1, 86, 0
1, 321299, Note_off_c, 1, 81, 0
1, 321299, Note_off_c, 1, 78, 0
1, 321299, Note_off_c, 1, 50, 0
1, 321299, Note_off_c, 1, 66, 0
1, 321299, Note_off_c, 1, 74, 0
1, 321299, Note_off_c, 1, 69, 0
1, 321300, Note_on_c, 1, 81, 127
1, 321300, Note_on_c, 1, 78, 127
1, 321300, Note_on_c, 1, 74, 127
1, 321300, Note_on_c, 1, 50, 127
1, 321300, Note_on_c, 1, 69, 127
1, 321300, Note_on_c, 1, 66, 127
1, 321300, Note_on_c, 1, 62, 127
1, 321300, Note_on_c, 1, 38, 127
1, 321539, Note_off_c, 1, 81, 0
1, 321539, Note_off_c, 1, 78, 0
1, 321539, Note_off_c, 1, 74, 0
1, 321539, Note_off_c, 1, 50, 0
1, 321539, Note_off_c, 1, 69, 0
1, 321539, Note_off_c, 1, 66, 0
1, 321539, Note_off_c, 1, 62, 0
1, 321539, Note_off_c, 1, 38, 0
1, 321540, Note_on_c, 1, 57, 127
1, 321540, Note_on_c, 1, 78, 127
1, 321540, Note_on_c, 1, 74, 127
1, 321540, Note_on_c, 1, 66, 127
1, 321540, Note_on_c, 1, 62, 127
1, 321659, Note_off_c, 1, 57, 0
1, 321659, Note_off_c, 1, 78, 0
1, 321659, Note_off_c, 1, 74, 0
1, 321659, Note_off_c, 1, 66, 0
1, 321659, Note_off_c, 1, 62, 0
1, 321660, Note_on_c, 1, 57, 127
1, 321660, Note_on_c, 1, 78, 127
1, 321660, Note_on_c, 1, 74, 127
1, 321660, Note_on_c, 1, 66, 127
1, 321660, Note_on_c, 1, 62, 127
1, 321719, Note_off_c, 1, 78, 0
1, 321719, Note_off_c, 1, 74, 0
1, 321719, Note_off_c, 1, 66, 0
1, 321719, Note_off_c, 1, 62, 0
1, 321720, Note_on_c, 1, 76, 127
1, 321720, Note_on_c, 1, 73, 127
1, 321720, Note_on_c, 1, 64, 127
1, 321720, Note_on_c, 1, 61, 127
1, 321779, Note_off_c, 1, 57, 0
1, 321779, Note_off_c, 1, 76, 0
1, 321779, Note_off_c, 1, 73, 0
1, 321779, Note_off_c, 1, 64, 0
1, 321779, Note_off_c, 1, 61, 0
1, 321780, Note_on_c, 1, 57, 127
1, 321780, Note_on_c, 1, 79, 127
1, 321780, Note_on_c, 1, 76, 127
1, 321780, Note_on_c, 1, 67, 127
1, 321780, Note_on_c, 1, 64, 127
1, 321780, Note_on_c, 1, 61, 127
1, 321899, Note_off_c, 1, 57, 0
1, 321899, Note_off_c, 1, 79, 0
1, 321899, Note_off_c, 1, 76, 0
1, 321899, Note_off_c, 1, 67, 0
1, 321899, Note_off_c, 1, 64, 0
1, 321899, Note_off_c, 1, 61, 0
1, 321900, Note_on_c, 1, 57, 127
1, 321900, Note_on_c, 1, 78, 127
1, 321900, Note_on_c, 1, 74, 127
1, 321900, Note_on_c, 1, 66, 127
1, 321900, Note_on_c, 1, 62, 127
1, 321959, Note_off_c, 1, 78, 0
1, 321959, Note_off_c, 1, 74, 0
1, 321959, Note_off_c, 1, 66, 0
1, 321959, Note_off_c, 1, 62, 0
1, 321960, Note_on_c, 1, 76, 127
1, 321960, Note_on_c, 1, 73, 127
1, 321960, Note_on_c, 1, 64, 127
1, 321960, Note_on_c, 1, 61, 127
1, 322019, Note_off_c, 1, 57, 0
1, 322019, Note_off_c, 1, 76, 0
1, 322019, Note_off_c, 1, 73, 0
1, 322019, Note_off_c, 1, 64, 0
1, 322019, Note_off_c, 1, 61, 0
1, 322020, Note_on_c, 1, 57, 127
1, 322020, Note_on_c, 1, 78, 127
1, 322020, Note_on_c, 1, 74, 127
1, 322020, Note_on_c, 1, 66, 127
1, 322020, Note_on_c, 1, 62, 127
1, 322139, Note_off_c, 1, 57, 0
1, 322139, Note_off_c, 1, 78, 0
1, 322139, Note_off_c, 1, 74, 0
1, 322139, Note_off_c, 1, 66, 0
1, 322139, Note_off_c, 1, 62, 0
1, 322140, Note_on_c, 1, 57, 127
1, 322140, Note_on_c, 1, 78, 127
1, 322140, Note_on_c, 1, 74, 127
1, 322140, Note_on_c, 1, 66, 127
1, 322140, Note_on_c, 1, 62, 127
1, 322199, Note_off_c, 1, 78, 0
1, 322199, Note_off_c, 1, 74, 0
1, 322199, Note_off_c, 1, 66, 0
1, 322199, Note_off_c, 1, 62, 0
1, 322200, Note_on_c, 1, 76, 127
1, 322200, Note_on_c, 1, 73, 127
1, 322200, Note_on_c, 1, 64, 127
1, 322200, Note_on_c, 1, 61, 127
1, 322259, Note_off_c, 1, 57, 0
1, 322259, Note_off_c, 1, 76, 0
1, 322259, Note_off_c, 1, 73, 0
1, 322259, Note_off_c, 1, 64, 0
1, 322259, Note_off_c, 1, 61, 0
1, 322260, Note_on_c, 1, 57, 127
1, 322260, Note_on_c, 1, 79, 127
1, 322260, Note_on_c, 1, 76, 127
1, 322260, Note_on_c, 1, 67, 127
1, 322260, Note_on_c, 1, 64, 127
1, 322260, Note_on_c, 1, 61, 127
1, 322379, Note_off_c, 1, 57, 0
1, 322379, Note_off_c, 1, 79, 0
1, 322379, Note_off_c, 1, 76, 0
1, 322379, Note_off_c, 1, 67, 0
1, 322379, Note_off_c, 1, 64, 0
1, 322379, Note_off_c, 1, 61, 0
1, 322380, Note_on_c, 1, 57, 127
1, 322380, Note_on_c, 1, 78, 127
1, 322380, Note_on_c, 1, 74, 127
1, 322380, Note_on_c, 1, 66, 127
1, 322380, Note_on_c, 1, 62, 127
1, 322439, Note_off_c, 1, 78, 0
1, 322439, Note_off_c, 1, 74, 0
1, 322439, Note_off_c, 1, 66, 0
1, 322439, Note_off_c, 1, 62, 0
1, 322440, Note_on_c, 1, 76, 127
1, 322440, Note_on_c, 1, 73, 127
1, 322440, Note_on_c, 1, 64, 127
1, 322440, Note_on_c, 1, 61, 127
1, 322499, Note_off_c, 1, 57, 0
1, 322499, Note_off_c, 1, 76, 0
1, 322499, Note_off_c, 1, 73, 0
1, 322499, Note_off_c, 1, 64, 0
1, 322499, Note_off_c, 1, 61, 0
1, 322500, Note_on_c, 1, 86, 127
1, 322500, Note_on_c, 1, 81, 127
1, 322500, Note_on_c, 1, 78, 127
1, 322500, Note_on_c, 1, 50, 127
1, 322500, Note_on_c, 1, 66, 127
1, 322500, Note_on_c, 1, 62, 127
1, 322500, Note_on_c, 1, 74, 127
1, 322500, Note_on_c, 1, 69, 127
1, 322559, Note_off_c, 1, 62, 0
1, 322560, Note_on_c, 1, 67, 127
1, 322560, Note_on_c, 1, 64, 127
1, 322619, Note_off_c, 1, 67, 0
1, 322619, Note_off_c, 1, 64, 0
1, 322739, Note_off_c, 1, 86, 0
1, 322739, Note_off_c, 1, 81, 0
1, 322739, Note_off_c, 1, 78, 0
1, 322739, Note_off_c, 1, 50, 0
1, 322739, Note_off_c, 1, 66, 0
1, 322739, Note_off_c, 1, 74, 0
1, 322739, Note_off_c, 1, 69, 0
1, 322740, Note_on_c, 1, 81, 127
1, 322740, Note_on_c, 1, 78, 127
1, 322740, Note_on_c, 1, 74, 127
1, 322740, Note_on_c, 1, 50, 127
1, 322740, Note_on_c, 1, 69, 127
1, 322740, Note_on_c, 1, 66, 127
1, 322740, Note_on_c, 1, 62, 127
1, 322740, Note_on_c, 1, 38, 127
1, 322979, Note_off_c, 1, 81, 0
1, 322979, Note_off_c, 1, 78, 0
1, 322979, Note_off_c, 1, 74, 0
1, 322979, Note_off_c, 1, 50, 0
1, 322979, Note_off_c, 1, 69, 0
1, 322979, Note_off_c, 1, 66, 0
1, 322979, Note_off_c, 1, 62, 0
1, 322979, Note_off_c, 1, 38, 0
1, 322980, Note_on_c, 1, 50, 127
1, 322980, Note_on_c, 1, 81, 127
1, 322980, Note_on_c, 1, 78, 127
1, 322980, Note_on_c, 1, 69, 127
1, 322980, Note_on_c, 1, 66, 127
1, 322980, Note_on_c, 1, 62, 127
1, 323099, Note_off_c, 1, 50, 0
1, 323099, Note_off_c, 1, 81, 0
1, 323099, Note_off_c, 1, 78, 0
1, 323099, Note_off_c, 1, 69, 0
1, 323099, Note_off_c, 1, 66, 0
1, 323099, Note_off_c, 1, 62, 0
1, 323100, Note_on_c, 1, 50, 127
1, 323100, Note_on_c, 1, 81, 127
1, 323100, Note_on_c, 1, 78, 127
1, 323100, Note_on_c, 1, 69, 127
1, 323100, Note_on_c, 1, 66, 127
1, 323100, Note_on_c, 1, 62, 127
1, 323159, Note_off_c, 1, 81, 0
1, 323159, Note_off_c, 1, 78, 0
1, 323159, Note_off_c, 1, 69, 0
1, 323159, Note_off_c, 1, 66, 0
1, 323160, Note_on_c, 1, 79, 127
1, 323160, Note_on_c, 1, 76, 127
1, 323160, Note_on_c, 1, 67, 127
1, 323160, Note_on_c, 1, 64, 127
1, 323219, Note_off_c, 1, 50, 0
1, 323219, Note_off_c, 1, 62, 0
1, 323219, Note_off_c, 1, 79, 0
1, 323219, Note_off_c, 1, 76, 0
1, 323219, Note_off_c, 1, 67, 0
1, 323219, Note_off_c, 1, 64, 0
1, 323220, Note_on_c, 1, 50, 127
1, 323220, Note_on_c, 1, 83, 127
1, 323220, Note_on_c, 1, 79, 127
1, 323220, Note_on_c, 1, 71, 127
1, 323220, Note_on_c, 1, 67, 127
1, 323220, Note_on_c, 1, 61, 127
1, 323339, Note_off_c, 1, 50, 0
1, 323339, Note_off_c, 1, 83, 0
1, 323339, Note_off_c, 1, 79, 0
1, 323339, Note_off_c, 1, 71, 0
1, 323339, Note_off_c, 1, 67, 0
1, 323339, Note_off_c, 1, 61, 0
1, 323340, Note_on_c, 1, 50, 127
1, 323340, Note_on_c, 1, 81, 127
1, 323340, Note_on_c, 1, 78, 127
1, 323340, Note_on_c, 1, 69, 127
1, 323340, Note_on_c, 1, 66, 127
1, 323340, Note_on_c, 1, 62, 127
1, 323399, Note_off_c, 1, 81, 0
1, 323399, Note_off_c, 1, 78, 0
1, 323399, Note_off_c, 1, 69, 0
1, 323399, Note_off_c, 1, 66, 0
1, 323399, Note_off_c, 1, 62, 0
1, 323400, Note_on_c, 1, 79, 127
1, 323400, Note_on_c, 1, 76, 127
1, 323400, Note_on_c, 1, 67, 127
1, 323400, Note_on_c, 1, 64, 127
1, 323459, Note_off_c, 1, 50, 0
1, 323459, Note_off_c, 1, 79, 0
1, 323459, Note_off_c, 1, 76, 0
1, 323459, Note_off_c, 1, 67, 0
1, 323459, Note_off_c, 1, 64, 0
1, 323460, Note_on_c, 1, 50, 127
1, 323460, Note_on_c, 1, 81, 127
1, 323460, Note_on_c, 1, 78, 127
1, 323460, Note_on_c, 1, 69, 127
1, 323460, Note_on_c, 1, 66, 127
1, 323460, Note_on_c, 1, 62, 127
1, 323579, Note_off_c, 1, 50, 0
1, 323579, Note_off_c, 1, 81, 0
1, 323579, Note_off_c, 1, 78, 0
1, 323579, Note_off_c, 1, 69, 0
1, 323579, Note_off_c, 1, 66, 0
1, 323579, Note_off_c, 1, 62, 0
1, 323580, Note_on_c, 1, 50, 127
1, 323580, Note_on_c, 1, 81, 127
1, 323580, Note_on_c, 1, 78, 127
1, 323580, Note_on_c, 1, 69, 127
1, 323580, Note_on_c, 1, 66, 127
1, 323580, Note_on_c, 1, 62, 127
1, 323639, Note_off_c, 1, 81, 0
1, 323639, Note_off_c, 1, 78, 0
1, 323639, Note_off_c, 1, 69, 0
1, 323639, Note_off_c, 1, 66, 0
1, 323640, Note_on_c, 1, 79, 127
1, 323640, Note_on_c, 1, 76, 127
1, 323640, Note_on_c, 1, 67, 127
1, 323640, Note_on_c, 1, 64, 127
1, 323699, Note_off_c, 1, 50, 0
1, 323699, Note_off_c, 1, 62, 0
1, 323699, Note_off_c, 1, 79, 0
1, 323699, Note_off_c, 1, 76, 0
1, 323699, Note_off_c, 1, 67, 0
1, 323699, Note_off_c, 1, 64, 0
1, 323700, Note_on_c, 1, 50, 127
1, 323700, Note_on_c, 1, 83, 127
1, 323700, Note_on_c, 1, 79, 127
1, 323700, Note_on_c, 1, 71, 127
1, 323700, Note_on_c, 1, 67, 127
1, 323700, Note_on_c, 1, 61, 127
1, 323819, Note_off_c, 1, 50, 0
1, 323819, Note_off_c, 1, 83, 0
1, 323819, Note_off_c, 1, 79, 0
1, 323819, Note_off_c, 1, 71, 0
1, 323819, Note_off_c, 1, 67, 0
1, 323819, Note_off_c, 1, 61, 0
1, 323820, Note_on_c, 1, 50, 127
1, 323820, Note_on_c, 1, 81, 127
1, 323820, Note_on_c, 1, 78, 127
1, 323820, Note_on_c, 1, 69, 127
1, 323820, Note_on_c, 1, 66, 127
1, 323820, Note_on_c, 1, 62, 127
1, 323879, Note_off_c, 1, 81, 0
1, 323879, Note_off_c, 1, 78, 0
1, 323879, Note_off_c, 1, 69, 0
1, 323879, Note_off_c, 1, 66, 0
1, 323879, Note_off_c, 1, 62, 0
1, 323880, Note_on_c, 1, 79, 127
1, 323880, Note_on_c, 1, 76, 127
1, 323880, Note_on_c, 1, 67, 127
1, 323880, Note_on_c, 1, 64, 127
1, 323939, Note_off_c, 1, 50, 0
1, 323939, Note_off_c, 1, 79, 0
1, 323939, Note_off_c, 1, 76, 0
1, 323939, Note_off_c, 1, 67, 0
1, 323939, Note_off_c, 1, 64, 0
1, 323940, Note_on_c, 1, 86, 127
1, 323940, Note_on_c, 1, 81, 127
1, 323940, Note_on_c, 1, 78, 127
1, 323940, Note_on_c, 1, 50, 127
1, 323940, Note_on_c, 1, 66, 127
1, 323940, Note_on_c, 1, 62, 127
1, 323940, Note_on_c, 1, 74, 127
1, 323940, Note_on_c, 1, 69, 127
1, 323999, Note_off_c, 1, 62, 0
1, 324000, Note_on_c, 1, 67, 127
1, 324000, Note_on_c, 1, 64, 127
1, 324059, Note_off_c, 1, 67, 0
1, 324059, Note_off_c, 1, 64, 0
1, 324179, Note_off_c, 1, 86, 0
1, 324179, Note_off_c, 1, 81, 0
1, 324179, Note_off_c, 1, 78, 0
1, 324179, Note_off_c, 1, 50, 0
1, 324179, Note_off_c, 1, 66, 0
1, 324179, Note_off_c, 1, 74, 0
1, 324179, Note_off_c, 1, 69, 0
1, 324180, Note_on_c, 1, 81, 127
1, 324180, Note_on_c, 1, 78, 127
1, 324180, Note_on_c, 1, 74, 127
1, 324180, Note_on_c, 1, 50, 127
1, 324180, Note_on_c, 1, 69, 127
1, 324180, Note_on_c, 1, 66, 127
1, 324180, Note_on_c, 1, 62, 127
1, 324180, Note_on_c, 1, 38, 127
1, 324419, Note_off_c, 1, 81, 0
1, 324419, Note_off_c, 1, 78, 0
1, 324419, Note_off_c, 1, 74, 0
1, 324419, Note_off_c, 1, 50, 0
1, 324419, Note_off_c, 1, 69, 0
1, 324419, Note_off_c, 1, 66, 0
1, 324419, Note_off_c, 1, 62, 0
1, 324419, Note_off_c, 1, 38, 0
1, 324420, Note_on_c, 1, 78, 127
1, 324420, Note_on_c, 1, 74, 127
1, 324420, Note_on_c, 1, 69, 127
1, 324420, Note_on_c, 1, 50, 127
1, 324420, Note_on_c, 1, 62, 127
1, 324420, Note_on_c, 1, 66, 127
1, 324420, Note_on_c, 1, 57, 127
1, 324480, Note_on_c, 1, 64, 127
1, 324480, Note_on_c, 1, 67, 127
1, 324539, Note_off_c, 1, 78, 0
1, 324539, Note_off_c, 1, 74, 0
1, 324539, Note_off_c, 1, 69, 0
1, 324539, Note_off_c, 1, 50, 0
1, 324539, Note_off_c, 1, 62, 0
1, 324539, Note_off_c, 1, 66, 0
1, 324539, Note_off_c, 1, 57, 0
1, 324539, Note_off_c, 1, 64, 0
1, 324539, Note_off_c, 1, 67, 0
1, 324540, Note_on_c, 1, 74, 127
1, 324540, Note_on_c, 1, 69, 127
1, 324540, Note_on_c, 1, 66, 127
1, 324540, Note_on_c, 1, 50, 127
1, 324540, Note_on_c, 1, 62, 127
1, 324540, Note_on_c, 1, 57, 127
1, 324540, Note_on_c, 1, 54, 127
1, 324540, Note_on_c, 1, 38, 127
1, 324600, Note_on_c, 1, 67, 127
1, 324600, Note_on_c, 1, 64, 127
1, 324659, Note_off_c, 1, 74, 0
1, 324659, Note_off_c, 1, 69, 0
1, 324659, Note_off_c, 1, 66, 0
1, 324659, Note_off_c, 1, 50, 0
1, 324659, Note_off_c, 1, 62, 0
1, 324659, Note_off_c, 1, 57, 0
1, 324659, Note_off_c, 1, 54, 0
1, 324659, Note_off_c, 1, 38, 0
1, 324659, Note_off_c, 1, 67, 0
1, 324659, Note_off_c, 1, 64, 0
1, 324660, Note_on_c, 1, 81, 127
1, 324660, Note_on_c, 1, 78, 127
1, 324660, Note_on_c, 1, 74, 127
1, 324660, Note_on_c, 1, 50, 127
1, 324660, Note_on_c, 1, 69, 127
1, 324660, Note_on_c, 1, 66, 127
1, 324660, Note_on_c, 1, 62, 127
1, 324660, Note_on_c, 1, 38, 127
1, 324720, Note_on_c, 1, 67, 127
1, 324720, Note_on_c, 1, 64, 127
1, 324779, Note_off_c, 1, 81, 0
1, 324779, Note_off_c, 1, 78, 0
1, 324779, Note_off_c, 1, 74, 0
1, 324779, Note_off_c, 1, 50, 0
1, 324779, Note_off_c, 1, 69, 0
1, 324779, Note_off_c, 1, 66, 0
1, 324779, Note_off_c, 1, 62, 0
1, 324779, Note_off_c, 1, 38, 0
1, 324779, Note_off_c, 1, 67, 0
1, 324779, Note_off_c, 1, 64, 0
1, 324780, Note_on_c, 1, 78, 127
1, 324780, Note_on_c, 1, 74, 127
1, 324780, Note_on_c, 1, 69, 127
1, 324780, Note_on_c, 1, 50, 127
1, 324780, Note_on_c, 1, 66, 127
1, 324780, Note_on_c, 1, 62, 127
1, 324780, Note_on_c, 1, 57, 127
1, 324840, Note_on_c, 1, 67, 127
1, 324840, Note_on_c, 1, 64, 127
1, 324899, Note_off_c, 1, 78, 0
1, 324899, Note_off_c, 1, 74, 0
1, 324899, Note_off_c, 1, 69, 0
1, 324899, Note_off_c, 1, 50, 0
1, 324899, Note_off_c, 1, 66, 0
1, 324899, Note_off_c, 1, 62, 0
1, 324899, Note_off_c, 1, 57, 0
1, 324899, Note_off_c, 1, 67, 0
1, 324899, Note_off_c, 1, 64, 0
1, 324900, Note_on_c, 1, 86, 127
1, 324900, Note_on_c, 1, 81, 127
1, 324900, Note_on_c, 1, 78, 127
1, 324900, Note_on_c, 1, 50, 127
1, 324900, Note_on_c, 1, 66, 127
1, 324900, Note_on_c, 1, 62, 127
1, 324900, Note_on_c, 1, 74, 127
1, 324900, Note_on_c, 1, 69, 127
1, 324959, Note_off_c, 1, 62, 0
1, 324960, Note_on_c, 1, 67, 127
1, 324960, Note_on_c, 1, 64, 127
1, 325019, Note_off_c, 1, 86, 0
1, 325019, Note_off_c, 1, 81, 0
1, 325019, Note_off_c, 1, 78, 0
1, 325019, Note_off_c, 1, 50, 0
1, 325019, Note_off_c, 1, 66, 0
1, 325019, Note_off_c, 1, 74, 0
1, 325019, Note_off_c, 1, 69, 0
1, 325019, Note_off_c, 1, 67, 0
1, 325019, Note_off_c, 1, 64, 0
1, 325020, Note_on_c, 1, 81, 127
1, 325020, Note_on_c, 1, 78, 127
1, 325020, Note_on_c, 1, 74, 127
1, 325020, Note_on_c, 1, 50, 127
1, 325020, Note_on_c, 1, 66, 127
1, 325020, Note_on_c, 1, 62, 127
1, 325020, Note_on_c, 1, 69, 127
1, 325020, Note_on_c, 1, 38, 127
1, 325079, Note_off_c, 1, 50, 0
1, 325080, Note_on_c, 1, 67, 127
1, 325080, Note_on_c, 1, 64, 127
1, 325139, Note_off_c, 1, 81, 0
1, 325139, Note_off_c, 1, 78, 0
1, 325139, Note_off_c, 1, 74, 0
1, 325139, Note_off_c, 1, 66, 0
1, 325139, Note_off_c, 1, 62, 0
1, 325139, Note_off_c, 1, 69, 0
1, 325139, Note_off_c, 1, 38, 0
1, 325139, Note_off_c, 1, 67, 0
1, 325139, Note_off_c, 1, 64, 0
1, 325140, Note_on_c, 1, 78, 127
1, 325140, Note_on_c, 1, 74, 127
1, 325140, Note_on_c, 1, 69, 127
1, 325140, Note_on_c, 1, 50, 127
1, 325140, Note_on_c, 1, 66, 127
1, 325140, Note_on_c, 1, 62, 127
1, 325140, Note_on_c, 1, 57, 127
1, 325140, Note_on_c, 1, 38, 127
1, 325200, Note_on_c, 1, 67, 127
1, 325200, Note_on_c, 1, 64, 127
1, 325259, Note_off_c, 1, 78, 0
1, 325259, Note_off_c, 1, 74, 0
1, 325259, Note_off_c, 1, 69, 0
1, 325259, Note_off_c, 1, 50, 0
1, 325259, Note_off_c, 1, 66, 0
1, 325259, Note_off_c, 1, 62, 0
1, 325259, Note_off_c, 1, 57, 0
1, 325259, Note_off_c, 1, 38, 0
1, 325259, Note_off_c, 1, 67, 0
1, 325259, Note_off_c, 1, 64, 0
1, 325260, Note_on_c, 1, 74, 127
1, 325260, Note_on_c, 1, 69, 127
1, 325260, Note_on_c, 1, 66, 127
1, 325260, Note_on_c, 1, 50, 127
1, 325260, Note_on_c, 1, 62, 127
1, 325260, Note_on_c, 1, 57, 127
1, 325260, Note_on_c, 1, 54, 127
1, 325320, Note_on_c, 1, 67, 127
1, 325320, Note_on_c, 1, 64, 127
1, 325379, Note_off_c, 1, 74, 0
1, 325379, Note_off_c, 1, 69, 0
1, 325379, Note_off_c, 1, 66, 0
1, 325379, Note_off_c, 1, 50, 0
1, 325379, Note_off_c, 1, 62, 0
1, 325379, Note_off_c, 1, 57, 0
1, 325379, Note_off_c, 1, 54, 0
1, 325379, Note_off_c, 1, 67, 0
1, 325379, Note_off_c, 1, 64, 0
1, 325380, Note_on_c, 1, 81, 127
1, 325380, Note_on_c, 1, 78, 127
1, 325380, Note_on_c, 1, 74, 127
1, 325380, Note_on_c, 1, 50, 127
1, 325380, Note_on_c, 1, 66, 127
1, 325380, Note_on_c, 1, 62, 127
1, 325380, Note_on_c, 1, 69, 127
1, 325499, Note_off_c, 1, 81, 0
1, 325499, Note_off_c, 1, 78, 0
1, 325499, Note_off_c, 1, 74, 0
1, 325499, Note_off_c, 1, 50, 0
1, 325499, Note_off_c, 1, 66, 0
1, 325499, Note_off_c, 1, 62, 0
1, 325499, Note_off_c, 1, 69, 0
1, 325500, Note_on_c, 1, 81, 127
1, 325500, Note_on_c, 1, 78, 127
1, 325500, Note_on_c, 1, 74, 127
1, 325500, Note_on_c, 1, 50, 127
1, 325500, Note_on_c, 1, 66, 127
1, 325500, Note_on_c, 1, 69, 127
1, 325500, Note_on_c, 1, 62, 127
1, 325559, Note_off_c, 1, 81, 0
1, 325559, Note_off_c, 1, 78, 0
1, 325559, Note_off_c, 1, 66, 0
1, 325559, Note_off_c, 1, 69, 0
1, 325560, Note_on_c, 1, 79, 127
1, 325560, Note_on_c, 1, 76, 127
1, 325560, Note_on_c, 1, 64, 127
1, 325560, Note_on_c, 1, 67, 127
1, 325619, Note_off_c, 1, 74, 0
1, 325619, Note_off_c, 1, 50, 0
1, 325619, Note_off_c, 1, 62, 0
1, 325619, Note_off_c, 1, 79, 0
1, 325619, Note_off_c, 1, 76, 0
1, 325619, Note_off_c, 1, 64, 0
1, 325619, Note_off_c, 1, 67, 0
1, 325620, Note_on_c, 1, 83, 127
1, 325620, Note_on_c, 1, 79, 127
1, 325620, Note_on_c, 1, 74, 127
1, 325620, Note_on_c, 1, 50, 127
1, 325620, Note_on_c, 1, 67, 127
1, 325620, Note_on_c, 1, 71, 127
1, 325620, Note_on_c, 1, 62, 127
1, 325620, Note_on_c, 1, 43, 127
1, 325679, Note_off_c, 1, 50, 0
1, 325739, Note_off_c, 1, 83, 0
1, 325739, Note_off_c, 1, 79, 0
1, 325739, Note_off_c, 1, 74, 0
1, 325739, Note_off_c, 1, 67, 0
1, 325739, Note_off_c, 1, 71, 0
1, 325739, Note_off_c, 1, 62, 0
1, 325739, Note_off_c, 1, 43, 0
1, 325740, Note_on_c, 1, 81, 127
1, 325740, Note_on_c, 1, 78, 127
1, 325740, Note_on_c, 1, 74, 127
1, 325740, Note_on_c, 1, 50, 127
1, 325740, Note_on_c, 1, 66, 127
1, 325740, Note_on_c, 1, 69, 127
1, 325740, Note_on_c, 1, 62, 127
1, 325740, Note_on_c, 1, 43, 127
1, 325799, Note_off_c, 1, 81, 0
1, 325799, Note_off_c, 1, 78, 0
1, 325799, Note_off_c, 1, 50, 0
1, 325799, Note_off_c, 1, 66, 0
1, 325799, Note_off_c, 1, 69, 0
1, 325800, Note_on_c, 1, 79, 127
1, 325800, Note_on_c, 1, 76, 127
1, 325800, Note_on_c, 1, 64, 127
1, 325800, Note_on_c, 1, 67, 127
1, 325859, Note_off_c, 1, 74, 0
1, 325859, Note_off_c, 1, 62, 0
1, 325859, Note_off_c, 1, 43, 0
1, 325859, Note_off_c, 1, 79, 0
1, 325859, Note_off_c, 1, 76, 0
1, 325859, Note_off_c, 1, 64, 0
1, 325859, Note_off_c, 1, 67, 0
1, 325860, Note_on_c, 1, 81, 127
1, 325860, Note_on_c, 1, 78, 127
1, 325860, Note_on_c, 1, 74, 127
1, 325860, Note_on_c, 1, 50, 127
1, 325860, Note_on_c, 1, 66, 127
1, 325860, Note_on_c, 1, 69, 127
1, 325860, Note_on_c, 1, 62, 127
1, 325919, Note_off_c, 1, 50, 0
1, 325920, Note_on_c, 1, 52, 127
1, 325979, Note_off_c, 1, 81, 0
1, 325979, Note_off_c, 1, 78, 0
1, 325979, Note_off_c, 1, 74, 0
1, 325979, Note_off_c, 1, 66, 0
1, 325979, Note_off_c, 1, 69, 0
1, 325979, Note_off_c, 1, 62, 0
1, 325979, Note_off_c, 1, 52, 0
1, 325980, Note_on_c, 1, 79, 127
1, 325980, Note_on_c, 1, 76, 127
1, 325980, Note_on_c, 1, 69, 127
1, 325980, Note_on_c, 1, 50, 127
1, 325980, Note_on_c, 1, 67, 127
1, 325980, Note_on_c, 1, 64, 127
1, 325980, Note_on_c, 1, 57, 127
1, 325980, Note_on_c, 1, 54, 127
1, 326039, Note_off_c, 1, 79, 0
1, 326039, Note_off_c, 1, 76, 0
1, 326039, Note_off_c, 1, 50, 0
1, 326039, Note_off_c, 1, 67, 0
1, 326039, Note_off_c, 1, 64, 0
1, 326039, Note_off_c, 1, 54, 0
1, 326040, Note_on_c, 1, 78, 127
1, 326040, Note_on_c, 1, 74, 127
1, 326040, Note_on_c, 1, 66, 127
1, 326040, Note_on_c, 1, 62, 127
1, 326040, Note_on_c, 1, 55, 127
1, 326099, Note_off_c, 1, 69, 0
1, 326099, Note_off_c, 1, 57, 0
1, 326099, Note_off_c, 1, 78, 0
1, 326099, Note_off_c, 1, 74, 0
1, 326099, Note_off_c, 1, 66, 0
1, 326099, Note_off_c, 1, 62, 0
1, 326099, Note_off_c, 1, 55, 0
1, 326100, Note_on_c, 1, 76, 127
1, 326100, Note_on_c, 1, 81, 127
1, 326100, Note_on_c, 1, 69, 127
1, 326100, Note_on_c, 1, 45, 127
1, 326100, Note_on_c, 1, 64, 127
1, 326100, Note_on_c, 1, 57, 127
1, 326100, Note_on_c, 1, 73, 127
1, 326100, Note_on_c, 1, 61, 127
1, 326160, Note_on_c, 1, 56, 127
1, 326219, Note_off_c, 1, 56, 0
1, 326339, Note_off_c, 1, 76, 0
1, 326339, Note_off_c, 1, 81, 0
1, 326339, Note_off_c, 1, 69, 0
1, 326339, Note_off_c, 1, 45, 0
1, 326339, Note_off_c, 1, 64, 0
1, 326339, Note_off_c, 1, 57, 0
1, 326339, Note_off_c, 1, 73, 0
1, 326339, Note_off_c, 1, 61, 0
1, 326340, Note_on_c, 1, 85, 127
1, 326340, Note_on_c, 1, 81, 127
1, 326340, Note_on_c, 1, 76, 127
1, 326340, Note_on_c, 1, 45, 127
1, 326340, Note_on_c, 1, 73, 127
1, 326340, Note_on_c, 1, 69, 127
1, 326340, Note_on_c, 1, 88, 127
1, 326340, Note_on_c, 1, 57, 127
1, 326399, Note_off_c, 1, 45, 0
1, 326400, Note_on_c, 1, 71, 127
1, 326400, Note_on_c, 1, 68, 127
1, 326459, Note_off_c, 1, 71, 0
1, 326459, Note_off_c, 1, 68, 0
1, 326579, Note_off_c, 1, 85, 0
1, 326579, Note_off_c, 1, 81, 0
1, 326579, Note_off_c, 1, 76, 0
1, 326579, Note_off_c, 1, 73, 0
1, 326579, Note_off_c, 1, 69, 0
1, 326579, Note_off_c, 1, 88, 0
1, 326579, Note_off_c, 1, 57, 0
1, 326580, Note_on_c, 1, 81, 127
1, 326580, Note_on_c, 1, 76, 127
1, 326580, Note_on_c, 1, 69, 127
1, 326580, Note_on_c, 1, 45, 127
1, 326580, Note_on_c, 1, 73, 127
1, 326580, Note_on_c, 1, 85, 127
1, 326580, Note_on_c, 1, 64, 127
1, 326819, Note_off_c, 1, 81, 0
1, 326819, Note_off_c, 1, 76, 0
1, 326819, Note_off_c, 1, 69, 0
1, 326819, Note_off_c, 1, 45, 0
1, 326819, Note_off_c, 1, 73, 0
1, 326819, Note_off_c, 1, 85, 0
1, 326819, Note_off_c, 1, 64, 0
1, 326820, Note_on_c, 1, 64, 127
1, 326820, Note_on_c, 1, 81, 127
1, 326820, Note_on_c, 1, 73, 127
1, 326820, Note_on_c, 1, 69, 127
1, 326820, Note_on_c, 1, 61, 127
1, 326820, Note_on_c, 1, 57, 127
1, 326820, Note_on_c, 1, 52, 127
1, 326939, Note_off_c, 1, 64, 0
1, 326939, Note_off_c, 1, 81, 0
1, 326939, Note_off_c, 1, 73, 0
1, 326939, Note_off_c, 1, 69, 0
1, 326939, Note_off_c, 1, 61, 0
1, 326939, Note_off_c, 1, 57, 0
1, 326939, Note_off_c, 1, 52, 0
1, 326940, Note_on_c, 1, 64, 127
1, 326940, Note_on_c, 1, 81, 127
1, 326940, Note_on_c, 1, 73, 127
1, 326940, Note_on_c, 1, 69, 127
1, 326940, Note_on_c, 1, 61, 127
1, 326940, Note_on_c, 1, 57, 127
1, 326940, Note_on_c, 1, 52, 127
1, 326999, Note_off_c, 1, 81, 0
1, 326999, Note_off_c, 1, 73, 0
1, 326999, Note_off_c, 1, 69, 0
1, 326999, Note_off_c, 1, 61, 0
1, 326999, Note_off_c, 1, 57, 0
1, 327000, Note_on_c, 1, 80, 127
1, 327000, Note_on_c, 1, 71, 127
1, 327000, Note_on_c, 1, 68, 127
1, 327000, Note_on_c, 1, 59, 127
1, 327000, Note_on_c, 1, 56, 127
1, 327059, Note_off_c, 1, 64, 0
1, 327059, Note_off_c, 1, 52, 0
1, 327059, Note_off_c, 1, 80, 0
1, 327059, Note_off_c, 1, 71, 0
1, 327059, Note_off_c, 1, 68, 0
1, 327059, Note_off_c, 1, 59, 0
1, 327059, Note_off_c, 1, 56, 0
1, 327060, Note_on_c, 1, 64, 127
1, 327060, Note_on_c, 1, 83, 127
1, 327060, Note_on_c, 1, 74, 127
1, 327060, Note_on_c, 1, 71, 127
1, 327060, Note_on_c, 1, 62, 127
1, 327060, Note_on_c, 1, 59, 127
1, 327060, Note_on_c, 1, 56, 127
1, 327179, Note_off_c, 1, 64, 0
1, 327179, Note_off_c, 1, 83, 0
1, 327179, Note_off_c, 1, 74, 0
1, 327179, Note_off_c, 1, 71, 0
1, 327179, Note_off_c, 1, 62, 0
1, 327179, Note_off_c, 1, 59, 0
1, 327179, Note_off_c, 1, 56, 0
1, 327180, Note_on_c, 1, 64, 127
1, 327180, Note_on_c, 1, 81, 127
1, 327180, Note_on_c, 1, 73, 127
1, 327180, Note_on_c, 1, 69, 127
1, 327180, Note_on_c, 1, 61, 127
1, 327180, Note_on_c, 1, 57, 127
1, 327239, Note_off_c, 1, 81, 0
1, 327239, Note_off_c, 1, 73, 0
1, 327239, Note_off_c, 1, 69, 0
1, 327239, Note_off_c, 1, 61, 0
1, 327239, Note_off_c, 1, 57, 0
1, 327240, Note_on_c, 1, 80, 127
1, 327240, Note_on_c, 1, 71, 127
1, 327240, Note_on_c, 1, 68, 127
1, 327240, Note_on_c, 1, 59, 127
1, 327240, Note_on_c, 1, 56, 127
1, 327299, Note_off_c, 1, 64, 0
1, 327299, Note_off_c, 1, 80, 0
1, 327299, Note_off_c, 1, 71, 0
1, 327299, Note_off_c, 1, 68, 0
1, 327299, Note_off_c, 1, 59, 0
1, 327299, Note_off_c, 1, 56, 0
1, 327300, Note_on_c, 1, 64, 127
1, 327300, Note_on_c, 1, 81, 127
1, 327300, Note_on_c, 1, 73, 127
1, 327300, Note_on_c, 1, 69, 127
1, 327300, Note_on_c, 1, 61, 127
1, 327300, Note_on_c, 1, 57, 127
1, 327300, Note_on_c, 1, 52, 127
1, 327419, Note_off_c, 1, 64, 0
1, 327419, Note_off_c, 1, 81, 0
1, 327419, Note_off_c, 1, 73, 0
1, 327419, Note_off_c, 1, 69, 0
1, 327419, Note_off_c, 1, 61, 0
1, 327419, Note_off_c, 1, 57, 0
1, 327419, Note_off_c, 1, 52, 0
1, 327420, Note_on_c, 1, 64, 127
1, 327420, Note_on_c, 1, 81, 127
1, 327420, Note_on_c, 1, 73, 127
1, 327420, Note_on_c, 1, 69, 127
1, 327420, Note_on_c, 1, 61, 127
1, 327420, Note_on_c, 1, 57, 127
1, 327420, Note_on_c, 1, 52, 127
1, 327479, Note_off_c, 1, 81, 0
1, 327479, Note_off_c, 1, 73, 0
1, 327479, Note_off_c, 1, 69, 0
1, 327479, Note_off_c, 1, 61, 0
1, 327479, Note_off_c, 1, 57, 0
1, 327480, Note_on_c, 1, 80, 127
1, 327480, Note_on_c, 1, 71, 127
1, 327480, Note_on_c, 1, 68, 127
1, 327480, Note_on_c, 1, 59, 127
1, 327480, Note_on_c, 1, 56, 127
1, 327539, Note_off_c, 1, 64, 0
1, 327539, Note_off_c, 1, 52, 0
1, 327539, Note_off_c, 1, 80, 0
1, 327539, Note_off_c, 1, 71, 0
1, 327539, Note_off_c, 1, 68, 0
1, 327539, Note_off_c, 1, 59, 0
1, 327539, Note_off_c, 1, 56, 0
1, 327540, Note_on_c, 1, 64, 127
1, 327540, Note_on_c, 1, 83, 127
1, 327540, Note_on_c, 1, 74, 127
1, 327540, Note_on_c, 1, 71, 127
1, 327540, Note_on_c, 1, 62, 127
1, 327540, Note_on_c, 1, 59, 127
1, 327540, Note_on_c, 1, 56, 127
1, 327659, Note_off_c, 1, 64, 0
1, 327659, Note_off_c, 1, 83, 0
1, 327659, Note_off_c, 1, 74, 0
1, 327659, Note_off_c, 1, 71, 0
1, 327659, Note_off_c, 1, 62, 0
1, 327659, Note_off_c, 1, 59, 0
1, 327659, Note_off_c, 1, 56, 0
1, 327660, Note_on_c, 1, 64, 127
1, 327660, Note_on_c, 1, 81, 127
1, 327660, Note_on_c, 1, 73, 127
1, 327660, Note_on_c, 1, 69, 127
1, 327660, Note_on_c, 1, 61, 127
1, 327660, Note_on_c, 1, 57, 127
1, 327719, Note_off_c, 1, 81, 0
1, 327719, Note_off_c, 1, 73, 0
1, 327719, Note_off_c, 1, 69, 0
1, 327719, Note_off_c, 1, 61, 0
1, 327719, Note_off_c, 1, 57, 0
1, 327720, Note_on_c, 1, 80, 127
1, 327720, Note_on_c, 1, 71, 127
1, 327720, Note_on_c, 1, 68, 127
1, 327720, Note_on_c, 1, 59, 127
1, 327720, Note_on_c, 1, 56, 127
1, 327779, Note_off_c, 1, 64, 0
1, 327779, Note_off_c, 1, 80, 0
1, 327779, Note_off_c, 1, 71, 0
1, 327779, Note_off_c, 1, 68, 0
1, 327779, Note_off_c, 1, 59, 0
1, 327779, Note_off_c, 1, 56, 0
1, 327780, Note_on_c, 1, 85, 127
1, 327780, Note_on_c, 1, 81, 127
1, 327780, Note_on_c, 1, 76, 127
1, 327780, Note_on_c, 1, 45, 127
1, 327780, Note_on_c, 1, 69, 127
1, 327780, Note_on_c, 1, 73, 127
1, 327780, Note_on_c, 1, 64, 127
1, 327780, Note_on_c, 1, 57, 127
1, 327839, Note_off_c, 1, 45, 0
1, 327840, Note_on_c, 1, 71, 127
1, 327840, Note_on_c, 1, 68, 127
1, 327899, Note_off_c, 1, 71, 0
1, 327899, Note_off_c, 1, 68, 0
1, 328019, Note_off_c, 1, 85, 0
1, 328019, Note_off_c, 1, 81, 0
1, 328019, Note_off_c, 1, 76, 0
1, 328019, Note_off_c, 1, 69, 0
1, 328019, Note_off_c, 1, 73, 0
1, 328019, Note_off_c, 1, 64, 0
1, 328019, Note_off_c, 1, 57, 0
1, 328020, Note_on_c, 1, 81, 127
1, 328020, Note_on_c, 1, 76, 127
1, 328020, Note_on_c, 1, 69, 127
1, 328020, Note_on_c, 1, 45, 127
1, 328020, Note_on_c, 1, 73, 127
1, 328020, Note_on_c, 1, 64, 127
1, 328020, Note_on_c, 1, 61, 127
1, 328259, Note_off_c, 1, 81, 0
1, 328259, Note_off_c, 1, 76, 0
1, 328259, Note_off_c, 1, 69, 0
1, 328259, Note_off_c, 1, 45, 0
1, 328259, Note_off_c, 1, 73, 0
1, 328259, Note_off_c, 1, 64, 0
1, 328259, Note_off_c, 1, 61, 0
1, 328260, Note_on_c, 1, 57, 127
1, 328260, Note_on_c, 1, 85, 127
1, 328260, Note_on_c, 1, 76, 127
1, 328260, Note_on_c, 1, 73, 127
1, 328260, Note_on_c, 1, 64, 127
1, 328260, Note_on_c, 1, 61, 127
1, 328379, Note_off_c, 1, 57, 0
1, 328379, Note_off_c, 1, 85, 0
1, 328379, Note_off_c, 1, 76, 0
1, 328379, Note_off_c, 1, 73, 0
1, 328379, Note_off_c, 1, 64, 0
1, 328379, Note_off_c, 1, 61, 0
1, 328380, Note_on_c, 1, 57, 127
1, 328380, Note_on_c, 1, 85, 127
1, 328380, Note_on_c, 1, 76, 127
1, 328380, Note_on_c, 1, 73, 127
1, 328380, Note_on_c, 1, 64, 127
1, 328380, Note_on_c, 1, 61, 127
1, 328439, Note_off_c, 1, 85, 0
1, 328439, Note_off_c, 1, 76, 0
1, 328439, Note_off_c, 1, 73, 0
1, 328439, Note_off_c, 1, 64, 0
1, 328439, Note_off_c, 1, 61, 0
1, 328440, Note_on_c, 1, 83, 127
1, 328440, Note_on_c, 1, 74, 127
1, 328440, Note_on_c, 1, 71, 127
1, 328440, Note_on_c, 1, 62, 127
1, 328440, Note_on_c, 1, 59, 127
1, 328499, Note_off_c, 1, 57, 0
1, 328499, Note_off_c, 1, 83, 0
1, 328499, Note_off_c, 1, 74, 0
1, 328499, Note_off_c, 1, 71, 0
1, 328499, Note_off_c, 1, 62, 0
1, 328499, Note_off_c, 1, 59, 0
1, 328500, Note_on_c, 1, 57, 127
1, 328500, Note_on_c, 1, 86, 127
1, 328500, Note_on_c, 1, 78, 127
1, 328500, Note_on_c, 1, 74, 127
1, 328500, Note_on_c, 1, 66, 127
1, 328500, Note_on_c, 1, 62, 127
1, 328500, Note_on_c, 1, 56, 127
1, 328619, Note_off_c, 1, 57, 0
1, 328619, Note_off_c, 1, 86, 0
1, 328619, Note_off_c, 1, 78, 0
1, 328619, Note_off_c, 1, 74, 0
1, 328619, Note_off_c, 1, 66, 0
1, 328619, Note_off_c, 1, 62, 0
1, 328619, Note_off_c, 1, 56, 0
1, 328620, Note_on_c, 1, 57, 127
1, 328620, Note_on_c, 1, 85, 127
1, 328620, Note_on_c, 1, 76, 127
1, 328620, Note_on_c, 1, 73, 127
1, 328620, Note_on_c, 1, 64, 127
1, 328620, Note_on_c, 1, 61, 127
1, 328679, Note_off_c, 1, 85, 0
1, 328679, Note_off_c, 1, 76, 0
1, 328679, Note_off_c, 1, 73, 0
1, 328679, Note_off_c, 1, 64, 0
1, 328679, Note_off_c, 1, 61, 0
1, 328680, Note_on_c, 1, 83, 127
1, 328680, Note_on_c, 1, 74, 127
1, 328680, Note_on_c, 1, 71, 127
1, 328680, Note_on_c, 1, 62, 127
1, 328680, Note_on_c, 1, 59, 127
1, 328739, Note_off_c, 1, 57, 0
1, 328739, Note_off_c, 1, 83, 0
1, 328739, Note_off_c, 1, 74, 0
1, 328739, Note_off_c, 1, 71, 0
1, 328739, Note_off_c, 1, 62, 0
1, 328739, Note_off_c, 1, 59, 0
1, 328740, Note_on_c, 1, 57, 127
1, 328740, Note_on_c, 1, 85, 127
1, 328740, Note_on_c, 1, 76, 127
1, 328740, Note_on_c, 1, 73, 127
1, 328740, Note_on_c, 1, 64, 127
1, 328740, Note_on_c, 1, 61, 127
1, 328859, Note_off_c, 1, 57, 0
1, 328859, Note_off_c, 1, 85, 0
1, 328859, Note_off_c, 1, 76, 0
1, 328859, Note_off_c, 1, 73, 0
1, 328859, Note_off_c, 1, 64, 0
1, 328859, Note_off_c, 1, 61, 0
1, 328860, Note_on_c, 1, 57, 127
1, 328860, Note_on_c, 1, 85, 127
1, 328860, Note_on_c, 1, 76, 127
1, 328860, Note_on_c, 1, 73, 127
1, 328860, Note_on_c, 1, 64, 127
1, 328860, Note_on_c, 1, 61, 127
1, 328919, Note_off_c, 1, 85, 0
1, 328919, Note_off_c, 1, 76, 0
1, 328919, Note_off_c, 1, 73, 0
1, 328919, Note_off_c, 1, 64, 0
1, 328919, Note_off_c, 1, 61, 0
1, 328920, Note_on_c, 1, 83, 127
1, 328920, Note_on_c, 1, 74, 127
1, 328920, Note_on_c, 1, 71, 127
1, 328920, Note_on_c, 1, 62, 127
1, 328920, Note_on_c, 1, 59, 127
1, 328979, Note_off_c, 1, 57, 0
1, 328979, Note_off_c, 1, 83, 0
1, 328979, Note_off_c, 1, 74, 0
1, 328979, Note_off_c, 1, 71, 0
1, 328979, Note_off_c, 1, 62, 0
1, 328979, Note_off_c, 1, 59, 0
1, 328980, Note_on_c, 1, 57, 127
1, 328980, Note_on_c, 1, 86, 127
1, 328980, Note_on_c, 1, 78, 127
1, 328980, Note_on_c, 1, 74, 127
1, 328980, Note_on_c, 1, 66, 127
1, 328980, Note_on_c, 1, 62, 127
1, 328980, Note_on_c, 1, 56, 127
1, 329099, Note_off_c, 1, 57, 0
1, 329099, Note_off_c, 1, 86, 0
1, 329099, Note_off_c, 1, 78, 0
1, 329099, Note_off_c, 1, 74, 0
1, 329099, Note_off_c, 1, 66, 0
1, 329099, Note_off_c, 1, 62, 0
1, 329099, Note_off_c, 1, 56, 0
1, 329100, Note_on_c, 1, 57, 127
1, 329100, Note_on_c, 1, 85, 127
1, 329100, Note_on_c, 1, 76, 127
1, 329100, Note_on_c, 1, 73, 127
1, 329100, Note_on_c, 1, 64, 127
1, 329100, Note_on_c, 1, 61, 127
1, 329159, Note_off_c, 1, 85, 0
1, 329159, Note_off_c, 1, 76, 0
1, 329159, Note_off_c, 1, 73, 0
1, 329159, Note_off_c, 1, 64, 0
1, 329159, Note_off_c, 1, 61, 0
1, 329160, Note_on_c, 1, 83, 127
1, 329160, Note_on_c, 1, 74, 127
1, 329160, Note_on_c, 1, 71, 127
1, 329160, Note_on_c, 1, 62, 127
1, 329160, Note_on_c, 1, 59, 127
1, 329219, Note_off_c, 1, 57, 0
1, 329219, Note_off_c, 1, 83, 0
1, 329219, Note_off_c, 1, 74, 0
1, 329219, Note_off_c, 1, 71, 0
1, 329219, Note_off_c, 1, 62, 0
1, 329219, Note_off_c, 1, 59, 0
1, 329220, Note_on_c, 1, 85, 127
1, 329220, Note_on_c, 1, 81, 127
1, 329220, Note_on_c, 1, 76, 127
1, 329220, Note_on_c, 1, 45, 127
1, 329220, Note_on_c, 1, 69, 127
1, 329220, Note_on_c, 1, 73, 127
1, 329220, Note_on_c, 1, 64, 127
1, 329220, Note_on_c, 1, 61, 127
1, 329220, Note_on_c, 1, 57, 127
1, 329279, Note_off_c, 1, 45, 0
1, 329280, Note_on_c, 1, 71, 127
1, 329280, Note_on_c, 1, 68, 127
1, 329339, Note_off_c, 1, 71, 0
1, 329339, Note_off_c, 1, 68, 0
1, 329459, Note_off_c, 1, 85, 0
1, 329459, Note_off_c, 1, 81, 0
1, 329459, Note_off_c, 1, 76, 0
1, 329459, Note_off_c, 1, 69, 0
1, 329459, Note_off_c, 1, 73, 0
1, 329459, Note_off_c, 1, 64, 0
1, 329459, Note_off_c, 1, 61, 0
1, 329459, Note_off_c, 1, 57, 0
1, 329460, Note_on_c, 1, 81, 127
1, 329460, Note_on_c, 1, 76, 127
1, 329460, Note_on_c, 1, 69, 127
1, 329460, Note_on_c, 1, 45, 127
1, 329460, Note_on_c, 1, 73, 127
1, 329460, Note_on_c, 1, 64, 127
1, 329460, Note_on_c, 1, 61, 127
1, 329460, Note_on_c, 1, 57, 127
1, 329699, Note_off_c, 1, 81, 0
1, 329699, Note_off_c, 1, 76, 0
1, 329699, Note_off_c, 1, 69, 0
1, 329699, Note_off_c, 1, 45, 0
1, 329699, Note_off_c, 1, 73, 0
1, 329699, Note_off_c, 1, 64, 0
1, 329699, Note_off_c, 1, 61, 0
1, 329699, Note_off_c, 1, 57, 0
1, 329700, Note_on_c, 1, 69, 127
1, 329700, Note_on_c, 1, 45, 127
1, 329700, Note_on_c, 1, 64, 127
1, 329700, Note_on_c, 1, 67, 127
1, 329700, Note_on_c, 1, 73, 127
1, 329700, Note_on_c, 1, 61, 127
1, 329700, Note_on_c, 1, 57, 127
1, 329700, Note_on_c, 1, 52, 127
1, 329759, Note_off_c, 1, 67, 0
1, 329760, Note_on_c, 1, 66, 127
1, 329760, Note_on_c, 1, 62, 127
1, 329819, Note_off_c, 1, 69, 0
1, 329819, Note_off_c, 1, 45, 0
1, 329819, Note_off_c, 1, 64, 0
1, 329819, Note_off_c, 1, 73, 0
1, 329819, Note_off_c, 1, 61, 0
1, 329819, Note_off_c, 1, 57, 0
1, 329819, Note_off_c, 1, 52, 0
1, 329819, Note_off_c, 1, 66, 0
1, 329819, Note_off_c, 1, 62, 0
1, 329820, Note_on_c, 1, 69, 127
1, 329820, Note_on_c, 1, 45, 127
1, 329820, Note_on_c, 1, 67, 127
1, 329820, Note_on_c, 1, 64, 127
1, 329820, Note_on_c, 1, 61, 127
1, 329820, Note_on_c, 1, 57, 127
1, 329820, Note_on_c, 1, 52, 127
1, 329879, Note_off_c, 1, 67, 0
1, 329880, Note_on_c, 1, 62, 127
1, 329880, Note_on_c, 1, 66, 127
1, 329939, Note_off_c, 1, 69, 0
1, 329939, Note_off_c, 1, 45, 0
1, 329939, Note_off_c, 1, 64, 0
1, 329939, Note_off_c, 1, 61, 0
1, 329939, Note_off_c, 1, 57, 0
1, 329939, Note_off_c, 1, 52, 0
1, 329939, Note_off_c, 1, 62, 0
1, 329939, Note_off_c, 1, 66, 0
1, 329940, Note_on_c, 1, 69, 127
1, 329940, Note_on_c, 1, 45, 127
1, 329940, Note_on_c, 1, 64, 127
1, 329940, Note_on_c, 1, 57, 127
1, 329940, Note_on_c, 1, 76, 127
1, 329940, Note_on_c, 1, 73, 127
1, 329940, Note_on_c, 1, 61, 127
1, 330000, Note_on_c, 1, 66, 127
1, 330000, Note_on_c, 1, 62, 127
1, 330059, Note_off_c, 1, 69, 0
1, 330059, Note_off_c, 1, 45, 0
1, 330059, Note_off_c, 1, 64, 0
1, 330059, Note_off_c, 1, 57, 0
1, 330059, Note_off_c, 1, 76, 0
1, 330059, Note_off_c, 1, 73, 0
1, 330059, Note_off_c, 1, 61, 0
1, 330059, Note_off_c, 1, 66, 0
1, 330059, Note_off_c, 1, 62, 0
1, 330060, Note_on_c, 1, 69, 127
1, 330060, Note_on_c, 1, 45, 127
1, 330060, Note_on_c, 1, 57, 127
1, 330060, Note_on_c, 1, 64, 127
1, 330060, Note_on_c, 1, 73, 127
1, 330060, Note_on_c, 1, 61, 127
1, 330060, Note_on_c, 1, 52, 127
1, 330120, Note_on_c, 1, 62, 127
1, 330120, Note_on_c, 1, 66, 127
1, 330179, Note_off_c, 1, 69, 0
1, 330179, Note_off_c, 1, 45, 0
1, 330179, Note_off_c, 1, 57, 0
1, 330179, Note_off_c, 1, 64, 0
1, 330179, Note_off_c, 1, 73, 0
1, 330179, Note_off_c, 1, 61, 0
1, 330179, Note_off_c, 1, 52, 0
1, 330179, Note_off_c, 1, 62, 0
1, 330179, Note_off_c, 1, 66, 0
1, 330180, Note_on_c, 1, 69, 127
1, 330180, Note_on_c, 1, 45, 127
1, 330180, Note_on_c, 1, 67, 127
1, 330180, Note_on_c, 1, 64, 127
1, 330180, Note_on_c, 1, 79, 127
1, 330180, Note_on_c, 1, 76, 127
1, 330180, Note_on_c, 1, 73, 127
1, 330180, Note_on_c, 1, 61, 127
1, 330240, Note_on_c, 1, 66, 127
1, 330240, Note_on_c, 1, 62, 127
1, 330299, Note_off_c, 1, 69, 0
1, 330299, Note_off_c, 1, 45, 0
1, 330299, Note_off_c, 1, 67, 0
1, 330299, Note_off_c, 1, 64, 0
1, 330299, Note_off_c, 1, 79, 0
1, 330299, Note_off_c, 1, 76, 0
1, 330299, Note_off_c, 1, 73, 0
1, 330299, Note_off_c, 1, 61, 0
1, 330299, Note_off_c, 1, 66, 0
1, 330299, Note_off_c, 1, 62, 0
1, 330300, Note_on_c, 1, 69, 127
1, 330300, Note_on_c, 1, 45, 127
1, 330300, Note_on_c, 1, 67, 127
1, 330300, Note_on_c, 1, 64, 127
1, 330300, Note_on_c, 1, 76, 127
1, 330300, Note_on_c, 1, 73, 127
1, 330300, Note_on_c, 1, 61, 127
1, 330300, Note_on_c, 1, 57, 127
1, 330359, Note_off_c, 1, 45, 0
1, 330359, Note_off_c, 1, 67, 0
1, 330360, Note_on_c, 1, 66, 127
1, 330360, Note_on_c, 1, 62, 127
1, 330419, Note_off_c, 1, 69, 0
1, 330419, Note_off_c, 1, 64, 0
1, 330419, Note_off_c, 1, 76, 0
1, 330419, Note_off_c, 1, 73, 0
1, 330419, Note_off_c, 1, 61, 0
1, 330419, Note_off_c, 1, 57, 0
1, 330419, Note_off_c, 1, 66, 0
1, 330419, Note_off_c, 1, 62, 0
1, 330420, Note_on_c, 1, 69, 127
1, 330420, Note_on_c, 1, 45, 127
1, 330420, Note_on_c, 1, 64, 127
1, 330420, Note_on_c, 1, 57, 127
1, 330420, Note_on_c, 1, 73, 127
1, 330420, Note_on_c, 1, 61, 127
1, 330420, Note_on_c, 1, 52, 127
1, 330480, Note_on_c, 1, 62, 127
1, 330480, Note_on_c, 1, 66, 127
1, 330539, Note_off_c, 1, 69, 0
1, 330539, Note_off_c, 1, 45, 0
1, 330539, Note_off_c, 1, 64, 0
1, 330539, Note_off_c, 1, 57, 0
1, 330539, Note_off_c, 1, 73, 0
1, 330539, Note_off_c, 1, 61, 0
1, 330539, Note_off_c, 1, 52, 0
1, 330539, Note_off_c, 1, 62, 0
1, 330539, Note_off_c, 1, 66, 0
1, 330540, Note_on_c, 1, 69, 127
1, 330540, Note_on_c, 1, 45, 127
1, 330540, Note_on_c, 1, 57, 127
1, 330540, Note_on_c, 1, 64, 127
1, 330540, Note_on_c, 1, 73, 127
1, 330540, Note_on_c, 1, 61, 127
1, 330540, Note_on_c, 1, 52, 127
1, 330599, Note_off_c, 1, 64, 0
1, 330600, Note_on_c, 1, 62, 127
1, 330600, Note_on_c, 1, 66, 127
1, 330659, Note_off_c, 1, 69, 0
1, 330659, Note_off_c, 1, 45, 0
1, 330659, Note_off_c, 1, 57, 0
1, 330659, Note_off_c, 1, 73, 0
1, 330659, Note_off_c, 1, 61, 0
1, 330659, Note_off_c, 1, 52, 0
1, 330659, Note_off_c, 1, 62, 0
1, 330659, Note_off_c, 1, 66, 0
1, 330660, Note_on_c, 1, 74, 127
1, 330660, Note_on_c, 1, 66, 127
1, 330660, Note_on_c, 1, 50, 127
1, 330660, Note_on_c, 1, 54, 127
1, 330660, Note_on_c, 1, 62, 127
1, 330660, Note_on_c, 1, 59, 127
1, 330660, Note_on_c, 1, 47, 127
1, 330719, Note_off_c, 1, 50, 0
1, 330719, Note_off_c, 1, 54, 0
1, 330720, Note_on_c, 1, 76, 127
1, 330720, Note_on_c, 1, 64, 127
1, 330720, Note_on_c, 1, 57, 127
1, 330779, Note_off_c, 1, 74, 0
1, 330779, Note_off_c, 1, 66, 0
1, 330779, Note_off_c, 1, 62, 0
1, 330779, Note_off_c, 1, 59, 0
1, 330779, Note_off_c, 1, 47, 0
1, 330779, Note_off_c, 1, 76, 0
1, 330779, Note_off_c, 1, 64, 0
1, 330779, Note_off_c, 1, 57, 0
1, 330780, Note_on_c, 1, 78, 127
1, 330780, Note_on_c, 1, 74, 127
1, 330780, Note_on_c, 1, 62, 127
1, 330780, Note_on_c, 1, 50, 127
1, 330780, Note_on_c, 1, 66, 127
1, 330780, Note_on_c, 1, 59, 127
1, 330780, Note_on_c, 1, 45, 127
1, 330839, Note_off_c, 1, 78, 0
1, 330839, Note_off_c, 1, 50, 0
1, 330839, Note_off_c, 1, 66, 0
1, 330839, Note_off_c, 1, 45, 0
1, 330840, Note_on_c, 1, 79, 127
1, 330840, Note_on_c, 1, 67, 127
1, 330840, Note_on_c, 1, 64, 127
1, 330840, Note_on_c, 1, 43, 127
1, 330899, Note_off_c, 1, 74, 0
1, 330899, Note_off_c, 1, 62, 0
1, 330899, Note_off_c, 1, 59, 0
1, 330899, Note_off_c, 1, 79, 0
1, 330899, Note_off_c, 1, 67, 0
1, 330899, Note_off_c, 1, 64, 0
1, 330899, Note_off_c, 1, 43, 0
1, 330900, Note_on_c, 1, 81, 127
1, 330900, Note_on_c, 1, 74, 127
1, 330900, Note_on_c, 1, 69, 127
1, 330900, Note_on_c, 1, 50, 127
1, 330900, Note_on_c, 1, 66, 127
1, 330900, Note_on_c, 1, 62, 127
1, 330900, Note_on_c, 1, 57, 127
1, 330900, Note_on_c, 1, 42, 127
1, 330959, Note_off_c, 1, 50, 0
1, 330959, Note_off_c, 1, 66, 0
1, 330960, Note_on_c, 1, 64, 127
1, 331019, Note_off_c, 1, 81, 0
1, 331019, Note_off_c, 1, 74, 0
1, 331019, Note_off_c, 1, 62, 0
1, 331019, Note_off_c, 1, 57, 0
1, 331019, Note_off_c, 1, 42, 0
1, 331019, Note_off_c, 1, 64, 0
1, 331020, Note_off_c, 1, 69, 0
1, 331020, Note_on_c, 1, 83, 127
1, 331020, Note_on_c, 1, 71, 127
1, 331020, Note_on_c, 1, 55, 127
1, 331020, Note_on_c, 1, 43, 127
1, 331079, Note_off_c, 1, 83, 0
1, 331079, Note_off_c, 1, 71, 0
1, 331139, Note_off_c, 1, 55, 0
1, 331139, Note_off_c, 1, 43, 0
1, 331140, Note_on_c, 1, 79, 127
1, 331140, Note_on_c, 1, 74, 127
1, 331140, Note_on_c, 1, 69, 127
1, 331140, Note_on_c, 1, 45, 127
1, 331140, Note_on_c, 1, 67, 127
1, 331140, Note_on_c, 1, 57, 127
1, 331140, Note_on_c, 1, 62, 127
1, 331140, Note_on_c, 1, 52, 127
1, 331199, Note_off_c, 1, 79, 0
1, 331199, Note_off_c, 1, 67, 0
1, 331200, Note_on_c, 1, 78, 127
1, 331200, Note_on_c, 1, 66, 127
1, 331259, Note_off_c, 1, 74, 0
1, 331259, Note_off_c, 1, 69, 0
1, 331259, Note_off_c, 1, 45, 0
1, 331259, Note_off_c, 1, 62, 0
1, 331259, Note_off_c, 1, 52, 0
1, 331259, Note_off_c, 1, 78, 0
1, 331259, Note_off_c, 1, 66, 0
1, 331260, Note_on_c, 1, 76, 127
1, 331260, Note_on_c, 1, 64, 127
1, 331260, Note_on_c, 1, 73, 127
1, 331260, Note_on_c, 1, 61, 127
1, 331319, Note_off_c, 1, 76, 0
1, 331319, Note_off_c, 1, 64, 0
1, 331379, Note_off_c, 1, 73, 0
1, 331379, Note_off_c, 1, 61, 0
1, 331380, Note_on_c, 1, 50, 127
1, 331380, Note_on_c, 1, 54, 127
1, 331380, Note_on_c, 1, 38, 127
1, 331619, Note_off_c, 1, 57, 0
1, 331619, Note_off_c, 1, 50, 0
1, 331619, Note_off_c, 1, 54, 0
1, 331619, Note_off_c, 1, 38, 0
1, 331620, Note_on_c, 1, 78, 127
1, 331620, Note_on_c, 1, 74, 127
1, 331620, Note_on_c, 1, 69, 127
1, 331620, Note_on_c, 1, 66, 127
1, 331620, Note_on_c, 1, 62, 127
1, 331620, Note_on_c, 1, 50, 127
1, 331679, Note_off_c, 1, 78, 0
1, 331680, Note_on_c, 1, 79, 127
1, 331680, Note_on_c, 1, 76, 127
1, 331739, Note_off_c, 1, 79, 0
1, 331739, Note_off_c, 1, 76, 0
1, 331859, Note_off_c, 1, 74, 0
1, 331859, Note_off_c, 1, 69, 0
1, 331859, Note_off_c, 1, 66, 0
1, 331859, Note_off_c, 1, 62, 0
1, 331859, Note_off_c, 1, 50, 0
1, 331860, Note_on_c, 1, 81, 127
1, 331860, Note_on_c, 1, 78, 127
1, 331860, Note_on_c, 1, 69, 127
1, 331860, Note_on_c, 1, 66, 127
1, 331860, Note_on_c, 1, 62, 127
1, 331860, Note_on_c, 1, 50, 127
1, 331860, Note_on_c, 1, 38, 127
1, 332099, Note_off_c, 1, 81, 0
1, 332099, Note_off_c, 1, 78, 0
1, 332099, Note_off_c, 1, 69, 0
1, 332099, Note_off_c, 1, 66, 0
1, 332099, Note_off_c, 1, 62, 0
1, 332099, Note_off_c, 1, 50, 0
1, 332099, Note_off_c, 1, 38, 0
1, 332100, Note_on_c, 1, 57, 127
1, 332100, Note_on_c, 1, 66, 127
1, 332100, Note_on_c, 1, 62, 127
1, 332219, Note_off_c, 1, 57, 0
1, 332219, Note_off_c, 1, 66, 0
1, 332219, Note_off_c, 1, 62, 0
1, 332220, Note_on_c, 1, 57, 127
1, 332220, Note_on_c, 1, 66, 127
1, 332220, Note_on_c, 1, 62, 127
1, 332279, Note_off_c, 1, 66, 0
1, 332279, Note_off_c, 1, 62, 0
1, 332280, Note_on_c, 1, 64, 127
1, 332280, Note_on_c, 1, 61, 127
1, 332339, Note_off_c, 1, 57, 0
1, 332339, Note_off_c, 1, 64, 0
1, 332339, Note_off_c, 1, 61, 0
1, 332340, Note_on_c, 1, 57, 127
1, 332340, Note_on_c, 1, 67, 127
1, 332340, Note_on_c, 1, 64, 127
1, 332340, Note_on_c, 1, 61, 127
1, 332459, Note_off_c, 1, 57, 0
1, 332459, Note_off_c, 1, 67, 0
1, 332459, Note_off_c, 1, 64, 0
1, 332459, Note_off_c, 1, 61, 0
1, 332460, Note_on_c, 1, 57, 127
1, 332460, Note_on_c, 1, 66, 127
1, 332460, Note_on_c, 1, 62, 127
1, 332519, Note_off_c, 1, 66, 0
1, 332519, Note_off_c, 1, 62, 0
1, 332520, Note_on_c, 1, 64, 127
1, 332520, Note_on_c, 1, 61, 127
1, 332579, Note_off_c, 1, 57, 0
1, 332579, Note_off_c, 1, 64, 0
1, 332579, Note_off_c, 1, 61, 0
1, 332580, Note_on_c, 1, 57, 127
1, 332580, Note_on_c, 1, 66, 127
1, 332580, Note_on_c, 1, 62, 127
1, 332699, Note_off_c, 1, 57, 0
1, 332699, Note_off_c, 1, 66, 0
1, 332699, Note_off_c, 1, 62, 0
1, 332700, Note_on_c, 1, 57, 127
1, 332700, Note_on_c, 1, 66, 127
1, 332700, Note_on_c, 1, 62, 127
1, 332759, Note_off_c, 1, 66, 0
1, 332759, Note_off_c, 1, 62, 0
1, 332760, Note_on_c, 1, 64, 127
1, 332760, Note_on_c, 1, 61, 127
1, 332819, Note_off_c, 1, 57, 0
1, 332819, Note_off_c, 1, 64, 0
1, 332819, Note_off_c, 1, 61, 0
1, 332820, Note_on_c, 1, 57, 127
1, 332820, Note_on_c, 1, 67, 127
1, 332820, Note_on_c, 1, 64, 127
1, 332820, Note_on_c, 1, 61, 127
1, 332939, Note_off_c, 1, 57, 0
1, 332939, Note_off_c, 1, 67, 0
1, 332939, Note_off_c, 1, 64, 0
1, 332939, Note_off_c, 1, 61, 0
1, 332940, Note_on_c, 1, 57, 127
1, 332940, Note_on_c, 1, 66, 127
1, 332940, Note_on_c, 1, 62, 127
1, 332999, Note_off_c, 1, 66, 0
1, 332999, Note_off_c, 1, 62, 0
1, 333000, Note_on_c, 1, 64, 127
1, 333000, Note_on_c, 1, 61, 127
1, 333059, Note_off_c, 1, 57, 0
1, 333059, Note_off_c, 1, 64, 0
1, 333059, Note_off_c, 1, 61, 0
1, 333060, Note_on_c, 1, 66, 127
1, 333060, Note_on_c, 1, 62, 127
1, 333060, Note_on_c, 1, 57, 127
1, 333060, Note_on_c, 1, 78, 127
1, 333060, Note_on_c, 1, 69, 127
1, 333060, Note_on_c, 1, 50, 127
1, 333120, Note_on_c, 1, 67, 127
1, 333120, Note_on_c, 1, 64, 127
1, 333179, Note_off_c, 1, 67, 0
1, 333179, Note_off_c, 1, 64, 0
1, 333299, Note_off_c, 1, 66, 0
1, 333299, Note_off_c, 1, 62, 0
1, 333299, Note_off_c, 1, 57, 0
1, 333299, Note_off_c, 1, 78, 0
1, 333299, Note_off_c, 1, 69, 0
1, 333299, Note_off_c, 1, 50, 0
1, 333300, Note_on_c, 1, 69, 127
1, 333300, Note_on_c, 1, 66, 127
1, 333300, Note_on_c, 1, 74, 127
1, 333300, Note_on_c, 1, 57, 127
1, 333300, Note_on_c, 1, 50, 127
1, 333300, Note_on_c, 1, 38, 127
1, 333539, Note_off_c, 1, 69, 0
1, 333539, Note_off_c, 1, 66, 0
1, 333539, Note_off_c, 1, 74, 0
1, 333539, Note_off_c, 1, 57, 0
1, 333539, Note_off_c, 1, 50, 0
1, 333539, Note_off_c, 1, 38, 0
1, 333540, Note_on_c, 1, 62, 127
1, 333540, Note_on_c, 1, 50, 127
1, 333540, Note_on_c, 1, 81, 127
1, 333540, Note_on_c, 1, 78, 127
1, 333540, Note_on_c, 1, 69, 127
1, 333540, Note_on_c, 1, 66, 127
1, 333659, Note_off_c, 1, 62, 0
1, 333659, Note_off_c, 1, 50, 0
1, 333659, Note_off_c, 1, 81, 0
1, 333659, Note_off_c, 1, 78, 0
1, 333659, Note_off_c, 1, 69, 0
1, 333659, Note_off_c, 1, 66, 0
1, 333660, Note_on_c, 1, 62, 127
1, 333660, Note_on_c, 1, 50, 127
1, 333660, Note_on_c, 1, 81, 127
1, 333660, Note_on_c, 1, 78, 127
1, 333660, Note_on_c, 1, 69, 127
1, 333660, Note_on_c, 1, 66, 127
1, 333719, Note_off_c, 1, 81, 0
1, 333719, Note_off_c, 1, 78, 0
1, 333719, Note_off_c, 1, 69, 0
1, 333719, Note_off_c, 1, 66, 0
1, 333720, Note_on_c, 1, 79, 127
1, 333720, Note_on_c, 1, 76, 127
1, 333720, Note_on_c, 1, 67, 127
1, 333720, Note_on_c, 1, 64, 127
1, 333779, Note_off_c, 1, 62, 0
1, 333779, Note_off_c, 1, 50, 0
1, 333779, Note_off_c, 1, 79, 0
1, 333779, Note_off_c, 1, 76, 0
1, 333779, Note_off_c, 1, 67, 0
1, 333779, Note_off_c, 1, 64, 0
1, 333780, Note_on_c, 1, 62, 127
1, 333780, Note_on_c, 1, 50, 127
1, 333780, Note_on_c, 1, 83, 127
1, 333780, Note_on_c, 1, 79, 127
1, 333780, Note_on_c, 1, 71, 127
1, 333780, Note_on_c, 1, 67, 127
1, 333780, Note_on_c, 1, 61, 127
1, 333899, Note_off_c, 1, 62, 0
1, 333899, Note_off_c, 1, 50, 0
1, 333899, Note_off_c, 1, 83, 0
1, 333899, Note_off_c, 1, 79, 0
1, 333899, Note_off_c, 1, 71, 0
1, 333899, Note_off_c, 1, 67, 0
1, 333899, Note_off_c, 1, 61, 0
1, 333900, Note_on_c, 1, 62, 127
1, 333900, Note_on_c, 1, 50, 127
1, 333900, Note_on_c, 1, 81, 127
1, 333900, Note_on_c, 1, 78, 127
1, 333900, Note_on_c, 1, 69, 127
1, 333900, Note_on_c, 1, 66, 127
1, 333959, Note_off_c, 1, 81, 0
1, 333959, Note_off_c, 1, 78, 0
1, 333959, Note_off_c, 1, 69, 0
1, 333959, Note_off_c, 1, 66, 0
1, 333960, Note_on_c, 1, 79, 127
1, 333960, Note_on_c, 1, 76, 127
1, 333960, Note_on_c, 1, 67, 127
1, 333960, Note_on_c, 1, 64, 127
1, 334019, Note_off_c, 1, 62, 0
1, 334019, Note_off_c, 1, 50, 0
1, 334019, Note_off_c, 1, 79, 0
1, 334019, Note_off_c, 1, 76, 0
1, 334019, Note_off_c, 1, 67, 0
1, 334019, Note_off_c, 1, 64, 0
1, 334020, Note_on_c, 1, 62, 127
1, 334020, Note_on_c, 1, 50, 127
1, 334020, Note_on_c, 1, 81, 127
1, 334020, Note_on_c, 1, 78, 127
1, 334020, Note_on_c, 1, 69, 127
1, 334020, Note_on_c, 1, 66, 127
1, 334139, Note_off_c, 1, 62, 0
1, 334139, Note_off_c, 1, 50, 0
1, 334139, Note_off_c, 1, 81, 0
1, 334139, Note_off_c, 1, 78, 0
1, 334139, Note_off_c, 1, 69, 0
1, 334139, Note_off_c, 1, 66, 0
1, 334140, Note_on_c, 1, 62, 127
1, 334140, Note_on_c, 1, 50, 127
1, 334140, Note_on_c, 1, 81, 127
1, 334140, Note_on_c, 1, 78, 127
1, 334140, Note_on_c, 1, 69, 127
1, 334140, Note_on_c, 1, 66, 127
1, 334199, Note_off_c, 1, 81, 0
1, 334199, Note_off_c, 1, 78, 0
1, 334199, Note_off_c, 1, 69, 0
1, 334199, Note_off_c, 1, 66, 0
1, 334200, Note_on_c, 1, 79, 127
1, 334200, Note_on_c, 1, 76, 127
1, 334200, Note_on_c, 1, 67, 127
1, 334200, Note_on_c, 1, 64, 127
1, 334259, Note_off_c, 1, 62, 0
1, 334259, Note_off_c, 1, 50, 0
1, 334259, Note_off_c, 1, 79, 0
1, 334259, Note_off_c, 1, 76, 0
1, 334259, Note_off_c, 1, 67, 0
1, 334259, Note_off_c, 1, 64, 0
1, 334260, Note_on_c, 1, 62, 127
1, 334260, Note_on_c, 1, 50, 127
1, 334260, Note_on_c, 1, 83, 127
1, 334260, Note_on_c, 1, 79, 127
1, 334260, Note_on_c, 1, 71, 127
1, 334260, Note_on_c, 1, 67, 127
1, 334260, Note_on_c, 1, 61, 127
1, 334379, Note_off_c, 1, 62, 0
1, 334379, Note_off_c, 1, 50, 0
1, 334379, Note_off_c, 1, 83, 0
1, 334379, Note_off_c, 1, 79, 0
1, 334379, Note_off_c, 1, 71, 0
1, 334379, Note_off_c, 1, 67, 0
1, 334379, Note_off_c, 1, 61, 0
1, 334380, Note_on_c, 1, 62, 127
1, 334380, Note_on_c, 1, 50, 127
1, 334380, Note_on_c, 1, 81, 127
1, 334380, Note_on_c, 1, 78, 127
1, 334380, Note_on_c, 1, 69, 127
1, 334380, Note_on_c, 1, 66, 127
1, 334439, Note_off_c, 1, 81, 0
1, 334439, Note_off_c, 1, 78, 0
1, 334439, Note_off_c, 1, 69, 0
1, 334439, Note_off_c, 1, 66, 0
1, 334440, Note_on_c, 1, 79, 127
1, 334440, Note_on_c, 1, 76, 127
1, 334440, Note_on_c, 1, 67, 127
1, 334440, Note_on_c, 1, 64, 127
1, 334499, Note_off_c, 1, 62, 0
1, 334499, Note_off_c, 1, 50, 0
1, 334499, Note_off_c, 1, 79, 0
1, 334499, Note_off_c, 1, 76, 0
1, 334499, Note_off_c, 1, 67, 0
1, 334499, Note_off_c, 1, 64, 0
1, 334500, Note_on_c, 1, 86, 127
1, 334500, Note_on_c, 1, 81, 127
1, 334500, Note_on_c, 1, 78, 127
1, 334500, Note_on_c, 1, 50, 127
1, 334500, Note_on_c, 1, 66, 127
1, 334500, Note_on_c, 1, 62, 127
1, 334500, Note_on_c, 1, 74, 127
1, 334500, Note_on_c, 1, 69, 127
1, 334560, Note_on_c, 1, 67, 127
1, 334560, Note_on_c, 1, 64, 127
1, 334619, Note_off_c, 1, 67, 0
1, 334619, Note_off_c, 1, 64, 0
1, 334739, Note_off_c, 1, 86, 0
1, 334739, Note_off_c, 1, 81, 0
1, 334739, Note_off_c, 1, 78, 0
1, 334739, Note_off_c, 1, 50, 0
1, 334739, Note_off_c, 1, 66, 0
1, 334739, Note_off_c, 1, 62, 0
1, 334739, Note_off_c, 1, 74, 0
1, 334739, Note_off_c, 1, 69, 0
1, 334740, Note_on_c, 1, 81, 127
1, 334740, Note_on_c, 1, 78, 127
1, 334740, Note_on_c, 1, 74, 127
1, 334740, Note_on_c, 1, 50, 127
1, 334740, Note_on_c, 1, 69, 127
1, 334740, Note_on_c, 1, 66, 127
1, 334740, Note_on_c, 1, 62, 127
1, 334740, Note_on_c, 1, 38, 127
1, 334979, Note_off_c, 1, 81, 0
1, 334979, Note_off_c, 1, 78, 0
1, 334979, Note_off_c, 1, 74, 0
1, 334979, Note_off_c, 1, 50, 0
1, 334979, Note_off_c, 1, 69, 0
1, 334979, Note_off_c, 1, 66, 0
1, 334979, Note_off_c, 1, 62, 0
1, 334979, Note_off_c, 1, 38, 0
1, 334980, Note_on_c, 1, 78, 127
1, 334980, Note_on_c, 1, 74, 127
1, 334980, Note_on_c, 1, 69, 127
1, 334980, Note_on_c, 1, 50, 127
1, 334980, Note_on_c, 1, 66, 127
1, 334980, Note_on_c, 1, 62, 127
1, 335040, Note_on_c, 1, 67, 127
1, 335040, Note_on_c, 1, 64, 127
1, 335099, Note_off_c, 1, 78, 0
1, 335099, Note_off_c, 1, 74, 0
1, 335099, Note_off_c, 1, 69, 0
1, 335099, Note_off_c, 1, 50, 0
1, 335099, Note_off_c, 1, 66, 0
1, 335099, Note_off_c, 1, 62, 0
1, 335099, Note_off_c, 1, 67, 0
1, 335099, Note_off_c, 1, 64, 0
1, 335100, Note_on_c, 1, 74, 127
1, 335100, Note_on_c, 1, 69, 127
1, 335100, Note_on_c, 1, 66, 127
1, 335100, Note_on_c, 1, 50, 127
1, 335100, Note_on_c, 1, 62, 127
1, 335100, Note_on_c, 1, 57, 127
1, 335100, Note_on_c, 1, 54, 127
1, 335100, Note_on_c, 1, 38, 127
1, 335160, Note_on_c, 1, 67, 127
1, 335160, Note_on_c, 1, 64, 127
1, 335219, Note_off_c, 1, 74, 0
1, 335219, Note_off_c, 1, 69, 0
1, 335219, Note_off_c, 1, 66, 0
1, 335219, Note_off_c, 1, 50, 0
1, 335219, Note_off_c, 1, 62, 0
1, 335219, Note_off_c, 1, 57, 0
1, 335219, Note_off_c, 1, 54, 0
1, 335219, Note_off_c, 1, 38, 0
1, 335219, Note_off_c, 1, 67, 0
1, 335219, Note_off_c, 1, 64, 0
1, 335220, Note_on_c, 1, 81, 127
1, 335220, Note_on_c, 1, 78, 127
1, 335220, Note_on_c, 1, 74, 127
1, 335220, Note_on_c, 1, 50, 127
1, 335220, Note_on_c, 1, 69, 127
1, 335220, Note_on_c, 1, 66, 127
1, 335220, Note_on_c, 1, 54, 127
1, 335220, Note_on_c, 1, 38, 127
1, 335280, Note_on_c, 1, 67, 127
1, 335280, Note_on_c, 1, 64, 127
1, 335339, Note_off_c, 1, 81, 0
1, 335339, Note_off_c, 1, 78, 0
1, 335339, Note_off_c, 1, 74, 0
1, 335339, Note_off_c, 1, 50, 0
1, 335339, Note_off_c, 1, 69, 0
1, 335339, Note_off_c, 1, 66, 0
1, 335339, Note_off_c, 1, 54, 0
1, 335339, Note_off_c, 1, 38, 0
1, 335339, Note_off_c, 1, 67, 0
1, 335339, Note_off_c, 1, 64, 0
1, 335340, Note_on_c, 1, 78, 127
1, 335340, Note_on_c, 1, 74, 127
1, 335340, Note_on_c, 1, 69, 127
1, 335340, Note_on_c, 1, 50, 127
1, 335340, Note_on_c, 1, 66, 127
1, 335340, Note_on_c, 1, 62, 127
1, 335340, Note_on_c, 1, 57, 127
1, 335400, Note_on_c, 1, 67, 127
1, 335400, Note_on_c, 1, 64, 127
1, 335459, Note_off_c, 1, 78, 0
1, 335459, Note_off_c, 1, 74, 0
1, 335459, Note_off_c, 1, 69, 0
1, 335459, Note_off_c, 1, 50, 0
1, 335459, Note_off_c, 1, 66, 0
1, 335459, Note_off_c, 1, 62, 0
1, 335459, Note_off_c, 1, 57, 0
1, 335459, Note_off_c, 1, 67, 0
1, 335459, Note_off_c, 1, 64, 0
1, 335460, Note_on_c, 1, 86, 127
1, 335460, Note_on_c, 1, 81, 127
1, 335460, Note_on_c, 1, 78, 127
1, 335460, Note_on_c, 1, 50, 127
1, 335460, Note_on_c, 1, 66, 127
1, 335460, Note_on_c, 1, 62, 127
1, 335460, Note_on_c, 1, 74, 127
1, 335460, Note_on_c, 1, 69, 127
1, 335460, Note_on_c, 1, 57, 127
1, 335519, Note_off_c, 1, 66, 0
1, 335519, Note_off_c, 1, 62, 0
1, 335520, Note_on_c, 1, 67, 127
1, 335520, Note_on_c, 1, 64, 127
1, 335579, Note_off_c, 1, 86, 0
1, 335579, Note_off_c, 1, 81, 0
1, 335579, Note_off_c, 1, 78, 0
1, 335579, Note_off_c, 1, 50, 0
1, 335579, Note_off_c, 1, 74, 0
1, 335579, Note_off_c, 1, 69, 0
1, 335579, Note_off_c, 1, 57, 0
1, 335579, Note_off_c, 1, 67, 0
1, 335579, Note_off_c, 1, 64, 0
1, 335580, Note_on_c, 1, 81, 127
1, 335580, Note_on_c, 1, 78, 127
1, 335580, Note_on_c, 1, 74, 127
1, 335580, Note_on_c, 1, 50, 127
1, 335580, Note_on_c, 1, 66, 127
1, 335580, Note_on_c, 1, 62, 127
1, 335580, Note_on_c, 1, 69, 127
1, 335580, Note_on_c, 1, 38, 127
1, 335639, Note_off_c, 1, 50, 0
1, 335640, Note_on_c, 1, 67, 127
1, 335640, Note_on_c, 1, 64, 127
1, 335699, Note_off_c, 1, 81, 0
1, 335699, Note_off_c, 1, 78, 0
1, 335699, Note_off_c, 1, 74, 0
1, 335699, Note_off_c, 1, 66, 0
1, 335699, Note_off_c, 1, 62, 0
1, 335699, Note_off_c, 1, 69, 0
1, 335699, Note_off_c, 1, 38, 0
1, 335699, Note_off_c, 1, 67, 0
1, 335699, Note_off_c, 1, 64, 0
1, 335700, Note_on_c, 1, 78, 127
1, 335700, Note_on_c, 1, 74, 127
1, 335700, Note_on_c, 1, 69, 127
1, 335700, Note_on_c, 1, 50, 127
1, 335700, Note_on_c, 1, 66, 127
1, 335700, Note_on_c, 1, 81, 127
1, 335700, Note_on_c, 1, 62, 127
1, 335700, Note_on_c, 1, 38, 127
1, 335760, Note_on_c, 1, 67, 127
1, 335760, Note_on_c, 1, 64, 127
1, 335819, Note_off_c, 1, 78, 0
1, 335819, Note_off_c, 1, 74, 0
1, 335819, Note_off_c, 1, 69, 0
1, 335819, Note_off_c, 1, 50, 0
1, 335819, Note_off_c, 1, 66, 0
1, 335819, Note_off_c, 1, 81, 0
1, 335819, Note_off_c, 1, 62, 0
1, 335819, Note_off_c, 1, 38, 0
1, 335819, Note_off_c, 1, 67, 0
1, 335819, Note_off_c, 1, 64, 0
1, 335820, Note_on_c, 1, 74, 127
1, 335820, Note_on_c, 1, 69, 127
1, 335820, Note_on_c, 1, 66, 127
1, 335820, Note_on_c, 1, 50, 127
1, 335820, Note_on_c, 1, 78, 127
1, 335820, Note_on_c, 1, 62, 127
1, 335880, Note_on_c, 1, 67, 127
1, 335880, Note_on_c, 1, 64, 127
1, 335939, Note_off_c, 1, 74, 0
1, 335939, Note_off_c, 1, 69, 0
1, 335939, Note_off_c, 1, 66, 0
1, 335939, Note_off_c, 1, 50, 0
1, 335939, Note_off_c, 1, 78, 0
1, 335939, Note_off_c, 1, 62, 0
1, 335939, Note_off_c, 1, 67, 0
1, 335939, Note_off_c, 1, 64, 0
1, 335940, Note_on_c, 1, 81, 127
1, 335940, Note_on_c, 1, 78, 127
1, 335940, Note_on_c, 1, 74, 127
1, 335940, Note_on_c, 1, 50, 127
1, 335940, Note_on_c, 1, 62, 127
1, 335940, Note_on_c, 1, 66, 127
1, 335940, Note_on_c, 1, 69, 127
1, 336059, Note_off_c, 1, 81, 0
1, 336059, Note_off_c, 1, 78, 0
1, 336059, Note_off_c, 1, 74, 0
1, 336059, Note_off_c, 1, 50, 0
1, 336059, Note_off_c, 1, 62, 0
1, 336059, Note_off_c, 1, 66, 0
1, 336059, Note_off_c, 1, 69, 0
1, 336060, Note_on_c, 1, 81, 127
1, 336060, Note_on_c, 1, 78, 127
1, 336060, Note_on_c, 1, 74, 127
1, 336060, Note_on_c, 1, 50, 127
1, 336060, Note_on_c, 1, 69, 127
1, 336060, Note_on_c, 1, 66, 127
1, 336060, Note_on_c, 1, 62, 127
1, 336119, Note_off_c, 1, 81, 0
1, 336119, Note_off_c, 1, 78, 0
1, 336119, Note_off_c, 1, 69, 0
1, 336119, Note_off_c, 1, 66, 0
1, 336120, Note_on_c, 1, 79, 127
1, 336120, Note_on_c, 1, 76, 127
1, 336120, Note_on_c, 1, 67, 127
1, 336120, Note_on_c, 1, 64, 127
1, 336179, Note_off_c, 1, 74, 0
1, 336179, Note_off_c, 1, 50, 0
1, 336179, Note_off_c, 1, 62, 0
1, 336179, Note_off_c, 1, 79, 0
1, 336179, Note_off_c, 1, 76, 0
1, 336179, Note_off_c, 1, 67, 0
1, 336179, Note_off_c, 1, 64, 0
1, 336180, Note_on_c, 1, 83, 127
1, 336180, Note_on_c, 1, 79, 127
1, 336180, Note_on_c, 1, 74, 127
1, 336180, Note_on_c, 1, 50, 127
1, 336180, Note_on_c, 1, 71, 127
1, 336180, Note_on_c, 1, 67, 127
1, 336180, Note_on_c, 1, 62, 127
1, 336180, Note_on_c, 1, 55, 127
1, 336180, Note_on_c, 1, 43, 127
1, 336239, Note_off_c, 1, 50, 0
1, 336299, Note_off_c, 1, 83, 0
1, 336299, Note_off_c, 1, 79, 0
1, 336299, Note_off_c, 1, 74, 0
1, 336299, Note_off_c, 1, 71, 0
1, 336299, Note_off_c, 1, 67, 0
1, 336299, Note_off_c, 1, 62, 0
1, 336299, Note_off_c, 1, 55, 0
1, 336299, Note_off_c, 1, 43, 0
1, 336300, Note_on_c, 1, 81, 127
1, 336300, Note_on_c, 1, 78, 127
1, 336300, Note_on_c, 1, 74, 127
1, 336300, Note_on_c, 1, 50, 127
1, 336300, Note_on_c, 1, 66, 127
1, 336300, Note_on_c, 1, 69, 127
1, 336300, Note_on_c, 1, 62, 127
1, 336300, Note_on_c, 1, 55, 127
1, 336300, Note_on_c, 1, 43, 127
1, 336359, Note_off_c, 1, 81, 0
1, 336359, Note_off_c, 1, 78, 0
1, 336359, Note_off_c, 1, 50, 0
1, 336359, Note_off_c, 1, 66, 0
1, 336359, Note_off_c, 1, 69, 0
1, 336360, Note_on_c, 1, 79, 127
1, 336360, Note_on_c, 1, 76, 127
1, 336360, Note_on_c, 1, 64, 127
1, 336360, Note_on_c, 1, 67, 127
1, 336419, Note_off_c, 1, 74, 0
1, 336419, Note_off_c, 1, 62, 0
1, 336419, Note_off_c, 1, 55, 0
1, 336419, Note_off_c, 1, 43, 0
1, 336419, Note_off_c, 1, 79, 0
1, 336419, Note_off_c, 1, 76, 0
1, 336419, Note_off_c, 1, 64, 0
1, 336419, Note_off_c, 1, 67, 0
1, 336420, Note_on_c, 1, 81, 127
1, 336420, Note_on_c, 1, 78, 127
1, 336420, Note_on_c, 1, 74, 127
1, 336420, Note_on_c, 1, 50, 127
1, 336420, Note_on_c, 1, 69, 127
1, 336420, Note_on_c, 1, 66, 127
1, 336420, Note_on_c, 1, 62, 127
1, 336479, Note_off_c, 1, 50, 0
1, 336480, Note_on_c, 1, 52, 127
1, 336539, Note_off_c, 1, 81, 0
1, 336539, Note_off_c, 1, 78, 0
1, 336539, Note_off_c, 1, 74, 0
1, 336539, Note_off_c, 1, 69, 0
1, 336539, Note_off_c, 1, 66, 0
1, 336539, Note_off_c, 1, 62, 0
1, 336539, Note_off_c, 1, 52, 0
1, 336540, Note_on_c, 1, 79, 127
1, 336540, Note_on_c, 1, 76, 127
1, 336540, Note_on_c, 1, 69, 127
1, 336540, Note_on_c, 1, 50, 127
1, 336540, Note_on_c, 1, 67, 127
1, 336540, Note_on_c, 1, 64, 127
1, 336540, Note_on_c, 1, 57, 127
1, 336540, Note_on_c, 1, 54, 127
1, 336599, Note_off_c, 1, 79, 0
1, 336599, Note_off_c, 1, 76, 0
1, 336599, Note_off_c, 1, 50, 0
1, 336599, Note_off_c, 1, 67, 0
1, 336599, Note_off_c, 1, 64, 0
1, 336599, Note_off_c, 1, 54, 0
1, 336600, Note_on_c, 1, 78, 127
1, 336600, Note_on_c, 1, 74, 127
1, 336600, Note_on_c, 1, 62, 127
1, 336600, Note_on_c, 1, 66, 127
1, 336600, Note_on_c, 1, 55, 127
1, 336659, Note_off_c, 1, 69, 0
1, 336659, Note_off_c, 1, 57, 0
1, 336659, Note_off_c, 1, 78, 0
1, 336659, Note_off_c, 1, 74, 0
1, 336659, Note_off_c, 1, 62, 0
1, 336659, Note_off_c, 1, 66, 0
1, 336659, Note_off_c, 1, 55, 0
1, 336660, Note_on_c, 1, 76, 127
1, 336660, Note_on_c, 1, 81, 127
1, 336660, Note_on_c, 1, 69, 127
1, 336660, Note_on_c, 1, 45, 127
1, 336660, Note_on_c, 1, 57, 127
1, 336660, Note_on_c, 1, 64, 127
1, 336660, Note_on_c, 1, 73, 127
1, 336720, Note_on_c, 1, 56, 127
1, 336779, Note_off_c, 1, 56, 0
1, 336899, Note_off_c, 1, 76, 0
1, 336899, Note_off_c, 1, 81, 0
1, 336899, Note_off_c, 1, 69, 0
1, 336899, Note_off_c, 1, 45, 0
1, 336899, Note_off_c, 1, 57, 0
1, 336899, Note_off_c, 1, 64, 0
1, 336899, Note_off_c, 1, 73, 0
1, 336900, Note_on_c, 1, 69, 127
1, 336900, Note_on_c, 1, 57, 127
1, 336900, Note_on_c, 1, 73, 127
1, 336900, Note_on_c, 1, 64, 127
1, 336960, Note_on_c, 1, 71, 127
1, 337019, Note_off_c, 1, 71, 0
1, 337139, Note_off_c, 1, 69, 0
1, 337139, Note_off_c, 1, 57, 0
1, 337139, Note_off_c, 1, 73, 0
1, 337140, Note_on_c, 1, 61, 127
1, 337140, Note_on_c, 1, 45, 127
1, 337379, Note_off_c, 1, 64, 0
1, 337379, Note_off_c, 1, 61, 0
1, 337379, Note_off_c, 1, 45, 0
1, 337380, Note_on_c, 1, 76, 127
1, 337380, Note_on_c, 1, 81, 127
1, 337380, Note_on_c, 1, 73, 127
1, 337499, Note_off_c, 1, 76, 0
1, 337499, Note_off_c, 1, 81, 0
1, 337499, Note_off_c, 1, 73, 0
1, 337500, Note_on_c, 1, 76, 127
1, 337500, Note_on_c, 1, 81, 127
1, 337500, Note_on_c, 1, 73, 127
1, 337559, Note_off_c, 1, 81, 0
1, 337559, Note_off_c, 1, 73, 0
1, 337560, Note_on_c, 1, 80, 127
1, 337560, Note_on_c, 1, 71, 127
1, 337619, Note_off_c, 1, 76, 0
1, 337619, Note_off_c, 1, 80, 0
1, 337619, Note_off_c, 1, 71, 0
1, 337620, Note_on_c, 1, 76, 127
1, 337620, Note_on_c, 1, 83, 127
1, 337620, Note_on_c, 1, 74, 127
1, 337739, Note_off_c, 1, 76, 0
1, 337739, Note_off_c, 1, 83, 0
1, 337739, Note_off_c, 1, 74, 0
1, 337740, Note_on_c, 1, 76, 127
1, 337740, Note_on_c, 1, 81, 127
1, 337740, Note_on_c, 1, 73, 127
1, 337799, Note_off_c, 1, 81, 0
1, 337799, Note_off_c, 1, 73, 0
1, 337800, Note_on_c, 1, 80, 127
1, 337800, Note_on_c, 1, 71, 127
1, 337859, Note_off_c, 1, 76, 0
1, 337859, Note_off_c, 1, 80, 0
1, 337859, Note_off_c, 1, 71, 0
1, 337860, Note_on_c, 1, 76, 127
1, 337860, Note_on_c, 1, 81, 127
1, 337860, Note_on_c, 1, 73, 127
1, 337979, Note_off_c, 1, 76, 0
1, 337979, Note_off_c, 1, 81, 0
1, 337979, Note_off_c, 1, 73, 0
1, 337980, Note_on_c, 1, 76, 127
1, 337980, Note_on_c, 1, 81, 127
1, 337980, Note_on_c, 1, 73, 127
1, 338039, Note_off_c, 1, 81, 0
1, 338039, Note_off_c, 1, 73, 0
1, 338040, Note_on_c, 1, 80, 127
1, 338040, Note_on_c, 1, 71, 127
1, 338099, Note_off_c, 1, 76, 0
1, 338099, Note_off_c, 1, 80, 0
1, 338099, Note_off_c, 1, 71, 0
1, 338100, Note_on_c, 1, 76, 127
1, 338100, Note_on_c, 1, 83, 127
1, 338100, Note_on_c, 1, 74, 127
1, 338219, Note_off_c, 1, 76, 0
1, 338219, Note_off_c, 1, 83, 0
1, 338219, Note_off_c, 1, 74, 0
1, 338220, Note_on_c, 1, 76, 127
1, 338220, Note_on_c, 1, 81, 127
1, 338220, Note_on_c, 1, 73, 127
1, 338279, Note_off_c, 1, 81, 0
1, 338279, Note_off_c, 1, 73, 0
1, 338280, Note_on_c, 1, 80, 127
1, 338280, Note_on_c, 1, 71, 127
1, 338339, Note_off_c, 1, 76, 0
1, 338339, Note_off_c, 1, 80, 0
1, 338339, Note_off_c, 1, 71, 0
1, 338340, Note_on_c, 1, 81, 127
1, 338340, Note_on_c, 1, 76, 127
1, 338340, Note_on_c, 1, 73, 127
1, 338340, Note_on_c, 1, 69, 127
1, 338340, Note_on_c, 1, 61, 127
1, 338340, Note_on_c, 1, 57, 127
1, 338400, Note_on_c, 1, 83, 127
1, 338459, Note_off_c, 1, 83, 0
1, 338460, Note_on_c, 1, 78, 127
1, 338519, Note_off_c, 1, 78, 0
1, 338520, Note_on_c, 1, 80, 127
1, 338579, Note_off_c, 1, 81, 0
1, 338579, Note_off_c, 1, 76, 0
1, 338579, Note_off_c, 1, 73, 0
1, 338579, Note_off_c, 1, 69, 0
1, 338579, Note_off_c, 1, 61, 0
1, 338579, Note_off_c, 1, 57, 0
1, 338579, Note_off_c, 1, 80, 0
1, 338580, Note_on_c, 1, 85, 127
1, 338580, Note_on_c, 1, 81, 127
1, 338580, Note_on_c, 1, 73, 127
1, 338580, Note_on_c, 1, 64, 127
1, 338580, Note_on_c, 1, 57, 127
1, 338580, Note_on_c, 1, 45, 127
1, 338819, Note_off_c, 1, 85, 0
1, 338819, Note_off_c, 1, 81, 0
1, 338819, Note_off_c, 1, 73, 0
1, 338819, Note_off_c, 1, 64, 0
1, 338819, Note_off_c, 1, 57, 0
1, 338819, Note_off_c, 1, 45, 0
1, 338820, Note_on_c, 1, 69, 127
1, 338820, Note_on_c, 1, 57, 127
1, 338820, Note_on_c, 1, 85, 127
1, 338820, Note_on_c, 1, 76, 127
1, 338820, Note_on_c, 1, 73, 127
1, 338820, Note_on_c, 1, 64, 127
1, 338820, Note_on_c, 1, 61, 127
1, 338939, Note_off_c, 1, 69, 0
1, 338939, Note_off_c, 1, 57, 0
1, 338939, Note_off_c, 1, 85, 0
1, 338939, Note_off_c, 1, 76, 0
1, 338939, Note_off_c, 1, 73, 0
1, 338939, Note_off_c, 1, 64, 0
1, 338939, Note_off_c, 1, 61, 0
1, 338940, Note_on_c, 1, 69, 127
1, 338940, Note_on_c, 1, 57, 127
1, 338940, Note_on_c, 1, 85, 127
1, 338940, Note_on_c, 1, 76, 127
1, 338940, Note_on_c, 1, 73, 127
1, 338940, Note_on_c, 1, 64, 127
1, 338940, Note_on_c, 1, 61, 127
1, 338999, Note_off_c, 1, 85, 0
1, 338999, Note_off_c, 1, 76, 0
1, 338999, Note_off_c, 1, 73, 0
1, 338999, Note_off_c, 1, 64, 0
1, 338999, Note_off_c, 1, 61, 0
1, 339000, Note_on_c, 1, 83, 127
1, 339000, Note_on_c, 1, 74, 127
1, 339000, Note_on_c, 1, 71, 127
1, 339000, Note_on_c, 1, 62, 127
1, 339000, Note_on_c, 1, 59, 127
1, 339059, Note_off_c, 1, 69, 0
1, 339059, Note_off_c, 1, 57, 0
1, 339059, Note_off_c, 1, 83, 0
1, 339059, Note_off_c, 1, 74, 0
1, 339059, Note_off_c, 1, 71, 0
1, 339059, Note_off_c, 1, 62, 0
1, 339059, Note_off_c, 1, 59, 0
1, 339060, Note_on_c, 1, 69, 127
1, 339060, Note_on_c, 1, 57, 127
1, 339060, Note_on_c, 1, 86, 127
1, 339060, Note_on_c, 1, 78, 127
1, 339060, Note_on_c, 1, 74, 127
1, 339060, Note_on_c, 1, 66, 127
1, 339060, Note_on_c, 1, 62, 127
1, 339060, Note_on_c, 1, 56, 127
1, 339179, Note_off_c, 1, 69, 0
1, 339179, Note_off_c, 1, 57, 0
1, 339179, Note_off_c, 1, 86, 0
1, 339179, Note_off_c, 1, 78, 0
1, 339179, Note_off_c, 1, 74, 0
1, 339179, Note_off_c, 1, 66, 0
1, 339179, Note_off_c, 1, 62, 0
1, 339179, Note_off_c, 1, 56, 0
1, 339180, Note_on_c, 1, 69, 127
1, 339180, Note_on_c, 1, 57, 127
1, 339180, Note_on_c, 1, 85, 127
1, 339180, Note_on_c, 1, 76, 127
1, 339180, Note_on_c, 1, 73, 127
1, 339180, Note_on_c, 1, 64, 127
1, 339180, Note_on_c, 1, 61, 127
1, 339239, Note_off_c, 1, 85, 0
1, 339239, Note_off_c, 1, 76, 0
1, 339239, Note_off_c, 1, 73, 0
1, 339239, Note_off_c, 1, 64, 0
1, 339239, Note_off_c, 1, 61, 0
1, 339240, Note_on_c, 1, 83, 127
1, 339240, Note_on_c, 1, 74, 127
1, 339240, Note_on_c, 1, 71, 127
1, 339240, Note_on_c, 1, 62, 127
1, 339240, Note_on_c, 1, 59, 127
1, 339299, Note_off_c, 1, 69, 0
1, 339299, Note_off_c, 1, 57, 0
1, 339299, Note_off_c, 1, 83, 0
1, 339299, Note_off_c, 1, 74, 0
1, 339299, Note_off_c, 1, 71, 0
1, 339299, Note_off_c, 1, 62, 0
1, 339299, Note_off_c, 1, 59, 0
1, 339300, Note_on_c, 1, 69, 127
1, 339300, Note_on_c, 1, 57, 127
1, 339300, Note_on_c, 1, 85, 127
1, 339300, Note_on_c, 1, 76, 127
1, 339300, Note_on_c, 1, 73, 127
1, 339300, Note_on_c, 1, 64, 127
1, 339300, Note_on_c, 1, 61, 127
1, 339419, Note_off_c, 1, 69, 0
1, 339419, Note_off_c, 1, 57, 0
1, 339419, Note_off_c, 1, 85, 0
1, 339419, Note_off_c, 1, 76, 0
1, 339419, Note_off_c, 1, 73, 0
1, 339419, Note_off_c, 1, 64, 0
1, 339419, Note_off_c, 1, 61, 0
1, 339420, Note_on_c, 1, 69, 127
1, 339420, Note_on_c, 1, 57, 127
1, 339420, Note_on_c, 1, 85, 127
1, 339420, Note_on_c, 1, 76, 127
1, 339420, Note_on_c, 1, 73, 127
1, 339420, Note_on_c, 1, 64, 127
1, 339420, Note_on_c, 1, 61, 127
1, 339479, Note_off_c, 1, 85, 0
1, 339479, Note_off_c, 1, 76, 0
1, 339479, Note_off_c, 1, 73, 0
1, 339479, Note_off_c, 1, 64, 0
1, 339479, Note_off_c, 1, 61, 0
1, 339480, Note_on_c, 1, 83, 127
1, 339480, Note_on_c, 1, 74, 127
1, 339480, Note_on_c, 1, 71, 127
1, 339480, Note_on_c, 1, 62, 127
1, 339480, Note_on_c, 1, 59, 127
1, 339539, Note_off_c, 1, 69, 0
1, 339539, Note_off_c, 1, 57, 0
1, 339539, Note_off_c, 1, 83, 0
1, 339539, Note_off_c, 1, 74, 0
1, 339539, Note_off_c, 1, 71, 0
1, 339539, Note_off_c, 1, 62, 0
1, 339539, Note_off_c, 1, 59, 0
1, 339540, Note_on_c, 1, 69, 127
1, 339540, Note_on_c, 1, 57, 127
1, 339540, Note_on_c, 1, 86, 127
1, 339540, Note_on_c, 1, 78, 127
1, 339540, Note_on_c, 1, 74, 127
1, 339540, Note_on_c, 1, 66, 127
1, 339540, Note_on_c, 1, 62, 127
1, 339540, Note_on_c, 1, 56, 127
1, 339659, Note_off_c, 1, 69, 0
1, 339659, Note_off_c, 1, 57, 0
1, 339659, Note_off_c, 1, 86, 0
1, 339659, Note_off_c, 1, 78, 0
1, 339659, Note_off_c, 1, 74, 0
1, 339659, Note_off_c, 1, 66, 0
1, 339659, Note_off_c, 1, 62, 0
1, 339659, Note_off_c, 1, 56, 0
1, 339660, Note_on_c, 1, 69, 127
1, 339660, Note_on_c, 1, 57, 127
1, 339660, Note_on_c, 1, 85, 127
1, 339660, Note_on_c, 1, 76, 127
1, 339660, Note_on_c, 1, 73, 127
1, 339660, Note_on_c, 1, 64, 127
1, 339660, Note_on_c, 1, 61, 127
1, 339719, Note_off_c, 1, 85, 0
1, 339719, Note_off_c, 1, 76, 0
1, 339719, Note_off_c, 1, 73, 0
1, 339719, Note_off_c, 1, 64, 0
1, 339719, Note_off_c, 1, 61, 0
1, 339720, Note_on_c, 1, 83, 127
1, 339720, Note_on_c, 1, 74, 127
1, 339720, Note_on_c, 1, 71, 127
1, 339720, Note_on_c, 1, 62, 127
1, 339720, Note_on_c, 1, 59, 127
1, 339779, Note_off_c, 1, 69, 0
1, 339779, Note_off_c, 1, 57, 0
1, 339779, Note_off_c, 1, 83, 0
1, 339779, Note_off_c, 1, 74, 0
1, 339779, Note_off_c, 1, 71, 0
1, 339779, Note_off_c, 1, 62, 0
1, 339779, Note_off_c, 1, 59, 0
1, 339780, Note_on_c, 1, 85, 127
1, 339780, Note_on_c, 1, 81, 127
1, 339780, Note_on_c, 1, 76, 127
1, 339780, Note_on_c, 1, 45, 127
1, 339780, Note_on_c, 1, 69, 127
1, 339780, Note_on_c, 1, 64, 127
1, 339780, Note_on_c, 1, 73, 127
1, 339780, Note_on_c, 1, 61, 127
1, 339780, Note_on_c, 1, 57, 127
1, 339839, Note_off_c, 1, 45, 0
1, 339839, Note_off_c, 1, 69, 0
1, 339840, Note_on_c, 1, 71, 127
1, 339899, Note_off_c, 1, 71, 0
1, 339960, Note_on_c, 1, 68, 127
1, 340019, Note_off_c, 1, 85, 0
1, 340019, Note_off_c, 1, 81, 0
1, 340019, Note_off_c, 1, 76, 0
1, 340019, Note_off_c, 1, 64, 0
1, 340019, Note_off_c, 1, 73, 0
1, 340019, Note_off_c, 1, 61, 0
1, 340019, Note_off_c, 1, 57, 0
1, 340019, Note_off_c, 1, 68, 0
1, 340020, Note_on_c, 1, 81, 127
1, 340020, Note_on_c, 1, 76, 127
1, 340020, Note_on_c, 1, 69, 127
1, 340020, Note_on_c, 1, 45, 127
1, 340020, Note_on_c, 1, 73, 127
1, 340020, Note_on_c, 1, 61, 127
1, 340259, Note_off_c, 1, 81, 0
1, 340259, Note_off_c, 1, 76, 0
1, 340259, Note_off_c, 1, 69, 0
1, 340259, Note_off_c, 1, 45, 0
1, 340259, Note_off_c, 1, 73, 0
1, 340259, Note_off_c, 1, 61, 0
1, 340260, Note_on_c, 1, 69, 127
1, 340260, Note_on_c, 1, 45, 127
1, 340260, Note_on_c, 1, 64, 127
1, 340260, Note_on_c, 1, 67, 127
1, 340260, Note_on_c, 1, 73, 127
1, 340319, Note_off_c, 1, 67, 0
1, 340320, Note_on_c, 1, 66, 127
1, 340320, Note_on_c, 1, 62, 127
1, 340379, Note_off_c, 1, 69, 0
1, 340379, Note_off_c, 1, 45, 0
1, 340379, Note_off_c, 1, 64, 0
1, 340379, Note_off_c, 1, 73, 0
1, 340379, Note_off_c, 1, 66, 0
1, 340379, Note_off_c, 1, 62, 0
1, 340380, Note_on_c, 1, 69, 127
1, 340380, Note_on_c, 1, 45, 127
1, 340380, Note_on_c, 1, 67, 127
1, 340380, Note_on_c, 1, 64, 127
1, 340380, Note_on_c, 1, 61, 127
1, 340380, Note_on_c, 1, 49, 127
1, 340380, Note_on_c, 1, 57, 127
1, 340439, Note_off_c, 1, 67, 0
1, 340440, Note_on_c, 1, 66, 127
1, 340440, Note_on_c, 1, 62, 127
1, 340499, Note_off_c, 1, 69, 0
1, 340499, Note_off_c, 1, 45, 0
1, 340499, Note_off_c, 1, 64, 0
1, 340499, Note_off_c, 1, 61, 0
1, 340499, Note_off_c, 1, 49, 0
1, 340499, Note_off_c, 1, 57, 0
1, 340499, Note_off_c, 1, 66, 0
1, 340499, Note_off_c, 1, 62, 0
1, 340500, Note_on_c, 1, 69, 127
1, 340500, Note_on_c, 1, 45, 127
1, 340500, Note_on_c, 1, 64, 127
1, 340500, Note_on_c, 1, 57, 127
1, 340500, Note_on_c, 1, 76, 127
1, 340500, Note_on_c, 1, 73, 127
1, 340500, Note_on_c, 1, 49, 127
1, 340559, Note_off_c, 1, 64, 0
1, 340560, Note_on_c, 1, 62, 127
1, 340560, Note_on_c, 1, 66, 127
1, 340619, Note_off_c, 1, 69, 0
1, 340619, Note_off_c, 1, 45, 0
1, 340619, Note_off_c, 1, 57, 0
1, 340619, Note_off_c, 1, 76, 0
1, 340619, Note_off_c, 1, 73, 0
1, 340619, Note_off_c, 1, 49, 0
1, 340619, Note_off_c, 1, 62, 0
1, 340619, Note_off_c, 1, 66, 0
1, 340620, Note_on_c, 1, 69, 127
1, 340620, Note_on_c, 1, 45, 127
1, 340620, Note_on_c, 1, 57, 127
1, 340620, Note_on_c, 1, 64, 127
1, 340620, Note_on_c, 1, 73, 127
1, 340620, Note_on_c, 1, 66, 127
1, 340620, Note_on_c, 1, 52, 127
1, 340679, Note_off_c, 1, 57, 0
1, 340680, Note_on_c, 1, 62, 127
1, 340739, Note_off_c, 1, 69, 0
1, 340739, Note_off_c, 1, 45, 0
1, 340739, Note_off_c, 1, 64, 0
1, 340739, Note_off_c, 1, 73, 0
1, 340739, Note_off_c, 1, 66, 0
1, 340739, Note_off_c, 1, 52, 0
1, 340739, Note_off_c, 1, 62, 0
1, 340740, Note_on_c, 1, 69, 127
1, 340740, Note_on_c, 1, 45, 127
1, 340740, Note_on_c, 1, 67, 127
1, 340740, Note_on_c, 1, 64, 127
1, 340740, Note_on_c, 1, 79, 127
1, 340740, Note_on_c, 1, 76, 127
1, 340740, Note_on_c, 1, 73, 127
1, 340740, Note_on_c, 1, 61, 127
1, 340740, Note_on_c, 1, 52, 127
1, 340799, Note_off_c, 1, 67, 0
1, 340799, Note_off_c, 1, 64, 0
1, 340800, Note_on_c, 1, 66, 127
1, 340800, Note_on_c, 1, 62, 127
1, 340859, Note_off_c, 1, 69, 0
1, 340859, Note_off_c, 1, 45, 0
1, 340859, Note_off_c, 1, 79, 0
1, 340859, Note_off_c, 1, 76, 0
1, 340859, Note_off_c, 1, 73, 0
1, 340859, Note_off_c, 1, 61, 0
1, 340859, Note_off_c, 1, 52, 0
1, 340859, Note_off_c, 1, 66, 0
1, 340859, Note_off_c, 1, 62, 0
1, 340860, Note_on_c, 1, 69, 127
1, 340860, Note_on_c, 1, 45, 127
1, 340860, Note_on_c, 1, 67, 127
1, 340860, Note_on_c, 1, 64, 127
1, 340860, Note_on_c, 1, 76, 127
1, 340860, Note_on_c, 1, 73, 127
1, 340860, Note_on_c, 1, 57, 127
1, 340919, Note_off_c, 1, 45, 0
1, 340919, Note_off_c, 1, 67, 0
1, 340920, Note_on_c, 1, 66, 127
1, 340920, Note_on_c, 1, 62, 127
1, 340979, Note_off_c, 1, 69, 0
1, 340979, Note_off_c, 1, 64, 0
1, 340979, Note_off_c, 1, 76, 0
1, 340979, Note_off_c, 1, 73, 0
1, 340979, Note_off_c, 1, 57, 0
1, 340979, Note_off_c, 1, 66, 0
1, 340979, Note_off_c, 1, 62, 0
1, 340980, Note_on_c, 1, 69, 127
1, 340980, Note_on_c, 1, 45, 127
1, 340980, Note_on_c, 1, 57, 127
1, 340980, Note_on_c, 1, 64, 127
1, 340980, Note_on_c, 1, 73, 127
1, 341040, Note_on_c, 1, 66, 127
1, 341040, Note_on_c, 1, 62, 127
1, 341099, Note_off_c, 1, 69, 0
1, 341099, Note_off_c, 1, 45, 0
1, 341099, Note_off_c, 1, 57, 0
1, 341099, Note_off_c, 1, 64, 0
1, 341099, Note_off_c, 1, 73, 0
1, 341099, Note_off_c, 1, 66, 0
1, 341099, Note_off_c, 1, 62, 0
1, 341100, Note_on_c, 1, 69, 127
1, 341100, Note_on_c, 1, 45, 127
1, 341100, Note_on_c, 1, 64, 127
1, 341100, Note_on_c, 1, 57, 127
1, 341100, Note_on_c, 1, 73, 127
1, 341100, Note_on_c, 1, 61, 127
1, 341159, Note_off_c, 1, 57, 0
1, 341160, Note_on_c, 1, 62, 127
1, 341160, Note_on_c, 1, 66, 127
1, 341219, Note_off_c, 1, 69, 0
1, 341219, Note_off_c, 1, 45, 0
1, 341219, Note_off_c, 1, 64, 0
1, 341219, Note_off_c, 1, 73, 0
1, 341219, Note_off_c, 1, 61, 0
1, 341219, Note_off_c, 1, 62, 0
1, 341219, Note_off_c, 1, 66, 0
1, 341220, Note_on_c, 1, 74, 127
1, 341220, Note_on_c, 1, 66, 127
1, 341220, Note_on_c, 1, 50, 127
1, 341220, Note_on_c, 1, 62, 127
1, 341220, Note_on_c, 1, 54, 127
1, 341220, Note_on_c, 1, 71, 127
1, 341220, Note_on_c, 1, 59, 127
1, 341220, Note_on_c, 1, 47, 127
1, 341279, Note_off_c, 1, 50, 0
1, 341279, Note_off_c, 1, 62, 0
1, 341279, Note_off_c, 1, 54, 0
1, 341280, Note_on_c, 1, 76, 127
1, 341280, Note_on_c, 1, 57, 127
1, 341280, Note_on_c, 1, 64, 127
1, 341280, Note_on_c, 1, 73, 127
1, 341339, Note_off_c, 1, 74, 0
1, 341339, Note_off_c, 1, 66, 0
1, 341339, Note_off_c, 1, 71, 0
1, 341339, Note_off_c, 1, 59, 0
1, 341339, Note_off_c, 1, 47, 0
1, 341339, Note_off_c, 1, 76, 0
1, 341339, Note_off_c, 1, 57, 0
1, 341339, Note_off_c, 1, 64, 0
1, 341339, Note_off_c, 1, 73, 0
1, 341340, Note_on_c, 1, 78, 127
1, 341340, Note_on_c, 1, 74, 127
1, 341340, Note_on_c, 1, 62, 127
1, 341340, Note_on_c, 1, 50, 127
1, 341340, Note_on_c, 1, 66, 127
1, 341340, Note_on_c, 1, 71, 127
1, 341340, Note_on_c, 1, 57, 127
1, 341340, Note_on_c, 1, 45, 127
1, 341399, Note_off_c, 1, 78, 0
1, 341399, Note_off_c, 1, 50, 0
1, 341399, Note_off_c, 1, 66, 0
1, 341399, Note_off_c, 1, 57, 0
1, 341399, Note_off_c, 1, 45, 0
1, 341400, Note_on_c, 1, 79, 127
1, 341400, Note_on_c, 1, 67, 127
1, 341400, Note_on_c, 1, 64, 127
1, 341400, Note_on_c, 1, 76, 127
1, 341400, Note_on_c, 1, 55, 127
1, 341400, Note_on_c, 1, 43, 127
1, 341459, Note_off_c, 1, 74, 0
1, 341459, Note_off_c, 1, 62, 0
1, 341459, Note_off_c, 1, 71, 0
1, 341459, Note_off_c, 1, 79, 0
1, 341459, Note_off_c, 1, 67, 0
1, 341459, Note_off_c, 1, 64, 0
1, 341459, Note_off_c, 1, 76, 0
1, 341459, Note_off_c, 1, 55, 0
1, 341459, Note_off_c, 1, 43, 0
1, 341460, Note_on_c, 1, 81, 127
1, 341460, Note_on_c, 1, 74, 127
1, 341460, Note_on_c, 1, 69, 127
1, 341460, Note_on_c, 1, 50, 127
1, 341460, Note_on_c, 1, 66, 127
1, 341460, Note_on_c, 1, 78, 127
1, 341460, Note_on_c, 1, 62, 127
1, 341460, Note_on_c, 1, 54, 127
1, 341460, Note_on_c, 1, 42, 127
1, 341519, Note_off_c, 1, 50, 0
1, 341519, Note_off_c, 1, 66, 0
1, 341519, Note_off_c, 1, 78, 0
1, 341520, Note_on_c, 1, 64, 127
1, 341520, Note_on_c, 1, 76, 127
1, 341579, Note_off_c, 1, 81, 0
1, 341579, Note_off_c, 1, 74, 0
1, 341579, Note_off_c, 1, 62, 0
1, 341579, Note_off_c, 1, 54, 0
1, 341579, Note_off_c, 1, 42, 0
1, 341579, Note_off_c, 1, 64, 0
1, 341579, Note_off_c, 1, 76, 0
1, 341580, Note_off_c, 1, 69, 0
1, 341580, Note_on_c, 1, 83, 127
1, 341580, Note_on_c, 1, 71, 127
1, 341580, Note_on_c, 1, 67, 127
1, 341580, Note_on_c, 1, 55, 127
1, 341580, Note_on_c, 1, 43, 127
1, 341639, Note_off_c, 1, 83, 0
1, 341639, Note_off_c, 1, 71, 0
1, 341699, Note_off_c, 1, 67, 0
1, 341699, Note_off_c, 1, 55, 0
1, 341699, Note_off_c, 1, 43, 0
1, 341700, Note_on_c, 1, 79, 127
1, 341700, Note_on_c, 1, 74, 127
1, 341700, Note_on_c, 1, 69, 127
1, 341700, Note_on_c, 1, 45, 127
1, 341700, Note_on_c, 1, 67, 127
1, 341700, Note_on_c, 1, 57, 127
1, 341700, Note_on_c, 1, 64, 127
1, 341759, Note_off_c, 1, 79, 0
1, 341759, Note_off_c, 1, 67, 0
1, 341760, Note_on_c, 1, 78, 127
1, 341760, Note_on_c, 1, 66, 127
1, 341819, Note_off_c, 1, 74, 0
1, 341819, Note_off_c, 1, 69, 0
1, 341819, Note_off_c, 1, 45, 0
1, 341819, Note_off_c, 1, 64, 0
1, 341819, Note_off_c, 1, 78, 0
1, 341819, Note_off_c, 1, 66, 0
1, 341820, Note_on_c, 1, 76, 127
1, 341820, Note_on_c, 1, 73, 127
1, 341879, Note_off_c, 1, 76, 0
1, 341939, Note_off_c, 1, 73, 0
1, 341940, Note_on_c, 1, 50, 127
1, 341940, Note_on_c, 1, 62, 127
1, 341940, Note_on_c, 1, 54, 127
1, 341940, Note_on_c, 1, 38, 127
1, 342179, Note_off_c, 1, 57, 0
1, 342179, Note_off_c, 1, 50, 0
1, 342179, Note_off_c, 1, 62, 0
1, 342179, Note_off_c, 1, 54, 0
1, 342179, Note_off_c, 1, 38, 0
1, 342180, Note_on_c, 1, 71, 127
1, 342180, Note_on_c, 1, 74, 127
1, 342180, Note_on_c, 1, 78, 127
1, 342180, Note_on_c, 1, 62, 127
1, 342180, Note_on_c, 1, 59, 127
1, 342239, Note_off_c, 1, 74, 0
1, 342240, Note_on_c, 1, 76, 127
1, 342240, Note_on_c, 1, 73, 127
1, 342299, Note_off_c, 1, 76, 0
1, 342299, Note_off_c, 1, 73, 0
1, 342419, Note_off_c, 1, 71, 0
1, 342419, Note_off_c, 1, 78, 0
1, 342419, Note_off_c, 1, 62, 0
1, 342419, Note_off_c, 1, 59, 0
1, 342420, Note_on_c, 1, 74, 127
1, 342420, Note_on_c, 1, 78, 127
1, 342420, Note_on_c, 1, 70, 127
1, 342420, Note_on_c, 1, 66, 127
1, 342420, Note_on_c, 1, 54, 127
1, 342659, Note_off_c, 1, 74, 0
1, 342659, Note_off_c, 1, 78, 0
1, 342659, Note_off_c, 1, 70, 0
1, 342659, Note_off_c, 1, 66, 0
1, 342659, Note_off_c, 1, 54, 0
1, 342660, Note_on_c, 1, 71, 127
1, 342660, Note_on_c, 1, 62, 127
1, 342660, Note_on_c, 1, 55, 127
1, 342779, Note_off_c, 1, 71, 0
1, 342779, Note_off_c, 1, 62, 0
1, 342779, Note_off_c, 1, 55, 0
1, 342780, Note_on_c, 1, 73, 127
1, 342780, Note_on_c, 1, 71, 127
1, 342780, Note_on_c, 1, 64, 127
1, 342780, Note_on_c, 1, 54, 127
1, 342839, Note_off_c, 1, 73, 0
1, 342839, Note_off_c, 1, 64, 0
1, 342840, Note_on_c, 1, 74, 127
1, 342840, Note_on_c, 1, 66, 127
1, 342899, Note_off_c, 1, 71, 0
1, 342899, Note_off_c, 1, 54, 0
1, 342899, Note_off_c, 1, 74, 0
1, 342899, Note_off_c, 1, 66, 0
1, 342900, Note_on_c, 1, 76, 127
1, 342900, Note_on_c, 1, 73, 127
1, 342900, Note_on_c, 1, 67, 127
1, 342900, Note_on_c, 1, 52, 127
1, 343019, Note_off_c, 1, 76, 0
1, 343019, Note_off_c, 1, 73, 0
1, 343019, Note_off_c, 1, 67, 0
1, 343019, Note_off_c, 1, 52, 0
1, 343020, Note_on_c, 1, 74, 127
1, 343020, Note_on_c, 1, 71, 127
1, 343020, Note_on_c, 1, 66, 127
1, 343020, Note_on_c, 1, 54, 127
1, 343079, Note_off_c, 1, 74, 0
1, 343079, Note_off_c, 1, 71, 0
1, 343080, Note_on_c, 1, 73, 127
1, 343080, Note_on_c, 1, 70, 127
1, 343139, Note_off_c, 1, 66, 0
1, 343139, Note_off_c, 1, 54, 0
1, 343139, Note_off_c, 1, 73, 0
1, 343139, Note_off_c, 1, 70, 0
1, 343140, Note_on_c, 1, 71, 127
1, 343140, Note_on_c, 1, 62, 127
1, 343140, Note_on_c, 1, 83, 127
1, 343140, Note_on_c, 1, 74, 127
1, 343140, Note_on_c, 1, 78, 127
1, 343140, Note_on_c, 1, 66, 127
1, 343140, Note_on_c, 1, 59, 127
1, 343200, Note_off_c, 1, 62, 0
1, 343200, Note_on_c, 1, 64, 127
1, 343200, Note_on_c, 1, 73, 127
1, 343259, Note_off_c, 1, 66, 0
1, 343259, Note_off_c, 1, 59, 0
1, 343260, Note_on_c, 1, 47, 127
1, 343319, Note_off_c, 1, 64, 0
1, 343319, Note_off_c, 1, 73, 0
1, 343379, Note_off_c, 1, 71, 0
1, 343379, Note_off_c, 1, 83, 0
1, 343379, Note_off_c, 1, 74, 0
1, 343379, Note_off_c, 1, 78, 0
1, 343379, Note_off_c, 1, 47, 0
1, 343500, Note_on_c, 1, 57, 127
1, 343619, Note_off_c, 1, 57, 0
1, 343620, Note_on_c, 1, 76, 127
1, 343620, Note_on_c, 1, 71, 127
1, 343620, Note_on_c, 1, 64, 127
1, 343620, Note_on_c, 1, 56, 127
1, 343739, Note_off_c, 1, 56, 0
1, 343740, Note_on_c, 1, 54, 127
1, 343859, Note_off_c, 1, 76, 0
1, 343859, Note_off_c, 1, 71, 0
1, 343859, Note_off_c, 1, 64, 0
1, 343859, Note_off_c, 1, 54, 0
1, 343860, Note_on_c, 1, 71, 127
1, 343860, Note_on_c, 1, 68, 127
1, 343860, Note_on_c, 1, 64, 127
1, 343860, Note_on_c, 1, 56, 127
1, 343979, Note_off_c, 1, 56, 0
1, 343980, Note_on_c, 1, 52, 127
1, 344099, Note_off_c, 1, 71, 0
1, 344099, Note_off_c, 1, 68, 0
1, 344099, Note_off_c, 1, 64, 0
1, 344099, Note_off_c, 1, 52, 0
1, 344100, Note_on_c, 1, 73, 127
1, 344100, Note_on_c, 1, 69, 127
1, 344100, Note_on_c, 1, 64, 127
1, 344100, Note_on_c, 1, 57, 127
1, 344219, Note_off_c, 1, 73, 0
1, 344219, Note_off_c, 1, 69, 0
1, 344219, Note_off_c, 1, 64, 0
1, 344280, Note_on_c, 1, 71, 127
1, 344280, Note_on_c, 1, 68, 127
1, 344339, Note_off_c, 1, 57, 0
1, 344339, Note_off_c, 1, 71, 0
1, 344339, Note_off_c, 1, 68, 0
1, 344340, Note_on_c, 1, 64, 127
1, 344340, Note_on_c, 1, 74, 127
1, 344340, Note_on_c, 1, 71, 127
1, 344340, Note_on_c, 1, 56, 127
1, 344340, Note_on_c, 1, 52, 127
1, 344459, Note_off_c, 1, 64, 0
1, 344459, Note_off_c, 1, 74, 0
1, 344459, Note_off_c, 1, 71, 0
1, 344459, Note_off_c, 1, 56, 0
1, 344460, Note_on_c, 1, 73, 127
1, 344460, Note_on_c, 1, 69, 127
1, 344519, Note_off_c, 1, 73, 0
1, 344519, Note_off_c, 1, 69, 0
1, 344520, Note_on_c, 1, 68, 127
1, 344579, Note_off_c, 1, 52, 0
1, 344579, Note_off_c, 1, 68, 0
1, 344580, Note_on_c, 1, 64, 127
1, 344580, Note_on_c, 1, 81, 127
1, 344580, Note_on_c, 1, 73, 127
1, 344580, Note_on_c, 1, 69, 127
1, 344580, Note_on_c, 1, 45, 127
1, 344699, Note_off_c, 1, 69, 0
1, 344699, Note_off_c, 1, 45, 0
1, 344700, Note_on_c, 1, 57, 127
1, 344760, Note_on_c, 1, 71, 127
1, 344760, Note_on_c, 1, 68, 127
1, 344819, Note_off_c, 1, 64, 0
1, 344819, Note_off_c, 1, 73, 0
1, 344819, Note_off_c, 1, 57, 0
1, 344819, Note_off_c, 1, 71, 0
1, 344819, Note_off_c, 1, 68, 0
1, 344820, Note_off_c, 1, 81, 0
1, 344820, Note_on_c, 1, 76, 127
1, 344820, Note_on_c, 1, 74, 127
1, 344820, Note_on_c, 1, 56, 127
1, 344939, Note_off_c, 1, 74, 0
1, 344939, Note_off_c, 1, 56, 0
1, 344940, Note_on_c, 1, 52, 127
1, 345059, Note_off_c, 1, 52, 0
1, 345060, Note_off_c, 1, 76, 0
1, 345180, Note_on_c, 1, 64, 127
1, 345180, Note_on_c, 1, 73, 127
1, 345180, Note_on_c, 1, 69, 127
1, 345180, Note_on_c, 1, 52, 127
1, 345239, Note_off_c, 1, 73, 0
1, 345239, Note_off_c, 1, 69, 0
1, 345240, Note_on_c, 1, 71, 127
1, 345240, Note_on_c, 1, 68, 127
1, 345299, Note_off_c, 1, 64, 0
1, 345299, Note_off_c, 1, 52, 0
1, 345299, Note_off_c, 1, 71, 0
1, 345299, Note_off_c, 1, 68, 0
1, 345300, Note_on_c, 1, 64, 127
1, 345300, Note_on_c, 1, 74, 127
1, 345300, Note_on_c, 1, 71, 127
1, 345300, Note_on_c, 1, 56, 127
1, 345419, Note_off_c, 1, 64, 0
1, 345419, Note_off_c, 1, 74, 0
1, 345419, Note_off_c, 1, 71, 0
1, 345419, Note_off_c, 1, 56, 0
1, 345420, Note_on_c, 1, 64, 127
1, 345420, Note_on_c, 1, 73, 127
1, 345420, Note_on_c, 1, 69, 127
1, 345420, Note_on_c, 1, 52, 127
1, 345479, Note_off_c, 1, 73, 0
1, 345479, Note_off_c, 1, 69, 0
1, 345480, Note_on_c, 1, 71, 127
1, 345480, Note_on_c, 1, 68, 127
1, 345539, Note_off_c, 1, 64, 0
1, 345539, Note_off_c, 1, 52, 0
1, 345539, Note_off_c, 1, 71, 0
1, 345539, Note_off_c, 1, 68, 0
1, 345540, Note_on_c, 1, 64, 127
1, 345540, Note_on_c, 1, 73, 127
1, 345540, Note_on_c, 1, 69, 127
1, 345540, Note_on_c, 1, 57, 127
1, 345659, Note_off_c, 1, 64, 0
1, 345659, Note_off_c, 1, 73, 0
1, 345659, Note_off_c, 1, 69, 0
1, 345720, Note_on_c, 1, 71, 127
1, 345720, Note_on_c, 1, 68, 127
1, 345779, Note_off_c, 1, 57, 0
1, 345779, Note_off_c, 1, 71, 0
1, 345779, Note_off_c, 1, 68, 0
1, 345780, Note_on_c, 1, 64, 127
1, 345780, Note_on_c, 1, 74, 127
1, 345780, Note_on_c, 1, 71, 127
1, 345780, Note_on_c, 1, 56, 127
1, 345780, Note_on_c, 1, 52, 127
1, 345899, Note_off_c, 1, 64, 0
1, 345899, Note_off_c, 1, 74, 0
1, 345899, Note_off_c, 1, 71, 0
1, 345899, Note_off_c, 1, 56, 0
1, 345900, Note_on_c, 1, 73, 127
1, 345900, Note_on_c, 1, 69, 127
1, 345959, Note_off_c, 1, 73, 0
1, 345959, Note_off_c, 1, 69, 0
1, 345960, Note_on_c, 1, 68, 127
1, 346019, Note_off_c, 1, 52, 0
1, 346019, Note_off_c, 1, 68, 0
1, 346020, Note_on_c, 1, 64, 127
1, 346020, Note_on_c, 1, 81, 127
1, 346020, Note_on_c, 1, 73, 127
1, 346020, Note_on_c, 1, 69, 127
1, 346020, Note_on_c, 1, 57, 127
1, 346020, Note_on_c, 1, 45, 127
1, 346139, Note_off_c, 1, 64, 0
1, 346139, Note_off_c, 1, 57, 0
1, 346139, Note_off_c, 1, 45, 0
1, 346140, Note_on_c, 1, 78, 127
1, 346140, Note_on_c, 1, 66, 127
1, 346140, Note_on_c, 1, 50, 127
1, 346259, Note_off_c, 1, 73, 0
1, 346259, Note_off_c, 1, 69, 0
1, 346259, Note_off_c, 1, 78, 0
1, 346259, Note_off_c, 1, 66, 0
1, 346259, Note_off_c, 1, 50, 0
1, 346260, Note_off_c, 1, 81, 0
1, 346260, Note_on_c, 1, 76, 127
1, 346260, Note_on_c, 1, 71, 127
1, 346260, Note_on_c, 1, 68, 127
1, 346260, Note_on_c, 1, 59, 127
1, 346260, Note_on_c, 1, 62, 127
1, 346379, Note_off_c, 1, 71, 0
1, 346379, Note_off_c, 1, 68, 0
1, 346379, Note_off_c, 1, 59, 0
1, 346379, Note_off_c, 1, 62, 0
1, 346380, Note_on_c, 1, 61, 127
1, 346499, Note_off_c, 1, 61, 0
1, 346500, Note_on_c, 1, 80, 127
1, 346619, Note_off_c, 1, 80, 0
1, 346620, Note_off_c, 1, 76, 0
1, 346740, Note_on_c, 1, 76, 127
1, 346740, Note_on_c, 1, 71, 127
1, 346740, Note_on_c, 1, 64, 127
1, 346740, Note_on_c, 1, 56, 127
1, 346859, Note_off_c, 1, 76, 0
1, 346859, Note_off_c, 1, 56, 0
1, 346860, Note_on_c, 1, 74, 127
1, 346860, Note_on_c, 1, 68, 127
1, 346860, Note_on_c, 1, 52, 127
1, 346979, Note_off_c, 1, 71, 0
1, 346979, Note_off_c, 1, 64, 0
1, 346979, Note_off_c, 1, 74, 0
1, 346979, Note_off_c, 1, 68, 0
1, 346979, Note_off_c, 1, 52, 0
1, 346980, Note_on_c, 1, 73, 127
1, 346980, Note_on_c, 1, 69, 127
1, 346980, Note_on_c, 1, 64, 127
1, 346980, Note_on_c, 1, 57, 127
1, 347219, Note_off_c, 1, 73, 0
1, 347219, Note_off_c, 1, 69, 0
1, 347219, Note_off_c, 1, 64, 0
1, 347219, Note_off_c, 1, 57, 0
1, 347220, Note_on_c, 1, 71, 127
1, 347220, Note_on_c, 1, 68, 127
1, 347220, Note_on_c, 1, 64, 127
1, 347220, Note_on_c, 1, 52, 127
1, 347279, Note_off_c, 1, 71, 0
1, 347280, Note_on_c, 1, 69, 127
1, 347339, Note_off_c, 1, 69, 0
1, 347459, Note_off_c, 1, 68, 0
1, 347459, Note_off_c, 1, 64, 0
1, 347459, Note_off_c, 1, 52, 0
1, 347460, Note_on_c, 1, 69, 127
1, 347460, Note_on_c, 1, 64, 127
1, 347460, Note_on_c, 1, 61, 127
1, 347460, Note_on_c, 1, 45, 127
1, 347580, Note_on_c, 1, 57, 127
1, 347580, Note_on_c, 1, 52, 127
1, 347640, Note_on_c, 1, 66, 127
1, 347699, Note_off_c, 1, 69, 0
1, 347699, Note_off_c, 1, 64, 0
1, 347699, Note_off_c, 1, 61, 0
1, 347699, Note_off_c, 1, 45, 0
1, 347699, Note_off_c, 1, 52, 0
1, 347699, Note_off_c, 1, 66, 0
1, 347700, Note_off_c, 1, 57, 0
1, 347700, Note_on_c, 1, 67, 127
1, 347700, Note_on_c, 1, 49, 127
1, 347759, Note_off_c, 1, 67, 0
1, 347819, Note_off_c, 1, 49, 0
1, 347820, Note_on_c, 1, 67, 127
1, 347820, Note_on_c, 1, 64, 127
1, 347820, Note_on_c, 1, 45, 127
1, 347879, Note_off_c, 1, 67, 0
1, 347879, Note_off_c, 1, 64, 0
1, 347880, Note_on_c, 1, 69, 127
1, 347880, Note_on_c, 1, 66, 127
1, 347939, Note_off_c, 1, 45, 0
1, 347939, Note_off_c, 1, 69, 0
1, 347939, Note_off_c, 1, 66, 0
1, 347940, Note_on_c, 1, 86, 127
1, 347940, Note_on_c, 1, 81, 127
1, 347940, Note_on_c, 1, 78, 127
1, 347940, Note_on_c, 1, 50, 127
1, 347940, Note_on_c, 1, 66, 127
1, 347940, Note_on_c, 1, 62, 127
1, 347940, Note_on_c, 1, 74, 127
1, 347940, Note_on_c, 1, 69, 127
1, 348000, Note_on_c, 1, 67, 127
1, 348000, Note_on_c, 1, 64, 127
1, 348059, Note_off_c, 1, 67, 0
1, 348059, Note_off_c, 1, 64, 0
1, 348179, Note_off_c, 1, 86, 0
1, 348179, Note_off_c, 1, 81, 0
1, 348179, Note_off_c, 1, 78, 0
1, 348179, Note_off_c, 1, 50, 0
1, 348179, Note_off_c, 1, 66, 0
1, 348179, Note_off_c, 1, 62, 0
1, 348179, Note_off_c, 1, 74, 0
1, 348179, Note_off_c, 1, 69, 0
1, 348180, Note_on_c, 1, 81, 127
1, 348180, Note_on_c, 1, 78, 127
1, 348180, Note_on_c, 1, 74, 127
1, 348180, Note_on_c, 1, 50, 127
1, 348180, Note_on_c, 1, 69, 127
1, 348180, Note_on_c, 1, 66, 127
1, 348180, Note_on_c, 1, 62, 127
1, 348180, Note_on_c, 1, 38, 127
1, 348419, Note_off_c, 1, 81, 0
1, 348419, Note_off_c, 1, 78, 0
1, 348419, Note_off_c, 1, 74, 0
1, 348419, Note_off_c, 1, 50, 0
1, 348419, Note_off_c, 1, 69, 0
1, 348419, Note_off_c, 1, 66, 0
1, 348419, Note_off_c, 1, 62, 0
1, 348419, Note_off_c, 1, 38, 0
1, 348420, Note_on_c, 1, 74, 127
1, 348420, Note_on_c, 1, 78, 127
1, 348420, Note_on_c, 1, 57, 127
1, 348539, Note_off_c, 1, 74, 0
1, 348539, Note_off_c, 1, 78, 0
1, 348539, Note_off_c, 1, 57, 0
1, 348540, Note_on_c, 1, 78, 127
1, 348540, Note_on_c, 1, 74, 127
1, 348540, Note_on_c, 1, 57, 127
1, 348599, Note_off_c, 1, 78, 0
1, 348599, Note_off_c, 1, 74, 0
1, 348600, Note_on_c, 1, 76, 127
1, 348600, Note_on_c, 1, 73, 127
1, 348659, Note_off_c, 1, 57, 0
1, 348659, Note_off_c, 1, 76, 0
1, 348659, Note_off_c, 1, 73, 0
1, 348660, Note_on_c, 1, 79, 127
1, 348660, Note_on_c, 1, 76, 127
1, 348660, Note_on_c, 1, 57, 127
1, 348779, Note_off_c, 1, 79, 0
1, 348779, Note_off_c, 1, 76, 0
1, 348779, Note_off_c, 1, 57, 0
1, 348780, Note_on_c, 1, 74, 127
1, 348780, Note_on_c, 1, 78, 127
1, 348780, Note_on_c, 1, 57, 127
1, 348839, Note_off_c, 1, 74, 0
1, 348839, Note_off_c, 1, 78, 0
1, 348840, Note_on_c, 1, 76, 127
1, 348840, Note_on_c, 1, 73, 127
1, 348899, Note_off_c, 1, 57, 0
1, 348899, Note_off_c, 1, 76, 0
1, 348899, Note_off_c, 1, 73, 0
1, 348900, Note_on_c, 1, 74, 127
1, 348900, Note_on_c, 1, 78, 127
1, 348900, Note_on_c, 1, 57, 127
1, 349019, Note_off_c, 1, 74, 0
1, 349019, Note_off_c, 1, 78, 0
1, 349019, Note_off_c, 1, 57, 0
1, 349020, Note_on_c, 1, 74, 127
1, 349020, Note_on_c, 1, 78, 127
1, 349020, Note_on_c, 1, 57, 127
1, 349079, Note_off_c, 1, 74, 0
1, 349079, Note_off_c, 1, 78, 0
1, 349080, Note_on_c, 1, 76, 127
1, 349080, Note_on_c, 1, 73, 127
1, 349139, Note_off_c, 1, 57, 0
1, 349139, Note_off_c, 1, 76, 0
1, 349139, Note_off_c, 1, 73, 0
1, 349140, Note_on_c, 1, 79, 127
1, 349140, Note_on_c, 1, 76, 127
1, 349140, Note_on_c, 1, 57, 127
1, 349259, Note_off_c, 1, 79, 0
1, 349259, Note_off_c, 1, 76, 0
1, 349259, Note_off_c, 1, 57, 0
1, 349260, Note_on_c, 1, 74, 127
1, 349260, Note_on_c, 1, 78, 127
1, 349260, Note_on_c, 1, 57, 127
1, 349319, Note_off_c, 1, 74, 0
1, 349319, Note_off_c, 1, 78, 0
1, 349320, Note_on_c, 1, 76, 127
1, 349320, Note_on_c, 1, 73, 127
1, 349379, Note_off_c, 1, 57, 0
1, 349379, Note_off_c, 1, 76, 0
1, 349379, Note_off_c, 1, 73, 0
1, 349380, Note_on_c, 1, 86, 127
1, 349380, Note_on_c, 1, 81, 127
1, 349380, Note_on_c, 1, 78, 127
1, 349380, Note_on_c, 1, 50, 127
1, 349380, Note_on_c, 1, 66, 127
1, 349380, Note_on_c, 1, 62, 127
1, 349380, Note_on_c, 1, 74, 127
1, 349380, Note_on_c, 1, 69, 127
1, 349439, Note_off_c, 1, 66, 0
1, 349440, Note_on_c, 1, 67, 127
1, 349440, Note_on_c, 1, 64, 127
1, 349499, Note_off_c, 1, 67, 0
1, 349499, Note_off_c, 1, 64, 0
1, 349619, Note_off_c, 1, 86, 0
1, 349619, Note_off_c, 1, 81, 0
1, 349619, Note_off_c, 1, 78, 0
1, 349619, Note_off_c, 1, 50, 0
1, 349619, Note_off_c, 1, 62, 0
1, 349619, Note_off_c, 1, 74, 0
1, 349619, Note_off_c, 1, 69, 0
1, 349620, Note_on_c, 1, 81, 127
1, 349620, Note_on_c, 1, 78, 127
1, 349620, Note_on_c, 1, 74, 127
1, 349620, Note_on_c, 1, 50, 127
1, 349620, Note_on_c, 1, 69, 127
1, 349620, Note_on_c, 1, 66, 127
1, 349620, Note_on_c, 1, 57, 127
1, 349620, Note_on_c, 1, 38, 127
1, 349859, Note_off_c, 1, 81, 0
1, 349859, Note_off_c, 1, 78, 0
1, 349859, Note_off_c, 1, 74, 0
1, 349859, Note_off_c, 1, 50, 0
1, 349859, Note_off_c, 1, 69, 0
1, 349859, Note_off_c, 1, 66, 0
1, 349859, Note_off_c, 1, 57, 0
1, 349859, Note_off_c, 1, 38, 0
1, 349860, Note_on_c, 1, 81, 127
1, 349860, Note_on_c, 1, 78, 127
1, 349860, Note_on_c, 1, 50, 127
1, 349979, Note_off_c, 1, 81, 0
1, 349979, Note_off_c, 1, 78, 0
1, 349979, Note_off_c, 1, 50, 0
1, 349980, Note_on_c, 1, 81, 127
1, 349980, Note_on_c, 1, 78, 127
1, 349980, Note_on_c, 1, 50, 127
1, 350039, Note_off_c, 1, 81, 0
1, 350039, Note_off_c, 1, 78, 0
1, 350040, Note_on_c, 1, 79, 127
1, 350040, Note_on_c, 1, 76, 127
1, 350099, Note_off_c, 1, 50, 0
1, 350099, Note_off_c, 1, 79, 0
1, 350099, Note_off_c, 1, 76, 0
1, 350100, Note_on_c, 1, 83, 127
1, 350100, Note_on_c, 1, 79, 127
1, 350100, Note_on_c, 1, 50, 127
1, 350219, Note_off_c, 1, 83, 0
1, 350219, Note_off_c, 1, 79, 0
1, 350219, Note_off_c, 1, 50, 0
1, 350220, Note_on_c, 1, 81, 127
1, 350220, Note_on_c, 1, 78, 127
1, 350220, Note_on_c, 1, 50, 127
1, 350279, Note_off_c, 1, 81, 0
1, 350279, Note_off_c, 1, 78, 0
1, 350280, Note_on_c, 1, 79, 127
1, 350280, Note_on_c, 1, 76, 127
1, 350339, Note_off_c, 1, 50, 0
1, 350339, Note_off_c, 1, 79, 0
1, 350339, Note_off_c, 1, 76, 0
1, 350340, Note_on_c, 1, 81, 127
1, 350340, Note_on_c, 1, 78, 127
1, 350340, Note_on_c, 1, 50, 127
1, 350459, Note_off_c, 1, 81, 0
1, 350459, Note_off_c, 1, 78, 0
1, 350459, Note_off_c, 1, 50, 0
1, 350460, Note_on_c, 1, 81, 127
1, 350460, Note_on_c, 1, 78, 127
1, 350460, Note_on_c, 1, 50, 127
1, 350519, Note_off_c, 1, 81, 0
1, 350519, Note_off_c, 1, 78, 0
1, 350520, Note_on_c, 1, 79, 127
1, 350520, Note_on_c, 1, 76, 127
1, 350579, Note_off_c, 1, 50, 0
1, 350579, Note_off_c, 1, 79, 0
1, 350579, Note_off_c, 1, 76, 0
1, 350580, Note_on_c, 1, 83, 127
1, 350580, Note_on_c, 1, 79, 127
1, 350580, Note_on_c, 1, 50, 127
1, 350699, Note_off_c, 1, 83, 0
1, 350699, Note_off_c, 1, 79, 0
1, 350699, Note_off_c, 1, 50, 0
1, 350700, Note_on_c, 1, 81, 127
1, 350700, Note_on_c, 1, 78, 127
1, 350700, Note_on_c, 1, 50, 127
1, 350759, Note_off_c, 1, 81, 0
1, 350759, Note_off_c, 1, 78, 0
1, 350760, Note_on_c, 1, 79, 127
1, 350760, Note_on_c, 1, 76, 127
1, 350819, Note_off_c, 1, 50, 0
1, 350819, Note_off_c, 1, 79, 0
1, 350819, Note_off_c, 1, 76, 0
1, 350820, Note_on_c, 1, 86, 127
1, 350820, Note_on_c, 1, 81, 127
1, 350820, Note_on_c, 1, 78, 127
1, 350820, Note_on_c, 1, 50, 127
1, 350820, Note_on_c, 1, 66, 127
1, 350820, Note_on_c, 1, 62, 127
1, 350820, Note_on_c, 1, 74, 127
1, 350880, Note_on_c, 1, 67, 127
1, 350880, Note_on_c, 1, 64, 127
1, 350939, Note_off_c, 1, 67, 0
1, 350939, Note_off_c, 1, 64, 0
1, 351059, Note_off_c, 1, 86, 0
1, 351059, Note_off_c, 1, 81, 0
1, 351059, Note_off_c, 1, 78, 0
1, 351059, Note_off_c, 1, 50, 0
1, 351059, Note_off_c, 1, 66, 0
1, 351059, Note_off_c, 1, 62, 0
1, 351059, Note_off_c, 1, 74, 0
1, 351060, Note_on_c, 1, 81, 127
1, 351060, Note_on_c, 1, 78, 127
1, 351060, Note_on_c, 1, 74, 127
1, 351060, Note_on_c, 1, 50, 127
1, 351060, Note_on_c, 1, 69, 127
1, 351060, Note_on_c, 1, 66, 127
1, 351060, Note_on_c, 1, 62, 127
1, 351060, Note_on_c, 1, 38, 127
1, 351299, Note_off_c, 1, 81, 0
1, 351299, Note_off_c, 1, 78, 0
1, 351299, Note_off_c, 1, 74, 0
1, 351299, Note_off_c, 1, 50, 0
1, 351299, Note_off_c, 1, 69, 0
1, 351299, Note_off_c, 1, 66, 0
1, 351299, Note_off_c, 1, 62, 0
1, 351299, Note_off_c, 1, 38, 0
1, 351300, Note_on_c, 1, 78, 127
1, 351300, Note_on_c, 1, 74, 127
1, 351300, Note_on_c, 1, 69, 127
1, 351300, Note_on_c, 1, 50, 127
1, 351300, Note_on_c, 1, 66, 127
1, 351300, Note_on_c, 1, 62, 127
1, 351360, Note_on_c, 1, 67, 127
1, 351360, Note_on_c, 1, 64, 127
1, 351419, Note_off_c, 1, 78, 0
1, 351419, Note_off_c, 1, 74, 0
1, 351419, Note_off_c, 1, 69, 0
1, 351419, Note_off_c, 1, 50, 0
1, 351419, Note_off_c, 1, 66, 0
1, 351419, Note_off_c, 1, 62, 0
1, 351419, Note_off_c, 1, 67, 0
1, 351419, Note_off_c, 1, 64, 0
1, 351420, Note_on_c, 1, 74, 127
1, 351420, Note_on_c, 1, 69, 127
1, 351420, Note_on_c, 1, 66, 127
1, 351420, Note_on_c, 1, 50, 127
1, 351420, Note_on_c, 1, 62, 127
1, 351420, Note_on_c, 1, 57, 127
1, 351420, Note_on_c, 1, 54, 127
1, 351420, Note_on_c, 1, 38, 127
1, 351480, Note_on_c, 1, 64, 127
1, 351480, Note_on_c, 1, 67, 127
1, 351539, Note_off_c, 1, 74, 0
1, 351539, Note_off_c, 1, 69, 0
1, 351539, Note_off_c, 1, 66, 0
1, 351539, Note_off_c, 1, 50, 0
1, 351539, Note_off_c, 1, 62, 0
1, 351539, Note_off_c, 1, 57, 0
1, 351539, Note_off_c, 1, 54, 0
1, 351539, Note_off_c, 1, 38, 0
1, 351539, Note_off_c, 1, 64, 0
1, 351539, Note_off_c, 1, 67, 0
1, 351540, Note_on_c, 1, 81, 127
1, 351540, Note_on_c, 1, 78, 127
1, 351540, Note_on_c, 1, 74, 127
1, 351540, Note_on_c, 1, 50, 127
1, 351540, Note_on_c, 1, 66, 127
1, 351540, Note_on_c, 1, 69, 127
1, 351540, Note_on_c, 1, 54, 127
1, 351540, Note_on_c, 1, 38, 127
1, 351600, Note_on_c, 1, 67, 127
1, 351600, Note_on_c, 1, 64, 127
1, 351659, Note_off_c, 1, 81, 0
1, 351659, Note_off_c, 1, 78, 0
1, 351659, Note_off_c, 1, 74, 0
1, 351659, Note_off_c, 1, 50, 0
1, 351659, Note_off_c, 1, 66, 0
1, 351659, Note_off_c, 1, 69, 0
1, 351659, Note_off_c, 1, 54, 0
1, 351659, Note_off_c, 1, 38, 0
1, 351659, Note_off_c, 1, 67, 0
1, 351659, Note_off_c, 1, 64, 0
1, 351660, Note_on_c, 1, 78, 127
1, 351660, Note_on_c, 1, 74, 127
1, 351660, Note_on_c, 1, 69, 127
1, 351660, Note_on_c, 1, 50, 127
1, 351660, Note_on_c, 1, 66, 127
1, 351660, Note_on_c, 1, 62, 127
1, 351660, Note_on_c, 1, 57, 127
1, 351720, Note_on_c, 1, 64, 127
1, 351720, Note_on_c, 1, 67, 127
1, 351779, Note_off_c, 1, 78, 0
1, 351779, Note_off_c, 1, 74, 0
1, 351779, Note_off_c, 1, 69, 0
1, 351779, Note_off_c, 1, 50, 0
1, 351779, Note_off_c, 1, 66, 0
1, 351779, Note_off_c, 1, 62, 0
1, 351779, Note_off_c, 1, 57, 0
1, 351779, Note_off_c, 1, 64, 0
1, 351779, Note_off_c, 1, 67, 0
1, 351780, Note_on_c, 1, 86, 127
1, 351780, Note_on_c, 1, 81, 127
1, 351780, Note_on_c, 1, 78, 127
1, 351780, Note_on_c, 1, 50, 127
1, 351780, Note_on_c, 1, 62, 127
1, 351780, Note_on_c, 1, 66, 127
1, 351780, Note_on_c, 1, 74, 127
1, 351780, Note_on_c, 1, 69, 127
1, 351780, Note_on_c, 1, 57, 127
1, 351839, Note_off_c, 1, 62, 0
1, 351839, Note_off_c, 1, 66, 0
1, 351840, Note_on_c, 1, 64, 127
1, 351840, Note_on_c, 1, 67, 127
1, 351899, Note_off_c, 1, 86, 0
1, 351899, Note_off_c, 1, 81, 0
1, 351899, Note_off_c, 1, 78, 0
1, 351899, Note_off_c, 1, 50, 0
1, 351899, Note_off_c, 1, 74, 0
1, 351899, Note_off_c, 1, 69, 0
1, 351899, Note_off_c, 1, 57, 0
1, 351899, Note_off_c, 1, 64, 0
1, 351899, Note_off_c, 1, 67, 0
1, 351900, Note_on_c, 1, 81, 127
1, 351900, Note_on_c, 1, 78, 127
1, 351900, Note_on_c, 1, 74, 127
1, 351900, Note_on_c, 1, 50, 127
1, 351900, Note_on_c, 1, 66, 127
1, 351900, Note_on_c, 1, 62, 127
1, 351900, Note_on_c, 1, 69, 127
1, 351900, Note_on_c, 1, 38, 127
1, 351959, Note_off_c, 1, 50, 0
1, 351960, Note_on_c, 1, 67, 127
1, 351960, Note_on_c, 1, 64, 127
1, 352019, Note_off_c, 1, 81, 0
1, 352019, Note_off_c, 1, 78, 0
1, 352019, Note_off_c, 1, 74, 0
1, 352019, Note_off_c, 1, 66, 0
1, 352019, Note_off_c, 1, 62, 0
1, 352019, Note_off_c, 1, 69, 0
1, 352019, Note_off_c, 1, 38, 0
1, 352019, Note_off_c, 1, 67, 0
1, 352019, Note_off_c, 1, 64, 0
1, 352020, Note_on_c, 1, 78, 127
1, 352020, Note_on_c, 1, 74, 127
1, 352020, Note_on_c, 1, 69, 127
1, 352020, Note_on_c, 1, 50, 127
1, 352020, Note_on_c, 1, 66, 127
1, 352020, Note_on_c, 1, 86, 127
1, 352020, Note_on_c, 1, 81, 127
1, 352020, Note_on_c, 1, 62, 127
1, 352020, Note_on_c, 1, 38, 127
1, 352080, Note_on_c, 1, 67, 127
1, 352080, Note_on_c, 1, 64, 127
1, 352139, Note_off_c, 1, 78, 0
1, 352139, Note_off_c, 1, 74, 0
1, 352139, Note_off_c, 1, 69, 0
1, 352139, Note_off_c, 1, 50, 0
1, 352139, Note_off_c, 1, 66, 0
1, 352139, Note_off_c, 1, 86, 0
1, 352139, Note_off_c, 1, 81, 0
1, 352139, Note_off_c, 1, 62, 0
1, 352139, Note_off_c, 1, 38, 0
1, 352139, Note_off_c, 1, 67, 0
1, 352139, Note_off_c, 1, 64, 0
1, 352140, Note_on_c, 1, 74, 127
1, 352140, Note_on_c, 1, 69, 127
1, 352140, Note_on_c, 1, 66, 127
1, 352140, Note_on_c, 1, 50, 127
1, 352140, Note_on_c, 1, 81, 127
1, 352140, Note_on_c, 1, 78, 127
1, 352140, Note_on_c, 1, 62, 127
1, 352200, Note_on_c, 1, 67, 127
1, 352200, Note_on_c, 1, 64, 127
1, 352259, Note_off_c, 1, 74, 0
1, 352259, Note_off_c, 1, 69, 0
1, 352259, Note_off_c, 1, 66, 0
1, 352259, Note_off_c, 1, 50, 0
1, 352259, Note_off_c, 1, 81, 0
1, 352259, Note_off_c, 1, 78, 0
1, 352259, Note_off_c, 1, 62, 0
1, 352259, Note_off_c, 1, 67, 0
1, 352259, Note_off_c, 1, 64, 0
1, 352260, Note_on_c, 1, 81, 127
1, 352260, Note_on_c, 1, 74, 127
1, 352260, Note_on_c, 1, 50, 127
1, 352260, Note_on_c, 1, 62, 127
1, 352260, Note_on_c, 1, 66, 127
1, 352260, Note_on_c, 1, 78, 127
1, 352260, Note_on_c, 1, 69, 127
1, 352379, Note_off_c, 1, 81, 0
1, 352379, Note_off_c, 1, 74, 0
1, 352379, Note_off_c, 1, 50, 0
1, 352379, Note_off_c, 1, 62, 0
1, 352379, Note_off_c, 1, 66, 0
1, 352379, Note_off_c, 1, 78, 0
1, 352379, Note_off_c, 1, 69, 0
1, 352380, Note_on_c, 1, 81, 127
1, 352380, Note_on_c, 1, 74, 127
1, 352380, Note_on_c, 1, 50, 127
1, 352380, Note_on_c, 1, 69, 127
1, 352380, Note_on_c, 1, 66, 127
1, 352380, Note_on_c, 1, 78, 127
1, 352380, Note_on_c, 1, 76, 127
1, 352380, Note_on_c, 1, 62, 127
1, 352439, Note_off_c, 1, 81, 0
1, 352439, Note_off_c, 1, 69, 0
1, 352439, Note_off_c, 1, 66, 0
1, 352439, Note_off_c, 1, 78, 0
1, 352439, Note_off_c, 1, 76, 0
1, 352440, Note_on_c, 1, 79, 127
1, 352440, Note_on_c, 1, 67, 127
1, 352440, Note_on_c, 1, 64, 127
1, 352499, Note_off_c, 1, 74, 0
1, 352499, Note_off_c, 1, 50, 0
1, 352499, Note_off_c, 1, 62, 0
1, 352499, Note_off_c, 1, 79, 0
1, 352499, Note_off_c, 1, 67, 0
1, 352499, Note_off_c, 1, 64, 0
1, 352500, Note_on_c, 1, 83, 127
1, 352500, Note_on_c, 1, 74, 127
1, 352500, Note_on_c, 1, 50, 127
1, 352500, Note_on_c, 1, 71, 127
1, 352500, Note_on_c, 1, 67, 127
1, 352500, Note_on_c, 1, 79, 127
1, 352500, Note_on_c, 1, 62, 127
1, 352500, Note_on_c, 1, 55, 127
1, 352500, Note_on_c, 1, 43, 127
1, 352559, Note_off_c, 1, 50, 0
1, 352619, Note_off_c, 1, 83, 0
1, 352619, Note_off_c, 1, 74, 0
1, 352619, Note_off_c, 1, 71, 0
1, 352619, Note_off_c, 1, 67, 0
1, 352619, Note_off_c, 1, 79, 0
1, 352619, Note_off_c, 1, 62, 0
1, 352619, Note_off_c, 1, 55, 0
1, 352619, Note_off_c, 1, 43, 0
1, 352620, Note_on_c, 1, 81, 127
1, 352620, Note_on_c, 1, 74, 127
1, 352620, Note_on_c, 1, 50, 127
1, 352620, Note_on_c, 1, 69, 127
1, 352620, Note_on_c, 1, 66, 127
1, 352620, Note_on_c, 1, 78, 127
1, 352620, Note_on_c, 1, 62, 127
1, 352620, Note_on_c, 1, 55, 127
1, 352620, Note_on_c, 1, 43, 127
1, 352679, Note_off_c, 1, 81, 0
1, 352679, Note_off_c, 1, 50, 0
1, 352679, Note_off_c, 1, 69, 0
1, 352679, Note_off_c, 1, 66, 0
1, 352679, Note_off_c, 1, 78, 0
1, 352680, Note_on_c, 1, 79, 127
1, 352680, Note_on_c, 1, 67, 127
1, 352680, Note_on_c, 1, 64, 127
1, 352680, Note_on_c, 1, 76, 127
1, 352739, Note_off_c, 1, 74, 0
1, 352739, Note_off_c, 1, 62, 0
1, 352739, Note_off_c, 1, 55, 0
1, 352739, Note_off_c, 1, 43, 0
1, 352739, Note_off_c, 1, 79, 0
1, 352739, Note_off_c, 1, 67, 0
1, 352739, Note_off_c, 1, 64, 0
1, 352739, Note_off_c, 1, 76, 0
1, 352740, Note_on_c, 1, 81, 127
1, 352740, Note_on_c, 1, 74, 127
1, 352740, Note_on_c, 1, 50, 127
1, 352740, Note_on_c, 1, 69, 127
1, 352740, Note_on_c, 1, 66, 127
1, 352740, Note_on_c, 1, 78, 127
1, 352740, Note_on_c, 1, 62, 127
1, 352799, Note_off_c, 1, 50, 0
1, 352800, Note_on_c, 1, 52, 127
1, 352859, Note_off_c, 1, 81, 0
1, 352859, Note_off_c, 1, 74, 0
1, 352859, Note_off_c, 1, 69, 0
1, 352859, Note_off_c, 1, 66, 0
1, 352859, Note_off_c, 1, 78, 0
1, 352859, Note_off_c, 1, 62, 0
1, 352859, Note_off_c, 1, 52, 0
1, 352860, Note_on_c, 1, 79, 127
1, 352860, Note_on_c, 1, 69, 127
1, 352860, Note_on_c, 1, 50, 127
1, 352860, Note_on_c, 1, 64, 127
1, 352860, Note_on_c, 1, 67, 127
1, 352860, Note_on_c, 1, 76, 127
1, 352860, Note_on_c, 1, 57, 127
1, 352860, Note_on_c, 1, 54, 127
1, 352919, Note_off_c, 1, 79, 0
1, 352919, Note_off_c, 1, 50, 0
1, 352919, Note_off_c, 1, 64, 0
1, 352919, Note_off_c, 1, 67, 0
1, 352919, Note_off_c, 1, 76, 0
1, 352919, Note_off_c, 1, 54, 0
1, 352920, Note_on_c, 1, 78, 127
1, 352920, Note_on_c, 1, 66, 127
1, 352920, Note_on_c, 1, 62, 127
1, 352920, Note_on_c, 1, 74, 127
1, 352920, Note_on_c, 1, 55, 127
1, 352979, Note_off_c, 1, 69, 0
1, 352979, Note_off_c, 1, 57, 0
1, 352979, Note_off_c, 1, 78, 0
1, 352979, Note_off_c, 1, 66, 0
1, 352979, Note_off_c, 1, 62, 0
1, 352979, Note_off_c, 1, 74, 0
1, 352979, Note_off_c, 1, 55, 0
1, 352980, Note_on_c, 1, 76, 127
1, 352980, Note_on_c, 1, 69, 127
1, 352980, Note_on_c, 1, 45, 127
1, 352980, Note_on_c, 1, 57, 127
1, 352980, Note_on_c, 1, 64, 127
1, 352980, Note_on_c, 1, 73, 127
1, 353040, Note_on_c, 1, 56, 127
1, 353099, Note_off_c, 1, 56, 0
1, 353219, Note_off_c, 1, 76, 0
1, 353219, Note_off_c, 1, 69, 0
1, 353219, Note_off_c, 1, 45, 0
1, 353219, Note_off_c, 1, 57, 0
1, 353219, Note_off_c, 1, 64, 0
1, 353219, Note_off_c, 1, 73, 0
1, 353220, Note_on_c, 1, 85, 127
1, 353220, Note_on_c, 1, 81, 127
1, 353220, Note_on_c, 1, 76, 127
1, 353220, Note_on_c, 1, 45, 127
1, 353220, Note_on_c, 1, 69, 127
1, 353220, Note_on_c, 1, 57, 127
1, 353220, Note_on_c, 1, 88, 127
1, 353220, Note_on_c, 1, 73, 127
1, 353220, Note_on_c, 1, 64, 127
1, 353279, Note_off_c, 1, 45, 0
1, 353280, Note_on_c, 1, 71, 127
1, 353340, Note_off_c, 1, 71, 0
1, 353459, Note_off_c, 1, 85, 0
1, 353459, Note_off_c, 1, 81, 0
1, 353459, Note_off_c, 1, 76, 0
1, 353459, Note_off_c, 1, 69, 0
1, 353459, Note_off_c, 1, 57, 0
1, 353459, Note_off_c, 1, 88, 0
1, 353459, Note_off_c, 1, 73, 0
1, 353460, Note_on_c, 1, 78, 127
1, 353460, Note_on_c, 1, 61, 127
1, 353699, Note_off_c, 1, 64, 0
1, 353699, Note_off_c, 1, 78, 0
1, 353699, Note_off_c, 1, 61, 0
1, 353820, Note_on_c, 1, 76, 127
1, 353820, Note_on_c, 1, 64, 127
1, 353820, Note_on_c, 1, 81, 127
1, 353820, Note_on_c, 1, 73, 127
1, 353879, Note_off_c, 1, 81, 0
1, 353879, Note_off_c, 1, 73, 0
1, 353880, Note_on_c, 1, 80, 127
1, 353880, Note_on_c, 1, 71, 127
1, 353939, Note_off_c, 1, 76, 0
1, 353939, Note_off_c, 1, 64, 0
1, 353939, Note_off_c, 1, 80, 0
1, 353939, Note_off_c, 1, 71, 0
1, 353940, Note_on_c, 1, 76, 127
1, 353940, Note_on_c, 1, 64, 127
1, 353940, Note_on_c, 1, 83, 127
1, 353940, Note_on_c, 1, 74, 127
1, 353940, Note_on_c, 1, 68, 127
1, 354059, Note_off_c, 1, 76, 0
1, 354059, Note_off_c, 1, 64, 0
1, 354059, Note_off_c, 1, 83, 0
1, 354059, Note_off_c, 1, 74, 0
1, 354059, Note_off_c, 1, 68, 0
1, 354060, Note_on_c, 1, 76, 127
1, 354060, Note_on_c, 1, 64, 127
1, 354060, Note_on_c, 1, 81, 127
1, 354060, Note_on_c, 1, 73, 127
1, 354060, Note_on_c, 1, 69, 127
1, 354119, Note_off_c, 1, 81, 0
1, 354119, Note_off_c, 1, 73, 0
1, 354119, Note_off_c, 1, 69, 0
1, 354120, Note_on_c, 1, 80, 127
1, 354120, Note_on_c, 1, 71, 127
1, 354179, Note_off_c, 1, 76, 0
1, 354179, Note_off_c, 1, 64, 0
1, 354179, Note_off_c, 1, 80, 0
1, 354179, Note_off_c, 1, 71, 0
1, 354180, Note_on_c, 1, 76, 127
1, 354180, Note_on_c, 1, 64, 127
1, 354180, Note_on_c, 1, 81, 127
1, 354180, Note_on_c, 1, 73, 127
1, 354299, Note_off_c, 1, 76, 0
1, 354299, Note_off_c, 1, 64, 0
1, 354299, Note_off_c, 1, 81, 0
1, 354299, Note_off_c, 1, 73, 0
1, 354300, Note_on_c, 1, 76, 127
1, 354300, Note_on_c, 1, 64, 127
1, 354300, Note_on_c, 1, 81, 127
1, 354300, Note_on_c, 1, 73, 127
1, 354359, Note_off_c, 1, 81, 0
1, 354359, Note_off_c, 1, 73, 0
1, 354360, Note_on_c, 1, 80, 127
1, 354360, Note_on_c, 1, 71, 127
1, 354419, Note_off_c, 1, 76, 0
1, 354419, Note_off_c, 1, 64, 0
1, 354419, Note_off_c, 1, 80, 0
1, 354419, Note_off_c, 1, 71, 0
1, 354420, Note_on_c, 1, 76, 127
1, 354420, Note_on_c, 1, 64, 127
1, 354420, Note_on_c, 1, 83, 127
1, 354420, Note_on_c, 1, 74, 127
1, 354420, Note_on_c, 1, 68, 127
1, 354539, Note_off_c, 1, 76, 0
1, 354539, Note_off_c, 1, 64, 0
1, 354539, Note_off_c, 1, 83, 0
1, 354539, Note_off_c, 1, 74, 0
1, 354539, Note_off_c, 1, 68, 0
1, 354540, Note_on_c, 1, 76, 127
1, 354540, Note_on_c, 1, 64, 127
1, 354540, Note_on_c, 1, 81, 127
1, 354540, Note_on_c, 1, 73, 127
1, 354540, Note_on_c, 1, 69, 127
1, 354599, Note_off_c, 1, 81, 0
1, 354599, Note_off_c, 1, 73, 0
1, 354599, Note_off_c, 1, 69, 0
1, 354600, Note_on_c, 1, 80, 127
1, 354600, Note_on_c, 1, 71, 127
1, 354659, Note_off_c, 1, 76, 0
1, 354659, Note_off_c, 1, 64, 0
1, 354659, Note_off_c, 1, 80, 0
1, 354659, Note_off_c, 1, 71, 0
1, 354660, Note_on_c, 1, 85, 127
1, 354660, Note_on_c, 1, 81, 127
1, 354660, Note_on_c, 1, 76, 127
1, 354660, Note_on_c, 1, 45, 127
1, 354660, Note_on_c, 1, 69, 127
1, 354660, Note_on_c, 1, 57, 127
1, 354660, Note_on_c, 1, 88, 127
1, 354660, Note_on_c, 1, 73, 127
1, 354660, Note_on_c, 1, 61, 127
1, 354719, Note_off_c, 1, 45, 0
1, 354720, Note_on_c, 1, 71, 127
1, 354779, Note_off_c, 1, 71, 0
1, 354780, Note_on_c, 1, 64, 127
1, 354899, Note_off_c, 1, 76, 0
1, 354899, Note_off_c, 1, 69, 0
1, 354899, Note_off_c, 1, 57, 0
1, 354899, Note_off_c, 1, 88, 0
1, 354899, Note_off_c, 1, 73, 0
1, 354899, Note_off_c, 1, 61, 0
1, 354900, Note_on_c, 1, 78, 127
1, 355139, Note_off_c, 1, 85, 0
1, 355139, Note_off_c, 1, 64, 0
1, 355139, Note_off_c, 1, 78, 0
1, 355140, Note_off_c, 1, 81, 0
1, 355260, Note_on_c, 1, 69, 127
1, 355260, Note_on_c, 1, 45, 127
1, 355260, Note_on_c, 1, 73, 127
1, 355260, Note_on_c, 1, 64, 127
1, 355319, Note_off_c, 1, 73, 0
1, 355319, Note_off_c, 1, 64, 0
1, 355320, Note_on_c, 1, 71, 127
1, 355320, Note_on_c, 1, 62, 127
1, 355379, Note_off_c, 1, 69, 0
1, 355379, Note_off_c, 1, 45, 0
1, 355379, Note_off_c, 1, 71, 0
1, 355379, Note_off_c, 1, 62, 0
1, 355380, Note_on_c, 1, 69, 127
1, 355380, Note_on_c, 1, 45, 127
1, 355380, Note_on_c, 1, 74, 127
1, 355380, Note_on_c, 1, 66, 127
1, 355499, Note_off_c, 1, 69, 0
1, 355499, Note_off_c, 1, 45, 0
1, 355499, Note_off_c, 1, 74, 0
1, 355499, Note_off_c, 1, 66, 0
1, 355500, Note_on_c, 1, 69, 127
1, 355500, Note_on_c, 1, 45, 127
1, 355500, Note_on_c, 1, 73, 127
1, 355500, Note_on_c, 1, 64, 127
1, 355559, Note_off_c, 1, 73, 0
1, 355559, Note_off_c, 1, 64, 0
1, 355560, Note_on_c, 1, 71, 127
1, 355560, Note_on_c, 1, 62, 127
1, 355619, Note_off_c, 1, 69, 0
1, 355619, Note_off_c, 1, 45, 0
1, 355619, Note_off_c, 1, 71, 0
1, 355619, Note_off_c, 1, 62, 0
1, 355620, Note_on_c, 1, 69, 127
1, 355620, Note_on_c, 1, 45, 127
1, 355620, Note_on_c, 1, 73, 127
1, 355620, Note_on_c, 1, 64, 127
1, 355739, Note_off_c, 1, 69, 0
1, 355739, Note_off_c, 1, 45, 0
1, 355739, Note_off_c, 1, 73, 0
1, 355739, Note_off_c, 1, 64, 0
1, 355740, Note_on_c, 1, 69, 127
1, 355740, Note_on_c, 1, 45, 127
1, 355740, Note_on_c, 1, 64, 127
1, 355740, Note_on_c, 1, 73, 127
1, 355799, Note_off_c, 1, 64, 0
1, 355799, Note_off_c, 1, 73, 0
1, 355800, Note_on_c, 1, 71, 127
1, 355800, Note_on_c, 1, 62, 127
1, 355859, Note_off_c, 1, 69, 0
1, 355859, Note_off_c, 1, 45, 0
1, 355859, Note_off_c, 1, 71, 0
1, 355859, Note_off_c, 1, 62, 0
1, 355860, Note_on_c, 1, 69, 127
1, 355860, Note_on_c, 1, 45, 127
1, 355860, Note_on_c, 1, 74, 127
1, 355860, Note_on_c, 1, 66, 127
1, 355979, Note_off_c, 1, 69, 0
1, 355979, Note_off_c, 1, 45, 0
1, 355979, Note_off_c, 1, 74, 0
1, 355979, Note_off_c, 1, 66, 0
1, 355980, Note_on_c, 1, 69, 127
1, 355980, Note_on_c, 1, 45, 127
1, 355980, Note_on_c, 1, 64, 127
1, 355980, Note_on_c, 1, 73, 127
1, 356039, Note_off_c, 1, 64, 0
1, 356039, Note_off_c, 1, 73, 0
1, 356040, Note_on_c, 1, 71, 127
1, 356040, Note_on_c, 1, 62, 127
1, 356099, Note_off_c, 1, 69, 0
1, 356099, Note_off_c, 1, 45, 0
1, 356099, Note_off_c, 1, 71, 0
1, 356099, Note_off_c, 1, 62, 0
1, 356100, Note_on_c, 1, 85, 127
1, 356100, Note_on_c, 1, 81, 127
1, 356100, Note_on_c, 1, 76, 127
1, 356100, Note_on_c, 1, 45, 127
1, 356100, Note_on_c, 1, 69, 127
1, 356100, Note_on_c, 1, 64, 127
1, 356100, Note_on_c, 1, 88, 127
1, 356100, Note_on_c, 1, 73, 127
1, 356100, Note_on_c, 1, 57, 127
1, 356159, Note_off_c, 1, 45, 0
1, 356160, Note_on_c, 1, 71, 127
1, 356219, Note_off_c, 1, 71, 0
1, 356220, Note_on_c, 1, 66, 127
1, 356279, Note_off_c, 1, 66, 0
1, 356280, Note_on_c, 1, 68, 127
1, 356339, Note_off_c, 1, 85, 0
1, 356339, Note_off_c, 1, 81, 0
1, 356339, Note_off_c, 1, 76, 0
1, 356339, Note_off_c, 1, 69, 0
1, 356339, Note_off_c, 1, 64, 0
1, 356339, Note_off_c, 1, 88, 0
1, 356339, Note_off_c, 1, 73, 0
1, 356339, Note_off_c, 1, 57, 0
1, 356339, Note_off_c, 1, 68, 0
1, 356340, Note_on_c, 1, 81, 127
1, 356340, Note_on_c, 1, 76, 127
1, 356340, Note_on_c, 1, 69, 127
1, 356340, Note_on_c, 1, 45, 127
1, 356340, Note_on_c, 1, 73, 127
1, 356340, Note_on_c, 1, 85, 127
1, 356340, Note_on_c, 1, 64, 127
1, 356340, Note_on_c, 1, 61, 127
1, 356579, Note_off_c, 1, 81, 0
1, 356579, Note_off_c, 1, 76, 0
1, 356579, Note_off_c, 1, 45, 0
1, 356579, Note_off_c, 1, 85, 0
1, 356579, Note_off_c, 1, 64, 0
1, 356579, Note_off_c, 1, 61, 0
1, 356580, Note_on_c, 1, 79, 127
1, 356580, Note_on_c, 1, 57, 127
1, 356639, Note_off_c, 1, 79, 0
1, 356640, Note_on_c, 1, 78, 127
1, 356640, Note_on_c, 1, 74, 127
1, 356699, Note_off_c, 1, 69, 0
1, 356699, Note_off_c, 1, 73, 0
1, 356699, Note_off_c, 1, 57, 0
1, 356699, Note_off_c, 1, 78, 0
1, 356699, Note_off_c, 1, 74, 0
1, 356700, Note_on_c, 1, 79, 127
1, 356700, Note_on_c, 1, 76, 127
1, 356700, Note_on_c, 1, 69, 127
1, 356700, Note_on_c, 1, 45, 127
1, 356700, Note_on_c, 1, 64, 127
1, 356700, Note_on_c, 1, 81, 127
1, 356700, Note_on_c, 1, 73, 127
1, 356700, Note_on_c, 1, 61, 127
1, 356700, Note_on_c, 1, 49, 127
1, 356700, Note_on_c, 1, 57, 127
1, 356759, Note_off_c, 1, 79, 0
1, 356759, Note_off_c, 1, 76, 0
1, 356760, Note_on_c, 1, 78, 127
1, 356760, Note_on_c, 1, 74, 127
1, 356819, Note_off_c, 1, 69, 0
1, 356819, Note_off_c, 1, 45, 0
1, 356819, Note_off_c, 1, 64, 0
1, 356819, Note_off_c, 1, 81, 0
1, 356819, Note_off_c, 1, 73, 0
1, 356819, Note_off_c, 1, 61, 0
1, 356819, Note_off_c, 1, 49, 0
1, 356819, Note_off_c, 1, 57, 0
1, 356819, Note_off_c, 1, 78, 0
1, 356819, Note_off_c, 1, 74, 0
1, 356820, Note_on_c, 1, 76, 127
1, 356820, Note_on_c, 1, 69, 127
1, 356820, Note_on_c, 1, 45, 127
1, 356820, Note_on_c, 1, 64, 127
1, 356820, Note_on_c, 1, 88, 127
1, 356820, Note_on_c, 1, 81, 127
1, 356820, Note_on_c, 1, 73, 127
1, 356820, Note_on_c, 1, 49, 127
1, 356820, Note_on_c, 1, 57, 127
1, 356880, Note_on_c, 1, 78, 127
1, 356880, Note_on_c, 1, 74, 127
1, 356939, Note_off_c, 1, 76, 0
1, 356939, Note_off_c, 1, 69, 0
1, 356939, Note_off_c, 1, 45, 0
1, 356939, Note_off_c, 1, 64, 0
1, 356939, Note_off_c, 1, 88, 0
1, 356939, Note_off_c, 1, 81, 0
1, 356939, Note_off_c, 1, 73, 0
1, 356939, Note_off_c, 1, 49, 0
1, 356939, Note_off_c, 1, 57, 0
1, 356939, Note_off_c, 1, 78, 0
1, 356939, Note_off_c, 1, 74, 0
1, 356940, Note_on_c, 1, 76, 127
1, 356940, Note_on_c, 1, 69, 127
1, 356940, Note_on_c, 1, 45, 127
1, 356940, Note_on_c, 1, 73, 127
1, 356940, Note_on_c, 1, 85, 127
1, 356940, Note_on_c, 1, 64, 127
1, 356940, Note_on_c, 1, 52, 127
1, 357000, Note_on_c, 1, 78, 127
1, 357000, Note_on_c, 1, 74, 127
1, 357059, Note_off_c, 1, 76, 0
1, 357059, Note_off_c, 1, 69, 0
1, 357059, Note_off_c, 1, 45, 0
1, 357059, Note_off_c, 1, 73, 0
1, 357059, Note_off_c, 1, 85, 0
1, 357059, Note_off_c, 1, 64, 0
1, 357059, Note_off_c, 1, 52, 0
1, 357059, Note_off_c, 1, 78, 0
1, 357059, Note_off_c, 1, 74, 0
1, 357060, Note_on_c, 1, 79, 127
1, 357060, Note_on_c, 1, 76, 127
1, 357060, Note_on_c, 1, 69, 127
1, 357060, Note_on_c, 1, 45, 127
1, 357060, Note_on_c, 1, 73, 127
1, 357060, Note_on_c, 1, 91, 127
1, 357060, Note_on_c, 1, 85, 127
1, 357060, Note_on_c, 1, 61, 127
1, 357060, Note_on_c, 1, 52, 127
1, 357120, Note_on_c, 1, 78, 127
1, 357120, Note_on_c, 1, 74, 127
1, 357179, Note_off_c, 1, 79, 0
1, 357179, Note_off_c, 1, 76, 0
1, 357179, Note_off_c, 1, 69, 0
1, 357179, Note_off_c, 1, 45, 0
1, 357179, Note_off_c, 1, 73, 0
1, 357179, Note_off_c, 1, 91, 0
1, 357179, Note_off_c, 1, 85, 0
1, 357179, Note_off_c, 1, 61, 0
1, 357179, Note_off_c, 1, 52, 0
1, 357179, Note_off_c, 1, 78, 0
1, 357179, Note_off_c, 1, 74, 0
1, 357180, Note_on_c, 1, 79, 127
1, 357180, Note_on_c, 1, 76, 127
1, 357180, Note_on_c, 1, 69, 127
1, 357180, Note_on_c, 1, 45, 127
1, 357180, Note_on_c, 1, 64, 127
1, 357180, Note_on_c, 1, 88, 127
1, 357180, Note_on_c, 1, 81, 127
1, 357180, Note_on_c, 1, 73, 127
1, 357180, Note_on_c, 1, 57, 127
1, 357239, Note_off_c, 1, 79, 0
1, 357239, Note_off_c, 1, 45, 0
1, 357240, Note_on_c, 1, 78, 127
1, 357240, Note_on_c, 1, 74, 127
1, 357299, Note_off_c, 1, 76, 0
1, 357299, Note_off_c, 1, 69, 0
1, 357299, Note_off_c, 1, 64, 0
1, 357299, Note_off_c, 1, 88, 0
1, 357299, Note_off_c, 1, 81, 0
1, 357299, Note_off_c, 1, 73, 0
1, 357299, Note_off_c, 1, 57, 0
1, 357299, Note_off_c, 1, 78, 0
1, 357299, Note_off_c, 1, 74, 0
1, 357300, Note_on_c, 1, 76, 127
1, 357300, Note_on_c, 1, 69, 127
1, 357300, Note_on_c, 1, 45, 127
1, 357300, Note_on_c, 1, 64, 127
1, 357300, Note_on_c, 1, 85, 127
1, 357300, Note_on_c, 1, 73, 127
1, 357300, Note_on_c, 1, 57, 127
1, 357360, Note_on_c, 1, 78, 127
1, 357360, Note_on_c, 1, 74, 127
1, 357419, Note_off_c, 1, 76, 0
1, 357419, Note_off_c, 1, 69, 0
1, 357419, Note_off_c, 1, 45, 0
1, 357419, Note_off_c, 1, 64, 0
1, 357419, Note_off_c, 1, 85, 0
1, 357419, Note_off_c, 1, 73, 0
1, 357419, Note_off_c, 1, 57, 0
1, 357419, Note_off_c, 1, 78, 0
1, 357419, Note_off_c, 1, 74, 0
1, 357420, Note_on_c, 1, 76, 127
1, 357420, Note_on_c, 1, 69, 127
1, 357420, Note_on_c, 1, 45, 127
1, 357420, Note_on_c, 1, 57, 127
1, 357420, Note_on_c, 1, 64, 127
1, 357420, Note_on_c, 1, 81, 127
1, 357420, Note_on_c, 1, 73, 127
1, 357420, Note_on_c, 1, 61, 127
1, 357479, Note_off_c, 1, 76, 0
1, 357480, Note_on_c, 1, 78, 127
1, 357480, Note_on_c, 1, 74, 127
1, 357539, Note_off_c, 1, 69, 0
1, 357539, Note_off_c, 1, 45, 0
1, 357539, Note_off_c, 1, 57, 0
1, 357539, Note_off_c, 1, 64, 0
1, 357539, Note_off_c, 1, 81, 0
1, 357539, Note_off_c, 1, 73, 0
1, 357539, Note_off_c, 1, 61, 0
1, 357539, Note_off_c, 1, 78, 0
1, 357539, Note_off_c, 1, 74, 0
1, 357540, Note_on_c, 1, 74, 127
1, 357540, Note_on_c, 1, 66, 127
1, 357540, Note_on_c, 1, 50, 127
1, 357540, Note_on_c, 1, 62, 127
1, 357540, Note_on_c, 1, 54, 127
1, 357540, Note_on_c, 1, 71, 127
1, 357540, Note_on_c, 1, 59, 127
1, 357540, Note_on_c, 1, 47, 127
1, 357599, Note_off_c, 1, 50, 0
1, 357599, Note_off_c, 1, 62, 0
1, 357599, Note_off_c, 1, 54, 0
1, 357600, Note_off_c, 1, 74, 0
1, 357600, Note_on_c, 1, 76, 127
1, 357600, Note_on_c, 1, 69, 127
1, 357600, Note_on_c, 1, 57, 127
1, 357600, Note_on_c, 1, 64, 127
1, 357600, Note_on_c, 1, 73, 127
1, 357600, Note_on_c, 1, 67, 127
1, 357659, Note_off_c, 1, 66, 0
1, 357659, Note_off_c, 1, 71, 0
1, 357659, Note_off_c, 1, 59, 0
1, 357659, Note_off_c, 1, 47, 0
1, 357659, Note_off_c, 1, 69, 0
1, 357659, Note_off_c, 1, 57, 0
1, 357659, Note_off_c, 1, 64, 0
1, 357659, Note_off_c, 1, 67, 0
1, 357660, Note_off_c, 1, 76, 0
1, 357660, Note_off_c, 1, 73, 0
1, 357660, Note_on_c, 1, 78, 127
1, 357660, Note_on_c, 1, 45, 127
1, 357719, Note_off_c, 1, 45, 0
1, 357720, Note_off_c, 1, 78, 0
1, 357720, Note_on_c, 1, 79, 127
1, 357720, Note_on_c, 1, 55, 127
1, 357720, Note_on_c, 1, 43, 127
1, 357779, Note_off_c, 1, 55, 0
1, 357779, Note_off_c, 1, 43, 0
1, 357780, Note_off_c, 1, 79, 0
1, 357780, Note_on_c, 1, 81, 127
1, 357780, Note_on_c, 1, 42, 127
1, 357899, Note_off_c, 1, 81, 0
1, 357899, Note_off_c, 1, 42, 0
1, 357900, Note_on_c, 1, 83, 127
1, 357959, Note_off_c, 1, 83, 0
1, 358140, Note_on_c, 1, 61, 127
1, 358259, Note_off_c, 1, 61, 0
1, 358260, Note_on_c, 1, 38, 127
1, 358499, Note_off_c, 1, 38, 0
1, 358500, Note_on_c, 1, 81, 127
1, 358500, Note_on_c, 1, 74, 127
1, 358500, Note_on_c, 1, 69, 127
1, 358500, Note_on_c, 1, 66, 127
1, 358500, Note_on_c, 1, 62, 127
1, 358500, Note_on_c, 1, 50, 127
1, 358559, Note_off_c, 1, 74, 0
1, 358560, Note_on_c, 1, 76, 127
1, 358619, Note_off_c, 1, 81, 0
1, 358619, Note_off_c, 1, 50, 0
1, 358619, Note_off_c, 1, 76, 0
1, 358620, Note_on_c, 1, 83, 127
1, 358620, Note_on_c, 1, 61, 127
1, 358620, Note_on_c, 1, 49, 127
1, 358679, Note_off_c, 1, 83, 0
1, 358680, Note_on_c, 1, 85, 127
1, 358739, Note_off_c, 1, 69, 0
1, 358739, Note_off_c, 1, 66, 0
1, 358739, Note_off_c, 1, 62, 0
1, 358739, Note_off_c, 1, 61, 0
1, 358739, Note_off_c, 1, 49, 0
1, 358739, Note_off_c, 1, 85, 0
1, 358740, Note_on_c, 1, 86, 127
1, 358740, Note_on_c, 1, 78, 127
1, 358740, Note_on_c, 1, 71, 127
1, 358740, Note_on_c, 1, 62, 127
1, 358740, Note_on_c, 1, 59, 127
1, 358740, Note_on_c, 1, 47, 127
1, 358859, Note_off_c, 1, 59, 0
1, 358859, Note_off_c, 1, 47, 0
1, 358860, Note_on_c, 1, 57, 127
1, 358860, Note_on_c, 1, 45, 127
1, 358979, Note_off_c, 1, 86, 0
1, 358979, Note_off_c, 1, 78, 0
1, 358979, Note_off_c, 1, 71, 0
1, 358979, Note_off_c, 1, 62, 0
1, 358979, Note_off_c, 1, 57, 0
1, 358979, Note_off_c, 1, 45, 0
1, 358980, Note_on_c, 1, 76, 127
1, 358980, Note_on_c, 1, 71, 127
1, 358980, Note_on_c, 1, 64, 127
1, 358980, Note_on_c, 1, 56, 127
1, 359099, Note_off_c, 1, 76, 0
1, 359099, Note_off_c, 1, 71, 0
1, 359099, Note_off_c, 1, 64, 0
1, 359099, Note_off_c, 1, 56, 0
1, 359100, Note_on_c, 1, 74, 127
1, 359100, Note_on_c, 1, 68, 127
1, 359100, Note_on_c, 1, 64, 127
1, 359100, Note_on_c, 1, 52, 127
1, 359159, Note_off_c, 1, 74, 0
1, 359160, Note_on_c, 1, 73, 127
1, 359219, Note_off_c, 1, 68, 0
1, 359219, Note_off_c, 1, 64, 0
1, 359219, Note_off_c, 1, 52, 0
1, 359219, Note_off_c, 1, 73, 0
1, 359220, Note_on_c, 1, 74, 127
1, 359220, Note_on_c, 1, 69, 127
1, 359220, Note_on_c, 1, 57, 127
1, 359220, Note_on_c, 1, 54, 127
1, 359339, Note_off_c, 1, 74, 0
1, 359339, Note_off_c, 1, 69, 0
1, 359339, Note_off_c, 1, 57, 0
1, 359339, Note_off_c, 1, 54, 0
1, 359340, Note_on_c, 1, 73, 127
1, 359340, Note_on_c, 1, 64, 127
1, 359340, Note_on_c, 1, 56, 127
1, 359399, Note_off_c, 1, 73, 0
1, 359400, Note_on_c, 1, 71, 127
1, 359459, Note_off_c, 1, 64, 0
1, 359459, Note_off_c, 1, 56, 0
1, 359459, Note_off_c, 1, 71, 0
1, 359460, Note_on_c, 1, 81, 127
1, 359460, Note_on_c, 1, 76, 127
1, 359460, Note_on_c, 1, 69, 127
1, 359460, Note_on_c, 1, 73, 127
1, 359460, Note_on_c, 1, 88, 127
1, 359460, Note_on_c, 1, 64, 127
1, 359460, Note_on_c, 1, 57, 127
1, 359520, Note_on_c, 1, 83, 127
1, 359579, Note_off_c, 1, 64, 0
1, 359579, Note_off_c, 1, 83, 0
1, 359580, Note_on_c, 1, 78, 127
1, 359580, Note_on_c, 1, 71, 127
1, 359580, Note_on_c, 1, 61, 127
1, 359639, Note_off_c, 1, 78, 0
1, 359639, Note_off_c, 1, 71, 0
1, 359640, Note_on_c, 1, 80, 127
1, 359699, Note_off_c, 1, 81, 0
1, 359699, Note_off_c, 1, 76, 0
1, 359699, Note_off_c, 1, 69, 0
1, 359699, Note_off_c, 1, 73, 0
1, 359699, Note_off_c, 1, 88, 0
1, 359699, Note_off_c, 1, 57, 0
1, 359699, Note_off_c, 1, 61, 0
1, 359699, Note_off_c, 1, 80, 0
1, 359700, Note_on_c, 1, 85, 127
1, 359700, Note_on_c, 1, 81, 127
1, 359700, Note_on_c, 1, 69, 127
1, 359700, Note_on_c, 1, 64, 127
1, 359700, Note_on_c, 1, 76, 127
1, 359700, Note_on_c, 1, 73, 127
1, 359700, Note_on_c, 1, 45, 127
1, 359939, Note_off_c, 1, 85, 0
1, 359939, Note_off_c, 1, 81, 0
1, 359939, Note_off_c, 1, 69, 0
1, 359939, Note_off_c, 1, 64, 0
1, 359939, Note_off_c, 1, 76, 0
1, 359939, Note_off_c, 1, 73, 0
1, 359939, Note_off_c, 1, 45, 0
1, 359940, Note_on_c, 1, 73, 127
1, 359940, Note_on_c, 1, 69, 127
1, 359940, Note_on_c, 1, 64, 127
1, 359940, Note_on_c, 1, 59, 127
1, 359940, Note_on_c, 1, 47, 127
1, 360059, Note_off_c, 1, 73, 0
1, 360059, Note_off_c, 1, 69, 0
1, 360059, Note_off_c, 1, 64, 0
1, 360060, Note_on_c, 1, 71, 127
1, 360060, Note_on_c, 1, 68, 127
1, 360060, Note_on_c, 1, 62, 127
1, 360119, Note_off_c, 1, 71, 0
1, 360119, Note_off_c, 1, 68, 0
1, 360119, Note_off_c, 1, 62, 0
1, 360120, Note_on_c, 1, 66, 127
1, 360120, Note_on_c, 1, 61, 127
1, 360179, Note_off_c, 1, 59, 0
1, 360179, Note_off_c, 1, 47, 0
1, 360179, Note_off_c, 1, 66, 0
1, 360179, Note_off_c, 1, 61, 0
1, 360180, Note_on_c, 1, 74, 127
1, 360180, Note_on_c, 1, 71, 127
1, 360180, Note_on_c, 1, 59, 127
1, 360180, Note_on_c, 1, 56, 127
1, 360180, Note_on_c, 1, 44, 127
1, 360299, Note_off_c, 1, 74, 0
1, 360299, Note_off_c, 1, 71, 0
1, 360299, Note_off_c, 1, 59, 0
1, 360300, Note_on_c, 1, 57, 127
1, 360419, Note_off_c, 1, 56, 0
1, 360419, Note_off_c, 1, 44, 0
1, 360419, Note_off_c, 1, 57, 0
1, 360420, Note_on_c, 1, 74, 127
1, 360420, Note_on_c, 1, 71, 127
1, 360420, Note_on_c, 1, 56, 127
1, 360420, Note_on_c, 1, 53, 127
1, 360420, Note_on_c, 1, 41, 127
1, 360539, Note_off_c, 1, 74, 0
1, 360539, Note_off_c, 1, 71, 0
1, 360539, Note_off_c, 1, 56, 0
1, 360539, Note_off_c, 1, 53, 0
1, 360539, Note_off_c, 1, 41, 0
1, 360540, Note_on_c, 1, 73, 127
1, 360540, Note_on_c, 1, 69, 127
1, 360540, Note_on_c, 1, 57, 127
1, 360540, Note_on_c, 1, 54, 127
1, 360540, Note_on_c, 1, 37, 127
1, 360599, Note_off_c, 1, 57, 0
1, 360599, Note_off_c, 1, 54, 0
1, 360600, Note_on_c, 1, 56, 127
1, 360600, Note_on_c, 1, 53, 127
1, 360659, Note_off_c, 1, 73, 0
1, 360659, Note_off_c, 1, 69, 0
1, 360659, Note_off_c, 1, 37, 0
1, 360659, Note_off_c, 1, 56, 0
1, 360659, Note_off_c, 1, 53, 0
1, 360660, Note_on_c, 1, 73, 127
1, 360660, Note_on_c, 1, 68, 127
1, 360660, Note_on_c, 1, 65, 127
1, 360660, Note_on_c, 1, 59, 127
1, 360660, Note_on_c, 1, 56, 127
1, 360660, Note_on_c, 1, 49, 127
1, 360779, Note_off_c, 1, 59, 0
1, 360779, Note_off_c, 1, 56, 0
1, 360779, Note_off_c, 1, 49, 0
1, 360780, Note_on_c, 1, 66, 127
1, 360780, Note_on_c, 1, 57, 127
1, 360780, Note_on_c, 1, 54, 127
1, 360839, Note_off_c, 1, 66, 0
1, 360839, Note_off_c, 1, 57, 0
1, 360839, Note_off_c, 1, 54, 0
1, 360840, Note_on_c, 1, 53, 127
1, 360899, Note_off_c, 1, 68, 0
1, 360899, Note_off_c, 1, 65, 0
1, 360899, Note_off_c, 1, 53, 0
1, 360900, Note_on_c, 1, 90, 127
1, 360900, Note_on_c, 1, 81, 127
1, 360900, Note_on_c, 1, 85, 127
1, 360900, Note_on_c, 1, 69, 127
1, 361139, Note_off_c, 1, 73, 0
1, 361139, Note_off_c, 1, 90, 0
1, 361139, Note_off_c, 1, 81, 0
1, 361139, Note_off_c, 1, 85, 0
1, 361139, Note_off_c, 1, 69, 0
1, 361140, Note_on_c, 1, 85, 127
1, 361140, Note_on_c, 1, 80, 127
1, 361140, Note_on_c, 1, 73, 127
1, 361140, Note_on_c, 1, 71, 127
1, 361140, Note_on_c, 1, 65, 127
1, 361140, Note_on_c, 1, 68, 127
1, 361140, Note_on_c, 1, 59, 127
1, 361140, Note_on_c, 1, 53, 127
1, 361140, Note_on_c, 1, 49, 127
1, 361259, Note_off_c, 1, 59, 0
1, 361259, Note_off_c, 1, 53, 0
1, 361259, Note_off_c, 1, 49, 0
1, 361260, Note_on_c, 1, 66, 127
1, 361260, Note_on_c, 1, 57, 127
1, 361319, Note_off_c, 1, 66, 0
1, 361319, Note_off_c, 1, 57, 0
1, 361320, Note_on_c, 1, 56, 127
1, 361379, Note_off_c, 1, 85, 0
1, 361379, Note_off_c, 1, 80, 0
1, 361379, Note_off_c, 1, 73, 0
1, 361379, Note_off_c, 1, 71, 0
1, 361379, Note_off_c, 1, 65, 0
1, 361379, Note_off_c, 1, 68, 0
1, 361379, Note_off_c, 1, 56, 0
1, 361380, Note_on_c, 1, 69, 127
1, 361380, Note_on_c, 1, 66, 127
1, 361380, Note_on_c, 1, 61, 127
1, 361380, Note_on_c, 1, 57, 127
1, 361380, Note_on_c, 1, 54, 127
1, 361380, Note_on_c, 1, 49, 127
1, 361499, Note_off_c, 1, 57, 0
1, 361499, Note_off_c, 1, 54, 0
1, 361499, Note_off_c, 1, 49, 0
1, 361560, Note_on_c, 1, 68, 127
1, 361560, Note_on_c, 1, 65, 127
1, 361560, Note_on_c, 1, 59, 127
1, 361619, Note_off_c, 1, 69, 0
1, 361619, Note_off_c, 1, 66, 0
1, 361619, Note_off_c, 1, 61, 0
1, 361619, Note_off_c, 1, 68, 0
1, 361619, Note_off_c, 1, 65, 0
1, 361619, Note_off_c, 1, 59, 0
1, 361620, Note_on_c, 1, 68, 127
1, 361620, Note_on_c, 1, 65, 127
1, 361620, Note_on_c, 1, 59, 127
1, 361620, Note_on_c, 1, 71, 127
1, 361620, Note_on_c, 1, 61, 127
1, 361620, Note_on_c, 1, 53, 127
1, 361620, Note_on_c, 1, 49, 127
1, 361739, Note_off_c, 1, 71, 0
1, 361739, Note_off_c, 1, 53, 0
1, 361739, Note_off_c, 1, 49, 0
1, 361740, Note_on_c, 1, 69, 127
1, 361740, Note_on_c, 1, 66, 127
1, 361799, Note_off_c, 1, 69, 0
1, 361799, Note_off_c, 1, 66, 0
1, 361859, Note_off_c, 1, 68, 0
1, 361859, Note_off_c, 1, 65, 0
1, 361859, Note_off_c, 1, 59, 0
1, 361859, Note_off_c, 1, 61, 0
1, 361860, Note_on_c, 1, 66, 127
1, 361860, Note_on_c, 1, 61, 127
1, 361860, Note_on_c, 1, 57, 127
1, 361860, Note_on_c, 1, 69, 127
1, 361860, Note_on_c, 1, 54, 127
1, 361860, Note_on_c, 1, 49, 127
1, 361979, Note_off_c, 1, 69, 0
1, 361979, Note_off_c, 1, 54, 0
1, 361979, Note_off_c, 1, 49, 0
1, 361980, Note_on_c, 1, 65, 127
1, 362040, Note_on_c, 1, 68, 127
1, 362099, Note_off_c, 1, 66, 0
1, 362099, Note_off_c, 1, 61, 0
1, 362099, Note_off_c, 1, 57, 0
1, 362099, Note_off_c, 1, 65, 0
1, 362099, Note_off_c, 1, 68, 0
1, 362100, Note_on_c, 1, 65, 127
1, 362100, Note_on_c, 1, 61, 127
1, 362100, Note_on_c, 1, 56, 127
1, 362100, Note_on_c, 1, 71, 127
1, 362100, Note_on_c, 1, 68, 127
1, 362100, Note_on_c, 1, 53, 127
1, 362219, Note_off_c, 1, 71, 0
1, 362219, Note_off_c, 1, 68, 0
1, 362219, Note_off_c, 1, 53, 0
1, 362220, Note_on_c, 1, 69, 127
1, 362220, Note_on_c, 1, 49, 127
1, 362279, Note_off_c, 1, 69, 0
1, 362339, Note_off_c, 1, 65, 0
1, 362339, Note_off_c, 1, 61, 0
1, 362339, Note_off_c, 1, 56, 0
1, 362339, Note_off_c, 1, 49, 0
1, 362340, Note_on_c, 1, 85, 127
1, 362340, Note_on_c, 1, 81, 127
1, 362340, Note_on_c, 1, 78, 127
1, 362340, Note_on_c, 1, 66, 127
1, 362340, Note_on_c, 1, 61, 127
1, 362340, Note_on_c, 1, 57, 127
1, 362340, Note_on_c, 1, 69, 127
1, 362340, Note_on_c, 1, 73, 127
1, 362340, Note_on_c, 1, 54, 127
1, 362459, Note_off_c, 1, 66, 0
1, 362459, Note_off_c, 1, 69, 0
1, 362459, Note_off_c, 1, 73, 0
1, 362459, Note_off_c, 1, 54, 0
1, 362460, Note_on_c, 1, 68, 127
1, 362460, Note_on_c, 1, 42, 127
1, 362519, Note_off_c, 1, 68, 0
1, 362579, Note_off_c, 1, 85, 0
1, 362579, Note_off_c, 1, 81, 0
1, 362579, Note_off_c, 1, 78, 0
1, 362579, Note_off_c, 1, 61, 0
1, 362579, Note_off_c, 1, 57, 0
1, 362579, Note_off_c, 1, 42, 0
1, 362580, Note_on_c, 1, 81, 127
1, 362580, Note_on_c, 1, 73, 127
1, 362580, Note_on_c, 1, 78, 127
1, 362580, Note_on_c, 1, 45, 127
1, 362699, Note_off_c, 1, 45, 0
1, 362700, Note_on_c, 1, 76, 127
1, 362700, Note_on_c, 1, 69, 127
1, 362700, Note_on_c, 1, 66, 127
1, 362700, Note_on_c, 1, 54, 127
1, 362700, Note_on_c, 1, 42, 127
1, 362819, Note_off_c, 1, 73, 0
1, 362819, Note_off_c, 1, 76, 0
1, 362819, Note_off_c, 1, 69, 0
1, 362819, Note_off_c, 1, 66, 0
1, 362819, Note_off_c, 1, 54, 0
1, 362819, Note_off_c, 1, 42, 0
1, 362820, Note_on_c, 1, 71, 127
1, 362820, Note_on_c, 1, 74, 127
1, 362820, Note_on_c, 1, 59, 127
1, 362820, Note_on_c, 1, 47, 127
1, 362880, Note_off_c, 1, 78, 0
1, 362939, Note_off_c, 1, 81, 0
1, 362939, Note_off_c, 1, 74, 0
1, 362939, Note_off_c, 1, 59, 0
1, 362939, Note_off_c, 1, 47, 0
1, 362940, Note_off_c, 1, 71, 0
1, 362940, Note_on_c, 1, 83, 127
1, 362940, Note_on_c, 1, 61, 127
1, 362940, Note_on_c, 1, 49, 127
1, 362999, Note_off_c, 1, 83, 0
1, 363059, Note_off_c, 1, 61, 0
1, 363059, Note_off_c, 1, 49, 0
1, 363060, Note_on_c, 1, 80, 127
1, 363060, Note_on_c, 1, 68, 127
1, 363060, Note_on_c, 1, 62, 127
1, 363060, Note_on_c, 1, 50, 127
1, 363120, Note_on_c, 1, 65, 127
1, 363179, Note_off_c, 1, 80, 0
1, 363179, Note_off_c, 1, 68, 0
1, 363179, Note_off_c, 1, 62, 0
1, 363179, Note_off_c, 1, 50, 0
1, 363179, Note_off_c, 1, 65, 0
1, 363540, Note_on_c, 1, 77, 127
1, 363540, Note_on_c, 1, 37, 127
1, 363779, Note_off_c, 1, 77, 0
1, 363779, Note_off_c, 1, 37, 0
1, 363780, Note_on_c, 1, 57, 127
1, 363960, Note_on_c, 1, 55, 127
1, 364019, Note_off_c, 1, 57, 0
1, 364019, Note_off_c, 1, 55, 0
1, 364080, Note_on_c, 1, 55, 127
1, 364139, Note_off_c, 1, 55, 0
1, 364140, Note_on_c, 1, 52, 127
1, 364199, Note_off_c, 1, 52, 0
1, 364200, Note_on_c, 1, 54, 127
1, 364259, Note_off_c, 1, 54, 0
1, 364260, Note_on_c, 1, 86, 127
1, 364260, Note_on_c, 1, 81, 127
1, 364260, Note_on_c, 1, 78, 127
1, 364260, Note_on_c, 1, 50, 127
1, 364260, Note_on_c, 1, 66, 127
1, 364260, Note_on_c, 1, 62, 127
1, 364260, Note_on_c, 1, 74, 127
1, 364260, Note_on_c, 1, 69, 127
1, 364319, Note_off_c, 1, 62, 0
1, 364320, Note_on_c, 1, 67, 127
1, 364320, Note_on_c, 1, 64, 127
1, 364379, Note_off_c, 1, 67, 0
1, 364379, Note_off_c, 1, 64, 0
1, 364499, Note_off_c, 1, 86, 0
1, 364499, Note_off_c, 1, 81, 0
1, 364499, Note_off_c, 1, 78, 0
1, 364499, Note_off_c, 1, 50, 0
1, 364499, Note_off_c, 1, 66, 0
1, 364499, Note_off_c, 1, 74, 0
1, 364499, Note_off_c, 1, 69, 0
1, 364500, Note_on_c, 1, 81, 127
1, 364500, Note_on_c, 1, 78, 127
1, 364500, Note_on_c, 1, 74, 127
1, 364500, Note_on_c, 1, 50, 127
1, 364500, Note_on_c, 1, 69, 127
1, 364500, Note_on_c, 1, 66, 127
1, 364500, Note_on_c, 1, 62, 127
1, 364500, Note_on_c, 1, 38, 127
1, 364739, Note_off_c, 1, 81, 0
1, 364739, Note_off_c, 1, 78, 0
1, 364739, Note_off_c, 1, 74, 0
1, 364739, Note_off_c, 1, 50, 0
1, 364739, Note_off_c, 1, 69, 0
1, 364739, Note_off_c, 1, 66, 0
1, 364739, Note_off_c, 1, 62, 0
1, 364739, Note_off_c, 1, 38, 0
1, 364740, Note_on_c, 1, 57, 127
1, 364740, Note_on_c, 1, 78, 127
1, 364740, Note_on_c, 1, 74, 127
1, 364740, Note_on_c, 1, 66, 127
1, 364740, Note_on_c, 1, 62, 127
1, 364859, Note_off_c, 1, 57, 0
1, 364859, Note_off_c, 1, 78, 0
1, 364859, Note_off_c, 1, 74, 0
1, 364859, Note_off_c, 1, 66, 0
1, 364859, Note_off_c, 1, 62, 0
1, 364860, Note_on_c, 1, 57, 127
1, 364860, Note_on_c, 1, 78, 127
1, 364860, Note_on_c, 1, 74, 127
1, 364860, Note_on_c, 1, 66, 127
1, 364860, Note_on_c, 1, 62, 127
1, 364919, Note_off_c, 1, 78, 0
1, 364919, Note_off_c, 1, 74, 0
1, 364919, Note_off_c, 1, 66, 0
1, 364919, Note_off_c, 1, 62, 0
1, 364920, Note_on_c, 1, 76, 127
1, 364920, Note_on_c, 1, 73, 127
1, 364920, Note_on_c, 1, 64, 127
1, 364920, Note_on_c, 1, 61, 127
1, 364979, Note_off_c, 1, 57, 0
1, 364979, Note_off_c, 1, 76, 0
1, 364979, Note_off_c, 1, 73, 0
1, 364979, Note_off_c, 1, 64, 0
1, 364979, Note_off_c, 1, 61, 0
1, 364980, Note_on_c, 1, 57, 127
1, 364980, Note_on_c, 1, 79, 127
1, 364980, Note_on_c, 1, 76, 127
1, 364980, Note_on_c, 1, 67, 127
1, 364980, Note_on_c, 1, 64, 127
1, 364980, Note_on_c, 1, 61, 127
1, 365099, Note_off_c, 1, 57, 0
1, 365099, Note_off_c, 1, 79, 0
1, 365099, Note_off_c, 1, 76, 0
1, 365099, Note_off_c, 1, 67, 0
1, 365099, Note_off_c, 1, 64, 0
1, 365099, Note_off_c, 1, 61, 0
1, 365100, Note_on_c, 1, 57, 127
1, 365100, Note_on_c, 1, 78, 127
1, 365100, Note_on_c, 1, 74, 127
1, 365100, Note_on_c, 1, 66, 127
1, 365100, Note_on_c, 1, 62, 127
1, 365159, Note_off_c, 1, 78, 0
1, 365159, Note_off_c, 1, 74, 0
1, 365159, Note_off_c, 1, 66, 0
1, 365159, Note_off_c, 1, 62, 0
1, 365160, Note_on_c, 1, 76, 127
1, 365160, Note_on_c, 1, 73, 127
1, 365160, Note_on_c, 1, 64, 127
1, 365160, Note_on_c, 1, 61, 127
1, 365219, Note_off_c, 1, 57, 0
1, 365219, Note_off_c, 1, 76, 0
1, 365219, Note_off_c, 1, 73, 0
1, 365219, Note_off_c, 1, 64, 0
1, 365219, Note_off_c, 1, 61, 0
1, 365220, Note_on_c, 1, 57, 127
1, 365220, Note_on_c, 1, 78, 127
1, 365220, Note_on_c, 1, 74, 127
1, 365220, Note_on_c, 1, 66, 127
1, 365220, Note_on_c, 1, 62, 127
1, 365339, Note_off_c, 1, 57, 0
1, 365339, Note_off_c, 1, 78, 0
1, 365339, Note_off_c, 1, 74, 0
1, 365339, Note_off_c, 1, 66, 0
1, 365339, Note_off_c, 1, 62, 0
1, 365340, Note_on_c, 1, 57, 127
1, 365340, Note_on_c, 1, 78, 127
1, 365340, Note_on_c, 1, 74, 127
1, 365340, Note_on_c, 1, 66, 127
1, 365340, Note_on_c, 1, 62, 127
1, 365399, Note_off_c, 1, 78, 0
1, 365399, Note_off_c, 1, 74, 0
1, 365399, Note_off_c, 1, 66, 0
1, 365399, Note_off_c, 1, 62, 0
1, 365400, Note_on_c, 1, 76, 127
1, 365400, Note_on_c, 1, 73, 127
1, 365400, Note_on_c, 1, 64, 127
1, 365400, Note_on_c, 1, 61, 127
1, 365459, Note_off_c, 1, 57, 0
1, 365459, Note_off_c, 1, 76, 0
1, 365459, Note_off_c, 1, 73, 0
1, 365459, Note_off_c, 1, 64, 0
1, 365459, Note_off_c, 1, 61, 0
1, 365460, Note_on_c, 1, 57, 127
1, 365460, Note_on_c, 1, 79, 127
1, 365460, Note_on_c, 1, 76, 127
1, 365460, Note_on_c, 1, 67, 127
1, 365460, Note_on_c, 1, 64, 127
1, 365460, Note_on_c, 1, 61, 127
1, 365579, Note_off_c, 1, 57, 0
1, 365579, Note_off_c, 1, 79, 0
1, 365579, Note_off_c, 1, 76, 0
1, 365579, Note_off_c, 1, 67, 0
1, 365579, Note_off_c, 1, 64, 0
1, 365579, Note_off_c, 1, 61, 0
1, 365580, Note_on_c, 1, 57, 127
1, 365580, Note_on_c, 1, 78, 127
1, 365580, Note_on_c, 1, 74, 127
1, 365580, Note_on_c, 1, 66, 127
1, 365580, Note_on_c, 1, 62, 127
1, 365639, Note_off_c, 1, 78, 0
1, 365639, Note_off_c, 1, 74, 0
1, 365639, Note_off_c, 1, 66, 0
1, 365639, Note_off_c, 1, 62, 0
1, 365640, Note_on_c, 1, 76, 127
1, 365640, Note_on_c, 1, 73, 127
1, 365640, Note_on_c, 1, 64, 127
1, 365640, Note_on_c, 1, 61, 127
1, 365699, Note_off_c, 1, 57, 0
1, 365699, Note_off_c, 1, 76, 0
1, 365699, Note_off_c, 1, 73, 0
1, 365699, Note_off_c, 1, 64, 0
1, 365699, Note_off_c, 1, 61, 0
1, 365700, Note_on_c, 1, 86, 127
1, 365700, Note_on_c, 1, 81, 127
1, 365700, Note_on_c, 1, 78, 127
1, 365700, Note_on_c, 1, 50, 127
1, 365700, Note_on_c, 1, 66, 127
1, 365700, Note_on_c, 1, 62, 127
1, 365700, Note_on_c, 1, 74, 127
1, 365700, Note_on_c, 1, 69, 127
1, 365759, Note_off_c, 1, 62, 0
1, 365760, Note_on_c, 1, 67, 127
1, 365760, Note_on_c, 1, 64, 127
1, 365819, Note_off_c, 1, 67, 0
1, 365819, Note_off_c, 1, 64, 0
1, 365939, Note_off_c, 1, 86, 0
1, 365939, Note_off_c, 1, 81, 0
1, 365939, Note_off_c, 1, 78, 0
1, 365939, Note_off_c, 1, 50, 0
1, 365939, Note_off_c, 1, 66, 0
1, 365939, Note_off_c, 1, 74, 0
1, 365939, Note_off_c, 1, 69, 0
1, 365940, Note_on_c, 1, 81, 127
1, 365940, Note_on_c, 1, 78, 127
1, 365940, Note_on_c, 1, 74, 127
1, 365940, Note_on_c, 1, 50, 127
1, 365940, Note_on_c, 1, 69, 127
1, 365940, Note_on_c, 1, 66, 127
1, 365940, Note_on_c, 1, 62, 127
1, 365940, Note_on_c, 1, 38, 127
1, 366179, Note_off_c, 1, 81, 0
1, 366179, Note_off_c, 1, 78, 0
1, 366179, Note_off_c, 1, 74, 0
1, 366179, Note_off_c, 1, 50, 0
1, 366179, Note_off_c, 1, 69, 0
1, 366179, Note_off_c, 1, 66, 0
1, 366179, Note_off_c, 1, 62, 0
1, 366179, Note_off_c, 1, 38, 0
1, 366180, Note_on_c, 1, 50, 127
1, 366180, Note_on_c, 1, 81, 127
1, 366180, Note_on_c, 1, 78, 127
1, 366180, Note_on_c, 1, 69, 127
1, 366180, Note_on_c, 1, 66, 127
1, 366180, Note_on_c, 1, 62, 127
1, 366299, Note_off_c, 1, 50, 0
1, 366299, Note_off_c, 1, 81, 0
1, 366299, Note_off_c, 1, 78, 0
1, 366299, Note_off_c, 1, 69, 0
1, 366299, Note_off_c, 1, 66, 0
1, 366299, Note_off_c, 1, 62, 0
1, 366300, Note_on_c, 1, 50, 127
1, 366300, Note_on_c, 1, 81, 127
1, 366300, Note_on_c, 1, 78, 127
1, 366300, Note_on_c, 1, 69, 127
1, 366300, Note_on_c, 1, 66, 127
1, 366300, Note_on_c, 1, 62, 127
1, 366359, Note_off_c, 1, 81, 0
1, 366359, Note_off_c, 1, 78, 0
1, 366359, Note_off_c, 1, 69, 0
1, 366359, Note_off_c, 1, 66, 0
1, 366360, Note_on_c, 1, 79, 127
1, 366360, Note_on_c, 1, 76, 127
1, 366360, Note_on_c, 1, 67, 127
1, 366360, Note_on_c, 1, 64, 127
1, 366419, Note_off_c, 1, 50, 0
1, 366419, Note_off_c, 1, 62, 0
1, 366419, Note_off_c, 1, 79, 0
1, 366419, Note_off_c, 1, 76, 0
1, 366419, Note_off_c, 1, 67, 0
1, 366419, Note_off_c, 1, 64, 0
1, 366420, Note_on_c, 1, 50, 127
1, 366420, Note_on_c, 1, 83, 127
1, 366420, Note_on_c, 1, 79, 127
1, 366420, Note_on_c, 1, 71, 127
1, 366420, Note_on_c, 1, 67, 127
1, 366420, Note_on_c, 1, 61, 127
1, 366539, Note_off_c, 1, 50, 0
1, 366539, Note_off_c, 1, 83, 0
1, 366539, Note_off_c, 1, 79, 0
1, 366539, Note_off_c, 1, 71, 0
1, 366539, Note_off_c, 1, 67, 0
1, 366539, Note_off_c, 1, 61, 0
1, 366540, Note_on_c, 1, 50, 127
1, 366540, Note_on_c, 1, 81, 127
1, 366540, Note_on_c, 1, 78, 127
1, 366540, Note_on_c, 1, 69, 127
1, 366540, Note_on_c, 1, 66, 127
1, 366540, Note_on_c, 1, 62, 127
1, 366599, Note_off_c, 1, 81, 0
1, 366599, Note_off_c, 1, 78, 0
1, 366599, Note_off_c, 1, 69, 0
1, 366599, Note_off_c, 1, 66, 0
1, 366599, Note_off_c, 1, 62, 0
1, 366600, Note_on_c, 1, 79, 127
1, 366600, Note_on_c, 1, 76, 127
1, 366600, Note_on_c, 1, 67, 127
1, 366600, Note_on_c, 1, 64, 127
1, 366659, Note_off_c, 1, 50, 0
1, 366659, Note_off_c, 1, 79, 0
1, 366659, Note_off_c, 1, 76, 0
1, 366659, Note_off_c, 1, 67, 0
1, 366659, Note_off_c, 1, 64, 0
1, 366660, Note_on_c, 1, 50, 127
1, 366660, Note_on_c, 1, 81, 127
1, 366660, Note_on_c, 1, 78, 127
1, 366660, Note_on_c, 1, 69, 127
1, 366660, Note_on_c, 1, 66, 127
1, 366660, Note_on_c, 1, 62, 127
1, 366779, Note_off_c, 1, 50, 0
1, 366779, Note_off_c, 1, 81, 0
1, 366779, Note_off_c, 1, 78, 0
1, 366779, Note_off_c, 1, 69, 0
1, 366779, Note_off_c, 1, 66, 0
1, 366779, Note_off_c, 1, 62, 0
1, 366780, Note_on_c, 1, 50, 127
1, 366780, Note_on_c, 1, 81, 127
1, 366780, Note_on_c, 1, 78, 127
1, 366780, Note_on_c, 1, 69, 127
1, 366780, Note_on_c, 1, 66, 127
1, 366780, Note_on_c, 1, 62, 127
1, 366839, Note_off_c, 1, 81, 0
1, 366839, Note_off_c, 1, 78, 0
1, 366839, Note_off_c, 1, 69, 0
1, 366839, Note_off_c, 1, 66, 0
1, 366840, Note_on_c, 1, 79, 127
1, 366840, Note_on_c, 1, 76, 127
1, 366840, Note_on_c, 1, 67, 127
1, 366840, Note_on_c, 1, 64, 127
1, 366899, Note_off_c, 1, 50, 0
1, 366899, Note_off_c, 1, 62, 0
1, 366899, Note_off_c, 1, 79, 0
1, 366899, Note_off_c, 1, 76, 0
1, 366899, Note_off_c, 1, 67, 0
1, 366899, Note_off_c, 1, 64, 0
1, 366900, Note_on_c, 1, 50, 127
1, 366900, Note_on_c, 1, 83, 127
1, 366900, Note_on_c, 1, 79, 127
1, 366900, Note_on_c, 1, 71, 127
1, 366900, Note_on_c, 1, 67, 127
1, 366900, Note_on_c, 1, 61, 127
1, 367019, Note_off_c, 1, 50, 0
1, 367019, Note_off_c, 1, 83, 0
1, 367019, Note_off_c, 1, 79, 0
1, 367019, Note_off_c, 1, 71, 0
1, 367019, Note_off_c, 1, 67, 0
1, 367019, Note_off_c, 1, 61, 0
1, 367020, Note_on_c, 1, 50, 127
1, 367020, Note_on_c, 1, 81, 127
1, 367020, Note_on_c, 1, 78, 127
1, 367020, Note_on_c, 1, 69, 127
1, 367020, Note_on_c, 1, 66, 127
1, 367020, Note_on_c, 1, 62, 127
1, 367079, Note_off_c, 1, 81, 0
1, 367079, Note_off_c, 1, 78, 0
1, 367079, Note_off_c, 1, 69, 0
1, 367079, Note_off_c, 1, 66, 0
1, 367079, Note_off_c, 1, 62, 0
1, 367080, Note_on_c, 1, 79, 127
1, 367080, Note_on_c, 1, 76, 127
1, 367080, Note_on_c, 1, 67, 127
1, 367080, Note_on_c, 1, 64, 127
1, 367139, Note_off_c, 1, 50, 0
1, 367139, Note_off_c, 1, 79, 0
1, 367139, Note_off_c, 1, 76, 0
1, 367139, Note_off_c, 1, 67, 0
1, 367139, Note_off_c, 1, 64, 0
1, 367140, Note_on_c, 1, 86, 127
1, 367140, Note_on_c, 1, 81, 127
1, 367140, Note_on_c, 1, 78, 127
1, 367140, Note_on_c, 1, 50, 127
1, 367140, Note_on_c, 1, 66, 127
1, 367140, Note_on_c, 1, 62, 127
1, 367140, Note_on_c, 1, 74, 127
1, 367140, Note_on_c, 1, 69, 127
1, 367199, Note_off_c, 1, 62, 0
1, 367200, Note_on_c, 1, 67, 127
1, 367200, Note_on_c, 1, 64, 127
1, 367259, Note_off_c, 1, 67, 0
1, 367259, Note_off_c, 1, 64, 0
1, 367379, Note_off_c, 1, 86, 0
1, 367379, Note_off_c, 1, 81, 0
1, 367379, Note_off_c, 1, 78, 0
1, 367379, Note_off_c, 1, 50, 0
1, 367379, Note_off_c, 1, 66, 0
1, 367379, Note_off_c, 1, 74, 0
1, 367379, Note_off_c, 1, 69, 0
1, 367380, Note_on_c, 1, 81, 127
1, 367380, Note_on_c, 1, 78, 127
1, 367380, Note_on_c, 1, 74, 127
1, 367380, Note_on_c, 1, 50, 127
1, 367380, Note_on_c, 1, 69, 127
1, 367380, Note_on_c, 1, 66, 127
1, 367380, Note_on_c, 1, 62, 127
1, 367380, Note_on_c, 1, 38, 127
1, 367619, Note_off_c, 1, 81, 0
1, 367619, Note_off_c, 1, 78, 0
1, 367619, Note_off_c, 1, 74, 0
1, 367619, Note_off_c, 1, 50, 0
1, 367619, Note_off_c, 1, 69, 0
1, 367619, Note_off_c, 1, 66, 0
1, 367619, Note_off_c, 1, 62, 0
1, 367619, Note_off_c, 1, 38, 0
1, 367620, Note_on_c, 1, 78, 127
1, 367620, Note_on_c, 1, 74, 127
1, 367620, Note_on_c, 1, 69, 127
1, 367620, Note_on_c, 1, 50, 127
1, 367620, Note_on_c, 1, 62, 127
1, 367620, Note_on_c, 1, 66, 127
1, 367620, Note_on_c, 1, 57, 127
1, 367680, Note_on_c, 1, 64, 127
1, 367680, Note_on_c, 1, 67, 127
1, 367739, Note_off_c, 1, 78, 0
1, 367739, Note_off_c, 1, 74, 0
1, 367739, Note_off_c, 1, 69, 0
1, 367739, Note_off_c, 1, 50, 0
1, 367739, Note_off_c, 1, 62, 0
1, 367739, Note_off_c, 1, 66, 0
1, 367739, Note_off_c, 1, 57, 0
1, 367739, Note_off_c, 1, 64, 0
1, 367739, Note_off_c, 1, 67, 0
1, 367740, Note_on_c, 1, 74, 127
1, 367740, Note_on_c, 1, 69, 127
1, 367740, Note_on_c, 1, 66, 127
1, 367740, Note_on_c, 1, 50, 127
1, 367740, Note_on_c, 1, 62, 127
1, 367740, Note_on_c, 1, 57, 127
1, 367740, Note_on_c, 1, 54, 127
1, 367740, Note_on_c, 1, 38, 127
1, 367800, Note_on_c, 1, 67, 127
1, 367800, Note_on_c, 1, 64, 127
1, 367859, Note_off_c, 1, 74, 0
1, 367859, Note_off_c, 1, 69, 0
1, 367859, Note_off_c, 1, 66, 0
1, 367859, Note_off_c, 1, 50, 0
1, 367859, Note_off_c, 1, 62, 0
1, 367859, Note_off_c, 1, 57, 0
1, 367859, Note_off_c, 1, 54, 0
1, 367859, Note_off_c, 1, 38, 0
1, 367859, Note_off_c, 1, 67, 0
1, 367859, Note_off_c, 1, 64, 0
1, 367860, Note_on_c, 1, 81, 127
1, 367860, Note_on_c, 1, 78, 127
1, 367860, Note_on_c, 1, 74, 127
1, 367860, Note_on_c, 1, 50, 127
1, 367860, Note_on_c, 1, 69, 127
1, 367860, Note_on_c, 1, 66, 127
1, 367860, Note_on_c, 1, 62, 127
1, 367860, Note_on_c, 1, 38, 127
1, 367920, Note_on_c, 1, 67, 127
1, 367920, Note_on_c, 1, 64, 127
1, 367979, Note_off_c, 1, 81, 0
1, 367979, Note_off_c, 1, 78, 0
1, 367979, Note_off_c, 1, 74, 0
1, 367979, Note_off_c, 1, 50, 0
1, 367979, Note_off_c, 1, 69, 0
1, 367979, Note_off_c, 1, 66, 0
1, 367979, Note_off_c, 1, 62, 0
1, 367979, Note_off_c, 1, 38, 0
1, 367979, Note_off_c, 1, 67, 0
1, 367979, Note_off_c, 1, 64, 0
1, 367980, Note_on_c, 1, 78, 127
1, 367980, Note_on_c, 1, 74, 127
1, 367980, Note_on_c, 1, 69, 127
1, 367980, Note_on_c, 1, 50, 127
1, 367980, Note_on_c, 1, 66, 127
1, 367980, Note_on_c, 1, 62, 127
1, 367980, Note_on_c, 1, 57, 127
1, 368040, Note_on_c, 1, 67, 127
1, 368040, Note_on_c, 1, 64, 127
1, 368099, Note_off_c, 1, 78, 0
1, 368099, Note_off_c, 1, 74, 0
1, 368099, Note_off_c, 1, 69, 0
1, 368099, Note_off_c, 1, 50, 0
1, 368099, Note_off_c, 1, 66, 0
1, 368099, Note_off_c, 1, 62, 0
1, 368099, Note_off_c, 1, 57, 0
1, 368099, Note_off_c, 1, 67, 0
1, 368099, Note_off_c, 1, 64, 0
1, 368100, Note_on_c, 1, 86, 127
1, 368100, Note_on_c, 1, 81, 127
1, 368100, Note_on_c, 1, 78, 127
1, 368100, Note_on_c, 1, 50, 127
1, 368100, Note_on_c, 1, 66, 127
1, 368100, Note_on_c, 1, 62, 127
1, 368100, Note_on_c, 1, 74, 127
1, 368100, Note_on_c, 1, 69, 127
1, 368159, Note_off_c, 1, 62, 0
1, 368160, Note_on_c, 1, 67, 127
1, 368160, Note_on_c, 1, 64, 127
1, 368219, Note_off_c, 1, 86, 0
1, 368219, Note_off_c, 1, 81, 0
1, 368219, Note_off_c, 1, 78, 0
1, 368219, Note_off_c, 1, 50, 0
1, 368219, Note_off_c, 1, 66, 0
1, 368219, Note_off_c, 1, 74, 0
1, 368219, Note_off_c, 1, 69, 0
1, 368219, Note_off_c, 1, 67, 0
1, 368219, Note_off_c, 1, 64, 0
1, 368220, Note_on_c, 1, 81, 127
1, 368220, Note_on_c, 1, 78, 127
1, 368220, Note_on_c, 1, 74, 127
1, 368220, Note_on_c, 1, 50, 127
1, 368220, Note_on_c, 1, 66, 127
1, 368220, Note_on_c, 1, 62, 127
1, 368220, Note_on_c, 1, 69, 127
1, 368220, Note_on_c, 1, 38, 127
1, 368279, Note_off_c, 1, 50, 0
1, 368280, Note_on_c, 1, 67, 127
1, 368280, Note_on_c, 1, 64, 127
1, 368339, Note_off_c, 1, 81, 0
1, 368339, Note_off_c, 1, 78, 0
1, 368339, Note_off_c, 1, 74, 0
1, 368339, Note_off_c, 1, 66, 0
1, 368339, Note_off_c, 1, 62, 0
1, 368339, Note_off_c, 1, 69, 0
1, 368339, Note_off_c, 1, 38, 0
1, 368339, Note_off_c, 1, 67, 0
1, 368339, Note_off_c, 1, 64, 0
1, 368340, Note_on_c, 1, 78, 127
1, 368340, Note_on_c, 1, 74, 127
1, 368340, Note_on_c, 1, 69, 127
1, 368340, Note_on_c, 1, 50, 127
1, 368340, Note_on_c, 1, 66, 127
1, 368340, Note_on_c, 1, 62, 127
1, 368340, Note_on_c, 1, 57, 127
1, 368340, Note_on_c, 1, 38, 127
1, 368400, Note_on_c, 1, 67, 127
1, 368400, Note_on_c, 1, 64, 127
1, 368459, Note_off_c, 1, 78, 0
1, 368459, Note_off_c, 1, 74, 0
1, 368459, Note_off_c, 1, 69, 0
1, 368459, Note_off_c, 1, 50, 0
1, 368459, Note_off_c, 1, 66, 0
1, 368459, Note_off_c, 1, 62, 0
1, 368459, Note_off_c, 1, 57, 0
1, 368459, Note_off_c, 1, 38, 0
1, 368459, Note_off_c, 1, 67, 0
1, 368459, Note_off_c, 1, 64, 0
1, 368460, Note_on_c, 1, 74, 127
1, 368460, Note_on_c, 1, 69, 127
1, 368460, Note_on_c, 1, 66, 127
1, 368460, Note_on_c, 1, 50, 127
1, 368460, Note_on_c, 1, 62, 127
1, 368460, Note_on_c, 1, 57, 127
1, 368460, Note_on_c, 1, 54, 127
1, 368520, Note_on_c, 1, 67, 127
1, 368520, Note_on_c, 1, 64, 127
1, 368579, Note_off_c, 1, 74, 0
1, 368579, Note_off_c, 1, 69, 0
1, 368579, Note_off_c, 1, 66, 0
1, 368579, Note_off_c, 1, 50, 0
1, 368579, Note_off_c, 1, 62, 0
1, 368579, Note_off_c, 1, 57, 0
1, 368579, Note_off_c, 1, 54, 0
1, 368579, Note_off_c, 1, 67, 0
1, 368579, Note_off_c, 1, 64, 0
1, 368580, Note_on_c, 1, 81, 127
1, 368580, Note_on_c, 1, 78, 127
1, 368580, Note_on_c, 1, 74, 127
1, 368580, Note_on_c, 1, 50, 127
1, 368580, Note_on_c, 1, 66, 127
1, 368580, Note_on_c, 1, 62, 127
1, 368580, Note_on_c, 1, 69, 127
1, 368699, Note_off_c, 1, 81, 0
1, 368699, Note_off_c, 1, 78, 0
1, 368699, Note_off_c, 1, 74, 0
1, 368699, Note_off_c, 1, 50, 0
1, 368699, Note_off_c, 1, 66, 0
1, 368699, Note_off_c, 1, 62, 0
1, 368699, Note_off_c, 1, 69, 0
1, 368700, Note_on_c, 1, 81, 127
1, 368700, Note_on_c, 1, 78, 127
1, 368700, Note_on_c, 1, 74, 127
1, 368700, Note_on_c, 1, 50, 127
1, 368700, Note_on_c, 1, 66, 127
1, 368700, Note_on_c, 1, 69, 127
1, 368700, Note_on_c, 1, 62, 127
1, 368759, Note_off_c, 1, 81, 0
1, 368759, Note_off_c, 1, 78, 0
1, 368759, Note_off_c, 1, 66, 0
1, 368759, Note_off_c, 1, 69, 0
1, 368760, Note_on_c, 1, 79, 127
1, 368760, Note_on_c, 1, 76, 127
1, 368760, Note_on_c, 1, 64, 127
1, 368760, Note_on_c, 1, 67, 127
1, 368819, Note_off_c, 1, 74, 0
1, 368819, Note_off_c, 1, 50, 0
1, 368819, Note_off_c, 1, 62, 0
1, 368819, Note_off_c, 1, 79, 0
1, 368819, Note_off_c, 1, 76, 0
1, 368819, Note_off_c, 1, 64, 0
1, 368819, Note_off_c, 1, 67, 0
1, 368820, Note_on_c, 1, 83, 127
1, 368820, Note_on_c, 1, 79, 127
1, 368820, Note_on_c, 1, 74, 127
1, 368820, Note_on_c, 1, 50, 127
1, 368820, Note_on_c, 1, 67, 127
1, 368820, Note_on_c, 1, 71, 127
1, 368820, Note_on_c, 1, 62, 127
1, 368820, Note_on_c, 1, 43, 127
1, 368879, Note_off_c, 1, 50, 0
1, 368939, Note_off_c, 1, 83, 0
1, 368939, Note_off_c, 1, 79, 0
1, 368939, Note_off_c, 1, 74, 0
1, 368939, Note_off_c, 1, 67, 0
1, 368939, Note_off_c, 1, 71, 0
1, 368939, Note_off_c, 1, 62, 0
1, 368939, Note_off_c, 1, 43, 0
1, 368940, Note_on_c, 1, 81, 127
1, 368940, Note_on_c, 1, 78, 127
1, 368940, Note_on_c, 1, 74, 127
1, 368940, Note_on_c, 1, 50, 127
1, 368940, Note_on_c, 1, 66, 127
1, 368940, Note_on_c, 1, 69, 127
1, 368940, Note_on_c, 1, 62, 127
1, 368940, Note_on_c, 1, 43, 127
1, 368999, Note_off_c, 1, 81, 0
1, 368999, Note_off_c, 1, 78, 0
1, 368999, Note_off_c, 1, 50, 0
1, 368999, Note_off_c, 1, 66, 0
1, 368999, Note_off_c, 1, 69, 0
1, 369000, Note_on_c, 1, 79, 127
1, 369000, Note_on_c, 1, 76, 127
1, 369000, Note_on_c, 1, 64, 127
1, 369000, Note_on_c, 1, 67, 127
1, 369059, Note_off_c, 1, 74, 0
1, 369059, Note_off_c, 1, 62, 0
1, 369059, Note_off_c, 1, 43, 0
1, 369059, Note_off_c, 1, 79, 0
1, 369059, Note_off_c, 1, 76, 0
1, 369059, Note_off_c, 1, 64, 0
1, 369059, Note_off_c, 1, 67, 0
1, 369060, Note_on_c, 1, 81, 127
1, 369060, Note_on_c, 1, 78, 127
1, 369060, Note_on_c, 1, 74, 127
1, 369060, Note_on_c, 1, 50, 127
1, 369060, Note_on_c, 1, 66, 127
1, 369060, Note_on_c, 1, 69, 127
1, 369060, Note_on_c, 1, 62, 127
1, 369119, Note_off_c, 1, 50, 0
1, 369120, Note_on_c, 1, 52, 127
1, 369179, Note_off_c, 1, 81, 0
1, 369179, Note_off_c, 1, 78, 0
1, 369179, Note_off_c, 1, 74, 0
1, 369179, Note_off_c, 1, 66, 0
1, 369179, Note_off_c, 1, 69, 0
1, 369179, Note_off_c, 1, 62, 0
1, 369179, Note_off_c, 1, 52, 0
1, 369180, Note_on_c, 1, 79, 127
1, 369180, Note_on_c, 1, 76, 127
1, 369180, Note_on_c, 1, 69, 127
1, 369180, Note_on_c, 1, 50, 127
1, 369180, Note_on_c, 1, 67, 127
1, 369180, Note_on_c, 1, 64, 127
1, 369180, Note_on_c, 1, 57, 127
1, 369180, Note_on_c, 1, 54, 127
1, 369239, Note_off_c, 1, 79, 0
1, 369239, Note_off_c, 1, 76, 0
1, 369239, Note_off_c, 1, 50, 0
1, 369239, Note_off_c, 1, 67, 0
1, 369239, Note_off_c, 1, 64, 0
1, 369239, Note_off_c, 1, 54, 0
1, 369240, Note_on_c, 1, 78, 127
1, 369240, Note_on_c, 1, 74, 127
1, 369240, Note_on_c, 1, 66, 127
1, 369240, Note_on_c, 1, 62, 127
1, 369240, Note_on_c, 1, 55, 127
1, 369299, Note_off_c, 1, 69, 0
1, 369299, Note_off_c, 1, 57, 0
1, 369299, Note_off_c, 1, 78, 0
1, 369299, Note_off_c, 1, 74, 0
1, 369299, Note_off_c, 1, 66, 0
1, 369299, Note_off_c, 1, 62, 0
1, 369299, Note_off_c, 1, 55, 0
1, 369300, Note_on_c, 1, 76, 127
1, 369300, Note_on_c, 1, 81, 127
1, 369300, Note_on_c, 1, 69, 127
1, 369300, Note_on_c, 1, 45, 127
1, 369300, Note_on_c, 1, 64, 127
1, 369300, Note_on_c, 1, 57, 127
1, 369300, Note_on_c, 1, 73, 127
1, 369300, Note_on_c, 1, 61, 127
1, 369360, Note_on_c, 1, 56, 127
1, 369419, Note_off_c, 1, 56, 0
1, 369539, Note_off_c, 1, 76, 0
1, 369539, Note_off_c, 1, 81, 0
1, 369539, Note_off_c, 1, 69, 0
1, 369539, Note_off_c, 1, 45, 0
1, 369539, Note_off_c, 1, 64, 0
1, 369539, Note_off_c, 1, 57, 0
1, 369539, Note_off_c, 1, 73, 0
1, 369539, Note_off_c, 1, 61, 0
1, 369540, Note_on_c, 1, 85, 127
1, 369540, Note_on_c, 1, 81, 127
1, 369540, Note_on_c, 1, 76, 127
1, 369540, Note_on_c, 1, 45, 127
1, 369540, Note_on_c, 1, 73, 127
1, 369540, Note_on_c, 1, 69, 127
1, 369540, Note_on_c, 1, 88, 127
1, 369540, Note_on_c, 1, 57, 127
1, 369599, Note_off_c, 1, 45, 0
1, 369600, Note_on_c, 1, 71, 127
1, 369600, Note_on_c, 1, 68, 127
1, 369659, Note_off_c, 1, 71, 0
1, 369659, Note_off_c, 1, 68, 0
1, 369779, Note_off_c, 1, 85, 0
1, 369779, Note_off_c, 1, 81, 0
1, 369779, Note_off_c, 1, 76, 0
1, 369779, Note_off_c, 1, 73, 0
1, 369779, Note_off_c, 1, 69, 0
1, 369779, Note_off_c, 1, 88, 0
1, 369779, Note_off_c, 1, 57, 0
1, 369780, Note_on_c, 1, 81, 127
1, 369780, Note_on_c, 1, 76, 127
1, 369780, Note_on_c, 1, 69, 127
1, 369780, Note_on_c, 1, 45, 127
1, 369780, Note_on_c, 1, 73, 127
1, 369780, Note_on_c, 1, 85, 127
1, 369780, Note_on_c, 1, 64, 127
1, 370019, Note_off_c, 1, 81, 0
1, 370019, Note_off_c, 1, 76, 0
1, 370019, Note_off_c, 1, 69, 0
1, 370019, Note_off_c, 1, 45, 0
1, 370019, Note_off_c, 1, 73, 0
1, 370019, Note_off_c, 1, 85, 0
1, 370019, Note_off_c, 1, 64, 0
1, 370020, Note_on_c, 1, 64, 127
1, 370020, Note_on_c, 1, 81, 127
1, 370020, Note_on_c, 1, 73, 127
1, 370020, Note_on_c, 1, 69, 127
1, 370020, Note_on_c, 1, 61, 127
1, 370020, Note_on_c, 1, 57, 127
1, 370020, Note_on_c, 1, 52, 127
1, 370139, Note_off_c, 1, 64, 0
1, 370139, Note_off_c, 1, 81, 0
1, 370139, Note_off_c, 1, 73, 0
1, 370139, Note_off_c, 1, 69, 0
1, 370139, Note_off_c, 1, 61, 0
1, 370139, Note_off_c, 1, 57, 0
1, 370139, Note_off_c, 1, 52, 0
1, 370140, Note_on_c, 1, 64, 127
1, 370140, Note_on_c, 1, 81, 127
1, 370140, Note_on_c, 1, 73, 127
1, 370140, Note_on_c, 1, 69, 127
1, 370140, Note_on_c, 1, 61, 127
1, 370140, Note_on_c, 1, 57, 127
1, 370140, Note_on_c, 1, 52, 127
1, 370199, Note_off_c, 1, 81, 0
1, 370199, Note_off_c, 1, 73, 0
1, 370199, Note_off_c, 1, 69, 0
1, 370199, Note_off_c, 1, 61, 0
1, 370199, Note_off_c, 1, 57, 0
1, 370200, Note_on_c, 1, 80, 127
1, 370200, Note_on_c, 1, 71, 127
1, 370200, Note_on_c, 1, 68, 127
1, 370200, Note_on_c, 1, 59, 127
1, 370200, Note_on_c, 1, 56, 127
1, 370259, Note_off_c, 1, 64, 0
1, 370259, Note_off_c, 1, 52, 0
1, 370259, Note_off_c, 1, 80, 0
1, 370259, Note_off_c, 1, 71, 0
1, 370259, Note_off_c, 1, 68, 0
1, 370259, Note_off_c, 1, 59, 0
1, 370259, Note_off_c, 1, 56, 0
1, 370260, Note_on_c, 1, 64, 127
1, 370260, Note_on_c, 1, 83, 127
1, 370260, Note_on_c, 1, 74, 127
1, 370260, Note_on_c, 1, 71, 127
1, 370260, Note_on_c, 1, 62, 127
1, 370260, Note_on_c, 1, 59, 127
1, 370260, Note_on_c, 1, 56, 127
1, 370379, Note_off_c, 1, 64, 0
1, 370379, Note_off_c, 1, 83, 0
1, 370379, Note_off_c, 1, 74, 0
1, 370379, Note_off_c, 1, 71, 0
1, 370379, Note_off_c, 1, 62, 0
1, 370379, Note_off_c, 1, 59, 0
1, 370379, Note_off_c, 1, 56, 0
1, 370380, Note_on_c, 1, 64, 127
1, 370380, Note_on_c, 1, 81, 127
1, 370380, Note_on_c, 1, 73, 127
1, 370380, Note_on_c, 1, 69, 127
1, 370380, Note_on_c, 1, 61, 127
1, 370380, Note_on_c, 1, 57, 127
1, 370439, Note_off_c, 1, 81, 0
1, 370439, Note_off_c, 1, 73, 0
1, 370439, Note_off_c, 1, 69, 0
1, 370439, Note_off_c, 1, 61, 0
1, 370439, Note_off_c, 1, 57, 0
1, 370440, Note_on_c, 1, 80, 127
1, 370440, Note_on_c, 1, 71, 127
1, 370440, Note_on_c, 1, 68, 127
1, 370440, Note_on_c, 1, 59, 127
1, 370440, Note_on_c, 1, 56, 127
1, 370499, Note_off_c, 1, 64, 0
1, 370499, Note_off_c, 1, 80, 0
1, 370499, Note_off_c, 1, 71, 0
1, 370499, Note_off_c, 1, 68, 0
1, 370499, Note_off_c, 1, 59, 0
1, 370499, Note_off_c, 1, 56, 0
1, 370500, Note_on_c, 1, 64, 127
1, 370500, Note_on_c, 1, 81, 127
1, 370500, Note_on_c, 1, 73, 127
1, 370500, Note_on_c, 1, 69, 127
1, 370500, Note_on_c, 1, 61, 127
1, 370500, Note_on_c, 1, 57, 127
1, 370500, Note_on_c, 1, 52, 127
1, 370619, Note_off_c, 1, 64, 0
1, 370619, Note_off_c, 1, 81, 0
1, 370619, Note_off_c, 1, 73, 0
1, 370619, Note_off_c, 1, 69, 0
1, 370619, Note_off_c, 1, 61, 0
1, 370619, Note_off_c, 1, 57, 0
1, 370619, Note_off_c, 1, 52, 0
1, 370620, Note_on_c, 1, 64, 127
1, 370620, Note_on_c, 1, 81, 127
1, 370620, Note_on_c, 1, 73, 127
1, 370620, Note_on_c, 1, 69, 127
1, 370620, Note_on_c, 1, 61, 127
1, 370620, Note_on_c, 1, 57, 127
1, 370620, Note_on_c, 1, 52, 127
1, 370679, Note_off_c, 1, 81, 0
1, 370679, Note_off_c, 1, 73, 0
1, 370679, Note_off_c, 1, 69, 0
1, 370679, Note_off_c, 1, 61, 0
1, 370679, Note_off_c, 1, 57, 0
1, 370680, Note_on_c, 1, 80, 127
1, 370680, Note_on_c, 1, 71, 127
1, 370680, Note_on_c, 1, 68, 127
1, 370680, Note_on_c, 1, 59, 127
1, 370680, Note_on_c, 1, 56, 127
1, 370739, Note_off_c, 1, 64, 0
1, 370739, Note_off_c, 1, 52, 0
1, 370739, Note_off_c, 1, 80, 0
1, 370739, Note_off_c, 1, 71, 0
1, 370739, Note_off_c, 1, 68, 0
1, 370739, Note_off_c, 1, 59, 0
1, 370739, Note_off_c, 1, 56, 0
1, 370740, Note_on_c, 1, 64, 127
1, 370740, Note_on_c, 1, 83, 127
1, 370740, Note_on_c, 1, 74, 127
1, 370740, Note_on_c, 1, 71, 127
1, 370740, Note_on_c, 1, 62, 127
1, 370740, Note_on_c, 1, 59, 127
1, 370740, Note_on_c, 1, 56, 127
1, 370859, Note_off_c, 1, 64, 0
1, 370859, Note_off_c, 1, 83, 0
1, 370859, Note_off_c, 1, 74, 0
1, 370859, Note_off_c, 1, 71, 0
1, 370859, Note_off_c, 1, 62, 0
1, 370859, Note_off_c, 1, 59, 0
1, 370859, Note_off_c, 1, 56, 0
1, 370860, Note_on_c, 1, 64, 127
1, 370860, Note_on_c, 1, 81, 127
1, 370860, Note_on_c, 1, 73, 127
1, 370860, Note_on_c, 1, 69, 127
1, 370860, Note_on_c, 1, 61, 127
1, 370860, Note_on_c, 1, 57, 127
1, 370919, Note_off_c, 1, 81, 0
1, 370919, Note_off_c, 1, 73, 0
1, 370919, Note_off_c, 1, 69, 0
1, 370919, Note_off_c, 1, 61, 0
1, 370919, Note_off_c, 1, 57, 0
1, 370920, Note_on_c, 1, 80, 127
1, 370920, Note_on_c, 1, 71, 127
1, 370920, Note_on_c, 1, 68, 127
1, 370920, Note_on_c, 1, 59, 127
1, 370920, Note_on_c, 1, 56, 127
1, 370979, Note_off_c, 1, 64, 0
1, 370979, Note_off_c, 1, 80, 0
1, 370979, Note_off_c, 1, 71, 0
1, 370979, Note_off_c, 1, 68, 0
1, 370979, Note_off_c, 1, 59, 0
1, 370979, Note_off_c, 1, 56, 0
1, 370980, Note_on_c, 1, 85, 127
1, 370980, Note_on_c, 1, 81, 127
1, 370980, Note_on_c, 1, 76, 127
1, 370980, Note_on_c, 1, 45, 127
1, 370980, Note_on_c, 1, 69, 127
1, 370980, Note_on_c, 1, 73, 127
1, 370980, Note_on_c, 1, 64, 127
1, 370980, Note_on_c, 1, 57, 127
1, 371039, Note_off_c, 1, 45, 0
1, 371040, Note_on_c, 1, 71, 127
1, 371040, Note_on_c, 1, 68, 127
1, 371099, Note_off_c, 1, 71, 0
1, 371099, Note_off_c, 1, 68, 0
1, 371219, Note_off_c, 1, 85, 0
1, 371219, Note_off_c, 1, 81, 0
1, 371219, Note_off_c, 1, 76, 0
1, 371219, Note_off_c, 1, 69, 0
1, 371219, Note_off_c, 1, 73, 0
1, 371219, Note_off_c, 1, 64, 0
1, 371219, Note_off_c, 1, 57, 0
1, 371220, Note_on_c, 1, 81, 127
1, 371220, Note_on_c, 1, 76, 127
1, 371220, Note_on_c, 1, 69, 127
1, 371220, Note_on_c, 1, 45, 127
1, 371220, Note_on_c, 1, 73, 127
1, 371220, Note_on_c, 1, 64, 127
1, 371220, Note_on_c, 1, 61, 127
1, 371459, Note_off_c, 1, 81, 0
1, 371459, Note_off_c, 1, 76, 0
1, 371459, Note_off_c, 1, 69, 0
1, 371459, Note_off_c, 1, 45, 0
1, 371459, Note_off_c, 1, 73, 0
1, 371459, Note_off_c, 1, 64, 0
1, 371459, Note_off_c, 1, 61, 0
1, 371460, Note_on_c, 1, 57, 127
1, 371460, Note_on_c, 1, 85, 127
1, 371460, Note_on_c, 1, 76, 127
1, 371460, Note_on_c, 1, 73, 127
1, 371460, Note_on_c, 1, 64, 127
1, 371460, Note_on_c, 1, 61, 127
1, 371579, Note_off_c, 1, 57, 0
1, 371579, Note_off_c, 1, 85, 0
1, 371579, Note_off_c, 1, 76, 0
1, 371579, Note_off_c, 1, 73, 0
1, 371579, Note_off_c, 1, 64, 0
1, 371579, Note_off_c, 1, 61, 0
1, 371580, Note_on_c, 1, 57, 127
1, 371580, Note_on_c, 1, 85, 127
1, 371580, Note_on_c, 1, 76, 127
1, 371580, Note_on_c, 1, 73, 127
1, 371580, Note_on_c, 1, 64, 127
1, 371580, Note_on_c, 1, 61, 127
1, 371639, Note_off_c, 1, 85, 0
1, 371639, Note_off_c, 1, 76, 0
1, 371639, Note_off_c, 1, 73, 0
1, 371639, Note_off_c, 1, 64, 0
1, 371639, Note_off_c, 1, 61, 0
1, 371640, Note_on_c, 1, 83, 127
1, 371640, Note_on_c, 1, 74, 127
1, 371640, Note_on_c, 1, 71, 127
1, 371640, Note_on_c, 1, 62, 127
1, 371640, Note_on_c, 1, 59, 127
1, 371699, Note_off_c, 1, 57, 0
1, 371699, Note_off_c, 1, 83, 0
1, 371699, Note_off_c, 1, 74, 0
1, 371699, Note_off_c, 1, 71, 0
1, 371699, Note_off_c, 1, 62, 0
1, 371699, Note_off_c, 1, 59, 0
1, 371700, Note_on_c, 1, 57, 127
1, 371700, Note_on_c, 1, 86, 127
1, 371700, Note_on_c, 1, 78, 127
1, 371700, Note_on_c, 1, 74, 127
1, 371700, Note_on_c, 1, 66, 127
1, 371700, Note_on_c, 1, 62, 127
1, 371700, Note_on_c, 1, 56, 127
1, 371819, Note_off_c, 1, 57, 0
1, 371819, Note_off_c, 1, 86, 0
1, 371819, Note_off_c, 1, 78, 0
1, 371819, Note_off_c, 1, 74, 0
1, 371819, Note_off_c, 1, 66, 0
1, 371819, Note_off_c, 1, 62, 0
1, 371819, Note_off_c, 1, 56, 0
1, 371820, Note_on_c, 1, 57, 127
1, 371820, Note_on_c, 1, 85, 127
1, 371820, Note_on_c, 1, 76, 127
1, 371820, Note_on_c, 1, 73, 127
1, 371820, Note_on_c, 1, 64, 127
1, 371820, Note_on_c, 1, 61, 127
1, 371879, Note_off_c, 1, 85, 0
1, 371879, Note_off_c, 1, 76, 0
1, 371879, Note_off_c, 1, 73, 0
1, 371879, Note_off_c, 1, 64, 0
1, 371879, Note_off_c, 1, 61, 0
1, 371880, Note_on_c, 1, 83, 127
1, 371880, Note_on_c, 1, 74, 127
1, 371880, Note_on_c, 1, 71, 127
1, 371880, Note_on_c, 1, 62, 127
1, 371880, Note_on_c, 1, 59, 127
1, 371939, Note_off_c, 1, 57, 0
1, 371939, Note_off_c, 1, 83, 0
1, 371939, Note_off_c, 1, 74, 0
1, 371939, Note_off_c, 1, 71, 0
1, 371939, Note_off_c, 1, 62, 0
1, 371939, Note_off_c, 1, 59, 0
1, 371940, Note_on_c, 1, 57, 127
1, 371940, Note_on_c, 1, 85, 127
1, 371940, Note_on_c, 1, 76, 127
1, 371940, Note_on_c, 1, 73, 127
1, 371940, Note_on_c, 1, 64, 127
1, 371940, Note_on_c, 1, 61, 127
1, 372059, Note_off_c, 1, 57, 0
1, 372059, Note_off_c, 1, 85, 0
1, 372059, Note_off_c, 1, 76, 0
1, 372059, Note_off_c, 1, 73, 0
1, 372059, Note_off_c, 1, 64, 0
1, 372059, Note_off_c, 1, 61, 0
1, 372060, Note_on_c, 1, 57, 127
1, 372060, Note_on_c, 1, 85, 127
1, 372060, Note_on_c, 1, 76, 127
1, 372060, Note_on_c, 1, 73, 127
1, 372060, Note_on_c, 1, 64, 127
1, 372060, Note_on_c, 1, 61, 127
1, 372119, Note_off_c, 1, 85, 0
1, 372119, Note_off_c, 1, 76, 0
1, 372119, Note_off_c, 1, 73, 0
1, 372119, Note_off_c, 1, 64, 0
1, 372119, Note_off_c, 1, 61, 0
1, 372120, Note_on_c, 1, 83, 127
1, 372120, Note_on_c, 1, 74, 127
1, 372120, Note_on_c, 1, 71, 127
1, 372120, Note_on_c, 1, 62, 127
1, 372120, Note_on_c, 1, 59, 127
1, 372179, Note_off_c, 1, 57, 0
1, 372179, Note_off_c, 1, 83, 0
1, 372179, Note_off_c, 1, 74, 0
1, 372179, Note_off_c, 1, 71, 0
1, 372179, Note_off_c, 1, 62, 0
1, 372179, Note_off_c, 1, 59, 0
1, 372180, Note_on_c, 1, 57, 127
1, 372180, Note_on_c, 1, 86, 127
1, 372180, Note_on_c, 1, 78, 127
1, 372180, Note_on_c, 1, 74, 127
1, 372180, Note_on_c, 1, 66, 127
1, 372180, Note_on_c, 1, 62, 127
1, 372180, Note_on_c, 1, 56, 127
1, 372299, Note_off_c, 1, 57, 0
1, 372299, Note_off_c, 1, 86, 0
1, 372299, Note_off_c, 1, 78, 0
1, 372299, Note_off_c, 1, 74, 0
1, 372299, Note_off_c, 1, 66, 0
1, 372299, Note_off_c, 1, 62, 0
1, 372299, Note_off_c, 1, 56, 0
1, 372300, Note_on_c, 1, 57, 127
1, 372300, Note_on_c, 1, 85, 127
1, 372300, Note_on_c, 1, 76, 127
1, 372300, Note_on_c, 1, 73, 127
1, 372300, Note_on_c, 1, 64, 127
1, 372300, Note_on_c, 1, 61, 127
1, 372359, Note_off_c, 1, 85, 0
1, 372359, Note_off_c, 1, 76, 0
1, 372359, Note_off_c, 1, 73, 0
1, 372359, Note_off_c, 1, 64, 0
1, 372359, Note_off_c, 1, 61, 0
1, 372360, Note_on_c, 1, 83, 127
1, 372360, Note_on_c, 1, 74, 127
1, 372360, Note_on_c, 1, 71, 127
1, 372360, Note_on_c, 1, 62, 127
1, 372360, Note_on_c, 1, 59, 127
1, 372419, Note_off_c, 1, 57, 0
1, 372419, Note_off_c, 1, 83, 0
1, 372419, Note_off_c, 1, 74, 0
1, 372419, Note_off_c, 1, 71, 0
1, 372419, Note_off_c, 1, 62, 0
1, 372419, Note_off_c, 1, 59, 0
1, 372420, Note_on_c, 1, 85, 127
1, 372420, Note_on_c, 1, 81, 127
1, 372420, Note_on_c, 1, 76, 127
1, 372420, Note_on_c, 1, 45, 127
1, 372420, Note_on_c, 1, 69, 127
1, 372420, Note_on_c, 1, 73, 127
1, 372420, Note_on_c, 1, 64, 127
1, 372420, Note_on_c, 1, 61, 127
1, 372420, Note_on_c, 1, 57, 127
1, 372479, Note_off_c, 1, 45, 0
1, 372480, Note_on_c, 1, 71, 127
1, 372480, Note_on_c, 1, 68, 127
1, 372539, Note_off_c, 1, 71, 0
1, 372539, Note_off_c, 1, 68, 0
1, 372659, Note_off_c, 1, 85, 0
1, 372659, Note_off_c, 1, 81, 0
1, 372659, Note_off_c, 1, 76, 0
1, 372659, Note_off_c, 1, 69, 0
1, 372659, Note_off_c, 1, 73, 0
1, 372659, Note_off_c, 1, 64, 0
1, 372659, Note_off_c, 1, 61, 0
1, 372659, Note_off_c, 1, 57, 0
1, 372660, Note_on_c, 1, 81, 127
1, 372660, Note_on_c, 1, 76, 127
1, 372660, Note_on_c, 1, 69, 127
1, 372660, Note_on_c, 1, 45, 127
1, 372660, Note_on_c, 1, 73, 127
1, 372660, Note_on_c, 1, 64, 127
1, 372660, Note_on_c, 1, 61, 127
1, 372660, Note_on_c, 1, 57, 127
1, 372899, Note_off_c, 1, 81, 0
1, 372899, Note_off_c, 1, 76, 0
1, 372899, Note_off_c, 1, 69, 0
1, 372899, Note_off_c, 1, 45, 0
1, 372899, Note_off_c, 1, 73, 0
1, 372899, Note_off_c, 1, 64, 0
1, 372899, Note_off_c, 1, 61, 0
1, 372899, Note_off_c, 1, 57, 0
1, 372900, Note_on_c, 1, 69, 127
1, 372900, Note_on_c, 1, 45, 127
1, 372900, Note_on_c, 1, 64, 127
1, 372900, Note_on_c, 1, 67, 127
1, 372900, Note_on_c, 1, 73, 127
1, 372900, Note_on_c, 1, 61, 127
1, 372900, Note_on_c, 1, 57, 127
1, 372900, Note_on_c, 1, 52, 127
1, 372959, Note_off_c, 1, 67, 0
1, 372960, Note_on_c, 1, 66, 127
1, 372960, Note_on_c, 1, 62, 127
1, 373019, Note_off_c, 1, 69, 0
1, 373019, Note_off_c, 1, 45, 0
1, 373019, Note_off_c, 1, 64, 0
1, 373019, Note_off_c, 1, 73, 0
1, 373019, Note_off_c, 1, 61, 0
1, 373019, Note_off_c, 1, 57, 0
1, 373019, Note_off_c, 1, 52, 0
1, 373019, Note_off_c, 1, 66, 0
1, 373019, Note_off_c, 1, 62, 0
1, 373020, Note_on_c, 1, 69, 127
1, 373020, Note_on_c, 1, 45, 127
1, 373020, Note_on_c, 1, 67, 127
1, 373020, Note_on_c, 1, 64, 127
1, 373020, Note_on_c, 1, 61, 127
1, 373020, Note_on_c, 1, 57, 127
1, 373020, Note_on_c, 1, 52, 127
1, 373079, Note_off_c, 1, 67, 0
1, 373080, Note_on_c, 1, 62, 127
1, 373080, Note_on_c, 1, 66, 127
1, 373139, Note_off_c, 1, 69, 0
1, 373139, Note_off_c, 1, 45, 0
1, 373139, Note_off_c, 1, 64, 0
1, 373139, Note_off_c, 1, 61, 0
1, 373139, Note_off_c, 1, 57, 0
1, 373139, Note_off_c, 1, 52, 0
1, 373139, Note_off_c, 1, 62, 0
1, 373139, Note_off_c, 1, 66, 0
1, 373140, Note_on_c, 1, 69, 127
1, 373140, Note_on_c, 1, 45, 127
1, 373140, Note_on_c, 1, 64, 127
1, 373140, Note_on_c, 1, 57, 127
1, 373140, Note_on_c, 1, 76, 127
1, 373140, Note_on_c, 1, 73, 127
1, 373140, Note_on_c, 1, 61, 127
1, 373200, Note_on_c, 1, 66, 127
1, 373200, Note_on_c, 1, 62, 127
1, 373259, Note_off_c, 1, 69, 0
1, 373259, Note_off_c, 1, 45, 0
1, 373259, Note_off_c, 1, 64, 0
1, 373259, Note_off_c, 1, 57, 0
1, 373259, Note_off_c, 1, 76, 0
1, 373259, Note_off_c, 1, 73, 0
1, 373259, Note_off_c, 1, 61, 0
1, 373259, Note_off_c, 1, 66, 0
1, 373259, Note_off_c, 1, 62, 0
1, 373260, Note_on_c, 1, 69, 127
1, 373260, Note_on_c, 1, 45, 127
1, 373260, Note_on_c, 1, 57, 127
1, 373260, Note_on_c, 1, 64, 127
1, 373260, Note_on_c, 1, 73, 127
1, 373260, Note_on_c, 1, 61, 127
1, 373260, Note_on_c, 1, 52, 127
1, 373320, Note_on_c, 1, 62, 127
1, 373320, Note_on_c, 1, 66, 127
1, 373379, Note_off_c, 1, 69, 0
1, 373379, Note_off_c, 1, 45, 0
1, 373379, Note_off_c, 1, 57, 0
1, 373379, Note_off_c, 1, 64, 0
1, 373379, Note_off_c, 1, 73, 0
1, 373379, Note_off_c, 1, 61, 0
1, 373379, Note_off_c, 1, 52, 0
1, 373379, Note_off_c, 1, 62, 0
1, 373379, Note_off_c, 1, 66, 0
1, 373380, Note_on_c, 1, 69, 127
1, 373380, Note_on_c, 1, 45, 127
1, 373380, Note_on_c, 1, 67, 127
1, 373380, Note_on_c, 1, 64, 127
1, 373380, Note_on_c, 1, 79, 127
1, 373380, Note_on_c, 1, 76, 127
1, 373380, Note_on_c, 1, 73, 127
1, 373380, Note_on_c, 1, 61, 127
1, 373440, Note_on_c, 1, 66, 127
1, 373440, Note_on_c, 1, 62, 127
1, 373499, Note_off_c, 1, 69, 0
1, 373499, Note_off_c, 1, 45, 0
1, 373499, Note_off_c, 1, 67, 0
1, 373499, Note_off_c, 1, 64, 0
1, 373499, Note_off_c, 1, 79, 0
1, 373499, Note_off_c, 1, 76, 0
1, 373499, Note_off_c, 1, 73, 0
1, 373499, Note_off_c, 1, 61, 0
1, 373499, Note_off_c, 1, 66, 0
1, 373499, Note_off_c, 1, 62, 0
1, 373500, Note_on_c, 1, 69, 127
1, 373500, Note_on_c, 1, 45, 127
1, 373500, Note_on_c, 1, 67, 127
1, 373500, Note_on_c, 1, 64, 127
1, 373500, Note_on_c, 1, 76, 127
1, 373500, Note_on_c, 1, 73, 127
1, 373500, Note_on_c, 1, 61, 127
1, 373500, Note_on_c, 1, 57, 127
1, 373559, Note_off_c, 1, 45, 0
1, 373559, Note_off_c, 1, 67, 0
1, 373560, Note_on_c, 1, 66, 127
1, 373560, Note_on_c, 1, 62, 127
1, 373619, Note_off_c, 1, 69, 0
1, 373619, Note_off_c, 1, 64, 0
1, 373619, Note_off_c, 1, 76, 0
1, 373619, Note_off_c, 1, 73, 0
1, 373619, Note_off_c, 1, 61, 0
1, 373619, Note_off_c, 1, 57, 0
1, 373619, Note_off_c, 1, 66, 0
1, 373619, Note_off_c, 1, 62, 0
1, 373620, Note_on_c, 1, 69, 127
1, 373620, Note_on_c, 1, 45, 127
1, 373620, Note_on_c, 1, 64, 127
1, 373620, Note_on_c, 1, 57, 127
1, 373620, Note_on_c, 1, 73, 127
1, 373620, Note_on_c, 1, 61, 127
1, 373620, Note_on_c, 1, 52, 127
1, 373680, Note_on_c, 1, 62, 127
1, 373680, Note_on_c, 1, 66, 127
1, 373739, Note_off_c, 1, 69, 0
1, 373739, Note_off_c, 1, 45, 0
1, 373739, Note_off_c, 1, 64, 0
1, 373739, Note_off_c, 1, 57, 0
1, 373739, Note_off_c, 1, 73, 0
1, 373739, Note_off_c, 1, 61, 0
1, 373739, Note_off_c, 1, 52, 0
1, 373739, Note_off_c, 1, 62, 0
1, 373739, Note_off_c, 1, 66, 0
1, 373740, Note_on_c, 1, 69, 127
1, 373740, Note_on_c, 1, 45, 127
1, 373740, Note_on_c, 1, 57, 127
1, 373740, Note_on_c, 1, 64, 127
1, 373740, Note_on_c, 1, 73, 127
1, 373740, Note_on_c, 1, 61, 127
1, 373740, Note_on_c, 1, 52, 127
1, 373799, Note_off_c, 1, 64, 0
1, 373800, Note_on_c, 1, 62, 127
1, 373800, Note_on_c, 1, 66, 127
1, 373859, Note_off_c, 1, 69, 0
1, 373859, Note_off_c, 1, 45, 0
1, 373859, Note_off_c, 1, 57, 0
1, 373859, Note_off_c, 1, 73, 0
1, 373859, Note_off_c, 1, 61, 0
1, 373859, Note_off_c, 1, 52, 0
1, 373859, Note_off_c, 1, 62, 0
1, 373859, Note_off_c, 1, 66, 0
1, 373860, Note_on_c, 1, 74, 127
1, 373860, Note_on_c, 1, 66, 127
1, 373860, Note_on_c, 1, 50, 127
1, 373860, Note_on_c, 1, 54, 127
1, 373860, Note_on_c, 1, 62, 127
1, 373860, Note_on_c, 1, 59, 127
1, 373860, Note_on_c, 1, 47, 127
1, 373919, Note_off_c, 1, 50, 0
1, 373919, Note_off_c, 1, 54, 0
1, 373920, Note_on_c, 1, 76, 127
1, 373920, Note_on_c, 1, 64, 127
1, 373920, Note_on_c, 1, 57, 127
1, 373979, Note_off_c, 1, 74, 0
1, 373979, Note_off_c, 1, 66, 0
1, 373979, Note_off_c, 1, 62, 0
1, 373979, Note_off_c, 1, 59, 0
1, 373979, Note_off_c, 1, 47, 0
1, 373979, Note_off_c, 1, 76, 0
1, 373979, Note_off_c, 1, 64, 0
1, 373979, Note_off_c, 1, 57, 0
1, 373980, Note_on_c, 1, 78, 127
1, 373980, Note_on_c, 1, 74, 127
1, 373980, Note_on_c, 1, 62, 127
1, 373980, Note_on_c, 1, 50, 127
1, 373980, Note_on_c, 1, 66, 127
1, 373980, Note_on_c, 1, 59, 127
1, 373980, Note_on_c, 1, 45, 127
1, 374039, Note_off_c, 1, 78, 0
1, 374039, Note_off_c, 1, 50, 0
1, 374039, Note_off_c, 1, 66, 0
1, 374039, Note_off_c, 1, 45, 0
1, 374040, Note_on_c, 1, 79, 127
1, 374040, Note_on_c, 1, 67, 127
1, 374040, Note_on_c, 1, 64, 127
1, 374040, Note_on_c, 1, 43, 127
1, 374099, Note_off_c, 1, 74, 0
1, 374099, Note_off_c, 1, 62, 0
1, 374099, Note_off_c, 1, 59, 0
1, 374099, Note_off_c, 1, 79, 0
1, 374099, Note_off_c, 1, 67, 0
1, 374099, Note_off_c, 1, 64, 0
1, 374099, Note_off_c, 1, 43, 0
1, 374100, Note_on_c, 1, 81, 127
1, 374100, Note_on_c, 1, 74, 127
1, 374100, Note_on_c, 1, 69, 127
1, 374100, Note_on_c, 1, 50, 127
1, 374100, Note_on_c, 1, 66, 127
1, 374100, Note_on_c, 1, 62, 127
1, 374100, Note_on_c, 1, 57, 127
1, 374100, Note_on_c, 1, 42, 127
1, 374159, Note_off_c, 1, 50, 0
1, 374159, Note_off_c, 1, 66, 0
1, 374160, Note_on_c, 1, 64, 127
1, 374219, Note_off_c, 1, 81, 0
1, 374219, Note_off_c, 1, 74, 0
1, 374219, Note_off_c, 1, 62, 0
1, 374219, Note_off_c, 1, 57, 0
1, 374219, Note_off_c, 1, 42, 0
1, 374219, Note_off_c, 1, 64, 0
1, 374220, Note_off_c, 1, 69, 0
1, 374220, Note_on_c, 1, 83, 127
1, 374220, Note_on_c, 1, 71, 127
1, 374220, Note_on_c, 1, 55, 127
1, 374220, Note_on_c, 1, 43, 127
1, 374279, Note_off_c, 1, 83, 0
1, 374279, Note_off_c, 1, 71, 0
1, 374339, Note_off_c, 1, 55, 0
1, 374339, Note_off_c, 1, 43, 0
1, 374340, Note_on_c, 1, 79, 127
1, 374340, Note_on_c, 1, 74, 127
1, 374340, Note_on_c, 1, 69, 127
1, 374340, Note_on_c, 1, 45, 127
1, 374340, Note_on_c, 1, 67, 127
1, 374340, Note_on_c, 1, 57, 127
1, 374340, Note_on_c, 1, 62, 127
1, 374340, Note_on_c, 1, 52, 127
1, 374399, Note_off_c, 1, 79, 0
1, 374399, Note_off_c, 1, 67, 0
1, 374400, Note_on_c, 1, 78, 127
1, 374400, Note_on_c, 1, 66, 127
1, 374459, Note_off_c, 1, 74, 0
1, 374459, Note_off_c, 1, 69, 0
1, 374459, Note_off_c, 1, 45, 0
1, 374459, Note_off_c, 1, 62, 0
1, 374459, Note_off_c, 1, 52, 0
1, 374459, Note_off_c, 1, 78, 0
1, 374459, Note_off_c, 1, 66, 0
1, 374460, Note_on_c, 1, 76, 127
1, 374460, Note_on_c, 1, 64, 127
1, 374460, Note_on_c, 1, 73, 127
1, 374460, Note_on_c, 1, 61, 127
1, 374519, Note_off_c, 1, 76, 0
1, 374519, Note_off_c, 1, 64, 0
1, 374579, Note_off_c, 1, 73, 0
1, 374579, Note_off_c, 1, 61, 0
1, 374580, Note_on_c, 1, 50, 127
1, 374580, Note_on_c, 1, 54, 127
1, 374580, Note_on_c, 1, 38, 127
1, 374819, Note_off_c, 1, 57, 0
1, 374819, Note_off_c, 1, 50, 0
1, 374819, Note_off_c, 1, 54, 0
1, 374819, Note_off_c, 1, 38, 0
1, 374820, Note_on_c, 1, 78, 127
1, 374820, Note_on_c, 1, 74, 127
1, 374820, Note_on_c, 1, 69, 127
1, 374820, Note_on_c, 1, 66, 127
1, 374820, Note_on_c, 1, 62, 127
1, 374820, Note_on_c, 1, 50, 127
1, 374879, Note_off_c, 1, 78, 0
1, 374880, Note_on_c, 1, 79, 127
1, 374880, Note_on_c, 1, 76, 127
1, 374939, Note_off_c, 1, 79, 0
1, 374939, Note_off_c, 1, 76, 0
1, 375059, Note_off_c, 1, 74, 0
1, 375059, Note_off_c, 1, 69, 0
1, 375059, Note_off_c, 1, 66, 0
1, 375059, Note_off_c, 1, 62, 0
1, 375059, Note_off_c, 1, 50, 0
1, 375060, Note_on_c, 1, 81, 127
1, 375060, Note_on_c, 1, 78, 127
1, 375060, Note_on_c, 1, 69, 127
1, 375060, Note_on_c, 1, 66, 127
1, 375060, Note_on_c, 1, 62, 127
1, 375060, Note_on_c, 1, 50, 127
1, 375060, Note_on_c, 1, 38, 127
1, 375299, Note_off_c, 1, 81, 0
1, 375299, Note_off_c, 1, 78, 0
1, 375299, Note_off_c, 1, 69, 0
1, 375299, Note_off_c, 1, 66, 0
1, 375299, Note_off_c, 1, 62, 0
1, 375299, Note_off_c, 1, 50, 0
1, 375299, Note_off_c, 1, 38, 0
1, 375300, Note_on_c, 1, 57, 127
1, 375300, Note_on_c, 1, 66, 127
1, 375300, Note_on_c, 1, 62, 127
1, 375419, Note_off_c, 1, 57, 0
1, 375419, Note_off_c, 1, 66, 0
1, 375419, Note_off_c, 1, 62, 0
1, 375420, Note_on_c, 1, 57, 127
1, 375420, Note_on_c, 1, 66, 127
1, 375420, Note_on_c, 1, 62, 127
1, 375479, Note_off_c, 1, 66, 0
1, 375479, Note_off_c, 1, 62, 0
1, 375480, Note_on_c, 1, 64, 127
1, 375480, Note_on_c, 1, 61, 127
1, 375539, Note_off_c, 1, 57, 0
1, 375539, Note_off_c, 1, 64, 0
1, 375539, Note_off_c, 1, 61, 0
1, 375540, Note_on_c, 1, 57, 127
1, 375540, Note_on_c, 1, 67, 127
1, 375540, Note_on_c, 1, 64, 127
1, 375540, Note_on_c, 1, 61, 127
1, 375659, Note_off_c, 1, 57, 0
1, 375659, Note_off_c, 1, 67, 0
1, 375659, Note_off_c, 1, 64, 0
1, 375659, Note_off_c, 1, 61, 0
1, 375660, Note_on_c, 1, 57, 127
1, 375660, Note_on_c, 1, 66, 127
1, 375660, Note_on_c, 1, 62, 127
1, 375719, Note_off_c, 1, 66, 0
1, 375719, Note_off_c, 1, 62, 0
1, 375720, Note_on_c, 1, 64, 127
1, 375720, Note_on_c, 1, 61, 127
1, 375779, Note_off_c, 1, 57, 0
1, 375779, Note_off_c, 1, 64, 0
1, 375779, Note_off_c, 1, 61, 0
1, 375780, Note_on_c, 1, 57, 127
1, 375780, Note_on_c, 1, 66, 127
1, 375780, Note_on_c, 1, 62, 127
1, 375899, Note_off_c, 1, 57, 0
1, 375899, Note_off_c, 1, 66, 0
1, 375899, Note_off_c, 1, 62, 0
1, 375900, Note_on_c, 1, 57, 127
1, 375900, Note_on_c, 1, 66, 127
1, 375900, Note_on_c, 1, 62, 127
1, 375959, Note_off_c, 1, 66, 0
1, 375959, Note_off_c, 1, 62, 0
1, 375960, Note_on_c, 1, 64, 127
1, 375960, Note_on_c, 1, 61, 127
1, 376019, Note_off_c, 1, 57, 0
1, 376019, Note_off_c, 1, 64, 0
1, 376019, Note_off_c, 1, 61, 0
1, 376020, Note_on_c, 1, 57, 127
1, 376020, Note_on_c, 1, 67, 127
1, 376020, Note_on_c, 1, 64, 127
1, 376020, Note_on_c, 1, 61, 127
1, 376139, Note_off_c, 1, 57, 0
1, 376139, Note_off_c, 1, 67, 0
1, 376139, Note_off_c, 1, 64, 0
1, 376139, Note_off_c, 1, 61, 0
1, 376140, Note_on_c, 1, 57, 127
1, 376140, Note_on_c, 1, 66, 127
1, 376140, Note_on_c, 1, 62, 127
1, 376199, Note_off_c, 1, 66, 0
1, 376199, Note_off_c, 1, 62, 0
1, 376200, Note_on_c, 1, 64, 127
1, 376200, Note_on_c, 1, 61, 127
1, 376259, Note_off_c, 1, 57, 0
1, 376259, Note_off_c, 1, 64, 0
1, 376259, Note_off_c, 1, 61, 0
1, 376260, Note_on_c, 1, 66, 127
1, 376260, Note_on_c, 1, 62, 127
1, 376260, Note_on_c, 1, 57, 127
1, 376260, Note_on_c, 1, 78, 127
1, 376260, Note_on_c, 1, 69, 127
1, 376260, Note_on_c, 1, 50, 127
1, 376320, Note_on_c, 1, 67, 127
1, 376320, Note_on_c, 1, 64, 127
1, 376379, Note_off_c, 1, 67, 0
1, 376379, Note_off_c, 1, 64, 0
1, 376499, Note_off_c, 1, 66, 0
1, 376499, Note_off_c, 1, 62, 0
1, 376499, Note_off_c, 1, 57, 0
1, 376499, Note_off_c, 1, 78, 0
1, 376499, Note_off_c, 1, 69, 0
1, 376499, Note_off_c, 1, 50, 0
1, 376500, Note_on_c, 1, 69, 127
1, 376500, Note_on_c, 1, 66, 127
1, 376500, Note_on_c, 1, 74, 127
1, 376500, Note_on_c, 1, 57, 127
1, 376500, Note_on_c, 1, 50, 127
1, 376500, Note_on_c, 1, 38, 127
1, 376739, Note_off_c, 1, 69, 0
1, 376739, Note_off_c, 1, 66, 0
1, 376739, Note_off_c, 1, 74, 0
1, 376739, Note_off_c, 1, 57, 0
1, 376739, Note_off_c, 1, 50, 0
1, 376739, Note_off_c, 1, 38, 0
1, 376740, Note_on_c, 1, 62, 127
1, 376740, Note_on_c, 1, 50, 127
1, 376740, Note_on_c, 1, 81, 127
1, 376740, Note_on_c, 1, 78, 127
1, 376740, Note_on_c, 1, 69, 127
1, 376740, Note_on_c, 1, 66, 127
1, 376859, Note_off_c, 1, 62, 0
1, 376859, Note_off_c, 1, 50, 0
1, 376859, Note_off_c, 1, 81, 0
1, 376859, Note_off_c, 1, 78, 0
1, 376859, Note_off_c, 1, 69, 0
1, 376859, Note_off_c, 1, 66, 0
1, 376860, Note_on_c, 1, 62, 127
1, 376860, Note_on_c, 1, 50, 127
1, 376860, Note_on_c, 1, 81, 127
1, 376860, Note_on_c, 1, 78, 127
1, 376860, Note_on_c, 1, 69, 127
1, 376860, Note_on_c, 1, 66, 127
1, 376919, Note_off_c, 1, 81, 0
1, 376919, Note_off_c, 1, 78, 0
1, 376919, Note_off_c, 1, 69, 0
1, 376919, Note_off_c, 1, 66, 0
1, 376920, Note_on_c, 1, 79, 127
1, 376920, Note_on_c, 1, 76, 127
1, 376920, Note_on_c, 1, 67, 127
1, 376920, Note_on_c, 1, 64, 127
1, 376979, Note_off_c, 1, 62, 0
1, 376979, Note_off_c, 1, 50, 0
1, 376979, Note_off_c, 1, 79, 0
1, 376979, Note_off_c, 1, 76, 0
1, 376979, Note_off_c, 1, 67, 0
1, 376979, Note_off_c, 1, 64, 0
1, 376980, Note_on_c, 1, 62, 127
1, 376980, Note_on_c, 1, 50, 127
1, 376980, Note_on_c, 1, 83, 127
1, 376980, Note_on_c, 1, 79, 127
1, 376980, Note_on_c, 1, 71, 127
1, 376980, Note_on_c, 1, 67, 127
1, 376980, Note_on_c, 1, 61, 127
1, 377099, Note_off_c, 1, 62, 0
1, 377099, Note_off_c, 1, 50, 0
1, 377099, Note_off_c, 1, 83, 0
1, 377099, Note_off_c, 1, 79, 0
1, 377099, Note_off_c, 1, 71, 0
1, 377099, Note_off_c, 1, 67, 0
1, 377099, Note_off_c, 1, 61, 0
1, 377100, Note_on_c, 1, 62, 127
1, 377100, Note_on_c, 1, 50, 127
1, 377100, Note_on_c, 1, 81, 127
1, 377100, Note_on_c, 1, 78, 127
1, 377100, Note_on_c, 1, 69, 127
1, 377100, Note_on_c, 1, 66, 127
1, 377159, Note_off_c, 1, 81, 0
1, 377159, Note_off_c, 1, 78, 0
1, 377159, Note_off_c, 1, 69, 0
1, 377159, Note_off_c, 1, 66, 0
1, 377160, Note_on_c, 1, 79, 127
1, 377160, Note_on_c, 1, 76, 127
1, 377160, Note_on_c, 1, 67, 127
1, 377160, Note_on_c, 1, 64, 127
1, 377219, Note_off_c, 1, 62, 0
1, 377219, Note_off_c, 1, 50, 0
1, 377219, Note_off_c, 1, 79, 0
1, 377219, Note_off_c, 1, 76, 0
1, 377219, Note_off_c, 1, 67, 0
1, 377219, Note_off_c, 1, 64, 0
1, 377220, Note_on_c, 1, 62, 127
1, 377220, Note_on_c, 1, 50, 127
1, 377220, Note_on_c, 1, 81, 127
1, 377220, Note_on_c, 1, 78, 127
1, 377220, Note_on_c, 1, 69, 127
1, 377220, Note_on_c, 1, 66, 127
1, 377339, Note_off_c, 1, 62, 0
1, 377339, Note_off_c, 1, 50, 0
1, 377339, Note_off_c, 1, 81, 0
1, 377339, Note_off_c, 1, 78, 0
1, 377339, Note_off_c, 1, 69, 0
1, 377339, Note_off_c, 1, 66, 0
1, 377340, Note_on_c, 1, 62, 127
1, 377340, Note_on_c, 1, 50, 127
1, 377340, Note_on_c, 1, 81, 127
1, 377340, Note_on_c, 1, 78, 127
1, 377340, Note_on_c, 1, 69, 127
1, 377340, Note_on_c, 1, 66, 127
1, 377399, Note_off_c, 1, 81, 0
1, 377399, Note_off_c, 1, 78, 0
1, 377399, Note_off_c, 1, 69, 0
1, 377399, Note_off_c, 1, 66, 0
1, 377400, Note_on_c, 1, 79, 127
1, 377400, Note_on_c, 1, 76, 127
1, 377400, Note_on_c, 1, 67, 127
1, 377400, Note_on_c, 1, 64, 127
1, 377459, Note_off_c, 1, 62, 0
1, 377459, Note_off_c, 1, 50, 0
1, 377459, Note_off_c, 1, 79, 0
1, 377459, Note_off_c, 1, 76, 0
1, 377459, Note_off_c, 1, 67, 0
1, 377459, Note_off_c, 1, 64, 0
1, 377460, Note_on_c, 1, 62, 127
1, 377460, Note_on_c, 1, 50, 127
1, 377460, Note_on_c, 1, 83, 127
1, 377460, Note_on_c, 1, 79, 127
1, 377460, Note_on_c, 1, 71, 127
1, 377460, Note_on_c, 1, 67, 127
1, 377460, Note_on_c, 1, 61, 127
1, 377579, Note_off_c, 1, 62, 0
1, 377579, Note_off_c, 1, 50, 0
1, 377579, Note_off_c, 1, 83, 0
1, 377579, Note_off_c, 1, 79, 0
1, 377579, Note_off_c, 1, 71, 0
1, 377579, Note_off_c, 1, 67, 0
1, 377579, Note_off_c, 1, 61, 0
1, 377580, Note_on_c, 1, 62, 127
1, 377580, Note_on_c, 1, 50, 127
1, 377580, Note_on_c, 1, 81, 127
1, 377580, Note_on_c, 1, 78, 127
1, 377580, Note_on_c, 1, 69, 127
1, 377580, Note_on_c, 1, 66, 127
1, 377639, Note_off_c, 1, 81, 0
1, 377639, Note_off_c, 1, 78, 0
1, 377639, Note_off_c, 1, 69, 0
1, 377639, Note_off_c, 1, 66, 0
1, 377640, Note_on_c, 1, 79, 127
1, 377640, Note_on_c, 1, 76, 127
1, 377640, Note_on_c, 1, 67, 127
1, 377640, Note_on_c, 1, 64, 127
1, 377699, Note_off_c, 1, 62, 0
1, 377699, Note_off_c, 1, 50, 0
1, 377699, Note_off_c, 1, 79, 0
1, 377699, Note_off_c, 1, 76, 0
1, 377699, Note_off_c, 1, 67, 0
1, 377699, Note_off_c, 1, 64, 0
1, 377700, Note_on_c, 1, 86, 127
1, 377700, Note_on_c, 1, 81, 127
1, 377700, Note_on_c, 1, 78, 127
1, 377700, Note_on_c, 1, 50, 127
1, 377700, Note_on_c, 1, 66, 127
1, 377700, Note_on_c, 1, 62, 127
1, 377700, Note_on_c, 1, 74, 127
1, 377700, Note_on_c, 1, 69, 127
1, 377760, Note_on_c, 1, 67, 127
1, 377760, Note_on_c, 1, 64, 127
1, 377819, Note_off_c, 1, 67, 0
1, 377819, Note_off_c, 1, 64, 0
1, 377939, Note_off_c, 1, 86, 0
1, 377939, Note_off_c, 1, 81, 0
1, 377939, Note_off_c, 1, 78, 0
1, 377939, Note_off_c, 1, 50, 0
1, 377939, Note_off_c, 1, 66, 0
1, 377939, Note_off_c, 1, 62, 0
1, 377939, Note_off_c, 1, 74, 0
1, 377939, Note_off_c, 1, 69, 0
1, 377940, Note_on_c, 1, 81, 127
1, 377940, Note_on_c, 1, 78, 127
1, 377940, Note_on_c, 1, 74, 127
1, 377940, Note_on_c, 1, 50, 127
1, 377940, Note_on_c, 1, 69, 127
1, 377940, Note_on_c, 1, 66, 127
1, 377940, Note_on_c, 1, 62, 127
1, 377940, Note_on_c, 1, 38, 127
1, 378179, Note_off_c, 1, 81, 0
1, 378179, Note_off_c, 1, 78, 0
1, 378179, Note_off_c, 1, 74, 0
1, 378179, Note_off_c, 1, 50, 0
1, 378179, Note_off_c, 1, 69, 0
1, 378179, Note_off_c, 1, 66, 0
1, 378179, Note_off_c, 1, 62, 0
1, 378179, Note_off_c, 1, 38, 0
1, 378180, Note_on_c, 1, 78, 127
1, 378180, Note_on_c, 1, 74, 127
1, 378180, Note_on_c, 1, 69, 127
1, 378180, Note_on_c, 1, 50, 127
1, 378180, Note_on_c, 1, 66, 127
1, 378180, Note_on_c, 1, 62, 127
1, 378240, Note_on_c, 1, 67, 127
1, 378240, Note_on_c, 1, 64, 127
1, 378299, Note_off_c, 1, 78, 0
1, 378299, Note_off_c, 1, 74, 0
1, 378299, Note_off_c, 1, 69, 0
1, 378299, Note_off_c, 1, 50, 0
1, 378299, Note_off_c, 1, 66, 0
1, 378299, Note_off_c, 1, 62, 0
1, 378299, Note_off_c, 1, 67, 0
1, 378299, Note_off_c, 1, 64, 0
1, 378300, Note_on_c, 1, 74, 127
1, 378300, Note_on_c, 1, 69, 127
1, 378300, Note_on_c, 1, 66, 127
1, 378300, Note_on_c, 1, 50, 127
1, 378300, Note_on_c, 1, 62, 127
1, 378300, Note_on_c, 1, 57, 127
1, 378300, Note_on_c, 1, 54, 127
1, 378300, Note_on_c, 1, 38, 127
1, 378360, Note_on_c, 1, 67, 127
1, 378360, Note_on_c, 1, 64, 127
1, 378419, Note_off_c, 1, 74, 0
1, 378419, Note_off_c, 1, 69, 0
1, 378419, Note_off_c, 1, 66, 0
1, 378419, Note_off_c, 1, 50, 0
1, 378419, Note_off_c, 1, 62, 0
1, 378419, Note_off_c, 1, 57, 0
1, 378419, Note_off_c, 1, 54, 0
1, 378419, Note_off_c, 1, 38, 0
1, 378419, Note_off_c, 1, 67, 0
1, 378419, Note_off_c, 1, 64, 0
1, 378420, Note_on_c, 1, 81, 127
1, 378420, Note_on_c, 1, 78, 127
1, 378420, Note_on_c, 1, 74, 127
1, 378420, Note_on_c, 1, 50, 127
1, 378420, Note_on_c, 1, 69, 127
1, 378420, Note_on_c, 1, 66, 127
1, 378420, Note_on_c, 1, 54, 127
1, 378420, Note_on_c, 1, 38, 127
1, 378480, Note_on_c, 1, 67, 127
1, 378480, Note_on_c, 1, 64, 127
1, 378539, Note_off_c, 1, 81, 0
1, 378539, Note_off_c, 1, 78, 0
1, 378539, Note_off_c, 1, 74, 0
1, 378539, Note_off_c, 1, 50, 0
1, 378539, Note_off_c, 1, 69, 0
1, 378539, Note_off_c, 1, 66, 0
1, 378539, Note_off_c, 1, 54, 0
1, 378539, Note_off_c, 1, 38, 0
1, 378539, Note_off_c, 1, 67, 0
1, 378539, Note_off_c, 1, 64, 0
1, 378540, Note_on_c, 1, 78, 127
1, 378540, Note_on_c, 1, 74, 127
1, 378540, Note_on_c, 1, 69, 127
1, 378540, Note_on_c, 1, 50, 127
1, 378540, Note_on_c, 1, 66, 127
1, 378540, Note_on_c, 1, 62, 127
1, 378540, Note_on_c, 1, 57, 127
1, 378600, Note_on_c, 1, 67, 127
1, 378600, Note_on_c, 1, 64, 127
1, 378659, Note_off_c, 1, 78, 0
1, 378659, Note_off_c, 1, 74, 0
1, 378659, Note_off_c, 1, 69, 0
1, 378659, Note_off_c, 1, 50, 0
1, 378659, Note_off_c, 1, 66, 0
1, 378659, Note_off_c, 1, 62, 0
1, 378659, Note_off_c, 1, 57, 0
1, 378659, Note_off_c, 1, 67, 0
1, 378659, Note_off_c, 1, 64, 0
1, 378660, Note_on_c, 1, 86, 127
1, 378660, Note_on_c, 1, 81, 127
1, 378660, Note_on_c, 1, 78, 127
1, 378660, Note_on_c, 1, 50, 127
1, 378660, Note_on_c, 1, 66, 127
1, 378660, Note_on_c, 1, 62, 127
1, 378660, Note_on_c, 1, 74, 127
1, 378660, Note_on_c, 1, 69, 127
1, 378660, Note_on_c, 1, 57, 127
1, 378719, Note_off_c, 1, 66, 0
1, 378719, Note_off_c, 1, 62, 0
1, 378720, Note_on_c, 1, 67, 127
1, 378720, Note_on_c, 1, 64, 127
1, 378779, Note_off_c, 1, 86, 0
1, 378779, Note_off_c, 1, 81, 0
1, 378779, Note_off_c, 1, 78, 0
1, 378779, Note_off_c, 1, 50, 0
1, 378779, Note_off_c, 1, 74, 0
1, 378779, Note_off_c, 1, 69, 0
1, 378779, Note_off_c, 1, 57, 0
1, 378779, Note_off_c, 1, 67, 0
1, 378779, Note_off_c, 1, 64, 0
1, 378780, Note_on_c, 1, 81, 127
1, 378780, Note_on_c, 1, 78, 127
1, 378780, Note_on_c, 1, 74, 127
1, 378780, Note_on_c, 1, 50, 127
1, 378780, Note_on_c, 1, 66, 127
1, 378780, Note_on_c, 1, 62, 127
1, 378780, Note_on_c, 1, 69, 127
1, 378780, Note_on_c, 1, 38, 127
1, 378839, Note_off_c, 1, 50, 0
1, 378840, Note_on_c, 1, 67, 127
1, 378840, Note_on_c, 1, 64, 127
1, 378899, Note_off_c, 1, 81, 0
1, 378899, Note_off_c, 1, 78, 0
1, 378899, Note_off_c, 1, 74, 0
1, 378899, Note_off_c, 1, 66, 0
1, 378899, Note_off_c, 1, 62, 0
1, 378899, Note_off_c, 1, 69, 0
1, 378899, Note_off_c, 1, 38, 0
1, 378899, Note_off_c, 1, 67, 0
1, 378899, Note_off_c, 1, 64, 0
1, 378900, Note_on_c, 1, 78, 127
1, 378900, Note_on_c, 1, 74, 127
1, 378900, Note_on_c, 1, 69, 127
1, 378900, Note_on_c, 1, 50, 127
1, 378900, Note_on_c, 1, 66, 127
1, 378900, Note_on_c, 1, 81, 127
1, 378900, Note_on_c, 1, 62, 127
1, 378900, Note_on_c, 1, 38, 127
1, 378960, Note_on_c, 1, 67, 127
1, 378960, Note_on_c, 1, 64, 127
1, 379019, Note_off_c, 1, 78, 0
1, 379019, Note_off_c, 1, 74, 0
1, 379019, Note_off_c, 1, 69, 0
1, 379019, Note_off_c, 1, 50, 0
1, 379019, Note_off_c, 1, 66, 0
1, 379019, Note_off_c, 1, 81, 0
1, 379019, Note_off_c, 1, 62, 0
1, 379019, Note_off_c, 1, 38, 0
1, 379019, Note_off_c, 1, 67, 0
1, 379019, Note_off_c, 1, 64, 0
1, 379020, Note_on_c, 1, 74, 127
1, 379020, Note_on_c, 1, 69, 127
1, 379020, Note_on_c, 1, 66, 127
1, 379020, Note_on_c, 1, 50, 127
1, 379020, Note_on_c, 1, 78, 127
1, 379020, Note_on_c, 1, 62, 127
1, 379080, Note_on_c, 1, 67, 127
1, 379080, Note_on_c, 1, 64, 127
1, 379139, Note_off_c, 1, 74, 0
1, 379139, Note_off_c, 1, 69, 0
1, 379139, Note_off_c, 1, 66, 0
1, 379139, Note_off_c, 1, 50, 0
1, 379139, Note_off_c, 1, 78, 0
1, 379139, Note_off_c, 1, 62, 0
1, 379139, Note_off_c, 1, 67, 0
1, 379139, Note_off_c, 1, 64, 0
1, 379140, Note_on_c, 1, 81, 127
1, 379140, Note_on_c, 1, 78, 127
1, 379140, Note_on_c, 1, 74, 127
1, 379140, Note_on_c, 1, 50, 127
1, 379140, Note_on_c, 1, 62, 127
1, 379140, Note_on_c, 1, 66, 127
1, 379140, Note_on_c, 1, 69, 127
1, 379259, Note_off_c, 1, 81, 0
1, 379259, Note_off_c, 1, 78, 0
1, 379259, Note_off_c, 1, 74, 0
1, 379259, Note_off_c, 1, 50, 0
1, 379259, Note_off_c, 1, 62, 0
1, 379259, Note_off_c, 1, 66, 0
1, 379259, Note_off_c, 1, 69, 0
1, 379260, Note_on_c, 1, 81, 127
1, 379260, Note_on_c, 1, 78, 127
1, 379260, Note_on_c, 1, 74, 127
1, 379260, Note_on_c, 1, 50, 127
1, 379260, Note_on_c, 1, 69, 127
1, 379260, Note_on_c, 1, 66, 127
1, 379260, Note_on_c, 1, 62, 127
1, 379319, Note_off_c, 1, 81, 0
1, 379319, Note_off_c, 1, 78, 0
1, 379319, Note_off_c, 1, 69, 0
1, 379319, Note_off_c, 1, 66, 0
1, 379320, Note_on_c, 1, 79, 127
1, 379320, Note_on_c, 1, 76, 127
1, 379320, Note_on_c, 1, 67, 127
1, 379320, Note_on_c, 1, 64, 127
1, 379379, Note_off_c, 1, 74, 0
1, 379379, Note_off_c, 1, 50, 0
1, 379379, Note_off_c, 1, 62, 0
1, 379379, Note_off_c, 1, 79, 0
1, 379379, Note_off_c, 1, 76, 0
1, 379379, Note_off_c, 1, 67, 0
1, 379379, Note_off_c, 1, 64, 0
1, 379380, Note_on_c, 1, 83, 127
1, 379380, Note_on_c, 1, 79, 127
1, 379380, Note_on_c, 1, 74, 127
1, 379380, Note_on_c, 1, 50, 127
1, 379380, Note_on_c, 1, 71, 127
1, 379380, Note_on_c, 1, 67, 127
1, 379380, Note_on_c, 1, 62, 127
1, 379380, Note_on_c, 1, 55, 127
1, 379380, Note_on_c, 1, 43, 127
1, 379439, Note_off_c, 1, 50, 0
1, 379499, Note_off_c, 1, 83, 0
1, 379499, Note_off_c, 1, 79, 0
1, 379499, Note_off_c, 1, 74, 0
1, 379499, Note_off_c, 1, 71, 0
1, 379499, Note_off_c, 1, 67, 0
1, 379499, Note_off_c, 1, 62, 0
1, 379499, Note_off_c, 1, 55, 0
1, 379499, Note_off_c, 1, 43, 0
1, 379500, Note_on_c, 1, 81, 127
1, 379500, Note_on_c, 1, 78, 127
1, 379500, Note_on_c, 1, 74, 127
1, 379500, Note_on_c, 1, 50, 127
1, 379500, Note_on_c, 1, 66, 127
1, 379500, Note_on_c, 1, 69, 127
1, 379500, Note_on_c, 1, 62, 127
1, 379500, Note_on_c, 1, 55, 127
1, 379500, Note_on_c, 1, 43, 127
1, 379559, Note_off_c, 1, 81, 0
1, 379559, Note_off_c, 1, 78, 0
1, 379559, Note_off_c, 1, 50, 0
1, 379559, Note_off_c, 1, 66, 0
1, 379559, Note_off_c, 1, 69, 0
1, 379560, Note_on_c, 1, 79, 127
1, 379560, Note_on_c, 1, 76, 127
1, 379560, Note_on_c, 1, 64, 127
1, 379560, Note_on_c, 1, 67, 127
1, 379619, Note_off_c, 1, 74, 0
1, 379619, Note_off_c, 1, 62, 0
1, 379619, Note_off_c, 1, 55, 0
1, 379619, Note_off_c, 1, 43, 0
1, 379619, Note_off_c, 1, 79, 0
1, 379619, Note_off_c, 1, 76, 0
1, 379619, Note_off_c, 1, 64, 0
1, 379619, Note_off_c, 1, 67, 0
1, 379620, Note_on_c, 1, 81, 127
1, 379620, Note_on_c, 1, 78, 127
1, 379620, Note_on_c, 1, 74, 127
1, 379620, Note_on_c, 1, 50, 127
1, 379620, Note_on_c, 1, 69, 127
1, 379620, Note_on_c, 1, 66, 127
1, 379620, Note_on_c, 1, 62, 127
1, 379679, Note_off_c, 1, 50, 0
1, 379680, Note_on_c, 1, 52, 127
1, 379739, Note_off_c, 1, 81, 0
1, 379739, Note_off_c, 1, 78, 0
1, 379739, Note_off_c, 1, 74, 0
1, 379739, Note_off_c, 1, 69, 0
1, 379739, Note_off_c, 1, 66, 0
1, 379739, Note_off_c, 1, 62, 0
1, 379739, Note_off_c, 1, 52, 0
1, 379740, Note_on_c, 1, 79, 127
1, 379740, Note_on_c, 1, 76, 127
1, 379740, Note_on_c, 1, 69, 127
1, 379740, Note_on_c, 1, 50, 127
1, 379740, Note_on_c, 1, 67, 127
1, 379740, Note_on_c, 1, 64, 127
1, 379740, Note_on_c, 1, 57, 127
1, 379740, Note_on_c, 1, 54, 127
1, 379799, Note_off_c, 1, 79, 0
1, 379799, Note_off_c, 1, 76, 0
1, 379799, Note_off_c, 1, 50, 0
1, 379799, Note_off_c, 1, 67, 0
1, 379799, Note_off_c, 1, 64, 0
1, 379799, Note_off_c, 1, 54, 0
1, 379800, Note_on_c, 1, 78, 127
1, 379800, Note_on_c, 1, 74, 127
1, 379800, Note_on_c, 1, 62, 127
1, 379800, Note_on_c, 1, 66, 127
1, 379800, Note_on_c, 1, 55, 127
1, 379859, Note_off_c, 1, 69, 0
1, 379859, Note_off_c, 1, 57, 0
1, 379859, Note_off_c, 1, 78, 0
1, 379859, Note_off_c, 1, 74, 0
1, 379859, Note_off_c, 1, 62, 0
1, 379859, Note_off_c, 1, 66, 0
1, 379859, Note_off_c, 1, 55, 0
1, 379860, Note_on_c, 1, 76, 127
1, 379860, Note_on_c, 1, 81, 127
1, 379860, Note_on_c, 1, 69, 127
1, 379860, Note_on_c, 1, 45, 127
1, 379860, Note_on_c, 1, 57, 127
1, 379860, Note_on_c, 1, 64, 127
1, 379860, Note_on_c, 1, 73, 127
1, 379920, Note_on_c, 1, 56, 127
1, 379979, Note_off_c, 1, 56, 0
1, 380099, Note_off_c, 1, 76, 0
1, 380099, Note_off_c, 1, 81, 0
1, 380099, Note_off_c, 1, 69, 0
1, 380099, Note_off_c, 1, 45, 0
1, 380099, Note_off_c, 1, 57, 0
1, 380099, Note_off_c, 1, 64, 0
1, 380099, Note_off_c, 1, 73, 0
1, 380100, Note_on_c, 1, 69, 127
1, 380100, Note_on_c, 1, 57, 127
1, 380100, Note_on_c, 1, 73, 127
1, 380100, Note_on_c, 1, 64, 127
1, 380160, Note_on_c, 1, 71, 127
1, 380219, Note_off_c, 1, 71, 0
1, 380339, Note_off_c, 1, 69, 0
1, 380339, Note_off_c, 1, 57, 0
1, 380339, Note_off_c, 1, 73, 0
1, 380340, Note_on_c, 1, 61, 127
1, 380340, Note_on_c, 1, 45, 127
1, 380579, Note_off_c, 1, 64, 0
1, 380579, Note_off_c, 1, 61, 0
1, 380579, Note_off_c, 1, 45, 0
1, 380580, Note_on_c, 1, 76, 127
1, 380580, Note_on_c, 1, 81, 127
1, 380580, Note_on_c, 1, 73, 127
1, 380699, Note_off_c, 1, 76, 0
1, 380699, Note_off_c, 1, 81, 0
1, 380699, Note_off_c, 1, 73, 0
1, 380700, Note_on_c, 1, 76, 127
1, 380700, Note_on_c, 1, 81, 127
1, 380700, Note_on_c, 1, 73, 127
1, 380759, Note_off_c, 1, 81, 0
1, 380759, Note_off_c, 1, 73, 0
1, 380760, Note_on_c, 1, 80, 127
1, 380760, Note_on_c, 1, 71, 127
1, 380819, Note_off_c, 1, 76, 0
1, 380819, Note_off_c, 1, 80, 0
1, 380819, Note_off_c, 1, 71, 0
1, 380820, Note_on_c, 1, 76, 127
1, 380820, Note_on_c, 1, 83, 127
1, 380820, Note_on_c, 1, 74, 127
1, 380939, Note_off_c, 1, 76, 0
1, 380939, Note_off_c, 1, 83, 0
1, 380939, Note_off_c, 1, 74, 0
1, 380940, Note_on_c, 1, 76, 127
1, 380940, Note_on_c, 1, 81, 127
1, 380940, Note_on_c, 1, 73, 127
1, 380999, Note_off_c, 1, 81, 0
1, 380999, Note_off_c, 1, 73, 0
1, 381000, Note_on_c, 1, 80, 127
1, 381000, Note_on_c, 1, 71, 127
1, 381059, Note_off_c, 1, 76, 0
1, 381059, Note_off_c, 1, 80, 0
1, 381059, Note_off_c, 1, 71, 0
1, 381060, Note_on_c, 1, 76, 127
1, 381060, Note_on_c, 1, 81, 127
1, 381060, Note_on_c, 1, 73, 127
1, 381179, Note_off_c, 1, 76, 0
1, 381179, Note_off_c, 1, 81, 0
1, 381179, Note_off_c, 1, 73, 0
1, 381180, Note_on_c, 1, 76, 127
1, 381180, Note_on_c, 1, 81, 127
1, 381180, Note_on_c, 1, 73, 127
1, 381239, Note_off_c, 1, 81, 0
1, 381239, Note_off_c, 1, 73, 0
1, 381240, Note_on_c, 1, 80, 127
1, 381240, Note_on_c, 1, 71, 127
1, 381299, Note_off_c, 1, 76, 0
1, 381299, Note_off_c, 1, 80, 0
1, 381299, Note_off_c, 1, 71, 0
1, 381300, Note_on_c, 1, 76, 127
1, 381300, Note_on_c, 1, 83, 127
1, 381300, Note_on_c, 1, 74, 127
1, 381419, Note_off_c, 1, 76, 0
1, 381419, Note_off_c, 1, 83, 0
1, 381419, Note_off_c, 1, 74, 0
1, 381420, Note_on_c, 1, 76, 127
1, 381420, Note_on_c, 1, 81, 127
1, 381420, Note_on_c, 1, 73, 127
1, 381479, Note_off_c, 1, 81, 0
1, 381479, Note_off_c, 1, 73, 0
1, 381480, Note_on_c, 1, 80, 127
1, 381480, Note_on_c, 1, 71, 127
1, 381539, Note_off_c, 1, 76, 0
1, 381539, Note_off_c, 1, 80, 0
1, 381539, Note_off_c, 1, 71, 0
1, 381540, Note_on_c, 1, 81, 127
1, 381540, Note_on_c, 1, 76, 127
1, 381540, Note_on_c, 1, 73, 127
1, 381540, Note_on_c, 1, 69, 127
1, 381540, Note_on_c, 1, 61, 127
1, 381540, Note_on_c, 1, 57, 127
1, 381600, Note_on_c, 1, 83, 127
1, 381659, Note_off_c, 1, 83, 0
1, 381660, Note_on_c, 1, 78, 127
1, 381719, Note_off_c, 1, 78, 0
1, 381720, Note_on_c, 1, 80, 127
1, 381779, Note_off_c, 1, 81, 0
1, 381779, Note_off_c, 1, 76, 0
1, 381779, Note_off_c, 1, 73, 0
1, 381779, Note_off_c, 1, 69, 0
1, 381779, Note_off_c, 1, 61, 0
1, 381779, Note_off_c, 1, 57, 0
1, 381779, Note_off_c, 1, 80, 0
1, 381780, Note_on_c, 1, 85, 127
1, 381780, Note_on_c, 1, 81, 127
1, 381780, Note_on_c, 1, 73, 127
1, 381780, Note_on_c, 1, 64, 127
1, 381780, Note_on_c, 1, 57, 127
1, 381780, Note_on_c, 1, 45, 127
1, 382019, Note_off_c, 1, 85, 0
1, 382019, Note_off_c, 1, 81, 0
1, 382019, Note_off_c, 1, 73, 0
1, 382019, Note_off_c, 1, 64, 0
1, 382019, Note_off_c, 1, 57, 0
1, 382019, Note_off_c, 1, 45, 0
1, 382020, Note_on_c, 1, 69, 127
1, 382020, Note_on_c, 1, 57, 127
1, 382020, Note_on_c, 1, 85, 127
1, 382020, Note_on_c, 1, 76, 127
1, 382020, Note_on_c, 1, 73, 127
1, 382020, Note_on_c, 1, 64, 127
1, 382020, Note_on_c, 1, 61, 127
1, 382139, Note_off_c, 1, 69, 0
1, 382139, Note_off_c, 1, 57, 0
1, 382139, Note_off_c, 1, 85, 0
1, 382139, Note_off_c, 1, 76, 0
1, 382139, Note_off_c, 1, 73, 0
1, 382139, Note_off_c, 1, 64, 0
1, 382139, Note_off_c, 1, 61, 0
1, 382140, Note_on_c, 1, 69, 127
1, 382140, Note_on_c, 1, 57, 127
1, 382140, Note_on_c, 1, 85, 127
1, 382140, Note_on_c, 1, 76, 127
1, 382140, Note_on_c, 1, 73, 127
1, 382140, Note_on_c, 1, 64, 127
1, 382140, Note_on_c, 1, 61, 127
1, 382199, Note_off_c, 1, 85, 0
1, 382199, Note_off_c, 1, 76, 0
1, 382199, Note_off_c, 1, 73, 0
1, 382199, Note_off_c, 1, 64, 0
1, 382199, Note_off_c, 1, 61, 0
1, 382200, Note_on_c, 1, 83, 127
1, 382200, Note_on_c, 1, 74, 127
1, 382200, Note_on_c, 1, 71, 127
1, 382200, Note_on_c, 1, 62, 127
1, 382200, Note_on_c, 1, 59, 127
1, 382259, Note_off_c, 1, 69, 0
1, 382259, Note_off_c, 1, 57, 0
1, 382259, Note_off_c, 1, 83, 0
1, 382259, Note_off_c, 1, 74, 0
1, 382259, Note_off_c, 1, 71, 0
1, 382259, Note_off_c, 1, 62, 0
1, 382259, Note_off_c, 1, 59, 0
1, 382260, Note_on_c, 1, 69, 127
1, 382260, Note_on_c, 1, 57, 127
1, 382260, Note_on_c, 1, 86, 127
1, 382260, Note_on_c, 1, 78, 127
1, 382260, Note_on_c, 1, 74, 127
1, 382260, Note_on_c, 1, 66, 127
1, 382260, Note_on_c, 1, 62, 127
1, 382260, Note_on_c, 1, 56, 127
1, 382379, Note_off_c, 1, 69, 0
1, 382379, Note_off_c, 1, 57, 0
1, 382379, Note_off_c, 1, 86, 0
1, 382379, Note_off_c, 1, 78, 0
1, 382379, Note_off_c, 1, 74, 0
1, 382379, Note_off_c, 1, 66, 0
1, 382379, Note_off_c, 1, 62, 0
1, 382379, Note_off_c, 1, 56, 0
1, 382380, Note_on_c, 1, 69, 127
1, 382380, Note_on_c, 1, 57, 127
1, 382380, Note_on_c, 1, 85, 127
1, 382380, Note_on_c, 1, 76, 127
1, 382380, Note_on_c, 1, 73, 127
1, 382380, Note_on_c, 1, 64, 127
1, 382380, Note_on_c, 1, 61, 127
1, 382439, Note_off_c, 1, 85, 0
1, 382439, Note_off_c, 1, 76, 0
1, 382439, Note_off_c, 1, 73, 0
1, 382439, Note_off_c, 1, 64, 0
1, 382439, Note_off_c, 1, 61, 0
1, 382440, Note_on_c, 1, 83, 127
1, 382440, Note_on_c, 1, 74, 127
1, 382440, Note_on_c, 1, 71, 127
1, 382440, Note_on_c, 1, 62, 127
1, 382440, Note_on_c, 1, 59, 127
1, 382499, Note_off_c, 1, 69, 0
1, 382499, Note_off_c, 1, 57, 0
1, 382499, Note_off_c, 1, 83, 0
1, 382499, Note_off_c, 1, 74, 0
1, 382499, Note_off_c, 1, 71, 0
1, 382499, Note_off_c, 1, 62, 0
1, 382499, Note_off_c, 1, 59, 0
1, 382500, Note_on_c, 1, 69, 127
1, 382500, Note_on_c, 1, 57, 127
1, 382500, Note_on_c, 1, 85, 127
1, 382500, Note_on_c, 1, 76, 127
1, 382500, Note_on_c, 1, 73, 127
1, 382500, Note_on_c, 1, 64, 127
1, 382500, Note_on_c, 1, 61, 127
1, 382619, Note_off_c, 1, 69, 0
1, 382619, Note_off_c, 1, 57, 0
1, 382619, Note_off_c, 1, 85, 0
1, 382619, Note_off_c, 1, 76, 0
1, 382619, Note_off_c, 1, 73, 0
1, 382619, Note_off_c, 1, 64, 0
1, 382619, Note_off_c, 1, 61, 0
1, 382620, Note_on_c, 1, 69, 127
1, 382620, Note_on_c, 1, 57, 127
1, 382620, Note_on_c, 1, 85, 127
1, 382620, Note_on_c, 1, 76, 127
1, 382620, Note_on_c, 1, 73, 127
1, 382620, Note_on_c, 1, 64, 127
1, 382620, Note_on_c, 1, 61, 127
1, 382679, Note_off_c, 1, 85, 0
1, 382679, Note_off_c, 1, 76, 0
1, 382679, Note_off_c, 1, 73, 0
1, 382679, Note_off_c, 1, 64, 0
1, 382679, Note_off_c, 1, 61, 0
1, 382680, Note_on_c, 1, 83, 127
1, 382680, Note_on_c, 1, 74, 127
1, 382680, Note_on_c, 1, 71, 127
1, 382680, Note_on_c, 1, 62, 127
1, 382680, Note_on_c, 1, 59, 127
1, 382739, Note_off_c, 1, 69, 0
1, 382739, Note_off_c, 1, 57, 0
1, 382739, Note_off_c, 1, 83, 0
1, 382739, Note_off_c, 1, 74, 0
1, 382739, Note_off_c, 1, 71, 0
1, 382739, Note_off_c, 1, 62, 0
1, 382739, Note_off_c, 1, 59, 0
1, 382740, Note_on_c, 1, 69, 127
1, 382740, Note_on_c, 1, 57, 127
1, 382740, Note_on_c, 1, 86, 127
1, 382740, Note_on_c, 1, 78, 127
1, 382740, Note_on_c, 1, 74, 127
1, 382740, Note_on_c, 1, 66, 127
1, 382740, Note_on_c, 1, 62, 127
1, 382740, Note_on_c, 1, 56, 127
1, 382859, Note_off_c, 1, 69, 0
1, 382859, Note_off_c, 1, 57, 0
1, 382859, Note_off_c, 1, 86, 0
1, 382859, Note_off_c, 1, 78, 0
1, 382859, Note_off_c, 1, 74, 0
1, 382859, Note_off_c, 1, 66, 0
1, 382859, Note_off_c, 1, 62, 0
1, 382859, Note_off_c, 1, 56, 0
1, 382860, Note_on_c, 1, 69, 127
1, 382860, Note_on_c, 1, 57, 127
1, 382860, Note_on_c, 1, 85, 127
1, 382860, Note_on_c, 1, 76, 127
1, 382860, Note_on_c, 1, 73, 127
1, 382860, Note_on_c, 1, 64, 127
1, 382860, Note_on_c, 1, 61, 127
1, 382919, Note_off_c, 1, 85, 0
1, 382919, Note_off_c, 1, 76, 0
1, 382919, Note_off_c, 1, 73, 0
1, 382919, Note_off_c, 1, 64, 0
1, 382919, Note_off_c, 1, 61, 0
1, 382920, Note_on_c, 1, 83, 127
1, 382920, Note_on_c, 1, 74, 127
1, 382920, Note_on_c, 1, 71, 127
1, 382920, Note_on_c, 1, 62, 127
1, 382920, Note_on_c, 1, 59, 127
1, 382979, Note_off_c, 1, 69, 0
1, 382979, Note_off_c, 1, 57, 0
1, 382979, Note_off_c, 1, 83, 0
1, 382979, Note_off_c, 1, 74, 0
1, 382979, Note_off_c, 1, 71, 0
1, 382979, Note_off_c, 1, 62, 0
1, 382979, Note_off_c, 1, 59, 0
1, 382980, Note_on_c, 1, 85, 127
1, 382980, Note_on_c, 1, 81, 127
1, 382980, Note_on_c, 1, 76, 127
1, 382980, Note_on_c, 1, 45, 127
1, 382980, Note_on_c, 1, 69, 127
1, 382980, Note_on_c, 1, 64, 127
1, 382980, Note_on_c, 1, 73, 127
1, 382980, Note_on_c, 1, 61, 127
1, 382980, Note_on_c, 1, 57, 127
1, 383039, Note_off_c, 1, 45, 0
1, 383039, Note_off_c, 1, 69, 0
1, 383040, Note_on_c, 1, 71, 127
1, 383099, Note_off_c, 1, 71, 0
1, 383160, Note_on_c, 1, 68, 127
1, 383219, Note_off_c, 1, 85, 0
1, 383219, Note_off_c, 1, 81, 0
1, 383219, Note_off_c, 1, 76, 0
1, 383219, Note_off_c, 1, 64, 0
1, 383219, Note_off_c, 1, 73, 0
1, 383219, Note_off_c, 1, 61, 0
1, 383219, Note_off_c, 1, 57, 0
1, 383219, Note_off_c, 1, 68, 0
1, 383220, Note_on_c, 1, 81, 127
1, 383220, Note_on_c, 1, 76, 127
1, 383220, Note_on_c, 1, 69, 127
1, 383220, Note_on_c, 1, 45, 127
1, 383220, Note_on_c, 1, 73, 127
1, 383220, Note_on_c, 1, 61, 127
1, 383459, Note_off_c, 1, 81, 0
1, 383459, Note_off_c, 1, 76, 0
1, 383459, Note_off_c, 1, 69, 0
1, 383459, Note_off_c, 1, 45, 0
1, 383459, Note_off_c, 1, 73, 0
1, 383459, Note_off_c, 1, 61, 0
1, 383460, Note_on_c, 1, 69, 127
1, 383460, Note_on_c, 1, 45, 127
1, 383460, Note_on_c, 1, 64, 127
1, 383460, Note_on_c, 1, 67, 127
1, 383460, Note_on_c, 1, 73, 127
1, 383519, Note_off_c, 1, 67, 0
1, 383520, Note_on_c, 1, 66, 127
1, 383520, Note_on_c, 1, 62, 127
1, 383579, Note_off_c, 1, 69, 0
1, 383579, Note_off_c, 1, 45, 0
1, 383579, Note_off_c, 1, 64, 0
1, 383579, Note_off_c, 1, 73, 0
1, 383579, Note_off_c, 1, 66, 0
1, 383579, Note_off_c, 1, 62, 0
1, 383580, Note_on_c, 1, 69, 127
1, 383580, Note_on_c, 1, 45, 127
1, 383580, Note_on_c, 1, 67, 127
1, 383580, Note_on_c, 1, 64, 127
1, 383580, Note_on_c, 1, 61, 127
1, 383580, Note_on_c, 1, 49, 127
1, 383580, Note_on_c, 1, 57, 127
1, 383639, Note_off_c, 1, 67, 0
1, 383640, Note_on_c, 1, 66, 127
1, 383640, Note_on_c, 1, 62, 127
1, 383699, Note_off_c, 1, 69, 0
1, 383699, Note_off_c, 1, 45, 0
1, 383699, Note_off_c, 1, 64, 0
1, 383699, Note_off_c, 1, 61, 0
1, 383699, Note_off_c, 1, 49, 0
1, 383699, Note_off_c, 1, 57, 0
1, 383699, Note_off_c, 1, 66, 0
1, 383699, Note_off_c, 1, 62, 0
1, 383700, Note_on_c, 1, 69, 127
1, 383700, Note_on_c, 1, 45, 127
1, 383700, Note_on_c, 1, 64, 127
1, 383700, Note_on_c, 1, 57, 127
1, 383700, Note_on_c, 1, 76, 127
1, 383700, Note_on_c, 1, 73, 127
1, 383700, Note_on_c, 1, 49, 127
1, 383759, Note_off_c, 1, 64, 0
1, 383760, Note_on_c, 1, 62, 127
1, 383760, Note_on_c, 1, 66, 127
1, 383819, Note_off_c, 1, 69, 0
1, 383819, Note_off_c, 1, 45, 0
1, 383819, Note_off_c, 1, 57, 0
1, 383819, Note_off_c, 1, 76, 0
1, 383819, Note_off_c, 1, 73, 0
1, 383819, Note_off_c, 1, 49, 0
1, 383819, Note_off_c, 1, 62, 0
1, 383819, Note_off_c, 1, 66, 0
1, 383820, Note_on_c, 1, 69, 127
1, 383820, Note_on_c, 1, 45, 127
1, 383820, Note_on_c, 1, 57, 127
1, 383820, Note_on_c, 1, 64, 127
1, 383820, Note_on_c, 1, 73, 127
1, 383820, Note_on_c, 1, 66, 127
1, 383820, Note_on_c, 1, 52, 127
1, 383879, Note_off_c, 1, 57, 0
1, 383880, Note_on_c, 1, 62, 127
1, 383939, Note_off_c, 1, 69, 0
1, 383939, Note_off_c, 1, 45, 0
1, 383939, Note_off_c, 1, 64, 0
1, 383939, Note_off_c, 1, 73, 0
1, 383939, Note_off_c, 1, 66, 0
1, 383939, Note_off_c, 1, 52, 0
1, 383939, Note_off_c, 1, 62, 0
1, 383940, Note_on_c, 1, 69, 127
1, 383940, Note_on_c, 1, 45, 127
1, 383940, Note_on_c, 1, 67, 127
1, 383940, Note_on_c, 1, 64, 127
1, 383940, Note_on_c, 1, 79, 127
1, 383940, Note_on_c, 1, 76, 127
1, 383940, Note_on_c, 1, 73, 127
1, 383940, Note_on_c, 1, 61, 127
1, 383940, Note_on_c, 1, 52, 127
1, 383999, Note_off_c, 1, 67, 0
1, 383999, Note_off_c, 1, 64, 0
1, 384000, Note_on_c, 1, 66, 127
1, 384000, Note_on_c, 1, 62, 127
1, 384059, Note_off_c, 1, 69, 0
1, 384059, Note_off_c, 1, 45, 0
1, 384059, Note_off_c, 1, 79, 0
1, 384059, Note_off_c, 1, 76, 0
1, 384059, Note_off_c, 1, 73, 0
1, 384059, Note_off_c, 1, 61, 0
1, 384059, Note_off_c, 1, 52, 0
1, 384059, Note_off_c, 1, 66, 0
1, 384059, Note_off_c, 1, 62, 0
1, 384060, Note_on_c, 1, 69, 127
1, 384060, Note_on_c, 1, 45, 127
1, 384060, Note_on_c, 1, 67, 127
1, 384060, Note_on_c, 1, 64, 127
1, 384060, Note_on_c, 1, 76, 127
1, 384060, Note_on_c, 1, 73, 127
1, 384060, Note_on_c, 1, 57, 127
1, 384119, Note_off_c, 1, 45, 0
1, 384119, Note_off_c, 1, 67, 0
1, 384120, Note_on_c, 1, 66, 127
1, 384120, Note_on_c, 1, 62, 127
1, 384179, Note_off_c, 1, 69, 0
1, 384179, Note_off_c, 1, 64, 0
1, 384179, Note_off_c, 1, 76, 0
1, 384179, Note_off_c, 1, 73, 0
1, 384179, Note_off_c, 1, 57, 0
1, 384179, Note_off_c, 1, 66, 0
1, 384179, Note_off_c, 1, 62, 0
1, 384180, Note_on_c, 1, 69, 127
1, 384180, Note_on_c, 1, 45, 127
1, 384180, Note_on_c, 1, 57, 127
1, 384180, Note_on_c, 1, 64, 127
1, 384180, Note_on_c, 1, 73, 127
1, 384240, Note_on_c, 1, 66, 127
1, 384240, Note_on_c, 1, 62, 127
1, 384299, Note_off_c, 1, 69, 0
1, 384299, Note_off_c, 1, 45, 0
1, 384299, Note_off_c, 1, 57, 0
1, 384299, Note_off_c, 1, 64, 0
1, 384299, Note_off_c, 1, 73, 0
1, 384299, Note_off_c, 1, 66, 0
1, 384299, Note_off_c, 1, 62, 0
1, 384300, Note_on_c, 1, 69, 127
1, 384300, Note_on_c, 1, 45, 127
1, 384300, Note_on_c, 1, 64, 127
1, 384300, Note_on_c, 1, 57, 127
1, 384300, Note_on_c, 1, 73, 127
1, 384300, Note_on_c, 1, 61, 127
1, 384359, Note_off_c, 1, 57, 0
1, 384360, Note_on_c, 1, 62, 127
1, 384360, Note_on_c, 1, 66, 127
1, 384419, Note_off_c, 1, 69, 0
1, 384419, Note_off_c, 1, 45, 0
1, 384419, Note_off_c, 1, 64, 0
1, 384419, Note_off_c, 1, 73, 0
1, 384419, Note_off_c, 1, 61, 0
1, 384419, Note_off_c, 1, 62, 0
1, 384419, Note_off_c, 1, 66, 0
1, 384420, Note_on_c, 1, 74, 127
1, 384420, Note_on_c, 1, 66, 127
1, 384420, Note_on_c, 1, 50, 127
1, 384420, Note_on_c, 1, 62, 127
1, 384420, Note_on_c, 1, 54, 127
1, 384420, Note_on_c, 1, 71, 127
1, 384420, Note_on_c, 1, 59, 127
1, 384420, Note_on_c, 1, 47, 127
1, 384479, Note_off_c, 1, 50, 0
1, 384479, Note_off_c, 1, 62, 0
1, 384479, Note_off_c, 1, 54, 0
1, 384480, Note_on_c, 1, 76, 127
1, 384480, Note_on_c, 1, 57, 127
1, 384480, Note_on_c, 1, 64, 127
1, 384480, Note_on_c, 1, 73, 127
1, 384539, Note_off_c, 1, 74, 0
1, 384539, Note_off_c, 1, 66, 0
1, 384539, Note_off_c, 1, 71, 0
1, 384539, Note_off_c, 1, 59, 0
1, 384539, Note_off_c, 1, 47, 0
1, 384539, Note_off_c, 1, 76, 0
1, 384539, Note_off_c, 1, 57, 0
1, 384539, Note_off_c, 1, 64, 0
1, 384539, Note_off_c, 1, 73, 0
1, 384540, Note_on_c, 1, 78, 127
1, 384540, Note_on_c, 1, 74, 127
1, 384540, Note_on_c, 1, 62, 127
1, 384540, Note_on_c, 1, 50, 127
1, 384540, Note_on_c, 1, 66, 127
1, 384540, Note_on_c, 1, 71, 127
1, 384540, Note_on_c, 1, 57, 127
1, 384540, Note_on_c, 1, 45, 127
1, 384599, Note_off_c, 1, 78, 0
1, 384599, Note_off_c, 1, 50, 0
1, 384599, Note_off_c, 1, 66, 0
1, 384599, Note_off_c, 1, 57, 0
1, 384599, Note_off_c, 1, 45, 0
1, 384600, Note_on_c, 1, 79, 127
1, 384600, Note_on_c, 1, 67, 127
1, 384600, Note_on_c, 1, 64, 127
1, 384600, Note_on_c, 1, 76, 127
1, 384600, Note_on_c, 1, 55, 127
1, 384600, Note_on_c, 1, 43, 127
1, 384659, Note_off_c, 1, 74, 0
1, 384659, Note_off_c, 1, 62, 0
1, 384659, Note_off_c, 1, 71, 0
1, 384659, Note_off_c, 1, 79, 0
1, 384659, Note_off_c, 1, 67, 0
1, 384659, Note_off_c, 1, 64, 0
1, 384659, Note_off_c, 1, 76, 0
1, 384659, Note_off_c, 1, 55, 0
1, 384659, Note_off_c, 1, 43, 0
1, 384660, Note_on_c, 1, 81, 127
1, 384660, Note_on_c, 1, 74, 127
1, 384660, Note_on_c, 1, 69, 127
1, 384660, Note_on_c, 1, 50, 127
1, 384660, Note_on_c, 1, 66, 127
1, 384660, Note_on_c, 1, 78, 127
1, 384660, Note_on_c, 1, 62, 127
1, 384660, Note_on_c, 1, 54, 127
1, 384660, Note_on_c, 1, 42, 127
1, 384719, Note_off_c, 1, 50, 0
1, 384719, Note_off_c, 1, 66, 0
1, 384719, Note_off_c, 1, 78, 0
1, 384720, Note_on_c, 1, 64, 127
1, 384720, Note_on_c, 1, 76, 127
1, 384779, Note_off_c, 1, 81, 0
1, 384779, Note_off_c, 1, 74, 0
1, 384779, Note_off_c, 1, 62, 0
1, 384779, Note_off_c, 1, 54, 0
1, 384779, Note_off_c, 1, 42, 0
1, 384779, Note_off_c, 1, 64, 0
1, 384779, Note_off_c, 1, 76, 0
1, 384780, Note_off_c, 1, 69, 0
1, 384780, Note_on_c, 1, 83, 127
1, 384780, Note_on_c, 1, 71, 127
1, 384780, Note_on_c, 1, 67, 127
1, 384780, Note_on_c, 1, 55, 127
1, 384780, Note_on_c, 1, 43, 127
1, 384839, Note_off_c, 1, 83, 0
1, 384839, Note_off_c, 1, 71, 0
1, 384899, Note_off_c, 1, 67, 0
1, 384899, Note_off_c, 1, 55, 0
1, 384899, Note_off_c, 1, 43, 0
1, 384900, Note_on_c, 1, 79, 127
1, 384900, Note_on_c, 1, 74, 127
1, 384900, Note_on_c, 1, 69, 127
1, 384900, Note_on_c, 1, 45, 127
1, 384900, Note_on_c, 1, 67, 127
1, 384900, Note_on_c, 1, 57, 127
1, 384900, Note_on_c, 1, 64, 127
1, 384959, Note_off_c, 1, 79, 0
1, 384959, Note_off_c, 1, 67, 0
1, 384960, Note_on_c, 1, 78, 127
1, 384960, Note_on_c, 1, 66, 127
1, 385019, Note_off_c, 1, 74, 0
1, 385019, Note_off_c, 1, 69, 0
1, 385019, Note_off_c, 1, 45, 0
1, 385019, Note_off_c, 1, 64, 0
1, 385019, Note_off_c, 1, 78, 0
1, 385019, Note_off_c, 1, 66, 0
1, 385020, Note_on_c, 1, 76, 127
1, 385020, Note_on_c, 1, 73, 127
1, 385079, Note_off_c, 1, 76, 0
1, 385139, Note_off_c, 1, 73, 0
1, 385140, Note_on_c, 1, 50, 127
1, 385140, Note_on_c, 1, 62, 127
1, 385140, Note_on_c, 1, 54, 127
1, 385140, Note_on_c, 1, 38, 127
1, 385379, Note_off_c, 1, 57, 0
1, 385379, Note_off_c, 1, 50, 0
1, 385379, Note_off_c, 1, 62, 0
1, 385379, Note_off_c, 1, 54, 0
1, 385379, Note_off_c, 1, 38, 0
1, 385379, End_track
0, 0, End_of_file