0, 0, Header, 1, 1, 480
1, 0, Start_track
1, 0, Title_t, "Test"
1, 0, Tempo, 500000
1, 0, Instrument_name_t, "Church Organ"
1, 180, Note_on_c, 1, 64, 127
1, 240, Note_off_c, 1, 64, 0
1, 240, Note_on_c, 1, 66, 127
1, 300, Note_off_c, 1, 66, 0
1, 300, Note_on_c, 1, 68, 127
1, 360, Note_off_c, 1, 68, 0
1, 360, Note_on_c, 1, 69, 127
1, 360, Note_on_c, 1, 61, 127
1, 360, Note_on_c, 1, 45, 127
1, 420, Note_off_c, 1, 69, 0
1, 600, Note_off_c, 1, 61, 0
1, 600, Note_on_c, 1, 62, 127
1, 720, Note_off_c, 1, 62, 0
1, 960, Note_on_c, 1, 59, 127
1, 1080, Note_off_c, 1, 59, 0
1, 1260, Note_on_c, 1, 71, 127
1, 1320, Note_off_c, 1, 71, 0
1, 1320, Note_on_c, 1, 73, 127
1, 1320, Note_on_c, 1, 57, 127
1, 1380, Note_off_c, 1, 73, 0
1, 1380, Note_off_c, 1, 57, 0
1, 1380, Note_on_c, 1, 74, 127
1, 1440, Note_off_c, 1, 74, 0
1, 1440, Note_on_c, 1, 76, 127
1, 1620, Note_off_c, 1, 76, 0
1, 2940, Note_off_c, 1, 45, 0
1, 3600, Note_on_c, 1, 52, 127
1, 3659, Note_off_c, 1, 52, 0
1, 3660, Note_on_c, 1, 56, 127
1, 3719, Note_off_c, 1, 56, 0
1, 4680, Note_on_c, 1, 69, 127
1, 4680, Note_on_c, 1, 57, 127
1, 4680, Note_on_c, 1, 61, 127
1, 4799, Note_off_c, 1, 69, 0
1, 4799, Note_off_c, 1, 57, 0
1, 4799, Note_off_c, 1, 61, 0
1, 4800, Note_on_c, 1, 73, 127
1, 4800, Note_on_c, 1, 69, 127
1, 4800, Note_on_c, 1, 45, 127
1, 4859, Note_off_c, 1, 45, 0
1, 4860, Note_on_c, 1, 57, 127
1, 4919, Note_off_c, 1, 73, 0
1, 4919, Note_off_c, 1, 57, 0
1, 4920, Note_on_c, 1, 74, 127
1, 4920, Note_on_c, 1, 59, 127
1, 4920, Note_on_c, 1, 71, 127
1, 4979, Note_off_c, 1, 74, 0
1, 4979, Note_off_c, 1, 59, 0
1, 4979, Note_off_c, 1, 71, 0
1, 4980, Note_on_c, 1, 76, 127
1, 4980, Note_on_c, 1, 61, 127
1, 5039, Note_off_c, 1, 61, 0
1, 5099, Note_off_c, 1, 76, 0
1, 5159, Note_off_c, 1, 69, 0
1, 5160, Note_on_c, 1, 76, 127
1, 5160, Note_on_c, 1, 69, 127
1, 5160, Note_on_c, 1, 61, 127
1, 5160, Note_on_c, 1, 73, 127
1, 5279, Note_off_c, 1, 76, 0
1, 5279, Note_off_c, 1, 69, 0
1, 5279, Note_off_c, 1, 61, 0
1, 5279, Note_off_c, 1, 73, 0
1, 5280, Note_on_c, 1, 78, 127
1, 5280, Note_on_c, 1, 69, 127
1, 5280, Note_on_c, 1, 62, 127
1, 5280, Note_on_c, 1, 74, 127
1, 5339, Note_off_c, 1, 78, 0
1, 5339, Note_off_c, 1, 69, 0
1, 5339, Note_off_c, 1, 62, 0
1, 5339, Note_off_c, 1, 74, 0
1, 5340, Note_on_c, 1, 76, 127
1, 5340, Note_on_c, 1, 69, 127
1, 5340, Note_on_c, 1, 61, 127
1, 5340, Note_on_c, 1, 73, 127
1, 5399, Note_off_c, 1, 69, 0
1, 5399, Note_off_c, 1, 61, 0
1, 5399, Note_off_c, 1, 73, 0
1, 5400, Note_on_c, 1, 64, 127
1, 5400, Note_on_c, 1, 57, 127
1, 5429, Note_off_c, 1, 64, 0
1, 5430, Note_on_c, 1, 62, 127
1, 5430, Note_on_c, 1, 74, 127
1, 5459, Note_off_c, 1, 76, 0
1, 5459, Note_off_c, 1, 57, 0
1, 5459, Note_off_c, 1, 62, 0
1, 5459, Note_off_c, 1, 74, 0
1, 5460, Note_on_c, 1, 69, 127
1, 5460, Note_on_c, 1, 61, 127
1, 5460, Note_on_c, 1, 45, 127
1, 5460, Note_on_c, 1, 73, 127
1, 5489, Note_off_c, 1, 69, 0
1, 5489, Note_off_c, 1, 61, 0
1, 5489, Note_off_c, 1, 73, 0
1, 5490, Note_on_c, 1, 71, 127
1, 5490, Note_on_c, 1, 59, 127
1, 5519, Note_off_c, 1, 45, 0
1, 5519, Note_off_c, 1, 71, 0
1, 5519, Note_off_c, 1, 59, 0
1, 5520, Note_on_c, 1, 73, 127
1, 5520, Note_on_c, 1, 57, 127
1, 5520, Note_on_c, 1, 45, 127
1, 5520, Note_on_c, 1, 69, 127
1, 5520, Note_on_c, 1, 61, 127
1, 5579, Note_off_c, 1, 45, 0
1, 5639, Note_off_c, 1, 73, 0
1, 5639, Note_off_c, 1, 69, 0
1, 5639, Note_off_c, 1, 61, 0
1, 5640, Note_on_c, 1, 74, 127
1, 5640, Note_on_c, 1, 59, 127
1, 5640, Note_on_c, 1, 71, 127
1, 5640, Note_on_c, 1, 62, 127
1, 5699, Note_off_c, 1, 74, 0
1, 5699, Note_off_c, 1, 59, 0
1, 5699, Note_off_c, 1, 71, 0
1, 5699, Note_off_c, 1, 62, 0
1, 5700, Note_on_c, 1, 76, 127
1, 5700, Note_on_c, 1, 64, 127
1, 5759, Note_off_c, 1, 76, 0
1, 5819, Note_off_c, 1, 64, 0
1, 5879, Note_off_c, 1, 57, 0
1, 5880, Note_on_c, 1, 76, 127
1, 5880, Note_on_c, 1, 57, 127
1, 5880, Note_on_c, 1, 61, 127
1, 5880, Note_on_c, 1, 73, 127
1, 5880, Note_on_c, 1, 64, 127
1, 5939, Note_off_c, 1, 76, 0
1, 5940, Note_on_c, 1, 69, 127
1, 5999, Note_off_c, 1, 57, 0
1, 5999, Note_off_c, 1, 61, 0
1, 5999, Note_off_c, 1, 73, 0
1, 5999, Note_off_c, 1, 64, 0
1, 5999, Note_off_c, 1, 69, 0
1, 6000, Note_on_c, 1, 78, 127
1, 6000, Note_on_c, 1, 57, 127
1, 6000, Note_on_c, 1, 62, 127
1, 6000, Note_on_c, 1, 66, 127
1, 6000, Note_on_c, 1, 74, 127
1, 6059, Note_off_c, 1, 78, 0
1, 6059, Note_off_c, 1, 57, 0
1, 6059, Note_off_c, 1, 62, 0
1, 6059, Note_off_c, 1, 66, 0
1, 6059, Note_off_c, 1, 74, 0
1, 6060, Note_on_c, 1, 76, 127
1, 6060, Note_on_c, 1, 57, 127
1, 6060, Note_on_c, 1, 61, 127
1, 6060, Note_on_c, 1, 64, 127
1, 6060, Note_on_c, 1, 73, 127
1, 6119, Note_off_c, 1, 57, 0
1, 6119, Note_off_c, 1, 61, 0
1, 6180, Note_off_c, 1, 76, 0
1, 6180, Note_on_c, 1, 69, 127
1, 6209, Note_off_c, 1, 73, 0
1, 6239, Note_off_c, 1, 64, 0
1, 6239, Note_off_c, 1, 69, 0
1, 6240, Note_on_c, 1, 74, 127
1, 6240, Note_on_c, 1, 56, 127
1, 6240, Note_on_c, 1, 59, 127
1, 6240, Note_on_c, 1, 71, 127
1, 6240, Note_on_c, 1, 68, 127
1, 6240, Note_on_c, 1, 64, 127
1, 6299, Note_off_c, 1, 56, 0
1, 6299, Note_off_c, 1, 59, 0
1, 6359, Note_off_c, 1, 74, 0
1, 6420, Note_off_c, 1, 71, 0
1, 6420, Note_off_c, 1, 68, 0
1, 6420, Note_on_c, 1, 73, 127
1, 6420, Note_on_c, 1, 57, 127
1, 6420, Note_on_c, 1, 69, 127
1, 6420, Note_on_c, 1, 61, 127
1, 6479, Note_off_c, 1, 57, 0
1, 6480, Note_on_c, 1, 45, 127
1, 6539, Note_off_c, 1, 73, 0
1, 6539, Note_off_c, 1, 45, 0
1, 6540, Note_on_c, 1, 49, 127
1, 6599, Note_off_c, 1, 49, 0
1, 6600, Note_off_c, 1, 64, 0
1, 6600, Note_off_c, 1, 69, 0
1, 6600, Note_off_c, 1, 61, 0
1, 6600, Note_on_c, 1, 66, 127
1, 6600, Note_on_c, 1, 50, 127
1, 6659, Note_off_c, 1, 66, 0
1, 6659, Note_off_c, 1, 50, 0
1, 6660, Note_on_c, 1, 69, 127
1, 6660, Note_on_c, 1, 64, 127
1, 6660, Note_on_c, 1, 49, 127
1, 6689, Note_off_c, 1, 49, 0
1, 6690, Note_on_c, 1, 50, 127
1, 6690, Note_on_c, 1, 71, 127
1, 6719, Note_off_c, 1, 69, 0
1, 6719, Note_off_c, 1, 64, 0
1, 6719, Note_off_c, 1, 50, 0
1, 6719, Note_off_c, 1, 71, 0
1, 6720, Note_on_c, 1, 68, 127
1, 6720, Note_on_c, 1, 62, 127
1, 6720, Note_on_c, 1, 52, 127
1, 6720, Note_on_c, 1, 64, 127
1, 6779, Note_off_c, 1, 68, 0
1, 6779, Note_off_c, 1, 62, 0
1, 6779, Note_off_c, 1, 52, 0
1, 6779, Note_off_c, 1, 64, 0
1, 6780, Note_on_c, 1, 69, 127
1, 6780, Note_on_c, 1, 61, 127
1, 6780, Note_on_c, 1, 45, 127
1, 6780, Note_on_c, 1, 64, 127
1, 6840, Note_on_c, 1, 59, 127
1, 6899, Note_off_c, 1, 69, 0
1, 6899, Note_off_c, 1, 61, 0
1, 6899, Note_off_c, 1, 45, 0
1, 6899, Note_off_c, 1, 64, 0
1, 6899, Note_off_c, 1, 59, 0
1, 6900, Note_on_c, 1, 73, 127
1, 6900, Note_on_c, 1, 57, 127
1, 6929, Note_off_c, 1, 73, 0
1, 6930, Note_on_c, 1, 76, 127
1, 6959, Note_off_c, 1, 57, 0
1, 6959, Note_off_c, 1, 76, 0
1, 6960, Note_on_c, 1, 74, 127
1, 6960, Note_on_c, 1, 56, 127
1, 6960, Note_on_c, 1, 59, 127
1, 6960, Note_on_c, 1, 71, 127
1, 6960, Note_on_c, 1, 68, 127
1, 6960, Note_on_c, 1, 64, 127
1, 7019, Note_off_c, 1, 56, 0
1, 7019, Note_off_c, 1, 59, 0
1, 7079, Note_off_c, 1, 74, 0
1, 7140, Note_off_c, 1, 71, 0
1, 7140, Note_off_c, 1, 68, 0
1, 7140, Note_on_c, 1, 73, 127
1, 7140, Note_on_c, 1, 57, 127
1, 7140, Note_on_c, 1, 69, 127
1, 7140, Note_on_c, 1, 61, 127
1, 7199, Note_off_c, 1, 57, 0
1, 7200, Note_on_c, 1, 45, 127
1, 7259, Note_off_c, 1, 73, 0
1, 7259, Note_off_c, 1, 45, 0
1, 7260, Note_on_c, 1, 49, 127
1, 7319, Note_off_c, 1, 49, 0
1, 7320, Note_off_c, 1, 64, 0
1, 7320, Note_off_c, 1, 69, 0
1, 7320, Note_off_c, 1, 61, 0
1, 7320, Note_on_c, 1, 66, 127
1, 7320, Note_on_c, 1, 50, 127
1, 7320, Note_on_c, 1, 62, 127
1, 7379, Note_off_c, 1, 66, 0
1, 7379, Note_off_c, 1, 50, 0
1, 7379, Note_off_c, 1, 62, 0
1, 7380, Note_on_c, 1, 69, 127
1, 7380, Note_on_c, 1, 64, 127
1, 7380, Note_on_c, 1, 49, 127
1, 7409, Note_off_c, 1, 49, 0
1, 7410, Note_on_c, 1, 50, 127
1, 7410, Note_on_c, 1, 71, 127
1, 7439, Note_off_c, 1, 69, 0
1, 7439, Note_off_c, 1, 64, 0
1, 7439, Note_off_c, 1, 50, 0
1, 7439, Note_off_c, 1, 71, 0
1, 7440, Note_on_c, 1, 68, 127
1, 7440, Note_on_c, 1, 59, 127
1, 7440, Note_on_c, 1, 52, 127
1, 7440, Note_on_c, 1, 64, 127
1, 7440, Note_on_c, 1, 62, 127
1, 7499, Note_off_c, 1, 68, 0
1, 7499, Note_off_c, 1, 59, 0
1, 7499, Note_off_c, 1, 52, 0
1, 7499, Note_off_c, 1, 64, 0
1, 7499, Note_off_c, 1, 62, 0
1, 7500, Note_on_c, 1, 69, 127
1, 7500, Note_on_c, 1, 61, 127
1, 7500, Note_on_c, 1, 45, 127
1, 7500, Note_on_c, 1, 64, 127
1, 7619, Note_off_c, 1, 69, 0
1, 7619, Note_off_c, 1, 61, 0
1, 7619, Note_off_c, 1, 45, 0
1, 7619, Note_off_c, 1, 64, 0
1, 7620, Note_on_c, 1, 80, 127
1, 7620, Note_on_c, 1, 52, 127
1, 7620, Note_on_c, 1, 64, 127
1, 7649, Note_off_c, 1, 80, 0
1, 7650, Note_on_c, 1, 81, 127
1, 7679, Note_off_c, 1, 52, 0
1, 7679, Note_off_c, 1, 64, 0
1, 7679, Note_off_c, 1, 81, 0
1, 7680, Note_on_c, 1, 83, 127
1, 7680, Note_on_c, 1, 52, 127
1, 7680, Note_on_c, 1, 64, 127
1, 7739, Note_off_c, 1, 83, 0
1, 7739, Note_off_c, 1, 52, 0
1, 7739, Note_off_c, 1, 64, 0
1, 7740, Note_on_c, 1, 80, 127
1, 7740, Note_on_c, 1, 64, 127
1, 7740, Note_on_c, 1, 52, 127
1, 7770, Note_on_c, 1, 66, 127
1, 7799, Note_off_c, 1, 80, 0
1, 7799, Note_off_c, 1, 64, 0
1, 7799, Note_off_c, 1, 52, 0
1, 7799, Note_off_c, 1, 66, 0
1, 7800, Note_on_c, 1, 76, 127
1, 7800, Note_on_c, 1, 68, 127
1, 7800, Note_on_c, 1, 47, 127
1, 7830, Note_on_c, 1, 69, 127
1, 7859, Note_off_c, 1, 76, 0
1, 7859, Note_off_c, 1, 68, 0
1, 7859, Note_off_c, 1, 47, 0
1, 7859, Note_off_c, 1, 69, 0
1, 7860, Note_on_c, 1, 78, 127
1, 7860, Note_on_c, 1, 66, 127
1, 7860, Note_on_c, 1, 47, 127
1, 7889, Note_off_c, 1, 78, 0
1, 7890, Note_on_c, 1, 75, 127
1, 7890, Note_on_c, 1, 69, 127
1, 7919, Note_off_c, 1, 66, 0
1, 7919, Note_off_c, 1, 47, 0
1, 7919, Note_off_c, 1, 75, 0
1, 7919, Note_off_c, 1, 69, 0
1, 7920, Note_on_c, 1, 76, 127
1, 7920, Note_on_c, 1, 68, 127
1, 7920, Note_on_c, 1, 52, 127
1, 7920, Note_on_c, 1, 64, 127
1, 7949, Note_off_c, 1, 68, 0
1, 7950, Note_on_c, 1, 69, 127
1, 7979, Note_off_c, 1, 76, 0
1, 7979, Note_off_c, 1, 69, 0
1, 7980, Note_on_c, 1, 71, 127
1, 8039, Note_off_c, 1, 52, 0
1, 8039, Note_off_c, 1, 64, 0
1, 8039, Note_off_c, 1, 71, 0
1, 8040, Note_on_c, 1, 64, 127
1, 8040, Note_on_c, 1, 68, 127
1, 8069, Note_off_c, 1, 68, 0
1, 8070, Note_on_c, 1, 66, 127
1, 8099, Note_off_c, 1, 64, 0
1, 8099, Note_off_c, 1, 66, 0
1, 8100, Note_on_c, 1, 80, 127
1, 8100, Note_on_c, 1, 64, 127
1, 8100, Note_on_c, 1, 52, 127
1, 8129, Note_off_c, 1, 80, 0
1, 8130, Note_on_c, 1, 81, 127
1, 8130, Note_on_c, 1, 66, 127
1, 8159, Note_off_c, 1, 64, 0
1, 8159, Note_off_c, 1, 52, 0
1, 8159, Note_off_c, 1, 81, 0
1, 8159, Note_off_c, 1, 66, 0
1, 8160, Note_on_c, 1, 83, 127
1, 8160, Note_on_c, 1, 68, 127
1, 8160, Note_on_c, 1, 52, 127
1, 8160, Note_on_c, 1, 64, 127
1, 8189, Note_off_c, 1, 68, 0
1, 8190, Note_on_c, 1, 66, 127
1, 8219, Note_off_c, 1, 83, 0
1, 8219, Note_off_c, 1, 52, 0
1, 8219, Note_off_c, 1, 64, 0
1, 8219, Note_off_c, 1, 66, 0
1, 8220, Note_on_c, 1, 80, 127
1, 8220, Note_on_c, 1, 64, 127
1, 8220, Note_on_c, 1, 52, 127
1, 8250, Note_on_c, 1, 66, 127
1, 8279, Note_off_c, 1, 80, 0
1, 8279, Note_off_c, 1, 64, 0
1, 8279, Note_off_c, 1, 52, 0
1, 8279, Note_off_c, 1, 66, 0
1, 8280, Note_on_c, 1, 76, 127
1, 8280, Note_on_c, 1, 68, 127
1, 8280, Note_on_c, 1, 47, 127
1, 8310, Note_on_c, 1, 69, 127
1, 8339, Note_off_c, 1, 76, 0
1, 8339, Note_off_c, 1, 68, 0
1, 8339, Note_off_c, 1, 47, 0
1, 8339, Note_off_c, 1, 69, 0
1, 8340, Note_on_c, 1, 78, 127
1, 8340, Note_on_c, 1, 66, 127
1, 8340, Note_on_c, 1, 47, 127
1, 8369, Note_off_c, 1, 78, 0
1, 8370, Note_on_c, 1, 75, 127
1, 8370, Note_on_c, 1, 69, 127
1, 8399, Note_off_c, 1, 66, 0
1, 8399, Note_off_c, 1, 47, 0
1, 8399, Note_off_c, 1, 75, 0
1, 8399, Note_off_c, 1, 69, 0
1, 8400, Note_on_c, 1, 76, 127
1, 8400, Note_on_c, 1, 68, 127
1, 8400, Note_on_c, 1, 52, 127
1, 8400, Note_on_c, 1, 64, 127
1, 8459, Note_off_c, 1, 52, 0
1, 8519, Note_off_c, 1, 76, 0
1, 8519, Note_off_c, 1, 68, 0
1, 8519, Note_off_c, 1, 64, 0
1, 8520, Note_on_c, 1, 64, 127
1, 8520, Note_on_c, 1, 52, 127
1, 8550, Note_on_c, 1, 66, 127
1, 8579, Note_off_c, 1, 64, 0
1, 8579, Note_off_c, 1, 52, 0
1, 8579, Note_off_c, 1, 66, 0
1, 8580, Note_on_c, 1, 80, 127
1, 8580, Note_on_c, 1, 64, 127
1, 8580, Note_on_c, 1, 52, 127
1, 8609, Note_off_c, 1, 80, 0
1, 8610, Note_on_c, 1, 81, 127
1, 8610, Note_on_c, 1, 66, 127
1, 8639, Note_off_c, 1, 64, 0
1, 8639, Note_off_c, 1, 52, 0
1, 8639, Note_off_c, 1, 81, 0
1, 8639, Note_off_c, 1, 66, 0
1, 8640, Note_on_c, 1, 83, 127
1, 8640, Note_on_c, 1, 68, 127
1, 8640, Note_on_c, 1, 52, 127
1, 8640, Note_on_c, 1, 64, 127
1, 8699, Note_off_c, 1, 83, 0
1, 8699, Note_off_c, 1, 68, 0
1, 8699, Note_off_c, 1, 52, 0
1, 8699, Note_off_c, 1, 64, 0
1, 8700, Note_on_c, 1, 80, 127
1, 8700, Note_on_c, 1, 71, 127
1, 8700, Note_on_c, 1, 52, 127
1, 8700, Note_on_c, 1, 64, 127
1, 8759, Note_off_c, 1, 80, 0
1, 8759, Note_off_c, 1, 71, 0
1, 8759, Note_off_c, 1, 52, 0
1, 8759, Note_off_c, 1, 64, 0
1, 8760, Note_on_c, 1, 76, 127
1, 8760, Note_on_c, 1, 68, 127
1, 8760, Note_on_c, 1, 47, 127
1, 8819, Note_off_c, 1, 76, 0
1, 8819, Note_off_c, 1, 68, 0
1, 8819, Note_off_c, 1, 47, 0
1, 8820, Note_on_c, 1, 78, 127
1, 8820, Note_on_c, 1, 69, 127
1, 8820, Note_on_c, 1, 47, 127
1, 8820, Note_on_c, 1, 66, 127
1, 8849, Note_off_c, 1, 78, 0
1, 8849, Note_off_c, 1, 69, 0
1, 8850, Note_on_c, 1, 75, 127
1, 8879, Note_off_c, 1, 47, 0
1, 8879, Note_off_c, 1, 66, 0
1, 8879, Note_off_c, 1, 75, 0
1, 8880, Note_on_c, 1, 76, 127
1, 8880, Note_on_c, 1, 68, 127
1, 8880, Note_on_c, 1, 52, 127
1, 8880, Note_on_c, 1, 64, 127
1, 8939, Note_off_c, 1, 76, 0
1, 8939, Note_off_c, 1, 68, 0
1, 8940, Note_on_c, 1, 71, 127
1, 8940, Note_on_c, 1, 69, 127
1, 8969, Note_off_c, 1, 69, 0
1, 8970, Note_on_c, 1, 66, 127
1, 8999, Note_off_c, 1, 52, 0
1, 8999, Note_off_c, 1, 64, 0
1, 8999, Note_off_c, 1, 71, 0
1, 8999, Note_off_c, 1, 66, 0
1, 9000, Note_on_c, 1, 64, 127
1, 9000, Note_on_c, 1, 68, 127
1, 9059, Note_off_c, 1, 64, 0
1, 9059, Note_off_c, 1, 68, 0
1, 9060, Note_on_c, 1, 80, 127
1, 9060, Note_on_c, 1, 71, 127
1, 9060, Note_on_c, 1, 52, 127
1, 9060, Note_on_c, 1, 64, 127
1, 9089, Note_off_c, 1, 80, 0
1, 9090, Note_on_c, 1, 81, 127
1, 9119, Note_off_c, 1, 71, 0
1, 9119, Note_off_c, 1, 52, 0
1, 9119, Note_off_c, 1, 64, 0
1, 9119, Note_off_c, 1, 81, 0
1, 9120, Note_on_c, 1, 83, 127
1, 9120, Note_on_c, 1, 68, 127
1, 9120, Note_on_c, 1, 52, 127
1, 9120, Note_on_c, 1, 64, 127
1, 9179, Note_off_c, 1, 83, 0
1, 9179, Note_off_c, 1, 68, 0
1, 9179, Note_off_c, 1, 52, 0
1, 9179, Note_off_c, 1, 64, 0
1, 9180, Note_on_c, 1, 80, 127
1, 9180, Note_on_c, 1, 71, 127
1, 9180, Note_on_c, 1, 52, 127
1, 9180, Note_on_c, 1, 64, 127
1, 9239, Note_off_c, 1, 80, 0
1, 9239, Note_off_c, 1, 71, 0
1, 9239, Note_off_c, 1, 52, 0
1, 9239, Note_off_c, 1, 64, 0
1, 9240, Note_on_c, 1, 76, 127
1, 9240, Note_on_c, 1, 68, 127
1, 9240, Note_on_c, 1, 47, 127
1, 9299, Note_off_c, 1, 76, 0
1, 9299, Note_off_c, 1, 68, 0
1, 9299, Note_off_c, 1, 47, 0
1, 9300, Note_on_c, 1, 78, 127
1, 9300, Note_on_c, 1, 69, 127
1, 9300, Note_on_c, 1, 47, 127
1, 9300, Note_on_c, 1, 66, 127
1, 9329, Note_off_c, 1, 78, 0
1, 9329, Note_off_c, 1, 69, 0
1, 9330, Note_on_c, 1, 75, 127
1, 9359, Note_off_c, 1, 47, 0
1, 9359, Note_off_c, 1, 66, 0
1, 9359, Note_off_c, 1, 75, 0
1, 9360, Note_on_c, 1, 76, 127
1, 9360, Note_on_c, 1, 68, 127
1, 9360, Note_on_c, 1, 52, 127
1, 9360, Note_on_c, 1, 64, 127
1, 9419, Note_off_c, 1, 52, 0
1, 9420, Note_on_c, 1, 40, 127
1, 9479, Note_off_c, 1, 76, 0
1, 9479, Note_off_c, 1, 40, 0
1, 9539, Note_off_c, 1, 68, 0
1, 9539, Note_off_c, 1, 64, 0
1, 9540, Note_on_c, 1, 71, 127
1, 9569, Note_off_c, 1, 71, 0
1, 9570, Note_on_c, 1, 73, 127
1, 9599, Note_off_c, 1, 73, 0
1, 9600, Note_on_c, 1, 74, 127
1, 9600, Note_on_c, 1, 52, 127
1, 9600, Note_on_c, 1, 68, 127
1, 9600, Note_on_c, 1, 64, 127
1, 9659, Note_off_c, 1, 74, 0
1, 9659, Note_off_c, 1, 52, 0
1, 9659, Note_off_c, 1, 68, 0
1, 9659, Note_off_c, 1, 64, 0
1, 9660, Note_on_c, 1, 71, 127
1, 9660, Note_on_c, 1, 68, 127
1, 9660, Note_on_c, 1, 52, 127
1, 9660, Note_on_c, 1, 64, 127
1, 9689, Note_off_c, 1, 71, 0
1, 9690, Note_on_c, 1, 69, 127
1, 9690, Note_on_c, 1, 66, 127
1, 9719, Note_off_c, 1, 68, 0
1, 9719, Note_off_c, 1, 52, 0
1, 9719, Note_off_c, 1, 64, 0
1, 9719, Note_off_c, 1, 69, 0
1, 9719, Note_off_c, 1, 66, 0
1, 9720, Note_on_c, 1, 71, 127
1, 9720, Note_on_c, 1, 68, 127
1, 9720, Note_on_c, 1, 52, 127
1, 9720, Note_on_c, 1, 64, 127
1, 9779, Note_off_c, 1, 68, 0
1, 9779, Note_off_c, 1, 52, 0
1, 9779, Note_off_c, 1, 64, 0
1, 9780, Note_on_c, 1, 59, 127
1, 9809, Note_off_c, 1, 59, 0
1, 9810, Note_on_c, 1, 61, 127
1, 9839, Note_off_c, 1, 71, 0
1, 9839, Note_off_c, 1, 61, 0
1, 9840, Note_on_c, 1, 83, 127
1, 9840, Note_on_c, 1, 62, 127
1, 9840, Note_on_c, 1, 52, 127
1, 9840, Note_on_c, 1, 64, 127
1, 9840, Note_on_c, 1, 59, 127
1, 9899, Note_off_c, 1, 83, 0
1, 9899, Note_off_c, 1, 62, 0
1, 9899, Note_off_c, 1, 52, 0
1, 9899, Note_off_c, 1, 64, 0
1, 9899, Note_off_c, 1, 59, 0
1, 9900, Note_on_c, 1, 71, 127
1, 9900, Note_on_c, 1, 56, 127
1, 9900, Note_on_c, 1, 52, 127
1, 9900, Note_on_c, 1, 64, 127
1, 9900, Note_on_c, 1, 59, 127
1, 9929, Note_off_c, 1, 71, 0
1, 9929, Note_off_c, 1, 56, 0
1, 9930, Note_on_c, 1, 69, 127
1, 9930, Note_on_c, 1, 54, 127
1, 9959, Note_off_c, 1, 52, 0
1, 9959, Note_off_c, 1, 64, 0
1, 9959, Note_off_c, 1, 59, 0
1, 9959, Note_off_c, 1, 69, 0
1, 9959, Note_off_c, 1, 54, 0
1, 9960, Note_on_c, 1, 71, 127
1, 9960, Note_on_c, 1, 56, 127
1, 9960, Note_on_c, 1, 52, 127
1, 9960, Note_on_c, 1, 64, 127
1, 9960, Note_on_c, 1, 59, 127
1, 10019, Note_off_c, 1, 71, 0
1, 10019, Note_off_c, 1, 56, 0
1, 10019, Note_off_c, 1, 52, 0
1, 10019, Note_off_c, 1, 64, 0
1, 10019, Note_off_c, 1, 59, 0
1, 10020, Note_on_c, 1, 74, 127
1, 10020, Note_on_c, 1, 52, 127
1, 10079, Note_off_c, 1, 74, 0
1, 10079, Note_off_c, 1, 52, 0
1, 10080, Note_on_c, 1, 73, 127
1, 10080, Note_on_c, 1, 64, 127
1, 10080, Note_on_c, 1, 57, 127
1, 10080, Note_on_c, 1, 69, 127
1, 10139, Note_off_c, 1, 73, 0
1, 10139, Note_off_c, 1, 64, 0
1, 10139, Note_off_c, 1, 69, 0
1, 10140, Note_on_c, 1, 71, 127
1, 10140, Note_on_c, 1, 62, 127
1, 10169, Note_off_c, 1, 71, 0
1, 10169, Note_off_c, 1, 62, 0
1, 10170, Note_on_c, 1, 61, 127
1, 10199, Note_off_c, 1, 57, 0
1, 10199, Note_off_c, 1, 61, 0
1, 10200, Note_on_c, 1, 71, 127
1, 10200, Note_on_c, 1, 62, 127
1, 10200, Note_on_c, 1, 52, 127
1, 10200, Note_on_c, 1, 68, 127
1, 10200, Note_on_c, 1, 64, 127
1, 10259, Note_off_c, 1, 71, 0
1, 10259, Note_off_c, 1, 62, 0
1, 10259, Note_off_c, 1, 68, 0
1, 10259, Note_off_c, 1, 64, 0
1, 10260, Note_on_c, 1, 59, 127
1, 10319, Note_off_c, 1, 52, 0
1, 10319, Note_off_c, 1, 59, 0
1, 10320, Note_on_c, 1, 69, 127
1, 10320, Note_on_c, 1, 61, 127
1, 10320, Note_on_c, 1, 45, 127
1, 10320, Note_on_c, 1, 64, 127
1, 10379, Note_off_c, 1, 61, 0
1, 10379, Note_off_c, 1, 45, 0
1, 10379, Note_off_c, 1, 64, 0
1, 10380, Note_on_c, 1, 62, 127
1, 10409, Note_off_c, 1, 62, 0
1, 10410, Note_on_c, 1, 59, 127
1, 10439, Note_off_c, 1, 69, 0
1, 10439, Note_off_c, 1, 59, 0
1, 10440, Note_on_c, 1, 57, 127
1, 10440, Note_on_c, 1, 61, 127
1, 10440, Note_on_c, 1, 45, 127
1, 10440, Note_on_c, 1, 64, 127
1, 10499, Note_off_c, 1, 57, 0
1, 10499, Note_off_c, 1, 61, 0
1, 10499, Note_off_c, 1, 45, 0
1, 10499, Note_off_c, 1, 64, 0
1, 10500, Note_on_c, 1, 68, 127
1, 10529, Note_off_c, 1, 68, 0
1, 10530, Note_on_c, 1, 69, 127
1, 10559, Note_off_c, 1, 69, 0
1, 10560, Note_on_c, 1, 71, 127
1, 10560, Note_on_c, 1, 52, 127
1, 10560, Note_on_c, 1, 68, 127
1, 10560, Note_on_c, 1, 64, 127
1, 10619, Note_off_c, 1, 71, 0
1, 10619, Note_off_c, 1, 52, 0
1, 10619, Note_off_c, 1, 68, 0
1, 10619, Note_off_c, 1, 64, 0
1, 10620, Note_on_c, 1, 71, 127
1, 10620, Note_on_c, 1, 68, 127
1, 10620, Note_on_c, 1, 52, 127
1, 10620, Note_on_c, 1, 64, 127
1, 10649, Note_off_c, 1, 71, 0
1, 10650, Note_on_c, 1, 69, 127
1, 10650, Note_on_c, 1, 66, 127
1, 10679, Note_off_c, 1, 68, 0
1, 10679, Note_off_c, 1, 52, 0
1, 10679, Note_off_c, 1, 64, 0
1, 10679, Note_off_c, 1, 69, 0
1, 10679, Note_off_c, 1, 66, 0
1, 10680, Note_on_c, 1, 71, 127
1, 10680, Note_on_c, 1, 68, 127
1, 10680, Note_on_c, 1, 52, 127
1, 10680, Note_on_c, 1, 64, 127
1, 10739, Note_off_c, 1, 68, 0
1, 10739, Note_off_c, 1, 52, 0
1, 10739, Note_off_c, 1, 64, 0
1, 10770, Note_on_c, 1, 69, 127
1, 10799, Note_off_c, 1, 71, 0
1, 10799, Note_off_c, 1, 69, 0
1, 10800, Note_on_c, 1, 74, 127
1, 10800, Note_on_c, 1, 71, 127
1, 10800, Note_on_c, 1, 52, 127
1, 10800, Note_on_c, 1, 68, 127
1, 10859, Note_off_c, 1, 74, 0
1, 10859, Note_off_c, 1, 71, 0
1, 10859, Note_off_c, 1, 52, 0
1, 10859, Note_off_c, 1, 68, 0
1, 10860, Note_on_c, 1, 71, 127
1, 10860, Note_on_c, 1, 74, 127
1, 10860, Note_on_c, 1, 52, 127
1, 10860, Note_on_c, 1, 68, 127
1, 10889, Note_off_c, 1, 74, 0
1, 10890, Note_on_c, 1, 69, 127
1, 10890, Note_on_c, 1, 73, 127
1, 10919, Note_off_c, 1, 71, 0
1, 10919, Note_off_c, 1, 52, 0
1, 10919, Note_off_c, 1, 68, 0
1, 10919, Note_off_c, 1, 69, 0
1, 10919, Note_off_c, 1, 73, 0
1, 10920, Note_on_c, 1, 71, 127
1, 10920, Note_on_c, 1, 74, 127
1, 10920, Note_on_c, 1, 52, 127
1, 10920, Note_on_c, 1, 68, 127
1, 10979, Note_off_c, 1, 71, 0
1, 10979, Note_off_c, 1, 74, 0
1, 10979, Note_off_c, 1, 52, 0
1, 10979, Note_off_c, 1, 68, 0
1, 10980, Note_on_c, 1, 76, 127
1, 10980, Note_on_c, 1, 68, 127
1, 11039, Note_off_c, 1, 76, 0
1, 11039, Note_off_c, 1, 68, 0
1, 11040, Note_on_c, 1, 73, 127
1, 11040, Note_on_c, 1, 64, 127
1, 11040, Note_on_c, 1, 57, 127
1, 11040, Note_on_c, 1, 69, 127
1, 11099, Note_off_c, 1, 73, 0
1, 11099, Note_off_c, 1, 64, 0
1, 11099, Note_off_c, 1, 69, 0
1, 11100, Note_on_c, 1, 71, 127
1, 11100, Note_on_c, 1, 62, 127
1, 11129, Note_off_c, 1, 71, 0
1, 11129, Note_off_c, 1, 62, 0
1, 11130, Note_on_c, 1, 61, 127
1, 11159, Note_off_c, 1, 57, 0
1, 11159, Note_off_c, 1, 61, 0
1, 11160, Note_on_c, 1, 71, 127
1, 11160, Note_on_c, 1, 62, 127
1, 11160, Note_on_c, 1, 52, 127
1, 11160, Note_on_c, 1, 68, 127
1, 11160, Note_on_c, 1, 64, 127
1, 11219, Note_off_c, 1, 71, 0
1, 11219, Note_off_c, 1, 62, 0
1, 11219, Note_off_c, 1, 68, 0
1, 11219, Note_off_c, 1, 64, 0
1, 11220, Note_on_c, 1, 59, 127
1, 11279, Note_off_c, 1, 52, 0
1, 11279, Note_off_c, 1, 59, 0
1, 11280, Note_on_c, 1, 69, 127
1, 11280, Note_on_c, 1, 60, 127
1, 11280, Note_on_c, 1, 45, 127
1, 11280, Note_on_c, 1, 64, 127
1, 11339, Note_off_c, 1, 69, 0
1, 11339, Note_off_c, 1, 60, 0
1, 11339, Note_off_c, 1, 45, 0
1, 11339, Note_off_c, 1, 64, 0
1, 11340, Note_on_c, 1, 69, 127
1, 11340, Note_on_c, 1, 57, 127
1, 11369, Note_off_c, 1, 69, 0
1, 11369, Note_off_c, 1, 57, 0
1, 11370, Note_on_c, 1, 71, 127
1, 11370, Note_on_c, 1, 59, 127
1, 11399, Note_off_c, 1, 71, 0
1, 11399, Note_off_c, 1, 59, 0
1, 11400, Note_on_c, 1, 72, 127
1, 11400, Note_on_c, 1, 60, 127
1, 11459, Note_off_c, 1, 72, 0
1, 11459, Note_off_c, 1, 60, 0
1, 11460, Note_on_c, 1, 71, 127
1, 11460, Note_on_c, 1, 59, 127
1, 11519, Note_off_c, 1, 71, 0
1, 11519, Note_off_c, 1, 59, 0
1, 11520, Note_on_c, 1, 69, 127
1, 11520, Note_on_c, 1, 57, 127
1, 11579, Note_off_c, 1, 69, 0
1, 11579, Note_off_c, 1, 57, 0
1, 11580, Note_on_c, 1, 67, 127
1, 11580, Note_on_c, 1, 55, 127
1, 11639, Note_off_c, 1, 67, 0
1, 11639, Note_off_c, 1, 55, 0
1, 11640, Note_on_c, 1, 65, 127
1, 11640, Note_on_c, 1, 53, 127
1, 11699, Note_off_c, 1, 65, 0
1, 11699, Note_off_c, 1, 53, 0
1, 11700, Note_on_c, 1, 64, 127
1, 11700, Note_on_c, 1, 52, 127
1, 11759, Note_off_c, 1, 64, 0
1, 11759, Note_off_c, 1, 52, 0
1, 11760, Note_on_c, 1, 64, 127
1, 11760, Note_on_c, 1, 52, 127
1, 11999, Note_off_c, 1, 64, 0
1, 11999, Note_off_c, 1, 52, 0
1, 12000, Note_on_c, 1, 62, 127
1, 12000, Note_on_c, 1, 50, 127
1, 12059, Note_off_c, 1, 62, 0
1, 12059, Note_off_c, 1, 50, 0
1, 12060, Note_on_c, 1, 64, 127
1, 12060, Note_on_c, 1, 52, 127
1, 12119, Note_off_c, 1, 64, 0
1, 12119, Note_off_c, 1, 52, 0
1, 12120, Note_on_c, 1, 65, 127
1, 12120, Note_on_c, 1, 53, 127
1, 12179, Note_off_c, 1, 65, 0
1, 12179, Note_off_c, 1, 53, 0
1, 12180, Note_on_c, 1, 64, 127
1, 12180, Note_on_c, 1, 52, 127
1, 12239, Note_off_c, 1, 64, 0
1, 12239, Note_off_c, 1, 52, 0
1, 12240, Note_on_c, 1, 62, 127
1, 12240, Note_on_c, 1, 50, 127
1, 12299, Note_off_c, 1, 62, 0
1, 12299, Note_off_c, 1, 50, 0
1, 12300, Note_on_c, 1, 60, 127
1, 12300, Note_on_c, 1, 48, 127
1, 12359, Note_off_c, 1, 60, 0
1, 12359, Note_off_c, 1, 48, 0
1, 12360, Note_on_c, 1, 59, 127
1, 12360, Note_on_c, 1, 47, 127
1, 12419, Note_off_c, 1, 59, 0
1, 12419, Note_off_c, 1, 47, 0
1, 12420, Note_on_c, 1, 57, 127
1, 12420, Note_on_c, 1, 45, 127
1, 12479, Note_off_c, 1, 57, 0
1, 12479, Note_off_c, 1, 45, 0
1, 12480, Note_on_c, 1, 57, 127
1, 12480, Note_on_c, 1, 45, 127
1, 12719, Note_off_c, 1, 57, 0
1, 12719, Note_off_c, 1, 45, 0
1, 12720, Note_on_c, 1, 69, 127
1, 12720, Note_on_c, 1, 57, 127
1, 12720, Note_on_c, 1, 45, 127
1, 12720, Note_on_c, 1, 64, 127
1, 12779, Note_off_c, 1, 69, 0
1, 12779, Note_off_c, 1, 57, 0
1, 12779, Note_off_c, 1, 45, 0
1, 12779, Note_off_c, 1, 64, 0
1, 12780, Note_on_c, 1, 71, 127
1, 12780, Note_on_c, 1, 59, 127
1, 12780, Note_on_c, 1, 57, 127
1, 12780, Note_on_c, 1, 69, 127
1, 12809, Note_off_c, 1, 57, 0
1, 12809, Note_off_c, 1, 69, 0
1, 12839, Note_off_c, 1, 71, 0
1, 12839, Note_off_c, 1, 59, 0
1, 12840, Note_on_c, 1, 72, 127
1, 12840, Note_on_c, 1, 60, 127
1, 12899, Note_off_c, 1, 72, 0
1, 12899, Note_off_c, 1, 60, 0
1, 12900, Note_on_c, 1, 71, 127
1, 12900, Note_on_c, 1, 59, 127
1, 12959, Note_off_c, 1, 71, 0
1, 12959, Note_off_c, 1, 59, 0
1, 12960, Note_on_c, 1, 69, 127
1, 12960, Note_on_c, 1, 57, 127
1, 13019, Note_off_c, 1, 69, 0
1, 13019, Note_off_c, 1, 57, 0
1, 13020, Note_on_c, 1, 67, 127
1, 13020, Note_on_c, 1, 55, 127
1, 13079, Note_off_c, 1, 67, 0
1, 13079, Note_off_c, 1, 55, 0
1, 13080, Note_on_c, 1, 65, 127
1, 13080, Note_on_c, 1, 53, 127
1, 13139, Note_off_c, 1, 65, 0
1, 13139, Note_off_c, 1, 53, 0
1, 13140, Note_on_c, 1, 64, 127
1, 13140, Note_on_c, 1, 52, 127
1, 13199, Note_off_c, 1, 64, 0
1, 13199, Note_off_c, 1, 52, 0
1, 13200, Note_on_c, 1, 64, 127
1, 13200, Note_on_c, 1, 52, 127
1, 13439, Note_off_c, 1, 64, 0
1, 13439, Note_off_c, 1, 52, 0
1, 13440, Note_on_c, 1, 62, 127
1, 13440, Note_on_c, 1, 50, 127
1, 13499, Note_off_c, 1, 62, 0
1, 13499, Note_off_c, 1, 50, 0
1, 13500, Note_on_c, 1, 64, 127
1, 13500, Note_on_c, 1, 52, 127
1, 13559, Note_off_c, 1, 64, 0
1, 13559, Note_off_c, 1, 52, 0
1, 13560, Note_on_c, 1, 65, 127
1, 13560, Note_on_c, 1, 53, 127
1, 13619, Note_off_c, 1, 65, 0
1, 13619, Note_off_c, 1, 53, 0
1, 13620, Note_on_c, 1, 64, 127
1, 13620, Note_on_c, 1, 52, 127
1, 13679, Note_off_c, 1, 64, 0
1, 13679, Note_off_c, 1, 52, 0
1, 13680, Note_on_c, 1, 62, 127
1, 13680, Note_on_c, 1, 50, 127
1, 13739, Note_off_c, 1, 62, 0
1, 13739, Note_off_c, 1, 50, 0
1, 13740, Note_on_c, 1, 60, 127
1, 13740, Note_on_c, 1, 48, 127
1, 13799, Note_off_c, 1, 60, 0
1, 13799, Note_off_c, 1, 48, 0
1, 13800, Note_on_c, 1, 59, 127
1, 13800, Note_on_c, 1, 47, 127
1, 13859, Note_off_c, 1, 59, 0
1, 13859, Note_off_c, 1, 47, 0
1, 13860, Note_on_c, 1, 57, 127
1, 13860, Note_on_c, 1, 45, 127
1, 13919, Note_off_c, 1, 57, 0
1, 13919, Note_off_c, 1, 45, 0
1, 13920, Note_on_c, 1, 57, 127
1, 13920, Note_on_c, 1, 45, 127
1, 14159, Note_off_c, 1, 57, 0
1, 14159, Note_off_c, 1, 45, 0
1, 14160, Note_on_c, 1, 65, 127
1, 14160, Note_on_c, 1, 53, 127
1, 14219, Note_off_c, 1, 65, 0
1, 14219, Note_off_c, 1, 53, 0
1, 14220, Note_on_c, 1, 64, 127
1, 14220, Note_on_c, 1, 52, 127
1, 14279, Note_off_c, 1, 64, 0
1, 14279, Note_off_c, 1, 52, 0
1, 14280, Note_on_c, 1, 64, 127
1, 14280, Note_on_c, 1, 52, 127
1, 14519, Note_off_c, 1, 64, 0
1, 14519, Note_off_c, 1, 52, 0
1, 14520, Note_on_c, 1, 58, 127
1, 14520, Note_on_c, 1, 46, 127
1, 14579, Note_off_c, 1, 58, 0
1, 14579, Note_off_c, 1, 46, 0
1, 14580, Note_on_c, 1, 57, 127
1, 14580, Note_on_c, 1, 45, 127
1, 14639, Note_off_c, 1, 57, 0
1, 14639, Note_off_c, 1, 45, 0
1, 14640, Note_on_c, 1, 57, 127
1, 14640, Note_on_c, 1, 45, 127
1, 14879, Note_off_c, 1, 57, 0
1, 14879, Note_off_c, 1, 45, 0
1, 14880, Note_on_c, 1, 62, 127
1, 14880, Note_on_c, 1, 50, 127
1, 14939, Note_off_c, 1, 62, 0
1, 14939, Note_off_c, 1, 50, 0
1, 14940, Note_on_c, 1, 64, 127
1, 14940, Note_on_c, 1, 52, 127
1, 14999, Note_off_c, 1, 64, 0
1, 14999, Note_off_c, 1, 52, 0
1, 15000, Note_on_c, 1, 65, 127
1, 15000, Note_on_c, 1, 53, 127
1, 15059, Note_off_c, 1, 65, 0
1, 15059, Note_off_c, 1, 53, 0
1, 15060, Note_on_c, 1, 64, 127
1, 15060, Note_on_c, 1, 52, 127
1, 15119, Note_off_c, 1, 64, 0
1, 15119, Note_off_c, 1, 52, 0
1, 15120, Note_on_c, 1, 62, 127
1, 15120, Note_on_c, 1, 50, 127
1, 15179, Note_off_c, 1, 62, 0
1, 15179, Note_off_c, 1, 50, 0
1, 15180, Note_on_c, 1, 60, 127
1, 15180, Note_on_c, 1, 48, 127
1, 15239, Note_off_c, 1, 60, 0
1, 15239, Note_off_c, 1, 48, 0
1, 15240, Note_on_c, 1, 59, 127
1, 15240, Note_on_c, 1, 47, 127
1, 15299, Note_off_c, 1, 59, 0
1, 15299, Note_off_c, 1, 47, 0
1, 15300, Note_on_c, 1, 57, 127
1, 15300, Note_on_c, 1, 45, 127
1, 15359, Note_off_c, 1, 57, 0
1, 15359, Note_off_c, 1, 45, 0
1, 15360, Note_on_c, 1, 57, 127
1, 15360, Note_on_c, 1, 45, 127
1, 15599, Note_off_c, 1, 57, 0
1, 15599, Note_off_c, 1, 45, 0
1, 15600, Note_on_c, 1, 65, 127
1, 15600, Note_on_c, 1, 53, 127
1, 15659, Note_off_c, 1, 65, 0
1, 15659, Note_off_c, 1, 53, 0
1, 15660, Note_on_c, 1, 64, 127
1, 15660, Note_on_c, 1, 52, 127
1, 15719, Note_off_c, 1, 64, 0
1, 15719, Note_off_c, 1, 52, 0
1, 15720, Note_on_c, 1, 64, 127
1, 15720, Note_on_c, 1, 52, 127
1, 15959, Note_off_c, 1, 64, 0
1, 15959, Note_off_c, 1, 52, 0
1, 15960, Note_on_c, 1, 58, 127
1, 15960, Note_on_c, 1, 46, 127
1, 16019, Note_off_c, 1, 58, 0
1, 16019, Note_off_c, 1, 46, 0
1, 16020, Note_on_c, 1, 57, 127
1, 16020, Note_on_c, 1, 45, 127
1, 16079, Note_off_c, 1, 57, 0
1, 16079, Note_off_c, 1, 45, 0
1, 16080, Note_on_c, 1, 57, 127
1, 16080, Note_on_c, 1, 45, 127
1, 16319, Note_off_c, 1, 57, 0
1, 16319, Note_off_c, 1, 45, 0
1, 16320, Note_on_c, 1, 62, 127
1, 16320, Note_on_c, 1, 50, 127
1, 16379, Note_off_c, 1, 62, 0
1, 16379, Note_off_c, 1, 50, 0
1, 16380, Note_on_c, 1, 64, 127
1, 16380, Note_on_c, 1, 52, 127
1, 16439, Note_off_c, 1, 64, 0
1, 16439, Note_off_c, 1, 52, 0
1, 16440, Note_on_c, 1, 65, 127
1, 16440, Note_on_c, 1, 53, 127
1, 16499, Note_off_c, 1, 65, 0
1, 16499, Note_off_c, 1, 53, 0
1, 16500, Note_on_c, 1, 64, 127
1, 16500, Note_on_c, 1, 52, 127
1, 16559, Note_off_c, 1, 64, 0
1, 16559, Note_off_c, 1, 52, 0
1, 16560, Note_on_c, 1, 62, 127
1, 16560, Note_on_c, 1, 50, 127
1, 16619, Note_off_c, 1, 62, 0
1, 16619, Note_off_c, 1, 50, 0
1, 16620, Note_on_c, 1, 60, 127
1, 16620, Note_on_c, 1, 48, 127
1, 16679, Note_off_c, 1, 60, 0
1, 16679, Note_off_c, 1, 48, 0
1, 16680, Note_on_c, 1, 59, 127
1, 16680, Note_on_c, 1, 47, 127
1, 16739, Note_off_c, 1, 59, 0
1, 16739, Note_off_c, 1, 47, 0
1, 16740, Note_on_c, 1, 57, 127
1, 16740, Note_on_c, 1, 45, 127
1, 16799, Note_off_c, 1, 57, 0
1, 16799, Note_off_c, 1, 45, 0
1, 16800, Note_on_c, 1, 57, 127
1, 16800, Note_on_c, 1, 45, 127
1, 17039, Note_off_c, 1, 57, 0
1, 17039, Note_off_c, 1, 45, 0
1, 17040, Note_on_c, 1, 69, 127
1, 17040, Note_on_c, 1, 57, 127
1, 17069, Note_off_c, 1, 69, 0
1, 17069, Note_off_c, 1, 57, 0
1, 17070, Note_on_c, 1, 76, 127
1, 17070, Note_on_c, 1, 60, 127
1, 17099, Note_off_c, 1, 76, 0
1, 17099, Note_off_c, 1, 60, 0
1, 17100, Note_on_c, 1, 74, 127
1, 17100, Note_on_c, 1, 59, 127
1, 17129, Note_off_c, 1, 74, 0
1, 17129, Note_off_c, 1, 59, 0
1, 17130, Note_on_c, 1, 76, 127
1, 17130, Note_on_c, 1, 60, 127
1, 17159, Note_off_c, 1, 76, 0
1, 17159, Note_off_c, 1, 60, 0
1, 17160, Note_on_c, 1, 77, 127
1, 17160, Note_on_c, 1, 62, 127
1, 17160, Note_on_c, 1, 74, 127
1, 17160, Note_on_c, 1, 65, 127
1, 17219, Note_off_c, 1, 77, 0
1, 17219, Note_off_c, 1, 62, 0
1, 17219, Note_off_c, 1, 74, 0
1, 17219, Note_off_c, 1, 65, 0
1, 17220, Note_on_c, 1, 76, 127
1, 17220, Note_on_c, 1, 60, 127
1, 17220, Note_on_c, 1, 72, 127
1, 17220, Note_on_c, 1, 64, 127
1, 17279, Note_off_c, 1, 76, 0
1, 17279, Note_off_c, 1, 60, 0
1, 17279, Note_off_c, 1, 72, 0
1, 17279, Note_off_c, 1, 64, 0
1, 17280, Note_on_c, 1, 74, 127
1, 17280, Note_on_c, 1, 59, 127
1, 17280, Note_on_c, 1, 62, 127
1, 17280, Note_on_c, 1, 71, 127
1, 17339, Note_off_c, 1, 74, 0
1, 17339, Note_off_c, 1, 59, 0
1, 17339, Note_off_c, 1, 62, 0
1, 17339, Note_off_c, 1, 71, 0
1, 17340, Note_on_c, 1, 71, 127
1, 17340, Note_on_c, 1, 64, 127
1, 17340, Note_on_c, 1, 56, 127
1, 17369, Note_off_c, 1, 64, 0
1, 17370, Note_on_c, 1, 65, 127
1, 17399, Note_off_c, 1, 71, 0
1, 17399, Note_off_c, 1, 56, 0
1, 17399, Note_off_c, 1, 65, 0
1, 17400, Note_on_c, 1, 72, 127
1, 17400, Note_on_c, 1, 64, 127
1, 17400, Note_on_c, 1, 57, 127
1, 17459, Note_off_c, 1, 64, 0
1, 17459, Note_off_c, 1, 57, 0
1, 17460, Note_on_c, 1, 45, 127
1, 17490, Note_on_c, 1, 67, 127
1, 17519, Note_off_c, 1, 72, 0
1, 17519, Note_off_c, 1, 45, 0
1, 17519, Note_off_c, 1, 67, 0
1, 17520, Note_on_c, 1, 70, 127
1, 17520, Note_on_c, 1, 65, 127
1, 17520, Note_on_c, 1, 50, 127
1, 17579, Note_off_c, 1, 70, 0
1, 17579, Note_off_c, 1, 65, 0
1, 17579, Note_off_c, 1, 50, 0
1, 17580, Note_on_c, 1, 69, 127
1, 17580, Note_on_c, 1, 52, 127
1, 17609, Note_off_c, 1, 52, 0
1, 17610, Note_on_c, 1, 53, 127
1, 17639, Note_off_c, 1, 69, 0
1, 17639, Note_off_c, 1, 53, 0
1, 17640, Note_on_c, 1, 69, 127
1, 17640, Note_on_c, 1, 52, 127
1, 17699, Note_off_c, 1, 69, 0
1, 17699, Note_off_c, 1, 52, 0
1, 17700, Note_on_c, 1, 68, 127
1, 17700, Note_on_c, 1, 40, 127
1, 17759, Note_off_c, 1, 68, 0
1, 17759, Note_off_c, 1, 40, 0
1, 17760, Note_on_c, 1, 69, 127
1, 17760, Note_on_c, 1, 45, 127
1, 17790, Note_on_c, 1, 68, 127
1, 17819, Note_off_c, 1, 69, 0
1, 17819, Note_off_c, 1, 68, 0
1, 17820, Note_on_c, 1, 60, 127
1, 17849, Note_off_c, 1, 60, 0
1, 17850, Note_on_c, 1, 71, 127
1, 17850, Note_on_c, 1, 62, 127
1, 17879, Note_off_c, 1, 45, 0
1, 17879, Note_off_c, 1, 71, 0
1, 17879, Note_off_c, 1, 62, 0
1, 17880, Note_on_c, 1, 69, 127
1, 17880, Note_on_c, 1, 60, 127
1, 17909, Note_off_c, 1, 69, 0
1, 17910, Note_on_c, 1, 71, 127
1, 17939, Note_off_c, 1, 60, 0
1, 17939, Note_off_c, 1, 71, 0
1, 17940, Note_on_c, 1, 72, 127
1, 17940, Note_on_c, 1, 60, 127
1, 17940, Note_on_c, 1, 57, 127
1, 17969, Note_off_c, 1, 72, 0
1, 17969, Note_off_c, 1, 60, 0
1, 17969, Note_off_c, 1, 57, 0
1, 17970, Note_on_c, 1, 74, 127
1, 17970, Note_on_c, 1, 64, 127
1, 17970, Note_on_c, 1, 59, 127
1, 17970, Note_on_c, 1, 62, 127
1, 17999, Note_off_c, 1, 74, 0
1, 17999, Note_off_c, 1, 64, 0
1, 17999, Note_off_c, 1, 59, 0
1, 17999, Note_off_c, 1, 62, 0
1, 18000, Note_on_c, 1, 76, 127
1, 18000, Note_on_c, 1, 57, 127
1, 18000, Note_on_c, 1, 60, 127
1, 18000, Note_on_c, 1, 64, 127
1, 18059, Note_off_c, 1, 76, 0
1, 18059, Note_off_c, 1, 57, 0
1, 18059, Note_off_c, 1, 60, 0
1, 18059, Note_off_c, 1, 64, 0
1, 18060, Note_on_c, 1, 74, 127
1, 18060, Note_on_c, 1, 59, 127
1, 18060, Note_on_c, 1, 62, 127
1, 18089, Note_off_c, 1, 74, 0
1, 18089, Note_off_c, 1, 59, 0
1, 18089, Note_off_c, 1, 62, 0
1, 18090, Note_on_c, 1, 76, 127
1, 18090, Note_on_c, 1, 60, 127
1, 18090, Note_on_c, 1, 64, 127
1, 18119, Note_off_c, 1, 76, 0
1, 18119, Note_off_c, 1, 60, 0
1, 18119, Note_off_c, 1, 64, 0
1, 18120, Note_on_c, 1, 77, 127
1, 18120, Note_on_c, 1, 62, 127
1, 18120, Note_on_c, 1, 65, 127
1, 18120, Note_on_c, 1, 74, 127
1, 18179, Note_off_c, 1, 77, 0
1, 18179, Note_off_c, 1, 62, 0
1, 18179, Note_off_c, 1, 65, 0
1, 18179, Note_off_c, 1, 74, 0
1, 18180, Note_on_c, 1, 76, 127
1, 18180, Note_on_c, 1, 60, 127
1, 18180, Note_on_c, 1, 64, 127
1, 18180, Note_on_c, 1, 72, 127
1, 18239, Note_off_c, 1, 76, 0
1, 18239, Note_off_c, 1, 60, 0
1, 18239, Note_off_c, 1, 64, 0
1, 18239, Note_off_c, 1, 72, 0
1, 18240, Note_on_c, 1, 74, 127
1, 18240, Note_on_c, 1, 59, 127
1, 18240, Note_on_c, 1, 71, 127
1, 18240, Note_on_c, 1, 62, 127
1, 18299, Note_off_c, 1, 74, 0
1, 18299, Note_off_c, 1, 59, 0
1, 18299, Note_off_c, 1, 71, 0
1, 18299, Note_off_c, 1, 62, 0
1, 18300, Note_on_c, 1, 71, 127
1, 18300, Note_on_c, 1, 64, 127
1, 18300, Note_on_c, 1, 56, 127
1, 18329, Note_off_c, 1, 64, 0
1, 18330, Note_on_c, 1, 65, 127
1, 18359, Note_off_c, 1, 71, 0
1, 18359, Note_off_c, 1, 56, 0
1, 18359, Note_off_c, 1, 65, 0
1, 18360, Note_on_c, 1, 72, 127
1, 18360, Note_on_c, 1, 64, 127
1, 18360, Note_on_c, 1, 57, 127
1, 18419, Note_off_c, 1, 64, 0
1, 18419, Note_off_c, 1, 57, 0
1, 18420, Note_on_c, 1, 45, 127
1, 18420, Note_on_c, 1, 69, 127
1, 18449, Note_off_c, 1, 69, 0
1, 18450, Note_on_c, 1, 67, 127
1, 18479, Note_off_c, 1, 72, 0
1, 18479, Note_off_c, 1, 45, 0
1, 18479, Note_off_c, 1, 67, 0
1, 18480, Note_on_c, 1, 70, 127
1, 18480, Note_on_c, 1, 65, 127
1, 18480, Note_on_c, 1, 50, 127
1, 18539, Note_off_c, 1, 70, 0
1, 18539, Note_off_c, 1, 65, 0
1, 18539, Note_off_c, 1, 50, 0
1, 18540, Note_on_c, 1, 69, 127
1, 18540, Note_on_c, 1, 59, 127
1, 18540, Note_on_c, 1, 52, 127
1, 18569, Note_off_c, 1, 52, 0
1, 18570, Note_on_c, 1, 53, 127
1, 18599, Note_off_c, 1, 69, 0
1, 18599, Note_off_c, 1, 53, 0
1, 18659, Note_off_c, 1, 59, 0
1, 18660, Note_on_c, 1, 68, 127
1, 18660, Note_on_c, 1, 61, 127
1, 18660, Note_on_c, 1, 40, 127
1, 18689, Note_off_c, 1, 61, 0
1, 18690, Note_on_c, 1, 62, 127
1, 18719, Note_off_c, 1, 68, 0
1, 18719, Note_off_c, 1, 40, 0
1, 18719, Note_off_c, 1, 62, 0
1, 18720, Note_on_c, 1, 69, 127
1, 18720, Note_on_c, 1, 61, 127
1, 18720, Note_on_c, 1, 45, 127
1, 18779, Note_off_c, 1, 69, 0
1, 18780, Note_on_c, 1, 68, 127
1, 18839, Note_off_c, 1, 61, 0
1, 18839, Note_off_c, 1, 45, 0
1, 18839, Note_off_c, 1, 68, 0
1, 18840, Note_on_c, 1, 69, 127
1, 18840, Note_on_c, 1, 61, 127
1, 18840, Note_on_c, 1, 45, 127
1, 18899, Note_off_c, 1, 69, 0
1, 18900, Note_on_c, 1, 64, 127
1, 18959, Note_off_c, 1, 61, 0
1, 18959, Note_off_c, 1, 45, 0
1, 18959, Note_off_c, 1, 64, 0
1, 18960, Note_on_c, 1, 66, 127
1, 18960, Note_on_c, 1, 62, 127
1, 18960, Note_on_c, 1, 45, 127
1, 19019, Note_off_c, 1, 66, 0
1, 19020, Note_on_c, 1, 68, 127
1, 19079, Note_off_c, 1, 62, 0
1, 19079, Note_off_c, 1, 45, 0
1, 19079, Note_off_c, 1, 68, 0
1, 19080, Note_on_c, 1, 69, 127
1, 19080, Note_on_c, 1, 61, 127
1, 19080, Note_on_c, 1, 45, 127
1, 19139, Note_off_c, 1, 69, 0
1, 19140, Note_on_c, 1, 68, 127
1, 19199, Note_off_c, 1, 61, 0
1, 19199, Note_off_c, 1, 45, 0
1, 19199, Note_off_c, 1, 68, 0
1, 19200, Note_on_c, 1, 69, 127
1, 19200, Note_on_c, 1, 61, 127
1, 19200, Note_on_c, 1, 45, 127
1, 19259, Note_off_c, 1, 69, 0
1, 19260, Note_on_c, 1, 64, 127
1, 19319, Note_off_c, 1, 61, 0
1, 19319, Note_off_c, 1, 45, 0
1, 19319, Note_off_c, 1, 64, 0
1, 19320, Note_on_c, 1, 66, 127
1, 19320, Note_on_c, 1, 59, 127
1, 19320, Note_on_c, 1, 45, 127
1, 19379, Note_off_c, 1, 66, 0
1, 19380, Note_on_c, 1, 68, 127
1, 19439, Note_off_c, 1, 59, 0
1, 19439, Note_off_c, 1, 45, 0
1, 19439, Note_off_c, 1, 68, 0
1, 19440, Note_on_c, 1, 69, 127
1, 19440, Note_on_c, 1, 61, 127
1, 19440, Note_on_c, 1, 45, 127
1, 19499, Note_off_c, 1, 69, 0
1, 19499, Note_off_c, 1, 61, 0
1, 19500, Note_on_c, 1, 68, 127
1, 19500, Note_on_c, 1, 62, 127
1, 19559, Note_off_c, 1, 45, 0
1, 19559, Note_off_c, 1, 68, 0
1, 19559, Note_off_c, 1, 62, 0
1, 19560, Note_on_c, 1, 69, 127
1, 19560, Note_on_c, 1, 61, 127
1, 19560, Note_on_c, 1, 45, 127
1, 19619, Note_off_c, 1, 69, 0
1, 19619, Note_off_c, 1, 61, 0
1, 19620, Note_on_c, 1, 71, 127
1, 19620, Note_on_c, 1, 59, 127
1, 19679, Note_off_c, 1, 45, 0
1, 19679, Note_off_c, 1, 71, 0
1, 19679, Note_off_c, 1, 59, 0
1, 19680, Note_on_c, 1, 73, 127
1, 19680, Note_on_c, 1, 57, 127
1, 19680, Note_on_c, 1, 45, 127
1, 19680, Note_on_c, 1, 61, 127
1, 19739, Note_off_c, 1, 73, 0
1, 19739, Note_off_c, 1, 57, 0
1, 19739, Note_off_c, 1, 61, 0
1, 19740, Note_on_c, 1, 74, 127
1, 19740, Note_on_c, 1, 59, 127
1, 19740, Note_on_c, 1, 62, 127
1, 19799, Note_off_c, 1, 45, 0
1, 19799, Note_off_c, 1, 74, 0
1, 19799, Note_off_c, 1, 59, 0
1, 19799, Note_off_c, 1, 62, 0
1, 19800, Note_on_c, 1, 76, 127
1, 19800, Note_on_c, 1, 61, 127
1, 19800, Note_on_c, 1, 45, 127
1, 19800, Note_on_c, 1, 64, 127
1, 19859, Note_off_c, 1, 61, 0
1, 19860, Note_on_c, 1, 62, 127
1, 19919, Note_off_c, 1, 45, 0
1, 19919, Note_off_c, 1, 62, 0
1, 19979, Note_off_c, 1, 76, 0
1, 19979, Note_off_c, 1, 64, 0
1, 20040, Note_on_c, 1, 66, 127
1, 20040, Note_on_c, 1, 61, 127
1, 20040, Note_on_c, 1, 45, 127
1, 20099, Note_off_c, 1, 66, 0
1, 20099, Note_off_c, 1, 61, 0
1, 20100, Note_on_c, 1, 68, 127
1, 20100, Note_on_c, 1, 59, 127
1, 20159, Note_off_c, 1, 45, 0
1, 20159, Note_off_c, 1, 68, 0
1, 20159, Note_off_c, 1, 59, 0
1, 20160, Note_on_c, 1, 69, 127
1, 20160, Note_on_c, 1, 61, 127
1, 20160, Note_on_c, 1, 45, 127
1, 20219, Note_off_c, 1, 69, 0
1, 20220, Note_on_c, 1, 68, 127
1, 20279, Note_off_c, 1, 61, 0
1, 20279, Note_off_c, 1, 45, 0
1, 20279, Note_off_c, 1, 68, 0
1, 20280, Note_on_c, 1, 69, 127
1, 20280, Note_on_c, 1, 61, 127
1, 20280, Note_on_c, 1, 45, 127
1, 20339, Note_off_c, 1, 69, 0
1, 20340, Note_on_c, 1, 64, 127
1, 20399, Note_off_c, 1, 61, 0
1, 20399, Note_off_c, 1, 45, 0
1, 20399, Note_off_c, 1, 64, 0
1, 20400, Note_on_c, 1, 66, 127
1, 20400, Note_on_c, 1, 62, 127
1, 20400, Note_on_c, 1, 45, 127
1, 20459, Note_off_c, 1, 66, 0
1, 20460, Note_on_c, 1, 68, 127
1, 20519, Note_off_c, 1, 62, 0
1, 20519, Note_off_c, 1, 45, 0
1, 20519, Note_off_c, 1, 68, 0
1, 20520, Note_on_c, 1, 69, 127
1, 20520, Note_on_c, 1, 61, 127
1, 20520, Note_on_c, 1, 45, 127
1, 20579, Note_off_c, 1, 69, 0
1, 20580, Note_on_c, 1, 68, 127
1, 20639, Note_off_c, 1, 61, 0
1, 20639, Note_off_c, 1, 45, 0
1, 20639, Note_off_c, 1, 68, 0
1, 20640, Note_on_c, 1, 69, 127
1, 20640, Note_on_c, 1, 61, 127
1, 20640, Note_on_c, 1, 45, 127
1, 20699, Note_off_c, 1, 69, 0
1, 20700, Note_on_c, 1, 64, 127
1, 20759, Note_off_c, 1, 61, 0
1, 20759, Note_off_c, 1, 45, 0
1, 20759, Note_off_c, 1, 64, 0
1, 20760, Note_on_c, 1, 66, 127
1, 20760, Note_on_c, 1, 59, 127
1, 20760, Note_on_c, 1, 45, 127
1, 20819, Note_off_c, 1, 66, 0
1, 20820, Note_on_c, 1, 68, 127
1, 20879, Note_off_c, 1, 59, 0
1, 20879, Note_off_c, 1, 45, 0
1, 20879, Note_off_c, 1, 68, 0
1, 20880, Note_on_c, 1, 69, 127
1, 20880, Note_on_c, 1, 61, 127
1, 20880, Note_on_c, 1, 45, 127
1, 20939, Note_off_c, 1, 69, 0
1, 20939, Note_off_c, 1, 61, 0
1, 20940, Note_on_c, 1, 68, 127
1, 20940, Note_on_c, 1, 62, 127
1, 20999, Note_off_c, 1, 45, 0
1, 20999, Note_off_c, 1, 68, 0
1, 20999, Note_off_c, 1, 62, 0
1, 21000, Note_on_c, 1, 69, 127
1, 21000, Note_on_c, 1, 61, 127
1, 21000, Note_on_c, 1, 45, 127
1, 21059, Note_off_c, 1, 69, 0
1, 21059, Note_off_c, 1, 61, 0
1, 21060, Note_on_c, 1, 71, 127
1, 21060, Note_on_c, 1, 59, 127
1, 21119, Note_off_c, 1, 45, 0
1, 21119, Note_off_c, 1, 71, 0
1, 21119, Note_off_c, 1, 59, 0
1, 21120, Note_on_c, 1, 73, 127
1, 21120, Note_on_c, 1, 57, 127
1, 21120, Note_on_c, 1, 45, 127
1, 21120, Note_on_c, 1, 61, 127
1, 21179, Note_off_c, 1, 73, 0
1, 21179, Note_off_c, 1, 57, 0
1, 21179, Note_off_c, 1, 61, 0
1, 21180, Note_on_c, 1, 74, 127
1, 21180, Note_on_c, 1, 59, 127
1, 21180, Note_on_c, 1, 62, 127
1, 21239, Note_off_c, 1, 45, 0
1, 21239, Note_off_c, 1, 74, 0
1, 21239, Note_off_c, 1, 59, 0
1, 21239, Note_off_c, 1, 62, 0
1, 21240, Note_on_c, 1, 76, 127
1, 21240, Note_on_c, 1, 61, 127
1, 21240, Note_on_c, 1, 45, 127
1, 21240, Note_on_c, 1, 64, 127
1, 21359, Note_off_c, 1, 76, 0
1, 21359, Note_off_c, 1, 61, 0
1, 21359, Note_off_c, 1, 45, 0
1, 21359, Note_off_c, 1, 64, 0
1, 21480, Note_on_c, 1, 78, 127
1, 21480, Note_on_c, 1, 62, 127
1, 21539, Note_off_c, 1, 78, 0
1, 21539, Note_off_c, 1, 62, 0
1, 21540, Note_on_c, 1, 76, 127
1, 21540, Note_on_c, 1, 61, 127
1, 21599, Note_off_c, 1, 76, 0
1, 21599, Note_off_c, 1, 61, 0
1, 21600, Note_on_c, 1, 76, 127
1, 21600, Note_on_c, 1, 61, 127
1, 21659, Note_off_c, 1, 76, 0
1, 21659, Note_off_c, 1, 61, 0
1, 21660, Note_on_c, 1, 74, 127
1, 21660, Note_on_c, 1, 59, 127
1, 21719, Note_off_c, 1, 74, 0
1, 21719, Note_off_c, 1, 59, 0
1, 21720, Note_on_c, 1, 62, 127
1, 21720, Note_on_c, 1, 59, 127
1, 21779, Note_off_c, 1, 62, 0
1, 21779, Note_off_c, 1, 59, 0
1, 21780, Note_on_c, 1, 61, 127
1, 21780, Note_on_c, 1, 57, 127
1, 21839, Note_off_c, 1, 61, 0
1, 21839, Note_off_c, 1, 57, 0
1, 21840, Note_on_c, 1, 62, 127
1, 21840, Note_on_c, 1, 59, 127
1, 21899, Note_off_c, 1, 62, 0
1, 21899, Note_off_c, 1, 59, 0
1, 21900, Note_on_c, 1, 61, 127
1, 21900, Note_on_c, 1, 57, 127
1, 21959, Note_off_c, 1, 61, 0
1, 21959, Note_off_c, 1, 57, 0
1, 21960, Note_on_c, 1, 62, 127
1, 21960, Note_on_c, 1, 59, 127
1, 22079, Note_off_c, 1, 59, 0
1, 22080, Note_on_c, 1, 52, 127
1, 22199, Note_off_c, 1, 62, 0
1, 22199, Note_off_c, 1, 52, 0
1, 22200, Note_on_c, 1, 76, 127
1, 22200, Note_on_c, 1, 61, 127
1, 22259, Note_off_c, 1, 76, 0
1, 22259, Note_off_c, 1, 61, 0
1, 22260, Note_on_c, 1, 74, 127
1, 22260, Note_on_c, 1, 59, 127
1, 22319, Note_off_c, 1, 74, 0
1, 22319, Note_off_c, 1, 59, 0
1, 22320, Note_on_c, 1, 74, 127
1, 22320, Note_on_c, 1, 59, 127
1, 22379, Note_off_c, 1, 74, 0
1, 22379, Note_off_c, 1, 59, 0
1, 22380, Note_on_c, 1, 73, 127
1, 22380, Note_on_c, 1, 57, 127
1, 22439, Note_off_c, 1, 73, 0
1, 22439, Note_off_c, 1, 57, 0
1, 22440, Note_on_c, 1, 61, 127
1, 22440, Note_on_c, 1, 57, 127
1, 22499, Note_off_c, 1, 61, 0
1, 22499, Note_off_c, 1, 57, 0
1, 22500, Note_on_c, 1, 59, 127
1, 22500, Note_on_c, 1, 56, 127
1, 22559, Note_off_c, 1, 59, 0
1, 22559, Note_off_c, 1, 56, 0
1, 22560, Note_on_c, 1, 61, 127
1, 22560, Note_on_c, 1, 57, 127
1, 22619, Note_off_c, 1, 61, 0
1, 22619, Note_off_c, 1, 57, 0
1, 22620, Note_on_c, 1, 59, 127
1, 22620, Note_on_c, 1, 56, 127
1, 22679, Note_off_c, 1, 59, 0
1, 22679, Note_off_c, 1, 56, 0
1, 22680, Note_on_c, 1, 61, 127
1, 22680, Note_on_c, 1, 57, 127
1, 22799, Note_off_c, 1, 57, 0
1, 22800, Note_on_c, 1, 45, 127
1, 22919, Note_off_c, 1, 61, 0
1, 22919, Note_off_c, 1, 45, 0
1, 22920, Note_on_c, 1, 69, 127
1, 22920, Note_on_c, 1, 61, 127
1, 22979, Note_off_c, 1, 69, 0
1, 22979, Note_off_c, 1, 61, 0
1, 22980, Note_on_c, 1, 73, 127
1, 22980, Note_on_c, 1, 64, 127
1, 23039, Note_off_c, 1, 73, 0
1, 23039, Note_off_c, 1, 64, 0
1, 23040, Note_on_c, 1, 71, 127
1, 23040, Note_on_c, 1, 62, 127
1, 23159, Note_off_c, 1, 71, 0
1, 23159, Note_off_c, 1, 62, 0
1, 23160, Note_on_c, 1, 69, 127
1, 23160, Note_on_c, 1, 61, 127
1, 23279, Note_off_c, 1, 69, 0
1, 23279, Note_off_c, 1, 61, 0
1, 23280, Note_on_c, 1, 61, 127
1, 23280, Note_on_c, 1, 69, 127
1, 23280, Note_on_c, 1, 57, 127
1, 23339, Note_off_c, 1, 61, 0
1, 23339, Note_off_c, 1, 57, 0
1, 23340, Note_on_c, 1, 64, 127
1, 23399, Note_off_c, 1, 69, 0
1, 23399, Note_off_c, 1, 64, 0
1, 23400, Note_on_c, 1, 62, 127
1, 23400, Note_on_c, 1, 68, 127
1, 23400, Note_on_c, 1, 59, 127
1, 23519, Note_off_c, 1, 62, 0
1, 23519, Note_off_c, 1, 68, 0
1, 23519, Note_off_c, 1, 59, 0
1, 23520, Note_on_c, 1, 61, 127
1, 23520, Note_on_c, 1, 69, 127
1, 23520, Note_on_c, 1, 57, 127
1, 23639, Note_off_c, 1, 61, 0
1, 23639, Note_off_c, 1, 69, 0
1, 23639, Note_off_c, 1, 57, 0
1, 23640, Note_on_c, 1, 81, 127
1, 23640, Note_on_c, 1, 69, 127
1, 23640, Note_on_c, 1, 57, 127
1, 23699, Note_off_c, 1, 81, 0
1, 23699, Note_off_c, 1, 69, 0
1, 23699, Note_off_c, 1, 57, 0
1, 23700, Note_on_c, 1, 80, 127
1, 23700, Note_on_c, 1, 68, 127
1, 23700, Note_on_c, 1, 56, 127
1, 23759, Note_off_c, 1, 80, 0
1, 23759, Note_off_c, 1, 68, 0
1, 23759, Note_off_c, 1, 56, 0
1, 23760, Note_on_c, 1, 78, 127
1, 23760, Note_on_c, 1, 66, 127
1, 23760, Note_on_c, 1, 54, 127
1, 23819, Note_off_c, 1, 78, 0
1, 23819, Note_off_c, 1, 66, 0
1, 23819, Note_off_c, 1, 54, 0
1, 23820, Note_on_c, 1, 76, 127
1, 23820, Note_on_c, 1, 64, 127
1, 23820, Note_on_c, 1, 52, 127
1, 23879, Note_off_c, 1, 76, 0
1, 23879, Note_off_c, 1, 64, 0
1, 23879, Note_off_c, 1, 52, 0
1, 23880, Note_on_c, 1, 74, 127
1, 23880, Note_on_c, 1, 62, 127
1, 23880, Note_on_c, 1, 50, 127
1, 23939, Note_off_c, 1, 74, 0
1, 23939, Note_off_c, 1, 62, 0
1, 23939, Note_off_c, 1, 50, 0
1, 23940, Note_on_c, 1, 73, 127
1, 23940, Note_on_c, 1, 61, 127
1, 23940, Note_on_c, 1, 49, 127
1, 23999, Note_off_c, 1, 73, 0
1, 23999, Note_off_c, 1, 61, 0
1, 23999, Note_off_c, 1, 49, 0
1, 24000, Note_on_c, 1, 71, 127
1, 24000, Note_on_c, 1, 59, 127
1, 24000, Note_on_c, 1, 47, 127
1, 24059, Note_off_c, 1, 71, 0
1, 24059, Note_off_c, 1, 59, 0
1, 24059, Note_off_c, 1, 47, 0
1, 24060, Note_on_c, 1, 76, 127
1, 24060, Note_on_c, 1, 64, 127
1, 24060, Note_on_c, 1, 52, 127
1, 24119, Note_off_c, 1, 76, 0
1, 24119, Note_off_c, 1, 64, 0
1, 24119, Note_off_c, 1, 52, 0
1, 24120, Note_on_c, 1, 69, 127
1, 24120, Note_on_c, 1, 57, 127
1, 24120, Note_on_c, 1, 45, 127
1, 24239, Note_off_c, 1, 69, 0
1, 24359, Note_off_c, 1, 57, 0
1, 24359, Note_off_c, 1, 45, 0
1, 24360, Note_on_c, 1, 66, 127
1, 24360, Note_on_c, 1, 62, 127
1, 24419, Note_off_c, 1, 66, 0
1, 24419, Note_off_c, 1, 62, 0
1, 24420, Note_on_c, 1, 64, 127
1, 24420, Note_on_c, 1, 61, 127
1, 24479, Note_off_c, 1, 64, 0
1, 24479, Note_off_c, 1, 61, 0
1, 24480, Note_on_c, 1, 64, 127
1, 24480, Note_on_c, 1, 61, 127
1, 24539, Note_off_c, 1, 64, 0
1, 24539, Note_off_c, 1, 61, 0
1, 24540, Note_on_c, 1, 62, 127
1, 24540, Note_on_c, 1, 59, 127
1, 24599, Note_off_c, 1, 62, 0
1, 24599, Note_off_c, 1, 59, 0
1, 24600, Note_on_c, 1, 74, 127
1, 24600, Note_on_c, 1, 62, 127
1, 24600, Note_on_c, 1, 59, 127
1, 24659, Note_off_c, 1, 74, 0
1, 24659, Note_off_c, 1, 62, 0
1, 24659, Note_off_c, 1, 59, 0
1, 24660, Note_on_c, 1, 73, 127
1, 24660, Note_on_c, 1, 61, 127
1, 24660, Note_on_c, 1, 57, 127
1, 24719, Note_off_c, 1, 73, 0
1, 24719, Note_off_c, 1, 61, 0
1, 24719, Note_off_c, 1, 57, 0
1, 24720, Note_on_c, 1, 74, 127
1, 24720, Note_on_c, 1, 62, 127
1, 24720, Note_on_c, 1, 59, 127
1, 24779, Note_off_c, 1, 74, 0
1, 24779, Note_off_c, 1, 62, 0
1, 24779, Note_off_c, 1, 59, 0
1, 24780, Note_on_c, 1, 73, 127
1, 24780, Note_on_c, 1, 61, 127
1, 24780, Note_on_c, 1, 57, 127
1, 24839, Note_off_c, 1, 73, 0
1, 24839, Note_off_c, 1, 61, 0
1, 24839, Note_off_c, 1, 57, 0
1, 24840, Note_on_c, 1, 74, 127
1, 24840, Note_on_c, 1, 62, 127
1, 24840, Note_on_c, 1, 59, 127
1, 24959, Note_off_c, 1, 59, 0
1, 24960, Note_on_c, 1, 47, 127
1, 25079, Note_off_c, 1, 74, 0
1, 25079, Note_off_c, 1, 62, 0
1, 25079, Note_off_c, 1, 47, 0
1, 25080, Note_on_c, 1, 64, 127
1, 25080, Note_on_c, 1, 61, 127
1, 25139, Note_off_c, 1, 64, 0
1, 25139, Note_off_c, 1, 61, 0
1, 25140, Note_on_c, 1, 62, 127
1, 25140, Note_on_c, 1, 59, 127
1, 25199, Note_off_c, 1, 62, 0
1, 25199, Note_off_c, 1, 59, 0
1, 25200, Note_on_c, 1, 62, 127
1, 25200, Note_on_c, 1, 59, 127
1, 25259, Note_off_c, 1, 62, 0
1, 25259, Note_off_c, 1, 59, 0
1, 25260, Note_on_c, 1, 61, 127
1, 25260, Note_on_c, 1, 57, 127
1, 25319, Note_off_c, 1, 61, 0
1, 25319, Note_off_c, 1, 57, 0
1, 25320, Note_on_c, 1, 73, 127
1, 25320, Note_on_c, 1, 61, 127
1, 25320, Note_on_c, 1, 57, 127
1, 25379, Note_off_c, 1, 73, 0
1, 25379, Note_off_c, 1, 61, 0
1, 25379, Note_off_c, 1, 57, 0
1, 25380, Note_on_c, 1, 71, 127
1, 25380, Note_on_c, 1, 59, 127
1, 25380, Note_on_c, 1, 56, 127
1, 25439, Note_off_c, 1, 71, 0
1, 25439, Note_off_c, 1, 59, 0
1, 25439, Note_off_c, 1, 56, 0
1, 25440, Note_on_c, 1, 73, 127
1, 25440, Note_on_c, 1, 61, 127
1, 25440, Note_on_c, 1, 57, 127
1, 25499, Note_off_c, 1, 73, 0
1, 25499, Note_off_c, 1, 61, 0
1, 25499, Note_off_c, 1, 57, 0
1, 25500, Note_on_c, 1, 71, 127
1, 25500, Note_on_c, 1, 59, 127
1, 25500, Note_on_c, 1, 56, 127
1, 25559, Note_off_c, 1, 71, 0
1, 25559, Note_off_c, 1, 59, 0
1, 25559, Note_off_c, 1, 56, 0
1, 25560, Note_on_c, 1, 73, 127
1, 25560, Note_on_c, 1, 61, 127
1, 25560, Note_on_c, 1, 57, 127
1, 25679, Note_off_c, 1, 57, 0
1, 25680, Note_on_c, 1, 45, 127
1, 25799, Note_off_c, 1, 73, 0
1, 25799, Note_off_c, 1, 61, 0
1, 25799, Note_off_c, 1, 45, 0
1, 25800, Note_on_c, 1, 57, 127
1, 25859, Note_off_c, 1, 57, 0
1, 25860, Note_on_c, 1, 61, 127
1, 25919, Note_off_c, 1, 61, 0
1, 25920, Note_on_c, 1, 59, 127
1, 26039, Note_off_c, 1, 59, 0
1, 26040, Note_on_c, 1, 57, 127
1, 26159, Note_off_c, 1, 57, 0
1, 26160, Note_on_c, 1, 73, 127
1, 26160, Note_on_c, 1, 64, 127
1, 26160, Note_on_c, 1, 57, 127
1, 26160, Note_on_c, 1, 61, 127
1, 26219, Note_off_c, 1, 73, 0
1, 26219, Note_off_c, 1, 57, 0
1, 26219, Note_off_c, 1, 61, 0
1, 26220, Note_on_c, 1, 76, 127
1, 26279, Note_off_c, 1, 64, 0
1, 26279, Note_off_c, 1, 76, 0
1, 26280, Note_on_c, 1, 74, 127
1, 26280, Note_on_c, 1, 68, 127
1, 26280, Note_on_c, 1, 59, 127
1, 26280, Note_on_c, 1, 62, 127
1, 26399, Note_off_c, 1, 74, 0
1, 26399, Note_off_c, 1, 68, 0
1, 26399, Note_off_c, 1, 59, 0
1, 26399, Note_off_c, 1, 62, 0
1, 26400, Note_on_c, 1, 73, 127
1, 26400, Note_on_c, 1, 69, 127
1, 26400, Note_on_c, 1, 57, 127
1, 26400, Note_on_c, 1, 61, 127
1, 26519, Note_off_c, 1, 73, 0
1, 26519, Note_off_c, 1, 69, 0
1, 26519, Note_off_c, 1, 57, 0
1, 26519, Note_off_c, 1, 61, 0
1, 26520, Note_on_c, 1, 81, 127
1, 26520, Note_on_c, 1, 69, 127
1, 26579, Note_off_c, 1, 81, 0
1, 26579, Note_off_c, 1, 69, 0
1, 26580, Note_on_c, 1, 80, 127
1, 26580, Note_on_c, 1, 68, 127
1, 26639, Note_off_c, 1, 80, 0
1, 26639, Note_off_c, 1, 68, 0
1, 26640, Note_on_c, 1, 78, 127
1, 26640, Note_on_c, 1, 66, 127
1, 26699, Note_off_c, 1, 78, 0
1, 26699, Note_off_c, 1, 66, 0
1, 26700, Note_on_c, 1, 76, 127
1, 26700, Note_on_c, 1, 64, 127
1, 26759, Note_off_c, 1, 76, 0
1, 26759, Note_off_c, 1, 64, 0
1, 26760, Note_on_c, 1, 74, 127
1, 26760, Note_on_c, 1, 62, 127
1, 26819, Note_off_c, 1, 74, 0
1, 26819, Note_off_c, 1, 62, 0
1, 26820, Note_on_c, 1, 73, 127
1, 26820, Note_on_c, 1, 61, 127
1, 26879, Note_off_c, 1, 73, 0
1, 26879, Note_off_c, 1, 61, 0
1, 26880, Note_on_c, 1, 71, 127
1, 26880, Note_on_c, 1, 59, 127
1, 26939, Note_off_c, 1, 71, 0
1, 26939, Note_off_c, 1, 59, 0
1, 26940, Note_on_c, 1, 76, 127
1, 26940, Note_on_c, 1, 64, 127
1, 26999, Note_off_c, 1, 76, 0
1, 26999, Note_off_c, 1, 64, 0
1, 27000, Note_on_c, 1, 69, 127
1, 27000, Note_on_c, 1, 57, 127
1, 27059, Note_off_c, 1, 57, 0
1, 27060, Note_on_c, 1, 64, 127
1, 27060, Note_on_c, 1, 45, 127
1, 27119, Note_off_c, 1, 64, 0
1, 27119, Note_off_c, 1, 45, 0
1, 27120, Note_on_c, 1, 49, 127
1, 27179, Note_off_c, 1, 49, 0
1, 27180, Note_on_c, 1, 68, 127
1, 27180, Note_on_c, 1, 52, 127
1, 27239, Note_off_c, 1, 69, 0
1, 27239, Note_off_c, 1, 68, 0
1, 27239, Note_off_c, 1, 52, 0
1, 27240, Note_on_c, 1, 69, 127
1, 27240, Note_on_c, 1, 57, 127
1, 27299, Note_off_c, 1, 57, 0
1, 27300, Note_on_c, 1, 68, 127
1, 27300, Note_on_c, 1, 56, 127
1, 27359, Note_off_c, 1, 68, 0
1, 27359, Note_off_c, 1, 56, 0
1, 27360, Note_on_c, 1, 66, 127
1, 27360, Note_on_c, 1, 54, 127
1, 27419, Note_off_c, 1, 66, 0
1, 27419, Note_off_c, 1, 54, 0
1, 27420, Note_on_c, 1, 64, 127
1, 27420, Note_on_c, 1, 52, 127
1, 27479, Note_off_c, 1, 69, 0
1, 27479, Note_off_c, 1, 64, 0
1, 27479, Note_off_c, 1, 52, 0
1, 27480, Note_on_c, 1, 62, 127
1, 27480, Note_on_c, 1, 57, 127
1, 27480, Note_on_c, 1, 50, 127
1, 27539, Note_off_c, 1, 62, 0
1, 27539, Note_off_c, 1, 50, 0
1, 27540, Note_on_c, 1, 61, 127
1, 27540, Note_on_c, 1, 49, 127
1, 27599, Note_off_c, 1, 57, 0
1, 27599, Note_off_c, 1, 61, 0
1, 27599, Note_off_c, 1, 49, 0
1, 27600, Note_on_c, 1, 59, 127
1, 27600, Note_on_c, 1, 56, 127
1, 27600, Note_on_c, 1, 47, 127
1, 27659, Note_off_c, 1, 59, 0
1, 27659, Note_off_c, 1, 47, 0
1, 27660, Note_on_c, 1, 64, 127
1, 27660, Note_on_c, 1, 52, 127
1, 27719, Note_off_c, 1, 56, 0
1, 27719, Note_off_c, 1, 64, 0
1, 27719, Note_off_c, 1, 52, 0
1, 27720, Note_on_c, 1, 57, 127
1, 27720, Note_on_c, 1, 45, 127
1, 27959, Note_off_c, 1, 57, 0
1, 27959, Note_off_c, 1, 45, 0
1, 28440, Note_on_c, 1, 69, 127
1, 28440, Note_on_c, 1, 61, 127
1, 28440, Note_on_c, 1, 45, 127
1, 28440, Note_on_c, 1, 73, 127
1, 28499, Note_off_c, 1, 69, 0
1, 28499, Note_off_c, 1, 61, 0
1, 28499, Note_off_c, 1, 73, 0
1, 28500, Note_on_c, 1, 71, 127
1, 28500, Note_on_c, 1, 62, 127
1, 28500, Note_on_c, 1, 74, 127
1, 28559, Note_off_c, 1, 45, 0
1, 28559, Note_off_c, 1, 71, 0
1, 28559, Note_off_c, 1, 62, 0
1, 28559, Note_off_c, 1, 74, 0
1, 28560, Note_on_c, 1, 73, 127
1, 28560, Note_on_c, 1, 64, 127
1, 28560, Note_on_c, 1, 57, 127
1, 28560, Note_on_c, 1, 76, 127
1, 28679, Note_off_c, 1, 73, 0
1, 28679, Note_off_c, 1, 64, 0
1, 28679, Note_off_c, 1, 57, 0
1, 28679, Note_off_c, 1, 76, 0
1, 28680, Note_on_c, 1, 73, 127
1, 28680, Note_on_c, 1, 57, 127
1, 28799, Note_off_c, 1, 73, 0
1, 28799, Note_off_c, 1, 57, 0
1, 28800, Note_on_c, 1, 73, 127
1, 28800, Note_on_c, 1, 57, 127
1, 28919, Note_off_c, 1, 73, 0
1, 28919, Note_off_c, 1, 57, 0
1, 28920, Note_on_c, 1, 74, 127
1, 28920, Note_on_c, 1, 66, 127
1, 28920, Note_on_c, 1, 50, 127
1, 28920, Note_on_c, 1, 71, 127
1, 28979, Note_off_c, 1, 74, 0
1, 28979, Note_off_c, 1, 71, 0
1, 28980, Note_on_c, 1, 73, 127
1, 28980, Note_on_c, 1, 69, 127
1, 29039, Note_off_c, 1, 66, 0
1, 29039, Note_off_c, 1, 50, 0
1, 29039, Note_off_c, 1, 73, 0
1, 29039, Note_off_c, 1, 69, 0
1, 29040, Note_on_c, 1, 71, 127
1, 29040, Note_on_c, 1, 68, 127
1, 29040, Note_on_c, 1, 52, 127
1, 29159, Note_off_c, 1, 71, 0
1, 29159, Note_off_c, 1, 68, 0
1, 29159, Note_off_c, 1, 52, 0
1, 29160, Note_on_c, 1, 71, 127
1, 29160, Note_on_c, 1, 52, 127
1, 29279, Note_off_c, 1, 71, 0
1, 29279, Note_off_c, 1, 52, 0
1, 29280, Note_on_c, 1, 71, 127
1, 29280, Note_on_c, 1, 52, 127
1, 29399, Note_off_c, 1, 71, 0
1, 29399, Note_off_c, 1, 52, 0
1, 29400, Note_on_c, 1, 73, 127
1, 29400, Note_on_c, 1, 64, 127
1, 29400, Note_on_c, 1, 57, 127
1, 29400, Note_on_c, 1, 69, 127
1, 29519, Note_off_c, 1, 73, 0
1, 29519, Note_off_c, 1, 64, 0
1, 29519, Note_off_c, 1, 57, 0
1, 29519, Note_off_c, 1, 69, 0
1, 29520, Note_on_c, 1, 74, 127
1, 29520, Note_on_c, 1, 69, 127
1, 29520, Note_on_c, 1, 54, 127
1, 29520, Note_on_c, 1, 78, 127
1, 29639, Note_off_c, 1, 74, 0
1, 29639, Note_off_c, 1, 69, 0
1, 29639, Note_off_c, 1, 54, 0
1, 29639, Note_off_c, 1, 78, 0
1, 29640, Note_on_c, 1, 73, 127
1, 29640, Note_on_c, 1, 69, 127
1, 29640, Note_on_c, 1, 50, 127
1, 29700, Note_on_c, 1, 71, 127
1, 29759, Note_off_c, 1, 73, 0
1, 29759, Note_off_c, 1, 69, 0
1, 29759, Note_off_c, 1, 50, 0
1, 29759, Note_off_c, 1, 71, 0
1, 29760, Note_on_c, 1, 73, 127
1, 29760, Note_on_c, 1, 69, 127
1, 29760, Note_on_c, 1, 52, 127
1, 29760, Note_on_c, 1, 64, 127
1, 29879, Note_off_c, 1, 73, 0
1, 29879, Note_off_c, 1, 69, 0
1, 29879, Note_off_c, 1, 52, 0
1, 29879, Note_off_c, 1, 64, 0
1, 29880, Note_on_c, 1, 71, 127
1, 29880, Note_on_c, 1, 68, 127
1, 29880, Note_on_c, 1, 52, 127
1, 29880, Note_on_c, 1, 40, 127
1, 29880, Note_on_c, 1, 62, 127
1, 29939, Note_off_c, 1, 71, 0
1, 29940, Note_on_c, 1, 69, 127
1, 29999, Note_off_c, 1, 68, 0
1, 29999, Note_off_c, 1, 52, 0
1, 29999, Note_off_c, 1, 40, 0
1, 29999, Note_off_c, 1, 62, 0
1, 29999, Note_off_c, 1, 69, 0
1, 30000, Note_on_c, 1, 69, 127
1, 30000, Note_on_c, 1, 61, 127
1, 30000, Note_on_c, 1, 45, 127
1, 30000, Note_on_c, 1, 64, 127
1, 30119, Note_off_c, 1, 64, 0
1, 30120, Note_on_c, 1, 49, 127
1, 30179, Note_off_c, 1, 49, 0
1, 30180, Note_on_c, 1, 52, 127
1, 30239, Note_off_c, 1, 52, 0
1, 30240, Note_on_c, 1, 57, 127
1, 30359, Note_off_c, 1, 69, 0
1, 30359, Note_off_c, 1, 61, 0
1, 30359, Note_off_c, 1, 45, 0
1, 30359, Note_off_c, 1, 57, 0
1, 30360, Note_on_c, 1, 69, 127
1, 30360, Note_on_c, 1, 61, 127
1, 30360, Note_on_c, 1, 45, 127
1, 30360, Note_on_c, 1, 73, 127
1, 30360, Note_on_c, 1, 76, 127
1, 30390, Note_on_c, 1, 71, 127
1, 30419, Note_off_c, 1, 69, 0
1, 30419, Note_off_c, 1, 61, 0
1, 30419, Note_off_c, 1, 73, 0
1, 30419, Note_off_c, 1, 76, 0
1, 30419, Note_off_c, 1, 71, 0
1, 30420, Note_on_c, 1, 59, 127
1, 30420, Note_on_c, 1, 74, 127
1, 30479, Note_off_c, 1, 45, 0
1, 30479, Note_off_c, 1, 59, 0
1, 30479, Note_off_c, 1, 74, 0
1, 30480, Note_on_c, 1, 76, 127
1, 30480, Note_on_c, 1, 57, 127
1, 30480, Note_on_c, 1, 73, 127
1, 30480, Note_on_c, 1, 69, 127
1, 30540, Note_on_c, 1, 56, 127
1, 30599, Note_off_c, 1, 57, 0
1, 30599, Note_off_c, 1, 73, 0
1, 30599, Note_off_c, 1, 69, 0
1, 30599, Note_off_c, 1, 56, 0
1, 30600, Note_on_c, 1, 61, 127
1, 30600, Note_on_c, 1, 54, 127
1, 30659, Note_off_c, 1, 54, 0
1, 30660, Note_on_c, 1, 52, 127
1, 30660, Note_on_c, 1, 74, 127
1, 30660, Note_on_c, 1, 71, 127
1, 30719, Note_off_c, 1, 61, 0
1, 30719, Note_off_c, 1, 52, 0
1, 30719, Note_off_c, 1, 74, 0
1, 30719, Note_off_c, 1, 71, 0
1, 30720, Note_on_c, 1, 64, 127
1, 30720, Note_on_c, 1, 50, 127
1, 30779, Note_off_c, 1, 50, 0
1, 30780, Note_on_c, 1, 49, 127
1, 30839, Note_off_c, 1, 64, 0
1, 30839, Note_off_c, 1, 49, 0
1, 30840, Note_on_c, 1, 47, 127
1, 30899, Note_off_c, 1, 47, 0
1, 30900, Note_on_c, 1, 45, 127
1, 30959, Note_off_c, 1, 45, 0
1, 30960, Note_on_c, 1, 68, 127
1, 31079, Note_off_c, 1, 68, 0
1, 31080, Note_off_c, 1, 76, 0
1, 31140, Note_on_c, 1, 59, 127
1, 31140, Note_on_c, 1, 66, 127
1, 31199, Note_off_c, 1, 59, 0
1, 31199, Note_off_c, 1, 66, 0
1, 31200, Note_on_c, 1, 64, 127
1, 31200, Note_on_c, 1, 56, 127
1, 31200, Note_on_c, 1, 71, 127
1, 31200, Note_on_c, 1, 52, 127
1, 31200, Note_on_c, 1, 68, 127
1, 31319, Note_off_c, 1, 64, 0
1, 31319, Note_off_c, 1, 56, 0
1, 31319, Note_off_c, 1, 71, 0
1, 31319, Note_off_c, 1, 52, 0
1, 31319, Note_off_c, 1, 68, 0
1, 31320, Note_on_c, 1, 73, 127
1, 31320, Note_on_c, 1, 64, 127
1, 31320, Note_on_c, 1, 57, 127
1, 31320, Note_on_c, 1, 69, 127
1, 31439, Note_off_c, 1, 73, 0
1, 31439, Note_off_c, 1, 64, 0
1, 31439, Note_off_c, 1, 57, 0
1, 31439, Note_off_c, 1, 69, 0
1, 31440, Note_on_c, 1, 74, 127
1, 31440, Note_on_c, 1, 64, 127
1, 31440, Note_on_c, 1, 56, 127
1, 31440, Note_on_c, 1, 71, 127
1, 31499, Note_off_c, 1, 71, 0
1, 31500, Note_on_c, 1, 52, 127
1, 31500, Note_on_c, 1, 68, 127
1, 31559, Note_off_c, 1, 74, 0
1, 31559, Note_off_c, 1, 64, 0
1, 31559, Note_off_c, 1, 56, 0
1, 31559, Note_off_c, 1, 52, 0
1, 31559, Note_off_c, 1, 68, 0
1, 31560, Note_on_c, 1, 73, 127
1, 31560, Note_on_c, 1, 64, 127
1, 31560, Note_on_c, 1, 57, 127
1, 31560, Note_on_c, 1, 69, 127
1, 31619, Note_off_c, 1, 73, 0
1, 31619, Note_off_c, 1, 64, 0
1, 31619, Note_off_c, 1, 69, 0
1, 31620, Note_on_c, 1, 71, 127
1, 31620, Note_on_c, 1, 66, 127
1, 31620, Note_on_c, 1, 50, 127
1, 31620, Note_on_c, 1, 68, 127
1, 31679, Note_off_c, 1, 57, 0
1, 31679, Note_off_c, 1, 71, 0
1, 31679, Note_off_c, 1, 66, 0
1, 31679, Note_off_c, 1, 50, 0
1, 31679, Note_off_c, 1, 68, 0
1, 31680, Note_on_c, 1, 73, 127
1, 31680, Note_on_c, 1, 64, 127
1, 31680, Note_on_c, 1, 52, 127
1, 31680, Note_on_c, 1, 69, 127
1, 31799, Note_off_c, 1, 73, 0
1, 31799, Note_off_c, 1, 64, 0
1, 31799, Note_off_c, 1, 52, 0
1, 31799, Note_off_c, 1, 69, 0
1, 31800, Note_on_c, 1, 71, 127
1, 31800, Note_on_c, 1, 62, 127
1, 31800, Note_on_c, 1, 52, 127
1, 31800, Note_on_c, 1, 40, 127
1, 31800, Note_on_c, 1, 68, 127
1, 31860, Note_on_c, 1, 69, 127
1, 31919, Note_off_c, 1, 71, 0
1, 31919, Note_off_c, 1, 62, 0
1, 31919, Note_off_c, 1, 52, 0
1, 31919, Note_off_c, 1, 40, 0
1, 31919, Note_off_c, 1, 68, 0
1, 31919, Note_off_c, 1, 69, 0
1, 31920, Note_on_c, 1, 69, 127
1, 31920, Note_on_c, 1, 61, 127
1, 31920, Note_on_c, 1, 57, 127
1, 31920, Note_on_c, 1, 45, 127
1, 31920, Note_on_c, 1, 64, 127
1, 32039, Note_off_c, 1, 45, 0
1, 32040, Note_on_c, 1, 49, 127
1, 32099, Note_off_c, 1, 49, 0
1, 32100, Note_on_c, 1, 52, 127
1, 32159, Note_off_c, 1, 52, 0
1, 32220, Note_on_c, 1, 56, 127
1, 32279, Note_off_c, 1, 69, 0
1, 32279, Note_off_c, 1, 61, 0
1, 32279, Note_off_c, 1, 57, 0
1, 32279, Note_off_c, 1, 64, 0
1, 32279, Note_off_c, 1, 56, 0
1, 32280, Note_on_c, 1, 76, 127
1, 32280, Note_on_c, 1, 61, 127
1, 32280, Note_on_c, 1, 57, 127
1, 32280, Note_on_c, 1, 73, 127
1, 32339, Note_off_c, 1, 61, 0
1, 32339, Note_off_c, 1, 57, 0
1, 32339, Note_off_c, 1, 73, 0
1, 32340, Note_on_c, 1, 62, 127
1, 32340, Note_on_c, 1, 59, 127
1, 32340, Note_on_c, 1, 74, 127
1, 32399, Note_off_c, 1, 76, 0
1, 32399, Note_off_c, 1, 62, 0
1, 32399, Note_off_c, 1, 59, 0
1, 32399, Note_off_c, 1, 74, 0
1, 32400, Note_on_c, 1, 81, 127
1, 32400, Note_on_c, 1, 64, 127
1, 32400, Note_on_c, 1, 61, 127
1, 32400, Note_on_c, 1, 73, 127
1, 32519, Note_off_c, 1, 81, 0
1, 32519, Note_off_c, 1, 64, 0
1, 32519, Note_off_c, 1, 61, 0
1, 32519, Note_off_c, 1, 73, 0
1, 32520, Note_on_c, 1, 57, 127
1, 32520, Note_on_c, 1, 76, 127
1, 32520, Note_on_c, 1, 61, 127
1, 32520, Note_on_c, 1, 69, 127
1, 32579, Note_off_c, 1, 61, 0
1, 32579, Note_off_c, 1, 69, 0
1, 32580, Note_on_c, 1, 59, 127
1, 32580, Note_on_c, 1, 68, 127
1, 32639, Note_off_c, 1, 57, 0
1, 32639, Note_off_c, 1, 76, 0
1, 32639, Note_off_c, 1, 59, 0
1, 32639, Note_off_c, 1, 68, 0
1, 32640, Note_on_c, 1, 57, 127
1, 32640, Note_on_c, 1, 76, 127
1, 32640, Note_on_c, 1, 61, 127
1, 32640, Note_on_c, 1, 69, 127
1, 32699, Note_off_c, 1, 69, 0
1, 32759, Note_off_c, 1, 57, 0
1, 32759, Note_off_c, 1, 76, 0
1, 32759, Note_off_c, 1, 61, 0
1, 32760, Note_on_c, 1, 57, 127
1, 32760, Note_on_c, 1, 76, 127
1, 32760, Note_on_c, 1, 73, 127
1, 32819, Note_off_c, 1, 73, 0
1, 32879, Note_off_c, 1, 57, 0
1, 32879, Note_off_c, 1, 76, 0
1, 32880, Note_on_c, 1, 81, 127
1, 32880, Note_on_c, 1, 66, 127
1, 32880, Note_on_c, 1, 78, 127
1, 32880, Note_on_c, 1, 62, 127
1, 32880, Note_on_c, 1, 74, 127
1, 32999, Note_off_c, 1, 81, 0
1, 32999, Note_off_c, 1, 66, 0
1, 32999, Note_off_c, 1, 78, 0
1, 32999, Note_off_c, 1, 62, 0
1, 32999, Note_off_c, 1, 74, 0
1, 33000, Note_on_c, 1, 57, 127
1, 33000, Note_on_c, 1, 76, 127
1, 33000, Note_on_c, 1, 61, 127
1, 33000, Note_on_c, 1, 69, 127
1, 33059, Note_off_c, 1, 61, 0
1, 33059, Note_off_c, 1, 69, 0
1, 33060, Note_on_c, 1, 59, 127
1, 33060, Note_on_c, 1, 68, 127
1, 33119, Note_off_c, 1, 57, 0
1, 33119, Note_off_c, 1, 76, 0
1, 33119, Note_off_c, 1, 59, 0
1, 33119, Note_off_c, 1, 68, 0
1, 33120, Note_on_c, 1, 57, 127
1, 33120, Note_on_c, 1, 76, 127
1, 33120, Note_on_c, 1, 61, 127
1, 33120, Note_on_c, 1, 69, 127
1, 33179, Note_off_c, 1, 69, 0
1, 33239, Note_off_c, 1, 57, 0
1, 33239, Note_off_c, 1, 76, 0
1, 33239, Note_off_c, 1, 61, 0
1, 33240, Note_on_c, 1, 57, 127
1, 33240, Note_on_c, 1, 76, 127
1, 33240, Note_on_c, 1, 61, 127
1, 33240, Note_on_c, 1, 73, 127
1, 33299, Note_off_c, 1, 57, 0
1, 33299, Note_off_c, 1, 61, 0
1, 33299, Note_off_c, 1, 73, 0
1, 33300, Note_on_c, 1, 59, 127
1, 33300, Note_on_c, 1, 74, 127
1, 33359, Note_off_c, 1, 76, 0
1, 33359, Note_off_c, 1, 59, 0
1, 33359, Note_off_c, 1, 74, 0
1, 33360, Note_on_c, 1, 81, 127
1, 33360, Note_on_c, 1, 64, 127
1, 33360, Note_on_c, 1, 76, 127
1, 33360, Note_on_c, 1, 61, 127
1, 33479, Note_off_c, 1, 81, 0
1, 33479, Note_off_c, 1, 64, 0
1, 33479, Note_off_c, 1, 76, 0
1, 33479, Note_off_c, 1, 61, 0
1, 33480, Note_on_c, 1, 69, 127
1, 33480, Note_on_c, 1, 61, 127
1, 33480, Note_on_c, 1, 74, 127
1, 33480, Note_on_c, 1, 57, 127
1, 33480, Note_on_c, 1, 73, 127
1, 33539, Note_off_c, 1, 74, 0
1, 33540, Note_on_c, 1, 76, 127
1, 33599, Note_off_c, 1, 69, 0
1, 33599, Note_off_c, 1, 61, 0
1, 33599, Note_off_c, 1, 57, 0
1, 33599, Note_off_c, 1, 73, 0
1, 33599, Note_off_c, 1, 76, 0
1, 33600, Note_on_c, 1, 78, 127
1, 33600, Note_on_c, 1, 59, 127
1, 33600, Note_on_c, 1, 62, 127
1, 33600, Note_on_c, 1, 56, 127
1, 33600, Note_on_c, 1, 71, 127
1, 33600, Note_on_c, 1, 68, 127
1, 33659, Note_off_c, 1, 78, 0
1, 33659, Note_off_c, 1, 62, 0
1, 33660, Note_on_c, 1, 76, 127
1, 33660, Note_on_c, 1, 61, 127
1, 33719, Note_off_c, 1, 59, 0
1, 33719, Note_off_c, 1, 56, 0
1, 33719, Note_off_c, 1, 71, 0
1, 33719, Note_off_c, 1, 68, 0
1, 33719, Note_off_c, 1, 76, 0
1, 33719, Note_off_c, 1, 61, 0
1, 33720, Note_on_c, 1, 74, 127
1, 33720, Note_on_c, 1, 64, 127
1, 33720, Note_on_c, 1, 59, 127
1, 33720, Note_on_c, 1, 57, 127
1, 33720, Note_on_c, 1, 69, 127
1, 33720, Note_on_c, 1, 73, 127
1, 33779, Note_off_c, 1, 74, 0
1, 33779, Note_off_c, 1, 59, 0
1, 33839, Note_off_c, 1, 64, 0
1, 33839, Note_off_c, 1, 57, 0
1, 33839, Note_off_c, 1, 69, 0
1, 33839, Note_off_c, 1, 73, 0
1, 33840, Note_on_c, 1, 71, 127
1, 33840, Note_on_c, 1, 68, 127
1, 33840, Note_on_c, 1, 52, 127
1, 33840, Note_on_c, 1, 64, 127
1, 33959, Note_off_c, 1, 68, 0
1, 33959, Note_off_c, 1, 64, 0
1, 33960, Note_on_c, 1, 83, 127
1, 33960, Note_on_c, 1, 56, 127
1, 33989, Note_off_c, 1, 83, 0
1, 33990, Note_on_c, 1, 81, 127
1, 34019, Note_off_c, 1, 81, 0
1, 34020, Note_off_c, 1, 56, 0
1, 34020, Note_on_c, 1, 80, 127
1, 34020, Note_on_c, 1, 59, 127
1, 34020, Note_on_c, 1, 69, 127
1, 34049, Note_off_c, 1, 80, 0
1, 34050, Note_on_c, 1, 78, 127
1, 34079, Note_off_c, 1, 78, 0
1, 34080, Note_off_c, 1, 59, 0
1, 34080, Note_off_c, 1, 69, 0
1, 34080, Note_on_c, 1, 76, 127
1, 34140, Note_on_c, 1, 62, 127
1, 34140, Note_on_c, 1, 66, 127
1, 34199, Note_off_c, 1, 71, 0
1, 34199, Note_off_c, 1, 52, 0
1, 34199, Note_off_c, 1, 76, 0
1, 34200, Note_off_c, 1, 62, 0
1, 34200, Note_off_c, 1, 66, 0
1, 34200, Note_on_c, 1, 57, 127
1, 34200, Note_on_c, 1, 61, 127
1, 34259, Note_off_c, 1, 57, 0
1, 34260, Note_off_c, 1, 61, 0
1, 34320, Note_on_c, 1, 73, 127
1, 34380, Note_on_c, 1, 74, 127
1, 34439, Note_off_c, 1, 73, 0
1, 34439, Note_off_c, 1, 74, 0
1, 34560, Note_on_c, 1, 49, 127
1, 34679, Note_off_c, 1, 49, 0
1, 34680, Note_on_c, 1, 45, 127
1, 34740, Note_on_c, 1, 54, 127
1, 34799, Note_off_c, 1, 45, 0
1, 34799, Note_off_c, 1, 54, 0
1, 35040, Note_on_c, 1, 71, 127
1, 35040, Note_on_c, 1, 64, 127
1, 35040, Note_on_c, 1, 52, 127
1, 35040, Note_on_c, 1, 56, 127
1, 35040, Note_on_c, 1, 68, 127
1, 35100, Note_on_c, 1, 74, 127
1, 35159, Note_off_c, 1, 71, 0
1, 35159, Note_off_c, 1, 64, 0
1, 35159, Note_off_c, 1, 52, 0
1, 35159, Note_off_c, 1, 56, 0
1, 35159, Note_off_c, 1, 68, 0
1, 35159, Note_off_c, 1, 74, 0
1, 35160, Note_on_c, 1, 73, 127
1, 35160, Note_on_c, 1, 64, 127
1, 35160, Note_on_c, 1, 57, 127
1, 35160, Note_on_c, 1, 69, 127
1, 35220, Note_on_c, 1, 76, 127
1, 35279, Note_off_c, 1, 73, 0
1, 35279, Note_off_c, 1, 64, 0
1, 35279, Note_off_c, 1, 57, 0
1, 35279, Note_off_c, 1, 69, 0
1, 35279, Note_off_c, 1, 76, 0
1, 35280, Note_on_c, 1, 74, 127
1, 35280, Note_on_c, 1, 69, 127
1, 35280, Note_on_c, 1, 54, 127
1, 35399, Note_off_c, 1, 74, 0
1, 35399, Note_off_c, 1, 69, 0
1, 35399, Note_off_c, 1, 54, 0
1, 35400, Note_on_c, 1, 73, 127
1, 35400, Note_on_c, 1, 69, 127
1, 35400, Note_on_c, 1, 50, 127
1, 35459, Note_off_c, 1, 73, 0
1, 35460, Note_on_c, 1, 71, 127
1, 35460, Note_on_c, 1, 68, 127
1, 35519, Note_off_c, 1, 69, 0
1, 35519, Note_off_c, 1, 50, 0
1, 35519, Note_off_c, 1, 71, 0
1, 35519, Note_off_c, 1, 68, 0
1, 35520, Note_on_c, 1, 73, 127
1, 35520, Note_on_c, 1, 69, 127
1, 35520, Note_on_c, 1, 52, 127
1, 35639, Note_off_c, 1, 73, 0
1, 35639, Note_off_c, 1, 69, 0
1, 35639, Note_off_c, 1, 52, 0
1, 35640, Note_on_c, 1, 71, 127
1, 35640, Note_on_c, 1, 68, 127
1, 35640, Note_on_c, 1, 52, 127
1, 35640, Note_on_c, 1, 40, 127
1, 35640, Note_on_c, 1, 64, 127
1, 35700, Note_on_c, 1, 69, 127
1, 35759, Note_off_c, 1, 71, 0
1, 35759, Note_off_c, 1, 68, 0
1, 35759, Note_off_c, 1, 52, 0
1, 35759, Note_off_c, 1, 40, 0
1, 35759, Note_off_c, 1, 64, 0
1, 35759, Note_off_c, 1, 69, 0
1, 35760, Note_on_c, 1, 69, 127
1, 35760, Note_on_c, 1, 61, 127
1, 35760, Note_on_c, 1, 45, 127
1, 35760, Note_on_c, 1, 64, 127
1, 35760, Note_on_c, 1, 73, 127
1, 35880, Note_on_c, 1, 49, 127
1, 35910, Note_on_c, 1, 62, 127
1, 35939, Note_off_c, 1, 49, 0
1, 35939, Note_off_c, 1, 62, 0
1, 35940, Note_on_c, 1, 52, 127
1, 35970, Note_on_c, 1, 59, 127
1, 35999, Note_off_c, 1, 52, 0
1, 35999, Note_off_c, 1, 59, 0
1, 36000, Note_on_c, 1, 57, 127
1, 36060, Note_on_c, 1, 56, 127
1, 36119, Note_off_c, 1, 69, 0
1, 36119, Note_off_c, 1, 61, 0
1, 36119, Note_off_c, 1, 45, 0
1, 36119, Note_off_c, 1, 64, 0
1, 36119, Note_off_c, 1, 73, 0
1, 36119, Note_off_c, 1, 57, 0
1, 36119, Note_off_c, 1, 56, 0
1, 36120, Note_on_c, 1, 76, 127
1, 36120, Note_on_c, 1, 61, 127
1, 36120, Note_on_c, 1, 57, 127
1, 36120, Note_on_c, 1, 73, 127
1, 36120, Note_on_c, 1, 69, 127
1, 36179, Note_off_c, 1, 61, 0
1, 36179, Note_off_c, 1, 57, 0
1, 36179, Note_off_c, 1, 73, 0
1, 36179, Note_off_c, 1, 69, 0
1, 36180, Note_on_c, 1, 62, 127
1, 36180, Note_on_c, 1, 59, 127
1, 36180, Note_on_c, 1, 74, 127
1, 36180, Note_on_c, 1, 71, 127
1, 36239, Note_off_c, 1, 76, 0
1, 36239, Note_off_c, 1, 62, 0
1, 36239, Note_off_c, 1, 59, 0
1, 36239, Note_off_c, 1, 74, 0
1, 36239, Note_off_c, 1, 71, 0
1, 36240, Note_on_c, 1, 81, 127
1, 36240, Note_on_c, 1, 64, 127
1, 36240, Note_on_c, 1, 61, 127
1, 36240, Note_on_c, 1, 76, 127
1, 36240, Note_on_c, 1, 73, 127
1, 36299, Note_off_c, 1, 61, 0
1, 36300, Note_on_c, 1, 59, 127
1, 36359, Note_off_c, 1, 81, 0
1, 36359, Note_off_c, 1, 64, 0
1, 36359, Note_off_c, 1, 76, 0
1, 36359, Note_off_c, 1, 73, 0
1, 36359, Note_off_c, 1, 59, 0
1, 36360, Note_on_c, 1, 76, 127
1, 36360, Note_on_c, 1, 69, 127
1, 36360, Note_on_c, 1, 61, 127
1, 36360, Note_on_c, 1, 64, 127
1, 36419, Note_off_c, 1, 69, 0
1, 36419, Note_off_c, 1, 61, 0
1, 36420, Note_on_c, 1, 68, 127
1, 36420, Note_on_c, 1, 59, 127
1, 36479, Note_off_c, 1, 76, 0
1, 36479, Note_off_c, 1, 64, 0
1, 36479, Note_off_c, 1, 68, 0
1, 36479, Note_off_c, 1, 59, 0
1, 36480, Note_on_c, 1, 76, 127
1, 36480, Note_on_c, 1, 69, 127
1, 36480, Note_on_c, 1, 61, 127
1, 36480, Note_on_c, 1, 64, 127
1, 36539, Note_off_c, 1, 61, 0
1, 36540, Note_on_c, 1, 57, 127
1, 36599, Note_off_c, 1, 76, 0
1, 36599, Note_off_c, 1, 69, 0
1, 36599, Note_off_c, 1, 64, 0
1, 36599, Note_off_c, 1, 57, 0
1, 36600, Note_on_c, 1, 74, 127
1, 36600, Note_on_c, 1, 69, 127
1, 36600, Note_on_c, 1, 59, 127
1, 36600, Note_on_c, 1, 71, 127
1, 36659, Note_off_c, 1, 74, 0
1, 36659, Note_off_c, 1, 59, 0
1, 36659, Note_off_c, 1, 71, 0
1, 36660, Note_on_c, 1, 76, 127
1, 36660, Note_on_c, 1, 61, 127
1, 36660, Note_on_c, 1, 73, 127
1, 36719, Note_off_c, 1, 69, 0
1, 36719, Note_off_c, 1, 76, 0
1, 36719, Note_off_c, 1, 61, 0
1, 36719, Note_off_c, 1, 73, 0
1, 36720, Note_on_c, 1, 78, 127
1, 36720, Note_on_c, 1, 62, 127
1, 36720, Note_on_c, 1, 74, 127
1, 36839, Note_off_c, 1, 78, 0
1, 36839, Note_off_c, 1, 62, 0
1, 36839, Note_off_c, 1, 74, 0
1, 36840, Note_on_c, 1, 76, 127
1, 36840, Note_on_c, 1, 61, 127
1, 36840, Note_on_c, 1, 57, 127
1, 36840, Note_on_c, 1, 64, 127
1, 36899, Note_off_c, 1, 61, 0
1, 36899, Note_off_c, 1, 57, 0
1, 36900, Note_on_c, 1, 59, 127
1, 36900, Note_on_c, 1, 56, 127
1, 36959, Note_off_c, 1, 76, 0
1, 36959, Note_off_c, 1, 64, 0
1, 36959, Note_off_c, 1, 59, 0
1, 36959, Note_off_c, 1, 56, 0
1, 36960, Note_on_c, 1, 76, 127
1, 36960, Note_on_c, 1, 61, 127
1, 36960, Note_on_c, 1, 57, 127
1, 36960, Note_on_c, 1, 64, 127
1, 37019, Note_off_c, 1, 61, 0
1, 37019, Note_off_c, 1, 57, 0
1, 37020, Note_on_c, 1, 59, 127
1, 37020, Note_on_c, 1, 56, 127
1, 37079, Note_off_c, 1, 76, 0
1, 37079, Note_off_c, 1, 64, 0
1, 37079, Note_off_c, 1, 59, 0
1, 37079, Note_off_c, 1, 56, 0
1, 37080, Note_on_c, 1, 73, 127
1, 37080, Note_on_c, 1, 57, 127
1, 37080, Note_on_c, 1, 69, 127
1, 37139, Note_off_c, 1, 73, 0
1, 37139, Note_off_c, 1, 69, 0
1, 37140, Note_on_c, 1, 74, 127
1, 37140, Note_on_c, 1, 59, 127
1, 37140, Note_on_c, 1, 71, 127
1, 37199, Note_off_c, 1, 57, 0
1, 37199, Note_off_c, 1, 74, 0
1, 37199, Note_off_c, 1, 59, 0
1, 37199, Note_off_c, 1, 71, 0
1, 37200, Note_on_c, 1, 76, 127
1, 37200, Note_on_c, 1, 69, 127
1, 37200, Note_on_c, 1, 61, 127
1, 37200, Note_on_c, 1, 73, 127
1, 37259, Note_off_c, 1, 61, 0
1, 37260, Note_on_c, 1, 57, 127
1, 37319, Note_off_c, 1, 76, 0
1, 37319, Note_off_c, 1, 69, 0
1, 37319, Note_off_c, 1, 73, 0
1, 37319, Note_off_c, 1, 57, 0
1, 37320, Note_on_c, 1, 74, 127
1, 37320, Note_on_c, 1, 69, 127
1, 37320, Note_on_c, 1, 59, 127
1, 37379, Note_off_c, 1, 74, 0
1, 37379, Note_off_c, 1, 59, 0
1, 37380, Note_on_c, 1, 76, 127
1, 37380, Note_on_c, 1, 61, 127
1, 37439, Note_off_c, 1, 69, 0
1, 37439, Note_off_c, 1, 76, 0
1, 37439, Note_off_c, 1, 61, 0
1, 37440, Note_on_c, 1, 78, 127
1, 37440, Note_on_c, 1, 69, 127
1, 37440, Note_on_c, 1, 62, 127
1, 37499, Note_off_c, 1, 78, 0
1, 37499, Note_off_c, 1, 62, 0
1, 37500, Note_on_c, 1, 76, 127
1, 37500, Note_on_c, 1, 61, 127
1, 37559, Note_off_c, 1, 69, 0
1, 37559, Note_off_c, 1, 76, 0
1, 37559, Note_off_c, 1, 61, 0
1, 37560, Note_on_c, 1, 74, 127
1, 37560, Note_on_c, 1, 69, 127
1, 37560, Note_on_c, 1, 59, 127
1, 37560, Note_on_c, 1, 71, 127
1, 37619, Note_off_c, 1, 74, 0
1, 37619, Note_off_c, 1, 59, 0
1, 37619, Note_off_c, 1, 71, 0
1, 37620, Note_on_c, 1, 73, 127
1, 37620, Note_on_c, 1, 57, 127
1, 37679, Note_off_c, 1, 69, 0
1, 37679, Note_off_c, 1, 73, 0
1, 37679, Note_off_c, 1, 57, 0
1, 37680, Note_on_c, 1, 71, 127
1, 37680, Note_on_c, 1, 68, 127
1, 37680, Note_on_c, 1, 64, 127
1, 37799, Note_off_c, 1, 64, 0
1, 37800, Note_on_c, 1, 52, 127
1, 37800, Note_on_c, 1, 83, 127
1, 37830, Note_off_c, 1, 83, 0
1, 37830, Note_on_c, 1, 81, 127
1, 37859, Note_off_c, 1, 52, 0
1, 37860, Note_off_c, 1, 81, 0
1, 37860, Note_on_c, 1, 54, 127
1, 37860, Note_on_c, 1, 80, 127
1, 37890, Note_off_c, 1, 80, 0
1, 37890, Note_on_c, 1, 78, 127
1, 37919, Note_off_c, 1, 54, 0
1, 37920, Note_off_c, 1, 78, 0
1, 37920, Note_on_c, 1, 76, 127
1, 37980, Note_on_c, 1, 50, 127
1, 38039, Note_off_c, 1, 71, 0
1, 38039, Note_off_c, 1, 68, 0
1, 38039, Note_off_c, 1, 76, 0
1, 38039, Note_off_c, 1, 50, 0
1, 38040, Note_on_c, 1, 69, 127
1, 38040, Note_on_c, 1, 64, 127
1, 38040, Note_on_c, 1, 49, 127
1, 38040, Note_on_c, 1, 73, 127
1, 38099, Note_off_c, 1, 69, 0
1, 38099, Note_off_c, 1, 49, 0
1, 38099, Note_off_c, 1, 73, 0
1, 38100, Note_on_c, 1, 71, 127
1, 38100, Note_on_c, 1, 47, 127
1, 38100, Note_on_c, 1, 74, 127
1, 38159, Note_off_c, 1, 64, 0
1, 38159, Note_off_c, 1, 71, 0
1, 38159, Note_off_c, 1, 47, 0
1, 38159, Note_off_c, 1, 74, 0
1, 38160, Note_on_c, 1, 73, 127
1, 38160, Note_on_c, 1, 69, 127
1, 38160, Note_on_c, 1, 45, 127
1, 38279, Note_off_c, 1, 73, 0
1, 38279, Note_off_c, 1, 69, 0
1, 38279, Note_off_c, 1, 45, 0
1, 38280, Note_on_c, 1, 71, 127
1, 38280, Note_on_c, 1, 68, 127
1, 38280, Note_on_c, 1, 57, 127
1, 38280, Note_on_c, 1, 64, 127
1, 38280, Note_on_c, 1, 61, 127
1, 38339, Note_off_c, 1, 71, 0
1, 38339, Note_off_c, 1, 68, 0
1, 38340, Note_on_c, 1, 73, 127
1, 38340, Note_on_c, 1, 69, 127
1, 38399, Note_off_c, 1, 57, 0
1, 38399, Note_off_c, 1, 64, 0
1, 38399, Note_off_c, 1, 61, 0
1, 38399, Note_off_c, 1, 73, 0
1, 38399, Note_off_c, 1, 69, 0
1, 38400, Note_on_c, 1, 74, 127
1, 38400, Note_on_c, 1, 71, 127
1, 38400, Note_on_c, 1, 56, 127
1, 38400, Note_on_c, 1, 64, 127
1, 38400, Note_on_c, 1, 59, 127
1, 38459, Note_off_c, 1, 74, 0
1, 38459, Note_off_c, 1, 71, 0
1, 38460, Note_on_c, 1, 73, 127
1, 38460, Note_on_c, 1, 69, 127
1, 38519, Note_off_c, 1, 56, 0
1, 38519, Note_off_c, 1, 64, 0
1, 38519, Note_off_c, 1, 59, 0
1, 38519, Note_off_c, 1, 73, 0
1, 38519, Note_off_c, 1, 69, 0
1, 38520, Note_on_c, 1, 71, 127
1, 38520, Note_on_c, 1, 68, 127
1, 38520, Note_on_c, 1, 57, 127
1, 38579, Note_off_c, 1, 71, 0
1, 38579, Note_off_c, 1, 68, 0
1, 38580, Note_on_c, 1, 69, 127
1, 38580, Note_on_c, 1, 66, 127
1, 38639, Note_off_c, 1, 57, 0
1, 38639, Note_off_c, 1, 69, 0
1, 38639, Note_off_c, 1, 66, 0
1, 38640, Note_on_c, 1, 71, 127
1, 38640, Note_on_c, 1, 68, 127
1, 38640, Note_on_c, 1, 52, 127
1, 38700, Note_on_c, 1, 69, 127
1, 38700, Note_on_c, 1, 66, 127
1, 38759, Note_off_c, 1, 71, 0
1, 38759, Note_off_c, 1, 68, 0
1, 38759, Note_off_c, 1, 52, 0
1, 38759, Note_off_c, 1, 69, 0
1, 38759, Note_off_c, 1, 66, 0
1, 38760, Note_on_c, 1, 71, 127
1, 38760, Note_on_c, 1, 68, 127
1, 38760, Note_on_c, 1, 40, 127
1, 38760, Note_on_c, 1, 64, 127
1, 38760, Note_on_c, 1, 59, 127
1, 38819, Note_off_c, 1, 71, 0
1, 38819, Note_off_c, 1, 68, 0
1, 38820, Note_on_c, 1, 73, 127
1, 38820, Note_on_c, 1, 69, 127
1, 38879, Note_off_c, 1, 40, 0
1, 38879, Note_off_c, 1, 64, 0
1, 38879, Note_off_c, 1, 59, 0
1, 38879, Note_off_c, 1, 73, 0
1, 38879, Note_off_c, 1, 69, 0
1, 38880, Note_on_c, 1, 71, 127
1, 38880, Note_on_c, 1, 68, 127
1, 38880, Note_on_c, 1, 40, 127
1, 38880, Note_on_c, 1, 64, 127
1, 38880, Note_on_c, 1, 59, 127
1, 38999, Note_off_c, 1, 71, 0
1, 38999, Note_off_c, 1, 68, 0
1, 38999, Note_off_c, 1, 40, 0
1, 38999, Note_off_c, 1, 64, 0
1, 38999, Note_off_c, 1, 59, 0
1, 39000, Note_on_c, 1, 76, 127
1, 39000, Note_on_c, 1, 71, 127
1, 39000, Note_on_c, 1, 44, 127
1, 39000, Note_on_c, 1, 68, 127
1, 39119, Note_off_c, 1, 76, 0
1, 39119, Note_off_c, 1, 71, 0
1, 39119, Note_off_c, 1, 44, 0
1, 39119, Note_off_c, 1, 68, 0
1, 39120, Note_on_c, 1, 73, 127
1, 39120, Note_on_c, 1, 64, 127
1, 39120, Note_on_c, 1, 45, 127
1, 39120, Note_on_c, 1, 69, 127
1, 39239, Note_off_c, 1, 73, 0
1, 39239, Note_off_c, 1, 64, 0
1, 39239, Note_off_c, 1, 45, 0
1, 39239, Note_off_c, 1, 69, 0
1, 39240, Note_on_c, 1, 71, 127
1, 39240, Note_on_c, 1, 62, 127
1, 39240, Note_on_c, 1, 42, 127
1, 39240, Note_on_c, 1, 74, 127
1, 39299, Note_off_c, 1, 71, 0
1, 39299, Note_off_c, 1, 74, 0
1, 39300, Note_off_c, 1, 62, 0
1, 39300, Note_on_c, 1, 69, 127
1, 39300, Note_on_c, 1, 61, 127
1, 39300, Note_on_c, 1, 73, 127
1, 39359, Note_off_c, 1, 42, 0
1, 39359, Note_off_c, 1, 69, 0
1, 39359, Note_off_c, 1, 73, 0
1, 39360, Note_off_c, 1, 61, 0
1, 39360, Note_on_c, 1, 38, 127
1, 39360, Note_on_c, 1, 68, 127
1, 39479, Note_off_c, 1, 38, 0
1, 39479, Note_off_c, 1, 68, 0
1, 39480, Note_on_c, 1, 68, 127
1, 39480, Note_on_c, 1, 59, 127
1, 39480, Note_on_c, 1, 40, 127
1, 39480, Note_on_c, 1, 62, 127
1, 39599, Note_off_c, 1, 68, 0
1, 39599, Note_off_c, 1, 59, 0
1, 39599, Note_off_c, 1, 40, 0
1, 39599, Note_off_c, 1, 62, 0
1, 39600, Note_on_c, 1, 69, 127
1, 39600, Note_on_c, 1, 61, 127
1, 39600, Note_on_c, 1, 45, 127
1, 39959, Note_off_c, 1, 69, 0
1, 39959, Note_off_c, 1, 61, 0
1, 39959, Note_off_c, 1, 45, 0
1, 40080, Note_on_c, 1, 49, 127
1, 40080, Note_on_c, 1, 57, 127
1, 40110, Note_on_c, 1, 61, 127
1, 40140, Note_on_c, 1, 64, 127
1, 40680, Note_on_c, 1, 52, 127
1, 40740, Note_off_c, 1, 52, 0
1, 40740, Note_on_c, 1, 54, 127
1, 40800, Note_off_c, 1, 54, 0
1, 40800, Note_on_c, 1, 55, 127
1, 40920, Note_off_c, 1, 55, 0
1, 40920, Note_on_c, 1, 59, 127
1, 40980, Note_off_c, 1, 59, 0
1, 41039, Note_off_c, 1, 61, 0
1, 41039, Note_off_c, 1, 64, 0
1, 41040, Note_off_c, 1, 49, 0
1, 41040, Note_off_c, 1, 57, 0
1, 41040, Note_on_c, 1, 50, 127
1, 41040, Note_on_c, 1, 62, 127
1, 41040, Note_on_c, 1, 66, 127
1, 41040, Note_on_c, 1, 69, 127
1, 41280, Note_on_c, 1, 74, 127
1, 41340, Note_off_c, 1, 74, 0
1, 41460, Note_on_c, 1, 67, 127
1, 41520, Note_off_c, 1, 67, 0
1, 41700, Note_on_c, 1, 78, 127
1, 41760, Note_off_c, 1, 50, 0
1, 41760, Note_off_c, 1, 62, 0
1, 41760, Note_off_c, 1, 69, 0
1, 41760, Note_on_c, 1, 46, 127
1, 41760, Note_on_c, 1, 70, 127
1, 41790, Note_off_c, 1, 78, 0
1, 41790, Note_on_c, 1, 73, 127
1, 41880, Note_off_c, 1, 73, 0
1, 41910, Note_on_c, 1, 71, 127
1, 41940, Note_off_c, 1, 71, 0
1, 42240, Note_on_c, 1, 76, 127
1, 42360, Note_off_c, 1, 76, 0
1, 42360, Note_on_c, 1, 79, 127
1, 42420, Note_off_c, 1, 79, 0
1, 42480, Note_off_c, 1, 46, 0
1, 42480, Note_off_c, 1, 70, 0
1, 42480, Note_on_c, 1, 47, 127
1, 42539, Note_off_c, 1, 47, 0
1, 42720, Note_off_c, 1, 66, 0
1, 42780, Note_on_c, 1, 67, 127
1, 42780, Note_on_c, 1, 55, 127
1, 42839, Note_off_c, 1, 67, 0
1, 42839, Note_off_c, 1, 55, 0
1, 42840, Note_on_c, 1, 69, 127
1, 42840, Note_on_c, 1, 57, 127
1, 42840, Note_on_c, 1, 55, 127
1, 42840, Note_on_c, 1, 67, 127
1, 42899, Note_off_c, 1, 69, 0
1, 42899, Note_off_c, 1, 57, 0
1, 42899, Note_off_c, 1, 55, 0
1, 42899, Note_off_c, 1, 67, 0
1, 42900, Note_on_c, 1, 62, 127
1, 42900, Note_on_c, 1, 50, 127
1, 42900, Note_on_c, 1, 55, 127
1, 42900, Note_on_c, 1, 67, 127
1, 42959, Note_off_c, 1, 62, 0
1, 42959, Note_off_c, 1, 50, 0
1, 42959, Note_off_c, 1, 55, 0
1, 42959, Note_off_c, 1, 67, 0
1, 42960, Note_on_c, 1, 67, 127
1, 42960, Note_on_c, 1, 55, 127
1, 42990, Note_on_c, 1, 66, 127
1, 42990, Note_on_c, 1, 54, 127
1, 43019, Note_off_c, 1, 67, 0
1, 43019, Note_off_c, 1, 55, 0
1, 43019, Note_off_c, 1, 66, 0
1, 43019, Note_off_c, 1, 54, 0
1, 43020, Note_on_c, 1, 67, 127
1, 43020, Note_on_c, 1, 55, 127
1, 43020, Note_on_c, 1, 54, 127
1, 43020, Note_on_c, 1, 69, 127
1, 43049, Note_off_c, 1, 67, 0
1, 43049, Note_off_c, 1, 55, 0
1, 43049, Note_off_c, 1, 54, 0
1, 43049, Note_off_c, 1, 69, 0
1, 43050, Note_on_c, 1, 69, 127
1, 43050, Note_on_c, 1, 57, 127
1, 43050, Note_on_c, 1, 52, 127
1, 43050, Note_on_c, 1, 67, 127
1, 43079, Note_off_c, 1, 69, 0
1, 43079, Note_off_c, 1, 57, 0
1, 43079, Note_off_c, 1, 52, 0
1, 43079, Note_off_c, 1, 67, 0
1, 43080, Note_on_c, 1, 67, 127
1, 43080, Note_on_c, 1, 55, 127
1, 43080, Note_on_c, 1, 50, 127
1, 43080, Note_on_c, 1, 66, 127
1, 43109, Note_off_c, 1, 50, 0
1, 43109, Note_off_c, 1, 66, 0
1, 43110, Note_on_c, 1, 48, 127
1, 43110, Note_on_c, 1, 64, 127
1, 43139, Note_off_c, 1, 67, 0
1, 43139, Note_off_c, 1, 55, 0
1, 43139, Note_off_c, 1, 48, 0
1, 43139, Note_off_c, 1, 64, 0
1, 43140, Note_on_c, 1, 74, 127
1, 43140, Note_on_c, 1, 62, 127
1, 43140, Note_on_c, 1, 47, 127
1, 43169, Note_off_c, 1, 47, 0
1, 43170, Note_on_c, 1, 45, 127
1, 43170, Note_on_c, 1, 61, 127
1, 43199, Note_off_c, 1, 74, 0
1, 43199, Note_off_c, 1, 62, 0
1, 43199, Note_off_c, 1, 45, 0
1, 43199, Note_off_c, 1, 61, 0
1, 43200, Note_on_c, 1, 71, 127
1, 43200, Note_on_c, 1, 59, 127
1, 43200, Note_on_c, 1, 43, 127
1, 43200, Note_on_c, 1, 67, 127
1, 43259, Note_off_c, 1, 71, 0
1, 43259, Note_off_c, 1, 59, 0
1, 43259, Note_off_c, 1, 43, 0
1, 43259, Note_off_c, 1, 67, 0
1, 43260, Note_on_c, 1, 67, 127
1, 43260, Note_on_c, 1, 55, 127
1, 43260, Note_on_c, 1, 43, 127
1, 43289, Note_off_c, 1, 43, 0
1, 43319, Note_off_c, 1, 67, 0
1, 43319, Note_off_c, 1, 55, 0
1, 43320, Note_on_c, 1, 69, 127
1, 43320, Note_on_c, 1, 57, 127
1, 43320, Note_on_c, 1, 43, 127
1, 43320, Note_on_c, 1, 67, 127
1, 43379, Note_off_c, 1, 69, 0
1, 43379, Note_off_c, 1, 57, 0
1, 43379, Note_off_c, 1, 43, 0
1, 43379, Note_off_c, 1, 67, 0
1, 43380, Note_on_c, 1, 62, 127
1, 43380, Note_on_c, 1, 50, 127
1, 43380, Note_on_c, 1, 43, 127
1, 43380, Note_on_c, 1, 67, 127
1, 43439, Note_off_c, 1, 62, 0
1, 43439, Note_off_c, 1, 50, 0
1, 43439, Note_off_c, 1, 43, 0
1, 43439, Note_off_c, 1, 67, 0
1, 43440, Note_on_c, 1, 67, 127
1, 43440, Note_on_c, 1, 55, 127
1, 43440, Note_on_c, 1, 43, 127
1, 43440, Note_on_c, 1, 62, 127
1, 43559, Note_off_c, 1, 55, 0
1, 43620, Note_on_c, 1, 74, 127
1, 43679, Note_off_c, 1, 67, 0
1, 43679, Note_off_c, 1, 43, 0
1, 43679, Note_off_c, 1, 62, 0
1, 43680, Note_on_c, 1, 47, 127
1, 43680, Note_on_c, 1, 66, 127
1, 43680, Note_on_c, 1, 59, 127
1, 43740, Note_off_c, 1, 74, 0
1, 43740, Note_on_c, 1, 71, 127
1, 43800, Note_off_c, 1, 71, 0
1, 43919, Note_off_c, 1, 47, 0
1, 43919, Note_off_c, 1, 66, 0
1, 43919, Note_off_c, 1, 59, 0
1, 43920, Note_on_c, 1, 79, 127
1, 43920, Note_on_c, 1, 52, 127
1, 43920, Note_on_c, 1, 64, 127
1, 43980, Note_off_c, 1, 79, 0
1, 43980, Note_on_c, 1, 76, 127
1, 44040, Note_off_c, 1, 76, 0
1, 44040, Note_on_c, 1, 73, 127
1, 44100, Note_off_c, 1, 73, 0
1, 44159, Note_off_c, 1, 52, 0
1, 44159, Note_off_c, 1, 64, 0
1, 44160, Note_on_c, 1, 78, 127
1, 44160, Note_on_c, 1, 50, 127
1, 44160, Note_on_c, 1, 69, 127
1, 44280, Note_off_c, 1, 78, 0
1, 44460, Note_on_c, 1, 54, 127
1, 44490, Note_off_c, 1, 54, 0
1, 44520, Note_on_c, 1, 57, 127
1, 44580, Note_off_c, 1, 57, 0
1, 44639, Note_off_c, 1, 69, 0
1, 44640, Note_off_c, 1, 50, 0
1, 44640, Note_on_c, 1, 44, 127
1, 44640, Note_on_c, 1, 68, 127
1, 45000, Note_on_c, 1, 56, 127
1, 45060, Note_off_c, 1, 56, 0
1, 45300, Note_on_c, 1, 61, 127
1, 45359, Note_off_c, 1, 44, 0
1, 45359, Note_off_c, 1, 68, 0
1, 45360, Note_off_c, 1, 61, 0
1, 45360, Note_on_c, 1, 53, 127
1, 45360, Note_on_c, 1, 65, 127
1, 45599, Note_off_c, 1, 53, 0
1, 45599, Note_off_c, 1, 65, 0
1, 45660, Note_on_c, 1, 42, 127
1, 45719, Note_off_c, 1, 42, 0
1, 45780, Note_on_c, 1, 45, 127
1, 45839, Note_off_c, 1, 45, 0
1, 46020, Note_on_c, 1, 54, 127
1, 46020, Note_on_c, 1, 49, 127
1, 46020, Note_on_c, 1, 61, 127
1, 46079, Note_off_c, 1, 49, 0
1, 46079, Note_off_c, 1, 61, 0
1, 46080, Note_off_c, 1, 54, 0
1, 46080, Note_on_c, 1, 53, 127
1, 46080, Note_on_c, 1, 50, 127
1, 46080, Note_on_c, 1, 59, 127
1, 46140, Note_off_c, 1, 53, 0
1, 46199, Note_off_c, 1, 50, 0
1, 46199, Note_off_c, 1, 59, 0
1, 46260, Note_on_c, 1, 57, 127
1, 46320, Note_off_c, 1, 57, 0
1, 46320, Note_on_c, 1, 56, 127
1, 46380, Note_off_c, 1, 56, 0
1, 46440, Note_on_c, 1, 68, 127
1, 46440, Note_on_c, 1, 65, 127
1, 46559, Note_off_c, 1, 68, 0
1, 46559, Note_off_c, 1, 65, 0
1, 46560, Note_on_c, 1, 42, 127
1, 46560, Note_on_c, 1, 66, 127
1, 46560, Note_on_c, 1, 61, 127
1, 46560, Note_on_c, 1, 69, 127
1, 46619, Note_off_c, 1, 42, 0
1, 46620, Note_on_c, 1, 54, 127
1, 46679, Note_off_c, 1, 66, 0
1, 46679, Note_off_c, 1, 61, 0
1, 46679, Note_off_c, 1, 69, 0
1, 46679, Note_off_c, 1, 54, 0
1, 46680, Note_on_c, 1, 52, 127
1, 46739, Note_off_c, 1, 52, 0
1, 46740, Note_on_c, 1, 64, 127
1, 46740, Note_on_c, 1, 52, 127
1, 46740, Note_on_c, 1, 50, 127
1, 46799, Note_off_c, 1, 64, 0
1, 46799, Note_off_c, 1, 52, 0
1, 46799, Note_off_c, 1, 50, 0
1, 46800, Note_on_c, 1, 69, 127
1, 46800, Note_on_c, 1, 57, 127
1, 46800, Note_on_c, 1, 49, 127
1, 46800, Note_on_c, 1, 64, 127
1, 46800, Note_on_c, 1, 61, 127
1, 46800, Note_on_c, 1, 68, 127
1, 46859, Note_off_c, 1, 69, 0
1, 46859, Note_off_c, 1, 57, 0
1, 46860, Note_on_c, 1, 71, 127
1, 46860, Note_on_c, 1, 59, 127
1, 46919, Note_off_c, 1, 49, 0
1, 46919, Note_off_c, 1, 64, 0
1, 46919, Note_off_c, 1, 61, 0
1, 46919, Note_off_c, 1, 68, 0
1, 46919, Note_off_c, 1, 71, 0
1, 46919, Note_off_c, 1, 59, 0
1, 46920, Note_on_c, 1, 73, 127
1, 46920, Note_on_c, 1, 61, 127
1, 46979, Note_off_c, 1, 73, 0
1, 46979, Note_off_c, 1, 61, 0
1, 46980, Note_on_c, 1, 74, 127
1, 46980, Note_on_c, 1, 62, 127
1, 46980, Note_on_c, 1, 47, 127
1, 46980, Note_on_c, 1, 71, 127
1, 46980, Note_on_c, 1, 66, 127
1, 47039, Note_off_c, 1, 74, 0
1, 47039, Note_off_c, 1, 62, 0
1, 47039, Note_off_c, 1, 47, 0
1, 47039, Note_off_c, 1, 71, 0
1, 47039, Note_off_c, 1, 66, 0
1, 47040, Note_on_c, 1, 76, 127
1, 47040, Note_on_c, 1, 64, 127
1, 47040, Note_on_c, 1, 45, 127
1, 47040, Note_on_c, 1, 73, 127
1, 47040, Note_on_c, 1, 69, 127
1, 47069, Note_off_c, 1, 45, 0
1, 47070, Note_on_c, 1, 47, 127
1, 47099, Note_off_c, 1, 47, 0
1, 47100, Note_on_c, 1, 49, 127
1, 47129, Note_off_c, 1, 76, 0
1, 47129, Note_off_c, 1, 49, 0
1, 47130, Note_on_c, 1, 78, 127
1, 47130, Note_on_c, 1, 66, 127
1, 47130, Note_on_c, 1, 50, 127
1, 47159, Note_off_c, 1, 78, 0
1, 47159, Note_off_c, 1, 66, 0
1, 47159, Note_off_c, 1, 50, 0
1, 47160, Note_off_c, 1, 69, 0
1, 47160, Note_on_c, 1, 52, 127
1, 47189, Note_off_c, 1, 52, 0
1, 47190, Note_on_c, 1, 54, 127
1, 47219, Note_off_c, 1, 64, 0
1, 47219, Note_off_c, 1, 54, 0
1, 47220, Note_off_c, 1, 73, 0
1, 47220, Note_on_c, 1, 74, 127
1, 47220, Note_on_c, 1, 62, 127
1, 47220, Note_on_c, 1, 56, 127
1, 47220, Note_on_c, 1, 71, 127
1, 47249, Note_off_c, 1, 56, 0
1, 47279, Note_off_c, 1, 62, 0
1, 47280, Note_off_c, 1, 74, 0
1, 47280, Note_off_c, 1, 71, 0
1, 47280, Note_on_c, 1, 61, 127
1, 47280, Note_on_c, 1, 57, 127
1, 47339, Note_off_c, 1, 61, 0
1, 47339, Note_off_c, 1, 57, 0
1, 47400, Note_on_c, 1, 59, 127
1, 47400, Note_on_c, 1, 68, 127
1, 47459, Note_off_c, 1, 59, 0
1, 47520, Note_off_c, 1, 68, 0
1, 47760, Note_on_c, 1, 73, 127
1, 47760, Note_on_c, 1, 45, 127
1, 47819, Note_off_c, 1, 73, 0
1, 47819, Note_off_c, 1, 45, 0
1, 47820, Note_on_c, 1, 71, 127
1, 47820, Note_on_c, 1, 47, 127
1, 47879, Note_off_c, 1, 71, 0
1, 47879, Note_off_c, 1, 47, 0
1, 47880, Note_on_c, 1, 69, 127
1, 47880, Note_on_c, 1, 49, 127
1, 47939, Note_off_c, 1, 49, 0
1, 47940, Note_on_c, 1, 50, 127
1, 47999, Note_off_c, 1, 69, 0
1, 47999, Note_off_c, 1, 50, 0
1, 48000, Note_on_c, 1, 68, 127
1, 48000, Note_on_c, 1, 52, 127
1, 48059, Note_off_c, 1, 52, 0
1, 48060, Note_on_c, 1, 50, 127
1, 48119, Note_off_c, 1, 68, 0
1, 48119, Note_off_c, 1, 50, 0
1, 48120, Note_on_c, 1, 69, 127
1, 48120, Note_on_c, 1, 49, 127
1, 48179, Note_off_c, 1, 69, 0
1, 48179, Note_off_c, 1, 49, 0
1, 48180, Note_on_c, 1, 73, 127
1, 48180, Note_on_c, 1, 45, 127
1, 48239, Note_off_c, 1, 73, 0
1, 48239, Note_off_c, 1, 45, 0
1, 48240, Note_on_c, 1, 71, 127
1, 48240, Note_on_c, 1, 52, 127
1, 48299, Note_off_c, 1, 52, 0
1, 48300, Note_on_c, 1, 54, 127
1, 48359, Note_off_c, 1, 54, 0
1, 48420, Note_on_c, 1, 50, 127
1, 48479, Note_off_c, 1, 71, 0
1, 48479, Note_off_c, 1, 50, 0
1, 48480, Note_on_c, 1, 69, 127
1, 48480, Note_on_c, 1, 49, 127
1, 48539, Note_off_c, 1, 69, 0
1, 48539, Note_off_c, 1, 49, 0
1, 48540, Note_on_c, 1, 73, 127
1, 48540, Note_on_c, 1, 45, 127
1, 48599, Note_off_c, 1, 73, 0
1, 48599, Note_off_c, 1, 45, 0
1, 48600, Note_on_c, 1, 71, 127
1, 48600, Note_on_c, 1, 52, 127
1, 48659, Note_off_c, 1, 52, 0
1, 48660, Note_on_c, 1, 54, 127
1, 48719, Note_off_c, 1, 54, 0
1, 48720, Note_on_c, 1, 56, 127
1, 48779, Note_off_c, 1, 56, 0
1, 48839, Note_off_c, 1, 71, 0
1, 48840, Note_on_c, 1, 73, 127
1, 48840, Note_on_c, 1, 57, 127
1, 48899, Note_off_c, 1, 73, 0
1, 48899, Note_off_c, 1, 57, 0
1, 48900, Note_on_c, 1, 71, 127
1, 48900, Note_on_c, 1, 56, 127
1, 48959, Note_off_c, 1, 71, 0
1, 48959, Note_off_c, 1, 56, 0
1, 48960, Note_on_c, 1, 74, 127
1, 48960, Note_on_c, 1, 54, 127
1, 49019, Note_off_c, 1, 74, 0
1, 49019, Note_off_c, 1, 54, 0
1, 49020, Note_on_c, 1, 73, 127
1, 49020, Note_on_c, 1, 52, 127
1, 49079, Note_off_c, 1, 73, 0
1, 49079, Note_off_c, 1, 52, 0
1, 49080, Note_on_c, 1, 71, 127
1, 49080, Note_on_c, 1, 50, 127
1, 49139, Note_off_c, 1, 71, 0
1, 49139, Note_off_c, 1, 50, 0
1, 49140, Note_on_c, 1, 69, 127
1, 49140, Note_on_c, 1, 54, 127
1, 49199, Note_off_c, 1, 69, 0
1, 49199, Note_off_c, 1, 54, 0
1, 49200, Note_on_c, 1, 68, 127
1, 49200, Note_on_c, 1, 52, 127
1, 49229, Note_off_c, 1, 68, 0
1, 49230, Note_on_c, 1, 69, 127
1, 49259, Note_off_c, 1, 69, 0
1, 49260, Note_on_c, 1, 71, 127
1, 49289, Note_off_c, 1, 71, 0
1, 49319, Note_off_c, 1, 52, 0
1, 49320, Note_on_c, 1, 69, 127
1, 49320, Note_on_c, 1, 57, 127
1, 49379, Note_off_c, 1, 57, 0
1, 49380, Note_on_c, 1, 52, 127
1, 49439, Note_off_c, 1, 52, 0
1, 49440, Note_on_c, 1, 49, 127
1, 49499, Note_off_c, 1, 49, 0
1, 49559, Note_off_c, 1, 69, 0
1, 49560, Note_on_c, 1, 73, 127
1, 49560, Note_on_c, 1, 64, 127
1, 49560, Note_on_c, 1, 45, 127
1, 49560, Note_on_c, 1, 61, 127
1, 49619, Note_off_c, 1, 73, 0
1, 49620, Note_on_c, 1, 71, 127
1, 49620, Note_on_c, 1, 62, 127
1, 49679, Note_off_c, 1, 64, 0
1, 49679, Note_off_c, 1, 45, 0
1, 49679, Note_off_c, 1, 61, 0
1, 49679, Note_off_c, 1, 71, 0
1, 49679, Note_off_c, 1, 62, 0
1, 49680, Note_on_c, 1, 69, 127
1, 49680, Note_on_c, 1, 61, 127
1, 49680, Note_on_c, 1, 45, 127
1, 49680, Note_on_c, 1, 64, 127
1, 49799, Note_off_c, 1, 69, 0
1, 49799, Note_off_c, 1, 61, 0
1, 49799, Note_off_c, 1, 45, 0
1, 49799, Note_off_c, 1, 64, 0
1, 49800, Note_on_c, 1, 68, 127
1, 49800, Note_on_c, 1, 59, 127
1, 49800, Note_on_c, 1, 45, 127
1, 49800, Note_on_c, 1, 62, 127
1, 49919, Note_off_c, 1, 68, 0
1, 49919, Note_off_c, 1, 59, 0
1, 49919, Note_off_c, 1, 45, 0
1, 49919, Note_off_c, 1, 62, 0
1, 49920, Note_on_c, 1, 69, 127
1, 49920, Note_on_c, 1, 61, 127
1, 49920, Note_on_c, 1, 45, 127
1, 49920, Note_on_c, 1, 64, 127
1, 49979, Note_off_c, 1, 69, 0
1, 49980, Note_on_c, 1, 73, 127
1, 50039, Note_off_c, 1, 61, 0
1, 50039, Note_off_c, 1, 45, 0
1, 50039, Note_off_c, 1, 64, 0
1, 50039, Note_off_c, 1, 73, 0
1, 50040, Note_on_c, 1, 71, 127
1, 50040, Note_on_c, 1, 62, 127
1, 50040, Note_on_c, 1, 45, 127
1, 50040, Note_on_c, 1, 59, 127
1, 50159, Note_off_c, 1, 45, 0
1, 50159, Note_off_c, 1, 59, 0
1, 50279, Note_off_c, 1, 71, 0
1, 50279, Note_off_c, 1, 62, 0
1, 50280, Note_on_c, 1, 69, 127
1, 50280, Note_on_c, 1, 61, 127
1, 50280, Note_on_c, 1, 45, 127
1, 50280, Note_on_c, 1, 64, 127
1, 50339, Note_off_c, 1, 69, 0
1, 50340, Note_on_c, 1, 73, 127
1, 50399, Note_off_c, 1, 61, 0
1, 50399, Note_off_c, 1, 45, 0
1, 50399, Note_off_c, 1, 64, 0
1, 50399, Note_off_c, 1, 73, 0
1, 50400, Note_on_c, 1, 71, 127
1, 50400, Note_on_c, 1, 62, 127
1, 50400, Note_on_c, 1, 45, 127
1, 50400, Note_on_c, 1, 59, 127
1, 50519, Note_off_c, 1, 45, 0
1, 50519, Note_off_c, 1, 59, 0
1, 50639, Note_off_c, 1, 71, 0
1, 50639, Note_off_c, 1, 62, 0
1, 50640, Note_on_c, 1, 73, 127
1, 50640, Note_on_c, 1, 64, 127
1, 50640, Note_on_c, 1, 45, 127
1, 50699, Note_off_c, 1, 73, 0
1, 50699, Note_off_c, 1, 45, 0
1, 50700, Note_on_c, 1, 71, 127
1, 50700, Note_on_c, 1, 44, 127
1, 50759, Note_off_c, 1, 64, 0
1, 50759, Note_off_c, 1, 71, 0
1, 50759, Note_off_c, 1, 44, 0
1, 50760, Note_on_c, 1, 74, 127
1, 50760, Note_on_c, 1, 57, 127
1, 50760, Note_on_c, 1, 42, 127
1, 50760, Note_on_c, 1, 78, 127
1, 50819, Note_off_c, 1, 74, 0
1, 50819, Note_off_c, 1, 42, 0
1, 50819, Note_off_c, 1, 78, 0
1, 50820, Note_on_c, 1, 73, 127
1, 50820, Note_on_c, 1, 40, 127
1, 50820, Note_on_c, 1, 76, 127
1, 50879, Note_off_c, 1, 57, 0
1, 50879, Note_off_c, 1, 73, 0
1, 50879, Note_off_c, 1, 40, 0
1, 50879, Note_off_c, 1, 76, 0
1, 50880, Note_on_c, 1, 71, 127
1, 50880, Note_on_c, 1, 66, 127
1, 50880, Note_on_c, 1, 38, 127
1, 50880, Note_on_c, 1, 74, 127
1, 50939, Note_off_c, 1, 71, 0
1, 50939, Note_off_c, 1, 38, 0
1, 50939, Note_off_c, 1, 74, 0
1, 50940, Note_on_c, 1, 69, 127
1, 50940, Note_on_c, 1, 42, 127
1, 50940, Note_on_c, 1, 73, 127
1, 50999, Note_off_c, 1, 66, 0
1, 50999, Note_off_c, 1, 69, 0
1, 50999, Note_off_c, 1, 42, 0
1, 50999, Note_off_c, 1, 73, 0
1, 51000, Note_on_c, 1, 68, 127
1, 51000, Note_on_c, 1, 59, 127
1, 51000, Note_on_c, 1, 40, 127
1, 51000, Note_on_c, 1, 71, 127
1, 51029, Note_off_c, 1, 59, 0
1, 51030, Note_on_c, 1, 69, 127
1, 51030, Note_on_c, 1, 61, 127
1, 51059, Note_off_c, 1, 68, 0
1, 51059, Note_off_c, 1, 71, 0
1, 51059, Note_off_c, 1, 69, 0
1, 51059, Note_off_c, 1, 61, 0
1, 51060, Note_on_c, 1, 62, 127
1, 51060, Note_on_c, 1, 64, 127
1, 51119, Note_off_c, 1, 40, 0
1, 51119, Note_off_c, 1, 62, 0
1, 51119, Note_off_c, 1, 64, 0
1, 51120, Note_on_c, 1, 69, 127
1, 51120, Note_on_c, 1, 61, 127
1, 51120, Note_on_c, 1, 45, 127
1, 51120, Note_on_c, 1, 64, 127
1, 51180, Note_on_c, 1, 68, 127
1, 51209, Note_off_c, 1, 68, 0
1, 51210, Note_on_c, 1, 66, 127
1, 51239, Note_off_c, 1, 45, 0
1, 51239, Note_off_c, 1, 66, 0
1, 51240, Note_on_c, 1, 49, 127
1, 51270, Note_on_c, 1, 62, 127
1, 51299, Note_off_c, 1, 49, 0
1, 51299, Note_off_c, 1, 62, 0
1, 51300, Note_on_c, 1, 52, 127
1, 51330, Note_on_c, 1, 59, 127
1, 51359, Note_off_c, 1, 69, 0
1, 51359, Note_off_c, 1, 61, 0
1, 51359, Note_off_c, 1, 64, 0
1, 51359, Note_off_c, 1, 52, 0
1, 51359, Note_off_c, 1, 59, 0
1, 51360, Note_on_c, 1, 57, 127
1, 51360, Note_on_c, 1, 73, 127
1, 51419, Note_off_c, 1, 73, 0
1, 51420, Note_on_c, 1, 74, 127
1, 51420, Note_on_c, 1, 59, 127
1, 51479, Note_off_c, 1, 57, 0
1, 51479, Note_off_c, 1, 74, 0
1, 51479, Note_off_c, 1, 59, 0
1, 51480, Note_on_c, 1, 76, 127
1, 51480, Note_on_c, 1, 61, 127
1, 51539, Note_off_c, 1, 61, 0
1, 51540, Note_on_c, 1, 62, 127
1, 51599, Note_off_c, 1, 76, 0
1, 51599, Note_off_c, 1, 62, 0
1, 51600, Note_on_c, 1, 76, 127
1, 51600, Note_on_c, 1, 61, 127
1, 51659, Note_off_c, 1, 61, 0
1, 51660, Note_on_c, 1, 59, 127
1, 51719, Note_off_c, 1, 76, 0
1, 51719, Note_off_c, 1, 59, 0
1, 51720, Note_on_c, 1, 78, 127
1, 51720, Note_on_c, 1, 58, 127
1, 51779, Note_off_c, 1, 78, 0
1, 51779, Note_off_c, 1, 58, 0
1, 51780, Note_on_c, 1, 76, 127
1, 51780, Note_on_c, 1, 54, 127
1, 51839, Note_off_c, 1, 76, 0
1, 51839, Note_off_c, 1, 54, 0
1, 51840, Note_on_c, 1, 76, 127
1, 51840, Note_on_c, 1, 59, 127
1, 51899, Note_off_c, 1, 59, 0
1, 51900, Note_on_c, 1, 54, 127
1, 51959, Note_off_c, 1, 76, 0
1, 51959, Note_off_c, 1, 54, 0
1, 51960, Note_on_c, 1, 74, 127
1, 51960, Note_on_c, 1, 47, 127
1, 52019, Note_off_c, 1, 47, 0
1, 52020, Note_on_c, 1, 49, 127
1, 52079, Note_off_c, 1, 74, 0
1, 52079, Note_off_c, 1, 49, 0
1, 52080, Note_on_c, 1, 71, 127
1, 52080, Note_on_c, 1, 50, 127
1, 52139, Note_off_c, 1, 71, 0
1, 52139, Note_off_c, 1, 50, 0
1, 52140, Note_on_c, 1, 73, 127
1, 52140, Note_on_c, 1, 49, 127
1, 52199, Note_off_c, 1, 73, 0
1, 52199, Note_off_c, 1, 49, 0
1, 52200, Note_on_c, 1, 74, 127
1, 52200, Note_on_c, 1, 47, 127
1, 52259, Note_off_c, 1, 47, 0
1, 52260, Note_on_c, 1, 49, 127
1, 52319, Note_off_c, 1, 74, 0
1, 52319, Note_off_c, 1, 49, 0
1, 52320, Note_on_c, 1, 74, 127
1, 52320, Note_on_c, 1, 47, 127
1, 52379, Note_off_c, 1, 47, 0
1, 52380, Note_on_c, 1, 45, 127
1, 52439, Note_off_c, 1, 74, 0
1, 52439, Note_off_c, 1, 45, 0
1, 52440, Note_on_c, 1, 76, 127
1, 52440, Note_on_c, 1, 44, 127
1, 52499, Note_off_c, 1, 76, 0
1, 52499, Note_off_c, 1, 44, 0
1, 52500, Note_on_c, 1, 74, 127
1, 52500, Note_on_c, 1, 40, 127
1, 52559, Note_off_c, 1, 74, 0
1, 52559, Note_off_c, 1, 40, 0
1, 52560, Note_on_c, 1, 74, 127
1, 52560, Note_on_c, 1, 45, 127
1, 52619, Note_off_c, 1, 45, 0
1, 52620, Note_on_c, 1, 52, 127
1, 52679, Note_off_c, 1, 74, 0
1, 52679, Note_off_c, 1, 52, 0
1, 52680, Note_on_c, 1, 73, 127
1, 52680, Note_on_c, 1, 57, 127
1, 52739, Note_off_c, 1, 57, 0
1, 52740, Note_on_c, 1, 56, 127
1, 52799, Note_off_c, 1, 73, 0
1, 52799, Note_off_c, 1, 56, 0
1, 52800, Note_on_c, 1, 73, 127
1, 52800, Note_on_c, 1, 57, 127
1, 52859, Note_off_c, 1, 73, 0
1, 52859, Note_off_c, 1, 57, 0
1, 52860, Note_on_c, 1, 71, 127
1, 52860, Note_on_c, 1, 59, 127
1, 52919, Note_off_c, 1, 71, 0
1, 52919, Note_off_c, 1, 59, 0
1, 52920, Note_on_c, 1, 69, 127
1, 52920, Note_on_c, 1, 61, 127
1, 52979, Note_off_c, 1, 61, 0
1, 52980, Note_on_c, 1, 62, 127
1, 53039, Note_off_c, 1, 69, 0
1, 53039, Note_off_c, 1, 62, 0
1, 53040, Note_on_c, 1, 68, 127
1, 53040, Note_on_c, 1, 64, 127
1, 53099, Note_off_c, 1, 64, 0
1, 53100, Note_on_c, 1, 62, 127
1, 53159, Note_off_c, 1, 68, 0
1, 53159, Note_off_c, 1, 62, 0
1, 53160, Note_on_c, 1, 69, 127
1, 53160, Note_on_c, 1, 61, 127
1, 53219, Note_off_c, 1, 69, 0
1, 53219, Note_off_c, 1, 61, 0
1, 53220, Note_on_c, 1, 73, 127
1, 53220, Note_on_c, 1, 57, 127
1, 53279, Note_off_c, 1, 73, 0
1, 53279, Note_off_c, 1, 57, 0
1, 53280, Note_on_c, 1, 71, 127
1, 53280, Note_on_c, 1, 52, 127
1, 53339, Note_off_c, 1, 52, 0
1, 53340, Note_on_c, 1, 54, 127
1, 53399, Note_off_c, 1, 54, 0
1, 53400, Note_on_c, 1, 56, 127
1, 53459, Note_off_c, 1, 56, 0
1, 53519, Note_off_c, 1, 71, 0
1, 53520, Note_on_c, 1, 73, 127
1, 53520, Note_on_c, 1, 57, 127
1, 53579, Note_off_c, 1, 73, 0
1, 53579, Note_off_c, 1, 57, 0
1, 53580, Note_on_c, 1, 71, 127
1, 53580, Note_on_c, 1, 56, 127
1, 53639, Note_off_c, 1, 71, 0
1, 53639, Note_off_c, 1, 56, 0
1, 53640, Note_on_c, 1, 74, 127
1, 53640, Note_on_c, 1, 54, 127
1, 53699, Note_off_c, 1, 74, 0
1, 53699, Note_off_c, 1, 54, 0
1, 53700, Note_on_c, 1, 73, 127
1, 53700, Note_on_c, 1, 52, 127
1, 53759, Note_off_c, 1, 73, 0
1, 53759, Note_off_c, 1, 52, 0
1, 53760, Note_on_c, 1, 71, 127
1, 53760, Note_on_c, 1, 50, 127
1, 53819, Note_off_c, 1, 71, 0
1, 53819, Note_off_c, 1, 50, 0
1, 53820, Note_on_c, 1, 69, 127
1, 53820, Note_on_c, 1, 54, 127
1, 53879, Note_off_c, 1, 69, 0
1, 53879, Note_off_c, 1, 54, 0
1, 53880, Note_on_c, 1, 68, 127
1, 53880, Note_on_c, 1, 52, 127
1, 53910, Note_off_c, 1, 68, 0
1, 53910, Note_on_c, 1, 69, 127
1, 53939, Note_off_c, 1, 52, 0
1, 53940, Note_off_c, 1, 69, 0
1, 53940, Note_on_c, 1, 71, 127
1, 53940, Note_on_c, 1, 40, 127
1, 53970, Note_off_c, 1, 71, 0
1, 53999, Note_off_c, 1, 40, 0
1, 54000, Note_on_c, 1, 45, 127
1, 54059, Note_off_c, 1, 45, 0
1, 54060, Note_on_c, 1, 47, 127
1, 54089, Note_off_c, 1, 47, 0
1, 54090, Note_on_c, 1, 49, 127
1, 54119, Note_off_c, 1, 49, 0
1, 54120, Note_on_c, 1, 50, 127
1, 54149, Note_off_c, 1, 50, 0
1, 54180, Note_on_c, 1, 54, 127
1, 54209, Note_off_c, 1, 54, 0
1, 54210, Note_on_c, 1, 56, 127
1, 54239, Note_off_c, 1, 56, 0
1, 54240, Note_on_c, 1, 69, 127
1, 54240, Note_on_c, 1, 61, 127
1, 54240, Note_on_c, 1, 57, 127
1, 54240, Note_on_c, 1, 73, 127
1, 54269, Note_off_c, 1, 69, 0
1, 54269, Note_off_c, 1, 61, 0
1, 54269, Note_off_c, 1, 73, 0
1, 54270, Note_on_c, 1, 71, 127
1, 54270, Note_on_c, 1, 59, 127
1, 54299, Note_off_c, 1, 57, 0
1, 54299, Note_off_c, 1, 71, 0
1, 54299, Note_off_c, 1, 59, 0
1, 54300, Note_on_c, 1, 73, 127
1, 54300, Note_on_c, 1, 57, 127
1, 54300, Note_on_c, 1, 45, 127
1, 54300, Note_on_c, 1, 69, 127
1, 54329, Note_off_c, 1, 73, 0
1, 54329, Note_off_c, 1, 57, 0
1, 54329, Note_off_c, 1, 69, 0
1, 54330, Note_on_c, 1, 74, 127
1, 54330, Note_on_c, 1, 59, 127
1, 54330, Note_on_c, 1, 71, 127
1, 54359, Note_off_c, 1, 45, 0
1, 54359, Note_off_c, 1, 74, 0
1, 54359, Note_off_c, 1, 59, 0
1, 54359, Note_off_c, 1, 71, 0
1, 54360, Note_on_c, 1, 76, 127
1, 54360, Note_on_c, 1, 61, 127
1, 54360, Note_on_c, 1, 45, 127
1, 54360, Note_on_c, 1, 73, 127
1, 54419, Note_off_c, 1, 76, 0
1, 54419, Note_off_c, 1, 61, 0
1, 54419, Note_off_c, 1, 45, 0
1, 54419, Note_off_c, 1, 73, 0
1, 54420, Note_on_c, 1, 74, 127
1, 54420, Note_on_c, 1, 59, 127
1, 54420, Note_on_c, 1, 45, 127
1, 54420, Note_on_c, 1, 71, 127
1, 54479, Note_off_c, 1, 74, 0
1, 54479, Note_off_c, 1, 59, 0
1, 54479, Note_off_c, 1, 45, 0
1, 54479, Note_off_c, 1, 71, 0
1, 54480, Note_on_c, 1, 76, 127
1, 54480, Note_on_c, 1, 61, 127
1, 54480, Note_on_c, 1, 43, 127
1, 54480, Note_on_c, 1, 73, 127
1, 54539, Note_off_c, 1, 76, 0
1, 54539, Note_off_c, 1, 61, 0
1, 54539, Note_off_c, 1, 43, 0
1, 54539, Note_off_c, 1, 73, 0
1, 54540, Note_on_c, 1, 74, 127
1, 54540, Note_on_c, 1, 59, 127
1, 54540, Note_on_c, 1, 43, 127
1, 54540, Note_on_c, 1, 71, 127
1, 54599, Note_off_c, 1, 74, 0
1, 54599, Note_off_c, 1, 59, 0
1, 54599, Note_off_c, 1, 43, 0
1, 54599, Note_off_c, 1, 71, 0
1, 54600, Note_on_c, 1, 78, 127
1, 54600, Note_on_c, 1, 62, 127
1, 54600, Note_on_c, 1, 42, 127
1, 54600, Note_on_c, 1, 74, 127
1, 54659, Note_off_c, 1, 62, 0
1, 54659, Note_off_c, 1, 42, 0
1, 54660, Note_on_c, 1, 76, 127
1, 54660, Note_on_c, 1, 61, 127
1, 54719, Note_off_c, 1, 78, 0
1, 54719, Note_off_c, 1, 74, 0
1, 54719, Note_off_c, 1, 76, 0
1, 54719, Note_off_c, 1, 61, 0
1, 54720, Note_on_c, 1, 76, 127
1, 54720, Note_on_c, 1, 61, 127
1, 54720, Note_on_c, 1, 47, 127
1, 54720, Note_on_c, 1, 73, 127
1, 54779, Note_off_c, 1, 61, 0
1, 54780, Note_on_c, 1, 58, 127
1, 54839, Note_off_c, 1, 76, 0
1, 54839, Note_off_c, 1, 73, 0
1, 54839, Note_off_c, 1, 58, 0
1, 54840, Note_on_c, 1, 74, 127
1, 54840, Note_on_c, 1, 59, 127
1, 54840, Note_on_c, 1, 71, 127
1, 54870, Note_off_c, 1, 47, 0
1, 54870, Note_on_c, 1, 49, 127
1, 54899, Note_off_c, 1, 49, 0
1, 54930, Note_on_c, 1, 45, 127
1, 54959, Note_off_c, 1, 59, 0
1, 54959, Note_off_c, 1, 71, 0
1, 54959, Note_off_c, 1, 45, 0
1, 54960, Note_off_c, 1, 74, 0
1, 54960, Note_on_c, 1, 64, 127
1, 54960, Note_on_c, 1, 44, 127
1, 54989, Note_off_c, 1, 44, 0
1, 54990, Note_on_c, 1, 69, 127
1, 55019, Note_off_c, 1, 69, 0
1, 55050, Note_on_c, 1, 42, 127
1, 55079, Note_off_c, 1, 42, 0
1, 55080, Note_on_c, 1, 40, 127
1, 55110, Note_off_c, 1, 64, 0
1, 55110, Note_on_c, 1, 66, 127
1, 55139, Note_off_c, 1, 40, 0
1, 55139, Note_off_c, 1, 66, 0
1, 55140, Note_on_c, 1, 73, 127
1, 55140, Note_on_c, 1, 68, 127
1, 55140, Note_on_c, 1, 40, 127
1, 55140, Note_on_c, 1, 69, 127
1, 55169, Note_off_c, 1, 68, 0
1, 55199, Note_off_c, 1, 73, 0
1, 55199, Note_off_c, 1, 40, 0
1, 55199, Note_off_c, 1, 69, 0
1, 55200, Note_on_c, 1, 74, 127
1, 55200, Note_on_c, 1, 71, 127
1, 55200, Note_on_c, 1, 40, 127
1, 55259, Note_off_c, 1, 74, 0
1, 55259, Note_off_c, 1, 71, 0
1, 55259, Note_off_c, 1, 40, 0
1, 55260, Note_on_c, 1, 73, 127
1, 55260, Note_on_c, 1, 69, 127
1, 55260, Note_on_c, 1, 40, 127
1, 55319, Note_off_c, 1, 73, 0
1, 55319, Note_off_c, 1, 69, 0
1, 55319, Note_off_c, 1, 40, 0
1, 55320, Note_on_c, 1, 76, 127
1, 55320, Note_on_c, 1, 73, 127
1, 55320, Note_on_c, 1, 40, 127
1, 55379, Note_off_c, 1, 40, 0
1, 55380, Note_on_c, 1, 74, 127
1, 55380, Note_on_c, 1, 71, 127
1, 55439, Note_off_c, 1, 76, 0
1, 55439, Note_off_c, 1, 73, 0
1, 55439, Note_off_c, 1, 74, 0
1, 55439, Note_off_c, 1, 71, 0
1, 55440, Note_on_c, 1, 74, 127
1, 55440, Note_on_c, 1, 71, 127
1, 55440, Note_on_c, 1, 45, 127
1, 55500, Note_on_c, 1, 68, 127
1, 55559, Note_off_c, 1, 74, 0
1, 55559, Note_off_c, 1, 71, 0
1, 55559, Note_off_c, 1, 45, 0
1, 55559, Note_off_c, 1, 68, 0
1, 55560, Note_on_c, 1, 73, 127
1, 55560, Note_on_c, 1, 69, 127
1, 55590, Note_on_c, 1, 47, 127
1, 55619, Note_off_c, 1, 47, 0
1, 55620, Note_on_c, 1, 49, 127
1, 55649, Note_off_c, 1, 49, 0
1, 55650, Note_on_c, 1, 50, 127
1, 55679, Note_off_c, 1, 73, 0
1, 55679, Note_off_c, 1, 69, 0
1, 55679, Note_off_c, 1, 50, 0
1, 55680, Note_on_c, 1, 73, 127
1, 55680, Note_on_c, 1, 61, 127
1, 55680, Note_on_c, 1, 52, 127
1, 55680, Note_on_c, 1, 76, 127
1, 55710, Note_on_c, 1, 69, 127
1, 55739, Note_off_c, 1, 73, 0
1, 55739, Note_off_c, 1, 61, 0
1, 55739, Note_off_c, 1, 52, 0
1, 55739, Note_off_c, 1, 76, 0
1, 55739, Note_off_c, 1, 69, 0
1, 55740, Note_on_c, 1, 71, 127
1, 55740, Note_on_c, 1, 59, 127
1, 55740, Note_on_c, 1, 50, 127
1, 55740, Note_on_c, 1, 74, 127
1, 55770, Note_on_c, 1, 68, 127
1, 55799, Note_off_c, 1, 71, 0
1, 55799, Note_off_c, 1, 59, 0
1, 55799, Note_off_c, 1, 50, 0
1, 55799, Note_off_c, 1, 74, 0
1, 55799, Note_off_c, 1, 68, 0
1, 55800, Note_on_c, 1, 69, 127
1, 55800, Note_on_c, 1, 57, 127
1, 55800, Note_on_c, 1, 49, 127
1, 55800, Note_on_c, 1, 73, 127
1, 55830, Note_on_c, 1, 64, 127
1, 55859, Note_off_c, 1, 49, 0
1, 55859, Note_off_c, 1, 64, 0
1, 55860, Note_on_c, 1, 52, 127
1, 55919, Note_off_c, 1, 69, 0
1, 55919, Note_off_c, 1, 57, 0
1, 55919, Note_off_c, 1, 73, 0
1, 55919, Note_off_c, 1, 52, 0
1, 55920, Note_on_c, 1, 68, 127
1, 55920, Note_on_c, 1, 56, 127
1, 55920, Note_on_c, 1, 47, 127
1, 55920, Note_on_c, 1, 71, 127
1, 55950, Note_on_c, 1, 64, 127
1, 55979, Note_off_c, 1, 47, 0
1, 55979, Note_off_c, 1, 64, 0
1, 55980, Note_on_c, 1, 52, 127
1, 56039, Note_off_c, 1, 68, 0
1, 56039, Note_off_c, 1, 56, 0
1, 56039, Note_off_c, 1, 71, 0
1, 56039, Note_off_c, 1, 52, 0
1, 56040, Note_on_c, 1, 69, 127
1, 56040, Note_on_c, 1, 57, 127
1, 56040, Note_on_c, 1, 49, 127
1, 56040, Note_on_c, 1, 73, 127
1, 56070, Note_on_c, 1, 64, 127
1, 56099, Note_off_c, 1, 49, 0
1, 56099, Note_off_c, 1, 64, 0
1, 56100, Note_on_c, 1, 52, 127
1, 56129, Note_off_c, 1, 69, 0
1, 56129, Note_off_c, 1, 57, 0
1, 56129, Note_off_c, 1, 73, 0
1, 56130, Note_on_c, 1, 61, 127
1, 56159, Note_off_c, 1, 52, 0
1, 56159, Note_off_c, 1, 61, 0
1, 56160, Note_on_c, 1, 71, 127
1, 56160, Note_on_c, 1, 59, 127
1, 56160, Note_on_c, 1, 44, 127
1, 56160, Note_on_c, 1, 68, 127
1, 56190, Note_on_c, 1, 64, 127
1, 56219, Note_off_c, 1, 44, 0
1, 56219, Note_off_c, 1, 64, 0
1, 56220, Note_on_c, 1, 52, 127
1, 56279, Note_off_c, 1, 52, 0
1, 56280, Note_on_c, 1, 74, 127
1, 56280, Note_on_c, 1, 40, 127
1, 56309, Note_off_c, 1, 74, 0
1, 56339, Note_off_c, 1, 40, 0
1, 56399, Note_off_c, 1, 59, 0
1, 56399, Note_off_c, 1, 68, 0
1, 56400, Note_off_c, 1, 71, 0
1, 56400, Note_on_c, 1, 73, 127
1, 56400, Note_on_c, 1, 61, 127
1, 56400, Note_on_c, 1, 45, 127
1, 56400, Note_on_c, 1, 69, 127
1, 56459, Note_off_c, 1, 73, 0
1, 56459, Note_off_c, 1, 61, 0
1, 56459, Note_off_c, 1, 45, 0
1, 56459, Note_off_c, 1, 69, 0
1, 56460, Note_on_c, 1, 71, 127
1, 56460, Note_on_c, 1, 59, 127
1, 56460, Note_on_c, 1, 44, 127
1, 56460, Note_on_c, 1, 68, 127
1, 56489, Note_off_c, 1, 71, 0
1, 56489, Note_off_c, 1, 59, 0
1, 56489, Note_off_c, 1, 68, 0
1, 56490, Note_on_c, 1, 73, 127
1, 56490, Note_on_c, 1, 61, 127
1, 56490, Note_on_c, 1, 69, 127
1, 56519, Note_off_c, 1, 44, 0
1, 56519, Note_off_c, 1, 73, 0
1, 56519, Note_off_c, 1, 61, 0
1, 56519, Note_off_c, 1, 69, 0
1, 56520, Note_on_c, 1, 74, 127
1, 56520, Note_on_c, 1, 62, 127
1, 56520, Note_on_c, 1, 42, 127
1, 56520, Note_on_c, 1, 66, 127
1, 56550, Note_on_c, 1, 76, 127
1, 56579, Note_off_c, 1, 74, 0
1, 56579, Note_off_c, 1, 62, 0
1, 56579, Note_off_c, 1, 42, 0
1, 56579, Note_off_c, 1, 66, 0
1, 56579, Note_off_c, 1, 76, 0
1, 56580, Note_on_c, 1, 73, 127
1, 56580, Note_on_c, 1, 61, 127
1, 56580, Note_on_c, 1, 40, 127
1, 56580, Note_on_c, 1, 64, 127
1, 56610, Note_on_c, 1, 74, 127
1, 56639, Note_off_c, 1, 73, 0
1, 56639, Note_off_c, 1, 61, 0
1, 56639, Note_off_c, 1, 40, 0
1, 56639, Note_off_c, 1, 64, 0
1, 56639, Note_off_c, 1, 74, 0
1, 56640, Note_on_c, 1, 71, 127
1, 56640, Note_on_c, 1, 59, 127
1, 56640, Note_on_c, 1, 38, 127
1, 56640, Note_on_c, 1, 62, 127
1, 56670, Note_on_c, 1, 73, 127
1, 56699, Note_off_c, 1, 71, 0
1, 56699, Note_off_c, 1, 59, 0
1, 56699, Note_off_c, 1, 38, 0
1, 56699, Note_off_c, 1, 62, 0
1, 56699, Note_off_c, 1, 73, 0
1, 56700, Note_on_c, 1, 69, 127
1, 56700, Note_on_c, 1, 57, 127
1, 56700, Note_on_c, 1, 42, 127
1, 56700, Note_on_c, 1, 66, 127
1, 56730, Note_on_c, 1, 71, 127
1, 56759, Note_off_c, 1, 69, 0
1, 56759, Note_off_c, 1, 57, 0
1, 56759, Note_off_c, 1, 42, 0
1, 56759, Note_off_c, 1, 66, 0
1, 56759, Note_off_c, 1, 71, 0
1, 56760, Note_on_c, 1, 68, 127
1, 56760, Note_on_c, 1, 56, 127
1, 56760, Note_on_c, 1, 40, 127
1, 56789, Note_off_c, 1, 68, 0
1, 56789, Note_off_c, 1, 56, 0
1, 56790, Note_on_c, 1, 69, 127
1, 56790, Note_on_c, 1, 57, 127
1, 56819, Note_off_c, 1, 40, 0
1, 56819, Note_off_c, 1, 69, 0
1, 56819, Note_off_c, 1, 57, 0
1, 56820, Note_on_c, 1, 71, 127
1, 56820, Note_on_c, 1, 59, 127
1, 56820, Note_on_c, 1, 52, 127
1, 56849, Note_off_c, 1, 71, 0
1, 56849, Note_off_c, 1, 59, 0
1, 56850, Note_on_c, 1, 68, 127
1, 56850, Note_on_c, 1, 56, 127
1, 56879, Note_off_c, 1, 52, 0
1, 56879, Note_off_c, 1, 68, 0
1, 56879, Note_off_c, 1, 56, 0
1, 56880, Note_on_c, 1, 69, 127
1, 56880, Note_on_c, 1, 57, 127
1, 56910, Note_on_c, 1, 73, 127
1, 56939, Note_off_c, 1, 73, 0
1, 56940, Note_on_c, 1, 71, 127
1, 56940, Note_on_c, 1, 56, 127
1, 56940, Note_on_c, 1, 59, 127
1, 56969, Note_off_c, 1, 71, 0
1, 56970, Note_on_c, 1, 74, 127
1, 56999, Note_off_c, 1, 57, 0
1, 56999, Note_off_c, 1, 56, 0
1, 56999, Note_off_c, 1, 59, 0
1, 56999, Note_off_c, 1, 74, 0
1, 57000, Note_on_c, 1, 61, 127
1, 57030, Note_on_c, 1, 76, 127
1, 57059, Note_off_c, 1, 61, 0
1, 57059, Note_off_c, 1, 76, 0
1, 57060, Note_on_c, 1, 62, 127
1, 57090, Note_on_c, 1, 78, 127
1, 57119, Note_off_c, 1, 69, 0
1, 57119, Note_off_c, 1, 62, 0
1, 57119, Note_off_c, 1, 78, 0
1, 57120, Note_on_c, 1, 76, 127
1, 57120, Note_on_c, 1, 69, 127
1, 57120, Note_on_c, 1, 61, 127
1, 57149, Note_off_c, 1, 69, 0
1, 57150, Note_on_c, 1, 68, 127
1, 57179, Note_off_c, 1, 68, 0
1, 57209, Note_off_c, 1, 61, 0
1, 57210, Note_on_c, 1, 71, 127
1, 57210, Note_on_c, 1, 59, 127
1, 57239, Note_off_c, 1, 71, 0
1, 57239, Note_off_c, 1, 59, 0
1, 57240, Note_on_c, 1, 73, 127
1, 57240, Note_on_c, 1, 57, 127
1, 57299, Note_off_c, 1, 73, 0
1, 57300, Note_on_c, 1, 64, 127
1, 57359, Note_off_c, 1, 57, 0
1, 57359, Note_off_c, 1, 64, 0
1, 57360, Note_on_c, 1, 74, 127
1, 57360, Note_on_c, 1, 56, 127
1, 57419, Note_off_c, 1, 74, 0
1, 57479, Note_off_c, 1, 56, 0
1, 57510, Note_off_c, 1, 76, 0
1, 57570, Note_on_c, 1, 78, 127
1, 57599, Note_off_c, 1, 78, 0
1, 57600, Note_on_c, 1, 80, 127
1, 57629, Note_off_c, 1, 80, 0
1, 57690, Note_on_c, 1, 83, 127
1, 57719, Note_off_c, 1, 83, 0
1, 57720, Note_on_c, 1, 81, 127
1, 57749, Note_off_c, 1, 81, 0
1, 57840, Note_on_c, 1, 81, 127
1, 57840, Note_on_c, 1, 64, 127
1, 57840, Note_on_c, 1, 61, 127
1, 57899, Note_off_c, 1, 81, 0
1, 57899, Note_off_c, 1, 64, 0
1, 57899, Note_off_c, 1, 61, 0
1, 57900, Note_on_c, 1, 69, 127
1, 57900, Note_on_c, 1, 59, 127
1, 57900, Note_on_c, 1, 62, 127
1, 57929, Note_off_c, 1, 59, 0
1, 57929, Note_off_c, 1, 62, 0
1, 57930, Note_on_c, 1, 61, 127
1, 57930, Note_on_c, 1, 64, 127
1, 57959, Note_off_c, 1, 69, 0
1, 57959, Note_off_c, 1, 61, 0
1, 57959, Note_off_c, 1, 64, 0
1, 57960, Note_on_c, 1, 78, 127
1, 57960, Note_on_c, 1, 57, 127
1, 57960, Note_on_c, 1, 62, 127
1, 57960, Note_on_c, 1, 66, 127
1, 58019, Note_off_c, 1, 78, 0
1, 58019, Note_off_c, 1, 62, 0
1, 58019, Note_off_c, 1, 66, 0
1, 58020, Note_on_c, 1, 76, 127
1, 58020, Note_on_c, 1, 61, 127
1, 58020, Note_on_c, 1, 64, 127
1, 58079, Note_off_c, 1, 57, 0
1, 58079, Note_off_c, 1, 76, 0
1, 58079, Note_off_c, 1, 61, 0
1, 58079, Note_off_c, 1, 64, 0
1, 58080, Note_on_c, 1, 74, 127
1, 58080, Note_on_c, 1, 59, 127
1, 58080, Note_on_c, 1, 62, 127
1, 58139, Note_off_c, 1, 74, 0
1, 58139, Note_off_c, 1, 59, 0
1, 58139, Note_off_c, 1, 62, 0
1, 58140, Note_on_c, 1, 73, 127
1, 58140, Note_on_c, 1, 69, 127
1, 58140, Note_on_c, 1, 57, 127
1, 58140, Note_on_c, 1, 61, 127
1, 58199, Note_off_c, 1, 73, 0
1, 58199, Note_off_c, 1, 69, 0
1, 58199, Note_off_c, 1, 57, 0
1, 58199, Note_off_c, 1, 61, 0
1, 58200, Note_on_c, 1, 71, 127
1, 58200, Note_on_c, 1, 68, 127
1, 58200, Note_on_c, 1, 64, 127
1, 58230, Note_on_c, 1, 74, 127
1, 58230, Note_on_c, 1, 66, 127
1, 58259, Note_off_c, 1, 64, 0
1, 58259, Note_off_c, 1, 74, 0
1, 58259, Note_off_c, 1, 66, 0
1, 58260, Note_on_c, 1, 73, 127
1, 58260, Note_on_c, 1, 52, 127
1, 58289, Note_off_c, 1, 73, 0
1, 58290, Note_on_c, 1, 62, 127
1, 58319, Note_off_c, 1, 52, 0
1, 58319, Note_off_c, 1, 62, 0
1, 58320, Note_off_c, 1, 71, 0
1, 58320, Note_off_c, 1, 68, 0
1, 58320, Note_on_c, 1, 69, 127
1, 58320, Note_on_c, 1, 61, 127
1, 58320, Note_on_c, 1, 57, 127
1, 58439, Note_off_c, 1, 57, 0
1, 58440, Note_on_c, 1, 45, 127
1, 58559, Note_off_c, 1, 69, 0
1, 58559, Note_off_c, 1, 61, 0
1, 58559, Note_off_c, 1, 45, 0
1, 58680, Note_on_c, 1, 42, 127
1, 58695, Note_on_c, 1, 57, 127
1, 58710, Note_on_c, 1, 61, 127
1, 58725, Note_on_c, 1, 66, 127
1, 58920, Note_on_c, 1, 54, 127
1, 59040, Note_off_c, 1, 54, 0
1, 59160, Note_on_c, 1, 51, 127
1, 59280, Note_off_c, 1, 51, 0
1, 59399, Note_off_c, 1, 57, 0
1, 59399, Note_off_c, 1, 61, 0
1, 59399, Note_off_c, 1, 66, 0
1, 59400, Note_off_c, 1, 42, 0
1, 59400, Note_on_c, 1, 39, 127
1, 59400, Note_on_c, 1, 71, 127
1, 59400, Note_on_c, 1, 63, 127
1, 59460, Note_on_c, 1, 59, 127
1, 59520, Note_off_c, 1, 59, 0
1, 59640, Note_off_c, 1, 71, 0
1, 59640, Note_on_c, 1, 69, 127
1, 59820, Note_on_c, 1, 55, 127
1, 59880, Note_off_c, 1, 39, 0
1, 59880, Note_off_c, 1, 63, 0
1, 59880, Note_off_c, 1, 69, 0
1, 59880, Note_on_c, 1, 40, 127
1, 59880, Note_on_c, 1, 64, 127
1, 60000, Note_off_c, 1, 55, 0
1, 60000, Note_off_c, 1, 40, 0
1, 60000, Note_on_c, 1, 50, 127
1, 60000, Note_on_c, 1, 67, 127
1, 60030, Note_on_c, 1, 52, 127
1, 60060, Note_off_c, 1, 52, 0
1, 60120, Note_off_c, 1, 50, 0
1, 60120, Note_off_c, 1, 67, 0
1, 60120, Note_on_c, 1, 49, 127
1, 60150, Note_off_c, 1, 49, 0
1, 60150, Note_on_c, 1, 45, 127
1, 60180, Note_off_c, 1, 45, 0
1, 60240, Note_off_c, 1, 64, 0
1, 60600, Note_on_c, 1, 62, 127
1, 60960, Note_off_c, 1, 62, 0
1, 60960, Note_on_c, 1, 60, 127
1, 61080, Note_off_c, 1, 60, 0
1, 61080, Note_on_c, 1, 43, 127
1, 61200, Note_off_c, 1, 43, 0
1, 61200, Note_on_c, 1, 47, 127
1, 61320, Note_off_c, 1, 47, 0
1, 61560, Note_on_c, 1, 38, 127
1, 62040, Note_off_c, 1, 38, 0
1, 62100, Note_on_c, 1, 52, 127
1, 62159, Note_off_c, 1, 52, 0
1, 62160, Note_on_c, 1, 54, 127
1, 62160, Note_on_c, 1, 50, 127
1, 62219, Note_off_c, 1, 54, 0
1, 62219, Note_off_c, 1, 50, 0
1, 62220, Note_on_c, 1, 55, 127
1, 62220, Note_on_c, 1, 52, 127
1, 62279, Note_off_c, 1, 55, 0
1, 62279, Note_off_c, 1, 52, 0
1, 62280, Note_on_c, 1, 57, 127
1, 62280, Note_on_c, 1, 54, 127
1, 62339, Note_off_c, 1, 57, 0
1, 62339, Note_off_c, 1, 54, 0
1, 62340, Note_on_c, 1, 59, 127
1, 62340, Note_on_c, 1, 55, 127
1, 62399, Note_off_c, 1, 59, 0
1, 62399, Note_off_c, 1, 55, 0
1, 62400, Note_on_c, 1, 55, 127
1, 62400, Note_on_c, 1, 52, 127
1, 62459, Note_off_c, 1, 55, 0
1, 62459, Note_off_c, 1, 52, 0
1, 62460, Note_on_c, 1, 54, 127
1, 62460, Note_on_c, 1, 50, 127
1, 62519, Note_off_c, 1, 54, 0
1, 62519, Note_off_c, 1, 50, 0
1, 62520, Note_on_c, 1, 52, 127
1, 62520, Note_on_c, 1, 57, 127
1, 62579, Note_off_c, 1, 57, 0
1, 62580, Note_on_c, 1, 59, 127
1, 62639, Note_off_c, 1, 59, 0
1, 62640, Note_on_c, 1, 61, 127
1, 62699, Note_off_c, 1, 61, 0
1, 62700, Note_on_c, 1, 62, 127
1, 62759, Note_off_c, 1, 52, 0
1, 62759, Note_off_c, 1, 62, 0
1, 62760, Note_on_c, 1, 57, 127
1, 62760, Note_on_c, 1, 61, 127
1, 62819, Note_off_c, 1, 57, 0
1, 62819, Note_off_c, 1, 61, 0
1, 62820, Note_on_c, 1, 56, 127
1, 62820, Note_on_c, 1, 59, 127
1, 62879, Note_off_c, 1, 56, 0
1, 62879, Note_off_c, 1, 59, 0
1, 62880, Note_on_c, 1, 57, 127
1, 62939, Note_off_c, 1, 57, 0
1, 62940, Note_on_c, 1, 59, 127
1, 62940, Note_on_c, 1, 56, 127
1, 62999, Note_off_c, 1, 59, 0
1, 62999, Note_off_c, 1, 56, 0
1, 63000, Note_on_c, 1, 61, 127
1, 63000, Note_on_c, 1, 57, 127
1, 63059, Note_off_c, 1, 61, 0
1, 63059, Note_off_c, 1, 57, 0
1, 63060, Note_on_c, 1, 64, 127
1, 63060, Note_on_c, 1, 49, 127
1, 63089, Note_off_c, 1, 49, 0
1, 63090, Note_on_c, 1, 50, 127
1, 63119, Note_off_c, 1, 64, 0
1, 63119, Note_off_c, 1, 50, 0
1, 63120, Note_on_c, 1, 52, 127
1, 63179, Note_off_c, 1, 52, 0
1, 63180, Note_on_c, 1, 57, 127
1, 63180, Note_on_c, 1, 40, 127
1, 63209, Note_off_c, 1, 57, 0
1, 63210, Note_on_c, 1, 56, 127
1, 63239, Note_off_c, 1, 40, 0
1, 63239, Note_off_c, 1, 56, 0
1, 63240, Note_on_c, 1, 57, 127
1, 63240, Note_on_c, 1, 45, 127
1, 63299, Note_off_c, 1, 45, 0
1, 63300, Note_on_c, 1, 47, 127
1, 63359, Note_off_c, 1, 57, 0
1, 63359, Note_off_c, 1, 47, 0
1, 63360, Note_on_c, 1, 55, 127
1, 63360, Note_on_c, 1, 49, 127
1, 63419, Note_off_c, 1, 49, 0
1, 63420, Note_on_c, 1, 45, 127
1, 63479, Note_off_c, 1, 55, 0
1, 63479, Note_off_c, 1, 45, 0
1, 63480, Note_on_c, 1, 62, 127
1, 63480, Note_on_c, 1, 50, 127
1, 63539, Note_off_c, 1, 62, 0
1, 63539, Note_off_c, 1, 50, 0
1, 63540, Note_on_c, 1, 64, 127
1, 63540, Note_on_c, 1, 49, 127
1, 63599, Note_off_c, 1, 64, 0
1, 63599, Note_off_c, 1, 49, 0
1, 63600, Note_on_c, 1, 66, 127
1, 63600, Note_on_c, 1, 62, 127
1, 63600, Note_on_c, 1, 50, 127
1, 63659, Note_off_c, 1, 66, 0
1, 63659, Note_off_c, 1, 62, 0
1, 63660, Note_on_c, 1, 67, 127
1, 63660, Note_on_c, 1, 61, 127
1, 63660, Note_on_c, 1, 52, 127
1, 63719, Note_off_c, 1, 50, 0
1, 63719, Note_off_c, 1, 67, 0
1, 63719, Note_off_c, 1, 61, 0
1, 63719, Note_off_c, 1, 52, 0
1, 63720, Note_on_c, 1, 69, 127
1, 63720, Note_on_c, 1, 62, 127
1, 63720, Note_on_c, 1, 54, 127
1, 63779, Note_off_c, 1, 69, 0
1, 63779, Note_off_c, 1, 54, 0
1, 63780, Note_on_c, 1, 71, 127
1, 63780, Note_on_c, 1, 55, 127
1, 63780, Note_on_c, 1, 47, 127
1, 63839, Note_off_c, 1, 62, 0
1, 63839, Note_off_c, 1, 71, 0
1, 63839, Note_off_c, 1, 55, 0
1, 63839, Note_off_c, 1, 47, 0
1, 63840, Note_on_c, 1, 67, 127
1, 63840, Note_on_c, 1, 52, 127
1, 63840, Note_on_c, 1, 49, 127
1, 63899, Note_off_c, 1, 67, 0
1, 63899, Note_off_c, 1, 52, 0
1, 63899, Note_off_c, 1, 49, 0
1, 63900, Note_on_c, 1, 66, 127
1, 63900, Note_on_c, 1, 62, 127
1, 63900, Note_on_c, 1, 57, 127
1, 63900, Note_on_c, 1, 50, 127
1, 63959, Note_off_c, 1, 66, 0
1, 63959, Note_off_c, 1, 62, 0
1, 63959, Note_off_c, 1, 57, 0
1, 63959, Note_off_c, 1, 50, 0
1, 63960, Note_on_c, 1, 64, 127
1, 63960, Note_on_c, 1, 61, 127
1, 63960, Note_on_c, 1, 57, 127
1, 63960, Note_on_c, 1, 47, 127
1, 64019, Note_off_c, 1, 61, 0
1, 64019, Note_off_c, 1, 57, 0
1, 64020, Note_on_c, 1, 59, 127
1, 64020, Note_on_c, 1, 55, 127
1, 64049, Note_off_c, 1, 55, 0
1, 64050, Note_on_c, 1, 54, 127
1, 64079, Note_off_c, 1, 47, 0
1, 64079, Note_off_c, 1, 59, 0
1, 64079, Note_off_c, 1, 54, 0
1, 64080, Note_on_c, 1, 52, 127
1, 64140, Note_on_c, 1, 62, 127
1, 64199, Note_off_c, 1, 64, 0
1, 64199, Note_off_c, 1, 52, 0
1, 64199, Note_off_c, 1, 62, 0
1, 64200, Note_on_c, 1, 69, 127
1, 64200, Note_on_c, 1, 64, 127
1, 64200, Note_on_c, 1, 49, 127
1, 64259, Note_off_c, 1, 69, 0
1, 64259, Note_off_c, 1, 49, 0
1, 64260, Note_on_c, 1, 68, 127
1, 64260, Note_on_c, 1, 50, 127
1, 64289, Note_off_c, 1, 50, 0
1, 64290, Note_on_c, 1, 52, 127
1, 64319, Note_off_c, 1, 64, 0
1, 64319, Note_off_c, 1, 68, 0
1, 64319, Note_off_c, 1, 52, 0
1, 64320, Note_on_c, 1, 69, 127
1, 64320, Note_on_c, 1, 57, 127
1, 64320, Note_on_c, 1, 54, 127
1, 64379, Note_off_c, 1, 69, 0
1, 64379, Note_off_c, 1, 57, 0
1, 64380, Note_on_c, 1, 71, 127
1, 64380, Note_on_c, 1, 56, 127
1, 64439, Note_off_c, 1, 54, 0
1, 64439, Note_off_c, 1, 71, 0
1, 64439, Note_off_c, 1, 56, 0
1, 64440, Note_on_c, 1, 73, 127
1, 64440, Note_on_c, 1, 57, 127
1, 64499, Note_off_c, 1, 73, 0
1, 64499, Note_off_c, 1, 57, 0
1, 64500, Note_on_c, 1, 76, 127
1, 64500, Note_on_c, 1, 56, 127
1, 64500, Note_on_c, 1, 59, 127
1, 64500, Note_on_c, 1, 52, 127
1, 64529, Note_off_c, 1, 52, 0
1, 64530, Note_on_c, 1, 50, 127
1, 64559, Note_off_c, 1, 76, 0
1, 64559, Note_off_c, 1, 56, 0
1, 64559, Note_off_c, 1, 59, 0
1, 64559, Note_off_c, 1, 50, 0
1, 64560, Note_on_c, 1, 64, 127
1, 64560, Note_on_c, 1, 57, 127
1, 64560, Note_on_c, 1, 61, 127
1, 64560, Note_on_c, 1, 52, 127
1, 64619, Note_off_c, 1, 64, 0
1, 64619, Note_off_c, 1, 57, 0
1, 64619, Note_off_c, 1, 61, 0
1, 64619, Note_off_c, 1, 52, 0
1, 64620, Note_on_c, 1, 69, 127
1, 64620, Note_on_c, 1, 59, 127
1, 64620, Note_on_c, 1, 64, 127
1, 64620, Note_on_c, 1, 40, 127
1, 64649, Note_off_c, 1, 69, 0
1, 64650, Note_on_c, 1, 68, 127
1, 64679, Note_off_c, 1, 59, 0
1, 64679, Note_off_c, 1, 64, 0
1, 64679, Note_off_c, 1, 40, 0
1, 64679, Note_off_c, 1, 68, 0
1, 64680, Note_on_c, 1, 69, 127
1, 64680, Note_on_c, 1, 61, 127
1, 64680, Note_on_c, 1, 62, 127
1, 64680, Note_on_c, 1, 45, 127
1, 64709, Note_off_c, 1, 62, 0
1, 64739, Note_off_c, 1, 61, 0
1, 64739, Note_off_c, 1, 45, 0
1, 64740, Note_on_c, 1, 59, 127
1, 64740, Note_on_c, 1, 47, 127
1, 64769, Note_off_c, 1, 59, 0
1, 64799, Note_off_c, 1, 47, 0
1, 64800, Note_on_c, 1, 64, 127
1, 64800, Note_on_c, 1, 57, 127
1, 64800, Note_on_c, 1, 49, 127
1, 64859, Note_off_c, 1, 64, 0
1, 64859, Note_off_c, 1, 49, 0
1, 64919, Note_off_c, 1, 69, 0
1, 64919, Note_off_c, 1, 57, 0
1, 64920, Note_on_c, 1, 66, 127
1, 64920, Note_on_c, 1, 59, 127
1, 64920, Note_on_c, 1, 51, 127
1, 64979, Note_off_c, 1, 59, 0
1, 64980, Note_on_c, 1, 57, 127
1, 65039, Note_off_c, 1, 66, 0
1, 65039, Note_off_c, 1, 51, 0
1, 65039, Note_off_c, 1, 57, 0
1, 65040, Note_on_c, 1, 59, 127
1, 65099, Note_off_c, 1, 59, 0
1, 65100, Note_on_c, 1, 63, 127
1, 65100, Note_on_c, 1, 57, 127
1, 65100, Note_on_c, 1, 47, 127
1, 65159, Note_off_c, 1, 63, 0
1, 65159, Note_off_c, 1, 57, 0
1, 65159, Note_off_c, 1, 47, 0
1, 65160, Note_on_c, 1, 64, 127
1, 65160, Note_on_c, 1, 55, 127
1, 65160, Note_on_c, 1, 52, 127
1, 65219, Note_off_c, 1, 64, 0
1, 65219, Note_off_c, 1, 52, 0
1, 65220, Note_on_c, 1, 66, 127
1, 65220, Note_on_c, 1, 50, 127
1, 65279, Note_off_c, 1, 55, 0
1, 65279, Note_off_c, 1, 66, 0
1, 65279, Note_off_c, 1, 50, 0
1, 65280, Note_on_c, 1, 76, 127
1, 65280, Note_on_c, 1, 67, 127
1, 65280, Note_on_c, 1, 49, 127
1, 65339, Note_off_c, 1, 76, 0
1, 65339, Note_off_c, 1, 67, 0
1, 65340, Note_on_c, 1, 74, 127
1, 65340, Note_on_c, 1, 66, 127
1, 65399, Note_off_c, 1, 49, 0
1, 65399, Note_off_c, 1, 74, 0
1, 65399, Note_off_c, 1, 66, 0
1, 65400, Note_on_c, 1, 76, 127
1, 65400, Note_on_c, 1, 67, 127
1, 65459, Note_off_c, 1, 76, 0
1, 65459, Note_off_c, 1, 67, 0
1, 65460, Note_on_c, 1, 74, 127
1, 65460, Note_on_c, 1, 66, 127
1, 65460, Note_on_c, 1, 45, 127
1, 65519, Note_off_c, 1, 74, 0
1, 65519, Note_off_c, 1, 66, 0
1, 65519, Note_off_c, 1, 45, 0
1, 65520, Note_on_c, 1, 73, 127
1, 65520, Note_on_c, 1, 64, 127
1, 65520, Note_on_c, 1, 57, 127
1, 65579, Note_off_c, 1, 64, 0
1, 65579, Note_off_c, 1, 57, 0
1, 65580, Note_on_c, 1, 66, 127
1, 65580, Note_on_c, 1, 55, 127
1, 65609, Note_off_c, 1, 66, 0
1, 65610, Note_on_c, 1, 67, 127
1, 65639, Note_off_c, 1, 73, 0
1, 65639, Note_off_c, 1, 55, 0
1, 65639, Note_off_c, 1, 67, 0
1, 65640, Note_on_c, 1, 69, 127
1, 65640, Note_on_c, 1, 60, 127
1, 65640, Note_on_c, 1, 54, 127
1, 65699, Note_off_c, 1, 69, 0
1, 65699, Note_off_c, 1, 60, 0
1, 65699, Note_off_c, 1, 54, 0
1, 65700, Note_on_c, 1, 67, 127
1, 65700, Note_on_c, 1, 59, 127
1, 65700, Note_on_c, 1, 55, 127
1, 65759, Note_off_c, 1, 67, 0
1, 65759, Note_off_c, 1, 59, 0
1, 65759, Note_off_c, 1, 55, 0
1, 65760, Note_on_c, 1, 66, 127
1, 65760, Note_on_c, 1, 60, 127
1, 65760, Note_on_c, 1, 57, 127
1, 65819, Note_off_c, 1, 66, 0
1, 65819, Note_off_c, 1, 60, 0
1, 65819, Note_off_c, 1, 57, 0
1, 65820, Note_on_c, 1, 67, 127
1, 65820, Note_on_c, 1, 59, 127
1, 65820, Note_on_c, 1, 55, 127
1, 65879, Note_off_c, 1, 67, 0
1, 65879, Note_off_c, 1, 59, 0
1, 65879, Note_off_c, 1, 55, 0
1, 65880, Note_on_c, 1, 69, 127
1, 65880, Note_on_c, 1, 57, 127
1, 65880, Note_on_c, 1, 54, 127
1, 65939, Note_off_c, 1, 69, 0
1, 65939, Note_off_c, 1, 54, 0
1, 65940, Note_on_c, 1, 67, 127
1, 65940, Note_on_c, 1, 52, 127
1, 65999, Note_off_c, 1, 57, 0
1, 65999, Note_off_c, 1, 67, 0
1, 65999, Note_off_c, 1, 52, 0
1, 66000, Note_on_c, 1, 74, 127
1, 66000, Note_on_c, 1, 66, 127
1, 66000, Note_on_c, 1, 50, 127
1, 66059, Note_off_c, 1, 74, 0
1, 66059, Note_off_c, 1, 66, 0
1, 66059, Note_off_c, 1, 50, 0
1, 66060, Note_on_c, 1, 72, 127
1, 66060, Note_on_c, 1, 67, 127
1, 66060, Note_on_c, 1, 52, 127
1, 66119, Note_off_c, 1, 72, 0
1, 66119, Note_off_c, 1, 67, 0
1, 66119, Note_off_c, 1, 52, 0
1, 66120, Note_on_c, 1, 74, 127
1, 66120, Note_on_c, 1, 69, 127
1, 66120, Note_on_c, 1, 54, 127
1, 66179, Note_off_c, 1, 74, 0
1, 66179, Note_off_c, 1, 69, 0
1, 66179, Note_off_c, 1, 54, 0
1, 66180, Note_on_c, 1, 72, 127
1, 66180, Note_on_c, 1, 67, 127
1, 66180, Note_on_c, 1, 52, 127
1, 66209, Note_off_c, 1, 67, 0
1, 66209, Note_off_c, 1, 52, 0
1, 66210, Note_on_c, 1, 69, 127
1, 66210, Note_on_c, 1, 54, 127
1, 66239, Note_off_c, 1, 72, 0
1, 66239, Note_off_c, 1, 69, 0
1, 66239, Note_off_c, 1, 54, 0
1, 66240, Note_on_c, 1, 71, 127
1, 66240, Note_on_c, 1, 62, 127
1, 66240, Note_on_c, 1, 55, 127
1, 66299, Note_off_c, 1, 71, 0
1, 66299, Note_off_c, 1, 62, 0
1, 66299, Note_off_c, 1, 55, 0
1, 66300, Note_on_c, 1, 73, 127
1, 66300, Note_on_c, 1, 64, 127
1, 66300, Note_on_c, 1, 54, 127
1, 66329, Note_off_c, 1, 73, 0
1, 66329, Note_off_c, 1, 64, 0
1, 66330, Note_on_c, 1, 74, 127
1, 66330, Note_on_c, 1, 66, 127
1, 66359, Note_off_c, 1, 54, 0
1, 66359, Note_off_c, 1, 74, 0
1, 66359, Note_off_c, 1, 66, 0
1, 66360, Note_on_c, 1, 76, 127
1, 66360, Note_on_c, 1, 59, 127
1, 66360, Note_on_c, 1, 55, 127
1, 66360, Note_on_c, 1, 52, 127
1, 66419, Note_off_c, 1, 76, 0
1, 66419, Note_off_c, 1, 59, 0
1, 66419, Note_off_c, 1, 55, 0
1, 66420, Note_on_c, 1, 78, 127
1, 66420, Note_on_c, 1, 61, 127
1, 66420, Note_on_c, 1, 57, 127
1, 66449, Note_off_c, 1, 61, 0
1, 66450, Note_on_c, 1, 62, 127
1, 66479, Note_off_c, 1, 52, 0
1, 66479, Note_off_c, 1, 78, 0
1, 66479, Note_off_c, 1, 57, 0
1, 66479, Note_off_c, 1, 62, 0
1, 66480, Note_on_c, 1, 76, 127
1, 66480, Note_on_c, 1, 64, 127
1, 66480, Note_on_c, 1, 55, 127
1, 66539, Note_off_c, 1, 76, 0
1, 66539, Note_off_c, 1, 55, 0
1, 66540, Note_on_c, 1, 74, 127
1, 66540, Note_on_c, 1, 54, 127
1, 66599, Note_off_c, 1, 74, 0
1, 66599, Note_off_c, 1, 54, 0
1, 66600, Note_on_c, 1, 73, 127
1, 66600, Note_on_c, 1, 52, 127
1, 66600, Note_on_c, 1, 57, 127
1, 66659, Note_off_c, 1, 64, 0
1, 66659, Note_off_c, 1, 73, 0
1, 66659, Note_off_c, 1, 57, 0
1, 66660, Note_on_c, 1, 71, 127
1, 66689, Note_off_c, 1, 71, 0
1, 66690, Note_on_c, 1, 69, 127
1, 66719, Note_off_c, 1, 52, 0
1, 66719, Note_off_c, 1, 69, 0
1, 66720, Note_on_c, 1, 74, 127
1, 66720, Note_on_c, 1, 69, 127
1, 66720, Note_on_c, 1, 50, 127
1, 66720, Note_on_c, 1, 54, 127
1, 66779, Note_off_c, 1, 69, 0
1, 66779, Note_off_c, 1, 50, 0
1, 66779, Note_off_c, 1, 54, 0
1, 66780, Note_on_c, 1, 67, 127
1, 66780, Note_on_c, 1, 52, 127
1, 66839, Note_off_c, 1, 74, 0
1, 66839, Note_off_c, 1, 67, 0
1, 66839, Note_off_c, 1, 52, 0
1, 66840, Note_on_c, 1, 62, 127
1, 66840, Note_on_c, 1, 66, 127
1, 66840, Note_on_c, 1, 54, 127
1, 66840, Note_on_c, 1, 50, 127
1, 66899, Note_off_c, 1, 62, 0
1, 66899, Note_off_c, 1, 66, 0
1, 66899, Note_off_c, 1, 54, 0
1, 66900, Note_on_c, 1, 64, 127
1, 66900, Note_on_c, 1, 55, 127
1, 66959, Note_off_c, 1, 50, 0
1, 66959, Note_off_c, 1, 64, 0
1, 66959, Note_off_c, 1, 55, 0
1, 66960, Note_on_c, 1, 66, 127
1, 66960, Note_on_c, 1, 62, 127
1, 66960, Note_on_c, 1, 57, 127
1, 66960, Note_on_c, 1, 50, 127
1, 67019, Note_off_c, 1, 66, 0
1, 67019, Note_off_c, 1, 62, 0
1, 67019, Note_off_c, 1, 57, 0
1, 67020, Note_on_c, 1, 67, 127
1, 67020, Note_on_c, 1, 64, 127
1, 67020, Note_on_c, 1, 59, 127
1, 67079, Note_off_c, 1, 50, 0
1, 67079, Note_off_c, 1, 67, 0
1, 67079, Note_off_c, 1, 64, 0
1, 67079, Note_off_c, 1, 59, 0
1, 67080, Note_on_c, 1, 64, 127
1, 67080, Note_on_c, 1, 61, 127
1, 67080, Note_on_c, 1, 55, 127
1, 67080, Note_on_c, 1, 50, 127
1, 67139, Note_off_c, 1, 64, 0
1, 67139, Note_off_c, 1, 61, 0
1, 67139, Note_off_c, 1, 55, 0
1, 67140, Note_on_c, 1, 62, 127
1, 67140, Note_on_c, 1, 54, 127
1, 67199, Note_off_c, 1, 62, 0
1, 67199, Note_off_c, 1, 54, 0
1, 67200, Note_on_c, 1, 69, 127
1, 67200, Note_on_c, 1, 52, 127
1, 67259, Note_off_c, 1, 50, 0
1, 67260, Note_on_c, 1, 49, 127
1, 67289, Note_off_c, 1, 49, 0
1, 67290, Note_on_c, 1, 47, 127
1, 67319, Note_off_c, 1, 52, 0
1, 67319, Note_off_c, 1, 47, 0
1, 67380, Note_off_c, 1, 69, 0
1, 67380, Note_on_c, 1, 71, 127
1, 67380, Note_on_c, 1, 45, 127
1, 67410, Note_off_c, 1, 71, 0
1, 67410, Note_on_c, 1, 73, 127
1, 67439, Note_off_c, 1, 45, 0
1, 67440, Note_off_c, 1, 73, 0
1, 67440, Note_on_c, 1, 74, 127
1, 67499, Note_off_c, 1, 74, 0
1, 67500, Note_on_c, 1, 74, 127
1, 67500, Note_on_c, 1, 69, 127
1, 67500, Note_on_c, 1, 52, 127
1, 67500, Note_on_c, 1, 45, 127
1, 67529, Note_off_c, 1, 74, 0
1, 67530, Note_on_c, 1, 73, 127
1, 67559, Note_off_c, 1, 69, 0
1, 67559, Note_off_c, 1, 52, 0
1, 67559, Note_off_c, 1, 45, 0
1, 67559, Note_off_c, 1, 73, 0
1, 67560, Note_on_c, 1, 74, 127
1, 67560, Note_on_c, 1, 57, 127
1, 67560, Note_on_c, 1, 50, 127
1, 67560, Note_on_c, 1, 42, 127
1, 67619, Note_off_c, 1, 74, 0
1, 67619, Note_off_c, 1, 57, 0
1, 67619, Note_off_c, 1, 42, 0
1, 67620, Note_on_c, 1, 69, 127
1, 67620, Note_on_c, 1, 59, 127
1, 67620, Note_on_c, 1, 45, 127
1, 67649, Note_off_c, 1, 59, 0
1, 67650, Note_on_c, 1, 61, 127
1, 67679, Note_off_c, 1, 69, 0
1, 67679, Note_off_c, 1, 45, 0
1, 67679, Note_off_c, 1, 61, 0
1, 67680, Note_on_c, 1, 66, 127
1, 67680, Note_on_c, 1, 62, 127
1, 67680, Note_on_c, 1, 38, 127
1, 67739, Note_off_c, 1, 66, 0
1, 67739, Note_off_c, 1, 38, 0
1, 67740, Note_on_c, 1, 67, 127
1, 67740, Note_on_c, 1, 40, 127
1, 67769, Note_off_c, 1, 67, 0
1, 67769, Note_off_c, 1, 40, 0
1, 67799, Note_off_c, 1, 50, 0
1, 67800, Note_on_c, 1, 71, 127
1, 67800, Note_on_c, 1, 43, 127
1, 67859, Note_off_c, 1, 62, 0
1, 67859, Note_off_c, 1, 71, 0
1, 67860, Note_on_c, 1, 60, 127
1, 67919, Note_off_c, 1, 43, 0
1, 67919, Note_off_c, 1, 60, 0
1, 67920, Note_on_c, 1, 71, 127
1, 67920, Note_on_c, 1, 62, 127
1, 67979, Note_off_c, 1, 71, 0
1, 67979, Note_off_c, 1, 62, 0
1, 67980, Note_on_c, 1, 69, 127
1, 67980, Note_on_c, 1, 63, 127
1, 67980, Note_on_c, 1, 42, 127
1, 68039, Note_off_c, 1, 69, 0
1, 68039, Note_off_c, 1, 63, 0
1, 68039, Note_off_c, 1, 42, 0
1, 68040, Note_on_c, 1, 67, 127
1, 68040, Note_on_c, 1, 64, 127
1, 68040, Note_on_c, 1, 40, 127
1, 68099, Note_off_c, 1, 64, 0
1, 68099, Note_off_c, 1, 40, 0
1, 68100, Note_on_c, 1, 62, 127
1, 68100, Note_on_c, 1, 42, 127
1, 68129, Note_off_c, 1, 42, 0
1, 68130, Note_on_c, 1, 43, 127
1, 68159, Note_off_c, 1, 67, 0
1, 68159, Note_off_c, 1, 62, 0
1, 68159, Note_off_c, 1, 43, 0
1, 68160, Note_on_c, 1, 67, 127
1, 68160, Note_on_c, 1, 61, 127
1, 68160, Note_on_c, 1, 52, 127
1, 68160, Note_on_c, 1, 45, 127
1, 68219, Note_off_c, 1, 67, 0
1, 68219, Note_off_c, 1, 52, 0
1, 68220, Note_on_c, 1, 69, 127
1, 68220, Note_on_c, 1, 54, 127
1, 68279, Note_off_c, 1, 61, 0
1, 68279, Note_off_c, 1, 45, 0
1, 68279, Note_off_c, 1, 69, 0
1, 68279, Note_off_c, 1, 54, 0
1, 68280, Note_on_c, 1, 67, 127
1, 68280, Note_on_c, 1, 52, 127
1, 68339, Note_off_c, 1, 67, 0
1, 68339, Note_off_c, 1, 52, 0
1, 68340, Note_on_c, 1, 66, 127
1, 68340, Note_on_c, 1, 62, 127
1, 68340, Note_on_c, 1, 50, 127
1, 68340, Note_on_c, 1, 47, 127
1, 68399, Note_off_c, 1, 66, 0
1, 68399, Note_off_c, 1, 62, 0
1, 68399, Note_off_c, 1, 50, 0
1, 68399, Note_off_c, 1, 47, 0
1, 68400, Note_on_c, 1, 64, 127
1, 68400, Note_on_c, 1, 57, 127
1, 68400, Note_on_c, 1, 49, 127
1, 68459, Note_off_c, 1, 49, 0
1, 68460, Note_on_c, 1, 61, 127
1, 68460, Note_on_c, 1, 50, 127
1, 68489, Note_off_c, 1, 50, 0
1, 68490, Note_on_c, 1, 52, 127
1, 68519, Note_off_c, 1, 64, 0
1, 68519, Note_off_c, 1, 57, 0
1, 68519, Note_off_c, 1, 61, 0
1, 68519, Note_off_c, 1, 52, 0
1, 68520, Note_on_c, 1, 62, 127
1, 68520, Note_on_c, 1, 57, 127
1, 68520, Note_on_c, 1, 54, 127
1, 68579, Note_off_c, 1, 62, 0
1, 68579, Note_off_c, 1, 54, 0
1, 68580, Note_on_c, 1, 64, 127
1, 68580, Note_on_c, 1, 52, 127
1, 68639, Note_off_c, 1, 57, 0
1, 68639, Note_off_c, 1, 64, 0
1, 68639, Note_off_c, 1, 52, 0
1, 68640, Note_on_c, 1, 66, 127
1, 68640, Note_on_c, 1, 57, 127
1, 68640, Note_on_c, 1, 62, 127
1, 68640, Note_on_c, 1, 50, 127
1, 68699, Note_off_c, 1, 66, 0
1, 68699, Note_off_c, 1, 50, 0
1, 68700, Note_on_c, 1, 67, 127
1, 68700, Note_on_c, 1, 52, 127
1, 68759, Note_off_c, 1, 57, 0
1, 68759, Note_off_c, 1, 62, 0
1, 68759, Note_off_c, 1, 67, 0
1, 68759, Note_off_c, 1, 52, 0
1, 68760, Note_on_c, 1, 69, 127
1, 68760, Note_on_c, 1, 62, 127
1, 68760, Note_on_c, 1, 54, 127
1, 68819, Note_off_c, 1, 69, 0
1, 68820, Note_on_c, 1, 71, 127
1, 68820, Note_on_c, 1, 55, 127
1, 68879, Note_off_c, 1, 54, 0
1, 68879, Note_off_c, 1, 71, 0
1, 68879, Note_off_c, 1, 55, 0
1, 68880, Note_on_c, 1, 67, 127
1, 68880, Note_on_c, 1, 57, 127
1, 68939, Note_off_c, 1, 67, 0
1, 68940, Note_on_c, 1, 66, 127
1, 68999, Note_off_c, 1, 62, 0
1, 68999, Note_off_c, 1, 57, 0
1, 68999, Note_off_c, 1, 66, 0
1, 69000, Note_on_c, 1, 64, 127
1, 69000, Note_on_c, 1, 61, 127
1, 69000, Note_on_c, 1, 55, 127
1, 69000, Note_on_c, 1, 45, 127
1, 69059, Note_off_c, 1, 61, 0
1, 69059, Note_off_c, 1, 55, 0
1, 69060, Note_on_c, 1, 57, 127
1, 69060, Note_on_c, 1, 54, 127
1, 69119, Note_off_c, 1, 64, 0
1, 69119, Note_off_c, 1, 45, 0
1, 69119, Note_off_c, 1, 57, 0
1, 69119, Note_off_c, 1, 54, 0
1, 69120, Note_on_c, 1, 67, 127
1, 69120, Note_on_c, 1, 59, 127
1, 69120, Note_on_c, 1, 52, 127
1, 69179, Note_off_c, 1, 59, 0
1, 69180, Note_on_c, 1, 61, 127
1, 69180, Note_on_c, 1, 45, 127
1, 69239, Note_off_c, 1, 67, 0
1, 69239, Note_off_c, 1, 52, 0
1, 69239, Note_off_c, 1, 61, 0
1, 69239, Note_off_c, 1, 45, 0
1, 69240, Note_on_c, 1, 66, 127
1, 69240, Note_on_c, 1, 62, 127
1, 69240, Note_on_c, 1, 50, 127
1, 69299, Note_off_c, 1, 66, 0
1, 69299, Note_off_c, 1, 50, 0
1, 69300, Note_on_c, 1, 64, 127
1, 69300, Note_on_c, 1, 52, 127
1, 69359, Note_off_c, 1, 62, 0
1, 69359, Note_off_c, 1, 64, 0
1, 69359, Note_off_c, 1, 52, 0
1, 69360, Note_on_c, 1, 62, 127
1, 69360, Note_on_c, 1, 57, 127
1, 69360, Note_on_c, 1, 54, 127
1, 69420, Note_on_c, 1, 60, 127
1, 69479, Note_off_c, 1, 57, 0
1, 69479, Note_off_c, 1, 54, 0
1, 69479, Note_off_c, 1, 60, 0
1, 69540, Note_on_c, 1, 50, 127
1, 69599, Note_off_c, 1, 50, 0
1, 69600, Note_on_c, 1, 55, 127
1, 69600, Note_on_c, 1, 59, 127
1, 69719, Note_off_c, 1, 62, 0
1, 69719, Note_off_c, 1, 55, 0
1, 69720, Note_on_c, 1, 83, 127
1, 69779, Note_off_c, 1, 83, 0
1, 69780, Note_on_c, 1, 81, 127
1, 69839, Note_off_c, 1, 81, 0
1, 69840, Note_on_c, 1, 63, 127
1, 69959, Note_off_c, 1, 63, 0
1, 69960, Note_on_c, 1, 79, 127
1, 69960, Note_on_c, 1, 64, 127
1, 69960, Note_on_c, 1, 52, 127
1, 70019, Note_off_c, 1, 64, 0
1, 70020, Note_off_c, 1, 59, 0
1, 70020, Note_on_c, 1, 66, 127
1, 70079, Note_off_c, 1, 79, 0
1, 70079, Note_off_c, 1, 52, 0
1, 70079, Note_off_c, 1, 66, 0
1, 70080, Note_on_c, 1, 76, 127
1, 70080, Note_on_c, 1, 67, 127
1, 70080, Note_on_c, 1, 59, 127
1, 70139, Note_off_c, 1, 67, 0
1, 70139, Note_off_c, 1, 59, 0
1, 70140, Note_on_c, 1, 66, 127
1, 70140, Note_on_c, 1, 57, 127
1, 70199, Note_off_c, 1, 76, 0
1, 70199, Note_off_c, 1, 66, 0
1, 70199, Note_off_c, 1, 57, 0
1, 70200, Note_on_c, 1, 75, 127
1, 70200, Note_on_c, 1, 67, 127
1, 70200, Note_on_c, 1, 59, 127
1, 70200, Note_on_c, 1, 47, 127
1, 70259, Note_off_c, 1, 67, 0
1, 70259, Note_off_c, 1, 59, 0
1, 70260, Note_on_c, 1, 66, 127
1, 70260, Note_on_c, 1, 57, 127
1, 70319, Note_off_c, 1, 75, 0
1, 70319, Note_off_c, 1, 47, 0
1, 70319, Note_off_c, 1, 66, 0
1, 70319, Note_off_c, 1, 57, 0
1, 70320, Note_on_c, 1, 76, 127
1, 70320, Note_on_c, 1, 64, 127
1, 70320, Note_on_c, 1, 55, 127
1, 70320, Note_on_c, 1, 52, 127
1, 70379, Note_off_c, 1, 76, 0
1, 70379, Note_off_c, 1, 52, 0
1, 70380, Note_on_c, 1, 71, 127
1, 70380, Note_on_c, 1, 54, 127
1, 70439, Note_off_c, 1, 64, 0
1, 70439, Note_off_c, 1, 55, 0
1, 70439, Note_off_c, 1, 71, 0
1, 70439, Note_off_c, 1, 54, 0
1, 70440, Note_on_c, 1, 76, 127
1, 70440, Note_on_c, 1, 59, 127
1, 70440, Note_on_c, 1, 55, 127
1, 70499, Note_off_c, 1, 76, 0
1, 70499, Note_off_c, 1, 59, 0
1, 70499, Note_off_c, 1, 55, 0
1, 70500, Note_on_c, 1, 78, 127
1, 70500, Note_on_c, 1, 69, 127
1, 70500, Note_on_c, 1, 54, 127
1, 70529, Note_off_c, 1, 54, 0
1, 70530, Note_on_c, 1, 52, 127
1, 70559, Note_off_c, 1, 78, 0
1, 70559, Note_off_c, 1, 69, 0
1, 70559, Note_off_c, 1, 52, 0
1, 70560, Note_on_c, 1, 76, 127
1, 70560, Note_on_c, 1, 67, 127
1, 70560, Note_on_c, 1, 54, 127
1, 70619, Note_off_c, 1, 76, 0
1, 70619, Note_off_c, 1, 67, 0
1, 70619, Note_off_c, 1, 54, 0
1, 70620, Note_on_c, 1, 74, 127
1, 70620, Note_on_c, 1, 66, 127
1, 70620, Note_on_c, 1, 55, 127
1, 70679, Note_off_c, 1, 74, 0
1, 70679, Note_off_c, 1, 66, 0
1, 70679, Note_off_c, 1, 55, 0
1, 70680, Note_on_c, 1, 73, 127
1, 70680, Note_on_c, 1, 64, 127
1, 70680, Note_on_c, 1, 57, 127
1, 70739, Note_off_c, 1, 73, 0
1, 70739, Note_off_c, 1, 64, 0
1, 70740, Note_on_c, 1, 71, 127
1, 70740, Note_on_c, 1, 62, 127
1, 70799, Note_off_c, 1, 57, 0
1, 70799, Note_off_c, 1, 71, 0
1, 70799, Note_off_c, 1, 62, 0
1, 70800, Note_on_c, 1, 69, 127
1, 70800, Note_on_c, 1, 64, 127
1, 70800, Note_on_c, 1, 55, 127
1, 70800, Note_on_c, 1, 45, 127
1, 70859, Note_off_c, 1, 64, 0
1, 70859, Note_off_c, 1, 55, 0
1, 70860, Note_on_c, 1, 67, 127
1, 70860, Note_on_c, 1, 57, 127
1, 70889, Note_off_c, 1, 67, 0
1, 70890, Note_on_c, 1, 66, 127
1, 70919, Note_off_c, 1, 69, 0
1, 70919, Note_off_c, 1, 45, 0
1, 70919, Note_off_c, 1, 57, 0
1, 70919, Note_off_c, 1, 66, 0
1, 70920, Note_on_c, 1, 64, 127
1, 70920, Note_on_c, 1, 55, 127
1, 70920, Note_on_c, 1, 50, 127
1, 70979, Note_off_c, 1, 64, 0
1, 70979, Note_off_c, 1, 55, 0
1, 70980, Note_on_c, 1, 71, 127
1, 70980, Note_on_c, 1, 62, 127
1, 70980, Note_on_c, 1, 54, 127
1, 71039, Note_off_c, 1, 50, 0
1, 71039, Note_off_c, 1, 71, 0
1, 71039, Note_off_c, 1, 62, 0
1, 71039, Note_off_c, 1, 54, 0
1, 71040, Note_on_c, 1, 73, 127
1, 71040, Note_on_c, 1, 61, 127
1, 71040, Note_on_c, 1, 52, 127
1, 71040, Note_on_c, 1, 45, 127
1, 71099, Note_off_c, 1, 73, 0
1, 71099, Note_off_c, 1, 61, 0
1, 71099, Note_off_c, 1, 45, 0
1, 71100, Note_on_c, 1, 74, 127
1, 71100, Note_on_c, 1, 59, 127
1, 71100, Note_on_c, 1, 47, 127
1, 71159, Note_off_c, 1, 52, 0
1, 71159, Note_off_c, 1, 74, 0
1, 71159, Note_off_c, 1, 59, 0
1, 71159, Note_off_c, 1, 47, 0
1, 71160, Note_on_c, 1, 76, 127
1, 71160, Note_on_c, 1, 57, 127
1, 71160, Note_on_c, 1, 49, 127
1, 71219, Note_off_c, 1, 76, 0
1, 71219, Note_off_c, 1, 49, 0
1, 71220, Note_on_c, 1, 78, 127
1, 71220, Note_on_c, 1, 50, 127
1, 71279, Note_off_c, 1, 57, 0
1, 71279, Note_off_c, 1, 78, 0
1, 71279, Note_off_c, 1, 50, 0
1, 71280, Note_on_c, 1, 79, 127
1, 71280, Note_on_c, 1, 52, 127
1, 71339, Note_off_c, 1, 79, 0
1, 71339, Note_off_c, 1, 52, 0
1, 71340, Note_on_c, 1, 81, 127
1, 71340, Note_on_c, 1, 64, 127
1, 71340, Note_on_c, 1, 49, 127
1, 71399, Note_off_c, 1, 81, 0
1, 71399, Note_off_c, 1, 64, 0
1, 71399, Note_off_c, 1, 49, 0
1, 71400, Note_on_c, 1, 78, 127
1, 71400, Note_on_c, 1, 57, 127
1, 71400, Note_on_c, 1, 50, 127
1, 71459, Note_off_c, 1, 78, 0
1, 71459, Note_off_c, 1, 50, 0
1, 71460, Note_on_c, 1, 76, 127
1, 71460, Note_on_c, 1, 52, 127
1, 71460, Note_on_c, 1, 49, 127
1, 71519, Note_off_c, 1, 57, 0
1, 71519, Note_off_c, 1, 76, 0
1, 71519, Note_off_c, 1, 52, 0
1, 71519, Note_off_c, 1, 49, 0
1, 71520, Note_on_c, 1, 74, 127
1, 71520, Note_on_c, 1, 59, 127
1, 71520, Note_on_c, 1, 54, 127
1, 71520, Note_on_c, 1, 47, 127
1, 71579, Note_off_c, 1, 54, 0
1, 71580, Note_on_c, 1, 55, 127
1, 71639, Note_off_c, 1, 74, 0
1, 71639, Note_off_c, 1, 59, 0
1, 71639, Note_off_c, 1, 47, 0
1, 71639, Note_off_c, 1, 55, 0
1, 71640, Note_on_c, 1, 78, 127
1, 71640, Note_on_c, 1, 62, 127
1, 71640, Note_on_c, 1, 57, 127
1, 71640, Note_on_c, 1, 42, 127
1, 71699, Note_off_c, 1, 57, 0
1, 71700, Note_on_c, 1, 59, 127
1, 71759, Note_off_c, 1, 78, 0
1, 71759, Note_off_c, 1, 62, 0
1, 71759, Note_off_c, 1, 42, 0
1, 71759, Note_off_c, 1, 59, 0
1, 71760, Note_on_c, 1, 76, 127
1, 71760, Note_on_c, 1, 71, 127
1, 71760, Note_on_c, 1, 55, 127
1, 71760, Note_on_c, 1, 43, 127
1, 71819, Note_off_c, 1, 76, 0
1, 71819, Note_off_c, 1, 55, 0
1, 71820, Note_on_c, 1, 74, 127
1, 71820, Note_on_c, 1, 54, 127
1, 71879, Note_off_c, 1, 71, 0
1, 71879, Note_off_c, 1, 43, 0
1, 71879, Note_off_c, 1, 74, 0
1, 71879, Note_off_c, 1, 54, 0
1, 71880, Note_on_c, 1, 73, 127
1, 71880, Note_on_c, 1, 69, 127
1, 71880, Note_on_c, 1, 52, 127
1, 71880, Note_on_c, 1, 45, 127
1, 71939, Note_off_c, 1, 45, 0
1, 71940, Note_on_c, 1, 43, 127
1, 71999, Note_off_c, 1, 73, 0
1, 71999, Note_off_c, 1, 69, 0
1, 71999, Note_off_c, 1, 52, 0
1, 71999, Note_off_c, 1, 43, 0
1, 72000, Note_on_c, 1, 61, 127
1, 72000, Note_on_c, 1, 55, 127
1, 72000, Note_on_c, 1, 45, 127
1, 72119, Note_off_c, 1, 61, 0
1, 72119, Note_off_c, 1, 55, 0
1, 72119, Note_off_c, 1, 45, 0
1, 72120, Note_on_c, 1, 62, 127
1, 72120, Note_on_c, 1, 54, 127
1, 72120, Note_on_c, 1, 38, 127
1, 72179, Note_off_c, 1, 54, 0
1, 72180, Note_on_c, 1, 52, 127
1, 72238, Note_off_c, 1, 38, 0
1, 72239, Note_off_c, 1, 62, 0
1, 72239, Note_off_c, 1, 52, 0
1, 72240, Note_on_c, 1, 74, 127
1, 72240, Note_on_c, 1, 57, 127
1, 72240, Note_on_c, 1, 50, 127
1, 72240, Note_on_c, 1, 42, 127
1, 72299, Note_off_c, 1, 74, 0
1, 72300, Note_on_c, 1, 76, 127
1, 72358, Note_off_c, 1, 42, 0
1, 72359, Note_off_c, 1, 57, 0
1, 72359, Note_off_c, 1, 50, 0
1, 72359, Note_off_c, 1, 76, 0
1, 72360, Note_on_c, 1, 74, 127
1, 72360, Note_on_c, 1, 38, 127
1, 72419, Note_off_c, 1, 74, 0
1, 72420, Note_on_c, 1, 72, 127
1, 72478, Note_off_c, 1, 38, 0
1, 72479, Note_off_c, 1, 72, 0
1, 72480, Note_on_c, 1, 71, 127
1, 72480, Note_on_c, 1, 43, 127
1, 72539, Note_off_c, 1, 71, 0
1, 72570, Note_on_c, 1, 69, 127
1, 72598, Note_off_c, 1, 43, 0
1, 72599, Note_off_c, 1, 69, 0
1, 72600, Note_on_c, 1, 71, 127
1, 72600, Note_on_c, 1, 67, 127
1, 72659, Note_off_c, 1, 71, 0
1, 72659, Note_off_c, 1, 67, 0
1, 72660, Note_on_c, 1, 72, 127
1, 72660, Note_on_c, 1, 69, 127
1, 72719, Note_off_c, 1, 72, 0
1, 72719, Note_off_c, 1, 69, 0
1, 72720, Note_on_c, 1, 71, 127
1, 72720, Note_on_c, 1, 67, 127
1, 72720, Note_on_c, 1, 47, 127
1, 72779, Note_off_c, 1, 71, 0
1, 72779, Note_off_c, 1, 67, 0
1, 72780, Note_on_c, 1, 69, 127
1, 72780, Note_on_c, 1, 66, 127
1, 72838, Note_off_c, 1, 47, 0
1, 72839, Note_off_c, 1, 69, 0
1, 72839, Note_off_c, 1, 66, 0
1, 72840, Note_on_c, 1, 67, 127
1, 72840, Note_on_c, 1, 64, 127
1, 72840, Note_on_c, 1, 40, 127
1, 72899, Note_off_c, 1, 64, 0
1, 72899, Note_off_c, 1, 40, 0
1, 72900, Note_on_c, 1, 47, 127
1, 72930, Note_on_c, 1, 62, 127
1, 72959, Note_off_c, 1, 47, 0
1, 72959, Note_off_c, 1, 62, 0
1, 72960, Note_on_c, 1, 52, 127
1, 73019, Note_off_c, 1, 52, 0
1, 73020, Note_on_c, 1, 66, 127
1, 73020, Note_on_c, 1, 50, 127
1, 73079, Note_off_c, 1, 66, 0
1, 73079, Note_off_c, 1, 50, 0
1, 73080, Note_on_c, 1, 49, 127
1, 73139, Note_off_c, 1, 49, 0
1, 73200, Note_on_c, 1, 61, 127
1, 73200, Note_on_c, 1, 45, 127
1, 73259, Note_off_c, 1, 61, 0
1, 73260, Note_off_c, 1, 67, 0
1, 73260, Note_on_c, 1, 69, 127
1, 73290, Note_on_c, 1, 59, 127
1, 73319, Note_off_c, 1, 69, 0
1, 73319, Note_off_c, 1, 59, 0
1, 73379, Note_off_c, 1, 45, 0
1, 73380, Note_on_c, 1, 66, 127
1, 73380, Note_on_c, 1, 62, 127
1, 73380, Note_on_c, 1, 47, 127
1, 73439, Note_off_c, 1, 66, 0
1, 73439, Note_off_c, 1, 62, 0
1, 73439, Note_off_c, 1, 47, 0
1, 73440, Note_on_c, 1, 64, 127
1, 73440, Note_on_c, 1, 49, 127
1, 73499, Note_off_c, 1, 49, 0
1, 73500, Note_on_c, 1, 61, 127
1, 73500, Note_on_c, 1, 45, 127
1, 73559, Note_off_c, 1, 64, 0
1, 73559, Note_off_c, 1, 61, 0
1, 73559, Note_off_c, 1, 45, 0
1, 73560, Note_on_c, 1, 62, 127
1, 73560, Note_on_c, 1, 50, 127
1, 73619, Note_off_c, 1, 62, 0
1, 73619, Note_off_c, 1, 50, 0
1, 73620, Note_on_c, 1, 64, 127
1, 73620, Note_on_c, 1, 52, 127
1, 73679, Note_off_c, 1, 64, 0
1, 73679, Note_off_c, 1, 52, 0
1, 73680, Note_on_c, 1, 66, 127
1, 73680, Note_on_c, 1, 54, 127
1, 73739, Note_off_c, 1, 66, 0
1, 73739, Note_off_c, 1, 54, 0
1, 73740, Note_on_c, 1, 67, 127
1, 73740, Note_on_c, 1, 55, 127
1, 73799, Note_off_c, 1, 67, 0
1, 73799, Note_off_c, 1, 55, 0
1, 73800, Note_on_c, 1, 69, 127
1, 73800, Note_on_c, 1, 57, 127
1, 73859, Note_off_c, 1, 69, 0
1, 73859, Note_off_c, 1, 57, 0
1, 73860, Note_on_c, 1, 71, 127
1, 73860, Note_on_c, 1, 59, 127
1, 73919, Note_off_c, 1, 71, 0
1, 73919, Note_off_c, 1, 59, 0
1, 73920, Note_on_c, 1, 67, 127
1, 73920, Note_on_c, 1, 55, 127
1, 73979, Note_off_c, 1, 67, 0
1, 73979, Note_off_c, 1, 55, 0
1, 73980, Note_on_c, 1, 66, 127
1, 73980, Note_on_c, 1, 54, 127
1, 74009, Note_off_c, 1, 54, 0
1, 74010, Note_on_c, 1, 55, 127
1, 74039, Note_off_c, 1, 66, 0
1, 74039, Note_off_c, 1, 55, 0
1, 74040, Note_on_c, 1, 64, 127
1, 74040, Note_on_c, 1, 57, 127
1, 74100, Note_on_c, 1, 62, 127
1, 74159, Note_off_c, 1, 64, 0
1, 74159, Note_off_c, 1, 57, 0
1, 74159, Note_off_c, 1, 62, 0
1, 74160, Note_on_c, 1, 67, 127
1, 74160, Note_on_c, 1, 61, 127
1, 74160, Note_on_c, 1, 45, 127
1, 74219, Note_off_c, 1, 61, 0
1, 74220, Note_on_c, 1, 59, 127
1, 74279, Note_off_c, 1, 67, 0
1, 74279, Note_off_c, 1, 45, 0
1, 74279, Note_off_c, 1, 59, 0
1, 74280, Note_on_c, 1, 66, 127
1, 74280, Note_on_c, 1, 57, 127
1, 74280, Note_on_c, 1, 50, 127
1, 74339, Note_off_c, 1, 66, 0
1, 74339, Note_off_c, 1, 57, 0
1, 74339, Note_off_c, 1, 50, 0
1, 74340, Note_on_c, 1, 64, 127
1, 74340, Note_on_c, 1, 55, 127
1, 74340, Note_on_c, 1, 45, 127
1, 74369, Note_off_c, 1, 64, 0
1, 74369, Note_off_c, 1, 55, 0
1, 74370, Note_on_c, 1, 66, 127
1, 74370, Note_on_c, 1, 57, 127
1, 74399, Note_off_c, 1, 45, 0
1, 74399, Note_off_c, 1, 66, 0
1, 74399, Note_off_c, 1, 57, 0
1, 74400, Note_on_c, 1, 62, 127
1, 74400, Note_on_c, 1, 54, 127
1, 74400, Note_on_c, 1, 38, 127
1, 74639, Note_off_c, 1, 62, 0
1, 74639, Note_off_c, 1, 54, 0
1, 74639, Note_off_c, 1, 38, 0
1, 74760, Note_on_c, 1, 44, 127
1, 74760, Note_on_c, 1, 59, 127
1, 74775, Note_on_c, 1, 64, 127
1, 74790, Note_on_c, 1, 68, 127
1, 74820, Note_on_c, 1, 71, 127
1, 74880, Note_off_c, 1, 71, 0
1, 74880, Note_on_c, 1, 76, 127
1, 74940, Note_off_c, 1, 76, 0
1, 74940, Note_on_c, 1, 75, 127
1, 75000, Note_off_c, 1, 75, 0
1, 75180, Note_on_c, 1, 69, 127
1, 75240, Note_off_c, 1, 69, 0
1, 75479, Note_off_c, 1, 64, 0
1, 75479, Note_off_c, 1, 68, 0
1, 75480, Note_off_c, 1, 44, 0
1, 75480, Note_off_c, 1, 59, 0
1, 75480, Note_on_c, 1, 73, 127
1, 75480, Note_on_c, 1, 45, 127
1, 75480, Note_on_c, 1, 61, 127
1, 75600, Note_off_c, 1, 73, 0
1, 75690, Note_on_c, 1, 74, 127
1, 75720, Note_off_c, 1, 74, 0
1, 75840, Note_on_c, 1, 81, 127
1, 75900, Note_off_c, 1, 81, 0
1, 75960, Note_off_c, 1, 45, 0
1, 75960, Note_on_c, 1, 78, 127
1, 75960, Note_on_c, 1, 46, 127
1, 75960, Note_on_c, 1, 66, 127
1, 75960, Note_on_c, 1, 70, 127
1, 76080, Note_off_c, 1, 78, 0
1, 76440, Note_off_c, 1, 46, 0
1, 76440, Note_off_c, 1, 66, 0
1, 76440, Note_off_c, 1, 70, 0
1, 76440, Note_on_c, 1, 52, 127
1, 76440, Note_on_c, 1, 67, 127
1, 76680, Note_off_c, 1, 61, 0
1, 76680, Note_off_c, 1, 52, 0
1, 76680, Note_off_c, 1, 67, 0
1, 76680, Note_on_c, 1, 50, 127
1, 76680, Note_on_c, 1, 62, 127
1, 76800, Note_off_c, 1, 50, 0
1, 76800, Note_off_c, 1, 62, 0
1, 76800, Note_on_c, 1, 43, 127
1, 76920, Note_off_c, 1, 43, 0
1, 77040, Note_on_c, 1, 42, 127
1, 77160, Note_off_c, 1, 42, 0
1, 77160, Note_on_c, 1, 47, 127
1, 77759, Note_off_c, 1, 47, 0
1, 77760, Note_on_c, 1, 71, 127
1, 77760, Note_on_c, 1, 66, 127
1, 77760, Note_on_c, 1, 50, 127
1, 77760, Note_on_c, 1, 59, 127
1, 77879, Note_off_c, 1, 66, 0
1, 77879, Note_off_c, 1, 50, 0
1, 77879, Note_off_c, 1, 59, 0
1, 77880, Note_on_c, 1, 62, 127
1, 77880, Note_on_c, 1, 47, 127
1, 77939, Note_off_c, 1, 71, 0
1, 77940, Note_on_c, 1, 73, 127
1, 77999, Note_off_c, 1, 62, 0
1, 77999, Note_off_c, 1, 47, 0
1, 77999, Note_off_c, 1, 73, 0
1, 78000, Note_on_c, 1, 70, 127
1, 78000, Note_on_c, 1, 61, 127
1, 78000, Note_on_c, 1, 54, 127
1, 78000, Note_on_c, 1, 66, 127
1, 78119, Note_off_c, 1, 70, 0
1, 78119, Note_off_c, 1, 61, 0
1, 78119, Note_off_c, 1, 54, 0
1, 78119, Note_off_c, 1, 66, 0
1, 78120, Note_on_c, 1, 70, 127
1, 78120, Note_on_c, 1, 61, 127
1, 78120, Note_on_c, 1, 42, 127
1, 78120, Note_on_c, 1, 78, 127
1, 78180, Note_off_c, 1, 78, 0
1, 78180, Note_on_c, 1, 76, 127
1, 78239, Note_off_c, 1, 42, 0
1, 78240, Note_off_c, 1, 76, 0
1, 78240, Note_on_c, 1, 52, 127
1, 78240, Note_on_c, 1, 74, 127
1, 78300, Note_off_c, 1, 74, 0
1, 78300, Note_on_c, 1, 73, 127
1, 78359, Note_off_c, 1, 70, 0
1, 78359, Note_off_c, 1, 61, 0
1, 78359, Note_off_c, 1, 52, 0
1, 78360, Note_off_c, 1, 73, 0
1, 78360, Note_on_c, 1, 71, 127
1, 78360, Note_on_c, 1, 66, 127
1, 78360, Note_on_c, 1, 50, 127
1, 78479, Note_off_c, 1, 71, 0
1, 78479, Note_off_c, 1, 66, 0
1, 78479, Note_off_c, 1, 50, 0
1, 78480, Note_on_c, 1, 71, 127
1, 78480, Note_on_c, 1, 74, 127
1, 78480, Note_on_c, 1, 47, 127
1, 78480, Note_on_c, 1, 66, 127
1, 78599, Note_off_c, 1, 74, 0
1, 78599, Note_off_c, 1, 47, 0
1, 78599, Note_off_c, 1, 66, 0
1, 78600, Note_on_c, 1, 68, 127
1, 78600, Note_on_c, 1, 52, 127
1, 78600, Note_on_c, 1, 64, 127
1, 78659, Note_off_c, 1, 71, 0
1, 78660, Note_on_c, 1, 73, 127
1, 78689, Note_off_c, 1, 73, 0
1, 78719, Note_off_c, 1, 68, 0
1, 78719, Note_off_c, 1, 52, 0
1, 78719, Note_off_c, 1, 64, 0
1, 78720, Note_on_c, 1, 73, 127
1, 78720, Note_on_c, 1, 64, 127
1, 78720, Note_on_c, 1, 45, 127
1, 78720, Note_on_c, 1, 69, 127
1, 78839, Note_off_c, 1, 73, 0
1, 78839, Note_off_c, 1, 64, 0
1, 78839, Note_off_c, 1, 45, 0
1, 78839, Note_off_c, 1, 69, 0
1, 78840, Note_on_c, 1, 69, 127
1, 78840, Note_on_c, 1, 61, 127
1, 78840, Note_on_c, 1, 57, 127
1, 78900, Note_on_c, 1, 73, 127
1, 78959, Note_off_c, 1, 61, 0
1, 78959, Note_off_c, 1, 57, 0
1, 78960, Note_off_c, 1, 73, 0
1, 78960, Note_on_c, 1, 64, 127
1, 78960, Note_on_c, 1, 55, 127
1, 78960, Note_on_c, 1, 74, 127
1, 79020, Note_off_c, 1, 74, 0
1, 79020, Note_on_c, 1, 76, 127
1, 79079, Note_off_c, 1, 69, 0
1, 79079, Note_off_c, 1, 64, 0
1, 79079, Note_off_c, 1, 55, 0
1, 79080, Note_off_c, 1, 76, 0
1, 79080, Note_on_c, 1, 54, 127
1, 79199, Note_off_c, 1, 54, 0
1, 79200, Note_on_c, 1, 71, 127
1, 79200, Note_on_c, 1, 56, 127
1, 79319, Note_off_c, 1, 71, 0
1, 79319, Note_off_c, 1, 56, 0
1, 79320, Note_on_c, 1, 68, 127
1, 79320, Note_on_c, 1, 52, 127
1, 79439, Note_off_c, 1, 68, 0
1, 79439, Note_off_c, 1, 52, 0
1, 79500, Note_on_c, 1, 62, 127
1, 79559, Note_off_c, 1, 62, 0
1, 79560, Note_on_c, 1, 58, 127
1, 79560, Note_on_c, 1, 70, 127
1, 79679, Note_off_c, 1, 58, 0
1, 79679, Note_off_c, 1, 70, 0
1, 79680, Note_on_c, 1, 66, 127
1, 79799, Note_off_c, 1, 66, 0
1, 79800, Note_on_c, 1, 71, 127
1, 79800, Note_on_c, 1, 62, 127
1, 79800, Note_on_c, 1, 59, 127
1, 79800, Note_on_c, 1, 67, 127
1, 79859, Note_off_c, 1, 71, 0
1, 79860, Note_on_c, 1, 70, 127
1, 79860, Note_on_c, 1, 61, 127
1, 79919, Note_off_c, 1, 62, 0
1, 79919, Note_off_c, 1, 59, 0
1, 79919, Note_off_c, 1, 67, 0
1, 79919, Note_off_c, 1, 70, 0
1, 79919, Note_off_c, 1, 61, 0
1, 79920, Note_on_c, 1, 71, 127
1, 79920, Note_on_c, 1, 62, 127
1, 79920, Note_on_c, 1, 55, 127
1, 79920, Note_on_c, 1, 59, 127
1, 79979, Note_off_c, 1, 71, 0
1, 79980, Note_on_c, 1, 67, 127
1, 80039, Note_off_c, 1, 67, 0
1, 80040, Note_on_c, 1, 64, 127
1, 80100, Note_on_c, 1, 73, 127
1, 80159, Note_off_c, 1, 62, 0
1, 80159, Note_off_c, 1, 55, 0
1, 80159, Note_off_c, 1, 59, 0
1, 80159, Note_off_c, 1, 64, 0
1, 80159, Note_off_c, 1, 73, 0
1, 80160, Note_on_c, 1, 71, 127
1, 80160, Note_on_c, 1, 66, 127
1, 80160, Note_on_c, 1, 54, 127
1, 80219, Note_off_c, 1, 54, 0
1, 80220, Note_on_c, 1, 55, 127
1, 80279, Note_off_c, 1, 71, 0
1, 80279, Note_off_c, 1, 55, 0
1, 80280, Note_on_c, 1, 70, 127
1, 80340, Note_on_c, 1, 52, 127
1, 80340, Note_on_c, 1, 73, 127
1, 80399, Note_off_c, 1, 52, 0
1, 80399, Note_off_c, 1, 73, 0
1, 80400, Note_on_c, 1, 50, 127
1, 80400, Note_on_c, 1, 74, 127
1, 80459, Note_off_c, 1, 50, 0
1, 80459, Note_off_c, 1, 74, 0
1, 80460, Note_on_c, 1, 49, 127
1, 80460, Note_on_c, 1, 76, 127
1, 80519, Note_off_c, 1, 66, 0
1, 80519, Note_off_c, 1, 70, 0
1, 80519, Note_off_c, 1, 49, 0
1, 80519, Note_off_c, 1, 76, 0
1, 80520, Note_on_c, 1, 66, 127
1, 80520, Note_on_c, 1, 47, 127
1, 80520, Note_on_c, 1, 78, 127
1, 80520, Note_on_c, 1, 71, 127
1, 80639, Note_off_c, 1, 47, 0
1, 80639, Note_off_c, 1, 78, 0
1, 80639, Note_off_c, 1, 71, 0
1, 80640, Note_on_c, 1, 49, 127
1, 80759, Note_off_c, 1, 66, 0
1, 80759, Note_off_c, 1, 49, 0
1, 80760, Note_on_c, 1, 71, 127
1, 80760, Note_on_c, 1, 50, 127
1, 80760, Note_on_c, 1, 66, 127
1, 80879, Note_off_c, 1, 71, 0
1, 80879, Note_off_c, 1, 50, 0
1, 80879, Note_off_c, 1, 66, 0
1, 80880, Note_on_c, 1, 73, 127
1, 80880, Note_on_c, 1, 52, 127
1, 80880, Note_on_c, 1, 64, 127
1, 80999, Note_off_c, 1, 73, 0
1, 80999, Note_off_c, 1, 52, 0
1, 80999, Note_off_c, 1, 64, 0
1, 81000, Note_on_c, 1, 71, 127
1, 81000, Note_on_c, 1, 49, 127
1, 81119, Note_off_c, 1, 71, 0
1, 81119, Note_off_c, 1, 49, 0
1, 81120, Note_on_c, 1, 70, 127
1, 81120, Note_on_c, 1, 54, 127
1, 81120, Note_on_c, 1, 66, 127
1, 81239, Note_off_c, 1, 70, 0
1, 81239, Note_off_c, 1, 54, 0
1, 81239, Note_off_c, 1, 66, 0
1, 81240, Note_on_c, 1, 62, 127
1, 81240, Note_on_c, 1, 71, 127
1, 81240, Note_on_c, 1, 47, 127
1, 81240, Note_on_c, 1, 66, 127
1, 81300, Note_on_c, 1, 79, 127
1, 81359, Note_off_c, 1, 62, 0
1, 81359, Note_off_c, 1, 47, 0
1, 81359, Note_off_c, 1, 66, 0
1, 81359, Note_off_c, 1, 79, 0
1, 81360, Note_on_c, 1, 78, 127
1, 81360, Note_on_c, 1, 50, 127
1, 81419, Note_off_c, 1, 78, 0
1, 81420, Note_on_c, 1, 76, 127
1, 81479, Note_off_c, 1, 71, 0
1, 81479, Note_off_c, 1, 50, 0
1, 81479, Note_off_c, 1, 76, 0
1, 81480, Note_on_c, 1, 74, 127
1, 81480, Note_on_c, 1, 70, 127
1, 81480, Note_on_c, 1, 54, 127
1, 81480, Note_on_c, 1, 73, 127
1, 81539, Note_off_c, 1, 74, 0
1, 81599, Note_off_c, 1, 70, 0
1, 81599, Note_off_c, 1, 54, 0
1, 81599, Note_off_c, 1, 73, 0
1, 81600, Note_on_c, 1, 71, 127
1, 81600, Note_on_c, 1, 66, 127
1, 81600, Note_on_c, 1, 74, 127
1, 81600, Note_on_c, 1, 59, 127
1, 81719, Note_off_c, 1, 71, 0
1, 81719, Note_off_c, 1, 59, 0
1, 81720, Note_on_c, 1, 62, 127
1, 81720, Note_on_c, 1, 57, 127
1, 81779, Note_off_c, 1, 62, 0
1, 81839, Note_off_c, 1, 66, 0
1, 81839, Note_off_c, 1, 57, 0
1, 81840, Note_on_c, 1, 67, 127
1, 81840, Note_on_c, 1, 76, 127
1, 81840, Note_on_c, 1, 55, 127
1, 81900, Note_off_c, 1, 74, 0
1, 81900, Note_on_c, 1, 73, 127
1, 81959, Note_off_c, 1, 67, 0
1, 81959, Note_off_c, 1, 55, 0
1, 81960, Note_off_c, 1, 76, 0
1, 81960, Note_on_c, 1, 70, 127
1, 81960, Note_on_c, 1, 61, 127
1, 81960, Note_on_c, 1, 78, 127
1, 81960, Note_on_c, 1, 54, 127
1, 82079, Note_off_c, 1, 73, 0
1, 82079, Note_off_c, 1, 70, 0
1, 82079, Note_off_c, 1, 61, 0
1, 82079, Note_off_c, 1, 78, 0
1, 82140, Note_on_c, 1, 79, 127
1, 82199, Note_off_c, 1, 54, 0
1, 82199, Note_off_c, 1, 79, 0
1, 82200, Note_on_c, 1, 78, 127
1, 82200, Note_on_c, 1, 58, 127
1, 82200, Note_on_c, 1, 73, 127
1, 82200, Note_on_c, 1, 42, 127
1, 82200, Note_on_c, 1, 70, 127
1, 82259, Note_off_c, 1, 78, 0
1, 82260, Note_on_c, 1, 76, 127
1, 82319, Note_off_c, 1, 58, 0
1, 82319, Note_off_c, 1, 73, 0
1, 82319, Note_off_c, 1, 42, 0
1, 82319, Note_off_c, 1, 70, 0
1, 82319, Note_off_c, 1, 76, 0
1, 82320, Note_on_c, 1, 74, 127
1, 82320, Note_on_c, 1, 59, 127
1, 82320, Note_on_c, 1, 47, 127
1, 82320, Note_on_c, 1, 71, 127
1, 82320, Note_on_c, 1, 66, 127
1, 82320, Note_on_c, 1, 62, 127
1, 82439, Note_off_c, 1, 59, 0
1, 82439, Note_off_c, 1, 47, 0
1, 82439, Note_off_c, 1, 71, 0
1, 82439, Note_off_c, 1, 66, 0
1, 82439, Note_off_c, 1, 62, 0
1, 82440, Note_on_c, 1, 45, 127
1, 82559, Note_off_c, 1, 74, 0
1, 82559, Note_off_c, 1, 45, 0
1, 82560, Note_on_c, 1, 74, 127
1, 82560, Note_on_c, 1, 64, 127
1, 82560, Note_on_c, 1, 44, 127
1, 82619, Note_off_c, 1, 74, 0
1, 82620, Note_on_c, 1, 76, 127
1, 82679, Note_off_c, 1, 44, 0
1, 82679, Note_off_c, 1, 76, 0
1, 82680, Note_on_c, 1, 73, 127
1, 82680, Note_on_c, 1, 45, 127
1, 82680, Note_on_c, 1, 61, 127
1, 82739, Note_off_c, 1, 73, 0
1, 82799, Note_off_c, 1, 64, 0
1, 82799, Note_off_c, 1, 45, 0
1, 82799, Note_off_c, 1, 61, 0
1, 82800, Note_on_c, 1, 81, 127
1, 82800, Note_on_c, 1, 64, 127
1, 82800, Note_on_c, 1, 49, 127
1, 82800, Note_on_c, 1, 69, 127
1, 82859, Note_off_c, 1, 81, 0
1, 82860, Note_on_c, 1, 83, 127
1, 82919, Note_off_c, 1, 64, 0
1, 82919, Note_off_c, 1, 49, 0
1, 82919, Note_off_c, 1, 69, 0
1, 82919, Note_off_c, 1, 83, 0
1, 82920, Note_on_c, 1, 81, 127
1, 82920, Note_on_c, 1, 61, 127
1, 82920, Note_on_c, 1, 45, 127
1, 82920, Note_on_c, 1, 69, 127
1, 82920, Note_on_c, 1, 73, 127
1, 82979, Note_off_c, 1, 81, 0
1, 82980, Note_on_c, 1, 79, 127
1, 83039, Note_off_c, 1, 61, 0
1, 83039, Note_off_c, 1, 45, 0
1, 83039, Note_off_c, 1, 69, 0
1, 83039, Note_off_c, 1, 73, 0
1, 83039, Note_off_c, 1, 79, 0
1, 83040, Note_on_c, 1, 78, 127
1, 83040, Note_on_c, 1, 54, 127
1, 83040, Note_on_c, 1, 66, 127
1, 83040, Note_on_c, 1, 50, 127
1, 83040, Note_on_c, 1, 74, 127
1, 83040, Note_on_c, 1, 69, 127
1, 83099, Note_off_c, 1, 78, 0
1, 83159, Note_off_c, 1, 50, 0
1, 83159, Note_off_c, 1, 74, 0
1, 83159, Note_off_c, 1, 69, 0
1, 83160, Note_on_c, 1, 49, 127
1, 83279, Note_off_c, 1, 54, 0
1, 83279, Note_off_c, 1, 66, 0
1, 83279, Note_off_c, 1, 49, 0
1, 83280, Note_on_c, 1, 78, 127
1, 83280, Note_on_c, 1, 59, 127
1, 83280, Note_on_c, 1, 71, 127
1, 83280, Note_on_c, 1, 47, 127
1, 83280, Note_on_c, 1, 66, 127
1, 83280, Note_on_c, 1, 62, 127
1, 83339, Note_off_c, 1, 78, 0
1, 83340, Note_on_c, 1, 79, 127
1, 83399, Note_off_c, 1, 59, 0
1, 83399, Note_off_c, 1, 71, 0
1, 83399, Note_off_c, 1, 47, 0
1, 83399, Note_off_c, 1, 66, 0
1, 83399, Note_off_c, 1, 62, 0
1, 83399, Note_off_c, 1, 79, 0
1, 83400, Note_on_c, 1, 76, 127
1, 83400, Note_on_c, 1, 61, 127
1, 83400, Note_on_c, 1, 73, 127
1, 83400, Note_on_c, 1, 52, 127
1, 83400, Note_on_c, 1, 64, 127
1, 83459, Note_off_c, 1, 76, 0
1, 83460, Note_on_c, 1, 74, 127
1, 83519, Note_off_c, 1, 73, 0
1, 83519, Note_off_c, 1, 52, 0
1, 83519, Note_off_c, 1, 74, 0
1, 83520, Note_on_c, 1, 59, 127
1, 83520, Note_on_c, 1, 71, 127
1, 83520, Note_on_c, 1, 49, 127
1, 83580, Note_on_c, 1, 79, 127
1, 83639, Note_off_c, 1, 61, 0
1, 83639, Note_off_c, 1, 64, 0
1, 83639, Note_off_c, 1, 59, 0
1, 83639, Note_off_c, 1, 71, 0
1, 83639, Note_off_c, 1, 49, 0
1, 83639, Note_off_c, 1, 79, 0
1, 83640, Note_on_c, 1, 78, 127
1, 83640, Note_on_c, 1, 58, 127
1, 83640, Note_on_c, 1, 70, 127
1, 83640, Note_on_c, 1, 54, 127
1, 83640, Note_on_c, 1, 64, 127
1, 83640, Note_on_c, 1, 61, 127
1, 83699, Note_off_c, 1, 78, 0
1, 83700, Note_on_c, 1, 76, 127
1, 83759, Note_off_c, 1, 58, 0
1, 83759, Note_off_c, 1, 70, 0
1, 83759, Note_off_c, 1, 54, 0
1, 83759, Note_off_c, 1, 64, 0
1, 83759, Note_off_c, 1, 61, 0
1, 83759, Note_off_c, 1, 76, 0
1, 83760, Note_on_c, 1, 74, 127
1, 83760, Note_on_c, 1, 59, 127
1, 83760, Note_on_c, 1, 71, 127
1, 83760, Note_on_c, 1, 47, 127
1, 83760, Note_on_c, 1, 66, 127
1, 83760, Note_on_c, 1, 62, 127
1, 83819, Note_off_c, 1, 74, 0
1, 83879, Note_off_c, 1, 59, 0
1, 83879, Note_off_c, 1, 47, 0
1, 83879, Note_off_c, 1, 66, 0
1, 83879, Note_off_c, 1, 62, 0
1, 83880, Note_on_c, 1, 50, 127
1, 83999, Note_off_c, 1, 50, 0
1, 84060, Note_on_c, 1, 76, 127
1, 84119, Note_off_c, 1, 76, 0
1, 84120, Note_on_c, 1, 73, 127
1, 84120, Note_on_c, 1, 54, 127
1, 84120, Note_on_c, 1, 61, 127
1, 84120, Note_on_c, 1, 58, 127
1, 84179, Note_off_c, 1, 73, 0
1, 84239, Note_off_c, 1, 71, 0
1, 84239, Note_off_c, 1, 54, 0
1, 84240, Note_on_c, 1, 70, 127
1, 84240, Note_on_c, 1, 42, 127
1, 84359, Note_off_c, 1, 61, 0
1, 84359, Note_off_c, 1, 58, 0
1, 84359, Note_off_c, 1, 70, 0
1, 84359, Note_off_c, 1, 42, 0
1, 84360, Note_on_c, 1, 74, 127
1, 84360, Note_on_c, 1, 71, 127
1, 84419, Note_off_c, 1, 74, 0
1, 84419, Note_off_c, 1, 71, 0
1, 84420, Note_on_c, 1, 73, 127
1, 84479, Note_off_c, 1, 73, 0
1, 84480, Note_on_c, 1, 71, 127
1, 84480, Note_on_c, 1, 62, 127
1, 84480, Note_on_c, 1, 74, 127
1, 84480, Note_on_c, 1, 47, 127
1, 84540, Note_on_c, 1, 66, 127
1, 84599, Note_off_c, 1, 47, 0
1, 84599, Note_off_c, 1, 66, 0
1, 84600, Note_on_c, 1, 59, 127
1, 84659, Note_off_c, 1, 71, 0
1, 84659, Note_off_c, 1, 74, 0
1, 84660, Note_on_c, 1, 76, 127
1, 84660, Note_on_c, 1, 61, 127
1, 84689, Note_off_c, 1, 76, 0
1, 84689, Note_off_c, 1, 61, 0
1, 84690, Note_on_c, 1, 78, 127
1, 84719, Note_off_c, 1, 62, 0
1, 84719, Note_off_c, 1, 59, 0
1, 84719, Note_off_c, 1, 78, 0
1, 84720, Note_on_c, 1, 64, 127
1, 84720, Note_on_c, 1, 76, 127
1, 84720, Note_on_c, 1, 61, 127
1, 84779, Note_off_c, 1, 76, 0
1, 84780, Note_on_c, 1, 78, 127
1, 84780, Note_on_c, 1, 62, 127
1, 84809, Note_off_c, 1, 78, 0
1, 84809, Note_off_c, 1, 62, 0
1, 84810, Note_on_c, 1, 79, 127
1, 84839, Note_off_c, 1, 64, 0
1, 84839, Note_off_c, 1, 61, 0
1, 84839, Note_off_c, 1, 79, 0
1, 84840, Note_on_c, 1, 66, 127
1, 84840, Note_on_c, 1, 78, 127
1, 84840, Note_on_c, 1, 62, 127
1, 84840, Note_on_c, 1, 69, 127
1, 84959, Note_off_c, 1, 66, 0
1, 84959, Note_off_c, 1, 78, 0
1, 84959, Note_off_c, 1, 62, 0
1, 84959, Note_off_c, 1, 69, 0
1, 84960, Note_on_c, 1, 74, 127
1, 84960, Note_on_c, 1, 62, 127
1, 84960, Note_on_c, 1, 54, 127
1, 84960, Note_on_c, 1, 66, 127
1, 85020, Note_on_c, 1, 76, 127
1, 85049, Note_off_c, 1, 76, 0
1, 85050, Note_on_c, 1, 78, 127
1, 85079, Note_off_c, 1, 74, 0
1, 85079, Note_off_c, 1, 62, 0
1, 85079, Note_off_c, 1, 54, 0
1, 85079, Note_off_c, 1, 66, 0
1, 85079, Note_off_c, 1, 78, 0
1, 85080, Note_on_c, 1, 76, 127
1, 85080, Note_on_c, 1, 61, 127
1, 85080, Note_on_c, 1, 73, 127
1, 85080, Note_on_c, 1, 57, 127
1, 85080, Note_on_c, 1, 64, 127
1, 85139, Note_off_c, 1, 76, 0
1, 85140, Note_on_c, 1, 78, 127
1, 85169, Note_off_c, 1, 78, 0
1, 85170, Note_on_c, 1, 79, 127
1, 85199, Note_off_c, 1, 61, 0
1, 85199, Note_off_c, 1, 73, 0
1, 85199, Note_off_c, 1, 57, 0
1, 85199, Note_off_c, 1, 64, 0
1, 85199, Note_off_c, 1, 79, 0
1, 85200, Note_on_c, 1, 78, 127
1, 85200, Note_on_c, 1, 62, 127
1, 85200, Note_on_c, 1, 74, 127
1, 85200, Note_on_c, 1, 50, 127
1, 85200, Note_on_c, 1, 66, 127
1, 85259, Note_off_c, 1, 50, 0
1, 85259, Note_off_c, 1, 66, 0
1, 85260, Note_on_c, 1, 54, 127
1, 85319, Note_off_c, 1, 54, 0
1, 85320, Note_on_c, 1, 56, 127
1, 85320, Note_on_c, 1, 64, 127
1, 85379, Note_off_c, 1, 78, 0
1, 85379, Note_off_c, 1, 62, 0
1, 85379, Note_off_c, 1, 56, 0
1, 85379, Note_off_c, 1, 64, 0
1, 85380, Note_on_c, 1, 76, 127
1, 85380, Note_on_c, 1, 61, 127
1, 85380, Note_on_c, 1, 58, 127
1, 85439, Note_off_c, 1, 74, 0
1, 85439, Note_off_c, 1, 76, 0
1, 85439, Note_off_c, 1, 61, 0
1, 85439, Note_off_c, 1, 58, 0
1, 85440, Note_on_c, 1, 74, 127
1, 85440, Note_on_c, 1, 62, 127
1, 85440, Note_on_c, 1, 59, 127
1, 85499, Note_off_c, 1, 74, 0
1, 85499, Note_off_c, 1, 62, 0
1, 85499, Note_off_c, 1, 59, 0
1, 85500, Note_on_c, 1, 73, 127
1, 85500, Note_on_c, 1, 64, 127
1, 85500, Note_on_c, 1, 61, 127
1, 85559, Note_off_c, 1, 73, 0
1, 85559, Note_off_c, 1, 64, 0
1, 85559, Note_off_c, 1, 61, 0
1, 85560, Note_on_c, 1, 71, 127
1, 85560, Note_on_c, 1, 66, 127
1, 85560, Note_on_c, 1, 78, 127
1, 85560, Note_on_c, 1, 62, 127
1, 85619, Note_off_c, 1, 62, 0
1, 85620, Note_on_c, 1, 70, 127
1, 85620, Note_on_c, 1, 50, 127
1, 85679, Note_off_c, 1, 71, 0
1, 85679, Note_off_c, 1, 66, 0
1, 85679, Note_off_c, 1, 78, 0
1, 85679, Note_off_c, 1, 70, 0
1, 85679, Note_off_c, 1, 50, 0
1, 85680, Note_on_c, 1, 71, 127
1, 85680, Note_on_c, 1, 64, 127
1, 85680, Note_on_c, 1, 76, 127
1, 85680, Note_on_c, 1, 55, 127
1, 85709, Note_off_c, 1, 55, 0
1, 85710, Note_on_c, 1, 54, 127
1, 85739, Note_off_c, 1, 54, 0
1, 85799, Note_off_c, 1, 64, 0
1, 85799, Note_off_c, 1, 76, 0
1, 85800, Note_on_c, 1, 62, 127
1, 85800, Note_on_c, 1, 74, 127
1, 85859, Note_off_c, 1, 71, 0
1, 85860, Note_on_c, 1, 73, 127
1, 85860, Note_on_c, 1, 52, 127
1, 85889, Note_off_c, 1, 52, 0
1, 85890, Note_on_c, 1, 50, 127
1, 85919, Note_off_c, 1, 62, 0
1, 85919, Note_off_c, 1, 74, 0
1, 85919, Note_off_c, 1, 73, 0
1, 85919, Note_off_c, 1, 50, 0
1, 85920, Note_on_c, 1, 70, 127
1, 85920, Note_on_c, 1, 64, 127
1, 85920, Note_on_c, 1, 76, 127
1, 85920, Note_on_c, 1, 49, 127
1, 85979, Note_off_c, 1, 49, 0
1, 85980, Note_on_c, 1, 61, 127
1, 86039, Note_off_c, 1, 76, 0
1, 86039, Note_off_c, 1, 61, 0
1, 86040, Note_off_c, 1, 64, 0
1, 86040, Note_on_c, 1, 62, 127
1, 86040, Note_on_c, 1, 74, 127
1, 86040, Note_on_c, 1, 54, 127
1, 86069, Note_off_c, 1, 54, 0
1, 86070, Note_on_c, 1, 52, 127
1, 86099, Note_off_c, 1, 52, 0
1, 86159, Note_off_c, 1, 62, 0
1, 86159, Note_off_c, 1, 74, 0
1, 86160, Note_on_c, 1, 73, 127
1, 86220, Note_on_c, 1, 50, 127
1, 86249, Note_off_c, 1, 50, 0
1, 86279, Note_off_c, 1, 70, 0
1, 86279, Note_off_c, 1, 73, 0
1, 86280, Note_on_c, 1, 71, 127
1, 86280, Note_on_c, 1, 62, 127
1, 86280, Note_on_c, 1, 74, 127
1, 86280, Note_on_c, 1, 47, 127
1, 86339, Note_off_c, 1, 47, 0
1, 86340, Note_on_c, 1, 59, 127
1, 86369, Note_off_c, 1, 59, 0
1, 86370, Note_on_c, 1, 57, 127
1, 86399, Note_off_c, 1, 62, 0
1, 86399, Note_off_c, 1, 74, 0
1, 86399, Note_off_c, 1, 57, 0
1, 86400, Note_on_c, 1, 64, 127
1, 86400, Note_on_c, 1, 76, 127
1, 86400, Note_on_c, 1, 55, 127
1, 86459, Note_off_c, 1, 64, 0
1, 86459, Note_off_c, 1, 76, 0
1, 86459, Note_off_c, 1, 55, 0
1, 86460, Note_on_c, 1, 54, 127
1, 86519, Note_off_c, 1, 54, 0
1, 86520, Note_on_c, 1, 61, 127
1, 86520, Note_on_c, 1, 73, 127
1, 86520, Note_on_c, 1, 52, 127
1, 86579, Note_off_c, 1, 71, 0
1, 86579, Note_off_c, 1, 61, 0
1, 86579, Note_off_c, 1, 73, 0
1, 86640, Note_on_c, 1, 58, 127
1, 86640, Note_on_c, 1, 70, 127
1, 86699, Note_off_c, 1, 52, 0
1, 86819, Note_off_c, 1, 58, 0
1, 86819, Note_off_c, 1, 70, 0
1, 86820, Note_on_c, 1, 56, 127
1, 86820, Note_on_c, 1, 68, 127
1, 86879, Note_off_c, 1, 56, 0
1, 86879, Note_off_c, 1, 68, 0
1, 86880, Note_on_c, 1, 66, 127
1, 86880, Note_on_c, 1, 50, 127
1, 86939, Note_off_c, 1, 50, 0
1, 86940, Note_on_c, 1, 49, 127
1, 86999, Note_off_c, 1, 66, 0
1, 86999, Note_off_c, 1, 49, 0
1, 87000, Note_on_c, 1, 74, 127
1, 87000, Note_on_c, 1, 47, 127
1, 87000, Note_on_c, 1, 62, 127
1, 87000, Note_on_c, 1, 66, 127
1, 87059, Note_off_c, 1, 74, 0
1, 87060, Note_on_c, 1, 73, 127
1, 87119, Note_off_c, 1, 73, 0
1, 87120, Note_on_c, 1, 54, 127
1, 87179, Note_off_c, 1, 47, 0
1, 87179, Note_off_c, 1, 62, 0
1, 87180, Note_on_c, 1, 45, 127
1, 87239, Note_off_c, 1, 66, 0
1, 87239, Note_off_c, 1, 54, 0
1, 87239, Note_off_c, 1, 45, 0
1, 87240, Note_on_c, 1, 59, 127
1, 87240, Note_on_c, 1, 71, 127
1, 87240, Note_on_c, 1, 43, 127
1, 87240, Note_on_c, 1, 67, 127
1, 87299, Note_off_c, 1, 43, 0
1, 87299, Note_off_c, 1, 67, 0
1, 87300, Note_on_c, 1, 76, 127
1, 87300, Note_on_c, 1, 42, 127
1, 87300, Note_on_c, 1, 69, 127
1, 87359, Note_off_c, 1, 59, 0
1, 87359, Note_off_c, 1, 71, 0
1, 87359, Note_off_c, 1, 76, 0
1, 87359, Note_off_c, 1, 42, 0
1, 87359, Note_off_c, 1, 69, 0
1, 87360, Note_on_c, 1, 73, 127
1, 87360, Note_on_c, 1, 61, 127
1, 87360, Note_on_c, 1, 40, 127
1, 87419, Note_off_c, 1, 40, 0
1, 87420, Note_on_c, 1, 71, 127
1, 87420, Note_on_c, 1, 43, 127
1, 87479, Note_off_c, 1, 73, 0
1, 87479, Note_off_c, 1, 61, 0
1, 87479, Note_off_c, 1, 71, 0
1, 87479, Note_off_c, 1, 43, 0
1, 87480, Note_on_c, 1, 73, 127
1, 87480, Note_on_c, 1, 58, 127
1, 87480, Note_on_c, 1, 70, 127
1, 87480, Note_on_c, 1, 42, 127
1, 87539, Note_off_c, 1, 42, 0
1, 87540, Note_on_c, 1, 40, 127
1, 87599, Note_off_c, 1, 40, 0
1, 87600, Note_on_c, 1, 38, 127
1, 87659, Note_off_c, 1, 73, 0
1, 87659, Note_off_c, 1, 38, 0
1, 87660, Note_on_c, 1, 74, 127
1, 87719, Note_off_c, 1, 58, 0
1, 87719, Note_off_c, 1, 70, 0
1, 87719, Note_off_c, 1, 74, 0
1, 87720, Note_on_c, 1, 71, 127
1, 87720, Note_on_c, 1, 59, 127
1, 87720, Note_on_c, 1, 43, 127
1, 87779, Note_off_c, 1, 59, 0
1, 87779, Note_off_c, 1, 43, 0
1, 87780, Note_on_c, 1, 70, 127
1, 87780, Note_on_c, 1, 61, 127
1, 87780, Note_on_c, 1, 42, 127
1, 87839, Note_off_c, 1, 71, 0
1, 87839, Note_off_c, 1, 70, 0
1, 87839, Note_off_c, 1, 61, 0
1, 87839, Note_off_c, 1, 42, 0
1, 87840, Note_on_c, 1, 71, 127
1, 87840, Note_on_c, 1, 62, 127
1, 87840, Note_on_c, 1, 43, 127
1, 87899, Note_off_c, 1, 71, 0
1, 87899, Note_off_c, 1, 43, 0
1, 87900, Note_on_c, 1, 67, 127
1, 87900, Note_on_c, 1, 47, 127
1, 87959, Note_off_c, 1, 62, 0
1, 87959, Note_off_c, 1, 67, 0
1, 87959, Note_off_c, 1, 47, 0
1, 87960, Note_on_c, 1, 64, 127
1, 87960, Note_on_c, 1, 43, 127
1, 87960, Note_on_c, 1, 76, 127
1, 87960, Note_on_c, 1, 71, 127
1, 88019, Note_off_c, 1, 43, 0
1, 88020, Note_on_c, 1, 73, 127
1, 88020, Note_on_c, 1, 40, 127
1, 88079, Note_off_c, 1, 64, 0
1, 88079, Note_off_c, 1, 76, 0
1, 88079, Note_off_c, 1, 71, 0
1, 88079, Note_off_c, 1, 73, 0
1, 88079, Note_off_c, 1, 40, 0
1, 88080, Note_on_c, 1, 70, 127
1, 88080, Note_on_c, 1, 61, 127
1, 88080, Note_on_c, 1, 42, 127
1, 88080, Note_on_c, 1, 73, 127
1, 88139, Note_off_c, 1, 42, 0
1, 88140, Note_on_c, 1, 49, 127
1, 88199, Note_off_c, 1, 73, 0
1, 88199, Note_off_c, 1, 49, 0
1, 88200, Note_on_c, 1, 54, 127
1, 88259, Note_off_c, 1, 70, 0
1, 88259, Note_off_c, 1, 61, 0
1, 88259, Note_off_c, 1, 54, 0
1, 88260, Note_on_c, 1, 66, 127
1, 88260, Note_on_c, 1, 61, 127
1, 88260, Note_on_c, 1, 52, 127
1, 88319, Note_off_c, 1, 66, 0
1, 88319, Note_off_c, 1, 61, 0
1, 88319, Note_off_c, 1, 52, 0
1, 88320, Note_on_c, 1, 71, 127
1, 88320, Note_on_c, 1, 66, 127
1, 88320, Note_on_c, 1, 50, 127
1, 88379, Note_off_c, 1, 71, 0
1, 88379, Note_off_c, 1, 66, 0
1, 88379, Note_off_c, 1, 50, 0
1, 88380, Note_on_c, 1, 73, 127
1, 88380, Note_on_c, 1, 58, 127
1, 88380, Note_on_c, 1, 49, 127
1, 88380, Note_on_c, 1, 70, 127
1, 88439, Note_off_c, 1, 73, 0
1, 88439, Note_off_c, 1, 58, 0
1, 88439, Note_off_c, 1, 49, 0
1, 88439, Note_off_c, 1, 70, 0
1, 88440, Note_on_c, 1, 74, 127
1, 88440, Note_on_c, 1, 59, 127
1, 88440, Note_on_c, 1, 66, 127
1, 88440, Note_on_c, 1, 47, 127
1, 88440, Note_on_c, 1, 71, 127
1, 88499, Note_off_c, 1, 74, 0
1, 88499, Note_off_c, 1, 47, 0
1, 88499, Note_off_c, 1, 71, 0
1, 88500, Note_on_c, 1, 73, 127
1, 88500, Note_on_c, 1, 54, 127
1, 88559, Note_off_c, 1, 73, 0
1, 88559, Note_off_c, 1, 54, 0
1, 88620, Note_on_c, 1, 57, 127
1, 88679, Note_off_c, 1, 59, 0
1, 88679, Note_off_c, 1, 66, 0
1, 88679, Note_off_c, 1, 57, 0
1, 88680, Note_on_c, 1, 62, 127
1, 88680, Note_on_c, 1, 55, 127
1, 88739, Note_off_c, 1, 55, 0
1, 88740, Note_on_c, 1, 76, 127
1, 88799, Note_off_c, 1, 62, 0
1, 88799, Note_off_c, 1, 76, 0
1, 88800, Note_on_c, 1, 73, 127
1, 88800, Note_on_c, 1, 67, 127
1, 88800, Note_on_c, 1, 52, 127
1, 88859, Note_off_c, 1, 52, 0
1, 88860, Note_on_c, 1, 50, 127
1, 88860, Note_on_c, 1, 71, 127
1, 88919, Note_off_c, 1, 73, 0
1, 88919, Note_off_c, 1, 50, 0
1, 88919, Note_off_c, 1, 71, 0
1, 88980, Note_on_c, 1, 49, 127
1, 89039, Note_off_c, 1, 67, 0
1, 89039, Note_off_c, 1, 49, 0
1, 89040, Note_on_c, 1, 66, 127
1, 89040, Note_on_c, 1, 70, 127
1, 89040, Note_on_c, 1, 54, 127
1, 89099, Note_off_c, 1, 54, 0
1, 89159, Note_off_c, 1, 66, 0
1, 89159, Note_off_c, 1, 70, 0
1, 89160, Note_on_c, 1, 74, 127
1, 89160, Note_on_c, 1, 66, 127
1, 89160, Note_on_c, 1, 71, 127
1, 89160, Note_on_c, 1, 50, 127
1, 89160, Note_on_c, 1, 62, 127
1, 89219, Note_off_c, 1, 50, 0
1, 89220, Note_on_c, 1, 64, 127
1, 89220, Note_on_c, 1, 49, 127
1, 89279, Note_off_c, 1, 74, 0
1, 89279, Note_off_c, 1, 66, 0
1, 89279, Note_off_c, 1, 71, 0
1, 89279, Note_off_c, 1, 62, 0
1, 89279, Note_off_c, 1, 64, 0
1, 89279, Note_off_c, 1, 49, 0
1, 89280, Note_on_c, 1, 74, 127
1, 89280, Note_on_c, 1, 66, 127
1, 89280, Note_on_c, 1, 47, 127
1, 89339, Note_off_c, 1, 66, 0
1, 89339, Note_off_c, 1, 47, 0
1, 89340, Note_on_c, 1, 67, 127
1, 89340, Note_on_c, 1, 59, 127
1, 89399, Note_off_c, 1, 67, 0
1, 89399, Note_off_c, 1, 59, 0
1, 89400, Note_on_c, 1, 64, 127
1, 89400, Note_on_c, 1, 76, 127
1, 89400, Note_on_c, 1, 57, 127
1, 89459, Note_off_c, 1, 74, 0
1, 89459, Note_off_c, 1, 64, 0
1, 89459, Note_off_c, 1, 57, 0
1, 89460, Note_on_c, 1, 73, 127
1, 89460, Note_on_c, 1, 69, 127
1, 89460, Note_on_c, 1, 55, 127
1, 89489, Note_off_c, 1, 73, 0
1, 89490, Note_on_c, 1, 71, 127
1, 89519, Note_off_c, 1, 76, 0
1, 89519, Note_off_c, 1, 69, 0
1, 89519, Note_off_c, 1, 55, 0
1, 89519, Note_off_c, 1, 71, 0
1, 89520, Note_on_c, 1, 69, 127
1, 89520, Note_on_c, 1, 62, 127
1, 89520, Note_on_c, 1, 78, 127
1, 89520, Note_on_c, 1, 54, 127
1, 89579, Note_off_c, 1, 54, 0
1, 89580, Note_on_c, 1, 52, 127
1, 89639, Note_off_c, 1, 69, 0
1, 89639, Note_off_c, 1, 62, 0
1, 89639, Note_off_c, 1, 78, 0
1, 89639, Note_off_c, 1, 52, 0
1, 89640, Note_on_c, 1, 69, 127
1, 89640, Note_on_c, 1, 66, 127
1, 89640, Note_on_c, 1, 74, 127
1, 89640, Note_on_c, 1, 54, 127
1, 89699, Note_off_c, 1, 54, 0
1, 89700, Note_on_c, 1, 55, 127
1, 89759, Note_off_c, 1, 66, 0
1, 89759, Note_off_c, 1, 74, 0
1, 89759, Note_off_c, 1, 55, 0
1, 89760, Note_on_c, 1, 64, 127
1, 89760, Note_on_c, 1, 73, 127
1, 89760, Note_on_c, 1, 57, 127
1, 89819, Note_off_c, 1, 57, 0
1, 89879, Note_off_c, 1, 69, 0
1, 89879, Note_off_c, 1, 64, 0
1, 89879, Note_off_c, 1, 73, 0
1, 89880, Note_on_c, 1, 74, 127
1, 89880, Note_on_c, 1, 69, 127
1, 89880, Note_on_c, 1, 54, 127
1, 89939, Note_off_c, 1, 69, 0
1, 89939, Note_off_c, 1, 54, 0
1, 89940, Note_on_c, 1, 73, 127
1, 89940, Note_on_c, 1, 67, 127
1, 89940, Note_on_c, 1, 52, 127
1, 89999, Note_off_c, 1, 73, 0
1, 89999, Note_off_c, 1, 67, 0
1, 89999, Note_off_c, 1, 52, 0
1, 90000, Note_on_c, 1, 66, 127
1, 90000, Note_on_c, 1, 50, 127
1, 90059, Note_off_c, 1, 66, 0
1, 90059, Note_off_c, 1, 50, 0
1, 90180, Note_on_c, 1, 76, 127
1, 90180, Note_on_c, 1, 71, 127
1, 90209, Note_off_c, 1, 76, 0
1, 90210, Note_on_c, 1, 78, 127
1, 90239, Note_off_c, 1, 74, 0
1, 90239, Note_off_c, 1, 71, 0
1, 90239, Note_off_c, 1, 78, 0
1, 90240, Note_on_c, 1, 76, 127
1, 90240, Note_on_c, 1, 73, 127
1, 90240, Note_on_c, 1, 57, 127
1, 90299, Note_off_c, 1, 76, 0
1, 90299, Note_off_c, 1, 73, 0
1, 90299, Note_off_c, 1, 57, 0
1, 90300, Note_on_c, 1, 74, 127
1, 90300, Note_on_c, 1, 71, 127
1, 90300, Note_on_c, 1, 59, 127
1, 90359, Note_off_c, 1, 74, 0
1, 90359, Note_off_c, 1, 71, 0
1, 90359, Note_off_c, 1, 59, 0
1, 90360, Note_on_c, 1, 76, 127
1, 90360, Note_on_c, 1, 69, 127
1, 90360, Note_on_c, 1, 61, 127
1, 90419, Note_off_c, 1, 69, 0
1, 90419, Note_off_c, 1, 61, 0
1, 90420, Note_on_c, 1, 71, 127
1, 90420, Note_on_c, 1, 59, 127
1, 90479, Note_off_c, 1, 71, 0
1, 90479, Note_off_c, 1, 59, 0
1, 90480, Note_on_c, 1, 67, 127
1, 90539, Note_off_c, 1, 76, 0
1, 90539, Note_off_c, 1, 67, 0
1, 90540, Note_on_c, 1, 78, 127
1, 90540, Note_on_c, 1, 69, 127
1, 90540, Note_on_c, 1, 57, 127
1, 90599, Note_off_c, 1, 78, 0
1, 90599, Note_off_c, 1, 69, 0
1, 90599, Note_off_c, 1, 57, 0
1, 90600, Note_on_c, 1, 76, 127
1, 90600, Note_on_c, 1, 66, 127
1, 90600, Note_on_c, 1, 78, 127
1, 90600, Note_on_c, 1, 62, 127
1, 90659, Note_off_c, 1, 76, 0
1, 90659, Note_off_c, 1, 62, 0
1, 90660, Note_on_c, 1, 74, 127
1, 90660, Note_on_c, 1, 50, 127
1, 90719, Note_off_c, 1, 66, 0
1, 90719, Note_off_c, 1, 78, 0
1, 90719, Note_off_c, 1, 50, 0
1, 90720, Note_on_c, 1, 52, 127
1, 90779, Note_off_c, 1, 74, 0
1, 90779, Note_off_c, 1, 52, 0
1, 90780, Note_on_c, 1, 73, 127
1, 90780, Note_on_c, 1, 54, 127
1, 90839, Note_off_c, 1, 54, 0
1, 90840, Note_on_c, 1, 59, 127
1, 90840, Note_on_c, 1, 55, 127
1, 90899, Note_off_c, 1, 73, 0
1, 90899, Note_off_c, 1, 55, 0
1, 90900, Note_on_c, 1, 71, 127
1, 90959, Note_off_c, 1, 59, 0
1, 90960, Note_on_c, 1, 67, 127
1, 91019, Note_off_c, 1, 71, 0
1, 91020, Note_on_c, 1, 49, 127
1, 91079, Note_off_c, 1, 67, 0
1, 91079, Note_off_c, 1, 49, 0
1, 91260, Note_on_c, 1, 70, 127
1, 91319, Note_off_c, 1, 70, 0
1, 91320, Note_on_c, 1, 71, 127
1, 91320, Note_on_c, 1, 66, 127
1, 91320, Note_on_c, 1, 50, 127
1, 91367, Note_off_c, 1, 71, 0
1, 91367, Note_off_c, 1, 66, 0
1, 91379, Note_off_c, 1, 50, 0
1, 91380, Note_on_c, 1, 66, 127
1, 91380, Note_on_c, 1, 62, 127
1, 91380, Note_on_c, 1, 47, 127
1, 91403, Note_off_c, 1, 66, 0
1, 91403, Note_off_c, 1, 62, 0
1, 91410, Note_on_c, 1, 64, 127
1, 91410, Note_on_c, 1, 61, 127
1, 91433, Note_off_c, 1, 64, 0
1, 91433, Note_off_c, 1, 61, 0
1, 91439, Note_off_c, 1, 47, 0
1, 91440, Note_on_c, 1, 62, 127
1, 91440, Note_on_c, 1, 59, 127
1, 91487, Note_off_c, 1, 62, 0
1, 91500, Note_on_c, 1, 66, 127
1, 91500, Note_on_c, 1, 47, 127
1, 91529, Note_off_c, 1, 47, 0
1, 91530, Note_on_c, 1, 49, 127
1, 91535, Note_off_c, 1, 59, 0
1, 91547, Note_off_c, 1, 66, 0
1, 91559, Note_off_c, 1, 49, 0
1, 91560, Note_on_c, 1, 59, 127
1, 91560, Note_on_c, 1, 50, 127
1, 91607, Note_off_c, 1, 59, 0
1, 91619, Note_off_c, 1, 50, 0
1, 91620, Note_on_c, 1, 71, 127
1, 91620, Note_on_c, 1, 62, 127
1, 91620, Note_on_c, 1, 47, 127
1, 91667, Note_off_c, 1, 71, 0
1, 91667, Note_off_c, 1, 62, 0
1, 91679, Note_off_c, 1, 47, 0
1, 91680, Note_on_c, 1, 70, 127
1, 91680, Note_on_c, 1, 61, 127
1, 91680, Note_on_c, 1, 54, 127
1, 91727, Note_off_c, 1, 70, 0
1, 91727, Note_off_c, 1, 61, 0
1, 91739, Note_off_c, 1, 54, 0
1, 91740, Note_on_c, 1, 73, 127
1, 91740, Note_on_c, 1, 64, 127
1, 91740, Note_on_c, 1, 42, 127
1, 91763, Note_off_c, 1, 73, 0
1, 91763, Note_off_c, 1, 64, 0
1, 91770, Note_on_c, 1, 71, 127
1, 91770, Note_on_c, 1, 62, 127
1, 91793, Note_off_c, 1, 71, 0
1, 91793, Note_off_c, 1, 62, 0
1, 91799, Note_off_c, 1, 42, 0
1, 91800, Note_on_c, 1, 70, 127
1, 91800, Note_on_c, 1, 61, 127
1, 91847, Note_off_c, 1, 70, 0
1, 91860, Note_on_c, 1, 73, 127
1, 91860, Note_on_c, 1, 54, 127
1, 91889, Note_off_c, 1, 54, 0
1, 91890, Note_on_c, 1, 56, 127
1, 91895, Note_off_c, 1, 61, 0
1, 91907, Note_off_c, 1, 73, 0
1, 91919, Note_off_c, 1, 56, 0
1, 91920, Note_on_c, 1, 66, 127
1, 91920, Note_on_c, 1, 58, 127
1, 91967, Note_off_c, 1, 66, 0
1, 91979, Note_off_c, 1, 58, 0
1, 91980, Note_on_c, 1, 70, 127
1, 91980, Note_on_c, 1, 61, 127
1, 91980, Note_on_c, 1, 54, 127
1, 92027, Note_off_c, 1, 70, 0
1, 92027, Note_off_c, 1, 61, 0
1, 92039, Note_off_c, 1, 54, 0
1, 92040, Note_on_c, 1, 71, 127
1, 92040, Note_on_c, 1, 62, 127
1, 92040, Note_on_c, 1, 74, 127
1, 92040, Note_on_c, 1, 59, 127
1, 92087, Note_off_c, 1, 71, 0
1, 92087, Note_off_c, 1, 62, 0
1, 92099, Note_off_c, 1, 59, 0
1, 92100, Note_on_c, 1, 54, 127
1, 92130, Note_on_c, 1, 73, 127
1, 92130, Note_on_c, 1, 58, 127
1, 92153, Note_off_c, 1, 73, 0
1, 92153, Note_off_c, 1, 58, 0
1, 92159, Note_off_c, 1, 74, 0
1, 92159, Note_off_c, 1, 54, 0
1, 92160, Note_on_c, 1, 71, 127
1, 92160, Note_on_c, 1, 59, 127
1, 92160, Note_on_c, 1, 76, 127
1, 92160, Note_on_c, 1, 55, 127
1, 92207, Note_off_c, 1, 71, 0
1, 92219, Note_off_c, 1, 76, 0
1, 92220, Note_on_c, 1, 74, 127
1, 92255, Note_off_c, 1, 59, 0
1, 92279, Note_off_c, 1, 55, 0
1, 92279, Note_off_c, 1, 74, 0
1, 92280, Note_on_c, 1, 64, 127
1, 92280, Note_on_c, 1, 73, 127
1, 92327, Note_off_c, 1, 64, 0
1, 92339, Note_off_c, 1, 73, 0
1, 92340, Note_on_c, 1, 71, 127
1, 92340, Note_on_c, 1, 64, 127
1, 92340, Note_on_c, 1, 43, 127
1, 92387, Note_off_c, 1, 64, 0
1, 92399, Note_off_c, 1, 71, 0
1, 92399, Note_off_c, 1, 43, 0
1, 92400, Note_on_c, 1, 73, 127
1, 92400, Note_on_c, 1, 64, 127
1, 92400, Note_on_c, 1, 70, 127
1, 92400, Note_on_c, 1, 42, 127
1, 92447, Note_off_c, 1, 73, 0
1, 92447, Note_off_c, 1, 64, 0
1, 92459, Note_off_c, 1, 42, 0
1, 92460, Note_on_c, 1, 76, 127
1, 92460, Note_on_c, 1, 61, 127
1, 92460, Note_on_c, 1, 49, 127
1, 92483, Note_off_c, 1, 76, 0
1, 92483, Note_off_c, 1, 61, 0
1, 92490, Note_on_c, 1, 74, 127
1, 92490, Note_on_c, 1, 62, 127
1, 92513, Note_off_c, 1, 74, 0
1, 92513, Note_off_c, 1, 62, 0
1, 92519, Note_off_c, 1, 49, 0
1, 92520, Note_on_c, 1, 54, 127
1, 92579, Note_off_c, 1, 70, 0
1, 92579, Note_off_c, 1, 54, 0
1, 92580, Note_on_c, 1, 71, 127
1, 92580, Note_on_c, 1, 52, 127
1, 92609, Note_off_c, 1, 71, 0
1, 92639, Note_off_c, 1, 52, 0
1, 92640, Note_on_c, 1, 66, 127
1, 92640, Note_on_c, 1, 50, 127
1, 92699, Note_off_c, 1, 50, 0
1, 92700, Note_on_c, 1, 73, 127
1, 92700, Note_on_c, 1, 70, 127
1, 92700, Note_on_c, 1, 49, 127
1, 92747, Note_off_c, 1, 73, 0
1, 92747, Note_off_c, 1, 70, 0
1, 92759, Note_off_c, 1, 66, 0
1, 92759, Note_off_c, 1, 49, 0
1, 92760, Note_on_c, 1, 74, 127
1, 92760, Note_on_c, 1, 71, 127
1, 92760, Note_on_c, 1, 47, 127
1, 92807, Note_off_c, 1, 74, 0
1, 92807, Note_off_c, 1, 71, 0
1, 92820, Note_on_c, 1, 78, 127
1, 92843, Note_off_c, 1, 78, 0
1, 92850, Note_on_c, 1, 76, 127
1, 92850, Note_on_c, 1, 73, 127
1, 92873, Note_off_c, 1, 76, 0
1, 92873, Note_off_c, 1, 73, 0
1, 92879, Note_off_c, 1, 47, 0
1, 92880, Note_on_c, 1, 74, 127
1, 92880, Note_on_c, 1, 71, 127
1, 92880, Note_on_c, 1, 78, 127
1, 92880, Note_on_c, 1, 47, 127
1, 92927, Note_off_c, 1, 74, 0
1, 92975, Note_off_c, 1, 71, 0
1, 92999, Note_off_c, 1, 78, 0
1, 93000, Note_on_c, 1, 66, 127
1, 93047, Note_off_c, 1, 66, 0
1, 93059, Note_off_c, 1, 47, 0
1, 93060, Note_on_c, 1, 62, 127
1, 93107, Note_off_c, 1, 62, 0
1, 93120, Note_on_c, 1, 73, 127
1, 93120, Note_on_c, 1, 66, 127
1, 93120, Note_on_c, 1, 78, 127
1, 93120, Note_on_c, 1, 46, 127
1, 93167, Note_off_c, 1, 73, 0
1, 93167, Note_off_c, 1, 66, 0
1, 93180, Note_on_c, 1, 76, 127
1, 93180, Note_on_c, 1, 61, 127
1, 93203, Note_off_c, 1, 76, 0
1, 93203, Note_off_c, 1, 61, 0
1, 93210, Note_on_c, 1, 74, 127
1, 93210, Note_on_c, 1, 59, 127
1, 93233, Note_off_c, 1, 74, 0
1, 93233, Note_off_c, 1, 59, 0
1, 93239, Note_off_c, 1, 46, 0
1, 93240, Note_on_c, 1, 58, 127
1, 93299, Note_off_c, 1, 78, 0
1, 93335, Note_off_c, 1, 58, 0
1, 93480, Note_on_c, 1, 71, 127
1, 93480, Note_on_c, 1, 54, 127
1, 93480, Note_on_c, 1, 47, 127
1, 93527, Note_off_c, 1, 71, 0
1, 93527, Note_off_c, 1, 54, 0
1, 93540, Note_on_c, 1, 73, 127
1, 93540, Note_on_c, 1, 66, 127
1, 93540, Note_on_c, 1, 78, 127
1, 93563, Note_off_c, 1, 73, 0
1, 93563, Note_off_c, 1, 66, 0
1, 93570, Note_on_c, 1, 64, 127
1, 93593, Note_off_c, 1, 64, 0
1, 93599, Note_off_c, 1, 47, 0
1, 93599, Note_off_c, 1, 78, 0
1, 93600, Note_on_c, 1, 71, 127
1, 93600, Note_on_c, 1, 62, 127
1, 93600, Note_on_c, 1, 79, 127
1, 93600, Note_on_c, 1, 47, 127
1, 93647, Note_off_c, 1, 71, 0
1, 93659, Note_off_c, 1, 79, 0
1, 93660, Note_on_c, 1, 78, 127
1, 93695, Note_off_c, 1, 62, 0
1, 93719, Note_off_c, 1, 78, 0
1, 93720, Note_on_c, 1, 66, 127
1, 93720, Note_on_c, 1, 76, 127
1, 93767, Note_off_c, 1, 66, 0
1, 93779, Note_off_c, 1, 47, 0
1, 93779, Note_off_c, 1, 76, 0
1, 93780, Note_on_c, 1, 74, 127
1, 93780, Note_on_c, 1, 66, 127
1, 93780, Note_on_c, 1, 47, 127
1, 93827, Note_off_c, 1, 66, 0
1, 93839, Note_off_c, 1, 74, 0
1, 93839, Note_off_c, 1, 47, 0
1, 93840, Note_on_c, 1, 70, 127
1, 93840, Note_on_c, 1, 66, 127
1, 93840, Note_on_c, 1, 76, 127
1, 93840, Note_on_c, 1, 49, 127
1, 93887, Note_off_c, 1, 70, 0
1, 93887, Note_off_c, 1, 66, 0
1, 93900, Note_on_c, 1, 73, 127
1, 93900, Note_on_c, 1, 64, 127
1, 93923, Note_off_c, 1, 73, 0
1, 93923, Note_off_c, 1, 64, 0
1, 93930, Note_on_c, 1, 71, 127
1, 93930, Note_on_c, 1, 62, 127
1, 93953, Note_off_c, 1, 71, 0
1, 93953, Note_off_c, 1, 62, 0
1, 93959, Note_off_c, 1, 76, 0
1, 93959, Note_off_c, 1, 49, 0
1, 93960, Note_on_c, 1, 70, 127
1, 93960, Note_on_c, 1, 61, 127
1, 93960, Note_on_c, 1, 76, 127
1, 93960, Note_on_c, 1, 49, 127
1, 94007, Note_off_c, 1, 70, 0
1, 94019, Note_off_c, 1, 76, 0
1, 94020, Note_on_c, 1, 78, 127
1, 94020, Note_on_c, 1, 74, 127
1, 94055, Note_off_c, 1, 61, 0
1, 94067, Note_off_c, 1, 78, 0
1, 94079, Note_off_c, 1, 74, 0
1, 94080, Note_on_c, 1, 66, 127
1, 94080, Note_on_c, 1, 73, 127
1, 94127, Note_off_c, 1, 66, 0
1, 94140, Note_on_c, 1, 64, 127
1, 94187, Note_off_c, 1, 64, 0
1, 94199, Note_off_c, 1, 49, 0
1, 94199, Note_off_c, 1, 73, 0
1, 94200, Note_on_c, 1, 71, 127
1, 94200, Note_on_c, 1, 66, 127
1, 94200, Note_on_c, 1, 50, 127
1, 94260, Note_on_c, 1, 78, 127
1, 94319, Note_off_c, 1, 71, 0
1, 94319, Note_off_c, 1, 66, 0
1, 94319, Note_off_c, 1, 50, 0
1, 94319, Note_off_c, 1, 78, 0
1, 94320, Note_on_c, 1, 59, 127
1, 94320, Note_on_c, 1, 66, 127
1, 94320, Note_on_c, 1, 76, 127
1, 94320, Note_on_c, 1, 50, 127
1, 94379, Note_off_c, 1, 76, 0
1, 94380, Note_on_c, 1, 74, 127
1, 94439, Note_off_c, 1, 59, 0
1, 94439, Note_off_c, 1, 74, 0
1, 94440, Note_on_c, 1, 73, 127
1, 94499, Note_off_c, 1, 66, 0
1, 94499, Note_off_c, 1, 50, 0
1, 94499, Note_off_c, 1, 73, 0
1, 94500, Note_on_c, 1, 67, 127
1, 94500, Note_on_c, 1, 71, 127
1, 94500, Note_on_c, 1, 50, 127
1, 94559, Note_off_c, 1, 67, 0
1, 94559, Note_off_c, 1, 71, 0
1, 94559, Note_off_c, 1, 50, 0
1, 94560, Note_on_c, 1, 64, 127
1, 94560, Note_on_c, 1, 70, 127
1, 94560, Note_on_c, 1, 49, 127
1, 94620, Note_on_c, 1, 79, 127
1, 94679, Note_off_c, 1, 64, 0
1, 94679, Note_off_c, 1, 70, 0
1, 94679, Note_off_c, 1, 49, 0
1, 94679, Note_off_c, 1, 79, 0
1, 94680, Note_on_c, 1, 78, 127
1, 94680, Note_on_c, 1, 64, 127
1, 94680, Note_on_c, 1, 70, 127
1, 94680, Note_on_c, 1, 54, 127
1, 94739, Note_off_c, 1, 78, 0
1, 94739, Note_off_c, 1, 70, 0
1, 94740, Note_on_c, 1, 76, 127
1, 94740, Note_on_c, 1, 68, 127
1, 94799, Note_off_c, 1, 54, 0
1, 94799, Note_off_c, 1, 76, 0
1, 94799, Note_off_c, 1, 68, 0
1, 94800, Note_on_c, 1, 74, 127
1, 94800, Note_on_c, 1, 66, 127
1, 94800, Note_on_c, 1, 46, 127
1, 94859, Note_off_c, 1, 74, 0
1, 94860, Note_on_c, 1, 73, 127
1, 94919, Note_off_c, 1, 64, 0
1, 94919, Note_off_c, 1, 66, 0
1, 94919, Note_off_c, 1, 46, 0
1, 94919, Note_off_c, 1, 73, 0
1, 94920, Note_on_c, 1, 74, 127
1, 94920, Note_on_c, 1, 62, 127
1, 94920, Note_on_c, 1, 47, 127
1, 94979, Note_off_c, 1, 74, 0
1, 94979, Note_off_c, 1, 47, 0
1, 94980, Note_on_c, 1, 76, 127
1, 94980, Note_on_c, 1, 54, 127
1, 95039, Note_off_c, 1, 62, 0
1, 95039, Note_off_c, 1, 76, 0
1, 95039, Note_off_c, 1, 54, 0
1, 95040, Note_on_c, 1, 74, 127
1, 95040, Note_on_c, 1, 62, 127
1, 95040, Note_on_c, 1, 66, 127
1, 95040, Note_on_c, 1, 59, 127
1, 95099, Note_off_c, 1, 74, 0
1, 95099, Note_off_c, 1, 59, 0
1, 95100, Note_on_c, 1, 73, 127
1, 95100, Note_on_c, 1, 57, 127
1, 95159, Note_off_c, 1, 66, 0
1, 95159, Note_off_c, 1, 73, 0
1, 95159, Note_off_c, 1, 57, 0
1, 95160, Note_on_c, 1, 71, 127
1, 95160, Note_on_c, 1, 55, 127
1, 95219, Note_off_c, 1, 62, 0
1, 95219, Note_off_c, 1, 55, 0
1, 95220, Note_on_c, 1, 69, 127
1, 95220, Note_on_c, 1, 64, 127
1, 95220, Note_on_c, 1, 54, 127
1, 95279, Note_off_c, 1, 71, 0
1, 95279, Note_off_c, 1, 69, 0
1, 95279, Note_off_c, 1, 64, 0
1, 95279, Note_off_c, 1, 54, 0
1, 95280, Note_on_c, 1, 67, 127
1, 95280, Note_on_c, 1, 61, 127
1, 95280, Note_on_c, 1, 73, 127
1, 95280, Note_on_c, 1, 52, 127
1, 95339, Note_off_c, 1, 67, 0
1, 95340, Note_on_c, 1, 64, 127
1, 95399, Note_off_c, 1, 61, 0
1, 95399, Note_off_c, 1, 73, 0
1, 95399, Note_off_c, 1, 52, 0
1, 95399, Note_off_c, 1, 64, 0
1, 95400, Note_on_c, 1, 61, 127
1, 95400, Note_on_c, 1, 70, 127
1, 95400, Note_on_c, 1, 54, 127
1, 95460, Note_on_c, 1, 64, 127
1, 95519, Note_off_c, 1, 54, 0
1, 95519, Note_off_c, 1, 64, 0
1, 95520, Note_on_c, 1, 58, 127
1, 95520, Note_on_c, 1, 42, 127
1, 95579, Note_off_c, 1, 58, 0
1, 95580, Note_on_c, 1, 66, 127
1, 95639, Note_off_c, 1, 61, 0
1, 95639, Note_off_c, 1, 70, 0
1, 95639, Note_off_c, 1, 42, 0
1, 95639, Note_off_c, 1, 66, 0
1, 95640, Note_on_c, 1, 74, 127
1, 95640, Note_on_c, 1, 59, 127
1, 95640, Note_on_c, 1, 71, 127
1, 95640, Note_on_c, 1, 47, 127
1, 95699, Note_off_c, 1, 47, 0
1, 95700, Note_on_c, 1, 42, 127
1, 95759, Note_off_c, 1, 74, 0
1, 95759, Note_off_c, 1, 59, 0
1, 95759, Note_off_c, 1, 42, 0
1, 95760, Note_on_c, 1, 66, 127
1, 95820, Note_on_c, 1, 45, 127
1, 95879, Note_off_c, 1, 71, 0
1, 95879, Note_off_c, 1, 66, 0
1, 95879, Note_off_c, 1, 45, 0
1, 95880, Note_on_c, 1, 64, 127
1, 95880, Note_on_c, 1, 43, 127
1, 95939, Note_off_c, 1, 43, 0
1, 95940, Note_on_c, 1, 76, 127
1, 95940, Note_on_c, 1, 40, 127
1, 95999, Note_off_c, 1, 76, 0
1, 95999, Note_off_c, 1, 40, 0
1, 96000, Note_on_c, 1, 73, 127
1, 96060, Note_on_c, 1, 52, 127
1, 96119, Note_off_c, 1, 64, 0
1, 96119, Note_off_c, 1, 73, 0
1, 96119, Note_off_c, 1, 52, 0
1, 96120, Note_on_c, 1, 73, 127
1, 96120, Note_on_c, 1, 64, 127
1, 96120, Note_on_c, 1, 57, 127
1, 96179, Note_off_c, 1, 57, 0
1, 96180, Note_on_c, 1, 55, 127
1, 96239, Note_off_c, 1, 64, 0
1, 96239, Note_off_c, 1, 55, 0
1, 96240, Note_on_c, 1, 62, 127
1, 96240, Note_on_c, 1, 54, 127
1, 96299, Note_off_c, 1, 54, 0
1, 96300, Note_on_c, 1, 50, 127
1, 96359, Note_off_c, 1, 73, 0
1, 96359, Note_off_c, 1, 50, 0
1, 96360, Note_on_c, 1, 71, 127
1, 96360, Note_on_c, 1, 43, 127
1, 96419, Note_off_c, 1, 43, 0
1, 96420, Note_on_c, 1, 38, 127
1, 96479, Note_off_c, 1, 62, 0
1, 96479, Note_off_c, 1, 71, 0
1, 96479, Note_off_c, 1, 38, 0
1, 96480, Note_on_c, 1, 71, 127
1, 96480, Note_on_c, 1, 62, 127
1, 96480, Note_on_c, 1, 43, 127
1, 96539, Note_off_c, 1, 43, 0
1, 96540, Note_on_c, 1, 42, 127
1, 96599, Note_off_c, 1, 62, 0
1, 96599, Note_off_c, 1, 42, 0
1, 96600, Note_on_c, 1, 61, 127
1, 96600, Note_on_c, 1, 40, 127
1, 96659, Note_off_c, 1, 71, 0
1, 96659, Note_off_c, 1, 40, 0
1, 96660, Note_on_c, 1, 73, 127
1, 96660, Note_on_c, 1, 37, 127
1, 96719, Note_off_c, 1, 73, 0
1, 96719, Note_off_c, 1, 37, 0
1, 96720, Note_on_c, 1, 70, 127
1, 96780, Note_on_c, 1, 49, 127
1, 96839, Note_off_c, 1, 61, 0
1, 96839, Note_off_c, 1, 49, 0
1, 96840, Note_on_c, 1, 54, 127
1, 96899, Note_off_c, 1, 70, 0
1, 96899, Note_off_c, 1, 54, 0
1, 96900, Note_on_c, 1, 66, 127
1, 96900, Note_on_c, 1, 52, 127
1, 96959, Note_off_c, 1, 66, 0
1, 96959, Note_off_c, 1, 52, 0
1, 96960, Note_on_c, 1, 71, 127
1, 96960, Note_on_c, 1, 66, 127
1, 96960, Note_on_c, 1, 50, 127
1, 97019, Note_off_c, 1, 66, 0
1, 97019, Note_off_c, 1, 50, 0
1, 97020, Note_on_c, 1, 62, 127
1, 97020, Note_on_c, 1, 47, 127
1, 97079, Note_off_c, 1, 62, 0
1, 97079, Note_off_c, 1, 47, 0
1, 97080, Note_on_c, 1, 64, 127
1, 97080, Note_on_c, 1, 55, 127
1, 97139, Note_off_c, 1, 71, 0
1, 97139, Note_off_c, 1, 64, 0
1, 97139, Note_off_c, 1, 55, 0
1, 97140, Note_on_c, 1, 73, 127
1, 97140, Note_on_c, 1, 67, 127
1, 97140, Note_on_c, 1, 52, 127
1, 97199, Note_off_c, 1, 73, 0
1, 97199, Note_off_c, 1, 67, 0
1, 97199, Note_off_c, 1, 52, 0
1, 97200, Note_on_c, 1, 70, 127
1, 97200, Note_on_c, 1, 61, 127
1, 97200, Note_on_c, 1, 54, 127
1, 97319, Note_off_c, 1, 54, 0
1, 97320, Note_on_c, 1, 42, 127
1, 97379, Note_off_c, 1, 70, 0
1, 97379, Note_off_c, 1, 61, 0
1, 97380, Note_on_c, 1, 71, 127
1, 97380, Note_on_c, 1, 62, 127
1, 97439, Note_off_c, 1, 42, 0
1, 97439, Note_off_c, 1, 71, 0
1, 97439, Note_off_c, 1, 62, 0
1, 97440, Note_on_c, 1, 71, 127
1, 97440, Note_on_c, 1, 62, 127
1, 97440, Note_on_c, 1, 47, 127
1, 97799, Note_off_c, 1, 71, 0
1, 97799, Note_off_c, 1, 62, 0
1, 97799, Note_off_c, 1, 47, 0
1, 97920, Note_on_c, 1, 49, 127
1, 97920, Note_on_c, 1, 64, 127
1, 97920, Note_on_c, 1, 69, 127
1, 97920, Note_on_c, 1, 61, 127
1, 97980, Note_on_c, 1, 52, 127
1, 98040, Note_off_c, 1, 52, 0
1, 98040, Note_on_c, 1, 57, 127
1, 98100, Note_off_c, 1, 57, 0
1, 98100, Note_on_c, 1, 56, 127
1, 98160, Note_off_c, 1, 56, 0
1, 98280, Note_on_c, 1, 45, 127
1, 98340, Note_off_c, 1, 45, 0
1, 98370, Note_on_c, 1, 55, 127
1, 98400, Note_off_c, 1, 49, 0
1, 98400, Note_off_c, 1, 64, 0
1, 98400, Note_off_c, 1, 61, 0
1, 98400, Note_off_c, 1, 55, 0
1, 98400, Note_on_c, 1, 54, 127
1, 98400, Note_on_c, 1, 50, 127
1, 98400, Note_on_c, 1, 66, 127
1, 98400, Note_on_c, 1, 62, 127
1, 98520, Note_off_c, 1, 54, 0
1, 98640, Note_off_c, 1, 50, 0
1, 98640, Note_off_c, 1, 62, 0
1, 98760, Note_on_c, 1, 59, 127
1, 98820, Note_off_c, 1, 59, 0
1, 98880, Note_off_c, 1, 69, 0
1, 98880, Note_on_c, 1, 47, 127
1, 98880, Note_on_c, 1, 71, 127
1, 99840, Note_off_c, 1, 66, 0
1, 99840, Note_off_c, 1, 47, 0
1, 99840, Note_on_c, 1, 44, 127
1, 99840, Note_on_c, 1, 68, 127
1, 100080, Note_off_c, 1, 71, 0
1, 100080, Note_off_c, 1, 44, 0
1, 100080, Note_off_c, 1, 68, 0
1, 100230, Note_on_c, 1, 76, 127
1, 100290, Note_off_c, 1, 76, 0
1, 100290, Note_on_c, 1, 73, 127
1, 100320, Note_off_c, 1, 73, 0
1, 100440, Note_on_c, 1, 79, 127
1, 100500, Note_off_c, 1, 79, 0
1, 100500, Note_on_c, 1, 78, 127
1, 100560, Note_on_c, 1, 48, 127
1, 100680, Note_off_c, 1, 78, 0
1, 100740, Note_on_c, 1, 74, 127
1, 100800, Note_off_c, 1, 48, 0
1, 100800, Note_on_c, 1, 67, 127
1, 100860, Note_off_c, 1, 74, 0
1, 101280, Note_off_c, 1, 67, 0
1, 101520, Note_on_c, 1, 43, 127
1, 101760, Note_off_c, 1, 43, 0
1, 102000, Note_on_c, 1, 74, 127
1, 102000, Note_on_c, 1, 67, 127
1, 102000, Note_on_c, 1, 43, 127
1, 102029, Note_off_c, 1, 67, 0
1, 102030, Note_on_c, 1, 66, 127
1, 102059, Note_off_c, 1, 66, 0
1, 102090, Note_on_c, 1, 69, 127
1, 102119, Note_off_c, 1, 74, 0
1, 102119, Note_off_c, 1, 43, 0
1, 102119, Note_off_c, 1, 69, 0
1, 102120, Note_on_c, 1, 79, 127
1, 102120, Note_on_c, 1, 71, 127
1, 102120, Note_on_c, 1, 55, 127
1, 102179, Note_off_c, 1, 79, 0
1, 102180, Note_on_c, 1, 74, 127
1, 102239, Note_off_c, 1, 71, 0
1, 102239, Note_off_c, 1, 55, 0
1, 102239, Note_off_c, 1, 74, 0
1, 102240, Note_on_c, 1, 71, 127
1, 102240, Note_on_c, 1, 55, 127
1, 102300, Note_on_c, 1, 67, 127
1, 102359, Note_off_c, 1, 71, 0
1, 102359, Note_off_c, 1, 55, 0
1, 102359, Note_off_c, 1, 67, 0
1, 102360, Note_on_c, 1, 74, 127
1, 102360, Note_on_c, 1, 67, 127
1, 102360, Note_on_c, 1, 54, 127
1, 102389, Note_off_c, 1, 67, 0
1, 102390, Note_on_c, 1, 66, 127
1, 102419, Note_off_c, 1, 66, 0
1, 102449, Note_off_c, 1, 74, 0
1, 102450, Note_on_c, 1, 79, 127
1, 102450, Note_on_c, 1, 69, 127
1, 102464, Note_off_c, 1, 79, 0
1, 102465, Note_on_c, 1, 78, 127
1, 102479, Note_off_c, 1, 54, 0
1, 102479, Note_off_c, 1, 69, 0
1, 102479, Note_off_c, 1, 78, 0
1, 102480, Note_on_c, 1, 79, 127
1, 102480, Note_on_c, 1, 71, 127
1, 102480, Note_on_c, 1, 52, 127
1, 102539, Note_off_c, 1, 79, 0
1, 102540, Note_on_c, 1, 74, 127
1, 102599, Note_off_c, 1, 71, 0
1, 102599, Note_off_c, 1, 52, 0
1, 102599, Note_off_c, 1, 74, 0
1, 102600, Note_on_c, 1, 71, 127
1, 102600, Note_on_c, 1, 52, 127
1, 102660, Note_on_c, 1, 67, 127
1, 102719, Note_off_c, 1, 71, 0
1, 102719, Note_off_c, 1, 52, 0
1, 102719, Note_off_c, 1, 67, 0
1, 102720, Note_on_c, 1, 71, 127
1, 102720, Note_on_c, 1, 67, 127
1, 102720, Note_on_c, 1, 50, 127
1, 102809, Note_off_c, 1, 71, 0
1, 102809, Note_off_c, 1, 67, 0
1, 102810, Note_on_c, 1, 72, 127
1, 102810, Note_on_c, 1, 69, 127
1, 102824, Note_off_c, 1, 72, 0
1, 102824, Note_off_c, 1, 69, 0
1, 102825, Note_on_c, 1, 74, 127
1, 102839, Note_off_c, 1, 50, 0
1, 102839, Note_off_c, 1, 74, 0
1, 102840, Note_on_c, 1, 76, 127
1, 102840, Note_on_c, 1, 72, 127
1, 102840, Note_on_c, 1, 48, 127
1, 102869, Note_off_c, 1, 76, 0
1, 102869, Note_off_c, 1, 72, 0
1, 102870, Note_on_c, 1, 74, 127
1, 102870, Note_on_c, 1, 71, 127
1, 102899, Note_off_c, 1, 48, 0
1, 102899, Note_off_c, 1, 74, 0
1, 102899, Note_off_c, 1, 71, 0
1, 102900, Note_on_c, 1, 76, 127
1, 102900, Note_on_c, 1, 72, 127
1, 102900, Note_on_c, 1, 43, 127
1, 102929, Note_off_c, 1, 76, 0
1, 102929, Note_off_c, 1, 72, 0
1, 102930, Note_on_c, 1, 77, 127
1, 102930, Note_on_c, 1, 74, 127
1, 102959, Note_off_c, 1, 43, 0
1, 102959, Note_off_c, 1, 77, 0
1, 102959, Note_off_c, 1, 74, 0
1, 102960, Note_on_c, 1, 76, 127
1, 102960, Note_on_c, 1, 72, 127
1, 102960, Note_on_c, 1, 48, 127
1, 103019, Note_off_c, 1, 76, 0
1, 103019, Note_off_c, 1, 72, 0
1, 103019, Note_off_c, 1, 48, 0
1, 103020, Note_on_c, 1, 74, 127
1, 103020, Note_on_c, 1, 71, 127
1, 103020, Note_on_c, 1, 50, 127
1, 103079, Note_off_c, 1, 74, 0
1, 103079, Note_off_c, 1, 71, 0
1, 103079, Note_off_c, 1, 50, 0
1, 103080, Note_on_c, 1, 72, 127
1, 103080, Note_on_c, 1, 69, 127
1, 103080, Note_on_c, 1, 52, 127
1, 103139, Note_off_c, 1, 72, 0
1, 103139, Note_off_c, 1, 69, 0
1, 103139, Note_off_c, 1, 52, 0
1, 103140, Note_on_c, 1, 71, 127
1, 103140, Note_on_c, 1, 67, 127
1, 103140, Note_on_c, 1, 48, 127
1, 103199, Note_off_c, 1, 71, 0
1, 103199, Note_off_c, 1, 67, 0
1, 103199, Note_off_c, 1, 48, 0
1, 103200, Note_on_c, 1, 69, 127
1, 103200, Note_on_c, 1, 66, 127
1, 103200, Note_on_c, 1, 50, 127
1, 103229, Note_off_c, 1, 50, 0
1, 103230, Note_on_c, 1, 48, 127
1, 103259, Note_off_c, 1, 48, 0
1, 103290, Note_on_c, 1, 52, 127
1, 103319, Note_off_c, 1, 69, 0
1, 103319, Note_off_c, 1, 66, 0
1, 103319, Note_off_c, 1, 52, 0
1, 103320, Note_on_c, 1, 69, 127
1, 103320, Note_on_c, 1, 66, 127
1, 103320, Note_on_c, 1, 50, 127
1, 103379, Note_off_c, 1, 50, 0
1, 103380, Note_on_c, 1, 48, 127
1, 103439, Note_off_c, 1, 69, 0
1, 103439, Note_off_c, 1, 66, 0
1, 103439, Note_off_c, 1, 48, 0
1, 103440, Note_on_c, 1, 74, 127
1, 103440, Note_on_c, 1, 67, 127
1, 103440, Note_on_c, 1, 47, 127
1, 103469, Note_off_c, 1, 67, 0
1, 103470, Note_on_c, 1, 66, 127
1, 103499, Note_off_c, 1, 47, 0
1, 103499, Note_off_c, 1, 66, 0
1, 103500, Note_on_c, 1, 45, 127
1, 103529, Note_off_c, 1, 74, 0
1, 103530, Note_on_c, 1, 79, 127
1, 103530, Note_on_c, 1, 69, 127
1, 103544, Note_off_c, 1, 79, 0
1, 103545, Note_on_c, 1, 78, 127
1, 103559, Note_off_c, 1, 45, 0
1, 103559, Note_off_c, 1, 69, 0
1, 103559, Note_off_c, 1, 78, 0
1, 103560, Note_on_c, 1, 79, 127
1, 103560, Note_on_c, 1, 71, 127
1, 103560, Note_on_c, 1, 43, 127
1, 103589, Note_off_c, 1, 79, 0
1, 103590, Note_on_c, 1, 78, 127
1, 103619, Note_off_c, 1, 71, 0
1, 103619, Note_off_c, 1, 43, 0
1, 103619, Note_off_c, 1, 78, 0
1, 103620, Note_on_c, 1, 76, 127
1, 103620, Note_on_c, 1, 67, 127
1, 103620, Note_on_c, 1, 43, 127
1, 103649, Note_off_c, 1, 76, 0
1, 103650, Note_on_c, 1, 74, 127
1, 103679, Note_off_c, 1, 67, 0
1, 103679, Note_off_c, 1, 43, 0
1, 103679, Note_off_c, 1, 74, 0
1, 103680, Note_on_c, 1, 72, 127
1, 103680, Note_on_c, 1, 62, 127
1, 103680, Note_on_c, 1, 43, 127
1, 103709, Note_off_c, 1, 72, 0
1, 103710, Note_on_c, 1, 71, 127
1, 103739, Note_off_c, 1, 62, 0
1, 103739, Note_off_c, 1, 43, 0
1, 103739, Note_off_c, 1, 71, 0
1, 103740, Note_on_c, 1, 69, 127
1, 103740, Note_on_c, 1, 59, 127
1, 103740, Note_on_c, 1, 43, 127
1, 103769, Note_off_c, 1, 69, 0
1, 103770, Note_on_c, 1, 67, 127
1, 103799, Note_off_c, 1, 59, 0
1, 103799, Note_off_c, 1, 43, 0
1, 103799, Note_off_c, 1, 67, 0
1, 103800, Note_on_c, 1, 76, 127
1, 103800, Note_on_c, 1, 57, 127
1, 103800, Note_on_c, 1, 42, 127
1, 103829, Note_off_c, 1, 76, 0
1, 103830, Note_on_c, 1, 74, 127
1, 103859, Note_off_c, 1, 57, 0
1, 103859, Note_off_c, 1, 42, 0
1, 103859, Note_off_c, 1, 74, 0
1, 103860, Note_on_c, 1, 72, 127
1, 103860, Note_on_c, 1, 69, 127
1, 103860, Note_on_c, 1, 42, 127
1, 103889, Note_off_c, 1, 72, 0
1, 103890, Note_on_c, 1, 71, 127
1, 103919, Note_off_c, 1, 69, 0
1, 103919, Note_off_c, 1, 42, 0
1, 103919, Note_off_c, 1, 71, 0
1, 103920, Note_on_c, 1, 79, 127
1, 103920, Note_on_c, 1, 71, 127
1, 103920, Note_on_c, 1, 40, 127
1, 103949, Note_off_c, 1, 79, 0
1, 103950, Note_on_c, 1, 78, 127
1, 103979, Note_off_c, 1, 71, 0
1, 103979, Note_off_c, 1, 40, 0
1, 103979, Note_off_c, 1, 78, 0
1, 103980, Note_on_c, 1, 76, 127
1, 103980, Note_on_c, 1, 67, 127
1, 103980, Note_on_c, 1, 40, 127
1, 104009, Note_off_c, 1, 76, 0
1, 104010, Note_on_c, 1, 74, 127
1, 104039, Note_off_c, 1, 67, 0
1, 104039, Note_off_c, 1, 40, 0
1, 104039, Note_off_c, 1, 74, 0
1, 104040, Note_on_c, 1, 72, 127
1, 104040, Note_on_c, 1, 64, 127
1, 104040, Note_on_c, 1, 40, 127
1, 104069, Note_off_c, 1, 72, 0
1, 104070, Note_on_c, 1, 71, 127
1, 104099, Note_off_c, 1, 64, 0
1, 104099, Note_off_c, 1, 40, 0
1, 104099, Note_off_c, 1, 71, 0
1, 104100, Note_on_c, 1, 69, 127
1, 104100, Note_on_c, 1, 59, 127
1, 104100, Note_on_c, 1, 40, 127
1, 104129, Note_off_c, 1, 69, 0
1, 104130, Note_on_c, 1, 67, 127
1, 104159, Note_off_c, 1, 59, 0
1, 104159, Note_off_c, 1, 40, 0
1, 104159, Note_off_c, 1, 67, 0
1, 104160, Note_on_c, 1, 69, 127
1, 104160, Note_on_c, 1, 60, 127
1, 104160, Note_on_c, 1, 38, 127
1, 104189, Note_off_c, 1, 69, 0
1, 104189, Note_off_c, 1, 60, 0
1, 104190, Note_on_c, 1, 71, 127
1, 104190, Note_on_c, 1, 62, 127
1, 104219, Note_off_c, 1, 38, 0
1, 104219, Note_off_c, 1, 71, 0
1, 104219, Note_off_c, 1, 62, 0
1, 104220, Note_on_c, 1, 72, 127
1, 104220, Note_on_c, 1, 64, 127
1, 104220, Note_on_c, 1, 38, 127
1, 104249, Note_off_c, 1, 72, 0
1, 104249, Note_off_c, 1, 64, 0
1, 104250, Note_on_c, 1, 74, 127
1, 104250, Note_on_c, 1, 65, 127
1, 104279, Note_off_c, 1, 38, 0
1, 104279, Note_off_c, 1, 74, 0
1, 104279, Note_off_c, 1, 65, 0
1, 104280, Note_on_c, 1, 76, 127
1, 104280, Note_on_c, 1, 67, 127
1, 104280, Note_on_c, 1, 36, 127
1, 104309, Note_off_c, 1, 76, 0
1, 104309, Note_off_c, 1, 67, 0
1, 104310, Note_on_c, 1, 74, 127
1, 104310, Note_on_c, 1, 65, 127
1, 104339, Note_off_c, 1, 36, 0
1, 104339, Note_off_c, 1, 74, 0
1, 104339, Note_off_c, 1, 65, 0
1, 104340, Note_on_c, 1, 76, 127
1, 104340, Note_on_c, 1, 67, 127
1, 104340, Note_on_c, 1, 43, 127
1, 104369, Note_off_c, 1, 76, 0
1, 104369, Note_off_c, 1, 67, 0
1, 104370, Note_on_c, 1, 77, 127
1, 104370, Note_on_c, 1, 69, 127
1, 104399, Note_off_c, 1, 43, 0
1, 104399, Note_off_c, 1, 77, 0
1, 104399, Note_off_c, 1, 69, 0
1, 104400, Note_on_c, 1, 76, 127
1, 104400, Note_on_c, 1, 67, 127
1, 104400, Note_on_c, 1, 48, 127
1, 104429, Note_off_c, 1, 76, 0
1, 104430, Note_on_c, 1, 74, 127
1, 104459, Note_off_c, 1, 67, 0
1, 104459, Note_off_c, 1, 48, 0
1, 104459, Note_off_c, 1, 74, 0
1, 104460, Note_on_c, 1, 72, 127
1, 104460, Note_on_c, 1, 64, 127
1, 104460, Note_on_c, 1, 47, 127
1, 104489, Note_off_c, 1, 72, 0
1, 104490, Note_on_c, 1, 74, 127
1, 104519, Note_off_c, 1, 64, 0
1, 104519, Note_off_c, 1, 47, 0
1, 104519, Note_off_c, 1, 74, 0
1, 104520, Note_on_c, 1, 76, 127
1, 104520, Note_on_c, 1, 66, 127
1, 104520, Note_on_c, 1, 45, 127
1, 104549, Note_off_c, 1, 76, 0
1, 104550, Note_on_c, 1, 74, 127
1, 104579, Note_off_c, 1, 66, 0
1, 104579, Note_off_c, 1, 45, 0
1, 104579, Note_off_c, 1, 74, 0
1, 104580, Note_on_c, 1, 72, 127
1, 104580, Note_on_c, 1, 67, 127
1, 104580, Note_on_c, 1, 43, 127
1, 104609, Note_off_c, 1, 72, 0
1, 104610, Note_on_c, 1, 71, 127
1, 104639, Note_off_c, 1, 67, 0
1, 104639, Note_off_c, 1, 43, 0
1, 104639, Note_off_c, 1, 71, 0
1, 104640, Note_on_c, 1, 69, 127
1, 104640, Note_on_c, 1, 66, 127
1, 104640, Note_on_c, 1, 50, 127
1, 104669, Note_off_c, 1, 66, 0
1, 104669, Note_off_c, 1, 50, 0
1, 104670, Note_on_c, 1, 64, 127
1, 104670, Note_on_c, 1, 48, 127
1, 104699, Note_off_c, 1, 64, 0
1, 104699, Note_off_c, 1, 48, 0
1, 104730, Note_on_c, 1, 67, 127
1, 104730, Note_on_c, 1, 52, 127
1, 104759, Note_off_c, 1, 69, 0
1, 104759, Note_off_c, 1, 67, 0
1, 104759, Note_off_c, 1, 52, 0
1, 104760, Note_on_c, 1, 69, 127
1, 104760, Note_on_c, 1, 66, 127
1, 104760, Note_on_c, 1, 50, 127
1, 104789, Note_off_c, 1, 66, 0
1, 104789, Note_off_c, 1, 50, 0
1, 104790, Note_on_c, 1, 64, 127
1, 104790, Note_on_c, 1, 48, 127
1, 104819, Note_off_c, 1, 64, 0
1, 104819, Note_off_c, 1, 48, 0
1, 104820, Note_on_c, 1, 62, 127
1, 104820, Note_on_c, 1, 47, 127
1, 104849, Note_off_c, 1, 62, 0
1, 104849, Note_off_c, 1, 47, 0
1, 104970, Note_on_c, 1, 60, 127
1, 104970, Note_on_c, 1, 45, 127
1, 104999, Note_off_c, 1, 69, 0
1, 104999, Note_off_c, 1, 60, 0
1, 104999, Note_off_c, 1, 45, 0
1, 105000, Note_on_c, 1, 67, 127
1, 105000, Note_on_c, 1, 62, 127
1, 105000, Note_on_c, 1, 47, 127
1, 105029, Note_off_c, 1, 47, 0
1, 105030, Note_on_c, 1, 48, 127
1, 105059, Note_off_c, 1, 48, 0
1, 105089, Note_off_c, 1, 67, 0
1, 105090, Note_on_c, 1, 69, 127
1, 105090, Note_on_c, 1, 45, 127
1, 105119, Note_off_c, 1, 69, 0
1, 105119, Note_off_c, 1, 45, 0
1, 105120, Note_on_c, 1, 71, 127
1, 105120, Note_on_c, 1, 43, 127
1, 105150, Note_off_c, 1, 62, 0
1, 105150, Note_on_c, 1, 64, 127
1, 105179, Note_off_c, 1, 71, 0
1, 105179, Note_off_c, 1, 64, 0
1, 105210, Note_on_c, 1, 60, 127
1, 105239, Note_off_c, 1, 43, 0
1, 105239, Note_off_c, 1, 60, 0
1, 105240, Note_on_c, 1, 74, 127
1, 105240, Note_on_c, 1, 59, 127
1, 105240, Note_on_c, 1, 41, 127
1, 105299, Note_off_c, 1, 74, 0
1, 105299, Note_off_c, 1, 59, 0
1, 105300, Note_on_c, 1, 71, 127
1, 105300, Note_on_c, 1, 62, 127
1, 105359, Note_off_c, 1, 41, 0
1, 105359, Note_off_c, 1, 71, 0
1, 105359, Note_off_c, 1, 62, 0
1, 105360, Note_on_c, 1, 72, 127
1, 105360, Note_on_c, 1, 67, 127
1, 105360, Note_on_c, 1, 40, 127
1, 105389, Note_off_c, 1, 72, 0
1, 105390, Note_on_c, 1, 74, 127
1, 105419, Note_off_c, 1, 74, 0
1, 105450, Note_on_c, 1, 71, 127
1, 105479, Note_off_c, 1, 40, 0
1, 105479, Note_off_c, 1, 71, 0
1, 105510, Note_off_c, 1, 67, 0
1, 105510, Note_on_c, 1, 69, 127
1, 105539, Note_off_c, 1, 69, 0
1, 105570, Note_on_c, 1, 65, 127
1, 105599, Note_off_c, 1, 65, 0
1, 105600, Note_on_c, 1, 64, 127
1, 105600, Note_on_c, 1, 43, 127
1, 105659, Note_off_c, 1, 64, 0
1, 105660, Note_on_c, 1, 62, 127
1, 105719, Note_off_c, 1, 43, 0
1, 105719, Note_off_c, 1, 62, 0
1, 105720, Note_on_c, 1, 69, 127
1, 105720, Note_on_c, 1, 64, 127
1, 105720, Note_on_c, 1, 36, 127
1, 105749, Note_off_c, 1, 69, 0
1, 105750, Note_on_c, 1, 67, 127
1, 105779, Note_off_c, 1, 64, 0
1, 105779, Note_off_c, 1, 67, 0
1, 105780, Note_on_c, 1, 66, 127
1, 105809, Note_off_c, 1, 66, 0
1, 105810, Note_on_c, 1, 71, 127
1, 105839, Note_off_c, 1, 36, 0
1, 105839, Note_off_c, 1, 71, 0
1, 105840, Note_on_c, 1, 72, 127
1, 105840, Note_on_c, 1, 66, 127
1, 105840, Note_on_c, 1, 38, 127
1, 105899, Note_off_c, 1, 72, 0
1, 105899, Note_off_c, 1, 66, 0
1, 105900, Note_on_c, 1, 71, 127
1, 105900, Note_on_c, 1, 62, 127
1, 105959, Note_off_c, 1, 38, 0
1, 105959, Note_off_c, 1, 71, 0
1, 105959, Note_off_c, 1, 62, 0
1, 105960, Note_on_c, 1, 69, 127
1, 105960, Note_on_c, 1, 61, 127
1, 105960, Note_on_c, 1, 40, 127
1, 106019, Note_off_c, 1, 69, 0
1, 106019, Note_off_c, 1, 61, 0
1, 106020, Note_on_c, 1, 67, 127
1, 106020, Note_on_c, 1, 64, 127
1, 106079, Note_off_c, 1, 40, 0
1, 106079, Note_off_c, 1, 67, 0
1, 106079, Note_off_c, 1, 64, 0
1, 106080, Note_on_c, 1, 74, 127
1, 106080, Note_on_c, 1, 66, 127
1, 106080, Note_on_c, 1, 38, 127
1, 106109, Note_off_c, 1, 74, 0
1, 106109, Note_off_c, 1, 66, 0
1, 106110, Note_on_c, 1, 72, 127
1, 106110, Note_on_c, 1, 64, 127
1, 106139, Note_off_c, 1, 38, 0
1, 106139, Note_off_c, 1, 72, 0
1, 106139, Note_off_c, 1, 64, 0
1, 106140, Note_on_c, 1, 74, 127
1, 106140, Note_on_c, 1, 66, 127
1, 106140, Note_on_c, 1, 45, 127
1, 106169, Note_off_c, 1, 74, 0
1, 106169, Note_off_c, 1, 66, 0
1, 106170, Note_on_c, 1, 76, 127
1, 106170, Note_on_c, 1, 67, 127
1, 106199, Note_off_c, 1, 45, 0
1, 106199, Note_off_c, 1, 76, 0
1, 106199, Note_off_c, 1, 67, 0
1, 106200, Note_on_c, 1, 74, 127
1, 106200, Note_on_c, 1, 66, 127
1, 106200, Note_on_c, 1, 50, 127
1, 106259, Note_off_c, 1, 66, 0
1, 106259, Note_off_c, 1, 50, 0
1, 106260, Note_on_c, 1, 69, 127
1, 106260, Note_on_c, 1, 48, 127
1, 106319, Note_off_c, 1, 69, 0
1, 106319, Note_off_c, 1, 48, 0
1, 106320, Note_on_c, 1, 62, 127
1, 106320, Note_on_c, 1, 47, 127
1, 106379, Note_off_c, 1, 74, 0
1, 106379, Note_off_c, 1, 62, 0
1, 106379, Note_off_c, 1, 47, 0
1, 106380, Note_on_c, 1, 72, 127
1, 106380, Note_on_c, 1, 66, 127
1, 106380, Note_on_c, 1, 45, 127
1, 106439, Note_off_c, 1, 72, 0
1, 106439, Note_off_c, 1, 66, 0
1, 106439, Note_off_c, 1, 45, 0
1, 106440, Note_on_c, 1, 71, 127
1, 106440, Note_on_c, 1, 67, 127
1, 106440, Note_on_c, 1, 43, 127
1, 106499, Note_off_c, 1, 67, 0
1, 106499, Note_off_c, 1, 43, 0
1, 106500, Note_on_c, 1, 66, 127
1, 106500, Note_on_c, 1, 45, 127
1, 106529, Note_off_c, 1, 71, 0
1, 106530, Note_on_c, 1, 72, 127
1, 106544, Note_off_c, 1, 72, 0
1, 106545, Note_on_c, 1, 74, 127
1, 106559, Note_off_c, 1, 66, 0
1, 106559, Note_off_c, 1, 45, 0
1, 106559, Note_off_c, 1, 74, 0
1, 106560, Note_on_c, 1, 62, 127
1, 106560, Note_on_c, 1, 67, 127
1, 106560, Note_on_c, 1, 47, 127
1, 106619, Note_off_c, 1, 62, 0
1, 106619, Note_off_c, 1, 67, 0
1, 106619, Note_off_c, 1, 47, 0
1, 106620, Note_on_c, 1, 67, 127
1, 106620, Note_on_c, 1, 59, 127
1, 106620, Note_on_c, 1, 43, 127
1, 106679, Note_off_c, 1, 67, 0
1, 106679, Note_off_c, 1, 59, 0
1, 106679, Note_off_c, 1, 43, 0
1, 106680, Note_on_c, 1, 69, 127
1, 106680, Note_on_c, 1, 60, 127
1, 106680, Note_on_c, 1, 50, 127
1, 106709, Note_off_c, 1, 69, 0
1, 106709, Note_off_c, 1, 60, 0
1, 106710, Note_on_c, 1, 71, 127
1, 106710, Note_on_c, 1, 62, 127
1, 106739, Note_off_c, 1, 50, 0
1, 106739, Note_off_c, 1, 71, 0
1, 106739, Note_off_c, 1, 62, 0
1, 106740, Note_on_c, 1, 69, 127
1, 106740, Note_on_c, 1, 60, 127
1, 106740, Note_on_c, 1, 38, 127
1, 106769, Note_off_c, 1, 69, 0
1, 106769, Note_off_c, 1, 60, 0
1, 106770, Note_on_c, 1, 66, 127
1, 106770, Note_on_c, 1, 57, 127
1, 106799, Note_off_c, 1, 38, 0
1, 106799, Note_off_c, 1, 66, 0
1, 106799, Note_off_c, 1, 57, 0
1, 106800, Note_on_c, 1, 67, 127
1, 106800, Note_on_c, 1, 59, 127
1, 106800, Note_on_c, 1, 43, 127
1, 106859, Note_off_c, 1, 67, 0
1, 106859, Note_off_c, 1, 59, 0
1, 106859, Note_off_c, 1, 43, 0
1, 106860, Note_on_c, 1, 62, 127
1, 106860, Note_on_c, 1, 57, 127
1, 106860, Note_on_c, 1, 42, 127
1, 106889, Note_off_c, 1, 62, 0
1, 106890, Note_on_c, 1, 59, 127
1, 106919, Note_off_c, 1, 57, 0
1, 106919, Note_off_c, 1, 42, 0
1, 106919, Note_off_c, 1, 59, 0
1, 106920, Note_on_c, 1, 55, 127
1, 106920, Note_on_c, 1, 59, 127
1, 106920, Note_on_c, 1, 43, 127
1, 106979, Note_off_c, 1, 59, 0
1, 106979, Note_off_c, 1, 43, 0
1, 106980, Note_on_c, 1, 60, 127
1, 106980, Note_on_c, 1, 45, 127
1, 107039, Note_off_c, 1, 55, 0
1, 107039, Note_off_c, 1, 60, 0
1, 107039, Note_off_c, 1, 45, 0
1, 107040, Note_on_c, 1, 62, 127
1, 107040, Note_on_c, 1, 47, 127
1, 107099, Note_off_c, 1, 62, 0
1, 107099, Note_off_c, 1, 47, 0
1, 107100, Note_on_c, 1, 64, 127
1, 107100, Note_on_c, 1, 57, 127
1, 107100, Note_on_c, 1, 48, 127
1, 107129, Note_off_c, 1, 64, 0
1, 107130, Note_on_c, 1, 66, 127
1, 107159, Note_off_c, 1, 57, 0
1, 107159, Note_off_c, 1, 48, 0
1, 107159, Note_off_c, 1, 66, 0
1, 107160, Note_on_c, 1, 67, 127
1, 107160, Note_on_c, 1, 62, 127
1, 107160, Note_on_c, 1, 47, 127
1, 107189, Note_off_c, 1, 67, 0
1, 107190, Note_on_c, 1, 66, 127
1, 107219, Note_off_c, 1, 62, 0
1, 107219, Note_off_c, 1, 47, 0
1, 107219, Note_off_c, 1, 66, 0
1, 107220, Note_on_c, 1, 67, 127
1, 107220, Note_on_c, 1, 47, 127
1, 107250, Note_on_c, 1, 69, 127
1, 107279, Note_off_c, 1, 67, 0
1, 107279, Note_off_c, 1, 47, 0
1, 107279, Note_off_c, 1, 69, 0
1, 107280, Note_on_c, 1, 71, 127
1, 107280, Note_on_c, 1, 62, 127
1, 107280, Note_on_c, 1, 43, 127
1, 107309, Note_off_c, 1, 71, 0
1, 107310, Note_on_c, 1, 72, 127
1, 107339, Note_off_c, 1, 62, 0
1, 107339, Note_off_c, 1, 43, 0
1, 107339, Note_off_c, 1, 72, 0
1, 107340, Note_on_c, 1, 71, 127
1, 107340, Note_on_c, 1, 59, 127
1, 107340, Note_on_c, 1, 43, 127
1, 107369, Note_off_c, 1, 71, 0
1, 107370, Note_on_c, 1, 69, 127
1, 107399, Note_off_c, 1, 59, 0
1, 107399, Note_off_c, 1, 43, 0
1, 107399, Note_off_c, 1, 69, 0
1, 107400, Note_on_c, 1, 71, 127
1, 107400, Note_on_c, 1, 55, 127
1, 107400, Note_on_c, 1, 53, 127
1, 107429, Note_off_c, 1, 71, 0
1, 107430, Note_on_c, 1, 67, 127
1, 107459, Note_off_c, 1, 55, 0
1, 107459, Note_off_c, 1, 53, 0
1, 107459, Note_off_c, 1, 67, 0
1, 107460, Note_on_c, 1, 66, 127
1, 107460, Note_on_c, 1, 62, 127
1, 107460, Note_on_c, 1, 53, 127
1, 107489, Note_off_c, 1, 66, 0
1, 107490, Note_on_c, 1, 67, 127
1, 107519, Note_off_c, 1, 62, 0
1, 107519, Note_off_c, 1, 53, 0
1, 107519, Note_off_c, 1, 67, 0
1, 107520, Note_on_c, 1, 72, 127
1, 107520, Note_on_c, 1, 67, 127
1, 107520, Note_on_c, 1, 52, 127
1, 107549, Note_off_c, 1, 72, 0
1, 107550, Note_on_c, 1, 74, 127
1, 107579, Note_off_c, 1, 52, 0
1, 107579, Note_off_c, 1, 74, 0
1, 107580, Note_on_c, 1, 50, 127
1, 107610, Note_on_c, 1, 71, 127
1, 107639, Note_off_c, 1, 50, 0
1, 107639, Note_off_c, 1, 71, 0
1, 107670, Note_on_c, 1, 76, 127
1, 107699, Note_off_c, 1, 67, 0
1, 107699, Note_off_c, 1, 76, 0
1, 107700, Note_on_c, 1, 74, 127
1, 107700, Note_on_c, 1, 59, 127
1, 107700, Note_on_c, 1, 53, 127
1, 107729, Note_off_c, 1, 74, 0
1, 107730, Note_on_c, 1, 72, 127
1, 107759, Note_off_c, 1, 59, 0
1, 107759, Note_off_c, 1, 53, 0
1, 107759, Note_off_c, 1, 72, 0
1, 107760, Note_on_c, 1, 79, 127
1, 107760, Note_on_c, 1, 60, 127
1, 107760, Note_on_c, 1, 52, 127
1, 107789, Note_off_c, 1, 79, 0
1, 107790, Note_on_c, 1, 74, 127
1, 107819, Note_off_c, 1, 60, 0
1, 107819, Note_off_c, 1, 52, 0
1, 107819, Note_off_c, 1, 74, 0
1, 107820, Note_on_c, 1, 72, 127
1, 107820, Note_on_c, 1, 62, 127
1, 107820, Note_on_c, 1, 50, 127
1, 107849, Note_off_c, 1, 72, 0
1, 107850, Note_on_c, 1, 71, 127
1, 107879, Note_off_c, 1, 62, 0
1, 107879, Note_off_c, 1, 50, 0
1, 107879, Note_off_c, 1, 71, 0
1, 107880, Note_on_c, 1, 69, 127
1, 107880, Note_on_c, 1, 64, 127
1, 107880, Note_on_c, 1, 48, 127
1, 107909, Note_off_c, 1, 69, 0
1, 107910, Note_on_c, 1, 67, 127
1, 107939, Note_off_c, 1, 64, 0
1, 107939, Note_off_c, 1, 48, 0
1, 107939, Note_off_c, 1, 67, 0
1, 107940, Note_on_c, 1, 69, 127
1, 107940, Note_on_c, 1, 48, 127
1, 107970, Note_on_c, 1, 71, 127
1, 107999, Note_off_c, 1, 69, 0
1, 107999, Note_off_c, 1, 48, 0
1, 107999, Note_off_c, 1, 71, 0
1, 108000, Note_on_c, 1, 72, 127
1, 108000, Note_on_c, 1, 64, 127
1, 108000, Note_on_c, 1, 45, 127
1, 108029, Note_off_c, 1, 72, 0
1, 108030, Note_on_c, 1, 71, 127
1, 108059, Note_off_c, 1, 64, 0
1, 108059, Note_off_c, 1, 45, 0
1, 108059, Note_off_c, 1, 71, 0
1, 108060, Note_on_c, 1, 69, 127
1, 108060, Note_on_c, 1, 60, 127
1, 108060, Note_on_c, 1, 45, 127
1, 108089, Note_off_c, 1, 69, 0
1, 108090, Note_on_c, 1, 71, 127
1, 108119, Note_off_c, 1, 60, 0
1, 108119, Note_off_c, 1, 45, 0
1, 108119, Note_off_c, 1, 71, 0
1, 108120, Note_on_c, 1, 72, 127
1, 108120, Note_on_c, 1, 57, 127
1, 108120, Note_on_c, 1, 55, 127
1, 108149, Note_off_c, 1, 72, 0
1, 108150, Note_on_c, 1, 71, 127
1, 108179, Note_off_c, 1, 57, 0
1, 108179, Note_off_c, 1, 55, 0
1, 108179, Note_off_c, 1, 71, 0
1, 108180, Note_on_c, 1, 69, 127
1, 108180, Note_on_c, 1, 64, 127
1, 108180, Note_on_c, 1, 55, 127
1, 108209, Note_off_c, 1, 69, 0
1, 108210, Note_on_c, 1, 67, 127
1, 108239, Note_off_c, 1, 64, 0
1, 108239, Note_off_c, 1, 55, 0
1, 108239, Note_off_c, 1, 67, 0
1, 108240, Note_on_c, 1, 74, 127
1, 108240, Note_on_c, 1, 69, 127
1, 108240, Note_on_c, 1, 54, 127
1, 108269, Note_off_c, 1, 74, 0
1, 108270, Note_on_c, 1, 76, 127
1, 108299, Note_off_c, 1, 54, 0
1, 108299, Note_off_c, 1, 76, 0
1, 108300, Note_on_c, 1, 52, 127
1, 108330, Note_on_c, 1, 73, 127
1, 108359, Note_off_c, 1, 52, 0
1, 108359, Note_off_c, 1, 73, 0
1, 108390, Note_on_c, 1, 78, 127
1, 108419, Note_off_c, 1, 69, 0
1, 108419, Note_off_c, 1, 78, 0
1, 108420, Note_on_c, 1, 76, 127
1, 108420, Note_on_c, 1, 72, 127
1, 108420, Note_on_c, 1, 57, 127
1, 108449, Note_off_c, 1, 76, 0
1, 108450, Note_on_c, 1, 74, 127
1, 108479, Note_off_c, 1, 72, 0
1, 108479, Note_off_c, 1, 57, 0
1, 108479, Note_off_c, 1, 74, 0
1, 108480, Note_on_c, 1, 81, 127
1, 108480, Note_on_c, 1, 66, 127
1, 108480, Note_on_c, 1, 50, 127
1, 108509, Note_off_c, 1, 81, 0
1, 108510, Note_on_c, 1, 72, 127
1, 108539, Note_off_c, 1, 66, 0
1, 108539, Note_off_c, 1, 50, 0
1, 108539, Note_off_c, 1, 72, 0
1, 108540, Note_on_c, 1, 71, 127
1, 108540, Note_on_c, 1, 62, 127
1, 108540, Note_on_c, 1, 54, 127
1, 108569, Note_off_c, 1, 71, 0
1, 108570, Note_on_c, 1, 69, 127
1, 108599, Note_off_c, 1, 62, 0
1, 108599, Note_off_c, 1, 54, 0
1, 108599, Note_off_c, 1, 69, 0
1, 108600, Note_on_c, 1, 71, 127
1, 108600, Note_on_c, 1, 62, 127
1, 108600, Note_on_c, 1, 55, 127
1, 108629, Note_off_c, 1, 71, 0
1, 108630, Note_on_c, 1, 67, 127
1, 108659, Note_off_c, 1, 55, 0
1, 108659, Note_off_c, 1, 67, 0
1, 108660, Note_on_c, 1, 66, 127
1, 108660, Note_on_c, 1, 47, 127
1, 108689, Note_off_c, 1, 66, 0
1, 108719, Note_off_c, 1, 62, 0
1, 108719, Note_off_c, 1, 47, 0
1, 108720, Note_on_c, 1, 69, 127
1, 108720, Note_on_c, 1, 64, 127
1, 108720, Note_on_c, 1, 48, 127
1, 108749, Note_off_c, 1, 69, 0
1, 108750, Note_on_c, 1, 72, 127
1, 108779, Note_off_c, 1, 64, 0
1, 108779, Note_off_c, 1, 48, 0
1, 108779, Note_off_c, 1, 72, 0
1, 108780, Note_on_c, 1, 71, 127
1, 108780, Note_on_c, 1, 60, 127
1, 108780, Note_on_c, 1, 52, 127
1, 108809, Note_off_c, 1, 71, 0
1, 108810, Note_on_c, 1, 69, 127
1, 108839, Note_off_c, 1, 60, 0
1, 108839, Note_off_c, 1, 52, 0
1, 108839, Note_off_c, 1, 69, 0
1, 108840, Note_on_c, 1, 71, 127
1, 108840, Note_on_c, 1, 62, 127
1, 108840, Note_on_c, 1, 50, 127
1, 108869, Note_off_c, 1, 71, 0
1, 108869, Note_off_c, 1, 62, 0
1, 108870, Note_on_c, 1, 69, 127
1, 108870, Note_on_c, 1, 60, 127
1, 108899, Note_off_c, 1, 50, 0
1, 108899, Note_off_c, 1, 69, 0
1, 108899, Note_off_c, 1, 60, 0
1, 108900, Note_on_c, 1, 67, 127
1, 108900, Note_on_c, 1, 59, 127
1, 108900, Note_on_c, 1, 38, 127
1, 108929, Note_off_c, 1, 67, 0
1, 108929, Note_off_c, 1, 59, 0
1, 108930, Note_on_c, 1, 66, 127
1, 108930, Note_on_c, 1, 57, 127
1, 108959, Note_off_c, 1, 38, 0
1, 108959, Note_off_c, 1, 66, 0
1, 108959, Note_off_c, 1, 57, 0
1, 108960, Note_on_c, 1, 67, 127
1, 108960, Note_on_c, 1, 59, 127
1, 108960, Note_on_c, 1, 43, 127
1, 108989, Note_off_c, 1, 67, 0
1, 108990, Note_on_c, 1, 62, 127
1, 109019, Note_off_c, 1, 62, 0
1, 109079, Note_off_c, 1, 59, 0
1, 109079, Note_off_c, 1, 43, 0
1, 109080, Note_on_c, 1, 55, 127
1, 109140, Note_on_c, 1, 50, 127
1, 109199, Note_off_c, 1, 55, 0
1, 109199, Note_off_c, 1, 50, 0
1, 109200, Note_on_c, 1, 74, 127
1, 109200, Note_on_c, 1, 55, 127
1, 109259, Note_off_c, 1, 55, 0
1, 109260, Note_on_c, 1, 57, 127
1, 109319, Note_off_c, 1, 74, 0
1, 109319, Note_off_c, 1, 57, 0
1, 109320, Note_on_c, 1, 79, 127
1, 109320, Note_on_c, 1, 59, 127
1, 109379, Note_off_c, 1, 79, 0
1, 109379, Note_off_c, 1, 59, 0
1, 109380, Note_on_c, 1, 71, 127
1, 109380, Note_on_c, 1, 67, 127
1, 109380, Note_on_c, 1, 74, 127
1, 109380, Note_on_c, 1, 60, 127
1, 109409, Note_off_c, 1, 71, 0
1, 109409, Note_off_c, 1, 67, 0
1, 109410, Note_on_c, 1, 69, 127
1, 109410, Note_on_c, 1, 66, 127
1, 109439, Note_off_c, 1, 74, 0
1, 109439, Note_off_c, 1, 60, 0
1, 109439, Note_off_c, 1, 69, 0
1, 109439, Note_off_c, 1, 66, 0
1, 109440, Note_on_c, 1, 71, 127
1, 109440, Note_on_c, 1, 67, 127
1, 109440, Note_on_c, 1, 74, 127
1, 109440, Note_on_c, 1, 59, 127
1, 109499, Note_off_c, 1, 71, 0
1, 109499, Note_off_c, 1, 67, 0
1, 109499, Note_off_c, 1, 59, 0
1, 109500, Note_on_c, 1, 57, 127
1, 109559, Note_off_c, 1, 74, 0
1, 109559, Note_off_c, 1, 57, 0
1, 109560, Note_on_c, 1, 76, 127
1, 109560, Note_on_c, 1, 55, 127
1, 109619, Note_off_c, 1, 76, 0
1, 109619, Note_off_c, 1, 55, 0
1, 109620, Note_on_c, 1, 78, 127
1, 109620, Note_on_c, 1, 57, 127
1, 109679, Note_off_c, 1, 78, 0
1, 109679, Note_off_c, 1, 57, 0
1, 109680, Note_on_c, 1, 79, 127
1, 109680, Note_on_c, 1, 59, 127
1, 109739, Note_off_c, 1, 79, 0
1, 109739, Note_off_c, 1, 59, 0
1, 109740, Note_on_c, 1, 71, 127
1, 109740, Note_on_c, 1, 67, 127
1, 109740, Note_on_c, 1, 74, 127
1, 109740, Note_on_c, 1, 62, 127
1, 109769, Note_off_c, 1, 71, 0
1, 109769, Note_off_c, 1, 67, 0
1, 109770, Note_on_c, 1, 69, 127
1, 109770, Note_on_c, 1, 66, 127
1, 109799, Note_off_c, 1, 74, 0
1, 109799, Note_off_c, 1, 62, 0
1, 109799, Note_off_c, 1, 69, 0
1, 109799, Note_off_c, 1, 66, 0
1, 109800, Note_on_c, 1, 71, 127
1, 109800, Note_on_c, 1, 67, 127
1, 109800, Note_on_c, 1, 74, 127
1, 109800, Note_on_c, 1, 55, 127
1, 109859, Note_off_c, 1, 71, 0
1, 109859, Note_off_c, 1, 67, 0
1, 109859, Note_off_c, 1, 55, 0
1, 109860, Note_on_c, 1, 53, 127
1, 109919, Note_off_c, 1, 74, 0
1, 109919, Note_off_c, 1, 53, 0
1, 109920, Note_on_c, 1, 72, 127
1, 109920, Note_on_c, 1, 52, 127
1, 109979, Note_off_c, 1, 72, 0
1, 109979, Note_off_c, 1, 52, 0
1, 109980, Note_on_c, 1, 71, 127
1, 109980, Note_on_c, 1, 50, 127
1, 110039, Note_off_c, 1, 71, 0
1, 110039, Note_off_c, 1, 50, 0
1, 110040, Note_on_c, 1, 72, 127
1, 110040, Note_on_c, 1, 52, 127
1, 110099, Note_off_c, 1, 72, 0
1, 110099, Note_off_c, 1, 52, 0
1, 110100, Note_on_c, 1, 71, 127
1, 110100, Note_on_c, 1, 67, 127
1, 110100, Note_on_c, 1, 74, 127
1, 110100, Note_on_c, 1, 55, 127
1, 110129, Note_off_c, 1, 71, 0
1, 110129, Note_off_c, 1, 67, 0
1, 110130, Note_on_c, 1, 69, 127
1, 110130, Note_on_c, 1, 65, 127
1, 110159, Note_off_c, 1, 74, 0
1, 110159, Note_off_c, 1, 55, 0
1, 110159, Note_off_c, 1, 69, 0
1, 110159, Note_off_c, 1, 65, 0
1, 110160, Note_on_c, 1, 67, 127
1, 110160, Note_on_c, 1, 64, 127
1, 110160, Note_on_c, 1, 76, 127
1, 110160, Note_on_c, 1, 48, 127
1, 110219, Note_off_c, 1, 67, 0
1, 110219, Note_off_c, 1, 64, 0
1, 110219, Note_off_c, 1, 76, 0
1, 110219, Note_off_c, 1, 48, 0
1, 110220, Note_on_c, 1, 74, 127
1, 110220, Note_on_c, 1, 50, 127
1, 110279, Note_off_c, 1, 74, 0
1, 110279, Note_off_c, 1, 50, 0
1, 110280, Note_on_c, 1, 72, 127
1, 110280, Note_on_c, 1, 52, 127
1, 110339, Note_off_c, 1, 72, 0
1, 110339, Note_off_c, 1, 52, 0
1, 110340, Note_on_c, 1, 71, 127
1, 110340, Note_on_c, 1, 48, 127
1, 110399, Note_off_c, 1, 71, 0
1, 110399, Note_off_c, 1, 48, 0
1, 110400, Note_on_c, 1, 69, 127
1, 110400, Note_on_c, 1, 50, 127
1, 110459, Note_off_c, 1, 50, 0
1, 110460, Note_on_c, 1, 66, 127
1, 110460, Note_on_c, 1, 62, 127
1, 110460, Note_on_c, 1, 52, 127
1, 110489, Note_off_c, 1, 66, 0
1, 110489, Note_off_c, 1, 62, 0
1, 110490, Note_on_c, 1, 64, 127
1, 110490, Note_on_c, 1, 61, 127
1, 110519, Note_off_c, 1, 69, 0
1, 110519, Note_off_c, 1, 52, 0
1, 110519, Note_off_c, 1, 64, 0
1, 110519, Note_off_c, 1, 61, 0
1, 110520, Note_on_c, 1, 66, 127
1, 110520, Note_on_c, 1, 62, 127
1, 110520, Note_on_c, 1, 69, 127
1, 110520, Note_on_c, 1, 50, 127
1, 110579, Note_off_c, 1, 66, 0
1, 110579, Note_off_c, 1, 62, 0
1, 110579, Note_off_c, 1, 50, 0
1, 110580, Note_on_c, 1, 48, 127
1, 110639, Note_off_c, 1, 69, 0
1, 110639, Note_off_c, 1, 48, 0
1, 110640, Note_on_c, 1, 74, 127
1, 110640, Note_on_c, 1, 67, 127
1, 110640, Note_on_c, 1, 47, 127
1, 110669, Note_off_c, 1, 67, 0
1, 110670, Note_on_c, 1, 66, 127
1, 110699, Note_off_c, 1, 47, 0
1, 110699, Note_off_c, 1, 66, 0
1, 110700, Note_on_c, 1, 45, 127
1, 110730, Note_on_c, 1, 69, 127
1, 110759, Note_off_c, 1, 74, 0
1, 110759, Note_off_c, 1, 45, 0
1, 110759, Note_off_c, 1, 69, 0
1, 110760, Note_on_c, 1, 79, 127
1, 110760, Note_on_c, 1, 71, 127
1, 110760, Note_on_c, 1, 43, 127
1, 110789, Note_off_c, 1, 71, 0
1, 110790, Note_on_c, 1, 69, 127
1, 110819, Note_off_c, 1, 79, 0
1, 110819, Note_off_c, 1, 69, 0
1, 110820, Note_on_c, 1, 74, 127
1, 110850, Note_on_c, 1, 72, 127
1, 110879, Note_off_c, 1, 43, 0
1, 110879, Note_off_c, 1, 74, 0
1, 110879, Note_off_c, 1, 72, 0
1, 110880, Note_on_c, 1, 71, 127
1, 110880, Note_on_c, 1, 74, 127
1, 110880, Note_on_c, 1, 79, 127
1, 110909, Note_off_c, 1, 74, 0
1, 110910, Note_on_c, 1, 72, 127
1, 110939, Note_off_c, 1, 71, 0
1, 110939, Note_off_c, 1, 79, 0
1, 110939, Note_off_c, 1, 72, 0
1, 110940, Note_on_c, 1, 67, 127
1, 110940, Note_on_c, 1, 71, 127
1, 110940, Note_on_c, 1, 74, 127
1, 110940, Note_on_c, 1, 43, 127
1, 110969, Note_off_c, 1, 71, 0
1, 110969, Note_off_c, 1, 43, 0
1, 110970, Note_on_c, 1, 69, 127
1, 110970, Note_on_c, 1, 42, 127
1, 110999, Note_off_c, 1, 67, 0
1, 110999, Note_off_c, 1, 74, 0
1, 110999, Note_off_c, 1, 69, 0
1, 110999, Note_off_c, 1, 42, 0
1, 111000, Note_on_c, 1, 74, 127
1, 111000, Note_on_c, 1, 67, 127
1, 111000, Note_on_c, 1, 43, 127
1, 111029, Note_off_c, 1, 67, 0
1, 111030, Note_on_c, 1, 66, 127
1, 111059, Note_off_c, 1, 43, 0
1, 111059, Note_off_c, 1, 66, 0
1, 111090, Note_on_c, 1, 79, 127
1, 111090, Note_on_c, 1, 69, 127
1, 111104, Note_off_c, 1, 79, 0
1, 111105, Note_on_c, 1, 78, 127
1, 111119, Note_off_c, 1, 74, 0
1, 111119, Note_off_c, 1, 69, 0
1, 111119, Note_off_c, 1, 78, 0
1, 111120, Note_on_c, 1, 79, 127
1, 111120, Note_on_c, 1, 71, 127
1, 111149, Note_off_c, 1, 71, 0
1, 111150, Note_on_c, 1, 69, 127
1, 111179, Note_off_c, 1, 79, 0
1, 111179, Note_off_c, 1, 69, 0
1, 111180, Note_on_c, 1, 74, 127
1, 111180, Note_on_c, 1, 71, 127
1, 111209, Note_off_c, 1, 71, 0
1, 111210, Note_on_c, 1, 72, 127
1, 111239, Note_off_c, 1, 74, 0
1, 111239, Note_off_c, 1, 72, 0
1, 111240, Note_on_c, 1, 71, 127
1, 111240, Note_on_c, 1, 74, 127
1, 111240, Note_on_c, 1, 79, 127
1, 111269, Note_off_c, 1, 74, 0
1, 111270, Note_on_c, 1, 72, 127
1, 111299, Note_off_c, 1, 71, 0
1, 111299, Note_off_c, 1, 79, 0
1, 111299, Note_off_c, 1, 72, 0
1, 111300, Note_on_c, 1, 67, 127
1, 111300, Note_on_c, 1, 71, 127
1, 111300, Note_on_c, 1, 74, 127
1, 111300, Note_on_c, 1, 43, 127
1, 111329, Note_off_c, 1, 71, 0
1, 111329, Note_off_c, 1, 43, 0
1, 111330, Note_on_c, 1, 69, 127
1, 111330, Note_on_c, 1, 42, 127
1, 111359, Note_off_c, 1, 67, 0
1, 111359, Note_off_c, 1, 74, 0
1, 111359, Note_off_c, 1, 69, 0
1, 111359, Note_off_c, 1, 42, 0
1, 111360, Note_on_c, 1, 71, 127
1, 111360, Note_on_c, 1, 67, 127
1, 111360, Note_on_c, 1, 74, 127
1, 111360, Note_on_c, 1, 43, 127
1, 111389, Note_off_c, 1, 67, 0
1, 111390, Note_on_c, 1, 65, 127
1, 111419, Note_off_c, 1, 74, 0
1, 111419, Note_off_c, 1, 43, 0
1, 111419, Note_off_c, 1, 65, 0
1, 111420, Note_on_c, 1, 64, 127
1, 111449, Note_off_c, 1, 71, 0
1, 111449, Note_off_c, 1, 64, 0
1, 111450, Note_on_c, 1, 72, 127
1, 111450, Note_on_c, 1, 62, 127
1, 111464, Note_off_c, 1, 72, 0
1, 111465, Note_on_c, 1, 74, 127
1, 111479, Note_off_c, 1, 62, 0
1, 111479, Note_off_c, 1, 74, 0
1, 111480, Note_on_c, 1, 76, 127
1, 111480, Note_on_c, 1, 60, 127
1, 111509, Note_off_c, 1, 76, 0
1, 111509, Note_off_c, 1, 60, 0
1, 111510, Note_on_c, 1, 74, 127
1, 111510, Note_on_c, 1, 59, 127
1, 111539, Note_off_c, 1, 74, 0
1, 111539, Note_off_c, 1, 59, 0
1, 111540, Note_on_c, 1, 76, 127
1, 111540, Note_on_c, 1, 60, 127
1, 111540, Note_on_c, 1, 67, 127
1, 111540, Note_on_c, 1, 48, 127
1, 111569, Note_off_c, 1, 76, 0
1, 111569, Note_off_c, 1, 60, 0
1, 111569, Note_off_c, 1, 48, 0
1, 111570, Note_on_c, 1, 77, 127
1, 111570, Note_on_c, 1, 62, 127
1, 111570, Note_on_c, 1, 47, 127
1, 111599, Note_off_c, 1, 67, 0
1, 111599, Note_off_c, 1, 77, 0
1, 111599, Note_off_c, 1, 62, 0
1, 111599, Note_off_c, 1, 47, 0
1, 111600, Note_on_c, 1, 76, 127
1, 111600, Note_on_c, 1, 60, 127
1, 111600, Note_on_c, 1, 48, 127
1, 111659, Note_off_c, 1, 76, 0
1, 111659, Note_off_c, 1, 60, 0
1, 111659, Note_off_c, 1, 48, 0
1, 111660, Note_on_c, 1, 74, 127
1, 111660, Note_on_c, 1, 59, 127
1, 111660, Note_on_c, 1, 50, 127
1, 111719, Note_off_c, 1, 74, 0
1, 111719, Note_off_c, 1, 59, 0
1, 111719, Note_off_c, 1, 50, 0
1, 111720, Note_on_c, 1, 72, 127
1, 111720, Note_on_c, 1, 57, 127
1, 111720, Note_on_c, 1, 52, 127
1, 111779, Note_off_c, 1, 72, 0
1, 111779, Note_off_c, 1, 57, 0
1, 111779, Note_off_c, 1, 52, 0
1, 111780, Note_on_c, 1, 71, 127
1, 111780, Note_on_c, 1, 55, 127
1, 111780, Note_on_c, 1, 48, 127
1, 111839, Note_off_c, 1, 71, 0
1, 111839, Note_off_c, 1, 55, 0
1, 111839, Note_off_c, 1, 48, 0
1, 111840, Note_on_c, 1, 69, 127
1, 111840, Note_on_c, 1, 54, 127
1, 111840, Note_on_c, 1, 50, 127
1, 111899, Note_off_c, 1, 54, 0
1, 111899, Note_off_c, 1, 50, 0
1, 111900, Note_on_c, 1, 74, 127
1, 111900, Note_on_c, 1, 66, 127
1, 111900, Note_on_c, 1, 38, 127
1, 111929, Note_off_c, 1, 74, 0
1, 111929, Note_off_c, 1, 66, 0
1, 111930, Note_on_c, 1, 73, 127
1, 111930, Note_on_c, 1, 64, 127
1, 111959, Note_off_c, 1, 69, 0
1, 111959, Note_off_c, 1, 38, 0
1, 111959, Note_off_c, 1, 73, 0
1, 111959, Note_off_c, 1, 64, 0
1, 111960, Note_on_c, 1, 74, 127
1, 111960, Note_on_c, 1, 66, 127
1, 111960, Note_on_c, 1, 69, 127
1, 111960, Note_on_c, 1, 50, 127
1, 112019, Note_off_c, 1, 74, 0
1, 112019, Note_off_c, 1, 66, 0
1, 112019, Note_off_c, 1, 50, 0
1, 112020, Note_on_c, 1, 62, 127
1, 112020, Note_on_c, 1, 52, 127
1, 112049, Note_off_c, 1, 62, 0
1, 112050, Note_on_c, 1, 64, 127
1, 112050, Note_on_c, 1, 61, 127
1, 112079, Note_off_c, 1, 69, 0
1, 112079, Note_off_c, 1, 52, 0
1, 112079, Note_off_c, 1, 64, 0
1, 112079, Note_off_c, 1, 61, 0
1, 112080, Note_on_c, 1, 66, 127
1, 112080, Note_on_c, 1, 62, 127
1, 112080, Note_on_c, 1, 50, 127
1, 112139, Note_off_c, 1, 66, 0
1, 112139, Note_off_c, 1, 62, 0
1, 112139, Note_off_c, 1, 50, 0
1, 112140, Note_on_c, 1, 48, 127
1, 112199, Note_off_c, 1, 48, 0
1, 112200, Note_on_c, 1, 67, 127
1, 112200, Note_on_c, 1, 47, 127
1, 112259, Note_off_c, 1, 67, 0
1, 112259, Note_off_c, 1, 47, 0
1, 112260, Note_on_c, 1, 69, 127
1, 112260, Note_on_c, 1, 50, 127
1, 112319, Note_off_c, 1, 69, 0
1, 112319, Note_off_c, 1, 50, 0
1, 112320, Note_on_c, 1, 71, 127
1, 112320, Note_on_c, 1, 43, 127
1, 112379, Note_off_c, 1, 43, 0
1, 112380, Note_on_c, 1, 65, 127
1, 112380, Note_on_c, 1, 62, 127
1, 112380, Note_on_c, 1, 50, 127
1, 112409, Note_off_c, 1, 65, 0
1, 112409, Note_off_c, 1, 62, 0
1, 112410, Note_on_c, 1, 64, 127
1, 112410, Note_on_c, 1, 60, 127
1, 112439, Note_off_c, 1, 71, 0
1, 112439, Note_off_c, 1, 50, 0
1, 112439, Note_off_c, 1, 64, 0
1, 112439, Note_off_c, 1, 60, 0
1, 112440, Note_on_c, 1, 65, 127
1, 112440, Note_on_c, 1, 62, 127
1, 112440, Note_on_c, 1, 71, 127
1, 112440, Note_on_c, 1, 55, 127
1, 112499, Note_off_c, 1, 65, 0
1, 112499, Note_off_c, 1, 62, 0
1, 112499, Note_off_c, 1, 55, 0
1, 112500, Note_on_c, 1, 53, 127
1, 112559, Note_off_c, 1, 71, 0
1, 112559, Note_off_c, 1, 53, 0
1, 112560, Note_on_c, 1, 72, 127
1, 112560, Note_on_c, 1, 52, 127
1, 112619, Note_off_c, 1, 72, 0
1, 112619, Note_off_c, 1, 52, 0
1, 112620, Note_on_c, 1, 71, 127
1, 112620, Note_on_c, 1, 50, 127
1, 112679, Note_off_c, 1, 71, 0
1, 112679, Note_off_c, 1, 50, 0
1, 112680, Note_on_c, 1, 72, 127
1, 112680, Note_on_c, 1, 52, 127
1, 112739, Note_off_c, 1, 52, 0
1, 112740, Note_on_c, 1, 64, 127
1, 112740, Note_on_c, 1, 55, 127
1, 112769, Note_off_c, 1, 64, 0
1, 112770, Note_on_c, 1, 62, 127
1, 112770, Note_on_c, 1, 53, 127
1, 112799, Note_off_c, 1, 55, 0
1, 112799, Note_off_c, 1, 62, 0
1, 112799, Note_off_c, 1, 53, 0
1, 112800, Note_on_c, 1, 48, 127
1, 112859, Note_off_c, 1, 48, 0
1, 112860, Note_on_c, 1, 47, 127
1, 112919, Note_off_c, 1, 72, 0
1, 112919, Note_off_c, 1, 47, 0
1, 112920, Note_on_c, 1, 69, 127
1, 112920, Note_on_c, 1, 48, 127
1, 112979, Note_off_c, 1, 69, 0
1, 112979, Note_off_c, 1, 48, 0
1, 112980, Note_on_c, 1, 71, 127
1, 112980, Note_on_c, 1, 52, 127
1, 113039, Note_off_c, 1, 71, 0
1, 113039, Note_off_c, 1, 52, 0
1, 113040, Note_on_c, 1, 72, 127
1, 113040, Note_on_c, 1, 45, 127
1, 113099, Note_off_c, 1, 45, 0
1, 113100, Note_on_c, 1, 67, 127
1, 113100, Note_on_c, 1, 64, 127
1, 113100, Note_on_c, 1, 57, 127
1, 113129, Note_off_c, 1, 67, 0
1, 113129, Note_off_c, 1, 64, 0
1, 113130, Note_on_c, 1, 66, 127
1, 113130, Note_on_c, 1, 63, 127
1, 113159, Note_off_c, 1, 72, 0
1, 113159, Note_off_c, 1, 57, 0
1, 113159, Note_off_c, 1, 66, 0
1, 113159, Note_off_c, 1, 63, 0
1, 113160, Note_on_c, 1, 67, 127
1, 113160, Note_on_c, 1, 64, 127
1, 113160, Note_on_c, 1, 71, 127
1, 113160, Note_on_c, 1, 52, 127
1, 113219, Note_off_c, 1, 67, 0
1, 113219, Note_off_c, 1, 64, 0
1, 113219, Note_off_c, 1, 71, 0
1, 113219, Note_off_c, 1, 52, 0
1, 113220, Note_on_c, 1, 69, 127
1, 113220, Note_on_c, 1, 55, 127
1, 113279, Note_off_c, 1, 69, 0
1, 113279, Note_off_c, 1, 55, 0
1, 113280, Note_on_c, 1, 74, 127
1, 113280, Note_on_c, 1, 54, 127
1, 113339, Note_off_c, 1, 74, 0
1, 113339, Note_off_c, 1, 54, 0
1, 113340, Note_on_c, 1, 73, 127
1, 113340, Note_on_c, 1, 52, 127
1, 113399, Note_off_c, 1, 73, 0
1, 113399, Note_off_c, 1, 52, 0
1, 113400, Note_on_c, 1, 74, 127
1, 113400, Note_on_c, 1, 54, 127
1, 113459, Note_off_c, 1, 54, 0
1, 113460, Note_on_c, 1, 66, 127
1, 113460, Note_on_c, 1, 57, 127
1, 113489, Note_off_c, 1, 66, 0
1, 113490, Note_on_c, 1, 64, 127
1, 113490, Note_on_c, 1, 55, 127
1, 113519, Note_off_c, 1, 57, 0
1, 113519, Note_off_c, 1, 64, 0
1, 113519, Note_off_c, 1, 55, 0
1, 113520, Note_on_c, 1, 50, 127
1, 113579, Note_off_c, 1, 74, 0
1, 113579, Note_off_c, 1, 50, 0
1, 113580, Note_on_c, 1, 72, 127
1, 113580, Note_on_c, 1, 54, 127
1, 113639, Note_off_c, 1, 72, 0
1, 113639, Note_off_c, 1, 54, 0
1, 113640, Note_on_c, 1, 71, 127
1, 113640, Note_on_c, 1, 55, 127
1, 113699, Note_off_c, 1, 71, 0
1, 113699, Note_off_c, 1, 55, 0
1, 113700, Note_on_c, 1, 71, 127
1, 113700, Note_on_c, 1, 67, 127
1, 113700, Note_on_c, 1, 74, 127
1, 113700, Note_on_c, 1, 50, 127
1, 113729, Note_off_c, 1, 71, 0
1, 113729, Note_off_c, 1, 67, 0
1, 113730, Note_on_c, 1, 69, 127
1, 113730, Note_on_c, 1, 66, 127
1, 113759, Note_off_c, 1, 74, 0
1, 113759, Note_off_c, 1, 50, 0
1, 113759, Note_off_c, 1, 69, 0
1, 113759, Note_off_c, 1, 66, 0
1, 113760, Note_on_c, 1, 71, 127
1, 113760, Note_on_c, 1, 67, 127
1, 113760, Note_on_c, 1, 62, 127
1, 113760, Note_on_c, 1, 47, 127
1, 113819, Note_off_c, 1, 71, 0
1, 113819, Note_off_c, 1, 67, 0
1, 113819, Note_off_c, 1, 47, 0
1, 113820, Note_on_c, 1, 74, 127
1, 113820, Note_on_c, 1, 59, 127
1, 113820, Note_on_c, 1, 43, 127
1, 113879, Note_off_c, 1, 62, 0
1, 113879, Note_off_c, 1, 74, 0
1, 113879, Note_off_c, 1, 59, 0
1, 113879, Note_off_c, 1, 43, 0
1, 113880, Note_on_c, 1, 62, 127
1, 113880, Note_on_c, 1, 57, 127
1, 113880, Note_on_c, 1, 66, 127
1, 113880, Note_on_c, 1, 50, 127
1, 113939, Note_off_c, 1, 62, 0
1, 113939, Note_off_c, 1, 57, 0
1, 113939, Note_off_c, 1, 50, 0
1, 113940, Note_on_c, 1, 38, 127
1, 113999, Note_off_c, 1, 66, 0
1, 113999, Note_off_c, 1, 38, 0
1, 114000, Note_on_c, 1, 67, 127
1, 114000, Note_on_c, 1, 59, 127
1, 114000, Note_on_c, 1, 43, 127
1, 114029, Note_off_c, 1, 59, 0
1, 114030, Note_on_c, 1, 69, 127
1, 114030, Note_on_c, 1, 60, 127
1, 114059, Note_off_c, 1, 43, 0
1, 114059, Note_off_c, 1, 69, 0
1, 114059, Note_off_c, 1, 60, 0
1, 114060, Note_on_c, 1, 47, 127
1, 114089, Note_off_c, 1, 47, 0
1, 114090, Note_on_c, 1, 66, 127
1, 114090, Note_on_c, 1, 57, 127
1, 114090, Note_on_c, 1, 50, 127
1, 114119, Note_off_c, 1, 67, 0
1, 114119, Note_off_c, 1, 66, 0
1, 114119, Note_off_c, 1, 57, 0
1, 114119, Note_off_c, 1, 50, 0
1, 114120, Note_on_c, 1, 67, 127
1, 114120, Note_on_c, 1, 59, 127
1, 114120, Note_on_c, 1, 55, 127
1, 114149, Note_off_c, 1, 59, 0
1, 114150, Note_on_c, 1, 50, 127
1, 114179, Note_off_c, 1, 50, 0
1, 114180, Note_on_c, 1, 52, 127
1, 114209, Note_off_c, 1, 52, 0
1, 114210, Note_on_c, 1, 54, 127
1, 114239, Note_off_c, 1, 67, 0
1, 114239, Note_off_c, 1, 55, 0
1, 114239, Note_off_c, 1, 54, 0
1, 114240, Note_on_c, 1, 55, 127
1, 114269, Note_off_c, 1, 55, 0
1, 114270, Note_on_c, 1, 62, 127
1, 114270, Note_on_c, 1, 54, 127
1, 114299, Note_off_c, 1, 62, 0
1, 114299, Note_off_c, 1, 54, 0
1, 114300, Note_on_c, 1, 64, 127
1, 114300, Note_on_c, 1, 55, 127
1, 114329, Note_off_c, 1, 64, 0
1, 114329, Note_off_c, 1, 55, 0
1, 114330, Note_on_c, 1, 66, 127
1, 114330, Note_on_c, 1, 57, 127
1, 114359, Note_off_c, 1, 66, 0
1, 114359, Note_off_c, 1, 57, 0
1, 114360, Note_on_c, 1, 67, 127
1, 114360, Note_on_c, 1, 59, 127
1, 114389, Note_off_c, 1, 67, 0
1, 114389, Note_off_c, 1, 59, 0
1, 114390, Note_on_c, 1, 66, 127
1, 114390, Note_on_c, 1, 57, 127
1, 114419, Note_off_c, 1, 66, 0
1, 114419, Note_off_c, 1, 57, 0
1, 114420, Note_on_c, 1, 67, 127
1, 114420, Note_on_c, 1, 59, 127
1, 114420, Note_on_c, 1, 55, 127
1, 114449, Note_off_c, 1, 67, 0
1, 114449, Note_off_c, 1, 59, 0
1, 114449, Note_off_c, 1, 55, 0
1, 114450, Note_on_c, 1, 69, 127
1, 114450, Note_on_c, 1, 60, 127
1, 114450, Note_on_c, 1, 54, 127
1, 114479, Note_off_c, 1, 69, 0
1, 114479, Note_off_c, 1, 60, 0
1, 114479, Note_off_c, 1, 54, 0
1, 114480, Note_on_c, 1, 71, 127
1, 114480, Note_on_c, 1, 62, 127
1, 114480, Note_on_c, 1, 67, 127
1, 114480, Note_on_c, 1, 55, 127
1, 114509, Note_off_c, 1, 62, 0
1, 114510, Note_on_c, 1, 64, 127
1, 114539, Note_off_c, 1, 71, 0
1, 114539, Note_off_c, 1, 67, 0
1, 114539, Note_off_c, 1, 55, 0
1, 114539, Note_off_c, 1, 64, 0
1, 114540, Note_on_c, 1, 67, 127
1, 114540, Note_on_c, 1, 62, 127
1, 114540, Note_on_c, 1, 69, 127
1, 114569, Note_off_c, 1, 62, 0
1, 114570, Note_on_c, 1, 60, 127
1, 114599, Note_off_c, 1, 67, 0
1, 114599, Note_off_c, 1, 69, 0
1, 114599, Note_off_c, 1, 60, 0
1, 114600, Note_on_c, 1, 74, 127
1, 114600, Note_on_c, 1, 59, 127
1, 114600, Note_on_c, 1, 71, 127
1, 114629, Note_off_c, 1, 59, 0
1, 114630, Note_on_c, 1, 60, 127
1, 114659, Note_off_c, 1, 74, 0
1, 114659, Note_off_c, 1, 71, 0
1, 114659, Note_off_c, 1, 60, 0
1, 114660, Note_on_c, 1, 71, 127
1, 114660, Note_on_c, 1, 62, 127
1, 114660, Note_on_c, 1, 67, 127
1, 114689, Note_off_c, 1, 62, 0
1, 114690, Note_on_c, 1, 59, 127
1, 114719, Note_off_c, 1, 71, 0
1, 114719, Note_off_c, 1, 67, 0
1, 114719, Note_off_c, 1, 59, 0
1, 114720, Note_on_c, 1, 72, 127
1, 114720, Note_on_c, 1, 64, 127
1, 114749, Note_off_c, 1, 64, 0
1, 114750, Note_on_c, 1, 74, 127
1, 114750, Note_on_c, 1, 65, 127
1, 114779, Note_off_c, 1, 72, 0
1, 114779, Note_off_c, 1, 65, 0
1, 114780, Note_off_c, 1, 74, 0
1, 114780, Note_on_c, 1, 67, 127
1, 114780, Note_on_c, 1, 71, 127
1, 114780, Note_on_c, 1, 52, 127
1, 114809, Note_off_c, 1, 67, 0
1, 114809, Note_off_c, 1, 52, 0
1, 114810, Note_on_c, 1, 50, 127
1, 114839, Note_off_c, 1, 50, 0
1, 114840, Note_off_c, 1, 71, 0
1, 114870, Note_on_c, 1, 69, 127
1, 114899, Note_off_c, 1, 69, 0
1, 114990, Note_on_c, 1, 62, 127
1, 115019, Note_off_c, 1, 62, 0
1, 115020, Note_on_c, 1, 71, 127
1, 115020, Note_on_c, 1, 60, 127
1, 115049, Note_off_c, 1, 60, 0
1, 115050, Note_on_c, 1, 59, 127
1, 115079, Note_off_c, 1, 71, 0
1, 115079, Note_off_c, 1, 59, 0
1, 115080, Note_on_c, 1, 69, 127
1, 115080, Note_on_c, 1, 60, 127
1, 115109, Note_off_c, 1, 69, 0
1, 115109, Note_off_c, 1, 60, 0
1, 115110, Note_on_c, 1, 68, 127
1, 115110, Note_on_c, 1, 62, 127
1, 115139, Note_off_c, 1, 68, 0
1, 115139, Note_off_c, 1, 62, 0
1, 115140, Note_on_c, 1, 69, 127
1, 115140, Note_on_c, 1, 60, 127
1, 115140, Note_on_c, 1, 57, 127
1, 115169, Note_off_c, 1, 69, 0
1, 115169, Note_off_c, 1, 60, 0
1, 115169, Note_off_c, 1, 57, 0
1, 115170, Note_on_c, 1, 71, 127
1, 115170, Note_on_c, 1, 59, 127
1, 115170, Note_on_c, 1, 56, 127
1, 115199, Note_off_c, 1, 71, 0
1, 115199, Note_off_c, 1, 59, 0
1, 115199, Note_off_c, 1, 56, 0
1, 115200, Note_on_c, 1, 72, 127
1, 115200, Note_on_c, 1, 57, 127
1, 115200, Note_on_c, 1, 69, 127
1, 115230, Note_on_c, 1, 59, 127
1, 115259, Note_off_c, 1, 72, 0
1, 115259, Note_off_c, 1, 57, 0
1, 115259, Note_off_c, 1, 69, 0
1, 115259, Note_off_c, 1, 59, 0
1, 115260, Note_on_c, 1, 71, 127
1, 115260, Note_on_c, 1, 57, 127
1, 115289, Note_off_c, 1, 57, 0
1, 115290, Note_on_c, 1, 55, 127
1, 115319, Note_off_c, 1, 71, 0
1, 115319, Note_off_c, 1, 55, 0
1, 115320, Note_on_c, 1, 69, 127
1, 115320, Note_on_c, 1, 54, 127
1, 115320, Note_on_c, 1, 72, 127
1, 115349, Note_off_c, 1, 54, 0
1, 115350, Note_on_c, 1, 55, 127
1, 115379, Note_off_c, 1, 69, 0
1, 115379, Note_off_c, 1, 72, 0
1, 115379, Note_off_c, 1, 55, 0
1, 115380, Note_on_c, 1, 67, 127
1, 115380, Note_on_c, 1, 54, 127
1, 115380, Note_on_c, 1, 69, 127
1, 115409, Note_off_c, 1, 54, 0
1, 115410, Note_on_c, 1, 52, 127
1, 115439, Note_off_c, 1, 67, 0
1, 115439, Note_off_c, 1, 69, 0
1, 115439, Note_off_c, 1, 52, 0
1, 115440, Note_on_c, 1, 74, 127
1, 115440, Note_on_c, 1, 50, 127
1, 115469, Note_off_c, 1, 74, 0
1, 115469, Note_off_c, 1, 50, 0
1, 115470, Note_on_c, 1, 73, 127
1, 115470, Note_on_c, 1, 52, 127
1, 115499, Note_off_c, 1, 73, 0
1, 115499, Note_off_c, 1, 52, 0
1, 115500, Note_on_c, 1, 74, 127
1, 115500, Note_on_c, 1, 54, 127
1, 115529, Note_off_c, 1, 74, 0
1, 115529, Note_off_c, 1, 54, 0
1, 115530, Note_on_c, 1, 76, 127
1, 115530, Note_on_c, 1, 55, 127
1, 115530, Note_on_c, 1, 52, 127
1, 115559, Note_off_c, 1, 76, 0
1, 115559, Note_off_c, 1, 55, 0
1, 115559, Note_off_c, 1, 52, 0
1, 115560, Note_on_c, 1, 74, 127
1, 115560, Note_on_c, 1, 57, 127
1, 115560, Note_on_c, 1, 54, 127
1, 115589, Note_off_c, 1, 57, 0
1, 115590, Note_on_c, 1, 59, 127
1, 115619, Note_off_c, 1, 54, 0
1, 115619, Note_off_c, 1, 59, 0
1, 115620, Note_on_c, 1, 76, 127
1, 115650, Note_on_c, 1, 55, 127
1, 115679, Note_off_c, 1, 76, 0
1, 115679, Note_off_c, 1, 55, 0
1, 115680, Note_on_c, 1, 78, 127
1, 115739, Note_off_c, 1, 74, 0
1, 115739, Note_off_c, 1, 78, 0
1, 115740, Note_on_c, 1, 72, 127
1, 115740, Note_on_c, 1, 55, 127
1, 115740, Note_on_c, 1, 74, 127
1, 115769, Note_off_c, 1, 55, 0
1, 115770, Note_on_c, 1, 57, 127
1, 115799, Note_off_c, 1, 72, 0
1, 115799, Note_off_c, 1, 74, 0
1, 115799, Note_off_c, 1, 57, 0
1, 115800, Note_on_c, 1, 71, 127
1, 115800, Note_on_c, 1, 59, 127
1, 115800, Note_on_c, 1, 79, 127
1, 115829, Note_off_c, 1, 59, 0
1, 115830, Note_on_c, 1, 60, 127
1, 115859, Note_off_c, 1, 79, 0
1, 115859, Note_off_c, 1, 60, 0
1, 115860, Note_on_c, 1, 62, 127
1, 115860, Note_on_c, 1, 43, 127
1, 115889, Note_off_c, 1, 71, 0
1, 115889, Note_off_c, 1, 43, 0
1, 115890, Note_on_c, 1, 72, 127
1, 115890, Note_on_c, 1, 45, 127
1, 115904, Note_off_c, 1, 72, 0
1, 115905, Note_on_c, 1, 74, 127
1, 115919, Note_off_c, 1, 62, 0
1, 115919, Note_off_c, 1, 45, 0
1, 115919, Note_off_c, 1, 74, 0
1, 115920, Note_on_c, 1, 62, 127
1, 115920, Note_on_c, 1, 59, 127
1, 115920, Note_on_c, 1, 67, 127
1, 115920, Note_on_c, 1, 47, 127
1, 115979, Note_off_c, 1, 62, 0
1, 115979, Note_off_c, 1, 59, 0
1, 115979, Note_off_c, 1, 67, 0
1, 115979, Note_off_c, 1, 47, 0
1, 115980, Note_on_c, 1, 67, 127
1, 115980, Note_on_c, 1, 62, 127
1, 115980, Note_on_c, 1, 71, 127
1, 115980, Note_on_c, 1, 43, 127
1, 116039, Note_off_c, 1, 67, 0
1, 116039, Note_off_c, 1, 62, 0
1, 116039, Note_off_c, 1, 71, 0
1, 116039, Note_off_c, 1, 43, 0
1, 116040, Note_on_c, 1, 69, 127
1, 116040, Note_on_c, 1, 60, 127
1, 116040, Note_on_c, 1, 50, 127
1, 116070, Note_on_c, 1, 71, 127
1, 116099, Note_off_c, 1, 69, 0
1, 116099, Note_off_c, 1, 60, 0
1, 116099, Note_off_c, 1, 50, 0
1, 116099, Note_off_c, 1, 71, 0
1, 116100, Note_on_c, 1, 69, 127
1, 116100, Note_on_c, 1, 57, 127
1, 116100, Note_on_c, 1, 66, 127
1, 116100, Note_on_c, 1, 38, 127
1, 116129, Note_off_c, 1, 69, 0
1, 116159, Note_off_c, 1, 57, 0
1, 116159, Note_off_c, 1, 66, 0
1, 116159, Note_off_c, 1, 38, 0
1, 116160, Note_on_c, 1, 67, 127
1, 116160, Note_on_c, 1, 59, 127
1, 116160, Note_on_c, 1, 43, 127
1, 116279, Note_off_c, 1, 67, 0
1, 116279, Note_off_c, 1, 59, 0
1, 116279, Note_off_c, 1, 43, 0
1, 116280, Note_on_c, 1, 55, 127
1, 116280, Note_on_c, 1, 67, 127
1, 116280, Note_on_c, 1, 43, 127
1, 116399, Note_off_c, 1, 55, 0
1, 116399, Note_off_c, 1, 67, 0
1, 116399, Note_off_c, 1, 43, 0
1, 116520, Note_on_c, 1, 51, 127
1, 116520, Note_on_c, 1, 66, 127
1, 116520, Note_on_c, 1, 71, 127
1, 116520, Note_on_c, 1, 63, 127
1, 116580, Note_on_c, 1, 59, 127
1, 116700, Note_off_c, 1, 59, 0
1, 116700, Note_on_c, 1, 54, 127
1, 116760, Note_off_c, 1, 54, 0
1, 116820, Note_on_c, 1, 52, 127
1, 116880, Note_off_c, 1, 52, 0
1, 116940, Note_on_c, 1, 47, 127
1, 117000, Note_off_c, 1, 47, 0
1, 117000, Note_on_c, 1, 57, 127
1, 117120, Note_off_c, 1, 57, 0
1, 117120, Note_on_c, 1, 60, 127
1, 117180, Note_off_c, 1, 60, 0
1, 117240, Note_off_c, 1, 51, 0
1, 117240, Note_off_c, 1, 66, 0
1, 117240, Note_off_c, 1, 63, 0
1, 117240, Note_on_c, 1, 55, 127
1, 117240, Note_on_c, 1, 67, 127
1, 117240, Note_on_c, 1, 64, 127
1, 117360, Note_off_c, 1, 55, 0
1, 117720, Note_off_c, 1, 71, 0
1, 117900, Note_on_c, 1, 50, 127
1, 117960, Note_off_c, 1, 67, 0
1, 117960, Note_off_c, 1, 64, 0
1, 117960, Note_off_c, 1, 50, 0
1, 117960, Note_on_c, 1, 53, 127
1, 117960, Note_on_c, 1, 44, 127
1, 117960, Note_on_c, 1, 65, 127
1, 117960, Note_on_c, 1, 62, 127
1, 117960, Note_on_c, 1, 68, 127
1, 118080, Note_off_c, 1, 53, 0
1, 118200, Note_off_c, 1, 44, 0
1, 118200, Note_off_c, 1, 65, 0
1, 118200, Note_off_c, 1, 62, 0
1, 118200, Note_off_c, 1, 68, 0
1, 118200, Note_on_c, 1, 45, 127
1, 118200, Note_on_c, 1, 69, 127
1, 118680, Note_off_c, 1, 45, 0
1, 118680, Note_off_c, 1, 69, 0
1, 118680, Note_on_c, 1, 40, 127
1, 118770, Note_on_c, 1, 48, 127
1, 118800, Note_off_c, 1, 48, 0
1, 118860, Note_on_c, 1, 58, 127
1, 118920, Note_off_c, 1, 58, 0
1, 118920, Note_on_c, 1, 49, 127
1, 118980, Note_off_c, 1, 49, 0
1, 119160, Note_off_c, 1, 40, 0
1, 119160, Note_on_c, 1, 38, 127
1, 119880, Note_off_c, 1, 38, 0
1, 120360, Note_on_c, 1, 42, 127
1, 120600, Note_off_c, 1, 42, 0
1, 120600, Note_on_c, 1, 43, 127
1, 120600, Note_on_c, 1, 70, 127
1, 120840, Note_off_c, 1, 43, 0
1, 120840, Note_on_c, 1, 46, 127
1, 120840, Note_on_c, 1, 61, 127
1, 121080, Note_off_c, 1, 70, 0
1, 121080, Note_off_c, 1, 46, 0
1, 121080, Note_off_c, 1, 61, 0
1, 121920, Note_on_c, 1, 62, 127
1, 121920, Note_on_c, 1, 58, 127
1, 121920, Note_on_c, 1, 53, 127
1, 121979, Note_off_c, 1, 62, 0
1, 121979, Note_off_c, 1, 58, 0
1, 122039, Note_off_c, 1, 53, 0
1, 122040, Note_on_c, 1, 62, 127
1, 122040, Note_on_c, 1, 58, 127
1, 122159, Note_off_c, 1, 62, 0
1, 122159, Note_off_c, 1, 58, 0
1, 122160, Note_on_c, 1, 50, 127
1, 122160, Note_on_c, 1, 46, 127
1, 122160, Note_on_c, 1, 62, 127
1, 122160, Note_on_c, 1, 58, 127
1, 122249, Note_off_c, 1, 50, 0
1, 122250, Note_on_c, 1, 51, 127
1, 122279, Note_off_c, 1, 46, 0
1, 122279, Note_off_c, 1, 62, 0
1, 122279, Note_off_c, 1, 58, 0
1, 122279, Note_off_c, 1, 51, 0
1, 122280, Note_on_c, 1, 62, 127
1, 122280, Note_on_c, 1, 58, 127
1, 122280, Note_on_c, 1, 53, 127
1, 122339, Note_off_c, 1, 62, 0
1, 122339, Note_off_c, 1, 58, 0
1, 122519, Note_off_c, 1, 53, 0
1, 122520, Note_on_c, 1, 63, 127
1, 122520, Note_on_c, 1, 58, 127
1, 122520, Note_on_c, 1, 55, 127
1, 122520, Note_on_c, 1, 51, 127
1, 122520, Note_on_c, 1, 67, 127
1, 122579, Note_off_c, 1, 63, 0
1, 122579, Note_off_c, 1, 58, 0
1, 122579, Note_off_c, 1, 51, 0
1, 122579, Note_off_c, 1, 67, 0
1, 122609, Note_off_c, 1, 55, 0
1, 122610, Note_on_c, 1, 58, 127
1, 122639, Note_off_c, 1, 58, 0
1, 122640, Note_on_c, 1, 65, 127
1, 122640, Note_on_c, 1, 58, 127
1, 122640, Note_on_c, 1, 53, 127
1, 122640, Note_on_c, 1, 50, 127
1, 122640, Note_on_c, 1, 62, 127
1, 122699, Note_off_c, 1, 65, 0
1, 122699, Note_off_c, 1, 58, 0
1, 122699, Note_off_c, 1, 50, 0
1, 122699, Note_off_c, 1, 62, 0
1, 122729, Note_off_c, 1, 53, 0
1, 122730, Note_on_c, 1, 58, 127
1, 122759, Note_off_c, 1, 58, 0
1, 122760, Note_on_c, 1, 69, 127
1, 122760, Note_on_c, 1, 60, 127
1, 122760, Note_on_c, 1, 51, 127
1, 122760, Note_on_c, 1, 48, 127
1, 122819, Note_off_c, 1, 69, 0
1, 122819, Note_off_c, 1, 60, 0
1, 122819, Note_off_c, 1, 48, 0
1, 122849, Note_off_c, 1, 51, 0
1, 122850, Note_on_c, 1, 58, 127
1, 122879, Note_off_c, 1, 58, 0
1, 122880, Note_on_c, 1, 70, 127
1, 122880, Note_on_c, 1, 65, 127
1, 122880, Note_on_c, 1, 50, 127
1, 122880, Note_on_c, 1, 46, 127
1, 122880, Note_on_c, 1, 62, 127
1, 122939, Note_off_c, 1, 70, 0
1, 122939, Note_off_c, 1, 65, 0
1, 122939, Note_off_c, 1, 46, 0
1, 122939, Note_off_c, 1, 62, 0
1, 122969, Note_off_c, 1, 50, 0
1, 122970, Note_on_c, 1, 58, 127
1, 122999, Note_off_c, 1, 58, 0
1, 123000, Note_on_c, 1, 69, 127
1, 123000, Note_on_c, 1, 65, 127
1, 123000, Note_on_c, 1, 48, 127
1, 123000, Note_on_c, 1, 53, 127
1, 123059, Note_off_c, 1, 69, 0
1, 123059, Note_off_c, 1, 65, 0
1, 123059, Note_off_c, 1, 53, 0
1, 123060, Note_on_c, 1, 51, 127
1, 123060, Note_on_c, 1, 67, 127
1, 123119, Note_off_c, 1, 51, 0
1, 123119, Note_off_c, 1, 67, 0
1, 123120, Note_on_c, 1, 50, 127
1, 123179, Note_off_c, 1, 50, 0
1, 123180, Note_on_c, 1, 70, 127
1, 123180, Note_on_c, 1, 63, 127
1, 123209, Note_off_c, 1, 70, 0
1, 123210, Note_on_c, 1, 72, 127
1, 123239, Note_off_c, 1, 48, 0
1, 123239, Note_off_c, 1, 63, 0
1, 123239, Note_off_c, 1, 72, 0
1, 123240, Note_on_c, 1, 74, 127
1, 123240, Note_on_c, 1, 62, 127
1, 123240, Note_on_c, 1, 50, 127
1, 123240, Note_on_c, 1, 46, 127
1, 123299, Note_off_c, 1, 46, 0
1, 123329, Note_off_c, 1, 74, 0
1, 123329, Note_off_c, 1, 62, 0
1, 123329, Note_off_c, 1, 50, 0
1, 123330, Note_on_c, 1, 75, 127
1, 123330, Note_on_c, 1, 63, 127
1, 123330, Note_on_c, 1, 51, 127
1, 123359, Note_off_c, 1, 75, 0
1, 123359, Note_off_c, 1, 63, 0
1, 123359, Note_off_c, 1, 51, 0
1, 123360, Note_on_c, 1, 77, 127
1, 123360, Note_on_c, 1, 65, 127
1, 123360, Note_on_c, 1, 53, 127
1, 123360, Note_on_c, 1, 46, 127
1, 123360, Note_on_c, 1, 62, 127
1, 123419, Note_off_c, 1, 46, 0
1, 123419, Note_off_c, 1, 62, 0
1, 123479, Note_off_c, 1, 77, 0
1, 123479, Note_off_c, 1, 65, 0
1, 123479, Note_off_c, 1, 53, 0
1, 123480, Note_on_c, 1, 82, 127
1, 123480, Note_on_c, 1, 70, 127
1, 123480, Note_on_c, 1, 58, 127
1, 123480, Note_on_c, 1, 46, 127
1, 123480, Note_on_c, 1, 65, 127
1, 123480, Note_on_c, 1, 62, 127
1, 123599, Note_off_c, 1, 82, 0
1, 123599, Note_off_c, 1, 70, 0
1, 123599, Note_off_c, 1, 58, 0
1, 123599, Note_off_c, 1, 46, 0
1, 123599, Note_off_c, 1, 65, 0
1, 123599, Note_off_c, 1, 62, 0
1, 123600, Note_on_c, 1, 74, 127
1, 123600, Note_on_c, 1, 62, 127
1, 123600, Note_on_c, 1, 50, 127
1, 123689, Note_off_c, 1, 74, 0
1, 123689, Note_off_c, 1, 62, 0
1, 123689, Note_off_c, 1, 50, 0
1, 123690, Note_on_c, 1, 75, 127
1, 123690, Note_on_c, 1, 63, 127
1, 123690, Note_on_c, 1, 51, 127
1, 123719, Note_off_c, 1, 75, 0
1, 123719, Note_off_c, 1, 63, 0
1, 123719, Note_off_c, 1, 51, 0
1, 123720, Note_on_c, 1, 77, 127
1, 123720, Note_on_c, 1, 65, 127
1, 123720, Note_on_c, 1, 53, 127
1, 123720, Note_on_c, 1, 46, 127
1, 123720, Note_on_c, 1, 62, 127
1, 123779, Note_off_c, 1, 46, 0
1, 123779, Note_off_c, 1, 62, 0
1, 123900, Note_on_c, 1, 48, 127
1, 123900, Note_on_c, 1, 63, 127
1, 123929, Note_off_c, 1, 48, 0
1, 123929, Note_off_c, 1, 63, 0
1, 123930, Note_on_c, 1, 50, 127
1, 123959, Note_off_c, 1, 77, 0
1, 123959, Note_off_c, 1, 65, 0
1, 123959, Note_off_c, 1, 53, 0
1, 123959, Note_off_c, 1, 50, 0
1, 123960, Note_on_c, 1, 79, 127
1, 123960, Note_on_c, 1, 67, 127
1, 123960, Note_on_c, 1, 55, 127
1, 123960, Note_on_c, 1, 51, 127
1, 123960, Note_on_c, 1, 63, 127
1, 124019, Note_off_c, 1, 51, 0
1, 124019, Note_off_c, 1, 63, 0
1, 124049, Note_off_c, 1, 79, 0
1, 124049, Note_off_c, 1, 67, 0
1, 124049, Note_off_c, 1, 55, 0
1, 124050, Note_on_c, 1, 82, 127
1, 124050, Note_on_c, 1, 70, 127
1, 124050, Note_on_c, 1, 58, 127
1, 124079, Note_off_c, 1, 82, 0
1, 124079, Note_off_c, 1, 70, 0
1, 124079, Note_off_c, 1, 58, 0
1, 124080, Note_on_c, 1, 77, 127
1, 124080, Note_on_c, 1, 65, 127
1, 124080, Note_on_c, 1, 53, 127
1, 124080, Note_on_c, 1, 50, 127
1, 124080, Note_on_c, 1, 62, 127
1, 124139, Note_off_c, 1, 50, 0
1, 124139, Note_off_c, 1, 62, 0
1, 124169, Note_off_c, 1, 77, 0
1, 124169, Note_off_c, 1, 65, 0
1, 124169, Note_off_c, 1, 53, 0
1, 124170, Note_on_c, 1, 82, 127
1, 124170, Note_on_c, 1, 70, 127
1, 124170, Note_on_c, 1, 58, 127
1, 124199, Note_off_c, 1, 82, 0
1, 124199, Note_off_c, 1, 70, 0
1, 124199, Note_off_c, 1, 58, 0
1, 124200, Note_on_c, 1, 75, 127
1, 124200, Note_on_c, 1, 63, 127
1, 124200, Note_on_c, 1, 51, 127
1, 124200, Note_on_c, 1, 48, 127
1, 124200, Note_on_c, 1, 60, 127
1, 124259, Note_off_c, 1, 48, 0
1, 124259, Note_off_c, 1, 60, 0
1, 124289, Note_off_c, 1, 75, 0
1, 124289, Note_off_c, 1, 63, 0
1, 124289, Note_off_c, 1, 51, 0
1, 124290, Note_on_c, 1, 82, 127
1, 124290, Note_on_c, 1, 70, 127
1, 124290, Note_on_c, 1, 58, 127
1, 124319, Note_off_c, 1, 82, 0
1, 124319, Note_off_c, 1, 70, 0
1, 124319, Note_off_c, 1, 58, 0
1, 124320, Note_on_c, 1, 74, 127
1, 124320, Note_on_c, 1, 62, 127
1, 124320, Note_on_c, 1, 50, 127
1, 124320, Note_on_c, 1, 46, 127
1, 124320, Note_on_c, 1, 58, 127
1, 124379, Note_off_c, 1, 46, 0
1, 124379, Note_off_c, 1, 58, 0
1, 124409, Note_off_c, 1, 74, 0
1, 124409, Note_off_c, 1, 62, 0
1, 124409, Note_off_c, 1, 50, 0
1, 124410, Note_on_c, 1, 82, 127
1, 124410, Note_on_c, 1, 70, 127
1, 124410, Note_on_c, 1, 58, 127
1, 124439, Note_off_c, 1, 82, 0
1, 124439, Note_off_c, 1, 70, 0
1, 124439, Note_off_c, 1, 58, 0
1, 124440, Note_on_c, 1, 74, 127
1, 124440, Note_on_c, 1, 60, 127
1, 124440, Note_on_c, 1, 48, 127
1, 124440, Note_on_c, 1, 41, 127
1, 124440, Note_on_c, 1, 57, 127
1, 124499, Note_off_c, 1, 41, 0
1, 124499, Note_off_c, 1, 57, 0
1, 124500, Note_off_c, 1, 74, 0
1, 124500, Note_on_c, 1, 72, 127
1, 124679, Note_off_c, 1, 60, 0
1, 124679, Note_off_c, 1, 48, 0
1, 124680, Note_off_c, 1, 72, 0
1, 124770, Note_on_c, 1, 58, 127
1, 124799, Note_off_c, 1, 58, 0
1, 124800, Note_on_c, 1, 69, 127
1, 124800, Note_on_c, 1, 65, 127
1, 124800, Note_on_c, 1, 60, 127
1, 124859, Note_off_c, 1, 69, 0
1, 124859, Note_off_c, 1, 65, 0
1, 124919, Note_off_c, 1, 60, 0
1, 124920, Note_on_c, 1, 69, 127
1, 124920, Note_on_c, 1, 65, 127
1, 124920, Note_on_c, 1, 53, 127
1, 124920, Note_on_c, 1, 41, 127
1, 124979, Note_off_c, 1, 41, 0
1, 124980, Note_on_c, 1, 45, 127
1, 125009, Note_off_c, 1, 45, 0
1, 125039, Note_off_c, 1, 69, 0
1, 125039, Note_off_c, 1, 65, 0
1, 125039, Note_off_c, 1, 53, 0
1, 125040, Note_on_c, 1, 50, 127
1, 125040, Note_on_c, 1, 46, 127
1, 125040, Note_on_c, 1, 65, 127
1, 125040, Note_on_c, 1, 62, 127
1, 125099, Note_off_c, 1, 46, 0
1, 125099, Note_off_c, 1, 65, 0
1, 125099, Note_off_c, 1, 62, 0
1, 125129, Note_off_c, 1, 50, 0
1, 125130, Note_on_c, 1, 51, 127
1, 125130, Note_on_c, 1, 46, 127
1, 125130, Note_on_c, 1, 65, 127
1, 125130, Note_on_c, 1, 62, 127
1, 125159, Note_off_c, 1, 51, 0
1, 125159, Note_off_c, 1, 46, 0
1, 125159, Note_off_c, 1, 65, 0
1, 125159, Note_off_c, 1, 62, 0
1, 125160, Note_on_c, 1, 69, 127
1, 125160, Note_on_c, 1, 65, 127
1, 125160, Note_on_c, 1, 48, 127
1, 125160, Note_on_c, 1, 53, 127
1, 125160, Note_on_c, 1, 60, 127
1, 125219, Note_off_c, 1, 69, 0
1, 125279, Note_off_c, 1, 48, 0
1, 125339, Note_off_c, 1, 53, 0
1, 125339, Note_off_c, 1, 60, 0
1, 125370, Note_on_c, 1, 45, 127
1, 125399, Note_off_c, 1, 65, 0
1, 125399, Note_off_c, 1, 45, 0
1, 125400, Note_on_c, 1, 57, 127
1, 125400, Note_on_c, 1, 41, 127
1, 125400, Note_on_c, 1, 65, 127
1, 125400, Note_on_c, 1, 60, 127
1, 125489, Note_off_c, 1, 57, 0
1, 125490, Note_on_c, 1, 58, 127
1, 125519, Note_off_c, 1, 41, 0
1, 125519, Note_off_c, 1, 65, 0
1, 125519, Note_off_c, 1, 60, 0
1, 125519, Note_off_c, 1, 58, 0
1, 125520, Note_on_c, 1, 69, 127
1, 125520, Note_on_c, 1, 65, 127
1, 125520, Note_on_c, 1, 60, 127
1, 125579, Note_off_c, 1, 69, 0
1, 125579, Note_off_c, 1, 65, 0
1, 125640, Note_off_c, 1, 60, 0
1, 125640, Note_on_c, 1, 53, 127
1, 125640, Note_on_c, 1, 41, 127
1, 125699, Note_off_c, 1, 41, 0
1, 125700, Note_on_c, 1, 45, 127
1, 125729, Note_off_c, 1, 45, 0
1, 125760, Note_off_c, 1, 53, 0
1, 125760, Note_on_c, 1, 50, 127
1, 125760, Note_on_c, 1, 46, 127
1, 125760, Note_on_c, 1, 62, 127
1, 125819, Note_off_c, 1, 46, 0
1, 125819, Note_off_c, 1, 62, 0
1, 125849, Note_off_c, 1, 50, 0
1, 125850, Note_on_c, 1, 51, 127
1, 125850, Note_on_c, 1, 46, 127
1, 125850, Note_on_c, 1, 62, 127
1, 125850, Note_on_c, 1, 65, 127
1, 125879, Note_off_c, 1, 51, 0
1, 125879, Note_off_c, 1, 46, 0
1, 125879, Note_off_c, 1, 62, 0
1, 125879, Note_off_c, 1, 65, 0
1, 125880, Note_on_c, 1, 69, 127
1, 125880, Note_on_c, 1, 65, 127
1, 125880, Note_on_c, 1, 48, 127
1, 125880, Note_on_c, 1, 53, 127
1, 125999, Note_off_c, 1, 48, 0
1, 126059, Note_off_c, 1, 53, 0
1, 126060, Note_on_c, 1, 51, 127
1, 126060, Note_on_c, 1, 63, 127
1, 126089, Note_off_c, 1, 51, 0
1, 126089, Note_off_c, 1, 63, 0
1, 126119, Note_off_c, 1, 69, 0
1, 126119, Note_off_c, 1, 65, 0
1, 126120, Note_on_c, 1, 58, 127
1, 126120, Note_on_c, 1, 50, 127
1, 126120, Note_on_c, 1, 62, 127
1, 126179, Note_off_c, 1, 58, 0
1, 126179, Note_off_c, 1, 50, 0
1, 126179, Note_off_c, 1, 62, 0
1, 126180, Note_on_c, 1, 62, 127
1, 126180, Note_on_c, 1, 46, 127
1, 126239, Note_off_c, 1, 62, 0
1, 126239, Note_off_c, 1, 46, 0
1, 126240, Note_on_c, 1, 67, 127
1, 126240, Note_on_c, 1, 60, 127
1, 126240, Note_on_c, 1, 52, 127
1, 126240, Note_on_c, 1, 64, 127
1, 126299, Note_off_c, 1, 67, 0
1, 126299, Note_off_c, 1, 60, 0
1, 126299, Note_off_c, 1, 52, 0
1, 126299, Note_off_c, 1, 64, 0
1, 126300, Note_on_c, 1, 58, 127
1, 126300, Note_on_c, 1, 48, 127
1, 126359, Note_off_c, 1, 58, 0
1, 126359, Note_off_c, 1, 48, 0
1, 126360, Note_on_c, 1, 65, 127
1, 126360, Note_on_c, 1, 60, 127
1, 126360, Note_on_c, 1, 57, 127
1, 126360, Note_on_c, 1, 53, 127
1, 126419, Note_off_c, 1, 65, 0
1, 126419, Note_off_c, 1, 60, 0
1, 126419, Note_off_c, 1, 57, 0
1, 126419, Note_off_c, 1, 53, 0
1, 126420, Note_on_c, 1, 53, 127
1, 126420, Note_on_c, 1, 50, 127
1, 126479, Note_off_c, 1, 53, 0
1, 126479, Note_off_c, 1, 50, 0
1, 126480, Note_on_c, 1, 55, 127
1, 126480, Note_on_c, 1, 46, 127
1, 126539, Note_off_c, 1, 46, 0
1, 126540, Note_on_c, 1, 48, 127
1, 126599, Note_off_c, 1, 55, 0
1, 126599, Note_off_c, 1, 48, 0
1, 126600, Note_on_c, 1, 69, 127
1, 126600, Note_on_c, 1, 60, 127
1, 126600, Note_on_c, 1, 53, 127
1, 126600, Note_on_c, 1, 41, 127
1, 126600, Note_on_c, 1, 65, 127
1, 126659, Note_off_c, 1, 69, 0
1, 126659, Note_off_c, 1, 60, 0
1, 126659, Note_off_c, 1, 41, 0
1, 126659, Note_off_c, 1, 65, 0
1, 126660, Note_on_c, 1, 48, 127
1, 126719, Note_off_c, 1, 48, 0
1, 126720, Note_on_c, 1, 72, 127
1, 126720, Note_on_c, 1, 57, 127
1, 126779, Note_off_c, 1, 72, 0
1, 126779, Note_off_c, 1, 57, 0
1, 126780, Note_on_c, 1, 51, 127
1, 126839, Note_off_c, 1, 53, 0
1, 126839, Note_off_c, 1, 51, 0
1, 126840, Note_on_c, 1, 58, 127
1, 126840, Note_on_c, 1, 50, 127
1, 126899, Note_off_c, 1, 58, 0
1, 126899, Note_off_c, 1, 50, 0
1, 126900, Note_on_c, 1, 65, 127
1, 126900, Note_on_c, 1, 62, 127
1, 126900, Note_on_c, 1, 46, 127
1, 126900, Note_on_c, 1, 69, 127
1, 126929, Note_off_c, 1, 65, 0
1, 126929, Note_off_c, 1, 69, 0
1, 126959, Note_off_c, 1, 62, 0
1, 126959, Note_off_c, 1, 46, 0
1, 126960, Note_on_c, 1, 65, 127
1, 126960, Note_on_c, 1, 60, 127
1, 126960, Note_on_c, 1, 53, 127
1, 126960, Note_on_c, 1, 69, 127
1, 127019, Note_off_c, 1, 65, 0
1, 127019, Note_off_c, 1, 60, 0
1, 127019, Note_off_c, 1, 53, 0
1, 127019, Note_off_c, 1, 69, 0
1, 127020, Note_on_c, 1, 65, 127
1, 127020, Note_on_c, 1, 58, 127
1, 127020, Note_on_c, 1, 55, 127
1, 127020, Note_on_c, 1, 69, 127
1, 127049, Note_off_c, 1, 65, 0
1, 127049, Note_off_c, 1, 69, 0
1, 127079, Note_off_c, 1, 58, 0
1, 127079, Note_off_c, 1, 55, 0
1, 127080, Note_on_c, 1, 65, 127
1, 127080, Note_on_c, 1, 57, 127
1, 127080, Note_on_c, 1, 53, 127
1, 127080, Note_on_c, 1, 69, 127
1, 127139, Note_off_c, 1, 57, 0
1, 127139, Note_off_c, 1, 53, 0
1, 127139, Note_off_c, 1, 69, 0
1, 127140, Note_on_c, 1, 51, 127
1, 127199, Note_off_c, 1, 65, 0
1, 127199, Note_off_c, 1, 51, 0
1, 127200, Note_on_c, 1, 58, 127
1, 127200, Note_on_c, 1, 50, 127
1, 127259, Note_off_c, 1, 58, 0
1, 127259, Note_off_c, 1, 50, 0
1, 127260, Note_on_c, 1, 65, 127
1, 127260, Note_on_c, 1, 62, 127
1, 127260, Note_on_c, 1, 46, 127
1, 127260, Note_on_c, 1, 69, 127
1, 127289, Note_off_c, 1, 65, 0
1, 127289, Note_off_c, 1, 69, 0
1, 127319, Note_off_c, 1, 62, 0
1, 127319, Note_off_c, 1, 46, 0
1, 127320, Note_on_c, 1, 65, 127
1, 127320, Note_on_c, 1, 60, 127
1, 127320, Note_on_c, 1, 53, 127
1, 127320, Note_on_c, 1, 69, 127
1, 127379, Note_off_c, 1, 65, 0
1, 127379, Note_off_c, 1, 60, 0
1, 127379, Note_off_c, 1, 53, 0
1, 127379, Note_off_c, 1, 69, 0
1, 127380, Note_on_c, 1, 65, 127
1, 127380, Note_on_c, 1, 58, 127
1, 127380, Note_on_c, 1, 55, 127
1, 127380, Note_on_c, 1, 69, 127
1, 127409, Note_off_c, 1, 65, 0
1, 127409, Note_off_c, 1, 69, 0
1, 127439, Note_off_c, 1, 58, 0
1, 127439, Note_off_c, 1, 55, 0
1, 127440, Note_on_c, 1, 65, 127
1, 127440, Note_on_c, 1, 57, 127
1, 127440, Note_on_c, 1, 53, 127
1, 127440, Note_on_c, 1, 69, 127
1, 127499, Note_off_c, 1, 65, 0
1, 127499, Note_off_c, 1, 57, 0
1, 127499, Note_off_c, 1, 53, 0
1, 127499, Note_off_c, 1, 69, 0
1, 127500, Note_on_c, 1, 67, 127
1, 127500, Note_on_c, 1, 53, 127
1, 127500, Note_on_c, 1, 51, 127
1, 127500, Note_on_c, 1, 63, 127
1, 127529, Note_off_c, 1, 67, 0
1, 127529, Note_off_c, 1, 63, 0
1, 127530, Note_on_c, 1, 69, 127
1, 127530, Note_on_c, 1, 65, 127
1, 127559, Note_off_c, 1, 53, 0
1, 127559, Note_off_c, 1, 51, 0
1, 127559, Note_off_c, 1, 69, 0
1, 127559, Note_off_c, 1, 65, 0
1, 127560, Note_on_c, 1, 70, 127
1, 127560, Note_on_c, 1, 58, 127
1, 127560, Note_on_c, 1, 50, 127
1, 127560, Note_on_c, 1, 74, 127
1, 127619, Note_off_c, 1, 70, 0
1, 127619, Note_off_c, 1, 50, 0
1, 127619, Note_off_c, 1, 74, 0
1, 127620, Note_on_c, 1, 69, 127
1, 127620, Note_on_c, 1, 46, 127
1, 127649, Note_off_c, 1, 69, 0
1, 127650, Note_on_c, 1, 67, 127
1, 127679, Note_off_c, 1, 58, 0
1, 127679, Note_off_c, 1, 46, 0
1, 127679, Note_off_c, 1, 67, 0
1, 127680, Note_on_c, 1, 65, 127
1, 127680, Note_on_c, 1, 46, 127
1, 127680, Note_on_c, 1, 50, 127
1, 127709, Note_off_c, 1, 65, 0
1, 127710, Note_on_c, 1, 63, 127
1, 127739, Note_off_c, 1, 50, 0
1, 127739, Note_off_c, 1, 63, 0
1, 127740, Note_on_c, 1, 62, 127
1, 127740, Note_on_c, 1, 53, 127
1, 127769, Note_off_c, 1, 62, 0
1, 127770, Note_on_c, 1, 60, 127
1, 127799, Note_off_c, 1, 53, 0
1, 127799, Note_off_c, 1, 60, 0
1, 127800, Note_on_c, 1, 58, 127
1, 127860, Note_on_c, 1, 57, 127
1, 127889, Note_off_c, 1, 57, 0
1, 127890, Note_on_c, 1, 55, 127
1, 127919, Note_off_c, 1, 46, 0
1, 127919, Note_off_c, 1, 58, 0
1, 127919, Note_off_c, 1, 55, 0
1, 127920, Note_on_c, 1, 81, 127
1, 127920, Note_on_c, 1, 65, 127
1, 127920, Note_on_c, 1, 53, 127
1, 127920, Note_on_c, 1, 69, 127
1, 128009, Note_off_c, 1, 81, 0
1, 128010, Note_on_c, 1, 82, 127
1, 128010, Note_on_c, 1, 67, 127
1, 128039, Note_off_c, 1, 65, 0
1, 128039, Note_off_c, 1, 53, 0
1, 128039, Note_off_c, 1, 69, 0
1, 128039, Note_off_c, 1, 82, 0
1, 128039, Note_off_c, 1, 67, 0
1, 128040, Note_on_c, 1, 84, 127
1, 128040, Note_on_c, 1, 69, 127
1, 128040, Note_on_c, 1, 41, 127
1, 128040, Note_on_c, 1, 65, 127
1, 128129, Note_off_c, 1, 69, 0
1, 128129, Note_off_c, 1, 41, 0
1, 128129, Note_off_c, 1, 65, 0
1, 128130, Note_on_c, 1, 70, 127
1, 128130, Note_on_c, 1, 43, 127
1, 128130, Note_on_c, 1, 67, 127
1, 128159, Note_off_c, 1, 84, 0
1, 128159, Note_off_c, 1, 70, 0
1, 128159, Note_off_c, 1, 43, 0
1, 128159, Note_off_c, 1, 67, 0
1, 128160, Note_on_c, 1, 77, 127
1, 128160, Note_on_c, 1, 72, 127
1, 128160, Note_on_c, 1, 45, 127
1, 128160, Note_on_c, 1, 69, 127
1, 128219, Note_off_c, 1, 72, 0
1, 128219, Note_off_c, 1, 45, 0
1, 128219, Note_off_c, 1, 69, 0
1, 128220, Note_on_c, 1, 41, 127
1, 128220, Note_on_c, 1, 65, 127
1, 128279, Note_off_c, 1, 77, 0
1, 128279, Note_off_c, 1, 41, 0
1, 128279, Note_off_c, 1, 65, 0
1, 128280, Note_on_c, 1, 74, 127
1, 128280, Note_on_c, 1, 70, 127
1, 128280, Note_on_c, 1, 53, 127
1, 128280, Note_on_c, 1, 46, 127
1, 128339, Note_off_c, 1, 53, 0
1, 128339, Note_off_c, 1, 46, 0
1, 128340, Note_on_c, 1, 50, 127
1, 128369, Note_off_c, 1, 70, 0
1, 128370, Note_on_c, 1, 75, 127
1, 128370, Note_on_c, 1, 72, 127
1, 128399, Note_off_c, 1, 74, 0
1, 128399, Note_off_c, 1, 50, 0
1, 128399, Note_off_c, 1, 75, 0
1, 128399, Note_off_c, 1, 72, 0
1, 128400, Note_on_c, 1, 72, 127
1, 128400, Note_on_c, 1, 69, 127
1, 128400, Note_on_c, 1, 53, 127
1, 128400, Note_on_c, 1, 65, 127
1, 128519, Note_off_c, 1, 72, 0
1, 128519, Note_off_c, 1, 69, 0
1, 128519, Note_off_c, 1, 53, 0
1, 128519, Note_off_c, 1, 65, 0
1, 128520, Note_on_c, 1, 53, 127
1, 128579, Note_off_c, 1, 53, 0
1, 128580, Note_on_c, 1, 53, 127
1, 128639, Note_off_c, 1, 53, 0
1, 128640, Note_on_c, 1, 81, 127
1, 128640, Note_on_c, 1, 65, 127
1, 128640, Note_on_c, 1, 60, 127
1, 128729, Note_off_c, 1, 81, 0
1, 128729, Note_off_c, 1, 65, 0
1, 128730, Note_on_c, 1, 82, 127
1, 128730, Note_on_c, 1, 67, 127
1, 128759, Note_off_c, 1, 60, 0
1, 128759, Note_off_c, 1, 82, 0
1, 128759, Note_off_c, 1, 67, 0
1, 128760, Note_on_c, 1, 84, 127
1, 128760, Note_on_c, 1, 69, 127
1, 128760, Note_on_c, 1, 41, 127
1, 128760, Note_on_c, 1, 65, 127
1, 128849, Note_off_c, 1, 69, 0
1, 128849, Note_off_c, 1, 41, 0
1, 128849, Note_off_c, 1, 65, 0
1, 128850, Note_on_c, 1, 70, 127
1, 128850, Note_on_c, 1, 43, 127
1, 128850, Note_on_c, 1, 67, 127
1, 128879, Note_off_c, 1, 84, 0
1, 128879, Note_off_c, 1, 70, 0
1, 128879, Note_off_c, 1, 43, 0
1, 128879, Note_off_c, 1, 67, 0
1, 128880, Note_on_c, 1, 77, 127
1, 128880, Note_on_c, 1, 72, 127
1, 128880, Note_on_c, 1, 45, 127
1, 128880, Note_on_c, 1, 69, 127
1, 128939, Note_off_c, 1, 72, 0
1, 128939, Note_off_c, 1, 45, 0
1, 128939, Note_off_c, 1, 69, 0
1, 128940, Note_on_c, 1, 41, 127
1, 128940, Note_on_c, 1, 65, 127
1, 128999, Note_off_c, 1, 77, 0
1, 128999, Note_off_c, 1, 41, 0
1, 128999, Note_off_c, 1, 65, 0
1, 129000, Note_on_c, 1, 74, 127
1, 129000, Note_on_c, 1, 70, 127
1, 129000, Note_on_c, 1, 53, 127
1, 129000, Note_on_c, 1, 46, 127
1, 129000, Note_on_c, 1, 62, 127
1, 129059, Note_off_c, 1, 53, 0
1, 129059, Note_off_c, 1, 46, 0
1, 129060, Note_on_c, 1, 50, 127
1, 129060, Note_on_c, 1, 65, 127
1, 129089, Note_off_c, 1, 74, 0
1, 129089, Note_off_c, 1, 70, 0
1, 129090, Note_on_c, 1, 75, 127
1, 129090, Note_on_c, 1, 72, 127
1, 129119, Note_off_c, 1, 62, 0
1, 129119, Note_off_c, 1, 50, 0
1, 129119, Note_off_c, 1, 65, 0
1, 129119, Note_off_c, 1, 75, 0
1, 129119, Note_off_c, 1, 72, 0
1, 129120, Note_on_c, 1, 72, 127
1, 129120, Note_on_c, 1, 69, 127
1, 129120, Note_on_c, 1, 53, 127
1, 129120, Note_on_c, 1, 65, 127
1, 129120, Note_on_c, 1, 60, 127
1, 129179, Note_off_c, 1, 53, 0
1, 129179, Note_off_c, 1, 65, 0
1, 129180, Note_on_c, 1, 51, 127
1, 129180, Note_on_c, 1, 67, 127
1, 129239, Note_off_c, 1, 72, 0
1, 129239, Note_off_c, 1, 69, 0
1, 129239, Note_off_c, 1, 60, 0
1, 129239, Note_off_c, 1, 51, 0
1, 129239, Note_off_c, 1, 67, 0
1, 129240, Note_on_c, 1, 53, 127
1, 129240, Note_on_c, 1, 50, 127
1, 129240, Note_on_c, 1, 65, 127
1, 129299, Note_off_c, 1, 53, 0
1, 129299, Note_off_c, 1, 50, 0
1, 129299, Note_off_c, 1, 65, 0
1, 129300, Note_on_c, 1, 53, 127
1, 129300, Note_on_c, 1, 48, 127
1, 129300, Note_on_c, 1, 63, 127
1, 129359, Note_off_c, 1, 53, 0
1, 129359, Note_off_c, 1, 48, 0
1, 129359, Note_off_c, 1, 63, 0
1, 129360, Note_on_c, 1, 82, 127
1, 129360, Note_on_c, 1, 62, 127
1, 129360, Note_on_c, 1, 46, 127
1, 129360, Note_on_c, 1, 65, 127
1, 129419, Note_off_c, 1, 82, 0
1, 129420, Note_on_c, 1, 86, 127
1, 129420, Note_on_c, 1, 58, 127
1, 129479, Note_off_c, 1, 62, 0
1, 129479, Note_off_c, 1, 46, 0
1, 129479, Note_off_c, 1, 65, 0
1, 129479, Note_off_c, 1, 86, 0
1, 129479, Note_off_c, 1, 58, 0
1, 129480, Note_on_c, 1, 84, 127
1, 129480, Note_on_c, 1, 63, 127
1, 129539, Note_off_c, 1, 84, 0
1, 129539, Note_off_c, 1, 63, 0
1, 129540, Note_on_c, 1, 82, 127
1, 129540, Note_on_c, 1, 62, 127
1, 129540, Note_on_c, 1, 41, 127
1, 129540, Note_on_c, 1, 74, 127
1, 129599, Note_off_c, 1, 82, 0
1, 129599, Note_off_c, 1, 62, 0
1, 129599, Note_off_c, 1, 41, 0
1, 129599, Note_off_c, 1, 74, 0
1, 129600, Note_on_c, 1, 81, 127
1, 129600, Note_on_c, 1, 63, 127
1, 129600, Note_on_c, 1, 48, 127
1, 129600, Note_on_c, 1, 72, 127
1, 129659, Note_off_c, 1, 81, 0
1, 129659, Note_off_c, 1, 63, 0
1, 129659, Note_off_c, 1, 48, 0
1, 129659, Note_off_c, 1, 72, 0
1, 129660, Note_on_c, 1, 77, 127
1, 129660, Note_on_c, 1, 70, 127
1, 129660, Note_on_c, 1, 50, 127
1, 129719, Note_off_c, 1, 77, 0
1, 129719, Note_off_c, 1, 70, 0
1, 129719, Note_off_c, 1, 50, 0
1, 129720, Note_on_c, 1, 79, 127
1, 129720, Note_on_c, 1, 70, 127
1, 129720, Note_on_c, 1, 63, 127
1, 129720, Note_on_c, 1, 51, 127
1, 129720, Note_on_c, 1, 67, 127
1, 129779, Note_off_c, 1, 63, 0
1, 129779, Note_off_c, 1, 51, 0
1, 129779, Note_off_c, 1, 67, 0
1, 129780, Note_on_c, 1, 62, 127
1, 129780, Note_on_c, 1, 53, 127
1, 129809, Note_off_c, 1, 53, 0
1, 129810, Note_on_c, 1, 55, 127
1, 129839, Note_off_c, 1, 79, 0
1, 129839, Note_off_c, 1, 62, 0
1, 129839, Note_off_c, 1, 55, 0
1, 129840, Note_off_c, 1, 70, 0
1, 129840, Note_on_c, 1, 77, 127
1, 129840, Note_on_c, 1, 72, 127
1, 129840, Note_on_c, 1, 60, 127
1, 129840, Note_on_c, 1, 45, 127
1, 129840, Note_on_c, 1, 69, 127
1, 129899, Note_off_c, 1, 60, 0
1, 129900, Note_on_c, 1, 58, 127
1, 129959, Note_off_c, 1, 58, 0
1, 129960, Note_on_c, 1, 57, 127
1, 130019, Note_off_c, 1, 45, 0
1, 130019, Note_off_c, 1, 69, 0
1, 130019, Note_off_c, 1, 57, 0
1, 130020, Note_on_c, 1, 46, 127
1, 130049, Note_off_c, 1, 46, 0
1, 130050, Note_on_c, 1, 48, 127
1, 130079, Note_off_c, 1, 77, 0
1, 130079, Note_off_c, 1, 72, 0
1, 130079, Note_off_c, 1, 48, 0
1, 130080, Note_on_c, 1, 82, 127
1, 130080, Note_on_c, 1, 70, 127
1, 130080, Note_on_c, 1, 53, 127
1, 130080, Note_on_c, 1, 50, 127
1, 130080, Note_on_c, 1, 74, 127
1, 130139, Note_off_c, 1, 82, 0
1, 130139, Note_off_c, 1, 70, 0
1, 130139, Note_off_c, 1, 53, 0
1, 130139, Note_off_c, 1, 50, 0
1, 130139, Note_off_c, 1, 74, 0
1, 130140, Note_on_c, 1, 86, 127
1, 130140, Note_on_c, 1, 74, 127
1, 130140, Note_on_c, 1, 55, 127
1, 130140, Note_on_c, 1, 46, 127
1, 130140, Note_on_c, 1, 70, 127
1, 130199, Note_off_c, 1, 86, 0
1, 130199, Note_off_c, 1, 74, 0
1, 130199, Note_off_c, 1, 55, 0
1, 130199, Note_off_c, 1, 46, 0
1, 130199, Note_off_c, 1, 70, 0
1, 130200, Note_on_c, 1, 84, 127
1, 130200, Note_on_c, 1, 72, 127
1, 130200, Note_on_c, 1, 57, 127
1, 130200, Note_on_c, 1, 53, 127
1, 130200, Note_on_c, 1, 77, 127
1, 130259, Note_off_c, 1, 84, 0
1, 130259, Note_off_c, 1, 72, 0
1, 130259, Note_off_c, 1, 57, 0
1, 130259, Note_off_c, 1, 53, 0
1, 130259, Note_off_c, 1, 77, 0
1, 130260, Note_on_c, 1, 82, 127
1, 130260, Note_on_c, 1, 70, 127
1, 130260, Note_on_c, 1, 58, 127
1, 130260, Note_on_c, 1, 55, 127
1, 130260, Note_on_c, 1, 79, 127
1, 130319, Note_off_c, 1, 82, 0
1, 130319, Note_off_c, 1, 70, 0
1, 130319, Note_off_c, 1, 58, 0
1, 130319, Note_off_c, 1, 55, 0
1, 130319, Note_off_c, 1, 79, 0
1, 130320, Note_on_c, 1, 81, 127
1, 130320, Note_on_c, 1, 69, 127
1, 130320, Note_on_c, 1, 60, 127
1, 130320, Note_on_c, 1, 53, 127
1, 130320, Note_on_c, 1, 77, 127
1, 130379, Note_off_c, 1, 81, 0
1, 130379, Note_off_c, 1, 69, 0
1, 130379, Note_off_c, 1, 60, 0
1, 130379, Note_off_c, 1, 53, 0
1, 130379, Note_off_c, 1, 77, 0
1, 130380, Note_on_c, 1, 77, 127
1, 130380, Note_on_c, 1, 65, 127
1, 130380, Note_on_c, 1, 57, 127
1, 130380, Note_on_c, 1, 51, 127
1, 130380, Note_on_c, 1, 75, 127
1, 130439, Note_off_c, 1, 77, 0
1, 130439, Note_off_c, 1, 65, 0
1, 130439, Note_off_c, 1, 57, 0
1, 130439, Note_off_c, 1, 51, 0
1, 130439, Note_off_c, 1, 75, 0
1, 130440, Note_on_c, 1, 82, 127
1, 130440, Note_on_c, 1, 70, 127
1, 130440, Note_on_c, 1, 58, 127
1, 130440, Note_on_c, 1, 50, 127
1, 130440, Note_on_c, 1, 74, 127
1, 130499, Note_off_c, 1, 82, 0
1, 130499, Note_off_c, 1, 70, 0
1, 130499, Note_off_c, 1, 58, 0
1, 130499, Note_off_c, 1, 50, 0
1, 130499, Note_off_c, 1, 74, 0
1, 130500, Note_on_c, 1, 86, 127
1, 130500, Note_on_c, 1, 74, 127
1, 130500, Note_on_c, 1, 62, 127
1, 130559, Note_off_c, 1, 86, 0
1, 130559, Note_off_c, 1, 74, 0
1, 130559, Note_off_c, 1, 62, 0
1, 130560, Note_on_c, 1, 84, 127
1, 130560, Note_on_c, 1, 72, 127
1, 130560, Note_on_c, 1, 60, 127
1, 130619, Note_off_c, 1, 84, 0
1, 130619, Note_off_c, 1, 72, 0
1, 130619, Note_off_c, 1, 60, 0
1, 130620, Note_on_c, 1, 82, 127
1, 130620, Note_on_c, 1, 70, 127
1, 130620, Note_on_c, 1, 58, 127
1, 130679, Note_off_c, 1, 82, 0
1, 130679, Note_off_c, 1, 70, 0
1, 130679, Note_off_c, 1, 58, 0
1, 130680, Note_on_c, 1, 81, 127
1, 130680, Note_on_c, 1, 69, 127
1, 130680, Note_on_c, 1, 57, 127
1, 130739, Note_off_c, 1, 81, 0
1, 130739, Note_off_c, 1, 69, 0
1, 130739, Note_off_c, 1, 57, 0
1, 130740, Note_on_c, 1, 77, 127
1, 130740, Note_on_c, 1, 65, 127
1, 130740, Note_on_c, 1, 53, 127
1, 130799, Note_off_c, 1, 77, 0
1, 130799, Note_off_c, 1, 65, 0
1, 130799, Note_off_c, 1, 53, 0
1, 130800, Note_on_c, 1, 82, 127
1, 130800, Note_on_c, 1, 70, 127
1, 130800, Note_on_c, 1, 58, 127
1, 130800, Note_on_c, 1, 65, 127
1, 130919, Note_off_c, 1, 82, 0
1, 130919, Note_off_c, 1, 70, 0
1, 130919, Note_off_c, 1, 58, 0
1, 130919, Note_off_c, 1, 65, 0
1, 130920, Note_on_c, 1, 70, 127
1, 130920, Note_on_c, 1, 58, 127
1, 130920, Note_on_c, 1, 46, 127
1, 130920, Note_on_c, 1, 53, 127
1, 131159, Note_off_c, 1, 70, 0
1, 131159, Note_off_c, 1, 58, 0
1, 131159, Note_off_c, 1, 46, 0
1, 131159, Note_off_c, 1, 53, 0
1, 131280, Note_on_c, 1, 52, 127
1, 131280, Note_on_c, 1, 60, 127
1, 131295, Note_on_c, 1, 64, 127
1, 131310, Note_on_c, 1, 67, 127
1, 131325, Note_on_c, 1, 72, 127
1, 131520, Note_on_c, 1, 79, 127
1, 131580, Note_off_c, 1, 79, 0
1, 131580, Note_on_c, 1, 76, 127
1, 131640, Note_off_c, 1, 76, 0
1, 131759, Note_off_c, 1, 52, 0
1, 131759, Note_off_c, 1, 60, 0
1, 131759, Note_off_c, 1, 64, 0
1, 131759, Note_off_c, 1, 67, 0
1, 131760, Note_off_c, 1, 72, 0
1, 131760, Note_on_c, 1, 49, 127
1, 131760, Note_on_c, 1, 69, 127
1, 131760, Note_on_c, 1, 61, 127
1, 131940, Note_on_c, 1, 73, 127
1, 132000, Note_off_c, 1, 73, 0
1, 132239, Note_off_c, 1, 49, 0
1, 132239, Note_off_c, 1, 61, 0
1, 132240, Note_on_c, 1, 78, 127
1, 132240, Note_on_c, 1, 48, 127
1, 132240, Note_on_c, 1, 66, 127
1, 132240, Note_on_c, 1, 62, 127
1, 132360, Note_off_c, 1, 78, 0
1, 132480, Note_on_c, 1, 81, 127
1, 132540, Note_off_c, 1, 81, 0
1, 132600, Note_on_c, 1, 74, 127
1, 132660, Note_off_c, 1, 74, 0
1, 132719, Note_off_c, 1, 69, 0
1, 132719, Note_off_c, 1, 48, 0
1, 132719, Note_off_c, 1, 66, 0
1, 132719, Note_off_c, 1, 62, 0
1, 132720, Note_on_c, 1, 47, 127
1, 132720, Note_on_c, 1, 71, 127
1, 133439, Note_off_c, 1, 47, 0
1, 133440, Note_off_c, 1, 71, 0
1, 133680, Note_on_c, 1, 50, 127
1, 133799, Note_off_c, 1, 50, 0
1, 134040, Note_on_c, 1, 45, 127
1, 134159, Note_off_c, 1, 45, 0
1, 134160, Note_on_c, 1, 50, 127
1, 134160, Note_on_c, 1, 69, 127
1, 134160, Note_on_c, 1, 66, 127
1, 134160, Note_on_c, 1, 62, 127
1, 134639, Note_off_c, 1, 50, 0
1, 134639, Note_off_c, 1, 69, 0
1, 134639, Note_off_c, 1, 66, 0
1, 134639, Note_off_c, 1, 62, 0
1, 134760, Note_on_c, 1, 64, 127
1, 134760, Note_on_c, 1, 61, 127
1, 134760, Note_on_c, 1, 57, 127
1, 134760, Note_on_c, 1, 45, 127
1, 134760, Note_on_c, 1, 69, 127
1, 134819, Note_off_c, 1, 57, 0
1, 134819, Note_off_c, 1, 45, 0
1, 134820, Note_on_c, 1, 49, 127
1, 134879, Note_off_c, 1, 49, 0
1, 134880, Note_off_c, 1, 61, 0
1, 134880, Note_off_c, 1, 69, 0
1, 134880, Note_on_c, 1, 71, 127
1, 134880, Note_on_c, 1, 68, 127
1, 134880, Note_on_c, 1, 52, 127
1, 134939, Note_off_c, 1, 64, 0
1, 134939, Note_off_c, 1, 71, 0
1, 134939, Note_off_c, 1, 68, 0
1, 134939, Note_off_c, 1, 52, 0
1, 134940, Note_on_c, 1, 73, 127
1, 134940, Note_on_c, 1, 69, 127
1, 134940, Note_on_c, 1, 64, 127
1, 134940, Note_on_c, 1, 57, 127
1, 134940, Note_on_c, 1, 61, 127
1, 134999, Note_off_c, 1, 57, 0
1, 135059, Note_off_c, 1, 73, 0
1, 135060, Note_off_c, 1, 69, 0
1, 135060, Note_off_c, 1, 61, 0
1, 135060, Note_on_c, 1, 71, 127
1, 135060, Note_on_c, 1, 68, 127
1, 135119, Note_off_c, 1, 64, 0
1, 135119, Note_off_c, 1, 71, 0
1, 135120, Note_on_c, 1, 62, 127
1, 135150, Note_on_c, 1, 66, 127
1, 135179, Note_off_c, 1, 66, 0
1, 135239, Note_off_c, 1, 68, 0
1, 135239, Note_off_c, 1, 62, 0
1, 135240, Note_on_c, 1, 73, 127
1, 135240, Note_on_c, 1, 69, 127
1, 135240, Note_on_c, 1, 64, 127
1, 135240, Note_on_c, 1, 61, 127
1, 135299, Note_off_c, 1, 73, 0
1, 135299, Note_off_c, 1, 64, 0
1, 135299, Note_off_c, 1, 61, 0
1, 135300, Note_on_c, 1, 74, 127
1, 135300, Note_on_c, 1, 66, 127
1, 135300, Note_on_c, 1, 59, 127
1, 135300, Note_on_c, 1, 71, 127
1, 135359, Note_off_c, 1, 69, 0
1, 135359, Note_off_c, 1, 66, 0
1, 135359, Note_off_c, 1, 59, 0
1, 135360, Note_on_c, 1, 68, 127
1, 135360, Note_on_c, 1, 52, 127
1, 135419, Note_off_c, 1, 74, 0
1, 135419, Note_off_c, 1, 71, 0
1, 135419, Note_off_c, 1, 68, 0
1, 135419, Note_off_c, 1, 52, 0
1, 135420, Note_on_c, 1, 73, 127
1, 135420, Note_on_c, 1, 69, 127
1, 135420, Note_on_c, 1, 64, 127
1, 135420, Note_on_c, 1, 57, 127
1, 135479, Note_off_c, 1, 73, 0
1, 135479, Note_off_c, 1, 69, 0
1, 135479, Note_off_c, 1, 64, 0
1, 135479, Note_off_c, 1, 57, 0
1, 135480, Note_on_c, 1, 76, 127
1, 135480, Note_on_c, 1, 73, 127
1, 135480, Note_on_c, 1, 69, 127
1, 135480, Note_on_c, 1, 45, 127
1, 135480, Note_on_c, 1, 64, 127
1, 135539, Note_off_c, 1, 76, 0
1, 135539, Note_off_c, 1, 73, 0
1, 135539, Note_off_c, 1, 45, 0
1, 135540, Note_on_c, 1, 49, 127
1, 135599, Note_off_c, 1, 69, 0
1, 135599, Note_off_c, 1, 64, 0
1, 135599, Note_off_c, 1, 49, 0
1, 135600, Note_on_c, 1, 76, 127
1, 135600, Note_on_c, 1, 71, 127
1, 135600, Note_on_c, 1, 68, 127
1, 135600, Note_on_c, 1, 52, 127
1, 135600, Note_on_c, 1, 64, 127
1, 135659, Note_off_c, 1, 76, 0
1, 135659, Note_off_c, 1, 71, 0
1, 135659, Note_off_c, 1, 68, 0
1, 135659, Note_off_c, 1, 52, 0
1, 135659, Note_off_c, 1, 64, 0
1, 135660, Note_on_c, 1, 76, 127
1, 135660, Note_on_c, 1, 73, 127
1, 135660, Note_on_c, 1, 69, 127
1, 135660, Note_on_c, 1, 57, 127
1, 135660, Note_on_c, 1, 64, 127
1, 135719, Note_off_c, 1, 76, 0
1, 135719, Note_off_c, 1, 73, 0
1, 135719, Note_off_c, 1, 57, 0
1, 135720, Note_on_c, 1, 74, 127
1, 135720, Note_on_c, 1, 54, 127
1, 135779, Note_off_c, 1, 69, 0
1, 135779, Note_off_c, 1, 64, 0
1, 135779, Note_off_c, 1, 74, 0
1, 135779, Note_off_c, 1, 54, 0
1, 135780, Note_on_c, 1, 71, 127
1, 135780, Note_on_c, 1, 62, 127
1, 135780, Note_on_c, 1, 66, 127
1, 135780, Note_on_c, 1, 50, 127
1, 135809, Note_off_c, 1, 71, 0
1, 135810, Note_on_c, 1, 69, 127
1, 135839, Note_off_c, 1, 66, 0
1, 135839, Note_off_c, 1, 50, 0
1, 135839, Note_off_c, 1, 69, 0
1, 135840, Note_on_c, 1, 68, 127
1, 135840, Note_on_c, 1, 47, 127
1, 135899, Note_off_c, 1, 62, 0
1, 135899, Note_off_c, 1, 47, 0
1, 135900, Note_on_c, 1, 74, 127
1, 135900, Note_on_c, 1, 64, 127
1, 135900, Note_on_c, 1, 44, 127
1, 135959, Note_off_c, 1, 74, 0
1, 135959, Note_off_c, 1, 64, 0
1, 135959, Note_off_c, 1, 44, 0
1, 135960, Note_off_c, 1, 68, 0
1, 135960, Note_on_c, 1, 73, 127
1, 135960, Note_on_c, 1, 45, 127
1, 136019, Note_off_c, 1, 73, 0
1, 136019, Note_off_c, 1, 45, 0
1, 136020, Note_on_c, 1, 73, 127
1, 136020, Note_on_c, 1, 69, 127
1, 136020, Note_on_c, 1, 64, 127
1, 136020, Note_on_c, 1, 40, 127
1, 136020, Note_on_c, 1, 68, 127
1, 136020, Note_on_c, 1, 71, 127
1, 136049, Note_off_c, 1, 69, 0
1, 136079, Note_off_c, 1, 73, 0
1, 136079, Note_off_c, 1, 40, 0
1, 136080, Note_on_c, 1, 42, 127
1, 136109, Note_off_c, 1, 42, 0
1, 136110, Note_on_c, 1, 44, 127
1, 136139, Note_off_c, 1, 44, 0
1, 136140, Note_off_c, 1, 68, 0
1, 136140, Note_on_c, 1, 45, 127
1, 136169, Note_off_c, 1, 45, 0
1, 136170, Note_on_c, 1, 47, 127
1, 136199, Note_off_c, 1, 64, 0
1, 136199, Note_off_c, 1, 47, 0
1, 136200, Note_off_c, 1, 71, 0
1, 136200, Note_on_c, 1, 49, 127
1, 136230, Note_on_c, 1, 66, 127
1, 136245, Note_off_c, 1, 66, 0
1, 136319, Note_off_c, 1, 49, 0
1, 136320, Note_on_c, 1, 71, 127
1, 136320, Note_on_c, 1, 68, 127
1, 136320, Note_on_c, 1, 62, 127
1, 136320, Note_on_c, 1, 47, 127
1, 136350, Note_on_c, 1, 64, 127
1, 136379, Note_off_c, 1, 71, 0
1, 136379, Note_off_c, 1, 68, 0
1, 136379, Note_off_c, 1, 62, 0
1, 136379, Note_off_c, 1, 47, 0
1, 136379, Note_off_c, 1, 64, 0
1, 136379, Note_on_c, 1, 73, 127
1, 136380, Note_on_c, 1, 69, 127
1, 136380, Note_on_c, 1, 45, 127
1, 136439, Note_off_c, 1, 45, 0
1, 136440, Note_on_c, 1, 49, 127
1, 136499, Note_off_c, 1, 73, 0
1, 136499, Note_off_c, 1, 69, 0
1, 136499, Note_off_c, 1, 49, 0
1, 136500, Note_on_c, 1, 52, 127
1, 136559, Note_off_c, 1, 52, 0
1, 136560, Note_on_c, 1, 56, 127
1, 136574, Note_on_c, 1, 66, 127
1, 136588, Note_off_c, 1, 66, 0
1, 136679, Note_off_c, 1, 56, 0
1, 136680, Note_on_c, 1, 57, 127
1, 136739, Note_on_c, 1, 74, 127
1, 136799, Note_off_c, 1, 57, 0
1, 136859, Note_off_c, 1, 74, 0
1, 136920, Note_on_c, 1, 64, 127
1, 136920, Note_on_c, 1, 76, 127
1, 136920, Note_on_c, 1, 45, 127
1, 136949, Note_off_c, 1, 64, 0
1, 136979, Note_off_c, 1, 76, 0
1, 136979, Note_off_c, 1, 45, 0
1, 136980, Note_on_c, 1, 69, 127
1, 136980, Note_on_c, 1, 76, 127
1, 136980, Note_on_c, 1, 61, 127
1, 136980, Note_on_c, 1, 49, 127
1, 136980, Note_on_c, 1, 73, 127
1, 137039, Note_off_c, 1, 69, 0
1, 137039, Note_off_c, 1, 76, 0
1, 137039, Note_off_c, 1, 61, 0
1, 137039, Note_off_c, 1, 49, 0
1, 137039, Note_off_c, 1, 73, 0
1, 137040, Note_on_c, 1, 71, 127
1, 137040, Note_on_c, 1, 76, 127
1, 137040, Note_on_c, 1, 68, 127
1, 137040, Note_on_c, 1, 59, 127
1, 137040, Note_on_c, 1, 52, 127
1, 137099, Note_off_c, 1, 71, 0
1, 137099, Note_off_c, 1, 76, 0
1, 137099, Note_off_c, 1, 68, 0
1, 137099, Note_off_c, 1, 59, 0
1, 137099, Note_off_c, 1, 52, 0
1, 137100, Note_on_c, 1, 73, 127
1, 137100, Note_on_c, 1, 76, 127
1, 137100, Note_on_c, 1, 57, 127
1, 137129, Note_off_c, 1, 73, 0
1, 137159, Note_off_c, 1, 76, 0
1, 137159, Note_off_c, 1, 57, 0
1, 137160, Note_on_c, 1, 74, 127
1, 137160, Note_on_c, 1, 68, 127
1, 137160, Note_on_c, 1, 62, 127
1, 137160, Note_on_c, 1, 59, 127
1, 137190, Note_on_c, 1, 73, 127
1, 137219, Note_off_c, 1, 74, 0
1, 137219, Note_off_c, 1, 68, 0
1, 137219, Note_off_c, 1, 62, 0
1, 137219, Note_off_c, 1, 59, 0
1, 137219, Note_off_c, 1, 73, 0
1, 137220, Note_on_c, 1, 71, 127
1, 137220, Note_on_c, 1, 69, 127
1, 137220, Note_on_c, 1, 64, 127
1, 137220, Note_on_c, 1, 61, 127
1, 137220, Note_on_c, 1, 76, 127
1, 137249, Note_off_c, 1, 71, 0
1, 137279, Note_off_c, 1, 69, 0
1, 137279, Note_off_c, 1, 64, 0
1, 137279, Note_off_c, 1, 61, 0
1, 137279, Note_off_c, 1, 76, 0
1, 137280, Note_on_c, 1, 68, 127
1, 137280, Note_on_c, 1, 62, 127
1, 137295, Note_on_c, 1, 69, 127
1, 137309, Note_off_c, 1, 69, 0
1, 137310, Note_on_c, 1, 71, 127
1, 137324, Note_off_c, 1, 71, 0
1, 137325, Note_on_c, 1, 73, 127
1, 137339, Note_off_c, 1, 68, 0
1, 137339, Note_off_c, 1, 62, 0
1, 137339, Note_off_c, 1, 73, 0
1, 137340, Note_on_c, 1, 74, 127
1, 137340, Note_on_c, 1, 71, 127
1, 137340, Note_on_c, 1, 64, 127
1, 137340, Note_on_c, 1, 56, 127
1, 137340, Note_on_c, 1, 68, 127
1, 137399, Note_off_c, 1, 74, 0
1, 137399, Note_off_c, 1, 71, 0
1, 137399, Note_off_c, 1, 64, 0
1, 137399, Note_off_c, 1, 56, 0
1, 137399, Note_off_c, 1, 68, 0
1, 137400, Note_on_c, 1, 73, 127
1, 137400, Note_on_c, 1, 69, 127
1, 137400, Note_on_c, 1, 64, 127
1, 137400, Note_on_c, 1, 57, 127
1, 137459, Note_off_c, 1, 73, 0
1, 137459, Note_off_c, 1, 69, 0
1, 137459, Note_off_c, 1, 64, 0
1, 137459, Note_off_c, 1, 57, 0
1, 137460, Note_on_c, 1, 71, 127
1, 137460, Note_on_c, 1, 73, 127
1, 137460, Note_on_c, 1, 68, 127
1, 137460, Note_on_c, 1, 64, 127
1, 137474, Note_off_c, 1, 71, 0
1, 137475, Note_on_c, 1, 76, 127
1, 137489, Note_off_c, 1, 76, 0
1, 137490, Note_on_c, 1, 74, 127
1, 137504, Note_off_c, 1, 74, 0
1, 137519, Note_off_c, 1, 73, 0
1, 137520, Note_on_c, 1, 52, 127
1, 137535, Note_on_c, 1, 69, 127
1, 137549, Note_off_c, 1, 69, 0
1, 137565, Note_on_c, 1, 66, 127
1, 137579, Note_off_c, 1, 52, 0
1, 137579, Note_off_c, 1, 66, 0
1, 137580, Note_on_c, 1, 50, 127
1, 137639, Note_off_c, 1, 68, 0
1, 137639, Note_off_c, 1, 64, 0
1, 137639, Note_off_c, 1, 50, 0
1, 137640, Note_on_c, 1, 49, 127
1, 137699, Note_off_c, 1, 49, 0
1, 137700, Note_on_c, 1, 74, 127
1, 137700, Note_on_c, 1, 71, 127
1, 137700, Note_on_c, 1, 68, 127
1, 137700, Note_on_c, 1, 47, 127
1, 137700, Note_on_c, 1, 62, 127
1, 137759, Note_off_c, 1, 74, 0
1, 137759, Note_off_c, 1, 71, 0
1, 137759, Note_off_c, 1, 68, 0
1, 137759, Note_off_c, 1, 47, 0
1, 137759, Note_off_c, 1, 62, 0
1, 137760, Note_on_c, 1, 73, 127
1, 137760, Note_on_c, 1, 64, 127
1, 137760, Note_on_c, 1, 69, 127
1, 137760, Note_on_c, 1, 45, 127
1, 137760, Note_on_c, 1, 61, 127
1, 137819, Note_off_c, 1, 73, 0
1, 137819, Note_off_c, 1, 64, 0
1, 137819, Note_off_c, 1, 69, 0
1, 137819, Note_off_c, 1, 45, 0
1, 137819, Note_off_c, 1, 61, 0
1, 137820, Note_on_c, 1, 74, 127
1, 137820, Note_on_c, 1, 62, 127
1, 137820, Note_on_c, 1, 69, 127
1, 137820, Note_on_c, 1, 54, 127
1, 137879, Note_off_c, 1, 62, 0
1, 137879, Note_off_c, 1, 69, 0
1, 137879, Note_off_c, 1, 54, 0
1, 137880, Note_on_c, 1, 66, 127
1, 137880, Note_on_c, 1, 50, 127
1, 137909, Note_off_c, 1, 74, 0
1, 137910, Note_on_c, 1, 76, 127
1, 137924, Note_off_c, 1, 76, 0
1, 137925, Note_on_c, 1, 78, 127
1, 137939, Note_off_c, 1, 66, 0
1, 137939, Note_off_c, 1, 50, 0
1, 137939, Note_off_c, 1, 78, 0
1, 137940, Note_on_c, 1, 76, 127
1, 137940, Note_on_c, 1, 70, 127
1, 137940, Note_on_c, 1, 66, 127
1, 137940, Note_on_c, 1, 49, 127
1, 137940, Note_on_c, 1, 64, 127
1, 137999, Note_off_c, 1, 76, 0
1, 137999, Note_off_c, 1, 70, 0
1, 137999, Note_off_c, 1, 66, 0
1, 137999, Note_off_c, 1, 49, 0
1, 137999, Note_off_c, 1, 64, 0
1, 138000, Note_on_c, 1, 74, 127
1, 138000, Note_on_c, 1, 71, 127
1, 138000, Note_on_c, 1, 66, 127
1, 138000, Note_on_c, 1, 47, 127
1, 138000, Note_on_c, 1, 62, 127
1, 138059, Note_off_c, 1, 74, 0
1, 138059, Note_off_c, 1, 71, 0
1, 138059, Note_off_c, 1, 66, 0
1, 138059, Note_off_c, 1, 47, 0
1, 138059, Note_off_c, 1, 62, 0
1, 138060, Note_on_c, 1, 73, 127
1, 138060, Note_on_c, 1, 69, 127
1, 138060, Note_on_c, 1, 64, 127
1, 138060, Note_on_c, 1, 49, 127
1, 138089, Note_off_c, 1, 69, 0
1, 138090, Note_on_c, 1, 68, 127
1, 138119, Note_off_c, 1, 73, 0
1, 138119, Note_off_c, 1, 64, 0
1, 138119, Note_off_c, 1, 49, 0
1, 138119, Note_off_c, 1, 68, 0
1, 138120, Note_on_c, 1, 71, 127
1, 138120, Note_on_c, 1, 69, 127
1, 138120, Note_on_c, 1, 66, 127
1, 138120, Note_on_c, 1, 50, 127
1, 138179, Note_off_c, 1, 71, 0
1, 138179, Note_off_c, 1, 69, 0
1, 138179, Note_off_c, 1, 66, 0
1, 138179, Note_off_c, 1, 50, 0
1, 138180, Note_on_c, 1, 73, 127
1, 138180, Note_on_c, 1, 68, 127
1, 138180, Note_on_c, 1, 64, 127
1, 138180, Note_on_c, 1, 52, 127
1, 138239, Note_off_c, 1, 68, 0
1, 138239, Note_off_c, 1, 64, 0
1, 138239, Note_off_c, 1, 52, 0
1, 138240, Note_on_c, 1, 69, 127
1, 138240, Note_on_c, 1, 57, 127
1, 138240, Note_on_c, 1, 54, 127
1, 138269, Note_off_c, 1, 73, 0
1, 138270, Note_on_c, 1, 74, 127
1, 138284, Note_off_c, 1, 74, 0
1, 138285, Note_on_c, 1, 76, 127
1, 138299, Note_off_c, 1, 69, 0
1, 138299, Note_off_c, 1, 57, 0
1, 138299, Note_off_c, 1, 54, 0
1, 138299, Note_off_c, 1, 76, 0
1, 138300, Note_on_c, 1, 74, 127
1, 138300, Note_on_c, 1, 71, 127
1, 138300, Note_on_c, 1, 64, 127
1, 138300, Note_on_c, 1, 56, 127
1, 138359, Note_off_c, 1, 74, 0
1, 138359, Note_off_c, 1, 71, 0
1, 138359, Note_off_c, 1, 64, 0
1, 138359, Note_off_c, 1, 56, 0
1, 138360, Note_on_c, 1, 64, 127
1, 138360, Note_on_c, 1, 73, 127
1, 138360, Note_on_c, 1, 69, 127
1, 138360, Note_on_c, 1, 45, 127
1, 138419, Note_off_c, 1, 64, 0
1, 138419, Note_off_c, 1, 73, 0
1, 138419, Note_off_c, 1, 69, 0
1, 138419, Note_off_c, 1, 45, 0
1, 138420, Note_on_c, 1, 64, 127
1, 138420, Note_on_c, 1, 74, 127
1, 138420, Note_on_c, 1, 68, 127
1, 138420, Note_on_c, 1, 47, 127
1, 138449, Note_off_c, 1, 74, 0
1, 138450, Note_on_c, 1, 73, 127
1, 138479, Note_off_c, 1, 64, 0
1, 138479, Note_off_c, 1, 68, 0
1, 138479, Note_off_c, 1, 47, 0
1, 138479, Note_off_c, 1, 73, 0
1, 138480, Note_on_c, 1, 64, 127
1, 138480, Note_on_c, 1, 71, 127
1, 138480, Note_on_c, 1, 69, 127
1, 138480, Note_on_c, 1, 49, 127
1, 138509, Note_off_c, 1, 71, 0
1, 138539, Note_off_c, 1, 64, 0
1, 138539, Note_off_c, 1, 69, 0
1, 138539, Note_off_c, 1, 49, 0
1, 138540, Note_on_c, 1, 64, 127
1, 138540, Note_on_c, 1, 68, 127
1, 138540, Note_on_c, 1, 71, 127
1, 138540, Note_on_c, 1, 50, 127
1, 138599, Note_off_c, 1, 64, 0
1, 138599, Note_off_c, 1, 68, 0
1, 138599, Note_off_c, 1, 71, 0
1, 138599, Note_off_c, 1, 50, 0
1, 138600, Note_on_c, 1, 66, 127
1, 138600, Note_on_c, 1, 69, 127
1, 138600, Note_on_c, 1, 49, 127
1, 138629, Note_off_c, 1, 66, 0
1, 138630, Note_on_c, 1, 68, 127
1, 138659, Note_off_c, 1, 69, 0
1, 138659, Note_off_c, 1, 49, 0
1, 138659, Note_off_c, 1, 68, 0
1, 138660, Note_on_c, 1, 69, 127
1, 138660, Note_on_c, 1, 68, 127
1, 138660, Note_on_c, 1, 62, 127
1, 138660, Note_on_c, 1, 47, 127
1, 138660, Note_on_c, 1, 74, 127
1, 138689, Note_off_c, 1, 69, 0
1, 138690, Note_on_c, 1, 71, 127
1, 138719, Note_off_c, 1, 68, 0
1, 138719, Note_off_c, 1, 62, 0
1, 138719, Note_off_c, 1, 47, 0
1, 138719, Note_off_c, 1, 74, 0
1, 138719, Note_off_c, 1, 71, 0
1, 138720, Note_on_c, 1, 73, 127
1, 138720, Note_on_c, 1, 69, 127
1, 138720, Note_on_c, 1, 64, 127
1, 138720, Note_on_c, 1, 45, 127
1, 138720, Note_on_c, 1, 76, 127
1, 138779, Note_off_c, 1, 73, 0
1, 138779, Note_off_c, 1, 69, 0
1, 138779, Note_off_c, 1, 64, 0
1, 138779, Note_off_c, 1, 45, 0
1, 138779, Note_off_c, 1, 76, 0
1, 138780, Note_on_c, 1, 74, 127
1, 138780, Note_on_c, 1, 71, 127
1, 138780, Note_on_c, 1, 66, 127
1, 138780, Note_on_c, 1, 38, 127
1, 138839, Note_off_c, 1, 74, 0
1, 138839, Note_off_c, 1, 71, 0
1, 138839, Note_off_c, 1, 66, 0
1, 138839, Note_off_c, 1, 38, 0
1, 138840, Note_on_c, 1, 71, 127
1, 138840, Note_on_c, 1, 68, 127
1, 138840, Note_on_c, 1, 64, 127
1, 138840, Note_on_c, 1, 40, 127
1, 138849, Note_off_c, 1, 71, 0
1, 138850, Note_on_c, 1, 73, 127
1, 138859, Note_off_c, 1, 73, 0
1, 138899, Note_off_c, 1, 68, 0
1, 138899, Note_off_c, 1, 64, 0
1, 138899, Note_off_c, 1, 40, 0
1, 138900, Note_on_c, 1, 69, 127
1, 138900, Note_on_c, 1, 64, 127
1, 138900, Note_on_c, 1, 61, 127
1, 138900, Note_on_c, 1, 45, 127
1, 138959, Note_off_c, 1, 45, 0
1, 138990, Note_on_c, 1, 44, 127
1, 139019, Note_off_c, 1, 44, 0
1, 139050, Note_on_c, 1, 47, 127
1, 139079, Note_off_c, 1, 64, 0
1, 139079, Note_off_c, 1, 61, 0
1, 139079, Note_off_c, 1, 47, 0
1, 139080, Note_off_c, 1, 69, 0
1, 139080, Note_on_c, 1, 76, 127
1, 139080, Note_on_c, 1, 49, 127
1, 139095, Note_on_c, 1, 74, 127
1, 139109, Note_off_c, 1, 74, 0
1, 139110, Note_on_c, 1, 73, 127
1, 139124, Note_off_c, 1, 73, 0
1, 139139, Note_off_c, 1, 76, 0
1, 139139, Note_off_c, 1, 49, 0
1, 139140, Note_on_c, 1, 74, 127
1, 139140, Note_on_c, 1, 69, 127
1, 139140, Note_on_c, 1, 62, 127
1, 139140, Note_on_c, 1, 54, 127
1, 139199, Note_off_c, 1, 74, 0
1, 139199, Note_off_c, 1, 69, 0
1, 139199, Note_off_c, 1, 62, 0
1, 139199, Note_off_c, 1, 54, 0
1, 139200, Note_on_c, 1, 73, 127
1, 139200, Note_on_c, 1, 67, 127
1, 139200, Note_on_c, 1, 64, 127
1, 139200, Note_on_c, 1, 52, 127
1, 139230, Note_on_c, 1, 69, 127
1, 139259, Note_off_c, 1, 73, 0
1, 139259, Note_off_c, 1, 67, 0
1, 139259, Note_off_c, 1, 64, 0
1, 139259, Note_off_c, 1, 52, 0
1, 139259, Note_off_c, 1, 69, 0
1, 139260, Note_on_c, 1, 74, 127
1, 139260, Note_on_c, 1, 69, 127
1, 139260, Note_on_c, 1, 62, 127
1, 139260, Note_on_c, 1, 54, 127
1, 139319, Note_off_c, 1, 69, 0
1, 139319, Note_off_c, 1, 62, 0
1, 139319, Note_off_c, 1, 54, 0
1, 139320, Note_on_c, 1, 78, 127
1, 139320, Note_on_c, 1, 50, 127
1, 139349, Note_off_c, 1, 74, 0
1, 139349, Note_off_c, 1, 78, 0
1, 139350, Note_on_c, 1, 76, 127
1, 139364, Note_off_c, 1, 76, 0
1, 139379, Note_off_c, 1, 50, 0
1, 139380, Note_on_c, 1, 76, 127
1, 139380, Note_on_c, 1, 49, 127
1, 139410, Note_on_c, 1, 69, 127
1, 139439, Note_off_c, 1, 76, 0
1, 139439, Note_off_c, 1, 49, 0
1, 139439, Note_off_c, 1, 69, 0
1, 139440, Note_on_c, 1, 74, 127
1, 139440, Note_on_c, 1, 47, 127
1, 139455, Note_on_c, 1, 73, 127
1, 139469, Note_off_c, 1, 73, 0
1, 139470, Note_on_c, 1, 71, 127
1, 139484, Note_off_c, 1, 71, 0
1, 139499, Note_off_c, 1, 74, 0
1, 139499, Note_off_c, 1, 47, 0
1, 139500, Note_on_c, 1, 73, 127
1, 139500, Note_on_c, 1, 68, 127
1, 139500, Note_on_c, 1, 64, 127
1, 139500, Note_on_c, 1, 52, 127
1, 139559, Note_off_c, 1, 73, 0
1, 139559, Note_off_c, 1, 68, 0
1, 139559, Note_off_c, 1, 64, 0
1, 139559, Note_off_c, 1, 52, 0
1, 139560, Note_on_c, 1, 71, 127
1, 139560, Note_on_c, 1, 66, 127
1, 139560, Note_on_c, 1, 50, 127
1, 139560, Note_on_c, 1, 62, 127
1, 139590, Note_on_c, 1, 68, 127
1, 139619, Note_off_c, 1, 71, 0
1, 139619, Note_off_c, 1, 66, 0
1, 139619, Note_off_c, 1, 50, 0
1, 139619, Note_off_c, 1, 62, 0
1, 139619, Note_off_c, 1, 68, 0
1, 139620, Note_on_c, 1, 73, 127
1, 139620, Note_on_c, 1, 68, 127
1, 139620, Note_on_c, 1, 64, 127
1, 139620, Note_on_c, 1, 52, 127
1, 139679, Note_off_c, 1, 68, 0
1, 139679, Note_off_c, 1, 64, 0
1, 139679, Note_off_c, 1, 52, 0
1, 139680, Note_on_c, 1, 76, 127
1, 139680, Note_on_c, 1, 49, 127
1, 139709, Note_off_c, 1, 73, 0
1, 139709, Note_off_c, 1, 76, 0
1, 139710, Note_on_c, 1, 74, 127
1, 139724, Note_off_c, 1, 74, 0
1, 139739, Note_off_c, 1, 49, 0
1, 139740, Note_on_c, 1, 74, 127
1, 139740, Note_on_c, 1, 47, 127
1, 139770, Note_on_c, 1, 68, 127
1, 139799, Note_off_c, 1, 74, 0
1, 139799, Note_off_c, 1, 47, 0
1, 139799, Note_off_c, 1, 68, 0
1, 139800, Note_on_c, 1, 73, 127
1, 139800, Note_on_c, 1, 64, 127
1, 139800, Note_on_c, 1, 45, 127
1, 139814, Note_off_c, 1, 73, 0
1, 139815, Note_on_c, 1, 71, 127
1, 139829, Note_off_c, 1, 71, 0
1, 139830, Note_on_c, 1, 69, 127
1, 139844, Note_off_c, 1, 69, 0
1, 139859, Note_off_c, 1, 64, 0
1, 139859, Note_off_c, 1, 45, 0
1, 139860, Note_on_c, 1, 71, 127
1, 139860, Note_on_c, 1, 64, 127
1, 139860, Note_on_c, 1, 68, 127
1, 139860, Note_on_c, 1, 59, 127
1, 139860, Note_on_c, 1, 50, 127
1, 139875, Note_on_c, 1, 69, 127
1, 139889, Note_off_c, 1, 69, 0
1, 139919, Note_off_c, 1, 71, 0
1, 139919, Note_off_c, 1, 64, 0
1, 139919, Note_off_c, 1, 68, 0
1, 139919, Note_off_c, 1, 59, 0
1, 139919, Note_off_c, 1, 50, 0
1, 139920, Note_on_c, 1, 69, 127
1, 139920, Note_on_c, 1, 64, 127
1, 139920, Note_on_c, 1, 61, 127
1, 139920, Note_on_c, 1, 49, 127
1, 139920, Note_on_c, 1, 73, 127
1, 139935, Note_on_c, 1, 68, 127
1, 139949, Note_off_c, 1, 68, 0
1, 139950, Note_on_c, 1, 66, 127
1, 139964, Note_off_c, 1, 66, 0
1, 139979, Note_off_c, 1, 69, 0
1, 139979, Note_off_c, 1, 64, 0
1, 139979, Note_off_c, 1, 61, 0
1, 139979, Note_off_c, 1, 49, 0
1, 139979, Note_off_c, 1, 73, 0
1, 139980, Note_on_c, 1, 68, 127
1, 139980, Note_on_c, 1, 64, 127
1, 139980, Note_on_c, 1, 50, 127
1, 140009, Note_off_c, 1, 68, 0
1, 140039, Note_off_c, 1, 64, 0
1, 140039, Note_off_c, 1, 50, 0
1, 140040, Note_on_c, 1, 66, 127
1, 140040, Note_on_c, 1, 71, 127
1, 140040, Note_on_c, 1, 64, 127
1, 140040, Note_on_c, 1, 40, 127
1, 140069, Note_off_c, 1, 66, 0
1, 140070, Note_on_c, 1, 68, 127
1, 140099, Note_off_c, 1, 71, 0
1, 140099, Note_off_c, 1, 64, 0
1, 140099, Note_off_c, 1, 40, 0
1, 140099, Note_off_c, 1, 68, 0
1, 140100, Note_on_c, 1, 69, 127
1, 140100, Note_on_c, 1, 64, 127
1, 140100, Note_on_c, 1, 62, 127
1, 140100, Note_on_c, 1, 44, 127
1, 140129, Note_off_c, 1, 69, 0
1, 140130, Note_on_c, 1, 71, 127
1, 140159, Note_off_c, 1, 64, 0
1, 140159, Note_off_c, 1, 62, 0
1, 140159, Note_off_c, 1, 44, 0
1, 140159, Note_off_c, 1, 71, 0
1, 140160, Note_on_c, 1, 73, 127
1, 140160, Note_on_c, 1, 45, 127
1, 140190, Note_on_c, 1, 74, 127
1, 140204, Note_off_c, 1, 74, 0
1, 140205, Note_on_c, 1, 76, 127
1, 140219, Note_off_c, 1, 73, 0
1, 140219, Note_off_c, 1, 45, 0
1, 140219, Note_off_c, 1, 76, 0
1, 140220, Note_on_c, 1, 74, 127
1, 140220, Note_on_c, 1, 66, 127
1, 140220, Note_on_c, 1, 57, 127
1, 140220, Note_on_c, 1, 38, 127
1, 140220, Note_on_c, 1, 69, 127
1, 140250, Note_on_c, 1, 73, 127
1, 140279, Note_off_c, 1, 74, 0
1, 140279, Note_off_c, 1, 66, 0
1, 140279, Note_off_c, 1, 57, 0
1, 140279, Note_off_c, 1, 38, 0
1, 140279, Note_off_c, 1, 69, 0
1, 140279, Note_off_c, 1, 73, 0
1, 140280, Note_on_c, 1, 71, 127
1, 140280, Note_on_c, 1, 68, 127
1, 140280, Note_on_c, 1, 64, 127
1, 140280, Note_on_c, 1, 40, 127
1, 140290, Note_on_c, 1, 73, 127
1, 140299, Note_off_c, 1, 73, 0
1, 140339, Note_off_c, 1, 71, 0
1, 140339, Note_off_c, 1, 68, 0
1, 140339, Note_off_c, 1, 64, 0
1, 140339, Note_off_c, 1, 40, 0
1, 140340, Note_on_c, 1, 69, 127
1, 140340, Note_on_c, 1, 64, 127
1, 140340, Note_on_c, 1, 61, 127
1, 140340, Note_on_c, 1, 45, 127
1, 140340, Note_on_c, 1, 73, 127
1, 140370, Note_on_c, 1, 71, 127
1, 140384, Note_off_c, 1, 71, 0
1, 140400, Note_on_c, 1, 74, 127
1, 140414, Note_off_c, 1, 74, 0
1, 140415, Note_on_c, 1, 76, 127
1, 140429, Note_off_c, 1, 76, 0
1, 140430, Note_on_c, 1, 78, 127
1, 140444, Note_off_c, 1, 78, 0
1, 140445, Note_on_c, 1, 80, 127
1, 140459, Note_off_c, 1, 45, 0
1, 140459, Note_off_c, 1, 73, 0
1, 140459, Note_off_c, 1, 80, 0
1, 140460, Note_on_c, 1, 81, 127
1, 140519, Note_off_c, 1, 64, 0
1, 140519, Note_off_c, 1, 61, 0
1, 140519, Note_off_c, 1, 81, 0
1, 140520, Note_off_c, 1, 69, 0
1, 140550, Note_on_c, 1, 49, 127
1, 140579, Note_off_c, 1, 49, 0
1, 140610, Note_on_c, 1, 52, 127
1, 140639, Note_off_c, 1, 52, 0
1, 140670, Note_on_c, 1, 57, 127
1, 140699, Note_off_c, 1, 57, 0
1, 140730, Note_on_c, 1, 66, 127
1, 140759, Note_off_c, 1, 66, 0
1, 140760, Note_on_c, 1, 68, 127
1, 140789, Note_off_c, 1, 68, 0
1, 140910, Note_on_c, 1, 56, 127
1, 140939, Note_off_c, 1, 56, 0
1, 140970, Note_on_c, 1, 54, 127
1, 140999, Note_off_c, 1, 54, 0
1, 141270, Note_on_c, 1, 40, 127
1, 141299, Note_off_c, 1, 40, 0
1, 141480, Note_on_c, 1, 44, 127
1, 141539, Note_off_c, 1, 44, 0
1, 141630, Note_on_c, 1, 47, 127
1, 141659, Note_off_c, 1, 47, 0
1, 141960, Note_on_c, 1, 76, 127
1, 141960, Note_on_c, 1, 64, 127
1, 141960, Note_on_c, 1, 73, 127
1, 141960, Note_on_c, 1, 45, 127
1, 141989, Note_off_c, 1, 45, 0
1, 141990, Note_on_c, 1, 47, 127
1, 142019, Note_off_c, 1, 47, 0
1, 142020, Note_off_c, 1, 64, 0
1, 142020, Note_on_c, 1, 69, 127
1, 142020, Note_on_c, 1, 49, 127
1, 142049, Note_off_c, 1, 49, 0
1, 142079, Note_off_c, 1, 73, 0
1, 142080, Note_off_c, 1, 69, 0
1, 142080, Note_on_c, 1, 71, 127
1, 142110, Note_on_c, 1, 44, 127
1, 142139, Note_off_c, 1, 44, 0
1, 142140, Note_off_c, 1, 71, 0
1, 142290, Note_on_c, 1, 42, 127
1, 142319, Note_off_c, 1, 42, 0
1, 142380, Note_on_c, 1, 74, 127
1, 142439, Note_off_c, 1, 74, 0
1, 142710, Note_on_c, 1, 50, 127
1, 142739, Note_off_c, 1, 50, 0
1, 142890, Note_on_c, 1, 40, 127
1, 142919, Note_off_c, 1, 40, 0
1, 143040, Note_on_c, 1, 68, 127
1, 143100, Note_off_c, 1, 68, 0
1, 143220, Note_on_c, 1, 52, 127
1, 143249, Note_off_c, 1, 52, 0
1, 143310, Note_on_c, 1, 54, 127
1, 143339, Note_off_c, 1, 54, 0
1, 143340, Note_off_c, 1, 76, 0
1, 143370, Note_on_c, 1, 50, 127
1, 143399, Note_off_c, 1, 50, 0
1, 143400, Note_on_c, 1, 69, 127
1, 143400, Note_on_c, 1, 57, 127
1, 143400, Note_on_c, 1, 76, 127
1, 143400, Note_on_c, 1, 49, 127
1, 143419, Note_off_c, 1, 69, 0
1, 143420, Note_on_c, 1, 71, 127
1, 143429, Note_off_c, 1, 49, 0
1, 143430, Note_on_c, 1, 47, 127
1, 143439, Note_off_c, 1, 71, 0
1, 143440, Note_on_c, 1, 73, 127
1, 143459, Note_off_c, 1, 76, 0
1, 143459, Note_off_c, 1, 47, 0
1, 143459, Note_off_c, 1, 73, 0
1, 143460, Note_on_c, 1, 79, 127
1, 143460, Note_on_c, 1, 74, 127
1, 143490, Note_on_c, 1, 45, 127
1, 143519, Note_off_c, 1, 74, 0
1, 143519, Note_off_c, 1, 45, 0
1, 143550, Note_on_c, 1, 50, 127
1, 143579, Note_off_c, 1, 50, 0
1, 143600, Note_off_c, 1, 79, 0
1, 143600, Note_on_c, 1, 81, 127
1, 143619, Note_off_c, 1, 81, 0
1, 143640, Note_on_c, 1, 78, 127
1, 143640, Note_on_c, 1, 38, 127
1, 143659, Note_off_c, 1, 78, 0
1, 143699, Note_off_c, 1, 38, 0
1, 143790, Note_on_c, 1, 52, 127
1, 143819, Note_off_c, 1, 52, 0
1, 144120, Note_on_c, 1, 64, 127
1, 144150, Note_on_c, 1, 61, 127
1, 144179, Note_off_c, 1, 64, 0
1, 144179, Note_off_c, 1, 61, 0
1, 144270, Note_on_c, 1, 54, 127
1, 144299, Note_off_c, 1, 54, 0
1, 144360, Note_on_c, 1, 66, 127
1, 144389, Note_off_c, 1, 66, 0
1, 144390, Note_on_c, 1, 68, 127
1, 144419, Note_off_c, 1, 68, 0
1, 144540, Note_off_c, 1, 57, 0
1, 144540, Note_on_c, 1, 59, 127
1, 144599, Note_off_c, 1, 59, 0
1, 144600, Note_on_c, 1, 56, 127
1, 144659, Note_off_c, 1, 56, 0
1, 144820, Note_on_c, 1, 80, 127
1, 144840, Note_off_c, 1, 80, 0
1, 144870, Note_on_c, 1, 43, 127
1, 144899, Note_off_c, 1, 43, 0
1, 144900, Note_on_c, 1, 42, 127
1, 144929, Note_off_c, 1, 42, 0
1, 144930, Note_on_c, 1, 40, 127
1, 144959, Note_off_c, 1, 40, 0
1, 145110, Note_on_c, 1, 44, 127
1, 145139, Note_off_c, 1, 44, 0
1, 145980, Note_on_c, 1, 78, 127
1, 145980, Note_on_c, 1, 74, 127
1, 145980, Note_on_c, 1, 71, 127
1, 145980, Note_on_c, 1, 50, 127
1, 145999, Note_off_c, 1, 78, 0
1, 146000, Note_on_c, 1, 76, 127
1, 146019, Note_off_c, 1, 76, 0
1, 146039, Note_off_c, 1, 74, 0
1, 146039, Note_off_c, 1, 71, 0
1, 146039, Note_off_c, 1, 50, 0
1, 146040, Note_on_c, 1, 74, 127
1, 146040, Note_on_c, 1, 71, 127
1, 146040, Note_on_c, 1, 68, 127
1, 146040, Note_on_c, 1, 52, 127
1, 146059, Note_off_c, 1, 74, 0
1, 146060, Note_on_c, 1, 73, 127
1, 146079, Note_off_c, 1, 73, 0
1, 146099, Note_off_c, 1, 71, 0
1, 146099, Note_off_c, 1, 68, 0
1, 146099, Note_off_c, 1, 52, 0
1, 146100, Note_on_c, 1, 73, 127
1, 146100, Note_on_c, 1, 69, 127
1, 146100, Note_on_c, 1, 57, 127
1, 146119, Note_off_c, 1, 73, 0
1, 146159, Note_off_c, 1, 57, 0
1, 146160, Note_on_c, 1, 76, 127
1, 146160, Note_on_c, 1, 52, 127
1, 146179, Note_off_c, 1, 76, 0
1, 146219, Note_off_c, 1, 52, 0
1, 146220, Note_on_c, 1, 81, 127
1, 146220, Note_on_c, 1, 49, 127
1, 146239, Note_off_c, 1, 81, 0
1, 146279, Note_off_c, 1, 69, 0
1, 146279, Note_off_c, 1, 49, 0
1, 146280, Note_on_c, 1, 69, 127
1, 146280, Note_on_c, 1, 64, 127
1, 146280, Note_on_c, 1, 61, 127
1, 146280, Note_on_c, 1, 45, 127
1, 146299, Note_off_c, 1, 69, 0
1, 146300, Note_on_c, 1, 73, 127
1, 146310, Note_off_c, 1, 64, 0
1, 146310, Note_off_c, 1, 61, 0
1, 146319, Note_off_c, 1, 73, 0
1, 146320, Note_on_c, 1, 76, 127
1, 146339, Note_off_c, 1, 45, 0
1, 146339, Note_off_c, 1, 76, 0
1, 146340, Note_on_c, 1, 81, 127
1, 146340, Note_on_c, 1, 69, 127
1, 146359, Note_off_c, 1, 81, 0
1, 146360, Note_on_c, 1, 76, 127
1, 146369, Note_off_c, 1, 69, 0
1, 146379, Note_off_c, 1, 76, 0
1, 146380, Note_on_c, 1, 81, 127
1, 146399, Note_off_c, 1, 81, 0
1, 146400, Note_on_c, 1, 83, 127
1, 146400, Note_on_c, 1, 71, 127
1, 146400, Note_on_c, 1, 64, 127
1, 146400, Note_on_c, 1, 44, 127
1, 146419, Note_off_c, 1, 83, 0
1, 146420, Note_on_c, 1, 76, 127
1, 146430, Note_off_c, 1, 71, 0
1, 146430, Note_off_c, 1, 64, 0
1, 146439, Note_off_c, 1, 76, 0
1, 146459, Note_off_c, 1, 44, 0
1, 146460, Note_on_c, 1, 85, 127
1, 146460, Note_on_c, 1, 73, 127
1, 146460, Note_on_c, 1, 64, 127
1, 146460, Note_on_c, 1, 45, 127
1, 146479, Note_off_c, 1, 85, 0
1, 146480, Note_on_c, 1, 76, 127
1, 146490, Note_off_c, 1, 73, 0
1, 146490, Note_off_c, 1, 64, 0
1, 146499, Note_off_c, 1, 76, 0
1, 146500, Note_on_c, 1, 74, 127
1, 146519, Note_off_c, 1, 45, 0
1, 146519, Note_off_c, 1, 74, 0
1, 146520, Note_on_c, 1, 73, 127
1, 146540, Note_on_c, 1, 71, 127
1, 146549, Note_off_c, 1, 73, 0
1, 146559, Note_off_c, 1, 71, 0
1, 146560, Note_on_c, 1, 69, 127
1, 146579, Note_off_c, 1, 69, 0
1, 146580, Note_on_c, 1, 71, 127
1, 146580, Note_on_c, 1, 68, 127
1, 146580, Note_on_c, 1, 52, 127
1, 146600, Note_on_c, 1, 64, 127
1, 146610, Note_off_c, 1, 71, 0
1, 146610, Note_off_c, 1, 68, 0
1, 146619, Note_off_c, 1, 64, 0
1, 146639, Note_off_c, 1, 52, 0
1, 146640, Note_on_c, 1, 71, 127
1, 146640, Note_on_c, 1, 64, 127
1, 146640, Note_on_c, 1, 68, 127
1, 146640, Note_on_c, 1, 50, 127
1, 146659, Note_off_c, 1, 71, 0
1, 146660, Note_on_c, 1, 76, 127
1, 146670, Note_off_c, 1, 64, 0
1, 146670, Note_off_c, 1, 68, 0
1, 146679, Note_off_c, 1, 76, 0
1, 146680, Note_on_c, 1, 80, 127
1, 146699, Note_off_c, 1, 50, 0
1, 146699, Note_off_c, 1, 80, 0
1, 146700, Note_on_c, 1, 83, 127
1, 146700, Note_on_c, 1, 71, 127
1, 146719, Note_off_c, 1, 83, 0
1, 146720, Note_on_c, 1, 76, 127
1, 146729, Note_off_c, 1, 71, 0
1, 146739, Note_off_c, 1, 76, 0
1, 146740, Note_on_c, 1, 83, 127
1, 146759, Note_off_c, 1, 83, 0
1, 146760, Note_on_c, 1, 85, 127
1, 146760, Note_on_c, 1, 73, 127
1, 146760, Note_on_c, 1, 69, 127
1, 146760, Note_on_c, 1, 49, 127
1, 146779, Note_off_c, 1, 85, 0
1, 146780, Note_on_c, 1, 81, 127
1, 146790, Note_off_c, 1, 73, 0
1, 146790, Note_off_c, 1, 69, 0
1, 146799, Note_off_c, 1, 81, 0
1, 146819, Note_off_c, 1, 49, 0
1, 146820, Note_on_c, 1, 86, 127
1, 146820, Note_on_c, 1, 74, 127
1, 146820, Note_on_c, 1, 68, 127
1, 146820, Note_on_c, 1, 47, 127
1, 146839, Note_off_c, 1, 86, 0
1, 146840, Note_on_c, 1, 78, 127
1, 146850, Note_off_c, 1, 74, 0
1, 146850, Note_off_c, 1, 68, 0
1, 146859, Note_off_c, 1, 78, 0
1, 146860, Note_on_c, 1, 76, 127
1, 146879, Note_off_c, 1, 47, 0
1, 146879, Note_off_c, 1, 76, 0
1, 146880, Note_on_c, 1, 74, 127
1, 146900, Note_on_c, 1, 73, 127
1, 146910, Note_off_c, 1, 74, 0
1, 146919, Note_off_c, 1, 73, 0
1, 146920, Note_on_c, 1, 71, 127
1, 146939, Note_off_c, 1, 71, 0
1, 146940, Note_on_c, 1, 73, 127
1, 146940, Note_on_c, 1, 64, 127
1, 146940, Note_on_c, 1, 45, 127
1, 146970, Note_off_c, 1, 73, 0
1, 146979, Note_off_c, 1, 64, 0
1, 146980, Note_on_c, 1, 69, 127
1, 146999, Note_off_c, 1, 45, 0
1, 146999, Note_off_c, 1, 69, 0
1, 147000, Note_on_c, 1, 73, 127
1, 147000, Note_on_c, 1, 76, 127
1, 147000, Note_on_c, 1, 57, 127
1, 147030, Note_off_c, 1, 73, 0
1, 147039, Note_off_c, 1, 76, 0
1, 147040, Note_on_c, 1, 81, 127
1, 147059, Note_off_c, 1, 57, 0
1, 147059, Note_off_c, 1, 81, 0
1, 147060, Note_on_c, 1, 85, 127
1, 147060, Note_on_c, 1, 76, 127
1, 147079, Note_off_c, 1, 85, 0
1, 147080, Note_on_c, 1, 69, 127
1, 147090, Note_off_c, 1, 76, 0
1, 147099, Note_off_c, 1, 69, 0
1, 147100, Note_on_c, 1, 73, 127
1, 147119, Note_off_c, 1, 73, 0
1, 147120, Note_on_c, 1, 76, 127
1, 147120, Note_on_c, 1, 73, 127
1, 147120, Note_on_c, 1, 56, 127
1, 147150, Note_off_c, 1, 76, 0
1, 147159, Note_off_c, 1, 73, 0
1, 147179, Note_off_c, 1, 56, 0
1, 147180, Note_on_c, 1, 81, 127
1, 147180, Note_on_c, 1, 76, 127
1, 147180, Note_on_c, 1, 69, 127
1, 147180, Note_on_c, 1, 54, 127
1, 147199, Note_off_c, 1, 81, 0
1, 147210, Note_off_c, 1, 69, 0
1, 147219, Note_off_c, 1, 76, 0
1, 147220, Note_on_c, 1, 73, 127
1, 147239, Note_off_c, 1, 54, 0
1, 147239, Note_off_c, 1, 73, 0
1, 147240, Note_on_c, 1, 69, 127
1, 147240, Note_on_c, 1, 74, 127
1, 147259, Note_off_c, 1, 69, 0
1, 147270, Note_on_c, 1, 73, 127
1, 147279, Note_off_c, 1, 74, 0
1, 147299, Note_off_c, 1, 73, 0
1, 147300, Note_on_c, 1, 71, 127
1, 147300, Note_on_c, 1, 66, 127
1, 147300, Note_on_c, 1, 50, 127
1, 147320, Note_on_c, 1, 73, 127
1, 147329, Note_off_c, 1, 71, 0
1, 147330, Note_off_c, 1, 66, 0
1, 147330, Note_on_c, 1, 69, 127
1, 147339, Note_off_c, 1, 73, 0
1, 147359, Note_off_c, 1, 50, 0
1, 147359, Note_off_c, 1, 69, 0
1, 147360, Note_on_c, 1, 68, 127
1, 147360, Note_on_c, 1, 71, 127
1, 147360, Note_on_c, 1, 52, 127
1, 147380, Note_on_c, 1, 69, 127
1, 147390, Note_off_c, 1, 68, 0
1, 147390, Note_off_c, 1, 71, 0
1, 147399, Note_off_c, 1, 69, 0
1, 147400, Note_on_c, 1, 66, 127
1, 147419, Note_off_c, 1, 52, 0
1, 147419, Note_off_c, 1, 66, 0
1, 147420, Note_on_c, 1, 64, 127
1, 147420, Note_on_c, 1, 74, 127
1, 147439, Note_off_c, 1, 64, 0
1, 147440, Note_on_c, 1, 68, 127
1, 147449, Note_off_c, 1, 74, 0
1, 147459, Note_off_c, 1, 68, 0
1, 147460, Note_on_c, 1, 71, 127
1, 147479, Note_off_c, 1, 71, 0
1, 147480, Note_on_c, 1, 76, 127
1, 147480, Note_on_c, 1, 73, 127
1, 147480, Note_on_c, 1, 69, 127
1, 147480, Note_on_c, 1, 45, 127
1, 147499, Note_off_c, 1, 76, 0
1, 147500, Note_on_c, 1, 74, 127
1, 147510, Note_off_c, 1, 73, 0
1, 147510, Note_off_c, 1, 69, 0
1, 147519, Note_off_c, 1, 74, 0
1, 147539, Note_off_c, 1, 45, 0
1, 147540, Note_on_c, 1, 71, 127
1, 147540, Note_on_c, 1, 68, 127
1, 147540, Note_on_c, 1, 52, 127
1, 147560, Note_on_c, 1, 76, 127
1, 147579, Note_off_c, 1, 76, 0
1, 147629, Note_off_c, 1, 52, 0
1, 147630, Note_on_c, 1, 50, 127
1, 147659, Note_off_c, 1, 68, 0
1, 147659, Note_off_c, 1, 50, 0
1, 147660, Note_off_c, 1, 71, 0
1, 147660, Note_on_c, 1, 64, 127
1, 147660, Note_on_c, 1, 49, 127
1, 147689, Note_off_c, 1, 49, 0
1, 147690, Note_on_c, 1, 47, 127
1, 147719, Note_off_c, 1, 47, 0
1, 147720, Note_on_c, 1, 61, 127
1, 147720, Note_on_c, 1, 57, 127
1, 147720, Note_on_c, 1, 45, 127
1, 147779, Note_off_c, 1, 61, 0
1, 147779, Note_off_c, 1, 57, 0
1, 147779, Note_off_c, 1, 45, 0
1, 147780, Note_on_c, 1, 69, 127
1, 147839, Note_off_c, 1, 64, 0
1, 147840, Note_off_c, 1, 69, 0
1, 147930, Note_on_c, 1, 73, 127
1, 148020, Note_off_c, 1, 73, 0
1, 148080, Note_on_c, 1, 56, 127
1, 148139, Note_off_c, 1, 56, 0
1, 148140, Note_on_c, 1, 62, 127
1, 148199, Note_off_c, 1, 62, 0
1, 148260, Note_on_c, 1, 59, 127
1, 148290, Note_on_c, 1, 74, 127
1, 148319, Note_off_c, 1, 59, 0
1, 148380, Note_off_c, 1, 74, 0
1, 148470, Note_on_c, 1, 66, 127
1, 148499, Note_off_c, 1, 66, 0
1, 148500, Note_on_c, 1, 76, 127
1, 148500, Note_on_c, 1, 68, 127
1, 148500, Note_on_c, 1, 64, 127
1, 148529, Note_off_c, 1, 68, 0
1, 148529, Note_off_c, 1, 64, 0
1, 148530, Note_on_c, 1, 66, 127
1, 148530, Note_on_c, 1, 62, 127
1, 148559, Note_off_c, 1, 76, 0
1, 148559, Note_off_c, 1, 66, 0
1, 148559, Note_off_c, 1, 62, 0
1, 148560, Note_on_c, 1, 76, 127
1, 148560, Note_on_c, 1, 64, 127
1, 148560, Note_on_c, 1, 61, 127
1, 148589, Note_off_c, 1, 64, 0
1, 148589, Note_off_c, 1, 61, 0
1, 148590, Note_on_c, 1, 62, 127
1, 148590, Note_on_c, 1, 59, 127
1, 148619, Note_off_c, 1, 76, 0
1, 148619, Note_off_c, 1, 62, 0
1, 148619, Note_off_c, 1, 59, 0
1, 148620, Note_on_c, 1, 76, 127
1, 148620, Note_on_c, 1, 61, 127
1, 148620, Note_on_c, 1, 57, 127
1, 148650, Note_on_c, 1, 56, 127
1, 148679, Note_off_c, 1, 76, 0
1, 148679, Note_off_c, 1, 61, 0
1, 148679, Note_off_c, 1, 57, 0
1, 148679, Note_off_c, 1, 56, 0
1, 148680, Note_on_c, 1, 74, 127
1, 148680, Note_on_c, 1, 62, 127
1, 148680, Note_on_c, 1, 57, 127
1, 148680, Note_on_c, 1, 54, 127
1, 148709, Note_off_c, 1, 74, 0
1, 148709, Note_off_c, 1, 54, 0
1, 148710, Note_on_c, 1, 73, 127
1, 148710, Note_on_c, 1, 52, 127
1, 148739, Note_off_c, 1, 62, 0
1, 148739, Note_off_c, 1, 57, 0
1, 148739, Note_off_c, 1, 73, 0
1, 148739, Note_off_c, 1, 52, 0
1, 148740, Note_on_c, 1, 71, 127
1, 148740, Note_on_c, 1, 66, 127
1, 148740, Note_on_c, 1, 62, 127
1, 148740, Note_on_c, 1, 50, 127
1, 148769, Note_off_c, 1, 71, 0
1, 148769, Note_off_c, 1, 66, 0
1, 148769, Note_off_c, 1, 62, 0
1, 148770, Note_on_c, 1, 69, 127
1, 148770, Note_on_c, 1, 64, 127
1, 148770, Note_on_c, 1, 61, 127
1, 148799, Note_off_c, 1, 50, 0
1, 148799, Note_off_c, 1, 69, 0
1, 148799, Note_off_c, 1, 64, 0
1, 148799, Note_off_c, 1, 61, 0
1, 148800, Note_on_c, 1, 68, 127
1, 148800, Note_on_c, 1, 62, 127
1, 148800, Note_on_c, 1, 59, 127
1, 148829, Note_off_c, 1, 59, 0
1, 148830, Note_on_c, 1, 57, 127
1, 148859, Note_off_c, 1, 68, 0
1, 148859, Note_off_c, 1, 62, 0
1, 148859, Note_off_c, 1, 57, 0
1, 148860, Note_on_c, 1, 74, 127
1, 148860, Note_on_c, 1, 71, 127
1, 148860, Note_on_c, 1, 56, 127
1, 148860, Note_on_c, 1, 40, 127
1, 148889, Note_off_c, 1, 56, 0
1, 148890, Note_on_c, 1, 54, 127
1, 148919, Note_off_c, 1, 74, 0
1, 148919, Note_off_c, 1, 71, 0
1, 148919, Note_off_c, 1, 40, 0
1, 148919, Note_off_c, 1, 54, 0
1, 148920, Note_on_c, 1, 73, 127
1, 148920, Note_on_c, 1, 69, 127
1, 148920, Note_on_c, 1, 52, 127
1, 148920, Note_on_c, 1, 45, 127
1, 148949, Note_off_c, 1, 52, 0
1, 148950, Note_on_c, 1, 51, 127
1, 148979, Note_off_c, 1, 73, 0
1, 148979, Note_off_c, 1, 69, 0
1, 148979, Note_off_c, 1, 45, 0
1, 148979, Note_off_c, 1, 51, 0
1, 148980, Note_on_c, 1, 71, 127
1, 148980, Note_on_c, 1, 68, 127
1, 148980, Note_on_c, 1, 52, 127
1, 149040, Note_on_c, 1, 50, 127
1, 149069, Note_off_c, 1, 50, 0
1, 149070, Note_on_c, 1, 49, 127
1, 149080, Note_on_c, 1, 69, 127
1, 149099, Note_off_c, 1, 68, 0
1, 149099, Note_off_c, 1, 52, 0
1, 149099, Note_off_c, 1, 49, 0
1, 149100, Note_off_c, 1, 69, 0
1, 149100, Note_on_c, 1, 47, 127
1, 149119, Note_off_c, 1, 71, 0
1, 149120, Note_on_c, 1, 73, 127
1, 149129, Note_off_c, 1, 47, 0
1, 149130, Note_on_c, 1, 45, 127
1, 149139, Note_off_c, 1, 73, 0
1, 149140, Note_on_c, 1, 74, 127
1, 149159, Note_off_c, 1, 45, 0
1, 149159, Note_off_c, 1, 74, 0
1, 149160, Note_on_c, 1, 76, 127
1, 149160, Note_on_c, 1, 71, 127
1, 149160, Note_on_c, 1, 44, 127
1, 149180, Note_on_c, 1, 78, 127
1, 149190, Note_off_c, 1, 76, 0
1, 149190, Note_off_c, 1, 71, 0
1, 149199, Note_off_c, 1, 78, 0
1, 149219, Note_off_c, 1, 44, 0
1, 149220, Note_on_c, 1, 74, 127
1, 149240, Note_on_c, 1, 76, 127
1, 149250, Note_off_c, 1, 74, 0
1, 149259, Note_off_c, 1, 76, 0
1, 149260, Note_on_c, 1, 74, 127
1, 149279, Note_off_c, 1, 74, 0
1, 149280, Note_on_c, 1, 73, 127
1, 149280, Note_on_c, 1, 66, 127
1, 149280, Note_on_c, 1, 46, 127
1, 149300, Note_on_c, 1, 74, 127
1, 149310, Note_off_c, 1, 73, 0
1, 149310, Note_off_c, 1, 66, 0
1, 149319, Note_off_c, 1, 74, 0
1, 149339, Note_off_c, 1, 46, 0
1, 149340, Note_on_c, 1, 74, 127
1, 149340, Note_on_c, 1, 66, 127
1, 149340, Note_on_c, 1, 47, 127
1, 149360, Note_on_c, 1, 71, 127
1, 149370, Note_off_c, 1, 74, 0
1, 149370, Note_off_c, 1, 66, 0
1, 149379, Note_off_c, 1, 71, 0
1, 149380, Note_on_c, 1, 73, 127
1, 149399, Note_off_c, 1, 47, 0
1, 149399, Note_off_c, 1, 73, 0
1, 149400, Note_on_c, 1, 74, 127
1, 149400, Note_on_c, 1, 78, 127
1, 149419, Note_off_c, 1, 74, 0
1, 149420, Note_on_c, 1, 76, 127
1, 149430, Note_off_c, 1, 78, 0
1, 149439, Note_off_c, 1, 76, 0
1, 149440, Note_on_c, 1, 78, 127
1, 149459, Note_off_c, 1, 78, 0
1, 149460, Note_on_c, 1, 79, 127
1, 149460, Note_on_c, 1, 76, 127
1, 149460, Note_on_c, 1, 70, 127
1, 149460, Note_on_c, 1, 42, 127
1, 149479, Note_off_c, 1, 79, 0
1, 149480, Note_on_c, 1, 78, 127
1, 149490, Note_off_c, 1, 76, 0
1, 149490, Note_off_c, 1, 70, 0
1, 149499, Note_off_c, 1, 78, 0
1, 149519, Note_off_c, 1, 42, 0
1, 149520, Note_on_c, 1, 74, 127
1, 149520, Note_on_c, 1, 71, 127
1, 149520, Note_on_c, 1, 47, 127
1, 149540, Note_on_c, 1, 76, 127
1, 149550, Note_off_c, 1, 74, 0
1, 149550, Note_off_c, 1, 71, 0
1, 149559, Note_off_c, 1, 76, 0
1, 149579, Note_off_c, 1, 47, 0
1, 149580, Note_on_c, 1, 73, 127
1, 149600, Note_on_c, 1, 74, 127
1, 149610, Note_off_c, 1, 73, 0
1, 149619, Note_off_c, 1, 74, 0
1, 149620, Note_on_c, 1, 73, 127
1, 149639, Note_off_c, 1, 73, 0
1, 149640, Note_on_c, 1, 71, 127
1, 149640, Note_on_c, 1, 64, 127
1, 149640, Note_on_c, 1, 44, 127
1, 149660, Note_on_c, 1, 73, 127
1, 149670, Note_off_c, 1, 71, 0
1, 149670, Note_off_c, 1, 64, 0
1, 149679, Note_off_c, 1, 73, 0
1, 149699, Note_off_c, 1, 44, 0
1, 149700, Note_on_c, 1, 73, 127
1, 149700, Note_on_c, 1, 64, 127
1, 149700, Note_on_c, 1, 45, 127
1, 149720, Note_on_c, 1, 69, 127
1, 149730, Note_off_c, 1, 73, 0
1, 149730, Note_off_c, 1, 64, 0
1, 149739, Note_off_c, 1, 69, 0
1, 149740, Note_on_c, 1, 71, 127
1, 149759, Note_off_c, 1, 45, 0
1, 149759, Note_off_c, 1, 71, 0
1, 149760, Note_on_c, 1, 73, 127
1, 149760, Note_on_c, 1, 76, 127
1, 149779, Note_off_c, 1, 73, 0
1, 149780, Note_on_c, 1, 74, 127
1, 149790, Note_off_c, 1, 76, 0
1, 149799, Note_off_c, 1, 74, 0
1, 149800, Note_on_c, 1, 76, 127
1, 149819, Note_off_c, 1, 76, 0
1, 149820, Note_on_c, 1, 78, 127
1, 149820, Note_on_c, 1, 74, 127
1, 149820, Note_on_c, 1, 68, 127
1, 149820, Note_on_c, 1, 40, 127
1, 149839, Note_off_c, 1, 78, 0
1, 149840, Note_on_c, 1, 76, 127
1, 149850, Note_off_c, 1, 74, 0
1, 149850, Note_off_c, 1, 68, 0
1, 149859, Note_off_c, 1, 76, 0
1, 149879, Note_off_c, 1, 40, 0
1, 149880, Note_on_c, 1, 73, 127
1, 149880, Note_on_c, 1, 64, 127
1, 149880, Note_on_c, 1, 69, 127
1, 149880, Note_on_c, 1, 45, 127
1, 149899, Note_off_c, 1, 73, 0
1, 149900, Note_on_c, 1, 74, 127
1, 149910, Note_off_c, 1, 64, 0
1, 149910, Note_off_c, 1, 69, 0
1, 149919, Note_off_c, 1, 74, 0
1, 149939, Note_off_c, 1, 45, 0
1, 149940, Note_on_c, 1, 71, 127
1, 149940, Note_on_c, 1, 64, 127
1, 149959, Note_off_c, 1, 71, 0
1, 149960, Note_on_c, 1, 73, 127
1, 149970, Note_off_c, 1, 64, 0
1, 149979, Note_off_c, 1, 73, 0
1, 149980, Note_on_c, 1, 71, 127
1, 149999, Note_off_c, 1, 71, 0
1, 150000, Note_on_c, 1, 69, 127
1, 150000, Note_on_c, 1, 64, 127
1, 150000, Note_on_c, 1, 61, 127
1, 150000, Note_on_c, 1, 49, 127
1, 150019, Note_off_c, 1, 69, 0
1, 150020, Note_on_c, 1, 71, 127
1, 150030, Note_off_c, 1, 64, 0
1, 150030, Note_off_c, 1, 61, 0
1, 150039, Note_off_c, 1, 71, 0
1, 150059, Note_off_c, 1, 49, 0
1, 150060, Note_on_c, 1, 68, 127
1, 150060, Note_on_c, 1, 64, 127
1, 150060, Note_on_c, 1, 59, 127
1, 150060, Note_on_c, 1, 52, 127
1, 150079, Note_off_c, 1, 68, 0
1, 150080, Note_on_c, 1, 66, 127
1, 150090, Note_off_c, 1, 64, 0
1, 150090, Note_off_c, 1, 59, 0
1, 150099, Note_off_c, 1, 66, 0
1, 150119, Note_off_c, 1, 52, 0
1, 150120, Note_on_c, 1, 69, 127
1, 150120, Note_on_c, 1, 66, 127
1, 150139, Note_off_c, 1, 69, 0
1, 150140, Note_on_c, 1, 71, 127
1, 150149, Note_off_c, 1, 66, 0
1, 150150, Note_on_c, 1, 68, 127
1, 150159, Note_off_c, 1, 71, 0
1, 150160, Note_on_c, 1, 73, 127
1, 150179, Note_off_c, 1, 68, 0
1, 150179, Note_off_c, 1, 73, 0
1, 150180, Note_on_c, 1, 74, 127
1, 150180, Note_on_c, 1, 69, 127
1, 150180, Note_on_c, 1, 66, 127
1, 150180, Note_on_c, 1, 54, 127
1, 150199, Note_off_c, 1, 74, 0
1, 150200, Note_on_c, 1, 73, 127
1, 150209, Note_off_c, 1, 69, 0
1, 150210, Note_off_c, 1, 66, 0
1, 150210, Note_on_c, 1, 71, 127
1, 150219, Note_off_c, 1, 73, 0
1, 150239, Note_off_c, 1, 54, 0
1, 150239, Note_off_c, 1, 71, 0
1, 150240, Note_on_c, 1, 73, 127
1, 150240, Note_on_c, 1, 69, 127
1, 150240, Note_on_c, 1, 50, 127
1, 150260, Note_on_c, 1, 71, 127
1, 150270, Note_off_c, 1, 73, 0
1, 150270, Note_off_c, 1, 69, 0
1, 150279, Note_off_c, 1, 71, 0
1, 150299, Note_off_c, 1, 50, 0
1, 150300, Note_on_c, 1, 68, 127
1, 150300, Note_on_c, 1, 74, 127
1, 150319, Note_off_c, 1, 68, 0
1, 150320, Note_on_c, 1, 64, 127
1, 150329, Note_off_c, 1, 74, 0
1, 150339, Note_off_c, 1, 64, 0
1, 150340, Note_on_c, 1, 68, 127
1, 150359, Note_off_c, 1, 68, 0
1, 150360, Note_on_c, 1, 71, 127
1, 150360, Note_on_c, 1, 68, 127
1, 150360, Note_on_c, 1, 64, 127
1, 150360, Note_on_c, 1, 52, 127
1, 150380, Note_on_c, 1, 74, 127
1, 150389, Note_off_c, 1, 71, 0
1, 150390, Note_off_c, 1, 68, 0
1, 150390, Note_off_c, 1, 64, 0
1, 150399, Note_off_c, 1, 74, 0
1, 150419, Note_off_c, 1, 52, 0
1, 150420, Note_on_c, 1, 73, 127
1, 150420, Note_on_c, 1, 69, 127
1, 150420, Note_on_c, 1, 64, 127
1, 150420, Note_on_c, 1, 61, 127
1, 150420, Note_on_c, 1, 45, 127
1, 150439, Note_off_c, 1, 73, 0
1, 150480, Note_on_c, 1, 76, 127
1, 150499, Note_off_c, 1, 76, 0
1, 150500, Note_on_c, 1, 81, 127
1, 150509, Note_off_c, 1, 45, 0
1, 150510, Note_on_c, 1, 47, 127
1, 150519, Note_off_c, 1, 81, 0
1, 150539, Note_off_c, 1, 69, 0
1, 150539, Note_off_c, 1, 64, 0
1, 150539, Note_off_c, 1, 61, 0
1, 150539, Note_off_c, 1, 47, 0
1, 150540, Note_on_c, 1, 73, 127
1, 150540, Note_on_c, 1, 45, 127
1, 150559, Note_off_c, 1, 73, 0
1, 150560, Note_on_c, 1, 69, 127
1, 150569, Note_off_c, 1, 45, 0
1, 150570, Note_on_c, 1, 43, 127
1, 150579, Note_off_c, 1, 69, 0
1, 150599, Note_off_c, 1, 43, 0
1, 150600, Note_on_c, 1, 76, 127
1, 150600, Note_on_c, 1, 70, 127
1, 150600, Note_on_c, 1, 61, 127
1, 150600, Note_on_c, 1, 42, 127
1, 150659, Note_off_c, 1, 76, 0
1, 150659, Note_off_c, 1, 70, 0
1, 150659, Note_off_c, 1, 61, 0
1, 150659, Note_off_c, 1, 42, 0
1, 150660, Note_on_c, 1, 74, 127
1, 150660, Note_on_c, 1, 71, 127
1, 150660, Note_on_c, 1, 66, 127
1, 150719, Note_off_c, 1, 74, 0
1, 150719, Note_off_c, 1, 71, 0
1, 150719, Note_off_c, 1, 66, 0
1, 150720, Note_on_c, 1, 73, 127
1, 150720, Note_on_c, 1, 70, 127
1, 150720, Note_on_c, 1, 54, 127
1, 150779, Note_off_c, 1, 73, 0
1, 150779, Note_off_c, 1, 70, 0
1, 150779, Note_off_c, 1, 54, 0
1, 150780, Note_on_c, 1, 74, 127
1, 150780, Note_on_c, 1, 71, 127
1, 150780, Note_on_c, 1, 59, 127
1, 150839, Note_off_c, 1, 71, 0
1, 150839, Note_off_c, 1, 59, 0
1, 150840, Note_on_c, 1, 66, 127
1, 150840, Note_on_c, 1, 62, 127
1, 150840, Note_on_c, 1, 54, 127
1, 150869, Note_off_c, 1, 74, 0
1, 150869, Note_off_c, 1, 54, 0
1, 150870, Note_on_c, 1, 76, 127
1, 150870, Note_on_c, 1, 52, 127
1, 150884, Note_off_c, 1, 76, 0
1, 150885, Note_on_c, 1, 78, 127
1, 150899, Note_off_c, 1, 66, 0
1, 150899, Note_off_c, 1, 62, 0
1, 150899, Note_off_c, 1, 52, 0
1, 150899, Note_off_c, 1, 78, 0
1, 150900, Note_on_c, 1, 76, 127
1, 150900, Note_on_c, 1, 70, 127
1, 150900, Note_on_c, 1, 64, 127
1, 150900, Note_on_c, 1, 50, 127
1, 150929, Note_off_c, 1, 50, 0
1, 150930, Note_on_c, 1, 49, 127
1, 150959, Note_off_c, 1, 76, 0
1, 150959, Note_off_c, 1, 70, 0
1, 150959, Note_off_c, 1, 64, 0
1, 150959, Note_off_c, 1, 49, 0
1, 150960, Note_on_c, 1, 74, 127
1, 150960, Note_on_c, 1, 71, 127
1, 150960, Note_on_c, 1, 66, 127
1, 150960, Note_on_c, 1, 47, 127
1, 151019, Note_off_c, 1, 74, 0
1, 151019, Note_off_c, 1, 71, 0
1, 151019, Note_off_c, 1, 66, 0
1, 151019, Note_off_c, 1, 47, 0
1, 151020, Note_on_c, 1, 73, 127
1, 151020, Note_on_c, 1, 69, 127
1, 151020, Note_on_c, 1, 62, 127
1, 151079, Note_off_c, 1, 73, 0
1, 151079, Note_off_c, 1, 69, 0
1, 151079, Note_off_c, 1, 62, 0
1, 151080, Note_on_c, 1, 71, 127
1, 151080, Note_on_c, 1, 68, 127
1, 151080, Note_on_c, 1, 64, 127
1, 151139, Note_off_c, 1, 71, 0
1, 151139, Note_off_c, 1, 68, 0
1, 151139, Note_off_c, 1, 64, 0
1, 151140, Note_on_c, 1, 73, 127
1, 151140, Note_on_c, 1, 69, 127
1, 151140, Note_on_c, 1, 57, 127
1, 151199, Note_off_c, 1, 69, 0
1, 151199, Note_off_c, 1, 57, 0
1, 151200, Note_on_c, 1, 64, 127
1, 151200, Note_on_c, 1, 61, 127
1, 151200, Note_on_c, 1, 52, 127
1, 151229, Note_off_c, 1, 73, 0
1, 151229, Note_off_c, 1, 52, 0
1, 151230, Note_on_c, 1, 74, 127
1, 151230, Note_on_c, 1, 50, 127
1, 151244, Note_off_c, 1, 74, 0
1, 151245, Note_on_c, 1, 76, 127
1, 151259, Note_off_c, 1, 64, 0
1, 151259, Note_off_c, 1, 61, 0
1, 151259, Note_off_c, 1, 50, 0
1, 151259, Note_off_c, 1, 76, 0
1, 151260, Note_on_c, 1, 74, 127
1, 151260, Note_on_c, 1, 68, 127
1, 151260, Note_on_c, 1, 62, 127
1, 151260, Note_on_c, 1, 49, 127
1, 151289, Note_off_c, 1, 49, 0
1, 151290, Note_on_c, 1, 47, 127
1, 151319, Note_off_c, 1, 74, 0
1, 151319, Note_off_c, 1, 68, 0
1, 151319, Note_off_c, 1, 62, 0
1, 151319, Note_off_c, 1, 47, 0
1, 151320, Note_on_c, 1, 64, 127
1, 151320, Note_on_c, 1, 69, 127
1, 151320, Note_on_c, 1, 61, 127
1, 151320, Note_on_c, 1, 45, 127
1, 151349, Note_off_c, 1, 69, 0
1, 151349, Note_off_c, 1, 61, 0
1, 151350, Note_on_c, 1, 73, 127
1, 151379, Note_off_c, 1, 64, 0
1, 151379, Note_off_c, 1, 45, 0
1, 151379, Note_off_c, 1, 73, 0
1, 151380, Note_on_c, 1, 64, 127
1, 151380, Note_on_c, 1, 71, 127
1, 151380, Note_on_c, 1, 62, 127
1, 151409, Note_off_c, 1, 71, 0
1, 151409, Note_off_c, 1, 62, 0
1, 151410, Note_on_c, 1, 69, 127
1, 151410, Note_on_c, 1, 61, 127
1, 151439, Note_off_c, 1, 64, 0
1, 151439, Note_off_c, 1, 69, 0
1, 151439, Note_off_c, 1, 61, 0
1, 151440, Note_on_c, 1, 64, 127
1, 151440, Note_on_c, 1, 68, 127
1, 151440, Note_on_c, 1, 59, 127
1, 151469, Note_off_c, 1, 68, 0
1, 151469, Note_off_c, 1, 59, 0
1, 151470, Note_on_c, 1, 66, 127
1, 151470, Note_on_c, 1, 57, 127
1, 151499, Note_off_c, 1, 64, 0
1, 151499, Note_off_c, 1, 66, 0
1, 151499, Note_off_c, 1, 57, 0
1, 151500, Note_on_c, 1, 64, 127
1, 151500, Note_on_c, 1, 56, 127
1, 151530, Note_on_c, 1, 50, 127
1, 151559, Note_off_c, 1, 64, 0
1, 151559, Note_off_c, 1, 56, 0
1, 151559, Note_off_c, 1, 50, 0
1, 151560, Note_on_c, 1, 66, 127
1, 151560, Note_on_c, 1, 57, 127
1, 151560, Note_on_c, 1, 49, 127
1, 151589, Note_off_c, 1, 66, 0
1, 151589, Note_off_c, 1, 57, 0
1, 151589, Note_off_c, 1, 49, 0
1, 151590, Note_on_c, 1, 68, 127
1, 151590, Note_on_c, 1, 59, 127
1, 151590, Note_on_c, 1, 62, 127
1, 151590, Note_on_c, 1, 47, 127
1, 151619, Note_off_c, 1, 68, 0
1, 151619, Note_off_c, 1, 59, 0
1, 151619, Note_off_c, 1, 62, 0
1, 151619, Note_off_c, 1, 47, 0
1, 151620, Note_on_c, 1, 69, 127
1, 151620, Note_on_c, 1, 61, 127
1, 151620, Note_on_c, 1, 45, 127
1, 151649, Note_off_c, 1, 69, 0
1, 151649, Note_off_c, 1, 61, 0
1, 151649, Note_off_c, 1, 45, 0
1, 151650, Note_on_c, 1, 71, 127
1, 151650, Note_on_c, 1, 64, 127
1, 151650, Note_on_c, 1, 59, 127
1, 151650, Note_on_c, 1, 44, 127
1, 151679, Note_off_c, 1, 71, 0
1, 151679, Note_off_c, 1, 64, 0
1, 151679, Note_off_c, 1, 59, 0
1, 151679, Note_off_c, 1, 44, 0
1, 151680, Note_on_c, 1, 73, 127
1, 151680, Note_on_c, 1, 69, 127
1, 151680, Note_on_c, 1, 57, 127
1, 151680, Note_on_c, 1, 42, 127
1, 151738, Note_off_c, 1, 42, 0
1, 151739, Note_off_c, 1, 73, 0
1, 151739, Note_off_c, 1, 69, 0
1, 151739, Note_off_c, 1, 57, 0
1, 151740, Note_on_c, 1, 74, 127
1, 151740, Note_on_c, 1, 71, 127
1, 151740, Note_on_c, 1, 66, 127
1, 151740, Note_on_c, 1, 38, 127
1, 151798, Note_off_c, 1, 38, 0
1, 151799, Note_off_c, 1, 74, 0
1, 151799, Note_off_c, 1, 71, 0
1, 151799, Note_off_c, 1, 66, 0
1, 151800, Note_on_c, 1, 71, 127
1, 151800, Note_on_c, 1, 68, 127
1, 151800, Note_on_c, 1, 64, 127
1, 151800, Note_on_c, 1, 40, 127
1, 151858, Note_off_c, 1, 40, 0
1, 151859, Note_off_c, 1, 71, 0
1, 151859, Note_off_c, 1, 68, 0
1, 151859, Note_off_c, 1, 64, 0
1, 151860, Note_on_c, 1, 69, 127
1, 151860, Note_on_c, 1, 64, 127
1, 151860, Note_on_c, 1, 61, 127
1, 151860, Note_on_c, 1, 45, 127
1, 151979, Note_off_c, 1, 69, 0
1, 151979, Note_off_c, 1, 64, 0
1, 151979, Note_off_c, 1, 61, 0
1, 151980, Note_off_c, 1, 45, 0
1, 151980, Note_on_c, 1, 73, 127
1, 152039, Note_off_c, 1, 73, 0
1, 152040, Note_on_c, 1, 78, 127
1, 152100, Note_on_c, 1, 54, 127
1, 152158, Note_off_c, 1, 54, 0
1, 152159, Note_off_c, 1, 78, 0
1, 152160, Note_on_c, 1, 73, 127
1, 152160, Note_on_c, 1, 52, 127
1, 152218, Note_off_c, 1, 52, 0
1, 152219, Note_off_c, 1, 73, 0
1, 152220, Note_on_c, 1, 78, 127
1, 152220, Note_on_c, 1, 71, 127
1, 152220, Note_on_c, 1, 50, 127
1, 152278, Note_off_c, 1, 50, 0
1, 152279, Note_off_c, 1, 71, 0
1, 152280, Note_on_c, 1, 69, 127
1, 152280, Note_on_c, 1, 49, 127
1, 152338, Note_off_c, 1, 49, 0
1, 152339, Note_off_c, 1, 78, 0
1, 152339, Note_off_c, 1, 69, 0
1, 152340, Note_on_c, 1, 77, 127
1, 152340, Note_on_c, 1, 68, 127
1, 152340, Note_on_c, 1, 47, 127
1, 152398, Note_off_c, 1, 47, 0
1, 152399, Note_off_c, 1, 77, 0
1, 152399, Note_off_c, 1, 68, 0
1, 152400, Note_on_c, 1, 78, 127
1, 152400, Note_on_c, 1, 69, 127
1, 152400, Note_on_c, 1, 45, 127
1, 152430, Note_on_c, 1, 81, 127
1, 152430, Note_on_c, 1, 73, 127
1, 152458, Note_off_c, 1, 45, 0
1, 152459, Note_off_c, 1, 78, 0
1, 152459, Note_off_c, 1, 69, 0
1, 152459, Note_off_c, 1, 81, 0
1, 152459, Note_off_c, 1, 73, 0
1, 152460, Note_on_c, 1, 86, 127
1, 152460, Note_on_c, 1, 80, 127
1, 152460, Note_on_c, 1, 71, 127
1, 152460, Note_on_c, 1, 47, 127
1, 152489, Note_off_c, 1, 80, 0
1, 152490, Note_on_c, 1, 78, 127
1, 152490, Note_on_c, 1, 69, 127
1, 152518, Note_off_c, 1, 47, 0
1, 152519, Note_off_c, 1, 86, 0
1, 152519, Note_off_c, 1, 71, 0
1, 152519, Note_off_c, 1, 78, 0
1, 152519, Note_off_c, 1, 69, 0
1, 152520, Note_on_c, 1, 85, 127
1, 152520, Note_on_c, 1, 77, 127
1, 152520, Note_on_c, 1, 68, 127
1, 152520, Note_on_c, 1, 73, 127
1, 152520, Note_on_c, 1, 49, 127
1, 152549, Note_off_c, 1, 77, 0
1, 152549, Note_off_c, 1, 68, 0
1, 152550, Note_on_c, 1, 80, 127
1, 152550, Note_on_c, 1, 71, 127
1, 152578, Note_off_c, 1, 49, 0
1, 152579, Note_off_c, 1, 73, 0
1, 152579, Note_off_c, 1, 80, 0
1, 152579, Note_off_c, 1, 71, 0
1, 152580, Note_on_c, 1, 78, 127
1, 152580, Note_on_c, 1, 69, 127
1, 152580, Note_on_c, 1, 66, 127
1, 152580, Note_on_c, 1, 42, 127
1, 152609, Note_off_c, 1, 85, 0
1, 152609, Note_off_c, 1, 78, 0
1, 152609, Note_off_c, 1, 69, 0
1, 152610, Note_on_c, 1, 83, 127
1, 152639, Note_off_c, 1, 83, 0
1, 152640, Note_on_c, 1, 81, 127
1, 152699, Note_off_c, 1, 66, 0
1, 152699, Note_off_c, 1, 81, 0
1, 152700, Note_off_c, 1, 42, 0
1, 152700, Note_on_c, 1, 75, 127
1, 152759, Note_off_c, 1, 75, 0
1, 152760, Note_on_c, 1, 76, 127
1, 152820, Note_on_c, 1, 52, 127
1, 152878, Note_off_c, 1, 52, 0
1, 152879, Note_off_c, 1, 76, 0
1, 152880, Note_on_c, 1, 71, 127
1, 152880, Note_on_c, 1, 51, 127
1, 152938, Note_off_c, 1, 51, 0
1, 152939, Note_off_c, 1, 71, 0
1, 152940, Note_on_c, 1, 76, 127
1, 152940, Note_on_c, 1, 69, 127
1, 152940, Note_on_c, 1, 49, 127
1, 152998, Note_off_c, 1, 49, 0
1, 152999, Note_off_c, 1, 69, 0
1, 153000, Note_on_c, 1, 68, 127
1, 153000, Note_on_c, 1, 47, 127
1, 153058, Note_off_c, 1, 47, 0
1, 153059, Note_off_c, 1, 76, 0
1, 153059, Note_off_c, 1, 68, 0
1, 153060, Note_on_c, 1, 75, 127
1, 153060, Note_on_c, 1, 66, 127
1, 153060, Note_on_c, 1, 45, 127
1, 153118, Note_off_c, 1, 45, 0
1, 153119, Note_off_c, 1, 75, 0
1, 153119, Note_off_c, 1, 66, 0
1, 153120, Note_on_c, 1, 76, 127
1, 153120, Note_on_c, 1, 68, 127
1, 153120, Note_on_c, 1, 44, 127
1, 153150, Note_on_c, 1, 80, 127
1, 153150, Note_on_c, 1, 71, 127
1, 153178, Note_off_c, 1, 44, 0
1, 153179, Note_off_c, 1, 76, 0
1, 153179, Note_off_c, 1, 68, 0
1, 153179, Note_off_c, 1, 80, 0
1, 153179, Note_off_c, 1, 71, 0
1, 153180, Note_on_c, 1, 85, 127
1, 153180, Note_on_c, 1, 78, 127
1, 153180, Note_on_c, 1, 69, 127
1, 153180, Note_on_c, 1, 45, 127
1, 153209, Note_off_c, 1, 78, 0
1, 153210, Note_on_c, 1, 76, 127
1, 153210, Note_on_c, 1, 68, 127
1, 153238, Note_off_c, 1, 45, 0
1, 153239, Note_off_c, 1, 85, 0
1, 153239, Note_off_c, 1, 69, 0
1, 153239, Note_off_c, 1, 76, 0
1, 153239, Note_off_c, 1, 68, 0
1, 153240, Note_on_c, 1, 83, 127
1, 153240, Note_on_c, 1, 75, 127
1, 153240, Note_on_c, 1, 66, 127
1, 153240, Note_on_c, 1, 71, 127
1, 153240, Note_on_c, 1, 47, 127
1, 153269, Note_off_c, 1, 75, 0
1, 153269, Note_off_c, 1, 66, 0
1, 153270, Note_on_c, 1, 78, 127
1, 153270, Note_on_c, 1, 69, 127
1, 153298, Note_off_c, 1, 47, 0
1, 153299, Note_off_c, 1, 71, 0
1, 153299, Note_off_c, 1, 78, 0
1, 153299, Note_off_c, 1, 69, 0
1, 153300, Note_on_c, 1, 76, 127
1, 153300, Note_on_c, 1, 68, 127
1, 153300, Note_on_c, 1, 64, 127
1, 153300, Note_on_c, 1, 40, 127
1, 153329, Note_off_c, 1, 83, 0
1, 153329, Note_off_c, 1, 76, 0
1, 153329, Note_off_c, 1, 68, 0
1, 153330, Note_on_c, 1, 81, 127
1, 153359, Note_off_c, 1, 81, 0
1, 153360, Note_on_c, 1, 80, 127
1, 153419, Note_off_c, 1, 64, 0
1, 153419, Note_off_c, 1, 80, 0
1, 153420, Note_off_c, 1, 40, 0
1, 153420, Note_on_c, 1, 44, 127
1, 153478, Note_off_c, 1, 44, 0
1, 153480, Note_on_c, 1, 73, 127
1, 153480, Note_on_c, 1, 45, 127
1, 153539, Note_off_c, 1, 73, 0
1, 153540, Note_on_c, 1, 72, 127
1, 153599, Note_off_c, 1, 72, 0
1, 153600, Note_off_c, 1, 45, 0
1, 153600, Note_on_c, 1, 76, 127
1, 153600, Note_on_c, 1, 44, 127
1, 153658, Note_off_c, 1, 44, 0
1, 153659, Note_off_c, 1, 76, 0
1, 153660, Note_on_c, 1, 81, 127
1, 153660, Note_on_c, 1, 75, 127
1, 153660, Note_on_c, 1, 42, 127
1, 153749, Note_off_c, 1, 75, 0
1, 153750, Note_on_c, 1, 76, 127
1, 153764, Note_off_c, 1, 76, 0
1, 153765, Note_on_c, 1, 78, 127
1, 153779, Note_off_c, 1, 81, 0
1, 153779, Note_off_c, 1, 78, 0
1, 153780, Note_off_c, 1, 42, 0
1, 153780, Note_on_c, 1, 80, 127
1, 153780, Note_on_c, 1, 44, 127
1, 153838, Note_off_c, 1, 44, 0
1, 153839, Note_off_c, 1, 80, 0
1, 153840, Note_on_c, 1, 78, 127
1, 153840, Note_on_c, 1, 75, 127
1, 153840, Note_on_c, 1, 45, 127
1, 153898, Note_off_c, 1, 45, 0
1, 153899, Note_off_c, 1, 75, 0
1, 153900, Note_on_c, 1, 72, 127
1, 153900, Note_on_c, 1, 44, 127
1, 153958, Note_off_c, 1, 44, 0
1, 153959, Note_off_c, 1, 72, 0
1, 153960, Note_on_c, 1, 73, 127
1, 153960, Note_on_c, 1, 42, 127
1, 154018, Note_off_c, 1, 42, 0
1, 154019, Note_off_c, 1, 73, 0
1, 154020, Note_on_c, 1, 68, 127
1, 154050, Note_off_c, 1, 78, 0
1, 154050, Note_on_c, 1, 76, 127
1, 154079, Note_off_c, 1, 76, 0
1, 154080, Note_on_c, 1, 56, 127
1, 154138, Note_off_c, 1, 56, 0
1, 154140, Note_on_c, 1, 54, 127
1, 154198, Note_off_c, 1, 54, 0
1, 154200, Note_on_c, 1, 61, 127
1, 154200, Note_on_c, 1, 52, 127
1, 154259, Note_off_c, 1, 61, 0
1, 154260, Note_on_c, 1, 64, 127
1, 154319, Note_off_c, 1, 64, 0
1, 154320, Note_off_c, 1, 52, 0
1, 154320, Note_on_c, 1, 66, 127
1, 154320, Note_on_c, 1, 51, 127
1, 154378, Note_off_c, 1, 51, 0
1, 154379, Note_off_c, 1, 66, 0
1, 154380, Note_on_c, 1, 49, 127
1, 154409, Note_off_c, 1, 49, 0
1, 154740, Note_off_c, 1, 68, 0
1, 154740, Note_on_c, 1, 69, 127
1, 154800, Note_off_c, 1, 69, 0
1, 155100, Note_on_c, 1, 81, 127
1, 155159, Note_off_c, 1, 81, 0
1, 155160, Note_on_c, 1, 80, 127
1, 155219, Note_off_c, 1, 80, 0
1, 155220, Note_on_c, 1, 78, 127
1, 155220, Note_on_c, 1, 57, 127
1, 155279, Note_off_c, 1, 78, 0
1, 155279, Note_off_c, 1, 57, 0
1, 155280, Note_on_c, 1, 76, 127
1, 155280, Note_on_c, 1, 56, 127
1, 155339, Note_off_c, 1, 76, 0
1, 155339, Note_off_c, 1, 56, 0
1, 155340, Note_on_c, 1, 73, 127
1, 155340, Note_on_c, 1, 54, 127
1, 155399, Note_off_c, 1, 73, 0
1, 155399, Note_off_c, 1, 54, 0
1, 155400, Note_on_c, 1, 72, 127
1, 155400, Note_on_c, 1, 56, 127
1, 155459, Note_off_c, 1, 72, 0
1, 155459, Note_off_c, 1, 56, 0
1, 155460, Note_on_c, 1, 73, 127
1, 155460, Note_on_c, 1, 49, 127
1, 155489, Note_off_c, 1, 49, 0
1, 155490, Note_on_c, 1, 48, 127
1, 155519, Note_off_c, 1, 48, 0
1, 155520, Note_on_c, 1, 80, 127
1, 155550, Note_on_c, 1, 51, 127
1, 155579, Note_off_c, 1, 73, 0
1, 155579, Note_off_c, 1, 51, 0
1, 155580, Note_on_c, 1, 52, 127
1, 155609, Note_off_c, 1, 52, 0
1, 155640, Note_on_c, 1, 66, 127
1, 155640, Note_on_c, 1, 63, 127
1, 155640, Note_on_c, 1, 60, 127
1, 155640, Note_on_c, 1, 44, 127
1, 155699, Note_off_c, 1, 66, 0
1, 155699, Note_off_c, 1, 63, 0
1, 155699, Note_off_c, 1, 60, 0
1, 155699, Note_off_c, 1, 44, 0
1, 155700, Note_on_c, 1, 64, 127
1, 155700, Note_on_c, 1, 61, 127
1, 155700, Note_on_c, 1, 56, 127
1, 155759, Note_off_c, 1, 64, 0
1, 155759, Note_off_c, 1, 61, 0
1, 155759, Note_off_c, 1, 56, 0
1, 155820, Note_on_c, 1, 68, 127
1, 155879, Note_off_c, 1, 68, 0
1, 156060, Note_on_c, 1, 72, 127
1, 156119, Note_off_c, 1, 72, 0
1, 156180, Note_on_c, 1, 75, 127
1, 156180, Note_on_c, 1, 54, 127
1, 156239, Note_off_c, 1, 75, 0
1, 156239, Note_off_c, 1, 54, 0
1, 156420, Note_off_c, 1, 80, 0
1, 156480, Note_on_c, 1, 68, 127
1, 156480, Note_on_c, 1, 64, 127
1, 156480, Note_on_c, 1, 61, 127
1, 156480, Note_on_c, 1, 49, 127
1, 156539, Note_off_c, 1, 68, 0
1, 156539, Note_off_c, 1, 64, 0
1, 156539, Note_off_c, 1, 61, 0
1, 156539, Note_off_c, 1, 49, 0
1, 156540, Note_on_c, 1, 68, 127
1, 156540, Note_on_c, 1, 63, 127
1, 156540, Note_on_c, 1, 56, 127
1, 156540, Note_on_c, 1, 48, 127
1, 156599, Note_off_c, 1, 68, 0
1, 156600, Note_on_c, 1, 70, 127
1, 156629, Note_off_c, 1, 70, 0
1, 156630, Note_on_c, 1, 72, 127
1, 156659, Note_off_c, 1, 63, 0
1, 156659, Note_off_c, 1, 56, 0
1, 156659, Note_off_c, 1, 48, 0
1, 156659, Note_off_c, 1, 72, 0
1, 156660, Note_on_c, 1, 73, 127
1, 156689, Note_off_c, 1, 73, 0
1, 156690, Note_on_c, 1, 75, 127
1, 156719, Note_off_c, 1, 75, 0
1, 156720, Note_on_c, 1, 76, 127
1, 156720, Note_on_c, 1, 73, 127
1, 156720, Note_on_c, 1, 68, 127
1, 156720, Note_on_c, 1, 49, 127
1, 156779, Note_off_c, 1, 76, 0
1, 156779, Note_off_c, 1, 73, 0
1, 156779, Note_off_c, 1, 68, 0
1, 156779, Note_off_c, 1, 49, 0
1, 156780, Note_on_c, 1, 78, 127
1, 156780, Note_on_c, 1, 75, 127
1, 156780, Note_on_c, 1, 69, 127
1, 156780, Note_on_c, 1, 42, 127
1, 156839, Note_off_c, 1, 78, 0
1, 156839, Note_off_c, 1, 75, 0
1, 156839, Note_off_c, 1, 69, 0
1, 156839, Note_off_c, 1, 42, 0
1, 156840, Note_on_c, 1, 75, 127
1, 156840, Note_on_c, 1, 72, 127
1, 156840, Note_on_c, 1, 68, 127
1, 156840, Note_on_c, 1, 44, 127
1, 156899, Note_off_c, 1, 75, 0
1, 156899, Note_off_c, 1, 72, 0
1, 156899, Note_off_c, 1, 68, 0
1, 156899, Note_off_c, 1, 44, 0
1, 156900, Note_on_c, 1, 73, 127
1, 156900, Note_on_c, 1, 68, 127
1, 156900, Note_on_c, 1, 64, 127
1, 156900, Note_on_c, 1, 49, 127
1, 157019, Note_off_c, 1, 73, 0
1, 157019, Note_off_c, 1, 68, 0
1, 157019, Note_off_c, 1, 64, 0
1, 157019, Note_off_c, 1, 49, 0
1, 157020, Note_on_c, 1, 76, 127
1, 157079, Note_off_c, 1, 76, 0
1, 157080, Note_on_c, 1, 76, 127
1, 157110, Note_on_c, 1, 61, 127
1, 157139, Note_off_c, 1, 61, 0
1, 157140, Note_on_c, 1, 59, 127
1, 157169, Note_off_c, 1, 59, 0
1, 157170, Note_on_c, 1, 57, 127
1, 157199, Note_off_c, 1, 76, 0
1, 157199, Note_off_c, 1, 57, 0
1, 157200, Note_on_c, 1, 76, 127
1, 157200, Note_on_c, 1, 56, 127
1, 157229, Note_off_c, 1, 56, 0
1, 157230, Note_on_c, 1, 54, 127
1, 157259, Note_off_c, 1, 76, 0
1, 157259, Note_off_c, 1, 54, 0
1, 157260, Note_on_c, 1, 76, 127
1, 157260, Note_on_c, 1, 52, 127
1, 157289, Note_off_c, 1, 52, 0
1, 157290, Note_on_c, 1, 54, 127
1, 157319, Note_off_c, 1, 54, 0
1, 157350, Note_on_c, 1, 50, 127
1, 157379, Note_off_c, 1, 76, 0
1, 157379, Note_off_c, 1, 50, 0
1, 157380, Note_on_c, 1, 76, 127
1, 157380, Note_on_c, 1, 49, 127
1, 157409, Note_off_c, 1, 49, 0
1, 157410, Note_on_c, 1, 47, 127
1, 157439, Note_off_c, 1, 76, 0
1, 157439, Note_off_c, 1, 47, 0
1, 157440, Note_on_c, 1, 76, 127
1, 157440, Note_on_c, 1, 49, 127
1, 157469, Note_off_c, 1, 76, 0
1, 157470, Note_on_c, 1, 81, 127
1, 157499, Note_off_c, 1, 49, 0
1, 157499, Note_off_c, 1, 81, 0
1, 157500, Note_on_c, 1, 81, 127
1, 157500, Note_on_c, 1, 71, 127
1, 157500, Note_on_c, 1, 74, 127
1, 157500, Note_on_c, 1, 80, 127
1, 157500, Note_on_c, 1, 50, 127
1, 157529, Note_off_c, 1, 80, 0
1, 157530, Note_on_c, 1, 78, 127
1, 157559, Note_off_c, 1, 50, 0
1, 157559, Note_off_c, 1, 78, 0
1, 157560, Note_off_c, 1, 81, 0
1, 157560, Note_off_c, 1, 74, 0
1, 157560, Note_on_c, 1, 76, 127
1, 157560, Note_on_c, 1, 52, 127
1, 157619, Note_off_c, 1, 52, 0
1, 157620, Note_off_c, 1, 71, 0
1, 157620, Note_on_c, 1, 73, 127
1, 157620, Note_on_c, 1, 45, 127
1, 157710, Note_on_c, 1, 69, 127
1, 157739, Note_off_c, 1, 45, 0
1, 157739, Note_off_c, 1, 69, 0
1, 157740, Note_off_c, 1, 76, 0
1, 157799, Note_off_c, 1, 73, 0
1, 157800, Note_on_c, 1, 73, 127
1, 157830, Note_on_c, 1, 61, 127
1, 157859, Note_off_c, 1, 61, 0
1, 157860, Note_on_c, 1, 59, 127
1, 157889, Note_off_c, 1, 59, 0
1, 157890, Note_on_c, 1, 57, 127
1, 157919, Note_off_c, 1, 73, 0
1, 157919, Note_off_c, 1, 57, 0
1, 157920, Note_on_c, 1, 73, 127
1, 157920, Note_on_c, 1, 56, 127
1, 157949, Note_off_c, 1, 56, 0
1, 157950, Note_on_c, 1, 54, 127
1, 157979, Note_off_c, 1, 73, 0
1, 157979, Note_off_c, 1, 54, 0
1, 157980, Note_on_c, 1, 73, 127
1, 157980, Note_on_c, 1, 53, 127
1, 158009, Note_off_c, 1, 53, 0
1, 158010, Note_on_c, 1, 54, 127
1, 158039, Note_off_c, 1, 54, 0
1, 158070, Note_on_c, 1, 51, 127
1, 158099, Note_off_c, 1, 73, 0
1, 158099, Note_off_c, 1, 51, 0
1, 158100, Note_on_c, 1, 73, 127
1, 158100, Note_on_c, 1, 49, 127
1, 158129, Note_off_c, 1, 49, 0
1, 158130, Note_on_c, 1, 47, 127
1, 158159, Note_off_c, 1, 73, 0
1, 158159, Note_off_c, 1, 47, 0
1, 158160, Note_on_c, 1, 73, 127
1, 158160, Note_on_c, 1, 45, 127
1, 158189, Note_off_c, 1, 73, 0
1, 158190, Note_on_c, 1, 78, 127
1, 158219, Note_off_c, 1, 45, 0
1, 158219, Note_off_c, 1, 78, 0
1, 158220, Note_on_c, 1, 78, 127
1, 158220, Note_on_c, 1, 68, 127
1, 158220, Note_on_c, 1, 71, 127
1, 158220, Note_on_c, 1, 76, 127
1, 158220, Note_on_c, 1, 47, 127
1, 158249, Note_off_c, 1, 76, 0
1, 158250, Note_on_c, 1, 74, 127
1, 158279, Note_off_c, 1, 47, 0
1, 158279, Note_off_c, 1, 74, 0
1, 158280, Note_off_c, 1, 78, 0
1, 158280, Note_off_c, 1, 71, 0
1, 158280, Note_on_c, 1, 77, 127
1, 158280, Note_on_c, 1, 73, 127
1, 158280, Note_on_c, 1, 49, 127
1, 158339, Note_off_c, 1, 49, 0
1, 158340, Note_off_c, 1, 68, 0
1, 158340, Note_off_c, 1, 77, 0
1, 158340, Note_on_c, 1, 69, 127
1, 158340, Note_on_c, 1, 42, 127
1, 158399, Note_off_c, 1, 42, 0
1, 158400, Note_on_c, 1, 66, 127
1, 158400, Note_on_c, 1, 54, 127
1, 158429, Note_off_c, 1, 54, 0
1, 158430, Note_on_c, 1, 52, 127
1, 158459, Note_off_c, 1, 66, 0
1, 158459, Note_off_c, 1, 52, 0
1, 158460, Note_off_c, 1, 73, 0
1, 158460, Note_on_c, 1, 50, 127
1, 158489, Note_off_c, 1, 50, 0
1, 158519, Note_off_c, 1, 69, 0
1, 158520, Note_on_c, 1, 68, 127
1, 158520, Note_on_c, 1, 47, 127
1, 158549, Note_off_c, 1, 68, 0
1, 158549, Note_off_c, 1, 47, 0
1, 158550, Note_on_c, 1, 69, 127
1, 158550, Note_on_c, 1, 49, 127
1, 158579, Note_off_c, 1, 69, 0
1, 158579, Note_off_c, 1, 49, 0
1, 158580, Note_on_c, 1, 71, 127
1, 158580, Note_on_c, 1, 47, 127
1, 158609, Note_off_c, 1, 71, 0
1, 158609, Note_off_c, 1, 47, 0
1, 158610, Note_on_c, 1, 73, 127
1, 158610, Note_on_c, 1, 45, 127
1, 158639, Note_off_c, 1, 73, 0
1, 158639, Note_off_c, 1, 45, 0
1, 158640, Note_on_c, 1, 74, 127
1, 158640, Note_on_c, 1, 44, 127
1, 158669, Note_off_c, 1, 44, 0
1, 158670, Note_on_c, 1, 42, 127
1, 158699, Note_off_c, 1, 74, 0
1, 158699, Note_off_c, 1, 42, 0
1, 158700, Note_on_c, 1, 74, 127
1, 158700, Note_on_c, 1, 41, 127
1, 158759, Note_off_c, 1, 74, 0
1, 158759, Note_off_c, 1, 41, 0
1, 158760, Note_on_c, 1, 73, 127
1, 158760, Note_on_c, 1, 41, 127
1, 158819, Note_off_c, 1, 73, 0
1, 158819, Note_off_c, 1, 41, 0
1, 158820, Note_on_c, 1, 71, 127
1, 158820, Note_on_c, 1, 41, 127
1, 158879, Note_off_c, 1, 71, 0
1, 158879, Note_off_c, 1, 41, 0
1, 158880, Note_on_c, 1, 69, 127
1, 158880, Note_on_c, 1, 42, 127
1, 158939, Note_off_c, 1, 69, 0
1, 158939, Note_off_c, 1, 42, 0
1, 158940, Note_on_c, 1, 71, 127
1, 158940, Note_on_c, 1, 40, 127
1, 158969, Note_off_c, 1, 71, 0
1, 158970, Note_on_c, 1, 69, 127
1, 158999, Note_off_c, 1, 40, 0
1, 158999, Note_off_c, 1, 69, 0
1, 159000, Note_on_c, 1, 68, 127
1, 159000, Note_on_c, 1, 38, 127
1, 159029, Note_off_c, 1, 68, 0
1, 159030, Note_on_c, 1, 66, 127
1, 159059, Note_off_c, 1, 38, 0
1, 159059, Note_off_c, 1, 66, 0
1, 159060, Note_on_c, 1, 73, 127
1, 159060, Note_on_c, 1, 37, 127
1, 159090, Note_on_c, 1, 81, 127
1, 159119, Note_off_c, 1, 37, 0
1, 159119, Note_off_c, 1, 81, 0
1, 159120, Note_on_c, 1, 80, 127
1, 159120, Note_on_c, 1, 49, 127
1, 159149, Note_off_c, 1, 80, 0
1, 159150, Note_on_c, 1, 78, 127
1, 159179, Note_off_c, 1, 49, 0
1, 159179, Note_off_c, 1, 78, 0
1, 159180, Note_on_c, 1, 77, 127
1, 159180, Note_on_c, 1, 47, 127
1, 159209, Note_off_c, 1, 77, 0
1, 159239, Note_off_c, 1, 47, 0
1, 159240, Note_on_c, 1, 69, 127
1, 159240, Note_on_c, 1, 66, 127
1, 159240, Note_on_c, 1, 45, 127
1, 159299, Note_off_c, 1, 69, 0
1, 159299, Note_off_c, 1, 66, 0
1, 159359, Note_off_c, 1, 45, 0
1, 159360, Note_on_c, 1, 71, 127
1, 159360, Note_on_c, 1, 44, 127
1, 159419, Note_off_c, 1, 71, 0
1, 159419, Note_off_c, 1, 44, 0
1, 159420, Note_on_c, 1, 42, 127
1, 159449, Note_off_c, 1, 42, 0
1, 159780, Note_off_c, 1, 73, 0
1, 159780, Note_on_c, 1, 83, 127
1, 159780, Note_on_c, 1, 74, 127
1, 159839, Note_off_c, 1, 74, 0
1, 159900, Note_off_c, 1, 83, 0
1, 160020, Note_on_c, 1, 83, 127
1, 160020, Note_on_c, 1, 73, 127
1, 160020, Note_on_c, 1, 47, 127
1, 160049, Note_off_c, 1, 83, 0
1, 160050, Note_on_c, 1, 81, 127
1, 160079, Note_off_c, 1, 73, 0
1, 160079, Note_off_c, 1, 47, 0
1, 160079, Note_off_c, 1, 81, 0
1, 160080, Note_on_c, 1, 80, 127
1, 160080, Note_on_c, 1, 71, 127
1, 160080, Note_on_c, 1, 47, 127
1, 160109, Note_off_c, 1, 80, 0
1, 160110, Note_on_c, 1, 78, 127
1, 160139, Note_off_c, 1, 71, 0
1, 160139, Note_off_c, 1, 47, 0
1, 160139, Note_off_c, 1, 78, 0
1, 160140, Note_on_c, 1, 77, 127
1, 160140, Note_on_c, 1, 73, 127
1, 160140, Note_on_c, 1, 47, 127
1, 160169, Note_off_c, 1, 77, 0
1, 160170, Note_on_c, 1, 80, 127
1, 160199, Note_off_c, 1, 73, 0
1, 160199, Note_off_c, 1, 47, 0
1, 160199, Note_off_c, 1, 80, 0
1, 160200, Note_on_c, 1, 85, 127
1, 160200, Note_on_c, 1, 65, 127
1, 160200, Note_on_c, 1, 47, 127
1, 160259, Note_off_c, 1, 65, 0
1, 160259, Note_off_c, 1, 47, 0
1, 160260, Note_on_c, 1, 66, 127
1, 160260, Note_on_c, 1, 45, 127
1, 160289, Note_off_c, 1, 85, 0
1, 160290, Note_on_c, 1, 81, 127
1, 160319, Note_off_c, 1, 66, 0
1, 160319, Note_off_c, 1, 45, 0
1, 160319, Note_off_c, 1, 81, 0
1, 160320, Note_on_c, 1, 78, 127
1, 160320, Note_on_c, 1, 71, 127
1, 160320, Note_on_c, 1, 50, 127
1, 160349, Note_off_c, 1, 71, 0
1, 160350, Note_on_c, 1, 73, 127
1, 160379, Note_off_c, 1, 50, 0
1, 160379, Note_off_c, 1, 73, 0
1, 160380, Note_on_c, 1, 74, 127
1, 160380, Note_on_c, 1, 68, 127
1, 160380, Note_on_c, 1, 47, 127
1, 160439, Note_off_c, 1, 47, 0
1, 160440, Note_off_c, 1, 78, 0
1, 160440, Note_off_c, 1, 74, 0
1, 160440, Note_on_c, 1, 77, 127
1, 160440, Note_on_c, 1, 49, 127
1, 160499, Note_off_c, 1, 68, 0
1, 160499, Note_off_c, 1, 49, 0
1, 160500, Note_off_c, 1, 77, 0
1, 160500, Note_on_c, 1, 69, 127
1, 160500, Note_on_c, 1, 66, 127
1, 160500, Note_on_c, 1, 42, 127
1, 160679, Note_off_c, 1, 69, 0
1, 160679, Note_off_c, 1, 66, 0
1, 160679, Note_off_c, 1, 42, 0
1, 160680, Note_on_c, 1, 64, 127
1, 160680, Note_on_c, 1, 61, 127
1, 160680, Note_on_c, 1, 57, 127
1, 160680, Note_on_c, 1, 45, 127
1, 160739, Note_off_c, 1, 57, 0
1, 160739, Note_off_c, 1, 45, 0
1, 160800, Note_off_c, 1, 61, 0
1, 160800, Note_on_c, 1, 52, 127
1, 160859, Note_off_c, 1, 64, 0
1, 160859, Note_off_c, 1, 52, 0
1, 160860, Note_on_c, 1, 73, 127
1, 160860, Note_on_c, 1, 69, 127
1, 160860, Note_on_c, 1, 64, 127
1, 160860, Note_on_c, 1, 57, 127
1, 160860, Note_on_c, 1, 61, 127
1, 160919, Note_off_c, 1, 57, 0
1, 160979, Note_off_c, 1, 73, 0
1, 160980, Note_off_c, 1, 69, 0
1, 160980, Note_off_c, 1, 61, 0
1, 160980, Note_on_c, 1, 71, 127
1, 160980, Note_on_c, 1, 68, 127
1, 161039, Note_off_c, 1, 64, 0
1, 161039, Note_off_c, 1, 71, 0
1, 161040, Note_on_c, 1, 62, 127
1, 161070, Note_on_c, 1, 66, 127
1, 161099, Note_off_c, 1, 66, 0
1, 161159, Note_off_c, 1, 68, 0
1, 161159, Note_off_c, 1, 62, 0
1, 161160, Note_on_c, 1, 73, 127
1, 161160, Note_on_c, 1, 69, 127
1, 161160, Note_on_c, 1, 64, 127
1, 161160, Note_on_c, 1, 61, 127
1, 161219, Note_off_c, 1, 73, 0
1, 161219, Note_off_c, 1, 64, 0
1, 161219, Note_off_c, 1, 61, 0
1, 161220, Note_on_c, 1, 74, 127
1, 161220, Note_on_c, 1, 66, 127
1, 161220, Note_on_c, 1, 59, 127
1, 161220, Note_on_c, 1, 71, 127
1, 161279, Note_off_c, 1, 69, 0
1, 161279, Note_off_c, 1, 66, 0
1, 161279, Note_off_c, 1, 59, 0
1, 161280, Note_on_c, 1, 68, 127
1, 161280, Note_on_c, 1, 52, 127
1, 161339, Note_off_c, 1, 74, 0
1, 161339, Note_off_c, 1, 71, 0
1, 161339, Note_off_c, 1, 68, 0
1, 161339, Note_off_c, 1, 52, 0
1, 161340, Note_on_c, 1, 73, 127
1, 161340, Note_on_c, 1, 69, 127
1, 161340, Note_on_c, 1, 64, 127
1, 161340, Note_on_c, 1, 57, 127
1, 161399, Note_off_c, 1, 73, 0
1, 161399, Note_off_c, 1, 69, 0
1, 161399, Note_off_c, 1, 64, 0
1, 161399, Note_off_c, 1, 57, 0
1, 161400, Note_on_c, 1, 76, 127
1, 161400, Note_on_c, 1, 73, 127
1, 161400, Note_on_c, 1, 69, 127
1, 161400, Note_on_c, 1, 45, 127
1, 161400, Note_on_c, 1, 64, 127
1, 161459, Note_off_c, 1, 76, 0
1, 161459, Note_off_c, 1, 73, 0
1, 161459, Note_off_c, 1, 45, 0
1, 161460, Note_on_c, 1, 49, 127
1, 161519, Note_off_c, 1, 69, 0
1, 161519, Note_off_c, 1, 64, 0
1, 161519, Note_off_c, 1, 49, 0
1, 161520, Note_on_c, 1, 76, 127
1, 161520, Note_on_c, 1, 71, 127
1, 161520, Note_on_c, 1, 68, 127
1, 161520, Note_on_c, 1, 52, 127
1, 161520, Note_on_c, 1, 64, 127
1, 161579, Note_off_c, 1, 76, 0
1, 161579, Note_off_c, 1, 71, 0
1, 161579, Note_off_c, 1, 68, 0
1, 161579, Note_off_c, 1, 52, 0
1, 161579, Note_off_c, 1, 64, 0
1, 161580, Note_on_c, 1, 76, 127
1, 161580, Note_on_c, 1, 73, 127
1, 161580, Note_on_c, 1, 69, 127
1, 161580, Note_on_c, 1, 57, 127
1, 161580, Note_on_c, 1, 64, 127
1, 161639, Note_off_c, 1, 76, 0
1, 161639, Note_off_c, 1, 73, 0
1, 161639, Note_off_c, 1, 57, 0
1, 161640, Note_on_c, 1, 74, 127
1, 161640, Note_on_c, 1, 54, 127
1, 161699, Note_off_c, 1, 69, 0
1, 161699, Note_off_c, 1, 64, 0
1, 161699, Note_off_c, 1, 74, 0
1, 161699, Note_off_c, 1, 54, 0
1, 161700, Note_on_c, 1, 71, 127
1, 161700, Note_on_c, 1, 62, 127
1, 161700, Note_on_c, 1, 66, 127
1, 161700, Note_on_c, 1, 50, 127
1, 161729, Note_off_c, 1, 71, 0
1, 161730, Note_on_c, 1, 69, 127
1, 161759, Note_off_c, 1, 66, 0
1, 161759, Note_off_c, 1, 50, 0
1, 161759, Note_off_c, 1, 69, 0
1, 161760, Note_on_c, 1, 68, 127
1, 161760, Note_on_c, 1, 47, 127
1, 161819, Note_off_c, 1, 62, 0
1, 161819, Note_off_c, 1, 47, 0
1, 161820, Note_on_c, 1, 74, 127
1, 161820, Note_on_c, 1, 64, 127
1, 161820, Note_on_c, 1, 44, 127
1, 161879, Note_off_c, 1, 74, 0
1, 161879, Note_off_c, 1, 64, 0
1, 161879, Note_off_c, 1, 44, 0
1, 161880, Note_off_c, 1, 68, 0
1, 161880, Note_on_c, 1, 73, 127
1, 161880, Note_on_c, 1, 45, 127
1, 161939, Note_off_c, 1, 73, 0
1, 161939, Note_off_c, 1, 45, 0
1, 161940, Note_on_c, 1, 73, 127
1, 161940, Note_on_c, 1, 69, 127
1, 161940, Note_on_c, 1, 64, 127
1, 161940, Note_on_c, 1, 40, 127
1, 161940, Note_on_c, 1, 68, 127
1, 161940, Note_on_c, 1, 71, 127
1, 161969, Note_off_c, 1, 69, 0
1, 161999, Note_off_c, 1, 73, 0
1, 161999, Note_off_c, 1, 40, 0
1, 162000, Note_on_c, 1, 42, 127
1, 162029, Note_off_c, 1, 42, 0
1, 162030, Note_on_c, 1, 44, 127
1, 162059, Note_off_c, 1, 44, 0
1, 162060, Note_off_c, 1, 68, 0
1, 162060, Note_on_c, 1, 45, 127
1, 162089, Note_off_c, 1, 45, 0
1, 162090, Note_on_c, 1, 47, 127
1, 162119, Note_off_c, 1, 64, 0
1, 162119, Note_off_c, 1, 47, 0
1, 162120, Note_off_c, 1, 71, 0
1, 162120, Note_on_c, 1, 49, 127
1, 162150, Note_on_c, 1, 66, 127
1, 162165, Note_off_c, 1, 66, 0
1, 162239, Note_off_c, 1, 49, 0
1, 162240, Note_on_c, 1, 71, 127
1, 162240, Note_on_c, 1, 68, 127
1, 162240, Note_on_c, 1, 62, 127
1, 162240, Note_on_c, 1, 47, 127
1, 162270, Note_on_c, 1, 64, 127
1, 162299, Note_off_c, 1, 71, 0
1, 162299, Note_off_c, 1, 68, 0
1, 162299, Note_off_c, 1, 62, 0
1, 162299, Note_off_c, 1, 47, 0
1, 162299, Note_off_c, 1, 64, 0
1, 162299, Note_on_c, 1, 73, 127
1, 162300, Note_on_c, 1, 69, 127
1, 162300, Note_on_c, 1, 45, 127
1, 162359, Note_off_c, 1, 45, 0
1, 162360, Note_on_c, 1, 49, 127
1, 162419, Note_off_c, 1, 73, 0
1, 162419, Note_off_c, 1, 69, 0
1, 162419, Note_off_c, 1, 49, 0
1, 162420, Note_on_c, 1, 52, 127
1, 162479, Note_off_c, 1, 52, 0
1, 162480, Note_on_c, 1, 56, 127
1, 162494, Note_on_c, 1, 66, 127
1, 162508, Note_off_c, 1, 66, 0
1, 162599, Note_off_c, 1, 56, 0
1, 162600, Note_on_c, 1, 57, 127
1, 162659, Note_on_c, 1, 74, 127
1, 162719, Note_off_c, 1, 57, 0
1, 162779, Note_off_c, 1, 74, 0
1, 162840, Note_on_c, 1, 64, 127
1, 162840, Note_on_c, 1, 76, 127
1, 162840, Note_on_c, 1, 45, 127
1, 162869, Note_off_c, 1, 64, 0
1, 162899, Note_off_c, 1, 76, 0
1, 162899, Note_off_c, 1, 45, 0
1, 162900, Note_on_c, 1, 69, 127
1, 162900, Note_on_c, 1, 76, 127
1, 162900, Note_on_c, 1, 61, 127
1, 162900, Note_on_c, 1, 49, 127
1, 162900, Note_on_c, 1, 73, 127
1, 162959, Note_off_c, 1, 69, 0
1, 162959, Note_off_c, 1, 76, 0
1, 162959, Note_off_c, 1, 61, 0
1, 162959, Note_off_c, 1, 49, 0
1, 162959, Note_off_c, 1, 73, 0
1, 162960, Note_on_c, 1, 71, 127
1, 162960, Note_on_c, 1, 76, 127
1, 162960, Note_on_c, 1, 68, 127
1, 162960, Note_on_c, 1, 59, 127
1, 162960, Note_on_c, 1, 52, 127
1, 163019, Note_off_c, 1, 71, 0
1, 163019, Note_off_c, 1, 76, 0
1, 163019, Note_off_c, 1, 68, 0
1, 163019, Note_off_c, 1, 59, 0
1, 163019, Note_off_c, 1, 52, 0
1, 163020, Note_on_c, 1, 73, 127
1, 163020, Note_on_c, 1, 76, 127
1, 163020, Note_on_c, 1, 57, 127
1, 163049, Note_off_c, 1, 73, 0
1, 163079, Note_off_c, 1, 76, 0
1, 163079, Note_off_c, 1, 57, 0
1, 163080, Note_on_c, 1, 74, 127
1, 163080, Note_on_c, 1, 68, 127
1, 163080, Note_on_c, 1, 62, 127
1, 163080, Note_on_c, 1, 59, 127
1, 163110, Note_on_c, 1, 73, 127
1, 163139, Note_off_c, 1, 74, 0
1, 163139, Note_off_c, 1, 68, 0
1, 163139, Note_off_c, 1, 62, 0
1, 163139, Note_off_c, 1, 59, 0
1, 163139, Note_off_c, 1, 73, 0
1, 163140, Note_on_c, 1, 71, 127
1, 163140, Note_on_c, 1, 69, 127
1, 163140, Note_on_c, 1, 64, 127
1, 163140, Note_on_c, 1, 61, 127
1, 163140, Note_on_c, 1, 76, 127
1, 163169, Note_off_c, 1, 71, 0
1, 163199, Note_off_c, 1, 69, 0
1, 163199, Note_off_c, 1, 64, 0
1, 163199, Note_off_c, 1, 61, 0
1, 163199, Note_off_c, 1, 76, 0
1, 163200, Note_on_c, 1, 68, 127
1, 163200, Note_on_c, 1, 62, 127
1, 163215, Note_on_c, 1, 69, 127
1, 163229, Note_off_c, 1, 69, 0
1, 163230, Note_on_c, 1, 71, 127
1, 163244, Note_off_c, 1, 71, 0
1, 163245, Note_on_c, 1, 73, 127
1, 163259, Note_off_c, 1, 68, 0
1, 163259, Note_off_c, 1, 62, 0
1, 163259, Note_off_c, 1, 73, 0
1, 163260, Note_on_c, 1, 74, 127
1, 163260, Note_on_c, 1, 71, 127
1, 163260, Note_on_c, 1, 64, 127
1, 163260, Note_on_c, 1, 56, 127
1, 163260, Note_on_c, 1, 68, 127
1, 163319, Note_off_c, 1, 74, 0
1, 163319, Note_off_c, 1, 71, 0
1, 163319, Note_off_c, 1, 64, 0
1, 163319, Note_off_c, 1, 56, 0
1, 163319, Note_off_c, 1, 68, 0
1, 163320, Note_on_c, 1, 73, 127
1, 163320, Note_on_c, 1, 69, 127
1, 163320, Note_on_c, 1, 64, 127
1, 163320, Note_on_c, 1, 57, 127
1, 163379, Note_off_c, 1, 73, 0
1, 163379, Note_off_c, 1, 69, 0
1, 163379, Note_off_c, 1, 64, 0
1, 163379, Note_off_c, 1, 57, 0
1, 163380, Note_on_c, 1, 71, 127
1, 163380, Note_on_c, 1, 73, 127
1, 163380, Note_on_c, 1, 68, 127
1, 163380, Note_on_c, 1, 64, 127
1, 163394, Note_off_c, 1, 71, 0
1, 163395, Note_on_c, 1, 76, 127
1, 163409, Note_off_c, 1, 76, 0
1, 163410, Note_on_c, 1, 74, 127
1, 163424, Note_off_c, 1, 74, 0
1, 163439, Note_off_c, 1, 73, 0
1, 163440, Note_on_c, 1, 52, 127
1, 163455, Note_on_c, 1, 69, 127
1, 163469, Note_off_c, 1, 69, 0
1, 163485, Note_on_c, 1, 66, 127
1, 163499, Note_off_c, 1, 52, 0
1, 163499, Note_off_c, 1, 66, 0
1, 163500, Note_on_c, 1, 50, 127
1, 163559, Note_off_c, 1, 68, 0
1, 163559, Note_off_c, 1, 64, 0
1, 163559, Note_off_c, 1, 50, 0
1, 163560, Note_on_c, 1, 49, 127
1, 163619, Note_off_c, 1, 49, 0
1, 163620, Note_on_c, 1, 74, 127
1, 163620, Note_on_c, 1, 71, 127
1, 163620, Note_on_c, 1, 68, 127
1, 163620, Note_on_c, 1, 47, 127
1, 163620, Note_on_c, 1, 62, 127
1, 163679, Note_off_c, 1, 74, 0
1, 163679, Note_off_c, 1, 71, 0
1, 163679, Note_off_c, 1, 68, 0
1, 163679, Note_off_c, 1, 47, 0
1, 163679, Note_off_c, 1, 62, 0
1, 163680, Note_on_c, 1, 73, 127
1, 163680, Note_on_c, 1, 64, 127
1, 163680, Note_on_c, 1, 69, 127
1, 163680, Note_on_c, 1, 45, 127
1, 163680, Note_on_c, 1, 61, 127
1, 163739, Note_off_c, 1, 73, 0
1, 163739, Note_off_c, 1, 64, 0
1, 163739, Note_off_c, 1, 69, 0
1, 163739, Note_off_c, 1, 45, 0
1, 163739, Note_off_c, 1, 61, 0
1, 163740, Note_on_c, 1, 74, 127
1, 163740, Note_on_c, 1, 62, 127
1, 163740, Note_on_c, 1, 69, 127
1, 163740, Note_on_c, 1, 54, 127
1, 163799, Note_off_c, 1, 62, 0
1, 163799, Note_off_c, 1, 69, 0
1, 163799, Note_off_c, 1, 54, 0
1, 163800, Note_on_c, 1, 66, 127
1, 163800, Note_on_c, 1, 50, 127
1, 163829, Note_off_c, 1, 74, 0
1, 163830, Note_on_c, 1, 76, 127
1, 163844, Note_off_c, 1, 76, 0
1, 163845, Note_on_c, 1, 78, 127
1, 163859, Note_off_c, 1, 66, 0
1, 163859, Note_off_c, 1, 50, 0
1, 163859, Note_off_c, 1, 78, 0
1, 163860, Note_on_c, 1, 76, 127
1, 163860, Note_on_c, 1, 70, 127
1, 163860, Note_on_c, 1, 66, 127
1, 163860, Note_on_c, 1, 49, 127
1, 163860, Note_on_c, 1, 64, 127
1, 163919, Note_off_c, 1, 76, 0
1, 163919, Note_off_c, 1, 70, 0
1, 163919, Note_off_c, 1, 66, 0
1, 163919, Note_off_c, 1, 49, 0
1, 163919, Note_off_c, 1, 64, 0
1, 163920, Note_on_c, 1, 74, 127
1, 163920, Note_on_c, 1, 71, 127
1, 163920, Note_on_c, 1, 66, 127
1, 163920, Note_on_c, 1, 47, 127
1, 163920, Note_on_c, 1, 62, 127
1, 163979, Note_off_c, 1, 74, 0
1, 163979, Note_off_c, 1, 71, 0
1, 163979, Note_off_c, 1, 66, 0
1, 163979, Note_off_c, 1, 47, 0
1, 163979, Note_off_c, 1, 62, 0
1, 163980, Note_on_c, 1, 73, 127
1, 163980, Note_on_c, 1, 69, 127
1, 163980, Note_on_c, 1, 64, 127
1, 163980, Note_on_c, 1, 49, 127
1, 164009, Note_off_c, 1, 69, 0
1, 164010, Note_on_c, 1, 68, 127
1, 164039, Note_off_c, 1, 73, 0
1, 164039, Note_off_c, 1, 64, 0
1, 164039, Note_off_c, 1, 49, 0
1, 164039, Note_off_c, 1, 68, 0
1, 164040, Note_on_c, 1, 71, 127
1, 164040, Note_on_c, 1, 69, 127
1, 164040, Note_on_c, 1, 66, 127
1, 164040, Note_on_c, 1, 50, 127
1, 164099, Note_off_c, 1, 71, 0
1, 164099, Note_off_c, 1, 69, 0
1, 164099, Note_off_c, 1, 66, 0
1, 164099, Note_off_c, 1, 50, 0
1, 164100, Note_on_c, 1, 73, 127
1, 164100, Note_on_c, 1, 68, 127
1, 164100, Note_on_c, 1, 64, 127
1, 164100, Note_on_c, 1, 52, 127
1, 164159, Note_off_c, 1, 68, 0
1, 164159, Note_off_c, 1, 64, 0
1, 164159, Note_off_c, 1, 52, 0
1, 164160, Note_on_c, 1, 69, 127
1, 164160, Note_on_c, 1, 57, 127
1, 164160, Note_on_c, 1, 54, 127
1, 164189, Note_off_c, 1, 73, 0
1, 164190, Note_on_c, 1, 74, 127
1, 164204, Note_off_c, 1, 74, 0
1, 164205, Note_on_c, 1, 76, 127
1, 164219, Note_off_c, 1, 69, 0
1, 164219, Note_off_c, 1, 57, 0
1, 164219, Note_off_c, 1, 54, 0
1, 164219, Note_off_c, 1, 76, 0
1, 164220, Note_on_c, 1, 74, 127
1, 164220, Note_on_c, 1, 71, 127
1, 164220, Note_on_c, 1, 64, 127
1, 164220, Note_on_c, 1, 56, 127
1, 164279, Note_off_c, 1, 74, 0
1, 164279, Note_off_c, 1, 71, 0
1, 164279, Note_off_c, 1, 64, 0
1, 164279, Note_off_c, 1, 56, 0
1, 164280, Note_on_c, 1, 64, 127
1, 164280, Note_on_c, 1, 73, 127
1, 164280, Note_on_c, 1, 69, 127
1, 164280, Note_on_c, 1, 45, 127
1, 164339, Note_off_c, 1, 64, 0
1, 164339, Note_off_c, 1, 73, 0
1, 164339, Note_off_c, 1, 69, 0
1, 164339, Note_off_c, 1, 45, 0
1, 164340, Note_on_c, 1, 64, 127
1, 164340, Note_on_c, 1, 74, 127
1, 164340, Note_on_c, 1, 68, 127
1, 164340, Note_on_c, 1, 47, 127
1, 164369, Note_off_c, 1, 74, 0
1, 164370, Note_on_c, 1, 73, 127
1, 164399, Note_off_c, 1, 64, 0
1, 164399, Note_off_c, 1, 68, 0
1, 164399, Note_off_c, 1, 47, 0
1, 164399, Note_off_c, 1, 73, 0
1, 164400, Note_on_c, 1, 64, 127
1, 164400, Note_on_c, 1, 71, 127
1, 164400, Note_on_c, 1, 69, 127
1, 164400, Note_on_c, 1, 49, 127
1, 164429, Note_off_c, 1, 71, 0
1, 164459, Note_off_c, 1, 64, 0
1, 164459, Note_off_c, 1, 69, 0
1, 164459, Note_off_c, 1, 49, 0
1, 164460, Note_on_c, 1, 64, 127
1, 164460, Note_on_c, 1, 68, 127
1, 164460, Note_on_c, 1, 71, 127
1, 164460, Note_on_c, 1, 50, 127
1, 164519, Note_off_c, 1, 64, 0
1, 164519, Note_off_c, 1, 68, 0
1, 164519, Note_off_c, 1, 71, 0
1, 164519, Note_off_c, 1, 50, 0
1, 164520, Note_on_c, 1, 66, 127
1, 164520, Note_on_c, 1, 69, 127
1, 164520, Note_on_c, 1, 49, 127
1, 164549, Note_off_c, 1, 66, 0
1, 164550, Note_on_c, 1, 68, 127
1, 164579, Note_off_c, 1, 69, 0
1, 164579, Note_off_c, 1, 49, 0
1, 164579, Note_off_c, 1, 68, 0
1, 164580, Note_on_c, 1, 69, 127
1, 164580, Note_on_c, 1, 68, 127
1, 164580, Note_on_c, 1, 62, 127
1, 164580, Note_on_c, 1, 47, 127
1, 164580, Note_on_c, 1, 74, 127
1, 164609, Note_off_c, 1, 69, 0
1, 164610, Note_on_c, 1, 71, 127
1, 164639, Note_off_c, 1, 68, 0
1, 164639, Note_off_c, 1, 62, 0
1, 164639, Note_off_c, 1, 47, 0
1, 164639, Note_off_c, 1, 74, 0
1, 164639, Note_off_c, 1, 71, 0
1, 164640, Note_on_c, 1, 73, 127
1, 164640, Note_on_c, 1, 69, 127
1, 164640, Note_on_c, 1, 64, 127
1, 164640, Note_on_c, 1, 45, 127
1, 164640, Note_on_c, 1, 76, 127
1, 164699, Note_off_c, 1, 73, 0
1, 164699, Note_off_c, 1, 69, 0
1, 164699, Note_off_c, 1, 64, 0
1, 164699, Note_off_c, 1, 45, 0
1, 164699, Note_off_c, 1, 76, 0
1, 164700, Note_on_c, 1, 74, 127
1, 164700, Note_on_c, 1, 71, 127
1, 164700, Note_on_c, 1, 66, 127
1, 164700, Note_on_c, 1, 38, 127
1, 164759, Note_off_c, 1, 74, 0
1, 164759, Note_off_c, 1, 71, 0
1, 164759, Note_off_c, 1, 66, 0
1, 164759, Note_off_c, 1, 38, 0
1, 164760, Note_on_c, 1, 71, 127
1, 164760, Note_on_c, 1, 68, 127
1, 164760, Note_on_c, 1, 64, 127
1, 164760, Note_on_c, 1, 40, 127
1, 164769, Note_off_c, 1, 71, 0
1, 164770, Note_on_c, 1, 73, 127
1, 164779, Note_off_c, 1, 73, 0
1, 164819, Note_off_c, 1, 68, 0
1, 164819, Note_off_c, 1, 64, 0
1, 164819, Note_off_c, 1, 40, 0
1, 164820, Note_on_c, 1, 69, 127
1, 164820, Note_on_c, 1, 64, 127
1, 164820, Note_on_c, 1, 61, 127
1, 164820, Note_on_c, 1, 45, 127
1, 164879, Note_off_c, 1, 45, 0
1, 164910, Note_on_c, 1, 44, 127
1, 164939, Note_off_c, 1, 44, 0
1, 164970, Note_on_c, 1, 47, 127
1, 164999, Note_off_c, 1, 64, 0
1, 164999, Note_off_c, 1, 61, 0
1, 164999, Note_off_c, 1, 47, 0
1, 165000, Note_off_c, 1, 69, 0
1, 165000, Note_on_c, 1, 76, 127
1, 165000, Note_on_c, 1, 49, 127
1, 165015, Note_on_c, 1, 74, 127
1, 165029, Note_off_c, 1, 74, 0
1, 165030, Note_on_c, 1, 73, 127
1, 165044, Note_off_c, 1, 73, 0
1, 165059, Note_off_c, 1, 76, 0
1, 165059, Note_off_c, 1, 49, 0
1, 165060, Note_on_c, 1, 74, 127
1, 165060, Note_on_c, 1, 69, 127
1, 165060, Note_on_c, 1, 62, 127
1, 165060, Note_on_c, 1, 54, 127
1, 165119, Note_off_c, 1, 74, 0
1, 165119, Note_off_c, 1, 69, 0
1, 165119, Note_off_c, 1, 62, 0
1, 165119, Note_off_c, 1, 54, 0
1, 165120, Note_on_c, 1, 73, 127
1, 165120, Note_on_c, 1, 67, 127
1, 165120, Note_on_c, 1, 64, 127
1, 165120, Note_on_c, 1, 52, 127
1, 165150, Note_on_c, 1, 69, 127
1, 165179, Note_off_c, 1, 73, 0
1, 165179, Note_off_c, 1, 67, 0
1, 165179, Note_off_c, 1, 64, 0
1, 165179, Note_off_c, 1, 52, 0
1, 165179, Note_off_c, 1, 69, 0
1, 165180, Note_on_c, 1, 74, 127
1, 165180, Note_on_c, 1, 69, 127
1, 165180, Note_on_c, 1, 62, 127
1, 165180, Note_on_c, 1, 54, 127
1, 165239, Note_off_c, 1, 69, 0
1, 165239, Note_off_c, 1, 62, 0
1, 165239, Note_off_c, 1, 54, 0
1, 165240, Note_on_c, 1, 78, 127
1, 165240, Note_on_c, 1, 50, 127
1, 165269, Note_off_c, 1, 74, 0
1, 165269, Note_off_c, 1, 78, 0
1, 165270, Note_on_c, 1, 76, 127
1, 165284, Note_off_c, 1, 76, 0
1, 165299, Note_off_c, 1, 50, 0
1, 165300, Note_on_c, 1, 76, 127
1, 165300, Note_on_c, 1, 49, 127
1, 165330, Note_on_c, 1, 69, 127
1, 165359, Note_off_c, 1, 76, 0
1, 165359, Note_off_c, 1, 49, 0
1, 165359, Note_off_c, 1, 69, 0
1, 165360, Note_on_c, 1, 74, 127
1, 165360, Note_on_c, 1, 47, 127
1, 165375, Note_on_c, 1, 73, 127
1, 165389, Note_off_c, 1, 73, 0
1, 165390, Note_on_c, 1, 71, 127
1, 165404, Note_off_c, 1, 71, 0
1, 165419, Note_off_c, 1, 74, 0
1, 165419, Note_off_c, 1, 47, 0
1, 165420, Note_on_c, 1, 73, 127
1, 165420, Note_on_c, 1, 68, 127
1, 165420, Note_on_c, 1, 64, 127
1, 165420, Note_on_c, 1, 52, 127
1, 165479, Note_off_c, 1, 73, 0
1, 165479, Note_off_c, 1, 68, 0
1, 165479, Note_off_c, 1, 64, 0
1, 165479, Note_off_c, 1, 52, 0
1, 165480, Note_on_c, 1, 71, 127
1, 165480, Note_on_c, 1, 66, 127
1, 165480, Note_on_c, 1, 50, 127
1, 165480, Note_on_c, 1, 62, 127
1, 165510, Note_on_c, 1, 68, 127
1, 165539, Note_off_c, 1, 71, 0
1, 165539, Note_off_c, 1, 66, 0
1, 165539, Note_off_c, 1, 50, 0
1, 165539, Note_off_c, 1, 62, 0
1, 165539, Note_off_c, 1, 68, 0
1, 165540, Note_on_c, 1, 73, 127
1, 165540, Note_on_c, 1, 68, 127
1, 165540, Note_on_c, 1, 64, 127
1, 165540, Note_on_c, 1, 52, 127
1, 165599, Note_off_c, 1, 68, 0
1, 165599, Note_off_c, 1, 64, 0
1, 165599, Note_off_c, 1, 52, 0
1, 165600, Note_on_c, 1, 76, 127
1, 165600, Note_on_c, 1, 49, 127
1, 165629, Note_off_c, 1, 73, 0
1, 165629, Note_off_c, 1, 76, 0
1, 165630, Note_on_c, 1, 74, 127
1, 165644, Note_off_c, 1, 74, 0
1, 165659, Note_off_c, 1, 49, 0
1, 165660, Note_on_c, 1, 74, 127
1, 165660, Note_on_c, 1, 47, 127
1, 165690, Note_on_c, 1, 68, 127
1, 165719, Note_off_c, 1, 74, 0
1, 165719, Note_off_c, 1, 47, 0
1, 165719, Note_off_c, 1, 68, 0
1, 165720, Note_on_c, 1, 73, 127
1, 165720, Note_on_c, 1, 64, 127
1, 165720, Note_on_c, 1, 45, 127
1, 165734, Note_off_c, 1, 73, 0
1, 165735, Note_on_c, 1, 71, 127
1, 165749, Note_off_c, 1, 71, 0
1, 165750, Note_on_c, 1, 69, 127
1, 165764, Note_off_c, 1, 69, 0
1, 165779, Note_off_c, 1, 64, 0
1, 165779, Note_off_c, 1, 45, 0
1, 165780, Note_on_c, 1, 71, 127
1, 165780, Note_on_c, 1, 64, 127
1, 165780, Note_on_c, 1, 68, 127
1, 165780, Note_on_c, 1, 59, 127
1, 165780, Note_on_c, 1, 50, 127
1, 165795, Note_on_c, 1, 69, 127
1, 165809, Note_off_c, 1, 69, 0
1, 165839, Note_off_c, 1, 71, 0
1, 165839, Note_off_c, 1, 64, 0
1, 165839, Note_off_c, 1, 68, 0
1, 165839, Note_off_c, 1, 59, 0
1, 165839, Note_off_c, 1, 50, 0
1, 165840, Note_on_c, 1, 69, 127
1, 165840, Note_on_c, 1, 64, 127
1, 165840, Note_on_c, 1, 61, 127
1, 165840, Note_on_c, 1, 49, 127
1, 165840, Note_on_c, 1, 73, 127
1, 165855, Note_on_c, 1, 68, 127
1, 165869, Note_off_c, 1, 68, 0
1, 165870, Note_on_c, 1, 66, 127
1, 165884, Note_off_c, 1, 66, 0
1, 165899, Note_off_c, 1, 69, 0
1, 165899, Note_off_c, 1, 64, 0
1, 165899, Note_off_c, 1, 61, 0
1, 165899, Note_off_c, 1, 49, 0
1, 165899, Note_off_c, 1, 73, 0
1, 165900, Note_on_c, 1, 68, 127
1, 165900, Note_on_c, 1, 64, 127
1, 165900, Note_on_c, 1, 50, 127
1, 165929, Note_off_c, 1, 68, 0
1, 165959, Note_off_c, 1, 64, 0
1, 165959, Note_off_c, 1, 50, 0
1, 165960, Note_on_c, 1, 66, 127
1, 165960, Note_on_c, 1, 71, 127
1, 165960, Note_on_c, 1, 64, 127
1, 165960, Note_on_c, 1, 40, 127
1, 165989, Note_off_c, 1, 66, 0
1, 165990, Note_on_c, 1, 68, 127
1, 166019, Note_off_c, 1, 71, 0
1, 166019, Note_off_c, 1, 64, 0
1, 166019, Note_off_c, 1, 40, 0
1, 166019, Note_off_c, 1, 68, 0
1, 166020, Note_on_c, 1, 69, 127
1, 166020, Note_on_c, 1, 64, 127
1, 166020, Note_on_c, 1, 62, 127
1, 166020, Note_on_c, 1, 44, 127
1, 166049, Note_off_c, 1, 69, 0
1, 166050, Note_on_c, 1, 71, 127
1, 166079, Note_off_c, 1, 64, 0
1, 166079, Note_off_c, 1, 62, 0
1, 166079, Note_off_c, 1, 44, 0
1, 166079, Note_off_c, 1, 71, 0
1, 166080, Note_on_c, 1, 73, 127
1, 166080, Note_on_c, 1, 45, 127
1, 166110, Note_on_c, 1, 74, 127
1, 166124, Note_off_c, 1, 74, 0
1, 166125, Note_on_c, 1, 76, 127
1, 166139, Note_off_c, 1, 73, 0
1, 166139, Note_off_c, 1, 45, 0
1, 166139, Note_off_c, 1, 76, 0
1, 166140, Note_on_c, 1, 74, 127
1, 166140, Note_on_c, 1, 66, 127
1, 166140, Note_on_c, 1, 57, 127
1, 166140, Note_on_c, 1, 38, 127
1, 166140, Note_on_c, 1, 69, 127
1, 166170, Note_on_c, 1, 73, 127
1, 166199, Note_off_c, 1, 74, 0
1, 166199, Note_off_c, 1, 66, 0
1, 166199, Note_off_c, 1, 57, 0
1, 166199, Note_off_c, 1, 38, 0
1, 166199, Note_off_c, 1, 69, 0
1, 166199, Note_off_c, 1, 73, 0
1, 166200, Note_on_c, 1, 71, 127
1, 166200, Note_on_c, 1, 68, 127
1, 166200, Note_on_c, 1, 64, 127
1, 166200, Note_on_c, 1, 40, 127
1, 166210, Note_on_c, 1, 73, 127
1, 166219, Note_off_c, 1, 73, 0
1, 166259, Note_off_c, 1, 71, 0
1, 166259, Note_off_c, 1, 68, 0
1, 166259, Note_off_c, 1, 64, 0
1, 166259, Note_off_c, 1, 40, 0
1, 166260, Note_on_c, 1, 69, 127
1, 166260, Note_on_c, 1, 64, 127
1, 166260, Note_on_c, 1, 61, 127
1, 166260, Note_on_c, 1, 45, 127
1, 166260, Note_on_c, 1, 73, 127
1, 166290, Note_on_c, 1, 71, 127
1, 166304, Note_off_c, 1, 71, 0
1, 166320, Note_on_c, 1, 74, 127
1, 166334, Note_off_c, 1, 74, 0
1, 166335, Note_on_c, 1, 76, 127
1, 166349, Note_off_c, 1, 76, 0
1, 166350, Note_on_c, 1, 78, 127
1, 166364, Note_off_c, 1, 78, 0
1, 166365, Note_on_c, 1, 80, 127
1, 166379, Note_off_c, 1, 45, 0
1, 166379, Note_off_c, 1, 73, 0
1, 166379, Note_off_c, 1, 80, 0
1, 166380, Note_on_c, 1, 81, 127
1, 166439, Note_off_c, 1, 64, 0
1, 166439, Note_off_c, 1, 61, 0
1, 166439, Note_off_c, 1, 81, 0
1, 166440, Note_off_c, 1, 69, 0
1, 166470, Note_on_c, 1, 49, 127
1, 166499, Note_off_c, 1, 49, 0
1, 166530, Note_on_c, 1, 52, 127
1, 166559, Note_off_c, 1, 52, 0
1, 166590, Note_on_c, 1, 57, 127
1, 166619, Note_off_c, 1, 57, 0
1, 166650, Note_on_c, 1, 66, 127
1, 166679, Note_off_c, 1, 66, 0
1, 166680, Note_on_c, 1, 68, 127
1, 166709, Note_off_c, 1, 68, 0
1, 166830, Note_on_c, 1, 56, 127
1, 166859, Note_off_c, 1, 56, 0
1, 166890, Note_on_c, 1, 54, 127
1, 166919, Note_off_c, 1, 54, 0
1, 167190, Note_on_c, 1, 40, 127
1, 167219, Note_off_c, 1, 40, 0
1, 167400, Note_on_c, 1, 44, 127
1, 167459, Note_off_c, 1, 44, 0
1, 167550, Note_on_c, 1, 47, 127
1, 167579, Note_off_c, 1, 47, 0
1, 167880, Note_on_c, 1, 76, 127
1, 167880, Note_on_c, 1, 64, 127
1, 167880, Note_on_c, 1, 73, 127
1, 167880, Note_on_c, 1, 45, 127
1, 167909, Note_off_c, 1, 45, 0
1, 167910, Note_on_c, 1, 47, 127
1, 167939, Note_off_c, 1, 47, 0
1, 167940, Note_off_c, 1, 64, 0
1, 167940, Note_on_c, 1, 69, 127
1, 167940, Note_on_c, 1, 49, 127
1, 167969, Note_off_c, 1, 49, 0
1, 167999, Note_off_c, 1, 73, 0
1, 168000, Note_off_c, 1, 69, 0
1, 168000, Note_on_c, 1, 71, 127
1, 168030, Note_on_c, 1, 44, 127
1, 168059, Note_off_c, 1, 44, 0
1, 168060, Note_off_c, 1, 71, 0
1, 168210, Note_on_c, 1, 42, 127
1, 168239, Note_off_c, 1, 42, 0
1, 168300, Note_on_c, 1, 74, 127
1, 168359, Note_off_c, 1, 74, 0
1, 168630, Note_on_c, 1, 50, 127
1, 168659, Note_off_c, 1, 50, 0
1, 168810, Note_on_c, 1, 40, 127
1, 168839, Note_off_c, 1, 40, 0
1, 168960, Note_on_c, 1, 68, 127
1, 169020, Note_off_c, 1, 68, 0
1, 169140, Note_on_c, 1, 52, 127
1, 169169, Note_off_c, 1, 52, 0
1, 169230, Note_on_c, 1, 54, 127
1, 169259, Note_off_c, 1, 54, 0
1, 169260, Note_off_c, 1, 76, 0
1, 169290, Note_on_c, 1, 50, 127
1, 169319, Note_off_c, 1, 50, 0
1, 169320, Note_on_c, 1, 69, 127
1, 169320, Note_on_c, 1, 57, 127
1, 169320, Note_on_c, 1, 76, 127
1, 169320, Note_on_c, 1, 49, 127
1, 169339, Note_off_c, 1, 69, 0
1, 169340, Note_on_c, 1, 71, 127
1, 169349, Note_off_c, 1, 49, 0
1, 169350, Note_on_c, 1, 47, 127
1, 169359, Note_off_c, 1, 71, 0
1, 169360, Note_on_c, 1, 73, 127
1, 169379, Note_off_c, 1, 76, 0
1, 169379, Note_off_c, 1, 47, 0
1, 169379, Note_off_c, 1, 73, 0
1, 169380, Note_on_c, 1, 79, 127
1, 169380, Note_on_c, 1, 74, 127
1, 169410, Note_on_c, 1, 45, 127
1, 169439, Note_off_c, 1, 74, 0
1, 169439, Note_off_c, 1, 45, 0
1, 169470, Note_on_c, 1, 50, 127
1, 169499, Note_off_c, 1, 50, 0
1, 169520, Note_off_c, 1, 79, 0
1, 169520, Note_on_c, 1, 81, 127
1, 169539, Note_off_c, 1, 81, 0
1, 169560, Note_on_c, 1, 78, 127
1, 169560, Note_on_c, 1, 38, 127
1, 169579, Note_off_c, 1, 78, 0
1, 169619, Note_off_c, 1, 38, 0
1, 169710, Note_on_c, 1, 52, 127
1, 169739, Note_off_c, 1, 52, 0
1, 170040, Note_on_c, 1, 64, 127
1, 170070, Note_on_c, 1, 61, 127
1, 170099, Note_off_c, 1, 64, 0
1, 170099, Note_off_c, 1, 61, 0
1, 170190, Note_on_c, 1, 54, 127
1, 170219, Note_off_c, 1, 54, 0
1, 170280, Note_on_c, 1, 66, 127
1, 170309, Note_off_c, 1, 66, 0
1, 170310, Note_on_c, 1, 68, 127
1, 170339, Note_off_c, 1, 68, 0
1, 170460, Note_off_c, 1, 57, 0
1, 170460, Note_on_c, 1, 59, 127
1, 170519, Note_off_c, 1, 59, 0
1, 170520, Note_on_c, 1, 56, 127
1, 170579, Note_off_c, 1, 56, 0
1, 170740, Note_on_c, 1, 80, 127
1, 170760, Note_off_c, 1, 80, 0
1, 170790, Note_on_c, 1, 43, 127
1, 170819, Note_off_c, 1, 43, 0
1, 170820, Note_on_c, 1, 42, 127
1, 170849, Note_off_c, 1, 42, 0
1, 170850, Note_on_c, 1, 40, 127
1, 170879, Note_off_c, 1, 40, 0
1, 171030, Note_on_c, 1, 44, 127
1, 171059, Note_off_c, 1, 44, 0
1, 171900, Note_on_c, 1, 78, 127
1, 171900, Note_on_c, 1, 74, 127
1, 171900, Note_on_c, 1, 71, 127
1, 171900, Note_on_c, 1, 50, 127
1, 171919, Note_off_c, 1, 78, 0
1, 171920, Note_on_c, 1, 76, 127
1, 171939, Note_off_c, 1, 76, 0
1, 171959, Note_off_c, 1, 74, 0
1, 171959, Note_off_c, 1, 71, 0
1, 171959, Note_off_c, 1, 50, 0
1, 171960, Note_on_c, 1, 74, 127
1, 171960, Note_on_c, 1, 71, 127
1, 171960, Note_on_c, 1, 68, 127
1, 171960, Note_on_c, 1, 52, 127
1, 171979, Note_off_c, 1, 74, 0
1, 171980, Note_on_c, 1, 73, 127
1, 171999, Note_off_c, 1, 73, 0
1, 172019, Note_off_c, 1, 71, 0
1, 172019, Note_off_c, 1, 68, 0
1, 172019, Note_off_c, 1, 52, 0
1, 172020, Note_on_c, 1, 73, 127
1, 172020, Note_on_c, 1, 69, 127
1, 172020, Note_on_c, 1, 57, 127
1, 172039, Note_off_c, 1, 73, 0
1, 172079, Note_off_c, 1, 57, 0
1, 172080, Note_on_c, 1, 76, 127
1, 172080, Note_on_c, 1, 52, 127
1, 172099, Note_off_c, 1, 76, 0
1, 172139, Note_off_c, 1, 52, 0
1, 172140, Note_on_c, 1, 81, 127
1, 172140, Note_on_c, 1, 49, 127
1, 172159, Note_off_c, 1, 81, 0
1, 172199, Note_off_c, 1, 69, 0
1, 172199, Note_off_c, 1, 49, 0
1, 172200, Note_on_c, 1, 69, 127
1, 172200, Note_on_c, 1, 64, 127
1, 172200, Note_on_c, 1, 61, 127
1, 172200, Note_on_c, 1, 45, 127
1, 172219, Note_off_c, 1, 69, 0
1, 172220, Note_on_c, 1, 73, 127
1, 172230, Note_off_c, 1, 64, 0
1, 172230, Note_off_c, 1, 61, 0
1, 172239, Note_off_c, 1, 73, 0
1, 172240, Note_on_c, 1, 76, 127
1, 172259, Note_off_c, 1, 45, 0
1, 172259, Note_off_c, 1, 76, 0
1, 172260, Note_on_c, 1, 81, 127
1, 172260, Note_on_c, 1, 69, 127
1, 172279, Note_off_c, 1, 81, 0
1, 172280, Note_on_c, 1, 76, 127
1, 172289, Note_off_c, 1, 69, 0
1, 172299, Note_off_c, 1, 76, 0
1, 172300, Note_on_c, 1, 81, 127
1, 172319, Note_off_c, 1, 81, 0
1, 172320, Note_on_c, 1, 83, 127
1, 172320, Note_on_c, 1, 71, 127
1, 172320, Note_on_c, 1, 64, 127
1, 172320, Note_on_c, 1, 44, 127
1, 172339, Note_off_c, 1, 83, 0
1, 172340, Note_on_c, 1, 76, 127
1, 172350, Note_off_c, 1, 71, 0
1, 172350, Note_off_c, 1, 64, 0
1, 172359, Note_off_c, 1, 76, 0
1, 172379, Note_off_c, 1, 44, 0
1, 172380, Note_on_c, 1, 85, 127
1, 172380, Note_on_c, 1, 73, 127
1, 172380, Note_on_c, 1, 64, 127
1, 172380, Note_on_c, 1, 45, 127
1, 172399, Note_off_c, 1, 85, 0
1, 172400, Note_on_c, 1, 76, 127
1, 172410, Note_off_c, 1, 73, 0
1, 172410, Note_off_c, 1, 64, 0
1, 172419, Note_off_c, 1, 76, 0
1, 172420, Note_on_c, 1, 74, 127
1, 172439, Note_off_c, 1, 45, 0
1, 172439, Note_off_c, 1, 74, 0
1, 172440, Note_on_c, 1, 73, 127
1, 172460, Note_on_c, 1, 71, 127
1, 172469, Note_off_c, 1, 73, 0
1, 172479, Note_off_c, 1, 71, 0
1, 172480, Note_on_c, 1, 69, 127
1, 172499, Note_off_c, 1, 69, 0
1, 172500, Note_on_c, 1, 71, 127
1, 172500, Note_on_c, 1, 68, 127
1, 172500, Note_on_c, 1, 52, 127
1, 172520, Note_on_c, 1, 64, 127
1, 172530, Note_off_c, 1, 71, 0
1, 172530, Note_off_c, 1, 68, 0
1, 172539, Note_off_c, 1, 64, 0
1, 172559, Note_off_c, 1, 52, 0
1, 172560, Note_on_c, 1, 71, 127
1, 172560, Note_on_c, 1, 64, 127
1, 172560, Note_on_c, 1, 68, 127
1, 172560, Note_on_c, 1, 50, 127
1, 172579, Note_off_c, 1, 71, 0
1, 172580, Note_on_c, 1, 76, 127
1, 172590, Note_off_c, 1, 64, 0
1, 172590, Note_off_c, 1, 68, 0
1, 172599, Note_off_c, 1, 76, 0
1, 172600, Note_on_c, 1, 80, 127
1, 172619, Note_off_c, 1, 50, 0
1, 172619, Note_off_c, 1, 80, 0
1, 172620, Note_on_c, 1, 83, 127
1, 172620, Note_on_c, 1, 71, 127
1, 172639, Note_off_c, 1, 83, 0
1, 172640, Note_on_c, 1, 76, 127
1, 172649, Note_off_c, 1, 71, 0
1, 172659, Note_off_c, 1, 76, 0
1, 172660, Note_on_c, 1, 83, 127
1, 172679, Note_off_c, 1, 83, 0
1, 172680, Note_on_c, 1, 85, 127
1, 172680, Note_on_c, 1, 73, 127
1, 172680, Note_on_c, 1, 69, 127
1, 172680, Note_on_c, 1, 49, 127
1, 172699, Note_off_c, 1, 85, 0
1, 172700, Note_on_c, 1, 81, 127
1, 172710, Note_off_c, 1, 73, 0
1, 172710, Note_off_c, 1, 69, 0
1, 172719, Note_off_c, 1, 81, 0
1, 172739, Note_off_c, 1, 49, 0
1, 172740, Note_on_c, 1, 86, 127
1, 172740, Note_on_c, 1, 74, 127
1, 172740, Note_on_c, 1, 68, 127
1, 172740, Note_on_c, 1, 47, 127
1, 172759, Note_off_c, 1, 86, 0
1, 172760, Note_on_c, 1, 78, 127
1, 172770, Note_off_c, 1, 74, 0
1, 172770, Note_off_c, 1, 68, 0
1, 172779, Note_off_c, 1, 78, 0
1, 172780, Note_on_c, 1, 76, 127
1, 172799, Note_off_c, 1, 47, 0
1, 172799, Note_off_c, 1, 76, 0
1, 172800, Note_on_c, 1, 74, 127
1, 172820, Note_on_c, 1, 73, 127
1, 172830, Note_off_c, 1, 74, 0
1, 172839, Note_off_c, 1, 73, 0
1, 172840, Note_on_c, 1, 71, 127
1, 172859, Note_off_c, 1, 71, 0
1, 172860, Note_on_c, 1, 73, 127
1, 172860, Note_on_c, 1, 64, 127
1, 172860, Note_on_c, 1, 45, 127
1, 172890, Note_off_c, 1, 73, 0
1, 172899, Note_off_c, 1, 64, 0
1, 172900, Note_on_c, 1, 69, 127
1, 172919, Note_off_c, 1, 45, 0
1, 172919, Note_off_c, 1, 69, 0
1, 172920, Note_on_c, 1, 73, 127
1, 172920, Note_on_c, 1, 76, 127
1, 172920, Note_on_c, 1, 57, 127
1, 172950, Note_off_c, 1, 73, 0
1, 172959, Note_off_c, 1, 76, 0
1, 172960, Note_on_c, 1, 81, 127
1, 172979, Note_off_c, 1, 57, 0
1, 172979, Note_off_c, 1, 81, 0
1, 172980, Note_on_c, 1, 85, 127
1, 172980, Note_on_c, 1, 76, 127
1, 172999, Note_off_c, 1, 85, 0
1, 173000, Note_on_c, 1, 69, 127
1, 173010, Note_off_c, 1, 76, 0
1, 173019, Note_off_c, 1, 69, 0
1, 173020, Note_on_c, 1, 73, 127
1, 173039, Note_off_c, 1, 73, 0
1, 173040, Note_on_c, 1, 76, 127
1, 173040, Note_on_c, 1, 73, 127
1, 173040, Note_on_c, 1, 56, 127
1, 173070, Note_off_c, 1, 76, 0
1, 173079, Note_off_c, 1, 73, 0
1, 173099, Note_off_c, 1, 56, 0
1, 173100, Note_on_c, 1, 81, 127
1, 173100, Note_on_c, 1, 76, 127
1, 173100, Note_on_c, 1, 69, 127
1, 173100, Note_on_c, 1, 54, 127
1, 173119, Note_off_c, 1, 81, 0
1, 173130, Note_off_c, 1, 69, 0
1, 173139, Note_off_c, 1, 76, 0
1, 173140, Note_on_c, 1, 73, 127
1, 173159, Note_off_c, 1, 54, 0
1, 173159, Note_off_c, 1, 73, 0
1, 173160, Note_on_c, 1, 69, 127
1, 173160, Note_on_c, 1, 74, 127
1, 173179, Note_off_c, 1, 69, 0
1, 173190, Note_on_c, 1, 73, 127
1, 173199, Note_off_c, 1, 74, 0
1, 173219, Note_off_c, 1, 73, 0
1, 173220, Note_on_c, 1, 71, 127
1, 173220, Note_on_c, 1, 66, 127
1, 173220, Note_on_c, 1, 50, 127
1, 173240, Note_on_c, 1, 73, 127
1, 173249, Note_off_c, 1, 71, 0
1, 173250, Note_off_c, 1, 66, 0
1, 173250, Note_on_c, 1, 69, 127
1, 173259, Note_off_c, 1, 73, 0
1, 173279, Note_off_c, 1, 50, 0
1, 173279, Note_off_c, 1, 69, 0
1, 173280, Note_on_c, 1, 68, 127
1, 173280, Note_on_c, 1, 71, 127
1, 173280, Note_on_c, 1, 52, 127
1, 173300, Note_on_c, 1, 69, 127
1, 173310, Note_off_c, 1, 68, 0
1, 173310, Note_off_c, 1, 71, 0
1, 173319, Note_off_c, 1, 69, 0
1, 173320, Note_on_c, 1, 66, 127
1, 173339, Note_off_c, 1, 52, 0
1, 173339, Note_off_c, 1, 66, 0
1, 173340, Note_on_c, 1, 64, 127
1, 173340, Note_on_c, 1, 74, 127
1, 173359, Note_off_c, 1, 64, 0
1, 173360, Note_on_c, 1, 68, 127
1, 173369, Note_off_c, 1, 74, 0
1, 173379, Note_off_c, 1, 68, 0
1, 173380, Note_on_c, 1, 71, 127
1, 173399, Note_off_c, 1, 71, 0
1, 173400, Note_on_c, 1, 76, 127
1, 173400, Note_on_c, 1, 73, 127
1, 173400, Note_on_c, 1, 69, 127
1, 173400, Note_on_c, 1, 45, 127
1, 173419, Note_off_c, 1, 76, 0
1, 173420, Note_on_c, 1, 74, 127
1, 173430, Note_off_c, 1, 73, 0
1, 173430, Note_off_c, 1, 69, 0
1, 173439, Note_off_c, 1, 74, 0
1, 173459, Note_off_c, 1, 45, 0
1, 173460, Note_on_c, 1, 71, 127
1, 173460, Note_on_c, 1, 68, 127
1, 173460, Note_on_c, 1, 52, 127
1, 173480, Note_on_c, 1, 76, 127
1, 173499, Note_off_c, 1, 76, 0
1, 173549, Note_off_c, 1, 52, 0
1, 173550, Note_on_c, 1, 50, 127
1, 173579, Note_off_c, 1, 68, 0
1, 173579, Note_off_c, 1, 50, 0
1, 173580, Note_off_c, 1, 71, 0
1, 173580, Note_on_c, 1, 64, 127
1, 173580, Note_on_c, 1, 49, 127
1, 173609, Note_off_c, 1, 49, 0
1, 173610, Note_on_c, 1, 47, 127
1, 173639, Note_off_c, 1, 47, 0
1, 173640, Note_on_c, 1, 61, 127
1, 173640, Note_on_c, 1, 57, 127
1, 173640, Note_on_c, 1, 45, 127
1, 173699, Note_off_c, 1, 61, 0
1, 173699, Note_off_c, 1, 57, 0
1, 173699, Note_off_c, 1, 45, 0
1, 173700, Note_on_c, 1, 69, 127
1, 173759, Note_off_c, 1, 64, 0
1, 173760, Note_off_c, 1, 69, 0
1, 173850, Note_on_c, 1, 73, 127
1, 173940, Note_off_c, 1, 73, 0
1, 174000, Note_on_c, 1, 56, 127
1, 174059, Note_off_c, 1, 56, 0
1, 174060, Note_on_c, 1, 62, 127
1, 174119, Note_off_c, 1, 62, 0
1, 174180, Note_on_c, 1, 59, 127
1, 174210, Note_on_c, 1, 74, 127
1, 174239, Note_off_c, 1, 59, 0
1, 174300, Note_off_c, 1, 74, 0
1, 174390, Note_on_c, 1, 66, 127
1, 174419, Note_off_c, 1, 66, 0
1, 174420, Note_on_c, 1, 76, 127
1, 174420, Note_on_c, 1, 68, 127
1, 174420, Note_on_c, 1, 64, 127
1, 174449, Note_off_c, 1, 68, 0
1, 174449, Note_off_c, 1, 64, 0
1, 174450, Note_on_c, 1, 66, 127
1, 174450, Note_on_c, 1, 62, 127
1, 174479, Note_off_c, 1, 76, 0
1, 174479, Note_off_c, 1, 66, 0
1, 174479, Note_off_c, 1, 62, 0
1, 174480, Note_on_c, 1, 76, 127
1, 174480, Note_on_c, 1, 64, 127
1, 174480, Note_on_c, 1, 61, 127
1, 174509, Note_off_c, 1, 64, 0
1, 174509, Note_off_c, 1, 61, 0
1, 174510, Note_on_c, 1, 62, 127
1, 174510, Note_on_c, 1, 59, 127
1, 174539, Note_off_c, 1, 76, 0
1, 174539, Note_off_c, 1, 62, 0
1, 174539, Note_off_c, 1, 59, 0
1, 174540, Note_on_c, 1, 76, 127
1, 174540, Note_on_c, 1, 61, 127
1, 174540, Note_on_c, 1, 57, 127
1, 174570, Note_on_c, 1, 56, 127
1, 174599, Note_off_c, 1, 76, 0
1, 174599, Note_off_c, 1, 61, 0
1, 174599, Note_off_c, 1, 57, 0
1, 174599, Note_off_c, 1, 56, 0
1, 174600, Note_on_c, 1, 74, 127
1, 174600, Note_on_c, 1, 62, 127
1, 174600, Note_on_c, 1, 57, 127
1, 174600, Note_on_c, 1, 54, 127
1, 174629, Note_off_c, 1, 74, 0
1, 174629, Note_off_c, 1, 54, 0
1, 174630, Note_on_c, 1, 73, 127
1, 174630, Note_on_c, 1, 52, 127
1, 174659, Note_off_c, 1, 62, 0
1, 174659, Note_off_c, 1, 57, 0
1, 174659, Note_off_c, 1, 73, 0
1, 174659, Note_off_c, 1, 52, 0
1, 174660, Note_on_c, 1, 71, 127
1, 174660, Note_on_c, 1, 66, 127
1, 174660, Note_on_c, 1, 62, 127
1, 174660, Note_on_c, 1, 50, 127
1, 174689, Note_off_c, 1, 71, 0
1, 174689, Note_off_c, 1, 66, 0
1, 174689, Note_off_c, 1, 62, 0
1, 174690, Note_on_c, 1, 69, 127
1, 174690, Note_on_c, 1, 64, 127
1, 174690, Note_on_c, 1, 61, 127
1, 174719, Note_off_c, 1, 50, 0
1, 174719, Note_off_c, 1, 69, 0
1, 174719, Note_off_c, 1, 64, 0
1, 174719, Note_off_c, 1, 61, 0
1, 174720, Note_on_c, 1, 68, 127
1, 174720, Note_on_c, 1, 62, 127
1, 174720, Note_on_c, 1, 59, 127
1, 174749, Note_off_c, 1, 59, 0
1, 174750, Note_on_c, 1, 57, 127
1, 174779, Note_off_c, 1, 68, 0
1, 174779, Note_off_c, 1, 62, 0
1, 174779, Note_off_c, 1, 57, 0
1, 174780, Note_on_c, 1, 74, 127
1, 174780, Note_on_c, 1, 71, 127
1, 174780, Note_on_c, 1, 56, 127
1, 174780, Note_on_c, 1, 40, 127
1, 174809, Note_off_c, 1, 56, 0
1, 174810, Note_on_c, 1, 54, 127
1, 174839, Note_off_c, 1, 74, 0
1, 174839, Note_off_c, 1, 71, 0
1, 174839, Note_off_c, 1, 40, 0
1, 174839, Note_off_c, 1, 54, 0
1, 174840, Note_on_c, 1, 73, 127
1, 174840, Note_on_c, 1, 69, 127
1, 174840, Note_on_c, 1, 52, 127
1, 174840, Note_on_c, 1, 45, 127
1, 174869, Note_off_c, 1, 52, 0
1, 174870, Note_on_c, 1, 51, 127
1, 174899, Note_off_c, 1, 73, 0
1, 174899, Note_off_c, 1, 69, 0
1, 174899, Note_off_c, 1, 45, 0
1, 174899, Note_off_c, 1, 51, 0
1, 174900, Note_on_c, 1, 71, 127
1, 174900, Note_on_c, 1, 68, 127
1, 174900, Note_on_c, 1, 52, 127
1, 174960, Note_on_c, 1, 50, 127
1, 174989, Note_off_c, 1, 50, 0
1, 174990, Note_on_c, 1, 49, 127
1, 175000, Note_on_c, 1, 69, 127
1, 175019, Note_off_c, 1, 68, 0
1, 175019, Note_off_c, 1, 52, 0
1, 175019, Note_off_c, 1, 49, 0
1, 175020, Note_off_c, 1, 69, 0
1, 175020, Note_on_c, 1, 47, 127
1, 175039, Note_off_c, 1, 71, 0
1, 175040, Note_on_c, 1, 73, 127
1, 175049, Note_off_c, 1, 47, 0
1, 175050, Note_on_c, 1, 45, 127
1, 175059, Note_off_c, 1, 73, 0
1, 175060, Note_on_c, 1, 74, 127
1, 175079, Note_off_c, 1, 45, 0
1, 175079, Note_off_c, 1, 74, 0
1, 175080, Note_on_c, 1, 76, 127
1, 175080, Note_on_c, 1, 71, 127
1, 175080, Note_on_c, 1, 44, 127
1, 175100, Note_on_c, 1, 78, 127
1, 175110, Note_off_c, 1, 76, 0
1, 175110, Note_off_c, 1, 71, 0
1, 175119, Note_off_c, 1, 78, 0
1, 175139, Note_off_c, 1, 44, 0
1, 175140, Note_on_c, 1, 74, 127
1, 175160, Note_on_c, 1, 76, 127
1, 175170, Note_off_c, 1, 74, 0
1, 175179, Note_off_c, 1, 76, 0
1, 175180, Note_on_c, 1, 74, 127
1, 175199, Note_off_c, 1, 74, 0
1, 175200, Note_on_c, 1, 73, 127
1, 175200, Note_on_c, 1, 66, 127
1, 175200, Note_on_c, 1, 46, 127
1, 175220, Note_on_c, 1, 74, 127
1, 175230, Note_off_c, 1, 73, 0
1, 175230, Note_off_c, 1, 66, 0
1, 175239, Note_off_c, 1, 74, 0
1, 175259, Note_off_c, 1, 46, 0
1, 175260, Note_on_c, 1, 74, 127
1, 175260, Note_on_c, 1, 66, 127
1, 175260, Note_on_c, 1, 47, 127
1, 175280, Note_on_c, 1, 71, 127
1, 175290, Note_off_c, 1, 74, 0
1, 175290, Note_off_c, 1, 66, 0
1, 175299, Note_off_c, 1, 71, 0
1, 175300, Note_on_c, 1, 73, 127
1, 175319, Note_off_c, 1, 47, 0
1, 175319, Note_off_c, 1, 73, 0
1, 175320, Note_on_c, 1, 74, 127
1, 175320, Note_on_c, 1, 78, 127
1, 175339, Note_off_c, 1, 74, 0
1, 175340, Note_on_c, 1, 76, 127
1, 175350, Note_off_c, 1, 78, 0
1, 175359, Note_off_c, 1, 76, 0
1, 175360, Note_on_c, 1, 78, 127
1, 175379, Note_off_c, 1, 78, 0
1, 175380, Note_on_c, 1, 79, 127
1, 175380, Note_on_c, 1, 76, 127
1, 175380, Note_on_c, 1, 70, 127
1, 175380, Note_on_c, 1, 42, 127
1, 175399, Note_off_c, 1, 79, 0
1, 175400, Note_on_c, 1, 78, 127
1, 175410, Note_off_c, 1, 76, 0
1, 175410, Note_off_c, 1, 70, 0
1, 175419, Note_off_c, 1, 78, 0
1, 175439, Note_off_c, 1, 42, 0
1, 175440, Note_on_c, 1, 74, 127
1, 175440, Note_on_c, 1, 71, 127
1, 175440, Note_on_c, 1, 47, 127
1, 175460, Note_on_c, 1, 76, 127
1, 175470, Note_off_c, 1, 74, 0
1, 175470, Note_off_c, 1, 71, 0
1, 175479, Note_off_c, 1, 76, 0
1, 175499, Note_off_c, 1, 47, 0
1, 175500, Note_on_c, 1, 73, 127
1, 175520, Note_on_c, 1, 74, 127
1, 175530, Note_off_c, 1, 73, 0
1, 175539, Note_off_c, 1, 74, 0
1, 175540, Note_on_c, 1, 73, 127
1, 175559, Note_off_c, 1, 73, 0
1, 175560, Note_on_c, 1, 71, 127
1, 175560, Note_on_c, 1, 64, 127
1, 175560, Note_on_c, 1, 44, 127
1, 175580, Note_on_c, 1, 73, 127
1, 175590, Note_off_c, 1, 71, 0
1, 175590, Note_off_c, 1, 64, 0
1, 175599, Note_off_c, 1, 73, 0
1, 175619, Note_off_c, 1, 44, 0
1, 175620, Note_on_c, 1, 73, 127
1, 175620, Note_on_c, 1, 64, 127
1, 175620, Note_on_c, 1, 45, 127
1, 175640, Note_on_c, 1, 69, 127
1, 175650, Note_off_c, 1, 73, 0
1, 175650, Note_off_c, 1, 64, 0
1, 175659, Note_off_c, 1, 69, 0
1, 175660, Note_on_c, 1, 71, 127
1, 175679, Note_off_c, 1, 45, 0
1, 175679, Note_off_c, 1, 71, 0
1, 175680, Note_on_c, 1, 73, 127
1, 175680, Note_on_c, 1, 76, 127
1, 175699, Note_off_c, 1, 73, 0
1, 175700, Note_on_c, 1, 74, 127
1, 175710, Note_off_c, 1, 76, 0
1, 175719, Note_off_c, 1, 74, 0
1, 175720, Note_on_c, 1, 76, 127
1, 175739, Note_off_c, 1, 76, 0
1, 175740, Note_on_c, 1, 78, 127
1, 175740, Note_on_c, 1, 74, 127
1, 175740, Note_on_c, 1, 68, 127
1, 175740, Note_on_c, 1, 40, 127
1, 175759, Note_off_c, 1, 78, 0
1, 175760, Note_on_c, 1, 76, 127
1, 175770, Note_off_c, 1, 74, 0
1, 175770, Note_off_c, 1, 68, 0
1, 175779, Note_off_c, 1, 76, 0
1, 175799, Note_off_c, 1, 40, 0
1, 175800, Note_on_c, 1, 73, 127
1, 175800, Note_on_c, 1, 64, 127
1, 175800, Note_on_c, 1, 69, 127
1, 175800, Note_on_c, 1, 45, 127
1, 175819, Note_off_c, 1, 73, 0
1, 175820, Note_on_c, 1, 74, 127
1, 175830, Note_off_c, 1, 64, 0
1, 175830, Note_off_c, 1, 69, 0
1, 175839, Note_off_c, 1, 74, 0
1, 175859, Note_off_c, 1, 45, 0
1, 175860, Note_on_c, 1, 71, 127
1, 175860, Note_on_c, 1, 64, 127
1, 175879, Note_off_c, 1, 71, 0
1, 175880, Note_on_c, 1, 73, 127
1, 175890, Note_off_c, 1, 64, 0
1, 175899, Note_off_c, 1, 73, 0
1, 175900, Note_on_c, 1, 71, 127
1, 175919, Note_off_c, 1, 71, 0
1, 175920, Note_on_c, 1, 69, 127
1, 175920, Note_on_c, 1, 64, 127
1, 175920, Note_on_c, 1, 61, 127
1, 175920, Note_on_c, 1, 49, 127
1, 175939, Note_off_c, 1, 69, 0
1, 175940, Note_on_c, 1, 71, 127
1, 175950, Note_off_c, 1, 64, 0
1, 175950, Note_off_c, 1, 61, 0
1, 175959, Note_off_c, 1, 71, 0
1, 175979, Note_off_c, 1, 49, 0
1, 175980, Note_on_c, 1, 68, 127
1, 175980, Note_on_c, 1, 64, 127
1, 175980, Note_on_c, 1, 59, 127
1, 175980, Note_on_c, 1, 52, 127
1, 175999, Note_off_c, 1, 68, 0
1, 176000, Note_on_c, 1, 66, 127
1, 176010, Note_off_c, 1, 64, 0
1, 176010, Note_off_c, 1, 59, 0
1, 176019, Note_off_c, 1, 66, 0
1, 176039, Note_off_c, 1, 52, 0
1, 176040, Note_on_c, 1, 69, 127
1, 176040, Note_on_c, 1, 66, 127
1, 176059, Note_off_c, 1, 69, 0
1, 176060, Note_on_c, 1, 71, 127
1, 176069, Note_off_c, 1, 66, 0
1, 176070, Note_on_c, 1, 68, 127
1, 176079, Note_off_c, 1, 71, 0
1, 176080, Note_on_c, 1, 73, 127
1, 176099, Note_off_c, 1, 68, 0
1, 176099, Note_off_c, 1, 73, 0
1, 176100, Note_on_c, 1, 74, 127
1, 176100, Note_on_c, 1, 69, 127
1, 176100, Note_on_c, 1, 66, 127
1, 176100, Note_on_c, 1, 54, 127
1, 176119, Note_off_c, 1, 74, 0
1, 176120, Note_on_c, 1, 73, 127
1, 176129, Note_off_c, 1, 69, 0
1, 176130, Note_off_c, 1, 66, 0
1, 176130, Note_on_c, 1, 71, 127
1, 176139, Note_off_c, 1, 73, 0
1, 176159, Note_off_c, 1, 54, 0
1, 176159, Note_off_c, 1, 71, 0
1, 176160, Note_on_c, 1, 73, 127
1, 176160, Note_on_c, 1, 69, 127
1, 176160, Note_on_c, 1, 50, 127
1, 176180, Note_on_c, 1, 71, 127
1, 176190, Note_off_c, 1, 73, 0
1, 176190, Note_off_c, 1, 69, 0
1, 176199, Note_off_c, 1, 71, 0
1, 176219, Note_off_c, 1, 50, 0
1, 176220, Note_on_c, 1, 68, 127
1, 176220, Note_on_c, 1, 74, 127
1, 176239, Note_off_c, 1, 68, 0
1, 176240, Note_on_c, 1, 64, 127
1, 176249, Note_off_c, 1, 74, 0
1, 176259, Note_off_c, 1, 64, 0
1, 176260, Note_on_c, 1, 68, 127
1, 176279, Note_off_c, 1, 68, 0
1, 176280, Note_on_c, 1, 71, 127
1, 176280, Note_on_c, 1, 68, 127
1, 176280, Note_on_c, 1, 64, 127
1, 176280, Note_on_c, 1, 52, 127
1, 176300, Note_on_c, 1, 74, 127
1, 176309, Note_off_c, 1, 71, 0
1, 176310, Note_off_c, 1, 68, 0
1, 176310, Note_off_c, 1, 64, 0
1, 176319, Note_off_c, 1, 74, 0
1, 176339, Note_off_c, 1, 52, 0
1, 176340, Note_on_c, 1, 73, 127
1, 176340, Note_on_c, 1, 69, 127
1, 176340, Note_on_c, 1, 64, 127
1, 176340, Note_on_c, 1, 61, 127
1, 176340, Note_on_c, 1, 45, 127
1, 176359, Note_off_c, 1, 73, 0
1, 176400, Note_on_c, 1, 76, 127
1, 176419, Note_off_c, 1, 76, 0
1, 176420, Note_on_c, 1, 81, 127
1, 176429, Note_off_c, 1, 45, 0
1, 176430, Note_on_c, 1, 47, 127
1, 176439, Note_off_c, 1, 81, 0
1, 176459, Note_off_c, 1, 69, 0
1, 176459, Note_off_c, 1, 64, 0
1, 176459, Note_off_c, 1, 61, 0
1, 176459, Note_off_c, 1, 47, 0
1, 176460, Note_on_c, 1, 73, 127
1, 176460, Note_on_c, 1, 45, 127
1, 176479, Note_off_c, 1, 73, 0
1, 176480, Note_on_c, 1, 69, 127
1, 176489, Note_off_c, 1, 45, 0
1, 176490, Note_on_c, 1, 43, 127
1, 176499, Note_off_c, 1, 69, 0
1, 176519, Note_off_c, 1, 43, 0
1, 176520, Note_on_c, 1, 76, 127
1, 176520, Note_on_c, 1, 70, 127
1, 176520, Note_on_c, 1, 61, 127
1, 176520, Note_on_c, 1, 42, 127
1, 176579, Note_off_c, 1, 76, 0
1, 176579, Note_off_c, 1, 70, 0
1, 176579, Note_off_c, 1, 61, 0
1, 176579, Note_off_c, 1, 42, 0
1, 176580, Note_on_c, 1, 74, 127
1, 176580, Note_on_c, 1, 71, 127
1, 176580, Note_on_c, 1, 66, 127
1, 176639, Note_off_c, 1, 74, 0
1, 176639, Note_off_c, 1, 71, 0
1, 176639, Note_off_c, 1, 66, 0
1, 176640, Note_on_c, 1, 73, 127
1, 176640, Note_on_c, 1, 70, 127
1, 176640, Note_on_c, 1, 54, 127
1, 176699, Note_off_c, 1, 73, 0
1, 176699, Note_off_c, 1, 70, 0
1, 176699, Note_off_c, 1, 54, 0
1, 176700, Note_on_c, 1, 74, 127
1, 176700, Note_on_c, 1, 71, 127
1, 176700, Note_on_c, 1, 59, 127
1, 176759, Note_off_c, 1, 71, 0
1, 176759, Note_off_c, 1, 59, 0
1, 176760, Note_on_c, 1, 66, 127
1, 176760, Note_on_c, 1, 62, 127
1, 176760, Note_on_c, 1, 54, 127
1, 176789, Note_off_c, 1, 74, 0
1, 176789, Note_off_c, 1, 54, 0
1, 176790, Note_on_c, 1, 76, 127
1, 176790, Note_on_c, 1, 52, 127
1, 176804, Note_off_c, 1, 76, 0
1, 176805, Note_on_c, 1, 78, 127
1, 176819, Note_off_c, 1, 66, 0
1, 176819, Note_off_c, 1, 62, 0
1, 176819, Note_off_c, 1, 52, 0
1, 176819, Note_off_c, 1, 78, 0
1, 176820, Note_on_c, 1, 76, 127
1, 176820, Note_on_c, 1, 70, 127
1, 176820, Note_on_c, 1, 64, 127
1, 176820, Note_on_c, 1, 50, 127
1, 176849, Note_off_c, 1, 50, 0
1, 176850, Note_on_c, 1, 49, 127
1, 176879, Note_off_c, 1, 76, 0
1, 176879, Note_off_c, 1, 70, 0
1, 176879, Note_off_c, 1, 64, 0
1, 176879, Note_off_c, 1, 49, 0
1, 176880, Note_on_c, 1, 74, 127
1, 176880, Note_on_c, 1, 71, 127
1, 176880, Note_on_c, 1, 66, 127
1, 176880, Note_on_c, 1, 47, 127
1, 176939, Note_off_c, 1, 74, 0
1, 176939, Note_off_c, 1, 71, 0
1, 176939, Note_off_c, 1, 66, 0
1, 176939, Note_off_c, 1, 47, 0
1, 176940, Note_on_c, 1, 73, 127
1, 176940, Note_on_c, 1, 69, 127
1, 176940, Note_on_c, 1, 62, 127
1, 176999, Note_off_c, 1, 73, 0
1, 176999, Note_off_c, 1, 69, 0
1, 176999, Note_off_c, 1, 62, 0
1, 177000, Note_on_c, 1, 71, 127
1, 177000, Note_on_c, 1, 68, 127
1, 177000, Note_on_c, 1, 64, 127
1, 177059, Note_off_c, 1, 71, 0
1, 177059, Note_off_c, 1, 68, 0
1, 177059, Note_off_c, 1, 64, 0
1, 177060, Note_on_c, 1, 73, 127
1, 177060, Note_on_c, 1, 69, 127
1, 177060, Note_on_c, 1, 57, 127
1, 177119, Note_off_c, 1, 69, 0
1, 177119, Note_off_c, 1, 57, 0
1, 177120, Note_on_c, 1, 64, 127
1, 177120, Note_on_c, 1, 61, 127
1, 177120, Note_on_c, 1, 52, 127
1, 177149, Note_off_c, 1, 73, 0
1, 177149, Note_off_c, 1, 52, 0
1, 177150, Note_on_c, 1, 74, 127
1, 177150, Note_on_c, 1, 50, 127
1, 177164, Note_off_c, 1, 74, 0
1, 177165, Note_on_c, 1, 76, 127
1, 177179, Note_off_c, 1, 64, 0
1, 177179, Note_off_c, 1, 61, 0
1, 177179, Note_off_c, 1, 50, 0
1, 177179, Note_off_c, 1, 76, 0
1, 177180, Note_on_c, 1, 74, 127
1, 177180, Note_on_c, 1, 68, 127
1, 177180, Note_on_c, 1, 62, 127
1, 177180, Note_on_c, 1, 49, 127
1, 177209, Note_off_c, 1, 49, 0
1, 177210, Note_on_c, 1, 47, 127
1, 177239, Note_off_c, 1, 74, 0
1, 177239, Note_off_c, 1, 68, 0
1, 177239, Note_off_c, 1, 62, 0
1, 177239, Note_off_c, 1, 47, 0
1, 177240, Note_on_c, 1, 64, 127
1, 177240, Note_on_c, 1, 69, 127
1, 177240, Note_on_c, 1, 61, 127
1, 177240, Note_on_c, 1, 45, 127
1, 177269, Note_off_c, 1, 69, 0
1, 177269, Note_off_c, 1, 61, 0
1, 177270, Note_on_c, 1, 73, 127
1, 177299, Note_off_c, 1, 64, 0
1, 177299, Note_off_c, 1, 45, 0
1, 177299, Note_off_c, 1, 73, 0
1, 177300, Note_on_c, 1, 64, 127
1, 177300, Note_on_c, 1, 71, 127
1, 177300, Note_on_c, 1, 62, 127
1, 177329, Note_off_c, 1, 71, 0
1, 177329, Note_off_c, 1, 62, 0
1, 177330, Note_on_c, 1, 69, 127
1, 177330, Note_on_c, 1, 61, 127
1, 177359, Note_off_c, 1, 64, 0
1, 177359, Note_off_c, 1, 69, 0
1, 177359, Note_off_c, 1, 61, 0
1, 177360, Note_on_c, 1, 64, 127
1, 177360, Note_on_c, 1, 68, 127
1, 177360, Note_on_c, 1, 59, 127
1, 177389, Note_off_c, 1, 68, 0
1, 177389, Note_off_c, 1, 59, 0
1, 177390, Note_on_c, 1, 66, 127
1, 177390, Note_on_c, 1, 57, 127
1, 177419, Note_off_c, 1, 64, 0
1, 177419, Note_off_c, 1, 66, 0
1, 177419, Note_off_c, 1, 57, 0
1, 177420, Note_on_c, 1, 64, 127
1, 177420, Note_on_c, 1, 56, 127
1, 177450, Note_on_c, 1, 50, 127
1, 177479, Note_off_c, 1, 64, 0
1, 177479, Note_off_c, 1, 56, 0
1, 177479, Note_off_c, 1, 50, 0
1, 177480, Note_on_c, 1, 66, 127
1, 177480, Note_on_c, 1, 57, 127
1, 177480, Note_on_c, 1, 49, 127
1, 177509, Note_off_c, 1, 66, 0
1, 177509, Note_off_c, 1, 57, 0
1, 177509, Note_off_c, 1, 49, 0
1, 177510, Note_on_c, 1, 68, 127
1, 177510, Note_on_c, 1, 59, 127
1, 177510, Note_on_c, 1, 62, 127
1, 177510, Note_on_c, 1, 47, 127
1, 177539, Note_off_c, 1, 68, 0
1, 177539, Note_off_c, 1, 59, 0
1, 177539, Note_off_c, 1, 62, 0
1, 177539, Note_off_c, 1, 47, 0
1, 177540, Note_on_c, 1, 69, 127
1, 177540, Note_on_c, 1, 61, 127
1, 177540, Note_on_c, 1, 45, 127
1, 177569, Note_off_c, 1, 69, 0
1, 177569, Note_off_c, 1, 61, 0
1, 177569, Note_off_c, 1, 45, 0
1, 177570, Note_on_c, 1, 71, 127
1, 177570, Note_on_c, 1, 64, 127
1, 177570, Note_on_c, 1, 59, 127
1, 177570, Note_on_c, 1, 44, 127
1, 177599, Note_off_c, 1, 71, 0
1, 177599, Note_off_c, 1, 64, 0
1, 177599, Note_off_c, 1, 59, 0
1, 177599, Note_off_c, 1, 44, 0
1, 177600, Note_on_c, 1, 73, 127
1, 177600, Note_on_c, 1, 69, 127
1, 177600, Note_on_c, 1, 57, 127
1, 177600, Note_on_c, 1, 42, 127
1, 177658, Note_off_c, 1, 42, 0
1, 177659, Note_off_c, 1, 73, 0
1, 177659, Note_off_c, 1, 69, 0
1, 177659, Note_off_c, 1, 57, 0
1, 177660, Note_on_c, 1, 74, 127
1, 177660, Note_on_c, 1, 71, 127
1, 177660, Note_on_c, 1, 66, 127
1, 177660, Note_on_c, 1, 38, 127
1, 177718, Note_off_c, 1, 38, 0
1, 177719, Note_off_c, 1, 74, 0
1, 177719, Note_off_c, 1, 71, 0
1, 177719, Note_off_c, 1, 66, 0
1, 177720, Note_on_c, 1, 71, 127
1, 177720, Note_on_c, 1, 68, 127
1, 177720, Note_on_c, 1, 64, 127
1, 177720, Note_on_c, 1, 40, 127
1, 177778, Note_off_c, 1, 40, 0
1, 177779, Note_off_c, 1, 71, 0
1, 177779, Note_off_c, 1, 68, 0
1, 177779, Note_off_c, 1, 64, 0
1, 177780, Note_on_c, 1, 69, 127
1, 177780, Note_on_c, 1, 64, 127
1, 177780, Note_on_c, 1, 61, 127
1, 177780, Note_on_c, 1, 45, 127
1, 177899, Note_off_c, 1, 69, 0
1, 177899, Note_off_c, 1, 64, 0
1, 177899, Note_off_c, 1, 61, 0
1, 177900, Note_off_c, 1, 45, 0
1, 177960, Note_on_c, 1, 42, 127
1, 177960, Note_on_c, 1, 66, 127
1, 177960, Note_on_c, 1, 62, 127
1, 177960, Note_on_c, 1, 69, 127
1, 178140, Note_on_c, 1, 50, 127
1, 178200, Note_off_c, 1, 50, 0
1, 178200, Note_on_c, 1, 57, 127
1, 178320, Note_off_c, 1, 57, 0
1, 178440, Note_off_c, 1, 42, 0
1, 178440, Note_off_c, 1, 62, 0
1, 178440, Note_on_c, 1, 59, 127
1, 178440, Note_on_c, 1, 51, 127
1, 178440, Note_on_c, 1, 63, 127
1, 178560, Note_off_c, 1, 59, 0
1, 178680, Note_on_c, 1, 60, 127
1, 178740, Note_off_c, 1, 60, 0
1, 178860, Note_on_c, 1, 54, 127
1, 178920, Note_off_c, 1, 66, 0
1, 178920, Note_off_c, 1, 69, 0
1, 178920, Note_off_c, 1, 51, 0
1, 178920, Note_off_c, 1, 63, 0
1, 178920, Note_off_c, 1, 54, 0
1, 178920, Note_on_c, 1, 55, 127
1, 178920, Note_on_c, 1, 52, 127
1, 178920, Note_on_c, 1, 67, 127
1, 178920, Note_on_c, 1, 64, 127
1, 179040, Note_off_c, 1, 55, 0
1, 179400, Note_off_c, 1, 52, 0
1, 179400, Note_on_c, 1, 49, 127
1, 179400, Note_on_c, 1, 43, 127
1, 179400, Note_on_c, 1, 61, 127
1, 179520, Note_off_c, 1, 49, 0
1, 179640, Note_off_c, 1, 67, 0
1, 179640, Note_off_c, 1, 64, 0
1, 179640, Note_off_c, 1, 43, 0
1, 179640, Note_off_c, 1, 61, 0
1, 180240, Note_on_c, 1, 48, 127
1, 180360, Note_off_c, 1, 48, 0
1, 180480, Note_on_c, 1, 47, 127
1, 180600, Note_off_c, 1, 47, 0
1, 181140, Note_on_c, 1, 50, 127
1, 181140, Note_on_c, 1, 43, 127
1, 181199, Note_off_c, 1, 50, 0
1, 181199, Note_off_c, 1, 43, 0
1, 181200, Note_on_c, 1, 55, 127
1, 181200, Note_on_c, 1, 47, 127
1, 181200, Note_on_c, 1, 71, 127
1, 181200, Note_on_c, 1, 67, 127
1, 181200, Note_on_c, 1, 62, 127
1, 181259, Note_off_c, 1, 55, 0
1, 181259, Note_off_c, 1, 47, 0
1, 181260, Note_on_c, 1, 54, 127
1, 181260, Note_on_c, 1, 45, 127
1, 181319, Note_off_c, 1, 54, 0
1, 181319, Note_off_c, 1, 45, 0
1, 181320, Note_on_c, 1, 43, 127
1, 181379, Note_off_c, 1, 43, 0
1, 181380, Note_off_c, 1, 71, 0
1, 181380, Note_off_c, 1, 67, 0
1, 181380, Note_on_c, 1, 57, 127
1, 181380, Note_on_c, 1, 50, 127
1, 181380, Note_on_c, 1, 69, 127
1, 181380, Note_on_c, 1, 66, 127
1, 181439, Note_off_c, 1, 57, 0
1, 181439, Note_off_c, 1, 50, 0
1, 181440, Note_on_c, 1, 52, 127
1, 181499, Note_off_c, 1, 52, 0
1, 181560, Note_off_c, 1, 62, 0
1, 181560, Note_off_c, 1, 69, 0
1, 181560, Note_off_c, 1, 66, 0
1, 181560, Note_on_c, 1, 59, 127
1, 181620, Note_on_c, 1, 72, 127
1, 181679, Note_off_c, 1, 72, 0
1, 181739, Note_off_c, 1, 59, 0
1, 181740, Note_on_c, 1, 57, 127
1, 181740, Note_on_c, 1, 62, 127
1, 181740, Note_on_c, 1, 69, 127
1, 181799, Note_off_c, 1, 62, 0
1, 181799, Note_off_c, 1, 69, 0
1, 181800, Note_on_c, 1, 54, 127
1, 181800, Note_on_c, 1, 67, 127
1, 181859, Note_off_c, 1, 57, 0
1, 181859, Note_off_c, 1, 54, 0
1, 181859, Note_off_c, 1, 67, 0
1, 181860, Note_on_c, 1, 57, 127
1, 181860, Note_on_c, 1, 50, 127
1, 181860, Note_on_c, 1, 69, 127
1, 181919, Note_off_c, 1, 57, 0
1, 181919, Note_off_c, 1, 50, 0
1, 181919, Note_off_c, 1, 69, 0
1, 181920, Note_on_c, 1, 59, 127
1, 181920, Note_on_c, 1, 55, 127
1, 181920, Note_on_c, 1, 71, 127
1, 181920, Note_on_c, 1, 67, 127
1, 181979, Note_off_c, 1, 59, 0
1, 181980, Note_on_c, 1, 60, 127
1, 182039, Note_off_c, 1, 55, 0
1, 182039, Note_off_c, 1, 71, 0
1, 182039, Note_off_c, 1, 67, 0
1, 182039, Note_off_c, 1, 60, 0
1, 182040, Note_on_c, 1, 59, 127
1, 182040, Note_on_c, 1, 48, 127
1, 182040, Note_on_c, 1, 67, 127
1, 182040, Note_on_c, 1, 64, 127
1, 182099, Note_off_c, 1, 59, 0
1, 182099, Note_off_c, 1, 48, 0
1, 182099, Note_off_c, 1, 67, 0
1, 182099, Note_off_c, 1, 64, 0
1, 182100, Note_on_c, 1, 57, 127
1, 182100, Note_on_c, 1, 50, 127
1, 182100, Note_on_c, 1, 66, 127
1, 182100, Note_on_c, 1, 69, 127
1, 182159, Note_off_c, 1, 57, 0
1, 182160, Note_on_c, 1, 55, 127
1, 182219, Note_off_c, 1, 50, 0
1, 182219, Note_off_c, 1, 66, 0
1, 182219, Note_off_c, 1, 69, 0
1, 182219, Note_off_c, 1, 55, 0
1, 182220, Note_on_c, 1, 57, 127
1, 182220, Note_on_c, 1, 38, 127
1, 182220, Note_on_c, 1, 60, 127
1, 182220, Note_on_c, 1, 66, 127
1, 182279, Note_off_c, 1, 57, 0
1, 182279, Note_off_c, 1, 38, 0
1, 182279, Note_off_c, 1, 60, 0
1, 182279, Note_off_c, 1, 66, 0
1, 182280, Note_on_c, 1, 55, 127
1, 182280, Note_on_c, 1, 43, 127
1, 182280, Note_on_c, 1, 67, 127
1, 182280, Note_on_c, 1, 62, 127
1, 182280, Note_on_c, 1, 59, 127
1, 182339, Note_off_c, 1, 43, 0
1, 182340, Note_on_c, 1, 47, 127
1, 182399, Note_off_c, 1, 47, 0
1, 182400, Note_on_c, 1, 50, 127
1, 182459, Note_off_c, 1, 67, 0
1, 182459, Note_off_c, 1, 62, 0
1, 182459, Note_off_c, 1, 59, 0
1, 182459, Note_off_c, 1, 50, 0
1, 182579, Note_off_c, 1, 55, 0
1, 182580, Note_on_c, 1, 62, 127
1, 182580, Note_on_c, 1, 74, 127
1, 182580, Note_on_c, 1, 67, 127
1, 182580, Note_on_c, 1, 50, 127
1, 182580, Note_on_c, 1, 47, 127
1, 182639, Note_off_c, 1, 62, 0
1, 182639, Note_off_c, 1, 74, 0
1, 182639, Note_off_c, 1, 67, 0
1, 182639, Note_off_c, 1, 50, 0
1, 182639, Note_off_c, 1, 47, 0
1, 182640, Note_on_c, 1, 67, 127
1, 182640, Note_on_c, 1, 71, 127
1, 182640, Note_on_c, 1, 62, 127
1, 182640, Note_on_c, 1, 55, 127
1, 182640, Note_on_c, 1, 43, 127
1, 182699, Note_off_c, 1, 55, 0
1, 182700, Note_on_c, 1, 74, 127
1, 182700, Note_on_c, 1, 54, 127
1, 182759, Note_off_c, 1, 74, 0
1, 182759, Note_off_c, 1, 54, 0
1, 182819, Note_off_c, 1, 67, 0
1, 182819, Note_off_c, 1, 71, 0
1, 182819, Note_off_c, 1, 62, 0
1, 182819, Note_off_c, 1, 43, 0
1, 182820, Note_on_c, 1, 69, 127
1, 182820, Note_on_c, 1, 62, 127
1, 182820, Note_on_c, 1, 57, 127
1, 182820, Note_on_c, 1, 42, 127
1, 182820, Note_on_c, 1, 66, 127
1, 182879, Note_off_c, 1, 57, 0
1, 182880, Note_on_c, 1, 67, 127
1, 182880, Note_on_c, 1, 74, 127
1, 182880, Note_on_c, 1, 55, 127
1, 182939, Note_off_c, 1, 67, 0
1, 182939, Note_off_c, 1, 74, 0
1, 182939, Note_off_c, 1, 55, 0
1, 182999, Note_off_c, 1, 69, 0
1, 182999, Note_off_c, 1, 62, 0
1, 182999, Note_off_c, 1, 42, 0
1, 182999, Note_off_c, 1, 66, 0
1, 183000, Note_on_c, 1, 71, 127
1, 183000, Note_on_c, 1, 67, 127
1, 183000, Note_on_c, 1, 62, 127
1, 183000, Note_on_c, 1, 59, 127
1, 183000, Note_on_c, 1, 43, 127
1, 183060, Note_on_c, 1, 74, 127
1, 183119, Note_off_c, 1, 74, 0
1, 183179, Note_off_c, 1, 71, 0
1, 183179, Note_off_c, 1, 67, 0
1, 183179, Note_off_c, 1, 62, 0
1, 183179, Note_off_c, 1, 59, 0
1, 183179, Note_off_c, 1, 43, 0
1, 183180, Note_on_c, 1, 69, 127
1, 183180, Note_on_c, 1, 66, 127
1, 183180, Note_on_c, 1, 62, 127
1, 183180, Note_on_c, 1, 57, 127
1, 183180, Note_on_c, 1, 50, 127
1, 183240, Note_on_c, 1, 74, 127
1, 183299, Note_off_c, 1, 57, 0
1, 183299, Note_off_c, 1, 74, 0
1, 183359, Note_off_c, 1, 69, 0
1, 183359, Note_off_c, 1, 66, 0
1, 183359, Note_off_c, 1, 62, 0
1, 183359, Note_off_c, 1, 50, 0
1, 183360, Note_on_c, 1, 71, 127
1, 183360, Note_on_c, 1, 67, 127
1, 183360, Note_on_c, 1, 62, 127
1, 183360, Note_on_c, 1, 59, 127
1, 183360, Note_on_c, 1, 55, 127
1, 183419, Note_off_c, 1, 59, 0
1, 183420, Note_on_c, 1, 72, 127
1, 183420, Note_on_c, 1, 74, 127
1, 183420, Note_on_c, 1, 60, 127
1, 183479, Note_off_c, 1, 71, 0
1, 183479, Note_off_c, 1, 67, 0
1, 183479, Note_off_c, 1, 62, 0
1, 183479, Note_off_c, 1, 55, 0
1, 183479, Note_off_c, 1, 72, 0
1, 183479, Note_off_c, 1, 74, 0
1, 183479, Note_off_c, 1, 60, 0
1, 183480, Note_on_c, 1, 71, 127
1, 183480, Note_on_c, 1, 79, 127
1, 183480, Note_on_c, 1, 62, 127
1, 183480, Note_on_c, 1, 59, 127
1, 183480, Note_on_c, 1, 43, 127
1, 183480, Note_on_c, 1, 67, 127
1, 183539, Note_off_c, 1, 71, 0
1, 183539, Note_off_c, 1, 79, 0
1, 183539, Note_off_c, 1, 62, 0
1, 183539, Note_off_c, 1, 59, 0
1, 183539, Note_off_c, 1, 43, 0
1, 183539, Note_off_c, 1, 67, 0
1, 183540, Note_on_c, 1, 69, 127
1, 183540, Note_on_c, 1, 62, 127
1, 183540, Note_on_c, 1, 57, 127
1, 183540, Note_on_c, 1, 50, 127
1, 183540, Note_on_c, 1, 66, 127
1, 183599, Note_off_c, 1, 57, 0
1, 183600, Note_on_c, 1, 67, 127
1, 183600, Note_on_c, 1, 79, 127
1, 183600, Note_on_c, 1, 55, 127
1, 183659, Note_off_c, 1, 69, 0
1, 183659, Note_off_c, 1, 62, 0
1, 183659, Note_off_c, 1, 50, 0
1, 183659, Note_off_c, 1, 66, 0
1, 183659, Note_off_c, 1, 67, 0
1, 183659, Note_off_c, 1, 79, 0
1, 183659, Note_off_c, 1, 55, 0
1, 183660, Note_on_c, 1, 69, 127
1, 183660, Note_on_c, 1, 78, 127
1, 183660, Note_on_c, 1, 62, 127
1, 183660, Note_on_c, 1, 57, 127
1, 183660, Note_on_c, 1, 38, 127
1, 183660, Note_on_c, 1, 67, 127
1, 183719, Note_off_c, 1, 69, 0
1, 183719, Note_off_c, 1, 78, 0
1, 183719, Note_off_c, 1, 62, 0
1, 183719, Note_off_c, 1, 57, 0
1, 183719, Note_off_c, 1, 38, 0
1, 183719, Note_off_c, 1, 67, 0
1, 183720, Note_on_c, 1, 67, 127
1, 183720, Note_on_c, 1, 79, 127
1, 183720, Note_on_c, 1, 59, 127
1, 183720, Note_on_c, 1, 55, 127
1, 183720, Note_on_c, 1, 43, 127
1, 183720, Note_on_c, 1, 62, 127
1, 183779, Note_off_c, 1, 79, 0
1, 183779, Note_off_c, 1, 43, 0
1, 183780, Note_on_c, 1, 74, 127
1, 183780, Note_on_c, 1, 47, 127
1, 183839, Note_off_c, 1, 62, 0
1, 183839, Note_off_c, 1, 74, 0
1, 183839, Note_off_c, 1, 47, 0
1, 183840, Note_on_c, 1, 71, 127
1, 183840, Note_on_c, 1, 50, 127
1, 183899, Note_off_c, 1, 71, 0
1, 183899, Note_off_c, 1, 50, 0
1, 183960, Note_on_c, 1, 57, 127
1, 184019, Note_off_c, 1, 67, 0
1, 184019, Note_off_c, 1, 59, 0
1, 184019, Note_off_c, 1, 55, 0
1, 184019, Note_off_c, 1, 57, 0
1, 184020, Note_on_c, 1, 59, 127
1, 184020, Note_on_c, 1, 55, 127
1, 184049, Note_off_c, 1, 59, 0
1, 184050, Note_on_c, 1, 60, 127
1, 184079, Note_off_c, 1, 55, 0
1, 184079, Note_off_c, 1, 60, 0
1, 184080, Note_on_c, 1, 62, 127
1, 184080, Note_on_c, 1, 54, 127
1, 184139, Note_off_c, 1, 54, 0
1, 184140, Note_on_c, 1, 52, 127
1, 184199, Note_off_c, 1, 62, 0
1, 184199, Note_off_c, 1, 52, 0
1, 184200, Note_on_c, 1, 62, 127
1, 184200, Note_on_c, 1, 54, 127
1, 184259, Note_off_c, 1, 62, 0
1, 184259, Note_off_c, 1, 54, 0
1, 184260, Note_on_c, 1, 57, 127
1, 184260, Note_on_c, 1, 54, 127
1, 184319, Note_off_c, 1, 57, 0
1, 184319, Note_off_c, 1, 54, 0
1, 184320, Note_on_c, 1, 59, 127
1, 184320, Note_on_c, 1, 52, 127
1, 184379, Note_off_c, 1, 59, 0
1, 184379, Note_off_c, 1, 52, 0
1, 184380, Note_on_c, 1, 60, 127
1, 184380, Note_on_c, 1, 50, 127
1, 184439, Note_off_c, 1, 60, 0
1, 184439, Note_off_c, 1, 50, 0
1, 184440, Note_on_c, 1, 59, 127
1, 184440, Note_on_c, 1, 55, 127
1, 184499, Note_off_c, 1, 59, 0
1, 184500, Note_on_c, 1, 57, 127
1, 184559, Note_off_c, 1, 55, 0
1, 184559, Note_off_c, 1, 57, 0
1, 184560, Note_on_c, 1, 62, 127
1, 184560, Note_on_c, 1, 79, 127
1, 184560, Note_on_c, 1, 59, 127
1, 184560, Note_on_c, 1, 43, 127
1, 184619, Note_off_c, 1, 59, 0
1, 184619, Note_off_c, 1, 43, 0
1, 184620, Note_on_c, 1, 57, 127
1, 184620, Note_on_c, 1, 50, 127
1, 184680, Note_off_c, 1, 79, 0
1, 184680, Note_on_c, 1, 78, 127
1, 184680, Note_on_c, 1, 69, 127
1, 184709, Note_off_c, 1, 62, 0
1, 184739, Note_off_c, 1, 57, 0
1, 184739, Note_off_c, 1, 50, 0
1, 184740, Note_off_c, 1, 78, 0
1, 184740, Note_off_c, 1, 69, 0
1, 184740, Note_on_c, 1, 55, 127
1, 184770, Note_on_c, 1, 60, 127
1, 184799, Note_off_c, 1, 55, 0
1, 184799, Note_off_c, 1, 60, 0
1, 184800, Note_on_c, 1, 62, 127
1, 184800, Note_on_c, 1, 54, 127
1, 184859, Note_off_c, 1, 54, 0
1, 184860, Note_on_c, 1, 52, 127
1, 184919, Note_off_c, 1, 62, 0
1, 184919, Note_off_c, 1, 52, 0
1, 184920, Note_on_c, 1, 62, 127
1, 184920, Note_on_c, 1, 54, 127
1, 184979, Note_off_c, 1, 62, 0
1, 184979, Note_off_c, 1, 54, 0
1, 184980, Note_on_c, 1, 57, 127
1, 184980, Note_on_c, 1, 54, 127
1, 185039, Note_off_c, 1, 57, 0
1, 185039, Note_off_c, 1, 54, 0
1, 185040, Note_on_c, 1, 59, 127
1, 185040, Note_on_c, 1, 52, 127
1, 185099, Note_off_c, 1, 59, 0
1, 185099, Note_off_c, 1, 52, 0
1, 185100, Note_on_c, 1, 60, 127
1, 185100, Note_on_c, 1, 50, 127
1, 185159, Note_off_c, 1, 60, 0
1, 185159, Note_off_c, 1, 50, 0
1, 185160, Note_on_c, 1, 59, 127
1, 185160, Note_on_c, 1, 55, 127
1, 185219, Note_off_c, 1, 59, 0
1, 185220, Note_on_c, 1, 57, 127
1, 185279, Note_off_c, 1, 55, 0
1, 185279, Note_off_c, 1, 57, 0
1, 185280, Note_on_c, 1, 62, 127
1, 185280, Note_on_c, 1, 79, 127
1, 185280, Note_on_c, 1, 59, 127
1, 185280, Note_on_c, 1, 43, 127
1, 185339, Note_off_c, 1, 62, 0
1, 185339, Note_off_c, 1, 79, 0
1, 185339, Note_off_c, 1, 59, 0
1, 185339, Note_off_c, 1, 43, 0
1, 185340, Note_on_c, 1, 62, 127
1, 185340, Note_on_c, 1, 79, 127
1, 185340, Note_on_c, 1, 57, 127
1, 185340, Note_on_c, 1, 50, 127
1, 185399, Note_off_c, 1, 62, 0
1, 185399, Note_off_c, 1, 79, 0
1, 185400, Note_on_c, 1, 78, 127
1, 185400, Note_on_c, 1, 69, 127
1, 185459, Note_off_c, 1, 57, 0
1, 185459, Note_off_c, 1, 50, 0
1, 185459, Note_off_c, 1, 78, 0
1, 185459, Note_off_c, 1, 69, 0
1, 185460, Note_on_c, 1, 62, 127
1, 185460, Note_on_c, 1, 66, 127
1, 185460, Note_on_c, 1, 50, 127
1, 185460, Note_on_c, 1, 48, 127
1, 185519, Note_off_c, 1, 62, 0
1, 185519, Note_off_c, 1, 66, 0
1, 185519, Note_off_c, 1, 50, 0
1, 185519, Note_off_c, 1, 48, 0
1, 185520, Note_on_c, 1, 62, 127
1, 185520, Note_on_c, 1, 67, 127
1, 185520, Note_on_c, 1, 55, 127
1, 185520, Note_on_c, 1, 47, 127
1, 185579, Note_off_c, 1, 62, 0
1, 185579, Note_off_c, 1, 67, 0
1, 185579, Note_off_c, 1, 55, 0
1, 185579, Note_off_c, 1, 47, 0
1, 185580, Note_on_c, 1, 62, 127
1, 185580, Note_on_c, 1, 66, 127
1, 185580, Note_on_c, 1, 60, 127
1, 185580, Note_on_c, 1, 54, 127
1, 185580, Note_on_c, 1, 45, 127
1, 185603, Note_off_c, 1, 62, 0
1, 185639, Note_off_c, 1, 66, 0
1, 185639, Note_off_c, 1, 60, 0
1, 185639, Note_off_c, 1, 54, 0
1, 185639, Note_off_c, 1, 45, 0
1, 185640, Note_on_c, 1, 62, 127
1, 185640, Note_on_c, 1, 67, 127
1, 185640, Note_on_c, 1, 59, 127
1, 185640, Note_on_c, 1, 55, 127
1, 185640, Note_on_c, 1, 43, 127
1, 185663, Note_off_c, 1, 62, 0
1, 185699, Note_off_c, 1, 67, 0
1, 185699, Note_off_c, 1, 59, 0
1, 185699, Note_off_c, 1, 55, 0
1, 185699, Note_off_c, 1, 43, 0
1, 185700, Note_on_c, 1, 62, 127
1, 185700, Note_on_c, 1, 69, 127
1, 185700, Note_on_c, 1, 57, 127
1, 185700, Note_on_c, 1, 42, 127
1, 185747, Note_off_c, 1, 62, 0
1, 185759, Note_off_c, 1, 69, 0
1, 185759, Note_off_c, 1, 57, 0
1, 185759, Note_off_c, 1, 42, 0
1, 185760, Note_on_c, 1, 62, 127
1, 185760, Note_on_c, 1, 67, 127
1, 185760, Note_on_c, 1, 59, 127
1, 185760, Note_on_c, 1, 55, 127
1, 185760, Note_on_c, 1, 40, 127
1, 185783, Note_off_c, 1, 62, 0
1, 185819, Note_off_c, 1, 67, 0
1, 185819, Note_off_c, 1, 59, 0
1, 185819, Note_off_c, 1, 55, 0
1, 185819, Note_off_c, 1, 40, 0
1, 185820, Note_on_c, 1, 62, 127
1, 185820, Note_on_c, 1, 69, 127
1, 185820, Note_on_c, 1, 60, 127
1, 185820, Note_on_c, 1, 57, 127
1, 185820, Note_on_c, 1, 38, 127
1, 185843, Note_off_c, 1, 62, 0
1, 185879, Note_off_c, 1, 69, 0
1, 185879, Note_off_c, 1, 60, 0
1, 185879, Note_off_c, 1, 57, 0
1, 185879, Note_off_c, 1, 38, 0
1, 185880, Note_on_c, 1, 62, 127
1, 185880, Note_on_c, 1, 71, 127
1, 185880, Note_on_c, 1, 59, 127
1, 185880, Note_on_c, 1, 43, 127
1, 185927, Note_off_c, 1, 62, 0
1, 185939, Note_off_c, 1, 43, 0
1, 185940, Note_on_c, 1, 55, 127
1, 185940, Note_on_c, 1, 47, 127
1, 185999, Note_off_c, 1, 55, 0
1, 185999, Note_off_c, 1, 47, 0
1, 186059, Note_off_c, 1, 71, 0
1, 186059, Note_off_c, 1, 59, 0
1, 186060, Note_on_c, 1, 62, 127
1, 186060, Note_on_c, 1, 69, 127
1, 186060, Note_on_c, 1, 57, 127
1, 186060, Note_on_c, 1, 50, 127
1, 186119, Note_off_c, 1, 50, 0
1, 186120, Note_on_c, 1, 54, 127
1, 186179, Note_off_c, 1, 62, 0
1, 186179, Note_off_c, 1, 69, 0
1, 186179, Note_off_c, 1, 57, 0
1, 186179, Note_off_c, 1, 54, 0
1, 186180, Note_on_c, 1, 62, 127
1, 186180, Note_on_c, 1, 69, 127
1, 186180, Note_on_c, 1, 57, 127
1, 186180, Note_on_c, 1, 50, 127
1, 186239, Note_off_c, 1, 62, 0
1, 186239, Note_off_c, 1, 69, 0
1, 186239, Note_off_c, 1, 57, 0
1, 186239, Note_off_c, 1, 50, 0
1, 186240, Note_on_c, 1, 62, 127
1, 186240, Note_on_c, 1, 71, 127
1, 186240, Note_on_c, 1, 59, 127
1, 186240, Note_on_c, 1, 55, 127
1, 186299, Note_off_c, 1, 62, 0
1, 186299, Note_off_c, 1, 71, 0
1, 186299, Note_off_c, 1, 59, 0
1, 186300, Note_on_c, 1, 72, 127
1, 186300, Note_on_c, 1, 66, 127
1, 186300, Note_on_c, 1, 60, 127
1, 186359, Note_off_c, 1, 55, 0
1, 186359, Note_off_c, 1, 72, 0
1, 186359, Note_off_c, 1, 66, 0
1, 186359, Note_off_c, 1, 60, 0
1, 186360, Note_on_c, 1, 62, 127
1, 186360, Note_on_c, 1, 71, 127
1, 186360, Note_on_c, 1, 67, 127
1, 186360, Note_on_c, 1, 59, 127
1, 186360, Note_on_c, 1, 43, 127
1, 186383, Note_off_c, 1, 62, 0
1, 186419, Note_off_c, 1, 71, 0
1, 186419, Note_off_c, 1, 67, 0
1, 186419, Note_off_c, 1, 59, 0
1, 186419, Note_off_c, 1, 43, 0
1, 186420, Note_on_c, 1, 62, 127
1, 186420, Note_on_c, 1, 69, 127
1, 186420, Note_on_c, 1, 66, 127
1, 186420, Note_on_c, 1, 57, 127
1, 186420, Note_on_c, 1, 50, 127
1, 186479, Note_off_c, 1, 62, 0
1, 186479, Note_off_c, 1, 69, 0
1, 186479, Note_off_c, 1, 66, 0
1, 186479, Note_off_c, 1, 57, 0
1, 186480, Note_on_c, 1, 59, 127
1, 186480, Note_on_c, 1, 67, 127
1, 186480, Note_on_c, 1, 55, 127
1, 186539, Note_off_c, 1, 50, 0
1, 186539, Note_off_c, 1, 59, 0
1, 186539, Note_off_c, 1, 67, 0
1, 186539, Note_off_c, 1, 55, 0
1, 186540, Note_on_c, 1, 62, 127
1, 186540, Note_on_c, 1, 69, 127
1, 186540, Note_on_c, 1, 66, 127
1, 186540, Note_on_c, 1, 57, 127
1, 186540, Note_on_c, 1, 38, 127
1, 186599, Note_off_c, 1, 62, 0
1, 186599, Note_off_c, 1, 69, 0
1, 186599, Note_off_c, 1, 66, 0
1, 186599, Note_off_c, 1, 57, 0
1, 186599, Note_off_c, 1, 38, 0
1, 186600, Note_on_c, 1, 59, 127
1, 186600, Note_on_c, 1, 67, 127
1, 186600, Note_on_c, 1, 62, 127
1, 186600, Note_on_c, 1, 55, 127
1, 186600, Note_on_c, 1, 43, 127
1, 186659, Note_off_c, 1, 59, 0
1, 186659, Note_off_c, 1, 67, 0
1, 186659, Note_off_c, 1, 43, 0
1, 186660, Note_on_c, 1, 47, 127
1, 186719, Note_off_c, 1, 47, 0
1, 186720, Note_on_c, 1, 50, 127
1, 186779, Note_off_c, 1, 50, 0
1, 186899, Note_off_c, 1, 62, 0
1, 186899, Note_off_c, 1, 55, 0
1, 186900, Note_on_c, 1, 71, 127
1, 186900, Note_on_c, 1, 55, 127
1, 186929, Note_off_c, 1, 71, 0
1, 186930, Note_on_c, 1, 72, 127
1, 186959, Note_off_c, 1, 55, 0
1, 186959, Note_off_c, 1, 72, 0
1, 186960, Note_on_c, 1, 74, 127
1, 186960, Note_on_c, 1, 54, 127
1, 186960, Note_on_c, 1, 66, 127
1, 186960, Note_on_c, 1, 69, 127
1, 187019, Note_off_c, 1, 74, 0
1, 187019, Note_off_c, 1, 54, 0
1, 187019, Note_off_c, 1, 66, 0
1, 187019, Note_off_c, 1, 69, 0
1, 187020, Note_on_c, 1, 76, 127
1, 187020, Note_on_c, 1, 52, 127
1, 187049, Note_off_c, 1, 52, 0
1, 187050, Note_on_c, 1, 54, 127
1, 187079, Note_off_c, 1, 76, 0
1, 187079, Note_off_c, 1, 54, 0
1, 187080, Note_on_c, 1, 74, 127
1, 187080, Note_on_c, 1, 55, 127
1, 187109, Note_off_c, 1, 55, 0
1, 187110, Note_on_c, 1, 52, 127
1, 187139, Note_off_c, 1, 74, 0
1, 187139, Note_off_c, 1, 52, 0
1, 187140, Note_on_c, 1, 69, 127
1, 187140, Note_on_c, 1, 54, 127
1, 187140, Note_on_c, 1, 66, 127
1, 187199, Note_off_c, 1, 69, 0
1, 187199, Note_off_c, 1, 54, 0
1, 187199, Note_off_c, 1, 66, 0
1, 187200, Note_on_c, 1, 71, 127
1, 187200, Note_on_c, 1, 55, 127
1, 187229, Note_off_c, 1, 55, 0
1, 187230, Note_on_c, 1, 54, 127
1, 187259, Note_off_c, 1, 71, 0
1, 187259, Note_off_c, 1, 54, 0
1, 187260, Note_on_c, 1, 72, 127
1, 187260, Note_on_c, 1, 52, 127
1, 187289, Note_off_c, 1, 52, 0
1, 187290, Note_on_c, 1, 50, 127
1, 187319, Note_off_c, 1, 72, 0
1, 187319, Note_off_c, 1, 50, 0
1, 187320, Note_on_c, 1, 71, 127
1, 187320, Note_on_c, 1, 55, 127
1, 187320, Note_on_c, 1, 67, 127
1, 187379, Note_off_c, 1, 71, 0
1, 187379, Note_off_c, 1, 55, 0
1, 187379, Note_off_c, 1, 67, 0
1, 187380, Note_on_c, 1, 69, 127
1, 187380, Note_on_c, 1, 57, 127
1, 187409, Note_off_c, 1, 57, 0
1, 187410, Note_on_c, 1, 55, 127
1, 187439, Note_off_c, 1, 69, 0
1, 187439, Note_off_c, 1, 55, 0
1, 187440, Note_on_c, 1, 71, 127
1, 187440, Note_on_c, 1, 54, 127
1, 187469, Note_off_c, 1, 54, 0
1, 187470, Note_on_c, 1, 52, 127
1, 187499, Note_off_c, 1, 71, 0
1, 187499, Note_off_c, 1, 52, 0
1, 187500, Note_on_c, 1, 69, 127
1, 187500, Note_on_c, 1, 54, 127
1, 187500, Note_on_c, 1, 66, 127
1, 187559, Note_off_c, 1, 54, 0
1, 187559, Note_off_c, 1, 66, 0
1, 187560, Note_on_c, 1, 50, 127
1, 187619, Note_off_c, 1, 69, 0
1, 187619, Note_off_c, 1, 50, 0
1, 187620, Note_on_c, 1, 62, 127
1, 187620, Note_on_c, 1, 71, 127
1, 187620, Note_on_c, 1, 67, 127
1, 187620, Note_on_c, 1, 55, 127
1, 187649, Note_off_c, 1, 71, 0
1, 187649, Note_off_c, 1, 55, 0
1, 187650, Note_on_c, 1, 72, 127
1, 187650, Note_on_c, 1, 57, 127
1, 187679, Note_off_c, 1, 62, 0
1, 187679, Note_off_c, 1, 67, 0
1, 187679, Note_off_c, 1, 72, 0
1, 187679, Note_off_c, 1, 57, 0
1, 187680, Note_on_c, 1, 62, 127
1, 187680, Note_on_c, 1, 74, 127
1, 187680, Note_on_c, 1, 67, 127
1, 187680, Note_on_c, 1, 59, 127
1, 187680, Note_on_c, 1, 71, 127
1, 187739, Note_off_c, 1, 74, 0
1, 187739, Note_off_c, 1, 59, 0
1, 187740, Note_on_c, 1, 76, 127
1, 187740, Note_on_c, 1, 60, 127
1, 187799, Note_off_c, 1, 62, 0
1, 187799, Note_off_c, 1, 76, 0
1, 187799, Note_off_c, 1, 60, 0
1, 187860, Note_off_c, 1, 67, 0
1, 187860, Note_off_c, 1, 71, 0
1, 187860, Note_on_c, 1, 69, 127
1, 187860, Note_on_c, 1, 54, 127
1, 187860, Note_on_c, 1, 66, 127
1, 187919, Note_off_c, 1, 54, 0
1, 187920, Note_on_c, 1, 55, 127
1, 187979, Note_off_c, 1, 55, 0
1, 187980, Note_on_c, 1, 72, 127
1, 187980, Note_on_c, 1, 57, 127
1, 188039, Note_off_c, 1, 72, 0
1, 188039, Note_off_c, 1, 57, 0
1, 188040, Note_off_c, 1, 69, 0
1, 188040, Note_off_c, 1, 66, 0
1, 188280, Note_on_c, 1, 50, 127
1, 188339, Note_off_c, 1, 50, 0
1, 188340, Note_on_c, 1, 48, 127
1, 188399, Note_off_c, 1, 48, 0
1, 188400, Note_on_c, 1, 47, 127
1, 188459, Note_off_c, 1, 47, 0
1, 188520, Note_on_c, 1, 45, 127
1, 188549, Note_off_c, 1, 45, 0
1, 188550, Note_on_c, 1, 43, 127
1, 188579, Note_off_c, 1, 43, 0
1, 188580, Note_on_c, 1, 42, 127
1, 188639, Note_off_c, 1, 42, 0
1, 188640, Note_on_c, 1, 64, 127
1, 188699, Note_off_c, 1, 64, 0
1, 188700, Note_on_c, 1, 40, 127
1, 188729, Note_off_c, 1, 40, 0
1, 188730, Note_on_c, 1, 38, 127
1, 188759, Note_off_c, 1, 38, 0
1, 189030, Note_on_c, 1, 52, 127
1, 189059, Note_off_c, 1, 52, 0
1, 189840, Note_on_c, 1, 49, 127
1, 189960, Note_on_c, 1, 73, 127
1, 190080, Note_off_c, 1, 73, 0
1, 190140, Note_off_c, 1, 49, 0
1, 190200, Note_on_c, 1, 78, 127
1, 190260, Note_on_c, 1, 79, 127
1, 190320, Note_off_c, 1, 79, 0
1, 190380, Note_off_c, 1, 78, 0
1, 190500, Note_on_c, 1, 70, 127
1, 190560, Note_off_c, 1, 70, 0
1, 191520, Note_on_c, 1, 61, 127
1, 191760, Note_off_c, 1, 61, 0
1, 192000, Note_on_c, 1, 44, 127
1, 192000, Note_on_c, 1, 68, 127
1, 192720, Note_off_c, 1, 44, 0
1, 192720, Note_off_c, 1, 68, 0
1, 193080, Note_on_c, 1, 74, 127
1, 193080, Note_on_c, 1, 50, 127
1, 193080, Note_on_c, 1, 66, 127
1, 193080, Note_on_c, 1, 62, 127
1, 193080, Note_on_c, 1, 57, 127
1, 193199, Note_off_c, 1, 74, 0
1, 193199, Note_off_c, 1, 66, 0
1, 193199, Note_off_c, 1, 62, 0
1, 193199, Note_off_c, 1, 57, 0
1, 193319, Note_off_c, 1, 50, 0
1, 193320, Note_on_c, 1, 74, 127
1, 193320, Note_on_c, 1, 54, 127
1, 193320, Note_on_c, 1, 66, 127
1, 193320, Note_on_c, 1, 62, 127
1, 193379, Note_off_c, 1, 74, 0
1, 193379, Note_off_c, 1, 66, 0
1, 193379, Note_off_c, 1, 62, 0
1, 193380, Note_on_c, 1, 76, 127
1, 193380, Note_on_c, 1, 67, 127
1, 193380, Note_on_c, 1, 64, 127
1, 193439, Note_off_c, 1, 54, 0
1, 193439, Note_off_c, 1, 76, 0
1, 193439, Note_off_c, 1, 67, 0
1, 193439, Note_off_c, 1, 64, 0
1, 193440, Note_on_c, 1, 74, 127
1, 193440, Note_on_c, 1, 47, 127
1, 193440, Note_on_c, 1, 66, 127
1, 193440, Note_on_c, 1, 62, 127
1, 193440, Note_on_c, 1, 59, 127
1, 193559, Note_off_c, 1, 74, 0
1, 193559, Note_off_c, 1, 66, 0
1, 193559, Note_off_c, 1, 62, 0
1, 193559, Note_off_c, 1, 59, 0
1, 193679, Note_off_c, 1, 47, 0
1, 193680, Note_on_c, 1, 71, 127
1, 193680, Note_on_c, 1, 52, 127
1, 193680, Note_on_c, 1, 67, 127
1, 193680, Note_on_c, 1, 64, 127
1, 193680, Note_on_c, 1, 59, 127
1, 193739, Note_off_c, 1, 52, 0
1, 193740, Note_on_c, 1, 50, 127
1, 193799, Note_off_c, 1, 71, 0
1, 193799, Note_off_c, 1, 67, 0
1, 193799, Note_off_c, 1, 64, 0
1, 193799, Note_off_c, 1, 59, 0
1, 193799, Note_off_c, 1, 50, 0
1, 193800, Note_on_c, 1, 76, 127
1, 193800, Note_on_c, 1, 49, 127
1, 193800, Note_on_c, 1, 64, 127
1, 193800, Note_on_c, 1, 67, 127
1, 193859, Note_off_c, 1, 49, 0
1, 193860, Note_on_c, 1, 47, 127
1, 193919, Note_off_c, 1, 76, 0
1, 193919, Note_off_c, 1, 64, 0
1, 193919, Note_off_c, 1, 67, 0
1, 193919, Note_off_c, 1, 47, 0
1, 193920, Note_on_c, 1, 76, 127
1, 193920, Note_on_c, 1, 49, 127
1, 193920, Note_on_c, 1, 73, 127
1, 193979, Note_off_c, 1, 76, 0
1, 193979, Note_off_c, 1, 49, 0
1, 193979, Note_off_c, 1, 73, 0
1, 193980, Note_on_c, 1, 74, 127
1, 193980, Note_on_c, 1, 50, 127
1, 193980, Note_on_c, 1, 71, 127
1, 194039, Note_off_c, 1, 74, 0
1, 194039, Note_off_c, 1, 50, 0
1, 194039, Note_off_c, 1, 71, 0
1, 194040, Note_on_c, 1, 73, 127
1, 194040, Note_on_c, 1, 52, 127
1, 194040, Note_on_c, 1, 69, 127
1, 194099, Note_off_c, 1, 73, 0
1, 194099, Note_off_c, 1, 69, 0
1, 194100, Note_on_c, 1, 71, 127
1, 194100, Note_on_c, 1, 68, 127
1, 194159, Note_off_c, 1, 52, 0
1, 194159, Note_off_c, 1, 71, 0
1, 194159, Note_off_c, 1, 68, 0
1, 194160, Note_on_c, 1, 69, 127
1, 194160, Note_on_c, 1, 49, 127
1, 194160, Note_on_c, 1, 61, 127
1, 194279, Note_off_c, 1, 49, 0
1, 194279, Note_off_c, 1, 61, 0
1, 194280, Note_on_c, 1, 45, 127
1, 194280, Note_on_c, 1, 57, 127
1, 194399, Note_off_c, 1, 69, 0
1, 194399, Note_off_c, 1, 45, 0
1, 194399, Note_off_c, 1, 57, 0
1, 194400, Note_on_c, 1, 57, 127
1, 194400, Note_on_c, 1, 62, 127
1, 194400, Note_on_c, 1, 54, 127
1, 194400, Note_on_c, 1, 74, 127
1, 194400, Note_on_c, 1, 42, 127
1, 194459, Note_off_c, 1, 54, 0
1, 194459, Note_off_c, 1, 74, 0
1, 194460, Note_on_c, 1, 64, 127
1, 194460, Note_on_c, 1, 55, 127
1, 194460, Note_on_c, 1, 76, 127
1, 194519, Note_off_c, 1, 57, 0
1, 194519, Note_off_c, 1, 62, 0
1, 194519, Note_off_c, 1, 42, 0
1, 194519, Note_off_c, 1, 64, 0
1, 194519, Note_off_c, 1, 55, 0
1, 194519, Note_off_c, 1, 76, 0
1, 194520, Note_on_c, 1, 54, 127
1, 194520, Note_on_c, 1, 62, 127
1, 194520, Note_on_c, 1, 57, 127
1, 194520, Note_on_c, 1, 74, 127
1, 194520, Note_on_c, 1, 38, 127
1, 194520, Note_on_c, 1, 66, 127
1, 194520, Note_on_c, 1, 69, 127
1, 194639, Note_off_c, 1, 54, 0
1, 194639, Note_off_c, 1, 57, 0
1, 194639, Note_off_c, 1, 74, 0
1, 194640, Note_on_c, 1, 50, 127
1, 194759, Note_off_c, 1, 62, 0
1, 194759, Note_off_c, 1, 38, 0
1, 194759, Note_off_c, 1, 66, 0
1, 194759, Note_off_c, 1, 69, 0
1, 194759, Note_off_c, 1, 50, 0
1, 194760, Note_on_c, 1, 57, 127
1, 194760, Note_on_c, 1, 62, 127
1, 194760, Note_on_c, 1, 54, 127
1, 194760, Note_on_c, 1, 74, 127
1, 194760, Note_on_c, 1, 42, 127
1, 194760, Note_on_c, 1, 66, 127
1, 194760, Note_on_c, 1, 69, 127
1, 194819, Note_off_c, 1, 62, 0
1, 194819, Note_off_c, 1, 54, 0
1, 194819, Note_off_c, 1, 74, 0
1, 194820, Note_on_c, 1, 64, 127
1, 194820, Note_on_c, 1, 55, 127
1, 194820, Note_on_c, 1, 76, 127
1, 194879, Note_off_c, 1, 57, 0
1, 194879, Note_off_c, 1, 42, 0
1, 194879, Note_off_c, 1, 66, 0
1, 194879, Note_off_c, 1, 69, 0
1, 194879, Note_off_c, 1, 64, 0
1, 194879, Note_off_c, 1, 55, 0
1, 194879, Note_off_c, 1, 76, 0
1, 194880, Note_on_c, 1, 54, 127
1, 194880, Note_on_c, 1, 62, 127
1, 194880, Note_on_c, 1, 74, 127
1, 194880, Note_on_c, 1, 47, 127
1, 194880, Note_on_c, 1, 66, 127
1, 194880, Note_on_c, 1, 71, 127
1, 194999, Note_off_c, 1, 54, 0
1, 194999, Note_off_c, 1, 74, 0
1, 195000, Note_on_c, 1, 50, 127
1, 195119, Note_off_c, 1, 62, 0
1, 195119, Note_off_c, 1, 47, 0
1, 195119, Note_off_c, 1, 66, 0
1, 195119, Note_off_c, 1, 71, 0
1, 195119, Note_off_c, 1, 50, 0
1, 195120, Note_on_c, 1, 64, 127
1, 195120, Note_on_c, 1, 59, 127
1, 195120, Note_on_c, 1, 56, 127
1, 195120, Note_on_c, 1, 71, 127
1, 195120, Note_on_c, 1, 52, 127
1, 195120, Note_on_c, 1, 68, 127
1, 195179, Note_off_c, 1, 52, 0
1, 195180, Note_on_c, 1, 50, 127
1, 195239, Note_off_c, 1, 64, 0
1, 195239, Note_off_c, 1, 59, 0
1, 195239, Note_off_c, 1, 56, 0
1, 195239, Note_off_c, 1, 71, 0
1, 195239, Note_off_c, 1, 68, 0
1, 195239, Note_off_c, 1, 50, 0
1, 195240, Note_on_c, 1, 64, 127
1, 195240, Note_on_c, 1, 57, 127
1, 195240, Note_on_c, 1, 76, 127
1, 195240, Note_on_c, 1, 49, 127
1, 195240, Note_on_c, 1, 69, 127
1, 195240, Note_on_c, 1, 61, 127
1, 195299, Note_off_c, 1, 49, 0
1, 195300, Note_on_c, 1, 47, 127
1, 195359, Note_off_c, 1, 64, 0
1, 195359, Note_off_c, 1, 57, 0
1, 195359, Note_off_c, 1, 76, 0
1, 195359, Note_off_c, 1, 69, 0
1, 195359, Note_off_c, 1, 61, 0
1, 195359, Note_off_c, 1, 47, 0
1, 195360, Note_on_c, 1, 69, 127
1, 195360, Note_on_c, 1, 64, 127
1, 195360, Note_on_c, 1, 57, 127
1, 195360, Note_on_c, 1, 76, 127
1, 195360, Note_on_c, 1, 49, 127
1, 195360, Note_on_c, 1, 73, 127
1, 195419, Note_off_c, 1, 64, 0
1, 195419, Note_off_c, 1, 76, 0
1, 195419, Note_off_c, 1, 49, 0
1, 195419, Note_off_c, 1, 73, 0
1, 195420, Note_on_c, 1, 62, 127
1, 195420, Note_on_c, 1, 74, 127
1, 195420, Note_on_c, 1, 50, 127
1, 195420, Note_on_c, 1, 71, 127
1, 195479, Note_off_c, 1, 69, 0
1, 195479, Note_off_c, 1, 57, 0
1, 195479, Note_off_c, 1, 62, 0
1, 195479, Note_off_c, 1, 74, 0
1, 195479, Note_off_c, 1, 50, 0
1, 195479, Note_off_c, 1, 71, 0
1, 195480, Note_on_c, 1, 64, 127
1, 195480, Note_on_c, 1, 61, 127
1, 195480, Note_on_c, 1, 56, 127
1, 195480, Note_on_c, 1, 73, 127
1, 195480, Note_on_c, 1, 52, 127
1, 195480, Note_on_c, 1, 69, 127
1, 195539, Note_off_c, 1, 61, 0
1, 195539, Note_off_c, 1, 73, 0
1, 195539, Note_off_c, 1, 69, 0
1, 195540, Note_on_c, 1, 59, 127
1, 195540, Note_on_c, 1, 71, 127
1, 195540, Note_on_c, 1, 68, 127
1, 195599, Note_off_c, 1, 64, 0
1, 195599, Note_off_c, 1, 56, 0
1, 195599, Note_off_c, 1, 52, 0
1, 195599, Note_off_c, 1, 59, 0
1, 195599, Note_off_c, 1, 71, 0
1, 195599, Note_off_c, 1, 68, 0
1, 195600, Note_on_c, 1, 64, 127
1, 195600, Note_on_c, 1, 57, 127
1, 195600, Note_on_c, 1, 69, 127
1, 195600, Note_on_c, 1, 45, 127
1, 195600, Note_on_c, 1, 61, 127
1, 195719, Note_off_c, 1, 45, 0
1, 195720, Note_on_c, 1, 49, 127
1, 195839, Note_off_c, 1, 64, 0
1, 195839, Note_off_c, 1, 57, 0
1, 195839, Note_off_c, 1, 69, 0
1, 195839, Note_off_c, 1, 61, 0
1, 195839, Note_off_c, 1, 49, 0
1, 195840, Note_on_c, 1, 76, 127
1, 195840, Note_on_c, 1, 45, 127
1, 195840, Note_on_c, 1, 64, 127
1, 195840, Note_on_c, 1, 61, 127
1, 195899, Note_off_c, 1, 76, 0
1, 195900, Note_on_c, 1, 78, 127
1, 195929, Note_off_c, 1, 78, 0
1, 195930, Note_on_c, 1, 79, 127
1, 195959, Note_off_c, 1, 45, 0
1, 195959, Note_off_c, 1, 64, 0
1, 195959, Note_off_c, 1, 61, 0
1, 195959, Note_off_c, 1, 79, 0
1, 195960, Note_on_c, 1, 78, 127
1, 195960, Note_on_c, 1, 50, 127
1, 195960, Note_on_c, 1, 66, 127
1, 195960, Note_on_c, 1, 62, 127
1, 196079, Note_off_c, 1, 78, 0
1, 196079, Note_off_c, 1, 50, 0
1, 196079, Note_off_c, 1, 66, 0
1, 196079, Note_off_c, 1, 62, 0
1, 196080, Note_on_c, 1, 76, 127
1, 196080, Note_on_c, 1, 54, 127
1, 196080, Note_on_c, 1, 69, 127
1, 196080, Note_on_c, 1, 66, 127
1, 196139, Note_off_c, 1, 76, 0
1, 196140, Note_on_c, 1, 74, 127
1, 196199, Note_off_c, 1, 54, 0
1, 196199, Note_off_c, 1, 69, 0
1, 196199, Note_off_c, 1, 66, 0
1, 196199, Note_off_c, 1, 74, 0
1, 196200, Note_on_c, 1, 76, 127
1, 196200, Note_on_c, 1, 57, 127
1, 196200, Note_on_c, 1, 69, 127
1, 196259, Note_off_c, 1, 76, 0
1, 196260, Note_on_c, 1, 73, 127
1, 196319, Note_off_c, 1, 57, 0
1, 196319, Note_off_c, 1, 69, 0
1, 196319, Note_off_c, 1, 73, 0
1, 196320, Note_on_c, 1, 74, 127
1, 196320, Note_on_c, 1, 54, 127
1, 196320, Note_on_c, 1, 66, 127
1, 196439, Note_off_c, 1, 54, 0
1, 196439, Note_off_c, 1, 66, 0
1, 196440, Note_on_c, 1, 50, 127
1, 196440, Note_on_c, 1, 69, 127
1, 196440, Note_on_c, 1, 62, 127
1, 196559, Note_off_c, 1, 74, 0
1, 196559, Note_off_c, 1, 50, 0
1, 196559, Note_off_c, 1, 69, 0
1, 196559, Note_off_c, 1, 62, 0
1, 196560, Note_on_c, 1, 79, 127
1, 196560, Note_on_c, 1, 49, 127
1, 196560, Note_on_c, 1, 67, 127
1, 196560, Note_on_c, 1, 61, 127
1, 196679, Note_off_c, 1, 79, 0
1, 196679, Note_off_c, 1, 49, 0
1, 196679, Note_off_c, 1, 67, 0
1, 196679, Note_off_c, 1, 61, 0
1, 196680, Note_on_c, 1, 78, 127
1, 196680, Note_on_c, 1, 50, 127
1, 196680, Note_on_c, 1, 66, 127
1, 196680, Note_on_c, 1, 62, 127
1, 196799, Note_off_c, 1, 78, 0
1, 196799, Note_off_c, 1, 50, 0
1, 196799, Note_off_c, 1, 66, 0
1, 196799, Note_off_c, 1, 62, 0
1, 196800, Note_on_c, 1, 76, 127
1, 196800, Note_on_c, 1, 54, 127
1, 196800, Note_on_c, 1, 66, 127
1, 196800, Note_on_c, 1, 62, 127
1, 196860, Note_off_c, 1, 76, 0
1, 196860, Note_on_c, 1, 74, 127
1, 196919, Note_off_c, 1, 54, 0
1, 196919, Note_off_c, 1, 66, 0
1, 196919, Note_off_c, 1, 62, 0
1, 196920, Note_off_c, 1, 74, 0
1, 196920, Note_on_c, 1, 79, 127
1, 196920, Note_on_c, 1, 52, 127
1, 196920, Note_on_c, 1, 64, 127
1, 196920, Note_on_c, 1, 67, 127
1, 197039, Note_off_c, 1, 79, 0
1, 197039, Note_off_c, 1, 52, 0
1, 197039, Note_off_c, 1, 64, 0
1, 197039, Note_off_c, 1, 67, 0
1, 197040, Note_on_c, 1, 78, 127
1, 197040, Note_on_c, 1, 50, 127
1, 197040, Note_on_c, 1, 66, 127
1, 197040, Note_on_c, 1, 62, 127
1, 197159, Note_off_c, 1, 78, 0
1, 197159, Note_off_c, 1, 50, 0
1, 197159, Note_off_c, 1, 66, 0
1, 197159, Note_off_c, 1, 62, 0
1, 197160, Note_on_c, 1, 76, 127
1, 197160, Note_on_c, 1, 54, 127
1, 197160, Note_on_c, 1, 66, 127
1, 197160, Note_on_c, 1, 62, 127
1, 197219, Note_off_c, 1, 76, 0
1, 197220, Note_on_c, 1, 74, 127
1, 197279, Note_off_c, 1, 54, 0
1, 197279, Note_off_c, 1, 66, 0
1, 197279, Note_off_c, 1, 62, 0
1, 197279, Note_off_c, 1, 74, 0
1, 197280, Note_on_c, 1, 79, 127
1, 197280, Note_on_c, 1, 57, 127
1, 197280, Note_on_c, 1, 69, 127
1, 197280, Note_on_c, 1, 64, 127
1, 197399, Note_off_c, 1, 79, 0
1, 197399, Note_off_c, 1, 57, 0
1, 197399, Note_off_c, 1, 69, 0
1, 197399, Note_off_c, 1, 64, 0
1, 197400, Note_on_c, 1, 78, 127
1, 197400, Note_on_c, 1, 62, 127
1, 197400, Note_on_c, 1, 69, 127
1, 197400, Note_on_c, 1, 66, 127
1, 197519, Note_off_c, 1, 78, 0
1, 197519, Note_off_c, 1, 62, 0
1, 197519, Note_off_c, 1, 69, 0
1, 197519, Note_off_c, 1, 66, 0
1, 197520, Note_on_c, 1, 76, 127
1, 197520, Note_on_c, 1, 54, 127
1, 197520, Note_on_c, 1, 66, 127
1, 197520, Note_on_c, 1, 62, 127
1, 197579, Note_off_c, 1, 76, 0
1, 197580, Note_on_c, 1, 74, 127
1, 197639, Note_off_c, 1, 54, 0
1, 197639, Note_off_c, 1, 66, 0
1, 197639, Note_off_c, 1, 62, 0
1, 197639, Note_off_c, 1, 74, 0
1, 197640, Note_on_c, 1, 76, 127
1, 197640, Note_on_c, 1, 57, 127
1, 197640, Note_on_c, 1, 64, 127
1, 197640, Note_on_c, 1, 67, 127
1, 197699, Note_off_c, 1, 76, 0
1, 197700, Note_on_c, 1, 73, 127
1, 197759, Note_off_c, 1, 57, 0
1, 197759, Note_off_c, 1, 64, 0
1, 197759, Note_off_c, 1, 67, 0
1, 197759, Note_off_c, 1, 73, 0
1, 197760, Note_on_c, 1, 74, 127
1, 197760, Note_on_c, 1, 50, 127
1, 197760, Note_on_c, 1, 66, 127
1, 197760, Note_on_c, 1, 62, 127
1, 197879, Note_off_c, 1, 50, 0
1, 197879, Note_off_c, 1, 66, 0
1, 197879, Note_off_c, 1, 62, 0
1, 197880, Note_on_c, 1, 49, 127
1, 197880, Note_on_c, 1, 73, 127
1, 197880, Note_on_c, 1, 76, 127
1, 197939, Note_off_c, 1, 49, 0
1, 197939, Note_off_c, 1, 73, 0
1, 197939, Note_off_c, 1, 76, 0
1, 197940, Note_on_c, 1, 47, 127
1, 197940, Note_on_c, 1, 71, 127
1, 197999, Note_off_c, 1, 74, 0
1, 197999, Note_off_c, 1, 47, 0
1, 197999, Note_off_c, 1, 71, 0
1, 198000, Note_on_c, 1, 57, 127
1, 198000, Note_on_c, 1, 67, 127
1, 198000, Note_on_c, 1, 64, 127
1, 198000, Note_on_c, 1, 79, 127
1, 198000, Note_on_c, 1, 49, 127
1, 198000, Note_on_c, 1, 73, 127
1, 198000, Note_on_c, 1, 76, 127
1, 198059, Note_off_c, 1, 49, 0
1, 198059, Note_off_c, 1, 73, 0
1, 198059, Note_off_c, 1, 76, 0
1, 198060, Note_on_c, 1, 45, 127
1, 198060, Note_on_c, 1, 69, 127
1, 198119, Note_off_c, 1, 57, 0
1, 198119, Note_off_c, 1, 67, 0
1, 198119, Note_off_c, 1, 64, 0
1, 198119, Note_off_c, 1, 79, 0
1, 198119, Note_off_c, 1, 45, 0
1, 198119, Note_off_c, 1, 69, 0
1, 198120, Note_on_c, 1, 57, 127
1, 198120, Note_on_c, 1, 66, 127
1, 198120, Note_on_c, 1, 62, 127
1, 198120, Note_on_c, 1, 78, 127
1, 198120, Note_on_c, 1, 50, 127
1, 198120, Note_on_c, 1, 69, 127
1, 198239, Note_off_c, 1, 57, 0
1, 198239, Note_off_c, 1, 66, 0
1, 198239, Note_off_c, 1, 62, 0
1, 198239, Note_off_c, 1, 78, 0
1, 198239, Note_off_c, 1, 50, 0
1, 198239, Note_off_c, 1, 69, 0
1, 198240, Note_on_c, 1, 57, 127
1, 198240, Note_on_c, 1, 64, 127
1, 198240, Note_on_c, 1, 76, 127
1, 198240, Note_on_c, 1, 54, 127
1, 198240, Note_on_c, 1, 66, 127
1, 198240, Note_on_c, 1, 69, 127
1, 198299, Note_off_c, 1, 64, 0
1, 198299, Note_off_c, 1, 76, 0
1, 198300, Note_on_c, 1, 62, 127
1, 198300, Note_on_c, 1, 74, 127
1, 198359, Note_off_c, 1, 57, 0
1, 198359, Note_off_c, 1, 54, 0
1, 198359, Note_off_c, 1, 66, 0
1, 198359, Note_off_c, 1, 69, 0
1, 198359, Note_off_c, 1, 62, 0
1, 198359, Note_off_c, 1, 74, 0
1, 198360, Note_on_c, 1, 57, 127
1, 198360, Note_on_c, 1, 67, 127
1, 198360, Note_on_c, 1, 61, 127
1, 198360, Note_on_c, 1, 79, 127
1, 198360, Note_on_c, 1, 52, 127
1, 198360, Note_on_c, 1, 71, 127
1, 198419, Note_off_c, 1, 57, 0
1, 198479, Note_off_c, 1, 67, 0
1, 198479, Note_off_c, 1, 61, 0
1, 198479, Note_off_c, 1, 79, 0
1, 198479, Note_off_c, 1, 52, 0
1, 198479, Note_off_c, 1, 71, 0
1, 198480, Note_on_c, 1, 57, 127
1, 198480, Note_on_c, 1, 66, 127
1, 198480, Note_on_c, 1, 62, 127
1, 198480, Note_on_c, 1, 78, 127
1, 198480, Note_on_c, 1, 50, 127
1, 198480, Note_on_c, 1, 69, 127
1, 198599, Note_off_c, 1, 57, 0
1, 198599, Note_off_c, 1, 66, 0
1, 198599, Note_off_c, 1, 62, 0
1, 198599, Note_off_c, 1, 78, 0
1, 198599, Note_off_c, 1, 50, 0
1, 198599, Note_off_c, 1, 69, 0
1, 198600, Note_on_c, 1, 62, 127
1, 198600, Note_on_c, 1, 64, 127
1, 198600, Note_on_c, 1, 57, 127
1, 198600, Note_on_c, 1, 76, 127
1, 198600, Note_on_c, 1, 54, 127
1, 198600, Note_on_c, 1, 66, 127
1, 198600, Note_on_c, 1, 69, 127
1, 198659, Note_off_c, 1, 64, 0
1, 198659, Note_off_c, 1, 76, 0
1, 198660, Note_on_c, 1, 74, 127
1, 198719, Note_off_c, 1, 62, 0
1, 198719, Note_off_c, 1, 57, 0
1, 198719, Note_off_c, 1, 54, 0
1, 198719, Note_off_c, 1, 66, 0
1, 198719, Note_off_c, 1, 69, 0
1, 198719, Note_off_c, 1, 74, 0
1, 198720, Note_on_c, 1, 57, 127
1, 198720, Note_on_c, 1, 67, 127
1, 198720, Note_on_c, 1, 61, 127
1, 198720, Note_on_c, 1, 79, 127
1, 198720, Note_on_c, 1, 69, 127
1, 198720, Note_on_c, 1, 64, 127
1, 198839, Note_off_c, 1, 57, 0
1, 198839, Note_off_c, 1, 67, 0
1, 198839, Note_off_c, 1, 61, 0
1, 198839, Note_off_c, 1, 79, 0
1, 198839, Note_off_c, 1, 69, 0
1, 198839, Note_off_c, 1, 64, 0
1, 198840, Note_on_c, 1, 57, 127
1, 198840, Note_on_c, 1, 66, 127
1, 198840, Note_on_c, 1, 62, 127
1, 198840, Note_on_c, 1, 78, 127
1, 198840, Note_on_c, 1, 69, 127
1, 198959, Note_off_c, 1, 57, 0
1, 198959, Note_off_c, 1, 66, 0
1, 198959, Note_off_c, 1, 62, 0
1, 198959, Note_off_c, 1, 78, 0
1, 198959, Note_off_c, 1, 69, 0
1, 198960, Note_on_c, 1, 57, 127
1, 198960, Note_on_c, 1, 64, 127
1, 198960, Note_on_c, 1, 76, 127
1, 198960, Note_on_c, 1, 54, 127
1, 198960, Note_on_c, 1, 66, 127
1, 198960, Note_on_c, 1, 62, 127
1, 199019, Note_off_c, 1, 64, 0
1, 199019, Note_off_c, 1, 76, 0
1, 199020, Note_on_c, 1, 74, 127
1, 199079, Note_off_c, 1, 57, 0
1, 199079, Note_off_c, 1, 54, 0
1, 199079, Note_off_c, 1, 66, 0
1, 199079, Note_off_c, 1, 62, 0
1, 199079, Note_off_c, 1, 74, 0
1, 199080, Note_on_c, 1, 57, 127
1, 199080, Note_on_c, 1, 64, 127
1, 199080, Note_on_c, 1, 61, 127
1, 199080, Note_on_c, 1, 76, 127
1, 199139, Note_off_c, 1, 76, 0
1, 199140, Note_on_c, 1, 73, 127
1, 199199, Note_off_c, 1, 57, 0
1, 199199, Note_off_c, 1, 64, 0
1, 199199, Note_off_c, 1, 61, 0
1, 199199, Note_off_c, 1, 73, 0
1, 199200, Note_on_c, 1, 54, 127
1, 199200, Note_on_c, 1, 62, 127
1, 199200, Note_on_c, 1, 57, 127
1, 199200, Note_on_c, 1, 74, 127
1, 199200, Note_on_c, 1, 50, 127
1, 199439, Note_off_c, 1, 54, 0
1, 199439, Note_off_c, 1, 62, 0
1, 199439, Note_off_c, 1, 57, 0
1, 199439, Note_off_c, 1, 74, 0
1, 199439, Note_off_c, 1, 50, 0
1, 199560, Note_on_c, 1, 47, 127
1, 199560, Note_on_c, 1, 66, 127
1, 199560, Note_on_c, 1, 71, 127
1, 199560, Note_on_c, 1, 62, 127
1, 199620, Note_on_c, 1, 54, 127
1, 199680, Note_off_c, 1, 54, 0
1, 199680, Note_on_c, 1, 59, 127
1, 199740, Note_off_c, 1, 59, 0
1, 200040, Note_on_c, 1, 52, 127
1, 200160, Note_off_c, 1, 47, 0
1, 200160, Note_off_c, 1, 71, 0
1, 200160, Note_off_c, 1, 62, 0
1, 200160, Note_off_c, 1, 52, 0
1, 200160, Note_on_c, 1, 55, 127
1, 200160, Note_on_c, 1, 46, 127
1, 200160, Note_on_c, 1, 61, 127
1, 200220, Note_off_c, 1, 55, 0
1, 200280, Note_off_c, 1, 46, 0
1, 200280, Note_off_c, 1, 61, 0
1, 200280, Note_on_c, 1, 50, 127
1, 200400, Note_off_c, 1, 50, 0
1, 200760, Note_off_c, 1, 66, 0
1, 200760, Note_on_c, 1, 64, 127
1, 200760, Note_on_c, 1, 68, 127
1, 200820, Note_on_c, 1, 56, 127
1, 200880, Note_off_c, 1, 56, 0
1, 201000, Note_off_c, 1, 68, 0
1, 201000, Note_on_c, 1, 49, 127
1, 201000, Note_on_c, 1, 69, 127
1, 201060, Note_on_c, 1, 57, 127
1, 201120, Note_off_c, 1, 64, 0
1, 201120, Note_off_c, 1, 49, 0
1, 201120, Note_off_c, 1, 57, 0
1, 201240, Note_off_c, 1, 69, 0
1, 201480, Note_on_c, 1, 45, 127
1, 201960, Note_off_c, 1, 45, 0
1, 202080, Note_on_c, 1, 64, 127
1, 202139, Note_off_c, 1, 64, 0
1, 202140, Note_on_c, 1, 69, 127
1, 202199, Note_off_c, 1, 69, 0
1, 202200, Note_on_c, 1, 73, 127
1, 202259, Note_off_c, 1, 73, 0
1, 202260, Note_on_c, 1, 71, 127
1, 202260, Note_on_c, 1, 52, 127
1, 202319, Note_off_c, 1, 71, 0
1, 202319, Note_off_c, 1, 52, 0
1, 202320, Note_on_c, 1, 69, 127
1, 202320, Note_on_c, 1, 57, 127
1, 202379, Note_off_c, 1, 69, 0
1, 202379, Note_off_c, 1, 57, 0
1, 202380, Note_on_c, 1, 64, 127
1, 202380, Note_on_c, 1, 61, 127
1, 202409, Note_off_c, 1, 64, 0
1, 202410, Note_on_c, 1, 66, 127
1, 202439, Note_off_c, 1, 61, 0
1, 202439, Note_off_c, 1, 66, 0
1, 202440, Note_on_c, 1, 68, 127
1, 202440, Note_on_c, 1, 57, 127
1, 202469, Note_off_c, 1, 68, 0
1, 202470, Note_on_c, 1, 69, 127
1, 202499, Note_off_c, 1, 57, 0
1, 202499, Note_off_c, 1, 69, 0
1, 202500, Note_on_c, 1, 71, 127
1, 202500, Note_on_c, 1, 56, 127
1, 202559, Note_off_c, 1, 71, 0
1, 202559, Note_off_c, 1, 56, 0
1, 202560, Note_on_c, 1, 74, 127
1, 202560, Note_on_c, 1, 52, 127
1, 202589, Note_off_c, 1, 74, 0
1, 202590, Note_on_c, 1, 71, 127
1, 202619, Note_off_c, 1, 52, 0
1, 202619, Note_off_c, 1, 71, 0
1, 202620, Note_on_c, 1, 73, 127
1, 202620, Note_on_c, 1, 57, 127
1, 202649, Note_off_c, 1, 73, 0
1, 202650, Note_on_c, 1, 69, 127
1, 202679, Note_off_c, 1, 57, 0
1, 202679, Note_off_c, 1, 69, 0
1, 202680, Note_on_c, 1, 76, 127
1, 202680, Note_on_c, 1, 49, 127
1, 202739, Note_off_c, 1, 49, 0
1, 202740, Note_on_c, 1, 50, 127
1, 202769, Note_off_c, 1, 50, 0
1, 202770, Note_on_c, 1, 47, 127
1, 202799, Note_off_c, 1, 76, 0
1, 202799, Note_off_c, 1, 47, 0
1, 202800, Note_on_c, 1, 76, 127
1, 202800, Note_on_c, 1, 49, 127
1, 202829, Note_off_c, 1, 49, 0
1, 202830, Note_on_c, 1, 45, 127
1, 202859, Note_off_c, 1, 76, 0
1, 202859, Note_off_c, 1, 45, 0
1, 202860, Note_on_c, 1, 78, 127
1, 202860, Note_on_c, 1, 50, 127
1, 202889, Note_off_c, 1, 78, 0
1, 202890, Note_on_c, 1, 74, 127
1, 202919, Note_off_c, 1, 50, 0
1, 202919, Note_off_c, 1, 74, 0
1, 202920, Note_on_c, 1, 78, 127
1, 202920, Note_on_c, 1, 62, 127
1, 202949, Note_off_c, 1, 78, 0
1, 202950, Note_on_c, 1, 74, 127
1, 202979, Note_off_c, 1, 62, 0
1, 202979, Note_off_c, 1, 74, 0
1, 202980, Note_on_c, 1, 78, 127
1, 202980, Note_on_c, 1, 50, 127
1, 203009, Note_off_c, 1, 78, 0
1, 203010, Note_on_c, 1, 74, 127
1, 203039, Note_off_c, 1, 50, 0
1, 203039, Note_off_c, 1, 74, 0
1, 203040, Note_on_c, 1, 71, 127
1, 203040, Note_on_c, 1, 52, 127
1, 203069, Note_off_c, 1, 52, 0
1, 203070, Note_on_c, 1, 56, 127
1, 203099, Note_off_c, 1, 71, 0
1, 203099, Note_off_c, 1, 56, 0
1, 203100, Note_on_c, 1, 73, 127
1, 203100, Note_on_c, 1, 52, 127
1, 203129, Note_off_c, 1, 52, 0
1, 203130, Note_on_c, 1, 56, 127
1, 203159, Note_off_c, 1, 73, 0
1, 203159, Note_off_c, 1, 56, 0
1, 203160, Note_on_c, 1, 74, 127
1, 203160, Note_on_c, 1, 52, 127
1, 203189, Note_off_c, 1, 52, 0
1, 203190, Note_on_c, 1, 56, 127
1, 203219, Note_off_c, 1, 74, 0
1, 203219, Note_off_c, 1, 56, 0
1, 203220, Note_on_c, 1, 76, 127
1, 203220, Note_on_c, 1, 49, 127
1, 203249, Note_off_c, 1, 76, 0
1, 203250, Note_on_c, 1, 73, 127
1, 203279, Note_off_c, 1, 49, 0
1, 203279, Note_off_c, 1, 73, 0
1, 203280, Note_on_c, 1, 76, 127
1, 203280, Note_on_c, 1, 61, 127
1, 203309, Note_off_c, 1, 76, 0
1, 203310, Note_on_c, 1, 73, 127
1, 203339, Note_off_c, 1, 61, 0
1, 203339, Note_off_c, 1, 73, 0
1, 203340, Note_on_c, 1, 76, 127
1, 203340, Note_on_c, 1, 49, 127
1, 203369, Note_off_c, 1, 76, 0
1, 203370, Note_on_c, 1, 73, 127
1, 203399, Note_off_c, 1, 49, 0
1, 203399, Note_off_c, 1, 73, 0
1, 203400, Note_on_c, 1, 69, 127
1, 203400, Note_on_c, 1, 50, 127
1, 203429, Note_off_c, 1, 50, 0
1, 203430, Note_on_c, 1, 54, 127
1, 203459, Note_off_c, 1, 69, 0
1, 203459, Note_off_c, 1, 54, 0
1, 203460, Note_on_c, 1, 71, 127
1, 203460, Note_on_c, 1, 50, 127
1, 203489, Note_off_c, 1, 50, 0
1, 203490, Note_on_c, 1, 54, 127
1, 203519, Note_off_c, 1, 71, 0
1, 203519, Note_off_c, 1, 54, 0
1, 203520, Note_on_c, 1, 73, 127
1, 203520, Note_on_c, 1, 50, 127
1, 203549, Note_off_c, 1, 50, 0
1, 203550, Note_on_c, 1, 54, 127
1, 203579, Note_off_c, 1, 73, 0
1, 203579, Note_off_c, 1, 54, 0
1, 203580, Note_on_c, 1, 74, 127
1, 203580, Note_on_c, 1, 47, 127
1, 203609, Note_off_c, 1, 74, 0
1, 203610, Note_on_c, 1, 73, 127
1, 203639, Note_off_c, 1, 47, 0
1, 203639, Note_off_c, 1, 73, 0
1, 203640, Note_on_c, 1, 73, 127
1, 203640, Note_on_c, 1, 49, 127
1, 203669, Note_off_c, 1, 73, 0
1, 203670, Note_on_c, 1, 71, 127
1, 203699, Note_off_c, 1, 49, 0
1, 203699, Note_off_c, 1, 71, 0
1, 203700, Note_on_c, 1, 71, 127
1, 203700, Note_on_c, 1, 50, 127
1, 203729, Note_off_c, 1, 71, 0
1, 203730, Note_on_c, 1, 69, 127
1, 203759, Note_off_c, 1, 50, 0
1, 203759, Note_off_c, 1, 69, 0
1, 203760, Note_on_c, 1, 68, 127
1, 203760, Note_on_c, 1, 52, 127
1, 203789, Note_off_c, 1, 68, 0
1, 203790, Note_on_c, 1, 62, 127
1, 203819, Note_off_c, 1, 52, 0
1, 203819, Note_off_c, 1, 62, 0
1, 203820, Note_on_c, 1, 62, 127
1, 203820, Note_on_c, 1, 54, 127
1, 203849, Note_off_c, 1, 62, 0
1, 203850, Note_on_c, 1, 61, 127
1, 203879, Note_off_c, 1, 54, 0
1, 203879, Note_off_c, 1, 61, 0
1, 203880, Note_on_c, 1, 61, 127
1, 203880, Note_on_c, 1, 56, 127
1, 203909, Note_off_c, 1, 61, 0
1, 203910, Note_on_c, 1, 59, 127
1, 203939, Note_off_c, 1, 56, 0
1, 203939, Note_off_c, 1, 59, 0
1, 203940, Note_on_c, 1, 61, 127
1, 203940, Note_on_c, 1, 57, 127
1, 203969, Note_off_c, 1, 61, 0
1, 203970, Note_on_c, 1, 64, 127
1, 203999, Note_off_c, 1, 57, 0
1, 203999, Note_off_c, 1, 64, 0
1, 204000, Note_on_c, 1, 66, 127
1, 204000, Note_on_c, 1, 50, 127
1, 204029, Note_off_c, 1, 66, 0
1, 204030, Note_on_c, 1, 69, 127
1, 204059, Note_off_c, 1, 50, 0
1, 204059, Note_off_c, 1, 69, 0
1, 204060, Note_on_c, 1, 68, 127
1, 204060, Note_on_c, 1, 52, 127
1, 204089, Note_off_c, 1, 68, 0
1, 204090, Note_on_c, 1, 71, 127
1, 204119, Note_off_c, 1, 52, 0
1, 204119, Note_off_c, 1, 71, 0
1, 204120, Note_on_c, 1, 69, 127
1, 204120, Note_on_c, 1, 54, 127
1, 204149, Note_off_c, 1, 69, 0
1, 204150, Note_on_c, 1, 64, 127
1, 204179, Note_off_c, 1, 54, 0
1, 204179, Note_off_c, 1, 64, 0
1, 204180, Note_on_c, 1, 66, 127
1, 204180, Note_on_c, 1, 52, 127
1, 204209, Note_off_c, 1, 66, 0
1, 204210, Note_on_c, 1, 69, 127
1, 204239, Note_off_c, 1, 52, 0
1, 204239, Note_off_c, 1, 69, 0
1, 204240, Note_on_c, 1, 68, 127
1, 204240, Note_on_c, 1, 50, 127
1, 204269, Note_off_c, 1, 68, 0
1, 204270, Note_on_c, 1, 71, 127
1, 204299, Note_off_c, 1, 50, 0
1, 204299, Note_off_c, 1, 71, 0
1, 204300, Note_on_c, 1, 69, 127
1, 204300, Note_on_c, 1, 49, 127
1, 204329, Note_off_c, 1, 69, 0
1, 204330, Note_on_c, 1, 73, 127
1, 204359, Note_off_c, 1, 49, 0
1, 204359, Note_off_c, 1, 73, 0
1, 204360, Note_on_c, 1, 71, 127
1, 204360, Note_on_c, 1, 50, 127
1, 204389, Note_off_c, 1, 71, 0
1, 204390, Note_on_c, 1, 74, 127
1, 204419, Note_off_c, 1, 50, 0
1, 204419, Note_off_c, 1, 74, 0
1, 204420, Note_on_c, 1, 73, 127
1, 204420, Note_on_c, 1, 52, 127
1, 204449, Note_off_c, 1, 73, 0
1, 204450, Note_on_c, 1, 71, 127
1, 204479, Note_off_c, 1, 52, 0
1, 204479, Note_off_c, 1, 71, 0
1, 204480, Note_on_c, 1, 73, 127
1, 204480, Note_on_c, 1, 45, 127
1, 204509, Note_off_c, 1, 73, 0
1, 204510, Note_on_c, 1, 76, 127
1, 204539, Note_off_c, 1, 45, 0
1, 204539, Note_off_c, 1, 76, 0
1, 204540, Note_on_c, 1, 74, 127
1, 204540, Note_on_c, 1, 47, 127
1, 204569, Note_off_c, 1, 74, 0
1, 204570, Note_on_c, 1, 78, 127
1, 204599, Note_off_c, 1, 47, 0
1, 204599, Note_off_c, 1, 78, 0
1, 204600, Note_on_c, 1, 76, 127
1, 204600, Note_on_c, 1, 49, 127
1, 204659, Note_off_c, 1, 76, 0
1, 204659, Note_off_c, 1, 49, 0
1, 204660, Note_on_c, 1, 62, 127
1, 204660, Note_on_c, 1, 42, 127
1, 204689, Note_off_c, 1, 62, 0
1, 204690, Note_on_c, 1, 61, 127
1, 204719, Note_off_c, 1, 42, 0
1, 204719, Note_off_c, 1, 61, 0
1, 204720, Note_on_c, 1, 61, 127
1, 204720, Note_on_c, 1, 38, 127
1, 204749, Note_off_c, 1, 61, 0
1, 204750, Note_on_c, 1, 59, 127
1, 204779, Note_off_c, 1, 38, 0
1, 204779, Note_off_c, 1, 59, 0
1, 204780, Note_on_c, 1, 59, 127
1, 204780, Note_on_c, 1, 40, 127
1, 204809, Note_off_c, 1, 59, 0
1, 204810, Note_on_c, 1, 57, 127
1, 204839, Note_off_c, 1, 40, 0
1, 204839, Note_off_c, 1, 57, 0
1, 204840, Note_on_c, 1, 57, 127
1, 204840, Note_on_c, 1, 45, 127
1, 204959, Note_off_c, 1, 57, 0
1, 204959, Note_off_c, 1, 45, 0
1, 204960, Note_on_c, 1, 52, 127
1, 205020, Note_off_c, 1, 52, 0
1, 205020, Note_on_c, 1, 57, 127
1, 205080, Note_off_c, 1, 57, 0
1, 205080, Note_on_c, 1, 61, 127
1, 205140, Note_off_c, 1, 61, 0
1, 205140, Note_on_c, 1, 59, 127
1, 205260, Note_off_c, 1, 59, 0
1, 205290, Note_on_c, 1, 54, 127
1, 205320, Note_off_c, 1, 54, 0
1, 205320, Note_on_c, 1, 56, 127
1, 205350, Note_off_c, 1, 56, 0
1, 205440, Note_on_c, 1, 62, 127
1, 205470, Note_off_c, 1, 62, 0
1, 205560, Note_on_c, 1, 64, 127
1, 205560, Note_on_c, 1, 49, 127
1, 205619, Note_off_c, 1, 49, 0
1, 205620, Note_on_c, 1, 50, 127
1, 205649, Note_off_c, 1, 50, 0
1, 205650, Note_on_c, 1, 47, 127
1, 205679, Note_off_c, 1, 47, 0
1, 205680, Note_off_c, 1, 64, 0
1, 205680, Note_on_c, 1, 76, 127
1, 205710, Note_on_c, 1, 45, 127
1, 205739, Note_off_c, 1, 76, 0
1, 205739, Note_off_c, 1, 45, 0
1, 205740, Note_on_c, 1, 78, 127
1, 205740, Note_on_c, 1, 50, 127
1, 205769, Note_off_c, 1, 78, 0
1, 205770, Note_on_c, 1, 74, 127
1, 205799, Note_off_c, 1, 50, 0
1, 205799, Note_off_c, 1, 74, 0
1, 205800, Note_on_c, 1, 78, 127
1, 205800, Note_on_c, 1, 62, 127
1, 205829, Note_off_c, 1, 78, 0
1, 205830, Note_on_c, 1, 74, 127
1, 205859, Note_off_c, 1, 62, 0
1, 205859, Note_off_c, 1, 74, 0
1, 205860, Note_on_c, 1, 78, 127
1, 205860, Note_on_c, 1, 50, 127
1, 205889, Note_off_c, 1, 78, 0
1, 205890, Note_on_c, 1, 74, 127
1, 205919, Note_off_c, 1, 50, 0
1, 205919, Note_off_c, 1, 74, 0
1, 205920, Note_on_c, 1, 71, 127
1, 205920, Note_on_c, 1, 52, 127
1, 205949, Note_off_c, 1, 52, 0
1, 205950, Note_on_c, 1, 56, 127
1, 205979, Note_off_c, 1, 71, 0
1, 205979, Note_off_c, 1, 56, 0
1, 205980, Note_on_c, 1, 73, 127
1, 205980, Note_on_c, 1, 52, 127
1, 206009, Note_off_c, 1, 52, 0
1, 206010, Note_on_c, 1, 56, 127
1, 206039, Note_off_c, 1, 73, 0
1, 206039, Note_off_c, 1, 56, 0
1, 206040, Note_on_c, 1, 74, 127
1, 206040, Note_on_c, 1, 52, 127
1, 206069, Note_off_c, 1, 52, 0
1, 206070, Note_on_c, 1, 56, 127
1, 206099, Note_off_c, 1, 74, 0
1, 206099, Note_off_c, 1, 56, 0
1, 206100, Note_on_c, 1, 76, 127
1, 206100, Note_on_c, 1, 49, 127
1, 206129, Note_off_c, 1, 76, 0
1, 206130, Note_on_c, 1, 73, 127
1, 206159, Note_off_c, 1, 49, 0
1, 206159, Note_off_c, 1, 73, 0
1, 206160, Note_on_c, 1, 76, 127
1, 206160, Note_on_c, 1, 61, 127
1, 206189, Note_off_c, 1, 76, 0
1, 206190, Note_on_c, 1, 73, 127
1, 206219, Note_off_c, 1, 61, 0
1, 206219, Note_off_c, 1, 73, 0
1, 206220, Note_on_c, 1, 76, 127
1, 206220, Note_on_c, 1, 49, 127
1, 206249, Note_off_c, 1, 76, 0
1, 206250, Note_on_c, 1, 73, 127
1, 206279, Note_off_c, 1, 49, 0
1, 206279, Note_off_c, 1, 73, 0
1, 206280, Note_on_c, 1, 69, 127
1, 206280, Note_on_c, 1, 50, 127
1, 206309, Note_off_c, 1, 50, 0
1, 206310, Note_on_c, 1, 54, 127
1, 206339, Note_off_c, 1, 69, 0
1, 206339, Note_off_c, 1, 54, 0
1, 206340, Note_on_c, 1, 71, 127
1, 206340, Note_on_c, 1, 50, 127
1, 206369, Note_off_c, 1, 50, 0
1, 206370, Note_on_c, 1, 54, 127
1, 206399, Note_off_c, 1, 71, 0
1, 206399, Note_off_c, 1, 54, 0
1, 206400, Note_on_c, 1, 73, 127
1, 206400, Note_on_c, 1, 50, 127
1, 206429, Note_off_c, 1, 50, 0
1, 206430, Note_on_c, 1, 54, 127
1, 206459, Note_off_c, 1, 73, 0
1, 206459, Note_off_c, 1, 54, 0
1, 206460, Note_on_c, 1, 74, 127
1, 206460, Note_on_c, 1, 47, 127
1, 206489, Note_off_c, 1, 74, 0
1, 206490, Note_on_c, 1, 73, 127
1, 206519, Note_off_c, 1, 47, 0
1, 206519, Note_off_c, 1, 73, 0
1, 206520, Note_on_c, 1, 73, 127
1, 206520, Note_on_c, 1, 49, 127
1, 206549, Note_off_c, 1, 73, 0
1, 206550, Note_on_c, 1, 71, 127
1, 206579, Note_off_c, 1, 49, 0
1, 206579, Note_off_c, 1, 71, 0
1, 206580, Note_on_c, 1, 71, 127
1, 206580, Note_on_c, 1, 50, 127
1, 206609, Note_off_c, 1, 71, 0
1, 206610, Note_on_c, 1, 69, 127
1, 206639, Note_off_c, 1, 50, 0
1, 206639, Note_off_c, 1, 69, 0
1, 206640, Note_on_c, 1, 68, 127
1, 206640, Note_on_c, 1, 52, 127
1, 206669, Note_off_c, 1, 68, 0
1, 206670, Note_on_c, 1, 62, 127
1, 206699, Note_off_c, 1, 52, 0
1, 206699, Note_off_c, 1, 62, 0
1, 206700, Note_on_c, 1, 62, 127
1, 206700, Note_on_c, 1, 54, 127
1, 206729, Note_off_c, 1, 62, 0
1, 206730, Note_on_c, 1, 61, 127
1, 206759, Note_off_c, 1, 54, 0
1, 206759, Note_off_c, 1, 61, 0
1, 206760, Note_on_c, 1, 61, 127
1, 206760, Note_on_c, 1, 56, 127
1, 206789, Note_off_c, 1, 61, 0
1, 206790, Note_on_c, 1, 59, 127
1, 206819, Note_off_c, 1, 56, 0
1, 206819, Note_off_c, 1, 59, 0
1, 206820, Note_on_c, 1, 61, 127
1, 206820, Note_on_c, 1, 57, 127
1, 206849, Note_off_c, 1, 61, 0
1, 206850, Note_on_c, 1, 64, 127
1, 206879, Note_off_c, 1, 57, 0
1, 206879, Note_off_c, 1, 64, 0
1, 206880, Note_on_c, 1, 66, 127
1, 206880, Note_on_c, 1, 50, 127
1, 206909, Note_off_c, 1, 66, 0
1, 206910, Note_on_c, 1, 69, 127
1, 206939, Note_off_c, 1, 50, 0
1, 206939, Note_off_c, 1, 69, 0
1, 206940, Note_on_c, 1, 68, 127
1, 206940, Note_on_c, 1, 52, 127
1, 206969, Note_off_c, 1, 68, 0
1, 206970, Note_on_c, 1, 71, 127
1, 206999, Note_off_c, 1, 52, 0
1, 206999, Note_off_c, 1, 71, 0
1, 207000, Note_on_c, 1, 69, 127
1, 207000, Note_on_c, 1, 45, 127
1, 207029, Note_off_c, 1, 69, 0
1, 207030, Note_on_c, 1, 64, 127
1, 207059, Note_off_c, 1, 45, 0
1, 207059, Note_off_c, 1, 64, 0
1, 207060, Note_on_c, 1, 66, 127
1, 207060, Note_on_c, 1, 57, 127
1, 207089, Note_off_c, 1, 66, 0
1, 207090, Note_on_c, 1, 69, 127
1, 207119, Note_off_c, 1, 57, 0
1, 207119, Note_off_c, 1, 69, 0
1, 207120, Note_on_c, 1, 68, 127
1, 207120, Note_on_c, 1, 52, 127
1, 207149, Note_off_c, 1, 68, 0
1, 207150, Note_on_c, 1, 71, 127
1, 207179, Note_off_c, 1, 52, 0
1, 207179, Note_off_c, 1, 71, 0
1, 207180, Note_on_c, 1, 69, 127
1, 207180, Note_on_c, 1, 57, 127
1, 207180, Note_on_c, 1, 49, 127
1, 207239, Note_off_c, 1, 69, 0
1, 207239, Note_off_c, 1, 57, 0
1, 207239, Note_off_c, 1, 49, 0
1, 207240, Note_on_c, 1, 73, 127
1, 207240, Note_on_c, 1, 61, 127
1, 207240, Note_on_c, 1, 45, 127
1, 207299, Note_off_c, 1, 73, 0
1, 207299, Note_off_c, 1, 61, 0
1, 207299, Note_off_c, 1, 45, 0
1, 207300, Note_on_c, 1, 71, 127
1, 207300, Note_on_c, 1, 59, 127
1, 207300, Note_on_c, 1, 52, 127
1, 207359, Note_off_c, 1, 71, 0
1, 207359, Note_off_c, 1, 59, 0
1, 207359, Note_off_c, 1, 52, 0
1, 207360, Note_on_c, 1, 69, 127
1, 207360, Note_on_c, 1, 57, 127
1, 207419, Note_off_c, 1, 69, 0
1, 207419, Note_off_c, 1, 57, 0
1, 207420, Note_on_c, 1, 64, 127
1, 207420, Note_on_c, 1, 52, 127
1, 207420, Note_on_c, 1, 61, 127
1, 207449, Note_off_c, 1, 64, 0
1, 207449, Note_off_c, 1, 52, 0
1, 207450, Note_on_c, 1, 66, 127
1, 207450, Note_on_c, 1, 54, 127
1, 207479, Note_off_c, 1, 61, 0
1, 207479, Note_off_c, 1, 66, 0
1, 207479, Note_off_c, 1, 54, 0
1, 207480, Note_on_c, 1, 68, 127
1, 207480, Note_on_c, 1, 56, 127
1, 207480, Note_on_c, 1, 57, 127
1, 207509, Note_off_c, 1, 68, 0
1, 207509, Note_off_c, 1, 56, 0
1, 207510, Note_on_c, 1, 69, 127
1, 207539, Note_off_c, 1, 57, 0
1, 207539, Note_off_c, 1, 69, 0
1, 207540, Note_on_c, 1, 71, 127
1, 207540, Note_on_c, 1, 59, 127
1, 207540, Note_on_c, 1, 56, 127
1, 207599, Note_off_c, 1, 71, 0
1, 207599, Note_off_c, 1, 59, 0
1, 207599, Note_off_c, 1, 56, 0
1, 207600, Note_on_c, 1, 74, 127
1, 207600, Note_on_c, 1, 62, 127
1, 207600, Note_on_c, 1, 52, 127
1, 207629, Note_off_c, 1, 74, 0
1, 207629, Note_off_c, 1, 62, 0
1, 207630, Note_on_c, 1, 71, 127
1, 207630, Note_on_c, 1, 59, 127
1, 207659, Note_off_c, 1, 52, 0
1, 207659, Note_off_c, 1, 71, 0
1, 207659, Note_off_c, 1, 59, 0
1, 207660, Note_on_c, 1, 73, 127
1, 207660, Note_on_c, 1, 61, 127
1, 207660, Note_on_c, 1, 57, 127
1, 207689, Note_off_c, 1, 73, 0
1, 207689, Note_off_c, 1, 61, 0
1, 207690, Note_on_c, 1, 69, 127
1, 207719, Note_off_c, 1, 57, 0
1, 207719, Note_off_c, 1, 69, 0
1, 207720, Note_on_c, 1, 76, 127
1, 207720, Note_on_c, 1, 64, 127
1, 207720, Note_on_c, 1, 49, 127
1, 207779, Note_off_c, 1, 49, 0
1, 207780, Note_on_c, 1, 50, 127
1, 207809, Note_off_c, 1, 50, 0
1, 207810, Note_on_c, 1, 47, 127
1, 207839, Note_off_c, 1, 76, 0
1, 207839, Note_off_c, 1, 64, 0
1, 207839, Note_off_c, 1, 47, 0
1, 207840, Note_on_c, 1, 76, 127
1, 207840, Note_on_c, 1, 61, 127
1, 207840, Note_on_c, 1, 49, 127
1, 207869, Note_off_c, 1, 49, 0
1, 207870, Note_on_c, 1, 45, 127
1, 207899, Note_off_c, 1, 76, 0
1, 207899, Note_off_c, 1, 61, 0
1, 207899, Note_off_c, 1, 45, 0
1, 207900, Note_on_c, 1, 78, 127
1, 207900, Note_on_c, 1, 61, 127
1, 207900, Note_on_c, 1, 50, 127
1, 207929, Note_off_c, 1, 78, 0
1, 207930, Note_on_c, 1, 74, 127
1, 207959, Note_off_c, 1, 61, 0
1, 207959, Note_off_c, 1, 50, 0
1, 207959, Note_off_c, 1, 74, 0
1, 207960, Note_on_c, 1, 78, 127
1, 207960, Note_on_c, 1, 54, 127
1, 207960, Note_on_c, 1, 62, 127
1, 207989, Note_off_c, 1, 78, 0
1, 207990, Note_on_c, 1, 74, 127
1, 208019, Note_off_c, 1, 54, 0
1, 208019, Note_off_c, 1, 62, 0
1, 208019, Note_off_c, 1, 74, 0
1, 208020, Note_on_c, 1, 78, 127
1, 208020, Note_on_c, 1, 50, 127
1, 208049, Note_off_c, 1, 78, 0
1, 208050, Note_on_c, 1, 74, 127
1, 208079, Note_off_c, 1, 50, 0
1, 208079, Note_off_c, 1, 74, 0
1, 208080, Note_on_c, 1, 71, 127
1, 208080, Note_on_c, 1, 52, 127
1, 208109, Note_off_c, 1, 52, 0
1, 208110, Note_on_c, 1, 56, 127
1, 208139, Note_off_c, 1, 71, 0
1, 208139, Note_off_c, 1, 56, 0
1, 208140, Note_on_c, 1, 73, 127
1, 208140, Note_on_c, 1, 52, 127
1, 208169, Note_off_c, 1, 52, 0
1, 208170, Note_on_c, 1, 56, 127
1, 208199, Note_off_c, 1, 73, 0
1, 208199, Note_off_c, 1, 56, 0
1, 208200, Note_on_c, 1, 74, 127
1, 208200, Note_on_c, 1, 59, 127
1, 208200, Note_on_c, 1, 52, 127
1, 208229, Note_off_c, 1, 52, 0
1, 208230, Note_on_c, 1, 56, 127
1, 208259, Note_off_c, 1, 74, 0
1, 208259, Note_off_c, 1, 59, 0
1, 208259, Note_off_c, 1, 56, 0
1, 208260, Note_on_c, 1, 76, 127
1, 208260, Note_on_c, 1, 59, 127
1, 208260, Note_on_c, 1, 49, 127
1, 208289, Note_off_c, 1, 76, 0
1, 208290, Note_on_c, 1, 73, 127
1, 208319, Note_off_c, 1, 59, 0
1, 208319, Note_off_c, 1, 49, 0
1, 208319, Note_off_c, 1, 73, 0
1, 208320, Note_on_c, 1, 76, 127
1, 208320, Note_on_c, 1, 52, 127
1, 208320, Note_on_c, 1, 61, 127
1, 208349, Note_off_c, 1, 76, 0
1, 208350, Note_on_c, 1, 73, 127
1, 208379, Note_off_c, 1, 52, 0
1, 208379, Note_off_c, 1, 61, 0
1, 208379, Note_off_c, 1, 73, 0
1, 208380, Note_on_c, 1, 76, 127
1, 208380, Note_on_c, 1, 49, 127
1, 208409, Note_off_c, 1, 76, 0
1, 208410, Note_on_c, 1, 73, 127
1, 208439, Note_off_c, 1, 49, 0
1, 208439, Note_off_c, 1, 73, 0
1, 208440, Note_on_c, 1, 69, 127
1, 208440, Note_on_c, 1, 50, 127
1, 208469, Note_off_c, 1, 50, 0
1, 208470, Note_on_c, 1, 54, 127
1, 208499, Note_off_c, 1, 69, 0
1, 208499, Note_off_c, 1, 54, 0
1, 208500, Note_on_c, 1, 71, 127
1, 208500, Note_on_c, 1, 50, 127
1, 208529, Note_off_c, 1, 50, 0
1, 208530, Note_on_c, 1, 54, 127
1, 208559, Note_off_c, 1, 71, 0
1, 208559, Note_off_c, 1, 54, 0
1, 208560, Note_on_c, 1, 73, 127
1, 208560, Note_on_c, 1, 54, 127
1, 208560, Note_on_c, 1, 50, 127
1, 208589, Note_off_c, 1, 50, 0
1, 208619, Note_off_c, 1, 73, 0
1, 208619, Note_off_c, 1, 54, 0
1, 208620, Note_on_c, 1, 74, 127
1, 208620, Note_on_c, 1, 59, 127
1, 208620, Note_on_c, 1, 47, 127
1, 208649, Note_off_c, 1, 74, 0
1, 208650, Note_on_c, 1, 71, 127
1, 208679, Note_off_c, 1, 59, 0
1, 208679, Note_off_c, 1, 47, 0
1, 208679, Note_off_c, 1, 71, 0
1, 208680, Note_on_c, 1, 71, 127
1, 208680, Note_on_c, 1, 62, 127
1, 208680, Note_on_c, 1, 59, 127
1, 208709, Note_off_c, 1, 71, 0
1, 208710, Note_on_c, 1, 69, 127
1, 208739, Note_off_c, 1, 62, 0
1, 208739, Note_off_c, 1, 59, 0
1, 208739, Note_off_c, 1, 69, 0
1, 208740, Note_on_c, 1, 69, 127
1, 208740, Note_on_c, 1, 61, 127
1, 208769, Note_off_c, 1, 69, 0
1, 208770, Note_on_c, 1, 68, 127
1, 208799, Note_off_c, 1, 61, 0
1, 208799, Note_off_c, 1, 68, 0
1, 208800, Note_on_c, 1, 68, 127
1, 208800, Note_on_c, 1, 62, 127
1, 208800, Note_on_c, 1, 52, 127
1, 208829, Note_off_c, 1, 68, 0
1, 208830, Note_on_c, 1, 71, 127
1, 208859, Note_off_c, 1, 62, 0
1, 208859, Note_off_c, 1, 52, 0
1, 208859, Note_off_c, 1, 71, 0
1, 208860, Note_on_c, 1, 68, 127
1, 208860, Note_on_c, 1, 59, 127
1, 208860, Note_on_c, 1, 56, 127
1, 208889, Note_off_c, 1, 68, 0
1, 208890, Note_on_c, 1, 71, 127
1, 208919, Note_off_c, 1, 59, 0
1, 208919, Note_off_c, 1, 56, 0
1, 208919, Note_off_c, 1, 71, 0
1, 208920, Note_on_c, 1, 68, 127
1, 208920, Note_on_c, 1, 64, 127
1, 208920, Note_on_c, 1, 52, 127
1, 208949, Note_off_c, 1, 68, 0
1, 208950, Note_on_c, 1, 71, 127
1, 208979, Note_off_c, 1, 64, 0
1, 208979, Note_off_c, 1, 52, 0
1, 208979, Note_off_c, 1, 71, 0
1, 208980, Note_on_c, 1, 73, 127
1, 208980, Note_on_c, 1, 57, 127
1, 209009, Note_off_c, 1, 73, 0
1, 209010, Note_on_c, 1, 64, 127
1, 209039, Note_off_c, 1, 57, 0
1, 209039, Note_off_c, 1, 64, 0
1, 209040, Note_on_c, 1, 64, 127
1, 209040, Note_on_c, 1, 61, 127
1, 209040, Note_on_c, 1, 49, 127
1, 209069, Note_off_c, 1, 64, 0
1, 209070, Note_on_c, 1, 62, 127
1, 209099, Note_off_c, 1, 61, 0
1, 209099, Note_off_c, 1, 49, 0
1, 209099, Note_off_c, 1, 62, 0
1, 209100, Note_on_c, 1, 62, 127
1, 209100, Note_on_c, 1, 59, 127
1, 209100, Note_on_c, 1, 52, 127
1, 209129, Note_off_c, 1, 62, 0
1, 209130, Note_on_c, 1, 61, 127
1, 209159, Note_off_c, 1, 59, 0
1, 209159, Note_off_c, 1, 52, 0
1, 209159, Note_off_c, 1, 61, 0
1, 209160, Note_on_c, 1, 61, 127
1, 209160, Note_on_c, 1, 45, 127
1, 209190, Note_on_c, 1, 64, 127
1, 209219, Note_off_c, 1, 45, 0
1, 209219, Note_off_c, 1, 64, 0
1, 209220, Note_on_c, 1, 49, 127
1, 209279, Note_off_c, 1, 61, 0
1, 209279, Note_off_c, 1, 49, 0
1, 209280, Note_on_c, 1, 61, 127
1, 209280, Note_on_c, 1, 45, 127
1, 209310, Note_on_c, 1, 64, 127
1, 209339, Note_off_c, 1, 61, 0
1, 209339, Note_off_c, 1, 45, 0
1, 209339, Note_off_c, 1, 64, 0
1, 209340, Note_on_c, 1, 56, 127
1, 209340, Note_on_c, 1, 59, 127
1, 209340, Note_on_c, 1, 52, 127
1, 209369, Note_off_c, 1, 56, 0
1, 209369, Note_off_c, 1, 59, 0
1, 209370, Note_on_c, 1, 64, 127
1, 209399, Note_off_c, 1, 52, 0
1, 209399, Note_off_c, 1, 64, 0
1, 209400, Note_on_c, 1, 71, 127
1, 209400, Note_on_c, 1, 59, 127
1, 209400, Note_on_c, 1, 56, 127
1, 209429, Note_off_c, 1, 71, 0
1, 209429, Note_off_c, 1, 59, 0
1, 209430, Note_on_c, 1, 64, 127
1, 209459, Note_off_c, 1, 56, 0
1, 209459, Note_off_c, 1, 64, 0
1, 209460, Note_on_c, 1, 69, 127
1, 209460, Note_on_c, 1, 59, 127
1, 209460, Note_on_c, 1, 54, 127
1, 209489, Note_off_c, 1, 69, 0
1, 209489, Note_off_c, 1, 59, 0
1, 209490, Note_on_c, 1, 64, 127
1, 209519, Note_off_c, 1, 54, 0
1, 209519, Note_off_c, 1, 64, 0
1, 209520, Note_on_c, 1, 68, 127
1, 209520, Note_on_c, 1, 59, 127
1, 209520, Note_on_c, 1, 52, 127
1, 209549, Note_off_c, 1, 68, 0
1, 209549, Note_off_c, 1, 59, 0
1, 209550, Note_on_c, 1, 64, 127
1, 209579, Note_off_c, 1, 52, 0
1, 209579, Note_off_c, 1, 64, 0
1, 209580, Note_on_c, 1, 66, 127
1, 209580, Note_on_c, 1, 59, 127
1, 209580, Note_on_c, 1, 47, 127
1, 209609, Note_off_c, 1, 66, 0
1, 209609, Note_off_c, 1, 59, 0
1, 209609, Note_off_c, 1, 47, 0
1, 209610, Note_on_c, 1, 64, 127
1, 209610, Note_on_c, 1, 49, 127
1, 209639, Note_off_c, 1, 64, 0
1, 209639, Note_off_c, 1, 49, 0
1, 209640, Note_on_c, 1, 68, 127
1, 209640, Note_on_c, 1, 59, 127
1, 209640, Note_on_c, 1, 51, 127
1, 209669, Note_off_c, 1, 68, 0
1, 209669, Note_off_c, 1, 59, 0
1, 209669, Note_off_c, 1, 51, 0
1, 209670, Note_on_c, 1, 64, 127
1, 209670, Note_on_c, 1, 52, 127
1, 209699, Note_off_c, 1, 64, 0
1, 209699, Note_off_c, 1, 52, 0
1, 209700, Note_on_c, 1, 69, 127
1, 209700, Note_on_c, 1, 59, 127
1, 209700, Note_on_c, 1, 54, 127
1, 209729, Note_off_c, 1, 69, 0
1, 209729, Note_off_c, 1, 59, 0
1, 209730, Note_on_c, 1, 75, 127
1, 209759, Note_off_c, 1, 54, 0
1, 209759, Note_off_c, 1, 75, 0
1, 209760, Note_on_c, 1, 78, 127
1, 209760, Note_on_c, 1, 57, 127
1, 209760, Note_on_c, 1, 51, 127
1, 209789, Note_off_c, 1, 78, 0
1, 209789, Note_off_c, 1, 57, 0
1, 209790, Note_on_c, 1, 71, 127
1, 209790, Note_on_c, 1, 56, 127
1, 209819, Note_off_c, 1, 51, 0
1, 209819, Note_off_c, 1, 71, 0
1, 209819, Note_off_c, 1, 56, 0
1, 209820, Note_on_c, 1, 76, 127
1, 209820, Note_on_c, 1, 54, 127
1, 209820, Note_on_c, 1, 52, 127
1, 209849, Note_off_c, 1, 76, 0
1, 209849, Note_off_c, 1, 54, 0
1, 209850, Note_on_c, 1, 71, 127
1, 209879, Note_off_c, 1, 52, 0
1, 209879, Note_off_c, 1, 71, 0
1, 209880, Note_on_c, 1, 75, 127
1, 209880, Note_on_c, 1, 59, 127
1, 209880, Note_on_c, 1, 47, 127
1, 209909, Note_off_c, 1, 75, 0
1, 209910, Note_on_c, 1, 78, 127
1, 209939, Note_off_c, 1, 47, 0
1, 209939, Note_off_c, 1, 78, 0
1, 209940, Note_on_c, 1, 76, 127
1, 209940, Note_on_c, 1, 49, 127
1, 209969, Note_off_c, 1, 76, 0
1, 209970, Note_on_c, 1, 80, 127
1, 209999, Note_off_c, 1, 59, 0
1, 209999, Note_off_c, 1, 49, 0
1, 209999, Note_off_c, 1, 80, 0
1, 210000, Note_on_c, 1, 78, 127
1, 210000, Note_on_c, 1, 59, 127
1, 210000, Note_on_c, 1, 51, 127
1, 210029, Note_off_c, 1, 78, 0
1, 210030, Note_on_c, 1, 81, 127
1, 210059, Note_off_c, 1, 59, 0
1, 210059, Note_off_c, 1, 51, 0
1, 210059, Note_off_c, 1, 81, 0
1, 210060, Note_on_c, 1, 80, 127
1, 210060, Note_on_c, 1, 64, 127
1, 210060, Note_on_c, 1, 52, 127
1, 210089, Note_off_c, 1, 80, 0
1, 210090, Note_on_c, 1, 71, 127
1, 210119, Note_off_c, 1, 64, 0
1, 210119, Note_off_c, 1, 52, 0
1, 210119, Note_off_c, 1, 71, 0
1, 210120, Note_on_c, 1, 73, 127
1, 210120, Note_on_c, 1, 52, 127
1, 210120, Note_on_c, 1, 45, 127
1, 210149, Note_off_c, 1, 73, 0
1, 210150, Note_on_c, 1, 76, 127
1, 210179, Note_off_c, 1, 52, 0
1, 210179, Note_off_c, 1, 45, 0
1, 210179, Note_off_c, 1, 76, 0
1, 210180, Note_on_c, 1, 75, 127
1, 210180, Note_on_c, 1, 47, 127
1, 210209, Note_off_c, 1, 75, 0
1, 210210, Note_on_c, 1, 78, 127
1, 210239, Note_off_c, 1, 47, 0
1, 210239, Note_off_c, 1, 78, 0
1, 210240, Note_on_c, 1, 76, 127
1, 210240, Note_on_c, 1, 49, 127
1, 210269, Note_off_c, 1, 76, 0
1, 210270, Note_on_c, 1, 71, 127
1, 210299, Note_off_c, 1, 49, 0
1, 210299, Note_off_c, 1, 71, 0
1, 210300, Note_on_c, 1, 73, 127
1, 210300, Note_on_c, 1, 47, 127
1, 210329, Note_off_c, 1, 73, 0
1, 210330, Note_on_c, 1, 76, 127
1, 210359, Note_off_c, 1, 47, 0
1, 210359, Note_off_c, 1, 76, 0
1, 210360, Note_on_c, 1, 75, 127
1, 210360, Note_on_c, 1, 59, 127
1, 210360, Note_on_c, 1, 45, 127
1, 210389, Note_off_c, 1, 75, 0
1, 210390, Note_on_c, 1, 78, 127
1, 210419, Note_off_c, 1, 59, 0
1, 210419, Note_off_c, 1, 45, 0
1, 210419, Note_off_c, 1, 78, 0
1, 210420, Note_on_c, 1, 76, 127
1, 210420, Note_on_c, 1, 64, 127
1, 210420, Note_on_c, 1, 44, 127
1, 210449, Note_off_c, 1, 76, 0
1, 210450, Note_on_c, 1, 80, 127
1, 210479, Note_off_c, 1, 64, 0
1, 210479, Note_off_c, 1, 44, 0
1, 210479, Note_off_c, 1, 80, 0
1, 210480, Note_on_c, 1, 78, 127
1, 210480, Note_on_c, 1, 52, 127
1, 210480, Note_on_c, 1, 45, 127
1, 210509, Note_off_c, 1, 78, 0
1, 210510, Note_on_c, 1, 81, 127
1, 210539, Note_off_c, 1, 52, 0
1, 210539, Note_off_c, 1, 45, 0
1, 210539, Note_off_c, 1, 81, 0
1, 210540, Note_on_c, 1, 80, 127
1, 210540, Note_on_c, 1, 47, 127
1, 210569, Note_off_c, 1, 80, 0
1, 210570, Note_on_c, 1, 78, 127
1, 210599, Note_off_c, 1, 47, 0
1, 210599, Note_off_c, 1, 78, 0
1, 210600, Note_on_c, 1, 80, 127
1, 210600, Note_on_c, 1, 40, 127
1, 210629, Note_off_c, 1, 80, 0
1, 210630, Note_on_c, 1, 64, 127
1, 210659, Note_off_c, 1, 40, 0
1, 210659, Note_off_c, 1, 64, 0
1, 210660, Note_on_c, 1, 64, 127
1, 210660, Note_on_c, 1, 42, 127
1, 210689, Note_off_c, 1, 64, 0
1, 210690, Note_on_c, 1, 62, 127
1, 210719, Note_off_c, 1, 42, 0
1, 210719, Note_off_c, 1, 62, 0
1, 210720, Note_on_c, 1, 62, 127
1, 210720, Note_on_c, 1, 59, 127
1, 210720, Note_on_c, 1, 44, 127
1, 210749, Note_off_c, 1, 62, 0
1, 210750, Note_on_c, 1, 61, 127
1, 210779, Note_off_c, 1, 59, 0
1, 210779, Note_off_c, 1, 44, 0
1, 210779, Note_off_c, 1, 61, 0
1, 210780, Note_on_c, 1, 61, 127
1, 210780, Note_on_c, 1, 45, 127
1, 210810, Note_on_c, 1, 64, 127
1, 210839, Note_off_c, 1, 45, 0
1, 210839, Note_off_c, 1, 64, 0
1, 210840, Note_on_c, 1, 57, 127
1, 210899, Note_off_c, 1, 57, 0
1, 210900, Note_on_c, 1, 56, 127
1, 210959, Note_off_c, 1, 56, 0
1, 210960, Note_on_c, 1, 69, 127
1, 210960, Note_on_c, 1, 54, 127
1, 210989, Note_off_c, 1, 69, 0
1, 210989, Note_off_c, 1, 54, 0
1, 210990, Note_on_c, 1, 68, 127
1, 210990, Note_on_c, 1, 52, 127
1, 211019, Note_off_c, 1, 61, 0
1, 211019, Note_off_c, 1, 68, 0
1, 211019, Note_off_c, 1, 52, 0
1, 211020, Note_on_c, 1, 66, 127
1, 211020, Note_on_c, 1, 54, 127
1, 211020, Note_on_c, 1, 51, 127
1, 211049, Note_off_c, 1, 66, 0
1, 211049, Note_off_c, 1, 54, 0
1, 211049, Note_off_c, 1, 51, 0
1, 211050, Note_on_c, 1, 64, 127
1, 211050, Note_on_c, 1, 56, 127
1, 211050, Note_on_c, 1, 52, 127
1, 211079, Note_off_c, 1, 64, 0
1, 211079, Note_off_c, 1, 56, 0
1, 211079, Note_off_c, 1, 52, 0
1, 211080, Note_on_c, 1, 63, 127
1, 211080, Note_on_c, 1, 57, 127
1, 211080, Note_on_c, 1, 54, 127
1, 211109, Note_off_c, 1, 63, 0
1, 211109, Note_off_c, 1, 57, 0
1, 211109, Note_off_c, 1, 54, 0
1, 211110, Note_on_c, 1, 61, 127
1, 211110, Note_on_c, 1, 54, 127
1, 211110, Note_on_c, 1, 51, 127
1, 211139, Note_off_c, 1, 61, 0
1, 211139, Note_off_c, 1, 54, 0
1, 211139, Note_off_c, 1, 51, 0
1, 211140, Note_on_c, 1, 59, 127
1, 211140, Note_on_c, 1, 44, 127
1, 211170, Note_on_c, 1, 63, 127
1, 211199, Note_off_c, 1, 44, 0
1, 211199, Note_off_c, 1, 63, 0
1, 211200, Note_on_c, 1, 56, 127
1, 211259, Note_off_c, 1, 56, 0
1, 211260, Note_on_c, 1, 54, 127
1, 211319, Note_off_c, 1, 54, 0
1, 211320, Note_on_c, 1, 68, 127
1, 211320, Note_on_c, 1, 52, 127
1, 211349, Note_off_c, 1, 68, 0
1, 211349, Note_off_c, 1, 52, 0
1, 211350, Note_on_c, 1, 66, 127
1, 211350, Note_on_c, 1, 51, 127
1, 211379, Note_off_c, 1, 59, 0
1, 211379, Note_off_c, 1, 66, 0
1, 211379, Note_off_c, 1, 51, 0
1, 211380, Note_on_c, 1, 64, 127
1, 211380, Note_on_c, 1, 52, 127
1, 211380, Note_on_c, 1, 49, 127
1, 211409, Note_off_c, 1, 64, 0
1, 211409, Note_off_c, 1, 52, 0
1, 211409, Note_off_c, 1, 49, 0
1, 211410, Note_on_c, 1, 63, 127
1, 211410, Note_on_c, 1, 54, 127
1, 211410, Note_on_c, 1, 51, 127
1, 211439, Note_off_c, 1, 63, 0
1, 211439, Note_off_c, 1, 54, 0
1, 211439, Note_off_c, 1, 51, 0
1, 211440, Note_on_c, 1, 61, 127
1, 211440, Note_on_c, 1, 56, 127
1, 211440, Note_on_c, 1, 52, 127
1, 211469, Note_off_c, 1, 61, 0
1, 211469, Note_off_c, 1, 56, 0
1, 211469, Note_off_c, 1, 52, 0
1, 211470, Note_on_c, 1, 59, 127
1, 211470, Note_on_c, 1, 52, 127
1, 211470, Note_on_c, 1, 49, 127
1, 211499, Note_off_c, 1, 59, 0
1, 211499, Note_off_c, 1, 52, 0
1, 211499, Note_off_c, 1, 49, 0
1, 211500, Note_on_c, 1, 57, 127
1, 211500, Note_on_c, 1, 54, 127
1, 211500, Note_on_c, 1, 42, 127
1, 211529, Note_off_c, 1, 57, 0
1, 211530, Note_on_c, 1, 59, 127
1, 211559, Note_off_c, 1, 54, 0
1, 211559, Note_off_c, 1, 42, 0
1, 211559, Note_off_c, 1, 59, 0
1, 211560, Note_on_c, 1, 57, 127
1, 211560, Note_on_c, 1, 54, 127
1, 211590, Note_on_c, 1, 59, 127
1, 211619, Note_off_c, 1, 57, 0
1, 211619, Note_off_c, 1, 54, 0
1, 211619, Note_off_c, 1, 59, 0
1, 211620, Note_on_c, 1, 57, 127
1, 211620, Note_on_c, 1, 61, 127
1, 211620, Note_on_c, 1, 52, 127
1, 211649, Note_off_c, 1, 57, 0
1, 211650, Note_on_c, 1, 59, 127
1, 211679, Note_off_c, 1, 61, 0
1, 211679, Note_off_c, 1, 52, 0
1, 211679, Note_off_c, 1, 59, 0
1, 211680, Note_on_c, 1, 57, 127
1, 211680, Note_on_c, 1, 59, 127
1, 211680, Note_on_c, 1, 51, 127
1, 211709, Note_off_c, 1, 57, 0
1, 211709, Note_off_c, 1, 59, 0
1, 211710, Note_on_c, 1, 61, 127
1, 211739, Note_off_c, 1, 51, 0
1, 211739, Note_off_c, 1, 61, 0
1, 211740, Note_on_c, 1, 57, 127
1, 211740, Note_on_c, 1, 56, 127
1, 211740, Note_on_c, 1, 52, 127
1, 211769, Note_off_c, 1, 57, 0
1, 211769, Note_off_c, 1, 56, 0
1, 211770, Note_on_c, 1, 61, 127
1, 211770, Note_on_c, 1, 54, 127
1, 211799, Note_off_c, 1, 52, 0
1, 211799, Note_off_c, 1, 61, 0
1, 211799, Note_off_c, 1, 54, 0
1, 211800, Note_on_c, 1, 57, 127
1, 211800, Note_on_c, 1, 54, 127
1, 211830, Note_on_c, 1, 61, 127
1, 211859, Note_off_c, 1, 57, 0
1, 211859, Note_off_c, 1, 54, 0
1, 211859, Note_off_c, 1, 61, 0
1, 211860, Note_on_c, 1, 63, 127
1, 211860, Note_on_c, 1, 57, 127
1, 211860, Note_on_c, 1, 47, 127
1, 211889, Note_off_c, 1, 57, 0
1, 211890, Note_on_c, 1, 59, 127
1, 211919, Note_off_c, 1, 63, 0
1, 211919, Note_off_c, 1, 47, 0
1, 211919, Note_off_c, 1, 59, 0
1, 211920, Note_on_c, 1, 66, 127
1, 211920, Note_on_c, 1, 57, 127
1, 211920, Note_on_c, 1, 51, 127
1, 211949, Note_off_c, 1, 57, 0
1, 211950, Note_on_c, 1, 59, 127
1, 211979, Note_off_c, 1, 66, 0
1, 211979, Note_off_c, 1, 51, 0
1, 211979, Note_off_c, 1, 59, 0
1, 211980, Note_on_c, 1, 69, 127
1, 211980, Note_on_c, 1, 57, 127
1, 211980, Note_on_c, 1, 54, 127
1, 212009, Note_off_c, 1, 57, 0
1, 212010, Note_on_c, 1, 59, 127
1, 212039, Note_off_c, 1, 69, 0
1, 212039, Note_off_c, 1, 54, 0
1, 212039, Note_off_c, 1, 59, 0
1, 212040, Note_on_c, 1, 68, 127
1, 212040, Note_on_c, 1, 57, 127
1, 212040, Note_on_c, 1, 51, 127
1, 212069, Note_off_c, 1, 68, 0
1, 212069, Note_off_c, 1, 57, 0
1, 212070, Note_on_c, 1, 66, 127
1, 212070, Note_on_c, 1, 59, 127
1, 212099, Note_off_c, 1, 51, 0
1, 212099, Note_off_c, 1, 66, 0
1, 212099, Note_off_c, 1, 59, 0
1, 212100, Note_on_c, 1, 64, 127
1, 212100, Note_on_c, 1, 56, 127
1, 212100, Note_on_c, 1, 47, 127
1, 212129, Note_off_c, 1, 64, 0
1, 212129, Note_off_c, 1, 56, 0
1, 212130, Note_on_c, 1, 63, 127
1, 212130, Note_on_c, 1, 57, 127
1, 212159, Note_off_c, 1, 47, 0
1, 212159, Note_off_c, 1, 63, 0
1, 212159, Note_off_c, 1, 57, 0
1, 212160, Note_on_c, 1, 71, 127
1, 212160, Note_on_c, 1, 54, 127
1, 212160, Note_on_c, 1, 45, 127
1, 212189, Note_off_c, 1, 54, 0
1, 212190, Note_on_c, 1, 56, 127
1, 212219, Note_off_c, 1, 71, 0
1, 212219, Note_off_c, 1, 45, 0
1, 212219, Note_off_c, 1, 56, 0
1, 212220, Note_on_c, 1, 71, 127
1, 212220, Note_on_c, 1, 52, 127
1, 212220, Note_on_c, 1, 44, 127
1, 212249, Note_off_c, 1, 71, 0
1, 212249, Note_off_c, 1, 52, 0
1, 212249, Note_off_c, 1, 44, 0
1, 212250, Note_on_c, 1, 68, 127
1, 212250, Note_on_c, 1, 47, 127
1, 212279, Note_off_c, 1, 68, 0
1, 212279, Note_off_c, 1, 47, 0
1, 212280, Note_on_c, 1, 71, 127
1, 212280, Note_on_c, 1, 56, 127
1, 212280, Note_on_c, 1, 44, 127
1, 212309, Note_off_c, 1, 71, 0
1, 212309, Note_off_c, 1, 56, 0
1, 212309, Note_off_c, 1, 44, 0
1, 212310, Note_on_c, 1, 68, 127
1, 212310, Note_on_c, 1, 47, 127
1, 212339, Note_off_c, 1, 68, 0
1, 212339, Note_off_c, 1, 47, 0
1, 212340, Note_on_c, 1, 71, 127
1, 212340, Note_on_c, 1, 59, 127
1, 212340, Note_on_c, 1, 44, 127
1, 212369, Note_off_c, 1, 71, 0
1, 212369, Note_off_c, 1, 59, 0
1, 212369, Note_off_c, 1, 44, 0
1, 212370, Note_on_c, 1, 68, 127
1, 212370, Note_on_c, 1, 47, 127
1, 212399, Note_off_c, 1, 68, 0
1, 212399, Note_off_c, 1, 47, 0
1, 212400, Note_on_c, 1, 64, 127
1, 212400, Note_on_c, 1, 49, 127
1, 212429, Note_off_c, 1, 64, 0
1, 212429, Note_off_c, 1, 49, 0
1, 212430, Note_on_c, 1, 68, 127
1, 212430, Note_on_c, 1, 52, 127
1, 212459, Note_off_c, 1, 68, 0
1, 212459, Note_off_c, 1, 52, 0
1, 212460, Note_on_c, 1, 64, 127
1, 212460, Note_on_c, 1, 59, 127
1, 212460, Note_on_c, 1, 49, 127
1, 212489, Note_off_c, 1, 64, 0
1, 212489, Note_off_c, 1, 49, 0
1, 212490, Note_on_c, 1, 68, 127
1, 212490, Note_on_c, 1, 52, 127
1, 212519, Note_off_c, 1, 59, 0
1, 212519, Note_off_c, 1, 68, 0
1, 212519, Note_off_c, 1, 52, 0
1, 212520, Note_on_c, 1, 64, 127
1, 212520, Note_on_c, 1, 57, 127
1, 212520, Note_on_c, 1, 49, 127
1, 212549, Note_off_c, 1, 64, 0
1, 212549, Note_off_c, 1, 49, 0
1, 212550, Note_on_c, 1, 68, 127
1, 212550, Note_on_c, 1, 52, 127
1, 212579, Note_off_c, 1, 57, 0
1, 212579, Note_off_c, 1, 68, 0
1, 212579, Note_off_c, 1, 52, 0
1, 212580, Note_on_c, 1, 61, 127
1, 212580, Note_on_c, 1, 56, 127
1, 212580, Note_on_c, 1, 57, 127
1, 212609, Note_off_c, 1, 61, 0
1, 212610, Note_on_c, 1, 64, 127
1, 212639, Note_off_c, 1, 56, 0
1, 212639, Note_off_c, 1, 57, 0
1, 212639, Note_off_c, 1, 64, 0
1, 212640, Note_on_c, 1, 69, 127
1, 212640, Note_on_c, 1, 54, 127
1, 212640, Note_on_c, 1, 59, 127
1, 212669, Note_off_c, 1, 69, 0
1, 212669, Note_off_c, 1, 54, 0
1, 212670, Note_on_c, 1, 68, 127
1, 212670, Note_on_c, 1, 52, 127
1, 212699, Note_off_c, 1, 59, 0
1, 212699, Note_off_c, 1, 68, 0
1, 212699, Note_off_c, 1, 52, 0
1, 212700, Note_on_c, 1, 69, 127
1, 212700, Note_on_c, 1, 54, 127
1, 212700, Note_on_c, 1, 47, 127
1, 212729, Note_off_c, 1, 69, 0
1, 212729, Note_off_c, 1, 54, 0
1, 212730, Note_on_c, 1, 66, 127
1, 212730, Note_on_c, 1, 51, 127
1, 212759, Note_off_c, 1, 47, 0
1, 212759, Note_off_c, 1, 66, 0
1, 212759, Note_off_c, 1, 51, 0
1, 212760, Note_on_c, 1, 64, 127
1, 212760, Note_on_c, 1, 52, 127
1, 212760, Note_on_c, 1, 40, 127
1, 212789, Note_off_c, 1, 64, 0
1, 212790, Note_on_c, 1, 68, 127
1, 212819, Note_off_c, 1, 68, 0
1, 212820, Note_on_c, 1, 71, 127
1, 212849, Note_off_c, 1, 71, 0
1, 212850, Note_on_c, 1, 76, 127
1, 212879, Note_off_c, 1, 52, 0
1, 212879, Note_off_c, 1, 40, 0
1, 212879, Note_off_c, 1, 76, 0
1, 212880, Note_on_c, 1, 71, 127
1, 212909, Note_off_c, 1, 71, 0
1, 212910, Note_on_c, 1, 68, 127
1, 212939, Note_off_c, 1, 68, 0
1, 212940, Note_on_c, 1, 64, 127
1, 212999, Note_off_c, 1, 64, 0
1, 213000, Note_on_c, 1, 68, 127
1, 213059, Note_off_c, 1, 68, 0
1, 213060, Note_on_c, 1, 66, 127
1, 213060, Note_on_c, 1, 47, 127
1, 213119, Note_off_c, 1, 66, 0
1, 213119, Note_off_c, 1, 47, 0
1, 213120, Note_on_c, 1, 64, 127
1, 213120, Note_on_c, 1, 52, 127
1, 213179, Note_off_c, 1, 64, 0
1, 213179, Note_off_c, 1, 52, 0
1, 213180, Note_on_c, 1, 59, 127
1, 213180, Note_on_c, 1, 56, 127
1, 213209, Note_off_c, 1, 59, 0
1, 213210, Note_on_c, 1, 61, 127
1, 213239, Note_off_c, 1, 56, 0
1, 213239, Note_off_c, 1, 61, 0
1, 213240, Note_on_c, 1, 63, 127
1, 213240, Note_on_c, 1, 52, 127
1, 213269, Note_off_c, 1, 63, 0
1, 213270, Note_on_c, 1, 64, 127
1, 213299, Note_off_c, 1, 52, 0
1, 213299, Note_off_c, 1, 64, 0
1, 213300, Note_on_c, 1, 66, 127
1, 213300, Note_on_c, 1, 51, 127
1, 213359, Note_off_c, 1, 66, 0
1, 213359, Note_off_c, 1, 51, 0
1, 213360, Note_on_c, 1, 69, 127
1, 213360, Note_on_c, 1, 47, 127
1, 213389, Note_off_c, 1, 69, 0
1, 213390, Note_on_c, 1, 66, 127
1, 213419, Note_off_c, 1, 47, 0
1, 213419, Note_off_c, 1, 66, 0
1, 213420, Note_on_c, 1, 68, 127
1, 213420, Note_on_c, 1, 52, 127
1, 213449, Note_off_c, 1, 68, 0
1, 213450, Note_on_c, 1, 64, 127
1, 213479, Note_off_c, 1, 52, 0
1, 213479, Note_off_c, 1, 64, 0
1, 213480, Note_on_c, 1, 71, 127
1, 213480, Note_on_c, 1, 56, 127
1, 213539, Note_off_c, 1, 56, 0
1, 213540, Note_on_c, 1, 57, 127
1, 213569, Note_off_c, 1, 57, 0
1, 213570, Note_on_c, 1, 54, 127
1, 213599, Note_off_c, 1, 71, 0
1, 213599, Note_off_c, 1, 54, 0
1, 213600, Note_on_c, 1, 71, 127
1, 213600, Note_on_c, 1, 56, 127
1, 213629, Note_off_c, 1, 56, 0
1, 213630, Note_on_c, 1, 52, 127
1, 213659, Note_off_c, 1, 71, 0
1, 213659, Note_off_c, 1, 52, 0
1, 213660, Note_on_c, 1, 73, 127
1, 213660, Note_on_c, 1, 57, 127
1, 213689, Note_off_c, 1, 73, 0
1, 213690, Note_on_c, 1, 69, 127
1, 213719, Note_off_c, 1, 57, 0
1, 213719, Note_off_c, 1, 69, 0
1, 213720, Note_on_c, 1, 73, 127
1, 213720, Note_on_c, 1, 45, 127
1, 213749, Note_off_c, 1, 73, 0
1, 213750, Note_on_c, 1, 69, 127
1, 213779, Note_off_c, 1, 45, 0
1, 213779, Note_off_c, 1, 69, 0
1, 213780, Note_on_c, 1, 73, 127
1, 213780, Note_on_c, 1, 57, 127
1, 213809, Note_off_c, 1, 73, 0
1, 213810, Note_on_c, 1, 69, 127
1, 213839, Note_off_c, 1, 57, 0
1, 213839, Note_off_c, 1, 69, 0
1, 213840, Note_on_c, 1, 66, 127
1, 213840, Note_on_c, 1, 59, 127
1, 213869, Note_off_c, 1, 59, 0
1, 213870, Note_on_c, 1, 63, 127
1, 213899, Note_off_c, 1, 66, 0
1, 213899, Note_off_c, 1, 63, 0
1, 213900, Note_on_c, 1, 68, 127
1, 213900, Note_on_c, 1, 59, 127
1, 213929, Note_off_c, 1, 59, 0
1, 213930, Note_on_c, 1, 63, 127
1, 213959, Note_off_c, 1, 68, 0
1, 213959, Note_off_c, 1, 63, 0
1, 213960, Note_on_c, 1, 69, 127
1, 213960, Note_on_c, 1, 59, 127
1, 213989, Note_off_c, 1, 59, 0
1, 213990, Note_on_c, 1, 63, 127
1, 214019, Note_off_c, 1, 69, 0
1, 214019, Note_off_c, 1, 63, 0
1, 214020, Note_on_c, 1, 71, 127
1, 214020, Note_on_c, 1, 56, 127
1, 214049, Note_off_c, 1, 71, 0
1, 214050, Note_on_c, 1, 68, 127
1, 214079, Note_off_c, 1, 56, 0
1, 214079, Note_off_c, 1, 68, 0
1, 214080, Note_on_c, 1, 71, 127
1, 214080, Note_on_c, 1, 44, 127
1, 214109, Note_off_c, 1, 71, 0
1, 214110, Note_on_c, 1, 68, 127
1, 214139, Note_off_c, 1, 44, 0
1, 214139, Note_off_c, 1, 68, 0
1, 214140, Note_on_c, 1, 71, 127
1, 214140, Note_on_c, 1, 56, 127
1, 214169, Note_off_c, 1, 71, 0
1, 214170, Note_on_c, 1, 68, 127
1, 214199, Note_off_c, 1, 56, 0
1, 214199, Note_off_c, 1, 68, 0
1, 214200, Note_on_c, 1, 64, 127
1, 214200, Note_on_c, 1, 57, 127
1, 214229, Note_off_c, 1, 57, 0
1, 214230, Note_on_c, 1, 61, 127
1, 214259, Note_off_c, 1, 64, 0
1, 214259, Note_off_c, 1, 61, 0
1, 214260, Note_on_c, 1, 66, 127
1, 214260, Note_on_c, 1, 57, 127
1, 214289, Note_off_c, 1, 57, 0
1, 214290, Note_on_c, 1, 61, 127
1, 214319, Note_off_c, 1, 66, 0
1, 214319, Note_off_c, 1, 61, 0
1, 214320, Note_on_c, 1, 68, 127
1, 214320, Note_on_c, 1, 57, 127
1, 214349, Note_off_c, 1, 57, 0
1, 214350, Note_on_c, 1, 61, 127
1, 214379, Note_off_c, 1, 68, 0
1, 214379, Note_off_c, 1, 61, 0
1, 214380, Note_on_c, 1, 69, 127
1, 214380, Note_on_c, 1, 54, 127
1, 214409, Note_off_c, 1, 69, 0
1, 214410, Note_on_c, 1, 73, 127
1, 214439, Note_off_c, 1, 54, 0
1, 214439, Note_off_c, 1, 73, 0
1, 214440, Note_on_c, 1, 71, 127
1, 214440, Note_on_c, 1, 56, 127
1, 214469, Note_off_c, 1, 71, 0
1, 214470, Note_on_c, 1, 74, 127
1, 214499, Note_off_c, 1, 56, 0
1, 214499, Note_off_c, 1, 74, 0
1, 214500, Note_on_c, 1, 73, 127
1, 214500, Note_on_c, 1, 57, 127
1, 214529, Note_off_c, 1, 73, 0
1, 214530, Note_on_c, 1, 76, 127
1, 214559, Note_off_c, 1, 76, 0
1, 214560, Note_on_c, 1, 75, 127
1, 214589, Note_off_c, 1, 75, 0
1, 214590, Note_on_c, 1, 78, 127
1, 214619, Note_off_c, 1, 57, 0
1, 214619, Note_off_c, 1, 78, 0
1, 214620, Note_on_c, 1, 76, 127
1, 214620, Note_on_c, 1, 56, 127
1, 214649, Note_off_c, 1, 76, 0
1, 214649, Note_off_c, 1, 56, 0
1, 214650, Note_on_c, 1, 80, 127
1, 214650, Note_on_c, 1, 54, 127
1, 214679, Note_off_c, 1, 80, 0
1, 214679, Note_off_c, 1, 54, 0
1, 214680, Note_on_c, 1, 78, 127
1, 214680, Note_on_c, 1, 52, 127
1, 214709, Note_off_c, 1, 78, 0
1, 214709, Note_off_c, 1, 52, 0
1, 214710, Note_on_c, 1, 81, 127
1, 214710, Note_on_c, 1, 51, 127
1, 214739, Note_off_c, 1, 81, 0
1, 214739, Note_off_c, 1, 51, 0
1, 214740, Note_on_c, 1, 80, 127
1, 214740, Note_on_c, 1, 52, 127
1, 214799, Note_off_c, 1, 52, 0
1, 214800, Note_off_c, 1, 80, 0
1, 214800, Note_on_c, 1, 76, 127
1, 214800, Note_on_c, 1, 44, 127
1, 214859, Note_off_c, 1, 44, 0
1, 214860, Note_off_c, 1, 76, 0
1, 214860, Note_on_c, 1, 75, 127
1, 214860, Note_on_c, 1, 47, 127
1, 214919, Note_off_c, 1, 47, 0
1, 214920, Note_off_c, 1, 75, 0
1, 214920, Note_on_c, 1, 40, 127
1, 214979, Note_off_c, 1, 40, 0
1, 215010, Note_on_c, 1, 54, 127
1, 215039, Note_off_c, 1, 54, 0
1, 215040, Note_on_c, 1, 59, 127
1, 215040, Note_on_c, 1, 56, 127
1, 215069, Note_off_c, 1, 56, 0
1, 215099, Note_off_c, 1, 59, 0
1, 215100, Note_on_c, 1, 61, 127
1, 215100, Note_on_c, 1, 57, 127
1, 215129, Note_off_c, 1, 61, 0
1, 215130, Note_on_c, 1, 62, 127
1, 215159, Note_off_c, 1, 57, 0
1, 215159, Note_off_c, 1, 62, 0
1, 215160, Note_on_c, 1, 74, 127
1, 215160, Note_on_c, 1, 64, 127
1, 215160, Note_on_c, 1, 45, 127
1, 215189, Note_off_c, 1, 74, 0
1, 215190, Note_on_c, 1, 73, 127
1, 215219, Note_off_c, 1, 45, 0
1, 215219, Note_off_c, 1, 73, 0
1, 215220, Note_on_c, 1, 71, 127
1, 215220, Note_on_c, 1, 57, 127
1, 215249, Note_off_c, 1, 71, 0
1, 215250, Note_on_c, 1, 69, 127
1, 215279, Note_off_c, 1, 64, 0
1, 215279, Note_off_c, 1, 57, 0
1, 215279, Note_off_c, 1, 69, 0
1, 215280, Note_on_c, 1, 76, 127
1, 215280, Note_on_c, 1, 59, 127
1, 215280, Note_on_c, 1, 56, 127
1, 215339, Note_off_c, 1, 59, 0
1, 215339, Note_off_c, 1, 56, 0
1, 215340, Note_on_c, 1, 61, 127
1, 215340, Note_on_c, 1, 57, 127
1, 215369, Note_off_c, 1, 57, 0
1, 215399, Note_off_c, 1, 61, 0
1, 215400, Note_on_c, 1, 62, 127
1, 215400, Note_on_c, 1, 54, 127
1, 215429, Note_off_c, 1, 54, 0
1, 215430, Note_on_c, 1, 52, 127
1, 215459, Note_off_c, 1, 62, 0
1, 215459, Note_off_c, 1, 52, 0
1, 215519, Note_off_c, 1, 76, 0
1, 215520, Note_on_c, 1, 64, 127
1, 215520, Note_on_c, 1, 62, 127
1, 215520, Note_on_c, 1, 56, 127
1, 215549, Note_off_c, 1, 62, 0
1, 215550, Note_on_c, 1, 61, 127
1, 215579, Note_off_c, 1, 64, 0
1, 215579, Note_off_c, 1, 56, 0
1, 215579, Note_off_c, 1, 61, 0
1, 215580, Note_on_c, 1, 69, 127
1, 215580, Note_on_c, 1, 59, 127
1, 215580, Note_on_c, 1, 54, 127
1, 215609, Note_off_c, 1, 59, 0
1, 215610, Note_on_c, 1, 57, 127
1, 215639, Note_off_c, 1, 54, 0
1, 215639, Note_off_c, 1, 57, 0
1, 215640, Note_on_c, 1, 52, 127
1, 215669, Note_off_c, 1, 69, 0
1, 215670, Note_on_c, 1, 68, 127
1, 215699, Note_off_c, 1, 52, 0
1, 215699, Note_off_c, 1, 68, 0
1, 215700, Note_on_c, 1, 69, 127
1, 215700, Note_on_c, 1, 52, 127
1, 215700, Note_on_c, 1, 54, 127
1, 215729, Note_off_c, 1, 69, 0
1, 215730, Note_on_c, 1, 68, 127
1, 215759, Note_off_c, 1, 52, 0
1, 215759, Note_off_c, 1, 54, 0
1, 215759, Note_off_c, 1, 68, 0
1, 215760, Note_on_c, 1, 66, 127
1, 215760, Note_on_c, 1, 64, 127
1, 215760, Note_on_c, 1, 56, 127
1, 215789, Note_off_c, 1, 66, 0
1, 215819, Note_off_c, 1, 64, 0
1, 215819, Note_off_c, 1, 56, 0
1, 215820, Note_on_c, 1, 73, 127
1, 215820, Note_on_c, 1, 64, 127
1, 215820, Note_on_c, 1, 57, 127
1, 215849, Note_off_c, 1, 73, 0
1, 215849, Note_off_c, 1, 57, 0
1, 215850, Note_on_c, 1, 74, 127
1, 215850, Note_on_c, 1, 52, 127
1, 215879, Note_off_c, 1, 64, 0
1, 215879, Note_off_c, 1, 74, 0
1, 215879, Note_off_c, 1, 52, 0
1, 215880, Note_on_c, 1, 76, 127
1, 215880, Note_on_c, 1, 52, 127
1, 215880, Note_on_c, 1, 57, 127
1, 215909, Note_off_c, 1, 57, 0
1, 215939, Note_off_c, 1, 52, 0
1, 215999, Note_off_c, 1, 76, 0
1, 216000, Note_on_c, 1, 71, 127
1, 216000, Note_on_c, 1, 56, 127
1, 216029, Note_off_c, 1, 56, 0
1, 216030, Note_on_c, 1, 52, 127
1, 216059, Note_off_c, 1, 71, 0
1, 216059, Note_off_c, 1, 52, 0
1, 216060, Note_on_c, 1, 73, 127
1, 216060, Note_on_c, 1, 56, 127
1, 216089, Note_off_c, 1, 56, 0
1, 216090, Note_on_c, 1, 52, 127
1, 216119, Note_off_c, 1, 73, 0
1, 216119, Note_off_c, 1, 52, 0
1, 216120, Note_on_c, 1, 74, 127
1, 216120, Note_on_c, 1, 64, 127
1, 216120, Note_on_c, 1, 56, 127
1, 216149, Note_off_c, 1, 56, 0
1, 216150, Note_on_c, 1, 52, 127
1, 216179, Note_off_c, 1, 74, 0
1, 216179, Note_off_c, 1, 64, 0
1, 216179, Note_off_c, 1, 52, 0
1, 216180, Note_on_c, 1, 73, 127
1, 216180, Note_on_c, 1, 64, 127
1, 216180, Note_on_c, 1, 57, 127
1, 216209, Note_off_c, 1, 57, 0
1, 216210, Note_on_c, 1, 52, 127
1, 216239, Note_off_c, 1, 73, 0
1, 216239, Note_off_c, 1, 64, 0
1, 216239, Note_off_c, 1, 52, 0
1, 216240, Note_on_c, 1, 74, 127
1, 216240, Note_on_c, 1, 52, 127
1, 216240, Note_on_c, 1, 57, 127
1, 216269, Note_off_c, 1, 74, 0
1, 216269, Note_off_c, 1, 57, 0
1, 216270, Note_on_c, 1, 73, 127
1, 216299, Note_off_c, 1, 52, 0
1, 216299, Note_off_c, 1, 73, 0
1, 216300, Note_on_c, 1, 71, 127
1, 216300, Note_on_c, 1, 57, 127
1, 216329, Note_off_c, 1, 71, 0
1, 216329, Note_off_c, 1, 57, 0
1, 216330, Note_on_c, 1, 69, 127
1, 216330, Note_on_c, 1, 52, 127
1, 216359, Note_off_c, 1, 69, 0
1, 216359, Note_off_c, 1, 52, 0
1, 216360, Note_on_c, 1, 71, 127
1, 216360, Note_on_c, 1, 56, 127
1, 216389, Note_off_c, 1, 56, 0
1, 216390, Note_on_c, 1, 57, 127
1, 216419, Note_off_c, 1, 71, 0
1, 216419, Note_off_c, 1, 57, 0
1, 216420, Note_on_c, 1, 64, 127
1, 216420, Note_on_c, 1, 56, 127
1, 216449, Note_off_c, 1, 64, 0
1, 216449, Note_off_c, 1, 56, 0
1, 216450, Note_on_c, 1, 66, 127
1, 216450, Note_on_c, 1, 54, 127
1, 216479, Note_off_c, 1, 66, 0
1, 216479, Note_off_c, 1, 54, 0
1, 216480, Note_on_c, 1, 68, 127
1, 216480, Note_on_c, 1, 52, 127
1, 216509, Note_off_c, 1, 68, 0
1, 216510, Note_on_c, 1, 64, 127
1, 216510, Note_on_c, 1, 50, 127
1, 216539, Note_off_c, 1, 52, 0
1, 216539, Note_off_c, 1, 64, 0
1, 216539, Note_off_c, 1, 50, 0
1, 216540, Note_on_c, 1, 69, 127
1, 216540, Note_on_c, 1, 57, 127
1, 216540, Note_on_c, 1, 49, 127
1, 216599, Note_off_c, 1, 69, 0
1, 216599, Note_off_c, 1, 57, 0
1, 216599, Note_off_c, 1, 49, 0
1, 216600, Note_on_c, 1, 73, 127
1, 216600, Note_on_c, 1, 61, 127
1, 216600, Note_on_c, 1, 45, 127
1, 216659, Note_off_c, 1, 73, 0
1, 216659, Note_off_c, 1, 61, 0
1, 216659, Note_off_c, 1, 45, 0
1, 216660, Note_on_c, 1, 71, 127
1, 216660, Note_on_c, 1, 59, 127
1, 216660, Note_on_c, 1, 52, 127
1, 216719, Note_off_c, 1, 71, 0
1, 216719, Note_off_c, 1, 59, 0
1, 216719, Note_off_c, 1, 52, 0
1, 216720, Note_on_c, 1, 69, 127
1, 216720, Note_on_c, 1, 57, 127
1, 216779, Note_off_c, 1, 69, 0
1, 216779, Note_off_c, 1, 57, 0
1, 216780, Note_on_c, 1, 64, 127
1, 216780, Note_on_c, 1, 52, 127
1, 216780, Note_on_c, 1, 61, 127
1, 216809, Note_off_c, 1, 64, 0
1, 216809, Note_off_c, 1, 52, 0
1, 216810, Note_on_c, 1, 66, 127
1, 216810, Note_on_c, 1, 54, 127
1, 216839, Note_off_c, 1, 61, 0
1, 216839, Note_off_c, 1, 66, 0
1, 216839, Note_off_c, 1, 54, 0
1, 216840, Note_on_c, 1, 68, 127
1, 216840, Note_on_c, 1, 56, 127
1, 216840, Note_on_c, 1, 57, 127
1, 216869, Note_off_c, 1, 68, 0
1, 216869, Note_off_c, 1, 56, 0
1, 216870, Note_on_c, 1, 69, 127
1, 216899, Note_off_c, 1, 57, 0
1, 216899, Note_off_c, 1, 69, 0
1, 216900, Note_on_c, 1, 71, 127
1, 216900, Note_on_c, 1, 59, 127
1, 216900, Note_on_c, 1, 56, 127
1, 216959, Note_off_c, 1, 71, 0
1, 216959, Note_off_c, 1, 59, 0
1, 216959, Note_off_c, 1, 56, 0
1, 216960, Note_on_c, 1, 74, 127
1, 216960, Note_on_c, 1, 62, 127
1, 216960, Note_on_c, 1, 52, 127
1, 216989, Note_off_c, 1, 74, 0
1, 216989, Note_off_c, 1, 62, 0
1, 216990, Note_on_c, 1, 71, 127
1, 216990, Note_on_c, 1, 59, 127
1, 217019, Note_off_c, 1, 52, 0
1, 217019, Note_off_c, 1, 71, 0
1, 217019, Note_off_c, 1, 59, 0
1, 217020, Note_on_c, 1, 73, 127
1, 217020, Note_on_c, 1, 61, 127
1, 217020, Note_on_c, 1, 57, 127
1, 217049, Note_off_c, 1, 73, 0
1, 217049, Note_off_c, 1, 61, 0
1, 217050, Note_on_c, 1, 69, 127
1, 217079, Note_off_c, 1, 57, 0
1, 217079, Note_off_c, 1, 69, 0
1, 217080, Note_on_c, 1, 76, 127
1, 217080, Note_on_c, 1, 64, 127
1, 217080, Note_on_c, 1, 49, 127
1, 217139, Note_off_c, 1, 49, 0
1, 217140, Note_on_c, 1, 50, 127
1, 217169, Note_off_c, 1, 50, 0
1, 217170, Note_on_c, 1, 47, 127
1, 217199, Note_off_c, 1, 76, 0
1, 217199, Note_off_c, 1, 64, 0
1, 217199, Note_off_c, 1, 47, 0
1, 217200, Note_on_c, 1, 76, 127
1, 217200, Note_on_c, 1, 61, 127
1, 217200, Note_on_c, 1, 49, 127
1, 217229, Note_off_c, 1, 49, 0
1, 217230, Note_on_c, 1, 45, 127
1, 217259, Note_off_c, 1, 76, 0
1, 217259, Note_off_c, 1, 61, 0
1, 217259, Note_off_c, 1, 45, 0
1, 217260, Note_on_c, 1, 78, 127
1, 217260, Note_on_c, 1, 61, 127
1, 217260, Note_on_c, 1, 50, 127
1, 217289, Note_off_c, 1, 78, 0
1, 217290, Note_on_c, 1, 74, 127
1, 217319, Note_off_c, 1, 61, 0
1, 217319, Note_off_c, 1, 50, 0
1, 217319, Note_off_c, 1, 74, 0
1, 217320, Note_on_c, 1, 78, 127
1, 217320, Note_on_c, 1, 54, 127
1, 217320, Note_on_c, 1, 62, 127
1, 217349, Note_off_c, 1, 78, 0
1, 217350, Note_on_c, 1, 74, 127
1, 217379, Note_off_c, 1, 54, 0
1, 217379, Note_off_c, 1, 62, 0
1, 217379, Note_off_c, 1, 74, 0
1, 217380, Note_on_c, 1, 78, 127
1, 217380, Note_on_c, 1, 50, 127
1, 217409, Note_off_c, 1, 78, 0
1, 217410, Note_on_c, 1, 74, 127
1, 217439, Note_off_c, 1, 50, 0
1, 217439, Note_off_c, 1, 74, 0
1, 217440, Note_on_c, 1, 71, 127
1, 217440, Note_on_c, 1, 52, 127
1, 217469, Note_off_c, 1, 52, 0
1, 217470, Note_on_c, 1, 56, 127
1, 217499, Note_off_c, 1, 71, 0
1, 217499, Note_off_c, 1, 56, 0
1, 217500, Note_on_c, 1, 73, 127
1, 217500, Note_on_c, 1, 52, 127
1, 217529, Note_off_c, 1, 52, 0
1, 217530, Note_on_c, 1, 56, 127
1, 217559, Note_off_c, 1, 73, 0
1, 217559, Note_off_c, 1, 56, 0
1, 217560, Note_on_c, 1, 74, 127
1, 217560, Note_on_c, 1, 59, 127
1, 217560, Note_on_c, 1, 52, 127
1, 217589, Note_off_c, 1, 52, 0
1, 217590, Note_on_c, 1, 56, 127
1, 217619, Note_off_c, 1, 74, 0
1, 217619, Note_off_c, 1, 59, 0
1, 217619, Note_off_c, 1, 56, 0
1, 217620, Note_on_c, 1, 76, 127
1, 217620, Note_on_c, 1, 59, 127
1, 217620, Note_on_c, 1, 49, 127
1, 217649, Note_off_c, 1, 76, 0
1, 217650, Note_on_c, 1, 73, 127
1, 217679, Note_off_c, 1, 59, 0
1, 217679, Note_off_c, 1, 49, 0
1, 217679, Note_off_c, 1, 73, 0
1, 217680, Note_on_c, 1, 76, 127
1, 217680, Note_on_c, 1, 52, 127
1, 217680, Note_on_c, 1, 61, 127
1, 217709, Note_off_c, 1, 76, 0
1, 217710, Note_on_c, 1, 73, 127
1, 217739, Note_off_c, 1, 52, 0
1, 217739, Note_off_c, 1, 61, 0
1, 217739, Note_off_c, 1, 73, 0
1, 217740, Note_on_c, 1, 76, 127
1, 217740, Note_on_c, 1, 49, 127
1, 217769, Note_off_c, 1, 76, 0
1, 217770, Note_on_c, 1, 73, 127
1, 217799, Note_off_c, 1, 49, 0
1, 217799, Note_off_c, 1, 73, 0
1, 217800, Note_on_c, 1, 69, 127
1, 217800, Note_on_c, 1, 50, 127
1, 217829, Note_off_c, 1, 50, 0
1, 217830, Note_on_c, 1, 54, 127
1, 217859, Note_off_c, 1, 69, 0
1, 217859, Note_off_c, 1, 54, 0
1, 217860, Note_on_c, 1, 71, 127
1, 217860, Note_on_c, 1, 50, 127
1, 217889, Note_off_c, 1, 50, 0
1, 217890, Note_on_c, 1, 54, 127
1, 217919, Note_off_c, 1, 71, 0
1, 217919, Note_off_c, 1, 54, 0
1, 217920, Note_on_c, 1, 73, 127
1, 217920, Note_on_c, 1, 54, 127
1, 217920, Note_on_c, 1, 50, 127
1, 217949, Note_off_c, 1, 50, 0
1, 217979, Note_off_c, 1, 73, 0
1, 217979, Note_off_c, 1, 54, 0
1, 217980, Note_on_c, 1, 74, 127
1, 217980, Note_on_c, 1, 62, 127
1, 217980, Note_on_c, 1, 47, 127
1, 218009, Note_off_c, 1, 74, 0
1, 218009, Note_off_c, 1, 62, 0
1, 218010, Note_on_c, 1, 73, 127
1, 218039, Note_off_c, 1, 47, 0
1, 218039, Note_off_c, 1, 73, 0
1, 218040, Note_on_c, 1, 73, 127
1, 218040, Note_on_c, 1, 62, 127
1, 218040, Note_on_c, 1, 49, 127
1, 218069, Note_off_c, 1, 73, 0
1, 218069, Note_off_c, 1, 62, 0
1, 218070, Note_on_c, 1, 71, 127
1, 218099, Note_off_c, 1, 49, 0
1, 218099, Note_off_c, 1, 71, 0
1, 218100, Note_on_c, 1, 71, 127
1, 218100, Note_on_c, 1, 62, 127
1, 218100, Note_on_c, 1, 50, 127
1, 218129, Note_off_c, 1, 71, 0
1, 218129, Note_off_c, 1, 62, 0
1, 218130, Note_on_c, 1, 69, 127
1, 218159, Note_off_c, 1, 50, 0
1, 218159, Note_off_c, 1, 69, 0
1, 218160, Note_on_c, 1, 68, 127
1, 218160, Note_on_c, 1, 62, 127
1, 218160, Note_on_c, 1, 52, 127
1, 218189, Note_off_c, 1, 68, 0
1, 218189, Note_off_c, 1, 62, 0
1, 218219, Note_off_c, 1, 52, 0
1, 218220, Note_on_c, 1, 62, 127
1, 218220, Note_on_c, 1, 52, 127
1, 218220, Note_on_c, 1, 56, 127
1, 218249, Note_off_c, 1, 62, 0
1, 218250, Note_on_c, 1, 61, 127
1, 218279, Note_off_c, 1, 52, 0
1, 218279, Note_off_c, 1, 56, 0
1, 218279, Note_off_c, 1, 61, 0
1, 218280, Note_on_c, 1, 61, 127
1, 218280, Note_on_c, 1, 64, 127
1, 218280, Note_on_c, 1, 52, 127
1, 218309, Note_off_c, 1, 61, 0
1, 218310, Note_on_c, 1, 59, 127
1, 218339, Note_off_c, 1, 64, 0
1, 218339, Note_off_c, 1, 52, 0
1, 218339, Note_off_c, 1, 59, 0
1, 218340, Note_on_c, 1, 61, 127
1, 218340, Note_on_c, 1, 57, 127
1, 218370, Note_on_c, 1, 64, 127
1, 218399, Note_off_c, 1, 61, 0
1, 218399, Note_off_c, 1, 57, 0
1, 218399, Note_off_c, 1, 64, 0
1, 218400, Note_on_c, 1, 66, 127
1, 218400, Note_on_c, 1, 59, 127
1, 218400, Note_on_c, 1, 50, 127
1, 218429, Note_off_c, 1, 66, 0
1, 218429, Note_off_c, 1, 59, 0
1, 218429, Note_off_c, 1, 50, 0
1, 218430, Note_on_c, 1, 69, 127
1, 218430, Note_on_c, 1, 57, 127
1, 218430, Note_on_c, 1, 49, 127
1, 218459, Note_off_c, 1, 69, 0
1, 218459, Note_off_c, 1, 57, 0
1, 218459, Note_off_c, 1, 49, 0
1, 218460, Note_on_c, 1, 68, 127
1, 218460, Note_on_c, 1, 59, 127
1, 218460, Note_on_c, 1, 50, 127
1, 218489, Note_off_c, 1, 68, 0
1, 218490, Note_on_c, 1, 66, 127
1, 218519, Note_off_c, 1, 59, 0
1, 218519, Note_off_c, 1, 66, 0
1, 218520, Note_on_c, 1, 71, 127
1, 218520, Note_on_c, 1, 52, 127
1, 218549, Note_off_c, 1, 71, 0
1, 218550, Note_on_c, 1, 64, 127
1, 218579, Note_off_c, 1, 50, 0
1, 218579, Note_off_c, 1, 64, 0
1, 218580, Note_on_c, 1, 49, 127
1, 218610, Note_on_c, 1, 69, 127
1, 218639, Note_off_c, 1, 52, 0
1, 218639, Note_off_c, 1, 49, 0
1, 218639, Note_off_c, 1, 69, 0
1, 218640, Note_on_c, 1, 68, 127
1, 218640, Note_on_c, 1, 52, 127
1, 218640, Note_on_c, 1, 47, 127
1, 218669, Note_off_c, 1, 68, 0
1, 218670, Note_on_c, 1, 71, 127
1, 218699, Note_off_c, 1, 52, 0
1, 218699, Note_off_c, 1, 47, 0
1, 218699, Note_off_c, 1, 71, 0
1, 218700, Note_on_c, 1, 69, 127
1, 218700, Note_on_c, 1, 57, 127
1, 218700, Note_on_c, 1, 49, 127
1, 218729, Note_off_c, 1, 69, 0
1, 218730, Note_on_c, 1, 73, 127
1, 218759, Note_off_c, 1, 57, 0
1, 218759, Note_off_c, 1, 49, 0
1, 218759, Note_off_c, 1, 73, 0
1, 218760, Note_on_c, 1, 71, 127
1, 218760, Note_on_c, 1, 59, 127
1, 218760, Note_on_c, 1, 50, 127
1, 218789, Note_off_c, 1, 71, 0
1, 218790, Note_on_c, 1, 74, 127
1, 218819, Note_off_c, 1, 59, 0
1, 218819, Note_off_c, 1, 50, 0
1, 218819, Note_off_c, 1, 74, 0
1, 218820, Note_on_c, 1, 73, 127
1, 218820, Note_on_c, 1, 52, 127
1, 218849, Note_off_c, 1, 73, 0
1, 218850, Note_on_c, 1, 71, 127
1, 218879, Note_off_c, 1, 52, 0
1, 218879, Note_off_c, 1, 71, 0
1, 218880, Note_on_c, 1, 73, 127
1, 218880, Note_on_c, 1, 61, 127
1, 218880, Note_on_c, 1, 45, 127
1, 218909, Note_off_c, 1, 73, 0
1, 218910, Note_on_c, 1, 76, 127
1, 218939, Note_off_c, 1, 61, 0
1, 218939, Note_off_c, 1, 45, 0
1, 218939, Note_off_c, 1, 76, 0
1, 218940, Note_on_c, 1, 74, 127
1, 218940, Note_on_c, 1, 62, 127
1, 218940, Note_on_c, 1, 47, 127
1, 218969, Note_off_c, 1, 74, 0
1, 218970, Note_on_c, 1, 78, 127
1, 218999, Note_off_c, 1, 62, 0
1, 218999, Note_off_c, 1, 47, 0
1, 218999, Note_off_c, 1, 78, 0
1, 219000, Note_on_c, 1, 76, 127
1, 219000, Note_on_c, 1, 52, 127
1, 219000, Note_on_c, 1, 49, 127
1, 219059, Note_off_c, 1, 76, 0
1, 219059, Note_off_c, 1, 52, 0
1, 219059, Note_off_c, 1, 49, 0
1, 219060, Note_on_c, 1, 62, 127
1, 219060, Note_on_c, 1, 50, 127
1, 219060, Note_on_c, 1, 42, 127
1, 219089, Note_off_c, 1, 62, 0
1, 219090, Note_on_c, 1, 61, 127
1, 219119, Note_off_c, 1, 50, 0
1, 219119, Note_off_c, 1, 42, 0
1, 219119, Note_off_c, 1, 61, 0
1, 219120, Note_on_c, 1, 61, 127
1, 219120, Note_on_c, 1, 49, 127
1, 219120, Note_on_c, 1, 38, 127
1, 219149, Note_off_c, 1, 61, 0
1, 219150, Note_on_c, 1, 59, 127
1, 219179, Note_off_c, 1, 49, 0
1, 219179, Note_off_c, 1, 38, 0
1, 219179, Note_off_c, 1, 59, 0
1, 219180, Note_on_c, 1, 59, 127
1, 219180, Note_on_c, 1, 47, 127
1, 219180, Note_on_c, 1, 40, 127
1, 219209, Note_off_c, 1, 59, 0
1, 219210, Note_on_c, 1, 57, 127
1, 219239, Note_off_c, 1, 47, 0
1, 219239, Note_off_c, 1, 40, 0
1, 219239, Note_off_c, 1, 57, 0
1, 219240, Note_on_c, 1, 57, 127
1, 219240, Note_on_c, 1, 45, 127
1, 219359, Note_off_c, 1, 57, 0
1, 219359, Note_off_c, 1, 45, 0
1, 219360, Note_on_c, 1, 52, 127
1, 219360, Note_on_c, 1, 56, 127
1, 219419, Note_off_c, 1, 52, 0
1, 219419, Note_off_c, 1, 56, 0
1, 219420, Note_on_c, 1, 69, 127
1, 219420, Note_on_c, 1, 51, 127
1, 219420, Note_on_c, 1, 54, 127
1, 219449, Note_off_c, 1, 51, 0
1, 219449, Note_off_c, 1, 54, 0
1, 219450, Note_on_c, 1, 52, 127
1, 219450, Note_on_c, 1, 57, 127
1, 219479, Note_off_c, 1, 52, 0
1, 219479, Note_off_c, 1, 57, 0
1, 219539, Note_off_c, 1, 69, 0
1, 219600, Note_on_c, 1, 66, 127
1, 219630, Note_on_c, 1, 56, 127
1, 219659, Note_off_c, 1, 56, 0
1, 219719, Note_off_c, 1, 66, 0
1, 219780, Note_on_c, 1, 63, 127
1, 219780, Note_on_c, 1, 47, 127
1, 219810, Note_on_c, 1, 59, 127
1, 219839, Note_off_c, 1, 47, 0
1, 219839, Note_off_c, 1, 59, 0
1, 219840, Note_on_c, 1, 61, 127
1, 219840, Note_on_c, 1, 42, 127
1, 219869, Note_off_c, 1, 61, 0
1, 219899, Note_off_c, 1, 63, 0
1, 219899, Note_off_c, 1, 42, 0
1, 219900, Note_on_c, 1, 62, 127
1, 219900, Note_on_c, 1, 45, 127
1, 219929, Note_off_c, 1, 62, 0
1, 219930, Note_on_c, 1, 61, 127
1, 219959, Note_off_c, 1, 45, 0
1, 219959, Note_off_c, 1, 61, 0
1, 219960, Note_on_c, 1, 64, 127
1, 219960, Note_on_c, 1, 59, 127
1, 219960, Note_on_c, 1, 44, 127
1, 219989, Note_off_c, 1, 59, 0
1, 219990, Note_on_c, 1, 57, 127
1, 220019, Note_off_c, 1, 44, 0
1, 220019, Note_off_c, 1, 57, 0
1, 220020, Note_on_c, 1, 56, 127
1, 220020, Note_on_c, 1, 40, 127
1, 220049, Note_off_c, 1, 56, 0
1, 220050, Note_on_c, 1, 54, 127
1, 220079, Note_off_c, 1, 40, 0
1, 220079, Note_off_c, 1, 54, 0
1, 220080, Note_on_c, 1, 52, 127
1, 220109, Note_off_c, 1, 52, 0
1, 220110, Note_on_c, 1, 50, 127
1, 220139, Note_off_c, 1, 64, 0
1, 220139, Note_off_c, 1, 50, 0
1, 220140, Note_on_c, 1, 49, 127
1, 220140, Note_on_c, 1, 45, 127
1, 220170, Note_on_c, 1, 66, 127
1, 220199, Note_off_c, 1, 49, 0
1, 220199, Note_off_c, 1, 66, 0
1, 220200, Note_on_c, 1, 68, 127
1, 220200, Note_on_c, 1, 52, 127
1, 220229, Note_off_c, 1, 68, 0
1, 220230, Note_on_c, 1, 69, 127
1, 220259, Note_off_c, 1, 45, 0
1, 220259, Note_off_c, 1, 52, 0
1, 220259, Note_off_c, 1, 69, 0
1, 220260, Note_on_c, 1, 71, 127
1, 220260, Note_on_c, 1, 57, 127
1, 220289, Note_off_c, 1, 71, 0
1, 220290, Note_on_c, 1, 73, 127
1, 220319, Note_off_c, 1, 57, 0
1, 220319, Note_off_c, 1, 73, 0
1, 220320, Note_on_c, 1, 74, 127
1, 220320, Note_on_c, 1, 56, 127
1, 220320, Note_on_c, 1, 47, 127
1, 220349, Note_off_c, 1, 74, 0
1, 220350, Note_on_c, 1, 78, 127
1, 220379, Note_off_c, 1, 56, 0
1, 220379, Note_off_c, 1, 78, 0
1, 220380, Note_on_c, 1, 76, 127
1, 220380, Note_on_c, 1, 64, 127
1, 220409, Note_off_c, 1, 76, 0
1, 220439, Note_off_c, 1, 47, 0
1, 220440, Note_on_c, 1, 73, 127
1, 220469, Note_off_c, 1, 73, 0
1, 220470, Note_on_c, 1, 71, 127
1, 220499, Note_off_c, 1, 64, 0
1, 220499, Note_off_c, 1, 71, 0
1, 220500, Note_on_c, 1, 69, 127
1, 220500, Note_on_c, 1, 52, 127
1, 220500, Note_on_c, 1, 49, 127
1, 220559, Note_off_c, 1, 69, 0
1, 220559, Note_off_c, 1, 52, 0
1, 220559, Note_off_c, 1, 49, 0
1, 220560, Note_on_c, 1, 64, 127
1, 220560, Note_on_c, 1, 61, 127
1, 220560, Note_on_c, 1, 50, 127
1, 220589, Note_off_c, 1, 64, 0
1, 220589, Note_off_c, 1, 61, 0
1, 220590, Note_on_c, 1, 62, 127
1, 220590, Note_on_c, 1, 59, 127
1, 220619, Note_off_c, 1, 50, 0
1, 220619, Note_off_c, 1, 62, 0
1, 220619, Note_off_c, 1, 59, 0
1, 220620, Note_on_c, 1, 61, 127
1, 220620, Note_on_c, 1, 57, 127
1, 220620, Note_on_c, 1, 52, 127
1, 220649, Note_off_c, 1, 61, 0
1, 220649, Note_off_c, 1, 57, 0
1, 220650, Note_on_c, 1, 59, 127
1, 220650, Note_on_c, 1, 56, 127
1, 220679, Note_off_c, 1, 52, 0
1, 220679, Note_off_c, 1, 59, 0
1, 220679, Note_off_c, 1, 56, 0
1, 220680, Note_on_c, 1, 57, 127
1, 220680, Note_on_c, 1, 45, 127
1, 220799, Note_off_c, 1, 57, 0
1, 220799, Note_off_c, 1, 45, 0
1, 220800, Note_on_c, 1, 64, 127
1, 220859, Note_off_c, 1, 64, 0
1, 220860, Note_on_c, 1, 69, 127
1, 220919, Note_off_c, 1, 69, 0
1, 220920, Note_on_c, 1, 73, 127
1, 220979, Note_off_c, 1, 73, 0
1, 220980, Note_on_c, 1, 71, 127
1, 220980, Note_on_c, 1, 52, 127
1, 221039, Note_off_c, 1, 71, 0
1, 221039, Note_off_c, 1, 52, 0
1, 221040, Note_on_c, 1, 69, 127
1, 221040, Note_on_c, 1, 57, 127
1, 221099, Note_off_c, 1, 69, 0
1, 221099, Note_off_c, 1, 57, 0
1, 221100, Note_on_c, 1, 64, 127
1, 221100, Note_on_c, 1, 61, 127
1, 221129, Note_off_c, 1, 64, 0
1, 221130, Note_on_c, 1, 66, 127
1, 221159, Note_off_c, 1, 61, 0
1, 221159, Note_off_c, 1, 66, 0
1, 221160, Note_on_c, 1, 68, 127
1, 221160, Note_on_c, 1, 57, 127
1, 221189, Note_off_c, 1, 68, 0
1, 221190, Note_on_c, 1, 69, 127
1, 221219, Note_off_c, 1, 57, 0
1, 221219, Note_off_c, 1, 69, 0
1, 221220, Note_on_c, 1, 71, 127
1, 221220, Note_on_c, 1, 56, 127
1, 221279, Note_off_c, 1, 71, 0
1, 221279, Note_off_c, 1, 56, 0
1, 221280, Note_on_c, 1, 74, 127
1, 221280, Note_on_c, 1, 52, 127
1, 221309, Note_off_c, 1, 74, 0
1, 221310, Note_on_c, 1, 71, 127
1, 221339, Note_off_c, 1, 52, 0
1, 221339, Note_off_c, 1, 71, 0
1, 221340, Note_on_c, 1, 73, 127
1, 221340, Note_on_c, 1, 57, 127
1, 221369, Note_off_c, 1, 73, 0
1, 221370, Note_on_c, 1, 69, 127
1, 221399, Note_off_c, 1, 57, 0
1, 221399, Note_off_c, 1, 69, 0
1, 221400, Note_on_c, 1, 76, 127
1, 221400, Note_on_c, 1, 49, 127
1, 221459, Note_off_c, 1, 49, 0
1, 221460, Note_on_c, 1, 50, 127
1, 221489, Note_off_c, 1, 50, 0
1, 221490, Note_on_c, 1, 47, 127
1, 221519, Note_off_c, 1, 76, 0
1, 221519, Note_off_c, 1, 47, 0
1, 221520, Note_on_c, 1, 76, 127
1, 221520, Note_on_c, 1, 49, 127
1, 221549, Note_off_c, 1, 49, 0
1, 221550, Note_on_c, 1, 45, 127
1, 221579, Note_off_c, 1, 76, 0
1, 221579, Note_off_c, 1, 45, 0
1, 221580, Note_on_c, 1, 78, 127
1, 221580, Note_on_c, 1, 50, 127
1, 221609, Note_off_c, 1, 78, 0
1, 221610, Note_on_c, 1, 74, 127
1, 221639, Note_off_c, 1, 50, 0
1, 221639, Note_off_c, 1, 74, 0
1, 221640, Note_on_c, 1, 78, 127
1, 221640, Note_on_c, 1, 62, 127
1, 221669, Note_off_c, 1, 78, 0
1, 221670, Note_on_c, 1, 74, 127
1, 221699, Note_off_c, 1, 62, 0
1, 221699, Note_off_c, 1, 74, 0
1, 221700, Note_on_c, 1, 78, 127
1, 221700, Note_on_c, 1, 50, 127
1, 221729, Note_off_c, 1, 78, 0
1, 221730, Note_on_c, 1, 74, 127
1, 221759, Note_off_c, 1, 50, 0
1, 221759, Note_off_c, 1, 74, 0
1, 221760, Note_on_c, 1, 71, 127
1, 221760, Note_on_c, 1, 52, 127
1, 221789, Note_off_c, 1, 52, 0
1, 221790, Note_on_c, 1, 56, 127
1, 221819, Note_off_c, 1, 71, 0
1, 221819, Note_off_c, 1, 56, 0
1, 221820, Note_on_c, 1, 73, 127
1, 221820, Note_on_c, 1, 52, 127
1, 221849, Note_off_c, 1, 52, 0
1, 221850, Note_on_c, 1, 56, 127
1, 221879, Note_off_c, 1, 73, 0
1, 221879, Note_off_c, 1, 56, 0
1, 221880, Note_on_c, 1, 74, 127
1, 221880, Note_on_c, 1, 52, 127
1, 221909, Note_off_c, 1, 52, 0
1, 221910, Note_on_c, 1, 56, 127
1, 221939, Note_off_c, 1, 74, 0
1, 221939, Note_off_c, 1, 56, 0
1, 221940, Note_on_c, 1, 76, 127
1, 221940, Note_on_c, 1, 49, 127
1, 221969, Note_off_c, 1, 76, 0
1, 221970, Note_on_c, 1, 73, 127
1, 221999, Note_off_c, 1, 49, 0
1, 221999, Note_off_c, 1, 73, 0
1, 222000, Note_on_c, 1, 76, 127
1, 222000, Note_on_c, 1, 61, 127
1, 222029, Note_off_c, 1, 76, 0
1, 222030, Note_on_c, 1, 73, 127
1, 222059, Note_off_c, 1, 61, 0
1, 222059, Note_off_c, 1, 73, 0
1, 222060, Note_on_c, 1, 76, 127
1, 222060, Note_on_c, 1, 49, 127
1, 222089, Note_off_c, 1, 76, 0
1, 222090, Note_on_c, 1, 73, 127
1, 222119, Note_off_c, 1, 49, 0
1, 222119, Note_off_c, 1, 73, 0
1, 222120, Note_on_c, 1, 69, 127
1, 222120, Note_on_c, 1, 50, 127
1, 222149, Note_off_c, 1, 50, 0
1, 222150, Note_on_c, 1, 54, 127
1, 222179, Note_off_c, 1, 69, 0
1, 222179, Note_off_c, 1, 54, 0
1, 222180, Note_on_c, 1, 71, 127
1, 222180, Note_on_c, 1, 50, 127
1, 222209, Note_off_c, 1, 50, 0
1, 222210, Note_on_c, 1, 54, 127
1, 222239, Note_off_c, 1, 71, 0
1, 222239, Note_off_c, 1, 54, 0
1, 222240, Note_on_c, 1, 73, 127
1, 222240, Note_on_c, 1, 50, 127
1, 222269, Note_off_c, 1, 50, 0
1, 222270, Note_on_c, 1, 54, 127
1, 222299, Note_off_c, 1, 73, 0
1, 222299, Note_off_c, 1, 54, 0
1, 222300, Note_on_c, 1, 74, 127
1, 222300, Note_on_c, 1, 47, 127
1, 222329, Note_off_c, 1, 74, 0
1, 222330, Note_on_c, 1, 73, 127
1, 222359, Note_off_c, 1, 47, 0
1, 222359, Note_off_c, 1, 73, 0
1, 222360, Note_on_c, 1, 73, 127
1, 222360, Note_on_c, 1, 49, 127
1, 222389, Note_off_c, 1, 73, 0
1, 222390, Note_on_c, 1, 71, 127
1, 222419, Note_off_c, 1, 49, 0
1, 222419, Note_off_c, 1, 71, 0
1, 222420, Note_on_c, 1, 71, 127
1, 222420, Note_on_c, 1, 50, 127
1, 222449, Note_off_c, 1, 71, 0
1, 222450, Note_on_c, 1, 69, 127
1, 222479, Note_off_c, 1, 50, 0
1, 222479, Note_off_c, 1, 69, 0
1, 222480, Note_on_c, 1, 68, 127
1, 222480, Note_on_c, 1, 52, 127
1, 222509, Note_off_c, 1, 68, 0
1, 222510, Note_on_c, 1, 62, 127
1, 222539, Note_off_c, 1, 52, 0
1, 222539, Note_off_c, 1, 62, 0
1, 222540, Note_on_c, 1, 62, 127
1, 222540, Note_on_c, 1, 54, 127
1, 222569, Note_off_c, 1, 62, 0
1, 222570, Note_on_c, 1, 61, 127
1, 222599, Note_off_c, 1, 54, 0
1, 222599, Note_off_c, 1, 61, 0
1, 222600, Note_on_c, 1, 61, 127
1, 222600, Note_on_c, 1, 56, 127
1, 222629, Note_off_c, 1, 61, 0
1, 222630, Note_on_c, 1, 59, 127
1, 222659, Note_off_c, 1, 56, 0
1, 222659, Note_off_c, 1, 59, 0
1, 222660, Note_on_c, 1, 61, 127
1, 222660, Note_on_c, 1, 57, 127
1, 222689, Note_off_c, 1, 61, 0
1, 222690, Note_on_c, 1, 64, 127
1, 222719, Note_off_c, 1, 57, 0
1, 222719, Note_off_c, 1, 64, 0
1, 222720, Note_on_c, 1, 66, 127
1, 222720, Note_on_c, 1, 50, 127
1, 222749, Note_off_c, 1, 66, 0
1, 222750, Note_on_c, 1, 69, 127
1, 222779, Note_off_c, 1, 50, 0
1, 222779, Note_off_c, 1, 69, 0
1, 222780, Note_on_c, 1, 68, 127
1, 222780, Note_on_c, 1, 52, 127
1, 222809, Note_off_c, 1, 68, 0
1, 222810, Note_on_c, 1, 71, 127
1, 222839, Note_off_c, 1, 52, 0
1, 222839, Note_off_c, 1, 71, 0
1, 222840, Note_on_c, 1, 69, 127
1, 222840, Note_on_c, 1, 54, 127
1, 222869, Note_off_c, 1, 69, 0
1, 222870, Note_on_c, 1, 64, 127
1, 222899, Note_off_c, 1, 54, 0
1, 222899, Note_off_c, 1, 64, 0
1, 222900, Note_on_c, 1, 66, 127
1, 222900, Note_on_c, 1, 52, 127
1, 222929, Note_off_c, 1, 66, 0
1, 222930, Note_on_c, 1, 69, 127
1, 222959, Note_off_c, 1, 52, 0
1, 222959, Note_off_c, 1, 69, 0
1, 222960, Note_on_c, 1, 68, 127
1, 222960, Note_on_c, 1, 50, 127
1, 222989, Note_off_c, 1, 68, 0
1, 222990, Note_on_c, 1, 71, 127
1, 223019, Note_off_c, 1, 50, 0
1, 223019, Note_off_c, 1, 71, 0
1, 223020, Note_on_c, 1, 69, 127
1, 223020, Note_on_c, 1, 49, 127
1, 223049, Note_off_c, 1, 69, 0
1, 223050, Note_on_c, 1, 73, 127
1, 223079, Note_off_c, 1, 49, 0
1, 223079, Note_off_c, 1, 73, 0
1, 223080, Note_on_c, 1, 71, 127
1, 223080, Note_on_c, 1, 50, 127
1, 223109, Note_off_c, 1, 71, 0
1, 223110, Note_on_c, 1, 74, 127
1, 223139, Note_off_c, 1, 50, 0
1, 223139, Note_off_c, 1, 74, 0
1, 223140, Note_on_c, 1, 73, 127
1, 223140, Note_on_c, 1, 52, 127
1, 223169, Note_off_c, 1, 73, 0
1, 223170, Note_on_c, 1, 71, 127
1, 223199, Note_off_c, 1, 52, 0
1, 223199, Note_off_c, 1, 71, 0
1, 223200, Note_on_c, 1, 73, 127
1, 223200, Note_on_c, 1, 45, 127
1, 223229, Note_off_c, 1, 73, 0
1, 223230, Note_on_c, 1, 76, 127
1, 223259, Note_off_c, 1, 45, 0
1, 223259, Note_off_c, 1, 76, 0
1, 223260, Note_on_c, 1, 74, 127
1, 223260, Note_on_c, 1, 47, 127
1, 223289, Note_off_c, 1, 74, 0
1, 223290, Note_on_c, 1, 78, 127
1, 223319, Note_off_c, 1, 47, 0
1, 223319, Note_off_c, 1, 78, 0
1, 223320, Note_on_c, 1, 76, 127
1, 223320, Note_on_c, 1, 49, 127
1, 223379, Note_off_c, 1, 76, 0
1, 223379, Note_off_c, 1, 49, 0
1, 223380, Note_on_c, 1, 62, 127
1, 223380, Note_on_c, 1, 42, 127
1, 223409, Note_off_c, 1, 62, 0
1, 223410, Note_on_c, 1, 61, 127
1, 223439, Note_off_c, 1, 42, 0
1, 223439, Note_off_c, 1, 61, 0
1, 223440, Note_on_c, 1, 61, 127
1, 223440, Note_on_c, 1, 38, 127
1, 223469, Note_off_c, 1, 61, 0
1, 223470, Note_on_c, 1, 59, 127
1, 223499, Note_off_c, 1, 38, 0
1, 223499, Note_off_c, 1, 59, 0
1, 223500, Note_on_c, 1, 59, 127
1, 223500, Note_on_c, 1, 40, 127
1, 223529, Note_off_c, 1, 59, 0
1, 223530, Note_on_c, 1, 57, 127
1, 223559, Note_off_c, 1, 40, 0
1, 223559, Note_off_c, 1, 57, 0
1, 223560, Note_on_c, 1, 57, 127
1, 223560, Note_on_c, 1, 45, 127
1, 223799, Note_off_c, 1, 57, 0
1, 223800, Note_on_c, 1, 61, 127
1, 223919, Note_off_c, 1, 45, 0
1, 223919, Note_off_c, 1, 61, 0
1, 223920, Note_on_c, 1, 54, 127
1, 223920, Note_on_c, 1, 57, 127
1, 224039, Note_off_c, 1, 54, 0
1, 224039, Note_off_c, 1, 57, 0
1, 224040, Note_on_c, 1, 53, 127
1, 224040, Note_on_c, 1, 56, 127
1, 224159, Note_off_c, 1, 56, 0
1, 224280, Note_on_c, 1, 80, 127
1, 224280, Note_on_c, 1, 59, 127
1, 224399, Note_off_c, 1, 53, 0
1, 224399, Note_off_c, 1, 59, 0
1, 224520, Note_on_c, 1, 62, 127
1, 224639, Note_off_c, 1, 62, 0
1, 224640, Note_on_c, 1, 61, 127
1, 224759, Note_off_c, 1, 80, 0
1, 224760, Note_on_c, 1, 77, 127
1, 224760, Note_on_c, 1, 49, 127
1, 224879, Note_off_c, 1, 61, 0
1, 224879, Note_off_c, 1, 49, 0
1, 224999, Note_off_c, 1, 77, 0
1, 225000, Note_on_c, 1, 78, 127
1, 225000, Note_on_c, 1, 58, 127
1, 225000, Note_on_c, 1, 54, 127
1, 225119, Note_off_c, 1, 78, 0
1, 225119, Note_off_c, 1, 54, 0
1, 225120, Note_on_c, 1, 73, 127
1, 225120, Note_on_c, 1, 52, 127
1, 225239, Note_off_c, 1, 58, 0
1, 225239, Note_off_c, 1, 73, 0
1, 225239, Note_off_c, 1, 52, 0
1, 225240, Note_on_c, 1, 66, 127
1, 225240, Note_on_c, 1, 59, 127
1, 225240, Note_on_c, 1, 51, 127
1, 225299, Note_off_c, 1, 59, 0
1, 225300, Note_on_c, 1, 58, 127
1, 225359, Note_off_c, 1, 66, 0
1, 225359, Note_off_c, 1, 51, 0
1, 225359, Note_off_c, 1, 58, 0
1, 225360, Note_on_c, 1, 76, 127
1, 225360, Note_on_c, 1, 56, 127
1, 225360, Note_on_c, 1, 54, 127
1, 225419, Note_off_c, 1, 56, 0
1, 225479, Note_off_c, 1, 76, 0
1, 225479, Note_off_c, 1, 54, 0
1, 225480, Note_on_c, 1, 75, 127
1, 225480, Note_on_c, 1, 59, 127
1, 225480, Note_on_c, 1, 47, 127
1, 225599, Note_off_c, 1, 75, 0
1, 225599, Note_off_c, 1, 47, 0
1, 225600, Note_on_c, 1, 73, 127
1, 225600, Note_on_c, 1, 49, 127
1, 225659, Note_off_c, 1, 73, 0
1, 225719, Note_off_c, 1, 49, 0
1, 225720, Note_on_c, 1, 71, 127
1, 225720, Note_on_c, 1, 51, 127
1, 225839, Note_off_c, 1, 59, 0
1, 225839, Note_off_c, 1, 71, 0
1, 225839, Note_off_c, 1, 51, 0
1, 225840, Note_on_c, 1, 52, 127
1, 225959, Note_off_c, 1, 52, 0
1, 225960, Note_on_c, 1, 51, 127
1, 225960, Note_on_c, 1, 54, 127
1, 226019, Note_off_c, 1, 51, 0
1, 226079, Note_off_c, 1, 54, 0
1, 226080, Note_on_c, 1, 57, 127
1, 226080, Note_on_c, 1, 52, 127
1, 226199, Note_off_c, 1, 52, 0
1, 226200, Note_on_c, 1, 78, 127
1, 226200, Note_on_c, 1, 51, 127
1, 226259, Note_off_c, 1, 57, 0
1, 226260, Note_on_c, 1, 56, 127
1, 226319, Note_off_c, 1, 51, 0
1, 226319, Note_off_c, 1, 56, 0
1, 226320, Note_on_c, 1, 49, 127
1, 226439, Note_off_c, 1, 49, 0
1, 226440, Note_on_c, 1, 46, 127
1, 226559, Note_off_c, 1, 78, 0
1, 226559, Note_off_c, 1, 46, 0
1, 226560, Note_on_c, 1, 80, 127
1, 226619, Note_off_c, 1, 80, 0
1, 226620, Note_on_c, 1, 81, 127
1, 226679, Note_off_c, 1, 81, 0
1, 226680, Note_on_c, 1, 47, 127
1, 226799, Note_off_c, 1, 47, 0
1, 226800, Note_on_c, 1, 76, 127
1, 226800, Note_on_c, 1, 44, 127
1, 226859, Note_off_c, 1, 76, 0
1, 226860, Note_on_c, 1, 75, 127
1, 226919, Note_off_c, 1, 44, 0
1, 226919, Note_off_c, 1, 75, 0
1, 227160, Note_on_c, 1, 73, 127
1, 227160, Note_on_c, 1, 61, 127
1, 227160, Note_on_c, 1, 52, 127
1, 227279, Note_off_c, 1, 73, 0
1, 227279, Note_off_c, 1, 52, 0
1, 227280, Note_on_c, 1, 54, 127
1, 227339, Note_off_c, 1, 54, 0
1, 227340, Note_on_c, 1, 56, 127
1, 227399, Note_off_c, 1, 56, 0
1, 227400, Note_on_c, 1, 57, 127
1, 227519, Note_off_c, 1, 61, 0
1, 227519, Note_off_c, 1, 57, 0
1, 227520, Note_on_c, 1, 64, 127
1, 227520, Note_on_c, 1, 56, 127
1, 227639, Note_off_c, 1, 64, 0
1, 227639, Note_off_c, 1, 56, 0
1, 227640, Note_on_c, 1, 64, 127
1, 227640, Note_on_c, 1, 54, 127
1, 227699, Note_off_c, 1, 64, 0
1, 227700, Note_on_c, 1, 63, 127
1, 227759, Note_off_c, 1, 54, 0
1, 227759, Note_off_c, 1, 63, 0
1, 227760, Note_on_c, 1, 61, 127
1, 227760, Note_on_c, 1, 56, 127
1, 227819, Note_off_c, 1, 61, 0
1, 227820, Note_on_c, 1, 60, 127
1, 227879, Note_off_c, 1, 56, 0
1, 227879, Note_off_c, 1, 60, 0
1, 227880, Note_on_c, 1, 61, 127
1, 227880, Note_on_c, 1, 49, 127
1, 227999, Note_off_c, 1, 49, 0
1, 228000, Note_on_c, 1, 51, 127
1, 228119, Note_off_c, 1, 61, 0
1, 228119, Note_off_c, 1, 51, 0
1, 228120, Note_on_c, 1, 68, 127
1, 228120, Note_on_c, 1, 52, 127
1, 228239, Note_off_c, 1, 52, 0
1, 228240, Note_on_c, 1, 49, 127
1, 228359, Note_off_c, 1, 49, 0
1, 228360, Note_on_c, 1, 57, 127
1, 228360, Note_on_c, 1, 54, 127
1, 228419, Note_off_c, 1, 57, 0
1, 228420, Note_on_c, 1, 59, 127
1, 228479, Note_off_c, 1, 68, 0
1, 228479, Note_off_c, 1, 54, 0
1, 228479, Note_off_c, 1, 59, 0
1, 228480, Note_on_c, 1, 69, 127
1, 228480, Note_on_c, 1, 61, 127
1, 228480, Note_on_c, 1, 50, 127
1, 228539, Note_off_c, 1, 69, 0
1, 228540, Note_on_c, 1, 71, 127
1, 228599, Note_off_c, 1, 50, 0
1, 228599, Note_off_c, 1, 71, 0
1, 228600, Note_on_c, 1, 47, 127
1, 228659, Note_off_c, 1, 61, 0
1, 228660, Note_on_c, 1, 68, 127
1, 228660, Note_on_c, 1, 59, 127
1, 228719, Note_off_c, 1, 47, 0
1, 228719, Note_off_c, 1, 68, 0
1, 228719, Note_off_c, 1, 59, 0
1, 228720, Note_on_c, 1, 66, 127
1, 228720, Note_on_c, 1, 57, 127
1, 228720, Note_on_c, 1, 49, 127
1, 228779, Note_off_c, 1, 66, 0
1, 228779, Note_off_c, 1, 57, 0
1, 228780, Note_on_c, 1, 65, 127
1, 228780, Note_on_c, 1, 56, 127
1, 228839, Note_off_c, 1, 49, 0
1, 228839, Note_off_c, 1, 65, 0
1, 228839, Note_off_c, 1, 56, 0
1, 228840, Note_on_c, 1, 66, 127
1, 228840, Note_on_c, 1, 57, 127
1, 228840, Note_on_c, 1, 42, 127
1, 228959, Note_off_c, 1, 66, 0
1, 228959, Note_off_c, 1, 57, 0
1, 228960, Note_on_c, 1, 65, 127
1, 228960, Note_on_c, 1, 56, 127
1, 229019, Note_off_c, 1, 65, 0
1, 229019, Note_off_c, 1, 56, 0
1, 229079, Note_off_c, 1, 42, 0
1, 229080, Note_on_c, 1, 68, 127
1, 229080, Note_on_c, 1, 59, 127
1, 229080, Note_on_c, 1, 49, 127
1, 229199, Note_off_c, 1, 68, 0
1, 229199, Note_off_c, 1, 59, 0
1, 229199, Note_off_c, 1, 49, 0
1, 229200, Note_on_c, 1, 66, 127
1, 229200, Note_on_c, 1, 57, 127
1, 229200, Note_on_c, 1, 49, 127
1, 229259, Note_off_c, 1, 66, 0
1, 229259, Note_off_c, 1, 57, 0
1, 229260, Note_on_c, 1, 65, 127
1, 229260, Note_on_c, 1, 56, 127
1, 229319, Note_off_c, 1, 49, 0
1, 229319, Note_off_c, 1, 65, 0
1, 229319, Note_off_c, 1, 56, 0
1, 229320, Note_on_c, 1, 66, 127
1, 229320, Note_on_c, 1, 57, 127
1, 229320, Note_on_c, 1, 54, 127
1, 229439, Note_off_c, 1, 54, 0
1, 229559, Note_off_c, 1, 66, 0
1, 229559, Note_off_c, 1, 57, 0
1, 229560, Note_on_c, 1, 54, 127
1, 229560, Note_on_c, 1, 57, 127
1, 229619, Note_off_c, 1, 57, 0
1, 229620, Note_on_c, 1, 56, 127
1, 229679, Note_off_c, 1, 54, 0
1, 229679, Note_off_c, 1, 56, 0
1, 229680, Note_on_c, 1, 57, 127
1, 229680, Note_on_c, 1, 54, 127
1, 229739, Note_off_c, 1, 54, 0
1, 229740, Note_on_c, 1, 52, 127
1, 229799, Note_off_c, 1, 57, 0
1, 229799, Note_off_c, 1, 52, 0
1, 229800, Note_on_c, 1, 51, 127
1, 229800, Note_on_c, 1, 54, 127
1, 229919, Note_off_c, 1, 54, 0
1, 230040, Note_on_c, 1, 78, 127
1, 230040, Note_on_c, 1, 57, 127
1, 230159, Note_off_c, 1, 51, 0
1, 230159, Note_off_c, 1, 57, 0
1, 230280, Note_on_c, 1, 60, 127
1, 230399, Note_off_c, 1, 60, 0
1, 230400, Note_on_c, 1, 59, 127
1, 230519, Note_off_c, 1, 78, 0
1, 230520, Note_on_c, 1, 75, 127
1, 230520, Note_on_c, 1, 47, 127
1, 230639, Note_off_c, 1, 59, 0
1, 230639, Note_off_c, 1, 47, 0
1, 230759, Note_off_c, 1, 75, 0
1, 230760, Note_on_c, 1, 76, 127
1, 230760, Note_on_c, 1, 56, 127
1, 230760, Note_on_c, 1, 52, 127
1, 230879, Note_off_c, 1, 76, 0
1, 230879, Note_off_c, 1, 52, 0
1, 230880, Note_on_c, 1, 71, 127
1, 230880, Note_on_c, 1, 50, 127
1, 230999, Note_off_c, 1, 56, 0
1, 230999, Note_off_c, 1, 71, 0
1, 230999, Note_off_c, 1, 50, 0
1, 231000, Note_on_c, 1, 64, 127
1, 231000, Note_on_c, 1, 57, 127
1, 231000, Note_on_c, 1, 49, 127
1, 231059, Note_off_c, 1, 57, 0
1, 231060, Note_on_c, 1, 56, 127
1, 231119, Note_off_c, 1, 64, 0
1, 231119, Note_off_c, 1, 49, 0
1, 231119, Note_off_c, 1, 56, 0
1, 231120, Note_on_c, 1, 74, 127
1, 231120, Note_on_c, 1, 54, 127
1, 231120, Note_on_c, 1, 52, 127
1, 231179, Note_off_c, 1, 54, 0
1, 231239, Note_off_c, 1, 74, 0
1, 231239, Note_off_c, 1, 52, 0
1, 231240, Note_on_c, 1, 73, 127
1, 231240, Note_on_c, 1, 57, 127
1, 231240, Note_on_c, 1, 45, 127
1, 231359, Note_off_c, 1, 73, 0
1, 231359, Note_off_c, 1, 45, 0
1, 231360, Note_on_c, 1, 71, 127
1, 231360, Note_on_c, 1, 47, 127
1, 231419, Note_off_c, 1, 71, 0
1, 231479, Note_off_c, 1, 47, 0
1, 231480, Note_on_c, 1, 69, 127
1, 231480, Note_on_c, 1, 49, 127
1, 231599, Note_off_c, 1, 57, 0
1, 231599, Note_off_c, 1, 69, 0
1, 231599, Note_off_c, 1, 49, 0
1, 231600, Note_on_c, 1, 50, 127
1, 231719, Note_off_c, 1, 50, 0
1, 231720, Note_on_c, 1, 49, 127
1, 231720, Note_on_c, 1, 52, 127
1, 231779, Note_off_c, 1, 49, 0
1, 231839, Note_off_c, 1, 52, 0
1, 231840, Note_on_c, 1, 55, 127
1, 231840, Note_on_c, 1, 50, 127
1, 231959, Note_off_c, 1, 50, 0
1, 231960, Note_on_c, 1, 76, 127
1, 231960, Note_on_c, 1, 49, 127
1, 232019, Note_off_c, 1, 55, 0
1, 232020, Note_on_c, 1, 54, 127
1, 232079, Note_off_c, 1, 49, 0
1, 232079, Note_off_c, 1, 54, 0
1, 232080, Note_on_c, 1, 47, 127
1, 232199, Note_off_c, 1, 47, 0
1, 232200, Note_on_c, 1, 46, 127
1, 232319, Note_off_c, 1, 76, 0
1, 232319, Note_off_c, 1, 46, 0
1, 232320, Note_on_c, 1, 78, 127
1, 232379, Note_off_c, 1, 78, 0
1, 232380, Note_on_c, 1, 79, 127
1, 232439, Note_off_c, 1, 79, 0
1, 232560, Note_on_c, 1, 74, 127
1, 232560, Note_on_c, 1, 42, 127
1, 232619, Note_off_c, 1, 74, 0
1, 232620, Note_on_c, 1, 73, 127
1, 232679, Note_off_c, 1, 42, 0
1, 232679, Note_off_c, 1, 73, 0
1, 232920, Note_on_c, 1, 71, 127
1, 232920, Note_on_c, 1, 59, 127
1, 232920, Note_on_c, 1, 50, 127
1, 233039, Note_off_c, 1, 71, 0
1, 233039, Note_off_c, 1, 50, 0
1, 233040, Note_on_c, 1, 52, 127
1, 233099, Note_off_c, 1, 52, 0
1, 233100, Note_on_c, 1, 54, 127
1, 233159, Note_off_c, 1, 54, 0
1, 233160, Note_on_c, 1, 55, 127
1, 233279, Note_off_c, 1, 59, 0
1, 233279, Note_off_c, 1, 55, 0
1, 233280, Note_on_c, 1, 62, 127
1, 233280, Note_on_c, 1, 54, 127
1, 233399, Note_off_c, 1, 62, 0
1, 233399, Note_off_c, 1, 54, 0
1, 233400, Note_on_c, 1, 62, 127
1, 233400, Note_on_c, 1, 52, 127
1, 233459, Note_off_c, 1, 62, 0
1, 233460, Note_on_c, 1, 61, 127
1, 233519, Note_off_c, 1, 52, 0
1, 233519, Note_off_c, 1, 61, 0
1, 233520, Note_on_c, 1, 59, 127
1, 233520, Note_on_c, 1, 54, 127
1, 233579, Note_off_c, 1, 59, 0
1, 233580, Note_on_c, 1, 58, 127
1, 233639, Note_off_c, 1, 54, 0
1, 233639, Note_off_c, 1, 58, 0
1, 233640, Note_on_c, 1, 59, 127
1, 233640, Note_on_c, 1, 47, 127
1, 233759, Note_off_c, 1, 47, 0
1, 233760, Note_on_c, 1, 49, 127
1, 233879, Note_off_c, 1, 59, 0
1, 233879, Note_off_c, 1, 49, 0
1, 233880, Note_on_c, 1, 66, 127
1, 233880, Note_on_c, 1, 50, 127
1, 233999, Note_off_c, 1, 50, 0
1, 234000, Note_on_c, 1, 47, 127
1, 234119, Note_off_c, 1, 47, 0
1, 234120, Note_on_c, 1, 55, 127
1, 234120, Note_on_c, 1, 52, 127
1, 234179, Note_off_c, 1, 55, 0
1, 234180, Note_on_c, 1, 57, 127
1, 234239, Note_off_c, 1, 66, 0
1, 234239, Note_off_c, 1, 52, 0
1, 234239, Note_off_c, 1, 57, 0
1, 234240, Note_on_c, 1, 67, 127
1, 234240, Note_on_c, 1, 59, 127
1, 234240, Note_on_c, 1, 48, 127
1, 234299, Note_off_c, 1, 67, 0
1, 234300, Note_on_c, 1, 69, 127
1, 234359, Note_off_c, 1, 48, 0
1, 234359, Note_off_c, 1, 69, 0
1, 234360, Note_on_c, 1, 45, 127
1, 234419, Note_off_c, 1, 59, 0
1, 234420, Note_on_c, 1, 66, 127
1, 234420, Note_on_c, 1, 57, 127
1, 234479, Note_off_c, 1, 45, 0
1, 234479, Note_off_c, 1, 66, 0
1, 234479, Note_off_c, 1, 57, 0
1, 234480, Note_on_c, 1, 64, 127
1, 234480, Note_on_c, 1, 55, 127
1, 234480, Note_on_c, 1, 47, 127
1, 234539, Note_off_c, 1, 64, 0
1, 234539, Note_off_c, 1, 55, 0
1, 234540, Note_on_c, 1, 63, 127
1, 234540, Note_on_c, 1, 54, 127
1, 234599, Note_off_c, 1, 47, 0
1, 234599, Note_off_c, 1, 63, 0
1, 234599, Note_off_c, 1, 54, 0
1, 234600, Note_on_c, 1, 64, 127
1, 234600, Note_on_c, 1, 55, 127
1, 234600, Note_on_c, 1, 40, 127
1, 234719, Note_off_c, 1, 64, 0
1, 234719, Note_off_c, 1, 55, 0
1, 234720, Note_on_c, 1, 63, 127
1, 234720, Note_on_c, 1, 54, 127
1, 234779, Note_off_c, 1, 63, 0
1, 234779, Note_off_c, 1, 54, 0
1, 234839, Note_off_c, 1, 40, 0
1, 234840, Note_on_c, 1, 66, 127
1, 234840, Note_on_c, 1, 57, 127
1, 234840, Note_on_c, 1, 47, 127
1, 234959, Note_off_c, 1, 66, 0
1, 234959, Note_off_c, 1, 57, 0
1, 234959, Note_off_c, 1, 47, 0
1, 234960, Note_on_c, 1, 64, 127
1, 234960, Note_on_c, 1, 55, 127
1, 234960, Note_on_c, 1, 47, 127
1, 235019, Note_off_c, 1, 64, 0
1, 235019, Note_off_c, 1, 55, 0
1, 235020, Note_on_c, 1, 63, 127
1, 235020, Note_on_c, 1, 54, 127
1, 235079, Note_off_c, 1, 47, 0
1, 235079, Note_off_c, 1, 63, 0
1, 235079, Note_off_c, 1, 54, 0
1, 235080, Note_on_c, 1, 64, 127
1, 235080, Note_on_c, 1, 55, 127
1, 235080, Note_on_c, 1, 52, 127
1, 235199, Note_off_c, 1, 55, 0
1, 235199, Note_off_c, 1, 52, 0
1, 235200, Note_on_c, 1, 59, 127
1, 235319, Note_off_c, 1, 64, 0
1, 235319, Note_off_c, 1, 59, 0
1, 235320, Note_on_c, 1, 64, 127
1, 235320, Note_on_c, 1, 55, 127
1, 235379, Note_off_c, 1, 55, 0
1, 235380, Note_on_c, 1, 54, 127
1, 235439, Note_off_c, 1, 54, 0
1, 235440, Note_on_c, 1, 71, 127
1, 235440, Note_on_c, 1, 52, 127
1, 235499, Note_off_c, 1, 52, 0
1, 235500, Note_on_c, 1, 50, 127
1, 235559, Note_off_c, 1, 64, 0
1, 235559, Note_off_c, 1, 71, 0
1, 235559, Note_off_c, 1, 50, 0
1, 235560, Note_on_c, 1, 76, 127
1, 235560, Note_on_c, 1, 49, 127
1, 235679, Note_off_c, 1, 49, 0
1, 235680, Note_on_c, 1, 54, 127
1, 235799, Note_off_c, 1, 76, 0
1, 235799, Note_off_c, 1, 54, 0
1, 235800, Note_on_c, 1, 62, 127
1, 235800, Note_on_c, 1, 54, 127
1, 235859, Note_off_c, 1, 54, 0
1, 235860, Note_on_c, 1, 52, 127
1, 235919, Note_off_c, 1, 62, 0
1, 235919, Note_off_c, 1, 52, 0
1, 235920, Note_on_c, 1, 66, 127
1, 235920, Note_on_c, 1, 59, 127
1, 235920, Note_on_c, 1, 50, 127
1, 235979, Note_off_c, 1, 50, 0
1, 235980, Note_on_c, 1, 49, 127
1, 236039, Note_off_c, 1, 66, 0
1, 236039, Note_off_c, 1, 59, 0
1, 236039, Note_off_c, 1, 49, 0
1, 236040, Note_on_c, 1, 74, 127
1, 236040, Note_on_c, 1, 57, 127
1, 236040, Note_on_c, 1, 47, 127
1, 236099, Note_off_c, 1, 57, 0
1, 236100, Note_on_c, 1, 55, 127
1, 236159, Note_off_c, 1, 74, 0
1, 236159, Note_off_c, 1, 47, 0
1, 236159, Note_off_c, 1, 55, 0
1, 236160, Note_on_c, 1, 71, 127
1, 236160, Note_on_c, 1, 54, 127
1, 236160, Note_on_c, 1, 52, 127
1, 236219, Note_off_c, 1, 54, 0
1, 236279, Note_off_c, 1, 71, 0
1, 236279, Note_off_c, 1, 52, 0
1, 236280, Note_on_c, 1, 70, 127
1, 236280, Note_on_c, 1, 61, 127
1, 236280, Note_on_c, 1, 52, 127
1, 236339, Note_off_c, 1, 52, 0
1, 236340, Note_on_c, 1, 50, 127
1, 236399, Note_off_c, 1, 70, 0
1, 236399, Note_off_c, 1, 50, 0
1, 236400, Note_on_c, 1, 73, 127
1, 236400, Note_on_c, 1, 49, 127
1, 236459, Note_off_c, 1, 49, 0
1, 236460, Note_on_c, 1, 47, 127
1, 236519, Note_off_c, 1, 61, 0
1, 236519, Note_off_c, 1, 73, 0
1, 236519, Note_off_c, 1, 47, 0
1, 236520, Note_on_c, 1, 66, 127
1, 236520, Note_on_c, 1, 46, 127
1, 236579, Note_off_c, 1, 66, 0
1, 236580, Note_on_c, 1, 64, 127
1, 236639, Note_off_c, 1, 46, 0
1, 236639, Note_off_c, 1, 64, 0
1, 236640, Note_on_c, 1, 62, 127
1, 236640, Note_on_c, 1, 50, 127
1, 236699, Note_off_c, 1, 62, 0
1, 236700, Note_on_c, 1, 61, 127
1, 236759, Note_off_c, 1, 50, 0
1, 236759, Note_off_c, 1, 61, 0
1, 236760, Note_on_c, 1, 59, 127
1, 236760, Note_on_c, 1, 54, 127
1, 236760, Note_on_c, 1, 50, 127
1, 236819, Note_off_c, 1, 50, 0
1, 236820, Note_on_c, 1, 49, 127
1, 236879, Note_off_c, 1, 54, 0
1, 236879, Note_off_c, 1, 49, 0
1, 236880, Note_on_c, 1, 47, 127
1, 236939, Note_off_c, 1, 47, 0
1, 236940, Note_on_c, 1, 45, 127
1, 236999, Note_off_c, 1, 59, 0
1, 236999, Note_off_c, 1, 45, 0
1, 237000, Note_on_c, 1, 62, 127
1, 237000, Note_on_c, 1, 44, 127
1, 237119, Note_off_c, 1, 62, 0
1, 237119, Note_off_c, 1, 44, 0
1, 237120, Note_on_c, 1, 61, 127
1, 237120, Note_on_c, 1, 49, 127
1, 237239, Note_off_c, 1, 49, 0
1, 237240, Note_on_c, 1, 80, 127
1, 237300, Note_on_c, 1, 47, 127
1, 237359, Note_off_c, 1, 61, 0
1, 237359, Note_off_c, 1, 47, 0
1, 237360, Note_on_c, 1, 59, 127
1, 237360, Note_on_c, 1, 45, 127
1, 237419, Note_off_c, 1, 45, 0
1, 237420, Note_on_c, 1, 44, 127
1, 237479, Note_off_c, 1, 59, 0
1, 237479, Note_off_c, 1, 44, 0
1, 237480, Note_on_c, 1, 57, 127
1, 237480, Note_on_c, 1, 42, 127
1, 237540, Note_off_c, 1, 80, 0
1, 237540, Note_on_c, 1, 78, 127
1, 237599, Note_off_c, 1, 57, 0
1, 237599, Note_off_c, 1, 42, 0
1, 237599, Note_off_c, 1, 78, 0
1, 237600, Note_on_c, 1, 76, 127
1, 237600, Note_on_c, 1, 55, 127
1, 237600, Note_on_c, 1, 47, 127
1, 237659, Note_off_c, 1, 76, 0
1, 237660, Note_on_c, 1, 74, 127
1, 237719, Note_off_c, 1, 47, 0
1, 237719, Note_off_c, 1, 74, 0
1, 237720, Note_on_c, 1, 73, 127
1, 237720, Note_on_c, 1, 49, 127
1, 237779, Note_off_c, 1, 73, 0
1, 237780, Note_on_c, 1, 70, 127
1, 237839, Note_off_c, 1, 55, 0
1, 237839, Note_off_c, 1, 49, 0
1, 237839, Note_off_c, 1, 70, 0
1, 237840, Note_on_c, 1, 71, 127
1, 237840, Note_on_c, 1, 54, 127
1, 237840, Note_on_c, 1, 50, 127
1, 237959, Note_off_c, 1, 54, 0
1, 237959, Note_off_c, 1, 50, 0
1, 237960, Note_on_c, 1, 53, 127
1, 237960, Note_on_c, 1, 49, 127
1, 238019, Note_off_c, 1, 71, 0
1, 238020, Note_on_c, 1, 69, 127
1, 238079, Note_off_c, 1, 49, 0
1, 238079, Note_off_c, 1, 69, 0
1, 238080, Note_on_c, 1, 67, 127
1, 238080, Note_on_c, 1, 61, 127
1, 238139, Note_off_c, 1, 67, 0
1, 238140, Note_on_c, 1, 66, 127
1, 238199, Note_off_c, 1, 53, 0
1, 238199, Note_off_c, 1, 61, 0
1, 238199, Note_off_c, 1, 66, 0
1, 238200, Note_on_c, 1, 65, 127
1, 238200, Note_on_c, 1, 61, 127
1, 238259, Note_off_c, 1, 65, 0
1, 238259, Note_off_c, 1, 61, 0
1, 238260, Note_on_c, 1, 74, 127
1, 238260, Note_on_c, 1, 59, 127
1, 238319, Note_off_c, 1, 74, 0
1, 238319, Note_off_c, 1, 59, 0
1, 238320, Note_on_c, 1, 73, 127
1, 238320, Note_on_c, 1, 57, 127
1, 238379, Note_off_c, 1, 73, 0
1, 238379, Note_off_c, 1, 57, 0
1, 238380, Note_on_c, 1, 71, 127
1, 238380, Note_on_c, 1, 56, 127
1, 238439, Note_off_c, 1, 71, 0
1, 238439, Note_off_c, 1, 56, 0
1, 238440, Note_on_c, 1, 69, 127
1, 238440, Note_on_c, 1, 54, 127
1, 238499, Note_off_c, 1, 69, 0
1, 238500, Note_on_c, 1, 68, 127
1, 238559, Note_off_c, 1, 54, 0
1, 238559, Note_off_c, 1, 68, 0
1, 238560, Note_on_c, 1, 66, 127
1, 238560, Note_on_c, 1, 59, 127
1, 238619, Note_off_c, 1, 66, 0
1, 238620, Note_on_c, 1, 65, 127
1, 238679, Note_off_c, 1, 59, 0
1, 238679, Note_off_c, 1, 65, 0
1, 238680, Note_on_c, 1, 66, 127
1, 238680, Note_on_c, 1, 54, 127
1, 238680, Note_on_c, 1, 59, 127
1, 238739, Note_off_c, 1, 59, 0
1, 238740, Note_on_c, 1, 57, 127
1, 238799, Note_off_c, 1, 54, 0
1, 238799, Note_off_c, 1, 57, 0
1, 238800, Note_on_c, 1, 56, 127
1, 238859, Note_off_c, 1, 56, 0
1, 238919, Note_off_c, 1, 66, 0
1, 238920, Note_on_c, 1, 62, 127
1, 238920, Note_on_c, 1, 53, 127
1, 239039, Note_off_c, 1, 62, 0
1, 239039, Note_off_c, 1, 53, 0
1, 239040, Note_on_c, 1, 61, 127
1, 239040, Note_on_c, 1, 54, 127
1, 239099, Note_off_c, 1, 54, 0
1, 239100, Note_on_c, 1, 56, 127
1, 239159, Note_off_c, 1, 56, 0
1, 239160, Note_on_c, 1, 80, 127
1, 239220, Note_on_c, 1, 53, 127
1, 239279, Note_off_c, 1, 61, 0
1, 239279, Note_off_c, 1, 53, 0
1, 239280, Note_on_c, 1, 59, 127
1, 239280, Note_on_c, 1, 51, 127
1, 239339, Note_off_c, 1, 51, 0
1, 239340, Note_on_c, 1, 49, 127
1, 239399, Note_off_c, 1, 80, 0
1, 239399, Note_off_c, 1, 59, 0
1, 239399, Note_off_c, 1, 49, 0
1, 239400, Note_on_c, 1, 57, 127
1, 239400, Note_on_c, 1, 54, 127
1, 239460, Note_on_c, 1, 78, 127
1, 239519, Note_off_c, 1, 57, 0
1, 239519, Note_off_c, 1, 54, 0
1, 239519, Note_off_c, 1, 78, 0
1, 239520, Note_on_c, 1, 76, 127
1, 239520, Note_on_c, 1, 55, 127
1, 239520, Note_on_c, 1, 47, 127
1, 239579, Note_off_c, 1, 76, 0
1, 239580, Note_on_c, 1, 74, 127
1, 239639, Note_off_c, 1, 47, 0
1, 239639, Note_off_c, 1, 74, 0
1, 239640, Note_on_c, 1, 73, 127
1, 239640, Note_on_c, 1, 49, 127
1, 239699, Note_off_c, 1, 73, 0
1, 239700, Note_on_c, 1, 70, 127
1, 239759, Note_off_c, 1, 55, 0
1, 239759, Note_off_c, 1, 49, 0
1, 239759, Note_off_c, 1, 70, 0
1, 239760, Note_on_c, 1, 71, 127
1, 239760, Note_on_c, 1, 54, 127
1, 239760, Note_on_c, 1, 50, 127
1, 239879, Note_off_c, 1, 54, 0
1, 239879, Note_off_c, 1, 50, 0
1, 239880, Note_on_c, 1, 53, 127
1, 239880, Note_on_c, 1, 49, 127
1, 239939, Note_off_c, 1, 71, 0
1, 239940, Note_on_c, 1, 69, 127
1, 239999, Note_off_c, 1, 49, 0
1, 239999, Note_off_c, 1, 69, 0
1, 240000, Note_on_c, 1, 68, 127
1, 240000, Note_on_c, 1, 61, 127
1, 240059, Note_off_c, 1, 68, 0
1, 240060, Note_on_c, 1, 66, 127
1, 240119, Note_off_c, 1, 53, 0
1, 240119, Note_off_c, 1, 61, 0
1, 240119, Note_off_c, 1, 66, 0
1, 240120, Note_on_c, 1, 65, 127
1, 240120, Note_on_c, 1, 61, 127
1, 240179, Note_off_c, 1, 65, 0
1, 240179, Note_off_c, 1, 61, 0
1, 240180, Note_on_c, 1, 74, 127
1, 240180, Note_on_c, 1, 59, 127
1, 240239, Note_off_c, 1, 74, 0
1, 240239, Note_off_c, 1, 59, 0
1, 240240, Note_on_c, 1, 73, 127
1, 240240, Note_on_c, 1, 57, 127
1, 240299, Note_off_c, 1, 73, 0
1, 240299, Note_off_c, 1, 57, 0
1, 240300, Note_on_c, 1, 71, 127
1, 240300, Note_on_c, 1, 56, 127
1, 240359, Note_off_c, 1, 71, 0
1, 240359, Note_off_c, 1, 56, 0
1, 240360, Note_on_c, 1, 69, 127
1, 240360, Note_on_c, 1, 54, 127
1, 240419, Note_off_c, 1, 69, 0
1, 240420, Note_on_c, 1, 68, 127
1, 240479, Note_off_c, 1, 54, 0
1, 240479, Note_off_c, 1, 68, 0
1, 240480, Note_on_c, 1, 66, 127
1, 240480, Note_on_c, 1, 49, 127
1, 240480, Note_on_c, 1, 57, 127
1, 240539, Note_off_c, 1, 66, 0
1, 240540, Note_on_c, 1, 65, 127
1, 240599, Note_off_c, 1, 49, 0
1, 240599, Note_off_c, 1, 57, 0
1, 240599, Note_off_c, 1, 65, 0
1, 240600, Note_on_c, 1, 66, 127
1, 240600, Note_on_c, 1, 54, 127
1, 240600, Note_on_c, 1, 57, 127
1, 240659, Note_off_c, 1, 57, 0
1, 240660, Note_on_c, 1, 56, 127
1, 240719, Note_off_c, 1, 56, 0
1, 240780, Note_on_c, 1, 52, 127
1, 240839, Note_off_c, 1, 66, 0
1, 240839, Note_off_c, 1, 52, 0
1, 240840, Note_on_c, 1, 50, 127
1, 240959, Note_off_c, 1, 54, 0
1, 240959, Note_off_c, 1, 50, 0
1, 240960, Note_on_c, 1, 57, 127
1, 240960, Note_on_c, 1, 49, 127
1, 241079, Note_off_c, 1, 57, 0
1, 241079, Note_off_c, 1, 49, 0
1, 241080, Note_on_c, 1, 57, 127
1, 241080, Note_on_c, 1, 47, 127
1, 241139, Note_off_c, 1, 57, 0
1, 241140, Note_on_c, 1, 56, 127
1, 241199, Note_off_c, 1, 47, 0
1, 241199, Note_off_c, 1, 56, 0
1, 241200, Note_on_c, 1, 54, 127
1, 241200, Note_on_c, 1, 49, 127
1, 241259, Note_off_c, 1, 54, 0
1, 241260, Note_on_c, 1, 53, 127
1, 241319, Note_off_c, 1, 49, 0
1, 241319, Note_off_c, 1, 53, 0
1, 241320, Note_on_c, 1, 54, 127
1, 241320, Note_on_c, 1, 42, 127
1, 241439, Note_off_c, 1, 42, 0
1, 241440, Note_on_c, 1, 61, 127
1, 241440, Note_on_c, 1, 44, 127
1, 241559, Note_off_c, 1, 54, 0
1, 241559, Note_off_c, 1, 61, 0
1, 241559, Note_off_c, 1, 44, 0
1, 241560, Note_on_c, 1, 73, 127
1, 241560, Note_on_c, 1, 46, 127
1, 241679, Note_off_c, 1, 46, 0
1, 241680, Note_on_c, 1, 52, 127
1, 241680, Note_on_c, 1, 42, 127
1, 241799, Note_off_c, 1, 52, 0
1, 241799, Note_off_c, 1, 42, 0
1, 241800, Note_on_c, 1, 50, 127
1, 241800, Note_on_c, 1, 47, 127
1, 241859, Note_off_c, 1, 50, 0
1, 241919, Note_off_c, 1, 73, 0
1, 241919, Note_off_c, 1, 47, 0
1, 241920, Note_on_c, 1, 74, 127
1, 241920, Note_on_c, 1, 54, 127
1, 241920, Note_on_c, 1, 43, 127
1, 241979, Note_off_c, 1, 74, 0
1, 241980, Note_on_c, 1, 76, 127
1, 242039, Note_off_c, 1, 43, 0
1, 242039, Note_off_c, 1, 76, 0
1, 242040, Note_on_c, 1, 40, 127
1, 242099, Note_off_c, 1, 54, 0
1, 242100, Note_on_c, 1, 73, 127
1, 242100, Note_on_c, 1, 52, 127
1, 242159, Note_off_c, 1, 40, 0
1, 242159, Note_off_c, 1, 73, 0
1, 242159, Note_off_c, 1, 52, 0
1, 242160, Note_on_c, 1, 71, 127
1, 242160, Note_on_c, 1, 50, 127
1, 242160, Note_on_c, 1, 42, 127
1, 242219, Note_off_c, 1, 71, 0
1, 242219, Note_off_c, 1, 50, 0
1, 242220, Note_on_c, 1, 70, 127
1, 242220, Note_on_c, 1, 49, 127
1, 242279, Note_off_c, 1, 42, 0
1, 242279, Note_off_c, 1, 70, 0
1, 242279, Note_off_c, 1, 49, 0
1, 242280, Note_on_c, 1, 71, 127
1, 242280, Note_on_c, 1, 50, 127
1, 242280, Note_on_c, 1, 47, 127
1, 242399, Note_off_c, 1, 71, 0
1, 242399, Note_off_c, 1, 50, 0
1, 242400, Note_on_c, 1, 70, 127
1, 242400, Note_on_c, 1, 49, 127
1, 242459, Note_off_c, 1, 70, 0
1, 242459, Note_off_c, 1, 49, 0
1, 242519, Note_off_c, 1, 47, 0
1, 242520, Note_on_c, 1, 73, 127
1, 242520, Note_on_c, 1, 52, 127
1, 242520, Note_on_c, 1, 42, 127
1, 242639, Note_off_c, 1, 73, 0
1, 242639, Note_off_c, 1, 52, 0
1, 242639, Note_off_c, 1, 42, 0
1, 242640, Note_on_c, 1, 71, 127
1, 242640, Note_on_c, 1, 50, 127
1, 242640, Note_on_c, 1, 42, 127
1, 242699, Note_off_c, 1, 71, 0
1, 242699, Note_off_c, 1, 50, 0
1, 242700, Note_on_c, 1, 70, 127
1, 242700, Note_on_c, 1, 49, 127
1, 242759, Note_off_c, 1, 42, 0
1, 242759, Note_off_c, 1, 70, 0
1, 242759, Note_off_c, 1, 49, 0
1, 242760, Note_on_c, 1, 71, 127
1, 242760, Note_on_c, 1, 50, 127
1, 242760, Note_on_c, 1, 47, 127
1, 242879, Note_off_c, 1, 50, 0
1, 242879, Note_off_c, 1, 47, 0
1, 242880, Note_on_c, 1, 54, 127
1, 242999, Note_off_c, 1, 71, 0
1, 242999, Note_off_c, 1, 54, 0
1, 243000, Note_on_c, 1, 59, 127
1, 243000, Note_on_c, 1, 50, 127
1, 243059, Note_off_c, 1, 50, 0
1, 243060, Note_on_c, 1, 49, 127
1, 243119, Note_off_c, 1, 49, 0
1, 243120, Note_on_c, 1, 78, 127
1, 243120, Note_on_c, 1, 47, 127
1, 243179, Note_off_c, 1, 47, 0
1, 243180, Note_on_c, 1, 45, 127
1, 243239, Note_off_c, 1, 59, 0
1, 243239, Note_off_c, 1, 78, 0
1, 243239, Note_off_c, 1, 45, 0
1, 243240, Note_on_c, 1, 83, 127
1, 243240, Note_on_c, 1, 44, 127
1, 243359, Note_off_c, 1, 44, 0
1, 243360, Note_on_c, 1, 49, 127
1, 243479, Note_off_c, 1, 83, 0
1, 243479, Note_off_c, 1, 49, 0
1, 243480, Note_on_c, 1, 57, 127
1, 243480, Note_on_c, 1, 49, 127
1, 243539, Note_off_c, 1, 49, 0
1, 243540, Note_on_c, 1, 47, 127
1, 243599, Note_off_c, 1, 57, 0
1, 243599, Note_off_c, 1, 47, 0
1, 243600, Note_on_c, 1, 73, 127
1, 243600, Note_on_c, 1, 54, 127
1, 243600, Note_on_c, 1, 45, 127
1, 243659, Note_off_c, 1, 45, 0
1, 243660, Note_on_c, 1, 44, 127
1, 243719, Note_off_c, 1, 73, 0
1, 243719, Note_off_c, 1, 54, 0
1, 243719, Note_off_c, 1, 44, 0
1, 243720, Note_on_c, 1, 81, 127
1, 243720, Note_on_c, 1, 52, 127
1, 243720, Note_on_c, 1, 42, 127
1, 243779, Note_off_c, 1, 52, 0
1, 243780, Note_on_c, 1, 50, 127
1, 243839, Note_off_c, 1, 81, 0
1, 243839, Note_off_c, 1, 42, 0
1, 243839, Note_off_c, 1, 50, 0
1, 243840, Note_on_c, 1, 78, 127
1, 243840, Note_on_c, 1, 49, 127
1, 243840, Note_on_c, 1, 47, 127
1, 243899, Note_off_c, 1, 49, 0
1, 243959, Note_off_c, 1, 78, 0
1, 243959, Note_off_c, 1, 47, 0
1, 243960, Note_on_c, 1, 77, 127
1, 243960, Note_on_c, 1, 56, 127
1, 243960, Note_on_c, 1, 47, 127
1, 244019, Note_off_c, 1, 77, 0
1, 244019, Note_off_c, 1, 47, 0
1, 244020, Note_on_c, 1, 78, 127
1, 244020, Note_on_c, 1, 45, 127
1, 244079, Note_off_c, 1, 78, 0
1, 244079, Note_off_c, 1, 45, 0
1, 244080, Note_on_c, 1, 80, 127
1, 244080, Note_on_c, 1, 44, 127
1, 244139, Note_off_c, 1, 44, 0
1, 244140, Note_on_c, 1, 42, 127
1, 244199, Note_off_c, 1, 56, 0
1, 244199, Note_off_c, 1, 42, 0
1, 244200, Note_on_c, 1, 41, 127
1, 244259, Note_off_c, 1, 80, 0
1, 244319, Note_off_c, 1, 41, 0
1, 244320, Note_on_c, 1, 77, 127
1, 244320, Note_on_c, 1, 56, 127
1, 244320, Note_on_c, 1, 49, 127
1, 244379, Note_off_c, 1, 77, 0
1, 244380, Note_on_c, 1, 75, 127
1, 244439, Note_off_c, 1, 56, 0
1, 244439, Note_off_c, 1, 49, 0
1, 244439, Note_off_c, 1, 75, 0
1, 244440, Note_on_c, 1, 73, 127
1, 244440, Note_on_c, 1, 57, 127
1, 244440, Note_on_c, 1, 49, 127
1, 244499, Note_off_c, 1, 57, 0
1, 244499, Note_off_c, 1, 49, 0
1, 244500, Note_on_c, 1, 56, 127
1, 244500, Note_on_c, 1, 47, 127
1, 244559, Note_off_c, 1, 56, 0
1, 244559, Note_off_c, 1, 47, 0
1, 244560, Note_on_c, 1, 54, 127
1, 244560, Note_on_c, 1, 45, 127
1, 244619, Note_off_c, 1, 54, 0
1, 244619, Note_off_c, 1, 45, 0
1, 244620, Note_on_c, 1, 53, 127
1, 244620, Note_on_c, 1, 44, 127
1, 244679, Note_off_c, 1, 53, 0
1, 244679, Note_off_c, 1, 44, 0
1, 244680, Note_on_c, 1, 42, 127
1, 244799, Note_off_c, 1, 73, 0
1, 244799, Note_off_c, 1, 42, 0
1, 244800, Note_on_c, 1, 73, 127
1, 244800, Note_on_c, 1, 57, 127
1, 244800, Note_on_c, 1, 54, 127
1, 244859, Note_off_c, 1, 57, 0
1, 244860, Note_on_c, 1, 59, 127
1, 244919, Note_off_c, 1, 73, 0
1, 244919, Note_off_c, 1, 54, 0
1, 244919, Note_off_c, 1, 59, 0
1, 244920, Note_on_c, 1, 69, 127
1, 244920, Note_on_c, 1, 61, 127
1, 244920, Note_on_c, 1, 54, 127
1, 244979, Note_off_c, 1, 61, 0
1, 244979, Note_off_c, 1, 54, 0
1, 244980, Note_on_c, 1, 62, 127
1, 244980, Note_on_c, 1, 52, 127
1, 245039, Note_off_c, 1, 69, 0
1, 245039, Note_off_c, 1, 62, 0
1, 245039, Note_off_c, 1, 52, 0
1, 245040, Note_on_c, 1, 78, 127
1, 245040, Note_on_c, 1, 59, 127
1, 245040, Note_on_c, 1, 50, 127
1, 245099, Note_off_c, 1, 59, 0
1, 245099, Note_off_c, 1, 50, 0
1, 245100, Note_on_c, 1, 61, 127
1, 245100, Note_on_c, 1, 49, 127
1, 245159, Note_off_c, 1, 61, 0
1, 245159, Note_off_c, 1, 49, 0
1, 245160, Note_on_c, 1, 62, 127
1, 245160, Note_on_c, 1, 47, 127
1, 245219, Note_off_c, 1, 78, 0
1, 245219, Note_off_c, 1, 62, 0
1, 245220, Note_on_c, 1, 76, 127
1, 245279, Note_off_c, 1, 47, 0
1, 245279, Note_off_c, 1, 76, 0
1, 245280, Note_on_c, 1, 74, 127
1, 245280, Note_on_c, 1, 59, 127
1, 245339, Note_off_c, 1, 74, 0
1, 245340, Note_on_c, 1, 73, 127
1, 245340, Note_on_c, 1, 58, 127
1, 245399, Note_off_c, 1, 59, 0
1, 245399, Note_off_c, 1, 73, 0
1, 245399, Note_off_c, 1, 58, 0
1, 245400, Note_on_c, 1, 74, 127
1, 245400, Note_on_c, 1, 59, 127
1, 245459, Note_off_c, 1, 74, 0
1, 245460, Note_on_c, 1, 73, 127
1, 245460, Note_on_c, 1, 57, 127
1, 245519, Note_off_c, 1, 73, 0
1, 245519, Note_off_c, 1, 57, 0
1, 245520, Note_on_c, 1, 71, 127
1, 245520, Note_on_c, 1, 56, 127
1, 245579, Note_off_c, 1, 71, 0
1, 245579, Note_off_c, 1, 56, 0
1, 245580, Note_on_c, 1, 69, 127
1, 245580, Note_on_c, 1, 54, 127
1, 245639, Note_off_c, 1, 69, 0
1, 245639, Note_off_c, 1, 54, 0
1, 245640, Note_on_c, 1, 68, 127
1, 245640, Note_on_c, 1, 53, 127
1, 245759, Note_off_c, 1, 59, 0
1, 245759, Note_off_c, 1, 68, 0
1, 245759, Note_off_c, 1, 53, 0
1, 245760, Note_on_c, 1, 66, 127
1, 245760, Note_on_c, 1, 57, 127
1, 245760, Note_on_c, 1, 54, 127
1, 245819, Note_off_c, 1, 66, 0
1, 245819, Note_off_c, 1, 57, 0
1, 245820, Note_on_c, 1, 65, 127
1, 245820, Note_on_c, 1, 56, 127
1, 245879, Note_off_c, 1, 54, 0
1, 245879, Note_off_c, 1, 65, 0
1, 245879, Note_off_c, 1, 56, 0
1, 245880, Note_on_c, 1, 68, 127
1, 245880, Note_on_c, 1, 59, 127
1, 245880, Note_on_c, 1, 47, 127
1, 245939, Note_off_c, 1, 68, 0
1, 245939, Note_off_c, 1, 59, 0
1, 245940, Note_on_c, 1, 66, 127
1, 245940, Note_on_c, 1, 57, 127
1, 245999, Note_off_c, 1, 66, 0
1, 245999, Note_off_c, 1, 57, 0
1, 246000, Note_on_c, 1, 65, 127
1, 246000, Note_on_c, 1, 56, 127
1, 246059, Note_off_c, 1, 65, 0
1, 246059, Note_off_c, 1, 56, 0
1, 246060, Note_on_c, 1, 63, 127
1, 246060, Note_on_c, 1, 54, 127
1, 246119, Note_off_c, 1, 63, 0
1, 246119, Note_off_c, 1, 54, 0
1, 246239, Note_off_c, 1, 47, 0
1, 246240, Note_on_c, 1, 61, 127
1, 246240, Note_on_c, 1, 53, 127
1, 246240, Note_on_c, 1, 45, 127
1, 246299, Note_off_c, 1, 45, 0
1, 246300, Note_on_c, 1, 44, 127
1, 246359, Note_off_c, 1, 61, 0
1, 246359, Note_off_c, 1, 53, 0
1, 246359, Note_off_c, 1, 44, 0
1, 246360, Note_on_c, 1, 66, 127
1, 246360, Note_on_c, 1, 49, 127
1, 246360, Note_on_c, 1, 47, 127
1, 246419, Note_off_c, 1, 47, 0
1, 246420, Note_on_c, 1, 45, 127
1, 246479, Note_off_c, 1, 49, 0
1, 246479, Note_off_c, 1, 45, 0
1, 246480, Note_on_c, 1, 59, 127
1, 246480, Note_on_c, 1, 44, 127
1, 246539, Note_off_c, 1, 44, 0
1, 246540, Note_on_c, 1, 42, 127
1, 246599, Note_off_c, 1, 59, 0
1, 246599, Note_off_c, 1, 42, 0
1, 246600, Note_on_c, 1, 57, 127
1, 246839, Note_off_c, 1, 66, 0
1, 246839, Note_off_c, 1, 57, 0
1, 246840, Note_on_c, 1, 65, 127
1, 246840, Note_on_c, 1, 56, 127
1, 246840, Note_on_c, 1, 37, 127
1, 247079, Note_off_c, 1, 65, 0
1, 247079, Note_off_c, 1, 56, 0
1, 247079, Note_off_c, 1, 37, 0
1, 247080, Note_on_c, 1, 66, 127
1, 247080, Note_on_c, 1, 54, 127
1, 247080, Note_on_c, 1, 42, 127
1, 247319, Note_off_c, 1, 66, 0
1, 247319, Note_off_c, 1, 54, 0
1, 247319, Note_off_c, 1, 42, 0
1, 247440, Note_on_c, 1, 64, 127
1, 247499, Note_off_c, 1, 64, 0
1, 247500, Note_on_c, 1, 69, 127
1, 247559, Note_off_c, 1, 69, 0
1, 247560, Note_on_c, 1, 73, 127
1, 247619, Note_off_c, 1, 73, 0
1, 247620, Note_on_c, 1, 71, 127
1, 247620, Note_on_c, 1, 52, 127
1, 247679, Note_off_c, 1, 71, 0
1, 247679, Note_off_c, 1, 52, 0
1, 247680, Note_on_c, 1, 69, 127
1, 247680, Note_on_c, 1, 57, 127
1, 247739, Note_off_c, 1, 69, 0
1, 247739, Note_off_c, 1, 57, 0
1, 247740, Note_on_c, 1, 64, 127
1, 247740, Note_on_c, 1, 61, 127
1, 247769, Note_off_c, 1, 64, 0
1, 247770, Note_on_c, 1, 66, 127
1, 247799, Note_off_c, 1, 61, 0
1, 247799, Note_off_c, 1, 66, 0
1, 247800, Note_on_c, 1, 68, 127
1, 247800, Note_on_c, 1, 57, 127
1, 247829, Note_off_c, 1, 68, 0
1, 247830, Note_on_c, 1, 69, 127
1, 247859, Note_off_c, 1, 57, 0
1, 247859, Note_off_c, 1, 69, 0
1, 247860, Note_on_c, 1, 71, 127
1, 247860, Note_on_c, 1, 56, 127
1, 247919, Note_off_c, 1, 71, 0
1, 247919, Note_off_c, 1, 56, 0
1, 247920, Note_on_c, 1, 74, 127
1, 247920, Note_on_c, 1, 52, 127
1, 247949, Note_off_c, 1, 74, 0
1, 247950, Note_on_c, 1, 71, 127
1, 247979, Note_off_c, 1, 52, 0
1, 247979, Note_off_c, 1, 71, 0
1, 247980, Note_on_c, 1, 73, 127
1, 247980, Note_on_c, 1, 57, 127
1, 248009, Note_off_c, 1, 73, 0
1, 248010, Note_on_c, 1, 69, 127
1, 248039, Note_off_c, 1, 57, 0
1, 248039, Note_off_c, 1, 69, 0
1, 248040, Note_on_c, 1, 76, 127
1, 248040, Note_on_c, 1, 49, 127
1, 248099, Note_off_c, 1, 49, 0
1, 248100, Note_on_c, 1, 50, 127
1, 248129, Note_off_c, 1, 50, 0
1, 248130, Note_on_c, 1, 47, 127
1, 248159, Note_off_c, 1, 76, 0
1, 248159, Note_off_c, 1, 47, 0
1, 248160, Note_on_c, 1, 76, 127
1, 248160, Note_on_c, 1, 49, 127
1, 248189, Note_off_c, 1, 49, 0
1, 248190, Note_on_c, 1, 45, 127
1, 248219, Note_off_c, 1, 76, 0
1, 248219, Note_off_c, 1, 45, 0
1, 248220, Note_on_c, 1, 78, 127
1, 248220, Note_on_c, 1, 50, 127
1, 248249, Note_off_c, 1, 78, 0
1, 248250, Note_on_c, 1, 74, 127
1, 248279, Note_off_c, 1, 50, 0
1, 248279, Note_off_c, 1, 74, 0
1, 248280, Note_on_c, 1, 78, 127
1, 248280, Note_on_c, 1, 62, 127
1, 248309, Note_off_c, 1, 78, 0
1, 248310, Note_on_c, 1, 74, 127
1, 248339, Note_off_c, 1, 62, 0
1, 248339, Note_off_c, 1, 74, 0
1, 248340, Note_on_c, 1, 78, 127
1, 248340, Note_on_c, 1, 50, 127
1, 248369, Note_off_c, 1, 78, 0
1, 248370, Note_on_c, 1, 74, 127
1, 248399, Note_off_c, 1, 50, 0
1, 248399, Note_off_c, 1, 74, 0
1, 248400, Note_on_c, 1, 71, 127
1, 248400, Note_on_c, 1, 52, 127
1, 248429, Note_off_c, 1, 52, 0
1, 248430, Note_on_c, 1, 56, 127
1, 248459, Note_off_c, 1, 71, 0
1, 248459, Note_off_c, 1, 56, 0
1, 248460, Note_on_c, 1, 73, 127
1, 248460, Note_on_c, 1, 52, 127
1, 248489, Note_off_c, 1, 52, 0
1, 248490, Note_on_c, 1, 56, 127
1, 248519, Note_off_c, 1, 73, 0
1, 248519, Note_off_c, 1, 56, 0
1, 248520, Note_on_c, 1, 74, 127
1, 248520, Note_on_c, 1, 52, 127
1, 248549, Note_off_c, 1, 52, 0
1, 248550, Note_on_c, 1, 56, 127
1, 248579, Note_off_c, 1, 74, 0
1, 248579, Note_off_c, 1, 56, 0
1, 248580, Note_on_c, 1, 76, 127
1, 248580, Note_on_c, 1, 49, 127
1, 248609, Note_off_c, 1, 76, 0
1, 248610, Note_on_c, 1, 73, 127
1, 248639, Note_off_c, 1, 49, 0
1, 248639, Note_off_c, 1, 73, 0
1, 248640, Note_on_c, 1, 76, 127
1, 248640, Note_on_c, 1, 61, 127
1, 248669, Note_off_c, 1, 76, 0
1, 248670, Note_on_c, 1, 73, 127
1, 248699, Note_off_c, 1, 61, 0
1, 248699, Note_off_c, 1, 73, 0
1, 248700, Note_on_c, 1, 76, 127
1, 248700, Note_on_c, 1, 49, 127
1, 248729, Note_off_c, 1, 76, 0
1, 248730, Note_on_c, 1, 73, 127
1, 248759, Note_off_c, 1, 49, 0
1, 248759, Note_off_c, 1, 73, 0
1, 248760, Note_on_c, 1, 69, 127
1, 248760, Note_on_c, 1, 50, 127
1, 248789, Note_off_c, 1, 50, 0
1, 248790, Note_on_c, 1, 54, 127
1, 248819, Note_off_c, 1, 69, 0
1, 248819, Note_off_c, 1, 54, 0
1, 248820, Note_on_c, 1, 71, 127
1, 248820, Note_on_c, 1, 50, 127
1, 248849, Note_off_c, 1, 50, 0
1, 248850, Note_on_c, 1, 54, 127
1, 248879, Note_off_c, 1, 71, 0
1, 248879, Note_off_c, 1, 54, 0
1, 248880, Note_on_c, 1, 73, 127
1, 248880, Note_on_c, 1, 50, 127
1, 248909, Note_off_c, 1, 50, 0
1, 248910, Note_on_c, 1, 54, 127
1, 248939, Note_off_c, 1, 73, 0
1, 248939, Note_off_c, 1, 54, 0
1, 248940, Note_on_c, 1, 74, 127
1, 248940, Note_on_c, 1, 47, 127
1, 248969, Note_off_c, 1, 74, 0
1, 248970, Note_on_c, 1, 73, 127
1, 248999, Note_off_c, 1, 47, 0
1, 248999, Note_off_c, 1, 73, 0
1, 249000, Note_on_c, 1, 73, 127
1, 249000, Note_on_c, 1, 49, 127
1, 249029, Note_off_c, 1, 73, 0
1, 249030, Note_on_c, 1, 71, 127
1, 249059, Note_off_c, 1, 49, 0
1, 249059, Note_off_c, 1, 71, 0
1, 249060, Note_on_c, 1, 71, 127
1, 249060, Note_on_c, 1, 50, 127
1, 249089, Note_off_c, 1, 71, 0
1, 249090, Note_on_c, 1, 69, 127
1, 249119, Note_off_c, 1, 50, 0
1, 249119, Note_off_c, 1, 69, 0
1, 249120, Note_on_c, 1, 68, 127
1, 249120, Note_on_c, 1, 52, 127
1, 249149, Note_off_c, 1, 68, 0
1, 249150, Note_on_c, 1, 62, 127
1, 249179, Note_off_c, 1, 52, 0
1, 249179, Note_off_c, 1, 62, 0
1, 249180, Note_on_c, 1, 62, 127
1, 249180, Note_on_c, 1, 54, 127
1, 249209, Note_off_c, 1, 62, 0
1, 249210, Note_on_c, 1, 61, 127
1, 249239, Note_off_c, 1, 54, 0
1, 249239, Note_off_c, 1, 61, 0
1, 249240, Note_on_c, 1, 61, 127
1, 249240, Note_on_c, 1, 56, 127
1, 249269, Note_off_c, 1, 61, 0
1, 249270, Note_on_c, 1, 59, 127
1, 249299, Note_off_c, 1, 56, 0
1, 249299, Note_off_c, 1, 59, 0
1, 249300, Note_on_c, 1, 61, 127
1, 249300, Note_on_c, 1, 57, 127
1, 249329, Note_off_c, 1, 61, 0
1, 249330, Note_on_c, 1, 64, 127
1, 249359, Note_off_c, 1, 57, 0
1, 249359, Note_off_c, 1, 64, 0
1, 249360, Note_on_c, 1, 66, 127
1, 249360, Note_on_c, 1, 50, 127
1, 249389, Note_off_c, 1, 66, 0
1, 249390, Note_on_c, 1, 69, 127
1, 249419, Note_off_c, 1, 50, 0
1, 249419, Note_off_c, 1, 69, 0
1, 249420, Note_on_c, 1, 68, 127
1, 249420, Note_on_c, 1, 52, 127
1, 249449, Note_off_c, 1, 68, 0
1, 249450, Note_on_c, 1, 71, 127
1, 249479, Note_off_c, 1, 52, 0
1, 249479, Note_off_c, 1, 71, 0
1, 249480, Note_on_c, 1, 69, 127
1, 249480, Note_on_c, 1, 54, 127
1, 249509, Note_off_c, 1, 69, 0
1, 249510, Note_on_c, 1, 64, 127
1, 249539, Note_off_c, 1, 54, 0
1, 249539, Note_off_c, 1, 64, 0
1, 249540, Note_on_c, 1, 66, 127
1, 249540, Note_on_c, 1, 52, 127
1, 249569, Note_off_c, 1, 66, 0
1, 249570, Note_on_c, 1, 69, 127
1, 249599, Note_off_c, 1, 52, 0
1, 249599, Note_off_c, 1, 69, 0
1, 249600, Note_on_c, 1, 68, 127
1, 249600, Note_on_c, 1, 50, 127
1, 249629, Note_off_c, 1, 68, 0
1, 249630, Note_on_c, 1, 71, 127
1, 249659, Note_off_c, 1, 50, 0
1, 249659, Note_off_c, 1, 71, 0
1, 249660, Note_on_c, 1, 69, 127
1, 249660, Note_on_c, 1, 49, 127
1, 249689, Note_off_c, 1, 69, 0
1, 249690, Note_on_c, 1, 73, 127
1, 249719, Note_off_c, 1, 49, 0
1, 249719, Note_off_c, 1, 73, 0
1, 249720, Note_on_c, 1, 71, 127
1, 249720, Note_on_c, 1, 50, 127
1, 249749, Note_off_c, 1, 71, 0
1, 249750, Note_on_c, 1, 74, 127
1, 249779, Note_off_c, 1, 50, 0
1, 249779, Note_off_c, 1, 74, 0
1, 249780, Note_on_c, 1, 73, 127
1, 249780, Note_on_c, 1, 52, 127
1, 249809, Note_off_c, 1, 73, 0
1, 249810, Note_on_c, 1, 71, 127
1, 249839, Note_off_c, 1, 52, 0
1, 249839, Note_off_c, 1, 71, 0
1, 249840, Note_on_c, 1, 73, 127
1, 249840, Note_on_c, 1, 45, 127
1, 249869, Note_off_c, 1, 73, 0
1, 249870, Note_on_c, 1, 76, 127
1, 249899, Note_off_c, 1, 45, 0
1, 249899, Note_off_c, 1, 76, 0
1, 249900, Note_on_c, 1, 74, 127
1, 249900, Note_on_c, 1, 47, 127
1, 249929, Note_off_c, 1, 74, 0
1, 249930, Note_on_c, 1, 78, 127
1, 249959, Note_off_c, 1, 47, 0
1, 249959, Note_off_c, 1, 78, 0
1, 249960, Note_on_c, 1, 76, 127
1, 249960, Note_on_c, 1, 49, 127
1, 250019, Note_off_c, 1, 76, 0
1, 250019, Note_off_c, 1, 49, 0
1, 250020, Note_on_c, 1, 62, 127
1, 250020, Note_on_c, 1, 42, 127
1, 250049, Note_off_c, 1, 62, 0
1, 250050, Note_on_c, 1, 61, 127
1, 250079, Note_off_c, 1, 42, 0
1, 250079, Note_off_c, 1, 61, 0
1, 250080, Note_on_c, 1, 61, 127
1, 250080, Note_on_c, 1, 38, 127
1, 250109, Note_off_c, 1, 61, 0
1, 250110, Note_on_c, 1, 59, 127
1, 250139, Note_off_c, 1, 38, 0
1, 250139, Note_off_c, 1, 59, 0
1, 250140, Note_on_c, 1, 59, 127
1, 250140, Note_on_c, 1, 40, 127
1, 250169, Note_off_c, 1, 59, 0
1, 250170, Note_on_c, 1, 57, 127
1, 250199, Note_off_c, 1, 40, 0
1, 250199, Note_off_c, 1, 57, 0
1, 250200, Note_on_c, 1, 57, 127
1, 250200, Note_on_c, 1, 45, 127
1, 250319, Note_off_c, 1, 57, 0
1, 250319, Note_off_c, 1, 45, 0
1, 250320, Note_on_c, 1, 52, 127
1, 250380, Note_off_c, 1, 52, 0
1, 250380, Note_on_c, 1, 57, 127
1, 250440, Note_off_c, 1, 57, 0
1, 250440, Note_on_c, 1, 61, 127
1, 250500, Note_off_c, 1, 61, 0
1, 250500, Note_on_c, 1, 59, 127
1, 250620, Note_off_c, 1, 59, 0
1, 250650, Note_on_c, 1, 54, 127
1, 250680, Note_off_c, 1, 54, 0
1, 250680, Note_on_c, 1, 56, 127
1, 250710, Note_off_c, 1, 56, 0
1, 250800, Note_on_c, 1, 62, 127
1, 250830, Note_off_c, 1, 62, 0
1, 250920, Note_on_c, 1, 64, 127
1, 250920, Note_on_c, 1, 49, 127
1, 250979, Note_off_c, 1, 49, 0
1, 250980, Note_on_c, 1, 50, 127
1, 251009, Note_off_c, 1, 50, 0
1, 251010, Note_on_c, 1, 47, 127
1, 251039, Note_off_c, 1, 47, 0
1, 251040, Note_off_c, 1, 64, 0
1, 251040, Note_on_c, 1, 76, 127
1, 251070, Note_on_c, 1, 45, 127
1, 251099, Note_off_c, 1, 76, 0
1, 251099, Note_off_c, 1, 45, 0
1, 251100, Note_on_c, 1, 78, 127
1, 251100, Note_on_c, 1, 50, 127
1, 251129, Note_off_c, 1, 78, 0
1, 251130, Note_on_c, 1, 74, 127
1, 251159, Note_off_c, 1, 50, 0
1, 251159, Note_off_c, 1, 74, 0
1, 251160, Note_on_c, 1, 78, 127
1, 251160, Note_on_c, 1, 62, 127
1, 251189, Note_off_c, 1, 78, 0
1, 251190, Note_on_c, 1, 74, 127
1, 251219, Note_off_c, 1, 62, 0
1, 251219, Note_off_c, 1, 74, 0
1, 251220, Note_on_c, 1, 78, 127
1, 251220, Note_on_c, 1, 50, 127
1, 251249, Note_off_c, 1, 78, 0
1, 251250, Note_on_c, 1, 74, 127
1, 251279, Note_off_c, 1, 50, 0
1, 251279, Note_off_c, 1, 74, 0
1, 251280, Note_on_c, 1, 71, 127
1, 251280, Note_on_c, 1, 52, 127
1, 251309, Note_off_c, 1, 52, 0
1, 251310, Note_on_c, 1, 56, 127
1, 251339, Note_off_c, 1, 71, 0
1, 251339, Note_off_c, 1, 56, 0
1, 251340, Note_on_c, 1, 73, 127
1, 251340, Note_on_c, 1, 52, 127
1, 251369, Note_off_c, 1, 52, 0
1, 251370, Note_on_c, 1, 56, 127
1, 251399, Note_off_c, 1, 73, 0
1, 251399, Note_off_c, 1, 56, 0
1, 251400, Note_on_c, 1, 74, 127
1, 251400, Note_on_c, 1, 52, 127
1, 251429, Note_off_c, 1, 52, 0
1, 251430, Note_on_c, 1, 56, 127
1, 251459, Note_off_c, 1, 74, 0
1, 251459, Note_off_c, 1, 56, 0
1, 251460, Note_on_c, 1, 76, 127
1, 251460, Note_on_c, 1, 49, 127
1, 251489, Note_off_c, 1, 76, 0
1, 251490, Note_on_c, 1, 73, 127
1, 251519, Note_off_c, 1, 49, 0
1, 251519, Note_off_c, 1, 73, 0
1, 251520, Note_on_c, 1, 76, 127
1, 251520, Note_on_c, 1, 61, 127
1, 251549, Note_off_c, 1, 76, 0
1, 251550, Note_on_c, 1, 73, 127
1, 251579, Note_off_c, 1, 61, 0
1, 251579, Note_off_c, 1, 73, 0
1, 251580, Note_on_c, 1, 76, 127
1, 251580, Note_on_c, 1, 49, 127
1, 251609, Note_off_c, 1, 76, 0
1, 251610, Note_on_c, 1, 73, 127
1, 251639, Note_off_c, 1, 49, 0
1, 251639, Note_off_c, 1, 73, 0
1, 251640, Note_on_c, 1, 69, 127
1, 251640, Note_on_c, 1, 50, 127
1, 251669, Note_off_c, 1, 50, 0
1, 251670, Note_on_c, 1, 54, 127
1, 251699, Note_off_c, 1, 69, 0
1, 251699, Note_off_c, 1, 54, 0
1, 251700, Note_on_c, 1, 71, 127
1, 251700, Note_on_c, 1, 50, 127
1, 251729, Note_off_c, 1, 50, 0
1, 251730, Note_on_c, 1, 54, 127
1, 251759, Note_off_c, 1, 71, 0
1, 251759, Note_off_c, 1, 54, 0
1, 251760, Note_on_c, 1, 73, 127
1, 251760, Note_on_c, 1, 50, 127
1, 251789, Note_off_c, 1, 50, 0
1, 251790, Note_on_c, 1, 54, 127
1, 251819, Note_off_c, 1, 73, 0
1, 251819, Note_off_c, 1, 54, 0
1, 251820, Note_on_c, 1, 74, 127
1, 251820, Note_on_c, 1, 47, 127
1, 251849, Note_off_c, 1, 74, 0
1, 251850, Note_on_c, 1, 73, 127
1, 251879, Note_off_c, 1, 47, 0
1, 251879, Note_off_c, 1, 73, 0
1, 251880, Note_on_c, 1, 73, 127
1, 251880, Note_on_c, 1, 49, 127
1, 251909, Note_off_c, 1, 73, 0
1, 251910, Note_on_c, 1, 71, 127
1, 251939, Note_off_c, 1, 49, 0
1, 251939, Note_off_c, 1, 71, 0
1, 251940, Note_on_c, 1, 71, 127
1, 251940, Note_on_c, 1, 50, 127
1, 251969, Note_off_c, 1, 71, 0
1, 251970, Note_on_c, 1, 69, 127
1, 251999, Note_off_c, 1, 50, 0
1, 251999, Note_off_c, 1, 69, 0
1, 252000, Note_on_c, 1, 68, 127
1, 252000, Note_on_c, 1, 52, 127
1, 252029, Note_off_c, 1, 68, 0
1, 252030, Note_on_c, 1, 62, 127
1, 252059, Note_off_c, 1, 52, 0
1, 252059, Note_off_c, 1, 62, 0
1, 252060, Note_on_c, 1, 62, 127
1, 252060, Note_on_c, 1, 54, 127
1, 252089, Note_off_c, 1, 62, 0
1, 252090, Note_on_c, 1, 61, 127
1, 252119, Note_off_c, 1, 54, 0
1, 252119, Note_off_c, 1, 61, 0
1, 252120, Note_on_c, 1, 61, 127
1, 252120, Note_on_c, 1, 56, 127
1, 252149, Note_off_c, 1, 61, 0
1, 252150, Note_on_c, 1, 59, 127
1, 252179, Note_off_c, 1, 56, 0
1, 252179, Note_off_c, 1, 59, 0
1, 252180, Note_on_c, 1, 61, 127
1, 252180, Note_on_c, 1, 57, 127
1, 252209, Note_off_c, 1, 61, 0
1, 252210, Note_on_c, 1, 64, 127
1, 252239, Note_off_c, 1, 57, 0
1, 252239, Note_off_c, 1, 64, 0
1, 252240, Note_on_c, 1, 66, 127
1, 252240, Note_on_c, 1, 50, 127
1, 252269, Note_off_c, 1, 66, 0
1, 252270, Note_on_c, 1, 69, 127
1, 252299, Note_off_c, 1, 50, 0
1, 252299, Note_off_c, 1, 69, 0
1, 252300, Note_on_c, 1, 68, 127
1, 252300, Note_on_c, 1, 52, 127
1, 252329, Note_off_c, 1, 68, 0
1, 252330, Note_on_c, 1, 71, 127
1, 252359, Note_off_c, 1, 52, 0
1, 252359, Note_off_c, 1, 71, 0
1, 252360, Note_on_c, 1, 69, 127
1, 252360, Note_on_c, 1, 45, 127
1, 252389, Note_off_c, 1, 69, 0
1, 252390, Note_on_c, 1, 64, 127
1, 252419, Note_off_c, 1, 45, 0
1, 252419, Note_off_c, 1, 64, 0
1, 252420, Note_on_c, 1, 66, 127
1, 252420, Note_on_c, 1, 57, 127
1, 252449, Note_off_c, 1, 66, 0
1, 252450, Note_on_c, 1, 69, 127
1, 252479, Note_off_c, 1, 57, 0
1, 252479, Note_off_c, 1, 69, 0
1, 252480, Note_on_c, 1, 68, 127
1, 252480, Note_on_c, 1, 52, 127
1, 252509, Note_off_c, 1, 68, 0
1, 252510, Note_on_c, 1, 71, 127
1, 252539, Note_off_c, 1, 52, 0
1, 252539, Note_off_c, 1, 71, 0
1, 252540, Note_on_c, 1, 69, 127
1, 252540, Note_on_c, 1, 57, 127
1, 252540, Note_on_c, 1, 49, 127
1, 252599, Note_off_c, 1, 69, 0
1, 252599, Note_off_c, 1, 57, 0
1, 252599, Note_off_c, 1, 49, 0
1, 252600, Note_on_c, 1, 73, 127
1, 252600, Note_on_c, 1, 61, 127
1, 252600, Note_on_c, 1, 45, 127
1, 252659, Note_off_c, 1, 73, 0
1, 252659, Note_off_c, 1, 61, 0
1, 252659, Note_off_c, 1, 45, 0
1, 252660, Note_on_c, 1, 71, 127
1, 252660, Note_on_c, 1, 59, 127
1, 252660, Note_on_c, 1, 52, 127
1, 252719, Note_off_c, 1, 71, 0
1, 252719, Note_off_c, 1, 59, 0
1, 252719, Note_off_c, 1, 52, 0
1, 252720, Note_on_c, 1, 69, 127
1, 252720, Note_on_c, 1, 57, 127
1, 252779, Note_off_c, 1, 69, 0
1, 252779, Note_off_c, 1, 57, 0
1, 252780, Note_on_c, 1, 64, 127
1, 252780, Note_on_c, 1, 52, 127
1, 252780, Note_on_c, 1, 61, 127
1, 252809, Note_off_c, 1, 64, 0
1, 252809, Note_off_c, 1, 52, 0
1, 252810, Note_on_c, 1, 66, 127
1, 252810, Note_on_c, 1, 54, 127
1, 252839, Note_off_c, 1, 61, 0
1, 252839, Note_off_c, 1, 66, 0
1, 252839, Note_off_c, 1, 54, 0
1, 252840, Note_on_c, 1, 68, 127
1, 252840, Note_on_c, 1, 56, 127
1, 252840, Note_on_c, 1, 57, 127
1, 252869, Note_off_c, 1, 68, 0
1, 252869, Note_off_c, 1, 56, 0
1, 252870, Note_on_c, 1, 69, 127
1, 252899, Note_off_c, 1, 57, 0
1, 252899, Note_off_c, 1, 69, 0
1, 252900, Note_on_c, 1, 71, 127
1, 252900, Note_on_c, 1, 59, 127
1, 252900, Note_on_c, 1, 56, 127
1, 252959, Note_off_c, 1, 71, 0
1, 252959, Note_off_c, 1, 59, 0
1, 252959, Note_off_c, 1, 56, 0
1, 252960, Note_on_c, 1, 74, 127
1, 252960, Note_on_c, 1, 62, 127
1, 252960, Note_on_c, 1, 52, 127
1, 252989, Note_off_c, 1, 74, 0
1, 252989, Note_off_c, 1, 62, 0
1, 252990, Note_on_c, 1, 71, 127
1, 252990, Note_on_c, 1, 59, 127
1, 253019, Note_off_c, 1, 52, 0
1, 253019, Note_off_c, 1, 71, 0
1, 253019, Note_off_c, 1, 59, 0
1, 253020, Note_on_c, 1, 73, 127
1, 253020, Note_on_c, 1, 61, 127
1, 253020, Note_on_c, 1, 57, 127
1, 253049, Note_off_c, 1, 73, 0
1, 253049, Note_off_c, 1, 61, 0
1, 253050, Note_on_c, 1, 69, 127
1, 253079, Note_off_c, 1, 57, 0
1, 253079, Note_off_c, 1, 69, 0
1, 253080, Note_on_c, 1, 76, 127
1, 253080, Note_on_c, 1, 64, 127
1, 253080, Note_on_c, 1, 49, 127
1, 253139, Note_off_c, 1, 49, 0
1, 253140, Note_on_c, 1, 50, 127
1, 253169, Note_off_c, 1, 50, 0
1, 253170, Note_on_c, 1, 47, 127
1, 253199, Note_off_c, 1, 76, 0
1, 253199, Note_off_c, 1, 64, 0
1, 253199, Note_off_c, 1, 47, 0
1, 253200, Note_on_c, 1, 76, 127
1, 253200, Note_on_c, 1, 61, 127
1, 253200, Note_on_c, 1, 49, 127
1, 253229, Note_off_c, 1, 49, 0
1, 253230, Note_on_c, 1, 45, 127
1, 253259, Note_off_c, 1, 76, 0
1, 253259, Note_off_c, 1, 61, 0
1, 253259, Note_off_c, 1, 45, 0
1, 253260, Note_on_c, 1, 78, 127
1, 253260, Note_on_c, 1, 61, 127
1, 253260, Note_on_c, 1, 50, 127
1, 253289, Note_off_c, 1, 78, 0
1, 253290, Note_on_c, 1, 74, 127
1, 253319, Note_off_c, 1, 61, 0
1, 253319, Note_off_c, 1, 50, 0
1, 253319, Note_off_c, 1, 74, 0
1, 253320, Note_on_c, 1, 78, 127
1, 253320, Note_on_c, 1, 54, 127
1, 253320, Note_on_c, 1, 62, 127
1, 253349, Note_off_c, 1, 78, 0
1, 253350, Note_on_c, 1, 74, 127
1, 253379, Note_off_c, 1, 54, 0
1, 253379, Note_off_c, 1, 62, 0
1, 253379, Note_off_c, 1, 74, 0
1, 253380, Note_on_c, 1, 78, 127
1, 253380, Note_on_c, 1, 50, 127
1, 253409, Note_off_c, 1, 78, 0
1, 253410, Note_on_c, 1, 74, 127
1, 253439, Note_off_c, 1, 50, 0
1, 253439, Note_off_c, 1, 74, 0
1, 253440, Note_on_c, 1, 71, 127
1, 253440, Note_on_c, 1, 52, 127
1, 253469, Note_off_c, 1, 52, 0
1, 253470, Note_on_c, 1, 56, 127
1, 253499, Note_off_c, 1, 71, 0
1, 253499, Note_off_c, 1, 56, 0
1, 253500, Note_on_c, 1, 73, 127
1, 253500, Note_on_c, 1, 52, 127
1, 253529, Note_off_c, 1, 52, 0
1, 253530, Note_on_c, 1, 56, 127
1, 253559, Note_off_c, 1, 73, 0
1, 253559, Note_off_c, 1, 56, 0
1, 253560, Note_on_c, 1, 74, 127
1, 253560, Note_on_c, 1, 59, 127
1, 253560, Note_on_c, 1, 52, 127
1, 253589, Note_off_c, 1, 52, 0
1, 253590, Note_on_c, 1, 56, 127
1, 253619, Note_off_c, 1, 74, 0
1, 253619, Note_off_c, 1, 59, 0
1, 253619, Note_off_c, 1, 56, 0
1, 253620, Note_on_c, 1, 76, 127
1, 253620, Note_on_c, 1, 59, 127
1, 253620, Note_on_c, 1, 49, 127
1, 253649, Note_off_c, 1, 76, 0
1, 253650, Note_on_c, 1, 73, 127
1, 253679, Note_off_c, 1, 59, 0
1, 253679, Note_off_c, 1, 49, 0
1, 253679, Note_off_c, 1, 73, 0
1, 253680, Note_on_c, 1, 76, 127
1, 253680, Note_on_c, 1, 52, 127
1, 253680, Note_on_c, 1, 61, 127
1, 253709, Note_off_c, 1, 76, 0
1, 253710, Note_on_c, 1, 73, 127
1, 253739, Note_off_c, 1, 52, 0
1, 253739, Note_off_c, 1, 61, 0
1, 253739, Note_off_c, 1, 73, 0
1, 253740, Note_on_c, 1, 76, 127
1, 253740, Note_on_c, 1, 49, 127
1, 253769, Note_off_c, 1, 76, 0
1, 253770, Note_on_c, 1, 73, 127
1, 253799, Note_off_c, 1, 49, 0
1, 253799, Note_off_c, 1, 73, 0
1, 253800, Note_on_c, 1, 69, 127
1, 253800, Note_on_c, 1, 50, 127
1, 253829, Note_off_c, 1, 50, 0
1, 253830, Note_on_c, 1, 54, 127
1, 253859, Note_off_c, 1, 69, 0
1, 253859, Note_off_c, 1, 54, 0
1, 253860, Note_on_c, 1, 71, 127
1, 253860, Note_on_c, 1, 50, 127
1, 253889, Note_off_c, 1, 50, 0
1, 253890, Note_on_c, 1, 54, 127
1, 253919, Note_off_c, 1, 71, 0
1, 253919, Note_off_c, 1, 54, 0
1, 253920, Note_on_c, 1, 73, 127
1, 253920, Note_on_c, 1, 54, 127
1, 253920, Note_on_c, 1, 50, 127
1, 253949, Note_off_c, 1, 50, 0
1, 253979, Note_off_c, 1, 73, 0
1, 253979, Note_off_c, 1, 54, 0
1, 253980, Note_on_c, 1, 74, 127
1, 253980, Note_on_c, 1, 59, 127
1, 253980, Note_on_c, 1, 47, 127
1, 254009, Note_off_c, 1, 74, 0
1, 254010, Note_on_c, 1, 71, 127
1, 254039, Note_off_c, 1, 59, 0
1, 254039, Note_off_c, 1, 47, 0
1, 254039, Note_off_c, 1, 71, 0
1, 254040, Note_on_c, 1, 71, 127
1, 254040, Note_on_c, 1, 62, 127
1, 254040, Note_on_c, 1, 59, 127
1, 254069, Note_off_c, 1, 71, 0
1, 254070, Note_on_c, 1, 69, 127
1, 254099, Note_off_c, 1, 62, 0
1, 254099, Note_off_c, 1, 59, 0
1, 254099, Note_off_c, 1, 69, 0
1, 254100, Note_on_c, 1, 69, 127
1, 254100, Note_on_c, 1, 61, 127
1, 254129, Note_off_c, 1, 69, 0
1, 254130, Note_on_c, 1, 68, 127
1, 254159, Note_off_c, 1, 61, 0
1, 254159, Note_off_c, 1, 68, 0
1, 254160, Note_on_c, 1, 68, 127
1, 254160, Note_on_c, 1, 62, 127
1, 254160, Note_on_c, 1, 52, 127
1, 254189, Note_off_c, 1, 68, 0
1, 254190, Note_on_c, 1, 71, 127
1, 254219, Note_off_c, 1, 62, 0
1, 254219, Note_off_c, 1, 52, 0
1, 254219, Note_off_c, 1, 71, 0
1, 254220, Note_on_c, 1, 68, 127
1, 254220, Note_on_c, 1, 59, 127
1, 254220, Note_on_c, 1, 56, 127
1, 254249, Note_off_c, 1, 68, 0
1, 254250, Note_on_c, 1, 71, 127
1, 254279, Note_off_c, 1, 59, 0
1, 254279, Note_off_c, 1, 56, 0
1, 254279, Note_off_c, 1, 71, 0
1, 254280, Note_on_c, 1, 68, 127
1, 254280, Note_on_c, 1, 64, 127
1, 254280, Note_on_c, 1, 52, 127
1, 254309, Note_off_c, 1, 68, 0
1, 254310, Note_on_c, 1, 71, 127
1, 254339, Note_off_c, 1, 64, 0
1, 254339, Note_off_c, 1, 52, 0
1, 254339, Note_off_c, 1, 71, 0
1, 254340, Note_on_c, 1, 73, 127
1, 254340, Note_on_c, 1, 57, 127
1, 254369, Note_off_c, 1, 73, 0
1, 254370, Note_on_c, 1, 64, 127
1, 254399, Note_off_c, 1, 57, 0
1, 254399, Note_off_c, 1, 64, 0
1, 254400, Note_on_c, 1, 64, 127
1, 254400, Note_on_c, 1, 61, 127
1, 254400, Note_on_c, 1, 49, 127
1, 254429, Note_off_c, 1, 64, 0
1, 254430, Note_on_c, 1, 62, 127
1, 254459, Note_off_c, 1, 61, 0
1, 254459, Note_off_c, 1, 49, 0
1, 254459, Note_off_c, 1, 62, 0
1, 254460, Note_on_c, 1, 62, 127
1, 254460, Note_on_c, 1, 59, 127
1, 254460, Note_on_c, 1, 52, 127
1, 254489, Note_off_c, 1, 62, 0
1, 254490, Note_on_c, 1, 61, 127
1, 254519, Note_off_c, 1, 59, 0
1, 254519, Note_off_c, 1, 52, 0
1, 254519, Note_off_c, 1, 61, 0
1, 254520, Note_on_c, 1, 61, 127
1, 254520, Note_on_c, 1, 45, 127
1, 254550, Note_on_c, 1, 64, 127
1, 254579, Note_off_c, 1, 45, 0
1, 254579, Note_off_c, 1, 64, 0
1, 254580, Note_on_c, 1, 49, 127
1, 254639, Note_off_c, 1, 61, 0
1, 254639, Note_off_c, 1, 49, 0
1, 254640, Note_on_c, 1, 61, 127
1, 254640, Note_on_c, 1, 45, 127
1, 254670, Note_on_c, 1, 64, 127
1, 254699, Note_off_c, 1, 61, 0
1, 254699, Note_off_c, 1, 45, 0
1, 254699, Note_off_c, 1, 64, 0
1, 254700, Note_on_c, 1, 56, 127
1, 254700, Note_on_c, 1, 59, 127
1, 254700, Note_on_c, 1, 52, 127
1, 254729, Note_off_c, 1, 56, 0
1, 254729, Note_off_c, 1, 59, 0
1, 254730, Note_on_c, 1, 64, 127
1, 254759, Note_off_c, 1, 52, 0
1, 254759, Note_off_c, 1, 64, 0
1, 254760, Note_on_c, 1, 71, 127
1, 254760, Note_on_c, 1, 59, 127
1, 254760, Note_on_c, 1, 56, 127
1, 254789, Note_off_c, 1, 71, 0
1, 254789, Note_off_c, 1, 59, 0
1, 254790, Note_on_c, 1, 64, 127
1, 254819, Note_off_c, 1, 56, 0
1, 254819, Note_off_c, 1, 64, 0
1, 254820, Note_on_c, 1, 69, 127
1, 254820, Note_on_c, 1, 59, 127
1, 254820, Note_on_c, 1, 54, 127
1, 254849, Note_off_c, 1, 69, 0
1, 254849, Note_off_c, 1, 59, 0
1, 254850, Note_on_c, 1, 64, 127
1, 254879, Note_off_c, 1, 54, 0
1, 254879, Note_off_c, 1, 64, 0
1, 254880, Note_on_c, 1, 68, 127
1, 254880, Note_on_c, 1, 59, 127
1, 254880, Note_on_c, 1, 52, 127
1, 254909, Note_off_c, 1, 68, 0
1, 254909, Note_off_c, 1, 59, 0
1, 254910, Note_on_c, 1, 64, 127
1, 254939, Note_off_c, 1, 52, 0
1, 254939, Note_off_c, 1, 64, 0
1, 254940, Note_on_c, 1, 66, 127
1, 254940, Note_on_c, 1, 59, 127
1, 254940, Note_on_c, 1, 47, 127
1, 254969, Note_off_c, 1, 66, 0
1, 254969, Note_off_c, 1, 59, 0
1, 254969, Note_off_c, 1, 47, 0
1, 254970, Note_on_c, 1, 64, 127
1, 254970, Note_on_c, 1, 49, 127
1, 254999, Note_off_c, 1, 64, 0
1, 254999, Note_off_c, 1, 49, 0
1, 255000, Note_on_c, 1, 68, 127
1, 255000, Note_on_c, 1, 59, 127
1, 255000, Note_on_c, 1, 51, 127
1, 255029, Note_off_c, 1, 68, 0
1, 255029, Note_off_c, 1, 59, 0
1, 255029, Note_off_c, 1, 51, 0
1, 255030, Note_on_c, 1, 64, 127
1, 255030, Note_on_c, 1, 52, 127
1, 255059, Note_off_c, 1, 64, 0
1, 255059, Note_off_c, 1, 52, 0
1, 255060, Note_on_c, 1, 69, 127
1, 255060, Note_on_c, 1, 59, 127
1, 255060, Note_on_c, 1, 54, 127
1, 255089, Note_off_c, 1, 69, 0
1, 255089, Note_off_c, 1, 59, 0
1, 255090, Note_on_c, 1, 75, 127
1, 255119, Note_off_c, 1, 54, 0
1, 255119, Note_off_c, 1, 75, 0
1, 255120, Note_on_c, 1, 78, 127
1, 255120, Note_on_c, 1, 57, 127
1, 255120, Note_on_c, 1, 51, 127
1, 255149, Note_off_c, 1, 78, 0
1, 255149, Note_off_c, 1, 57, 0
1, 255150, Note_on_c, 1, 71, 127
1, 255150, Note_on_c, 1, 56, 127
1, 255179, Note_off_c, 1, 51, 0
1, 255179, Note_off_c, 1, 71, 0
1, 255179, Note_off_c, 1, 56, 0
1, 255180, Note_on_c, 1, 76, 127
1, 255180, Note_on_c, 1, 54, 127
1, 255180, Note_on_c, 1, 52, 127
1, 255209, Note_off_c, 1, 76, 0
1, 255209, Note_off_c, 1, 54, 0
1, 255210, Note_on_c, 1, 71, 127
1, 255239, Note_off_c, 1, 52, 0
1, 255239, Note_off_c, 1, 71, 0
1, 255240, Note_on_c, 1, 75, 127
1, 255240, Note_on_c, 1, 59, 127
1, 255240, Note_on_c, 1, 47, 127
1, 255269, Note_off_c, 1, 75, 0
1, 255270, Note_on_c, 1, 78, 127
1, 255299, Note_off_c, 1, 47, 0
1, 255299, Note_off_c, 1, 78, 0
1, 255300, Note_on_c, 1, 76, 127
1, 255300, Note_on_c, 1, 49, 127
1, 255329, Note_off_c, 1, 76, 0
1, 255330, Note_on_c, 1, 80, 127
1, 255359, Note_off_c, 1, 59, 0
1, 255359, Note_off_c, 1, 49, 0
1, 255359, Note_off_c, 1, 80, 0
1, 255360, Note_on_c, 1, 78, 127
1, 255360, Note_on_c, 1, 59, 127
1, 255360, Note_on_c, 1, 51, 127
1, 255389, Note_off_c, 1, 78, 0
1, 255390, Note_on_c, 1, 81, 127
1, 255419, Note_off_c, 1, 59, 0
1, 255419, Note_off_c, 1, 51, 0
1, 255419, Note_off_c, 1, 81, 0
1, 255420, Note_on_c, 1, 80, 127
1, 255420, Note_on_c, 1, 64, 127
1, 255420, Note_on_c, 1, 52, 127
1, 255449, Note_off_c, 1, 80, 0
1, 255450, Note_on_c, 1, 71, 127
1, 255479, Note_off_c, 1, 64, 0
1, 255479, Note_off_c, 1, 52, 0
1, 255479, Note_off_c, 1, 71, 0
1, 255480, Note_on_c, 1, 73, 127
1, 255480, Note_on_c, 1, 52, 127
1, 255480, Note_on_c, 1, 45, 127
1, 255509, Note_off_c, 1, 73, 0
1, 255510, Note_on_c, 1, 76, 127
1, 255539, Note_off_c, 1, 52, 0
1, 255539, Note_off_c, 1, 45, 0
1, 255539, Note_off_c, 1, 76, 0
1, 255540, Note_on_c, 1, 75, 127
1, 255540, Note_on_c, 1, 47, 127
1, 255569, Note_off_c, 1, 75, 0
1, 255570, Note_on_c, 1, 78, 127
1, 255599, Note_off_c, 1, 47, 0
1, 255599, Note_off_c, 1, 78, 0
1, 255600, Note_on_c, 1, 76, 127
1, 255600, Note_on_c, 1, 49, 127
1, 255629, Note_off_c, 1, 76, 0
1, 255630, Note_on_c, 1, 71, 127
1, 255659, Note_off_c, 1, 49, 0
1, 255659, Note_off_c, 1, 71, 0
1, 255660, Note_on_c, 1, 73, 127
1, 255660, Note_on_c, 1, 47, 127
1, 255689, Note_off_c, 1, 73, 0
1, 255690, Note_on_c, 1, 76, 127
1, 255719, Note_off_c, 1, 47, 0
1, 255719, Note_off_c, 1, 76, 0
1, 255720, Note_on_c, 1, 75, 127
1, 255720, Note_on_c, 1, 59, 127
1, 255720, Note_on_c, 1, 45, 127
1, 255749, Note_off_c, 1, 75, 0
1, 255750, Note_on_c, 1, 78, 127
1, 255779, Note_off_c, 1, 59, 0
1, 255779, Note_off_c, 1, 45, 0
1, 255779, Note_off_c, 1, 78, 0
1, 255780, Note_on_c, 1, 76, 127
1, 255780, Note_on_c, 1, 64, 127
1, 255780, Note_on_c, 1, 44, 127
1, 255809, Note_off_c, 1, 76, 0
1, 255810, Note_on_c, 1, 80, 127
1, 255839, Note_off_c, 1, 64, 0
1, 255839, Note_off_c, 1, 44, 0
1, 255839, Note_off_c, 1, 80, 0
1, 255840, Note_on_c, 1, 78, 127
1, 255840, Note_on_c, 1, 52, 127
1, 255840, Note_on_c, 1, 45, 127
1, 255869, Note_off_c, 1, 78, 0
1, 255870, Note_on_c, 1, 81, 127
1, 255899, Note_off_c, 1, 52, 0
1, 255899, Note_off_c, 1, 45, 0
1, 255899, Note_off_c, 1, 81, 0
1, 255900, Note_on_c, 1, 80, 127
1, 255900, Note_on_c, 1, 47, 127
1, 255929, Note_off_c, 1, 80, 0
1, 255930, Note_on_c, 1, 78, 127
1, 255959, Note_off_c, 1, 47, 0
1, 255959, Note_off_c, 1, 78, 0
1, 255960, Note_on_c, 1, 80, 127
1, 255960, Note_on_c, 1, 40, 127
1, 255989, Note_off_c, 1, 80, 0
1, 255990, Note_on_c, 1, 64, 127
1, 256019, Note_off_c, 1, 40, 0
1, 256019, Note_off_c, 1, 64, 0
1, 256020, Note_on_c, 1, 64, 127
1, 256020, Note_on_c, 1, 42, 127
1, 256049, Note_off_c, 1, 64, 0
1, 256050, Note_on_c, 1, 62, 127
1, 256079, Note_off_c, 1, 42, 0
1, 256079, Note_off_c, 1, 62, 0
1, 256080, Note_on_c, 1, 62, 127
1, 256080, Note_on_c, 1, 59, 127
1, 256080, Note_on_c, 1, 44, 127
1, 256109, Note_off_c, 1, 62, 0
1, 256110, Note_on_c, 1, 61, 127
1, 256139, Note_off_c, 1, 59, 0
1, 256139, Note_off_c, 1, 44, 0
1, 256139, Note_off_c, 1, 61, 0
1, 256140, Note_on_c, 1, 61, 127
1, 256140, Note_on_c, 1, 45, 127
1, 256170, Note_on_c, 1, 64, 127
1, 256199, Note_off_c, 1, 45, 0
1, 256199, Note_off_c, 1, 64, 0
1, 256200, Note_on_c, 1, 57, 127
1, 256259, Note_off_c, 1, 57, 0
1, 256260, Note_on_c, 1, 56, 127
1, 256319, Note_off_c, 1, 56, 0
1, 256320, Note_on_c, 1, 69, 127
1, 256320, Note_on_c, 1, 54, 127
1, 256349, Note_off_c, 1, 69, 0
1, 256349, Note_off_c, 1, 54, 0
1, 256350, Note_on_c, 1, 68, 127
1, 256350, Note_on_c, 1, 52, 127
1, 256379, Note_off_c, 1, 61, 0
1, 256379, Note_off_c, 1, 68, 0
1, 256379, Note_off_c, 1, 52, 0
1, 256380, Note_on_c, 1, 66, 127
1, 256380, Note_on_c, 1, 54, 127
1, 256380, Note_on_c, 1, 51, 127
1, 256409, Note_off_c, 1, 66, 0
1, 256409, Note_off_c, 1, 54, 0
1, 256409, Note_off_c, 1, 51, 0
1, 256410, Note_on_c, 1, 64, 127
1, 256410, Note_on_c, 1, 56, 127
1, 256410, Note_on_c, 1, 52, 127
1, 256439, Note_off_c, 1, 64, 0
1, 256439, Note_off_c, 1, 56, 0
1, 256439, Note_off_c, 1, 52, 0
1, 256440, Note_on_c, 1, 63, 127
1, 256440, Note_on_c, 1, 57, 127
1, 256440, Note_on_c, 1, 54, 127
1, 256469, Note_off_c, 1, 63, 0
1, 256469, Note_off_c, 1, 57, 0
1, 256469, Note_off_c, 1, 54, 0
1, 256470, Note_on_c, 1, 61, 127
1, 256470, Note_on_c, 1, 54, 127
1, 256470, Note_on_c, 1, 51, 127
1, 256499, Note_off_c, 1, 61, 0
1, 256499, Note_off_c, 1, 54, 0
1, 256499, Note_off_c, 1, 51, 0
1, 256500, Note_on_c, 1, 59, 127
1, 256500, Note_on_c, 1, 44, 127
1, 256530, Note_on_c, 1, 63, 127
1, 256559, Note_off_c, 1, 44, 0
1, 256559, Note_off_c, 1, 63, 0
1, 256560, Note_on_c, 1, 56, 127
1, 256619, Note_off_c, 1, 56, 0
1, 256620, Note_on_c, 1, 54, 127
1, 256679, Note_off_c, 1, 54, 0
1, 256680, Note_on_c, 1, 68, 127
1, 256680, Note_on_c, 1, 52, 127
1, 256709, Note_off_c, 1, 68, 0
1, 256709, Note_off_c, 1, 52, 0
1, 256710, Note_on_c, 1, 66, 127
1, 256710, Note_on_c, 1, 51, 127
1, 256739, Note_off_c, 1, 59, 0
1, 256739, Note_off_c, 1, 66, 0
1, 256739, Note_off_c, 1, 51, 0
1, 256740, Note_on_c, 1, 64, 127
1, 256740, Note_on_c, 1, 52, 127
1, 256740, Note_on_c, 1, 49, 127
1, 256769, Note_off_c, 1, 64, 0
1, 256769, Note_off_c, 1, 52, 0
1, 256769, Note_off_c, 1, 49, 0
1, 256770, Note_on_c, 1, 63, 127
1, 256770, Note_on_c, 1, 54, 127
1, 256770, Note_on_c, 1, 51, 127
1, 256799, Note_off_c, 1, 63, 0
1, 256799, Note_off_c, 1, 54, 0
1, 256799, Note_off_c, 1, 51, 0
1, 256800, Note_on_c, 1, 61, 127
1, 256800, Note_on_c, 1, 56, 127
1, 256800, Note_on_c, 1, 52, 127
1, 256829, Note_off_c, 1, 61, 0
1, 256829, Note_off_c, 1, 56, 0
1, 256829, Note_off_c, 1, 52, 0
1, 256830, Note_on_c, 1, 59, 127
1, 256830, Note_on_c, 1, 52, 127
1, 256830, Note_on_c, 1, 49, 127
1, 256859, Note_off_c, 1, 59, 0
1, 256859, Note_off_c, 1, 52, 0
1, 256859, Note_off_c, 1, 49, 0
1, 256860, Note_on_c, 1, 57, 127
1, 256860, Note_on_c, 1, 54, 127
1, 256860, Note_on_c, 1, 42, 127
1, 256889, Note_off_c, 1, 57, 0
1, 256890, Note_on_c, 1, 59, 127
1, 256919, Note_off_c, 1, 54, 0
1, 256919, Note_off_c, 1, 42, 0
1, 256919, Note_off_c, 1, 59, 0
1, 256920, Note_on_c, 1, 57, 127
1, 256920, Note_on_c, 1, 54, 127
1, 256950, Note_on_c, 1, 59, 127
1, 256979, Note_off_c, 1, 57, 0
1, 256979, Note_off_c, 1, 54, 0
1, 256979, Note_off_c, 1, 59, 0
1, 256980, Note_on_c, 1, 57, 127
1, 256980, Note_on_c, 1, 61, 127
1, 256980, Note_on_c, 1, 52, 127
1, 257009, Note_off_c, 1, 57, 0
1, 257010, Note_on_c, 1, 59, 127
1, 257039, Note_off_c, 1, 61, 0
1, 257039, Note_off_c, 1, 52, 0
1, 257039, Note_off_c, 1, 59, 0
1, 257040, Note_on_c, 1, 57, 127
1, 257040, Note_on_c, 1, 59, 127
1, 257040, Note_on_c, 1, 51, 127
1, 257069, Note_off_c, 1, 57, 0
1, 257069, Note_off_c, 1, 59, 0
1, 257070, Note_on_c, 1, 61, 127
1, 257099, Note_off_c, 1, 51, 0
1, 257099, Note_off_c, 1, 61, 0
1, 257100, Note_on_c, 1, 57, 127
1, 257100, Note_on_c, 1, 56, 127
1, 257100, Note_on_c, 1, 52, 127
1, 257129, Note_off_c, 1, 57, 0
1, 257129, Note_off_c, 1, 56, 0
1, 257130, Note_on_c, 1, 61, 127
1, 257130, Note_on_c, 1, 54, 127
1, 257159, Note_off_c, 1, 52, 0
1, 257159, Note_off_c, 1, 61, 0
1, 257159, Note_off_c, 1, 54, 0
1, 257160, Note_on_c, 1, 57, 127
1, 257160, Note_on_c, 1, 54, 127
1, 257190, Note_on_c, 1, 61, 127
1, 257219, Note_off_c, 1, 57, 0
1, 257219, Note_off_c, 1, 54, 0
1, 257219, Note_off_c, 1, 61, 0
1, 257220, Note_on_c, 1, 63, 127
1, 257220, Note_on_c, 1, 57, 127
1, 257220, Note_on_c, 1, 47, 127
1, 257249, Note_off_c, 1, 57, 0
1, 257250, Note_on_c, 1, 59, 127
1, 257279, Note_off_c, 1, 63, 0
1, 257279, Note_off_c, 1, 47, 0
1, 257279, Note_off_c, 1, 59, 0
1, 257280, Note_on_c, 1, 66, 127
1, 257280, Note_on_c, 1, 57, 127
1, 257280, Note_on_c, 1, 51, 127
1, 257309, Note_off_c, 1, 57, 0
1, 257310, Note_on_c, 1, 59, 127
1, 257339, Note_off_c, 1, 66, 0
1, 257339, Note_off_c, 1, 51, 0
1, 257339, Note_off_c, 1, 59, 0
1, 257340, Note_on_c, 1, 69, 127
1, 257340, Note_on_c, 1, 57, 127
1, 257340, Note_on_c, 1, 54, 127
1, 257369, Note_off_c, 1, 57, 0
1, 257370, Note_on_c, 1, 59, 127
1, 257399, Note_off_c, 1, 69, 0
1, 257399, Note_off_c, 1, 54, 0
1, 257399, Note_off_c, 1, 59, 0
1, 257400, Note_on_c, 1, 68, 127
1, 257400, Note_on_c, 1, 57, 127
1, 257400, Note_on_c, 1, 51, 127
1, 257429, Note_off_c, 1, 68, 0
1, 257429, Note_off_c, 1, 57, 0
1, 257430, Note_on_c, 1, 66, 127
1, 257430, Note_on_c, 1, 59, 127
1, 257459, Note_off_c, 1, 51, 0
1, 257459, Note_off_c, 1, 66, 0
1, 257459, Note_off_c, 1, 59, 0
1, 257460, Note_on_c, 1, 64, 127
1, 257460, Note_on_c, 1, 56, 127
1, 257460, Note_on_c, 1, 47, 127
1, 257489, Note_off_c, 1, 64, 0
1, 257489, Note_off_c, 1, 56, 0
1, 257490, Note_on_c, 1, 63, 127
1, 257490, Note_on_c, 1, 57, 127
1, 257519, Note_off_c, 1, 47, 0
1, 257519, Note_off_c, 1, 63, 0
1, 257519, Note_off_c, 1, 57, 0
1, 257520, Note_on_c, 1, 71, 127
1, 257520, Note_on_c, 1, 54, 127
1, 257520, Note_on_c, 1, 45, 127
1, 257549, Note_off_c, 1, 54, 0
1, 257550, Note_on_c, 1, 56, 127
1, 257579, Note_off_c, 1, 71, 0
1, 257579, Note_off_c, 1, 45, 0
1, 257579, Note_off_c, 1, 56, 0
1, 257580, Note_on_c, 1, 71, 127
1, 257580, Note_on_c, 1, 52, 127
1, 257580, Note_on_c, 1, 44, 127
1, 257609, Note_off_c, 1, 71, 0
1, 257609, Note_off_c, 1, 52, 0
1, 257609, Note_off_c, 1, 44, 0
1, 257610, Note_on_c, 1, 68, 127
1, 257610, Note_on_c, 1, 47, 127
1, 257639, Note_off_c, 1, 68, 0
1, 257639, Note_off_c, 1, 47, 0
1, 257640, Note_on_c, 1, 71, 127
1, 257640, Note_on_c, 1, 56, 127
1, 257640, Note_on_c, 1, 44, 127
1, 257669, Note_off_c, 1, 71, 0
1, 257669, Note_off_c, 1, 56, 0
1, 257669, Note_off_c, 1, 44, 0
1, 257670, Note_on_c, 1, 68, 127
1, 257670, Note_on_c, 1, 47, 127
1, 257699, Note_off_c, 1, 68, 0
1, 257699, Note_off_c, 1, 47, 0
1, 257700, Note_on_c, 1, 71, 127
1, 257700, Note_on_c, 1, 59, 127
1, 257700, Note_on_c, 1, 44, 127
1, 257729, Note_off_c, 1, 71, 0
1, 257729, Note_off_c, 1, 59, 0
1, 257729, Note_off_c, 1, 44, 0
1, 257730, Note_on_c, 1, 68, 127
1, 257730, Note_on_c, 1, 47, 127
1, 257759, Note_off_c, 1, 68, 0
1, 257759, Note_off_c, 1, 47, 0
1, 257760, Note_on_c, 1, 64, 127
1, 257760, Note_on_c, 1, 49, 127
1, 257789, Note_off_c, 1, 64, 0
1, 257789, Note_off_c, 1, 49, 0
1, 257790, Note_on_c, 1, 68, 127
1, 257790, Note_on_c, 1, 52, 127
1, 257819, Note_off_c, 1, 68, 0
1, 257819, Note_off_c, 1, 52, 0
1, 257820, Note_on_c, 1, 64, 127
1, 257820, Note_on_c, 1, 59, 127
1, 257820, Note_on_c, 1, 49, 127
1, 257849, Note_off_c, 1, 64, 0
1, 257849, Note_off_c, 1, 49, 0
1, 257850, Note_on_c, 1, 68, 127
1, 257850, Note_on_c, 1, 52, 127
1, 257879, Note_off_c, 1, 59, 0
1, 257879, Note_off_c, 1, 68, 0
1, 257879, Note_off_c, 1, 52, 0
1, 257880, Note_on_c, 1, 64, 127
1, 257880, Note_on_c, 1, 57, 127
1, 257880, Note_on_c, 1, 49, 127
1, 257909, Note_off_c, 1, 64, 0
1, 257909, Note_off_c, 1, 49, 0
1, 257910, Note_on_c, 1, 68, 127
1, 257910, Note_on_c, 1, 52, 127
1, 257939, Note_off_c, 1, 57, 0
1, 257939, Note_off_c, 1, 68, 0
1, 257939, Note_off_c, 1, 52, 0
1, 257940, Note_on_c, 1, 61, 127
1, 257940, Note_on_c, 1, 56, 127
1, 257940, Note_on_c, 1, 57, 127
1, 257969, Note_off_c, 1, 61, 0
1, 257970, Note_on_c, 1, 64, 127
1, 257999, Note_off_c, 1, 56, 0
1, 257999, Note_off_c, 1, 57, 0
1, 257999, Note_off_c, 1, 64, 0
1, 258000, Note_on_c, 1, 69, 127
1, 258000, Note_on_c, 1, 54, 127
1, 258000, Note_on_c, 1, 59, 127
1, 258029, Note_off_c, 1, 69, 0
1, 258029, Note_off_c, 1, 54, 0
1, 258030, Note_on_c, 1, 68, 127
1, 258030, Note_on_c, 1, 52, 127
1, 258059, Note_off_c, 1, 59, 0
1, 258059, Note_off_c, 1, 68, 0
1, 258059, Note_off_c, 1, 52, 0
1, 258060, Note_on_c, 1, 69, 127
1, 258060, Note_on_c, 1, 54, 127
1, 258060, Note_on_c, 1, 47, 127
1, 258089, Note_off_c, 1, 69, 0
1, 258089, Note_off_c, 1, 54, 0
1, 258090, Note_on_c, 1, 66, 127
1, 258090, Note_on_c, 1, 51, 127
1, 258119, Note_off_c, 1, 47, 0
1, 258119, Note_off_c, 1, 66, 0
1, 258119, Note_off_c, 1, 51, 0
1, 258120, Note_on_c, 1, 64, 127
1, 258120, Note_on_c, 1, 52, 127
1, 258120, Note_on_c, 1, 40, 127
1, 258149, Note_off_c, 1, 64, 0
1, 258150, Note_on_c, 1, 68, 127
1, 258179, Note_off_c, 1, 68, 0
1, 258180, Note_on_c, 1, 71, 127
1, 258209, Note_off_c, 1, 71, 0
1, 258210, Note_on_c, 1, 76, 127
1, 258239, Note_off_c, 1, 52, 0
1, 258239, Note_off_c, 1, 40, 0
1, 258239, Note_off_c, 1, 76, 0
1, 258240, Note_on_c, 1, 71, 127
1, 258269, Note_off_c, 1, 71, 0
1, 258270, Note_on_c, 1, 68, 127
1, 258299, Note_off_c, 1, 68, 0
1, 258300, Note_on_c, 1, 64, 127
1, 258359, Note_off_c, 1, 64, 0
1, 258360, Note_on_c, 1, 68, 127
1, 258419, Note_off_c, 1, 68, 0
1, 258420, Note_on_c, 1, 66, 127
1, 258420, Note_on_c, 1, 47, 127
1, 258479, Note_off_c, 1, 66, 0
1, 258479, Note_off_c, 1, 47, 0
1, 258480, Note_on_c, 1, 64, 127
1, 258480, Note_on_c, 1, 52, 127
1, 258539, Note_off_c, 1, 64, 0
1, 258539, Note_off_c, 1, 52, 0
1, 258540, Note_on_c, 1, 59, 127
1, 258540, Note_on_c, 1, 56, 127
1, 258569, Note_off_c, 1, 59, 0
1, 258570, Note_on_c, 1, 61, 127
1, 258599, Note_off_c, 1, 56, 0
1, 258599, Note_off_c, 1, 61, 0
1, 258600, Note_on_c, 1, 63, 127
1, 258600, Note_on_c, 1, 52, 127
1, 258629, Note_off_c, 1, 63, 0
1, 258630, Note_on_c, 1, 64, 127
1, 258659, Note_off_c, 1, 52, 0
1, 258659, Note_off_c, 1, 64, 0
1, 258660, Note_on_c, 1, 66, 127
1, 258660, Note_on_c, 1, 51, 127
1, 258719, Note_off_c, 1, 66, 0
1, 258719, Note_off_c, 1, 51, 0
1, 258720, Note_on_c, 1, 69, 127
1, 258720, Note_on_c, 1, 47, 127
1, 258749, Note_off_c, 1, 69, 0
1, 258750, Note_on_c, 1, 66, 127
1, 258779, Note_off_c, 1, 47, 0
1, 258779, Note_off_c, 1, 66, 0
1, 258780, Note_on_c, 1, 68, 127
1, 258780, Note_on_c, 1, 52, 127
1, 258809, Note_off_c, 1, 68, 0
1, 258810, Note_on_c, 1, 64, 127
1, 258839, Note_off_c, 1, 52, 0
1, 258839, Note_off_c, 1, 64, 0
1, 258840, Note_on_c, 1, 71, 127
1, 258840, Note_on_c, 1, 56, 127
1, 258899, Note_off_c, 1, 56, 0
1, 258900, Note_on_c, 1, 57, 127
1, 258929, Note_off_c, 1, 57, 0
1, 258930, Note_on_c, 1, 54, 127
1, 258959, Note_off_c, 1, 71, 0
1, 258959, Note_off_c, 1, 54, 0
1, 258960, Note_on_c, 1, 71, 127
1, 258960, Note_on_c, 1, 56, 127
1, 258989, Note_off_c, 1, 56, 0
1, 258990, Note_on_c, 1, 52, 127
1, 259019, Note_off_c, 1, 71, 0
1, 259019, Note_off_c, 1, 52, 0
1, 259020, Note_on_c, 1, 73, 127
1, 259020, Note_on_c, 1, 57, 127
1, 259049, Note_off_c, 1, 73, 0
1, 259050, Note_on_c, 1, 69, 127
1, 259079, Note_off_c, 1, 57, 0
1, 259079, Note_off_c, 1, 69, 0
1, 259080, Note_on_c, 1, 73, 127
1, 259080, Note_on_c, 1, 45, 127
1, 259109, Note_off_c, 1, 73, 0
1, 259110, Note_on_c, 1, 69, 127
1, 259139, Note_off_c, 1, 45, 0
1, 259139, Note_off_c, 1, 69, 0
1, 259140, Note_on_c, 1, 73, 127
1, 259140, Note_on_c, 1, 57, 127
1, 259169, Note_off_c, 1, 73, 0
1, 259170, Note_on_c, 1, 69, 127
1, 259199, Note_off_c, 1, 57, 0
1, 259199, Note_off_c, 1, 69, 0
1, 259200, Note_on_c, 1, 66, 127
1, 259200, Note_on_c, 1, 59, 127
1, 259229, Note_off_c, 1, 59, 0
1, 259230, Note_on_c, 1, 63, 127
1, 259259, Note_off_c, 1, 66, 0
1, 259259, Note_off_c, 1, 63, 0
1, 259260, Note_on_c, 1, 68, 127
1, 259260, Note_on_c, 1, 59, 127
1, 259289, Note_off_c, 1, 59, 0
1, 259290, Note_on_c, 1, 63, 127
1, 259319, Note_off_c, 1, 68, 0
1, 259319, Note_off_c, 1, 63, 0
1, 259320, Note_on_c, 1, 69, 127
1, 259320, Note_on_c, 1, 59, 127
1, 259349, Note_off_c, 1, 59, 0
1, 259350, Note_on_c, 1, 63, 127
1, 259379, Note_off_c, 1, 69, 0
1, 259379, Note_off_c, 1, 63, 0
1, 259380, Note_on_c, 1, 71, 127
1, 259380, Note_on_c, 1, 56, 127
1, 259409, Note_off_c, 1, 71, 0
1, 259410, Note_on_c, 1, 68, 127
1, 259439, Note_off_c, 1, 56, 0
1, 259439, Note_off_c, 1, 68, 0
1, 259440, Note_on_c, 1, 71, 127
1, 259440, Note_on_c, 1, 44, 127
1, 259469, Note_off_c, 1, 71, 0
1, 259470, Note_on_c, 1, 68, 127
1, 259499, Note_off_c, 1, 44, 0
1, 259499, Note_off_c, 1, 68, 0
1, 259500, Note_on_c, 1, 71, 127
1, 259500, Note_on_c, 1, 56, 127
1, 259529, Note_off_c, 1, 71, 0
1, 259530, Note_on_c, 1, 68, 127
1, 259559, Note_off_c, 1, 56, 0
1, 259559, Note_off_c, 1, 68, 0
1, 259560, Note_on_c, 1, 64, 127
1, 259560, Note_on_c, 1, 57, 127
1, 259589, Note_off_c, 1, 57, 0
1, 259590, Note_on_c, 1, 61, 127
1, 259619, Note_off_c, 1, 64, 0
1, 259619, Note_off_c, 1, 61, 0
1, 259620, Note_on_c, 1, 66, 127
1, 259620, Note_on_c, 1, 57, 127
1, 259649, Note_off_c, 1, 57, 0
1, 259650, Note_on_c, 1, 61, 127
1, 259679, Note_off_c, 1, 66, 0
1, 259679, Note_off_c, 1, 61, 0
1, 259680, Note_on_c, 1, 68, 127
1, 259680, Note_on_c, 1, 57, 127
1, 259709, Note_off_c, 1, 57, 0
1, 259710, Note_on_c, 1, 61, 127
1, 259739, Note_off_c, 1, 68, 0
1, 259739, Note_off_c, 1, 61, 0
1, 259740, Note_on_c, 1, 69, 127
1, 259740, Note_on_c, 1, 54, 127
1, 259769, Note_off_c, 1, 69, 0
1, 259770, Note_on_c, 1, 73, 127
1, 259799, Note_off_c, 1, 54, 0
1, 259799, Note_off_c, 1, 73, 0
1, 259800, Note_on_c, 1, 71, 127
1, 259800, Note_on_c, 1, 56, 127
1, 259829, Note_off_c, 1, 71, 0
1, 259830, Note_on_c, 1, 74, 127
1, 259859, Note_off_c, 1, 56, 0
1, 259859, Note_off_c, 1, 74, 0
1, 259860, Note_on_c, 1, 73, 127
1, 259860, Note_on_c, 1, 57, 127
1, 259889, Note_off_c, 1, 73, 0
1, 259890, Note_on_c, 1, 76, 127
1, 259919, Note_off_c, 1, 76, 0
1, 259920, Note_on_c, 1, 75, 127
1, 259949, Note_off_c, 1, 75, 0
1, 259950, Note_on_c, 1, 78, 127
1, 259979, Note_off_c, 1, 57, 0
1, 259979, Note_off_c, 1, 78, 0
1, 259980, Note_on_c, 1, 76, 127
1, 259980, Note_on_c, 1, 56, 127
1, 260009, Note_off_c, 1, 76, 0
1, 260009, Note_off_c, 1, 56, 0
1, 260010, Note_on_c, 1, 80, 127
1, 260010, Note_on_c, 1, 54, 127
1, 260039, Note_off_c, 1, 80, 0
1, 260039, Note_off_c, 1, 54, 0
1, 260040, Note_on_c, 1, 78, 127
1, 260040, Note_on_c, 1, 52, 127
1, 260069, Note_off_c, 1, 78, 0
1, 260069, Note_off_c, 1, 52, 0
1, 260070, Note_on_c, 1, 81, 127
1, 260070, Note_on_c, 1, 51, 127
1, 260099, Note_off_c, 1, 81, 0
1, 260099, Note_off_c, 1, 51, 0
1, 260100, Note_on_c, 1, 80, 127
1, 260100, Note_on_c, 1, 52, 127
1, 260159, Note_off_c, 1, 52, 0
1, 260160, Note_off_c, 1, 80, 0
1, 260160, Note_on_c, 1, 76, 127
1, 260160, Note_on_c, 1, 44, 127
1, 260219, Note_off_c, 1, 44, 0
1, 260220, Note_off_c, 1, 76, 0
1, 260220, Note_on_c, 1, 75, 127
1, 260220, Note_on_c, 1, 47, 127
1, 260279, Note_off_c, 1, 47, 0
1, 260280, Note_off_c, 1, 75, 0
1, 260280, Note_on_c, 1, 40, 127
1, 260339, Note_off_c, 1, 40, 0
1, 260370, Note_on_c, 1, 54, 127
1, 260399, Note_off_c, 1, 54, 0
1, 260400, Note_on_c, 1, 59, 127
1, 260400, Note_on_c, 1, 56, 127
1, 260429, Note_off_c, 1, 56, 0
1, 260459, Note_off_c, 1, 59, 0
1, 260460, Note_on_c, 1, 61, 127
1, 260460, Note_on_c, 1, 57, 127
1, 260489, Note_off_c, 1, 61, 0
1, 260490, Note_on_c, 1, 62, 127
1, 260519, Note_off_c, 1, 57, 0
1, 260519, Note_off_c, 1, 62, 0
1, 260520, Note_on_c, 1, 74, 127
1, 260520, Note_on_c, 1, 64, 127
1, 260520, Note_on_c, 1, 45, 127
1, 260549, Note_off_c, 1, 74, 0
1, 260550, Note_on_c, 1, 73, 127
1, 260579, Note_off_c, 1, 45, 0
1, 260579, Note_off_c, 1, 73, 0
1, 260580, Note_on_c, 1, 71, 127
1, 260580, Note_on_c, 1, 57, 127
1, 260609, Note_off_c, 1, 71, 0
1, 260610, Note_on_c, 1, 69, 127
1, 260639, Note_off_c, 1, 64, 0
1, 260639, Note_off_c, 1, 57, 0
1, 260639, Note_off_c, 1, 69, 0
1, 260640, Note_on_c, 1, 76, 127
1, 260640, Note_on_c, 1, 59, 127
1, 260640, Note_on_c, 1, 56, 127
1, 260699, Note_off_c, 1, 59, 0
1, 260699, Note_off_c, 1, 56, 0
1, 260700, Note_on_c, 1, 61, 127
1, 260700, Note_on_c, 1, 57, 127
1, 260729, Note_off_c, 1, 57, 0
1, 260759, Note_off_c, 1, 61, 0
1, 260760, Note_on_c, 1, 62, 127
1, 260760, Note_on_c, 1, 54, 127
1, 260789, Note_off_c, 1, 54, 0
1, 260790, Note_on_c, 1, 52, 127
1, 260819, Note_off_c, 1, 62, 0
1, 260819, Note_off_c, 1, 52, 0
1, 260879, Note_off_c, 1, 76, 0
1, 260880, Note_on_c, 1, 64, 127
1, 260880, Note_on_c, 1, 62, 127
1, 260880, Note_on_c, 1, 56, 127
1, 260909, Note_off_c, 1, 62, 0
1, 260910, Note_on_c, 1, 61, 127
1, 260939, Note_off_c, 1, 64, 0
1, 260939, Note_off_c, 1, 56, 0
1, 260939, Note_off_c, 1, 61, 0
1, 260940, Note_on_c, 1, 69, 127
1, 260940, Note_on_c, 1, 59, 127
1, 260940, Note_on_c, 1, 54, 127
1, 260969, Note_off_c, 1, 59, 0
1, 260970, Note_on_c, 1, 57, 127
1, 260999, Note_off_c, 1, 54, 0
1, 260999, Note_off_c, 1, 57, 0
1, 261000, Note_on_c, 1, 52, 127
1, 261029, Note_off_c, 1, 69, 0
1, 261030, Note_on_c, 1, 68, 127
1, 261059, Note_off_c, 1, 52, 0
1, 261059, Note_off_c, 1, 68, 0
1, 261060, Note_on_c, 1, 69, 127
1, 261060, Note_on_c, 1, 52, 127
1, 261060, Note_on_c, 1, 54, 127
1, 261089, Note_off_c, 1, 69, 0
1, 261090, Note_on_c, 1, 68, 127
1, 261119, Note_off_c, 1, 52, 0
1, 261119, Note_off_c, 1, 54, 0
1, 261119, Note_off_c, 1, 68, 0
1, 261120, Note_on_c, 1, 66, 127
1, 261120, Note_on_c, 1, 64, 127
1, 261120, Note_on_c, 1, 56, 127
1, 261149, Note_off_c, 1, 66, 0
1, 261179, Note_off_c, 1, 64, 0
1, 261179, Note_off_c, 1, 56, 0
1, 261180, Note_on_c, 1, 73, 127
1, 261180, Note_on_c, 1, 64, 127
1, 261180, Note_on_c, 1, 57, 127
1, 261209, Note_off_c, 1, 73, 0
1, 261209, Note_off_c, 1, 57, 0
1, 261210, Note_on_c, 1, 74, 127
1, 261210, Note_on_c, 1, 52, 127
1, 261239, Note_off_c, 1, 64, 0
1, 261239, Note_off_c, 1, 74, 0
1, 261239, Note_off_c, 1, 52, 0
1, 261240, Note_on_c, 1, 76, 127
1, 261240, Note_on_c, 1, 52, 127
1, 261240, Note_on_c, 1, 57, 127
1, 261269, Note_off_c, 1, 57, 0
1, 261299, Note_off_c, 1, 52, 0
1, 261359, Note_off_c, 1, 76, 0
1, 261360, Note_on_c, 1, 71, 127
1, 261360, Note_on_c, 1, 56, 127
1, 261389, Note_off_c, 1, 56, 0
1, 261390, Note_on_c, 1, 52, 127
1, 261419, Note_off_c, 1, 71, 0
1, 261419, Note_off_c, 1, 52, 0
1, 261420, Note_on_c, 1, 73, 127
1, 261420, Note_on_c, 1, 56, 127
1, 261449, Note_off_c, 1, 56, 0
1, 261450, Note_on_c, 1, 52, 127
1, 261479, Note_off_c, 1, 73, 0
1, 261479, Note_off_c, 1, 52, 0
1, 261480, Note_on_c, 1, 74, 127
1, 261480, Note_on_c, 1, 64, 127
1, 261480, Note_on_c, 1, 56, 127
1, 261509, Note_off_c, 1, 56, 0
1, 261510, Note_on_c, 1, 52, 127
1, 261539, Note_off_c, 1, 74, 0
1, 261539, Note_off_c, 1, 64, 0
1, 261539, Note_off_c, 1, 52, 0
1, 261540, Note_on_c, 1, 73, 127
1, 261540, Note_on_c, 1, 64, 127
1, 261540, Note_on_c, 1, 57, 127
1, 261569, Note_off_c, 1, 57, 0
1, 261570, Note_on_c, 1, 52, 127
1, 261599, Note_off_c, 1, 73, 0
1, 261599, Note_off_c, 1, 64, 0
1, 261599, Note_off_c, 1, 52, 0
1, 261600, Note_on_c, 1, 74, 127
1, 261600, Note_on_c, 1, 52, 127
1, 261600, Note_on_c, 1, 57, 127
1, 261629, Note_off_c, 1, 74, 0
1, 261629, Note_off_c, 1, 57, 0
1, 261630, Note_on_c, 1, 73, 127
1, 261659, Note_off_c, 1, 52, 0
1, 261659, Note_off_c, 1, 73, 0
1, 261660, Note_on_c, 1, 71, 127
1, 261660, Note_on_c, 1, 57, 127
1, 261689, Note_off_c, 1, 71, 0
1, 261689, Note_off_c, 1, 57, 0
1, 261690, Note_on_c, 1, 69, 127
1, 261690, Note_on_c, 1, 52, 127
1, 261719, Note_off_c, 1, 69, 0
1, 261719, Note_off_c, 1, 52, 0
1, 261720, Note_on_c, 1, 71, 127
1, 261720, Note_on_c, 1, 56, 127
1, 261749, Note_off_c, 1, 56, 0
1, 261750, Note_on_c, 1, 57, 127
1, 261779, Note_off_c, 1, 71, 0
1, 261779, Note_off_c, 1, 57, 0
1, 261780, Note_on_c, 1, 64, 127
1, 261780, Note_on_c, 1, 56, 127
1, 261809, Note_off_c, 1, 64, 0
1, 261809, Note_off_c, 1, 56, 0
1, 261810, Note_on_c, 1, 66, 127
1, 261810, Note_on_c, 1, 54, 127
1, 261839, Note_off_c, 1, 66, 0
1, 261839, Note_off_c, 1, 54, 0
1, 261840, Note_on_c, 1, 68, 127
1, 261840, Note_on_c, 1, 52, 127
1, 261869, Note_off_c, 1, 68, 0
1, 261870, Note_on_c, 1, 64, 127
1, 261870, Note_on_c, 1, 50, 127
1, 261899, Note_off_c, 1, 52, 0
1, 261899, Note_off_c, 1, 64, 0
1, 261899, Note_off_c, 1, 50, 0
1, 261900, Note_on_c, 1, 69, 127
1, 261900, Note_on_c, 1, 57, 127
1, 261900, Note_on_c, 1, 49, 127
1, 261959, Note_off_c, 1, 69, 0
1, 261959, Note_off_c, 1, 57, 0
1, 261959, Note_off_c, 1, 49, 0
1, 261960, Note_on_c, 1, 73, 127
1, 261960, Note_on_c, 1, 61, 127
1, 261960, Note_on_c, 1, 45, 127
1, 262019, Note_off_c, 1, 73, 0
1, 262019, Note_off_c, 1, 61, 0
1, 262019, Note_off_c, 1, 45, 0
1, 262020, Note_on_c, 1, 71, 127
1, 262020, Note_on_c, 1, 59, 127
1, 262020, Note_on_c, 1, 52, 127
1, 262079, Note_off_c, 1, 71, 0
1, 262079, Note_off_c, 1, 59, 0
1, 262079, Note_off_c, 1, 52, 0
1, 262080, Note_on_c, 1, 69, 127
1, 262080, Note_on_c, 1, 57, 127
1, 262139, Note_off_c, 1, 69, 0
1, 262139, Note_off_c, 1, 57, 0
1, 262140, Note_on_c, 1, 64, 127
1, 262140, Note_on_c, 1, 52, 127
1, 262140, Note_on_c, 1, 61, 127
1, 262169, Note_off_c, 1, 64, 0
1, 262169, Note_off_c, 1, 52, 0
1, 262170, Note_on_c, 1, 66, 127
1, 262170, Note_on_c, 1, 54, 127
1, 262199, Note_off_c, 1, 61, 0
1, 262199, Note_off_c, 1, 66, 0
1, 262199, Note_off_c, 1, 54, 0
1, 262200, Note_on_c, 1, 68, 127
1, 262200, Note_on_c, 1, 56, 127
1, 262200, Note_on_c, 1, 57, 127
1, 262229, Note_off_c, 1, 68, 0
1, 262229, Note_off_c, 1, 56, 0
1, 262230, Note_on_c, 1, 69, 127
1, 262259, Note_off_c, 1, 57, 0
1, 262259, Note_off_c, 1, 69, 0
1, 262260, Note_on_c, 1, 71, 127
1, 262260, Note_on_c, 1, 59, 127
1, 262260, Note_on_c, 1, 56, 127
1, 262319, Note_off_c, 1, 71, 0
1, 262319, Note_off_c, 1, 59, 0
1, 262319, Note_off_c, 1, 56, 0
1, 262320, Note_on_c, 1, 74, 127
1, 262320, Note_on_c, 1, 62, 127
1, 262320, Note_on_c, 1, 52, 127
1, 262349, Note_off_c, 1, 74, 0
1, 262349, Note_off_c, 1, 62, 0
1, 262350, Note_on_c, 1, 71, 127
1, 262350, Note_on_c, 1, 59, 127
1, 262379, Note_off_c, 1, 52, 0
1, 262379, Note_off_c, 1, 71, 0
1, 262379, Note_off_c, 1, 59, 0
1, 262380, Note_on_c, 1, 73, 127
1, 262380, Note_on_c, 1, 61, 127
1, 262380, Note_on_c, 1, 57, 127
1, 262409, Note_off_c, 1, 73, 0
1, 262409, Note_off_c, 1, 61, 0
1, 262410, Note_on_c, 1, 69, 127
1, 262439, Note_off_c, 1, 57, 0
1, 262439, Note_off_c, 1, 69, 0
1, 262440, Note_on_c, 1, 76, 127
1, 262440, Note_on_c, 1, 64, 127
1, 262440, Note_on_c, 1, 49, 127
1, 262499, Note_off_c, 1, 49, 0
1, 262500, Note_on_c, 1, 50, 127
1, 262529, Note_off_c, 1, 50, 0
1, 262530, Note_on_c, 1, 47, 127
1, 262559, Note_off_c, 1, 76, 0
1, 262559, Note_off_c, 1, 64, 0
1, 262559, Note_off_c, 1, 47, 0
1, 262560, Note_on_c, 1, 76, 127
1, 262560, Note_on_c, 1, 61, 127
1, 262560, Note_on_c, 1, 49, 127
1, 262589, Note_off_c, 1, 49, 0
1, 262590, Note_on_c, 1, 45, 127
1, 262619, Note_off_c, 1, 76, 0
1, 262619, Note_off_c, 1, 61, 0
1, 262619, Note_off_c, 1, 45, 0
1, 262620, Note_on_c, 1, 78, 127
1, 262620, Note_on_c, 1, 61, 127
1, 262620, Note_on_c, 1, 50, 127
1, 262649, Note_off_c, 1, 78, 0
1, 262650, Note_on_c, 1, 74, 127
1, 262679, Note_off_c, 1, 61, 0
1, 262679, Note_off_c, 1, 50, 0
1, 262679, Note_off_c, 1, 74, 0
1, 262680, Note_on_c, 1, 78, 127
1, 262680, Note_on_c, 1, 54, 127
1, 262680, Note_on_c, 1, 62, 127
1, 262709, Note_off_c, 1, 78, 0
1, 262710, Note_on_c, 1, 74, 127
1, 262739, Note_off_c, 1, 54, 0
1, 262739, Note_off_c, 1, 62, 0
1, 262739, Note_off_c, 1, 74, 0
1, 262740, Note_on_c, 1, 78, 127
1, 262740, Note_on_c, 1, 50, 127
1, 262769, Note_off_c, 1, 78, 0
1, 262770, Note_on_c, 1, 74, 127
1, 262799, Note_off_c, 1, 50, 0
1, 262799, Note_off_c, 1, 74, 0
1, 262800, Note_on_c, 1, 71, 127
1, 262800, Note_on_c, 1, 52, 127
1, 262829, Note_off_c, 1, 52, 0
1, 262830, Note_on_c, 1, 56, 127
1, 262859, Note_off_c, 1, 71, 0
1, 262859, Note_off_c, 1, 56, 0
1, 262860, Note_on_c, 1, 73, 127
1, 262860, Note_on_c, 1, 52, 127
1, 262889, Note_off_c, 1, 52, 0
1, 262890, Note_on_c, 1, 56, 127
1, 262919, Note_off_c, 1, 73, 0
1, 262919, Note_off_c, 1, 56, 0
1, 262920, Note_on_c, 1, 74, 127
1, 262920, Note_on_c, 1, 59, 127
1, 262920, Note_on_c, 1, 52, 127
1, 262949, Note_off_c, 1, 52, 0
1, 262950, Note_on_c, 1, 56, 127
1, 262979, Note_off_c, 1, 74, 0
1, 262979, Note_off_c, 1, 59, 0
1, 262979, Note_off_c, 1, 56, 0
1, 262980, Note_on_c, 1, 76, 127
1, 262980, Note_on_c, 1, 59, 127
1, 262980, Note_on_c, 1, 49, 127
1, 263009, Note_off_c, 1, 76, 0
1, 263010, Note_on_c, 1, 73, 127
1, 263039, Note_off_c, 1, 59, 0
1, 263039, Note_off_c, 1, 49, 0
1, 263039, Note_off_c, 1, 73, 0
1, 263040, Note_on_c, 1, 76, 127
1, 263040, Note_on_c, 1, 52, 127
1, 263040, Note_on_c, 1, 61, 127
1, 263069, Note_off_c, 1, 76, 0
1, 263070, Note_on_c, 1, 73, 127
1, 263099, Note_off_c, 1, 52, 0
1, 263099, Note_off_c, 1, 61, 0
1, 263099, Note_off_c, 1, 73, 0
1, 263100, Note_on_c, 1, 76, 127
1, 263100, Note_on_c, 1, 49, 127
1, 263129, Note_off_c, 1, 76, 0
1, 263130, Note_on_c, 1, 73, 127
1, 263159, Note_off_c, 1, 49, 0
1, 263159, Note_off_c, 1, 73, 0
1, 263160, Note_on_c, 1, 69, 127
1, 263160, Note_on_c, 1, 50, 127
1, 263189, Note_off_c, 1, 50, 0
1, 263190, Note_on_c, 1, 54, 127
1, 263219, Note_off_c, 1, 69, 0
1, 263219, Note_off_c, 1, 54, 0
1, 263220, Note_on_c, 1, 71, 127
1, 263220, Note_on_c, 1, 50, 127
1, 263249, Note_off_c, 1, 50, 0
1, 263250, Note_on_c, 1, 54, 127
1, 263279, Note_off_c, 1, 71, 0
1, 263279, Note_off_c, 1, 54, 0
1, 263280, Note_on_c, 1, 73, 127
1, 263280, Note_on_c, 1, 54, 127
1, 263280, Note_on_c, 1, 50, 127
1, 263309, Note_off_c, 1, 50, 0
1, 263339, Note_off_c, 1, 73, 0
1, 263339, Note_off_c, 1, 54, 0
1, 263340, Note_on_c, 1, 74, 127
1, 263340, Note_on_c, 1, 62, 127
1, 263340, Note_on_c, 1, 47, 127
1, 263369, Note_off_c, 1, 74, 0
1, 263369, Note_off_c, 1, 62, 0
1, 263370, Note_on_c, 1, 73, 127
1, 263399, Note_off_c, 1, 47, 0
1, 263399, Note_off_c, 1, 73, 0
1, 263400, Note_on_c, 1, 73, 127
1, 263400, Note_on_c, 1, 62, 127
1, 263400, Note_on_c, 1, 49, 127
1, 263429, Note_off_c, 1, 73, 0
1, 263429, Note_off_c, 1, 62, 0
1, 263430, Note_on_c, 1, 71, 127
1, 263459, Note_off_c, 1, 49, 0
1, 263459, Note_off_c, 1, 71, 0
1, 263460, Note_on_c, 1, 71, 127
1, 263460, Note_on_c, 1, 62, 127
1, 263460, Note_on_c, 1, 50, 127
1, 263489, Note_off_c, 1, 71, 0
1, 263489, Note_off_c, 1, 62, 0
1, 263490, Note_on_c, 1, 69, 127
1, 263519, Note_off_c, 1, 50, 0
1, 263519, Note_off_c, 1, 69, 0
1, 263520, Note_on_c, 1, 68, 127
1, 263520, Note_on_c, 1, 62, 127
1, 263520, Note_on_c, 1, 52, 127
1, 263549, Note_off_c, 1, 68, 0
1, 263549, Note_off_c, 1, 62, 0
1, 263579, Note_off_c, 1, 52, 0
1, 263580, Note_on_c, 1, 62, 127
1, 263580, Note_on_c, 1, 52, 127
1, 263580, Note_on_c, 1, 56, 127
1, 263609, Note_off_c, 1, 62, 0
1, 263610, Note_on_c, 1, 61, 127
1, 263639, Note_off_c, 1, 52, 0
1, 263639, Note_off_c, 1, 56, 0
1, 263639, Note_off_c, 1, 61, 0
1, 263640, Note_on_c, 1, 61, 127
1, 263640, Note_on_c, 1, 64, 127
1, 263640, Note_on_c, 1, 52, 127
1, 263669, Note_off_c, 1, 61, 0
1, 263670, Note_on_c, 1, 59, 127
1, 263699, Note_off_c, 1, 64, 0
1, 263699, Note_off_c, 1, 52, 0
1, 263699, Note_off_c, 1, 59, 0
1, 263700, Note_on_c, 1, 61, 127
1, 263700, Note_on_c, 1, 57, 127
1, 263730, Note_on_c, 1, 64, 127
1, 263759, Note_off_c, 1, 61, 0
1, 263759, Note_off_c, 1, 57, 0
1, 263759, Note_off_c, 1, 64, 0
1, 263760, Note_on_c, 1, 66, 127
1, 263760, Note_on_c, 1, 59, 127
1, 263760, Note_on_c, 1, 50, 127
1, 263789, Note_off_c, 1, 66, 0
1, 263789, Note_off_c, 1, 59, 0
1, 263789, Note_off_c, 1, 50, 0
1, 263790, Note_on_c, 1, 69, 127
1, 263790, Note_on_c, 1, 57, 127
1, 263790, Note_on_c, 1, 49, 127
1, 263819, Note_off_c, 1, 69, 0
1, 263819, Note_off_c, 1, 57, 0
1, 263819, Note_off_c, 1, 49, 0
1, 263820, Note_on_c, 1, 68, 127
1, 263820, Note_on_c, 1, 59, 127
1, 263820, Note_on_c, 1, 50, 127
1, 263849, Note_off_c, 1, 68, 0
1, 263850, Note_on_c, 1, 66, 127
1, 263879, Note_off_c, 1, 59, 0
1, 263879, Note_off_c, 1, 66, 0
1, 263880, Note_on_c, 1, 71, 127
1, 263880, Note_on_c, 1, 52, 127
1, 263909, Note_off_c, 1, 71, 0
1, 263910, Note_on_c, 1, 64, 127
1, 263939, Note_off_c, 1, 50, 0
1, 263939, Note_off_c, 1, 64, 0
1, 263940, Note_on_c, 1, 49, 127
1, 263970, Note_on_c, 1, 69, 127
1, 263999, Note_off_c, 1, 52, 0
1, 263999, Note_off_c, 1, 49, 0
1, 263999, Note_off_c, 1, 69, 0
1, 264000, Note_on_c, 1, 68, 127
1, 264000, Note_on_c, 1, 52, 127
1, 264000, Note_on_c, 1, 47, 127
1, 264029, Note_off_c, 1, 68, 0
1, 264030, Note_on_c, 1, 71, 127
1, 264059, Note_off_c, 1, 52, 0
1, 264059, Note_off_c, 1, 47, 0
1, 264059, Note_off_c, 1, 71, 0
1, 264060, Note_on_c, 1, 69, 127
1, 264060, Note_on_c, 1, 57, 127
1, 264060, Note_on_c, 1, 49, 127
1, 264089, Note_off_c, 1, 69, 0
1, 264090, Note_on_c, 1, 73, 127
1, 264119, Note_off_c, 1, 57, 0
1, 264119, Note_off_c, 1, 49, 0
1, 264119, Note_off_c, 1, 73, 0
1, 264120, Note_on_c, 1, 71, 127
1, 264120, Note_on_c, 1, 59, 127
1, 264120, Note_on_c, 1, 50, 127
1, 264149, Note_off_c, 1, 71, 0
1, 264150, Note_on_c, 1, 74, 127
1, 264179, Note_off_c, 1, 59, 0
1, 264179, Note_off_c, 1, 50, 0
1, 264179, Note_off_c, 1, 74, 0
1, 264180, Note_on_c, 1, 73, 127
1, 264180, Note_on_c, 1, 52, 127
1, 264209, Note_off_c, 1, 73, 0
1, 264210, Note_on_c, 1, 71, 127
1, 264239, Note_off_c, 1, 52, 0
1, 264239, Note_off_c, 1, 71, 0
1, 264240, Note_on_c, 1, 73, 127
1, 264240, Note_on_c, 1, 61, 127
1, 264240, Note_on_c, 1, 45, 127
1, 264269, Note_off_c, 1, 73, 0
1, 264270, Note_on_c, 1, 76, 127
1, 264299, Note_off_c, 1, 61, 0
1, 264299, Note_off_c, 1, 45, 0
1, 264299, Note_off_c, 1, 76, 0
1, 264300, Note_on_c, 1, 74, 127
1, 264300, Note_on_c, 1, 62, 127
1, 264300, Note_on_c, 1, 47, 127
1, 264329, Note_off_c, 1, 74, 0
1, 264330, Note_on_c, 1, 78, 127
1, 264359, Note_off_c, 1, 62, 0
1, 264359, Note_off_c, 1, 47, 0
1, 264359, Note_off_c, 1, 78, 0
1, 264360, Note_on_c, 1, 76, 127
1, 264360, Note_on_c, 1, 52, 127
1, 264360, Note_on_c, 1, 49, 127
1, 264419, Note_off_c, 1, 76, 0
1, 264419, Note_off_c, 1, 52, 0
1, 264419, Note_off_c, 1, 49, 0
1, 264420, Note_on_c, 1, 62, 127
1, 264420, Note_on_c, 1, 50, 127
1, 264420, Note_on_c, 1, 42, 127
1, 264449, Note_off_c, 1, 62, 0
1, 264450, Note_on_c, 1, 61, 127
1, 264479, Note_off_c, 1, 50, 0
1, 264479, Note_off_c, 1, 42, 0
1, 264479, Note_off_c, 1, 61, 0
1, 264480, Note_on_c, 1, 61, 127
1, 264480, Note_on_c, 1, 49, 127
1, 264480, Note_on_c, 1, 38, 127
1, 264509, Note_off_c, 1, 61, 0
1, 264510, Note_on_c, 1, 59, 127
1, 264539, Note_off_c, 1, 49, 0
1, 264539, Note_off_c, 1, 38, 0
1, 264539, Note_off_c, 1, 59, 0
1, 264540, Note_on_c, 1, 59, 127
1, 264540, Note_on_c, 1, 47, 127
1, 264540, Note_on_c, 1, 40, 127
1, 264569, Note_off_c, 1, 59, 0
1, 264570, Note_on_c, 1, 57, 127
1, 264599, Note_off_c, 1, 47, 0
1, 264599, Note_off_c, 1, 40, 0
1, 264599, Note_off_c, 1, 57, 0
1, 264600, Note_on_c, 1, 57, 127
1, 264600, Note_on_c, 1, 45, 127
1, 264719, Note_off_c, 1, 57, 0
1, 264719, Note_off_c, 1, 45, 0
1, 264720, Note_on_c, 1, 52, 127
1, 264720, Note_on_c, 1, 56, 127
1, 264779, Note_off_c, 1, 52, 0
1, 264779, Note_off_c, 1, 56, 0
1, 264780, Note_on_c, 1, 69, 127
1, 264780, Note_on_c, 1, 51, 127
1, 264780, Note_on_c, 1, 54, 127
1, 264809, Note_off_c, 1, 51, 0
1, 264809, Note_off_c, 1, 54, 0
1, 264810, Note_on_c, 1, 52, 127
1, 264810, Note_on_c, 1, 57, 127
1, 264839, Note_off_c, 1, 52, 0
1, 264839, Note_off_c, 1, 57, 0
1, 264899, Note_off_c, 1, 69, 0
1, 264960, Note_on_c, 1, 66, 127
1, 264990, Note_on_c, 1, 56, 127
1, 265019, Note_off_c, 1, 56, 0
1, 265079, Note_off_c, 1, 66, 0
1, 265140, Note_on_c, 1, 63, 127
1, 265140, Note_on_c, 1, 47, 127
1, 265170, Note_on_c, 1, 59, 127
1, 265199, Note_off_c, 1, 47, 0
1, 265199, Note_off_c, 1, 59, 0
1, 265200, Note_on_c, 1, 61, 127
1, 265200, Note_on_c, 1, 42, 127
1, 265229, Note_off_c, 1, 61, 0
1, 265259, Note_off_c, 1, 63, 0
1, 265259, Note_off_c, 1, 42, 0
1, 265260, Note_on_c, 1, 62, 127
1, 265260, Note_on_c, 1, 45, 127
1, 265289, Note_off_c, 1, 62, 0
1, 265290, Note_on_c, 1, 61, 127
1, 265319, Note_off_c, 1, 45, 0
1, 265319, Note_off_c, 1, 61, 0
1, 265320, Note_on_c, 1, 64, 127
1, 265320, Note_on_c, 1, 59, 127
1, 265320, Note_on_c, 1, 44, 127
1, 265349, Note_off_c, 1, 59, 0
1, 265350, Note_on_c, 1, 57, 127
1, 265379, Note_off_c, 1, 44, 0
1, 265379, Note_off_c, 1, 57, 0
1, 265380, Note_on_c, 1, 56, 127
1, 265380, Note_on_c, 1, 40, 127
1, 265409, Note_off_c, 1, 56, 0
1, 265410, Note_on_c, 1, 54, 127
1, 265439, Note_off_c, 1, 40, 0
1, 265439, Note_off_c, 1, 54, 0
1, 265440, Note_on_c, 1, 52, 127
1, 265469, Note_off_c, 1, 52, 0
1, 265470, Note_on_c, 1, 50, 127
1, 265499, Note_off_c, 1, 64, 0
1, 265499, Note_off_c, 1, 50, 0
1, 265500, Note_on_c, 1, 49, 127
1, 265500, Note_on_c, 1, 45, 127
1, 265530, Note_on_c, 1, 66, 127
1, 265559, Note_off_c, 1, 49, 0
1, 265559, Note_off_c, 1, 66, 0
1, 265560, Note_on_c, 1, 68, 127
1, 265560, Note_on_c, 1, 52, 127
1, 265589, Note_off_c, 1, 68, 0
1, 265590, Note_on_c, 1, 69, 127
1, 265619, Note_off_c, 1, 45, 0
1, 265619, Note_off_c, 1, 52, 0
1, 265619, Note_off_c, 1, 69, 0
1, 265620, Note_on_c, 1, 71, 127
1, 265620, Note_on_c, 1, 57, 127
1, 265649, Note_off_c, 1, 71, 0
1, 265650, Note_on_c, 1, 73, 127
1, 265679, Note_off_c, 1, 57, 0
1, 265679, Note_off_c, 1, 73, 0
1, 265680, Note_on_c, 1, 74, 127
1, 265680, Note_on_c, 1, 56, 127
1, 265680, Note_on_c, 1, 47, 127
1, 265709, Note_off_c, 1, 74, 0
1, 265710, Note_on_c, 1, 78, 127
1, 265739, Note_off_c, 1, 56, 0
1, 265739, Note_off_c, 1, 78, 0
1, 265740, Note_on_c, 1, 76, 127
1, 265740, Note_on_c, 1, 64, 127
1, 265769, Note_off_c, 1, 76, 0
1, 265799, Note_off_c, 1, 47, 0
1, 265800, Note_on_c, 1, 73, 127
1, 265829, Note_off_c, 1, 73, 0
1, 265830, Note_on_c, 1, 71, 127
1, 265859, Note_off_c, 1, 64, 0
1, 265859, Note_off_c, 1, 71, 0
1, 265860, Note_on_c, 1, 69, 127
1, 265860, Note_on_c, 1, 52, 127
1, 265860, Note_on_c, 1, 49, 127
1, 265919, Note_off_c, 1, 69, 0
1, 265919, Note_off_c, 1, 52, 0
1, 265919, Note_off_c, 1, 49, 0
1, 265920, Note_on_c, 1, 64, 127
1, 265920, Note_on_c, 1, 61, 127
1, 265920, Note_on_c, 1, 50, 127
1, 265949, Note_off_c, 1, 64, 0
1, 265949, Note_off_c, 1, 61, 0
1, 265950, Note_on_c, 1, 62, 127
1, 265950, Note_on_c, 1, 59, 127
1, 265979, Note_off_c, 1, 50, 0
1, 265979, Note_off_c, 1, 62, 0
1, 265979, Note_off_c, 1, 59, 0
1, 265980, Note_on_c, 1, 61, 127
1, 265980, Note_on_c, 1, 57, 127
1, 265980, Note_on_c, 1, 52, 127
1, 266009, Note_off_c, 1, 61, 0
1, 266009, Note_off_c, 1, 57, 0
1, 266010, Note_on_c, 1, 59, 127
1, 266010, Note_on_c, 1, 56, 127
1, 266039, Note_off_c, 1, 52, 0
1, 266039, Note_off_c, 1, 59, 0
1, 266039, Note_off_c, 1, 56, 0
1, 266040, Note_on_c, 1, 57, 127
1, 266040, Note_on_c, 1, 45, 127
1, 266159, Note_off_c, 1, 57, 0
1, 266159, Note_off_c, 1, 45, 0
1, 266160, Note_on_c, 1, 64, 127
1, 266219, Note_off_c, 1, 64, 0
1, 266220, Note_on_c, 1, 69, 127
1, 266279, Note_off_c, 1, 69, 0
1, 266280, Note_on_c, 1, 73, 127
1, 266339, Note_off_c, 1, 73, 0
1, 266340, Note_on_c, 1, 71, 127
1, 266340, Note_on_c, 1, 52, 127
1, 266399, Note_off_c, 1, 71, 0
1, 266399, Note_off_c, 1, 52, 0
1, 266400, Note_on_c, 1, 69, 127
1, 266400, Note_on_c, 1, 57, 127
1, 266459, Note_off_c, 1, 69, 0
1, 266459, Note_off_c, 1, 57, 0
1, 266460, Note_on_c, 1, 64, 127
1, 266460, Note_on_c, 1, 61, 127
1, 266489, Note_off_c, 1, 64, 0
1, 266490, Note_on_c, 1, 66, 127
1, 266519, Note_off_c, 1, 61, 0
1, 266519, Note_off_c, 1, 66, 0
1, 266520, Note_on_c, 1, 68, 127
1, 266520, Note_on_c, 1, 57, 127
1, 266549, Note_off_c, 1, 68, 0
1, 266550, Note_on_c, 1, 69, 127
1, 266579, Note_off_c, 1, 57, 0
1, 266579, Note_off_c, 1, 69, 0
1, 266580, Note_on_c, 1, 71, 127
1, 266580, Note_on_c, 1, 56, 127
1, 266639, Note_off_c, 1, 71, 0
1, 266639, Note_off_c, 1, 56, 0
1, 266640, Note_on_c, 1, 74, 127
1, 266640, Note_on_c, 1, 52, 127
1, 266669, Note_off_c, 1, 74, 0
1, 266670, Note_on_c, 1, 71, 127
1, 266699, Note_off_c, 1, 52, 0
1, 266699, Note_off_c, 1, 71, 0
1, 266700, Note_on_c, 1, 73, 127
1, 266700, Note_on_c, 1, 57, 127
1, 266729, Note_off_c, 1, 73, 0
1, 266730, Note_on_c, 1, 69, 127
1, 266759, Note_off_c, 1, 57, 0
1, 266759, Note_off_c, 1, 69, 0
1, 266760, Note_on_c, 1, 76, 127
1, 266760, Note_on_c, 1, 49, 127
1, 266819, Note_off_c, 1, 49, 0
1, 266820, Note_on_c, 1, 50, 127
1, 266849, Note_off_c, 1, 50, 0
1, 266850, Note_on_c, 1, 47, 127
1, 266879, Note_off_c, 1, 76, 0
1, 266879, Note_off_c, 1, 47, 0
1, 266880, Note_on_c, 1, 76, 127
1, 266880, Note_on_c, 1, 49, 127
1, 266909, Note_off_c, 1, 49, 0
1, 266910, Note_on_c, 1, 45, 127
1, 266939, Note_off_c, 1, 76, 0
1, 266939, Note_off_c, 1, 45, 0
1, 266940, Note_on_c, 1, 78, 127
1, 266940, Note_on_c, 1, 50, 127
1, 266969, Note_off_c, 1, 78, 0
1, 266970, Note_on_c, 1, 74, 127
1, 266999, Note_off_c, 1, 50, 0
1, 266999, Note_off_c, 1, 74, 0
1, 267000, Note_on_c, 1, 78, 127
1, 267000, Note_on_c, 1, 62, 127
1, 267029, Note_off_c, 1, 78, 0
1, 267030, Note_on_c, 1, 74, 127
1, 267059, Note_off_c, 1, 62, 0
1, 267059, Note_off_c, 1, 74, 0
1, 267060, Note_on_c, 1, 78, 127
1, 267060, Note_on_c, 1, 50, 127
1, 267089, Note_off_c, 1, 78, 0
1, 267090, Note_on_c, 1, 74, 127
1, 267119, Note_off_c, 1, 50, 0
1, 267119, Note_off_c, 1, 74, 0
1, 267120, Note_on_c, 1, 71, 127
1, 267120, Note_on_c, 1, 52, 127
1, 267149, Note_off_c, 1, 52, 0
1, 267150, Note_on_c, 1, 56, 127
1, 267179, Note_off_c, 1, 71, 0
1, 267179, Note_off_c, 1, 56, 0
1, 267180, Note_on_c, 1, 73, 127
1, 267180, Note_on_c, 1, 52, 127
1, 267209, Note_off_c, 1, 52, 0
1, 267210, Note_on_c, 1, 56, 127
1, 267239, Note_off_c, 1, 73, 0
1, 267239, Note_off_c, 1, 56, 0
1, 267240, Note_on_c, 1, 74, 127
1, 267240, Note_on_c, 1, 52, 127
1, 267269, Note_off_c, 1, 52, 0
1, 267270, Note_on_c, 1, 56, 127
1, 267299, Note_off_c, 1, 74, 0
1, 267299, Note_off_c, 1, 56, 0
1, 267300, Note_on_c, 1, 76, 127
1, 267300, Note_on_c, 1, 49, 127
1, 267329, Note_off_c, 1, 76, 0
1, 267330, Note_on_c, 1, 73, 127
1, 267359, Note_off_c, 1, 49, 0
1, 267359, Note_off_c, 1, 73, 0
1, 267360, Note_on_c, 1, 76, 127
1, 267360, Note_on_c, 1, 61, 127
1, 267389, Note_off_c, 1, 76, 0
1, 267390, Note_on_c, 1, 73, 127
1, 267419, Note_off_c, 1, 61, 0
1, 267419, Note_off_c, 1, 73, 0
1, 267420, Note_on_c, 1, 76, 127
1, 267420, Note_on_c, 1, 49, 127
1, 267449, Note_off_c, 1, 76, 0
1, 267450, Note_on_c, 1, 73, 127
1, 267479, Note_off_c, 1, 49, 0
1, 267479, Note_off_c, 1, 73, 0
1, 267480, Note_on_c, 1, 69, 127
1, 267480, Note_on_c, 1, 50, 127
1, 267509, Note_off_c, 1, 50, 0
1, 267510, Note_on_c, 1, 54, 127
1, 267539, Note_off_c, 1, 69, 0
1, 267539, Note_off_c, 1, 54, 0
1, 267540, Note_on_c, 1, 71, 127
1, 267540, Note_on_c, 1, 50, 127
1, 267569, Note_off_c, 1, 50, 0
1, 267570, Note_on_c, 1, 54, 127
1, 267599, Note_off_c, 1, 71, 0
1, 267599, Note_off_c, 1, 54, 0
1, 267600, Note_on_c, 1, 73, 127
1, 267600, Note_on_c, 1, 50, 127
1, 267629, Note_off_c, 1, 50, 0
1, 267630, Note_on_c, 1, 54, 127
1, 267659, Note_off_c, 1, 73, 0
1, 267659, Note_off_c, 1, 54, 0
1, 267660, Note_on_c, 1, 74, 127
1, 267660, Note_on_c, 1, 47, 127
1, 267689, Note_off_c, 1, 74, 0
1, 267690, Note_on_c, 1, 73, 127
1, 267719, Note_off_c, 1, 47, 0
1, 267719, Note_off_c, 1, 73, 0
1, 267720, Note_on_c, 1, 73, 127
1, 267720, Note_on_c, 1, 49, 127
1, 267749, Note_off_c, 1, 73, 0
1, 267750, Note_on_c, 1, 71, 127
1, 267779, Note_off_c, 1, 49, 0
1, 267779, Note_off_c, 1, 71, 0
1, 267780, Note_on_c, 1, 71, 127
1, 267780, Note_on_c, 1, 50, 127
1, 267809, Note_off_c, 1, 71, 0
1, 267810, Note_on_c, 1, 69, 127
1, 267839, Note_off_c, 1, 50, 0
1, 267839, Note_off_c, 1, 69, 0
1, 267840, Note_on_c, 1, 68, 127
1, 267840, Note_on_c, 1, 52, 127
1, 267869, Note_off_c, 1, 68, 0
1, 267870, Note_on_c, 1, 62, 127
1, 267899, Note_off_c, 1, 52, 0
1, 267899, Note_off_c, 1, 62, 0
1, 267900, Note_on_c, 1, 62, 127
1, 267900, Note_on_c, 1, 54, 127
1, 267929, Note_off_c, 1, 62, 0
1, 267930, Note_on_c, 1, 61, 127
1, 267959, Note_off_c, 1, 54, 0
1, 267959, Note_off_c, 1, 61, 0
1, 267960, Note_on_c, 1, 61, 127
1, 267960, Note_on_c, 1, 56, 127
1, 267989, Note_off_c, 1, 61, 0
1, 267990, Note_on_c, 1, 59, 127
1, 268019, Note_off_c, 1, 56, 0
1, 268019, Note_off_c, 1, 59, 0
1, 268020, Note_on_c, 1, 61, 127
1, 268020, Note_on_c, 1, 57, 127
1, 268049, Note_off_c, 1, 61, 0
1, 268050, Note_on_c, 1, 64, 127
1, 268079, Note_off_c, 1, 57, 0
1, 268079, Note_off_c, 1, 64, 0
1, 268080, Note_on_c, 1, 66, 127
1, 268080, Note_on_c, 1, 50, 127
1, 268109, Note_off_c, 1, 66, 0
1, 268110, Note_on_c, 1, 69, 127
1, 268139, Note_off_c, 1, 50, 0
1, 268139, Note_off_c, 1, 69, 0
1, 268140, Note_on_c, 1, 68, 127
1, 268140, Note_on_c, 1, 52, 127
1, 268169, Note_off_c, 1, 68, 0
1, 268170, Note_on_c, 1, 71, 127
1, 268199, Note_off_c, 1, 52, 0
1, 268199, Note_off_c, 1, 71, 0
1, 268200, Note_on_c, 1, 69, 127
1, 268200, Note_on_c, 1, 54, 127
1, 268229, Note_off_c, 1, 69, 0
1, 268230, Note_on_c, 1, 64, 127
1, 268259, Note_off_c, 1, 54, 0
1, 268259, Note_off_c, 1, 64, 0
1, 268260, Note_on_c, 1, 66, 127
1, 268260, Note_on_c, 1, 52, 127
1, 268289, Note_off_c, 1, 66, 0
1, 268290, Note_on_c, 1, 69, 127
1, 268319, Note_off_c, 1, 52, 0
1, 268319, Note_off_c, 1, 69, 0
1, 268320, Note_on_c, 1, 68, 127
1, 268320, Note_on_c, 1, 50, 127
1, 268349, Note_off_c, 1, 68, 0
1, 268350, Note_on_c, 1, 71, 127
1, 268379, Note_off_c, 1, 50, 0
1, 268379, Note_off_c, 1, 71, 0
1, 268380, Note_on_c, 1, 69, 127
1, 268380, Note_on_c, 1, 49, 127
1, 268409, Note_off_c, 1, 69, 0
1, 268410, Note_on_c, 1, 73, 127
1, 268439, Note_off_c, 1, 49, 0
1, 268439, Note_off_c, 1, 73, 0
1, 268440, Note_on_c, 1, 71, 127
1, 268440, Note_on_c, 1, 50, 127
1, 268469, Note_off_c, 1, 71, 0
1, 268470, Note_on_c, 1, 74, 127
1, 268499, Note_off_c, 1, 50, 0
1, 268499, Note_off_c, 1, 74, 0
1, 268500, Note_on_c, 1, 73, 127
1, 268500, Note_on_c, 1, 52, 127
1, 268529, Note_off_c, 1, 73, 0
1, 268530, Note_on_c, 1, 71, 127
1, 268559, Note_off_c, 1, 52, 0
1, 268559, Note_off_c, 1, 71, 0
1, 268560, Note_on_c, 1, 73, 127
1, 268560, Note_on_c, 1, 45, 127
1, 268589, Note_off_c, 1, 73, 0
1, 268590, Note_on_c, 1, 76, 127
1, 268619, Note_off_c, 1, 45, 0
1, 268619, Note_off_c, 1, 76, 0
1, 268620, Note_on_c, 1, 74, 127
1, 268620, Note_on_c, 1, 47, 127
1, 268649, Note_off_c, 1, 74, 0
1, 268650, Note_on_c, 1, 78, 127
1, 268679, Note_off_c, 1, 47, 0
1, 268679, Note_off_c, 1, 78, 0
1, 268680, Note_on_c, 1, 76, 127
1, 268680, Note_on_c, 1, 49, 127
1, 268739, Note_off_c, 1, 76, 0
1, 268739, Note_off_c, 1, 49, 0
1, 268740, Note_on_c, 1, 62, 127
1, 268740, Note_on_c, 1, 42, 127
1, 268769, Note_off_c, 1, 62, 0
1, 268770, Note_on_c, 1, 61, 127
1, 268799, Note_off_c, 1, 42, 0
1, 268799, Note_off_c, 1, 61, 0
1, 268800, Note_on_c, 1, 61, 127
1, 268800, Note_on_c, 1, 38, 127
1, 268829, Note_off_c, 1, 61, 0
1, 268830, Note_on_c, 1, 59, 127
1, 268859, Note_off_c, 1, 38, 0
1, 268859, Note_off_c, 1, 59, 0
1, 268860, Note_on_c, 1, 59, 127
1, 268860, Note_on_c, 1, 40, 127
1, 268889, Note_off_c, 1, 59, 0
1, 268890, Note_on_c, 1, 57, 127
1, 268919, Note_off_c, 1, 40, 0
1, 268919, Note_off_c, 1, 57, 0
1, 268920, Note_on_c, 1, 57, 127
1, 268920, Note_on_c, 1, 45, 127
1, 269100, Note_off_c, 1, 57, 0
1, 269100, Note_off_c, 1, 45, 0
1, 269280, Note_on_c, 1, 49, 127
1, 269280, Note_on_c, 1, 64, 127
1, 269280, Note_on_c, 1, 67, 127
1, 269340, Note_on_c, 1, 76, 127
1, 269460, Note_off_c, 1, 76, 0
1, 269460, Note_on_c, 1, 69, 127
1, 269520, Note_off_c, 1, 49, 0
1, 269520, Note_off_c, 1, 64, 0
1, 269520, Note_off_c, 1, 67, 0
1, 269520, Note_off_c, 1, 69, 0
1, 269520, Note_on_c, 1, 78, 127
1, 269520, Note_on_c, 1, 50, 127
1, 269520, Note_on_c, 1, 66, 127
1, 269520, Note_on_c, 1, 62, 127
1, 269520, Note_on_c, 1, 57, 127
1, 269580, Note_off_c, 1, 78, 0
1, 269640, Note_on_c, 1, 74, 127
1, 269700, Note_off_c, 1, 74, 0
1, 269700, Note_on_c, 1, 73, 127
1, 269760, Note_off_c, 1, 50, 0
1, 269760, Note_off_c, 1, 66, 0
1, 269760, Note_off_c, 1, 62, 0
1, 269760, Note_off_c, 1, 57, 0
1, 269760, Note_off_c, 1, 73, 0
1, 269760, Note_on_c, 1, 71, 127
1, 269820, Note_off_c, 1, 71, 0
1, 269880, Note_on_c, 1, 52, 127
1, 269880, Note_on_c, 1, 59, 127
1, 269880, Note_on_c, 1, 68, 127
1, 270000, Note_off_c, 1, 52, 0
1, 270000, Note_off_c, 1, 59, 0
1, 270000, Note_off_c, 1, 68, 0
1, 270000, Note_on_c, 1, 45, 127
1, 270000, Note_on_c, 1, 61, 127
1, 270300, Note_off_c, 1, 61, 0
1, 270360, Note_off_c, 1, 45, 0
1, 270360, Note_on_c, 1, 43, 127
1, 270600, Note_on_c, 1, 55, 127
1, 270660, Note_off_c, 1, 55, 0
1, 270660, Note_on_c, 1, 54, 127
1, 270720, Note_off_c, 1, 43, 0
1, 270720, Note_off_c, 1, 54, 0
1, 270720, Note_on_c, 1, 42, 127
1, 270960, Note_on_c, 1, 75, 127
1, 271080, Note_off_c, 1, 42, 0
1, 271080, Note_off_c, 1, 75, 0
1, 271080, Note_on_c, 1, 51, 127
1, 271200, Note_off_c, 1, 51, 0
1, 271440, Note_on_c, 1, 70, 127
1, 271560, Note_off_c, 1, 70, 0
1, 271680, Note_on_c, 1, 78, 127
1, 271920, Note_off_c, 1, 78, 0
1, 271920, Note_on_c, 1, 76, 127
1, 272040, Note_off_c, 1, 76, 0
1, 272040, Note_on_c, 1, 74, 127
1, 272160, Note_off_c, 1, 74, 0
1, 272160, Note_on_c, 1, 73, 127
1, 272160, Note_on_c, 1, 54, 127
1, 272279, Note_off_c, 1, 54, 0
1, 272280, Note_off_c, 1, 73, 0
1, 272280, Note_on_c, 1, 59, 127
1, 272399, Note_off_c, 1, 59, 0
1, 272400, Note_on_c, 1, 57, 127
1, 272519, Note_off_c, 1, 57, 0
1, 272520, Note_on_c, 1, 55, 127
1, 272639, Note_off_c, 1, 55, 0
1, 272760, Note_on_c, 1, 50, 127
1, 272879, Note_off_c, 1, 50, 0
1, 272880, Note_on_c, 1, 52, 127
1, 272999, Note_off_c, 1, 52, 0
1, 273240, Note_on_c, 1, 71, 127
1, 273480, Note_off_c, 1, 71, 0
1, 273720, Note_on_c, 1, 70, 127
1, 273960, Note_off_c, 1, 70, 0
1, 274080, Note_on_c, 1, 49, 127
1, 274139, Note_off_c, 1, 49, 0
1, 274440, Note_on_c, 1, 70, 127
1, 274440, Note_on_c, 1, 54, 127
1, 274559, Note_off_c, 1, 54, 0
1, 274560, Note_on_c, 1, 52, 127
1, 274619, Note_off_c, 1, 52, 0
1, 274679, Note_off_c, 1, 70, 0
1, 274680, Note_on_c, 1, 71, 127
1, 274680, Note_on_c, 1, 47, 127
1, 274799, Note_off_c, 1, 47, 0
1, 274800, Note_on_c, 1, 43, 127
1, 274919, Note_off_c, 1, 71, 0
1, 274919, Note_off_c, 1, 43, 0
1, 274920, Note_on_c, 1, 73, 127
1, 274920, Note_on_c, 1, 40, 127
1, 275039, Note_off_c, 1, 73, 0
1, 275039, Note_off_c, 1, 40, 0
1, 275040, Note_on_c, 1, 78, 127
1, 275040, Note_on_c, 1, 73, 127
1, 275040, Note_on_c, 1, 66, 127
1, 275040, Note_on_c, 1, 42, 127
1, 275159, Note_off_c, 1, 78, 0
1, 275159, Note_off_c, 1, 73, 0
1, 275159, Note_off_c, 1, 66, 0
1, 275159, Note_off_c, 1, 42, 0
1, 275160, Note_on_c, 1, 78, 127
1, 275160, Note_on_c, 1, 74, 127
1, 275160, Note_on_c, 1, 47, 127
1, 275279, Note_off_c, 1, 78, 0
1, 275279, Note_off_c, 1, 74, 0
1, 275279, Note_off_c, 1, 47, 0
1, 275280, Note_on_c, 1, 76, 127
1, 275280, Note_on_c, 1, 73, 127
1, 275399, Note_off_c, 1, 76, 0
1, 275399, Note_off_c, 1, 73, 0
1, 275400, Note_on_c, 1, 74, 127
1, 275400, Note_on_c, 1, 71, 127
1, 275519, Note_off_c, 1, 74, 0
1, 275519, Note_off_c, 1, 71, 0
1, 275520, Note_on_c, 1, 73, 127
1, 275520, Note_on_c, 1, 70, 127
1, 275520, Note_on_c, 1, 54, 127
1, 275639, Note_off_c, 1, 73, 0
1, 275639, Note_off_c, 1, 70, 0
1, 275639, Note_off_c, 1, 54, 0
1, 275640, Note_on_c, 1, 74, 127
1, 275640, Note_on_c, 1, 71, 127
1, 275640, Note_on_c, 1, 59, 127
1, 275759, Note_off_c, 1, 59, 0
1, 275760, Note_on_c, 1, 57, 127
1, 275819, Note_off_c, 1, 57, 0
1, 275879, Note_off_c, 1, 74, 0
1, 275879, Note_off_c, 1, 71, 0
1, 275880, Note_on_c, 1, 76, 127
1, 275880, Note_on_c, 1, 56, 127
1, 275999, Note_off_c, 1, 56, 0
1, 276000, Note_on_c, 1, 74, 127
1, 276000, Note_on_c, 1, 71, 127
1, 276000, Note_on_c, 1, 54, 127
1, 276059, Note_off_c, 1, 54, 0
1, 276119, Note_off_c, 1, 76, 0
1, 276119, Note_off_c, 1, 74, 0
1, 276119, Note_off_c, 1, 71, 0
1, 276120, Note_on_c, 1, 78, 127
1, 276120, Note_on_c, 1, 73, 127
1, 276120, Note_on_c, 1, 58, 127
1, 276239, Note_off_c, 1, 78, 0
1, 276239, Note_off_c, 1, 73, 0
1, 276239, Note_off_c, 1, 58, 0
1, 276240, Note_on_c, 1, 76, 127
1, 276240, Note_on_c, 1, 71, 127
1, 276240, Note_on_c, 1, 66, 127
1, 276240, Note_on_c, 1, 56, 127
1, 276299, Note_off_c, 1, 71, 0
1, 276299, Note_off_c, 1, 56, 0
1, 276300, Note_on_c, 1, 73, 127
1, 276300, Note_on_c, 1, 58, 127
1, 276359, Note_off_c, 1, 76, 0
1, 276359, Note_off_c, 1, 66, 0
1, 276359, Note_off_c, 1, 73, 0
1, 276359, Note_off_c, 1, 58, 0
1, 276360, Note_on_c, 1, 74, 127
1, 276360, Note_on_c, 1, 66, 127
1, 276360, Note_on_c, 1, 78, 127
1, 276360, Note_on_c, 1, 59, 127
1, 276479, Note_off_c, 1, 74, 0
1, 276479, Note_off_c, 1, 66, 0
1, 276479, Note_off_c, 1, 78, 0
1, 276479, Note_off_c, 1, 59, 0
1, 276480, Note_on_c, 1, 73, 127
1, 276480, Note_on_c, 1, 70, 127
1, 276480, Note_on_c, 1, 76, 127
1, 276480, Note_on_c, 1, 54, 127
1, 276599, Note_off_c, 1, 73, 0
1, 276599, Note_off_c, 1, 70, 0
1, 276599, Note_off_c, 1, 76, 0
1, 276599, Note_off_c, 1, 54, 0
1, 276600, Note_on_c, 1, 71, 127
1, 276600, Note_on_c, 1, 74, 127
1, 276600, Note_on_c, 1, 55, 127
1, 276719, Note_off_c, 1, 74, 0
1, 276719, Note_off_c, 1, 55, 0
1, 276720, Note_on_c, 1, 62, 127
1, 276720, Note_on_c, 1, 54, 127
1, 276779, Note_off_c, 1, 54, 0
1, 276839, Note_off_c, 1, 71, 0
1, 276839, Note_off_c, 1, 62, 0
1, 276840, Note_on_c, 1, 73, 127
1, 276840, Note_on_c, 1, 67, 127
1, 276840, Note_on_c, 1, 52, 127
1, 276959, Note_off_c, 1, 67, 0
1, 276959, Note_off_c, 1, 52, 0
1, 276960, Note_on_c, 1, 64, 127
1, 276960, Note_on_c, 1, 79, 127
1, 276960, Note_on_c, 1, 50, 127
1, 277019, Note_off_c, 1, 50, 0
1, 277079, Note_off_c, 1, 73, 0
1, 277079, Note_off_c, 1, 64, 0
1, 277079, Note_off_c, 1, 79, 0
1, 277080, Note_on_c, 1, 70, 127
1, 277080, Note_on_c, 1, 61, 127
1, 277080, Note_on_c, 1, 78, 127
1, 277080, Note_on_c, 1, 54, 127
1, 277199, Note_off_c, 1, 78, 0
1, 277199, Note_off_c, 1, 54, 0
1, 277200, Note_on_c, 1, 76, 127
1, 277200, Note_on_c, 1, 42, 127
1, 277319, Note_off_c, 1, 70, 0
1, 277319, Note_off_c, 1, 61, 0
1, 277319, Note_off_c, 1, 76, 0
1, 277319, Note_off_c, 1, 42, 0
1, 277320, Note_on_c, 1, 71, 127
1, 277320, Note_on_c, 1, 59, 127
1, 277320, Note_on_c, 1, 74, 127
1, 277320, Note_on_c, 1, 43, 127
1, 277439, Note_off_c, 1, 74, 0
1, 277439, Note_off_c, 1, 43, 0
1, 277440, Note_on_c, 1, 42, 127
1, 277499, Note_off_c, 1, 42, 0
1, 277559, Note_off_c, 1, 71, 0
1, 277559, Note_off_c, 1, 59, 0
1, 277560, Note_on_c, 1, 73, 127
1, 277560, Note_on_c, 1, 61, 127
1, 277560, Note_on_c, 1, 70, 127
1, 277560, Note_on_c, 1, 40, 127
1, 277679, Note_off_c, 1, 70, 0
1, 277679, Note_off_c, 1, 40, 0
1, 277680, Note_on_c, 1, 76, 127
1, 277680, Note_on_c, 1, 38, 127
1, 277739, Note_off_c, 1, 38, 0
1, 277799, Note_off_c, 1, 73, 0
1, 277799, Note_off_c, 1, 61, 0
1, 277799, Note_off_c, 1, 76, 0
1, 277800, Note_on_c, 1, 70, 127
1, 277800, Note_on_c, 1, 58, 127
1, 277800, Note_on_c, 1, 73, 127
1, 277800, Note_on_c, 1, 42, 127
1, 277919, Note_off_c, 1, 42, 0
1, 277920, Note_on_c, 1, 40, 127
1, 277979, Note_off_c, 1, 40, 0
1, 278039, Note_off_c, 1, 70, 0
1, 278039, Note_off_c, 1, 58, 0
1, 278039, Note_off_c, 1, 73, 0
1, 278040, Note_on_c, 1, 71, 127
1, 278040, Note_on_c, 1, 59, 127
1, 278040, Note_on_c, 1, 47, 127
1, 278159, Note_off_c, 1, 47, 0
1, 278280, Note_on_c, 1, 50, 127
1, 278399, Note_off_c, 1, 71, 0
1, 278399, Note_off_c, 1, 59, 0
1, 278399, Note_off_c, 1, 50, 0
1, 278400, Note_on_c, 1, 73, 127
1, 278400, Note_on_c, 1, 54, 127
1, 278519, Note_off_c, 1, 73, 0
1, 278519, Note_off_c, 1, 54, 0
1, 278520, Note_on_c, 1, 74, 127
1, 278520, Note_on_c, 1, 47, 127
1, 278639, Note_off_c, 1, 74, 0
1, 278640, Note_on_c, 1, 73, 127
1, 278759, Note_off_c, 1, 47, 0
1, 278759, Note_off_c, 1, 73, 0
1, 278760, Note_on_c, 1, 74, 127
1, 278879, Note_off_c, 1, 74, 0
1, 278880, Note_on_c, 1, 76, 127
1, 278880, Note_on_c, 1, 45, 127
1, 278999, Note_off_c, 1, 76, 0
1, 278999, Note_off_c, 1, 45, 0
1, 279000, Note_on_c, 1, 78, 127
1, 279000, Note_on_c, 1, 50, 127
1, 279119, Note_off_c, 1, 50, 0
1, 279120, Note_on_c, 1, 49, 127
1, 279239, Note_off_c, 1, 78, 0
1, 279239, Note_off_c, 1, 49, 0
1, 279240, Note_on_c, 1, 74, 127
1, 279240, Note_on_c, 1, 50, 127
1, 279359, Note_off_c, 1, 74, 0
1, 279359, Note_off_c, 1, 50, 0
1, 279360, Note_on_c, 1, 81, 127
1, 279360, Note_on_c, 1, 52, 127
1, 279479, Note_off_c, 1, 81, 0
1, 279479, Note_off_c, 1, 52, 0
1, 279480, Note_on_c, 1, 81, 127
1, 279480, Note_on_c, 1, 54, 127
1, 279599, Note_off_c, 1, 81, 0
1, 279599, Note_off_c, 1, 54, 0
1, 279600, Note_on_c, 1, 79, 127
1, 279600, Note_on_c, 1, 55, 127
1, 279719, Note_off_c, 1, 79, 0
1, 279719, Note_off_c, 1, 55, 0
1, 279720, Note_on_c, 1, 78, 127
1, 279720, Note_on_c, 1, 57, 127
1, 279839, Note_off_c, 1, 78, 0
1, 279839, Note_off_c, 1, 57, 0
1, 279840, Note_on_c, 1, 76, 127
1, 279840, Note_on_c, 1, 55, 127
1, 279959, Note_off_c, 1, 76, 0
1, 279959, Note_off_c, 1, 55, 0
1, 279960, Note_on_c, 1, 74, 127
1, 279960, Note_on_c, 1, 54, 127
1, 280079, Note_off_c, 1, 54, 0
1, 280080, Note_on_c, 1, 59, 127
1, 280199, Note_off_c, 1, 74, 0
1, 280199, Note_off_c, 1, 59, 0
1, 280200, Note_on_c, 1, 76, 127
1, 280200, Note_on_c, 1, 55, 127
1, 280319, Note_off_c, 1, 55, 0
1, 280320, Note_on_c, 1, 57, 127
1, 280439, Note_off_c, 1, 76, 0
1, 280439, Note_off_c, 1, 57, 0
1, 280440, Note_on_c, 1, 78, 127
1, 280440, Note_on_c, 1, 50, 127
1, 280559, Note_off_c, 1, 78, 0
1, 280559, Note_off_c, 1, 50, 0
1, 280560, Note_on_c, 1, 76, 127
1, 280560, Note_on_c, 1, 52, 127
1, 280679, Note_off_c, 1, 76, 0
1, 280679, Note_off_c, 1, 52, 0
1, 280680, Note_on_c, 1, 74, 127
1, 280680, Note_on_c, 1, 54, 127
1, 280799, Note_off_c, 1, 74, 0
1, 280799, Note_off_c, 1, 54, 0
1, 280800, Note_on_c, 1, 73, 127
1, 280800, Note_on_c, 1, 52, 127
1, 280859, Note_off_c, 1, 52, 0
1, 280860, Note_on_c, 1, 54, 127
1, 280919, Note_off_c, 1, 73, 0
1, 280919, Note_off_c, 1, 54, 0
1, 280920, Note_on_c, 1, 71, 127
1, 280920, Note_on_c, 1, 55, 127
1, 281039, Note_off_c, 1, 55, 0
1, 281040, Note_on_c, 1, 54, 127
1, 281099, Note_off_c, 1, 54, 0
1, 281159, Note_off_c, 1, 71, 0
1, 281160, Note_on_c, 1, 73, 127
1, 281160, Note_on_c, 1, 52, 127
1, 281279, Note_off_c, 1, 52, 0
1, 281280, Note_on_c, 1, 50, 127
1, 281339, Note_off_c, 1, 50, 0
1, 281399, Note_off_c, 1, 73, 0
1, 281400, Note_on_c, 1, 70, 127
1, 281400, Note_on_c, 1, 54, 127
1, 281519, Note_off_c, 1, 54, 0
1, 281520, Note_on_c, 1, 52, 127
1, 281579, Note_off_c, 1, 52, 0
1, 281639, Note_off_c, 1, 70, 0
1, 281640, Note_on_c, 1, 71, 127
1, 281640, Note_on_c, 1, 50, 127
1, 281759, Note_off_c, 1, 50, 0
1, 281760, Note_on_c, 1, 49, 127
1, 281819, Note_off_c, 1, 49, 0
1, 281879, Note_off_c, 1, 71, 0
1, 281880, Note_on_c, 1, 73, 127
1, 281880, Note_on_c, 1, 52, 127
1, 281999, Note_off_c, 1, 52, 0
1, 282000, Note_on_c, 1, 50, 127
1, 282059, Note_off_c, 1, 50, 0
1, 282119, Note_off_c, 1, 73, 0
1, 282120, Note_on_c, 1, 70, 127
1, 282120, Note_on_c, 1, 54, 127
1, 282239, Note_off_c, 1, 54, 0
1, 282240, Note_on_c, 1, 52, 127
1, 282299, Note_off_c, 1, 52, 0
1, 282359, Note_off_c, 1, 70, 0
1, 282360, Note_on_c, 1, 71, 127
1, 282360, Note_on_c, 1, 47, 127
1, 282479, Note_off_c, 1, 71, 0
1, 282479, Note_off_c, 1, 47, 0
1, 282480, Note_on_c, 1, 71, 127
1, 282480, Note_on_c, 1, 43, 127
1, 282539, Note_off_c, 1, 71, 0
1, 282540, Note_on_c, 1, 74, 127
1, 282599, Note_off_c, 1, 43, 0
1, 282599, Note_off_c, 1, 74, 0
1, 282600, Note_on_c, 1, 73, 127
1, 282600, Note_on_c, 1, 40, 127
1, 282719, Note_off_c, 1, 73, 0
1, 282719, Note_off_c, 1, 40, 0
1, 282720, Note_on_c, 1, 73, 127
1, 282720, Note_on_c, 1, 70, 127
1, 282720, Note_on_c, 1, 66, 127
1, 282720, Note_on_c, 1, 42, 127
1, 282839, Note_off_c, 1, 73, 0
1, 282839, Note_off_c, 1, 70, 0
1, 282839, Note_off_c, 1, 66, 0
1, 282839, Note_off_c, 1, 42, 0
1, 282840, Note_on_c, 1, 74, 127
1, 282840, Note_on_c, 1, 71, 127
1, 282840, Note_on_c, 1, 47, 127
1, 282959, Note_off_c, 1, 74, 0
1, 282959, Note_off_c, 1, 71, 0
1, 282960, Note_on_c, 1, 73, 127
1, 282960, Note_on_c, 1, 70, 127
1, 283079, Note_off_c, 1, 47, 0
1, 283079, Note_off_c, 1, 73, 0
1, 283079, Note_off_c, 1, 70, 0
1, 283080, Note_on_c, 1, 74, 127
1, 283080, Note_on_c, 1, 71, 127
1, 283199, Note_off_c, 1, 74, 0
1, 283199, Note_off_c, 1, 71, 0
1, 283200, Note_on_c, 1, 76, 127
1, 283200, Note_on_c, 1, 73, 127
1, 283200, Note_on_c, 1, 45, 127
1, 283319, Note_off_c, 1, 76, 0
1, 283319, Note_off_c, 1, 73, 0
1, 283319, Note_off_c, 1, 45, 0
1, 283320, Note_on_c, 1, 78, 127
1, 283320, Note_on_c, 1, 74, 127
1, 283320, Note_on_c, 1, 50, 127
1, 283439, Note_off_c, 1, 50, 0
1, 283440, Note_on_c, 1, 69, 127
1, 283440, Note_on_c, 1, 49, 127
1, 283559, Note_off_c, 1, 78, 0
1, 283559, Note_off_c, 1, 74, 0
1, 283559, Note_off_c, 1, 69, 0
1, 283559, Note_off_c, 1, 49, 0
1, 283560, Note_on_c, 1, 74, 127
1, 283560, Note_on_c, 1, 69, 127
1, 283560, Note_on_c, 1, 78, 127
1, 283560, Note_on_c, 1, 50, 127
1, 283679, Note_off_c, 1, 74, 0
1, 283679, Note_off_c, 1, 69, 0
1, 283679, Note_off_c, 1, 78, 0
1, 283679, Note_off_c, 1, 50, 0
1, 283680, Note_on_c, 1, 81, 127
1, 283680, Note_on_c, 1, 67, 127
1, 283680, Note_on_c, 1, 74, 127
1, 283680, Note_on_c, 1, 52, 127
1, 283799, Note_off_c, 1, 81, 0
1, 283799, Note_off_c, 1, 67, 0
1, 283799, Note_off_c, 1, 74, 0
1, 283799, Note_off_c, 1, 52, 0
1, 283800, Note_on_c, 1, 81, 127
1, 283800, Note_on_c, 1, 66, 127
1, 283800, Note_on_c, 1, 54, 127
1, 283919, Note_off_c, 1, 81, 0
1, 283919, Note_off_c, 1, 66, 0
1, 283919, Note_off_c, 1, 54, 0
1, 283920, Note_on_c, 1, 79, 127
1, 283920, Note_on_c, 1, 64, 127
1, 283920, Note_on_c, 1, 55, 127
1, 284039, Note_off_c, 1, 79, 0
1, 284039, Note_off_c, 1, 64, 0
1, 284039, Note_off_c, 1, 55, 0
1, 284040, Note_on_c, 1, 78, 127
1, 284040, Note_on_c, 1, 62, 127
1, 284040, Note_on_c, 1, 57, 127
1, 284159, Note_off_c, 1, 78, 0
1, 284159, Note_off_c, 1, 62, 0
1, 284159, Note_off_c, 1, 57, 0
1, 284160, Note_on_c, 1, 76, 127
1, 284160, Note_on_c, 1, 61, 127
1, 284160, Note_on_c, 1, 55, 127
1, 284279, Note_off_c, 1, 76, 0
1, 284279, Note_off_c, 1, 61, 0
1, 284279, Note_off_c, 1, 55, 0
1, 284280, Note_on_c, 1, 74, 127
1, 284280, Note_on_c, 1, 69, 127
1, 284280, Note_on_c, 1, 54, 127
1, 284399, Note_off_c, 1, 69, 0
1, 284399, Note_off_c, 1, 54, 0
1, 284400, Note_on_c, 1, 67, 127
1, 284400, Note_on_c, 1, 59, 127
1, 284459, Note_off_c, 1, 67, 0
1, 284460, Note_on_c, 1, 66, 127
1, 284519, Note_off_c, 1, 74, 0
1, 284519, Note_off_c, 1, 59, 0
1, 284519, Note_off_c, 1, 66, 0
1, 284520, Note_on_c, 1, 76, 127
1, 284520, Note_on_c, 1, 71, 127
1, 284520, Note_on_c, 1, 74, 127
1, 284520, Note_on_c, 1, 55, 127
1, 284639, Note_off_c, 1, 71, 0
1, 284639, Note_off_c, 1, 74, 0
1, 284639, Note_off_c, 1, 55, 0
1, 284640, Note_on_c, 1, 69, 127
1, 284640, Note_on_c, 1, 73, 127
1, 284640, Note_on_c, 1, 57, 127
1, 284759, Note_off_c, 1, 76, 0
1, 284759, Note_off_c, 1, 69, 0
1, 284759, Note_off_c, 1, 73, 0
1, 284759, Note_off_c, 1, 57, 0
1, 284760, Note_on_c, 1, 78, 127
1, 284760, Note_on_c, 1, 69, 127
1, 284760, Note_on_c, 1, 74, 127
1, 284760, Note_on_c, 1, 50, 127
1, 284879, Note_off_c, 1, 78, 0
1, 284879, Note_off_c, 1, 69, 0
1, 284879, Note_off_c, 1, 74, 0
1, 284879, Note_off_c, 1, 50, 0
1, 284880, Note_on_c, 1, 76, 127
1, 284880, Note_on_c, 1, 57, 127
1, 284880, Note_on_c, 1, 49, 127
1, 284999, Note_off_c, 1, 76, 0
1, 284999, Note_off_c, 1, 57, 0
1, 284999, Note_off_c, 1, 49, 0
1, 285000, Note_on_c, 1, 74, 127
1, 285000, Note_on_c, 1, 62, 127
1, 285000, Note_on_c, 1, 78, 127
1, 285000, Note_on_c, 1, 47, 127
1, 285119, Note_off_c, 1, 74, 0
1, 285119, Note_off_c, 1, 62, 0
1, 285119, Note_off_c, 1, 47, 0
1, 285120, Note_on_c, 1, 73, 127
1, 285120, Note_on_c, 1, 66, 127
1, 285120, Note_on_c, 1, 45, 127
1, 285239, Note_off_c, 1, 78, 0
1, 285239, Note_off_c, 1, 73, 0
1, 285239, Note_off_c, 1, 45, 0
1, 285240, Note_on_c, 1, 71, 127
1, 285240, Note_on_c, 1, 43, 127
1, 285359, Note_off_c, 1, 66, 0
1, 285359, Note_off_c, 1, 43, 0
1, 285360, Note_on_c, 1, 64, 127
1, 285360, Note_on_c, 1, 76, 127
1, 285360, Note_on_c, 1, 55, 127
1, 285419, Note_off_c, 1, 64, 0
1, 285419, Note_off_c, 1, 55, 0
1, 285420, Note_on_c, 1, 54, 127
1, 285479, Note_off_c, 1, 71, 0
1, 285479, Note_off_c, 1, 76, 0
1, 285479, Note_off_c, 1, 54, 0
1, 285480, Note_on_c, 1, 73, 127
1, 285480, Note_on_c, 1, 67, 127
1, 285480, Note_on_c, 1, 76, 127
1, 285480, Note_on_c, 1, 52, 127
1, 285539, Note_off_c, 1, 76, 0
1, 285540, Note_on_c, 1, 74, 127
1, 285599, Note_off_c, 1, 67, 0
1, 285599, Note_off_c, 1, 52, 0
1, 285599, Note_off_c, 1, 74, 0
1, 285600, Note_on_c, 1, 64, 127
1, 285600, Note_on_c, 1, 55, 127
1, 285659, Note_off_c, 1, 64, 0
1, 285660, Note_on_c, 1, 66, 127
1, 285719, Note_off_c, 1, 73, 0
1, 285719, Note_off_c, 1, 55, 0
1, 285719, Note_off_c, 1, 66, 0
1, 285720, Note_on_c, 1, 70, 127
1, 285720, Note_on_c, 1, 67, 127
1, 285720, Note_on_c, 1, 76, 127
1, 285720, Note_on_c, 1, 49, 127
1, 285839, Note_off_c, 1, 67, 0
1, 285839, Note_off_c, 1, 76, 0
1, 285839, Note_off_c, 1, 49, 0
1, 285840, Note_on_c, 1, 66, 127
1, 285840, Note_on_c, 1, 78, 127
1, 285840, Note_on_c, 1, 54, 127
1, 285899, Note_off_c, 1, 66, 0
1, 285900, Note_on_c, 1, 64, 127
1, 285959, Note_off_c, 1, 70, 0
1, 285959, Note_off_c, 1, 78, 0
1, 285959, Note_off_c, 1, 64, 0
1, 285960, Note_on_c, 1, 71, 127
1, 285960, Note_on_c, 1, 62, 127
1, 285960, Note_on_c, 1, 79, 127
1, 286079, Note_off_c, 1, 54, 0
1, 286079, Note_off_c, 1, 62, 0
1, 286080, Note_on_c, 1, 61, 127
1, 286080, Note_on_c, 1, 52, 127
1, 286139, Note_off_c, 1, 61, 0
1, 286139, Note_off_c, 1, 52, 0
1, 286140, Note_on_c, 1, 59, 127
1, 286140, Note_on_c, 1, 50, 127
1, 286199, Note_off_c, 1, 71, 0
1, 286199, Note_off_c, 1, 79, 0
1, 286199, Note_off_c, 1, 59, 0
1, 286199, Note_off_c, 1, 50, 0
1, 286200, Note_on_c, 1, 73, 127
1, 286200, Note_on_c, 1, 61, 127
1, 286200, Note_on_c, 1, 52, 127
1, 286319, Note_off_c, 1, 52, 0
1, 286320, Note_on_c, 1, 76, 127
1, 286320, Note_on_c, 1, 49, 127
1, 286439, Note_off_c, 1, 73, 0
1, 286439, Note_off_c, 1, 61, 0
1, 286439, Note_off_c, 1, 76, 0
1, 286439, Note_off_c, 1, 49, 0
1, 286440, Note_on_c, 1, 70, 127
1, 286440, Note_on_c, 1, 58, 127
1, 286440, Note_on_c, 1, 73, 127
1, 286440, Note_on_c, 1, 54, 127
1, 286559, Note_off_c, 1, 54, 0
1, 286560, Note_on_c, 1, 42, 127
1, 286679, Note_off_c, 1, 70, 0
1, 286679, Note_off_c, 1, 58, 0
1, 286679, Note_off_c, 1, 73, 0
1, 286679, Note_off_c, 1, 42, 0
1, 286680, Note_on_c, 1, 71, 127
1, 286680, Note_on_c, 1, 59, 127
1, 286680, Note_on_c, 1, 47, 127
1, 287039, Note_off_c, 1, 71, 0
1, 287039, Note_off_c, 1, 59, 0
1, 287039, Note_off_c, 1, 47, 0
1, 287160, Note_on_c, 1, 42, 127
1, 287160, Note_on_c, 1, 62, 127
1, 287160, Note_on_c, 1, 69, 127
1, 287160, Note_on_c, 1, 54, 127
1, 287220, Note_on_c, 1, 57, 127
1, 287280, Note_off_c, 1, 57, 0
1, 287460, Note_on_c, 1, 50, 127
1, 287520, Note_off_c, 1, 50, 0
1, 287820, Note_on_c, 1, 71, 127
1, 287880, Note_off_c, 1, 71, 0
1, 287880, Note_on_c, 1, 72, 127
1, 288000, Note_off_c, 1, 72, 0
1, 288060, Note_on_c, 1, 74, 127
1, 288120, Note_off_c, 1, 42, 0
1, 288120, Note_off_c, 1, 62, 0
1, 288120, Note_off_c, 1, 54, 0
1, 288120, Note_off_c, 1, 74, 0
1, 288120, Note_on_c, 1, 51, 127
1, 288120, Note_on_c, 1, 66, 127
1, 288360, Note_off_c, 1, 69, 0
1, 288360, Note_off_c, 1, 51, 0
1, 288360, Note_off_c, 1, 66, 0
1, 288480, Note_on_c, 1, 67, 127
1, 288540, Note_off_c, 1, 67, 0
1, 288540, Note_on_c, 1, 47, 127
1, 288540, Note_on_c, 1, 63, 127
1, 288600, Note_off_c, 1, 47, 0
1, 288600, Note_off_c, 1, 63, 0
1, 288600, Note_on_c, 1, 52, 127
1, 288600, Note_on_c, 1, 64, 127
1, 288660, Note_off_c, 1, 52, 0
1, 288660, Note_off_c, 1, 64, 0
1, 288720, Note_on_c, 1, 55, 127
1, 288780, Note_off_c, 1, 55, 0
1, 288840, Note_on_c, 1, 59, 127
1, 288900, Note_off_c, 1, 59, 0
1, 288900, Note_on_c, 1, 76, 127
1, 288960, Note_off_c, 1, 76, 0
1, 288960, Note_on_c, 1, 77, 127
1, 288960, Note_on_c, 1, 65, 127
1, 289020, Note_off_c, 1, 77, 0
1, 289020, Note_off_c, 1, 65, 0
1, 289080, Note_on_c, 1, 60, 127
1, 289140, Note_off_c, 1, 60, 0
1, 289140, Note_on_c, 1, 53, 127
1, 289200, Note_off_c, 1, 53, 0
1, 289320, Note_on_c, 1, 48, 127
1, 289800, Note_off_c, 1, 48, 0
1, 289800, Note_on_c, 1, 49, 127
1, 290400, Note_on_c, 1, 58, 127
1, 290460, Note_off_c, 1, 58, 0
1, 290520, Note_off_c, 1, 49, 0
1, 290640, Note_on_c, 1, 61, 127
1, 290640, Note_on_c, 1, 46, 127
1, 290730, Note_off_c, 1, 61, 0
1, 290760, Note_off_c, 1, 46, 0
1, 290880, Note_on_c, 1, 45, 127
1, 290880, Note_on_c, 1, 73, 127
1, 291000, Note_off_c, 1, 45, 0
1, 291000, Note_off_c, 1, 73, 0
1, 291600, Note_on_c, 1, 65, 127
1, 291600, Note_on_c, 1, 60, 127
1, 291600, Note_on_c, 1, 53, 127
1, 291659, Note_off_c, 1, 53, 0
1, 291660, Note_off_c, 1, 65, 0
1, 291660, Note_on_c, 1, 67, 127
1, 291660, Note_on_c, 1, 52, 127
1, 291719, Note_off_c, 1, 60, 0
1, 291719, Note_off_c, 1, 52, 0
1, 291720, Note_off_c, 1, 67, 0
1, 291720, Note_on_c, 1, 69, 127
1, 291840, Note_off_c, 1, 69, 0
1, 291840, Note_on_c, 1, 64, 127
1, 291840, Note_on_c, 1, 55, 127
1, 291959, Note_off_c, 1, 55, 0
1, 291960, Note_off_c, 1, 64, 0
1, 291960, Note_on_c, 1, 72, 127
1, 291960, Note_on_c, 1, 57, 127
1, 292079, Note_off_c, 1, 57, 0
1, 292080, Note_off_c, 1, 72, 0
1, 292080, Note_on_c, 1, 74, 127
1, 292080, Note_on_c, 1, 58, 127
1, 292080, Note_on_c, 1, 70, 127
1, 292140, Note_on_c, 1, 76, 127
1, 292199, Note_off_c, 1, 58, 0
1, 292199, Note_off_c, 1, 70, 0
1, 292199, Note_off_c, 1, 76, 0
1, 292200, Note_off_c, 1, 74, 0
1, 292200, Note_on_c, 1, 77, 127
1, 292319, Note_off_c, 1, 77, 0
1, 292440, Note_on_c, 1, 72, 127
1, 292440, Note_on_c, 1, 65, 127
1, 292440, Note_on_c, 1, 57, 127
1, 292440, Note_on_c, 1, 69, 127
1, 292500, Note_on_c, 1, 55, 127
1, 292559, Note_off_c, 1, 65, 0
1, 292559, Note_off_c, 1, 57, 0
1, 292559, Note_off_c, 1, 55, 0
1, 292560, Note_off_c, 1, 72, 0
1, 292560, Note_on_c, 1, 77, 127
1, 292560, Note_on_c, 1, 53, 127
1, 292679, Note_off_c, 1, 53, 0
1, 292680, Note_off_c, 1, 69, 0
1, 292680, Note_off_c, 1, 77, 0
1, 292680, Note_on_c, 1, 74, 127
1, 292680, Note_on_c, 1, 58, 127
1, 292680, Note_on_c, 1, 70, 127
1, 292740, Note_on_c, 1, 76, 127
1, 292740, Note_on_c, 1, 60, 127
1, 292799, Note_off_c, 1, 58, 0
1, 292799, Note_off_c, 1, 76, 0
1, 292799, Note_off_c, 1, 60, 0
1, 292800, Note_off_c, 1, 74, 0
1, 292800, Note_off_c, 1, 70, 0
1, 292920, Note_on_c, 1, 64, 127
1, 292920, Note_on_c, 1, 67, 127
1, 293039, Note_off_c, 1, 64, 0
1, 293040, Note_off_c, 1, 67, 0
1, 293160, Note_on_c, 1, 52, 127
1, 293220, Note_on_c, 1, 50, 127
1, 293279, Note_off_c, 1, 52, 0
1, 293279, Note_off_c, 1, 50, 0
1, 293280, Note_on_c, 1, 64, 127
1, 293280, Note_on_c, 1, 55, 127
1, 293280, Note_on_c, 1, 48, 127
1, 293280, Note_on_c, 1, 67, 127
1, 293339, Note_off_c, 1, 48, 0
1, 293340, Note_on_c, 1, 62, 127
1, 293340, Note_on_c, 1, 47, 127
1, 293399, Note_off_c, 1, 64, 0
1, 293399, Note_off_c, 1, 55, 0
1, 293399, Note_off_c, 1, 67, 0
1, 293399, Note_off_c, 1, 62, 0
1, 293399, Note_off_c, 1, 47, 0
1, 293400, Note_on_c, 1, 60, 127
1, 293400, Note_on_c, 1, 55, 127
1, 293400, Note_on_c, 1, 48, 127
1, 293400, Note_on_c, 1, 52, 127
1, 293400, Note_on_c, 1, 64, 127
1, 293519, Note_off_c, 1, 55, 0
1, 293519, Note_off_c, 1, 48, 0
1, 293519, Note_off_c, 1, 52, 0
1, 293519, Note_off_c, 1, 64, 0
1, 293520, Note_on_c, 1, 67, 127
1, 293639, Note_off_c, 1, 60, 0
1, 293640, Note_off_c, 1, 67, 0
1, 293640, Note_on_c, 1, 69, 127
1, 293640, Note_on_c, 1, 53, 127
1, 293640, Note_on_c, 1, 65, 127
1, 293700, Note_on_c, 1, 70, 127
1, 293759, Note_off_c, 1, 69, 0
1, 293759, Note_off_c, 1, 53, 0
1, 293759, Note_off_c, 1, 65, 0
1, 293759, Note_off_c, 1, 70, 0
1, 293760, Note_on_c, 1, 72, 127
1, 293760, Note_on_c, 1, 65, 127
1, 293760, Note_on_c, 1, 57, 127
1, 293760, Note_on_c, 1, 45, 127
1, 293760, Note_on_c, 1, 60, 127
1, 293819, Note_off_c, 1, 72, 0
1, 293819, Note_off_c, 1, 57, 0
1, 293819, Note_off_c, 1, 45, 0
1, 293819, Note_off_c, 1, 60, 0
1, 293820, Note_on_c, 1, 74, 127
1, 293820, Note_on_c, 1, 58, 127
1, 293820, Note_on_c, 1, 46, 127
1, 293820, Note_on_c, 1, 62, 127
1, 293820, Note_on_c, 1, 70, 127
1, 293879, Note_off_c, 1, 65, 0
1, 293879, Note_off_c, 1, 74, 0
1, 293879, Note_off_c, 1, 58, 0
1, 293879, Note_off_c, 1, 46, 0
1, 293879, Note_off_c, 1, 62, 0
1, 293879, Note_off_c, 1, 70, 0
1, 293880, Note_on_c, 1, 67, 127
1, 293880, Note_on_c, 1, 65, 127
1, 293880, Note_on_c, 1, 60, 127
1, 293880, Note_on_c, 1, 48, 127
1, 293880, Note_on_c, 1, 64, 127
1, 293880, Note_on_c, 1, 72, 127
1, 293999, Note_off_c, 1, 65, 0
1, 293999, Note_off_c, 1, 60, 0
1, 293999, Note_off_c, 1, 48, 0
1, 293999, Note_off_c, 1, 64, 0
1, 293999, Note_off_c, 1, 72, 0
1, 294000, Note_on_c, 1, 36, 127
1, 294000, Note_on_c, 1, 70, 127
1, 294119, Note_off_c, 1, 67, 0
1, 294119, Note_off_c, 1, 36, 0
1, 294119, Note_off_c, 1, 70, 0
1, 294120, Note_on_c, 1, 57, 127
1, 294120, Note_on_c, 1, 53, 127
1, 294120, Note_on_c, 1, 41, 127
1, 294120, Note_on_c, 1, 69, 127
1, 294479, Note_off_c, 1, 57, 0
1, 294479, Note_off_c, 1, 53, 0
1, 294479, Note_off_c, 1, 41, 0
1, 294479, Note_off_c, 1, 69, 0
1, 294540, Note_on_c, 1, 52, 127
1, 294599, Note_off_c, 1, 52, 0
1, 294720, Note_on_c, 1, 55, 127
1, 294839, Note_off_c, 1, 55, 0
1, 294840, Note_on_c, 1, 72, 127
1, 294840, Note_on_c, 1, 65, 127
1, 294840, Note_on_c, 1, 57, 127
1, 294959, Note_off_c, 1, 72, 0
1, 294959, Note_off_c, 1, 65, 0
1, 294959, Note_off_c, 1, 57, 0
1, 294960, Note_on_c, 1, 74, 127
1, 294960, Note_on_c, 1, 65, 127
1, 294960, Note_on_c, 1, 58, 127
1, 295019, Note_off_c, 1, 74, 0
1, 295020, Note_on_c, 1, 76, 127
1, 295079, Note_off_c, 1, 65, 0
1, 295079, Note_off_c, 1, 58, 0
1, 295079, Note_off_c, 1, 76, 0
1, 295080, Note_on_c, 1, 77, 127
1, 295080, Note_on_c, 1, 60, 127
1, 295080, Note_on_c, 1, 57, 127
1, 295080, Note_on_c, 1, 72, 127
1, 295080, Note_on_c, 1, 69, 127
1, 295199, Note_off_c, 1, 77, 0
1, 295199, Note_off_c, 1, 60, 0
1, 295199, Note_off_c, 1, 57, 0
1, 295199, Note_off_c, 1, 72, 0
1, 295199, Note_off_c, 1, 69, 0
1, 295200, Note_on_c, 1, 76, 127
1, 295200, Note_on_c, 1, 58, 127
1, 295200, Note_on_c, 1, 55, 127
1, 295200, Note_on_c, 1, 70, 127
1, 295200, Note_on_c, 1, 64, 127
1, 295259, Note_off_c, 1, 76, 0
1, 295260, Note_on_c, 1, 74, 127
1, 295319, Note_off_c, 1, 58, 0
1, 295319, Note_off_c, 1, 55, 0
1, 295319, Note_off_c, 1, 70, 0
1, 295319, Note_off_c, 1, 64, 0
1, 295319, Note_off_c, 1, 74, 0
1, 295320, Note_on_c, 1, 72, 127
1, 295320, Note_on_c, 1, 65, 127
1, 295320, Note_on_c, 1, 57, 127
1, 295320, Note_on_c, 1, 69, 127
1, 295439, Note_off_c, 1, 72, 0
1, 295439, Note_off_c, 1, 65, 0
1, 295439, Note_off_c, 1, 57, 0
1, 295439, Note_off_c, 1, 69, 0
1, 295440, Note_on_c, 1, 77, 127
1, 295440, Note_on_c, 1, 69, 127
1, 295440, Note_on_c, 1, 53, 127
1, 295440, Note_on_c, 1, 72, 127
1, 295559, Note_off_c, 1, 77, 0
1, 295559, Note_off_c, 1, 69, 0
1, 295559, Note_off_c, 1, 53, 0
1, 295559, Note_off_c, 1, 72, 0
1, 295560, Note_on_c, 1, 74, 127
1, 295560, Note_on_c, 1, 65, 127
1, 295560, Note_on_c, 1, 58, 127
1, 295560, Note_on_c, 1, 70, 127
1, 295619, Note_off_c, 1, 70, 0
1, 295620, Note_on_c, 1, 76, 127
1, 295620, Note_on_c, 1, 60, 127
1, 295620, Note_on_c, 1, 72, 127
1, 295679, Note_off_c, 1, 74, 0
1, 295679, Note_off_c, 1, 65, 0
1, 295679, Note_off_c, 1, 58, 0
1, 295679, Note_off_c, 1, 76, 0
1, 295679, Note_off_c, 1, 60, 0
1, 295679, Note_off_c, 1, 72, 0
1, 295680, Note_on_c, 1, 72, 127
1, 295680, Note_on_c, 1, 65, 127
1, 295680, Note_on_c, 1, 57, 127
1, 295680, Note_on_c, 1, 69, 127
1, 295739, Note_off_c, 1, 69, 0
1, 295740, Note_on_c, 1, 74, 127
1, 295740, Note_on_c, 1, 58, 127
1, 295740, Note_on_c, 1, 70, 127
1, 295799, Note_off_c, 1, 72, 0
1, 295799, Note_off_c, 1, 65, 0
1, 295799, Note_off_c, 1, 57, 0
1, 295799, Note_off_c, 1, 74, 0
1, 295799, Note_off_c, 1, 58, 0
1, 295799, Note_off_c, 1, 70, 0
1, 295800, Note_on_c, 1, 70, 127
1, 295800, Note_on_c, 1, 64, 127
1, 295800, Note_on_c, 1, 55, 127
1, 295800, Note_on_c, 1, 67, 127
1, 295859, Note_off_c, 1, 67, 0
1, 295860, Note_on_c, 1, 72, 127
1, 295860, Note_on_c, 1, 57, 127
1, 295860, Note_on_c, 1, 69, 127
1, 295919, Note_off_c, 1, 70, 0
1, 295919, Note_off_c, 1, 64, 0
1, 295919, Note_off_c, 1, 55, 0
1, 295919, Note_off_c, 1, 72, 0
1, 295919, Note_off_c, 1, 57, 0
1, 295919, Note_off_c, 1, 69, 0
1, 295920, Note_on_c, 1, 69, 127
1, 295920, Note_on_c, 1, 65, 127
1, 295920, Note_on_c, 1, 53, 127
1, 295980, Note_on_c, 1, 70, 127
1, 295980, Note_on_c, 1, 55, 127
1, 295980, Note_on_c, 1, 67, 127
1, 296039, Note_off_c, 1, 69, 0
1, 296039, Note_off_c, 1, 65, 0
1, 296039, Note_off_c, 1, 53, 0
1, 296039, Note_off_c, 1, 70, 0
1, 296039, Note_off_c, 1, 55, 0
1, 296039, Note_off_c, 1, 67, 0
1, 296040, Note_on_c, 1, 67, 127
1, 296040, Note_on_c, 1, 60, 127
1, 296040, Note_on_c, 1, 52, 127
1, 296040, Note_on_c, 1, 64, 127
1, 296099, Note_off_c, 1, 67, 0
1, 296099, Note_off_c, 1, 64, 0
1, 296100, Note_on_c, 1, 65, 127
1, 296100, Note_on_c, 1, 50, 127
1, 296100, Note_on_c, 1, 62, 127
1, 296159, Note_off_c, 1, 60, 0
1, 296159, Note_off_c, 1, 52, 0
1, 296159, Note_off_c, 1, 65, 0
1, 296159, Note_off_c, 1, 50, 0
1, 296159, Note_off_c, 1, 62, 0
1, 296160, Note_on_c, 1, 64, 127
1, 296160, Note_on_c, 1, 55, 127
1, 296160, Note_on_c, 1, 48, 127
1, 296160, Note_on_c, 1, 60, 127
1, 296219, Note_off_c, 1, 64, 0
1, 296219, Note_off_c, 1, 48, 0
1, 296219, Note_off_c, 1, 60, 0
1, 296220, Note_on_c, 1, 62, 127
1, 296220, Note_on_c, 1, 47, 127
1, 296279, Note_off_c, 1, 55, 0
1, 296279, Note_off_c, 1, 62, 0
1, 296279, Note_off_c, 1, 47, 0
1, 296280, Note_on_c, 1, 60, 127
1, 296280, Note_on_c, 1, 55, 127
1, 296280, Note_on_c, 1, 48, 127
1, 296280, Note_on_c, 1, 52, 127
1, 296399, Note_off_c, 1, 55, 0
1, 296399, Note_off_c, 1, 48, 0
1, 296399, Note_off_c, 1, 52, 0
1, 296400, Note_on_c, 1, 67, 127
1, 296400, Note_on_c, 1, 58, 127
1, 296519, Note_off_c, 1, 60, 0
1, 296519, Note_off_c, 1, 58, 0
1, 296520, Note_off_c, 1, 67, 0
1, 296520, Note_on_c, 1, 69, 127
1, 296520, Note_on_c, 1, 53, 127
1, 296579, Note_off_c, 1, 69, 0
1, 296580, Note_on_c, 1, 70, 127
1, 296639, Note_off_c, 1, 53, 0
1, 296639, Note_off_c, 1, 70, 0
1, 296640, Note_on_c, 1, 72, 127
1, 296640, Note_on_c, 1, 65, 127
1, 296640, Note_on_c, 1, 57, 127
1, 296640, Note_on_c, 1, 45, 127
1, 296699, Note_off_c, 1, 72, 0
1, 296699, Note_off_c, 1, 57, 0
1, 296699, Note_off_c, 1, 45, 0
1, 296700, Note_on_c, 1, 74, 127
1, 296700, Note_on_c, 1, 58, 127
1, 296700, Note_on_c, 1, 46, 127
1, 296759, Note_off_c, 1, 65, 0
1, 296759, Note_off_c, 1, 74, 0
1, 296759, Note_off_c, 1, 58, 0
1, 296759, Note_off_c, 1, 46, 0
1, 296760, Note_on_c, 1, 67, 127
1, 296760, Note_on_c, 1, 65, 127
1, 296760, Note_on_c, 1, 60, 127
1, 296760, Note_on_c, 1, 48, 127
1, 296760, Note_on_c, 1, 64, 127
1, 296879, Note_off_c, 1, 65, 0
1, 296879, Note_off_c, 1, 60, 0
1, 296879, Note_off_c, 1, 48, 0
1, 296879, Note_off_c, 1, 64, 0
1, 296880, Note_on_c, 1, 36, 127
1, 296940, Note_off_c, 1, 67, 0
1, 296999, Note_off_c, 1, 36, 0
1, 297000, Note_on_c, 1, 57, 127
1, 297000, Note_on_c, 1, 53, 127
1, 297000, Note_on_c, 1, 41, 127
1, 297359, Note_off_c, 1, 57, 0
1, 297359, Note_off_c, 1, 53, 0
1, 297359, Note_off_c, 1, 41, 0
1, 297360, Note_on_c, 1, 72, 127
1, 297360, Note_on_c, 1, 69, 127
1, 297419, Note_off_c, 1, 69, 0
1, 297420, Note_on_c, 1, 70, 127
1, 297420, Note_on_c, 1, 55, 127
1, 297479, Note_off_c, 1, 72, 0
1, 297479, Note_off_c, 1, 70, 0
1, 297479, Note_off_c, 1, 55, 0
1, 297480, Note_on_c, 1, 77, 127
1, 297480, Note_on_c, 1, 72, 127
1, 297480, Note_on_c, 1, 57, 127
1, 297480, Note_on_c, 1, 65, 127
1, 297599, Note_off_c, 1, 77, 0
1, 297599, Note_off_c, 1, 72, 0
1, 297599, Note_off_c, 1, 57, 0
1, 297599, Note_off_c, 1, 65, 0
1, 297600, Note_on_c, 1, 77, 127
1, 297600, Note_on_c, 1, 70, 127
1, 297600, Note_on_c, 1, 55, 127
1, 297600, Note_on_c, 1, 65, 127
1, 297719, Note_off_c, 1, 77, 0
1, 297719, Note_off_c, 1, 70, 0
1, 297719, Note_off_c, 1, 55, 0
1, 297719, Note_off_c, 1, 65, 0
1, 297720, Note_on_c, 1, 77, 127
1, 297720, Note_on_c, 1, 72, 127
1, 297720, Note_on_c, 1, 57, 127
1, 297720, Note_on_c, 1, 65, 127
1, 297839, Note_off_c, 1, 77, 0
1, 297839, Note_off_c, 1, 72, 0
1, 297839, Note_off_c, 1, 57, 0
1, 297839, Note_off_c, 1, 65, 0
1, 297840, Note_on_c, 1, 79, 127
1, 297840, Note_on_c, 1, 72, 127
1, 297840, Note_on_c, 1, 53, 127
1, 297840, Note_on_c, 1, 67, 127
1, 297899, Note_off_c, 1, 79, 0
1, 297900, Note_on_c, 1, 81, 127
1, 297959, Note_off_c, 1, 72, 0
1, 297959, Note_off_c, 1, 53, 0
1, 297959, Note_off_c, 1, 67, 0
1, 297959, Note_off_c, 1, 81, 0
1, 297960, Note_on_c, 1, 74, 127
1, 297960, Note_on_c, 1, 70, 127
1, 297960, Note_on_c, 1, 58, 127
1, 298019, Note_off_c, 1, 70, 0
1, 298020, Note_on_c, 1, 72, 127
1, 298079, Note_off_c, 1, 74, 0
1, 298079, Note_off_c, 1, 58, 0
1, 298079, Note_off_c, 1, 72, 0
1, 298080, Note_on_c, 1, 74, 127
1, 298080, Note_on_c, 1, 70, 127
1, 298080, Note_on_c, 1, 58, 127
1, 298080, Note_on_c, 1, 53, 127
1, 298139, Note_off_c, 1, 70, 0
1, 298140, Note_on_c, 1, 69, 127
1, 298199, Note_off_c, 1, 74, 0
1, 298199, Note_off_c, 1, 58, 0
1, 298199, Note_off_c, 1, 53, 0
1, 298199, Note_off_c, 1, 69, 0
1, 298200, Note_on_c, 1, 74, 127
1, 298200, Note_on_c, 1, 70, 127
1, 298200, Note_on_c, 1, 58, 127
1, 298200, Note_on_c, 1, 46, 127
1, 298319, Note_off_c, 1, 74, 0
1, 298319, Note_off_c, 1, 70, 0
1, 298319, Note_off_c, 1, 58, 0
1, 298319, Note_off_c, 1, 46, 0
1, 298320, Note_on_c, 1, 74, 127
1, 298320, Note_on_c, 1, 65, 127
1, 298320, Note_on_c, 1, 46, 127
1, 298320, Note_on_c, 1, 58, 127
1, 298439, Note_off_c, 1, 74, 0
1, 298439, Note_off_c, 1, 65, 0
1, 298439, Note_off_c, 1, 46, 0
1, 298440, Note_on_c, 1, 79, 127
1, 298440, Note_on_c, 1, 67, 127
1, 298559, Note_off_c, 1, 58, 0
1, 298559, Note_off_c, 1, 79, 0
1, 298559, Note_off_c, 1, 67, 0
1, 298560, Note_on_c, 1, 79, 127
1, 298560, Note_on_c, 1, 72, 127
1, 298560, Note_on_c, 1, 57, 127
1, 298560, Note_on_c, 1, 67, 127
1, 298679, Note_off_c, 1, 79, 0
1, 298679, Note_off_c, 1, 72, 0
1, 298679, Note_off_c, 1, 57, 0
1, 298679, Note_off_c, 1, 67, 0
1, 298680, Note_on_c, 1, 79, 127
1, 298680, Note_on_c, 1, 74, 127
1, 298680, Note_on_c, 1, 58, 127
1, 298680, Note_on_c, 1, 67, 127
1, 298799, Note_off_c, 1, 79, 0
1, 298799, Note_off_c, 1, 74, 0
1, 298799, Note_off_c, 1, 58, 0
1, 298799, Note_off_c, 1, 67, 0
1, 298800, Note_on_c, 1, 81, 127
1, 298800, Note_on_c, 1, 70, 127
1, 298800, Note_on_c, 1, 55, 127
1, 298800, Note_on_c, 1, 69, 127
1, 298859, Note_off_c, 1, 81, 0
1, 298859, Note_off_c, 1, 69, 0
1, 298860, Note_on_c, 1, 82, 127
1, 298919, Note_off_c, 1, 70, 0
1, 298919, Note_off_c, 1, 55, 0
1, 298919, Note_off_c, 1, 82, 0
1, 298920, Note_on_c, 1, 76, 127
1, 298920, Note_on_c, 1, 67, 127
1, 298920, Note_on_c, 1, 60, 127
1, 298920, Note_on_c, 1, 64, 127
1, 299039, Note_off_c, 1, 76, 0
1, 299039, Note_off_c, 1, 67, 0
1, 299039, Note_off_c, 1, 60, 0
1, 299039, Note_off_c, 1, 64, 0
1, 299040, Note_on_c, 1, 74, 127
1, 299040, Note_on_c, 1, 65, 127
1, 299040, Note_on_c, 1, 55, 127
1, 299040, Note_on_c, 1, 62, 127
1, 299099, Note_off_c, 1, 74, 0
1, 299099, Note_off_c, 1, 65, 0
1, 299099, Note_off_c, 1, 62, 0
1, 299100, Note_on_c, 1, 76, 127
1, 299100, Note_on_c, 1, 67, 127
1, 299100, Note_on_c, 1, 64, 127
1, 299159, Note_off_c, 1, 55, 0
1, 299159, Note_off_c, 1, 76, 0
1, 299159, Note_off_c, 1, 67, 0
1, 299159, Note_off_c, 1, 64, 0
1, 299160, Note_on_c, 1, 72, 127
1, 299160, Note_on_c, 1, 64, 127
1, 299160, Note_on_c, 1, 48, 127
1, 299160, Note_on_c, 1, 60, 127
1, 299220, Note_off_c, 1, 60, 0
1, 299220, Note_on_c, 1, 69, 127
1, 299220, Note_on_c, 1, 65, 127
1, 299279, Note_off_c, 1, 72, 0
1, 299279, Note_off_c, 1, 64, 0
1, 299279, Note_off_c, 1, 48, 0
1, 299280, Note_off_c, 1, 69, 0
1, 299280, Note_off_c, 1, 65, 0
1, 299280, Note_on_c, 1, 77, 127
1, 299280, Note_on_c, 1, 57, 127
1, 299280, Note_on_c, 1, 70, 127
1, 299280, Note_on_c, 1, 67, 127
1, 299340, Note_off_c, 1, 70, 0
1, 299340, Note_off_c, 1, 67, 0
1, 299399, Note_off_c, 1, 77, 0
1, 299399, Note_off_c, 1, 57, 0
1, 299400, Note_on_c, 1, 74, 127
1, 299400, Note_on_c, 1, 58, 127
1, 299519, Note_off_c, 1, 74, 0
1, 299519, Note_off_c, 1, 58, 0
1, 299520, Note_on_c, 1, 72, 127
1, 299520, Note_on_c, 1, 65, 127
1, 299520, Note_on_c, 1, 57, 127
1, 299520, Note_on_c, 1, 77, 127
1, 299579, Note_off_c, 1, 65, 0
1, 299579, Note_off_c, 1, 57, 0
1, 299579, Note_off_c, 1, 77, 0
1, 299580, Note_on_c, 1, 64, 127
1, 299580, Note_on_c, 1, 55, 127
1, 299580, Note_on_c, 1, 76, 127
1, 299639, Note_off_c, 1, 72, 0
1, 299639, Note_off_c, 1, 64, 0
1, 299639, Note_off_c, 1, 55, 0
1, 299639, Note_off_c, 1, 76, 0
1, 299640, Note_on_c, 1, 72, 127
1, 299640, Note_on_c, 1, 65, 127
1, 299640, Note_on_c, 1, 57, 127
1, 299640, Note_on_c, 1, 77, 127
1, 299759, Note_off_c, 1, 72, 0
1, 299759, Note_off_c, 1, 65, 0
1, 299759, Note_off_c, 1, 57, 0
1, 299759, Note_off_c, 1, 77, 0
1, 299760, Note_on_c, 1, 77, 127
1, 299760, Note_on_c, 1, 57, 127
1, 299760, Note_on_c, 1, 53, 127
1, 299760, Note_on_c, 1, 69, 127
1, 299879, Note_off_c, 1, 77, 0
1, 299879, Note_off_c, 1, 57, 0
1, 299879, Note_off_c, 1, 53, 0
1, 299879, Note_off_c, 1, 69, 0
1, 299880, Note_on_c, 1, 74, 127
1, 299880, Note_on_c, 1, 58, 127
1, 299880, Note_on_c, 1, 70, 127
1, 299999, Note_off_c, 1, 74, 0
1, 299999, Note_off_c, 1, 58, 0
1, 299999, Note_off_c, 1, 70, 0
1, 300000, Note_on_c, 1, 72, 127
1, 300000, Note_on_c, 1, 65, 127
1, 300000, Note_on_c, 1, 57, 127
1, 300000, Note_on_c, 1, 77, 127
1, 300059, Note_off_c, 1, 65, 0
1, 300059, Note_off_c, 1, 57, 0
1, 300059, Note_off_c, 1, 77, 0
1, 300060, Note_on_c, 1, 64, 127
1, 300060, Note_on_c, 1, 55, 127
1, 300060, Note_on_c, 1, 76, 127
1, 300119, Note_off_c, 1, 72, 0
1, 300119, Note_off_c, 1, 64, 0
1, 300119, Note_off_c, 1, 55, 0
1, 300119, Note_off_c, 1, 76, 0
1, 300120, Note_on_c, 1, 72, 127
1, 300120, Note_on_c, 1, 65, 127
1, 300120, Note_on_c, 1, 57, 127
1, 300120, Note_on_c, 1, 77, 127
1, 300239, Note_off_c, 1, 72, 0
1, 300239, Note_off_c, 1, 65, 0
1, 300239, Note_off_c, 1, 57, 0
1, 300239, Note_off_c, 1, 77, 0
1, 300240, Note_on_c, 1, 70, 127
1, 300240, Note_on_c, 1, 65, 127
1, 300240, Note_on_c, 1, 53, 127
1, 300240, Note_on_c, 1, 77, 127
1, 300299, Note_off_c, 1, 70, 0
1, 300300, Note_on_c, 1, 69, 127
1, 300359, Note_off_c, 1, 65, 0
1, 300359, Note_off_c, 1, 53, 0
1, 300359, Note_off_c, 1, 77, 0
1, 300359, Note_off_c, 1, 69, 0
1, 300360, Note_on_c, 1, 74, 127
1, 300360, Note_on_c, 1, 65, 127
1, 300360, Note_on_c, 1, 58, 127
1, 300360, Note_on_c, 1, 46, 127
1, 300360, Note_on_c, 1, 77, 127
1, 300479, Note_off_c, 1, 74, 0
1, 300479, Note_off_c, 1, 65, 0
1, 300479, Note_off_c, 1, 58, 0
1, 300479, Note_off_c, 1, 46, 0
1, 300479, Note_off_c, 1, 77, 0
1, 300480, Note_on_c, 1, 72, 127
1, 300480, Note_on_c, 1, 64, 127
1, 300480, Note_on_c, 1, 60, 127
1, 300480, Note_on_c, 1, 48, 127
1, 300480, Note_on_c, 1, 76, 127
1, 300599, Note_off_c, 1, 72, 0
1, 300599, Note_off_c, 1, 64, 0
1, 300599, Note_off_c, 1, 60, 0
1, 300599, Note_off_c, 1, 48, 0
1, 300599, Note_off_c, 1, 76, 0
1, 300600, Note_on_c, 1, 70, 127
1, 300600, Note_on_c, 1, 65, 127
1, 300600, Note_on_c, 1, 62, 127
1, 300600, Note_on_c, 1, 50, 127
1, 300659, Note_off_c, 1, 70, 0
1, 300660, Note_on_c, 1, 69, 127
1, 300719, Note_off_c, 1, 65, 0
1, 300719, Note_off_c, 1, 62, 0
1, 300719, Note_off_c, 1, 50, 0
1, 300719, Note_off_c, 1, 69, 0
1, 300720, Note_on_c, 1, 67, 127
1, 300720, Note_on_c, 1, 62, 127
1, 300720, Note_on_c, 1, 58, 127
1, 300720, Note_on_c, 1, 46, 127
1, 300720, Note_on_c, 1, 74, 127
1, 300779, Note_off_c, 1, 67, 0
1, 300780, Note_on_c, 1, 65, 127
1, 300839, Note_off_c, 1, 62, 0
1, 300839, Note_off_c, 1, 58, 0
1, 300839, Note_off_c, 1, 46, 0
1, 300839, Note_off_c, 1, 74, 0
1, 300839, Note_off_c, 1, 65, 0
1, 300840, Note_on_c, 1, 64, 127
1, 300840, Note_on_c, 1, 60, 127
1, 300840, Note_on_c, 1, 48, 127
1, 300840, Note_on_c, 1, 72, 127
1, 300959, Note_off_c, 1, 64, 0
1, 300959, Note_off_c, 1, 60, 0
1, 300959, Note_off_c, 1, 48, 0
1, 300959, Note_off_c, 1, 72, 0
1, 300960, Note_on_c, 1, 62, 127
1, 300960, Note_on_c, 1, 59, 127
1, 300960, Note_on_c, 1, 55, 127
1, 300960, Note_on_c, 1, 71, 127
1, 300960, Note_on_c, 1, 67, 127
1, 301020, Note_on_c, 1, 64, 127
1, 301079, Note_off_c, 1, 62, 0
1, 301079, Note_off_c, 1, 59, 0
1, 301079, Note_off_c, 1, 55, 0
1, 301079, Note_off_c, 1, 71, 0
1, 301079, Note_off_c, 1, 67, 0
1, 301079, Note_off_c, 1, 64, 0
1, 301080, Note_on_c, 1, 60, 127
1, 301080, Note_on_c, 1, 48, 127
1, 301080, Note_on_c, 1, 72, 127
1, 301140, Note_on_c, 1, 58, 127
1, 301140, Note_on_c, 1, 64, 127
1, 301199, Note_off_c, 1, 60, 0
1, 301199, Note_off_c, 1, 48, 0
1, 301199, Note_off_c, 1, 72, 0
1, 301199, Note_off_c, 1, 58, 0
1, 301199, Note_off_c, 1, 64, 0
1, 301200, Note_on_c, 1, 65, 127
1, 301200, Note_on_c, 1, 60, 127
1, 301200, Note_on_c, 1, 57, 127
1, 301259, Note_off_c, 1, 65, 0
1, 301259, Note_off_c, 1, 57, 0
1, 301260, Note_on_c, 1, 67, 127
1, 301260, Note_on_c, 1, 55, 127
1, 301319, Note_off_c, 1, 60, 0
1, 301319, Note_off_c, 1, 67, 0
1, 301319, Note_off_c, 1, 55, 0
1, 301320, Note_on_c, 1, 69, 127
1, 301320, Note_on_c, 1, 60, 127
1, 301320, Note_on_c, 1, 53, 127
1, 301320, Note_on_c, 1, 65, 127
1, 301439, Note_off_c, 1, 69, 0
1, 301439, Note_off_c, 1, 60, 0
1, 301439, Note_off_c, 1, 53, 0
1, 301439, Note_off_c, 1, 65, 0
1, 301440, Note_on_c, 1, 67, 127
1, 301440, Note_on_c, 1, 64, 127
1, 301440, Note_on_c, 1, 55, 127
1, 301500, Note_on_c, 1, 65, 127
1, 301559, Note_off_c, 1, 67, 0
1, 301559, Note_off_c, 1, 64, 0
1, 301559, Note_off_c, 1, 55, 0
1, 301559, Note_off_c, 1, 65, 0
1, 301560, Note_on_c, 1, 72, 127
1, 301560, Note_on_c, 1, 65, 127
1, 301560, Note_on_c, 1, 57, 127
1, 301560, Note_on_c, 1, 69, 127
1, 301679, Note_off_c, 1, 72, 0
1, 301679, Note_off_c, 1, 65, 0
1, 301679, Note_off_c, 1, 57, 0
1, 301679, Note_off_c, 1, 69, 0
1, 301680, Note_on_c, 1, 74, 127
1, 301680, Note_on_c, 1, 65, 127
1, 301680, Note_on_c, 1, 58, 127
1, 301680, Note_on_c, 1, 70, 127
1, 301740, Note_on_c, 1, 76, 127
1, 301799, Note_off_c, 1, 74, 0
1, 301799, Note_off_c, 1, 65, 0
1, 301799, Note_off_c, 1, 58, 0
1, 301799, Note_off_c, 1, 70, 0
1, 301799, Note_off_c, 1, 76, 0
1, 301800, Note_on_c, 1, 77, 127
1, 301800, Note_on_c, 1, 60, 127
1, 301800, Note_on_c, 1, 57, 127
1, 301800, Note_on_c, 1, 72, 127
1, 301800, Note_on_c, 1, 65, 127
1, 301919, Note_off_c, 1, 77, 0
1, 301919, Note_off_c, 1, 60, 0
1, 301919, Note_off_c, 1, 57, 0
1, 301919, Note_off_c, 1, 72, 0
1, 301919, Note_off_c, 1, 65, 0
1, 301920, Note_on_c, 1, 76, 127
1, 301920, Note_on_c, 1, 58, 127
1, 301920, Note_on_c, 1, 55, 127
1, 301920, Note_on_c, 1, 70, 127
1, 301920, Note_on_c, 1, 64, 127
1, 301979, Note_off_c, 1, 76, 0
1, 301980, Note_on_c, 1, 74, 127
1, 302039, Note_off_c, 1, 58, 0
1, 302039, Note_off_c, 1, 55, 0
1, 302039, Note_off_c, 1, 70, 0
1, 302039, Note_off_c, 1, 64, 0
1, 302039, Note_off_c, 1, 74, 0
1, 302040, Note_on_c, 1, 72, 127
1, 302040, Note_on_c, 1, 65, 127
1, 302040, Note_on_c, 1, 57, 127
1, 302159, Note_off_c, 1, 72, 0
1, 302159, Note_off_c, 1, 65, 0
1, 302159, Note_off_c, 1, 57, 0
1, 302160, Note_on_c, 1, 77, 127
1, 302160, Note_on_c, 1, 69, 127
1, 302160, Note_on_c, 1, 53, 127
1, 302160, Note_on_c, 1, 65, 127
1, 302279, Note_off_c, 1, 77, 0
1, 302279, Note_off_c, 1, 69, 0
1, 302279, Note_off_c, 1, 53, 0
1, 302279, Note_off_c, 1, 65, 0
1, 302280, Note_on_c, 1, 74, 127
1, 302280, Note_on_c, 1, 65, 127
1, 302280, Note_on_c, 1, 58, 127
1, 302280, Note_on_c, 1, 70, 127
1, 302340, Note_on_c, 1, 76, 127
1, 302340, Note_on_c, 1, 60, 127
1, 302399, Note_off_c, 1, 74, 0
1, 302399, Note_off_c, 1, 65, 0
1, 302399, Note_off_c, 1, 58, 0
1, 302399, Note_off_c, 1, 70, 0
1, 302399, Note_off_c, 1, 76, 0
1, 302399, Note_off_c, 1, 60, 0
1, 302400, Note_on_c, 1, 72, 127
1, 302400, Note_on_c, 1, 65, 127
1, 302400, Note_on_c, 1, 57, 127
1, 302400, Note_on_c, 1, 69, 127
1, 302460, Note_on_c, 1, 74, 127
1, 302460, Note_on_c, 1, 58, 127
1, 302519, Note_off_c, 1, 72, 0
1, 302519, Note_off_c, 1, 65, 0
1, 302519, Note_off_c, 1, 57, 0
1, 302519, Note_off_c, 1, 69, 0
1, 302519, Note_off_c, 1, 74, 0
1, 302519, Note_off_c, 1, 58, 0
1, 302520, Note_on_c, 1, 70, 127
1, 302520, Note_on_c, 1, 64, 127
1, 302520, Note_on_c, 1, 55, 127
1, 302520, Note_on_c, 1, 67, 127
1, 302580, Note_on_c, 1, 72, 127
1, 302580, Note_on_c, 1, 57, 127
1, 302639, Note_off_c, 1, 70, 0
1, 302639, Note_off_c, 1, 64, 0
1, 302639, Note_off_c, 1, 55, 0
1, 302639, Note_off_c, 1, 67, 0
1, 302639, Note_off_c, 1, 72, 0
1, 302639, Note_off_c, 1, 57, 0
1, 302640, Note_on_c, 1, 69, 127
1, 302640, Note_on_c, 1, 65, 127
1, 302640, Note_on_c, 1, 53, 127
1, 302700, Note_on_c, 1, 70, 127
1, 302700, Note_on_c, 1, 55, 127
1, 302759, Note_off_c, 1, 69, 0
1, 302759, Note_off_c, 1, 65, 0
1, 302759, Note_off_c, 1, 53, 0
1, 302759, Note_off_c, 1, 70, 0
1, 302759, Note_off_c, 1, 55, 0
1, 302760, Note_on_c, 1, 67, 127
1, 302760, Note_on_c, 1, 60, 127
1, 302760, Note_on_c, 1, 52, 127
1, 302819, Note_off_c, 1, 67, 0
1, 302820, Note_on_c, 1, 65, 127
1, 302820, Note_on_c, 1, 50, 127
1, 302879, Note_off_c, 1, 60, 0
1, 302879, Note_off_c, 1, 52, 0
1, 302879, Note_off_c, 1, 65, 0
1, 302879, Note_off_c, 1, 50, 0
1, 302880, Note_on_c, 1, 64, 127
1, 302880, Note_on_c, 1, 55, 127
1, 302880, Note_on_c, 1, 48, 127
1, 302939, Note_off_c, 1, 64, 0
1, 302939, Note_off_c, 1, 48, 0
1, 302940, Note_on_c, 1, 62, 127
1, 302940, Note_on_c, 1, 47, 127
1, 302999, Note_off_c, 1, 55, 0
1, 302999, Note_off_c, 1, 62, 0
1, 302999, Note_off_c, 1, 47, 0
1, 303000, Note_on_c, 1, 60, 127
1, 303000, Note_on_c, 1, 55, 127
1, 303000, Note_on_c, 1, 48, 127
1, 303000, Note_on_c, 1, 52, 127
1, 303119, Note_off_c, 1, 60, 0
1, 303119, Note_off_c, 1, 55, 0
1, 303119, Note_off_c, 1, 48, 0
1, 303119, Note_off_c, 1, 52, 0
1, 303120, Note_on_c, 1, 67, 127
1, 303120, Note_on_c, 1, 60, 127
1, 303120, Note_on_c, 1, 52, 127
1, 303120, Note_on_c, 1, 48, 127
1, 303120, Note_on_c, 1, 64, 127
1, 303239, Note_off_c, 1, 67, 0
1, 303239, Note_off_c, 1, 60, 0
1, 303239, Note_off_c, 1, 52, 0
1, 303239, Note_off_c, 1, 48, 0
1, 303239, Note_off_c, 1, 64, 0
1, 303240, Note_on_c, 1, 69, 127
1, 303240, Note_on_c, 1, 60, 127
1, 303240, Note_on_c, 1, 53, 127
1, 303240, Note_on_c, 1, 65, 127
1, 303300, Note_on_c, 1, 70, 127
1, 303300, Note_on_c, 1, 55, 127
1, 303359, Note_off_c, 1, 69, 0
1, 303359, Note_off_c, 1, 60, 0
1, 303359, Note_off_c, 1, 53, 0
1, 303359, Note_off_c, 1, 65, 0
1, 303359, Note_off_c, 1, 70, 0
1, 303359, Note_off_c, 1, 55, 0
1, 303360, Note_on_c, 1, 72, 127
1, 303360, Note_on_c, 1, 65, 127
1, 303360, Note_on_c, 1, 57, 127
1, 303360, Note_on_c, 1, 45, 127
1, 303419, Note_off_c, 1, 57, 0
1, 303419, Note_off_c, 1, 45, 0
1, 303420, Note_off_c, 1, 72, 0
1, 303420, Note_on_c, 1, 74, 127
1, 303420, Note_on_c, 1, 58, 127
1, 303420, Note_on_c, 1, 46, 127
1, 303479, Note_off_c, 1, 65, 0
1, 303479, Note_off_c, 1, 58, 0
1, 303479, Note_off_c, 1, 46, 0
1, 303480, Note_off_c, 1, 74, 0
1, 303480, Note_on_c, 1, 67, 127
1, 303480, Note_on_c, 1, 60, 127
1, 303480, Note_on_c, 1, 48, 127
1, 303599, Note_off_c, 1, 60, 0
1, 303599, Note_off_c, 1, 48, 0
1, 303600, Note_on_c, 1, 64, 127
1, 303600, Note_on_c, 1, 36, 127
1, 303659, Note_off_c, 1, 67, 0
1, 303719, Note_off_c, 1, 64, 0
1, 303719, Note_off_c, 1, 36, 0
1, 303720, Note_on_c, 1, 65, 127
1, 303720, Note_on_c, 1, 57, 127
1, 303720, Note_on_c, 1, 53, 127
1, 303720, Note_on_c, 1, 41, 127
1, 303720, Note_on_c, 1, 60, 127
1, 304079, Note_off_c, 1, 65, 0
1, 304079, Note_off_c, 1, 57, 0
1, 304079, Note_off_c, 1, 53, 0
1, 304079, Note_off_c, 1, 41, 0
1, 304079, Note_off_c, 1, 60, 0
1, 304079, End_track
0, 0, End_of_file