0, 0, Header, 1, 1, 480
1, 0, Start_track
1, 0, Title_t, "Test"
1, 0, Tempo, 500000
1, 0, Instrument_name_t, "Church Organ"
1, 0, Note_on_c, 1, 50, 127
1, 0, Note_on_c, 1, 38, 127
1, 59, Note_off_c, 1, 50, 0
1, 59, Note_off_c, 1, 38, 0
1, 60, Note_on_c, 1, 50, 127
1, 119, Note_off_c, 1, 50, 0
1, 120, Note_on_c, 1, 50, 127
1, 179, Note_off_c, 1, 50, 0
1, 180, Note_on_c, 1, 50, 127
1, 210, Note_on_c, 1, 78, 127
1, 210, Note_on_c, 1, 74, 127
1, 224, Note_off_c, 1, 78, 0
1, 224, Note_off_c, 1, 74, 0
1, 225, Note_on_c, 1, 79, 127
1, 225, Note_on_c, 1, 76, 127
1, 239, Note_off_c, 1, 50, 0
1, 239, Note_off_c, 1, 79, 0
1, 239, Note_off_c, 1, 76, 0
1, 240, Note_on_c, 1, 45, 127
1, 240, Note_on_c, 1, 81, 127
1, 240, Note_on_c, 1, 78, 127
1, 254, Note_off_c, 1, 81, 0
1, 254, Note_off_c, 1, 78, 0
1, 255, Note_on_c, 1, 79, 127
1, 255, Note_on_c, 1, 76, 127
1, 269, Note_off_c, 1, 79, 0
1, 269, Note_off_c, 1, 76, 0
1, 299, Note_off_c, 1, 45, 0
1, 300, Note_on_c, 1, 81, 127
1, 300, Note_on_c, 1, 78, 127
1, 314, Note_off_c, 1, 81, 0
1, 314, Note_off_c, 1, 78, 0
1, 315, Note_on_c, 1, 79, 127
1, 315, Note_on_c, 1, 76, 127
1, 329, Note_off_c, 1, 79, 0
1, 329, Note_off_c, 1, 76, 0
1, 330, Note_on_c, 1, 78, 127
1, 330, Note_on_c, 1, 74, 127
1, 344, Note_off_c, 1, 78, 0
1, 344, Note_off_c, 1, 74, 0
1, 345, Note_on_c, 1, 79, 127
1, 345, Note_on_c, 1, 76, 127
1, 359, Note_off_c, 1, 79, 0
1, 359, Note_off_c, 1, 76, 0
1, 360, Note_on_c, 1, 50, 127
1, 360, Note_on_c, 1, 81, 127
1, 360, Note_on_c, 1, 78, 127
1, 360, Note_on_c, 1, 38, 127
1, 389, Note_off_c, 1, 50, 0
1, 419, Note_off_c, 1, 81, 0
1, 419, Note_off_c, 1, 78, 0
1, 419, Note_off_c, 1, 38, 0
1, 450, Note_on_c, 1, 45, 127
1, 479, Note_off_c, 1, 45, 0
1, 480, Note_on_c, 1, 50, 127
1, 509, Note_off_c, 1, 50, 0
1, 510, Note_on_c, 1, 45, 127
1, 539, Note_off_c, 1, 45, 0
1, 540, Note_on_c, 1, 50, 127
1, 570, Note_on_c, 1, 74, 127
1, 570, Note_on_c, 1, 66, 127
1, 584, Note_off_c, 1, 74, 0
1, 584, Note_off_c, 1, 66, 0
1, 585, Note_on_c, 1, 76, 127
1, 585, Note_on_c, 1, 67, 127
1, 599, Note_off_c, 1, 50, 0
1, 599, Note_off_c, 1, 76, 0
1, 599, Note_off_c, 1, 67, 0
1, 600, Note_on_c, 1, 45, 127
1, 600, Note_on_c, 1, 78, 127
1, 600, Note_on_c, 1, 69, 127
1, 614, Note_off_c, 1, 78, 0
1, 614, Note_off_c, 1, 69, 0
1, 615, Note_on_c, 1, 76, 127
1, 615, Note_on_c, 1, 67, 127
1, 629, Note_off_c, 1, 76, 0
1, 629, Note_off_c, 1, 67, 0
1, 659, Note_off_c, 1, 45, 0
1, 660, Note_on_c, 1, 78, 127
1, 660, Note_on_c, 1, 69, 127
1, 674, Note_off_c, 1, 78, 0
1, 674, Note_off_c, 1, 69, 0
1, 675, Note_on_c, 1, 76, 127
1, 675, Note_on_c, 1, 67, 127
1, 689, Note_off_c, 1, 76, 0
1, 689, Note_off_c, 1, 67, 0
1, 690, Note_on_c, 1, 74, 127
1, 690, Note_on_c, 1, 66, 127
1, 704, Note_off_c, 1, 74, 0
1, 704, Note_off_c, 1, 66, 0
1, 705, Note_on_c, 1, 76, 127
1, 705, Note_on_c, 1, 67, 127
1, 719, Note_off_c, 1, 76, 0
1, 719, Note_off_c, 1, 67, 0
1, 720, Note_on_c, 1, 62, 127
1, 720, Note_on_c, 1, 50, 127
1, 720, Note_on_c, 1, 78, 127
1, 720, Note_on_c, 1, 69, 127
1, 720, Note_on_c, 1, 38, 127
1, 734, Note_off_c, 1, 50, 0
1, 735, Note_on_c, 1, 86, 127
1, 749, Note_off_c, 1, 62, 0
1, 749, Note_off_c, 1, 86, 0
1, 750, Note_on_c, 1, 85, 127
1, 764, Note_off_c, 1, 85, 0
1, 765, Note_on_c, 1, 83, 127
1, 779, Note_off_c, 1, 78, 0
1, 779, Note_off_c, 1, 69, 0
1, 779, Note_off_c, 1, 38, 0
1, 779, Note_off_c, 1, 83, 0
1, 780, Note_on_c, 1, 66, 127
1, 780, Note_on_c, 1, 50, 127
1, 780, Note_on_c, 1, 81, 127
1, 794, Note_off_c, 1, 50, 0
1, 794, Note_off_c, 1, 81, 0
1, 795, Note_on_c, 1, 86, 127
1, 809, Note_off_c, 1, 66, 0
1, 809, Note_off_c, 1, 86, 0
1, 810, Note_on_c, 1, 62, 127
1, 810, Note_on_c, 1, 50, 127
1, 810, Note_on_c, 1, 85, 127
1, 824, Note_off_c, 1, 50, 0
1, 824, Note_off_c, 1, 85, 0
1, 825, Note_on_c, 1, 83, 127
1, 839, Note_off_c, 1, 62, 0
1, 839, Note_off_c, 1, 83, 0
1, 840, Note_on_c, 1, 66, 127
1, 840, Note_on_c, 1, 50, 127
1, 840, Note_on_c, 1, 81, 127
1, 854, Note_off_c, 1, 50, 0
1, 854, Note_off_c, 1, 81, 0
1, 855, Note_on_c, 1, 79, 127
1, 869, Note_off_c, 1, 66, 0
1, 869, Note_off_c, 1, 79, 0
1, 870, Note_on_c, 1, 69, 127
1, 870, Note_on_c, 1, 50, 127
1, 870, Note_on_c, 1, 78, 127
1, 884, Note_off_c, 1, 50, 0
1, 884, Note_off_c, 1, 78, 0
1, 885, Note_on_c, 1, 76, 127
1, 899, Note_off_c, 1, 69, 0
1, 899, Note_off_c, 1, 76, 0
1, 900, Note_on_c, 1, 74, 127
1, 900, Note_on_c, 1, 62, 127
1, 900, Note_on_c, 1, 50, 127
1, 900, Note_on_c, 1, 78, 127
1, 914, Note_off_c, 1, 50, 0
1, 929, Note_off_c, 1, 62, 0
1, 930, Note_on_c, 1, 69, 127
1, 930, Note_on_c, 1, 73, 127
1, 944, Note_off_c, 1, 73, 0
1, 945, Note_on_c, 1, 71, 127
1, 959, Note_off_c, 1, 69, 0
1, 959, Note_off_c, 1, 71, 0
1, 960, Note_on_c, 1, 66, 127
1, 989, Note_off_c, 1, 66, 0
1, 1035, Note_on_c, 1, 67, 127
1, 1049, Note_off_c, 1, 67, 0
1, 1065, Note_on_c, 1, 64, 127
1, 1079, Note_off_c, 1, 64, 0
1, 1080, Note_on_c, 1, 81, 127
1, 1080, Note_on_c, 1, 38, 127
1, 1110, Note_on_c, 1, 61, 127
1, 1124, Note_off_c, 1, 61, 0
1, 1125, Note_on_c, 1, 59, 127
1, 1139, Note_off_c, 1, 81, 0
1, 1139, Note_off_c, 1, 38, 0
1, 1139, Note_off_c, 1, 59, 0
1, 1140, Note_on_c, 1, 57, 127
1, 1154, Note_off_c, 1, 57, 0
1, 1215, Note_on_c, 1, 55, 127
1, 1229, Note_off_c, 1, 55, 0
1, 1230, Note_on_c, 1, 54, 127
1, 1244, Note_off_c, 1, 54, 0
1, 1245, Note_on_c, 1, 52, 127
1, 1259, Note_off_c, 1, 52, 0
1, 1290, Note_on_c, 1, 49, 127
1, 1304, Note_off_c, 1, 49, 0
1, 1305, Note_on_c, 1, 47, 127
1, 1319, Note_off_c, 1, 47, 0
1, 1320, Note_on_c, 1, 45, 127
1, 1334, Note_off_c, 1, 45, 0
1, 1395, Note_on_c, 1, 43, 127
1, 1409, Note_off_c, 1, 43, 0
1, 1410, Note_on_c, 1, 42, 127
1, 1424, Note_off_c, 1, 42, 0
1, 1425, Note_on_c, 1, 40, 127
1, 1439, Note_off_c, 1, 40, 0
1, 1530, Note_off_c, 1, 74, 0
1, 1530, Note_off_c, 1, 78, 0
1, 1560, Note_on_c, 1, 50, 127
1, 1560, Note_on_c, 1, 78, 127
1, 1560, Note_on_c, 1, 74, 127
1, 1560, Note_on_c, 1, 57, 127
1, 1560, Note_on_c, 1, 38, 127
1, 1577, Note_off_c, 1, 57, 0
1, 1590, Note_off_c, 1, 78, 0
1, 1590, Note_off_c, 1, 74, 0
1, 1619, Note_off_c, 1, 50, 0
1, 1619, Note_off_c, 1, 38, 0
1, 1620, Note_on_c, 1, 50, 127
1, 1620, Note_on_c, 1, 78, 127
1, 1620, Note_on_c, 1, 74, 127
1, 1620, Note_on_c, 1, 57, 127
1, 1620, Note_on_c, 1, 45, 127
1, 1637, Note_off_c, 1, 57, 0
1, 1679, Note_off_c, 1, 50, 0
1, 1679, Note_off_c, 1, 45, 0
1, 1680, Note_off_c, 1, 78, 0
1, 1680, Note_off_c, 1, 74, 0
1, 1680, Note_on_c, 1, 76, 127
1, 1680, Note_on_c, 1, 73, 127
1, 1710, Note_off_c, 1, 76, 0
1, 1710, Note_off_c, 1, 73, 0
1, 1710, Note_on_c, 1, 71, 127
1, 1740, Note_off_c, 1, 71, 0
1, 1740, Note_on_c, 1, 69, 127
1, 1799, Note_off_c, 1, 69, 0
1, 1800, Note_on_c, 1, 79, 127
1, 1829, Note_off_c, 1, 79, 0
1, 1860, Note_on_c, 1, 79, 127
1, 1860, Note_on_c, 1, 76, 127
1, 1860, Note_on_c, 1, 69, 127
1, 1860, Note_on_c, 1, 57, 127
1, 1860, Note_on_c, 1, 49, 127
1, 1877, Note_off_c, 1, 57, 0
1, 1889, Note_off_c, 1, 79, 0
1, 1889, Note_off_c, 1, 76, 0
1, 1889, Note_off_c, 1, 69, 0
1, 1919, Note_off_c, 1, 49, 0
1, 1920, Note_on_c, 1, 79, 127
1, 1920, Note_on_c, 1, 76, 127
1, 1920, Note_on_c, 1, 69, 127
1, 1920, Note_on_c, 1, 57, 127
1, 1920, Note_on_c, 1, 45, 127
1, 1937, Note_off_c, 1, 57, 0
1, 1949, Note_off_c, 1, 79, 0
1, 1949, Note_off_c, 1, 76, 0
1, 1949, Note_off_c, 1, 69, 0
1, 1979, Note_off_c, 1, 45, 0
1, 1980, Note_on_c, 1, 79, 127
1, 1980, Note_on_c, 1, 76, 127
1, 1980, Note_on_c, 1, 69, 127
1, 1980, Note_on_c, 1, 57, 127
1, 1980, Note_on_c, 1, 50, 127
1, 1997, Note_off_c, 1, 57, 0
1, 2039, Note_off_c, 1, 79, 0
1, 2039, Note_off_c, 1, 76, 0
1, 2039, Note_off_c, 1, 69, 0
1, 2039, Note_off_c, 1, 50, 0
1, 2040, Note_on_c, 1, 78, 127
1, 2040, Note_on_c, 1, 74, 127
1, 2040, Note_on_c, 1, 57, 127
1, 2057, Note_off_c, 1, 57, 0
1, 2069, Note_off_c, 1, 78, 0
1, 2069, Note_off_c, 1, 74, 0
1, 2070, Note_on_c, 1, 76, 127
1, 2070, Note_on_c, 1, 73, 127
1, 2070, Note_on_c, 1, 69, 127
1, 2070, Note_on_c, 1, 57, 127
1, 2087, Note_off_c, 1, 57, 0
1, 2099, Note_off_c, 1, 76, 0
1, 2099, Note_off_c, 1, 73, 0
1, 2099, Note_off_c, 1, 69, 0
1, 2100, Note_on_c, 1, 78, 127
1, 2100, Note_on_c, 1, 74, 127
1, 2100, Note_on_c, 1, 66, 127
1, 2100, Note_on_c, 1, 69, 127
1, 2129, Note_off_c, 1, 66, 0
1, 2129, Note_off_c, 1, 69, 0
1, 2130, Note_on_c, 1, 62, 127
1, 2130, Note_on_c, 1, 79, 127
1, 2130, Note_on_c, 1, 71, 127
1, 2130, Note_on_c, 1, 67, 127
1, 2159, Note_off_c, 1, 78, 0
1, 2159, Note_off_c, 1, 74, 0
1, 2159, Note_off_c, 1, 62, 0
1, 2159, Note_off_c, 1, 79, 0
1, 2159, Note_off_c, 1, 71, 0
1, 2159, Note_off_c, 1, 67, 0
1, 2160, Note_on_c, 1, 81, 127
1, 2160, Note_on_c, 1, 72, 127
1, 2160, Note_on_c, 1, 66, 127
1, 2160, Note_on_c, 1, 50, 127
1, 2189, Note_off_c, 1, 81, 0
1, 2189, Note_off_c, 1, 72, 0
1, 2189, Note_off_c, 1, 66, 0
1, 2189, Note_off_c, 1, 50, 0
1, 2190, Note_on_c, 1, 52, 127
1, 2219, Note_off_c, 1, 52, 0
1, 2220, Note_on_c, 1, 72, 127
1, 2220, Note_on_c, 1, 69, 127
1, 2220, Note_on_c, 1, 54, 127
1, 2249, Note_off_c, 1, 72, 0
1, 2249, Note_off_c, 1, 69, 0
1, 2249, Note_off_c, 1, 54, 0
1, 2250, Note_on_c, 1, 52, 127
1, 2279, Note_off_c, 1, 52, 0
1, 2280, Note_on_c, 1, 72, 127
1, 2280, Note_on_c, 1, 69, 127
1, 2280, Note_on_c, 1, 62, 127
1, 2280, Note_on_c, 1, 54, 127
1, 2309, Note_off_c, 1, 72, 0
1, 2309, Note_off_c, 1, 69, 0
1, 2309, Note_off_c, 1, 62, 0
1, 2309, Note_off_c, 1, 54, 0
1, 2310, Note_on_c, 1, 50, 127
1, 2339, Note_off_c, 1, 50, 0
1, 2340, Note_on_c, 1, 72, 127
1, 2340, Note_on_c, 1, 69, 127
1, 2340, Note_on_c, 1, 62, 127
1, 2340, Note_on_c, 1, 55, 127
1, 2355, Note_off_c, 1, 72, 0
1, 2355, Note_off_c, 1, 69, 0
1, 2355, Note_on_c, 1, 74, 127
1, 2355, Note_on_c, 1, 71, 127
1, 2369, Note_off_c, 1, 55, 0
1, 2370, Note_off_c, 1, 74, 0
1, 2370, Note_off_c, 1, 71, 0
1, 2370, Note_on_c, 1, 57, 127
1, 2399, Note_off_c, 1, 62, 0
1, 2399, Note_off_c, 1, 57, 0
1, 2400, Note_on_c, 1, 67, 127
1, 2400, Note_on_c, 1, 54, 127
1, 2429, Note_off_c, 1, 54, 0
1, 2459, Note_off_c, 1, 67, 0
1, 2460, Note_on_c, 1, 79, 127
1, 2460, Note_on_c, 1, 69, 127
1, 2460, Note_on_c, 1, 45, 127
1, 2460, Note_on_c, 1, 76, 127
1, 2460, Note_on_c, 1, 61, 127
1, 2460, Note_on_c, 1, 52, 127
1, 2489, Note_off_c, 1, 52, 0
1, 2490, Note_on_c, 1, 54, 127
1, 2519, Note_off_c, 1, 79, 0
1, 2519, Note_off_c, 1, 69, 0
1, 2519, Note_off_c, 1, 45, 0
1, 2519, Note_off_c, 1, 76, 0
1, 2519, Note_off_c, 1, 61, 0
1, 2519, Note_off_c, 1, 54, 0
1, 2520, Note_on_c, 1, 78, 127
1, 2520, Note_on_c, 1, 69, 127
1, 2520, Note_on_c, 1, 62, 127
1, 2520, Note_on_c, 1, 50, 127
1, 2550, Note_on_c, 1, 80, 127
1, 2550, Note_on_c, 1, 71, 127
1, 2579, Note_off_c, 1, 78, 0
1, 2579, Note_off_c, 1, 69, 0
1, 2579, Note_off_c, 1, 62, 0
1, 2579, Note_off_c, 1, 50, 0
1, 2579, Note_off_c, 1, 80, 0
1, 2579, Note_off_c, 1, 71, 0
1, 2580, Note_on_c, 1, 81, 127
1, 2580, Note_on_c, 1, 76, 127
1, 2580, Note_on_c, 1, 50, 127
1, 2580, Note_on_c, 1, 73, 127
1, 2580, Note_on_c, 1, 64, 127
1, 2580, Note_on_c, 1, 61, 127
1, 2594, Note_off_c, 1, 81, 0
1, 2595, Note_on_c, 1, 80, 127
1, 2609, Note_off_c, 1, 50, 0
1, 2609, Note_off_c, 1, 61, 0
1, 2609, Note_off_c, 1, 80, 0
1, 2610, Note_on_c, 1, 62, 127
1, 2639, Note_off_c, 1, 76, 0
1, 2639, Note_off_c, 1, 73, 0
1, 2639, Note_off_c, 1, 64, 0
1, 2639, Note_off_c, 1, 62, 0
1, 2640, Note_on_c, 1, 81, 127
1, 2640, Note_on_c, 1, 74, 127
1, 2640, Note_on_c, 1, 62, 127
1, 2640, Note_on_c, 1, 50, 127
1, 2640, Note_on_c, 1, 71, 127
1, 2640, Note_on_c, 1, 59, 127
1, 2654, Note_off_c, 1, 81, 0
1, 2655, Note_on_c, 1, 80, 127
1, 2669, Note_off_c, 1, 50, 0
1, 2669, Note_off_c, 1, 59, 0
1, 2669, Note_off_c, 1, 80, 0
1, 2670, Note_on_c, 1, 78, 127
1, 2670, Note_on_c, 1, 61, 127
1, 2684, Note_off_c, 1, 78, 0
1, 2699, Note_off_c, 1, 74, 0
1, 2699, Note_off_c, 1, 62, 0
1, 2699, Note_off_c, 1, 71, 0
1, 2699, Note_off_c, 1, 61, 0
1, 2700, Note_on_c, 1, 81, 127
1, 2700, Note_on_c, 1, 76, 127
1, 2700, Note_on_c, 1, 69, 127
1, 2700, Note_on_c, 1, 45, 127
1, 2700, Note_on_c, 1, 73, 127
1, 2700, Note_on_c, 1, 64, 127
1, 2700, Note_on_c, 1, 57, 127
1, 2729, Note_off_c, 1, 57, 0
1, 2730, Note_on_c, 1, 55, 127
1, 2759, Note_off_c, 1, 55, 0
1, 2790, Note_on_c, 1, 59, 127
1, 2819, Note_off_c, 1, 81, 0
1, 2819, Note_off_c, 1, 76, 0
1, 2819, Note_off_c, 1, 69, 0
1, 2819, Note_off_c, 1, 45, 0
1, 2819, Note_off_c, 1, 73, 0
1, 2819, Note_off_c, 1, 64, 0
1, 2819, Note_off_c, 1, 59, 0
1, 2820, Note_on_c, 1, 76, 127
1, 2820, Note_on_c, 1, 73, 127
1, 2820, Note_on_c, 1, 69, 127
1, 2820, Note_on_c, 1, 55, 127
1, 2849, Note_off_c, 1, 55, 0
1, 2850, Note_on_c, 1, 57, 127
1, 2879, Note_off_c, 1, 73, 0
1, 2879, Note_off_c, 1, 69, 0
1, 2879, Note_off_c, 1, 57, 0
1, 2880, Note_off_c, 1, 76, 0
1, 2880, Note_on_c, 1, 75, 127
1, 2880, Note_on_c, 1, 72, 127
1, 2880, Note_on_c, 1, 54, 127
1, 2909, Note_off_c, 1, 75, 0
1, 2909, Note_off_c, 1, 54, 0
1, 2910, Note_on_c, 1, 78, 127
1, 2910, Note_on_c, 1, 52, 127
1, 2939, Note_off_c, 1, 72, 0
1, 2939, Note_off_c, 1, 78, 0
1, 2939, Note_off_c, 1, 52, 0
1, 2940, Note_on_c, 1, 81, 127
1, 2940, Note_on_c, 1, 72, 127
1, 2940, Note_on_c, 1, 63, 127
1, 2940, Note_on_c, 1, 54, 127
1, 2969, Note_off_c, 1, 54, 0
1, 2970, Note_on_c, 1, 55, 127
1, 2999, Note_off_c, 1, 72, 0
1, 2999, Note_off_c, 1, 63, 0
1, 2999, Note_off_c, 1, 55, 0
1, 3000, Note_on_c, 1, 64, 127
1, 3000, Note_on_c, 1, 52, 127
1, 3029, Note_off_c, 1, 52, 0
1, 3059, Note_off_c, 1, 81, 0
1, 3059, Note_off_c, 1, 64, 0
1, 3060, Note_on_c, 1, 72, 127
1, 3060, Note_on_c, 1, 66, 127
1, 3060, Note_on_c, 1, 69, 127
1, 3060, Note_on_c, 1, 51, 127
1, 3074, Note_off_c, 1, 72, 0
1, 3075, Note_on_c, 1, 71, 127
1, 3089, Note_off_c, 1, 51, 0
1, 3089, Note_off_c, 1, 71, 0
1, 3090, Note_on_c, 1, 60, 127
1, 3119, Note_off_c, 1, 66, 0
1, 3119, Note_off_c, 1, 69, 0
1, 3119, Note_off_c, 1, 60, 0
1, 3120, Note_on_c, 1, 69, 127
1, 3120, Note_on_c, 1, 66, 127
1, 3120, Note_on_c, 1, 63, 127
1, 3120, Note_on_c, 1, 59, 127
1, 3149, Note_off_c, 1, 69, 0
1, 3149, Note_off_c, 1, 59, 0
1, 3150, Note_on_c, 1, 71, 127
1, 3150, Note_on_c, 1, 60, 127
1, 3179, Note_off_c, 1, 66, 0
1, 3179, Note_off_c, 1, 63, 0
1, 3179, Note_off_c, 1, 60, 0
1, 3180, Note_on_c, 1, 57, 127
1, 3209, Note_off_c, 1, 57, 0
1, 3240, Note_on_c, 1, 64, 127
1, 3240, Note_on_c, 1, 55, 127
1, 3269, Note_off_c, 1, 55, 0
1, 3270, Note_on_c, 1, 73, 127
1, 3270, Note_on_c, 1, 54, 127
1, 3284, Note_off_c, 1, 73, 0
1, 3285, Note_on_c, 1, 75, 127
1, 3299, Note_off_c, 1, 71, 0
1, 3299, Note_off_c, 1, 64, 0
1, 3299, Note_off_c, 1, 54, 0
1, 3299, Note_off_c, 1, 75, 0
1, 3300, Note_on_c, 1, 76, 127
1, 3300, Note_on_c, 1, 71, 127
1, 3300, Note_on_c, 1, 55, 127
1, 3329, Note_off_c, 1, 55, 0
1, 3330, Note_on_c, 1, 78, 127
1, 3330, Note_on_c, 1, 57, 127
1, 3344, Note_off_c, 1, 78, 0
1, 3345, Note_on_c, 1, 80, 127
1, 3359, Note_off_c, 1, 76, 0
1, 3359, Note_off_c, 1, 71, 0
1, 3359, Note_off_c, 1, 57, 0
1, 3359, Note_off_c, 1, 80, 0
1, 3360, Note_on_c, 1, 81, 127
1, 3360, Note_on_c, 1, 75, 127
1, 3360, Note_on_c, 1, 71, 127
1, 3360, Note_on_c, 1, 54, 127
1, 3389, Note_off_c, 1, 54, 0
1, 3390, Note_on_c, 1, 55, 127
1, 3419, Note_off_c, 1, 75, 0
1, 3419, Note_off_c, 1, 71, 0
1, 3419, Note_off_c, 1, 55, 0
1, 3420, Note_on_c, 1, 76, 127
1, 3420, Note_on_c, 1, 52, 127
1, 3449, Note_off_c, 1, 81, 0
1, 3449, Note_off_c, 1, 52, 0
1, 3450, Note_on_c, 1, 79, 127
1, 3450, Note_on_c, 1, 51, 127
1, 3464, Note_off_c, 1, 79, 0
1, 3465, Note_on_c, 1, 78, 127
1, 3479, Note_off_c, 1, 76, 0
1, 3479, Note_off_c, 1, 51, 0
1, 3479, Note_off_c, 1, 78, 0
1, 3480, Note_on_c, 1, 79, 127
1, 3480, Note_on_c, 1, 71, 127
1, 3480, Note_on_c, 1, 64, 127
1, 3480, Note_on_c, 1, 52, 127
1, 3509, Note_off_c, 1, 79, 0
1, 3509, Note_off_c, 1, 52, 0
1, 3510, Note_on_c, 1, 78, 127
1, 3510, Note_on_c, 1, 54, 127
1, 3524, Note_off_c, 1, 78, 0
1, 3525, Note_on_c, 1, 76, 127
1, 3539, Note_off_c, 1, 71, 0
1, 3539, Note_off_c, 1, 64, 0
1, 3539, Note_off_c, 1, 54, 0
1, 3539, Note_off_c, 1, 76, 0
1, 3540, Note_on_c, 1, 79, 127
1, 3540, Note_on_c, 1, 71, 127
1, 3540, Note_on_c, 1, 64, 127
1, 3540, Note_on_c, 1, 50, 127
1, 3569, Note_off_c, 1, 79, 0
1, 3569, Note_off_c, 1, 50, 0
1, 3570, Note_on_c, 1, 76, 127
1, 3570, Note_on_c, 1, 52, 127
1, 3584, Note_off_c, 1, 76, 0
1, 3585, Note_on_c, 1, 78, 127
1, 3599, Note_off_c, 1, 71, 0
1, 3599, Note_off_c, 1, 64, 0
1, 3599, Note_off_c, 1, 52, 0
1, 3599, Note_off_c, 1, 78, 0
1, 3600, Note_on_c, 1, 79, 127
1, 3600, Note_on_c, 1, 76, 127
1, 3600, Note_on_c, 1, 64, 127
1, 3600, Note_on_c, 1, 49, 127
1, 3629, Note_off_c, 1, 79, 0
1, 3629, Note_off_c, 1, 76, 0
1, 3629, Note_off_c, 1, 49, 0
1, 3630, Note_on_c, 1, 83, 127
1, 3630, Note_on_c, 1, 47, 127
1, 3644, Note_off_c, 1, 83, 0
1, 3645, Note_on_c, 1, 81, 127
1, 3645, Note_on_c, 1, 78, 127
1, 3659, Note_off_c, 1, 64, 0
1, 3659, Note_off_c, 1, 47, 0
1, 3659, Note_off_c, 1, 81, 0
1, 3659, Note_off_c, 1, 78, 0
1, 3660, Note_on_c, 1, 79, 127
1, 3660, Note_on_c, 1, 76, 127
1, 3660, Note_on_c, 1, 57, 127
1, 3660, Note_on_c, 1, 49, 127
1, 3689, Note_off_c, 1, 79, 0
1, 3689, Note_off_c, 1, 76, 0
1, 3689, Note_off_c, 1, 49, 0
1, 3690, Note_on_c, 1, 83, 127
1, 3690, Note_on_c, 1, 50, 127
1, 3704, Note_off_c, 1, 83, 0
1, 3705, Note_on_c, 1, 81, 127
1, 3705, Note_on_c, 1, 78, 127
1, 3719, Note_off_c, 1, 57, 0
1, 3719, Note_off_c, 1, 50, 0
1, 3719, Note_off_c, 1, 81, 0
1, 3719, Note_off_c, 1, 78, 0
1, 3720, Note_on_c, 1, 79, 127
1, 3720, Note_on_c, 1, 76, 127
1, 3720, Note_on_c, 1, 59, 127
1, 3720, Note_on_c, 1, 47, 127
1, 3749, Note_off_c, 1, 47, 0
1, 3750, Note_on_c, 1, 49, 127
1, 3779, Note_off_c, 1, 59, 0
1, 3779, Note_off_c, 1, 49, 0
1, 3780, Note_on_c, 1, 61, 127
1, 3780, Note_on_c, 1, 45, 127
1, 3809, Note_off_c, 1, 79, 0
1, 3809, Note_off_c, 1, 76, 0
1, 3809, Note_off_c, 1, 45, 0
1, 3810, Note_on_c, 1, 73, 127
1, 3810, Note_on_c, 1, 57, 127
1, 3824, Note_off_c, 1, 73, 0
1, 3825, Note_on_c, 1, 78, 127
1, 3825, Note_on_c, 1, 74, 127
1, 3839, Note_off_c, 1, 61, 0
1, 3839, Note_off_c, 1, 57, 0
1, 3839, Note_off_c, 1, 78, 0
1, 3839, Note_off_c, 1, 74, 0
1, 3840, Note_on_c, 1, 79, 127
1, 3840, Note_on_c, 1, 76, 127
1, 3840, Note_on_c, 1, 73, 127
1, 3840, Note_on_c, 1, 55, 127
1, 3869, Note_off_c, 1, 79, 0
1, 3869, Note_off_c, 1, 76, 0
1, 3869, Note_off_c, 1, 55, 0
1, 3870, Note_on_c, 1, 57, 127
1, 3885, Note_on_c, 1, 78, 127
1, 3885, Note_on_c, 1, 74, 127
1, 3899, Note_off_c, 1, 73, 0
1, 3899, Note_off_c, 1, 57, 0
1, 3899, Note_off_c, 1, 78, 0
1, 3899, Note_off_c, 1, 74, 0
1, 3900, Note_on_c, 1, 79, 127
1, 3900, Note_on_c, 1, 76, 127
1, 3900, Note_on_c, 1, 71, 127
1, 3900, Note_on_c, 1, 55, 127
1, 3929, Note_off_c, 1, 55, 0
1, 3930, Note_on_c, 1, 57, 127
1, 3959, Note_off_c, 1, 71, 0
1, 3959, Note_off_c, 1, 57, 0
1, 3960, Note_on_c, 1, 69, 127
1, 3960, Note_on_c, 1, 54, 127
1, 3989, Note_off_c, 1, 79, 0
1, 3989, Note_off_c, 1, 76, 0
1, 3989, Note_off_c, 1, 54, 0
1, 3990, Note_on_c, 1, 78, 127
1, 3990, Note_on_c, 1, 52, 127
1, 4004, Note_off_c, 1, 78, 0
1, 4019, Note_off_c, 1, 69, 0
1, 4019, Note_off_c, 1, 52, 0
1, 4020, Note_on_c, 1, 81, 127
1, 4020, Note_on_c, 1, 74, 127
1, 4020, Note_on_c, 1, 69, 127
1, 4020, Note_on_c, 1, 54, 127
1, 4049, Note_off_c, 1, 81, 0
1, 4049, Note_off_c, 1, 74, 0
1, 4049, Note_off_c, 1, 54, 0
1, 4050, Note_on_c, 1, 79, 127
1, 4050, Note_on_c, 1, 55, 127
1, 4064, Note_off_c, 1, 79, 0
1, 4065, Note_on_c, 1, 78, 127
1, 4079, Note_off_c, 1, 69, 0
1, 4079, Note_off_c, 1, 55, 0
1, 4079, Note_off_c, 1, 78, 0
1, 4080, Note_on_c, 1, 79, 127
1, 4080, Note_on_c, 1, 73, 127
1, 4080, Note_on_c, 1, 69, 127
1, 4080, Note_on_c, 1, 52, 127
1, 4109, Note_off_c, 1, 79, 0
1, 4109, Note_off_c, 1, 73, 0
1, 4109, Note_off_c, 1, 52, 0
1, 4110, Note_on_c, 1, 78, 127
1, 4110, Note_on_c, 1, 54, 127
1, 4124, Note_off_c, 1, 78, 0
1, 4125, Note_on_c, 1, 76, 127
1, 4139, Note_off_c, 1, 69, 0
1, 4139, Note_off_c, 1, 54, 0
1, 4139, Note_off_c, 1, 76, 0
1, 4140, Note_on_c, 1, 78, 127
1, 4140, Note_on_c, 1, 74, 127
1, 4140, Note_on_c, 1, 69, 127
1, 4140, Note_on_c, 1, 50, 127
1, 4169, Note_off_c, 1, 78, 0
1, 4169, Note_off_c, 1, 74, 0
1, 4169, Note_off_c, 1, 50, 0
1, 4170, Note_on_c, 1, 81, 127
1, 4170, Note_on_c, 1, 49, 127
1, 4184, Note_off_c, 1, 81, 0
1, 4185, Note_on_c, 1, 79, 127
1, 4185, Note_on_c, 1, 76, 127
1, 4199, Note_off_c, 1, 69, 0
1, 4199, Note_off_c, 1, 49, 0
1, 4199, Note_off_c, 1, 79, 0
1, 4199, Note_off_c, 1, 76, 0
1, 4200, Note_on_c, 1, 78, 127
1, 4200, Note_on_c, 1, 74, 127
1, 4200, Note_on_c, 1, 69, 127
1, 4200, Note_on_c, 1, 50, 127
1, 4229, Note_off_c, 1, 78, 0
1, 4229, Note_off_c, 1, 74, 0
1, 4229, Note_off_c, 1, 50, 0
1, 4230, Note_on_c, 1, 81, 127
1, 4230, Note_on_c, 1, 52, 127
1, 4244, Note_off_c, 1, 81, 0
1, 4245, Note_on_c, 1, 79, 127
1, 4245, Note_on_c, 1, 76, 127
1, 4259, Note_off_c, 1, 69, 0
1, 4259, Note_off_c, 1, 52, 0
1, 4259, Note_off_c, 1, 79, 0
1, 4259, Note_off_c, 1, 76, 0
1, 4260, Note_on_c, 1, 78, 127
1, 4260, Note_on_c, 1, 74, 127
1, 4260, Note_on_c, 1, 69, 127
1, 4260, Note_on_c, 1, 49, 127
1, 4289, Note_off_c, 1, 49, 0
1, 4290, Note_on_c, 1, 50, 127
1, 4305, Note_on_c, 1, 76, 127
1, 4319, Note_off_c, 1, 69, 0
1, 4319, Note_off_c, 1, 50, 0
1, 4319, Note_off_c, 1, 76, 0
1, 4320, Note_on_c, 1, 83, 127
1, 4320, Note_on_c, 1, 62, 127
1, 4320, Note_on_c, 1, 47, 127
1, 4349, Note_off_c, 1, 62, 0
1, 4349, Note_off_c, 1, 47, 0
1, 4380, Note_off_c, 1, 78, 0
1, 4380, Note_on_c, 1, 80, 127
1, 4380, Note_on_c, 1, 71, 127
1, 4380, Note_on_c, 1, 59, 127
1, 4394, Note_off_c, 1, 83, 0
1, 4409, Note_off_c, 1, 74, 0
1, 4409, Note_off_c, 1, 80, 0
1, 4409, Note_off_c, 1, 71, 0
1, 4409, Note_off_c, 1, 59, 0
1, 4410, Note_on_c, 1, 78, 127
1, 4424, Note_off_c, 1, 78, 0
1, 4425, Note_on_c, 1, 80, 127
1, 4439, Note_off_c, 1, 80, 0
1, 4440, Note_on_c, 1, 81, 127
1, 4440, Note_on_c, 1, 78, 127
1, 4440, Note_on_c, 1, 74, 127
1, 4440, Note_on_c, 1, 57, 127
1, 4469, Note_off_c, 1, 81, 0
1, 4469, Note_off_c, 1, 78, 0
1, 4469, Note_off_c, 1, 57, 0
1, 4470, Note_on_c, 1, 80, 127
1, 4484, Note_off_c, 1, 80, 0
1, 4500, Note_on_c, 1, 83, 127
1, 4500, Note_on_c, 1, 76, 127
1, 4500, Note_on_c, 1, 71, 127
1, 4500, Note_on_c, 1, 56, 127
1, 4529, Note_off_c, 1, 71, 0
1, 4559, Note_off_c, 1, 83, 0
1, 4560, Note_off_c, 1, 74, 0
1, 4560, Note_on_c, 1, 68, 127
1, 4574, Note_off_c, 1, 56, 0
1, 4575, Note_on_c, 1, 85, 127
1, 4589, Note_off_c, 1, 68, 0
1, 4589, Note_off_c, 1, 85, 0
1, 4605, Note_on_c, 1, 54, 127
1, 4619, Note_off_c, 1, 54, 0
1, 4620, Note_on_c, 1, 52, 127
1, 4634, Note_off_c, 1, 52, 0
1, 4635, Note_on_c, 1, 50, 127
1, 4649, Note_off_c, 1, 50, 0
1, 4650, Note_on_c, 1, 49, 127
1, 4664, Note_off_c, 1, 49, 0
1, 4665, Note_on_c, 1, 47, 127
1, 4679, Note_off_c, 1, 47, 0
1, 4680, Note_on_c, 1, 69, 127
1, 4680, Note_on_c, 1, 45, 127
1, 4680, Note_on_c, 1, 73, 127
1, 4680, Note_on_c, 1, 64, 127
1, 4709, Note_off_c, 1, 73, 0
1, 4709, Note_off_c, 1, 64, 0
1, 4740, Note_off_c, 1, 76, 0
1, 4740, Note_off_c, 1, 45, 0
1, 4769, Note_off_c, 1, 69, 0
1, 4770, Note_on_c, 1, 76, 127
1, 4784, Note_off_c, 1, 76, 0
1, 4785, Note_on_c, 1, 78, 127
1, 4799, Note_off_c, 1, 78, 0
1, 4800, Note_on_c, 1, 79, 127
1, 4800, Note_on_c, 1, 76, 127
1, 4800, Note_on_c, 1, 72, 127
1, 4800, Note_on_c, 1, 55, 127
1, 4829, Note_off_c, 1, 79, 0
1, 4829, Note_off_c, 1, 76, 0
1, 4829, Note_off_c, 1, 55, 0
1, 4830, Note_on_c, 1, 78, 127
1, 4844, Note_off_c, 1, 78, 0
1, 4860, Note_on_c, 1, 81, 127
1, 4860, Note_on_c, 1, 74, 127
1, 4860, Note_on_c, 1, 69, 127
1, 4860, Note_on_c, 1, 54, 127
1, 4919, Note_off_c, 1, 72, 0
1, 4919, Note_off_c, 1, 81, 0
1, 4920, Note_on_c, 1, 66, 127
1, 4934, Note_off_c, 1, 54, 0
1, 4935, Note_on_c, 1, 83, 127
1, 4949, Note_off_c, 1, 69, 0
1, 4949, Note_off_c, 1, 66, 0
1, 4949, Note_off_c, 1, 83, 0
1, 4965, Note_on_c, 1, 52, 127
1, 4979, Note_off_c, 1, 52, 0
1, 4980, Note_on_c, 1, 50, 127
1, 4994, Note_off_c, 1, 50, 0
1, 4995, Note_on_c, 1, 48, 127
1, 5009, Note_off_c, 1, 48, 0
1, 5010, Note_on_c, 1, 47, 127
1, 5024, Note_off_c, 1, 47, 0
1, 5025, Note_on_c, 1, 45, 127
1, 5039, Note_off_c, 1, 45, 0
1, 5040, Note_on_c, 1, 71, 127
1, 5040, Note_on_c, 1, 43, 127
1, 5055, Note_on_c, 1, 67, 127
1, 5069, Note_off_c, 1, 71, 0
1, 5069, Note_off_c, 1, 43, 0
1, 5069, Note_off_c, 1, 67, 0
1, 5070, Note_on_c, 1, 73, 127
1, 5084, Note_off_c, 1, 73, 0
1, 5100, Note_off_c, 1, 74, 0
1, 5100, Note_on_c, 1, 64, 127
1, 5129, Note_off_c, 1, 64, 0
1, 5130, Note_on_c, 1, 74, 127
1, 5130, Note_on_c, 1, 71, 127
1, 5144, Note_off_c, 1, 74, 0
1, 5144, Note_off_c, 1, 71, 0
1, 5145, Note_on_c, 1, 76, 127
1, 5145, Note_on_c, 1, 73, 127
1, 5159, Note_off_c, 1, 76, 0
1, 5159, Note_off_c, 1, 73, 0
1, 5160, Note_on_c, 1, 78, 127
1, 5160, Note_on_c, 1, 74, 127
1, 5160, Note_on_c, 1, 69, 127
1, 5160, Note_on_c, 1, 57, 127
1, 5160, Note_on_c, 1, 54, 127
1, 5174, Note_off_c, 1, 74, 0
1, 5175, Note_on_c, 1, 71, 127
1, 5189, Note_off_c, 1, 78, 0
1, 5189, Note_off_c, 1, 69, 0
1, 5189, Note_off_c, 1, 57, 0
1, 5189, Note_off_c, 1, 54, 0
1, 5189, Note_off_c, 1, 71, 0
1, 5190, Note_on_c, 1, 76, 127
1, 5190, Note_on_c, 1, 73, 127
1, 5204, Note_off_c, 1, 76, 0
1, 5204, Note_off_c, 1, 73, 0
1, 5205, Note_on_c, 1, 78, 127
1, 5205, Note_on_c, 1, 74, 127
1, 5219, Note_off_c, 1, 78, 0
1, 5219, Note_off_c, 1, 74, 0
1, 5220, Note_on_c, 1, 79, 127
1, 5220, Note_on_c, 1, 83, 127
1, 5220, Note_on_c, 1, 76, 127
1, 5220, Note_on_c, 1, 71, 127
1, 5220, Note_on_c, 1, 64, 127
1, 5220, Note_on_c, 1, 52, 127
1, 5235, Note_on_c, 1, 73, 127
1, 5249, Note_off_c, 1, 71, 0
1, 5249, Note_off_c, 1, 64, 0
1, 5249, Note_off_c, 1, 52, 0
1, 5249, Note_off_c, 1, 73, 0
1, 5250, Note_on_c, 1, 74, 127
1, 5264, Note_off_c, 1, 74, 0
1, 5279, Note_off_c, 1, 79, 0
1, 5280, Note_off_c, 1, 76, 0
1, 5280, Note_on_c, 1, 78, 127
1, 5280, Note_on_c, 1, 47, 127
1, 5294, Note_off_c, 1, 78, 0
1, 5309, Note_off_c, 1, 83, 0
1, 5309, Note_off_c, 1, 47, 0
1, 5310, Note_on_c, 1, 81, 127
1, 5310, Note_on_c, 1, 76, 127
1, 5324, Note_off_c, 1, 76, 0
1, 5325, Note_on_c, 1, 78, 127
1, 5339, Note_off_c, 1, 81, 0
1, 5339, Note_off_c, 1, 78, 0
1, 5340, Note_on_c, 1, 79, 127
1, 5340, Note_on_c, 1, 50, 127
1, 5355, Note_on_c, 1, 76, 127
1, 5369, Note_off_c, 1, 50, 0
1, 5369, Note_off_c, 1, 76, 0
1, 5370, Note_on_c, 1, 78, 127
1, 5384, Note_off_c, 1, 78, 0
1, 5399, Note_off_c, 1, 79, 0
1, 5400, Note_on_c, 1, 79, 127
1, 5400, Note_on_c, 1, 81, 127
1, 5400, Note_on_c, 1, 76, 127
1, 5400, Note_on_c, 1, 45, 127
1, 5400, Note_on_c, 1, 57, 127
1, 5400, Note_on_c, 1, 49, 127
1, 5415, Note_on_c, 1, 78, 127
1, 5429, Note_off_c, 1, 57, 0
1, 5429, Note_off_c, 1, 49, 0
1, 5429, Note_off_c, 1, 78, 0
1, 5460, Note_off_c, 1, 81, 0
1, 5460, Note_off_c, 1, 76, 0
1, 5460, Note_on_c, 1, 83, 127
1, 5460, Note_on_c, 1, 52, 127
1, 5474, Note_off_c, 1, 83, 0
1, 5489, Note_off_c, 1, 52, 0
1, 5520, Note_on_c, 1, 85, 127
1, 5534, Note_off_c, 1, 85, 0
1, 5579, Note_off_c, 1, 79, 0
1, 5580, Note_off_c, 1, 45, 0
1, 5580, Note_on_c, 1, 69, 127
1, 5580, Note_on_c, 1, 50, 127
1, 5580, Note_on_c, 1, 86, 127
1, 5580, Note_on_c, 1, 74, 127
1, 5609, Note_off_c, 1, 86, 0
1, 5609, Note_off_c, 1, 74, 0
1, 5624, Note_off_c, 1, 50, 0
1, 5640, Note_on_c, 1, 62, 127
1, 5640, Note_on_c, 1, 42, 127
1, 5669, Note_off_c, 1, 62, 0
1, 5669, Note_off_c, 1, 42, 0
1, 5700, Note_on_c, 1, 73, 127
1, 5700, Note_on_c, 1, 64, 127
1, 5729, Note_off_c, 1, 73, 0
1, 5729, Note_off_c, 1, 64, 0
1, 5760, Note_on_c, 1, 66, 127
1, 5760, Note_on_c, 1, 38, 127
1, 5789, Note_off_c, 1, 66, 0
1, 5819, Note_off_c, 1, 38, 0
1, 5820, Note_off_c, 1, 69, 0
1, 5880, Note_on_c, 1, 62, 127
1, 5880, Note_on_c, 1, 50, 127
1, 5939, Note_off_c, 1, 62, 0
1, 5939, Note_off_c, 1, 50, 0
1, 5940, Note_on_c, 1, 57, 127
1, 5940, Note_on_c, 1, 62, 127
1, 5940, Note_on_c, 1, 50, 127
1, 5970, Note_on_c, 1, 66, 127
1, 5984, Note_off_c, 1, 66, 0
1, 5985, Note_on_c, 1, 67, 127
1, 5985, Note_on_c, 1, 64, 127
1, 5999, Note_off_c, 1, 62, 0
1, 5999, Note_off_c, 1, 50, 0
1, 5999, Note_off_c, 1, 67, 0
1, 5999, Note_off_c, 1, 64, 0
1, 6000, Note_on_c, 1, 69, 127
1, 6000, Note_on_c, 1, 45, 127
1, 6014, Note_off_c, 1, 69, 0
1, 6059, Note_off_c, 1, 57, 0
1, 6059, Note_off_c, 1, 45, 0
1, 6060, Note_on_c, 1, 69, 127
1, 6060, Note_on_c, 1, 66, 127
1, 6074, Note_off_c, 1, 69, 0
1, 6074, Note_off_c, 1, 66, 0
1, 6075, Note_on_c, 1, 67, 127
1, 6075, Note_on_c, 1, 64, 127
1, 6089, Note_off_c, 1, 67, 0
1, 6089, Note_off_c, 1, 64, 0
1, 6090, Note_on_c, 1, 66, 127
1, 6090, Note_on_c, 1, 62, 127
1, 6104, Note_off_c, 1, 66, 0
1, 6104, Note_off_c, 1, 62, 0
1, 6105, Note_on_c, 1, 67, 127
1, 6105, Note_on_c, 1, 64, 127
1, 6119, Note_off_c, 1, 67, 0
1, 6119, Note_off_c, 1, 64, 0
1, 6120, Note_on_c, 1, 50, 127
1, 6120, Note_on_c, 1, 69, 127
1, 6120, Note_on_c, 1, 66, 127
1, 6120, Note_on_c, 1, 62, 127
1, 6120, Note_on_c, 1, 38, 127
1, 6179, Note_off_c, 1, 69, 0
1, 6179, Note_off_c, 1, 66, 0
1, 6179, Note_off_c, 1, 38, 0
1, 6180, Note_off_c, 1, 62, 0
1, 6300, Note_on_c, 1, 74, 127
1, 6345, Note_on_c, 1, 76, 127
1, 6345, Note_on_c, 1, 67, 127
1, 6359, Note_off_c, 1, 74, 0
1, 6359, Note_off_c, 1, 76, 0
1, 6359, Note_off_c, 1, 67, 0
1, 6360, Note_off_c, 1, 50, 0
1, 6360, Note_on_c, 1, 45, 127
1, 6360, Note_on_c, 1, 78, 127
1, 6374, Note_off_c, 1, 78, 0
1, 6420, Note_off_c, 1, 45, 0
1, 6420, Note_on_c, 1, 57, 127
1, 6479, Note_off_c, 1, 57, 0
1, 6480, Note_on_c, 1, 78, 127
1, 6480, Note_on_c, 1, 69, 127
1, 6480, Note_on_c, 1, 66, 127
1, 6480, Note_on_c, 1, 62, 127
1, 6480, Note_on_c, 1, 57, 127
1, 6480, Note_on_c, 1, 38, 127
1, 6539, Note_off_c, 1, 78, 0
1, 6539, Note_off_c, 1, 69, 0
1, 6539, Note_off_c, 1, 66, 0
1, 6539, Note_off_c, 1, 62, 0
1, 6539, Note_off_c, 1, 57, 0
1, 6539, Note_off_c, 1, 38, 0
1, 6540, Note_on_c, 1, 74, 127
1, 6540, Note_on_c, 1, 62, 127
1, 6569, Note_off_c, 1, 74, 0
1, 6569, Note_off_c, 1, 62, 0
1, 6570, Note_on_c, 1, 69, 127
1, 6570, Note_on_c, 1, 57, 127
1, 6599, Note_off_c, 1, 69, 0
1, 6599, Note_off_c, 1, 57, 0
1, 6600, Note_on_c, 1, 66, 127
1, 6600, Note_on_c, 1, 54, 127
1, 6629, Note_off_c, 1, 66, 0
1, 6629, Note_off_c, 1, 54, 0
1, 6630, Note_on_c, 1, 62, 127
1, 6630, Note_on_c, 1, 50, 127
1, 6659, Note_off_c, 1, 62, 0
1, 6659, Note_off_c, 1, 50, 0
1, 6660, Note_on_c, 1, 74, 127
1, 6660, Note_on_c, 1, 69, 127
1, 6660, Note_on_c, 1, 66, 127
1, 6660, Note_on_c, 1, 57, 127
1, 6660, Note_on_c, 1, 62, 127
1, 6690, Note_on_c, 1, 78, 127
1, 6704, Note_off_c, 1, 78, 0
1, 6705, Note_on_c, 1, 79, 127
1, 6705, Note_on_c, 1, 76, 127
1, 6719, Note_off_c, 1, 74, 0
1, 6719, Note_off_c, 1, 69, 0
1, 6719, Note_off_c, 1, 66, 0
1, 6719, Note_off_c, 1, 57, 0
1, 6719, Note_off_c, 1, 62, 0
1, 6719, Note_off_c, 1, 79, 0
1, 6719, Note_off_c, 1, 76, 0
1, 6720, Note_on_c, 1, 81, 127
1, 6720, Note_on_c, 1, 78, 127
1, 6720, Note_on_c, 1, 69, 127
1, 6720, Note_on_c, 1, 57, 127
1, 6734, Note_off_c, 1, 81, 0
1, 6734, Note_off_c, 1, 78, 0
1, 6735, Note_on_c, 1, 79, 127
1, 6735, Note_on_c, 1, 76, 127
1, 6749, Note_off_c, 1, 79, 0
1, 6749, Note_off_c, 1, 76, 0
1, 6779, Note_off_c, 1, 69, 0
1, 6779, Note_off_c, 1, 57, 0
1, 6780, Note_on_c, 1, 81, 127
1, 6780, Note_on_c, 1, 78, 127
1, 6794, Note_off_c, 1, 81, 0
1, 6794, Note_off_c, 1, 78, 0
1, 6795, Note_on_c, 1, 79, 127
1, 6795, Note_on_c, 1, 76, 127
1, 6809, Note_off_c, 1, 79, 0
1, 6809, Note_off_c, 1, 76, 0
1, 6810, Note_on_c, 1, 78, 127
1, 6810, Note_on_c, 1, 74, 127
1, 6824, Note_off_c, 1, 78, 0
1, 6824, Note_off_c, 1, 74, 0
1, 6825, Note_on_c, 1, 79, 127
1, 6825, Note_on_c, 1, 76, 127
1, 6839, Note_off_c, 1, 79, 0
1, 6839, Note_off_c, 1, 76, 0
1, 6840, Note_on_c, 1, 62, 127
1, 6840, Note_on_c, 1, 50, 127
1, 6840, Note_on_c, 1, 81, 127
1, 6840, Note_on_c, 1, 78, 127
1, 6840, Note_on_c, 1, 69, 127
1, 6840, Note_on_c, 1, 66, 127
1, 6840, Note_on_c, 1, 38, 127
1, 6854, Note_off_c, 1, 50, 0
1, 6854, Note_off_c, 1, 81, 0
1, 6854, Note_off_c, 1, 78, 0
1, 6855, Note_on_c, 1, 86, 127
1, 6869, Note_off_c, 1, 86, 0
1, 6870, Note_on_c, 1, 85, 127
1, 6884, Note_off_c, 1, 85, 0
1, 6885, Note_on_c, 1, 83, 127
1, 6899, Note_off_c, 1, 62, 0
1, 6899, Note_off_c, 1, 69, 0
1, 6899, Note_off_c, 1, 66, 0
1, 6899, Note_off_c, 1, 38, 0
1, 6899, Note_off_c, 1, 83, 0
1, 6900, Note_on_c, 1, 66, 127
1, 6900, Note_on_c, 1, 50, 127
1, 6900, Note_on_c, 1, 81, 127
1, 6900, Note_on_c, 1, 74, 127
1, 6900, Note_on_c, 1, 62, 127
1, 6914, Note_off_c, 1, 50, 0
1, 6915, Note_on_c, 1, 86, 127
1, 6929, Note_off_c, 1, 86, 0
1, 6930, Note_on_c, 1, 85, 127
1, 6944, Note_off_c, 1, 85, 0
1, 6945, Note_on_c, 1, 83, 127
1, 6959, Note_off_c, 1, 66, 0
1, 6959, Note_off_c, 1, 81, 0
1, 6959, Note_off_c, 1, 74, 0
1, 6959, Note_off_c, 1, 62, 0
1, 6959, Note_off_c, 1, 83, 0
1, 6960, Note_on_c, 1, 66, 127
1, 6960, Note_on_c, 1, 50, 127
1, 6960, Note_on_c, 1, 81, 127
1, 6960, Note_on_c, 1, 78, 127
1, 6960, Note_on_c, 1, 69, 127
1, 6960, Note_on_c, 1, 62, 127
1, 6974, Note_off_c, 1, 81, 0
1, 6975, Note_on_c, 1, 79, 127
1, 6989, Note_off_c, 1, 66, 0
1, 6989, Note_off_c, 1, 79, 0
1, 7005, Note_on_c, 1, 76, 127
1, 7019, Note_off_c, 1, 50, 0
1, 7019, Note_off_c, 1, 78, 0
1, 7019, Note_off_c, 1, 69, 0
1, 7019, Note_off_c, 1, 62, 0
1, 7019, Note_off_c, 1, 76, 0
1, 7020, Note_on_c, 1, 74, 127
1, 7020, Note_on_c, 1, 62, 127
1, 7020, Note_on_c, 1, 50, 127
1, 7020, Note_on_c, 1, 78, 127
1, 7020, Note_on_c, 1, 57, 127
1, 7034, Note_off_c, 1, 50, 0
1, 7049, Note_off_c, 1, 62, 0
1, 7050, Note_on_c, 1, 69, 127
1, 7050, Note_on_c, 1, 73, 127
1, 7064, Note_off_c, 1, 73, 0
1, 7065, Note_on_c, 1, 71, 127
1, 7079, Note_off_c, 1, 57, 0
1, 7079, Note_off_c, 1, 69, 0
1, 7079, Note_off_c, 1, 71, 0
1, 7080, Note_on_c, 1, 66, 127
1, 7109, Note_off_c, 1, 66, 0
1, 7155, Note_on_c, 1, 67, 127
1, 7169, Note_off_c, 1, 67, 0
1, 7185, Note_on_c, 1, 64, 127
1, 7199, Note_off_c, 1, 64, 0
1, 7200, Note_on_c, 1, 81, 127
1, 7200, Note_on_c, 1, 38, 127
1, 7230, Note_on_c, 1, 61, 127
1, 7244, Note_off_c, 1, 61, 0
1, 7245, Note_on_c, 1, 59, 127
1, 7259, Note_off_c, 1, 81, 0
1, 7259, Note_off_c, 1, 38, 0
1, 7259, Note_off_c, 1, 59, 0
1, 7335, Note_on_c, 1, 55, 127
1, 7349, Note_off_c, 1, 55, 0
1, 7350, Note_on_c, 1, 54, 127
1, 7364, Note_off_c, 1, 54, 0
1, 7365, Note_on_c, 1, 52, 127
1, 7379, Note_off_c, 1, 52, 0
1, 7410, Note_on_c, 1, 49, 127
1, 7424, Note_off_c, 1, 49, 0
1, 7425, Note_on_c, 1, 47, 127
1, 7439, Note_off_c, 1, 47, 0
1, 7440, Note_on_c, 1, 45, 127
1, 7454, Note_off_c, 1, 45, 0
1, 7515, Note_on_c, 1, 43, 127
1, 7529, Note_off_c, 1, 43, 0
1, 7530, Note_on_c, 1, 42, 127
1, 7544, Note_off_c, 1, 42, 0
1, 7545, Note_on_c, 1, 40, 127
1, 7559, Note_off_c, 1, 40, 0
1, 7650, Note_off_c, 1, 74, 0
1, 7679, Note_off_c, 1, 78, 0
1, 7680, Note_on_c, 1, 50, 127
1, 7680, Note_on_c, 1, 78, 127
1, 7680, Note_on_c, 1, 74, 127
1, 7680, Note_on_c, 1, 57, 127
1, 7680, Note_on_c, 1, 69, 127
1, 7680, Note_on_c, 1, 62, 127
1, 7680, Note_on_c, 1, 38, 127
1, 7697, Note_off_c, 1, 57, 0
1, 7710, Note_off_c, 1, 74, 0
1, 7739, Note_off_c, 1, 50, 0
1, 7739, Note_off_c, 1, 78, 0
1, 7739, Note_off_c, 1, 69, 0
1, 7739, Note_off_c, 1, 62, 0
1, 7739, Note_off_c, 1, 38, 0
1, 7740, Note_on_c, 1, 50, 127
1, 7740, Note_on_c, 1, 78, 127
1, 7740, Note_on_c, 1, 74, 127
1, 7740, Note_on_c, 1, 57, 127
1, 7740, Note_on_c, 1, 69, 127
1, 7740, Note_on_c, 1, 62, 127
1, 7740, Note_on_c, 1, 45, 127
1, 7799, Note_off_c, 1, 50, 0
1, 7799, Note_off_c, 1, 57, 0
1, 7799, Note_off_c, 1, 69, 0
1, 7799, Note_off_c, 1, 62, 0
1, 7800, Note_off_c, 1, 78, 0
1, 7800, Note_off_c, 1, 74, 0
1, 7800, Note_on_c, 1, 76, 127
1, 7800, Note_on_c, 1, 73, 127
1, 7800, Note_on_c, 1, 61, 127
1, 7829, Note_off_c, 1, 61, 0
1, 7830, Note_off_c, 1, 76, 0
1, 7830, Note_off_c, 1, 73, 0
1, 7830, Note_on_c, 1, 71, 127
1, 7830, Note_on_c, 1, 59, 127
1, 7859, Note_off_c, 1, 45, 0
1, 7859, Note_off_c, 1, 59, 0
1, 7860, Note_off_c, 1, 71, 0
1, 7920, Note_on_c, 1, 79, 127
1, 7920, Note_on_c, 1, 64, 127
1, 7979, Note_off_c, 1, 79, 0
1, 7979, Note_off_c, 1, 64, 0
1, 7980, Note_on_c, 1, 79, 127
1, 7980, Note_on_c, 1, 76, 127
1, 7980, Note_on_c, 1, 69, 127
1, 7980, Note_on_c, 1, 57, 127
1, 7980, Note_on_c, 1, 64, 127
1, 7980, Note_on_c, 1, 61, 127
1, 7980, Note_on_c, 1, 49, 127
1, 7997, Note_off_c, 1, 57, 0
1, 8009, Note_off_c, 1, 76, 0
1, 8039, Note_off_c, 1, 79, 0
1, 8039, Note_off_c, 1, 69, 0
1, 8039, Note_off_c, 1, 64, 0
1, 8039, Note_off_c, 1, 61, 0
1, 8039, Note_off_c, 1, 49, 0
1, 8040, Note_on_c, 1, 79, 127
1, 8040, Note_on_c, 1, 76, 127
1, 8040, Note_on_c, 1, 69, 127
1, 8040, Note_on_c, 1, 57, 127
1, 8040, Note_on_c, 1, 73, 127
1, 8040, Note_on_c, 1, 64, 127
1, 8040, Note_on_c, 1, 45, 127
1, 8069, Note_off_c, 1, 76, 0
1, 8069, Note_off_c, 1, 69, 0
1, 8099, Note_off_c, 1, 79, 0
1, 8099, Note_off_c, 1, 57, 0
1, 8099, Note_off_c, 1, 73, 0
1, 8099, Note_off_c, 1, 64, 0
1, 8099, Note_off_c, 1, 45, 0
1, 8100, Note_on_c, 1, 79, 127
1, 8100, Note_on_c, 1, 76, 127
1, 8100, Note_on_c, 1, 69, 127
1, 8100, Note_on_c, 1, 57, 127
1, 8100, Note_on_c, 1, 64, 127
1, 8100, Note_on_c, 1, 62, 127
1, 8100, Note_on_c, 1, 50, 127
1, 8117, Note_off_c, 1, 57, 0
1, 8159, Note_off_c, 1, 79, 0
1, 8159, Note_off_c, 1, 76, 0
1, 8159, Note_off_c, 1, 69, 0
1, 8159, Note_off_c, 1, 64, 0
1, 8159, Note_off_c, 1, 62, 0
1, 8160, Note_on_c, 1, 78, 127
1, 8160, Note_on_c, 1, 74, 127
1, 8189, Note_off_c, 1, 78, 0
1, 8189, Note_off_c, 1, 74, 0
1, 8190, Note_on_c, 1, 73, 127
1, 8190, Note_on_c, 1, 61, 127
1, 8219, Note_off_c, 1, 50, 0
1, 8219, Note_off_c, 1, 73, 0
1, 8219, Note_off_c, 1, 61, 0
1, 8220, Note_on_c, 1, 78, 127
1, 8220, Note_on_c, 1, 74, 127
1, 8220, Note_on_c, 1, 66, 127
1, 8220, Note_on_c, 1, 69, 127
1, 8220, Note_on_c, 1, 62, 127
1, 8249, Note_off_c, 1, 66, 0
1, 8250, Note_on_c, 1, 79, 127
1, 8250, Note_on_c, 1, 71, 127
1, 8250, Note_on_c, 1, 67, 127
1, 8279, Note_off_c, 1, 78, 0
1, 8279, Note_off_c, 1, 74, 0
1, 8279, Note_off_c, 1, 62, 0
1, 8279, Note_off_c, 1, 79, 0
1, 8279, Note_off_c, 1, 71, 0
1, 8279, Note_off_c, 1, 67, 0
1, 8280, Note_on_c, 1, 81, 127
1, 8280, Note_on_c, 1, 72, 127
1, 8280, Note_on_c, 1, 54, 127
1, 8280, Note_on_c, 1, 50, 127
1, 8309, Note_off_c, 1, 72, 0
1, 8309, Note_off_c, 1, 50, 0
1, 8310, Note_on_c, 1, 52, 127
1, 8339, Note_off_c, 1, 69, 0
1, 8339, Note_off_c, 1, 81, 0
1, 8339, Note_off_c, 1, 54, 0
1, 8339, Note_off_c, 1, 52, 0
1, 8340, Note_on_c, 1, 72, 127
1, 8340, Note_on_c, 1, 69, 127
1, 8340, Note_on_c, 1, 62, 127
1, 8340, Note_on_c, 1, 50, 127
1, 8340, Note_on_c, 1, 54, 127
1, 8369, Note_off_c, 1, 54, 0
1, 8370, Note_on_c, 1, 52, 127
1, 8399, Note_off_c, 1, 72, 0
1, 8399, Note_off_c, 1, 69, 0
1, 8399, Note_off_c, 1, 62, 0
1, 8399, Note_off_c, 1, 50, 0
1, 8399, Note_off_c, 1, 52, 0
1, 8400, Note_on_c, 1, 72, 127
1, 8400, Note_on_c, 1, 69, 127
1, 8400, Note_on_c, 1, 62, 127
1, 8400, Note_on_c, 1, 54, 127
1, 8430, Note_on_c, 1, 50, 127
1, 8459, Note_off_c, 1, 72, 0
1, 8459, Note_off_c, 1, 69, 0
1, 8459, Note_off_c, 1, 62, 0
1, 8459, Note_off_c, 1, 54, 0
1, 8459, Note_off_c, 1, 50, 0
1, 8460, Note_on_c, 1, 72, 127
1, 8460, Note_on_c, 1, 69, 127
1, 8460, Note_on_c, 1, 62, 127
1, 8460, Note_on_c, 1, 55, 127
1, 8475, Note_on_c, 1, 74, 127
1, 8475, Note_on_c, 1, 71, 127
1, 8490, Note_off_c, 1, 74, 0
1, 8490, Note_off_c, 1, 71, 0
1, 8490, Note_on_c, 1, 57, 127
1, 8519, Note_off_c, 1, 72, 0
1, 8519, Note_off_c, 1, 69, 0
1, 8519, Note_off_c, 1, 62, 0
1, 8519, Note_off_c, 1, 55, 0
1, 8519, Note_off_c, 1, 57, 0
1, 8520, Note_on_c, 1, 71, 127
1, 8520, Note_on_c, 1, 67, 127
1, 8520, Note_on_c, 1, 62, 127
1, 8520, Note_on_c, 1, 54, 127
1, 8550, Note_on_c, 1, 55, 127
1, 8579, Note_off_c, 1, 71, 0
1, 8579, Note_off_c, 1, 67, 0
1, 8579, Note_off_c, 1, 62, 0
1, 8579, Note_off_c, 1, 54, 0
1, 8579, Note_off_c, 1, 55, 0
1, 8580, Note_on_c, 1, 79, 127
1, 8580, Note_on_c, 1, 69, 127
1, 8580, Note_on_c, 1, 45, 127
1, 8580, Note_on_c, 1, 76, 127
1, 8580, Note_on_c, 1, 61, 127
1, 8580, Note_on_c, 1, 64, 127
1, 8580, Note_on_c, 1, 52, 127
1, 8610, Note_on_c, 1, 54, 127
1, 8639, Note_off_c, 1, 69, 0
1, 8639, Note_off_c, 1, 45, 0
1, 8639, Note_off_c, 1, 76, 0
1, 8639, Note_off_c, 1, 61, 0
1, 8639, Note_off_c, 1, 64, 0
1, 8639, Note_off_c, 1, 52, 0
1, 8639, Note_off_c, 1, 54, 0
1, 8640, Note_off_c, 1, 79, 0
1, 8640, Note_on_c, 1, 78, 127
1, 8640, Note_on_c, 1, 62, 127
1, 8640, Note_on_c, 1, 50, 127
1, 8640, Note_on_c, 1, 57, 127
1, 8669, Note_off_c, 1, 57, 0
1, 8670, Note_on_c, 1, 80, 127
1, 8670, Note_on_c, 1, 71, 127
1, 8670, Note_on_c, 1, 59, 127
1, 8699, Note_off_c, 1, 62, 0
1, 8699, Note_off_c, 1, 50, 0
1, 8699, Note_off_c, 1, 80, 0
1, 8699, Note_off_c, 1, 71, 0
1, 8699, Note_off_c, 1, 59, 0
1, 8700, Note_off_c, 1, 78, 0
1, 8700, Note_on_c, 1, 81, 127
1, 8700, Note_on_c, 1, 73, 127
1, 8714, Note_off_c, 1, 81, 0
1, 8759, Note_off_c, 1, 73, 0
1, 8760, Note_on_c, 1, 74, 127
1, 8820, Note_off_c, 1, 74, 0
1, 8955, Note_on_c, 1, 59, 127
1, 8969, Note_off_c, 1, 59, 0
1, 8970, Note_on_c, 1, 57, 127
1, 8984, Note_off_c, 1, 57, 0
1, 8985, Note_on_c, 1, 59, 127
1, 8999, Note_off_c, 1, 59, 0
1, 9000, Note_on_c, 1, 61, 127
1, 9030, Note_on_c, 1, 57, 127
1, 9059, Note_off_c, 1, 61, 0
1, 9059, Note_off_c, 1, 57, 0
1, 9060, Note_on_c, 1, 64, 127
1, 9060, Note_on_c, 1, 61, 127
1, 9060, Note_on_c, 1, 55, 127
1, 9089, Note_off_c, 1, 64, 0
1, 9089, Note_off_c, 1, 55, 0
1, 9090, Note_on_c, 1, 66, 127
1, 9090, Note_on_c, 1, 57, 127
1, 9119, Note_off_c, 1, 61, 0
1, 9119, Note_off_c, 1, 66, 0
1, 9119, Note_off_c, 1, 57, 0
1, 9120, Note_on_c, 1, 67, 127
1, 9120, Note_on_c, 1, 63, 127
1, 9120, Note_on_c, 1, 54, 127
1, 9134, Note_off_c, 1, 67, 0
1, 9135, Note_on_c, 1, 66, 127
1, 9149, Note_off_c, 1, 54, 0
1, 9149, Note_off_c, 1, 66, 0
1, 9150, Note_on_c, 1, 64, 127
1, 9150, Note_on_c, 1, 55, 127
1, 9164, Note_off_c, 1, 64, 0
1, 9179, Note_off_c, 1, 63, 0
1, 9179, Note_off_c, 1, 55, 0
1, 9180, Note_on_c, 1, 67, 127
1, 9180, Note_on_c, 1, 64, 127
1, 9180, Note_on_c, 1, 52, 127
1, 9209, Note_off_c, 1, 52, 0
1, 9210, Note_on_c, 1, 51, 127
1, 9239, Note_off_c, 1, 67, 0
1, 9239, Note_off_c, 1, 64, 0
1, 9239, Note_off_c, 1, 51, 0
1, 9240, Note_on_c, 1, 67, 127
1, 9240, Note_on_c, 1, 64, 127
1, 9240, Note_on_c, 1, 52, 127
1, 9269, Note_off_c, 1, 52, 0
1, 9270, Note_on_c, 1, 54, 127
1, 9270, Note_on_c, 1, 55, 127
1, 9299, Note_off_c, 1, 67, 0
1, 9299, Note_off_c, 1, 64, 0
1, 9299, Note_off_c, 1, 54, 0
1, 9299, Note_off_c, 1, 55, 0
1, 9300, Note_on_c, 1, 69, 127
1, 9300, Note_on_c, 1, 62, 127
1, 9300, Note_on_c, 1, 55, 127
1, 9300, Note_on_c, 1, 54, 127
1, 9314, Note_off_c, 1, 55, 0
1, 9329, Note_off_c, 1, 54, 0
1, 9330, Note_on_c, 1, 52, 127
1, 9330, Note_on_c, 1, 57, 127
1, 9344, Note_off_c, 1, 52, 0
1, 9359, Note_off_c, 1, 69, 0
1, 9359, Note_off_c, 1, 62, 0
1, 9359, Note_off_c, 1, 57, 0
1, 9360, Note_on_c, 1, 71, 127
1, 9360, Note_on_c, 1, 62, 127
1, 9360, Note_on_c, 1, 55, 127
1, 9390, Note_on_c, 1, 54, 127
1, 9419, Note_off_c, 1, 71, 0
1, 9419, Note_off_c, 1, 62, 0
1, 9419, Note_off_c, 1, 55, 0
1, 9419, Note_off_c, 1, 54, 0
1, 9420, Note_on_c, 1, 71, 127
1, 9420, Note_on_c, 1, 67, 127
1, 9420, Note_on_c, 1, 55, 127
1, 9450, Note_on_c, 1, 73, 127
1, 9450, Note_on_c, 1, 59, 127
1, 9479, Note_off_c, 1, 71, 0
1, 9479, Note_off_c, 1, 67, 0
1, 9479, Note_off_c, 1, 55, 0
1, 9479, Note_off_c, 1, 73, 0
1, 9479, Note_off_c, 1, 59, 0
1, 9480, Note_on_c, 1, 74, 127
1, 9480, Note_on_c, 1, 64, 127
1, 9480, Note_on_c, 1, 67, 127
1, 9480, Note_on_c, 1, 57, 127
1, 9494, Note_off_c, 1, 74, 0
1, 9495, Note_on_c, 1, 73, 127
1, 9509, Note_off_c, 1, 73, 0
1, 9510, Note_on_c, 1, 71, 127
1, 9510, Note_on_c, 1, 61, 127
1, 9524, Note_off_c, 1, 71, 0
1, 9539, Note_off_c, 1, 64, 0
1, 9539, Note_off_c, 1, 67, 0
1, 9539, Note_off_c, 1, 57, 0
1, 9539, Note_off_c, 1, 61, 0
1, 9540, Note_on_c, 1, 74, 127
1, 9540, Note_on_c, 1, 71, 127
1, 9540, Note_on_c, 1, 66, 127
1, 9540, Note_on_c, 1, 59, 127
1, 9570, Note_on_c, 1, 73, 127
1, 9570, Note_on_c, 1, 57, 127
1, 9599, Note_off_c, 1, 74, 0
1, 9599, Note_off_c, 1, 71, 0
1, 9599, Note_off_c, 1, 66, 0
1, 9599, Note_off_c, 1, 59, 0
1, 9599, Note_off_c, 1, 73, 0
1, 9599, Note_off_c, 1, 57, 0
1, 9600, Note_on_c, 1, 74, 127
1, 9600, Note_on_c, 1, 71, 127
1, 9600, Note_on_c, 1, 66, 127
1, 9600, Note_on_c, 1, 59, 127
1, 9630, Note_on_c, 1, 76, 127
1, 9630, Note_on_c, 1, 62, 127
1, 9659, Note_off_c, 1, 74, 0
1, 9659, Note_off_c, 1, 71, 0
1, 9659, Note_off_c, 1, 66, 0
1, 9659, Note_off_c, 1, 59, 0
1, 9659, Note_off_c, 1, 76, 0
1, 9659, Note_off_c, 1, 62, 0
1, 9660, Note_on_c, 1, 78, 127
1, 9660, Note_on_c, 1, 69, 127
1, 9660, Note_on_c, 1, 76, 127
1, 9660, Note_on_c, 1, 61, 127
1, 9674, Note_off_c, 1, 78, 0
1, 9690, Note_on_c, 1, 74, 127
1, 9690, Note_on_c, 1, 64, 127
1, 9704, Note_off_c, 1, 74, 0
1, 9719, Note_off_c, 1, 69, 0
1, 9719, Note_off_c, 1, 76, 0
1, 9719, Note_off_c, 1, 61, 0
1, 9719, Note_off_c, 1, 64, 0
1, 9720, Note_on_c, 1, 78, 127
1, 9720, Note_on_c, 1, 69, 127
1, 9720, Note_on_c, 1, 62, 127
1, 9750, Note_on_c, 1, 76, 127
1, 9750, Note_on_c, 1, 64, 127
1, 9779, Note_off_c, 1, 78, 0
1, 9779, Note_off_c, 1, 69, 0
1, 9779, Note_off_c, 1, 62, 0
1, 9779, Note_off_c, 1, 76, 0
1, 9779, Note_off_c, 1, 64, 0
1, 9780, Note_on_c, 1, 78, 127
1, 9780, Note_on_c, 1, 69, 127
1, 9780, Note_on_c, 1, 57, 127
1, 9780, Note_on_c, 1, 61, 127
1, 9809, Note_off_c, 1, 57, 0
1, 9810, Note_on_c, 1, 80, 127
1, 9810, Note_on_c, 1, 59, 127
1, 9810, Note_on_c, 1, 62, 127
1, 9839, Note_off_c, 1, 78, 0
1, 9839, Note_off_c, 1, 69, 0
1, 9839, Note_off_c, 1, 61, 0
1, 9839, Note_off_c, 1, 80, 0
1, 9839, Note_off_c, 1, 59, 0
1, 9839, Note_off_c, 1, 62, 0
1, 9840, Note_on_c, 1, 81, 127
1, 9840, Note_on_c, 1, 74, 127
1, 9840, Note_on_c, 1, 61, 127
1, 9840, Note_on_c, 1, 80, 127
1, 9840, Note_on_c, 1, 59, 127
1, 9854, Note_off_c, 1, 81, 0
1, 9854, Note_off_c, 1, 61, 0
1, 9870, Note_on_c, 1, 78, 127
1, 9870, Note_on_c, 1, 57, 127
1, 9884, Note_off_c, 1, 78, 0
1, 9884, Note_off_c, 1, 57, 0
1, 9899, Note_off_c, 1, 74, 0
1, 9899, Note_off_c, 1, 80, 0
1, 9899, Note_off_c, 1, 59, 0
1, 9900, Note_on_c, 1, 81, 127
1, 9900, Note_on_c, 1, 76, 127
1, 9900, Note_on_c, 1, 61, 127
1, 9900, Note_on_c, 1, 57, 127
1, 9959, Note_off_c, 1, 81, 0
1, 9959, Note_off_c, 1, 76, 0
1, 9959, Note_off_c, 1, 61, 0
1, 9959, Note_off_c, 1, 57, 0
1, 9960, Note_on_c, 1, 73, 127
1, 9960, Note_on_c, 1, 64, 127
1, 9960, Note_on_c, 1, 61, 127
1, 9960, Note_on_c, 1, 76, 127
1, 9960, Note_on_c, 1, 57, 127
1, 9960, Note_on_c, 1, 45, 127
1, 9989, Note_off_c, 1, 73, 0
1, 9989, Note_off_c, 1, 61, 0
1, 9989, Note_off_c, 1, 45, 0
1, 9990, Note_on_c, 1, 81, 127
1, 9990, Note_on_c, 1, 62, 127
1, 9990, Note_on_c, 1, 49, 127
1, 10019, Note_off_c, 1, 64, 0
1, 10019, Note_off_c, 1, 76, 0
1, 10019, Note_off_c, 1, 57, 0
1, 10019, Note_off_c, 1, 81, 0
1, 10019, Note_off_c, 1, 62, 0
1, 10019, Note_off_c, 1, 49, 0
1, 10020, Note_on_c, 1, 71, 127
1, 10020, Note_on_c, 1, 68, 127
1, 10020, Note_on_c, 1, 64, 127
1, 10020, Note_on_c, 1, 76, 127
1, 10020, Note_on_c, 1, 47, 127
1, 10034, Note_off_c, 1, 64, 0
1, 10035, Note_on_c, 1, 62, 127
1, 10049, Note_off_c, 1, 71, 0
1, 10049, Note_off_c, 1, 47, 0
1, 10049, Note_off_c, 1, 62, 0
1, 10050, Note_on_c, 1, 80, 127
1, 10050, Note_on_c, 1, 61, 127
1, 10050, Note_on_c, 1, 50, 127
1, 10064, Note_off_c, 1, 61, 0
1, 10079, Note_off_c, 1, 68, 0
1, 10079, Note_off_c, 1, 76, 0
1, 10079, Note_off_c, 1, 80, 0
1, 10079, Note_off_c, 1, 50, 0
1, 10080, Note_on_c, 1, 69, 127
1, 10080, Note_on_c, 1, 64, 127
1, 10080, Note_on_c, 1, 76, 127
1, 10080, Note_on_c, 1, 49, 127
1, 10109, Note_off_c, 1, 49, 0
1, 10110, Note_on_c, 1, 62, 127
1, 10110, Note_on_c, 1, 47, 127
1, 10139, Note_off_c, 1, 64, 0
1, 10139, Note_off_c, 1, 76, 0
1, 10139, Note_off_c, 1, 62, 0
1, 10139, Note_off_c, 1, 47, 0
1, 10140, Note_on_c, 1, 73, 127
1, 10140, Note_on_c, 1, 57, 127
1, 10170, Note_on_c, 1, 66, 127
1, 10170, Note_on_c, 1, 51, 127
1, 10170, Note_on_c, 1, 52, 127
1, 10199, Note_off_c, 1, 69, 0
1, 10199, Note_off_c, 1, 73, 0
1, 10199, Note_off_c, 1, 57, 0
1, 10199, Note_off_c, 1, 66, 0
1, 10199, Note_off_c, 1, 51, 0
1, 10199, Note_off_c, 1, 52, 0
1, 10200, Note_on_c, 1, 67, 127
1, 10200, Note_on_c, 1, 69, 127
1, 10200, Note_on_c, 1, 66, 127
1, 10200, Note_on_c, 1, 52, 127
1, 10200, Note_on_c, 1, 51, 127
1, 10214, Note_off_c, 1, 67, 0
1, 10214, Note_off_c, 1, 52, 0
1, 10229, Note_off_c, 1, 51, 0
1, 10230, Note_on_c, 1, 64, 127
1, 10230, Note_on_c, 1, 49, 127
1, 10230, Note_on_c, 1, 54, 127
1, 10244, Note_off_c, 1, 64, 0
1, 10244, Note_off_c, 1, 49, 0
1, 10259, Note_off_c, 1, 69, 0
1, 10259, Note_off_c, 1, 66, 0
1, 10259, Note_off_c, 1, 54, 0
1, 10260, Note_on_c, 1, 67, 127
1, 10260, Note_on_c, 1, 52, 127
1, 10290, Note_on_c, 1, 50, 127
1, 10319, Note_off_c, 1, 67, 0
1, 10319, Note_off_c, 1, 52, 0
1, 10319, Note_off_c, 1, 50, 0
1, 10320, Note_on_c, 1, 67, 127
1, 10320, Note_on_c, 1, 64, 127
1, 10320, Note_on_c, 1, 60, 127
1, 10320, Note_on_c, 1, 52, 127
1, 10349, Note_off_c, 1, 67, 0
1, 10350, Note_on_c, 1, 69, 127
1, 10350, Note_on_c, 1, 55, 127
1, 10379, Note_off_c, 1, 64, 0
1, 10379, Note_off_c, 1, 60, 0
1, 10379, Note_off_c, 1, 52, 0
1, 10379, Note_off_c, 1, 69, 0
1, 10379, Note_off_c, 1, 55, 0
1, 10380, Note_on_c, 1, 71, 127
1, 10380, Note_on_c, 1, 62, 127
1, 10380, Note_on_c, 1, 60, 127
1, 10380, Note_on_c, 1, 54, 127
1, 10394, Note_off_c, 1, 71, 0
1, 10395, Note_on_c, 1, 69, 127
1, 10409, Note_off_c, 1, 69, 0
1, 10410, Note_on_c, 1, 67, 127
1, 10410, Note_on_c, 1, 57, 127
1, 10424, Note_off_c, 1, 67, 0
1, 10439, Note_off_c, 1, 60, 0
1, 10439, Note_off_c, 1, 54, 0
1, 10439, Note_off_c, 1, 57, 0
1, 10440, Note_on_c, 1, 59, 127
1, 10440, Note_on_c, 1, 55, 127
1, 10470, Note_on_c, 1, 61, 127
1, 10499, Note_off_c, 1, 62, 0
1, 10499, Note_off_c, 1, 59, 0
1, 10499, Note_off_c, 1, 55, 0
1, 10499, Note_off_c, 1, 61, 0
1, 10530, Note_on_c, 1, 73, 127
1, 10530, Note_on_c, 1, 64, 127
1, 10559, Note_off_c, 1, 73, 0
1, 10559, Note_off_c, 1, 64, 0
1, 10560, Note_on_c, 1, 74, 127
1, 10560, Note_on_c, 1, 66, 127
1, 10560, Note_on_c, 1, 55, 127
1, 10560, Note_on_c, 1, 73, 127
1, 10560, Note_on_c, 1, 64, 127
1, 10560, Note_on_c, 1, 52, 127
1, 10574, Note_off_c, 1, 74, 0
1, 10574, Note_off_c, 1, 66, 0
1, 10590, Note_on_c, 1, 71, 127
1, 10590, Note_on_c, 1, 62, 127
1, 10590, Note_on_c, 1, 57, 127
1, 10590, Note_on_c, 1, 54, 127
1, 10604, Note_off_c, 1, 71, 0
1, 10604, Note_off_c, 1, 62, 0
1, 10619, Note_off_c, 1, 55, 0
1, 10619, Note_off_c, 1, 73, 0
1, 10619, Note_off_c, 1, 64, 0
1, 10619, Note_off_c, 1, 52, 0
1, 10619, Note_off_c, 1, 57, 0
1, 10619, Note_off_c, 1, 54, 0
1, 10620, Note_on_c, 1, 74, 127
1, 10620, Note_on_c, 1, 66, 127
1, 10620, Note_on_c, 1, 54, 127
1, 10620, Note_on_c, 1, 50, 127
1, 10649, Note_off_c, 1, 66, 0
1, 10650, Note_on_c, 1, 64, 127
1, 10650, Note_on_c, 1, 49, 127
1, 10679, Note_off_c, 1, 74, 0
1, 10679, Note_off_c, 1, 54, 0
1, 10679, Note_off_c, 1, 50, 0
1, 10679, Note_off_c, 1, 64, 0
1, 10679, Note_off_c, 1, 49, 0
1, 10680, Note_on_c, 1, 74, 127
1, 10680, Note_on_c, 1, 66, 127
1, 10680, Note_on_c, 1, 57, 127
1, 10680, Note_on_c, 1, 50, 127
1, 10709, Note_off_c, 1, 66, 0
1, 10710, Note_on_c, 1, 69, 127
1, 10710, Note_on_c, 1, 54, 127
1, 10739, Note_off_c, 1, 74, 0
1, 10739, Note_off_c, 1, 57, 0
1, 10739, Note_off_c, 1, 50, 0
1, 10739, Note_off_c, 1, 69, 0
1, 10739, Note_off_c, 1, 54, 0
1, 10740, Note_on_c, 1, 73, 127
1, 10740, Note_on_c, 1, 69, 127
1, 10740, Note_on_c, 1, 64, 127
1, 10740, Note_on_c, 1, 67, 127
1, 10740, Note_on_c, 1, 52, 127
1, 10754, Note_off_c, 1, 69, 0
1, 10769, Note_off_c, 1, 67, 0
1, 10770, Note_on_c, 1, 66, 127
1, 10770, Note_on_c, 1, 71, 127
1, 10770, Note_on_c, 1, 55, 127
1, 10784, Note_off_c, 1, 66, 0
1, 10799, Note_off_c, 1, 73, 0
1, 10799, Note_off_c, 1, 64, 0
1, 10799, Note_off_c, 1, 52, 0
1, 10799, Note_off_c, 1, 71, 0
1, 10799, Note_off_c, 1, 55, 0
1, 10800, Note_on_c, 1, 74, 127
1, 10800, Note_on_c, 1, 69, 127
1, 10800, Note_on_c, 1, 62, 127
1, 10800, Note_on_c, 1, 54, 127
1, 10829, Note_off_c, 1, 54, 0
1, 10830, Note_on_c, 1, 73, 127
1, 10830, Note_on_c, 1, 52, 127
1, 10859, Note_off_c, 1, 74, 0
1, 10859, Note_off_c, 1, 69, 0
1, 10859, Note_off_c, 1, 62, 0
1, 10859, Note_off_c, 1, 73, 0
1, 10859, Note_off_c, 1, 52, 0
1, 10860, Note_on_c, 1, 74, 127
1, 10860, Note_on_c, 1, 62, 127
1, 10860, Note_on_c, 1, 57, 127
1, 10860, Note_on_c, 1, 78, 127
1, 10860, Note_on_c, 1, 54, 127
1, 10889, Note_off_c, 1, 74, 0
1, 10889, Note_off_c, 1, 57, 0
1, 10889, Note_off_c, 1, 54, 0
1, 10890, Note_on_c, 1, 61, 127
1, 10919, Note_off_c, 1, 62, 0
1, 10919, Note_off_c, 1, 78, 0
1, 10919, Note_off_c, 1, 61, 0
1, 10920, Note_on_c, 1, 76, 127
1, 10920, Note_on_c, 1, 61, 127
1, 10920, Note_on_c, 1, 56, 127
1, 10934, Note_off_c, 1, 61, 0
1, 10935, Note_on_c, 1, 59, 127
1, 10949, Note_off_c, 1, 56, 0
1, 10949, Note_off_c, 1, 59, 0
1, 10950, Note_on_c, 1, 74, 127
1, 10950, Note_on_c, 1, 57, 127
1, 10964, Note_off_c, 1, 57, 0
1, 10979, Note_off_c, 1, 76, 0
1, 10979, Note_off_c, 1, 74, 0
1, 10980, Note_on_c, 1, 73, 127
1, 10980, Note_on_c, 1, 61, 127
1, 10980, Note_on_c, 1, 57, 127
1, 11009, Note_off_c, 1, 57, 0
1, 11010, Note_on_c, 1, 71, 127
1, 11010, Note_on_c, 1, 64, 127
1, 11010, Note_on_c, 1, 56, 127
1, 11039, Note_off_c, 1, 73, 0
1, 11039, Note_off_c, 1, 61, 0
1, 11039, Note_off_c, 1, 71, 0
1, 11039, Note_off_c, 1, 64, 0
1, 11039, Note_off_c, 1, 56, 0
1, 11040, Note_on_c, 1, 73, 127
1, 11040, Note_on_c, 1, 64, 127
1, 11040, Note_on_c, 1, 69, 127
1, 11040, Note_on_c, 1, 57, 127
1, 11069, Note_off_c, 1, 69, 0
1, 11069, Note_off_c, 1, 57, 0
1, 11070, Note_on_c, 1, 76, 127
1, 11070, Note_on_c, 1, 67, 127
1, 11070, Note_on_c, 1, 59, 127
1, 11099, Note_off_c, 1, 73, 0
1, 11099, Note_off_c, 1, 64, 0
1, 11099, Note_off_c, 1, 76, 0
1, 11099, Note_off_c, 1, 67, 0
1, 11099, Note_off_c, 1, 59, 0
1, 11100, Note_on_c, 1, 75, 127
1, 11100, Note_on_c, 1, 67, 127
1, 11100, Note_on_c, 1, 66, 127
1, 11100, Note_on_c, 1, 59, 127
1, 11100, Note_on_c, 1, 57, 127
1, 11114, Note_off_c, 1, 67, 0
1, 11129, Note_off_c, 1, 66, 0
1, 11129, Note_off_c, 1, 57, 0
1, 11130, Note_on_c, 1, 78, 127
1, 11130, Note_on_c, 1, 64, 127
1, 11144, Note_off_c, 1, 64, 0
1, 11159, Note_off_c, 1, 75, 0
1, 11159, Note_off_c, 1, 59, 0
1, 11159, Note_off_c, 1, 78, 0
1, 11160, Note_on_c, 1, 76, 127
1, 11160, Note_on_c, 1, 67, 127
1, 11160, Note_on_c, 1, 59, 127
1, 11160, Note_on_c, 1, 55, 127
1, 11190, Note_on_c, 1, 75, 127
1, 11190, Note_on_c, 1, 71, 127
1, 11190, Note_on_c, 1, 54, 127
1, 11219, Note_off_c, 1, 76, 0
1, 11219, Note_off_c, 1, 67, 0
1, 11219, Note_off_c, 1, 55, 0
1, 11219, Note_off_c, 1, 75, 0
1, 11219, Note_off_c, 1, 71, 0
1, 11219, Note_off_c, 1, 54, 0
1, 11250, Note_on_c, 1, 78, 127
1, 11250, Note_on_c, 1, 60, 127
1, 11250, Note_on_c, 1, 57, 127
1, 11279, Note_off_c, 1, 59, 0
1, 11279, Note_off_c, 1, 78, 0
1, 11279, Note_off_c, 1, 60, 0
1, 11279, Note_off_c, 1, 57, 0
1, 11280, Note_on_c, 1, 79, 127
1, 11280, Note_on_c, 1, 75, 127
1, 11280, Note_on_c, 1, 57, 127
1, 11280, Note_on_c, 1, 69, 127
1, 11280, Note_on_c, 1, 54, 127
1, 11294, Note_off_c, 1, 79, 0
1, 11295, Note_on_c, 1, 78, 127
1, 11309, Note_off_c, 1, 75, 0
1, 11309, Note_off_c, 1, 57, 0
1, 11309, Note_off_c, 1, 78, 0
1, 11310, Note_on_c, 1, 76, 127
1, 11310, Note_on_c, 1, 59, 127
1, 11310, Note_on_c, 1, 55, 127
1, 11324, Note_off_c, 1, 76, 0
1, 11339, Note_off_c, 1, 69, 0
1, 11339, Note_off_c, 1, 54, 0
1, 11339, Note_off_c, 1, 59, 0
1, 11339, Note_off_c, 1, 55, 0
1, 11340, Note_on_c, 1, 79, 127
1, 11340, Note_on_c, 1, 76, 127
1, 11340, Note_on_c, 1, 55, 127
1, 11340, Note_on_c, 1, 71, 127
1, 11340, Note_on_c, 1, 59, 127
1, 11340, Note_on_c, 1, 52, 127
1, 11370, Note_on_c, 1, 78, 127
1, 11370, Note_on_c, 1, 50, 127
1, 11399, Note_off_c, 1, 79, 0
1, 11399, Note_off_c, 1, 76, 0
1, 11399, Note_off_c, 1, 55, 0
1, 11399, Note_off_c, 1, 71, 0
1, 11399, Note_off_c, 1, 59, 0
1, 11399, Note_off_c, 1, 52, 0
1, 11399, Note_off_c, 1, 78, 0
1, 11399, Note_off_c, 1, 50, 0
1, 11400, Note_on_c, 1, 76, 127
1, 11400, Note_on_c, 1, 71, 127
1, 11400, Note_on_c, 1, 59, 127
1, 11400, Note_on_c, 1, 79, 127
1, 11400, Note_on_c, 1, 64, 127
1, 11400, Note_on_c, 1, 52, 127
1, 11429, Note_off_c, 1, 76, 0
1, 11430, Note_on_c, 1, 74, 127
1, 11430, Note_on_c, 1, 54, 127
1, 11459, Note_off_c, 1, 71, 0
1, 11459, Note_off_c, 1, 59, 0
1, 11459, Note_off_c, 1, 79, 0
1, 11459, Note_off_c, 1, 64, 0
1, 11459, Note_off_c, 1, 52, 0
1, 11459, Note_off_c, 1, 74, 0
1, 11459, Note_off_c, 1, 54, 0
1, 11460, Note_on_c, 1, 73, 127
1, 11460, Note_on_c, 1, 67, 127
1, 11460, Note_on_c, 1, 64, 127
1, 11460, Note_on_c, 1, 71, 127
1, 11460, Note_on_c, 1, 50, 127
1, 11489, Note_off_c, 1, 73, 0
1, 11490, Note_on_c, 1, 52, 127
1, 11519, Note_off_c, 1, 64, 0
1, 11519, Note_off_c, 1, 71, 0
1, 11519, Note_off_c, 1, 50, 0
1, 11519, Note_off_c, 1, 52, 0
1, 11520, Note_on_c, 1, 70, 127
1, 11520, Note_on_c, 1, 49, 127
1, 11549, Note_off_c, 1, 70, 0
1, 11549, Note_off_c, 1, 49, 0
1, 11550, Note_on_c, 1, 47, 127
1, 11579, Note_off_c, 1, 67, 0
1, 11579, Note_off_c, 1, 47, 0
1, 11580, Note_on_c, 1, 76, 127
1, 11580, Note_on_c, 1, 67, 127
1, 11580, Note_on_c, 1, 58, 127
1, 11580, Note_on_c, 1, 49, 127
1, 11609, Note_off_c, 1, 49, 0
1, 11610, Note_on_c, 1, 50, 127
1, 11639, Note_off_c, 1, 67, 0
1, 11639, Note_off_c, 1, 58, 0
1, 11639, Note_off_c, 1, 50, 0
1, 11640, Note_on_c, 1, 59, 127
1, 11640, Note_on_c, 1, 64, 127
1, 11640, Note_on_c, 1, 47, 127
1, 11669, Note_off_c, 1, 47, 0
1, 11699, Note_off_c, 1, 76, 0
1, 11699, Note_off_c, 1, 59, 0
1, 11699, Note_off_c, 1, 64, 0
1, 11700, Note_on_c, 1, 67, 127
1, 11700, Note_on_c, 1, 61, 127
1, 11700, Note_on_c, 1, 64, 127
1, 11700, Note_on_c, 1, 46, 127
1, 11715, Note_on_c, 1, 66, 127
1, 11729, Note_off_c, 1, 46, 0
1, 11729, Note_off_c, 1, 66, 0
1, 11730, Note_on_c, 1, 55, 127
1, 11759, Note_off_c, 1, 67, 0
1, 11759, Note_off_c, 1, 61, 0
1, 11759, Note_off_c, 1, 64, 0
1, 11759, Note_off_c, 1, 55, 0
1, 11760, Note_on_c, 1, 64, 127
1, 11760, Note_on_c, 1, 70, 127
1, 11760, Note_on_c, 1, 61, 127
1, 11760, Note_on_c, 1, 58, 127
1, 11760, Note_on_c, 1, 66, 127
1, 11760, Note_on_c, 1, 54, 127
1, 11789, Note_off_c, 1, 64, 0
1, 11789, Note_off_c, 1, 54, 0
1, 11790, Note_on_c, 1, 55, 127
1, 11819, Note_off_c, 1, 70, 0
1, 11819, Note_off_c, 1, 61, 0
1, 11819, Note_off_c, 1, 58, 0
1, 11819, Note_off_c, 1, 55, 0
1, 11820, Note_on_c, 1, 73, 127
1, 11820, Note_on_c, 1, 52, 127
1, 11849, Note_off_c, 1, 52, 0
1, 11879, Note_off_c, 1, 73, 0
1, 11880, Note_on_c, 1, 74, 127
1, 11880, Note_on_c, 1, 59, 127
1, 11880, Note_on_c, 1, 78, 127
1, 11880, Note_on_c, 1, 50, 127
1, 11910, Note_on_c, 1, 68, 127
1, 11910, Note_on_c, 1, 49, 127
1, 11924, Note_off_c, 1, 68, 0
1, 11939, Note_off_c, 1, 66, 0
1, 11939, Note_off_c, 1, 74, 0
1, 11939, Note_off_c, 1, 59, 0
1, 11939, Note_off_c, 1, 78, 0
1, 11939, Note_off_c, 1, 50, 0
1, 11939, Note_off_c, 1, 49, 0
1, 11940, Note_on_c, 1, 71, 127
1, 11940, Note_on_c, 1, 66, 127
1, 11940, Note_on_c, 1, 78, 127
1, 11940, Note_on_c, 1, 54, 127
1, 11940, Note_on_c, 1, 62, 127
1, 11940, Note_on_c, 1, 50, 127
1, 11969, Note_off_c, 1, 50, 0
1, 11970, Note_on_c, 1, 73, 127
1, 11970, Note_on_c, 1, 52, 127
1, 11984, Note_off_c, 1, 73, 0
1, 11985, Note_on_c, 1, 75, 127
1, 11999, Note_off_c, 1, 71, 0
1, 11999, Note_off_c, 1, 66, 0
1, 11999, Note_off_c, 1, 78, 0
1, 11999, Note_off_c, 1, 54, 0
1, 11999, Note_off_c, 1, 62, 0
1, 11999, Note_off_c, 1, 52, 0
1, 11999, Note_off_c, 1, 75, 0
1, 12000, Note_on_c, 1, 76, 127
1, 12000, Note_on_c, 1, 70, 127
1, 12000, Note_on_c, 1, 66, 127
1, 12000, Note_on_c, 1, 61, 127
1, 12000, Note_on_c, 1, 49, 127
1, 12029, Note_off_c, 1, 49, 0
1, 12030, Note_on_c, 1, 50, 127
1, 12059, Note_off_c, 1, 70, 0
1, 12059, Note_off_c, 1, 66, 0
1, 12059, Note_off_c, 1, 61, 0
1, 12059, Note_off_c, 1, 50, 0
1, 12060, Note_on_c, 1, 71, 127
1, 12060, Note_on_c, 1, 59, 127
1, 12060, Note_on_c, 1, 47, 127
1, 12089, Note_off_c, 1, 47, 0
1, 12090, Note_on_c, 1, 74, 127
1, 12090, Note_on_c, 1, 46, 127
1, 12104, Note_off_c, 1, 74, 0
1, 12105, Note_on_c, 1, 73, 127
1, 12119, Note_off_c, 1, 76, 0
1, 12119, Note_off_c, 1, 71, 0
1, 12119, Note_off_c, 1, 46, 0
1, 12119, Note_off_c, 1, 73, 0
1, 12179, Note_off_c, 1, 59, 0
1, 12180, Note_on_c, 1, 74, 127
1, 12180, Note_on_c, 1, 66, 127
1, 12180, Note_on_c, 1, 67, 127
1, 12180, Note_on_c, 1, 59, 127
1, 12180, Note_on_c, 1, 71, 127
1, 12180, Note_on_c, 1, 62, 127
1, 12180, Note_on_c, 1, 57, 127
1, 12180, Note_on_c, 1, 45, 127
1, 12209, Note_off_c, 1, 74, 0
1, 12209, Note_off_c, 1, 45, 0
1, 12210, Note_on_c, 1, 47, 127
1, 12225, Note_on_c, 1, 73, 127
1, 12239, Note_off_c, 1, 67, 0
1, 12239, Note_off_c, 1, 59, 0
1, 12239, Note_off_c, 1, 57, 0
1, 12239, Note_off_c, 1, 47, 0
1, 12239, Note_off_c, 1, 73, 0
1, 12240, Note_on_c, 1, 56, 127
1, 12240, Note_on_c, 1, 44, 127
1, 12269, Note_off_c, 1, 44, 0
1, 12270, Note_on_c, 1, 78, 127
1, 12270, Note_on_c, 1, 42, 127
1, 12284, Note_off_c, 1, 78, 0
1, 12285, Note_on_c, 1, 76, 127
1, 12299, Note_off_c, 1, 66, 0
1, 12299, Note_off_c, 1, 71, 0
1, 12299, Note_off_c, 1, 62, 0
1, 12299, Note_off_c, 1, 56, 0
1, 12299, Note_off_c, 1, 42, 0
1, 12299, Note_off_c, 1, 76, 0
1, 12300, Note_on_c, 1, 74, 127
1, 12300, Note_on_c, 1, 71, 127
1, 12300, Note_on_c, 1, 52, 127
1, 12300, Note_on_c, 1, 64, 127
1, 12300, Note_on_c, 1, 59, 127
1, 12300, Note_on_c, 1, 56, 127
1, 12300, Note_on_c, 1, 44, 127
1, 12329, Note_off_c, 1, 71, 0
1, 12329, Note_off_c, 1, 64, 0
1, 12329, Note_off_c, 1, 44, 0
1, 12330, Note_on_c, 1, 78, 127
1, 12330, Note_on_c, 1, 61, 127
1, 12330, Note_on_c, 1, 45, 127
1, 12344, Note_off_c, 1, 78, 0
1, 12345, Note_on_c, 1, 76, 127
1, 12345, Note_on_c, 1, 73, 127
1, 12359, Note_off_c, 1, 74, 0
1, 12359, Note_off_c, 1, 52, 0
1, 12359, Note_off_c, 1, 59, 0
1, 12359, Note_off_c, 1, 56, 0
1, 12359, Note_off_c, 1, 61, 0
1, 12359, Note_off_c, 1, 45, 0
1, 12359, Note_off_c, 1, 76, 0
1, 12359, Note_off_c, 1, 73, 0
1, 12360, Note_on_c, 1, 74, 127
1, 12360, Note_on_c, 1, 71, 127
1, 12360, Note_on_c, 1, 54, 127
1, 12360, Note_on_c, 1, 62, 127
1, 12360, Note_on_c, 1, 66, 127
1, 12360, Note_on_c, 1, 42, 127
1, 12389, Note_off_c, 1, 42, 0
1, 12390, Note_on_c, 1, 44, 127
1, 12419, Note_off_c, 1, 54, 0
1, 12419, Note_off_c, 1, 62, 0
1, 12419, Note_off_c, 1, 66, 0
1, 12419, Note_off_c, 1, 44, 0
1, 12420, Note_on_c, 1, 56, 127
1, 12420, Note_on_c, 1, 68, 127
1, 12420, Note_on_c, 1, 64, 127
1, 12420, Note_on_c, 1, 59, 127
1, 12420, Note_on_c, 1, 52, 127
1, 12420, Note_on_c, 1, 40, 127
1, 12449, Note_off_c, 1, 74, 0
1, 12449, Note_off_c, 1, 71, 0
1, 12449, Note_off_c, 1, 40, 0
1, 12465, Note_on_c, 1, 73, 127
1, 12465, Note_on_c, 1, 69, 127
1, 12479, Note_off_c, 1, 56, 0
1, 12479, Note_off_c, 1, 68, 0
1, 12479, Note_off_c, 1, 64, 0
1, 12479, Note_off_c, 1, 59, 0
1, 12479, Note_off_c, 1, 52, 0
1, 12479, Note_off_c, 1, 73, 0
1, 12479, Note_off_c, 1, 69, 0
1, 12480, Note_on_c, 1, 74, 127
1, 12480, Note_on_c, 1, 71, 127
1, 12480, Note_on_c, 1, 68, 127
1, 12480, Note_on_c, 1, 64, 127
1, 12480, Note_on_c, 1, 59, 127
1, 12480, Note_on_c, 1, 52, 127
1, 12509, Note_off_c, 1, 74, 0
1, 12509, Note_off_c, 1, 71, 0
1, 12510, Note_on_c, 1, 54, 127
1, 12525, Note_on_c, 1, 73, 127
1, 12525, Note_on_c, 1, 69, 127
1, 12539, Note_off_c, 1, 68, 0
1, 12539, Note_off_c, 1, 64, 0
1, 12539, Note_off_c, 1, 59, 0
1, 12539, Note_off_c, 1, 52, 0
1, 12539, Note_off_c, 1, 54, 0
1, 12539, Note_off_c, 1, 73, 0
1, 12539, Note_off_c, 1, 69, 0
1, 12540, Note_on_c, 1, 74, 127
1, 12540, Note_on_c, 1, 71, 127
1, 12540, Note_on_c, 1, 66, 127
1, 12540, Note_on_c, 1, 59, 127
1, 12540, Note_on_c, 1, 50, 127
1, 12570, Note_on_c, 1, 52, 127
1, 12599, Note_off_c, 1, 66, 0
1, 12599, Note_off_c, 1, 59, 0
1, 12599, Note_off_c, 1, 50, 0
1, 12599, Note_off_c, 1, 52, 0
1, 12600, Note_on_c, 1, 64, 127
1, 12600, Note_on_c, 1, 76, 127
1, 12600, Note_on_c, 1, 68, 127
1, 12600, Note_on_c, 1, 49, 127
1, 12629, Note_off_c, 1, 74, 0
1, 12629, Note_off_c, 1, 71, 0
1, 12630, Note_on_c, 1, 73, 127
1, 12630, Note_on_c, 1, 47, 127
1, 12644, Note_off_c, 1, 73, 0
1, 12659, Note_off_c, 1, 64, 0
1, 12659, Note_off_c, 1, 76, 0
1, 12659, Note_off_c, 1, 68, 0
1, 12659, Note_off_c, 1, 49, 0
1, 12659, Note_off_c, 1, 47, 0
1, 12660, Note_on_c, 1, 76, 127
1, 12660, Note_on_c, 1, 69, 127
1, 12660, Note_on_c, 1, 64, 127
1, 12660, Note_on_c, 1, 57, 127
1, 12660, Note_on_c, 1, 61, 127
1, 12660, Note_on_c, 1, 49, 127
1, 12689, Note_off_c, 1, 49, 0
1, 12690, Note_on_c, 1, 74, 127
1, 12690, Note_on_c, 1, 50, 127
1, 12704, Note_off_c, 1, 74, 0
1, 12705, Note_on_c, 1, 73, 127
1, 12719, Note_off_c, 1, 76, 0
1, 12719, Note_off_c, 1, 69, 0
1, 12719, Note_off_c, 1, 64, 0
1, 12719, Note_off_c, 1, 57, 0
1, 12719, Note_off_c, 1, 61, 0
1, 12719, Note_off_c, 1, 50, 0
1, 12719, Note_off_c, 1, 73, 0
1, 12720, Note_on_c, 1, 74, 127
1, 12720, Note_on_c, 1, 68, 127
1, 12720, Note_on_c, 1, 64, 127
1, 12720, Note_on_c, 1, 59, 127
1, 12720, Note_on_c, 1, 47, 127
1, 12749, Note_off_c, 1, 47, 0
1, 12750, Note_on_c, 1, 73, 127
1, 12750, Note_on_c, 1, 49, 127
1, 12764, Note_off_c, 1, 73, 0
1, 12765, Note_on_c, 1, 71, 127
1, 12779, Note_off_c, 1, 74, 0
1, 12779, Note_off_c, 1, 68, 0
1, 12779, Note_off_c, 1, 64, 0
1, 12779, Note_off_c, 1, 59, 0
1, 12779, Note_off_c, 1, 49, 0
1, 12779, Note_off_c, 1, 71, 0
1, 12780, Note_on_c, 1, 73, 127
1, 12780, Note_on_c, 1, 69, 127
1, 12780, Note_on_c, 1, 64, 127
1, 12780, Note_on_c, 1, 57, 127
1, 12780, Note_on_c, 1, 45, 127
1, 12809, Note_off_c, 1, 45, 0
1, 12810, Note_on_c, 1, 76, 127
1, 12810, Note_on_c, 1, 44, 127
1, 12824, Note_off_c, 1, 76, 0
1, 12825, Note_on_c, 1, 74, 127
1, 12825, Note_on_c, 1, 71, 127
1, 12839, Note_off_c, 1, 44, 0
1, 12839, Note_off_c, 1, 74, 0
1, 12839, Note_off_c, 1, 71, 0
1, 12870, Note_on_c, 1, 47, 127
1, 12899, Note_off_c, 1, 73, 0
1, 12899, Note_off_c, 1, 69, 0
1, 12899, Note_off_c, 1, 64, 0
1, 12899, Note_off_c, 1, 57, 0
1, 12899, Note_off_c, 1, 47, 0
1, 12900, Note_on_c, 1, 73, 127
1, 12900, Note_on_c, 1, 69, 127
1, 12900, Note_on_c, 1, 64, 127
1, 12900, Note_on_c, 1, 56, 127
1, 12900, Note_on_c, 1, 44, 127
1, 12929, Note_off_c, 1, 44, 0
1, 12930, Note_on_c, 1, 45, 127
1, 12945, Note_on_c, 1, 71, 127
1, 12959, Note_off_c, 1, 64, 0
1, 12959, Note_off_c, 1, 56, 0
1, 12959, Note_off_c, 1, 45, 0
1, 12959, Note_off_c, 1, 71, 0
1, 12960, Note_on_c, 1, 57, 127
1, 12960, Note_on_c, 1, 66, 127
1, 12960, Note_on_c, 1, 54, 127
1, 12960, Note_on_c, 1, 42, 127
1, 12989, Note_off_c, 1, 57, 0
1, 12989, Note_off_c, 1, 42, 0
1, 12990, Note_on_c, 1, 78, 127
1, 13005, Note_off_c, 1, 78, 0
1, 13019, Note_off_c, 1, 73, 0
1, 13019, Note_off_c, 1, 69, 0
1, 13019, Note_off_c, 1, 66, 0
1, 13019, Note_off_c, 1, 54, 0
1, 13020, Note_on_c, 1, 78, 127
1, 13020, Note_on_c, 1, 75, 127
1, 13020, Note_on_c, 1, 69, 127
1, 13020, Note_on_c, 1, 66, 127
1, 13020, Note_on_c, 1, 57, 127
1, 13020, Note_on_c, 1, 54, 127
1, 13035, Note_off_c, 1, 78, 0
1, 13049, Note_off_c, 1, 66, 0
1, 13050, Note_on_c, 1, 73, 127
1, 13065, Note_off_c, 1, 73, 0
1, 13079, Note_off_c, 1, 75, 0
1, 13079, Note_off_c, 1, 69, 0
1, 13079, Note_off_c, 1, 57, 0
1, 13079, Note_off_c, 1, 54, 0
1, 13080, Note_on_c, 1, 73, 127
1, 13080, Note_on_c, 1, 76, 127
1, 13080, Note_on_c, 1, 69, 127
1, 13080, Note_on_c, 1, 61, 127
1, 13080, Note_on_c, 1, 52, 127
1, 13109, Note_off_c, 1, 73, 0
1, 13110, Note_on_c, 1, 75, 127
1, 13124, Note_off_c, 1, 75, 0
1, 13139, Note_off_c, 1, 76, 0
1, 13139, Note_off_c, 1, 69, 0
1, 13139, Note_off_c, 1, 61, 0
1, 13139, Note_off_c, 1, 52, 0
1, 13140, Note_on_c, 1, 69, 127
1, 13140, Note_on_c, 1, 78, 127
1, 13140, Note_on_c, 1, 71, 127
1, 13140, Note_on_c, 1, 66, 127
1, 13140, Note_on_c, 1, 59, 127
1, 13140, Note_on_c, 1, 51, 127
1, 13155, Note_on_c, 1, 73, 127
1, 13169, Note_off_c, 1, 71, 0
1, 13169, Note_off_c, 1, 66, 0
1, 13169, Note_off_c, 1, 73, 0
1, 13170, Note_on_c, 1, 75, 127
1, 13184, Note_off_c, 1, 75, 0
1, 13185, Note_on_c, 1, 76, 127
1, 13199, Note_off_c, 1, 69, 0
1, 13199, Note_off_c, 1, 78, 0
1, 13199, Note_off_c, 1, 59, 0
1, 13199, Note_off_c, 1, 76, 0
1, 13200, Note_on_c, 1, 63, 127
1, 13215, Note_on_c, 1, 80, 127
1, 13215, Note_on_c, 1, 52, 127
1, 13229, Note_off_c, 1, 63, 0
1, 13229, Note_off_c, 1, 80, 0
1, 13229, Note_off_c, 1, 52, 0
1, 13245, Note_on_c, 1, 49, 127
1, 13259, Note_off_c, 1, 51, 0
1, 13259, Note_off_c, 1, 49, 0
1, 13260, Note_on_c, 1, 47, 127
1, 13275, Note_on_c, 1, 45, 127
1, 13289, Note_off_c, 1, 45, 0
1, 13290, Note_on_c, 1, 44, 127
1, 13304, Note_off_c, 1, 44, 0
1, 13305, Note_on_c, 1, 42, 127
1, 13319, Note_off_c, 1, 47, 0
1, 13319, Note_off_c, 1, 42, 0
1, 13320, Note_on_c, 1, 68, 127
1, 13320, Note_on_c, 1, 64, 127
1, 13320, Note_on_c, 1, 40, 127
1, 13349, Note_off_c, 1, 40, 0
1, 13379, Note_off_c, 1, 68, 0
1, 13379, Note_off_c, 1, 64, 0
1, 13380, Note_on_c, 1, 76, 127
1, 13380, Note_on_c, 1, 73, 127
1, 13380, Note_on_c, 1, 68, 127
1, 13380, Note_on_c, 1, 64, 127
1, 13380, Note_on_c, 1, 52, 127
1, 13394, Note_off_c, 1, 76, 0
1, 13410, Note_on_c, 1, 71, 127
1, 13424, Note_off_c, 1, 71, 0
1, 13439, Note_off_c, 1, 73, 0
1, 13439, Note_off_c, 1, 68, 0
1, 13439, Note_off_c, 1, 64, 0
1, 13439, Note_off_c, 1, 52, 0
1, 13440, Note_on_c, 1, 71, 127
1, 13440, Note_on_c, 1, 74, 127
1, 13440, Note_on_c, 1, 67, 127
1, 13440, Note_on_c, 1, 59, 127
1, 13440, Note_on_c, 1, 50, 127
1, 13469, Note_off_c, 1, 71, 0
1, 13470, Note_on_c, 1, 73, 127
1, 13484, Note_off_c, 1, 73, 0
1, 13499, Note_off_c, 1, 74, 0
1, 13499, Note_off_c, 1, 67, 0
1, 13499, Note_off_c, 1, 59, 0
1, 13499, Note_off_c, 1, 50, 0
1, 13500, Note_on_c, 1, 67, 127
1, 13500, Note_on_c, 1, 76, 127
1, 13500, Note_on_c, 1, 69, 127
1, 13500, Note_on_c, 1, 64, 127
1, 13500, Note_on_c, 1, 57, 127
1, 13500, Note_on_c, 1, 49, 127
1, 13515, Note_on_c, 1, 71, 127
1, 13529, Note_off_c, 1, 69, 0
1, 13529, Note_off_c, 1, 64, 0
1, 13529, Note_off_c, 1, 71, 0
1, 13530, Note_on_c, 1, 73, 127
1, 13544, Note_off_c, 1, 73, 0
1, 13545, Note_on_c, 1, 74, 127
1, 13559, Note_off_c, 1, 67, 0
1, 13559, Note_off_c, 1, 76, 0
1, 13559, Note_off_c, 1, 57, 0
1, 13559, Note_off_c, 1, 74, 0
1, 13560, Note_on_c, 1, 61, 127
1, 13575, Note_on_c, 1, 78, 127
1, 13575, Note_on_c, 1, 50, 127
1, 13589, Note_off_c, 1, 61, 0
1, 13589, Note_off_c, 1, 78, 0
1, 13589, Note_off_c, 1, 50, 0
1, 13605, Note_on_c, 1, 47, 127
1, 13619, Note_off_c, 1, 49, 0
1, 13619, Note_off_c, 1, 47, 0
1, 13620, Note_on_c, 1, 45, 127
1, 13634, Note_off_c, 1, 45, 0
1, 13635, Note_on_c, 1, 43, 127
1, 13649, Note_off_c, 1, 43, 0
1, 13650, Note_on_c, 1, 42, 127
1, 13664, Note_off_c, 1, 42, 0
1, 13665, Note_on_c, 1, 40, 127
1, 13679, Note_off_c, 1, 40, 0
1, 13680, Note_on_c, 1, 66, 127
1, 13680, Note_on_c, 1, 62, 127
1, 13680, Note_on_c, 1, 38, 127
1, 13709, Note_off_c, 1, 38, 0
1, 13710, Note_on_c, 1, 68, 127
1, 13724, Note_off_c, 1, 68, 0
1, 13739, Note_off_c, 1, 66, 0
1, 13739, Note_off_c, 1, 62, 0
1, 13740, Note_on_c, 1, 68, 127
1, 13740, Note_on_c, 1, 71, 127
1, 13740, Note_on_c, 1, 64, 127
1, 13740, Note_on_c, 1, 59, 127
1, 13740, Note_on_c, 1, 62, 127
1, 13740, Note_on_c, 1, 50, 127
1, 13769, Note_off_c, 1, 64, 0
1, 13769, Note_off_c, 1, 50, 0
1, 13770, Note_on_c, 1, 66, 127
1, 13770, Note_on_c, 1, 69, 127
1, 13784, Note_off_c, 1, 66, 0
1, 13784, Note_off_c, 1, 69, 0
1, 13799, Note_off_c, 1, 68, 0
1, 13799, Note_off_c, 1, 71, 0
1, 13799, Note_off_c, 1, 59, 0
1, 13799, Note_off_c, 1, 62, 0
1, 13800, Note_on_c, 1, 69, 127
1, 13800, Note_on_c, 1, 73, 127
1, 13800, Note_on_c, 1, 64, 127
1, 13800, Note_on_c, 1, 52, 127
1, 13800, Note_on_c, 1, 61, 127
1, 13800, Note_on_c, 1, 49, 127
1, 13815, Note_on_c, 1, 66, 127
1, 13829, Note_off_c, 1, 52, 0
1, 13829, Note_off_c, 1, 49, 0
1, 13829, Note_off_c, 1, 66, 0
1, 13830, Note_on_c, 1, 68, 127
1, 13830, Note_on_c, 1, 71, 127
1, 13844, Note_off_c, 1, 68, 0
1, 13844, Note_off_c, 1, 71, 0
1, 13859, Note_off_c, 1, 69, 0
1, 13859, Note_off_c, 1, 73, 0
1, 13859, Note_off_c, 1, 64, 0
1, 13859, Note_off_c, 1, 61, 0
1, 13860, Note_on_c, 1, 71, 127
1, 13860, Note_on_c, 1, 74, 127
1, 13860, Note_on_c, 1, 66, 127
1, 13860, Note_on_c, 1, 59, 127
1, 13860, Note_on_c, 1, 47, 127
1, 13875, Note_on_c, 1, 68, 127
1, 13889, Note_off_c, 1, 66, 0
1, 13889, Note_off_c, 1, 47, 0
1, 13889, Note_off_c, 1, 68, 0
1, 13890, Note_on_c, 1, 69, 127
1, 13890, Note_on_c, 1, 64, 127
1, 13904, Note_off_c, 1, 69, 0
1, 13919, Note_off_c, 1, 74, 0
1, 13919, Note_off_c, 1, 59, 0
1, 13919, Note_off_c, 1, 64, 0
1, 13920, Note_on_c, 1, 73, 127
1, 13920, Note_on_c, 1, 78, 127
1, 13920, Note_on_c, 1, 62, 127
1, 13920, Note_on_c, 1, 54, 127
1, 13920, Note_on_c, 1, 42, 127
1, 13934, Note_off_c, 1, 73, 0
1, 13949, Note_off_c, 1, 71, 0
1, 13949, Note_off_c, 1, 78, 0
1, 13949, Note_off_c, 1, 62, 0
1, 13949, Note_off_c, 1, 42, 0
1, 13950, Note_on_c, 1, 76, 127
1, 13950, Note_on_c, 1, 61, 127
1, 13979, Note_off_c, 1, 54, 0
1, 13979, Note_off_c, 1, 76, 0
1, 13979, Note_off_c, 1, 61, 0
1, 13980, Note_on_c, 1, 74, 127
1, 13980, Note_on_c, 1, 59, 127
1, 13980, Note_on_c, 1, 57, 127
1, 13980, Note_on_c, 1, 45, 127
1, 13995, Note_on_c, 1, 71, 127
1, 14009, Note_off_c, 1, 59, 0
1, 14009, Note_off_c, 1, 45, 0
1, 14009, Note_off_c, 1, 71, 0
1, 14010, Note_on_c, 1, 73, 127
1, 14039, Note_off_c, 1, 74, 0
1, 14039, Note_off_c, 1, 57, 0
1, 14039, Note_off_c, 1, 73, 0
1, 14040, Note_on_c, 1, 76, 127
1, 14040, Note_on_c, 1, 83, 127
1, 14040, Note_on_c, 1, 71, 127
1, 14040, Note_on_c, 1, 52, 127
1, 14040, Note_on_c, 1, 74, 127
1, 14040, Note_on_c, 1, 64, 127
1, 14040, Note_on_c, 1, 56, 127
1, 14040, Note_on_c, 1, 44, 127
1, 14054, Note_off_c, 1, 76, 0
1, 14055, Note_on_c, 1, 73, 127
1, 14069, Note_off_c, 1, 52, 0
1, 14069, Note_off_c, 1, 44, 0
1, 14069, Note_off_c, 1, 73, 0
1, 14099, Note_off_c, 1, 83, 0
1, 14099, Note_off_c, 1, 71, 0
1, 14099, Note_off_c, 1, 74, 0
1, 14099, Note_off_c, 1, 64, 0
1, 14100, Note_on_c, 1, 78, 127
1, 14100, Note_on_c, 1, 62, 127
1, 14100, Note_on_c, 1, 42, 127
1, 14114, Note_off_c, 1, 78, 0
1, 14129, Note_off_c, 1, 56, 0
1, 14129, Note_off_c, 1, 42, 0
1, 14130, Note_on_c, 1, 54, 127
1, 14159, Note_off_c, 1, 62, 0
1, 14159, Note_off_c, 1, 54, 0
1, 14160, Note_on_c, 1, 80, 127
1, 14160, Note_on_c, 1, 40, 127
1, 14174, Note_off_c, 1, 80, 0
1, 14189, Note_off_c, 1, 40, 0
1, 14220, Note_on_c, 1, 81, 127
1, 14220, Note_on_c, 1, 73, 127
1, 14220, Note_on_c, 1, 69, 127
1, 14220, Note_on_c, 1, 64, 127
1, 14220, Note_on_c, 1, 76, 127
1, 14220, Note_on_c, 1, 61, 127
1, 14220, Note_on_c, 1, 57, 127
1, 14220, Note_on_c, 1, 45, 127
1, 14249, Note_off_c, 1, 81, 0
1, 14249, Note_off_c, 1, 73, 0
1, 14249, Note_off_c, 1, 64, 0
1, 14249, Note_off_c, 1, 45, 0
1, 14279, Note_off_c, 1, 69, 0
1, 14279, Note_off_c, 1, 76, 0
1, 14279, Note_off_c, 1, 61, 0
1, 14279, Note_off_c, 1, 57, 0
1, 14280, Note_on_c, 1, 83, 127
1, 14280, Note_on_c, 1, 74, 127
1, 14280, Note_on_c, 1, 78, 127
1, 14280, Note_on_c, 1, 59, 127
1, 14280, Note_on_c, 1, 71, 127
1, 14280, Note_on_c, 1, 50, 127
1, 14280, Note_on_c, 1, 38, 127
1, 14309, Note_off_c, 1, 83, 0
1, 14309, Note_off_c, 1, 74, 0
1, 14309, Note_off_c, 1, 78, 0
1, 14309, Note_off_c, 1, 38, 0
1, 14310, Note_on_c, 1, 73, 127
1, 14339, Note_off_c, 1, 59, 0
1, 14339, Note_off_c, 1, 71, 0
1, 14339, Note_off_c, 1, 50, 0
1, 14339, Note_off_c, 1, 73, 0
1, 14340, Note_on_c, 1, 80, 127
1, 14340, Note_on_c, 1, 71, 127
1, 14340, Note_on_c, 1, 76, 127
1, 14340, Note_on_c, 1, 68, 127
1, 14340, Note_on_c, 1, 64, 127
1, 14340, Note_on_c, 1, 52, 127
1, 14340, Note_on_c, 1, 40, 127
1, 14369, Note_off_c, 1, 80, 0
1, 14369, Note_off_c, 1, 71, 0
1, 14369, Note_off_c, 1, 76, 0
1, 14369, Note_off_c, 1, 40, 0
1, 14370, Note_on_c, 1, 73, 127
1, 14399, Note_off_c, 1, 68, 0
1, 14399, Note_off_c, 1, 64, 0
1, 14399, Note_off_c, 1, 52, 0
1, 14399, Note_off_c, 1, 73, 0
1, 14400, Note_on_c, 1, 85, 127
1, 14400, Note_on_c, 1, 81, 127
1, 14400, Note_on_c, 1, 76, 127
1, 14400, Note_on_c, 1, 45, 127
1, 14400, Note_on_c, 1, 69, 127
1, 14400, Note_on_c, 1, 73, 127
1, 14400, Note_on_c, 1, 64, 127
1, 14400, Note_on_c, 1, 61, 127
1, 14400, Note_on_c, 1, 57, 127
1, 14429, Note_off_c, 1, 85, 0
1, 14429, Note_off_c, 1, 76, 0
1, 14429, Note_off_c, 1, 73, 0
1, 14459, Note_off_c, 1, 81, 0
1, 14460, Note_off_c, 1, 45, 0
1, 14460, Note_on_c, 1, 49, 127
1, 14519, Note_off_c, 1, 69, 0
1, 14519, Note_off_c, 1, 64, 0
1, 14519, Note_off_c, 1, 61, 0
1, 14519, Note_off_c, 1, 57, 0
1, 14519, Note_off_c, 1, 49, 0
1, 14520, Note_on_c, 1, 85, 127
1, 14520, Note_on_c, 1, 81, 127
1, 14520, Note_on_c, 1, 76, 127
1, 14520, Note_on_c, 1, 64, 127
1, 14520, Note_on_c, 1, 45, 127
1, 14537, Note_off_c, 1, 64, 0
1, 14549, Note_off_c, 1, 85, 0
1, 14549, Note_off_c, 1, 81, 0
1, 14549, Note_off_c, 1, 76, 0
1, 14579, Note_off_c, 1, 45, 0
1, 14580, Note_on_c, 1, 85, 127
1, 14580, Note_on_c, 1, 81, 127
1, 14580, Note_on_c, 1, 76, 127
1, 14580, Note_on_c, 1, 64, 127
1, 14580, Note_on_c, 1, 52, 127
1, 14597, Note_off_c, 1, 64, 0
1, 14639, Note_off_c, 1, 85, 0
1, 14639, Note_off_c, 1, 81, 0
1, 14639, Note_off_c, 1, 76, 0
1, 14639, Note_off_c, 1, 52, 0
1, 14640, Note_on_c, 1, 83, 127
1, 14640, Note_on_c, 1, 80, 127
1, 14640, Note_on_c, 1, 76, 127
1, 14640, Note_on_c, 1, 64, 127
1, 14657, Note_off_c, 1, 64, 0
1, 14669, Note_off_c, 1, 83, 0
1, 14669, Note_off_c, 1, 80, 0
1, 14669, Note_off_c, 1, 76, 0
1, 14670, Note_on_c, 1, 81, 127
1, 14670, Note_on_c, 1, 78, 127
1, 14670, Note_on_c, 1, 76, 127
1, 14670, Note_on_c, 1, 64, 127
1, 14687, Note_off_c, 1, 64, 0
1, 14699, Note_off_c, 1, 81, 0
1, 14699, Note_off_c, 1, 78, 0
1, 14699, Note_off_c, 1, 76, 0
1, 14700, Note_on_c, 1, 83, 127
1, 14700, Note_on_c, 1, 80, 127
1, 14700, Note_on_c, 1, 76, 127
1, 14700, Note_on_c, 1, 71, 127
1, 14700, Note_on_c, 1, 68, 127
1, 14700, Note_on_c, 1, 64, 127
1, 14717, Note_off_c, 1, 64, 0
1, 14729, Note_off_c, 1, 71, 0
1, 14729, Note_off_c, 1, 68, 0
1, 14730, Note_on_c, 1, 73, 127
1, 14730, Note_on_c, 1, 69, 127
1, 14759, Note_off_c, 1, 83, 0
1, 14759, Note_off_c, 1, 80, 0
1, 14759, Note_off_c, 1, 76, 0
1, 14759, Note_off_c, 1, 73, 0
1, 14759, Note_off_c, 1, 69, 0
1, 14760, Note_on_c, 1, 74, 127
1, 14760, Note_on_c, 1, 71, 127
1, 14760, Note_on_c, 1, 64, 127
1, 14760, Note_on_c, 1, 52, 127
1, 14777, Note_off_c, 1, 64, 0
1, 14789, Note_off_c, 1, 74, 0
1, 14789, Note_off_c, 1, 71, 0
1, 14819, Note_off_c, 1, 52, 0
1, 14820, Note_on_c, 1, 74, 127
1, 14820, Note_on_c, 1, 71, 127
1, 14820, Note_on_c, 1, 64, 127
1, 14820, Note_on_c, 1, 56, 127
1, 14837, Note_off_c, 1, 64, 0
1, 14849, Note_off_c, 1, 74, 0
1, 14849, Note_off_c, 1, 71, 0
1, 14879, Note_off_c, 1, 56, 0
1, 14880, Note_on_c, 1, 74, 127
1, 14880, Note_on_c, 1, 71, 127
1, 14880, Note_on_c, 1, 64, 127
1, 14880, Note_on_c, 1, 52, 127
1, 14897, Note_off_c, 1, 64, 0
1, 14909, Note_off_c, 1, 74, 0
1, 14909, Note_off_c, 1, 71, 0
1, 14939, Note_off_c, 1, 52, 0
1, 14940, Note_on_c, 1, 74, 127
1, 14940, Note_on_c, 1, 71, 127
1, 14940, Note_on_c, 1, 64, 127
1, 14940, Note_on_c, 1, 57, 127
1, 14957, Note_off_c, 1, 64, 0
1, 14999, Note_off_c, 1, 74, 0
1, 14999, Note_off_c, 1, 71, 0
1, 14999, Note_off_c, 1, 57, 0
1, 15000, Note_on_c, 1, 73, 127
1, 15000, Note_on_c, 1, 69, 127
1, 15000, Note_on_c, 1, 64, 127
1, 15017, Note_off_c, 1, 64, 0
1, 15029, Note_off_c, 1, 73, 0
1, 15029, Note_off_c, 1, 69, 0
1, 15030, Note_on_c, 1, 71, 127
1, 15030, Note_on_c, 1, 68, 127
1, 15030, Note_on_c, 1, 64, 127
1, 15047, Note_off_c, 1, 64, 0
1, 15059, Note_off_c, 1, 71, 0
1, 15059, Note_off_c, 1, 68, 0
1, 15060, Note_on_c, 1, 76, 127
1, 15060, Note_on_c, 1, 73, 127
1, 15060, Note_on_c, 1, 69, 127
1, 15060, Note_on_c, 1, 64, 127
1, 15077, Note_off_c, 1, 64, 0
1, 15089, Note_off_c, 1, 76, 0
1, 15090, Note_on_c, 1, 78, 127
1, 15090, Note_on_c, 1, 74, 127
1, 15090, Note_on_c, 1, 62, 127
1, 15107, Note_off_c, 1, 62, 0
1, 15119, Note_off_c, 1, 73, 0
1, 15119, Note_off_c, 1, 69, 0
1, 15119, Note_off_c, 1, 78, 0
1, 15119, Note_off_c, 1, 74, 0
1, 15120, Note_on_c, 1, 79, 127
1, 15120, Note_on_c, 1, 76, 127
1, 15120, Note_on_c, 1, 61, 127
1, 15120, Note_on_c, 1, 58, 127
1, 15137, Note_off_c, 1, 61, 0
1, 15149, Note_off_c, 1, 79, 0
1, 15149, Note_off_c, 1, 76, 0
1, 15149, Note_off_c, 1, 58, 0
1, 15150, Note_on_c, 1, 61, 127
1, 15150, Note_on_c, 1, 58, 127
1, 15167, Note_off_c, 1, 61, 0
1, 15179, Note_off_c, 1, 58, 0
1, 15180, Note_on_c, 1, 79, 127
1, 15180, Note_on_c, 1, 76, 127
1, 15180, Note_on_c, 1, 61, 127
1, 15180, Note_on_c, 1, 58, 127
1, 15197, Note_off_c, 1, 61, 0
1, 15209, Note_off_c, 1, 79, 0
1, 15209, Note_off_c, 1, 76, 0
1, 15209, Note_off_c, 1, 58, 0
1, 15210, Note_on_c, 1, 61, 127
1, 15210, Note_on_c, 1, 58, 127
1, 15227, Note_off_c, 1, 61, 0
1, 15239, Note_off_c, 1, 58, 0
1, 15240, Note_on_c, 1, 79, 127
1, 15240, Note_on_c, 1, 76, 127
1, 15240, Note_on_c, 1, 61, 127
1, 15240, Note_on_c, 1, 58, 127
1, 15257, Note_off_c, 1, 61, 0
1, 15269, Note_off_c, 1, 79, 0
1, 15269, Note_off_c, 1, 76, 0
1, 15269, Note_off_c, 1, 58, 0
1, 15270, Note_on_c, 1, 61, 127
1, 15270, Note_on_c, 1, 58, 127
1, 15287, Note_off_c, 1, 61, 0
1, 15299, Note_off_c, 1, 58, 0
1, 15300, Note_on_c, 1, 79, 127
1, 15300, Note_on_c, 1, 76, 127
1, 15300, Note_on_c, 1, 59, 127
1, 15330, Note_on_c, 1, 73, 127
1, 15359, Note_off_c, 1, 79, 0
1, 15359, Note_off_c, 1, 76, 0
1, 15359, Note_off_c, 1, 59, 0
1, 15359, Note_off_c, 1, 73, 0
1, 15360, Note_on_c, 1, 78, 127
1, 15360, Note_on_c, 1, 74, 127
1, 15360, Note_on_c, 1, 66, 127
1, 15360, Note_on_c, 1, 59, 127
1, 15360, Note_on_c, 1, 47, 127
1, 15389, Note_off_c, 1, 78, 0
1, 15389, Note_off_c, 1, 74, 0
1, 15389, Note_off_c, 1, 47, 0
1, 15390, Note_on_c, 1, 76, 127
1, 15390, Note_on_c, 1, 73, 127
1, 15419, Note_off_c, 1, 66, 0
1, 15419, Note_off_c, 1, 59, 0
1, 15419, Note_off_c, 1, 76, 0
1, 15419, Note_off_c, 1, 73, 0
1, 15420, Note_on_c, 1, 78, 127
1, 15420, Note_on_c, 1, 74, 127
1, 15420, Note_on_c, 1, 62, 127
1, 15420, Note_on_c, 1, 50, 127
1, 15420, Note_on_c, 1, 71, 127
1, 15420, Note_on_c, 1, 59, 127
1, 15449, Note_off_c, 1, 78, 0
1, 15449, Note_off_c, 1, 50, 0
1, 15449, Note_off_c, 1, 59, 0
1, 15450, Note_on_c, 1, 79, 127
1, 15479, Note_off_c, 1, 74, 0
1, 15479, Note_off_c, 1, 62, 0
1, 15479, Note_off_c, 1, 71, 0
1, 15479, Note_off_c, 1, 79, 0
1, 15480, Note_on_c, 1, 81, 127
1, 15480, Note_on_c, 1, 74, 127
1, 15480, Note_on_c, 1, 66, 127
1, 15480, Note_on_c, 1, 50, 127
1, 15480, Note_on_c, 1, 78, 127
1, 15480, Note_on_c, 1, 69, 127
1, 15480, Note_on_c, 1, 62, 127
1, 15480, Note_on_c, 1, 54, 127
1, 15494, Note_off_c, 1, 78, 0
1, 15495, Note_on_c, 1, 79, 127
1, 15509, Note_off_c, 1, 54, 0
1, 15509, Note_off_c, 1, 79, 0
1, 15539, Note_off_c, 1, 81, 0
1, 15539, Note_off_c, 1, 66, 0
1, 15539, Note_off_c, 1, 69, 0
1, 15540, Note_on_c, 1, 83, 127
1, 15540, Note_on_c, 1, 42, 127
1, 15569, Note_off_c, 1, 50, 0
1, 15569, Note_off_c, 1, 83, 0
1, 15569, Note_off_c, 1, 42, 0
1, 15599, Note_off_c, 1, 74, 0
1, 15599, Note_off_c, 1, 62, 0
1, 15600, Note_on_c, 1, 79, 127
1, 15600, Note_on_c, 1, 83, 127
1, 15600, Note_on_c, 1, 62, 127
1, 15600, Note_on_c, 1, 50, 127
1, 15600, Note_on_c, 1, 76, 127
1, 15600, Note_on_c, 1, 71, 127
1, 15600, Note_on_c, 1, 43, 127
1, 15629, Note_off_c, 1, 79, 0
1, 15629, Note_off_c, 1, 50, 0
1, 15629, Note_off_c, 1, 76, 0
1, 15629, Note_off_c, 1, 43, 0
1, 15630, Note_on_c, 1, 78, 127
1, 15630, Note_on_c, 1, 74, 127
1, 15659, Note_off_c, 1, 83, 0
1, 15659, Note_off_c, 1, 62, 0
1, 15659, Note_off_c, 1, 71, 0
1, 15659, Note_off_c, 1, 78, 0
1, 15659, Note_off_c, 1, 74, 0
1, 15660, Note_on_c, 1, 76, 127
1, 15660, Note_on_c, 1, 81, 127
1, 15660, Note_on_c, 1, 69, 127
1, 15660, Note_on_c, 1, 45, 127
1, 15660, Note_on_c, 1, 73, 127
1, 15690, Note_on_c, 1, 71, 127
1, 15719, Note_off_c, 1, 76, 0
1, 15719, Note_off_c, 1, 81, 0
1, 15719, Note_off_c, 1, 45, 0
1, 15719, Note_off_c, 1, 73, 0
1, 15719, Note_off_c, 1, 71, 0
1, 15720, Note_on_c, 1, 64, 127
1, 15720, Note_on_c, 1, 49, 127
1, 15749, Note_off_c, 1, 49, 0
1, 15750, Note_on_c, 1, 83, 127
1, 15750, Note_on_c, 1, 67, 127
1, 15779, Note_off_c, 1, 69, 0
1, 15779, Note_off_c, 1, 64, 0
1, 15779, Note_off_c, 1, 83, 0
1, 15779, Note_off_c, 1, 67, 0
1, 15780, Note_on_c, 1, 81, 127
1, 15780, Note_on_c, 1, 66, 127
1, 15780, Note_on_c, 1, 73, 127
1, 15780, Note_on_c, 1, 69, 127
1, 15780, Note_on_c, 1, 45, 127
1, 15809, Note_off_c, 1, 81, 0
1, 15809, Note_off_c, 1, 66, 0
1, 15809, Note_off_c, 1, 45, 0
1, 15810, Note_on_c, 1, 79, 127
1, 15810, Note_on_c, 1, 64, 127
1, 15839, Note_off_c, 1, 73, 0
1, 15839, Note_off_c, 1, 69, 0
1, 15839, Note_off_c, 1, 79, 0
1, 15839, Note_off_c, 1, 64, 0
1, 15840, Note_on_c, 1, 78, 127
1, 15840, Note_on_c, 1, 74, 127
1, 15840, Note_on_c, 1, 69, 127
1, 15840, Note_on_c, 1, 62, 127
1, 15840, Note_on_c, 1, 50, 127
1, 15869, Note_off_c, 1, 78, 0
1, 15870, Note_on_c, 1, 79, 127
1, 15899, Note_off_c, 1, 74, 0
1, 15899, Note_off_c, 1, 69, 0
1, 15899, Note_off_c, 1, 62, 0
1, 15899, Note_off_c, 1, 50, 0
1, 15899, Note_off_c, 1, 79, 0
1, 15900, Note_on_c, 1, 81, 127
1, 15900, Note_on_c, 1, 78, 127
1, 15900, Note_on_c, 1, 74, 127
1, 15900, Note_on_c, 1, 62, 127
1, 15900, Note_on_c, 1, 50, 127
1, 15929, Note_off_c, 1, 81, 0
1, 15930, Note_on_c, 1, 79, 127
1, 15959, Note_off_c, 1, 78, 0
1, 15959, Note_off_c, 1, 74, 0
1, 15959, Note_off_c, 1, 62, 0
1, 15959, Note_off_c, 1, 50, 0
1, 15959, Note_off_c, 1, 79, 0
1, 15960, Note_on_c, 1, 78, 127
1, 15960, Note_on_c, 1, 74, 127
1, 15960, Note_on_c, 1, 69, 127
1, 15960, Note_on_c, 1, 62, 127
1, 15960, Note_on_c, 1, 50, 127
1, 15989, Note_off_c, 1, 78, 0
1, 15990, Note_on_c, 1, 76, 127
1, 16019, Note_off_c, 1, 74, 0
1, 16019, Note_off_c, 1, 69, 0
1, 16019, Note_off_c, 1, 62, 0
1, 16019, Note_off_c, 1, 50, 0
1, 16019, Note_off_c, 1, 76, 0
1, 16020, Note_on_c, 1, 74, 127
1, 16020, Note_on_c, 1, 69, 127
1, 16020, Note_on_c, 1, 66, 127
1, 16020, Note_on_c, 1, 62, 127
1, 16020, Note_on_c, 1, 50, 127
1, 16050, Note_on_c, 1, 78, 127
1, 16064, Note_off_c, 1, 78, 0
1, 16065, Note_on_c, 1, 79, 127
1, 16065, Note_on_c, 1, 76, 127
1, 16079, Note_off_c, 1, 74, 0
1, 16079, Note_off_c, 1, 69, 0
1, 16079, Note_off_c, 1, 66, 0
1, 16079, Note_off_c, 1, 62, 0
1, 16079, Note_off_c, 1, 50, 0
1, 16079, Note_off_c, 1, 79, 0
1, 16079, Note_off_c, 1, 76, 0
1, 16080, Note_on_c, 1, 81, 127
1, 16080, Note_on_c, 1, 78, 127
1, 16080, Note_on_c, 1, 57, 127
1, 16080, Note_on_c, 1, 45, 127
1, 16094, Note_off_c, 1, 81, 0
1, 16094, Note_off_c, 1, 78, 0
1, 16095, Note_on_c, 1, 79, 127
1, 16095, Note_on_c, 1, 76, 127
1, 16109, Note_off_c, 1, 79, 0
1, 16109, Note_off_c, 1, 76, 0
1, 16139, Note_off_c, 1, 57, 0
1, 16139, Note_off_c, 1, 45, 0
1, 16140, Note_on_c, 1, 81, 127
1, 16140, Note_on_c, 1, 78, 127
1, 16154, Note_off_c, 1, 81, 0
1, 16154, Note_off_c, 1, 78, 0
1, 16155, Note_on_c, 1, 79, 127
1, 16155, Note_on_c, 1, 76, 127
1, 16169, Note_off_c, 1, 79, 0
1, 16169, Note_off_c, 1, 76, 0
1, 16170, Note_on_c, 1, 78, 127
1, 16170, Note_on_c, 1, 74, 127
1, 16184, Note_off_c, 1, 78, 0
1, 16184, Note_off_c, 1, 74, 0
1, 16185, Note_on_c, 1, 79, 127
1, 16185, Note_on_c, 1, 76, 127
1, 16199, Note_off_c, 1, 79, 0
1, 16199, Note_off_c, 1, 76, 0
1, 16200, Note_on_c, 1, 50, 127
1, 16200, Note_on_c, 1, 81, 127
1, 16200, Note_on_c, 1, 78, 127
1, 16200, Note_on_c, 1, 38, 127
1, 16259, Note_off_c, 1, 50, 0
1, 16259, Note_off_c, 1, 81, 0
1, 16259, Note_off_c, 1, 78, 0
1, 16259, Note_off_c, 1, 38, 0
1, 16260, Note_on_c, 1, 50, 127
1, 16380, Note_on_c, 1, 86, 127
1, 16380, Note_on_c, 1, 81, 127
1, 16410, Note_on_c, 1, 74, 127
1, 16410, Note_on_c, 1, 66, 127
1, 16424, Note_off_c, 1, 74, 0
1, 16424, Note_off_c, 1, 66, 0
1, 16425, Note_on_c, 1, 76, 127
1, 16425, Note_on_c, 1, 67, 127
1, 16439, Note_off_c, 1, 50, 0
1, 16439, Note_off_c, 1, 86, 0
1, 16439, Note_off_c, 1, 81, 0
1, 16439, Note_off_c, 1, 76, 0
1, 16439, Note_off_c, 1, 67, 0
1, 16440, Note_on_c, 1, 45, 127
1, 16440, Note_on_c, 1, 78, 127
1, 16440, Note_on_c, 1, 69, 127
1, 16454, Note_off_c, 1, 78, 0
1, 16454, Note_off_c, 1, 69, 0
1, 16455, Note_on_c, 1, 76, 127
1, 16455, Note_on_c, 1, 67, 127
1, 16469, Note_off_c, 1, 76, 0
1, 16469, Note_off_c, 1, 67, 0
1, 16499, Note_off_c, 1, 45, 0
1, 16500, Note_on_c, 1, 78, 127
1, 16500, Note_on_c, 1, 69, 127
1, 16500, Note_on_c, 1, 57, 127
1, 16514, Note_off_c, 1, 78, 0
1, 16515, Note_on_c, 1, 76, 127
1, 16515, Note_on_c, 1, 67, 127
1, 16529, Note_off_c, 1, 76, 0
1, 16529, Note_off_c, 1, 67, 0
1, 16530, Note_on_c, 1, 74, 127
1, 16530, Note_on_c, 1, 66, 127
1, 16544, Note_off_c, 1, 74, 0
1, 16544, Note_off_c, 1, 66, 0
1, 16559, Note_off_c, 1, 69, 0
1, 16559, Note_off_c, 1, 57, 0
1, 16560, Note_on_c, 1, 81, 127
1, 16560, Note_on_c, 1, 78, 127
1, 16560, Note_on_c, 1, 69, 127
1, 16560, Note_on_c, 1, 57, 127
1, 16560, Note_on_c, 1, 50, 127
1, 16619, Note_off_c, 1, 81, 0
1, 16619, Note_off_c, 1, 78, 0
1, 16619, Note_off_c, 1, 69, 0
1, 16619, Note_off_c, 1, 57, 0
1, 16619, Note_off_c, 1, 50, 0
1, 16620, Note_on_c, 1, 74, 127
1, 16620, Note_on_c, 1, 62, 127
1, 16649, Note_off_c, 1, 74, 0
1, 16649, Note_off_c, 1, 62, 0
1, 16650, Note_on_c, 1, 69, 127
1, 16650, Note_on_c, 1, 57, 127
1, 16679, Note_off_c, 1, 69, 0
1, 16679, Note_off_c, 1, 57, 0
1, 16680, Note_on_c, 1, 66, 127
1, 16680, Note_on_c, 1, 54, 127
1, 16709, Note_off_c, 1, 66, 0
1, 16709, Note_off_c, 1, 54, 0
1, 16710, Note_on_c, 1, 62, 127
1, 16710, Note_on_c, 1, 50, 127
1, 16739, Note_off_c, 1, 62, 0
1, 16739, Note_off_c, 1, 50, 0
1, 16740, Note_on_c, 1, 78, 127
1, 16740, Note_on_c, 1, 74, 127
1, 16740, Note_on_c, 1, 69, 127
1, 16740, Note_on_c, 1, 57, 127
1, 16770, Note_on_c, 1, 66, 127
1, 16770, Note_on_c, 1, 62, 127
1, 16784, Note_off_c, 1, 66, 0
1, 16784, Note_off_c, 1, 62, 0
1, 16785, Note_on_c, 1, 67, 127
1, 16785, Note_on_c, 1, 64, 127
1, 16799, Note_off_c, 1, 78, 0
1, 16799, Note_off_c, 1, 74, 0
1, 16799, Note_off_c, 1, 69, 0
1, 16799, Note_off_c, 1, 67, 0
1, 16799, Note_off_c, 1, 64, 0
1, 16859, Note_off_c, 1, 57, 0
1, 16860, Note_on_c, 1, 69, 127
1, 16860, Note_on_c, 1, 66, 127
1, 16874, Note_off_c, 1, 69, 0
1, 16874, Note_off_c, 1, 66, 0
1, 16875, Note_on_c, 1, 67, 127
1, 16875, Note_on_c, 1, 64, 127
1, 16889, Note_off_c, 1, 67, 0
1, 16889, Note_off_c, 1, 64, 0
1, 16890, Note_on_c, 1, 66, 127
1, 16890, Note_on_c, 1, 62, 127
1, 16904, Note_off_c, 1, 66, 0
1, 16904, Note_off_c, 1, 62, 0
1, 16905, Note_on_c, 1, 67, 127
1, 16905, Note_on_c, 1, 64, 127
1, 16919, Note_off_c, 1, 67, 0
1, 16919, Note_off_c, 1, 64, 0
1, 16920, Note_on_c, 1, 62, 127
1, 16920, Note_on_c, 1, 50, 127
1, 16920, Note_on_c, 1, 69, 127
1, 16920, Note_on_c, 1, 66, 127
1, 16920, Note_on_c, 1, 38, 127
1, 16934, Note_off_c, 1, 50, 0
1, 16935, Note_on_c, 1, 86, 127
1, 16949, Note_off_c, 1, 86, 0
1, 16950, Note_on_c, 1, 85, 127
1, 16964, Note_off_c, 1, 85, 0
1, 16965, Note_on_c, 1, 83, 127
1, 16979, Note_off_c, 1, 69, 0
1, 16979, Note_off_c, 1, 66, 0
1, 16979, Note_off_c, 1, 38, 0
1, 16979, Note_off_c, 1, 83, 0
1, 16980, Note_on_c, 1, 81, 127
1, 16980, Note_on_c, 1, 74, 127
1, 17039, Note_off_c, 1, 62, 0
1, 17039, Note_off_c, 1, 81, 0
1, 17039, Note_off_c, 1, 74, 0
1, 17040, Note_on_c, 1, 66, 127
1, 17040, Note_on_c, 1, 50, 127
1, 17040, Note_on_c, 1, 81, 127
1, 17040, Note_on_c, 1, 78, 127
1, 17040, Note_on_c, 1, 69, 127
1, 17040, Note_on_c, 1, 62, 127
1, 17054, Note_off_c, 1, 81, 0
1, 17055, Note_on_c, 1, 79, 127
1, 17069, Note_off_c, 1, 66, 0
1, 17069, Note_off_c, 1, 79, 0
1, 17085, Note_on_c, 1, 76, 127
1, 17099, Note_off_c, 1, 50, 0
1, 17099, Note_off_c, 1, 78, 0
1, 17099, Note_off_c, 1, 69, 0
1, 17099, Note_off_c, 1, 62, 0
1, 17099, Note_off_c, 1, 76, 0
1, 17100, Note_on_c, 1, 74, 127
1, 17100, Note_on_c, 1, 62, 127
1, 17100, Note_on_c, 1, 50, 127
1, 17100, Note_on_c, 1, 78, 127
1, 17100, Note_on_c, 1, 57, 127
1, 17114, Note_off_c, 1, 50, 0
1, 17129, Note_off_c, 1, 62, 0
1, 17130, Note_on_c, 1, 69, 127
1, 17130, Note_on_c, 1, 73, 127
1, 17144, Note_off_c, 1, 73, 0
1, 17145, Note_on_c, 1, 71, 127
1, 17159, Note_off_c, 1, 69, 0
1, 17159, Note_off_c, 1, 71, 0
1, 17160, Note_off_c, 1, 57, 0
1, 17160, Note_on_c, 1, 66, 127
1, 17189, Note_off_c, 1, 66, 0
1, 17235, Note_on_c, 1, 67, 127
1, 17249, Note_off_c, 1, 67, 0
1, 17265, Note_on_c, 1, 64, 127
1, 17279, Note_off_c, 1, 64, 0
1, 17280, Note_on_c, 1, 81, 127
1, 17310, Note_on_c, 1, 61, 127
1, 17324, Note_off_c, 1, 61, 0
1, 17325, Note_on_c, 1, 59, 127
1, 17339, Note_off_c, 1, 81, 0
1, 17339, Note_off_c, 1, 59, 0
1, 17415, Note_on_c, 1, 55, 127
1, 17429, Note_off_c, 1, 55, 0
1, 17430, Note_on_c, 1, 54, 127
1, 17444, Note_off_c, 1, 54, 0
1, 17445, Note_on_c, 1, 52, 127
1, 17459, Note_off_c, 1, 52, 0
1, 17490, Note_on_c, 1, 49, 127
1, 17504, Note_off_c, 1, 49, 0
1, 17505, Note_on_c, 1, 47, 127
1, 17519, Note_off_c, 1, 47, 0
1, 17520, Note_on_c, 1, 45, 127
1, 17534, Note_off_c, 1, 45, 0
1, 17595, Note_on_c, 1, 43, 127
1, 17609, Note_off_c, 1, 43, 0
1, 17610, Note_on_c, 1, 42, 127
1, 17624, Note_off_c, 1, 42, 0
1, 17625, Note_on_c, 1, 40, 127
1, 17639, Note_off_c, 1, 40, 0
1, 17640, Note_on_c, 1, 38, 127
1, 17699, Note_off_c, 1, 38, 0
1, 17730, Note_off_c, 1, 74, 0
1, 17759, Note_off_c, 1, 78, 0
1, 17880, Note_on_c, 1, 76, 127
1, 17910, Note_off_c, 1, 76, 0
1, 18000, Note_on_c, 1, 79, 127
1, 18059, Note_off_c, 1, 79, 0
1, 18060, Note_on_c, 1, 79, 127
1, 18060, Note_on_c, 1, 76, 127
1, 18060, Note_on_c, 1, 69, 127
1, 18060, Note_on_c, 1, 57, 127
1, 18060, Note_on_c, 1, 64, 127
1, 18060, Note_on_c, 1, 61, 127
1, 18060, Note_on_c, 1, 49, 127
1, 18077, Note_off_c, 1, 57, 0
1, 18089, Note_off_c, 1, 76, 0
1, 18119, Note_off_c, 1, 79, 0
1, 18119, Note_off_c, 1, 69, 0
1, 18119, Note_off_c, 1, 64, 0
1, 18119, Note_off_c, 1, 61, 0
1, 18119, Note_off_c, 1, 49, 0
1, 18120, Note_on_c, 1, 79, 127
1, 18120, Note_on_c, 1, 76, 127
1, 18120, Note_on_c, 1, 69, 127
1, 18120, Note_on_c, 1, 57, 127
1, 18120, Note_on_c, 1, 73, 127
1, 18120, Note_on_c, 1, 64, 127
1, 18120, Note_on_c, 1, 45, 127
1, 18149, Note_off_c, 1, 76, 0
1, 18149, Note_off_c, 1, 69, 0
1, 18179, Note_off_c, 1, 79, 0
1, 18179, Note_off_c, 1, 57, 0
1, 18179, Note_off_c, 1, 73, 0
1, 18179, Note_off_c, 1, 64, 0
1, 18179, Note_off_c, 1, 45, 0
1, 18180, Note_on_c, 1, 79, 127
1, 18180, Note_on_c, 1, 76, 127
1, 18180, Note_on_c, 1, 69, 127
1, 18180, Note_on_c, 1, 57, 127
1, 18180, Note_on_c, 1, 64, 127
1, 18180, Note_on_c, 1, 62, 127
1, 18180, Note_on_c, 1, 50, 127
1, 18197, Note_off_c, 1, 57, 0
1, 18239, Note_off_c, 1, 79, 0
1, 18239, Note_off_c, 1, 76, 0
1, 18239, Note_off_c, 1, 64, 0
1, 18239, Note_off_c, 1, 62, 0
1, 18240, Note_on_c, 1, 78, 127
1, 18240, Note_on_c, 1, 74, 127
1, 18269, Note_off_c, 1, 78, 0
1, 18269, Note_off_c, 1, 74, 0
1, 18270, Note_on_c, 1, 73, 127
1, 18270, Note_on_c, 1, 61, 127
1, 18299, Note_off_c, 1, 69, 0
1, 18299, Note_off_c, 1, 50, 0
1, 18299, Note_off_c, 1, 73, 0
1, 18299, Note_off_c, 1, 61, 0
1, 18300, Note_on_c, 1, 78, 127
1, 18300, Note_on_c, 1, 74, 127
1, 18300, Note_on_c, 1, 66, 127
1, 18300, Note_on_c, 1, 69, 127
1, 18300, Note_on_c, 1, 62, 127
1, 18329, Note_off_c, 1, 66, 0
1, 18330, Note_on_c, 1, 79, 127
1, 18330, Note_on_c, 1, 71, 127
1, 18330, Note_on_c, 1, 67, 127
1, 18359, Note_off_c, 1, 78, 0
1, 18359, Note_off_c, 1, 74, 0
1, 18359, Note_off_c, 1, 69, 0
1, 18359, Note_off_c, 1, 62, 0
1, 18359, Note_off_c, 1, 79, 0
1, 18359, Note_off_c, 1, 71, 0
1, 18359, Note_off_c, 1, 67, 0
1, 18360, Note_on_c, 1, 81, 127
1, 18360, Note_on_c, 1, 72, 127
1, 18360, Note_on_c, 1, 66, 127
1, 18360, Note_on_c, 1, 69, 127
1, 18360, Note_on_c, 1, 62, 127
1, 18360, Note_on_c, 1, 54, 127
1, 18360, Note_on_c, 1, 50, 127
1, 18389, Note_off_c, 1, 72, 0
1, 18389, Note_off_c, 1, 66, 0
1, 18389, Note_off_c, 1, 50, 0
1, 18390, Note_on_c, 1, 52, 127
1, 18419, Note_off_c, 1, 81, 0
1, 18419, Note_off_c, 1, 69, 0
1, 18419, Note_off_c, 1, 62, 0
1, 18419, Note_off_c, 1, 54, 0
1, 18419, Note_off_c, 1, 52, 0
1, 18420, Note_on_c, 1, 72, 127
1, 18420, Note_on_c, 1, 69, 127
1, 18420, Note_on_c, 1, 62, 127
1, 18420, Note_on_c, 1, 54, 127
1, 18450, Note_on_c, 1, 52, 127
1, 18479, Note_off_c, 1, 72, 0
1, 18479, Note_off_c, 1, 69, 0
1, 18479, Note_off_c, 1, 62, 0
1, 18479, Note_off_c, 1, 54, 0
1, 18479, Note_off_c, 1, 52, 0
1, 18480, Note_on_c, 1, 72, 127
1, 18480, Note_on_c, 1, 69, 127
1, 18480, Note_on_c, 1, 62, 127
1, 18480, Note_on_c, 1, 54, 127
1, 18510, Note_on_c, 1, 50, 127
1, 18539, Note_off_c, 1, 72, 0
1, 18539, Note_off_c, 1, 69, 0
1, 18539, Note_off_c, 1, 62, 0
1, 18539, Note_off_c, 1, 54, 0
1, 18539, Note_off_c, 1, 50, 0
1, 18540, Note_on_c, 1, 72, 127
1, 18540, Note_on_c, 1, 69, 127
1, 18540, Note_on_c, 1, 62, 127
1, 18540, Note_on_c, 1, 55, 127
1, 18555, Note_on_c, 1, 74, 127
1, 18555, Note_on_c, 1, 71, 127
1, 18570, Note_off_c, 1, 74, 0
1, 18570, Note_off_c, 1, 71, 0
1, 18570, Note_on_c, 1, 57, 127
1, 18599, Note_off_c, 1, 72, 0
1, 18599, Note_off_c, 1, 69, 0
1, 18599, Note_off_c, 1, 62, 0
1, 18599, Note_off_c, 1, 55, 0
1, 18599, Note_off_c, 1, 57, 0
1, 18600, Note_on_c, 1, 71, 127
1, 18600, Note_on_c, 1, 67, 127
1, 18600, Note_on_c, 1, 62, 127
1, 18600, Note_on_c, 1, 54, 127
1, 18630, Note_on_c, 1, 55, 127
1, 18659, Note_off_c, 1, 71, 0
1, 18659, Note_off_c, 1, 67, 0
1, 18659, Note_off_c, 1, 62, 0
1, 18659, Note_off_c, 1, 54, 0
1, 18659, Note_off_c, 1, 55, 0
1, 18660, Note_on_c, 1, 79, 127
1, 18660, Note_on_c, 1, 69, 127
1, 18660, Note_on_c, 1, 45, 127
1, 18660, Note_on_c, 1, 76, 127
1, 18660, Note_on_c, 1, 61, 127
1, 18660, Note_on_c, 1, 64, 127
1, 18660, Note_on_c, 1, 52, 127
1, 18690, Note_on_c, 1, 54, 127
1, 18719, Note_off_c, 1, 79, 0
1, 18719, Note_off_c, 1, 61, 0
1, 18719, Note_off_c, 1, 64, 0
1, 18719, Note_off_c, 1, 52, 0
1, 18719, Note_off_c, 1, 54, 0
1, 18720, Note_off_c, 1, 45, 0
1, 18720, Note_off_c, 1, 76, 0
1, 18720, Note_on_c, 1, 78, 127
1, 18720, Note_on_c, 1, 62, 127
1, 18720, Note_on_c, 1, 50, 127
1, 18720, Note_on_c, 1, 57, 127
1, 18749, Note_off_c, 1, 57, 0
1, 18750, Note_on_c, 1, 80, 127
1, 18750, Note_on_c, 1, 71, 127
1, 18750, Note_on_c, 1, 59, 127
1, 18779, Note_off_c, 1, 69, 0
1, 18779, Note_off_c, 1, 78, 0
1, 18779, Note_off_c, 1, 80, 0
1, 18779, Note_off_c, 1, 59, 0
1, 18780, Note_off_c, 1, 62, 0
1, 18780, Note_off_c, 1, 71, 0
1, 18780, Note_on_c, 1, 81, 127
1, 18780, Note_on_c, 1, 73, 127
1, 18794, Note_off_c, 1, 81, 0
1, 18809, Note_off_c, 1, 50, 0
1, 18840, Note_off_c, 1, 73, 0
1, 18840, Note_on_c, 1, 74, 127
1, 18900, Note_off_c, 1, 74, 0
1, 18960, Note_on_c, 1, 55, 127
1, 18989, Note_off_c, 1, 55, 0
1, 19050, Note_on_c, 1, 52, 127
1, 19050, Note_on_c, 1, 55, 127
1, 19064, Note_off_c, 1, 52, 0
1, 19065, Note_on_c, 1, 54, 127
1, 19079, Note_off_c, 1, 55, 0
1, 19079, Note_off_c, 1, 54, 0
1, 19080, Note_on_c, 1, 55, 127
1, 19080, Note_on_c, 1, 52, 127
1, 19109, Note_off_c, 1, 52, 0
1, 19110, Note_on_c, 1, 54, 127
1, 19139, Note_off_c, 1, 55, 0
1, 19139, Note_off_c, 1, 54, 0
1, 19140, Note_on_c, 1, 59, 127
1, 19140, Note_on_c, 1, 54, 127
1, 19140, Note_on_c, 1, 50, 127
1, 19169, Note_off_c, 1, 59, 0
1, 19169, Note_off_c, 1, 50, 0
1, 19170, Note_on_c, 1, 61, 127
1, 19170, Note_on_c, 1, 52, 127
1, 19199, Note_off_c, 1, 54, 0
1, 19199, Note_off_c, 1, 61, 0
1, 19199, Note_off_c, 1, 52, 0
1, 19200, Note_on_c, 1, 62, 127
1, 19200, Note_on_c, 1, 52, 127
1, 19200, Note_on_c, 1, 49, 127
1, 19214, Note_off_c, 1, 62, 0
1, 19215, Note_on_c, 1, 61, 127
1, 19229, Note_off_c, 1, 49, 0
1, 19229, Note_off_c, 1, 61, 0
1, 19230, Note_on_c, 1, 59, 127
1, 19230, Note_on_c, 1, 50, 127
1, 19244, Note_off_c, 1, 59, 0
1, 19259, Note_off_c, 1, 52, 0
1, 19259, Note_off_c, 1, 50, 0
1, 19260, Note_on_c, 1, 62, 127
1, 19260, Note_on_c, 1, 59, 127
1, 19260, Note_on_c, 1, 47, 127
1, 19289, Note_off_c, 1, 47, 0
1, 19290, Note_on_c, 1, 61, 127
1, 19319, Note_off_c, 1, 62, 0
1, 19319, Note_off_c, 1, 59, 0
1, 19319, Note_off_c, 1, 61, 0
1, 19320, Note_on_c, 1, 66, 127
1, 19320, Note_on_c, 1, 62, 127
1, 19320, Note_on_c, 1, 61, 127
1, 19320, Note_on_c, 1, 57, 127
1, 19349, Note_off_c, 1, 66, 0
1, 19349, Note_off_c, 1, 62, 0
1, 19350, Note_on_c, 1, 67, 127
1, 19350, Note_on_c, 1, 64, 127
1, 19350, Note_on_c, 1, 59, 127
1, 19379, Note_off_c, 1, 61, 0
1, 19379, Note_off_c, 1, 57, 0
1, 19379, Note_off_c, 1, 67, 0
1, 19379, Note_off_c, 1, 64, 0
1, 19379, Note_off_c, 1, 59, 0
1, 19380, Note_on_c, 1, 69, 127
1, 19380, Note_on_c, 1, 66, 127
1, 19380, Note_on_c, 1, 59, 127
1, 19380, Note_on_c, 1, 55, 127
1, 19394, Note_off_c, 1, 69, 0
1, 19394, Note_off_c, 1, 66, 0
1, 19395, Note_on_c, 1, 67, 127
1, 19395, Note_on_c, 1, 64, 127
1, 19409, Note_off_c, 1, 67, 0
1, 19409, Note_off_c, 1, 64, 0
1, 19410, Note_on_c, 1, 62, 127
1, 19410, Note_on_c, 1, 57, 127
1, 19424, Note_off_c, 1, 62, 0
1, 19439, Note_off_c, 1, 59, 0
1, 19439, Note_off_c, 1, 55, 0
1, 19439, Note_off_c, 1, 57, 0
1, 19440, Note_on_c, 1, 69, 127
1, 19440, Note_on_c, 1, 66, 127
1, 19440, Note_on_c, 1, 57, 127
1, 19440, Note_on_c, 1, 54, 127
1, 19469, Note_off_c, 1, 66, 0
1, 19470, Note_on_c, 1, 67, 127
1, 19470, Note_on_c, 1, 55, 127
1, 19499, Note_off_c, 1, 69, 0
1, 19499, Note_off_c, 1, 57, 0
1, 19499, Note_off_c, 1, 54, 0
1, 19499, Note_off_c, 1, 67, 0
1, 19499, Note_off_c, 1, 55, 0
1, 19500, Note_on_c, 1, 73, 127
1, 19500, Note_on_c, 1, 69, 127
1, 19500, Note_on_c, 1, 67, 127
1, 19500, Note_on_c, 1, 57, 127
1, 19500, Note_on_c, 1, 52, 127
1, 19529, Note_off_c, 1, 73, 0
1, 19529, Note_off_c, 1, 69, 0
1, 19530, Note_on_c, 1, 74, 127
1, 19530, Note_on_c, 1, 71, 127
1, 19530, Note_on_c, 1, 54, 127
1, 19559, Note_off_c, 1, 67, 0
1, 19559, Note_off_c, 1, 57, 0
1, 19559, Note_off_c, 1, 52, 0
1, 19559, Note_off_c, 1, 74, 0
1, 19559, Note_off_c, 1, 71, 0
1, 19559, Note_off_c, 1, 54, 0
1, 19560, Note_on_c, 1, 76, 127
1, 19560, Note_on_c, 1, 73, 127
1, 19560, Note_on_c, 1, 66, 127
1, 19560, Note_on_c, 1, 69, 127
1, 19560, Note_on_c, 1, 50, 127
1, 19574, Note_off_c, 1, 76, 0
1, 19574, Note_off_c, 1, 73, 0
1, 19575, Note_on_c, 1, 74, 127
1, 19575, Note_on_c, 1, 71, 127
1, 19589, Note_off_c, 1, 74, 0
1, 19589, Note_off_c, 1, 71, 0
1, 19590, Note_on_c, 1, 52, 127
1, 19619, Note_off_c, 1, 66, 0
1, 19619, Note_off_c, 1, 69, 0
1, 19619, Note_off_c, 1, 50, 0
1, 19619, Note_off_c, 1, 52, 0
1, 19620, Note_on_c, 1, 76, 127
1, 19620, Note_on_c, 1, 73, 127
1, 19620, Note_on_c, 1, 64, 127
1, 19620, Note_on_c, 1, 69, 127
1, 19620, Note_on_c, 1, 57, 127
1, 19620, Note_on_c, 1, 49, 127
1, 19649, Note_off_c, 1, 73, 0
1, 19649, Note_off_c, 1, 49, 0
1, 19650, Note_on_c, 1, 74, 127
1, 19650, Note_on_c, 1, 47, 127
1, 19679, Note_off_c, 1, 76, 0
1, 19679, Note_off_c, 1, 64, 0
1, 19679, Note_off_c, 1, 69, 0
1, 19679, Note_off_c, 1, 57, 0
1, 19679, Note_off_c, 1, 74, 0
1, 19679, Note_off_c, 1, 47, 0
1, 19680, Note_on_c, 1, 76, 127
1, 19680, Note_on_c, 1, 69, 127
1, 19680, Note_on_c, 1, 61, 127
1, 19680, Note_on_c, 1, 64, 127
1, 19680, Note_on_c, 1, 45, 127
1, 19680, Note_on_c, 1, 49, 127
1, 19709, Note_off_c, 1, 61, 0
1, 19709, Note_off_c, 1, 49, 0
1, 19710, Note_on_c, 1, 78, 127
1, 19710, Note_on_c, 1, 52, 127
1, 19739, Note_off_c, 1, 76, 0
1, 19739, Note_off_c, 1, 69, 0
1, 19739, Note_off_c, 1, 64, 0
1, 19739, Note_off_c, 1, 45, 0
1, 19739, Note_off_c, 1, 78, 0
1, 19739, Note_off_c, 1, 52, 0
1, 19740, Note_on_c, 1, 79, 127
1, 19740, Note_on_c, 1, 66, 127
1, 19740, Note_on_c, 1, 59, 127
1, 19740, Note_on_c, 1, 78, 127
1, 19740, Note_on_c, 1, 51, 127
1, 19754, Note_off_c, 1, 79, 0
1, 19769, Note_off_c, 1, 51, 0
1, 19770, Note_on_c, 1, 76, 127
1, 19770, Note_on_c, 1, 54, 127
1, 19784, Note_off_c, 1, 76, 0
1, 19799, Note_off_c, 1, 66, 0
1, 19799, Note_off_c, 1, 59, 0
1, 19799, Note_off_c, 1, 78, 0
1, 19799, Note_off_c, 1, 54, 0
1, 19800, Note_on_c, 1, 79, 127
1, 19800, Note_on_c, 1, 71, 127
1, 19800, Note_on_c, 1, 59, 127
1, 19800, Note_on_c, 1, 52, 127
1, 19829, Note_off_c, 1, 52, 0
1, 19830, Note_on_c, 1, 73, 127
1, 19830, Note_on_c, 1, 58, 127
1, 19830, Note_on_c, 1, 54, 127
1, 19859, Note_off_c, 1, 79, 0
1, 19859, Note_off_c, 1, 71, 0
1, 19859, Note_off_c, 1, 59, 0
1, 19859, Note_off_c, 1, 73, 0
1, 19859, Note_off_c, 1, 58, 0
1, 19859, Note_off_c, 1, 54, 0
1, 19860, Note_on_c, 1, 78, 127
1, 19860, Note_on_c, 1, 74, 127
1, 19860, Note_on_c, 1, 59, 127
1, 19860, Note_on_c, 1, 71, 127
1, 19860, Note_on_c, 1, 62, 127
1, 19860, Note_on_c, 1, 50, 127
1, 19889, Note_off_c, 1, 74, 0
1, 19889, Note_off_c, 1, 59, 0
1, 19889, Note_off_c, 1, 50, 0
1, 19890, Note_on_c, 1, 61, 127
1, 19890, Note_on_c, 1, 52, 127
1, 19919, Note_off_c, 1, 78, 0
1, 19919, Note_off_c, 1, 71, 0
1, 19919, Note_off_c, 1, 62, 0
1, 19919, Note_off_c, 1, 61, 0
1, 19919, Note_off_c, 1, 52, 0
1, 19920, Note_on_c, 1, 76, 127
1, 19920, Note_on_c, 1, 78, 127
1, 19920, Note_on_c, 1, 62, 127
1, 19920, Note_on_c, 1, 70, 127
1, 19920, Note_on_c, 1, 49, 127
1, 19934, Note_off_c, 1, 78, 0
1, 19934, Note_off_c, 1, 62, 0
1, 19935, Note_on_c, 1, 61, 127
1, 19949, Note_off_c, 1, 49, 0
1, 19949, Note_off_c, 1, 61, 0
1, 19950, Note_on_c, 1, 74, 127
1, 19950, Note_on_c, 1, 59, 127
1, 19950, Note_on_c, 1, 50, 127
1, 19964, Note_off_c, 1, 74, 0
1, 19964, Note_off_c, 1, 59, 0
1, 19979, Note_off_c, 1, 76, 0
1, 19979, Note_off_c, 1, 70, 0
1, 19979, Note_off_c, 1, 50, 0
1, 19980, Note_on_c, 1, 74, 127
1, 19980, Note_on_c, 1, 78, 127
1, 19980, Note_on_c, 1, 62, 127
1, 19980, Note_on_c, 1, 71, 127
1, 19980, Note_on_c, 1, 47, 127
1, 20009, Note_off_c, 1, 74, 0
1, 20009, Note_off_c, 1, 78, 0
1, 20009, Note_off_c, 1, 47, 0
1, 20010, Note_on_c, 1, 76, 127
1, 20010, Note_on_c, 1, 61, 127
1, 20010, Note_on_c, 1, 49, 127
1, 20039, Note_off_c, 1, 62, 0
1, 20039, Note_off_c, 1, 71, 0
1, 20039, Note_off_c, 1, 76, 0
1, 20039, Note_off_c, 1, 61, 0
1, 20039, Note_off_c, 1, 49, 0
1, 20040, Note_on_c, 1, 78, 127
1, 20040, Note_on_c, 1, 66, 127
1, 20040, Note_on_c, 1, 62, 127
1, 20040, Note_on_c, 1, 60, 127
1, 20040, Note_on_c, 1, 45, 127
1, 20069, Note_off_c, 1, 78, 0
1, 20069, Note_off_c, 1, 62, 0
1, 20069, Note_off_c, 1, 45, 0
1, 20070, Note_on_c, 1, 79, 127
1, 20070, Note_on_c, 1, 64, 127
1, 20070, Note_on_c, 1, 47, 127
1, 20099, Note_off_c, 1, 66, 0
1, 20099, Note_off_c, 1, 60, 0
1, 20099, Note_off_c, 1, 79, 0
1, 20099, Note_off_c, 1, 64, 0
1, 20099, Note_off_c, 1, 47, 0
1, 20100, Note_on_c, 1, 81, 127
1, 20100, Note_on_c, 1, 66, 127
1, 20100, Note_on_c, 1, 59, 127
1, 20100, Note_on_c, 1, 43, 127
1, 20114, Note_off_c, 1, 81, 0
1, 20114, Note_off_c, 1, 66, 0
1, 20115, Note_on_c, 1, 79, 127
1, 20115, Note_on_c, 1, 64, 127
1, 20129, Note_off_c, 1, 43, 0
1, 20129, Note_off_c, 1, 79, 0
1, 20129, Note_off_c, 1, 64, 0
1, 20130, Note_on_c, 1, 78, 127
1, 20130, Note_on_c, 1, 62, 127
1, 20130, Note_on_c, 1, 45, 127
1, 20144, Note_off_c, 1, 78, 0
1, 20144, Note_off_c, 1, 62, 0
1, 20159, Note_off_c, 1, 59, 0
1, 20159, Note_off_c, 1, 45, 0
1, 20160, Note_on_c, 1, 81, 127
1, 20160, Note_on_c, 1, 66, 127
1, 20160, Note_on_c, 1, 57, 127
1, 20160, Note_on_c, 1, 42, 127
1, 20189, Note_off_c, 1, 42, 0
1, 20190, Note_on_c, 1, 40, 127
1, 20219, Note_off_c, 1, 81, 0
1, 20219, Note_off_c, 1, 66, 0
1, 20219, Note_off_c, 1, 57, 0
1, 20219, Note_off_c, 1, 40, 0
1, 20220, Note_on_c, 1, 74, 127
1, 20220, Note_on_c, 1, 69, 127
1, 20220, Note_on_c, 1, 66, 127
1, 20220, Note_on_c, 1, 54, 127
1, 20220, Note_on_c, 1, 42, 127
1, 20249, Note_off_c, 1, 74, 0
1, 20249, Note_off_c, 1, 42, 0
1, 20250, Note_on_c, 1, 71, 127
1, 20250, Note_on_c, 1, 45, 127
1, 20279, Note_off_c, 1, 69, 0
1, 20279, Note_off_c, 1, 66, 0
1, 20279, Note_off_c, 1, 54, 0
1, 20279, Note_off_c, 1, 71, 0
1, 20279, Note_off_c, 1, 45, 0
1, 20280, Note_on_c, 1, 76, 127
1, 20280, Note_on_c, 1, 73, 127
1, 20280, Note_on_c, 1, 64, 127
1, 20280, Note_on_c, 1, 56, 127
1, 20280, Note_on_c, 1, 44, 127
1, 20294, Note_off_c, 1, 73, 0
1, 20295, Note_on_c, 1, 71, 127
1, 20309, Note_off_c, 1, 76, 0
1, 20309, Note_off_c, 1, 44, 0
1, 20309, Note_off_c, 1, 71, 0
1, 20310, Note_on_c, 1, 69, 127
1, 20310, Note_on_c, 1, 47, 127
1, 20324, Note_off_c, 1, 69, 0
1, 20339, Note_off_c, 1, 64, 0
1, 20339, Note_off_c, 1, 56, 0
1, 20339, Note_off_c, 1, 47, 0
1, 20340, Note_on_c, 1, 73, 127
1, 20340, Note_on_c, 1, 64, 127
1, 20340, Note_on_c, 1, 57, 127
1, 20340, Note_on_c, 1, 45, 127
1, 20369, Note_off_c, 1, 45, 0
1, 20370, Note_on_c, 1, 69, 127
1, 20370, Note_on_c, 1, 49, 127
1, 20399, Note_off_c, 1, 73, 0
1, 20399, Note_off_c, 1, 64, 0
1, 20399, Note_off_c, 1, 57, 0
1, 20399, Note_off_c, 1, 69, 0
1, 20399, Note_off_c, 1, 49, 0
1, 20400, Note_on_c, 1, 74, 127
1, 20400, Note_on_c, 1, 66, 127
1, 20400, Note_on_c, 1, 59, 127
1, 20400, Note_on_c, 1, 57, 127
1, 20400, Note_on_c, 1, 47, 127
1, 20429, Note_off_c, 1, 66, 0
1, 20429, Note_off_c, 1, 47, 0
1, 20430, Note_on_c, 1, 76, 127
1, 20430, Note_on_c, 1, 50, 127
1, 20459, Note_off_c, 1, 74, 0
1, 20459, Note_off_c, 1, 59, 0
1, 20459, Note_off_c, 1, 57, 0
1, 20459, Note_off_c, 1, 76, 0
1, 20459, Note_off_c, 1, 50, 0
1, 20460, Note_on_c, 1, 78, 127
1, 20460, Note_on_c, 1, 69, 127
1, 20460, Note_on_c, 1, 64, 127
1, 20460, Note_on_c, 1, 55, 127
1, 20460, Note_on_c, 1, 49, 127
1, 20474, Note_off_c, 1, 78, 0
1, 20475, Note_on_c, 1, 76, 127
1, 20489, Note_off_c, 1, 49, 0
1, 20489, Note_off_c, 1, 76, 0
1, 20490, Note_on_c, 1, 74, 127
1, 20490, Note_on_c, 1, 52, 127
1, 20504, Note_off_c, 1, 74, 0
1, 20519, Note_off_c, 1, 64, 0
1, 20519, Note_off_c, 1, 55, 0
1, 20519, Note_off_c, 1, 52, 0
1, 20520, Note_on_c, 1, 57, 127
1, 20520, Note_on_c, 1, 54, 127
1, 20520, Note_on_c, 1, 50, 127
1, 20549, Note_off_c, 1, 69, 0
1, 20549, Note_off_c, 1, 50, 0
1, 20550, Note_on_c, 1, 68, 127
1, 20579, Note_off_c, 1, 57, 0
1, 20579, Note_off_c, 1, 54, 0
1, 20579, Note_off_c, 1, 68, 0
1, 20580, Note_on_c, 1, 78, 127
1, 20580, Note_on_c, 1, 69, 127
1, 20580, Note_on_c, 1, 57, 127
1, 20580, Note_on_c, 1, 52, 127
1, 20580, Note_on_c, 1, 49, 127
1, 20609, Note_off_c, 1, 57, 0
1, 20609, Note_off_c, 1, 49, 0
1, 20610, Note_on_c, 1, 80, 127
1, 20610, Note_on_c, 1, 59, 127
1, 20610, Note_on_c, 1, 50, 127
1, 20638, Note_off_c, 1, 78, 0
1, 20639, Note_off_c, 1, 69, 0
1, 20639, Note_off_c, 1, 52, 0
1, 20639, Note_off_c, 1, 80, 0
1, 20639, Note_off_c, 1, 59, 0
1, 20639, Note_off_c, 1, 50, 0
1, 20640, Note_on_c, 1, 81, 127
1, 20640, Note_on_c, 1, 62, 127
1, 20640, Note_on_c, 1, 61, 127
1, 20640, Note_on_c, 1, 80, 127
1, 20640, Note_on_c, 1, 50, 127
1, 20640, Note_on_c, 1, 47, 127
1, 20654, Note_off_c, 1, 81, 0
1, 20654, Note_off_c, 1, 61, 0
1, 20655, Note_on_c, 1, 59, 127
1, 20669, Note_off_c, 1, 47, 0
1, 20669, Note_off_c, 1, 59, 0
1, 20670, Note_on_c, 1, 78, 127
1, 20670, Note_on_c, 1, 57, 127
1, 20670, Note_on_c, 1, 49, 127
1, 20684, Note_off_c, 1, 78, 0
1, 20684, Note_off_c, 1, 57, 0
1, 20699, Note_off_c, 1, 62, 0
1, 20699, Note_off_c, 1, 80, 0
1, 20699, Note_off_c, 1, 50, 0
1, 20699, Note_off_c, 1, 49, 0
1, 20700, Note_on_c, 1, 81, 127
1, 20700, Note_on_c, 1, 64, 127
1, 20700, Note_on_c, 1, 61, 127
1, 20700, Note_on_c, 1, 49, 127
1, 20700, Note_on_c, 1, 45, 127
1, 20729, Note_off_c, 1, 61, 0
1, 20729, Note_off_c, 1, 45, 0
1, 20730, Note_on_c, 1, 62, 127
1, 20730, Note_on_c, 1, 57, 127
1, 20759, Note_off_c, 1, 81, 0
1, 20759, Note_off_c, 1, 64, 0
1, 20759, Note_off_c, 1, 49, 0
1, 20759, Note_off_c, 1, 62, 0
1, 20759, Note_off_c, 1, 57, 0
1, 20760, Note_on_c, 1, 76, 127
1, 20760, Note_on_c, 1, 69, 127
1, 20760, Note_on_c, 1, 61, 127
1, 20760, Note_on_c, 1, 64, 127
1, 20760, Note_on_c, 1, 45, 127
1, 20760, Note_on_c, 1, 55, 127
1, 20789, Note_off_c, 1, 61, 0
1, 20789, Note_off_c, 1, 55, 0
1, 20790, Note_on_c, 1, 78, 127
1, 20790, Note_on_c, 1, 63, 127
1, 20790, Note_on_c, 1, 57, 127
1, 20818, Note_off_c, 1, 76, 0
1, 20819, Note_off_c, 1, 69, 0
1, 20819, Note_off_c, 1, 64, 0
1, 20819, Note_off_c, 1, 45, 0
1, 20819, Note_off_c, 1, 78, 0
1, 20819, Note_off_c, 1, 63, 0
1, 20819, Note_off_c, 1, 57, 0
1, 20820, Note_on_c, 1, 79, 127
1, 20820, Note_on_c, 1, 78, 127
1, 20820, Note_on_c, 1, 63, 127
1, 20820, Note_on_c, 1, 64, 127
1, 20820, Note_on_c, 1, 57, 127
1, 20820, Note_on_c, 1, 54, 127
1, 20834, Note_off_c, 1, 79, 0
1, 20834, Note_off_c, 1, 64, 0
1, 20849, Note_off_c, 1, 54, 0
1, 20850, Note_on_c, 1, 76, 127
1, 20850, Note_on_c, 1, 61, 127
1, 20850, Note_on_c, 1, 55, 127
1, 20864, Note_off_c, 1, 76, 0
1, 20864, Note_off_c, 1, 61, 0
1, 20879, Note_off_c, 1, 78, 0
1, 20879, Note_off_c, 1, 63, 0
1, 20879, Note_off_c, 1, 57, 0
1, 20879, Note_off_c, 1, 55, 0
1, 20880, Note_on_c, 1, 79, 127
1, 20880, Note_on_c, 1, 64, 127
1, 20880, Note_on_c, 1, 52, 127
1, 20909, Note_off_c, 1, 52, 0
1, 20910, Note_on_c, 1, 50, 127
1, 20938, Note_off_c, 1, 79, 0
1, 20939, Note_off_c, 1, 64, 0
1, 20939, Note_off_c, 1, 50, 0
1, 20940, Note_on_c, 1, 72, 127
1, 20940, Note_on_c, 1, 64, 127
1, 20940, Note_on_c, 1, 55, 127
1, 20940, Note_on_c, 1, 52, 127
1, 20969, Note_off_c, 1, 55, 0
1, 20969, Note_off_c, 1, 52, 0
1, 20970, Note_on_c, 1, 57, 127
1, 20970, Note_on_c, 1, 54, 127
1, 20998, Note_off_c, 1, 72, 0
1, 20999, Note_off_c, 1, 64, 0
1, 20999, Note_off_c, 1, 57, 0
1, 20999, Note_off_c, 1, 54, 0
1, 21000, Note_on_c, 1, 72, 127
1, 21000, Note_on_c, 1, 62, 127
1, 21000, Note_on_c, 1, 59, 127
1, 21000, Note_on_c, 1, 55, 127
1, 21000, Note_on_c, 1, 54, 127
1, 21014, Note_off_c, 1, 59, 0
1, 21014, Note_off_c, 1, 55, 0
1, 21015, Note_on_c, 1, 57, 127
1, 21029, Note_off_c, 1, 54, 0
1, 21029, Note_off_c, 1, 57, 0
1, 21030, Note_on_c, 1, 52, 127
1, 21044, Note_off_c, 1, 52, 0
1, 21058, Note_off_c, 1, 72, 0
1, 21059, Note_off_c, 1, 62, 0
1, 21060, Note_on_c, 1, 71, 127
1, 21060, Note_on_c, 1, 62, 127
1, 21060, Note_on_c, 1, 59, 127
1, 21060, Note_on_c, 1, 55, 127
1, 21090, Note_on_c, 1, 57, 127
1, 21119, Note_off_c, 1, 71, 0
1, 21119, Note_off_c, 1, 62, 0
1, 21119, Note_off_c, 1, 59, 0
1, 21119, Note_off_c, 1, 55, 0
1, 21119, Note_off_c, 1, 57, 0
1, 21120, Note_on_c, 1, 74, 127
1, 21120, Note_on_c, 1, 71, 127
1, 21120, Note_on_c, 1, 62, 127
1, 21120, Note_on_c, 1, 59, 127
1, 21120, Note_on_c, 1, 54, 127
1, 21150, Note_on_c, 1, 55, 127
1, 21179, Note_off_c, 1, 74, 0
1, 21179, Note_off_c, 1, 71, 0
1, 21179, Note_off_c, 1, 62, 0
1, 21179, Note_off_c, 1, 59, 0
1, 21179, Note_off_c, 1, 54, 0
1, 21179, Note_off_c, 1, 55, 0
1, 21180, Note_on_c, 1, 79, 127
1, 21180, Note_on_c, 1, 73, 127
1, 21180, Note_on_c, 1, 64, 127
1, 21180, Note_on_c, 1, 55, 127
1, 21180, Note_on_c, 1, 61, 127
1, 21180, Note_on_c, 1, 52, 127
1, 21209, Note_off_c, 1, 55, 0
1, 21210, Note_on_c, 1, 54, 127
1, 21239, Note_off_c, 1, 79, 0
1, 21239, Note_off_c, 1, 73, 0
1, 21239, Note_off_c, 1, 64, 0
1, 21239, Note_off_c, 1, 61, 0
1, 21239, Note_off_c, 1, 52, 0
1, 21239, Note_off_c, 1, 54, 0
1, 21240, Note_on_c, 1, 78, 127
1, 21240, Note_on_c, 1, 74, 127
1, 21240, Note_on_c, 1, 66, 127
1, 21240, Note_on_c, 1, 57, 127
1, 21240, Note_on_c, 1, 62, 127
1, 21240, Note_on_c, 1, 50, 127
1, 21299, Note_off_c, 1, 78, 0
1, 21299, Note_off_c, 1, 74, 0
1, 21299, Note_off_c, 1, 66, 0
1, 21299, Note_off_c, 1, 57, 0
1, 21299, Note_off_c, 1, 62, 0
1, 21299, Note_off_c, 1, 50, 0
1, 21300, Note_on_c, 1, 78, 127
1, 21300, Note_on_c, 1, 74, 127
1, 21300, Note_on_c, 1, 69, 127
1, 21300, Note_on_c, 1, 50, 127
1, 21300, Note_on_c, 1, 66, 127
1, 21300, Note_on_c, 1, 57, 127
1, 21300, Note_on_c, 1, 81, 127
1, 21300, Note_on_c, 1, 62, 127
1, 21300, Note_on_c, 1, 49, 127
1, 21300, Note_on_c, 1, 61, 127
1, 21329, Note_off_c, 1, 78, 0
1, 21329, Note_off_c, 1, 62, 0
1, 21329, Note_off_c, 1, 61, 0
1, 21330, Note_on_c, 1, 80, 127
1, 21358, Note_off_c, 1, 81, 0
1, 21359, Note_off_c, 1, 66, 0
1, 21359, Note_off_c, 1, 57, 0
1, 21359, Note_off_c, 1, 49, 0
1, 21359, Note_off_c, 1, 80, 0
1, 21360, Note_off_c, 1, 69, 0
1, 21360, Note_on_c, 1, 71, 127
1, 21360, Note_on_c, 1, 56, 127
1, 21360, Note_on_c, 1, 68, 127
1, 21360, Note_on_c, 1, 47, 127
1, 21360, Note_on_c, 1, 59, 127
1, 21389, Note_off_c, 1, 59, 0
1, 21419, Note_off_c, 1, 71, 0
1, 21419, Note_off_c, 1, 56, 0
1, 21419, Note_off_c, 1, 68, 0
1, 21419, Note_off_c, 1, 47, 0
1, 21420, Note_off_c, 1, 74, 0
1, 21420, Note_off_c, 1, 50, 0
1, 21420, Note_on_c, 1, 76, 127
1, 21420, Note_on_c, 1, 45, 127
1, 21420, Note_on_c, 1, 73, 127
1, 21420, Note_on_c, 1, 64, 127
1, 21450, Note_on_c, 1, 55, 127
1, 21478, Note_off_c, 1, 73, 0
1, 21479, Note_off_c, 1, 64, 0
1, 21479, Note_off_c, 1, 55, 0
1, 21480, Note_off_c, 1, 76, 0
1, 21480, Note_off_c, 1, 45, 0
1, 21540, Note_on_c, 1, 76, 127
1, 21540, Note_on_c, 1, 73, 127
1, 21540, Note_on_c, 1, 69, 127
1, 21540, Note_on_c, 1, 64, 127
1, 21540, Note_on_c, 1, 55, 127
1, 21570, Note_on_c, 1, 78, 127
1, 21570, Note_on_c, 1, 57, 127
1, 21598, Note_off_c, 1, 76, 0
1, 21599, Note_off_c, 1, 73, 0
1, 21599, Note_off_c, 1, 69, 0
1, 21599, Note_off_c, 1, 64, 0
1, 21599, Note_off_c, 1, 55, 0
1, 21599, Note_off_c, 1, 78, 0
1, 21599, Note_off_c, 1, 57, 0
1, 21600, Note_on_c, 1, 75, 127
1, 21600, Note_on_c, 1, 72, 127
1, 21600, Note_on_c, 1, 71, 127
1, 21600, Note_on_c, 1, 69, 127
1, 21600, Note_on_c, 1, 66, 127
1, 21600, Note_on_c, 1, 54, 127
1, 21629, Note_off_c, 1, 75, 0
1, 21629, Note_off_c, 1, 54, 0
1, 21630, Note_on_c, 1, 78, 127
1, 21630, Note_on_c, 1, 52, 127
1, 21659, Note_off_c, 1, 72, 0
1, 21659, Note_off_c, 1, 71, 0
1, 21659, Note_off_c, 1, 69, 0
1, 21659, Note_off_c, 1, 66, 0
1, 21659, Note_off_c, 1, 78, 0
1, 21659, Note_off_c, 1, 52, 0
1, 21660, Note_on_c, 1, 81, 127
1, 21660, Note_on_c, 1, 72, 127
1, 21660, Note_on_c, 1, 71, 127
1, 21660, Note_on_c, 1, 63, 127
1, 21660, Note_on_c, 1, 54, 127
1, 21689, Note_off_c, 1, 54, 0
1, 21690, Note_on_c, 1, 55, 127
1, 21719, Note_off_c, 1, 72, 0
1, 21719, Note_off_c, 1, 71, 0
1, 21719, Note_off_c, 1, 63, 0
1, 21719, Note_off_c, 1, 55, 0
1, 21720, Note_on_c, 1, 64, 127
1, 21720, Note_on_c, 1, 69, 127
1, 21720, Note_on_c, 1, 52, 127
1, 21749, Note_off_c, 1, 52, 0
1, 21779, Note_off_c, 1, 81, 0
1, 21779, Note_off_c, 1, 64, 0
1, 21779, Note_off_c, 1, 69, 0
1, 21780, Note_on_c, 1, 72, 127
1, 21780, Note_on_c, 1, 66, 127
1, 21780, Note_on_c, 1, 69, 127
1, 21780, Note_on_c, 1, 51, 127
1, 21794, Note_off_c, 1, 72, 0
1, 21795, Note_on_c, 1, 71, 127
1, 21809, Note_off_c, 1, 51, 0
1, 21809, Note_off_c, 1, 71, 0
1, 21810, Note_on_c, 1, 60, 127
1, 21839, Note_off_c, 1, 66, 0
1, 21839, Note_off_c, 1, 69, 0
1, 21839, Note_off_c, 1, 60, 0
1, 21840, Note_on_c, 1, 69, 127
1, 21840, Note_on_c, 1, 66, 127
1, 21840, Note_on_c, 1, 63, 127
1, 21840, Note_on_c, 1, 71, 127
1, 21840, Note_on_c, 1, 59, 127
1, 21869, Note_off_c, 1, 69, 0
1, 21869, Note_off_c, 1, 59, 0
1, 21870, Note_on_c, 1, 60, 127
1, 21899, Note_off_c, 1, 66, 0
1, 21899, Note_off_c, 1, 63, 0
1, 21899, Note_off_c, 1, 60, 0
1, 21900, Note_on_c, 1, 57, 127
1, 21929, Note_off_c, 1, 57, 0
1, 21960, Note_on_c, 1, 64, 127
1, 21960, Note_on_c, 1, 55, 127
1, 21990, Note_on_c, 1, 73, 127
1, 21990, Note_on_c, 1, 54, 127
1, 22004, Note_off_c, 1, 73, 0
1, 22005, Note_on_c, 1, 75, 127
1, 22019, Note_off_c, 1, 71, 0
1, 22019, Note_off_c, 1, 64, 0
1, 22019, Note_off_c, 1, 55, 0
1, 22019, Note_off_c, 1, 54, 0
1, 22019, Note_off_c, 1, 75, 0
1, 22020, Note_on_c, 1, 76, 127
1, 22020, Note_on_c, 1, 71, 127
1, 22020, Note_on_c, 1, 59, 127
1, 22020, Note_on_c, 1, 55, 127
1, 22050, Note_on_c, 1, 78, 127
1, 22050, Note_on_c, 1, 57, 127
1, 22064, Note_off_c, 1, 78, 0
1, 22065, Note_on_c, 1, 79, 127
1, 22079, Note_off_c, 1, 76, 0
1, 22079, Note_off_c, 1, 71, 0
1, 22079, Note_off_c, 1, 59, 0
1, 22079, Note_off_c, 1, 55, 0
1, 22079, Note_off_c, 1, 57, 0
1, 22079, Note_off_c, 1, 79, 0
1, 22080, Note_on_c, 1, 81, 127
1, 22080, Note_on_c, 1, 75, 127
1, 22080, Note_on_c, 1, 71, 127
1, 22080, Note_on_c, 1, 69, 127
1, 22080, Note_on_c, 1, 59, 127
1, 22080, Note_on_c, 1, 54, 127
1, 22110, Note_on_c, 1, 55, 127
1, 22139, Note_off_c, 1, 75, 0
1, 22139, Note_off_c, 1, 71, 0
1, 22139, Note_off_c, 1, 69, 0
1, 22139, Note_off_c, 1, 59, 0
1, 22139, Note_off_c, 1, 54, 0
1, 22139, Note_off_c, 1, 55, 0
1, 22140, Note_on_c, 1, 76, 127
1, 22140, Note_on_c, 1, 52, 127
1, 22169, Note_off_c, 1, 81, 0
1, 22170, Note_on_c, 1, 79, 127
1, 22170, Note_on_c, 1, 51, 127
1, 22184, Note_off_c, 1, 79, 0
1, 22185, Note_on_c, 1, 78, 127
1, 22199, Note_off_c, 1, 51, 0
1, 22199, Note_off_c, 1, 78, 0
1, 22200, Note_on_c, 1, 64, 127
1, 22200, Note_on_c, 1, 67, 127
1, 22259, Note_off_c, 1, 76, 0
1, 22259, Note_off_c, 1, 52, 0
1, 22259, Note_off_c, 1, 64, 0
1, 22259, Note_off_c, 1, 67, 0
1, 22260, Note_on_c, 1, 79, 127
1, 22260, Note_on_c, 1, 71, 127
1, 22260, Note_on_c, 1, 64, 127
1, 22260, Note_on_c, 1, 76, 127
1, 22260, Note_on_c, 1, 67, 127
1, 22260, Note_on_c, 1, 50, 127
1, 22289, Note_off_c, 1, 79, 0
1, 22290, Note_on_c, 1, 52, 127
1, 22305, Note_on_c, 1, 78, 127
1, 22319, Note_off_c, 1, 64, 0
1, 22319, Note_off_c, 1, 76, 0
1, 22319, Note_off_c, 1, 67, 0
1, 22319, Note_off_c, 1, 50, 0
1, 22319, Note_off_c, 1, 52, 0
1, 22319, Note_off_c, 1, 78, 0
1, 22320, Note_on_c, 1, 49, 127
1, 22350, Note_on_c, 1, 83, 127
1, 22350, Note_on_c, 1, 47, 127
1, 22364, Note_off_c, 1, 83, 0
1, 22365, Note_on_c, 1, 81, 127
1, 22379, Note_off_c, 1, 71, 0
1, 22379, Note_off_c, 1, 49, 0
1, 22379, Note_off_c, 1, 47, 0
1, 22379, Note_off_c, 1, 81, 0
1, 22380, Note_on_c, 1, 79, 127
1, 22380, Note_on_c, 1, 76, 127
1, 22380, Note_on_c, 1, 57, 127
1, 22380, Note_on_c, 1, 69, 127
1, 22380, Note_on_c, 1, 64, 127
1, 22380, Note_on_c, 1, 61, 127
1, 22380, Note_on_c, 1, 49, 127
1, 22409, Note_off_c, 1, 76, 0
1, 22409, Note_off_c, 1, 69, 0
1, 22409, Note_off_c, 1, 49, 0
1, 22410, Note_on_c, 1, 83, 127
1, 22410, Note_on_c, 1, 66, 127
1, 22410, Note_on_c, 1, 50, 127
1, 22424, Note_off_c, 1, 83, 0
1, 22425, Note_on_c, 1, 81, 127
1, 22425, Note_on_c, 1, 78, 127
1, 22439, Note_off_c, 1, 79, 0
1, 22439, Note_off_c, 1, 57, 0
1, 22439, Note_off_c, 1, 64, 0
1, 22439, Note_off_c, 1, 61, 0
1, 22439, Note_off_c, 1, 66, 0
1, 22439, Note_off_c, 1, 50, 0
1, 22439, Note_off_c, 1, 81, 0
1, 22439, Note_off_c, 1, 78, 0
1, 22440, Note_on_c, 1, 79, 127
1, 22440, Note_on_c, 1, 76, 127
1, 22440, Note_on_c, 1, 59, 127
1, 22440, Note_on_c, 1, 74, 127
1, 22440, Note_on_c, 1, 67, 127
1, 22440, Note_on_c, 1, 47, 127
1, 22469, Note_off_c, 1, 47, 0
1, 22470, Note_on_c, 1, 49, 127
1, 22499, Note_off_c, 1, 59, 0
1, 22499, Note_off_c, 1, 74, 0
1, 22499, Note_off_c, 1, 67, 0
1, 22499, Note_off_c, 1, 49, 0
1, 22500, Note_on_c, 1, 61, 127
1, 22500, Note_on_c, 1, 73, 127
1, 22500, Note_on_c, 1, 69, 127
1, 22500, Note_on_c, 1, 64, 127
1, 22500, Note_on_c, 1, 57, 127
1, 22500, Note_on_c, 1, 45, 127
1, 22529, Note_off_c, 1, 79, 0
1, 22529, Note_off_c, 1, 76, 0
1, 22529, Note_off_c, 1, 45, 0
1, 22545, Note_on_c, 1, 78, 127
1, 22559, Note_off_c, 1, 61, 0
1, 22559, Note_off_c, 1, 73, 0
1, 22559, Note_off_c, 1, 69, 0
1, 22559, Note_off_c, 1, 64, 0
1, 22559, Note_off_c, 1, 57, 0
1, 22559, Note_off_c, 1, 78, 0
1, 22560, Note_on_c, 1, 79, 127
1, 22560, Note_on_c, 1, 76, 127
1, 22560, Note_on_c, 1, 73, 127
1, 22560, Note_on_c, 1, 69, 127
1, 22560, Note_on_c, 1, 64, 127
1, 22560, Note_on_c, 1, 61, 127
1, 22560, Note_on_c, 1, 57, 127
1, 22589, Note_off_c, 1, 79, 0
1, 22589, Note_off_c, 1, 76, 0
1, 22590, Note_on_c, 1, 59, 127
1, 22605, Note_on_c, 1, 78, 127
1, 22605, Note_on_c, 1, 74, 127
1, 22619, Note_off_c, 1, 73, 0
1, 22619, Note_off_c, 1, 69, 0
1, 22619, Note_off_c, 1, 64, 0
1, 22619, Note_off_c, 1, 61, 0
1, 22619, Note_off_c, 1, 57, 0
1, 22619, Note_off_c, 1, 59, 0
1, 22619, Note_off_c, 1, 78, 0
1, 22619, Note_off_c, 1, 74, 0
1, 22620, Note_on_c, 1, 79, 127
1, 22620, Note_on_c, 1, 76, 127
1, 22620, Note_on_c, 1, 71, 127
1, 22620, Note_on_c, 1, 64, 127
1, 22620, Note_on_c, 1, 55, 127
1, 22650, Note_on_c, 1, 57, 127
1, 22679, Note_off_c, 1, 71, 0
1, 22679, Note_off_c, 1, 64, 0
1, 22679, Note_off_c, 1, 55, 0
1, 22679, Note_off_c, 1, 57, 0
1, 22680, Note_on_c, 1, 69, 127
1, 22680, Note_on_c, 1, 73, 127
1, 22680, Note_on_c, 1, 54, 127
1, 22709, Note_off_c, 1, 79, 0
1, 22709, Note_off_c, 1, 76, 0
1, 22710, Note_on_c, 1, 78, 127
1, 22710, Note_on_c, 1, 52, 127
1, 22724, Note_off_c, 1, 78, 0
1, 22739, Note_off_c, 1, 69, 0
1, 22739, Note_off_c, 1, 73, 0
1, 22739, Note_off_c, 1, 54, 0
1, 22739, Note_off_c, 1, 52, 0
1, 22740, Note_on_c, 1, 81, 127
1, 22740, Note_on_c, 1, 74, 127
1, 22740, Note_on_c, 1, 69, 127
1, 22740, Note_on_c, 1, 62, 127
1, 22740, Note_on_c, 1, 54, 127
1, 22769, Note_off_c, 1, 81, 0
1, 22770, Note_on_c, 1, 79, 127
1, 22770, Note_on_c, 1, 55, 127
1, 22784, Note_off_c, 1, 79, 0
1, 22785, Note_on_c, 1, 78, 127
1, 22799, Note_off_c, 1, 74, 0
1, 22799, Note_off_c, 1, 69, 0
1, 22799, Note_off_c, 1, 62, 0
1, 22799, Note_off_c, 1, 54, 0
1, 22799, Note_off_c, 1, 55, 0
1, 22799, Note_off_c, 1, 78, 0
1, 22800, Note_on_c, 1, 79, 127
1, 22800, Note_on_c, 1, 73, 127
1, 22800, Note_on_c, 1, 69, 127
1, 22800, Note_on_c, 1, 67, 127
1, 22800, Note_on_c, 1, 64, 127
1, 22800, Note_on_c, 1, 52, 127
1, 22829, Note_off_c, 1, 79, 0
1, 22830, Note_on_c, 1, 78, 127
1, 22830, Note_on_c, 1, 54, 127
1, 22844, Note_off_c, 1, 78, 0
1, 22845, Note_on_c, 1, 76, 127
1, 22859, Note_off_c, 1, 73, 0
1, 22859, Note_off_c, 1, 69, 0
1, 22859, Note_off_c, 1, 67, 0
1, 22859, Note_off_c, 1, 64, 0
1, 22859, Note_off_c, 1, 52, 0
1, 22859, Note_off_c, 1, 54, 0
1, 22859, Note_off_c, 1, 76, 0
1, 22860, Note_on_c, 1, 78, 127
1, 22860, Note_on_c, 1, 74, 127
1, 22860, Note_on_c, 1, 69, 127
1, 22860, Note_on_c, 1, 66, 127
1, 22860, Note_on_c, 1, 57, 127
1, 22860, Note_on_c, 1, 50, 127
1, 22889, Note_off_c, 1, 78, 0
1, 22890, Note_on_c, 1, 81, 127
1, 22890, Note_on_c, 1, 49, 127
1, 22904, Note_off_c, 1, 81, 0
1, 22905, Note_on_c, 1, 79, 127
1, 22905, Note_on_c, 1, 76, 127
1, 22919, Note_off_c, 1, 69, 0
1, 22919, Note_off_c, 1, 49, 0
1, 22919, Note_off_c, 1, 79, 0
1, 22919, Note_off_c, 1, 76, 0
1, 22950, Note_on_c, 1, 52, 127
1, 22979, Note_off_c, 1, 74, 0
1, 22979, Note_off_c, 1, 66, 0
1, 22979, Note_off_c, 1, 57, 0
1, 22979, Note_off_c, 1, 50, 0
1, 22979, Note_off_c, 1, 52, 0
1, 22980, Note_on_c, 1, 78, 127
1, 22980, Note_on_c, 1, 74, 127
1, 22980, Note_on_c, 1, 69, 127
1, 22980, Note_on_c, 1, 66, 127
1, 22980, Note_on_c, 1, 62, 127
1, 22980, Note_on_c, 1, 49, 127
1, 23010, Note_on_c, 1, 50, 127
1, 23025, Note_on_c, 1, 76, 127
1, 23039, Note_off_c, 1, 69, 0
1, 23039, Note_off_c, 1, 66, 0
1, 23039, Note_off_c, 1, 62, 0
1, 23039, Note_off_c, 1, 49, 0
1, 23039, Note_off_c, 1, 50, 0
1, 23039, Note_off_c, 1, 76, 0
1, 23040, Note_on_c, 1, 83, 127
1, 23040, Note_on_c, 1, 47, 127
1, 23069, Note_off_c, 1, 78, 0
1, 23099, Note_off_c, 1, 47, 0
1, 23100, Note_on_c, 1, 80, 127
1, 23100, Note_on_c, 1, 71, 127
1, 23100, Note_on_c, 1, 68, 127
1, 23100, Note_on_c, 1, 59, 127
1, 23114, Note_off_c, 1, 83, 0
1, 23129, Note_off_c, 1, 80, 0
1, 23129, Note_off_c, 1, 71, 0
1, 23159, Note_off_c, 1, 74, 0
1, 23159, Note_off_c, 1, 68, 0
1, 23159, Note_off_c, 1, 59, 0
1, 23160, Note_on_c, 1, 81, 127
1, 23160, Note_on_c, 1, 78, 127
1, 23160, Note_on_c, 1, 74, 127
1, 23160, Note_on_c, 1, 69, 127
1, 23160, Note_on_c, 1, 66, 127
1, 23160, Note_on_c, 1, 57, 127
1, 23189, Note_off_c, 1, 81, 0
1, 23189, Note_off_c, 1, 78, 0
1, 23190, Note_on_c, 1, 80, 127
1, 23204, Note_off_c, 1, 80, 0
1, 23219, Note_off_c, 1, 69, 0
1, 23219, Note_off_c, 1, 66, 0
1, 23219, Note_off_c, 1, 57, 0
1, 23220, Note_on_c, 1, 83, 127
1, 23220, Note_on_c, 1, 76, 127
1, 23220, Note_on_c, 1, 71, 127
1, 23220, Note_on_c, 1, 64, 127
1, 23220, Note_on_c, 1, 56, 127
1, 23250, Note_on_c, 1, 73, 127
1, 23279, Note_off_c, 1, 83, 0
1, 23279, Note_off_c, 1, 71, 0
1, 23279, Note_off_c, 1, 64, 0
1, 23279, Note_off_c, 1, 73, 0
1, 23280, Note_on_c, 1, 68, 127
1, 23280, Note_on_c, 1, 59, 127
1, 23295, Note_on_c, 1, 85, 127
1, 23309, Note_off_c, 1, 68, 0
1, 23309, Note_off_c, 1, 85, 0
1, 23325, Note_on_c, 1, 54, 127
1, 23339, Note_off_c, 1, 74, 0
1, 23339, Note_off_c, 1, 56, 0
1, 23339, Note_off_c, 1, 59, 0
1, 23339, Note_off_c, 1, 54, 0
1, 23340, Note_on_c, 1, 52, 127
1, 23355, Note_on_c, 1, 50, 127
1, 23369, Note_off_c, 1, 50, 0
1, 23370, Note_on_c, 1, 49, 127
1, 23384, Note_off_c, 1, 49, 0
1, 23385, Note_on_c, 1, 47, 127
1, 23399, Note_off_c, 1, 52, 0
1, 23399, Note_off_c, 1, 47, 0
1, 23400, Note_on_c, 1, 45, 127
1, 23459, Note_off_c, 1, 76, 0
1, 23460, Note_off_c, 1, 45, 0
1, 23520, Note_on_c, 1, 79, 127
1, 23520, Note_on_c, 1, 76, 127
1, 23520, Note_on_c, 1, 72, 127
1, 23520, Note_on_c, 1, 67, 127
1, 23520, Note_on_c, 1, 64, 127
1, 23520, Note_on_c, 1, 55, 127
1, 23549, Note_off_c, 1, 79, 0
1, 23549, Note_off_c, 1, 76, 0
1, 23550, Note_on_c, 1, 78, 127
1, 23564, Note_off_c, 1, 78, 0
1, 23579, Note_off_c, 1, 67, 0
1, 23579, Note_off_c, 1, 64, 0
1, 23579, Note_off_c, 1, 55, 0
1, 23580, Note_on_c, 1, 81, 127
1, 23580, Note_on_c, 1, 74, 127
1, 23580, Note_on_c, 1, 69, 127
1, 23580, Note_on_c, 1, 62, 127
1, 23580, Note_on_c, 1, 54, 127
1, 23610, Note_on_c, 1, 71, 127
1, 23639, Note_off_c, 1, 72, 0
1, 23639, Note_off_c, 1, 81, 0
1, 23639, Note_off_c, 1, 62, 0
1, 23639, Note_off_c, 1, 71, 0
1, 23640, Note_on_c, 1, 66, 127
1, 23640, Note_on_c, 1, 57, 127
1, 23655, Note_on_c, 1, 83, 127
1, 23669, Note_off_c, 1, 69, 0
1, 23669, Note_off_c, 1, 66, 0
1, 23669, Note_off_c, 1, 83, 0
1, 23685, Note_on_c, 1, 52, 127
1, 23699, Note_off_c, 1, 54, 0
1, 23699, Note_off_c, 1, 57, 0
1, 23699, Note_off_c, 1, 52, 0
1, 23700, Note_on_c, 1, 50, 127
1, 23714, Note_off_c, 1, 50, 0
1, 23715, Note_on_c, 1, 49, 127
1, 23729, Note_off_c, 1, 49, 0
1, 23730, Note_on_c, 1, 47, 127
1, 23744, Note_off_c, 1, 47, 0
1, 23745, Note_on_c, 1, 45, 127
1, 23759, Note_off_c, 1, 45, 0
1, 23760, Note_on_c, 1, 43, 127
1, 23790, Note_on_c, 1, 73, 127
1, 23804, Note_off_c, 1, 73, 0
1, 23819, Note_off_c, 1, 43, 0
1, 23820, Note_off_c, 1, 74, 0
1, 23880, Note_on_c, 1, 78, 127
1, 23880, Note_on_c, 1, 74, 127
1, 23880, Note_on_c, 1, 69, 127
1, 23880, Note_on_c, 1, 57, 127
1, 23880, Note_on_c, 1, 66, 127
1, 23880, Note_on_c, 1, 54, 127
1, 23895, Note_on_c, 1, 71, 127
1, 23909, Note_off_c, 1, 78, 0
1, 23909, Note_off_c, 1, 69, 0
1, 23909, Note_off_c, 1, 71, 0
1, 23910, Note_on_c, 1, 76, 127
1, 23910, Note_on_c, 1, 73, 127
1, 23924, Note_off_c, 1, 76, 0
1, 23924, Note_off_c, 1, 73, 0
1, 23939, Note_off_c, 1, 74, 0
1, 23939, Note_off_c, 1, 57, 0
1, 23939, Note_off_c, 1, 66, 0
1, 23939, Note_off_c, 1, 54, 0
1, 23940, Note_on_c, 1, 79, 127
1, 23940, Note_on_c, 1, 83, 127
1, 23940, Note_on_c, 1, 76, 127
1, 23940, Note_on_c, 1, 71, 127
1, 23940, Note_on_c, 1, 64, 127
1, 23940, Note_on_c, 1, 67, 127
1, 23940, Note_on_c, 1, 59, 127
1, 23940, Note_on_c, 1, 52, 127
1, 23955, Note_on_c, 1, 73, 127
1, 23969, Note_off_c, 1, 71, 0
1, 23969, Note_off_c, 1, 64, 0
1, 23969, Note_off_c, 1, 59, 0
1, 23969, Note_off_c, 1, 73, 0
1, 23970, Note_on_c, 1, 74, 127
1, 23970, Note_on_c, 1, 57, 127
1, 23984, Note_off_c, 1, 74, 0
1, 23999, Note_off_c, 1, 79, 0
1, 23999, Note_off_c, 1, 67, 0
1, 23999, Note_off_c, 1, 52, 0
1, 23999, Note_off_c, 1, 57, 0
1, 24000, Note_on_c, 1, 78, 127
1, 24000, Note_on_c, 1, 55, 127
1, 24000, Note_on_c, 1, 47, 127
1, 24014, Note_off_c, 1, 78, 0
1, 24029, Note_off_c, 1, 83, 0
1, 24029, Note_off_c, 1, 76, 0
1, 24029, Note_off_c, 1, 55, 0
1, 24030, Note_on_c, 1, 81, 127
1, 24030, Note_on_c, 1, 69, 127
1, 24030, Note_on_c, 1, 54, 127
1, 24059, Note_off_c, 1, 47, 0
1, 24059, Note_off_c, 1, 81, 0
1, 24059, Note_off_c, 1, 69, 0
1, 24059, Note_off_c, 1, 54, 0
1, 24060, Note_on_c, 1, 79, 127
1, 24060, Note_on_c, 1, 73, 127
1, 24060, Note_on_c, 1, 67, 127
1, 24060, Note_on_c, 1, 52, 127
1, 24060, Note_on_c, 1, 50, 127
1, 24075, Note_on_c, 1, 76, 127
1, 24089, Note_off_c, 1, 73, 0
1, 24089, Note_off_c, 1, 67, 0
1, 24089, Note_off_c, 1, 52, 0
1, 24089, Note_off_c, 1, 76, 0
1, 24090, Note_on_c, 1, 78, 127
1, 24090, Note_on_c, 1, 71, 127
1, 24090, Note_on_c, 1, 66, 127
1, 24104, Note_off_c, 1, 78, 0
1, 24119, Note_off_c, 1, 79, 0
1, 24119, Note_off_c, 1, 50, 0
1, 24119, Note_off_c, 1, 71, 0
1, 24119, Note_off_c, 1, 66, 0
1, 24120, Note_on_c, 1, 81, 127
1, 24120, Note_on_c, 1, 76, 127
1, 24120, Note_on_c, 1, 45, 127
1, 24120, Note_on_c, 1, 79, 127
1, 24120, Note_on_c, 1, 57, 127
1, 24120, Note_on_c, 1, 69, 127
1, 24120, Note_on_c, 1, 64, 127
1, 24120, Note_on_c, 1, 49, 127
1, 24135, Note_on_c, 1, 78, 127
1, 24149, Note_off_c, 1, 78, 0
1, 24170, Note_off_c, 1, 79, 0
1, 24179, Note_off_c, 1, 69, 0
1, 24179, Note_off_c, 1, 64, 0
1, 24180, Note_off_c, 1, 81, 0
1, 24180, Note_off_c, 1, 76, 0
1, 24180, Note_on_c, 1, 83, 127
1, 24180, Note_on_c, 1, 62, 127
1, 24180, Note_on_c, 1, 47, 127
1, 24194, Note_off_c, 1, 83, 0
1, 24209, Note_off_c, 1, 57, 0
1, 24209, Note_off_c, 1, 49, 0
1, 24209, Note_off_c, 1, 47, 0
1, 24239, Note_off_c, 1, 62, 0
1, 24240, Note_on_c, 1, 85, 127
1, 24240, Note_on_c, 1, 61, 127
1, 24254, Note_off_c, 1, 85, 0
1, 24299, Note_off_c, 1, 61, 0
1, 24300, Note_off_c, 1, 45, 0
1, 24300, Note_on_c, 1, 50, 127
1, 24300, Note_on_c, 1, 86, 127
1, 24300, Note_on_c, 1, 74, 127
1, 24329, Note_off_c, 1, 86, 0
1, 24329, Note_off_c, 1, 74, 0
1, 24359, Note_off_c, 1, 50, 0
1, 24360, Note_on_c, 1, 54, 127
1, 24360, Note_on_c, 1, 42, 127
1, 24389, Note_off_c, 1, 42, 0
1, 24419, Note_off_c, 1, 54, 0
1, 24420, Note_on_c, 1, 73, 127
1, 24479, Note_off_c, 1, 73, 0
1, 24480, Note_on_c, 1, 66, 127
1, 24480, Note_on_c, 1, 38, 127
1, 24539, Note_off_c, 1, 38, 0
1, 24660, Note_on_c, 1, 71, 127
1, 24660, Note_on_c, 1, 59, 127
1, 24689, Note_off_c, 1, 71, 0
1, 24719, Note_off_c, 1, 66, 0
1, 24719, Note_off_c, 1, 59, 0
1, 24720, Note_on_c, 1, 79, 127
1, 24720, Note_on_c, 1, 62, 127
1, 24720, Note_on_c, 1, 67, 127
1, 24720, Note_on_c, 1, 64, 127
1, 24720, Note_on_c, 1, 47, 127
1, 24749, Note_off_c, 1, 67, 0
1, 24749, Note_off_c, 1, 64, 0
1, 24750, Note_off_c, 1, 79, 0
1, 24779, Note_off_c, 1, 62, 0
1, 24779, Note_off_c, 1, 47, 0
1, 24780, Note_on_c, 1, 61, 127
1, 24780, Note_on_c, 1, 59, 127
1, 24809, Note_off_c, 1, 61, 0
1, 24839, Note_off_c, 1, 59, 0
1, 24840, Note_on_c, 1, 79, 127
1, 24840, Note_on_c, 1, 73, 127
1, 24840, Note_on_c, 1, 64, 127
1, 24840, Note_on_c, 1, 61, 127
1, 24840, Note_on_c, 1, 57, 127
1, 24869, Note_off_c, 1, 64, 0
1, 24870, Note_off_c, 1, 79, 0
1, 24870, Note_off_c, 1, 73, 0
1, 24899, Note_off_c, 1, 61, 0
1, 24899, Note_off_c, 1, 57, 0
1, 24900, Note_on_c, 1, 78, 127
1, 24900, Note_on_c, 1, 61, 127
1, 24900, Note_on_c, 1, 69, 127
1, 24900, Note_on_c, 1, 66, 127
1, 24900, Note_on_c, 1, 59, 127
1, 24900, Note_on_c, 1, 45, 127
1, 24929, Note_off_c, 1, 69, 0
1, 24929, Note_off_c, 1, 59, 0
1, 24930, Note_off_c, 1, 78, 0
1, 24930, Note_off_c, 1, 61, 0
1, 24930, Note_on_c, 1, 57, 127
1, 24959, Note_off_c, 1, 66, 0
1, 24959, Note_off_c, 1, 45, 0
1, 24959, Note_off_c, 1, 57, 0
1, 24960, Note_on_c, 1, 66, 127
1, 24960, Note_on_c, 1, 55, 127
1, 24960, Note_on_c, 1, 57, 127
1, 24989, Note_off_c, 1, 55, 0
1, 24990, Note_on_c, 1, 54, 127
1, 25019, Note_off_c, 1, 66, 0
1, 25019, Note_off_c, 1, 57, 0
1, 25019, Note_off_c, 1, 54, 0
1, 25020, Note_on_c, 1, 71, 127
1, 25020, Note_on_c, 1, 74, 127
1, 25020, Note_on_c, 1, 62, 127
1, 25020, Note_on_c, 1, 66, 127
1, 25020, Note_on_c, 1, 59, 127
1, 25020, Note_on_c, 1, 55, 127
1, 25049, Note_off_c, 1, 62, 0
1, 25050, Note_off_c, 1, 74, 0
1, 25079, Note_off_c, 1, 71, 0
1, 25079, Note_off_c, 1, 66, 0
1, 25079, Note_off_c, 1, 59, 0
1, 25079, Note_off_c, 1, 55, 0
1, 25080, Note_on_c, 1, 83, 127
1, 25080, Note_on_c, 1, 76, 127
1, 25080, Note_on_c, 1, 67, 127
1, 25080, Note_on_c, 1, 69, 127
1, 25080, Note_on_c, 1, 59, 127
1, 25080, Note_on_c, 1, 64, 127
1, 25080, Note_on_c, 1, 43, 127
1, 25109, Note_off_c, 1, 67, 0
1, 25109, Note_off_c, 1, 69, 0
1, 25110, Note_off_c, 1, 83, 0
1, 25110, Note_off_c, 1, 76, 0
1, 25139, Note_off_c, 1, 59, 0
1, 25139, Note_off_c, 1, 64, 0
1, 25139, Note_off_c, 1, 43, 0
1, 25140, Note_on_c, 1, 66, 127
1, 25140, Note_on_c, 1, 64, 127
1, 25140, Note_on_c, 1, 55, 127
1, 25169, Note_off_c, 1, 66, 0
1, 25199, Note_off_c, 1, 64, 0
1, 25199, Note_off_c, 1, 55, 0
1, 25200, Note_on_c, 1, 82, 127
1, 25200, Note_on_c, 1, 78, 127
1, 25200, Note_on_c, 1, 61, 127
1, 25200, Note_on_c, 1, 73, 127
1, 25200, Note_on_c, 1, 70, 127
1, 25200, Note_on_c, 1, 64, 127
1, 25200, Note_on_c, 1, 54, 127
1, 25229, Note_off_c, 1, 61, 0
1, 25229, Note_off_c, 1, 64, 0
1, 25230, Note_off_c, 1, 82, 0
1, 25230, Note_off_c, 1, 78, 0
1, 25230, Note_on_c, 1, 62, 127
1, 25259, Note_off_c, 1, 73, 0
1, 25259, Note_off_c, 1, 70, 0
1, 25259, Note_off_c, 1, 54, 0
1, 25259, Note_off_c, 1, 62, 0
1, 25260, Note_on_c, 1, 73, 127
1, 25260, Note_on_c, 1, 76, 127
1, 25260, Note_on_c, 1, 66, 127
1, 25260, Note_on_c, 1, 71, 127
1, 25260, Note_on_c, 1, 64, 127
1, 25260, Note_on_c, 1, 56, 127
1, 25260, Note_on_c, 1, 42, 127
1, 25289, Note_off_c, 1, 66, 0
1, 25289, Note_off_c, 1, 64, 0
1, 25290, Note_off_c, 1, 73, 0
1, 25290, Note_off_c, 1, 76, 0
1, 25290, Note_on_c, 1, 70, 127
1, 25319, Note_off_c, 1, 71, 0
1, 25319, Note_off_c, 1, 56, 0
1, 25319, Note_off_c, 1, 42, 0
1, 25319, Note_off_c, 1, 70, 0
1, 25320, Note_on_c, 1, 68, 127
1, 25320, Note_on_c, 1, 73, 127
1, 25320, Note_on_c, 1, 64, 127
1, 25320, Note_on_c, 1, 58, 127
1, 25320, Note_on_c, 1, 54, 127
1, 25349, Note_off_c, 1, 68, 0
1, 25349, Note_off_c, 1, 64, 0
1, 25350, Note_on_c, 1, 66, 127
1, 25379, Note_off_c, 1, 73, 0
1, 25379, Note_off_c, 1, 58, 0
1, 25379, Note_off_c, 1, 54, 0
1, 25379, Note_off_c, 1, 66, 0
1, 25380, Note_on_c, 1, 71, 127
1, 25380, Note_on_c, 1, 74, 127
1, 25380, Note_on_c, 1, 66, 127
1, 25380, Note_on_c, 1, 62, 127
1, 25380, Note_on_c, 1, 59, 127
1, 25409, Note_off_c, 1, 62, 0
1, 25410, Note_off_c, 1, 71, 0
1, 25410, Note_on_c, 1, 61, 127
1, 25439, Note_off_c, 1, 74, 0
1, 25439, Note_off_c, 1, 66, 0
1, 25439, Note_off_c, 1, 59, 0
1, 25439, Note_off_c, 1, 61, 0
1, 25440, Note_on_c, 1, 79, 127
1, 25440, Note_on_c, 1, 76, 127
1, 25440, Note_on_c, 1, 71, 127
1, 25440, Note_on_c, 1, 59, 127
1, 25440, Note_on_c, 1, 57, 127
1, 25440, Note_on_c, 1, 55, 127
1, 25469, Note_off_c, 1, 57, 0
1, 25470, Note_off_c, 1, 79, 0
1, 25470, Note_off_c, 1, 76, 0
1, 25470, Note_on_c, 1, 78, 127
1, 25499, Note_off_c, 1, 71, 0
1, 25499, Note_off_c, 1, 59, 0
1, 25499, Note_off_c, 1, 55, 0
1, 25499, Note_off_c, 1, 78, 0
1, 25500, Note_on_c, 1, 79, 127
1, 25500, Note_on_c, 1, 59, 127
1, 25500, Note_on_c, 1, 54, 127
1, 25500, Note_on_c, 1, 52, 127
1, 25529, Note_off_c, 1, 54, 0
1, 25559, Note_off_c, 1, 79, 0
1, 25559, Note_off_c, 1, 59, 0
1, 25559, Note_off_c, 1, 52, 0
1, 25560, Note_on_c, 1, 79, 127
1, 25560, Note_on_c, 1, 73, 127
1, 25560, Note_on_c, 1, 69, 127
1, 25560, Note_on_c, 1, 61, 127
1, 25560, Note_on_c, 1, 64, 127
1, 25560, Note_on_c, 1, 57, 127
1, 25589, Note_off_c, 1, 69, 0
1, 25590, Note_off_c, 1, 73, 0
1, 25619, Note_off_c, 1, 79, 0
1, 25619, Note_off_c, 1, 61, 0
1, 25619, Note_off_c, 1, 64, 0
1, 25619, Note_off_c, 1, 57, 0
1, 25620, Note_on_c, 1, 78, 127
1, 25620, Note_on_c, 1, 74, 127
1, 25620, Note_on_c, 1, 62, 127
1, 25620, Note_on_c, 1, 57, 127
1, 25620, Note_on_c, 1, 59, 127
1, 25649, Note_off_c, 1, 62, 0
1, 25649, Note_off_c, 1, 59, 0
1, 25650, Note_off_c, 1, 78, 0
1, 25650, Note_off_c, 1, 74, 0
1, 25650, Note_on_c, 1, 76, 127
1, 25650, Note_on_c, 1, 61, 127
1, 25679, Note_off_c, 1, 57, 0
1, 25679, Note_off_c, 1, 76, 0
1, 25679, Note_off_c, 1, 61, 0
1, 25680, Note_on_c, 1, 78, 127
1, 25680, Note_on_c, 1, 69, 127
1, 25680, Note_on_c, 1, 59, 127
1, 25680, Note_on_c, 1, 62, 127
1, 25709, Note_off_c, 1, 59, 0
1, 25710, Note_on_c, 1, 57, 127
1, 25739, Note_off_c, 1, 78, 0
1, 25739, Note_off_c, 1, 69, 0
1, 25739, Note_off_c, 1, 57, 0
1, 25740, Note_on_c, 1, 71, 127
1, 25740, Note_on_c, 1, 76, 127
1, 25740, Note_on_c, 1, 56, 127
1, 25770, Note_off_c, 1, 76, 0
1, 25799, Note_off_c, 1, 62, 0
1, 25799, Note_off_c, 1, 71, 0
1, 25799, Note_off_c, 1, 56, 0
1, 25800, Note_on_c, 1, 76, 127
1, 25800, Note_on_c, 1, 64, 127
1, 25800, Note_on_c, 1, 57, 127
1, 25800, Note_on_c, 1, 69, 127
1, 25800, Note_on_c, 1, 61, 127
1, 25829, Note_off_c, 1, 57, 0
1, 25829, Note_off_c, 1, 69, 0
1, 25829, Note_off_c, 1, 61, 0
1, 25830, Note_off_c, 1, 64, 0
1, 25830, Note_on_c, 1, 67, 127
1, 25830, Note_on_c, 1, 59, 127
1, 25859, Note_off_c, 1, 67, 0
1, 25859, Note_off_c, 1, 59, 0
1, 25860, Note_on_c, 1, 66, 127
1, 25889, Note_off_c, 1, 66, 0
1, 25890, Note_on_c, 1, 55, 127
1, 25919, Note_off_c, 1, 55, 0
1, 25920, Note_on_c, 1, 73, 127
1, 25920, Note_on_c, 1, 58, 127
1, 25920, Note_on_c, 1, 54, 127
1, 25950, Note_off_c, 1, 73, 0
1, 25979, Note_off_c, 1, 76, 0
1, 25979, Note_off_c, 1, 58, 0
1, 25979, Note_off_c, 1, 54, 0
1, 25980, Note_on_c, 1, 74, 127
1, 25980, Note_on_c, 1, 71, 127
1, 25980, Note_on_c, 1, 59, 127
1, 25980, Note_on_c, 1, 66, 127
1, 25980, Note_on_c, 1, 56, 127
1, 26009, Note_off_c, 1, 66, 0
1, 26009, Note_off_c, 1, 56, 0
1, 26010, Note_off_c, 1, 74, 0
1, 26010, Note_off_c, 1, 71, 0
1, 26010, Note_on_c, 1, 73, 127
1, 26010, Note_on_c, 1, 64, 127
1, 26010, Note_on_c, 1, 58, 127
1, 26039, Note_off_c, 1, 59, 0
1, 26039, Note_off_c, 1, 73, 0
1, 26039, Note_off_c, 1, 64, 0
1, 26039, Note_off_c, 1, 58, 0
1, 26040, Note_on_c, 1, 74, 127
1, 26040, Note_on_c, 1, 62, 127
1, 26040, Note_on_c, 1, 59, 127
1, 26069, Note_off_c, 1, 74, 0
1, 26069, Note_off_c, 1, 62, 0
1, 26070, Note_on_c, 1, 71, 127
1, 26070, Note_on_c, 1, 66, 127
1, 26099, Note_off_c, 1, 71, 0
1, 26099, Note_off_c, 1, 66, 0
1, 26100, Note_on_c, 1, 73, 127
1, 26100, Note_on_c, 1, 67, 127
1, 26100, Note_on_c, 1, 64, 127
1, 26159, Note_off_c, 1, 59, 0
1, 26159, Note_off_c, 1, 73, 0
1, 26159, Note_off_c, 1, 67, 0
1, 26159, Note_off_c, 1, 64, 0
1, 26160, Note_on_c, 1, 78, 127
1, 26160, Note_on_c, 1, 66, 127
1, 26160, Note_on_c, 1, 61, 127
1, 26160, Note_on_c, 1, 57, 127
1, 26189, Note_off_c, 1, 57, 0
1, 26190, Note_off_c, 1, 66, 0
1, 26190, Note_on_c, 1, 64, 127
1, 26190, Note_on_c, 1, 55, 127
1, 26219, Note_off_c, 1, 61, 0
1, 26219, Note_off_c, 1, 64, 0
1, 26219, Note_off_c, 1, 55, 0
1, 26220, Note_on_c, 1, 69, 127
1, 26220, Note_on_c, 1, 62, 127
1, 26220, Note_on_c, 1, 54, 127
1, 26249, Note_off_c, 1, 62, 0
1, 26249, Note_off_c, 1, 54, 0
1, 26250, Note_on_c, 1, 52, 127
1, 26279, Note_off_c, 1, 69, 0
1, 26279, Note_off_c, 1, 52, 0
1, 26280, Note_on_c, 1, 59, 127
1, 26280, Note_on_c, 1, 50, 127
1, 26339, Note_off_c, 1, 78, 0
1, 26339, Note_off_c, 1, 59, 0
1, 26339, Note_off_c, 1, 50, 0
1, 26340, Note_on_c, 1, 76, 127
1, 26340, Note_on_c, 1, 67, 127
1, 26340, Note_on_c, 1, 64, 127
1, 26340, Note_on_c, 1, 61, 127
1, 26340, Note_on_c, 1, 52, 127
1, 26369, Note_off_c, 1, 64, 0
1, 26369, Note_off_c, 1, 52, 0
1, 26370, Note_off_c, 1, 76, 0
1, 26370, Note_off_c, 1, 67, 0
1, 26370, Note_off_c, 1, 61, 0
1, 26370, Note_on_c, 1, 74, 127
1, 26370, Note_on_c, 1, 66, 127
1, 26370, Note_on_c, 1, 62, 127
1, 26370, Note_on_c, 1, 54, 127
1, 26399, Note_off_c, 1, 74, 0
1, 26399, Note_off_c, 1, 66, 0
1, 26399, Note_off_c, 1, 54, 0
1, 26400, Note_off_c, 1, 62, 0
1, 26400, Note_on_c, 1, 73, 127
1, 26400, Note_on_c, 1, 55, 127
1, 26429, Note_off_c, 1, 73, 0
1, 26430, Note_on_c, 1, 71, 127
1, 26459, Note_off_c, 1, 71, 0
1, 26460, Note_on_c, 1, 69, 127
1, 26519, Note_off_c, 1, 55, 0
1, 26519, Note_off_c, 1, 69, 0
1, 26520, Note_on_c, 1, 74, 127
1, 26520, Note_on_c, 1, 66, 127
1, 26520, Note_on_c, 1, 57, 127
1, 26520, Note_on_c, 1, 62, 127
1, 26520, Note_on_c, 1, 54, 127
1, 26549, Note_off_c, 1, 62, 0
1, 26549, Note_off_c, 1, 54, 0
1, 26550, Note_off_c, 1, 66, 0
1, 26550, Note_on_c, 1, 64, 127
1, 26550, Note_on_c, 1, 52, 127
1, 26579, Note_off_c, 1, 57, 0
1, 26579, Note_off_c, 1, 64, 0
1, 26579, Note_off_c, 1, 52, 0
1, 26580, Note_on_c, 1, 50, 127
1, 26609, Note_off_c, 1, 50, 0
1, 26610, Note_on_c, 1, 49, 127
1, 26639, Note_off_c, 1, 49, 0
1, 26640, Note_on_c, 1, 59, 127
1, 26640, Note_on_c, 1, 67, 127
1, 26640, Note_on_c, 1, 47, 127
1, 26669, Note_off_c, 1, 59, 0
1, 26669, Note_off_c, 1, 67, 0
1, 26670, Note_on_c, 1, 69, 127
1, 26699, Note_off_c, 1, 74, 0
1, 26699, Note_off_c, 1, 47, 0
1, 26699, Note_off_c, 1, 69, 0
1, 26700, Note_on_c, 1, 79, 127
1, 26700, Note_on_c, 1, 64, 127
1, 26700, Note_on_c, 1, 71, 127
1, 26700, Note_on_c, 1, 76, 127
1, 26700, Note_on_c, 1, 67, 127
1, 26700, Note_on_c, 1, 49, 127
1, 26729, Note_off_c, 1, 71, 0
1, 26729, Note_off_c, 1, 76, 0
1, 26729, Note_off_c, 1, 67, 0
1, 26729, Note_off_c, 1, 49, 0
1, 26730, Note_off_c, 1, 79, 0
1, 26730, Note_off_c, 1, 64, 0
1, 26730, Note_on_c, 1, 78, 127
1, 26730, Note_on_c, 1, 66, 127
1, 26730, Note_on_c, 1, 50, 127
1, 26759, Note_off_c, 1, 78, 0
1, 26759, Note_off_c, 1, 66, 0
1, 26759, Note_off_c, 1, 50, 0
1, 26760, Note_on_c, 1, 79, 127
1, 26760, Note_on_c, 1, 64, 127
1, 26760, Note_on_c, 1, 52, 127
1, 26789, Note_off_c, 1, 64, 0
1, 26790, Note_on_c, 1, 62, 127
1, 26819, Note_off_c, 1, 52, 0
1, 26819, Note_off_c, 1, 62, 0
1, 26820, Note_on_c, 1, 73, 127
1, 26820, Note_on_c, 1, 69, 127
1, 26820, Note_on_c, 1, 61, 127
1, 26820, Note_on_c, 1, 45, 127
1, 26849, Note_off_c, 1, 69, 0
1, 26850, Note_off_c, 1, 73, 0
1, 26879, Note_off_c, 1, 79, 0
1, 26879, Note_off_c, 1, 61, 0
1, 26879, Note_off_c, 1, 45, 0
1, 26880, Note_on_c, 1, 78, 127
1, 26880, Note_on_c, 1, 74, 127
1, 26880, Note_on_c, 1, 62, 127
1, 26880, Note_on_c, 1, 57, 127
1, 26880, Note_on_c, 1, 47, 127
1, 26909, Note_off_c, 1, 62, 0
1, 26909, Note_off_c, 1, 47, 0
1, 26910, Note_off_c, 1, 78, 0
1, 26910, Note_off_c, 1, 74, 0
1, 26910, Note_on_c, 1, 76, 127
1, 26910, Note_on_c, 1, 61, 127
1, 26910, Note_on_c, 1, 49, 127
1, 26939, Note_off_c, 1, 57, 0
1, 26939, Note_off_c, 1, 76, 0
1, 26939, Note_off_c, 1, 61, 0
1, 26939, Note_off_c, 1, 49, 0
1, 26940, Note_on_c, 1, 78, 127
1, 26940, Note_on_c, 1, 69, 127
1, 26940, Note_on_c, 1, 59, 127
1, 26940, Note_on_c, 1, 50, 127
1, 26969, Note_off_c, 1, 59, 0
1, 26970, Note_on_c, 1, 57, 127
1, 26999, Note_off_c, 1, 57, 0
1, 27000, Note_on_c, 1, 74, 127
1, 27000, Note_on_c, 1, 71, 127
1, 27000, Note_on_c, 1, 43, 127
1, 27029, Note_off_c, 1, 71, 0
1, 27030, Note_off_c, 1, 74, 0
1, 27059, Note_off_c, 1, 78, 0
1, 27059, Note_off_c, 1, 69, 0
1, 27059, Note_off_c, 1, 50, 0
1, 27059, Note_off_c, 1, 43, 0
1, 27060, Note_on_c, 1, 76, 127
1, 27060, Note_on_c, 1, 71, 127
1, 27060, Note_on_c, 1, 67, 127
1, 27060, Note_on_c, 1, 59, 127
1, 27060, Note_on_c, 1, 52, 127
1, 27060, Note_on_c, 1, 55, 127
1, 27089, Note_off_c, 1, 52, 0
1, 27089, Note_off_c, 1, 55, 0
1, 27090, Note_off_c, 1, 76, 0
1, 27090, Note_off_c, 1, 71, 0
1, 27090, Note_on_c, 1, 74, 127
1, 27090, Note_on_c, 1, 54, 127
1, 27119, Note_off_c, 1, 67, 0
1, 27119, Note_off_c, 1, 59, 0
1, 27119, Note_off_c, 1, 74, 0
1, 27119, Note_off_c, 1, 54, 0
1, 27120, Note_on_c, 1, 73, 127
1, 27120, Note_on_c, 1, 71, 127
1, 27120, Note_on_c, 1, 64, 127
1, 27120, Note_on_c, 1, 55, 127
1, 27149, Note_off_c, 1, 73, 0
1, 27179, Note_off_c, 1, 71, 0
1, 27179, Note_off_c, 1, 64, 0
1, 27180, Note_on_c, 1, 69, 127
1, 27239, Note_off_c, 1, 55, 0
1, 27239, Note_off_c, 1, 69, 0
1, 27240, Note_on_c, 1, 74, 127
1, 27240, Note_on_c, 1, 66, 127
1, 27240, Note_on_c, 1, 57, 127
1, 27240, Note_on_c, 1, 69, 127
1, 27240, Note_on_c, 1, 62, 127
1, 27240, Note_on_c, 1, 54, 127
1, 27269, Note_off_c, 1, 57, 0
1, 27269, Note_off_c, 1, 62, 0
1, 27270, Note_off_c, 1, 74, 0
1, 27270, Note_off_c, 1, 66, 0
1, 27270, Note_on_c, 1, 61, 127
1, 27299, Note_off_c, 1, 69, 0
1, 27299, Note_off_c, 1, 54, 0
1, 27299, Note_off_c, 1, 61, 0
1, 27300, Note_on_c, 1, 74, 127
1, 27300, Note_on_c, 1, 66, 127
1, 27300, Note_on_c, 1, 62, 127
1, 27300, Note_on_c, 1, 59, 127
1, 27359, Note_off_c, 1, 74, 0
1, 27359, Note_off_c, 1, 66, 0
1, 27359, Note_off_c, 1, 59, 0
1, 27360, Note_on_c, 1, 71, 127
1, 27360, Note_on_c, 1, 67, 127
1, 27360, Note_on_c, 1, 64, 127
1, 27360, Note_on_c, 1, 52, 127
1, 27390, Note_off_c, 1, 71, 0
1, 27419, Note_off_c, 1, 62, 0
1, 27419, Note_off_c, 1, 67, 0
1, 27419, Note_off_c, 1, 64, 0
1, 27419, Note_off_c, 1, 52, 0
1, 27420, Note_on_c, 1, 73, 127
1, 27420, Note_on_c, 1, 64, 127
1, 27420, Note_on_c, 1, 61, 127
1, 27420, Note_on_c, 1, 57, 127
1, 27449, Note_off_c, 1, 61, 0
1, 27450, Note_off_c, 1, 73, 0
1, 27450, Note_on_c, 1, 59, 127
1, 27479, Note_off_c, 1, 64, 0
1, 27479, Note_off_c, 1, 57, 0
1, 27479, Note_off_c, 1, 59, 0
1, 27480, Note_on_c, 1, 76, 127
1, 27480, Note_on_c, 1, 69, 127
1, 27480, Note_on_c, 1, 61, 127
1, 27480, Note_on_c, 1, 45, 127
1, 27510, Note_off_c, 1, 76, 0
1, 27539, Note_off_c, 1, 61, 0
1, 27539, Note_off_c, 1, 45, 0
1, 27540, Note_on_c, 1, 66, 127
1, 27540, Note_on_c, 1, 74, 127
1, 27540, Note_on_c, 1, 62, 127
1, 27540, Note_on_c, 1, 50, 127
1, 27599, Note_off_c, 1, 69, 0
1, 27599, Note_off_c, 1, 62, 0
1, 27599, Note_off_c, 1, 50, 0
1, 27600, Note_on_c, 1, 78, 127
1, 27600, Note_on_c, 1, 67, 127
1, 27600, Note_on_c, 1, 57, 127
1, 27629, Note_off_c, 1, 78, 0
1, 27629, Note_off_c, 1, 67, 0
1, 27659, Note_off_c, 1, 66, 0
1, 27659, Note_off_c, 1, 74, 0
1, 27659, Note_off_c, 1, 57, 0
1, 27660, Note_on_c, 1, 81, 127
1, 27660, Note_on_c, 1, 78, 127
1, 27660, Note_on_c, 1, 64, 127
1, 27660, Note_on_c, 1, 62, 127
1, 27689, Note_off_c, 1, 81, 0
1, 27689, Note_off_c, 1, 64, 0
1, 27690, Note_off_c, 1, 78, 0
1, 27719, Note_off_c, 1, 62, 0
1, 27720, Note_on_c, 1, 69, 127
1, 27720, Note_on_c, 1, 64, 127
1, 27720, Note_on_c, 1, 61, 127
1, 27750, Note_off_c, 1, 69, 0
1, 27779, Note_off_c, 1, 64, 0
1, 27779, Note_off_c, 1, 61, 0
1, 27780, Note_on_c, 1, 76, 127
1, 27780, Note_on_c, 1, 69, 127
1, 27780, Note_on_c, 1, 62, 127
1, 27780, Note_on_c, 1, 49, 127
1, 27809, Note_off_c, 1, 62, 0
1, 27810, Note_off_c, 1, 76, 0
1, 27810, Note_on_c, 1, 61, 127
1, 27839, Note_off_c, 1, 49, 0
1, 27839, Note_off_c, 1, 61, 0
1, 27840, Note_on_c, 1, 81, 127
1, 27840, Note_on_c, 1, 59, 127
1, 27869, Note_off_c, 1, 81, 0
1, 27869, Note_off_c, 1, 59, 0
1, 27870, Note_on_c, 1, 57, 127
1, 27899, Note_off_c, 1, 57, 0
1, 27900, Note_on_c, 1, 74, 127
1, 27900, Note_on_c, 1, 66, 127
1, 27930, Note_off_c, 1, 74, 0
1, 27930, Note_off_c, 1, 66, 0
1, 27959, Note_off_c, 1, 69, 0
1, 27960, Note_on_c, 1, 78, 127
1, 27960, Note_on_c, 1, 74, 127
1, 27960, Note_on_c, 1, 71, 127
1, 27960, Note_on_c, 1, 62, 127
1, 27960, Note_on_c, 1, 57, 127
1, 27960, Note_on_c, 1, 47, 127
1, 27989, Note_off_c, 1, 57, 0
1, 27990, Note_off_c, 1, 78, 0
1, 27990, Note_off_c, 1, 71, 0
1, 27990, Note_on_c, 1, 56, 127
1, 28019, Note_off_c, 1, 74, 0
1, 28019, Note_off_c, 1, 62, 0
1, 28019, Note_off_c, 1, 47, 0
1, 28019, Note_off_c, 1, 56, 0
1, 28020, Note_on_c, 1, 83, 127
1, 28020, Note_on_c, 1, 68, 127
1, 28020, Note_on_c, 1, 62, 127
1, 28020, Note_on_c, 1, 54, 127
1, 28020, Note_on_c, 1, 59, 127
1, 28049, Note_off_c, 1, 54, 0
1, 28050, Note_off_c, 1, 83, 0
1, 28050, Note_on_c, 1, 52, 127
1, 28079, Note_off_c, 1, 68, 0
1, 28079, Note_off_c, 1, 59, 0
1, 28079, Note_off_c, 1, 52, 0
1, 28080, Note_on_c, 1, 73, 127
1, 28080, Note_on_c, 1, 69, 127
1, 28080, Note_on_c, 1, 76, 127
1, 28080, Note_on_c, 1, 57, 127
1, 28109, Note_off_c, 1, 62, 0
1, 28110, Note_off_c, 1, 73, 0
1, 28110, Note_on_c, 1, 61, 127
1, 28139, Note_off_c, 1, 69, 0
1, 28139, Note_off_c, 1, 76, 0
1, 28139, Note_off_c, 1, 61, 0
1, 28140, Note_on_c, 1, 74, 127
1, 28140, Note_on_c, 1, 64, 127
1, 28140, Note_on_c, 1, 45, 127
1, 28169, Note_off_c, 1, 74, 0
1, 28199, Note_off_c, 1, 64, 0
1, 28199, Note_off_c, 1, 45, 0
1, 28200, Note_on_c, 1, 81, 127
1, 28200, Note_on_c, 1, 71, 127
1, 28229, Note_off_c, 1, 71, 0
1, 28230, Note_off_c, 1, 81, 0
1, 28260, Note_on_c, 1, 66, 127
1, 28260, Note_on_c, 1, 78, 127
1, 28260, Note_on_c, 1, 50, 127
1, 28290, Note_off_c, 1, 66, 0
1, 28319, Note_off_c, 1, 57, 0
1, 28319, Note_off_c, 1, 50, 0
1, 28320, Note_on_c, 1, 67, 127
1, 28320, Note_on_c, 1, 38, 127
1, 28349, Note_off_c, 1, 67, 0
1, 28379, Note_off_c, 1, 38, 0
1, 28380, Note_on_c, 1, 86, 127
1, 28410, Note_off_c, 1, 86, 0
1, 28440, Note_on_c, 1, 55, 127
1, 28499, Note_off_c, 1, 78, 0
1, 28499, Note_off_c, 1, 55, 0
1, 28560, Note_on_c, 1, 76, 127
1, 28560, Note_on_c, 1, 71, 127
1, 28560, Note_on_c, 1, 67, 127
1, 28560, Note_on_c, 1, 50, 127
1, 28560, Note_on_c, 1, 49, 127
1, 28589, Note_off_c, 1, 50, 0
1, 28590, Note_off_c, 1, 71, 0
1, 28590, Note_on_c, 1, 73, 127
1, 28619, Note_off_c, 1, 67, 0
1, 28619, Note_off_c, 1, 49, 0
1, 28619, Note_off_c, 1, 73, 0
1, 28620, Note_on_c, 1, 69, 127
1, 28620, Note_on_c, 1, 66, 127
1, 28620, Note_on_c, 1, 54, 127
1, 28649, Note_off_c, 1, 69, 0
1, 28649, Note_off_c, 1, 66, 0
1, 28679, Note_off_c, 1, 76, 0
1, 28679, Note_off_c, 1, 54, 0
1, 28680, Note_on_c, 1, 81, 127
1, 28680, Note_on_c, 1, 78, 127
1, 28680, Note_on_c, 1, 74, 127
1, 28680, Note_on_c, 1, 71, 127
1, 28680, Note_on_c, 1, 69, 127
1, 28680, Note_on_c, 1, 66, 127
1, 28680, Note_on_c, 1, 55, 127
1, 28709, Note_off_c, 1, 69, 0
1, 28709, Note_off_c, 1, 66, 0
1, 28709, Note_off_c, 1, 55, 0
1, 28710, Note_off_c, 1, 81, 0
1, 28710, Note_off_c, 1, 78, 0
1, 28710, Note_off_c, 1, 74, 0
1, 28710, Note_off_c, 1, 71, 0
1, 28710, Note_on_c, 1, 73, 127
1, 28710, Note_on_c, 1, 67, 127
1, 28710, Note_on_c, 1, 64, 127
1, 28710, Note_on_c, 1, 57, 127
1, 28739, Note_off_c, 1, 73, 0
1, 28739, Note_off_c, 1, 67, 0
1, 28739, Note_off_c, 1, 64, 0
1, 28739, Note_off_c, 1, 57, 0
1, 28740, Note_on_c, 1, 74, 127
1, 28740, Note_on_c, 1, 71, 127
1, 28740, Note_on_c, 1, 66, 127
1, 28740, Note_on_c, 1, 62, 127
1, 28740, Note_on_c, 1, 59, 127
1, 28769, Note_off_c, 1, 66, 0
1, 28769, Note_off_c, 1, 62, 0
1, 28770, Note_off_c, 1, 71, 0
1, 28770, Note_on_c, 1, 69, 127
1, 28799, Note_off_c, 1, 59, 0
1, 28799, Note_off_c, 1, 69, 0
1, 28800, Note_on_c, 1, 67, 127
1, 28800, Note_on_c, 1, 64, 127
1, 28800, Note_on_c, 1, 52, 127
1, 28829, Note_off_c, 1, 67, 0
1, 28829, Note_off_c, 1, 64, 0
1, 28859, Note_off_c, 1, 74, 0
1, 28859, Note_off_c, 1, 52, 0
1, 28860, Note_on_c, 1, 76, 127
1, 28860, Note_on_c, 1, 73, 127
1, 28860, Note_on_c, 1, 69, 127
1, 28860, Note_on_c, 1, 67, 127
1, 28860, Note_on_c, 1, 64, 127
1, 28860, Note_on_c, 1, 57, 127
1, 28889, Note_off_c, 1, 67, 0
1, 28889, Note_off_c, 1, 64, 0
1, 28890, Note_off_c, 1, 76, 0
1, 28890, Note_off_c, 1, 73, 0
1, 28890, Note_off_c, 1, 69, 0
1, 28890, Note_on_c, 1, 71, 127
1, 28890, Note_on_c, 1, 66, 127
1, 28890, Note_on_c, 1, 62, 127
1, 28919, Note_off_c, 1, 57, 0
1, 28919, Note_off_c, 1, 71, 0
1, 28919, Note_off_c, 1, 66, 0
1, 28919, Note_off_c, 1, 62, 0
1, 28920, Note_on_c, 1, 81, 127
1, 28920, Note_on_c, 1, 76, 127
1, 28920, Note_on_c, 1, 69, 127
1, 28920, Note_on_c, 1, 67, 127
1, 28920, Note_on_c, 1, 61, 127
1, 28920, Note_on_c, 1, 45, 127
1, 28949, Note_off_c, 1, 69, 0
1, 28949, Note_off_c, 1, 67, 0
1, 28950, Note_off_c, 1, 81, 0
1, 28950, Note_off_c, 1, 76, 0
1, 28950, Note_on_c, 1, 64, 127
1, 28979, Note_off_c, 1, 45, 0
1, 28979, Note_off_c, 1, 64, 0
1, 28980, Note_on_c, 1, 66, 127
1, 28980, Note_on_c, 1, 50, 127
1, 29039, Note_off_c, 1, 61, 0
1, 29039, Note_off_c, 1, 66, 0
1, 29039, Note_off_c, 1, 50, 0
1, 29040, Note_on_c, 1, 78, 127
1, 29040, Note_on_c, 1, 74, 127
1, 29040, Note_on_c, 1, 71, 127
1, 29040, Note_on_c, 1, 66, 127
1, 29040, Note_on_c, 1, 62, 127
1, 29040, Note_on_c, 1, 59, 127
1, 29040, Note_on_c, 1, 52, 127
1, 29069, Note_off_c, 1, 59, 0
1, 29069, Note_off_c, 1, 52, 0
1, 29070, Note_off_c, 1, 78, 0
1, 29070, Note_off_c, 1, 74, 0
1, 29070, Note_off_c, 1, 71, 0
1, 29070, Note_on_c, 1, 58, 127
1, 29070, Note_on_c, 1, 54, 127
1, 29099, Note_off_c, 1, 66, 0
1, 29099, Note_off_c, 1, 62, 0
1, 29099, Note_off_c, 1, 58, 0
1, 29099, Note_off_c, 1, 54, 0
1, 29100, Note_on_c, 1, 74, 127
1, 29100, Note_on_c, 1, 71, 127
1, 29100, Note_on_c, 1, 59, 127
1, 29100, Note_on_c, 1, 55, 127
1, 29130, Note_off_c, 1, 74, 0
1, 29159, Note_off_c, 1, 59, 0
1, 29159, Note_off_c, 1, 55, 0
1, 29160, Note_on_c, 1, 64, 127
1, 29160, Note_on_c, 1, 49, 127
1, 29190, Note_off_c, 1, 64, 0
1, 29190, Note_on_c, 1, 62, 127
1, 29219, Note_off_c, 1, 71, 0
1, 29219, Note_off_c, 1, 49, 0
1, 29219, Note_off_c, 1, 62, 0
1, 29220, Note_on_c, 1, 76, 127
1, 29220, Note_on_c, 1, 73, 127
1, 29220, Note_on_c, 1, 70, 127
1, 29220, Note_on_c, 1, 66, 127
1, 29220, Note_on_c, 1, 61, 127
1, 29220, Note_on_c, 1, 54, 127
1, 29249, Note_off_c, 1, 61, 0
1, 29250, Note_off_c, 1, 76, 0
1, 29250, Note_off_c, 1, 73, 0
1, 29250, Note_off_c, 1, 70, 0
1, 29250, Note_off_c, 1, 66, 0
1, 29250, Note_on_c, 1, 68, 127
1, 29250, Note_on_c, 1, 59, 127
1, 29279, Note_off_c, 1, 54, 0
1, 29279, Note_off_c, 1, 68, 0
1, 29279, Note_off_c, 1, 59, 0
1, 29280, Note_on_c, 1, 73, 127
1, 29280, Note_on_c, 1, 70, 127
1, 29280, Note_on_c, 1, 78, 127
1, 29280, Note_on_c, 1, 66, 127
1, 29280, Note_on_c, 1, 61, 127
1, 29280, Note_on_c, 1, 54, 127
1, 29280, Note_on_c, 1, 42, 127
1, 29309, Note_off_c, 1, 66, 0
1, 29309, Note_off_c, 1, 61, 0
1, 29310, Note_off_c, 1, 73, 0
1, 29310, Note_off_c, 1, 70, 0
1, 29310, Note_on_c, 1, 64, 127
1, 29310, Note_on_c, 1, 58, 127
1, 29339, Note_off_c, 1, 54, 0
1, 29339, Note_off_c, 1, 42, 0
1, 29339, Note_off_c, 1, 64, 0
1, 29339, Note_off_c, 1, 58, 0
1, 29340, Note_on_c, 1, 71, 127
1, 29340, Note_on_c, 1, 62, 127
1, 29340, Note_on_c, 1, 59, 127
1, 29340, Note_on_c, 1, 63, 127
1, 29340, Note_on_c, 1, 47, 127
1, 29370, Note_off_c, 1, 71, 0
1, 29399, Note_off_c, 1, 78, 0
1, 29399, Note_off_c, 1, 62, 0
1, 29399, Note_off_c, 1, 59, 0
1, 29399, Note_off_c, 1, 63, 0
1, 29399, Note_off_c, 1, 47, 0
1, 29400, Note_on_c, 1, 79, 127
1, 29400, Note_on_c, 1, 71, 127
1, 29400, Note_on_c, 1, 76, 127
1, 29400, Note_on_c, 1, 67, 127
1, 29400, Note_on_c, 1, 64, 127
1, 29400, Note_on_c, 1, 59, 127
1, 29400, Note_on_c, 1, 49, 127
1, 29429, Note_off_c, 1, 64, 0
1, 29429, Note_off_c, 1, 49, 0
1, 29430, Note_off_c, 1, 79, 0
1, 29430, Note_off_c, 1, 71, 0
1, 29430, Note_off_c, 1, 76, 0
1, 29430, Note_off_c, 1, 67, 0
1, 29430, Note_on_c, 1, 74, 127
1, 29430, Note_on_c, 1, 66, 127
1, 29430, Note_on_c, 1, 50, 127
1, 29459, Note_off_c, 1, 59, 0
1, 29459, Note_off_c, 1, 74, 0
1, 29459, Note_off_c, 1, 66, 0
1, 29459, Note_off_c, 1, 50, 0
1, 29460, Note_on_c, 1, 85, 127
1, 29460, Note_on_c, 1, 67, 127
1, 29460, Note_on_c, 1, 73, 127
1, 29460, Note_on_c, 1, 64, 127
1, 29460, Note_on_c, 1, 52, 127
1, 29489, Note_off_c, 1, 73, 0
1, 29489, Note_off_c, 1, 64, 0
1, 29490, Note_off_c, 1, 85, 0
1, 29490, Note_on_c, 1, 71, 127
1, 29490, Note_on_c, 1, 62, 127
1, 29519, Note_off_c, 1, 67, 0
1, 29519, Note_off_c, 1, 71, 0
1, 29519, Note_off_c, 1, 62, 0
1, 29520, Note_on_c, 1, 70, 127
1, 29520, Note_on_c, 1, 66, 127
1, 29520, Note_on_c, 1, 61, 127
1, 29549, Note_off_c, 1, 66, 0
1, 29579, Note_off_c, 1, 52, 0
1, 29579, Note_off_c, 1, 70, 0
1, 29579, Note_off_c, 1, 61, 0
1, 29580, Note_on_c, 1, 78, 127
1, 29580, Note_on_c, 1, 71, 127
1, 29580, Note_on_c, 1, 74, 127
1, 29580, Note_on_c, 1, 66, 127
1, 29580, Note_on_c, 1, 62, 127
1, 29580, Note_on_c, 1, 50, 127
1, 29609, Note_off_c, 1, 66, 0
1, 29609, Note_off_c, 1, 62, 0
1, 29610, Note_off_c, 1, 78, 0
1, 29610, Note_off_c, 1, 71, 0
1, 29610, Note_off_c, 1, 74, 0
1, 29610, Note_on_c, 1, 70, 127
1, 29610, Note_on_c, 1, 64, 127
1, 29610, Note_on_c, 1, 61, 127
1, 29639, Note_off_c, 1, 50, 0
1, 29639, Note_off_c, 1, 70, 0
1, 29639, Note_off_c, 1, 64, 0
1, 29639, Note_off_c, 1, 61, 0
1, 29640, Note_on_c, 1, 83, 127
1, 29640, Note_on_c, 1, 74, 127
1, 29640, Note_on_c, 1, 71, 127
1, 29640, Note_on_c, 1, 62, 127
1, 29640, Note_on_c, 1, 59, 127
1, 29640, Note_on_c, 1, 55, 127
1, 29669, Note_off_c, 1, 62, 0
1, 29669, Note_off_c, 1, 59, 0
1, 29670, Note_off_c, 1, 83, 0
1, 29670, Note_off_c, 1, 74, 0
1, 29670, Note_on_c, 1, 64, 127
1, 29670, Note_on_c, 1, 61, 127
1, 29670, Note_on_c, 1, 58, 127
1, 29699, Note_off_c, 1, 71, 0
1, 29699, Note_off_c, 1, 64, 0
1, 29699, Note_off_c, 1, 61, 0
1, 29699, Note_off_c, 1, 58, 0
1, 29700, Note_on_c, 1, 76, 127
1, 29759, Note_off_c, 1, 55, 0
1, 29759, Note_off_c, 1, 76, 0
1, 29760, Note_on_c, 1, 82, 127
1, 29760, Note_on_c, 1, 78, 127
1, 29760, Note_on_c, 1, 66, 127
1, 29760, Note_on_c, 1, 54, 127
1, 29790, Note_off_c, 1, 82, 0
1, 29790, Note_off_c, 1, 78, 0
1, 29790, Note_off_c, 1, 66, 0
1, 29790, Note_on_c, 1, 73, 127
1, 29790, Note_on_c, 1, 67, 127
1, 29819, Note_off_c, 1, 54, 0
1, 29819, Note_off_c, 1, 73, 0
1, 29819, Note_off_c, 1, 67, 0
1, 29820, Note_on_c, 1, 86, 127
1, 29820, Note_on_c, 1, 74, 127
1, 29820, Note_on_c, 1, 59, 127
1, 29820, Note_on_c, 1, 66, 127
1, 29849, Note_off_c, 1, 66, 0
1, 29850, Note_off_c, 1, 86, 0
1, 29850, Note_off_c, 1, 74, 0
1, 29850, Note_on_c, 1, 71, 127
1, 29850, Note_on_c, 1, 61, 127
1, 29850, Note_on_c, 1, 64, 127
1, 29879, Note_off_c, 1, 71, 0
1, 29879, Note_off_c, 1, 61, 0
1, 29879, Note_off_c, 1, 64, 0
1, 29880, Note_on_c, 1, 79, 127
1, 29880, Note_on_c, 1, 62, 127
1, 29939, Note_off_c, 1, 59, 0
1, 29939, Note_off_c, 1, 79, 0
1, 29939, Note_off_c, 1, 62, 0
1, 29940, Note_on_c, 1, 85, 127
1, 29940, Note_on_c, 1, 78, 127
1, 29940, Note_on_c, 1, 81, 127
1, 29940, Note_on_c, 1, 73, 127
1, 29940, Note_on_c, 1, 69, 127
1, 29940, Note_on_c, 1, 61, 127
1, 29940, Note_on_c, 1, 57, 127
1, 29969, Note_off_c, 1, 69, 0
1, 29969, Note_off_c, 1, 61, 0
1, 29970, Note_off_c, 1, 85, 0
1, 29970, Note_off_c, 1, 78, 0
1, 29970, Note_off_c, 1, 81, 0
1, 29970, Note_off_c, 1, 73, 0
1, 29970, Note_on_c, 1, 76, 127
1, 29970, Note_on_c, 1, 67, 127
1, 29970, Note_on_c, 1, 64, 127
1, 29999, Note_off_c, 1, 57, 0
1, 29999, Note_off_c, 1, 76, 0
1, 29999, Note_off_c, 1, 67, 0
1, 29999, Note_off_c, 1, 64, 0
1, 30000, Note_on_c, 1, 78, 127
1, 30000, Note_on_c, 1, 69, 127
1, 30000, Note_on_c, 1, 66, 127
1, 30000, Note_on_c, 1, 62, 127
1, 30029, Note_off_c, 1, 66, 0
1, 30030, Note_off_c, 1, 78, 0
1, 30030, Note_on_c, 1, 74, 127
1, 30030, Note_on_c, 1, 61, 127
1, 30059, Note_off_c, 1, 69, 0
1, 30059, Note_off_c, 1, 62, 0
1, 30059, Note_off_c, 1, 74, 0
1, 30059, Note_off_c, 1, 61, 0
1, 30060, Note_on_c, 1, 76, 127
1, 30060, Note_on_c, 1, 71, 127
1, 30060, Note_on_c, 1, 59, 127
1, 30060, Note_on_c, 1, 56, 127
1, 30119, Note_off_c, 1, 76, 0
1, 30119, Note_off_c, 1, 71, 0
1, 30119, Note_off_c, 1, 59, 0
1, 30119, Note_off_c, 1, 56, 0
1, 30120, Note_on_c, 1, 76, 127
1, 30120, Note_on_c, 1, 73, 127
1, 30120, Note_on_c, 1, 78, 127
1, 30120, Note_on_c, 1, 66, 127
1, 30120, Note_on_c, 1, 61, 127
1, 30120, Note_on_c, 1, 58, 127
1, 30150, Note_off_c, 1, 76, 0
1, 30150, Note_off_c, 1, 78, 0
1, 30179, Note_off_c, 1, 73, 0
1, 30179, Note_off_c, 1, 66, 0
1, 30179, Note_off_c, 1, 61, 0
1, 30179, Note_off_c, 1, 58, 0
1, 30180, Note_on_c, 1, 74, 127
1, 30180, Note_on_c, 1, 66, 127
1, 30180, Note_on_c, 1, 59, 127
1, 30239, Note_off_c, 1, 74, 0
1, 30239, Note_off_c, 1, 66, 0
1, 30239, Note_off_c, 1, 59, 0
1, 30240, Note_on_c, 1, 71, 127
1, 30240, Note_on_c, 1, 67, 127
1, 30240, Note_on_c, 1, 62, 127
1, 30240, Note_on_c, 1, 55, 127
1, 30299, Note_off_c, 1, 71, 0
1, 30299, Note_off_c, 1, 67, 0
1, 30299, Note_off_c, 1, 62, 0
1, 30299, Note_off_c, 1, 55, 0
1, 30300, Note_on_c, 1, 74, 127
1, 30300, Note_on_c, 1, 67, 127
1, 30300, Note_on_c, 1, 79, 127
1, 30300, Note_on_c, 1, 71, 127
1, 30300, Note_on_c, 1, 64, 127
1, 30300, Note_on_c, 1, 52, 127
1, 30329, Note_off_c, 1, 74, 0
1, 30330, Note_off_c, 1, 79, 0
1, 30330, Note_off_c, 1, 71, 0
1, 30330, Note_on_c, 1, 73, 127
1, 30359, Note_off_c, 1, 67, 0
1, 30359, Note_off_c, 1, 64, 0
1, 30359, Note_off_c, 1, 52, 0
1, 30359, Note_off_c, 1, 73, 0
1, 30360, Note_on_c, 1, 71, 127
1, 30360, Note_on_c, 1, 66, 127
1, 30360, Note_on_c, 1, 61, 127
1, 30360, Note_on_c, 1, 54, 127
1, 30389, Note_off_c, 1, 71, 0
1, 30390, Note_on_c, 1, 70, 127
1, 30419, Note_off_c, 1, 66, 0
1, 30419, Note_off_c, 1, 61, 0
1, 30419, Note_off_c, 1, 54, 0
1, 30419, Note_off_c, 1, 70, 0
1, 30420, Note_on_c, 1, 66, 127
1, 30420, Note_on_c, 1, 71, 127
1, 30420, Note_on_c, 1, 62, 127
1, 30420, Note_on_c, 1, 74, 127
1, 30420, Note_on_c, 1, 47, 127
1, 30450, Note_off_c, 1, 74, 0
1, 30479, Note_off_c, 1, 66, 0
1, 30479, Note_off_c, 1, 47, 0
1, 30480, Note_on_c, 1, 59, 127
1, 30480, Note_on_c, 1, 50, 127
1, 30539, Note_off_c, 1, 71, 0
1, 30539, Note_off_c, 1, 62, 0
1, 30539, Note_off_c, 1, 59, 0
1, 30539, Note_off_c, 1, 50, 0
1, 30540, Note_on_c, 1, 66, 127
1, 30540, Note_on_c, 1, 74, 127
1, 30540, Note_on_c, 1, 71, 127
1, 30540, Note_on_c, 1, 47, 127
1, 30569, Note_off_c, 1, 66, 0
1, 30570, Note_off_c, 1, 74, 0
1, 30570, Note_off_c, 1, 71, 0
1, 30599, Note_off_c, 1, 47, 0
1, 30600, Note_on_c, 1, 66, 127
1, 30600, Note_on_c, 1, 74, 127
1, 30600, Note_on_c, 1, 71, 127
1, 30600, Note_on_c, 1, 54, 127
1, 30629, Note_off_c, 1, 66, 0
1, 30659, Note_off_c, 1, 74, 0
1, 30659, Note_off_c, 1, 71, 0
1, 30660, Note_on_c, 1, 73, 127
1, 30660, Note_on_c, 1, 70, 127
1, 30689, Note_off_c, 1, 73, 0
1, 30689, Note_off_c, 1, 70, 0
1, 30690, Note_on_c, 1, 68, 127
1, 30719, Note_off_c, 1, 54, 0
1, 30719, Note_off_c, 1, 68, 0
1, 30720, Note_on_c, 1, 66, 127
1, 30720, Note_on_c, 1, 82, 127
1, 30720, Note_on_c, 1, 73, 127
1, 30720, Note_on_c, 1, 70, 127
1, 30749, Note_off_c, 1, 66, 0
1, 30749, Note_off_c, 1, 82, 0
1, 30750, Note_on_c, 1, 83, 127
1, 30750, Note_on_c, 1, 74, 127
1, 30779, Note_off_c, 1, 73, 0
1, 30779, Note_off_c, 1, 70, 0
1, 30779, Note_off_c, 1, 83, 0
1, 30779, Note_off_c, 1, 74, 0
1, 30780, Note_on_c, 1, 66, 127
1, 30780, Note_on_c, 1, 85, 127
1, 30780, Note_on_c, 1, 76, 127
1, 30780, Note_on_c, 1, 54, 127
1, 30809, Note_off_c, 1, 66, 0
1, 30809, Note_off_c, 1, 85, 0
1, 30809, Note_off_c, 1, 76, 0
1, 30839, Note_off_c, 1, 54, 0
1, 30840, Note_on_c, 1, 66, 127
1, 30840, Note_on_c, 1, 85, 127
1, 30840, Note_on_c, 1, 76, 127
1, 30840, Note_on_c, 1, 58, 127
1, 30869, Note_off_c, 1, 66, 0
1, 30869, Note_off_c, 1, 85, 0
1, 30869, Note_off_c, 1, 76, 0
1, 30899, Note_off_c, 1, 58, 0
1, 30900, Note_on_c, 1, 66, 127
1, 30900, Note_on_c, 1, 85, 127
1, 30900, Note_on_c, 1, 76, 127
1, 30900, Note_on_c, 1, 54, 127
1, 30929, Note_off_c, 1, 66, 0
1, 30929, Note_off_c, 1, 85, 0
1, 30929, Note_off_c, 1, 76, 0
1, 30959, Note_off_c, 1, 54, 0
1, 30960, Note_on_c, 1, 66, 127
1, 30960, Note_on_c, 1, 85, 127
1, 30960, Note_on_c, 1, 76, 127
1, 30960, Note_on_c, 1, 59, 127
1, 30989, Note_off_c, 1, 66, 0
1, 31019, Note_off_c, 1, 85, 0
1, 31019, Note_off_c, 1, 76, 0
1, 31020, Note_on_c, 1, 83, 127
1, 31020, Note_on_c, 1, 74, 127
1, 31049, Note_off_c, 1, 83, 0
1, 31049, Note_off_c, 1, 74, 0
1, 31050, Note_on_c, 1, 82, 127
1, 31050, Note_on_c, 1, 73, 127
1, 31079, Note_off_c, 1, 59, 0
1, 31079, Note_off_c, 1, 82, 0
1, 31079, Note_off_c, 1, 73, 0
1, 31080, Note_on_c, 1, 66, 127
1, 31080, Note_on_c, 1, 83, 127
1, 31080, Note_on_c, 1, 74, 127
1, 31080, Note_on_c, 1, 78, 127
1, 31080, Note_on_c, 1, 71, 127
1, 31109, Note_off_c, 1, 78, 0
1, 31109, Note_off_c, 1, 71, 0
1, 31110, Note_on_c, 1, 79, 127
1, 31110, Note_on_c, 1, 76, 127
1, 31139, Note_off_c, 1, 66, 0
1, 31139, Note_off_c, 1, 83, 0
1, 31139, Note_off_c, 1, 74, 0
1, 31139, Note_off_c, 1, 79, 0
1, 31139, Note_off_c, 1, 76, 0
1, 31140, Note_on_c, 1, 81, 127
1, 31140, Note_on_c, 1, 78, 127
1, 31140, Note_on_c, 1, 71, 127
1, 31140, Note_on_c, 1, 51, 127
1, 31169, Note_off_c, 1, 81, 0
1, 31169, Note_off_c, 1, 78, 0
1, 31169, Note_off_c, 1, 71, 0
1, 31169, Note_off_c, 1, 51, 0
1, 31170, Note_on_c, 1, 52, 127
1, 31199, Note_off_c, 1, 52, 0
1, 31200, Note_on_c, 1, 81, 127
1, 31200, Note_on_c, 1, 78, 127
1, 31200, Note_on_c, 1, 71, 127
1, 31200, Note_on_c, 1, 51, 127
1, 31229, Note_off_c, 1, 81, 0
1, 31229, Note_off_c, 1, 78, 0
1, 31229, Note_off_c, 1, 71, 0
1, 31229, Note_off_c, 1, 51, 0
1, 31230, Note_on_c, 1, 49, 127
1, 31259, Note_off_c, 1, 49, 0
1, 31260, Note_on_c, 1, 81, 127
1, 31260, Note_on_c, 1, 78, 127
1, 31260, Note_on_c, 1, 71, 127
1, 31260, Note_on_c, 1, 51, 127
1, 31289, Note_off_c, 1, 81, 0
1, 31289, Note_off_c, 1, 78, 0
1, 31289, Note_off_c, 1, 71, 0
1, 31289, Note_off_c, 1, 51, 0
1, 31290, Note_on_c, 1, 47, 127
1, 31319, Note_off_c, 1, 47, 0
1, 31320, Note_on_c, 1, 81, 127
1, 31320, Note_on_c, 1, 78, 127
1, 31320, Note_on_c, 1, 71, 127
1, 31320, Note_on_c, 1, 52, 127
1, 31349, Note_off_c, 1, 71, 0
1, 31350, Note_on_c, 1, 72, 127
1, 31379, Note_off_c, 1, 81, 0
1, 31379, Note_off_c, 1, 78, 0
1, 31379, Note_off_c, 1, 52, 0
1, 31379, Note_off_c, 1, 72, 0
1, 31380, Note_on_c, 1, 79, 127
1, 31380, Note_on_c, 1, 76, 127
1, 31380, Note_on_c, 1, 71, 127
1, 31380, Note_on_c, 1, 40, 127
1, 31409, Note_off_c, 1, 79, 0
1, 31409, Note_off_c, 1, 76, 0
1, 31409, Note_off_c, 1, 71, 0
1, 31410, Note_on_c, 1, 78, 127
1, 31410, Note_on_c, 1, 75, 127
1, 31410, Note_on_c, 1, 69, 127
1, 31439, Note_off_c, 1, 40, 0
1, 31439, Note_off_c, 1, 78, 0
1, 31439, Note_off_c, 1, 75, 0
1, 31439, Note_off_c, 1, 69, 0
1, 31440, Note_on_c, 1, 79, 127
1, 31440, Note_on_c, 1, 76, 127
1, 31440, Note_on_c, 1, 71, 127
1, 31440, Note_on_c, 1, 52, 127
1, 31469, Note_off_c, 1, 79, 0
1, 31469, Note_off_c, 1, 76, 0
1, 31469, Note_off_c, 1, 71, 0
1, 31470, Note_on_c, 1, 67, 127
1, 31499, Note_off_c, 1, 67, 0
1, 31500, Note_on_c, 1, 72, 127
1, 31500, Note_on_c, 1, 64, 127
1, 31529, Note_off_c, 1, 52, 0
1, 31530, Note_on_c, 1, 55, 127
1, 31559, Note_off_c, 1, 72, 0
1, 31559, Note_off_c, 1, 64, 0
1, 31559, Note_off_c, 1, 55, 0
1, 31560, Note_on_c, 1, 81, 127
1, 31560, Note_on_c, 1, 69, 127
1, 31560, Note_on_c, 1, 62, 127
1, 31560, Note_on_c, 1, 54, 127
1, 31589, Note_off_c, 1, 69, 0
1, 31589, Note_off_c, 1, 54, 0
1, 31590, Note_on_c, 1, 67, 127
1, 31590, Note_on_c, 1, 52, 127
1, 31619, Note_off_c, 1, 81, 0
1, 31619, Note_off_c, 1, 62, 0
1, 31619, Note_off_c, 1, 67, 0
1, 31619, Note_off_c, 1, 52, 0
1, 31620, Note_on_c, 1, 72, 127
1, 31620, Note_on_c, 1, 69, 127
1, 31620, Note_on_c, 1, 62, 127
1, 31620, Note_on_c, 1, 54, 127
1, 31649, Note_off_c, 1, 69, 0
1, 31649, Note_off_c, 1, 54, 0
1, 31650, Note_on_c, 1, 66, 127
1, 31650, Note_on_c, 1, 50, 127
1, 31679, Note_off_c, 1, 72, 0
1, 31679, Note_off_c, 1, 62, 0
1, 31679, Note_off_c, 1, 66, 0
1, 31679, Note_off_c, 1, 50, 0
1, 31680, Note_on_c, 1, 72, 127
1, 31680, Note_on_c, 1, 67, 127
1, 31680, Note_on_c, 1, 62, 127
1, 31680, Note_on_c, 1, 55, 127
1, 31695, Note_off_c, 1, 72, 0
1, 31695, Note_on_c, 1, 74, 127
1, 31709, Note_off_c, 1, 67, 0
1, 31709, Note_off_c, 1, 62, 0
1, 31709, Note_off_c, 1, 55, 0
1, 31710, Note_off_c, 1, 74, 0
1, 31710, Note_on_c, 1, 57, 127
1, 31739, Note_off_c, 1, 57, 0
1, 31740, Note_on_c, 1, 71, 127
1, 31770, Note_on_c, 1, 54, 127
1, 31799, Note_off_c, 1, 71, 0
1, 31799, Note_off_c, 1, 54, 0
1, 31800, Note_on_c, 1, 73, 127
1, 31800, Note_on_c, 1, 64, 127
1, 31800, Note_on_c, 1, 52, 127
1, 31829, Note_off_c, 1, 73, 0
1, 31829, Note_off_c, 1, 64, 0
1, 31829, Note_off_c, 1, 52, 0
1, 31830, Note_on_c, 1, 74, 127
1, 31830, Note_on_c, 1, 66, 127
1, 31830, Note_on_c, 1, 50, 127
1, 31859, Note_off_c, 1, 74, 0
1, 31859, Note_off_c, 1, 66, 0
1, 31859, Note_off_c, 1, 50, 0
1, 31860, Note_on_c, 1, 76, 127
1, 31860, Note_on_c, 1, 67, 127
1, 31860, Note_on_c, 1, 49, 127
1, 31889, Note_off_c, 1, 76, 0
1, 31889, Note_off_c, 1, 67, 0
1, 31889, Note_off_c, 1, 49, 0
1, 31890, Note_on_c, 1, 47, 127
1, 31919, Note_off_c, 1, 47, 0
1, 31920, Note_on_c, 1, 85, 127
1, 31920, Note_on_c, 1, 76, 127
1, 31920, Note_on_c, 1, 46, 127
1, 31949, Note_off_c, 1, 85, 0
1, 31949, Note_off_c, 1, 76, 0
1, 31949, Note_off_c, 1, 46, 0
1, 31950, Note_on_c, 1, 44, 127
1, 31979, Note_off_c, 1, 44, 0
1, 31980, Note_on_c, 1, 76, 127
1, 31980, Note_on_c, 1, 73, 127
1, 31980, Note_on_c, 1, 46, 127
1, 32009, Note_off_c, 1, 76, 0
1, 32009, Note_off_c, 1, 73, 0
1, 32009, Note_off_c, 1, 46, 0
1, 32010, Note_on_c, 1, 42, 127
1, 32039, Note_off_c, 1, 42, 0
1, 32040, Note_on_c, 1, 76, 127
1, 32040, Note_on_c, 1, 73, 127
1, 32040, Note_on_c, 1, 47, 127
1, 32055, Note_off_c, 1, 76, 0
1, 32055, Note_off_c, 1, 73, 0
1, 32055, Note_on_c, 1, 78, 127
1, 32055, Note_on_c, 1, 74, 127
1, 32069, Note_off_c, 1, 47, 0
1, 32070, Note_off_c, 1, 78, 0
1, 32070, Note_off_c, 1, 74, 0
1, 32070, Note_on_c, 1, 54, 127
1, 32099, Note_off_c, 1, 54, 0
1, 32100, Note_on_c, 1, 71, 127
1, 32100, Note_on_c, 1, 59, 127
1, 32129, Note_off_c, 1, 59, 0
1, 32130, Note_on_c, 1, 57, 127
1, 32159, Note_off_c, 1, 71, 0
1, 32159, Note_off_c, 1, 57, 0
1, 32160, Note_on_c, 1, 76, 127
1, 32160, Note_on_c, 1, 73, 127
1, 32160, Note_on_c, 1, 55, 127
1, 32189, Note_off_c, 1, 76, 0
1, 32189, Note_off_c, 1, 73, 0
1, 32189, Note_off_c, 1, 55, 0
1, 32190, Note_on_c, 1, 78, 127
1, 32190, Note_on_c, 1, 74, 127
1, 32190, Note_on_c, 1, 54, 127
1, 32219, Note_off_c, 1, 78, 0
1, 32219, Note_off_c, 1, 74, 0
1, 32219, Note_off_c, 1, 54, 0
1, 32220, Note_on_c, 1, 79, 127
1, 32220, Note_on_c, 1, 76, 127
1, 32220, Note_on_c, 1, 52, 127
1, 32249, Note_off_c, 1, 79, 0
1, 32249, Note_off_c, 1, 76, 0
1, 32249, Note_off_c, 1, 52, 0
1, 32250, Note_on_c, 1, 50, 127
1, 32279, Note_off_c, 1, 50, 0
1, 32280, Note_on_c, 1, 88, 127
1, 32280, Note_on_c, 1, 79, 127
1, 32280, Note_on_c, 1, 49, 127
1, 32309, Note_off_c, 1, 88, 0
1, 32309, Note_off_c, 1, 79, 0
1, 32309, Note_off_c, 1, 49, 0
1, 32310, Note_on_c, 1, 47, 127
1, 32339, Note_off_c, 1, 47, 0
1, 32340, Note_on_c, 1, 79, 127
1, 32340, Note_on_c, 1, 76, 127
1, 32340, Note_on_c, 1, 49, 127
1, 32369, Note_off_c, 1, 79, 0
1, 32369, Note_off_c, 1, 76, 0
1, 32369, Note_off_c, 1, 49, 0
1, 32370, Note_on_c, 1, 45, 127
1, 32399, Note_off_c, 1, 45, 0
1, 32400, Note_on_c, 1, 79, 127
1, 32400, Note_on_c, 1, 76, 127
1, 32400, Note_on_c, 1, 50, 127
1, 32415, Note_off_c, 1, 79, 0
1, 32415, Note_off_c, 1, 76, 0
1, 32415, Note_on_c, 1, 81, 127
1, 32415, Note_on_c, 1, 78, 127
1, 32430, Note_off_c, 1, 81, 0
1, 32430, Note_off_c, 1, 78, 0
1, 32459, Note_off_c, 1, 50, 0
1, 32460, Note_on_c, 1, 74, 127
1, 32460, Note_on_c, 1, 69, 127
1, 32460, Note_on_c, 1, 62, 127
1, 32489, Note_off_c, 1, 74, 0
1, 32489, Note_off_c, 1, 69, 0
1, 32490, Note_on_c, 1, 67, 127
1, 32519, Note_off_c, 1, 62, 0
1, 32519, Note_off_c, 1, 67, 0
1, 32520, Note_on_c, 1, 78, 127
1, 32520, Note_on_c, 1, 69, 127
1, 32520, Note_on_c, 1, 50, 127
1, 32549, Note_off_c, 1, 78, 0
1, 32550, Note_on_c, 1, 74, 127
1, 32550, Note_on_c, 1, 66, 127
1, 32579, Note_off_c, 1, 69, 0
1, 32579, Note_off_c, 1, 50, 0
1, 32579, Note_off_c, 1, 74, 0
1, 32579, Note_off_c, 1, 66, 0
1, 32580, Note_on_c, 1, 76, 127
1, 32580, Note_on_c, 1, 68, 127
1, 32580, Note_on_c, 1, 71, 127
1, 32580, Note_on_c, 1, 50, 127
1, 32639, Note_off_c, 1, 76, 0
1, 32639, Note_off_c, 1, 68, 0
1, 32639, Note_off_c, 1, 71, 0
1, 32639, Note_off_c, 1, 50, 0
1, 32640, Note_on_c, 1, 81, 127
1, 32640, Note_on_c, 1, 64, 127
1, 32640, Note_on_c, 1, 69, 127
1, 32640, Note_on_c, 1, 49, 127
1, 32669, Note_off_c, 1, 81, 0
1, 32669, Note_off_c, 1, 49, 0
1, 32670, Note_on_c, 1, 80, 127
1, 32670, Note_on_c, 1, 47, 127
1, 32699, Note_off_c, 1, 64, 0
1, 32699, Note_off_c, 1, 69, 0
1, 32699, Note_off_c, 1, 80, 0
1, 32699, Note_off_c, 1, 47, 0
1, 32700, Note_on_c, 1, 81, 127
1, 32700, Note_on_c, 1, 76, 127
1, 32700, Note_on_c, 1, 73, 127
1, 32700, Note_on_c, 1, 49, 127
1, 32729, Note_off_c, 1, 49, 0
1, 32730, Note_on_c, 1, 50, 127
1, 32759, Note_off_c, 1, 73, 0
1, 32759, Note_off_c, 1, 50, 0
1, 32760, Note_on_c, 1, 71, 127
1, 32760, Note_on_c, 1, 52, 127
1, 32819, Note_off_c, 1, 81, 0
1, 32819, Note_off_c, 1, 76, 0
1, 32819, Note_off_c, 1, 71, 0
1, 32819, Note_off_c, 1, 52, 0
1, 32820, Note_on_c, 1, 79, 127
1, 32820, Note_on_c, 1, 71, 127
1, 32820, Note_on_c, 1, 64, 127
1, 32820, Note_on_c, 1, 52, 127
1, 32849, Note_off_c, 1, 79, 0
1, 32849, Note_off_c, 1, 71, 0
1, 32850, Note_on_c, 1, 78, 127
1, 32850, Note_on_c, 1, 70, 127
1, 32879, Note_off_c, 1, 64, 0
1, 32879, Note_off_c, 1, 52, 0
1, 32879, Note_off_c, 1, 78, 0
1, 32879, Note_off_c, 1, 70, 0
1, 32880, Note_on_c, 1, 79, 127
1, 32880, Note_on_c, 1, 71, 127
1, 32880, Note_on_c, 1, 52, 127
1, 32909, Note_off_c, 1, 79, 0
1, 32910, Note_on_c, 1, 76, 127
1, 32910, Note_on_c, 1, 73, 127
1, 32939, Note_off_c, 1, 71, 0
1, 32939, Note_off_c, 1, 52, 0
1, 32939, Note_off_c, 1, 76, 0
1, 32939, Note_off_c, 1, 73, 0
1, 32940, Note_on_c, 1, 78, 127
1, 32940, Note_on_c, 1, 70, 127
1, 32940, Note_on_c, 1, 73, 127
1, 32940, Note_on_c, 1, 52, 127
1, 32999, Note_off_c, 1, 78, 0
1, 32999, Note_off_c, 1, 70, 0
1, 32999, Note_off_c, 1, 73, 0
1, 32999, Note_off_c, 1, 52, 0
1, 33000, Note_on_c, 1, 83, 127
1, 33000, Note_on_c, 1, 66, 127
1, 33000, Note_on_c, 1, 71, 127
1, 33000, Note_on_c, 1, 50, 127
1, 33029, Note_off_c, 1, 83, 0
1, 33029, Note_off_c, 1, 50, 0
1, 33030, Note_on_c, 1, 82, 127
1, 33030, Note_on_c, 1, 49, 127
1, 33059, Note_off_c, 1, 66, 0
1, 33059, Note_off_c, 1, 71, 0
1, 33059, Note_off_c, 1, 82, 0
1, 33059, Note_off_c, 1, 49, 0
1, 33060, Note_on_c, 1, 83, 127
1, 33060, Note_on_c, 1, 78, 127
1, 33060, Note_on_c, 1, 59, 127
1, 33060, Note_on_c, 1, 50, 127
1, 33089, Note_off_c, 1, 50, 0
1, 33090, Note_on_c, 1, 52, 127
1, 33119, Note_off_c, 1, 59, 0
1, 33119, Note_off_c, 1, 52, 0
1, 33120, Note_on_c, 1, 61, 127
1, 33120, Note_on_c, 1, 54, 127
1, 33179, Note_off_c, 1, 83, 0
1, 33179, Note_off_c, 1, 78, 0
1, 33179, Note_off_c, 1, 61, 0
1, 33179, Note_off_c, 1, 54, 0
1, 33180, Note_on_c, 1, 82, 127
1, 33180, Note_on_c, 1, 73, 127
1, 33180, Note_on_c, 1, 66, 127
1, 33180, Note_on_c, 1, 52, 127
1, 33209, Note_off_c, 1, 82, 0
1, 33209, Note_off_c, 1, 73, 0
1, 33210, Note_on_c, 1, 80, 127
1, 33210, Note_on_c, 1, 71, 127
1, 33239, Note_off_c, 1, 66, 0
1, 33239, Note_off_c, 1, 52, 0
1, 33239, Note_off_c, 1, 80, 0
1, 33239, Note_off_c, 1, 71, 0
1, 33240, Note_on_c, 1, 78, 127
1, 33240, Note_on_c, 1, 70, 127
1, 33240, Note_on_c, 1, 66, 127
1, 33240, Note_on_c, 1, 54, 127
1, 33269, Note_off_c, 1, 78, 0
1, 33269, Note_off_c, 1, 70, 0
1, 33270, Note_on_c, 1, 76, 127
1, 33270, Note_on_c, 1, 73, 127
1, 33299, Note_off_c, 1, 66, 0
1, 33299, Note_off_c, 1, 54, 0
1, 33299, Note_off_c, 1, 76, 0
1, 33299, Note_off_c, 1, 73, 0
1, 33300, Note_on_c, 1, 74, 127
1, 33300, Note_on_c, 1, 71, 127
1, 33300, Note_on_c, 1, 66, 127
1, 33300, Note_on_c, 1, 59, 127
1, 33300, Note_on_c, 1, 47, 127
1, 33329, Note_off_c, 1, 47, 0
1, 33330, Note_on_c, 1, 78, 127
1, 33330, Note_on_c, 1, 45, 127
1, 33359, Note_off_c, 1, 74, 0
1, 33359, Note_off_c, 1, 71, 0
1, 33359, Note_off_c, 1, 66, 0
1, 33359, Note_off_c, 1, 59, 0
1, 33359, Note_off_c, 1, 78, 0
1, 33359, Note_off_c, 1, 45, 0
1, 33360, Note_on_c, 1, 83, 127
1, 33360, Note_on_c, 1, 66, 127
1, 33360, Note_on_c, 1, 62, 127
1, 33360, Note_on_c, 1, 78, 127
1, 33360, Note_on_c, 1, 47, 127
1, 33389, Note_off_c, 1, 47, 0
1, 33390, Note_on_c, 1, 49, 127
1, 33419, Note_off_c, 1, 83, 0
1, 33419, Note_off_c, 1, 66, 0
1, 33419, Note_off_c, 1, 62, 0
1, 33419, Note_off_c, 1, 78, 0
1, 33419, Note_off_c, 1, 49, 0
1, 33420, Note_on_c, 1, 74, 127
1, 33420, Note_on_c, 1, 71, 127
1, 33420, Note_on_c, 1, 66, 127
1, 33420, Note_on_c, 1, 59, 127
1, 33420, Note_on_c, 1, 45, 127
1, 33449, Note_off_c, 1, 45, 0
1, 33450, Note_on_c, 1, 47, 127
1, 33479, Note_off_c, 1, 66, 0
1, 33479, Note_off_c, 1, 59, 0
1, 33479, Note_off_c, 1, 47, 0
1, 33480, Note_on_c, 1, 64, 127
1, 33480, Note_on_c, 1, 56, 127
1, 33480, Note_on_c, 1, 44, 127
1, 33509, Note_off_c, 1, 74, 0
1, 33509, Note_off_c, 1, 71, 0
1, 33509, Note_off_c, 1, 44, 0
1, 33510, Note_on_c, 1, 73, 127
1, 33510, Note_on_c, 1, 69, 127
1, 33510, Note_on_c, 1, 54, 127
1, 33539, Note_off_c, 1, 64, 0
1, 33539, Note_off_c, 1, 56, 0
1, 33539, Note_off_c, 1, 73, 0
1, 33539, Note_off_c, 1, 69, 0
1, 33539, Note_off_c, 1, 54, 0
1, 33540, Note_on_c, 1, 74, 127
1, 33540, Note_on_c, 1, 71, 127
1, 33540, Note_on_c, 1, 56, 127
1, 33540, Note_on_c, 1, 52, 127
1, 33570, Note_on_c, 1, 54, 127
1, 33599, Note_off_c, 1, 74, 0
1, 33599, Note_off_c, 1, 56, 0
1, 33599, Note_off_c, 1, 52, 0
1, 33599, Note_off_c, 1, 54, 0
1, 33600, Note_on_c, 1, 64, 127
1, 33600, Note_on_c, 1, 50, 127
1, 33659, Note_off_c, 1, 50, 0
1, 33660, Note_on_c, 1, 49, 127
1, 33690, Note_on_c, 1, 66, 127
1, 33690, Note_on_c, 1, 47, 127
1, 33704, Note_off_c, 1, 66, 0
1, 33705, Note_on_c, 1, 68, 127
1, 33719, Note_off_c, 1, 71, 0
1, 33719, Note_off_c, 1, 64, 0
1, 33719, Note_off_c, 1, 49, 0
1, 33719, Note_off_c, 1, 47, 0
1, 33719, Note_off_c, 1, 68, 0
1, 33720, Note_on_c, 1, 69, 127
1, 33720, Note_on_c, 1, 52, 127
1, 33720, Note_on_c, 1, 76, 127
1, 33720, Note_on_c, 1, 64, 127
1, 33720, Note_on_c, 1, 61, 127
1, 33720, Note_on_c, 1, 49, 127
1, 33749, Note_off_c, 1, 49, 0
1, 33750, Note_on_c, 1, 71, 127
1, 33750, Note_on_c, 1, 50, 127
1, 33764, Note_off_c, 1, 71, 0
1, 33765, Note_on_c, 1, 73, 127
1, 33779, Note_off_c, 1, 69, 0
1, 33779, Note_off_c, 1, 52, 0
1, 33779, Note_off_c, 1, 76, 0
1, 33779, Note_off_c, 1, 64, 0
1, 33779, Note_off_c, 1, 61, 0
1, 33779, Note_off_c, 1, 50, 0
1, 33779, Note_off_c, 1, 73, 0
1, 33780, Note_on_c, 1, 74, 127
1, 33780, Note_on_c, 1, 68, 127
1, 33780, Note_on_c, 1, 59, 127
1, 33780, Note_on_c, 1, 64, 127
1, 33780, Note_on_c, 1, 47, 127
1, 33809, Note_off_c, 1, 47, 0
1, 33810, Note_on_c, 1, 49, 127
1, 33839, Note_off_c, 1, 68, 0
1, 33839, Note_off_c, 1, 59, 0
1, 33839, Note_off_c, 1, 64, 0
1, 33839, Note_off_c, 1, 49, 0
1, 33840, Note_on_c, 1, 69, 127
1, 33840, Note_on_c, 1, 57, 127
1, 33840, Note_on_c, 1, 45, 127
1, 33869, Note_off_c, 1, 45, 0
1, 33870, Note_on_c, 1, 73, 127
1, 33884, Note_off_c, 1, 73, 0
1, 33885, Note_on_c, 1, 71, 127
1, 33899, Note_off_c, 1, 74, 0
1, 33899, Note_off_c, 1, 69, 0
1, 33899, Note_off_c, 1, 57, 0
1, 33899, Note_off_c, 1, 71, 0
1, 33900, Note_on_c, 1, 73, 127
1, 33900, Note_on_c, 1, 64, 127
1, 33900, Note_on_c, 1, 69, 127
1, 33900, Note_on_c, 1, 45, 127
1, 33900, Note_on_c, 1, 55, 127
1, 33929, Note_off_c, 1, 55, 0
1, 33930, Note_on_c, 1, 57, 127
1, 33945, Note_on_c, 1, 71, 127
1, 33959, Note_off_c, 1, 73, 0
1, 33959, Note_off_c, 1, 64, 0
1, 33959, Note_off_c, 1, 69, 0
1, 33959, Note_off_c, 1, 45, 0
1, 33959, Note_off_c, 1, 57, 0
1, 33959, Note_off_c, 1, 71, 0
1, 33960, Note_on_c, 1, 73, 127
1, 33960, Note_on_c, 1, 64, 127
1, 33960, Note_on_c, 1, 69, 127
1, 33960, Note_on_c, 1, 54, 127
1, 33989, Note_off_c, 1, 73, 0
1, 33989, Note_off_c, 1, 54, 0
1, 33990, Note_on_c, 1, 55, 127
1, 34005, Note_on_c, 1, 71, 127
1, 34019, Note_off_c, 1, 64, 0
1, 34019, Note_off_c, 1, 69, 0
1, 34019, Note_off_c, 1, 55, 0
1, 34019, Note_off_c, 1, 71, 0
1, 34020, Note_on_c, 1, 73, 127
1, 34020, Note_on_c, 1, 64, 127
1, 34020, Note_on_c, 1, 67, 127
1, 34020, Note_on_c, 1, 79, 127
1, 34020, Note_on_c, 1, 52, 127
1, 34050, Note_on_c, 1, 76, 127
1, 34050, Note_on_c, 1, 50, 127
1, 34079, Note_off_c, 1, 73, 0
1, 34079, Note_off_c, 1, 64, 0
1, 34079, Note_off_c, 1, 79, 0
1, 34079, Note_off_c, 1, 52, 0
1, 34079, Note_off_c, 1, 76, 0
1, 34079, Note_off_c, 1, 50, 0
1, 34109, Note_off_c, 1, 67, 0
1, 34110, Note_on_c, 1, 74, 127
1, 34110, Note_on_c, 1, 69, 127
1, 34110, Note_on_c, 1, 78, 127
1, 34110, Note_on_c, 1, 54, 127
1, 34139, Note_off_c, 1, 74, 0
1, 34139, Note_off_c, 1, 69, 0
1, 34139, Note_off_c, 1, 78, 0
1, 34139, Note_off_c, 1, 54, 0
1, 34140, Note_on_c, 1, 71, 127
1, 34199, Note_off_c, 1, 71, 0
1, 34200, Note_on_c, 1, 49, 127
1, 34230, Note_on_c, 1, 59, 127
1, 34259, Note_off_c, 1, 49, 0
1, 34259, Note_off_c, 1, 59, 0
1, 34260, Note_on_c, 1, 67, 127
1, 34260, Note_on_c, 1, 73, 127
1, 34260, Note_on_c, 1, 64, 127
1, 34260, Note_on_c, 1, 76, 127
1, 34260, Note_on_c, 1, 69, 127
1, 34260, Note_on_c, 1, 45, 127
1, 34260, Note_on_c, 1, 57, 127
1, 34289, Note_off_c, 1, 67, 0
1, 34289, Note_off_c, 1, 57, 0
1, 34290, Note_on_c, 1, 59, 127
1, 34319, Note_off_c, 1, 73, 0
1, 34319, Note_off_c, 1, 64, 0
1, 34319, Note_off_c, 1, 76, 0
1, 34319, Note_off_c, 1, 45, 0
1, 34319, Note_off_c, 1, 59, 0
1, 34320, Note_on_c, 1, 55, 127
1, 34379, Note_off_c, 1, 55, 0
1, 34380, Note_on_c, 1, 74, 127
1, 34380, Note_on_c, 1, 66, 127
1, 34380, Note_on_c, 1, 54, 127
1, 34410, Note_on_c, 1, 71, 127
1, 34410, Note_on_c, 1, 52, 127
1, 34424, Note_off_c, 1, 71, 0
1, 34439, Note_off_c, 1, 69, 0
1, 34439, Note_off_c, 1, 74, 0
1, 34439, Note_off_c, 1, 66, 0
1, 34439, Note_off_c, 1, 54, 0
1, 34439, Note_off_c, 1, 52, 0
1, 34440, Note_on_c, 1, 74, 127
1, 34440, Note_on_c, 1, 57, 127
1, 34440, Note_on_c, 1, 81, 127
1, 34440, Note_on_c, 1, 54, 127
1, 34470, Note_on_c, 1, 76, 127
1, 34470, Note_on_c, 1, 55, 127
1, 34484, Note_off_c, 1, 76, 0
1, 34485, Note_on_c, 1, 78, 127
1, 34499, Note_off_c, 1, 74, 0
1, 34499, Note_off_c, 1, 57, 0
1, 34499, Note_off_c, 1, 81, 0
1, 34499, Note_off_c, 1, 54, 0
1, 34499, Note_off_c, 1, 55, 0
1, 34499, Note_off_c, 1, 78, 0
1, 34500, Note_on_c, 1, 79, 127
1, 34500, Note_on_c, 1, 73, 127
1, 34500, Note_on_c, 1, 64, 127
1, 34500, Note_on_c, 1, 57, 127
1, 34500, Note_on_c, 1, 52, 127
1, 34530, Note_on_c, 1, 81, 127
1, 34530, Note_on_c, 1, 54, 127
1, 34544, Note_off_c, 1, 81, 0
1, 34559, Note_off_c, 1, 79, 0
1, 34559, Note_off_c, 1, 73, 0
1, 34559, Note_off_c, 1, 64, 0
1, 34559, Note_off_c, 1, 57, 0
1, 34559, Note_off_c, 1, 52, 0
1, 34559, Note_off_c, 1, 54, 0
1, 34560, Note_on_c, 1, 78, 127
1, 34560, Note_on_c, 1, 74, 127
1, 34560, Note_on_c, 1, 69, 127
1, 34560, Note_on_c, 1, 57, 127
1, 34560, Note_on_c, 1, 50, 127
1, 34574, Note_off_c, 1, 69, 0
1, 34590, Note_on_c, 1, 80, 127
1, 34604, Note_off_c, 1, 80, 0
1, 34605, Note_on_c, 1, 82, 127
1, 34619, Note_off_c, 1, 57, 0
1, 34619, Note_off_c, 1, 50, 0
1, 34619, Note_off_c, 1, 82, 0
1, 34620, Note_on_c, 1, 83, 127
1, 34620, Note_on_c, 1, 62, 127
1, 34620, Note_on_c, 1, 66, 127
1, 34649, Note_off_c, 1, 83, 0
1, 34679, Note_off_c, 1, 62, 0
1, 34679, Note_off_c, 1, 66, 0
1, 34680, Note_on_c, 1, 85, 127
1, 34680, Note_on_c, 1, 64, 127
1, 34680, Note_on_c, 1, 61, 127
1, 34709, Note_off_c, 1, 85, 0
1, 34739, Note_off_c, 1, 64, 0
1, 34739, Note_off_c, 1, 61, 0
1, 34740, Note_on_c, 1, 86, 127
1, 34740, Note_on_c, 1, 59, 127
1, 34769, Note_off_c, 1, 74, 0
1, 34770, Note_on_c, 1, 71, 127
1, 34770, Note_on_c, 1, 58, 127
1, 34784, Note_off_c, 1, 71, 0
1, 34785, Note_on_c, 1, 73, 127
1, 34799, Note_off_c, 1, 78, 0
1, 34799, Note_off_c, 1, 86, 0
1, 34799, Note_off_c, 1, 58, 0
1, 34799, Note_off_c, 1, 73, 0
1, 34800, Note_on_c, 1, 68, 127
1, 34815, Note_on_c, 1, 76, 127
1, 34829, Note_off_c, 1, 68, 0
1, 34829, Note_off_c, 1, 76, 0
1, 34830, Note_on_c, 1, 70, 127
1, 34859, Note_off_c, 1, 59, 0
1, 34859, Note_off_c, 1, 70, 0
1, 34860, Note_on_c, 1, 56, 127
1, 34875, Note_on_c, 1, 54, 127
1, 34889, Note_off_c, 1, 54, 0
1, 34890, Note_on_c, 1, 52, 127
1, 34904, Note_off_c, 1, 52, 0
1, 34919, Note_off_c, 1, 56, 0
1, 34920, Note_on_c, 1, 49, 127
1, 34979, Note_off_c, 1, 49, 0
1, 34980, Note_on_c, 1, 67, 127
1, 35009, Note_off_c, 1, 67, 0
1, 35280, Note_on_c, 1, 47, 127
1, 35310, Note_on_c, 1, 77, 127
1, 35324, Note_off_c, 1, 77, 0
1, 35325, Note_on_c, 1, 63, 127
1, 35339, Note_off_c, 1, 47, 0
1, 35339, Note_off_c, 1, 63, 0
1, 35340, Note_on_c, 1, 80, 127
1, 35340, Note_on_c, 1, 73, 127
1, 35340, Note_on_c, 1, 65, 127
1, 35340, Note_on_c, 1, 64, 127
1, 35340, Note_on_c, 1, 56, 127
1, 35340, Note_on_c, 1, 59, 127
1, 35354, Note_off_c, 1, 64, 0
1, 35355, Note_on_c, 1, 61, 127
1, 35369, Note_off_c, 1, 80, 0
1, 35369, Note_off_c, 1, 61, 0
1, 35370, Note_on_c, 1, 78, 127
1, 35370, Note_on_c, 1, 63, 127
1, 35384, Note_off_c, 1, 78, 0
1, 35384, Note_off_c, 1, 63, 0
1, 35399, Note_off_c, 1, 65, 0
1, 35399, Note_off_c, 1, 56, 0
1, 35399, Note_off_c, 1, 59, 0
1, 35400, Note_on_c, 1, 81, 127
1, 35400, Note_on_c, 1, 66, 127
1, 35400, Note_on_c, 1, 57, 127
1, 35429, Note_off_c, 1, 81, 0
1, 35459, Note_off_c, 1, 73, 0
1, 35459, Note_off_c, 1, 66, 0
1, 35459, Note_off_c, 1, 57, 0
1, 35460, Note_on_c, 1, 83, 127
1, 35460, Note_on_c, 1, 71, 127
1, 35460, Note_on_c, 1, 68, 127
1, 35460, Note_on_c, 1, 65, 127
1, 35460, Note_on_c, 1, 56, 127
1, 35489, Note_off_c, 1, 83, 0
1, 35490, Note_on_c, 1, 81, 127
1, 35490, Note_on_c, 1, 66, 127
1, 35504, Note_off_c, 1, 66, 0
1, 35519, Note_off_c, 1, 71, 0
1, 35519, Note_off_c, 1, 68, 0
1, 35519, Note_off_c, 1, 65, 0
1, 35519, Note_off_c, 1, 56, 0
1, 35519, Note_off_c, 1, 81, 0
1, 35520, Note_on_c, 1, 81, 127
1, 35520, Note_on_c, 1, 73, 127
1, 35520, Note_on_c, 1, 66, 127
1, 35520, Note_on_c, 1, 69, 127
1, 35520, Note_on_c, 1, 51, 127
1, 35549, Note_off_c, 1, 81, 0
1, 35549, Note_off_c, 1, 73, 0
1, 35549, Note_off_c, 1, 69, 0
1, 35550, Note_on_c, 1, 80, 127
1, 35550, Note_on_c, 1, 71, 127
1, 35550, Note_on_c, 1, 68, 127
1, 35579, Note_off_c, 1, 66, 0
1, 35579, Note_off_c, 1, 51, 0
1, 35579, Note_off_c, 1, 80, 0
1, 35579, Note_off_c, 1, 71, 0
1, 35579, Note_off_c, 1, 68, 0
1, 35580, Note_on_c, 1, 80, 127
1, 35580, Note_on_c, 1, 71, 127
1, 35580, Note_on_c, 1, 74, 127
1, 35580, Note_on_c, 1, 62, 127
1, 35580, Note_on_c, 1, 68, 127
1, 35580, Note_on_c, 1, 54, 127
1, 35610, Note_on_c, 1, 69, 127
1, 35624, Note_off_c, 1, 69, 0
1, 35639, Note_off_c, 1, 74, 0
1, 35639, Note_off_c, 1, 62, 0
1, 35639, Note_off_c, 1, 68, 0
1, 35639, Note_off_c, 1, 54, 0
1, 35640, Note_on_c, 1, 73, 127
1, 35640, Note_on_c, 1, 61, 127
1, 35640, Note_on_c, 1, 53, 127
1, 35654, Note_off_c, 1, 73, 0
1, 35669, Note_off_c, 1, 80, 0
1, 35699, Note_off_c, 1, 71, 0
1, 35699, Note_off_c, 1, 61, 0
1, 35699, Note_off_c, 1, 53, 0
1, 35700, Note_on_c, 1, 83, 127
1, 35700, Note_on_c, 1, 75, 127
1, 35700, Note_on_c, 1, 59, 127
1, 35700, Note_on_c, 1, 56, 127
1, 35714, Note_off_c, 1, 75, 0
1, 35729, Note_off_c, 1, 83, 0
1, 35730, Note_on_c, 1, 81, 127
1, 35759, Note_off_c, 1, 59, 0
1, 35759, Note_off_c, 1, 56, 0
1, 35759, Note_off_c, 1, 81, 0
1, 35760, Note_on_c, 1, 80, 127
1, 35760, Note_on_c, 1, 77, 127
1, 35760, Note_on_c, 1, 68, 127
1, 35760, Note_on_c, 1, 61, 127
1, 35760, Note_on_c, 1, 59, 127
1, 35775, Note_on_c, 1, 73, 127
1, 35789, Note_off_c, 1, 80, 0
1, 35789, Note_off_c, 1, 73, 0
1, 35790, Note_on_c, 1, 81, 127
1, 35790, Note_on_c, 1, 75, 127
1, 35790, Note_on_c, 1, 69, 127
1, 35804, Note_off_c, 1, 75, 0
1, 35819, Note_off_c, 1, 77, 0
1, 35819, Note_off_c, 1, 68, 0
1, 35819, Note_off_c, 1, 59, 0
1, 35819, Note_off_c, 1, 81, 0
1, 35819, Note_off_c, 1, 69, 0
1, 35820, Note_on_c, 1, 78, 127
1, 35820, Note_on_c, 1, 66, 127
1, 35820, Note_on_c, 1, 57, 127
1, 35849, Note_off_c, 1, 66, 0
1, 35879, Note_off_c, 1, 61, 0
1, 35879, Note_off_c, 1, 78, 0
1, 35879, Note_off_c, 1, 57, 0
1, 35880, Note_on_c, 1, 81, 127
1, 35880, Note_on_c, 1, 73, 127
1, 35880, Note_on_c, 1, 66, 127
1, 35880, Note_on_c, 1, 61, 127
1, 35880, Note_on_c, 1, 69, 127
1, 35880, Note_on_c, 1, 45, 127
1, 35909, Note_off_c, 1, 81, 0
1, 35909, Note_off_c, 1, 73, 0
1, 35909, Note_off_c, 1, 69, 0
1, 35910, Note_on_c, 1, 80, 127
1, 35910, Note_on_c, 1, 71, 127
1, 35910, Note_on_c, 1, 68, 127
1, 35939, Note_off_c, 1, 66, 0
1, 35939, Note_off_c, 1, 61, 0
1, 35939, Note_off_c, 1, 45, 0
1, 35939, Note_off_c, 1, 80, 0
1, 35939, Note_off_c, 1, 71, 0
1, 35939, Note_off_c, 1, 68, 0
1, 35940, Note_on_c, 1, 78, 127
1, 35940, Note_on_c, 1, 69, 127
1, 35940, Note_on_c, 1, 73, 127
1, 35940, Note_on_c, 1, 61, 127
1, 35940, Note_on_c, 1, 66, 127
1, 35940, Note_on_c, 1, 49, 127
1, 35969, Note_off_c, 1, 78, 0
1, 35969, Note_off_c, 1, 69, 0
1, 35969, Note_off_c, 1, 66, 0
1, 35970, Note_on_c, 1, 77, 127
1, 35970, Note_on_c, 1, 68, 127
1, 35970, Note_on_c, 1, 65, 127
1, 35999, Note_off_c, 1, 73, 0
1, 35999, Note_off_c, 1, 61, 0
1, 35999, Note_off_c, 1, 49, 0
1, 35999, Note_off_c, 1, 77, 0
1, 35999, Note_off_c, 1, 68, 0
1, 35999, Note_off_c, 1, 65, 0
1, 36000, Note_on_c, 1, 78, 127
1, 36000, Note_on_c, 1, 66, 127
1, 36000, Note_on_c, 1, 69, 127
1, 36000, Note_on_c, 1, 61, 127
1, 36000, Note_on_c, 1, 57, 127
1, 36000, Note_on_c, 1, 54, 127
1, 36000, Note_on_c, 1, 42, 127
1, 36119, Note_off_c, 1, 57, 0
1, 36119, Note_off_c, 1, 54, 0
1, 36179, Note_off_c, 1, 78, 0
1, 36179, Note_off_c, 1, 66, 0
1, 36179, Note_off_c, 1, 69, 0
1, 36179, Note_off_c, 1, 61, 0
1, 36179, Note_off_c, 1, 42, 0
1, 36300, Note_on_c, 1, 50, 127
1, 36300, Note_on_c, 1, 38, 127
1, 36359, Note_off_c, 1, 50, 0
1, 36359, Note_off_c, 1, 38, 0
1, 36360, Note_on_c, 1, 50, 127
1, 36419, Note_off_c, 1, 50, 0
1, 36420, Note_on_c, 1, 50, 127
1, 36479, Note_off_c, 1, 50, 0
1, 36480, Note_on_c, 1, 50, 127
1, 36510, Note_on_c, 1, 78, 127
1, 36510, Note_on_c, 1, 74, 127
1, 36524, Note_off_c, 1, 78, 0
1, 36524, Note_off_c, 1, 74, 0
1, 36525, Note_on_c, 1, 79, 127
1, 36525, Note_on_c, 1, 76, 127
1, 36539, Note_off_c, 1, 50, 0
1, 36539, Note_off_c, 1, 79, 0
1, 36539, Note_off_c, 1, 76, 0
1, 36540, Note_on_c, 1, 45, 127
1, 36540, Note_on_c, 1, 81, 127
1, 36540, Note_on_c, 1, 78, 127
1, 36554, Note_off_c, 1, 81, 0
1, 36554, Note_off_c, 1, 78, 0
1, 36555, Note_on_c, 1, 79, 127
1, 36555, Note_on_c, 1, 76, 127
1, 36569, Note_off_c, 1, 79, 0
1, 36569, Note_off_c, 1, 76, 0
1, 36599, Note_off_c, 1, 45, 0
1, 36600, Note_on_c, 1, 81, 127
1, 36600, Note_on_c, 1, 78, 127
1, 36614, Note_off_c, 1, 81, 0
1, 36614, Note_off_c, 1, 78, 0
1, 36615, Note_on_c, 1, 79, 127
1, 36615, Note_on_c, 1, 76, 127
1, 36629, Note_off_c, 1, 79, 0
1, 36629, Note_off_c, 1, 76, 0
1, 36630, Note_on_c, 1, 78, 127
1, 36630, Note_on_c, 1, 74, 127
1, 36644, Note_off_c, 1, 78, 0
1, 36644, Note_off_c, 1, 74, 0
1, 36645, Note_on_c, 1, 79, 127
1, 36645, Note_on_c, 1, 76, 127
1, 36659, Note_off_c, 1, 79, 0
1, 36659, Note_off_c, 1, 76, 0
1, 36660, Note_on_c, 1, 50, 127
1, 36660, Note_on_c, 1, 81, 127
1, 36660, Note_on_c, 1, 78, 127
1, 36660, Note_on_c, 1, 38, 127
1, 36689, Note_off_c, 1, 50, 0
1, 36719, Note_off_c, 1, 81, 0
1, 36719, Note_off_c, 1, 78, 0
1, 36719, Note_off_c, 1, 38, 0
1, 36750, Note_on_c, 1, 45, 127
1, 36779, Note_off_c, 1, 45, 0
1, 36780, Note_on_c, 1, 50, 127
1, 36809, Note_off_c, 1, 50, 0
1, 36810, Note_on_c, 1, 45, 127
1, 36839, Note_off_c, 1, 45, 0
1, 36840, Note_on_c, 1, 50, 127
1, 36870, Note_on_c, 1, 74, 127
1, 36870, Note_on_c, 1, 66, 127
1, 36884, Note_off_c, 1, 74, 0
1, 36884, Note_off_c, 1, 66, 0
1, 36885, Note_on_c, 1, 76, 127
1, 36885, Note_on_c, 1, 67, 127
1, 36899, Note_off_c, 1, 50, 0
1, 36899, Note_off_c, 1, 76, 0
1, 36899, Note_off_c, 1, 67, 0
1, 36900, Note_on_c, 1, 45, 127
1, 36900, Note_on_c, 1, 78, 127
1, 36900, Note_on_c, 1, 69, 127
1, 36914, Note_off_c, 1, 78, 0
1, 36914, Note_off_c, 1, 69, 0
1, 36915, Note_on_c, 1, 76, 127
1, 36915, Note_on_c, 1, 67, 127
1, 36929, Note_off_c, 1, 76, 0
1, 36929, Note_off_c, 1, 67, 0
1, 36959, Note_off_c, 1, 45, 0
1, 36960, Note_on_c, 1, 78, 127
1, 36960, Note_on_c, 1, 69, 127
1, 36974, Note_off_c, 1, 78, 0
1, 36974, Note_off_c, 1, 69, 0
1, 36975, Note_on_c, 1, 76, 127
1, 36975, Note_on_c, 1, 67, 127
1, 36989, Note_off_c, 1, 76, 0
1, 36989, Note_off_c, 1, 67, 0
1, 36990, Note_on_c, 1, 74, 127
1, 36990, Note_on_c, 1, 66, 127
1, 37004, Note_off_c, 1, 74, 0
1, 37004, Note_off_c, 1, 66, 0
1, 37005, Note_on_c, 1, 76, 127
1, 37005, Note_on_c, 1, 67, 127
1, 37019, Note_off_c, 1, 76, 0
1, 37019, Note_off_c, 1, 67, 0
1, 37020, Note_on_c, 1, 62, 127
1, 37020, Note_on_c, 1, 50, 127
1, 37020, Note_on_c, 1, 78, 127
1, 37020, Note_on_c, 1, 69, 127
1, 37020, Note_on_c, 1, 38, 127
1, 37034, Note_off_c, 1, 50, 0
1, 37035, Note_on_c, 1, 86, 127
1, 37049, Note_off_c, 1, 62, 0
1, 37049, Note_off_c, 1, 86, 0
1, 37050, Note_on_c, 1, 85, 127
1, 37064, Note_off_c, 1, 85, 0
1, 37065, Note_on_c, 1, 83, 127
1, 37079, Note_off_c, 1, 78, 0
1, 37079, Note_off_c, 1, 69, 0
1, 37079, Note_off_c, 1, 38, 0
1, 37079, Note_off_c, 1, 83, 0
1, 37080, Note_on_c, 1, 66, 127
1, 37080, Note_on_c, 1, 50, 127
1, 37080, Note_on_c, 1, 81, 127
1, 37094, Note_off_c, 1, 50, 0
1, 37094, Note_off_c, 1, 81, 0
1, 37095, Note_on_c, 1, 86, 127
1, 37109, Note_off_c, 1, 66, 0
1, 37109, Note_off_c, 1, 86, 0
1, 37110, Note_on_c, 1, 62, 127
1, 37110, Note_on_c, 1, 50, 127
1, 37110, Note_on_c, 1, 85, 127
1, 37124, Note_off_c, 1, 50, 0
1, 37124, Note_off_c, 1, 85, 0
1, 37125, Note_on_c, 1, 83, 127
1, 37139, Note_off_c, 1, 62, 0
1, 37139, Note_off_c, 1, 83, 0
1, 37140, Note_on_c, 1, 66, 127
1, 37140, Note_on_c, 1, 50, 127
1, 37140, Note_on_c, 1, 81, 127
1, 37154, Note_off_c, 1, 50, 0
1, 37154, Note_off_c, 1, 81, 0
1, 37155, Note_on_c, 1, 79, 127
1, 37169, Note_off_c, 1, 66, 0
1, 37169, Note_off_c, 1, 79, 0
1, 37170, Note_on_c, 1, 69, 127
1, 37170, Note_on_c, 1, 50, 127
1, 37170, Note_on_c, 1, 78, 127
1, 37184, Note_off_c, 1, 50, 0
1, 37184, Note_off_c, 1, 78, 0
1, 37185, Note_on_c, 1, 76, 127
1, 37199, Note_off_c, 1, 69, 0
1, 37199, Note_off_c, 1, 76, 0
1, 37200, Note_on_c, 1, 74, 127
1, 37200, Note_on_c, 1, 62, 127
1, 37200, Note_on_c, 1, 50, 127
1, 37200, Note_on_c, 1, 78, 127
1, 37214, Note_off_c, 1, 50, 0
1, 37229, Note_off_c, 1, 62, 0
1, 37230, Note_on_c, 1, 69, 127
1, 37230, Note_on_c, 1, 73, 127
1, 37244, Note_off_c, 1, 73, 0
1, 37245, Note_on_c, 1, 71, 127
1, 37259, Note_off_c, 1, 69, 0
1, 37259, Note_off_c, 1, 71, 0
1, 37260, Note_on_c, 1, 66, 127
1, 37289, Note_off_c, 1, 66, 0
1, 37335, Note_on_c, 1, 67, 127
1, 37349, Note_off_c, 1, 67, 0
1, 37365, Note_on_c, 1, 64, 127
1, 37379, Note_off_c, 1, 64, 0
1, 37380, Note_on_c, 1, 81, 127
1, 37380, Note_on_c, 1, 38, 127
1, 37410, Note_on_c, 1, 61, 127
1, 37424, Note_off_c, 1, 61, 0
1, 37425, Note_on_c, 1, 59, 127
1, 37439, Note_off_c, 1, 81, 0
1, 37439, Note_off_c, 1, 38, 0
1, 37439, Note_off_c, 1, 59, 0
1, 37440, Note_on_c, 1, 57, 127
1, 37454, Note_off_c, 1, 57, 0
1, 37515, Note_on_c, 1, 55, 127
1, 37529, Note_off_c, 1, 55, 0
1, 37530, Note_on_c, 1, 54, 127
1, 37544, Note_off_c, 1, 54, 0
1, 37545, Note_on_c, 1, 52, 127
1, 37559, Note_off_c, 1, 52, 0
1, 37590, Note_on_c, 1, 49, 127
1, 37604, Note_off_c, 1, 49, 0
1, 37605, Note_on_c, 1, 47, 127
1, 37619, Note_off_c, 1, 47, 0
1, 37620, Note_on_c, 1, 45, 127
1, 37634, Note_off_c, 1, 45, 0
1, 37695, Note_on_c, 1, 43, 127
1, 37709, Note_off_c, 1, 43, 0
1, 37710, Note_on_c, 1, 42, 127
1, 37724, Note_off_c, 1, 42, 0
1, 37725, Note_on_c, 1, 40, 127
1, 37739, Note_off_c, 1, 40, 0
1, 37830, Note_off_c, 1, 74, 0
1, 37830, Note_off_c, 1, 78, 0
1, 37860, Note_on_c, 1, 50, 127
1, 37860, Note_on_c, 1, 78, 127
1, 37860, Note_on_c, 1, 74, 127
1, 37860, Note_on_c, 1, 57, 127
1, 37860, Note_on_c, 1, 38, 127
1, 37877, Note_off_c, 1, 57, 0
1, 37890, Note_off_c, 1, 78, 0
1, 37890, Note_off_c, 1, 74, 0
1, 37919, Note_off_c, 1, 50, 0
1, 37919, Note_off_c, 1, 38, 0
1, 37920, Note_on_c, 1, 50, 127
1, 37920, Note_on_c, 1, 78, 127
1, 37920, Note_on_c, 1, 74, 127
1, 37920, Note_on_c, 1, 57, 127
1, 37920, Note_on_c, 1, 45, 127
1, 37937, Note_off_c, 1, 57, 0
1, 37979, Note_off_c, 1, 50, 0
1, 37979, Note_off_c, 1, 45, 0
1, 37980, Note_off_c, 1, 78, 0
1, 37980, Note_off_c, 1, 74, 0
1, 37980, Note_on_c, 1, 76, 127
1, 37980, Note_on_c, 1, 73, 127
1, 38010, Note_off_c, 1, 76, 0
1, 38010, Note_off_c, 1, 73, 0
1, 38010, Note_on_c, 1, 71, 127
1, 38040, Note_off_c, 1, 71, 0
1, 38040, Note_on_c, 1, 69, 127
1, 38099, Note_off_c, 1, 69, 0
1, 38100, Note_on_c, 1, 79, 127
1, 38129, Note_off_c, 1, 79, 0
1, 38160, Note_on_c, 1, 79, 127
1, 38160, Note_on_c, 1, 76, 127
1, 38160, Note_on_c, 1, 69, 127
1, 38160, Note_on_c, 1, 57, 127
1, 38160, Note_on_c, 1, 49, 127
1, 38177, Note_off_c, 1, 57, 0
1, 38189, Note_off_c, 1, 79, 0
1, 38189, Note_off_c, 1, 76, 0
1, 38189, Note_off_c, 1, 69, 0
1, 38219, Note_off_c, 1, 49, 0
1, 38220, Note_on_c, 1, 79, 127
1, 38220, Note_on_c, 1, 76, 127
1, 38220, Note_on_c, 1, 69, 127
1, 38220, Note_on_c, 1, 57, 127
1, 38220, Note_on_c, 1, 45, 127
1, 38237, Note_off_c, 1, 57, 0
1, 38249, Note_off_c, 1, 79, 0
1, 38249, Note_off_c, 1, 76, 0
1, 38249, Note_off_c, 1, 69, 0
1, 38279, Note_off_c, 1, 45, 0
1, 38280, Note_on_c, 1, 79, 127
1, 38280, Note_on_c, 1, 76, 127
1, 38280, Note_on_c, 1, 69, 127
1, 38280, Note_on_c, 1, 57, 127
1, 38280, Note_on_c, 1, 50, 127
1, 38297, Note_off_c, 1, 57, 0
1, 38339, Note_off_c, 1, 79, 0
1, 38339, Note_off_c, 1, 76, 0
1, 38339, Note_off_c, 1, 69, 0
1, 38339, Note_off_c, 1, 50, 0
1, 38340, Note_on_c, 1, 78, 127
1, 38340, Note_on_c, 1, 74, 127
1, 38340, Note_on_c, 1, 57, 127
1, 38357, Note_off_c, 1, 57, 0
1, 38369, Note_off_c, 1, 78, 0
1, 38369, Note_off_c, 1, 74, 0
1, 38370, Note_on_c, 1, 76, 127
1, 38370, Note_on_c, 1, 73, 127
1, 38370, Note_on_c, 1, 69, 127
1, 38370, Note_on_c, 1, 57, 127
1, 38387, Note_off_c, 1, 57, 0
1, 38399, Note_off_c, 1, 76, 0
1, 38399, Note_off_c, 1, 73, 0
1, 38399, Note_off_c, 1, 69, 0
1, 38400, Note_on_c, 1, 78, 127
1, 38400, Note_on_c, 1, 74, 127
1, 38400, Note_on_c, 1, 66, 127
1, 38400, Note_on_c, 1, 69, 127
1, 38429, Note_off_c, 1, 66, 0
1, 38429, Note_off_c, 1, 69, 0
1, 38430, Note_on_c, 1, 62, 127
1, 38430, Note_on_c, 1, 79, 127
1, 38430, Note_on_c, 1, 71, 127
1, 38430, Note_on_c, 1, 67, 127
1, 38459, Note_off_c, 1, 78, 0
1, 38459, Note_off_c, 1, 74, 0
1, 38459, Note_off_c, 1, 62, 0
1, 38459, Note_off_c, 1, 79, 0
1, 38459, Note_off_c, 1, 71, 0
1, 38459, Note_off_c, 1, 67, 0
1, 38460, Note_on_c, 1, 81, 127
1, 38460, Note_on_c, 1, 72, 127
1, 38460, Note_on_c, 1, 66, 127
1, 38460, Note_on_c, 1, 50, 127
1, 38489, Note_off_c, 1, 81, 0
1, 38489, Note_off_c, 1, 72, 0
1, 38489, Note_off_c, 1, 66, 0
1, 38489, Note_off_c, 1, 50, 0
1, 38490, Note_on_c, 1, 52, 127
1, 38519, Note_off_c, 1, 52, 0
1, 38520, Note_on_c, 1, 72, 127
1, 38520, Note_on_c, 1, 69, 127
1, 38520, Note_on_c, 1, 54, 127
1, 38549, Note_off_c, 1, 72, 0
1, 38549, Note_off_c, 1, 69, 0
1, 38549, Note_off_c, 1, 54, 0
1, 38550, Note_on_c, 1, 52, 127
1, 38579, Note_off_c, 1, 52, 0
1, 38580, Note_on_c, 1, 72, 127
1, 38580, Note_on_c, 1, 69, 127
1, 38580, Note_on_c, 1, 62, 127
1, 38580, Note_on_c, 1, 54, 127
1, 38609, Note_off_c, 1, 72, 0
1, 38609, Note_off_c, 1, 69, 0
1, 38609, Note_off_c, 1, 62, 0
1, 38609, Note_off_c, 1, 54, 0
1, 38610, Note_on_c, 1, 50, 127
1, 38639, Note_off_c, 1, 50, 0
1, 38640, Note_on_c, 1, 72, 127
1, 38640, Note_on_c, 1, 69, 127
1, 38640, Note_on_c, 1, 62, 127
1, 38640, Note_on_c, 1, 55, 127
1, 38655, Note_off_c, 1, 72, 0
1, 38655, Note_off_c, 1, 69, 0
1, 38655, Note_on_c, 1, 74, 127
1, 38655, Note_on_c, 1, 71, 127
1, 38669, Note_off_c, 1, 55, 0
1, 38670, Note_off_c, 1, 74, 0
1, 38670, Note_off_c, 1, 71, 0
1, 38670, Note_on_c, 1, 57, 127
1, 38699, Note_off_c, 1, 62, 0
1, 38699, Note_off_c, 1, 57, 0
1, 38700, Note_on_c, 1, 67, 127
1, 38700, Note_on_c, 1, 54, 127
1, 38729, Note_off_c, 1, 54, 0
1, 38759, Note_off_c, 1, 67, 0
1, 38760, Note_on_c, 1, 79, 127
1, 38760, Note_on_c, 1, 69, 127
1, 38760, Note_on_c, 1, 45, 127
1, 38760, Note_on_c, 1, 76, 127
1, 38760, Note_on_c, 1, 61, 127
1, 38760, Note_on_c, 1, 52, 127
1, 38789, Note_off_c, 1, 52, 0
1, 38790, Note_on_c, 1, 54, 127
1, 38819, Note_off_c, 1, 79, 0
1, 38819, Note_off_c, 1, 69, 0
1, 38819, Note_off_c, 1, 45, 0
1, 38819, Note_off_c, 1, 76, 0
1, 38819, Note_off_c, 1, 61, 0
1, 38819, Note_off_c, 1, 54, 0
1, 38820, Note_on_c, 1, 78, 127
1, 38820, Note_on_c, 1, 69, 127
1, 38820, Note_on_c, 1, 62, 127
1, 38820, Note_on_c, 1, 50, 127
1, 38850, Note_on_c, 1, 80, 127
1, 38850, Note_on_c, 1, 71, 127
1, 38879, Note_off_c, 1, 78, 0
1, 38879, Note_off_c, 1, 69, 0
1, 38879, Note_off_c, 1, 62, 0
1, 38879, Note_off_c, 1, 50, 0
1, 38879, Note_off_c, 1, 80, 0
1, 38879, Note_off_c, 1, 71, 0
1, 38880, Note_on_c, 1, 81, 127
1, 38880, Note_on_c, 1, 76, 127
1, 38880, Note_on_c, 1, 50, 127
1, 38880, Note_on_c, 1, 73, 127
1, 38880, Note_on_c, 1, 64, 127
1, 38880, Note_on_c, 1, 61, 127
1, 38894, Note_off_c, 1, 81, 0
1, 38895, Note_on_c, 1, 80, 127
1, 38909, Note_off_c, 1, 50, 0
1, 38909, Note_off_c, 1, 61, 0
1, 38909, Note_off_c, 1, 80, 0
1, 38910, Note_on_c, 1, 62, 127
1, 38939, Note_off_c, 1, 76, 0
1, 38939, Note_off_c, 1, 73, 0
1, 38939, Note_off_c, 1, 64, 0
1, 38939, Note_off_c, 1, 62, 0
1, 38940, Note_on_c, 1, 81, 127
1, 38940, Note_on_c, 1, 74, 127
1, 38940, Note_on_c, 1, 62, 127
1, 38940, Note_on_c, 1, 50, 127
1, 38940, Note_on_c, 1, 71, 127
1, 38940, Note_on_c, 1, 59, 127
1, 38954, Note_off_c, 1, 81, 0
1, 38955, Note_on_c, 1, 80, 127
1, 38969, Note_off_c, 1, 50, 0
1, 38969, Note_off_c, 1, 59, 0
1, 38969, Note_off_c, 1, 80, 0
1, 38970, Note_on_c, 1, 78, 127
1, 38970, Note_on_c, 1, 61, 127
1, 38984, Note_off_c, 1, 78, 0
1, 38999, Note_off_c, 1, 74, 0
1, 38999, Note_off_c, 1, 62, 0
1, 38999, Note_off_c, 1, 71, 0
1, 38999, Note_off_c, 1, 61, 0
1, 39000, Note_on_c, 1, 81, 127
1, 39000, Note_on_c, 1, 76, 127
1, 39000, Note_on_c, 1, 69, 127
1, 39000, Note_on_c, 1, 45, 127
1, 39000, Note_on_c, 1, 73, 127
1, 39000, Note_on_c, 1, 64, 127
1, 39000, Note_on_c, 1, 57, 127
1, 39029, Note_off_c, 1, 57, 0
1, 39030, Note_on_c, 1, 55, 127
1, 39059, Note_off_c, 1, 55, 0
1, 39090, Note_on_c, 1, 59, 127
1, 39119, Note_off_c, 1, 81, 0
1, 39119, Note_off_c, 1, 76, 0
1, 39119, Note_off_c, 1, 69, 0
1, 39119, Note_off_c, 1, 45, 0
1, 39119, Note_off_c, 1, 73, 0
1, 39119, Note_off_c, 1, 64, 0
1, 39119, Note_off_c, 1, 59, 0
1, 39120, Note_on_c, 1, 76, 127
1, 39120, Note_on_c, 1, 73, 127
1, 39120, Note_on_c, 1, 69, 127
1, 39120, Note_on_c, 1, 55, 127
1, 39149, Note_off_c, 1, 55, 0
1, 39150, Note_on_c, 1, 57, 127
1, 39179, Note_off_c, 1, 73, 0
1, 39179, Note_off_c, 1, 69, 0
1, 39179, Note_off_c, 1, 57, 0
1, 39180, Note_off_c, 1, 76, 0
1, 39180, Note_on_c, 1, 75, 127
1, 39180, Note_on_c, 1, 72, 127
1, 39180, Note_on_c, 1, 54, 127
1, 39209, Note_off_c, 1, 75, 0
1, 39209, Note_off_c, 1, 54, 0
1, 39210, Note_on_c, 1, 78, 127
1, 39210, Note_on_c, 1, 52, 127
1, 39239, Note_off_c, 1, 72, 0
1, 39239, Note_off_c, 1, 78, 0
1, 39239, Note_off_c, 1, 52, 0
1, 39240, Note_on_c, 1, 81, 127
1, 39240, Note_on_c, 1, 72, 127
1, 39240, Note_on_c, 1, 63, 127
1, 39240, Note_on_c, 1, 54, 127
1, 39269, Note_off_c, 1, 54, 0
1, 39270, Note_on_c, 1, 55, 127
1, 39299, Note_off_c, 1, 72, 0
1, 39299, Note_off_c, 1, 63, 0
1, 39299, Note_off_c, 1, 55, 0
1, 39300, Note_on_c, 1, 64, 127
1, 39300, Note_on_c, 1, 52, 127
1, 39329, Note_off_c, 1, 52, 0
1, 39359, Note_off_c, 1, 81, 0
1, 39359, Note_off_c, 1, 64, 0
1, 39360, Note_on_c, 1, 72, 127
1, 39360, Note_on_c, 1, 66, 127
1, 39360, Note_on_c, 1, 69, 127
1, 39360, Note_on_c, 1, 51, 127
1, 39374, Note_off_c, 1, 72, 0
1, 39375, Note_on_c, 1, 71, 127
1, 39389, Note_off_c, 1, 51, 0
1, 39389, Note_off_c, 1, 71, 0
1, 39390, Note_on_c, 1, 60, 127
1, 39419, Note_off_c, 1, 66, 0
1, 39419, Note_off_c, 1, 69, 0
1, 39419, Note_off_c, 1, 60, 0
1, 39420, Note_on_c, 1, 69, 127
1, 39420, Note_on_c, 1, 66, 127
1, 39420, Note_on_c, 1, 63, 127
1, 39420, Note_on_c, 1, 59, 127
1, 39449, Note_off_c, 1, 69, 0
1, 39449, Note_off_c, 1, 59, 0
1, 39450, Note_on_c, 1, 71, 127
1, 39450, Note_on_c, 1, 60, 127
1, 39479, Note_off_c, 1, 66, 0
1, 39479, Note_off_c, 1, 63, 0
1, 39479, Note_off_c, 1, 60, 0
1, 39480, Note_on_c, 1, 57, 127
1, 39509, Note_off_c, 1, 57, 0
1, 39540, Note_on_c, 1, 64, 127
1, 39540, Note_on_c, 1, 55, 127
1, 39569, Note_off_c, 1, 55, 0
1, 39570, Note_on_c, 1, 73, 127
1, 39570, Note_on_c, 1, 54, 127
1, 39584, Note_off_c, 1, 73, 0
1, 39585, Note_on_c, 1, 75, 127
1, 39599, Note_off_c, 1, 71, 0
1, 39599, Note_off_c, 1, 64, 0
1, 39599, Note_off_c, 1, 54, 0
1, 39599, Note_off_c, 1, 75, 0
1, 39600, Note_on_c, 1, 76, 127
1, 39600, Note_on_c, 1, 71, 127
1, 39600, Note_on_c, 1, 55, 127
1, 39629, Note_off_c, 1, 55, 0
1, 39630, Note_on_c, 1, 78, 127
1, 39630, Note_on_c, 1, 57, 127
1, 39644, Note_off_c, 1, 78, 0
1, 39645, Note_on_c, 1, 80, 127
1, 39659, Note_off_c, 1, 76, 0
1, 39659, Note_off_c, 1, 71, 0
1, 39659, Note_off_c, 1, 57, 0
1, 39659, Note_off_c, 1, 80, 0
1, 39660, Note_on_c, 1, 81, 127
1, 39660, Note_on_c, 1, 75, 127
1, 39660, Note_on_c, 1, 71, 127
1, 39660, Note_on_c, 1, 54, 127
1, 39689, Note_off_c, 1, 54, 0
1, 39690, Note_on_c, 1, 55, 127
1, 39719, Note_off_c, 1, 75, 0
1, 39719, Note_off_c, 1, 71, 0
1, 39719, Note_off_c, 1, 55, 0
1, 39720, Note_on_c, 1, 76, 127
1, 39720, Note_on_c, 1, 52, 127
1, 39749, Note_off_c, 1, 81, 0
1, 39749, Note_off_c, 1, 52, 0
1, 39750, Note_on_c, 1, 79, 127
1, 39750, Note_on_c, 1, 51, 127
1, 39764, Note_off_c, 1, 79, 0
1, 39765, Note_on_c, 1, 78, 127
1, 39779, Note_off_c, 1, 76, 0
1, 39779, Note_off_c, 1, 51, 0
1, 39779, Note_off_c, 1, 78, 0
1, 39780, Note_on_c, 1, 79, 127
1, 39780, Note_on_c, 1, 71, 127
1, 39780, Note_on_c, 1, 64, 127
1, 39780, Note_on_c, 1, 52, 127
1, 39809, Note_off_c, 1, 79, 0
1, 39809, Note_off_c, 1, 52, 0
1, 39810, Note_on_c, 1, 78, 127
1, 39810, Note_on_c, 1, 54, 127
1, 39824, Note_off_c, 1, 78, 0
1, 39825, Note_on_c, 1, 76, 127
1, 39839, Note_off_c, 1, 71, 0
1, 39839, Note_off_c, 1, 64, 0
1, 39839, Note_off_c, 1, 54, 0
1, 39839, Note_off_c, 1, 76, 0
1, 39840, Note_on_c, 1, 79, 127
1, 39840, Note_on_c, 1, 71, 127
1, 39840, Note_on_c, 1, 64, 127
1, 39840, Note_on_c, 1, 50, 127
1, 39869, Note_off_c, 1, 79, 0
1, 39869, Note_off_c, 1, 50, 0
1, 39870, Note_on_c, 1, 76, 127
1, 39870, Note_on_c, 1, 52, 127
1, 39884, Note_off_c, 1, 76, 0
1, 39885, Note_on_c, 1, 78, 127
1, 39899, Note_off_c, 1, 71, 0
1, 39899, Note_off_c, 1, 64, 0
1, 39899, Note_off_c, 1, 52, 0
1, 39899, Note_off_c, 1, 78, 0
1, 39900, Note_on_c, 1, 79, 127
1, 39900, Note_on_c, 1, 76, 127
1, 39900, Note_on_c, 1, 64, 127
1, 39900, Note_on_c, 1, 49, 127
1, 39929, Note_off_c, 1, 79, 0
1, 39929, Note_off_c, 1, 76, 0
1, 39929, Note_off_c, 1, 49, 0
1, 39930, Note_on_c, 1, 83, 127
1, 39930, Note_on_c, 1, 47, 127
1, 39944, Note_off_c, 1, 83, 0
1, 39945, Note_on_c, 1, 81, 127
1, 39945, Note_on_c, 1, 78, 127
1, 39959, Note_off_c, 1, 64, 0
1, 39959, Note_off_c, 1, 47, 0
1, 39959, Note_off_c, 1, 81, 0
1, 39959, Note_off_c, 1, 78, 0
1, 39960, Note_on_c, 1, 79, 127
1, 39960, Note_on_c, 1, 76, 127
1, 39960, Note_on_c, 1, 57, 127
1, 39960, Note_on_c, 1, 49, 127
1, 39989, Note_off_c, 1, 79, 0
1, 39989, Note_off_c, 1, 76, 0
1, 39989, Note_off_c, 1, 49, 0
1, 39990, Note_on_c, 1, 83, 127
1, 39990, Note_on_c, 1, 50, 127
1, 40004, Note_off_c, 1, 83, 0
1, 40005, Note_on_c, 1, 81, 127
1, 40005, Note_on_c, 1, 78, 127
1, 40019, Note_off_c, 1, 57, 0
1, 40019, Note_off_c, 1, 50, 0
1, 40019, Note_off_c, 1, 81, 0
1, 40019, Note_off_c, 1, 78, 0
1, 40020, Note_on_c, 1, 79, 127
1, 40020, Note_on_c, 1, 76, 127
1, 40020, Note_on_c, 1, 59, 127
1, 40020, Note_on_c, 1, 47, 127
1, 40049, Note_off_c, 1, 47, 0
1, 40050, Note_on_c, 1, 49, 127
1, 40079, Note_off_c, 1, 59, 0
1, 40079, Note_off_c, 1, 49, 0
1, 40080, Note_on_c, 1, 61, 127
1, 40080, Note_on_c, 1, 45, 127
1, 40109, Note_off_c, 1, 79, 0
1, 40109, Note_off_c, 1, 76, 0
1, 40109, Note_off_c, 1, 45, 0
1, 40110, Note_on_c, 1, 73, 127
1, 40110, Note_on_c, 1, 57, 127
1, 40124, Note_off_c, 1, 73, 0
1, 40125, Note_on_c, 1, 78, 127
1, 40125, Note_on_c, 1, 74, 127
1, 40139, Note_off_c, 1, 61, 0
1, 40139, Note_off_c, 1, 57, 0
1, 40139, Note_off_c, 1, 78, 0
1, 40139, Note_off_c, 1, 74, 0
1, 40140, Note_on_c, 1, 79, 127
1, 40140, Note_on_c, 1, 76, 127
1, 40140, Note_on_c, 1, 73, 127
1, 40140, Note_on_c, 1, 55, 127
1, 40169, Note_off_c, 1, 79, 0
1, 40169, Note_off_c, 1, 76, 0
1, 40169, Note_off_c, 1, 55, 0
1, 40170, Note_on_c, 1, 57, 127
1, 40185, Note_on_c, 1, 78, 127
1, 40185, Note_on_c, 1, 74, 127
1, 40199, Note_off_c, 1, 73, 0
1, 40199, Note_off_c, 1, 57, 0
1, 40199, Note_off_c, 1, 78, 0
1, 40199, Note_off_c, 1, 74, 0
1, 40200, Note_on_c, 1, 79, 127
1, 40200, Note_on_c, 1, 76, 127
1, 40200, Note_on_c, 1, 71, 127
1, 40200, Note_on_c, 1, 55, 127
1, 40229, Note_off_c, 1, 55, 0
1, 40230, Note_on_c, 1, 57, 127
1, 40259, Note_off_c, 1, 71, 0
1, 40259, Note_off_c, 1, 57, 0
1, 40260, Note_on_c, 1, 69, 127
1, 40260, Note_on_c, 1, 54, 127
1, 40289, Note_off_c, 1, 79, 0
1, 40289, Note_off_c, 1, 76, 0
1, 40289, Note_off_c, 1, 54, 0
1, 40290, Note_on_c, 1, 78, 127
1, 40290, Note_on_c, 1, 52, 127
1, 40304, Note_off_c, 1, 78, 0
1, 40319, Note_off_c, 1, 69, 0
1, 40319, Note_off_c, 1, 52, 0
1, 40320, Note_on_c, 1, 81, 127
1, 40320, Note_on_c, 1, 74, 127
1, 40320, Note_on_c, 1, 69, 127
1, 40320, Note_on_c, 1, 54, 127
1, 40349, Note_off_c, 1, 81, 0
1, 40349, Note_off_c, 1, 74, 0
1, 40349, Note_off_c, 1, 54, 0
1, 40350, Note_on_c, 1, 79, 127
1, 40350, Note_on_c, 1, 55, 127
1, 40364, Note_off_c, 1, 79, 0
1, 40365, Note_on_c, 1, 78, 127
1, 40379, Note_off_c, 1, 69, 0
1, 40379, Note_off_c, 1, 55, 0
1, 40379, Note_off_c, 1, 78, 0
1, 40380, Note_on_c, 1, 79, 127
1, 40380, Note_on_c, 1, 73, 127
1, 40380, Note_on_c, 1, 69, 127
1, 40380, Note_on_c, 1, 52, 127
1, 40409, Note_off_c, 1, 79, 0
1, 40409, Note_off_c, 1, 73, 0
1, 40409, Note_off_c, 1, 52, 0
1, 40410, Note_on_c, 1, 78, 127
1, 40410, Note_on_c, 1, 54, 127
1, 40424, Note_off_c, 1, 78, 0
1, 40425, Note_on_c, 1, 76, 127
1, 40439, Note_off_c, 1, 69, 0
1, 40439, Note_off_c, 1, 54, 0
1, 40439, Note_off_c, 1, 76, 0
1, 40440, Note_on_c, 1, 78, 127
1, 40440, Note_on_c, 1, 74, 127
1, 40440, Note_on_c, 1, 69, 127
1, 40440, Note_on_c, 1, 50, 127
1, 40469, Note_off_c, 1, 78, 0
1, 40469, Note_off_c, 1, 74, 0
1, 40469, Note_off_c, 1, 50, 0
1, 40470, Note_on_c, 1, 81, 127
1, 40470, Note_on_c, 1, 49, 127
1, 40484, Note_off_c, 1, 81, 0
1, 40485, Note_on_c, 1, 79, 127
1, 40485, Note_on_c, 1, 76, 127
1, 40499, Note_off_c, 1, 69, 0
1, 40499, Note_off_c, 1, 49, 0
1, 40499, Note_off_c, 1, 79, 0
1, 40499, Note_off_c, 1, 76, 0
1, 40500, Note_on_c, 1, 78, 127
1, 40500, Note_on_c, 1, 74, 127
1, 40500, Note_on_c, 1, 69, 127
1, 40500, Note_on_c, 1, 50, 127
1, 40529, Note_off_c, 1, 78, 0
1, 40529, Note_off_c, 1, 74, 0
1, 40529, Note_off_c, 1, 50, 0
1, 40530, Note_on_c, 1, 81, 127
1, 40530, Note_on_c, 1, 52, 127
1, 40544, Note_off_c, 1, 81, 0
1, 40545, Note_on_c, 1, 79, 127
1, 40545, Note_on_c, 1, 76, 127
1, 40559, Note_off_c, 1, 69, 0
1, 40559, Note_off_c, 1, 52, 0
1, 40559, Note_off_c, 1, 79, 0
1, 40559, Note_off_c, 1, 76, 0
1, 40560, Note_on_c, 1, 78, 127
1, 40560, Note_on_c, 1, 74, 127
1, 40560, Note_on_c, 1, 69, 127
1, 40560, Note_on_c, 1, 49, 127
1, 40589, Note_off_c, 1, 49, 0
1, 40590, Note_on_c, 1, 50, 127
1, 40605, Note_on_c, 1, 76, 127
1, 40619, Note_off_c, 1, 69, 0
1, 40619, Note_off_c, 1, 50, 0
1, 40619, Note_off_c, 1, 76, 0
1, 40620, Note_on_c, 1, 83, 127
1, 40620, Note_on_c, 1, 62, 127
1, 40620, Note_on_c, 1, 47, 127
1, 40649, Note_off_c, 1, 62, 0
1, 40649, Note_off_c, 1, 47, 0
1, 40680, Note_off_c, 1, 78, 0
1, 40680, Note_on_c, 1, 80, 127
1, 40680, Note_on_c, 1, 71, 127
1, 40680, Note_on_c, 1, 59, 127
1, 40694, Note_off_c, 1, 83, 0
1, 40709, Note_off_c, 1, 74, 0
1, 40709, Note_off_c, 1, 80, 0
1, 40709, Note_off_c, 1, 71, 0
1, 40709, Note_off_c, 1, 59, 0
1, 40710, Note_on_c, 1, 78, 127
1, 40724, Note_off_c, 1, 78, 0
1, 40725, Note_on_c, 1, 80, 127
1, 40739, Note_off_c, 1, 80, 0
1, 40740, Note_on_c, 1, 81, 127
1, 40740, Note_on_c, 1, 78, 127
1, 40740, Note_on_c, 1, 74, 127
1, 40740, Note_on_c, 1, 57, 127
1, 40769, Note_off_c, 1, 81, 0
1, 40769, Note_off_c, 1, 78, 0
1, 40769, Note_off_c, 1, 57, 0
1, 40770, Note_on_c, 1, 80, 127
1, 40784, Note_off_c, 1, 80, 0
1, 40800, Note_on_c, 1, 83, 127
1, 40800, Note_on_c, 1, 76, 127
1, 40800, Note_on_c, 1, 71, 127
1, 40800, Note_on_c, 1, 56, 127
1, 40829, Note_off_c, 1, 71, 0
1, 40859, Note_off_c, 1, 83, 0
1, 40860, Note_off_c, 1, 74, 0
1, 40860, Note_on_c, 1, 68, 127
1, 40874, Note_off_c, 1, 56, 0
1, 40875, Note_on_c, 1, 85, 127
1, 40889, Note_off_c, 1, 68, 0
1, 40889, Note_off_c, 1, 85, 0
1, 40905, Note_on_c, 1, 54, 127
1, 40919, Note_off_c, 1, 54, 0
1, 40920, Note_on_c, 1, 52, 127
1, 40934, Note_off_c, 1, 52, 0
1, 40935, Note_on_c, 1, 50, 127
1, 40949, Note_off_c, 1, 50, 0
1, 40950, Note_on_c, 1, 49, 127
1, 40964, Note_off_c, 1, 49, 0
1, 40965, Note_on_c, 1, 47, 127
1, 40979, Note_off_c, 1, 47, 0
1, 40980, Note_on_c, 1, 69, 127
1, 40980, Note_on_c, 1, 45, 127
1, 40980, Note_on_c, 1, 73, 127
1, 40980, Note_on_c, 1, 64, 127
1, 41009, Note_off_c, 1, 73, 0
1, 41009, Note_off_c, 1, 64, 0
1, 41040, Note_off_c, 1, 76, 0
1, 41040, Note_off_c, 1, 45, 0
1, 41069, Note_off_c, 1, 69, 0
1, 41070, Note_on_c, 1, 76, 127
1, 41084, Note_off_c, 1, 76, 0
1, 41085, Note_on_c, 1, 78, 127
1, 41099, Note_off_c, 1, 78, 0
1, 41100, Note_on_c, 1, 79, 127
1, 41100, Note_on_c, 1, 76, 127
1, 41100, Note_on_c, 1, 72, 127
1, 41100, Note_on_c, 1, 55, 127
1, 41129, Note_off_c, 1, 79, 0
1, 41129, Note_off_c, 1, 76, 0
1, 41129, Note_off_c, 1, 55, 0
1, 41130, Note_on_c, 1, 78, 127
1, 41144, Note_off_c, 1, 78, 0
1, 41160, Note_on_c, 1, 81, 127
1, 41160, Note_on_c, 1, 74, 127
1, 41160, Note_on_c, 1, 69, 127
1, 41160, Note_on_c, 1, 54, 127
1, 41219, Note_off_c, 1, 72, 0
1, 41219, Note_off_c, 1, 81, 0
1, 41220, Note_on_c, 1, 66, 127
1, 41234, Note_off_c, 1, 54, 0
1, 41235, Note_on_c, 1, 83, 127
1, 41249, Note_off_c, 1, 69, 0
1, 41249, Note_off_c, 1, 66, 0
1, 41249, Note_off_c, 1, 83, 0
1, 41265, Note_on_c, 1, 52, 127
1, 41279, Note_off_c, 1, 52, 0
1, 41280, Note_on_c, 1, 50, 127
1, 41294, Note_off_c, 1, 50, 0
1, 41295, Note_on_c, 1, 48, 127
1, 41309, Note_off_c, 1, 48, 0
1, 41310, Note_on_c, 1, 47, 127
1, 41324, Note_off_c, 1, 47, 0
1, 41325, Note_on_c, 1, 45, 127
1, 41339, Note_off_c, 1, 45, 0
1, 41340, Note_on_c, 1, 71, 127
1, 41340, Note_on_c, 1, 43, 127
1, 41355, Note_on_c, 1, 67, 127
1, 41369, Note_off_c, 1, 71, 0
1, 41369, Note_off_c, 1, 43, 0
1, 41369, Note_off_c, 1, 67, 0
1, 41370, Note_on_c, 1, 73, 127
1, 41384, Note_off_c, 1, 73, 0
1, 41400, Note_off_c, 1, 74, 0
1, 41400, Note_on_c, 1, 64, 127
1, 41429, Note_off_c, 1, 64, 0
1, 41430, Note_on_c, 1, 74, 127
1, 41430, Note_on_c, 1, 71, 127
1, 41444, Note_off_c, 1, 74, 0
1, 41444, Note_off_c, 1, 71, 0
1, 41445, Note_on_c, 1, 76, 127
1, 41445, Note_on_c, 1, 73, 127
1, 41459, Note_off_c, 1, 76, 0
1, 41459, Note_off_c, 1, 73, 0
1, 41460, Note_on_c, 1, 78, 127
1, 41460, Note_on_c, 1, 74, 127
1, 41460, Note_on_c, 1, 69, 127
1, 41460, Note_on_c, 1, 57, 127
1, 41460, Note_on_c, 1, 54, 127
1, 41474, Note_off_c, 1, 74, 0
1, 41475, Note_on_c, 1, 71, 127
1, 41489, Note_off_c, 1, 78, 0
1, 41489, Note_off_c, 1, 69, 0
1, 41489, Note_off_c, 1, 57, 0
1, 41489, Note_off_c, 1, 54, 0
1, 41489, Note_off_c, 1, 71, 0
1, 41490, Note_on_c, 1, 76, 127
1, 41490, Note_on_c, 1, 73, 127
1, 41504, Note_off_c, 1, 76, 0
1, 41504, Note_off_c, 1, 73, 0
1, 41505, Note_on_c, 1, 78, 127
1, 41505, Note_on_c, 1, 74, 127
1, 41519, Note_off_c, 1, 78, 0
1, 41519, Note_off_c, 1, 74, 0
1, 41520, Note_on_c, 1, 79, 127
1, 41520, Note_on_c, 1, 83, 127
1, 41520, Note_on_c, 1, 76, 127
1, 41520, Note_on_c, 1, 71, 127
1, 41520, Note_on_c, 1, 64, 127
1, 41520, Note_on_c, 1, 52, 127
1, 41535, Note_on_c, 1, 73, 127
1, 41549, Note_off_c, 1, 71, 0
1, 41549, Note_off_c, 1, 64, 0
1, 41549, Note_off_c, 1, 52, 0
1, 41549, Note_off_c, 1, 73, 0
1, 41550, Note_on_c, 1, 74, 127
1, 41564, Note_off_c, 1, 74, 0
1, 41579, Note_off_c, 1, 79, 0
1, 41580, Note_off_c, 1, 76, 0
1, 41580, Note_on_c, 1, 78, 127
1, 41580, Note_on_c, 1, 47, 127
1, 41594, Note_off_c, 1, 78, 0
1, 41609, Note_off_c, 1, 83, 0
1, 41609, Note_off_c, 1, 47, 0
1, 41610, Note_on_c, 1, 81, 127
1, 41610, Note_on_c, 1, 76, 127
1, 41624, Note_off_c, 1, 76, 0
1, 41625, Note_on_c, 1, 78, 127
1, 41639, Note_off_c, 1, 81, 0
1, 41639, Note_off_c, 1, 78, 0
1, 41640, Note_on_c, 1, 79, 127
1, 41640, Note_on_c, 1, 50, 127
1, 41655, Note_on_c, 1, 76, 127
1, 41669, Note_off_c, 1, 50, 0
1, 41669, Note_off_c, 1, 76, 0
1, 41670, Note_on_c, 1, 78, 127
1, 41684, Note_off_c, 1, 78, 0
1, 41699, Note_off_c, 1, 79, 0
1, 41700, Note_on_c, 1, 79, 127
1, 41700, Note_on_c, 1, 81, 127
1, 41700, Note_on_c, 1, 76, 127
1, 41700, Note_on_c, 1, 45, 127
1, 41700, Note_on_c, 1, 57, 127
1, 41700, Note_on_c, 1, 49, 127
1, 41715, Note_on_c, 1, 78, 127
1, 41729, Note_off_c, 1, 57, 0
1, 41729, Note_off_c, 1, 49, 0
1, 41729, Note_off_c, 1, 78, 0
1, 41760, Note_off_c, 1, 81, 0
1, 41760, Note_off_c, 1, 76, 0
1, 41760, Note_on_c, 1, 83, 127
1, 41760, Note_on_c, 1, 52, 127
1, 41774, Note_off_c, 1, 83, 0
1, 41789, Note_off_c, 1, 52, 0
1, 41820, Note_on_c, 1, 85, 127
1, 41834, Note_off_c, 1, 85, 0
1, 41879, Note_off_c, 1, 79, 0
1, 41880, Note_off_c, 1, 45, 0
1, 41880, Note_on_c, 1, 69, 127
1, 41880, Note_on_c, 1, 50, 127
1, 41880, Note_on_c, 1, 86, 127
1, 41880, Note_on_c, 1, 74, 127
1, 41909, Note_off_c, 1, 86, 0
1, 41909, Note_off_c, 1, 74, 0
1, 41924, Note_off_c, 1, 50, 0
1, 41940, Note_on_c, 1, 62, 127
1, 41940, Note_on_c, 1, 42, 127
1, 41969, Note_off_c, 1, 62, 0
1, 41969, Note_off_c, 1, 42, 0
1, 42000, Note_on_c, 1, 73, 127
1, 42000, Note_on_c, 1, 64, 127
1, 42029, Note_off_c, 1, 73, 0
1, 42029, Note_off_c, 1, 64, 0
1, 42060, Note_on_c, 1, 66, 127
1, 42060, Note_on_c, 1, 38, 127
1, 42089, Note_off_c, 1, 66, 0
1, 42119, Note_off_c, 1, 38, 0
1, 42120, Note_off_c, 1, 69, 0
1, 42180, Note_on_c, 1, 62, 127
1, 42180, Note_on_c, 1, 50, 127
1, 42239, Note_off_c, 1, 62, 0
1, 42239, Note_off_c, 1, 50, 0
1, 42240, Note_on_c, 1, 57, 127
1, 42240, Note_on_c, 1, 62, 127
1, 42240, Note_on_c, 1, 50, 127
1, 42270, Note_on_c, 1, 66, 127
1, 42284, Note_off_c, 1, 66, 0
1, 42285, Note_on_c, 1, 67, 127
1, 42285, Note_on_c, 1, 64, 127
1, 42299, Note_off_c, 1, 62, 0
1, 42299, Note_off_c, 1, 50, 0
1, 42299, Note_off_c, 1, 67, 0
1, 42299, Note_off_c, 1, 64, 0
1, 42300, Note_on_c, 1, 69, 127
1, 42300, Note_on_c, 1, 45, 127
1, 42314, Note_off_c, 1, 69, 0
1, 42359, Note_off_c, 1, 57, 0
1, 42359, Note_off_c, 1, 45, 0
1, 42360, Note_on_c, 1, 69, 127
1, 42360, Note_on_c, 1, 66, 127
1, 42374, Note_off_c, 1, 69, 0
1, 42374, Note_off_c, 1, 66, 0
1, 42375, Note_on_c, 1, 67, 127
1, 42375, Note_on_c, 1, 64, 127
1, 42389, Note_off_c, 1, 67, 0
1, 42389, Note_off_c, 1, 64, 0
1, 42390, Note_on_c, 1, 66, 127
1, 42390, Note_on_c, 1, 62, 127
1, 42404, Note_off_c, 1, 66, 0
1, 42404, Note_off_c, 1, 62, 0
1, 42405, Note_on_c, 1, 67, 127
1, 42405, Note_on_c, 1, 64, 127
1, 42419, Note_off_c, 1, 67, 0
1, 42419, Note_off_c, 1, 64, 0
1, 42420, Note_on_c, 1, 50, 127
1, 42420, Note_on_c, 1, 69, 127
1, 42420, Note_on_c, 1, 66, 127
1, 42420, Note_on_c, 1, 62, 127
1, 42420, Note_on_c, 1, 38, 127
1, 42479, Note_off_c, 1, 69, 0
1, 42479, Note_off_c, 1, 66, 0
1, 42479, Note_off_c, 1, 38, 0
1, 42480, Note_off_c, 1, 62, 0
1, 42600, Note_on_c, 1, 74, 127
1, 42645, Note_on_c, 1, 76, 127
1, 42645, Note_on_c, 1, 67, 127
1, 42659, Note_off_c, 1, 74, 0
1, 42659, Note_off_c, 1, 76, 0
1, 42659, Note_off_c, 1, 67, 0
1, 42660, Note_off_c, 1, 50, 0
1, 42660, Note_on_c, 1, 45, 127
1, 42660, Note_on_c, 1, 78, 127
1, 42674, Note_off_c, 1, 78, 0
1, 42720, Note_off_c, 1, 45, 0
1, 42720, Note_on_c, 1, 57, 127
1, 42779, Note_off_c, 1, 57, 0
1, 42780, Note_on_c, 1, 78, 127
1, 42780, Note_on_c, 1, 69, 127
1, 42780, Note_on_c, 1, 66, 127
1, 42780, Note_on_c, 1, 62, 127
1, 42780, Note_on_c, 1, 57, 127
1, 42780, Note_on_c, 1, 38, 127
1, 42839, Note_off_c, 1, 78, 0
1, 42839, Note_off_c, 1, 69, 0
1, 42839, Note_off_c, 1, 66, 0
1, 42839, Note_off_c, 1, 62, 0
1, 42839, Note_off_c, 1, 57, 0
1, 42839, Note_off_c, 1, 38, 0
1, 42840, Note_on_c, 1, 74, 127
1, 42840, Note_on_c, 1, 62, 127
1, 42869, Note_off_c, 1, 74, 0
1, 42869, Note_off_c, 1, 62, 0
1, 42870, Note_on_c, 1, 69, 127
1, 42870, Note_on_c, 1, 57, 127
1, 42899, Note_off_c, 1, 69, 0
1, 42899, Note_off_c, 1, 57, 0
1, 42900, Note_on_c, 1, 66, 127
1, 42900, Note_on_c, 1, 54, 127
1, 42929, Note_off_c, 1, 66, 0
1, 42929, Note_off_c, 1, 54, 0
1, 42930, Note_on_c, 1, 62, 127
1, 42930, Note_on_c, 1, 50, 127
1, 42959, Note_off_c, 1, 62, 0
1, 42959, Note_off_c, 1, 50, 0
1, 42960, Note_on_c, 1, 74, 127
1, 42960, Note_on_c, 1, 69, 127
1, 42960, Note_on_c, 1, 66, 127
1, 42960, Note_on_c, 1, 57, 127
1, 42960, Note_on_c, 1, 62, 127
1, 42990, Note_on_c, 1, 78, 127
1, 43004, Note_off_c, 1, 78, 0
1, 43005, Note_on_c, 1, 79, 127
1, 43005, Note_on_c, 1, 76, 127
1, 43019, Note_off_c, 1, 74, 0
1, 43019, Note_off_c, 1, 69, 0
1, 43019, Note_off_c, 1, 66, 0
1, 43019, Note_off_c, 1, 57, 0
1, 43019, Note_off_c, 1, 62, 0
1, 43019, Note_off_c, 1, 79, 0
1, 43019, Note_off_c, 1, 76, 0
1, 43020, Note_on_c, 1, 81, 127
1, 43020, Note_on_c, 1, 78, 127
1, 43020, Note_on_c, 1, 69, 127
1, 43020, Note_on_c, 1, 57, 127
1, 43034, Note_off_c, 1, 81, 0
1, 43034, Note_off_c, 1, 78, 0
1, 43035, Note_on_c, 1, 79, 127
1, 43035, Note_on_c, 1, 76, 127
1, 43049, Note_off_c, 1, 79, 0
1, 43049, Note_off_c, 1, 76, 0
1, 43079, Note_off_c, 1, 69, 0
1, 43079, Note_off_c, 1, 57, 0
1, 43080, Note_on_c, 1, 81, 127
1, 43080, Note_on_c, 1, 78, 127
1, 43094, Note_off_c, 1, 81, 0
1, 43094, Note_off_c, 1, 78, 0
1, 43095, Note_on_c, 1, 79, 127
1, 43095, Note_on_c, 1, 76, 127
1, 43109, Note_off_c, 1, 79, 0
1, 43109, Note_off_c, 1, 76, 0
1, 43110, Note_on_c, 1, 78, 127
1, 43110, Note_on_c, 1, 74, 127
1, 43124, Note_off_c, 1, 78, 0
1, 43124, Note_off_c, 1, 74, 0
1, 43125, Note_on_c, 1, 79, 127
1, 43125, Note_on_c, 1, 76, 127
1, 43139, Note_off_c, 1, 79, 0
1, 43139, Note_off_c, 1, 76, 0
1, 43140, Note_on_c, 1, 62, 127
1, 43140, Note_on_c, 1, 50, 127
1, 43140, Note_on_c, 1, 81, 127
1, 43140, Note_on_c, 1, 78, 127
1, 43140, Note_on_c, 1, 69, 127
1, 43140, Note_on_c, 1, 66, 127
1, 43140, Note_on_c, 1, 38, 127
1, 43154, Note_off_c, 1, 50, 0
1, 43154, Note_off_c, 1, 81, 0
1, 43154, Note_off_c, 1, 78, 0
1, 43155, Note_on_c, 1, 86, 127
1, 43169, Note_off_c, 1, 86, 0
1, 43170, Note_on_c, 1, 85, 127
1, 43184, Note_off_c, 1, 85, 0
1, 43185, Note_on_c, 1, 83, 127
1, 43199, Note_off_c, 1, 62, 0
1, 43199, Note_off_c, 1, 69, 0
1, 43199, Note_off_c, 1, 66, 0
1, 43199, Note_off_c, 1, 38, 0
1, 43199, Note_off_c, 1, 83, 0
1, 43200, Note_on_c, 1, 66, 127
1, 43200, Note_on_c, 1, 50, 127
1, 43200, Note_on_c, 1, 81, 127
1, 43200, Note_on_c, 1, 74, 127
1, 43200, Note_on_c, 1, 62, 127
1, 43214, Note_off_c, 1, 50, 0
1, 43215, Note_on_c, 1, 86, 127
1, 43229, Note_off_c, 1, 86, 0
1, 43230, Note_on_c, 1, 85, 127
1, 43244, Note_off_c, 1, 85, 0
1, 43245, Note_on_c, 1, 83, 127
1, 43259, Note_off_c, 1, 66, 0
1, 43259, Note_off_c, 1, 81, 0
1, 43259, Note_off_c, 1, 74, 0
1, 43259, Note_off_c, 1, 62, 0
1, 43259, Note_off_c, 1, 83, 0
1, 43260, Note_on_c, 1, 66, 127
1, 43260, Note_on_c, 1, 50, 127
1, 43260, Note_on_c, 1, 81, 127
1, 43260, Note_on_c, 1, 78, 127
1, 43260, Note_on_c, 1, 69, 127
1, 43260, Note_on_c, 1, 62, 127
1, 43274, Note_off_c, 1, 81, 0
1, 43275, Note_on_c, 1, 79, 127
1, 43289, Note_off_c, 1, 66, 0
1, 43289, Note_off_c, 1, 79, 0
1, 43305, Note_on_c, 1, 76, 127
1, 43319, Note_off_c, 1, 50, 0
1, 43319, Note_off_c, 1, 78, 0
1, 43319, Note_off_c, 1, 69, 0
1, 43319, Note_off_c, 1, 62, 0
1, 43319, Note_off_c, 1, 76, 0
1, 43320, Note_on_c, 1, 74, 127
1, 43320, Note_on_c, 1, 62, 127
1, 43320, Note_on_c, 1, 50, 127
1, 43320, Note_on_c, 1, 78, 127
1, 43320, Note_on_c, 1, 57, 127
1, 43334, Note_off_c, 1, 50, 0
1, 43349, Note_off_c, 1, 62, 0
1, 43350, Note_on_c, 1, 69, 127
1, 43350, Note_on_c, 1, 73, 127
1, 43364, Note_off_c, 1, 73, 0
1, 43365, Note_on_c, 1, 71, 127
1, 43379, Note_off_c, 1, 57, 0
1, 43379, Note_off_c, 1, 69, 0
1, 43379, Note_off_c, 1, 71, 0
1, 43380, Note_on_c, 1, 66, 127
1, 43409, Note_off_c, 1, 66, 0
1, 43455, Note_on_c, 1, 67, 127
1, 43469, Note_off_c, 1, 67, 0
1, 43485, Note_on_c, 1, 64, 127
1, 43499, Note_off_c, 1, 64, 0
1, 43500, Note_on_c, 1, 81, 127
1, 43500, Note_on_c, 1, 38, 127
1, 43530, Note_on_c, 1, 61, 127
1, 43544, Note_off_c, 1, 61, 0
1, 43545, Note_on_c, 1, 59, 127
1, 43559, Note_off_c, 1, 81, 0
1, 43559, Note_off_c, 1, 38, 0
1, 43559, Note_off_c, 1, 59, 0
1, 43635, Note_on_c, 1, 55, 127
1, 43649, Note_off_c, 1, 55, 0
1, 43650, Note_on_c, 1, 54, 127
1, 43664, Note_off_c, 1, 54, 0
1, 43665, Note_on_c, 1, 52, 127
1, 43679, Note_off_c, 1, 52, 0
1, 43710, Note_on_c, 1, 49, 127
1, 43724, Note_off_c, 1, 49, 0
1, 43725, Note_on_c, 1, 47, 127
1, 43739, Note_off_c, 1, 47, 0
1, 43740, Note_on_c, 1, 45, 127
1, 43754, Note_off_c, 1, 45, 0
1, 43815, Note_on_c, 1, 43, 127
1, 43829, Note_off_c, 1, 43, 0
1, 43830, Note_on_c, 1, 42, 127
1, 43844, Note_off_c, 1, 42, 0
1, 43845, Note_on_c, 1, 40, 127
1, 43859, Note_off_c, 1, 40, 0
1, 43950, Note_off_c, 1, 74, 0
1, 43979, Note_off_c, 1, 78, 0
1, 43980, Note_on_c, 1, 50, 127
1, 43980, Note_on_c, 1, 78, 127
1, 43980, Note_on_c, 1, 74, 127
1, 43980, Note_on_c, 1, 57, 127
1, 43980, Note_on_c, 1, 69, 127
1, 43980, Note_on_c, 1, 62, 127
1, 43980, Note_on_c, 1, 38, 127
1, 43997, Note_off_c, 1, 57, 0
1, 44010, Note_off_c, 1, 74, 0
1, 44039, Note_off_c, 1, 50, 0
1, 44039, Note_off_c, 1, 78, 0
1, 44039, Note_off_c, 1, 69, 0
1, 44039, Note_off_c, 1, 62, 0
1, 44039, Note_off_c, 1, 38, 0
1, 44040, Note_on_c, 1, 50, 127
1, 44040, Note_on_c, 1, 78, 127
1, 44040, Note_on_c, 1, 74, 127
1, 44040, Note_on_c, 1, 57, 127
1, 44040, Note_on_c, 1, 69, 127
1, 44040, Note_on_c, 1, 62, 127
1, 44040, Note_on_c, 1, 45, 127
1, 44099, Note_off_c, 1, 50, 0
1, 44099, Note_off_c, 1, 57, 0
1, 44099, Note_off_c, 1, 69, 0
1, 44099, Note_off_c, 1, 62, 0
1, 44100, Note_off_c, 1, 78, 0
1, 44100, Note_off_c, 1, 74, 0
1, 44100, Note_on_c, 1, 76, 127
1, 44100, Note_on_c, 1, 73, 127
1, 44100, Note_on_c, 1, 61, 127
1, 44129, Note_off_c, 1, 61, 0
1, 44130, Note_off_c, 1, 76, 0
1, 44130, Note_off_c, 1, 73, 0
1, 44130, Note_on_c, 1, 71, 127
1, 44130, Note_on_c, 1, 59, 127
1, 44159, Note_off_c, 1, 45, 0
1, 44159, Note_off_c, 1, 59, 0
1, 44160, Note_off_c, 1, 71, 0
1, 44220, Note_on_c, 1, 79, 127
1, 44220, Note_on_c, 1, 64, 127
1, 44279, Note_off_c, 1, 79, 0
1, 44279, Note_off_c, 1, 64, 0
1, 44280, Note_on_c, 1, 79, 127
1, 44280, Note_on_c, 1, 76, 127
1, 44280, Note_on_c, 1, 69, 127
1, 44280, Note_on_c, 1, 57, 127
1, 44280, Note_on_c, 1, 64, 127
1, 44280, Note_on_c, 1, 61, 127
1, 44280, Note_on_c, 1, 49, 127
1, 44297, Note_off_c, 1, 57, 0
1, 44309, Note_off_c, 1, 76, 0
1, 44339, Note_off_c, 1, 79, 0
1, 44339, Note_off_c, 1, 69, 0
1, 44339, Note_off_c, 1, 64, 0
1, 44339, Note_off_c, 1, 61, 0
1, 44339, Note_off_c, 1, 49, 0
1, 44340, Note_on_c, 1, 79, 127
1, 44340, Note_on_c, 1, 76, 127
1, 44340, Note_on_c, 1, 69, 127
1, 44340, Note_on_c, 1, 57, 127
1, 44340, Note_on_c, 1, 73, 127
1, 44340, Note_on_c, 1, 64, 127
1, 44340, Note_on_c, 1, 45, 127
1, 44369, Note_off_c, 1, 76, 0
1, 44369, Note_off_c, 1, 69, 0
1, 44399, Note_off_c, 1, 79, 0
1, 44399, Note_off_c, 1, 57, 0
1, 44399, Note_off_c, 1, 73, 0
1, 44399, Note_off_c, 1, 64, 0
1, 44399, Note_off_c, 1, 45, 0
1, 44400, Note_on_c, 1, 79, 127
1, 44400, Note_on_c, 1, 76, 127
1, 44400, Note_on_c, 1, 69, 127
1, 44400, Note_on_c, 1, 57, 127
1, 44400, Note_on_c, 1, 64, 127
1, 44400, Note_on_c, 1, 62, 127
1, 44400, Note_on_c, 1, 50, 127
1, 44417, Note_off_c, 1, 57, 0
1, 44459, Note_off_c, 1, 79, 0
1, 44459, Note_off_c, 1, 76, 0
1, 44459, Note_off_c, 1, 69, 0
1, 44459, Note_off_c, 1, 64, 0
1, 44459, Note_off_c, 1, 62, 0
1, 44460, Note_on_c, 1, 78, 127
1, 44460, Note_on_c, 1, 74, 127
1, 44489, Note_off_c, 1, 78, 0
1, 44489, Note_off_c, 1, 74, 0
1, 44490, Note_on_c, 1, 73, 127
1, 44490, Note_on_c, 1, 61, 127
1, 44519, Note_off_c, 1, 50, 0
1, 44519, Note_off_c, 1, 73, 0
1, 44519, Note_off_c, 1, 61, 0
1, 44520, Note_on_c, 1, 78, 127
1, 44520, Note_on_c, 1, 74, 127
1, 44520, Note_on_c, 1, 66, 127
1, 44520, Note_on_c, 1, 69, 127
1, 44520, Note_on_c, 1, 62, 127
1, 44549, Note_off_c, 1, 66, 0
1, 44550, Note_on_c, 1, 79, 127
1, 44550, Note_on_c, 1, 71, 127
1, 44550, Note_on_c, 1, 67, 127
1, 44579, Note_off_c, 1, 78, 0
1, 44579, Note_off_c, 1, 74, 0
1, 44579, Note_off_c, 1, 62, 0
1, 44579, Note_off_c, 1, 79, 0
1, 44579, Note_off_c, 1, 71, 0
1, 44579, Note_off_c, 1, 67, 0
1, 44580, Note_on_c, 1, 81, 127
1, 44580, Note_on_c, 1, 72, 127
1, 44580, Note_on_c, 1, 54, 127
1, 44580, Note_on_c, 1, 50, 127
1, 44609, Note_off_c, 1, 72, 0
1, 44609, Note_off_c, 1, 50, 0
1, 44610, Note_on_c, 1, 52, 127
1, 44639, Note_off_c, 1, 69, 0
1, 44639, Note_off_c, 1, 81, 0
1, 44639, Note_off_c, 1, 54, 0
1, 44639, Note_off_c, 1, 52, 0
1, 44640, Note_on_c, 1, 72, 127
1, 44640, Note_on_c, 1, 69, 127
1, 44640, Note_on_c, 1, 62, 127
1, 44640, Note_on_c, 1, 50, 127
1, 44640, Note_on_c, 1, 54, 127
1, 44669, Note_off_c, 1, 54, 0
1, 44670, Note_on_c, 1, 52, 127
1, 44699, Note_off_c, 1, 72, 0
1, 44699, Note_off_c, 1, 69, 0
1, 44699, Note_off_c, 1, 62, 0
1, 44699, Note_off_c, 1, 50, 0
1, 44699, Note_off_c, 1, 52, 0
1, 44700, Note_on_c, 1, 72, 127
1, 44700, Note_on_c, 1, 69, 127
1, 44700, Note_on_c, 1, 62, 127
1, 44700, Note_on_c, 1, 54, 127
1, 44730, Note_on_c, 1, 50, 127
1, 44759, Note_off_c, 1, 72, 0
1, 44759, Note_off_c, 1, 69, 0
1, 44759, Note_off_c, 1, 62, 0
1, 44759, Note_off_c, 1, 54, 0
1, 44759, Note_off_c, 1, 50, 0
1, 44760, Note_on_c, 1, 72, 127
1, 44760, Note_on_c, 1, 69, 127
1, 44760, Note_on_c, 1, 62, 127
1, 44760, Note_on_c, 1, 55, 127
1, 44775, Note_on_c, 1, 74, 127
1, 44775, Note_on_c, 1, 71, 127
1, 44790, Note_off_c, 1, 74, 0
1, 44790, Note_off_c, 1, 71, 0
1, 44790, Note_on_c, 1, 57, 127
1, 44819, Note_off_c, 1, 72, 0
1, 44819, Note_off_c, 1, 69, 0
1, 44819, Note_off_c, 1, 62, 0
1, 44819, Note_off_c, 1, 55, 0
1, 44819, Note_off_c, 1, 57, 0
1, 44820, Note_on_c, 1, 71, 127
1, 44820, Note_on_c, 1, 67, 127
1, 44820, Note_on_c, 1, 62, 127
1, 44820, Note_on_c, 1, 54, 127
1, 44850, Note_on_c, 1, 55, 127
1, 44879, Note_off_c, 1, 71, 0
1, 44879, Note_off_c, 1, 67, 0
1, 44879, Note_off_c, 1, 62, 0
1, 44879, Note_off_c, 1, 54, 0
1, 44879, Note_off_c, 1, 55, 0
1, 44880, Note_on_c, 1, 79, 127
1, 44880, Note_on_c, 1, 69, 127
1, 44880, Note_on_c, 1, 45, 127
1, 44880, Note_on_c, 1, 76, 127
1, 44880, Note_on_c, 1, 61, 127
1, 44880, Note_on_c, 1, 64, 127
1, 44880, Note_on_c, 1, 52, 127
1, 44910, Note_on_c, 1, 54, 127
1, 44939, Note_off_c, 1, 69, 0
1, 44939, Note_off_c, 1, 45, 0
1, 44939, Note_off_c, 1, 76, 0
1, 44939, Note_off_c, 1, 61, 0
1, 44939, Note_off_c, 1, 64, 0
1, 44939, Note_off_c, 1, 52, 0
1, 44939, Note_off_c, 1, 54, 0
1, 44940, Note_off_c, 1, 79, 0
1, 44940, Note_on_c, 1, 78, 127
1, 44940, Note_on_c, 1, 62, 127
1, 44940, Note_on_c, 1, 50, 127
1, 44940, Note_on_c, 1, 57, 127
1, 44969, Note_off_c, 1, 57, 0
1, 44970, Note_on_c, 1, 80, 127
1, 44970, Note_on_c, 1, 71, 127
1, 44970, Note_on_c, 1, 59, 127
1, 44999, Note_off_c, 1, 62, 0
1, 44999, Note_off_c, 1, 50, 0
1, 44999, Note_off_c, 1, 80, 0
1, 44999, Note_off_c, 1, 71, 0
1, 44999, Note_off_c, 1, 59, 0
1, 45000, Note_off_c, 1, 78, 0
1, 45000, Note_on_c, 1, 81, 127
1, 45000, Note_on_c, 1, 73, 127
1, 45014, Note_off_c, 1, 81, 0
1, 45059, Note_off_c, 1, 73, 0
1, 45060, Note_on_c, 1, 74, 127
1, 45120, Note_off_c, 1, 74, 0
1, 45255, Note_on_c, 1, 59, 127
1, 45269, Note_off_c, 1, 59, 0
1, 45270, Note_on_c, 1, 57, 127
1, 45284, Note_off_c, 1, 57, 0
1, 45285, Note_on_c, 1, 59, 127
1, 45299, Note_off_c, 1, 59, 0
1, 45300, Note_on_c, 1, 61, 127
1, 45330, Note_on_c, 1, 57, 127
1, 45359, Note_off_c, 1, 61, 0
1, 45359, Note_off_c, 1, 57, 0
1, 45360, Note_on_c, 1, 64, 127
1, 45360, Note_on_c, 1, 61, 127
1, 45360, Note_on_c, 1, 55, 127
1, 45389, Note_off_c, 1, 64, 0
1, 45389, Note_off_c, 1, 55, 0
1, 45390, Note_on_c, 1, 66, 127
1, 45390, Note_on_c, 1, 57, 127
1, 45419, Note_off_c, 1, 61, 0
1, 45419, Note_off_c, 1, 66, 0
1, 45419, Note_off_c, 1, 57, 0
1, 45420, Note_on_c, 1, 67, 127
1, 45420, Note_on_c, 1, 63, 127
1, 45420, Note_on_c, 1, 54, 127
1, 45434, Note_off_c, 1, 67, 0
1, 45435, Note_on_c, 1, 66, 127
1, 45449, Note_off_c, 1, 54, 0
1, 45449, Note_off_c, 1, 66, 0
1, 45450, Note_on_c, 1, 64, 127
1, 45450, Note_on_c, 1, 55, 127
1, 45464, Note_off_c, 1, 64, 0
1, 45479, Note_off_c, 1, 63, 0
1, 45479, Note_off_c, 1, 55, 0
1, 45480, Note_on_c, 1, 67, 127
1, 45480, Note_on_c, 1, 64, 127
1, 45480, Note_on_c, 1, 52, 127
1, 45509, Note_off_c, 1, 52, 0
1, 45510, Note_on_c, 1, 51, 127
1, 45539, Note_off_c, 1, 67, 0
1, 45539, Note_off_c, 1, 64, 0
1, 45539, Note_off_c, 1, 51, 0
1, 45540, Note_on_c, 1, 67, 127
1, 45540, Note_on_c, 1, 64, 127
1, 45540, Note_on_c, 1, 52, 127
1, 45569, Note_off_c, 1, 52, 0
1, 45570, Note_on_c, 1, 54, 127
1, 45570, Note_on_c, 1, 55, 127
1, 45599, Note_off_c, 1, 67, 0
1, 45599, Note_off_c, 1, 64, 0
1, 45599, Note_off_c, 1, 54, 0
1, 45599, Note_off_c, 1, 55, 0
1, 45600, Note_on_c, 1, 69, 127
1, 45600, Note_on_c, 1, 62, 127
1, 45600, Note_on_c, 1, 55, 127
1, 45600, Note_on_c, 1, 54, 127
1, 45614, Note_off_c, 1, 55, 0
1, 45629, Note_off_c, 1, 54, 0
1, 45630, Note_on_c, 1, 52, 127
1, 45630, Note_on_c, 1, 57, 127
1, 45644, Note_off_c, 1, 52, 0
1, 45659, Note_off_c, 1, 69, 0
1, 45659, Note_off_c, 1, 62, 0
1, 45659, Note_off_c, 1, 57, 0
1, 45660, Note_on_c, 1, 71, 127
1, 45660, Note_on_c, 1, 62, 127
1, 45660, Note_on_c, 1, 55, 127
1, 45690, Note_on_c, 1, 54, 127
1, 45719, Note_off_c, 1, 71, 0
1, 45719, Note_off_c, 1, 62, 0
1, 45719, Note_off_c, 1, 55, 0
1, 45719, Note_off_c, 1, 54, 0
1, 45720, Note_on_c, 1, 71, 127
1, 45720, Note_on_c, 1, 67, 127
1, 45720, Note_on_c, 1, 55, 127
1, 45750, Note_on_c, 1, 73, 127
1, 45750, Note_on_c, 1, 59, 127
1, 45779, Note_off_c, 1, 71, 0
1, 45779, Note_off_c, 1, 67, 0
1, 45779, Note_off_c, 1, 55, 0
1, 45779, Note_off_c, 1, 73, 0
1, 45779, Note_off_c, 1, 59, 0
1, 45780, Note_on_c, 1, 74, 127
1, 45780, Note_on_c, 1, 64, 127
1, 45780, Note_on_c, 1, 67, 127
1, 45780, Note_on_c, 1, 57, 127
1, 45794, Note_off_c, 1, 74, 0
1, 45795, Note_on_c, 1, 73, 127
1, 45809, Note_off_c, 1, 73, 0
1, 45810, Note_on_c, 1, 71, 127
1, 45810, Note_on_c, 1, 61, 127
1, 45824, Note_off_c, 1, 71, 0
1, 45839, Note_off_c, 1, 64, 0
1, 45839, Note_off_c, 1, 67, 0
1, 45839, Note_off_c, 1, 57, 0
1, 45839, Note_off_c, 1, 61, 0
1, 45840, Note_on_c, 1, 74, 127
1, 45840, Note_on_c, 1, 71, 127
1, 45840, Note_on_c, 1, 66, 127
1, 45840, Note_on_c, 1, 59, 127
1, 45870, Note_on_c, 1, 73, 127
1, 45870, Note_on_c, 1, 57, 127
1, 45899, Note_off_c, 1, 74, 0
1, 45899, Note_off_c, 1, 71, 0
1, 45899, Note_off_c, 1, 66, 0
1, 45899, Note_off_c, 1, 59, 0
1, 45899, Note_off_c, 1, 73, 0
1, 45899, Note_off_c, 1, 57, 0
1, 45900, Note_on_c, 1, 74, 127
1, 45900, Note_on_c, 1, 71, 127
1, 45900, Note_on_c, 1, 66, 127
1, 45900, Note_on_c, 1, 59, 127
1, 45930, Note_on_c, 1, 76, 127
1, 45930, Note_on_c, 1, 62, 127
1, 45959, Note_off_c, 1, 74, 0
1, 45959, Note_off_c, 1, 71, 0
1, 45959, Note_off_c, 1, 66, 0
1, 45959, Note_off_c, 1, 59, 0
1, 45959, Note_off_c, 1, 76, 0
1, 45959, Note_off_c, 1, 62, 0
1, 45960, Note_on_c, 1, 78, 127
1, 45960, Note_on_c, 1, 69, 127
1, 45960, Note_on_c, 1, 76, 127
1, 45960, Note_on_c, 1, 61, 127
1, 45974, Note_off_c, 1, 78, 0
1, 45990, Note_on_c, 1, 74, 127
1, 45990, Note_on_c, 1, 64, 127
1, 46004, Note_off_c, 1, 74, 0
1, 46019, Note_off_c, 1, 69, 0
1, 46019, Note_off_c, 1, 76, 0
1, 46019, Note_off_c, 1, 61, 0
1, 46019, Note_off_c, 1, 64, 0
1, 46020, Note_on_c, 1, 78, 127
1, 46020, Note_on_c, 1, 69, 127
1, 46020, Note_on_c, 1, 62, 127
1, 46050, Note_on_c, 1, 76, 127
1, 46050, Note_on_c, 1, 64, 127
1, 46079, Note_off_c, 1, 78, 0
1, 46079, Note_off_c, 1, 69, 0
1, 46079, Note_off_c, 1, 62, 0
1, 46079, Note_off_c, 1, 76, 0
1, 46079, Note_off_c, 1, 64, 0
1, 46080, Note_on_c, 1, 78, 127
1, 46080, Note_on_c, 1, 69, 127
1, 46080, Note_on_c, 1, 57, 127
1, 46080, Note_on_c, 1, 61, 127
1, 46109, Note_off_c, 1, 57, 0
1, 46110, Note_on_c, 1, 80, 127
1, 46110, Note_on_c, 1, 59, 127
1, 46110, Note_on_c, 1, 62, 127
1, 46139, Note_off_c, 1, 78, 0
1, 46139, Note_off_c, 1, 69, 0
1, 46139, Note_off_c, 1, 61, 0
1, 46139, Note_off_c, 1, 80, 0
1, 46139, Note_off_c, 1, 59, 0
1, 46139, Note_off_c, 1, 62, 0
1, 46140, Note_on_c, 1, 81, 127
1, 46140, Note_on_c, 1, 74, 127
1, 46140, Note_on_c, 1, 61, 127
1, 46140, Note_on_c, 1, 80, 127
1, 46140, Note_on_c, 1, 59, 127
1, 46154, Note_off_c, 1, 81, 0
1, 46154, Note_off_c, 1, 61, 0
1, 46170, Note_on_c, 1, 78, 127
1, 46170, Note_on_c, 1, 57, 127
1, 46184, Note_off_c, 1, 78, 0
1, 46184, Note_off_c, 1, 57, 0
1, 46199, Note_off_c, 1, 74, 0
1, 46199, Note_off_c, 1, 80, 0
1, 46199, Note_off_c, 1, 59, 0
1, 46200, Note_on_c, 1, 81, 127
1, 46200, Note_on_c, 1, 76, 127
1, 46200, Note_on_c, 1, 61, 127
1, 46200, Note_on_c, 1, 57, 127
1, 46259, Note_off_c, 1, 81, 0
1, 46259, Note_off_c, 1, 76, 0
1, 46259, Note_off_c, 1, 61, 0
1, 46259, Note_off_c, 1, 57, 0
1, 46260, Note_on_c, 1, 73, 127
1, 46260, Note_on_c, 1, 64, 127
1, 46260, Note_on_c, 1, 61, 127
1, 46260, Note_on_c, 1, 76, 127
1, 46260, Note_on_c, 1, 57, 127
1, 46260, Note_on_c, 1, 45, 127
1, 46289, Note_off_c, 1, 73, 0
1, 46289, Note_off_c, 1, 61, 0
1, 46289, Note_off_c, 1, 45, 0
1, 46290, Note_on_c, 1, 81, 127
1, 46290, Note_on_c, 1, 62, 127
1, 46290, Note_on_c, 1, 49, 127
1, 46319, Note_off_c, 1, 64, 0
1, 46319, Note_off_c, 1, 76, 0
1, 46319, Note_off_c, 1, 57, 0
1, 46319, Note_off_c, 1, 81, 0
1, 46319, Note_off_c, 1, 62, 0
1, 46319, Note_off_c, 1, 49, 0
1, 46320, Note_on_c, 1, 71, 127
1, 46320, Note_on_c, 1, 68, 127
1, 46320, Note_on_c, 1, 64, 127
1, 46320, Note_on_c, 1, 76, 127
1, 46320, Note_on_c, 1, 47, 127
1, 46334, Note_off_c, 1, 64, 0
1, 46335, Note_on_c, 1, 62, 127
1, 46349, Note_off_c, 1, 71, 0
1, 46349, Note_off_c, 1, 47, 0
1, 46349, Note_off_c, 1, 62, 0
1, 46350, Note_on_c, 1, 80, 127
1, 46350, Note_on_c, 1, 61, 127
1, 46350, Note_on_c, 1, 50, 127
1, 46364, Note_off_c, 1, 61, 0
1, 46379, Note_off_c, 1, 68, 0
1, 46379, Note_off_c, 1, 76, 0
1, 46379, Note_off_c, 1, 80, 0
1, 46379, Note_off_c, 1, 50, 0
1, 46380, Note_on_c, 1, 69, 127
1, 46380, Note_on_c, 1, 64, 127
1, 46380, Note_on_c, 1, 76, 127
1, 46380, Note_on_c, 1, 49, 127
1, 46409, Note_off_c, 1, 49, 0
1, 46410, Note_on_c, 1, 62, 127
1, 46410, Note_on_c, 1, 47, 127
1, 46439, Note_off_c, 1, 64, 0
1, 46439, Note_off_c, 1, 76, 0
1, 46439, Note_off_c, 1, 62, 0
1, 46439, Note_off_c, 1, 47, 0
1, 46440, Note_on_c, 1, 73, 127
1, 46440, Note_on_c, 1, 57, 127
1, 46470, Note_on_c, 1, 66, 127
1, 46470, Note_on_c, 1, 51, 127
1, 46470, Note_on_c, 1, 52, 127
1, 46499, Note_off_c, 1, 69, 0
1, 46499, Note_off_c, 1, 73, 0
1, 46499, Note_off_c, 1, 57, 0
1, 46499, Note_off_c, 1, 66, 0
1, 46499, Note_off_c, 1, 51, 0
1, 46499, Note_off_c, 1, 52, 0
1, 46500, Note_on_c, 1, 67, 127
1, 46500, Note_on_c, 1, 69, 127
1, 46500, Note_on_c, 1, 66, 127
1, 46500, Note_on_c, 1, 52, 127
1, 46500, Note_on_c, 1, 51, 127
1, 46514, Note_off_c, 1, 67, 0
1, 46514, Note_off_c, 1, 52, 0
1, 46529, Note_off_c, 1, 51, 0
1, 46530, Note_on_c, 1, 64, 127
1, 46530, Note_on_c, 1, 49, 127
1, 46530, Note_on_c, 1, 54, 127
1, 46544, Note_off_c, 1, 64, 0
1, 46544, Note_off_c, 1, 49, 0
1, 46559, Note_off_c, 1, 69, 0
1, 46559, Note_off_c, 1, 66, 0
1, 46559, Note_off_c, 1, 54, 0
1, 46560, Note_on_c, 1, 67, 127
1, 46560, Note_on_c, 1, 52, 127
1, 46590, Note_on_c, 1, 50, 127
1, 46619, Note_off_c, 1, 67, 0
1, 46619, Note_off_c, 1, 52, 0
1, 46619, Note_off_c, 1, 50, 0
1, 46620, Note_on_c, 1, 67, 127
1, 46620, Note_on_c, 1, 64, 127
1, 46620, Note_on_c, 1, 60, 127
1, 46620, Note_on_c, 1, 52, 127
1, 46649, Note_off_c, 1, 67, 0
1, 46650, Note_on_c, 1, 69, 127
1, 46650, Note_on_c, 1, 55, 127
1, 46679, Note_off_c, 1, 64, 0
1, 46679, Note_off_c, 1, 60, 0
1, 46679, Note_off_c, 1, 52, 0
1, 46679, Note_off_c, 1, 69, 0
1, 46679, Note_off_c, 1, 55, 0
1, 46680, Note_on_c, 1, 71, 127
1, 46680, Note_on_c, 1, 62, 127
1, 46680, Note_on_c, 1, 60, 127
1, 46680, Note_on_c, 1, 54, 127
1, 46694, Note_off_c, 1, 71, 0
1, 46695, Note_on_c, 1, 69, 127
1, 46709, Note_off_c, 1, 69, 0
1, 46710, Note_on_c, 1, 67, 127
1, 46710, Note_on_c, 1, 57, 127
1, 46724, Note_off_c, 1, 67, 0
1, 46739, Note_off_c, 1, 60, 0
1, 46739, Note_off_c, 1, 54, 0
1, 46739, Note_off_c, 1, 57, 0
1, 46740, Note_on_c, 1, 59, 127
1, 46740, Note_on_c, 1, 55, 127
1, 46770, Note_on_c, 1, 61, 127
1, 46799, Note_off_c, 1, 62, 0
1, 46799, Note_off_c, 1, 59, 0
1, 46799, Note_off_c, 1, 55, 0
1, 46799, Note_off_c, 1, 61, 0
1, 46830, Note_on_c, 1, 73, 127
1, 46830, Note_on_c, 1, 64, 127
1, 46859, Note_off_c, 1, 73, 0
1, 46859, Note_off_c, 1, 64, 0
1, 46860, Note_on_c, 1, 74, 127
1, 46860, Note_on_c, 1, 66, 127
1, 46860, Note_on_c, 1, 55, 127
1, 46860, Note_on_c, 1, 73, 127
1, 46860, Note_on_c, 1, 64, 127
1, 46860, Note_on_c, 1, 52, 127
1, 46874, Note_off_c, 1, 74, 0
1, 46874, Note_off_c, 1, 66, 0
1, 46890, Note_on_c, 1, 71, 127
1, 46890, Note_on_c, 1, 62, 127
1, 46890, Note_on_c, 1, 57, 127
1, 46890, Note_on_c, 1, 54, 127
1, 46904, Note_off_c, 1, 71, 0
1, 46904, Note_off_c, 1, 62, 0
1, 46919, Note_off_c, 1, 55, 0
1, 46919, Note_off_c, 1, 73, 0
1, 46919, Note_off_c, 1, 64, 0
1, 46919, Note_off_c, 1, 52, 0
1, 46919, Note_off_c, 1, 57, 0
1, 46919, Note_off_c, 1, 54, 0
1, 46920, Note_on_c, 1, 74, 127
1, 46920, Note_on_c, 1, 66, 127
1, 46920, Note_on_c, 1, 54, 127
1, 46920, Note_on_c, 1, 50, 127
1, 46949, Note_off_c, 1, 66, 0
1, 46950, Note_on_c, 1, 64, 127
1, 46950, Note_on_c, 1, 49, 127
1, 46979, Note_off_c, 1, 74, 0
1, 46979, Note_off_c, 1, 54, 0
1, 46979, Note_off_c, 1, 50, 0
1, 46979, Note_off_c, 1, 64, 0
1, 46979, Note_off_c, 1, 49, 0
1, 46980, Note_on_c, 1, 74, 127
1, 46980, Note_on_c, 1, 66, 127
1, 46980, Note_on_c, 1, 57, 127
1, 46980, Note_on_c, 1, 50, 127
1, 47009, Note_off_c, 1, 66, 0
1, 47010, Note_on_c, 1, 69, 127
1, 47010, Note_on_c, 1, 54, 127
1, 47039, Note_off_c, 1, 74, 0
1, 47039, Note_off_c, 1, 57, 0
1, 47039, Note_off_c, 1, 50, 0
1, 47039, Note_off_c, 1, 69, 0
1, 47039, Note_off_c, 1, 54, 0
1, 47040, Note_on_c, 1, 73, 127
1, 47040, Note_on_c, 1, 69, 127
1, 47040, Note_on_c, 1, 64, 127
1, 47040, Note_on_c, 1, 67, 127
1, 47040, Note_on_c, 1, 52, 127
1, 47054, Note_off_c, 1, 69, 0
1, 47069, Note_off_c, 1, 67, 0
1, 47070, Note_on_c, 1, 66, 127
1, 47070, Note_on_c, 1, 71, 127
1, 47070, Note_on_c, 1, 55, 127
1, 47084, Note_off_c, 1, 66, 0
1, 47099, Note_off_c, 1, 73, 0
1, 47099, Note_off_c, 1, 64, 0
1, 47099, Note_off_c, 1, 52, 0
1, 47099, Note_off_c, 1, 71, 0
1, 47099, Note_off_c, 1, 55, 0
1, 47100, Note_on_c, 1, 74, 127
1, 47100, Note_on_c, 1, 69, 127
1, 47100, Note_on_c, 1, 62, 127
1, 47100, Note_on_c, 1, 54, 127
1, 47129, Note_off_c, 1, 54, 0
1, 47130, Note_on_c, 1, 73, 127
1, 47130, Note_on_c, 1, 52, 127
1, 47159, Note_off_c, 1, 74, 0
1, 47159, Note_off_c, 1, 69, 0
1, 47159, Note_off_c, 1, 62, 0
1, 47159, Note_off_c, 1, 73, 0
1, 47159, Note_off_c, 1, 52, 0
1, 47160, Note_on_c, 1, 74, 127
1, 47160, Note_on_c, 1, 62, 127
1, 47160, Note_on_c, 1, 57, 127
1, 47160, Note_on_c, 1, 78, 127
1, 47160, Note_on_c, 1, 54, 127
1, 47189, Note_off_c, 1, 74, 0
1, 47189, Note_off_c, 1, 57, 0
1, 47189, Note_off_c, 1, 54, 0
1, 47190, Note_on_c, 1, 61, 127
1, 47219, Note_off_c, 1, 62, 0
1, 47219, Note_off_c, 1, 78, 0
1, 47219, Note_off_c, 1, 61, 0
1, 47220, Note_on_c, 1, 76, 127
1, 47220, Note_on_c, 1, 61, 127
1, 47220, Note_on_c, 1, 56, 127
1, 47234, Note_off_c, 1, 61, 0
1, 47235, Note_on_c, 1, 59, 127
1, 47249, Note_off_c, 1, 56, 0
1, 47249, Note_off_c, 1, 59, 0
1, 47250, Note_on_c, 1, 74, 127
1, 47250, Note_on_c, 1, 57, 127
1, 47264, Note_off_c, 1, 57, 0
1, 47279, Note_off_c, 1, 76, 0
1, 47279, Note_off_c, 1, 74, 0
1, 47280, Note_on_c, 1, 73, 127
1, 47280, Note_on_c, 1, 61, 127
1, 47280, Note_on_c, 1, 57, 127
1, 47309, Note_off_c, 1, 57, 0
1, 47310, Note_on_c, 1, 71, 127
1, 47310, Note_on_c, 1, 64, 127
1, 47310, Note_on_c, 1, 56, 127
1, 47339, Note_off_c, 1, 73, 0
1, 47339, Note_off_c, 1, 61, 0
1, 47339, Note_off_c, 1, 71, 0
1, 47339, Note_off_c, 1, 64, 0
1, 47339, Note_off_c, 1, 56, 0
1, 47340, Note_on_c, 1, 73, 127
1, 47340, Note_on_c, 1, 64, 127
1, 47340, Note_on_c, 1, 69, 127
1, 47340, Note_on_c, 1, 57, 127
1, 47369, Note_off_c, 1, 69, 0
1, 47369, Note_off_c, 1, 57, 0
1, 47370, Note_on_c, 1, 76, 127
1, 47370, Note_on_c, 1, 67, 127
1, 47370, Note_on_c, 1, 59, 127
1, 47399, Note_off_c, 1, 73, 0
1, 47399, Note_off_c, 1, 64, 0
1, 47399, Note_off_c, 1, 76, 0
1, 47399, Note_off_c, 1, 67, 0
1, 47399, Note_off_c, 1, 59, 0
1, 47400, Note_on_c, 1, 75, 127
1, 47400, Note_on_c, 1, 67, 127
1, 47400, Note_on_c, 1, 66, 127
1, 47400, Note_on_c, 1, 59, 127
1, 47400, Note_on_c, 1, 57, 127
1, 47414, Note_off_c, 1, 67, 0
1, 47429, Note_off_c, 1, 66, 0
1, 47429, Note_off_c, 1, 57, 0
1, 47430, Note_on_c, 1, 78, 127
1, 47430, Note_on_c, 1, 64, 127
1, 47444, Note_off_c, 1, 64, 0
1, 47459, Note_off_c, 1, 75, 0
1, 47459, Note_off_c, 1, 59, 0
1, 47459, Note_off_c, 1, 78, 0
1, 47460, Note_on_c, 1, 76, 127
1, 47460, Note_on_c, 1, 67, 127
1, 47460, Note_on_c, 1, 59, 127
1, 47460, Note_on_c, 1, 55, 127
1, 47490, Note_on_c, 1, 75, 127
1, 47490, Note_on_c, 1, 71, 127
1, 47490, Note_on_c, 1, 54, 127
1, 47519, Note_off_c, 1, 76, 0
1, 47519, Note_off_c, 1, 67, 0
1, 47519, Note_off_c, 1, 55, 0
1, 47519, Note_off_c, 1, 75, 0
1, 47519, Note_off_c, 1, 71, 0
1, 47519, Note_off_c, 1, 54, 0
1, 47550, Note_on_c, 1, 78, 127
1, 47550, Note_on_c, 1, 60, 127
1, 47550, Note_on_c, 1, 57, 127
1, 47579, Note_off_c, 1, 59, 0
1, 47579, Note_off_c, 1, 78, 0
1, 47579, Note_off_c, 1, 60, 0
1, 47579, Note_off_c, 1, 57, 0
1, 47580, Note_on_c, 1, 79, 127
1, 47580, Note_on_c, 1, 75, 127
1, 47580, Note_on_c, 1, 57, 127
1, 47580, Note_on_c, 1, 69, 127
1, 47580, Note_on_c, 1, 54, 127
1, 47594, Note_off_c, 1, 79, 0
1, 47595, Note_on_c, 1, 78, 127
1, 47609, Note_off_c, 1, 75, 0
1, 47609, Note_off_c, 1, 57, 0
1, 47609, Note_off_c, 1, 78, 0
1, 47610, Note_on_c, 1, 76, 127
1, 47610, Note_on_c, 1, 59, 127
1, 47610, Note_on_c, 1, 55, 127
1, 47624, Note_off_c, 1, 76, 0
1, 47639, Note_off_c, 1, 69, 0
1, 47639, Note_off_c, 1, 54, 0
1, 47639, Note_off_c, 1, 59, 0
1, 47639, Note_off_c, 1, 55, 0
1, 47640, Note_on_c, 1, 79, 127
1, 47640, Note_on_c, 1, 76, 127
1, 47640, Note_on_c, 1, 55, 127
1, 47640, Note_on_c, 1, 71, 127
1, 47640, Note_on_c, 1, 59, 127
1, 47640, Note_on_c, 1, 52, 127
1, 47670, Note_on_c, 1, 78, 127
1, 47670, Note_on_c, 1, 50, 127
1, 47699, Note_off_c, 1, 79, 0
1, 47699, Note_off_c, 1, 76, 0
1, 47699, Note_off_c, 1, 55, 0
1, 47699, Note_off_c, 1, 71, 0
1, 47699, Note_off_c, 1, 59, 0
1, 47699, Note_off_c, 1, 52, 0
1, 47699, Note_off_c, 1, 78, 0
1, 47699, Note_off_c, 1, 50, 0
1, 47700, Note_on_c, 1, 76, 127
1, 47700, Note_on_c, 1, 71, 127
1, 47700, Note_on_c, 1, 59, 127
1, 47700, Note_on_c, 1, 79, 127
1, 47700, Note_on_c, 1, 64, 127
1, 47700, Note_on_c, 1, 52, 127
1, 47729, Note_off_c, 1, 76, 0
1, 47730, Note_on_c, 1, 74, 127
1, 47730, Note_on_c, 1, 54, 127
1, 47759, Note_off_c, 1, 71, 0
1, 47759, Note_off_c, 1, 59, 0
1, 47759, Note_off_c, 1, 79, 0
1, 47759, Note_off_c, 1, 64, 0
1, 47759, Note_off_c, 1, 52, 0
1, 47759, Note_off_c, 1, 74, 0
1, 47759, Note_off_c, 1, 54, 0
1, 47760, Note_on_c, 1, 73, 127
1, 47760, Note_on_c, 1, 67, 127
1, 47760, Note_on_c, 1, 64, 127
1, 47760, Note_on_c, 1, 71, 127
1, 47760, Note_on_c, 1, 50, 127
1, 47789, Note_off_c, 1, 73, 0
1, 47790, Note_on_c, 1, 52, 127
1, 47819, Note_off_c, 1, 64, 0
1, 47819, Note_off_c, 1, 71, 0
1, 47819, Note_off_c, 1, 50, 0
1, 47819, Note_off_c, 1, 52, 0
1, 47820, Note_on_c, 1, 70, 127
1, 47820, Note_on_c, 1, 49, 127
1, 47849, Note_off_c, 1, 70, 0
1, 47849, Note_off_c, 1, 49, 0
1, 47850, Note_on_c, 1, 47, 127
1, 47879, Note_off_c, 1, 67, 0
1, 47879, Note_off_c, 1, 47, 0
1, 47880, Note_on_c, 1, 76, 127
1, 47880, Note_on_c, 1, 67, 127
1, 47880, Note_on_c, 1, 58, 127
1, 47880, Note_on_c, 1, 49, 127
1, 47909, Note_off_c, 1, 49, 0
1, 47910, Note_on_c, 1, 50, 127
1, 47939, Note_off_c, 1, 67, 0
1, 47939, Note_off_c, 1, 58, 0
1, 47939, Note_off_c, 1, 50, 0
1, 47940, Note_on_c, 1, 59, 127
1, 47940, Note_on_c, 1, 64, 127
1, 47940, Note_on_c, 1, 47, 127
1, 47969, Note_off_c, 1, 47, 0
1, 47999, Note_off_c, 1, 76, 0
1, 47999, Note_off_c, 1, 59, 0
1, 47999, Note_off_c, 1, 64, 0
1, 48000, Note_on_c, 1, 67, 127
1, 48000, Note_on_c, 1, 61, 127
1, 48000, Note_on_c, 1, 64, 127
1, 48000, Note_on_c, 1, 46, 127
1, 48015, Note_on_c, 1, 66, 127
1, 48029, Note_off_c, 1, 46, 0
1, 48029, Note_off_c, 1, 66, 0
1, 48030, Note_on_c, 1, 55, 127
1, 48059, Note_off_c, 1, 67, 0
1, 48059, Note_off_c, 1, 61, 0
1, 48059, Note_off_c, 1, 64, 0
1, 48059, Note_off_c, 1, 55, 0
1, 48060, Note_on_c, 1, 64, 127
1, 48060, Note_on_c, 1, 70, 127
1, 48060, Note_on_c, 1, 61, 127
1, 48060, Note_on_c, 1, 58, 127
1, 48060, Note_on_c, 1, 66, 127
1, 48060, Note_on_c, 1, 54, 127
1, 48089, Note_off_c, 1, 64, 0
1, 48089, Note_off_c, 1, 54, 0
1, 48090, Note_on_c, 1, 55, 127
1, 48119, Note_off_c, 1, 70, 0
1, 48119, Note_off_c, 1, 61, 0
1, 48119, Note_off_c, 1, 58, 0
1, 48119, Note_off_c, 1, 55, 0
1, 48120, Note_on_c, 1, 73, 127
1, 48120, Note_on_c, 1, 52, 127
1, 48149, Note_off_c, 1, 52, 0
1, 48179, Note_off_c, 1, 73, 0
1, 48180, Note_on_c, 1, 74, 127
1, 48180, Note_on_c, 1, 59, 127
1, 48180, Note_on_c, 1, 78, 127
1, 48180, Note_on_c, 1, 50, 127
1, 48210, Note_on_c, 1, 68, 127
1, 48210, Note_on_c, 1, 49, 127
1, 48224, Note_off_c, 1, 68, 0
1, 48239, Note_off_c, 1, 66, 0
1, 48239, Note_off_c, 1, 74, 0
1, 48239, Note_off_c, 1, 59, 0
1, 48239, Note_off_c, 1, 78, 0
1, 48239, Note_off_c, 1, 50, 0
1, 48239, Note_off_c, 1, 49, 0
1, 48240, Note_on_c, 1, 71, 127
1, 48240, Note_on_c, 1, 66, 127
1, 48240, Note_on_c, 1, 78, 127
1, 48240, Note_on_c, 1, 54, 127
1, 48240, Note_on_c, 1, 62, 127
1, 48240, Note_on_c, 1, 50, 127
1, 48269, Note_off_c, 1, 50, 0
1, 48270, Note_on_c, 1, 73, 127
1, 48270, Note_on_c, 1, 52, 127
1, 48284, Note_off_c, 1, 73, 0
1, 48285, Note_on_c, 1, 75, 127
1, 48299, Note_off_c, 1, 71, 0
1, 48299, Note_off_c, 1, 66, 0
1, 48299, Note_off_c, 1, 78, 0
1, 48299, Note_off_c, 1, 54, 0
1, 48299, Note_off_c, 1, 62, 0
1, 48299, Note_off_c, 1, 52, 0
1, 48299, Note_off_c, 1, 75, 0
1, 48300, Note_on_c, 1, 76, 127
1, 48300, Note_on_c, 1, 70, 127
1, 48300, Note_on_c, 1, 66, 127
1, 48300, Note_on_c, 1, 61, 127
1, 48300, Note_on_c, 1, 49, 127
1, 48329, Note_off_c, 1, 49, 0
1, 48330, Note_on_c, 1, 50, 127
1, 48359, Note_off_c, 1, 70, 0
1, 48359, Note_off_c, 1, 66, 0
1, 48359, Note_off_c, 1, 61, 0
1, 48359, Note_off_c, 1, 50, 0
1, 48360, Note_on_c, 1, 71, 127
1, 48360, Note_on_c, 1, 59, 127
1, 48360, Note_on_c, 1, 47, 127
1, 48389, Note_off_c, 1, 47, 0
1, 48390, Note_on_c, 1, 74, 127
1, 48390, Note_on_c, 1, 46, 127
1, 48404, Note_off_c, 1, 74, 0
1, 48405, Note_on_c, 1, 73, 127
1, 48419, Note_off_c, 1, 76, 0
1, 48419, Note_off_c, 1, 71, 0
1, 48419, Note_off_c, 1, 46, 0
1, 48419, Note_off_c, 1, 73, 0
1, 48479, Note_off_c, 1, 59, 0
1, 48480, Note_on_c, 1, 74, 127
1, 48480, Note_on_c, 1, 66, 127
1, 48480, Note_on_c, 1, 67, 127
1, 48480, Note_on_c, 1, 59, 127
1, 48480, Note_on_c, 1, 71, 127
1, 48480, Note_on_c, 1, 62, 127
1, 48480, Note_on_c, 1, 57, 127
1, 48480, Note_on_c, 1, 45, 127
1, 48509, Note_off_c, 1, 74, 0
1, 48509, Note_off_c, 1, 45, 0
1, 48510, Note_on_c, 1, 47, 127
1, 48525, Note_on_c, 1, 73, 127
1, 48539, Note_off_c, 1, 67, 0
1, 48539, Note_off_c, 1, 59, 0
1, 48539, Note_off_c, 1, 57, 0
1, 48539, Note_off_c, 1, 47, 0
1, 48539, Note_off_c, 1, 73, 0
1, 48540, Note_on_c, 1, 56, 127
1, 48540, Note_on_c, 1, 44, 127
1, 48569, Note_off_c, 1, 44, 0
1, 48570, Note_on_c, 1, 78, 127
1, 48570, Note_on_c, 1, 42, 127
1, 48584, Note_off_c, 1, 78, 0
1, 48585, Note_on_c, 1, 76, 127
1, 48599, Note_off_c, 1, 66, 0
1, 48599, Note_off_c, 1, 71, 0
1, 48599, Note_off_c, 1, 62, 0
1, 48599, Note_off_c, 1, 56, 0
1, 48599, Note_off_c, 1, 42, 0
1, 48599, Note_off_c, 1, 76, 0
1, 48600, Note_on_c, 1, 74, 127
1, 48600, Note_on_c, 1, 71, 127
1, 48600, Note_on_c, 1, 52, 127
1, 48600, Note_on_c, 1, 64, 127
1, 48600, Note_on_c, 1, 59, 127
1, 48600, Note_on_c, 1, 56, 127
1, 48600, Note_on_c, 1, 44, 127
1, 48629, Note_off_c, 1, 71, 0
1, 48629, Note_off_c, 1, 64, 0
1, 48629, Note_off_c, 1, 44, 0
1, 48630, Note_on_c, 1, 78, 127
1, 48630, Note_on_c, 1, 61, 127
1, 48630, Note_on_c, 1, 45, 127
1, 48644, Note_off_c, 1, 78, 0
1, 48645, Note_on_c, 1, 76, 127
1, 48645, Note_on_c, 1, 73, 127
1, 48659, Note_off_c, 1, 74, 0
1, 48659, Note_off_c, 1, 52, 0
1, 48659, Note_off_c, 1, 59, 0
1, 48659, Note_off_c, 1, 56, 0
1, 48659, Note_off_c, 1, 61, 0
1, 48659, Note_off_c, 1, 45, 0
1, 48659, Note_off_c, 1, 76, 0
1, 48659, Note_off_c, 1, 73, 0
1, 48660, Note_on_c, 1, 74, 127
1, 48660, Note_on_c, 1, 71, 127
1, 48660, Note_on_c, 1, 54, 127
1, 48660, Note_on_c, 1, 62, 127
1, 48660, Note_on_c, 1, 66, 127
1, 48660, Note_on_c, 1, 42, 127
1, 48689, Note_off_c, 1, 42, 0
1, 48690, Note_on_c, 1, 44, 127
1, 48719, Note_off_c, 1, 54, 0
1, 48719, Note_off_c, 1, 62, 0
1, 48719, Note_off_c, 1, 66, 0
1, 48719, Note_off_c, 1, 44, 0
1, 48720, Note_on_c, 1, 56, 127
1, 48720, Note_on_c, 1, 68, 127
1, 48720, Note_on_c, 1, 64, 127
1, 48720, Note_on_c, 1, 59, 127
1, 48720, Note_on_c, 1, 52, 127
1, 48720, Note_on_c, 1, 40, 127
1, 48749, Note_off_c, 1, 74, 0
1, 48749, Note_off_c, 1, 71, 0
1, 48749, Note_off_c, 1, 40, 0
1, 48765, Note_on_c, 1, 73, 127
1, 48765, Note_on_c, 1, 69, 127
1, 48779, Note_off_c, 1, 56, 0
1, 48779, Note_off_c, 1, 68, 0
1, 48779, Note_off_c, 1, 64, 0
1, 48779, Note_off_c, 1, 59, 0
1, 48779, Note_off_c, 1, 52, 0
1, 48779, Note_off_c, 1, 73, 0
1, 48779, Note_off_c, 1, 69, 0
1, 48780, Note_on_c, 1, 74, 127
1, 48780, Note_on_c, 1, 71, 127
1, 48780, Note_on_c, 1, 68, 127
1, 48780, Note_on_c, 1, 64, 127
1, 48780, Note_on_c, 1, 59, 127
1, 48780, Note_on_c, 1, 52, 127
1, 48809, Note_off_c, 1, 74, 0
1, 48809, Note_off_c, 1, 71, 0
1, 48810, Note_on_c, 1, 54, 127
1, 48825, Note_on_c, 1, 73, 127
1, 48825, Note_on_c, 1, 69, 127
1, 48839, Note_off_c, 1, 68, 0
1, 48839, Note_off_c, 1, 64, 0
1, 48839, Note_off_c, 1, 59, 0
1, 48839, Note_off_c, 1, 52, 0
1, 48839, Note_off_c, 1, 54, 0
1, 48839, Note_off_c, 1, 73, 0
1, 48839, Note_off_c, 1, 69, 0
1, 48840, Note_on_c, 1, 74, 127
1, 48840, Note_on_c, 1, 71, 127
1, 48840, Note_on_c, 1, 66, 127
1, 48840, Note_on_c, 1, 59, 127
1, 48840, Note_on_c, 1, 50, 127
1, 48870, Note_on_c, 1, 52, 127
1, 48899, Note_off_c, 1, 66, 0
1, 48899, Note_off_c, 1, 59, 0
1, 48899, Note_off_c, 1, 50, 0
1, 48899, Note_off_c, 1, 52, 0
1, 48900, Note_on_c, 1, 64, 127
1, 48900, Note_on_c, 1, 76, 127
1, 48900, Note_on_c, 1, 68, 127
1, 48900, Note_on_c, 1, 49, 127
1, 48929, Note_off_c, 1, 74, 0
1, 48929, Note_off_c, 1, 71, 0
1, 48930, Note_on_c, 1, 73, 127
1, 48930, Note_on_c, 1, 47, 127
1, 48944, Note_off_c, 1, 73, 0
1, 48959, Note_off_c, 1, 64, 0
1, 48959, Note_off_c, 1, 76, 0
1, 48959, Note_off_c, 1, 68, 0
1, 48959, Note_off_c, 1, 49, 0
1, 48959, Note_off_c, 1, 47, 0
1, 48960, Note_on_c, 1, 76, 127
1, 48960, Note_on_c, 1, 69, 127
1, 48960, Note_on_c, 1, 64, 127
1, 48960, Note_on_c, 1, 57, 127
1, 48960, Note_on_c, 1, 61, 127
1, 48960, Note_on_c, 1, 49, 127
1, 48989, Note_off_c, 1, 49, 0
1, 48990, Note_on_c, 1, 74, 127
1, 48990, Note_on_c, 1, 50, 127
1, 49004, Note_off_c, 1, 74, 0
1, 49005, Note_on_c, 1, 73, 127
1, 49019, Note_off_c, 1, 76, 0
1, 49019, Note_off_c, 1, 69, 0
1, 49019, Note_off_c, 1, 64, 0
1, 49019, Note_off_c, 1, 57, 0
1, 49019, Note_off_c, 1, 61, 0
1, 49019, Note_off_c, 1, 50, 0
1, 49019, Note_off_c, 1, 73, 0
1, 49020, Note_on_c, 1, 74, 127
1, 49020, Note_on_c, 1, 68, 127
1, 49020, Note_on_c, 1, 64, 127
1, 49020, Note_on_c, 1, 59, 127
1, 49020, Note_on_c, 1, 47, 127
1, 49049, Note_off_c, 1, 47, 0
1, 49050, Note_on_c, 1, 73, 127
1, 49050, Note_on_c, 1, 49, 127
1, 49064, Note_off_c, 1, 73, 0
1, 49065, Note_on_c, 1, 71, 127
1, 49079, Note_off_c, 1, 74, 0
1, 49079, Note_off_c, 1, 68, 0
1, 49079, Note_off_c, 1, 64, 0
1, 49079, Note_off_c, 1, 59, 0
1, 49079, Note_off_c, 1, 49, 0
1, 49079, Note_off_c, 1, 71, 0
1, 49080, Note_on_c, 1, 73, 127
1, 49080, Note_on_c, 1, 69, 127
1, 49080, Note_on_c, 1, 64, 127
1, 49080, Note_on_c, 1, 57, 127
1, 49080, Note_on_c, 1, 45, 127
1, 49109, Note_off_c, 1, 45, 0
1, 49110, Note_on_c, 1, 76, 127
1, 49110, Note_on_c, 1, 44, 127
1, 49124, Note_off_c, 1, 76, 0
1, 49125, Note_on_c, 1, 74, 127
1, 49125, Note_on_c, 1, 71, 127
1, 49139, Note_off_c, 1, 44, 0
1, 49139, Note_off_c, 1, 74, 0
1, 49139, Note_off_c, 1, 71, 0
1, 49170, Note_on_c, 1, 47, 127
1, 49199, Note_off_c, 1, 73, 0
1, 49199, Note_off_c, 1, 69, 0
1, 49199, Note_off_c, 1, 64, 0
1, 49199, Note_off_c, 1, 57, 0
1, 49199, Note_off_c, 1, 47, 0
1, 49200, Note_on_c, 1, 73, 127
1, 49200, Note_on_c, 1, 69, 127
1, 49200, Note_on_c, 1, 64, 127
1, 49200, Note_on_c, 1, 56, 127
1, 49200, Note_on_c, 1, 44, 127
1, 49229, Note_off_c, 1, 44, 0
1, 49230, Note_on_c, 1, 45, 127
1, 49245, Note_on_c, 1, 71, 127
1, 49259, Note_off_c, 1, 64, 0
1, 49259, Note_off_c, 1, 56, 0
1, 49259, Note_off_c, 1, 45, 0
1, 49259, Note_off_c, 1, 71, 0
1, 49260, Note_on_c, 1, 57, 127
1, 49260, Note_on_c, 1, 66, 127
1, 49260, Note_on_c, 1, 54, 127
1, 49260, Note_on_c, 1, 42, 127
1, 49289, Note_off_c, 1, 57, 0
1, 49289, Note_off_c, 1, 42, 0
1, 49290, Note_on_c, 1, 78, 127
1, 49305, Note_off_c, 1, 78, 0
1, 49319, Note_off_c, 1, 73, 0
1, 49319, Note_off_c, 1, 69, 0
1, 49319, Note_off_c, 1, 66, 0
1, 49319, Note_off_c, 1, 54, 0
1, 49320, Note_on_c, 1, 78, 127
1, 49320, Note_on_c, 1, 75, 127
1, 49320, Note_on_c, 1, 69, 127
1, 49320, Note_on_c, 1, 66, 127
1, 49320, Note_on_c, 1, 57, 127
1, 49320, Note_on_c, 1, 54, 127
1, 49335, Note_off_c, 1, 78, 0
1, 49349, Note_off_c, 1, 66, 0
1, 49350, Note_on_c, 1, 73, 127
1, 49365, Note_off_c, 1, 73, 0
1, 49379, Note_off_c, 1, 75, 0
1, 49379, Note_off_c, 1, 69, 0
1, 49379, Note_off_c, 1, 57, 0
1, 49379, Note_off_c, 1, 54, 0
1, 49380, Note_on_c, 1, 73, 127
1, 49380, Note_on_c, 1, 76, 127
1, 49380, Note_on_c, 1, 69, 127
1, 49380, Note_on_c, 1, 61, 127
1, 49380, Note_on_c, 1, 52, 127
1, 49409, Note_off_c, 1, 73, 0
1, 49410, Note_on_c, 1, 75, 127
1, 49424, Note_off_c, 1, 75, 0
1, 49439, Note_off_c, 1, 76, 0
1, 49439, Note_off_c, 1, 69, 0
1, 49439, Note_off_c, 1, 61, 0
1, 49439, Note_off_c, 1, 52, 0
1, 49440, Note_on_c, 1, 69, 127
1, 49440, Note_on_c, 1, 78, 127
1, 49440, Note_on_c, 1, 71, 127
1, 49440, Note_on_c, 1, 66, 127
1, 49440, Note_on_c, 1, 59, 127
1, 49440, Note_on_c, 1, 51, 127
1, 49455, Note_on_c, 1, 73, 127
1, 49469, Note_off_c, 1, 71, 0
1, 49469, Note_off_c, 1, 66, 0
1, 49469, Note_off_c, 1, 73, 0
1, 49470, Note_on_c, 1, 75, 127
1, 49484, Note_off_c, 1, 75, 0
1, 49485, Note_on_c, 1, 76, 127
1, 49499, Note_off_c, 1, 69, 0
1, 49499, Note_off_c, 1, 78, 0
1, 49499, Note_off_c, 1, 59, 0
1, 49499, Note_off_c, 1, 76, 0
1, 49500, Note_on_c, 1, 63, 127
1, 49515, Note_on_c, 1, 80, 127
1, 49515, Note_on_c, 1, 52, 127
1, 49529, Note_off_c, 1, 63, 0
1, 49529, Note_off_c, 1, 80, 0
1, 49529, Note_off_c, 1, 52, 0
1, 49545, Note_on_c, 1, 49, 127
1, 49559, Note_off_c, 1, 51, 0
1, 49559, Note_off_c, 1, 49, 0
1, 49560, Note_on_c, 1, 47, 127
1, 49575, Note_on_c, 1, 45, 127
1, 49589, Note_off_c, 1, 45, 0
1, 49590, Note_on_c, 1, 44, 127
1, 49604, Note_off_c, 1, 44, 0
1, 49605, Note_on_c, 1, 42, 127
1, 49619, Note_off_c, 1, 47, 0
1, 49619, Note_off_c, 1, 42, 0
1, 49620, Note_on_c, 1, 68, 127
1, 49620, Note_on_c, 1, 64, 127
1, 49620, Note_on_c, 1, 40, 127
1, 49649, Note_off_c, 1, 40, 0
1, 49679, Note_off_c, 1, 68, 0
1, 49679, Note_off_c, 1, 64, 0
1, 49680, Note_on_c, 1, 76, 127
1, 49680, Note_on_c, 1, 73, 127
1, 49680, Note_on_c, 1, 68, 127
1, 49680, Note_on_c, 1, 64, 127
1, 49680, Note_on_c, 1, 52, 127
1, 49694, Note_off_c, 1, 76, 0
1, 49710, Note_on_c, 1, 71, 127
1, 49724, Note_off_c, 1, 71, 0
1, 49739, Note_off_c, 1, 73, 0
1, 49739, Note_off_c, 1, 68, 0
1, 49739, Note_off_c, 1, 64, 0
1, 49739, Note_off_c, 1, 52, 0
1, 49740, Note_on_c, 1, 71, 127
1, 49740, Note_on_c, 1, 74, 127
1, 49740, Note_on_c, 1, 67, 127
1, 49740, Note_on_c, 1, 59, 127
1, 49740, Note_on_c, 1, 50, 127
1, 49769, Note_off_c, 1, 71, 0
1, 49770, Note_on_c, 1, 73, 127
1, 49784, Note_off_c, 1, 73, 0
1, 49799, Note_off_c, 1, 74, 0
1, 49799, Note_off_c, 1, 67, 0
1, 49799, Note_off_c, 1, 59, 0
1, 49799, Note_off_c, 1, 50, 0
1, 49800, Note_on_c, 1, 67, 127
1, 49800, Note_on_c, 1, 76, 127
1, 49800, Note_on_c, 1, 69, 127
1, 49800, Note_on_c, 1, 64, 127
1, 49800, Note_on_c, 1, 57, 127
1, 49800, Note_on_c, 1, 49, 127
1, 49815, Note_on_c, 1, 71, 127
1, 49829, Note_off_c, 1, 69, 0
1, 49829, Note_off_c, 1, 64, 0
1, 49829, Note_off_c, 1, 71, 0
1, 49830, Note_on_c, 1, 73, 127
1, 49844, Note_off_c, 1, 73, 0
1, 49845, Note_on_c, 1, 74, 127
1, 49859, Note_off_c, 1, 67, 0
1, 49859, Note_off_c, 1, 76, 0
1, 49859, Note_off_c, 1, 57, 0
1, 49859, Note_off_c, 1, 74, 0
1, 49860, Note_on_c, 1, 61, 127
1, 49875, Note_on_c, 1, 78, 127
1, 49875, Note_on_c, 1, 50, 127
1, 49889, Note_off_c, 1, 61, 0
1, 49889, Note_off_c, 1, 78, 0
1, 49889, Note_off_c, 1, 50, 0
1, 49905, Note_on_c, 1, 47, 127
1, 49919, Note_off_c, 1, 49, 0
1, 49919, Note_off_c, 1, 47, 0
1, 49920, Note_on_c, 1, 45, 127
1, 49934, Note_off_c, 1, 45, 0
1, 49935, Note_on_c, 1, 43, 127
1, 49949, Note_off_c, 1, 43, 0
1, 49950, Note_on_c, 1, 42, 127
1, 49964, Note_off_c, 1, 42, 0
1, 49965, Note_on_c, 1, 40, 127
1, 49979, Note_off_c, 1, 40, 0
1, 49980, Note_on_c, 1, 66, 127
1, 49980, Note_on_c, 1, 62, 127
1, 49980, Note_on_c, 1, 38, 127
1, 50009, Note_off_c, 1, 38, 0
1, 50010, Note_on_c, 1, 68, 127
1, 50024, Note_off_c, 1, 68, 0
1, 50039, Note_off_c, 1, 66, 0
1, 50039, Note_off_c, 1, 62, 0
1, 50040, Note_on_c, 1, 68, 127
1, 50040, Note_on_c, 1, 71, 127
1, 50040, Note_on_c, 1, 64, 127
1, 50040, Note_on_c, 1, 59, 127
1, 50040, Note_on_c, 1, 62, 127
1, 50040, Note_on_c, 1, 50, 127
1, 50069, Note_off_c, 1, 64, 0
1, 50069, Note_off_c, 1, 50, 0
1, 50070, Note_on_c, 1, 66, 127
1, 50070, Note_on_c, 1, 69, 127
1, 50084, Note_off_c, 1, 66, 0
1, 50084, Note_off_c, 1, 69, 0
1, 50099, Note_off_c, 1, 68, 0
1, 50099, Note_off_c, 1, 71, 0
1, 50099, Note_off_c, 1, 59, 0
1, 50099, Note_off_c, 1, 62, 0
1, 50100, Note_on_c, 1, 69, 127
1, 50100, Note_on_c, 1, 73, 127
1, 50100, Note_on_c, 1, 64, 127
1, 50100, Note_on_c, 1, 52, 127
1, 50100, Note_on_c, 1, 61, 127
1, 50100, Note_on_c, 1, 49, 127
1, 50115, Note_on_c, 1, 66, 127
1, 50129, Note_off_c, 1, 52, 0
1, 50129, Note_off_c, 1, 49, 0
1, 50129, Note_off_c, 1, 66, 0
1, 50130, Note_on_c, 1, 68, 127
1, 50130, Note_on_c, 1, 71, 127
1, 50144, Note_off_c, 1, 68, 0
1, 50144, Note_off_c, 1, 71, 0
1, 50159, Note_off_c, 1, 69, 0
1, 50159, Note_off_c, 1, 73, 0
1, 50159, Note_off_c, 1, 64, 0
1, 50159, Note_off_c, 1, 61, 0
1, 50160, Note_on_c, 1, 71, 127
1, 50160, Note_on_c, 1, 74, 127
1, 50160, Note_on_c, 1, 66, 127
1, 50160, Note_on_c, 1, 59, 127
1, 50160, Note_on_c, 1, 47, 127
1, 50175, Note_on_c, 1, 68, 127
1, 50189, Note_off_c, 1, 66, 0
1, 50189, Note_off_c, 1, 47, 0
1, 50189, Note_off_c, 1, 68, 0
1, 50190, Note_on_c, 1, 69, 127
1, 50190, Note_on_c, 1, 64, 127
1, 50204, Note_off_c, 1, 69, 0
1, 50219, Note_off_c, 1, 74, 0
1, 50219, Note_off_c, 1, 59, 0
1, 50219, Note_off_c, 1, 64, 0
1, 50220, Note_on_c, 1, 73, 127
1, 50220, Note_on_c, 1, 78, 127
1, 50220, Note_on_c, 1, 62, 127
1, 50220, Note_on_c, 1, 54, 127
1, 50220, Note_on_c, 1, 42, 127
1, 50234, Note_off_c, 1, 73, 0
1, 50249, Note_off_c, 1, 71, 0
1, 50249, Note_off_c, 1, 78, 0
1, 50249, Note_off_c, 1, 62, 0
1, 50249, Note_off_c, 1, 42, 0
1, 50250, Note_on_c, 1, 76, 127
1, 50250, Note_on_c, 1, 61, 127
1, 50279, Note_off_c, 1, 54, 0
1, 50279, Note_off_c, 1, 76, 0
1, 50279, Note_off_c, 1, 61, 0
1, 50280, Note_on_c, 1, 74, 127
1, 50280, Note_on_c, 1, 59, 127
1, 50280, Note_on_c, 1, 57, 127
1, 50280, Note_on_c, 1, 45, 127
1, 50295, Note_on_c, 1, 71, 127
1, 50309, Note_off_c, 1, 59, 0
1, 50309, Note_off_c, 1, 45, 0
1, 50309, Note_off_c, 1, 71, 0
1, 50310, Note_on_c, 1, 73, 127
1, 50339, Note_off_c, 1, 74, 0
1, 50339, Note_off_c, 1, 57, 0
1, 50339, Note_off_c, 1, 73, 0
1, 50340, Note_on_c, 1, 76, 127
1, 50340, Note_on_c, 1, 83, 127
1, 50340, Note_on_c, 1, 71, 127
1, 50340, Note_on_c, 1, 52, 127
1, 50340, Note_on_c, 1, 74, 127
1, 50340, Note_on_c, 1, 64, 127
1, 50340, Note_on_c, 1, 56, 127
1, 50340, Note_on_c, 1, 44, 127
1, 50354, Note_off_c, 1, 76, 0
1, 50355, Note_on_c, 1, 73, 127
1, 50369, Note_off_c, 1, 52, 0
1, 50369, Note_off_c, 1, 44, 0
1, 50369, Note_off_c, 1, 73, 0
1, 50399, Note_off_c, 1, 83, 0
1, 50399, Note_off_c, 1, 71, 0
1, 50399, Note_off_c, 1, 74, 0
1, 50399, Note_off_c, 1, 64, 0
1, 50400, Note_on_c, 1, 78, 127
1, 50400, Note_on_c, 1, 62, 127
1, 50400, Note_on_c, 1, 42, 127
1, 50414, Note_off_c, 1, 78, 0
1, 50429, Note_off_c, 1, 56, 0
1, 50429, Note_off_c, 1, 42, 0
1, 50430, Note_on_c, 1, 54, 127
1, 50459, Note_off_c, 1, 62, 0
1, 50459, Note_off_c, 1, 54, 0
1, 50460, Note_on_c, 1, 80, 127
1, 50460, Note_on_c, 1, 40, 127
1, 50474, Note_off_c, 1, 80, 0
1, 50489, Note_off_c, 1, 40, 0
1, 50520, Note_on_c, 1, 81, 127
1, 50520, Note_on_c, 1, 73, 127
1, 50520, Note_on_c, 1, 69, 127
1, 50520, Note_on_c, 1, 64, 127
1, 50520, Note_on_c, 1, 76, 127
1, 50520, Note_on_c, 1, 61, 127
1, 50520, Note_on_c, 1, 57, 127
1, 50520, Note_on_c, 1, 45, 127
1, 50549, Note_off_c, 1, 81, 0
1, 50549, Note_off_c, 1, 73, 0
1, 50549, Note_off_c, 1, 64, 0
1, 50549, Note_off_c, 1, 45, 0
1, 50579, Note_off_c, 1, 69, 0
1, 50579, Note_off_c, 1, 76, 0
1, 50579, Note_off_c, 1, 61, 0
1, 50579, Note_off_c, 1, 57, 0
1, 50580, Note_on_c, 1, 83, 127
1, 50580, Note_on_c, 1, 74, 127
1, 50580, Note_on_c, 1, 78, 127
1, 50580, Note_on_c, 1, 59, 127
1, 50580, Note_on_c, 1, 71, 127
1, 50580, Note_on_c, 1, 50, 127
1, 50580, Note_on_c, 1, 38, 127
1, 50609, Note_off_c, 1, 83, 0
1, 50609, Note_off_c, 1, 74, 0
1, 50609, Note_off_c, 1, 78, 0
1, 50609, Note_off_c, 1, 38, 0
1, 50610, Note_on_c, 1, 73, 127
1, 50639, Note_off_c, 1, 59, 0
1, 50639, Note_off_c, 1, 71, 0
1, 50639, Note_off_c, 1, 50, 0
1, 50639, Note_off_c, 1, 73, 0
1, 50640, Note_on_c, 1, 80, 127
1, 50640, Note_on_c, 1, 71, 127
1, 50640, Note_on_c, 1, 76, 127
1, 50640, Note_on_c, 1, 68, 127
1, 50640, Note_on_c, 1, 64, 127
1, 50640, Note_on_c, 1, 52, 127
1, 50640, Note_on_c, 1, 40, 127
1, 50669, Note_off_c, 1, 80, 0
1, 50669, Note_off_c, 1, 71, 0
1, 50669, Note_off_c, 1, 76, 0
1, 50669, Note_off_c, 1, 40, 0
1, 50670, Note_on_c, 1, 73, 127
1, 50699, Note_off_c, 1, 68, 0
1, 50699, Note_off_c, 1, 64, 0
1, 50699, Note_off_c, 1, 52, 0
1, 50699, Note_off_c, 1, 73, 0
1, 50700, Note_on_c, 1, 85, 127
1, 50700, Note_on_c, 1, 81, 127
1, 50700, Note_on_c, 1, 76, 127
1, 50700, Note_on_c, 1, 45, 127
1, 50700, Note_on_c, 1, 69, 127
1, 50700, Note_on_c, 1, 73, 127
1, 50700, Note_on_c, 1, 64, 127
1, 50700, Note_on_c, 1, 61, 127
1, 50700, Note_on_c, 1, 57, 127
1, 50729, Note_off_c, 1, 85, 0
1, 50729, Note_off_c, 1, 76, 0
1, 50729, Note_off_c, 1, 73, 0
1, 50759, Note_off_c, 1, 81, 0
1, 50760, Note_off_c, 1, 45, 0
1, 50760, Note_on_c, 1, 49, 127
1, 50819, Note_off_c, 1, 69, 0
1, 50819, Note_off_c, 1, 64, 0
1, 50819, Note_off_c, 1, 61, 0
1, 50819, Note_off_c, 1, 57, 0
1, 50819, Note_off_c, 1, 49, 0
1, 50820, Note_on_c, 1, 85, 127
1, 50820, Note_on_c, 1, 81, 127
1, 50820, Note_on_c, 1, 76, 127
1, 50820, Note_on_c, 1, 64, 127
1, 50820, Note_on_c, 1, 45, 127
1, 50837, Note_off_c, 1, 64, 0
1, 50849, Note_off_c, 1, 85, 0
1, 50849, Note_off_c, 1, 81, 0
1, 50849, Note_off_c, 1, 76, 0
1, 50879, Note_off_c, 1, 45, 0
1, 50880, Note_on_c, 1, 85, 127
1, 50880, Note_on_c, 1, 81, 127
1, 50880, Note_on_c, 1, 76, 127
1, 50880, Note_on_c, 1, 64, 127
1, 50880, Note_on_c, 1, 52, 127
1, 50897, Note_off_c, 1, 64, 0
1, 50939, Note_off_c, 1, 85, 0
1, 50939, Note_off_c, 1, 81, 0
1, 50939, Note_off_c, 1, 76, 0
1, 50939, Note_off_c, 1, 52, 0
1, 50940, Note_on_c, 1, 83, 127
1, 50940, Note_on_c, 1, 80, 127
1, 50940, Note_on_c, 1, 76, 127
1, 50940, Note_on_c, 1, 64, 127
1, 50957, Note_off_c, 1, 64, 0
1, 50969, Note_off_c, 1, 83, 0
1, 50969, Note_off_c, 1, 80, 0
1, 50969, Note_off_c, 1, 76, 0
1, 50970, Note_on_c, 1, 81, 127
1, 50970, Note_on_c, 1, 78, 127
1, 50970, Note_on_c, 1, 76, 127
1, 50970, Note_on_c, 1, 64, 127
1, 50987, Note_off_c, 1, 64, 0
1, 50999, Note_off_c, 1, 81, 0
1, 50999, Note_off_c, 1, 78, 0
1, 50999, Note_off_c, 1, 76, 0
1, 51000, Note_on_c, 1, 83, 127
1, 51000, Note_on_c, 1, 80, 127
1, 51000, Note_on_c, 1, 76, 127
1, 51000, Note_on_c, 1, 71, 127
1, 51000, Note_on_c, 1, 68, 127
1, 51000, Note_on_c, 1, 64, 127
1, 51017, Note_off_c, 1, 64, 0
1, 51029, Note_off_c, 1, 71, 0
1, 51029, Note_off_c, 1, 68, 0
1, 51030, Note_on_c, 1, 73, 127
1, 51030, Note_on_c, 1, 69, 127
1, 51059, Note_off_c, 1, 83, 0
1, 51059, Note_off_c, 1, 80, 0
1, 51059, Note_off_c, 1, 76, 0
1, 51059, Note_off_c, 1, 73, 0
1, 51059, Note_off_c, 1, 69, 0
1, 51060, Note_on_c, 1, 74, 127
1, 51060, Note_on_c, 1, 71, 127
1, 51060, Note_on_c, 1, 64, 127
1, 51060, Note_on_c, 1, 52, 127
1, 51077, Note_off_c, 1, 64, 0
1, 51089, Note_off_c, 1, 74, 0
1, 51089, Note_off_c, 1, 71, 0
1, 51119, Note_off_c, 1, 52, 0
1, 51120, Note_on_c, 1, 74, 127
1, 51120, Note_on_c, 1, 71, 127
1, 51120, Note_on_c, 1, 64, 127
1, 51120, Note_on_c, 1, 56, 127
1, 51137, Note_off_c, 1, 64, 0
1, 51149, Note_off_c, 1, 74, 0
1, 51149, Note_off_c, 1, 71, 0
1, 51179, Note_off_c, 1, 56, 0
1, 51180, Note_on_c, 1, 74, 127
1, 51180, Note_on_c, 1, 71, 127
1, 51180, Note_on_c, 1, 64, 127
1, 51180, Note_on_c, 1, 52, 127
1, 51197, Note_off_c, 1, 64, 0
1, 51209, Note_off_c, 1, 74, 0
1, 51209, Note_off_c, 1, 71, 0
1, 51239, Note_off_c, 1, 52, 0
1, 51240, Note_on_c, 1, 74, 127
1, 51240, Note_on_c, 1, 71, 127
1, 51240, Note_on_c, 1, 64, 127
1, 51240, Note_on_c, 1, 57, 127
1, 51257, Note_off_c, 1, 64, 0
1, 51299, Note_off_c, 1, 74, 0
1, 51299, Note_off_c, 1, 71, 0
1, 51299, Note_off_c, 1, 57, 0
1, 51300, Note_on_c, 1, 73, 127
1, 51300, Note_on_c, 1, 69, 127
1, 51300, Note_on_c, 1, 64, 127
1, 51317, Note_off_c, 1, 64, 0
1, 51329, Note_off_c, 1, 73, 0
1, 51329, Note_off_c, 1, 69, 0
1, 51330, Note_on_c, 1, 71, 127
1, 51330, Note_on_c, 1, 68, 127
1, 51330, Note_on_c, 1, 64, 127
1, 51347, Note_off_c, 1, 64, 0
1, 51359, Note_off_c, 1, 71, 0
1, 51359, Note_off_c, 1, 68, 0
1, 51360, Note_on_c, 1, 76, 127
1, 51360, Note_on_c, 1, 73, 127
1, 51360, Note_on_c, 1, 69, 127
1, 51360, Note_on_c, 1, 64, 127
1, 51377, Note_off_c, 1, 64, 0
1, 51389, Note_off_c, 1, 76, 0
1, 51390, Note_on_c, 1, 78, 127
1, 51390, Note_on_c, 1, 74, 127
1, 51390, Note_on_c, 1, 62, 127
1, 51407, Note_off_c, 1, 62, 0
1, 51419, Note_off_c, 1, 73, 0
1, 51419, Note_off_c, 1, 69, 0
1, 51419, Note_off_c, 1, 78, 0
1, 51419, Note_off_c, 1, 74, 0
1, 51420, Note_on_c, 1, 79, 127
1, 51420, Note_on_c, 1, 76, 127
1, 51420, Note_on_c, 1, 61, 127
1, 51420, Note_on_c, 1, 58, 127
1, 51437, Note_off_c, 1, 61, 0
1, 51449, Note_off_c, 1, 79, 0
1, 51449, Note_off_c, 1, 76, 0
1, 51449, Note_off_c, 1, 58, 0
1, 51450, Note_on_c, 1, 61, 127
1, 51450, Note_on_c, 1, 58, 127
1, 51467, Note_off_c, 1, 61, 0
1, 51479, Note_off_c, 1, 58, 0
1, 51480, Note_on_c, 1, 79, 127
1, 51480, Note_on_c, 1, 76, 127
1, 51480, Note_on_c, 1, 61, 127
1, 51480, Note_on_c, 1, 58, 127
1, 51497, Note_off_c, 1, 61, 0
1, 51509, Note_off_c, 1, 79, 0
1, 51509, Note_off_c, 1, 76, 0
1, 51509, Note_off_c, 1, 58, 0
1, 51510, Note_on_c, 1, 61, 127
1, 51510, Note_on_c, 1, 58, 127
1, 51527, Note_off_c, 1, 61, 0
1, 51539, Note_off_c, 1, 58, 0
1, 51540, Note_on_c, 1, 79, 127
1, 51540, Note_on_c, 1, 76, 127
1, 51540, Note_on_c, 1, 61, 127
1, 51540, Note_on_c, 1, 58, 127
1, 51557, Note_off_c, 1, 61, 0
1, 51569, Note_off_c, 1, 79, 0
1, 51569, Note_off_c, 1, 76, 0
1, 51569, Note_off_c, 1, 58, 0
1, 51570, Note_on_c, 1, 61, 127
1, 51570, Note_on_c, 1, 58, 127
1, 51587, Note_off_c, 1, 61, 0
1, 51599, Note_off_c, 1, 58, 0
1, 51600, Note_on_c, 1, 79, 127
1, 51600, Note_on_c, 1, 76, 127
1, 51600, Note_on_c, 1, 59, 127
1, 51630, Note_on_c, 1, 73, 127
1, 51659, Note_off_c, 1, 79, 0
1, 51659, Note_off_c, 1, 76, 0
1, 51659, Note_off_c, 1, 59, 0
1, 51659, Note_off_c, 1, 73, 0
1, 51660, Note_on_c, 1, 78, 127
1, 51660, Note_on_c, 1, 74, 127
1, 51660, Note_on_c, 1, 66, 127
1, 51660, Note_on_c, 1, 59, 127
1, 51660, Note_on_c, 1, 47, 127
1, 51689, Note_off_c, 1, 78, 0
1, 51689, Note_off_c, 1, 74, 0
1, 51689, Note_off_c, 1, 47, 0
1, 51690, Note_on_c, 1, 76, 127
1, 51690, Note_on_c, 1, 73, 127
1, 51719, Note_off_c, 1, 66, 0
1, 51719, Note_off_c, 1, 59, 0
1, 51719, Note_off_c, 1, 76, 0
1, 51719, Note_off_c, 1, 73, 0
1, 51720, Note_on_c, 1, 78, 127
1, 51720, Note_on_c, 1, 74, 127
1, 51720, Note_on_c, 1, 62, 127
1, 51720, Note_on_c, 1, 50, 127
1, 51720, Note_on_c, 1, 71, 127
1, 51720, Note_on_c, 1, 59, 127
1, 51749, Note_off_c, 1, 78, 0
1, 51749, Note_off_c, 1, 50, 0
1, 51749, Note_off_c, 1, 59, 0
1, 51750, Note_on_c, 1, 79, 127
1, 51779, Note_off_c, 1, 74, 0
1, 51779, Note_off_c, 1, 62, 0
1, 51779, Note_off_c, 1, 71, 0
1, 51779, Note_off_c, 1, 79, 0
1, 51780, Note_on_c, 1, 81, 127
1, 51780, Note_on_c, 1, 74, 127
1, 51780, Note_on_c, 1, 66, 127
1, 51780, Note_on_c, 1, 50, 127
1, 51780, Note_on_c, 1, 78, 127
1, 51780, Note_on_c, 1, 69, 127
1, 51780, Note_on_c, 1, 62, 127
1, 51780, Note_on_c, 1, 54, 127
1, 51794, Note_off_c, 1, 78, 0
1, 51795, Note_on_c, 1, 79, 127
1, 51809, Note_off_c, 1, 54, 0
1, 51809, Note_off_c, 1, 79, 0
1, 51839, Note_off_c, 1, 81, 0
1, 51839, Note_off_c, 1, 66, 0
1, 51839, Note_off_c, 1, 69, 0
1, 51840, Note_on_c, 1, 83, 127
1, 51840, Note_on_c, 1, 42, 127
1, 51869, Note_off_c, 1, 50, 0
1, 51869, Note_off_c, 1, 83, 0
1, 51869, Note_off_c, 1, 42, 0
1, 51899, Note_off_c, 1, 74, 0
1, 51899, Note_off_c, 1, 62, 0
1, 51900, Note_on_c, 1, 79, 127
1, 51900, Note_on_c, 1, 83, 127
1, 51900, Note_on_c, 1, 62, 127
1, 51900, Note_on_c, 1, 50, 127
1, 51900, Note_on_c, 1, 76, 127
1, 51900, Note_on_c, 1, 71, 127
1, 51900, Note_on_c, 1, 43, 127
1, 51929, Note_off_c, 1, 79, 0
1, 51929, Note_off_c, 1, 50, 0
1, 51929, Note_off_c, 1, 76, 0
1, 51929, Note_off_c, 1, 43, 0
1, 51930, Note_on_c, 1, 78, 127
1, 51930, Note_on_c, 1, 74, 127
1, 51959, Note_off_c, 1, 83, 0
1, 51959, Note_off_c, 1, 62, 0
1, 51959, Note_off_c, 1, 71, 0
1, 51959, Note_off_c, 1, 78, 0
1, 51959, Note_off_c, 1, 74, 0
1, 51960, Note_on_c, 1, 76, 127
1, 51960, Note_on_c, 1, 81, 127
1, 51960, Note_on_c, 1, 69, 127
1, 51960, Note_on_c, 1, 45, 127
1, 51960, Note_on_c, 1, 73, 127
1, 51990, Note_on_c, 1, 71, 127
1, 52019, Note_off_c, 1, 76, 0
1, 52019, Note_off_c, 1, 81, 0
1, 52019, Note_off_c, 1, 45, 0
1, 52019, Note_off_c, 1, 73, 0
1, 52019, Note_off_c, 1, 71, 0
1, 52020, Note_on_c, 1, 64, 127
1, 52020, Note_on_c, 1, 49, 127
1, 52049, Note_off_c, 1, 49, 0
1, 52050, Note_on_c, 1, 83, 127
1, 52050, Note_on_c, 1, 67, 127
1, 52079, Note_off_c, 1, 69, 0
1, 52079, Note_off_c, 1, 64, 0
1, 52079, Note_off_c, 1, 83, 0
1, 52079, Note_off_c, 1, 67, 0
1, 52080, Note_on_c, 1, 81, 127
1, 52080, Note_on_c, 1, 66, 127
1, 52080, Note_on_c, 1, 73, 127
1, 52080, Note_on_c, 1, 69, 127
1, 52080, Note_on_c, 1, 45, 127
1, 52109, Note_off_c, 1, 81, 0
1, 52109, Note_off_c, 1, 66, 0
1, 52109, Note_off_c, 1, 45, 0
1, 52110, Note_on_c, 1, 79, 127
1, 52110, Note_on_c, 1, 64, 127
1, 52139, Note_off_c, 1, 73, 0
1, 52139, Note_off_c, 1, 69, 0
1, 52139, Note_off_c, 1, 79, 0
1, 52139, Note_off_c, 1, 64, 0
1, 52140, Note_on_c, 1, 78, 127
1, 52140, Note_on_c, 1, 74, 127
1, 52140, Note_on_c, 1, 69, 127
1, 52140, Note_on_c, 1, 62, 127
1, 52140, Note_on_c, 1, 50, 127
1, 52169, Note_off_c, 1, 78, 0
1, 52170, Note_on_c, 1, 79, 127
1, 52199, Note_off_c, 1, 74, 0
1, 52199, Note_off_c, 1, 69, 0
1, 52199, Note_off_c, 1, 62, 0
1, 52199, Note_off_c, 1, 50, 0
1, 52199, Note_off_c, 1, 79, 0
1, 52200, Note_on_c, 1, 81, 127
1, 52200, Note_on_c, 1, 78, 127
1, 52200, Note_on_c, 1, 74, 127
1, 52200, Note_on_c, 1, 62, 127
1, 52200, Note_on_c, 1, 50, 127
1, 52229, Note_off_c, 1, 81, 0
1, 52230, Note_on_c, 1, 79, 127
1, 52259, Note_off_c, 1, 78, 0
1, 52259, Note_off_c, 1, 74, 0
1, 52259, Note_off_c, 1, 62, 0
1, 52259, Note_off_c, 1, 50, 0
1, 52259, Note_off_c, 1, 79, 0
1, 52260, Note_on_c, 1, 78, 127
1, 52260, Note_on_c, 1, 74, 127
1, 52260, Note_on_c, 1, 69, 127
1, 52260, Note_on_c, 1, 62, 127
1, 52260, Note_on_c, 1, 50, 127
1, 52289, Note_off_c, 1, 78, 0
1, 52290, Note_on_c, 1, 76, 127
1, 52319, Note_off_c, 1, 74, 0
1, 52319, Note_off_c, 1, 69, 0
1, 52319, Note_off_c, 1, 62, 0
1, 52319, Note_off_c, 1, 50, 0
1, 52319, Note_off_c, 1, 76, 0
1, 52320, Note_on_c, 1, 74, 127
1, 52320, Note_on_c, 1, 69, 127
1, 52320, Note_on_c, 1, 66, 127
1, 52320, Note_on_c, 1, 62, 127
1, 52320, Note_on_c, 1, 50, 127
1, 52350, Note_on_c, 1, 78, 127
1, 52364, Note_off_c, 1, 78, 0
1, 52365, Note_on_c, 1, 79, 127
1, 52365, Note_on_c, 1, 76, 127
1, 52379, Note_off_c, 1, 74, 0
1, 52379, Note_off_c, 1, 69, 0
1, 52379, Note_off_c, 1, 66, 0
1, 52379, Note_off_c, 1, 62, 0
1, 52379, Note_off_c, 1, 50, 0
1, 52379, Note_off_c, 1, 79, 0
1, 52379, Note_off_c, 1, 76, 0
1, 52380, Note_on_c, 1, 81, 127
1, 52380, Note_on_c, 1, 78, 127
1, 52380, Note_on_c, 1, 57, 127
1, 52380, Note_on_c, 1, 45, 127
1, 52394, Note_off_c, 1, 81, 0
1, 52394, Note_off_c, 1, 78, 0
1, 52395, Note_on_c, 1, 79, 127
1, 52395, Note_on_c, 1, 76, 127
1, 52409, Note_off_c, 1, 79, 0
1, 52409, Note_off_c, 1, 76, 0
1, 52439, Note_off_c, 1, 57, 0
1, 52439, Note_off_c, 1, 45, 0
1, 52440, Note_on_c, 1, 81, 127
1, 52440, Note_on_c, 1, 78, 127
1, 52454, Note_off_c, 1, 81, 0
1, 52454, Note_off_c, 1, 78, 0
1, 52455, Note_on_c, 1, 79, 127
1, 52455, Note_on_c, 1, 76, 127
1, 52469, Note_off_c, 1, 79, 0
1, 52469, Note_off_c, 1, 76, 0
1, 52470, Note_on_c, 1, 78, 127
1, 52470, Note_on_c, 1, 74, 127
1, 52484, Note_off_c, 1, 78, 0
1, 52484, Note_off_c, 1, 74, 0
1, 52485, Note_on_c, 1, 79, 127
1, 52485, Note_on_c, 1, 76, 127
1, 52499, Note_off_c, 1, 79, 0
1, 52499, Note_off_c, 1, 76, 0
1, 52500, Note_on_c, 1, 50, 127
1, 52500, Note_on_c, 1, 81, 127
1, 52500, Note_on_c, 1, 78, 127
1, 52500, Note_on_c, 1, 38, 127
1, 52559, Note_off_c, 1, 50, 0
1, 52559, Note_off_c, 1, 81, 0
1, 52559, Note_off_c, 1, 78, 0
1, 52559, Note_off_c, 1, 38, 0
1, 52560, Note_on_c, 1, 50, 127
1, 52680, Note_on_c, 1, 86, 127
1, 52680, Note_on_c, 1, 81, 127
1, 52710, Note_on_c, 1, 74, 127
1, 52710, Note_on_c, 1, 66, 127
1, 52724, Note_off_c, 1, 74, 0
1, 52724, Note_off_c, 1, 66, 0
1, 52725, Note_on_c, 1, 76, 127
1, 52725, Note_on_c, 1, 67, 127
1, 52739, Note_off_c, 1, 50, 0
1, 52739, Note_off_c, 1, 86, 0
1, 52739, Note_off_c, 1, 81, 0
1, 52739, Note_off_c, 1, 76, 0
1, 52739, Note_off_c, 1, 67, 0
1, 52740, Note_on_c, 1, 45, 127
1, 52740, Note_on_c, 1, 78, 127
1, 52740, Note_on_c, 1, 69, 127
1, 52754, Note_off_c, 1, 78, 0
1, 52754, Note_off_c, 1, 69, 0
1, 52755, Note_on_c, 1, 76, 127
1, 52755, Note_on_c, 1, 67, 127
1, 52769, Note_off_c, 1, 76, 0
1, 52769, Note_off_c, 1, 67, 0
1, 52799, Note_off_c, 1, 45, 0
1, 52800, Note_on_c, 1, 78, 127
1, 52800, Note_on_c, 1, 69, 127
1, 52800, Note_on_c, 1, 57, 127
1, 52814, Note_off_c, 1, 78, 0
1, 52815, Note_on_c, 1, 76, 127
1, 52815, Note_on_c, 1, 67, 127
1, 52829, Note_off_c, 1, 76, 0
1, 52829, Note_off_c, 1, 67, 0
1, 52830, Note_on_c, 1, 74, 127
1, 52830, Note_on_c, 1, 66, 127
1, 52844, Note_off_c, 1, 74, 0
1, 52844, Note_off_c, 1, 66, 0
1, 52859, Note_off_c, 1, 69, 0
1, 52859, Note_off_c, 1, 57, 0
1, 52860, Note_on_c, 1, 81, 127
1, 52860, Note_on_c, 1, 78, 127
1, 52860, Note_on_c, 1, 69, 127
1, 52860, Note_on_c, 1, 57, 127
1, 52860, Note_on_c, 1, 50, 127
1, 52919, Note_off_c, 1, 81, 0
1, 52919, Note_off_c, 1, 78, 0
1, 52919, Note_off_c, 1, 69, 0
1, 52919, Note_off_c, 1, 57, 0
1, 52919, Note_off_c, 1, 50, 0
1, 52920, Note_on_c, 1, 74, 127
1, 52920, Note_on_c, 1, 62, 127
1, 52949, Note_off_c, 1, 74, 0
1, 52949, Note_off_c, 1, 62, 0
1, 52950, Note_on_c, 1, 69, 127
1, 52950, Note_on_c, 1, 57, 127
1, 52979, Note_off_c, 1, 69, 0
1, 52979, Note_off_c, 1, 57, 0
1, 52980, Note_on_c, 1, 66, 127
1, 52980, Note_on_c, 1, 54, 127
1, 53009, Note_off_c, 1, 66, 0
1, 53009, Note_off_c, 1, 54, 0
1, 53010, Note_on_c, 1, 62, 127
1, 53010, Note_on_c, 1, 50, 127
1, 53039, Note_off_c, 1, 62, 0
1, 53039, Note_off_c, 1, 50, 0
1, 53040, Note_on_c, 1, 78, 127
1, 53040, Note_on_c, 1, 74, 127
1, 53040, Note_on_c, 1, 69, 127
1, 53040, Note_on_c, 1, 57, 127
1, 53070, Note_on_c, 1, 66, 127
1, 53070, Note_on_c, 1, 62, 127
1, 53084, Note_off_c, 1, 66, 0
1, 53084, Note_off_c, 1, 62, 0
1, 53085, Note_on_c, 1, 67, 127
1, 53085, Note_on_c, 1, 64, 127
1, 53099, Note_off_c, 1, 78, 0
1, 53099, Note_off_c, 1, 74, 0
1, 53099, Note_off_c, 1, 69, 0
1, 53099, Note_off_c, 1, 67, 0
1, 53099, Note_off_c, 1, 64, 0
1, 53159, Note_off_c, 1, 57, 0
1, 53160, Note_on_c, 1, 69, 127
1, 53160, Note_on_c, 1, 66, 127
1, 53174, Note_off_c, 1, 69, 0
1, 53174, Note_off_c, 1, 66, 0
1, 53175, Note_on_c, 1, 67, 127
1, 53175, Note_on_c, 1, 64, 127
1, 53189, Note_off_c, 1, 67, 0
1, 53189, Note_off_c, 1, 64, 0
1, 53190, Note_on_c, 1, 66, 127
1, 53190, Note_on_c, 1, 62, 127
1, 53204, Note_off_c, 1, 66, 0
1, 53204, Note_off_c, 1, 62, 0
1, 53205, Note_on_c, 1, 67, 127
1, 53205, Note_on_c, 1, 64, 127
1, 53219, Note_off_c, 1, 67, 0
1, 53219, Note_off_c, 1, 64, 0
1, 53220, Note_on_c, 1, 62, 127
1, 53220, Note_on_c, 1, 50, 127
1, 53220, Note_on_c, 1, 69, 127
1, 53220, Note_on_c, 1, 66, 127
1, 53220, Note_on_c, 1, 38, 127
1, 53234, Note_off_c, 1, 50, 0
1, 53235, Note_on_c, 1, 86, 127
1, 53249, Note_off_c, 1, 86, 0
1, 53250, Note_on_c, 1, 85, 127
1, 53264, Note_off_c, 1, 85, 0
1, 53265, Note_on_c, 1, 83, 127
1, 53279, Note_off_c, 1, 69, 0
1, 53279, Note_off_c, 1, 66, 0
1, 53279, Note_off_c, 1, 38, 0
1, 53279, Note_off_c, 1, 83, 0
1, 53280, Note_on_c, 1, 81, 127
1, 53280, Note_on_c, 1, 74, 127
1, 53339, Note_off_c, 1, 62, 0
1, 53339, Note_off_c, 1, 81, 0
1, 53339, Note_off_c, 1, 74, 0
1, 53340, Note_on_c, 1, 66, 127
1, 53340, Note_on_c, 1, 50, 127
1, 53340, Note_on_c, 1, 81, 127
1, 53340, Note_on_c, 1, 78, 127
1, 53340, Note_on_c, 1, 69, 127
1, 53340, Note_on_c, 1, 62, 127
1, 53354, Note_off_c, 1, 81, 0
1, 53355, Note_on_c, 1, 79, 127
1, 53369, Note_off_c, 1, 66, 0
1, 53369, Note_off_c, 1, 79, 0
1, 53385, Note_on_c, 1, 76, 127
1, 53399, Note_off_c, 1, 50, 0
1, 53399, Note_off_c, 1, 78, 0
1, 53399, Note_off_c, 1, 69, 0
1, 53399, Note_off_c, 1, 62, 0
1, 53399, Note_off_c, 1, 76, 0
1, 53400, Note_on_c, 1, 74, 127
1, 53400, Note_on_c, 1, 62, 127
1, 53400, Note_on_c, 1, 50, 127
1, 53400, Note_on_c, 1, 78, 127
1, 53400, Note_on_c, 1, 57, 127
1, 53414, Note_off_c, 1, 50, 0
1, 53429, Note_off_c, 1, 62, 0
1, 53430, Note_on_c, 1, 69, 127
1, 53430, Note_on_c, 1, 73, 127
1, 53444, Note_off_c, 1, 73, 0
1, 53445, Note_on_c, 1, 71, 127
1, 53459, Note_off_c, 1, 69, 0
1, 53459, Note_off_c, 1, 71, 0
1, 53460, Note_off_c, 1, 57, 0
1, 53460, Note_on_c, 1, 66, 127
1, 53489, Note_off_c, 1, 66, 0
1, 53535, Note_on_c, 1, 67, 127
1, 53549, Note_off_c, 1, 67, 0
1, 53565, Note_on_c, 1, 64, 127
1, 53579, Note_off_c, 1, 64, 0
1, 53580, Note_on_c, 1, 81, 127
1, 53610, Note_on_c, 1, 61, 127
1, 53624, Note_off_c, 1, 61, 0
1, 53625, Note_on_c, 1, 59, 127
1, 53639, Note_off_c, 1, 81, 0
1, 53639, Note_off_c, 1, 59, 0
1, 53715, Note_on_c, 1, 55, 127
1, 53729, Note_off_c, 1, 55, 0
1, 53730, Note_on_c, 1, 54, 127
1, 53744, Note_off_c, 1, 54, 0
1, 53745, Note_on_c, 1, 52, 127
1, 53759, Note_off_c, 1, 52, 0
1, 53790, Note_on_c, 1, 49, 127
1, 53804, Note_off_c, 1, 49, 0
1, 53805, Note_on_c, 1, 47, 127
1, 53819, Note_off_c, 1, 47, 0
1, 53820, Note_on_c, 1, 45, 127
1, 53834, Note_off_c, 1, 45, 0
1, 53895, Note_on_c, 1, 43, 127
1, 53909, Note_off_c, 1, 43, 0
1, 53910, Note_on_c, 1, 42, 127
1, 53924, Note_off_c, 1, 42, 0
1, 53925, Note_on_c, 1, 40, 127
1, 53939, Note_off_c, 1, 40, 0
1, 53940, Note_on_c, 1, 38, 127
1, 53999, Note_off_c, 1, 38, 0
1, 54030, Note_off_c, 1, 74, 0
1, 54059, Note_off_c, 1, 78, 0
1, 54180, Note_on_c, 1, 76, 127
1, 54210, Note_off_c, 1, 76, 0
1, 54300, Note_on_c, 1, 79, 127
1, 54359, Note_off_c, 1, 79, 0
1, 54360, Note_on_c, 1, 79, 127
1, 54360, Note_on_c, 1, 76, 127
1, 54360, Note_on_c, 1, 69, 127
1, 54360, Note_on_c, 1, 57, 127
1, 54360, Note_on_c, 1, 64, 127
1, 54360, Note_on_c, 1, 61, 127
1, 54360, Note_on_c, 1, 49, 127
1, 54377, Note_off_c, 1, 57, 0
1, 54389, Note_off_c, 1, 76, 0
1, 54419, Note_off_c, 1, 79, 0
1, 54419, Note_off_c, 1, 69, 0
1, 54419, Note_off_c, 1, 64, 0
1, 54419, Note_off_c, 1, 61, 0
1, 54419, Note_off_c, 1, 49, 0
1, 54420, Note_on_c, 1, 79, 127
1, 54420, Note_on_c, 1, 76, 127
1, 54420, Note_on_c, 1, 69, 127
1, 54420, Note_on_c, 1, 57, 127
1, 54420, Note_on_c, 1, 73, 127
1, 54420, Note_on_c, 1, 64, 127
1, 54420, Note_on_c, 1, 45, 127
1, 54449, Note_off_c, 1, 76, 0
1, 54449, Note_off_c, 1, 69, 0
1, 54479, Note_off_c, 1, 79, 0
1, 54479, Note_off_c, 1, 57, 0
1, 54479, Note_off_c, 1, 73, 0
1, 54479, Note_off_c, 1, 64, 0
1, 54479, Note_off_c, 1, 45, 0
1, 54480, Note_on_c, 1, 79, 127
1, 54480, Note_on_c, 1, 76, 127
1, 54480, Note_on_c, 1, 69, 127
1, 54480, Note_on_c, 1, 57, 127
1, 54480, Note_on_c, 1, 64, 127
1, 54480, Note_on_c, 1, 62, 127
1, 54480, Note_on_c, 1, 50, 127
1, 54497, Note_off_c, 1, 57, 0
1, 54539, Note_off_c, 1, 79, 0
1, 54539, Note_off_c, 1, 76, 0
1, 54539, Note_off_c, 1, 64, 0
1, 54539, Note_off_c, 1, 62, 0
1, 54540, Note_on_c, 1, 78, 127
1, 54540, Note_on_c, 1, 74, 127
1, 54569, Note_off_c, 1, 78, 0
1, 54569, Note_off_c, 1, 74, 0
1, 54570, Note_on_c, 1, 73, 127
1, 54570, Note_on_c, 1, 61, 127
1, 54599, Note_off_c, 1, 69, 0
1, 54599, Note_off_c, 1, 50, 0
1, 54599, Note_off_c, 1, 73, 0
1, 54599, Note_off_c, 1, 61, 0
1, 54600, Note_on_c, 1, 78, 127
1, 54600, Note_on_c, 1, 74, 127
1, 54600, Note_on_c, 1, 66, 127
1, 54600, Note_on_c, 1, 69, 127
1, 54600, Note_on_c, 1, 62, 127
1, 54629, Note_off_c, 1, 66, 0
1, 54630, Note_on_c, 1, 79, 127
1, 54630, Note_on_c, 1, 71, 127
1, 54630, Note_on_c, 1, 67, 127
1, 54659, Note_off_c, 1, 78, 0
1, 54659, Note_off_c, 1, 74, 0
1, 54659, Note_off_c, 1, 69, 0
1, 54659, Note_off_c, 1, 62, 0
1, 54659, Note_off_c, 1, 79, 0
1, 54659, Note_off_c, 1, 71, 0
1, 54659, Note_off_c, 1, 67, 0
1, 54660, Note_on_c, 1, 81, 127
1, 54660, Note_on_c, 1, 72, 127
1, 54660, Note_on_c, 1, 66, 127
1, 54660, Note_on_c, 1, 69, 127
1, 54660, Note_on_c, 1, 62, 127
1, 54660, Note_on_c, 1, 54, 127
1, 54660, Note_on_c, 1, 50, 127
1, 54689, Note_off_c, 1, 72, 0
1, 54689, Note_off_c, 1, 66, 0
1, 54689, Note_off_c, 1, 50, 0
1, 54690, Note_on_c, 1, 52, 127
1, 54719, Note_off_c, 1, 81, 0
1, 54719, Note_off_c, 1, 69, 0
1, 54719, Note_off_c, 1, 62, 0
1, 54719, Note_off_c, 1, 54, 0
1, 54719, Note_off_c, 1, 52, 0
1, 54720, Note_on_c, 1, 72, 127
1, 54720, Note_on_c, 1, 69, 127
1, 54720, Note_on_c, 1, 62, 127
1, 54720, Note_on_c, 1, 54, 127
1, 54750, Note_on_c, 1, 52, 127
1, 54779, Note_off_c, 1, 72, 0
1, 54779, Note_off_c, 1, 69, 0
1, 54779, Note_off_c, 1, 62, 0
1, 54779, Note_off_c, 1, 54, 0
1, 54779, Note_off_c, 1, 52, 0
1, 54780, Note_on_c, 1, 72, 127
1, 54780, Note_on_c, 1, 69, 127
1, 54780, Note_on_c, 1, 62, 127
1, 54780, Note_on_c, 1, 54, 127
1, 54810, Note_on_c, 1, 50, 127
1, 54839, Note_off_c, 1, 72, 0
1, 54839, Note_off_c, 1, 69, 0
1, 54839, Note_off_c, 1, 62, 0
1, 54839, Note_off_c, 1, 54, 0
1, 54839, Note_off_c, 1, 50, 0
1, 54840, Note_on_c, 1, 72, 127
1, 54840, Note_on_c, 1, 69, 127
1, 54840, Note_on_c, 1, 62, 127
1, 54840, Note_on_c, 1, 55, 127
1, 54855, Note_on_c, 1, 74, 127
1, 54855, Note_on_c, 1, 71, 127
1, 54870, Note_off_c, 1, 74, 0
1, 54870, Note_off_c, 1, 71, 0
1, 54870, Note_on_c, 1, 57, 127
1, 54899, Note_off_c, 1, 72, 0
1, 54899, Note_off_c, 1, 69, 0
1, 54899, Note_off_c, 1, 62, 0
1, 54899, Note_off_c, 1, 55, 0
1, 54899, Note_off_c, 1, 57, 0
1, 54900, Note_on_c, 1, 71, 127
1, 54900, Note_on_c, 1, 67, 127
1, 54900, Note_on_c, 1, 62, 127
1, 54900, Note_on_c, 1, 54, 127
1, 54930, Note_on_c, 1, 55, 127
1, 54959, Note_off_c, 1, 71, 0
1, 54959, Note_off_c, 1, 67, 0
1, 54959, Note_off_c, 1, 62, 0
1, 54959, Note_off_c, 1, 54, 0
1, 54959, Note_off_c, 1, 55, 0
1, 54960, Note_on_c, 1, 79, 127
1, 54960, Note_on_c, 1, 69, 127
1, 54960, Note_on_c, 1, 45, 127
1, 54960, Note_on_c, 1, 76, 127
1, 54960, Note_on_c, 1, 61, 127
1, 54960, Note_on_c, 1, 64, 127
1, 54960, Note_on_c, 1, 52, 127
1, 54990, Note_on_c, 1, 54, 127
1, 55019, Note_off_c, 1, 79, 0
1, 55019, Note_off_c, 1, 61, 0
1, 55019, Note_off_c, 1, 64, 0
1, 55019, Note_off_c, 1, 52, 0
1, 55019, Note_off_c, 1, 54, 0
1, 55020, Note_off_c, 1, 45, 0
1, 55020, Note_off_c, 1, 76, 0
1, 55020, Note_on_c, 1, 78, 127
1, 55020, Note_on_c, 1, 62, 127
1, 55020, Note_on_c, 1, 50, 127
1, 55020, Note_on_c, 1, 57, 127
1, 55049, Note_off_c, 1, 57, 0
1, 55050, Note_on_c, 1, 80, 127
1, 55050, Note_on_c, 1, 71, 127
1, 55050, Note_on_c, 1, 59, 127
1, 55079, Note_off_c, 1, 69, 0
1, 55079, Note_off_c, 1, 78, 0
1, 55079, Note_off_c, 1, 80, 0
1, 55079, Note_off_c, 1, 59, 0
1, 55080, Note_off_c, 1, 62, 0
1, 55080, Note_off_c, 1, 71, 0
1, 55080, Note_on_c, 1, 81, 127
1, 55080, Note_on_c, 1, 73, 127
1, 55094, Note_off_c, 1, 81, 0
1, 55109, Note_off_c, 1, 50, 0
1, 55140, Note_off_c, 1, 73, 0
1, 55140, Note_on_c, 1, 74, 127
1, 55200, Note_off_c, 1, 74, 0
1, 55260, Note_on_c, 1, 55, 127
1, 55289, Note_off_c, 1, 55, 0
1, 55350, Note_on_c, 1, 52, 127
1, 55350, Note_on_c, 1, 55, 127
1, 55364, Note_off_c, 1, 52, 0
1, 55365, Note_on_c, 1, 54, 127
1, 55379, Note_off_c, 1, 55, 0
1, 55379, Note_off_c, 1, 54, 0
1, 55380, Note_on_c, 1, 55, 127
1, 55380, Note_on_c, 1, 52, 127
1, 55409, Note_off_c, 1, 52, 0
1, 55410, Note_on_c, 1, 54, 127
1, 55439, Note_off_c, 1, 55, 0
1, 55439, Note_off_c, 1, 54, 0
1, 55440, Note_on_c, 1, 59, 127
1, 55440, Note_on_c, 1, 54, 127
1, 55440, Note_on_c, 1, 50, 127
1, 55469, Note_off_c, 1, 59, 0
1, 55469, Note_off_c, 1, 50, 0
1, 55470, Note_on_c, 1, 61, 127
1, 55470, Note_on_c, 1, 52, 127
1, 55499, Note_off_c, 1, 54, 0
1, 55499, Note_off_c, 1, 61, 0
1, 55499, Note_off_c, 1, 52, 0
1, 55500, Note_on_c, 1, 62, 127
1, 55500, Note_on_c, 1, 52, 127
1, 55500, Note_on_c, 1, 49, 127
1, 55514, Note_off_c, 1, 62, 0
1, 55515, Note_on_c, 1, 61, 127
1, 55529, Note_off_c, 1, 49, 0
1, 55529, Note_off_c, 1, 61, 0
1, 55530, Note_on_c, 1, 59, 127
1, 55530, Note_on_c, 1, 50, 127
1, 55544, Note_off_c, 1, 59, 0
1, 55559, Note_off_c, 1, 52, 0
1, 55559, Note_off_c, 1, 50, 0
1, 55560, Note_on_c, 1, 62, 127
1, 55560, Note_on_c, 1, 59, 127
1, 55560, Note_on_c, 1, 47, 127
1, 55589, Note_off_c, 1, 47, 0
1, 55590, Note_on_c, 1, 61, 127
1, 55619, Note_off_c, 1, 62, 0
1, 55619, Note_off_c, 1, 59, 0
1, 55619, Note_off_c, 1, 61, 0
1, 55620, Note_on_c, 1, 66, 127
1, 55620, Note_on_c, 1, 62, 127
1, 55620, Note_on_c, 1, 61, 127
1, 55620, Note_on_c, 1, 57, 127
1, 55649, Note_off_c, 1, 66, 0
1, 55649, Note_off_c, 1, 62, 0
1, 55650, Note_on_c, 1, 67, 127
1, 55650, Note_on_c, 1, 64, 127
1, 55650, Note_on_c, 1, 59, 127
1, 55679, Note_off_c, 1, 61, 0
1, 55679, Note_off_c, 1, 57, 0
1, 55679, Note_off_c, 1, 67, 0
1, 55679, Note_off_c, 1, 64, 0
1, 55679, Note_off_c, 1, 59, 0
1, 55680, Note_on_c, 1, 69, 127
1, 55680, Note_on_c, 1, 66, 127
1, 55680, Note_on_c, 1, 59, 127
1, 55680, Note_on_c, 1, 55, 127
1, 55694, Note_off_c, 1, 69, 0
1, 55694, Note_off_c, 1, 66, 0
1, 55695, Note_on_c, 1, 67, 127
1, 55695, Note_on_c, 1, 64, 127
1, 55709, Note_off_c, 1, 67, 0
1, 55709, Note_off_c, 1, 64, 0
1, 55710, Note_on_c, 1, 62, 127
1, 55710, Note_on_c, 1, 57, 127
1, 55724, Note_off_c, 1, 62, 0
1, 55739, Note_off_c, 1, 59, 0
1, 55739, Note_off_c, 1, 55, 0
1, 55739, Note_off_c, 1, 57, 0
1, 55740, Note_on_c, 1, 69, 127
1, 55740, Note_on_c, 1, 66, 127
1, 55740, Note_on_c, 1, 57, 127
1, 55740, Note_on_c, 1, 54, 127
1, 55769, Note_off_c, 1, 66, 0
1, 55770, Note_on_c, 1, 67, 127
1, 55770, Note_on_c, 1, 55, 127
1, 55799, Note_off_c, 1, 69, 0
1, 55799, Note_off_c, 1, 57, 0
1, 55799, Note_off_c, 1, 54, 0
1, 55799, Note_off_c, 1, 67, 0
1, 55799, Note_off_c, 1, 55, 0
1, 55800, Note_on_c, 1, 73, 127
1, 55800, Note_on_c, 1, 69, 127
1, 55800, Note_on_c, 1, 67, 127
1, 55800, Note_on_c, 1, 57, 127
1, 55800, Note_on_c, 1, 52, 127
1, 55829, Note_off_c, 1, 73, 0
1, 55829, Note_off_c, 1, 69, 0
1, 55830, Note_on_c, 1, 74, 127
1, 55830, Note_on_c, 1, 71, 127
1, 55830, Note_on_c, 1, 54, 127
1, 55859, Note_off_c, 1, 67, 0
1, 55859, Note_off_c, 1, 57, 0
1, 55859, Note_off_c, 1, 52, 0
1, 55859, Note_off_c, 1, 74, 0
1, 55859, Note_off_c, 1, 71, 0
1, 55859, Note_off_c, 1, 54, 0
1, 55860, Note_on_c, 1, 76, 127
1, 55860, Note_on_c, 1, 73, 127
1, 55860, Note_on_c, 1, 66, 127
1, 55860, Note_on_c, 1, 69, 127
1, 55860, Note_on_c, 1, 50, 127
1, 55874, Note_off_c, 1, 76, 0
1, 55874, Note_off_c, 1, 73, 0
1, 55875, Note_on_c, 1, 74, 127
1, 55875, Note_on_c, 1, 71, 127
1, 55889, Note_off_c, 1, 74, 0
1, 55889, Note_off_c, 1, 71, 0
1, 55890, Note_on_c, 1, 52, 127
1, 55919, Note_off_c, 1, 66, 0
1, 55919, Note_off_c, 1, 69, 0
1, 55919, Note_off_c, 1, 50, 0
1, 55919, Note_off_c, 1, 52, 0
1, 55920, Note_on_c, 1, 76, 127
1, 55920, Note_on_c, 1, 73, 127
1, 55920, Note_on_c, 1, 64, 127
1, 55920, Note_on_c, 1, 69, 127
1, 55920, Note_on_c, 1, 57, 127
1, 55920, Note_on_c, 1, 49, 127
1, 55949, Note_off_c, 1, 73, 0
1, 55949, Note_off_c, 1, 49, 0
1, 55950, Note_on_c, 1, 74, 127
1, 55950, Note_on_c, 1, 47, 127
1, 55979, Note_off_c, 1, 76, 0
1, 55979, Note_off_c, 1, 64, 0
1, 55979, Note_off_c, 1, 69, 0
1, 55979, Note_off_c, 1, 57, 0
1, 55979, Note_off_c, 1, 74, 0
1, 55979, Note_off_c, 1, 47, 0
1, 55980, Note_on_c, 1, 76, 127
1, 55980, Note_on_c, 1, 69, 127
1, 55980, Note_on_c, 1, 61, 127
1, 55980, Note_on_c, 1, 64, 127
1, 55980, Note_on_c, 1, 45, 127
1, 55980, Note_on_c, 1, 49, 127
1, 56009, Note_off_c, 1, 61, 0
1, 56009, Note_off_c, 1, 49, 0
1, 56010, Note_on_c, 1, 78, 127
1, 56010, Note_on_c, 1, 52, 127
1, 56039, Note_off_c, 1, 76, 0
1, 56039, Note_off_c, 1, 69, 0
1, 56039, Note_off_c, 1, 64, 0
1, 56039, Note_off_c, 1, 45, 0
1, 56039, Note_off_c, 1, 78, 0
1, 56039, Note_off_c, 1, 52, 0
1, 56040, Note_on_c, 1, 79, 127
1, 56040, Note_on_c, 1, 66, 127
1, 56040, Note_on_c, 1, 59, 127
1, 56040, Note_on_c, 1, 78, 127
1, 56040, Note_on_c, 1, 51, 127
1, 56054, Note_off_c, 1, 79, 0
1, 56069, Note_off_c, 1, 51, 0
1, 56070, Note_on_c, 1, 76, 127
1, 56070, Note_on_c, 1, 54, 127
1, 56084, Note_off_c, 1, 76, 0
1, 56099, Note_off_c, 1, 66, 0
1, 56099, Note_off_c, 1, 59, 0
1, 56099, Note_off_c, 1, 78, 0
1, 56099, Note_off_c, 1, 54, 0
1, 56100, Note_on_c, 1, 79, 127
1, 56100, Note_on_c, 1, 71, 127
1, 56100, Note_on_c, 1, 59, 127
1, 56100, Note_on_c, 1, 52, 127
1, 56129, Note_off_c, 1, 52, 0
1, 56130, Note_on_c, 1, 73, 127
1, 56130, Note_on_c, 1, 58, 127
1, 56130, Note_on_c, 1, 54, 127
1, 56159, Note_off_c, 1, 79, 0
1, 56159, Note_off_c, 1, 71, 0
1, 56159, Note_off_c, 1, 59, 0
1, 56159, Note_off_c, 1, 73, 0
1, 56159, Note_off_c, 1, 58, 0
1, 56159, Note_off_c, 1, 54, 0
1, 56160, Note_on_c, 1, 78, 127
1, 56160, Note_on_c, 1, 74, 127
1, 56160, Note_on_c, 1, 59, 127
1, 56160, Note_on_c, 1, 71, 127
1, 56160, Note_on_c, 1, 62, 127
1, 56160, Note_on_c, 1, 50, 127
1, 56189, Note_off_c, 1, 74, 0
1, 56189, Note_off_c, 1, 59, 0
1, 56189, Note_off_c, 1, 50, 0
1, 56190, Note_on_c, 1, 61, 127
1, 56190, Note_on_c, 1, 52, 127
1, 56219, Note_off_c, 1, 78, 0
1, 56219, Note_off_c, 1, 71, 0
1, 56219, Note_off_c, 1, 62, 0
1, 56219, Note_off_c, 1, 61, 0
1, 56219, Note_off_c, 1, 52, 0
1, 56220, Note_on_c, 1, 76, 127
1, 56220, Note_on_c, 1, 78, 127
1, 56220, Note_on_c, 1, 62, 127
1, 56220, Note_on_c, 1, 70, 127
1, 56220, Note_on_c, 1, 49, 127
1, 56234, Note_off_c, 1, 78, 0
1, 56234, Note_off_c, 1, 62, 0
1, 56235, Note_on_c, 1, 61, 127
1, 56249, Note_off_c, 1, 49, 0
1, 56249, Note_off_c, 1, 61, 0
1, 56250, Note_on_c, 1, 74, 127
1, 56250, Note_on_c, 1, 59, 127
1, 56250, Note_on_c, 1, 50, 127
1, 56264, Note_off_c, 1, 74, 0
1, 56264, Note_off_c, 1, 59, 0
1, 56279, Note_off_c, 1, 76, 0
1, 56279, Note_off_c, 1, 70, 0
1, 56279, Note_off_c, 1, 50, 0
1, 56280, Note_on_c, 1, 74, 127
1, 56280, Note_on_c, 1, 78, 127
1, 56280, Note_on_c, 1, 62, 127
1, 56280, Note_on_c, 1, 71, 127
1, 56280, Note_on_c, 1, 47, 127
1, 56309, Note_off_c, 1, 74, 0
1, 56309, Note_off_c, 1, 78, 0
1, 56309, Note_off_c, 1, 47, 0
1, 56310, Note_on_c, 1, 76, 127
1, 56310, Note_on_c, 1, 61, 127
1, 56310, Note_on_c, 1, 49, 127
1, 56339, Note_off_c, 1, 62, 0
1, 56339, Note_off_c, 1, 71, 0
1, 56339, Note_off_c, 1, 76, 0
1, 56339, Note_off_c, 1, 61, 0
1, 56339, Note_off_c, 1, 49, 0
1, 56340, Note_on_c, 1, 78, 127
1, 56340, Note_on_c, 1, 66, 127
1, 56340, Note_on_c, 1, 62, 127
1, 56340, Note_on_c, 1, 60, 127
1, 56340, Note_on_c, 1, 45, 127
1, 56369, Note_off_c, 1, 78, 0
1, 56369, Note_off_c, 1, 62, 0
1, 56369, Note_off_c, 1, 45, 0
1, 56370, Note_on_c, 1, 79, 127
1, 56370, Note_on_c, 1, 64, 127
1, 56370, Note_on_c, 1, 47, 127
1, 56399, Note_off_c, 1, 66, 0
1, 56399, Note_off_c, 1, 60, 0
1, 56399, Note_off_c, 1, 79, 0
1, 56399, Note_off_c, 1, 64, 0
1, 56399, Note_off_c, 1, 47, 0
1, 56400, Note_on_c, 1, 81, 127
1, 56400, Note_on_c, 1, 66, 127
1, 56400, Note_on_c, 1, 59, 127
1, 56400, Note_on_c, 1, 43, 127
1, 56414, Note_off_c, 1, 81, 0
1, 56414, Note_off_c, 1, 66, 0
1, 56415, Note_on_c, 1, 79, 127
1, 56415, Note_on_c, 1, 64, 127
1, 56429, Note_off_c, 1, 43, 0
1, 56429, Note_off_c, 1, 79, 0
1, 56429, Note_off_c, 1, 64, 0
1, 56430, Note_on_c, 1, 78, 127
1, 56430, Note_on_c, 1, 62, 127
1, 56430, Note_on_c, 1, 45, 127
1, 56444, Note_off_c, 1, 78, 0
1, 56444, Note_off_c, 1, 62, 0
1, 56459, Note_off_c, 1, 59, 0
1, 56459, Note_off_c, 1, 45, 0
1, 56460, Note_on_c, 1, 81, 127
1, 56460, Note_on_c, 1, 66, 127
1, 56460, Note_on_c, 1, 57, 127
1, 56460, Note_on_c, 1, 42, 127
1, 56489, Note_off_c, 1, 42, 0
1, 56490, Note_on_c, 1, 40, 127
1, 56519, Note_off_c, 1, 81, 0
1, 56519, Note_off_c, 1, 66, 0
1, 56519, Note_off_c, 1, 57, 0
1, 56519, Note_off_c, 1, 40, 0
1, 56520, Note_on_c, 1, 74, 127
1, 56520, Note_on_c, 1, 69, 127
1, 56520, Note_on_c, 1, 66, 127
1, 56520, Note_on_c, 1, 54, 127
1, 56520, Note_on_c, 1, 42, 127
1, 56549, Note_off_c, 1, 74, 0
1, 56549, Note_off_c, 1, 42, 0
1, 56550, Note_on_c, 1, 71, 127
1, 56550, Note_on_c, 1, 45, 127
1, 56579, Note_off_c, 1, 69, 0
1, 56579, Note_off_c, 1, 66, 0
1, 56579, Note_off_c, 1, 54, 0
1, 56579, Note_off_c, 1, 71, 0
1, 56579, Note_off_c, 1, 45, 0
1, 56580, Note_on_c, 1, 76, 127
1, 56580, Note_on_c, 1, 73, 127
1, 56580, Note_on_c, 1, 64, 127
1, 56580, Note_on_c, 1, 56, 127
1, 56580, Note_on_c, 1, 44, 127
1, 56594, Note_off_c, 1, 73, 0
1, 56595, Note_on_c, 1, 71, 127
1, 56609, Note_off_c, 1, 76, 0
1, 56609, Note_off_c, 1, 44, 0
1, 56609, Note_off_c, 1, 71, 0
1, 56610, Note_on_c, 1, 69, 127
1, 56610, Note_on_c, 1, 47, 127
1, 56624, Note_off_c, 1, 69, 0
1, 56639, Note_off_c, 1, 64, 0
1, 56639, Note_off_c, 1, 56, 0
1, 56639, Note_off_c, 1, 47, 0
1, 56640, Note_on_c, 1, 73, 127
1, 56640, Note_on_c, 1, 64, 127
1, 56640, Note_on_c, 1, 57, 127
1, 56640, Note_on_c, 1, 45, 127
1, 56669, Note_off_c, 1, 45, 0
1, 56670, Note_on_c, 1, 69, 127
1, 56670, Note_on_c, 1, 49, 127
1, 56699, Note_off_c, 1, 73, 0
1, 56699, Note_off_c, 1, 64, 0
1, 56699, Note_off_c, 1, 57, 0
1, 56699, Note_off_c, 1, 69, 0
1, 56699, Note_off_c, 1, 49, 0
1, 56700, Note_on_c, 1, 74, 127
1, 56700, Note_on_c, 1, 66, 127
1, 56700, Note_on_c, 1, 59, 127
1, 56700, Note_on_c, 1, 57, 127
1, 56700, Note_on_c, 1, 47, 127
1, 56729, Note_off_c, 1, 66, 0
1, 56729, Note_off_c, 1, 47, 0
1, 56730, Note_on_c, 1, 76, 127
1, 56730, Note_on_c, 1, 50, 127
1, 56759, Note_off_c, 1, 74, 0
1, 56759, Note_off_c, 1, 59, 0
1, 56759, Note_off_c, 1, 57, 0
1, 56759, Note_off_c, 1, 76, 0
1, 56759, Note_off_c, 1, 50, 0
1, 56760, Note_on_c, 1, 78, 127
1, 56760, Note_on_c, 1, 69, 127
1, 56760, Note_on_c, 1, 64, 127
1, 56760, Note_on_c, 1, 55, 127
1, 56760, Note_on_c, 1, 49, 127
1, 56774, Note_off_c, 1, 78, 0
1, 56775, Note_on_c, 1, 76, 127
1, 56789, Note_off_c, 1, 49, 0
1, 56789, Note_off_c, 1, 76, 0
1, 56790, Note_on_c, 1, 74, 127
1, 56790, Note_on_c, 1, 52, 127
1, 56804, Note_off_c, 1, 74, 0
1, 56819, Note_off_c, 1, 64, 0
1, 56819, Note_off_c, 1, 55, 0
1, 56819, Note_off_c, 1, 52, 0
1, 56820, Note_on_c, 1, 57, 127
1, 56820, Note_on_c, 1, 54, 127
1, 56820, Note_on_c, 1, 50, 127
1, 56849, Note_off_c, 1, 69, 0
1, 56849, Note_off_c, 1, 50, 0
1, 56850, Note_on_c, 1, 68, 127
1, 56879, Note_off_c, 1, 57, 0
1, 56879, Note_off_c, 1, 54, 0
1, 56879, Note_off_c, 1, 68, 0
1, 56880, Note_on_c, 1, 78, 127
1, 56880, Note_on_c, 1, 69, 127
1, 56880, Note_on_c, 1, 57, 127
1, 56880, Note_on_c, 1, 52, 127
1, 56880, Note_on_c, 1, 49, 127
1, 56909, Note_off_c, 1, 57, 0
1, 56909, Note_off_c, 1, 49, 0
1, 56910, Note_on_c, 1, 80, 127
1, 56910, Note_on_c, 1, 59, 127
1, 56910, Note_on_c, 1, 50, 127
1, 56938, Note_off_c, 1, 78, 0
1, 56939, Note_off_c, 1, 69, 0
1, 56939, Note_off_c, 1, 52, 0
1, 56939, Note_off_c, 1, 80, 0
1, 56939, Note_off_c, 1, 59, 0
1, 56939, Note_off_c, 1, 50, 0
1, 56940, Note_on_c, 1, 81, 127
1, 56940, Note_on_c, 1, 62, 127
1, 56940, Note_on_c, 1, 61, 127
1, 56940, Note_on_c, 1, 80, 127
1, 56940, Note_on_c, 1, 50, 127
1, 56940, Note_on_c, 1, 47, 127
1, 56954, Note_off_c, 1, 81, 0
1, 56954, Note_off_c, 1, 61, 0
1, 56955, Note_on_c, 1, 59, 127
1, 56969, Note_off_c, 1, 47, 0
1, 56969, Note_off_c, 1, 59, 0
1, 56970, Note_on_c, 1, 78, 127
1, 56970, Note_on_c, 1, 57, 127
1, 56970, Note_on_c, 1, 49, 127
1, 56984, Note_off_c, 1, 78, 0
1, 56984, Note_off_c, 1, 57, 0
1, 56999, Note_off_c, 1, 62, 0
1, 56999, Note_off_c, 1, 80, 0
1, 56999, Note_off_c, 1, 50, 0
1, 56999, Note_off_c, 1, 49, 0
1, 57000, Note_on_c, 1, 81, 127
1, 57000, Note_on_c, 1, 64, 127
1, 57000, Note_on_c, 1, 61, 127
1, 57000, Note_on_c, 1, 49, 127
1, 57000, Note_on_c, 1, 45, 127
1, 57029, Note_off_c, 1, 61, 0
1, 57029, Note_off_c, 1, 45, 0
1, 57030, Note_on_c, 1, 62, 127
1, 57030, Note_on_c, 1, 57, 127
1, 57059, Note_off_c, 1, 81, 0
1, 57059, Note_off_c, 1, 64, 0
1, 57059, Note_off_c, 1, 49, 0
1, 57059, Note_off_c, 1, 62, 0
1, 57059, Note_off_c, 1, 57, 0
1, 57060, Note_on_c, 1, 76, 127
1, 57060, Note_on_c, 1, 69, 127
1, 57060, Note_on_c, 1, 61, 127
1, 57060, Note_on_c, 1, 64, 127
1, 57060, Note_on_c, 1, 45, 127
1, 57060, Note_on_c, 1, 55, 127
1, 57089, Note_off_c, 1, 61, 0
1, 57089, Note_off_c, 1, 55, 0
1, 57090, Note_on_c, 1, 78, 127
1, 57090, Note_on_c, 1, 63, 127
1, 57090, Note_on_c, 1, 57, 127
1, 57118, Note_off_c, 1, 76, 0
1, 57119, Note_off_c, 1, 69, 0
1, 57119, Note_off_c, 1, 64, 0
1, 57119, Note_off_c, 1, 45, 0
1, 57119, Note_off_c, 1, 78, 0
1, 57119, Note_off_c, 1, 63, 0
1, 57119, Note_off_c, 1, 57, 0
1, 57120, Note_on_c, 1, 79, 127
1, 57120, Note_on_c, 1, 78, 127
1, 57120, Note_on_c, 1, 63, 127
1, 57120, Note_on_c, 1, 64, 127
1, 57120, Note_on_c, 1, 57, 127
1, 57120, Note_on_c, 1, 54, 127
1, 57134, Note_off_c, 1, 79, 0
1, 57134, Note_off_c, 1, 64, 0
1, 57149, Note_off_c, 1, 54, 0
1, 57150, Note_on_c, 1, 76, 127
1, 57150, Note_on_c, 1, 61, 127
1, 57150, Note_on_c, 1, 55, 127
1, 57164, Note_off_c, 1, 76, 0
1, 57164, Note_off_c, 1, 61, 0
1, 57179, Note_off_c, 1, 78, 0
1, 57179, Note_off_c, 1, 63, 0
1, 57179, Note_off_c, 1, 57, 0
1, 57179, Note_off_c, 1, 55, 0
1, 57180, Note_on_c, 1, 79, 127
1, 57180, Note_on_c, 1, 64, 127
1, 57180, Note_on_c, 1, 52, 127
1, 57209, Note_off_c, 1, 52, 0
1, 57210, Note_on_c, 1, 50, 127
1, 57238, Note_off_c, 1, 79, 0
1, 57239, Note_off_c, 1, 64, 0
1, 57239, Note_off_c, 1, 50, 0
1, 57240, Note_on_c, 1, 72, 127
1, 57240, Note_on_c, 1, 64, 127
1, 57240, Note_on_c, 1, 55, 127
1, 57240, Note_on_c, 1, 52, 127
1, 57269, Note_off_c, 1, 55, 0
1, 57269, Note_off_c, 1, 52, 0
1, 57270, Note_on_c, 1, 57, 127
1, 57270, Note_on_c, 1, 54, 127
1, 57298, Note_off_c, 1, 72, 0
1, 57299, Note_off_c, 1, 64, 0
1, 57299, Note_off_c, 1, 57, 0
1, 57299, Note_off_c, 1, 54, 0
1, 57300, Note_on_c, 1, 72, 127
1, 57300, Note_on_c, 1, 62, 127
1, 57300, Note_on_c, 1, 59, 127
1, 57300, Note_on_c, 1, 55, 127
1, 57300, Note_on_c, 1, 54, 127
1, 57314, Note_off_c, 1, 59, 0
1, 57314, Note_off_c, 1, 55, 0
1, 57315, Note_on_c, 1, 57, 127
1, 57329, Note_off_c, 1, 54, 0
1, 57329, Note_off_c, 1, 57, 0
1, 57330, Note_on_c, 1, 52, 127
1, 57344, Note_off_c, 1, 52, 0
1, 57358, Note_off_c, 1, 72, 0
1, 57359, Note_off_c, 1, 62, 0
1, 57360, Note_on_c, 1, 71, 127
1, 57360, Note_on_c, 1, 62, 127
1, 57360, Note_on_c, 1, 59, 127
1, 57360, Note_on_c, 1, 55, 127
1, 57390, Note_on_c, 1, 57, 127
1, 57419, Note_off_c, 1, 71, 0
1, 57419, Note_off_c, 1, 62, 0
1, 57419, Note_off_c, 1, 59, 0
1, 57419, Note_off_c, 1, 55, 0
1, 57419, Note_off_c, 1, 57, 0
1, 57420, Note_on_c, 1, 74, 127
1, 57420, Note_on_c, 1, 71, 127
1, 57420, Note_on_c, 1, 62, 127
1, 57420, Note_on_c, 1, 59, 127
1, 57420, Note_on_c, 1, 54, 127
1, 57450, Note_on_c, 1, 55, 127
1, 57479, Note_off_c, 1, 74, 0
1, 57479, Note_off_c, 1, 71, 0
1, 57479, Note_off_c, 1, 62, 0
1, 57479, Note_off_c, 1, 59, 0
1, 57479, Note_off_c, 1, 54, 0
1, 57479, Note_off_c, 1, 55, 0
1, 57480, Note_on_c, 1, 79, 127
1, 57480, Note_on_c, 1, 73, 127
1, 57480, Note_on_c, 1, 64, 127
1, 57480, Note_on_c, 1, 55, 127
1, 57480, Note_on_c, 1, 61, 127
1, 57480, Note_on_c, 1, 52, 127
1, 57509, Note_off_c, 1, 55, 0
1, 57510, Note_on_c, 1, 54, 127
1, 57539, Note_off_c, 1, 79, 0
1, 57539, Note_off_c, 1, 73, 0
1, 57539, Note_off_c, 1, 64, 0
1, 57539, Note_off_c, 1, 61, 0
1, 57539, Note_off_c, 1, 52, 0
1, 57539, Note_off_c, 1, 54, 0
1, 57540, Note_on_c, 1, 78, 127
1, 57540, Note_on_c, 1, 74, 127
1, 57540, Note_on_c, 1, 66, 127
1, 57540, Note_on_c, 1, 57, 127
1, 57540, Note_on_c, 1, 62, 127
1, 57540, Note_on_c, 1, 50, 127
1, 57599, Note_off_c, 1, 78, 0
1, 57599, Note_off_c, 1, 74, 0
1, 57599, Note_off_c, 1, 66, 0
1, 57599, Note_off_c, 1, 57, 0
1, 57599, Note_off_c, 1, 62, 0
1, 57599, Note_off_c, 1, 50, 0
1, 57600, Note_on_c, 1, 78, 127
1, 57600, Note_on_c, 1, 74, 127
1, 57600, Note_on_c, 1, 69, 127
1, 57600, Note_on_c, 1, 50, 127
1, 57600, Note_on_c, 1, 66, 127
1, 57600, Note_on_c, 1, 57, 127
1, 57600, Note_on_c, 1, 81, 127
1, 57600, Note_on_c, 1, 62, 127
1, 57600, Note_on_c, 1, 49, 127
1, 57600, Note_on_c, 1, 61, 127
1, 57629, Note_off_c, 1, 78, 0
1, 57629, Note_off_c, 1, 62, 0
1, 57629, Note_off_c, 1, 61, 0
1, 57630, Note_on_c, 1, 80, 127
1, 57658, Note_off_c, 1, 81, 0
1, 57659, Note_off_c, 1, 66, 0
1, 57659, Note_off_c, 1, 57, 0
1, 57659, Note_off_c, 1, 49, 0
1, 57659, Note_off_c, 1, 80, 0
1, 57660, Note_off_c, 1, 69, 0
1, 57660, Note_on_c, 1, 71, 127
1, 57660, Note_on_c, 1, 56, 127
1, 57660, Note_on_c, 1, 68, 127
1, 57660, Note_on_c, 1, 47, 127
1, 57660, Note_on_c, 1, 59, 127
1, 57689, Note_off_c, 1, 59, 0
1, 57719, Note_off_c, 1, 71, 0
1, 57719, Note_off_c, 1, 56, 0
1, 57719, Note_off_c, 1, 68, 0
1, 57719, Note_off_c, 1, 47, 0
1, 57720, Note_off_c, 1, 74, 0
1, 57720, Note_off_c, 1, 50, 0
1, 57720, Note_on_c, 1, 76, 127
1, 57720, Note_on_c, 1, 45, 127
1, 57720, Note_on_c, 1, 73, 127
1, 57720, Note_on_c, 1, 64, 127
1, 57750, Note_on_c, 1, 55, 127
1, 57778, Note_off_c, 1, 73, 0
1, 57779, Note_off_c, 1, 64, 0
1, 57779, Note_off_c, 1, 55, 0
1, 57780, Note_off_c, 1, 76, 0
1, 57780, Note_off_c, 1, 45, 0
1, 57840, Note_on_c, 1, 76, 127
1, 57840, Note_on_c, 1, 73, 127
1, 57840, Note_on_c, 1, 69, 127
1, 57840, Note_on_c, 1, 64, 127
1, 57840, Note_on_c, 1, 55, 127
1, 57870, Note_on_c, 1, 78, 127
1, 57870, Note_on_c, 1, 57, 127
1, 57898, Note_off_c, 1, 76, 0
1, 57899, Note_off_c, 1, 73, 0
1, 57899, Note_off_c, 1, 69, 0
1, 57899, Note_off_c, 1, 64, 0
1, 57899, Note_off_c, 1, 55, 0
1, 57899, Note_off_c, 1, 78, 0
1, 57899, Note_off_c, 1, 57, 0
1, 57900, Note_on_c, 1, 75, 127
1, 57900, Note_on_c, 1, 72, 127
1, 57900, Note_on_c, 1, 71, 127
1, 57900, Note_on_c, 1, 69, 127
1, 57900, Note_on_c, 1, 66, 127
1, 57900, Note_on_c, 1, 54, 127
1, 57929, Note_off_c, 1, 75, 0
1, 57929, Note_off_c, 1, 54, 0
1, 57930, Note_on_c, 1, 78, 127
1, 57930, Note_on_c, 1, 52, 127
1, 57959, Note_off_c, 1, 72, 0
1, 57959, Note_off_c, 1, 71, 0
1, 57959, Note_off_c, 1, 69, 0
1, 57959, Note_off_c, 1, 66, 0
1, 57959, Note_off_c, 1, 78, 0
1, 57959, Note_off_c, 1, 52, 0
1, 57960, Note_on_c, 1, 81, 127
1, 57960, Note_on_c, 1, 72, 127
1, 57960, Note_on_c, 1, 71, 127
1, 57960, Note_on_c, 1, 63, 127
1, 57960, Note_on_c, 1, 54, 127
1, 57989, Note_off_c, 1, 54, 0
1, 57990, Note_on_c, 1, 55, 127
1, 58019, Note_off_c, 1, 72, 0
1, 58019, Note_off_c, 1, 71, 0
1, 58019, Note_off_c, 1, 63, 0
1, 58019, Note_off_c, 1, 55, 0
1, 58020, Note_on_c, 1, 64, 127
1, 58020, Note_on_c, 1, 69, 127
1, 58020, Note_on_c, 1, 52, 127
1, 58049, Note_off_c, 1, 52, 0
1, 58079, Note_off_c, 1, 81, 0
1, 58079, Note_off_c, 1, 64, 0
1, 58079, Note_off_c, 1, 69, 0
1, 58080, Note_on_c, 1, 72, 127
1, 58080, Note_on_c, 1, 66, 127
1, 58080, Note_on_c, 1, 69, 127
1, 58080, Note_on_c, 1, 51, 127
1, 58094, Note_off_c, 1, 72, 0
1, 58095, Note_on_c, 1, 71, 127
1, 58109, Note_off_c, 1, 51, 0
1, 58109, Note_off_c, 1, 71, 0
1, 58110, Note_on_c, 1, 60, 127
1, 58139, Note_off_c, 1, 66, 0
1, 58139, Note_off_c, 1, 69, 0
1, 58139, Note_off_c, 1, 60, 0
1, 58140, Note_on_c, 1, 69, 127
1, 58140, Note_on_c, 1, 66, 127
1, 58140, Note_on_c, 1, 63, 127
1, 58140, Note_on_c, 1, 71, 127
1, 58140, Note_on_c, 1, 59, 127
1, 58169, Note_off_c, 1, 69, 0
1, 58169, Note_off_c, 1, 59, 0
1, 58170, Note_on_c, 1, 60, 127
1, 58199, Note_off_c, 1, 66, 0
1, 58199, Note_off_c, 1, 63, 0
1, 58199, Note_off_c, 1, 60, 0
1, 58200, Note_on_c, 1, 57, 127
1, 58229, Note_off_c, 1, 57, 0
1, 58260, Note_on_c, 1, 64, 127
1, 58260, Note_on_c, 1, 55, 127
1, 58290, Note_on_c, 1, 73, 127
1, 58290, Note_on_c, 1, 54, 127
1, 58304, Note_off_c, 1, 73, 0
1, 58305, Note_on_c, 1, 75, 127
1, 58319, Note_off_c, 1, 71, 0
1, 58319, Note_off_c, 1, 64, 0
1, 58319, Note_off_c, 1, 55, 0
1, 58319, Note_off_c, 1, 54, 0
1, 58319, Note_off_c, 1, 75, 0
1, 58320, Note_on_c, 1, 76, 127
1, 58320, Note_on_c, 1, 71, 127
1, 58320, Note_on_c, 1, 59, 127
1, 58320, Note_on_c, 1, 55, 127
1, 58350, Note_on_c, 1, 78, 127
1, 58350, Note_on_c, 1, 57, 127
1, 58364, Note_off_c, 1, 78, 0
1, 58365, Note_on_c, 1, 79, 127
1, 58379, Note_off_c, 1, 76, 0
1, 58379, Note_off_c, 1, 71, 0
1, 58379, Note_off_c, 1, 59, 0
1, 58379, Note_off_c, 1, 55, 0
1, 58379, Note_off_c, 1, 57, 0
1, 58379, Note_off_c, 1, 79, 0
1, 58380, Note_on_c, 1, 81, 127
1, 58380, Note_on_c, 1, 75, 127
1, 58380, Note_on_c, 1, 71, 127
1, 58380, Note_on_c, 1, 69, 127
1, 58380, Note_on_c, 1, 59, 127
1, 58380, Note_on_c, 1, 54, 127
1, 58410, Note_on_c, 1, 55, 127
1, 58439, Note_off_c, 1, 75, 0
1, 58439, Note_off_c, 1, 71, 0
1, 58439, Note_off_c, 1, 69, 0
1, 58439, Note_off_c, 1, 59, 0
1, 58439, Note_off_c, 1, 54, 0
1, 58439, Note_off_c, 1, 55, 0
1, 58440, Note_on_c, 1, 76, 127
1, 58440, Note_on_c, 1, 52, 127
1, 58469, Note_off_c, 1, 81, 0
1, 58470, Note_on_c, 1, 79, 127
1, 58470, Note_on_c, 1, 51, 127
1, 58484, Note_off_c, 1, 79, 0
1, 58485, Note_on_c, 1, 78, 127
1, 58499, Note_off_c, 1, 51, 0
1, 58499, Note_off_c, 1, 78, 0
1, 58500, Note_on_c, 1, 64, 127
1, 58500, Note_on_c, 1, 67, 127
1, 58559, Note_off_c, 1, 76, 0
1, 58559, Note_off_c, 1, 52, 0
1, 58559, Note_off_c, 1, 64, 0
1, 58559, Note_off_c, 1, 67, 0
1, 58560, Note_on_c, 1, 79, 127
1, 58560, Note_on_c, 1, 71, 127
1, 58560, Note_on_c, 1, 64, 127
1, 58560, Note_on_c, 1, 76, 127
1, 58560, Note_on_c, 1, 67, 127
1, 58560, Note_on_c, 1, 50, 127
1, 58589, Note_off_c, 1, 79, 0
1, 58590, Note_on_c, 1, 52, 127
1, 58605, Note_on_c, 1, 78, 127
1, 58619, Note_off_c, 1, 64, 0
1, 58619, Note_off_c, 1, 76, 0
1, 58619, Note_off_c, 1, 67, 0
1, 58619, Note_off_c, 1, 50, 0
1, 58619, Note_off_c, 1, 52, 0
1, 58619, Note_off_c, 1, 78, 0
1, 58620, Note_on_c, 1, 49, 127
1, 58650, Note_on_c, 1, 83, 127
1, 58650, Note_on_c, 1, 47, 127
1, 58664, Note_off_c, 1, 83, 0
1, 58665, Note_on_c, 1, 81, 127
1, 58679, Note_off_c, 1, 71, 0
1, 58679, Note_off_c, 1, 49, 0
1, 58679, Note_off_c, 1, 47, 0
1, 58679, Note_off_c, 1, 81, 0
1, 58680, Note_on_c, 1, 79, 127
1, 58680, Note_on_c, 1, 76, 127
1, 58680, Note_on_c, 1, 57, 127
1, 58680, Note_on_c, 1, 69, 127
1, 58680, Note_on_c, 1, 64, 127
1, 58680, Note_on_c, 1, 61, 127
1, 58680, Note_on_c, 1, 49, 127
1, 58709, Note_off_c, 1, 76, 0
1, 58709, Note_off_c, 1, 69, 0
1, 58709, Note_off_c, 1, 49, 0
1, 58710, Note_on_c, 1, 83, 127
1, 58710, Note_on_c, 1, 66, 127
1, 58710, Note_on_c, 1, 50, 127
1, 58724, Note_off_c, 1, 83, 0
1, 58725, Note_on_c, 1, 81, 127
1, 58725, Note_on_c, 1, 78, 127
1, 58739, Note_off_c, 1, 79, 0
1, 58739, Note_off_c, 1, 57, 0
1, 58739, Note_off_c, 1, 64, 0
1, 58739, Note_off_c, 1, 61, 0
1, 58739, Note_off_c, 1, 66, 0
1, 58739, Note_off_c, 1, 50, 0
1, 58739, Note_off_c, 1, 81, 0
1, 58739, Note_off_c, 1, 78, 0
1, 58740, Note_on_c, 1, 79, 127
1, 58740, Note_on_c, 1, 76, 127
1, 58740, Note_on_c, 1, 59, 127
1, 58740, Note_on_c, 1, 74, 127
1, 58740, Note_on_c, 1, 67, 127
1, 58740, Note_on_c, 1, 47, 127
1, 58769, Note_off_c, 1, 47, 0
1, 58770, Note_on_c, 1, 49, 127
1, 58799, Note_off_c, 1, 59, 0
1, 58799, Note_off_c, 1, 74, 0
1, 58799, Note_off_c, 1, 67, 0
1, 58799, Note_off_c, 1, 49, 0
1, 58800, Note_on_c, 1, 61, 127
1, 58800, Note_on_c, 1, 73, 127
1, 58800, Note_on_c, 1, 69, 127
1, 58800, Note_on_c, 1, 64, 127
1, 58800, Note_on_c, 1, 57, 127
1, 58800, Note_on_c, 1, 45, 127
1, 58829, Note_off_c, 1, 79, 0
1, 58829, Note_off_c, 1, 76, 0
1, 58829, Note_off_c, 1, 45, 0
1, 58845, Note_on_c, 1, 78, 127
1, 58859, Note_off_c, 1, 61, 0
1, 58859, Note_off_c, 1, 73, 0
1, 58859, Note_off_c, 1, 69, 0
1, 58859, Note_off_c, 1, 64, 0
1, 58859, Note_off_c, 1, 57, 0
1, 58859, Note_off_c, 1, 78, 0
1, 58860, Note_on_c, 1, 79, 127
1, 58860, Note_on_c, 1, 76, 127
1, 58860, Note_on_c, 1, 73, 127
1, 58860, Note_on_c, 1, 69, 127
1, 58860, Note_on_c, 1, 64, 127
1, 58860, Note_on_c, 1, 61, 127
1, 58860, Note_on_c, 1, 57, 127
1, 58889, Note_off_c, 1, 79, 0
1, 58889, Note_off_c, 1, 76, 0
1, 58890, Note_on_c, 1, 59, 127
1, 58905, Note_on_c, 1, 78, 127
1, 58905, Note_on_c, 1, 74, 127
1, 58919, Note_off_c, 1, 73, 0
1, 58919, Note_off_c, 1, 69, 0
1, 58919, Note_off_c, 1, 64, 0
1, 58919, Note_off_c, 1, 61, 0
1, 58919, Note_off_c, 1, 57, 0
1, 58919, Note_off_c, 1, 59, 0
1, 58919, Note_off_c, 1, 78, 0
1, 58919, Note_off_c, 1, 74, 0
1, 58920, Note_on_c, 1, 79, 127
1, 58920, Note_on_c, 1, 76, 127
1, 58920, Note_on_c, 1, 71, 127
1, 58920, Note_on_c, 1, 64, 127
1, 58920, Note_on_c, 1, 55, 127
1, 58950, Note_on_c, 1, 57, 127
1, 58979, Note_off_c, 1, 71, 0
1, 58979, Note_off_c, 1, 64, 0
1, 58979, Note_off_c, 1, 55, 0
1, 58979, Note_off_c, 1, 57, 0
1, 58980, Note_on_c, 1, 69, 127
1, 58980, Note_on_c, 1, 73, 127
1, 58980, Note_on_c, 1, 54, 127
1, 59009, Note_off_c, 1, 79, 0
1, 59009, Note_off_c, 1, 76, 0
1, 59010, Note_on_c, 1, 78, 127
1, 59010, Note_on_c, 1, 52, 127
1, 59024, Note_off_c, 1, 78, 0
1, 59039, Note_off_c, 1, 69, 0
1, 59039, Note_off_c, 1, 73, 0
1, 59039, Note_off_c, 1, 54, 0
1, 59039, Note_off_c, 1, 52, 0
1, 59040, Note_on_c, 1, 81, 127
1, 59040, Note_on_c, 1, 74, 127
1, 59040, Note_on_c, 1, 69, 127
1, 59040, Note_on_c, 1, 62, 127
1, 59040, Note_on_c, 1, 54, 127
1, 59069, Note_off_c, 1, 81, 0
1, 59070, Note_on_c, 1, 79, 127
1, 59070, Note_on_c, 1, 55, 127
1, 59084, Note_off_c, 1, 79, 0
1, 59085, Note_on_c, 1, 78, 127
1, 59099, Note_off_c, 1, 74, 0
1, 59099, Note_off_c, 1, 69, 0
1, 59099, Note_off_c, 1, 62, 0
1, 59099, Note_off_c, 1, 54, 0
1, 59099, Note_off_c, 1, 55, 0
1, 59099, Note_off_c, 1, 78, 0
1, 59100, Note_on_c, 1, 79, 127
1, 59100, Note_on_c, 1, 73, 127
1, 59100, Note_on_c, 1, 69, 127
1, 59100, Note_on_c, 1, 67, 127
1, 59100, Note_on_c, 1, 64, 127
1, 59100, Note_on_c, 1, 52, 127
1, 59129, Note_off_c, 1, 79, 0
1, 59130, Note_on_c, 1, 78, 127
1, 59130, Note_on_c, 1, 54, 127
1, 59144, Note_off_c, 1, 78, 0
1, 59145, Note_on_c, 1, 76, 127
1, 59159, Note_off_c, 1, 73, 0
1, 59159, Note_off_c, 1, 69, 0
1, 59159, Note_off_c, 1, 67, 0
1, 59159, Note_off_c, 1, 64, 0
1, 59159, Note_off_c, 1, 52, 0
1, 59159, Note_off_c, 1, 54, 0
1, 59159, Note_off_c, 1, 76, 0
1, 59160, Note_on_c, 1, 78, 127
1, 59160, Note_on_c, 1, 74, 127
1, 59160, Note_on_c, 1, 69, 127
1, 59160, Note_on_c, 1, 66, 127
1, 59160, Note_on_c, 1, 57, 127
1, 59160, Note_on_c, 1, 50, 127
1, 59189, Note_off_c, 1, 78, 0
1, 59190, Note_on_c, 1, 81, 127
1, 59190, Note_on_c, 1, 49, 127
1, 59204, Note_off_c, 1, 81, 0
1, 59205, Note_on_c, 1, 79, 127
1, 59205, Note_on_c, 1, 76, 127
1, 59219, Note_off_c, 1, 69, 0
1, 59219, Note_off_c, 1, 49, 0
1, 59219, Note_off_c, 1, 79, 0
1, 59219, Note_off_c, 1, 76, 0
1, 59250, Note_on_c, 1, 52, 127
1, 59279, Note_off_c, 1, 74, 0
1, 59279, Note_off_c, 1, 66, 0
1, 59279, Note_off_c, 1, 57, 0
1, 59279, Note_off_c, 1, 50, 0
1, 59279, Note_off_c, 1, 52, 0
1, 59280, Note_on_c, 1, 78, 127
1, 59280, Note_on_c, 1, 74, 127
1, 59280, Note_on_c, 1, 69, 127
1, 59280, Note_on_c, 1, 66, 127
1, 59280, Note_on_c, 1, 62, 127
1, 59280, Note_on_c, 1, 49, 127
1, 59310, Note_on_c, 1, 50, 127
1, 59325, Note_on_c, 1, 76, 127
1, 59339, Note_off_c, 1, 69, 0
1, 59339, Note_off_c, 1, 66, 0
1, 59339, Note_off_c, 1, 62, 0
1, 59339, Note_off_c, 1, 49, 0
1, 59339, Note_off_c, 1, 50, 0
1, 59339, Note_off_c, 1, 76, 0
1, 59340, Note_on_c, 1, 83, 127
1, 59340, Note_on_c, 1, 47, 127
1, 59369, Note_off_c, 1, 78, 0
1, 59399, Note_off_c, 1, 47, 0
1, 59400, Note_on_c, 1, 80, 127
1, 59400, Note_on_c, 1, 71, 127
1, 59400, Note_on_c, 1, 68, 127
1, 59400, Note_on_c, 1, 59, 127
1, 59414, Note_off_c, 1, 83, 0
1, 59429, Note_off_c, 1, 80, 0
1, 59429, Note_off_c, 1, 71, 0
1, 59459, Note_off_c, 1, 74, 0
1, 59459, Note_off_c, 1, 68, 0
1, 59459, Note_off_c, 1, 59, 0
1, 59460, Note_on_c, 1, 81, 127
1, 59460, Note_on_c, 1, 78, 127
1, 59460, Note_on_c, 1, 74, 127
1, 59460, Note_on_c, 1, 69, 127
1, 59460, Note_on_c, 1, 66, 127
1, 59460, Note_on_c, 1, 57, 127
1, 59489, Note_off_c, 1, 81, 0
1, 59489, Note_off_c, 1, 78, 0
1, 59490, Note_on_c, 1, 80, 127
1, 59504, Note_off_c, 1, 80, 0
1, 59519, Note_off_c, 1, 69, 0
1, 59519, Note_off_c, 1, 66, 0
1, 59519, Note_off_c, 1, 57, 0
1, 59520, Note_on_c, 1, 83, 127
1, 59520, Note_on_c, 1, 76, 127
1, 59520, Note_on_c, 1, 71, 127
1, 59520, Note_on_c, 1, 64, 127
1, 59520, Note_on_c, 1, 56, 127
1, 59550, Note_on_c, 1, 73, 127
1, 59579, Note_off_c, 1, 83, 0
1, 59579, Note_off_c, 1, 71, 0
1, 59579, Note_off_c, 1, 64, 0
1, 59579, Note_off_c, 1, 73, 0
1, 59580, Note_on_c, 1, 68, 127
1, 59580, Note_on_c, 1, 59, 127
1, 59595, Note_on_c, 1, 85, 127
1, 59609, Note_off_c, 1, 68, 0
1, 59609, Note_off_c, 1, 85, 0
1, 59625, Note_on_c, 1, 54, 127
1, 59639, Note_off_c, 1, 74, 0
1, 59639, Note_off_c, 1, 56, 0
1, 59639, Note_off_c, 1, 59, 0
1, 59639, Note_off_c, 1, 54, 0
1, 59640, Note_on_c, 1, 52, 127
1, 59655, Note_on_c, 1, 50, 127
1, 59669, Note_off_c, 1, 50, 0
1, 59670, Note_on_c, 1, 49, 127
1, 59684, Note_off_c, 1, 49, 0
1, 59685, Note_on_c, 1, 47, 127
1, 59699, Note_off_c, 1, 52, 0
1, 59699, Note_off_c, 1, 47, 0
1, 59700, Note_on_c, 1, 45, 127
1, 59759, Note_off_c, 1, 76, 0
1, 59760, Note_off_c, 1, 45, 0
1, 59820, Note_on_c, 1, 79, 127
1, 59820, Note_on_c, 1, 76, 127
1, 59820, Note_on_c, 1, 72, 127
1, 59820, Note_on_c, 1, 67, 127
1, 59820, Note_on_c, 1, 64, 127
1, 59820, Note_on_c, 1, 55, 127
1, 59849, Note_off_c, 1, 79, 0
1, 59849, Note_off_c, 1, 76, 0
1, 59850, Note_on_c, 1, 78, 127
1, 59864, Note_off_c, 1, 78, 0
1, 59879, Note_off_c, 1, 67, 0
1, 59879, Note_off_c, 1, 64, 0
1, 59879, Note_off_c, 1, 55, 0
1, 59880, Note_on_c, 1, 81, 127
1, 59880, Note_on_c, 1, 74, 127
1, 59880, Note_on_c, 1, 69, 127
1, 59880, Note_on_c, 1, 62, 127
1, 59880, Note_on_c, 1, 54, 127
1, 59910, Note_on_c, 1, 71, 127
1, 59939, Note_off_c, 1, 72, 0
1, 59939, Note_off_c, 1, 81, 0
1, 59939, Note_off_c, 1, 62, 0
1, 59939, Note_off_c, 1, 71, 0
1, 59940, Note_on_c, 1, 66, 127
1, 59940, Note_on_c, 1, 57, 127
1, 59955, Note_on_c, 1, 83, 127
1, 59969, Note_off_c, 1, 69, 0
1, 59969, Note_off_c, 1, 66, 0
1, 59969, Note_off_c, 1, 83, 0
1, 59985, Note_on_c, 1, 52, 127
1, 59999, Note_off_c, 1, 54, 0
1, 59999, Note_off_c, 1, 57, 0
1, 59999, Note_off_c, 1, 52, 0
1, 60000, Note_on_c, 1, 50, 127
1, 60014, Note_off_c, 1, 50, 0
1, 60015, Note_on_c, 1, 49, 127
1, 60029, Note_off_c, 1, 49, 0
1, 60030, Note_on_c, 1, 47, 127
1, 60044, Note_off_c, 1, 47, 0
1, 60045, Note_on_c, 1, 45, 127
1, 60059, Note_off_c, 1, 45, 0
1, 60060, Note_on_c, 1, 43, 127
1, 60090, Note_on_c, 1, 73, 127
1, 60104, Note_off_c, 1, 73, 0
1, 60119, Note_off_c, 1, 43, 0
1, 60120, Note_off_c, 1, 74, 0
1, 60180, Note_on_c, 1, 78, 127
1, 60180, Note_on_c, 1, 74, 127
1, 60180, Note_on_c, 1, 69, 127
1, 60180, Note_on_c, 1, 57, 127
1, 60180, Note_on_c, 1, 66, 127
1, 60180, Note_on_c, 1, 54, 127
1, 60195, Note_on_c, 1, 71, 127
1, 60209, Note_off_c, 1, 78, 0
1, 60209, Note_off_c, 1, 69, 0
1, 60209, Note_off_c, 1, 71, 0
1, 60210, Note_on_c, 1, 76, 127
1, 60210, Note_on_c, 1, 73, 127
1, 60224, Note_off_c, 1, 76, 0
1, 60224, Note_off_c, 1, 73, 0
1, 60239, Note_off_c, 1, 74, 0
1, 60239, Note_off_c, 1, 57, 0
1, 60239, Note_off_c, 1, 66, 0
1, 60239, Note_off_c, 1, 54, 0
1, 60240, Note_on_c, 1, 79, 127
1, 60240, Note_on_c, 1, 83, 127
1, 60240, Note_on_c, 1, 76, 127
1, 60240, Note_on_c, 1, 71, 127
1, 60240, Note_on_c, 1, 64, 127
1, 60240, Note_on_c, 1, 67, 127
1, 60240, Note_on_c, 1, 59, 127
1, 60240, Note_on_c, 1, 52, 127
1, 60255, Note_on_c, 1, 73, 127
1, 60269, Note_off_c, 1, 71, 0
1, 60269, Note_off_c, 1, 64, 0
1, 60269, Note_off_c, 1, 59, 0
1, 60269, Note_off_c, 1, 73, 0
1, 60270, Note_on_c, 1, 74, 127
1, 60270, Note_on_c, 1, 57, 127
1, 60284, Note_off_c, 1, 74, 0
1, 60299, Note_off_c, 1, 79, 0
1, 60299, Note_off_c, 1, 67, 0
1, 60299, Note_off_c, 1, 52, 0
1, 60299, Note_off_c, 1, 57, 0
1, 60300, Note_on_c, 1, 78, 127
1, 60300, Note_on_c, 1, 55, 127
1, 60300, Note_on_c, 1, 47, 127
1, 60314, Note_off_c, 1, 78, 0
1, 60329, Note_off_c, 1, 83, 0
1, 60329, Note_off_c, 1, 76, 0
1, 60329, Note_off_c, 1, 55, 0
1, 60330, Note_on_c, 1, 81, 127
1, 60330, Note_on_c, 1, 69, 127
1, 60330, Note_on_c, 1, 54, 127
1, 60359, Note_off_c, 1, 47, 0
1, 60359, Note_off_c, 1, 81, 0
1, 60359, Note_off_c, 1, 69, 0
1, 60359, Note_off_c, 1, 54, 0
1, 60360, Note_on_c, 1, 79, 127
1, 60360, Note_on_c, 1, 73, 127
1, 60360, Note_on_c, 1, 67, 127
1, 60360, Note_on_c, 1, 52, 127
1, 60360, Note_on_c, 1, 50, 127
1, 60375, Note_on_c, 1, 76, 127
1, 60389, Note_off_c, 1, 73, 0
1, 60389, Note_off_c, 1, 67, 0
1, 60389, Note_off_c, 1, 52, 0
1, 60389, Note_off_c, 1, 76, 0
1, 60390, Note_on_c, 1, 78, 127
1, 60390, Note_on_c, 1, 71, 127
1, 60390, Note_on_c, 1, 66, 127
1, 60404, Note_off_c, 1, 78, 0
1, 60419, Note_off_c, 1, 79, 0
1, 60419, Note_off_c, 1, 50, 0
1, 60419, Note_off_c, 1, 71, 0
1, 60419, Note_off_c, 1, 66, 0
1, 60420, Note_on_c, 1, 81, 127
1, 60420, Note_on_c, 1, 76, 127
1, 60420, Note_on_c, 1, 45, 127
1, 60420, Note_on_c, 1, 79, 127
1, 60420, Note_on_c, 1, 57, 127
1, 60420, Note_on_c, 1, 69, 127
1, 60420, Note_on_c, 1, 64, 127
1, 60420, Note_on_c, 1, 49, 127
1, 60435, Note_on_c, 1, 78, 127
1, 60449, Note_off_c, 1, 78, 0
1, 60470, Note_off_c, 1, 79, 0
1, 60479, Note_off_c, 1, 69, 0
1, 60479, Note_off_c, 1, 64, 0
1, 60480, Note_off_c, 1, 81, 0
1, 60480, Note_off_c, 1, 76, 0
1, 60480, Note_on_c, 1, 83, 127
1, 60480, Note_on_c, 1, 62, 127
1, 60480, Note_on_c, 1, 47, 127
1, 60494, Note_off_c, 1, 83, 0
1, 60509, Note_off_c, 1, 57, 0
1, 60509, Note_off_c, 1, 49, 0
1, 60509, Note_off_c, 1, 47, 0
1, 60539, Note_off_c, 1, 62, 0
1, 60540, Note_on_c, 1, 85, 127
1, 60540, Note_on_c, 1, 61, 127
1, 60554, Note_off_c, 1, 85, 0
1, 60599, Note_off_c, 1, 61, 0
1, 60600, Note_off_c, 1, 45, 0
1, 60600, Note_on_c, 1, 50, 127
1, 60600, Note_on_c, 1, 86, 127
1, 60600, Note_on_c, 1, 74, 127
1, 60629, Note_off_c, 1, 86, 0
1, 60629, Note_off_c, 1, 74, 0
1, 60659, Note_off_c, 1, 50, 0
1, 60660, Note_on_c, 1, 54, 127
1, 60660, Note_on_c, 1, 42, 127
1, 60689, Note_off_c, 1, 42, 0
1, 60719, Note_off_c, 1, 54, 0
1, 60720, Note_on_c, 1, 73, 127
1, 60779, Note_off_c, 1, 73, 0
1, 60780, Note_on_c, 1, 66, 127
1, 60780, Note_on_c, 1, 38, 127
1, 60960, Note_off_c, 1, 66, 0
1, 60960, Note_off_c, 1, 38, 0
1, 61140, Note_on_c, 1, 62, 127
1, 61140, Note_on_c, 1, 66, 127
1, 61140, Note_on_c, 1, 47, 127
1, 61260, Note_on_c, 1, 71, 127
1, 61319, Note_off_c, 1, 71, 0
1, 61320, Note_on_c, 1, 70, 127
1, 61379, Note_off_c, 1, 70, 0
1, 61560, Note_on_c, 1, 73, 127
1, 61619, Note_off_c, 1, 73, 0
1, 61620, Note_on_c, 1, 74, 127
1, 61739, Note_off_c, 1, 74, 0
1, 61920, Note_on_c, 1, 76, 127
1, 61979, Note_off_c, 1, 76, 0
1, 61980, Note_on_c, 1, 78, 127
1, 62039, Note_off_c, 1, 78, 0
1, 62340, Note_off_c, 1, 62, 0
1, 62340, Note_off_c, 1, 66, 0
1, 62340, Note_off_c, 1, 47, 0
1, 62340, Note_on_c, 1, 79, 127
1, 62340, Note_on_c, 1, 64, 127
1, 62340, Note_on_c, 1, 67, 127
1, 62340, Note_on_c, 1, 46, 127
1, 62399, Note_off_c, 1, 79, 0
1, 62700, Note_off_c, 1, 67, 0
1, 62819, Note_off_c, 1, 46, 0
1, 62820, Note_off_c, 1, 64, 0
1, 63540, Note_on_c, 1, 69, 127
1, 63540, Note_on_c, 1, 49, 127
1, 63900, Note_on_c, 1, 81, 127
1, 63959, Note_off_c, 1, 81, 0
1, 64019, Note_off_c, 1, 69, 0
1, 64019, Note_off_c, 1, 49, 0
1, 64020, Note_on_c, 1, 78, 127
1, 64020, Note_on_c, 1, 66, 127
1, 64020, Note_on_c, 1, 69, 127
1, 64020, Note_on_c, 1, 50, 127
1, 64139, Note_off_c, 1, 78, 0
1, 64260, Note_on_c, 1, 74, 127
1, 64319, Note_off_c, 1, 74, 0
1, 64440, Note_on_c, 1, 76, 127
1, 64499, Note_off_c, 1, 76, 0
1, 64620, Note_on_c, 1, 81, 127
1, 64679, Note_off_c, 1, 81, 0
1, 64739, Note_off_c, 1, 66, 0
1, 64739, Note_off_c, 1, 69, 0
1, 64739, Note_off_c, 1, 50, 0
1, 64740, Note_on_c, 1, 62, 127
1, 64740, Note_on_c, 1, 66, 127
1, 64740, Note_on_c, 1, 69, 127
1, 64740, Note_on_c, 1, 54, 127
1, 64860, Note_off_c, 1, 62, 0
1, 64860, Note_on_c, 1, 72, 127
1, 64860, Note_on_c, 1, 60, 127
1, 64919, Note_off_c, 1, 72, 0
1, 64920, Note_on_c, 1, 71, 127
1, 64979, Note_off_c, 1, 66, 0
1, 64979, Note_off_c, 1, 69, 0
1, 64979, Note_off_c, 1, 54, 0
1, 64979, Note_off_c, 1, 71, 0
1, 64980, Note_off_c, 1, 60, 0
1, 64980, Note_on_c, 1, 59, 127
1, 64980, Note_on_c, 1, 63, 127
1, 64980, Note_on_c, 1, 51, 127
1, 65460, Note_off_c, 1, 59, 0
1, 65519, Note_off_c, 1, 63, 0
1, 65699, Note_off_c, 1, 51, 0
1, 65700, Note_on_c, 1, 67, 127
1, 65700, Note_on_c, 1, 64, 127
1, 65700, Note_on_c, 1, 52, 127
1, 65939, Note_off_c, 1, 52, 0
1, 65940, Note_on_c, 1, 50, 127
1, 66180, Note_on_c, 1, 76, 127
1, 66239, Note_off_c, 1, 76, 0
1, 66300, Note_on_c, 1, 74, 127
1, 66359, Note_off_c, 1, 74, 0
1, 66360, Note_on_c, 1, 73, 127
1, 66419, Note_off_c, 1, 67, 0
1, 66419, Note_off_c, 1, 64, 0
1, 66419, Note_off_c, 1, 50, 0
1, 66419, Note_off_c, 1, 73, 0
1, 66420, Note_on_c, 1, 70, 127
1, 66420, Note_on_c, 1, 64, 127
1, 66420, Note_on_c, 1, 49, 127
1, 66540, Note_on_c, 1, 76, 127
1, 66599, Note_off_c, 1, 76, 0
1, 66630, Note_on_c, 1, 78, 127
1, 66659, Note_off_c, 1, 70, 0
1, 66659, Note_off_c, 1, 49, 0
1, 66659, Note_off_c, 1, 78, 0
1, 66660, Note_on_c, 1, 79, 127
1, 66660, Note_on_c, 1, 67, 127
1, 66660, Note_on_c, 1, 46, 127
1, 66719, Note_off_c, 1, 79, 0
1, 66780, Note_on_c, 1, 73, 127
1, 66809, Note_off_c, 1, 73, 0
1, 66870, Note_on_c, 1, 74, 127
1, 66899, Note_off_c, 1, 67, 0
1, 66899, Note_off_c, 1, 46, 0
1, 66899, Note_off_c, 1, 74, 0
1, 66900, Note_off_c, 1, 64, 0
1, 66900, Note_on_c, 1, 66, 127
1, 66900, Note_on_c, 1, 61, 127
1, 66900, Note_on_c, 1, 42, 127
1, 67139, Note_off_c, 1, 66, 0
1, 67139, Note_off_c, 1, 61, 0
1, 67139, Note_off_c, 1, 42, 0
1, 67140, Note_on_c, 1, 74, 127
1, 67140, Note_on_c, 1, 66, 127
1, 67140, Note_on_c, 1, 62, 127
1, 67140, Note_on_c, 1, 71, 127
1, 67140, Note_on_c, 1, 47, 127
1, 67259, Note_off_c, 1, 74, 0
1, 67379, Note_off_c, 1, 66, 0
1, 67379, Note_off_c, 1, 62, 0
1, 67379, Note_off_c, 1, 71, 0
1, 67380, Note_on_c, 1, 77, 127
1, 67380, Note_on_c, 1, 61, 127
1, 67380, Note_on_c, 1, 65, 127
1, 67380, Note_on_c, 1, 68, 127
1, 67439, Note_off_c, 1, 77, 0
1, 67560, Note_on_c, 1, 78, 127
1, 67619, Note_off_c, 1, 47, 0
1, 67619, Note_off_c, 1, 61, 0
1, 67619, Note_off_c, 1, 65, 0
1, 67619, Note_off_c, 1, 68, 0
1, 67619, Note_off_c, 1, 78, 0
1, 67620, Note_on_c, 1, 80, 127
1, 67620, Note_on_c, 1, 73, 127
1, 67620, Note_on_c, 1, 68, 127
1, 67620, Note_on_c, 1, 65, 127
1, 67620, Note_on_c, 1, 41, 127
1, 67679, Note_off_c, 1, 80, 0
1, 67800, Note_on_c, 1, 74, 127
1, 67859, Note_off_c, 1, 73, 0
1, 67859, Note_off_c, 1, 74, 0
1, 67860, Note_on_c, 1, 71, 127
1, 68099, Note_off_c, 1, 71, 0
1, 68580, Note_off_c, 1, 68, 0
1, 68580, Note_off_c, 1, 65, 0
1, 68580, Note_off_c, 1, 41, 0
1, 68580, Note_on_c, 1, 69, 127
1, 68580, Note_on_c, 1, 66, 127
1, 68580, Note_on_c, 1, 42, 127
1, 68820, Note_on_c, 1, 78, 127
1, 68879, Note_off_c, 1, 78, 0
1, 68940, Note_on_c, 1, 81, 127
1, 68999, Note_off_c, 1, 81, 0
1, 69060, Note_on_c, 1, 75, 127
1, 69300, Note_off_c, 1, 69, 0
1, 69300, Note_off_c, 1, 66, 0
1, 69300, Note_off_c, 1, 42, 0
1, 69300, Note_off_c, 1, 75, 0
1, 69300, Note_on_c, 1, 76, 127
1, 69300, Note_on_c, 1, 44, 127
1, 69420, Note_off_c, 1, 76, 0
1, 69540, Note_off_c, 1, 44, 0
1, 69540, Note_on_c, 1, 45, 127
1, 69660, Note_off_c, 1, 45, 0
1, 69660, Note_on_c, 1, 38, 127
1, 69780, Note_off_c, 1, 38, 0
1, 69840, Note_on_c, 1, 64, 127
1, 69899, Note_off_c, 1, 64, 0
1, 69900, Note_on_c, 1, 69, 127
1, 69900, Note_on_c, 1, 64, 127
1, 69900, Note_on_c, 1, 40, 127
1, 69960, Note_off_c, 1, 69, 0
1, 69960, Note_on_c, 1, 68, 127
1, 70020, Note_off_c, 1, 40, 0
1, 70020, Note_off_c, 1, 68, 0
1, 70020, Note_on_c, 1, 45, 127
1, 70140, Note_on_c, 1, 73, 127
1, 70440, Note_on_c, 1, 71, 127
1, 70499, Note_off_c, 1, 73, 0
1, 70499, Note_off_c, 1, 71, 0
1, 70500, Note_off_c, 1, 64, 0
1, 70500, Note_on_c, 1, 62, 127
1, 70560, Note_on_c, 1, 74, 127
1, 70619, Note_off_c, 1, 74, 0
1, 70740, Note_on_c, 1, 59, 127
1, 71100, Note_on_c, 1, 76, 127
1, 71159, Note_off_c, 1, 76, 0
1, 71219, Note_off_c, 1, 59, 0
1, 71220, Note_off_c, 1, 62, 0
1, 71280, Note_on_c, 1, 61, 127
1, 71339, Note_off_c, 1, 61, 0
1, 71460, Note_on_c, 1, 66, 127
1, 71700, Note_off_c, 1, 66, 0
1, 71700, Note_on_c, 1, 78, 127
1, 71700, Note_on_c, 1, 63, 127
1, 71939, Note_off_c, 1, 78, 0
1, 71940, Note_off_c, 1, 45, 0
1, 71940, Note_off_c, 1, 63, 0
1, 71940, Note_on_c, 1, 44, 127
1, 72060, Note_off_c, 1, 44, 0
1, 72060, Note_on_c, 1, 75, 127
1, 72060, Note_on_c, 1, 42, 127
1, 72179, Note_off_c, 1, 75, 0
1, 72180, Note_off_c, 1, 42, 0
1, 72900, Note_on_c, 1, 67, 127
1, 72900, Note_on_c, 1, 46, 127
1, 72960, Note_on_c, 1, 79, 127
1, 73019, Note_off_c, 1, 79, 0
1, 73140, Note_off_c, 1, 67, 0
1, 73260, Note_on_c, 1, 70, 127
1, 73319, Note_off_c, 1, 70, 0
1, 73380, Note_off_c, 1, 46, 0
1, 73380, Note_on_c, 1, 47, 127
1, 73620, Note_off_c, 1, 47, 0
1, 73620, Note_on_c, 1, 81, 127
1, 73859, Note_off_c, 1, 81, 0
1, 73860, Note_on_c, 1, 72, 127
1, 73860, Note_on_c, 1, 39, 127
1, 73919, Note_off_c, 1, 72, 0
1, 74100, Note_off_c, 1, 39, 0
1, 74100, Note_on_c, 1, 77, 127
1, 74100, Note_on_c, 1, 65, 127
1, 74100, Note_on_c, 1, 38, 127
1, 74159, Note_off_c, 1, 77, 0
1, 74220, Note_off_c, 1, 65, 0
1, 74340, Note_off_c, 1, 38, 0
1, 74340, Note_on_c, 1, 60, 127
1, 74340, Note_on_c, 1, 48, 127
1, 74580, Note_off_c, 1, 60, 0
1, 74580, Note_off_c, 1, 48, 0
1, 74640, Note_on_c, 1, 78, 127
1, 74640, Note_on_c, 1, 69, 127
1, 74640, Note_on_c, 1, 71, 127
1, 74699, Note_off_c, 1, 78, 0
1, 74699, Note_off_c, 1, 69, 0
1, 74699, Note_off_c, 1, 71, 0
1, 74700, Note_on_c, 1, 78, 127
1, 74700, Note_on_c, 1, 69, 127
1, 74700, Note_on_c, 1, 66, 127
1, 74700, Note_on_c, 1, 63, 127
1, 74700, Note_on_c, 1, 47, 127
1, 74759, Note_off_c, 1, 78, 0
1, 74760, Note_on_c, 1, 75, 127
1, 74819, Note_off_c, 1, 75, 0
1, 74820, Note_off_c, 1, 69, 0
1, 74820, Note_off_c, 1, 66, 0
1, 74820, Note_off_c, 1, 63, 0
1, 74820, Note_off_c, 1, 47, 0
1, 74820, Note_on_c, 1, 76, 127
1, 74820, Note_on_c, 1, 68, 127
1, 74820, Note_on_c, 1, 64, 127
1, 74820, Note_on_c, 1, 40, 127
1, 75059, Note_off_c, 1, 76, 0
1, 75060, Note_off_c, 1, 68, 0
1, 75060, Note_off_c, 1, 64, 0
1, 75060, Note_off_c, 1, 40, 0
1, 75360, Note_on_c, 1, 64, 127
1, 75419, Note_off_c, 1, 64, 0
1, 75420, Note_on_c, 1, 69, 127
1, 75479, Note_off_c, 1, 69, 0
1, 75480, Note_on_c, 1, 72, 127
1, 75539, Note_off_c, 1, 72, 0
1, 75540, Note_on_c, 1, 71, 127
1, 75540, Note_on_c, 1, 68, 127
1, 75540, Note_on_c, 1, 40, 127
1, 75550, Note_off_c, 1, 71, 0
1, 75550, Note_on_c, 1, 72, 127
1, 75560, Note_off_c, 1, 72, 0
1, 75599, Note_off_c, 1, 68, 0
1, 75599, Note_off_c, 1, 40, 0
1, 75600, Note_on_c, 1, 69, 127
1, 75600, Note_on_c, 1, 45, 127
1, 75659, Note_off_c, 1, 69, 0
1, 75659, Note_off_c, 1, 45, 0
1, 75660, Note_on_c, 1, 68, 127
1, 75660, Note_on_c, 1, 47, 127
1, 75719, Note_off_c, 1, 68, 0
1, 75719, Note_off_c, 1, 47, 0
1, 75720, Note_on_c, 1, 69, 127
1, 75720, Note_on_c, 1, 48, 127
1, 75779, Note_off_c, 1, 69, 0
1, 75779, Note_off_c, 1, 48, 0
1, 75780, Note_on_c, 1, 67, 127
1, 75780, Note_on_c, 1, 62, 127
1, 75780, Note_on_c, 1, 65, 127
1, 75780, Note_on_c, 1, 50, 127
1, 75809, Note_off_c, 1, 67, 0
1, 75839, Note_off_c, 1, 62, 0
1, 75839, Note_off_c, 1, 65, 0
1, 75839, Note_off_c, 1, 50, 0
1, 75840, Note_on_c, 1, 64, 127
1, 75840, Note_on_c, 1, 67, 127
1, 75840, Note_on_c, 1, 65, 127
1, 75840, Note_on_c, 1, 47, 127
1, 75869, Note_off_c, 1, 64, 0
1, 75870, Note_on_c, 1, 62, 127
1, 75899, Note_off_c, 1, 67, 0
1, 75899, Note_off_c, 1, 65, 0
1, 75899, Note_off_c, 1, 47, 0
1, 75899, Note_off_c, 1, 62, 0
1, 75900, Note_on_c, 1, 67, 127
1, 75900, Note_on_c, 1, 65, 127
1, 75900, Note_on_c, 1, 62, 127
1, 75900, Note_on_c, 1, 43, 127
1, 75929, Note_off_c, 1, 67, 0
1, 75959, Note_off_c, 1, 65, 0
1, 75959, Note_off_c, 1, 62, 0
1, 75959, Note_off_c, 1, 43, 0
1, 75960, Note_on_c, 1, 64, 127
1, 75960, Note_on_c, 1, 60, 127
1, 75960, Note_on_c, 1, 48, 127
1, 75970, Note_on_c, 1, 65, 127
1, 75980, Note_off_c, 1, 65, 0
1, 76019, Note_off_c, 1, 60, 0
1, 76019, Note_off_c, 1, 48, 0
1, 76020, Note_off_c, 1, 64, 0
1, 76020, Note_on_c, 1, 62, 127
1, 76020, Note_on_c, 1, 52, 127
1, 76049, Note_off_c, 1, 62, 0
1, 76079, Note_off_c, 1, 52, 0
1, 76080, Note_on_c, 1, 72, 127
1, 76080, Note_on_c, 1, 64, 127
1, 76080, Note_on_c, 1, 60, 127
1, 76080, Note_on_c, 1, 45, 127
1, 76139, Note_off_c, 1, 72, 0
1, 76139, Note_off_c, 1, 64, 0
1, 76139, Note_off_c, 1, 60, 0
1, 76139, Note_off_c, 1, 45, 0
1, 76140, Note_on_c, 1, 71, 127
1, 76140, Note_on_c, 1, 65, 127
1, 76140, Note_on_c, 1, 62, 127
1, 76140, Note_on_c, 1, 50, 127
1, 76199, Note_off_c, 1, 71, 0
1, 76199, Note_off_c, 1, 65, 0
1, 76199, Note_off_c, 1, 62, 0
1, 76200, Note_on_c, 1, 72, 127
1, 76229, Note_off_c, 1, 72, 0
1, 76259, Note_off_c, 1, 50, 0
1, 76260, Note_on_c, 1, 69, 127
1, 76260, Note_on_c, 1, 68, 127
1, 76260, Note_on_c, 1, 64, 127
1, 76260, Note_on_c, 1, 52, 127
1, 76289, Note_off_c, 1, 69, 0
1, 76319, Note_off_c, 1, 68, 0
1, 76319, Note_off_c, 1, 64, 0
1, 76319, Note_off_c, 1, 52, 0
1, 76320, Note_on_c, 1, 69, 127
1, 76320, Note_on_c, 1, 64, 127
1, 76320, Note_on_c, 1, 48, 127
1, 76379, Note_off_c, 1, 69, 0
1, 76379, Note_off_c, 1, 64, 0
1, 76379, Note_off_c, 1, 48, 0
1, 76380, Note_on_c, 1, 71, 127
1, 76380, Note_on_c, 1, 50, 127
1, 76409, Note_off_c, 1, 50, 0
1, 76410, Note_on_c, 1, 48, 127
1, 76439, Note_off_c, 1, 71, 0
1, 76439, Note_off_c, 1, 48, 0
1, 76440, Note_on_c, 1, 72, 127
1, 76440, Note_on_c, 1, 47, 127
1, 76469, Note_off_c, 1, 47, 0
1, 76470, Note_on_c, 1, 45, 127
1, 76499, Note_off_c, 1, 72, 0
1, 76499, Note_off_c, 1, 45, 0
1, 76500, Note_on_c, 1, 74, 127
1, 76500, Note_on_c, 1, 62, 127
1, 76500, Note_on_c, 1, 64, 127
1, 76500, Note_on_c, 1, 44, 127
1, 76559, Note_off_c, 1, 74, 0
1, 76559, Note_off_c, 1, 62, 0
1, 76559, Note_off_c, 1, 64, 0
1, 76559, Note_off_c, 1, 44, 0
1, 76560, Note_on_c, 1, 72, 127
1, 76560, Note_on_c, 1, 45, 127
1, 76589, Note_off_c, 1, 72, 0
1, 76589, Note_off_c, 1, 45, 0
1, 76590, Note_on_c, 1, 71, 127
1, 76590, Note_on_c, 1, 44, 127
1, 76619, Note_off_c, 1, 71, 0
1, 76619, Note_off_c, 1, 44, 0
1, 76620, Note_on_c, 1, 72, 127
1, 76620, Note_on_c, 1, 64, 127
1, 76620, Note_on_c, 1, 60, 127
1, 76620, Note_on_c, 1, 45, 127
1, 76679, Note_off_c, 1, 72, 0
1, 76679, Note_off_c, 1, 64, 0
1, 76679, Note_off_c, 1, 60, 0
1, 76679, Note_off_c, 1, 45, 0
1, 76680, Note_on_c, 1, 72, 127
1, 76680, Note_on_c, 1, 64, 127
1, 76680, Note_on_c, 1, 68, 127
1, 76680, Note_on_c, 1, 40, 127
1, 76709, Note_off_c, 1, 72, 0
1, 76710, Note_on_c, 1, 71, 127
1, 76739, Note_off_c, 1, 64, 0
1, 76739, Note_off_c, 1, 68, 0
1, 76739, Note_off_c, 1, 40, 0
1, 76740, Note_on_c, 1, 52, 127
1, 76769, Note_off_c, 1, 71, 0
1, 76799, Note_off_c, 1, 52, 0
1, 76800, Note_on_c, 1, 76, 127
1, 76800, Note_on_c, 1, 62, 127
1, 76800, Note_on_c, 1, 56, 127
1, 76830, Note_on_c, 1, 74, 127
1, 76859, Note_off_c, 1, 76, 0
1, 76859, Note_off_c, 1, 62, 0
1, 76859, Note_off_c, 1, 56, 0
1, 76859, Note_off_c, 1, 74, 0
1, 76860, Note_on_c, 1, 73, 127
1, 76860, Note_on_c, 1, 64, 127
1, 76860, Note_on_c, 1, 57, 127
1, 76890, Note_on_c, 1, 76, 127
1, 76919, Note_off_c, 1, 73, 0
1, 76919, Note_off_c, 1, 64, 0
1, 76919, Note_off_c, 1, 57, 0
1, 76919, Note_off_c, 1, 76, 0
1, 76920, Note_on_c, 1, 73, 127
1, 76920, Note_on_c, 1, 45, 127
1, 76949, Note_off_c, 1, 73, 0
1, 76950, Note_on_c, 1, 69, 127
1, 76979, Note_off_c, 1, 45, 0
1, 76979, Note_off_c, 1, 69, 0
1, 76980, Note_on_c, 1, 64, 127
1, 76980, Note_on_c, 1, 69, 127
1, 76980, Note_on_c, 1, 67, 127
1, 76980, Note_on_c, 1, 49, 127
1, 77009, Note_off_c, 1, 64, 0
1, 77039, Note_off_c, 1, 69, 0
1, 77039, Note_off_c, 1, 67, 0
1, 77039, Note_off_c, 1, 49, 0
1, 77040, Note_on_c, 1, 65, 127
1, 77040, Note_on_c, 1, 69, 127
1, 77040, Note_on_c, 1, 50, 127
1, 77099, Note_off_c, 1, 65, 0
1, 77099, Note_off_c, 1, 69, 0
1, 77099, Note_off_c, 1, 50, 0
1, 77100, Note_on_c, 1, 62, 127
1, 77129, Note_off_c, 1, 62, 0
1, 77130, Note_on_c, 1, 69, 127
1, 77159, Note_off_c, 1, 69, 0
1, 77160, Note_on_c, 1, 74, 127
1, 77160, Note_on_c, 1, 69, 127
1, 77160, Note_on_c, 1, 53, 127
1, 77190, Note_off_c, 1, 74, 0
1, 77190, Note_on_c, 1, 72, 127
1, 77219, Note_off_c, 1, 69, 0
1, 77219, Note_off_c, 1, 53, 0
1, 77220, Note_off_c, 1, 72, 0
1, 77220, Note_on_c, 1, 71, 127
1, 77220, Note_on_c, 1, 67, 127
1, 77220, Note_on_c, 1, 55, 127
1, 77249, Note_off_c, 1, 71, 0
1, 77279, Note_off_c, 1, 67, 0
1, 77279, Note_off_c, 1, 55, 0
1, 77280, Note_on_c, 1, 71, 127
1, 77280, Note_on_c, 1, 43, 127
1, 77309, Note_off_c, 1, 71, 0
1, 77310, Note_on_c, 1, 67, 127
1, 77339, Note_off_c, 1, 43, 0
1, 77339, Note_off_c, 1, 67, 0
1, 77340, Note_on_c, 1, 62, 127
1, 77340, Note_on_c, 1, 67, 127
1, 77340, Note_on_c, 1, 47, 127
1, 77369, Note_off_c, 1, 62, 0
1, 77370, Note_off_c, 1, 67, 0
1, 77370, Note_on_c, 1, 65, 127
1, 77399, Note_off_c, 1, 47, 0
1, 77400, Note_off_c, 1, 65, 0
1, 77400, Note_on_c, 1, 64, 127
1, 77400, Note_on_c, 1, 48, 127
1, 77459, Note_off_c, 1, 64, 0
1, 77459, Note_off_c, 1, 48, 0
1, 77460, Note_on_c, 1, 60, 127
1, 77489, Note_off_c, 1, 60, 0
1, 77490, Note_on_c, 1, 67, 127
1, 77519, Note_off_c, 1, 67, 0
1, 77520, Note_on_c, 1, 72, 127
1, 77520, Note_on_c, 1, 64, 127
1, 77520, Note_on_c, 1, 52, 127
1, 77550, Note_on_c, 1, 71, 127
1, 77579, Note_off_c, 1, 72, 0
1, 77579, Note_off_c, 1, 64, 0
1, 77579, Note_off_c, 1, 52, 0
1, 77579, Note_off_c, 1, 71, 0
1, 77580, Note_on_c, 1, 69, 127
1, 77580, Note_on_c, 1, 72, 127
1, 77580, Note_on_c, 1, 65, 127
1, 77580, Note_on_c, 1, 53, 127
1, 77609, Note_off_c, 1, 69, 0
1, 77610, Note_on_c, 1, 68, 127
1, 77639, Note_off_c, 1, 72, 0
1, 77639, Note_off_c, 1, 65, 0
1, 77639, Note_off_c, 1, 53, 0
1, 77639, Note_off_c, 1, 68, 0
1, 77640, Note_on_c, 1, 69, 127
1, 77640, Note_on_c, 1, 52, 127
1, 77669, Note_off_c, 1, 69, 0
1, 77670, Note_on_c, 1, 68, 127
1, 77699, Note_off_c, 1, 52, 0
1, 77699, Note_off_c, 1, 68, 0
1, 77700, Note_on_c, 1, 69, 127
1, 77700, Note_on_c, 1, 50, 127
1, 77729, Note_off_c, 1, 69, 0
1, 77730, Note_on_c, 1, 77, 127
1, 77730, Note_on_c, 1, 74, 127
1, 77759, Note_off_c, 1, 50, 0
1, 77759, Note_off_c, 1, 77, 0
1, 77759, Note_off_c, 1, 74, 0
1, 77760, Note_on_c, 1, 76, 127
1, 77760, Note_on_c, 1, 72, 127
1, 77760, Note_on_c, 1, 69, 127
1, 77760, Note_on_c, 1, 48, 127
1, 77789, Note_off_c, 1, 76, 0
1, 77789, Note_off_c, 1, 72, 0
1, 77790, Note_on_c, 1, 75, 127
1, 77790, Note_on_c, 1, 71, 127
1, 77819, Note_off_c, 1, 69, 0
1, 77819, Note_off_c, 1, 48, 0
1, 77819, Note_off_c, 1, 75, 0
1, 77819, Note_off_c, 1, 71, 0
1, 77820, Note_on_c, 1, 76, 127
1, 77820, Note_on_c, 1, 72, 127
1, 77820, Note_on_c, 1, 69, 127
1, 77820, Note_on_c, 1, 45, 127
1, 77849, Note_off_c, 1, 76, 0
1, 77849, Note_off_c, 1, 72, 0
1, 77850, Note_on_c, 1, 75, 127
1, 77850, Note_on_c, 1, 71, 127
1, 77879, Note_off_c, 1, 69, 0
1, 77879, Note_off_c, 1, 45, 0
1, 77879, Note_off_c, 1, 75, 0
1, 77879, Note_off_c, 1, 71, 0
1, 77880, Note_on_c, 1, 76, 127
1, 77880, Note_on_c, 1, 72, 127
1, 77880, Note_on_c, 1, 68, 127
1, 77880, Note_on_c, 1, 47, 127
1, 77909, Note_off_c, 1, 76, 0
1, 77909, Note_off_c, 1, 72, 0
1, 77910, Note_on_c, 1, 80, 127
1, 77939, Note_off_c, 1, 68, 0
1, 77939, Note_off_c, 1, 47, 0
1, 77939, Note_off_c, 1, 80, 0
1, 77940, Note_on_c, 1, 81, 127
1, 77940, Note_on_c, 1, 76, 127
1, 77940, Note_on_c, 1, 48, 127
1, 77999, Note_off_c, 1, 81, 0
1, 77999, Note_off_c, 1, 76, 0
1, 77999, Note_off_c, 1, 48, 0
1, 78000, Note_on_c, 1, 72, 127
1, 78000, Note_on_c, 1, 69, 127
1, 78000, Note_on_c, 1, 50, 127
1, 78059, Note_off_c, 1, 72, 0
1, 78059, Note_off_c, 1, 69, 0
1, 78059, Note_off_c, 1, 50, 0
1, 78060, Note_on_c, 1, 71, 127
1, 78060, Note_on_c, 1, 68, 127
1, 78060, Note_on_c, 1, 52, 127
1, 78119, Note_off_c, 1, 71, 0
1, 78119, Note_off_c, 1, 68, 0
1, 78119, Note_off_c, 1, 52, 0
1, 78120, Note_on_c, 1, 69, 127
1, 78120, Note_on_c, 1, 45, 127
1, 78239, Note_off_c, 1, 69, 0
1, 78239, Note_off_c, 1, 45, 0
1, 78240, Note_on_c, 1, 64, 127
1, 78299, Note_off_c, 1, 64, 0
1, 78300, Note_on_c, 1, 69, 127
1, 78359, Note_off_c, 1, 69, 0
1, 78360, Note_on_c, 1, 72, 127
1, 78419, Note_off_c, 1, 72, 0
1, 78420, Note_on_c, 1, 71, 127
1, 78420, Note_on_c, 1, 68, 127
1, 78420, Note_on_c, 1, 40, 127
1, 78430, Note_on_c, 1, 72, 127
1, 78440, Note_off_c, 1, 72, 0
1, 78479, Note_off_c, 1, 68, 0
1, 78479, Note_off_c, 1, 40, 0
1, 78480, Note_off_c, 1, 71, 0
1, 78480, Note_on_c, 1, 69, 127
1, 78480, Note_on_c, 1, 45, 127
1, 78539, Note_off_c, 1, 69, 0
1, 78539, Note_off_c, 1, 45, 0
1, 78540, Note_on_c, 1, 68, 127
1, 78540, Note_on_c, 1, 47, 127
1, 78599, Note_off_c, 1, 68, 0
1, 78599, Note_off_c, 1, 47, 0
1, 78600, Note_on_c, 1, 69, 127
1, 78600, Note_on_c, 1, 48, 127
1, 78659, Note_off_c, 1, 69, 0
1, 78659, Note_off_c, 1, 48, 0
1, 78660, Note_on_c, 1, 67, 127
1, 78660, Note_on_c, 1, 62, 127
1, 78660, Note_on_c, 1, 65, 127
1, 78660, Note_on_c, 1, 50, 127
1, 78689, Note_off_c, 1, 67, 0
1, 78719, Note_off_c, 1, 62, 0
1, 78719, Note_off_c, 1, 65, 0
1, 78719, Note_off_c, 1, 50, 0
1, 78720, Note_on_c, 1, 64, 127
1, 78720, Note_on_c, 1, 67, 127
1, 78720, Note_on_c, 1, 65, 127
1, 78720, Note_on_c, 1, 47, 127
1, 78749, Note_off_c, 1, 64, 0
1, 78750, Note_on_c, 1, 62, 127
1, 78779, Note_off_c, 1, 67, 0
1, 78779, Note_off_c, 1, 65, 0
1, 78779, Note_off_c, 1, 47, 0
1, 78779, Note_off_c, 1, 62, 0
1, 78780, Note_on_c, 1, 67, 127
1, 78780, Note_on_c, 1, 65, 127
1, 78780, Note_on_c, 1, 62, 127
1, 78780, Note_on_c, 1, 43, 127
1, 78839, Note_off_c, 1, 67, 0
1, 78839, Note_off_c, 1, 65, 0
1, 78839, Note_off_c, 1, 62, 0
1, 78839, Note_off_c, 1, 43, 0
1, 78840, Note_on_c, 1, 64, 127
1, 78840, Note_on_c, 1, 60, 127
1, 78840, Note_on_c, 1, 48, 127
1, 78899, Note_off_c, 1, 64, 0
1, 78899, Note_off_c, 1, 60, 0
1, 78899, Note_off_c, 1, 48, 0
1, 78900, Note_on_c, 1, 62, 127
1, 78900, Note_on_c, 1, 60, 127
1, 78900, Note_on_c, 1, 52, 127
1, 78929, Note_off_c, 1, 62, 0
1, 78959, Note_off_c, 1, 60, 0
1, 78959, Note_off_c, 1, 52, 0
1, 78960, Note_on_c, 1, 72, 127
1, 78960, Note_on_c, 1, 64, 127
1, 78960, Note_on_c, 1, 60, 127
1, 78960, Note_on_c, 1, 45, 127
1, 79019, Note_off_c, 1, 72, 0
1, 79019, Note_off_c, 1, 64, 0
1, 79019, Note_off_c, 1, 60, 0
1, 79019, Note_off_c, 1, 45, 0
1, 79020, Note_on_c, 1, 71, 127
1, 79020, Note_on_c, 1, 65, 127
1, 79020, Note_on_c, 1, 62, 127
1, 79020, Note_on_c, 1, 50, 127
1, 79079, Note_off_c, 1, 71, 0
1, 79079, Note_off_c, 1, 65, 0
1, 79079, Note_off_c, 1, 62, 0
1, 79080, Note_on_c, 1, 72, 127
1, 79109, Note_off_c, 1, 72, 0
1, 79139, Note_off_c, 1, 50, 0
1, 79140, Note_on_c, 1, 69, 127
1, 79140, Note_on_c, 1, 68, 127
1, 79140, Note_on_c, 1, 64, 127
1, 79140, Note_on_c, 1, 52, 127
1, 79169, Note_off_c, 1, 69, 0
1, 79199, Note_off_c, 1, 68, 0
1, 79199, Note_off_c, 1, 64, 0
1, 79199, Note_off_c, 1, 52, 0
1, 79200, Note_on_c, 1, 69, 127
1, 79200, Note_on_c, 1, 64, 127
1, 79200, Note_on_c, 1, 48, 127
1, 79259, Note_off_c, 1, 69, 0
1, 79259, Note_off_c, 1, 64, 0
1, 79259, Note_off_c, 1, 48, 0
1, 79260, Note_on_c, 1, 71, 127
1, 79260, Note_on_c, 1, 50, 127
1, 79289, Note_off_c, 1, 50, 0
1, 79290, Note_on_c, 1, 64, 127
1, 79290, Note_on_c, 1, 48, 127
1, 79319, Note_off_c, 1, 71, 0
1, 79319, Note_off_c, 1, 64, 0
1, 79319, Note_off_c, 1, 48, 0
1, 79320, Note_on_c, 1, 72, 127
1, 79320, Note_on_c, 1, 62, 127
1, 79320, Note_on_c, 1, 47, 127
1, 79349, Note_off_c, 1, 62, 0
1, 79349, Note_off_c, 1, 47, 0
1, 79350, Note_on_c, 1, 60, 127
1, 79350, Note_on_c, 1, 45, 127
1, 79379, Note_off_c, 1, 72, 0
1, 79379, Note_off_c, 1, 60, 0
1, 79379, Note_off_c, 1, 45, 0
1, 79380, Note_on_c, 1, 74, 127
1, 79380, Note_on_c, 1, 62, 127
1, 79380, Note_on_c, 1, 64, 127
1, 79380, Note_on_c, 1, 44, 127
1, 79439, Note_off_c, 1, 74, 0
1, 79439, Note_off_c, 1, 62, 0
1, 79439, Note_off_c, 1, 64, 0
1, 79439, Note_off_c, 1, 44, 0
1, 79440, Note_on_c, 1, 72, 127
1, 79440, Note_on_c, 1, 45, 127
1, 79469, Note_off_c, 1, 72, 0
1, 79469, Note_off_c, 1, 45, 0
1, 79470, Note_on_c, 1, 71, 127
1, 79470, Note_on_c, 1, 44, 127
1, 79499, Note_off_c, 1, 71, 0
1, 79499, Note_off_c, 1, 44, 0
1, 79500, Note_on_c, 1, 72, 127
1, 79500, Note_on_c, 1, 64, 127
1, 79500, Note_on_c, 1, 60, 127
1, 79500, Note_on_c, 1, 45, 127
1, 79559, Note_off_c, 1, 72, 0
1, 79559, Note_off_c, 1, 64, 0
1, 79559, Note_off_c, 1, 60, 0
1, 79559, Note_off_c, 1, 45, 0
1, 79560, Note_on_c, 1, 71, 127
1, 79560, Note_on_c, 1, 72, 127
1, 79560, Note_on_c, 1, 64, 127
1, 79560, Note_on_c, 1, 68, 127
1, 79560, Note_on_c, 1, 40, 127
1, 79590, Note_off_c, 1, 72, 0
1, 79619, Note_off_c, 1, 64, 0
1, 79619, Note_off_c, 1, 68, 0
1, 79619, Note_off_c, 1, 40, 0
1, 79620, Note_on_c, 1, 52, 127
1, 79679, Note_off_c, 1, 52, 0
1, 79680, Note_on_c, 1, 69, 127
1, 79680, Note_on_c, 1, 51, 127
1, 79739, Note_off_c, 1, 71, 0
1, 79739, Note_off_c, 1, 69, 0
1, 79739, Note_off_c, 1, 51, 0
1, 79740, Note_on_c, 1, 71, 127
1, 79740, Note_on_c, 1, 68, 127
1, 79740, Note_on_c, 1, 52, 127
1, 79799, Note_off_c, 1, 71, 0
1, 79799, Note_off_c, 1, 68, 0
1, 79799, Note_off_c, 1, 52, 0
1, 79800, Note_on_c, 1, 67, 127
1, 79830, Note_on_c, 1, 71, 127
1, 79859, Note_off_c, 1, 67, 0
1, 79859, Note_off_c, 1, 71, 0
1, 79860, Note_on_c, 1, 76, 127
1, 79860, Note_on_c, 1, 64, 127
1, 79860, Note_on_c, 1, 68, 127
1, 79860, Note_on_c, 1, 56, 127
1, 79889, Note_off_c, 1, 76, 0
1, 79890, Note_on_c, 1, 74, 127
1, 79919, Note_off_c, 1, 64, 0
1, 79919, Note_off_c, 1, 68, 0
1, 79919, Note_off_c, 1, 56, 0
1, 79919, Note_off_c, 1, 74, 0
1, 79920, Note_on_c, 1, 73, 127
1, 79920, Note_on_c, 1, 69, 127
1, 79920, Note_on_c, 1, 64, 127
1, 79920, Note_on_c, 1, 57, 127
1, 79949, Note_off_c, 1, 73, 0
1, 79950, Note_on_c, 1, 76, 127
1, 79979, Note_off_c, 1, 69, 0
1, 79979, Note_off_c, 1, 64, 0
1, 79979, Note_off_c, 1, 57, 0
1, 79979, Note_off_c, 1, 76, 0
1, 79980, Note_on_c, 1, 73, 127
1, 79980, Note_on_c, 1, 45, 127
1, 80009, Note_off_c, 1, 73, 0
1, 80010, Note_on_c, 1, 69, 127
1, 80039, Note_off_c, 1, 45, 0
1, 80039, Note_off_c, 1, 69, 0
1, 80040, Note_on_c, 1, 64, 127
1, 80040, Note_on_c, 1, 69, 127
1, 80040, Note_on_c, 1, 49, 127
1, 80070, Note_on_c, 1, 67, 127
1, 80099, Note_off_c, 1, 64, 0
1, 80099, Note_off_c, 1, 69, 0
1, 80099, Note_off_c, 1, 49, 0
1, 80100, Note_off_c, 1, 67, 0
1, 80100, Note_on_c, 1, 65, 127
1, 80100, Note_on_c, 1, 74, 127
1, 80100, Note_on_c, 1, 50, 127
1, 80159, Note_off_c, 1, 65, 0
1, 80159, Note_off_c, 1, 74, 0
1, 80159, Note_off_c, 1, 50, 0
1, 80160, Note_on_c, 1, 62, 127
1, 80190, Note_on_c, 1, 69, 127
1, 80219, Note_off_c, 1, 62, 0
1, 80219, Note_off_c, 1, 69, 0
1, 80220, Note_on_c, 1, 74, 127
1, 80220, Note_on_c, 1, 53, 127
1, 80250, Note_off_c, 1, 74, 0
1, 80250, Note_on_c, 1, 72, 127
1, 80279, Note_off_c, 1, 53, 0
1, 80280, Note_off_c, 1, 72, 0
1, 80280, Note_on_c, 1, 71, 127
1, 80280, Note_on_c, 1, 67, 127
1, 80280, Note_on_c, 1, 55, 127
1, 80339, Note_off_c, 1, 71, 0
1, 80339, Note_off_c, 1, 67, 0
1, 80339, Note_off_c, 1, 55, 0
1, 80340, Note_on_c, 1, 71, 127
1, 80340, Note_on_c, 1, 43, 127
1, 80369, Note_off_c, 1, 71, 0
1, 80370, Note_on_c, 1, 67, 127
1, 80399, Note_off_c, 1, 43, 0
1, 80399, Note_off_c, 1, 67, 0
1, 80400, Note_on_c, 1, 62, 127
1, 80400, Note_on_c, 1, 67, 127
1, 80400, Note_on_c, 1, 65, 127
1, 80400, Note_on_c, 1, 47, 127
1, 80429, Note_off_c, 1, 62, 0
1, 80459, Note_off_c, 1, 65, 0
1, 80459, Note_off_c, 1, 47, 0
1, 80460, Note_on_c, 1, 64, 127
1, 80460, Note_on_c, 1, 60, 127
1, 80460, Note_on_c, 1, 48, 127
1, 80519, Note_off_c, 1, 67, 0
1, 80519, Note_off_c, 1, 64, 0
1, 80519, Note_off_c, 1, 60, 0
1, 80519, Note_off_c, 1, 48, 0
1, 80520, Note_on_c, 1, 60, 127
1, 80520, Note_on_c, 1, 64, 127
1, 80579, Note_off_c, 1, 60, 0
1, 80579, Note_off_c, 1, 64, 0
1, 80580, Note_on_c, 1, 62, 127
1, 80580, Note_on_c, 1, 67, 127
1, 80580, Note_on_c, 1, 59, 127
1, 80639, Note_off_c, 1, 62, 0
1, 80639, Note_off_c, 1, 67, 0
1, 80639, Note_off_c, 1, 59, 0
1, 80640, Note_on_c, 1, 65, 127
1, 80640, Note_on_c, 1, 67, 127
1, 80640, Note_on_c, 1, 64, 127
1, 80640, Note_on_c, 1, 60, 127
1, 80670, Note_off_c, 1, 65, 0
1, 80699, Note_off_c, 1, 67, 0
1, 80699, Note_off_c, 1, 60, 0
1, 80700, Note_off_c, 1, 64, 0
1, 80700, Note_on_c, 1, 62, 127
1, 80700, Note_on_c, 1, 52, 127
1, 80729, Note_off_c, 1, 52, 0
1, 80730, Note_off_c, 1, 62, 0
1, 80730, Note_on_c, 1, 50, 127
1, 80759, Note_off_c, 1, 50, 0
1, 80790, Note_on_c, 1, 48, 127
1, 80819, Note_off_c, 1, 48, 0
1, 80820, Note_on_c, 1, 67, 127
1, 80820, Note_on_c, 1, 47, 127
1, 80879, Note_off_c, 1, 67, 0
1, 80879, Note_off_c, 1, 47, 0
1, 80880, Note_on_c, 1, 71, 127
1, 80880, Note_on_c, 1, 67, 127
1, 80880, Note_on_c, 1, 48, 127
1, 80939, Note_off_c, 1, 71, 0
1, 80939, Note_off_c, 1, 67, 0
1, 80939, Note_off_c, 1, 48, 0
1, 80940, Note_on_c, 1, 69, 127
1, 80940, Note_on_c, 1, 66, 127
1, 80940, Note_on_c, 1, 50, 127
1, 80950, Note_off_c, 1, 69, 0
1, 80950, Note_on_c, 1, 71, 127
1, 80960, Note_off_c, 1, 71, 0
1, 80999, Note_off_c, 1, 66, 0
1, 80999, Note_off_c, 1, 50, 0
1, 81000, Note_on_c, 1, 67, 127
1, 81000, Note_on_c, 1, 62, 127
1, 81000, Note_on_c, 1, 43, 127
1, 81059, Note_off_c, 1, 43, 0
1, 81060, Note_on_c, 1, 55, 127
1, 81089, Note_off_c, 1, 55, 0
1, 81090, Note_on_c, 1, 53, 127
1, 81119, Note_off_c, 1, 67, 0
1, 81119, Note_off_c, 1, 62, 0
1, 81119, Note_off_c, 1, 53, 0
1, 81120, Note_on_c, 1, 69, 127
1, 81120, Note_on_c, 1, 71, 127
1, 81120, Note_on_c, 1, 55, 127
1, 81149, Note_off_c, 1, 71, 0
1, 81149, Note_off_c, 1, 55, 0
1, 81150, Note_on_c, 1, 67, 127
1, 81150, Note_on_c, 1, 52, 127
1, 81179, Note_off_c, 1, 67, 0
1, 81179, Note_off_c, 1, 52, 0
1, 81180, Note_off_c, 1, 69, 0
1, 81180, Note_on_c, 1, 62, 127
1, 81180, Note_on_c, 1, 53, 127
1, 81239, Note_off_c, 1, 53, 0
1, 81240, Note_off_c, 1, 62, 0
1, 81240, Note_on_c, 1, 65, 127
1, 81300, Note_off_c, 1, 65, 0
1, 81300, Note_on_c, 1, 64, 127
1, 81300, Note_on_c, 1, 61, 127
1, 81300, Note_on_c, 1, 57, 127
1, 81359, Note_off_c, 1, 61, 0
1, 81359, Note_off_c, 1, 57, 0
1, 81360, Note_off_c, 1, 64, 0
1, 81360, Note_on_c, 1, 50, 127
1, 81419, Note_off_c, 1, 50, 0
1, 81540, Note_on_c, 1, 69, 127
1, 81540, Note_on_c, 1, 48, 127
1, 81599, Note_off_c, 1, 69, 0
1, 81599, Note_off_c, 1, 48, 0
1, 81600, Note_on_c, 1, 72, 127
1, 81600, Note_on_c, 1, 69, 127
1, 81600, Note_on_c, 1, 50, 127
1, 81659, Note_off_c, 1, 72, 0
1, 81659, Note_off_c, 1, 69, 0
1, 81659, Note_off_c, 1, 50, 0
1, 81660, Note_on_c, 1, 71, 127
1, 81660, Note_on_c, 1, 68, 127
1, 81660, Note_on_c, 1, 52, 127
1, 81719, Note_off_c, 1, 71, 0
1, 81719, Note_off_c, 1, 68, 0
1, 81719, Note_off_c, 1, 52, 0
1, 81720, Note_on_c, 1, 72, 127
1, 81720, Note_on_c, 1, 69, 127
1, 81720, Note_on_c, 1, 64, 127
1, 81720, Note_on_c, 1, 45, 127
1, 81779, Note_off_c, 1, 72, 0
1, 81839, Note_off_c, 1, 69, 0
1, 81839, Note_off_c, 1, 64, 0
1, 81839, Note_off_c, 1, 45, 0
1, 81840, Note_on_c, 1, 71, 127
1, 81840, Note_on_c, 1, 64, 127
1, 81869, Note_off_c, 1, 71, 0
1, 81870, Note_on_c, 1, 74, 127
1, 81899, Note_off_c, 1, 64, 0
1, 81899, Note_off_c, 1, 74, 0
1, 81900, Note_on_c, 1, 72, 127
1, 81900, Note_on_c, 1, 69, 127
1, 81929, Note_off_c, 1, 72, 0
1, 81930, Note_on_c, 1, 76, 127
1, 81959, Note_off_c, 1, 69, 0
1, 81959, Note_off_c, 1, 76, 0
1, 81960, Note_on_c, 1, 72, 127
1, 81990, Note_on_c, 1, 69, 127
1, 82019, Note_off_c, 1, 72, 0
1, 82019, Note_off_c, 1, 69, 0
1, 82020, Note_on_c, 1, 68, 127
1, 82020, Note_on_c, 1, 71, 127
1, 82020, Note_on_c, 1, 40, 127
1, 82079, Note_off_c, 1, 68, 0
1, 82079, Note_off_c, 1, 71, 0
1, 82079, Note_off_c, 1, 40, 0
1, 82080, Note_on_c, 1, 69, 127
1, 82080, Note_on_c, 1, 72, 127
1, 82080, Note_on_c, 1, 64, 127
1, 82080, Note_on_c, 1, 45, 127
1, 82139, Note_off_c, 1, 69, 0
1, 82139, Note_off_c, 1, 72, 0
1, 82139, Note_off_c, 1, 64, 0
1, 82139, Note_off_c, 1, 45, 0
1, 82140, Note_on_c, 1, 76, 127
1, 82140, Note_on_c, 1, 68, 127
1, 82169, Note_off_c, 1, 76, 0
1, 82170, Note_on_c, 1, 74, 127
1, 82199, Note_off_c, 1, 68, 0
1, 82199, Note_off_c, 1, 74, 0
1, 82200, Note_on_c, 1, 72, 127
1, 82200, Note_on_c, 1, 69, 127
1, 82200, Note_on_c, 1, 45, 127
1, 82230, Note_on_c, 1, 71, 127
1, 82259, Note_off_c, 1, 72, 0
1, 82259, Note_off_c, 1, 69, 0
1, 82259, Note_off_c, 1, 45, 0
1, 82259, Note_off_c, 1, 71, 0
1, 82260, Note_on_c, 1, 69, 127
1, 82260, Note_on_c, 1, 67, 127
1, 82260, Note_on_c, 1, 72, 127
1, 82260, Note_on_c, 1, 50, 127
1, 82289, Note_off_c, 1, 67, 0
1, 82290, Note_on_c, 1, 65, 127
1, 82319, Note_off_c, 1, 69, 0
1, 82319, Note_off_c, 1, 72, 0
1, 82319, Note_off_c, 1, 50, 0
1, 82319, Note_off_c, 1, 65, 0
1, 82320, Note_on_c, 1, 74, 127
1, 82320, Note_on_c, 1, 64, 127
1, 82320, Note_on_c, 1, 53, 127
1, 82349, Note_off_c, 1, 64, 0
1, 82350, Note_on_c, 1, 62, 127
1, 82379, Note_off_c, 1, 74, 0
1, 82379, Note_off_c, 1, 53, 0
1, 82379, Note_off_c, 1, 62, 0
1, 82380, Note_on_c, 1, 71, 127
1, 82380, Note_on_c, 1, 67, 127
1, 82380, Note_on_c, 1, 65, 127
1, 82380, Note_on_c, 1, 55, 127
1, 82390, Note_on_c, 1, 72, 127
1, 82400, Note_off_c, 1, 72, 0
1, 82439, Note_off_c, 1, 67, 0
1, 82439, Note_off_c, 1, 65, 0
1, 82439, Note_off_c, 1, 55, 0
1, 82440, Note_off_c, 1, 71, 0
1, 82440, Note_on_c, 1, 64, 127
1, 82440, Note_on_c, 1, 48, 127
1, 82499, Note_off_c, 1, 64, 0
1, 82499, Note_off_c, 1, 48, 0
1, 82500, Note_on_c, 1, 64, 127
1, 82500, Note_on_c, 1, 60, 127
1, 82529, Note_off_c, 1, 64, 0
1, 82530, Note_on_c, 1, 67, 127
1, 82559, Note_off_c, 1, 60, 0
1, 82559, Note_off_c, 1, 67, 0
1, 82560, Note_on_c, 1, 72, 127
1, 82560, Note_on_c, 1, 69, 127
1, 82560, Note_on_c, 1, 45, 127
1, 82590, Note_on_c, 1, 76, 127
1, 82619, Note_off_c, 1, 72, 0
1, 82619, Note_off_c, 1, 69, 0
1, 82619, Note_off_c, 1, 45, 0
1, 82619, Note_off_c, 1, 76, 0
1, 82620, Note_on_c, 1, 74, 127
1, 82620, Note_on_c, 1, 71, 127
1, 82620, Note_on_c, 1, 69, 127
1, 82620, Note_on_c, 1, 50, 127
1, 82649, Note_off_c, 1, 74, 0
1, 82650, Note_off_c, 1, 69, 0
1, 82650, Note_on_c, 1, 77, 127
1, 82679, Note_off_c, 1, 50, 0
1, 82679, Note_off_c, 1, 77, 0
1, 82680, Note_off_c, 1, 71, 0
1, 82680, Note_on_c, 1, 76, 127
1, 82680, Note_on_c, 1, 72, 127
1, 82709, Note_off_c, 1, 76, 0
1, 82709, Note_off_c, 1, 72, 0
1, 82740, Note_on_c, 1, 72, 127
1, 82740, Note_on_c, 1, 69, 127
1, 82740, Note_on_c, 1, 68, 127
1, 82740, Note_on_c, 1, 52, 127
1, 82769, Note_off_c, 1, 72, 0
1, 82769, Note_off_c, 1, 69, 0
1, 82770, Note_on_c, 1, 71, 127
1, 82799, Note_off_c, 1, 68, 0
1, 82799, Note_off_c, 1, 52, 0
1, 82799, Note_off_c, 1, 71, 0
1, 82800, Note_on_c, 1, 69, 127
1, 82800, Note_on_c, 1, 65, 127
1, 82800, Note_on_c, 1, 53, 127
1, 82829, Note_off_c, 1, 53, 0
1, 82830, Note_on_c, 1, 67, 127
1, 82830, Note_on_c, 1, 52, 127
1, 82859, Note_off_c, 1, 69, 0
1, 82859, Note_off_c, 1, 65, 0
1, 82859, Note_off_c, 1, 67, 0
1, 82859, Note_off_c, 1, 52, 0
1, 82860, Note_on_c, 1, 65, 127
1, 82860, Note_on_c, 1, 71, 127
1, 82860, Note_on_c, 1, 50, 127
1, 82889, Note_off_c, 1, 65, 0
1, 82889, Note_off_c, 1, 50, 0
1, 82890, Note_on_c, 1, 64, 127
1, 82890, Note_on_c, 1, 48, 127
1, 82919, Note_off_c, 1, 71, 0
1, 82919, Note_off_c, 1, 64, 0
1, 82919, Note_off_c, 1, 48, 0
1, 82920, Note_on_c, 1, 62, 127
1, 82920, Note_on_c, 1, 72, 127
1, 82920, Note_on_c, 1, 47, 127
1, 82949, Note_off_c, 1, 62, 0
1, 82949, Note_off_c, 1, 47, 0
1, 82950, Note_on_c, 1, 60, 127
1, 82950, Note_on_c, 1, 45, 127
1, 82979, Note_off_c, 1, 72, 0
1, 82979, Note_off_c, 1, 60, 0
1, 82979, Note_off_c, 1, 45, 0
1, 82980, Note_on_c, 1, 59, 127
1, 82980, Note_on_c, 1, 74, 127
1, 82980, Note_on_c, 1, 68, 127
1, 82980, Note_on_c, 1, 44, 127
1, 83039, Note_off_c, 1, 59, 0
1, 83039, Note_off_c, 1, 74, 0
1, 83039, Note_off_c, 1, 68, 0
1, 83039, Note_off_c, 1, 44, 0
1, 83040, Note_on_c, 1, 68, 127
1, 83040, Note_on_c, 1, 72, 127
1, 83040, Note_on_c, 1, 76, 127
1, 83040, Note_on_c, 1, 40, 127
1, 83069, Note_off_c, 1, 72, 0
1, 83070, Note_on_c, 1, 71, 127
1, 83099, Note_off_c, 1, 68, 0
1, 83099, Note_off_c, 1, 76, 0
1, 83099, Note_off_c, 1, 40, 0
1, 83099, Note_off_c, 1, 71, 0
1, 83100, Note_on_c, 1, 69, 127
1, 83100, Note_on_c, 1, 72, 127
1, 83100, Note_on_c, 1, 45, 127
1, 83159, Note_off_c, 1, 72, 0
1, 83159, Note_off_c, 1, 45, 0
1, 83160, Note_on_c, 1, 71, 127
1, 83160, Note_on_c, 1, 68, 127
1, 83160, Note_on_c, 1, 40, 127
1, 83189, Note_off_c, 1, 69, 0
1, 83190, Note_on_c, 1, 66, 127
1, 83219, Note_off_c, 1, 68, 0
1, 83219, Note_off_c, 1, 40, 0
1, 83219, Note_off_c, 1, 66, 0
1, 83220, Note_on_c, 1, 52, 127
1, 83279, Note_off_c, 1, 71, 0
1, 83279, Note_off_c, 1, 52, 0
1, 83280, Note_on_c, 1, 74, 127
1, 83280, Note_on_c, 1, 64, 127
1, 83280, Note_on_c, 1, 44, 127
1, 83339, Note_off_c, 1, 74, 0
1, 83339, Note_off_c, 1, 64, 0
1, 83339, Note_off_c, 1, 44, 0
1, 83340, Note_on_c, 1, 73, 127
1, 83340, Note_on_c, 1, 64, 127
1, 83340, Note_on_c, 1, 45, 127
1, 83399, Note_off_c, 1, 73, 0
1, 83399, Note_off_c, 1, 64, 0
1, 83399, Note_off_c, 1, 45, 0
1, 83400, Note_on_c, 1, 76, 127
1, 83459, Note_off_c, 1, 76, 0
1, 83460, Note_on_c, 1, 67, 127
1, 83460, Note_on_c, 1, 69, 127
1, 83460, Note_on_c, 1, 49, 127
1, 83519, Note_off_c, 1, 67, 0
1, 83519, Note_off_c, 1, 69, 0
1, 83519, Note_off_c, 1, 49, 0
1, 83520, Note_on_c, 1, 65, 127
1, 83520, Note_on_c, 1, 69, 127
1, 83520, Note_on_c, 1, 50, 127
1, 83530, Note_on_c, 1, 67, 127
1, 83540, Note_off_c, 1, 67, 0
1, 83579, Note_off_c, 1, 69, 0
1, 83579, Note_off_c, 1, 50, 0
1, 83580, Note_off_c, 1, 65, 0
1, 83580, Note_on_c, 1, 64, 127
1, 83580, Note_on_c, 1, 53, 127
1, 83609, Note_off_c, 1, 64, 0
1, 83610, Note_on_c, 1, 62, 127
1, 83639, Note_off_c, 1, 53, 0
1, 83639, Note_off_c, 1, 62, 0
1, 83640, Note_on_c, 1, 72, 127
1, 83640, Note_on_c, 1, 65, 127
1, 83640, Note_on_c, 1, 69, 127
1, 83640, Note_on_c, 1, 60, 127
1, 83640, Note_on_c, 1, 50, 127
1, 83699, Note_off_c, 1, 72, 0
1, 83699, Note_off_c, 1, 65, 0
1, 83699, Note_off_c, 1, 69, 0
1, 83699, Note_off_c, 1, 60, 0
1, 83699, Note_off_c, 1, 50, 0
1, 83700, Note_on_c, 1, 71, 127
1, 83700, Note_on_c, 1, 65, 127
1, 83700, Note_on_c, 1, 67, 127
1, 83700, Note_on_c, 1, 62, 127
1, 83700, Note_on_c, 1, 55, 127
1, 83759, Note_off_c, 1, 71, 0
1, 83759, Note_off_c, 1, 65, 0
1, 83759, Note_off_c, 1, 67, 0
1, 83759, Note_off_c, 1, 62, 0
1, 83759, Note_off_c, 1, 55, 0
1, 83760, Note_on_c, 1, 74, 127
1, 83819, Note_off_c, 1, 74, 0
1, 83820, Note_on_c, 1, 65, 127
1, 83820, Note_on_c, 1, 67, 127
1, 83820, Note_on_c, 1, 62, 127
1, 83820, Note_on_c, 1, 47, 127
1, 83879, Note_off_c, 1, 65, 0
1, 83879, Note_off_c, 1, 67, 0
1, 83879, Note_off_c, 1, 62, 0
1, 83879, Note_off_c, 1, 47, 0
1, 83880, Note_on_c, 1, 64, 127
1, 83880, Note_on_c, 1, 67, 127
1, 83880, Note_on_c, 1, 60, 127
1, 83880, Note_on_c, 1, 48, 127
1, 83890, Note_on_c, 1, 65, 127
1, 83900, Note_off_c, 1, 65, 0
1, 83939, Note_off_c, 1, 67, 0
1, 83939, Note_off_c, 1, 60, 0
1, 83939, Note_off_c, 1, 48, 0
1, 83940, Note_off_c, 1, 64, 0
1, 83940, Note_on_c, 1, 62, 127
1, 83940, Note_on_c, 1, 52, 127
1, 83969, Note_off_c, 1, 62, 0
1, 83999, Note_off_c, 1, 52, 0
1, 84000, Note_on_c, 1, 64, 127
1, 84000, Note_on_c, 1, 67, 127
1, 84000, Note_on_c, 1, 48, 127
1, 84059, Note_off_c, 1, 64, 0
1, 84059, Note_off_c, 1, 67, 0
1, 84059, Note_off_c, 1, 48, 0
1, 84060, Note_on_c, 1, 74, 127
1, 84060, Note_on_c, 1, 62, 127
1, 84060, Note_on_c, 1, 65, 127
1, 84060, Note_on_c, 1, 53, 127
1, 84119, Note_off_c, 1, 74, 0
1, 84119, Note_off_c, 1, 62, 0
1, 84119, Note_off_c, 1, 65, 0
1, 84119, Note_off_c, 1, 53, 0
1, 84120, Note_on_c, 1, 72, 127
1, 84120, Note_on_c, 1, 52, 127
1, 84179, Note_off_c, 1, 72, 0
1, 84179, Note_off_c, 1, 52, 0
1, 84180, Note_on_c, 1, 71, 127
1, 84180, Note_on_c, 1, 64, 127
1, 84180, Note_on_c, 1, 68, 127
1, 84180, Note_on_c, 1, 50, 127
1, 84239, Note_off_c, 1, 71, 0
1, 84239, Note_off_c, 1, 64, 0
1, 84239, Note_off_c, 1, 68, 0
1, 84239, Note_off_c, 1, 50, 0
1, 84240, Note_on_c, 1, 76, 127
1, 84240, Note_on_c, 1, 69, 127
1, 84240, Note_on_c, 1, 64, 127
1, 84240, Note_on_c, 1, 48, 127
1, 84299, Note_off_c, 1, 76, 0
1, 84299, Note_off_c, 1, 69, 0
1, 84299, Note_off_c, 1, 64, 0
1, 84299, Note_off_c, 1, 48, 0
1, 84300, Note_on_c, 1, 69, 127
1, 84300, Note_on_c, 1, 53, 127
1, 84359, Note_off_c, 1, 69, 0
1, 84359, Note_off_c, 1, 53, 0
1, 84360, Note_on_c, 1, 71, 127
1, 84360, Note_on_c, 1, 50, 127
1, 84419, Note_off_c, 1, 71, 0
1, 84419, Note_off_c, 1, 50, 0
1, 84420, Note_on_c, 1, 64, 127
1, 84420, Note_on_c, 1, 69, 127
1, 84420, Note_on_c, 1, 72, 127
1, 84420, Note_on_c, 1, 52, 127
1, 84479, Note_off_c, 1, 64, 0
1, 84479, Note_off_c, 1, 69, 0
1, 84479, Note_off_c, 1, 72, 0
1, 84479, Note_off_c, 1, 52, 0
1, 84480, Note_on_c, 1, 72, 127
1, 84480, Note_on_c, 1, 50, 127
1, 84509, Note_off_c, 1, 72, 0
1, 84510, Note_on_c, 1, 71, 127
1, 84539, Note_off_c, 1, 50, 0
1, 84539, Note_off_c, 1, 71, 0
1, 84540, Note_on_c, 1, 69, 127
1, 84540, Note_on_c, 1, 68, 127
1, 84540, Note_on_c, 1, 71, 127
1, 84540, Note_on_c, 1, 52, 127
1, 84569, Note_off_c, 1, 69, 0
1, 84599, Note_off_c, 1, 68, 0
1, 84599, Note_off_c, 1, 71, 0
1, 84599, Note_off_c, 1, 52, 0
1, 84600, Note_on_c, 1, 69, 127
1, 84600, Note_on_c, 1, 72, 127
1, 84600, Note_on_c, 1, 41, 127
1, 84659, Note_off_c, 1, 72, 0
1, 84659, Note_off_c, 1, 41, 0
1, 84660, Note_on_c, 1, 53, 127
1, 84689, Note_off_c, 1, 53, 0
1, 84690, Note_on_c, 1, 67, 127
1, 84690, Note_on_c, 1, 52, 127
1, 84719, Note_off_c, 1, 69, 0
1, 84719, Note_off_c, 1, 67, 0
1, 84719, Note_off_c, 1, 52, 0
1, 84720, Note_on_c, 1, 69, 127
1, 84720, Note_on_c, 1, 65, 127
1, 84720, Note_on_c, 1, 50, 127
1, 84749, Note_off_c, 1, 65, 0
1, 84749, Note_off_c, 1, 50, 0
1, 84750, Note_on_c, 1, 64, 127
1, 84750, Note_on_c, 1, 48, 127
1, 84779, Note_off_c, 1, 69, 0
1, 84779, Note_off_c, 1, 64, 0
1, 84779, Note_off_c, 1, 48, 0
1, 84780, Note_on_c, 1, 69, 127
1, 84780, Note_on_c, 1, 62, 127
1, 84780, Note_on_c, 1, 46, 127
1, 84839, Note_off_c, 1, 69, 0
1, 84839, Note_off_c, 1, 62, 0
1, 84839, Note_off_c, 1, 46, 0
1, 84840, Note_on_c, 1, 62, 127
1, 84870, Note_on_c, 1, 65, 127
1, 84899, Note_off_c, 1, 62, 0
1, 84899, Note_off_c, 1, 65, 0
1, 84900, Note_on_c, 1, 70, 127
1, 84929, Note_off_c, 1, 70, 0
1, 84930, Note_on_c, 1, 69, 127
1, 84959, Note_off_c, 1, 69, 0
1, 84960, Note_on_c, 1, 67, 127
1, 84960, Note_on_c, 1, 70, 127
1, 84960, Note_on_c, 1, 62, 127
1, 84960, Note_on_c, 1, 40, 127
1, 84989, Note_off_c, 1, 67, 0
1, 85019, Note_off_c, 1, 70, 0
1, 85019, Note_off_c, 1, 62, 0
1, 85019, Note_off_c, 1, 40, 0
1, 85020, Note_on_c, 1, 67, 127
1, 85049, Note_off_c, 1, 67, 0
1, 85050, Note_on_c, 1, 64, 127
1, 85079, Note_off_c, 1, 64, 0
1, 85080, Note_on_c, 1, 58, 127
1, 85080, Note_on_c, 1, 67, 127
1, 85109, Note_off_c, 1, 58, 0
1, 85110, Note_on_c, 1, 62, 127
1, 85139, Note_off_c, 1, 67, 0
1, 85139, Note_off_c, 1, 62, 0
1, 85140, Note_on_c, 1, 61, 127
1, 85140, Note_on_c, 1, 67, 127
1, 85140, Note_on_c, 1, 73, 127
1, 85140, Note_on_c, 1, 45, 127
1, 85169, Note_off_c, 1, 61, 0
1, 85170, Note_on_c, 1, 64, 127
1, 85199, Note_off_c, 1, 67, 0
1, 85199, Note_off_c, 1, 73, 0
1, 85199, Note_off_c, 1, 45, 0
1, 85199, Note_off_c, 1, 64, 0
1, 85200, Note_on_c, 1, 57, 127
1, 85200, Note_on_c, 1, 61, 127
1, 85229, Note_off_c, 1, 57, 0
1, 85259, Note_off_c, 1, 61, 0
1, 85260, Note_on_c, 1, 64, 127
1, 85289, Note_off_c, 1, 64, 0
1, 85290, Note_on_c, 1, 67, 127
1, 85319, Note_off_c, 1, 67, 0
1, 85320, Note_on_c, 1, 65, 127
1, 85320, Note_on_c, 1, 69, 127
1, 85320, Note_on_c, 1, 38, 127
1, 85379, Note_off_c, 1, 65, 0
1, 85379, Note_off_c, 1, 69, 0
1, 85379, Note_off_c, 1, 38, 0
1, 85380, Note_on_c, 1, 65, 127
1, 85409, Note_off_c, 1, 65, 0
1, 85410, Note_on_c, 1, 62, 127
1, 85439, Note_off_c, 1, 62, 0
1, 85440, Note_on_c, 1, 57, 127
1, 85440, Note_on_c, 1, 69, 127
1, 85440, Note_on_c, 1, 65, 127
1, 85440, Note_on_c, 1, 50, 127
1, 85469, Note_off_c, 1, 57, 0
1, 85470, Note_on_c, 1, 60, 127
1, 85499, Note_off_c, 1, 69, 0
1, 85499, Note_off_c, 1, 65, 0
1, 85499, Note_off_c, 1, 60, 0
1, 85500, Note_on_c, 1, 59, 127
1, 85500, Note_on_c, 1, 68, 127
1, 85500, Note_on_c, 1, 64, 127
1, 85529, Note_off_c, 1, 59, 0
1, 85530, Note_on_c, 1, 62, 127
1, 85559, Note_off_c, 1, 50, 0
1, 85559, Note_off_c, 1, 68, 0
1, 85559, Note_off_c, 1, 64, 0
1, 85559, Note_off_c, 1, 62, 0
1, 85560, Note_on_c, 1, 65, 127
1, 85560, Note_on_c, 1, 71, 127
1, 85560, Note_on_c, 1, 64, 127
1, 85560, Note_on_c, 1, 62, 127
1, 85560, Note_on_c, 1, 44, 127
1, 85589, Note_off_c, 1, 44, 0
1, 85590, Note_on_c, 1, 42, 127
1, 85619, Note_off_c, 1, 65, 0
1, 85619, Note_off_c, 1, 71, 0
1, 85619, Note_off_c, 1, 64, 0
1, 85619, Note_off_c, 1, 62, 0
1, 85619, Note_off_c, 1, 42, 0
1, 85620, Note_on_c, 1, 74, 127
1, 85620, Note_on_c, 1, 68, 127
1, 85620, Note_on_c, 1, 62, 127
1, 85620, Note_on_c, 1, 44, 127
1, 85649, Note_off_c, 1, 44, 0
1, 85650, Note_on_c, 1, 40, 127
1, 85679, Note_off_c, 1, 74, 0
1, 85679, Note_off_c, 1, 68, 0
1, 85679, Note_off_c, 1, 62, 0
1, 85679, Note_off_c, 1, 40, 0
1, 85680, Note_on_c, 1, 74, 127
1, 85680, Note_on_c, 1, 71, 127
1, 85680, Note_on_c, 1, 45, 127
1, 85739, Note_off_c, 1, 74, 0
1, 85739, Note_off_c, 1, 71, 0
1, 85740, Note_on_c, 1, 73, 127
1, 85740, Note_on_c, 1, 69, 127
1, 85769, Note_off_c, 1, 45, 0
1, 85770, Note_on_c, 1, 47, 127
1, 85799, Note_off_c, 1, 73, 0
1, 85799, Note_off_c, 1, 69, 0
1, 85799, Note_off_c, 1, 47, 0
1, 85800, Note_on_c, 1, 67, 127
1, 85800, Note_on_c, 1, 49, 127
1, 85829, Note_off_c, 1, 49, 0
1, 85830, Note_on_c, 1, 45, 127
1, 85859, Note_off_c, 1, 67, 0
1, 85859, Note_off_c, 1, 45, 0
1, 85860, Note_on_c, 1, 66, 127
1, 85860, Note_on_c, 1, 69, 127
1, 85860, Note_on_c, 1, 50, 127
1, 85919, Note_off_c, 1, 66, 0
1, 85919, Note_off_c, 1, 69, 0
1, 85919, Note_off_c, 1, 50, 0
1, 85920, Note_on_c, 1, 69, 127
1, 85920, Note_on_c, 1, 72, 127
1, 85920, Note_on_c, 1, 62, 127
1, 85920, Note_on_c, 1, 42, 127
1, 85949, Note_off_c, 1, 42, 0
1, 85950, Note_on_c, 1, 40, 127
1, 85979, Note_off_c, 1, 69, 0
1, 85979, Note_off_c, 1, 72, 0
1, 85979, Note_off_c, 1, 62, 0
1, 85979, Note_off_c, 1, 40, 0
1, 85980, Note_on_c, 1, 72, 127
1, 85980, Note_on_c, 1, 66, 127
1, 85980, Note_on_c, 1, 42, 127
1, 86009, Note_off_c, 1, 42, 0
1, 86010, Note_on_c, 1, 38, 127
1, 86039, Note_off_c, 1, 72, 0
1, 86039, Note_off_c, 1, 66, 0
1, 86039, Note_off_c, 1, 38, 0
1, 86040, Note_on_c, 1, 72, 127
1, 86040, Note_on_c, 1, 69, 127
1, 86040, Note_on_c, 1, 43, 127
1, 86050, Note_on_c, 1, 74, 127
1, 86060, Note_off_c, 1, 74, 0
1, 86099, Note_off_c, 1, 69, 0
1, 86100, Note_off_c, 1, 72, 0
1, 86100, Note_on_c, 1, 71, 127
1, 86100, Note_on_c, 1, 67, 127
1, 86129, Note_off_c, 1, 43, 0
1, 86130, Note_on_c, 1, 45, 127
1, 86159, Note_off_c, 1, 71, 0
1, 86159, Note_off_c, 1, 67, 0
1, 86159, Note_off_c, 1, 45, 0
1, 86160, Note_on_c, 1, 65, 127
1, 86160, Note_on_c, 1, 47, 127
1, 86189, Note_off_c, 1, 47, 0
1, 86190, Note_on_c, 1, 43, 127
1, 86219, Note_off_c, 1, 65, 0
1, 86219, Note_off_c, 1, 43, 0
1, 86220, Note_on_c, 1, 64, 127
1, 86220, Note_on_c, 1, 67, 127
1, 86220, Note_on_c, 1, 48, 127
1, 86279, Note_off_c, 1, 64, 0
1, 86279, Note_off_c, 1, 67, 0
1, 86279, Note_off_c, 1, 48, 0
1, 86280, Note_on_c, 1, 67, 127
1, 86280, Note_on_c, 1, 72, 127
1, 86280, Note_on_c, 1, 70, 127
1, 86280, Note_on_c, 1, 40, 127
1, 86309, Note_off_c, 1, 40, 0
1, 86310, Note_on_c, 1, 38, 127
1, 86339, Note_off_c, 1, 67, 0
1, 86339, Note_off_c, 1, 72, 0
1, 86339, Note_off_c, 1, 70, 0
1, 86339, Note_off_c, 1, 38, 0
1, 86340, Note_on_c, 1, 70, 127
1, 86340, Note_on_c, 1, 67, 127
1, 86340, Note_on_c, 1, 40, 127
1, 86369, Note_off_c, 1, 40, 0
1, 86370, Note_on_c, 1, 36, 127
1, 86399, Note_off_c, 1, 70, 0
1, 86399, Note_off_c, 1, 67, 0
1, 86399, Note_off_c, 1, 36, 0
1, 86400, Note_on_c, 1, 70, 127
1, 86400, Note_on_c, 1, 67, 127
1, 86400, Note_on_c, 1, 41, 127
1, 86459, Note_off_c, 1, 70, 0
1, 86459, Note_off_c, 1, 67, 0
1, 86459, Note_off_c, 1, 41, 0
1, 86460, Note_on_c, 1, 69, 127
1, 86460, Note_on_c, 1, 65, 127
1, 86460, Note_on_c, 1, 53, 127
1, 86489, Note_off_c, 1, 53, 0
1, 86490, Note_on_c, 1, 52, 127
1, 86519, Note_off_c, 1, 69, 0
1, 86519, Note_off_c, 1, 65, 0
1, 86519, Note_off_c, 1, 52, 0
1, 86520, Note_on_c, 1, 74, 127
1, 86520, Note_on_c, 1, 53, 127
1, 86549, Note_off_c, 1, 53, 0
1, 86550, Note_on_c, 1, 65, 127
1, 86550, Note_on_c, 1, 50, 127
1, 86579, Note_off_c, 1, 74, 0
1, 86579, Note_off_c, 1, 50, 0
1, 86580, Note_off_c, 1, 65, 0
1, 86580, Note_on_c, 1, 73, 127
1, 86580, Note_on_c, 1, 64, 127
1, 86580, Note_on_c, 1, 52, 127
1, 86639, Note_off_c, 1, 73, 0
1, 86639, Note_off_c, 1, 64, 0
1, 86639, Note_off_c, 1, 52, 0
1, 86640, Note_on_c, 1, 76, 127
1, 86640, Note_on_c, 1, 69, 127
1, 86640, Note_on_c, 1, 67, 127
1, 86640, Note_on_c, 1, 49, 127
1, 86699, Note_off_c, 1, 76, 0
1, 86699, Note_off_c, 1, 69, 0
1, 86699, Note_off_c, 1, 67, 0
1, 86699, Note_off_c, 1, 49, 0
1, 86700, Note_on_c, 1, 67, 127
1, 86700, Note_on_c, 1, 73, 127
1, 86700, Note_on_c, 1, 45, 127
1, 86759, Note_off_c, 1, 67, 0
1, 86759, Note_off_c, 1, 73, 0
1, 86759, Note_off_c, 1, 45, 0
1, 86760, Note_on_c, 1, 65, 127
1, 86760, Note_on_c, 1, 74, 127
1, 86760, Note_on_c, 1, 50, 127
1, 86790, Note_on_c, 1, 69, 127
1, 86819, Note_off_c, 1, 65, 0
1, 86819, Note_off_c, 1, 74, 0
1, 86819, Note_off_c, 1, 50, 0
1, 86819, Note_off_c, 1, 69, 0
1, 86820, Note_on_c, 1, 65, 127
1, 86820, Note_on_c, 1, 38, 127
1, 86849, Note_off_c, 1, 65, 0
1, 86850, Note_on_c, 1, 62, 127
1, 86879, Note_off_c, 1, 38, 0
1, 86879, Note_off_c, 1, 62, 0
1, 86880, Note_on_c, 1, 57, 127
1, 86880, Note_on_c, 1, 74, 127
1, 86880, Note_on_c, 1, 41, 127
1, 86909, Note_off_c, 1, 57, 0
1, 86910, Note_on_c, 1, 62, 127
1, 86939, Note_off_c, 1, 74, 0
1, 86939, Note_off_c, 1, 41, 0
1, 86939, Note_off_c, 1, 62, 0
1, 86940, Note_on_c, 1, 64, 127
1, 86940, Note_on_c, 1, 73, 127
1, 86940, Note_on_c, 1, 69, 127
1, 86940, Note_on_c, 1, 45, 127
1, 86970, Note_on_c, 1, 67, 127
1, 86999, Note_off_c, 1, 64, 0
1, 86999, Note_off_c, 1, 73, 0
1, 86999, Note_off_c, 1, 69, 0
1, 86999, Note_off_c, 1, 45, 0
1, 86999, Note_off_c, 1, 67, 0
1, 87000, Note_on_c, 1, 64, 127
1, 87000, Note_on_c, 1, 76, 127
1, 87029, Note_off_c, 1, 64, 0
1, 87030, Note_on_c, 1, 61, 127
1, 87059, Note_off_c, 1, 76, 0
1, 87059, Note_off_c, 1, 61, 0
1, 87060, Note_on_c, 1, 57, 127
1, 87060, Note_on_c, 1, 67, 127
1, 87060, Note_on_c, 1, 73, 127
1, 87060, Note_on_c, 1, 64, 127
1, 87090, Note_on_c, 1, 61, 127
1, 87119, Note_off_c, 1, 57, 0
1, 87119, Note_off_c, 1, 67, 0
1, 87119, Note_off_c, 1, 73, 0
1, 87119, Note_off_c, 1, 64, 0
1, 87119, Note_off_c, 1, 61, 0
1, 87120, Note_on_c, 1, 62, 127
1, 87120, Note_on_c, 1, 65, 127
1, 87120, Note_on_c, 1, 74, 127
1, 87120, Note_on_c, 1, 69, 127
1, 87120, Note_on_c, 1, 50, 127
1, 87149, Note_off_c, 1, 62, 0
1, 87179, Note_off_c, 1, 65, 0
1, 87179, Note_off_c, 1, 74, 0
1, 87179, Note_off_c, 1, 69, 0
1, 87179, Note_off_c, 1, 50, 0
1, 87180, Note_on_c, 1, 57, 127
1, 87180, Note_on_c, 1, 64, 127
1, 87209, Note_off_c, 1, 57, 0
1, 87209, Note_off_c, 1, 64, 0
1, 87210, Note_on_c, 1, 62, 127
1, 87239, Note_off_c, 1, 62, 0
1, 87240, Note_on_c, 1, 65, 127
1, 87240, Note_on_c, 1, 72, 127
1, 87240, Note_on_c, 1, 69, 127
1, 87240, Note_on_c, 1, 38, 127
1, 87299, Note_off_c, 1, 65, 0
1, 87299, Note_off_c, 1, 72, 0
1, 87299, Note_off_c, 1, 69, 0
1, 87299, Note_off_c, 1, 38, 0
1, 87300, Note_on_c, 1, 71, 127
1, 87300, Note_on_c, 1, 67, 127
1, 87300, Note_on_c, 1, 62, 127
1, 87300, Note_on_c, 1, 43, 127
1, 87330, Note_on_c, 1, 74, 127
1, 87359, Note_off_c, 1, 71, 0
1, 87359, Note_off_c, 1, 67, 0
1, 87359, Note_off_c, 1, 62, 0
1, 87359, Note_off_c, 1, 43, 0
1, 87359, Note_off_c, 1, 74, 0
1, 87360, Note_on_c, 1, 71, 127
1, 87360, Note_on_c, 1, 74, 127
1, 87389, Note_off_c, 1, 71, 0
1, 87390, Note_on_c, 1, 67, 127
1, 87419, Note_off_c, 1, 74, 0
1, 87419, Note_off_c, 1, 67, 0
1, 87420, Note_on_c, 1, 62, 127
1, 87420, Note_on_c, 1, 65, 127
1, 87420, Note_on_c, 1, 67, 127
1, 87420, Note_on_c, 1, 71, 127
1, 87420, Note_on_c, 1, 47, 127
1, 87449, Note_off_c, 1, 62, 0
1, 87479, Note_off_c, 1, 65, 0
1, 87479, Note_off_c, 1, 67, 0
1, 87479, Note_off_c, 1, 71, 0
1, 87479, Note_off_c, 1, 47, 0
1, 87480, Note_on_c, 1, 64, 127
1, 87480, Note_on_c, 1, 72, 127
1, 87480, Note_on_c, 1, 67, 127
1, 87480, Note_on_c, 1, 48, 127
1, 87539, Note_off_c, 1, 64, 0
1, 87539, Note_off_c, 1, 72, 0
1, 87539, Note_off_c, 1, 67, 0
1, 87539, Note_off_c, 1, 48, 0
1, 87540, Note_on_c, 1, 60, 127
1, 87540, Note_on_c, 1, 62, 127
1, 87569, Note_off_c, 1, 60, 0
1, 87569, Note_off_c, 1, 62, 0
1, 87570, Note_on_c, 1, 64, 127
1, 87570, Note_on_c, 1, 60, 127
1, 87599, Note_off_c, 1, 64, 0
1, 87599, Note_off_c, 1, 60, 0
1, 87600, Note_on_c, 1, 67, 127
1, 87600, Note_on_c, 1, 64, 127
1, 87600, Note_on_c, 1, 70, 127
1, 87600, Note_on_c, 1, 36, 127
1, 87659, Note_off_c, 1, 67, 0
1, 87659, Note_off_c, 1, 64, 0
1, 87659, Note_off_c, 1, 70, 0
1, 87659, Note_off_c, 1, 36, 0
1, 87660, Note_on_c, 1, 69, 127
1, 87660, Note_on_c, 1, 74, 127
1, 87660, Note_on_c, 1, 65, 127
1, 87660, Note_on_c, 1, 62, 127
1, 87660, Note_on_c, 1, 41, 127
1, 87690, Note_on_c, 1, 68, 127
1, 87719, Note_off_c, 1, 69, 0
1, 87719, Note_off_c, 1, 74, 0
1, 87719, Note_off_c, 1, 65, 0
1, 87719, Note_off_c, 1, 62, 0
1, 87719, Note_off_c, 1, 41, 0
1, 87719, Note_off_c, 1, 68, 0
1, 87720, Note_on_c, 1, 69, 127
1, 87720, Note_on_c, 1, 72, 127
1, 87720, Note_on_c, 1, 52, 127
1, 87749, Note_off_c, 1, 69, 0
1, 87750, Note_on_c, 1, 68, 127
1, 87779, Note_off_c, 1, 72, 0
1, 87779, Note_off_c, 1, 52, 0
1, 87779, Note_off_c, 1, 68, 0
1, 87780, Note_on_c, 1, 69, 127
1, 87780, Note_on_c, 1, 71, 127
1, 87780, Note_on_c, 1, 50, 127
1, 87809, Note_off_c, 1, 69, 0
1, 87810, Note_on_c, 1, 77, 127
1, 87839, Note_off_c, 1, 71, 0
1, 87839, Note_off_c, 1, 50, 0
1, 87839, Note_off_c, 1, 77, 0
1, 87840, Note_on_c, 1, 76, 127
1, 87840, Note_on_c, 1, 69, 127
1, 87840, Note_on_c, 1, 48, 127
1, 87870, Note_on_c, 1, 75, 127
1, 87899, Note_off_c, 1, 76, 0
1, 87899, Note_off_c, 1, 69, 0
1, 87899, Note_off_c, 1, 48, 0
1, 87899, Note_off_c, 1, 75, 0
1, 87900, Note_on_c, 1, 76, 127
1, 87900, Note_on_c, 1, 69, 127
1, 87929, Note_off_c, 1, 76, 0
1, 87930, Note_on_c, 1, 75, 127
1, 87959, Note_off_c, 1, 69, 0
1, 87959, Note_off_c, 1, 75, 0
1, 87960, Note_on_c, 1, 76, 127
1, 87960, Note_on_c, 1, 71, 127
1, 87960, Note_on_c, 1, 68, 127
1, 87960, Note_on_c, 1, 47, 127
1, 87989, Note_off_c, 1, 76, 0
1, 87990, Note_on_c, 1, 80, 127
1, 88019, Note_off_c, 1, 71, 0
1, 88019, Note_off_c, 1, 68, 0
1, 88019, Note_off_c, 1, 47, 0
1, 88019, Note_off_c, 1, 80, 0
1, 88020, Note_on_c, 1, 81, 127
1, 88020, Note_on_c, 1, 64, 127
1, 88020, Note_on_c, 1, 69, 127
1, 88020, Note_on_c, 1, 72, 127
1, 88020, Note_on_c, 1, 48, 127
1, 88079, Note_off_c, 1, 81, 0
1, 88079, Note_off_c, 1, 64, 0
1, 88079, Note_off_c, 1, 69, 0
1, 88079, Note_off_c, 1, 72, 0
1, 88079, Note_off_c, 1, 48, 0
1, 88080, Note_on_c, 1, 60, 127
1, 88080, Note_on_c, 1, 72, 127
1, 88080, Note_on_c, 1, 74, 127
1, 88080, Note_on_c, 1, 69, 127
1, 88080, Note_on_c, 1, 50, 127
1, 88109, Note_off_c, 1, 72, 0
1, 88110, Note_on_c, 1, 71, 127
1, 88139, Note_off_c, 1, 60, 0
1, 88139, Note_off_c, 1, 74, 0
1, 88139, Note_off_c, 1, 69, 0
1, 88139, Note_off_c, 1, 50, 0
1, 88139, Note_off_c, 1, 71, 0
1, 88140, Note_on_c, 1, 59, 127
1, 88140, Note_on_c, 1, 69, 127
1, 88140, Note_on_c, 1, 68, 127
1, 88140, Note_on_c, 1, 71, 127
1, 88140, Note_on_c, 1, 52, 127
1, 88150, Note_off_c, 1, 59, 0
1, 88150, Note_on_c, 1, 60, 127
1, 88160, Note_off_c, 1, 60, 0
1, 88169, Note_off_c, 1, 69, 0
1, 88199, Note_off_c, 1, 68, 0
1, 88199, Note_off_c, 1, 71, 0
1, 88199, Note_off_c, 1, 52, 0
1, 88200, Note_on_c, 1, 57, 127
1, 88200, Note_on_c, 1, 64, 127
1, 88200, Note_on_c, 1, 45, 127
1, 88319, Note_off_c, 1, 57, 0
1, 88319, Note_off_c, 1, 64, 0
1, 88319, Note_off_c, 1, 45, 0
1, 88320, Note_on_c, 1, 64, 127
1, 88379, Note_off_c, 1, 64, 0
1, 88380, Note_on_c, 1, 69, 127
1, 88439, Note_off_c, 1, 69, 0
1, 88440, Note_on_c, 1, 72, 127
1, 88499, Note_off_c, 1, 72, 0
1, 88500, Note_on_c, 1, 71, 127
1, 88500, Note_on_c, 1, 68, 127
1, 88500, Note_on_c, 1, 40, 127
1, 88510, Note_off_c, 1, 71, 0
1, 88510, Note_on_c, 1, 72, 127
1, 88520, Note_off_c, 1, 72, 0
1, 88559, Note_off_c, 1, 68, 0
1, 88559, Note_off_c, 1, 40, 0
1, 88560, Note_on_c, 1, 69, 127
1, 88560, Note_on_c, 1, 45, 127
1, 88619, Note_off_c, 1, 69, 0
1, 88619, Note_off_c, 1, 45, 0
1, 88620, Note_on_c, 1, 68, 127
1, 88620, Note_on_c, 1, 47, 127
1, 88679, Note_off_c, 1, 68, 0
1, 88679, Note_off_c, 1, 47, 0
1, 88680, Note_on_c, 1, 69, 127
1, 88680, Note_on_c, 1, 48, 127
1, 88739, Note_off_c, 1, 69, 0
1, 88739, Note_off_c, 1, 48, 0
1, 88740, Note_on_c, 1, 67, 127
1, 88740, Note_on_c, 1, 62, 127
1, 88740, Note_on_c, 1, 65, 127
1, 88740, Note_on_c, 1, 50, 127
1, 88769, Note_off_c, 1, 67, 0
1, 88799, Note_off_c, 1, 62, 0
1, 88799, Note_off_c, 1, 65, 0
1, 88799, Note_off_c, 1, 50, 0
1, 88800, Note_on_c, 1, 64, 127
1, 88800, Note_on_c, 1, 67, 127
1, 88800, Note_on_c, 1, 65, 127
1, 88800, Note_on_c, 1, 55, 127
1, 88829, Note_off_c, 1, 64, 0
1, 88830, Note_on_c, 1, 62, 127
1, 88859, Note_off_c, 1, 67, 0
1, 88859, Note_off_c, 1, 65, 0
1, 88859, Note_off_c, 1, 55, 0
1, 88859, Note_off_c, 1, 62, 0
1, 88860, Note_on_c, 1, 67, 127
1, 88860, Note_on_c, 1, 65, 127
1, 88860, Note_on_c, 1, 62, 127
1, 88860, Note_on_c, 1, 43, 127
1, 88889, Note_off_c, 1, 67, 0
1, 88919, Note_off_c, 1, 65, 0
1, 88919, Note_off_c, 1, 62, 0
1, 88919, Note_off_c, 1, 43, 0
1, 88920, Note_on_c, 1, 64, 127
1, 88920, Note_on_c, 1, 60, 127
1, 88920, Note_on_c, 1, 48, 127
1, 88930, Note_on_c, 1, 65, 127
1, 88940, Note_off_c, 1, 65, 0
1, 88979, Note_off_c, 1, 60, 0
1, 88979, Note_off_c, 1, 48, 0
1, 88980, Note_off_c, 1, 64, 0
1, 88980, Note_on_c, 1, 62, 127
1, 88980, Note_on_c, 1, 52, 127
1, 89009, Note_off_c, 1, 62, 0
1, 89039, Note_off_c, 1, 52, 0
1, 89040, Note_on_c, 1, 72, 127
1, 89040, Note_on_c, 1, 64, 127
1, 89040, Note_on_c, 1, 60, 127
1, 89040, Note_on_c, 1, 45, 127
1, 89099, Note_off_c, 1, 72, 0
1, 89099, Note_off_c, 1, 64, 0
1, 89099, Note_off_c, 1, 60, 0
1, 89099, Note_off_c, 1, 45, 0
1, 89100, Note_on_c, 1, 71, 127
1, 89100, Note_on_c, 1, 65, 127
1, 89100, Note_on_c, 1, 62, 127
1, 89100, Note_on_c, 1, 50, 127
1, 89159, Note_off_c, 1, 71, 0
1, 89159, Note_off_c, 1, 65, 0
1, 89159, Note_off_c, 1, 62, 0
1, 89160, Note_on_c, 1, 72, 127
1, 89189, Note_off_c, 1, 72, 0
1, 89219, Note_off_c, 1, 50, 0
1, 89220, Note_on_c, 1, 69, 127
1, 89220, Note_on_c, 1, 68, 127
1, 89220, Note_on_c, 1, 64, 127
1, 89220, Note_on_c, 1, 52, 127
1, 89249, Note_off_c, 1, 69, 0
1, 89279, Note_off_c, 1, 68, 0
1, 89279, Note_off_c, 1, 64, 0
1, 89279, Note_off_c, 1, 52, 0
1, 89280, Note_on_c, 1, 69, 127
1, 89280, Note_on_c, 1, 64, 127
1, 89280, Note_on_c, 1, 48, 127
1, 89339, Note_off_c, 1, 69, 0
1, 89339, Note_off_c, 1, 64, 0
1, 89339, Note_off_c, 1, 48, 0
1, 89340, Note_on_c, 1, 71, 127
1, 89340, Note_on_c, 1, 50, 127
1, 89369, Note_off_c, 1, 50, 0
1, 89370, Note_on_c, 1, 48, 127
1, 89399, Note_off_c, 1, 71, 0
1, 89399, Note_off_c, 1, 48, 0
1, 89400, Note_on_c, 1, 72, 127
1, 89400, Note_on_c, 1, 47, 127
1, 89429, Note_off_c, 1, 47, 0
1, 89430, Note_on_c, 1, 45, 127
1, 89459, Note_off_c, 1, 72, 0
1, 89459, Note_off_c, 1, 45, 0
1, 89460, Note_on_c, 1, 74, 127
1, 89460, Note_on_c, 1, 62, 127
1, 89460, Note_on_c, 1, 64, 127
1, 89460, Note_on_c, 1, 44, 127
1, 89519, Note_off_c, 1, 74, 0
1, 89519, Note_off_c, 1, 62, 0
1, 89519, Note_off_c, 1, 64, 0
1, 89519, Note_off_c, 1, 44, 0
1, 89520, Note_on_c, 1, 72, 127
1, 89520, Note_on_c, 1, 45, 127
1, 89549, Note_off_c, 1, 72, 0
1, 89549, Note_off_c, 1, 45, 0
1, 89550, Note_on_c, 1, 71, 127
1, 89550, Note_on_c, 1, 44, 127
1, 89579, Note_off_c, 1, 71, 0
1, 89579, Note_off_c, 1, 44, 0
1, 89580, Note_on_c, 1, 72, 127
1, 89580, Note_on_c, 1, 64, 127
1, 89580, Note_on_c, 1, 60, 127
1, 89580, Note_on_c, 1, 45, 127
1, 89639, Note_off_c, 1, 72, 0
1, 89639, Note_off_c, 1, 64, 0
1, 89639, Note_off_c, 1, 60, 0
1, 89639, Note_off_c, 1, 45, 0
1, 89640, Note_on_c, 1, 72, 127
1, 89640, Note_on_c, 1, 64, 127
1, 89640, Note_on_c, 1, 68, 127
1, 89640, Note_on_c, 1, 40, 127
1, 89669, Note_off_c, 1, 72, 0
1, 89670, Note_on_c, 1, 71, 127
1, 89699, Note_off_c, 1, 64, 0
1, 89699, Note_off_c, 1, 68, 0
1, 89699, Note_off_c, 1, 40, 0
1, 89700, Note_on_c, 1, 52, 127
1, 89729, Note_off_c, 1, 71, 0
1, 89759, Note_off_c, 1, 52, 0
1, 89760, Note_on_c, 1, 76, 127
1, 89760, Note_on_c, 1, 62, 127
1, 89760, Note_on_c, 1, 56, 127
1, 89790, Note_on_c, 1, 74, 127
1, 89819, Note_off_c, 1, 76, 0
1, 89819, Note_off_c, 1, 62, 0
1, 89819, Note_off_c, 1, 56, 0
1, 89819, Note_off_c, 1, 74, 0
1, 89820, Note_on_c, 1, 73, 127
1, 89820, Note_on_c, 1, 64, 127
1, 89820, Note_on_c, 1, 57, 127
1, 89850, Note_on_c, 1, 76, 127
1, 89879, Note_off_c, 1, 73, 0
1, 89879, Note_off_c, 1, 64, 0
1, 89879, Note_off_c, 1, 57, 0
1, 89879, Note_off_c, 1, 76, 0
1, 89880, Note_on_c, 1, 73, 127
1, 89880, Note_on_c, 1, 45, 127
1, 89909, Note_off_c, 1, 73, 0
1, 89910, Note_on_c, 1, 69, 127
1, 89939, Note_off_c, 1, 45, 0
1, 89939, Note_off_c, 1, 69, 0
1, 89940, Note_on_c, 1, 64, 127
1, 89940, Note_on_c, 1, 69, 127
1, 89940, Note_on_c, 1, 67, 127
1, 89940, Note_on_c, 1, 49, 127
1, 89969, Note_off_c, 1, 64, 0
1, 89999, Note_off_c, 1, 69, 0
1, 89999, Note_off_c, 1, 67, 0
1, 89999, Note_off_c, 1, 49, 0
1, 90000, Note_on_c, 1, 65, 127
1, 90000, Note_on_c, 1, 69, 127
1, 90000, Note_on_c, 1, 50, 127
1, 90059, Note_off_c, 1, 65, 0
1, 90059, Note_off_c, 1, 69, 0
1, 90059, Note_off_c, 1, 50, 0
1, 90060, Note_on_c, 1, 62, 127
1, 90089, Note_off_c, 1, 62, 0
1, 90090, Note_on_c, 1, 69, 127
1, 90119, Note_off_c, 1, 69, 0
1, 90120, Note_on_c, 1, 74, 127
1, 90120, Note_on_c, 1, 69, 127
1, 90120, Note_on_c, 1, 53, 127
1, 90150, Note_off_c, 1, 74, 0
1, 90150, Note_on_c, 1, 72, 127
1, 90179, Note_off_c, 1, 69, 0
1, 90179, Note_off_c, 1, 53, 0
1, 90180, Note_off_c, 1, 72, 0
1, 90180, Note_on_c, 1, 71, 127
1, 90180, Note_on_c, 1, 67, 127
1, 90180, Note_on_c, 1, 55, 127
1, 90209, Note_off_c, 1, 71, 0
1, 90239, Note_off_c, 1, 67, 0
1, 90239, Note_off_c, 1, 55, 0
1, 90240, Note_on_c, 1, 71, 127
1, 90240, Note_on_c, 1, 43, 127
1, 90269, Note_off_c, 1, 71, 0
1, 90270, Note_on_c, 1, 67, 127
1, 90299, Note_off_c, 1, 43, 0
1, 90299, Note_off_c, 1, 67, 0
1, 90300, Note_on_c, 1, 62, 127
1, 90300, Note_on_c, 1, 67, 127
1, 90300, Note_on_c, 1, 47, 127
1, 90329, Note_off_c, 1, 62, 0
1, 90330, Note_off_c, 1, 67, 0
1, 90330, Note_on_c, 1, 65, 127
1, 90359, Note_off_c, 1, 47, 0
1, 90360, Note_off_c, 1, 65, 0
1, 90360, Note_on_c, 1, 64, 127
1, 90360, Note_on_c, 1, 48, 127
1, 90419, Note_off_c, 1, 64, 0
1, 90419, Note_off_c, 1, 48, 0
1, 90420, Note_on_c, 1, 60, 127
1, 90449, Note_off_c, 1, 60, 0
1, 90450, Note_on_c, 1, 67, 127
1, 90479, Note_off_c, 1, 67, 0
1, 90480, Note_on_c, 1, 72, 127
1, 90480, Note_on_c, 1, 64, 127
1, 90480, Note_on_c, 1, 52, 127
1, 90510, Note_on_c, 1, 71, 127
1, 90539, Note_off_c, 1, 72, 0
1, 90539, Note_off_c, 1, 64, 0
1, 90539, Note_off_c, 1, 52, 0
1, 90539, Note_off_c, 1, 71, 0
1, 90540, Note_on_c, 1, 69, 127
1, 90540, Note_on_c, 1, 72, 127
1, 90540, Note_on_c, 1, 65, 127
1, 90540, Note_on_c, 1, 53, 127
1, 90569, Note_off_c, 1, 69, 0
1, 90570, Note_on_c, 1, 68, 127
1, 90599, Note_off_c, 1, 72, 0
1, 90599, Note_off_c, 1, 65, 0
1, 90599, Note_off_c, 1, 53, 0
1, 90599, Note_off_c, 1, 68, 0
1, 90600, Note_on_c, 1, 69, 127
1, 90600, Note_on_c, 1, 52, 127
1, 90629, Note_off_c, 1, 69, 0
1, 90630, Note_on_c, 1, 68, 127
1, 90659, Note_off_c, 1, 52, 0
1, 90659, Note_off_c, 1, 68, 0
1, 90660, Note_on_c, 1, 69, 127
1, 90660, Note_on_c, 1, 50, 127
1, 90689, Note_off_c, 1, 69, 0
1, 90690, Note_on_c, 1, 77, 127
1, 90690, Note_on_c, 1, 74, 127
1, 90719, Note_off_c, 1, 50, 0
1, 90719, Note_off_c, 1, 77, 0
1, 90719, Note_off_c, 1, 74, 0
1, 90720, Note_on_c, 1, 76, 127
1, 90720, Note_on_c, 1, 72, 127
1, 90720, Note_on_c, 1, 69, 127
1, 90720, Note_on_c, 1, 48, 127
1, 90749, Note_off_c, 1, 76, 0
1, 90749, Note_off_c, 1, 72, 0
1, 90750, Note_on_c, 1, 75, 127
1, 90750, Note_on_c, 1, 71, 127
1, 90779, Note_off_c, 1, 69, 0
1, 90779, Note_off_c, 1, 48, 0
1, 90779, Note_off_c, 1, 75, 0
1, 90779, Note_off_c, 1, 71, 0
1, 90780, Note_on_c, 1, 76, 127
1, 90780, Note_on_c, 1, 72, 127
1, 90780, Note_on_c, 1, 69, 127
1, 90780, Note_on_c, 1, 45, 127
1, 90809, Note_off_c, 1, 76, 0
1, 90809, Note_off_c, 1, 72, 0
1, 90810, Note_on_c, 1, 75, 127
1, 90810, Note_on_c, 1, 71, 127
1, 90839, Note_off_c, 1, 69, 0
1, 90839, Note_off_c, 1, 45, 0
1, 90839, Note_off_c, 1, 75, 0
1, 90839, Note_off_c, 1, 71, 0
1, 90840, Note_on_c, 1, 76, 127
1, 90840, Note_on_c, 1, 72, 127
1, 90840, Note_on_c, 1, 68, 127
1, 90840, Note_on_c, 1, 47, 127
1, 90869, Note_off_c, 1, 76, 0
1, 90869, Note_off_c, 1, 72, 0
1, 90870, Note_on_c, 1, 80, 127
1, 90899, Note_off_c, 1, 68, 0
1, 90899, Note_off_c, 1, 47, 0
1, 90899, Note_off_c, 1, 80, 0
1, 90900, Note_on_c, 1, 81, 127
1, 90900, Note_on_c, 1, 76, 127
1, 90900, Note_on_c, 1, 48, 127
1, 90959, Note_off_c, 1, 81, 0
1, 90959, Note_off_c, 1, 76, 0
1, 90959, Note_off_c, 1, 48, 0
1, 90960, Note_on_c, 1, 60, 127
1, 90960, Note_on_c, 1, 69, 127
1, 90960, Note_on_c, 1, 50, 127
1, 91019, Note_off_c, 1, 60, 0
1, 91019, Note_off_c, 1, 69, 0
1, 91019, Note_off_c, 1, 50, 0
1, 91020, Note_on_c, 1, 59, 127
1, 91020, Note_on_c, 1, 68, 127
1, 91020, Note_on_c, 1, 52, 127
1, 91030, Note_off_c, 1, 59, 0
1, 91030, Note_on_c, 1, 60, 127
1, 91040, Note_off_c, 1, 60, 0
1, 91079, Note_off_c, 1, 68, 0
1, 91079, Note_off_c, 1, 52, 0
1, 91080, Note_on_c, 1, 57, 127
1, 91080, Note_on_c, 1, 69, 127
1, 91080, Note_on_c, 1, 64, 127
1, 91080, Note_on_c, 1, 45, 127
1, 91109, Note_off_c, 1, 45, 0
1, 91110, Note_on_c, 1, 48, 127
1, 91139, Note_off_c, 1, 48, 0
1, 91259, Note_off_c, 1, 57, 0
1, 91259, Note_off_c, 1, 69, 0
1, 91259, Note_off_c, 1, 64, 0
1, 91260, Note_on_c, 1, 45, 127
1, 91320, Note_on_c, 1, 64, 127
1, 91379, Note_off_c, 1, 45, 0
1, 91379, Note_off_c, 1, 64, 0
1, 91380, Note_on_c, 1, 60, 127
1, 91439, Note_off_c, 1, 60, 0
1, 91440, Note_on_c, 1, 67, 127
1, 91500, Note_on_c, 1, 71, 127
1, 91500, Note_on_c, 1, 52, 127
1, 91529, Note_off_c, 1, 52, 0
1, 91530, Note_on_c, 1, 50, 127
1, 91559, Note_off_c, 1, 67, 0
1, 91559, Note_off_c, 1, 50, 0
1, 91560, Note_on_c, 1, 48, 127
1, 91589, Note_off_c, 1, 48, 0
1, 91590, Note_on_c, 1, 47, 127
1, 91619, Note_off_c, 1, 47, 0
1, 91620, Note_off_c, 1, 71, 0
1, 91620, Note_on_c, 1, 45, 127
1, 91649, Note_off_c, 1, 45, 0
1, 91680, Note_on_c, 1, 66, 127
1, 91680, Note_on_c, 1, 69, 127
1, 91740, Note_off_c, 1, 66, 0
1, 91740, Note_off_c, 1, 69, 0
1, 91740, Note_on_c, 1, 62, 127
1, 91770, Note_on_c, 1, 43, 127
1, 91799, Note_off_c, 1, 43, 0
1, 91800, Note_on_c, 1, 42, 127
1, 91829, Note_off_c, 1, 42, 0
1, 91950, Note_on_c, 1, 38, 127
1, 91979, Note_off_c, 1, 38, 0
1, 92340, Note_off_c, 1, 62, 0
1, 92400, Note_on_c, 1, 68, 127
1, 92459, Note_off_c, 1, 68, 0
1, 92520, Note_on_c, 1, 64, 127
1, 92520, Note_on_c, 1, 44, 127
1, 92549, Note_off_c, 1, 44, 0
1, 92670, Note_on_c, 1, 40, 127
1, 92699, Note_off_c, 1, 40, 0
1, 92700, Note_on_c, 1, 72, 127
1, 92880, Note_off_c, 1, 72, 0
1, 93060, Note_off_c, 1, 64, 0
1, 93240, Note_on_c, 1, 51, 127
1, 93299, Note_off_c, 1, 51, 0
1, 93360, Note_on_c, 1, 67, 127
1, 93360, Note_on_c, 1, 64, 127
1, 93360, Note_on_c, 1, 52, 127
1, 93419, Note_off_c, 1, 52, 0
1, 93420, Note_off_c, 1, 67, 0
1, 93420, Note_off_c, 1, 64, 0
1, 93420, Note_on_c, 1, 66, 127
1, 93420, Note_on_c, 1, 57, 127
1, 93449, Note_off_c, 1, 57, 0
1, 93450, Note_on_c, 1, 55, 127
1, 93479, Note_off_c, 1, 55, 0
1, 93480, Note_on_c, 1, 69, 127
1, 93509, Note_off_c, 1, 69, 0
1, 93510, Note_on_c, 1, 63, 127
1, 93510, Note_on_c, 1, 71, 127
1, 93510, Note_on_c, 1, 59, 127
1, 93539, Note_off_c, 1, 63, 0
1, 93539, Note_off_c, 1, 71, 0
1, 93539, Note_off_c, 1, 59, 0
1, 93540, Note_on_c, 1, 60, 127
1, 93569, Note_off_c, 1, 60, 0
1, 93570, Note_on_c, 1, 72, 127
1, 93599, Note_off_c, 1, 72, 0
1, 93600, Note_off_c, 1, 66, 0
1, 93750, Note_on_c, 1, 54, 127
1, 93779, Note_off_c, 1, 54, 0
1, 93840, Note_on_c, 1, 67, 127
1, 93840, Note_on_c, 1, 71, 127
1, 93840, Note_on_c, 1, 64, 127
1, 93840, Note_on_c, 1, 55, 127
1, 93869, Note_off_c, 1, 67, 0
1, 93899, Note_off_c, 1, 71, 0
1, 93899, Note_off_c, 1, 64, 0
1, 93899, Note_off_c, 1, 55, 0
1, 93900, Note_on_c, 1, 63, 127
1, 93900, Note_on_c, 1, 71, 127
1, 93900, Note_on_c, 1, 54, 127
1, 93930, Note_on_c, 1, 66, 127
1, 93959, Note_off_c, 1, 63, 0
1, 93959, Note_off_c, 1, 71, 0
1, 93959, Note_off_c, 1, 54, 0
1, 93959, Note_off_c, 1, 66, 0
1, 93960, Note_on_c, 1, 64, 127
1, 93960, Note_on_c, 1, 71, 127
1, 93960, Note_on_c, 1, 55, 127
1, 93990, Note_on_c, 1, 67, 127
1, 94019, Note_off_c, 1, 64, 0
1, 94019, Note_off_c, 1, 55, 0
1, 94019, Note_off_c, 1, 67, 0
1, 94020, Note_on_c, 1, 66, 127
1, 94020, Note_on_c, 1, 59, 127
1, 94020, Note_on_c, 1, 51, 127
1, 94049, Note_off_c, 1, 66, 0
1, 94050, Note_on_c, 1, 69, 127
1, 94079, Note_off_c, 1, 59, 0
1, 94079, Note_off_c, 1, 51, 0
1, 94079, Note_off_c, 1, 69, 0
1, 94080, Note_on_c, 1, 52, 127
1, 94139, Note_off_c, 1, 52, 0
1, 94140, Note_on_c, 1, 76, 127
1, 94140, Note_on_c, 1, 48, 127
1, 94169, Note_off_c, 1, 76, 0
1, 94170, Note_on_c, 1, 74, 127
1, 94199, Note_off_c, 1, 71, 0
1, 94199, Note_off_c, 1, 48, 0
1, 94199, Note_off_c, 1, 74, 0
1, 94200, Note_on_c, 1, 72, 127
1, 94200, Note_on_c, 1, 69, 127
1, 94200, Note_on_c, 1, 50, 127
1, 94229, Note_off_c, 1, 72, 0
1, 94230, Note_on_c, 1, 71, 127
1, 94230, Note_on_c, 1, 68, 127
1, 94259, Note_off_c, 1, 69, 0
1, 94259, Note_off_c, 1, 50, 0
1, 94259, Note_off_c, 1, 71, 0
1, 94259, Note_off_c, 1, 68, 0
1, 94260, Note_on_c, 1, 69, 127
1, 94260, Note_on_c, 1, 66, 127
1, 94260, Note_on_c, 1, 68, 127
1, 94260, Note_on_c, 1, 52, 127
1, 94289, Note_off_c, 1, 69, 0
1, 94289, Note_off_c, 1, 66, 0
1, 94290, Note_on_c, 1, 64, 127
1, 94319, Note_off_c, 1, 68, 0
1, 94319, Note_off_c, 1, 52, 0
1, 94319, Note_off_c, 1, 64, 0
1, 94320, Note_on_c, 1, 69, 127
1, 94320, Note_on_c, 1, 72, 127
1, 94320, Note_on_c, 1, 45, 127
1, 94350, Note_on_c, 1, 64, 127
1, 94379, Note_off_c, 1, 69, 0
1, 94379, Note_off_c, 1, 45, 0
1, 94379, Note_off_c, 1, 64, 0
1, 94380, Note_on_c, 1, 60, 127
1, 94409, Note_off_c, 1, 72, 0
1, 94409, Note_off_c, 1, 60, 0
1, 94410, Note_on_c, 1, 64, 127
1, 94410, Note_on_c, 1, 71, 127
1, 94410, Note_on_c, 1, 57, 127
1, 94439, Note_off_c, 1, 64, 0
1, 94439, Note_off_c, 1, 71, 0
1, 94439, Note_off_c, 1, 57, 0
1, 94440, Note_on_c, 1, 69, 127
1, 94440, Note_on_c, 1, 72, 127
1, 94440, Note_on_c, 1, 64, 127
1, 94440, Note_on_c, 1, 54, 127
1, 94469, Note_off_c, 1, 54, 0
1, 94470, Note_on_c, 1, 67, 127
1, 94470, Note_on_c, 1, 52, 127
1, 94499, Note_off_c, 1, 69, 0
1, 94499, Note_off_c, 1, 72, 0
1, 94499, Note_off_c, 1, 64, 0
1, 94499, Note_off_c, 1, 67, 0
1, 94499, Note_off_c, 1, 52, 0
1, 94500, Note_on_c, 1, 66, 127
1, 94500, Note_on_c, 1, 69, 127
1, 94500, Note_on_c, 1, 50, 127
1, 94559, Note_off_c, 1, 66, 0
1, 94559, Note_off_c, 1, 50, 0
1, 94560, Note_on_c, 1, 62, 127
1, 94560, Note_on_c, 1, 54, 127
1, 94619, Note_off_c, 1, 62, 0
1, 94619, Note_off_c, 1, 54, 0
1, 94620, Note_on_c, 1, 61, 127
1, 94620, Note_on_c, 1, 52, 127
1, 94650, Note_on_c, 1, 64, 127
1, 94679, Note_off_c, 1, 61, 0
1, 94679, Note_off_c, 1, 52, 0
1, 94679, Note_off_c, 1, 64, 0
1, 94740, Note_on_c, 1, 67, 127
1, 94740, Note_on_c, 1, 49, 127
1, 94799, Note_off_c, 1, 67, 0
1, 94799, Note_off_c, 1, 49, 0
1, 94860, Note_on_c, 1, 74, 127
1, 94860, Note_on_c, 1, 47, 127
1, 94889, Note_off_c, 1, 74, 0
1, 94890, Note_on_c, 1, 72, 127
1, 94919, Note_off_c, 1, 47, 0
1, 94919, Note_off_c, 1, 72, 0
1, 94920, Note_on_c, 1, 71, 127
1, 94920, Note_on_c, 1, 48, 127
1, 94949, Note_off_c, 1, 71, 0
1, 94979, Note_off_c, 1, 69, 0
1, 94979, Note_off_c, 1, 48, 0
1, 94980, Note_on_c, 1, 67, 127
1, 94980, Note_on_c, 1, 64, 127
1, 94980, Note_on_c, 1, 66, 127
1, 94980, Note_on_c, 1, 50, 127
1, 95009, Note_off_c, 1, 67, 0
1, 95009, Note_off_c, 1, 64, 0
1, 95010, Note_on_c, 1, 62, 127
1, 95039, Note_off_c, 1, 66, 0
1, 95039, Note_off_c, 1, 50, 0
1, 95039, Note_off_c, 1, 62, 0
1, 95040, Note_on_c, 1, 67, 127
1, 95040, Note_on_c, 1, 71, 127
1, 95040, Note_on_c, 1, 43, 127
1, 95070, Note_on_c, 1, 62, 127
1, 95099, Note_off_c, 1, 67, 0
1, 95099, Note_off_c, 1, 71, 0
1, 95099, Note_off_c, 1, 43, 0
1, 95099, Note_off_c, 1, 62, 0
1, 95100, Note_on_c, 1, 59, 127
1, 95100, Note_on_c, 1, 69, 127
1, 95100, Note_on_c, 1, 42, 127
1, 95129, Note_off_c, 1, 59, 0
1, 95130, Note_on_c, 1, 62, 127
1, 95130, Note_on_c, 1, 67, 127
1, 95159, Note_off_c, 1, 69, 0
1, 95159, Note_off_c, 1, 42, 0
1, 95159, Note_off_c, 1, 62, 0
1, 95159, Note_off_c, 1, 67, 0
1, 95160, Note_on_c, 1, 67, 127
1, 95160, Note_on_c, 1, 69, 127
1, 95160, Note_on_c, 1, 71, 127
1, 95160, Note_on_c, 1, 40, 127
1, 95189, Note_off_c, 1, 69, 0
1, 95219, Note_off_c, 1, 67, 0
1, 95219, Note_off_c, 1, 71, 0
1, 95219, Note_off_c, 1, 40, 0
1, 95220, Note_on_c, 1, 72, 127
1, 95220, Note_on_c, 1, 67, 127
1, 95220, Note_on_c, 1, 45, 127
1, 95249, Note_off_c, 1, 72, 0
1, 95250, Note_on_c, 1, 71, 127
1, 95279, Note_off_c, 1, 67, 0
1, 95279, Note_off_c, 1, 45, 0
1, 95279, Note_off_c, 1, 71, 0
1, 95280, Note_on_c, 1, 69, 127
1, 95280, Note_on_c, 1, 65, 127
1, 95280, Note_on_c, 1, 47, 127
1, 95309, Note_off_c, 1, 69, 0
1, 95310, Note_on_c, 1, 67, 127
1, 95339, Note_off_c, 1, 65, 0
1, 95339, Note_off_c, 1, 47, 0
1, 95339, Note_off_c, 1, 67, 0
1, 95340, Note_on_c, 1, 66, 127
1, 95340, Note_on_c, 1, 64, 127
1, 95340, Note_on_c, 1, 48, 127
1, 95369, Note_off_c, 1, 66, 0
1, 95399, Note_off_c, 1, 64, 0
1, 95399, Note_off_c, 1, 48, 0
1, 95400, Note_on_c, 1, 63, 127
1, 95400, Note_on_c, 1, 69, 127
1, 95400, Note_on_c, 1, 47, 127
1, 95430, Note_on_c, 1, 64, 127
1, 95459, Note_off_c, 1, 47, 0
1, 95459, Note_off_c, 1, 64, 0
1, 95460, Note_on_c, 1, 66, 127
1, 95460, Note_on_c, 1, 51, 127
1, 95489, Note_off_c, 1, 66, 0
1, 95490, Note_on_c, 1, 67, 127
1, 95519, Note_off_c, 1, 51, 0
1, 95519, Note_off_c, 1, 67, 0
1, 95580, Note_off_c, 1, 63, 0
1, 95580, Note_off_c, 1, 69, 0
1, 95580, Note_on_c, 1, 52, 127
1, 95639, Note_off_c, 1, 52, 0
1, 95640, Note_on_c, 1, 64, 127
1, 95640, Note_on_c, 1, 67, 127
1, 95640, Note_on_c, 1, 45, 127
1, 95699, Note_off_c, 1, 64, 0
1, 95699, Note_off_c, 1, 67, 0
1, 95699, Note_off_c, 1, 45, 0
1, 95700, Note_on_c, 1, 63, 127
1, 95700, Note_on_c, 1, 69, 127
1, 95700, Note_on_c, 1, 47, 127
1, 95759, Note_off_c, 1, 63, 0
1, 95759, Note_off_c, 1, 69, 0
1, 95759, Note_off_c, 1, 47, 0
1, 95760, Note_on_c, 1, 64, 127
1, 95760, Note_on_c, 1, 67, 127
1, 95760, Note_on_c, 1, 52, 127
1, 95789, Note_off_c, 1, 52, 0
1, 95790, Note_on_c, 1, 54, 127
1, 95819, Note_off_c, 1, 54, 0
1, 95820, Note_on_c, 1, 55, 127
1, 95849, Note_off_c, 1, 55, 0
1, 95850, Note_on_c, 1, 57, 127
1, 95879, Note_off_c, 1, 57, 0
1, 95880, Note_on_c, 1, 59, 127
1, 95939, Note_off_c, 1, 59, 0
1, 95940, Note_off_c, 1, 67, 0
1, 95999, Note_off_c, 1, 64, 0
1, 96000, Note_on_c, 1, 67, 127
1, 96000, Note_on_c, 1, 64, 127
1, 96000, Note_on_c, 1, 52, 127
1, 96059, Note_off_c, 1, 52, 0
1, 96060, Note_off_c, 1, 67, 0
1, 96060, Note_off_c, 1, 64, 0
1, 96060, Note_on_c, 1, 66, 127
1, 96060, Note_on_c, 1, 62, 127
1, 96060, Note_on_c, 1, 47, 127
1, 96119, Note_off_c, 1, 47, 0
1, 96120, Note_off_c, 1, 66, 0
1, 96120, Note_off_c, 1, 62, 0
1, 96180, Note_on_c, 1, 63, 127
1, 96180, Note_on_c, 1, 54, 127
1, 96239, Note_off_c, 1, 54, 0
1, 96240, Note_off_c, 1, 63, 0
1, 96240, Note_on_c, 1, 55, 127
1, 96299, Note_off_c, 1, 55, 0
1, 96300, Note_on_c, 1, 45, 127
1, 96330, Note_on_c, 1, 60, 127
1, 96359, Note_off_c, 1, 45, 0
1, 96359, Note_off_c, 1, 60, 0
1, 96360, Note_on_c, 1, 59, 127
1, 96360, Note_on_c, 1, 69, 127
1, 96360, Note_on_c, 1, 50, 127
1, 96389, Note_off_c, 1, 59, 0
1, 96390, Note_on_c, 1, 57, 127
1, 96419, Note_off_c, 1, 50, 0
1, 96419, Note_off_c, 1, 57, 0
1, 96420, Note_off_c, 1, 69, 0
1, 96420, Note_on_c, 1, 38, 127
1, 96479, Note_off_c, 1, 38, 0
1, 96480, Note_on_c, 1, 43, 127
1, 96539, Note_off_c, 1, 43, 0
1, 96600, Note_on_c, 1, 71, 127
1, 96660, Note_off_c, 1, 71, 0
1, 96780, Note_on_c, 1, 64, 127
1, 96780, Note_on_c, 1, 63, 127
1, 96780, Note_on_c, 1, 66, 127
1, 96780, Note_on_c, 1, 59, 127
1, 96809, Note_off_c, 1, 64, 0
1, 96839, Note_off_c, 1, 63, 0
1, 96839, Note_off_c, 1, 66, 0
1, 96839, Note_off_c, 1, 59, 0
1, 96840, Note_on_c, 1, 64, 127
1, 96840, Note_on_c, 1, 67, 127
1, 96840, Note_on_c, 1, 55, 127
1, 96899, Note_off_c, 1, 64, 0
1, 96899, Note_off_c, 1, 67, 0
1, 96899, Note_off_c, 1, 55, 0
1, 96900, Note_on_c, 1, 66, 127
1, 96900, Note_on_c, 1, 57, 127
1, 96929, Note_off_c, 1, 57, 0
1, 96930, Note_on_c, 1, 55, 127
1, 96959, Note_off_c, 1, 66, 0
1, 96959, Note_off_c, 1, 55, 0
1, 96960, Note_on_c, 1, 67, 127
1, 96960, Note_on_c, 1, 54, 127
1, 96989, Note_off_c, 1, 54, 0
1, 96990, Note_on_c, 1, 52, 127
1, 97019, Note_off_c, 1, 67, 0
1, 97019, Note_off_c, 1, 52, 0
1, 97020, Note_on_c, 1, 69, 127
1, 97020, Note_on_c, 1, 71, 127
1, 97020, Note_on_c, 1, 51, 127
1, 97079, Note_off_c, 1, 69, 0
1, 97079, Note_off_c, 1, 71, 0
1, 97079, Note_off_c, 1, 51, 0
1, 97080, Note_on_c, 1, 67, 127
1, 97080, Note_on_c, 1, 71, 127
1, 97080, Note_on_c, 1, 52, 127
1, 97110, Note_on_c, 1, 66, 127
1, 97139, Note_off_c, 1, 67, 0
1, 97139, Note_off_c, 1, 71, 0
1, 97139, Note_off_c, 1, 52, 0
1, 97139, Note_off_c, 1, 66, 0
1, 97140, Note_on_c, 1, 67, 127
1, 97140, Note_on_c, 1, 64, 127
1, 97140, Note_on_c, 1, 40, 127
1, 97199, Note_off_c, 1, 67, 0
1, 97199, Note_off_c, 1, 64, 0
1, 97199, Note_off_c, 1, 40, 0
1, 97200, Note_on_c, 1, 66, 127
1, 97200, Note_on_c, 1, 63, 127
1, 97200, Note_on_c, 1, 47, 127
1, 97259, Note_off_c, 1, 63, 0
1, 97259, Note_off_c, 1, 47, 0
1, 97260, Note_on_c, 1, 59, 127
1, 97289, Note_off_c, 1, 66, 0
1, 97290, Note_on_c, 1, 78, 127
1, 97319, Note_off_c, 1, 59, 0
1, 97319, Note_off_c, 1, 78, 0
1, 97320, Note_on_c, 1, 83, 127
1, 97320, Note_on_c, 1, 71, 127
1, 97320, Note_on_c, 1, 69, 127
1, 97320, Note_on_c, 1, 51, 127
1, 97349, Note_off_c, 1, 83, 0
1, 97350, Note_on_c, 1, 81, 127
1, 97379, Note_off_c, 1, 71, 0
1, 97379, Note_off_c, 1, 69, 0
1, 97379, Note_off_c, 1, 51, 0
1, 97379, Note_off_c, 1, 81, 0
1, 97380, Note_on_c, 1, 80, 127
1, 97380, Note_on_c, 1, 71, 127
1, 97380, Note_on_c, 1, 68, 127
1, 97380, Note_on_c, 1, 52, 127
1, 97409, Note_off_c, 1, 80, 0
1, 97410, Note_on_c, 1, 83, 127
1, 97439, Note_off_c, 1, 71, 0
1, 97439, Note_off_c, 1, 68, 0
1, 97439, Note_off_c, 1, 52, 0
1, 97439, Note_off_c, 1, 83, 0
1, 97440, Note_on_c, 1, 80, 127
1, 97440, Note_on_c, 1, 71, 127
1, 97469, Note_off_c, 1, 80, 0
1, 97470, Note_on_c, 1, 76, 127
1, 97499, Note_off_c, 1, 71, 0
1, 97499, Note_off_c, 1, 76, 0
1, 97500, Note_on_c, 1, 71, 127
1, 97500, Note_on_c, 1, 68, 127
1, 97529, Note_off_c, 1, 71, 0
1, 97530, Note_on_c, 1, 74, 127
1, 97559, Note_off_c, 1, 68, 0
1, 97559, Note_off_c, 1, 74, 0
1, 97560, Note_on_c, 1, 72, 127
1, 97560, Note_on_c, 1, 69, 127
1, 97589, Note_off_c, 1, 72, 0
1, 97590, Note_on_c, 1, 76, 127
1, 97619, Note_off_c, 1, 69, 0
1, 97619, Note_off_c, 1, 76, 0
1, 97620, Note_on_c, 1, 69, 127
1, 97620, Note_on_c, 1, 72, 127
1, 97620, Note_on_c, 1, 57, 127
1, 97650, Note_on_c, 1, 76, 127
1, 97650, Note_on_c, 1, 71, 127
1, 97679, Note_off_c, 1, 69, 0
1, 97679, Note_off_c, 1, 72, 0
1, 97679, Note_off_c, 1, 57, 0
1, 97679, Note_off_c, 1, 76, 0
1, 97679, Note_off_c, 1, 71, 0
1, 97680, Note_on_c, 1, 81, 127
1, 97680, Note_on_c, 1, 69, 127
1, 97680, Note_on_c, 1, 48, 127
1, 97709, Note_off_c, 1, 81, 0
1, 97710, Note_on_c, 1, 79, 127
1, 97710, Note_on_c, 1, 67, 127
1, 97739, Note_off_c, 1, 69, 0
1, 97739, Note_off_c, 1, 48, 0
1, 97739, Note_off_c, 1, 79, 0
1, 97740, Note_off_c, 1, 67, 0
1, 97740, Note_on_c, 1, 78, 127
1, 97740, Note_on_c, 1, 66, 127
1, 97740, Note_on_c, 1, 50, 127
1, 97769, Note_off_c, 1, 78, 0
1, 97799, Note_off_c, 1, 66, 0
1, 97799, Note_off_c, 1, 50, 0
1, 97800, Note_on_c, 1, 78, 127
1, 97800, Note_on_c, 1, 69, 127
1, 97829, Note_off_c, 1, 78, 0
1, 97830, Note_on_c, 1, 74, 127
1, 97859, Note_off_c, 1, 69, 0
1, 97859, Note_off_c, 1, 74, 0
1, 97860, Note_on_c, 1, 69, 127
1, 97860, Note_on_c, 1, 66, 127
1, 97889, Note_off_c, 1, 69, 0
1, 97890, Note_on_c, 1, 72, 127
1, 97919, Note_off_c, 1, 66, 0
1, 97919, Note_off_c, 1, 72, 0
1, 97920, Note_on_c, 1, 71, 127
1, 97920, Note_on_c, 1, 67, 127
1, 97949, Note_off_c, 1, 71, 0
1, 97950, Note_on_c, 1, 74, 127
1, 97979, Note_off_c, 1, 67, 0
1, 97979, Note_off_c, 1, 74, 0
1, 97980, Note_on_c, 1, 67, 127
1, 97980, Note_on_c, 1, 62, 127
1, 97980, Note_on_c, 1, 47, 127
1, 98009, Note_off_c, 1, 67, 0
1, 98010, Note_on_c, 1, 74, 127
1, 98039, Note_off_c, 1, 62, 0
1, 98039, Note_off_c, 1, 47, 0
1, 98039, Note_off_c, 1, 74, 0
1, 98040, Note_on_c, 1, 79, 127
1, 98040, Note_on_c, 1, 71, 127
1, 98040, Note_on_c, 1, 67, 127
1, 98040, Note_on_c, 1, 43, 127
1, 98069, Note_off_c, 1, 79, 0
1, 98069, Note_off_c, 1, 67, 0
1, 98070, Note_on_c, 1, 78, 127
1, 98070, Note_on_c, 1, 66, 127
1, 98099, Note_off_c, 1, 43, 0
1, 98099, Note_off_c, 1, 78, 0
1, 98099, Note_off_c, 1, 66, 0
1, 98100, Note_on_c, 1, 76, 127
1, 98100, Note_on_c, 1, 64, 127
1, 98100, Note_on_c, 1, 48, 127
1, 98129, Note_off_c, 1, 76, 0
1, 98159, Note_off_c, 1, 71, 0
1, 98159, Note_off_c, 1, 64, 0
1, 98159, Note_off_c, 1, 48, 0
1, 98160, Note_on_c, 1, 76, 127
1, 98160, Note_on_c, 1, 69, 127
1, 98189, Note_off_c, 1, 76, 0
1, 98189, Note_off_c, 1, 69, 0
1, 98190, Note_on_c, 1, 72, 127
1, 98190, Note_on_c, 1, 67, 127
1, 98219, Note_off_c, 1, 72, 0
1, 98219, Note_off_c, 1, 67, 0
1, 98220, Note_on_c, 1, 67, 127
1, 98220, Note_on_c, 1, 66, 127
1, 98249, Note_off_c, 1, 67, 0
1, 98249, Note_off_c, 1, 66, 0
1, 98250, Note_on_c, 1, 71, 127
1, 98250, Note_on_c, 1, 64, 127
1, 98279, Note_off_c, 1, 71, 0
1, 98279, Note_off_c, 1, 64, 0
1, 98280, Note_on_c, 1, 69, 127
1, 98280, Note_on_c, 1, 64, 127
1, 98309, Note_off_c, 1, 69, 0
1, 98309, Note_off_c, 1, 64, 0
1, 98310, Note_on_c, 1, 72, 127
1, 98310, Note_on_c, 1, 63, 127
1, 98339, Note_off_c, 1, 72, 0
1, 98339, Note_off_c, 1, 63, 0
1, 98340, Note_on_c, 1, 66, 127
1, 98340, Note_on_c, 1, 69, 127
1, 98340, Note_on_c, 1, 64, 127
1, 98340, Note_on_c, 1, 45, 127
1, 98399, Note_off_c, 1, 66, 0
1, 98399, Note_off_c, 1, 64, 0
1, 98399, Note_off_c, 1, 45, 0
1, 98400, Note_on_c, 1, 78, 127
1, 98400, Note_on_c, 1, 42, 127
1, 98429, Note_off_c, 1, 78, 0
1, 98430, Note_on_c, 1, 76, 127
1, 98459, Note_off_c, 1, 42, 0
1, 98459, Note_off_c, 1, 76, 0
1, 98460, Note_on_c, 1, 75, 127
1, 98460, Note_on_c, 1, 63, 127
1, 98460, Note_on_c, 1, 47, 127
1, 98489, Note_off_c, 1, 75, 0
1, 98519, Note_off_c, 1, 69, 0
1, 98519, Note_off_c, 1, 63, 0
1, 98519, Note_off_c, 1, 47, 0
1, 98520, Note_on_c, 1, 75, 127
1, 98520, Note_on_c, 1, 71, 127
1, 98534, Note_off_c, 1, 71, 0
1, 98535, Note_on_c, 1, 69, 127
1, 98549, Note_off_c, 1, 75, 0
1, 98549, Note_off_c, 1, 69, 0
1, 98550, Note_on_c, 1, 71, 127
1, 98550, Note_on_c, 1, 67, 127
1, 98579, Note_off_c, 1, 71, 0
1, 98579, Note_off_c, 1, 67, 0
1, 98580, Note_on_c, 1, 66, 127
1, 98580, Note_on_c, 1, 69, 127
1, 98594, Note_off_c, 1, 69, 0
1, 98595, Note_on_c, 1, 67, 127
1, 98609, Note_off_c, 1, 66, 0
1, 98609, Note_off_c, 1, 67, 0
1, 98610, Note_on_c, 1, 69, 127
1, 98610, Note_on_c, 1, 66, 127
1, 98639, Note_off_c, 1, 69, 0
1, 98639, Note_off_c, 1, 66, 0
1, 98640, Note_on_c, 1, 67, 127
1, 98670, Note_on_c, 1, 71, 127
1, 98699, Note_off_c, 1, 71, 0
1, 98700, Note_on_c, 1, 64, 127
1, 98700, Note_on_c, 1, 43, 127
1, 98759, Note_off_c, 1, 64, 0
1, 98759, Note_off_c, 1, 43, 0
1, 98760, Note_on_c, 1, 76, 127
1, 98760, Note_on_c, 1, 62, 127
1, 98760, Note_on_c, 1, 40, 127
1, 98789, Note_off_c, 1, 76, 0
1, 98790, Note_on_c, 1, 74, 127
1, 98819, Note_off_c, 1, 62, 0
1, 98819, Note_off_c, 1, 40, 0
1, 98819, Note_off_c, 1, 74, 0
1, 98820, Note_on_c, 1, 73, 127
1, 98820, Note_on_c, 1, 61, 127
1, 98820, Note_on_c, 1, 45, 127
1, 98849, Note_off_c, 1, 73, 0
1, 98879, Note_off_c, 1, 61, 0
1, 98879, Note_off_c, 1, 45, 0
1, 98880, Note_off_c, 1, 67, 0
1, 98880, Note_on_c, 1, 69, 127
1, 98894, Note_off_c, 1, 69, 0
1, 98910, Note_on_c, 1, 69, 127
1, 98910, Note_on_c, 1, 65, 127
1, 98939, Note_off_c, 1, 69, 0
1, 98939, Note_off_c, 1, 65, 0
1, 98940, Note_on_c, 1, 64, 127
1, 98940, Note_on_c, 1, 67, 127
1, 98954, Note_off_c, 1, 67, 0
1, 98955, Note_on_c, 1, 65, 127
1, 98969, Note_off_c, 1, 64, 0
1, 98969, Note_off_c, 1, 65, 0
1, 98970, Note_on_c, 1, 67, 127
1, 98970, Note_on_c, 1, 64, 127
1, 98999, Note_off_c, 1, 67, 0
1, 98999, Note_off_c, 1, 64, 0
1, 99000, Note_on_c, 1, 65, 127
1, 99029, Note_off_c, 1, 65, 0
1, 99030, Note_on_c, 1, 69, 127
1, 99030, Note_on_c, 1, 64, 127
1, 99059, Note_off_c, 1, 69, 0
1, 99059, Note_off_c, 1, 64, 0
1, 99060, Note_on_c, 1, 62, 127
1, 99060, Note_on_c, 1, 65, 127
1, 99060, Note_on_c, 1, 69, 127
1, 99060, Note_on_c, 1, 38, 127
1, 99089, Note_off_c, 1, 62, 0
1, 99119, Note_off_c, 1, 65, 0
1, 99119, Note_off_c, 1, 69, 0
1, 99119, Note_off_c, 1, 38, 0
1, 99120, Note_on_c, 1, 74, 127
1, 99120, Note_on_c, 1, 65, 127
1, 99120, Note_on_c, 1, 69, 127
1, 99120, Note_on_c, 1, 62, 127
1, 99120, Note_on_c, 1, 50, 127
1, 99149, Note_off_c, 1, 74, 0
1, 99149, Note_off_c, 1, 65, 0
1, 99150, Note_on_c, 1, 72, 127
1, 99179, Note_off_c, 1, 69, 0
1, 99179, Note_off_c, 1, 62, 0
1, 99179, Note_off_c, 1, 72, 0
1, 99180, Note_on_c, 1, 71, 127
1, 99239, Note_off_c, 1, 50, 0
1, 99239, Note_off_c, 1, 71, 0
1, 99240, Note_on_c, 1, 71, 127
1, 99240, Note_on_c, 1, 67, 127
1, 99240, Note_on_c, 1, 52, 127
1, 99269, Note_off_c, 1, 71, 0
1, 99269, Note_off_c, 1, 67, 0
1, 99299, Note_off_c, 1, 52, 0
1, 99300, Note_on_c, 1, 62, 127
1, 99300, Note_on_c, 1, 69, 127
1, 99300, Note_on_c, 1, 67, 127
1, 99300, Note_on_c, 1, 71, 127
1, 99300, Note_on_c, 1, 53, 127
1, 99329, Note_off_c, 1, 62, 0
1, 99329, Note_off_c, 1, 69, 0
1, 99359, Note_off_c, 1, 67, 0
1, 99359, Note_off_c, 1, 71, 0
1, 99359, Note_off_c, 1, 53, 0
1, 99360, Note_on_c, 1, 55, 127
1, 99360, Note_on_c, 1, 72, 127
1, 99360, Note_on_c, 1, 67, 127
1, 99360, Note_on_c, 1, 52, 127
1, 99389, Note_off_c, 1, 52, 0
1, 99419, Note_off_c, 1, 55, 0
1, 99420, Note_on_c, 1, 60, 127
1, 99420, Note_on_c, 1, 53, 127
1, 99449, Note_off_c, 1, 53, 0
1, 99479, Note_off_c, 1, 60, 0
1, 99480, Note_on_c, 1, 50, 127
1, 99509, Note_off_c, 1, 50, 0
1, 99510, Note_on_c, 1, 48, 127
1, 99539, Note_off_c, 1, 48, 0
1, 99540, Note_off_c, 1, 67, 0
1, 99540, Note_on_c, 1, 62, 127
1, 99570, Note_on_c, 1, 64, 127
1, 99599, Note_off_c, 1, 64, 0
1, 99600, Note_on_c, 1, 74, 127
1, 99600, Note_on_c, 1, 65, 127
1, 99629, Note_off_c, 1, 74, 0
1, 99629, Note_off_c, 1, 65, 0
1, 99630, Note_on_c, 1, 76, 127
1, 99659, Note_off_c, 1, 76, 0
1, 99660, Note_on_c, 1, 77, 127
1, 99660, Note_on_c, 1, 69, 127
1, 99689, Note_off_c, 1, 69, 0
1, 99690, Note_on_c, 1, 71, 127
1, 99719, Note_off_c, 1, 71, 0
1, 99720, Note_off_c, 1, 62, 0
1, 99749, Note_off_c, 1, 72, 0
1, 99779, Note_off_c, 1, 77, 0
1, 99900, Note_on_c, 1, 57, 127
1, 99959, Note_off_c, 1, 57, 0
1, 100200, Note_on_c, 1, 64, 127
1, 100259, Note_off_c, 1, 64, 0
1, 100260, Note_on_c, 1, 69, 127
1, 100319, Note_off_c, 1, 69, 0
1, 100320, Note_on_c, 1, 72, 127
1, 100379, Note_off_c, 1, 72, 0
1, 100380, Note_on_c, 1, 71, 127
1, 100380, Note_on_c, 1, 68, 127
1, 100380, Note_on_c, 1, 40, 127
1, 100390, Note_off_c, 1, 71, 0
1, 100390, Note_on_c, 1, 72, 127
1, 100400, Note_off_c, 1, 72, 0
1, 100439, Note_off_c, 1, 68, 0
1, 100439, Note_off_c, 1, 40, 0
1, 100440, Note_on_c, 1, 69, 127
1, 100440, Note_on_c, 1, 45, 127
1, 100499, Note_off_c, 1, 69, 0
1, 100499, Note_off_c, 1, 45, 0
1, 100500, Note_on_c, 1, 68, 127
1, 100500, Note_on_c, 1, 47, 127
1, 100559, Note_off_c, 1, 68, 0
1, 100559, Note_off_c, 1, 47, 0
1, 100560, Note_on_c, 1, 69, 127
1, 100560, Note_on_c, 1, 48, 127
1, 100619, Note_off_c, 1, 69, 0
1, 100619, Note_off_c, 1, 48, 0
1, 100620, Note_on_c, 1, 67, 127
1, 100620, Note_on_c, 1, 62, 127
1, 100620, Note_on_c, 1, 65, 127
1, 100620, Note_on_c, 1, 50, 127
1, 100649, Note_off_c, 1, 67, 0
1, 100679, Note_off_c, 1, 62, 0
1, 100679, Note_off_c, 1, 65, 0
1, 100679, Note_off_c, 1, 50, 0
1, 100680, Note_on_c, 1, 64, 127
1, 100680, Note_on_c, 1, 67, 127
1, 100680, Note_on_c, 1, 65, 127
1, 100680, Note_on_c, 1, 47, 127
1, 100709, Note_off_c, 1, 64, 0
1, 100710, Note_on_c, 1, 62, 127
1, 100739, Note_off_c, 1, 67, 0
1, 100739, Note_off_c, 1, 65, 0
1, 100739, Note_off_c, 1, 47, 0
1, 100739, Note_off_c, 1, 62, 0
1, 100740, Note_on_c, 1, 67, 127
1, 100740, Note_on_c, 1, 65, 127
1, 100740, Note_on_c, 1, 62, 127
1, 100740, Note_on_c, 1, 43, 127
1, 100769, Note_off_c, 1, 67, 0
1, 100799, Note_off_c, 1, 65, 0
1, 100799, Note_off_c, 1, 62, 0
1, 100799, Note_off_c, 1, 43, 0
1, 100800, Note_on_c, 1, 64, 127
1, 100800, Note_on_c, 1, 60, 127
1, 100800, Note_on_c, 1, 48, 127
1, 100810, Note_on_c, 1, 65, 127
1, 100820, Note_off_c, 1, 65, 0
1, 100859, Note_off_c, 1, 60, 0
1, 100859, Note_off_c, 1, 48, 0
1, 100860, Note_off_c, 1, 64, 0
1, 100860, Note_on_c, 1, 62, 127
1, 100860, Note_on_c, 1, 52, 127
1, 100889, Note_off_c, 1, 62, 0
1, 100919, Note_off_c, 1, 52, 0
1, 100920, Note_on_c, 1, 72, 127
1, 100920, Note_on_c, 1, 64, 127
1, 100920, Note_on_c, 1, 60, 127
1, 100920, Note_on_c, 1, 45, 127
1, 100979, Note_off_c, 1, 72, 0
1, 100979, Note_off_c, 1, 64, 0
1, 100979, Note_off_c, 1, 60, 0
1, 100979, Note_off_c, 1, 45, 0
1, 100980, Note_on_c, 1, 71, 127
1, 100980, Note_on_c, 1, 65, 127
1, 100980, Note_on_c, 1, 62, 127
1, 100980, Note_on_c, 1, 50, 127
1, 101039, Note_off_c, 1, 71, 0
1, 101039, Note_off_c, 1, 65, 0
1, 101039, Note_off_c, 1, 62, 0
1, 101040, Note_on_c, 1, 72, 127
1, 101069, Note_off_c, 1, 72, 0
1, 101099, Note_off_c, 1, 50, 0
1, 101100, Note_on_c, 1, 69, 127
1, 101100, Note_on_c, 1, 68, 127
1, 101100, Note_on_c, 1, 64, 127
1, 101100, Note_on_c, 1, 52, 127
1, 101129, Note_off_c, 1, 69, 0
1, 101159, Note_off_c, 1, 68, 0
1, 101159, Note_off_c, 1, 64, 0
1, 101159, Note_off_c, 1, 52, 0
1, 101160, Note_on_c, 1, 69, 127
1, 101160, Note_on_c, 1, 64, 127
1, 101160, Note_on_c, 1, 48, 127
1, 101219, Note_off_c, 1, 69, 0
1, 101219, Note_off_c, 1, 64, 0
1, 101219, Note_off_c, 1, 48, 0
1, 101220, Note_on_c, 1, 71, 127
1, 101220, Note_on_c, 1, 50, 127
1, 101249, Note_off_c, 1, 50, 0
1, 101250, Note_on_c, 1, 48, 127
1, 101279, Note_off_c, 1, 71, 0
1, 101279, Note_off_c, 1, 48, 0
1, 101280, Note_on_c, 1, 72, 127
1, 101280, Note_on_c, 1, 47, 127
1, 101309, Note_off_c, 1, 47, 0
1, 101310, Note_on_c, 1, 45, 127
1, 101339, Note_off_c, 1, 72, 0
1, 101339, Note_off_c, 1, 45, 0
1, 101340, Note_on_c, 1, 74, 127
1, 101340, Note_on_c, 1, 62, 127
1, 101340, Note_on_c, 1, 64, 127
1, 101340, Note_on_c, 1, 44, 127
1, 101399, Note_off_c, 1, 74, 0
1, 101399, Note_off_c, 1, 62, 0
1, 101399, Note_off_c, 1, 64, 0
1, 101399, Note_off_c, 1, 44, 0
1, 101400, Note_on_c, 1, 72, 127
1, 101400, Note_on_c, 1, 45, 127
1, 101429, Note_off_c, 1, 72, 0
1, 101429, Note_off_c, 1, 45, 0
1, 101430, Note_on_c, 1, 71, 127
1, 101430, Note_on_c, 1, 44, 127
1, 101459, Note_off_c, 1, 71, 0
1, 101459, Note_off_c, 1, 44, 0
1, 101460, Note_on_c, 1, 72, 127
1, 101460, Note_on_c, 1, 64, 127
1, 101460, Note_on_c, 1, 60, 127
1, 101460, Note_on_c, 1, 45, 127
1, 101519, Note_off_c, 1, 72, 0
1, 101519, Note_off_c, 1, 64, 0
1, 101519, Note_off_c, 1, 60, 0
1, 101519, Note_off_c, 1, 45, 0
1, 101520, Note_on_c, 1, 72, 127
1, 101520, Note_on_c, 1, 64, 127
1, 101520, Note_on_c, 1, 68, 127
1, 101520, Note_on_c, 1, 40, 127
1, 101549, Note_off_c, 1, 72, 0
1, 101550, Note_on_c, 1, 71, 127
1, 101579, Note_off_c, 1, 64, 0
1, 101579, Note_off_c, 1, 68, 0
1, 101579, Note_off_c, 1, 40, 0
1, 101580, Note_on_c, 1, 52, 127
1, 101609, Note_off_c, 1, 71, 0
1, 101639, Note_off_c, 1, 52, 0
1, 101640, Note_on_c, 1, 76, 127
1, 101640, Note_on_c, 1, 62, 127
1, 101640, Note_on_c, 1, 56, 127
1, 101670, Note_on_c, 1, 74, 127
1, 101699, Note_off_c, 1, 76, 0
1, 101699, Note_off_c, 1, 62, 0
1, 101699, Note_off_c, 1, 56, 0
1, 101699, Note_off_c, 1, 74, 0
1, 101700, Note_on_c, 1, 73, 127
1, 101700, Note_on_c, 1, 64, 127
1, 101700, Note_on_c, 1, 57, 127
1, 101730, Note_on_c, 1, 76, 127
1, 101759, Note_off_c, 1, 73, 0
1, 101759, Note_off_c, 1, 64, 0
1, 101759, Note_off_c, 1, 57, 0
1, 101759, Note_off_c, 1, 76, 0
1, 101760, Note_on_c, 1, 73, 127
1, 101760, Note_on_c, 1, 45, 127
1, 101789, Note_off_c, 1, 73, 0
1, 101790, Note_on_c, 1, 69, 127
1, 101819, Note_off_c, 1, 45, 0
1, 101819, Note_off_c, 1, 69, 0
1, 101820, Note_on_c, 1, 64, 127
1, 101820, Note_on_c, 1, 69, 127
1, 101820, Note_on_c, 1, 67, 127
1, 101820, Note_on_c, 1, 49, 127
1, 101849, Note_off_c, 1, 64, 0
1, 101879, Note_off_c, 1, 69, 0
1, 101879, Note_off_c, 1, 67, 0
1, 101879, Note_off_c, 1, 49, 0
1, 101880, Note_on_c, 1, 65, 127
1, 101880, Note_on_c, 1, 69, 127
1, 101880, Note_on_c, 1, 50, 127
1, 101939, Note_off_c, 1, 65, 0
1, 101939, Note_off_c, 1, 69, 0
1, 101939, Note_off_c, 1, 50, 0
1, 101940, Note_on_c, 1, 62, 127
1, 101969, Note_off_c, 1, 62, 0
1, 101970, Note_on_c, 1, 69, 127
1, 101999, Note_off_c, 1, 69, 0
1, 102000, Note_on_c, 1, 74, 127
1, 102000, Note_on_c, 1, 69, 127
1, 102000, Note_on_c, 1, 53, 127
1, 102030, Note_off_c, 1, 74, 0
1, 102030, Note_on_c, 1, 72, 127
1, 102059, Note_off_c, 1, 69, 0
1, 102059, Note_off_c, 1, 53, 0
1, 102060, Note_off_c, 1, 72, 0
1, 102060, Note_on_c, 1, 71, 127
1, 102060, Note_on_c, 1, 67, 127
1, 102060, Note_on_c, 1, 55, 127
1, 102089, Note_off_c, 1, 71, 0
1, 102119, Note_off_c, 1, 67, 0
1, 102119, Note_off_c, 1, 55, 0
1, 102120, Note_on_c, 1, 71, 127
1, 102120, Note_on_c, 1, 43, 127
1, 102149, Note_off_c, 1, 71, 0
1, 102150, Note_on_c, 1, 67, 127
1, 102179, Note_off_c, 1, 43, 0
1, 102179, Note_off_c, 1, 67, 0
1, 102180, Note_on_c, 1, 62, 127
1, 102180, Note_on_c, 1, 67, 127
1, 102180, Note_on_c, 1, 47, 127
1, 102209, Note_off_c, 1, 62, 0
1, 102210, Note_off_c, 1, 67, 0
1, 102210, Note_on_c, 1, 65, 127
1, 102239, Note_off_c, 1, 47, 0
1, 102240, Note_off_c, 1, 65, 0
1, 102240, Note_on_c, 1, 64, 127
1, 102240, Note_on_c, 1, 48, 127
1, 102299, Note_off_c, 1, 64, 0
1, 102299, Note_off_c, 1, 48, 0
1, 102300, Note_on_c, 1, 60, 127
1, 102329, Note_off_c, 1, 60, 0
1, 102330, Note_on_c, 1, 67, 127
1, 102359, Note_off_c, 1, 67, 0
1, 102360, Note_on_c, 1, 72, 127
1, 102360, Note_on_c, 1, 64, 127
1, 102360, Note_on_c, 1, 52, 127
1, 102390, Note_on_c, 1, 71, 127
1, 102419, Note_off_c, 1, 72, 0
1, 102419, Note_off_c, 1, 64, 0
1, 102419, Note_off_c, 1, 52, 0
1, 102419, Note_off_c, 1, 71, 0
1, 102420, Note_on_c, 1, 69, 127
1, 102420, Note_on_c, 1, 72, 127
1, 102420, Note_on_c, 1, 65, 127
1, 102420, Note_on_c, 1, 53, 127
1, 102449, Note_off_c, 1, 69, 0
1, 102450, Note_on_c, 1, 68, 127
1, 102479, Note_off_c, 1, 72, 0
1, 102479, Note_off_c, 1, 65, 0
1, 102479, Note_off_c, 1, 53, 0
1, 102479, Note_off_c, 1, 68, 0
1, 102480, Note_on_c, 1, 69, 127
1, 102480, Note_on_c, 1, 52, 127
1, 102509, Note_off_c, 1, 69, 0
1, 102510, Note_on_c, 1, 68, 127
1, 102539, Note_off_c, 1, 52, 0
1, 102539, Note_off_c, 1, 68, 0
1, 102540, Note_on_c, 1, 69, 127
1, 102540, Note_on_c, 1, 50, 127
1, 102569, Note_off_c, 1, 69, 0
1, 102570, Note_on_c, 1, 77, 127
1, 102570, Note_on_c, 1, 74, 127
1, 102599, Note_off_c, 1, 50, 0
1, 102599, Note_off_c, 1, 77, 0
1, 102599, Note_off_c, 1, 74, 0
1, 102600, Note_on_c, 1, 76, 127
1, 102600, Note_on_c, 1, 72, 127
1, 102600, Note_on_c, 1, 69, 127
1, 102600, Note_on_c, 1, 48, 127
1, 102629, Note_off_c, 1, 76, 0
1, 102629, Note_off_c, 1, 72, 0
1, 102630, Note_on_c, 1, 75, 127
1, 102630, Note_on_c, 1, 71, 127
1, 102659, Note_off_c, 1, 69, 0
1, 102659, Note_off_c, 1, 48, 0
1, 102659, Note_off_c, 1, 75, 0
1, 102659, Note_off_c, 1, 71, 0
1, 102660, Note_on_c, 1, 76, 127
1, 102660, Note_on_c, 1, 72, 127
1, 102660, Note_on_c, 1, 69, 127
1, 102660, Note_on_c, 1, 45, 127
1, 102689, Note_off_c, 1, 76, 0
1, 102689, Note_off_c, 1, 72, 0
1, 102690, Note_on_c, 1, 75, 127
1, 102690, Note_on_c, 1, 71, 127
1, 102719, Note_off_c, 1, 69, 0
1, 102719, Note_off_c, 1, 45, 0
1, 102719, Note_off_c, 1, 75, 0
1, 102719, Note_off_c, 1, 71, 0
1, 102720, Note_on_c, 1, 76, 127
1, 102720, Note_on_c, 1, 72, 127
1, 102720, Note_on_c, 1, 68, 127
1, 102720, Note_on_c, 1, 47, 127
1, 102749, Note_off_c, 1, 76, 0
1, 102749, Note_off_c, 1, 72, 0
1, 102750, Note_on_c, 1, 80, 127
1, 102779, Note_off_c, 1, 68, 0
1, 102779, Note_off_c, 1, 47, 0
1, 102779, Note_off_c, 1, 80, 0
1, 102780, Note_on_c, 1, 81, 127
1, 102780, Note_on_c, 1, 76, 127
1, 102780, Note_on_c, 1, 48, 127
1, 102839, Note_off_c, 1, 81, 0
1, 102839, Note_off_c, 1, 76, 0
1, 102839, Note_off_c, 1, 48, 0
1, 102840, Note_on_c, 1, 72, 127
1, 102840, Note_on_c, 1, 69, 127
1, 102840, Note_on_c, 1, 50, 127
1, 102899, Note_off_c, 1, 72, 0
1, 102899, Note_off_c, 1, 69, 0
1, 102899, Note_off_c, 1, 50, 0
1, 102900, Note_on_c, 1, 71, 127
1, 102900, Note_on_c, 1, 68, 127
1, 102900, Note_on_c, 1, 52, 127
1, 102959, Note_off_c, 1, 71, 0
1, 102959, Note_off_c, 1, 68, 0
1, 102959, Note_off_c, 1, 52, 0
1, 102960, Note_on_c, 1, 69, 127
1, 102960, Note_on_c, 1, 45, 127
1, 103079, Note_off_c, 1, 69, 0
1, 103079, Note_off_c, 1, 45, 0
1, 103080, Note_on_c, 1, 64, 127
1, 103139, Note_off_c, 1, 64, 0
1, 103140, Note_on_c, 1, 69, 127
1, 103199, Note_off_c, 1, 69, 0
1, 103200, Note_on_c, 1, 72, 127
1, 103259, Note_off_c, 1, 72, 0
1, 103260, Note_on_c, 1, 71, 127
1, 103260, Note_on_c, 1, 68, 127
1, 103260, Note_on_c, 1, 40, 127
1, 103270, Note_on_c, 1, 72, 127
1, 103280, Note_off_c, 1, 72, 0
1, 103319, Note_off_c, 1, 68, 0
1, 103319, Note_off_c, 1, 40, 0
1, 103320, Note_off_c, 1, 71, 0
1, 103320, Note_on_c, 1, 69, 127
1, 103320, Note_on_c, 1, 45, 127
1, 103379, Note_off_c, 1, 69, 0
1, 103379, Note_off_c, 1, 45, 0
1, 103380, Note_on_c, 1, 68, 127
1, 103380, Note_on_c, 1, 47, 127
1, 103439, Note_off_c, 1, 68, 0
1, 103439, Note_off_c, 1, 47, 0
1, 103440, Note_on_c, 1, 69, 127
1, 103440, Note_on_c, 1, 48, 127
1, 103499, Note_off_c, 1, 69, 0
1, 103499, Note_off_c, 1, 48, 0
1, 103500, Note_on_c, 1, 67, 127
1, 103500, Note_on_c, 1, 62, 127
1, 103500, Note_on_c, 1, 65, 127
1, 103500, Note_on_c, 1, 50, 127
1, 103529, Note_off_c, 1, 67, 0
1, 103559, Note_off_c, 1, 62, 0
1, 103559, Note_off_c, 1, 65, 0
1, 103559, Note_off_c, 1, 50, 0
1, 103560, Note_on_c, 1, 64, 127
1, 103560, Note_on_c, 1, 67, 127
1, 103560, Note_on_c, 1, 65, 127
1, 103560, Note_on_c, 1, 47, 127
1, 103589, Note_off_c, 1, 64, 0
1, 103590, Note_on_c, 1, 62, 127
1, 103619, Note_off_c, 1, 67, 0
1, 103619, Note_off_c, 1, 65, 0
1, 103619, Note_off_c, 1, 47, 0
1, 103619, Note_off_c, 1, 62, 0
1, 103620, Note_on_c, 1, 67, 127
1, 103620, Note_on_c, 1, 65, 127
1, 103620, Note_on_c, 1, 62, 127
1, 103620, Note_on_c, 1, 43, 127
1, 103679, Note_off_c, 1, 67, 0
1, 103679, Note_off_c, 1, 65, 0
1, 103679, Note_off_c, 1, 62, 0
1, 103679, Note_off_c, 1, 43, 0
1, 103680, Note_on_c, 1, 64, 127
1, 103680, Note_on_c, 1, 60, 127
1, 103680, Note_on_c, 1, 48, 127
1, 103739, Note_off_c, 1, 64, 0
1, 103739, Note_off_c, 1, 60, 0
1, 103739, Note_off_c, 1, 48, 0
1, 103740, Note_on_c, 1, 62, 127
1, 103740, Note_on_c, 1, 60, 127
1, 103740, Note_on_c, 1, 52, 127
1, 103769, Note_off_c, 1, 62, 0
1, 103799, Note_off_c, 1, 60, 0
1, 103799, Note_off_c, 1, 52, 0
1, 103800, Note_on_c, 1, 72, 127
1, 103800, Note_on_c, 1, 64, 127
1, 103800, Note_on_c, 1, 60, 127
1, 103800, Note_on_c, 1, 45, 127
1, 103859, Note_off_c, 1, 72, 0
1, 103859, Note_off_c, 1, 64, 0
1, 103859, Note_off_c, 1, 60, 0
1, 103859, Note_off_c, 1, 45, 0
1, 103860, Note_on_c, 1, 71, 127
1, 103860, Note_on_c, 1, 65, 127
1, 103860, Note_on_c, 1, 62, 127
1, 103860, Note_on_c, 1, 50, 127
1, 103919, Note_off_c, 1, 71, 0
1, 103919, Note_off_c, 1, 65, 0
1, 103919, Note_off_c, 1, 62, 0
1, 103920, Note_on_c, 1, 72, 127
1, 103949, Note_off_c, 1, 72, 0
1, 103979, Note_off_c, 1, 50, 0
1, 103980, Note_on_c, 1, 69, 127
1, 103980, Note_on_c, 1, 68, 127
1, 103980, Note_on_c, 1, 64, 127
1, 103980, Note_on_c, 1, 52, 127
1, 104009, Note_off_c, 1, 69, 0
1, 104039, Note_off_c, 1, 68, 0
1, 104039, Note_off_c, 1, 64, 0
1, 104039, Note_off_c, 1, 52, 0
1, 104040, Note_on_c, 1, 69, 127
1, 104040, Note_on_c, 1, 64, 127
1, 104040, Note_on_c, 1, 48, 127
1, 104099, Note_off_c, 1, 69, 0
1, 104099, Note_off_c, 1, 64, 0
1, 104099, Note_off_c, 1, 48, 0
1, 104100, Note_on_c, 1, 71, 127
1, 104100, Note_on_c, 1, 50, 127
1, 104129, Note_off_c, 1, 50, 0
1, 104130, Note_on_c, 1, 64, 127
1, 104130, Note_on_c, 1, 48, 127
1, 104159, Note_off_c, 1, 71, 0
1, 104159, Note_off_c, 1, 64, 0
1, 104159, Note_off_c, 1, 48, 0
1, 104160, Note_on_c, 1, 72, 127
1, 104160, Note_on_c, 1, 62, 127
1, 104160, Note_on_c, 1, 47, 127
1, 104189, Note_off_c, 1, 62, 0
1, 104189, Note_off_c, 1, 47, 0
1, 104190, Note_on_c, 1, 60, 127
1, 104190, Note_on_c, 1, 45, 127
1, 104219, Note_off_c, 1, 72, 0
1, 104219, Note_off_c, 1, 60, 0
1, 104219, Note_off_c, 1, 45, 0
1, 104220, Note_on_c, 1, 74, 127
1, 104220, Note_on_c, 1, 62, 127
1, 104220, Note_on_c, 1, 64, 127
1, 104220, Note_on_c, 1, 44, 127
1, 104279, Note_off_c, 1, 74, 0
1, 104279, Note_off_c, 1, 62, 0
1, 104279, Note_off_c, 1, 64, 0
1, 104279, Note_off_c, 1, 44, 0
1, 104280, Note_on_c, 1, 72, 127
1, 104280, Note_on_c, 1, 45, 127
1, 104309, Note_off_c, 1, 72, 0
1, 104309, Note_off_c, 1, 45, 0
1, 104310, Note_on_c, 1, 71, 127
1, 104310, Note_on_c, 1, 44, 127
1, 104339, Note_off_c, 1, 71, 0
1, 104339, Note_off_c, 1, 44, 0
1, 104340, Note_on_c, 1, 72, 127
1, 104340, Note_on_c, 1, 64, 127
1, 104340, Note_on_c, 1, 60, 127
1, 104340, Note_on_c, 1, 45, 127
1, 104399, Note_off_c, 1, 72, 0
1, 104399, Note_off_c, 1, 64, 0
1, 104399, Note_off_c, 1, 60, 0
1, 104399, Note_off_c, 1, 45, 0
1, 104400, Note_on_c, 1, 71, 127
1, 104400, Note_on_c, 1, 72, 127
1, 104400, Note_on_c, 1, 64, 127
1, 104400, Note_on_c, 1, 68, 127
1, 104400, Note_on_c, 1, 40, 127
1, 104430, Note_off_c, 1, 72, 0
1, 104459, Note_off_c, 1, 64, 0
1, 104459, Note_off_c, 1, 68, 0
1, 104459, Note_off_c, 1, 40, 0
1, 104460, Note_on_c, 1, 52, 127
1, 104519, Note_off_c, 1, 52, 0
1, 104520, Note_on_c, 1, 69, 127
1, 104520, Note_on_c, 1, 51, 127
1, 104579, Note_off_c, 1, 71, 0
1, 104579, Note_off_c, 1, 69, 0
1, 104579, Note_off_c, 1, 51, 0
1, 104580, Note_on_c, 1, 71, 127
1, 104580, Note_on_c, 1, 68, 127
1, 104580, Note_on_c, 1, 52, 127
1, 104639, Note_off_c, 1, 71, 0
1, 104639, Note_off_c, 1, 68, 0
1, 104639, Note_off_c, 1, 52, 0
1, 104640, Note_on_c, 1, 67, 127
1, 104670, Note_on_c, 1, 71, 127
1, 104699, Note_off_c, 1, 67, 0
1, 104699, Note_off_c, 1, 71, 0
1, 104700, Note_on_c, 1, 76, 127
1, 104700, Note_on_c, 1, 64, 127
1, 104700, Note_on_c, 1, 68, 127
1, 104700, Note_on_c, 1, 56, 127
1, 104729, Note_off_c, 1, 76, 0
1, 104730, Note_on_c, 1, 74, 127
1, 104759, Note_off_c, 1, 64, 0
1, 104759, Note_off_c, 1, 68, 0
1, 104759, Note_off_c, 1, 56, 0
1, 104759, Note_off_c, 1, 74, 0
1, 104760, Note_on_c, 1, 73, 127
1, 104760, Note_on_c, 1, 69, 127
1, 104760, Note_on_c, 1, 64, 127
1, 104760, Note_on_c, 1, 57, 127
1, 104789, Note_off_c, 1, 73, 0
1, 104790, Note_on_c, 1, 76, 127
1, 104819, Note_off_c, 1, 69, 0
1, 104819, Note_off_c, 1, 64, 0
1, 104819, Note_off_c, 1, 57, 0
1, 104819, Note_off_c, 1, 76, 0
1, 104820, Note_on_c, 1, 73, 127
1, 104820, Note_on_c, 1, 45, 127
1, 104849, Note_off_c, 1, 73, 0
1, 104850, Note_on_c, 1, 69, 127
1, 104879, Note_off_c, 1, 45, 0
1, 104879, Note_off_c, 1, 69, 0
1, 104880, Note_on_c, 1, 64, 127
1, 104880, Note_on_c, 1, 69, 127
1, 104880, Note_on_c, 1, 49, 127
1, 104910, Note_on_c, 1, 67, 127
1, 104939, Note_off_c, 1, 64, 0
1, 104939, Note_off_c, 1, 69, 0
1, 104939, Note_off_c, 1, 49, 0
1, 104940, Note_off_c, 1, 67, 0
1, 104940, Note_on_c, 1, 65, 127
1, 104940, Note_on_c, 1, 74, 127
1, 104940, Note_on_c, 1, 50, 127
1, 104999, Note_off_c, 1, 65, 0
1, 104999, Note_off_c, 1, 74, 0
1, 104999, Note_off_c, 1, 50, 0
1, 105000, Note_on_c, 1, 62, 127
1, 105030, Note_on_c, 1, 69, 127
1, 105059, Note_off_c, 1, 62, 0
1, 105059, Note_off_c, 1, 69, 0
1, 105060, Note_on_c, 1, 74, 127
1, 105060, Note_on_c, 1, 53, 127
1, 105090, Note_off_c, 1, 74, 0
1, 105090, Note_on_c, 1, 72, 127
1, 105119, Note_off_c, 1, 53, 0
1, 105120, Note_off_c, 1, 72, 0
1, 105120, Note_on_c, 1, 71, 127
1, 105120, Note_on_c, 1, 67, 127
1, 105120, Note_on_c, 1, 55, 127
1, 105179, Note_off_c, 1, 71, 0
1, 105179, Note_off_c, 1, 67, 0
1, 105179, Note_off_c, 1, 55, 0
1, 105180, Note_on_c, 1, 71, 127
1, 105180, Note_on_c, 1, 43, 127
1, 105209, Note_off_c, 1, 71, 0
1, 105210, Note_on_c, 1, 67, 127
1, 105239, Note_off_c, 1, 43, 0
1, 105239, Note_off_c, 1, 67, 0
1, 105240, Note_on_c, 1, 62, 127
1, 105240, Note_on_c, 1, 67, 127
1, 105240, Note_on_c, 1, 65, 127
1, 105240, Note_on_c, 1, 47, 127
1, 105269, Note_off_c, 1, 62, 0
1, 105299, Note_off_c, 1, 65, 0
1, 105299, Note_off_c, 1, 47, 0
1, 105300, Note_on_c, 1, 64, 127
1, 105300, Note_on_c, 1, 60, 127
1, 105300, Note_on_c, 1, 48, 127
1, 105359, Note_off_c, 1, 67, 0
1, 105359, Note_off_c, 1, 64, 0
1, 105359, Note_off_c, 1, 60, 0
1, 105359, Note_off_c, 1, 48, 0
1, 105360, Note_on_c, 1, 60, 127
1, 105360, Note_on_c, 1, 64, 127
1, 105419, Note_off_c, 1, 60, 0
1, 105419, Note_off_c, 1, 64, 0
1, 105420, Note_on_c, 1, 62, 127
1, 105420, Note_on_c, 1, 67, 127
1, 105420, Note_on_c, 1, 59, 127
1, 105479, Note_off_c, 1, 62, 0
1, 105479, Note_off_c, 1, 67, 0
1, 105479, Note_off_c, 1, 59, 0
1, 105480, Note_on_c, 1, 65, 127
1, 105480, Note_on_c, 1, 67, 127
1, 105480, Note_on_c, 1, 64, 127
1, 105480, Note_on_c, 1, 60, 127
1, 105510, Note_off_c, 1, 65, 0
1, 105539, Note_off_c, 1, 67, 0
1, 105539, Note_off_c, 1, 60, 0
1, 105540, Note_off_c, 1, 64, 0
1, 105540, Note_on_c, 1, 62, 127
1, 105540, Note_on_c, 1, 52, 127
1, 105569, Note_off_c, 1, 52, 0
1, 105570, Note_off_c, 1, 62, 0
1, 105570, Note_on_c, 1, 50, 127
1, 105599, Note_off_c, 1, 50, 0
1, 105630, Note_on_c, 1, 48, 127
1, 105659, Note_off_c, 1, 48, 0
1, 105660, Note_on_c, 1, 67, 127
1, 105660, Note_on_c, 1, 47, 127
1, 105719, Note_off_c, 1, 67, 0
1, 105719, Note_off_c, 1, 47, 0
1, 105720, Note_on_c, 1, 71, 127
1, 105720, Note_on_c, 1, 67, 127
1, 105720, Note_on_c, 1, 48, 127
1, 105779, Note_off_c, 1, 71, 0
1, 105779, Note_off_c, 1, 67, 0
1, 105779, Note_off_c, 1, 48, 0
1, 105780, Note_on_c, 1, 69, 127
1, 105780, Note_on_c, 1, 66, 127
1, 105780, Note_on_c, 1, 50, 127
1, 105790, Note_off_c, 1, 69, 0
1, 105790, Note_on_c, 1, 71, 127
1, 105800, Note_off_c, 1, 71, 0
1, 105839, Note_off_c, 1, 66, 0
1, 105839, Note_off_c, 1, 50, 0
1, 105840, Note_on_c, 1, 67, 127
1, 105840, Note_on_c, 1, 62, 127
1, 105840, Note_on_c, 1, 43, 127
1, 105899, Note_off_c, 1, 43, 0
1, 105900, Note_on_c, 1, 55, 127
1, 105929, Note_off_c, 1, 55, 0
1, 105930, Note_on_c, 1, 53, 127
1, 105959, Note_off_c, 1, 67, 0
1, 105959, Note_off_c, 1, 62, 0
1, 105959, Note_off_c, 1, 53, 0
1, 105960, Note_on_c, 1, 69, 127
1, 105960, Note_on_c, 1, 71, 127
1, 105960, Note_on_c, 1, 55, 127
1, 105989, Note_off_c, 1, 71, 0
1, 105989, Note_off_c, 1, 55, 0
1, 105990, Note_on_c, 1, 67, 127
1, 105990, Note_on_c, 1, 52, 127
1, 106019, Note_off_c, 1, 67, 0
1, 106019, Note_off_c, 1, 52, 0
1, 106020, Note_off_c, 1, 69, 0
1, 106020, Note_on_c, 1, 62, 127
1, 106020, Note_on_c, 1, 53, 127
1, 106079, Note_off_c, 1, 53, 0
1, 106080, Note_off_c, 1, 62, 0
1, 106080, Note_on_c, 1, 65, 127
1, 106140, Note_off_c, 1, 65, 0
1, 106140, Note_on_c, 1, 64, 127
1, 106140, Note_on_c, 1, 61, 127
1, 106140, Note_on_c, 1, 57, 127
1, 106199, Note_off_c, 1, 61, 0
1, 106199, Note_off_c, 1, 57, 0
1, 106200, Note_off_c, 1, 64, 0
1, 106200, Note_on_c, 1, 50, 127
1, 106259, Note_off_c, 1, 50, 0
1, 106380, Note_on_c, 1, 69, 127
1, 106380, Note_on_c, 1, 48, 127
1, 106439, Note_off_c, 1, 69, 0
1, 106439, Note_off_c, 1, 48, 0
1, 106440, Note_on_c, 1, 72, 127
1, 106440, Note_on_c, 1, 69, 127
1, 106440, Note_on_c, 1, 50, 127
1, 106499, Note_off_c, 1, 72, 0
1, 106499, Note_off_c, 1, 69, 0
1, 106499, Note_off_c, 1, 50, 0
1, 106500, Note_on_c, 1, 71, 127
1, 106500, Note_on_c, 1, 68, 127
1, 106500, Note_on_c, 1, 52, 127
1, 106559, Note_off_c, 1, 71, 0
1, 106559, Note_off_c, 1, 68, 0
1, 106559, Note_off_c, 1, 52, 0
1, 106560, Note_on_c, 1, 72, 127
1, 106560, Note_on_c, 1, 69, 127
1, 106560, Note_on_c, 1, 64, 127
1, 106560, Note_on_c, 1, 45, 127
1, 106619, Note_off_c, 1, 72, 0
1, 106679, Note_off_c, 1, 69, 0
1, 106679, Note_off_c, 1, 64, 0
1, 106679, Note_off_c, 1, 45, 0
1, 106680, Note_on_c, 1, 71, 127
1, 106680, Note_on_c, 1, 64, 127
1, 106709, Note_off_c, 1, 71, 0
1, 106710, Note_on_c, 1, 74, 127
1, 106739, Note_off_c, 1, 64, 0
1, 106739, Note_off_c, 1, 74, 0
1, 106740, Note_on_c, 1, 72, 127
1, 106740, Note_on_c, 1, 69, 127
1, 106769, Note_off_c, 1, 72, 0
1, 106770, Note_on_c, 1, 76, 127
1, 106799, Note_off_c, 1, 69, 0
1, 106799, Note_off_c, 1, 76, 0
1, 106800, Note_on_c, 1, 72, 127
1, 106830, Note_on_c, 1, 69, 127
1, 106859, Note_off_c, 1, 72, 0
1, 106859, Note_off_c, 1, 69, 0
1, 106860, Note_on_c, 1, 68, 127
1, 106860, Note_on_c, 1, 71, 127
1, 106860, Note_on_c, 1, 40, 127
1, 106919, Note_off_c, 1, 68, 0
1, 106919, Note_off_c, 1, 71, 0
1, 106919, Note_off_c, 1, 40, 0
1, 106920, Note_on_c, 1, 69, 127
1, 106920, Note_on_c, 1, 72, 127
1, 106920, Note_on_c, 1, 64, 127
1, 106920, Note_on_c, 1, 45, 127
1, 106979, Note_off_c, 1, 69, 0
1, 106979, Note_off_c, 1, 72, 0
1, 106979, Note_off_c, 1, 64, 0
1, 106979, Note_off_c, 1, 45, 0
1, 106980, Note_on_c, 1, 76, 127
1, 106980, Note_on_c, 1, 68, 127
1, 107009, Note_off_c, 1, 76, 0
1, 107010, Note_on_c, 1, 74, 127
1, 107039, Note_off_c, 1, 68, 0
1, 107039, Note_off_c, 1, 74, 0
1, 107040, Note_on_c, 1, 72, 127
1, 107040, Note_on_c, 1, 69, 127
1, 107040, Note_on_c, 1, 45, 127
1, 107070, Note_on_c, 1, 71, 127
1, 107099, Note_off_c, 1, 72, 0
1, 107099, Note_off_c, 1, 69, 0
1, 107099, Note_off_c, 1, 45, 0
1, 107099, Note_off_c, 1, 71, 0
1, 107100, Note_on_c, 1, 69, 127
1, 107100, Note_on_c, 1, 67, 127
1, 107100, Note_on_c, 1, 72, 127
1, 107100, Note_on_c, 1, 50, 127
1, 107129, Note_off_c, 1, 67, 0
1, 107130, Note_on_c, 1, 65, 127
1, 107159, Note_off_c, 1, 69, 0
1, 107159, Note_off_c, 1, 72, 0
1, 107159, Note_off_c, 1, 50, 0
1, 107159, Note_off_c, 1, 65, 0
1, 107160, Note_on_c, 1, 74, 127
1, 107160, Note_on_c, 1, 64, 127
1, 107160, Note_on_c, 1, 53, 127
1, 107189, Note_off_c, 1, 64, 0
1, 107190, Note_on_c, 1, 62, 127
1, 107219, Note_off_c, 1, 74, 0
1, 107219, Note_off_c, 1, 53, 0
1, 107219, Note_off_c, 1, 62, 0
1, 107220, Note_on_c, 1, 71, 127
1, 107220, Note_on_c, 1, 67, 127
1, 107220, Note_on_c, 1, 65, 127
1, 107220, Note_on_c, 1, 55, 127
1, 107230, Note_on_c, 1, 72, 127
1, 107240, Note_off_c, 1, 72, 0
1, 107279, Note_off_c, 1, 67, 0
1, 107279, Note_off_c, 1, 65, 0
1, 107279, Note_off_c, 1, 55, 0
1, 107280, Note_off_c, 1, 71, 0
1, 107280, Note_on_c, 1, 64, 127
1, 107280, Note_on_c, 1, 48, 127
1, 107339, Note_off_c, 1, 64, 0
1, 107339, Note_off_c, 1, 48, 0
1, 107340, Note_on_c, 1, 64, 127
1, 107340, Note_on_c, 1, 60, 127
1, 107369, Note_off_c, 1, 64, 0
1, 107370, Note_on_c, 1, 67, 127
1, 107399, Note_off_c, 1, 60, 0
1, 107399, Note_off_c, 1, 67, 0
1, 107400, Note_on_c, 1, 72, 127
1, 107400, Note_on_c, 1, 69, 127
1, 107400, Note_on_c, 1, 45, 127
1, 107430, Note_on_c, 1, 76, 127
1, 107459, Note_off_c, 1, 72, 0
1, 107459, Note_off_c, 1, 69, 0
1, 107459, Note_off_c, 1, 45, 0
1, 107459, Note_off_c, 1, 76, 0
1, 107460, Note_on_c, 1, 74, 127
1, 107460, Note_on_c, 1, 71, 127
1, 107460, Note_on_c, 1, 69, 127
1, 107460, Note_on_c, 1, 50, 127
1, 107489, Note_off_c, 1, 74, 0
1, 107490, Note_off_c, 1, 69, 0
1, 107490, Note_on_c, 1, 77, 127
1, 107519, Note_off_c, 1, 50, 0
1, 107519, Note_off_c, 1, 77, 0
1, 107520, Note_off_c, 1, 71, 0
1, 107520, Note_on_c, 1, 76, 127
1, 107520, Note_on_c, 1, 72, 127
1, 107549, Note_off_c, 1, 76, 0
1, 107549, Note_off_c, 1, 72, 0
1, 107580, Note_on_c, 1, 72, 127
1, 107580, Note_on_c, 1, 69, 127
1, 107580, Note_on_c, 1, 68, 127
1, 107580, Note_on_c, 1, 52, 127
1, 107609, Note_off_c, 1, 72, 0
1, 107609, Note_off_c, 1, 69, 0
1, 107610, Note_on_c, 1, 71, 127
1, 107639, Note_off_c, 1, 68, 0
1, 107639, Note_off_c, 1, 52, 0
1, 107639, Note_off_c, 1, 71, 0
1, 107640, Note_on_c, 1, 69, 127
1, 107640, Note_on_c, 1, 65, 127
1, 107640, Note_on_c, 1, 53, 127
1, 107669, Note_off_c, 1, 53, 0
1, 107670, Note_on_c, 1, 67, 127
1, 107670, Note_on_c, 1, 52, 127
1, 107699, Note_off_c, 1, 69, 0
1, 107699, Note_off_c, 1, 65, 0
1, 107699, Note_off_c, 1, 67, 0
1, 107699, Note_off_c, 1, 52, 0
1, 107700, Note_on_c, 1, 65, 127
1, 107700, Note_on_c, 1, 71, 127
1, 107700, Note_on_c, 1, 50, 127
1, 107729, Note_off_c, 1, 65, 0
1, 107729, Note_off_c, 1, 50, 0
1, 107730, Note_on_c, 1, 64, 127
1, 107730, Note_on_c, 1, 48, 127
1, 107759, Note_off_c, 1, 71, 0
1, 107759, Note_off_c, 1, 64, 0
1, 107759, Note_off_c, 1, 48, 0
1, 107760, Note_on_c, 1, 62, 127
1, 107760, Note_on_c, 1, 72, 127
1, 107760, Note_on_c, 1, 47, 127
1, 107789, Note_off_c, 1, 62, 0
1, 107789, Note_off_c, 1, 47, 0
1, 107790, Note_on_c, 1, 60, 127
1, 107790, Note_on_c, 1, 45, 127
1, 107819, Note_off_c, 1, 72, 0
1, 107819, Note_off_c, 1, 60, 0
1, 107819, Note_off_c, 1, 45, 0
1, 107820, Note_on_c, 1, 59, 127
1, 107820, Note_on_c, 1, 74, 127
1, 107820, Note_on_c, 1, 68, 127
1, 107820, Note_on_c, 1, 44, 127
1, 107879, Note_off_c, 1, 59, 0
1, 107879, Note_off_c, 1, 74, 0
1, 107879, Note_off_c, 1, 68, 0
1, 107879, Note_off_c, 1, 44, 0
1, 107880, Note_on_c, 1, 68, 127
1, 107880, Note_on_c, 1, 72, 127
1, 107880, Note_on_c, 1, 76, 127
1, 107880, Note_on_c, 1, 40, 127
1, 107909, Note_off_c, 1, 72, 0
1, 107910, Note_on_c, 1, 71, 127
1, 107939, Note_off_c, 1, 68, 0
1, 107939, Note_off_c, 1, 76, 0
1, 107939, Note_off_c, 1, 40, 0
1, 107939, Note_off_c, 1, 71, 0
1, 107940, Note_on_c, 1, 69, 127
1, 107940, Note_on_c, 1, 72, 127
1, 107940, Note_on_c, 1, 45, 127
1, 107999, Note_off_c, 1, 72, 0
1, 107999, Note_off_c, 1, 45, 0
1, 108000, Note_on_c, 1, 71, 127
1, 108000, Note_on_c, 1, 68, 127
1, 108000, Note_on_c, 1, 40, 127
1, 108029, Note_off_c, 1, 69, 0
1, 108030, Note_on_c, 1, 66, 127
1, 108059, Note_off_c, 1, 68, 0
1, 108059, Note_off_c, 1, 40, 0
1, 108059, Note_off_c, 1, 66, 0
1, 108060, Note_on_c, 1, 52, 127
1, 108119, Note_off_c, 1, 71, 0
1, 108119, Note_off_c, 1, 52, 0
1, 108120, Note_on_c, 1, 74, 127
1, 108120, Note_on_c, 1, 64, 127
1, 108120, Note_on_c, 1, 44, 127
1, 108179, Note_off_c, 1, 74, 0
1, 108179, Note_off_c, 1, 64, 0
1, 108179, Note_off_c, 1, 44, 0
1, 108180, Note_on_c, 1, 73, 127
1, 108180, Note_on_c, 1, 64, 127
1, 108180, Note_on_c, 1, 45, 127
1, 108239, Note_off_c, 1, 73, 0
1, 108239, Note_off_c, 1, 64, 0
1, 108239, Note_off_c, 1, 45, 0
1, 108240, Note_on_c, 1, 76, 127
1, 108299, Note_off_c, 1, 76, 0
1, 108300, Note_on_c, 1, 67, 127
1, 108300, Note_on_c, 1, 69, 127
1, 108300, Note_on_c, 1, 49, 127
1, 108359, Note_off_c, 1, 67, 0
1, 108359, Note_off_c, 1, 69, 0
1, 108359, Note_off_c, 1, 49, 0
1, 108360, Note_on_c, 1, 65, 127
1, 108360, Note_on_c, 1, 69, 127
1, 108360, Note_on_c, 1, 50, 127
1, 108370, Note_on_c, 1, 67, 127
1, 108380, Note_off_c, 1, 67, 0
1, 108419, Note_off_c, 1, 69, 0
1, 108419, Note_off_c, 1, 50, 0
1, 108420, Note_off_c, 1, 65, 0
1, 108420, Note_on_c, 1, 64, 127
1, 108420, Note_on_c, 1, 53, 127
1, 108449, Note_off_c, 1, 64, 0
1, 108450, Note_on_c, 1, 62, 127
1, 108479, Note_off_c, 1, 53, 0
1, 108479, Note_off_c, 1, 62, 0
1, 108480, Note_on_c, 1, 72, 127
1, 108480, Note_on_c, 1, 65, 127
1, 108480, Note_on_c, 1, 69, 127
1, 108480, Note_on_c, 1, 60, 127
1, 108480, Note_on_c, 1, 50, 127
1, 108539, Note_off_c, 1, 72, 0
1, 108539, Note_off_c, 1, 65, 0
1, 108539, Note_off_c, 1, 69, 0
1, 108539, Note_off_c, 1, 60, 0
1, 108539, Note_off_c, 1, 50, 0
1, 108540, Note_on_c, 1, 71, 127
1, 108540, Note_on_c, 1, 65, 127
1, 108540, Note_on_c, 1, 67, 127
1, 108540, Note_on_c, 1, 62, 127
1, 108540, Note_on_c, 1, 55, 127
1, 108599, Note_off_c, 1, 71, 0
1, 108599, Note_off_c, 1, 65, 0
1, 108599, Note_off_c, 1, 67, 0
1, 108599, Note_off_c, 1, 62, 0
1, 108599, Note_off_c, 1, 55, 0
1, 108600, Note_on_c, 1, 74, 127
1, 108659, Note_off_c, 1, 74, 0
1, 108660, Note_on_c, 1, 65, 127
1, 108660, Note_on_c, 1, 67, 127
1, 108660, Note_on_c, 1, 62, 127
1, 108660, Note_on_c, 1, 47, 127
1, 108719, Note_off_c, 1, 65, 0
1, 108719, Note_off_c, 1, 67, 0
1, 108719, Note_off_c, 1, 62, 0
1, 108719, Note_off_c, 1, 47, 0
1, 108720, Note_on_c, 1, 64, 127
1, 108720, Note_on_c, 1, 67, 127
1, 108720, Note_on_c, 1, 60, 127
1, 108720, Note_on_c, 1, 48, 127
1, 108730, Note_on_c, 1, 65, 127
1, 108740, Note_off_c, 1, 65, 0
1, 108779, Note_off_c, 1, 67, 0
1, 108779, Note_off_c, 1, 60, 0
1, 108779, Note_off_c, 1, 48, 0
1, 108780, Note_off_c, 1, 64, 0
1, 108780, Note_on_c, 1, 62, 127
1, 108780, Note_on_c, 1, 52, 127
1, 108809, Note_off_c, 1, 62, 0
1, 108839, Note_off_c, 1, 52, 0
1, 108840, Note_on_c, 1, 64, 127
1, 108840, Note_on_c, 1, 67, 127
1, 108840, Note_on_c, 1, 48, 127
1, 108899, Note_off_c, 1, 64, 0
1, 108899, Note_off_c, 1, 67, 0
1, 108899, Note_off_c, 1, 48, 0
1, 108900, Note_on_c, 1, 74, 127
1, 108900, Note_on_c, 1, 62, 127
1, 108900, Note_on_c, 1, 65, 127
1, 108900, Note_on_c, 1, 53, 127
1, 108959, Note_off_c, 1, 74, 0
1, 108959, Note_off_c, 1, 62, 0
1, 108959, Note_off_c, 1, 65, 0
1, 108959, Note_off_c, 1, 53, 0
1, 108960, Note_on_c, 1, 72, 127
1, 108960, Note_on_c, 1, 52, 127
1, 109019, Note_off_c, 1, 72, 0
1, 109019, Note_off_c, 1, 52, 0
1, 109020, Note_on_c, 1, 71, 127
1, 109020, Note_on_c, 1, 64, 127
1, 109020, Note_on_c, 1, 68, 127
1, 109020, Note_on_c, 1, 50, 127
1, 109079, Note_off_c, 1, 71, 0
1, 109079, Note_off_c, 1, 64, 0
1, 109079, Note_off_c, 1, 68, 0
1, 109079, Note_off_c, 1, 50, 0
1, 109080, Note_on_c, 1, 76, 127
1, 109080, Note_on_c, 1, 69, 127
1, 109080, Note_on_c, 1, 64, 127
1, 109080, Note_on_c, 1, 48, 127
1, 109139, Note_off_c, 1, 76, 0
1, 109139, Note_off_c, 1, 69, 0
1, 109139, Note_off_c, 1, 64, 0
1, 109139, Note_off_c, 1, 48, 0
1, 109140, Note_on_c, 1, 69, 127
1, 109140, Note_on_c, 1, 53, 127
1, 109199, Note_off_c, 1, 69, 0
1, 109199, Note_off_c, 1, 53, 0
1, 109200, Note_on_c, 1, 71, 127
1, 109200, Note_on_c, 1, 50, 127
1, 109259, Note_off_c, 1, 71, 0
1, 109259, Note_off_c, 1, 50, 0
1, 109260, Note_on_c, 1, 64, 127
1, 109260, Note_on_c, 1, 69, 127
1, 109260, Note_on_c, 1, 72, 127
1, 109260, Note_on_c, 1, 52, 127
1, 109319, Note_off_c, 1, 64, 0
1, 109319, Note_off_c, 1, 69, 0
1, 109319, Note_off_c, 1, 72, 0
1, 109319, Note_off_c, 1, 52, 0
1, 109320, Note_on_c, 1, 72, 127
1, 109320, Note_on_c, 1, 50, 127
1, 109349, Note_off_c, 1, 72, 0
1, 109350, Note_on_c, 1, 71, 127
1, 109379, Note_off_c, 1, 50, 0
1, 109379, Note_off_c, 1, 71, 0
1, 109380, Note_on_c, 1, 69, 127
1, 109380, Note_on_c, 1, 68, 127
1, 109380, Note_on_c, 1, 71, 127
1, 109380, Note_on_c, 1, 52, 127
1, 109409, Note_off_c, 1, 69, 0
1, 109439, Note_off_c, 1, 68, 0
1, 109439, Note_off_c, 1, 71, 0
1, 109439, Note_off_c, 1, 52, 0
1, 109440, Note_on_c, 1, 69, 127
1, 109440, Note_on_c, 1, 72, 127
1, 109440, Note_on_c, 1, 41, 127
1, 109499, Note_off_c, 1, 72, 0
1, 109499, Note_off_c, 1, 41, 0
1, 109500, Note_on_c, 1, 53, 127
1, 109529, Note_off_c, 1, 53, 0
1, 109530, Note_on_c, 1, 67, 127
1, 109530, Note_on_c, 1, 52, 127
1, 109559, Note_off_c, 1, 69, 0
1, 109559, Note_off_c, 1, 67, 0
1, 109559, Note_off_c, 1, 52, 0
1, 109560, Note_on_c, 1, 69, 127
1, 109560, Note_on_c, 1, 65, 127
1, 109560, Note_on_c, 1, 50, 127
1, 109589, Note_off_c, 1, 65, 0
1, 109589, Note_off_c, 1, 50, 0
1, 109590, Note_on_c, 1, 64, 127
1, 109590, Note_on_c, 1, 48, 127
1, 109619, Note_off_c, 1, 69, 0
1, 109619, Note_off_c, 1, 64, 0
1, 109619, Note_off_c, 1, 48, 0
1, 109620, Note_on_c, 1, 69, 127
1, 109620, Note_on_c, 1, 62, 127
1, 109620, Note_on_c, 1, 46, 127
1, 109679, Note_off_c, 1, 69, 0
1, 109679, Note_off_c, 1, 62, 0
1, 109679, Note_off_c, 1, 46, 0
1, 109680, Note_on_c, 1, 62, 127
1, 109710, Note_on_c, 1, 65, 127
1, 109739, Note_off_c, 1, 62, 0
1, 109739, Note_off_c, 1, 65, 0
1, 109740, Note_on_c, 1, 70, 127
1, 109769, Note_off_c, 1, 70, 0
1, 109770, Note_on_c, 1, 69, 127
1, 109799, Note_off_c, 1, 69, 0
1, 109800, Note_on_c, 1, 67, 127
1, 109800, Note_on_c, 1, 70, 127
1, 109800, Note_on_c, 1, 62, 127
1, 109800, Note_on_c, 1, 40, 127
1, 109829, Note_off_c, 1, 67, 0
1, 109859, Note_off_c, 1, 70, 0
1, 109859, Note_off_c, 1, 62, 0
1, 109859, Note_off_c, 1, 40, 0
1, 109860, Note_on_c, 1, 67, 127
1, 109889, Note_off_c, 1, 67, 0
1, 109890, Note_on_c, 1, 64, 127
1, 109919, Note_off_c, 1, 64, 0
1, 109920, Note_on_c, 1, 58, 127
1, 109920, Note_on_c, 1, 67, 127
1, 109949, Note_off_c, 1, 58, 0
1, 109950, Note_on_c, 1, 62, 127
1, 109979, Note_off_c, 1, 67, 0
1, 109979, Note_off_c, 1, 62, 0
1, 109980, Note_on_c, 1, 61, 127
1, 109980, Note_on_c, 1, 67, 127
1, 109980, Note_on_c, 1, 73, 127
1, 109980, Note_on_c, 1, 45, 127
1, 110009, Note_off_c, 1, 61, 0
1, 110010, Note_on_c, 1, 64, 127
1, 110039, Note_off_c, 1, 67, 0
1, 110039, Note_off_c, 1, 73, 0
1, 110039, Note_off_c, 1, 45, 0
1, 110039, Note_off_c, 1, 64, 0
1, 110040, Note_on_c, 1, 57, 127
1, 110040, Note_on_c, 1, 61, 127
1, 110069, Note_off_c, 1, 57, 0
1, 110099, Note_off_c, 1, 61, 0
1, 110100, Note_on_c, 1, 64, 127
1, 110129, Note_off_c, 1, 64, 0
1, 110130, Note_on_c, 1, 67, 127
1, 110159, Note_off_c, 1, 67, 0
1, 110160, Note_on_c, 1, 65, 127
1, 110160, Note_on_c, 1, 69, 127
1, 110160, Note_on_c, 1, 38, 127
1, 110219, Note_off_c, 1, 65, 0
1, 110219, Note_off_c, 1, 69, 0
1, 110219, Note_off_c, 1, 38, 0
1, 110220, Note_on_c, 1, 65, 127
1, 110249, Note_off_c, 1, 65, 0
1, 110250, Note_on_c, 1, 62, 127
1, 110279, Note_off_c, 1, 62, 0
1, 110280, Note_on_c, 1, 57, 127
1, 110280, Note_on_c, 1, 69, 127
1, 110280, Note_on_c, 1, 65, 127
1, 110280, Note_on_c, 1, 50, 127
1, 110309, Note_off_c, 1, 57, 0
1, 110310, Note_on_c, 1, 60, 127
1, 110339, Note_off_c, 1, 69, 0
1, 110339, Note_off_c, 1, 65, 0
1, 110339, Note_off_c, 1, 60, 0
1, 110340, Note_on_c, 1, 59, 127
1, 110340, Note_on_c, 1, 68, 127
1, 110340, Note_on_c, 1, 64, 127
1, 110369, Note_off_c, 1, 59, 0
1, 110370, Note_on_c, 1, 62, 127
1, 110399, Note_off_c, 1, 50, 0
1, 110399, Note_off_c, 1, 68, 0
1, 110399, Note_off_c, 1, 64, 0
1, 110399, Note_off_c, 1, 62, 0
1, 110400, Note_on_c, 1, 65, 127
1, 110400, Note_on_c, 1, 71, 127
1, 110400, Note_on_c, 1, 64, 127
1, 110400, Note_on_c, 1, 62, 127
1, 110400, Note_on_c, 1, 44, 127
1, 110429, Note_off_c, 1, 44, 0
1, 110430, Note_on_c, 1, 42, 127
1, 110459, Note_off_c, 1, 65, 0
1, 110459, Note_off_c, 1, 71, 0
1, 110459, Note_off_c, 1, 64, 0
1, 110459, Note_off_c, 1, 62, 0
1, 110459, Note_off_c, 1, 42, 0
1, 110460, Note_on_c, 1, 74, 127
1, 110460, Note_on_c, 1, 68, 127
1, 110460, Note_on_c, 1, 62, 127
1, 110460, Note_on_c, 1, 44, 127
1, 110489, Note_off_c, 1, 44, 0
1, 110490, Note_on_c, 1, 40, 127
1, 110519, Note_off_c, 1, 74, 0
1, 110519, Note_off_c, 1, 68, 0
1, 110519, Note_off_c, 1, 62, 0
1, 110519, Note_off_c, 1, 40, 0
1, 110520, Note_on_c, 1, 74, 127
1, 110520, Note_on_c, 1, 71, 127
1, 110520, Note_on_c, 1, 45, 127
1, 110579, Note_off_c, 1, 74, 0
1, 110579, Note_off_c, 1, 71, 0
1, 110580, Note_on_c, 1, 73, 127
1, 110580, Note_on_c, 1, 69, 127
1, 110609, Note_off_c, 1, 45, 0
1, 110610, Note_on_c, 1, 47, 127
1, 110639, Note_off_c, 1, 73, 0
1, 110639, Note_off_c, 1, 69, 0
1, 110639, Note_off_c, 1, 47, 0
1, 110640, Note_on_c, 1, 67, 127
1, 110640, Note_on_c, 1, 49, 127
1, 110669, Note_off_c, 1, 49, 0
1, 110670, Note_on_c, 1, 45, 127
1, 110699, Note_off_c, 1, 67, 0
1, 110699, Note_off_c, 1, 45, 0
1, 110700, Note_on_c, 1, 66, 127
1, 110700, Note_on_c, 1, 69, 127
1, 110700, Note_on_c, 1, 50, 127
1, 110759, Note_off_c, 1, 66, 0
1, 110759, Note_off_c, 1, 69, 0
1, 110759, Note_off_c, 1, 50, 0
1, 110760, Note_on_c, 1, 69, 127
1, 110760, Note_on_c, 1, 72, 127
1, 110760, Note_on_c, 1, 62, 127
1, 110760, Note_on_c, 1, 42, 127
1, 110789, Note_off_c, 1, 42, 0
1, 110790, Note_on_c, 1, 40, 127
1, 110819, Note_off_c, 1, 69, 0
1, 110819, Note_off_c, 1, 72, 0
1, 110819, Note_off_c, 1, 62, 0
1, 110819, Note_off_c, 1, 40, 0
1, 110820, Note_on_c, 1, 72, 127
1, 110820, Note_on_c, 1, 66, 127
1, 110820, Note_on_c, 1, 42, 127
1, 110849, Note_off_c, 1, 42, 0
1, 110850, Note_on_c, 1, 38, 127
1, 110879, Note_off_c, 1, 72, 0
1, 110879, Note_off_c, 1, 66, 0
1, 110879, Note_off_c, 1, 38, 0
1, 110880, Note_on_c, 1, 72, 127
1, 110880, Note_on_c, 1, 69, 127
1, 110880, Note_on_c, 1, 43, 127
1, 110890, Note_on_c, 1, 74, 127
1, 110900, Note_off_c, 1, 74, 0
1, 110939, Note_off_c, 1, 69, 0
1, 110940, Note_off_c, 1, 72, 0
1, 110940, Note_on_c, 1, 71, 127
1, 110940, Note_on_c, 1, 67, 127
1, 110969, Note_off_c, 1, 43, 0
1, 110970, Note_on_c, 1, 45, 127
1, 110999, Note_off_c, 1, 71, 0
1, 110999, Note_off_c, 1, 67, 0
1, 110999, Note_off_c, 1, 45, 0
1, 111000, Note_on_c, 1, 65, 127
1, 111000, Note_on_c, 1, 47, 127
1, 111029, Note_off_c, 1, 47, 0
1, 111030, Note_on_c, 1, 43, 127
1, 111059, Note_off_c, 1, 65, 0
1, 111059, Note_off_c, 1, 43, 0
1, 111060, Note_on_c, 1, 64, 127
1, 111060, Note_on_c, 1, 67, 127
1, 111060, Note_on_c, 1, 48, 127
1, 111119, Note_off_c, 1, 64, 0
1, 111119, Note_off_c, 1, 67, 0
1, 111119, Note_off_c, 1, 48, 0
1, 111120, Note_on_c, 1, 67, 127
1, 111120, Note_on_c, 1, 72, 127
1, 111120, Note_on_c, 1, 70, 127
1, 111120, Note_on_c, 1, 40, 127
1, 111149, Note_off_c, 1, 40, 0
1, 111150, Note_on_c, 1, 38, 127
1, 111179, Note_off_c, 1, 67, 0
1, 111179, Note_off_c, 1, 72, 0
1, 111179, Note_off_c, 1, 70, 0
1, 111179, Note_off_c, 1, 38, 0
1, 111180, Note_on_c, 1, 70, 127
1, 111180, Note_on_c, 1, 67, 127
1, 111180, Note_on_c, 1, 40, 127
1, 111209, Note_off_c, 1, 40, 0
1, 111210, Note_on_c, 1, 36, 127
1, 111239, Note_off_c, 1, 70, 0
1, 111239, Note_off_c, 1, 67, 0
1, 111239, Note_off_c, 1, 36, 0
1, 111240, Note_on_c, 1, 70, 127
1, 111240, Note_on_c, 1, 67, 127
1, 111240, Note_on_c, 1, 41, 127
1, 111299, Note_off_c, 1, 70, 0
1, 111299, Note_off_c, 1, 67, 0
1, 111299, Note_off_c, 1, 41, 0
1, 111300, Note_on_c, 1, 69, 127
1, 111300, Note_on_c, 1, 65, 127
1, 111300, Note_on_c, 1, 53, 127
1, 111329, Note_off_c, 1, 53, 0
1, 111330, Note_on_c, 1, 52, 127
1, 111359, Note_off_c, 1, 69, 0
1, 111359, Note_off_c, 1, 65, 0
1, 111359, Note_off_c, 1, 52, 0
1, 111360, Note_on_c, 1, 74, 127
1, 111360, Note_on_c, 1, 53, 127
1, 111389, Note_off_c, 1, 53, 0
1, 111390, Note_on_c, 1, 65, 127
1, 111390, Note_on_c, 1, 50, 127
1, 111419, Note_off_c, 1, 74, 0
1, 111419, Note_off_c, 1, 50, 0
1, 111420, Note_off_c, 1, 65, 0
1, 111420, Note_on_c, 1, 73, 127
1, 111420, Note_on_c, 1, 64, 127
1, 111420, Note_on_c, 1, 52, 127
1, 111479, Note_off_c, 1, 73, 0
1, 111479, Note_off_c, 1, 64, 0
1, 111479, Note_off_c, 1, 52, 0
1, 111480, Note_on_c, 1, 76, 127
1, 111480, Note_on_c, 1, 69, 127
1, 111480, Note_on_c, 1, 67, 127
1, 111480, Note_on_c, 1, 49, 127
1, 111539, Note_off_c, 1, 76, 0
1, 111539, Note_off_c, 1, 69, 0
1, 111539, Note_off_c, 1, 67, 0
1, 111539, Note_off_c, 1, 49, 0
1, 111540, Note_on_c, 1, 67, 127
1, 111540, Note_on_c, 1, 73, 127
1, 111540, Note_on_c, 1, 45, 127
1, 111599, Note_off_c, 1, 67, 0
1, 111599, Note_off_c, 1, 73, 0
1, 111599, Note_off_c, 1, 45, 0
1, 111600, Note_on_c, 1, 65, 127
1, 111600, Note_on_c, 1, 74, 127
1, 111600, Note_on_c, 1, 50, 127
1, 111630, Note_on_c, 1, 69, 127
1, 111659, Note_off_c, 1, 65, 0
1, 111659, Note_off_c, 1, 74, 0
1, 111659, Note_off_c, 1, 50, 0
1, 111659, Note_off_c, 1, 69, 0
1, 111660, Note_on_c, 1, 65, 127
1, 111660, Note_on_c, 1, 38, 127
1, 111689, Note_off_c, 1, 65, 0
1, 111690, Note_on_c, 1, 62, 127
1, 111719, Note_off_c, 1, 38, 0
1, 111719, Note_off_c, 1, 62, 0
1, 111720, Note_on_c, 1, 57, 127
1, 111720, Note_on_c, 1, 74, 127
1, 111720, Note_on_c, 1, 41, 127
1, 111749, Note_off_c, 1, 57, 0
1, 111750, Note_on_c, 1, 62, 127
1, 111779, Note_off_c, 1, 74, 0
1, 111779, Note_off_c, 1, 41, 0
1, 111779, Note_off_c, 1, 62, 0
1, 111780, Note_on_c, 1, 64, 127
1, 111780, Note_on_c, 1, 73, 127
1, 111780, Note_on_c, 1, 69, 127
1, 111780, Note_on_c, 1, 45, 127
1, 111810, Note_on_c, 1, 67, 127
1, 111839, Note_off_c, 1, 64, 0
1, 111839, Note_off_c, 1, 73, 0
1, 111839, Note_off_c, 1, 69, 0
1, 111839, Note_off_c, 1, 45, 0
1, 111839, Note_off_c, 1, 67, 0
1, 111840, Note_on_c, 1, 64, 127
1, 111840, Note_on_c, 1, 76, 127
1, 111869, Note_off_c, 1, 64, 0
1, 111870, Note_on_c, 1, 61, 127
1, 111899, Note_off_c, 1, 76, 0
1, 111899, Note_off_c, 1, 61, 0
1, 111900, Note_on_c, 1, 57, 127
1, 111900, Note_on_c, 1, 67, 127
1, 111900, Note_on_c, 1, 73, 127
1, 111900, Note_on_c, 1, 64, 127
1, 111930, Note_on_c, 1, 61, 127
1, 111959, Note_off_c, 1, 57, 0
1, 111959, Note_off_c, 1, 67, 0
1, 111959, Note_off_c, 1, 73, 0
1, 111959, Note_off_c, 1, 64, 0
1, 111959, Note_off_c, 1, 61, 0
1, 111960, Note_on_c, 1, 62, 127
1, 111960, Note_on_c, 1, 65, 127
1, 111960, Note_on_c, 1, 74, 127
1, 111960, Note_on_c, 1, 69, 127
1, 111960, Note_on_c, 1, 50, 127
1, 111989, Note_off_c, 1, 62, 0
1, 112019, Note_off_c, 1, 65, 0
1, 112019, Note_off_c, 1, 74, 0
1, 112019, Note_off_c, 1, 69, 0
1, 112019, Note_off_c, 1, 50, 0
1, 112020, Note_on_c, 1, 57, 127
1, 112020, Note_on_c, 1, 64, 127
1, 112049, Note_off_c, 1, 57, 0
1, 112049, Note_off_c, 1, 64, 0
1, 112050, Note_on_c, 1, 62, 127
1, 112079, Note_off_c, 1, 62, 0
1, 112080, Note_on_c, 1, 65, 127
1, 112080, Note_on_c, 1, 72, 127
1, 112080, Note_on_c, 1, 69, 127
1, 112080, Note_on_c, 1, 38, 127
1, 112139, Note_off_c, 1, 65, 0
1, 112139, Note_off_c, 1, 72, 0
1, 112139, Note_off_c, 1, 69, 0
1, 112139, Note_off_c, 1, 38, 0
1, 112140, Note_on_c, 1, 71, 127
1, 112140, Note_on_c, 1, 67, 127
1, 112140, Note_on_c, 1, 62, 127
1, 112140, Note_on_c, 1, 43, 127
1, 112170, Note_on_c, 1, 74, 127
1, 112199, Note_off_c, 1, 71, 0
1, 112199, Note_off_c, 1, 67, 0
1, 112199, Note_off_c, 1, 62, 0
1, 112199, Note_off_c, 1, 43, 0
1, 112199, Note_off_c, 1, 74, 0
1, 112200, Note_on_c, 1, 71, 127
1, 112200, Note_on_c, 1, 74, 127
1, 112229, Note_off_c, 1, 71, 0
1, 112230, Note_on_c, 1, 67, 127
1, 112259, Note_off_c, 1, 74, 0
1, 112259, Note_off_c, 1, 67, 0
1, 112260, Note_on_c, 1, 62, 127
1, 112260, Note_on_c, 1, 65, 127
1, 112260, Note_on_c, 1, 67, 127
1, 112260, Note_on_c, 1, 71, 127
1, 112260, Note_on_c, 1, 47, 127
1, 112289, Note_off_c, 1, 62, 0
1, 112319, Note_off_c, 1, 65, 0
1, 112319, Note_off_c, 1, 67, 0
1, 112319, Note_off_c, 1, 71, 0
1, 112319, Note_off_c, 1, 47, 0
1, 112320, Note_on_c, 1, 64, 127
1, 112320, Note_on_c, 1, 72, 127
1, 112320, Note_on_c, 1, 67, 127
1, 112320, Note_on_c, 1, 48, 127
1, 112379, Note_off_c, 1, 64, 0
1, 112379, Note_off_c, 1, 72, 0
1, 112379, Note_off_c, 1, 67, 0
1, 112379, Note_off_c, 1, 48, 0
1, 112380, Note_on_c, 1, 60, 127
1, 112380, Note_on_c, 1, 62, 127
1, 112409, Note_off_c, 1, 60, 0
1, 112409, Note_off_c, 1, 62, 0
1, 112410, Note_on_c, 1, 64, 127
1, 112410, Note_on_c, 1, 60, 127
1, 112439, Note_off_c, 1, 64, 0
1, 112439, Note_off_c, 1, 60, 0
1, 112440, Note_on_c, 1, 67, 127
1, 112440, Note_on_c, 1, 64, 127
1, 112440, Note_on_c, 1, 70, 127
1, 112440, Note_on_c, 1, 36, 127
1, 112499, Note_off_c, 1, 67, 0
1, 112499, Note_off_c, 1, 64, 0
1, 112499, Note_off_c, 1, 70, 0
1, 112499, Note_off_c, 1, 36, 0
1, 112500, Note_on_c, 1, 69, 127
1, 112500, Note_on_c, 1, 74, 127
1, 112500, Note_on_c, 1, 65, 127
1, 112500, Note_on_c, 1, 62, 127
1, 112500, Note_on_c, 1, 41, 127
1, 112530, Note_on_c, 1, 68, 127
1, 112559, Note_off_c, 1, 69, 0
1, 112559, Note_off_c, 1, 74, 0
1, 112559, Note_off_c, 1, 65, 0
1, 112559, Note_off_c, 1, 62, 0
1, 112559, Note_off_c, 1, 41, 0
1, 112559, Note_off_c, 1, 68, 0
1, 112560, Note_on_c, 1, 69, 127
1, 112560, Note_on_c, 1, 72, 127
1, 112560, Note_on_c, 1, 52, 127
1, 112589, Note_off_c, 1, 69, 0
1, 112590, Note_on_c, 1, 68, 127
1, 112619, Note_off_c, 1, 72, 0
1, 112619, Note_off_c, 1, 52, 0
1, 112619, Note_off_c, 1, 68, 0
1, 112620, Note_on_c, 1, 69, 127
1, 112620, Note_on_c, 1, 71, 127
1, 112620, Note_on_c, 1, 50, 127
1, 112649, Note_off_c, 1, 69, 0
1, 112650, Note_on_c, 1, 77, 127
1, 112679, Note_off_c, 1, 71, 0
1, 112679, Note_off_c, 1, 50, 0
1, 112679, Note_off_c, 1, 77, 0
1, 112680, Note_on_c, 1, 76, 127
1, 112680, Note_on_c, 1, 69, 127
1, 112680, Note_on_c, 1, 48, 127
1, 112710, Note_on_c, 1, 75, 127
1, 112739, Note_off_c, 1, 76, 0
1, 112739, Note_off_c, 1, 69, 0
1, 112739, Note_off_c, 1, 48, 0
1, 112739, Note_off_c, 1, 75, 0
1, 112740, Note_on_c, 1, 76, 127
1, 112740, Note_on_c, 1, 69, 127
1, 112769, Note_off_c, 1, 76, 0
1, 112770, Note_on_c, 1, 75, 127
1, 112799, Note_off_c, 1, 69, 0
1, 112799, Note_off_c, 1, 75, 0
1, 112800, Note_on_c, 1, 76, 127
1, 112800, Note_on_c, 1, 71, 127
1, 112800, Note_on_c, 1, 68, 127
1, 112800, Note_on_c, 1, 47, 127
1, 112829, Note_off_c, 1, 76, 0
1, 112830, Note_on_c, 1, 80, 127
1, 112859, Note_off_c, 1, 71, 0
1, 112859, Note_off_c, 1, 68, 0
1, 112859, Note_off_c, 1, 47, 0
1, 112859, Note_off_c, 1, 80, 0
1, 112860, Note_on_c, 1, 81, 127
1, 112860, Note_on_c, 1, 64, 127
1, 112860, Note_on_c, 1, 69, 127
1, 112860, Note_on_c, 1, 72, 127
1, 112860, Note_on_c, 1, 48, 127
1, 112919, Note_off_c, 1, 81, 0
1, 112919, Note_off_c, 1, 64, 0
1, 112919, Note_off_c, 1, 69, 0
1, 112919, Note_off_c, 1, 72, 0
1, 112919, Note_off_c, 1, 48, 0
1, 112920, Note_on_c, 1, 60, 127
1, 112920, Note_on_c, 1, 72, 127
1, 112920, Note_on_c, 1, 74, 127
1, 112920, Note_on_c, 1, 69, 127
1, 112920, Note_on_c, 1, 50, 127
1, 112949, Note_off_c, 1, 72, 0
1, 112950, Note_on_c, 1, 71, 127
1, 112979, Note_off_c, 1, 60, 0
1, 112979, Note_off_c, 1, 74, 0
1, 112979, Note_off_c, 1, 69, 0
1, 112979, Note_off_c, 1, 50, 0
1, 112979, Note_off_c, 1, 71, 0
1, 112980, Note_on_c, 1, 59, 127
1, 112980, Note_on_c, 1, 69, 127
1, 112980, Note_on_c, 1, 68, 127
1, 112980, Note_on_c, 1, 71, 127
1, 112980, Note_on_c, 1, 52, 127
1, 112990, Note_off_c, 1, 59, 0
1, 112990, Note_on_c, 1, 60, 127
1, 113000, Note_off_c, 1, 60, 0
1, 113009, Note_off_c, 1, 69, 0
1, 113039, Note_off_c, 1, 68, 0
1, 113039, Note_off_c, 1, 71, 0
1, 113039, Note_off_c, 1, 52, 0
1, 113040, Note_on_c, 1, 57, 127
1, 113040, Note_on_c, 1, 64, 127
1, 113040, Note_on_c, 1, 45, 127
1, 113159, Note_off_c, 1, 57, 0
1, 113159, Note_off_c, 1, 64, 0
1, 113159, Note_off_c, 1, 45, 0
1, 113160, Note_on_c, 1, 64, 127
1, 113219, Note_off_c, 1, 64, 0
1, 113220, Note_on_c, 1, 69, 127
1, 113279, Note_off_c, 1, 69, 0
1, 113280, Note_on_c, 1, 72, 127
1, 113339, Note_off_c, 1, 72, 0
1, 113340, Note_on_c, 1, 71, 127
1, 113340, Note_on_c, 1, 68, 127
1, 113340, Note_on_c, 1, 40, 127
1, 113350, Note_off_c, 1, 71, 0
1, 113350, Note_on_c, 1, 72, 127
1, 113360, Note_off_c, 1, 72, 0
1, 113399, Note_off_c, 1, 68, 0
1, 113399, Note_off_c, 1, 40, 0
1, 113400, Note_on_c, 1, 69, 127
1, 113400, Note_on_c, 1, 45, 127
1, 113459, Note_off_c, 1, 69, 0
1, 113459, Note_off_c, 1, 45, 0
1, 113460, Note_on_c, 1, 68, 127
1, 113460, Note_on_c, 1, 47, 127
1, 113519, Note_off_c, 1, 68, 0
1, 113519, Note_off_c, 1, 47, 0
1, 113520, Note_on_c, 1, 69, 127
1, 113520, Note_on_c, 1, 48, 127
1, 113579, Note_off_c, 1, 69, 0
1, 113579, Note_off_c, 1, 48, 0
1, 113580, Note_on_c, 1, 67, 127
1, 113580, Note_on_c, 1, 62, 127
1, 113580, Note_on_c, 1, 65, 127
1, 113580, Note_on_c, 1, 50, 127
1, 113609, Note_off_c, 1, 67, 0
1, 113639, Note_off_c, 1, 62, 0
1, 113639, Note_off_c, 1, 65, 0
1, 113639, Note_off_c, 1, 50, 0
1, 113640, Note_on_c, 1, 64, 127
1, 113640, Note_on_c, 1, 67, 127
1, 113640, Note_on_c, 1, 65, 127
1, 113640, Note_on_c, 1, 55, 127
1, 113669, Note_off_c, 1, 64, 0
1, 113670, Note_on_c, 1, 62, 127
1, 113699, Note_off_c, 1, 67, 0
1, 113699, Note_off_c, 1, 65, 0
1, 113699, Note_off_c, 1, 55, 0
1, 113699, Note_off_c, 1, 62, 0
1, 113700, Note_on_c, 1, 67, 127
1, 113700, Note_on_c, 1, 65, 127
1, 113700, Note_on_c, 1, 62, 127
1, 113700, Note_on_c, 1, 43, 127
1, 113729, Note_off_c, 1, 67, 0
1, 113759, Note_off_c, 1, 65, 0
1, 113759, Note_off_c, 1, 62, 0
1, 113759, Note_off_c, 1, 43, 0
1, 113760, Note_on_c, 1, 64, 127
1, 113760, Note_on_c, 1, 60, 127
1, 113760, Note_on_c, 1, 48, 127
1, 113770, Note_on_c, 1, 65, 127
1, 113780, Note_off_c, 1, 65, 0
1, 113819, Note_off_c, 1, 60, 0
1, 113819, Note_off_c, 1, 48, 0
1, 113820, Note_off_c, 1, 64, 0
1, 113820, Note_on_c, 1, 62, 127
1, 113820, Note_on_c, 1, 52, 127
1, 113849, Note_off_c, 1, 62, 0
1, 113879, Note_off_c, 1, 52, 0
1, 113880, Note_on_c, 1, 72, 127
1, 113880, Note_on_c, 1, 64, 127
1, 113880, Note_on_c, 1, 60, 127
1, 113880, Note_on_c, 1, 45, 127
1, 113939, Note_off_c, 1, 72, 0
1, 113939, Note_off_c, 1, 64, 0
1, 113939, Note_off_c, 1, 60, 0
1, 113939, Note_off_c, 1, 45, 0
1, 113940, Note_on_c, 1, 71, 127
1, 113940, Note_on_c, 1, 65, 127
1, 113940, Note_on_c, 1, 62, 127
1, 113940, Note_on_c, 1, 50, 127
1, 113999, Note_off_c, 1, 71, 0
1, 113999, Note_off_c, 1, 65, 0
1, 113999, Note_off_c, 1, 62, 0
1, 114000, Note_on_c, 1, 72, 127
1, 114029, Note_off_c, 1, 72, 0
1, 114059, Note_off_c, 1, 50, 0
1, 114060, Note_on_c, 1, 69, 127
1, 114060, Note_on_c, 1, 68, 127
1, 114060, Note_on_c, 1, 64, 127
1, 114060, Note_on_c, 1, 52, 127
1, 114089, Note_off_c, 1, 69, 0
1, 114119, Note_off_c, 1, 68, 0
1, 114119, Note_off_c, 1, 64, 0
1, 114119, Note_off_c, 1, 52, 0
1, 114120, Note_on_c, 1, 69, 127
1, 114120, Note_on_c, 1, 64, 127
1, 114120, Note_on_c, 1, 48, 127
1, 114179, Note_off_c, 1, 69, 0
1, 114179, Note_off_c, 1, 64, 0
1, 114179, Note_off_c, 1, 48, 0
1, 114180, Note_on_c, 1, 71, 127
1, 114180, Note_on_c, 1, 50, 127
1, 114209, Note_off_c, 1, 50, 0
1, 114210, Note_on_c, 1, 48, 127
1, 114239, Note_off_c, 1, 71, 0
1, 114239, Note_off_c, 1, 48, 0
1, 114240, Note_on_c, 1, 72, 127
1, 114240, Note_on_c, 1, 47, 127
1, 114269, Note_off_c, 1, 47, 0
1, 114270, Note_on_c, 1, 45, 127
1, 114299, Note_off_c, 1, 72, 0
1, 114299, Note_off_c, 1, 45, 0
1, 114300, Note_on_c, 1, 74, 127
1, 114300, Note_on_c, 1, 62, 127
1, 114300, Note_on_c, 1, 64, 127
1, 114300, Note_on_c, 1, 44, 127
1, 114359, Note_off_c, 1, 74, 0
1, 114359, Note_off_c, 1, 62, 0
1, 114359, Note_off_c, 1, 64, 0
1, 114359, Note_off_c, 1, 44, 0
1, 114360, Note_on_c, 1, 72, 127
1, 114360, Note_on_c, 1, 45, 127
1, 114389, Note_off_c, 1, 72, 0
1, 114389, Note_off_c, 1, 45, 0
1, 114390, Note_on_c, 1, 71, 127
1, 114390, Note_on_c, 1, 44, 127
1, 114419, Note_off_c, 1, 71, 0
1, 114419, Note_off_c, 1, 44, 0
1, 114420, Note_on_c, 1, 72, 127
1, 114420, Note_on_c, 1, 64, 127
1, 114420, Note_on_c, 1, 60, 127
1, 114420, Note_on_c, 1, 45, 127
1, 114479, Note_off_c, 1, 72, 0
1, 114479, Note_off_c, 1, 64, 0
1, 114479, Note_off_c, 1, 60, 0
1, 114479, Note_off_c, 1, 45, 0
1, 114480, Note_on_c, 1, 72, 127
1, 114480, Note_on_c, 1, 64, 127
1, 114480, Note_on_c, 1, 68, 127
1, 114480, Note_on_c, 1, 40, 127
1, 114509, Note_off_c, 1, 72, 0
1, 114510, Note_on_c, 1, 71, 127
1, 114539, Note_off_c, 1, 64, 0
1, 114539, Note_off_c, 1, 68, 0
1, 114539, Note_off_c, 1, 40, 0
1, 114540, Note_on_c, 1, 52, 127
1, 114569, Note_off_c, 1, 71, 0
1, 114599, Note_off_c, 1, 52, 0
1, 114600, Note_on_c, 1, 76, 127
1, 114600, Note_on_c, 1, 62, 127
1, 114600, Note_on_c, 1, 56, 127
1, 114630, Note_on_c, 1, 74, 127
1, 114659, Note_off_c, 1, 76, 0
1, 114659, Note_off_c, 1, 62, 0
1, 114659, Note_off_c, 1, 56, 0
1, 114659, Note_off_c, 1, 74, 0
1, 114660, Note_on_c, 1, 73, 127
1, 114660, Note_on_c, 1, 64, 127
1, 114660, Note_on_c, 1, 57, 127
1, 114690, Note_on_c, 1, 76, 127
1, 114719, Note_off_c, 1, 73, 0
1, 114719, Note_off_c, 1, 64, 0
1, 114719, Note_off_c, 1, 57, 0
1, 114719, Note_off_c, 1, 76, 0
1, 114720, Note_on_c, 1, 73, 127
1, 114720, Note_on_c, 1, 45, 127
1, 114749, Note_off_c, 1, 73, 0
1, 114750, Note_on_c, 1, 69, 127
1, 114779, Note_off_c, 1, 45, 0
1, 114779, Note_off_c, 1, 69, 0
1, 114780, Note_on_c, 1, 64, 127
1, 114780, Note_on_c, 1, 69, 127
1, 114780, Note_on_c, 1, 67, 127
1, 114780, Note_on_c, 1, 49, 127
1, 114809, Note_off_c, 1, 64, 0
1, 114839, Note_off_c, 1, 69, 0
1, 114839, Note_off_c, 1, 67, 0
1, 114839, Note_off_c, 1, 49, 0
1, 114840, Note_on_c, 1, 65, 127
1, 114840, Note_on_c, 1, 69, 127
1, 114840, Note_on_c, 1, 50, 127
1, 114899, Note_off_c, 1, 65, 0
1, 114899, Note_off_c, 1, 69, 0
1, 114899, Note_off_c, 1, 50, 0
1, 114900, Note_on_c, 1, 62, 127
1, 114929, Note_off_c, 1, 62, 0
1, 114930, Note_on_c, 1, 69, 127
1, 114959, Note_off_c, 1, 69, 0
1, 114960, Note_on_c, 1, 74, 127
1, 114960, Note_on_c, 1, 69, 127
1, 114960, Note_on_c, 1, 53, 127
1, 114990, Note_off_c, 1, 74, 0
1, 114990, Note_on_c, 1, 72, 127
1, 115019, Note_off_c, 1, 69, 0
1, 115019, Note_off_c, 1, 53, 0
1, 115020, Note_off_c, 1, 72, 0
1, 115020, Note_on_c, 1, 71, 127
1, 115020, Note_on_c, 1, 67, 127
1, 115020, Note_on_c, 1, 55, 127
1, 115049, Note_off_c, 1, 71, 0
1, 115079, Note_off_c, 1, 67, 0
1, 115079, Note_off_c, 1, 55, 0
1, 115080, Note_on_c, 1, 71, 127
1, 115080, Note_on_c, 1, 43, 127
1, 115109, Note_off_c, 1, 71, 0
1, 115110, Note_on_c, 1, 67, 127
1, 115139, Note_off_c, 1, 43, 0
1, 115139, Note_off_c, 1, 67, 0
1, 115140, Note_on_c, 1, 62, 127
1, 115140, Note_on_c, 1, 67, 127
1, 115140, Note_on_c, 1, 47, 127
1, 115169, Note_off_c, 1, 62, 0
1, 115170, Note_off_c, 1, 67, 0
1, 115170, Note_on_c, 1, 65, 127
1, 115199, Note_off_c, 1, 47, 0
1, 115200, Note_off_c, 1, 65, 0
1, 115200, Note_on_c, 1, 64, 127
1, 115200, Note_on_c, 1, 48, 127
1, 115259, Note_off_c, 1, 64, 0
1, 115259, Note_off_c, 1, 48, 0
1, 115260, Note_on_c, 1, 60, 127
1, 115289, Note_off_c, 1, 60, 0
1, 115290, Note_on_c, 1, 67, 127
1, 115319, Note_off_c, 1, 67, 0
1, 115320, Note_on_c, 1, 72, 127
1, 115320, Note_on_c, 1, 64, 127
1, 115320, Note_on_c, 1, 52, 127
1, 115350, Note_on_c, 1, 71, 127
1, 115379, Note_off_c, 1, 72, 0
1, 115379, Note_off_c, 1, 64, 0
1, 115379, Note_off_c, 1, 52, 0
1, 115379, Note_off_c, 1, 71, 0
1, 115380, Note_on_c, 1, 69, 127
1, 115380, Note_on_c, 1, 72, 127
1, 115380, Note_on_c, 1, 65, 127
1, 115380, Note_on_c, 1, 53, 127
1, 115409, Note_off_c, 1, 69, 0
1, 115410, Note_on_c, 1, 68, 127
1, 115439, Note_off_c, 1, 72, 0
1, 115439, Note_off_c, 1, 65, 0
1, 115439, Note_off_c, 1, 53, 0
1, 115439, Note_off_c, 1, 68, 0
1, 115440, Note_on_c, 1, 69, 127
1, 115440, Note_on_c, 1, 52, 127
1, 115469, Note_off_c, 1, 69, 0
1, 115470, Note_on_c, 1, 68, 127
1, 115499, Note_off_c, 1, 52, 0
1, 115499, Note_off_c, 1, 68, 0
1, 115500, Note_on_c, 1, 69, 127
1, 115500, Note_on_c, 1, 50, 127
1, 115529, Note_off_c, 1, 69, 0
1, 115530, Note_on_c, 1, 77, 127
1, 115530, Note_on_c, 1, 74, 127
1, 115559, Note_off_c, 1, 50, 0
1, 115559, Note_off_c, 1, 77, 0
1, 115559, Note_off_c, 1, 74, 0
1, 115560, Note_on_c, 1, 76, 127
1, 115560, Note_on_c, 1, 72, 127
1, 115560, Note_on_c, 1, 69, 127
1, 115560, Note_on_c, 1, 48, 127
1, 115589, Note_off_c, 1, 76, 0
1, 115589, Note_off_c, 1, 72, 0
1, 115590, Note_on_c, 1, 75, 127
1, 115590, Note_on_c, 1, 71, 127
1, 115619, Note_off_c, 1, 69, 0
1, 115619, Note_off_c, 1, 48, 0
1, 115619, Note_off_c, 1, 75, 0
1, 115619, Note_off_c, 1, 71, 0
1, 115620, Note_on_c, 1, 76, 127
1, 115620, Note_on_c, 1, 72, 127
1, 115620, Note_on_c, 1, 69, 127
1, 115620, Note_on_c, 1, 45, 127
1, 115649, Note_off_c, 1, 76, 0
1, 115649, Note_off_c, 1, 72, 0
1, 115650, Note_on_c, 1, 75, 127
1, 115650, Note_on_c, 1, 71, 127
1, 115679, Note_off_c, 1, 69, 0
1, 115679, Note_off_c, 1, 45, 0
1, 115679, Note_off_c, 1, 75, 0
1, 115679, Note_off_c, 1, 71, 0
1, 115680, Note_on_c, 1, 76, 127
1, 115680, Note_on_c, 1, 72, 127
1, 115680, Note_on_c, 1, 68, 127
1, 115680, Note_on_c, 1, 47, 127
1, 115709, Note_off_c, 1, 76, 0
1, 115709, Note_off_c, 1, 72, 0
1, 115710, Note_on_c, 1, 80, 127
1, 115739, Note_off_c, 1, 68, 0
1, 115739, Note_off_c, 1, 47, 0
1, 115739, Note_off_c, 1, 80, 0
1, 115740, Note_on_c, 1, 81, 127
1, 115740, Note_on_c, 1, 76, 127
1, 115740, Note_on_c, 1, 48, 127
1, 115799, Note_off_c, 1, 81, 0
1, 115799, Note_off_c, 1, 76, 0
1, 115799, Note_off_c, 1, 48, 0
1, 115800, Note_on_c, 1, 60, 127
1, 115800, Note_on_c, 1, 69, 127
1, 115800, Note_on_c, 1, 50, 127
1, 115859, Note_off_c, 1, 60, 0
1, 115859, Note_off_c, 1, 69, 0
1, 115859, Note_off_c, 1, 50, 0
1, 115860, Note_on_c, 1, 59, 127
1, 115860, Note_on_c, 1, 68, 127
1, 115860, Note_on_c, 1, 52, 127
1, 115870, Note_off_c, 1, 59, 0
1, 115870, Note_on_c, 1, 60, 127
1, 115880, Note_off_c, 1, 60, 0
1, 115919, Note_off_c, 1, 68, 0
1, 115919, Note_off_c, 1, 52, 0
1, 115920, Note_on_c, 1, 57, 127
1, 115920, Note_on_c, 1, 69, 127
1, 115920, Note_on_c, 1, 64, 127
1, 115920, Note_on_c, 1, 45, 127
1, 116099, Note_off_c, 1, 57, 0
1, 116100, Note_off_c, 1, 69, 0
1, 116100, Note_off_c, 1, 64, 0
1, 116100, Note_off_c, 1, 45, 0
1, 116460, Note_on_c, 1, 76, 127
1, 116460, Note_on_c, 1, 64, 127
1, 116460, Note_on_c, 1, 56, 127
1, 116460, Note_on_c, 1, 52, 127
1, 116520, Note_on_c, 1, 62, 127
1, 116579, Note_off_c, 1, 76, 0
1, 116579, Note_off_c, 1, 64, 0
1, 116579, Note_off_c, 1, 56, 0
1, 116579, Note_off_c, 1, 52, 0
1, 116579, Note_off_c, 1, 62, 0
1, 116580, Note_on_c, 1, 81, 127
1, 116580, Note_on_c, 1, 69, 127
1, 116580, Note_on_c, 1, 60, 127
1, 116580, Note_on_c, 1, 57, 127
1, 116580, Note_on_c, 1, 53, 127
1, 116639, Note_off_c, 1, 60, 0
1, 116640, Note_on_c, 1, 62, 127
1, 116699, Note_off_c, 1, 81, 0
1, 116699, Note_off_c, 1, 69, 0
1, 116699, Note_off_c, 1, 57, 0
1, 116699, Note_off_c, 1, 53, 0
1, 116699, Note_off_c, 1, 62, 0
1, 116700, Note_on_c, 1, 79, 127
1, 116700, Note_on_c, 1, 67, 127
1, 116700, Note_on_c, 1, 62, 127
1, 116700, Note_on_c, 1, 59, 127
1, 116700, Note_on_c, 1, 55, 127
1, 116759, Note_off_c, 1, 62, 0
1, 116760, Note_on_c, 1, 64, 127
1, 116819, Note_off_c, 1, 79, 0
1, 116819, Note_off_c, 1, 67, 0
1, 116819, Note_off_c, 1, 59, 0
1, 116819, Note_off_c, 1, 55, 0
1, 116819, Note_off_c, 1, 64, 0
1, 116820, Note_on_c, 1, 77, 127
1, 116820, Note_on_c, 1, 65, 127
1, 116820, Note_on_c, 1, 64, 127
1, 116820, Note_on_c, 1, 60, 127
1, 116820, Note_on_c, 1, 57, 127
1, 116820, Note_on_c, 1, 45, 127
1, 116879, Note_off_c, 1, 64, 0
1, 116879, Note_off_c, 1, 60, 0
1, 116879, Note_off_c, 1, 57, 0
1, 116879, Note_off_c, 1, 45, 0
1, 116880, Note_on_c, 1, 62, 127
1, 116880, Note_on_c, 1, 59, 127
1, 116880, Note_on_c, 1, 47, 127
1, 116939, Note_off_c, 1, 77, 0
1, 116939, Note_off_c, 1, 65, 0
1, 116939, Note_off_c, 1, 62, 0
1, 116939, Note_off_c, 1, 59, 0
1, 116939, Note_off_c, 1, 47, 0
1, 116940, Note_on_c, 1, 76, 127
1, 116940, Note_on_c, 1, 64, 127
1, 116940, Note_on_c, 1, 62, 127
1, 116940, Note_on_c, 1, 55, 127
1, 116940, Note_on_c, 1, 60, 127
1, 116940, Note_on_c, 1, 48, 127
1, 116999, Note_off_c, 1, 62, 0
1, 117059, Note_off_c, 1, 76, 0
1, 117059, Note_off_c, 1, 64, 0
1, 117059, Note_off_c, 1, 55, 0
1, 117059, Note_off_c, 1, 60, 0
1, 117059, Note_off_c, 1, 48, 0
1, 117060, Note_on_c, 1, 74, 127
1, 117060, Note_on_c, 1, 62, 127
1, 117060, Note_on_c, 1, 60, 127
1, 117060, Note_on_c, 1, 57, 127
1, 117060, Note_on_c, 1, 53, 127
1, 117060, Note_on_c, 1, 41, 127
1, 117119, Note_off_c, 1, 57, 0
1, 117120, Note_on_c, 1, 56, 127
1, 117179, Note_off_c, 1, 60, 0
1, 117179, Note_off_c, 1, 56, 0
1, 117180, Note_on_c, 1, 59, 127
1, 117239, Note_off_c, 1, 59, 0
1, 117299, Note_off_c, 1, 74, 0
1, 117299, Note_off_c, 1, 62, 0
1, 117299, Note_off_c, 1, 53, 0
1, 117299, Note_off_c, 1, 41, 0
1, 117300, Note_on_c, 1, 76, 127
1, 117300, Note_on_c, 1, 64, 127
1, 117300, Note_on_c, 1, 59, 127
1, 117300, Note_on_c, 1, 56, 127
1, 117300, Note_on_c, 1, 52, 127
1, 117300, Note_on_c, 1, 40, 127
1, 117395, Note_off_c, 1, 76, 0
1, 117395, Note_off_c, 1, 64, 0
1, 117395, Note_off_c, 1, 59, 0
1, 117395, Note_off_c, 1, 56, 0
1, 117395, Note_off_c, 1, 52, 0
1, 117395, Note_off_c, 1, 40, 0
1, 117420, Note_on_c, 1, 83, 127
1, 117420, Note_on_c, 1, 71, 127
1, 117420, Note_on_c, 1, 64, 127
1, 117420, Note_on_c, 1, 56, 127
1, 117420, Note_on_c, 1, 52, 127
1, 117539, Note_off_c, 1, 83, 0
1, 117539, Note_off_c, 1, 71, 0
1, 117539, Note_off_c, 1, 64, 0
1, 117539, Note_off_c, 1, 56, 0
1, 117539, Note_off_c, 1, 52, 0
1, 117540, Note_on_c, 1, 84, 127
1, 117540, Note_on_c, 1, 72, 127
1, 117540, Note_on_c, 1, 64, 127
1, 117540, Note_on_c, 1, 57, 127
1, 117599, Note_off_c, 1, 57, 0
1, 117600, Note_on_c, 1, 59, 127
1, 117600, Note_on_c, 1, 55, 127
1, 117659, Note_off_c, 1, 84, 0
1, 117659, Note_off_c, 1, 72, 0
1, 117659, Note_off_c, 1, 64, 0
1, 117659, Note_off_c, 1, 59, 0
1, 117659, Note_off_c, 1, 55, 0
1, 117660, Note_on_c, 1, 84, 127
1, 117660, Note_on_c, 1, 72, 127
1, 117660, Note_on_c, 1, 69, 127
1, 117660, Note_on_c, 1, 60, 127
1, 117660, Note_on_c, 1, 53, 127
1, 117719, Note_off_c, 1, 53, 0
1, 117720, Note_on_c, 1, 52, 127
1, 117779, Note_off_c, 1, 84, 0
1, 117779, Note_off_c, 1, 72, 0
1, 117779, Note_off_c, 1, 69, 0
1, 117779, Note_off_c, 1, 60, 0
1, 117779, Note_off_c, 1, 52, 0
1, 117780, Note_on_c, 1, 83, 127
1, 117780, Note_on_c, 1, 71, 127
1, 117780, Note_on_c, 1, 69, 127
1, 117780, Note_on_c, 1, 65, 127
1, 117780, Note_on_c, 1, 50, 127
1, 117839, Note_off_c, 1, 83, 0
1, 117839, Note_off_c, 1, 71, 0
1, 117839, Note_off_c, 1, 50, 0
1, 117840, Note_on_c, 1, 84, 127
1, 117840, Note_on_c, 1, 72, 127
1, 117840, Note_on_c, 1, 47, 127
1, 117869, Note_off_c, 1, 84, 0
1, 117869, Note_off_c, 1, 72, 0
1, 117870, Note_on_c, 1, 86, 127
1, 117870, Note_on_c, 1, 74, 127
1, 117899, Note_off_c, 1, 69, 0
1, 117899, Note_off_c, 1, 65, 0
1, 117899, Note_off_c, 1, 47, 0
1, 117899, Note_off_c, 1, 86, 0
1, 117899, Note_off_c, 1, 74, 0
1, 117900, Note_on_c, 1, 83, 127
1, 117900, Note_on_c, 1, 71, 127
1, 117900, Note_on_c, 1, 68, 127
1, 117900, Note_on_c, 1, 64, 127
1, 117900, Note_on_c, 1, 52, 127
1, 117959, Note_off_c, 1, 64, 0
1, 117960, Note_on_c, 1, 62, 127
1, 117960, Note_on_c, 1, 40, 127
1, 118019, Note_off_c, 1, 83, 0
1, 118019, Note_off_c, 1, 71, 0
1, 118019, Note_off_c, 1, 68, 0
1, 118019, Note_off_c, 1, 62, 0
1, 118019, Note_off_c, 1, 40, 0
1, 118020, Note_off_c, 1, 52, 0
1, 118020, Note_on_c, 1, 81, 127
1, 118020, Note_on_c, 1, 69, 127
1, 118020, Note_on_c, 1, 60, 127
1, 118020, Note_on_c, 1, 45, 127
1, 118379, Note_off_c, 1, 81, 0
1, 118379, Note_off_c, 1, 69, 0
1, 118379, Note_off_c, 1, 60, 0
1, 118379, Note_off_c, 1, 45, 0
1, 118380, Note_on_c, 1, 76, 127
1, 118380, Note_on_c, 1, 64, 127
1, 118380, Note_on_c, 1, 56, 127
1, 118380, Note_on_c, 1, 52, 127
1, 118440, Note_on_c, 1, 62, 127
1, 118499, Note_off_c, 1, 76, 0
1, 118499, Note_off_c, 1, 64, 0
1, 118499, Note_off_c, 1, 56, 0
1, 118499, Note_off_c, 1, 52, 0
1, 118499, Note_off_c, 1, 62, 0
1, 118500, Note_on_c, 1, 81, 127
1, 118500, Note_on_c, 1, 69, 127
1, 118500, Note_on_c, 1, 60, 127
1, 118500, Note_on_c, 1, 57, 127
1, 118500, Note_on_c, 1, 53, 127
1, 118559, Note_off_c, 1, 60, 0
1, 118560, Note_on_c, 1, 62, 127
1, 118619, Note_off_c, 1, 81, 0
1, 118619, Note_off_c, 1, 69, 0
1, 118619, Note_off_c, 1, 57, 0
1, 118619, Note_off_c, 1, 53, 0
1, 118619, Note_off_c, 1, 62, 0
1, 118620, Note_on_c, 1, 79, 127
1, 118620, Note_on_c, 1, 67, 127
1, 118620, Note_on_c, 1, 62, 127
1, 118620, Note_on_c, 1, 59, 127
1, 118620, Note_on_c, 1, 55, 127
1, 118679, Note_off_c, 1, 62, 0
1, 118680, Note_on_c, 1, 64, 127
1, 118739, Note_off_c, 1, 79, 0
1, 118739, Note_off_c, 1, 67, 0
1, 118739, Note_off_c, 1, 59, 0
1, 118739, Note_off_c, 1, 55, 0
1, 118739, Note_off_c, 1, 64, 0
1, 118740, Note_on_c, 1, 77, 127
1, 118740, Note_on_c, 1, 65, 127
1, 118740, Note_on_c, 1, 64, 127
1, 118740, Note_on_c, 1, 60, 127
1, 118740, Note_on_c, 1, 57, 127
1, 118740, Note_on_c, 1, 45, 127
1, 118799, Note_off_c, 1, 64, 0
1, 118799, Note_off_c, 1, 60, 0
1, 118799, Note_off_c, 1, 57, 0
1, 118799, Note_off_c, 1, 45, 0
1, 118800, Note_on_c, 1, 62, 127
1, 118800, Note_on_c, 1, 59, 127
1, 118800, Note_on_c, 1, 47, 127
1, 118859, Note_off_c, 1, 77, 0
1, 118859, Note_off_c, 1, 65, 0
1, 118859, Note_off_c, 1, 62, 0
1, 118859, Note_off_c, 1, 59, 0
1, 118859, Note_off_c, 1, 47, 0
1, 118860, Note_on_c, 1, 76, 127
1, 118860, Note_on_c, 1, 64, 127
1, 118860, Note_on_c, 1, 62, 127
1, 118860, Note_on_c, 1, 55, 127
1, 118860, Note_on_c, 1, 60, 127
1, 118860, Note_on_c, 1, 48, 127
1, 118919, Note_off_c, 1, 62, 0
1, 118979, Note_off_c, 1, 76, 0
1, 118979, Note_off_c, 1, 64, 0
1, 118979, Note_off_c, 1, 55, 0
1, 118979, Note_off_c, 1, 60, 0
1, 118979, Note_off_c, 1, 48, 0
1, 118980, Note_on_c, 1, 74, 127
1, 118980, Note_on_c, 1, 62, 127
1, 118980, Note_on_c, 1, 60, 127
1, 118980, Note_on_c, 1, 57, 127
1, 118980, Note_on_c, 1, 53, 127
1, 118980, Note_on_c, 1, 41, 127
1, 119039, Note_off_c, 1, 57, 0
1, 119040, Note_on_c, 1, 56, 127
1, 119099, Note_off_c, 1, 60, 0
1, 119099, Note_off_c, 1, 56, 0
1, 119100, Note_on_c, 1, 59, 127
1, 119159, Note_off_c, 1, 59, 0
1, 119219, Note_off_c, 1, 74, 0
1, 119219, Note_off_c, 1, 62, 0
1, 119219, Note_off_c, 1, 53, 0
1, 119219, Note_off_c, 1, 41, 0
1, 119220, Note_on_c, 1, 76, 127
1, 119220, Note_on_c, 1, 64, 127
1, 119220, Note_on_c, 1, 59, 127
1, 119220, Note_on_c, 1, 56, 127
1, 119220, Note_on_c, 1, 52, 127
1, 119220, Note_on_c, 1, 40, 127
1, 119315, Note_off_c, 1, 76, 0
1, 119315, Note_off_c, 1, 64, 0
1, 119315, Note_off_c, 1, 59, 0
1, 119315, Note_off_c, 1, 56, 0
1, 119315, Note_off_c, 1, 52, 0
1, 119315, Note_off_c, 1, 40, 0
1, 119340, Note_on_c, 1, 83, 127
1, 119340, Note_on_c, 1, 71, 127
1, 119340, Note_on_c, 1, 64, 127
1, 119340, Note_on_c, 1, 56, 127
1, 119340, Note_on_c, 1, 52, 127
1, 119459, Note_off_c, 1, 83, 0
1, 119459, Note_off_c, 1, 71, 0
1, 119459, Note_off_c, 1, 64, 0
1, 119459, Note_off_c, 1, 56, 0
1, 119459, Note_off_c, 1, 52, 0
1, 119460, Note_on_c, 1, 84, 127
1, 119460, Note_on_c, 1, 72, 127
1, 119460, Note_on_c, 1, 64, 127
1, 119460, Note_on_c, 1, 57, 127
1, 119519, Note_off_c, 1, 57, 0
1, 119520, Note_on_c, 1, 59, 127
1, 119520, Note_on_c, 1, 55, 127
1, 119579, Note_off_c, 1, 84, 0
1, 119579, Note_off_c, 1, 72, 0
1, 119579, Note_off_c, 1, 64, 0
1, 119579, Note_off_c, 1, 59, 0
1, 119579, Note_off_c, 1, 55, 0
1, 119580, Note_on_c, 1, 84, 127
1, 119580, Note_on_c, 1, 72, 127
1, 119580, Note_on_c, 1, 69, 127
1, 119580, Note_on_c, 1, 60, 127
1, 119580, Note_on_c, 1, 53, 127
1, 119639, Note_off_c, 1, 53, 0
1, 119640, Note_on_c, 1, 52, 127
1, 119699, Note_off_c, 1, 84, 0
1, 119699, Note_off_c, 1, 72, 0
1, 119699, Note_off_c, 1, 69, 0
1, 119699, Note_off_c, 1, 60, 0
1, 119699, Note_off_c, 1, 52, 0
1, 119700, Note_on_c, 1, 83, 127
1, 119700, Note_on_c, 1, 71, 127
1, 119700, Note_on_c, 1, 69, 127
1, 119700, Note_on_c, 1, 65, 127
1, 119700, Note_on_c, 1, 50, 127
1, 119759, Note_off_c, 1, 83, 0
1, 119759, Note_off_c, 1, 71, 0
1, 119759, Note_off_c, 1, 50, 0
1, 119760, Note_on_c, 1, 84, 127
1, 119760, Note_on_c, 1, 72, 127
1, 119760, Note_on_c, 1, 47, 127
1, 119789, Note_off_c, 1, 84, 0
1, 119789, Note_off_c, 1, 72, 0
1, 119790, Note_on_c, 1, 86, 127
1, 119790, Note_on_c, 1, 74, 127
1, 119819, Note_off_c, 1, 69, 0
1, 119819, Note_off_c, 1, 65, 0
1, 119819, Note_off_c, 1, 47, 0
1, 119819, Note_off_c, 1, 86, 0
1, 119819, Note_off_c, 1, 74, 0
1, 119820, Note_on_c, 1, 83, 127
1, 119820, Note_on_c, 1, 71, 127
1, 119820, Note_on_c, 1, 68, 127
1, 119820, Note_on_c, 1, 64, 127
1, 119820, Note_on_c, 1, 52, 127
1, 119879, Note_off_c, 1, 64, 0
1, 119880, Note_on_c, 1, 62, 127
1, 119880, Note_on_c, 1, 40, 127
1, 119939, Note_off_c, 1, 83, 0
1, 119939, Note_off_c, 1, 71, 0
1, 119939, Note_off_c, 1, 68, 0
1, 119939, Note_off_c, 1, 62, 0
1, 119939, Note_off_c, 1, 40, 0
1, 119940, Note_off_c, 1, 52, 0
1, 119940, Note_on_c, 1, 81, 127
1, 119940, Note_on_c, 1, 69, 127
1, 119940, Note_on_c, 1, 60, 127
1, 119940, Note_on_c, 1, 45, 127
1, 120299, Note_off_c, 1, 81, 0
1, 120299, Note_off_c, 1, 69, 0
1, 120299, Note_off_c, 1, 60, 0
1, 120299, Note_off_c, 1, 45, 0
1, 120300, Note_on_c, 1, 84, 127
1, 120300, Note_on_c, 1, 72, 127
1, 120300, Note_on_c, 1, 69, 127
1, 120300, Note_on_c, 1, 64, 127
1, 120300, Note_on_c, 1, 57, 127
1, 120359, Note_off_c, 1, 69, 0
1, 120360, Note_on_c, 1, 67, 127
1, 120419, Note_off_c, 1, 84, 0
1, 120419, Note_off_c, 1, 72, 0
1, 120419, Note_off_c, 1, 64, 0
1, 120419, Note_off_c, 1, 57, 0
1, 120419, Note_off_c, 1, 67, 0
1, 120420, Note_on_c, 1, 83, 127
1, 120420, Note_on_c, 1, 71, 127
1, 120420, Note_on_c, 1, 65, 127
1, 120420, Note_on_c, 1, 62, 127
1, 120420, Note_on_c, 1, 50, 127
1, 120479, Note_off_c, 1, 83, 0
1, 120479, Note_off_c, 1, 71, 0
1, 120479, Note_off_c, 1, 62, 0
1, 120480, Note_on_c, 1, 81, 127
1, 120480, Note_on_c, 1, 69, 127
1, 120480, Note_on_c, 1, 60, 127
1, 120539, Note_off_c, 1, 65, 0
1, 120539, Note_off_c, 1, 50, 0
1, 120539, Note_off_c, 1, 81, 0
1, 120539, Note_off_c, 1, 69, 0
1, 120539, Note_off_c, 1, 60, 0
1, 120540, Note_on_c, 1, 79, 127
1, 120540, Note_on_c, 1, 67, 127
1, 120540, Note_on_c, 1, 64, 127
1, 120540, Note_on_c, 1, 59, 127
1, 120540, Note_on_c, 1, 52, 127
1, 120599, Note_off_c, 1, 64, 0
1, 120600, Note_on_c, 1, 62, 127
1, 120659, Note_off_c, 1, 79, 0
1, 120659, Note_off_c, 1, 67, 0
1, 120659, Note_off_c, 1, 59, 0
1, 120659, Note_off_c, 1, 52, 0
1, 120659, Note_off_c, 1, 62, 0
1, 120660, Note_on_c, 1, 81, 127
1, 120660, Note_on_c, 1, 69, 127
1, 120660, Note_on_c, 1, 60, 127
1, 120660, Note_on_c, 1, 57, 127
1, 120660, Note_on_c, 1, 53, 127
1, 120719, Note_off_c, 1, 57, 0
1, 120719, Note_off_c, 1, 53, 0
1, 120720, Note_on_c, 1, 55, 127
1, 120720, Note_on_c, 1, 52, 127
1, 120779, Note_off_c, 1, 81, 0
1, 120779, Note_off_c, 1, 69, 0
1, 120779, Note_off_c, 1, 60, 0
1, 120779, Note_off_c, 1, 55, 0
1, 120779, Note_off_c, 1, 52, 0
1, 120780, Note_on_c, 1, 83, 127
1, 120780, Note_on_c, 1, 71, 127
1, 120780, Note_on_c, 1, 65, 127
1, 120780, Note_on_c, 1, 53, 127
1, 120780, Note_on_c, 1, 50, 127
1, 120839, Note_off_c, 1, 53, 0
1, 120840, Note_on_c, 1, 55, 127
1, 120899, Note_off_c, 1, 83, 0
1, 120899, Note_off_c, 1, 71, 0
1, 120899, Note_off_c, 1, 65, 0
1, 120899, Note_off_c, 1, 50, 0
1, 120899, Note_off_c, 1, 55, 0
1, 120900, Note_on_c, 1, 84, 127
1, 120900, Note_on_c, 1, 72, 127
1, 120900, Note_on_c, 1, 65, 127
1, 120900, Note_on_c, 1, 57, 127
1, 120900, Note_on_c, 1, 45, 127
1, 120959, Note_off_c, 1, 45, 0
1, 120960, Note_on_c, 1, 47, 127
1, 121019, Note_off_c, 1, 65, 0
1, 121019, Note_off_c, 1, 57, 0
1, 121019, Note_off_c, 1, 47, 0
1, 121020, Note_on_c, 1, 64, 127
1, 121020, Note_on_c, 1, 55, 127
1, 121020, Note_on_c, 1, 48, 127
1, 121079, Note_off_c, 1, 64, 0
1, 121079, Note_off_c, 1, 55, 0
1, 121080, Note_on_c, 1, 62, 127
1, 121080, Note_on_c, 1, 53, 127
1, 121139, Note_off_c, 1, 84, 0
1, 121139, Note_off_c, 1, 72, 0
1, 121139, Note_off_c, 1, 48, 0
1, 121139, Note_off_c, 1, 62, 0
1, 121139, Note_off_c, 1, 53, 0
1, 121140, Note_on_c, 1, 84, 127
1, 121140, Note_on_c, 1, 72, 127
1, 121140, Note_on_c, 1, 64, 127
1, 121140, Note_on_c, 1, 55, 127
1, 121140, Note_on_c, 1, 48, 127
1, 121140, Note_on_c, 1, 36, 127
1, 121235, Note_off_c, 1, 84, 0
1, 121235, Note_off_c, 1, 72, 0
1, 121235, Note_off_c, 1, 64, 0
1, 121235, Note_off_c, 1, 55, 0
1, 121235, Note_off_c, 1, 48, 0
1, 121259, Note_off_c, 1, 36, 0
1, 121260, Note_on_c, 1, 79, 127
1, 121260, Note_on_c, 1, 67, 127
1, 121260, Note_on_c, 1, 64, 127
1, 121260, Note_on_c, 1, 60, 127
1, 121260, Note_on_c, 1, 48, 127
1, 121379, Note_off_c, 1, 79, 0
1, 121379, Note_off_c, 1, 67, 0
1, 121379, Note_off_c, 1, 64, 0
1, 121379, Note_off_c, 1, 60, 0
1, 121379, Note_off_c, 1, 48, 0
1, 121380, Note_on_c, 1, 81, 127
1, 121380, Note_on_c, 1, 69, 127
1, 121380, Note_on_c, 1, 65, 127
1, 121380, Note_on_c, 1, 60, 127
1, 121380, Note_on_c, 1, 53, 127
1, 121439, Note_off_c, 1, 60, 0
1, 121439, Note_off_c, 1, 53, 0
1, 121440, Note_on_c, 1, 62, 127
1, 121440, Note_on_c, 1, 52, 127
1, 121499, Note_off_c, 1, 81, 0
1, 121499, Note_off_c, 1, 69, 0
1, 121499, Note_off_c, 1, 65, 0
1, 121499, Note_off_c, 1, 62, 0
1, 121499, Note_off_c, 1, 52, 0
1, 121500, Note_on_c, 1, 79, 127
1, 121500, Note_on_c, 1, 67, 127
1, 121500, Note_on_c, 1, 58, 127
1, 121500, Note_on_c, 1, 64, 127
1, 121500, Note_on_c, 1, 50, 127
1, 121559, Note_off_c, 1, 58, 0
1, 121559, Note_off_c, 1, 50, 0
1, 121560, Note_on_c, 1, 57, 127
1, 121560, Note_on_c, 1, 49, 127
1, 121619, Note_off_c, 1, 79, 0
1, 121619, Note_off_c, 1, 67, 0
1, 121619, Note_off_c, 1, 64, 0
1, 121619, Note_off_c, 1, 57, 0
1, 121619, Note_off_c, 1, 49, 0
1, 121620, Note_on_c, 1, 77, 127
1, 121620, Note_on_c, 1, 65, 127
1, 121620, Note_on_c, 1, 57, 127
1, 121620, Note_on_c, 1, 62, 127
1, 121620, Note_on_c, 1, 50, 127
1, 121679, Note_off_c, 1, 77, 0
1, 121679, Note_off_c, 1, 65, 0
1, 121679, Note_off_c, 1, 57, 0
1, 121679, Note_off_c, 1, 62, 0
1, 121680, Note_on_c, 1, 76, 127
1, 121680, Note_on_c, 1, 64, 127
1, 121680, Note_on_c, 1, 55, 127
1, 121680, Note_on_c, 1, 61, 127
1, 121739, Note_off_c, 1, 50, 0
1, 121739, Note_off_c, 1, 76, 0
1, 121739, Note_off_c, 1, 64, 0
1, 121739, Note_off_c, 1, 55, 0
1, 121739, Note_off_c, 1, 61, 0
1, 121740, Note_on_c, 1, 77, 127
1, 121740, Note_on_c, 1, 65, 127
1, 121740, Note_on_c, 1, 57, 127
1, 121740, Note_on_c, 1, 62, 127
1, 121740, Note_on_c, 1, 50, 127
1, 121740, Note_on_c, 1, 38, 127
1, 121799, Note_off_c, 1, 57, 0
1, 121799, Note_off_c, 1, 62, 0
1, 121800, Note_on_c, 1, 56, 127
1, 121859, Note_off_c, 1, 77, 0
1, 121859, Note_off_c, 1, 65, 0
1, 121859, Note_off_c, 1, 50, 0
1, 121859, Note_off_c, 1, 38, 0
1, 121859, Note_off_c, 1, 56, 0
1, 121860, Note_on_c, 1, 76, 127
1, 121860, Note_on_c, 1, 64, 127
1, 121860, Note_on_c, 1, 61, 127
1, 121860, Note_on_c, 1, 57, 127
1, 121860, Note_on_c, 1, 45, 127
1, 122147, Note_off_c, 1, 76, 0
1, 122147, Note_off_c, 1, 64, 0
1, 122147, Note_off_c, 1, 61, 0
1, 122147, Note_off_c, 1, 57, 0
1, 122219, Note_off_c, 1, 45, 0
1, 122220, Note_on_c, 1, 84, 127
1, 122220, Note_on_c, 1, 72, 127
1, 122220, Note_on_c, 1, 62, 127
1, 122220, Note_on_c, 1, 57, 127
1, 122220, Note_on_c, 1, 54, 127
1, 122220, Note_on_c, 1, 42, 127
1, 122339, Note_off_c, 1, 84, 0
1, 122339, Note_off_c, 1, 72, 0
1, 122339, Note_off_c, 1, 62, 0
1, 122339, Note_off_c, 1, 57, 0
1, 122339, Note_off_c, 1, 54, 0
1, 122339, Note_off_c, 1, 42, 0
1, 122340, Note_on_c, 1, 83, 127
1, 122340, Note_on_c, 1, 71, 127
1, 122340, Note_on_c, 1, 62, 127
1, 122340, Note_on_c, 1, 55, 127
1, 122340, Note_on_c, 1, 43, 127
1, 122399, Note_off_c, 1, 83, 0
1, 122399, Note_off_c, 1, 71, 0
1, 122400, Note_on_c, 1, 84, 127
1, 122400, Note_on_c, 1, 72, 127
1, 122400, Note_on_c, 1, 57, 127
1, 122459, Note_off_c, 1, 62, 0
1, 122459, Note_off_c, 1, 43, 0
1, 122459, Note_off_c, 1, 84, 0
1, 122459, Note_off_c, 1, 72, 0
1, 122459, Note_off_c, 1, 57, 0
1, 122460, Note_on_c, 1, 86, 127
1, 122460, Note_on_c, 1, 74, 127
1, 122460, Note_on_c, 1, 67, 127
1, 122460, Note_on_c, 1, 59, 127
1, 122519, Note_off_c, 1, 55, 0
1, 122520, Note_on_c, 1, 54, 127
1, 122579, Note_off_c, 1, 86, 0
1, 122579, Note_off_c, 1, 74, 0
1, 122579, Note_off_c, 1, 67, 0
1, 122579, Note_off_c, 1, 59, 0
1, 122579, Note_off_c, 1, 54, 0
1, 122580, Note_on_c, 1, 84, 127
1, 122580, Note_on_c, 1, 72, 127
1, 122580, Note_on_c, 1, 67, 127
1, 122580, Note_on_c, 1, 60, 127
1, 122580, Note_on_c, 1, 52, 127
1, 122639, Note_off_c, 1, 67, 0
1, 122639, Note_off_c, 1, 60, 0
1, 122640, Note_on_c, 1, 66, 127
1, 122640, Note_on_c, 1, 62, 127
1, 122699, Note_off_c, 1, 84, 0
1, 122699, Note_off_c, 1, 72, 0
1, 122699, Note_off_c, 1, 66, 0
1, 122699, Note_off_c, 1, 62, 0
1, 122700, Note_on_c, 1, 83, 127
1, 122700, Note_on_c, 1, 71, 127
1, 122700, Note_on_c, 1, 64, 127
1, 122759, Note_off_c, 1, 52, 0
1, 122760, Note_on_c, 1, 50, 127
1, 122819, Note_off_c, 1, 83, 0
1, 122819, Note_off_c, 1, 71, 0
1, 122819, Note_off_c, 1, 64, 0
1, 122819, Note_off_c, 1, 50, 0
1, 122820, Note_on_c, 1, 81, 127
1, 122820, Note_on_c, 1, 69, 127
1, 122820, Note_on_c, 1, 67, 127
1, 122820, Note_on_c, 1, 64, 127
1, 122820, Note_on_c, 1, 48, 127
1, 122879, Note_off_c, 1, 48, 0
1, 122880, Note_on_c, 1, 45, 127
1, 122939, Note_off_c, 1, 67, 0
1, 122939, Note_off_c, 1, 64, 0
1, 122939, Note_off_c, 1, 45, 0
1, 122940, Note_on_c, 1, 66, 127
1, 122940, Note_on_c, 1, 62, 127
1, 122940, Note_on_c, 1, 50, 127
1, 123059, Note_off_c, 1, 81, 0
1, 123059, Note_off_c, 1, 69, 0
1, 123059, Note_off_c, 1, 66, 0
1, 123059, Note_off_c, 1, 62, 0
1, 123059, Note_off_c, 1, 50, 0
1, 123060, Note_on_c, 1, 83, 127
1, 123060, Note_on_c, 1, 71, 127
1, 123060, Note_on_c, 1, 67, 127
1, 123060, Note_on_c, 1, 62, 127
1, 123060, Note_on_c, 1, 43, 127
1, 123155, Note_off_c, 1, 83, 0
1, 123155, Note_off_c, 1, 71, 0
1, 123155, Note_off_c, 1, 67, 0
1, 123155, Note_off_c, 1, 62, 0
1, 123179, Note_off_c, 1, 43, 0
1, 123180, Note_on_c, 1, 76, 127
1, 123180, Note_on_c, 1, 64, 127
1, 123180, Note_on_c, 1, 67, 127
1, 123180, Note_on_c, 1, 60, 127
1, 123180, Note_on_c, 1, 48, 127
1, 123239, Note_off_c, 1, 48, 0
1, 123240, Note_on_c, 1, 47, 127
1, 123299, Note_off_c, 1, 76, 0
1, 123299, Note_off_c, 1, 64, 0
1, 123299, Note_off_c, 1, 67, 0
1, 123299, Note_off_c, 1, 60, 0
1, 123299, Note_off_c, 1, 47, 0
1, 123300, Note_on_c, 1, 77, 127
1, 123300, Note_on_c, 1, 65, 127
1, 123300, Note_on_c, 1, 60, 127
1, 123300, Note_on_c, 1, 45, 127
1, 123359, Note_off_c, 1, 60, 0
1, 123359, Note_off_c, 1, 45, 0
1, 123360, Note_on_c, 1, 62, 127
1, 123360, Note_on_c, 1, 59, 127
1, 123360, Note_on_c, 1, 47, 127
1, 123419, Note_off_c, 1, 77, 0
1, 123419, Note_off_c, 1, 65, 0
1, 123419, Note_off_c, 1, 62, 0
1, 123419, Note_off_c, 1, 59, 0
1, 123419, Note_off_c, 1, 47, 0
1, 123420, Note_on_c, 1, 76, 127
1, 123420, Note_on_c, 1, 64, 127
1, 123420, Note_on_c, 1, 60, 127
1, 123420, Note_on_c, 1, 59, 127
1, 123420, Note_on_c, 1, 48, 127
1, 123479, Note_off_c, 1, 59, 0
1, 123480, Note_on_c, 1, 57, 127
1, 123539, Note_off_c, 1, 76, 0
1, 123539, Note_off_c, 1, 64, 0
1, 123539, Note_off_c, 1, 60, 0
1, 123539, Note_off_c, 1, 57, 0
1, 123540, Note_on_c, 1, 74, 127
1, 123540, Note_on_c, 1, 62, 127
1, 123540, Note_on_c, 1, 53, 127
1, 123599, Note_off_c, 1, 48, 0
1, 123600, Note_on_c, 1, 47, 127
1, 123659, Note_off_c, 1, 74, 0
1, 123659, Note_off_c, 1, 62, 0
1, 123659, Note_off_c, 1, 53, 0
1, 123659, Note_off_c, 1, 47, 0
1, 123660, Note_on_c, 1, 79, 127
1, 123660, Note_on_c, 1, 67, 127
1, 123660, Note_on_c, 1, 62, 127
1, 123660, Note_on_c, 1, 55, 127
1, 123660, Note_on_c, 1, 47, 127
1, 123719, Note_off_c, 1, 79, 0
1, 123719, Note_off_c, 1, 67, 0
1, 123719, Note_off_c, 1, 55, 0
1, 123719, Note_off_c, 1, 47, 0
1, 123720, Note_on_c, 1, 77, 127
1, 123720, Note_on_c, 1, 65, 127
1, 123720, Note_on_c, 1, 57, 127
1, 123720, Note_on_c, 1, 45, 127
1, 123779, Note_off_c, 1, 62, 0
1, 123779, Note_off_c, 1, 77, 0
1, 123779, Note_off_c, 1, 65, 0
1, 123779, Note_off_c, 1, 57, 0
1, 123779, Note_off_c, 1, 45, 0
1, 123780, Note_on_c, 1, 76, 127
1, 123780, Note_on_c, 1, 64, 127
1, 123780, Note_on_c, 1, 62, 127
1, 123780, Note_on_c, 1, 59, 127
1, 123780, Note_on_c, 1, 44, 127
1, 123899, Note_off_c, 1, 62, 0
1, 123899, Note_off_c, 1, 59, 0
1, 123899, Note_off_c, 1, 44, 0
1, 123900, Note_on_c, 1, 60, 127
1, 123900, Note_on_c, 1, 57, 127
1, 123900, Note_on_c, 1, 45, 127
1, 124019, Note_off_c, 1, 60, 0
1, 124019, Note_off_c, 1, 57, 0
1, 124019, Note_off_c, 1, 45, 0
1, 124020, Note_on_c, 1, 56, 127
1, 124020, Note_on_c, 1, 52, 127
1, 124020, Note_on_c, 1, 40, 127
1, 124139, Note_off_c, 1, 76, 0
1, 124139, Note_off_c, 1, 64, 0
1, 124139, Note_off_c, 1, 56, 0
1, 124139, Note_off_c, 1, 52, 0
1, 124139, Note_off_c, 1, 40, 0
1, 124260, Note_on_c, 1, 71, 127
1, 124260, Note_on_c, 1, 66, 127
1, 124260, Note_on_c, 1, 51, 127
1, 124380, Note_on_c, 1, 75, 127
1, 124439, Note_off_c, 1, 75, 0
1, 124440, Note_on_c, 1, 76, 127
1, 124499, Note_off_c, 1, 76, 0
1, 124500, Note_on_c, 1, 78, 127
1, 124559, Note_off_c, 1, 78, 0
1, 124590, Note_on_c, 1, 79, 127
1, 124619, Note_off_c, 1, 79, 0
1, 124620, Note_off_c, 1, 71, 0
1, 124620, Note_on_c, 1, 81, 127
1, 124620, Note_on_c, 1, 69, 127
1, 124679, Note_off_c, 1, 81, 0
1, 124739, Note_off_c, 1, 66, 0
1, 124739, Note_off_c, 1, 51, 0
1, 124740, Note_off_c, 1, 69, 0
1, 124740, Note_on_c, 1, 67, 127
1, 124740, Note_on_c, 1, 52, 127
1, 124980, Note_on_c, 1, 73, 127
1, 125160, Note_on_c, 1, 74, 127
1, 125219, Note_off_c, 1, 67, 0
1, 125219, Note_off_c, 1, 52, 0
1, 125219, Note_off_c, 1, 74, 0
1, 125220, Note_off_c, 1, 73, 0
1, 125220, Note_on_c, 1, 64, 127
1, 125220, Note_on_c, 1, 49, 127
1, 125610, Note_on_c, 1, 65, 127
1, 125639, Note_off_c, 1, 65, 0
1, 125699, Note_off_c, 1, 64, 0
1, 125699, Note_off_c, 1, 49, 0
1, 125700, Note_on_c, 1, 50, 127
1, 125880, Note_on_c, 1, 77, 127
1, 125909, Note_off_c, 1, 77, 0
1, 125939, Note_off_c, 1, 50, 0
1, 125940, Note_on_c, 1, 55, 127
1, 126000, Note_on_c, 1, 72, 127
1, 126059, Note_off_c, 1, 72, 0
1, 126179, Note_off_c, 1, 55, 0
1, 126180, Note_on_c, 1, 48, 127
1, 126299, Note_off_c, 1, 48, 0
1, 126300, Note_on_c, 1, 66, 127
1, 126300, Note_on_c, 1, 45, 127
1, 126360, Note_off_c, 1, 66, 0
1, 126360, Note_on_c, 1, 67, 127
1, 126419, Note_off_c, 1, 45, 0
1, 126420, Note_on_c, 1, 71, 127
1, 126420, Note_on_c, 1, 50, 127
1, 126480, Note_on_c, 1, 62, 127
1, 126509, Note_off_c, 1, 62, 0
1, 126539, Note_off_c, 1, 67, 0
1, 126539, Note_off_c, 1, 71, 0
1, 126539, Note_off_c, 1, 50, 0
1, 126540, Note_on_c, 1, 62, 127
1, 126540, Note_on_c, 1, 69, 127
1, 126540, Note_on_c, 1, 66, 127
1, 126540, Note_on_c, 1, 38, 127
1, 126600, Note_off_c, 1, 62, 0
1, 126600, Note_on_c, 1, 60, 127
1, 126659, Note_off_c, 1, 38, 0
1, 126660, Note_off_c, 1, 69, 0
1, 126660, Note_off_c, 1, 66, 0
1, 126660, Note_off_c, 1, 60, 0
1, 126660, Note_on_c, 1, 67, 127
1, 126660, Note_on_c, 1, 59, 127
1, 126660, Note_on_c, 1, 43, 127
1, 126720, Note_on_c, 1, 71, 127
1, 126779, Note_off_c, 1, 67, 0
1, 126779, Note_off_c, 1, 59, 0
1, 126779, Note_off_c, 1, 43, 0
1, 126779, Note_off_c, 1, 71, 0
1, 126780, Note_on_c, 1, 71, 127
1, 126839, Note_off_c, 1, 71, 0
1, 126840, Note_on_c, 1, 74, 127
1, 126899, Note_off_c, 1, 74, 0
1, 126900, Note_on_c, 1, 72, 127
1, 126929, Note_off_c, 1, 72, 0
1, 126930, Note_on_c, 1, 71, 127
1, 126959, Note_off_c, 1, 71, 0
1, 126960, Note_on_c, 1, 69, 127
1, 126989, Note_off_c, 1, 69, 0
1, 126990, Note_on_c, 1, 67, 127
1, 127019, Note_off_c, 1, 67, 0
1, 127020, Note_on_c, 1, 66, 127
1, 127020, Note_on_c, 1, 62, 127
1, 127079, Note_off_c, 1, 66, 0
1, 127079, Note_off_c, 1, 62, 0
1, 127080, Note_on_c, 1, 69, 127
1, 127080, Note_on_c, 1, 66, 127
1, 127139, Note_off_c, 1, 69, 0
1, 127139, Note_off_c, 1, 66, 0
1, 127140, Note_on_c, 1, 69, 127
1, 127140, Note_on_c, 1, 66, 127
1, 127199, Note_off_c, 1, 69, 0
1, 127199, Note_off_c, 1, 66, 0
1, 127200, Note_on_c, 1, 72, 127
1, 127200, Note_on_c, 1, 69, 127
1, 127259, Note_off_c, 1, 72, 0
1, 127259, Note_off_c, 1, 69, 0
1, 127260, Note_on_c, 1, 71, 127
1, 127260, Note_on_c, 1, 67, 127
1, 127289, Note_off_c, 1, 71, 0
1, 127289, Note_off_c, 1, 67, 0
1, 127290, Note_on_c, 1, 69, 127
1, 127290, Note_on_c, 1, 66, 127
1, 127319, Note_off_c, 1, 69, 0
1, 127319, Note_off_c, 1, 66, 0
1, 127320, Note_on_c, 1, 67, 127
1, 127320, Note_on_c, 1, 64, 127
1, 127349, Note_off_c, 1, 67, 0
1, 127349, Note_off_c, 1, 64, 0
1, 127350, Note_on_c, 1, 66, 127
1, 127350, Note_on_c, 1, 62, 127
1, 127379, Note_off_c, 1, 66, 0
1, 127379, Note_off_c, 1, 62, 0
1, 127380, Note_on_c, 1, 71, 127
1, 127380, Note_on_c, 1, 67, 127
1, 127380, Note_on_c, 1, 62, 127
1, 127380, Note_on_c, 1, 55, 127
1, 127439, Note_off_c, 1, 71, 0
1, 127439, Note_off_c, 1, 55, 0
1, 127440, Note_on_c, 1, 74, 127
1, 127440, Note_on_c, 1, 59, 127
1, 127499, Note_off_c, 1, 74, 0
1, 127499, Note_off_c, 1, 59, 0
1, 127560, Note_on_c, 1, 79, 127
1, 127619, Note_off_c, 1, 79, 0
1, 127620, Note_on_c, 1, 60, 127
1, 127649, Note_off_c, 1, 60, 0
1, 127680, Note_on_c, 1, 57, 127
1, 127709, Note_off_c, 1, 57, 0
1, 127740, Note_off_c, 1, 62, 0
1, 127740, Note_on_c, 1, 50, 127
1, 127755, Note_on_c, 1, 72, 127
1, 127769, Note_off_c, 1, 72, 0
1, 127799, Note_off_c, 1, 50, 0
1, 127800, Note_on_c, 1, 69, 127
1, 127800, Note_on_c, 1, 66, 127
1, 127800, Note_on_c, 1, 54, 127
1, 127859, Note_off_c, 1, 69, 0
1, 127859, Note_off_c, 1, 66, 0
1, 127859, Note_off_c, 1, 54, 0
1, 127860, Note_off_c, 1, 67, 0
1, 128040, Note_on_c, 1, 52, 127
1, 128069, Note_off_c, 1, 52, 0
1, 128130, Note_on_c, 1, 76, 127
1, 128130, Note_on_c, 1, 72, 127
1, 128159, Note_off_c, 1, 76, 0
1, 128159, Note_off_c, 1, 72, 0
1, 128160, Note_on_c, 1, 77, 127
1, 128160, Note_on_c, 1, 74, 127
1, 128189, Note_off_c, 1, 74, 0
1, 128219, Note_off_c, 1, 77, 0
1, 128220, Note_on_c, 1, 77, 127
1, 128220, Note_on_c, 1, 74, 127
1, 128220, Note_on_c, 1, 65, 127
1, 128220, Note_on_c, 1, 62, 127
1, 128220, Note_on_c, 1, 56, 127
1, 128249, Note_off_c, 1, 65, 0
1, 128249, Note_off_c, 1, 62, 0
1, 128249, Note_off_c, 1, 56, 0
1, 128279, Note_off_c, 1, 77, 0
1, 128279, Note_off_c, 1, 74, 0
1, 128280, Note_on_c, 1, 76, 127
1, 128280, Note_on_c, 1, 72, 127
1, 128339, Note_off_c, 1, 76, 0
1, 128339, Note_off_c, 1, 72, 0
1, 128340, Note_on_c, 1, 76, 127
1, 128340, Note_on_c, 1, 72, 127
1, 128340, Note_on_c, 1, 68, 127
1, 128340, Note_on_c, 1, 52, 127
1, 128369, Note_off_c, 1, 68, 0
1, 128369, Note_off_c, 1, 52, 0
1, 128399, Note_off_c, 1, 76, 0
1, 128399, Note_off_c, 1, 72, 0
1, 128400, Note_on_c, 1, 74, 127
1, 128400, Note_on_c, 1, 71, 127
1, 128459, Note_off_c, 1, 74, 0
1, 128459, Note_off_c, 1, 71, 0
1, 128460, Note_on_c, 1, 74, 127
1, 128460, Note_on_c, 1, 71, 127
1, 128460, Note_on_c, 1, 45, 127
1, 128490, Note_on_c, 1, 76, 127
1, 128490, Note_on_c, 1, 72, 127
1, 128519, Note_off_c, 1, 45, 0
1, 128519, Note_off_c, 1, 76, 0
1, 128519, Note_off_c, 1, 72, 0
1, 128520, Note_on_c, 1, 48, 127
1, 128550, Note_on_c, 1, 68, 127
1, 128579, Note_off_c, 1, 48, 0
1, 128579, Note_off_c, 1, 68, 0
1, 128580, Note_off_c, 1, 74, 0
1, 128639, Note_off_c, 1, 71, 0
1, 128640, Note_on_c, 1, 72, 127
1, 128640, Note_on_c, 1, 69, 127
1, 128640, Note_on_c, 1, 52, 127
1, 128699, Note_off_c, 1, 52, 0
1, 128700, Note_on_c, 1, 50, 127
1, 128729, Note_off_c, 1, 50, 0
1, 128730, Note_on_c, 1, 48, 127
1, 128759, Note_off_c, 1, 48, 0
1, 128760, Note_on_c, 1, 47, 127
1, 128789, Note_off_c, 1, 47, 0
1, 128790, Note_on_c, 1, 45, 127
1, 128819, Note_off_c, 1, 45, 0
1, 128820, Note_on_c, 1, 66, 127
1, 128849, Note_off_c, 1, 66, 0
1, 128879, Note_off_c, 1, 72, 0
1, 128879, Note_off_c, 1, 69, 0
1, 128880, Note_on_c, 1, 74, 127
1, 128880, Note_on_c, 1, 71, 127
1, 128909, Note_off_c, 1, 74, 0
1, 128909, Note_off_c, 1, 71, 0
1, 128910, Note_on_c, 1, 76, 127
1, 128910, Note_on_c, 1, 72, 127
1, 128939, Note_off_c, 1, 76, 0
1, 128939, Note_off_c, 1, 72, 0
1, 128940, Note_on_c, 1, 76, 127
1, 128940, Note_on_c, 1, 72, 127
1, 128940, Note_on_c, 1, 64, 127
1, 128940, Note_on_c, 1, 54, 127
1, 128969, Note_off_c, 1, 64, 0
1, 128969, Note_off_c, 1, 54, 0
1, 128999, Note_off_c, 1, 76, 0
1, 128999, Note_off_c, 1, 72, 0
1, 129000, Note_on_c, 1, 74, 127
1, 129000, Note_on_c, 1, 71, 127
1, 129059, Note_off_c, 1, 74, 0
1, 129059, Note_off_c, 1, 71, 0
1, 129060, Note_on_c, 1, 74, 127
1, 129060, Note_on_c, 1, 71, 127
1, 129060, Note_on_c, 1, 66, 127
1, 129060, Note_on_c, 1, 50, 127
1, 129089, Note_off_c, 1, 66, 0
1, 129089, Note_off_c, 1, 50, 0
1, 129119, Note_off_c, 1, 74, 0
1, 129119, Note_off_c, 1, 71, 0
1, 129120, Note_on_c, 1, 72, 127
1, 129120, Note_on_c, 1, 69, 127
1, 129179, Note_off_c, 1, 72, 0
1, 129179, Note_off_c, 1, 69, 0
1, 129180, Note_on_c, 1, 72, 127
1, 129180, Note_on_c, 1, 69, 127
1, 129180, Note_on_c, 1, 43, 127
1, 129210, Note_on_c, 1, 74, 127
1, 129210, Note_on_c, 1, 71, 127
1, 129239, Note_off_c, 1, 43, 0
1, 129239, Note_off_c, 1, 74, 0
1, 129239, Note_off_c, 1, 71, 0
1, 129240, Note_on_c, 1, 47, 127
1, 129270, Note_on_c, 1, 66, 127
1, 129299, Note_off_c, 1, 47, 0
1, 129299, Note_off_c, 1, 66, 0
1, 129300, Note_off_c, 1, 72, 0
1, 129359, Note_off_c, 1, 69, 0
1, 129360, Note_on_c, 1, 71, 127
1, 129360, Note_on_c, 1, 67, 127
1, 129360, Note_on_c, 1, 50, 127
1, 129419, Note_off_c, 1, 50, 0
1, 129420, Note_on_c, 1, 48, 127
1, 129449, Note_off_c, 1, 48, 0
1, 129450, Note_on_c, 1, 47, 127
1, 129479, Note_off_c, 1, 47, 0
1, 129480, Note_on_c, 1, 45, 127
1, 129509, Note_off_c, 1, 45, 0
1, 129510, Note_on_c, 1, 43, 127
1, 129539, Note_off_c, 1, 43, 0
1, 129540, Note_off_c, 1, 71, 0
1, 129540, Note_on_c, 1, 69, 127
1, 129540, Note_on_c, 1, 64, 127
1, 129569, Note_off_c, 1, 69, 0
1, 129569, Note_off_c, 1, 64, 0
1, 129600, Note_on_c, 1, 72, 127
1, 129629, Note_off_c, 1, 72, 0
1, 129660, Note_on_c, 1, 49, 127
1, 129689, Note_off_c, 1, 49, 0
1, 129720, Note_on_c, 1, 76, 127
1, 129749, Note_off_c, 1, 76, 0
1, 130020, Note_on_c, 1, 52, 127
1, 130049, Note_off_c, 1, 52, 0
1, 130080, Note_on_c, 1, 79, 127
1, 130109, Note_off_c, 1, 79, 0
1, 130320, Note_off_c, 1, 67, 0
1, 130320, Note_on_c, 1, 74, 127
1, 130320, Note_on_c, 1, 66, 127
1, 130349, Note_off_c, 1, 74, 0
1, 130350, Note_off_c, 1, 66, 0
1, 130380, Note_on_c, 1, 62, 127
1, 130440, Note_off_c, 1, 62, 0
1, 130440, Note_on_c, 1, 60, 127
1, 130500, Note_off_c, 1, 60, 0
1, 130500, Note_on_c, 1, 59, 127
1, 130560, Note_off_c, 1, 59, 0
1, 130560, Note_on_c, 1, 57, 127
1, 130620, Note_off_c, 1, 57, 0
1, 130680, Note_on_c, 1, 55, 127
1, 130739, Note_off_c, 1, 55, 0
1, 130800, Note_on_c, 1, 53, 127
1, 130859, Note_off_c, 1, 53, 0
1, 130980, Note_on_c, 1, 40, 127
1, 131039, Note_off_c, 1, 40, 0
1, 131340, Note_on_c, 1, 36, 127
1, 131399, Note_off_c, 1, 36, 0
1, 131820, Note_on_c, 1, 65, 127
1, 131880, Note_on_c, 1, 56, 127
1, 131939, Note_off_c, 1, 56, 0
1, 131940, Note_off_c, 1, 65, 0
1, 132120, Note_on_c, 1, 75, 127
1, 132179, Note_off_c, 1, 75, 0
1, 132300, Note_on_c, 1, 54, 127
1, 132359, Note_off_c, 1, 54, 0
1, 132360, Note_on_c, 1, 78, 127
1, 132419, Note_off_c, 1, 78, 0
1, 132420, Note_on_c, 1, 51, 127
1, 133020, Note_on_c, 1, 81, 127
1, 133079, Note_off_c, 1, 81, 0
1, 133380, Note_off_c, 1, 51, 0
1, 133500, Note_on_c, 1, 71, 127
1, 133500, Note_on_c, 1, 67, 127
1, 133559, Note_off_c, 1, 67, 0
1, 133620, Note_off_c, 1, 71, 0
1, 133620, Note_on_c, 1, 76, 127
1, 133620, Note_on_c, 1, 69, 127
1, 133649, Note_off_c, 1, 69, 0
1, 133680, Note_on_c, 1, 66, 127
1, 133709, Note_off_c, 1, 66, 0
1, 133710, Note_on_c, 1, 64, 127
1, 133739, Note_off_c, 1, 64, 0
1, 133740, Note_on_c, 1, 47, 127
1, 133859, Note_off_c, 1, 76, 0
1, 133859, Note_off_c, 1, 47, 0
1, 133860, Note_on_c, 1, 75, 127
1, 133860, Note_on_c, 1, 63, 127
1, 133920, Note_on_c, 1, 72, 127
1, 133979, Note_off_c, 1, 72, 0
1, 133980, Note_off_c, 1, 63, 0
1, 134099, Note_off_c, 1, 75, 0
1, 134100, Note_on_c, 1, 76, 127
1, 134100, Note_on_c, 1, 67, 127
1, 134100, Note_on_c, 1, 64, 127
1, 134100, Note_on_c, 1, 52, 127
1, 134159, Note_off_c, 1, 52, 0
1, 134160, Note_on_c, 1, 55, 127
1, 134219, Note_off_c, 1, 55, 0
1, 134280, Note_on_c, 1, 59, 127
1, 134339, Note_off_c, 1, 59, 0
1, 134340, Note_on_c, 1, 72, 127
1, 134340, Note_on_c, 1, 57, 127
1, 134369, Note_off_c, 1, 72, 0
1, 134369, Note_off_c, 1, 57, 0
1, 134370, Note_on_c, 1, 71, 127
1, 134399, Note_off_c, 1, 71, 0
1, 134400, Note_on_c, 1, 69, 127
1, 134400, Note_on_c, 1, 54, 127
1, 134429, Note_off_c, 1, 69, 0
1, 134429, Note_off_c, 1, 54, 0
1, 134460, Note_off_c, 1, 67, 0
1, 134460, Note_on_c, 1, 60, 127
1, 134520, Note_on_c, 1, 66, 127
1, 134579, Note_off_c, 1, 76, 0
1, 134579, Note_off_c, 1, 66, 0
1, 134580, Note_off_c, 1, 64, 0
1, 134580, Note_off_c, 1, 60, 0
1, 134580, Note_on_c, 1, 74, 127
1, 134580, Note_on_c, 1, 62, 127
1, 134639, Note_off_c, 1, 74, 0
1, 134640, Note_on_c, 1, 78, 127
1, 134699, Note_off_c, 1, 78, 0
1, 134700, Note_on_c, 1, 81, 127
1, 134879, Note_off_c, 1, 81, 0
1, 134940, Note_on_c, 1, 79, 127
1, 134970, Note_off_c, 1, 79, 0
1, 135060, Note_off_c, 1, 62, 0
1, 135720, Note_on_c, 1, 51, 127
1, 135779, Note_off_c, 1, 51, 0
1, 135900, Note_on_c, 1, 40, 127
1, 135929, Note_off_c, 1, 40, 0
1, 136260, Note_on_c, 1, 77, 127
1, 136260, Note_on_c, 1, 65, 127
1, 136260, Note_on_c, 1, 47, 127
1, 136289, Note_off_c, 1, 65, 0
1, 136289, Note_off_c, 1, 47, 0
1, 136379, Note_off_c, 1, 77, 0
1, 136380, Note_on_c, 1, 43, 127
1, 136409, Note_off_c, 1, 43, 0
1, 136440, Note_on_c, 1, 68, 127
1, 136499, Note_off_c, 1, 68, 0
1, 136560, Note_on_c, 1, 63, 127
1, 136589, Note_off_c, 1, 63, 0
1, 136620, Note_on_c, 1, 48, 127
1, 136679, Note_off_c, 1, 48, 0
1, 136860, Note_on_c, 1, 53, 127
1, 136889, Note_off_c, 1, 53, 0
1, 136920, Note_on_c, 1, 50, 127
1, 136949, Note_off_c, 1, 50, 0
1, 136980, Note_on_c, 1, 41, 127
1, 137459, Note_off_c, 1, 41, 0
1, 137460, Note_on_c, 1, 61, 127
1, 137460, Note_on_c, 1, 71, 127
1, 137460, Note_on_c, 1, 67, 127
1, 137460, Note_on_c, 1, 40, 127
1, 137520, Note_on_c, 1, 76, 127
1, 137549, Note_off_c, 1, 76, 0
1, 137550, Note_on_c, 1, 77, 127
1, 137550, Note_on_c, 1, 69, 127
1, 137579, Note_off_c, 1, 77, 0
1, 137579, Note_off_c, 1, 69, 0
1, 137580, Note_on_c, 1, 79, 127
1, 137580, Note_on_c, 1, 70, 127
1, 137610, Note_on_c, 1, 52, 127
1, 137639, Note_off_c, 1, 79, 0
1, 137639, Note_off_c, 1, 70, 0
1, 137639, Note_off_c, 1, 52, 0
1, 137640, Note_on_c, 1, 53, 127
1, 137669, Note_off_c, 1, 53, 0
1, 137670, Note_on_c, 1, 55, 127
1, 137699, Note_off_c, 1, 55, 0
1, 137700, Note_on_c, 1, 49, 127
1, 137759, Note_off_c, 1, 49, 0
1, 137820, Note_on_c, 1, 58, 127
1, 137879, Note_off_c, 1, 58, 0
1, 137880, Note_on_c, 1, 57, 127
1, 137939, Note_off_c, 1, 61, 0
1, 137939, Note_off_c, 1, 71, 0
1, 137939, Note_off_c, 1, 67, 0
1, 137939, Note_off_c, 1, 40, 0
1, 137939, Note_off_c, 1, 57, 0
1, 137940, Note_on_c, 1, 62, 127
1, 137940, Note_on_c, 1, 53, 127
1, 137940, Note_on_c, 1, 65, 127
1, 137940, Note_on_c, 1, 69, 127
1, 137940, Note_on_c, 1, 38, 127
1, 137999, Note_off_c, 1, 62, 0
1, 138059, Note_off_c, 1, 53, 0
1, 138059, Note_off_c, 1, 65, 0
1, 138059, Note_off_c, 1, 69, 0
1, 138059, Note_off_c, 1, 38, 0
1, 138060, Note_on_c, 1, 65, 127
1, 138060, Note_on_c, 1, 57, 127
1, 138119, Note_off_c, 1, 65, 0
1, 138120, Note_on_c, 1, 69, 127
1, 138179, Note_off_c, 1, 57, 0
1, 138179, Note_off_c, 1, 69, 0
1, 138180, Note_on_c, 1, 67, 127
1, 138180, Note_on_c, 1, 62, 127
1, 138209, Note_off_c, 1, 67, 0
1, 138210, Note_on_c, 1, 65, 127
1, 138239, Note_off_c, 1, 65, 0
1, 138240, Note_on_c, 1, 64, 127
1, 138269, Note_off_c, 1, 64, 0
1, 138300, Note_on_c, 1, 45, 127
1, 138419, Note_off_c, 1, 62, 0
1, 138419, Note_off_c, 1, 45, 0
1, 138420, Note_on_c, 1, 67, 127
1, 138420, Note_on_c, 1, 61, 127
1, 138479, Note_off_c, 1, 67, 0
1, 138480, Note_on_c, 1, 70, 127
1, 138539, Note_off_c, 1, 70, 0
1, 138540, Note_on_c, 1, 69, 127
1, 138569, Note_off_c, 1, 69, 0
1, 138600, Note_on_c, 1, 65, 127
1, 138629, Note_off_c, 1, 65, 0
1, 138630, Note_on_c, 1, 64, 127
1, 138659, Note_off_c, 1, 61, 0
1, 138659, Note_off_c, 1, 64, 0
1, 138660, Note_on_c, 1, 65, 127
1, 138660, Note_on_c, 1, 62, 127
1, 138660, Note_on_c, 1, 69, 127
1, 138660, Note_on_c, 1, 50, 127
1, 138719, Note_off_c, 1, 50, 0
1, 138720, Note_on_c, 1, 53, 127
1, 138779, Note_off_c, 1, 53, 0
1, 138840, Note_on_c, 1, 57, 127
1, 138899, Note_off_c, 1, 57, 0
1, 138900, Note_on_c, 1, 55, 127
1, 138929, Note_off_c, 1, 55, 0
1, 138960, Note_on_c, 1, 52, 127
1, 138989, Note_off_c, 1, 52, 0
1, 139020, Note_off_c, 1, 69, 0
1, 139020, Note_on_c, 1, 67, 127
1, 139049, Note_off_c, 1, 67, 0
1, 139050, Note_off_c, 1, 65, 0
1, 139050, Note_off_c, 1, 62, 0
1, 139050, Note_on_c, 1, 64, 127
1, 139079, Note_off_c, 1, 64, 0
1, 139080, Note_on_c, 1, 69, 127
1, 139080, Note_on_c, 1, 65, 127
1, 139139, Note_off_c, 1, 69, 0
1, 139139, Note_off_c, 1, 65, 0
1, 139140, Note_on_c, 1, 69, 127
1, 139140, Note_on_c, 1, 65, 127
1, 139140, Note_on_c, 1, 47, 127
1, 139169, Note_off_c, 1, 47, 0
1, 139199, Note_off_c, 1, 69, 0
1, 139199, Note_off_c, 1, 65, 0
1, 139200, Note_on_c, 1, 67, 127
1, 139200, Note_on_c, 1, 64, 127
1, 139259, Note_off_c, 1, 67, 0
1, 139259, Note_off_c, 1, 64, 0
1, 139260, Note_on_c, 1, 67, 127
1, 139260, Note_on_c, 1, 64, 127
1, 139260, Note_on_c, 1, 65, 127
1, 139260, Note_on_c, 1, 62, 127
1, 139260, Note_on_c, 1, 43, 127
1, 139289, Note_off_c, 1, 65, 0
1, 139289, Note_off_c, 1, 62, 0
1, 139289, Note_off_c, 1, 43, 0
1, 139319, Note_off_c, 1, 67, 0
1, 139319, Note_off_c, 1, 64, 0
1, 139320, Note_on_c, 1, 65, 127
1, 139320, Note_on_c, 1, 62, 127
1, 139379, Note_off_c, 1, 65, 0
1, 139379, Note_off_c, 1, 62, 0
1, 139380, Note_on_c, 1, 64, 127
1, 139380, Note_on_c, 1, 60, 127
1, 139380, Note_on_c, 1, 67, 127
1, 139380, Note_on_c, 1, 48, 127
1, 139410, Note_off_c, 1, 60, 0
1, 139439, Note_off_c, 1, 48, 0
1, 139560, Note_on_c, 1, 59, 127
1, 139619, Note_off_c, 1, 59, 0
1, 139680, Note_on_c, 1, 57, 127
1, 139739, Note_off_c, 1, 57, 0
1, 139740, Note_on_c, 1, 72, 127
1, 139800, Note_on_c, 1, 50, 127
1, 139859, Note_off_c, 1, 50, 0
1, 139860, Note_off_c, 1, 64, 0
1, 139860, Note_off_c, 1, 67, 0
1, 139860, Note_on_c, 1, 66, 127
1, 139860, Note_on_c, 1, 62, 127
1, 139890, Note_off_c, 1, 62, 0
1, 139920, Note_on_c, 1, 55, 127
1, 139979, Note_off_c, 1, 72, 0
1, 139979, Note_off_c, 1, 55, 0
1, 139980, Note_on_c, 1, 71, 127
1, 140039, Note_off_c, 1, 71, 0
1, 140040, Note_on_c, 1, 73, 127
1, 140040, Note_on_c, 1, 54, 127
1, 140099, Note_off_c, 1, 73, 0
1, 140099, Note_off_c, 1, 54, 0
1, 140100, Note_off_c, 1, 66, 0
1, 140100, Note_on_c, 1, 69, 127
1, 140100, Note_on_c, 1, 74, 127
1, 140160, Note_on_c, 1, 76, 127
1, 140160, Note_on_c, 1, 49, 127
1, 140219, Note_off_c, 1, 74, 0
1, 140219, Note_off_c, 1, 76, 0
1, 140219, Note_off_c, 1, 49, 0
1, 140280, Note_on_c, 1, 79, 127
1, 140339, Note_off_c, 1, 79, 0
1, 140340, Note_on_c, 1, 78, 127
1, 140369, Note_off_c, 1, 78, 0
1, 140400, Note_on_c, 1, 47, 127
1, 140459, Note_off_c, 1, 47, 0
1, 140460, Note_off_c, 1, 69, 0
1, 140520, Note_on_c, 1, 43, 127
1, 140579, Note_off_c, 1, 43, 0
1, 140640, Note_on_c, 1, 45, 127
1, 140699, Note_off_c, 1, 45, 0
1, 140700, Note_on_c, 1, 61, 127
1, 140820, Note_off_c, 1, 61, 0
1, 141120, Note_on_c, 1, 42, 127
1, 141179, Note_off_c, 1, 42, 0
1, 141180, Note_on_c, 1, 81, 127
1, 141659, Note_off_c, 1, 81, 0
1, 142080, Note_on_c, 1, 57, 127
1, 142139, Note_off_c, 1, 57, 0
1, 142140, Note_on_c, 1, 54, 127
1, 142199, Note_off_c, 1, 54, 0
1, 142200, Note_on_c, 1, 54, 127
1, 142259, Note_off_c, 1, 54, 0
1, 142260, Note_on_c, 1, 57, 127
1, 142319, Note_off_c, 1, 57, 0
1, 142320, Note_on_c, 1, 54, 127
1, 142379, Note_off_c, 1, 54, 0
1, 142380, Note_on_c, 1, 50, 127
1, 142380, Note_on_c, 1, 68, 127
1, 142380, Note_on_c, 1, 66, 127
1, 142380, Note_on_c, 1, 47, 127
1, 142439, Note_off_c, 1, 50, 0
1, 142440, Note_on_c, 1, 71, 127
1, 142469, Note_off_c, 1, 71, 0
1, 142470, Note_on_c, 1, 72, 127
1, 142470, Note_on_c, 1, 69, 127
1, 142499, Note_off_c, 1, 68, 0
1, 142499, Note_off_c, 1, 66, 0
1, 142499, Note_off_c, 1, 47, 0
1, 142499, Note_off_c, 1, 72, 0
1, 142499, Note_off_c, 1, 69, 0
1, 142500, Note_on_c, 1, 74, 127
1, 142500, Note_on_c, 1, 71, 127
1, 142530, Note_on_c, 1, 50, 127
1, 142559, Note_off_c, 1, 74, 0
1, 142559, Note_off_c, 1, 71, 0
1, 142559, Note_off_c, 1, 50, 0
1, 142560, Note_on_c, 1, 56, 127
1, 142589, Note_off_c, 1, 56, 0
1, 142590, Note_on_c, 1, 57, 127
1, 142619, Note_off_c, 1, 57, 0
1, 142620, Note_on_c, 1, 59, 127
1, 142620, Note_on_c, 1, 68, 127
1, 142620, Note_on_c, 1, 64, 127
1, 142620, Note_on_c, 1, 62, 127
1, 142620, Note_on_c, 1, 40, 127
1, 142679, Note_off_c, 1, 59, 0
1, 142680, Note_on_c, 1, 52, 127
1, 142739, Note_off_c, 1, 68, 0
1, 142739, Note_off_c, 1, 64, 0
1, 142739, Note_off_c, 1, 62, 0
1, 142739, Note_off_c, 1, 40, 0
1, 142739, Note_off_c, 1, 52, 0
1, 142740, Note_on_c, 1, 64, 127
1, 142799, Note_off_c, 1, 64, 0
1, 142800, Note_on_c, 1, 59, 127
1, 142859, Note_off_c, 1, 59, 0
1, 142860, Note_on_c, 1, 69, 127
1, 142860, Note_on_c, 1, 60, 127
1, 142860, Note_on_c, 1, 64, 127
1, 142860, Note_on_c, 1, 45, 127
1, 142920, Note_on_c, 1, 72, 127
1, 142979, Note_off_c, 1, 69, 0
1, 142979, Note_off_c, 1, 60, 0
1, 142979, Note_off_c, 1, 64, 0
1, 142979, Note_off_c, 1, 45, 0
1, 142979, Note_off_c, 1, 72, 0
1, 142980, Note_on_c, 1, 72, 127
1, 143039, Note_off_c, 1, 72, 0
1, 143040, Note_on_c, 1, 76, 127
1, 143099, Note_off_c, 1, 76, 0
1, 143100, Note_on_c, 1, 74, 127
1, 143129, Note_off_c, 1, 74, 0
1, 143130, Note_on_c, 1, 72, 127
1, 143159, Note_off_c, 1, 72, 0
1, 143160, Note_on_c, 1, 71, 127
1, 143189, Note_off_c, 1, 71, 0
1, 143190, Note_on_c, 1, 69, 127
1, 143219, Note_off_c, 1, 69, 0
1, 143220, Note_on_c, 1, 73, 127
1, 143220, Note_on_c, 1, 57, 127
1, 143220, Note_on_c, 1, 69, 127
1, 143220, Note_on_c, 1, 60, 127
1, 143220, Note_on_c, 1, 64, 127
1, 143220, Note_on_c, 1, 43, 127
1, 143279, Note_off_c, 1, 73, 0
1, 143279, Note_off_c, 1, 57, 0
1, 143280, Note_on_c, 1, 76, 127
1, 143280, Note_on_c, 1, 61, 127
1, 143339, Note_off_c, 1, 69, 0
1, 143339, Note_off_c, 1, 60, 0
1, 143339, Note_off_c, 1, 64, 0
1, 143339, Note_off_c, 1, 43, 0
1, 143339, Note_off_c, 1, 76, 0
1, 143339, Note_off_c, 1, 61, 0
1, 143340, Note_on_c, 1, 76, 127
1, 143340, Note_on_c, 1, 61, 127
1, 143399, Note_off_c, 1, 76, 0
1, 143399, Note_off_c, 1, 61, 0
1, 143400, Note_on_c, 1, 79, 127
1, 143400, Note_on_c, 1, 64, 127
1, 143459, Note_off_c, 1, 79, 0
1, 143459, Note_off_c, 1, 64, 0
1, 143460, Note_on_c, 1, 78, 127
1, 143460, Note_on_c, 1, 62, 127
1, 143489, Note_off_c, 1, 78, 0
1, 143489, Note_off_c, 1, 62, 0
1, 143490, Note_on_c, 1, 76, 127
1, 143490, Note_on_c, 1, 61, 127
1, 143519, Note_off_c, 1, 76, 0
1, 143519, Note_off_c, 1, 61, 0
1, 143520, Note_on_c, 1, 74, 127
1, 143520, Note_on_c, 1, 59, 127
1, 143549, Note_off_c, 1, 74, 0
1, 143549, Note_off_c, 1, 59, 0
1, 143550, Note_on_c, 1, 73, 127
1, 143550, Note_on_c, 1, 57, 127
1, 143579, Note_off_c, 1, 73, 0
1, 143579, Note_off_c, 1, 57, 0
1, 143580, Note_on_c, 1, 81, 127
1, 143580, Note_on_c, 1, 62, 127
1, 143580, Note_on_c, 1, 69, 127
1, 143580, Note_on_c, 1, 66, 127
1, 143580, Note_on_c, 1, 42, 127
1, 143609, Note_off_c, 1, 69, 0
1, 143609, Note_off_c, 1, 66, 0
1, 143609, Note_off_c, 1, 42, 0
1, 143639, Note_off_c, 1, 62, 0
1, 143700, Note_on_c, 1, 38, 127
1, 143729, Note_off_c, 1, 38, 0
1, 143820, Note_on_c, 1, 67, 127
1, 143820, Note_on_c, 1, 60, 127
1, 143820, Note_on_c, 1, 50, 127
1, 143849, Note_off_c, 1, 67, 0
1, 143849, Note_off_c, 1, 60, 0
1, 143849, Note_off_c, 1, 50, 0
1, 143880, Note_on_c, 1, 64, 127
1, 143909, Note_off_c, 1, 64, 0
1, 143940, Note_on_c, 1, 71, 127
1, 143940, Note_on_c, 1, 43, 127
1, 143999, Note_off_c, 1, 43, 0
1, 144000, Note_on_c, 1, 47, 127
1, 144059, Note_off_c, 1, 47, 0
1, 144060, Note_off_c, 1, 81, 0
1, 144060, Note_on_c, 1, 79, 127
1, 144119, Note_off_c, 1, 71, 0
1, 144119, Note_off_c, 1, 79, 0
1, 144120, Note_on_c, 1, 78, 127
1, 144179, Note_off_c, 1, 78, 0
1, 144180, Note_on_c, 1, 48, 127
1, 144209, Note_off_c, 1, 48, 0
1, 144240, Note_on_c, 1, 45, 127
1, 144269, Note_off_c, 1, 45, 0
1, 144300, Note_on_c, 1, 49, 127
1, 144359, Note_off_c, 1, 49, 0
1, 144360, Note_on_c, 1, 73, 127
1, 144360, Note_on_c, 1, 52, 127
1, 144419, Note_off_c, 1, 73, 0
1, 144419, Note_off_c, 1, 52, 0
1, 144480, Note_on_c, 1, 76, 127
1, 144480, Note_on_c, 1, 55, 127
1, 144539, Note_off_c, 1, 76, 0
1, 144539, Note_off_c, 1, 55, 0
1, 144540, Note_on_c, 1, 74, 127
1, 144540, Note_on_c, 1, 54, 127
1, 144569, Note_off_c, 1, 74, 0
1, 144569, Note_off_c, 1, 54, 0
1, 144840, Note_on_c, 1, 72, 127
1, 144899, Note_off_c, 1, 72, 0
1, 144900, Note_on_c, 1, 71, 127
1, 144900, Note_on_c, 1, 67, 127
1, 144929, Note_off_c, 1, 67, 0
1, 144930, Note_on_c, 1, 69, 127
1, 144930, Note_on_c, 1, 66, 127
1, 144959, Note_off_c, 1, 69, 0
1, 144959, Note_off_c, 1, 66, 0
1, 144960, Note_on_c, 1, 64, 127
1, 144989, Note_off_c, 1, 64, 0
1, 144990, Note_on_c, 1, 62, 127
1, 145019, Note_off_c, 1, 71, 0
1, 145019, Note_off_c, 1, 62, 0
1, 145020, Note_on_c, 1, 67, 127
1, 145020, Note_on_c, 1, 64, 127
1, 145020, Note_on_c, 1, 72, 127
1, 145079, Note_off_c, 1, 67, 0
1, 145079, Note_off_c, 1, 64, 0
1, 145080, Note_on_c, 1, 66, 127
1, 145080, Note_on_c, 1, 62, 127
1, 145139, Note_off_c, 1, 72, 0
1, 145139, Note_off_c, 1, 66, 0
1, 145139, Note_off_c, 1, 62, 0
1, 145140, Note_on_c, 1, 66, 127
1, 145140, Note_on_c, 1, 62, 127
1, 145140, Note_on_c, 1, 71, 127
1, 145199, Note_off_c, 1, 66, 0
1, 145199, Note_off_c, 1, 62, 0
1, 145200, Note_on_c, 1, 64, 127
1, 145200, Note_on_c, 1, 60, 127
1, 145259, Note_off_c, 1, 71, 0
1, 145259, Note_off_c, 1, 64, 0
1, 145259, Note_off_c, 1, 60, 0
1, 145260, Note_on_c, 1, 64, 127
1, 145260, Note_on_c, 1, 60, 127
1, 145260, Note_on_c, 1, 69, 127
1, 145319, Note_off_c, 1, 64, 0
1, 145319, Note_off_c, 1, 60, 0
1, 145320, Note_on_c, 1, 62, 127
1, 145320, Note_on_c, 1, 59, 127
1, 145379, Note_off_c, 1, 69, 0
1, 145379, Note_off_c, 1, 62, 0
1, 145379, Note_off_c, 1, 59, 0
1, 145380, Note_on_c, 1, 62, 127
1, 145380, Note_on_c, 1, 59, 127
1, 145380, Note_on_c, 1, 67, 127
1, 145380, Note_on_c, 1, 71, 127
1, 145380, Note_on_c, 1, 43, 127
1, 145439, Note_off_c, 1, 59, 0
1, 145439, Note_off_c, 1, 43, 0
1, 145440, Note_on_c, 1, 47, 127
1, 145499, Note_off_c, 1, 62, 0
1, 145499, Note_off_c, 1, 47, 0
1, 145560, Note_on_c, 1, 74, 127
1, 145560, Note_on_c, 1, 66, 127
1, 145560, Note_on_c, 1, 69, 127
1, 145560, Note_on_c, 1, 50, 127
1, 145619, Note_off_c, 1, 74, 0
1, 145619, Note_off_c, 1, 66, 0
1, 145619, Note_off_c, 1, 69, 0
1, 145619, Note_off_c, 1, 50, 0
1, 145620, Note_on_c, 1, 48, 127
1, 145649, Note_off_c, 1, 48, 0
1, 145680, Note_on_c, 1, 79, 127
1, 145680, Note_on_c, 1, 45, 127
1, 145709, Note_off_c, 1, 45, 0
1, 145739, Note_off_c, 1, 79, 0
1, 145740, Note_off_c, 1, 67, 0
1, 145740, Note_off_c, 1, 71, 0
1, 145800, Note_on_c, 1, 78, 127
1, 145800, Note_on_c, 1, 54, 127
1, 145859, Note_off_c, 1, 78, 0
1, 145859, Note_off_c, 1, 54, 0
1, 145920, Note_on_c, 1, 57, 127
1, 145979, Note_off_c, 1, 57, 0
1, 145980, Note_on_c, 1, 55, 127
1, 146009, Note_off_c, 1, 55, 0
1, 146040, Note_on_c, 1, 72, 127
1, 146040, Note_on_c, 1, 52, 127
1, 146069, Note_off_c, 1, 52, 0
1, 146099, Note_off_c, 1, 72, 0
1, 146100, Note_on_c, 1, 63, 127
1, 146219, Note_off_c, 1, 63, 0
1, 146220, Note_on_c, 1, 55, 127
1, 146279, Note_off_c, 1, 55, 0
1, 146280, Note_on_c, 1, 57, 127
1, 146339, Note_off_c, 1, 57, 0
1, 146340, Note_on_c, 1, 71, 127
1, 146340, Note_on_c, 1, 64, 127
1, 146340, Note_on_c, 1, 55, 127
1, 146340, Note_on_c, 1, 67, 127
1, 146340, Note_on_c, 1, 52, 127
1, 146399, Note_off_c, 1, 55, 0
1, 146459, Note_off_c, 1, 71, 0
1, 146459, Note_off_c, 1, 64, 0
1, 146459, Note_off_c, 1, 67, 0
1, 146459, Note_off_c, 1, 52, 0
1, 146460, Note_on_c, 1, 64, 127
1, 146460, Note_on_c, 1, 71, 127
1, 146460, Note_on_c, 1, 67, 127
1, 146460, Note_on_c, 1, 49, 127
1, 146519, Note_off_c, 1, 64, 0
1, 146520, Note_on_c, 1, 76, 127
1, 146549, Note_off_c, 1, 76, 0
1, 146550, Note_on_c, 1, 78, 127
1, 146550, Note_on_c, 1, 69, 127
1, 146579, Note_off_c, 1, 71, 0
1, 146579, Note_off_c, 1, 67, 0
1, 146579, Note_off_c, 1, 49, 0
1, 146579, Note_off_c, 1, 78, 0
1, 146579, Note_off_c, 1, 69, 0
1, 146580, Note_on_c, 1, 79, 127
1, 146580, Note_on_c, 1, 70, 127
1, 146639, Note_off_c, 1, 79, 0
1, 146639, Note_off_c, 1, 70, 0
1, 146640, Note_on_c, 1, 52, 127
1, 146699, Note_off_c, 1, 52, 0
1, 146700, Note_on_c, 1, 54, 127
1, 146759, Note_off_c, 1, 54, 0
1, 146760, Note_on_c, 1, 55, 127
1, 146819, Note_off_c, 1, 55, 0
1, 146820, Note_on_c, 1, 55, 127
1, 146850, Note_on_c, 1, 71, 127
1, 146850, Note_on_c, 1, 67, 127
1, 146879, Note_off_c, 1, 55, 0
1, 146879, Note_off_c, 1, 71, 0
1, 146879, Note_off_c, 1, 67, 0
1, 146880, Note_on_c, 1, 69, 127
1, 146880, Note_on_c, 1, 66, 127
1, 146880, Note_on_c, 1, 50, 127
1, 146909, Note_off_c, 1, 69, 0
1, 146909, Note_off_c, 1, 66, 0
1, 146910, Note_on_c, 1, 72, 127
1, 146910, Note_on_c, 1, 64, 127
1, 146939, Note_off_c, 1, 50, 0
1, 146939, Note_off_c, 1, 72, 0
1, 146939, Note_off_c, 1, 64, 0
1, 146940, Note_on_c, 1, 71, 127
1, 146940, Note_on_c, 1, 62, 127
1, 146940, Note_on_c, 1, 67, 127
1, 146940, Note_on_c, 1, 50, 127
1, 146969, Note_off_c, 1, 62, 0
1, 146970, Note_on_c, 1, 69, 127
1, 146970, Note_on_c, 1, 60, 127
1, 146999, Note_off_c, 1, 69, 0
1, 146999, Note_off_c, 1, 60, 0
1, 147000, Note_off_c, 1, 71, 0
1, 147000, Note_on_c, 1, 59, 127
1, 147000, Note_on_c, 1, 66, 127
1, 147029, Note_off_c, 1, 67, 0
1, 147029, Note_off_c, 1, 59, 0
1, 147030, Note_on_c, 1, 57, 127
1, 147059, Note_off_c, 1, 50, 0
1, 147059, Note_off_c, 1, 57, 0
1, 147060, Note_off_c, 1, 66, 0
1, 147060, Note_on_c, 1, 43, 127
1, 147119, Note_off_c, 1, 43, 0
1, 147120, Note_on_c, 1, 47, 127
1, 147179, Note_off_c, 1, 47, 0
1, 147180, Note_on_c, 1, 65, 127
1, 147300, Note_on_c, 1, 64, 127
1, 147300, Note_on_c, 1, 48, 127
1, 147329, Note_off_c, 1, 64, 0
1, 147329, Note_off_c, 1, 48, 0
1, 147360, Note_on_c, 1, 45, 127
1, 147389, Note_off_c, 1, 45, 0
1, 147420, Note_off_c, 1, 65, 0
1, 147480, Note_on_c, 1, 72, 127
1, 147480, Note_on_c, 1, 52, 127
1, 147539, Note_off_c, 1, 72, 0
1, 147539, Note_off_c, 1, 52, 0
1, 147600, Note_on_c, 1, 76, 127
1, 147600, Note_on_c, 1, 55, 127
1, 147659, Note_off_c, 1, 76, 0
1, 147659, Note_off_c, 1, 55, 0
1, 147660, Note_on_c, 1, 74, 127
1, 147660, Note_on_c, 1, 53, 127
1, 147689, Note_off_c, 1, 74, 0
1, 147689, Note_off_c, 1, 53, 0
1, 147960, Note_on_c, 1, 79, 127
1, 148019, Note_off_c, 1, 79, 0
1, 148200, Note_on_c, 1, 54, 127
1, 148259, Note_off_c, 1, 54, 0
1, 148530, Note_on_c, 1, 72, 127
1, 148530, Note_on_c, 1, 64, 127
1, 148559, Note_off_c, 1, 72, 0
1, 148559, Note_off_c, 1, 64, 0
1, 148560, Note_on_c, 1, 74, 127
1, 148560, Note_on_c, 1, 65, 127
1, 148589, Note_off_c, 1, 74, 0
1, 148589, Note_off_c, 1, 65, 0
1, 148620, Note_on_c, 1, 74, 127
1, 148620, Note_on_c, 1, 65, 127
1, 148620, Note_on_c, 1, 71, 127
1, 148620, Note_on_c, 1, 56, 127
1, 148649, Note_off_c, 1, 71, 0
1, 148649, Note_off_c, 1, 56, 0
1, 148679, Note_off_c, 1, 74, 0
1, 148679, Note_off_c, 1, 65, 0
1, 148680, Note_on_c, 1, 72, 127
1, 148680, Note_on_c, 1, 64, 127
1, 148739, Note_off_c, 1, 72, 0
1, 148739, Note_off_c, 1, 64, 0
1, 148740, Note_on_c, 1, 72, 127
1, 148740, Note_on_c, 1, 64, 127
1, 148740, Note_on_c, 1, 62, 127
1, 148740, Note_on_c, 1, 68, 127
1, 148740, Note_on_c, 1, 52, 127
1, 148769, Note_off_c, 1, 62, 0
1, 148769, Note_off_c, 1, 68, 0
1, 148769, Note_off_c, 1, 52, 0
1, 148799, Note_off_c, 1, 72, 0
1, 148799, Note_off_c, 1, 64, 0
1, 148800, Note_on_c, 1, 71, 127
1, 148800, Note_on_c, 1, 62, 127
1, 148859, Note_off_c, 1, 71, 0
1, 148859, Note_off_c, 1, 62, 0
1, 148860, Note_on_c, 1, 71, 127
1, 148860, Note_on_c, 1, 62, 127
1, 148860, Note_on_c, 1, 45, 127
1, 148890, Note_on_c, 1, 72, 127
1, 148890, Note_on_c, 1, 64, 127
1, 148919, Note_off_c, 1, 45, 0
1, 148919, Note_off_c, 1, 72, 0
1, 148919, Note_off_c, 1, 64, 0
1, 148920, Note_on_c, 1, 48, 127
1, 148950, Note_on_c, 1, 68, 127
1, 148950, Note_on_c, 1, 59, 127
1, 148979, Note_off_c, 1, 48, 0
1, 148979, Note_off_c, 1, 68, 0
1, 148979, Note_off_c, 1, 59, 0
1, 148980, Note_off_c, 1, 71, 0
1, 148980, Note_off_c, 1, 62, 0
1, 149040, Note_on_c, 1, 69, 127
1, 149040, Note_on_c, 1, 60, 127
1, 149040, Note_on_c, 1, 52, 127
1, 149099, Note_off_c, 1, 52, 0
1, 149100, Note_on_c, 1, 50, 127
1, 149129, Note_off_c, 1, 50, 0
1, 149160, Note_on_c, 1, 47, 127
1, 149189, Note_off_c, 1, 47, 0
1, 149220, Note_on_c, 1, 66, 127
1, 149249, Note_off_c, 1, 66, 0
1, 149279, Note_off_c, 1, 69, 0
1, 149279, Note_off_c, 1, 60, 0
1, 149280, Note_on_c, 1, 71, 127
1, 149280, Note_on_c, 1, 62, 127
1, 149309, Note_off_c, 1, 71, 0
1, 149309, Note_off_c, 1, 62, 0
1, 149310, Note_on_c, 1, 72, 127
1, 149310, Note_on_c, 1, 64, 127
1, 149339, Note_off_c, 1, 72, 0
1, 149339, Note_off_c, 1, 64, 0
1, 149340, Note_on_c, 1, 72, 127
1, 149340, Note_on_c, 1, 64, 127
1, 149340, Note_on_c, 1, 60, 127
1, 149340, Note_on_c, 1, 62, 127
1, 149340, Note_on_c, 1, 69, 127
1, 149340, Note_on_c, 1, 54, 127
1, 149369, Note_off_c, 1, 60, 0
1, 149369, Note_off_c, 1, 62, 0
1, 149369, Note_off_c, 1, 69, 0
1, 149369, Note_off_c, 1, 54, 0
1, 149399, Note_off_c, 1, 72, 0
1, 149399, Note_off_c, 1, 64, 0
1, 149400, Note_on_c, 1, 71, 127
1, 149400, Note_on_c, 1, 62, 127
1, 149459, Note_off_c, 1, 71, 0
1, 149459, Note_off_c, 1, 62, 0
1, 149460, Note_on_c, 1, 71, 127
1, 149460, Note_on_c, 1, 62, 127
1, 149460, Note_on_c, 1, 66, 127
1, 149460, Note_on_c, 1, 69, 127
1, 149460, Note_on_c, 1, 50, 127
1, 149489, Note_off_c, 1, 66, 0
1, 149489, Note_off_c, 1, 69, 0
1, 149489, Note_off_c, 1, 50, 0
1, 149519, Note_off_c, 1, 71, 0
1, 149519, Note_off_c, 1, 62, 0
1, 149520, Note_on_c, 1, 69, 127
1, 149520, Note_on_c, 1, 60, 127
1, 149579, Note_off_c, 1, 69, 0
1, 149579, Note_off_c, 1, 60, 0
1, 149580, Note_on_c, 1, 69, 127
1, 149580, Note_on_c, 1, 60, 127
1, 149580, Note_on_c, 1, 62, 127
1, 149580, Note_on_c, 1, 43, 127
1, 149609, Note_off_c, 1, 60, 0
1, 149610, Note_on_c, 1, 71, 127
1, 149639, Note_off_c, 1, 43, 0
1, 149639, Note_off_c, 1, 71, 0
1, 149640, Note_on_c, 1, 47, 127
1, 149670, Note_on_c, 1, 66, 127
1, 149670, Note_on_c, 1, 57, 127
1, 149699, Note_off_c, 1, 47, 0
1, 149699, Note_off_c, 1, 66, 0
1, 149699, Note_off_c, 1, 57, 0
1, 149700, Note_off_c, 1, 62, 0
1, 149760, Note_off_c, 1, 69, 0
1, 149760, Note_on_c, 1, 67, 127
1, 149760, Note_on_c, 1, 59, 127
1, 149760, Note_on_c, 1, 50, 127
1, 149819, Note_off_c, 1, 50, 0
1, 149820, Note_on_c, 1, 72, 127
1, 149820, Note_on_c, 1, 48, 127
1, 149849, Note_off_c, 1, 48, 0
1, 149880, Note_on_c, 1, 45, 127
1, 149909, Note_off_c, 1, 45, 0
1, 149939, Note_off_c, 1, 59, 0
1, 149940, Note_off_c, 1, 72, 0
1, 149940, Note_on_c, 1, 64, 127
1, 149969, Note_off_c, 1, 64, 0
1, 150060, Note_on_c, 1, 49, 127
1, 150089, Note_off_c, 1, 49, 0
1, 150420, Note_on_c, 1, 52, 127
1, 150449, Note_off_c, 1, 52, 0
1, 150690, Note_on_c, 1, 76, 127
1, 150719, Note_off_c, 1, 67, 0
1, 150719, Note_off_c, 1, 76, 0
1, 150720, Note_on_c, 1, 74, 127
1, 150720, Note_on_c, 1, 66, 127
1, 150749, Note_off_c, 1, 74, 0
1, 150749, Note_off_c, 1, 66, 0
1, 150750, Note_on_c, 1, 72, 127
1, 150750, Note_on_c, 1, 64, 127
1, 150779, Note_off_c, 1, 72, 0
1, 150779, Note_off_c, 1, 64, 0
1, 150780, Note_on_c, 1, 71, 127
1, 150780, Note_on_c, 1, 62, 127
1, 150780, Note_on_c, 1, 67, 127
1, 150780, Note_on_c, 1, 48, 127
1, 150809, Note_off_c, 1, 67, 0
1, 150809, Note_off_c, 1, 48, 0
1, 150839, Note_off_c, 1, 71, 0
1, 150839, Note_off_c, 1, 62, 0
1, 150840, Note_on_c, 1, 69, 127
1, 150840, Note_on_c, 1, 60, 127
1, 150899, Note_off_c, 1, 69, 0
1, 150899, Note_off_c, 1, 60, 0
1, 150900, Note_on_c, 1, 67, 127
1, 150900, Note_on_c, 1, 59, 127
1, 150900, Note_on_c, 1, 71, 127
1, 150900, Note_on_c, 1, 50, 127
1, 150929, Note_off_c, 1, 50, 0
1, 150959, Note_off_c, 1, 59, 0
1, 150960, Note_off_c, 1, 67, 0
1, 150960, Note_off_c, 1, 71, 0
1, 150960, Note_on_c, 1, 66, 127
1, 150960, Note_on_c, 1, 57, 127
1, 150960, Note_on_c, 1, 69, 127
1, 151019, Note_off_c, 1, 57, 0
1, 151020, Note_off_c, 1, 66, 0
1, 151020, Note_off_c, 1, 69, 0
1, 151020, Note_on_c, 1, 62, 127
1, 151020, Note_on_c, 1, 43, 127
1, 151379, Note_off_c, 1, 62, 0
1, 151379, Note_off_c, 1, 43, 0
1, 151620, Note_on_c, 1, 74, 127
1, 151620, Note_on_c, 1, 69, 127
1, 151620, Note_on_c, 1, 66, 127
1, 151620, Note_on_c, 1, 50, 127
1, 151679, Note_off_c, 1, 69, 0
1, 151679, Note_off_c, 1, 50, 0
1, 151680, Note_off_c, 1, 74, 0
1, 151680, Note_on_c, 1, 62, 127
1, 151680, Note_on_c, 1, 38, 127
1, 151739, Note_off_c, 1, 38, 0
1, 151799, Note_off_c, 1, 62, 0
1, 151800, Note_on_c, 1, 57, 127
1, 151919, Note_off_c, 1, 57, 0
1, 152070, Note_on_c, 1, 52, 127
1, 152099, Note_off_c, 1, 52, 0
1, 152100, Note_on_c, 1, 54, 127
1, 152130, Note_on_c, 1, 76, 127
1, 152130, Note_on_c, 1, 67, 127
1, 152159, Note_off_c, 1, 54, 0
1, 152159, Note_off_c, 1, 67, 0
1, 152160, Note_off_c, 1, 66, 0
1, 152160, Note_off_c, 1, 76, 0
1, 152160, Note_on_c, 1, 78, 127
1, 152279, Note_off_c, 1, 78, 0
1, 152280, Note_on_c, 1, 73, 127
1, 152280, Note_on_c, 1, 45, 127
1, 152339, Note_off_c, 1, 45, 0
1, 152340, Note_off_c, 1, 73, 0
1, 152400, Note_on_c, 1, 81, 127
1, 152400, Note_on_c, 1, 42, 127
1, 152429, Note_off_c, 1, 81, 0
1, 152430, Note_on_c, 1, 79, 127
1, 152459, Note_off_c, 1, 42, 0
1, 152459, Note_off_c, 1, 79, 0
1, 152460, Note_on_c, 1, 59, 127
1, 152460, Note_on_c, 1, 43, 127
1, 152519, Note_off_c, 1, 59, 0
1, 152519, Note_off_c, 1, 43, 0
1, 152520, Note_on_c, 1, 61, 127
1, 152520, Note_on_c, 1, 64, 127
1, 152579, Note_off_c, 1, 61, 0
1, 152580, Note_off_c, 1, 64, 0
1, 153030, Note_on_c, 1, 49, 127
1, 153059, Note_off_c, 1, 49, 0
1, 153060, Note_on_c, 1, 71, 127
1, 153060, Note_on_c, 1, 47, 127
1, 153089, Note_off_c, 1, 71, 0
1, 153119, Note_off_c, 1, 47, 0
1, 153360, Note_on_c, 1, 81, 127
1, 153360, Note_on_c, 1, 78, 127
1, 153360, Note_on_c, 1, 74, 127
1, 153360, Note_on_c, 1, 66, 127
1, 153360, Note_on_c, 1, 69, 127
1, 153360, Note_on_c, 1, 38, 127
1, 153389, Note_off_c, 1, 78, 0
1, 153390, Note_on_c, 1, 79, 127
1, 153390, Note_on_c, 1, 76, 127
1, 153419, Note_off_c, 1, 74, 0
1, 153419, Note_off_c, 1, 66, 0
1, 153419, Note_off_c, 1, 69, 0
1, 153419, Note_off_c, 1, 38, 0
1, 153419, Note_off_c, 1, 79, 0
1, 153419, Note_off_c, 1, 76, 0
1, 153479, Note_off_c, 1, 81, 0
1, 153480, Note_on_c, 1, 86, 127
1, 153480, Note_on_c, 1, 76, 127
1, 153480, Note_on_c, 1, 81, 127
1, 153480, Note_on_c, 1, 69, 127
1, 153480, Note_on_c, 1, 66, 127
1, 153480, Note_on_c, 1, 74, 127
1, 153480, Note_on_c, 1, 54, 127
1, 153509, Note_off_c, 1, 76, 0
1, 153510, Note_off_c, 1, 81, 0
1, 153539, Note_off_c, 1, 86, 0
1, 153539, Note_off_c, 1, 69, 0
1, 153539, Note_off_c, 1, 66, 0
1, 153539, Note_off_c, 1, 74, 0
1, 153539, Note_off_c, 1, 54, 0
1, 153540, Note_on_c, 1, 83, 127
1, 153540, Note_on_c, 1, 74, 127
1, 153540, Note_on_c, 1, 67, 127
1, 153540, Note_on_c, 1, 55, 127
1, 153570, Note_off_c, 1, 74, 0
1, 153570, Note_on_c, 1, 79, 127
1, 153599, Note_off_c, 1, 83, 0
1, 153599, Note_off_c, 1, 67, 0
1, 153599, Note_off_c, 1, 55, 0
1, 153599, Note_off_c, 1, 79, 0
1, 153600, Note_on_c, 1, 79, 127
1, 153600, Note_on_c, 1, 74, 127
1, 153600, Note_on_c, 1, 71, 127
1, 153600, Note_on_c, 1, 59, 127
1, 153659, Note_off_c, 1, 74, 0
1, 153659, Note_off_c, 1, 71, 0
1, 153659, Note_off_c, 1, 59, 0
1, 153660, Note_on_c, 1, 67, 127
1, 153660, Note_on_c, 1, 62, 127
1, 153689, Note_off_c, 1, 67, 0
1, 153719, Note_off_c, 1, 79, 0
1, 153719, Note_off_c, 1, 62, 0
1, 153720, Note_on_c, 1, 83, 127
1, 153720, Note_on_c, 1, 74, 127
1, 153720, Note_on_c, 1, 71, 127
1, 153720, Note_on_c, 1, 55, 127
1, 153750, Note_on_c, 1, 79, 127
1, 153779, Note_off_c, 1, 83, 0
1, 153779, Note_off_c, 1, 74, 0
1, 153779, Note_off_c, 1, 71, 0
1, 153779, Note_off_c, 1, 55, 0
1, 153779, Note_off_c, 1, 79, 0
1, 153780, Note_on_c, 1, 81, 127
1, 153780, Note_on_c, 1, 74, 127
1, 153780, Note_on_c, 1, 54, 127
1, 153810, Note_on_c, 1, 78, 127
1, 153839, Note_off_c, 1, 81, 0
1, 153839, Note_off_c, 1, 74, 0
1, 153839, Note_off_c, 1, 54, 0
1, 153839, Note_off_c, 1, 78, 0
1, 153840, Note_on_c, 1, 78, 127
1, 153840, Note_on_c, 1, 74, 127
1, 153840, Note_on_c, 1, 69, 127
1, 153840, Note_on_c, 1, 57, 127
1, 153899, Note_off_c, 1, 74, 0
1, 153899, Note_off_c, 1, 69, 0
1, 153899, Note_off_c, 1, 57, 0
1, 153900, Note_on_c, 1, 66, 127
1, 153900, Note_on_c, 1, 62, 127
1, 153929, Note_off_c, 1, 66, 0
1, 153959, Note_off_c, 1, 78, 0
1, 153959, Note_off_c, 1, 62, 0
1, 153960, Note_on_c, 1, 81, 127
1, 153960, Note_on_c, 1, 74, 127
1, 153960, Note_on_c, 1, 69, 127
1, 153960, Note_on_c, 1, 54, 127
1, 153990, Note_on_c, 1, 78, 127
1, 154019, Note_off_c, 1, 81, 0
1, 154019, Note_off_c, 1, 74, 0
1, 154019, Note_off_c, 1, 69, 0
1, 154019, Note_off_c, 1, 54, 0
1, 154019, Note_off_c, 1, 78, 0
1, 154020, Note_on_c, 1, 79, 127
1, 154020, Note_on_c, 1, 73, 127
1, 154020, Note_on_c, 1, 69, 127
1, 154020, Note_on_c, 1, 67, 127
1, 154020, Note_on_c, 1, 52, 127
1, 154050, Note_off_c, 1, 79, 0
1, 154050, Note_on_c, 1, 78, 127
1, 154079, Note_off_c, 1, 73, 0
1, 154079, Note_off_c, 1, 69, 0
1, 154079, Note_off_c, 1, 67, 0
1, 154079, Note_off_c, 1, 52, 0
1, 154079, Note_off_c, 1, 78, 0
1, 154080, Note_on_c, 1, 76, 127
1, 154080, Note_on_c, 1, 69, 127
1, 154080, Note_on_c, 1, 61, 127
1, 154110, Note_on_c, 1, 79, 127
1, 154139, Note_off_c, 1, 76, 0
1, 154139, Note_off_c, 1, 69, 0
1, 154139, Note_off_c, 1, 61, 0
1, 154139, Note_off_c, 1, 79, 0
1, 154140, Note_on_c, 1, 78, 127
1, 154140, Note_on_c, 1, 69, 127
1, 154140, Note_on_c, 1, 74, 127
1, 154140, Note_on_c, 1, 66, 127
1, 154140, Note_on_c, 1, 50, 127
1, 154170, Note_off_c, 1, 78, 0
1, 154170, Note_on_c, 1, 76, 127
1, 154199, Note_off_c, 1, 69, 0
1, 154199, Note_off_c, 1, 74, 0
1, 154199, Note_off_c, 1, 66, 0
1, 154199, Note_off_c, 1, 50, 0
1, 154199, Note_off_c, 1, 76, 0
1, 154200, Note_on_c, 1, 74, 127
1, 154200, Note_on_c, 1, 69, 127
1, 154200, Note_on_c, 1, 62, 127
1, 154230, Note_on_c, 1, 78, 127
1, 154259, Note_off_c, 1, 74, 0
1, 154259, Note_off_c, 1, 69, 0
1, 154259, Note_off_c, 1, 62, 0
1, 154259, Note_off_c, 1, 78, 0
1, 154260, Note_on_c, 1, 76, 127
1, 154260, Note_on_c, 1, 73, 127
1, 154260, Note_on_c, 1, 69, 127
1, 154260, Note_on_c, 1, 57, 127
1, 154290, Note_on_c, 1, 81, 127
1, 154319, Note_off_c, 1, 76, 0
1, 154319, Note_off_c, 1, 73, 0
1, 154319, Note_off_c, 1, 57, 0
1, 154320, Note_on_c, 1, 71, 127
1, 154320, Note_on_c, 1, 79, 127
1, 154320, Note_on_c, 1, 55, 127
1, 154349, Note_off_c, 1, 71, 0
1, 154350, Note_off_c, 1, 79, 0
1, 154350, Note_on_c, 1, 78, 127
1, 154379, Note_off_c, 1, 55, 0
1, 154380, Note_off_c, 1, 78, 0
1, 154380, Note_on_c, 1, 74, 127
1, 154380, Note_on_c, 1, 54, 127
1, 154409, Note_off_c, 1, 74, 0
1, 154439, Note_off_c, 1, 81, 0
1, 154439, Note_off_c, 1, 54, 0
1, 154440, Note_on_c, 1, 52, 127
1, 154499, Note_off_c, 1, 52, 0
1, 154500, Note_on_c, 1, 66, 127
1, 154500, Note_on_c, 1, 50, 127
1, 154530, Note_on_c, 1, 67, 127
1, 154559, Note_off_c, 1, 50, 0
1, 154559, Note_off_c, 1, 67, 0
1, 154560, Note_off_c, 1, 66, 0
1, 154560, Note_on_c, 1, 42, 127
1, 154619, Note_off_c, 1, 69, 0
1, 154619, Note_off_c, 1, 42, 0
1, 154620, Note_on_c, 1, 40, 127
1, 154679, Note_off_c, 1, 40, 0
1, 154680, Note_on_c, 1, 38, 127
1, 154739, Note_off_c, 1, 38, 0
1, 154740, Note_on_c, 1, 64, 127
1, 154740, Note_on_c, 1, 45, 127
1, 154799, Note_off_c, 1, 45, 0
1, 154830, Note_on_c, 1, 59, 127
1, 154859, Note_off_c, 1, 59, 0
1, 154980, Note_off_c, 1, 64, 0
1, 154980, Note_on_c, 1, 62, 127
1, 155099, Note_off_c, 1, 62, 0
1, 155400, Note_on_c, 1, 49, 127
1, 155459, Note_off_c, 1, 49, 0
1, 155460, Note_on_c, 1, 66, 127
1, 155460, Note_on_c, 1, 50, 127
1, 155460, Note_on_c, 1, 62, 127
1, 155460, Note_on_c, 1, 47, 127
1, 155489, Note_off_c, 1, 50, 0
1, 155490, Note_on_c, 1, 52, 127
1, 155519, Note_off_c, 1, 47, 0
1, 155519, Note_off_c, 1, 52, 0
1, 155520, Note_off_c, 1, 66, 0
1, 155520, Note_off_c, 1, 62, 0
1, 155520, Note_on_c, 1, 69, 127
1, 155520, Note_on_c, 1, 54, 127
1, 155550, Note_on_c, 1, 55, 127
1, 155579, Note_off_c, 1, 69, 0
1, 155579, Note_off_c, 1, 55, 0
1, 155580, Note_on_c, 1, 57, 127
1, 155639, Note_off_c, 1, 54, 0
1, 155639, Note_off_c, 1, 57, 0
1, 155640, Note_on_c, 1, 67, 127
1, 155640, Note_on_c, 1, 64, 127
1, 155640, Note_on_c, 1, 45, 127
1, 155699, Note_off_c, 1, 45, 0
1, 155700, Note_off_c, 1, 67, 0
1, 155700, Note_off_c, 1, 64, 0
1, 155760, Note_on_c, 1, 78, 127
1, 155790, Note_off_c, 1, 78, 0
1, 155790, Note_on_c, 1, 76, 127
1, 155820, Note_off_c, 1, 76, 0
1, 155820, Note_on_c, 1, 74, 127
1, 155820, Note_on_c, 1, 42, 127
1, 155849, Note_off_c, 1, 74, 0
1, 155879, Note_off_c, 1, 42, 0
1, 155910, Note_on_c, 1, 73, 127
1, 155940, Note_off_c, 1, 73, 0
1, 156000, Note_on_c, 1, 38, 127
1, 156119, Note_off_c, 1, 38, 0
1, 156360, Note_on_c, 1, 49, 127
1, 156419, Note_off_c, 1, 49, 0
1, 156420, Note_on_c, 1, 66, 127
1, 156420, Note_on_c, 1, 50, 127
1, 156420, Note_on_c, 1, 62, 127
1, 156420, Note_on_c, 1, 47, 127
1, 156449, Note_off_c, 1, 50, 0
1, 156450, Note_on_c, 1, 52, 127
1, 156479, Note_off_c, 1, 47, 0
1, 156479, Note_off_c, 1, 52, 0
1, 156480, Note_off_c, 1, 66, 0
1, 156480, Note_off_c, 1, 62, 0
1, 156480, Note_on_c, 1, 69, 127
1, 156480, Note_on_c, 1, 54, 127
1, 156510, Note_on_c, 1, 55, 127
1, 156539, Note_off_c, 1, 69, 0
1, 156539, Note_off_c, 1, 55, 0
1, 156540, Note_on_c, 1, 57, 127
1, 156599, Note_off_c, 1, 54, 0
1, 156599, Note_off_c, 1, 57, 0
1, 156600, Note_on_c, 1, 67, 127
1, 156600, Note_on_c, 1, 64, 127
1, 156600, Note_on_c, 1, 45, 127
1, 156659, Note_off_c, 1, 45, 0
1, 156660, Note_off_c, 1, 67, 0
1, 156660, Note_off_c, 1, 64, 0
1, 156720, Note_on_c, 1, 78, 127
1, 156720, Note_on_c, 1, 74, 127
1, 156749, Note_off_c, 1, 78, 0
1, 156749, Note_off_c, 1, 74, 0
1, 156750, Note_on_c, 1, 79, 127
1, 156750, Note_on_c, 1, 76, 127
1, 156779, Note_off_c, 1, 79, 0
1, 156779, Note_off_c, 1, 76, 0
1, 156780, Note_on_c, 1, 81, 127
1, 156780, Note_on_c, 1, 42, 127
1, 156839, Note_off_c, 1, 81, 0
1, 156839, Note_off_c, 1, 42, 0
1, 156840, Note_on_c, 1, 38, 127
1, 156899, Note_off_c, 1, 38, 0
1, 156900, Note_on_c, 1, 59, 127
1, 156900, Note_on_c, 1, 74, 127
1, 156900, Note_on_c, 1, 71, 127
1, 156900, Note_on_c, 1, 43, 127
1, 156959, Note_off_c, 1, 59, 0
1, 156959, Note_off_c, 1, 43, 0
1, 156960, Note_off_c, 1, 74, 0
1, 156960, Note_off_c, 1, 71, 0
1, 156960, Note_on_c, 1, 55, 127
1, 156960, Note_on_c, 1, 47, 127
1, 157019, Note_off_c, 1, 55, 0
1, 157019, Note_off_c, 1, 47, 0
1, 157020, Note_on_c, 1, 74, 127
1, 157020, Note_on_c, 1, 71, 127
1, 157020, Note_on_c, 1, 67, 127
1, 157020, Note_on_c, 1, 50, 127
1, 157079, Note_off_c, 1, 67, 0
1, 157079, Note_off_c, 1, 50, 0
1, 157080, Note_off_c, 1, 74, 0
1, 157080, Note_off_c, 1, 71, 0
1, 157080, Note_on_c, 1, 59, 127
1, 157080, Note_on_c, 1, 43, 127
1, 157139, Note_off_c, 1, 59, 0
1, 157139, Note_off_c, 1, 43, 0
1, 157140, Note_on_c, 1, 57, 127
1, 157140, Note_on_c, 1, 74, 127
1, 157140, Note_on_c, 1, 69, 127
1, 157140, Note_on_c, 1, 42, 127
1, 157199, Note_off_c, 1, 57, 0
1, 157199, Note_off_c, 1, 42, 0
1, 157200, Note_off_c, 1, 74, 0
1, 157200, Note_off_c, 1, 69, 0
1, 157200, Note_on_c, 1, 61, 127
1, 157200, Note_on_c, 1, 45, 127
1, 157259, Note_off_c, 1, 61, 0
1, 157259, Note_off_c, 1, 45, 0
1, 157260, Note_on_c, 1, 74, 127
1, 157260, Note_on_c, 1, 69, 127
1, 157260, Note_on_c, 1, 66, 127
1, 157260, Note_on_c, 1, 62, 127
1, 157260, Note_on_c, 1, 50, 127
1, 157319, Note_off_c, 1, 66, 0
1, 157319, Note_off_c, 1, 62, 0
1, 157319, Note_off_c, 1, 50, 0
1, 157320, Note_off_c, 1, 74, 0
1, 157320, Note_off_c, 1, 69, 0
1, 157320, Note_on_c, 1, 42, 127
1, 157379, Note_off_c, 1, 42, 0
1, 157380, Note_on_c, 1, 55, 127
1, 157380, Note_on_c, 1, 73, 127
1, 157380, Note_on_c, 1, 69, 127
1, 157380, Note_on_c, 1, 40, 127
1, 157439, Note_off_c, 1, 40, 0
1, 157440, Note_off_c, 1, 73, 0
1, 157440, Note_on_c, 1, 76, 127
1, 157440, Note_on_c, 1, 64, 127
1, 157440, Note_on_c, 1, 49, 127
1, 157499, Note_off_c, 1, 55, 0
1, 157499, Note_off_c, 1, 69, 0
1, 157499, Note_off_c, 1, 76, 0
1, 157499, Note_off_c, 1, 64, 0
1, 157499, Note_off_c, 1, 49, 0
1, 157500, Note_on_c, 1, 76, 127
1, 157500, Note_on_c, 1, 66, 127
1, 157500, Note_on_c, 1, 69, 127
1, 157500, Note_on_c, 1, 54, 127
1, 157500, Note_on_c, 1, 74, 127
1, 157500, Note_on_c, 1, 38, 127
1, 157559, Note_off_c, 1, 76, 0
1, 157559, Note_off_c, 1, 66, 0
1, 157559, Note_off_c, 1, 38, 0
1, 157560, Note_on_c, 1, 50, 127
1, 157619, Note_off_c, 1, 69, 0
1, 157619, Note_off_c, 1, 54, 0
1, 157619, Note_off_c, 1, 74, 0
1, 157619, Note_off_c, 1, 50, 0
1, 157620, Note_on_c, 1, 73, 127
1, 157620, Note_on_c, 1, 64, 127
1, 157620, Note_on_c, 1, 69, 127
1, 157620, Note_on_c, 1, 52, 127
1, 157620, Note_on_c, 1, 76, 127
1, 157620, Note_on_c, 1, 45, 127
1, 157679, Note_off_c, 1, 52, 0
1, 157679, Note_off_c, 1, 45, 0
1, 157680, Note_off_c, 1, 73, 0
1, 157680, Note_off_c, 1, 76, 0
1, 157680, Note_on_c, 1, 71, 127
1, 157680, Note_on_c, 1, 57, 127
1, 157680, Note_on_c, 1, 79, 127
1, 157680, Note_on_c, 1, 43, 127
1, 157709, Note_off_c, 1, 71, 0
1, 157710, Note_off_c, 1, 79, 0
1, 157710, Note_on_c, 1, 78, 127
1, 157739, Note_off_c, 1, 64, 0
1, 157739, Note_off_c, 1, 69, 0
1, 157739, Note_off_c, 1, 43, 0
1, 157740, Note_off_c, 1, 78, 0
1, 157740, Note_on_c, 1, 74, 127
1, 157740, Note_on_c, 1, 42, 127
1, 157769, Note_off_c, 1, 74, 0
1, 157799, Note_off_c, 1, 57, 0
1, 157799, Note_off_c, 1, 42, 0
1, 157800, Note_on_c, 1, 55, 127
1, 157800, Note_on_c, 1, 40, 127
1, 157859, Note_off_c, 1, 55, 0
1, 157859, Note_off_c, 1, 40, 0
1, 157860, Note_on_c, 1, 81, 127
1, 157860, Note_on_c, 1, 66, 127
1, 157860, Note_on_c, 1, 54, 127
1, 157860, Note_on_c, 1, 38, 127
1, 157889, Note_off_c, 1, 81, 0
1, 157919, Note_off_c, 1, 54, 0
1, 157919, Note_off_c, 1, 38, 0
1, 157920, Note_off_c, 1, 66, 0
1, 157920, Note_on_c, 1, 67, 127
1, 157920, Note_on_c, 1, 50, 127
1, 157949, Note_off_c, 1, 67, 0
1, 157979, Note_off_c, 1, 50, 0
1, 157980, Note_on_c, 1, 69, 127
1, 157980, Note_on_c, 1, 81, 127
1, 157980, Note_on_c, 1, 76, 127
1, 157980, Note_on_c, 1, 64, 127
1, 157980, Note_on_c, 1, 55, 127
1, 157980, Note_on_c, 1, 67, 127
1, 157980, Note_on_c, 1, 49, 127
1, 158009, Note_off_c, 1, 55, 0
1, 158010, Note_on_c, 1, 54, 127
1, 158039, Note_off_c, 1, 81, 0
1, 158039, Note_off_c, 1, 76, 0
1, 158039, Note_off_c, 1, 64, 0
1, 158039, Note_off_c, 1, 49, 0
1, 158039, Note_off_c, 1, 54, 0
1, 158040, Note_off_c, 1, 67, 0
1, 158040, Note_on_c, 1, 79, 127
1, 158040, Note_on_c, 1, 66, 127
1, 158040, Note_on_c, 1, 52, 127
1, 158040, Note_on_c, 1, 50, 127
1, 158069, Note_off_c, 1, 69, 0
1, 158069, Note_off_c, 1, 79, 0
1, 158069, Note_off_c, 1, 66, 0
1, 158069, Note_off_c, 1, 52, 0
1, 158070, Note_on_c, 1, 78, 127
1, 158070, Note_on_c, 1, 71, 127
1, 158099, Note_off_c, 1, 50, 0
1, 158099, Note_off_c, 1, 78, 0
1, 158099, Note_off_c, 1, 71, 0
1, 158100, Note_on_c, 1, 69, 127
1, 158100, Note_on_c, 1, 76, 127
1, 158100, Note_on_c, 1, 73, 127
1, 158100, Note_on_c, 1, 45, 127
1, 158129, Note_off_c, 1, 76, 0
1, 158130, Note_on_c, 1, 81, 127
1, 158159, Note_off_c, 1, 81, 0
1, 158160, Note_off_c, 1, 73, 0
1, 158160, Note_on_c, 1, 80, 127
1, 158160, Note_on_c, 1, 74, 127
1, 158160, Note_on_c, 1, 62, 127
1, 158160, Note_on_c, 1, 47, 127
1, 158189, Note_off_c, 1, 80, 0
1, 158190, Note_on_c, 1, 78, 127
1, 158219, Note_off_c, 1, 69, 0
1, 158219, Note_off_c, 1, 45, 0
1, 158219, Note_off_c, 1, 74, 0
1, 158219, Note_off_c, 1, 62, 0
1, 158219, Note_off_c, 1, 47, 0
1, 158219, Note_off_c, 1, 78, 0
1, 158220, Note_on_c, 1, 76, 127
1, 158220, Note_on_c, 1, 57, 127
1, 158220, Note_on_c, 1, 69, 127
1, 158220, Note_on_c, 1, 64, 127
1, 158220, Note_on_c, 1, 49, 127
1, 158250, Note_on_c, 1, 74, 127
1, 158279, Note_off_c, 1, 76, 0
1, 158279, Note_off_c, 1, 57, 0
1, 158279, Note_off_c, 1, 49, 0
1, 158279, Note_off_c, 1, 74, 0
1, 158280, Note_off_c, 1, 69, 0
1, 158280, Note_on_c, 1, 73, 127
1, 158280, Note_on_c, 1, 68, 127
1, 158280, Note_on_c, 1, 71, 127
1, 158280, Note_on_c, 1, 50, 127
1, 158309, Note_off_c, 1, 73, 0
1, 158339, Note_off_c, 1, 64, 0
1, 158339, Note_off_c, 1, 50, 0
1, 158340, Note_off_c, 1, 68, 0
1, 158340, Note_off_c, 1, 71, 0
1, 158340, Note_on_c, 1, 67, 127
1, 158400, Note_off_c, 1, 67, 0
1, 158400, Note_on_c, 1, 45, 127
1, 158459, Note_off_c, 1, 45, 0
1, 158460, Note_on_c, 1, 52, 127
1, 158460, Note_on_c, 1, 69, 127
1, 158460, Note_on_c, 1, 73, 127
1, 158460, Note_on_c, 1, 49, 127
1, 158519, Note_off_c, 1, 49, 0
1, 158520, Note_off_c, 1, 69, 0
1, 158520, Note_off_c, 1, 73, 0
1, 158579, Note_off_c, 1, 52, 0
1, 158580, Note_on_c, 1, 49, 127
1, 158580, Note_on_c, 1, 73, 127
1, 158580, Note_on_c, 1, 69, 127
1, 158580, Note_on_c, 1, 57, 127
1, 158639, Note_off_c, 1, 57, 0
1, 158640, Note_on_c, 1, 76, 127
1, 158640, Note_on_c, 1, 55, 127
1, 158669, Note_off_c, 1, 73, 0
1, 158669, Note_off_c, 1, 69, 0
1, 158669, Note_off_c, 1, 76, 0
1, 158669, Note_off_c, 1, 55, 0
1, 158670, Note_on_c, 1, 78, 127
1, 158670, Note_on_c, 1, 74, 127
1, 158670, Note_on_c, 1, 54, 127
1, 158699, Note_off_c, 1, 78, 0
1, 158699, Note_off_c, 1, 74, 0
1, 158699, Note_off_c, 1, 54, 0
1, 158700, Note_on_c, 1, 79, 127
1, 158700, Note_on_c, 1, 67, 127
1, 158700, Note_on_c, 1, 52, 127
1, 158759, Note_off_c, 1, 49, 0
1, 158759, Note_off_c, 1, 79, 0
1, 158759, Note_off_c, 1, 52, 0
1, 158760, Note_off_c, 1, 67, 0
1, 158760, Note_on_c, 1, 50, 127
1, 158819, Note_off_c, 1, 50, 0
1, 158820, Note_on_c, 1, 52, 127
1, 158820, Note_on_c, 1, 67, 127
1, 158820, Note_on_c, 1, 49, 127
1, 158849, Note_off_c, 1, 52, 0
1, 158850, Note_off_c, 1, 67, 0
1, 158850, Note_on_c, 1, 69, 127
1, 158879, Note_off_c, 1, 49, 0
1, 158880, Note_off_c, 1, 69, 0
1, 158880, Note_on_c, 1, 47, 127
1, 158880, Note_on_c, 1, 73, 127
1, 158909, Note_off_c, 1, 47, 0
1, 158910, Note_off_c, 1, 73, 0
1, 158910, Note_on_c, 1, 45, 127
1, 158939, Note_off_c, 1, 45, 0
1, 158940, Note_on_c, 1, 57, 127
1, 158999, Note_off_c, 1, 57, 0
1, 159000, Note_on_c, 1, 55, 127
1, 159000, Note_on_c, 1, 76, 127
1, 159030, Note_off_c, 1, 76, 0
1, 159059, Note_off_c, 1, 55, 0
1, 159060, Note_on_c, 1, 74, 127
1, 159060, Note_on_c, 1, 50, 127
1, 159090, Note_on_c, 1, 54, 127
1, 159119, Note_off_c, 1, 74, 0
1, 159119, Note_off_c, 1, 50, 0
1, 159119, Note_off_c, 1, 54, 0
1, 159120, Note_on_c, 1, 73, 127
1, 159120, Note_on_c, 1, 61, 127
1, 159120, Note_on_c, 1, 55, 127
1, 159120, Note_on_c, 1, 52, 127
1, 159149, Note_off_c, 1, 73, 0
1, 159150, Note_on_c, 1, 71, 127
1, 159179, Note_off_c, 1, 61, 0
1, 159179, Note_off_c, 1, 55, 0
1, 159179, Note_off_c, 1, 52, 0
1, 159179, Note_off_c, 1, 71, 0
1, 159180, Note_on_c, 1, 69, 127
1, 159180, Note_on_c, 1, 62, 127
1, 159180, Note_on_c, 1, 57, 127
1, 159180, Note_on_c, 1, 54, 127
1, 159180, Note_on_c, 1, 74, 127
1, 159210, Note_on_c, 1, 67, 127
1, 159239, Note_off_c, 1, 69, 0
1, 159239, Note_off_c, 1, 62, 0
1, 159239, Note_off_c, 1, 57, 0
1, 159239, Note_off_c, 1, 74, 0
1, 159239, Note_off_c, 1, 67, 0
1, 159240, Note_on_c, 1, 66, 127
1, 159240, Note_on_c, 1, 61, 127
1, 159240, Note_on_c, 1, 55, 127
1, 159269, Note_off_c, 1, 66, 0
1, 159270, Note_on_c, 1, 64, 127
1, 159299, Note_off_c, 1, 54, 0
1, 159299, Note_off_c, 1, 61, 0
1, 159299, Note_off_c, 1, 55, 0
1, 159299, Note_off_c, 1, 64, 0
1, 159300, Note_on_c, 1, 62, 127
1, 159300, Note_on_c, 1, 57, 127
1, 159300, Note_on_c, 1, 74, 127
1, 159300, Note_on_c, 1, 69, 127
1, 159300, Note_on_c, 1, 54, 127
1, 159359, Note_off_c, 1, 57, 0
1, 159359, Note_off_c, 1, 74, 0
1, 159359, Note_off_c, 1, 69, 0
1, 159359, Note_off_c, 1, 54, 0
1, 159360, Note_on_c, 1, 73, 127
1, 159389, Note_off_c, 1, 73, 0
1, 159390, Note_on_c, 1, 71, 127
1, 159390, Note_on_c, 1, 55, 127
1, 159419, Note_off_c, 1, 62, 0
1, 159419, Note_off_c, 1, 71, 0
1, 159419, Note_off_c, 1, 55, 0
1, 159420, Note_on_c, 1, 66, 127
1, 159420, Note_on_c, 1, 57, 127
1, 159420, Note_on_c, 1, 69, 127
1, 159420, Note_on_c, 1, 54, 127
1, 159479, Note_off_c, 1, 66, 0
1, 159479, Note_off_c, 1, 69, 0
1, 159479, Note_off_c, 1, 54, 0
1, 159480, Note_on_c, 1, 73, 127
1, 159480, Note_on_c, 1, 67, 127
1, 159480, Note_on_c, 1, 52, 127
1, 159539, Note_off_c, 1, 57, 0
1, 159539, Note_off_c, 1, 73, 0
1, 159539, Note_off_c, 1, 67, 0
1, 159539, Note_off_c, 1, 52, 0
1, 159540, Note_on_c, 1, 74, 127
1, 159540, Note_on_c, 1, 55, 127
1, 159540, Note_on_c, 1, 66, 127
1, 159540, Note_on_c, 1, 50, 127
1, 159599, Note_off_c, 1, 74, 0
1, 159599, Note_off_c, 1, 55, 0
1, 159599, Note_off_c, 1, 66, 0
1, 159599, Note_off_c, 1, 50, 0
1, 159600, Note_on_c, 1, 69, 127
1, 159600, Note_on_c, 1, 78, 127
1, 159600, Note_on_c, 1, 74, 127
1, 159600, Note_on_c, 1, 54, 127
1, 159600, Note_on_c, 1, 38, 127
1, 159629, Note_off_c, 1, 78, 0
1, 159629, Note_off_c, 1, 74, 0
1, 159630, Note_on_c, 1, 79, 127
1, 159630, Note_on_c, 1, 76, 127
1, 159630, Note_on_c, 1, 71, 127
1, 159659, Note_off_c, 1, 69, 0
1, 159659, Note_off_c, 1, 38, 0
1, 159659, Note_off_c, 1, 79, 0
1, 159659, Note_off_c, 1, 76, 0
1, 159659, Note_off_c, 1, 71, 0
1, 159660, Note_on_c, 1, 66, 127
1, 159660, Note_on_c, 1, 81, 127
1, 159660, Note_on_c, 1, 72, 127
1, 159660, Note_on_c, 1, 50, 127
1, 159719, Note_off_c, 1, 54, 0
1, 159719, Note_off_c, 1, 66, 0
1, 159719, Note_off_c, 1, 81, 0
1, 159719, Note_off_c, 1, 72, 0
1, 159719, Note_off_c, 1, 50, 0
1, 159720, Note_on_c, 1, 62, 127
1, 159720, Note_on_c, 1, 55, 127
1, 159720, Note_on_c, 1, 52, 127
1, 159779, Note_off_c, 1, 62, 0
1, 159779, Note_off_c, 1, 55, 0
1, 159779, Note_off_c, 1, 52, 0
1, 159780, Note_on_c, 1, 62, 127
1, 159780, Note_on_c, 1, 57, 127
1, 159780, Note_on_c, 1, 74, 127
1, 159780, Note_on_c, 1, 72, 127
1, 159780, Note_on_c, 1, 54, 127
1, 159809, Note_off_c, 1, 62, 0
1, 159809, Note_off_c, 1, 57, 0
1, 159839, Note_off_c, 1, 74, 0
1, 159839, Note_off_c, 1, 72, 0
1, 159839, Note_off_c, 1, 54, 0
1, 159840, Note_on_c, 1, 62, 127
1, 159840, Note_on_c, 1, 52, 127
1, 159840, Note_on_c, 1, 57, 127
1, 159869, Note_off_c, 1, 52, 0
1, 159870, Note_on_c, 1, 50, 127
1, 159899, Note_off_c, 1, 62, 0
1, 159899, Note_off_c, 1, 57, 0
1, 159899, Note_off_c, 1, 50, 0
1, 159900, Note_on_c, 1, 62, 127
1, 159900, Note_on_c, 1, 74, 127
1, 159900, Note_on_c, 1, 69, 127
1, 159900, Note_on_c, 1, 54, 127
1, 159930, Note_on_c, 1, 57, 127
1, 159959, Note_off_c, 1, 62, 0
1, 159959, Note_off_c, 1, 74, 0
1, 159959, Note_off_c, 1, 69, 0
1, 159959, Note_off_c, 1, 54, 0
1, 159959, Note_off_c, 1, 57, 0
1, 159960, Note_on_c, 1, 62, 127
1, 159960, Note_on_c, 1, 60, 127
1, 159960, Note_on_c, 1, 69, 127
1, 159960, Note_on_c, 1, 66, 127
1, 159960, Note_on_c, 1, 50, 127
1, 160019, Note_off_c, 1, 62, 0
1, 160019, Note_off_c, 1, 60, 0
1, 160019, Note_off_c, 1, 69, 0
1, 160019, Note_off_c, 1, 66, 0
1, 160019, Note_off_c, 1, 50, 0
1, 160020, Note_on_c, 1, 62, 127
1, 160020, Note_on_c, 1, 60, 127
1, 160020, Note_on_c, 1, 72, 127
1, 160020, Note_on_c, 1, 67, 127
1, 160020, Note_on_c, 1, 55, 127
1, 160049, Note_off_c, 1, 60, 0
1, 160050, Note_off_c, 1, 72, 0
1, 160050, Note_on_c, 1, 59, 127
1, 160050, Note_on_c, 1, 71, 127
1, 160079, Note_off_c, 1, 55, 0
1, 160079, Note_off_c, 1, 59, 0
1, 160080, Note_off_c, 1, 67, 0
1, 160080, Note_off_c, 1, 71, 0
1, 160080, Note_on_c, 1, 43, 127
1, 160139, Note_off_c, 1, 43, 0
1, 160170, Note_on_c, 1, 69, 127
1, 160170, Note_on_c, 1, 54, 127
1, 160199, Note_off_c, 1, 69, 0
1, 160199, Note_off_c, 1, 54, 0
1, 160200, Note_on_c, 1, 52, 127
1, 160229, Note_off_c, 1, 52, 0
1, 160230, Note_on_c, 1, 66, 127
1, 160230, Note_on_c, 1, 50, 127
1, 160259, Note_off_c, 1, 62, 0
1, 160259, Note_off_c, 1, 66, 0
1, 160259, Note_off_c, 1, 50, 0
1, 160260, Note_on_c, 1, 76, 127
1, 160260, Note_on_c, 1, 49, 127
1, 160319, Note_off_c, 1, 49, 0
1, 160320, Note_on_c, 1, 64, 127
1, 160350, Note_on_c, 1, 57, 127
1, 160379, Note_off_c, 1, 64, 0
1, 160379, Note_off_c, 1, 57, 0
1, 160380, Note_on_c, 1, 61, 127
1, 160559, Note_off_c, 1, 76, 0
1, 160559, Note_off_c, 1, 61, 0
1, 160560, Note_on_c, 1, 73, 127
1, 160560, Note_on_c, 1, 45, 127
1, 160560, Note_on_c, 1, 42, 127
1, 160619, Note_off_c, 1, 73, 0
1, 160619, Note_off_c, 1, 45, 0
1, 160619, Note_off_c, 1, 42, 0
1, 160740, Note_on_c, 1, 74, 127
1, 160740, Note_on_c, 1, 47, 127
1, 160799, Note_off_c, 1, 47, 0
1, 161039, Note_off_c, 1, 74, 0
1, 161040, Note_on_c, 1, 40, 127
1, 161099, Note_off_c, 1, 40, 0
1, 161520, Note_on_c, 1, 79, 127
1, 161639, Note_off_c, 1, 79, 0
1, 161940, Note_on_c, 1, 81, 127
1, 161970, Note_off_c, 1, 81, 0
1, 161970, Note_on_c, 1, 78, 127
1, 162000, Note_off_c, 1, 78, 0
1, 162300, Note_on_c, 1, 80, 127
1, 162300, Note_on_c, 1, 74, 127
1, 162300, Note_on_c, 1, 71, 127
1, 162300, Note_on_c, 1, 52, 127
1, 162300, Note_on_c, 1, 68, 127
1, 162300, Note_on_c, 1, 59, 127
1, 162330, Note_off_c, 1, 80, 0
1, 162330, Note_off_c, 1, 74, 0
1, 162359, Note_off_c, 1, 52, 0
1, 162359, Note_off_c, 1, 59, 0
1, 162360, Note_off_c, 1, 71, 0
1, 162360, Note_off_c, 1, 68, 0
1, 162360, Note_on_c, 1, 50, 127
1, 162360, Note_on_c, 1, 47, 127
1, 162419, Note_off_c, 1, 50, 0
1, 162419, Note_off_c, 1, 47, 0
1, 162420, Note_on_c, 1, 81, 127
1, 162420, Note_on_c, 1, 73, 127
1, 162420, Note_on_c, 1, 64, 127
1, 162420, Note_on_c, 1, 52, 127
1, 162420, Note_on_c, 1, 69, 127
1, 162420, Note_on_c, 1, 49, 127
1, 162479, Note_off_c, 1, 81, 0
1, 162479, Note_off_c, 1, 64, 0
1, 162479, Note_off_c, 1, 52, 0
1, 162479, Note_off_c, 1, 49, 0
1, 162480, Note_off_c, 1, 73, 0
1, 162480, Note_on_c, 1, 76, 127
1, 162480, Note_on_c, 1, 57, 127
1, 162510, Note_on_c, 1, 71, 127
1, 162539, Note_off_c, 1, 69, 0
1, 162539, Note_off_c, 1, 76, 0
1, 162539, Note_off_c, 1, 57, 0
1, 162539, Note_off_c, 1, 71, 0
1, 162540, Note_on_c, 1, 73, 127
1, 162540, Note_on_c, 1, 81, 127
1, 162540, Note_on_c, 1, 69, 127
1, 162540, Note_on_c, 1, 45, 127
1, 162540, Note_on_c, 1, 76, 127
1, 162540, Note_on_c, 1, 55, 127
1, 162569, Note_off_c, 1, 73, 0
1, 162570, Note_off_c, 1, 76, 0
1, 162570, Note_on_c, 1, 74, 127
1, 162599, Note_off_c, 1, 81, 0
1, 162599, Note_off_c, 1, 69, 0
1, 162599, Note_off_c, 1, 45, 0
1, 162599, Note_off_c, 1, 55, 0
1, 162600, Note_off_c, 1, 74, 0
1, 162600, Note_on_c, 1, 75, 127
1, 162600, Note_on_c, 1, 57, 127
1, 162600, Note_on_c, 1, 54, 127
1, 162630, Note_on_c, 1, 78, 127
1, 162630, Note_on_c, 1, 71, 127
1, 162659, Note_off_c, 1, 75, 0
1, 162659, Note_off_c, 1, 57, 0
1, 162659, Note_off_c, 1, 54, 0
1, 162659, Note_off_c, 1, 78, 0
1, 162660, Note_on_c, 1, 79, 127
1, 162660, Note_on_c, 1, 59, 127
1, 162660, Note_on_c, 1, 67, 127
1, 162660, Note_on_c, 1, 52, 127
1, 162689, Note_off_c, 1, 52, 0
1, 162719, Note_off_c, 1, 79, 0
1, 162719, Note_off_c, 1, 59, 0
1, 162720, Note_off_c, 1, 71, 0
1, 162720, Note_off_c, 1, 67, 0
1, 162750, Note_on_c, 1, 47, 127
1, 162779, Note_off_c, 1, 47, 0
1, 162780, Note_on_c, 1, 49, 127
1, 162810, Note_on_c, 1, 50, 127
1, 162839, Note_off_c, 1, 49, 0
1, 162839, Note_off_c, 1, 50, 0
1, 162900, Note_on_c, 1, 52, 127
1, 162900, Note_on_c, 1, 69, 127
1, 162900, Note_on_c, 1, 67, 127
1, 162900, Note_on_c, 1, 49, 127
1, 162959, Note_off_c, 1, 52, 0
1, 162959, Note_off_c, 1, 49, 0
1, 162960, Note_off_c, 1, 69, 0
1, 162960, Note_off_c, 1, 67, 0
1, 162960, Note_on_c, 1, 54, 127
1, 162960, Note_on_c, 1, 66, 127
1, 162960, Note_on_c, 1, 45, 127
1, 163019, Note_off_c, 1, 54, 0
1, 163019, Note_off_c, 1, 45, 0
1, 163020, Note_off_c, 1, 66, 0
1, 163020, Note_on_c, 1, 55, 127
1, 163020, Note_on_c, 1, 47, 127
1, 163049, Note_off_c, 1, 55, 0
1, 163050, Note_on_c, 1, 59, 127
1, 163079, Note_off_c, 1, 47, 0
1, 163079, Note_off_c, 1, 59, 0
1, 163080, Note_on_c, 1, 57, 127
1, 163139, Note_off_c, 1, 57, 0
1, 163140, Note_on_c, 1, 50, 127
1, 163199, Note_off_c, 1, 50, 0
1, 163260, Note_on_c, 1, 52, 127
1, 163260, Note_on_c, 1, 76, 127
1, 163260, Note_on_c, 1, 62, 127
1, 163260, Note_on_c, 1, 43, 127
1, 163319, Note_off_c, 1, 52, 0
1, 163319, Note_off_c, 1, 43, 0
1, 163320, Note_off_c, 1, 76, 0
1, 163320, Note_off_c, 1, 62, 0
1, 163320, Note_on_c, 1, 49, 127
1, 163320, Note_on_c, 1, 45, 127
1, 163379, Note_off_c, 1, 49, 0
1, 163379, Note_off_c, 1, 45, 0
1, 163380, Note_on_c, 1, 74, 127
1, 163380, Note_on_c, 1, 69, 127
1, 163380, Note_on_c, 1, 66, 127
1, 163380, Note_on_c, 1, 50, 127
1, 163439, Note_off_c, 1, 69, 0
1, 163440, Note_off_c, 1, 74, 0
1, 163440, Note_on_c, 1, 62, 127
1, 163440, Note_on_c, 1, 38, 127
1, 163499, Note_off_c, 1, 50, 0
1, 163499, Note_off_c, 1, 38, 0
1, 163559, Note_off_c, 1, 62, 0
1, 163560, Note_on_c, 1, 57, 127
1, 163620, Note_on_c, 1, 72, 127
1, 163679, Note_off_c, 1, 57, 0
1, 163680, Note_off_c, 1, 72, 0
1, 163860, Note_on_c, 1, 54, 127
1, 163920, Note_off_c, 1, 66, 0
1, 163920, Note_on_c, 1, 78, 127
1, 163950, Note_on_c, 1, 79, 127
1, 163979, Note_off_c, 1, 79, 0
1, 163980, Note_off_c, 1, 78, 0
1, 163980, Note_on_c, 1, 81, 127
1, 163980, Note_on_c, 1, 76, 127
1, 163980, Note_on_c, 1, 67, 127
1, 163980, Note_on_c, 1, 60, 127
1, 164039, Note_off_c, 1, 54, 0
1, 164039, Note_off_c, 1, 81, 0
1, 164039, Note_off_c, 1, 60, 0
1, 164040, Note_off_c, 1, 76, 0
1, 164040, Note_off_c, 1, 67, 0
1, 164040, Note_on_c, 1, 71, 127
1, 164040, Note_on_c, 1, 55, 127
1, 164040, Note_on_c, 1, 59, 127
1, 164099, Note_off_c, 1, 71, 0
1, 164099, Note_off_c, 1, 55, 0
1, 164099, Note_off_c, 1, 59, 0
1, 164100, Note_on_c, 1, 64, 127
1, 164219, Note_off_c, 1, 64, 0
1, 164280, Note_on_c, 1, 73, 127
1, 164340, Note_off_c, 1, 73, 0
1, 164520, Note_on_c, 1, 68, 127
1, 164580, Note_on_c, 1, 52, 127
1, 164639, Note_off_c, 1, 52, 0
1, 164640, Note_on_c, 1, 40, 127
1, 164699, Note_off_c, 1, 40, 0
1, 164759, Note_off_c, 1, 68, 0
1, 164760, Note_on_c, 1, 56, 127
1, 164819, Note_off_c, 1, 56, 0
1, 164880, Note_on_c, 1, 80, 127
1, 164909, Note_off_c, 1, 80, 0
1, 164940, Note_on_c, 1, 83, 127
1, 164999, Note_off_c, 1, 83, 0
1, 165000, Note_on_c, 1, 61, 127
1, 165059, Note_off_c, 1, 61, 0
1, 165390, Note_on_c, 1, 56, 127
1, 165419, Note_off_c, 1, 56, 0
1, 165420, Note_on_c, 1, 73, 127
1, 165420, Note_on_c, 1, 69, 127
1, 165420, Note_on_c, 1, 64, 127
1, 165420, Note_on_c, 1, 57, 127
1, 165420, Note_on_c, 1, 67, 127
1, 165420, Note_on_c, 1, 76, 127
1, 165420, Note_on_c, 1, 55, 127
1, 165450, Note_off_c, 1, 69, 0
1, 165450, Note_off_c, 1, 64, 0
1, 165479, Note_off_c, 1, 57, 0
1, 165479, Note_off_c, 1, 55, 0
1, 165480, Note_off_c, 1, 73, 0
1, 165480, Note_off_c, 1, 67, 0
1, 165480, Note_off_c, 1, 76, 0
1, 165480, Note_on_c, 1, 62, 127
1, 165540, Note_on_c, 1, 74, 127
1, 165540, Note_on_c, 1, 66, 127
1, 165540, Note_on_c, 1, 54, 127
1, 165570, Note_off_c, 1, 74, 0
1, 165570, Note_off_c, 1, 66, 0
1, 165599, Note_off_c, 1, 54, 0
1, 165600, Note_off_c, 1, 62, 0
1, 165630, Note_on_c, 1, 56, 127
1, 165659, Note_off_c, 1, 56, 0
1, 165660, Note_on_c, 1, 78, 127
1, 165660, Note_on_c, 1, 74, 127
1, 165660, Note_on_c, 1, 69, 127
1, 165660, Note_on_c, 1, 57, 127
1, 165660, Note_on_c, 1, 66, 127
1, 165660, Note_on_c, 1, 50, 127
1, 165690, Note_off_c, 1, 78, 0
1, 165719, Note_off_c, 1, 57, 0
1, 165719, Note_off_c, 1, 50, 0
1, 165720, Note_off_c, 1, 74, 0
1, 165720, Note_off_c, 1, 69, 0
1, 165720, Note_off_c, 1, 66, 0
1, 165720, Note_on_c, 1, 64, 127
1, 165780, Note_on_c, 1, 76, 127
1, 165780, Note_on_c, 1, 67, 127
1, 165780, Note_on_c, 1, 49, 127
1, 165810, Note_off_c, 1, 76, 0
1, 165839, Note_off_c, 1, 49, 0
1, 165840, Note_off_c, 1, 64, 0
1, 165840, Note_off_c, 1, 67, 0
1, 165840, Note_on_c, 1, 55, 127
1, 165869, Note_off_c, 1, 55, 0
1, 165870, Note_on_c, 1, 54, 127
1, 165899, Note_off_c, 1, 54, 0
1, 165900, Note_on_c, 1, 81, 127
1, 165900, Note_on_c, 1, 73, 127
1, 165900, Note_on_c, 1, 64, 127
1, 165900, Note_on_c, 1, 55, 127
1, 165900, Note_on_c, 1, 67, 127
1, 165900, Note_on_c, 1, 76, 127
1, 165900, Note_on_c, 1, 45, 127
1, 165930, Note_off_c, 1, 81, 0
1, 165930, Note_off_c, 1, 64, 0
1, 165959, Note_off_c, 1, 55, 0
1, 165959, Note_off_c, 1, 45, 0
1, 165960, Note_off_c, 1, 73, 0
1, 165960, Note_off_c, 1, 67, 0
1, 165960, Note_off_c, 1, 76, 0
1, 165960, Note_on_c, 1, 54, 127
1, 165989, Note_off_c, 1, 54, 0
1, 165990, Note_on_c, 1, 52, 127
1, 166019, Note_off_c, 1, 52, 0
1, 166020, Note_on_c, 1, 57, 127
1, 166020, Note_on_c, 1, 74, 127
1, 166020, Note_on_c, 1, 69, 127
1, 166020, Note_on_c, 1, 42, 127
1, 166079, Note_off_c, 1, 57, 0
1, 166079, Note_off_c, 1, 42, 0
1, 166080, Note_off_c, 1, 74, 0
1, 166080, Note_off_c, 1, 69, 0
1, 166080, Note_on_c, 1, 71, 127
1, 166080, Note_on_c, 1, 66, 127
1, 166080, Note_on_c, 1, 62, 127
1, 166080, Note_on_c, 1, 50, 127
1, 166080, Note_on_c, 1, 47, 127
1, 166139, Note_off_c, 1, 71, 0
1, 166139, Note_off_c, 1, 66, 0
1, 166139, Note_off_c, 1, 62, 0
1, 166139, Note_off_c, 1, 50, 0
1, 166139, Note_off_c, 1, 47, 0
1, 166140, Note_on_c, 1, 71, 127
1, 166140, Note_on_c, 1, 67, 127
1, 166140, Note_on_c, 1, 62, 127
1, 166140, Note_on_c, 1, 54, 127
1, 166140, Note_on_c, 1, 66, 127
1, 166140, Note_on_c, 1, 74, 127
1, 166140, Note_on_c, 1, 43, 127
1, 166169, Note_off_c, 1, 54, 0
1, 166170, Note_on_c, 1, 52, 127
1, 166199, Note_off_c, 1, 71, 0
1, 166199, Note_off_c, 1, 67, 0
1, 166199, Note_off_c, 1, 62, 0
1, 166199, Note_off_c, 1, 43, 0
1, 166199, Note_off_c, 1, 52, 0
1, 166200, Note_off_c, 1, 66, 0
1, 166200, Note_off_c, 1, 74, 0
1, 166200, Note_on_c, 1, 69, 127
1, 166200, Note_on_c, 1, 64, 127
1, 166200, Note_on_c, 1, 57, 127
1, 166200, Note_on_c, 1, 50, 127
1, 166200, Note_on_c, 1, 45, 127
1, 166229, Note_off_c, 1, 50, 0
1, 166230, Note_on_c, 1, 49, 127
1, 166259, Note_off_c, 1, 69, 0
1, 166259, Note_off_c, 1, 64, 0
1, 166259, Note_off_c, 1, 57, 0
1, 166259, Note_off_c, 1, 45, 0
1, 166259, Note_off_c, 1, 49, 0
1, 166260, Note_on_c, 1, 66, 127
1, 166260, Note_on_c, 1, 62, 127
1, 166260, Note_on_c, 1, 50, 127
1, 166260, Note_on_c, 1, 47, 127
1, 166319, Note_off_c, 1, 50, 0
1, 166319, Note_off_c, 1, 47, 0
1, 166320, Note_on_c, 1, 52, 127
1, 166349, Note_off_c, 1, 52, 0
1, 166350, Note_on_c, 1, 54, 127
1, 166379, Note_off_c, 1, 54, 0
1, 166380, Note_off_c, 1, 66, 0
1, 166380, Note_on_c, 1, 55, 127
1, 166380, Note_on_c, 1, 67, 127
1, 166409, Note_off_c, 1, 55, 0
1, 166410, Note_on_c, 1, 57, 127
1, 166439, Note_off_c, 1, 57, 0
1, 166440, Note_off_c, 1, 62, 0
1, 166440, Note_off_c, 1, 67, 0
1, 166440, Note_on_c, 1, 59, 127
1, 166440, Note_on_c, 1, 69, 127
1, 166440, Note_on_c, 1, 61, 127
1, 166440, Note_on_c, 1, 45, 127
1, 166469, Note_off_c, 1, 59, 0
1, 166499, Note_off_c, 1, 45, 0
1, 166500, Note_off_c, 1, 69, 0
1, 166500, Note_off_c, 1, 61, 0
1, 166500, Note_on_c, 1, 77, 127
1, 166500, Note_on_c, 1, 74, 127
1, 166500, Note_on_c, 1, 71, 127
1, 166500, Note_on_c, 1, 65, 127
1, 166500, Note_on_c, 1, 44, 127
1, 166559, Note_off_c, 1, 44, 0
1, 166560, Note_off_c, 1, 65, 0
1, 166620, Note_on_c, 1, 68, 127
1, 166680, Note_off_c, 1, 68, 0
1, 166680, Note_on_c, 1, 56, 127
1, 166769, Note_off_c, 1, 56, 0
1, 166859, Note_off_c, 1, 74, 0
1, 166859, Note_off_c, 1, 71, 0
1, 166860, Note_on_c, 1, 73, 127
1, 166860, Note_on_c, 1, 64, 127
1, 166920, Note_off_c, 1, 77, 0
1, 166920, Note_off_c, 1, 73, 0
1, 166920, Note_off_c, 1, 64, 0
1, 166980, Note_on_c, 1, 54, 127
1, 167039, Note_off_c, 1, 54, 0
1, 167040, Note_on_c, 1, 57, 127
1, 167040, Note_on_c, 1, 74, 127
1, 167040, Note_on_c, 1, 42, 127
1, 167069, Note_off_c, 1, 57, 0
1, 167070, Note_on_c, 1, 55, 127
1, 167099, Note_off_c, 1, 42, 0
1, 167099, Note_off_c, 1, 55, 0
1, 167100, Note_off_c, 1, 74, 0
1, 167100, Note_on_c, 1, 54, 127
1, 167100, Note_on_c, 1, 73, 127
1, 167100, Note_on_c, 1, 43, 127
1, 167159, Note_off_c, 1, 54, 0
1, 167159, Note_off_c, 1, 43, 0
1, 167160, Note_off_c, 1, 73, 0
1, 167160, Note_on_c, 1, 52, 127
1, 167160, Note_on_c, 1, 71, 127
1, 167160, Note_on_c, 1, 45, 127
1, 167219, Note_off_c, 1, 52, 0
1, 167219, Note_off_c, 1, 45, 0
1, 167220, Note_off_c, 1, 71, 0
1, 167220, Note_on_c, 1, 50, 127
1, 167220, Note_on_c, 1, 69, 127
1, 167220, Note_on_c, 1, 66, 127
1, 167220, Note_on_c, 1, 38, 127
1, 167279, Note_off_c, 1, 38, 0
1, 167280, Note_off_c, 1, 69, 0
1, 167280, Note_on_c, 1, 62, 127
1, 167339, Note_off_c, 1, 66, 0
1, 167339, Note_off_c, 1, 62, 0
1, 167340, Note_on_c, 1, 64, 127
1, 167340, Note_on_c, 1, 61, 127
1, 167399, Note_off_c, 1, 64, 0
1, 167399, Note_off_c, 1, 61, 0
1, 167400, Note_on_c, 1, 59, 127
1, 167459, Note_off_c, 1, 50, 0
1, 167459, Note_off_c, 1, 59, 0
1, 167460, Note_on_c, 1, 69, 127
1, 167460, Note_on_c, 1, 64, 127
1, 167460, Note_on_c, 1, 61, 127
1, 167460, Note_on_c, 1, 57, 127
1, 167519, Note_off_c, 1, 69, 0
1, 167519, Note_off_c, 1, 64, 0
1, 167519, Note_off_c, 1, 61, 0
1, 167519, Note_off_c, 1, 57, 0
1, 167520, Note_on_c, 1, 73, 127
1, 167520, Note_on_c, 1, 69, 127
1, 167520, Note_on_c, 1, 64, 127
1, 167520, Note_on_c, 1, 61, 127
1, 167520, Note_on_c, 1, 45, 127
1, 167579, Note_off_c, 1, 61, 0
1, 167579, Note_off_c, 1, 45, 0
1, 167580, Note_on_c, 1, 76, 127
1, 167639, Note_off_c, 1, 73, 0
1, 167639, Note_off_c, 1, 69, 0
1, 167639, Note_off_c, 1, 64, 0
1, 167639, Note_off_c, 1, 76, 0
1, 167640, Note_on_c, 1, 76, 127
1, 167640, Note_on_c, 1, 73, 127
1, 167640, Note_on_c, 1, 69, 127
1, 167640, Note_on_c, 1, 61, 127
1, 167640, Note_on_c, 1, 57, 127
1, 167699, Note_off_c, 1, 61, 0
1, 167699, Note_off_c, 1, 57, 0
1, 167700, Note_on_c, 1, 79, 127
1, 167700, Note_on_c, 1, 67, 127
1, 167759, Note_off_c, 1, 76, 0
1, 167759, Note_off_c, 1, 73, 0
1, 167759, Note_off_c, 1, 69, 0
1, 167759, Note_off_c, 1, 67, 0
1, 167760, Note_on_c, 1, 64, 127
1, 167760, Note_on_c, 1, 45, 127
1, 167819, Note_off_c, 1, 64, 0
1, 167819, Note_off_c, 1, 45, 0
1, 167879, Note_off_c, 1, 79, 0
1, 167880, Note_on_c, 1, 81, 127
1, 167880, Note_on_c, 1, 73, 127
1, 167880, Note_on_c, 1, 64, 127
1, 167880, Note_on_c, 1, 43, 127
1, 167909, Note_off_c, 1, 81, 0
1, 167910, Note_on_c, 1, 83, 127
1, 167939, Note_off_c, 1, 73, 0
1, 167939, Note_off_c, 1, 64, 0
1, 167939, Note_off_c, 1, 43, 0
1, 167939, Note_off_c, 1, 83, 0
1, 167940, Note_on_c, 1, 81, 127
1, 167940, Note_on_c, 1, 74, 127
1, 167940, Note_on_c, 1, 66, 127
1, 167940, Note_on_c, 1, 62, 127
1, 167940, Note_on_c, 1, 42, 127
1, 167970, Note_on_c, 1, 79, 127
1, 167999, Note_off_c, 1, 81, 0
1, 167999, Note_off_c, 1, 74, 0
1, 167999, Note_off_c, 1, 66, 0
1, 167999, Note_off_c, 1, 62, 0
1, 167999, Note_off_c, 1, 42, 0
1, 167999, Note_off_c, 1, 79, 0
1, 168000, Note_on_c, 1, 78, 127
1, 168000, Note_on_c, 1, 74, 127
1, 168000, Note_on_c, 1, 66, 127
1, 168000, Note_on_c, 1, 69, 127
1, 168000, Note_on_c, 1, 47, 127
1, 168029, Note_off_c, 1, 78, 0
1, 168030, Note_on_c, 1, 81, 127
1, 168059, Note_off_c, 1, 74, 0
1, 168059, Note_off_c, 1, 66, 0
1, 168059, Note_off_c, 1, 69, 0
1, 168059, Note_off_c, 1, 47, 0
1, 168059, Note_off_c, 1, 81, 0
1, 168060, Note_on_c, 1, 79, 127
1, 168060, Note_on_c, 1, 74, 127
1, 168060, Note_on_c, 1, 64, 127
1, 168060, Note_on_c, 1, 62, 127
1, 168060, Note_on_c, 1, 67, 127
1, 168060, Note_on_c, 1, 40, 127
1, 168090, Note_on_c, 1, 78, 127
1, 168119, Note_off_c, 1, 79, 0
1, 168119, Note_off_c, 1, 74, 0
1, 168119, Note_off_c, 1, 64, 0
1, 168119, Note_off_c, 1, 62, 0
1, 168119, Note_off_c, 1, 67, 0
1, 168119, Note_off_c, 1, 40, 0
1, 168119, Note_off_c, 1, 78, 0
1, 168120, Note_on_c, 1, 76, 127
1, 168120, Note_on_c, 1, 73, 127
1, 168120, Note_on_c, 1, 64, 127
1, 168120, Note_on_c, 1, 67, 127
1, 168120, Note_on_c, 1, 45, 127
1, 168150, Note_on_c, 1, 79, 127
1, 168179, Note_off_c, 1, 76, 0
1, 168179, Note_off_c, 1, 73, 0
1, 168179, Note_off_c, 1, 64, 0
1, 168179, Note_off_c, 1, 67, 0
1, 168179, Note_off_c, 1, 45, 0
1, 168179, Note_off_c, 1, 79, 0
1, 168180, Note_on_c, 1, 78, 127
1, 168180, Note_on_c, 1, 69, 127
1, 168180, Note_on_c, 1, 62, 127
1, 168180, Note_on_c, 1, 66, 127
1, 168180, Note_on_c, 1, 38, 127
1, 168209, Note_off_c, 1, 78, 0
1, 168210, Note_on_c, 1, 76, 127
1, 168210, Note_on_c, 1, 79, 127
1, 168239, Note_off_c, 1, 69, 0
1, 168239, Note_off_c, 1, 62, 0
1, 168239, Note_off_c, 1, 66, 0
1, 168239, Note_off_c, 1, 38, 0
1, 168239, Note_off_c, 1, 76, 0
1, 168239, Note_off_c, 1, 79, 0
1, 168240, Note_on_c, 1, 74, 127
1, 168240, Note_on_c, 1, 78, 127
1, 168240, Note_on_c, 1, 50, 127
1, 168269, Note_off_c, 1, 78, 0
1, 168270, Note_on_c, 1, 76, 127
1, 168299, Note_off_c, 1, 50, 0
1, 168299, Note_off_c, 1, 76, 0
1, 168300, Note_on_c, 1, 69, 127
1, 168300, Note_on_c, 1, 62, 127
1, 168300, Note_on_c, 1, 66, 127
1, 168300, Note_on_c, 1, 54, 127
1, 168359, Note_off_c, 1, 74, 0
1, 168359, Note_off_c, 1, 69, 0
1, 168359, Note_off_c, 1, 62, 0
1, 168359, Note_off_c, 1, 66, 0
1, 168359, Note_off_c, 1, 54, 0
1, 168360, Note_on_c, 1, 74, 127
1, 168360, Note_on_c, 1, 78, 127
1, 168360, Note_on_c, 1, 57, 127
1, 168389, Note_off_c, 1, 74, 0
1, 168390, Note_on_c, 1, 76, 127
1, 168419, Note_off_c, 1, 57, 0
1, 168419, Note_off_c, 1, 76, 0
1, 168420, Note_on_c, 1, 69, 127
1, 168420, Note_on_c, 1, 62, 127
1, 168420, Note_on_c, 1, 66, 127
1, 168420, Note_on_c, 1, 60, 127
1, 168479, Note_off_c, 1, 78, 0
1, 168479, Note_off_c, 1, 69, 0
1, 168479, Note_off_c, 1, 62, 0
1, 168479, Note_off_c, 1, 66, 0
1, 168479, Note_off_c, 1, 60, 0
1, 168480, Note_on_c, 1, 78, 127
1, 168480, Note_on_c, 1, 81, 127
1, 168480, Note_on_c, 1, 57, 127
1, 168509, Note_off_c, 1, 78, 0
1, 168510, Note_on_c, 1, 79, 127
1, 168539, Note_off_c, 1, 57, 0
1, 168539, Note_off_c, 1, 79, 0
1, 168540, Note_on_c, 1, 74, 127
1, 168540, Note_on_c, 1, 66, 127
1, 168540, Note_on_c, 1, 62, 127
1, 168540, Note_on_c, 1, 72, 127
1, 168540, Note_on_c, 1, 54, 127
1, 168599, Note_off_c, 1, 81, 0
1, 168599, Note_off_c, 1, 74, 0
1, 168599, Note_off_c, 1, 66, 0
1, 168599, Note_off_c, 1, 62, 0
1, 168599, Note_off_c, 1, 72, 0
1, 168599, Note_off_c, 1, 54, 0
1, 168600, Note_on_c, 1, 81, 127
1, 168600, Note_on_c, 1, 84, 127
1, 168600, Note_on_c, 1, 50, 127
1, 168629, Note_off_c, 1, 81, 0
1, 168630, Note_on_c, 1, 83, 127
1, 168659, Note_off_c, 1, 50, 0
1, 168659, Note_off_c, 1, 83, 0
1, 168660, Note_on_c, 1, 78, 127
1, 168660, Note_on_c, 1, 69, 127
1, 168660, Note_on_c, 1, 72, 127
1, 168660, Note_on_c, 1, 62, 127
1, 168660, Note_on_c, 1, 66, 127
1, 168660, Note_on_c, 1, 45, 127
1, 168719, Note_off_c, 1, 84, 0
1, 168719, Note_off_c, 1, 78, 0
1, 168719, Note_off_c, 1, 69, 0
1, 168719, Note_off_c, 1, 72, 0
1, 168719, Note_off_c, 1, 62, 0
1, 168719, Note_off_c, 1, 66, 0
1, 168719, Note_off_c, 1, 45, 0
1, 168720, Note_on_c, 1, 74, 127
1, 168720, Note_on_c, 1, 81, 127
1, 168720, Note_on_c, 1, 42, 127
1, 168749, Note_off_c, 1, 81, 0
1, 168750, Note_on_c, 1, 79, 127
1, 168779, Note_off_c, 1, 42, 0
1, 168779, Note_off_c, 1, 79, 0
1, 168780, Note_on_c, 1, 78, 127
1, 168780, Note_on_c, 1, 72, 127
1, 168780, Note_on_c, 1, 66, 127
1, 168780, Note_on_c, 1, 38, 127
1, 168809, Note_off_c, 1, 78, 0
1, 168810, Note_on_c, 1, 76, 127
1, 168839, Note_off_c, 1, 74, 0
1, 168839, Note_off_c, 1, 72, 0
1, 168839, Note_off_c, 1, 66, 0
1, 168839, Note_off_c, 1, 38, 0
1, 168839, Note_off_c, 1, 76, 0
1, 168840, Note_on_c, 1, 76, 127
1, 168840, Note_on_c, 1, 74, 127
1, 168840, Note_on_c, 1, 69, 127
1, 168840, Note_on_c, 1, 66, 127
1, 168840, Note_on_c, 1, 50, 127
1, 168869, Note_off_c, 1, 76, 0
1, 168869, Note_off_c, 1, 74, 0
1, 168870, Note_on_c, 1, 78, 127
1, 168870, Note_on_c, 1, 72, 127
1, 168899, Note_off_c, 1, 69, 0
1, 168899, Note_off_c, 1, 66, 0
1, 168899, Note_off_c, 1, 50, 0
1, 168899, Note_off_c, 1, 78, 0
1, 168899, Note_off_c, 1, 72, 0
1, 168900, Note_on_c, 1, 79, 127
1, 168900, Note_on_c, 1, 71, 127
1, 168900, Note_on_c, 1, 76, 127
1, 168900, Note_on_c, 1, 64, 127
1, 168900, Note_on_c, 1, 52, 127
1, 168929, Note_off_c, 1, 79, 0
1, 168930, Note_on_c, 1, 81, 127
1, 168959, Note_off_c, 1, 71, 0
1, 168959, Note_off_c, 1, 76, 0
1, 168959, Note_off_c, 1, 64, 0
1, 168959, Note_off_c, 1, 52, 0
1, 168959, Note_off_c, 1, 81, 0
1, 168960, Note_on_c, 1, 78, 127
1, 168960, Note_on_c, 1, 79, 127
1, 168960, Note_on_c, 1, 74, 127
1, 168960, Note_on_c, 1, 71, 127
1, 168960, Note_on_c, 1, 67, 127
1, 168960, Note_on_c, 1, 47, 127
1, 168989, Note_off_c, 1, 78, 0
1, 169019, Note_off_c, 1, 74, 0
1, 169019, Note_off_c, 1, 71, 0
1, 169019, Note_off_c, 1, 67, 0
1, 169019, Note_off_c, 1, 47, 0
1, 169020, Note_on_c, 1, 81, 127
1, 169020, Note_on_c, 1, 76, 127
1, 169020, Note_on_c, 1, 69, 127
1, 169020, Note_on_c, 1, 64, 127
1, 169020, Note_on_c, 1, 48, 127
1, 169049, Note_off_c, 1, 81, 0
1, 169050, Note_on_c, 1, 83, 127
1, 169079, Note_off_c, 1, 79, 0
1, 169079, Note_off_c, 1, 76, 0
1, 169079, Note_off_c, 1, 69, 0
1, 169079, Note_off_c, 1, 64, 0
1, 169079, Note_off_c, 1, 48, 0
1, 169079, Note_off_c, 1, 83, 0
1, 169080, Note_on_c, 1, 79, 127
1, 169080, Note_on_c, 1, 78, 127
1, 169080, Note_on_c, 1, 74, 127
1, 169080, Note_on_c, 1, 69, 127
1, 169080, Note_on_c, 1, 66, 127
1, 169080, Note_on_c, 1, 50, 127
1, 169109, Note_off_c, 1, 79, 0
1, 169110, Note_on_c, 1, 81, 127
1, 169139, Note_off_c, 1, 78, 0
1, 169139, Note_off_c, 1, 74, 0
1, 169139, Note_off_c, 1, 69, 0
1, 169139, Note_off_c, 1, 66, 0
1, 169139, Note_off_c, 1, 50, 0
1, 169139, Note_off_c, 1, 81, 0
1, 169140, Note_on_c, 1, 83, 127
1, 169140, Note_on_c, 1, 79, 127
1, 169140, Note_on_c, 1, 74, 127
1, 169140, Note_on_c, 1, 67, 127
1, 169140, Note_on_c, 1, 71, 127
1, 169140, Note_on_c, 1, 55, 127
1, 169169, Note_off_c, 1, 83, 0
1, 169170, Note_on_c, 1, 84, 127
1, 169199, Note_off_c, 1, 79, 0
1, 169199, Note_off_c, 1, 74, 0
1, 169199, Note_off_c, 1, 67, 0
1, 169199, Note_off_c, 1, 71, 0
1, 169199, Note_off_c, 1, 55, 0
1, 169199, Note_off_c, 1, 84, 0
1, 169200, Note_on_c, 1, 81, 127
1, 169200, Note_on_c, 1, 57, 127
1, 169229, Note_off_c, 1, 81, 0
1, 169230, Note_on_c, 1, 83, 127
1, 169259, Note_off_c, 1, 57, 0
1, 169259, Note_off_c, 1, 83, 0
1, 169260, Note_on_c, 1, 79, 127
1, 169260, Note_on_c, 1, 59, 127
1, 169290, Note_on_c, 1, 83, 127
1, 169319, Note_off_c, 1, 79, 0
1, 169319, Note_off_c, 1, 59, 0
1, 169319, Note_off_c, 1, 83, 0
1, 169320, Note_on_c, 1, 83, 127
1, 169320, Note_on_c, 1, 81, 127
1, 169320, Note_on_c, 1, 79, 127
1, 169320, Note_on_c, 1, 64, 127
1, 169320, Note_on_c, 1, 71, 127
1, 169320, Note_on_c, 1, 67, 127
1, 169349, Note_off_c, 1, 81, 0
1, 169379, Note_off_c, 1, 83, 0
1, 169379, Note_off_c, 1, 79, 0
1, 169379, Note_off_c, 1, 64, 0
1, 169379, Note_off_c, 1, 71, 0
1, 169379, Note_off_c, 1, 67, 0
1, 169380, Note_on_c, 1, 81, 127
1, 169380, Note_on_c, 1, 79, 127
1, 169380, Note_on_c, 1, 72, 127
1, 169380, Note_on_c, 1, 67, 127
1, 169380, Note_on_c, 1, 54, 127
1, 169410, Note_off_c, 1, 79, 0
1, 169410, Note_on_c, 1, 76, 127
1, 169439, Note_off_c, 1, 81, 0
1, 169439, Note_off_c, 1, 72, 0
1, 169439, Note_off_c, 1, 67, 0
1, 169439, Note_off_c, 1, 54, 0
1, 169439, Note_off_c, 1, 76, 0
1, 169440, Note_on_c, 1, 78, 127
1, 169440, Note_on_c, 1, 72, 127
1, 169440, Note_on_c, 1, 64, 127
1, 169469, Note_off_c, 1, 72, 0
1, 169470, Note_on_c, 1, 69, 127
1, 169499, Note_off_c, 1, 64, 0
1, 169499, Note_off_c, 1, 69, 0
1, 169500, Note_on_c, 1, 66, 127
1, 169500, Note_on_c, 1, 63, 127
1, 169530, Note_off_c, 1, 66, 0
1, 169530, Note_on_c, 1, 71, 127
1, 169559, Note_off_c, 1, 78, 0
1, 169559, Note_off_c, 1, 63, 0
1, 169559, Note_off_c, 1, 71, 0
1, 169560, Note_on_c, 1, 81, 127
1, 169560, Note_on_c, 1, 75, 127
1, 169560, Note_on_c, 1, 71, 127
1, 169560, Note_on_c, 1, 66, 127
1, 169560, Note_on_c, 1, 59, 127
1, 169589, Note_off_c, 1, 75, 0
1, 169590, Note_on_c, 1, 78, 127
1, 169619, Note_off_c, 1, 81, 0
1, 169619, Note_off_c, 1, 71, 0
1, 169619, Note_off_c, 1, 66, 0
1, 169619, Note_off_c, 1, 59, 0
1, 169619, Note_off_c, 1, 78, 0
1, 169620, Note_on_c, 1, 79, 127
1, 169620, Note_on_c, 1, 78, 127
1, 169620, Note_on_c, 1, 71, 127
1, 169620, Note_on_c, 1, 66, 127
1, 169620, Note_on_c, 1, 52, 127
1, 169650, Note_off_c, 1, 78, 0
1, 169650, Note_on_c, 1, 76, 127
1, 169679, Note_off_c, 1, 79, 0
1, 169679, Note_off_c, 1, 71, 0
1, 169679, Note_off_c, 1, 66, 0
1, 169679, Note_off_c, 1, 52, 0
1, 169679, Note_off_c, 1, 76, 0
1, 169680, Note_on_c, 1, 76, 127
1, 169680, Note_on_c, 1, 71, 127
1, 169680, Note_on_c, 1, 62, 127
1, 169709, Note_off_c, 1, 71, 0
1, 169710, Note_on_c, 1, 67, 127
1, 169739, Note_off_c, 1, 62, 0
1, 169739, Note_off_c, 1, 67, 0
1, 169740, Note_on_c, 1, 64, 127
1, 169740, Note_on_c, 1, 61, 127
1, 169770, Note_off_c, 1, 64, 0
1, 169770, Note_on_c, 1, 69, 127
1, 169799, Note_off_c, 1, 76, 0
1, 169799, Note_off_c, 1, 61, 0
1, 169799, Note_off_c, 1, 69, 0
1, 169800, Note_on_c, 1, 79, 127
1, 169800, Note_on_c, 1, 73, 127
1, 169800, Note_on_c, 1, 67, 127
1, 169800, Note_on_c, 1, 57, 127
1, 169830, Note_on_c, 1, 76, 127
1, 169859, Note_off_c, 1, 79, 0
1, 169859, Note_off_c, 1, 73, 0
1, 169859, Note_off_c, 1, 67, 0
1, 169859, Note_off_c, 1, 57, 0
1, 169859, Note_off_c, 1, 76, 0
1, 169860, Note_on_c, 1, 78, 127
1, 169860, Note_on_c, 1, 74, 127
1, 169860, Note_on_c, 1, 69, 127
1, 169860, Note_on_c, 1, 66, 127
1, 169860, Note_on_c, 1, 50, 127
1, 169890, Note_on_c, 1, 76, 127
1, 169919, Note_off_c, 1, 78, 0
1, 169919, Note_off_c, 1, 74, 0
1, 169919, Note_off_c, 1, 69, 0
1, 169919, Note_off_c, 1, 66, 0
1, 169919, Note_off_c, 1, 50, 0
1, 169919, Note_off_c, 1, 76, 0
1, 169920, Note_on_c, 1, 74, 127
1, 169920, Note_on_c, 1, 69, 127
1, 169920, Note_on_c, 1, 62, 127
1, 169920, Note_on_c, 1, 54, 127
1, 169949, Note_off_c, 1, 74, 0
1, 169950, Note_on_c, 1, 78, 127
1, 169979, Note_off_c, 1, 69, 0
1, 169979, Note_off_c, 1, 62, 0
1, 169979, Note_off_c, 1, 54, 0
1, 169979, Note_off_c, 1, 78, 0
1, 169980, Note_on_c, 1, 76, 127
1, 169980, Note_on_c, 1, 71, 127
1, 169980, Note_on_c, 1, 67, 127
1, 169980, Note_on_c, 1, 64, 127
1, 169980, Note_on_c, 1, 74, 127
1, 169980, Note_on_c, 1, 55, 127
1, 170010, Note_on_c, 1, 78, 127
1, 170039, Note_off_c, 1, 76, 0
1, 170039, Note_off_c, 1, 71, 0
1, 170039, Note_off_c, 1, 67, 0
1, 170039, Note_off_c, 1, 64, 0
1, 170039, Note_off_c, 1, 74, 0
1, 170039, Note_off_c, 1, 55, 0
1, 170039, Note_off_c, 1, 78, 0
1, 170040, Note_on_c, 1, 79, 127
1, 170040, Note_on_c, 1, 67, 127
1, 170040, Note_on_c, 1, 59, 127
1, 170040, Note_on_c, 1, 52, 127
1, 170069, Note_off_c, 1, 79, 0
1, 170070, Note_on_c, 1, 76, 127
1, 170099, Note_off_c, 1, 67, 0
1, 170099, Note_off_c, 1, 59, 0
1, 170099, Note_off_c, 1, 52, 0
1, 170099, Note_off_c, 1, 76, 0
1, 170100, Note_on_c, 1, 69, 127
1, 170100, Note_on_c, 1, 74, 127
1, 170100, Note_on_c, 1, 64, 127
1, 170100, Note_on_c, 1, 57, 127
1, 170100, Note_on_c, 1, 73, 127
1, 170129, Note_off_c, 1, 74, 0
1, 170159, Note_off_c, 1, 69, 0
1, 170159, Note_off_c, 1, 57, 0
1, 170159, Note_off_c, 1, 73, 0
1, 170160, Note_on_c, 1, 81, 127
1, 170160, Note_on_c, 1, 71, 127
1, 170160, Note_on_c, 1, 55, 127
1, 170189, Note_off_c, 1, 71, 0
1, 170219, Note_off_c, 1, 64, 0
1, 170219, Note_off_c, 1, 55, 0
1, 170220, Note_on_c, 1, 62, 127
1, 170220, Note_on_c, 1, 54, 127
1, 170279, Note_off_c, 1, 81, 0
1, 170279, Note_off_c, 1, 62, 0
1, 170279, Note_off_c, 1, 54, 0
1, 170280, Note_on_c, 1, 79, 127
1, 170280, Note_on_c, 1, 52, 127
1, 170310, Note_on_c, 1, 76, 127
1, 170339, Note_off_c, 1, 79, 0
1, 170339, Note_off_c, 1, 52, 0
1, 170339, Note_off_c, 1, 76, 0
1, 170340, Note_on_c, 1, 78, 127
1, 170340, Note_on_c, 1, 66, 127
1, 170340, Note_on_c, 1, 50, 127
1, 170369, Note_off_c, 1, 78, 0
1, 170370, Note_on_c, 1, 86, 127
1, 170399, Note_off_c, 1, 66, 0
1, 170399, Note_off_c, 1, 50, 0
1, 170399, Note_off_c, 1, 86, 0
1, 170400, Note_on_c, 1, 85, 127
1, 170400, Note_on_c, 1, 81, 127
1, 170400, Note_on_c, 1, 74, 127
1, 170400, Note_on_c, 1, 57, 127
1, 170400, Note_on_c, 1, 42, 127
1, 170429, Note_off_c, 1, 85, 0
1, 170429, Note_off_c, 1, 81, 0
1, 170430, Note_on_c, 1, 83, 127
1, 170459, Note_off_c, 1, 74, 0
1, 170459, Note_off_c, 1, 57, 0
1, 170459, Note_off_c, 1, 42, 0
1, 170459, Note_off_c, 1, 83, 0
1, 170460, Note_on_c, 1, 81, 127
1, 170460, Note_on_c, 1, 78, 127
1, 170460, Note_on_c, 1, 74, 127
1, 170460, Note_on_c, 1, 59, 127
1, 170460, Note_on_c, 1, 64, 127
1, 170460, Note_on_c, 1, 67, 127
1, 170460, Note_on_c, 1, 73, 127
1, 170460, Note_on_c, 1, 43, 127
1, 170489, Note_off_c, 1, 81, 0
1, 170489, Note_off_c, 1, 78, 0
1, 170490, Note_on_c, 1, 79, 127
1, 170490, Note_on_c, 1, 76, 127
1, 170519, Note_off_c, 1, 74, 0
1, 170519, Note_off_c, 1, 59, 0
1, 170519, Note_off_c, 1, 64, 0
1, 170519, Note_off_c, 1, 67, 0
1, 170519, Note_off_c, 1, 73, 0
1, 170519, Note_off_c, 1, 43, 0
1, 170519, Note_off_c, 1, 79, 0
1, 170519, Note_off_c, 1, 76, 0
1, 170520, Note_on_c, 1, 78, 127
1, 170520, Note_on_c, 1, 74, 127
1, 170520, Note_on_c, 1, 69, 127
1, 170520, Note_on_c, 1, 64, 127
1, 170520, Note_on_c, 1, 45, 127
1, 170549, Note_off_c, 1, 78, 0
1, 170549, Note_off_c, 1, 74, 0
1, 170550, Note_on_c, 1, 76, 127
1, 170550, Note_on_c, 1, 73, 127
1, 170579, Note_off_c, 1, 69, 0
1, 170579, Note_off_c, 1, 64, 0
1, 170579, Note_off_c, 1, 45, 0
1, 170579, Note_off_c, 1, 76, 0
1, 170579, Note_off_c, 1, 73, 0
1, 170580, Note_on_c, 1, 74, 127
1, 170580, Note_on_c, 1, 69, 127
1, 170580, Note_on_c, 1, 66, 127
1, 170580, Note_on_c, 1, 62, 127
1, 170580, Note_on_c, 1, 38, 127
1, 170819, Note_off_c, 1, 69, 0
1, 170819, Note_off_c, 1, 38, 0
1, 170820, Note_off_c, 1, 62, 0
1, 170820, Note_on_c, 1, 71, 127
1, 170820, Note_on_c, 1, 54, 127
1, 170820, Note_on_c, 1, 47, 127
1, 170879, Note_off_c, 1, 74, 0
1, 170879, Note_off_c, 1, 66, 0
1, 170879, Note_off_c, 1, 71, 0
1, 170879, Note_off_c, 1, 54, 0
1, 170879, Note_off_c, 1, 47, 0
1, 170880, Note_on_c, 1, 52, 127
1, 170880, Note_on_c, 1, 59, 127
1, 170939, Note_off_c, 1, 59, 0
1, 170940, Note_on_c, 1, 73, 127
1, 170940, Note_on_c, 1, 70, 127
1, 170940, Note_on_c, 1, 61, 127
1, 170940, Note_on_c, 1, 66, 127
1, 170999, Note_off_c, 1, 52, 0
1, 170999, Note_off_c, 1, 73, 0
1, 170999, Note_off_c, 1, 70, 0
1, 170999, Note_off_c, 1, 61, 0
1, 170999, Note_off_c, 1, 66, 0
1, 171000, Note_on_c, 1, 54, 127
1, 171000, Note_on_c, 1, 47, 127
1, 171029, Note_off_c, 1, 54, 0
1, 171030, Note_on_c, 1, 55, 127
1, 171059, Note_off_c, 1, 47, 0
1, 171059, Note_off_c, 1, 55, 0
1, 171060, Note_on_c, 1, 71, 127
1, 171060, Note_on_c, 1, 66, 127
1, 171060, Note_on_c, 1, 62, 127
1, 171060, Note_on_c, 1, 54, 127
1, 171060, Note_on_c, 1, 47, 127
1, 171119, Note_off_c, 1, 71, 0
1, 171119, Note_off_c, 1, 66, 0
1, 171119, Note_off_c, 1, 62, 0
1, 171119, Note_off_c, 1, 54, 0
1, 171119, Note_off_c, 1, 47, 0
1, 171120, Note_on_c, 1, 47, 127
1, 171120, Note_on_c, 1, 59, 127
1, 171179, Note_off_c, 1, 59, 0
1, 171180, Note_on_c, 1, 75, 127
1, 171180, Note_on_c, 1, 71, 127
1, 171180, Note_on_c, 1, 66, 127
1, 171180, Note_on_c, 1, 57, 127
1, 171239, Note_off_c, 1, 47, 0
1, 171239, Note_off_c, 1, 75, 0
1, 171239, Note_off_c, 1, 71, 0
1, 171239, Note_off_c, 1, 66, 0
1, 171239, Note_off_c, 1, 57, 0
1, 171240, Note_on_c, 1, 60, 127
1, 171240, Note_on_c, 1, 45, 127
1, 171299, Note_off_c, 1, 60, 0
1, 171299, Note_off_c, 1, 45, 0
1, 171300, Note_on_c, 1, 59, 127
1, 171300, Note_on_c, 1, 43, 127
1, 171329, Note_off_c, 1, 59, 0
1, 171330, Note_on_c, 1, 55, 127
1, 171359, Note_off_c, 1, 43, 0
1, 171359, Note_off_c, 1, 55, 0
1, 171360, Note_on_c, 1, 76, 127
1, 171360, Note_on_c, 1, 72, 127
1, 171360, Note_on_c, 1, 67, 127
1, 171360, Note_on_c, 1, 54, 127
1, 171360, Note_on_c, 1, 48, 127
1, 171389, Note_off_c, 1, 54, 0
1, 171390, Note_on_c, 1, 52, 127
1, 171419, Note_off_c, 1, 76, 0
1, 171419, Note_off_c, 1, 72, 0
1, 171419, Note_off_c, 1, 67, 0
1, 171419, Note_off_c, 1, 48, 0
1, 171419, Note_off_c, 1, 52, 0
1, 171420, Note_on_c, 1, 76, 127
1, 171420, Note_on_c, 1, 72, 127
1, 171420, Note_on_c, 1, 66, 127
1, 171420, Note_on_c, 1, 57, 127
1, 171420, Note_on_c, 1, 45, 127
1, 171479, Note_off_c, 1, 76, 0
1, 171479, Note_off_c, 1, 72, 0
1, 171479, Note_off_c, 1, 66, 0
1, 171479, Note_off_c, 1, 57, 0
1, 171479, Note_off_c, 1, 45, 0
1, 171480, Note_on_c, 1, 75, 127
1, 171480, Note_on_c, 1, 71, 127
1, 171480, Note_on_c, 1, 66, 127
1, 171480, Note_on_c, 1, 54, 127
1, 171480, Note_on_c, 1, 47, 127
1, 171539, Note_off_c, 1, 75, 0
1, 171539, Note_off_c, 1, 71, 0
1, 171539, Note_off_c, 1, 66, 0
1, 171539, Note_off_c, 1, 54, 0
1, 171539, Note_off_c, 1, 47, 0
1, 171540, Note_on_c, 1, 76, 127
1, 171540, Note_on_c, 1, 71, 127
1, 171540, Note_on_c, 1, 64, 127
1, 171540, Note_on_c, 1, 55, 127
1, 171540, Note_on_c, 1, 52, 127
1, 171569, Note_off_c, 1, 55, 0
1, 171570, Note_on_c, 1, 54, 127
1, 171599, Note_off_c, 1, 76, 0
1, 171599, Note_off_c, 1, 71, 0
1, 171599, Note_off_c, 1, 64, 0
1, 171599, Note_off_c, 1, 52, 0
1, 171599, Note_off_c, 1, 54, 0
1, 171600, Note_on_c, 1, 79, 127
1, 171600, Note_on_c, 1, 52, 127
1, 171600, Note_on_c, 1, 40, 127
1, 171629, Note_off_c, 1, 79, 0
1, 171630, Note_on_c, 1, 78, 127
1, 171659, Note_off_c, 1, 40, 0
1, 171659, Note_off_c, 1, 78, 0
1, 171660, Note_on_c, 1, 76, 127
1, 171660, Note_on_c, 1, 42, 127
1, 171689, Note_off_c, 1, 76, 0
1, 171690, Note_on_c, 1, 74, 127
1, 171719, Note_off_c, 1, 42, 0
1, 171719, Note_off_c, 1, 74, 0
1, 171720, Note_on_c, 1, 73, 127
1, 171720, Note_on_c, 1, 43, 127
1, 171749, Note_off_c, 1, 73, 0
1, 171750, Note_on_c, 1, 71, 127
1, 171779, Note_off_c, 1, 43, 0
1, 171779, Note_off_c, 1, 71, 0
1, 171780, Note_on_c, 1, 69, 127
1, 171780, Note_on_c, 1, 64, 127
1, 171780, Note_on_c, 1, 45, 127
1, 171839, Note_off_c, 1, 52, 0
1, 171839, Note_off_c, 1, 69, 0
1, 171839, Note_off_c, 1, 64, 0
1, 171839, Note_off_c, 1, 45, 0
1, 171840, Note_on_c, 1, 50, 127
1, 171840, Note_on_c, 1, 57, 127
1, 171899, Note_off_c, 1, 57, 0
1, 171900, Note_on_c, 1, 71, 127
1, 171900, Note_on_c, 1, 68, 127
1, 171900, Note_on_c, 1, 59, 127
1, 171900, Note_on_c, 1, 64, 127
1, 171959, Note_off_c, 1, 50, 0
1, 171959, Note_off_c, 1, 71, 0
1, 171959, Note_off_c, 1, 68, 0
1, 171959, Note_off_c, 1, 59, 0
1, 171959, Note_off_c, 1, 64, 0
1, 171960, Note_on_c, 1, 52, 127
1, 171960, Note_on_c, 1, 45, 127
1, 171989, Note_off_c, 1, 52, 0
1, 171990, Note_on_c, 1, 54, 127
1, 172019, Note_off_c, 1, 45, 0
1, 172019, Note_off_c, 1, 54, 0
1, 172020, Note_on_c, 1, 69, 127
1, 172020, Note_on_c, 1, 64, 127
1, 172020, Note_on_c, 1, 61, 127
1, 172020, Note_on_c, 1, 52, 127
1, 172020, Note_on_c, 1, 45, 127
1, 172079, Note_off_c, 1, 69, 0
1, 172079, Note_off_c, 1, 64, 0
1, 172079, Note_off_c, 1, 61, 0
1, 172079, Note_off_c, 1, 52, 0
1, 172079, Note_off_c, 1, 45, 0
1, 172080, Note_on_c, 1, 45, 127
1, 172080, Note_on_c, 1, 57, 127
1, 172139, Note_off_c, 1, 45, 0
1, 172139, Note_off_c, 1, 57, 0
1, 172140, Note_on_c, 1, 73, 127
1, 172140, Note_on_c, 1, 69, 127
1, 172140, Note_on_c, 1, 64, 127
1, 172140, Note_on_c, 1, 45, 127
1, 172140, Note_on_c, 1, 55, 127
1, 172199, Note_off_c, 1, 73, 0
1, 172199, Note_off_c, 1, 69, 0
1, 172199, Note_off_c, 1, 64, 0
1, 172199, Note_off_c, 1, 45, 0
1, 172199, Note_off_c, 1, 55, 0
1, 172200, Note_on_c, 1, 52, 127
1, 172200, Note_on_c, 1, 43, 127
1, 172259, Note_off_c, 1, 52, 0
1, 172259, Note_off_c, 1, 43, 0
1, 172260, Note_on_c, 1, 57, 127
1, 172260, Note_on_c, 1, 42, 127
1, 172289, Note_off_c, 1, 57, 0
1, 172290, Note_on_c, 1, 54, 127
1, 172319, Note_off_c, 1, 42, 0
1, 172319, Note_off_c, 1, 54, 0
1, 172320, Note_on_c, 1, 74, 127
1, 172320, Note_on_c, 1, 71, 127
1, 172320, Note_on_c, 1, 66, 127
1, 172320, Note_on_c, 1, 52, 127
1, 172320, Note_on_c, 1, 47, 127
1, 172349, Note_off_c, 1, 52, 0
1, 172350, Note_on_c, 1, 50, 127
1, 172379, Note_off_c, 1, 74, 0
1, 172379, Note_off_c, 1, 71, 0
1, 172379, Note_off_c, 1, 66, 0
1, 172379, Note_off_c, 1, 47, 0
1, 172379, Note_off_c, 1, 50, 0
1, 172380, Note_on_c, 1, 74, 127
1, 172380, Note_on_c, 1, 71, 127
1, 172380, Note_on_c, 1, 64, 127
1, 172380, Note_on_c, 1, 55, 127
1, 172380, Note_on_c, 1, 43, 127
1, 172439, Note_off_c, 1, 74, 0
1, 172439, Note_off_c, 1, 71, 0
1, 172439, Note_off_c, 1, 64, 0
1, 172439, Note_off_c, 1, 55, 0
1, 172439, Note_off_c, 1, 43, 0
1, 172440, Note_on_c, 1, 73, 127
1, 172440, Note_on_c, 1, 69, 127
1, 172440, Note_on_c, 1, 64, 127
1, 172440, Note_on_c, 1, 52, 127
1, 172440, Note_on_c, 1, 45, 127
1, 172499, Note_off_c, 1, 73, 0
1, 172499, Note_off_c, 1, 69, 0
1, 172499, Note_off_c, 1, 64, 0
1, 172499, Note_off_c, 1, 52, 0
1, 172499, Note_off_c, 1, 45, 0
1, 172500, Note_on_c, 1, 74, 127
1, 172500, Note_on_c, 1, 69, 127
1, 172500, Note_on_c, 1, 62, 127
1, 172500, Note_on_c, 1, 54, 127
1, 172500, Note_on_c, 1, 50, 127
1, 172529, Note_off_c, 1, 74, 0
1, 172530, Note_on_c, 1, 78, 127
1, 172559, Note_off_c, 1, 69, 0
1, 172559, Note_off_c, 1, 62, 0
1, 172559, Note_off_c, 1, 50, 0
1, 172559, Note_off_c, 1, 78, 0
1, 172560, Note_on_c, 1, 76, 127
1, 172560, Note_on_c, 1, 49, 127
1, 172589, Note_off_c, 1, 76, 0
1, 172619, Note_off_c, 1, 54, 0
1, 172619, Note_off_c, 1, 49, 0
1, 172620, Note_on_c, 1, 73, 127
1, 172620, Note_on_c, 1, 50, 127
1, 172649, Note_off_c, 1, 73, 0
1, 172650, Note_on_c, 1, 71, 127
1, 172679, Note_off_c, 1, 50, 0
1, 172679, Note_off_c, 1, 71, 0
1, 172680, Note_on_c, 1, 70, 127
1, 172680, Note_on_c, 1, 52, 127
1, 172709, Note_off_c, 1, 70, 0
1, 172710, Note_on_c, 1, 71, 127
1, 172739, Note_off_c, 1, 52, 0
1, 172739, Note_off_c, 1, 71, 0
1, 172740, Note_on_c, 1, 66, 127
1, 172740, Note_on_c, 1, 58, 127
1, 172740, Note_on_c, 1, 70, 127
1, 172740, Note_on_c, 1, 54, 127
1, 172799, Note_off_c, 1, 58, 0
1, 172799, Note_off_c, 1, 54, 0
1, 172800, Note_off_c, 1, 70, 0
1, 172800, Note_on_c, 1, 42, 127
1, 172859, Note_off_c, 1, 42, 0
1, 172860, Note_on_c, 1, 73, 127
1, 172920, Note_off_c, 1, 73, 0
1, 172920, Note_on_c, 1, 59, 127
1, 172920, Note_on_c, 1, 52, 127
1, 172949, Note_off_c, 1, 59, 0
1, 172950, Note_on_c, 1, 61, 127
1, 172979, Note_off_c, 1, 52, 0
1, 172979, Note_off_c, 1, 61, 0
1, 172980, Note_on_c, 1, 71, 127
1, 172980, Note_on_c, 1, 50, 127
1, 173039, Note_off_c, 1, 50, 0
1, 173040, Note_off_c, 1, 71, 0
1, 173100, Note_on_c, 1, 62, 127
1, 173100, Note_on_c, 1, 47, 127
1, 173159, Note_off_c, 1, 47, 0
1, 173160, Note_off_c, 1, 62, 0
1, 173220, Note_on_c, 1, 64, 127
1, 173220, Note_on_c, 1, 46, 127
1, 173279, Note_off_c, 1, 46, 0
1, 173280, Note_off_c, 1, 64, 0
1, 173310, Note_on_c, 1, 56, 127
1, 173339, Note_off_c, 1, 56, 0
1, 173640, Note_off_c, 1, 66, 0
1, 173700, Note_on_c, 1, 68, 127
1, 173760, Note_off_c, 1, 68, 0
1, 173820, Note_on_c, 1, 74, 127
1, 173820, Note_on_c, 1, 44, 127
1, 173879, Note_off_c, 1, 44, 0
1, 173880, Note_off_c, 1, 74, 0
1, 173880, Note_on_c, 1, 53, 127
1, 173940, Note_on_c, 1, 65, 127
1, 173940, Note_on_c, 1, 49, 127
1, 173999, Note_off_c, 1, 53, 0
1, 173999, Note_off_c, 1, 49, 0
1, 174060, Note_off_c, 1, 65, 0
1, 174060, Note_on_c, 1, 45, 127
1, 174119, Note_off_c, 1, 45, 0
1, 174180, Note_on_c, 1, 57, 127
1, 174180, Note_on_c, 1, 69, 127
1, 174240, Note_off_c, 1, 69, 0
1, 174299, Note_off_c, 1, 57, 0
1, 174540, Note_on_c, 1, 78, 127
1, 174540, Note_on_c, 1, 45, 127
1, 174599, Note_off_c, 1, 45, 0
1, 174600, Note_on_c, 1, 73, 127
1, 174600, Note_on_c, 1, 69, 127
1, 174600, Note_on_c, 1, 66, 127
1, 174600, Note_on_c, 1, 42, 127
1, 174659, Note_off_c, 1, 73, 0
1, 174659, Note_off_c, 1, 69, 0
1, 174659, Note_off_c, 1, 66, 0
1, 174659, Note_off_c, 1, 42, 0
1, 174660, Note_on_c, 1, 74, 127
1, 174660, Note_on_c, 1, 71, 127
1, 174660, Note_on_c, 1, 62, 127
1, 174660, Note_on_c, 1, 47, 127
1, 174719, Note_off_c, 1, 74, 0
1, 174719, Note_off_c, 1, 71, 0
1, 174719, Note_off_c, 1, 62, 0
1, 174719, Note_off_c, 1, 47, 0
1, 174720, Note_on_c, 1, 50, 127
1, 174779, Note_off_c, 1, 50, 0
1, 174780, Note_on_c, 1, 59, 127
1, 174780, Note_on_c, 1, 54, 127
1, 174809, Note_off_c, 1, 59, 0
1, 174839, Note_off_c, 1, 54, 0
1, 174900, Note_on_c, 1, 61, 127
1, 174959, Note_off_c, 1, 61, 0
1, 174960, Note_on_c, 1, 49, 127
1, 175019, Note_off_c, 1, 49, 0
1, 175020, Note_on_c, 1, 57, 127
1, 175049, Note_off_c, 1, 57, 0
1, 175080, Note_on_c, 1, 52, 127
1, 175139, Note_off_c, 1, 52, 0
1, 175350, Note_on_c, 1, 68, 127
1, 175379, Note_off_c, 1, 68, 0
1, 175680, Note_off_c, 1, 78, 0
1, 175680, Note_on_c, 1, 80, 127
1, 175740, Note_on_c, 1, 77, 127
1, 175799, Note_off_c, 1, 80, 0
1, 175799, Note_off_c, 1, 77, 0
1, 175800, Note_on_c, 1, 81, 127
1, 175860, Note_on_c, 1, 78, 127
1, 175860, Note_on_c, 1, 74, 127
1, 175860, Note_on_c, 1, 71, 127
1, 175860, Note_on_c, 1, 50, 127
1, 175919, Note_off_c, 1, 81, 0
1, 175919, Note_off_c, 1, 78, 0
1, 175919, Note_off_c, 1, 74, 0
1, 175919, Note_off_c, 1, 71, 0
1, 175919, Note_off_c, 1, 50, 0
1, 175920, Note_on_c, 1, 83, 127
1, 175980, Note_on_c, 1, 80, 127
1, 175980, Note_on_c, 1, 73, 127
1, 175980, Note_on_c, 1, 68, 127
1, 175980, Note_on_c, 1, 41, 127
1, 176039, Note_off_c, 1, 83, 0
1, 176039, Note_off_c, 1, 80, 0
1, 176039, Note_off_c, 1, 73, 0
1, 176039, Note_off_c, 1, 68, 0
1, 176039, Note_off_c, 1, 41, 0
1, 176040, Note_on_c, 1, 85, 127
1, 176099, Note_off_c, 1, 85, 0
1, 176100, Note_on_c, 1, 83, 127
1, 176100, Note_on_c, 1, 73, 127
1, 176100, Note_on_c, 1, 42, 127
1, 176129, Note_off_c, 1, 83, 0
1, 176130, Note_on_c, 1, 81, 127
1, 176159, Note_off_c, 1, 73, 0
1, 176159, Note_off_c, 1, 42, 0
1, 176159, Note_off_c, 1, 81, 0
1, 176160, Note_on_c, 1, 80, 127
1, 176160, Note_on_c, 1, 78, 127
1, 176160, Note_on_c, 1, 73, 127
1, 176160, Note_on_c, 1, 66, 127
1, 176160, Note_on_c, 1, 45, 127
1, 176189, Note_off_c, 1, 80, 0
1, 176219, Note_off_c, 1, 73, 0
1, 176219, Note_off_c, 1, 66, 0
1, 176219, Note_off_c, 1, 45, 0
1, 176220, Note_on_c, 1, 81, 127
1, 176220, Note_on_c, 1, 61, 127
1, 176220, Note_on_c, 1, 49, 127
1, 176279, Note_off_c, 1, 78, 0
1, 176279, Note_off_c, 1, 81, 0
1, 176279, Note_off_c, 1, 61, 0
1, 176279, Note_off_c, 1, 49, 0
1, 176280, Note_on_c, 1, 80, 127
1, 176280, Note_on_c, 1, 77, 127
1, 176280, Note_on_c, 1, 73, 127
1, 176280, Note_on_c, 1, 71, 127
1, 176280, Note_on_c, 1, 37, 127
1, 176339, Note_off_c, 1, 80, 0
1, 176339, Note_off_c, 1, 77, 0
1, 176339, Note_off_c, 1, 73, 0
1, 176339, Note_off_c, 1, 71, 0
1, 176339, Note_off_c, 1, 37, 0
1, 176340, Note_on_c, 1, 78, 127
1, 176340, Note_on_c, 1, 73, 127
1, 176340, Note_on_c, 1, 69, 127
1, 176340, Note_on_c, 1, 42, 127
1, 176399, Note_off_c, 1, 42, 0
1, 176400, Note_on_c, 1, 76, 127
1, 176400, Note_on_c, 1, 54, 127
1, 176429, Note_off_c, 1, 76, 0
1, 176430, Note_on_c, 1, 74, 127
1, 176459, Note_off_c, 1, 73, 0
1, 176459, Note_off_c, 1, 69, 0
1, 176459, Note_off_c, 1, 54, 0
1, 176459, Note_off_c, 1, 74, 0
1, 176460, Note_on_c, 1, 57, 127
1, 176490, Note_on_c, 1, 71, 127
1, 176519, Note_off_c, 1, 57, 0
1, 176519, Note_off_c, 1, 71, 0
1, 176520, Note_on_c, 1, 61, 127
1, 176550, Note_on_c, 1, 68, 127
1, 176579, Note_off_c, 1, 78, 0
1, 176579, Note_off_c, 1, 61, 0
1, 176579, Note_off_c, 1, 68, 0
1, 176580, Note_on_c, 1, 70, 127
1, 176580, Note_on_c, 1, 61, 127
1, 176580, Note_on_c, 1, 66, 127
1, 176580, Note_on_c, 1, 54, 127
1, 176639, Note_off_c, 1, 70, 0
1, 176639, Note_off_c, 1, 61, 0
1, 176639, Note_off_c, 1, 66, 0
1, 176639, Note_off_c, 1, 54, 0
1, 176640, Note_on_c, 1, 68, 127
1, 176640, Note_on_c, 1, 59, 127
1, 176640, Note_on_c, 1, 42, 127
1, 176699, Note_off_c, 1, 42, 0
1, 176700, Note_on_c, 1, 66, 127
1, 176700, Note_on_c, 1, 70, 127
1, 176759, Note_off_c, 1, 68, 0
1, 176759, Note_off_c, 1, 59, 0
1, 176759, Note_off_c, 1, 66, 0
1, 176759, Note_off_c, 1, 70, 0
1, 176760, Note_on_c, 1, 70, 127
1, 176760, Note_on_c, 1, 61, 127
1, 176760, Note_on_c, 1, 54, 127
1, 176789, Note_off_c, 1, 70, 0
1, 176789, Note_off_c, 1, 61, 0
1, 176790, Note_on_c, 1, 71, 127
1, 176790, Note_on_c, 1, 62, 127
1, 176819, Note_off_c, 1, 54, 0
1, 176819, Note_off_c, 1, 71, 0
1, 176819, Note_off_c, 1, 62, 0
1, 176820, Note_on_c, 1, 70, 127
1, 176820, Note_on_c, 1, 61, 127
1, 176820, Note_on_c, 1, 64, 127
1, 176820, Note_on_c, 1, 52, 127
1, 176879, Note_off_c, 1, 70, 0
1, 176879, Note_off_c, 1, 61, 0
1, 176879, Note_off_c, 1, 64, 0
1, 176879, Note_off_c, 1, 52, 0
1, 176880, Note_on_c, 1, 70, 127
1, 176880, Note_on_c, 1, 54, 127
1, 176880, Note_on_c, 1, 40, 127
1, 176939, Note_off_c, 1, 40, 0
1, 176940, Note_on_c, 1, 64, 127
1, 176940, Note_on_c, 1, 61, 127
1, 176999, Note_off_c, 1, 70, 0
1, 176999, Note_off_c, 1, 54, 0
1, 176999, Note_off_c, 1, 64, 0
1, 176999, Note_off_c, 1, 61, 0
1, 177000, Note_on_c, 1, 71, 127
1, 177000, Note_on_c, 1, 58, 127
1, 177000, Note_on_c, 1, 52, 127
1, 177029, Note_off_c, 1, 71, 0
1, 177030, Note_on_c, 1, 73, 127
1, 177059, Note_off_c, 1, 58, 0
1, 177059, Note_off_c, 1, 52, 0
1, 177059, Note_off_c, 1, 73, 0
1, 177060, Note_on_c, 1, 66, 127
1, 177060, Note_on_c, 1, 59, 127
1, 177060, Note_on_c, 1, 71, 127
1, 177060, Note_on_c, 1, 50, 127
1, 177119, Note_off_c, 1, 66, 0
1, 177119, Note_off_c, 1, 59, 0
1, 177119, Note_off_c, 1, 71, 0
1, 177119, Note_off_c, 1, 50, 0
1, 177120, Note_on_c, 1, 83, 127
1, 177120, Note_on_c, 1, 78, 127
1, 177120, Note_on_c, 1, 71, 127
1, 177120, Note_on_c, 1, 54, 127
1, 177120, Note_on_c, 1, 66, 127
1, 177120, Note_on_c, 1, 38, 127
1, 177149, Note_off_c, 1, 83, 0
1, 177149, Note_off_c, 1, 66, 0
1, 177150, Note_off_c, 1, 78, 0
1, 177150, Note_off_c, 1, 71, 0
1, 177179, Note_off_c, 1, 54, 0
1, 177179, Note_off_c, 1, 38, 0
1, 177180, Note_on_c, 1, 83, 127
1, 177180, Note_on_c, 1, 79, 127
1, 177180, Note_on_c, 1, 64, 127
1, 177180, Note_on_c, 1, 61, 127
1, 177180, Note_on_c, 1, 71, 127
1, 177180, Note_on_c, 1, 67, 127
1, 177180, Note_on_c, 1, 40, 127
1, 177209, Note_off_c, 1, 83, 0
1, 177209, Note_off_c, 1, 71, 0
1, 177210, Note_off_c, 1, 79, 0
1, 177210, Note_off_c, 1, 64, 0
1, 177210, Note_off_c, 1, 67, 0
1, 177239, Note_off_c, 1, 61, 0
1, 177239, Note_off_c, 1, 40, 0
1, 177240, Note_on_c, 1, 82, 127
1, 177240, Note_on_c, 1, 78, 127
1, 177240, Note_on_c, 1, 61, 127
1, 177240, Note_on_c, 1, 54, 127
1, 177240, Note_on_c, 1, 70, 127
1, 177240, Note_on_c, 1, 66, 127
1, 177240, Note_on_c, 1, 42, 127
1, 177269, Note_off_c, 1, 82, 0
1, 177269, Note_off_c, 1, 70, 0
1, 177270, Note_off_c, 1, 78, 0
1, 177270, Note_off_c, 1, 61, 0
1, 177270, Note_off_c, 1, 66, 0
1, 177299, Note_off_c, 1, 54, 0
1, 177299, Note_off_c, 1, 42, 0
1, 177300, Note_on_c, 1, 83, 127
1, 177300, Note_on_c, 1, 78, 127
1, 177300, Note_on_c, 1, 59, 127
1, 177300, Note_on_c, 1, 62, 127
1, 177300, Note_on_c, 1, 71, 127
1, 177300, Note_on_c, 1, 66, 127
1, 177300, Note_on_c, 1, 47, 127
1, 177329, Note_off_c, 1, 83, 0
1, 177329, Note_off_c, 1, 71, 0
1, 177329, Note_off_c, 1, 47, 0
1, 177330, Note_off_c, 1, 78, 0
1, 177330, Note_off_c, 1, 59, 0
1, 177330, Note_off_c, 1, 66, 0
1, 177330, Note_on_c, 1, 46, 127
1, 177359, Note_off_c, 1, 46, 0
1, 177390, Note_on_c, 1, 49, 127
1, 177419, Note_off_c, 1, 49, 0
1, 177420, Note_on_c, 1, 50, 127
1, 177449, Note_off_c, 1, 50, 0
1, 177450, Note_on_c, 1, 69, 127
1, 177479, Note_off_c, 1, 69, 0
1, 177480, Note_on_c, 1, 68, 127
1, 177509, Note_off_c, 1, 68, 0
1, 177540, Note_on_c, 1, 80, 127
1, 177540, Note_on_c, 1, 64, 127
1, 177540, Note_on_c, 1, 52, 127
1, 177599, Note_off_c, 1, 62, 0
1, 177599, Note_off_c, 1, 80, 0
1, 177599, Note_off_c, 1, 64, 0
1, 177599, Note_off_c, 1, 52, 0
1, 177600, Note_on_c, 1, 66, 127
1, 177600, Note_on_c, 1, 61, 127
1, 177600, Note_on_c, 1, 40, 127
1, 177659, Note_off_c, 1, 40, 0
1, 177660, Note_on_c, 1, 81, 127
1, 177660, Note_on_c, 1, 68, 127
1, 177660, Note_on_c, 1, 64, 127
1, 177719, Note_off_c, 1, 66, 0
1, 177719, Note_off_c, 1, 61, 0
1, 177719, Note_off_c, 1, 81, 0
1, 177719, Note_off_c, 1, 68, 0
1, 177719, Note_off_c, 1, 64, 0
1, 177720, Note_on_c, 1, 68, 127
1, 177720, Note_on_c, 1, 59, 127
1, 177720, Note_on_c, 1, 52, 127
1, 177749, Note_off_c, 1, 68, 0
1, 177750, Note_on_c, 1, 69, 127
1, 177779, Note_off_c, 1, 52, 0
1, 177779, Note_off_c, 1, 69, 0
1, 177780, Note_on_c, 1, 76, 127
1, 177780, Note_on_c, 1, 64, 127
1, 177780, Note_on_c, 1, 50, 127
1, 177809, Note_off_c, 1, 59, 0
1, 177810, Note_on_c, 1, 57, 127
1, 177839, Note_off_c, 1, 76, 0
1, 177839, Note_off_c, 1, 64, 0
1, 177839, Note_off_c, 1, 50, 0
1, 177839, Note_off_c, 1, 57, 0
1, 177840, Note_on_c, 1, 68, 127
1, 177840, Note_on_c, 1, 56, 127
1, 177840, Note_on_c, 1, 38, 127
1, 177869, Note_off_c, 1, 56, 0
1, 177870, Note_on_c, 1, 54, 127
1, 177899, Note_off_c, 1, 38, 0
1, 177899, Note_off_c, 1, 54, 0
1, 177900, Note_on_c, 1, 52, 127
1, 177900, Note_on_c, 1, 64, 127
1, 177959, Note_off_c, 1, 68, 0
1, 177959, Note_off_c, 1, 52, 0
1, 177959, Note_off_c, 1, 64, 0
1, 177960, Note_on_c, 1, 69, 127
1, 177960, Note_on_c, 1, 56, 127
1, 177960, Note_on_c, 1, 50, 127
1, 177989, Note_off_c, 1, 69, 0
1, 177990, Note_on_c, 1, 71, 127
1, 178019, Note_off_c, 1, 56, 0
1, 178019, Note_off_c, 1, 50, 0
1, 178019, Note_off_c, 1, 71, 0
1, 178020, Note_on_c, 1, 64, 127
1, 178020, Note_on_c, 1, 57, 127
1, 178020, Note_on_c, 1, 69, 127
1, 178020, Note_on_c, 1, 49, 127
1, 178079, Note_off_c, 1, 64, 0
1, 178079, Note_off_c, 1, 57, 0
1, 178079, Note_off_c, 1, 69, 0
1, 178079, Note_off_c, 1, 49, 0
1, 178080, Note_on_c, 1, 81, 127
1, 178080, Note_on_c, 1, 76, 127
1, 178080, Note_on_c, 1, 69, 127
1, 178080, Note_on_c, 1, 52, 127
1, 178080, Note_on_c, 1, 64, 127
1, 178080, Note_on_c, 1, 37, 127
1, 178109, Note_off_c, 1, 81, 0
1, 178110, Note_off_c, 1, 76, 0
1, 178110, Note_off_c, 1, 69, 0
1, 178110, Note_off_c, 1, 64, 0
1, 178139, Note_off_c, 1, 52, 0
1, 178139, Note_off_c, 1, 37, 0
1, 178140, Note_on_c, 1, 81, 127
1, 178140, Note_on_c, 1, 78, 127
1, 178140, Note_on_c, 1, 62, 127
1, 178140, Note_on_c, 1, 59, 127
1, 178140, Note_on_c, 1, 69, 127
1, 178140, Note_on_c, 1, 66, 127
1, 178140, Note_on_c, 1, 38, 127
1, 178169, Note_off_c, 1, 81, 0
1, 178169, Note_off_c, 1, 69, 0
1, 178170, Note_off_c, 1, 78, 0
1, 178170, Note_off_c, 1, 62, 0
1, 178170, Note_off_c, 1, 66, 0
1, 178199, Note_off_c, 1, 59, 0
1, 178199, Note_off_c, 1, 38, 0
1, 178200, Note_on_c, 1, 80, 127
1, 178200, Note_on_c, 1, 76, 127
1, 178200, Note_on_c, 1, 59, 127
1, 178200, Note_on_c, 1, 52, 127
1, 178200, Note_on_c, 1, 68, 127
1, 178200, Note_on_c, 1, 71, 127
1, 178200, Note_on_c, 1, 64, 127
1, 178200, Note_on_c, 1, 40, 127
1, 178229, Note_off_c, 1, 80, 0
1, 178229, Note_off_c, 1, 68, 0
1, 178230, Note_off_c, 1, 76, 0
1, 178230, Note_off_c, 1, 59, 0
1, 178230, Note_off_c, 1, 71, 0
1, 178230, Note_off_c, 1, 64, 0
1, 178259, Note_off_c, 1, 52, 0
1, 178259, Note_off_c, 1, 40, 0
1, 178260, Note_on_c, 1, 81, 127
1, 178260, Note_on_c, 1, 76, 127
1, 178260, Note_on_c, 1, 57, 127
1, 178260, Note_on_c, 1, 61, 127
1, 178260, Note_on_c, 1, 69, 127
1, 178260, Note_on_c, 1, 64, 127
1, 178260, Note_on_c, 1, 45, 127
1, 178289, Note_off_c, 1, 81, 0
1, 178289, Note_off_c, 1, 45, 0
1, 178290, Note_off_c, 1, 76, 0
1, 178290, Note_off_c, 1, 57, 0
1, 178290, Note_off_c, 1, 69, 0
1, 178290, Note_off_c, 1, 64, 0
1, 178290, Note_on_c, 1, 44, 127
1, 178319, Note_off_c, 1, 44, 0
1, 178350, Note_on_c, 1, 47, 127
1, 178379, Note_off_c, 1, 47, 0
1, 178380, Note_on_c, 1, 49, 127
1, 178409, Note_off_c, 1, 49, 0
1, 178410, Note_on_c, 1, 67, 127
1, 178439, Note_off_c, 1, 67, 0
1, 178470, Note_on_c, 1, 66, 127
1, 178499, Note_off_c, 1, 61, 0
1, 178499, Note_off_c, 1, 66, 0
1, 178500, Note_on_c, 1, 78, 127
1, 178500, Note_on_c, 1, 54, 127
1, 178500, Note_on_c, 1, 74, 127
1, 178500, Note_on_c, 1, 71, 127
1, 178500, Note_on_c, 1, 64, 127
1, 178500, Note_on_c, 1, 50, 127
1, 178559, Note_off_c, 1, 78, 0
1, 178559, Note_off_c, 1, 54, 0
1, 178559, Note_off_c, 1, 74, 0
1, 178559, Note_off_c, 1, 50, 0
1, 178560, Note_off_c, 1, 71, 0
1, 178560, Note_off_c, 1, 64, 0
1, 178560, Note_on_c, 1, 56, 127
1, 178560, Note_on_c, 1, 49, 127
1, 178619, Note_off_c, 1, 49, 0
1, 178620, Note_on_c, 1, 83, 127
1, 178620, Note_on_c, 1, 47, 127
1, 178679, Note_off_c, 1, 56, 0
1, 178679, Note_off_c, 1, 83, 0
1, 178679, Note_off_c, 1, 47, 0
1, 178680, Note_on_c, 1, 57, 127
1, 178680, Note_on_c, 1, 45, 127
1, 178709, Note_off_c, 1, 57, 0
1, 178710, Note_on_c, 1, 59, 127
1, 178739, Note_off_c, 1, 45, 0
1, 178739, Note_off_c, 1, 59, 0
1, 178740, Note_on_c, 1, 86, 127
1, 178740, Note_on_c, 1, 52, 127
1, 178740, Note_on_c, 1, 74, 127
1, 178740, Note_on_c, 1, 64, 127
1, 178740, Note_on_c, 1, 68, 127
1, 178740, Note_on_c, 1, 44, 127
1, 178799, Note_off_c, 1, 86, 0
1, 178799, Note_off_c, 1, 52, 0
1, 178799, Note_off_c, 1, 74, 0
1, 178799, Note_off_c, 1, 44, 0
1, 178800, Note_off_c, 1, 64, 0
1, 178800, Note_off_c, 1, 68, 0
1, 178800, Note_on_c, 1, 54, 127
1, 178800, Note_on_c, 1, 40, 127
1, 178829, Note_off_c, 1, 54, 0
1, 178830, Note_on_c, 1, 56, 127
1, 178859, Note_off_c, 1, 40, 0
1, 178859, Note_off_c, 1, 56, 0
1, 178860, Note_on_c, 1, 73, 127
1, 178860, Note_on_c, 1, 69, 127
1, 178860, Note_on_c, 1, 64, 127
1, 178860, Note_on_c, 1, 57, 127
1, 178860, Note_on_c, 1, 45, 127
1, 178889, Note_off_c, 1, 57, 0
1, 178890, Note_on_c, 1, 59, 127
1, 178919, Note_off_c, 1, 73, 0
1, 178919, Note_off_c, 1, 45, 0
1, 178919, Note_off_c, 1, 59, 0
1, 178920, Note_off_c, 1, 69, 0
1, 178920, Note_off_c, 1, 64, 0
1, 178920, Note_on_c, 1, 61, 127
1, 178920, Note_on_c, 1, 47, 127
1, 178949, Note_off_c, 1, 61, 0
1, 178950, Note_on_c, 1, 62, 127
1, 178979, Note_off_c, 1, 47, 0
1, 178979, Note_off_c, 1, 62, 0
1, 178980, Note_on_c, 1, 64, 127
1, 178980, Note_on_c, 1, 73, 127
1, 178980, Note_on_c, 1, 69, 127
1, 178980, Note_on_c, 1, 49, 127
1, 179039, Note_off_c, 1, 73, 0
1, 179039, Note_off_c, 1, 49, 0
1, 179040, Note_off_c, 1, 64, 0
1, 179040, Note_off_c, 1, 69, 0
1, 179040, Note_on_c, 1, 62, 127
1, 179040, Note_on_c, 1, 45, 127
1, 179069, Note_off_c, 1, 62, 0
1, 179070, Note_on_c, 1, 61, 127
1, 179099, Note_off_c, 1, 45, 0
1, 179099, Note_off_c, 1, 61, 0
1, 179100, Note_on_c, 1, 71, 127
1, 179100, Note_on_c, 1, 69, 127
1, 179100, Note_on_c, 1, 66, 127
1, 179100, Note_on_c, 1, 59, 127
1, 179100, Note_on_c, 1, 50, 127
1, 179159, Note_off_c, 1, 71, 0
1, 179159, Note_off_c, 1, 59, 0
1, 179159, Note_off_c, 1, 50, 0
1, 179160, Note_off_c, 1, 69, 0
1, 179160, Note_off_c, 1, 66, 0
1, 179160, Note_on_c, 1, 57, 127
1, 179160, Note_on_c, 1, 47, 127
1, 179219, Note_off_c, 1, 57, 0
1, 179219, Note_off_c, 1, 47, 0
1, 179220, Note_on_c, 1, 56, 127
1, 179220, Note_on_c, 1, 71, 127
1, 179220, Note_on_c, 1, 68, 127
1, 179220, Note_on_c, 1, 64, 127
1, 179220, Note_on_c, 1, 52, 127
1, 179279, Note_off_c, 1, 56, 0
1, 179279, Note_off_c, 1, 71, 0
1, 179279, Note_off_c, 1, 52, 0
1, 179280, Note_off_c, 1, 68, 0
1, 179280, Note_off_c, 1, 64, 0
1, 179280, Note_on_c, 1, 54, 127
1, 179339, Note_off_c, 1, 54, 0
1, 179340, Note_on_c, 1, 71, 127
1, 179340, Note_on_c, 1, 68, 127
1, 179340, Note_on_c, 1, 64, 127
1, 179340, Note_on_c, 1, 52, 127
1, 179340, Note_on_c, 1, 56, 127
1, 179399, Note_off_c, 1, 71, 0
1, 179399, Note_off_c, 1, 52, 0
1, 179399, Note_off_c, 1, 56, 0
1, 179400, Note_off_c, 1, 68, 0
1, 179400, Note_off_c, 1, 64, 0
1, 179400, Note_on_c, 1, 62, 127
1, 179460, Note_on_c, 1, 74, 127
1, 179460, Note_on_c, 1, 69, 127
1, 179460, Note_on_c, 1, 57, 127
1, 179519, Note_off_c, 1, 62, 0
1, 179519, Note_off_c, 1, 74, 0
1, 179519, Note_off_c, 1, 69, 0
1, 179519, Note_off_c, 1, 57, 0
1, 179520, Note_on_c, 1, 61, 127
1, 179520, Note_on_c, 1, 73, 127
1, 179579, Note_off_c, 1, 73, 0
1, 179580, Note_on_c, 1, 67, 127
1, 179580, Note_on_c, 1, 64, 127
1, 179580, Note_on_c, 1, 45, 127
1, 179639, Note_off_c, 1, 61, 0
1, 179639, Note_off_c, 1, 67, 0
1, 179639, Note_off_c, 1, 64, 0
1, 179639, Note_off_c, 1, 45, 0
1, 179640, Note_on_c, 1, 54, 127
1, 179640, Note_on_c, 1, 66, 127
1, 179699, Note_off_c, 1, 66, 0
1, 179700, Note_on_c, 1, 72, 127
1, 179700, Note_on_c, 1, 50, 127
1, 179759, Note_off_c, 1, 54, 0
1, 179759, Note_off_c, 1, 72, 0
1, 179759, Note_off_c, 1, 50, 0
1, 179760, Note_on_c, 1, 59, 127
1, 179760, Note_on_c, 1, 71, 127
1, 179819, Note_off_c, 1, 59, 0
1, 179819, Note_off_c, 1, 71, 0
1, 179820, Note_on_c, 1, 56, 127
1, 179879, Note_off_c, 1, 56, 0
1, 179880, Note_on_c, 1, 57, 127
1, 179880, Note_on_c, 1, 69, 127
1, 179880, Note_on_c, 1, 73, 127
1, 179880, Note_on_c, 1, 51, 127
1, 179939, Note_off_c, 1, 57, 0
1, 179939, Note_off_c, 1, 69, 0
1, 179939, Note_off_c, 1, 73, 0
1, 179939, Note_off_c, 1, 51, 0
1, 179940, Note_on_c, 1, 49, 127
1, 179940, Note_on_c, 1, 69, 127
1, 179940, Note_on_c, 1, 73, 127
1, 179940, Note_on_c, 1, 52, 127
1, 179999, Note_off_c, 1, 69, 0
1, 179999, Note_off_c, 1, 73, 0
1, 179999, Note_off_c, 1, 52, 0
1, 180000, Note_on_c, 1, 50, 127
1, 180059, Note_off_c, 1, 49, 0
1, 180059, Note_off_c, 1, 50, 0
1, 180060, Note_on_c, 1, 47, 127
1, 180060, Note_on_c, 1, 68, 127
1, 180060, Note_on_c, 1, 71, 127
1, 180060, Note_on_c, 1, 64, 127
1, 180060, Note_on_c, 1, 52, 127
1, 180089, Note_off_c, 1, 47, 0
1, 180090, Note_on_c, 1, 45, 127
1, 180119, Note_off_c, 1, 68, 0
1, 180119, Note_off_c, 1, 71, 0
1, 180119, Note_off_c, 1, 64, 0
1, 180119, Note_off_c, 1, 52, 0
1, 180119, Note_off_c, 1, 45, 0
1, 180120, Note_on_c, 1, 47, 127
1, 180120, Note_on_c, 1, 62, 127
1, 180120, Note_on_c, 1, 40, 127
1, 180179, Note_off_c, 1, 47, 0
1, 180179, Note_off_c, 1, 62, 0
1, 180179, Note_off_c, 1, 40, 0
1, 180180, Note_on_c, 1, 45, 127
1, 180180, Note_on_c, 1, 61, 127
1, 180180, Note_on_c, 1, 64, 127
1, 180180, Note_on_c, 1, 69, 127
1, 180419, Note_off_c, 1, 45, 0
1, 180419, Note_off_c, 1, 61, 0
1, 180419, Note_off_c, 1, 64, 0
1, 180419, Note_off_c, 1, 69, 0
1, 180420, Note_on_c, 1, 74, 127
1, 180420, Note_on_c, 1, 69, 127
1, 180420, Note_on_c, 1, 66, 127
1, 180420, Note_on_c, 1, 50, 127
1, 180479, Note_off_c, 1, 69, 0
1, 180479, Note_off_c, 1, 50, 0
1, 180480, Note_off_c, 1, 74, 0
1, 180480, Note_on_c, 1, 62, 127
1, 180480, Note_on_c, 1, 38, 127
1, 180539, Note_off_c, 1, 38, 0
1, 180599, Note_off_c, 1, 62, 0
1, 180600, Note_on_c, 1, 57, 127
1, 180719, Note_off_c, 1, 57, 0
1, 180870, Note_on_c, 1, 52, 127
1, 180899, Note_off_c, 1, 52, 0
1, 180900, Note_on_c, 1, 54, 127
1, 180930, Note_on_c, 1, 76, 127
1, 180930, Note_on_c, 1, 67, 127
1, 180959, Note_off_c, 1, 54, 0
1, 180959, Note_off_c, 1, 67, 0
1, 180960, Note_off_c, 1, 66, 0
1, 180960, Note_off_c, 1, 76, 0
1, 180960, Note_on_c, 1, 78, 127
1, 181079, Note_off_c, 1, 78, 0
1, 181080, Note_on_c, 1, 73, 127
1, 181080, Note_on_c, 1, 45, 127
1, 181139, Note_off_c, 1, 45, 0
1, 181140, Note_off_c, 1, 73, 0
1, 181200, Note_on_c, 1, 81, 127
1, 181200, Note_on_c, 1, 42, 127
1, 181229, Note_off_c, 1, 81, 0
1, 181230, Note_on_c, 1, 79, 127
1, 181259, Note_off_c, 1, 42, 0
1, 181259, Note_off_c, 1, 79, 0
1, 181260, Note_on_c, 1, 59, 127
1, 181260, Note_on_c, 1, 43, 127
1, 181319, Note_off_c, 1, 59, 0
1, 181319, Note_off_c, 1, 43, 0
1, 181320, Note_on_c, 1, 61, 127
1, 181320, Note_on_c, 1, 64, 127
1, 181379, Note_off_c, 1, 61, 0
1, 181380, Note_off_c, 1, 64, 0
1, 181830, Note_on_c, 1, 49, 127
1, 181859, Note_off_c, 1, 49, 0
1, 181860, Note_on_c, 1, 71, 127
1, 181860, Note_on_c, 1, 47, 127
1, 181889, Note_off_c, 1, 71, 0
1, 181919, Note_off_c, 1, 47, 0
1, 182160, Note_on_c, 1, 81, 127
1, 182160, Note_on_c, 1, 78, 127
1, 182160, Note_on_c, 1, 74, 127
1, 182160, Note_on_c, 1, 66, 127
1, 182160, Note_on_c, 1, 69, 127
1, 182160, Note_on_c, 1, 38, 127
1, 182189, Note_off_c, 1, 78, 0
1, 182190, Note_on_c, 1, 79, 127
1, 182190, Note_on_c, 1, 76, 127
1, 182219, Note_off_c, 1, 74, 0
1, 182219, Note_off_c, 1, 66, 0
1, 182219, Note_off_c, 1, 69, 0
1, 182219, Note_off_c, 1, 38, 0
1, 182219, Note_off_c, 1, 79, 0
1, 182219, Note_off_c, 1, 76, 0
1, 182279, Note_off_c, 1, 81, 0
1, 182280, Note_on_c, 1, 86, 127
1, 182280, Note_on_c, 1, 76, 127
1, 182280, Note_on_c, 1, 81, 127
1, 182280, Note_on_c, 1, 69, 127
1, 182280, Note_on_c, 1, 66, 127
1, 182280, Note_on_c, 1, 74, 127
1, 182280, Note_on_c, 1, 54, 127
1, 182309, Note_off_c, 1, 76, 0
1, 182310, Note_off_c, 1, 81, 0
1, 182339, Note_off_c, 1, 86, 0
1, 182339, Note_off_c, 1, 69, 0
1, 182339, Note_off_c, 1, 66, 0
1, 182339, Note_off_c, 1, 74, 0
1, 182339, Note_off_c, 1, 54, 0
1, 182340, Note_on_c, 1, 83, 127
1, 182340, Note_on_c, 1, 74, 127
1, 182340, Note_on_c, 1, 67, 127
1, 182340, Note_on_c, 1, 55, 127
1, 182370, Note_off_c, 1, 74, 0
1, 182370, Note_on_c, 1, 79, 127
1, 182399, Note_off_c, 1, 83, 0
1, 182399, Note_off_c, 1, 67, 0
1, 182399, Note_off_c, 1, 55, 0
1, 182399, Note_off_c, 1, 79, 0
1, 182400, Note_on_c, 1, 79, 127
1, 182400, Note_on_c, 1, 74, 127
1, 182400, Note_on_c, 1, 71, 127
1, 182400, Note_on_c, 1, 59, 127
1, 182459, Note_off_c, 1, 74, 0
1, 182459, Note_off_c, 1, 71, 0
1, 182459, Note_off_c, 1, 59, 0
1, 182460, Note_on_c, 1, 67, 127
1, 182460, Note_on_c, 1, 62, 127
1, 182489, Note_off_c, 1, 67, 0
1, 182519, Note_off_c, 1, 79, 0
1, 182519, Note_off_c, 1, 62, 0
1, 182520, Note_on_c, 1, 83, 127
1, 182520, Note_on_c, 1, 74, 127
1, 182520, Note_on_c, 1, 71, 127
1, 182520, Note_on_c, 1, 55, 127
1, 182550, Note_on_c, 1, 79, 127
1, 182579, Note_off_c, 1, 83, 0
1, 182579, Note_off_c, 1, 74, 0
1, 182579, Note_off_c, 1, 71, 0
1, 182579, Note_off_c, 1, 55, 0
1, 182579, Note_off_c, 1, 79, 0
1, 182580, Note_on_c, 1, 81, 127
1, 182580, Note_on_c, 1, 74, 127
1, 182580, Note_on_c, 1, 54, 127
1, 182610, Note_on_c, 1, 78, 127
1, 182639, Note_off_c, 1, 81, 0
1, 182639, Note_off_c, 1, 74, 0
1, 182639, Note_off_c, 1, 54, 0
1, 182639, Note_off_c, 1, 78, 0
1, 182640, Note_on_c, 1, 78, 127
1, 182640, Note_on_c, 1, 74, 127
1, 182640, Note_on_c, 1, 69, 127
1, 182640, Note_on_c, 1, 57, 127
1, 182699, Note_off_c, 1, 74, 0
1, 182699, Note_off_c, 1, 69, 0
1, 182699, Note_off_c, 1, 57, 0
1, 182700, Note_on_c, 1, 66, 127
1, 182700, Note_on_c, 1, 62, 127
1, 182729, Note_off_c, 1, 66, 0
1, 182759, Note_off_c, 1, 78, 0
1, 182759, Note_off_c, 1, 62, 0
1, 182760, Note_on_c, 1, 81, 127
1, 182760, Note_on_c, 1, 74, 127
1, 182760, Note_on_c, 1, 69, 127
1, 182760, Note_on_c, 1, 54, 127
1, 182790, Note_on_c, 1, 78, 127
1, 182819, Note_off_c, 1, 81, 0
1, 182819, Note_off_c, 1, 74, 0
1, 182819, Note_off_c, 1, 69, 0
1, 182819, Note_off_c, 1, 54, 0
1, 182819, Note_off_c, 1, 78, 0
1, 182820, Note_on_c, 1, 79, 127
1, 182820, Note_on_c, 1, 73, 127
1, 182820, Note_on_c, 1, 69, 127
1, 182820, Note_on_c, 1, 67, 127
1, 182820, Note_on_c, 1, 52, 127
1, 182850, Note_off_c, 1, 79, 0
1, 182850, Note_on_c, 1, 78, 127
1, 182879, Note_off_c, 1, 73, 0
1, 182879, Note_off_c, 1, 69, 0
1, 182879, Note_off_c, 1, 67, 0
1, 182879, Note_off_c, 1, 52, 0
1, 182879, Note_off_c, 1, 78, 0
1, 182880, Note_on_c, 1, 76, 127
1, 182880, Note_on_c, 1, 69, 127
1, 182880, Note_on_c, 1, 61, 127
1, 182910, Note_on_c, 1, 79, 127
1, 182939, Note_off_c, 1, 76, 0
1, 182939, Note_off_c, 1, 69, 0
1, 182939, Note_off_c, 1, 61, 0
1, 182939, Note_off_c, 1, 79, 0
1, 182940, Note_on_c, 1, 78, 127
1, 182940, Note_on_c, 1, 69, 127
1, 182940, Note_on_c, 1, 74, 127
1, 182940, Note_on_c, 1, 66, 127
1, 182940, Note_on_c, 1, 50, 127
1, 182970, Note_off_c, 1, 78, 0
1, 182970, Note_on_c, 1, 76, 127
1, 182999, Note_off_c, 1, 69, 0
1, 182999, Note_off_c, 1, 74, 0
1, 182999, Note_off_c, 1, 66, 0
1, 182999, Note_off_c, 1, 50, 0
1, 182999, Note_off_c, 1, 76, 0
1, 183000, Note_on_c, 1, 74, 127
1, 183000, Note_on_c, 1, 69, 127
1, 183000, Note_on_c, 1, 62, 127
1, 183030, Note_on_c, 1, 78, 127
1, 183059, Note_off_c, 1, 74, 0
1, 183059, Note_off_c, 1, 69, 0
1, 183059, Note_off_c, 1, 62, 0
1, 183059, Note_off_c, 1, 78, 0
1, 183060, Note_on_c, 1, 76, 127
1, 183060, Note_on_c, 1, 73, 127
1, 183060, Note_on_c, 1, 69, 127
1, 183060, Note_on_c, 1, 57, 127
1, 183090, Note_on_c, 1, 81, 127
1, 183119, Note_off_c, 1, 76, 0
1, 183119, Note_off_c, 1, 73, 0
1, 183119, Note_off_c, 1, 57, 0
1, 183120, Note_on_c, 1, 71, 127
1, 183120, Note_on_c, 1, 79, 127
1, 183120, Note_on_c, 1, 55, 127
1, 183149, Note_off_c, 1, 71, 0
1, 183150, Note_off_c, 1, 79, 0
1, 183150, Note_on_c, 1, 78, 127
1, 183179, Note_off_c, 1, 55, 0
1, 183180, Note_off_c, 1, 78, 0
1, 183180, Note_on_c, 1, 74, 127
1, 183180, Note_on_c, 1, 54, 127
1, 183209, Note_off_c, 1, 74, 0
1, 183239, Note_off_c, 1, 81, 0
1, 183239, Note_off_c, 1, 54, 0
1, 183240, Note_on_c, 1, 52, 127
1, 183299, Note_off_c, 1, 52, 0
1, 183300, Note_on_c, 1, 66, 127
1, 183300, Note_on_c, 1, 50, 127
1, 183330, Note_on_c, 1, 67, 127
1, 183359, Note_off_c, 1, 50, 0
1, 183359, Note_off_c, 1, 67, 0
1, 183360, Note_off_c, 1, 66, 0
1, 183360, Note_on_c, 1, 42, 127
1, 183419, Note_off_c, 1, 69, 0
1, 183419, Note_off_c, 1, 42, 0
1, 183420, Note_on_c, 1, 40, 127
1, 183479, Note_off_c, 1, 40, 0
1, 183480, Note_on_c, 1, 38, 127
1, 183539, Note_off_c, 1, 38, 0
1, 183540, Note_on_c, 1, 64, 127
1, 183540, Note_on_c, 1, 45, 127
1, 183599, Note_off_c, 1, 45, 0
1, 183630, Note_on_c, 1, 59, 127
1, 183659, Note_off_c, 1, 59, 0
1, 183780, Note_off_c, 1, 64, 0
1, 183780, Note_on_c, 1, 62, 127
1, 183899, Note_off_c, 1, 62, 0
1, 184200, Note_on_c, 1, 49, 127
1, 184259, Note_off_c, 1, 49, 0
1, 184260, Note_on_c, 1, 66, 127
1, 184260, Note_on_c, 1, 50, 127
1, 184260, Note_on_c, 1, 62, 127
1, 184260, Note_on_c, 1, 47, 127
1, 184289, Note_off_c, 1, 50, 0
1, 184290, Note_on_c, 1, 52, 127
1, 184319, Note_off_c, 1, 47, 0
1, 184319, Note_off_c, 1, 52, 0
1, 184320, Note_off_c, 1, 66, 0
1, 184320, Note_off_c, 1, 62, 0
1, 184320, Note_on_c, 1, 69, 127
1, 184320, Note_on_c, 1, 54, 127
1, 184350, Note_on_c, 1, 55, 127
1, 184379, Note_off_c, 1, 69, 0
1, 184379, Note_off_c, 1, 55, 0
1, 184380, Note_on_c, 1, 57, 127
1, 184439, Note_off_c, 1, 54, 0
1, 184439, Note_off_c, 1, 57, 0
1, 184440, Note_on_c, 1, 67, 127
1, 184440, Note_on_c, 1, 64, 127
1, 184440, Note_on_c, 1, 45, 127
1, 184499, Note_off_c, 1, 45, 0
1, 184500, Note_off_c, 1, 67, 0
1, 184500, Note_off_c, 1, 64, 0
1, 184560, Note_on_c, 1, 78, 127
1, 184590, Note_off_c, 1, 78, 0
1, 184590, Note_on_c, 1, 76, 127
1, 184620, Note_off_c, 1, 76, 0
1, 184620, Note_on_c, 1, 74, 127
1, 184620, Note_on_c, 1, 42, 127
1, 184649, Note_off_c, 1, 74, 0
1, 184679, Note_off_c, 1, 42, 0
1, 184710, Note_on_c, 1, 73, 127
1, 184740, Note_off_c, 1, 73, 0
1, 184800, Note_on_c, 1, 38, 127
1, 184919, Note_off_c, 1, 38, 0
1, 185160, Note_on_c, 1, 49, 127
1, 185219, Note_off_c, 1, 49, 0
1, 185220, Note_on_c, 1, 66, 127
1, 185220, Note_on_c, 1, 50, 127
1, 185220, Note_on_c, 1, 62, 127
1, 185220, Note_on_c, 1, 47, 127
1, 185249, Note_off_c, 1, 50, 0
1, 185250, Note_on_c, 1, 52, 127
1, 185279, Note_off_c, 1, 47, 0
1, 185279, Note_off_c, 1, 52, 0
1, 185280, Note_off_c, 1, 66, 0
1, 185280, Note_off_c, 1, 62, 0
1, 185280, Note_on_c, 1, 69, 127
1, 185280, Note_on_c, 1, 54, 127
1, 185310, Note_on_c, 1, 55, 127
1, 185339, Note_off_c, 1, 69, 0
1, 185339, Note_off_c, 1, 55, 0
1, 185340, Note_on_c, 1, 57, 127
1, 185399, Note_off_c, 1, 54, 0
1, 185399, Note_off_c, 1, 57, 0
1, 185400, Note_on_c, 1, 67, 127
1, 185400, Note_on_c, 1, 64, 127
1, 185400, Note_on_c, 1, 45, 127
1, 185459, Note_off_c, 1, 45, 0
1, 185460, Note_off_c, 1, 67, 0
1, 185460, Note_off_c, 1, 64, 0
1, 185520, Note_on_c, 1, 78, 127
1, 185520, Note_on_c, 1, 74, 127
1, 185549, Note_off_c, 1, 78, 0
1, 185549, Note_off_c, 1, 74, 0
1, 185550, Note_on_c, 1, 79, 127
1, 185550, Note_on_c, 1, 76, 127
1, 185579, Note_off_c, 1, 79, 0
1, 185579, Note_off_c, 1, 76, 0
1, 185580, Note_on_c, 1, 81, 127
1, 185580, Note_on_c, 1, 42, 127
1, 185639, Note_off_c, 1, 81, 0
1, 185639, Note_off_c, 1, 42, 0
1, 185640, Note_on_c, 1, 38, 127
1, 185699, Note_off_c, 1, 38, 0
1, 185700, Note_on_c, 1, 59, 127
1, 185700, Note_on_c, 1, 74, 127
1, 185700, Note_on_c, 1, 71, 127
1, 185700, Note_on_c, 1, 43, 127
1, 185759, Note_off_c, 1, 59, 0
1, 185759, Note_off_c, 1, 43, 0
1, 185760, Note_off_c, 1, 74, 0
1, 185760, Note_off_c, 1, 71, 0
1, 185760, Note_on_c, 1, 55, 127
1, 185760, Note_on_c, 1, 47, 127
1, 185819, Note_off_c, 1, 55, 0
1, 185819, Note_off_c, 1, 47, 0
1, 185820, Note_on_c, 1, 74, 127
1, 185820, Note_on_c, 1, 71, 127
1, 185820, Note_on_c, 1, 67, 127
1, 185820, Note_on_c, 1, 50, 127
1, 185879, Note_off_c, 1, 67, 0
1, 185879, Note_off_c, 1, 50, 0
1, 185880, Note_off_c, 1, 74, 0
1, 185880, Note_off_c, 1, 71, 0
1, 185880, Note_on_c, 1, 59, 127
1, 185880, Note_on_c, 1, 43, 127
1, 185939, Note_off_c, 1, 59, 0
1, 185939, Note_off_c, 1, 43, 0
1, 185940, Note_on_c, 1, 57, 127
1, 185940, Note_on_c, 1, 74, 127
1, 185940, Note_on_c, 1, 69, 127
1, 185940, Note_on_c, 1, 42, 127
1, 185999, Note_off_c, 1, 57, 0
1, 185999, Note_off_c, 1, 42, 0
1, 186000, Note_off_c, 1, 74, 0
1, 186000, Note_off_c, 1, 69, 0
1, 186000, Note_on_c, 1, 61, 127
1, 186000, Note_on_c, 1, 45, 127
1, 186059, Note_off_c, 1, 61, 0
1, 186059, Note_off_c, 1, 45, 0
1, 186060, Note_on_c, 1, 74, 127
1, 186060, Note_on_c, 1, 69, 127
1, 186060, Note_on_c, 1, 66, 127
1, 186060, Note_on_c, 1, 62, 127
1, 186060, Note_on_c, 1, 50, 127
1, 186119, Note_off_c, 1, 66, 0
1, 186119, Note_off_c, 1, 62, 0
1, 186119, Note_off_c, 1, 50, 0
1, 186120, Note_off_c, 1, 74, 0
1, 186120, Note_off_c, 1, 69, 0
1, 186120, Note_on_c, 1, 42, 127
1, 186179, Note_off_c, 1, 42, 0
1, 186180, Note_on_c, 1, 55, 127
1, 186180, Note_on_c, 1, 73, 127
1, 186180, Note_on_c, 1, 69, 127
1, 186180, Note_on_c, 1, 40, 127
1, 186239, Note_off_c, 1, 40, 0
1, 186240, Note_off_c, 1, 73, 0
1, 186240, Note_on_c, 1, 76, 127
1, 186240, Note_on_c, 1, 64, 127
1, 186240, Note_on_c, 1, 49, 127
1, 186299, Note_off_c, 1, 55, 0
1, 186299, Note_off_c, 1, 69, 0
1, 186299, Note_off_c, 1, 76, 0
1, 186299, Note_off_c, 1, 64, 0
1, 186299, Note_off_c, 1, 49, 0
1, 186300, Note_on_c, 1, 76, 127
1, 186300, Note_on_c, 1, 66, 127
1, 186300, Note_on_c, 1, 69, 127
1, 186300, Note_on_c, 1, 54, 127
1, 186300, Note_on_c, 1, 74, 127
1, 186300, Note_on_c, 1, 38, 127
1, 186359, Note_off_c, 1, 76, 0
1, 186359, Note_off_c, 1, 66, 0
1, 186359, Note_off_c, 1, 38, 0
1, 186360, Note_on_c, 1, 50, 127
1, 186419, Note_off_c, 1, 69, 0
1, 186419, Note_off_c, 1, 54, 0
1, 186419, Note_off_c, 1, 74, 0
1, 186419, Note_off_c, 1, 50, 0
1, 186420, Note_on_c, 1, 73, 127
1, 186420, Note_on_c, 1, 64, 127
1, 186420, Note_on_c, 1, 69, 127
1, 186420, Note_on_c, 1, 52, 127
1, 186420, Note_on_c, 1, 76, 127
1, 186420, Note_on_c, 1, 45, 127
1, 186479, Note_off_c, 1, 52, 0
1, 186479, Note_off_c, 1, 45, 0
1, 186480, Note_off_c, 1, 73, 0
1, 186480, Note_off_c, 1, 76, 0
1, 186480, Note_on_c, 1, 71, 127
1, 186480, Note_on_c, 1, 57, 127
1, 186480, Note_on_c, 1, 79, 127
1, 186480, Note_on_c, 1, 43, 127
1, 186509, Note_off_c, 1, 71, 0
1, 186510, Note_off_c, 1, 79, 0
1, 186510, Note_on_c, 1, 78, 127
1, 186539, Note_off_c, 1, 64, 0
1, 186539, Note_off_c, 1, 69, 0
1, 186539, Note_off_c, 1, 43, 0
1, 186540, Note_off_c, 1, 78, 0
1, 186540, Note_on_c, 1, 74, 127
1, 186540, Note_on_c, 1, 42, 127
1, 186569, Note_off_c, 1, 74, 0
1, 186599, Note_off_c, 1, 57, 0
1, 186599, Note_off_c, 1, 42, 0
1, 186600, Note_on_c, 1, 55, 127
1, 186600, Note_on_c, 1, 40, 127
1, 186659, Note_off_c, 1, 55, 0
1, 186659, Note_off_c, 1, 40, 0
1, 186660, Note_on_c, 1, 81, 127
1, 186660, Note_on_c, 1, 66, 127
1, 186660, Note_on_c, 1, 54, 127
1, 186660, Note_on_c, 1, 38, 127
1, 186689, Note_off_c, 1, 81, 0
1, 186719, Note_off_c, 1, 54, 0
1, 186719, Note_off_c, 1, 38, 0
1, 186720, Note_off_c, 1, 66, 0
1, 186720, Note_on_c, 1, 67, 127
1, 186720, Note_on_c, 1, 50, 127
1, 186749, Note_off_c, 1, 67, 0
1, 186779, Note_off_c, 1, 50, 0
1, 186780, Note_on_c, 1, 69, 127
1, 186780, Note_on_c, 1, 81, 127
1, 186780, Note_on_c, 1, 76, 127
1, 186780, Note_on_c, 1, 64, 127
1, 186780, Note_on_c, 1, 55, 127
1, 186780, Note_on_c, 1, 67, 127
1, 186780, Note_on_c, 1, 49, 127
1, 186809, Note_off_c, 1, 55, 0
1, 186810, Note_on_c, 1, 54, 127
1, 186839, Note_off_c, 1, 81, 0
1, 186839, Note_off_c, 1, 76, 0
1, 186839, Note_off_c, 1, 64, 0
1, 186839, Note_off_c, 1, 49, 0
1, 186839, Note_off_c, 1, 54, 0
1, 186840, Note_off_c, 1, 67, 0
1, 186840, Note_on_c, 1, 79, 127
1, 186840, Note_on_c, 1, 66, 127
1, 186840, Note_on_c, 1, 52, 127
1, 186840, Note_on_c, 1, 50, 127
1, 186869, Note_off_c, 1, 69, 0
1, 186869, Note_off_c, 1, 79, 0
1, 186869, Note_off_c, 1, 66, 0
1, 186869, Note_off_c, 1, 52, 0
1, 186870, Note_on_c, 1, 78, 127
1, 186870, Note_on_c, 1, 71, 127
1, 186899, Note_off_c, 1, 50, 0
1, 186899, Note_off_c, 1, 78, 0
1, 186899, Note_off_c, 1, 71, 0
1, 186900, Note_on_c, 1, 69, 127
1, 186900, Note_on_c, 1, 76, 127
1, 186900, Note_on_c, 1, 73, 127
1, 186900, Note_on_c, 1, 45, 127
1, 186929, Note_off_c, 1, 76, 0
1, 186930, Note_on_c, 1, 81, 127
1, 186959, Note_off_c, 1, 81, 0
1, 186960, Note_off_c, 1, 73, 0
1, 186960, Note_on_c, 1, 80, 127
1, 186960, Note_on_c, 1, 74, 127
1, 186960, Note_on_c, 1, 62, 127
1, 186960, Note_on_c, 1, 47, 127
1, 186989, Note_off_c, 1, 80, 0
1, 186990, Note_on_c, 1, 78, 127
1, 187019, Note_off_c, 1, 69, 0
1, 187019, Note_off_c, 1, 45, 0
1, 187019, Note_off_c, 1, 74, 0
1, 187019, Note_off_c, 1, 62, 0
1, 187019, Note_off_c, 1, 47, 0
1, 187019, Note_off_c, 1, 78, 0
1, 187020, Note_on_c, 1, 76, 127
1, 187020, Note_on_c, 1, 57, 127
1, 187020, Note_on_c, 1, 69, 127
1, 187020, Note_on_c, 1, 64, 127
1, 187020, Note_on_c, 1, 49, 127
1, 187050, Note_on_c, 1, 74, 127
1, 187079, Note_off_c, 1, 76, 0
1, 187079, Note_off_c, 1, 57, 0
1, 187079, Note_off_c, 1, 49, 0
1, 187079, Note_off_c, 1, 74, 0
1, 187080, Note_off_c, 1, 69, 0
1, 187080, Note_on_c, 1, 73, 127
1, 187080, Note_on_c, 1, 68, 127
1, 187080, Note_on_c, 1, 71, 127
1, 187080, Note_on_c, 1, 50, 127
1, 187109, Note_off_c, 1, 73, 0
1, 187139, Note_off_c, 1, 64, 0
1, 187139, Note_off_c, 1, 50, 0
1, 187140, Note_off_c, 1, 68, 0
1, 187140, Note_off_c, 1, 71, 0
1, 187140, Note_on_c, 1, 67, 127
1, 187200, Note_off_c, 1, 67, 0
1, 187200, Note_on_c, 1, 45, 127
1, 187259, Note_off_c, 1, 45, 0
1, 187260, Note_on_c, 1, 52, 127
1, 187260, Note_on_c, 1, 69, 127
1, 187260, Note_on_c, 1, 73, 127
1, 187260, Note_on_c, 1, 49, 127
1, 187319, Note_off_c, 1, 49, 0
1, 187320, Note_off_c, 1, 69, 0
1, 187320, Note_off_c, 1, 73, 0
1, 187379, Note_off_c, 1, 52, 0
1, 187380, Note_on_c, 1, 49, 127
1, 187380, Note_on_c, 1, 73, 127
1, 187380, Note_on_c, 1, 69, 127
1, 187380, Note_on_c, 1, 57, 127
1, 187439, Note_off_c, 1, 57, 0
1, 187440, Note_on_c, 1, 76, 127
1, 187440, Note_on_c, 1, 55, 127
1, 187469, Note_off_c, 1, 73, 0
1, 187469, Note_off_c, 1, 69, 0
1, 187469, Note_off_c, 1, 76, 0
1, 187469, Note_off_c, 1, 55, 0
1, 187470, Note_on_c, 1, 78, 127
1, 187470, Note_on_c, 1, 74, 127
1, 187470, Note_on_c, 1, 54, 127
1, 187499, Note_off_c, 1, 78, 0
1, 187499, Note_off_c, 1, 74, 0
1, 187499, Note_off_c, 1, 54, 0
1, 187500, Note_on_c, 1, 79, 127
1, 187500, Note_on_c, 1, 67, 127
1, 187500, Note_on_c, 1, 52, 127
1, 187559, Note_off_c, 1, 49, 0
1, 187559, Note_off_c, 1, 79, 0
1, 187559, Note_off_c, 1, 52, 0
1, 187560, Note_off_c, 1, 67, 0
1, 187560, Note_on_c, 1, 50, 127
1, 187619, Note_off_c, 1, 50, 0
1, 187620, Note_on_c, 1, 52, 127
1, 187620, Note_on_c, 1, 67, 127
1, 187620, Note_on_c, 1, 49, 127
1, 187649, Note_off_c, 1, 52, 0
1, 187650, Note_off_c, 1, 67, 0
1, 187650, Note_on_c, 1, 69, 127
1, 187679, Note_off_c, 1, 49, 0
1, 187680, Note_off_c, 1, 69, 0
1, 187680, Note_on_c, 1, 47, 127
1, 187680, Note_on_c, 1, 73, 127
1, 187709, Note_off_c, 1, 47, 0
1, 187710, Note_off_c, 1, 73, 0
1, 187710, Note_on_c, 1, 45, 127
1, 187739, Note_off_c, 1, 45, 0
1, 187740, Note_on_c, 1, 57, 127
1, 187799, Note_off_c, 1, 57, 0
1, 187800, Note_on_c, 1, 55, 127
1, 187800, Note_on_c, 1, 76, 127
1, 187830, Note_off_c, 1, 76, 0
1, 187859, Note_off_c, 1, 55, 0
1, 187860, Note_on_c, 1, 74, 127
1, 187860, Note_on_c, 1, 50, 127
1, 187890, Note_on_c, 1, 54, 127
1, 187919, Note_off_c, 1, 74, 0
1, 187919, Note_off_c, 1, 50, 0
1, 187919, Note_off_c, 1, 54, 0
1, 187920, Note_on_c, 1, 73, 127
1, 187920, Note_on_c, 1, 61, 127
1, 187920, Note_on_c, 1, 55, 127
1, 187920, Note_on_c, 1, 52, 127
1, 187949, Note_off_c, 1, 73, 0
1, 187950, Note_on_c, 1, 71, 127
1, 187979, Note_off_c, 1, 61, 0
1, 187979, Note_off_c, 1, 55, 0
1, 187979, Note_off_c, 1, 52, 0
1, 187979, Note_off_c, 1, 71, 0
1, 187980, Note_on_c, 1, 69, 127
1, 187980, Note_on_c, 1, 62, 127
1, 187980, Note_on_c, 1, 57, 127
1, 187980, Note_on_c, 1, 54, 127
1, 187980, Note_on_c, 1, 74, 127
1, 188010, Note_on_c, 1, 67, 127
1, 188039, Note_off_c, 1, 69, 0
1, 188039, Note_off_c, 1, 62, 0
1, 188039, Note_off_c, 1, 57, 0
1, 188039, Note_off_c, 1, 74, 0
1, 188039, Note_off_c, 1, 67, 0
1, 188040, Note_on_c, 1, 66, 127
1, 188040, Note_on_c, 1, 61, 127
1, 188040, Note_on_c, 1, 55, 127
1, 188069, Note_off_c, 1, 66, 0
1, 188070, Note_on_c, 1, 64, 127
1, 188099, Note_off_c, 1, 54, 0
1, 188099, Note_off_c, 1, 61, 0
1, 188099, Note_off_c, 1, 55, 0
1, 188099, Note_off_c, 1, 64, 0
1, 188100, Note_on_c, 1, 62, 127
1, 188100, Note_on_c, 1, 57, 127
1, 188100, Note_on_c, 1, 74, 127
1, 188100, Note_on_c, 1, 69, 127
1, 188100, Note_on_c, 1, 54, 127
1, 188159, Note_off_c, 1, 57, 0
1, 188159, Note_off_c, 1, 74, 0
1, 188159, Note_off_c, 1, 69, 0
1, 188159, Note_off_c, 1, 54, 0
1, 188160, Note_on_c, 1, 73, 127
1, 188189, Note_off_c, 1, 73, 0
1, 188190, Note_on_c, 1, 71, 127
1, 188190, Note_on_c, 1, 55, 127
1, 188219, Note_off_c, 1, 62, 0
1, 188219, Note_off_c, 1, 71, 0
1, 188219, Note_off_c, 1, 55, 0
1, 188220, Note_on_c, 1, 66, 127
1, 188220, Note_on_c, 1, 57, 127
1, 188220, Note_on_c, 1, 69, 127
1, 188220, Note_on_c, 1, 54, 127
1, 188279, Note_off_c, 1, 66, 0
1, 188279, Note_off_c, 1, 69, 0
1, 188279, Note_off_c, 1, 54, 0
1, 188280, Note_on_c, 1, 73, 127
1, 188280, Note_on_c, 1, 67, 127
1, 188280, Note_on_c, 1, 52, 127
1, 188339, Note_off_c, 1, 57, 0
1, 188339, Note_off_c, 1, 73, 0
1, 188339, Note_off_c, 1, 67, 0
1, 188339, Note_off_c, 1, 52, 0
1, 188340, Note_on_c, 1, 74, 127
1, 188340, Note_on_c, 1, 55, 127
1, 188340, Note_on_c, 1, 66, 127
1, 188340, Note_on_c, 1, 50, 127
1, 188399, Note_off_c, 1, 74, 0
1, 188399, Note_off_c, 1, 55, 0
1, 188399, Note_off_c, 1, 66, 0
1, 188399, Note_off_c, 1, 50, 0
1, 188400, Note_on_c, 1, 69, 127
1, 188400, Note_on_c, 1, 78, 127
1, 188400, Note_on_c, 1, 74, 127
1, 188400, Note_on_c, 1, 54, 127
1, 188400, Note_on_c, 1, 38, 127
1, 188429, Note_off_c, 1, 78, 0
1, 188429, Note_off_c, 1, 74, 0
1, 188430, Note_on_c, 1, 79, 127
1, 188430, Note_on_c, 1, 76, 127
1, 188430, Note_on_c, 1, 71, 127
1, 188459, Note_off_c, 1, 69, 0
1, 188459, Note_off_c, 1, 38, 0
1, 188459, Note_off_c, 1, 79, 0
1, 188459, Note_off_c, 1, 76, 0
1, 188459, Note_off_c, 1, 71, 0
1, 188460, Note_on_c, 1, 66, 127
1, 188460, Note_on_c, 1, 81, 127
1, 188460, Note_on_c, 1, 72, 127
1, 188460, Note_on_c, 1, 50, 127
1, 188519, Note_off_c, 1, 54, 0
1, 188519, Note_off_c, 1, 66, 0
1, 188519, Note_off_c, 1, 81, 0
1, 188519, Note_off_c, 1, 72, 0
1, 188519, Note_off_c, 1, 50, 0
1, 188520, Note_on_c, 1, 62, 127
1, 188520, Note_on_c, 1, 55, 127
1, 188520, Note_on_c, 1, 52, 127
1, 188579, Note_off_c, 1, 62, 0
1, 188579, Note_off_c, 1, 55, 0
1, 188579, Note_off_c, 1, 52, 0
1, 188580, Note_on_c, 1, 62, 127
1, 188580, Note_on_c, 1, 57, 127
1, 188580, Note_on_c, 1, 74, 127
1, 188580, Note_on_c, 1, 72, 127
1, 188580, Note_on_c, 1, 54, 127
1, 188609, Note_off_c, 1, 62, 0
1, 188609, Note_off_c, 1, 57, 0
1, 188639, Note_off_c, 1, 74, 0
1, 188639, Note_off_c, 1, 72, 0
1, 188639, Note_off_c, 1, 54, 0
1, 188640, Note_on_c, 1, 62, 127
1, 188640, Note_on_c, 1, 52, 127
1, 188640, Note_on_c, 1, 57, 127
1, 188669, Note_off_c, 1, 52, 0
1, 188670, Note_on_c, 1, 50, 127
1, 188699, Note_off_c, 1, 62, 0
1, 188699, Note_off_c, 1, 57, 0
1, 188699, Note_off_c, 1, 50, 0
1, 188700, Note_on_c, 1, 62, 127
1, 188700, Note_on_c, 1, 74, 127
1, 188700, Note_on_c, 1, 69, 127
1, 188700, Note_on_c, 1, 54, 127
1, 188730, Note_on_c, 1, 57, 127
1, 188759, Note_off_c, 1, 62, 0
1, 188759, Note_off_c, 1, 74, 0
1, 188759, Note_off_c, 1, 69, 0
1, 188759, Note_off_c, 1, 54, 0
1, 188759, Note_off_c, 1, 57, 0
1, 188760, Note_on_c, 1, 62, 127
1, 188760, Note_on_c, 1, 60, 127
1, 188760, Note_on_c, 1, 69, 127
1, 188760, Note_on_c, 1, 66, 127
1, 188760, Note_on_c, 1, 50, 127
1, 188819, Note_off_c, 1, 62, 0
1, 188819, Note_off_c, 1, 60, 0
1, 188819, Note_off_c, 1, 69, 0
1, 188819, Note_off_c, 1, 66, 0
1, 188819, Note_off_c, 1, 50, 0
1, 188820, Note_on_c, 1, 62, 127
1, 188820, Note_on_c, 1, 60, 127
1, 188820, Note_on_c, 1, 72, 127
1, 188820, Note_on_c, 1, 67, 127
1, 188820, Note_on_c, 1, 55, 127
1, 188849, Note_off_c, 1, 60, 0
1, 188850, Note_off_c, 1, 72, 0
1, 188850, Note_on_c, 1, 59, 127
1, 188850, Note_on_c, 1, 71, 127
1, 188879, Note_off_c, 1, 55, 0
1, 188879, Note_off_c, 1, 59, 0
1, 188880, Note_off_c, 1, 67, 0
1, 188880, Note_off_c, 1, 71, 0
1, 188880, Note_on_c, 1, 43, 127
1, 188939, Note_off_c, 1, 43, 0
1, 188970, Note_on_c, 1, 69, 127
1, 188970, Note_on_c, 1, 54, 127
1, 188999, Note_off_c, 1, 69, 0
1, 188999, Note_off_c, 1, 54, 0
1, 189000, Note_on_c, 1, 52, 127
1, 189029, Note_off_c, 1, 52, 0
1, 189030, Note_on_c, 1, 66, 127
1, 189030, Note_on_c, 1, 50, 127
1, 189059, Note_off_c, 1, 62, 0
1, 189059, Note_off_c, 1, 66, 0
1, 189059, Note_off_c, 1, 50, 0
1, 189060, Note_on_c, 1, 76, 127
1, 189060, Note_on_c, 1, 49, 127
1, 189119, Note_off_c, 1, 49, 0
1, 189120, Note_on_c, 1, 64, 127
1, 189150, Note_on_c, 1, 57, 127
1, 189179, Note_off_c, 1, 64, 0
1, 189179, Note_off_c, 1, 57, 0
1, 189180, Note_on_c, 1, 61, 127
1, 189359, Note_off_c, 1, 76, 0
1, 189359, Note_off_c, 1, 61, 0
1, 189360, Note_on_c, 1, 73, 127
1, 189360, Note_on_c, 1, 45, 127
1, 189360, Note_on_c, 1, 42, 127
1, 189419, Note_off_c, 1, 73, 0
1, 189419, Note_off_c, 1, 45, 0
1, 189419, Note_off_c, 1, 42, 0
1, 189540, Note_on_c, 1, 74, 127
1, 189540, Note_on_c, 1, 47, 127
1, 189599, Note_off_c, 1, 47, 0
1, 189839, Note_off_c, 1, 74, 0
1, 189840, Note_on_c, 1, 40, 127
1, 189899, Note_off_c, 1, 40, 0
1, 190320, Note_on_c, 1, 79, 127
1, 190439, Note_off_c, 1, 79, 0
1, 190740, Note_on_c, 1, 81, 127
1, 190770, Note_off_c, 1, 81, 0
1, 190770, Note_on_c, 1, 78, 127
1, 190800, Note_off_c, 1, 78, 0
1, 191100, Note_on_c, 1, 80, 127
1, 191100, Note_on_c, 1, 74, 127
1, 191100, Note_on_c, 1, 71, 127
1, 191100, Note_on_c, 1, 52, 127
1, 191100, Note_on_c, 1, 68, 127
1, 191100, Note_on_c, 1, 59, 127
1, 191130, Note_off_c, 1, 80, 0
1, 191130, Note_off_c, 1, 74, 0
1, 191159, Note_off_c, 1, 52, 0
1, 191159, Note_off_c, 1, 59, 0
1, 191160, Note_off_c, 1, 71, 0
1, 191160, Note_off_c, 1, 68, 0
1, 191160, Note_on_c, 1, 50, 127
1, 191160, Note_on_c, 1, 47, 127
1, 191219, Note_off_c, 1, 50, 0
1, 191219, Note_off_c, 1, 47, 0
1, 191220, Note_on_c, 1, 81, 127
1, 191220, Note_on_c, 1, 73, 127
1, 191220, Note_on_c, 1, 64, 127
1, 191220, Note_on_c, 1, 52, 127
1, 191220, Note_on_c, 1, 69, 127
1, 191220, Note_on_c, 1, 49, 127
1, 191279, Note_off_c, 1, 81, 0
1, 191279, Note_off_c, 1, 64, 0
1, 191279, Note_off_c, 1, 52, 0
1, 191279, Note_off_c, 1, 49, 0
1, 191280, Note_off_c, 1, 73, 0
1, 191280, Note_on_c, 1, 76, 127
1, 191280, Note_on_c, 1, 57, 127
1, 191310, Note_on_c, 1, 71, 127
1, 191339, Note_off_c, 1, 69, 0
1, 191339, Note_off_c, 1, 76, 0
1, 191339, Note_off_c, 1, 57, 0
1, 191339, Note_off_c, 1, 71, 0
1, 191340, Note_on_c, 1, 73, 127
1, 191340, Note_on_c, 1, 81, 127
1, 191340, Note_on_c, 1, 69, 127
1, 191340, Note_on_c, 1, 45, 127
1, 191340, Note_on_c, 1, 76, 127
1, 191340, Note_on_c, 1, 55, 127
1, 191369, Note_off_c, 1, 73, 0
1, 191370, Note_off_c, 1, 76, 0
1, 191370, Note_on_c, 1, 74, 127
1, 191399, Note_off_c, 1, 81, 0
1, 191399, Note_off_c, 1, 69, 0
1, 191399, Note_off_c, 1, 45, 0
1, 191399, Note_off_c, 1, 55, 0
1, 191400, Note_off_c, 1, 74, 0
1, 191400, Note_on_c, 1, 75, 127
1, 191400, Note_on_c, 1, 57, 127
1, 191400, Note_on_c, 1, 54, 127
1, 191430, Note_on_c, 1, 78, 127
1, 191430, Note_on_c, 1, 71, 127
1, 191459, Note_off_c, 1, 75, 0
1, 191459, Note_off_c, 1, 57, 0
1, 191459, Note_off_c, 1, 54, 0
1, 191459, Note_off_c, 1, 78, 0
1, 191460, Note_on_c, 1, 79, 127
1, 191460, Note_on_c, 1, 59, 127
1, 191460, Note_on_c, 1, 67, 127
1, 191460, Note_on_c, 1, 52, 127
1, 191489, Note_off_c, 1, 52, 0
1, 191519, Note_off_c, 1, 79, 0
1, 191519, Note_off_c, 1, 59, 0
1, 191520, Note_off_c, 1, 71, 0
1, 191520, Note_off_c, 1, 67, 0
1, 191550, Note_on_c, 1, 47, 127
1, 191579, Note_off_c, 1, 47, 0
1, 191580, Note_on_c, 1, 49, 127
1, 191610, Note_on_c, 1, 50, 127
1, 191639, Note_off_c, 1, 49, 0
1, 191639, Note_off_c, 1, 50, 0
1, 191700, Note_on_c, 1, 52, 127
1, 191700, Note_on_c, 1, 69, 127
1, 191700, Note_on_c, 1, 67, 127
1, 191700, Note_on_c, 1, 49, 127
1, 191759, Note_off_c, 1, 52, 0
1, 191759, Note_off_c, 1, 49, 0
1, 191760, Note_off_c, 1, 69, 0
1, 191760, Note_off_c, 1, 67, 0
1, 191760, Note_on_c, 1, 54, 127
1, 191760, Note_on_c, 1, 66, 127
1, 191760, Note_on_c, 1, 45, 127
1, 191819, Note_off_c, 1, 54, 0
1, 191819, Note_off_c, 1, 45, 0
1, 191820, Note_off_c, 1, 66, 0
1, 191820, Note_on_c, 1, 55, 127
1, 191820, Note_on_c, 1, 47, 127
1, 191849, Note_off_c, 1, 55, 0
1, 191850, Note_on_c, 1, 59, 127
1, 191879, Note_off_c, 1, 47, 0
1, 191879, Note_off_c, 1, 59, 0
1, 191880, Note_on_c, 1, 57, 127
1, 191939, Note_off_c, 1, 57, 0
1, 191940, Note_on_c, 1, 50, 127
1, 191999, Note_off_c, 1, 50, 0
1, 192060, Note_on_c, 1, 52, 127
1, 192060, Note_on_c, 1, 76, 127
1, 192060, Note_on_c, 1, 62, 127
1, 192060, Note_on_c, 1, 43, 127
1, 192119, Note_off_c, 1, 52, 0
1, 192119, Note_off_c, 1, 43, 0
1, 192120, Note_off_c, 1, 76, 0
1, 192120, Note_off_c, 1, 62, 0
1, 192120, Note_on_c, 1, 49, 127
1, 192120, Note_on_c, 1, 45, 127
1, 192179, Note_off_c, 1, 49, 0
1, 192179, Note_off_c, 1, 45, 0
1, 192180, Note_on_c, 1, 74, 127
1, 192180, Note_on_c, 1, 69, 127
1, 192180, Note_on_c, 1, 66, 127
1, 192180, Note_on_c, 1, 50, 127
1, 192239, Note_off_c, 1, 69, 0
1, 192240, Note_off_c, 1, 74, 0
1, 192240, Note_on_c, 1, 62, 127
1, 192240, Note_on_c, 1, 38, 127
1, 192299, Note_off_c, 1, 50, 0
1, 192299, Note_off_c, 1, 38, 0
1, 192359, Note_off_c, 1, 62, 0
1, 192360, Note_on_c, 1, 57, 127
1, 192420, Note_on_c, 1, 72, 127
1, 192479, Note_off_c, 1, 57, 0
1, 192480, Note_off_c, 1, 72, 0
1, 192660, Note_on_c, 1, 54, 127
1, 192720, Note_off_c, 1, 66, 0
1, 192720, Note_on_c, 1, 78, 127
1, 192750, Note_on_c, 1, 79, 127
1, 192779, Note_off_c, 1, 79, 0
1, 192780, Note_off_c, 1, 78, 0
1, 192780, Note_on_c, 1, 81, 127
1, 192780, Note_on_c, 1, 76, 127
1, 192780, Note_on_c, 1, 67, 127
1, 192780, Note_on_c, 1, 60, 127
1, 192839, Note_off_c, 1, 54, 0
1, 192839, Note_off_c, 1, 81, 0
1, 192839, Note_off_c, 1, 60, 0
1, 192840, Note_off_c, 1, 76, 0
1, 192840, Note_off_c, 1, 67, 0
1, 192840, Note_on_c, 1, 71, 127
1, 192840, Note_on_c, 1, 55, 127
1, 192840, Note_on_c, 1, 59, 127
1, 192899, Note_off_c, 1, 71, 0
1, 192899, Note_off_c, 1, 55, 0
1, 192899, Note_off_c, 1, 59, 0
1, 192900, Note_on_c, 1, 64, 127
1, 193019, Note_off_c, 1, 64, 0
1, 193080, Note_on_c, 1, 73, 127
1, 193140, Note_off_c, 1, 73, 0
1, 193320, Note_on_c, 1, 68, 127
1, 193380, Note_on_c, 1, 52, 127
1, 193439, Note_off_c, 1, 52, 0
1, 193440, Note_on_c, 1, 40, 127
1, 193499, Note_off_c, 1, 40, 0
1, 193559, Note_off_c, 1, 68, 0
1, 193560, Note_on_c, 1, 56, 127
1, 193619, Note_off_c, 1, 56, 0
1, 193680, Note_on_c, 1, 80, 127
1, 193709, Note_off_c, 1, 80, 0
1, 193740, Note_on_c, 1, 83, 127
1, 193799, Note_off_c, 1, 83, 0
1, 193800, Note_on_c, 1, 61, 127
1, 193859, Note_off_c, 1, 61, 0
1, 194190, Note_on_c, 1, 56, 127
1, 194219, Note_off_c, 1, 56, 0
1, 194220, Note_on_c, 1, 73, 127
1, 194220, Note_on_c, 1, 69, 127
1, 194220, Note_on_c, 1, 64, 127
1, 194220, Note_on_c, 1, 57, 127
1, 194220, Note_on_c, 1, 67, 127
1, 194220, Note_on_c, 1, 76, 127
1, 194220, Note_on_c, 1, 55, 127
1, 194250, Note_off_c, 1, 69, 0
1, 194250, Note_off_c, 1, 64, 0
1, 194279, Note_off_c, 1, 57, 0
1, 194279, Note_off_c, 1, 55, 0
1, 194280, Note_off_c, 1, 73, 0
1, 194280, Note_off_c, 1, 67, 0
1, 194280, Note_off_c, 1, 76, 0
1, 194280, Note_on_c, 1, 62, 127
1, 194340, Note_on_c, 1, 74, 127
1, 194340, Note_on_c, 1, 66, 127
1, 194340, Note_on_c, 1, 54, 127
1, 194370, Note_off_c, 1, 74, 0
1, 194370, Note_off_c, 1, 66, 0
1, 194399, Note_off_c, 1, 54, 0
1, 194400, Note_off_c, 1, 62, 0
1, 194430, Note_on_c, 1, 56, 127
1, 194459, Note_off_c, 1, 56, 0
1, 194460, Note_on_c, 1, 78, 127
1, 194460, Note_on_c, 1, 74, 127
1, 194460, Note_on_c, 1, 69, 127
1, 194460, Note_on_c, 1, 57, 127
1, 194460, Note_on_c, 1, 66, 127
1, 194460, Note_on_c, 1, 50, 127
1, 194490, Note_off_c, 1, 78, 0
1, 194519, Note_off_c, 1, 57, 0
1, 194519, Note_off_c, 1, 50, 0
1, 194520, Note_off_c, 1, 74, 0
1, 194520, Note_off_c, 1, 69, 0
1, 194520, Note_off_c, 1, 66, 0
1, 194520, Note_on_c, 1, 64, 127
1, 194580, Note_on_c, 1, 76, 127
1, 194580, Note_on_c, 1, 67, 127
1, 194580, Note_on_c, 1, 49, 127
1, 194610, Note_off_c, 1, 76, 0
1, 194639, Note_off_c, 1, 49, 0
1, 194640, Note_off_c, 1, 64, 0
1, 194640, Note_off_c, 1, 67, 0
1, 194640, Note_on_c, 1, 55, 127
1, 194669, Note_off_c, 1, 55, 0
1, 194670, Note_on_c, 1, 54, 127
1, 194699, Note_off_c, 1, 54, 0
1, 194700, Note_on_c, 1, 81, 127
1, 194700, Note_on_c, 1, 73, 127
1, 194700, Note_on_c, 1, 64, 127
1, 194700, Note_on_c, 1, 55, 127
1, 194700, Note_on_c, 1, 67, 127
1, 194700, Note_on_c, 1, 76, 127
1, 194700, Note_on_c, 1, 45, 127
1, 194730, Note_off_c, 1, 81, 0
1, 194730, Note_off_c, 1, 64, 0
1, 194759, Note_off_c, 1, 55, 0
1, 194759, Note_off_c, 1, 45, 0
1, 194760, Note_off_c, 1, 73, 0
1, 194760, Note_off_c, 1, 67, 0
1, 194760, Note_off_c, 1, 76, 0
1, 194760, Note_on_c, 1, 54, 127
1, 194789, Note_off_c, 1, 54, 0
1, 194790, Note_on_c, 1, 52, 127
1, 194819, Note_off_c, 1, 52, 0
1, 194820, Note_on_c, 1, 57, 127
1, 194820, Note_on_c, 1, 74, 127
1, 194820, Note_on_c, 1, 69, 127
1, 194820, Note_on_c, 1, 42, 127
1, 194879, Note_off_c, 1, 57, 0
1, 194879, Note_off_c, 1, 42, 0
1, 194880, Note_off_c, 1, 74, 0
1, 194880, Note_off_c, 1, 69, 0
1, 194880, Note_on_c, 1, 71, 127
1, 194880, Note_on_c, 1, 66, 127
1, 194880, Note_on_c, 1, 62, 127
1, 194880, Note_on_c, 1, 50, 127
1, 194880, Note_on_c, 1, 47, 127
1, 194939, Note_off_c, 1, 71, 0
1, 194939, Note_off_c, 1, 66, 0
1, 194939, Note_off_c, 1, 62, 0
1, 194939, Note_off_c, 1, 50, 0
1, 194939, Note_off_c, 1, 47, 0
1, 194940, Note_on_c, 1, 71, 127
1, 194940, Note_on_c, 1, 67, 127
1, 194940, Note_on_c, 1, 62, 127
1, 194940, Note_on_c, 1, 54, 127
1, 194940, Note_on_c, 1, 66, 127
1, 194940, Note_on_c, 1, 74, 127
1, 194940, Note_on_c, 1, 43, 127
1, 194969, Note_off_c, 1, 54, 0
1, 194970, Note_on_c, 1, 52, 127
1, 194999, Note_off_c, 1, 71, 0
1, 194999, Note_off_c, 1, 67, 0
1, 194999, Note_off_c, 1, 62, 0
1, 194999, Note_off_c, 1, 43, 0
1, 194999, Note_off_c, 1, 52, 0
1, 195000, Note_off_c, 1, 66, 0
1, 195000, Note_off_c, 1, 74, 0
1, 195000, Note_on_c, 1, 69, 127
1, 195000, Note_on_c, 1, 64, 127
1, 195000, Note_on_c, 1, 57, 127
1, 195000, Note_on_c, 1, 50, 127
1, 195000, Note_on_c, 1, 45, 127
1, 195029, Note_off_c, 1, 50, 0
1, 195030, Note_on_c, 1, 49, 127
1, 195059, Note_off_c, 1, 69, 0
1, 195059, Note_off_c, 1, 64, 0
1, 195059, Note_off_c, 1, 57, 0
1, 195059, Note_off_c, 1, 45, 0
1, 195059, Note_off_c, 1, 49, 0
1, 195060, Note_on_c, 1, 66, 127
1, 195060, Note_on_c, 1, 62, 127
1, 195060, Note_on_c, 1, 50, 127
1, 195060, Note_on_c, 1, 47, 127
1, 195119, Note_off_c, 1, 50, 0
1, 195119, Note_off_c, 1, 47, 0
1, 195120, Note_on_c, 1, 52, 127
1, 195149, Note_off_c, 1, 52, 0
1, 195150, Note_on_c, 1, 54, 127
1, 195179, Note_off_c, 1, 54, 0
1, 195180, Note_off_c, 1, 66, 0
1, 195180, Note_on_c, 1, 55, 127
1, 195180, Note_on_c, 1, 67, 127
1, 195209, Note_off_c, 1, 55, 0
1, 195210, Note_on_c, 1, 57, 127
1, 195239, Note_off_c, 1, 57, 0
1, 195240, Note_off_c, 1, 62, 0
1, 195240, Note_off_c, 1, 67, 0
1, 195240, Note_on_c, 1, 59, 127
1, 195240, Note_on_c, 1, 69, 127
1, 195240, Note_on_c, 1, 61, 127
1, 195240, Note_on_c, 1, 45, 127
1, 195269, Note_off_c, 1, 59, 0
1, 195299, Note_off_c, 1, 45, 0
1, 195300, Note_off_c, 1, 69, 0
1, 195300, Note_off_c, 1, 61, 0
1, 195300, Note_on_c, 1, 77, 127
1, 195300, Note_on_c, 1, 74, 127
1, 195300, Note_on_c, 1, 71, 127
1, 195300, Note_on_c, 1, 65, 127
1, 195300, Note_on_c, 1, 44, 127
1, 195359, Note_off_c, 1, 44, 0
1, 195360, Note_off_c, 1, 65, 0
1, 195420, Note_on_c, 1, 68, 127
1, 195480, Note_off_c, 1, 68, 0
1, 195480, Note_on_c, 1, 56, 127
1, 195569, Note_off_c, 1, 56, 0
1, 195659, Note_off_c, 1, 74, 0
1, 195659, Note_off_c, 1, 71, 0
1, 195660, Note_on_c, 1, 73, 127
1, 195660, Note_on_c, 1, 64, 127
1, 195720, Note_off_c, 1, 77, 0
1, 195720, Note_off_c, 1, 73, 0
1, 195720, Note_off_c, 1, 64, 0
1, 195780, Note_on_c, 1, 54, 127
1, 195839, Note_off_c, 1, 54, 0
1, 195840, Note_on_c, 1, 57, 127
1, 195840, Note_on_c, 1, 74, 127
1, 195840, Note_on_c, 1, 42, 127
1, 195869, Note_off_c, 1, 57, 0
1, 195870, Note_on_c, 1, 55, 127
1, 195899, Note_off_c, 1, 42, 0
1, 195899, Note_off_c, 1, 55, 0
1, 195900, Note_off_c, 1, 74, 0
1, 195900, Note_on_c, 1, 54, 127
1, 195900, Note_on_c, 1, 73, 127
1, 195900, Note_on_c, 1, 43, 127
1, 195959, Note_off_c, 1, 54, 0
1, 195959, Note_off_c, 1, 43, 0
1, 195960, Note_off_c, 1, 73, 0
1, 195960, Note_on_c, 1, 52, 127
1, 195960, Note_on_c, 1, 71, 127
1, 195960, Note_on_c, 1, 45, 127
1, 196019, Note_off_c, 1, 52, 0
1, 196019, Note_off_c, 1, 45, 0
1, 196020, Note_off_c, 1, 71, 0
1, 196020, Note_on_c, 1, 50, 127
1, 196020, Note_on_c, 1, 69, 127
1, 196020, Note_on_c, 1, 66, 127
1, 196020, Note_on_c, 1, 38, 127
1, 196079, Note_off_c, 1, 38, 0
1, 196080, Note_off_c, 1, 69, 0
1, 196080, Note_on_c, 1, 62, 127
1, 196139, Note_off_c, 1, 66, 0
1, 196139, Note_off_c, 1, 62, 0
1, 196140, Note_on_c, 1, 64, 127
1, 196140, Note_on_c, 1, 61, 127
1, 196199, Note_off_c, 1, 64, 0
1, 196199, Note_off_c, 1, 61, 0
1, 196200, Note_on_c, 1, 59, 127
1, 196259, Note_off_c, 1, 50, 0
1, 196259, Note_off_c, 1, 59, 0
1, 196260, Note_on_c, 1, 69, 127
1, 196260, Note_on_c, 1, 64, 127
1, 196260, Note_on_c, 1, 61, 127
1, 196260, Note_on_c, 1, 57, 127
1, 196319, Note_off_c, 1, 69, 0
1, 196319, Note_off_c, 1, 64, 0
1, 196319, Note_off_c, 1, 61, 0
1, 196319, Note_off_c, 1, 57, 0
1, 196320, Note_on_c, 1, 73, 127
1, 196320, Note_on_c, 1, 69, 127
1, 196320, Note_on_c, 1, 64, 127
1, 196320, Note_on_c, 1, 61, 127
1, 196320, Note_on_c, 1, 45, 127
1, 196379, Note_off_c, 1, 61, 0
1, 196379, Note_off_c, 1, 45, 0
1, 196380, Note_on_c, 1, 76, 127
1, 196439, Note_off_c, 1, 73, 0
1, 196439, Note_off_c, 1, 69, 0
1, 196439, Note_off_c, 1, 64, 0
1, 196439, Note_off_c, 1, 76, 0
1, 196440, Note_on_c, 1, 76, 127
1, 196440, Note_on_c, 1, 73, 127
1, 196440, Note_on_c, 1, 69, 127
1, 196440, Note_on_c, 1, 61, 127
1, 196440, Note_on_c, 1, 57, 127
1, 196499, Note_off_c, 1, 61, 0
1, 196499, Note_off_c, 1, 57, 0
1, 196500, Note_on_c, 1, 79, 127
1, 196500, Note_on_c, 1, 67, 127
1, 196559, Note_off_c, 1, 76, 0
1, 196559, Note_off_c, 1, 73, 0
1, 196559, Note_off_c, 1, 69, 0
1, 196559, Note_off_c, 1, 67, 0
1, 196560, Note_on_c, 1, 64, 127
1, 196560, Note_on_c, 1, 45, 127
1, 196619, Note_off_c, 1, 64, 0
1, 196619, Note_off_c, 1, 45, 0
1, 196679, Note_off_c, 1, 79, 0
1, 196680, Note_on_c, 1, 81, 127
1, 196680, Note_on_c, 1, 73, 127
1, 196680, Note_on_c, 1, 64, 127
1, 196680, Note_on_c, 1, 43, 127
1, 196709, Note_off_c, 1, 81, 0
1, 196710, Note_on_c, 1, 83, 127
1, 196739, Note_off_c, 1, 73, 0
1, 196739, Note_off_c, 1, 64, 0
1, 196739, Note_off_c, 1, 43, 0
1, 196739, Note_off_c, 1, 83, 0
1, 196740, Note_on_c, 1, 81, 127
1, 196740, Note_on_c, 1, 74, 127
1, 196740, Note_on_c, 1, 66, 127
1, 196740, Note_on_c, 1, 62, 127
1, 196740, Note_on_c, 1, 42, 127
1, 196770, Note_on_c, 1, 79, 127
1, 196799, Note_off_c, 1, 81, 0
1, 196799, Note_off_c, 1, 74, 0
1, 196799, Note_off_c, 1, 66, 0
1, 196799, Note_off_c, 1, 62, 0
1, 196799, Note_off_c, 1, 42, 0
1, 196799, Note_off_c, 1, 79, 0
1, 196800, Note_on_c, 1, 78, 127
1, 196800, Note_on_c, 1, 74, 127
1, 196800, Note_on_c, 1, 66, 127
1, 196800, Note_on_c, 1, 69, 127
1, 196800, Note_on_c, 1, 47, 127
1, 196829, Note_off_c, 1, 78, 0
1, 196830, Note_on_c, 1, 81, 127
1, 196859, Note_off_c, 1, 74, 0
1, 196859, Note_off_c, 1, 66, 0
1, 196859, Note_off_c, 1, 69, 0
1, 196859, Note_off_c, 1, 47, 0
1, 196859, Note_off_c, 1, 81, 0
1, 196860, Note_on_c, 1, 79, 127
1, 196860, Note_on_c, 1, 74, 127
1, 196860, Note_on_c, 1, 64, 127
1, 196860, Note_on_c, 1, 62, 127
1, 196860, Note_on_c, 1, 67, 127
1, 196860, Note_on_c, 1, 40, 127
1, 196890, Note_on_c, 1, 78, 127
1, 196919, Note_off_c, 1, 79, 0
1, 196919, Note_off_c, 1, 74, 0
1, 196919, Note_off_c, 1, 64, 0
1, 196919, Note_off_c, 1, 62, 0
1, 196919, Note_off_c, 1, 67, 0
1, 196919, Note_off_c, 1, 40, 0
1, 196919, Note_off_c, 1, 78, 0
1, 196920, Note_on_c, 1, 76, 127
1, 196920, Note_on_c, 1, 73, 127
1, 196920, Note_on_c, 1, 64, 127
1, 196920, Note_on_c, 1, 67, 127
1, 196920, Note_on_c, 1, 45, 127
1, 196950, Note_on_c, 1, 79, 127
1, 196979, Note_off_c, 1, 76, 0
1, 196979, Note_off_c, 1, 73, 0
1, 196979, Note_off_c, 1, 64, 0
1, 196979, Note_off_c, 1, 67, 0
1, 196979, Note_off_c, 1, 45, 0
1, 196979, Note_off_c, 1, 79, 0
1, 196980, Note_on_c, 1, 78, 127
1, 196980, Note_on_c, 1, 69, 127
1, 196980, Note_on_c, 1, 62, 127
1, 196980, Note_on_c, 1, 66, 127
1, 196980, Note_on_c, 1, 38, 127
1, 197009, Note_off_c, 1, 78, 0
1, 197010, Note_on_c, 1, 76, 127
1, 197010, Note_on_c, 1, 79, 127
1, 197039, Note_off_c, 1, 69, 0
1, 197039, Note_off_c, 1, 62, 0
1, 197039, Note_off_c, 1, 66, 0
1, 197039, Note_off_c, 1, 38, 0
1, 197039, Note_off_c, 1, 76, 0
1, 197039, Note_off_c, 1, 79, 0
1, 197040, Note_on_c, 1, 74, 127
1, 197040, Note_on_c, 1, 78, 127
1, 197040, Note_on_c, 1, 50, 127
1, 197069, Note_off_c, 1, 78, 0
1, 197070, Note_on_c, 1, 76, 127
1, 197099, Note_off_c, 1, 50, 0
1, 197099, Note_off_c, 1, 76, 0
1, 197100, Note_on_c, 1, 69, 127
1, 197100, Note_on_c, 1, 62, 127
1, 197100, Note_on_c, 1, 66, 127
1, 197100, Note_on_c, 1, 54, 127
1, 197159, Note_off_c, 1, 74, 0
1, 197159, Note_off_c, 1, 69, 0
1, 197159, Note_off_c, 1, 62, 0
1, 197159, Note_off_c, 1, 66, 0
1, 197159, Note_off_c, 1, 54, 0
1, 197160, Note_on_c, 1, 74, 127
1, 197160, Note_on_c, 1, 78, 127
1, 197160, Note_on_c, 1, 57, 127
1, 197189, Note_off_c, 1, 74, 0
1, 197190, Note_on_c, 1, 76, 127
1, 197219, Note_off_c, 1, 57, 0
1, 197219, Note_off_c, 1, 76, 0
1, 197220, Note_on_c, 1, 69, 127
1, 197220, Note_on_c, 1, 62, 127
1, 197220, Note_on_c, 1, 66, 127
1, 197220, Note_on_c, 1, 60, 127
1, 197279, Note_off_c, 1, 78, 0
1, 197279, Note_off_c, 1, 69, 0
1, 197279, Note_off_c, 1, 62, 0
1, 197279, Note_off_c, 1, 66, 0
1, 197279, Note_off_c, 1, 60, 0
1, 197280, Note_on_c, 1, 78, 127
1, 197280, Note_on_c, 1, 81, 127
1, 197280, Note_on_c, 1, 57, 127
1, 197309, Note_off_c, 1, 78, 0
1, 197310, Note_on_c, 1, 79, 127
1, 197339, Note_off_c, 1, 57, 0
1, 197339, Note_off_c, 1, 79, 0
1, 197340, Note_on_c, 1, 74, 127
1, 197340, Note_on_c, 1, 66, 127
1, 197340, Note_on_c, 1, 62, 127
1, 197340, Note_on_c, 1, 72, 127
1, 197340, Note_on_c, 1, 54, 127
1, 197399, Note_off_c, 1, 81, 0
1, 197399, Note_off_c, 1, 74, 0
1, 197399, Note_off_c, 1, 66, 0
1, 197399, Note_off_c, 1, 62, 0
1, 197399, Note_off_c, 1, 72, 0
1, 197399, Note_off_c, 1, 54, 0
1, 197400, Note_on_c, 1, 81, 127
1, 197400, Note_on_c, 1, 84, 127
1, 197400, Note_on_c, 1, 50, 127
1, 197429, Note_off_c, 1, 81, 0
1, 197430, Note_on_c, 1, 83, 127
1, 197459, Note_off_c, 1, 50, 0
1, 197459, Note_off_c, 1, 83, 0
1, 197460, Note_on_c, 1, 78, 127
1, 197460, Note_on_c, 1, 69, 127
1, 197460, Note_on_c, 1, 72, 127
1, 197460, Note_on_c, 1, 62, 127
1, 197460, Note_on_c, 1, 66, 127
1, 197460, Note_on_c, 1, 45, 127
1, 197519, Note_off_c, 1, 84, 0
1, 197519, Note_off_c, 1, 78, 0
1, 197519, Note_off_c, 1, 69, 0
1, 197519, Note_off_c, 1, 72, 0
1, 197519, Note_off_c, 1, 62, 0
1, 197519, Note_off_c, 1, 66, 0
1, 197519, Note_off_c, 1, 45, 0
1, 197520, Note_on_c, 1, 74, 127
1, 197520, Note_on_c, 1, 81, 127
1, 197520, Note_on_c, 1, 42, 127
1, 197549, Note_off_c, 1, 81, 0
1, 197550, Note_on_c, 1, 79, 127
1, 197579, Note_off_c, 1, 42, 0
1, 197579, Note_off_c, 1, 79, 0
1, 197580, Note_on_c, 1, 78, 127
1, 197580, Note_on_c, 1, 72, 127
1, 197580, Note_on_c, 1, 66, 127
1, 197580, Note_on_c, 1, 38, 127
1, 197609, Note_off_c, 1, 78, 0
1, 197610, Note_on_c, 1, 76, 127
1, 197639, Note_off_c, 1, 74, 0
1, 197639, Note_off_c, 1, 72, 0
1, 197639, Note_off_c, 1, 66, 0
1, 197639, Note_off_c, 1, 38, 0
1, 197639, Note_off_c, 1, 76, 0
1, 197640, Note_on_c, 1, 76, 127
1, 197640, Note_on_c, 1, 74, 127
1, 197640, Note_on_c, 1, 69, 127
1, 197640, Note_on_c, 1, 66, 127
1, 197640, Note_on_c, 1, 50, 127
1, 197669, Note_off_c, 1, 76, 0
1, 197669, Note_off_c, 1, 74, 0
1, 197670, Note_on_c, 1, 78, 127
1, 197670, Note_on_c, 1, 72, 127
1, 197699, Note_off_c, 1, 69, 0
1, 197699, Note_off_c, 1, 66, 0
1, 197699, Note_off_c, 1, 50, 0
1, 197699, Note_off_c, 1, 78, 0
1, 197699, Note_off_c, 1, 72, 0
1, 197700, Note_on_c, 1, 79, 127
1, 197700, Note_on_c, 1, 71, 127
1, 197700, Note_on_c, 1, 76, 127
1, 197700, Note_on_c, 1, 64, 127
1, 197700, Note_on_c, 1, 52, 127
1, 197729, Note_off_c, 1, 79, 0
1, 197730, Note_on_c, 1, 81, 127
1, 197759, Note_off_c, 1, 71, 0
1, 197759, Note_off_c, 1, 76, 0
1, 197759, Note_off_c, 1, 64, 0
1, 197759, Note_off_c, 1, 52, 0
1, 197759, Note_off_c, 1, 81, 0
1, 197760, Note_on_c, 1, 78, 127
1, 197760, Note_on_c, 1, 79, 127
1, 197760, Note_on_c, 1, 74, 127
1, 197760, Note_on_c, 1, 71, 127
1, 197760, Note_on_c, 1, 67, 127
1, 197760, Note_on_c, 1, 47, 127
1, 197789, Note_off_c, 1, 78, 0
1, 197819, Note_off_c, 1, 74, 0
1, 197819, Note_off_c, 1, 71, 0
1, 197819, Note_off_c, 1, 67, 0
1, 197819, Note_off_c, 1, 47, 0
1, 197820, Note_on_c, 1, 81, 127
1, 197820, Note_on_c, 1, 76, 127
1, 197820, Note_on_c, 1, 69, 127
1, 197820, Note_on_c, 1, 64, 127
1, 197820, Note_on_c, 1, 48, 127
1, 197849, Note_off_c, 1, 81, 0
1, 197850, Note_on_c, 1, 83, 127
1, 197879, Note_off_c, 1, 79, 0
1, 197879, Note_off_c, 1, 76, 0
1, 197879, Note_off_c, 1, 69, 0
1, 197879, Note_off_c, 1, 64, 0
1, 197879, Note_off_c, 1, 48, 0
1, 197879, Note_off_c, 1, 83, 0
1, 197880, Note_on_c, 1, 79, 127
1, 197880, Note_on_c, 1, 78, 127
1, 197880, Note_on_c, 1, 74, 127
1, 197880, Note_on_c, 1, 69, 127
1, 197880, Note_on_c, 1, 66, 127
1, 197880, Note_on_c, 1, 50, 127
1, 197909, Note_off_c, 1, 79, 0
1, 197910, Note_on_c, 1, 81, 127
1, 197939, Note_off_c, 1, 78, 0
1, 197939, Note_off_c, 1, 74, 0
1, 197939, Note_off_c, 1, 69, 0
1, 197939, Note_off_c, 1, 66, 0
1, 197939, Note_off_c, 1, 50, 0
1, 197939, Note_off_c, 1, 81, 0
1, 197940, Note_on_c, 1, 83, 127
1, 197940, Note_on_c, 1, 79, 127
1, 197940, Note_on_c, 1, 74, 127
1, 197940, Note_on_c, 1, 67, 127
1, 197940, Note_on_c, 1, 71, 127
1, 197940, Note_on_c, 1, 55, 127
1, 197969, Note_off_c, 1, 83, 0
1, 197970, Note_on_c, 1, 84, 127
1, 197999, Note_off_c, 1, 79, 0
1, 197999, Note_off_c, 1, 74, 0
1, 197999, Note_off_c, 1, 67, 0
1, 197999, Note_off_c, 1, 71, 0
1, 197999, Note_off_c, 1, 55, 0
1, 197999, Note_off_c, 1, 84, 0
1, 198000, Note_on_c, 1, 81, 127
1, 198000, Note_on_c, 1, 57, 127
1, 198029, Note_off_c, 1, 81, 0
1, 198030, Note_on_c, 1, 83, 127
1, 198059, Note_off_c, 1, 57, 0
1, 198059, Note_off_c, 1, 83, 0
1, 198060, Note_on_c, 1, 79, 127
1, 198060, Note_on_c, 1, 59, 127
1, 198090, Note_on_c, 1, 83, 127
1, 198119, Note_off_c, 1, 79, 0
1, 198119, Note_off_c, 1, 59, 0
1, 198119, Note_off_c, 1, 83, 0
1, 198120, Note_on_c, 1, 83, 127
1, 198120, Note_on_c, 1, 81, 127
1, 198120, Note_on_c, 1, 79, 127
1, 198120, Note_on_c, 1, 64, 127
1, 198120, Note_on_c, 1, 71, 127
1, 198120, Note_on_c, 1, 67, 127
1, 198149, Note_off_c, 1, 81, 0
1, 198179, Note_off_c, 1, 83, 0
1, 198179, Note_off_c, 1, 79, 0
1, 198179, Note_off_c, 1, 64, 0
1, 198179, Note_off_c, 1, 71, 0
1, 198179, Note_off_c, 1, 67, 0
1, 198180, Note_on_c, 1, 81, 127
1, 198180, Note_on_c, 1, 79, 127
1, 198180, Note_on_c, 1, 72, 127
1, 198180, Note_on_c, 1, 67, 127
1, 198180, Note_on_c, 1, 54, 127
1, 198210, Note_off_c, 1, 79, 0
1, 198210, Note_on_c, 1, 76, 127
1, 198239, Note_off_c, 1, 81, 0
1, 198239, Note_off_c, 1, 72, 0
1, 198239, Note_off_c, 1, 67, 0
1, 198239, Note_off_c, 1, 54, 0
1, 198239, Note_off_c, 1, 76, 0
1, 198240, Note_on_c, 1, 78, 127
1, 198240, Note_on_c, 1, 72, 127
1, 198240, Note_on_c, 1, 64, 127
1, 198269, Note_off_c, 1, 72, 0
1, 198270, Note_on_c, 1, 69, 127
1, 198299, Note_off_c, 1, 64, 0
1, 198299, Note_off_c, 1, 69, 0
1, 198300, Note_on_c, 1, 66, 127
1, 198300, Note_on_c, 1, 63, 127
1, 198330, Note_off_c, 1, 66, 0
1, 198330, Note_on_c, 1, 71, 127
1, 198359, Note_off_c, 1, 78, 0
1, 198359, Note_off_c, 1, 63, 0
1, 198359, Note_off_c, 1, 71, 0
1, 198360, Note_on_c, 1, 81, 127
1, 198360, Note_on_c, 1, 75, 127
1, 198360, Note_on_c, 1, 71, 127
1, 198360, Note_on_c, 1, 66, 127
1, 198360, Note_on_c, 1, 59, 127
1, 198389, Note_off_c, 1, 75, 0
1, 198390, Note_on_c, 1, 78, 127
1, 198419, Note_off_c, 1, 81, 0
1, 198419, Note_off_c, 1, 71, 0
1, 198419, Note_off_c, 1, 66, 0
1, 198419, Note_off_c, 1, 59, 0
1, 198419, Note_off_c, 1, 78, 0
1, 198420, Note_on_c, 1, 79, 127
1, 198420, Note_on_c, 1, 78, 127
1, 198420, Note_on_c, 1, 71, 127
1, 198420, Note_on_c, 1, 66, 127
1, 198420, Note_on_c, 1, 52, 127
1, 198450, Note_off_c, 1, 78, 0
1, 198450, Note_on_c, 1, 76, 127
1, 198479, Note_off_c, 1, 79, 0
1, 198479, Note_off_c, 1, 71, 0
1, 198479, Note_off_c, 1, 66, 0
1, 198479, Note_off_c, 1, 52, 0
1, 198479, Note_off_c, 1, 76, 0
1, 198480, Note_on_c, 1, 76, 127
1, 198480, Note_on_c, 1, 71, 127
1, 198480, Note_on_c, 1, 62, 127
1, 198509, Note_off_c, 1, 71, 0
1, 198510, Note_on_c, 1, 67, 127
1, 198539, Note_off_c, 1, 62, 0
1, 198539, Note_off_c, 1, 67, 0
1, 198540, Note_on_c, 1, 64, 127
1, 198540, Note_on_c, 1, 61, 127
1, 198570, Note_off_c, 1, 64, 0
1, 198570, Note_on_c, 1, 69, 127
1, 198599, Note_off_c, 1, 76, 0
1, 198599, Note_off_c, 1, 61, 0
1, 198599, Note_off_c, 1, 69, 0
1, 198600, Note_on_c, 1, 79, 127
1, 198600, Note_on_c, 1, 73, 127
1, 198600, Note_on_c, 1, 67, 127
1, 198600, Note_on_c, 1, 57, 127
1, 198630, Note_on_c, 1, 76, 127
1, 198659, Note_off_c, 1, 79, 0
1, 198659, Note_off_c, 1, 73, 0
1, 198659, Note_off_c, 1, 67, 0
1, 198659, Note_off_c, 1, 57, 0
1, 198659, Note_off_c, 1, 76, 0
1, 198660, Note_on_c, 1, 78, 127
1, 198660, Note_on_c, 1, 74, 127
1, 198660, Note_on_c, 1, 69, 127
1, 198660, Note_on_c, 1, 66, 127
1, 198660, Note_on_c, 1, 50, 127
1, 198690, Note_on_c, 1, 76, 127
1, 198719, Note_off_c, 1, 78, 0
1, 198719, Note_off_c, 1, 74, 0
1, 198719, Note_off_c, 1, 69, 0
1, 198719, Note_off_c, 1, 66, 0
1, 198719, Note_off_c, 1, 50, 0
1, 198719, Note_off_c, 1, 76, 0
1, 198720, Note_on_c, 1, 74, 127
1, 198720, Note_on_c, 1, 69, 127
1, 198720, Note_on_c, 1, 62, 127
1, 198720, Note_on_c, 1, 54, 127
1, 198749, Note_off_c, 1, 74, 0
1, 198750, Note_on_c, 1, 78, 127
1, 198779, Note_off_c, 1, 69, 0
1, 198779, Note_off_c, 1, 62, 0
1, 198779, Note_off_c, 1, 54, 0
1, 198779, Note_off_c, 1, 78, 0
1, 198780, Note_on_c, 1, 76, 127
1, 198780, Note_on_c, 1, 71, 127
1, 198780, Note_on_c, 1, 67, 127
1, 198780, Note_on_c, 1, 64, 127
1, 198780, Note_on_c, 1, 74, 127
1, 198780, Note_on_c, 1, 55, 127
1, 198810, Note_on_c, 1, 78, 127
1, 198839, Note_off_c, 1, 76, 0
1, 198839, Note_off_c, 1, 71, 0
1, 198839, Note_off_c, 1, 67, 0
1, 198839, Note_off_c, 1, 64, 0
1, 198839, Note_off_c, 1, 74, 0
1, 198839, Note_off_c, 1, 55, 0
1, 198839, Note_off_c, 1, 78, 0
1, 198840, Note_on_c, 1, 79, 127
1, 198840, Note_on_c, 1, 67, 127
1, 198840, Note_on_c, 1, 59, 127
1, 198840, Note_on_c, 1, 52, 127
1, 198869, Note_off_c, 1, 79, 0
1, 198870, Note_on_c, 1, 76, 127
1, 198899, Note_off_c, 1, 67, 0
1, 198899, Note_off_c, 1, 59, 0
1, 198899, Note_off_c, 1, 52, 0
1, 198899, Note_off_c, 1, 76, 0
1, 198900, Note_on_c, 1, 69, 127
1, 198900, Note_on_c, 1, 74, 127
1, 198900, Note_on_c, 1, 64, 127
1, 198900, Note_on_c, 1, 57, 127
1, 198900, Note_on_c, 1, 73, 127
1, 198929, Note_off_c, 1, 74, 0
1, 198959, Note_off_c, 1, 69, 0
1, 198959, Note_off_c, 1, 57, 0
1, 198959, Note_off_c, 1, 73, 0
1, 198960, Note_on_c, 1, 81, 127
1, 198960, Note_on_c, 1, 71, 127
1, 198960, Note_on_c, 1, 55, 127
1, 198989, Note_off_c, 1, 71, 0
1, 199019, Note_off_c, 1, 64, 0
1, 199019, Note_off_c, 1, 55, 0
1, 199020, Note_on_c, 1, 62, 127
1, 199020, Note_on_c, 1, 54, 127
1, 199079, Note_off_c, 1, 81, 0
1, 199079, Note_off_c, 1, 62, 0
1, 199079, Note_off_c, 1, 54, 0
1, 199080, Note_on_c, 1, 79, 127
1, 199080, Note_on_c, 1, 52, 127
1, 199110, Note_on_c, 1, 76, 127
1, 199139, Note_off_c, 1, 79, 0
1, 199139, Note_off_c, 1, 52, 0
1, 199139, Note_off_c, 1, 76, 0
1, 199140, Note_on_c, 1, 78, 127
1, 199140, Note_on_c, 1, 66, 127
1, 199140, Note_on_c, 1, 50, 127
1, 199169, Note_off_c, 1, 78, 0
1, 199170, Note_on_c, 1, 86, 127
1, 199199, Note_off_c, 1, 66, 0
1, 199199, Note_off_c, 1, 50, 0
1, 199199, Note_off_c, 1, 86, 0
1, 199200, Note_on_c, 1, 85, 127
1, 199200, Note_on_c, 1, 81, 127
1, 199200, Note_on_c, 1, 74, 127
1, 199200, Note_on_c, 1, 57, 127
1, 199200, Note_on_c, 1, 42, 127
1, 199229, Note_off_c, 1, 85, 0
1, 199229, Note_off_c, 1, 81, 0
1, 199230, Note_on_c, 1, 83, 127
1, 199259, Note_off_c, 1, 74, 0
1, 199259, Note_off_c, 1, 57, 0
1, 199259, Note_off_c, 1, 42, 0
1, 199259, Note_off_c, 1, 83, 0
1, 199260, Note_on_c, 1, 81, 127
1, 199260, Note_on_c, 1, 78, 127
1, 199260, Note_on_c, 1, 74, 127
1, 199260, Note_on_c, 1, 59, 127
1, 199260, Note_on_c, 1, 64, 127
1, 199260, Note_on_c, 1, 67, 127
1, 199260, Note_on_c, 1, 73, 127
1, 199260, Note_on_c, 1, 43, 127
1, 199289, Note_off_c, 1, 81, 0
1, 199289, Note_off_c, 1, 78, 0
1, 199290, Note_on_c, 1, 79, 127
1, 199290, Note_on_c, 1, 76, 127
1, 199319, Note_off_c, 1, 74, 0
1, 199319, Note_off_c, 1, 59, 0
1, 199319, Note_off_c, 1, 64, 0
1, 199319, Note_off_c, 1, 67, 0
1, 199319, Note_off_c, 1, 73, 0
1, 199319, Note_off_c, 1, 43, 0
1, 199319, Note_off_c, 1, 79, 0
1, 199319, Note_off_c, 1, 76, 0
1, 199320, Note_on_c, 1, 78, 127
1, 199320, Note_on_c, 1, 74, 127
1, 199320, Note_on_c, 1, 69, 127
1, 199320, Note_on_c, 1, 64, 127
1, 199320, Note_on_c, 1, 45, 127
1, 199349, Note_off_c, 1, 78, 0
1, 199349, Note_off_c, 1, 74, 0
1, 199350, Note_on_c, 1, 76, 127
1, 199350, Note_on_c, 1, 73, 127
1, 199379, Note_off_c, 1, 69, 0
1, 199379, Note_off_c, 1, 64, 0
1, 199379, Note_off_c, 1, 45, 0
1, 199379, Note_off_c, 1, 76, 0
1, 199379, Note_off_c, 1, 73, 0
1, 199380, Note_on_c, 1, 74, 127
1, 199380, Note_on_c, 1, 69, 127
1, 199380, Note_on_c, 1, 66, 127
1, 199380, Note_on_c, 1, 62, 127
1, 199380, Note_on_c, 1, 38, 127
1, 199619, Note_off_c, 1, 69, 0
1, 199619, Note_off_c, 1, 38, 0
1, 199620, Note_off_c, 1, 74, 0
1, 199620, Note_off_c, 1, 66, 0
1, 199620, Note_off_c, 1, 62, 0
1, 199980, Note_on_c, 1, 86, 127
1, 199980, Note_on_c, 1, 74, 127
1, 199980, Note_on_c, 1, 69, 127
1, 199980, Note_on_c, 1, 66, 127
1, 199980, Note_on_c, 1, 50, 127
1, 200099, Note_off_c, 1, 86, 0
1, 200099, Note_off_c, 1, 74, 0
1, 200099, Note_off_c, 1, 69, 0
1, 200099, Note_off_c, 1, 66, 0
1, 200099, Note_off_c, 1, 50, 0
1, 200100, Note_on_c, 1, 85, 127
1, 200100, Note_on_c, 1, 73, 127
1, 200100, Note_on_c, 1, 69, 127
1, 200100, Note_on_c, 1, 64, 127
1, 200100, Note_on_c, 1, 57, 127
1, 200159, Note_off_c, 1, 69, 0
1, 200160, Note_on_c, 1, 68, 127
1, 200219, Note_off_c, 1, 85, 0
1, 200219, Note_off_c, 1, 73, 0
1, 200219, Note_off_c, 1, 64, 0
1, 200219, Note_off_c, 1, 68, 0
1, 200220, Note_on_c, 1, 83, 127
1, 200220, Note_on_c, 1, 71, 127
1, 200220, Note_on_c, 1, 66, 127
1, 200220, Note_on_c, 1, 62, 127
1, 200279, Note_off_c, 1, 57, 0
1, 200280, Note_on_c, 1, 56, 127
1, 200339, Note_off_c, 1, 83, 0
1, 200339, Note_off_c, 1, 71, 0
1, 200339, Note_off_c, 1, 66, 0
1, 200339, Note_off_c, 1, 62, 0
1, 200339, Note_off_c, 1, 56, 0
1, 200340, Note_on_c, 1, 85, 127
1, 200340, Note_on_c, 1, 73, 127
1, 200340, Note_on_c, 1, 64, 127
1, 200340, Note_on_c, 1, 61, 127
1, 200340, Note_on_c, 1, 57, 127
1, 200399, Note_off_c, 1, 57, 0
1, 200400, Note_on_c, 1, 55, 127
1, 200459, Note_off_c, 1, 85, 0
1, 200459, Note_off_c, 1, 73, 0
1, 200459, Note_off_c, 1, 64, 0
1, 200459, Note_off_c, 1, 61, 0
1, 200459, Note_off_c, 1, 55, 0
1, 200460, Note_on_c, 1, 81, 127
1, 200460, Note_on_c, 1, 69, 127
1, 200460, Note_on_c, 1, 66, 127
1, 200460, Note_on_c, 1, 62, 127
1, 200460, Note_on_c, 1, 54, 127
1, 200519, Note_off_c, 1, 66, 0
1, 200519, Note_off_c, 1, 62, 0
1, 200520, Note_on_c, 1, 64, 127
1, 200520, Note_on_c, 1, 61, 127
1, 200579, Note_off_c, 1, 81, 0
1, 200579, Note_off_c, 1, 69, 0
1, 200579, Note_off_c, 1, 54, 0
1, 200579, Note_off_c, 1, 64, 0
1, 200579, Note_off_c, 1, 61, 0
1, 200580, Note_on_c, 1, 83, 127
1, 200580, Note_on_c, 1, 71, 127
1, 200580, Note_on_c, 1, 62, 127
1, 200580, Note_on_c, 1, 59, 127
1, 200580, Note_on_c, 1, 55, 127
1, 200639, Note_off_c, 1, 59, 0
1, 200639, Note_off_c, 1, 55, 0
1, 200640, Note_on_c, 1, 57, 127
1, 200640, Note_on_c, 1, 54, 127
1, 200699, Note_off_c, 1, 83, 0
1, 200699, Note_off_c, 1, 71, 0
1, 200699, Note_off_c, 1, 62, 0
1, 200699, Note_off_c, 1, 57, 0
1, 200699, Note_off_c, 1, 54, 0
1, 200700, Note_on_c, 1, 85, 127
1, 200700, Note_on_c, 1, 73, 127
1, 200700, Note_on_c, 1, 64, 127
1, 200700, Note_on_c, 1, 55, 127
1, 200700, Note_on_c, 1, 52, 127
1, 200819, Note_off_c, 1, 85, 0
1, 200819, Note_off_c, 1, 73, 0
1, 200819, Note_off_c, 1, 64, 0
1, 200819, Note_off_c, 1, 55, 0
1, 200819, Note_off_c, 1, 52, 0
1, 200820, Note_on_c, 1, 69, 127
1, 200820, Note_on_c, 1, 50, 127
1, 200820, Note_on_c, 1, 86, 127
1, 200820, Note_on_c, 1, 74, 127
1, 200820, Note_on_c, 1, 66, 127
1, 200820, Note_on_c, 1, 57, 127
1, 200880, Note_on_c, 1, 78, 127
1, 200880, Note_on_c, 1, 62, 127
1, 200909, Note_off_c, 1, 78, 0
1, 200910, Note_on_c, 1, 79, 127
1, 200910, Note_on_c, 1, 76, 127
1, 200939, Note_off_c, 1, 69, 0
1, 200939, Note_off_c, 1, 86, 0
1, 200939, Note_off_c, 1, 74, 0
1, 200939, Note_off_c, 1, 66, 0
1, 200939, Note_off_c, 1, 57, 0
1, 200939, Note_off_c, 1, 62, 0
1, 200939, Note_off_c, 1, 79, 0
1, 200939, Note_off_c, 1, 76, 0
1, 200940, Note_off_c, 1, 50, 0
1, 201000, Note_on_c, 1, 78, 127
1, 201000, Note_on_c, 1, 74, 127
1, 201000, Note_on_c, 1, 69, 127
1, 201000, Note_on_c, 1, 50, 127
1, 201000, Note_on_c, 1, 54, 127
1, 201029, Note_off_c, 1, 69, 0
1, 201029, Note_off_c, 1, 54, 0
1, 201030, Note_on_c, 1, 66, 127
1, 201059, Note_off_c, 1, 78, 0
1, 201059, Note_off_c, 1, 74, 0
1, 201059, Note_off_c, 1, 66, 0
1, 201060, Note_on_c, 1, 62, 127
1, 201060, Note_on_c, 1, 47, 127
1, 201119, Note_off_c, 1, 62, 0
1, 201119, Note_off_c, 1, 47, 0
1, 201120, Note_on_c, 1, 59, 127
1, 201150, Note_on_c, 1, 79, 127
1, 201150, Note_on_c, 1, 76, 127
1, 201179, Note_off_c, 1, 59, 0
1, 201179, Note_off_c, 1, 79, 0
1, 201179, Note_off_c, 1, 76, 0
1, 201180, Note_off_c, 1, 50, 0
1, 201240, Note_on_c, 1, 78, 127
1, 201240, Note_on_c, 1, 74, 127
1, 201240, Note_on_c, 1, 66, 127
1, 201240, Note_on_c, 1, 50, 127
1, 201269, Note_off_c, 1, 66, 0
1, 201270, Note_on_c, 1, 69, 127
1, 201270, Note_on_c, 1, 47, 127
1, 201299, Note_off_c, 1, 78, 0
1, 201299, Note_off_c, 1, 74, 0
1, 201299, Note_off_c, 1, 69, 0
1, 201299, Note_off_c, 1, 47, 0
1, 201300, Note_on_c, 1, 43, 127
1, 201359, Note_off_c, 1, 43, 0
1, 201360, Note_on_c, 1, 83, 127
1, 201360, Note_on_c, 1, 79, 127
1, 201360, Note_on_c, 1, 55, 127
1, 201419, Note_off_c, 1, 83, 0
1, 201419, Note_off_c, 1, 79, 0
1, 201419, Note_off_c, 1, 55, 0
1, 201420, Note_off_c, 1, 50, 0
1, 201420, Note_on_c, 1, 81, 127
1, 201420, Note_on_c, 1, 45, 127
1, 201420, Note_on_c, 1, 57, 127
1, 201479, Note_off_c, 1, 81, 0
1, 201479, Note_off_c, 1, 57, 0
1, 201480, Note_on_c, 1, 76, 127
1, 201539, Note_off_c, 1, 76, 0
1, 201540, Note_off_c, 1, 45, 0
1, 201600, Note_on_c, 1, 38, 127
1, 201630, Note_on_c, 1, 85, 127
1, 201659, Note_off_c, 1, 38, 0
1, 201659, Note_off_c, 1, 85, 0
1, 201660, Note_on_c, 1, 86, 127
1, 201720, Note_on_c, 1, 67, 127
1, 201720, Note_on_c, 1, 52, 127
1, 201779, Note_off_c, 1, 86, 0
1, 201779, Note_off_c, 1, 67, 0
1, 201779, Note_off_c, 1, 52, 0
1, 201780, Note_on_c, 1, 86, 127
1, 201780, Note_on_c, 1, 74, 127
1, 201780, Note_on_c, 1, 69, 127
1, 201780, Note_on_c, 1, 62, 127
1, 201780, Note_on_c, 1, 54, 127
1, 201839, Note_off_c, 1, 69, 0
1, 201840, Note_on_c, 1, 67, 127
1, 201840, Note_on_c, 1, 42, 127
1, 201899, Note_off_c, 1, 86, 0
1, 201899, Note_off_c, 1, 74, 0
1, 201899, Note_off_c, 1, 62, 0
1, 201899, Note_off_c, 1, 54, 0
1, 201899, Note_off_c, 1, 67, 0
1, 201899, Note_off_c, 1, 42, 0
1, 201900, Note_on_c, 1, 81, 127
1, 201900, Note_on_c, 1, 69, 127
1, 201900, Note_on_c, 1, 66, 127
1, 201900, Note_on_c, 1, 62, 127
1, 201900, Note_on_c, 1, 54, 127
1, 201959, Note_off_c, 1, 54, 0
1, 201960, Note_on_c, 1, 55, 127
1, 202019, Note_off_c, 1, 81, 0
1, 202019, Note_off_c, 1, 69, 0
1, 202019, Note_off_c, 1, 66, 0
1, 202019, Note_off_c, 1, 62, 0
1, 202019, Note_off_c, 1, 55, 0
1, 202020, Note_on_c, 1, 81, 127
1, 202020, Note_on_c, 1, 69, 127
1, 202020, Note_on_c, 1, 64, 127
1, 202020, Note_on_c, 1, 61, 127
1, 202020, Note_on_c, 1, 57, 127
1, 202080, Note_on_c, 1, 45, 127
1, 202139, Note_off_c, 1, 81, 0
1, 202139, Note_off_c, 1, 69, 0
1, 202139, Note_off_c, 1, 64, 0
1, 202139, Note_off_c, 1, 61, 0
1, 202139, Note_off_c, 1, 57, 0
1, 202139, Note_off_c, 1, 45, 0
1, 202140, Note_on_c, 1, 78, 127
1, 202140, Note_on_c, 1, 66, 127
1, 202140, Note_on_c, 1, 62, 127
1, 202140, Note_on_c, 1, 60, 127
1, 202140, Note_on_c, 1, 57, 127
1, 202199, Note_off_c, 1, 78, 0
1, 202199, Note_off_c, 1, 66, 0
1, 202199, Note_off_c, 1, 60, 0
1, 202199, Note_off_c, 1, 57, 0
1, 202200, Note_on_c, 1, 79, 127
1, 202200, Note_on_c, 1, 67, 127
1, 202200, Note_on_c, 1, 59, 127
1, 202200, Note_on_c, 1, 55, 127
1, 202259, Note_off_c, 1, 62, 0
1, 202259, Note_off_c, 1, 79, 0
1, 202259, Note_off_c, 1, 67, 0
1, 202259, Note_off_c, 1, 59, 0
1, 202259, Note_off_c, 1, 55, 0
1, 202260, Note_on_c, 1, 81, 127
1, 202260, Note_on_c, 1, 69, 127
1, 202260, Note_on_c, 1, 62, 127
1, 202260, Note_on_c, 1, 57, 127
1, 202260, Note_on_c, 1, 54, 127
1, 202319, Note_off_c, 1, 54, 0
1, 202320, Note_on_c, 1, 52, 127
1, 202379, Note_off_c, 1, 81, 0
1, 202379, Note_off_c, 1, 69, 0
1, 202379, Note_off_c, 1, 62, 0
1, 202379, Note_off_c, 1, 57, 0
1, 202379, Note_off_c, 1, 52, 0
1, 202380, Note_on_c, 1, 79, 127
1, 202380, Note_on_c, 1, 67, 127
1, 202380, Note_on_c, 1, 64, 127
1, 202380, Note_on_c, 1, 57, 127
1, 202380, Note_on_c, 1, 50, 127
1, 202439, Note_off_c, 1, 50, 0
1, 202440, Note_on_c, 1, 49, 127
1, 202499, Note_off_c, 1, 79, 0
1, 202499, Note_off_c, 1, 67, 0
1, 202499, Note_off_c, 1, 64, 0
1, 202499, Note_off_c, 1, 57, 0
1, 202499, Note_off_c, 1, 49, 0
1, 202500, Note_on_c, 1, 69, 127
1, 202500, Note_on_c, 1, 50, 127
1, 202500, Note_on_c, 1, 78, 127
1, 202500, Note_on_c, 1, 66, 127
1, 202500, Note_on_c, 1, 62, 127
1, 202500, Note_on_c, 1, 57, 127
1, 202560, Note_on_c, 1, 74, 127
1, 202589, Note_off_c, 1, 74, 0
1, 202590, Note_on_c, 1, 76, 127
1, 202619, Note_off_c, 1, 69, 0
1, 202619, Note_off_c, 1, 50, 0
1, 202619, Note_off_c, 1, 78, 0
1, 202619, Note_off_c, 1, 66, 0
1, 202619, Note_off_c, 1, 62, 0
1, 202619, Note_off_c, 1, 57, 0
1, 202619, Note_off_c, 1, 76, 0
1, 202620, Note_on_c, 1, 74, 127
1, 202620, Note_on_c, 1, 66, 127
1, 202650, Note_on_c, 1, 50, 127
1, 202679, Note_off_c, 1, 74, 0
1, 202679, Note_off_c, 1, 66, 0
1, 202679, Note_off_c, 1, 50, 0
1, 202680, Note_on_c, 1, 74, 127
1, 202680, Note_on_c, 1, 66, 127
1, 202680, Note_on_c, 1, 69, 127
1, 202680, Note_on_c, 1, 50, 127
1, 202680, Note_on_c, 1, 54, 127
1, 202709, Note_off_c, 1, 69, 0
1, 202709, Note_off_c, 1, 50, 0
1, 202709, Note_off_c, 1, 54, 0
1, 202739, Note_off_c, 1, 74, 0
1, 202739, Note_off_c, 1, 66, 0
1, 202740, Note_on_c, 1, 62, 127
1, 202740, Note_on_c, 1, 50, 127
1, 202740, Note_on_c, 1, 47, 127
1, 202799, Note_off_c, 1, 62, 0
1, 202799, Note_off_c, 1, 47, 0
1, 202800, Note_on_c, 1, 74, 127
1, 202800, Note_on_c, 1, 66, 127
1, 202800, Note_on_c, 1, 59, 127
1, 202829, Note_off_c, 1, 74, 0
1, 202830, Note_on_c, 1, 76, 127
1, 202830, Note_on_c, 1, 69, 127
1, 202859, Note_off_c, 1, 50, 0
1, 202859, Note_off_c, 1, 66, 0
1, 202859, Note_off_c, 1, 59, 0
1, 202859, Note_off_c, 1, 76, 0
1, 202859, Note_off_c, 1, 69, 0
1, 202860, Note_on_c, 1, 74, 127
1, 202860, Note_on_c, 1, 66, 127
1, 202890, Note_on_c, 1, 47, 127
1, 202919, Note_off_c, 1, 74, 0
1, 202919, Note_off_c, 1, 66, 0
1, 202919, Note_off_c, 1, 47, 0
1, 202920, Note_on_c, 1, 74, 127
1, 202920, Note_on_c, 1, 66, 127
1, 202920, Note_on_c, 1, 50, 127
1, 202949, Note_off_c, 1, 50, 0
1, 202950, Note_on_c, 1, 69, 127
1, 202950, Note_on_c, 1, 47, 127
1, 202979, Note_off_c, 1, 74, 0
1, 202979, Note_off_c, 1, 66, 0
1, 202979, Note_off_c, 1, 69, 0
1, 202979, Note_off_c, 1, 47, 0
1, 202980, Note_on_c, 1, 74, 127
1, 202980, Note_on_c, 1, 50, 127
1, 202980, Note_on_c, 1, 43, 127
1, 203039, Note_off_c, 1, 74, 0
1, 203039, Note_off_c, 1, 50, 0
1, 203039, Note_off_c, 1, 43, 0
1, 203040, Note_on_c, 1, 79, 127
1, 203040, Note_on_c, 1, 76, 127
1, 203040, Note_on_c, 1, 74, 127
1, 203040, Note_on_c, 1, 50, 127
1, 203040, Note_on_c, 1, 55, 127
1, 203069, Note_off_c, 1, 74, 0
1, 203099, Note_off_c, 1, 79, 0
1, 203099, Note_off_c, 1, 76, 0
1, 203099, Note_off_c, 1, 50, 0
1, 203099, Note_off_c, 1, 55, 0
1, 203100, Note_on_c, 1, 78, 127
1, 203100, Note_on_c, 1, 74, 127
1, 203100, Note_on_c, 1, 45, 127
1, 203100, Note_on_c, 1, 57, 127
1, 203130, Note_on_c, 1, 79, 127
1, 203159, Note_off_c, 1, 78, 0
1, 203159, Note_off_c, 1, 74, 0
1, 203159, Note_off_c, 1, 45, 0
1, 203159, Note_off_c, 1, 57, 0
1, 203159, Note_off_c, 1, 79, 0
1, 203160, Note_on_c, 1, 76, 127
1, 203160, Note_on_c, 1, 69, 127
1, 203160, Note_on_c, 1, 81, 127
1, 203160, Note_on_c, 1, 45, 127
1, 203219, Note_off_c, 1, 76, 0
1, 203219, Note_off_c, 1, 69, 0
1, 203219, Note_off_c, 1, 81, 0
1, 203219, Note_off_c, 1, 45, 0
1, 203220, Note_on_c, 1, 74, 127
1, 203220, Note_on_c, 1, 66, 127
1, 203220, Note_on_c, 1, 69, 127
1, 203220, Note_on_c, 1, 50, 127
1, 203249, Note_off_c, 1, 74, 0
1, 203249, Note_off_c, 1, 66, 0
1, 203250, Note_on_c, 1, 62, 127
1, 203279, Note_off_c, 1, 62, 0
1, 203280, Note_on_c, 1, 38, 127
1, 203310, Note_on_c, 1, 76, 127
1, 203339, Note_off_c, 1, 69, 0
1, 203339, Note_off_c, 1, 50, 0
1, 203339, Note_off_c, 1, 38, 0
1, 203339, Note_off_c, 1, 76, 0
1, 203340, Note_on_c, 1, 78, 127
1, 203340, Note_on_c, 1, 74, 127
1, 203340, Note_on_c, 1, 66, 127
1, 203340, Note_on_c, 1, 62, 127
1, 203340, Note_on_c, 1, 57, 127
1, 203340, Note_on_c, 1, 50, 127
1, 203399, Note_off_c, 1, 74, 0
1, 203399, Note_off_c, 1, 62, 0
1, 203400, Note_on_c, 1, 64, 127
1, 203400, Note_on_c, 1, 49, 127
1, 203459, Note_off_c, 1, 78, 0
1, 203459, Note_off_c, 1, 66, 0
1, 203459, Note_off_c, 1, 57, 0
1, 203459, Note_off_c, 1, 50, 0
1, 203459, Note_off_c, 1, 64, 0
1, 203459, Note_off_c, 1, 49, 0
1, 203460, Note_on_c, 1, 83, 127
1, 203460, Note_on_c, 1, 71, 127
1, 203460, Note_on_c, 1, 66, 127
1, 203460, Note_on_c, 1, 57, 127
1, 203460, Note_on_c, 1, 51, 127
1, 203520, Note_on_c, 1, 47, 127
1, 203579, Note_off_c, 1, 83, 0
1, 203579, Note_off_c, 1, 71, 0
1, 203579, Note_off_c, 1, 66, 0
1, 203579, Note_off_c, 1, 57, 0
1, 203579, Note_off_c, 1, 51, 0
1, 203579, Note_off_c, 1, 47, 0
1, 203580, Note_on_c, 1, 83, 127
1, 203580, Note_on_c, 1, 71, 127
1, 203580, Note_on_c, 1, 64, 127
1, 203580, Note_on_c, 1, 56, 127
1, 203580, Note_on_c, 1, 52, 127
1, 203639, Note_off_c, 1, 52, 0
1, 203640, Note_on_c, 1, 50, 127
1, 203699, Note_off_c, 1, 83, 0
1, 203699, Note_off_c, 1, 71, 0
1, 203699, Note_off_c, 1, 64, 0
1, 203699, Note_off_c, 1, 56, 0
1, 203699, Note_off_c, 1, 50, 0
1, 203700, Note_on_c, 1, 81, 127
1, 203700, Note_on_c, 1, 69, 127
1, 203700, Note_on_c, 1, 64, 127
1, 203700, Note_on_c, 1, 57, 127
1, 203700, Note_on_c, 1, 49, 127
1, 203759, Note_off_c, 1, 81, 0
1, 203759, Note_off_c, 1, 69, 0
1, 203759, Note_off_c, 1, 64, 0
1, 203759, Note_off_c, 1, 57, 0
1, 203759, Note_off_c, 1, 49, 0
1, 203760, Note_on_c, 1, 83, 127
1, 203760, Note_on_c, 1, 71, 127
1, 203760, Note_on_c, 1, 68, 127
1, 203760, Note_on_c, 1, 62, 127
1, 203760, Note_on_c, 1, 47, 127
1, 203819, Note_off_c, 1, 83, 0
1, 203819, Note_off_c, 1, 71, 0
1, 203819, Note_off_c, 1, 68, 0
1, 203819, Note_off_c, 1, 62, 0
1, 203819, Note_off_c, 1, 47, 0
1, 203820, Note_on_c, 1, 85, 127
1, 203820, Note_on_c, 1, 73, 127
1, 203820, Note_on_c, 1, 69, 127
1, 203820, Note_on_c, 1, 61, 127
1, 203820, Note_on_c, 1, 45, 127
1, 203879, Note_off_c, 1, 61, 0
1, 203880, Note_on_c, 1, 59, 127
1, 203880, Note_on_c, 1, 44, 127
1, 203939, Note_off_c, 1, 85, 0
1, 203939, Note_off_c, 1, 73, 0
1, 203939, Note_off_c, 1, 69, 0
1, 203939, Note_off_c, 1, 45, 0
1, 203939, Note_off_c, 1, 59, 0
1, 203939, Note_off_c, 1, 44, 0
1, 203940, Note_on_c, 1, 86, 127
1, 203940, Note_on_c, 1, 74, 127
1, 203940, Note_on_c, 1, 69, 127
1, 203940, Note_on_c, 1, 57, 127
1, 203940, Note_on_c, 1, 54, 127
1, 203940, Note_on_c, 1, 42, 127
1, 203999, Note_off_c, 1, 86, 0
1, 203999, Note_off_c, 1, 74, 0
1, 203999, Note_off_c, 1, 57, 0
1, 203999, Note_off_c, 1, 54, 0
1, 203999, Note_off_c, 1, 42, 0
1, 204000, Note_on_c, 1, 85, 127
1, 204000, Note_on_c, 1, 73, 127
1, 204000, Note_on_c, 1, 61, 127
1, 204000, Note_on_c, 1, 52, 127
1, 204000, Note_on_c, 1, 40, 127
1, 204059, Note_off_c, 1, 69, 0
1, 204059, Note_off_c, 1, 85, 0
1, 204059, Note_off_c, 1, 73, 0
1, 204059, Note_off_c, 1, 61, 0
1, 204059, Note_off_c, 1, 52, 0
1, 204059, Note_off_c, 1, 40, 0
1, 204060, Note_on_c, 1, 83, 127
1, 204060, Note_on_c, 1, 71, 127
1, 204060, Note_on_c, 1, 69, 127
1, 204060, Note_on_c, 1, 66, 127
1, 204060, Note_on_c, 1, 49, 127
1, 204060, Note_on_c, 1, 38, 127
1, 204119, Note_off_c, 1, 69, 0
1, 204119, Note_off_c, 1, 66, 0
1, 204119, Note_off_c, 1, 49, 0
1, 204119, Note_off_c, 1, 38, 0
1, 204120, Note_on_c, 1, 68, 127
1, 204120, Note_on_c, 1, 64, 127
1, 204120, Note_on_c, 1, 52, 127
1, 204120, Note_on_c, 1, 40, 127
1, 204179, Note_off_c, 1, 83, 0
1, 204179, Note_off_c, 1, 71, 0
1, 204179, Note_off_c, 1, 68, 0
1, 204179, Note_off_c, 1, 64, 0
1, 204179, Note_off_c, 1, 52, 0
1, 204179, Note_off_c, 1, 40, 0
1, 204180, Note_on_c, 1, 69, 127
1, 204180, Note_on_c, 1, 45, 127
1, 204180, Note_on_c, 1, 81, 127
1, 204180, Note_on_c, 1, 64, 127
1, 204180, Note_on_c, 1, 61, 127
1, 204240, Note_on_c, 1, 85, 127
1, 204240, Note_on_c, 1, 57, 127
1, 204269, Note_off_c, 1, 85, 0
1, 204270, Note_on_c, 1, 86, 127
1, 204270, Note_on_c, 1, 83, 127
1, 204299, Note_off_c, 1, 69, 0
1, 204299, Note_off_c, 1, 45, 0
1, 204299, Note_off_c, 1, 81, 0
1, 204299, Note_off_c, 1, 64, 0
1, 204299, Note_off_c, 1, 61, 0
1, 204299, Note_off_c, 1, 57, 0
1, 204299, Note_off_c, 1, 86, 0
1, 204299, Note_off_c, 1, 83, 0
1, 204300, Note_on_c, 1, 85, 127
1, 204300, Note_on_c, 1, 81, 127
1, 204330, Note_on_c, 1, 45, 127
1, 204359, Note_off_c, 1, 85, 0
1, 204359, Note_off_c, 1, 81, 0
1, 204359, Note_off_c, 1, 45, 0
1, 204360, Note_on_c, 1, 85, 127
1, 204360, Note_on_c, 1, 81, 127
1, 204360, Note_on_c, 1, 69, 127
1, 204360, Note_on_c, 1, 45, 127
1, 204360, Note_on_c, 1, 49, 127
1, 204389, Note_off_c, 1, 69, 0
1, 204389, Note_off_c, 1, 45, 0
1, 204389, Note_off_c, 1, 49, 0
1, 204390, Note_on_c, 1, 76, 127
1, 204419, Note_off_c, 1, 85, 0
1, 204419, Note_off_c, 1, 81, 0
1, 204419, Note_off_c, 1, 76, 0
1, 204420, Note_on_c, 1, 78, 127
1, 204420, Note_on_c, 1, 45, 127
1, 204420, Note_on_c, 1, 42, 127
1, 204479, Note_off_c, 1, 78, 0
1, 204479, Note_off_c, 1, 42, 0
1, 204480, Note_on_c, 1, 85, 127
1, 204480, Note_on_c, 1, 81, 127
1, 204480, Note_on_c, 1, 69, 127
1, 204480, Note_on_c, 1, 54, 127
1, 204509, Note_off_c, 1, 85, 0
1, 204509, Note_off_c, 1, 81, 0
1, 204510, Note_on_c, 1, 86, 127
1, 204510, Note_on_c, 1, 83, 127
1, 204539, Note_off_c, 1, 45, 0
1, 204539, Note_off_c, 1, 69, 0
1, 204539, Note_off_c, 1, 54, 0
1, 204539, Note_off_c, 1, 86, 0
1, 204539, Note_off_c, 1, 83, 0
1, 204540, Note_on_c, 1, 85, 127
1, 204540, Note_on_c, 1, 81, 127
1, 204570, Note_on_c, 1, 42, 127
1, 204599, Note_off_c, 1, 85, 0
1, 204599, Note_off_c, 1, 81, 0
1, 204599, Note_off_c, 1, 42, 0
1, 204600, Note_on_c, 1, 85, 127
1, 204600, Note_on_c, 1, 81, 127
1, 204600, Note_on_c, 1, 66, 127
1, 204600, Note_on_c, 1, 45, 127
1, 204629, Note_off_c, 1, 66, 0
1, 204629, Note_off_c, 1, 45, 0
1, 204630, Note_on_c, 1, 69, 127
1, 204630, Note_on_c, 1, 42, 127
1, 204659, Note_off_c, 1, 85, 0
1, 204659, Note_off_c, 1, 81, 0
1, 204659, Note_off_c, 1, 69, 0
1, 204659, Note_off_c, 1, 42, 0
1, 204660, Note_on_c, 1, 78, 127
1, 204660, Note_on_c, 1, 50, 127
1, 204660, Note_on_c, 1, 38, 127
1, 204719, Note_off_c, 1, 78, 0
1, 204719, Note_off_c, 1, 50, 0
1, 204719, Note_off_c, 1, 38, 0
1, 204720, Note_on_c, 1, 86, 127
1, 204720, Note_on_c, 1, 83, 127
1, 204720, Note_on_c, 1, 78, 127
1, 204720, Note_on_c, 1, 50, 127
1, 204779, Note_off_c, 1, 86, 0
1, 204779, Note_off_c, 1, 83, 0
1, 204779, Note_off_c, 1, 78, 0
1, 204779, Note_off_c, 1, 50, 0
1, 204780, Note_on_c, 1, 85, 127
1, 204780, Note_on_c, 1, 81, 127
1, 204780, Note_on_c, 1, 76, 127
1, 204780, Note_on_c, 1, 52, 127
1, 204839, Note_off_c, 1, 85, 0
1, 204839, Note_off_c, 1, 81, 0
1, 204839, Note_off_c, 1, 76, 0
1, 204839, Note_off_c, 1, 52, 0
1, 204840, Note_on_c, 1, 83, 127
1, 204840, Note_on_c, 1, 80, 127
1, 204840, Note_on_c, 1, 76, 127
1, 204840, Note_on_c, 1, 40, 127
1, 204899, Note_off_c, 1, 83, 0
1, 204899, Note_off_c, 1, 80, 0
1, 204899, Note_off_c, 1, 76, 0
1, 204899, Note_off_c, 1, 40, 0
1, 204900, Note_on_c, 1, 85, 127
1, 204900, Note_on_c, 1, 81, 127
1, 204900, Note_on_c, 1, 76, 127
1, 204900, Note_on_c, 1, 45, 127
1, 204929, Note_off_c, 1, 85, 0
1, 204929, Note_off_c, 1, 81, 0
1, 204930, Note_on_c, 1, 83, 127
1, 204930, Note_on_c, 1, 79, 127
1, 204959, Note_off_c, 1, 76, 0
1, 204959, Note_off_c, 1, 83, 0
1, 204959, Note_off_c, 1, 79, 0
1, 204960, Note_on_c, 1, 78, 127
1, 204960, Note_on_c, 1, 57, 127
1, 204989, Note_off_c, 1, 78, 0
1, 205019, Note_off_c, 1, 45, 0
1, 205020, Note_on_c, 1, 74, 127
1, 205020, Note_on_c, 1, 86, 127
1, 205020, Note_on_c, 1, 66, 127
1, 205020, Note_on_c, 1, 62, 127
1, 205020, Note_on_c, 1, 59, 127
1, 205079, Note_off_c, 1, 57, 0
1, 205079, Note_off_c, 1, 66, 0
1, 205079, Note_off_c, 1, 62, 0
1, 205079, Note_off_c, 1, 59, 0
1, 205080, Note_on_c, 1, 64, 127
1, 205080, Note_on_c, 1, 52, 127
1, 205080, Note_on_c, 1, 56, 127
1, 205139, Note_off_c, 1, 74, 0
1, 205139, Note_off_c, 1, 86, 0
1, 205139, Note_off_c, 1, 64, 0
1, 205139, Note_off_c, 1, 52, 0
1, 205139, Note_off_c, 1, 56, 0
1, 205140, Note_on_c, 1, 85, 127
1, 205140, Note_on_c, 1, 73, 127
1, 205140, Note_on_c, 1, 64, 127
1, 205140, Note_on_c, 1, 59, 127
1, 205140, Note_on_c, 1, 57, 127
1, 205199, Note_off_c, 1, 64, 0
1, 205199, Note_off_c, 1, 59, 0
1, 205200, Note_on_c, 1, 66, 127
1, 205200, Note_on_c, 1, 54, 127
1, 205259, Note_off_c, 1, 85, 0
1, 205259, Note_off_c, 1, 73, 0
1, 205259, Note_off_c, 1, 57, 0
1, 205259, Note_off_c, 1, 66, 0
1, 205259, Note_off_c, 1, 54, 0
1, 205260, Note_on_c, 1, 83, 127
1, 205260, Note_on_c, 1, 71, 127
1, 205260, Note_on_c, 1, 66, 127
1, 205260, Note_on_c, 1, 57, 127
1, 205260, Note_on_c, 1, 50, 127
1, 205319, Note_off_c, 1, 66, 0
1, 205319, Note_off_c, 1, 57, 0
1, 205319, Note_off_c, 1, 50, 0
1, 205320, Note_on_c, 1, 64, 127
1, 205320, Note_on_c, 1, 55, 127
1, 205379, Note_off_c, 1, 83, 0
1, 205379, Note_off_c, 1, 71, 0
1, 205379, Note_off_c, 1, 64, 0
1, 205380, Note_on_c, 1, 81, 127
1, 205380, Note_on_c, 1, 69, 127
1, 205380, Note_on_c, 1, 61, 127
1, 205439, Note_off_c, 1, 55, 0
1, 205439, Note_off_c, 1, 61, 0
1, 205440, Note_on_c, 1, 62, 127
1, 205440, Note_on_c, 1, 54, 127
1, 205499, Note_off_c, 1, 81, 0
1, 205499, Note_off_c, 1, 69, 0
1, 205499, Note_off_c, 1, 62, 0
1, 205499, Note_off_c, 1, 54, 0
1, 205500, Note_on_c, 1, 83, 127
1, 205500, Note_on_c, 1, 71, 127
1, 205500, Note_on_c, 1, 59, 127
1, 205500, Note_on_c, 1, 55, 127
1, 205559, Note_off_c, 1, 83, 0
1, 205559, Note_off_c, 1, 71, 0
1, 205559, Note_off_c, 1, 59, 0
1, 205559, Note_off_c, 1, 55, 0
1, 205560, Note_on_c, 1, 81, 127
1, 205560, Note_on_c, 1, 69, 127
1, 205560, Note_on_c, 1, 61, 127
1, 205560, Note_on_c, 1, 54, 127
1, 205560, Note_on_c, 1, 57, 127
1, 205619, Note_off_c, 1, 81, 0
1, 205619, Note_off_c, 1, 69, 0
1, 205619, Note_off_c, 1, 61, 0
1, 205619, Note_off_c, 1, 54, 0
1, 205619, Note_off_c, 1, 57, 0
1, 205620, Note_on_c, 1, 79, 127
1, 205620, Note_on_c, 1, 67, 127
1, 205620, Note_on_c, 1, 62, 127
1, 205620, Note_on_c, 1, 50, 127
1, 205620, Note_on_c, 1, 59, 127
1, 205679, Note_off_c, 1, 79, 0
1, 205679, Note_off_c, 1, 67, 0
1, 205679, Note_off_c, 1, 59, 0
1, 205680, Note_on_c, 1, 78, 127
1, 205680, Note_on_c, 1, 66, 127
1, 205680, Note_on_c, 1, 55, 127
1, 205739, Note_off_c, 1, 50, 0
1, 205739, Note_off_c, 1, 78, 0
1, 205739, Note_off_c, 1, 66, 0
1, 205739, Note_off_c, 1, 55, 0
1, 205740, Note_on_c, 1, 76, 127
1, 205740, Note_on_c, 1, 64, 127
1, 205740, Note_on_c, 1, 57, 127
1, 205799, Note_off_c, 1, 62, 0
1, 205799, Note_off_c, 1, 57, 0
1, 205800, Note_on_c, 1, 61, 127
1, 205800, Note_on_c, 1, 45, 127
1, 205859, Note_off_c, 1, 76, 0
1, 205859, Note_off_c, 1, 64, 0
1, 205859, Note_off_c, 1, 61, 0
1, 205859, Note_off_c, 1, 45, 0
1, 205860, Note_on_c, 1, 69, 127
1, 205860, Note_on_c, 1, 50, 127
1, 205860, Note_on_c, 1, 74, 127
1, 205860, Note_on_c, 1, 62, 127
1, 205860, Note_on_c, 1, 57, 127
1, 205860, Note_on_c, 1, 54, 127
1, 205920, Note_on_c, 1, 78, 127
1, 205949, Note_off_c, 1, 78, 0
1, 205950, Note_on_c, 1, 79, 127
1, 205950, Note_on_c, 1, 76, 127
1, 205979, Note_off_c, 1, 69, 0
1, 205979, Note_off_c, 1, 50, 0
1, 205979, Note_off_c, 1, 74, 0
1, 205979, Note_off_c, 1, 62, 0
1, 205979, Note_off_c, 1, 54, 0
1, 205979, Note_off_c, 1, 79, 0
1, 205979, Note_off_c, 1, 76, 0
1, 205980, Note_off_c, 1, 57, 0
1, 206040, Note_on_c, 1, 78, 127
1, 206040, Note_on_c, 1, 74, 127
1, 206040, Note_on_c, 1, 69, 127
1, 206040, Note_on_c, 1, 50, 127
1, 206040, Note_on_c, 1, 54, 127
1, 206069, Note_off_c, 1, 69, 0
1, 206069, Note_off_c, 1, 50, 0
1, 206069, Note_off_c, 1, 54, 0
1, 206070, Note_on_c, 1, 66, 127
1, 206099, Note_off_c, 1, 78, 0
1, 206099, Note_off_c, 1, 74, 0
1, 206099, Note_off_c, 1, 66, 0
1, 206100, Note_on_c, 1, 62, 127
1, 206100, Note_on_c, 1, 50, 127
1, 206100, Note_on_c, 1, 47, 127
1, 206159, Note_off_c, 1, 62, 0
1, 206159, Note_off_c, 1, 47, 0
1, 206160, Note_on_c, 1, 78, 127
1, 206160, Note_on_c, 1, 74, 127
1, 206160, Note_on_c, 1, 66, 127
1, 206160, Note_on_c, 1, 59, 127
1, 206189, Note_off_c, 1, 78, 0
1, 206189, Note_off_c, 1, 74, 0
1, 206190, Note_on_c, 1, 79, 127
1, 206190, Note_on_c, 1, 76, 127
1, 206219, Note_off_c, 1, 50, 0
1, 206219, Note_off_c, 1, 66, 0
1, 206219, Note_off_c, 1, 59, 0
1, 206219, Note_off_c, 1, 79, 0
1, 206219, Note_off_c, 1, 76, 0
1, 206220, Note_on_c, 1, 78, 127
1, 206220, Note_on_c, 1, 74, 127
1, 206250, Note_on_c, 1, 47, 127
1, 206279, Note_off_c, 1, 78, 0
1, 206279, Note_off_c, 1, 74, 0
1, 206279, Note_off_c, 1, 47, 0
1, 206280, Note_on_c, 1, 78, 127
1, 206280, Note_on_c, 1, 74, 127
1, 206280, Note_on_c, 1, 66, 127
1, 206280, Note_on_c, 1, 50, 127
1, 206309, Note_off_c, 1, 66, 0
1, 206309, Note_off_c, 1, 50, 0
1, 206310, Note_on_c, 1, 69, 127
1, 206310, Note_on_c, 1, 47, 127
1, 206339, Note_off_c, 1, 78, 0
1, 206339, Note_off_c, 1, 74, 0
1, 206339, Note_off_c, 1, 69, 0
1, 206339, Note_off_c, 1, 47, 0
1, 206340, Note_on_c, 1, 74, 127
1, 206340, Note_on_c, 1, 50, 127
1, 206340, Note_on_c, 1, 43, 127
1, 206399, Note_off_c, 1, 74, 0
1, 206399, Note_off_c, 1, 50, 0
1, 206399, Note_off_c, 1, 43, 0
1, 206400, Note_on_c, 1, 83, 127
1, 206400, Note_on_c, 1, 79, 127
1, 206400, Note_on_c, 1, 74, 127
1, 206400, Note_on_c, 1, 50, 127
1, 206400, Note_on_c, 1, 55, 127
1, 206459, Note_off_c, 1, 83, 0
1, 206459, Note_off_c, 1, 79, 0
1, 206459, Note_off_c, 1, 74, 0
1, 206459, Note_off_c, 1, 50, 0
1, 206459, Note_off_c, 1, 55, 0
1, 206460, Note_on_c, 1, 81, 127
1, 206460, Note_on_c, 1, 78, 127
1, 206460, Note_on_c, 1, 74, 127
1, 206460, Note_on_c, 1, 45, 127
1, 206460, Note_on_c, 1, 57, 127
1, 206519, Note_off_c, 1, 81, 0
1, 206519, Note_off_c, 1, 78, 0
1, 206519, Note_off_c, 1, 74, 0
1, 206519, Note_off_c, 1, 45, 0
1, 206519, Note_off_c, 1, 57, 0
1, 206520, Note_on_c, 1, 79, 127
1, 206520, Note_on_c, 1, 76, 127
1, 206520, Note_on_c, 1, 69, 127
1, 206520, Note_on_c, 1, 45, 127
1, 206579, Note_off_c, 1, 79, 0
1, 206579, Note_off_c, 1, 76, 0
1, 206579, Note_off_c, 1, 69, 0
1, 206579, Note_off_c, 1, 45, 0
1, 206580, Note_on_c, 1, 78, 127
1, 206580, Note_on_c, 1, 74, 127
1, 206580, Note_on_c, 1, 62, 127
1, 206580, Note_on_c, 1, 50, 127
1, 206580, Note_on_c, 1, 47, 127
1, 206609, Note_off_c, 1, 78, 0
1, 206609, Note_off_c, 1, 74, 0
1, 206610, Note_on_c, 1, 81, 127
1, 206639, Note_off_c, 1, 81, 0
1, 206640, Note_on_c, 1, 83, 127
1, 206640, Note_on_c, 1, 79, 127
1, 206669, Note_off_c, 1, 83, 0
1, 206669, Note_off_c, 1, 79, 0
1, 206670, Note_on_c, 1, 85, 127
1, 206670, Note_on_c, 1, 76, 127
1, 206699, Note_off_c, 1, 62, 0
1, 206699, Note_off_c, 1, 50, 0
1, 206699, Note_off_c, 1, 47, 0
1, 206699, Note_off_c, 1, 85, 0
1, 206699, Note_off_c, 1, 76, 0
1, 206700, Note_on_c, 1, 86, 127
1, 206700, Note_on_c, 1, 78, 127
1, 206759, Note_off_c, 1, 86, 0
1, 206759, Note_off_c, 1, 78, 0
1, 206760, Note_on_c, 1, 79, 127
1, 206760, Note_on_c, 1, 74, 127
1, 206760, Note_on_c, 1, 62, 127
1, 206760, Note_on_c, 1, 50, 127
1, 206760, Note_on_c, 1, 59, 127
1, 206789, Note_off_c, 1, 62, 0
1, 206819, Note_off_c, 1, 79, 0
1, 206819, Note_off_c, 1, 74, 0
1, 206819, Note_off_c, 1, 50, 0
1, 206819, Note_off_c, 1, 59, 0
1, 206820, Note_on_c, 1, 78, 127
1, 206820, Note_on_c, 1, 74, 127
1, 206820, Note_on_c, 1, 62, 127
1, 206820, Note_on_c, 1, 45, 127
1, 206820, Note_on_c, 1, 57, 127
1, 206879, Note_off_c, 1, 62, 0
1, 206879, Note_off_c, 1, 57, 0
1, 206880, Note_on_c, 1, 66, 127
1, 206880, Note_on_c, 1, 55, 127
1, 206909, Note_off_c, 1, 66, 0
1, 206939, Note_off_c, 1, 78, 0
1, 206939, Note_off_c, 1, 74, 0
1, 206939, Note_off_c, 1, 45, 0
1, 206939, Note_off_c, 1, 55, 0
1, 206940, Note_on_c, 1, 76, 127
1, 206940, Note_on_c, 1, 69, 127
1, 206940, Note_on_c, 1, 45, 127
1, 206940, Note_on_c, 1, 57, 127
1, 206954, Note_off_c, 1, 76, 0
1, 206955, Note_on_c, 1, 78, 127
1, 206969, Note_off_c, 1, 45, 0
1, 206969, Note_off_c, 1, 78, 0
1, 206970, Note_on_c, 1, 66, 127
1, 206999, Note_off_c, 1, 69, 0
1, 206999, Note_off_c, 1, 57, 0
1, 206999, Note_off_c, 1, 66, 0
1, 207000, Note_on_c, 1, 76, 127
1, 207000, Note_on_c, 1, 69, 127
1, 207000, Note_on_c, 1, 45, 127
1, 207009, Note_off_c, 1, 76, 0
1, 207010, Note_on_c, 1, 78, 127
1, 207019, Note_off_c, 1, 78, 0
1, 207059, Note_off_c, 1, 69, 0
1, 207059, Note_off_c, 1, 45, 0
1, 207060, Note_on_c, 1, 74, 127
1, 207060, Note_on_c, 1, 66, 127
1, 207060, Note_on_c, 1, 69, 127
1, 207060, Note_on_c, 1, 50, 127
1, 207060, Note_on_c, 1, 38, 127
1, 207179, Note_off_c, 1, 74, 0
1, 207179, Note_off_c, 1, 66, 0
1, 207179, Note_off_c, 1, 69, 0
1, 207179, Note_off_c, 1, 50, 0
1, 207180, Note_off_c, 1, 38, 0
1, 207180, End_track
0, 0, End_of_file