0, 0, Header, 1, 1, 480
1, 0, Start_track
1, 0, Title_t, "Test"
1, 0, Tempo, 500000
1, 0, Instrument_name_t, "Church Organ"
1, 0, Note_on_c, 1, 78, 127
1, 0, Note_on_c, 1, 74, 127
1, 0, Note_on_c, 1, 69, 127
1, 0, Note_on_c, 1, 50, 127
1, 0, Note_on_c, 1, 62, 127
1, 59, Note_off_c, 1, 78, 0
1, 59, Note_off_c, 1, 74, 0
1, 59, Note_off_c, 1, 69, 0
1, 59, Note_off_c, 1, 50, 0
1, 59, Note_off_c, 1, 62, 0
1, 60, Note_on_c, 1, 78, 127
1, 60, Note_on_c, 1, 74, 127
1, 60, Note_on_c, 1, 69, 127
1, 60, Note_on_c, 1, 50, 127
1, 119, Note_off_c, 1, 78, 0
1, 119, Note_off_c, 1, 74, 0
1, 119, Note_off_c, 1, 69, 0
1, 119, Note_off_c, 1, 50, 0
1, 120, Note_on_c, 1, 78, 127
1, 120, Note_on_c, 1, 74, 127
1, 120, Note_on_c, 1, 69, 127
1, 120, Note_on_c, 1, 50, 127
1, 120, Note_on_c, 1, 61, 127
1, 179, Note_off_c, 1, 78, 0
1, 179, Note_off_c, 1, 74, 0
1, 179, Note_off_c, 1, 69, 0
1, 179, Note_off_c, 1, 50, 0
1, 179, Note_off_c, 1, 61, 0
1, 180, Note_on_c, 1, 78, 127
1, 180, Note_on_c, 1, 74, 127
1, 180, Note_on_c, 1, 62, 127
1, 180, Note_on_c, 1, 50, 127
1, 180, Note_on_c, 1, 71, 127
1, 180, Note_on_c, 1, 59, 127
1, 239, Note_off_c, 1, 78, 0
1, 239, Note_off_c, 1, 74, 0
1, 239, Note_off_c, 1, 62, 0
1, 239, Note_off_c, 1, 50, 0
1, 239, Note_off_c, 1, 71, 0
1, 239, Note_off_c, 1, 59, 0
1, 240, Note_on_c, 1, 74, 127
1, 240, Note_on_c, 1, 71, 127
1, 240, Note_on_c, 1, 66, 127
1, 240, Note_on_c, 1, 47, 127
1, 269, Note_off_c, 1, 74, 0
1, 269, Note_off_c, 1, 71, 0
1, 270, Note_on_c, 1, 76, 127
1, 270, Note_on_c, 1, 73, 127
1, 299, Note_off_c, 1, 66, 0
1, 299, Note_off_c, 1, 47, 0
1, 299, Note_off_c, 1, 76, 0
1, 299, Note_off_c, 1, 73, 0
1, 300, Note_on_c, 1, 78, 127
1, 300, Note_on_c, 1, 74, 127
1, 300, Note_on_c, 1, 71, 127
1, 300, Note_on_c, 1, 59, 127
1, 329, Note_off_c, 1, 78, 0
1, 329, Note_off_c, 1, 74, 0
1, 330, Note_on_c, 1, 79, 127
1, 359, Note_off_c, 1, 71, 0
1, 359, Note_off_c, 1, 59, 0
1, 359, Note_off_c, 1, 79, 0
1, 360, Note_on_c, 1, 81, 127
1, 360, Note_on_c, 1, 76, 127
1, 360, Note_on_c, 1, 69, 127
1, 360, Note_on_c, 1, 61, 127
1, 389, Note_off_c, 1, 76, 0
1, 390, Note_on_c, 1, 75, 127
1, 419, Note_off_c, 1, 81, 0
1, 419, Note_off_c, 1, 69, 0
1, 419, Note_off_c, 1, 61, 0
1, 419, Note_off_c, 1, 75, 0
1, 420, Note_on_c, 1, 79, 127
1, 420, Note_on_c, 1, 76, 127
1, 420, Note_on_c, 1, 64, 127
1, 420, Note_on_c, 1, 49, 127
1, 479, Note_off_c, 1, 79, 0
1, 479, Note_off_c, 1, 76, 0
1, 479, Note_off_c, 1, 64, 0
1, 479, Note_off_c, 1, 49, 0
1, 480, Note_on_c, 1, 78, 127
1, 480, Note_on_c, 1, 71, 127
1, 480, Note_on_c, 1, 51, 127
1, 539, Note_off_c, 1, 71, 0
1, 539, Note_off_c, 1, 51, 0
1, 540, Note_on_c, 1, 79, 127
1, 540, Note_on_c, 1, 52, 127
1, 599, Note_off_c, 1, 78, 0
1, 599, Note_off_c, 1, 52, 0
1, 600, Note_on_c, 1, 76, 127
1, 600, Note_on_c, 1, 59, 127
1, 600, Note_on_c, 1, 55, 127
1, 629, Note_off_c, 1, 79, 0
1, 630, Note_on_c, 1, 81, 127
1, 644, Note_off_c, 1, 81, 0
1, 645, Note_on_c, 1, 83, 127
1, 659, Note_off_c, 1, 76, 0
1, 659, Note_off_c, 1, 59, 0
1, 659, Note_off_c, 1, 55, 0
1, 659, Note_off_c, 1, 83, 0
1, 660, Note_on_c, 1, 81, 127
1, 660, Note_on_c, 1, 75, 127
1, 660, Note_on_c, 1, 71, 127
1, 660, Note_on_c, 1, 59, 127
1, 719, Note_off_c, 1, 81, 0
1, 719, Note_off_c, 1, 75, 0
1, 719, Note_off_c, 1, 71, 0
1, 719, Note_off_c, 1, 59, 0
1, 720, Note_on_c, 1, 79, 127
1, 720, Note_on_c, 1, 76, 127
1, 720, Note_on_c, 1, 71, 127
1, 720, Note_on_c, 1, 64, 127
1, 779, Note_off_c, 1, 79, 0
1, 779, Note_off_c, 1, 76, 0
1, 779, Note_off_c, 1, 71, 0
1, 779, Note_off_c, 1, 64, 0
1, 780, Note_on_c, 1, 79, 127
1, 780, Note_on_c, 1, 76, 127
1, 780, Note_on_c, 1, 71, 127
1, 780, Note_on_c, 1, 52, 127
1, 839, Note_off_c, 1, 79, 0
1, 839, Note_off_c, 1, 76, 0
1, 839, Note_off_c, 1, 71, 0
1, 839, Note_off_c, 1, 52, 0
1, 840, Note_on_c, 1, 79, 127
1, 840, Note_on_c, 1, 76, 127
1, 840, Note_on_c, 1, 71, 127
1, 840, Note_on_c, 1, 62, 127
1, 899, Note_off_c, 1, 79, 0
1, 899, Note_off_c, 1, 76, 0
1, 899, Note_off_c, 1, 71, 0
1, 899, Note_off_c, 1, 62, 0
1, 900, Note_on_c, 1, 79, 127
1, 900, Note_on_c, 1, 76, 127
1, 900, Note_on_c, 1, 69, 127
1, 900, Note_on_c, 1, 61, 127
1, 959, Note_off_c, 1, 79, 0
1, 959, Note_off_c, 1, 76, 0
1, 959, Note_off_c, 1, 69, 0
1, 959, Note_off_c, 1, 61, 0
1, 960, Note_on_c, 1, 76, 127
1, 960, Note_on_c, 1, 69, 127
1, 960, Note_on_c, 1, 49, 127
1, 989, Note_off_c, 1, 76, 0
1, 990, Note_on_c, 1, 74, 127
1, 1019, Note_off_c, 1, 69, 0
1, 1019, Note_off_c, 1, 49, 0
1, 1019, Note_off_c, 1, 74, 0
1, 1020, Note_on_c, 1, 76, 127
1, 1020, Note_on_c, 1, 74, 127
1, 1020, Note_on_c, 1, 67, 127
1, 1020, Note_on_c, 1, 59, 127
1, 1049, Note_off_c, 1, 76, 0
1, 1050, Note_on_c, 1, 78, 127
1, 1079, Note_off_c, 1, 74, 0
1, 1079, Note_off_c, 1, 67, 0
1, 1079, Note_off_c, 1, 59, 0
1, 1079, Note_off_c, 1, 78, 0
1, 1080, Note_on_c, 1, 79, 127
1, 1080, Note_on_c, 1, 76, 127
1, 1080, Note_on_c, 1, 69, 127
1, 1080, Note_on_c, 1, 45, 127
1, 1080, Note_on_c, 1, 73, 127
1, 1080, Note_on_c, 1, 64, 127
1, 1080, Note_on_c, 1, 57, 127
1, 1109, Note_off_c, 1, 79, 0
1, 1110, Note_on_c, 1, 78, 127
1, 1139, Note_off_c, 1, 76, 0
1, 1139, Note_off_c, 1, 69, 0
1, 1139, Note_off_c, 1, 45, 0
1, 1139, Note_off_c, 1, 73, 0
1, 1139, Note_off_c, 1, 64, 0
1, 1139, Note_off_c, 1, 57, 0
1, 1139, Note_off_c, 1, 78, 0
1, 1140, Note_on_c, 1, 81, 127
1, 1140, Note_on_c, 1, 78, 127
1, 1140, Note_on_c, 1, 62, 127
1, 1140, Note_on_c, 1, 50, 127
1, 1140, Note_on_c, 1, 54, 127
1, 1169, Note_off_c, 1, 81, 0
1, 1169, Note_off_c, 1, 78, 0
1, 1170, Note_on_c, 1, 79, 127
1, 1170, Note_on_c, 1, 76, 127
1, 1199, Note_off_c, 1, 62, 0
1, 1199, Note_off_c, 1, 50, 0
1, 1199, Note_off_c, 1, 54, 0
1, 1199, Note_off_c, 1, 79, 0
1, 1199, Note_off_c, 1, 76, 0
1, 1200, Note_on_c, 1, 78, 127
1, 1200, Note_on_c, 1, 74, 127
1, 1200, Note_on_c, 1, 69, 127
1, 1200, Note_on_c, 1, 45, 127
1, 1200, Note_on_c, 1, 57, 127
1, 1229, Note_off_c, 1, 78, 0
1, 1229, Note_off_c, 1, 74, 0
1, 1230, Note_on_c, 1, 76, 127
1, 1230, Note_on_c, 1, 73, 127
1, 1259, Note_off_c, 1, 69, 0
1, 1259, Note_off_c, 1, 45, 0
1, 1259, Note_off_c, 1, 57, 0
1, 1259, Note_off_c, 1, 76, 0
1, 1259, Note_off_c, 1, 73, 0
1, 1260, Note_on_c, 1, 78, 127
1, 1260, Note_on_c, 1, 74, 127
1, 1260, Note_on_c, 1, 69, 127
1, 1260, Note_on_c, 1, 50, 127
1, 1319, Note_off_c, 1, 74, 0
1, 1319, Note_off_c, 1, 69, 0
1, 1319, Note_off_c, 1, 50, 0
1, 1320, Note_on_c, 1, 54, 127
1, 1349, Note_off_c, 1, 78, 0
1, 1350, Note_on_c, 1, 79, 127
1, 1364, Note_off_c, 1, 79, 0
1, 1365, Note_on_c, 1, 81, 127
1, 1379, Note_off_c, 1, 54, 0
1, 1379, Note_off_c, 1, 81, 0
1, 1380, Note_on_c, 1, 79, 127
1, 1380, Note_on_c, 1, 73, 127
1, 1380, Note_on_c, 1, 69, 127
1, 1380, Note_on_c, 1, 57, 127
1, 1439, Note_off_c, 1, 79, 0
1, 1439, Note_off_c, 1, 73, 0
1, 1439, Note_off_c, 1, 69, 0
1, 1439, Note_off_c, 1, 57, 0
1, 1440, Note_on_c, 1, 78, 127
1, 1440, Note_on_c, 1, 74, 127
1, 1440, Note_on_c, 1, 57, 127
1, 1440, Note_on_c, 1, 62, 127
1, 1499, Note_off_c, 1, 78, 0
1, 1499, Note_off_c, 1, 74, 0
1, 1499, Note_off_c, 1, 57, 0
1, 1499, Note_off_c, 1, 62, 0
1, 1500, Note_on_c, 1, 80, 127
1, 1500, Note_on_c, 1, 71, 127
1, 1500, Note_on_c, 1, 64, 127
1, 1500, Note_on_c, 1, 50, 127
1, 1559, Note_off_c, 1, 80, 0
1, 1559, Note_off_c, 1, 71, 0
1, 1559, Note_off_c, 1, 64, 0
1, 1559, Note_off_c, 1, 50, 0
1, 1560, Note_on_c, 1, 81, 127
1, 1560, Note_on_c, 1, 76, 127
1, 1560, Note_on_c, 1, 64, 127
1, 1560, Note_on_c, 1, 61, 127
1, 1589, Note_off_c, 1, 76, 0
1, 1590, Note_on_c, 1, 78, 127
1, 1619, Note_off_c, 1, 81, 0
1, 1619, Note_off_c, 1, 64, 0
1, 1619, Note_off_c, 1, 61, 0
1, 1619, Note_off_c, 1, 78, 0
1, 1620, Note_on_c, 1, 83, 127
1, 1620, Note_on_c, 1, 80, 127
1, 1620, Note_on_c, 1, 64, 127
1, 1620, Note_on_c, 1, 59, 127
1, 1649, Note_off_c, 1, 83, 0
1, 1649, Note_off_c, 1, 80, 0
1, 1650, Note_on_c, 1, 85, 127
1, 1650, Note_on_c, 1, 81, 127
1, 1679, Note_off_c, 1, 64, 0
1, 1679, Note_off_c, 1, 59, 0
1, 1679, Note_off_c, 1, 85, 0
1, 1679, Note_off_c, 1, 81, 0
1, 1680, Note_on_c, 1, 86, 127
1, 1680, Note_on_c, 1, 83, 127
1, 1680, Note_on_c, 1, 64, 127
1, 1680, Note_on_c, 1, 56, 127
1, 1739, Note_off_c, 1, 86, 0
1, 1739, Note_off_c, 1, 83, 0
1, 1739, Note_off_c, 1, 64, 0
1, 1739, Note_off_c, 1, 56, 0
1, 1740, Note_on_c, 1, 85, 127
1, 1740, Note_on_c, 1, 81, 127
1, 1740, Note_on_c, 1, 64, 127
1, 1740, Note_on_c, 1, 57, 127
1, 1799, Note_off_c, 1, 85, 0
1, 1799, Note_off_c, 1, 81, 0
1, 1799, Note_off_c, 1, 64, 0
1, 1799, Note_off_c, 1, 57, 0
1, 1800, Note_on_c, 1, 83, 127
1, 1800, Note_on_c, 1, 78, 127
1, 1800, Note_on_c, 1, 66, 127
1, 1800, Note_on_c, 1, 50, 127
1, 1859, Note_off_c, 1, 83, 0
1, 1859, Note_off_c, 1, 78, 0
1, 1859, Note_off_c, 1, 66, 0
1, 1859, Note_off_c, 1, 50, 0
1, 1860, Note_on_c, 1, 81, 127
1, 1860, Note_on_c, 1, 71, 127
1, 1860, Note_on_c, 1, 64, 127
1, 1860, Note_on_c, 1, 52, 127
1, 1889, Note_off_c, 1, 71, 0
1, 1890, Note_on_c, 1, 73, 127
1, 1919, Note_off_c, 1, 81, 0
1, 1919, Note_off_c, 1, 64, 0
1, 1919, Note_off_c, 1, 52, 0
1, 1919, Note_off_c, 1, 73, 0
1, 1920, Note_on_c, 1, 80, 127
1, 1920, Note_on_c, 1, 74, 127
1, 1920, Note_on_c, 1, 64, 127
1, 1920, Note_on_c, 1, 40, 127
1, 1979, Note_off_c, 1, 80, 0
1, 1979, Note_off_c, 1, 74, 0
1, 1979, Note_off_c, 1, 64, 0
1, 1979, Note_off_c, 1, 40, 0
1, 1980, Note_on_c, 1, 81, 127
1, 1980, Note_on_c, 1, 73, 127
1, 1980, Note_on_c, 1, 64, 127
1, 1980, Note_on_c, 1, 45, 127
1, 2039, Note_off_c, 1, 73, 0
1, 2039, Note_off_c, 1, 64, 0
1, 2039, Note_off_c, 1, 45, 0
1, 2040, Note_on_c, 1, 69, 127
1, 2069, Note_off_c, 1, 69, 0
1, 2070, Note_on_c, 1, 71, 127
1, 2070, Note_on_c, 1, 68, 127
1, 2099, Note_off_c, 1, 71, 0
1, 2099, Note_off_c, 1, 68, 0
1, 2130, Note_on_c, 1, 74, 127
1, 2159, Note_off_c, 1, 74, 0
1, 2160, Note_on_c, 1, 76, 127
1, 2219, Note_off_c, 1, 76, 0
1, 2220, Note_on_c, 1, 79, 127
1, 2220, Note_on_c, 1, 61, 127
1, 2279, Note_off_c, 1, 61, 0
1, 2280, Note_off_c, 1, 79, 0
1, 2280, Note_on_c, 1, 78, 127
1, 2280, Note_on_c, 1, 50, 127
1, 2280, Note_on_c, 1, 62, 127
1, 2339, Note_off_c, 1, 50, 0
1, 2339, Note_off_c, 1, 62, 0
1, 2340, Note_off_c, 1, 78, 0
1, 2340, Note_on_c, 1, 57, 127
1, 2399, Note_off_c, 1, 57, 0
1, 2490, Note_on_c, 1, 66, 127
1, 2519, Note_off_c, 1, 66, 0
1, 2520, Note_on_c, 1, 67, 127
1, 2579, Note_off_c, 1, 67, 0
1, 2580, Note_on_c, 1, 49, 127
1, 2639, Note_off_c, 1, 49, 0
1, 2790, Note_on_c, 1, 55, 127
1, 2819, Note_off_c, 1, 55, 0
1, 2820, Note_on_c, 1, 54, 127
1, 2849, Note_off_c, 1, 54, 0
1, 2850, Note_on_c, 1, 52, 127
1, 2879, Note_off_c, 1, 52, 0
1, 2880, Note_off_c, 1, 81, 0
1, 3000, Note_on_c, 1, 62, 127
1, 3035, Note_off_c, 1, 62, 0
1, 3060, Note_on_c, 1, 78, 127
1, 3060, Note_on_c, 1, 71, 127
1, 3060, Note_on_c, 1, 62, 127
1, 3060, Note_on_c, 1, 47, 127
1, 3119, Note_off_c, 1, 78, 0
1, 3119, Note_off_c, 1, 47, 0
1, 3120, Note_off_c, 1, 71, 0
1, 3120, Note_off_c, 1, 62, 0
1, 3120, Note_on_c, 1, 66, 127
1, 3150, Note_off_c, 1, 66, 0
1, 3150, Note_on_c, 1, 64, 127
1, 3180, Note_off_c, 1, 64, 0
1, 3210, Note_on_c, 1, 61, 127
1, 3240, Note_off_c, 1, 61, 0
1, 3240, Note_on_c, 1, 81, 127
1, 3240, Note_on_c, 1, 42, 127
1, 3299, Note_off_c, 1, 81, 0
1, 3299, Note_off_c, 1, 42, 0
1, 3300, Note_on_c, 1, 83, 127
1, 3300, Note_on_c, 1, 76, 127
1, 3300, Note_on_c, 1, 43, 127
1, 3330, Note_off_c, 1, 76, 0
1, 3330, Note_on_c, 1, 74, 127
1, 3330, Note_on_c, 1, 59, 127
1, 3359, Note_off_c, 1, 83, 0
1, 3359, Note_off_c, 1, 43, 0
1, 3360, Note_off_c, 1, 74, 0
1, 3360, Note_off_c, 1, 59, 0
1, 3360, Note_on_c, 1, 85, 127
1, 3360, Note_on_c, 1, 73, 127
1, 3360, Note_on_c, 1, 57, 127
1, 3360, Note_on_c, 1, 45, 127
1, 3390, Note_off_c, 1, 73, 0
1, 3390, Note_off_c, 1, 57, 0
1, 3390, Note_on_c, 1, 55, 127
1, 3419, Note_off_c, 1, 85, 0
1, 3419, Note_off_c, 1, 45, 0
1, 3420, Note_off_c, 1, 55, 0
1, 3420, Note_on_c, 1, 86, 127
1, 3420, Note_on_c, 1, 69, 127
1, 3420, Note_on_c, 1, 54, 127
1, 3420, Note_on_c, 1, 38, 127
1, 3479, Note_off_c, 1, 86, 0
1, 3479, Note_off_c, 1, 38, 0
1, 3480, Note_off_c, 1, 69, 0
1, 3480, Note_off_c, 1, 54, 0
1, 3480, Note_on_c, 1, 67, 127
1, 3480, Note_on_c, 1, 52, 127
1, 3510, Note_off_c, 1, 52, 0
1, 3510, Note_on_c, 1, 50, 127
1, 3540, Note_off_c, 1, 67, 0
1, 3540, Note_off_c, 1, 50, 0
1, 3600, Note_on_c, 1, 88, 127
1, 3600, Note_on_c, 1, 49, 127
1, 3659, Note_off_c, 1, 88, 0
1, 3659, Note_off_c, 1, 49, 0
1, 3990, Note_on_c, 1, 56, 127
1, 4020, Note_off_c, 1, 56, 0
1, 4140, Note_on_c, 1, 79, 127
1, 4200, Note_off_c, 1, 79, 0
1, 4500, Note_on_c, 1, 48, 127
1, 4559, Note_off_c, 1, 48, 0
1, 4740, Note_on_c, 1, 72, 127
1, 4770, Note_off_c, 1, 72, 0
1, 6150, Note_on_c, 1, 75, 127
1, 6180, Note_off_c, 1, 75, 0
1, 6240, Note_on_c, 1, 51, 127
1, 6300, Note_off_c, 1, 51, 0
1, 7200, Note_on_c, 1, 78, 127
1, 7200, Note_on_c, 1, 74, 127
1, 7200, Note_on_c, 1, 57, 127
1, 7200, Note_on_c, 1, 66, 127
1, 7200, Note_on_c, 1, 62, 127
1, 7259, Note_off_c, 1, 78, 0
1, 7259, Note_off_c, 1, 57, 0
1, 7260, Note_off_c, 1, 74, 0
1, 7260, Note_off_c, 1, 66, 0
1, 7260, Note_on_c, 1, 80, 127
1, 7260, Note_on_c, 1, 71, 127
1, 7260, Note_on_c, 1, 64, 127
1, 7260, Note_on_c, 1, 68, 127
1, 7260, Note_on_c, 1, 50, 127
1, 7319, Note_off_c, 1, 80, 0
1, 7319, Note_off_c, 1, 50, 0
1, 7320, Note_off_c, 1, 62, 0
1, 7320, Note_off_c, 1, 71, 0
1, 7320, Note_off_c, 1, 68, 0
1, 7320, Note_on_c, 1, 81, 127
1, 7320, Note_on_c, 1, 76, 127
1, 7320, Note_on_c, 1, 73, 127
1, 7320, Note_on_c, 1, 69, 127
1, 7320, Note_on_c, 1, 61, 127
1, 7349, Note_off_c, 1, 76, 0
1, 7379, Note_off_c, 1, 81, 0
1, 7380, Note_off_c, 1, 73, 0
1, 7380, Note_off_c, 1, 69, 0
1, 7380, Note_off_c, 1, 61, 0
1, 7380, Note_on_c, 1, 83, 127
1, 7380, Note_on_c, 1, 59, 127
1, 7409, Note_off_c, 1, 83, 0
1, 7410, Note_on_c, 1, 85, 127
1, 7439, Note_off_c, 1, 85, 0
1, 7440, Note_off_c, 1, 59, 0
1, 7440, Note_on_c, 1, 86, 127
1, 7440, Note_on_c, 1, 56, 127
1, 7499, Note_off_c, 1, 86, 0
1, 7500, Note_off_c, 1, 56, 0
1, 7560, Note_off_c, 1, 64, 0
1, 7620, Note_on_c, 1, 52, 127
1, 7680, Note_on_c, 1, 40, 127
1, 7739, Note_off_c, 1, 40, 0
1, 7740, Note_off_c, 1, 52, 0
1, 7740, Note_on_c, 1, 45, 127
1, 7799, Note_off_c, 1, 45, 0
1, 7980, Note_on_c, 1, 79, 127
1, 8040, Note_off_c, 1, 79, 0
1, 8280, Note_on_c, 1, 67, 127
1, 8340, Note_on_c, 1, 49, 127
1, 8400, Note_off_c, 1, 67, 0
1, 8400, Note_off_c, 1, 49, 0
1, 8820, Note_on_c, 1, 55, 127
1, 8879, Note_off_c, 1, 55, 0
1, 8880, Note_on_c, 1, 43, 127
1, 8939, Note_off_c, 1, 43, 0
1, 9000, Note_on_c, 1, 54, 127
1, 9059, Note_off_c, 1, 54, 0
1, 9060, Note_on_c, 1, 74, 127
1, 9060, Note_on_c, 1, 69, 127
1, 9060, Note_on_c, 1, 42, 127
1, 9119, Note_off_c, 1, 74, 0
1, 9119, Note_off_c, 1, 69, 0
1, 9119, Note_off_c, 1, 42, 0
1, 9120, Note_on_c, 1, 76, 127
1, 9120, Note_on_c, 1, 73, 127
1, 9120, Note_on_c, 1, 67, 127
1, 9120, Note_on_c, 1, 52, 127
1, 9179, Note_off_c, 1, 76, 0
1, 9179, Note_off_c, 1, 73, 0
1, 9179, Note_off_c, 1, 67, 0
1, 9179, Note_off_c, 1, 52, 0
1, 9180, Note_on_c, 1, 78, 127
1, 9180, Note_on_c, 1, 74, 127
1, 9180, Note_on_c, 1, 69, 127
1, 9180, Note_on_c, 1, 50, 127
1, 9239, Note_off_c, 1, 78, 0
1, 9239, Note_off_c, 1, 74, 0
1, 9239, Note_off_c, 1, 69, 0
1, 9239, Note_off_c, 1, 50, 0
1, 9240, Note_on_c, 1, 76, 127
1, 9240, Note_on_c, 1, 71, 127
1, 9240, Note_on_c, 1, 67, 127
1, 9240, Note_on_c, 1, 38, 127
1, 9299, Note_off_c, 1, 71, 0
1, 9299, Note_off_c, 1, 67, 0
1, 9299, Note_off_c, 1, 38, 0
1, 9300, Note_on_c, 1, 69, 127
1, 9300, Note_on_c, 1, 64, 127
1, 9300, Note_on_c, 1, 49, 127
1, 9329, Note_off_c, 1, 76, 0
1, 9330, Note_on_c, 1, 78, 127
1, 9344, Note_off_c, 1, 78, 0
1, 9345, Note_on_c, 1, 79, 127
1, 9359, Note_off_c, 1, 64, 0
1, 9359, Note_off_c, 1, 49, 0
1, 9359, Note_off_c, 1, 79, 0
1, 9360, Note_on_c, 1, 74, 127
1, 9360, Note_on_c, 1, 50, 127
1, 9360, Note_on_c, 1, 62, 127
1, 9419, Note_off_c, 1, 62, 0
1, 9540, Note_on_c, 1, 60, 127
1, 9599, Note_off_c, 1, 60, 0
1, 9600, Note_off_c, 1, 69, 0
1, 9600, Note_off_c, 1, 50, 0
1, 9600, Note_on_c, 1, 81, 127
1, 9600, Note_on_c, 1, 48, 127
1, 9629, Note_off_c, 1, 81, 0
1, 9659, Note_off_c, 1, 48, 0
1, 9720, Note_on_c, 1, 59, 127
1, 9750, Note_on_c, 1, 72, 127
1, 9779, Note_off_c, 1, 59, 0
1, 9779, Note_off_c, 1, 72, 0
1, 9780, Note_on_c, 1, 47, 127
1, 9839, Note_off_c, 1, 47, 0
1, 9840, Note_on_c, 1, 57, 127
1, 9899, Note_off_c, 1, 57, 0
1, 9900, Note_on_c, 1, 83, 127
1, 9900, Note_on_c, 1, 55, 127
1, 9959, Note_off_c, 1, 83, 0
1, 9959, Note_off_c, 1, 55, 0
1, 9960, Note_off_c, 1, 74, 0
1, 9960, Note_on_c, 1, 43, 127
1, 10019, Note_off_c, 1, 43, 0
1, 10020, Note_on_c, 1, 54, 127
1, 10065, Note_on_c, 1, 84, 127
1, 10079, Note_off_c, 1, 54, 0
1, 10080, Note_off_c, 1, 84, 0
1, 10260, Note_on_c, 1, 45, 127
1, 10260, Note_on_c, 1, 73, 127
1, 10319, Note_off_c, 1, 73, 0
1, 10320, Note_off_c, 1, 45, 0
1, 10620, Note_on_c, 1, 66, 127
1, 10740, Note_off_c, 1, 66, 0
1, 10890, Note_on_c, 1, 61, 127
1, 10920, Note_off_c, 1, 61, 0
1, 11430, Note_on_c, 1, 52, 127
1, 11459, Note_off_c, 1, 52, 0
1, 11580, Note_on_c, 1, 64, 127
1, 11615, Note_off_c, 1, 64, 0
1, 11640, Note_on_c, 1, 64, 127
1, 11675, Note_off_c, 1, 64, 0
1, 11700, Note_on_c, 1, 76, 127
1, 11700, Note_on_c, 1, 81, 127
1, 11700, Note_on_c, 1, 61, 127
1, 11700, Note_on_c, 1, 55, 127
1, 11759, Note_off_c, 1, 76, 0
1, 11759, Note_off_c, 1, 81, 0
1, 11759, Note_off_c, 1, 55, 0
1, 11760, Note_off_c, 1, 61, 0
1, 11760, Note_on_c, 1, 62, 127
1, 11790, Note_off_c, 1, 62, 0
1, 11820, Note_on_c, 1, 59, 127
1, 11850, Note_off_c, 1, 59, 0
1, 11850, Note_on_c, 1, 57, 127
1, 11880, Note_off_c, 1, 57, 0
1, 11880, Note_on_c, 1, 78, 127
1, 11880, Note_on_c, 1, 69, 127
1, 11880, Note_on_c, 1, 54, 127
1, 11939, Note_off_c, 1, 78, 0
1, 11939, Note_off_c, 1, 69, 0
1, 11939, Note_off_c, 1, 54, 0
1, 11940, Note_on_c, 1, 80, 127
1, 11940, Note_on_c, 1, 73, 127
1, 11940, Note_on_c, 1, 64, 127
1, 11940, Note_on_c, 1, 52, 127
1, 11969, Note_off_c, 1, 80, 0
1, 11999, Note_off_c, 1, 73, 0
1, 11999, Note_off_c, 1, 52, 0
1, 12000, Note_off_c, 1, 64, 0
1, 12000, Note_on_c, 1, 83, 127
1, 12000, Note_on_c, 1, 74, 127
1, 12000, Note_on_c, 1, 66, 127
1, 12000, Note_on_c, 1, 50, 127
1, 12059, Note_off_c, 1, 50, 0
1, 12060, Note_off_c, 1, 66, 0
1, 12119, Note_off_c, 1, 83, 0
1, 12119, Note_off_c, 1, 74, 0
1, 12120, Note_on_c, 1, 79, 127
1, 12179, Note_off_c, 1, 79, 0
1, 12180, Note_on_c, 1, 82, 127
1, 12239, Note_off_c, 1, 82, 0
1, 12240, Note_on_c, 1, 71, 127
1, 12240, Note_on_c, 1, 47, 127
1, 12299, Note_off_c, 1, 71, 0
1, 12299, Note_off_c, 1, 47, 0
1, 12390, Note_on_c, 1, 67, 127
1, 12420, Note_off_c, 1, 67, 0
1, 12420, Note_on_c, 1, 42, 127
1, 12479, Note_off_c, 1, 42, 0
1, 12600, Note_on_c, 1, 43, 127
1, 12659, Note_off_c, 1, 43, 0
1, 12720, Note_on_c, 1, 40, 127
1, 12779, Note_off_c, 1, 40, 0
1, 12780, Note_on_c, 1, 38, 127
1, 12839, Note_off_c, 1, 38, 0
1, 12840, Note_on_c, 1, 49, 127
1, 12899, Note_off_c, 1, 49, 0
1, 12900, Note_on_c, 1, 56, 127
1, 12960, Note_off_c, 1, 56, 0
1, 12960, Note_on_c, 1, 45, 127
1, 13079, Note_off_c, 1, 45, 0
1, 13860, Note_on_c, 1, 68, 127
1, 13890, Note_off_c, 1, 68, 0
1, 15300, Note_on_c, 1, 60, 127
1, 15360, Note_on_c, 1, 48, 127
1, 15419, Note_off_c, 1, 48, 0
1, 15480, Note_off_c, 1, 60, 0
1, 15510, Note_on_c, 1, 72, 127
1, 15539, Note_off_c, 1, 72, 0
1, 15825, Note_on_c, 1, 84, 127
1, 15840, Note_off_c, 1, 84, 0
1, 17460, Note_on_c, 1, 44, 127
1, 17460, Note_on_c, 1, 64, 127
1, 17460, Note_on_c, 1, 59, 127
1, 17460, Note_on_c, 1, 68, 127
1, 17640, Note_on_c, 1, 76, 127
1, 17699, Note_off_c, 1, 76, 0
1, 17760, Note_on_c, 1, 71, 127
1, 17819, Note_off_c, 1, 71, 0
1, 17910, Note_on_c, 1, 69, 127
1, 17939, Note_off_c, 1, 69, 0
1, 18060, Note_off_c, 1, 64, 0
1, 18060, Note_on_c, 1, 74, 127
1, 18060, Note_on_c, 1, 62, 127
1, 18119, Note_off_c, 1, 74, 0
1, 18120, Note_on_c, 1, 73, 127
1, 18179, Note_off_c, 1, 73, 0
1, 18180, Note_off_c, 1, 44, 0
1, 18180, Note_off_c, 1, 59, 0
1, 18180, Note_off_c, 1, 68, 0
1, 18180, Note_off_c, 1, 62, 0
1, 18180, Note_on_c, 1, 45, 127
1, 18180, Note_on_c, 1, 61, 127
1, 18300, Note_off_c, 1, 45, 0
1, 18300, Note_off_c, 1, 61, 0
1, 18300, Note_on_c, 1, 49, 127
1, 18420, Note_off_c, 1, 49, 0
1, 18420, Note_on_c, 1, 66, 127
1, 18420, Note_on_c, 1, 50, 127
1, 18540, Note_off_c, 1, 50, 0
1, 18540, Note_on_c, 1, 47, 127
1, 18660, Note_off_c, 1, 66, 0
1, 18660, Note_off_c, 1, 47, 0
1, 18720, Note_on_c, 1, 64, 127
1, 18779, Note_off_c, 1, 64, 0
1, 18780, Note_on_c, 1, 52, 127
1, 18780, Note_on_c, 1, 69, 127
1, 18780, Note_on_c, 1, 73, 127
1, 18780, Note_on_c, 1, 64, 127
1, 18840, Note_off_c, 1, 69, 0
1, 18840, Note_off_c, 1, 73, 0
1, 18840, Note_on_c, 1, 71, 127
1, 18840, Note_on_c, 1, 68, 127
1, 18900, Note_off_c, 1, 52, 0
1, 18900, Note_off_c, 1, 64, 0
1, 18900, Note_off_c, 1, 71, 0
1, 18900, Note_off_c, 1, 68, 0
1, 18900, Note_on_c, 1, 81, 127
1, 18900, Note_on_c, 1, 45, 127
1, 18959, Note_off_c, 1, 81, 0
1, 18959, Note_off_c, 1, 45, 0
1, 18960, Note_on_c, 1, 80, 127
1, 18960, Note_on_c, 1, 47, 127
1, 18989, Note_off_c, 1, 80, 0
1, 18990, Note_on_c, 1, 78, 127
1, 19019, Note_off_c, 1, 47, 0
1, 19019, Note_off_c, 1, 78, 0
1, 19020, Note_on_c, 1, 76, 127
1, 19020, Note_on_c, 1, 57, 127
1, 19020, Note_on_c, 1, 49, 127
1, 19049, Note_off_c, 1, 76, 0
1, 19050, Note_on_c, 1, 74, 127
1, 19079, Note_off_c, 1, 57, 0
1, 19079, Note_off_c, 1, 49, 0
1, 19079, Note_off_c, 1, 74, 0
1, 19080, Note_on_c, 1, 73, 127
1, 19080, Note_on_c, 1, 59, 127
1, 19080, Note_on_c, 1, 50, 127
1, 19109, Note_off_c, 1, 73, 0
1, 19110, Note_on_c, 1, 71, 127
1, 19139, Note_off_c, 1, 59, 0
1, 19139, Note_off_c, 1, 50, 0
1, 19139, Note_off_c, 1, 71, 0
1, 19140, Note_on_c, 1, 69, 127
1, 19140, Note_on_c, 1, 61, 127
1, 19140, Note_on_c, 1, 52, 127
1, 19169, Note_off_c, 1, 69, 0
1, 19170, Note_on_c, 1, 76, 127
1, 19199, Note_off_c, 1, 61, 0
1, 19199, Note_off_c, 1, 52, 0
1, 19199, Note_off_c, 1, 76, 0
1, 19200, Note_on_c, 1, 74, 127
1, 19200, Note_on_c, 1, 62, 127
1, 19200, Note_on_c, 1, 54, 127
1, 19229, Note_off_c, 1, 74, 0
1, 19230, Note_on_c, 1, 73, 127
1, 19259, Note_off_c, 1, 62, 0
1, 19259, Note_off_c, 1, 54, 0
1, 19259, Note_off_c, 1, 73, 0
1, 19260, Note_on_c, 1, 71, 127
1, 19260, Note_on_c, 1, 64, 127
1, 19260, Note_on_c, 1, 56, 127
1, 19289, Note_off_c, 1, 71, 0
1, 19290, Note_on_c, 1, 74, 127
1, 19319, Note_off_c, 1, 56, 0
1, 19319, Note_off_c, 1, 74, 0
1, 19320, Note_on_c, 1, 73, 127
1, 19320, Note_on_c, 1, 59, 127
1, 19349, Note_off_c, 1, 73, 0
1, 19379, Note_off_c, 1, 64, 0
1, 19379, Note_off_c, 1, 59, 0
1, 19380, Note_on_c, 1, 73, 127
1, 19380, Note_on_c, 1, 64, 127
1, 19380, Note_on_c, 1, 57, 127
1, 19409, Note_off_c, 1, 73, 0
1, 19410, Note_on_c, 1, 69, 127
1, 19439, Note_off_c, 1, 57, 0
1, 19439, Note_off_c, 1, 69, 0
1, 19440, Note_on_c, 1, 71, 127
1, 19440, Note_on_c, 1, 55, 127
1, 19469, Note_off_c, 1, 71, 0
1, 19499, Note_off_c, 1, 64, 0
1, 19499, Note_off_c, 1, 55, 0
1, 19500, Note_on_c, 1, 74, 127
1, 19500, Note_on_c, 1, 57, 127
1, 19500, Note_on_c, 1, 54, 127
1, 19529, Note_off_c, 1, 74, 0
1, 19530, Note_on_c, 1, 76, 127
1, 19559, Note_off_c, 1, 54, 0
1, 19559, Note_off_c, 1, 76, 0
1, 19560, Note_on_c, 1, 78, 127
1, 19560, Note_on_c, 1, 52, 127
1, 19589, Note_off_c, 1, 78, 0
1, 19590, Note_on_c, 1, 79, 127
1, 19619, Note_off_c, 1, 57, 0
1, 19619, Note_off_c, 1, 52, 0
1, 19619, Note_off_c, 1, 79, 0
1, 19620, Note_on_c, 1, 81, 127
1, 19620, Note_on_c, 1, 66, 127
1, 19620, Note_on_c, 1, 50, 127
1, 19649, Note_off_c, 1, 81, 0
1, 19650, Note_on_c, 1, 79, 127
1, 19679, Note_off_c, 1, 79, 0
1, 19680, Note_on_c, 1, 78, 127
1, 19680, Note_on_c, 1, 52, 127
1, 19709, Note_off_c, 1, 78, 0
1, 19710, Note_on_c, 1, 76, 127
1, 19739, Note_off_c, 1, 50, 0
1, 19739, Note_off_c, 1, 52, 0
1, 19739, Note_off_c, 1, 76, 0
1, 19740, Note_on_c, 1, 74, 127
1, 19740, Note_on_c, 1, 69, 127
1, 19740, Note_on_c, 1, 54, 127
1, 19769, Note_off_c, 1, 74, 0
1, 19770, Note_on_c, 1, 73, 127
1, 19799, Note_off_c, 1, 69, 0
1, 19799, Note_off_c, 1, 54, 0
1, 19799, Note_off_c, 1, 73, 0
1, 19800, Note_on_c, 1, 71, 127
1, 19800, Note_on_c, 1, 56, 127
1, 19859, Note_off_c, 1, 66, 0
1, 19859, Note_off_c, 1, 71, 0
1, 19859, Note_off_c, 1, 56, 0
1, 19860, Note_on_c, 1, 68, 127
1, 19860, Note_on_c, 1, 73, 127
1, 19860, Note_on_c, 1, 66, 127
1, 19860, Note_on_c, 1, 57, 127
1, 19889, Note_off_c, 1, 68, 0
1, 19919, Note_off_c, 1, 73, 0
1, 19920, Note_on_c, 1, 64, 127
1, 19920, Note_on_c, 1, 74, 127
1, 19920, Note_on_c, 1, 59, 127
1, 19949, Note_off_c, 1, 64, 0
1, 19950, Note_on_c, 1, 62, 127
1, 19979, Note_off_c, 1, 66, 0
1, 19979, Note_off_c, 1, 57, 0
1, 19979, Note_off_c, 1, 74, 0
1, 19979, Note_off_c, 1, 59, 0
1, 19979, Note_off_c, 1, 62, 0
1, 19980, Note_on_c, 1, 69, 127
1, 19980, Note_on_c, 1, 76, 127
1, 19980, Note_on_c, 1, 64, 127
1, 19980, Note_on_c, 1, 49, 127
1, 19980, Note_on_c, 1, 61, 127
1, 20009, Note_off_c, 1, 69, 0
1, 20039, Note_off_c, 1, 61, 0
1, 20040, Note_on_c, 1, 66, 127
1, 20040, Note_on_c, 1, 59, 127
1, 20069, Note_off_c, 1, 66, 0
1, 20070, Note_on_c, 1, 68, 127
1, 20099, Note_off_c, 1, 76, 0
1, 20099, Note_off_c, 1, 64, 0
1, 20099, Note_off_c, 1, 59, 0
1, 20099, Note_off_c, 1, 68, 0
1, 20130, Note_on_c, 1, 71, 127
1, 20159, Note_off_c, 1, 71, 0
1, 20160, Note_on_c, 1, 73, 127
1, 20160, Note_on_c, 1, 67, 127
1, 20160, Note_on_c, 1, 57, 127
1, 20189, Note_off_c, 1, 73, 0
1, 20190, Note_on_c, 1, 74, 127
1, 20219, Note_off_c, 1, 49, 0
1, 20219, Note_off_c, 1, 67, 0
1, 20219, Note_off_c, 1, 57, 0
1, 20219, Note_off_c, 1, 74, 0
1, 20220, Note_on_c, 1, 76, 127
1, 20220, Note_on_c, 1, 69, 127
1, 20220, Note_on_c, 1, 66, 127
1, 20220, Note_on_c, 1, 49, 127
1, 20220, Note_on_c, 1, 59, 127
1, 20279, Note_off_c, 1, 76, 0
1, 20279, Note_off_c, 1, 66, 0
1, 20279, Note_off_c, 1, 59, 0
1, 20280, Note_on_c, 1, 64, 127
1, 20280, Note_on_c, 1, 67, 127
1, 20280, Note_on_c, 1, 61, 127
1, 20339, Note_off_c, 1, 69, 0
1, 20339, Note_off_c, 1, 49, 0
1, 20339, Note_off_c, 1, 64, 0
1, 20339, Note_off_c, 1, 67, 0
1, 20339, Note_off_c, 1, 61, 0
1, 20340, Note_on_c, 1, 78, 127
1, 20340, Note_on_c, 1, 62, 127
1, 20340, Note_on_c, 1, 66, 127
1, 20340, Note_on_c, 1, 50, 127
1, 20370, Note_on_c, 1, 73, 127
1, 20399, Note_off_c, 1, 66, 0
1, 20399, Note_off_c, 1, 73, 0
1, 20400, Note_on_c, 1, 74, 127
1, 20400, Note_on_c, 1, 64, 127
1, 20400, Note_on_c, 1, 49, 127
1, 20429, Note_off_c, 1, 74, 0
1, 20430, Note_on_c, 1, 76, 127
1, 20459, Note_off_c, 1, 62, 0
1, 20459, Note_off_c, 1, 50, 0
1, 20459, Note_off_c, 1, 64, 0
1, 20459, Note_off_c, 1, 49, 0
1, 20459, Note_off_c, 1, 76, 0
1, 20520, Note_on_c, 1, 52, 127
1, 20550, Note_on_c, 1, 80, 127
1, 20579, Note_off_c, 1, 78, 0
1, 20579, Note_off_c, 1, 52, 0
1, 20579, Note_off_c, 1, 80, 0
1, 20580, Note_on_c, 1, 81, 127
1, 20580, Note_on_c, 1, 78, 127
1, 20580, Note_on_c, 1, 69, 127
1, 20580, Note_on_c, 1, 62, 127
1, 20580, Note_on_c, 1, 54, 127
1, 20609, Note_off_c, 1, 81, 0
1, 20610, Note_on_c, 1, 80, 127
1, 20639, Note_off_c, 1, 54, 0
1, 20639, Note_off_c, 1, 80, 0
1, 20640, Note_on_c, 1, 56, 127
1, 20670, Note_on_c, 1, 83, 127
1, 20699, Note_off_c, 1, 78, 0
1, 20699, Note_off_c, 1, 69, 0
1, 20699, Note_off_c, 1, 62, 0
1, 20699, Note_off_c, 1, 56, 0
1, 20699, Note_off_c, 1, 83, 0
1, 20700, Note_on_c, 1, 85, 127
1, 20700, Note_on_c, 1, 76, 127
1, 20700, Note_on_c, 1, 61, 127
1, 20700, Note_on_c, 1, 57, 127
1, 20729, Note_off_c, 1, 85, 0
1, 20730, Note_on_c, 1, 83, 127
1, 20759, Note_off_c, 1, 83, 0
1, 20760, Note_on_c, 1, 81, 127
1, 20789, Note_off_c, 1, 81, 0
1, 20790, Note_on_c, 1, 80, 127
1, 20819, Note_off_c, 1, 76, 0
1, 20819, Note_off_c, 1, 57, 0
1, 20819, Note_off_c, 1, 80, 0
1, 20820, Note_on_c, 1, 78, 127
1, 20849, Note_off_c, 1, 78, 0
1, 20880, Note_on_c, 1, 74, 127
1, 20880, Note_on_c, 1, 62, 127
1, 20909, Note_off_c, 1, 74, 0
1, 20910, Note_on_c, 1, 73, 127
1, 20939, Note_off_c, 1, 61, 0
1, 20939, Note_off_c, 1, 62, 0
1, 20939, Note_off_c, 1, 73, 0
1, 20940, Note_on_c, 1, 71, 127
1, 20940, Note_on_c, 1, 68, 127
1, 20940, Note_on_c, 1, 61, 127
1, 20940, Note_on_c, 1, 64, 127
1, 20940, Note_on_c, 1, 52, 127
1, 20969, Note_off_c, 1, 71, 0
1, 20970, Note_on_c, 1, 69, 127
1, 20999, Note_off_c, 1, 68, 0
1, 20999, Note_off_c, 1, 64, 0
1, 20999, Note_off_c, 1, 69, 0
1, 21000, Note_on_c, 1, 66, 127
1, 21059, Note_off_c, 1, 61, 0
1, 21059, Note_off_c, 1, 52, 0
1, 21059, Note_off_c, 1, 66, 0
1, 21060, Note_on_c, 1, 64, 127
1, 21060, Note_on_c, 1, 71, 127
1, 21060, Note_on_c, 1, 62, 127
1, 21060, Note_on_c, 1, 68, 127
1, 21060, Note_on_c, 1, 59, 127
1, 21089, Note_off_c, 1, 64, 0
1, 21119, Note_off_c, 1, 71, 0
1, 21120, Note_on_c, 1, 73, 127
1, 21150, Note_on_c, 1, 66, 127
1, 21179, Note_off_c, 1, 62, 0
1, 21179, Note_off_c, 1, 68, 0
1, 21179, Note_off_c, 1, 73, 0
1, 21179, Note_off_c, 1, 66, 0
1, 21180, Note_on_c, 1, 74, 127
1, 21270, Note_on_c, 1, 69, 127
1, 21299, Note_off_c, 1, 59, 0
1, 21299, Note_off_c, 1, 74, 0
1, 21299, Note_off_c, 1, 69, 0
1, 21300, Note_on_c, 1, 71, 127
1, 21300, Note_on_c, 1, 74, 127
1, 21300, Note_on_c, 1, 66, 127
1, 21300, Note_on_c, 1, 59, 127
1, 21329, Note_off_c, 1, 71, 0
1, 21330, Note_on_c, 1, 73, 127
1, 21359, Note_off_c, 1, 66, 0
1, 21359, Note_off_c, 1, 73, 0
1, 21360, Note_on_c, 1, 68, 127
1, 21419, Note_off_c, 1, 74, 0
1, 21419, Note_off_c, 1, 59, 0
1, 21419, Note_off_c, 1, 68, 0
1, 21420, Note_on_c, 1, 73, 127
1, 21420, Note_on_c, 1, 69, 127
1, 21420, Note_on_c, 1, 57, 127
1, 21449, Note_off_c, 1, 73, 0
1, 21450, Note_on_c, 1, 81, 127
1, 21479, Note_off_c, 1, 81, 0
1, 21480, Note_on_c, 1, 80, 127
1, 21480, Note_on_c, 1, 59, 127
1, 21509, Note_off_c, 1, 80, 0
1, 21510, Note_on_c, 1, 78, 127
1, 21539, Note_off_c, 1, 69, 0
1, 21539, Note_off_c, 1, 57, 0
1, 21539, Note_off_c, 1, 59, 0
1, 21539, Note_off_c, 1, 78, 0
1, 21540, Note_on_c, 1, 76, 127
1, 21540, Note_on_c, 1, 69, 127
1, 21540, Note_on_c, 1, 61, 127
1, 21569, Note_off_c, 1, 76, 0
1, 21570, Note_on_c, 1, 78, 127
1, 21599, Note_off_c, 1, 61, 0
1, 21599, Note_off_c, 1, 78, 0
1, 21600, Note_on_c, 1, 71, 127
1, 21600, Note_on_c, 1, 62, 127
1, 21600, Note_on_c, 1, 59, 127
1, 21630, Note_on_c, 1, 74, 127
1, 21659, Note_off_c, 1, 69, 0
1, 21659, Note_off_c, 1, 71, 0
1, 21659, Note_off_c, 1, 62, 0
1, 21659, Note_off_c, 1, 59, 0
1, 21659, Note_off_c, 1, 74, 0
1, 21660, Note_on_c, 1, 73, 127
1, 21660, Note_on_c, 1, 64, 127
1, 21660, Note_on_c, 1, 57, 127
1, 21719, Note_off_c, 1, 73, 0
1, 21719, Note_off_c, 1, 57, 0
1, 21720, Note_on_c, 1, 74, 127
1, 21720, Note_on_c, 1, 56, 127
1, 21779, Note_off_c, 1, 64, 0
1, 21779, Note_off_c, 1, 74, 0
1, 21779, Note_off_c, 1, 56, 0
1, 21780, Note_on_c, 1, 76, 127
1, 21780, Note_on_c, 1, 73, 127
1, 21780, Note_on_c, 1, 58, 127
1, 21780, Note_on_c, 1, 54, 127
1, 21810, Note_on_c, 1, 86, 127
1, 21839, Note_off_c, 1, 76, 0
1, 21839, Note_off_c, 1, 86, 0
1, 21840, Note_on_c, 1, 85, 127
1, 21840, Note_on_c, 1, 74, 127
1, 21840, Note_on_c, 1, 55, 127
1, 21869, Note_off_c, 1, 85, 0
1, 21870, Note_on_c, 1, 83, 127
1, 21899, Note_off_c, 1, 54, 0
1, 21899, Note_off_c, 1, 74, 0
1, 21899, Note_off_c, 1, 55, 0
1, 21899, Note_off_c, 1, 83, 0
1, 21900, Note_on_c, 1, 82, 127
1, 21929, Note_off_c, 1, 82, 0
1, 21959, Note_off_c, 1, 58, 0
1, 21960, Note_on_c, 1, 61, 127
1, 21960, Note_on_c, 1, 52, 127
1, 21990, Note_on_c, 1, 80, 127
1, 22019, Note_off_c, 1, 73, 0
1, 22019, Note_off_c, 1, 61, 0
1, 22019, Note_off_c, 1, 52, 0
1, 22019, Note_off_c, 1, 80, 0
1, 22020, Note_on_c, 1, 78, 127
1, 22020, Note_on_c, 1, 73, 127
1, 22020, Note_on_c, 1, 66, 127
1, 22020, Note_on_c, 1, 50, 127
1, 22079, Note_off_c, 1, 78, 0
1, 22079, Note_off_c, 1, 66, 0
1, 22079, Note_off_c, 1, 50, 0
1, 22080, Note_on_c, 1, 64, 127
1, 22080, Note_on_c, 1, 49, 127
1, 22139, Note_off_c, 1, 73, 0
1, 22139, Note_off_c, 1, 64, 0
1, 22139, Note_off_c, 1, 49, 0
1, 22140, Note_on_c, 1, 78, 127
1, 22140, Note_on_c, 1, 73, 127
1, 22140, Note_on_c, 1, 62, 127
1, 22140, Note_on_c, 1, 47, 127
1, 22170, Note_on_c, 1, 70, 127
1, 22199, Note_off_c, 1, 78, 0
1, 22199, Note_off_c, 1, 62, 0
1, 22199, Note_off_c, 1, 47, 0
1, 22199, Note_off_c, 1, 70, 0
1, 22200, Note_on_c, 1, 71, 127
1, 22200, Note_on_c, 1, 76, 127
1, 22200, Note_on_c, 1, 61, 127
1, 22200, Note_on_c, 1, 54, 127
1, 22229, Note_off_c, 1, 71, 0
1, 22259, Note_off_c, 1, 73, 0
1, 22259, Note_off_c, 1, 76, 0
1, 22259, Note_off_c, 1, 61, 0
1, 22259, Note_off_c, 1, 54, 0
1, 22260, Note_on_c, 1, 74, 127
1, 22260, Note_on_c, 1, 66, 127
1, 22260, Note_on_c, 1, 59, 127
1, 22290, Note_on_c, 1, 73, 127
1, 22319, Note_off_c, 1, 74, 0
1, 22319, Note_off_c, 1, 59, 0
1, 22319, Note_off_c, 1, 73, 0
1, 22320, Note_on_c, 1, 61, 127
1, 22320, Note_on_c, 1, 57, 127
1, 22350, Note_on_c, 1, 76, 127
1, 22379, Note_off_c, 1, 66, 0
1, 22379, Note_off_c, 1, 61, 0
1, 22379, Note_off_c, 1, 57, 0
1, 22379, Note_off_c, 1, 76, 0
1, 22380, Note_on_c, 1, 78, 127
1, 22380, Note_on_c, 1, 71, 127
1, 22380, Note_on_c, 1, 62, 127
1, 22380, Note_on_c, 1, 56, 127
1, 22409, Note_off_c, 1, 78, 0
1, 22410, Note_on_c, 1, 74, 127
1, 22439, Note_off_c, 1, 56, 0
1, 22439, Note_off_c, 1, 74, 0
1, 22440, Note_on_c, 1, 76, 127
1, 22440, Note_on_c, 1, 69, 127
1, 22440, Note_on_c, 1, 54, 127
1, 22469, Note_off_c, 1, 76, 0
1, 22499, Note_off_c, 1, 62, 0
1, 22499, Note_off_c, 1, 69, 0
1, 22499, Note_off_c, 1, 54, 0
1, 22500, Note_on_c, 1, 80, 127
1, 22500, Note_on_c, 1, 68, 127
1, 22500, Note_on_c, 1, 52, 127
1, 22529, Note_off_c, 1, 80, 0
1, 22530, Note_on_c, 1, 75, 127
1, 22559, Note_off_c, 1, 71, 0
1, 22559, Note_off_c, 1, 75, 0
1, 22619, Note_off_c, 1, 68, 0
1, 22619, Note_off_c, 1, 52, 0
1, 22620, Note_on_c, 1, 80, 127
1, 22620, Note_on_c, 1, 71, 127
1, 22620, Note_on_c, 1, 68, 127
1, 22620, Note_on_c, 1, 52, 127
1, 22649, Note_off_c, 1, 80, 0
1, 22650, Note_on_c, 1, 78, 127
1, 22679, Note_off_c, 1, 68, 0
1, 22679, Note_off_c, 1, 78, 0
1, 22680, Note_on_c, 1, 66, 127
1, 22680, Note_on_c, 1, 50, 127
1, 22710, Note_on_c, 1, 81, 127
1, 22739, Note_off_c, 1, 71, 0
1, 22739, Note_off_c, 1, 52, 0
1, 22739, Note_off_c, 1, 66, 0
1, 22739, Note_off_c, 1, 50, 0
1, 22739, Note_off_c, 1, 81, 0
1, 22740, Note_on_c, 1, 83, 127
1, 22740, Note_on_c, 1, 74, 127
1, 22740, Note_on_c, 1, 64, 127
1, 22740, Note_on_c, 1, 49, 127
1, 22769, Note_off_c, 1, 83, 0
1, 22770, Note_on_c, 1, 80, 127
1, 22799, Note_off_c, 1, 49, 0
1, 22799, Note_off_c, 1, 80, 0
1, 22800, Note_on_c, 1, 81, 127
1, 22800, Note_on_c, 1, 47, 127
1, 22829, Note_off_c, 1, 81, 0
1, 22859, Note_off_c, 1, 64, 0
1, 22859, Note_off_c, 1, 47, 0
1, 22860, Note_on_c, 1, 76, 127
1, 22860, Note_on_c, 1, 57, 127
1, 22860, Note_on_c, 1, 45, 127
1, 22889, Note_off_c, 1, 76, 0
1, 22919, Note_off_c, 1, 57, 0
1, 22919, Note_off_c, 1, 45, 0
1, 22920, Note_on_c, 1, 59, 127
1, 22920, Note_on_c, 1, 44, 127
1, 22950, Note_on_c, 1, 78, 127
1, 22979, Note_off_c, 1, 74, 0
1, 22979, Note_off_c, 1, 59, 0
1, 22979, Note_off_c, 1, 44, 0
1, 22979, Note_off_c, 1, 78, 0
1, 22980, Note_on_c, 1, 76, 127
1, 22980, Note_on_c, 1, 73, 127
1, 22980, Note_on_c, 1, 61, 127
1, 22980, Note_on_c, 1, 45, 127
1, 23009, Note_off_c, 1, 76, 0
1, 23010, Note_on_c, 1, 81, 127
1, 23039, Note_off_c, 1, 73, 0
1, 23039, Note_off_c, 1, 61, 0
1, 23039, Note_off_c, 1, 45, 0
1, 23039, Note_off_c, 1, 81, 0
1, 23040, Note_on_c, 1, 80, 127
1, 23040, Note_on_c, 1, 71, 127
1, 23040, Note_on_c, 1, 62, 127
1, 23040, Note_on_c, 1, 47, 127
1, 23069, Note_off_c, 1, 80, 0
1, 23070, Note_on_c, 1, 81, 127
1, 23099, Note_off_c, 1, 71, 0
1, 23099, Note_off_c, 1, 62, 0
1, 23099, Note_off_c, 1, 47, 0
1, 23099, Note_off_c, 1, 81, 0
1, 23100, Note_on_c, 1, 73, 127
1, 23100, Note_on_c, 1, 69, 127
1, 23100, Note_on_c, 1, 64, 127
1, 23100, Note_on_c, 1, 49, 127
1, 23129, Note_off_c, 1, 73, 0
1, 23130, Note_on_c, 1, 81, 127
1, 23159, Note_off_c, 1, 64, 0
1, 23159, Note_off_c, 1, 49, 0
1, 23159, Note_off_c, 1, 81, 0
1, 23160, Note_on_c, 1, 80, 127
1, 23160, Note_on_c, 1, 66, 127
1, 23160, Note_on_c, 1, 62, 127
1, 23160, Note_on_c, 1, 50, 127
1, 23189, Note_off_c, 1, 80, 0
1, 23219, Note_off_c, 1, 69, 0
1, 23219, Note_off_c, 1, 66, 0
1, 23219, Note_off_c, 1, 62, 0
1, 23219, Note_off_c, 1, 50, 0
1, 23220, Note_on_c, 1, 71, 127
1, 23220, Note_on_c, 1, 68, 127
1, 23220, Note_on_c, 1, 61, 127
1, 23220, Note_on_c, 1, 52, 127
1, 23249, Note_off_c, 1, 71, 0
1, 23250, Note_on_c, 1, 69, 127
1, 23279, Note_off_c, 1, 68, 0
1, 23279, Note_off_c, 1, 61, 0
1, 23279, Note_off_c, 1, 69, 0
1, 23280, Note_on_c, 1, 59, 127
1, 23280, Note_on_c, 1, 50, 127
1, 23310, Note_on_c, 1, 73, 127
1, 23339, Note_off_c, 1, 52, 0
1, 23339, Note_off_c, 1, 59, 0
1, 23339, Note_off_c, 1, 50, 0
1, 23339, Note_off_c, 1, 73, 0
1, 23340, Note_on_c, 1, 69, 127
1, 23340, Note_on_c, 1, 64, 127
1, 23340, Note_on_c, 1, 52, 127
1, 23340, Note_on_c, 1, 49, 127
1, 23370, Note_on_c, 1, 76, 127
1, 23399, Note_off_c, 1, 69, 0
1, 23399, Note_off_c, 1, 49, 0
1, 23399, Note_off_c, 1, 76, 0
1, 23400, Note_on_c, 1, 74, 127
1, 23400, Note_on_c, 1, 71, 127
1, 23400, Note_on_c, 1, 68, 127
1, 23400, Note_on_c, 1, 47, 127
1, 23429, Note_off_c, 1, 74, 0
1, 23459, Note_off_c, 1, 52, 0
1, 23459, Note_off_c, 1, 71, 0
1, 23459, Note_off_c, 1, 68, 0
1, 23459, Note_off_c, 1, 47, 0
1, 23460, Note_on_c, 1, 73, 127
1, 23460, Note_on_c, 1, 45, 127
1, 23519, Note_off_c, 1, 73, 0
1, 23520, Note_on_c, 1, 44, 127
1, 23579, Note_off_c, 1, 64, 0
1, 23579, Note_off_c, 1, 45, 0
1, 23579, Note_off_c, 1, 44, 0
1, 23580, Note_on_c, 1, 69, 127
1, 23580, Note_on_c, 1, 73, 127
1, 23580, Note_on_c, 1, 54, 127
1, 23580, Note_on_c, 1, 42, 127
1, 23610, Note_on_c, 1, 68, 127
1, 23639, Note_off_c, 1, 73, 0
1, 23639, Note_off_c, 1, 42, 0
1, 23639, Note_off_c, 1, 68, 0
1, 23640, Note_on_c, 1, 75, 127
1, 23640, Note_on_c, 1, 63, 127
1, 23640, Note_on_c, 1, 40, 127
1, 23670, Note_on_c, 1, 71, 127
1, 23699, Note_off_c, 1, 69, 0
1, 23699, Note_off_c, 1, 75, 0
1, 23699, Note_off_c, 1, 63, 0
1, 23699, Note_off_c, 1, 40, 0
1, 23699, Note_off_c, 1, 71, 0
1, 23700, Note_on_c, 1, 76, 127
1, 23700, Note_on_c, 1, 61, 127
1, 23730, Note_on_c, 1, 78, 127
1, 23759, Note_off_c, 1, 61, 0
1, 23759, Note_off_c, 1, 78, 0
1, 23760, Note_on_c, 1, 59, 127
1, 23819, Note_off_c, 1, 54, 0
1, 23819, Note_off_c, 1, 76, 0
1, 23819, Note_off_c, 1, 59, 0
1, 23820, Note_on_c, 1, 75, 127
1, 23820, Note_on_c, 1, 69, 127
1, 23820, Note_on_c, 1, 57, 127
1, 23820, Note_on_c, 1, 54, 127
1, 23880, Note_on_c, 1, 68, 127
1, 23909, Note_off_c, 1, 75, 0
1, 23909, Note_off_c, 1, 68, 0
1, 23910, Note_on_c, 1, 66, 127
1, 23910, Note_on_c, 1, 76, 127
1, 23939, Note_off_c, 1, 69, 0
1, 23939, Note_off_c, 1, 57, 0
1, 23939, Note_off_c, 1, 54, 0
1, 23939, Note_off_c, 1, 66, 0
1, 23939, Note_off_c, 1, 76, 0
1, 23940, Note_on_c, 1, 68, 127
1, 23940, Note_on_c, 1, 76, 127
1, 23940, Note_on_c, 1, 59, 127
1, 23940, Note_on_c, 1, 52, 127
1, 23970, Note_on_c, 1, 71, 127
1, 23999, Note_off_c, 1, 71, 0
1, 24000, Note_on_c, 1, 54, 127
1, 24030, Note_on_c, 1, 78, 127
1, 24059, Note_off_c, 1, 76, 0
1, 24059, Note_off_c, 1, 59, 0
1, 24059, Note_off_c, 1, 54, 0
1, 24059, Note_off_c, 1, 78, 0
1, 24060, Note_on_c, 1, 80, 127
1, 24060, Note_on_c, 1, 56, 127
1, 24089, Note_off_c, 1, 80, 0
1, 24090, Note_on_c, 1, 81, 127
1, 24119, Note_off_c, 1, 68, 0
1, 24119, Note_off_c, 1, 81, 0
1, 24120, Note_on_c, 1, 83, 127
1, 24120, Note_on_c, 1, 66, 127
1, 24120, Note_on_c, 1, 50, 127
1, 24149, Note_off_c, 1, 83, 0
1, 24179, Note_off_c, 1, 52, 0
1, 24179, Note_off_c, 1, 56, 0
1, 24179, Note_off_c, 1, 66, 0
1, 24179, Note_off_c, 1, 50, 0
1, 24180, Note_on_c, 1, 76, 127
1, 24180, Note_on_c, 1, 68, 127
1, 24180, Note_on_c, 1, 61, 127
1, 24180, Note_on_c, 1, 49, 127
1, 24210, Note_on_c, 1, 78, 127
1, 24239, Note_off_c, 1, 68, 0
1, 24239, Note_off_c, 1, 78, 0
1, 24240, Note_on_c, 1, 80, 127
1, 24240, Note_on_c, 1, 64, 127
1, 24240, Note_on_c, 1, 47, 127
1, 24269, Note_off_c, 1, 80, 0
1, 24299, Note_off_c, 1, 49, 0
1, 24299, Note_off_c, 1, 64, 0
1, 24299, Note_off_c, 1, 47, 0
1, 24300, Note_on_c, 1, 73, 127
1, 24300, Note_on_c, 1, 66, 127
1, 24300, Note_on_c, 1, 58, 127
1, 24300, Note_on_c, 1, 46, 127
1, 24329, Note_off_c, 1, 73, 0
1, 24359, Note_off_c, 1, 76, 0
1, 24359, Note_off_c, 1, 61, 0
1, 24359, Note_off_c, 1, 46, 0
1, 24360, Note_on_c, 1, 79, 127
1, 24360, Note_on_c, 1, 74, 127
1, 24360, Note_on_c, 1, 59, 127
1, 24389, Note_off_c, 1, 79, 0
1, 24419, Note_off_c, 1, 66, 0
1, 24419, Note_off_c, 1, 74, 0
1, 24419, Note_off_c, 1, 59, 0
1, 24479, Note_off_c, 1, 58, 0
1, 24510, Note_on_c, 1, 71, 127
1, 24539, Note_off_c, 1, 71, 0
1, 24540, Note_on_c, 1, 70, 127
1, 24540, Note_on_c, 1, 54, 127
1, 24540, Note_on_c, 1, 42, 127
1, 24569, Note_off_c, 1, 70, 0
1, 24599, Note_off_c, 1, 54, 0
1, 24599, Note_off_c, 1, 42, 0
1, 24660, Note_on_c, 1, 66, 127
1, 24660, Note_on_c, 1, 74, 127
1, 24660, Note_on_c, 1, 61, 127
1, 24660, Note_on_c, 1, 59, 127
1, 24660, Note_on_c, 1, 47, 127
1, 24690, Note_on_c, 1, 70, 127
1, 24719, Note_off_c, 1, 61, 0
1, 24719, Note_off_c, 1, 59, 0
1, 24719, Note_off_c, 1, 47, 0
1, 24719, Note_off_c, 1, 70, 0
1, 24720, Note_on_c, 1, 71, 127
1, 24720, Note_on_c, 1, 58, 127
1, 24720, Note_on_c, 1, 54, 127
1, 24749, Note_off_c, 1, 71, 0
1, 24750, Note_on_c, 1, 73, 127
1, 24779, Note_off_c, 1, 66, 0
1, 24779, Note_off_c, 1, 74, 0
1, 24779, Note_off_c, 1, 58, 0
1, 24779, Note_off_c, 1, 54, 0
1, 24779, Note_off_c, 1, 73, 0
1, 24780, Note_on_c, 1, 74, 127
1, 24780, Note_on_c, 1, 66, 127
1, 24780, Note_on_c, 1, 59, 127
1, 24810, Note_on_c, 1, 76, 127
1, 24839, Note_off_c, 1, 74, 0
1, 24839, Note_off_c, 1, 76, 0
1, 24840, Note_on_c, 1, 78, 127
1, 24840, Note_on_c, 1, 73, 127
1, 24840, Note_on_c, 1, 57, 127
1, 24869, Note_off_c, 1, 78, 0
1, 24899, Note_off_c, 1, 66, 0
1, 24899, Note_off_c, 1, 59, 0
1, 24899, Note_off_c, 1, 73, 0
1, 24899, Note_off_c, 1, 57, 0
1, 24900, Note_on_c, 1, 71, 127
1, 24900, Note_on_c, 1, 74, 127
1, 24900, Note_on_c, 1, 65, 127
1, 24900, Note_on_c, 1, 56, 127
1, 24930, Note_on_c, 1, 73, 127
1, 24959, Note_off_c, 1, 74, 0
1, 24959, Note_off_c, 1, 65, 0
1, 24959, Note_off_c, 1, 56, 0
1, 24959, Note_off_c, 1, 73, 0
1, 24960, Note_on_c, 1, 66, 127
1, 24960, Note_on_c, 1, 54, 127
1, 25019, Note_off_c, 1, 66, 0
1, 25019, Note_off_c, 1, 54, 0
1, 25020, Note_on_c, 1, 68, 127
1, 25020, Note_on_c, 1, 53, 127
1, 25079, Note_off_c, 1, 71, 0
1, 25079, Note_off_c, 1, 53, 0
1, 25080, Note_on_c, 1, 69, 127
1, 25139, Note_off_c, 1, 68, 0
1, 25139, Note_off_c, 1, 69, 0
1, 25140, Note_on_c, 1, 71, 127
1, 25140, Note_on_c, 1, 77, 127
1, 25140, Note_on_c, 1, 61, 127
1, 25140, Note_on_c, 1, 56, 127
1, 25170, Note_on_c, 1, 69, 127
1, 25199, Note_off_c, 1, 56, 0
1, 25199, Note_off_c, 1, 69, 0
1, 25200, Note_on_c, 1, 68, 127
1, 25200, Note_on_c, 1, 52, 127
1, 25200, Note_on_c, 1, 53, 127
1, 25229, Note_off_c, 1, 68, 0
1, 25230, Note_on_c, 1, 66, 127
1, 25259, Note_off_c, 1, 77, 0
1, 25259, Note_off_c, 1, 61, 0
1, 25259, Note_off_c, 1, 52, 0
1, 25259, Note_off_c, 1, 53, 0
1, 25259, Note_off_c, 1, 66, 0
1, 25260, Note_on_c, 1, 65, 127
1, 25260, Note_on_c, 1, 80, 127
1, 25260, Note_on_c, 1, 49, 127
1, 25289, Note_off_c, 1, 65, 0
1, 25319, Note_off_c, 1, 71, 0
1, 25319, Note_off_c, 1, 49, 0
1, 25320, Note_on_c, 1, 73, 127
1, 25379, Note_off_c, 1, 73, 0
1, 25380, Note_on_c, 1, 54, 127
1, 25410, Note_on_c, 1, 86, 127
1, 25439, Note_off_c, 1, 80, 0
1, 25439, Note_off_c, 1, 86, 0
1, 25440, Note_on_c, 1, 85, 127
1, 25469, Note_off_c, 1, 85, 0
1, 25470, Note_on_c, 1, 83, 127
1, 25499, Note_off_c, 1, 54, 0
1, 25499, Note_off_c, 1, 83, 0
1, 25500, Note_on_c, 1, 81, 127
1, 25500, Note_on_c, 1, 78, 127
1, 25500, Note_on_c, 1, 69, 127
1, 25500, Note_on_c, 1, 61, 127
1, 25500, Note_on_c, 1, 54, 127
1, 25529, Note_off_c, 1, 81, 0
1, 25530, Note_on_c, 1, 83, 127
1, 25559, Note_off_c, 1, 69, 0
1, 25559, Note_off_c, 1, 54, 0
1, 25559, Note_off_c, 1, 83, 0
1, 25560, Note_on_c, 1, 85, 127
1, 25560, Note_on_c, 1, 68, 127
1, 25560, Note_on_c, 1, 52, 127
1, 25589, Note_off_c, 1, 85, 0
1, 25619, Note_off_c, 1, 78, 0
1, 25619, Note_off_c, 1, 61, 0
1, 25619, Note_off_c, 1, 68, 0
1, 25619, Note_off_c, 1, 52, 0
1, 25620, Note_on_c, 1, 78, 127
1, 25620, Note_on_c, 1, 72, 127
1, 25620, Note_on_c, 1, 69, 127
1, 25620, Note_on_c, 1, 66, 127
1, 25620, Note_on_c, 1, 51, 127
1, 25649, Note_off_c, 1, 78, 0
1, 25650, Note_on_c, 1, 80, 127
1, 25679, Note_off_c, 1, 72, 0
1, 25679, Note_off_c, 1, 69, 0
1, 25679, Note_off_c, 1, 51, 0
1, 25679, Note_off_c, 1, 80, 0
1, 25680, Note_on_c, 1, 81, 127
1, 25680, Note_on_c, 1, 73, 127
1, 25680, Note_on_c, 1, 49, 127
1, 25709, Note_off_c, 1, 81, 0
1, 25739, Note_off_c, 1, 73, 0
1, 25739, Note_off_c, 1, 49, 0
1, 25740, Note_on_c, 1, 75, 127
1, 25740, Note_on_c, 1, 68, 127
1, 25740, Note_on_c, 1, 48, 127
1, 25799, Note_off_c, 1, 66, 0
1, 25799, Note_off_c, 1, 48, 0
1, 25800, Note_on_c, 1, 64, 127
1, 25859, Note_off_c, 1, 75, 0
1, 25859, Note_off_c, 1, 68, 0
1, 25859, Note_off_c, 1, 64, 0
1, 25860, Note_on_c, 1, 78, 127
1, 25860, Note_on_c, 1, 68, 127
1, 25860, Note_on_c, 1, 72, 127
1, 25860, Note_on_c, 1, 66, 127
1, 25860, Note_on_c, 1, 51, 127
1, 25889, Note_off_c, 1, 78, 0
1, 25890, Note_on_c, 1, 76, 127
1, 25919, Note_off_c, 1, 51, 0
1, 25919, Note_off_c, 1, 76, 0
1, 25920, Note_on_c, 1, 75, 127
1, 25920, Note_on_c, 1, 48, 127
1, 25949, Note_off_c, 1, 75, 0
1, 25950, Note_on_c, 1, 73, 127
1, 25979, Note_off_c, 1, 68, 0
1, 25979, Note_off_c, 1, 72, 0
1, 25979, Note_off_c, 1, 48, 0
1, 25979, Note_off_c, 1, 73, 0
1, 25980, Note_on_c, 1, 44, 127
1, 26039, Note_off_c, 1, 66, 0
1, 26039, Note_off_c, 1, 44, 0
1, 26070, Note_on_c, 1, 69, 127
1, 26099, Note_off_c, 1, 69, 0
1, 26100, Note_on_c, 1, 49, 127
1, 26159, Note_off_c, 1, 49, 0
1, 26220, Note_on_c, 1, 73, 127
1, 26220, Note_on_c, 1, 76, 127
1, 26220, Note_on_c, 1, 56, 127
1, 26220, Note_on_c, 1, 52, 127
1, 26250, Note_on_c, 1, 81, 127
1, 26279, Note_off_c, 1, 76, 0
1, 26279, Note_off_c, 1, 81, 0
1, 26280, Note_on_c, 1, 80, 127
1, 26280, Note_on_c, 1, 75, 127
1, 26280, Note_on_c, 1, 54, 127
1, 26309, Note_off_c, 1, 80, 0
1, 26310, Note_on_c, 1, 78, 127
1, 26339, Note_off_c, 1, 73, 0
1, 26339, Note_off_c, 1, 56, 0
1, 26339, Note_off_c, 1, 52, 0
1, 26339, Note_off_c, 1, 75, 0
1, 26339, Note_off_c, 1, 54, 0
1, 26339, Note_off_c, 1, 78, 0
1, 26340, Note_on_c, 1, 76, 127
1, 26340, Note_on_c, 1, 73, 127
1, 26340, Note_on_c, 1, 57, 127
1, 26340, Note_on_c, 1, 56, 127
1, 26370, Note_on_c, 1, 80, 127
1, 26399, Note_off_c, 1, 76, 0
1, 26399, Note_off_c, 1, 56, 0
1, 26399, Note_off_c, 1, 80, 0
1, 26400, Note_on_c, 1, 78, 127
1, 26400, Note_on_c, 1, 54, 127
1, 26459, Note_off_c, 1, 78, 0
1, 26459, Note_off_c, 1, 54, 0
1, 26460, Note_on_c, 1, 75, 127
1, 26460, Note_on_c, 1, 66, 127
1, 26460, Note_on_c, 1, 59, 127
1, 26460, Note_on_c, 1, 47, 127
1, 26489, Note_off_c, 1, 73, 0
1, 26519, Note_off_c, 1, 66, 0
1, 26519, Note_off_c, 1, 47, 0
1, 26520, Note_on_c, 1, 49, 127
1, 26579, Note_off_c, 1, 57, 0
1, 26579, Note_off_c, 1, 59, 0
1, 26579, Note_off_c, 1, 49, 0
1, 26580, Note_on_c, 1, 71, 127
1, 26580, Note_on_c, 1, 51, 127
1, 26639, Note_off_c, 1, 75, 0
1, 26640, Note_on_c, 1, 52, 127
1, 26699, Note_off_c, 1, 71, 0
1, 26699, Note_off_c, 1, 51, 0
1, 26699, Note_off_c, 1, 52, 0
1, 26700, Note_on_c, 1, 75, 127
1, 26700, Note_on_c, 1, 56, 127
1, 26700, Note_on_c, 1, 54, 127
1, 26730, Note_on_c, 1, 78, 127
1, 26759, Note_off_c, 1, 75, 0
1, 26759, Note_off_c, 1, 54, 0
1, 26759, Note_off_c, 1, 78, 0
1, 26760, Note_on_c, 1, 71, 127
1, 26760, Note_on_c, 1, 76, 127
1, 26760, Note_on_c, 1, 68, 127
1, 26760, Note_on_c, 1, 59, 127
1, 26819, Note_off_c, 1, 76, 0
1, 26819, Note_off_c, 1, 68, 0
1, 26819, Note_off_c, 1, 59, 0
1, 26820, Note_on_c, 1, 73, 127
1, 26820, Note_on_c, 1, 64, 127
1, 26820, Note_on_c, 1, 45, 127
1, 26849, Note_off_c, 1, 71, 0
1, 26879, Note_off_c, 1, 56, 0
1, 26879, Note_off_c, 1, 45, 0
1, 26880, Note_on_c, 1, 57, 127
1, 26939, Note_off_c, 1, 73, 0
1, 26939, Note_off_c, 1, 64, 0
1, 26939, Note_off_c, 1, 57, 0
1, 26940, Note_on_c, 1, 81, 127
1, 26940, Note_on_c, 1, 75, 127
1, 26940, Note_on_c, 1, 72, 127
1, 26940, Note_on_c, 1, 56, 127
1, 26969, Note_off_c, 1, 81, 0
1, 26970, Note_on_c, 1, 83, 127
1, 26999, Note_off_c, 1, 75, 0
1, 26999, Note_off_c, 1, 72, 0
1, 26999, Note_off_c, 1, 56, 0
1, 26999, Note_off_c, 1, 83, 0
1, 27000, Note_on_c, 1, 81, 127
1, 27000, Note_on_c, 1, 76, 127
1, 27000, Note_on_c, 1, 73, 127
1, 27000, Note_on_c, 1, 61, 127
1, 27000, Note_on_c, 1, 54, 127
1, 27029, Note_off_c, 1, 81, 0
1, 27030, Note_on_c, 1, 80, 127
1, 27059, Note_off_c, 1, 76, 0
1, 27059, Note_off_c, 1, 73, 0
1, 27059, Note_off_c, 1, 61, 0
1, 27059, Note_off_c, 1, 54, 0
1, 27059, Note_off_c, 1, 80, 0
1, 27060, Note_on_c, 1, 78, 127
1, 27060, Note_on_c, 1, 75, 127
1, 27060, Note_on_c, 1, 69, 127
1, 27060, Note_on_c, 1, 52, 127
1, 27090, Note_on_c, 1, 80, 127
1, 27119, Note_off_c, 1, 69, 0
1, 27119, Note_off_c, 1, 52, 0
1, 27119, Note_off_c, 1, 80, 0
1, 27120, Note_on_c, 1, 61, 127
1, 27120, Note_on_c, 1, 51, 127
1, 27150, Note_on_c, 1, 76, 127
1, 27179, Note_off_c, 1, 75, 0
1, 27179, Note_off_c, 1, 61, 0
1, 27179, Note_off_c, 1, 51, 0
1, 27179, Note_off_c, 1, 76, 0
1, 27180, Note_on_c, 1, 63, 127
1, 27180, Note_on_c, 1, 58, 127
1, 27180, Note_on_c, 1, 56, 127
1, 27180, Note_on_c, 1, 44, 127
1, 27210, Note_on_c, 1, 68, 127
1, 27239, Note_off_c, 1, 78, 0
1, 27239, Note_off_c, 1, 58, 0
1, 27239, Note_off_c, 1, 56, 0
1, 27239, Note_off_c, 1, 44, 0
1, 27239, Note_off_c, 1, 68, 0
1, 27240, Note_on_c, 1, 72, 127
1, 27269, Note_off_c, 1, 72, 0
1, 27270, Note_on_c, 1, 73, 127
1, 27299, Note_off_c, 1, 63, 0
1, 27299, Note_off_c, 1, 73, 0
1, 27300, Note_on_c, 1, 80, 127
1, 27300, Note_on_c, 1, 75, 127
1, 27300, Note_on_c, 1, 56, 127
1, 27300, Note_on_c, 1, 54, 127
1, 27329, Note_off_c, 1, 80, 0
1, 27330, Note_on_c, 1, 81, 127
1, 27359, Note_off_c, 1, 75, 0
1, 27359, Note_off_c, 1, 56, 0
1, 27359, Note_off_c, 1, 54, 0
1, 27359, Note_off_c, 1, 81, 0
1, 27360, Note_on_c, 1, 80, 127
1, 27360, Note_on_c, 1, 68, 127
1, 27360, Note_on_c, 1, 72, 127
1, 27360, Note_on_c, 1, 56, 127
1, 27360, Note_on_c, 1, 52, 127
1, 27389, Note_off_c, 1, 80, 0
1, 27390, Note_on_c, 1, 78, 127
1, 27419, Note_off_c, 1, 68, 0
1, 27419, Note_off_c, 1, 72, 0
1, 27419, Note_off_c, 1, 56, 0
1, 27419, Note_off_c, 1, 52, 0
1, 27419, Note_off_c, 1, 78, 0
1, 27420, Note_on_c, 1, 76, 127
1, 27420, Note_on_c, 1, 73, 127
1, 27420, Note_on_c, 1, 68, 127
1, 27420, Note_on_c, 1, 51, 127
1, 27450, Note_on_c, 1, 78, 127
1, 27479, Note_off_c, 1, 73, 0
1, 27479, Note_off_c, 1, 51, 0
1, 27479, Note_off_c, 1, 78, 0
1, 27480, Note_on_c, 1, 49, 127
1, 27510, Note_on_c, 1, 74, 127
1, 27539, Note_off_c, 1, 68, 0
1, 27539, Note_off_c, 1, 49, 0
1, 27539, Note_off_c, 1, 74, 0
1, 27540, Note_on_c, 1, 69, 127
1, 27540, Note_on_c, 1, 66, 127
1, 27540, Note_on_c, 1, 54, 127
1, 27599, Note_off_c, 1, 66, 0
1, 27599, Note_off_c, 1, 54, 0
1, 27600, Note_on_c, 1, 42, 127
1, 27630, Note_on_c, 1, 80, 127
1, 27659, Note_off_c, 1, 76, 0
1, 27659, Note_off_c, 1, 69, 0
1, 27659, Note_off_c, 1, 42, 0
1, 27659, Note_off_c, 1, 80, 0
1, 27660, Note_on_c, 1, 81, 127
1, 27660, Note_on_c, 1, 75, 127
1, 27660, Note_on_c, 1, 69, 127
1, 27660, Note_on_c, 1, 54, 127
1, 27689, Note_off_c, 1, 81, 0
1, 27690, Note_on_c, 1, 83, 127
1, 27719, Note_off_c, 1, 75, 0
1, 27719, Note_off_c, 1, 69, 0
1, 27719, Note_off_c, 1, 54, 0
1, 27719, Note_off_c, 1, 83, 0
1, 27720, Note_on_c, 1, 85, 127
1, 27720, Note_on_c, 1, 73, 127
1, 27720, Note_on_c, 1, 68, 127
1, 27720, Note_on_c, 1, 61, 127
1, 27720, Note_on_c, 1, 52, 127
1, 27749, Note_off_c, 1, 85, 0
1, 27750, Note_on_c, 1, 83, 127
1, 27779, Note_off_c, 1, 73, 0
1, 27779, Note_off_c, 1, 68, 0
1, 27779, Note_off_c, 1, 61, 0
1, 27779, Note_off_c, 1, 52, 0
1, 27779, Note_off_c, 1, 83, 0
1, 27780, Note_on_c, 1, 81, 127
1, 27780, Note_on_c, 1, 75, 127
1, 27780, Note_on_c, 1, 69, 127
1, 27780, Note_on_c, 1, 66, 127
1, 27780, Note_on_c, 1, 54, 127
1, 27809, Note_off_c, 1, 81, 0
1, 27810, Note_on_c, 1, 85, 127
1, 27839, Note_off_c, 1, 75, 0
1, 27839, Note_off_c, 1, 66, 0
1, 27839, Note_off_c, 1, 85, 0
1, 27840, Note_on_c, 1, 78, 127
1, 27840, Note_on_c, 1, 64, 127
1, 27899, Note_off_c, 1, 69, 0
1, 27899, Note_off_c, 1, 78, 0
1, 27899, Note_off_c, 1, 64, 0
1, 27900, Note_on_c, 1, 87, 127
1, 27900, Note_on_c, 1, 72, 127
1, 27900, Note_on_c, 1, 68, 127
1, 27900, Note_on_c, 1, 63, 127
1, 27929, Note_off_c, 1, 87, 0
1, 27959, Note_off_c, 1, 54, 0
1, 27959, Note_off_c, 1, 68, 0
1, 27960, Note_on_c, 1, 84, 127
1, 27960, Note_on_c, 1, 51, 127
1, 27989, Note_off_c, 1, 84, 0
1, 27990, Note_on_c, 1, 82, 127
1, 28019, Note_off_c, 1, 72, 0
1, 28019, Note_off_c, 1, 63, 0
1, 28019, Note_off_c, 1, 51, 0
1, 28019, Note_off_c, 1, 82, 0
1, 28020, Note_on_c, 1, 80, 127
1, 28020, Note_on_c, 1, 68, 127
1, 28020, Note_on_c, 1, 52, 127
1, 28049, Note_off_c, 1, 80, 0
1, 28050, Note_on_c, 1, 73, 127
1, 28079, Note_off_c, 1, 68, 0
1, 28079, Note_off_c, 1, 52, 0
1, 28079, Note_off_c, 1, 73, 0
1, 28080, Note_on_c, 1, 76, 127
1, 28080, Note_on_c, 1, 80, 127
1, 28080, Note_on_c, 1, 64, 127
1, 28080, Note_on_c, 1, 56, 127
1, 28080, Note_on_c, 1, 49, 127
1, 28109, Note_off_c, 1, 76, 0
1, 28139, Note_off_c, 1, 80, 0
1, 28139, Note_off_c, 1, 64, 0
1, 28139, Note_off_c, 1, 56, 0
1, 28139, Note_off_c, 1, 49, 0
1, 28140, Note_on_c, 1, 85, 127
1, 28140, Note_on_c, 1, 73, 127
1, 28140, Note_on_c, 1, 64, 127
1, 28140, Note_on_c, 1, 57, 127
1, 28169, Note_off_c, 1, 85, 0
1, 28170, Note_on_c, 1, 83, 127
1, 28199, Note_off_c, 1, 57, 0
1, 28199, Note_off_c, 1, 83, 0
1, 28200, Note_on_c, 1, 81, 127
1, 28200, Note_on_c, 1, 59, 127
1, 28200, Note_on_c, 1, 56, 127
1, 28229, Note_off_c, 1, 81, 0
1, 28230, Note_on_c, 1, 80, 127
1, 28259, Note_off_c, 1, 73, 0
1, 28259, Note_off_c, 1, 64, 0
1, 28259, Note_off_c, 1, 59, 0
1, 28259, Note_off_c, 1, 56, 0
1, 28259, Note_off_c, 1, 80, 0
1, 28260, Note_on_c, 1, 78, 127
1, 28260, Note_on_c, 1, 69, 127
1, 28260, Note_on_c, 1, 61, 127
1, 28260, Note_on_c, 1, 57, 127
1, 28290, Note_on_c, 1, 80, 127
1, 28319, Note_off_c, 1, 78, 0
1, 28319, Note_off_c, 1, 69, 0
1, 28319, Note_off_c, 1, 61, 0
1, 28319, Note_off_c, 1, 57, 0
1, 28319, Note_off_c, 1, 80, 0
1, 28320, Note_on_c, 1, 81, 127
1, 28320, Note_on_c, 1, 75, 127
1, 28320, Note_on_c, 1, 69, 127
1, 28320, Note_on_c, 1, 61, 127
1, 28320, Note_on_c, 1, 54, 127
1, 28349, Note_off_c, 1, 61, 0
1, 28350, Note_on_c, 1, 60, 127
1, 28379, Note_off_c, 1, 81, 0
1, 28379, Note_off_c, 1, 75, 0
1, 28379, Note_off_c, 1, 69, 0
1, 28379, Note_off_c, 1, 54, 0
1, 28379, Note_off_c, 1, 60, 0
1, 28380, Note_on_c, 1, 76, 127
1, 28380, Note_on_c, 1, 68, 127
1, 28380, Note_on_c, 1, 61, 127
1, 28380, Note_on_c, 1, 56, 127
1, 28410, Note_on_c, 1, 80, 127
1, 28439, Note_off_c, 1, 61, 0
1, 28439, Note_off_c, 1, 80, 0
1, 28440, Note_on_c, 1, 78, 127
1, 28440, Note_on_c, 1, 63, 127
1, 28469, Note_off_c, 1, 78, 0
1, 28499, Note_off_c, 1, 76, 0
1, 28499, Note_off_c, 1, 63, 0
1, 28500, Note_on_c, 1, 75, 127
1, 28500, Note_on_c, 1, 60, 127
1, 28500, Note_on_c, 1, 44, 127
1, 28559, Note_off_c, 1, 68, 0
1, 28560, Note_on_c, 1, 72, 127
1, 28560, Note_on_c, 1, 66, 127
1, 28589, Note_off_c, 1, 72, 0
1, 28619, Note_off_c, 1, 56, 0
1, 28619, Note_off_c, 1, 75, 0
1, 28619, Note_off_c, 1, 60, 0
1, 28619, Note_off_c, 1, 44, 0
1, 28619, Note_off_c, 1, 66, 0
1, 28620, Note_on_c, 1, 76, 127
1, 28620, Note_on_c, 1, 73, 127
1, 28620, Note_on_c, 1, 64, 127
1, 28620, Note_on_c, 1, 61, 127
1, 28620, Note_on_c, 1, 49, 127
1, 28620, Note_on_c, 1, 68, 127
1, 28739, Note_off_c, 1, 76, 0
1, 28739, Note_off_c, 1, 73, 0
1, 28800, Note_on_c, 1, 56, 127
1, 28859, Note_off_c, 1, 56, 0
1, 29099, Note_off_c, 1, 64, 0
1, 29099, Note_off_c, 1, 61, 0
1, 29099, Note_off_c, 1, 49, 0
1, 29099, Note_off_c, 1, 68, 0
1, 29100, Note_on_c, 1, 78, 127
1, 29100, Note_on_c, 1, 73, 127
1, 29100, Note_on_c, 1, 58, 127
1, 29100, Note_on_c, 1, 52, 127
1, 29100, Note_on_c, 1, 61, 127
1, 29100, Note_on_c, 1, 66, 127
1, 29100, Note_on_c, 1, 70, 127
1, 29159, Note_off_c, 1, 58, 0
1, 29340, Note_on_c, 1, 54, 127
1, 29399, Note_off_c, 1, 54, 0
1, 29460, Note_on_c, 1, 56, 127
1, 29519, Note_off_c, 1, 56, 0
1, 29579, Note_off_c, 1, 52, 0
1, 29579, Note_off_c, 1, 61, 0
1, 29579, Note_off_c, 1, 66, 0
1, 29579, Note_off_c, 1, 70, 0
1, 29580, Note_off_c, 1, 73, 0
1, 29580, Note_on_c, 1, 71, 127
1, 29580, Note_on_c, 1, 59, 127
1, 29580, Note_on_c, 1, 51, 127
1, 29580, Note_on_c, 1, 63, 127
1, 29639, Note_off_c, 1, 59, 0
1, 29670, Note_on_c, 1, 47, 127
1, 29699, Note_off_c, 1, 47, 0
1, 29820, Note_on_c, 1, 57, 127
1, 29820, Note_on_c, 1, 69, 127
1, 29879, Note_off_c, 1, 57, 0
1, 30059, Note_off_c, 1, 51, 0
1, 30059, Note_off_c, 1, 63, 0
1, 30060, Note_off_c, 1, 78, 0
1, 30060, Note_off_c, 1, 69, 0
1, 30060, Note_on_c, 1, 76, 127
1, 30060, Note_on_c, 1, 68, 127
1, 30060, Note_on_c, 1, 64, 127
1, 30299, Note_off_c, 1, 68, 0
1, 30299, Note_off_c, 1, 64, 0
1, 30300, Note_off_c, 1, 71, 0
1, 30300, Note_on_c, 1, 46, 127
1, 30360, Note_on_c, 1, 49, 127
1, 30419, Note_off_c, 1, 49, 0
1, 30539, Note_off_c, 1, 46, 0
1, 30540, Note_off_c, 1, 76, 0
1, 30600, Note_on_c, 1, 47, 127
1, 30659, Note_off_c, 1, 47, 0
1, 30660, Note_on_c, 1, 75, 127
1, 30660, Note_on_c, 1, 66, 127
1, 30660, Note_on_c, 1, 47, 127
1, 30660, Note_on_c, 1, 63, 127
1, 30660, Note_on_c, 1, 69, 127
1, 30750, Note_off_c, 1, 75, 0
1, 30750, Note_on_c, 1, 76, 127
1, 30750, Note_on_c, 1, 68, 127
1, 30765, Note_off_c, 1, 76, 0
1, 30765, Note_off_c, 1, 68, 0
1, 30765, Note_on_c, 1, 78, 127
1, 30779, Note_off_c, 1, 66, 0
1, 30779, Note_off_c, 1, 47, 0
1, 30779, Note_off_c, 1, 63, 0
1, 30780, Note_off_c, 1, 69, 0
1, 30780, Note_off_c, 1, 78, 0
1, 30780, Note_on_c, 1, 40, 127
1, 30780, Note_on_c, 1, 64, 127
1, 30780, Note_on_c, 1, 59, 127
1, 31019, Note_off_c, 1, 40, 0
1, 31019, Note_off_c, 1, 64, 0
1, 31019, Note_off_c, 1, 59, 0
1, 31020, Note_on_c, 1, 50, 127
1, 31020, Note_on_c, 1, 71, 127
1, 31080, Note_on_c, 1, 56, 127
1, 31139, Note_off_c, 1, 56, 0
1, 31230, Note_on_c, 1, 52, 127
1, 31259, Note_off_c, 1, 50, 0
1, 31259, Note_off_c, 1, 71, 0
1, 31259, Note_off_c, 1, 52, 0
1, 31260, Note_on_c, 1, 73, 127
1, 31260, Note_on_c, 1, 57, 127
1, 31260, Note_on_c, 1, 49, 127
1, 31260, Note_on_c, 1, 61, 127
1, 31379, Note_off_c, 1, 57, 0
1, 31379, Note_off_c, 1, 49, 0
1, 31379, Note_off_c, 1, 61, 0
1, 31380, Note_on_c, 1, 45, 127
1, 31499, Note_off_c, 1, 45, 0
1, 31500, Note_off_c, 1, 73, 0
1, 31500, Note_on_c, 1, 81, 127
1, 31500, Note_on_c, 1, 74, 127
1, 31500, Note_on_c, 1, 42, 127
1, 31500, Note_on_c, 1, 62, 127
1, 31619, Note_off_c, 1, 42, 0
1, 31619, Note_off_c, 1, 62, 0
1, 31620, Note_off_c, 1, 81, 0
1, 31620, Note_off_c, 1, 74, 0
1, 31680, Note_on_c, 1, 57, 127
1, 31739, Note_off_c, 1, 57, 0
1, 31740, Note_on_c, 1, 57, 127
1, 31799, Note_off_c, 1, 57, 0
1, 31800, Note_on_c, 1, 52, 127
1, 31859, Note_off_c, 1, 52, 0
1, 31860, Note_on_c, 1, 80, 127
1, 31860, Note_on_c, 1, 71, 127
1, 31860, Note_on_c, 1, 40, 127
1, 31860, Note_on_c, 1, 62, 127
1, 31860, Note_on_c, 1, 68, 127
1, 31950, Note_off_c, 1, 80, 0
1, 31950, Note_on_c, 1, 81, 127
1, 31950, Note_on_c, 1, 73, 127
1, 31965, Note_off_c, 1, 81, 0
1, 31965, Note_off_c, 1, 73, 0
1, 31965, Note_on_c, 1, 83, 127
1, 31965, Note_on_c, 1, 74, 127
1, 31979, Note_off_c, 1, 71, 0
1, 31979, Note_off_c, 1, 40, 0
1, 31979, Note_off_c, 1, 62, 0
1, 31979, Note_off_c, 1, 68, 0
1, 31980, Note_off_c, 1, 83, 0
1, 31980, Note_off_c, 1, 74, 0
1, 31980, Note_on_c, 1, 45, 127
1, 31980, Note_on_c, 1, 69, 127
1, 31980, Note_on_c, 1, 64, 127
1, 31980, Note_on_c, 1, 61, 127
1, 32220, Note_off_c, 1, 45, 0
1, 32220, Note_off_c, 1, 69, 0
1, 32220, Note_off_c, 1, 64, 0
1, 32220, Note_off_c, 1, 61, 0
1, 32460, Note_on_c, 1, 81, 127
1, 32460, Note_on_c, 1, 69, 127
1, 32460, Note_on_c, 1, 64, 127
1, 32460, Note_on_c, 1, 61, 127
1, 32460, Note_on_c, 1, 57, 127
1, 32519, Note_off_c, 1, 57, 0
1, 32520, Note_on_c, 1, 55, 127
1, 32579, Note_off_c, 1, 81, 0
1, 32579, Note_off_c, 1, 69, 0
1, 32579, Note_off_c, 1, 64, 0
1, 32579, Note_off_c, 1, 61, 0
1, 32579, Note_off_c, 1, 55, 0
1, 32580, Note_on_c, 1, 81, 127
1, 32580, Note_on_c, 1, 69, 127
1, 32580, Note_on_c, 1, 66, 127
1, 32580, Note_on_c, 1, 61, 127
1, 32580, Note_on_c, 1, 54, 127
1, 32639, Note_off_c, 1, 54, 0
1, 32640, Note_on_c, 1, 52, 127
1, 32699, Note_off_c, 1, 81, 0
1, 32699, Note_off_c, 1, 69, 0
1, 32699, Note_off_c, 1, 66, 0
1, 32699, Note_off_c, 1, 61, 0
1, 32699, Note_off_c, 1, 52, 0
1, 32700, Note_on_c, 1, 81, 127
1, 32700, Note_on_c, 1, 69, 127
1, 32700, Note_on_c, 1, 66, 127
1, 32700, Note_on_c, 1, 62, 127
1, 32700, Note_on_c, 1, 50, 127
1, 32759, Note_off_c, 1, 66, 0
1, 32759, Note_off_c, 1, 62, 0
1, 32760, Note_on_c, 1, 64, 127
1, 32760, Note_on_c, 1, 61, 127
1, 32819, Note_off_c, 1, 81, 0
1, 32819, Note_off_c, 1, 69, 0
1, 32819, Note_off_c, 1, 50, 0
1, 32819, Note_off_c, 1, 64, 0
1, 32819, Note_off_c, 1, 61, 0
1, 32820, Note_on_c, 1, 83, 127
1, 32820, Note_on_c, 1, 71, 127
1, 32820, Note_on_c, 1, 62, 127
1, 32820, Note_on_c, 1, 59, 127
1, 32820, Note_on_c, 1, 55, 127
1, 32879, Note_off_c, 1, 62, 0
1, 32879, Note_off_c, 1, 59, 0
1, 32880, Note_on_c, 1, 67, 127
1, 32880, Note_on_c, 1, 64, 127
1, 32939, Note_off_c, 1, 83, 0
1, 32939, Note_off_c, 1, 71, 0
1, 32939, Note_off_c, 1, 67, 0
1, 32939, Note_off_c, 1, 64, 0
1, 32940, Note_on_c, 1, 81, 127
1, 32940, Note_on_c, 1, 69, 127
1, 32940, Note_on_c, 1, 61, 127
1, 32999, Note_off_c, 1, 55, 0
1, 32999, Note_off_c, 1, 61, 0
1, 33000, Note_on_c, 1, 54, 127
1, 33029, Note_off_c, 1, 54, 0
1, 33030, Note_on_c, 1, 52, 127
1, 33059, Note_off_c, 1, 81, 0
1, 33059, Note_off_c, 1, 69, 0
1, 33059, Note_off_c, 1, 52, 0
1, 33060, Note_on_c, 1, 86, 127
1, 33060, Note_on_c, 1, 74, 127
1, 33060, Note_on_c, 1, 69, 127
1, 33060, Note_on_c, 1, 57, 127
1, 33060, Note_on_c, 1, 54, 127
1, 33119, Note_off_c, 1, 69, 0
1, 33119, Note_off_c, 1, 57, 0
1, 33119, Note_off_c, 1, 54, 0
1, 33120, Note_on_c, 1, 67, 127
1, 33120, Note_on_c, 1, 62, 127
1, 33120, Note_on_c, 1, 50, 127
1, 33149, Note_off_c, 1, 67, 0
1, 33150, Note_on_c, 1, 66, 127
1, 33179, Note_off_c, 1, 86, 0
1, 33179, Note_off_c, 1, 74, 0
1, 33179, Note_off_c, 1, 50, 0
1, 33179, Note_off_c, 1, 66, 0
1, 33180, Note_on_c, 1, 88, 127
1, 33180, Note_on_c, 1, 76, 127
1, 33239, Note_off_c, 1, 62, 0
1, 33240, Note_on_c, 1, 64, 127
1, 33240, Note_on_c, 1, 61, 127
1, 33240, Note_on_c, 1, 45, 127
1, 33299, Note_off_c, 1, 88, 0
1, 33299, Note_off_c, 1, 76, 0
1, 33299, Note_off_c, 1, 64, 0
1, 33299, Note_off_c, 1, 61, 0
1, 33299, Note_off_c, 1, 45, 0
1, 33300, Note_on_c, 1, 86, 127
1, 33300, Note_on_c, 1, 74, 127
1, 33300, Note_on_c, 1, 66, 127
1, 33300, Note_on_c, 1, 57, 127
1, 33300, Note_on_c, 1, 50, 127
1, 33539, Note_off_c, 1, 86, 0
1, 33539, Note_off_c, 1, 74, 0
1, 33539, Note_off_c, 1, 66, 0
1, 33539, Note_off_c, 1, 57, 0
1, 33539, Note_off_c, 1, 50, 0
1, 33540, Note_on_c, 1, 85, 127
1, 33540, Note_on_c, 1, 73, 127
1, 33540, Note_on_c, 1, 69, 127
1, 33540, Note_on_c, 1, 66, 127
1, 33540, Note_on_c, 1, 54, 127
1, 33599, Note_off_c, 1, 85, 0
1, 33599, Note_off_c, 1, 73, 0
1, 33599, Note_off_c, 1, 54, 0
1, 33600, Note_on_c, 1, 86, 127
1, 33600, Note_on_c, 1, 74, 127
1, 33600, Note_on_c, 1, 52, 127
1, 33659, Note_off_c, 1, 69, 0
1, 33659, Note_off_c, 1, 66, 0
1, 33659, Note_off_c, 1, 86, 0
1, 33659, Note_off_c, 1, 74, 0
1, 33659, Note_off_c, 1, 52, 0
1, 33660, Note_on_c, 1, 88, 127
1, 33660, Note_on_c, 1, 76, 127
1, 33660, Note_on_c, 1, 69, 127
1, 33660, Note_on_c, 1, 64, 127
1, 33660, Note_on_c, 1, 50, 127
1, 33719, Note_off_c, 1, 50, 0
1, 33720, Note_on_c, 1, 49, 127
1, 33779, Note_off_c, 1, 88, 0
1, 33779, Note_off_c, 1, 76, 0
1, 33779, Note_off_c, 1, 69, 0
1, 33779, Note_off_c, 1, 64, 0
1, 33779, Note_off_c, 1, 49, 0
1, 33780, Note_on_c, 1, 90, 127
1, 33780, Note_on_c, 1, 78, 127
1, 33780, Note_on_c, 1, 74, 127
1, 33780, Note_on_c, 1, 62, 127
1, 33780, Note_on_c, 1, 47, 127
1, 33839, Note_off_c, 1, 74, 0
1, 33839, Note_off_c, 1, 47, 0
1, 33840, Note_on_c, 1, 73, 127
1, 33840, Note_on_c, 1, 57, 127
1, 33840, Note_on_c, 1, 45, 127
1, 33899, Note_off_c, 1, 90, 0
1, 33899, Note_off_c, 1, 78, 0
1, 33899, Note_off_c, 1, 62, 0
1, 33899, Note_off_c, 1, 73, 0
1, 33899, Note_off_c, 1, 57, 0
1, 33899, Note_off_c, 1, 45, 0
1, 33900, Note_on_c, 1, 88, 127
1, 33900, Note_on_c, 1, 76, 127
1, 33900, Note_on_c, 1, 71, 127
1, 33900, Note_on_c, 1, 64, 127
1, 33900, Note_on_c, 1, 56, 127
1, 33900, Note_on_c, 1, 44, 127
1, 33959, Note_off_c, 1, 88, 0
1, 33959, Note_off_c, 1, 76, 0
1, 33959, Note_off_c, 1, 56, 0
1, 33959, Note_off_c, 1, 44, 0
1, 33960, Note_on_c, 1, 86, 127
1, 33960, Note_on_c, 1, 74, 127
1, 33960, Note_on_c, 1, 52, 127
1, 33960, Note_on_c, 1, 40, 127
1, 34019, Note_off_c, 1, 71, 0
1, 34019, Note_off_c, 1, 64, 0
1, 34019, Note_off_c, 1, 86, 0
1, 34019, Note_off_c, 1, 74, 0
1, 34019, Note_off_c, 1, 52, 0
1, 34019, Note_off_c, 1, 40, 0
1, 34020, Note_on_c, 1, 85, 127
1, 34020, Note_on_c, 1, 73, 127
1, 34020, Note_on_c, 1, 71, 127
1, 34020, Note_on_c, 1, 64, 127
1, 34020, Note_on_c, 1, 57, 127
1, 34020, Note_on_c, 1, 45, 127
1, 34079, Note_off_c, 1, 71, 0
1, 34079, Note_off_c, 1, 64, 0
1, 34079, Note_off_c, 1, 57, 0
1, 34079, Note_off_c, 1, 45, 0
1, 34080, Note_on_c, 1, 69, 127
1, 34080, Note_on_c, 1, 66, 127
1, 34080, Note_on_c, 1, 54, 127
1, 34080, Note_on_c, 1, 42, 127
1, 34139, Note_off_c, 1, 85, 0
1, 34139, Note_off_c, 1, 73, 0
1, 34139, Note_off_c, 1, 54, 0
1, 34139, Note_off_c, 1, 42, 0
1, 34140, Note_on_c, 1, 83, 127
1, 34140, Note_on_c, 1, 50, 127
1, 34140, Note_on_c, 1, 38, 127
1, 34199, Note_off_c, 1, 69, 0
1, 34199, Note_off_c, 1, 66, 0
1, 34199, Note_off_c, 1, 50, 0
1, 34199, Note_off_c, 1, 38, 0
1, 34200, Note_on_c, 1, 68, 127
1, 34200, Note_on_c, 1, 52, 127
1, 34200, Note_on_c, 1, 40, 127
1, 34230, Note_on_c, 1, 62, 127
1, 34259, Note_off_c, 1, 83, 0
1, 34259, Note_off_c, 1, 68, 0
1, 34259, Note_off_c, 1, 52, 0
1, 34259, Note_off_c, 1, 40, 0
1, 34259, Note_off_c, 1, 62, 0
1, 34260, Note_on_c, 1, 81, 127
1, 34260, Note_on_c, 1, 69, 127
1, 34260, Note_on_c, 1, 64, 127
1, 34260, Note_on_c, 1, 61, 127
1, 34260, Note_on_c, 1, 57, 127
1, 34260, Note_on_c, 1, 45, 127
1, 34379, Note_off_c, 1, 81, 0
1, 34379, Note_off_c, 1, 69, 0
1, 34379, Note_off_c, 1, 64, 0
1, 34379, Note_off_c, 1, 61, 0
1, 34379, Note_off_c, 1, 57, 0
1, 34379, Note_off_c, 1, 45, 0
1, 34380, Note_on_c, 1, 81, 127
1, 34380, Note_on_c, 1, 69, 127
1, 34380, Note_on_c, 1, 66, 127
1, 34380, Note_on_c, 1, 57, 127
1, 34380, Note_on_c, 1, 50, 127
1, 34439, Note_off_c, 1, 66, 0
1, 34439, Note_off_c, 1, 50, 0
1, 34440, Note_on_c, 1, 67, 127
1, 34440, Note_on_c, 1, 52, 127
1, 34499, Note_off_c, 1, 81, 0
1, 34499, Note_off_c, 1, 69, 0
1, 34499, Note_off_c, 1, 57, 0
1, 34499, Note_off_c, 1, 67, 0
1, 34499, Note_off_c, 1, 52, 0
1, 34500, Note_on_c, 1, 86, 127
1, 34500, Note_on_c, 1, 74, 127
1, 34500, Note_on_c, 1, 69, 127
1, 34500, Note_on_c, 1, 66, 127
1, 34500, Note_on_c, 1, 54, 127
1, 34559, Note_off_c, 1, 69, 0
1, 34559, Note_off_c, 1, 66, 0
1, 34559, Note_off_c, 1, 54, 0
1, 34560, Note_on_c, 1, 71, 127
1, 34560, Note_on_c, 1, 64, 127
1, 34560, Note_on_c, 1, 56, 127
1, 34619, Note_off_c, 1, 86, 0
1, 34619, Note_off_c, 1, 74, 0
1, 34619, Note_off_c, 1, 64, 0
1, 34619, Note_off_c, 1, 56, 0
1, 34620, Note_on_c, 1, 85, 127
1, 34620, Note_on_c, 1, 73, 127
1, 34620, Note_on_c, 1, 57, 127
1, 34679, Note_off_c, 1, 71, 0
1, 34679, Note_off_c, 1, 85, 0
1, 34679, Note_off_c, 1, 73, 0
1, 34679, Note_off_c, 1, 57, 0
1, 34680, Note_on_c, 1, 59, 127
1, 34710, Note_on_c, 1, 68, 127
1, 34739, Note_off_c, 1, 59, 0
1, 34739, Note_off_c, 1, 68, 0
1, 34740, Note_on_c, 1, 88, 127
1, 34740, Note_on_c, 1, 76, 127
1, 34740, Note_on_c, 1, 69, 127
1, 34740, Note_on_c, 1, 64, 127
1, 34740, Note_on_c, 1, 61, 127
1, 34799, Note_off_c, 1, 61, 0
1, 34800, Note_on_c, 1, 62, 127
1, 34859, Note_off_c, 1, 88, 0
1, 34859, Note_off_c, 1, 76, 0
1, 34859, Note_off_c, 1, 69, 0
1, 34859, Note_off_c, 1, 64, 0
1, 34859, Note_off_c, 1, 62, 0
1, 34860, Note_on_c, 1, 83, 127
1, 34860, Note_on_c, 1, 71, 127
1, 34860, Note_on_c, 1, 68, 127
1, 34860, Note_on_c, 1, 64, 127
1, 34919, Note_off_c, 1, 64, 0
1, 34920, Note_off_c, 1, 68, 0
1, 34920, Note_on_c, 1, 66, 127
1, 34920, Note_on_c, 1, 59, 127
1, 34920, Note_on_c, 1, 63, 127
1, 34979, Note_off_c, 1, 83, 0
1, 34979, Note_off_c, 1, 71, 0
1, 34979, Note_off_c, 1, 59, 0
1, 34979, Note_off_c, 1, 63, 0
1, 34980, Note_off_c, 1, 66, 0
1, 34980, Note_on_c, 1, 81, 127
1, 34980, Note_on_c, 1, 69, 127
1, 34980, Note_on_c, 1, 61, 127
1, 35039, Note_off_c, 1, 81, 0
1, 35039, Note_off_c, 1, 69, 0
1, 35039, Note_off_c, 1, 61, 0
1, 35040, Note_on_c, 1, 80, 127
1, 35040, Note_on_c, 1, 57, 127
1, 35099, Note_off_c, 1, 80, 0
1, 35099, Note_off_c, 1, 57, 0
1, 35100, Note_on_c, 1, 78, 127
1, 35160, Note_on_c, 1, 47, 127
1, 35219, Note_off_c, 1, 78, 0
1, 35219, Note_off_c, 1, 47, 0
1, 35220, Note_on_c, 1, 76, 127
1, 35220, Note_on_c, 1, 64, 127
1, 35220, Note_on_c, 1, 59, 127
1, 35220, Note_on_c, 1, 56, 127
1, 35220, Note_on_c, 1, 52, 127
1, 35339, Note_off_c, 1, 76, 0
1, 35339, Note_off_c, 1, 64, 0
1, 35339, Note_off_c, 1, 59, 0
1, 35339, Note_off_c, 1, 56, 0
1, 35339, Note_off_c, 1, 52, 0
1, 35340, Note_on_c, 1, 76, 127
1, 35340, Note_on_c, 1, 64, 127
1, 35340, Note_on_c, 1, 61, 127
1, 35340, Note_on_c, 1, 57, 127
1, 35399, Note_off_c, 1, 61, 0
1, 35400, Note_on_c, 1, 63, 127
1, 35400, Note_on_c, 1, 54, 127
1, 35459, Note_off_c, 1, 76, 0
1, 35459, Note_off_c, 1, 64, 0
1, 35459, Note_off_c, 1, 57, 0
1, 35459, Note_off_c, 1, 63, 0
1, 35459, Note_off_c, 1, 54, 0
1, 35460, Note_on_c, 1, 83, 127
1, 35460, Note_on_c, 1, 71, 127
1, 35460, Note_on_c, 1, 64, 127
1, 35460, Note_on_c, 1, 56, 127
1, 35520, Note_on_c, 1, 54, 127
1, 35579, Note_off_c, 1, 83, 0
1, 35579, Note_off_c, 1, 71, 0
1, 35579, Note_off_c, 1, 64, 0
1, 35579, Note_off_c, 1, 56, 0
1, 35579, Note_off_c, 1, 54, 0
1, 35580, Note_on_c, 1, 83, 127
1, 35580, Note_on_c, 1, 71, 127
1, 35580, Note_on_c, 1, 66, 127
1, 35580, Note_on_c, 1, 57, 127
1, 35580, Note_on_c, 1, 52, 127
1, 35639, Note_off_c, 1, 52, 0
1, 35640, Note_on_c, 1, 51, 127
1, 35699, Note_off_c, 1, 83, 0
1, 35699, Note_off_c, 1, 71, 0
1, 35699, Note_off_c, 1, 66, 0
1, 35699, Note_off_c, 1, 57, 0
1, 35699, Note_off_c, 1, 51, 0
1, 35700, Note_on_c, 1, 83, 127
1, 35700, Note_on_c, 1, 71, 127
1, 35700, Note_on_c, 1, 64, 127
1, 35700, Note_on_c, 1, 56, 127
1, 35700, Note_on_c, 1, 52, 127
1, 35759, Note_off_c, 1, 52, 0
1, 35760, Note_on_c, 1, 54, 127
1, 35819, Note_off_c, 1, 83, 0
1, 35819, Note_off_c, 1, 71, 0
1, 35819, Note_off_c, 1, 64, 0
1, 35819, Note_off_c, 1, 56, 0
1, 35819, Note_off_c, 1, 54, 0
1, 35820, Note_on_c, 1, 85, 127
1, 35820, Note_on_c, 1, 73, 127
1, 35820, Note_on_c, 1, 64, 127
1, 35820, Note_on_c, 1, 57, 127
1, 35820, Note_on_c, 1, 55, 127
1, 35879, Note_off_c, 1, 64, 0
1, 35879, Note_off_c, 1, 55, 0
1, 35880, Note_on_c, 1, 67, 127
1, 35880, Note_on_c, 1, 52, 127
1, 35939, Note_off_c, 1, 85, 0
1, 35939, Note_off_c, 1, 73, 0
1, 35939, Note_off_c, 1, 57, 0
1, 35939, Note_off_c, 1, 67, 0
1, 35939, Note_off_c, 1, 52, 0
1, 35940, Note_on_c, 1, 86, 127
1, 35940, Note_on_c, 1, 74, 127
1, 35940, Note_on_c, 1, 66, 127
1, 35940, Note_on_c, 1, 57, 127
1, 35940, Note_on_c, 1, 54, 127
1, 35999, Note_off_c, 1, 86, 0
1, 35999, Note_off_c, 1, 74, 0
1, 35999, Note_off_c, 1, 66, 0
1, 35999, Note_off_c, 1, 57, 0
1, 35999, Note_off_c, 1, 54, 0
1, 36000, Note_on_c, 1, 85, 127
1, 36000, Note_on_c, 1, 73, 127
1, 36000, Note_on_c, 1, 64, 127
1, 36000, Note_on_c, 1, 56, 127
1, 36059, Note_off_c, 1, 85, 0
1, 36059, Note_off_c, 1, 73, 0
1, 36059, Note_off_c, 1, 64, 0
1, 36059, Note_off_c, 1, 56, 0
1, 36060, Note_on_c, 1, 83, 127
1, 36060, Note_on_c, 1, 71, 127
1, 36060, Note_on_c, 1, 63, 127
1, 36060, Note_on_c, 1, 54, 127
1, 36060, Note_on_c, 1, 57, 127
1, 36119, Note_off_c, 1, 63, 0
1, 36119, Note_off_c, 1, 54, 0
1, 36119, Note_off_c, 1, 57, 0
1, 36120, Note_on_c, 1, 65, 127
1, 36120, Note_on_c, 1, 59, 127
1, 36120, Note_on_c, 1, 56, 127
1, 36179, Note_off_c, 1, 83, 0
1, 36179, Note_off_c, 1, 71, 0
1, 36179, Note_off_c, 1, 65, 0
1, 36179, Note_off_c, 1, 59, 0
1, 36179, Note_off_c, 1, 56, 0
1, 36180, Note_on_c, 1, 81, 127
1, 36180, Note_on_c, 1, 69, 127
1, 36180, Note_on_c, 1, 66, 127
1, 36180, Note_on_c, 1, 61, 127
1, 36180, Note_on_c, 1, 54, 127
1, 36239, Note_off_c, 1, 81, 0
1, 36239, Note_off_c, 1, 69, 0
1, 36239, Note_off_c, 1, 66, 0
1, 36239, Note_off_c, 1, 61, 0
1, 36239, Note_off_c, 1, 54, 0
1, 36240, Note_on_c, 1, 83, 127
1, 36240, Note_on_c, 1, 71, 127
1, 36240, Note_on_c, 1, 68, 127
1, 36240, Note_on_c, 1, 62, 127
1, 36240, Note_on_c, 1, 52, 127
1, 36299, Note_off_c, 1, 83, 0
1, 36299, Note_off_c, 1, 71, 0
1, 36299, Note_off_c, 1, 68, 0
1, 36299, Note_off_c, 1, 62, 0
1, 36299, Note_off_c, 1, 52, 0
1, 36300, Note_on_c, 1, 85, 127
1, 36300, Note_on_c, 1, 73, 127
1, 36300, Note_on_c, 1, 69, 127
1, 36300, Note_on_c, 1, 64, 127
1, 36300, Note_on_c, 1, 50, 127
1, 36359, Note_off_c, 1, 50, 0
1, 36360, Note_on_c, 1, 49, 127
1, 36419, Note_off_c, 1, 85, 0
1, 36419, Note_off_c, 1, 73, 0
1, 36419, Note_off_c, 1, 64, 0
1, 36419, Note_off_c, 1, 49, 0
1, 36420, Note_on_c, 1, 83, 127
1, 36420, Note_on_c, 1, 71, 127
1, 36420, Note_on_c, 1, 66, 127
1, 36420, Note_on_c, 1, 51, 127
1, 36479, Note_off_c, 1, 51, 0
1, 36480, Note_on_c, 1, 47, 127
1, 36539, Note_off_c, 1, 69, 0
1, 36539, Note_off_c, 1, 66, 0
1, 36539, Note_off_c, 1, 47, 0
1, 36540, Note_on_c, 1, 67, 127
1, 36540, Note_on_c, 1, 52, 127
1, 36599, Note_off_c, 1, 52, 0
1, 36659, Note_off_c, 1, 83, 0
1, 36659, Note_off_c, 1, 71, 0
1, 36660, Note_on_c, 1, 81, 127
1, 36720, Note_on_c, 1, 45, 127
1, 36779, Note_off_c, 1, 67, 0
1, 36779, Note_off_c, 1, 81, 0
1, 36779, Note_off_c, 1, 45, 0
1, 36780, Note_on_c, 1, 81, 127
1, 36780, Note_on_c, 1, 69, 127
1, 36780, Note_on_c, 1, 66, 127
1, 36780, Note_on_c, 1, 62, 127
1, 36780, Note_on_c, 1, 50, 127
1, 36840, Note_on_c, 1, 38, 127
1, 36899, Note_off_c, 1, 81, 0
1, 36899, Note_off_c, 1, 69, 0
1, 36899, Note_off_c, 1, 50, 0
1, 36899, Note_off_c, 1, 38, 0
1, 36900, Note_on_c, 1, 45, 127
1, 37019, Note_off_c, 1, 66, 0
1, 37019, Note_off_c, 1, 62, 0
1, 37020, Note_on_c, 1, 64, 127
1, 37020, Note_on_c, 1, 61, 127
1, 37079, Note_off_c, 1, 64, 0
1, 37079, Note_off_c, 1, 61, 0
1, 37080, Note_on_c, 1, 59, 127
1, 37139, Note_off_c, 1, 59, 0
1, 37259, Note_off_c, 1, 45, 0
1, 37380, Note_on_c, 1, 73, 127
1, 37380, Note_on_c, 1, 57, 127
1, 37439, Note_off_c, 1, 57, 0
1, 37440, Note_on_c, 1, 61, 127
1, 37469, Note_off_c, 1, 73, 0
1, 37470, Note_on_c, 1, 74, 127
1, 37484, Note_off_c, 1, 74, 0
1, 37485, Note_on_c, 1, 76, 127
1, 37499, Note_off_c, 1, 61, 0
1, 37499, Note_off_c, 1, 76, 0
1, 37500, Note_on_c, 1, 74, 127
1, 37500, Note_on_c, 1, 59, 127
1, 37559, Note_off_c, 1, 74, 0
1, 37559, Note_off_c, 1, 59, 0
1, 37560, Note_on_c, 1, 73, 127
1, 37560, Note_on_c, 1, 57, 127
1, 37574, Note_off_c, 1, 73, 0
1, 37575, Note_on_c, 1, 71, 127
1, 37589, Note_off_c, 1, 71, 0
1, 37590, Note_on_c, 1, 69, 127
1, 37619, Note_off_c, 1, 57, 0
1, 37619, Note_off_c, 1, 69, 0
1, 37620, Note_on_c, 1, 69, 127
1, 37620, Note_on_c, 1, 52, 127
1, 37649, Note_off_c, 1, 52, 0
1, 37650, Note_on_c, 1, 54, 127
1, 37679, Note_off_c, 1, 69, 0
1, 37679, Note_off_c, 1, 54, 0
1, 37680, Note_on_c, 1, 71, 127
1, 37680, Note_on_c, 1, 56, 127
1, 37709, Note_off_c, 1, 56, 0
1, 37710, Note_on_c, 1, 52, 127
1, 37739, Note_off_c, 1, 71, 0
1, 37739, Note_off_c, 1, 52, 0
1, 37740, Note_on_c, 1, 69, 127
1, 37740, Note_on_c, 1, 61, 127
1, 37740, Note_on_c, 1, 57, 127
1, 37799, Note_off_c, 1, 57, 0
1, 37800, Note_on_c, 1, 49, 127
1, 37829, Note_off_c, 1, 69, 0
1, 37829, Note_off_c, 1, 61, 0
1, 37830, Note_on_c, 1, 71, 127
1, 37830, Note_on_c, 1, 62, 127
1, 37844, Note_off_c, 1, 71, 0
1, 37844, Note_off_c, 1, 62, 0
1, 37845, Note_on_c, 1, 73, 127
1, 37845, Note_on_c, 1, 64, 127
1, 37859, Note_off_c, 1, 49, 0
1, 37859, Note_off_c, 1, 73, 0
1, 37859, Note_off_c, 1, 64, 0
1, 37860, Note_on_c, 1, 71, 127
1, 37860, Note_on_c, 1, 62, 127
1, 37860, Note_on_c, 1, 52, 127
1, 37919, Note_off_c, 1, 71, 0
1, 37919, Note_off_c, 1, 62, 0
1, 37919, Note_off_c, 1, 52, 0
1, 37920, Note_on_c, 1, 69, 127
1, 37920, Note_on_c, 1, 61, 127
1, 37920, Note_on_c, 1, 45, 127
1, 37934, Note_off_c, 1, 69, 0
1, 37934, Note_off_c, 1, 61, 0
1, 37935, Note_on_c, 1, 68, 127
1, 37935, Note_on_c, 1, 59, 127
1, 37949, Note_off_c, 1, 68, 0
1, 37949, Note_off_c, 1, 59, 0
1, 37950, Note_on_c, 1, 66, 127
1, 37950, Note_on_c, 1, 57, 127
1, 37979, Note_off_c, 1, 45, 0
1, 37979, Note_off_c, 1, 66, 0
1, 37979, Note_off_c, 1, 57, 0
1, 37980, Note_on_c, 1, 66, 127
1, 37980, Note_on_c, 1, 59, 127
1, 37980, Note_on_c, 1, 52, 127
1, 38009, Note_off_c, 1, 52, 0
1, 38010, Note_off_c, 1, 66, 0
1, 38010, Note_on_c, 1, 68, 127
1, 38010, Note_on_c, 1, 54, 127
1, 38039, Note_off_c, 1, 54, 0
1, 38040, Note_off_c, 1, 68, 0
1, 38040, Note_on_c, 1, 64, 127
1, 38040, Note_on_c, 1, 56, 127
1, 38069, Note_off_c, 1, 56, 0
1, 38100, Note_off_c, 1, 59, 0
1, 38100, Note_on_c, 1, 61, 127
1, 38100, Note_on_c, 1, 57, 127
1, 38129, Note_off_c, 1, 64, 0
1, 38129, Note_off_c, 1, 61, 0
1, 38130, Note_on_c, 1, 63, 127
1, 38159, Note_off_c, 1, 57, 0
1, 38159, Note_off_c, 1, 63, 0
1, 38160, Note_on_c, 1, 66, 127
1, 38160, Note_on_c, 1, 63, 127
1, 38160, Note_on_c, 1, 45, 127
1, 38189, Note_off_c, 1, 66, 0
1, 38189, Note_off_c, 1, 63, 0
1, 38190, Note_on_c, 1, 68, 127
1, 38190, Note_on_c, 1, 65, 127
1, 38219, Note_off_c, 1, 45, 0
1, 38219, Note_off_c, 1, 68, 0
1, 38219, Note_off_c, 1, 65, 0
1, 38220, Note_on_c, 1, 68, 127
1, 38220, Note_on_c, 1, 65, 127
1, 38220, Note_on_c, 1, 44, 127
1, 38249, Note_off_c, 1, 68, 0
1, 38249, Note_off_c, 1, 65, 0
1, 38250, Note_on_c, 1, 69, 127
1, 38250, Note_on_c, 1, 66, 127
1, 38279, Note_off_c, 1, 44, 0
1, 38279, Note_off_c, 1, 69, 0
1, 38279, Note_off_c, 1, 66, 0
1, 38280, Note_on_c, 1, 69, 127
1, 38280, Note_on_c, 1, 66, 127
1, 38280, Note_on_c, 1, 42, 127
1, 38294, Note_off_c, 1, 69, 0
1, 38294, Note_off_c, 1, 66, 0
1, 38295, Note_on_c, 1, 71, 127
1, 38295, Note_on_c, 1, 68, 127
1, 38309, Note_off_c, 1, 71, 0
1, 38309, Note_off_c, 1, 68, 0
1, 38310, Note_on_c, 1, 73, 127
1, 38339, Note_off_c, 1, 42, 0
1, 38339, Note_off_c, 1, 73, 0
1, 38340, Note_on_c, 1, 73, 127
1, 38340, Note_on_c, 1, 69, 127
1, 38340, Note_on_c, 1, 54, 127
1, 38369, Note_off_c, 1, 54, 0
1, 38370, Note_on_c, 1, 56, 127
1, 38399, Note_off_c, 1, 73, 0
1, 38399, Note_off_c, 1, 69, 0
1, 38399, Note_off_c, 1, 56, 0
1, 38400, Note_on_c, 1, 63, 127
1, 38400, Note_on_c, 1, 59, 127
1, 38400, Note_on_c, 1, 57, 127
1, 38429, Note_off_c, 1, 57, 0
1, 38430, Note_on_c, 1, 54, 127
1, 38459, Note_off_c, 1, 54, 0
1, 38460, Note_on_c, 1, 56, 127
1, 38489, Note_off_c, 1, 63, 0
1, 38489, Note_off_c, 1, 59, 0
1, 38490, Note_on_c, 1, 64, 127
1, 38490, Note_on_c, 1, 61, 127
1, 38519, Note_off_c, 1, 56, 0
1, 38519, Note_off_c, 1, 64, 0
1, 38519, Note_off_c, 1, 61, 0
1, 38520, Note_on_c, 1, 64, 127
1, 38520, Note_on_c, 1, 61, 127
1, 38520, Note_on_c, 1, 44, 127
1, 38549, Note_off_c, 1, 64, 0
1, 38549, Note_off_c, 1, 61, 0
1, 38550, Note_on_c, 1, 66, 127
1, 38550, Note_on_c, 1, 63, 127
1, 38579, Note_off_c, 1, 44, 0
1, 38579, Note_off_c, 1, 66, 0
1, 38579, Note_off_c, 1, 63, 0
1, 38580, Note_on_c, 1, 66, 127
1, 38580, Note_on_c, 1, 63, 127
1, 38580, Note_on_c, 1, 42, 127
1, 38609, Note_off_c, 1, 66, 0
1, 38609, Note_off_c, 1, 63, 0
1, 38610, Note_on_c, 1, 68, 127
1, 38610, Note_on_c, 1, 64, 127
1, 38639, Note_off_c, 1, 42, 0
1, 38639, Note_off_c, 1, 68, 0
1, 38639, Note_off_c, 1, 64, 0
1, 38640, Note_on_c, 1, 68, 127
1, 38640, Note_on_c, 1, 64, 127
1, 38640, Note_on_c, 1, 40, 127
1, 38654, Note_off_c, 1, 68, 0
1, 38654, Note_off_c, 1, 64, 0
1, 38655, Note_on_c, 1, 69, 127
1, 38655, Note_on_c, 1, 66, 127
1, 38669, Note_off_c, 1, 69, 0
1, 38669, Note_off_c, 1, 66, 0
1, 38670, Note_on_c, 1, 71, 127
1, 38699, Note_off_c, 1, 40, 0
1, 38699, Note_off_c, 1, 71, 0
1, 38700, Note_on_c, 1, 71, 127
1, 38700, Note_on_c, 1, 68, 127
1, 38700, Note_on_c, 1, 52, 127
1, 38729, Note_off_c, 1, 52, 0
1, 38730, Note_on_c, 1, 54, 127
1, 38759, Note_off_c, 1, 68, 0
1, 38759, Note_off_c, 1, 54, 0
1, 38760, Note_on_c, 1, 56, 127
1, 38789, Note_off_c, 1, 71, 0
1, 38789, Note_off_c, 1, 56, 0
1, 38790, Note_on_c, 1, 76, 127
1, 38790, Note_on_c, 1, 52, 127
1, 38819, Note_off_c, 1, 76, 0
1, 38819, Note_off_c, 1, 52, 0
1, 38820, Note_on_c, 1, 75, 127
1, 38820, Note_on_c, 1, 59, 127
1, 38834, Note_off_c, 1, 75, 0
1, 38835, Note_on_c, 1, 73, 127
1, 38849, Note_off_c, 1, 59, 0
1, 38849, Note_off_c, 1, 73, 0
1, 38850, Note_on_c, 1, 71, 127
1, 38850, Note_on_c, 1, 47, 127
1, 38879, Note_off_c, 1, 71, 0
1, 38879, Note_off_c, 1, 47, 0
1, 38880, Note_on_c, 1, 71, 127
1, 38880, Note_on_c, 1, 47, 127
1, 38909, Note_off_c, 1, 71, 0
1, 38909, Note_off_c, 1, 47, 0
1, 38910, Note_on_c, 1, 70, 127
1, 38910, Note_on_c, 1, 47, 127
1, 38939, Note_off_c, 1, 47, 0
1, 38970, Note_off_c, 1, 70, 0
1, 38970, Note_on_c, 1, 71, 127
1, 38999, Note_off_c, 1, 71, 0
1, 39000, Note_on_c, 1, 69, 127
1, 39000, Note_on_c, 1, 47, 127
1, 39014, Note_off_c, 1, 69, 0
1, 39015, Note_on_c, 1, 68, 127
1, 39029, Note_off_c, 1, 47, 0
1, 39029, Note_off_c, 1, 68, 0
1, 39030, Note_on_c, 1, 66, 127
1, 39030, Note_on_c, 1, 49, 127
1, 39059, Note_off_c, 1, 66, 0
1, 39059, Note_off_c, 1, 49, 0
1, 39060, Note_on_c, 1, 64, 127
1, 39060, Note_on_c, 1, 49, 127
1, 39089, Note_off_c, 1, 49, 0
1, 39090, Note_on_c, 1, 47, 127
1, 39119, Note_off_c, 1, 47, 0
1, 39150, Note_on_c, 1, 74, 127
1, 39150, Note_on_c, 1, 45, 127
1, 39179, Note_off_c, 1, 74, 0
1, 39179, Note_off_c, 1, 45, 0
1, 39180, Note_on_c, 1, 73, 127
1, 39194, Note_off_c, 1, 73, 0
1, 39195, Note_on_c, 1, 71, 127
1, 39209, Note_off_c, 1, 71, 0
1, 39210, Note_on_c, 1, 69, 127
1, 39239, Note_off_c, 1, 69, 0
1, 39270, Note_on_c, 1, 68, 127
1, 39329, Note_off_c, 1, 68, 0
1, 39360, Note_on_c, 1, 67, 127
1, 39374, Note_off_c, 1, 67, 0
1, 39375, Note_off_c, 1, 64, 0
1, 39375, Note_on_c, 1, 63, 127
1, 39375, Note_on_c, 1, 66, 127
1, 39389, Note_off_c, 1, 63, 0
1, 39389, Note_off_c, 1, 66, 0
1, 39390, Note_on_c, 1, 61, 127
1, 39390, Note_on_c, 1, 64, 127
1, 39390, Note_on_c, 1, 46, 127
1, 39419, Note_off_c, 1, 64, 0
1, 39419, Note_off_c, 1, 46, 0
1, 39420, Note_off_c, 1, 61, 0
1, 39420, Note_on_c, 1, 69, 127
1, 39420, Note_on_c, 1, 63, 127
1, 39420, Note_on_c, 1, 47, 127
1, 39449, Note_off_c, 1, 47, 0
1, 39450, Note_on_c, 1, 45, 127
1, 39479, Note_off_c, 1, 45, 0
1, 39480, Note_on_c, 1, 44, 127
1, 39509, Note_off_c, 1, 44, 0
1, 39510, Note_on_c, 1, 42, 127
1, 39539, Note_off_c, 1, 63, 0
1, 39539, Note_off_c, 1, 42, 0
1, 39540, Note_off_c, 1, 69, 0
1, 39540, Note_on_c, 1, 68, 127
1, 39540, Note_on_c, 1, 40, 127
1, 39554, Note_off_c, 1, 68, 0
1, 39570, Note_on_c, 1, 71, 127
1, 39584, Note_off_c, 1, 71, 0
1, 39599, Note_off_c, 1, 40, 0
1, 39600, Note_on_c, 1, 71, 127
1, 39600, Note_on_c, 1, 68, 127
1, 39600, Note_on_c, 1, 52, 127
1, 39614, Note_off_c, 1, 71, 0
1, 39659, Note_off_c, 1, 68, 0
1, 39659, Note_off_c, 1, 52, 0
1, 39660, Note_on_c, 1, 71, 127
1, 39660, Note_on_c, 1, 66, 127
1, 39660, Note_on_c, 1, 51, 127
1, 39674, Note_off_c, 1, 71, 0
1, 39719, Note_off_c, 1, 66, 0
1, 39719, Note_off_c, 1, 51, 0
1, 39720, Note_on_c, 1, 76, 127
1, 39720, Note_on_c, 1, 68, 127
1, 39720, Note_on_c, 1, 49, 127
1, 39734, Note_off_c, 1, 76, 0
1, 39735, Note_on_c, 1, 75, 127
1, 39749, Note_off_c, 1, 75, 0
1, 39750, Note_on_c, 1, 73, 127
1, 39764, Note_off_c, 1, 73, 0
1, 39779, Note_off_c, 1, 68, 0
1, 39779, Note_off_c, 1, 49, 0
1, 39780, Note_on_c, 1, 71, 127
1, 39780, Note_on_c, 1, 66, 127
1, 39780, Note_on_c, 1, 51, 127
1, 39794, Note_off_c, 1, 71, 0
1, 39809, Note_off_c, 1, 66, 0
1, 39809, Note_off_c, 1, 51, 0
1, 39810, Note_on_c, 1, 71, 127
1, 39810, Note_on_c, 1, 64, 127
1, 39810, Note_on_c, 1, 49, 127
1, 39824, Note_off_c, 1, 71, 0
1, 39839, Note_off_c, 1, 64, 0
1, 39839, Note_off_c, 1, 49, 0
1, 39840, Note_on_c, 1, 71, 127
1, 39840, Note_on_c, 1, 66, 127
1, 39840, Note_on_c, 1, 51, 127
1, 39854, Note_off_c, 1, 71, 0
1, 39869, Note_off_c, 1, 66, 0
1, 39869, Note_off_c, 1, 51, 0
1, 39870, Note_on_c, 1, 69, 127
1, 39870, Note_on_c, 1, 63, 127
1, 39870, Note_on_c, 1, 47, 127
1, 39884, Note_off_c, 1, 69, 0
1, 39899, Note_off_c, 1, 63, 0
1, 39899, Note_off_c, 1, 47, 0
1, 39900, Note_on_c, 1, 68, 127
1, 39900, Note_on_c, 1, 64, 127
1, 39900, Note_on_c, 1, 52, 127
1, 39914, Note_off_c, 1, 68, 0
1, 39915, Note_on_c, 1, 66, 127
1, 39929, Note_off_c, 1, 64, 0
1, 39929, Note_off_c, 1, 66, 0
1, 39959, Note_off_c, 1, 52, 0
1, 39960, Note_on_c, 1, 68, 127
1, 39960, Note_on_c, 1, 64, 127
1, 39960, Note_on_c, 1, 59, 127
1, 39989, Note_off_c, 1, 68, 0
1, 39989, Note_off_c, 1, 64, 0
1, 40019, Note_off_c, 1, 59, 0
1, 40020, Note_on_c, 1, 66, 127
1, 40020, Note_on_c, 1, 63, 127
1, 40020, Note_on_c, 1, 47, 127
1, 40030, Note_off_c, 1, 66, 0
1, 40030, Note_on_c, 1, 68, 127
1, 40040, Note_off_c, 1, 68, 0
1, 40079, Note_off_c, 1, 63, 0
1, 40079, Note_off_c, 1, 47, 0
1, 40080, Note_on_c, 1, 64, 127
1, 40080, Note_on_c, 1, 40, 127
1, 40139, Note_off_c, 1, 40, 0
1, 40140, Note_on_c, 1, 52, 127
1, 40169, Note_off_c, 1, 52, 0
1, 40170, Note_on_c, 1, 54, 127
1, 40199, Note_off_c, 1, 64, 0
1, 40199, Note_off_c, 1, 54, 0
1, 40200, Note_on_c, 1, 56, 127
1, 40229, Note_off_c, 1, 56, 0
1, 40230, Note_on_c, 1, 52, 127
1, 40259, Note_off_c, 1, 52, 0
1, 40260, Note_on_c, 1, 73, 127
1, 40260, Note_on_c, 1, 57, 127
1, 40260, Note_on_c, 1, 64, 127
1, 40260, Note_on_c, 1, 61, 127
1, 40319, Note_off_c, 1, 57, 0
1, 40319, Note_off_c, 1, 64, 0
1, 40319, Note_off_c, 1, 61, 0
1, 40349, Note_off_c, 1, 73, 0
1, 40350, Note_on_c, 1, 74, 127
1, 40364, Note_off_c, 1, 74, 0
1, 40365, Note_on_c, 1, 76, 127
1, 40379, Note_off_c, 1, 76, 0
1, 40380, Note_on_c, 1, 74, 127
1, 40380, Note_on_c, 1, 59, 127
1, 40439, Note_off_c, 1, 74, 0
1, 40439, Note_off_c, 1, 59, 0
1, 40440, Note_on_c, 1, 73, 127
1, 40440, Note_on_c, 1, 57, 127
1, 40454, Note_off_c, 1, 73, 0
1, 40455, Note_on_c, 1, 74, 127
1, 40455, Note_on_c, 1, 71, 127
1, 40469, Note_off_c, 1, 74, 0
1, 40469, Note_off_c, 1, 71, 0
1, 40470, Note_on_c, 1, 76, 127
1, 40470, Note_on_c, 1, 69, 127
1, 40484, Note_off_c, 1, 76, 0
1, 40499, Note_off_c, 1, 57, 0
1, 40499, Note_off_c, 1, 69, 0
1, 40500, Note_on_c, 1, 76, 127
1, 40500, Note_on_c, 1, 69, 127
1, 40500, Note_on_c, 1, 56, 127
1, 40514, Note_off_c, 1, 76, 0
1, 40559, Note_off_c, 1, 69, 0
1, 40559, Note_off_c, 1, 56, 0
1, 40560, Note_on_c, 1, 76, 127
1, 40560, Note_on_c, 1, 71, 127
1, 40574, Note_off_c, 1, 76, 0
1, 40619, Note_off_c, 1, 71, 0
1, 40620, Note_on_c, 1, 81, 127
1, 40620, Note_on_c, 1, 69, 127
1, 40620, Note_on_c, 1, 61, 127
1, 40620, Note_on_c, 1, 57, 127
1, 40634, Note_off_c, 1, 81, 0
1, 40635, Note_on_c, 1, 80, 127
1, 40649, Note_off_c, 1, 80, 0
1, 40650, Note_on_c, 1, 78, 127
1, 40664, Note_off_c, 1, 78, 0
1, 40679, Note_off_c, 1, 57, 0
1, 40680, Note_on_c, 1, 49, 127
1, 40709, Note_off_c, 1, 69, 0
1, 40709, Note_off_c, 1, 61, 0
1, 40710, Note_on_c, 1, 71, 127
1, 40710, Note_on_c, 1, 62, 127
1, 40724, Note_off_c, 1, 71, 0
1, 40724, Note_off_c, 1, 62, 0
1, 40725, Note_on_c, 1, 73, 127
1, 40725, Note_on_c, 1, 64, 127
1, 40739, Note_off_c, 1, 49, 0
1, 40739, Note_off_c, 1, 73, 0
1, 40739, Note_off_c, 1, 64, 0
1, 40740, Note_on_c, 1, 76, 127
1, 40740, Note_on_c, 1, 52, 127
1, 40799, Note_off_c, 1, 52, 0
1, 40800, Note_on_c, 1, 45, 127
1, 40815, Note_on_c, 1, 68, 127
1, 40815, Note_on_c, 1, 59, 127
1, 40829, Note_off_c, 1, 68, 0
1, 40829, Note_off_c, 1, 59, 0
1, 40830, Note_on_c, 1, 66, 127
1, 40859, Note_off_c, 1, 45, 0
1, 40860, Note_off_c, 1, 66, 0
1, 40860, Note_on_c, 1, 40, 127
1, 40874, Note_off_c, 1, 76, 0
1, 40919, Note_off_c, 1, 40, 0
1, 40950, Note_on_c, 1, 74, 127
1, 40980, Note_off_c, 1, 74, 0
1, 41040, Note_on_c, 1, 68, 127
1, 41040, Note_on_c, 1, 59, 127
1, 41040, Note_on_c, 1, 49, 127
1, 41040, Note_on_c, 1, 71, 127
1, 41069, Note_off_c, 1, 59, 0
1, 41070, Note_on_c, 1, 66, 127
1, 41070, Note_on_c, 1, 57, 127
1, 41099, Note_off_c, 1, 68, 0
1, 41099, Note_off_c, 1, 49, 0
1, 41099, Note_off_c, 1, 71, 0
1, 41099, Note_off_c, 1, 66, 0
1, 41099, Note_off_c, 1, 57, 0
1, 41100, Note_on_c, 1, 69, 127
1, 41100, Note_on_c, 1, 66, 127
1, 41100, Note_on_c, 1, 57, 127
1, 41100, Note_on_c, 1, 54, 127
1, 41114, Note_off_c, 1, 69, 0
1, 41115, Note_on_c, 1, 71, 127
1, 41115, Note_on_c, 1, 68, 127
1, 41129, Note_off_c, 1, 71, 0
1, 41129, Note_off_c, 1, 68, 0
1, 41130, Note_on_c, 1, 73, 127
1, 41159, Note_off_c, 1, 54, 0
1, 41159, Note_off_c, 1, 73, 0
1, 41160, Note_on_c, 1, 52, 127
1, 41189, Note_off_c, 1, 66, 0
1, 41189, Note_off_c, 1, 57, 0
1, 41219, Note_off_c, 1, 52, 0
1, 41220, Note_on_c, 1, 68, 127
1, 41220, Note_on_c, 1, 59, 127
1, 41220, Note_on_c, 1, 50, 127
1, 41220, Note_on_c, 1, 71, 127
1, 41249, Note_off_c, 1, 59, 0
1, 41250, Note_on_c, 1, 70, 127
1, 41250, Note_on_c, 1, 61, 127
1, 41279, Note_off_c, 1, 50, 0
1, 41279, Note_off_c, 1, 71, 0
1, 41279, Note_off_c, 1, 70, 0
1, 41279, Note_off_c, 1, 61, 0
1, 41280, Note_on_c, 1, 49, 127
1, 41310, Note_on_c, 1, 62, 127
1, 41339, Note_off_c, 1, 49, 0
1, 41339, Note_off_c, 1, 62, 0
1, 41340, Note_off_c, 1, 68, 0
1, 41340, Note_on_c, 1, 74, 127
1, 41340, Note_on_c, 1, 47, 127
1, 41340, Note_on_c, 1, 66, 127
1, 41399, Note_off_c, 1, 47, 0
1, 41399, Note_off_c, 1, 66, 0
1, 41400, Note_on_c, 1, 54, 127
1, 41429, Note_off_c, 1, 74, 0
1, 41429, Note_off_c, 1, 54, 0
1, 41430, Note_on_c, 1, 76, 127
1, 41430, Note_on_c, 1, 73, 127
1, 41430, Note_on_c, 1, 56, 127
1, 41444, Note_off_c, 1, 76, 0
1, 41444, Note_off_c, 1, 73, 0
1, 41445, Note_on_c, 1, 78, 127
1, 41459, Note_off_c, 1, 56, 0
1, 41459, Note_off_c, 1, 78, 0
1, 41460, Note_on_c, 1, 76, 127
1, 41460, Note_on_c, 1, 73, 127
1, 41460, Note_on_c, 1, 58, 127
1, 41489, Note_off_c, 1, 58, 0
1, 41490, Note_on_c, 1, 54, 127
1, 41519, Note_off_c, 1, 76, 0
1, 41519, Note_off_c, 1, 73, 0
1, 41519, Note_off_c, 1, 54, 0
1, 41520, Note_on_c, 1, 74, 127
1, 41520, Note_on_c, 1, 71, 127
1, 41520, Note_on_c, 1, 59, 127
1, 41550, Note_on_c, 1, 73, 127
1, 41550, Note_on_c, 1, 57, 127
1, 41579, Note_off_c, 1, 74, 0
1, 41579, Note_off_c, 1, 71, 0
1, 41579, Note_off_c, 1, 59, 0
1, 41579, Note_off_c, 1, 73, 0
1, 41579, Note_off_c, 1, 57, 0
1, 41580, Note_on_c, 1, 73, 127
1, 41580, Note_on_c, 1, 57, 127
1, 41580, Note_on_c, 1, 61, 127
1, 41580, Note_on_c, 1, 69, 127
1, 41580, Note_on_c, 1, 64, 127
1, 41609, Note_off_c, 1, 73, 0
1, 41609, Note_off_c, 1, 57, 0
1, 41610, Note_on_c, 1, 71, 127
1, 41610, Note_on_c, 1, 56, 127
1, 41639, Note_off_c, 1, 61, 0
1, 41639, Note_off_c, 1, 69, 0
1, 41639, Note_off_c, 1, 64, 0
1, 41639, Note_off_c, 1, 71, 0
1, 41639, Note_off_c, 1, 56, 0
1, 41640, Note_on_c, 1, 71, 127
1, 41640, Note_on_c, 1, 68, 127
1, 41640, Note_on_c, 1, 56, 127
1, 41640, Note_on_c, 1, 62, 127
1, 41654, Note_off_c, 1, 68, 0
1, 41655, Note_on_c, 1, 73, 127
1, 41655, Note_on_c, 1, 69, 127
1, 41669, Note_off_c, 1, 73, 0
1, 41669, Note_off_c, 1, 69, 0
1, 41670, Note_on_c, 1, 74, 127
1, 41699, Note_off_c, 1, 62, 0
1, 41699, Note_off_c, 1, 74, 0
1, 41700, Note_on_c, 1, 52, 127
1, 41729, Note_off_c, 1, 56, 0
1, 41759, Note_off_c, 1, 71, 0
1, 41759, Note_off_c, 1, 52, 0
1, 41760, Note_on_c, 1, 57, 127
1, 41760, Note_on_c, 1, 64, 127
1, 41789, Note_off_c, 1, 57, 0
1, 41790, Note_on_c, 1, 59, 127
1, 41819, Note_off_c, 1, 64, 0
1, 41819, Note_off_c, 1, 59, 0
1, 41820, Note_on_c, 1, 74, 127
1, 41820, Note_on_c, 1, 59, 127
1, 41820, Note_on_c, 1, 62, 127
1, 41820, Note_on_c, 1, 71, 127
1, 41849, Note_off_c, 1, 74, 0
1, 41849, Note_off_c, 1, 59, 0
1, 41850, Note_on_c, 1, 76, 127
1, 41850, Note_on_c, 1, 61, 127
1, 41879, Note_off_c, 1, 62, 0
1, 41879, Note_off_c, 1, 71, 0
1, 41879, Note_off_c, 1, 76, 0
1, 41879, Note_off_c, 1, 61, 0
1, 41880, Note_on_c, 1, 61, 127
1, 41880, Note_on_c, 1, 76, 127
1, 41880, Note_on_c, 1, 69, 127
1, 41880, Note_on_c, 1, 64, 127
1, 41895, Note_on_c, 1, 62, 127
1, 41909, Note_off_c, 1, 62, 0
1, 41939, Note_off_c, 1, 61, 0
1, 41939, Note_off_c, 1, 69, 0
1, 41939, Note_off_c, 1, 64, 0
1, 41940, Note_on_c, 1, 59, 127
1, 41940, Note_on_c, 1, 56, 127
1, 41969, Note_off_c, 1, 59, 0
1, 41969, Note_off_c, 1, 56, 0
1, 41970, Note_on_c, 1, 57, 127
1, 41999, Note_off_c, 1, 57, 0
1, 42060, Note_on_c, 1, 73, 127
1, 42075, Note_on_c, 1, 68, 127
1, 42089, Note_off_c, 1, 68, 0
1, 42090, Note_on_c, 1, 66, 127
1, 42119, Note_off_c, 1, 66, 0
1, 42120, Note_on_c, 1, 49, 127
1, 42149, Note_off_c, 1, 73, 0
1, 42150, Note_on_c, 1, 74, 127
1, 42164, Note_off_c, 1, 74, 0
1, 42179, Note_off_c, 1, 49, 0
1, 42180, Note_on_c, 1, 47, 127
1, 42239, Note_off_c, 1, 47, 0
1, 42240, Note_on_c, 1, 52, 127
1, 42240, Note_on_c, 1, 45, 127
1, 42255, Note_on_c, 1, 71, 127
1, 42269, Note_off_c, 1, 71, 0
1, 42299, Note_off_c, 1, 45, 0
1, 42300, Note_off_c, 1, 76, 0
1, 42300, Note_on_c, 1, 44, 127
1, 42329, Note_off_c, 1, 44, 0
1, 42450, Note_on_c, 1, 40, 127
1, 42479, Note_off_c, 1, 40, 0
1, 42690, Note_on_c, 1, 54, 127
1, 42719, Note_off_c, 1, 54, 0
1, 42720, Note_off_c, 1, 52, 0
1, 42810, Note_on_c, 1, 63, 127
1, 42839, Note_off_c, 1, 63, 0
1, 42870, Note_on_c, 1, 65, 127
1, 42899, Note_off_c, 1, 65, 0
1, 42960, Note_on_c, 1, 69, 127
1, 42960, Note_on_c, 1, 66, 127
1, 42960, Note_on_c, 1, 54, 127
1, 42960, Note_on_c, 1, 42, 127
1, 42974, Note_off_c, 1, 66, 0
1, 42975, Note_on_c, 1, 71, 127
1, 42975, Note_on_c, 1, 68, 127
1, 42989, Note_off_c, 1, 69, 0
1, 42989, Note_off_c, 1, 54, 0
1, 42989, Note_off_c, 1, 71, 0
1, 42989, Note_off_c, 1, 68, 0
1, 42990, Note_on_c, 1, 73, 127
1, 42990, Note_on_c, 1, 53, 127
1, 43019, Note_off_c, 1, 42, 0
1, 43019, Note_off_c, 1, 73, 0
1, 43019, Note_off_c, 1, 53, 0
1, 43020, Note_on_c, 1, 73, 127
1, 43020, Note_on_c, 1, 69, 127
1, 43020, Note_on_c, 1, 54, 127
1, 43050, Note_on_c, 1, 56, 127
1, 43079, Note_off_c, 1, 73, 0
1, 43079, Note_off_c, 1, 69, 0
1, 43079, Note_off_c, 1, 54, 0
1, 43079, Note_off_c, 1, 56, 0
1, 43080, Note_on_c, 1, 63, 127
1, 43080, Note_on_c, 1, 59, 127
1, 43080, Note_on_c, 1, 57, 127
1, 43109, Note_off_c, 1, 57, 0
1, 43110, Note_on_c, 1, 54, 127
1, 43139, Note_off_c, 1, 54, 0
1, 43140, Note_on_c, 1, 71, 127
1, 43140, Note_on_c, 1, 56, 127
1, 43169, Note_off_c, 1, 63, 0
1, 43169, Note_off_c, 1, 59, 0
1, 43170, Note_on_c, 1, 64, 127
1, 43170, Note_on_c, 1, 61, 127
1, 43199, Note_off_c, 1, 64, 0
1, 43199, Note_off_c, 1, 61, 0
1, 43200, Note_on_c, 1, 52, 127
1, 43230, Note_on_c, 1, 66, 127
1, 43259, Note_off_c, 1, 71, 0
1, 43259, Note_off_c, 1, 56, 0
1, 43259, Note_off_c, 1, 52, 0
1, 43259, Note_off_c, 1, 66, 0
1, 43260, Note_on_c, 1, 66, 127
1, 43260, Note_on_c, 1, 63, 127
1, 43260, Note_on_c, 1, 69, 127
1, 43260, Note_on_c, 1, 54, 127
1, 43260, Note_on_c, 1, 47, 127
1, 43289, Note_off_c, 1, 66, 0
1, 43289, Note_off_c, 1, 63, 0
1, 43290, Note_on_c, 1, 68, 127
1, 43290, Note_on_c, 1, 64, 127
1, 43319, Note_off_c, 1, 69, 0
1, 43319, Note_off_c, 1, 54, 0
1, 43319, Note_off_c, 1, 47, 0
1, 43319, Note_off_c, 1, 68, 0
1, 43319, Note_off_c, 1, 64, 0
1, 43320, Note_on_c, 1, 68, 127
1, 43320, Note_on_c, 1, 64, 127
1, 43320, Note_on_c, 1, 52, 127
1, 43320, Note_on_c, 1, 40, 127
1, 43334, Note_off_c, 1, 64, 0
1, 43335, Note_on_c, 1, 69, 127
1, 43335, Note_on_c, 1, 66, 127
1, 43349, Note_off_c, 1, 68, 0
1, 43349, Note_off_c, 1, 52, 0
1, 43349, Note_off_c, 1, 69, 0
1, 43349, Note_off_c, 1, 66, 0
1, 43350, Note_on_c, 1, 71, 127
1, 43350, Note_on_c, 1, 51, 127
1, 43379, Note_off_c, 1, 40, 0
1, 43379, Note_off_c, 1, 71, 0
1, 43379, Note_off_c, 1, 51, 0
1, 43380, Note_on_c, 1, 71, 127
1, 43380, Note_on_c, 1, 68, 127
1, 43380, Note_on_c, 1, 52, 127
1, 43410, Note_on_c, 1, 54, 127
1, 43439, Note_off_c, 1, 68, 0
1, 43439, Note_off_c, 1, 52, 0
1, 43439, Note_off_c, 1, 54, 0
1, 43440, Note_on_c, 1, 59, 127
1, 43440, Note_on_c, 1, 56, 127
1, 43469, Note_off_c, 1, 71, 0
1, 43469, Note_off_c, 1, 56, 0
1, 43470, Note_on_c, 1, 76, 127
1, 43499, Note_off_c, 1, 76, 0
1, 43500, Note_on_c, 1, 75, 127
1, 43514, Note_off_c, 1, 75, 0
1, 43515, Note_on_c, 1, 73, 127
1, 43529, Note_off_c, 1, 59, 0
1, 43529, Note_off_c, 1, 73, 0
1, 43530, Note_on_c, 1, 71, 127
1, 43530, Note_on_c, 1, 57, 127
1, 43530, Note_on_c, 1, 47, 127
1, 43559, Note_off_c, 1, 71, 0
1, 43559, Note_off_c, 1, 57, 0
1, 43559, Note_off_c, 1, 47, 0
1, 43560, Note_on_c, 1, 71, 127
1, 43560, Note_on_c, 1, 55, 127
1, 43560, Note_on_c, 1, 47, 127
1, 43589, Note_off_c, 1, 71, 0
1, 43589, Note_off_c, 1, 55, 0
1, 43589, Note_off_c, 1, 47, 0
1, 43590, Note_on_c, 1, 70, 127
1, 43590, Note_on_c, 1, 54, 127
1, 43590, Note_on_c, 1, 47, 127
1, 43619, Note_off_c, 1, 54, 0
1, 43619, Note_off_c, 1, 47, 0
1, 43620, Note_on_c, 1, 73, 127
1, 43620, Note_on_c, 1, 55, 127
1, 43649, Note_off_c, 1, 70, 0
1, 43649, Note_off_c, 1, 55, 0
1, 43650, Note_on_c, 1, 71, 127
1, 43650, Note_on_c, 1, 52, 127
1, 43679, Note_off_c, 1, 71, 0
1, 43679, Note_off_c, 1, 52, 0
1, 43680, Note_on_c, 1, 69, 127
1, 43680, Note_on_c, 1, 51, 127
1, 43694, Note_off_c, 1, 69, 0
1, 43695, Note_on_c, 1, 68, 127
1, 43709, Note_off_c, 1, 73, 0
1, 43709, Note_off_c, 1, 68, 0
1, 43710, Note_on_c, 1, 66, 127
1, 43710, Note_on_c, 1, 49, 127
1, 43739, Note_off_c, 1, 51, 0
1, 43739, Note_off_c, 1, 66, 0
1, 43739, Note_off_c, 1, 49, 0
1, 43740, Note_on_c, 1, 64, 127
1, 43740, Note_on_c, 1, 69, 127
1, 43740, Note_on_c, 1, 52, 127
1, 43740, Note_on_c, 1, 49, 127
1, 43769, Note_off_c, 1, 69, 0
1, 43769, Note_off_c, 1, 52, 0
1, 43769, Note_off_c, 1, 49, 0
1, 43770, Note_on_c, 1, 68, 127
1, 43770, Note_on_c, 1, 47, 127
1, 43799, Note_off_c, 1, 68, 0
1, 43799, Note_off_c, 1, 47, 0
1, 43800, Note_on_c, 1, 54, 127
1, 43829, Note_off_c, 1, 54, 0
1, 43830, Note_on_c, 1, 74, 127
1, 43830, Note_on_c, 1, 71, 127
1, 43830, Note_on_c, 1, 56, 127
1, 43830, Note_on_c, 1, 45, 127
1, 43859, Note_off_c, 1, 74, 0
1, 43859, Note_off_c, 1, 71, 0
1, 43859, Note_off_c, 1, 56, 0
1, 43859, Note_off_c, 1, 45, 0
1, 43860, Note_on_c, 1, 73, 127
1, 43860, Note_on_c, 1, 57, 127
1, 43919, Note_off_c, 1, 73, 0
1, 43919, Note_off_c, 1, 57, 0
1, 43980, Note_on_c, 1, 76, 127
1, 43980, Note_on_c, 1, 61, 127
1, 44009, Note_off_c, 1, 76, 0
1, 44009, Note_off_c, 1, 61, 0
1, 44010, Note_on_c, 1, 59, 127
1, 44039, Note_off_c, 1, 59, 0
1, 44040, Note_on_c, 1, 67, 127
1, 44054, Note_off_c, 1, 67, 0
1, 44055, Note_off_c, 1, 64, 0
1, 44055, Note_on_c, 1, 63, 127
1, 44055, Note_on_c, 1, 66, 127
1, 44069, Note_off_c, 1, 66, 0
1, 44070, Note_off_c, 1, 63, 0
1, 44070, Note_on_c, 1, 58, 127
1, 44070, Note_on_c, 1, 46, 127
1, 44099, Note_off_c, 1, 58, 0
1, 44099, Note_off_c, 1, 46, 0
1, 44160, Note_on_c, 1, 44, 127
1, 44189, Note_off_c, 1, 44, 0
1, 44190, Note_on_c, 1, 42, 127
1, 44219, Note_off_c, 1, 42, 0
1, 44220, Note_on_c, 1, 40, 127
1, 44279, Note_off_c, 1, 40, 0
1, 44340, Note_on_c, 1, 68, 127
1, 44340, Note_on_c, 1, 64, 127
1, 44340, Note_on_c, 1, 71, 127
1, 44340, Note_on_c, 1, 56, 127
1, 44340, Note_on_c, 1, 51, 127
1, 44369, Note_off_c, 1, 71, 0
1, 44369, Note_off_c, 1, 56, 0
1, 44399, Note_off_c, 1, 68, 0
1, 44399, Note_off_c, 1, 64, 0
1, 44399, Note_off_c, 1, 51, 0
1, 44400, Note_on_c, 1, 76, 127
1, 44400, Note_on_c, 1, 56, 127
1, 44400, Note_on_c, 1, 49, 127
1, 44400, Note_on_c, 1, 68, 127
1, 44400, Note_on_c, 1, 64, 127
1, 44414, Note_off_c, 1, 76, 0
1, 44414, Note_off_c, 1, 56, 0
1, 44415, Note_on_c, 1, 75, 127
1, 44415, Note_on_c, 1, 54, 127
1, 44429, Note_off_c, 1, 75, 0
1, 44429, Note_off_c, 1, 54, 0
1, 44430, Note_on_c, 1, 73, 127
1, 44430, Note_on_c, 1, 52, 127
1, 44459, Note_off_c, 1, 49, 0
1, 44459, Note_off_c, 1, 68, 0
1, 44459, Note_off_c, 1, 64, 0
1, 44459, Note_off_c, 1, 73, 0
1, 44459, Note_off_c, 1, 52, 0
1, 44460, Note_on_c, 1, 66, 127
1, 44460, Note_on_c, 1, 63, 127
1, 44460, Note_on_c, 1, 71, 127
1, 44460, Note_on_c, 1, 54, 127
1, 44460, Note_on_c, 1, 51, 127
1, 44474, Note_off_c, 1, 66, 0
1, 44474, Note_off_c, 1, 63, 0
1, 44475, Note_on_c, 1, 68, 127
1, 44475, Note_on_c, 1, 64, 127
1, 44489, Note_off_c, 1, 51, 0
1, 44489, Note_off_c, 1, 68, 0
1, 44489, Note_off_c, 1, 64, 0
1, 44490, Note_on_c, 1, 69, 127
1, 44490, Note_on_c, 1, 47, 127
1, 44519, Note_off_c, 1, 54, 0
1, 44519, Note_off_c, 1, 69, 0
1, 44519, Note_off_c, 1, 47, 0
1, 44520, Note_on_c, 1, 49, 127
1, 44549, Note_off_c, 1, 71, 0
1, 44549, Note_off_c, 1, 49, 0
1, 44580, Note_on_c, 1, 68, 127
1, 44580, Note_on_c, 1, 52, 127
1, 44580, Note_on_c, 1, 64, 127
1, 44595, Note_on_c, 1, 66, 127
1, 44609, Note_off_c, 1, 66, 0
1, 44639, Note_off_c, 1, 68, 0
1, 44639, Note_off_c, 1, 64, 0
1, 44640, Note_on_c, 1, 59, 127
1, 44669, Note_off_c, 1, 52, 0
1, 44670, Note_on_c, 1, 54, 127
1, 44699, Note_off_c, 1, 59, 0
1, 44699, Note_off_c, 1, 54, 0
1, 44700, Note_on_c, 1, 66, 127
1, 44700, Note_on_c, 1, 51, 127
1, 44700, Note_on_c, 1, 47, 127
1, 44700, Note_on_c, 1, 69, 127
1, 44700, Note_on_c, 1, 63, 127
1, 44759, Note_off_c, 1, 66, 0
1, 44759, Note_off_c, 1, 51, 0
1, 44759, Note_off_c, 1, 47, 0
1, 44759, Note_off_c, 1, 69, 0
1, 44759, Note_off_c, 1, 63, 0
1, 44760, Note_on_c, 1, 68, 127
1, 44760, Note_on_c, 1, 64, 127
1, 44760, Note_on_c, 1, 52, 127
1, 44760, Note_on_c, 1, 40, 127
1, 44819, Note_off_c, 1, 40, 0
1, 44820, Note_on_c, 1, 44, 127
1, 44849, Note_off_c, 1, 68, 0
1, 44850, Note_on_c, 1, 69, 127
1, 44864, Note_off_c, 1, 69, 0
1, 44865, Note_on_c, 1, 71, 127
1, 44879, Note_off_c, 1, 64, 0
1, 44879, Note_off_c, 1, 52, 0
1, 44879, Note_off_c, 1, 44, 0
1, 44879, Note_off_c, 1, 71, 0
1, 44880, Note_on_c, 1, 69, 127
1, 44880, Note_on_c, 1, 47, 127
1, 44939, Note_off_c, 1, 69, 0
1, 44939, Note_off_c, 1, 47, 0
1, 44940, Note_on_c, 1, 71, 127
1, 44940, Note_on_c, 1, 68, 127
1, 44940, Note_on_c, 1, 52, 127
1, 44954, Note_off_c, 1, 68, 0
1, 44955, Note_on_c, 1, 66, 127
1, 44969, Note_off_c, 1, 66, 0
1, 44970, Note_on_c, 1, 64, 127
1, 44999, Note_off_c, 1, 52, 0
1, 44999, Note_off_c, 1, 64, 0
1, 45000, Note_on_c, 1, 51, 127
1, 45029, Note_off_c, 1, 71, 0
1, 45030, Note_on_c, 1, 73, 127
1, 45044, Note_off_c, 1, 73, 0
1, 45045, Note_on_c, 1, 74, 127
1, 45059, Note_off_c, 1, 51, 0
1, 45059, Note_off_c, 1, 74, 0
1, 45060, Note_on_c, 1, 73, 127
1, 45060, Note_on_c, 1, 53, 127
1, 45119, Note_off_c, 1, 73, 0
1, 45119, Note_off_c, 1, 53, 0
1, 45120, Note_on_c, 1, 71, 127
1, 45120, Note_on_c, 1, 73, 127
1, 45120, Note_on_c, 1, 54, 127
1, 45134, Note_off_c, 1, 71, 0
1, 45135, Note_on_c, 1, 69, 127
1, 45149, Note_off_c, 1, 54, 0
1, 45149, Note_off_c, 1, 69, 0
1, 45150, Note_on_c, 1, 68, 127
1, 45150, Note_on_c, 1, 42, 127
1, 45179, Note_off_c, 1, 68, 0
1, 45179, Note_off_c, 1, 42, 0
1, 45209, Note_off_c, 1, 73, 0
1, 45210, Note_on_c, 1, 69, 127
1, 45210, Note_on_c, 1, 74, 127
1, 45210, Note_on_c, 1, 44, 127
1, 45224, Note_off_c, 1, 74, 0
1, 45225, Note_on_c, 1, 76, 127
1, 45239, Note_off_c, 1, 69, 0
1, 45239, Note_off_c, 1, 44, 0
1, 45239, Note_off_c, 1, 76, 0
1, 45240, Note_on_c, 1, 74, 127
1, 45240, Note_on_c, 1, 44, 127
1, 45269, Note_off_c, 1, 44, 0
1, 45270, Note_on_c, 1, 45, 127
1, 45299, Note_off_c, 1, 74, 0
1, 45299, Note_off_c, 1, 45, 0
1, 45300, Note_on_c, 1, 76, 127
1, 45300, Note_on_c, 1, 73, 127
1, 45300, Note_on_c, 1, 45, 127
1, 45314, Note_off_c, 1, 73, 0
1, 45315, Note_on_c, 1, 71, 127
1, 45329, Note_off_c, 1, 71, 0
1, 45330, Note_on_c, 1, 69, 127
1, 45359, Note_off_c, 1, 45, 0
1, 45359, Note_off_c, 1, 69, 0
1, 45360, Note_on_c, 1, 44, 127
1, 45389, Note_off_c, 1, 76, 0
1, 45390, Note_on_c, 1, 78, 127
1, 45404, Note_off_c, 1, 78, 0
1, 45405, Note_on_c, 1, 79, 127
1, 45419, Note_off_c, 1, 44, 0
1, 45419, Note_off_c, 1, 79, 0
1, 45420, Note_on_c, 1, 78, 127
1, 45420, Note_on_c, 1, 46, 127
1, 45479, Note_off_c, 1, 78, 0
1, 45479, Note_off_c, 1, 46, 0
1, 45480, Note_on_c, 1, 76, 127
1, 45480, Note_on_c, 1, 59, 127
1, 45480, Note_on_c, 1, 47, 127
1, 45494, Note_off_c, 1, 76, 0
1, 45495, Note_on_c, 1, 74, 127
1, 45509, Note_off_c, 1, 47, 0
1, 45509, Note_off_c, 1, 74, 0
1, 45510, Note_on_c, 1, 73, 127
1, 45539, Note_off_c, 1, 73, 0
1, 45569, Note_off_c, 1, 59, 0
1, 45570, Note_on_c, 1, 74, 127
1, 45570, Note_on_c, 1, 61, 127
1, 45570, Note_on_c, 1, 57, 127
1, 45599, Note_off_c, 1, 74, 0
1, 45599, Note_off_c, 1, 61, 0
1, 45599, Note_off_c, 1, 57, 0
1, 45600, Note_on_c, 1, 64, 127
1, 45600, Note_on_c, 1, 62, 127
1, 45600, Note_on_c, 1, 57, 127
1, 45614, Note_off_c, 1, 62, 0
1, 45615, Note_on_c, 1, 61, 127
1, 45629, Note_off_c, 1, 57, 0
1, 45629, Note_off_c, 1, 61, 0
1, 45630, Note_on_c, 1, 59, 127
1, 45630, Note_on_c, 1, 56, 127
1, 45659, Note_off_c, 1, 59, 0
1, 45659, Note_off_c, 1, 56, 0
1, 45689, Note_off_c, 1, 64, 0
1, 45690, Note_on_c, 1, 66, 127
1, 45690, Note_on_c, 1, 63, 127
1, 45719, Note_off_c, 1, 66, 0
1, 45719, Note_off_c, 1, 63, 0
1, 45720, Note_on_c, 1, 66, 127
1, 45720, Note_on_c, 1, 63, 127
1, 45720, Note_on_c, 1, 45, 127
1, 45749, Note_off_c, 1, 66, 0
1, 45749, Note_off_c, 1, 63, 0
1, 45750, Note_on_c, 1, 68, 127
1, 45750, Note_on_c, 1, 65, 127
1, 45779, Note_off_c, 1, 45, 0
1, 45779, Note_off_c, 1, 68, 0
1, 45779, Note_off_c, 1, 65, 0
1, 45780, Note_on_c, 1, 68, 127
1, 45780, Note_on_c, 1, 65, 127
1, 45780, Note_on_c, 1, 44, 127
1, 45809, Note_off_c, 1, 68, 0
1, 45809, Note_off_c, 1, 65, 0
1, 45810, Note_on_c, 1, 69, 127
1, 45810, Note_on_c, 1, 66, 127
1, 45839, Note_off_c, 1, 44, 0
1, 45839, Note_off_c, 1, 69, 0
1, 45839, Note_off_c, 1, 66, 0
1, 45840, Note_on_c, 1, 69, 127
1, 45840, Note_on_c, 1, 66, 127
1, 45840, Note_on_c, 1, 42, 127
1, 45854, Note_off_c, 1, 69, 0
1, 45854, Note_off_c, 1, 66, 0
1, 45855, Note_on_c, 1, 71, 127
1, 45855, Note_on_c, 1, 68, 127
1, 45869, Note_off_c, 1, 71, 0
1, 45869, Note_off_c, 1, 68, 0
1, 45870, Note_on_c, 1, 73, 127
1, 45899, Note_off_c, 1, 42, 0
1, 45899, Note_off_c, 1, 73, 0
1, 45900, Note_on_c, 1, 73, 127
1, 45900, Note_on_c, 1, 69, 127
1, 45900, Note_on_c, 1, 54, 127
1, 45929, Note_off_c, 1, 54, 0
1, 45930, Note_on_c, 1, 56, 127
1, 45959, Note_off_c, 1, 73, 0
1, 45959, Note_off_c, 1, 69, 0
1, 45959, Note_off_c, 1, 56, 0
1, 45960, Note_on_c, 1, 63, 127
1, 45960, Note_on_c, 1, 59, 127
1, 45960, Note_on_c, 1, 57, 127
1, 45989, Note_off_c, 1, 57, 0
1, 45990, Note_on_c, 1, 54, 127
1, 46019, Note_off_c, 1, 54, 0
1, 46020, Note_on_c, 1, 56, 127
1, 46049, Note_off_c, 1, 63, 0
1, 46049, Note_off_c, 1, 59, 0
1, 46050, Note_on_c, 1, 64, 127
1, 46050, Note_on_c, 1, 61, 127
1, 46079, Note_off_c, 1, 56, 0
1, 46079, Note_off_c, 1, 64, 0
1, 46079, Note_off_c, 1, 61, 0
1, 46080, Note_on_c, 1, 64, 127
1, 46080, Note_on_c, 1, 61, 127
1, 46080, Note_on_c, 1, 44, 127
1, 46109, Note_off_c, 1, 64, 0
1, 46109, Note_off_c, 1, 61, 0
1, 46110, Note_on_c, 1, 66, 127
1, 46110, Note_on_c, 1, 63, 127
1, 46139, Note_off_c, 1, 44, 0
1, 46139, Note_off_c, 1, 66, 0
1, 46139, Note_off_c, 1, 63, 0
1, 46140, Note_on_c, 1, 66, 127
1, 46140, Note_on_c, 1, 63, 127
1, 46140, Note_on_c, 1, 42, 127
1, 46169, Note_off_c, 1, 66, 0
1, 46169, Note_off_c, 1, 63, 0
1, 46170, Note_on_c, 1, 68, 127
1, 46170, Note_on_c, 1, 64, 127
1, 46199, Note_off_c, 1, 42, 0
1, 46199, Note_off_c, 1, 68, 0
1, 46199, Note_off_c, 1, 64, 0
1, 46200, Note_on_c, 1, 68, 127
1, 46200, Note_on_c, 1, 64, 127
1, 46200, Note_on_c, 1, 40, 127
1, 46214, Note_off_c, 1, 68, 0
1, 46214, Note_off_c, 1, 64, 0
1, 46215, Note_on_c, 1, 69, 127
1, 46215, Note_on_c, 1, 66, 127
1, 46229, Note_off_c, 1, 69, 0
1, 46229, Note_off_c, 1, 66, 0
1, 46230, Note_on_c, 1, 71, 127
1, 46259, Note_off_c, 1, 40, 0
1, 46259, Note_off_c, 1, 71, 0
1, 46260, Note_on_c, 1, 71, 127
1, 46260, Note_on_c, 1, 68, 127
1, 46260, Note_on_c, 1, 52, 127
1, 46289, Note_off_c, 1, 52, 0
1, 46290, Note_on_c, 1, 54, 127
1, 46319, Note_off_c, 1, 68, 0
1, 46319, Note_off_c, 1, 54, 0
1, 46320, Note_on_c, 1, 56, 127
1, 46349, Note_off_c, 1, 71, 0
1, 46349, Note_off_c, 1, 56, 0
1, 46350, Note_on_c, 1, 76, 127
1, 46350, Note_on_c, 1, 52, 127
1, 46379, Note_off_c, 1, 76, 0
1, 46379, Note_off_c, 1, 52, 0
1, 46380, Note_on_c, 1, 75, 127
1, 46380, Note_on_c, 1, 59, 127
1, 46394, Note_off_c, 1, 75, 0
1, 46395, Note_on_c, 1, 73, 127
1, 46409, Note_off_c, 1, 59, 0
1, 46409, Note_off_c, 1, 73, 0
1, 46410, Note_on_c, 1, 71, 127
1, 46410, Note_on_c, 1, 47, 127
1, 46439, Note_off_c, 1, 71, 0
1, 46439, Note_off_c, 1, 47, 0
1, 46440, Note_on_c, 1, 71, 127
1, 46440, Note_on_c, 1, 47, 127
1, 46469, Note_off_c, 1, 71, 0
1, 46469, Note_off_c, 1, 47, 0
1, 46470, Note_on_c, 1, 70, 127
1, 46470, Note_on_c, 1, 47, 127
1, 46499, Note_off_c, 1, 47, 0
1, 46529, Note_off_c, 1, 70, 0
1, 46530, Note_on_c, 1, 71, 127
1, 46530, Note_on_c, 1, 47, 127
1, 46559, Note_off_c, 1, 71, 0
1, 46559, Note_off_c, 1, 47, 0
1, 46560, Note_on_c, 1, 69, 127
1, 46560, Note_on_c, 1, 47, 127
1, 46574, Note_off_c, 1, 69, 0
1, 46575, Note_on_c, 1, 68, 127
1, 46589, Note_off_c, 1, 47, 0
1, 46589, Note_off_c, 1, 68, 0
1, 46590, Note_on_c, 1, 66, 127
1, 46590, Note_on_c, 1, 49, 127
1, 46619, Note_off_c, 1, 66, 0
1, 46619, Note_off_c, 1, 49, 0
1, 46620, Note_on_c, 1, 64, 127
1, 46620, Note_on_c, 1, 49, 127
1, 46649, Note_off_c, 1, 49, 0
1, 46650, Note_on_c, 1, 47, 127
1, 46679, Note_off_c, 1, 47, 0
1, 46710, Note_on_c, 1, 74, 127
1, 46710, Note_on_c, 1, 45, 127
1, 46739, Note_off_c, 1, 74, 0
1, 46739, Note_off_c, 1, 45, 0
1, 46740, Note_on_c, 1, 73, 127
1, 46754, Note_off_c, 1, 73, 0
1, 46755, Note_on_c, 1, 71, 127
1, 46769, Note_off_c, 1, 71, 0
1, 46770, Note_on_c, 1, 69, 127
1, 46799, Note_off_c, 1, 69, 0
1, 46830, Note_on_c, 1, 68, 127
1, 46889, Note_off_c, 1, 68, 0
1, 46920, Note_on_c, 1, 67, 127
1, 46934, Note_off_c, 1, 67, 0
1, 46935, Note_off_c, 1, 64, 0
1, 46935, Note_on_c, 1, 63, 127
1, 46935, Note_on_c, 1, 66, 127
1, 46949, Note_off_c, 1, 66, 0
1, 46950, Note_off_c, 1, 63, 0
1, 46950, Note_on_c, 1, 61, 127
1, 46950, Note_on_c, 1, 46, 127
1, 46979, Note_off_c, 1, 46, 0
1, 46980, Note_off_c, 1, 61, 0
1, 47040, Note_on_c, 1, 44, 127
1, 47069, Note_off_c, 1, 44, 0
1, 47070, Note_on_c, 1, 42, 127
1, 47099, Note_off_c, 1, 42, 0
1, 47100, Note_on_c, 1, 40, 127
1, 47159, Note_off_c, 1, 40, 0
1, 47160, Note_on_c, 1, 71, 127
1, 47160, Note_on_c, 1, 68, 127
1, 47160, Note_on_c, 1, 52, 127
1, 47174, Note_off_c, 1, 71, 0
1, 47219, Note_off_c, 1, 68, 0
1, 47219, Note_off_c, 1, 52, 0
1, 47220, Note_on_c, 1, 71, 127
1, 47220, Note_on_c, 1, 66, 127
1, 47220, Note_on_c, 1, 51, 127
1, 47234, Note_off_c, 1, 71, 0
1, 47279, Note_off_c, 1, 66, 0
1, 47279, Note_off_c, 1, 51, 0
1, 47280, Note_on_c, 1, 76, 127
1, 47280, Note_on_c, 1, 68, 127
1, 47280, Note_on_c, 1, 49, 127
1, 47294, Note_off_c, 1, 76, 0
1, 47295, Note_on_c, 1, 75, 127
1, 47309, Note_off_c, 1, 75, 0
1, 47310, Note_on_c, 1, 73, 127
1, 47324, Note_off_c, 1, 73, 0
1, 47339, Note_off_c, 1, 68, 0
1, 47339, Note_off_c, 1, 49, 0
1, 47340, Note_on_c, 1, 71, 127
1, 47340, Note_on_c, 1, 66, 127
1, 47340, Note_on_c, 1, 51, 127
1, 47354, Note_off_c, 1, 71, 0
1, 47369, Note_off_c, 1, 66, 0
1, 47369, Note_off_c, 1, 51, 0
1, 47370, Note_on_c, 1, 71, 127
1, 47370, Note_on_c, 1, 64, 127
1, 47370, Note_on_c, 1, 49, 127
1, 47384, Note_off_c, 1, 71, 0
1, 47399, Note_off_c, 1, 64, 0
1, 47399, Note_off_c, 1, 49, 0
1, 47400, Note_on_c, 1, 71, 127
1, 47400, Note_on_c, 1, 66, 127
1, 47400, Note_on_c, 1, 51, 127
1, 47414, Note_off_c, 1, 71, 0
1, 47429, Note_off_c, 1, 66, 0
1, 47429, Note_off_c, 1, 51, 0
1, 47430, Note_on_c, 1, 69, 127
1, 47430, Note_on_c, 1, 63, 127
1, 47430, Note_on_c, 1, 47, 127
1, 47444, Note_off_c, 1, 69, 0
1, 47459, Note_off_c, 1, 63, 0
1, 47459, Note_off_c, 1, 47, 0
1, 47460, Note_on_c, 1, 68, 127
1, 47460, Note_on_c, 1, 64, 127
1, 47460, Note_on_c, 1, 52, 127
1, 47474, Note_off_c, 1, 68, 0
1, 47475, Note_on_c, 1, 66, 127
1, 47489, Note_off_c, 1, 64, 0
1, 47489, Note_off_c, 1, 66, 0
1, 47519, Note_off_c, 1, 52, 0
1, 47520, Note_on_c, 1, 68, 127
1, 47520, Note_on_c, 1, 64, 127
1, 47520, Note_on_c, 1, 59, 127
1, 47549, Note_off_c, 1, 64, 0
1, 47579, Note_off_c, 1, 68, 0
1, 47579, Note_off_c, 1, 59, 0
1, 47580, Note_on_c, 1, 66, 127
1, 47580, Note_on_c, 1, 63, 127
1, 47580, Note_on_c, 1, 47, 127
1, 47639, Note_off_c, 1, 66, 0
1, 47639, Note_off_c, 1, 63, 0
1, 47639, Note_off_c, 1, 47, 0
1, 47640, Note_on_c, 1, 64, 127
1, 47640, Note_on_c, 1, 71, 127
1, 47640, Note_on_c, 1, 56, 127
1, 47640, Note_on_c, 1, 52, 127
1, 47669, Note_off_c, 1, 52, 0
1, 47670, Note_on_c, 1, 40, 127
1, 47699, Note_off_c, 1, 40, 0
1, 47729, Note_off_c, 1, 71, 0
1, 47729, Note_off_c, 1, 56, 0
1, 47730, Note_on_c, 1, 73, 127
1, 47730, Note_on_c, 1, 57, 127
1, 47744, Note_off_c, 1, 73, 0
1, 47744, Note_off_c, 1, 57, 0
1, 47745, Note_on_c, 1, 74, 127
1, 47745, Note_on_c, 1, 59, 127
1, 47759, Note_off_c, 1, 64, 0
1, 47759, Note_off_c, 1, 74, 0
1, 47759, Note_off_c, 1, 59, 0
1, 47760, Note_on_c, 1, 73, 127
1, 47760, Note_on_c, 1, 57, 127
1, 47760, Note_on_c, 1, 40, 127
1, 47789, Note_off_c, 1, 40, 0
1, 47819, Note_off_c, 1, 73, 0
1, 47819, Note_off_c, 1, 57, 0
1, 47820, Note_on_c, 1, 71, 127
1, 47820, Note_on_c, 1, 68, 127
1, 47820, Note_on_c, 1, 56, 127
1, 47820, Note_on_c, 1, 40, 127
1, 47834, Note_off_c, 1, 71, 0
1, 47834, Note_off_c, 1, 68, 0
1, 47834, Note_off_c, 1, 56, 0
1, 47835, Note_on_c, 1, 73, 127
1, 47835, Note_on_c, 1, 69, 127
1, 47835, Note_on_c, 1, 54, 127
1, 47849, Note_off_c, 1, 73, 0
1, 47849, Note_off_c, 1, 69, 0
1, 47849, Note_off_c, 1, 54, 0
1, 47850, Note_on_c, 1, 74, 127
1, 47850, Note_on_c, 1, 52, 127
1, 47864, Note_off_c, 1, 74, 0
1, 47879, Note_off_c, 1, 40, 0
1, 47879, Note_off_c, 1, 52, 0
1, 47880, Note_on_c, 1, 74, 127
1, 47880, Note_on_c, 1, 71, 127
1, 47880, Note_on_c, 1, 68, 127
1, 47880, Note_on_c, 1, 52, 127
1, 47894, Note_off_c, 1, 74, 0
1, 47894, Note_off_c, 1, 71, 0
1, 47910, Note_on_c, 1, 54, 127
1, 47939, Note_off_c, 1, 68, 0
1, 47939, Note_off_c, 1, 52, 0
1, 47939, Note_off_c, 1, 54, 0
1, 47940, Note_on_c, 1, 74, 127
1, 47940, Note_on_c, 1, 71, 127
1, 47940, Note_on_c, 1, 56, 127
1, 47954, Note_off_c, 1, 74, 0
1, 47954, Note_off_c, 1, 71, 0
1, 47969, Note_off_c, 1, 56, 0
1, 47970, Note_on_c, 1, 80, 127
1, 47970, Note_on_c, 1, 71, 127
1, 47970, Note_on_c, 1, 52, 127
1, 47984, Note_off_c, 1, 80, 0
1, 47984, Note_off_c, 1, 71, 0
1, 47999, Note_off_c, 1, 52, 0
1, 48000, Note_on_c, 1, 81, 127
1, 48000, Note_on_c, 1, 73, 127
1, 48000, Note_on_c, 1, 52, 127
1, 48000, Note_on_c, 1, 57, 127
1, 48014, Note_off_c, 1, 81, 0
1, 48015, Note_on_c, 1, 80, 127
1, 48029, Note_off_c, 1, 57, 0
1, 48029, Note_off_c, 1, 80, 0
1, 48030, Note_on_c, 1, 78, 127
1, 48030, Note_on_c, 1, 45, 127
1, 48059, Note_off_c, 1, 78, 0
1, 48059, Note_off_c, 1, 45, 0
1, 48060, Note_on_c, 1, 76, 127
1, 48089, Note_off_c, 1, 73, 0
1, 48089, Note_off_c, 1, 52, 0
1, 48090, Note_on_c, 1, 74, 127
1, 48090, Note_on_c, 1, 54, 127
1, 48104, Note_off_c, 1, 74, 0
1, 48104, Note_off_c, 1, 54, 0
1, 48105, Note_on_c, 1, 55, 127
1, 48119, Note_off_c, 1, 76, 0
1, 48119, Note_off_c, 1, 55, 0
1, 48120, Note_on_c, 1, 74, 127
1, 48120, Note_on_c, 1, 54, 127
1, 48120, Note_on_c, 1, 45, 127
1, 48149, Note_off_c, 1, 45, 0
1, 48179, Note_off_c, 1, 74, 0
1, 48179, Note_off_c, 1, 54, 0
1, 48180, Note_on_c, 1, 73, 127
1, 48180, Note_on_c, 1, 64, 127
1, 48180, Note_on_c, 1, 52, 127
1, 48180, Note_on_c, 1, 45, 127
1, 48194, Note_off_c, 1, 73, 0
1, 48194, Note_off_c, 1, 64, 0
1, 48194, Note_off_c, 1, 52, 0
1, 48195, Note_on_c, 1, 74, 127
1, 48195, Note_on_c, 1, 66, 127
1, 48195, Note_on_c, 1, 71, 127
1, 48195, Note_on_c, 1, 50, 127
1, 48209, Note_off_c, 1, 74, 0
1, 48209, Note_off_c, 1, 66, 0
1, 48209, Note_off_c, 1, 71, 0
1, 48209, Note_off_c, 1, 50, 0
1, 48210, Note_on_c, 1, 76, 127
1, 48210, Note_on_c, 1, 67, 127
1, 48210, Note_on_c, 1, 69, 127
1, 48210, Note_on_c, 1, 49, 127
1, 48224, Note_off_c, 1, 76, 0
1, 48224, Note_off_c, 1, 67, 0
1, 48239, Note_off_c, 1, 45, 0
1, 48239, Note_off_c, 1, 69, 0
1, 48239, Note_off_c, 1, 49, 0
1, 48240, Note_on_c, 1, 76, 127
1, 48240, Note_on_c, 1, 67, 127
1, 48240, Note_on_c, 1, 69, 127
1, 48240, Note_on_c, 1, 49, 127
1, 48240, Note_on_c, 1, 56, 127
1, 48254, Note_off_c, 1, 76, 0
1, 48254, Note_off_c, 1, 67, 0
1, 48269, Note_off_c, 1, 56, 0
1, 48270, Note_on_c, 1, 57, 127
1, 48299, Note_off_c, 1, 69, 0
1, 48299, Note_off_c, 1, 49, 0
1, 48299, Note_off_c, 1, 57, 0
1, 48300, Note_on_c, 1, 76, 127
1, 48300, Note_on_c, 1, 67, 127
1, 48300, Note_on_c, 1, 59, 127
1, 48314, Note_off_c, 1, 76, 0
1, 48314, Note_off_c, 1, 67, 0
1, 48329, Note_off_c, 1, 59, 0
1, 48330, Note_on_c, 1, 76, 127
1, 48330, Note_on_c, 1, 73, 127
1, 48330, Note_on_c, 1, 56, 127
1, 48344, Note_off_c, 1, 76, 0
1, 48344, Note_off_c, 1, 73, 0
1, 48359, Note_off_c, 1, 56, 0
1, 48360, Note_on_c, 1, 78, 127
1, 48360, Note_on_c, 1, 74, 127
1, 48360, Note_on_c, 1, 62, 127
1, 48375, Note_on_c, 1, 73, 127
1, 48389, Note_off_c, 1, 73, 0
1, 48390, Note_on_c, 1, 71, 127
1, 48419, Note_off_c, 1, 78, 0
1, 48419, Note_off_c, 1, 62, 0
1, 48419, Note_off_c, 1, 71, 0
1, 48420, Note_on_c, 1, 69, 127
1, 48420, Note_on_c, 1, 50, 127
1, 48449, Note_off_c, 1, 74, 0
1, 48450, Note_on_c, 1, 76, 127
1, 48464, Note_off_c, 1, 76, 0
1, 48479, Note_off_c, 1, 69, 0
1, 48479, Note_off_c, 1, 50, 0
1, 48480, Note_on_c, 1, 73, 127
1, 48480, Note_on_c, 1, 78, 127
1, 48480, Note_on_c, 1, 46, 127
1, 48509, Note_off_c, 1, 78, 0
1, 48510, Note_on_c, 1, 76, 127
1, 48539, Note_off_c, 1, 73, 0
1, 48539, Note_off_c, 1, 46, 0
1, 48539, Note_off_c, 1, 76, 0
1, 48540, Note_on_c, 1, 66, 127
1, 48540, Note_on_c, 1, 76, 127
1, 48540, Note_on_c, 1, 59, 127
1, 48540, Note_on_c, 1, 47, 127
1, 48554, Note_off_c, 1, 76, 0
1, 48555, Note_on_c, 1, 74, 127
1, 48569, Note_off_c, 1, 74, 0
1, 48570, Note_on_c, 1, 73, 127
1, 48599, Note_off_c, 1, 66, 0
1, 48599, Note_off_c, 1, 47, 0
1, 48599, Note_off_c, 1, 73, 0
1, 48600, Note_on_c, 1, 78, 127
1, 48600, Note_on_c, 1, 45, 127
1, 48629, Note_off_c, 1, 59, 0
1, 48630, Note_on_c, 1, 61, 127
1, 48644, Note_off_c, 1, 61, 0
1, 48645, Note_on_c, 1, 62, 127
1, 48659, Note_off_c, 1, 78, 0
1, 48659, Note_off_c, 1, 45, 0
1, 48659, Note_off_c, 1, 62, 0
1, 48660, Note_on_c, 1, 76, 127
1, 48660, Note_on_c, 1, 71, 127
1, 48660, Note_on_c, 1, 61, 127
1, 48660, Note_on_c, 1, 44, 127
1, 48689, Note_off_c, 1, 61, 0
1, 48690, Note_on_c, 1, 59, 127
1, 48719, Note_off_c, 1, 71, 0
1, 48719, Note_off_c, 1, 44, 0
1, 48719, Note_off_c, 1, 59, 0
1, 48720, Note_on_c, 1, 64, 127
1, 48720, Note_on_c, 1, 73, 127
1, 48720, Note_on_c, 1, 45, 127
1, 48735, Note_on_c, 1, 57, 127
1, 48749, Note_off_c, 1, 76, 0
1, 48749, Note_off_c, 1, 57, 0
1, 48750, Note_on_c, 1, 74, 127
1, 48750, Note_on_c, 1, 56, 127
1, 48779, Note_off_c, 1, 64, 0
1, 48779, Note_off_c, 1, 45, 0
1, 48779, Note_off_c, 1, 74, 0
1, 48779, Note_off_c, 1, 56, 0
1, 48780, Note_on_c, 1, 49, 127
1, 48809, Note_off_c, 1, 73, 0
1, 48839, Note_off_c, 1, 49, 0
1, 48840, Note_on_c, 1, 71, 127
1, 48840, Note_on_c, 1, 68, 127
1, 48840, Note_on_c, 1, 76, 127
1, 48840, Note_on_c, 1, 52, 127
1, 48869, Note_off_c, 1, 71, 0
1, 48869, Note_off_c, 1, 76, 0
1, 48870, Note_on_c, 1, 69, 127
1, 48870, Note_on_c, 1, 74, 127
1, 48899, Note_off_c, 1, 68, 0
1, 48899, Note_off_c, 1, 52, 0
1, 48899, Note_off_c, 1, 69, 0
1, 48899, Note_off_c, 1, 74, 0
1, 48900, Note_on_c, 1, 69, 127
1, 48900, Note_on_c, 1, 64, 127
1, 48900, Note_on_c, 1, 74, 127
1, 48900, Note_on_c, 1, 57, 127
1, 48900, Note_on_c, 1, 62, 127
1, 48914, Note_off_c, 1, 74, 0
1, 48915, Note_on_c, 1, 73, 127
1, 48929, Note_off_c, 1, 62, 0
1, 48929, Note_off_c, 1, 73, 0
1, 48930, Note_on_c, 1, 71, 127
1, 48930, Note_on_c, 1, 61, 127
1, 48959, Note_off_c, 1, 69, 0
1, 48959, Note_off_c, 1, 64, 0
1, 48959, Note_off_c, 1, 71, 0
1, 48959, Note_off_c, 1, 61, 0
1, 48960, Note_on_c, 1, 54, 127
1, 48989, Note_off_c, 1, 57, 0
1, 48990, Note_on_c, 1, 59, 127
1, 49004, Note_off_c, 1, 59, 0
1, 49019, Note_off_c, 1, 54, 0
1, 49020, Note_on_c, 1, 74, 127
1, 49020, Note_on_c, 1, 59, 127
1, 49020, Note_on_c, 1, 50, 127
1, 49050, Note_on_c, 1, 57, 127
1, 49079, Note_off_c, 1, 74, 0
1, 49079, Note_off_c, 1, 59, 0
1, 49079, Note_off_c, 1, 50, 0
1, 49079, Note_off_c, 1, 57, 0
1, 49080, Note_on_c, 1, 73, 127
1, 49080, Note_on_c, 1, 57, 127
1, 49080, Note_on_c, 1, 51, 127
1, 49095, Note_off_c, 1, 73, 0
1, 49095, Note_on_c, 1, 74, 127
1, 49109, Note_off_c, 1, 51, 0
1, 49110, Note_off_c, 1, 74, 0
1, 49110, Note_on_c, 1, 39, 127
1, 49139, Note_off_c, 1, 39, 0
1, 49140, Note_on_c, 1, 66, 127
1, 49140, Note_on_c, 1, 63, 127
1, 49154, Note_off_c, 1, 66, 0
1, 49154, Note_off_c, 1, 63, 0
1, 49155, Note_on_c, 1, 68, 127
1, 49155, Note_on_c, 1, 64, 127
1, 49169, Note_off_c, 1, 68, 0
1, 49169, Note_off_c, 1, 64, 0
1, 49170, Note_on_c, 1, 69, 127
1, 49199, Note_off_c, 1, 69, 0
1, 49259, Note_off_c, 1, 57, 0
1, 49260, Note_on_c, 1, 71, 127
1, 49260, Note_on_c, 1, 56, 127
1, 49260, Note_on_c, 1, 40, 127
1, 49318, Note_off_c, 1, 40, 0
1, 49320, Note_on_c, 1, 76, 127
1, 49320, Note_on_c, 1, 44, 127
1, 49378, Note_off_c, 1, 44, 0
1, 49379, Note_off_c, 1, 71, 0
1, 49379, Note_off_c, 1, 56, 0
1, 49379, Note_off_c, 1, 76, 0
1, 49380, Note_on_c, 1, 74, 127
1, 49380, Note_on_c, 1, 71, 127
1, 49380, Note_on_c, 1, 40, 127
1, 49394, Note_off_c, 1, 74, 0
1, 49394, Note_off_c, 1, 71, 0
1, 49395, Note_on_c, 1, 73, 127
1, 49409, Note_off_c, 1, 73, 0
1, 49438, Note_off_c, 1, 40, 0
1, 49440, Note_on_c, 1, 73, 127
1, 49440, Note_on_c, 1, 69, 127
1, 49440, Note_on_c, 1, 57, 127
1, 49440, Note_on_c, 1, 45, 127
1, 49455, Note_on_c, 1, 74, 127
1, 49469, Note_off_c, 1, 73, 0
1, 49469, Note_off_c, 1, 57, 0
1, 49469, Note_off_c, 1, 74, 0
1, 49470, Note_on_c, 1, 76, 127
1, 49470, Note_on_c, 1, 71, 127
1, 49470, Note_on_c, 1, 56, 127
1, 49484, Note_off_c, 1, 76, 0
1, 49498, Note_off_c, 1, 45, 0
1, 49499, Note_off_c, 1, 69, 0
1, 49499, Note_off_c, 1, 71, 0
1, 49499, Note_off_c, 1, 56, 0
1, 49500, Note_on_c, 1, 76, 127
1, 49500, Note_on_c, 1, 71, 127
1, 49500, Note_on_c, 1, 56, 127
1, 49500, Note_on_c, 1, 49, 127
1, 49514, Note_off_c, 1, 76, 0
1, 49529, Note_off_c, 1, 71, 0
1, 49529, Note_off_c, 1, 56, 0
1, 49530, Note_on_c, 1, 69, 127
1, 49530, Note_on_c, 1, 54, 127
1, 49558, Note_off_c, 1, 49, 0
1, 49559, Note_off_c, 1, 69, 0
1, 49559, Note_off_c, 1, 54, 0
1, 49560, Note_on_c, 1, 76, 127
1, 49560, Note_on_c, 1, 69, 127
1, 49560, Note_on_c, 1, 54, 127
1, 49574, Note_off_c, 1, 76, 0
1, 49575, Note_on_c, 1, 74, 127
1, 49589, Note_off_c, 1, 74, 0
1, 49590, Note_on_c, 1, 73, 127
1, 49619, Note_off_c, 1, 73, 0
1, 49620, Note_on_c, 1, 78, 127
1, 49620, Note_on_c, 1, 61, 127
1, 49620, Note_on_c, 1, 52, 127
1, 49634, Note_off_c, 1, 61, 0
1, 49635, Note_on_c, 1, 62, 127
1, 49649, Note_off_c, 1, 69, 0
1, 49649, Note_off_c, 1, 54, 0
1, 49649, Note_off_c, 1, 62, 0
1, 49650, Note_on_c, 1, 64, 127
1, 49664, Note_off_c, 1, 64, 0
1, 49678, Note_off_c, 1, 52, 0
1, 49679, Note_off_c, 1, 78, 0
1, 49680, Note_on_c, 1, 64, 127
1, 49680, Note_on_c, 1, 71, 127
1, 49680, Note_on_c, 1, 56, 127
1, 49680, Note_on_c, 1, 50, 127
1, 49694, Note_off_c, 1, 64, 0
1, 49709, Note_off_c, 1, 71, 0
1, 49709, Note_off_c, 1, 56, 0
1, 49710, Note_on_c, 1, 73, 127
1, 49710, Note_on_c, 1, 58, 127
1, 49738, Note_off_c, 1, 50, 0
1, 49739, Note_off_c, 1, 73, 0
1, 49739, Note_off_c, 1, 58, 0
1, 49740, Note_on_c, 1, 64, 127
1, 49740, Note_on_c, 1, 73, 127
1, 49740, Note_on_c, 1, 58, 127
1, 49740, Note_on_c, 1, 49, 127
1, 49754, Note_off_c, 1, 64, 0
1, 49769, Note_off_c, 1, 73, 0
1, 49769, Note_off_c, 1, 58, 0
1, 49770, Note_on_c, 1, 74, 127
1, 49770, Note_on_c, 1, 59, 127
1, 49798, Note_off_c, 1, 49, 0
1, 49799, Note_off_c, 1, 74, 0
1, 49799, Note_off_c, 1, 59, 0
1, 49800, Note_on_c, 1, 71, 127
1, 49800, Note_on_c, 1, 62, 127
1, 49800, Note_on_c, 1, 74, 127
1, 49800, Note_on_c, 1, 59, 127
1, 49800, Note_on_c, 1, 47, 127
1, 49858, Note_off_c, 1, 47, 0
1, 49860, Note_on_c, 1, 42, 127
1, 49889, Note_off_c, 1, 71, 0
1, 49889, Note_off_c, 1, 62, 0
1, 49889, Note_off_c, 1, 42, 0
1, 49890, Note_on_c, 1, 73, 127
1, 49890, Note_on_c, 1, 64, 127
1, 49890, Note_on_c, 1, 44, 127
1, 49904, Note_off_c, 1, 73, 0
1, 49904, Note_off_c, 1, 64, 0
1, 49905, Note_on_c, 1, 66, 127
1, 49919, Note_off_c, 1, 74, 0
1, 49919, Note_off_c, 1, 59, 0
1, 49919, Note_off_c, 1, 44, 0
1, 49919, Note_off_c, 1, 66, 0
1, 49920, Note_on_c, 1, 73, 127
1, 49920, Note_on_c, 1, 64, 127
1, 49920, Note_on_c, 1, 46, 127
1, 49949, Note_off_c, 1, 46, 0
1, 49950, Note_on_c, 1, 42, 127
1, 49979, Note_off_c, 1, 73, 0
1, 49979, Note_off_c, 1, 64, 0
1, 49979, Note_off_c, 1, 42, 0
1, 49980, Note_on_c, 1, 71, 127
1, 49980, Note_on_c, 1, 62, 127
1, 49980, Note_on_c, 1, 47, 127
1, 50010, Note_on_c, 1, 69, 127
1, 50010, Note_on_c, 1, 61, 127
1, 50039, Note_off_c, 1, 71, 0
1, 50039, Note_off_c, 1, 62, 0
1, 50039, Note_off_c, 1, 47, 0
1, 50039, Note_off_c, 1, 69, 0
1, 50039, Note_off_c, 1, 61, 0
1, 50040, Note_on_c, 1, 69, 127
1, 50040, Note_on_c, 1, 61, 127
1, 50040, Note_on_c, 1, 49, 127
1, 50040, Note_on_c, 1, 64, 127
1, 50069, Note_off_c, 1, 61, 0
1, 50070, Note_on_c, 1, 68, 127
1, 50070, Note_on_c, 1, 59, 127
1, 50099, Note_off_c, 1, 69, 0
1, 50099, Note_off_c, 1, 49, 0
1, 50099, Note_off_c, 1, 64, 0
1, 50099, Note_off_c, 1, 68, 0
1, 50099, Note_off_c, 1, 59, 0
1, 50100, Note_on_c, 1, 68, 127
1, 50100, Note_on_c, 1, 59, 127
1, 50100, Note_on_c, 1, 50, 127
1, 50115, Note_on_c, 1, 69, 127
1, 50115, Note_on_c, 1, 61, 127
1, 50129, Note_off_c, 1, 69, 0
1, 50129, Note_off_c, 1, 61, 0
1, 50130, Note_on_c, 1, 71, 127
1, 50130, Note_on_c, 1, 62, 127
1, 50159, Note_off_c, 1, 50, 0
1, 50159, Note_off_c, 1, 71, 0
1, 50159, Note_off_c, 1, 62, 0
1, 50160, Note_on_c, 1, 40, 127
1, 50189, Note_off_c, 1, 68, 0
1, 50189, Note_off_c, 1, 59, 0
1, 50219, Note_off_c, 1, 40, 0
1, 50220, Note_on_c, 1, 69, 127
1, 50220, Note_on_c, 1, 61, 127
1, 50220, Note_on_c, 1, 52, 127
1, 50220, Note_on_c, 1, 73, 127
1, 50249, Note_off_c, 1, 61, 0
1, 50250, Note_on_c, 1, 71, 127
1, 50250, Note_on_c, 1, 62, 127
1, 50279, Note_off_c, 1, 69, 0
1, 50279, Note_off_c, 1, 52, 0
1, 50279, Note_off_c, 1, 73, 0
1, 50279, Note_off_c, 1, 71, 0
1, 50279, Note_off_c, 1, 62, 0
1, 50280, Note_on_c, 1, 71, 127
1, 50280, Note_on_c, 1, 62, 127
1, 50280, Note_on_c, 1, 50, 127
1, 50280, Note_on_c, 1, 66, 127
1, 50309, Note_off_c, 1, 62, 0
1, 50310, Note_on_c, 1, 73, 127
1, 50310, Note_on_c, 1, 64, 127
1, 50339, Note_off_c, 1, 71, 0
1, 50339, Note_off_c, 1, 50, 0
1, 50339, Note_off_c, 1, 66, 0
1, 50339, Note_off_c, 1, 73, 0
1, 50339, Note_off_c, 1, 64, 0
1, 50340, Note_on_c, 1, 73, 127
1, 50340, Note_on_c, 1, 64, 127
1, 50340, Note_on_c, 1, 49, 127
1, 50340, Note_on_c, 1, 68, 127
1, 50355, Note_on_c, 1, 74, 127
1, 50369, Note_off_c, 1, 74, 0
1, 50370, Note_on_c, 1, 76, 127
1, 50384, Note_off_c, 1, 76, 0
1, 50399, Note_off_c, 1, 73, 0
1, 50399, Note_off_c, 1, 49, 0
1, 50399, Note_off_c, 1, 68, 0
1, 50400, Note_on_c, 1, 71, 127
1, 50400, Note_on_c, 1, 44, 127
1, 50429, Note_off_c, 1, 71, 0
1, 50429, Note_off_c, 1, 44, 0
1, 50430, Note_on_c, 1, 45, 127
1, 50459, Note_off_c, 1, 45, 0
1, 50460, Note_on_c, 1, 47, 127
1, 50489, Note_off_c, 1, 47, 0
1, 50520, Note_on_c, 1, 81, 127
1, 50534, Note_off_c, 1, 81, 0
1, 50535, Note_on_c, 1, 80, 127
1, 50549, Note_off_c, 1, 80, 0
1, 50550, Note_on_c, 1, 78, 127
1, 50579, Note_off_c, 1, 78, 0
1, 50580, Note_on_c, 1, 69, 127
1, 50609, Note_off_c, 1, 69, 0
1, 50760, Note_on_c, 1, 59, 127
1, 50789, Note_off_c, 1, 59, 0
1, 50790, Note_on_c, 1, 61, 127
1, 50819, Note_off_c, 1, 61, 0
1, 50820, Note_on_c, 1, 62, 127
1, 50849, Note_off_c, 1, 62, 0
1, 50910, Note_on_c, 1, 40, 127
1, 50939, Note_off_c, 1, 40, 0
1, 50940, Note_on_c, 1, 57, 127
1, 50969, Note_off_c, 1, 57, 0
1, 50970, Note_on_c, 1, 56, 127
1, 50999, Note_off_c, 1, 56, 0
1, 51060, Note_on_c, 1, 52, 127
1, 51090, Note_on_c, 1, 66, 127
1, 51119, Note_off_c, 1, 66, 0
1, 51120, Note_off_c, 1, 64, 0
1, 51150, Note_on_c, 1, 54, 127
1, 51179, Note_off_c, 1, 52, 0
1, 51179, Note_off_c, 1, 54, 0
1, 51180, Note_on_c, 1, 64, 127
1, 51180, Note_on_c, 1, 56, 127
1, 51209, Note_off_c, 1, 56, 0
1, 51210, Note_on_c, 1, 52, 127
1, 51239, Note_off_c, 1, 52, 0
1, 51240, Note_on_c, 1, 49, 127
1, 51240, Note_on_c, 1, 57, 127
1, 51269, Note_off_c, 1, 64, 0
1, 51269, Note_off_c, 1, 49, 0
1, 51270, Note_on_c, 1, 66, 127
1, 51270, Note_on_c, 1, 51, 127
1, 51299, Note_off_c, 1, 57, 0
1, 51299, Note_off_c, 1, 66, 0
1, 51299, Note_off_c, 1, 51, 0
1, 51300, Note_on_c, 1, 66, 127
1, 51300, Note_on_c, 1, 73, 127
1, 51300, Note_on_c, 1, 51, 127
1, 51300, Note_on_c, 1, 45, 127
1, 51329, Note_off_c, 1, 66, 0
1, 51329, Note_off_c, 1, 51, 0
1, 51330, Note_on_c, 1, 68, 127
1, 51330, Note_on_c, 1, 53, 127
1, 51359, Note_off_c, 1, 73, 0
1, 51359, Note_off_c, 1, 45, 0
1, 51359, Note_off_c, 1, 68, 0
1, 51359, Note_off_c, 1, 53, 0
1, 51360, Note_on_c, 1, 68, 127
1, 51360, Note_on_c, 1, 71, 127
1, 51360, Note_on_c, 1, 53, 127
1, 51360, Note_on_c, 1, 44, 127
1, 51389, Note_off_c, 1, 68, 0
1, 51389, Note_off_c, 1, 53, 0
1, 51390, Note_on_c, 1, 69, 127
1, 51390, Note_on_c, 1, 54, 127
1, 51419, Note_off_c, 1, 71, 0
1, 51419, Note_off_c, 1, 44, 0
1, 51419, Note_off_c, 1, 69, 0
1, 51419, Note_off_c, 1, 54, 0
1, 51420, Note_on_c, 1, 69, 127
1, 51420, Note_on_c, 1, 54, 127
1, 51420, Note_on_c, 1, 42, 127
1, 51434, Note_off_c, 1, 54, 0
1, 51435, Note_on_c, 1, 71, 127
1, 51435, Note_on_c, 1, 56, 127
1, 51449, Note_off_c, 1, 69, 0
1, 51449, Note_off_c, 1, 71, 0
1, 51449, Note_off_c, 1, 56, 0
1, 51450, Note_on_c, 1, 73, 127
1, 51450, Note_on_c, 1, 68, 127
1, 51450, Note_on_c, 1, 57, 127
1, 51479, Note_off_c, 1, 42, 0
1, 51479, Note_off_c, 1, 73, 0
1, 51479, Note_off_c, 1, 68, 0
1, 51479, Note_off_c, 1, 57, 0
1, 51480, Note_on_c, 1, 73, 127
1, 51480, Note_on_c, 1, 66, 127
1, 51480, Note_on_c, 1, 57, 127
1, 51480, Note_on_c, 1, 54, 127
1, 51509, Note_off_c, 1, 57, 0
1, 51510, Note_on_c, 1, 56, 127
1, 51539, Note_off_c, 1, 73, 0
1, 51539, Note_off_c, 1, 66, 0
1, 51539, Note_off_c, 1, 54, 0
1, 51539, Note_off_c, 1, 56, 0
1, 51540, Note_on_c, 1, 69, 127
1, 51540, Note_on_c, 1, 54, 127
1, 51540, Note_on_c, 1, 49, 127
1, 51569, Note_off_c, 1, 54, 0
1, 51570, Note_on_c, 1, 53, 127
1, 51599, Note_off_c, 1, 49, 0
1, 51599, Note_off_c, 1, 53, 0
1, 51600, Note_on_c, 1, 66, 127
1, 51600, Note_on_c, 1, 50, 127
1, 51629, Note_off_c, 1, 69, 0
1, 51629, Note_off_c, 1, 66, 0
1, 51630, Note_on_c, 1, 71, 127
1, 51630, Note_on_c, 1, 68, 127
1, 51659, Note_off_c, 1, 50, 0
1, 51659, Note_off_c, 1, 71, 0
1, 51659, Note_off_c, 1, 68, 0
1, 51660, Note_on_c, 1, 71, 127
1, 51660, Note_on_c, 1, 68, 127
1, 51660, Note_on_c, 1, 54, 127
1, 51660, Note_on_c, 1, 62, 127
1, 51689, Note_off_c, 1, 71, 0
1, 51689, Note_off_c, 1, 68, 0
1, 51690, Note_on_c, 1, 73, 127
1, 51690, Note_on_c, 1, 70, 127
1, 51719, Note_off_c, 1, 54, 0
1, 51719, Note_off_c, 1, 62, 0
1, 51719, Note_off_c, 1, 73, 0
1, 51719, Note_off_c, 1, 70, 0
1, 51720, Note_on_c, 1, 73, 127
1, 51720, Note_on_c, 1, 70, 127
1, 51720, Note_on_c, 1, 52, 127
1, 51720, Note_on_c, 1, 61, 127
1, 51749, Note_off_c, 1, 73, 0
1, 51749, Note_off_c, 1, 70, 0
1, 51750, Note_on_c, 1, 74, 127
1, 51750, Note_on_c, 1, 71, 127
1, 51779, Note_off_c, 1, 52, 0
1, 51779, Note_off_c, 1, 61, 0
1, 51779, Note_off_c, 1, 74, 0
1, 51779, Note_off_c, 1, 71, 0
1, 51780, Note_on_c, 1, 74, 127
1, 51780, Note_on_c, 1, 71, 127
1, 51780, Note_on_c, 1, 50, 127
1, 51780, Note_on_c, 1, 59, 127
1, 51794, Note_off_c, 1, 74, 0
1, 51794, Note_off_c, 1, 71, 0
1, 51795, Note_on_c, 1, 76, 127
1, 51795, Note_on_c, 1, 73, 127
1, 51809, Note_off_c, 1, 50, 0
1, 51809, Note_off_c, 1, 76, 0
1, 51809, Note_off_c, 1, 73, 0
1, 51810, Note_on_c, 1, 78, 127
1, 51810, Note_on_c, 1, 49, 127
1, 51839, Note_off_c, 1, 59, 0
1, 51839, Note_off_c, 1, 78, 0
1, 51839, Note_off_c, 1, 49, 0
1, 51840, Note_on_c, 1, 78, 127
1, 51840, Note_on_c, 1, 74, 127
1, 51840, Note_on_c, 1, 47, 127
1, 51869, Note_off_c, 1, 74, 0
1, 51870, Note_on_c, 1, 73, 127
1, 51870, Note_on_c, 1, 49, 127
1, 51899, Note_off_c, 1, 78, 0
1, 51899, Note_off_c, 1, 47, 0
1, 51899, Note_off_c, 1, 73, 0
1, 51899, Note_off_c, 1, 49, 0
1, 51900, Note_on_c, 1, 66, 127
1, 51900, Note_on_c, 1, 71, 127
1, 51900, Note_on_c, 1, 50, 127
1, 51929, Note_off_c, 1, 71, 0
1, 51929, Note_off_c, 1, 50, 0
1, 51930, Note_on_c, 1, 69, 127
1, 51930, Note_on_c, 1, 47, 127
1, 51959, Note_off_c, 1, 69, 0
1, 51959, Note_off_c, 1, 47, 0
1, 51960, Note_on_c, 1, 68, 127
1, 51960, Note_on_c, 1, 52, 127
1, 51989, Note_off_c, 1, 66, 0
1, 52019, Note_off_c, 1, 68, 0
1, 52019, Note_off_c, 1, 52, 0
1, 52020, Note_on_c, 1, 68, 127
1, 52020, Note_on_c, 1, 71, 127
1, 52020, Note_on_c, 1, 52, 127
1, 52020, Note_on_c, 1, 44, 127
1, 52049, Note_off_c, 1, 68, 0
1, 52049, Note_off_c, 1, 52, 0
1, 52050, Note_on_c, 1, 69, 127
1, 52050, Note_on_c, 1, 54, 127
1, 52079, Note_off_c, 1, 71, 0
1, 52079, Note_off_c, 1, 44, 0
1, 52079, Note_off_c, 1, 69, 0
1, 52079, Note_off_c, 1, 54, 0
1, 52080, Note_on_c, 1, 69, 127
1, 52080, Note_on_c, 1, 54, 127
1, 52080, Note_on_c, 1, 42, 127
1, 52109, Note_off_c, 1, 54, 0
1, 52110, Note_on_c, 1, 71, 127
1, 52110, Note_on_c, 1, 56, 127
1, 52139, Note_off_c, 1, 69, 0
1, 52139, Note_off_c, 1, 42, 0
1, 52139, Note_off_c, 1, 71, 0
1, 52139, Note_off_c, 1, 56, 0
1, 52140, Note_on_c, 1, 71, 127
1, 52140, Note_on_c, 1, 68, 127
1, 52140, Note_on_c, 1, 56, 127
1, 52140, Note_on_c, 1, 40, 127
1, 52154, Note_off_c, 1, 71, 0
1, 52154, Note_off_c, 1, 56, 0
1, 52155, Note_on_c, 1, 73, 127
1, 52155, Note_on_c, 1, 57, 127
1, 52169, Note_off_c, 1, 68, 0
1, 52169, Note_off_c, 1, 73, 0
1, 52169, Note_off_c, 1, 57, 0
1, 52170, Note_on_c, 1, 74, 127
1, 52170, Note_on_c, 1, 66, 127
1, 52170, Note_on_c, 1, 59, 127
1, 52199, Note_off_c, 1, 40, 0
1, 52199, Note_off_c, 1, 74, 0
1, 52199, Note_off_c, 1, 66, 0
1, 52199, Note_off_c, 1, 59, 0
1, 52200, Note_on_c, 1, 74, 127
1, 52200, Note_on_c, 1, 64, 127
1, 52200, Note_on_c, 1, 59, 127
1, 52200, Note_on_c, 1, 44, 127
1, 52229, Note_off_c, 1, 74, 0
1, 52229, Note_off_c, 1, 59, 0
1, 52230, Note_on_c, 1, 73, 127
1, 52230, Note_on_c, 1, 57, 127
1, 52259, Note_off_c, 1, 64, 0
1, 52259, Note_off_c, 1, 44, 0
1, 52259, Note_off_c, 1, 73, 0
1, 52259, Note_off_c, 1, 57, 0
1, 52260, Note_on_c, 1, 71, 127
1, 52260, Note_on_c, 1, 74, 127
1, 52260, Note_on_c, 1, 56, 127
1, 52260, Note_on_c, 1, 40, 127
1, 52289, Note_off_c, 1, 74, 0
1, 52289, Note_off_c, 1, 56, 0
1, 52290, Note_on_c, 1, 76, 127
1, 52290, Note_on_c, 1, 54, 127
1, 52319, Note_off_c, 1, 40, 0
1, 52319, Note_off_c, 1, 76, 0
1, 52319, Note_off_c, 1, 54, 0
1, 52320, Note_on_c, 1, 73, 127
1, 52320, Note_on_c, 1, 52, 127
1, 52320, Note_on_c, 1, 45, 127
1, 52349, Note_off_c, 1, 71, 0
1, 52379, Note_off_c, 1, 73, 0
1, 52379, Note_off_c, 1, 52, 0
1, 52380, Note_on_c, 1, 81, 127
1, 52380, Note_on_c, 1, 69, 127
1, 52380, Note_on_c, 1, 64, 127
1, 52409, Note_off_c, 1, 69, 0
1, 52439, Note_off_c, 1, 45, 0
1, 52439, Note_off_c, 1, 81, 0
1, 52439, Note_off_c, 1, 64, 0
1, 52440, Note_on_c, 1, 74, 127
1, 52440, Note_on_c, 1, 80, 127
1, 52440, Note_on_c, 1, 71, 127
1, 52440, Note_on_c, 1, 62, 127
1, 52469, Note_off_c, 1, 74, 0
1, 52469, Note_off_c, 1, 71, 0
1, 52470, Note_on_c, 1, 76, 127
1, 52470, Note_on_c, 1, 73, 127
1, 52499, Note_off_c, 1, 80, 0
1, 52499, Note_off_c, 1, 62, 0
1, 52499, Note_off_c, 1, 76, 0
1, 52499, Note_off_c, 1, 73, 0
1, 52500, Note_on_c, 1, 76, 127
1, 52500, Note_on_c, 1, 81, 127
1, 52500, Note_on_c, 1, 73, 127
1, 52500, Note_on_c, 1, 61, 127
1, 52514, Note_off_c, 1, 76, 0
1, 52514, Note_off_c, 1, 73, 0
1, 52515, Note_on_c, 1, 78, 127
1, 52515, Note_on_c, 1, 74, 127
1, 52529, Note_off_c, 1, 61, 0
1, 52529, Note_off_c, 1, 78, 0
1, 52529, Note_off_c, 1, 74, 0
1, 52530, Note_on_c, 1, 79, 127
1, 52530, Note_on_c, 1, 59, 127
1, 52559, Note_off_c, 1, 81, 0
1, 52559, Note_off_c, 1, 79, 0
1, 52559, Note_off_c, 1, 59, 0
1, 52560, Note_on_c, 1, 79, 127
1, 52560, Note_on_c, 1, 73, 127
1, 52560, Note_on_c, 1, 76, 127
1, 52560, Note_on_c, 1, 57, 127
1, 52560, Note_on_c, 1, 45, 127
1, 52589, Note_off_c, 1, 76, 0
1, 52589, Note_off_c, 1, 45, 0
1, 52590, Note_on_c, 1, 74, 127
1, 52590, Note_on_c, 1, 47, 127
1, 52619, Note_off_c, 1, 79, 0
1, 52619, Note_off_c, 1, 73, 0
1, 52619, Note_off_c, 1, 57, 0
1, 52619, Note_off_c, 1, 74, 0
1, 52619, Note_off_c, 1, 47, 0
1, 52620, Note_on_c, 1, 69, 127
1, 52620, Note_on_c, 1, 64, 127
1, 52620, Note_on_c, 1, 76, 127
1, 52620, Note_on_c, 1, 49, 127
1, 52649, Note_off_c, 1, 76, 0
1, 52649, Note_off_c, 1, 49, 0
1, 52650, Note_on_c, 1, 73, 127
1, 52650, Note_on_c, 1, 45, 127
1, 52679, Note_off_c, 1, 64, 0
1, 52679, Note_off_c, 1, 73, 0
1, 52679, Note_off_c, 1, 45, 0
1, 52680, Note_on_c, 1, 66, 127
1, 52680, Note_on_c, 1, 74, 127
1, 52680, Note_on_c, 1, 50, 127
1, 52709, Note_off_c, 1, 69, 0
1, 52709, Note_off_c, 1, 66, 0
1, 52710, Note_on_c, 1, 71, 127
1, 52710, Note_on_c, 1, 68, 127
1, 52739, Note_off_c, 1, 74, 0
1, 52739, Note_off_c, 1, 50, 0
1, 52739, Note_off_c, 1, 71, 0
1, 52739, Note_off_c, 1, 68, 0
1, 52740, Note_on_c, 1, 71, 127
1, 52740, Note_on_c, 1, 68, 127
1, 52740, Note_on_c, 1, 78, 127
1, 52740, Note_on_c, 1, 62, 127
1, 52740, Note_on_c, 1, 47, 127
1, 52769, Note_off_c, 1, 71, 0
1, 52769, Note_off_c, 1, 68, 0
1, 52770, Note_on_c, 1, 73, 127
1, 52770, Note_on_c, 1, 70, 127
1, 52799, Note_off_c, 1, 78, 0
1, 52799, Note_off_c, 1, 62, 0
1, 52799, Note_off_c, 1, 47, 0
1, 52799, Note_off_c, 1, 73, 0
1, 52799, Note_off_c, 1, 70, 0
1, 52800, Note_on_c, 1, 73, 127
1, 52800, Note_on_c, 1, 70, 127
1, 52800, Note_on_c, 1, 76, 127
1, 52800, Note_on_c, 1, 61, 127
1, 52800, Note_on_c, 1, 54, 127
1, 52829, Note_off_c, 1, 73, 0
1, 52829, Note_off_c, 1, 70, 0
1, 52830, Note_on_c, 1, 74, 127
1, 52830, Note_on_c, 1, 71, 127
1, 52859, Note_off_c, 1, 76, 0
1, 52859, Note_off_c, 1, 61, 0
1, 52859, Note_off_c, 1, 54, 0
1, 52859, Note_off_c, 1, 74, 0
1, 52859, Note_off_c, 1, 71, 0
1, 52860, Note_on_c, 1, 74, 127
1, 52860, Note_on_c, 1, 71, 127
1, 52860, Note_on_c, 1, 59, 127
1, 52874, Note_off_c, 1, 71, 0
1, 52875, Note_on_c, 1, 76, 127
1, 52875, Note_on_c, 1, 73, 127
1, 52889, Note_off_c, 1, 74, 0
1, 52889, Note_off_c, 1, 76, 0
1, 52889, Note_off_c, 1, 73, 0
1, 52890, Note_on_c, 1, 78, 127
1, 52890, Note_on_c, 1, 58, 127
1, 52919, Note_off_c, 1, 59, 0
1, 52919, Note_off_c, 1, 78, 0
1, 52919, Note_off_c, 1, 58, 0
1, 52920, Note_on_c, 1, 78, 127
1, 52920, Note_on_c, 1, 74, 127
1, 52920, Note_on_c, 1, 59, 127
1, 52920, Note_on_c, 1, 47, 127
1, 52949, Note_off_c, 1, 47, 0
1, 52950, Note_on_c, 1, 49, 127
1, 52979, Note_off_c, 1, 78, 0
1, 52979, Note_off_c, 1, 74, 0
1, 52979, Note_off_c, 1, 59, 0
1, 52979, Note_off_c, 1, 49, 0
1, 52980, Note_on_c, 1, 68, 127
1, 52980, Note_on_c, 1, 64, 127
1, 52980, Note_on_c, 1, 50, 127
1, 53009, Note_off_c, 1, 50, 0
1, 53010, Note_on_c, 1, 47, 127
1, 53039, Note_off_c, 1, 47, 0
1, 53040, Note_on_c, 1, 76, 127
1, 53040, Note_on_c, 1, 61, 127
1, 53040, Note_on_c, 1, 49, 127
1, 53069, Note_off_c, 1, 68, 0
1, 53069, Note_off_c, 1, 64, 0
1, 53070, Note_on_c, 1, 69, 127
1, 53070, Note_on_c, 1, 66, 127
1, 53099, Note_off_c, 1, 49, 0
1, 53099, Note_off_c, 1, 69, 0
1, 53099, Note_off_c, 1, 66, 0
1, 53100, Note_on_c, 1, 45, 127
1, 53130, Note_on_c, 1, 71, 127
1, 53159, Note_off_c, 1, 76, 0
1, 53159, Note_off_c, 1, 61, 0
1, 53159, Note_off_c, 1, 45, 0
1, 53159, Note_off_c, 1, 71, 0
1, 53160, Note_on_c, 1, 71, 127
1, 53160, Note_on_c, 1, 68, 127
1, 53160, Note_on_c, 1, 74, 127
1, 53160, Note_on_c, 1, 59, 127
1, 53160, Note_on_c, 1, 52, 127
1, 53189, Note_off_c, 1, 71, 0
1, 53189, Note_off_c, 1, 68, 0
1, 53190, Note_on_c, 1, 73, 127
1, 53190, Note_on_c, 1, 69, 127
1, 53219, Note_off_c, 1, 74, 0
1, 53219, Note_off_c, 1, 59, 0
1, 53219, Note_off_c, 1, 52, 0
1, 53219, Note_off_c, 1, 73, 0
1, 53219, Note_off_c, 1, 69, 0
1, 53220, Note_on_c, 1, 73, 127
1, 53220, Note_on_c, 1, 69, 127
1, 53220, Note_on_c, 1, 57, 127
1, 53234, Note_off_c, 1, 69, 0
1, 53235, Note_on_c, 1, 74, 127
1, 53235, Note_on_c, 1, 71, 127
1, 53249, Note_off_c, 1, 73, 0
1, 53249, Note_off_c, 1, 74, 0
1, 53249, Note_off_c, 1, 71, 0
1, 53250, Note_on_c, 1, 76, 127
1, 53250, Note_on_c, 1, 56, 127
1, 53279, Note_off_c, 1, 57, 0
1, 53279, Note_off_c, 1, 76, 0
1, 53279, Note_off_c, 1, 56, 0
1, 53280, Note_on_c, 1, 76, 127
1, 53280, Note_on_c, 1, 73, 127
1, 53280, Note_on_c, 1, 57, 127
1, 53280, Note_on_c, 1, 45, 127
1, 53309, Note_off_c, 1, 45, 0
1, 53310, Note_on_c, 1, 47, 127
1, 53339, Note_off_c, 1, 73, 0
1, 53339, Note_off_c, 1, 57, 0
1, 53339, Note_off_c, 1, 47, 0
1, 53340, Note_on_c, 1, 64, 127
1, 53340, Note_on_c, 1, 49, 127
1, 53369, Note_off_c, 1, 76, 0
1, 53369, Note_off_c, 1, 49, 0
1, 53370, Note_on_c, 1, 81, 127
1, 53399, Note_off_c, 1, 81, 0
1, 53400, Note_on_c, 1, 80, 127
1, 53400, Note_on_c, 1, 40, 127
1, 53414, Note_off_c, 1, 80, 0
1, 53415, Note_on_c, 1, 78, 127
1, 53429, Note_off_c, 1, 64, 0
1, 53429, Note_off_c, 1, 40, 0
1, 53429, Note_off_c, 1, 78, 0
1, 53430, Note_on_c, 1, 76, 127
1, 53430, Note_on_c, 1, 62, 127
1, 53430, Note_on_c, 1, 52, 127
1, 53459, Note_off_c, 1, 76, 0
1, 53459, Note_off_c, 1, 62, 0
1, 53459, Note_off_c, 1, 52, 0
1, 53460, Note_on_c, 1, 76, 127
1, 53460, Note_on_c, 1, 60, 127
1, 53460, Note_on_c, 1, 52, 127
1, 53489, Note_off_c, 1, 76, 0
1, 53489, Note_off_c, 1, 60, 0
1, 53489, Note_off_c, 1, 52, 0
1, 53490, Note_on_c, 1, 75, 127
1, 53490, Note_on_c, 1, 59, 127
1, 53490, Note_on_c, 1, 52, 127
1, 53519, Note_off_c, 1, 59, 0
1, 53519, Note_off_c, 1, 52, 0
1, 53520, Note_on_c, 1, 78, 127
1, 53520, Note_on_c, 1, 60, 127
1, 53549, Note_off_c, 1, 75, 0
1, 53549, Note_off_c, 1, 60, 0
1, 53550, Note_on_c, 1, 76, 127
1, 53550, Note_on_c, 1, 57, 127
1, 53579, Note_off_c, 1, 76, 0
1, 53579, Note_off_c, 1, 57, 0
1, 53580, Note_on_c, 1, 74, 127
1, 53580, Note_on_c, 1, 56, 127
1, 53594, Note_off_c, 1, 74, 0
1, 53595, Note_on_c, 1, 73, 127
1, 53609, Note_off_c, 1, 78, 0
1, 53609, Note_off_c, 1, 73, 0
1, 53610, Note_on_c, 1, 71, 127
1, 53610, Note_on_c, 1, 54, 127
1, 53639, Note_off_c, 1, 56, 0
1, 53639, Note_off_c, 1, 71, 0
1, 53639, Note_off_c, 1, 54, 0
1, 53640, Note_on_c, 1, 69, 127
1, 53640, Note_on_c, 1, 74, 127
1, 53640, Note_on_c, 1, 57, 127
1, 53640, Note_on_c, 1, 54, 127
1, 53669, Note_off_c, 1, 74, 0
1, 53669, Note_off_c, 1, 57, 0
1, 53669, Note_off_c, 1, 54, 0
1, 53670, Note_on_c, 1, 73, 127
1, 53670, Note_on_c, 1, 52, 127
1, 53699, Note_off_c, 1, 73, 0
1, 53699, Note_off_c, 1, 52, 0
1, 53700, Note_on_c, 1, 59, 127
1, 53729, Note_off_c, 1, 59, 0
1, 53730, Note_on_c, 1, 79, 127
1, 53730, Note_on_c, 1, 76, 127
1, 53730, Note_on_c, 1, 61, 127
1, 53730, Note_on_c, 1, 50, 127
1, 53759, Note_off_c, 1, 79, 0
1, 53759, Note_off_c, 1, 76, 0
1, 53759, Note_off_c, 1, 61, 0
1, 53759, Note_off_c, 1, 50, 0
1, 53760, Note_on_c, 1, 78, 127
1, 53760, Note_on_c, 1, 62, 127
1, 53819, Note_off_c, 1, 78, 0
1, 53819, Note_off_c, 1, 62, 0
1, 53820, Note_on_c, 1, 80, 127
1, 53849, Note_off_c, 1, 80, 0
1, 53850, Note_on_c, 1, 81, 127
1, 53879, Note_off_c, 1, 81, 0
1, 53910, Note_on_c, 1, 71, 127
1, 53939, Note_off_c, 1, 71, 0
1, 53940, Note_on_c, 1, 72, 127
1, 53955, Note_off_c, 1, 69, 0
1, 53955, Note_on_c, 1, 68, 127
1, 53970, Note_off_c, 1, 68, 0
1, 53970, Note_on_c, 1, 66, 127
1, 53970, Note_on_c, 1, 51, 127
1, 53999, Note_off_c, 1, 72, 0
1, 53999, Note_off_c, 1, 51, 0
1, 54000, Note_off_c, 1, 66, 0
1, 54060, Note_on_c, 1, 49, 127
1, 54089, Note_off_c, 1, 49, 0
1, 54090, Note_on_c, 1, 47, 127
1, 54119, Note_off_c, 1, 47, 0
1, 54120, Note_on_c, 1, 45, 127
1, 54120, Note_on_c, 1, 64, 127
1, 54179, Note_off_c, 1, 45, 0
1, 54179, Note_off_c, 1, 64, 0
1, 54240, Note_on_c, 1, 69, 127
1, 54240, Note_on_c, 1, 61, 127
1, 54240, Note_on_c, 1, 76, 127
1, 54240, Note_on_c, 1, 56, 127
1, 54269, Note_off_c, 1, 76, 0
1, 54299, Note_off_c, 1, 69, 0
1, 54299, Note_off_c, 1, 61, 0
1, 54299, Note_off_c, 1, 56, 0
1, 54300, Note_on_c, 1, 81, 127
1, 54300, Note_on_c, 1, 61, 127
1, 54300, Note_on_c, 1, 54, 127
1, 54300, Note_on_c, 1, 73, 127
1, 54300, Note_on_c, 1, 69, 127
1, 54300, Note_on_c, 1, 66, 127
1, 54314, Note_off_c, 1, 81, 0
1, 54314, Note_off_c, 1, 61, 0
1, 54315, Note_on_c, 1, 80, 127
1, 54315, Note_on_c, 1, 59, 127
1, 54329, Note_off_c, 1, 80, 0
1, 54329, Note_off_c, 1, 59, 0
1, 54330, Note_on_c, 1, 78, 127
1, 54330, Note_on_c, 1, 57, 127
1, 54359, Note_off_c, 1, 54, 0
1, 54359, Note_off_c, 1, 73, 0
1, 54359, Note_off_c, 1, 69, 0
1, 54359, Note_off_c, 1, 66, 0
1, 54359, Note_off_c, 1, 78, 0
1, 54359, Note_off_c, 1, 57, 0
1, 54360, Note_on_c, 1, 68, 127
1, 54360, Note_on_c, 1, 59, 127
1, 54360, Note_on_c, 1, 76, 127
1, 54360, Note_on_c, 1, 56, 127
1, 54374, Note_off_c, 1, 68, 0
1, 54375, Note_on_c, 1, 69, 127
1, 54375, Note_on_c, 1, 61, 127
1, 54389, Note_off_c, 1, 56, 0
1, 54389, Note_off_c, 1, 69, 0
1, 54389, Note_off_c, 1, 61, 0
1, 54390, Note_on_c, 1, 71, 127
1, 54390, Note_on_c, 1, 62, 127
1, 54390, Note_on_c, 1, 52, 127
1, 54419, Note_off_c, 1, 59, 0
1, 54419, Note_off_c, 1, 71, 0
1, 54419, Note_off_c, 1, 62, 0
1, 54419, Note_off_c, 1, 52, 0
1, 54420, Note_on_c, 1, 54, 127
1, 54449, Note_off_c, 1, 76, 0
1, 54449, Note_off_c, 1, 54, 0
1, 54450, Note_on_c, 1, 74, 127
1, 54479, Note_off_c, 1, 74, 0
1, 54480, Note_on_c, 1, 73, 127
1, 54480, Note_on_c, 1, 57, 127
1, 54480, Note_on_c, 1, 69, 127
1, 54480, Note_on_c, 1, 64, 127
1, 54495, Note_on_c, 1, 71, 127
1, 54509, Note_off_c, 1, 71, 0
1, 54539, Note_off_c, 1, 73, 0
1, 54539, Note_off_c, 1, 69, 0
1, 54539, Note_off_c, 1, 64, 0
1, 54540, Note_on_c, 1, 52, 127
1, 54569, Note_off_c, 1, 57, 0
1, 54570, Note_on_c, 1, 59, 127
1, 54599, Note_off_c, 1, 52, 0
1, 54599, Note_off_c, 1, 59, 0
1, 54600, Note_on_c, 1, 71, 127
1, 54600, Note_on_c, 1, 56, 127
1, 54600, Note_on_c, 1, 40, 127
1, 54600, Note_on_c, 1, 68, 127
1, 54600, Note_on_c, 1, 64, 127
1, 54609, Note_off_c, 1, 71, 0
1, 54610, Note_on_c, 1, 73, 127
1, 54619, Note_off_c, 1, 73, 0
1, 54659, Note_off_c, 1, 56, 0
1, 54659, Note_off_c, 1, 40, 0
1, 54659, Note_off_c, 1, 68, 0
1, 54659, Note_off_c, 1, 64, 0
1, 54660, Note_on_c, 1, 69, 127
1, 54660, Note_on_c, 1, 57, 127
1, 54660, Note_on_c, 1, 45, 127
1, 54660, Note_on_c, 1, 61, 127
1, 54689, Note_off_c, 1, 57, 0
1, 54690, Note_on_c, 1, 66, 127
1, 54690, Note_on_c, 1, 50, 127
1, 54719, Note_off_c, 1, 69, 0
1, 54719, Note_off_c, 1, 45, 0
1, 54719, Note_off_c, 1, 61, 0
1, 54719, Note_off_c, 1, 66, 0
1, 54719, Note_off_c, 1, 50, 0
1, 54720, Note_on_c, 1, 64, 127
1, 54720, Note_on_c, 1, 49, 127
1, 54720, Note_on_c, 1, 73, 127
1, 54750, Note_on_c, 1, 62, 127
1, 54750, Note_on_c, 1, 47, 127
1, 54779, Note_off_c, 1, 64, 0
1, 54779, Note_off_c, 1, 49, 0
1, 54779, Note_off_c, 1, 73, 0
1, 54779, Note_off_c, 1, 62, 0
1, 54779, Note_off_c, 1, 47, 0
1, 54780, Note_on_c, 1, 62, 127
1, 54780, Note_on_c, 1, 47, 127
1, 54780, Note_on_c, 1, 52, 127
1, 54780, Note_on_c, 1, 71, 127
1, 54780, Note_on_c, 1, 68, 127
1, 54809, Note_off_c, 1, 47, 0
1, 54810, Note_on_c, 1, 61, 127
1, 54810, Note_on_c, 1, 45, 127
1, 54839, Note_off_c, 1, 62, 0
1, 54839, Note_off_c, 1, 52, 0
1, 54839, Note_off_c, 1, 71, 0
1, 54839, Note_off_c, 1, 68, 0
1, 54839, Note_off_c, 1, 61, 0
1, 54839, Note_off_c, 1, 45, 0
1, 54840, Note_on_c, 1, 73, 127
1, 54840, Note_on_c, 1, 61, 127
1, 54840, Note_on_c, 1, 45, 127
1, 54840, Note_on_c, 1, 57, 127
1, 54840, Note_on_c, 1, 69, 127
1, 54840, Note_on_c, 1, 64, 127
1, 54899, Note_off_c, 1, 61, 0
1, 54899, Note_off_c, 1, 45, 0
1, 54899, Note_off_c, 1, 57, 0
1, 54899, Note_off_c, 1, 69, 0
1, 54899, Note_off_c, 1, 64, 0
1, 54929, Note_off_c, 1, 73, 0
1, 54930, Note_on_c, 1, 74, 127
1, 54944, Note_off_c, 1, 74, 0
1, 54945, Note_on_c, 1, 76, 127
1, 54959, Note_off_c, 1, 76, 0
1, 54960, Note_on_c, 1, 74, 127
1, 54960, Note_on_c, 1, 59, 127
1, 55019, Note_off_c, 1, 74, 0
1, 55019, Note_off_c, 1, 59, 0
1, 55020, Note_on_c, 1, 73, 127
1, 55020, Note_on_c, 1, 57, 127
1, 55034, Note_off_c, 1, 73, 0
1, 55035, Note_on_c, 1, 71, 127
1, 55049, Note_off_c, 1, 71, 0
1, 55050, Note_on_c, 1, 69, 127
1, 55079, Note_off_c, 1, 57, 0
1, 55079, Note_off_c, 1, 69, 0
1, 55080, Note_on_c, 1, 69, 127
1, 55080, Note_on_c, 1, 52, 127
1, 55109, Note_off_c, 1, 52, 0
1, 55110, Note_on_c, 1, 54, 127
1, 55139, Note_off_c, 1, 69, 0
1, 55139, Note_off_c, 1, 54, 0
1, 55140, Note_on_c, 1, 71, 127
1, 55140, Note_on_c, 1, 56, 127
1, 55169, Note_off_c, 1, 56, 0
1, 55170, Note_on_c, 1, 52, 127
1, 55199, Note_off_c, 1, 71, 0
1, 55199, Note_off_c, 1, 52, 0
1, 55200, Note_on_c, 1, 69, 127
1, 55200, Note_on_c, 1, 61, 127
1, 55200, Note_on_c, 1, 57, 127
1, 55259, Note_off_c, 1, 57, 0
1, 55260, Note_on_c, 1, 49, 127
1, 55289, Note_off_c, 1, 69, 0
1, 55289, Note_off_c, 1, 61, 0
1, 55290, Note_on_c, 1, 71, 127
1, 55290, Note_on_c, 1, 62, 127
1, 55304, Note_off_c, 1, 71, 0
1, 55304, Note_off_c, 1, 62, 0
1, 55305, Note_on_c, 1, 73, 127
1, 55305, Note_on_c, 1, 64, 127
1, 55319, Note_off_c, 1, 49, 0
1, 55319, Note_off_c, 1, 73, 0
1, 55319, Note_off_c, 1, 64, 0
1, 55320, Note_on_c, 1, 71, 127
1, 55320, Note_on_c, 1, 62, 127
1, 55320, Note_on_c, 1, 52, 127
1, 55379, Note_off_c, 1, 71, 0
1, 55379, Note_off_c, 1, 62, 0
1, 55379, Note_off_c, 1, 52, 0
1, 55380, Note_on_c, 1, 69, 127
1, 55380, Note_on_c, 1, 61, 127
1, 55380, Note_on_c, 1, 45, 127
1, 55394, Note_off_c, 1, 69, 0
1, 55394, Note_off_c, 1, 61, 0
1, 55395, Note_on_c, 1, 68, 127
1, 55395, Note_on_c, 1, 59, 127
1, 55409, Note_off_c, 1, 68, 0
1, 55409, Note_off_c, 1, 59, 0
1, 55410, Note_on_c, 1, 66, 127
1, 55410, Note_on_c, 1, 57, 127
1, 55439, Note_off_c, 1, 45, 0
1, 55439, Note_off_c, 1, 66, 0
1, 55439, Note_off_c, 1, 57, 0
1, 55440, Note_on_c, 1, 66, 127
1, 55440, Note_on_c, 1, 57, 127
1, 55440, Note_on_c, 1, 52, 127
1, 55469, Note_off_c, 1, 57, 0
1, 55469, Note_off_c, 1, 52, 0
1, 55470, Note_off_c, 1, 66, 0
1, 55470, Note_on_c, 1, 68, 127
1, 55470, Note_on_c, 1, 59, 127
1, 55470, Note_on_c, 1, 54, 127
1, 55499, Note_off_c, 1, 59, 0
1, 55499, Note_off_c, 1, 54, 0
1, 55500, Note_off_c, 1, 68, 0
1, 55500, Note_on_c, 1, 64, 127
1, 55500, Note_on_c, 1, 56, 127
1, 55529, Note_off_c, 1, 56, 0
1, 55589, Note_off_c, 1, 64, 0
1, 55620, Note_on_c, 1, 66, 127
1, 55620, Note_on_c, 1, 45, 127
1, 55649, Note_off_c, 1, 66, 0
1, 55650, Note_on_c, 1, 68, 127
1, 55679, Note_off_c, 1, 45, 0
1, 55679, Note_off_c, 1, 68, 0
1, 55680, Note_on_c, 1, 68, 127
1, 55680, Note_on_c, 1, 61, 127
1, 55680, Note_on_c, 1, 41, 127
1, 55709, Note_off_c, 1, 68, 0
1, 55710, Note_on_c, 1, 69, 127
1, 55739, Note_off_c, 1, 41, 0
1, 55739, Note_off_c, 1, 69, 0
1, 55740, Note_on_c, 1, 42, 127
1, 55769, Note_off_c, 1, 61, 0
1, 55770, Note_on_c, 1, 62, 127
1, 55799, Note_off_c, 1, 42, 0
1, 55799, Note_off_c, 1, 62, 0
1, 55800, Note_on_c, 1, 54, 127
1, 55830, Note_on_c, 1, 64, 127
1, 55859, Note_off_c, 1, 54, 0
1, 55859, Note_off_c, 1, 64, 0
1, 55860, Note_on_c, 1, 49, 127
1, 55890, Note_on_c, 1, 66, 127
1, 55919, Note_off_c, 1, 49, 0
1, 55919, Note_off_c, 1, 66, 0
1, 55920, Note_on_c, 1, 50, 127
1, 55950, Note_on_c, 1, 71, 127
1, 55979, Note_off_c, 1, 50, 0
1, 55979, Note_off_c, 1, 71, 0
1, 56010, Note_on_c, 1, 73, 127
1, 56039, Note_off_c, 1, 73, 0
1, 56040, Note_on_c, 1, 58, 127
1, 56070, Note_on_c, 1, 74, 127
1, 56099, Note_off_c, 1, 58, 0
1, 56099, Note_off_c, 1, 74, 0
1, 56100, Note_on_c, 1, 59, 127
1, 56159, Note_off_c, 1, 59, 0
1, 56160, Note_on_c, 1, 47, 127
1, 56219, Note_off_c, 1, 47, 0
1, 56280, Note_on_c, 1, 44, 127
1, 56294, Note_off_c, 1, 44, 0
1, 56295, Note_on_c, 1, 45, 127
1, 56309, Note_off_c, 1, 45, 0
1, 56310, Note_on_c, 1, 71, 127
1, 56310, Note_on_c, 1, 68, 127
1, 56310, Note_on_c, 1, 47, 127
1, 56339, Note_off_c, 1, 71, 0
1, 56339, Note_off_c, 1, 68, 0
1, 56339, Note_off_c, 1, 47, 0
1, 56340, Note_on_c, 1, 73, 127
1, 56340, Note_on_c, 1, 69, 127
1, 56340, Note_on_c, 1, 40, 127
1, 56354, Note_off_c, 1, 73, 0
1, 56354, Note_off_c, 1, 69, 0
1, 56355, Note_off_c, 1, 40, 0
1, 56355, Note_on_c, 1, 74, 127
1, 56355, Note_on_c, 1, 71, 127
1, 56369, Note_off_c, 1, 74, 0
1, 56369, Note_off_c, 1, 71, 0
1, 56370, Note_on_c, 1, 76, 127
1, 56370, Note_on_c, 1, 73, 127
1, 56370, Note_on_c, 1, 40, 127
1, 56384, Note_off_c, 1, 73, 0
1, 56385, Note_off_c, 1, 40, 0
1, 56399, Note_off_c, 1, 76, 0
1, 56400, Note_on_c, 1, 76, 127
1, 56400, Note_on_c, 1, 73, 127
1, 56400, Note_on_c, 1, 40, 127
1, 56414, Note_off_c, 1, 73, 0
1, 56415, Note_off_c, 1, 40, 0
1, 56429, Note_off_c, 1, 76, 0
1, 56430, Note_on_c, 1, 81, 127
1, 56430, Note_on_c, 1, 73, 127
1, 56430, Note_on_c, 1, 40, 127
1, 56444, Note_off_c, 1, 73, 0
1, 56445, Note_off_c, 1, 40, 0
1, 56459, Note_off_c, 1, 81, 0
1, 56460, Note_on_c, 1, 80, 127
1, 56460, Note_on_c, 1, 71, 127
1, 56460, Note_on_c, 1, 40, 127
1, 56474, Note_off_c, 1, 80, 0
1, 56474, Note_off_c, 1, 71, 0
1, 56475, Note_on_c, 1, 78, 127
1, 56475, Note_on_c, 1, 69, 127
1, 56489, Note_off_c, 1, 40, 0
1, 56489, Note_off_c, 1, 78, 0
1, 56489, Note_off_c, 1, 69, 0
1, 56490, Note_on_c, 1, 76, 127
1, 56490, Note_on_c, 1, 68, 127
1, 56490, Note_on_c, 1, 52, 127
1, 56519, Note_off_c, 1, 76, 0
1, 56519, Note_off_c, 1, 68, 0
1, 56519, Note_off_c, 1, 52, 0
1, 56520, Note_on_c, 1, 76, 127
1, 56520, Note_on_c, 1, 68, 127
1, 56520, Note_on_c, 1, 52, 127
1, 56549, Note_off_c, 1, 76, 0
1, 56549, Note_off_c, 1, 68, 0
1, 56549, Note_off_c, 1, 52, 0
1, 56550, Note_on_c, 1, 75, 127
1, 56550, Note_on_c, 1, 66, 127
1, 56550, Note_on_c, 1, 52, 127
1, 56579, Note_off_c, 1, 52, 0
1, 56609, Note_off_c, 1, 75, 0
1, 56609, Note_off_c, 1, 66, 0
1, 56610, Note_on_c, 1, 76, 127
1, 56610, Note_on_c, 1, 68, 127
1, 56610, Note_on_c, 1, 52, 127
1, 56639, Note_off_c, 1, 76, 0
1, 56639, Note_off_c, 1, 68, 0
1, 56639, Note_off_c, 1, 52, 0
1, 56640, Note_on_c, 1, 74, 127
1, 56640, Note_on_c, 1, 68, 127
1, 56640, Note_on_c, 1, 52, 127
1, 56654, Note_off_c, 1, 74, 0
1, 56655, Note_on_c, 1, 73, 127
1, 56669, Note_off_c, 1, 52, 0
1, 56669, Note_off_c, 1, 73, 0
1, 56670, Note_on_c, 1, 71, 127
1, 56670, Note_on_c, 1, 54, 127
1, 56699, Note_off_c, 1, 68, 0
1, 56699, Note_off_c, 1, 71, 0
1, 56699, Note_off_c, 1, 54, 0
1, 56700, Note_on_c, 1, 69, 127
1, 56700, Note_on_c, 1, 54, 127
1, 56729, Note_off_c, 1, 54, 0
1, 56730, Note_on_c, 1, 52, 127
1, 56759, Note_off_c, 1, 52, 0
1, 56790, Note_on_c, 1, 79, 127
1, 56790, Note_on_c, 1, 50, 127
1, 56819, Note_off_c, 1, 79, 0
1, 56819, Note_off_c, 1, 50, 0
1, 56820, Note_on_c, 1, 78, 127
1, 56834, Note_off_c, 1, 78, 0
1, 56835, Note_on_c, 1, 76, 127
1, 56849, Note_off_c, 1, 76, 0
1, 56850, Note_on_c, 1, 74, 127
1, 56879, Note_off_c, 1, 74, 0
1, 56910, Note_on_c, 1, 73, 127
1, 56969, Note_off_c, 1, 73, 0
1, 57000, Note_on_c, 1, 72, 127
1, 57014, Note_off_c, 1, 72, 0
1, 57015, Note_off_c, 1, 69, 0
1, 57015, Note_on_c, 1, 68, 127
1, 57015, Note_on_c, 1, 71, 127
1, 57029, Note_off_c, 1, 68, 0
1, 57029, Note_off_c, 1, 71, 0
1, 57030, Note_on_c, 1, 66, 127
1, 57030, Note_on_c, 1, 69, 127
1, 57030, Note_on_c, 1, 51, 127
1, 57059, Note_off_c, 1, 66, 0
1, 57059, Note_off_c, 1, 69, 0
1, 57059, Note_off_c, 1, 51, 0
1, 57060, Note_on_c, 1, 74, 127
1, 57060, Note_on_c, 1, 68, 127
1, 57060, Note_on_c, 1, 52, 127
1, 57089, Note_off_c, 1, 52, 0
1, 57090, Note_on_c, 1, 50, 127
1, 57119, Note_off_c, 1, 50, 0
1, 57120, Note_on_c, 1, 49, 127
1, 57149, Note_off_c, 1, 49, 0
1, 57150, Note_on_c, 1, 47, 127
1, 57179, Note_off_c, 1, 74, 0
1, 57179, Note_off_c, 1, 68, 0
1, 57179, Note_off_c, 1, 47, 0
1, 57180, Note_on_c, 1, 73, 127
1, 57180, Note_on_c, 1, 69, 127
1, 57180, Note_on_c, 1, 45, 127
1, 57194, Note_off_c, 1, 73, 0
1, 57195, Note_on_c, 1, 74, 127
1, 57209, Note_off_c, 1, 74, 0
1, 57210, Note_on_c, 1, 76, 127
1, 57224, Note_off_c, 1, 76, 0
1, 57239, Note_off_c, 1, 69, 0
1, 57239, Note_off_c, 1, 45, 0
1, 57240, Note_on_c, 1, 76, 127
1, 57240, Note_on_c, 1, 73, 127
1, 57240, Note_on_c, 1, 57, 127
1, 57254, Note_off_c, 1, 76, 0
1, 57299, Note_off_c, 1, 73, 0
1, 57299, Note_off_c, 1, 57, 0
1, 57300, Note_on_c, 1, 76, 127
1, 57300, Note_on_c, 1, 71, 127
1, 57300, Note_on_c, 1, 56, 127
1, 57314, Note_off_c, 1, 76, 0
1, 57359, Note_off_c, 1, 71, 0
1, 57359, Note_off_c, 1, 56, 0
1, 57360, Note_on_c, 1, 81, 127
1, 57360, Note_on_c, 1, 73, 127
1, 57360, Note_on_c, 1, 54, 127
1, 57374, Note_off_c, 1, 81, 0
1, 57375, Note_on_c, 1, 80, 127
1, 57389, Note_off_c, 1, 80, 0
1, 57390, Note_on_c, 1, 78, 127
1, 57404, Note_off_c, 1, 78, 0
1, 57419, Note_off_c, 1, 73, 0
1, 57419, Note_off_c, 1, 54, 0
1, 57420, Note_on_c, 1, 76, 127
1, 57420, Note_on_c, 1, 71, 127
1, 57420, Note_on_c, 1, 56, 127
1, 57434, Note_off_c, 1, 76, 0
1, 57449, Note_off_c, 1, 71, 0
1, 57449, Note_off_c, 1, 56, 0
1, 57450, Note_on_c, 1, 76, 127
1, 57450, Note_on_c, 1, 69, 127
1, 57450, Note_on_c, 1, 54, 127
1, 57464, Note_off_c, 1, 76, 0
1, 57479, Note_off_c, 1, 69, 0
1, 57479, Note_off_c, 1, 54, 0
1, 57480, Note_on_c, 1, 76, 127
1, 57480, Note_on_c, 1, 71, 127
1, 57480, Note_on_c, 1, 56, 127
1, 57494, Note_off_c, 1, 76, 0
1, 57509, Note_off_c, 1, 71, 0
1, 57509, Note_off_c, 1, 56, 0
1, 57510, Note_on_c, 1, 74, 127
1, 57510, Note_on_c, 1, 68, 127
1, 57510, Note_on_c, 1, 52, 127
1, 57524, Note_off_c, 1, 74, 0
1, 57539, Note_off_c, 1, 68, 0
1, 57539, Note_off_c, 1, 52, 0
1, 57540, Note_on_c, 1, 73, 127
1, 57540, Note_on_c, 1, 69, 127
1, 57540, Note_on_c, 1, 57, 127
1, 57554, Note_off_c, 1, 73, 0
1, 57555, Note_on_c, 1, 71, 127
1, 57569, Note_off_c, 1, 69, 0
1, 57569, Note_off_c, 1, 71, 0
1, 57599, Note_off_c, 1, 57, 0
1, 57600, Note_on_c, 1, 73, 127
1, 57600, Note_on_c, 1, 69, 127
1, 57600, Note_on_c, 1, 64, 127
1, 57629, Note_off_c, 1, 69, 0
1, 57659, Note_off_c, 1, 73, 0
1, 57659, Note_off_c, 1, 64, 0
1, 57660, Note_on_c, 1, 71, 127
1, 57660, Note_on_c, 1, 68, 127
1, 57660, Note_on_c, 1, 52, 127
1, 57719, Note_off_c, 1, 71, 0
1, 57719, Note_off_c, 1, 68, 0
1, 57719, Note_off_c, 1, 52, 0
1, 57720, Note_on_c, 1, 69, 127
1, 57720, Note_on_c, 1, 57, 127
1, 57749, Note_off_c, 1, 57, 0
1, 57750, Note_on_c, 1, 56, 127
1, 57764, Note_off_c, 1, 56, 0
1, 57765, Note_on_c, 1, 54, 127
1, 57779, Note_off_c, 1, 54, 0
1, 57780, Note_on_c, 1, 52, 127
1, 57809, Note_off_c, 1, 52, 0
1, 57810, Note_on_c, 1, 50, 127
1, 57839, Note_off_c, 1, 69, 0
1, 57839, Note_off_c, 1, 50, 0
1, 57840, Note_on_c, 1, 49, 127
1, 57869, Note_off_c, 1, 49, 0
1, 57870, Note_on_c, 1, 47, 127
1, 57899, Note_off_c, 1, 47, 0
1, 57900, Note_on_c, 1, 78, 127
1, 57900, Note_on_c, 1, 73, 127
1, 57900, Note_on_c, 1, 61, 127
1, 57900, Note_on_c, 1, 45, 127
1, 57914, Note_off_c, 1, 61, 0
1, 57915, Note_off_c, 1, 45, 0
1, 57915, Note_on_c, 1, 59, 127
1, 57915, Note_on_c, 1, 47, 127
1, 57929, Note_off_c, 1, 59, 0
1, 57930, Note_off_c, 1, 47, 0
1, 57930, Note_on_c, 1, 57, 127
1, 57930, Note_on_c, 1, 49, 127
1, 57945, Note_off_c, 1, 49, 0
1, 57959, Note_off_c, 1, 78, 0
1, 57959, Note_off_c, 1, 73, 0
1, 57959, Note_off_c, 1, 57, 0
1, 57960, Note_on_c, 1, 57, 127
1, 57960, Note_on_c, 1, 49, 127
1, 57960, Note_on_c, 1, 65, 127
1, 57960, Note_on_c, 1, 68, 127
1, 57975, Note_off_c, 1, 49, 0
1, 57990, Note_off_c, 1, 57, 0
1, 57990, Note_on_c, 1, 56, 127
1, 58019, Note_off_c, 1, 65, 0
1, 58019, Note_off_c, 1, 68, 0
1, 58020, Note_on_c, 1, 77, 127
1, 58020, Note_on_c, 1, 73, 127
1, 58079, Note_off_c, 1, 77, 0
1, 58079, Note_off_c, 1, 73, 0
1, 58080, Note_off_c, 1, 56, 0
1, 58080, Note_on_c, 1, 78, 127
1, 58080, Note_on_c, 1, 54, 127
1, 58095, Note_off_c, 1, 54, 0
1, 58095, Note_on_c, 1, 52, 127
1, 58110, Note_off_c, 1, 52, 0
1, 58110, Note_on_c, 1, 50, 127
1, 58125, Note_off_c, 1, 50, 0
1, 58139, Note_off_c, 1, 78, 0
1, 58140, Note_on_c, 1, 54, 127
1, 58140, Note_on_c, 1, 49, 127
1, 58140, Note_on_c, 1, 65, 127
1, 58140, Note_on_c, 1, 68, 127
1, 58155, Note_off_c, 1, 49, 0
1, 58170, Note_off_c, 1, 54, 0
1, 58170, Note_on_c, 1, 53, 127
1, 58199, Note_off_c, 1, 65, 0
1, 58199, Note_off_c, 1, 68, 0
1, 58200, Note_on_c, 1, 80, 127
1, 58200, Note_on_c, 1, 71, 127
1, 58259, Note_off_c, 1, 80, 0
1, 58259, Note_off_c, 1, 71, 0
1, 58260, Note_off_c, 1, 53, 0
1, 58260, Note_on_c, 1, 78, 127
1, 58260, Note_on_c, 1, 69, 127
1, 58260, Note_on_c, 1, 50, 127
1, 58275, Note_off_c, 1, 50, 0
1, 58275, Note_on_c, 1, 76, 127
1, 58275, Note_on_c, 1, 52, 127
1, 58289, Note_off_c, 1, 76, 0
1, 58290, Note_off_c, 1, 52, 0
1, 58290, Note_on_c, 1, 74, 127
1, 58319, Note_off_c, 1, 78, 0
1, 58319, Note_off_c, 1, 69, 0
1, 58319, Note_off_c, 1, 74, 0
1, 58320, Note_on_c, 1, 74, 127
1, 58320, Note_on_c, 1, 58, 127
1, 58320, Note_on_c, 1, 54, 127
1, 58320, Note_on_c, 1, 70, 127
1, 58320, Note_on_c, 1, 66, 127
1, 58335, Note_off_c, 1, 54, 0
1, 58349, Note_off_c, 1, 74, 0
1, 58350, Note_on_c, 1, 73, 127
1, 58379, Note_off_c, 1, 70, 0
1, 58379, Note_off_c, 1, 66, 0
1, 58380, Note_on_c, 1, 76, 127
1, 58439, Note_off_c, 1, 58, 0
1, 58439, Note_off_c, 1, 73, 0
1, 58439, Note_off_c, 1, 76, 0
1, 58440, Note_on_c, 1, 74, 127
1, 58440, Note_on_c, 1, 66, 127
1, 58440, Note_on_c, 1, 59, 127
1, 58455, Note_on_c, 1, 73, 127
1, 58455, Note_on_c, 1, 57, 127
1, 58469, Note_off_c, 1, 73, 0
1, 58470, Note_off_c, 1, 57, 0
1, 58470, Note_on_c, 1, 71, 127
1, 58470, Note_on_c, 1, 55, 127
1, 58485, Note_off_c, 1, 55, 0
1, 58499, Note_off_c, 1, 74, 0
1, 58499, Note_off_c, 1, 66, 0
1, 58499, Note_off_c, 1, 59, 0
1, 58499, Note_off_c, 1, 71, 0
1, 58500, Note_on_c, 1, 71, 127
1, 58500, Note_on_c, 1, 61, 127
1, 58500, Note_on_c, 1, 54, 127
1, 58500, Note_on_c, 1, 70, 127
1, 58500, Note_on_c, 1, 66, 127
1, 58515, Note_off_c, 1, 54, 0
1, 58529, Note_off_c, 1, 71, 0
1, 58529, Note_off_c, 1, 61, 0
1, 58530, Note_on_c, 1, 59, 127
1, 58559, Note_off_c, 1, 66, 0
1, 58559, Note_off_c, 1, 59, 0
1, 58560, Note_on_c, 1, 73, 127
1, 58560, Note_on_c, 1, 64, 127
1, 58619, Note_off_c, 1, 70, 0
1, 58619, Note_off_c, 1, 73, 0
1, 58619, Note_off_c, 1, 64, 0
1, 58620, Note_on_c, 1, 71, 127
1, 58620, Note_on_c, 1, 62, 127
1, 58620, Note_on_c, 1, 55, 127
1, 58635, Note_off_c, 1, 55, 0
1, 58635, Note_on_c, 1, 57, 127
1, 58650, Note_off_c, 1, 57, 0
1, 58650, Note_on_c, 1, 59, 127
1, 58665, Note_off_c, 1, 59, 0
1, 58679, Note_off_c, 1, 71, 0
1, 58679, Note_off_c, 1, 62, 0
1, 58680, Note_on_c, 1, 75, 127
1, 58680, Note_on_c, 1, 59, 127
1, 58680, Note_on_c, 1, 63, 127
1, 58680, Note_on_c, 1, 71, 127
1, 58694, Note_off_c, 1, 75, 0
1, 58695, Note_on_c, 1, 76, 127
1, 58709, Note_off_c, 1, 76, 0
1, 58739, Note_off_c, 1, 59, 0
1, 58739, Note_off_c, 1, 63, 0
1, 58739, Note_off_c, 1, 71, 0
1, 58740, Note_on_c, 1, 71, 127
1, 58740, Note_on_c, 1, 66, 127
1, 58740, Note_on_c, 1, 76, 127
1, 58740, Note_on_c, 1, 57, 127
1, 58740, Note_on_c, 1, 59, 127
1, 58749, Note_off_c, 1, 76, 0
1, 58750, Note_on_c, 1, 75, 127
1, 58755, Note_off_c, 1, 59, 0
1, 58759, Note_off_c, 1, 75, 0
1, 58799, Note_off_c, 1, 71, 0
1, 58799, Note_off_c, 1, 66, 0
1, 58799, Note_off_c, 1, 57, 0
1, 58800, Note_on_c, 1, 71, 127
1, 58800, Note_on_c, 1, 64, 127
1, 58800, Note_on_c, 1, 76, 127
1, 58800, Note_on_c, 1, 56, 127
1, 58815, Note_on_c, 1, 62, 127
1, 58830, Note_off_c, 1, 62, 0
1, 58830, Note_on_c, 1, 61, 127
1, 58845, Note_off_c, 1, 61, 0
1, 58859, Note_off_c, 1, 71, 0
1, 58859, Note_off_c, 1, 64, 0
1, 58859, Note_off_c, 1, 76, 0
1, 58859, Note_off_c, 1, 56, 0
1, 58860, Note_on_c, 1, 78, 127
1, 58860, Note_on_c, 1, 57, 127
1, 58860, Note_on_c, 1, 59, 127
1, 58860, Note_on_c, 1, 66, 127
1, 58860, Note_on_c, 1, 74, 127
1, 58875, Note_off_c, 1, 59, 0
1, 58889, Note_off_c, 1, 78, 0
1, 58889, Note_off_c, 1, 57, 0
1, 58890, Note_on_c, 1, 76, 127
1, 58890, Note_on_c, 1, 56, 127
1, 58919, Note_off_c, 1, 66, 0
1, 58919, Note_off_c, 1, 74, 0
1, 58919, Note_off_c, 1, 76, 0
1, 58919, Note_off_c, 1, 56, 0
1, 58920, Note_on_c, 1, 74, 127
1, 58920, Note_on_c, 1, 71, 127
1, 58920, Note_on_c, 1, 78, 127
1, 58920, Note_on_c, 1, 54, 127
1, 58920, Note_on_c, 1, 59, 127
1, 58935, Note_off_c, 1, 59, 0
1, 58949, Note_off_c, 1, 54, 0
1, 58950, Note_on_c, 1, 56, 127
1, 58979, Note_off_c, 1, 74, 0
1, 58979, Note_off_c, 1, 71, 0
1, 58979, Note_off_c, 1, 78, 0
1, 58979, Note_off_c, 1, 56, 0
1, 58980, Note_on_c, 1, 73, 127
1, 58980, Note_on_c, 1, 64, 127
1, 58980, Note_on_c, 1, 57, 127
1, 58980, Note_on_c, 1, 61, 127
1, 58995, Note_off_c, 1, 61, 0
1, 58995, Note_on_c, 1, 59, 127
1, 59010, Note_off_c, 1, 59, 0
1, 59039, Note_off_c, 1, 73, 0
1, 59039, Note_off_c, 1, 64, 0
1, 59039, Note_off_c, 1, 57, 0
1, 59040, Note_on_c, 1, 76, 127
1, 59040, Note_on_c, 1, 59, 127
1, 59040, Note_on_c, 1, 56, 127
1, 59040, Note_on_c, 1, 64, 127
1, 59040, Note_on_c, 1, 71, 127
1, 59055, Note_off_c, 1, 56, 0
1, 59069, Note_off_c, 1, 59, 0
1, 59070, Note_on_c, 1, 57, 127
1, 59099, Note_off_c, 1, 76, 0
1, 59099, Note_off_c, 1, 64, 0
1, 59099, Note_off_c, 1, 71, 0
1, 59099, Note_off_c, 1, 57, 0
1, 59100, Note_on_c, 1, 71, 127
1, 59100, Note_on_c, 1, 64, 127
1, 59100, Note_on_c, 1, 74, 127
1, 59100, Note_on_c, 1, 59, 127
1, 59100, Note_on_c, 1, 56, 127
1, 59115, Note_off_c, 1, 56, 0
1, 59159, Note_off_c, 1, 71, 0
1, 59159, Note_off_c, 1, 64, 0
1, 59159, Note_off_c, 1, 74, 0
1, 59159, Note_off_c, 1, 59, 0
1, 59160, Note_on_c, 1, 69, 127
1, 59160, Note_on_c, 1, 64, 127
1, 59160, Note_on_c, 1, 73, 127
1, 59160, Note_on_c, 1, 52, 127
1, 59160, Note_on_c, 1, 57, 127
1, 59175, Note_off_c, 1, 57, 0
1, 59175, Note_on_c, 1, 56, 127
1, 59190, Note_off_c, 1, 56, 0
1, 59190, Note_on_c, 1, 54, 127
1, 59205, Note_off_c, 1, 54, 0
1, 59218, Note_off_c, 1, 52, 0
1, 59219, Note_off_c, 1, 69, 0
1, 59219, Note_off_c, 1, 64, 0
1, 59219, Note_off_c, 1, 73, 0
1, 59220, Note_on_c, 1, 74, 127
1, 59220, Note_on_c, 1, 56, 127
1, 59220, Note_on_c, 1, 52, 127
1, 59220, Note_on_c, 1, 71, 127
1, 59220, Note_on_c, 1, 64, 127
1, 59235, Note_off_c, 1, 52, 0
1, 59249, Note_off_c, 1, 74, 0
1, 59250, Note_on_c, 1, 73, 127
1, 59278, Note_off_c, 1, 56, 0
1, 59279, Note_off_c, 1, 71, 0
1, 59279, Note_off_c, 1, 64, 0
1, 59279, Note_off_c, 1, 73, 0
1, 59280, Note_on_c, 1, 67, 127
1, 59280, Note_on_c, 1, 76, 127
1, 59280, Note_on_c, 1, 71, 127
1, 59280, Note_on_c, 1, 57, 127
1, 59280, Note_on_c, 1, 52, 127
1, 59295, Note_off_c, 1, 52, 0
1, 59309, Note_off_c, 1, 71, 0
1, 59310, Note_on_c, 1, 73, 127
1, 59338, Note_off_c, 1, 57, 0
1, 59339, Note_off_c, 1, 67, 0
1, 59339, Note_off_c, 1, 76, 0
1, 59339, Note_off_c, 1, 73, 0
1, 59340, Note_on_c, 1, 69, 127
1, 59340, Note_on_c, 1, 74, 127
1, 59340, Note_on_c, 1, 54, 127
1, 59355, Note_off_c, 1, 54, 0
1, 59355, Note_on_c, 1, 52, 127
1, 59370, Note_off_c, 1, 52, 0
1, 59370, Note_on_c, 1, 50, 127
1, 59385, Note_off_c, 1, 50, 0
1, 59399, Note_off_c, 1, 69, 0
1, 59399, Note_off_c, 1, 74, 0
1, 59400, Note_on_c, 1, 76, 127
1, 59400, Note_on_c, 1, 57, 127
1, 59400, Note_on_c, 1, 49, 127
1, 59400, Note_on_c, 1, 69, 127
1, 59400, Note_on_c, 1, 64, 127
1, 59415, Note_off_c, 1, 49, 0
1, 59429, Note_off_c, 1, 76, 0
1, 59430, Note_on_c, 1, 74, 127
1, 59458, Note_off_c, 1, 57, 0
1, 59459, Note_off_c, 1, 69, 0
1, 59459, Note_off_c, 1, 64, 0
1, 59459, Note_off_c, 1, 74, 0
1, 59460, Note_on_c, 1, 76, 127
1, 59460, Note_on_c, 1, 69, 127
1, 59460, Note_on_c, 1, 55, 127
1, 59460, Note_on_c, 1, 49, 127
1, 59475, Note_off_c, 1, 49, 0
1, 59518, Note_off_c, 1, 55, 0
1, 59519, Note_off_c, 1, 76, 0
1, 59519, Note_off_c, 1, 69, 0
1, 59520, Note_on_c, 1, 74, 127
1, 59520, Note_on_c, 1, 69, 127
1, 59520, Note_on_c, 1, 54, 127
1, 59520, Note_on_c, 1, 50, 127
1, 59535, Note_off_c, 1, 50, 0
1, 59535, Note_on_c, 1, 49, 127
1, 59550, Note_off_c, 1, 49, 0
1, 59550, Note_on_c, 1, 47, 127
1, 59565, Note_off_c, 1, 47, 0
1, 59579, Note_off_c, 1, 74, 0
1, 59579, Note_off_c, 1, 69, 0
1, 59580, Note_on_c, 1, 73, 127
1, 59580, Note_on_c, 1, 45, 127
1, 59580, Note_on_c, 1, 61, 127
1, 59580, Note_on_c, 1, 66, 127
1, 59595, Note_off_c, 1, 45, 0
1, 59639, Note_off_c, 1, 73, 0
1, 59639, Note_off_c, 1, 61, 0
1, 59639, Note_off_c, 1, 66, 0
1, 59640, Note_on_c, 1, 78, 127
1, 59640, Note_on_c, 1, 72, 127
1, 59699, Note_off_c, 1, 78, 0
1, 59699, Note_off_c, 1, 72, 0
1, 59700, Note_on_c, 1, 71, 127
1, 59729, Note_off_c, 1, 54, 0
1, 59730, Note_on_c, 1, 55, 127
1, 59730, Note_on_c, 1, 43, 127
1, 59745, Note_off_c, 1, 43, 0
1, 59759, Note_off_c, 1, 71, 0
1, 59759, Note_off_c, 1, 55, 0
1, 59760, Note_on_c, 1, 74, 127
1, 59760, Note_on_c, 1, 57, 127
1, 59760, Note_on_c, 1, 42, 127
1, 59760, Note_on_c, 1, 66, 127
1, 59760, Note_on_c, 1, 62, 127
1, 59775, Note_off_c, 1, 42, 0
1, 59789, Note_off_c, 1, 57, 0
1, 59790, Note_on_c, 1, 55, 127
1, 59819, Note_off_c, 1, 74, 0
1, 59819, Note_off_c, 1, 66, 0
1, 59819, Note_off_c, 1, 62, 0
1, 59819, Note_off_c, 1, 55, 0
1, 59820, Note_on_c, 1, 74, 127
1, 59820, Note_on_c, 1, 69, 127
1, 59820, Note_on_c, 1, 72, 127
1, 59820, Note_on_c, 1, 57, 127
1, 59820, Note_on_c, 1, 42, 127
1, 59835, Note_off_c, 1, 42, 0
1, 59849, Note_off_c, 1, 57, 0
1, 59850, Note_on_c, 1, 54, 127
1, 59879, Note_off_c, 1, 74, 0
1, 59879, Note_off_c, 1, 69, 0
1, 59879, Note_off_c, 1, 72, 0
1, 59879, Note_off_c, 1, 54, 0
1, 59880, Note_on_c, 1, 74, 127
1, 59880, Note_on_c, 1, 67, 127
1, 59880, Note_on_c, 1, 71, 127
1, 59880, Note_on_c, 1, 50, 127
1, 59880, Note_on_c, 1, 43, 127
1, 59895, Note_off_c, 1, 43, 0
1, 59895, Note_on_c, 1, 42, 127
1, 59909, Note_off_c, 1, 50, 0
1, 59910, Note_off_c, 1, 42, 0
1, 59910, Note_on_c, 1, 59, 127
1, 59910, Note_on_c, 1, 40, 127
1, 59925, Note_off_c, 1, 40, 0
1, 59939, Note_off_c, 1, 74, 0
1, 59939, Note_off_c, 1, 67, 0
1, 59940, Note_on_c, 1, 39, 127
1, 59940, Note_on_c, 1, 66, 127
1, 59955, Note_off_c, 1, 39, 0
1, 59969, Note_off_c, 1, 59, 0
1, 59970, Note_on_c, 1, 60, 127
1, 59984, Note_off_c, 1, 60, 0
1, 59999, Note_off_c, 1, 66, 0
1, 60000, Note_on_c, 1, 57, 127
1, 60029, Note_off_c, 1, 57, 0
1, 60060, Note_on_c, 1, 64, 127
1, 60060, Note_on_c, 1, 55, 127
1, 60089, Note_off_c, 1, 55, 0
1, 60090, Note_on_c, 1, 73, 127
1, 60119, Note_off_c, 1, 71, 0
1, 60119, Note_off_c, 1, 64, 0
1, 60119, Note_off_c, 1, 73, 0
1, 60120, Note_on_c, 1, 75, 127
1, 60120, Note_on_c, 1, 54, 127
1, 60120, Note_on_c, 1, 40, 127
1, 60120, Note_on_c, 1, 62, 127
1, 60120, Note_on_c, 1, 69, 127
1, 60149, Note_off_c, 1, 75, 0
1, 60149, Note_off_c, 1, 54, 0
1, 60149, Note_off_c, 1, 40, 0
1, 60150, Note_on_c, 1, 76, 127
1, 60150, Note_on_c, 1, 59, 127
1, 60179, Note_off_c, 1, 62, 0
1, 60179, Note_off_c, 1, 69, 0
1, 60179, Note_off_c, 1, 76, 0
1, 60179, Note_off_c, 1, 59, 0
1, 60180, Note_on_c, 1, 72, 127
1, 60180, Note_on_c, 1, 63, 127
1, 60180, Note_on_c, 1, 78, 127
1, 60180, Note_on_c, 1, 57, 127
1, 60180, Note_on_c, 1, 40, 127
1, 60209, Note_off_c, 1, 78, 0
1, 60209, Note_off_c, 1, 57, 0
1, 60209, Note_off_c, 1, 40, 0
1, 60210, Note_on_c, 1, 75, 127
1, 60210, Note_on_c, 1, 59, 127
1, 60239, Note_off_c, 1, 72, 0
1, 60239, Note_off_c, 1, 63, 0
1, 60239, Note_off_c, 1, 75, 0
1, 60239, Note_off_c, 1, 59, 0
1, 60240, Note_on_c, 1, 71, 127
1, 60240, Note_on_c, 1, 64, 127
1, 60240, Note_on_c, 1, 55, 127
1, 60240, Note_on_c, 1, 40, 127
1, 60269, Note_off_c, 1, 40, 0
1, 60270, Note_on_c, 1, 76, 127
1, 60299, Note_off_c, 1, 71, 0
1, 60299, Note_off_c, 1, 64, 0
1, 60299, Note_off_c, 1, 55, 0
1, 60300, Note_on_c, 1, 67, 127
1, 60329, Note_off_c, 1, 76, 0
1, 60330, Note_on_c, 1, 78, 127
1, 60330, Note_on_c, 1, 57, 127
1, 60344, Note_off_c, 1, 78, 0
1, 60359, Note_off_c, 1, 67, 0
1, 60359, Note_off_c, 1, 57, 0
1, 60360, Note_on_c, 1, 71, 127
1, 60360, Note_on_c, 1, 67, 127
1, 60360, Note_on_c, 1, 74, 127
1, 60360, Note_on_c, 1, 59, 127
1, 60360, Note_on_c, 1, 40, 127
1, 60389, Note_off_c, 1, 74, 0
1, 60389, Note_off_c, 1, 59, 0
1, 60389, Note_off_c, 1, 40, 0
1, 60390, Note_on_c, 1, 76, 127
1, 60390, Note_on_c, 1, 52, 127
1, 60404, Note_off_c, 1, 76, 0
1, 60419, Note_off_c, 1, 71, 0
1, 60419, Note_off_c, 1, 67, 0
1, 60419, Note_off_c, 1, 52, 0
1, 60420, Note_on_c, 1, 79, 127
1, 60420, Note_on_c, 1, 76, 127
1, 60420, Note_on_c, 1, 73, 127
1, 60420, Note_on_c, 1, 64, 127
1, 60420, Note_on_c, 1, 40, 127
1, 60449, Note_off_c, 1, 73, 0
1, 60449, Note_off_c, 1, 40, 0
1, 60450, Note_on_c, 1, 74, 127
1, 60464, Note_off_c, 1, 74, 0
1, 60479, Note_off_c, 1, 79, 0
1, 60479, Note_off_c, 1, 76, 0
1, 60479, Note_off_c, 1, 64, 0
1, 60480, Note_on_c, 1, 71, 127
1, 60480, Note_on_c, 1, 40, 127
1, 60480, Note_on_c, 1, 64, 127
1, 60509, Note_off_c, 1, 40, 0
1, 60510, Note_on_c, 1, 76, 127
1, 60539, Note_off_c, 1, 71, 0
1, 60539, Note_off_c, 1, 64, 0
1, 60539, Note_off_c, 1, 76, 0
1, 60540, Note_on_c, 1, 79, 127
1, 60540, Note_on_c, 1, 71, 127
1, 60540, Note_on_c, 1, 74, 127
1, 60540, Note_on_c, 1, 40, 127
1, 60569, Note_off_c, 1, 74, 0
1, 60569, Note_off_c, 1, 40, 0
1, 60570, Note_on_c, 1, 76, 127
1, 60599, Note_off_c, 1, 79, 0
1, 60599, Note_off_c, 1, 71, 0
1, 60599, Note_off_c, 1, 76, 0
1, 60600, Note_on_c, 1, 78, 127
1, 60600, Note_on_c, 1, 73, 127
1, 60600, Note_on_c, 1, 70, 127
1, 60600, Note_on_c, 1, 40, 127
1, 60629, Note_off_c, 1, 40, 0
1, 60630, Note_on_c, 1, 42, 127
1, 60659, Note_off_c, 1, 78, 0
1, 60659, Note_off_c, 1, 73, 0
1, 60659, Note_off_c, 1, 70, 0
1, 60659, Note_off_c, 1, 42, 0
1, 60660, Note_on_c, 1, 70, 127
1, 60660, Note_on_c, 1, 61, 127
1, 60660, Note_on_c, 1, 42, 127
1, 60660, Note_on_c, 1, 66, 127
1, 60660, Note_on_c, 1, 69, 127
1, 60660, Note_on_c, 1, 73, 127
1, 60689, Note_off_c, 1, 70, 0
1, 60689, Note_off_c, 1, 42, 0
1, 60690, Note_on_c, 1, 71, 127
1, 60690, Note_on_c, 1, 40, 127
1, 60719, Note_off_c, 1, 61, 0
1, 60719, Note_off_c, 1, 66, 0
1, 60719, Note_off_c, 1, 69, 0
1, 60719, Note_off_c, 1, 73, 0
1, 60719, Note_off_c, 1, 71, 0
1, 60719, Note_off_c, 1, 40, 0
1, 60720, Note_on_c, 1, 78, 127
1, 60720, Note_on_c, 1, 66, 127
1, 60720, Note_on_c, 1, 73, 127
1, 60720, Note_on_c, 1, 58, 127
1, 60720, Note_on_c, 1, 40, 127
1, 60749, Note_off_c, 1, 73, 0
1, 60749, Note_off_c, 1, 40, 0
1, 60750, Note_on_c, 1, 38, 127
1, 60779, Note_off_c, 1, 78, 0
1, 60779, Note_off_c, 1, 66, 0
1, 60779, Note_off_c, 1, 58, 0
1, 60779, Note_off_c, 1, 38, 0
1, 60780, Note_on_c, 1, 78, 127
1, 60780, Note_on_c, 1, 71, 127
1, 60780, Note_on_c, 1, 54, 127
1, 60780, Note_on_c, 1, 38, 127
1, 60809, Note_off_c, 1, 38, 0
1, 60810, Note_on_c, 1, 40, 127
1, 60839, Note_off_c, 1, 78, 0
1, 60839, Note_off_c, 1, 71, 0
1, 60839, Note_off_c, 1, 54, 0
1, 60839, Note_off_c, 1, 40, 0
1, 60840, Note_on_c, 1, 79, 127
1, 60840, Note_on_c, 1, 59, 127
1, 60840, Note_on_c, 1, 40, 127
1, 60840, Note_on_c, 1, 67, 127
1, 60840, Note_on_c, 1, 64, 127
1, 60869, Note_off_c, 1, 59, 0
1, 60869, Note_off_c, 1, 40, 0
1, 60870, Note_on_c, 1, 58, 127
1, 60870, Note_on_c, 1, 42, 127
1, 60899, Note_off_c, 1, 79, 0
1, 60899, Note_off_c, 1, 67, 0
1, 60899, Note_off_c, 1, 64, 0
1, 60899, Note_off_c, 1, 58, 0
1, 60899, Note_off_c, 1, 42, 0
1, 60900, Note_on_c, 1, 73, 127
1, 60900, Note_on_c, 1, 66, 127
1, 60900, Note_on_c, 1, 76, 127
1, 60900, Note_on_c, 1, 59, 127
1, 60900, Note_on_c, 1, 42, 127
1, 60929, Note_off_c, 1, 42, 0
1, 60930, Note_on_c, 1, 43, 127
1, 60959, Note_off_c, 1, 73, 0
1, 60959, Note_off_c, 1, 66, 0
1, 60959, Note_off_c, 1, 76, 0
1, 60959, Note_off_c, 1, 59, 0
1, 60959, Note_off_c, 1, 43, 0
1, 60960, Note_on_c, 1, 73, 127
1, 60960, Note_on_c, 1, 64, 127
1, 60960, Note_on_c, 1, 59, 127
1, 60960, Note_on_c, 1, 43, 127
1, 60989, Note_off_c, 1, 43, 0
1, 60990, Note_on_c, 1, 42, 127
1, 61019, Note_off_c, 1, 73, 0
1, 61019, Note_off_c, 1, 64, 0
1, 61019, Note_off_c, 1, 42, 0
1, 61020, Note_on_c, 1, 74, 127
1, 61020, Note_on_c, 1, 71, 127
1, 61020, Note_on_c, 1, 62, 127
1, 61049, Note_off_c, 1, 74, 0
1, 61050, Note_on_c, 1, 40, 127
1, 61079, Note_off_c, 1, 71, 0
1, 61079, Note_off_c, 1, 62, 0
1, 61079, Note_off_c, 1, 40, 0
1, 61080, Note_on_c, 1, 67, 127
1, 61110, Note_on_c, 1, 41, 127
1, 61139, Note_off_c, 1, 67, 0
1, 61139, Note_off_c, 1, 41, 0
1, 61140, Note_on_c, 1, 68, 127
1, 61169, Note_off_c, 1, 59, 0
1, 61170, Note_on_c, 1, 61, 127
1, 61199, Note_off_c, 1, 68, 0
1, 61199, Note_off_c, 1, 61, 0
1, 61200, Note_on_c, 1, 76, 127
1, 61200, Note_on_c, 1, 58, 127
1, 61200, Note_on_c, 1, 42, 127
1, 61200, Note_on_c, 1, 70, 127
1, 61200, Note_on_c, 1, 61, 127
1, 61229, Note_off_c, 1, 76, 0
1, 61230, Note_on_c, 1, 74, 127
1, 61259, Note_off_c, 1, 42, 0
1, 61259, Note_off_c, 1, 70, 0
1, 61259, Note_off_c, 1, 61, 0
1, 61259, Note_off_c, 1, 74, 0
1, 61260, Note_on_c, 1, 73, 127
1, 61260, Note_on_c, 1, 64, 127
1, 61289, Note_off_c, 1, 58, 0
1, 61289, Note_off_c, 1, 73, 0
1, 61290, Note_on_c, 1, 59, 127
1, 61319, Note_off_c, 1, 64, 0
1, 61319, Note_off_c, 1, 59, 0
1, 61320, Note_on_c, 1, 71, 127
1, 61320, Note_on_c, 1, 59, 127
1, 61320, Note_on_c, 1, 47, 127
1, 61320, Note_on_c, 1, 62, 127
1, 61320, Note_on_c, 1, 66, 127
1, 61349, Note_off_c, 1, 47, 0
1, 61350, Note_on_c, 1, 46, 127
1, 61379, Note_off_c, 1, 62, 0
1, 61379, Note_off_c, 1, 66, 0
1, 61379, Note_off_c, 1, 46, 0
1, 61410, Note_on_c, 1, 49, 127
1, 61439, Note_off_c, 1, 71, 0
1, 61439, Note_off_c, 1, 59, 0
1, 61439, Note_off_c, 1, 49, 0
1, 61440, Note_on_c, 1, 71, 127
1, 61440, Note_on_c, 1, 50, 127
1, 61469, Note_off_c, 1, 50, 0
1, 61470, Note_on_c, 1, 52, 127
1, 61499, Note_off_c, 1, 71, 0
1, 61499, Note_off_c, 1, 52, 0
1, 61500, Note_on_c, 1, 70, 127
1, 61500, Note_on_c, 1, 54, 127
1, 61514, Note_off_c, 1, 70, 0
1, 61515, Note_on_c, 1, 68, 127
1, 61529, Note_off_c, 1, 54, 0
1, 61529, Note_off_c, 1, 68, 0
1, 61530, Note_on_c, 1, 66, 127
1, 61530, Note_on_c, 1, 54, 127
1, 61559, Note_off_c, 1, 66, 0
1, 61559, Note_off_c, 1, 54, 0
1, 61560, Note_on_c, 1, 66, 127
1, 61560, Note_on_c, 1, 54, 127
1, 61589, Note_off_c, 1, 66, 0
1, 61589, Note_off_c, 1, 54, 0
1, 61590, Note_on_c, 1, 65, 127
1, 61590, Note_on_c, 1, 54, 127
1, 61619, Note_off_c, 1, 54, 0
1, 61649, Note_off_c, 1, 65, 0
1, 61650, Note_on_c, 1, 66, 127
1, 61650, Note_on_c, 1, 54, 127
1, 61679, Note_off_c, 1, 66, 0
1, 61679, Note_off_c, 1, 54, 0
1, 61680, Note_on_c, 1, 64, 127
1, 61680, Note_on_c, 1, 54, 127
1, 61694, Note_off_c, 1, 64, 0
1, 61695, Note_on_c, 1, 62, 127
1, 61709, Note_off_c, 1, 54, 0
1, 61709, Note_off_c, 1, 62, 0
1, 61710, Note_on_c, 1, 61, 127
1, 61710, Note_on_c, 1, 55, 127
1, 61739, Note_off_c, 1, 61, 0
1, 61739, Note_off_c, 1, 55, 0
1, 61740, Note_on_c, 1, 59, 127
1, 61740, Note_on_c, 1, 55, 127
1, 61769, Note_off_c, 1, 55, 0
1, 61770, Note_on_c, 1, 54, 127
1, 61799, Note_off_c, 1, 54, 0
1, 61830, Note_on_c, 1, 81, 127
1, 61830, Note_on_c, 1, 52, 127
1, 61859, Note_off_c, 1, 81, 0
1, 61859, Note_off_c, 1, 52, 0
1, 61860, Note_on_c, 1, 79, 127
1, 61874, Note_off_c, 1, 79, 0
1, 61875, Note_on_c, 1, 78, 127
1, 61889, Note_off_c, 1, 78, 0
1, 61890, Note_on_c, 1, 76, 127
1, 61919, Note_off_c, 1, 76, 0
1, 61950, Note_on_c, 1, 75, 127
1, 62009, Note_off_c, 1, 75, 0
1, 62040, Note_on_c, 1, 74, 127
1, 62054, Note_off_c, 1, 74, 0
1, 62055, Note_off_c, 1, 59, 0
1, 62055, Note_on_c, 1, 73, 127
1, 62055, Note_on_c, 1, 61, 127
1, 62069, Note_off_c, 1, 73, 0
1, 62069, Note_off_c, 1, 61, 0
1, 62070, Note_on_c, 1, 71, 127
1, 62070, Note_on_c, 1, 62, 127
1, 62070, Note_on_c, 1, 53, 127
1, 62099, Note_off_c, 1, 71, 0
1, 62099, Note_off_c, 1, 62, 0
1, 62099, Note_off_c, 1, 53, 0
1, 62100, Note_on_c, 1, 70, 127
1, 62100, Note_on_c, 1, 61, 127
1, 62100, Note_on_c, 1, 54, 127
1, 62114, Note_off_c, 1, 61, 0
1, 62115, Note_on_c, 1, 62, 127
1, 62129, Note_off_c, 1, 54, 0
1, 62129, Note_off_c, 1, 62, 0
1, 62130, Note_on_c, 1, 64, 127
1, 62130, Note_on_c, 1, 52, 127
1, 62144, Note_off_c, 1, 64, 0
1, 62159, Note_off_c, 1, 52, 0
1, 62160, Note_on_c, 1, 50, 127
1, 62189, Note_off_c, 1, 50, 0
1, 62190, Note_on_c, 1, 49, 127
1, 62219, Note_off_c, 1, 70, 0
1, 62219, Note_off_c, 1, 49, 0
1, 62220, Note_on_c, 1, 71, 127
1, 62220, Note_on_c, 1, 62, 127
1, 62220, Note_on_c, 1, 47, 127
1, 62234, Note_off_c, 1, 62, 0
1, 62235, Note_on_c, 1, 64, 127
1, 62249, Note_off_c, 1, 64, 0
1, 62250, Note_on_c, 1, 66, 127
1, 62264, Note_off_c, 1, 66, 0
1, 62279, Note_off_c, 1, 71, 0
1, 62279, Note_off_c, 1, 47, 0
1, 62280, Note_on_c, 1, 74, 127
1, 62280, Note_on_c, 1, 66, 127
1, 62280, Note_on_c, 1, 59, 127
1, 62294, Note_off_c, 1, 66, 0
1, 62339, Note_off_c, 1, 74, 0
1, 62339, Note_off_c, 1, 59, 0
1, 62340, Note_on_c, 1, 73, 127
1, 62340, Note_on_c, 1, 66, 127
1, 62340, Note_on_c, 1, 58, 127
1, 62354, Note_off_c, 1, 66, 0
1, 62399, Note_off_c, 1, 73, 0
1, 62399, Note_off_c, 1, 58, 0
1, 62400, Note_on_c, 1, 74, 127
1, 62400, Note_on_c, 1, 71, 127
1, 62400, Note_on_c, 1, 59, 127
1, 62414, Note_off_c, 1, 71, 0
1, 62415, Note_on_c, 1, 69, 127
1, 62429, Note_off_c, 1, 69, 0
1, 62430, Note_on_c, 1, 67, 127
1, 62444, Note_off_c, 1, 67, 0
1, 62459, Note_off_c, 1, 74, 0
1, 62459, Note_off_c, 1, 59, 0
1, 62460, Note_on_c, 1, 71, 127
1, 62460, Note_on_c, 1, 66, 127
1, 62460, Note_on_c, 1, 50, 127
1, 62474, Note_off_c, 1, 66, 0
1, 62519, Note_off_c, 1, 71, 0
1, 62519, Note_off_c, 1, 50, 0
1, 62520, Note_on_c, 1, 70, 127
1, 62520, Note_on_c, 1, 66, 127
1, 62520, Note_on_c, 1, 49, 127
1, 62534, Note_off_c, 1, 66, 0
1, 62550, Note_on_c, 1, 64, 127
1, 62564, Note_off_c, 1, 64, 0
1, 62579, Note_off_c, 1, 70, 0
1, 62579, Note_off_c, 1, 49, 0
1, 62580, Note_on_c, 1, 78, 127
1, 62580, Note_on_c, 1, 62, 127
1, 62580, Note_on_c, 1, 47, 127
1, 62594, Note_off_c, 1, 62, 0
1, 62595, Note_on_c, 1, 61, 127
1, 62609, Note_off_c, 1, 61, 0
1, 62610, Note_on_c, 1, 59, 127
1, 62639, Note_off_c, 1, 78, 0
1, 62639, Note_off_c, 1, 47, 0
1, 62639, Note_off_c, 1, 59, 0
1, 62640, Note_on_c, 1, 66, 127
1, 62640, Note_on_c, 1, 62, 127
1, 62640, Note_on_c, 1, 54, 127
1, 62699, Note_off_c, 1, 66, 0
1, 62699, Note_off_c, 1, 62, 0
1, 62699, Note_off_c, 1, 54, 0
1, 62700, Note_on_c, 1, 70, 127
1, 62700, Note_on_c, 1, 61, 127
1, 62700, Note_on_c, 1, 42, 127
1, 62759, Note_off_c, 1, 70, 0
1, 62759, Note_off_c, 1, 61, 0
1, 62759, Note_off_c, 1, 42, 0
1, 62760, Note_on_c, 1, 71, 127
1, 62760, Note_on_c, 1, 59, 127
1, 62760, Note_on_c, 1, 74, 127
1, 62760, Note_on_c, 1, 54, 127
1, 62760, Note_on_c, 1, 47, 127
1, 62775, Note_off_c, 1, 47, 0
1, 62775, Note_on_c, 1, 49, 127
1, 62790, Note_off_c, 1, 49, 0
1, 62790, Note_on_c, 1, 50, 127
1, 62805, Note_off_c, 1, 50, 0
1, 62819, Note_off_c, 1, 71, 0
1, 62819, Note_off_c, 1, 59, 0
1, 62819, Note_off_c, 1, 74, 0
1, 62819, Note_off_c, 1, 54, 0
1, 62820, Note_on_c, 1, 73, 127
1, 62820, Note_on_c, 1, 57, 127
1, 62820, Note_on_c, 1, 52, 127
1, 62820, Note_on_c, 1, 62, 127
1, 62820, Note_on_c, 1, 68, 127
1, 62835, Note_off_c, 1, 52, 0
1, 62849, Note_off_c, 1, 73, 0
1, 62850, Note_off_c, 1, 57, 0
1, 62850, Note_on_c, 1, 71, 127
1, 62850, Note_on_c, 1, 56, 127
1, 62939, Note_off_c, 1, 71, 0
1, 62940, Note_off_c, 1, 62, 0
1, 62940, Note_off_c, 1, 56, 0
1, 62940, Note_on_c, 1, 45, 127
1, 62940, Note_on_c, 1, 64, 127
1, 62955, Note_off_c, 1, 45, 0
1, 62955, Note_on_c, 1, 47, 127
1, 62970, Note_off_c, 1, 47, 0
1, 62970, Note_on_c, 1, 49, 127
1, 62985, Note_off_c, 1, 49, 0
1, 63000, Note_off_c, 1, 68, 0
1, 63000, Note_off_c, 1, 64, 0
1, 63000, Note_on_c, 1, 50, 127
1, 63000, Note_on_c, 1, 61, 127
1, 63000, Note_on_c, 1, 66, 127
1, 63015, Note_off_c, 1, 50, 0
1, 63030, Note_on_c, 1, 70, 127
1, 63030, Note_on_c, 1, 54, 127
1, 63119, Note_off_c, 1, 70, 0
1, 63120, Note_off_c, 1, 61, 0
1, 63120, Note_off_c, 1, 54, 0
1, 63120, Note_on_c, 1, 44, 127
1, 63135, Note_off_c, 1, 44, 0
1, 63180, Note_off_c, 1, 66, 0
1, 63180, Note_on_c, 1, 69, 127
1, 63180, Note_on_c, 1, 65, 127
1, 63180, Note_on_c, 1, 59, 127
1, 63209, Note_off_c, 1, 69, 0
1, 63210, Note_on_c, 1, 53, 127
1, 63300, Note_off_c, 1, 65, 0
1, 63300, Note_off_c, 1, 59, 0
1, 63300, Note_off_c, 1, 53, 0
1, 63300, Note_on_c, 1, 42, 127
1, 63359, Note_off_c, 1, 42, 0
1, 63360, Note_on_c, 1, 73, 127
1, 63360, Note_on_c, 1, 69, 127
1, 63360, Note_on_c, 1, 66, 127
1, 63360, Note_on_c, 1, 54, 127
1, 63374, Note_off_c, 1, 73, 0
1, 63390, Note_off_c, 1, 69, 0
1, 63419, Note_off_c, 1, 66, 0
1, 63419, Note_off_c, 1, 54, 0
1, 63420, Note_on_c, 1, 73, 127
1, 63420, Note_on_c, 1, 65, 127
1, 63420, Note_on_c, 1, 56, 127
1, 63434, Note_off_c, 1, 73, 0
1, 63450, Note_off_c, 1, 65, 0
1, 63479, Note_off_c, 1, 56, 0
1, 63480, Note_on_c, 1, 78, 127
1, 63480, Note_on_c, 1, 57, 127
1, 63494, Note_off_c, 1, 78, 0
1, 63495, Note_on_c, 1, 76, 127
1, 63509, Note_off_c, 1, 76, 0
1, 63510, Note_on_c, 1, 74, 127
1, 63524, Note_off_c, 1, 74, 0
1, 63539, Note_off_c, 1, 57, 0
1, 63540, Note_on_c, 1, 73, 127
1, 63540, Note_on_c, 1, 68, 127
1, 63540, Note_on_c, 1, 53, 127
1, 63554, Note_off_c, 1, 73, 0
1, 63570, Note_off_c, 1, 68, 0
1, 63599, Note_off_c, 1, 53, 0
1, 63600, Note_on_c, 1, 73, 127
1, 63600, Note_on_c, 1, 65, 127
1, 63600, Note_on_c, 1, 49, 127
1, 63614, Note_off_c, 1, 73, 0
1, 63630, Note_off_c, 1, 65, 0
1, 63630, Note_on_c, 1, 71, 127
1, 63644, Note_off_c, 1, 71, 0
1, 63659, Note_off_c, 1, 49, 0
1, 63660, Note_on_c, 1, 69, 127
1, 63660, Note_on_c, 1, 66, 127
1, 63660, Note_on_c, 1, 73, 127
1, 63660, Note_on_c, 1, 57, 127
1, 63660, Note_on_c, 1, 54, 127
1, 63675, Note_off_c, 1, 54, 0
1, 63675, Note_on_c, 1, 56, 127
1, 63690, Note_off_c, 1, 56, 0
1, 63719, Note_off_c, 1, 73, 0
1, 63719, Note_off_c, 1, 57, 0
1, 63720, Note_off_c, 1, 66, 0
1, 63720, Note_on_c, 1, 76, 127
1, 63720, Note_on_c, 1, 59, 127
1, 63720, Note_on_c, 1, 63, 127
1, 63735, Note_off_c, 1, 59, 0
1, 63749, Note_off_c, 1, 76, 0
1, 63750, Note_on_c, 1, 75, 127
1, 63839, Note_off_c, 1, 75, 0
1, 63840, Note_off_c, 1, 69, 0
1, 63840, Note_on_c, 1, 52, 127
1, 63840, Note_on_c, 1, 71, 127
1, 63855, Note_off_c, 1, 52, 0
1, 63900, Note_off_c, 1, 63, 0
1, 63900, Note_off_c, 1, 71, 0
1, 63900, Note_on_c, 1, 68, 127
1, 63900, Note_on_c, 1, 64, 127
1, 64020, Note_off_c, 1, 68, 0
1, 64020, Note_off_c, 1, 64, 0
1, 64020, Note_on_c, 1, 51, 127
1, 64020, Note_on_c, 1, 61, 127
1, 64035, Note_off_c, 1, 51, 0
1, 64080, Note_off_c, 1, 61, 0
1, 64080, Note_on_c, 1, 60, 127
1, 64110, Note_on_c, 1, 72, 127
1, 64199, Note_off_c, 1, 72, 0
1, 64200, Note_off_c, 1, 60, 0
1, 64200, Note_on_c, 1, 49, 127
1, 64259, Note_off_c, 1, 49, 0
1, 64290, Note_on_c, 1, 78, 127
1, 64304, Note_off_c, 1, 78, 0
1, 64305, Note_on_c, 1, 80, 127
1, 64319, Note_off_c, 1, 80, 0
1, 64320, Note_on_c, 1, 78, 127
1, 64320, Note_on_c, 1, 75, 127
1, 64320, Note_on_c, 1, 56, 127
1, 64379, Note_off_c, 1, 78, 0
1, 64379, Note_off_c, 1, 75, 0
1, 64379, Note_off_c, 1, 56, 0
1, 64380, Note_on_c, 1, 76, 127
1, 64380, Note_on_c, 1, 73, 127
1, 64380, Note_on_c, 1, 52, 127
1, 64380, Note_on_c, 1, 61, 127
1, 64394, Note_off_c, 1, 76, 0
1, 64395, Note_on_c, 1, 78, 127
1, 64409, Note_off_c, 1, 78, 0
1, 64410, Note_on_c, 1, 80, 127
1, 64424, Note_off_c, 1, 80, 0
1, 64439, Note_off_c, 1, 73, 0
1, 64439, Note_off_c, 1, 52, 0
1, 64439, Note_off_c, 1, 61, 0
1, 64440, Note_on_c, 1, 80, 127
1, 64440, Note_on_c, 1, 72, 127
1, 64440, Note_on_c, 1, 51, 127
1, 64454, Note_off_c, 1, 80, 0
1, 64499, Note_off_c, 1, 72, 0
1, 64499, Note_off_c, 1, 51, 0
1, 64500, Note_on_c, 1, 80, 127
1, 64500, Note_on_c, 1, 73, 127
1, 64500, Note_on_c, 1, 52, 127
1, 64500, Note_on_c, 1, 59, 127
1, 64514, Note_off_c, 1, 80, 0
1, 64559, Note_off_c, 1, 73, 0
1, 64559, Note_off_c, 1, 52, 0
1, 64559, Note_off_c, 1, 59, 0
1, 64560, Note_on_c, 1, 80, 127
1, 64560, Note_on_c, 1, 64, 127
1, 64560, Note_on_c, 1, 73, 127
1, 64560, Note_on_c, 1, 52, 127
1, 64560, Note_on_c, 1, 57, 127
1, 64574, Note_off_c, 1, 64, 0
1, 64575, Note_on_c, 1, 66, 127
1, 64589, Note_off_c, 1, 80, 0
1, 64589, Note_off_c, 1, 66, 0
1, 64590, Note_on_c, 1, 68, 127
1, 64604, Note_off_c, 1, 68, 0
1, 64619, Note_off_c, 1, 73, 0
1, 64619, Note_off_c, 1, 52, 0
1, 64619, Note_off_c, 1, 57, 0
1, 64620, Note_on_c, 1, 78, 127
1, 64620, Note_on_c, 1, 68, 127
1, 64620, Note_on_c, 1, 72, 127
1, 64620, Note_on_c, 1, 51, 127
1, 64634, Note_off_c, 1, 68, 0
1, 64649, Note_off_c, 1, 78, 0
1, 64679, Note_off_c, 1, 72, 0
1, 64679, Note_off_c, 1, 51, 0
1, 64680, Note_on_c, 1, 76, 127
1, 64680, Note_on_c, 1, 68, 127
1, 64680, Note_on_c, 1, 73, 127
1, 64680, Note_on_c, 1, 52, 127
1, 64680, Note_on_c, 1, 56, 127
1, 64694, Note_off_c, 1, 68, 0
1, 64709, Note_off_c, 1, 76, 0
1, 64739, Note_off_c, 1, 73, 0
1, 64739, Note_off_c, 1, 52, 0
1, 64739, Note_off_c, 1, 56, 0
1, 64740, Note_on_c, 1, 75, 127
1, 64740, Note_on_c, 1, 69, 127
1, 64740, Note_on_c, 1, 54, 127
1, 64740, Note_on_c, 1, 63, 127
1, 64755, Note_on_c, 1, 56, 127
1, 64769, Note_off_c, 1, 56, 0
1, 64770, Note_on_c, 1, 57, 127
1, 64799, Note_off_c, 1, 75, 0
1, 64799, Note_off_c, 1, 54, 0
1, 64799, Note_off_c, 1, 57, 0
1, 64800, Note_off_c, 1, 63, 0
1, 64800, Note_on_c, 1, 73, 127
1, 64800, Note_on_c, 1, 52, 127
1, 64800, Note_on_c, 1, 64, 127
1, 64829, Note_off_c, 1, 73, 0
1, 64830, Note_on_c, 1, 72, 127
1, 64859, Note_off_c, 1, 52, 0
1, 64859, Note_off_c, 1, 72, 0
1, 64860, Note_off_c, 1, 64, 0
1, 64860, Note_on_c, 1, 66, 127
1, 64920, Note_off_c, 1, 69, 0
1, 64920, Note_off_c, 1, 66, 0
1, 64920, Note_on_c, 1, 60, 127
1, 64920, Note_on_c, 1, 68, 127
1, 64980, Note_on_c, 1, 58, 127
1, 65039, Note_off_c, 1, 58, 0
1, 65070, Note_on_c, 1, 51, 127
1, 65099, Note_off_c, 1, 51, 0
1, 65100, Note_off_c, 1, 60, 0
1, 65100, Note_on_c, 1, 76, 127
1, 65100, Note_on_c, 1, 61, 127
1, 65100, Note_on_c, 1, 49, 127
1, 65159, Note_off_c, 1, 68, 0
1, 65159, Note_off_c, 1, 76, 0
1, 65159, Note_off_c, 1, 61, 0
1, 65159, Note_off_c, 1, 49, 0
1, 65160, Note_on_c, 1, 68, 127
1, 65160, Note_on_c, 1, 75, 127
1, 65160, Note_on_c, 1, 60, 127
1, 65174, Note_off_c, 1, 68, 0
1, 65219, Note_off_c, 1, 75, 0
1, 65219, Note_off_c, 1, 60, 0
1, 65220, Note_on_c, 1, 68, 127
1, 65220, Note_on_c, 1, 76, 127
1, 65220, Note_on_c, 1, 61, 127
1, 65220, Note_on_c, 1, 47, 127
1, 65234, Note_off_c, 1, 68, 0
1, 65279, Note_off_c, 1, 76, 0
1, 65279, Note_off_c, 1, 61, 0
1, 65279, Note_off_c, 1, 47, 0
1, 65280, Note_on_c, 1, 76, 127
1, 65280, Note_on_c, 1, 69, 127
1, 65280, Note_on_c, 1, 61, 127
1, 65280, Note_on_c, 1, 45, 127
1, 65295, Note_on_c, 1, 78, 127
1, 65309, Note_off_c, 1, 69, 0
1, 65309, Note_off_c, 1, 78, 0
1, 65310, Note_on_c, 1, 80, 127
1, 65324, Note_off_c, 1, 80, 0
1, 65339, Note_off_c, 1, 76, 0
1, 65339, Note_off_c, 1, 61, 0
1, 65339, Note_off_c, 1, 45, 0
1, 65340, Note_on_c, 1, 80, 127
1, 65340, Note_on_c, 1, 66, 127
1, 65340, Note_on_c, 1, 75, 127
1, 65340, Note_on_c, 1, 60, 127
1, 65354, Note_off_c, 1, 80, 0
1, 65369, Note_off_c, 1, 66, 0
1, 65399, Note_off_c, 1, 75, 0
1, 65399, Note_off_c, 1, 60, 0
1, 65400, Note_on_c, 1, 80, 127
1, 65400, Note_on_c, 1, 64, 127
1, 65400, Note_on_c, 1, 76, 127
1, 65400, Note_on_c, 1, 61, 127
1, 65400, Note_on_c, 1, 44, 127
1, 65414, Note_off_c, 1, 80, 0
1, 65429, Note_off_c, 1, 64, 0
1, 65459, Note_off_c, 1, 76, 0
1, 65459, Note_off_c, 1, 61, 0
1, 65459, Note_off_c, 1, 44, 0
1, 65460, Note_on_c, 1, 81, 127
1, 65460, Note_on_c, 1, 63, 127
1, 65460, Note_on_c, 1, 78, 127
1, 65460, Note_on_c, 1, 42, 127
1, 65460, Note_on_c, 1, 69, 127
1, 65474, Note_off_c, 1, 42, 0
1, 65475, Note_on_c, 1, 44, 127
1, 65489, Note_off_c, 1, 44, 0
1, 65490, Note_on_c, 1, 45, 127
1, 65505, Note_off_c, 1, 45, 0
1, 65519, Note_off_c, 1, 81, 0
1, 65519, Note_off_c, 1, 63, 0
1, 65519, Note_off_c, 1, 78, 0
1, 65519, Note_off_c, 1, 69, 0
1, 65520, Note_on_c, 1, 76, 127
1, 65520, Note_on_c, 1, 61, 127
1, 65520, Note_on_c, 1, 45, 127
1, 65520, Note_on_c, 1, 64, 127
1, 65535, Note_off_c, 1, 45, 0
1, 65550, Note_on_c, 1, 60, 127
1, 65579, Note_off_c, 1, 76, 0
1, 65579, Note_off_c, 1, 60, 0
1, 65580, Note_off_c, 1, 64, 0
1, 65580, Note_on_c, 1, 78, 127
1, 65580, Note_on_c, 1, 66, 127
1, 65639, Note_off_c, 1, 78, 0
1, 65640, Note_off_c, 1, 61, 0
1, 65640, Note_off_c, 1, 66, 0
1, 65640, Note_on_c, 1, 80, 127
1, 65640, Note_on_c, 1, 44, 127
1, 65640, Note_on_c, 1, 68, 127
1, 65654, Note_off_c, 1, 80, 0
1, 65699, Note_off_c, 1, 44, 0
1, 65700, Note_off_c, 1, 68, 0
1, 65700, Note_on_c, 1, 75, 127
1, 65700, Note_on_c, 1, 63, 127
1, 65700, Note_on_c, 1, 48, 127
1, 65729, Note_off_c, 1, 75, 0
1, 65759, Note_off_c, 1, 63, 0
1, 65759, Note_off_c, 1, 48, 0
1, 65760, Note_on_c, 1, 72, 127
1, 65760, Note_on_c, 1, 56, 127
1, 65789, Note_off_c, 1, 72, 0
1, 65819, Note_off_c, 1, 56, 0
1, 65820, Note_on_c, 1, 76, 127
1, 65820, Note_on_c, 1, 56, 127
1, 65820, Note_on_c, 1, 49, 127
1, 65820, Note_on_c, 1, 68, 127
1, 65820, Note_on_c, 1, 64, 127
1, 65834, Note_off_c, 1, 76, 0
1, 65835, Note_on_c, 1, 75, 127
1, 65849, Note_off_c, 1, 75, 0
1, 65850, Note_on_c, 1, 73, 127
1, 65879, Note_off_c, 1, 49, 0
1, 65879, Note_off_c, 1, 68, 0
1, 65879, Note_off_c, 1, 64, 0
1, 65879, Note_off_c, 1, 73, 0
1, 65880, Note_on_c, 1, 72, 127
1, 65909, Note_off_c, 1, 72, 0
1, 65939, Note_off_c, 1, 56, 0
1, 65940, Note_on_c, 1, 63, 127
1, 65940, Note_on_c, 1, 54, 127
1, 65969, Note_off_c, 1, 63, 0
1, 65999, Note_off_c, 1, 54, 0
1, 66000, Note_on_c, 1, 73, 127
1, 66000, Note_on_c, 1, 61, 127
1, 66000, Note_on_c, 1, 52, 127
1, 66000, Note_on_c, 1, 64, 127
1, 66015, Note_on_c, 1, 59, 127
1, 66029, Note_off_c, 1, 59, 0
1, 66030, Note_on_c, 1, 57, 127
1, 66059, Note_off_c, 1, 61, 0
1, 66059, Note_off_c, 1, 52, 0
1, 66059, Note_off_c, 1, 64, 0
1, 66059, Note_off_c, 1, 57, 0
1, 66060, Note_on_c, 1, 80, 127
1, 66060, Note_on_c, 1, 53, 127
1, 66089, Note_off_c, 1, 80, 0
1, 66090, Note_on_c, 1, 56, 127
1, 66119, Note_off_c, 1, 53, 0
1, 66120, Note_on_c, 1, 77, 127
1, 66120, Note_on_c, 1, 71, 127
1, 66120, Note_on_c, 1, 49, 127
1, 66149, Note_off_c, 1, 56, 0
1, 66149, Note_off_c, 1, 77, 0
1, 66149, Note_off_c, 1, 71, 0
1, 66179, Note_off_c, 1, 49, 0
1, 66180, Note_on_c, 1, 54, 127
1, 66180, Note_on_c, 1, 69, 127
1, 66180, Note_on_c, 1, 66, 127
1, 66239, Note_off_c, 1, 54, 0
1, 66239, Note_off_c, 1, 69, 0
1, 66239, Note_off_c, 1, 66, 0
1, 66300, Note_on_c, 1, 68, 127
1, 66329, Note_off_c, 1, 68, 0
1, 66390, Note_off_c, 1, 73, 0
1, 66390, Note_on_c, 1, 72, 127
1, 66419, Note_off_c, 1, 72, 0
1, 66420, Note_on_c, 1, 78, 127
1, 66449, Note_off_c, 1, 78, 0
1, 66450, Note_on_c, 1, 76, 127
1, 66479, Note_off_c, 1, 76, 0
1, 66480, Note_on_c, 1, 75, 127
1, 66480, Note_on_c, 1, 63, 127
1, 66509, Note_off_c, 1, 75, 0
1, 66539, Note_off_c, 1, 63, 0
1, 66555, Note_on_c, 1, 58, 127
1, 66570, Note_off_c, 1, 58, 0
1, 66570, Note_on_c, 1, 60, 127
1, 66585, Note_off_c, 1, 60, 0
1, 66600, Note_on_c, 1, 75, 127
1, 66600, Note_on_c, 1, 54, 127
1, 66600, Note_on_c, 1, 60, 127
1, 66600, Note_on_c, 1, 66, 127
1, 66600, Note_on_c, 1, 68, 127
1, 66615, Note_off_c, 1, 60, 0
1, 66629, Note_off_c, 1, 54, 0
1, 66630, Note_on_c, 1, 57, 127
1, 66659, Note_off_c, 1, 57, 0
1, 66660, Note_on_c, 1, 56, 127
1, 66689, Note_off_c, 1, 56, 0
1, 66720, Note_off_c, 1, 66, 0
1, 66720, Note_on_c, 1, 52, 127
1, 66720, Note_on_c, 1, 61, 127
1, 66720, Note_on_c, 1, 64, 127
1, 66749, Note_off_c, 1, 52, 0
1, 66779, Note_off_c, 1, 75, 0
1, 66779, Note_off_c, 1, 68, 0
1, 66779, Note_off_c, 1, 61, 0
1, 66779, Note_off_c, 1, 64, 0
1, 66780, Note_on_c, 1, 73, 127
1, 66780, Note_on_c, 1, 56, 127
1, 66780, Note_on_c, 1, 57, 127
1, 66780, Note_on_c, 1, 68, 127
1, 66809, Note_off_c, 1, 73, 0
1, 66810, Note_off_c, 1, 68, 0
1, 66810, Note_on_c, 1, 75, 127
1, 66810, Note_on_c, 1, 66, 127
1, 66839, Note_off_c, 1, 57, 0
1, 66839, Note_off_c, 1, 75, 0
1, 66840, Note_off_c, 1, 66, 0
1, 66840, Note_on_c, 1, 76, 127
1, 66840, Note_on_c, 1, 52, 127
1, 66840, Note_on_c, 1, 64, 127
1, 66840, Note_on_c, 1, 61, 127
1, 66899, Note_off_c, 1, 52, 0
1, 66899, Note_off_c, 1, 64, 0
1, 66899, Note_off_c, 1, 61, 0
1, 66900, Note_on_c, 1, 54, 127
1, 66929, Note_off_c, 1, 76, 0
1, 66930, Note_off_c, 1, 56, 0
1, 66930, Note_on_c, 1, 63, 127
1, 66959, Note_off_c, 1, 54, 0
1, 66960, Note_off_c, 1, 63, 0
1, 66960, Note_on_c, 1, 72, 127
1, 66960, Note_on_c, 1, 51, 127
1, 66960, Note_on_c, 1, 60, 127
1, 67019, Note_off_c, 1, 60, 0
1, 67020, Note_on_c, 1, 44, 127
1, 67049, Note_off_c, 1, 72, 0
1, 67049, Note_off_c, 1, 51, 0
1, 67050, Note_on_c, 1, 49, 127
1, 67079, Note_off_c, 1, 44, 0
1, 67079, Note_off_c, 1, 49, 0
1, 67080, Note_on_c, 1, 73, 127
1, 67080, Note_on_c, 1, 49, 127
1, 67080, Note_on_c, 1, 68, 127
1, 67080, Note_on_c, 1, 64, 127
1, 67199, Note_off_c, 1, 73, 0
1, 67199, Note_off_c, 1, 49, 0
1, 67199, Note_off_c, 1, 68, 0
1, 67199, Note_off_c, 1, 64, 0
1, 67260, Note_on_c, 1, 73, 127
1, 67260, Note_on_c, 1, 57, 127
1, 67319, Note_off_c, 1, 57, 0
1, 67320, Note_on_c, 1, 61, 127
1, 67349, Note_off_c, 1, 73, 0
1, 67350, Note_on_c, 1, 74, 127
1, 67364, Note_off_c, 1, 74, 0
1, 67365, Note_on_c, 1, 76, 127
1, 67379, Note_off_c, 1, 61, 0
1, 67379, Note_off_c, 1, 76, 0
1, 67380, Note_on_c, 1, 74, 127
1, 67380, Note_on_c, 1, 59, 127
1, 67439, Note_off_c, 1, 74, 0
1, 67439, Note_off_c, 1, 59, 0
1, 67440, Note_on_c, 1, 73, 127
1, 67440, Note_on_c, 1, 57, 127
1, 67454, Note_off_c, 1, 73, 0
1, 67455, Note_on_c, 1, 71, 127
1, 67469, Note_off_c, 1, 71, 0
1, 67470, Note_on_c, 1, 69, 127
1, 67499, Note_off_c, 1, 57, 0
1, 67499, Note_off_c, 1, 69, 0
1, 67500, Note_on_c, 1, 69, 127
1, 67500, Note_on_c, 1, 52, 127
1, 67529, Note_off_c, 1, 52, 0
1, 67530, Note_on_c, 1, 54, 127
1, 67559, Note_off_c, 1, 69, 0
1, 67559, Note_off_c, 1, 54, 0
1, 67560, Note_on_c, 1, 71, 127
1, 67560, Note_on_c, 1, 56, 127
1, 67589, Note_off_c, 1, 56, 0
1, 67590, Note_on_c, 1, 52, 127
1, 67619, Note_off_c, 1, 71, 0
1, 67619, Note_off_c, 1, 52, 0
1, 67620, Note_on_c, 1, 69, 127
1, 67620, Note_on_c, 1, 61, 127
1, 67620, Note_on_c, 1, 57, 127
1, 67679, Note_off_c, 1, 57, 0
1, 67680, Note_on_c, 1, 49, 127
1, 67709, Note_off_c, 1, 69, 0
1, 67709, Note_off_c, 1, 61, 0
1, 67710, Note_on_c, 1, 71, 127
1, 67710, Note_on_c, 1, 62, 127
1, 67724, Note_off_c, 1, 71, 0
1, 67724, Note_off_c, 1, 62, 0
1, 67725, Note_on_c, 1, 73, 127
1, 67725, Note_on_c, 1, 64, 127
1, 67739, Note_off_c, 1, 49, 0
1, 67739, Note_off_c, 1, 73, 0
1, 67739, Note_off_c, 1, 64, 0
1, 67740, Note_on_c, 1, 71, 127
1, 67740, Note_on_c, 1, 62, 127
1, 67740, Note_on_c, 1, 52, 127
1, 67799, Note_off_c, 1, 71, 0
1, 67799, Note_off_c, 1, 62, 0
1, 67799, Note_off_c, 1, 52, 0
1, 67800, Note_on_c, 1, 69, 127
1, 67800, Note_on_c, 1, 61, 127
1, 67800, Note_on_c, 1, 45, 127
1, 67814, Note_off_c, 1, 69, 0
1, 67814, Note_off_c, 1, 61, 0
1, 67815, Note_on_c, 1, 68, 127
1, 67815, Note_on_c, 1, 59, 127
1, 67829, Note_off_c, 1, 68, 0
1, 67829, Note_off_c, 1, 59, 0
1, 67830, Note_on_c, 1, 66, 127
1, 67830, Note_on_c, 1, 57, 127
1, 67859, Note_off_c, 1, 45, 0
1, 67859, Note_off_c, 1, 66, 0
1, 67859, Note_off_c, 1, 57, 0
1, 67860, Note_on_c, 1, 66, 127
1, 67860, Note_on_c, 1, 59, 127
1, 67860, Note_on_c, 1, 52, 127
1, 67889, Note_off_c, 1, 52, 0
1, 67890, Note_off_c, 1, 66, 0
1, 67890, Note_on_c, 1, 68, 127
1, 67890, Note_on_c, 1, 54, 127
1, 67919, Note_off_c, 1, 54, 0
1, 67920, Note_off_c, 1, 68, 0
1, 67920, Note_on_c, 1, 64, 127
1, 67920, Note_on_c, 1, 56, 127
1, 67949, Note_off_c, 1, 56, 0
1, 67980, Note_off_c, 1, 59, 0
1, 67980, Note_on_c, 1, 61, 127
1, 67980, Note_on_c, 1, 57, 127
1, 68009, Note_off_c, 1, 64, 0
1, 68009, Note_off_c, 1, 61, 0
1, 68010, Note_on_c, 1, 63, 127
1, 68039, Note_off_c, 1, 57, 0
1, 68039, Note_off_c, 1, 63, 0
1, 68040, Note_on_c, 1, 66, 127
1, 68040, Note_on_c, 1, 63, 127
1, 68040, Note_on_c, 1, 45, 127
1, 68069, Note_off_c, 1, 66, 0
1, 68069, Note_off_c, 1, 63, 0
1, 68070, Note_on_c, 1, 68, 127
1, 68070, Note_on_c, 1, 65, 127
1, 68099, Note_off_c, 1, 45, 0
1, 68099, Note_off_c, 1, 68, 0
1, 68099, Note_off_c, 1, 65, 0
1, 68100, Note_on_c, 1, 68, 127
1, 68100, Note_on_c, 1, 65, 127
1, 68100, Note_on_c, 1, 44, 127
1, 68129, Note_off_c, 1, 68, 0
1, 68129, Note_off_c, 1, 65, 0
1, 68130, Note_on_c, 1, 69, 127
1, 68130, Note_on_c, 1, 66, 127
1, 68159, Note_off_c, 1, 44, 0
1, 68159, Note_off_c, 1, 69, 0
1, 68159, Note_off_c, 1, 66, 0
1, 68160, Note_on_c, 1, 69, 127
1, 68160, Note_on_c, 1, 66, 127
1, 68160, Note_on_c, 1, 42, 127
1, 68174, Note_off_c, 1, 69, 0
1, 68174, Note_off_c, 1, 66, 0
1, 68175, Note_on_c, 1, 71, 127
1, 68175, Note_on_c, 1, 68, 127
1, 68189, Note_off_c, 1, 71, 0
1, 68189, Note_off_c, 1, 68, 0
1, 68190, Note_on_c, 1, 73, 127
1, 68219, Note_off_c, 1, 42, 0
1, 68219, Note_off_c, 1, 73, 0
1, 68220, Note_on_c, 1, 73, 127
1, 68220, Note_on_c, 1, 69, 127
1, 68220, Note_on_c, 1, 54, 127
1, 68249, Note_off_c, 1, 54, 0
1, 68250, Note_on_c, 1, 56, 127
1, 68279, Note_off_c, 1, 73, 0
1, 68279, Note_off_c, 1, 69, 0
1, 68279, Note_off_c, 1, 56, 0
1, 68280, Note_on_c, 1, 63, 127
1, 68280, Note_on_c, 1, 59, 127
1, 68280, Note_on_c, 1, 57, 127
1, 68309, Note_off_c, 1, 57, 0
1, 68310, Note_on_c, 1, 54, 127
1, 68339, Note_off_c, 1, 54, 0
1, 68340, Note_on_c, 1, 56, 127
1, 68369, Note_off_c, 1, 63, 0
1, 68369, Note_off_c, 1, 59, 0
1, 68370, Note_on_c, 1, 64, 127
1, 68370, Note_on_c, 1, 61, 127
1, 68399, Note_off_c, 1, 56, 0
1, 68399, Note_off_c, 1, 64, 0
1, 68399, Note_off_c, 1, 61, 0
1, 68400, Note_on_c, 1, 64, 127
1, 68400, Note_on_c, 1, 61, 127
1, 68400, Note_on_c, 1, 44, 127
1, 68429, Note_off_c, 1, 64, 0
1, 68429, Note_off_c, 1, 61, 0
1, 68430, Note_on_c, 1, 66, 127
1, 68430, Note_on_c, 1, 63, 127
1, 68459, Note_off_c, 1, 44, 0
1, 68459, Note_off_c, 1, 66, 0
1, 68459, Note_off_c, 1, 63, 0
1, 68460, Note_on_c, 1, 66, 127
1, 68460, Note_on_c, 1, 63, 127
1, 68460, Note_on_c, 1, 42, 127
1, 68489, Note_off_c, 1, 66, 0
1, 68489, Note_off_c, 1, 63, 0
1, 68490, Note_on_c, 1, 68, 127
1, 68490, Note_on_c, 1, 64, 127
1, 68519, Note_off_c, 1, 42, 0
1, 68519, Note_off_c, 1, 68, 0
1, 68519, Note_off_c, 1, 64, 0
1, 68520, Note_on_c, 1, 68, 127
1, 68520, Note_on_c, 1, 64, 127
1, 68520, Note_on_c, 1, 40, 127
1, 68534, Note_off_c, 1, 68, 0
1, 68534, Note_off_c, 1, 64, 0
1, 68535, Note_on_c, 1, 69, 127
1, 68535, Note_on_c, 1, 66, 127
1, 68549, Note_off_c, 1, 69, 0
1, 68549, Note_off_c, 1, 66, 0
1, 68550, Note_on_c, 1, 71, 127
1, 68579, Note_off_c, 1, 40, 0
1, 68579, Note_off_c, 1, 71, 0
1, 68580, Note_on_c, 1, 71, 127
1, 68580, Note_on_c, 1, 68, 127
1, 68580, Note_on_c, 1, 52, 127
1, 68609, Note_off_c, 1, 52, 0
1, 68610, Note_on_c, 1, 54, 127
1, 68639, Note_off_c, 1, 68, 0
1, 68639, Note_off_c, 1, 54, 0
1, 68640, Note_on_c, 1, 56, 127
1, 68669, Note_off_c, 1, 71, 0
1, 68669, Note_off_c, 1, 56, 0
1, 68670, Note_on_c, 1, 76, 127
1, 68670, Note_on_c, 1, 52, 127
1, 68699, Note_off_c, 1, 76, 0
1, 68699, Note_off_c, 1, 52, 0
1, 68700, Note_on_c, 1, 75, 127
1, 68700, Note_on_c, 1, 59, 127
1, 68714, Note_off_c, 1, 75, 0
1, 68715, Note_on_c, 1, 73, 127
1, 68729, Note_off_c, 1, 59, 0
1, 68729, Note_off_c, 1, 73, 0
1, 68730, Note_on_c, 1, 71, 127
1, 68730, Note_on_c, 1, 47, 127
1, 68759, Note_off_c, 1, 71, 0
1, 68759, Note_off_c, 1, 47, 0
1, 68760, Note_on_c, 1, 71, 127
1, 68760, Note_on_c, 1, 47, 127
1, 68789, Note_off_c, 1, 71, 0
1, 68789, Note_off_c, 1, 47, 0
1, 68790, Note_on_c, 1, 70, 127
1, 68790, Note_on_c, 1, 47, 127
1, 68819, Note_off_c, 1, 47, 0
1, 68850, Note_off_c, 1, 70, 0
1, 68850, Note_on_c, 1, 71, 127
1, 68879, Note_off_c, 1, 71, 0
1, 68880, Note_on_c, 1, 69, 127
1, 68880, Note_on_c, 1, 47, 127
1, 68894, Note_off_c, 1, 69, 0
1, 68895, Note_on_c, 1, 68, 127
1, 68909, Note_off_c, 1, 47, 0
1, 68909, Note_off_c, 1, 68, 0
1, 68910, Note_on_c, 1, 66, 127
1, 68910, Note_on_c, 1, 49, 127
1, 68939, Note_off_c, 1, 66, 0
1, 68939, Note_off_c, 1, 49, 0
1, 68940, Note_on_c, 1, 64, 127
1, 68940, Note_on_c, 1, 49, 127
1, 68969, Note_off_c, 1, 49, 0
1, 68970, Note_on_c, 1, 47, 127
1, 68999, Note_off_c, 1, 47, 0
1, 69030, Note_on_c, 1, 74, 127
1, 69030, Note_on_c, 1, 45, 127
1, 69059, Note_off_c, 1, 74, 0
1, 69059, Note_off_c, 1, 45, 0
1, 69060, Note_on_c, 1, 73, 127
1, 69074, Note_off_c, 1, 73, 0
1, 69075, Note_on_c, 1, 71, 127
1, 69089, Note_off_c, 1, 71, 0
1, 69090, Note_on_c, 1, 69, 127
1, 69119, Note_off_c, 1, 69, 0
1, 69150, Note_on_c, 1, 68, 127
1, 69209, Note_off_c, 1, 68, 0
1, 69240, Note_on_c, 1, 67, 127
1, 69254, Note_off_c, 1, 67, 0
1, 69255, Note_off_c, 1, 64, 0
1, 69255, Note_on_c, 1, 63, 127
1, 69255, Note_on_c, 1, 66, 127
1, 69269, Note_off_c, 1, 63, 0
1, 69269, Note_off_c, 1, 66, 0
1, 69270, Note_on_c, 1, 61, 127
1, 69270, Note_on_c, 1, 64, 127
1, 69270, Note_on_c, 1, 46, 127
1, 69299, Note_off_c, 1, 64, 0
1, 69299, Note_off_c, 1, 46, 0
1, 69300, Note_off_c, 1, 61, 0
1, 69300, Note_on_c, 1, 69, 127
1, 69300, Note_on_c, 1, 63, 127
1, 69300, Note_on_c, 1, 47, 127
1, 69329, Note_off_c, 1, 47, 0
1, 69330, Note_on_c, 1, 45, 127
1, 69359, Note_off_c, 1, 45, 0
1, 69360, Note_on_c, 1, 44, 127
1, 69389, Note_off_c, 1, 44, 0
1, 69390, Note_on_c, 1, 42, 127
1, 69419, Note_off_c, 1, 63, 0
1, 69419, Note_off_c, 1, 42, 0
1, 69420, Note_off_c, 1, 69, 0
1, 69420, Note_on_c, 1, 68, 127
1, 69420, Note_on_c, 1, 40, 127
1, 69434, Note_off_c, 1, 68, 0
1, 69450, Note_on_c, 1, 71, 127
1, 69464, Note_off_c, 1, 71, 0
1, 69479, Note_off_c, 1, 40, 0
1, 69480, Note_on_c, 1, 71, 127
1, 69480, Note_on_c, 1, 68, 127
1, 69480, Note_on_c, 1, 52, 127
1, 69494, Note_off_c, 1, 71, 0
1, 69539, Note_off_c, 1, 68, 0
1, 69539, Note_off_c, 1, 52, 0
1, 69540, Note_on_c, 1, 71, 127
1, 69540, Note_on_c, 1, 66, 127
1, 69540, Note_on_c, 1, 51, 127
1, 69554, Note_off_c, 1, 71, 0
1, 69599, Note_off_c, 1, 66, 0
1, 69599, Note_off_c, 1, 51, 0
1, 69600, Note_on_c, 1, 76, 127
1, 69600, Note_on_c, 1, 68, 127
1, 69600, Note_on_c, 1, 49, 127
1, 69614, Note_off_c, 1, 76, 0
1, 69615, Note_on_c, 1, 75, 127
1, 69629, Note_off_c, 1, 75, 0
1, 69630, Note_on_c, 1, 73, 127
1, 69644, Note_off_c, 1, 73, 0
1, 69659, Note_off_c, 1, 68, 0
1, 69659, Note_off_c, 1, 49, 0
1, 69660, Note_on_c, 1, 71, 127
1, 69660, Note_on_c, 1, 66, 127
1, 69660, Note_on_c, 1, 51, 127
1, 69674, Note_off_c, 1, 71, 0
1, 69689, Note_off_c, 1, 66, 0
1, 69689, Note_off_c, 1, 51, 0
1, 69690, Note_on_c, 1, 71, 127
1, 69690, Note_on_c, 1, 64, 127
1, 69690, Note_on_c, 1, 49, 127
1, 69704, Note_off_c, 1, 71, 0
1, 69719, Note_off_c, 1, 64, 0
1, 69719, Note_off_c, 1, 49, 0
1, 69720, Note_on_c, 1, 71, 127
1, 69720, Note_on_c, 1, 66, 127
1, 69720, Note_on_c, 1, 51, 127
1, 69734, Note_off_c, 1, 71, 0
1, 69749, Note_off_c, 1, 66, 0
1, 69749, Note_off_c, 1, 51, 0
1, 69750, Note_on_c, 1, 69, 127
1, 69750, Note_on_c, 1, 63, 127
1, 69750, Note_on_c, 1, 47, 127
1, 69764, Note_off_c, 1, 69, 0
1, 69779, Note_off_c, 1, 63, 0
1, 69779, Note_off_c, 1, 47, 0
1, 69780, Note_on_c, 1, 68, 127
1, 69780, Note_on_c, 1, 64, 127
1, 69780, Note_on_c, 1, 52, 127
1, 69794, Note_off_c, 1, 68, 0
1, 69795, Note_on_c, 1, 66, 127
1, 69809, Note_off_c, 1, 64, 0
1, 69809, Note_off_c, 1, 66, 0
1, 69839, Note_off_c, 1, 52, 0
1, 69840, Note_on_c, 1, 68, 127
1, 69840, Note_on_c, 1, 64, 127
1, 69840, Note_on_c, 1, 59, 127
1, 69869, Note_off_c, 1, 68, 0
1, 69869, Note_off_c, 1, 64, 0
1, 69899, Note_off_c, 1, 59, 0
1, 69900, Note_on_c, 1, 66, 127
1, 69900, Note_on_c, 1, 63, 127
1, 69900, Note_on_c, 1, 47, 127
1, 69910, Note_off_c, 1, 66, 0
1, 69910, Note_on_c, 1, 68, 127
1, 69920, Note_off_c, 1, 68, 0
1, 69959, Note_off_c, 1, 63, 0
1, 69959, Note_off_c, 1, 47, 0
1, 69960, Note_on_c, 1, 64, 127
1, 69960, Note_on_c, 1, 40, 127
1, 70019, Note_off_c, 1, 40, 0
1, 70020, Note_on_c, 1, 52, 127
1, 70049, Note_off_c, 1, 52, 0
1, 70050, Note_on_c, 1, 54, 127
1, 70079, Note_off_c, 1, 64, 0
1, 70079, Note_off_c, 1, 54, 0
1, 70080, Note_on_c, 1, 56, 127
1, 70109, Note_off_c, 1, 56, 0
1, 70110, Note_on_c, 1, 52, 127
1, 70139, Note_off_c, 1, 52, 0
1, 70140, Note_on_c, 1, 73, 127
1, 70140, Note_on_c, 1, 57, 127
1, 70140, Note_on_c, 1, 64, 127
1, 70140, Note_on_c, 1, 61, 127
1, 70199, Note_off_c, 1, 57, 0
1, 70199, Note_off_c, 1, 64, 0
1, 70199, Note_off_c, 1, 61, 0
1, 70229, Note_off_c, 1, 73, 0
1, 70230, Note_on_c, 1, 74, 127
1, 70244, Note_off_c, 1, 74, 0
1, 70245, Note_on_c, 1, 76, 127
1, 70259, Note_off_c, 1, 76, 0
1, 70260, Note_on_c, 1, 74, 127
1, 70260, Note_on_c, 1, 59, 127
1, 70319, Note_off_c, 1, 74, 0
1, 70319, Note_off_c, 1, 59, 0
1, 70320, Note_on_c, 1, 73, 127
1, 70320, Note_on_c, 1, 57, 127
1, 70334, Note_off_c, 1, 73, 0
1, 70335, Note_on_c, 1, 74, 127
1, 70335, Note_on_c, 1, 71, 127
1, 70349, Note_off_c, 1, 74, 0
1, 70349, Note_off_c, 1, 71, 0
1, 70350, Note_on_c, 1, 76, 127
1, 70350, Note_on_c, 1, 69, 127
1, 70364, Note_off_c, 1, 76, 0
1, 70379, Note_off_c, 1, 57, 0
1, 70379, Note_off_c, 1, 69, 0
1, 70380, Note_on_c, 1, 76, 127
1, 70380, Note_on_c, 1, 69, 127
1, 70380, Note_on_c, 1, 56, 127
1, 70394, Note_off_c, 1, 76, 0
1, 70439, Note_off_c, 1, 69, 0
1, 70439, Note_off_c, 1, 56, 0
1, 70440, Note_on_c, 1, 76, 127
1, 70440, Note_on_c, 1, 71, 127
1, 70454, Note_off_c, 1, 76, 0
1, 70499, Note_off_c, 1, 71, 0
1, 70500, Note_on_c, 1, 81, 127
1, 70500, Note_on_c, 1, 69, 127
1, 70500, Note_on_c, 1, 61, 127
1, 70500, Note_on_c, 1, 57, 127
1, 70514, Note_off_c, 1, 81, 0
1, 70515, Note_on_c, 1, 80, 127
1, 70529, Note_off_c, 1, 80, 0
1, 70530, Note_on_c, 1, 78, 127
1, 70544, Note_off_c, 1, 78, 0
1, 70559, Note_off_c, 1, 57, 0
1, 70560, Note_on_c, 1, 49, 127
1, 70589, Note_off_c, 1, 69, 0
1, 70589, Note_off_c, 1, 61, 0
1, 70590, Note_on_c, 1, 71, 127
1, 70590, Note_on_c, 1, 62, 127
1, 70604, Note_off_c, 1, 71, 0
1, 70604, Note_off_c, 1, 62, 0
1, 70605, Note_on_c, 1, 73, 127
1, 70605, Note_on_c, 1, 64, 127
1, 70619, Note_off_c, 1, 49, 0
1, 70619, Note_off_c, 1, 73, 0
1, 70619, Note_off_c, 1, 64, 0
1, 70620, Note_on_c, 1, 76, 127
1, 70620, Note_on_c, 1, 52, 127
1, 70679, Note_off_c, 1, 52, 0
1, 70680, Note_on_c, 1, 45, 127
1, 70695, Note_on_c, 1, 68, 127
1, 70695, Note_on_c, 1, 59, 127
1, 70709, Note_off_c, 1, 68, 0
1, 70709, Note_off_c, 1, 59, 0
1, 70710, Note_on_c, 1, 66, 127
1, 70739, Note_off_c, 1, 45, 0
1, 70740, Note_off_c, 1, 66, 0
1, 70740, Note_on_c, 1, 40, 127
1, 70754, Note_off_c, 1, 76, 0
1, 70799, Note_off_c, 1, 40, 0
1, 70830, Note_on_c, 1, 74, 127
1, 70860, Note_off_c, 1, 74, 0
1, 70920, Note_on_c, 1, 68, 127
1, 70920, Note_on_c, 1, 59, 127
1, 70920, Note_on_c, 1, 49, 127
1, 70920, Note_on_c, 1, 71, 127
1, 70949, Note_off_c, 1, 59, 0
1, 70950, Note_on_c, 1, 66, 127
1, 70950, Note_on_c, 1, 57, 127
1, 70979, Note_off_c, 1, 68, 0
1, 70979, Note_off_c, 1, 49, 0
1, 70979, Note_off_c, 1, 71, 0
1, 70979, Note_off_c, 1, 66, 0
1, 70979, Note_off_c, 1, 57, 0
1, 70980, Note_on_c, 1, 69, 127
1, 70980, Note_on_c, 1, 66, 127
1, 70980, Note_on_c, 1, 57, 127
1, 70980, Note_on_c, 1, 54, 127
1, 70994, Note_off_c, 1, 69, 0
1, 70995, Note_on_c, 1, 71, 127
1, 70995, Note_on_c, 1, 68, 127
1, 71009, Note_off_c, 1, 71, 0
1, 71009, Note_off_c, 1, 68, 0
1, 71010, Note_on_c, 1, 73, 127
1, 71039, Note_off_c, 1, 54, 0
1, 71039, Note_off_c, 1, 73, 0
1, 71040, Note_on_c, 1, 52, 127
1, 71069, Note_off_c, 1, 66, 0
1, 71069, Note_off_c, 1, 57, 0
1, 71099, Note_off_c, 1, 52, 0
1, 71100, Note_on_c, 1, 68, 127
1, 71100, Note_on_c, 1, 59, 127
1, 71100, Note_on_c, 1, 50, 127
1, 71100, Note_on_c, 1, 71, 127
1, 71129, Note_off_c, 1, 59, 0
1, 71130, Note_on_c, 1, 70, 127
1, 71130, Note_on_c, 1, 61, 127
1, 71159, Note_off_c, 1, 50, 0
1, 71159, Note_off_c, 1, 71, 0
1, 71159, Note_off_c, 1, 70, 0
1, 71159, Note_off_c, 1, 61, 0
1, 71160, Note_on_c, 1, 49, 127
1, 71190, Note_on_c, 1, 62, 127
1, 71219, Note_off_c, 1, 49, 0
1, 71219, Note_off_c, 1, 62, 0
1, 71220, Note_off_c, 1, 68, 0
1, 71220, Note_on_c, 1, 74, 127
1, 71220, Note_on_c, 1, 47, 127
1, 71220, Note_on_c, 1, 66, 127
1, 71279, Note_off_c, 1, 47, 0
1, 71279, Note_off_c, 1, 66, 0
1, 71280, Note_on_c, 1, 54, 127
1, 71309, Note_off_c, 1, 74, 0
1, 71309, Note_off_c, 1, 54, 0
1, 71310, Note_on_c, 1, 76, 127
1, 71310, Note_on_c, 1, 73, 127
1, 71310, Note_on_c, 1, 56, 127
1, 71324, Note_off_c, 1, 76, 0
1, 71324, Note_off_c, 1, 73, 0
1, 71325, Note_on_c, 1, 78, 127
1, 71339, Note_off_c, 1, 56, 0
1, 71339, Note_off_c, 1, 78, 0
1, 71340, Note_on_c, 1, 76, 127
1, 71340, Note_on_c, 1, 73, 127
1, 71340, Note_on_c, 1, 58, 127
1, 71369, Note_off_c, 1, 58, 0
1, 71370, Note_on_c, 1, 54, 127
1, 71399, Note_off_c, 1, 76, 0
1, 71399, Note_off_c, 1, 73, 0
1, 71399, Note_off_c, 1, 54, 0
1, 71400, Note_on_c, 1, 74, 127
1, 71400, Note_on_c, 1, 71, 127
1, 71400, Note_on_c, 1, 59, 127
1, 71430, Note_on_c, 1, 73, 127
1, 71430, Note_on_c, 1, 57, 127
1, 71459, Note_off_c, 1, 74, 0
1, 71459, Note_off_c, 1, 71, 0
1, 71459, Note_off_c, 1, 59, 0
1, 71459, Note_off_c, 1, 73, 0
1, 71459, Note_off_c, 1, 57, 0
1, 71460, Note_on_c, 1, 73, 127
1, 71460, Note_on_c, 1, 57, 127
1, 71460, Note_on_c, 1, 61, 127
1, 71460, Note_on_c, 1, 69, 127
1, 71460, Note_on_c, 1, 64, 127
1, 71489, Note_off_c, 1, 73, 0
1, 71489, Note_off_c, 1, 57, 0
1, 71490, Note_on_c, 1, 71, 127
1, 71490, Note_on_c, 1, 56, 127
1, 71519, Note_off_c, 1, 61, 0
1, 71519, Note_off_c, 1, 69, 0
1, 71519, Note_off_c, 1, 64, 0
1, 71519, Note_off_c, 1, 71, 0
1, 71519, Note_off_c, 1, 56, 0
1, 71520, Note_on_c, 1, 71, 127
1, 71520, Note_on_c, 1, 68, 127
1, 71520, Note_on_c, 1, 56, 127
1, 71520, Note_on_c, 1, 62, 127
1, 71534, Note_off_c, 1, 68, 0
1, 71535, Note_on_c, 1, 73, 127
1, 71535, Note_on_c, 1, 69, 127
1, 71549, Note_off_c, 1, 73, 0
1, 71549, Note_off_c, 1, 69, 0
1, 71550, Note_on_c, 1, 74, 127
1, 71579, Note_off_c, 1, 62, 0
1, 71579, Note_off_c, 1, 74, 0
1, 71580, Note_on_c, 1, 52, 127
1, 71609, Note_off_c, 1, 56, 0
1, 71639, Note_off_c, 1, 71, 0
1, 71639, Note_off_c, 1, 52, 0
1, 71640, Note_on_c, 1, 57, 127
1, 71640, Note_on_c, 1, 64, 127
1, 71669, Note_off_c, 1, 57, 0
1, 71670, Note_on_c, 1, 59, 127
1, 71699, Note_off_c, 1, 64, 0
1, 71699, Note_off_c, 1, 59, 0
1, 71700, Note_on_c, 1, 74, 127
1, 71700, Note_on_c, 1, 59, 127
1, 71700, Note_on_c, 1, 62, 127
1, 71700, Note_on_c, 1, 71, 127
1, 71729, Note_off_c, 1, 74, 0
1, 71729, Note_off_c, 1, 59, 0
1, 71730, Note_on_c, 1, 76, 127
1, 71730, Note_on_c, 1, 61, 127
1, 71759, Note_off_c, 1, 62, 0
1, 71759, Note_off_c, 1, 71, 0
1, 71759, Note_off_c, 1, 76, 0
1, 71759, Note_off_c, 1, 61, 0
1, 71760, Note_on_c, 1, 61, 127
1, 71760, Note_on_c, 1, 76, 127
1, 71760, Note_on_c, 1, 69, 127
1, 71760, Note_on_c, 1, 64, 127
1, 71775, Note_on_c, 1, 62, 127
1, 71789, Note_off_c, 1, 62, 0
1, 71819, Note_off_c, 1, 61, 0
1, 71819, Note_off_c, 1, 69, 0
1, 71819, Note_off_c, 1, 64, 0
1, 71820, Note_on_c, 1, 59, 127
1, 71820, Note_on_c, 1, 56, 127
1, 71849, Note_off_c, 1, 59, 0
1, 71849, Note_off_c, 1, 56, 0
1, 71850, Note_on_c, 1, 57, 127
1, 71879, Note_off_c, 1, 57, 0
1, 71940, Note_on_c, 1, 73, 127
1, 71955, Note_on_c, 1, 68, 127
1, 71969, Note_off_c, 1, 68, 0
1, 71970, Note_on_c, 1, 66, 127
1, 71999, Note_off_c, 1, 66, 0
1, 72000, Note_on_c, 1, 49, 127
1, 72029, Note_off_c, 1, 73, 0
1, 72030, Note_on_c, 1, 74, 127
1, 72044, Note_off_c, 1, 74, 0
1, 72059, Note_off_c, 1, 49, 0
1, 72060, Note_on_c, 1, 47, 127
1, 72119, Note_off_c, 1, 47, 0
1, 72120, Note_on_c, 1, 52, 127
1, 72120, Note_on_c, 1, 45, 127
1, 72135, Note_on_c, 1, 71, 127
1, 72149, Note_off_c, 1, 71, 0
1, 72179, Note_off_c, 1, 45, 0
1, 72180, Note_off_c, 1, 76, 0
1, 72180, Note_on_c, 1, 44, 127
1, 72209, Note_off_c, 1, 44, 0
1, 72330, Note_on_c, 1, 40, 127
1, 72359, Note_off_c, 1, 40, 0
1, 72570, Note_on_c, 1, 54, 127
1, 72599, Note_off_c, 1, 54, 0
1, 72600, Note_off_c, 1, 52, 0
1, 72690, Note_on_c, 1, 63, 127
1, 72719, Note_off_c, 1, 63, 0
1, 72750, Note_on_c, 1, 65, 127
1, 72779, Note_off_c, 1, 65, 0
1, 72840, Note_on_c, 1, 69, 127
1, 72840, Note_on_c, 1, 66, 127
1, 72840, Note_on_c, 1, 54, 127
1, 72840, Note_on_c, 1, 42, 127
1, 72854, Note_off_c, 1, 66, 0
1, 72855, Note_on_c, 1, 71, 127
1, 72855, Note_on_c, 1, 68, 127
1, 72869, Note_off_c, 1, 69, 0
1, 72869, Note_off_c, 1, 54, 0
1, 72869, Note_off_c, 1, 71, 0
1, 72869, Note_off_c, 1, 68, 0
1, 72870, Note_on_c, 1, 73, 127
1, 72870, Note_on_c, 1, 53, 127
1, 72899, Note_off_c, 1, 42, 0
1, 72899, Note_off_c, 1, 73, 0
1, 72899, Note_off_c, 1, 53, 0
1, 72900, Note_on_c, 1, 73, 127
1, 72900, Note_on_c, 1, 69, 127
1, 72900, Note_on_c, 1, 54, 127
1, 72930, Note_on_c, 1, 56, 127
1, 72959, Note_off_c, 1, 73, 0
1, 72959, Note_off_c, 1, 69, 0
1, 72959, Note_off_c, 1, 54, 0
1, 72959, Note_off_c, 1, 56, 0
1, 72960, Note_on_c, 1, 63, 127
1, 72960, Note_on_c, 1, 59, 127
1, 72960, Note_on_c, 1, 57, 127
1, 72989, Note_off_c, 1, 57, 0
1, 72990, Note_on_c, 1, 54, 127
1, 73019, Note_off_c, 1, 54, 0
1, 73020, Note_on_c, 1, 71, 127
1, 73020, Note_on_c, 1, 56, 127
1, 73049, Note_off_c, 1, 63, 0
1, 73049, Note_off_c, 1, 59, 0
1, 73050, Note_on_c, 1, 64, 127
1, 73050, Note_on_c, 1, 61, 127
1, 73079, Note_off_c, 1, 64, 0
1, 73079, Note_off_c, 1, 61, 0
1, 73080, Note_on_c, 1, 52, 127
1, 73110, Note_on_c, 1, 66, 127
1, 73139, Note_off_c, 1, 71, 0
1, 73139, Note_off_c, 1, 56, 0
1, 73139, Note_off_c, 1, 52, 0
1, 73139, Note_off_c, 1, 66, 0
1, 73140, Note_on_c, 1, 66, 127
1, 73140, Note_on_c, 1, 63, 127
1, 73140, Note_on_c, 1, 69, 127
1, 73140, Note_on_c, 1, 54, 127
1, 73140, Note_on_c, 1, 47, 127
1, 73169, Note_off_c, 1, 66, 0
1, 73169, Note_off_c, 1, 63, 0
1, 73170, Note_on_c, 1, 68, 127
1, 73170, Note_on_c, 1, 64, 127
1, 73199, Note_off_c, 1, 69, 0
1, 73199, Note_off_c, 1, 54, 0
1, 73199, Note_off_c, 1, 47, 0
1, 73199, Note_off_c, 1, 68, 0
1, 73199, Note_off_c, 1, 64, 0
1, 73200, Note_on_c, 1, 68, 127
1, 73200, Note_on_c, 1, 64, 127
1, 73200, Note_on_c, 1, 52, 127
1, 73200, Note_on_c, 1, 40, 127
1, 73214, Note_off_c, 1, 64, 0
1, 73215, Note_on_c, 1, 69, 127
1, 73215, Note_on_c, 1, 66, 127
1, 73229, Note_off_c, 1, 68, 0
1, 73229, Note_off_c, 1, 52, 0
1, 73229, Note_off_c, 1, 69, 0
1, 73229, Note_off_c, 1, 66, 0
1, 73230, Note_on_c, 1, 71, 127
1, 73230, Note_on_c, 1, 51, 127
1, 73259, Note_off_c, 1, 40, 0
1, 73259, Note_off_c, 1, 71, 0
1, 73259, Note_off_c, 1, 51, 0
1, 73260, Note_on_c, 1, 71, 127
1, 73260, Note_on_c, 1, 68, 127
1, 73260, Note_on_c, 1, 52, 127
1, 73290, Note_on_c, 1, 54, 127
1, 73319, Note_off_c, 1, 68, 0
1, 73319, Note_off_c, 1, 52, 0
1, 73319, Note_off_c, 1, 54, 0
1, 73320, Note_on_c, 1, 59, 127
1, 73320, Note_on_c, 1, 56, 127
1, 73349, Note_off_c, 1, 71, 0
1, 73349, Note_off_c, 1, 56, 0
1, 73350, Note_on_c, 1, 76, 127
1, 73379, Note_off_c, 1, 76, 0
1, 73380, Note_on_c, 1, 75, 127
1, 73394, Note_off_c, 1, 75, 0
1, 73395, Note_on_c, 1, 73, 127
1, 73409, Note_off_c, 1, 59, 0
1, 73409, Note_off_c, 1, 73, 0
1, 73410, Note_on_c, 1, 71, 127
1, 73410, Note_on_c, 1, 57, 127
1, 73410, Note_on_c, 1, 47, 127
1, 73439, Note_off_c, 1, 71, 0
1, 73439, Note_off_c, 1, 57, 0
1, 73439, Note_off_c, 1, 47, 0
1, 73440, Note_on_c, 1, 71, 127
1, 73440, Note_on_c, 1, 55, 127
1, 73440, Note_on_c, 1, 47, 127
1, 73469, Note_off_c, 1, 71, 0
1, 73469, Note_off_c, 1, 55, 0
1, 73469, Note_off_c, 1, 47, 0
1, 73470, Note_on_c, 1, 70, 127
1, 73470, Note_on_c, 1, 54, 127
1, 73470, Note_on_c, 1, 47, 127
1, 73499, Note_off_c, 1, 54, 0
1, 73499, Note_off_c, 1, 47, 0
1, 73500, Note_on_c, 1, 73, 127
1, 73500, Note_on_c, 1, 55, 127
1, 73529, Note_off_c, 1, 70, 0
1, 73529, Note_off_c, 1, 55, 0
1, 73530, Note_on_c, 1, 71, 127
1, 73530, Note_on_c, 1, 52, 127
1, 73559, Note_off_c, 1, 71, 0
1, 73559, Note_off_c, 1, 52, 0
1, 73560, Note_on_c, 1, 69, 127
1, 73560, Note_on_c, 1, 51, 127
1, 73574, Note_off_c, 1, 69, 0
1, 73575, Note_on_c, 1, 68, 127
1, 73589, Note_off_c, 1, 73, 0
1, 73589, Note_off_c, 1, 68, 0
1, 73590, Note_on_c, 1, 66, 127
1, 73590, Note_on_c, 1, 49, 127
1, 73619, Note_off_c, 1, 51, 0
1, 73619, Note_off_c, 1, 66, 0
1, 73619, Note_off_c, 1, 49, 0
1, 73620, Note_on_c, 1, 64, 127
1, 73620, Note_on_c, 1, 69, 127
1, 73620, Note_on_c, 1, 52, 127
1, 73620, Note_on_c, 1, 49, 127
1, 73649, Note_off_c, 1, 69, 0
1, 73649, Note_off_c, 1, 52, 0
1, 73649, Note_off_c, 1, 49, 0
1, 73650, Note_on_c, 1, 68, 127
1, 73650, Note_on_c, 1, 47, 127
1, 73679, Note_off_c, 1, 68, 0
1, 73679, Note_off_c, 1, 47, 0
1, 73680, Note_on_c, 1, 54, 127
1, 73709, Note_off_c, 1, 54, 0
1, 73710, Note_on_c, 1, 74, 127
1, 73710, Note_on_c, 1, 71, 127
1, 73710, Note_on_c, 1, 56, 127
1, 73710, Note_on_c, 1, 45, 127
1, 73739, Note_off_c, 1, 74, 0
1, 73739, Note_off_c, 1, 71, 0
1, 73739, Note_off_c, 1, 56, 0
1, 73739, Note_off_c, 1, 45, 0
1, 73740, Note_on_c, 1, 73, 127
1, 73740, Note_on_c, 1, 57, 127
1, 73799, Note_off_c, 1, 73, 0
1, 73799, Note_off_c, 1, 57, 0
1, 73860, Note_on_c, 1, 76, 127
1, 73860, Note_on_c, 1, 61, 127
1, 73889, Note_off_c, 1, 76, 0
1, 73889, Note_off_c, 1, 61, 0
1, 73890, Note_on_c, 1, 59, 127
1, 73919, Note_off_c, 1, 59, 0
1, 73920, Note_on_c, 1, 67, 127
1, 73934, Note_off_c, 1, 67, 0
1, 73935, Note_off_c, 1, 64, 0
1, 73935, Note_on_c, 1, 63, 127
1, 73935, Note_on_c, 1, 66, 127
1, 73949, Note_off_c, 1, 66, 0
1, 73950, Note_off_c, 1, 63, 0
1, 73950, Note_on_c, 1, 58, 127
1, 73950, Note_on_c, 1, 46, 127
1, 73979, Note_off_c, 1, 58, 0
1, 73979, Note_off_c, 1, 46, 0
1, 74040, Note_on_c, 1, 44, 127
1, 74069, Note_off_c, 1, 44, 0
1, 74070, Note_on_c, 1, 42, 127
1, 74099, Note_off_c, 1, 42, 0
1, 74100, Note_on_c, 1, 40, 127
1, 74159, Note_off_c, 1, 40, 0
1, 74220, Note_on_c, 1, 68, 127
1, 74220, Note_on_c, 1, 64, 127
1, 74220, Note_on_c, 1, 71, 127
1, 74220, Note_on_c, 1, 56, 127
1, 74220, Note_on_c, 1, 51, 127
1, 74249, Note_off_c, 1, 71, 0
1, 74249, Note_off_c, 1, 56, 0
1, 74279, Note_off_c, 1, 68, 0
1, 74279, Note_off_c, 1, 64, 0
1, 74279, Note_off_c, 1, 51, 0
1, 74280, Note_on_c, 1, 76, 127
1, 74280, Note_on_c, 1, 56, 127
1, 74280, Note_on_c, 1, 49, 127
1, 74280, Note_on_c, 1, 68, 127
1, 74280, Note_on_c, 1, 64, 127
1, 74294, Note_off_c, 1, 76, 0
1, 74294, Note_off_c, 1, 56, 0
1, 74295, Note_on_c, 1, 75, 127
1, 74295, Note_on_c, 1, 54, 127
1, 74309, Note_off_c, 1, 75, 0
1, 74309, Note_off_c, 1, 54, 0
1, 74310, Note_on_c, 1, 73, 127
1, 74310, Note_on_c, 1, 52, 127
1, 74339, Note_off_c, 1, 49, 0
1, 74339, Note_off_c, 1, 68, 0
1, 74339, Note_off_c, 1, 64, 0
1, 74339, Note_off_c, 1, 73, 0
1, 74339, Note_off_c, 1, 52, 0
1, 74340, Note_on_c, 1, 66, 127
1, 74340, Note_on_c, 1, 63, 127
1, 74340, Note_on_c, 1, 71, 127
1, 74340, Note_on_c, 1, 54, 127
1, 74340, Note_on_c, 1, 51, 127
1, 74354, Note_off_c, 1, 66, 0
1, 74354, Note_off_c, 1, 63, 0
1, 74355, Note_on_c, 1, 68, 127
1, 74355, Note_on_c, 1, 64, 127
1, 74369, Note_off_c, 1, 51, 0
1, 74369, Note_off_c, 1, 68, 0
1, 74369, Note_off_c, 1, 64, 0
1, 74370, Note_on_c, 1, 69, 127
1, 74370, Note_on_c, 1, 47, 127
1, 74399, Note_off_c, 1, 54, 0
1, 74399, Note_off_c, 1, 69, 0
1, 74399, Note_off_c, 1, 47, 0
1, 74400, Note_on_c, 1, 49, 127
1, 74429, Note_off_c, 1, 71, 0
1, 74429, Note_off_c, 1, 49, 0
1, 74460, Note_on_c, 1, 68, 127
1, 74460, Note_on_c, 1, 52, 127
1, 74460, Note_on_c, 1, 64, 127
1, 74475, Note_on_c, 1, 66, 127
1, 74489, Note_off_c, 1, 66, 0
1, 74519, Note_off_c, 1, 68, 0
1, 74519, Note_off_c, 1, 64, 0
1, 74520, Note_on_c, 1, 59, 127
1, 74549, Note_off_c, 1, 52, 0
1, 74550, Note_on_c, 1, 54, 127
1, 74579, Note_off_c, 1, 59, 0
1, 74579, Note_off_c, 1, 54, 0
1, 74580, Note_on_c, 1, 66, 127
1, 74580, Note_on_c, 1, 51, 127
1, 74580, Note_on_c, 1, 47, 127
1, 74580, Note_on_c, 1, 69, 127
1, 74580, Note_on_c, 1, 63, 127
1, 74639, Note_off_c, 1, 66, 0
1, 74639, Note_off_c, 1, 51, 0
1, 74639, Note_off_c, 1, 47, 0
1, 74639, Note_off_c, 1, 69, 0
1, 74639, Note_off_c, 1, 63, 0
1, 74640, Note_on_c, 1, 68, 127
1, 74640, Note_on_c, 1, 64, 127
1, 74640, Note_on_c, 1, 52, 127
1, 74640, Note_on_c, 1, 40, 127
1, 74699, Note_off_c, 1, 40, 0
1, 74700, Note_on_c, 1, 44, 127
1, 74729, Note_off_c, 1, 68, 0
1, 74730, Note_on_c, 1, 69, 127
1, 74744, Note_off_c, 1, 69, 0
1, 74745, Note_on_c, 1, 71, 127
1, 74759, Note_off_c, 1, 64, 0
1, 74759, Note_off_c, 1, 52, 0
1, 74759, Note_off_c, 1, 44, 0
1, 74759, Note_off_c, 1, 71, 0
1, 74760, Note_on_c, 1, 69, 127
1, 74760, Note_on_c, 1, 47, 127
1, 74819, Note_off_c, 1, 69, 0
1, 74819, Note_off_c, 1, 47, 0
1, 74820, Note_on_c, 1, 71, 127
1, 74820, Note_on_c, 1, 68, 127
1, 74820, Note_on_c, 1, 52, 127
1, 74834, Note_off_c, 1, 68, 0
1, 74835, Note_on_c, 1, 66, 127
1, 74849, Note_off_c, 1, 66, 0
1, 74850, Note_on_c, 1, 64, 127
1, 74879, Note_off_c, 1, 52, 0
1, 74879, Note_off_c, 1, 64, 0
1, 74880, Note_on_c, 1, 51, 127
1, 74909, Note_off_c, 1, 71, 0
1, 74910, Note_on_c, 1, 73, 127
1, 74924, Note_off_c, 1, 73, 0
1, 74925, Note_on_c, 1, 74, 127
1, 74939, Note_off_c, 1, 51, 0
1, 74939, Note_off_c, 1, 74, 0
1, 74940, Note_on_c, 1, 73, 127
1, 74940, Note_on_c, 1, 53, 127
1, 74999, Note_off_c, 1, 73, 0
1, 74999, Note_off_c, 1, 53, 0
1, 75000, Note_on_c, 1, 71, 127
1, 75000, Note_on_c, 1, 73, 127
1, 75000, Note_on_c, 1, 54, 127
1, 75014, Note_off_c, 1, 71, 0
1, 75015, Note_on_c, 1, 69, 127
1, 75029, Note_off_c, 1, 54, 0
1, 75029, Note_off_c, 1, 69, 0
1, 75030, Note_on_c, 1, 68, 127
1, 75030, Note_on_c, 1, 42, 127
1, 75059, Note_off_c, 1, 68, 0
1, 75059, Note_off_c, 1, 42, 0
1, 75089, Note_off_c, 1, 73, 0
1, 75090, Note_on_c, 1, 69, 127
1, 75090, Note_on_c, 1, 74, 127
1, 75090, Note_on_c, 1, 44, 127
1, 75104, Note_off_c, 1, 74, 0
1, 75105, Note_on_c, 1, 76, 127
1, 75119, Note_off_c, 1, 69, 0
1, 75119, Note_off_c, 1, 44, 0
1, 75119, Note_off_c, 1, 76, 0
1, 75120, Note_on_c, 1, 74, 127
1, 75120, Note_on_c, 1, 44, 127
1, 75149, Note_off_c, 1, 44, 0
1, 75150, Note_on_c, 1, 45, 127
1, 75179, Note_off_c, 1, 74, 0
1, 75179, Note_off_c, 1, 45, 0
1, 75180, Note_on_c, 1, 76, 127
1, 75180, Note_on_c, 1, 73, 127
1, 75180, Note_on_c, 1, 45, 127
1, 75194, Note_off_c, 1, 73, 0
1, 75195, Note_on_c, 1, 71, 127
1, 75209, Note_off_c, 1, 71, 0
1, 75210, Note_on_c, 1, 69, 127
1, 75239, Note_off_c, 1, 45, 0
1, 75239, Note_off_c, 1, 69, 0
1, 75240, Note_on_c, 1, 44, 127
1, 75269, Note_off_c, 1, 76, 0
1, 75270, Note_on_c, 1, 78, 127
1, 75284, Note_off_c, 1, 78, 0
1, 75285, Note_on_c, 1, 79, 127
1, 75299, Note_off_c, 1, 44, 0
1, 75299, Note_off_c, 1, 79, 0
1, 75300, Note_on_c, 1, 78, 127
1, 75300, Note_on_c, 1, 46, 127
1, 75359, Note_off_c, 1, 78, 0
1, 75359, Note_off_c, 1, 46, 0
1, 75360, Note_on_c, 1, 76, 127
1, 75360, Note_on_c, 1, 59, 127
1, 75360, Note_on_c, 1, 47, 127
1, 75374, Note_off_c, 1, 76, 0
1, 75375, Note_on_c, 1, 74, 127
1, 75389, Note_off_c, 1, 47, 0
1, 75389, Note_off_c, 1, 74, 0
1, 75390, Note_on_c, 1, 73, 127
1, 75419, Note_off_c, 1, 73, 0
1, 75449, Note_off_c, 1, 59, 0
1, 75450, Note_on_c, 1, 74, 127
1, 75450, Note_on_c, 1, 61, 127
1, 75450, Note_on_c, 1, 57, 127
1, 75479, Note_off_c, 1, 74, 0
1, 75479, Note_off_c, 1, 61, 0
1, 75479, Note_off_c, 1, 57, 0
1, 75480, Note_on_c, 1, 64, 127
1, 75480, Note_on_c, 1, 62, 127
1, 75480, Note_on_c, 1, 57, 127
1, 75494, Note_off_c, 1, 62, 0
1, 75495, Note_on_c, 1, 61, 127
1, 75509, Note_off_c, 1, 57, 0
1, 75509, Note_off_c, 1, 61, 0
1, 75510, Note_on_c, 1, 59, 127
1, 75510, Note_on_c, 1, 56, 127
1, 75539, Note_off_c, 1, 59, 0
1, 75539, Note_off_c, 1, 56, 0
1, 75569, Note_off_c, 1, 64, 0
1, 75570, Note_on_c, 1, 66, 127
1, 75570, Note_on_c, 1, 63, 127
1, 75599, Note_off_c, 1, 66, 0
1, 75599, Note_off_c, 1, 63, 0
1, 75600, Note_on_c, 1, 66, 127
1, 75600, Note_on_c, 1, 63, 127
1, 75600, Note_on_c, 1, 45, 127
1, 75629, Note_off_c, 1, 66, 0
1, 75629, Note_off_c, 1, 63, 0
1, 75630, Note_on_c, 1, 68, 127
1, 75630, Note_on_c, 1, 65, 127
1, 75659, Note_off_c, 1, 45, 0
1, 75659, Note_off_c, 1, 68, 0
1, 75659, Note_off_c, 1, 65, 0
1, 75660, Note_on_c, 1, 68, 127
1, 75660, Note_on_c, 1, 65, 127
1, 75660, Note_on_c, 1, 44, 127
1, 75689, Note_off_c, 1, 68, 0
1, 75689, Note_off_c, 1, 65, 0
1, 75690, Note_on_c, 1, 69, 127
1, 75690, Note_on_c, 1, 66, 127
1, 75719, Note_off_c, 1, 44, 0
1, 75719, Note_off_c, 1, 69, 0
1, 75719, Note_off_c, 1, 66, 0
1, 75720, Note_on_c, 1, 69, 127
1, 75720, Note_on_c, 1, 66, 127
1, 75720, Note_on_c, 1, 42, 127
1, 75734, Note_off_c, 1, 69, 0
1, 75734, Note_off_c, 1, 66, 0
1, 75735, Note_on_c, 1, 71, 127
1, 75735, Note_on_c, 1, 68, 127
1, 75749, Note_off_c, 1, 71, 0
1, 75749, Note_off_c, 1, 68, 0
1, 75750, Note_on_c, 1, 73, 127
1, 75779, Note_off_c, 1, 42, 0
1, 75779, Note_off_c, 1, 73, 0
1, 75780, Note_on_c, 1, 73, 127
1, 75780, Note_on_c, 1, 69, 127
1, 75780, Note_on_c, 1, 54, 127
1, 75809, Note_off_c, 1, 54, 0
1, 75810, Note_on_c, 1, 56, 127
1, 75839, Note_off_c, 1, 73, 0
1, 75839, Note_off_c, 1, 69, 0
1, 75839, Note_off_c, 1, 56, 0
1, 75840, Note_on_c, 1, 63, 127
1, 75840, Note_on_c, 1, 59, 127
1, 75840, Note_on_c, 1, 57, 127
1, 75869, Note_off_c, 1, 57, 0
1, 75870, Note_on_c, 1, 54, 127
1, 75899, Note_off_c, 1, 54, 0
1, 75900, Note_on_c, 1, 56, 127
1, 75929, Note_off_c, 1, 63, 0
1, 75929, Note_off_c, 1, 59, 0
1, 75930, Note_on_c, 1, 64, 127
1, 75930, Note_on_c, 1, 61, 127
1, 75959, Note_off_c, 1, 56, 0
1, 75959, Note_off_c, 1, 64, 0
1, 75959, Note_off_c, 1, 61, 0
1, 75960, Note_on_c, 1, 64, 127
1, 75960, Note_on_c, 1, 61, 127
1, 75960, Note_on_c, 1, 44, 127
1, 75989, Note_off_c, 1, 64, 0
1, 75989, Note_off_c, 1, 61, 0
1, 75990, Note_on_c, 1, 66, 127
1, 75990, Note_on_c, 1, 63, 127
1, 76019, Note_off_c, 1, 44, 0
1, 76019, Note_off_c, 1, 66, 0
1, 76019, Note_off_c, 1, 63, 0
1, 76020, Note_on_c, 1, 66, 127
1, 76020, Note_on_c, 1, 63, 127
1, 76020, Note_on_c, 1, 42, 127
1, 76049, Note_off_c, 1, 66, 0
1, 76049, Note_off_c, 1, 63, 0
1, 76050, Note_on_c, 1, 68, 127
1, 76050, Note_on_c, 1, 64, 127
1, 76079, Note_off_c, 1, 42, 0
1, 76079, Note_off_c, 1, 68, 0
1, 76079, Note_off_c, 1, 64, 0
1, 76080, Note_on_c, 1, 68, 127
1, 76080, Note_on_c, 1, 64, 127
1, 76080, Note_on_c, 1, 40, 127
1, 76094, Note_off_c, 1, 68, 0
1, 76094, Note_off_c, 1, 64, 0
1, 76095, Note_on_c, 1, 69, 127
1, 76095, Note_on_c, 1, 66, 127
1, 76109, Note_off_c, 1, 69, 0
1, 76109, Note_off_c, 1, 66, 0
1, 76110, Note_on_c, 1, 71, 127
1, 76139, Note_off_c, 1, 40, 0
1, 76139, Note_off_c, 1, 71, 0
1, 76140, Note_on_c, 1, 71, 127
1, 76140, Note_on_c, 1, 68, 127
1, 76140, Note_on_c, 1, 52, 127
1, 76169, Note_off_c, 1, 52, 0
1, 76170, Note_on_c, 1, 54, 127
1, 76199, Note_off_c, 1, 68, 0
1, 76199, Note_off_c, 1, 54, 0
1, 76200, Note_on_c, 1, 56, 127
1, 76229, Note_off_c, 1, 71, 0
1, 76229, Note_off_c, 1, 56, 0
1, 76230, Note_on_c, 1, 76, 127
1, 76230, Note_on_c, 1, 52, 127
1, 76259, Note_off_c, 1, 76, 0
1, 76259, Note_off_c, 1, 52, 0
1, 76260, Note_on_c, 1, 75, 127
1, 76260, Note_on_c, 1, 59, 127
1, 76274, Note_off_c, 1, 75, 0
1, 76275, Note_on_c, 1, 73, 127
1, 76289, Note_off_c, 1, 59, 0
1, 76289, Note_off_c, 1, 73, 0
1, 76290, Note_on_c, 1, 71, 127
1, 76290, Note_on_c, 1, 47, 127
1, 76319, Note_off_c, 1, 71, 0
1, 76319, Note_off_c, 1, 47, 0
1, 76320, Note_on_c, 1, 71, 127
1, 76320, Note_on_c, 1, 47, 127
1, 76349, Note_off_c, 1, 71, 0
1, 76349, Note_off_c, 1, 47, 0
1, 76350, Note_on_c, 1, 70, 127
1, 76350, Note_on_c, 1, 47, 127
1, 76379, Note_off_c, 1, 47, 0
1, 76409, Note_off_c, 1, 70, 0
1, 76410, Note_on_c, 1, 71, 127
1, 76410, Note_on_c, 1, 47, 127
1, 76439, Note_off_c, 1, 71, 0
1, 76439, Note_off_c, 1, 47, 0
1, 76440, Note_on_c, 1, 69, 127
1, 76440, Note_on_c, 1, 47, 127
1, 76454, Note_off_c, 1, 69, 0
1, 76455, Note_on_c, 1, 68, 127
1, 76469, Note_off_c, 1, 47, 0
1, 76469, Note_off_c, 1, 68, 0
1, 76470, Note_on_c, 1, 66, 127
1, 76470, Note_on_c, 1, 49, 127
1, 76499, Note_off_c, 1, 66, 0
1, 76499, Note_off_c, 1, 49, 0
1, 76500, Note_on_c, 1, 64, 127
1, 76500, Note_on_c, 1, 49, 127
1, 76529, Note_off_c, 1, 49, 0
1, 76530, Note_on_c, 1, 47, 127
1, 76559, Note_off_c, 1, 47, 0
1, 76590, Note_on_c, 1, 74, 127
1, 76590, Note_on_c, 1, 45, 127
1, 76619, Note_off_c, 1, 74, 0
1, 76619, Note_off_c, 1, 45, 0
1, 76620, Note_on_c, 1, 73, 127
1, 76634, Note_off_c, 1, 73, 0
1, 76635, Note_on_c, 1, 71, 127
1, 76649, Note_off_c, 1, 71, 0
1, 76650, Note_on_c, 1, 69, 127
1, 76679, Note_off_c, 1, 69, 0
1, 76710, Note_on_c, 1, 68, 127
1, 76769, Note_off_c, 1, 68, 0
1, 76800, Note_on_c, 1, 67, 127
1, 76814, Note_off_c, 1, 67, 0
1, 76815, Note_off_c, 1, 64, 0
1, 76815, Note_on_c, 1, 63, 127
1, 76815, Note_on_c, 1, 66, 127
1, 76829, Note_off_c, 1, 66, 0
1, 76830, Note_off_c, 1, 63, 0
1, 76830, Note_on_c, 1, 61, 127
1, 76830, Note_on_c, 1, 46, 127
1, 76859, Note_off_c, 1, 46, 0
1, 76860, Note_off_c, 1, 61, 0
1, 76920, Note_on_c, 1, 44, 127
1, 76949, Note_off_c, 1, 44, 0
1, 76950, Note_on_c, 1, 42, 127
1, 76979, Note_off_c, 1, 42, 0
1, 76980, Note_on_c, 1, 40, 127
1, 77039, Note_off_c, 1, 40, 0
1, 77040, Note_on_c, 1, 71, 127
1, 77040, Note_on_c, 1, 68, 127
1, 77040, Note_on_c, 1, 52, 127
1, 77054, Note_off_c, 1, 71, 0
1, 77099, Note_off_c, 1, 68, 0
1, 77099, Note_off_c, 1, 52, 0
1, 77100, Note_on_c, 1, 71, 127
1, 77100, Note_on_c, 1, 66, 127
1, 77100, Note_on_c, 1, 51, 127
1, 77114, Note_off_c, 1, 71, 0
1, 77159, Note_off_c, 1, 66, 0
1, 77159, Note_off_c, 1, 51, 0
1, 77160, Note_on_c, 1, 76, 127
1, 77160, Note_on_c, 1, 68, 127
1, 77160, Note_on_c, 1, 49, 127
1, 77174, Note_off_c, 1, 76, 0
1, 77175, Note_on_c, 1, 75, 127
1, 77189, Note_off_c, 1, 75, 0
1, 77190, Note_on_c, 1, 73, 127
1, 77204, Note_off_c, 1, 73, 0
1, 77219, Note_off_c, 1, 68, 0
1, 77219, Note_off_c, 1, 49, 0
1, 77220, Note_on_c, 1, 71, 127
1, 77220, Note_on_c, 1, 66, 127
1, 77220, Note_on_c, 1, 51, 127
1, 77234, Note_off_c, 1, 71, 0
1, 77249, Note_off_c, 1, 66, 0
1, 77249, Note_off_c, 1, 51, 0
1, 77250, Note_on_c, 1, 71, 127
1, 77250, Note_on_c, 1, 64, 127
1, 77250, Note_on_c, 1, 49, 127
1, 77264, Note_off_c, 1, 71, 0
1, 77279, Note_off_c, 1, 64, 0
1, 77279, Note_off_c, 1, 49, 0
1, 77280, Note_on_c, 1, 71, 127
1, 77280, Note_on_c, 1, 66, 127
1, 77280, Note_on_c, 1, 51, 127
1, 77294, Note_off_c, 1, 71, 0
1, 77309, Note_off_c, 1, 66, 0
1, 77309, Note_off_c, 1, 51, 0
1, 77310, Note_on_c, 1, 69, 127
1, 77310, Note_on_c, 1, 63, 127
1, 77310, Note_on_c, 1, 47, 127
1, 77324, Note_off_c, 1, 69, 0
1, 77339, Note_off_c, 1, 63, 0
1, 77339, Note_off_c, 1, 47, 0
1, 77340, Note_on_c, 1, 68, 127
1, 77340, Note_on_c, 1, 64, 127
1, 77340, Note_on_c, 1, 52, 127
1, 77354, Note_off_c, 1, 68, 0
1, 77355, Note_on_c, 1, 66, 127
1, 77369, Note_off_c, 1, 64, 0
1, 77369, Note_off_c, 1, 66, 0
1, 77399, Note_off_c, 1, 52, 0
1, 77400, Note_on_c, 1, 68, 127
1, 77400, Note_on_c, 1, 64, 127
1, 77400, Note_on_c, 1, 59, 127
1, 77429, Note_off_c, 1, 64, 0
1, 77459, Note_off_c, 1, 68, 0
1, 77459, Note_off_c, 1, 59, 0
1, 77460, Note_on_c, 1, 66, 127
1, 77460, Note_on_c, 1, 63, 127
1, 77460, Note_on_c, 1, 47, 127
1, 77519, Note_off_c, 1, 66, 0
1, 77519, Note_off_c, 1, 63, 0
1, 77519, Note_off_c, 1, 47, 0
1, 77520, Note_on_c, 1, 64, 127
1, 77520, Note_on_c, 1, 71, 127
1, 77520, Note_on_c, 1, 56, 127
1, 77520, Note_on_c, 1, 52, 127
1, 77549, Note_off_c, 1, 52, 0
1, 77550, Note_on_c, 1, 40, 127
1, 77579, Note_off_c, 1, 40, 0
1, 77609, Note_off_c, 1, 71, 0
1, 77609, Note_off_c, 1, 56, 0
1, 77610, Note_on_c, 1, 73, 127
1, 77610, Note_on_c, 1, 57, 127
1, 77624, Note_off_c, 1, 73, 0
1, 77624, Note_off_c, 1, 57, 0
1, 77625, Note_on_c, 1, 74, 127
1, 77625, Note_on_c, 1, 59, 127
1, 77639, Note_off_c, 1, 64, 0
1, 77639, Note_off_c, 1, 74, 0
1, 77639, Note_off_c, 1, 59, 0
1, 77640, Note_on_c, 1, 73, 127
1, 77640, Note_on_c, 1, 57, 127
1, 77640, Note_on_c, 1, 40, 127
1, 77669, Note_off_c, 1, 40, 0
1, 77699, Note_off_c, 1, 73, 0
1, 77699, Note_off_c, 1, 57, 0
1, 77700, Note_on_c, 1, 71, 127
1, 77700, Note_on_c, 1, 68, 127
1, 77700, Note_on_c, 1, 56, 127
1, 77700, Note_on_c, 1, 40, 127
1, 77714, Note_off_c, 1, 71, 0
1, 77714, Note_off_c, 1, 68, 0
1, 77714, Note_off_c, 1, 56, 0
1, 77715, Note_on_c, 1, 73, 127
1, 77715, Note_on_c, 1, 69, 127
1, 77715, Note_on_c, 1, 54, 127
1, 77729, Note_off_c, 1, 73, 0
1, 77729, Note_off_c, 1, 69, 0
1, 77729, Note_off_c, 1, 54, 0
1, 77730, Note_on_c, 1, 74, 127
1, 77730, Note_on_c, 1, 52, 127
1, 77744, Note_off_c, 1, 74, 0
1, 77759, Note_off_c, 1, 40, 0
1, 77759, Note_off_c, 1, 52, 0
1, 77760, Note_on_c, 1, 74, 127
1, 77760, Note_on_c, 1, 71, 127
1, 77760, Note_on_c, 1, 68, 127
1, 77760, Note_on_c, 1, 52, 127
1, 77774, Note_off_c, 1, 74, 0
1, 77774, Note_off_c, 1, 71, 0
1, 77790, Note_on_c, 1, 54, 127
1, 77819, Note_off_c, 1, 68, 0
1, 77819, Note_off_c, 1, 52, 0
1, 77819, Note_off_c, 1, 54, 0
1, 77820, Note_on_c, 1, 74, 127
1, 77820, Note_on_c, 1, 71, 127
1, 77820, Note_on_c, 1, 56, 127
1, 77834, Note_off_c, 1, 74, 0
1, 77834, Note_off_c, 1, 71, 0
1, 77849, Note_off_c, 1, 56, 0
1, 77850, Note_on_c, 1, 80, 127
1, 77850, Note_on_c, 1, 71, 127
1, 77850, Note_on_c, 1, 52, 127
1, 77864, Note_off_c, 1, 80, 0
1, 77864, Note_off_c, 1, 71, 0
1, 77879, Note_off_c, 1, 52, 0
1, 77880, Note_on_c, 1, 81, 127
1, 77880, Note_on_c, 1, 73, 127
1, 77880, Note_on_c, 1, 52, 127
1, 77880, Note_on_c, 1, 57, 127
1, 77894, Note_off_c, 1, 81, 0
1, 77895, Note_on_c, 1, 80, 127
1, 77909, Note_off_c, 1, 57, 0
1, 77909, Note_off_c, 1, 80, 0
1, 77910, Note_on_c, 1, 78, 127
1, 77910, Note_on_c, 1, 45, 127
1, 77939, Note_off_c, 1, 78, 0
1, 77939, Note_off_c, 1, 45, 0
1, 77940, Note_on_c, 1, 76, 127
1, 77969, Note_off_c, 1, 73, 0
1, 77969, Note_off_c, 1, 52, 0
1, 77970, Note_on_c, 1, 74, 127
1, 77970, Note_on_c, 1, 54, 127
1, 77984, Note_off_c, 1, 74, 0
1, 77984, Note_off_c, 1, 54, 0
1, 77985, Note_on_c, 1, 55, 127
1, 77999, Note_off_c, 1, 76, 0
1, 77999, Note_off_c, 1, 55, 0
1, 78000, Note_on_c, 1, 74, 127
1, 78000, Note_on_c, 1, 54, 127
1, 78000, Note_on_c, 1, 45, 127
1, 78029, Note_off_c, 1, 45, 0
1, 78059, Note_off_c, 1, 74, 0
1, 78059, Note_off_c, 1, 54, 0
1, 78060, Note_on_c, 1, 73, 127
1, 78060, Note_on_c, 1, 64, 127
1, 78060, Note_on_c, 1, 52, 127
1, 78060, Note_on_c, 1, 45, 127
1, 78074, Note_off_c, 1, 73, 0
1, 78074, Note_off_c, 1, 64, 0
1, 78074, Note_off_c, 1, 52, 0
1, 78075, Note_on_c, 1, 74, 127
1, 78075, Note_on_c, 1, 66, 127
1, 78075, Note_on_c, 1, 71, 127
1, 78075, Note_on_c, 1, 50, 127
1, 78089, Note_off_c, 1, 74, 0
1, 78089, Note_off_c, 1, 66, 0
1, 78089, Note_off_c, 1, 71, 0
1, 78089, Note_off_c, 1, 50, 0
1, 78090, Note_on_c, 1, 76, 127
1, 78090, Note_on_c, 1, 67, 127
1, 78090, Note_on_c, 1, 69, 127
1, 78090, Note_on_c, 1, 49, 127
1, 78104, Note_off_c, 1, 76, 0
1, 78104, Note_off_c, 1, 67, 0
1, 78119, Note_off_c, 1, 45, 0
1, 78119, Note_off_c, 1, 69, 0
1, 78119, Note_off_c, 1, 49, 0
1, 78120, Note_on_c, 1, 76, 127
1, 78120, Note_on_c, 1, 67, 127
1, 78120, Note_on_c, 1, 69, 127
1, 78120, Note_on_c, 1, 49, 127
1, 78120, Note_on_c, 1, 56, 127
1, 78134, Note_off_c, 1, 76, 0
1, 78134, Note_off_c, 1, 67, 0
1, 78149, Note_off_c, 1, 56, 0
1, 78150, Note_on_c, 1, 57, 127
1, 78179, Note_off_c, 1, 69, 0
1, 78179, Note_off_c, 1, 49, 0
1, 78179, Note_off_c, 1, 57, 0
1, 78180, Note_on_c, 1, 76, 127
1, 78180, Note_on_c, 1, 67, 127
1, 78180, Note_on_c, 1, 59, 127
1, 78194, Note_off_c, 1, 76, 0
1, 78194, Note_off_c, 1, 67, 0
1, 78209, Note_off_c, 1, 59, 0
1, 78210, Note_on_c, 1, 76, 127
1, 78210, Note_on_c, 1, 73, 127
1, 78210, Note_on_c, 1, 56, 127
1, 78224, Note_off_c, 1, 76, 0
1, 78224, Note_off_c, 1, 73, 0
1, 78239, Note_off_c, 1, 56, 0
1, 78240, Note_on_c, 1, 78, 127
1, 78240, Note_on_c, 1, 74, 127
1, 78240, Note_on_c, 1, 62, 127
1, 78255, Note_on_c, 1, 73, 127
1, 78269, Note_off_c, 1, 73, 0
1, 78270, Note_on_c, 1, 71, 127
1, 78299, Note_off_c, 1, 78, 0
1, 78299, Note_off_c, 1, 62, 0
1, 78299, Note_off_c, 1, 71, 0
1, 78300, Note_on_c, 1, 69, 127
1, 78300, Note_on_c, 1, 50, 127
1, 78329, Note_off_c, 1, 74, 0
1, 78330, Note_on_c, 1, 76, 127
1, 78344, Note_off_c, 1, 76, 0
1, 78359, Note_off_c, 1, 69, 0
1, 78359, Note_off_c, 1, 50, 0
1, 78360, Note_on_c, 1, 73, 127
1, 78360, Note_on_c, 1, 78, 127
1, 78360, Note_on_c, 1, 46, 127
1, 78389, Note_off_c, 1, 78, 0
1, 78390, Note_on_c, 1, 76, 127
1, 78419, Note_off_c, 1, 73, 0
1, 78419, Note_off_c, 1, 46, 0
1, 78419, Note_off_c, 1, 76, 0
1, 78420, Note_on_c, 1, 66, 127
1, 78420, Note_on_c, 1, 76, 127
1, 78420, Note_on_c, 1, 59, 127
1, 78420, Note_on_c, 1, 47, 127
1, 78434, Note_off_c, 1, 76, 0
1, 78435, Note_on_c, 1, 74, 127
1, 78449, Note_off_c, 1, 74, 0
1, 78450, Note_on_c, 1, 73, 127
1, 78479, Note_off_c, 1, 66, 0
1, 78479, Note_off_c, 1, 47, 0
1, 78479, Note_off_c, 1, 73, 0
1, 78480, Note_on_c, 1, 78, 127
1, 78480, Note_on_c, 1, 45, 127
1, 78509, Note_off_c, 1, 59, 0
1, 78510, Note_on_c, 1, 61, 127
1, 78524, Note_off_c, 1, 61, 0
1, 78525, Note_on_c, 1, 62, 127
1, 78539, Note_off_c, 1, 78, 0
1, 78539, Note_off_c, 1, 45, 0
1, 78539, Note_off_c, 1, 62, 0
1, 78540, Note_on_c, 1, 76, 127
1, 78540, Note_on_c, 1, 71, 127
1, 78540, Note_on_c, 1, 61, 127
1, 78540, Note_on_c, 1, 44, 127
1, 78569, Note_off_c, 1, 61, 0
1, 78570, Note_on_c, 1, 59, 127
1, 78599, Note_off_c, 1, 71, 0
1, 78599, Note_off_c, 1, 44, 0
1, 78599, Note_off_c, 1, 59, 0
1, 78600, Note_on_c, 1, 64, 127
1, 78600, Note_on_c, 1, 73, 127
1, 78600, Note_on_c, 1, 45, 127
1, 78615, Note_on_c, 1, 57, 127
1, 78629, Note_off_c, 1, 76, 0
1, 78629, Note_off_c, 1, 57, 0
1, 78630, Note_on_c, 1, 74, 127
1, 78630, Note_on_c, 1, 56, 127
1, 78659, Note_off_c, 1, 64, 0
1, 78659, Note_off_c, 1, 45, 0
1, 78659, Note_off_c, 1, 74, 0
1, 78659, Note_off_c, 1, 56, 0
1, 78660, Note_on_c, 1, 49, 127
1, 78689, Note_off_c, 1, 73, 0
1, 78719, Note_off_c, 1, 49, 0
1, 78720, Note_on_c, 1, 71, 127
1, 78720, Note_on_c, 1, 68, 127
1, 78720, Note_on_c, 1, 76, 127
1, 78720, Note_on_c, 1, 52, 127
1, 78749, Note_off_c, 1, 71, 0
1, 78749, Note_off_c, 1, 76, 0
1, 78750, Note_on_c, 1, 69, 127
1, 78750, Note_on_c, 1, 74, 127
1, 78779, Note_off_c, 1, 68, 0
1, 78779, Note_off_c, 1, 52, 0
1, 78779, Note_off_c, 1, 69, 0
1, 78779, Note_off_c, 1, 74, 0
1, 78780, Note_on_c, 1, 69, 127
1, 78780, Note_on_c, 1, 64, 127
1, 78780, Note_on_c, 1, 74, 127
1, 78780, Note_on_c, 1, 57, 127
1, 78780, Note_on_c, 1, 62, 127
1, 78794, Note_off_c, 1, 74, 0
1, 78795, Note_on_c, 1, 73, 127
1, 78809, Note_off_c, 1, 62, 0
1, 78809, Note_off_c, 1, 73, 0
1, 78810, Note_on_c, 1, 71, 127
1, 78810, Note_on_c, 1, 61, 127
1, 78839, Note_off_c, 1, 69, 0
1, 78839, Note_off_c, 1, 64, 0
1, 78839, Note_off_c, 1, 71, 0
1, 78839, Note_off_c, 1, 61, 0
1, 78840, Note_on_c, 1, 54, 127
1, 78869, Note_off_c, 1, 57, 0
1, 78870, Note_on_c, 1, 59, 127
1, 78884, Note_off_c, 1, 59, 0
1, 78899, Note_off_c, 1, 54, 0
1, 78900, Note_on_c, 1, 74, 127
1, 78900, Note_on_c, 1, 59, 127
1, 78900, Note_on_c, 1, 50, 127
1, 78930, Note_on_c, 1, 57, 127
1, 78959, Note_off_c, 1, 74, 0
1, 78959, Note_off_c, 1, 59, 0
1, 78959, Note_off_c, 1, 50, 0
1, 78959, Note_off_c, 1, 57, 0
1, 78960, Note_on_c, 1, 73, 127
1, 78960, Note_on_c, 1, 57, 127
1, 78960, Note_on_c, 1, 51, 127
1, 78975, Note_off_c, 1, 73, 0
1, 78975, Note_on_c, 1, 74, 127
1, 78989, Note_off_c, 1, 51, 0
1, 78990, Note_off_c, 1, 74, 0
1, 78990, Note_on_c, 1, 39, 127
1, 79019, Note_off_c, 1, 39, 0
1, 79020, Note_on_c, 1, 66, 127
1, 79020, Note_on_c, 1, 63, 127
1, 79034, Note_off_c, 1, 66, 0
1, 79034, Note_off_c, 1, 63, 0
1, 79035, Note_on_c, 1, 68, 127
1, 79035, Note_on_c, 1, 64, 127
1, 79049, Note_off_c, 1, 68, 0
1, 79049, Note_off_c, 1, 64, 0
1, 79050, Note_on_c, 1, 69, 127
1, 79079, Note_off_c, 1, 69, 0
1, 79139, Note_off_c, 1, 57, 0
1, 79140, Note_on_c, 1, 71, 127
1, 79140, Note_on_c, 1, 56, 127
1, 79140, Note_on_c, 1, 40, 127
1, 79198, Note_off_c, 1, 40, 0
1, 79200, Note_on_c, 1, 76, 127
1, 79200, Note_on_c, 1, 44, 127
1, 79258, Note_off_c, 1, 44, 0
1, 79259, Note_off_c, 1, 71, 0
1, 79259, Note_off_c, 1, 56, 0
1, 79259, Note_off_c, 1, 76, 0
1, 79260, Note_on_c, 1, 74, 127
1, 79260, Note_on_c, 1, 71, 127
1, 79260, Note_on_c, 1, 40, 127
1, 79274, Note_off_c, 1, 74, 0
1, 79274, Note_off_c, 1, 71, 0
1, 79275, Note_on_c, 1, 73, 127
1, 79289, Note_off_c, 1, 73, 0
1, 79318, Note_off_c, 1, 40, 0
1, 79320, Note_on_c, 1, 73, 127
1, 79320, Note_on_c, 1, 69, 127
1, 79320, Note_on_c, 1, 57, 127
1, 79320, Note_on_c, 1, 45, 127
1, 79335, Note_on_c, 1, 74, 127
1, 79349, Note_off_c, 1, 73, 0
1, 79349, Note_off_c, 1, 57, 0
1, 79349, Note_off_c, 1, 74, 0
1, 79350, Note_on_c, 1, 76, 127
1, 79350, Note_on_c, 1, 71, 127
1, 79350, Note_on_c, 1, 56, 127
1, 79364, Note_off_c, 1, 76, 0
1, 79378, Note_off_c, 1, 45, 0
1, 79379, Note_off_c, 1, 69, 0
1, 79379, Note_off_c, 1, 71, 0
1, 79379, Note_off_c, 1, 56, 0
1, 79380, Note_on_c, 1, 76, 127
1, 79380, Note_on_c, 1, 71, 127
1, 79380, Note_on_c, 1, 56, 127
1, 79380, Note_on_c, 1, 49, 127
1, 79394, Note_off_c, 1, 76, 0
1, 79409, Note_off_c, 1, 71, 0
1, 79409, Note_off_c, 1, 56, 0
1, 79410, Note_on_c, 1, 69, 127
1, 79410, Note_on_c, 1, 54, 127
1, 79438, Note_off_c, 1, 49, 0
1, 79439, Note_off_c, 1, 69, 0
1, 79439, Note_off_c, 1, 54, 0
1, 79440, Note_on_c, 1, 76, 127
1, 79440, Note_on_c, 1, 69, 127
1, 79440, Note_on_c, 1, 54, 127
1, 79454, Note_off_c, 1, 76, 0
1, 79455, Note_on_c, 1, 74, 127
1, 79469, Note_off_c, 1, 74, 0
1, 79470, Note_on_c, 1, 73, 127
1, 79499, Note_off_c, 1, 73, 0
1, 79500, Note_on_c, 1, 78, 127
1, 79500, Note_on_c, 1, 61, 127
1, 79500, Note_on_c, 1, 52, 127
1, 79514, Note_off_c, 1, 61, 0
1, 79515, Note_on_c, 1, 62, 127
1, 79529, Note_off_c, 1, 69, 0
1, 79529, Note_off_c, 1, 54, 0
1, 79529, Note_off_c, 1, 62, 0
1, 79530, Note_on_c, 1, 64, 127
1, 79544, Note_off_c, 1, 64, 0
1, 79558, Note_off_c, 1, 52, 0
1, 79559, Note_off_c, 1, 78, 0
1, 79560, Note_on_c, 1, 64, 127
1, 79560, Note_on_c, 1, 71, 127
1, 79560, Note_on_c, 1, 56, 127
1, 79560, Note_on_c, 1, 50, 127
1, 79574, Note_off_c, 1, 64, 0
1, 79589, Note_off_c, 1, 71, 0
1, 79589, Note_off_c, 1, 56, 0
1, 79590, Note_on_c, 1, 73, 127
1, 79590, Note_on_c, 1, 58, 127
1, 79618, Note_off_c, 1, 50, 0
1, 79619, Note_off_c, 1, 73, 0
1, 79619, Note_off_c, 1, 58, 0
1, 79620, Note_on_c, 1, 64, 127
1, 79620, Note_on_c, 1, 73, 127
1, 79620, Note_on_c, 1, 58, 127
1, 79620, Note_on_c, 1, 49, 127
1, 79634, Note_off_c, 1, 64, 0
1, 79649, Note_off_c, 1, 73, 0
1, 79649, Note_off_c, 1, 58, 0
1, 79650, Note_on_c, 1, 74, 127
1, 79650, Note_on_c, 1, 59, 127
1, 79678, Note_off_c, 1, 49, 0
1, 79679, Note_off_c, 1, 74, 0
1, 79679, Note_off_c, 1, 59, 0
1, 79680, Note_on_c, 1, 71, 127
1, 79680, Note_on_c, 1, 62, 127
1, 79680, Note_on_c, 1, 74, 127
1, 79680, Note_on_c, 1, 59, 127
1, 79680, Note_on_c, 1, 47, 127
1, 79738, Note_off_c, 1, 47, 0
1, 79740, Note_on_c, 1, 42, 127
1, 79769, Note_off_c, 1, 71, 0
1, 79769, Note_off_c, 1, 62, 0
1, 79769, Note_off_c, 1, 42, 0
1, 79770, Note_on_c, 1, 73, 127
1, 79770, Note_on_c, 1, 64, 127
1, 79770, Note_on_c, 1, 44, 127
1, 79784, Note_off_c, 1, 73, 0
1, 79784, Note_off_c, 1, 64, 0
1, 79785, Note_on_c, 1, 66, 127
1, 79799, Note_off_c, 1, 74, 0
1, 79799, Note_off_c, 1, 59, 0
1, 79799, Note_off_c, 1, 44, 0
1, 79799, Note_off_c, 1, 66, 0
1, 79800, Note_on_c, 1, 73, 127
1, 79800, Note_on_c, 1, 64, 127
1, 79800, Note_on_c, 1, 46, 127
1, 79829, Note_off_c, 1, 46, 0
1, 79830, Note_on_c, 1, 42, 127
1, 79859, Note_off_c, 1, 73, 0
1, 79859, Note_off_c, 1, 64, 0
1, 79859, Note_off_c, 1, 42, 0
1, 79860, Note_on_c, 1, 71, 127
1, 79860, Note_on_c, 1, 62, 127
1, 79860, Note_on_c, 1, 47, 127
1, 79890, Note_on_c, 1, 69, 127
1, 79890, Note_on_c, 1, 61, 127
1, 79919, Note_off_c, 1, 71, 0
1, 79919, Note_off_c, 1, 62, 0
1, 79919, Note_off_c, 1, 47, 0
1, 79919, Note_off_c, 1, 69, 0
1, 79919, Note_off_c, 1, 61, 0
1, 79920, Note_on_c, 1, 69, 127
1, 79920, Note_on_c, 1, 61, 127
1, 79920, Note_on_c, 1, 49, 127
1, 79920, Note_on_c, 1, 64, 127
1, 79949, Note_off_c, 1, 61, 0
1, 79950, Note_on_c, 1, 68, 127
1, 79950, Note_on_c, 1, 59, 127
1, 79979, Note_off_c, 1, 69, 0
1, 79979, Note_off_c, 1, 49, 0
1, 79979, Note_off_c, 1, 64, 0
1, 79979, Note_off_c, 1, 68, 0
1, 79979, Note_off_c, 1, 59, 0
1, 79980, Note_on_c, 1, 68, 127
1, 79980, Note_on_c, 1, 59, 127
1, 79980, Note_on_c, 1, 50, 127
1, 79995, Note_on_c, 1, 69, 127
1, 79995, Note_on_c, 1, 61, 127
1, 80009, Note_off_c, 1, 69, 0
1, 80009, Note_off_c, 1, 61, 0
1, 80010, Note_on_c, 1, 71, 127
1, 80010, Note_on_c, 1, 62, 127
1, 80039, Note_off_c, 1, 50, 0
1, 80039, Note_off_c, 1, 71, 0
1, 80039, Note_off_c, 1, 62, 0
1, 80040, Note_on_c, 1, 40, 127
1, 80069, Note_off_c, 1, 68, 0
1, 80069, Note_off_c, 1, 59, 0
1, 80099, Note_off_c, 1, 40, 0
1, 80100, Note_on_c, 1, 69, 127
1, 80100, Note_on_c, 1, 61, 127
1, 80100, Note_on_c, 1, 52, 127
1, 80100, Note_on_c, 1, 73, 127
1, 80129, Note_off_c, 1, 61, 0
1, 80130, Note_on_c, 1, 71, 127
1, 80130, Note_on_c, 1, 62, 127
1, 80159, Note_off_c, 1, 69, 0
1, 80159, Note_off_c, 1, 52, 0
1, 80159, Note_off_c, 1, 73, 0
1, 80159, Note_off_c, 1, 71, 0
1, 80159, Note_off_c, 1, 62, 0
1, 80160, Note_on_c, 1, 71, 127
1, 80160, Note_on_c, 1, 62, 127
1, 80160, Note_on_c, 1, 50, 127
1, 80160, Note_on_c, 1, 66, 127
1, 80189, Note_off_c, 1, 62, 0
1, 80190, Note_on_c, 1, 73, 127
1, 80190, Note_on_c, 1, 64, 127
1, 80219, Note_off_c, 1, 71, 0
1, 80219, Note_off_c, 1, 50, 0
1, 80219, Note_off_c, 1, 66, 0
1, 80219, Note_off_c, 1, 73, 0
1, 80219, Note_off_c, 1, 64, 0
1, 80220, Note_on_c, 1, 73, 127
1, 80220, Note_on_c, 1, 64, 127
1, 80220, Note_on_c, 1, 49, 127
1, 80220, Note_on_c, 1, 68, 127
1, 80235, Note_on_c, 1, 74, 127
1, 80249, Note_off_c, 1, 74, 0
1, 80250, Note_on_c, 1, 76, 127
1, 80264, Note_off_c, 1, 76, 0
1, 80279, Note_off_c, 1, 73, 0
1, 80279, Note_off_c, 1, 49, 0
1, 80279, Note_off_c, 1, 68, 0
1, 80280, Note_on_c, 1, 71, 127
1, 80280, Note_on_c, 1, 44, 127
1, 80309, Note_off_c, 1, 71, 0
1, 80309, Note_off_c, 1, 44, 0
1, 80310, Note_on_c, 1, 45, 127
1, 80339, Note_off_c, 1, 45, 0
1, 80340, Note_on_c, 1, 47, 127
1, 80369, Note_off_c, 1, 47, 0
1, 80400, Note_on_c, 1, 81, 127
1, 80414, Note_off_c, 1, 81, 0
1, 80415, Note_on_c, 1, 80, 127
1, 80429, Note_off_c, 1, 80, 0
1, 80430, Note_on_c, 1, 78, 127
1, 80459, Note_off_c, 1, 78, 0
1, 80460, Note_on_c, 1, 69, 127
1, 80489, Note_off_c, 1, 69, 0
1, 80640, Note_on_c, 1, 59, 127
1, 80669, Note_off_c, 1, 59, 0
1, 80670, Note_on_c, 1, 61, 127
1, 80699, Note_off_c, 1, 61, 0
1, 80700, Note_on_c, 1, 62, 127
1, 80729, Note_off_c, 1, 62, 0
1, 80790, Note_on_c, 1, 40, 127
1, 80819, Note_off_c, 1, 40, 0
1, 80820, Note_on_c, 1, 57, 127
1, 80849, Note_off_c, 1, 57, 0
1, 80850, Note_on_c, 1, 56, 127
1, 80879, Note_off_c, 1, 56, 0
1, 80940, Note_on_c, 1, 52, 127
1, 80970, Note_on_c, 1, 66, 127
1, 80999, Note_off_c, 1, 66, 0
1, 81000, Note_off_c, 1, 64, 0
1, 81030, Note_on_c, 1, 54, 127
1, 81059, Note_off_c, 1, 52, 0
1, 81059, Note_off_c, 1, 54, 0
1, 81060, Note_on_c, 1, 64, 127
1, 81060, Note_on_c, 1, 56, 127
1, 81089, Note_off_c, 1, 56, 0
1, 81090, Note_on_c, 1, 52, 127
1, 81119, Note_off_c, 1, 52, 0
1, 81120, Note_on_c, 1, 49, 127
1, 81120, Note_on_c, 1, 57, 127
1, 81149, Note_off_c, 1, 64, 0
1, 81149, Note_off_c, 1, 49, 0
1, 81150, Note_on_c, 1, 66, 127
1, 81150, Note_on_c, 1, 51, 127
1, 81179, Note_off_c, 1, 57, 0
1, 81179, Note_off_c, 1, 66, 0
1, 81179, Note_off_c, 1, 51, 0
1, 81180, Note_on_c, 1, 66, 127
1, 81180, Note_on_c, 1, 73, 127
1, 81180, Note_on_c, 1, 51, 127
1, 81180, Note_on_c, 1, 45, 127
1, 81209, Note_off_c, 1, 66, 0
1, 81209, Note_off_c, 1, 51, 0
1, 81210, Note_on_c, 1, 68, 127
1, 81210, Note_on_c, 1, 53, 127
1, 81239, Note_off_c, 1, 73, 0
1, 81239, Note_off_c, 1, 45, 0
1, 81239, Note_off_c, 1, 68, 0
1, 81239, Note_off_c, 1, 53, 0
1, 81240, Note_on_c, 1, 68, 127
1, 81240, Note_on_c, 1, 71, 127
1, 81240, Note_on_c, 1, 53, 127
1, 81240, Note_on_c, 1, 44, 127
1, 81269, Note_off_c, 1, 68, 0
1, 81269, Note_off_c, 1, 53, 0
1, 81270, Note_on_c, 1, 69, 127
1, 81270, Note_on_c, 1, 54, 127
1, 81299, Note_off_c, 1, 71, 0
1, 81299, Note_off_c, 1, 44, 0
1, 81299, Note_off_c, 1, 69, 0
1, 81299, Note_off_c, 1, 54, 0
1, 81300, Note_on_c, 1, 69, 127
1, 81300, Note_on_c, 1, 54, 127
1, 81300, Note_on_c, 1, 42, 127
1, 81314, Note_off_c, 1, 54, 0
1, 81315, Note_on_c, 1, 71, 127
1, 81315, Note_on_c, 1, 56, 127
1, 81329, Note_off_c, 1, 69, 0
1, 81329, Note_off_c, 1, 71, 0
1, 81329, Note_off_c, 1, 56, 0
1, 81330, Note_on_c, 1, 73, 127
1, 81330, Note_on_c, 1, 68, 127
1, 81330, Note_on_c, 1, 57, 127
1, 81359, Note_off_c, 1, 42, 0
1, 81359, Note_off_c, 1, 73, 0
1, 81359, Note_off_c, 1, 68, 0
1, 81359, Note_off_c, 1, 57, 0
1, 81360, Note_on_c, 1, 73, 127
1, 81360, Note_on_c, 1, 66, 127
1, 81360, Note_on_c, 1, 57, 127
1, 81360, Note_on_c, 1, 54, 127
1, 81389, Note_off_c, 1, 57, 0
1, 81390, Note_on_c, 1, 56, 127
1, 81419, Note_off_c, 1, 73, 0
1, 81419, Note_off_c, 1, 66, 0
1, 81419, Note_off_c, 1, 54, 0
1, 81419, Note_off_c, 1, 56, 0
1, 81420, Note_on_c, 1, 69, 127
1, 81420, Note_on_c, 1, 54, 127
1, 81420, Note_on_c, 1, 49, 127
1, 81449, Note_off_c, 1, 54, 0
1, 81450, Note_on_c, 1, 53, 127
1, 81479, Note_off_c, 1, 49, 0
1, 81479, Note_off_c, 1, 53, 0
1, 81480, Note_on_c, 1, 66, 127
1, 81480, Note_on_c, 1, 50, 127
1, 81509, Note_off_c, 1, 69, 0
1, 81509, Note_off_c, 1, 66, 0
1, 81510, Note_on_c, 1, 71, 127
1, 81510, Note_on_c, 1, 68, 127
1, 81539, Note_off_c, 1, 50, 0
1, 81539, Note_off_c, 1, 71, 0
1, 81539, Note_off_c, 1, 68, 0
1, 81540, Note_on_c, 1, 71, 127
1, 81540, Note_on_c, 1, 68, 127
1, 81540, Note_on_c, 1, 54, 127
1, 81540, Note_on_c, 1, 62, 127
1, 81569, Note_off_c, 1, 71, 0
1, 81569, Note_off_c, 1, 68, 0
1, 81570, Note_on_c, 1, 73, 127
1, 81570, Note_on_c, 1, 70, 127
1, 81599, Note_off_c, 1, 54, 0
1, 81599, Note_off_c, 1, 62, 0
1, 81599, Note_off_c, 1, 73, 0
1, 81599, Note_off_c, 1, 70, 0
1, 81600, Note_on_c, 1, 73, 127
1, 81600, Note_on_c, 1, 70, 127
1, 81600, Note_on_c, 1, 52, 127
1, 81600, Note_on_c, 1, 61, 127
1, 81629, Note_off_c, 1, 73, 0
1, 81629, Note_off_c, 1, 70, 0
1, 81630, Note_on_c, 1, 74, 127
1, 81630, Note_on_c, 1, 71, 127
1, 81659, Note_off_c, 1, 52, 0
1, 81659, Note_off_c, 1, 61, 0
1, 81659, Note_off_c, 1, 74, 0
1, 81659, Note_off_c, 1, 71, 0
1, 81660, Note_on_c, 1, 74, 127
1, 81660, Note_on_c, 1, 71, 127
1, 81660, Note_on_c, 1, 50, 127
1, 81660, Note_on_c, 1, 59, 127
1, 81674, Note_off_c, 1, 74, 0
1, 81674, Note_off_c, 1, 71, 0
1, 81675, Note_on_c, 1, 76, 127
1, 81675, Note_on_c, 1, 73, 127
1, 81689, Note_off_c, 1, 50, 0
1, 81689, Note_off_c, 1, 76, 0
1, 81689, Note_off_c, 1, 73, 0
1, 81690, Note_on_c, 1, 78, 127
1, 81690, Note_on_c, 1, 49, 127
1, 81719, Note_off_c, 1, 59, 0
1, 81719, Note_off_c, 1, 78, 0
1, 81719, Note_off_c, 1, 49, 0
1, 81720, Note_on_c, 1, 78, 127
1, 81720, Note_on_c, 1, 74, 127
1, 81720, Note_on_c, 1, 47, 127
1, 81749, Note_off_c, 1, 74, 0
1, 81750, Note_on_c, 1, 73, 127
1, 81750, Note_on_c, 1, 49, 127
1, 81779, Note_off_c, 1, 78, 0
1, 81779, Note_off_c, 1, 47, 0
1, 81779, Note_off_c, 1, 73, 0
1, 81779, Note_off_c, 1, 49, 0
1, 81780, Note_on_c, 1, 66, 127
1, 81780, Note_on_c, 1, 71, 127
1, 81780, Note_on_c, 1, 50, 127
1, 81809, Note_off_c, 1, 71, 0
1, 81809, Note_off_c, 1, 50, 0
1, 81810, Note_on_c, 1, 69, 127
1, 81810, Note_on_c, 1, 47, 127
1, 81839, Note_off_c, 1, 69, 0
1, 81839, Note_off_c, 1, 47, 0
1, 81840, Note_on_c, 1, 68, 127
1, 81840, Note_on_c, 1, 52, 127
1, 81869, Note_off_c, 1, 66, 0
1, 81899, Note_off_c, 1, 68, 0
1, 81899, Note_off_c, 1, 52, 0
1, 81900, Note_on_c, 1, 68, 127
1, 81900, Note_on_c, 1, 71, 127
1, 81900, Note_on_c, 1, 52, 127
1, 81900, Note_on_c, 1, 44, 127
1, 81929, Note_off_c, 1, 68, 0
1, 81929, Note_off_c, 1, 52, 0
1, 81930, Note_on_c, 1, 69, 127
1, 81930, Note_on_c, 1, 54, 127
1, 81959, Note_off_c, 1, 71, 0
1, 81959, Note_off_c, 1, 44, 0
1, 81959, Note_off_c, 1, 69, 0
1, 81959, Note_off_c, 1, 54, 0
1, 81960, Note_on_c, 1, 69, 127
1, 81960, Note_on_c, 1, 54, 127
1, 81960, Note_on_c, 1, 42, 127
1, 81989, Note_off_c, 1, 54, 0
1, 81990, Note_on_c, 1, 71, 127
1, 81990, Note_on_c, 1, 56, 127
1, 82019, Note_off_c, 1, 69, 0
1, 82019, Note_off_c, 1, 42, 0
1, 82019, Note_off_c, 1, 71, 0
1, 82019, Note_off_c, 1, 56, 0
1, 82020, Note_on_c, 1, 71, 127
1, 82020, Note_on_c, 1, 68, 127
1, 82020, Note_on_c, 1, 56, 127
1, 82020, Note_on_c, 1, 40, 127
1, 82034, Note_off_c, 1, 71, 0
1, 82034, Note_off_c, 1, 56, 0
1, 82035, Note_on_c, 1, 73, 127
1, 82035, Note_on_c, 1, 57, 127
1, 82049, Note_off_c, 1, 68, 0
1, 82049, Note_off_c, 1, 73, 0
1, 82049, Note_off_c, 1, 57, 0
1, 82050, Note_on_c, 1, 74, 127
1, 82050, Note_on_c, 1, 66, 127
1, 82050, Note_on_c, 1, 59, 127
1, 82079, Note_off_c, 1, 40, 0
1, 82079, Note_off_c, 1, 74, 0
1, 82079, Note_off_c, 1, 66, 0
1, 82079, Note_off_c, 1, 59, 0
1, 82080, Note_on_c, 1, 74, 127
1, 82080, Note_on_c, 1, 64, 127
1, 82080, Note_on_c, 1, 59, 127
1, 82080, Note_on_c, 1, 44, 127
1, 82109, Note_off_c, 1, 74, 0
1, 82109, Note_off_c, 1, 59, 0
1, 82110, Note_on_c, 1, 73, 127
1, 82110, Note_on_c, 1, 57, 127
1, 82139, Note_off_c, 1, 64, 0
1, 82139, Note_off_c, 1, 44, 0
1, 82139, Note_off_c, 1, 73, 0
1, 82139, Note_off_c, 1, 57, 0
1, 82140, Note_on_c, 1, 71, 127
1, 82140, Note_on_c, 1, 74, 127
1, 82140, Note_on_c, 1, 56, 127
1, 82140, Note_on_c, 1, 40, 127
1, 82169, Note_off_c, 1, 74, 0
1, 82169, Note_off_c, 1, 56, 0
1, 82170, Note_on_c, 1, 76, 127
1, 82170, Note_on_c, 1, 54, 127
1, 82199, Note_off_c, 1, 40, 0
1, 82199, Note_off_c, 1, 76, 0
1, 82199, Note_off_c, 1, 54, 0
1, 82200, Note_on_c, 1, 73, 127
1, 82200, Note_on_c, 1, 52, 127
1, 82200, Note_on_c, 1, 45, 127
1, 82229, Note_off_c, 1, 71, 0
1, 82259, Note_off_c, 1, 73, 0
1, 82259, Note_off_c, 1, 52, 0
1, 82260, Note_on_c, 1, 81, 127
1, 82260, Note_on_c, 1, 69, 127
1, 82260, Note_on_c, 1, 64, 127
1, 82289, Note_off_c, 1, 69, 0
1, 82319, Note_off_c, 1, 45, 0
1, 82319, Note_off_c, 1, 81, 0
1, 82319, Note_off_c, 1, 64, 0
1, 82320, Note_on_c, 1, 74, 127
1, 82320, Note_on_c, 1, 80, 127
1, 82320, Note_on_c, 1, 71, 127
1, 82320, Note_on_c, 1, 62, 127
1, 82349, Note_off_c, 1, 74, 0
1, 82349, Note_off_c, 1, 71, 0
1, 82350, Note_on_c, 1, 76, 127
1, 82350, Note_on_c, 1, 73, 127
1, 82379, Note_off_c, 1, 80, 0
1, 82379, Note_off_c, 1, 62, 0
1, 82379, Note_off_c, 1, 76, 0
1, 82379, Note_off_c, 1, 73, 0
1, 82380, Note_on_c, 1, 76, 127
1, 82380, Note_on_c, 1, 81, 127
1, 82380, Note_on_c, 1, 73, 127
1, 82380, Note_on_c, 1, 61, 127
1, 82394, Note_off_c, 1, 76, 0
1, 82394, Note_off_c, 1, 73, 0
1, 82395, Note_on_c, 1, 78, 127
1, 82395, Note_on_c, 1, 74, 127
1, 82409, Note_off_c, 1, 61, 0
1, 82409, Note_off_c, 1, 78, 0
1, 82409, Note_off_c, 1, 74, 0
1, 82410, Note_on_c, 1, 79, 127
1, 82410, Note_on_c, 1, 59, 127
1, 82439, Note_off_c, 1, 81, 0
1, 82439, Note_off_c, 1, 79, 0
1, 82439, Note_off_c, 1, 59, 0
1, 82440, Note_on_c, 1, 79, 127
1, 82440, Note_on_c, 1, 73, 127
1, 82440, Note_on_c, 1, 76, 127
1, 82440, Note_on_c, 1, 57, 127
1, 82440, Note_on_c, 1, 45, 127
1, 82469, Note_off_c, 1, 76, 0
1, 82469, Note_off_c, 1, 45, 0
1, 82470, Note_on_c, 1, 74, 127
1, 82470, Note_on_c, 1, 47, 127
1, 82499, Note_off_c, 1, 79, 0
1, 82499, Note_off_c, 1, 73, 0
1, 82499, Note_off_c, 1, 57, 0
1, 82499, Note_off_c, 1, 74, 0
1, 82499, Note_off_c, 1, 47, 0
1, 82500, Note_on_c, 1, 69, 127
1, 82500, Note_on_c, 1, 64, 127
1, 82500, Note_on_c, 1, 76, 127
1, 82500, Note_on_c, 1, 49, 127
1, 82529, Note_off_c, 1, 76, 0
1, 82529, Note_off_c, 1, 49, 0
1, 82530, Note_on_c, 1, 73, 127
1, 82530, Note_on_c, 1, 45, 127
1, 82559, Note_off_c, 1, 64, 0
1, 82559, Note_off_c, 1, 73, 0
1, 82559, Note_off_c, 1, 45, 0
1, 82560, Note_on_c, 1, 66, 127
1, 82560, Note_on_c, 1, 74, 127
1, 82560, Note_on_c, 1, 50, 127
1, 82589, Note_off_c, 1, 69, 0
1, 82589, Note_off_c, 1, 66, 0
1, 82590, Note_on_c, 1, 71, 127
1, 82590, Note_on_c, 1, 68, 127
1, 82619, Note_off_c, 1, 74, 0
1, 82619, Note_off_c, 1, 50, 0
1, 82619, Note_off_c, 1, 71, 0
1, 82619, Note_off_c, 1, 68, 0
1, 82620, Note_on_c, 1, 71, 127
1, 82620, Note_on_c, 1, 68, 127
1, 82620, Note_on_c, 1, 78, 127
1, 82620, Note_on_c, 1, 62, 127
1, 82620, Note_on_c, 1, 47, 127
1, 82649, Note_off_c, 1, 71, 0
1, 82649, Note_off_c, 1, 68, 0
1, 82650, Note_on_c, 1, 73, 127
1, 82650, Note_on_c, 1, 70, 127
1, 82679, Note_off_c, 1, 78, 0
1, 82679, Note_off_c, 1, 62, 0
1, 82679, Note_off_c, 1, 47, 0
1, 82679, Note_off_c, 1, 73, 0
1, 82679, Note_off_c, 1, 70, 0
1, 82680, Note_on_c, 1, 73, 127
1, 82680, Note_on_c, 1, 70, 127
1, 82680, Note_on_c, 1, 76, 127
1, 82680, Note_on_c, 1, 61, 127
1, 82680, Note_on_c, 1, 54, 127
1, 82709, Note_off_c, 1, 73, 0
1, 82709, Note_off_c, 1, 70, 0
1, 82710, Note_on_c, 1, 74, 127
1, 82710, Note_on_c, 1, 71, 127
1, 82739, Note_off_c, 1, 76, 0
1, 82739, Note_off_c, 1, 61, 0
1, 82739, Note_off_c, 1, 54, 0
1, 82739, Note_off_c, 1, 74, 0
1, 82739, Note_off_c, 1, 71, 0
1, 82740, Note_on_c, 1, 74, 127
1, 82740, Note_on_c, 1, 71, 127
1, 82740, Note_on_c, 1, 59, 127
1, 82754, Note_off_c, 1, 71, 0
1, 82755, Note_on_c, 1, 76, 127
1, 82755, Note_on_c, 1, 73, 127
1, 82769, Note_off_c, 1, 74, 0
1, 82769, Note_off_c, 1, 76, 0
1, 82769, Note_off_c, 1, 73, 0
1, 82770, Note_on_c, 1, 78, 127
1, 82770, Note_on_c, 1, 58, 127
1, 82799, Note_off_c, 1, 59, 0
1, 82799, Note_off_c, 1, 78, 0
1, 82799, Note_off_c, 1, 58, 0
1, 82800, Note_on_c, 1, 78, 127
1, 82800, Note_on_c, 1, 74, 127
1, 82800, Note_on_c, 1, 59, 127
1, 82800, Note_on_c, 1, 47, 127
1, 82829, Note_off_c, 1, 47, 0
1, 82830, Note_on_c, 1, 49, 127
1, 82859, Note_off_c, 1, 78, 0
1, 82859, Note_off_c, 1, 74, 0
1, 82859, Note_off_c, 1, 59, 0
1, 82859, Note_off_c, 1, 49, 0
1, 82860, Note_on_c, 1, 68, 127
1, 82860, Note_on_c, 1, 64, 127
1, 82860, Note_on_c, 1, 50, 127
1, 82889, Note_off_c, 1, 50, 0
1, 82890, Note_on_c, 1, 47, 127
1, 82919, Note_off_c, 1, 47, 0
1, 82920, Note_on_c, 1, 76, 127
1, 82920, Note_on_c, 1, 61, 127
1, 82920, Note_on_c, 1, 49, 127
1, 82949, Note_off_c, 1, 68, 0
1, 82949, Note_off_c, 1, 64, 0
1, 82950, Note_on_c, 1, 69, 127
1, 82950, Note_on_c, 1, 66, 127
1, 82979, Note_off_c, 1, 49, 0
1, 82979, Note_off_c, 1, 69, 0
1, 82979, Note_off_c, 1, 66, 0
1, 82980, Note_on_c, 1, 45, 127
1, 83010, Note_on_c, 1, 71, 127
1, 83039, Note_off_c, 1, 76, 0
1, 83039, Note_off_c, 1, 61, 0
1, 83039, Note_off_c, 1, 45, 0
1, 83039, Note_off_c, 1, 71, 0
1, 83040, Note_on_c, 1, 71, 127
1, 83040, Note_on_c, 1, 68, 127
1, 83040, Note_on_c, 1, 74, 127
1, 83040, Note_on_c, 1, 59, 127
1, 83040, Note_on_c, 1, 52, 127
1, 83069, Note_off_c, 1, 71, 0
1, 83069, Note_off_c, 1, 68, 0
1, 83070, Note_on_c, 1, 73, 127
1, 83070, Note_on_c, 1, 69, 127
1, 83099, Note_off_c, 1, 74, 0
1, 83099, Note_off_c, 1, 59, 0
1, 83099, Note_off_c, 1, 52, 0
1, 83099, Note_off_c, 1, 73, 0
1, 83099, Note_off_c, 1, 69, 0
1, 83100, Note_on_c, 1, 73, 127
1, 83100, Note_on_c, 1, 69, 127
1, 83100, Note_on_c, 1, 57, 127
1, 83114, Note_off_c, 1, 69, 0
1, 83115, Note_on_c, 1, 74, 127
1, 83115, Note_on_c, 1, 71, 127
1, 83129, Note_off_c, 1, 73, 0
1, 83129, Note_off_c, 1, 74, 0
1, 83129, Note_off_c, 1, 71, 0
1, 83130, Note_on_c, 1, 76, 127
1, 83130, Note_on_c, 1, 56, 127
1, 83159, Note_off_c, 1, 57, 0
1, 83159, Note_off_c, 1, 76, 0
1, 83159, Note_off_c, 1, 56, 0
1, 83160, Note_on_c, 1, 76, 127
1, 83160, Note_on_c, 1, 73, 127
1, 83160, Note_on_c, 1, 57, 127
1, 83160, Note_on_c, 1, 45, 127
1, 83189, Note_off_c, 1, 45, 0
1, 83190, Note_on_c, 1, 47, 127
1, 83219, Note_off_c, 1, 73, 0
1, 83219, Note_off_c, 1, 57, 0
1, 83219, Note_off_c, 1, 47, 0
1, 83220, Note_on_c, 1, 64, 127
1, 83220, Note_on_c, 1, 49, 127
1, 83249, Note_off_c, 1, 76, 0
1, 83249, Note_off_c, 1, 49, 0
1, 83250, Note_on_c, 1, 81, 127
1, 83279, Note_off_c, 1, 81, 0
1, 83280, Note_on_c, 1, 80, 127
1, 83280, Note_on_c, 1, 40, 127
1, 83294, Note_off_c, 1, 80, 0
1, 83295, Note_on_c, 1, 78, 127
1, 83309, Note_off_c, 1, 64, 0
1, 83309, Note_off_c, 1, 40, 0
1, 83309, Note_off_c, 1, 78, 0
1, 83310, Note_on_c, 1, 76, 127
1, 83310, Note_on_c, 1, 62, 127
1, 83310, Note_on_c, 1, 52, 127
1, 83339, Note_off_c, 1, 76, 0
1, 83339, Note_off_c, 1, 62, 0
1, 83339, Note_off_c, 1, 52, 0
1, 83340, Note_on_c, 1, 76, 127
1, 83340, Note_on_c, 1, 60, 127
1, 83340, Note_on_c, 1, 52, 127
1, 83369, Note_off_c, 1, 76, 0
1, 83369, Note_off_c, 1, 60, 0
1, 83369, Note_off_c, 1, 52, 0
1, 83370, Note_on_c, 1, 75, 127
1, 83370, Note_on_c, 1, 59, 127
1, 83370, Note_on_c, 1, 52, 127
1, 83399, Note_off_c, 1, 59, 0
1, 83399, Note_off_c, 1, 52, 0
1, 83400, Note_on_c, 1, 78, 127
1, 83400, Note_on_c, 1, 60, 127
1, 83429, Note_off_c, 1, 75, 0
1, 83429, Note_off_c, 1, 60, 0
1, 83430, Note_on_c, 1, 76, 127
1, 83430, Note_on_c, 1, 57, 127
1, 83459, Note_off_c, 1, 76, 0
1, 83459, Note_off_c, 1, 57, 0
1, 83460, Note_on_c, 1, 74, 127
1, 83460, Note_on_c, 1, 56, 127
1, 83474, Note_off_c, 1, 74, 0
1, 83475, Note_on_c, 1, 73, 127
1, 83489, Note_off_c, 1, 78, 0
1, 83489, Note_off_c, 1, 73, 0
1, 83490, Note_on_c, 1, 71, 127
1, 83490, Note_on_c, 1, 54, 127
1, 83519, Note_off_c, 1, 56, 0
1, 83519, Note_off_c, 1, 71, 0
1, 83519, Note_off_c, 1, 54, 0
1, 83520, Note_on_c, 1, 69, 127
1, 83520, Note_on_c, 1, 74, 127
1, 83520, Note_on_c, 1, 57, 127
1, 83520, Note_on_c, 1, 54, 127
1, 83549, Note_off_c, 1, 74, 0
1, 83549, Note_off_c, 1, 57, 0
1, 83549, Note_off_c, 1, 54, 0
1, 83550, Note_on_c, 1, 73, 127
1, 83550, Note_on_c, 1, 52, 127
1, 83579, Note_off_c, 1, 73, 0
1, 83579, Note_off_c, 1, 52, 0
1, 83580, Note_on_c, 1, 59, 127
1, 83609, Note_off_c, 1, 59, 0
1, 83610, Note_on_c, 1, 79, 127
1, 83610, Note_on_c, 1, 76, 127
1, 83610, Note_on_c, 1, 61, 127
1, 83610, Note_on_c, 1, 50, 127
1, 83639, Note_off_c, 1, 79, 0
1, 83639, Note_off_c, 1, 76, 0
1, 83639, Note_off_c, 1, 61, 0
1, 83639, Note_off_c, 1, 50, 0
1, 83640, Note_on_c, 1, 78, 127
1, 83640, Note_on_c, 1, 62, 127
1, 83699, Note_off_c, 1, 78, 0
1, 83699, Note_off_c, 1, 62, 0
1, 83700, Note_on_c, 1, 80, 127
1, 83729, Note_off_c, 1, 80, 0
1, 83730, Note_on_c, 1, 81, 127
1, 83759, Note_off_c, 1, 81, 0
1, 83790, Note_on_c, 1, 71, 127
1, 83819, Note_off_c, 1, 71, 0
1, 83820, Note_on_c, 1, 72, 127
1, 83835, Note_off_c, 1, 69, 0
1, 83835, Note_on_c, 1, 68, 127
1, 83850, Note_off_c, 1, 68, 0
1, 83850, Note_on_c, 1, 66, 127
1, 83850, Note_on_c, 1, 51, 127
1, 83879, Note_off_c, 1, 72, 0
1, 83879, Note_off_c, 1, 51, 0
1, 83880, Note_off_c, 1, 66, 0
1, 83940, Note_on_c, 1, 49, 127
1, 83969, Note_off_c, 1, 49, 0
1, 83970, Note_on_c, 1, 47, 127
1, 83999, Note_off_c, 1, 47, 0
1, 84000, Note_on_c, 1, 45, 127
1, 84000, Note_on_c, 1, 64, 127
1, 84059, Note_off_c, 1, 45, 0
1, 84059, Note_off_c, 1, 64, 0
1, 84120, Note_on_c, 1, 69, 127
1, 84120, Note_on_c, 1, 61, 127
1, 84120, Note_on_c, 1, 76, 127
1, 84120, Note_on_c, 1, 56, 127
1, 84149, Note_off_c, 1, 76, 0
1, 84179, Note_off_c, 1, 69, 0
1, 84179, Note_off_c, 1, 61, 0
1, 84179, Note_off_c, 1, 56, 0
1, 84180, Note_on_c, 1, 81, 127
1, 84180, Note_on_c, 1, 61, 127
1, 84180, Note_on_c, 1, 54, 127
1, 84180, Note_on_c, 1, 73, 127
1, 84180, Note_on_c, 1, 69, 127
1, 84180, Note_on_c, 1, 66, 127
1, 84194, Note_off_c, 1, 81, 0
1, 84194, Note_off_c, 1, 61, 0
1, 84195, Note_on_c, 1, 80, 127
1, 84195, Note_on_c, 1, 59, 127
1, 84209, Note_off_c, 1, 80, 0
1, 84209, Note_off_c, 1, 59, 0
1, 84210, Note_on_c, 1, 78, 127
1, 84210, Note_on_c, 1, 57, 127
1, 84239, Note_off_c, 1, 54, 0
1, 84239, Note_off_c, 1, 73, 0
1, 84239, Note_off_c, 1, 69, 0
1, 84239, Note_off_c, 1, 66, 0
1, 84239, Note_off_c, 1, 78, 0
1, 84239, Note_off_c, 1, 57, 0
1, 84240, Note_on_c, 1, 68, 127
1, 84240, Note_on_c, 1, 59, 127
1, 84240, Note_on_c, 1, 76, 127
1, 84240, Note_on_c, 1, 56, 127
1, 84254, Note_off_c, 1, 68, 0
1, 84255, Note_on_c, 1, 69, 127
1, 84255, Note_on_c, 1, 61, 127
1, 84269, Note_off_c, 1, 56, 0
1, 84269, Note_off_c, 1, 69, 0
1, 84269, Note_off_c, 1, 61, 0
1, 84270, Note_on_c, 1, 71, 127
1, 84270, Note_on_c, 1, 62, 127
1, 84270, Note_on_c, 1, 52, 127
1, 84299, Note_off_c, 1, 59, 0
1, 84299, Note_off_c, 1, 71, 0
1, 84299, Note_off_c, 1, 62, 0
1, 84299, Note_off_c, 1, 52, 0
1, 84300, Note_on_c, 1, 54, 127
1, 84329, Note_off_c, 1, 76, 0
1, 84329, Note_off_c, 1, 54, 0
1, 84330, Note_on_c, 1, 74, 127
1, 84359, Note_off_c, 1, 74, 0
1, 84360, Note_on_c, 1, 73, 127
1, 84360, Note_on_c, 1, 57, 127
1, 84360, Note_on_c, 1, 69, 127
1, 84360, Note_on_c, 1, 64, 127
1, 84375, Note_on_c, 1, 71, 127
1, 84389, Note_off_c, 1, 71, 0
1, 84419, Note_off_c, 1, 73, 0
1, 84419, Note_off_c, 1, 69, 0
1, 84419, Note_off_c, 1, 64, 0
1, 84420, Note_on_c, 1, 52, 127
1, 84449, Note_off_c, 1, 57, 0
1, 84450, Note_on_c, 1, 59, 127
1, 84479, Note_off_c, 1, 52, 0
1, 84479, Note_off_c, 1, 59, 0
1, 84480, Note_on_c, 1, 71, 127
1, 84480, Note_on_c, 1, 56, 127
1, 84480, Note_on_c, 1, 40, 127
1, 84480, Note_on_c, 1, 68, 127
1, 84480, Note_on_c, 1, 64, 127
1, 84489, Note_off_c, 1, 71, 0
1, 84490, Note_on_c, 1, 73, 127
1, 84499, Note_off_c, 1, 73, 0
1, 84539, Note_off_c, 1, 56, 0
1, 84539, Note_off_c, 1, 40, 0
1, 84539, Note_off_c, 1, 68, 0
1, 84539, Note_off_c, 1, 64, 0
1, 84540, Note_on_c, 1, 69, 127
1, 84540, Note_on_c, 1, 57, 127
1, 84540, Note_on_c, 1, 45, 127
1, 84540, Note_on_c, 1, 61, 127
1, 84569, Note_off_c, 1, 57, 0
1, 84570, Note_on_c, 1, 66, 127
1, 84570, Note_on_c, 1, 50, 127
1, 84599, Note_off_c, 1, 69, 0
1, 84599, Note_off_c, 1, 45, 0
1, 84599, Note_off_c, 1, 61, 0
1, 84599, Note_off_c, 1, 66, 0
1, 84599, Note_off_c, 1, 50, 0
1, 84600, Note_on_c, 1, 64, 127
1, 84600, Note_on_c, 1, 49, 127
1, 84600, Note_on_c, 1, 73, 127
1, 84630, Note_on_c, 1, 62, 127
1, 84630, Note_on_c, 1, 47, 127
1, 84659, Note_off_c, 1, 64, 0
1, 84659, Note_off_c, 1, 49, 0
1, 84659, Note_off_c, 1, 73, 0
1, 84659, Note_off_c, 1, 62, 0
1, 84659, Note_off_c, 1, 47, 0
1, 84660, Note_on_c, 1, 62, 127
1, 84660, Note_on_c, 1, 47, 127
1, 84660, Note_on_c, 1, 52, 127
1, 84660, Note_on_c, 1, 71, 127
1, 84660, Note_on_c, 1, 68, 127
1, 84689, Note_off_c, 1, 47, 0
1, 84690, Note_on_c, 1, 61, 127
1, 84690, Note_on_c, 1, 45, 127
1, 84719, Note_off_c, 1, 62, 0
1, 84719, Note_off_c, 1, 52, 0
1, 84719, Note_off_c, 1, 71, 0
1, 84719, Note_off_c, 1, 68, 0
1, 84719, Note_off_c, 1, 61, 0
1, 84719, Note_off_c, 1, 45, 0
1, 84720, Note_on_c, 1, 73, 127
1, 84720, Note_on_c, 1, 61, 127
1, 84720, Note_on_c, 1, 45, 127
1, 84720, Note_on_c, 1, 57, 127
1, 84720, Note_on_c, 1, 69, 127
1, 84720, Note_on_c, 1, 64, 127
1, 84779, Note_off_c, 1, 61, 0
1, 84779, Note_off_c, 1, 45, 0
1, 84779, Note_off_c, 1, 57, 0
1, 84779, Note_off_c, 1, 69, 0
1, 84779, Note_off_c, 1, 64, 0
1, 84809, Note_off_c, 1, 73, 0
1, 84810, Note_on_c, 1, 74, 127
1, 84824, Note_off_c, 1, 74, 0
1, 84825, Note_on_c, 1, 76, 127
1, 84839, Note_off_c, 1, 76, 0
1, 84840, Note_on_c, 1, 74, 127
1, 84840, Note_on_c, 1, 59, 127
1, 84899, Note_off_c, 1, 74, 0
1, 84899, Note_off_c, 1, 59, 0
1, 84900, Note_on_c, 1, 73, 127
1, 84900, Note_on_c, 1, 57, 127
1, 84914, Note_off_c, 1, 73, 0
1, 84915, Note_on_c, 1, 71, 127
1, 84929, Note_off_c, 1, 71, 0
1, 84930, Note_on_c, 1, 69, 127
1, 84959, Note_off_c, 1, 57, 0
1, 84959, Note_off_c, 1, 69, 0
1, 84960, Note_on_c, 1, 69, 127
1, 84960, Note_on_c, 1, 52, 127
1, 84989, Note_off_c, 1, 52, 0
1, 84990, Note_on_c, 1, 54, 127
1, 85019, Note_off_c, 1, 69, 0
1, 85019, Note_off_c, 1, 54, 0
1, 85020, Note_on_c, 1, 71, 127
1, 85020, Note_on_c, 1, 56, 127
1, 85049, Note_off_c, 1, 56, 0
1, 85050, Note_on_c, 1, 52, 127
1, 85079, Note_off_c, 1, 71, 0
1, 85079, Note_off_c, 1, 52, 0
1, 85080, Note_on_c, 1, 69, 127
1, 85080, Note_on_c, 1, 61, 127
1, 85080, Note_on_c, 1, 57, 127
1, 85139, Note_off_c, 1, 57, 0
1, 85140, Note_on_c, 1, 49, 127
1, 85169, Note_off_c, 1, 69, 0
1, 85169, Note_off_c, 1, 61, 0
1, 85170, Note_on_c, 1, 71, 127
1, 85170, Note_on_c, 1, 62, 127
1, 85184, Note_off_c, 1, 71, 0
1, 85184, Note_off_c, 1, 62, 0
1, 85185, Note_on_c, 1, 73, 127
1, 85185, Note_on_c, 1, 64, 127
1, 85199, Note_off_c, 1, 49, 0
1, 85199, Note_off_c, 1, 73, 0
1, 85199, Note_off_c, 1, 64, 0
1, 85200, Note_on_c, 1, 71, 127
1, 85200, Note_on_c, 1, 62, 127
1, 85200, Note_on_c, 1, 52, 127
1, 85259, Note_off_c, 1, 71, 0
1, 85259, Note_off_c, 1, 62, 0
1, 85259, Note_off_c, 1, 52, 0
1, 85260, Note_on_c, 1, 69, 127
1, 85260, Note_on_c, 1, 61, 127
1, 85260, Note_on_c, 1, 45, 127
1, 85274, Note_off_c, 1, 69, 0
1, 85274, Note_off_c, 1, 61, 0
1, 85275, Note_on_c, 1, 68, 127
1, 85275, Note_on_c, 1, 59, 127
1, 85289, Note_off_c, 1, 68, 0
1, 85289, Note_off_c, 1, 59, 0
1, 85290, Note_on_c, 1, 66, 127
1, 85290, Note_on_c, 1, 57, 127
1, 85319, Note_off_c, 1, 45, 0
1, 85319, Note_off_c, 1, 66, 0
1, 85319, Note_off_c, 1, 57, 0
1, 85320, Note_on_c, 1, 66, 127
1, 85320, Note_on_c, 1, 57, 127
1, 85320, Note_on_c, 1, 52, 127
1, 85349, Note_off_c, 1, 57, 0
1, 85349, Note_off_c, 1, 52, 0
1, 85350, Note_off_c, 1, 66, 0
1, 85350, Note_on_c, 1, 68, 127
1, 85350, Note_on_c, 1, 59, 127
1, 85350, Note_on_c, 1, 54, 127
1, 85379, Note_off_c, 1, 59, 0
1, 85379, Note_off_c, 1, 54, 0
1, 85380, Note_off_c, 1, 68, 0
1, 85380, Note_on_c, 1, 64, 127
1, 85380, Note_on_c, 1, 56, 127
1, 85409, Note_off_c, 1, 56, 0
1, 85469, Note_off_c, 1, 64, 0
1, 85500, Note_on_c, 1, 66, 127
1, 85500, Note_on_c, 1, 45, 127
1, 85529, Note_off_c, 1, 66, 0
1, 85530, Note_on_c, 1, 68, 127
1, 85559, Note_off_c, 1, 45, 0
1, 85559, Note_off_c, 1, 68, 0
1, 85560, Note_on_c, 1, 68, 127
1, 85560, Note_on_c, 1, 61, 127
1, 85560, Note_on_c, 1, 41, 127
1, 85589, Note_off_c, 1, 68, 0
1, 85590, Note_on_c, 1, 69, 127
1, 85619, Note_off_c, 1, 41, 0
1, 85619, Note_off_c, 1, 69, 0
1, 85620, Note_on_c, 1, 42, 127
1, 85649, Note_off_c, 1, 61, 0
1, 85650, Note_on_c, 1, 62, 127
1, 85679, Note_off_c, 1, 42, 0
1, 85679, Note_off_c, 1, 62, 0
1, 85680, Note_on_c, 1, 54, 127
1, 85710, Note_on_c, 1, 64, 127
1, 85739, Note_off_c, 1, 54, 0
1, 85739, Note_off_c, 1, 64, 0
1, 85740, Note_on_c, 1, 49, 127
1, 85770, Note_on_c, 1, 66, 127
1, 85799, Note_off_c, 1, 49, 0
1, 85799, Note_off_c, 1, 66, 0
1, 85800, Note_on_c, 1, 50, 127
1, 85830, Note_on_c, 1, 71, 127
1, 85859, Note_off_c, 1, 50, 0
1, 85859, Note_off_c, 1, 71, 0
1, 85890, Note_on_c, 1, 73, 127
1, 85919, Note_off_c, 1, 73, 0
1, 85920, Note_on_c, 1, 58, 127
1, 85950, Note_on_c, 1, 74, 127
1, 85979, Note_off_c, 1, 58, 0
1, 85979, Note_off_c, 1, 74, 0
1, 85980, Note_on_c, 1, 59, 127
1, 86039, Note_off_c, 1, 59, 0
1, 86040, Note_on_c, 1, 47, 127
1, 86099, Note_off_c, 1, 47, 0
1, 86160, Note_on_c, 1, 44, 127
1, 86174, Note_off_c, 1, 44, 0
1, 86175, Note_on_c, 1, 45, 127
1, 86189, Note_off_c, 1, 45, 0
1, 86190, Note_on_c, 1, 71, 127
1, 86190, Note_on_c, 1, 68, 127
1, 86190, Note_on_c, 1, 47, 127
1, 86219, Note_off_c, 1, 71, 0
1, 86219, Note_off_c, 1, 68, 0
1, 86219, Note_off_c, 1, 47, 0
1, 86220, Note_on_c, 1, 73, 127
1, 86220, Note_on_c, 1, 69, 127
1, 86220, Note_on_c, 1, 40, 127
1, 86234, Note_off_c, 1, 73, 0
1, 86234, Note_off_c, 1, 69, 0
1, 86235, Note_off_c, 1, 40, 0
1, 86235, Note_on_c, 1, 74, 127
1, 86235, Note_on_c, 1, 71, 127
1, 86249, Note_off_c, 1, 74, 0
1, 86249, Note_off_c, 1, 71, 0
1, 86250, Note_on_c, 1, 76, 127
1, 86250, Note_on_c, 1, 73, 127
1, 86250, Note_on_c, 1, 40, 127
1, 86264, Note_off_c, 1, 73, 0
1, 86265, Note_off_c, 1, 40, 0
1, 86279, Note_off_c, 1, 76, 0
1, 86280, Note_on_c, 1, 76, 127
1, 86280, Note_on_c, 1, 73, 127
1, 86280, Note_on_c, 1, 40, 127
1, 86294, Note_off_c, 1, 73, 0
1, 86295, Note_off_c, 1, 40, 0
1, 86309, Note_off_c, 1, 76, 0
1, 86310, Note_on_c, 1, 81, 127
1, 86310, Note_on_c, 1, 73, 127
1, 86310, Note_on_c, 1, 40, 127
1, 86324, Note_off_c, 1, 73, 0
1, 86325, Note_off_c, 1, 40, 0
1, 86339, Note_off_c, 1, 81, 0
1, 86340, Note_on_c, 1, 80, 127
1, 86340, Note_on_c, 1, 71, 127
1, 86340, Note_on_c, 1, 40, 127
1, 86354, Note_off_c, 1, 80, 0
1, 86354, Note_off_c, 1, 71, 0
1, 86355, Note_on_c, 1, 78, 127
1, 86355, Note_on_c, 1, 69, 127
1, 86369, Note_off_c, 1, 40, 0
1, 86369, Note_off_c, 1, 78, 0
1, 86369, Note_off_c, 1, 69, 0
1, 86370, Note_on_c, 1, 76, 127
1, 86370, Note_on_c, 1, 68, 127
1, 86370, Note_on_c, 1, 52, 127
1, 86399, Note_off_c, 1, 76, 0
1, 86399, Note_off_c, 1, 68, 0
1, 86399, Note_off_c, 1, 52, 0
1, 86400, Note_on_c, 1, 76, 127
1, 86400, Note_on_c, 1, 68, 127
1, 86400, Note_on_c, 1, 52, 127
1, 86429, Note_off_c, 1, 76, 0
1, 86429, Note_off_c, 1, 68, 0
1, 86429, Note_off_c, 1, 52, 0
1, 86430, Note_on_c, 1, 75, 127
1, 86430, Note_on_c, 1, 66, 127
1, 86430, Note_on_c, 1, 52, 127
1, 86459, Note_off_c, 1, 52, 0
1, 86489, Note_off_c, 1, 75, 0
1, 86489, Note_off_c, 1, 66, 0
1, 86490, Note_on_c, 1, 76, 127
1, 86490, Note_on_c, 1, 68, 127
1, 86490, Note_on_c, 1, 52, 127
1, 86519, Note_off_c, 1, 76, 0
1, 86519, Note_off_c, 1, 68, 0
1, 86519, Note_off_c, 1, 52, 0
1, 86520, Note_on_c, 1, 74, 127
1, 86520, Note_on_c, 1, 68, 127
1, 86520, Note_on_c, 1, 52, 127
1, 86534, Note_off_c, 1, 74, 0
1, 86535, Note_on_c, 1, 73, 127
1, 86549, Note_off_c, 1, 52, 0
1, 86549, Note_off_c, 1, 73, 0
1, 86550, Note_on_c, 1, 71, 127
1, 86550, Note_on_c, 1, 54, 127
1, 86579, Note_off_c, 1, 68, 0
1, 86579, Note_off_c, 1, 71, 0
1, 86579, Note_off_c, 1, 54, 0
1, 86580, Note_on_c, 1, 69, 127
1, 86580, Note_on_c, 1, 54, 127
1, 86609, Note_off_c, 1, 54, 0
1, 86610, Note_on_c, 1, 52, 127
1, 86639, Note_off_c, 1, 52, 0
1, 86670, Note_on_c, 1, 79, 127
1, 86670, Note_on_c, 1, 50, 127
1, 86699, Note_off_c, 1, 79, 0
1, 86699, Note_off_c, 1, 50, 0
1, 86700, Note_on_c, 1, 78, 127
1, 86714, Note_off_c, 1, 78, 0
1, 86715, Note_on_c, 1, 76, 127
1, 86729, Note_off_c, 1, 76, 0
1, 86730, Note_on_c, 1, 74, 127
1, 86759, Note_off_c, 1, 74, 0
1, 86790, Note_on_c, 1, 73, 127
1, 86849, Note_off_c, 1, 73, 0
1, 86880, Note_on_c, 1, 72, 127
1, 86894, Note_off_c, 1, 72, 0
1, 86895, Note_off_c, 1, 69, 0
1, 86895, Note_on_c, 1, 68, 127
1, 86895, Note_on_c, 1, 71, 127
1, 86909, Note_off_c, 1, 68, 0
1, 86909, Note_off_c, 1, 71, 0
1, 86910, Note_on_c, 1, 66, 127
1, 86910, Note_on_c, 1, 69, 127
1, 86910, Note_on_c, 1, 51, 127
1, 86939, Note_off_c, 1, 66, 0
1, 86939, Note_off_c, 1, 69, 0
1, 86939, Note_off_c, 1, 51, 0
1, 86940, Note_on_c, 1, 74, 127
1, 86940, Note_on_c, 1, 68, 127
1, 86940, Note_on_c, 1, 52, 127
1, 86969, Note_off_c, 1, 52, 0
1, 86970, Note_on_c, 1, 50, 127
1, 86999, Note_off_c, 1, 50, 0
1, 87000, Note_on_c, 1, 49, 127
1, 87029, Note_off_c, 1, 49, 0
1, 87030, Note_on_c, 1, 47, 127
1, 87059, Note_off_c, 1, 74, 0
1, 87059, Note_off_c, 1, 68, 0
1, 87059, Note_off_c, 1, 47, 0
1, 87060, Note_on_c, 1, 73, 127
1, 87060, Note_on_c, 1, 69, 127
1, 87060, Note_on_c, 1, 45, 127
1, 87074, Note_off_c, 1, 73, 0
1, 87075, Note_on_c, 1, 74, 127
1, 87089, Note_off_c, 1, 74, 0
1, 87090, Note_on_c, 1, 76, 127
1, 87104, Note_off_c, 1, 76, 0
1, 87119, Note_off_c, 1, 69, 0
1, 87119, Note_off_c, 1, 45, 0
1, 87120, Note_on_c, 1, 76, 127
1, 87120, Note_on_c, 1, 73, 127
1, 87120, Note_on_c, 1, 57, 127
1, 87134, Note_off_c, 1, 76, 0
1, 87179, Note_off_c, 1, 73, 0
1, 87179, Note_off_c, 1, 57, 0
1, 87180, Note_on_c, 1, 76, 127
1, 87180, Note_on_c, 1, 71, 127
1, 87180, Note_on_c, 1, 56, 127
1, 87194, Note_off_c, 1, 76, 0
1, 87239, Note_off_c, 1, 71, 0
1, 87239, Note_off_c, 1, 56, 0
1, 87240, Note_on_c, 1, 81, 127
1, 87240, Note_on_c, 1, 73, 127
1, 87240, Note_on_c, 1, 54, 127
1, 87254, Note_off_c, 1, 81, 0
1, 87255, Note_on_c, 1, 80, 127
1, 87269, Note_off_c, 1, 80, 0
1, 87270, Note_on_c, 1, 78, 127
1, 87284, Note_off_c, 1, 78, 0
1, 87299, Note_off_c, 1, 73, 0
1, 87299, Note_off_c, 1, 54, 0
1, 87300, Note_on_c, 1, 76, 127
1, 87300, Note_on_c, 1, 71, 127
1, 87300, Note_on_c, 1, 56, 127
1, 87314, Note_off_c, 1, 76, 0
1, 87329, Note_off_c, 1, 71, 0
1, 87329, Note_off_c, 1, 56, 0
1, 87330, Note_on_c, 1, 76, 127
1, 87330, Note_on_c, 1, 69, 127
1, 87330, Note_on_c, 1, 54, 127
1, 87344, Note_off_c, 1, 76, 0
1, 87359, Note_off_c, 1, 69, 0
1, 87359, Note_off_c, 1, 54, 0
1, 87360, Note_on_c, 1, 76, 127
1, 87360, Note_on_c, 1, 71, 127
1, 87360, Note_on_c, 1, 56, 127
1, 87374, Note_off_c, 1, 76, 0
1, 87389, Note_off_c, 1, 71, 0
1, 87389, Note_off_c, 1, 56, 0
1, 87390, Note_on_c, 1, 74, 127
1, 87390, Note_on_c, 1, 68, 127
1, 87390, Note_on_c, 1, 52, 127
1, 87404, Note_off_c, 1, 74, 0
1, 87419, Note_off_c, 1, 68, 0
1, 87419, Note_off_c, 1, 52, 0
1, 87420, Note_on_c, 1, 73, 127
1, 87420, Note_on_c, 1, 69, 127
1, 87420, Note_on_c, 1, 57, 127
1, 87420, Note_on_c, 1, 64, 127
1, 87434, Note_off_c, 1, 73, 0
1, 87435, Note_on_c, 1, 71, 127
1, 87449, Note_off_c, 1, 71, 0
1, 87479, Note_off_c, 1, 69, 0
1, 87479, Note_off_c, 1, 57, 0
1, 87479, Note_off_c, 1, 64, 0
1, 87480, Note_on_c, 1, 73, 127
1, 87480, Note_on_c, 1, 69, 127
1, 87480, Note_on_c, 1, 64, 127
1, 87539, Note_off_c, 1, 73, 0
1, 87539, Note_off_c, 1, 69, 0
1, 87539, Note_off_c, 1, 64, 0
1, 87540, Note_on_c, 1, 71, 127
1, 87540, Note_on_c, 1, 68, 127
1, 87540, Note_on_c, 1, 52, 127
1, 87540, Note_on_c, 1, 62, 127
1, 87550, Note_on_c, 1, 73, 127
1, 87550, Note_on_c, 1, 69, 127
1, 87560, Note_off_c, 1, 73, 0
1, 87560, Note_off_c, 1, 69, 0
1, 87599, Note_off_c, 1, 52, 0
1, 87599, Note_off_c, 1, 62, 0
1, 87600, Note_off_c, 1, 71, 0
1, 87600, Note_off_c, 1, 68, 0
1, 87600, Note_on_c, 1, 57, 127
1, 87600, Note_on_c, 1, 64, 127
1, 87600, Note_on_c, 1, 61, 127
1, 87719, Note_off_c, 1, 57, 0
1, 87719, Note_off_c, 1, 64, 0
1, 87719, Note_off_c, 1, 61, 0
1, 87780, Note_on_c, 1, 42, 127
1, 87780, Note_on_c, 1, 61, 127
1, 87780, Note_on_c, 1, 66, 127
1, 87840, Note_on_c, 1, 73, 127
1, 87869, Note_off_c, 1, 73, 0
1, 87900, Note_on_c, 1, 78, 127
1, 87959, Note_off_c, 1, 78, 0
1, 87960, Note_on_c, 1, 80, 127
1, 88019, Note_off_c, 1, 80, 0
1, 88020, Note_on_c, 1, 81, 127
1, 88079, Note_off_c, 1, 81, 0
1, 88260, Note_off_c, 1, 61, 0
1, 88260, Note_on_c, 1, 74, 127
1, 88260, Note_on_c, 1, 62, 127
1, 88260, Note_on_c, 1, 69, 127
1, 88319, Note_off_c, 1, 74, 0
1, 88500, Note_off_c, 1, 62, 0
1, 88500, Note_on_c, 1, 71, 127
1, 88680, Note_on_c, 1, 68, 127
1, 88739, Note_off_c, 1, 68, 0
1, 88740, Note_off_c, 1, 66, 0
1, 88740, Note_off_c, 1, 69, 0
1, 88740, Note_on_c, 1, 65, 127
1, 89220, Note_off_c, 1, 71, 0
1, 89220, Note_off_c, 1, 65, 0
1, 89280, Note_off_c, 1, 42, 0
1, 89280, Note_on_c, 1, 49, 127
1, 89310, Note_off_c, 1, 49, 0
1, 89310, Note_on_c, 1, 47, 127
1, 89340, Note_off_c, 1, 47, 0
1, 89340, Note_on_c, 1, 45, 127
1, 89370, Note_off_c, 1, 45, 0
1, 89460, Note_on_c, 1, 39, 127
1, 89460, Note_on_c, 1, 63, 127
1, 89700, Note_on_c, 1, 75, 127
1, 89759, Note_off_c, 1, 75, 0
1, 89790, Note_on_c, 1, 76, 127
1, 89819, Note_off_c, 1, 76, 0
1, 89940, Note_off_c, 1, 39, 0
1, 89940, Note_off_c, 1, 63, 0
1, 89940, Note_on_c, 1, 44, 127
1, 89940, Note_on_c, 1, 64, 127
1, 90420, Note_off_c, 1, 64, 0
1, 91140, Note_off_c, 1, 44, 0
1, 91200, Note_on_c, 1, 52, 127
1, 91230, Note_off_c, 1, 52, 0
1, 91230, Note_on_c, 1, 50, 127
1, 91260, Note_off_c, 1, 50, 0
1, 92100, Note_on_c, 1, 72, 127
1, 92100, Note_on_c, 1, 60, 127
1, 92159, Note_off_c, 1, 72, 0
1, 92340, Note_off_c, 1, 60, 0
1, 92340, Note_on_c, 1, 51, 127
1, 92670, Note_on_c, 1, 79, 127
1, 92699, Note_off_c, 1, 79, 0
1, 92820, Note_off_c, 1, 51, 0
1, 92820, Note_on_c, 1, 67, 127
1, 92940, Note_on_c, 1, 55, 127
1, 93060, Note_off_c, 1, 67, 0
1, 93060, Note_off_c, 1, 55, 0
1, 93060, Note_on_c, 1, 59, 127
1, 93180, Note_off_c, 1, 59, 0
1, 93300, Note_on_c, 1, 46, 127
1, 93300, Note_on_c, 1, 70, 127
1, 93780, Note_off_c, 1, 46, 0
1, 93780, Note_off_c, 1, 70, 0
1, 93840, Note_on_c, 1, 54, 127
1, 93869, Note_off_c, 1, 54, 0
1, 94020, Note_on_c, 1, 77, 127
1, 94079, Note_off_c, 1, 77, 0
1, 94140, Note_on_c, 1, 43, 127
1, 94199, Note_off_c, 1, 43, 0
1, 94260, Note_on_c, 1, 41, 127
1, 94379, Note_off_c, 1, 41, 0
1, 94380, Note_on_c, 1, 71, 127
1, 94439, Note_off_c, 1, 71, 0
1, 94440, Note_on_c, 1, 66, 127
1, 94499, Note_off_c, 1, 66, 0
1, 94500, Note_on_c, 1, 42, 127
1, 94500, Note_on_c, 1, 71, 127
1, 94500, Note_on_c, 1, 62, 127
1, 94560, Note_off_c, 1, 71, 0
1, 94560, Note_off_c, 1, 62, 0
1, 94560, Note_on_c, 1, 61, 127
1, 94560, Note_on_c, 1, 70, 127
1, 94619, Note_off_c, 1, 42, 0
1, 94620, Note_off_c, 1, 61, 0
1, 94620, Note_off_c, 1, 70, 0
1, 94620, Note_on_c, 1, 47, 127
1, 94620, Note_on_c, 1, 59, 127
1, 94739, Note_off_c, 1, 47, 0
1, 94739, Note_off_c, 1, 59, 0
1, 94980, Note_on_c, 1, 66, 127
1, 94980, Note_on_c, 1, 47, 127
1, 94980, Note_on_c, 1, 62, 127
1, 95039, Note_off_c, 1, 66, 0
1, 95039, Note_off_c, 1, 47, 0
1, 95039, Note_off_c, 1, 62, 0
1, 95040, Note_on_c, 1, 67, 127
1, 95100, Note_on_c, 1, 40, 127
1, 95100, Note_on_c, 1, 64, 127
1, 95159, Note_off_c, 1, 67, 0
1, 95159, Note_off_c, 1, 40, 0
1, 95159, Note_off_c, 1, 64, 0
1, 95160, Note_on_c, 1, 66, 127
1, 95189, Note_off_c, 1, 66, 0
1, 95190, Note_on_c, 1, 64, 127
1, 95219, Note_off_c, 1, 64, 0
1, 95220, Note_on_c, 1, 66, 127
1, 95220, Note_on_c, 1, 47, 127
1, 95220, Note_on_c, 1, 62, 127
1, 95279, Note_off_c, 1, 66, 0
1, 95279, Note_off_c, 1, 47, 0
1, 95279, Note_off_c, 1, 62, 0
1, 95280, Note_on_c, 1, 62, 127
1, 95325, Note_off_c, 1, 62, 0
1, 95340, Note_on_c, 1, 59, 127
1, 95340, Note_on_c, 1, 50, 127
1, 95340, Note_on_c, 1, 62, 127
1, 95399, Note_off_c, 1, 59, 0
1, 95399, Note_off_c, 1, 50, 0
1, 95399, Note_off_c, 1, 62, 0
1, 95400, Note_on_c, 1, 71, 127
1, 95429, Note_off_c, 1, 71, 0
1, 95460, Note_on_c, 1, 70, 127
1, 95460, Note_on_c, 1, 49, 127
1, 95460, Note_on_c, 1, 64, 127
1, 95519, Note_off_c, 1, 70, 0
1, 95519, Note_off_c, 1, 49, 0
1, 95519, Note_off_c, 1, 64, 0
1, 95520, Note_on_c, 1, 71, 127
1, 95580, Note_on_c, 1, 47, 127
1, 95580, Note_on_c, 1, 66, 127
1, 95580, Note_on_c, 1, 62, 127
1, 95639, Note_off_c, 1, 71, 0
1, 95639, Note_off_c, 1, 47, 0
1, 95639, Note_off_c, 1, 66, 0
1, 95639, Note_off_c, 1, 62, 0
1, 95640, Note_on_c, 1, 73, 127
1, 95669, Note_off_c, 1, 73, 0
1, 95670, Note_on_c, 1, 74, 127
1, 95699, Note_off_c, 1, 74, 0
1, 95700, Note_on_c, 1, 73, 127
1, 95700, Note_on_c, 1, 54, 127
1, 95700, Note_on_c, 1, 66, 127
1, 95700, Note_on_c, 1, 70, 127
1, 95729, Note_off_c, 1, 73, 0
1, 95730, Note_on_c, 1, 71, 127
1, 95759, Note_off_c, 1, 54, 0
1, 95759, Note_off_c, 1, 66, 0
1, 95759, Note_off_c, 1, 70, 0
1, 95759, Note_off_c, 1, 71, 0
1, 95760, Note_on_c, 1, 70, 127
1, 95789, Note_off_c, 1, 70, 0
1, 95790, Note_on_c, 1, 68, 127
1, 95819, Note_off_c, 1, 68, 0
1, 95820, Note_on_c, 1, 66, 127
1, 95820, Note_on_c, 1, 52, 127
1, 95820, Note_on_c, 1, 69, 127
1, 95820, Note_on_c, 1, 61, 127
1, 95879, Note_off_c, 1, 66, 0
1, 95879, Note_off_c, 1, 52, 0
1, 95879, Note_off_c, 1, 69, 0
1, 95879, Note_off_c, 1, 61, 0
1, 95880, Note_on_c, 1, 69, 127
1, 95940, Note_on_c, 1, 51, 127
1, 95940, Note_on_c, 1, 59, 127
1, 95999, Note_off_c, 1, 69, 0
1, 95999, Note_off_c, 1, 51, 0
1, 95999, Note_off_c, 1, 59, 0
1, 96000, Note_on_c, 1, 71, 127
1, 96000, Note_on_c, 1, 54, 127
1, 96000, Note_on_c, 1, 63, 127
1, 96029, Note_off_c, 1, 71, 0
1, 96030, Note_on_c, 1, 72, 127
1, 96059, Note_off_c, 1, 54, 0
1, 96059, Note_off_c, 1, 63, 0
1, 96059, Note_off_c, 1, 72, 0
1, 96060, Note_on_c, 1, 71, 127
1, 96060, Note_on_c, 1, 57, 127
1, 96060, Note_on_c, 1, 66, 127
1, 96060, Note_on_c, 1, 64, 127
1, 96119, Note_off_c, 1, 71, 0
1, 96119, Note_off_c, 1, 66, 0
1, 96119, Note_off_c, 1, 64, 0
1, 96120, Note_on_c, 1, 69, 127
1, 96149, Note_off_c, 1, 69, 0
1, 96180, Note_on_c, 1, 75, 127
1, 96180, Note_on_c, 1, 63, 127
1, 96180, Note_on_c, 1, 59, 127
1, 96239, Note_off_c, 1, 75, 0
1, 96239, Note_off_c, 1, 63, 0
1, 96239, Note_off_c, 1, 59, 0
1, 96240, Note_off_c, 1, 57, 0
1, 96240, Note_on_c, 1, 76, 127
1, 96240, Note_on_c, 1, 55, 127
1, 96269, Note_off_c, 1, 55, 0
1, 96270, Note_on_c, 1, 54, 127
1, 96299, Note_off_c, 1, 76, 0
1, 96299, Note_off_c, 1, 54, 0
1, 96300, Note_on_c, 1, 64, 127
1, 96300, Note_on_c, 1, 55, 127
1, 96300, Note_on_c, 1, 59, 127
1, 96329, Note_off_c, 1, 55, 0
1, 96330, Note_on_c, 1, 54, 127
1, 96359, Note_off_c, 1, 64, 0
1, 96359, Note_off_c, 1, 59, 0
1, 96359, Note_off_c, 1, 54, 0
1, 96360, Note_on_c, 1, 66, 127
1, 96360, Note_on_c, 1, 52, 127
1, 96389, Note_off_c, 1, 66, 0
1, 96389, Note_off_c, 1, 52, 0
1, 96390, Note_on_c, 1, 50, 127
1, 96419, Note_off_c, 1, 50, 0
1, 96420, Note_on_c, 1, 67, 127
1, 96420, Note_on_c, 1, 49, 127
1, 96420, Note_on_c, 1, 69, 127
1, 96479, Note_off_c, 1, 67, 0
1, 96479, Note_off_c, 1, 49, 0
1, 96479, Note_off_c, 1, 69, 0
1, 96480, Note_on_c, 1, 69, 127
1, 96480, Note_on_c, 1, 52, 127
1, 96480, Note_on_c, 1, 61, 127
1, 96509, Note_off_c, 1, 69, 0
1, 96510, Note_on_c, 1, 67, 127
1, 96539, Note_off_c, 1, 52, 0
1, 96539, Note_off_c, 1, 61, 0
1, 96539, Note_off_c, 1, 67, 0
1, 96540, Note_on_c, 1, 66, 127
1, 96540, Note_on_c, 1, 55, 127
1, 96540, Note_on_c, 1, 64, 127
1, 96540, Note_on_c, 1, 62, 127
1, 96599, Note_off_c, 1, 66, 0
1, 96599, Note_off_c, 1, 64, 0
1, 96599, Note_off_c, 1, 62, 0
1, 96660, Note_on_c, 1, 73, 127
1, 96660, Note_on_c, 1, 61, 127
1, 96719, Note_off_c, 1, 55, 0
1, 96719, Note_off_c, 1, 61, 0
1, 96720, Note_on_c, 1, 54, 127
1, 96749, Note_off_c, 1, 54, 0
1, 96750, Note_on_c, 1, 52, 127
1, 96779, Note_off_c, 1, 73, 0
1, 96779, Note_off_c, 1, 52, 0
1, 96780, Note_on_c, 1, 74, 127
1, 96780, Note_on_c, 1, 54, 127
1, 96780, Note_on_c, 1, 66, 127
1, 96780, Note_on_c, 1, 62, 127
1, 96809, Note_off_c, 1, 54, 0
1, 96810, Note_on_c, 1, 52, 127
1, 96839, Note_off_c, 1, 74, 0
1, 96839, Note_off_c, 1, 66, 0
1, 96839, Note_off_c, 1, 62, 0
1, 96839, Note_off_c, 1, 52, 0
1, 96840, Note_on_c, 1, 68, 127
1, 96840, Note_on_c, 1, 50, 127
1, 96869, Note_off_c, 1, 50, 0
1, 96870, Note_on_c, 1, 49, 127
1, 96899, Note_off_c, 1, 49, 0
1, 96900, Note_on_c, 1, 47, 127
1, 96900, Note_on_c, 1, 62, 127
1, 96959, Note_off_c, 1, 68, 0
1, 96959, Note_off_c, 1, 47, 0
1, 96959, Note_off_c, 1, 62, 0
1, 96960, Note_on_c, 1, 69, 127
1, 96989, Note_off_c, 1, 69, 0
1, 96990, Note_on_c, 1, 71, 127
1, 97019, Note_off_c, 1, 71, 0
1, 97020, Note_on_c, 1, 69, 127
1, 97020, Note_on_c, 1, 52, 127
1, 97020, Note_on_c, 1, 68, 127
1, 97020, Note_on_c, 1, 64, 127
1, 97079, Note_off_c, 1, 69, 0
1, 97079, Note_off_c, 1, 52, 0
1, 97079, Note_off_c, 1, 68, 0
1, 97079, Note_off_c, 1, 64, 0
1, 97080, Note_on_c, 1, 68, 127
1, 97110, Note_off_c, 1, 68, 0
1, 97140, Note_on_c, 1, 69, 127
1, 97140, Note_on_c, 1, 49, 127
1, 97140, Note_on_c, 1, 64, 127
1, 97199, Note_off_c, 1, 69, 0
1, 97199, Note_off_c, 1, 49, 0
1, 97199, Note_off_c, 1, 64, 0
1, 97200, Note_on_c, 1, 62, 127
1, 97259, Note_off_c, 1, 62, 0
1, 97260, Note_on_c, 1, 61, 127
1, 97260, Note_on_c, 1, 45, 127
1, 97260, Note_on_c, 1, 67, 127
1, 97319, Note_off_c, 1, 61, 0
1, 97319, Note_off_c, 1, 45, 0
1, 97319, Note_off_c, 1, 67, 0
1, 97320, Note_on_c, 1, 67, 127
1, 97350, Note_off_c, 1, 67, 0
1, 97380, Note_on_c, 1, 66, 127
1, 97380, Note_on_c, 1, 50, 127
1, 97380, Note_on_c, 1, 62, 127
1, 97439, Note_off_c, 1, 66, 0
1, 97439, Note_off_c, 1, 50, 0
1, 97439, Note_off_c, 1, 62, 0
1, 97440, Note_on_c, 1, 69, 127
1, 97440, Note_on_c, 1, 42, 127
1, 97440, Note_on_c, 1, 57, 127
1, 97440, Note_on_c, 1, 66, 127
1, 97469, Note_off_c, 1, 69, 0
1, 97470, Note_on_c, 1, 67, 127
1, 97499, Note_off_c, 1, 42, 0
1, 97499, Note_off_c, 1, 57, 0
1, 97499, Note_off_c, 1, 66, 0
1, 97499, Note_off_c, 1, 67, 0
1, 97500, Note_on_c, 1, 66, 127
1, 97500, Note_on_c, 1, 43, 127
1, 97500, Note_on_c, 1, 59, 127
1, 97500, Note_on_c, 1, 62, 127
1, 97559, Note_off_c, 1, 66, 0
1, 97559, Note_off_c, 1, 43, 0
1, 97559, Note_off_c, 1, 59, 0
1, 97559, Note_off_c, 1, 62, 0
1, 97560, Note_on_c, 1, 64, 127
1, 97560, Note_on_c, 1, 45, 127
1, 97560, Note_on_c, 1, 61, 127
1, 97560, Note_on_c, 1, 67, 127
1, 97619, Note_off_c, 1, 64, 0
1, 97619, Note_off_c, 1, 45, 0
1, 97619, Note_off_c, 1, 61, 0
1, 97619, Note_off_c, 1, 67, 0
1, 97620, Note_on_c, 1, 64, 127
1, 97620, Note_on_c, 1, 38, 127
1, 97620, Note_on_c, 1, 66, 127
1, 97679, Note_off_c, 1, 64, 0
1, 97679, Note_off_c, 1, 38, 0
1, 97680, Note_on_c, 1, 62, 127
1, 97680, Note_on_c, 1, 40, 127
1, 97709, Note_off_c, 1, 40, 0
1, 97710, Note_on_c, 1, 42, 127
1, 97739, Note_off_c, 1, 62, 0
1, 97739, Note_off_c, 1, 42, 0
1, 97740, Note_off_c, 1, 66, 0
1, 97740, Note_on_c, 1, 43, 127
1, 97769, Note_off_c, 1, 43, 0
1, 97770, Note_on_c, 1, 45, 127
1, 97770, Note_on_c, 1, 61, 127
1, 97799, Note_off_c, 1, 45, 0
1, 97799, Note_off_c, 1, 61, 0
1, 97800, Note_on_c, 1, 47, 127
1, 97800, Note_on_c, 1, 62, 127
1, 97829, Note_off_c, 1, 47, 0
1, 97829, Note_off_c, 1, 62, 0
1, 97830, Note_on_c, 1, 49, 127
1, 97830, Note_on_c, 1, 64, 127
1, 97859, Note_off_c, 1, 49, 0
1, 97859, Note_off_c, 1, 64, 0
1, 97860, Note_on_c, 1, 62, 127
1, 97860, Note_on_c, 1, 50, 127
1, 97860, Note_on_c, 1, 69, 127
1, 97860, Note_on_c, 1, 66, 127
1, 97889, Note_off_c, 1, 62, 0
1, 97919, Note_off_c, 1, 50, 0
1, 97919, Note_off_c, 1, 69, 0
1, 97919, Note_off_c, 1, 66, 0
1, 97920, Note_on_c, 1, 78, 127
1, 97920, Note_on_c, 1, 59, 127
1, 97949, Note_off_c, 1, 59, 0
1, 97950, Note_on_c, 1, 61, 127
1, 97979, Note_off_c, 1, 61, 0
1, 97980, Note_on_c, 1, 38, 127
1, 97980, Note_on_c, 1, 62, 127
1, 97980, Note_on_c, 1, 66, 127
1, 98039, Note_off_c, 1, 78, 0
1, 98039, Note_off_c, 1, 38, 0
1, 98039, Note_off_c, 1, 62, 0
1, 98040, Note_on_c, 1, 76, 127
1, 98069, Note_off_c, 1, 76, 0
1, 98070, Note_on_c, 1, 74, 127
1, 98099, Note_off_c, 1, 74, 0
1, 98100, Note_off_c, 1, 66, 0
1, 98100, Note_on_c, 1, 45, 127
1, 98100, Note_on_c, 1, 64, 127
1, 98159, Note_off_c, 1, 45, 0
1, 98159, Note_off_c, 1, 64, 0
1, 98160, Note_on_c, 1, 73, 127
1, 98189, Note_off_c, 1, 73, 0
1, 98190, Note_on_c, 1, 71, 127
1, 98219, Note_off_c, 1, 71, 0
1, 98220, Note_on_c, 1, 69, 127
1, 98220, Note_on_c, 1, 49, 127
1, 98220, Note_on_c, 1, 64, 127
1, 98279, Note_off_c, 1, 69, 0
1, 98279, Note_off_c, 1, 49, 0
1, 98279, Note_off_c, 1, 64, 0
1, 98280, Note_on_c, 1, 67, 127
1, 98339, Note_off_c, 1, 67, 0
1, 98340, Note_on_c, 1, 58, 127
1, 98340, Note_on_c, 1, 54, 127
1, 98340, Note_on_c, 1, 70, 127
1, 98340, Note_on_c, 1, 64, 127
1, 98369, Note_off_c, 1, 58, 0
1, 98370, Note_on_c, 1, 66, 127
1, 98399, Note_off_c, 1, 54, 0
1, 98399, Note_off_c, 1, 70, 0
1, 98399, Note_off_c, 1, 64, 0
1, 98399, Note_off_c, 1, 66, 0
1, 98400, Note_on_c, 1, 76, 127
1, 98400, Note_on_c, 1, 58, 127
1, 98429, Note_off_c, 1, 58, 0
1, 98430, Note_on_c, 1, 59, 127
1, 98459, Note_off_c, 1, 59, 0
1, 98460, Note_on_c, 1, 42, 127
1, 98460, Note_on_c, 1, 61, 127
1, 98460, Note_on_c, 1, 64, 127
1, 98519, Note_off_c, 1, 76, 0
1, 98519, Note_off_c, 1, 42, 0
1, 98519, Note_off_c, 1, 61, 0
1, 98520, Note_on_c, 1, 74, 127
1, 98549, Note_off_c, 1, 74, 0
1, 98550, Note_on_c, 1, 73, 127
1, 98579, Note_off_c, 1, 73, 0
1, 98580, Note_off_c, 1, 64, 0
1, 98580, Note_on_c, 1, 47, 127
1, 98580, Note_on_c, 1, 66, 127
1, 98580, Note_on_c, 1, 62, 127
1, 98639, Note_off_c, 1, 47, 0
1, 98639, Note_off_c, 1, 66, 0
1, 98639, Note_off_c, 1, 62, 0
1, 98640, Note_on_c, 1, 71, 127
1, 98700, Note_on_c, 1, 50, 127
1, 98700, Note_on_c, 1, 66, 127
1, 98700, Note_on_c, 1, 62, 127
1, 98730, Note_on_c, 1, 69, 127
1, 98759, Note_off_c, 1, 71, 0
1, 98759, Note_off_c, 1, 50, 0
1, 98759, Note_off_c, 1, 66, 0
1, 98759, Note_off_c, 1, 62, 0
1, 98759, Note_off_c, 1, 69, 0
1, 98760, Note_on_c, 1, 67, 127
1, 98789, Note_off_c, 1, 67, 0
1, 98790, Note_on_c, 1, 66, 127
1, 98819, Note_off_c, 1, 66, 0
1, 98820, Note_on_c, 1, 67, 127
1, 98820, Note_on_c, 1, 55, 127
1, 98820, Note_on_c, 1, 64, 127
1, 98850, Note_on_c, 1, 76, 127
1, 98879, Note_off_c, 1, 55, 0
1, 98879, Note_off_c, 1, 76, 0
1, 98880, Note_off_c, 1, 67, 0
1, 98880, Note_off_c, 1, 64, 0
1, 98880, Note_on_c, 1, 74, 127
1, 98909, Note_off_c, 1, 74, 0
1, 98910, Note_on_c, 1, 73, 127
1, 98939, Note_off_c, 1, 73, 0
1, 98940, Note_on_c, 1, 74, 127
1, 98940, Note_on_c, 1, 54, 127
1, 98940, Note_on_c, 1, 71, 127
1, 98940, Note_on_c, 1, 62, 127
1, 98969, Note_off_c, 1, 74, 0
1, 98999, Note_off_c, 1, 54, 0
1, 99000, Note_off_c, 1, 71, 0
1, 99000, Note_off_c, 1, 62, 0
1, 99000, Note_on_c, 1, 67, 127
1, 99029, Note_off_c, 1, 67, 0
1, 99030, Note_on_c, 1, 66, 127
1, 99045, Note_off_c, 1, 66, 0
1, 99060, Note_on_c, 1, 64, 127
1, 99060, Note_on_c, 1, 52, 127
1, 99060, Note_on_c, 1, 61, 127
1, 99060, Note_on_c, 1, 66, 127
1, 99060, Note_on_c, 1, 58, 127
1, 99075, Note_off_c, 1, 64, 0
1, 99090, Note_on_c, 1, 73, 127
1, 99119, Note_off_c, 1, 52, 0
1, 99119, Note_off_c, 1, 73, 0
1, 99120, Note_off_c, 1, 61, 0
1, 99120, Note_off_c, 1, 66, 0
1, 99120, Note_off_c, 1, 58, 0
1, 99120, Note_on_c, 1, 71, 127
1, 99149, Note_off_c, 1, 71, 0
1, 99150, Note_on_c, 1, 70, 127
1, 99179, Note_off_c, 1, 70, 0
1, 99180, Note_on_c, 1, 71, 127
1, 99180, Note_on_c, 1, 50, 127
1, 99180, Note_on_c, 1, 66, 127
1, 99210, Note_on_c, 1, 67, 127
1, 99239, Note_off_c, 1, 50, 0
1, 99239, Note_off_c, 1, 67, 0
1, 99240, Note_off_c, 1, 71, 0
1, 99240, Note_off_c, 1, 66, 0
1, 99240, Note_on_c, 1, 64, 127
1, 99269, Note_off_c, 1, 64, 0
1, 99270, Note_on_c, 1, 62, 127
1, 99285, Note_off_c, 1, 62, 0
1, 99300, Note_on_c, 1, 61, 127
1, 99300, Note_on_c, 1, 49, 127
1, 99300, Note_on_c, 1, 70, 127
1, 99300, Note_on_c, 1, 67, 127
1, 99315, Note_off_c, 1, 61, 0
1, 99330, Note_on_c, 1, 64, 127
1, 99359, Note_off_c, 1, 49, 0
1, 99359, Note_off_c, 1, 64, 0
1, 99360, Note_off_c, 1, 70, 0
1, 99360, Note_off_c, 1, 67, 0
1, 99360, Note_on_c, 1, 66, 127
1, 99389, Note_off_c, 1, 66, 0
1, 99390, Note_on_c, 1, 67, 127
1, 99419, Note_off_c, 1, 67, 0
1, 99420, Note_on_c, 1, 59, 127
1, 99420, Note_on_c, 1, 47, 127
1, 99420, Note_on_c, 1, 67, 127
1, 99420, Note_on_c, 1, 64, 127
1, 99420, Note_on_c, 1, 71, 127
1, 99435, Note_off_c, 1, 59, 0
1, 99479, Note_off_c, 1, 47, 0
1, 99480, Note_off_c, 1, 67, 0
1, 99480, Note_off_c, 1, 64, 0
1, 99480, Note_off_c, 1, 71, 0
1, 99480, Note_on_c, 1, 66, 127
1, 99509, Note_off_c, 1, 66, 0
1, 99510, Note_on_c, 1, 67, 127
1, 99539, Note_off_c, 1, 67, 0
1, 99540, Note_on_c, 1, 58, 127
1, 99540, Note_on_c, 1, 46, 127
1, 99540, Note_on_c, 1, 64, 127
1, 99540, Note_on_c, 1, 67, 127
1, 99569, Note_off_c, 1, 58, 0
1, 99570, Note_on_c, 1, 61, 127
1, 99599, Note_off_c, 1, 46, 0
1, 99599, Note_off_c, 1, 61, 0
1, 99600, Note_off_c, 1, 67, 0
1, 99629, Note_off_c, 1, 64, 0
1, 99630, Note_on_c, 1, 67, 127
1, 99645, Note_off_c, 1, 67, 0
1, 99660, Note_on_c, 1, 73, 127
1, 99660, Note_on_c, 1, 42, 127
1, 99660, Note_on_c, 1, 70, 127
1, 99660, Note_on_c, 1, 64, 127
1, 99690, Note_on_c, 1, 67, 127
1, 99719, Note_off_c, 1, 42, 0
1, 99719, Note_off_c, 1, 67, 0
1, 99720, Note_off_c, 1, 73, 0
1, 99720, Note_off_c, 1, 70, 0
1, 99720, Note_off_c, 1, 64, 0
1, 99720, Note_on_c, 1, 66, 127
1, 99749, Note_off_c, 1, 66, 0
1, 99750, Note_on_c, 1, 64, 127
1, 99779, Note_off_c, 1, 64, 0
1, 99780, Note_on_c, 1, 63, 127
1, 99780, Note_on_c, 1, 47, 127
1, 99780, Note_on_c, 1, 71, 127
1, 99780, Note_on_c, 1, 66, 127
1, 99839, Note_off_c, 1, 47, 0
1, 99840, Note_off_c, 1, 63, 0
1, 99840, Note_off_c, 1, 71, 0
1, 99840, Note_off_c, 1, 66, 0
1, 99840, Note_on_c, 1, 69, 127
1, 99870, Note_on_c, 1, 72, 127
1, 99885, Note_off_c, 1, 72, 0
1, 99900, Note_on_c, 1, 78, 127
1, 99900, Note_on_c, 1, 51, 127
1, 99915, Note_off_c, 1, 78, 0
1, 99959, Note_off_c, 1, 51, 0
1, 99960, Note_off_c, 1, 69, 0
1, 99990, Note_on_c, 1, 69, 127
1, 100019, Note_off_c, 1, 69, 0
1, 100020, Note_on_c, 1, 68, 127
1, 100020, Note_on_c, 1, 53, 127
1, 100020, Note_on_c, 1, 74, 127
1, 100020, Note_on_c, 1, 71, 127
1, 100080, Note_off_c, 1, 68, 0
1, 100080, Note_off_c, 1, 71, 0
1, 100109, Note_off_c, 1, 74, 0
1, 100110, Note_on_c, 1, 77, 127
1, 100139, Note_off_c, 1, 53, 0
1, 100139, Note_off_c, 1, 77, 0
1, 100140, Note_on_c, 1, 83, 127
1, 100200, Note_on_c, 1, 49, 127
1, 100200, Note_on_c, 1, 71, 127
1, 100200, Note_on_c, 1, 73, 127
1, 100200, Note_on_c, 1, 77, 127
1, 100200, Note_on_c, 1, 65, 127
1, 100259, Note_off_c, 1, 49, 0
1, 100260, Note_off_c, 1, 73, 0
1, 100260, Note_off_c, 1, 77, 0
1, 100260, Note_off_c, 1, 65, 0
1, 100260, Note_on_c, 1, 50, 127
1, 100260, Note_on_c, 1, 74, 127
1, 100260, Note_on_c, 1, 66, 127
1, 100319, Note_off_c, 1, 83, 0
1, 100319, Note_off_c, 1, 50, 0
1, 100320, Note_off_c, 1, 74, 0
1, 100320, Note_off_c, 1, 66, 0
1, 100320, Note_on_c, 1, 81, 127
1, 100320, Note_on_c, 1, 52, 127
1, 100320, Note_on_c, 1, 67, 127
1, 100320, Note_on_c, 1, 64, 127
1, 100349, Note_off_c, 1, 81, 0
1, 100350, Note_on_c, 1, 79, 127
1, 100379, Note_off_c, 1, 52, 0
1, 100379, Note_off_c, 1, 79, 0
1, 100380, Note_off_c, 1, 67, 0
1, 100380, Note_off_c, 1, 64, 0
1, 100380, Note_on_c, 1, 78, 127
1, 100380, Note_on_c, 1, 54, 127
1, 100409, Note_off_c, 1, 78, 0
1, 100410, Note_on_c, 1, 76, 127
1, 100439, Note_off_c, 1, 54, 0
1, 100439, Note_off_c, 1, 76, 0
1, 100440, Note_off_c, 1, 71, 0
1, 100440, Note_on_c, 1, 42, 127
1, 100440, Note_on_c, 1, 70, 127
1, 100440, Note_on_c, 1, 61, 127
1, 100499, Note_off_c, 1, 42, 0
1, 100500, Note_off_c, 1, 70, 0
1, 100500, Note_off_c, 1, 61, 0
1, 100500, Note_on_c, 1, 47, 127
1, 100500, Note_on_c, 1, 62, 127
1, 100500, Note_on_c, 1, 59, 127
1, 100559, Note_off_c, 1, 47, 0
1, 100560, Note_off_c, 1, 62, 0
1, 100560, Note_on_c, 1, 69, 127
1, 100589, Note_off_c, 1, 69, 0
1, 100619, Note_off_c, 1, 59, 0
1, 100620, Note_on_c, 1, 66, 127
1, 100620, Note_on_c, 1, 50, 127
1, 100620, Note_on_c, 1, 62, 127
1, 100650, Note_on_c, 1, 64, 127
1, 100679, Note_off_c, 1, 50, 0
1, 100679, Note_off_c, 1, 64, 0
1, 100680, Note_off_c, 1, 66, 0
1, 100680, Note_on_c, 1, 54, 127
1, 100680, Note_on_c, 1, 70, 127
1, 100709, Note_off_c, 1, 62, 0
1, 100710, Note_on_c, 1, 61, 127
1, 100739, Note_off_c, 1, 54, 0
1, 100739, Note_off_c, 1, 61, 0
1, 100740, Note_off_c, 1, 70, 0
1, 100740, Note_on_c, 1, 47, 127
1, 100740, Note_on_c, 1, 71, 127
1, 100799, Note_off_c, 1, 47, 0
1, 100800, Note_off_c, 1, 71, 0
1, 100800, Note_on_c, 1, 67, 127
1, 100800, Note_on_c, 1, 59, 127
1, 100859, Note_off_c, 1, 59, 0
1, 100920, Note_off_c, 1, 67, 0
1, 100980, Note_on_c, 1, 62, 127
1, 100980, Note_on_c, 1, 66, 127
1, 100980, Note_on_c, 1, 47, 127
1, 101039, Note_off_c, 1, 62, 0
1, 101039, Note_off_c, 1, 66, 0
1, 101039, Note_off_c, 1, 47, 0
1, 101040, Note_on_c, 1, 71, 127
1, 101040, Note_on_c, 1, 62, 127
1, 101040, Note_on_c, 1, 59, 127
1, 101069, Note_off_c, 1, 71, 0
1, 101070, Note_on_c, 1, 74, 127
1, 101099, Note_off_c, 1, 62, 0
1, 101099, Note_off_c, 1, 59, 0
1, 101099, Note_off_c, 1, 74, 0
1, 101100, Note_on_c, 1, 78, 127
1, 101100, Note_on_c, 1, 59, 127
1, 101100, Note_on_c, 1, 50, 127
1, 101100, Note_on_c, 1, 66, 127
1, 101100, Note_on_c, 1, 71, 127
1, 101159, Note_off_c, 1, 59, 0
1, 101159, Note_off_c, 1, 50, 0
1, 101159, Note_off_c, 1, 66, 0
1, 101159, Note_off_c, 1, 71, 0
1, 101160, Note_on_c, 1, 52, 127
1, 101189, Note_off_c, 1, 52, 0
1, 101190, Note_on_c, 1, 54, 127
1, 101219, Note_off_c, 1, 54, 0
1, 101220, Note_on_c, 1, 70, 127
1, 101220, Note_on_c, 1, 61, 127
1, 101279, Note_off_c, 1, 78, 0
1, 101279, Note_off_c, 1, 70, 0
1, 101279, Note_off_c, 1, 61, 0
1, 101280, Note_on_c, 1, 79, 127
1, 101280, Note_on_c, 1, 71, 127
1, 101280, Note_on_c, 1, 50, 127
1, 101309, Note_off_c, 1, 79, 0
1, 101310, Note_on_c, 1, 78, 127
1, 101339, Note_off_c, 1, 50, 0
1, 101339, Note_off_c, 1, 78, 0
1, 101340, Note_on_c, 1, 76, 127
1, 101340, Note_on_c, 1, 55, 127
1, 101340, Note_on_c, 1, 64, 127
1, 101340, Note_on_c, 1, 67, 127
1, 101369, Note_off_c, 1, 76, 0
1, 101370, Note_on_c, 1, 74, 127
1, 101399, Note_off_c, 1, 71, 0
1, 101399, Note_off_c, 1, 55, 0
1, 101399, Note_off_c, 1, 64, 0
1, 101399, Note_off_c, 1, 67, 0
1, 101399, Note_off_c, 1, 74, 0
1, 101400, Note_on_c, 1, 73, 127
1, 101400, Note_on_c, 1, 52, 127
1, 101400, Note_on_c, 1, 62, 127
1, 101400, Note_on_c, 1, 67, 127
1, 101400, Note_on_c, 1, 71, 127
1, 101429, Note_off_c, 1, 73, 0
1, 101430, Note_on_c, 1, 74, 127
1, 101459, Note_off_c, 1, 52, 0
1, 101459, Note_off_c, 1, 62, 0
1, 101459, Note_off_c, 1, 67, 0
1, 101459, Note_off_c, 1, 71, 0
1, 101459, Note_off_c, 1, 74, 0
1, 101460, Note_on_c, 1, 70, 127
1, 101460, Note_on_c, 1, 73, 127
1, 101460, Note_on_c, 1, 54, 127
1, 101460, Note_on_c, 1, 66, 127
1, 101519, Note_off_c, 1, 70, 0
1, 101519, Note_off_c, 1, 73, 0
1, 101519, Note_off_c, 1, 54, 0
1, 101519, Note_off_c, 1, 66, 0
1, 101520, Note_on_c, 1, 78, 127
1, 101520, Note_on_c, 1, 70, 127
1, 101579, Note_off_c, 1, 78, 0
1, 101579, Note_off_c, 1, 70, 0
1, 101580, Note_on_c, 1, 66, 127
1, 101580, Note_on_c, 1, 52, 127
1, 101580, Note_on_c, 1, 69, 127
1, 101639, Note_off_c, 1, 66, 0
1, 101639, Note_off_c, 1, 52, 0
1, 101639, Note_off_c, 1, 69, 0
1, 101640, Note_on_c, 1, 69, 127
1, 101700, Note_on_c, 1, 51, 127
1, 101700, Note_on_c, 1, 59, 127
1, 101759, Note_off_c, 1, 69, 0
1, 101759, Note_off_c, 1, 51, 0
1, 101759, Note_off_c, 1, 59, 0
1, 101760, Note_on_c, 1, 71, 127
1, 101760, Note_on_c, 1, 54, 127
1, 101760, Note_on_c, 1, 66, 127
1, 101790, Note_on_c, 1, 72, 127
1, 101819, Note_off_c, 1, 71, 0
1, 101819, Note_off_c, 1, 54, 0
1, 101819, Note_off_c, 1, 66, 0
1, 101819, Note_off_c, 1, 72, 0
1, 101820, Note_on_c, 1, 71, 127
1, 101820, Note_on_c, 1, 66, 127
1, 101820, Note_on_c, 1, 57, 127
1, 101820, Note_on_c, 1, 64, 127
1, 101820, Note_on_c, 1, 60, 127
1, 101879, Note_off_c, 1, 71, 0
1, 101879, Note_off_c, 1, 64, 0
1, 101879, Note_off_c, 1, 60, 0
1, 101880, Note_on_c, 1, 69, 127
1, 101939, Note_off_c, 1, 69, 0
1, 101940, Note_on_c, 1, 75, 127
1, 101940, Note_on_c, 1, 59, 127
1, 101940, Note_on_c, 1, 63, 127
1, 101999, Note_off_c, 1, 66, 0
1, 101999, Note_off_c, 1, 57, 0
1, 101999, Note_off_c, 1, 75, 0
1, 101999, Note_off_c, 1, 59, 0
1, 101999, Note_off_c, 1, 63, 0
1, 102000, Note_on_c, 1, 76, 127
1, 102000, Note_on_c, 1, 67, 127
1, 102000, Note_on_c, 1, 55, 127
1, 102000, Note_on_c, 1, 64, 127
1, 102029, Note_off_c, 1, 67, 0
1, 102029, Note_off_c, 1, 55, 0
1, 102029, Note_off_c, 1, 64, 0
1, 102030, Note_on_c, 1, 69, 127
1, 102030, Note_on_c, 1, 54, 127
1, 102030, Note_on_c, 1, 62, 127
1, 102059, Note_off_c, 1, 76, 0
1, 102059, Note_off_c, 1, 69, 0
1, 102059, Note_off_c, 1, 54, 0
1, 102059, Note_off_c, 1, 62, 0
1, 102060, Note_on_c, 1, 64, 127
1, 102060, Note_on_c, 1, 67, 127
1, 102060, Note_on_c, 1, 52, 127
1, 102060, Note_on_c, 1, 59, 127
1, 102119, Note_off_c, 1, 64, 0
1, 102119, Note_off_c, 1, 67, 0
1, 102119, Note_off_c, 1, 52, 0
1, 102119, Note_off_c, 1, 59, 0
1, 102120, Note_on_c, 1, 66, 127
1, 102120, Note_on_c, 1, 50, 127
1, 102120, Note_on_c, 1, 62, 127
1, 102179, Note_off_c, 1, 66, 0
1, 102179, Note_off_c, 1, 50, 0
1, 102179, Note_off_c, 1, 62, 0
1, 102180, Note_on_c, 1, 67, 127
1, 102180, Note_on_c, 1, 64, 127
1, 102180, Note_on_c, 1, 49, 127
1, 102180, Note_on_c, 1, 66, 127
1, 102239, Note_off_c, 1, 67, 0
1, 102239, Note_off_c, 1, 49, 0
1, 102239, Note_off_c, 1, 66, 0
1, 102240, Note_on_c, 1, 69, 127
1, 102240, Note_on_c, 1, 61, 127
1, 102269, Note_off_c, 1, 69, 0
1, 102269, Note_off_c, 1, 61, 0
1, 102270, Note_on_c, 1, 59, 127
1, 102270, Note_on_c, 1, 62, 127
1, 102299, Note_off_c, 1, 59, 0
1, 102299, Note_off_c, 1, 62, 0
1, 102300, Note_on_c, 1, 57, 127
1, 102359, Note_off_c, 1, 57, 0
1, 102360, Note_on_c, 1, 55, 127
1, 102419, Note_off_c, 1, 55, 0
1, 102420, Note_on_c, 1, 73, 127
1, 102420, Note_on_c, 1, 54, 127
1, 102479, Note_off_c, 1, 54, 0
1, 102480, Note_off_c, 1, 64, 0
1, 102480, Note_on_c, 1, 52, 127
1, 102539, Note_off_c, 1, 73, 0
1, 102539, Note_off_c, 1, 52, 0
1, 102540, Note_on_c, 1, 74, 127
1, 102540, Note_on_c, 1, 66, 127
1, 102540, Note_on_c, 1, 50, 127
1, 102540, Note_on_c, 1, 69, 127
1, 102599, Note_off_c, 1, 74, 0
1, 102599, Note_off_c, 1, 50, 0
1, 102600, Note_off_c, 1, 66, 0
1, 102600, Note_off_c, 1, 69, 0
1, 102600, Note_on_c, 1, 68, 127
1, 102600, Note_on_c, 1, 64, 127
1, 102600, Note_on_c, 1, 49, 127
1, 102659, Note_off_c, 1, 64, 0
1, 102659, Note_off_c, 1, 49, 0
1, 102660, Note_on_c, 1, 62, 127
1, 102660, Note_on_c, 1, 47, 127
1, 102719, Note_off_c, 1, 47, 0
1, 102720, Note_off_c, 1, 68, 0
1, 102750, Note_on_c, 1, 71, 127
1, 102779, Note_off_c, 1, 62, 0
1, 102779, Note_off_c, 1, 71, 0
1, 102780, Note_on_c, 1, 69, 127
1, 102780, Note_on_c, 1, 74, 127
1, 102780, Note_on_c, 1, 52, 127
1, 102780, Note_on_c, 1, 62, 127
1, 102780, Note_on_c, 1, 68, 127
1, 102839, Note_off_c, 1, 69, 0
1, 102839, Note_off_c, 1, 52, 0
1, 102840, Note_off_c, 1, 62, 0
1, 102899, Note_off_c, 1, 68, 0
1, 102900, Note_on_c, 1, 45, 127
1, 102900, Note_on_c, 1, 64, 127
1, 102959, Note_off_c, 1, 74, 0
1, 102959, Note_off_c, 1, 45, 0
1, 102960, Note_off_c, 1, 64, 0
1, 102960, Note_on_c, 1, 73, 127
1, 102960, Note_on_c, 1, 66, 127
1, 102989, Note_off_c, 1, 73, 0
1, 102990, Note_on_c, 1, 71, 127
1, 103019, Note_off_c, 1, 71, 0
1, 103020, Note_off_c, 1, 66, 0
1, 103020, Note_on_c, 1, 61, 127
1, 103080, Note_off_c, 1, 61, 0
1, 103080, Note_on_c, 1, 67, 127
1, 103080, Note_on_c, 1, 49, 127
1, 103080, Note_on_c, 1, 76, 127
1, 103139, Note_off_c, 1, 49, 0
1, 103140, Note_off_c, 1, 67, 0
1, 103140, Note_on_c, 1, 50, 127
1, 103199, Note_off_c, 1, 50, 0
1, 103200, Note_off_c, 1, 76, 0
1, 103200, Note_on_c, 1, 42, 127
1, 103259, Note_off_c, 1, 42, 0
1, 103260, Note_on_c, 1, 43, 127
1, 103319, Note_off_c, 1, 43, 0
1, 103380, Note_on_c, 1, 38, 127
1, 103439, Note_off_c, 1, 38, 0
1, 103440, Note_on_c, 1, 78, 127
1, 103440, Note_on_c, 1, 59, 127
1, 103470, Note_off_c, 1, 59, 0
1, 103559, Note_off_c, 1, 78, 0
1, 103560, Note_on_c, 1, 76, 127
1, 103560, Note_on_c, 1, 47, 127
1, 103560, Note_on_c, 1, 66, 127
1, 103589, Note_off_c, 1, 76, 0
1, 103590, Note_on_c, 1, 74, 127
1, 103619, Note_off_c, 1, 47, 0
1, 103619, Note_off_c, 1, 66, 0
1, 103619, Note_off_c, 1, 74, 0
1, 103620, Note_on_c, 1, 76, 127
1, 103620, Note_on_c, 1, 64, 127
1, 103620, Note_on_c, 1, 45, 127
1, 103620, Note_on_c, 1, 69, 127
1, 103620, Note_on_c, 1, 61, 127
1, 103649, Note_off_c, 1, 76, 0
1, 103650, Note_on_c, 1, 74, 127
1, 103679, Note_off_c, 1, 64, 0
1, 103679, Note_off_c, 1, 45, 0
1, 103679, Note_off_c, 1, 69, 0
1, 103679, Note_off_c, 1, 61, 0
1, 103679, Note_off_c, 1, 74, 0
1, 103680, Note_on_c, 1, 73, 127
1, 103680, Note_on_c, 1, 66, 127
1, 103680, Note_on_c, 1, 57, 127
1, 103709, Note_off_c, 1, 73, 0
1, 103710, Note_on_c, 1, 71, 127
1, 103739, Note_off_c, 1, 57, 0
1, 103739, Note_off_c, 1, 71, 0
1, 103740, Note_on_c, 1, 69, 127
1, 103740, Note_on_c, 1, 62, 127
1, 103799, Note_off_c, 1, 66, 0
1, 103799, Note_off_c, 1, 69, 0
1, 103799, Note_off_c, 1, 62, 0
1, 103800, Note_on_c, 1, 74, 127
1, 103800, Note_on_c, 1, 64, 127
1, 103800, Note_on_c, 1, 57, 127
1, 103829, Note_off_c, 1, 64, 0
1, 103830, Note_on_c, 1, 62, 127
1, 103859, Note_off_c, 1, 57, 0
1, 103859, Note_off_c, 1, 62, 0
1, 103860, Note_on_c, 1, 45, 127
1, 103919, Note_off_c, 1, 74, 0
1, 103919, Note_off_c, 1, 45, 0
1, 103920, Note_on_c, 1, 73, 127
1, 103920, Note_on_c, 1, 68, 127
1, 103920, Note_on_c, 1, 57, 127
1, 103920, Note_on_c, 1, 61, 127
1, 103949, Note_off_c, 1, 73, 0
1, 103950, Note_on_c, 1, 71, 127
1, 103979, Note_off_c, 1, 68, 0
1, 103979, Note_off_c, 1, 57, 0
1, 103979, Note_off_c, 1, 61, 0
1, 103979, Note_off_c, 1, 71, 0
1, 103980, Note_on_c, 1, 73, 127
1, 103980, Note_on_c, 1, 69, 127
1, 103980, Note_on_c, 1, 45, 127
1, 103980, Note_on_c, 1, 61, 127
1, 103980, Note_on_c, 1, 64, 127
1, 104009, Note_off_c, 1, 73, 0
1, 104010, Note_on_c, 1, 75, 127
1, 104039, Note_off_c, 1, 69, 0
1, 104039, Note_off_c, 1, 45, 0
1, 104039, Note_off_c, 1, 61, 0
1, 104039, Note_off_c, 1, 64, 0
1, 104039, Note_off_c, 1, 75, 0
1, 104040, Note_on_c, 1, 76, 127
1, 104040, Note_on_c, 1, 67, 127
1, 104040, Note_on_c, 1, 46, 127
1, 104040, Note_on_c, 1, 64, 127
1, 104099, Note_off_c, 1, 67, 0
1, 104099, Note_off_c, 1, 46, 0
1, 104099, Note_off_c, 1, 64, 0
1, 104100, Note_on_c, 1, 66, 127
1, 104100, Note_on_c, 1, 47, 127
1, 104100, Note_on_c, 1, 63, 127
1, 104129, Note_off_c, 1, 76, 0
1, 104130, Note_on_c, 1, 75, 127
1, 104159, Note_off_c, 1, 66, 0
1, 104159, Note_off_c, 1, 47, 0
1, 104159, Note_off_c, 1, 63, 0
1, 104159, Note_off_c, 1, 75, 0
1, 104160, Note_on_c, 1, 73, 127
1, 104160, Note_on_c, 1, 67, 127
1, 104160, Note_on_c, 1, 59, 127
1, 104189, Note_off_c, 1, 73, 0
1, 104190, Note_on_c, 1, 71, 127
1, 104219, Note_off_c, 1, 59, 0
1, 104219, Note_off_c, 1, 71, 0
1, 104220, Note_on_c, 1, 76, 127
1, 104220, Note_on_c, 1, 64, 127
1, 104279, Note_off_c, 1, 67, 0
1, 104279, Note_off_c, 1, 64, 0
1, 104280, Note_on_c, 1, 66, 127
1, 104309, Note_off_c, 1, 66, 0
1, 104340, Note_on_c, 1, 47, 127
1, 104399, Note_off_c, 1, 76, 0
1, 104399, Note_off_c, 1, 47, 0
1, 104400, Note_on_c, 1, 74, 127
1, 104400, Note_on_c, 1, 70, 127
1, 104400, Note_on_c, 1, 59, 127
1, 104400, Note_on_c, 1, 62, 127
1, 104429, Note_off_c, 1, 74, 0
1, 104430, Note_on_c, 1, 73, 127
1, 104459, Note_off_c, 1, 70, 0
1, 104459, Note_off_c, 1, 59, 0
1, 104459, Note_off_c, 1, 62, 0
1, 104459, Note_off_c, 1, 73, 0
1, 104460, Note_on_c, 1, 74, 127
1, 104460, Note_on_c, 1, 71, 127
1, 104460, Note_on_c, 1, 47, 127
1, 104460, Note_on_c, 1, 62, 127
1, 104460, Note_on_c, 1, 66, 127
1, 104489, Note_off_c, 1, 74, 0
1, 104489, Note_off_c, 1, 47, 0
1, 104489, Note_off_c, 1, 62, 0
1, 104489, Note_off_c, 1, 66, 0
1, 104490, Note_on_c, 1, 73, 127
1, 104490, Note_on_c, 1, 45, 127
1, 104490, Note_on_c, 1, 61, 127
1, 104490, Note_on_c, 1, 64, 127
1, 104519, Note_off_c, 1, 71, 0
1, 104519, Note_off_c, 1, 73, 0
1, 104519, Note_off_c, 1, 45, 0
1, 104519, Note_off_c, 1, 61, 0
1, 104519, Note_off_c, 1, 64, 0
1, 104520, Note_on_c, 1, 71, 127
1, 104520, Note_on_c, 1, 74, 127
1, 104520, Note_on_c, 1, 44, 127
1, 104520, Note_on_c, 1, 59, 127
1, 104520, Note_on_c, 1, 62, 127
1, 104549, Note_off_c, 1, 71, 0
1, 104549, Note_off_c, 1, 44, 0
1, 104549, Note_off_c, 1, 59, 0
1, 104549, Note_off_c, 1, 62, 0
1, 104550, Note_on_c, 1, 69, 127
1, 104550, Note_on_c, 1, 42, 127
1, 104550, Note_on_c, 1, 57, 127
1, 104550, Note_on_c, 1, 61, 127
1, 104579, Note_off_c, 1, 69, 0
1, 104579, Note_off_c, 1, 42, 0
1, 104579, Note_off_c, 1, 57, 0
1, 104579, Note_off_c, 1, 61, 0
1, 104580, Note_on_c, 1, 68, 127
1, 104580, Note_on_c, 1, 41, 127
1, 104580, Note_on_c, 1, 65, 127
1, 104639, Note_off_c, 1, 74, 0
1, 104639, Note_off_c, 1, 68, 0
1, 104639, Note_off_c, 1, 41, 0
1, 104639, Note_off_c, 1, 65, 0
1, 104640, Note_on_c, 1, 73, 127
1, 104669, Note_off_c, 1, 73, 0
1, 104670, Note_on_c, 1, 77, 127
1, 104670, Note_on_c, 1, 71, 127
1, 104699, Note_off_c, 1, 77, 0
1, 104699, Note_off_c, 1, 71, 0
1, 104700, Note_on_c, 1, 80, 127
1, 104700, Note_on_c, 1, 69, 127
1, 104700, Note_on_c, 1, 49, 127
1, 104700, Note_on_c, 1, 65, 127
1, 104700, Note_on_c, 1, 68, 127
1, 104700, Note_on_c, 1, 71, 127
1, 104759, Note_off_c, 1, 69, 0
1, 104759, Note_off_c, 1, 49, 0
1, 104759, Note_off_c, 1, 65, 0
1, 104759, Note_off_c, 1, 68, 0
1, 104759, Note_off_c, 1, 71, 0
1, 104820, Note_on_c, 1, 54, 127
1, 104820, Note_on_c, 1, 61, 127
1, 104879, Note_off_c, 1, 80, 0
1, 104879, Note_off_c, 1, 54, 0
1, 104879, Note_off_c, 1, 61, 0
1, 104880, Note_on_c, 1, 78, 127
1, 104880, Note_on_c, 1, 71, 127
1, 104909, Note_off_c, 1, 78, 0
1, 104910, Note_on_c, 1, 77, 127
1, 104939, Note_off_c, 1, 71, 0
1, 104939, Note_off_c, 1, 77, 0
1, 104940, Note_on_c, 1, 78, 127
1, 104940, Note_on_c, 1, 73, 127
1, 104940, Note_on_c, 1, 45, 127
1, 104940, Note_on_c, 1, 66, 127
1, 104940, Note_on_c, 1, 61, 127
1, 104940, Note_on_c, 1, 69, 127
1, 104999, Note_off_c, 1, 78, 0
1, 104999, Note_off_c, 1, 73, 0
1, 104999, Note_off_c, 1, 45, 0
1, 104999, Note_off_c, 1, 66, 0
1, 104999, Note_off_c, 1, 61, 0
1, 104999, Note_off_c, 1, 69, 0
1, 105000, Note_on_c, 1, 65, 127
1, 105059, Note_off_c, 1, 65, 0
1, 105060, Note_on_c, 1, 66, 127
1, 105060, Note_on_c, 1, 50, 127
1, 105060, Note_on_c, 1, 71, 127
1, 105060, Note_on_c, 1, 62, 127
1, 105119, Note_off_c, 1, 66, 0
1, 105119, Note_off_c, 1, 50, 0
1, 105119, Note_off_c, 1, 71, 0
1, 105119, Note_off_c, 1, 62, 0
1, 105120, Note_on_c, 1, 71, 127
1, 105179, Note_off_c, 1, 71, 0
1, 105180, Note_on_c, 1, 69, 127
1, 105180, Note_on_c, 1, 47, 127
1, 105180, Note_on_c, 1, 66, 127
1, 105180, Note_on_c, 1, 62, 127
1, 105239, Note_off_c, 1, 69, 0
1, 105239, Note_off_c, 1, 47, 0
1, 105239, Note_off_c, 1, 66, 0
1, 105239, Note_off_c, 1, 62, 0
1, 105240, Note_on_c, 1, 68, 127
1, 105299, Note_off_c, 1, 68, 0
1, 105300, Note_on_c, 1, 65, 127
1, 105300, Note_on_c, 1, 66, 127
1, 105300, Note_on_c, 1, 49, 127
1, 105300, Note_on_c, 1, 61, 127
1, 105300, Note_on_c, 1, 68, 127
1, 105330, Note_on_c, 1, 73, 127
1, 105359, Note_off_c, 1, 65, 0
1, 105359, Note_off_c, 1, 66, 0
1, 105359, Note_off_c, 1, 49, 0
1, 105359, Note_off_c, 1, 61, 0
1, 105359, Note_off_c, 1, 68, 0
1, 105359, Note_off_c, 1, 73, 0
1, 105360, Note_on_c, 1, 83, 127
1, 105360, Note_on_c, 1, 65, 127
1, 105360, Note_on_c, 1, 56, 127
1, 105419, Note_off_c, 1, 65, 0
1, 105419, Note_off_c, 1, 56, 0
1, 105420, Note_on_c, 1, 53, 127
1, 105420, Note_on_c, 1, 61, 127
1, 105420, Note_on_c, 1, 71, 127
1, 105420, Note_on_c, 1, 68, 127
1, 105479, Note_off_c, 1, 83, 0
1, 105479, Note_off_c, 1, 53, 0
1, 105479, Note_off_c, 1, 61, 0
1, 105479, Note_off_c, 1, 71, 0
1, 105479, Note_off_c, 1, 68, 0
1, 105480, Note_on_c, 1, 81, 127
1, 105480, Note_on_c, 1, 49, 127
1, 105509, Note_off_c, 1, 81, 0
1, 105510, Note_on_c, 1, 80, 127
1, 105539, Note_off_c, 1, 49, 0
1, 105539, Note_off_c, 1, 80, 0
1, 105540, Note_on_c, 1, 81, 127
1, 105540, Note_on_c, 1, 73, 127
1, 105540, Note_on_c, 1, 54, 127
1, 105540, Note_on_c, 1, 69, 127
1, 105540, Note_on_c, 1, 66, 127
1, 105569, Note_off_c, 1, 81, 0
1, 105570, Note_on_c, 1, 80, 127
1, 105599, Note_off_c, 1, 73, 0
1, 105599, Note_off_c, 1, 54, 0
1, 105599, Note_off_c, 1, 69, 0
1, 105599, Note_off_c, 1, 66, 0
1, 105599, Note_off_c, 1, 80, 0
1, 105600, Note_on_c, 1, 78, 127
1, 105600, Note_on_c, 1, 74, 127
1, 105600, Note_on_c, 1, 42, 127
1, 105629, Note_off_c, 1, 78, 0
1, 105630, Note_on_c, 1, 81, 127
1, 105659, Note_off_c, 1, 42, 0
1, 105659, Note_off_c, 1, 81, 0
1, 105660, Note_on_c, 1, 80, 127
1, 105660, Note_on_c, 1, 71, 127
1, 105660, Note_on_c, 1, 62, 127
1, 105660, Note_on_c, 1, 68, 127
1, 105689, Note_off_c, 1, 80, 0
1, 105719, Note_off_c, 1, 74, 0
1, 105719, Note_off_c, 1, 71, 0
1, 105719, Note_off_c, 1, 62, 0
1, 105719, Note_off_c, 1, 68, 0
1, 105720, Note_on_c, 1, 69, 127
1, 105720, Note_on_c, 1, 73, 127
1, 105720, Note_on_c, 1, 42, 127
1, 105749, Note_off_c, 1, 69, 0
1, 105749, Note_off_c, 1, 73, 0
1, 105750, Note_on_c, 1, 68, 127
1, 105750, Note_on_c, 1, 71, 127
1, 105779, Note_off_c, 1, 42, 0
1, 105779, Note_off_c, 1, 68, 0
1, 105779, Note_off_c, 1, 71, 0
1, 105780, Note_on_c, 1, 69, 127
1, 105780, Note_on_c, 1, 73, 127
1, 105780, Note_on_c, 1, 54, 127
1, 105780, Note_on_c, 1, 66, 127
1, 105780, Note_on_c, 1, 61, 127
1, 105810, Note_on_c, 1, 71, 127
1, 105839, Note_off_c, 1, 69, 0
1, 105839, Note_off_c, 1, 73, 0
1, 105839, Note_off_c, 1, 54, 0
1, 105839, Note_off_c, 1, 66, 0
1, 105839, Note_off_c, 1, 61, 0
1, 105839, Note_off_c, 1, 71, 0
1, 105840, Note_on_c, 1, 73, 127
1, 105840, Note_on_c, 1, 69, 127
1, 105899, Note_off_c, 1, 73, 0
1, 105899, Note_off_c, 1, 69, 0
1, 105900, Note_on_c, 1, 66, 127
1, 105900, Note_on_c, 1, 57, 127
1, 105900, Note_on_c, 1, 61, 127
1, 105959, Note_off_c, 1, 66, 0
1, 105959, Note_off_c, 1, 57, 0
1, 105959, Note_off_c, 1, 61, 0
1, 105960, Note_on_c, 1, 78, 127
1, 105960, Note_on_c, 1, 69, 127
1, 106019, Note_off_c, 1, 78, 0
1, 106019, Note_off_c, 1, 69, 0
1, 106020, Note_on_c, 1, 77, 127
1, 106020, Note_on_c, 1, 68, 127
1, 106020, Note_on_c, 1, 61, 127
1, 106020, Note_on_c, 1, 65, 127
1, 106079, Note_off_c, 1, 77, 0
1, 106079, Note_off_c, 1, 68, 0
1, 106079, Note_off_c, 1, 61, 0
1, 106079, Note_off_c, 1, 65, 0
1, 106080, Note_on_c, 1, 78, 127
1, 106080, Note_on_c, 1, 69, 127
1, 106080, Note_on_c, 1, 49, 127
1, 106109, Note_off_c, 1, 69, 0
1, 106110, Note_on_c, 1, 71, 127
1, 106139, Note_off_c, 1, 49, 0
1, 106139, Note_off_c, 1, 71, 0
1, 106140, Note_on_c, 1, 66, 127
1, 106199, Note_off_c, 1, 78, 0
1, 106199, Note_off_c, 1, 66, 0
1, 106200, Note_on_c, 1, 80, 127
1, 106200, Note_on_c, 1, 66, 127
1, 106200, Note_on_c, 1, 49, 127
1, 106229, Note_off_c, 1, 80, 0
1, 106230, Note_on_c, 1, 81, 127
1, 106259, Note_off_c, 1, 66, 0
1, 106259, Note_off_c, 1, 49, 0
1, 106259, Note_off_c, 1, 81, 0
1, 106260, Note_on_c, 1, 80, 127
1, 106260, Note_on_c, 1, 65, 127
1, 106260, Note_on_c, 1, 61, 127
1, 106260, Note_on_c, 1, 68, 127
1, 106289, Note_off_c, 1, 80, 0
1, 106290, Note_on_c, 1, 78, 127
1, 106319, Note_off_c, 1, 65, 0
1, 106319, Note_off_c, 1, 61, 0
1, 106319, Note_off_c, 1, 68, 0
1, 106319, Note_off_c, 1, 78, 0
1, 106320, Note_on_c, 1, 77, 127
1, 106320, Note_on_c, 1, 68, 127
1, 106320, Note_on_c, 1, 56, 127
1, 106349, Note_off_c, 1, 77, 0
1, 106350, Note_on_c, 1, 75, 127
1, 106379, Note_off_c, 1, 68, 0
1, 106379, Note_off_c, 1, 56, 0
1, 106379, Note_off_c, 1, 75, 0
1, 106380, Note_on_c, 1, 73, 127
1, 106380, Note_on_c, 1, 71, 127
1, 106380, Note_on_c, 1, 53, 127
1, 106380, Note_on_c, 1, 61, 127
1, 106439, Note_off_c, 1, 73, 0
1, 106439, Note_off_c, 1, 71, 0
1, 106439, Note_off_c, 1, 53, 0
1, 106439, Note_off_c, 1, 61, 0
1, 106440, Note_on_c, 1, 62, 127
1, 106440, Note_on_c, 1, 56, 127
1, 106440, Note_on_c, 1, 66, 127
1, 106499, Note_off_c, 1, 56, 0
1, 106499, Note_off_c, 1, 66, 0
1, 106500, Note_on_c, 1, 68, 127
1, 106500, Note_on_c, 1, 49, 127
1, 106500, Note_on_c, 1, 59, 127
1, 106500, Note_on_c, 1, 65, 127
1, 106529, Note_off_c, 1, 68, 0
1, 106530, Note_on_c, 1, 77, 127
1, 106559, Note_off_c, 1, 62, 0
1, 106559, Note_off_c, 1, 49, 0
1, 106559, Note_off_c, 1, 59, 0
1, 106559, Note_off_c, 1, 65, 0
1, 106559, Note_off_c, 1, 77, 0
1, 106560, Note_on_c, 1, 86, 127
1, 106560, Note_on_c, 1, 61, 127
1, 106560, Note_on_c, 1, 68, 127
1, 106590, Note_off_c, 1, 68, 0
1, 106590, Note_on_c, 1, 69, 127
1, 106619, Note_off_c, 1, 61, 0
1, 106620, Note_off_c, 1, 69, 0
1, 106620, Note_on_c, 1, 71, 127
1, 106620, Note_on_c, 1, 53, 127
1, 106679, Note_off_c, 1, 86, 0
1, 106679, Note_off_c, 1, 71, 0
1, 106679, Note_off_c, 1, 53, 0
1, 106680, Note_on_c, 1, 85, 127
1, 106680, Note_on_c, 1, 69, 127
1, 106680, Note_on_c, 1, 73, 127
1, 106709, Note_off_c, 1, 85, 0
1, 106709, Note_off_c, 1, 69, 0
1, 106710, Note_on_c, 1, 83, 127
1, 106710, Note_on_c, 1, 68, 127
1, 106739, Note_off_c, 1, 83, 0
1, 106739, Note_off_c, 1, 68, 0
1, 106740, Note_on_c, 1, 81, 127
1, 106740, Note_on_c, 1, 54, 127
1, 106740, Note_on_c, 1, 66, 127
1, 106769, Note_off_c, 1, 73, 0
1, 106769, Note_off_c, 1, 81, 0
1, 106770, Note_on_c, 1, 80, 127
1, 106770, Note_on_c, 1, 71, 127
1, 106799, Note_off_c, 1, 54, 0
1, 106799, Note_off_c, 1, 66, 0
1, 106799, Note_off_c, 1, 80, 0
1, 106799, Note_off_c, 1, 71, 0
1, 106800, Note_on_c, 1, 78, 127
1, 106800, Note_on_c, 1, 69, 127
1, 106800, Note_on_c, 1, 56, 127
1, 106800, Note_on_c, 1, 63, 127
1, 106800, Note_on_c, 1, 68, 127
1, 106829, Note_off_c, 1, 78, 0
1, 106829, Note_off_c, 1, 69, 0
1, 106830, Note_on_c, 1, 77, 127
1, 106859, Note_off_c, 1, 56, 0
1, 106859, Note_off_c, 1, 63, 0
1, 106859, Note_off_c, 1, 68, 0
1, 106859, Note_off_c, 1, 77, 0
1, 106860, Note_on_c, 1, 78, 127
1, 106860, Note_on_c, 1, 66, 127
1, 106860, Note_on_c, 1, 57, 127
1, 106860, Note_on_c, 1, 61, 127
1, 106889, Note_off_c, 1, 78, 0
1, 106890, Note_on_c, 1, 85, 127
1, 106919, Note_off_c, 1, 66, 0
1, 106919, Note_off_c, 1, 57, 0
1, 106919, Note_off_c, 1, 61, 0
1, 106919, Note_off_c, 1, 85, 0
1, 106920, Note_on_c, 1, 76, 127
1, 106920, Note_on_c, 1, 59, 127
1, 106920, Note_on_c, 1, 64, 127
1, 106979, Note_off_c, 1, 59, 0
1, 106979, Note_off_c, 1, 64, 0
1, 106980, Note_on_c, 1, 61, 127
1, 106980, Note_on_c, 1, 67, 127
1, 106980, Note_on_c, 1, 70, 127
1, 107039, Note_off_c, 1, 76, 0
1, 107039, Note_off_c, 1, 61, 0
1, 107039, Note_off_c, 1, 67, 0
1, 107039, Note_off_c, 1, 70, 0
1, 107040, Note_on_c, 1, 78, 127
1, 107040, Note_on_c, 1, 59, 127
1, 107040, Note_on_c, 1, 66, 127
1, 107069, Note_off_c, 1, 78, 0
1, 107070, Note_on_c, 1, 79, 127
1, 107099, Note_off_c, 1, 59, 0
1, 107099, Note_off_c, 1, 66, 0
1, 107099, Note_off_c, 1, 79, 0
1, 107100, Note_on_c, 1, 78, 127
1, 107100, Note_on_c, 1, 73, 127
1, 107100, Note_on_c, 1, 58, 127
1, 107100, Note_on_c, 1, 64, 127
1, 107100, Note_on_c, 1, 66, 127
1, 107159, Note_off_c, 1, 78, 0
1, 107159, Note_off_c, 1, 58, 0
1, 107159, Note_off_c, 1, 64, 0
1, 107159, Note_off_c, 1, 66, 0
1, 107160, Note_on_c, 1, 76, 127
1, 107160, Note_on_c, 1, 54, 127
1, 107219, Note_off_c, 1, 76, 0
1, 107219, Note_off_c, 1, 54, 0
1, 107220, Note_on_c, 1, 82, 127
1, 107220, Note_on_c, 1, 59, 127
1, 107220, Note_on_c, 1, 62, 127
1, 107279, Note_off_c, 1, 73, 0
1, 107279, Note_off_c, 1, 82, 0
1, 107279, Note_off_c, 1, 59, 0
1, 107279, Note_off_c, 1, 62, 0
1, 107280, Note_on_c, 1, 83, 127
1, 107280, Note_on_c, 1, 74, 127
1, 107280, Note_on_c, 1, 71, 127
1, 107309, Note_off_c, 1, 74, 0
1, 107310, Note_on_c, 1, 76, 127
1, 107339, Note_off_c, 1, 83, 0
1, 107339, Note_off_c, 1, 71, 0
1, 107339, Note_off_c, 1, 76, 0
1, 107340, Note_on_c, 1, 71, 127
1, 107340, Note_on_c, 1, 74, 127
1, 107340, Note_on_c, 1, 57, 127
1, 107340, Note_on_c, 1, 62, 127
1, 107340, Note_on_c, 1, 66, 127
1, 107399, Note_off_c, 1, 71, 0
1, 107399, Note_off_c, 1, 74, 0
1, 107399, Note_off_c, 1, 57, 0
1, 107399, Note_off_c, 1, 62, 0
1, 107399, Note_off_c, 1, 66, 0
1, 107400, Note_on_c, 1, 73, 127
1, 107400, Note_on_c, 1, 70, 127
1, 107459, Note_off_c, 1, 73, 0
1, 107459, Note_off_c, 1, 70, 0
1, 107460, Note_on_c, 1, 74, 127
1, 107460, Note_on_c, 1, 71, 127
1, 107460, Note_on_c, 1, 56, 127
1, 107460, Note_on_c, 1, 64, 127
1, 107460, Note_on_c, 1, 62, 127
1, 107460, Note_on_c, 1, 68, 127
1, 107519, Note_off_c, 1, 74, 0
1, 107519, Note_off_c, 1, 56, 0
1, 107519, Note_off_c, 1, 64, 0
1, 107519, Note_off_c, 1, 62, 0
1, 107519, Note_off_c, 1, 68, 0
1, 107520, Note_on_c, 1, 76, 127
1, 107549, Note_off_c, 1, 76, 0
1, 107580, Note_on_c, 1, 73, 127
1, 107580, Note_on_c, 1, 52, 127
1, 107639, Note_off_c, 1, 73, 0
1, 107639, Note_off_c, 1, 52, 0
1, 107700, Note_on_c, 1, 80, 127
1, 107700, Note_on_c, 1, 57, 127
1, 107700, Note_on_c, 1, 61, 127
1, 107759, Note_off_c, 1, 57, 0
1, 107759, Note_off_c, 1, 61, 0
1, 107760, Note_off_c, 1, 71, 0
1, 107760, Note_on_c, 1, 45, 127
1, 107760, Note_on_c, 1, 69, 127
1, 107819, Note_off_c, 1, 80, 0
1, 107819, Note_off_c, 1, 45, 0
1, 107819, Note_off_c, 1, 69, 0
1, 107820, Note_on_c, 1, 81, 127
1, 107820, Note_on_c, 1, 61, 127
1, 107820, Note_on_c, 1, 45, 127
1, 107820, Note_on_c, 1, 64, 127
1, 107879, Note_off_c, 1, 81, 0
1, 107879, Note_off_c, 1, 61, 0
1, 107879, Note_off_c, 1, 45, 0
1, 107879, Note_off_c, 1, 64, 0
1, 107880, Note_on_c, 1, 72, 127
1, 107880, Note_on_c, 1, 57, 127
1, 107880, Note_on_c, 1, 59, 127
1, 107880, Note_on_c, 1, 62, 127
1, 107939, Note_off_c, 1, 57, 0
1, 107939, Note_off_c, 1, 59, 0
1, 107939, Note_off_c, 1, 62, 0
1, 107940, Note_on_c, 1, 51, 127
1, 107940, Note_on_c, 1, 63, 127
1, 107999, Note_off_c, 1, 72, 0
1, 107999, Note_off_c, 1, 51, 0
1, 108000, Note_on_c, 1, 73, 127
1, 108029, Note_off_c, 1, 73, 0
1, 108030, Note_on_c, 1, 75, 127
1, 108059, Note_off_c, 1, 75, 0
1, 108180, Note_off_c, 1, 63, 0
1, 108180, Note_on_c, 1, 53, 127
1, 108180, Note_on_c, 1, 61, 127
1, 108180, Note_on_c, 1, 65, 127
1, 108239, Note_off_c, 1, 53, 0
1, 108239, Note_off_c, 1, 61, 0
1, 108239, Note_off_c, 1, 65, 0
1, 108240, Note_on_c, 1, 66, 127
1, 108240, Note_on_c, 1, 54, 127
1, 108299, Note_off_c, 1, 66, 0
1, 108299, Note_off_c, 1, 54, 0
1, 108300, Note_on_c, 1, 65, 127
1, 108300, Note_on_c, 1, 56, 127
1, 108300, Note_on_c, 1, 62, 127
1, 108359, Note_off_c, 1, 65, 0
1, 108359, Note_off_c, 1, 56, 0
1, 108359, Note_off_c, 1, 62, 0
1, 108360, Note_on_c, 1, 71, 127
1, 108360, Note_on_c, 1, 49, 127
1, 108419, Note_off_c, 1, 71, 0
1, 108419, Note_off_c, 1, 49, 0
1, 108420, Note_on_c, 1, 69, 127
1, 108420, Note_on_c, 1, 54, 127
1, 108420, Note_on_c, 1, 61, 127
1, 108420, Note_on_c, 1, 68, 127
1, 108479, Note_off_c, 1, 69, 0
1, 108479, Note_off_c, 1, 54, 0
1, 108479, Note_off_c, 1, 61, 0
1, 108479, Note_off_c, 1, 68, 0
1, 108480, Note_on_c, 1, 73, 127
1, 108480, Note_on_c, 1, 45, 127
1, 108480, Note_on_c, 1, 66, 127
1, 108480, Note_on_c, 1, 61, 127
1, 108509, Note_off_c, 1, 73, 0
1, 108510, Note_on_c, 1, 71, 127
1, 108539, Note_off_c, 1, 45, 0
1, 108539, Note_off_c, 1, 66, 0
1, 108539, Note_off_c, 1, 61, 0
1, 108539, Note_off_c, 1, 71, 0
1, 108540, Note_on_c, 1, 69, 127
1, 108540, Note_on_c, 1, 47, 127
1, 108540, Note_on_c, 1, 66, 127
1, 108599, Note_off_c, 1, 69, 0
1, 108599, Note_off_c, 1, 47, 0
1, 108599, Note_off_c, 1, 66, 0
1, 108600, Note_on_c, 1, 68, 127
1, 108600, Note_on_c, 1, 49, 127
1, 108600, Note_on_c, 1, 65, 127
1, 108659, Note_off_c, 1, 68, 0
1, 108659, Note_off_c, 1, 49, 0
1, 108659, Note_off_c, 1, 65, 0
1, 108660, Note_on_c, 1, 66, 127
1, 108660, Note_on_c, 1, 54, 127
1, 108660, Note_on_c, 1, 73, 127
1, 108719, Note_off_c, 1, 66, 0
1, 108719, Note_off_c, 1, 54, 0
1, 108719, Note_off_c, 1, 73, 0
1, 108720, Note_on_c, 1, 62, 127
1, 108720, Note_on_c, 1, 74, 127
1, 108780, Note_on_c, 1, 52, 127
1, 108780, Note_on_c, 1, 68, 127
1, 108839, Note_off_c, 1, 62, 0
1, 108839, Note_off_c, 1, 52, 0
1, 108839, Note_off_c, 1, 68, 0
1, 108840, Note_off_c, 1, 74, 0
1, 108840, Note_on_c, 1, 61, 127
1, 108840, Note_on_c, 1, 73, 127
1, 108900, Note_on_c, 1, 50, 127
1, 108959, Note_off_c, 1, 61, 0
1, 108959, Note_off_c, 1, 50, 0
1, 108960, Note_off_c, 1, 73, 0
1, 108960, Note_on_c, 1, 71, 127
1, 109019, Note_off_c, 1, 71, 0
1, 109020, Note_on_c, 1, 69, 127
1, 109020, Note_on_c, 1, 47, 127
1, 109020, Note_on_c, 1, 66, 127
1, 109079, Note_off_c, 1, 69, 0
1, 109079, Note_off_c, 1, 47, 0
1, 109079, Note_off_c, 1, 66, 0
1, 109080, Note_on_c, 1, 68, 127
1, 109139, Note_off_c, 1, 68, 0
1, 109140, Note_on_c, 1, 66, 127
1, 109140, Note_on_c, 1, 49, 127
1, 109140, Note_on_c, 1, 68, 127
1, 109199, Note_off_c, 1, 49, 0
1, 109199, Note_off_c, 1, 68, 0
1, 109200, Note_on_c, 1, 47, 127
1, 109200, Note_on_c, 1, 62, 127
1, 109259, Note_off_c, 1, 66, 0
1, 109259, Note_off_c, 1, 47, 0
1, 109259, Note_off_c, 1, 62, 0
1, 109260, Note_on_c, 1, 65, 127
1, 109260, Note_on_c, 1, 49, 127
1, 109260, Note_on_c, 1, 68, 127
1, 109319, Note_off_c, 1, 49, 0
1, 109319, Note_off_c, 1, 68, 0
1, 109320, Note_on_c, 1, 37, 127
1, 109320, Note_on_c, 1, 59, 127
1, 109350, Note_on_c, 1, 66, 127
1, 109379, Note_off_c, 1, 65, 0
1, 109379, Note_off_c, 1, 37, 0
1, 109379, Note_off_c, 1, 59, 0
1, 109379, Note_off_c, 1, 66, 0
1, 109380, Note_on_c, 1, 73, 127
1, 109380, Note_on_c, 1, 66, 127
1, 109380, Note_on_c, 1, 42, 127
1, 109380, Note_on_c, 1, 57, 127
1, 109380, Note_on_c, 1, 61, 127
1, 109439, Note_off_c, 1, 73, 0
1, 109439, Note_off_c, 1, 42, 0
1, 109439, Note_off_c, 1, 57, 0
1, 109439, Note_off_c, 1, 61, 0
1, 109440, Note_on_c, 1, 74, 127
1, 109499, Note_off_c, 1, 66, 0
1, 109500, Note_on_c, 1, 47, 127
1, 109500, Note_on_c, 1, 68, 127
1, 109500, Note_on_c, 1, 62, 127
1, 109559, Note_off_c, 1, 74, 0
1, 109559, Note_off_c, 1, 47, 0
1, 109559, Note_off_c, 1, 68, 0
1, 109559, Note_off_c, 1, 62, 0
1, 109560, Note_on_c, 1, 73, 127
1, 109589, Note_off_c, 1, 73, 0
1, 109590, Note_on_c, 1, 71, 127
1, 109619, Note_off_c, 1, 71, 0
1, 109620, Note_on_c, 1, 73, 127
1, 109620, Note_on_c, 1, 54, 127
1, 109620, Note_on_c, 1, 66, 127
1, 109620, Note_on_c, 1, 61, 127
1, 109679, Note_off_c, 1, 73, 0
1, 109679, Note_off_c, 1, 54, 0
1, 109679, Note_off_c, 1, 66, 0
1, 109679, Note_off_c, 1, 61, 0
1, 109680, Note_on_c, 1, 69, 127
1, 109739, Note_off_c, 1, 69, 0
1, 109740, Note_on_c, 1, 66, 127
1, 109740, Note_on_c, 1, 57, 127
1, 109740, Note_on_c, 1, 69, 127
1, 109799, Note_off_c, 1, 66, 0
1, 109799, Note_off_c, 1, 57, 0
1, 109799, Note_off_c, 1, 69, 0
1, 109800, Note_on_c, 1, 78, 127
1, 109859, Note_off_c, 1, 78, 0
1, 109860, Note_on_c, 1, 77, 127
1, 109860, Note_on_c, 1, 56, 127
1, 109860, Note_on_c, 1, 65, 127
1, 109860, Note_on_c, 1, 71, 127
1, 109919, Note_off_c, 1, 77, 0
1, 109919, Note_off_c, 1, 56, 0
1, 109919, Note_off_c, 1, 65, 0
1, 109919, Note_off_c, 1, 71, 0
1, 109920, Note_on_c, 1, 78, 127
1, 109980, Note_on_c, 1, 54, 127
1, 109980, Note_on_c, 1, 73, 127
1, 109980, Note_on_c, 1, 66, 127
1, 109980, Note_on_c, 1, 69, 127
1, 110039, Note_off_c, 1, 78, 0
1, 110039, Note_off_c, 1, 54, 0
1, 110039, Note_off_c, 1, 73, 0
1, 110039, Note_off_c, 1, 66, 0
1, 110039, Note_off_c, 1, 69, 0
1, 110040, Note_on_c, 1, 80, 127
1, 110069, Note_off_c, 1, 80, 0
1, 110070, Note_on_c, 1, 81, 127
1, 110099, Note_off_c, 1, 81, 0
1, 110100, Note_on_c, 1, 80, 127
1, 110100, Note_on_c, 1, 61, 127
1, 110100, Note_on_c, 1, 65, 127
1, 110100, Note_on_c, 1, 73, 127
1, 110100, Note_on_c, 1, 68, 127
1, 110129, Note_off_c, 1, 80, 0
1, 110130, Note_on_c, 1, 78, 127
1, 110159, Note_off_c, 1, 61, 0
1, 110159, Note_off_c, 1, 65, 0
1, 110159, Note_off_c, 1, 73, 0
1, 110159, Note_off_c, 1, 68, 0
1, 110159, Note_off_c, 1, 78, 0
1, 110160, Note_on_c, 1, 77, 127
1, 110189, Note_off_c, 1, 77, 0
1, 110190, Note_on_c, 1, 75, 127
1, 110219, Note_off_c, 1, 75, 0
1, 110220, Note_on_c, 1, 73, 127
1, 110220, Note_on_c, 1, 59, 127
1, 110220, Note_on_c, 1, 64, 127
1, 110279, Note_off_c, 1, 73, 0
1, 110279, Note_off_c, 1, 59, 0
1, 110279, Note_off_c, 1, 64, 0
1, 110280, Note_on_c, 1, 76, 127
1, 110340, Note_on_c, 1, 58, 127
1, 110340, Note_on_c, 1, 66, 127
1, 110340, Note_on_c, 1, 64, 127
1, 110399, Note_off_c, 1, 76, 0
1, 110399, Note_off_c, 1, 58, 0
1, 110399, Note_off_c, 1, 66, 0
1, 110399, Note_off_c, 1, 64, 0
1, 110400, Note_on_c, 1, 78, 127
1, 110400, Note_on_c, 1, 61, 127
1, 110400, Note_on_c, 1, 70, 127
1, 110429, Note_off_c, 1, 78, 0
1, 110430, Note_on_c, 1, 79, 127
1, 110459, Note_off_c, 1, 61, 0
1, 110459, Note_off_c, 1, 70, 0
1, 110459, Note_off_c, 1, 79, 0
1, 110460, Note_on_c, 1, 78, 127
1, 110460, Note_on_c, 1, 64, 127
1, 110460, Note_on_c, 1, 73, 127
1, 110460, Note_on_c, 1, 71, 127
1, 110519, Note_off_c, 1, 78, 0
1, 110519, Note_off_c, 1, 73, 0
1, 110519, Note_off_c, 1, 71, 0
1, 110520, Note_on_c, 1, 76, 127
1, 110580, Note_on_c, 1, 82, 127
1, 110580, Note_on_c, 1, 66, 127
1, 110580, Note_on_c, 1, 70, 127
1, 110639, Note_off_c, 1, 64, 0
1, 110639, Note_off_c, 1, 82, 0
1, 110639, Note_off_c, 1, 66, 0
1, 110639, Note_off_c, 1, 70, 0
1, 110640, Note_off_c, 1, 76, 0
1, 110640, Note_on_c, 1, 83, 127
1, 110640, Note_on_c, 1, 62, 127
1, 110669, Note_off_c, 1, 62, 0
1, 110670, Note_on_c, 1, 61, 127
1, 110699, Note_off_c, 1, 83, 0
1, 110699, Note_off_c, 1, 61, 0
1, 110700, Note_on_c, 1, 71, 127
1, 110700, Note_on_c, 1, 62, 127
1, 110700, Note_on_c, 1, 66, 127
1, 110729, Note_off_c, 1, 62, 0
1, 110730, Note_on_c, 1, 61, 127
1, 110730, Note_on_c, 1, 69, 127
1, 110759, Note_off_c, 1, 71, 0
1, 110759, Note_off_c, 1, 66, 0
1, 110759, Note_off_c, 1, 61, 0
1, 110759, Note_off_c, 1, 69, 0
1, 110760, Note_on_c, 1, 73, 127
1, 110760, Note_on_c, 1, 59, 127
1, 110760, Note_on_c, 1, 71, 127
1, 110789, Note_off_c, 1, 59, 0
1, 110789, Note_off_c, 1, 71, 0
1, 110790, Note_on_c, 1, 57, 127
1, 110819, Note_off_c, 1, 73, 0
1, 110819, Note_off_c, 1, 57, 0
1, 110820, Note_on_c, 1, 74, 127
1, 110820, Note_on_c, 1, 56, 127
1, 110820, Note_on_c, 1, 64, 127
1, 110879, Note_off_c, 1, 74, 0
1, 110879, Note_off_c, 1, 56, 0
1, 110879, Note_off_c, 1, 64, 0
1, 110880, Note_on_c, 1, 76, 127
1, 110880, Note_on_c, 1, 59, 127
1, 110880, Note_on_c, 1, 68, 127
1, 110909, Note_off_c, 1, 76, 0
1, 110910, Note_on_c, 1, 74, 127
1, 110939, Note_off_c, 1, 59, 0
1, 110939, Note_off_c, 1, 68, 0
1, 110939, Note_off_c, 1, 74, 0
1, 110940, Note_on_c, 1, 73, 127
1, 110940, Note_on_c, 1, 62, 127
1, 110940, Note_on_c, 1, 71, 127
1, 110999, Note_off_c, 1, 73, 0
1, 110999, Note_off_c, 1, 71, 0
1, 111000, Note_on_c, 1, 74, 127
1, 111060, Note_on_c, 1, 80, 127
1, 111060, Note_on_c, 1, 64, 127
1, 111060, Note_on_c, 1, 68, 127
1, 111119, Note_off_c, 1, 62, 0
1, 111119, Note_off_c, 1, 64, 0
1, 111119, Note_off_c, 1, 68, 0
1, 111120, Note_off_c, 1, 74, 0
1, 111120, Note_on_c, 1, 61, 127
1, 111149, Note_off_c, 1, 61, 0
1, 111150, Note_on_c, 1, 59, 127
1, 111179, Note_off_c, 1, 80, 0
1, 111179, Note_off_c, 1, 59, 0
1, 111180, Note_on_c, 1, 81, 127
1, 111180, Note_on_c, 1, 61, 127
1, 111180, Note_on_c, 1, 69, 127
1, 111209, Note_off_c, 1, 81, 0
1, 111209, Note_off_c, 1, 61, 0
1, 111209, Note_off_c, 1, 69, 0
1, 111210, Note_on_c, 1, 68, 127
1, 111210, Note_on_c, 1, 59, 127
1, 111239, Note_off_c, 1, 68, 0
1, 111239, Note_off_c, 1, 59, 0
1, 111240, Note_on_c, 1, 66, 127
1, 111240, Note_on_c, 1, 57, 127
1, 111240, Note_on_c, 1, 69, 127
1, 111269, Note_off_c, 1, 66, 0
1, 111269, Note_off_c, 1, 57, 0
1, 111269, Note_off_c, 1, 69, 0
1, 111270, Note_on_c, 1, 64, 127
1, 111270, Note_on_c, 1, 56, 127
1, 111270, Note_on_c, 1, 71, 127
1, 111299, Note_off_c, 1, 64, 0
1, 111299, Note_off_c, 1, 56, 0
1, 111299, Note_off_c, 1, 71, 0
1, 111300, Note_on_c, 1, 63, 127
1, 111300, Note_on_c, 1, 54, 127
1, 111300, Note_on_c, 1, 69, 127
1, 111300, Note_on_c, 1, 61, 127
1, 111330, Note_on_c, 1, 66, 127
1, 111359, Note_off_c, 1, 66, 0
1, 111390, Note_on_c, 1, 72, 127
1, 111419, Note_off_c, 1, 63, 0
1, 111419, Note_off_c, 1, 54, 0
1, 111419, Note_off_c, 1, 69, 0
1, 111419, Note_off_c, 1, 61, 0
1, 111419, Note_off_c, 1, 72, 0
1, 111420, Note_on_c, 1, 78, 127
1, 111449, Note_off_c, 1, 78, 0
1, 111450, Note_on_c, 1, 69, 127
1, 111479, Note_off_c, 1, 69, 0
1, 111480, Note_on_c, 1, 68, 127
1, 111480, Note_on_c, 1, 59, 127
1, 111480, Note_on_c, 1, 62, 127
1, 111510, Note_on_c, 1, 66, 127
1, 111539, Note_off_c, 1, 68, 0
1, 111539, Note_off_c, 1, 59, 0
1, 111539, Note_off_c, 1, 62, 0
1, 111539, Note_off_c, 1, 66, 0
1, 111540, Note_on_c, 1, 65, 127
1, 111540, Note_on_c, 1, 56, 127
1, 111540, Note_on_c, 1, 62, 127
1, 111570, Note_on_c, 1, 68, 127
1, 111599, Note_off_c, 1, 68, 0
1, 111600, Note_on_c, 1, 71, 127
1, 111629, Note_off_c, 1, 71, 0
1, 111630, Note_on_c, 1, 74, 127
1, 111659, Note_off_c, 1, 65, 0
1, 111659, Note_off_c, 1, 56, 0
1, 111659, Note_off_c, 1, 62, 0
1, 111659, Note_off_c, 1, 74, 0
1, 111660, Note_on_c, 1, 80, 127
1, 111689, Note_off_c, 1, 80, 0
1, 111690, Note_on_c, 1, 74, 127
1, 111719, Note_off_c, 1, 74, 0
1, 111720, Note_on_c, 1, 73, 127
1, 111720, Note_on_c, 1, 53, 127
1, 111720, Note_on_c, 1, 68, 127
1, 111720, Note_on_c, 1, 71, 127
1, 111720, Note_on_c, 1, 61, 127
1, 111749, Note_off_c, 1, 73, 0
1, 111779, Note_off_c, 1, 53, 0
1, 111779, Note_off_c, 1, 68, 0
1, 111779, Note_off_c, 1, 71, 0
1, 111779, Note_off_c, 1, 61, 0
1, 111780, Note_on_c, 1, 69, 127
1, 111780, Note_on_c, 1, 54, 127
1, 111780, Note_on_c, 1, 68, 127
1, 111780, Note_on_c, 1, 73, 127
1, 111809, Note_off_c, 1, 69, 0
1, 111839, Note_off_c, 1, 54, 0
1, 111839, Note_off_c, 1, 68, 0
1, 111839, Note_off_c, 1, 73, 0
1, 111840, Note_on_c, 1, 78, 127
1, 111840, Note_on_c, 1, 50, 127
1, 111840, Note_on_c, 1, 66, 127
1, 111869, Note_off_c, 1, 78, 0
1, 111870, Note_on_c, 1, 80, 127
1, 111899, Note_off_c, 1, 50, 0
1, 111899, Note_off_c, 1, 66, 0
1, 111899, Note_off_c, 1, 80, 0
1, 111900, Note_on_c, 1, 81, 127
1, 111900, Note_on_c, 1, 47, 127
1, 111900, Note_on_c, 1, 69, 127
1, 111900, Note_on_c, 1, 66, 127
1, 111959, Note_off_c, 1, 81, 0
1, 111959, Note_off_c, 1, 47, 0
1, 111959, Note_off_c, 1, 69, 0
1, 111959, Note_off_c, 1, 66, 0
1, 111960, Note_on_c, 1, 80, 127
1, 111960, Note_on_c, 1, 49, 127
1, 111960, Note_on_c, 1, 71, 127
1, 111960, Note_on_c, 1, 68, 127
1, 111975, Note_off_c, 1, 80, 0
1, 111975, Note_on_c, 1, 81, 127
1, 111990, Note_off_c, 1, 81, 0
1, 112019, Note_off_c, 1, 49, 0
1, 112019, Note_off_c, 1, 71, 0
1, 112019, Note_off_c, 1, 68, 0
1, 112020, Note_on_c, 1, 78, 127
1, 112020, Note_on_c, 1, 42, 127
1, 112020, Note_on_c, 1, 69, 127
1, 112020, Note_on_c, 1, 73, 127
1, 112079, Note_off_c, 1, 78, 0
1, 112079, Note_off_c, 1, 42, 0
1, 112079, Note_off_c, 1, 69, 0
1, 112079, Note_off_c, 1, 73, 0
1, 112080, Note_on_c, 1, 76, 127
1, 112080, Note_on_c, 1, 54, 127
1, 112080, Note_on_c, 1, 66, 127
1, 112109, Note_off_c, 1, 76, 0
1, 112110, Note_on_c, 1, 74, 127
1, 112139, Note_off_c, 1, 54, 0
1, 112139, Note_off_c, 1, 66, 0
1, 112139, Note_off_c, 1, 74, 0
1, 112140, Note_on_c, 1, 73, 127
1, 112140, Note_on_c, 1, 57, 127
1, 112140, Note_on_c, 1, 66, 127
1, 112140, Note_on_c, 1, 69, 127
1, 112169, Note_off_c, 1, 73, 0
1, 112170, Note_on_c, 1, 71, 127
1, 112199, Note_off_c, 1, 57, 0
1, 112199, Note_off_c, 1, 66, 0
1, 112199, Note_off_c, 1, 69, 0
1, 112199, Note_off_c, 1, 71, 0
1, 112200, Note_on_c, 1, 69, 127
1, 112200, Note_on_c, 1, 61, 127
1, 112200, Note_on_c, 1, 65, 127
1, 112200, Note_on_c, 1, 68, 127
1, 112229, Note_off_c, 1, 69, 0
1, 112259, Note_off_c, 1, 61, 0
1, 112259, Note_off_c, 1, 65, 0
1, 112259, Note_off_c, 1, 68, 0
1, 112260, Note_on_c, 1, 66, 127
1, 112260, Note_on_c, 1, 69, 127
1, 112260, Note_on_c, 1, 54, 127
1, 112260, Note_on_c, 1, 61, 127
1, 112319, Note_off_c, 1, 66, 0
1, 112319, Note_off_c, 1, 69, 0
1, 112319, Note_off_c, 1, 54, 0
1, 112319, Note_off_c, 1, 61, 0
1, 112320, Note_on_c, 1, 78, 127
1, 112320, Note_on_c, 1, 69, 127
1, 112349, Note_off_c, 1, 78, 0
1, 112349, Note_off_c, 1, 69, 0
1, 112350, Note_on_c, 1, 77, 127
1, 112350, Note_on_c, 1, 68, 127
1, 112379, Note_off_c, 1, 77, 0
1, 112379, Note_off_c, 1, 68, 0
1, 112380, Note_on_c, 1, 78, 127
1, 112380, Note_on_c, 1, 69, 127
1, 112380, Note_on_c, 1, 52, 127
1, 112380, Note_on_c, 1, 66, 127
1, 112380, Note_on_c, 1, 61, 127
1, 112439, Note_off_c, 1, 78, 0
1, 112439, Note_off_c, 1, 69, 0
1, 112439, Note_off_c, 1, 52, 0
1, 112439, Note_off_c, 1, 66, 0
1, 112439, Note_off_c, 1, 61, 0
1, 112440, Note_on_c, 1, 66, 127
1, 112440, Note_on_c, 1, 69, 127
1, 112469, Note_off_c, 1, 66, 0
1, 112470, Note_on_c, 1, 65, 127
1, 112499, Note_off_c, 1, 69, 0
1, 112499, Note_off_c, 1, 65, 0
1, 112500, Note_on_c, 1, 66, 127
1, 112500, Note_on_c, 1, 69, 127
1, 112500, Note_on_c, 1, 51, 127
1, 112500, Note_on_c, 1, 61, 127
1, 112530, Note_on_c, 1, 71, 127
1, 112559, Note_off_c, 1, 66, 0
1, 112559, Note_off_c, 1, 69, 0
1, 112559, Note_off_c, 1, 51, 0
1, 112559, Note_off_c, 1, 61, 0
1, 112559, Note_off_c, 1, 71, 0
1, 112560, Note_on_c, 1, 78, 127
1, 112560, Note_on_c, 1, 72, 127
1, 112560, Note_on_c, 1, 57, 127
1, 112589, Note_off_c, 1, 78, 0
1, 112590, Note_on_c, 1, 77, 127
1, 112619, Note_off_c, 1, 77, 0
1, 112620, Note_on_c, 1, 59, 127
1, 112620, Note_on_c, 1, 62, 127
1, 112620, Note_on_c, 1, 66, 127
1, 112679, Note_off_c, 1, 72, 0
1, 112679, Note_off_c, 1, 57, 0
1, 112679, Note_off_c, 1, 59, 0
1, 112679, Note_off_c, 1, 62, 0
1, 112679, Note_off_c, 1, 66, 0
1, 112680, Note_on_c, 1, 71, 127
1, 112680, Note_on_c, 1, 55, 127
1, 112709, Note_off_c, 1, 55, 0
1, 112710, Note_on_c, 1, 54, 127
1, 112739, Note_off_c, 1, 71, 0
1, 112739, Note_off_c, 1, 54, 0
1, 112740, Note_on_c, 1, 76, 127
1, 112740, Note_on_c, 1, 55, 127
1, 112740, Note_on_c, 1, 64, 127
1, 112740, Note_on_c, 1, 67, 127
1, 112799, Note_off_c, 1, 76, 0
1, 112799, Note_off_c, 1, 55, 0
1, 112799, Note_off_c, 1, 64, 0
1, 112799, Note_off_c, 1, 67, 0
1, 112800, Note_on_c, 1, 76, 127
1, 112800, Note_on_c, 1, 74, 127
1, 112800, Note_on_c, 1, 57, 127
1, 112829, Note_off_c, 1, 74, 0
1, 112830, Note_on_c, 1, 72, 127
1, 112859, Note_off_c, 1, 57, 0
1, 112859, Note_off_c, 1, 72, 0
1, 112860, Note_on_c, 1, 71, 127
1, 112860, Note_on_c, 1, 59, 127
1, 112860, Note_on_c, 1, 64, 127
1, 112919, Note_off_c, 1, 76, 0
1, 112919, Note_off_c, 1, 71, 0
1, 112919, Note_off_c, 1, 59, 0
1, 112919, Note_off_c, 1, 64, 0
1, 112920, Note_on_c, 1, 75, 127
1, 112920, Note_on_c, 1, 69, 127
1, 112920, Note_on_c, 1, 47, 127
1, 112920, Note_on_c, 1, 63, 127
1, 112979, Note_off_c, 1, 75, 0
1, 112979, Note_off_c, 1, 69, 0
1, 112979, Note_off_c, 1, 47, 0
1, 112979, Note_off_c, 1, 63, 0
1, 112980, Note_on_c, 1, 76, 127
1, 112980, Note_on_c, 1, 67, 127
1, 112980, Note_on_c, 1, 52, 127
1, 112980, Note_on_c, 1, 64, 127
1, 112980, Note_on_c, 1, 59, 127
1, 113039, Note_off_c, 1, 76, 0
1, 113039, Note_off_c, 1, 67, 0
1, 113039, Note_off_c, 1, 52, 0
1, 113039, Note_off_c, 1, 64, 0
1, 113039, Note_off_c, 1, 59, 0
1, 113040, Note_on_c, 1, 64, 127
1, 113040, Note_on_c, 1, 66, 127
1, 113040, Note_on_c, 1, 54, 127
1, 113069, Note_off_c, 1, 64, 0
1, 113070, Note_on_c, 1, 63, 127
1, 113099, Note_off_c, 1, 66, 0
1, 113099, Note_off_c, 1, 54, 0
1, 113099, Note_off_c, 1, 63, 0
1, 113100, Note_on_c, 1, 64, 127
1, 113100, Note_on_c, 1, 55, 127
1, 113100, Note_on_c, 1, 59, 127
1, 113159, Note_off_c, 1, 64, 0
1, 113159, Note_off_c, 1, 55, 0
1, 113159, Note_off_c, 1, 59, 0
1, 113160, Note_on_c, 1, 76, 127
1, 113160, Note_on_c, 1, 66, 127
1, 113160, Note_on_c, 1, 54, 127
1, 113189, Note_off_c, 1, 76, 0
1, 113190, Note_on_c, 1, 75, 127
1, 113219, Note_off_c, 1, 66, 0
1, 113219, Note_off_c, 1, 54, 0
1, 113219, Note_off_c, 1, 75, 0
1, 113220, Note_on_c, 1, 76, 127
1, 113220, Note_on_c, 1, 67, 127
1, 113220, Note_on_c, 1, 52, 127
1, 113220, Note_on_c, 1, 64, 127
1, 113279, Note_off_c, 1, 76, 0
1, 113279, Note_off_c, 1, 67, 0
1, 113279, Note_off_c, 1, 52, 0
1, 113279, Note_off_c, 1, 64, 0
1, 113280, Note_on_c, 1, 69, 127
1, 113280, Note_on_c, 1, 50, 127
1, 113309, Note_off_c, 1, 69, 0
1, 113310, Note_on_c, 1, 71, 127
1, 113339, Note_off_c, 1, 50, 0
1, 113339, Note_off_c, 1, 71, 0
1, 113340, Note_on_c, 1, 69, 127
1, 113340, Note_on_c, 1, 49, 127
1, 113340, Note_on_c, 1, 67, 127
1, 113399, Note_off_c, 1, 69, 0
1, 113399, Note_off_c, 1, 49, 0
1, 113399, Note_off_c, 1, 67, 0
1, 113400, Note_on_c, 1, 67, 127
1, 113400, Note_on_c, 1, 45, 127
1, 113459, Note_off_c, 1, 67, 0
1, 113459, Note_off_c, 1, 45, 0
1, 113460, Note_on_c, 1, 66, 127
1, 113460, Note_on_c, 1, 50, 127
1, 113460, Note_on_c, 1, 57, 127
1, 113519, Note_off_c, 1, 66, 0
1, 113519, Note_off_c, 1, 50, 0
1, 113519, Note_off_c, 1, 57, 0
1, 113520, Note_on_c, 1, 57, 127
1, 113520, Note_on_c, 1, 74, 127
1, 113520, Note_on_c, 1, 52, 127
1, 113549, Note_off_c, 1, 57, 0
1, 113550, Note_on_c, 1, 55, 127
1, 113579, Note_off_c, 1, 52, 0
1, 113579, Note_off_c, 1, 55, 0
1, 113580, Note_on_c, 1, 54, 127
1, 113580, Note_on_c, 1, 66, 127
1, 113580, Note_on_c, 1, 62, 127
1, 113639, Note_off_c, 1, 74, 0
1, 113639, Note_off_c, 1, 54, 0
1, 113639, Note_off_c, 1, 66, 0
1, 113639, Note_off_c, 1, 62, 0
1, 113640, Note_on_c, 1, 69, 127
1, 113640, Note_on_c, 1, 73, 127
1, 113640, Note_on_c, 1, 52, 127
1, 113669, Note_off_c, 1, 69, 0
1, 113669, Note_off_c, 1, 73, 0
1, 113670, Note_on_c, 1, 67, 127
1, 113670, Note_on_c, 1, 71, 127
1, 113699, Note_off_c, 1, 52, 0
1, 113699, Note_off_c, 1, 67, 0
1, 113699, Note_off_c, 1, 71, 0
1, 113700, Note_on_c, 1, 69, 127
1, 113700, Note_on_c, 1, 54, 127
1, 113700, Note_on_c, 1, 62, 127
1, 113759, Note_off_c, 1, 69, 0
1, 113759, Note_off_c, 1, 54, 0
1, 113760, Note_on_c, 1, 67, 127
1, 113760, Note_on_c, 1, 55, 127
1, 113760, Note_on_c, 1, 64, 127
1, 113790, Note_on_c, 1, 61, 127
1, 113819, Note_off_c, 1, 67, 0
1, 113819, Note_off_c, 1, 55, 0
1, 113819, Note_off_c, 1, 64, 0
1, 113819, Note_off_c, 1, 61, 0
1, 113820, Note_on_c, 1, 66, 127
1, 113820, Note_on_c, 1, 57, 127
1, 113879, Note_off_c, 1, 66, 0
1, 113879, Note_off_c, 1, 57, 0
1, 113880, Note_off_c, 1, 62, 0
1, 113880, Note_on_c, 1, 74, 127
1, 113880, Note_on_c, 1, 45, 127
1, 113909, Note_off_c, 1, 74, 0
1, 113910, Note_on_c, 1, 73, 127
1, 113939, Note_off_c, 1, 45, 0
1, 113939, Note_off_c, 1, 73, 0
1, 113940, Note_on_c, 1, 74, 127
1, 113940, Note_on_c, 1, 66, 127
1, 113940, Note_on_c, 1, 50, 127
1, 113940, Note_on_c, 1, 62, 127
1, 113940, Note_on_c, 1, 57, 127
1, 113999, Note_off_c, 1, 66, 0
1, 113999, Note_off_c, 1, 50, 0
1, 113999, Note_off_c, 1, 62, 0
1, 113999, Note_off_c, 1, 57, 0
1, 114000, Note_on_c, 1, 64, 127
1, 114059, Note_off_c, 1, 74, 0
1, 114059, Note_off_c, 1, 64, 0
1, 114060, Note_on_c, 1, 62, 127
1, 114060, Note_on_c, 1, 49, 127
1, 114060, Note_on_c, 1, 66, 127
1, 114060, Note_on_c, 1, 69, 127
1, 114119, Note_off_c, 1, 62, 0
1, 114119, Note_off_c, 1, 49, 0
1, 114119, Note_off_c, 1, 66, 0
1, 114119, Note_off_c, 1, 69, 0
1, 114120, Note_on_c, 1, 64, 127
1, 114150, Note_on_c, 1, 62, 127
1, 114179, Note_off_c, 1, 64, 0
1, 114179, Note_off_c, 1, 62, 0
1, 114180, Note_on_c, 1, 64, 127
1, 114180, Note_on_c, 1, 66, 127
1, 114180, Note_on_c, 1, 47, 127
1, 114180, Note_on_c, 1, 62, 127
1, 114239, Note_off_c, 1, 64, 0
1, 114239, Note_off_c, 1, 66, 0
1, 114239, Note_off_c, 1, 47, 0
1, 114239, Note_off_c, 1, 62, 0
1, 114240, Note_on_c, 1, 62, 127
1, 114240, Note_on_c, 1, 68, 127
1, 114269, Note_off_c, 1, 62, 0
1, 114270, Note_on_c, 1, 61, 127
1, 114299, Note_off_c, 1, 68, 0
1, 114299, Note_off_c, 1, 61, 0
1, 114300, Note_on_c, 1, 62, 127
1, 114300, Note_on_c, 1, 68, 127
1, 114300, Note_on_c, 1, 40, 127
1, 114359, Note_off_c, 1, 62, 0
1, 114359, Note_off_c, 1, 68, 0
1, 114359, Note_off_c, 1, 40, 0
1, 114360, Note_on_c, 1, 61, 127
1, 114360, Note_on_c, 1, 69, 127
1, 114389, Note_off_c, 1, 61, 0
1, 114390, Note_on_c, 1, 59, 127
1, 114419, Note_off_c, 1, 69, 0
1, 114419, Note_off_c, 1, 59, 0
1, 114420, Note_on_c, 1, 61, 127
1, 114420, Note_on_c, 1, 69, 127
1, 114420, Note_on_c, 1, 45, 127
1, 114450, Note_on_c, 1, 64, 127
1, 114479, Note_off_c, 1, 61, 0
1, 114479, Note_off_c, 1, 45, 0
1, 114479, Note_off_c, 1, 64, 0
1, 114480, Note_on_c, 1, 47, 127
1, 114480, Note_on_c, 1, 62, 127
1, 114510, Note_on_c, 1, 73, 127
1, 114539, Note_off_c, 1, 69, 0
1, 114539, Note_off_c, 1, 47, 0
1, 114539, Note_off_c, 1, 62, 0
1, 114539, Note_off_c, 1, 73, 0
1, 114540, Note_on_c, 1, 76, 127
1, 114540, Note_on_c, 1, 49, 127
1, 114540, Note_on_c, 1, 64, 127
1, 114540, Note_on_c, 1, 67, 127
1, 114540, Note_on_c, 1, 69, 127
1, 114569, Note_off_c, 1, 76, 0
1, 114599, Note_off_c, 1, 49, 0
1, 114599, Note_off_c, 1, 64, 0
1, 114599, Note_off_c, 1, 67, 0
1, 114599, Note_off_c, 1, 69, 0
1, 114600, Note_on_c, 1, 66, 127
1, 114600, Note_on_c, 1, 50, 127
1, 114630, Note_on_c, 1, 74, 127
1, 114659, Note_off_c, 1, 66, 0
1, 114659, Note_off_c, 1, 50, 0
1, 114659, Note_off_c, 1, 74, 0
1, 114660, Note_on_c, 1, 73, 127
1, 114660, Note_on_c, 1, 64, 127
1, 114660, Note_on_c, 1, 45, 127
1, 114660, Note_on_c, 1, 61, 127
1, 114719, Note_off_c, 1, 73, 0
1, 114719, Note_off_c, 1, 64, 0
1, 114719, Note_off_c, 1, 45, 0
1, 114719, Note_off_c, 1, 61, 0
1, 114720, Note_on_c, 1, 61, 127
1, 114720, Note_on_c, 1, 64, 127
1, 114749, Note_off_c, 1, 61, 0
1, 114749, Note_off_c, 1, 64, 0
1, 114750, Note_on_c, 1, 59, 127
1, 114750, Note_on_c, 1, 62, 127
1, 114779, Note_off_c, 1, 59, 0
1, 114779, Note_off_c, 1, 62, 0
1, 114780, Note_on_c, 1, 61, 127
1, 114780, Note_on_c, 1, 64, 127
1, 114780, Note_on_c, 1, 43, 127
1, 114839, Note_off_c, 1, 61, 0
1, 114839, Note_off_c, 1, 64, 0
1, 114839, Note_off_c, 1, 43, 0
1, 114840, Note_on_c, 1, 73, 127
1, 114840, Note_on_c, 1, 64, 127
1, 114869, Note_off_c, 1, 73, 0
1, 114870, Note_on_c, 1, 71, 127
1, 114899, Note_off_c, 1, 64, 0
1, 114899, Note_off_c, 1, 71, 0
1, 114900, Note_on_c, 1, 73, 127
1, 114900, Note_on_c, 1, 64, 127
1, 114900, Note_on_c, 1, 42, 127
1, 114900, Note_on_c, 1, 70, 127
1, 114959, Note_off_c, 1, 73, 0
1, 114959, Note_off_c, 1, 64, 0
1, 114959, Note_off_c, 1, 42, 0
1, 114959, Note_off_c, 1, 70, 0
1, 114960, Note_on_c, 1, 64, 127
1, 114960, Note_on_c, 1, 73, 127
1, 114989, Note_off_c, 1, 64, 0
1, 114990, Note_on_c, 1, 62, 127
1, 115019, Note_off_c, 1, 73, 0
1, 115019, Note_off_c, 1, 62, 0
1, 115020, Note_on_c, 1, 64, 127
1, 115020, Note_on_c, 1, 70, 127
1, 115020, Note_on_c, 1, 54, 127
1, 115020, Note_on_c, 1, 73, 127
1, 115079, Note_off_c, 1, 64, 0
1, 115079, Note_off_c, 1, 70, 0
1, 115079, Note_off_c, 1, 54, 0
1, 115079, Note_off_c, 1, 73, 0
1, 115080, Note_on_c, 1, 71, 127
1, 115080, Note_on_c, 1, 64, 127
1, 115109, Note_off_c, 1, 71, 0
1, 115110, Note_on_c, 1, 70, 127
1, 115139, Note_off_c, 1, 64, 0
1, 115139, Note_off_c, 1, 70, 0
1, 115140, Note_on_c, 1, 71, 127
1, 115140, Note_on_c, 1, 62, 127
1, 115140, Note_on_c, 1, 55, 127
1, 115199, Note_off_c, 1, 62, 0
1, 115199, Note_off_c, 1, 55, 0
1, 115200, Note_on_c, 1, 61, 127
1, 115200, Note_on_c, 1, 52, 127
1, 115200, Note_on_c, 1, 73, 127
1, 115259, Note_off_c, 1, 61, 0
1, 115259, Note_off_c, 1, 52, 0
1, 115259, Note_off_c, 1, 73, 0
1, 115260, Note_on_c, 1, 49, 127
1, 115260, Note_on_c, 1, 67, 127
1, 115260, Note_on_c, 1, 59, 127
1, 115319, Note_off_c, 1, 71, 0
1, 115319, Note_off_c, 1, 49, 0
1, 115319, Note_off_c, 1, 67, 0
1, 115319, Note_off_c, 1, 59, 0
1, 115320, Note_on_c, 1, 66, 127
1, 115320, Note_on_c, 1, 70, 127
1, 115320, Note_on_c, 1, 54, 127
1, 115320, Note_on_c, 1, 61, 127
1, 115349, Note_off_c, 1, 66, 0
1, 115350, Note_on_c, 1, 64, 127
1, 115379, Note_off_c, 1, 54, 0
1, 115379, Note_off_c, 1, 64, 0
1, 115380, Note_off_c, 1, 70, 0
1, 115380, Note_off_c, 1, 61, 0
1, 115380, Note_on_c, 1, 71, 127
1, 115380, Note_on_c, 1, 50, 127
1, 115380, Note_on_c, 1, 62, 127
1, 115439, Note_off_c, 1, 50, 0
1, 115440, Note_off_c, 1, 62, 0
1, 115440, Note_on_c, 1, 78, 127
1, 115440, Note_on_c, 1, 49, 127
1, 115469, Note_off_c, 1, 71, 0
1, 115469, Note_off_c, 1, 78, 0
1, 115470, Note_on_c, 1, 76, 127
1, 115470, Note_on_c, 1, 73, 127
1, 115499, Note_off_c, 1, 49, 0
1, 115499, Note_off_c, 1, 76, 0
1, 115499, Note_off_c, 1, 73, 0
1, 115500, Note_on_c, 1, 78, 127
1, 115500, Note_on_c, 1, 74, 127
1, 115500, Note_on_c, 1, 47, 127
1, 115500, Note_on_c, 1, 66, 127
1, 115500, Note_on_c, 1, 62, 127
1, 115559, Note_off_c, 1, 78, 0
1, 115559, Note_off_c, 1, 74, 0
1, 115559, Note_off_c, 1, 47, 0
1, 115560, Note_off_c, 1, 66, 0
1, 115560, Note_off_c, 1, 62, 0
1, 115560, Note_on_c, 1, 68, 127
1, 115560, Note_on_c, 1, 49, 127
1, 115589, Note_off_c, 1, 49, 0
1, 115590, Note_on_c, 1, 50, 127
1, 115619, Note_off_c, 1, 50, 0
1, 115620, Note_on_c, 1, 52, 127
1, 115620, Note_on_c, 1, 64, 127
1, 115679, Note_off_c, 1, 52, 0
1, 115680, Note_off_c, 1, 68, 0
1, 115680, Note_off_c, 1, 64, 0
1, 115680, Note_on_c, 1, 69, 127
1, 115709, Note_off_c, 1, 69, 0
1, 115710, Note_on_c, 1, 71, 127
1, 115739, Note_off_c, 1, 71, 0
1, 115740, Note_on_c, 1, 69, 127
1, 115740, Note_on_c, 1, 49, 127
1, 115740, Note_on_c, 1, 65, 127
1, 115740, Note_on_c, 1, 71, 127
1, 115799, Note_off_c, 1, 69, 0
1, 115799, Note_off_c, 1, 49, 0
1, 115800, Note_off_c, 1, 65, 0
1, 115800, Note_off_c, 1, 71, 0
1, 115800, Note_on_c, 1, 64, 127
1, 115800, Note_on_c, 1, 68, 127
1, 115800, Note_on_c, 1, 47, 127
1, 115829, Note_off_c, 1, 64, 0
1, 115830, Note_on_c, 1, 62, 127
1, 115859, Note_off_c, 1, 68, 0
1, 115859, Note_off_c, 1, 47, 0
1, 115859, Note_off_c, 1, 62, 0
1, 115860, Note_on_c, 1, 64, 127
1, 115860, Note_on_c, 1, 73, 127
1, 115860, Note_on_c, 1, 45, 127
1, 115860, Note_on_c, 1, 69, 127
1, 115919, Note_off_c, 1, 73, 0
1, 115919, Note_off_c, 1, 45, 0
1, 115920, Note_off_c, 1, 64, 0
1, 115920, Note_on_c, 1, 57, 127
1, 115950, Note_on_c, 1, 71, 127
1, 115979, Note_off_c, 1, 69, 0
1, 115979, Note_off_c, 1, 57, 0
1, 115979, Note_off_c, 1, 71, 0
1, 115980, Note_on_c, 1, 73, 127
1, 115980, Note_on_c, 1, 66, 127
1, 115980, Note_on_c, 1, 57, 127
1, 116039, Note_off_c, 1, 73, 0
1, 116039, Note_off_c, 1, 57, 0
1, 116040, Note_off_c, 1, 66, 0
1, 116040, Note_on_c, 1, 64, 127
1, 116100, Note_off_c, 1, 64, 0
1, 116100, Note_on_c, 1, 63, 127
1, 116100, Note_on_c, 1, 60, 127
1, 116160, Note_off_c, 1, 63, 0
1, 116160, Note_off_c, 1, 60, 0
1, 116160, Note_on_c, 1, 69, 127
1, 116160, Note_on_c, 1, 72, 127
1, 116189, Note_off_c, 1, 69, 0
1, 116219, Note_off_c, 1, 72, 0
1, 116220, Note_on_c, 1, 78, 127
1, 116220, Note_on_c, 1, 71, 127
1, 116220, Note_on_c, 1, 51, 127
1, 116220, Note_on_c, 1, 69, 127
1, 116220, Note_on_c, 1, 59, 127
1, 116249, Note_off_c, 1, 78, 0
1, 116279, Note_off_c, 1, 71, 0
1, 116279, Note_off_c, 1, 51, 0
1, 116280, Note_off_c, 1, 69, 0
1, 116280, Note_off_c, 1, 59, 0
1, 116280, Note_on_c, 1, 67, 127
1, 116280, Note_on_c, 1, 70, 127
1, 116309, Note_off_c, 1, 67, 0
1, 116310, Note_on_c, 1, 66, 127
1, 116339, Note_off_c, 1, 70, 0
1, 116339, Note_off_c, 1, 66, 0
1, 116340, Note_on_c, 1, 64, 127
1, 116340, Note_on_c, 1, 71, 127
1, 116340, Note_on_c, 1, 55, 127
1, 116370, Note_on_c, 1, 67, 127
1, 116399, Note_off_c, 1, 55, 0
1, 116399, Note_off_c, 1, 67, 0
1, 116400, Note_off_c, 1, 64, 0
1, 116429, Note_off_c, 1, 71, 0
1, 116430, Note_on_c, 1, 75, 127
1, 116459, Note_off_c, 1, 75, 0
1, 116460, Note_on_c, 1, 76, 127
1, 116460, Note_on_c, 1, 66, 127
1, 116460, Note_on_c, 1, 48, 127
1, 116460, Note_on_c, 1, 71, 127
1, 116460, Note_on_c, 1, 64, 127
1, 116489, Note_off_c, 1, 76, 0
1, 116519, Note_off_c, 1, 66, 0
1, 116519, Note_off_c, 1, 48, 0
1, 116520, Note_off_c, 1, 71, 0
1, 116520, Note_on_c, 1, 69, 127
1, 116549, Note_off_c, 1, 69, 0
1, 116550, Note_on_c, 1, 67, 127
1, 116579, Note_off_c, 1, 64, 0
1, 116579, Note_off_c, 1, 67, 0
1, 116580, Note_on_c, 1, 66, 127
1, 116580, Note_on_c, 1, 69, 127
1, 116580, Note_on_c, 1, 54, 127
1, 116580, Note_on_c, 1, 64, 127
1, 116609, Note_off_c, 1, 66, 0
1, 116639, Note_off_c, 1, 54, 0
1, 116640, Note_off_c, 1, 69, 0
1, 116640, Note_off_c, 1, 64, 0
1, 116640, Note_on_c, 1, 72, 127
1, 116640, Note_on_c, 1, 67, 127
1, 116669, Note_off_c, 1, 72, 0
1, 116670, Note_on_c, 1, 76, 127
1, 116699, Note_off_c, 1, 76, 0
1, 116700, Note_on_c, 1, 75, 127
1, 116700, Note_on_c, 1, 47, 127
1, 116700, Note_on_c, 1, 63, 127
1, 116729, Note_off_c, 1, 75, 0
1, 116759, Note_off_c, 1, 67, 0
1, 116759, Note_off_c, 1, 47, 0
1, 116760, Note_off_c, 1, 63, 0
1, 116760, Note_on_c, 1, 71, 127
1, 116789, Note_off_c, 1, 71, 0
1, 116820, Note_on_c, 1, 67, 127
1, 116820, Note_on_c, 1, 52, 127
1, 116820, Note_on_c, 1, 59, 127
1, 116850, Note_on_c, 1, 66, 127
1, 116879, Note_off_c, 1, 52, 0
1, 116879, Note_off_c, 1, 66, 0
1, 116880, Note_off_c, 1, 59, 0
1, 116880, Note_on_c, 1, 64, 127
1, 116880, Note_on_c, 1, 50, 127
1, 116939, Note_off_c, 1, 67, 0
1, 116939, Note_off_c, 1, 50, 0
1, 116940, Note_on_c, 1, 49, 127
1, 116940, Note_on_c, 1, 69, 127
1, 116999, Note_off_c, 1, 49, 0
1, 117000, Note_off_c, 1, 64, 0
1, 117000, Note_off_c, 1, 69, 0
1, 117000, Note_on_c, 1, 62, 127
1, 117000, Note_on_c, 1, 47, 127
1, 117059, Note_off_c, 1, 47, 0
1, 117060, Note_off_c, 1, 62, 0
1, 117060, Note_on_c, 1, 61, 127
1, 117060, Note_on_c, 1, 46, 127
1, 117119, Note_off_c, 1, 61, 0
1, 117119, Note_off_c, 1, 46, 0
1, 117120, Note_on_c, 1, 76, 127
1, 117120, Note_on_c, 1, 68, 127
1, 117149, Note_off_c, 1, 68, 0
1, 117150, Note_on_c, 1, 70, 127
1, 117179, Note_off_c, 1, 76, 0
1, 117179, Note_off_c, 1, 70, 0
1, 117180, Note_on_c, 1, 74, 127
1, 117180, Note_on_c, 1, 71, 127
1, 117180, Note_on_c, 1, 42, 127
1, 117180, Note_on_c, 1, 70, 127
1, 117180, Note_on_c, 1, 64, 127
1, 117239, Note_off_c, 1, 74, 0
1, 117239, Note_off_c, 1, 71, 0
1, 117239, Note_off_c, 1, 42, 0
1, 117240, Note_off_c, 1, 70, 0
1, 117240, Note_off_c, 1, 64, 0
1, 117240, Note_on_c, 1, 73, 127
1, 117299, Note_off_c, 1, 73, 0
1, 117300, Note_on_c, 1, 71, 127
1, 117300, Note_on_c, 1, 74, 127
1, 117300, Note_on_c, 1, 47, 127
1, 117300, Note_on_c, 1, 66, 127
1, 117329, Note_off_c, 1, 74, 0
1, 117330, Note_on_c, 1, 73, 127
1, 117359, Note_off_c, 1, 47, 0
1, 117359, Note_off_c, 1, 73, 0
1, 117360, Note_off_c, 1, 66, 0
1, 117360, Note_on_c, 1, 81, 127
1, 117360, Note_on_c, 1, 59, 127
1, 117419, Note_off_c, 1, 81, 0
1, 117419, Note_off_c, 1, 59, 0
1, 117420, Note_on_c, 1, 79, 127
1, 117479, Note_off_c, 1, 71, 0
1, 117479, Note_off_c, 1, 79, 0
1, 117480, Note_on_c, 1, 78, 127
1, 117480, Note_on_c, 1, 69, 127
1, 117480, Note_on_c, 1, 59, 127
1, 117480, Note_on_c, 1, 66, 127
1, 117539, Note_off_c, 1, 78, 0
1, 117539, Note_off_c, 1, 59, 0
1, 117540, Note_off_c, 1, 69, 0
1, 117540, Note_off_c, 1, 66, 0
1, 117540, Note_on_c, 1, 76, 127
1, 117540, Note_on_c, 1, 67, 127
1, 117540, Note_on_c, 1, 47, 127
1, 117540, Note_on_c, 1, 64, 127
1, 117599, Note_off_c, 1, 76, 0
1, 117599, Note_off_c, 1, 47, 0
1, 117600, Note_off_c, 1, 67, 0
1, 117600, Note_off_c, 1, 64, 0
1, 117600, Note_on_c, 1, 86, 127
1, 117600, Note_on_c, 1, 74, 127
1, 117659, Note_off_c, 1, 86, 0
1, 117660, Note_off_c, 1, 74, 0
1, 117660, Note_on_c, 1, 85, 127
1, 117660, Note_on_c, 1, 73, 127
1, 117719, Note_off_c, 1, 85, 0
1, 117720, Note_off_c, 1, 73, 0
1, 117720, Note_on_c, 1, 83, 127
1, 117720, Note_on_c, 1, 62, 127
1, 117720, Note_on_c, 1, 71, 127
1, 117779, Note_off_c, 1, 83, 0
1, 117779, Note_off_c, 1, 62, 0
1, 117780, Note_off_c, 1, 71, 0
1, 117780, Note_on_c, 1, 82, 127
1, 117780, Note_on_c, 1, 61, 127
1, 117780, Note_on_c, 1, 70, 127
1, 117839, Note_off_c, 1, 82, 0
1, 117839, Note_off_c, 1, 61, 0
1, 117899, Note_off_c, 1, 70, 0
1, 117900, Note_on_c, 1, 74, 127
1, 117900, Note_on_c, 1, 71, 127
1, 117900, Note_on_c, 1, 59, 127
1, 117900, Note_on_c, 1, 62, 127
1, 117959, Note_off_c, 1, 74, 0
1, 117959, Note_off_c, 1, 59, 0
1, 117960, Note_off_c, 1, 71, 0
1, 117960, Note_off_c, 1, 62, 0
1, 117960, Note_on_c, 1, 82, 127
1, 117960, Note_on_c, 1, 67, 127
1, 117960, Note_on_c, 1, 64, 127
1, 117960, Note_on_c, 1, 70, 127
1, 118019, Note_off_c, 1, 82, 0
1, 118019, Note_off_c, 1, 67, 0
1, 118020, Note_off_c, 1, 64, 0
1, 118020, Note_off_c, 1, 70, 0
1, 118020, Note_on_c, 1, 83, 127
1, 118020, Note_on_c, 1, 66, 127
1, 118020, Note_on_c, 1, 43, 127
1, 118079, Note_off_c, 1, 83, 0
1, 118140, Note_off_c, 1, 66, 0
1, 118140, Note_on_c, 1, 73, 127
1, 118140, Note_on_c, 1, 61, 127
1, 118199, Note_off_c, 1, 73, 0
1, 118199, Note_off_c, 1, 61, 0
1, 118259, Note_off_c, 1, 43, 0
1, 118260, Note_on_c, 1, 42, 127
1, 118260, Note_on_c, 1, 58, 127
1, 118319, Note_off_c, 1, 42, 0
1, 118319, Note_off_c, 1, 58, 0
1, 118320, Note_on_c, 1, 54, 127
1, 118349, Note_off_c, 1, 54, 0
1, 118350, Note_on_c, 1, 56, 127
1, 118350, Note_on_c, 1, 68, 127
1, 118379, Note_off_c, 1, 56, 0
1, 118379, Note_off_c, 1, 68, 0
1, 118380, Note_on_c, 1, 58, 127
1, 118380, Note_on_c, 1, 66, 127
1, 118439, Note_off_c, 1, 58, 0
1, 118439, Note_off_c, 1, 66, 0
1, 118440, Note_on_c, 1, 54, 127
1, 118440, Note_on_c, 1, 64, 127
1, 118499, Note_off_c, 1, 54, 0
1, 118499, Note_off_c, 1, 64, 0
1, 118500, Note_on_c, 1, 66, 127
1, 118500, Note_on_c, 1, 59, 127
1, 118500, Note_on_c, 1, 62, 127
1, 118559, Note_off_c, 1, 66, 0
1, 118559, Note_off_c, 1, 59, 0
1, 118559, Note_off_c, 1, 62, 0
1, 118560, Note_on_c, 1, 67, 127
1, 118620, Note_on_c, 1, 52, 127
1, 118620, Note_on_c, 1, 64, 127
1, 118679, Note_off_c, 1, 67, 0
1, 118679, Note_off_c, 1, 52, 0
1, 118679, Note_off_c, 1, 64, 0
1, 118680, Note_on_c, 1, 66, 127
1, 118709, Note_off_c, 1, 66, 0
1, 118710, Note_on_c, 1, 64, 127
1, 118739, Note_off_c, 1, 64, 0
1, 118740, Note_on_c, 1, 66, 127
1, 118740, Note_on_c, 1, 47, 127
1, 118740, Note_on_c, 1, 62, 127
1, 118799, Note_off_c, 1, 66, 0
1, 118799, Note_off_c, 1, 47, 0
1, 118799, Note_off_c, 1, 62, 0
1, 118800, Note_on_c, 1, 62, 127
1, 118859, Note_off_c, 1, 62, 0
1, 118860, Note_on_c, 1, 59, 127
1, 118860, Note_on_c, 1, 50, 127
1, 118860, Note_on_c, 1, 71, 127
1, 118860, Note_on_c, 1, 62, 127
1, 118919, Note_off_c, 1, 59, 0
1, 118919, Note_off_c, 1, 50, 0
1, 118919, Note_off_c, 1, 71, 0
1, 118919, Note_off_c, 1, 62, 0
1, 118920, Note_on_c, 1, 71, 127
1, 118979, Note_off_c, 1, 71, 0
1, 118980, Note_on_c, 1, 70, 127
1, 118980, Note_on_c, 1, 49, 127
1, 118980, Note_on_c, 1, 64, 127
1, 119039, Note_off_c, 1, 70, 0
1, 119039, Note_off_c, 1, 49, 0
1, 119039, Note_off_c, 1, 64, 0
1, 119040, Note_on_c, 1, 71, 127
1, 119100, Note_on_c, 1, 47, 127
1, 119100, Note_on_c, 1, 66, 127
1, 119159, Note_off_c, 1, 71, 0
1, 119159, Note_off_c, 1, 47, 0
1, 119159, Note_off_c, 1, 66, 0
1, 119160, Note_on_c, 1, 73, 127
1, 119189, Note_off_c, 1, 73, 0
1, 119190, Note_on_c, 1, 74, 127
1, 119219, Note_off_c, 1, 74, 0
1, 119220, Note_on_c, 1, 73, 127
1, 119220, Note_on_c, 1, 54, 127
1, 119220, Note_on_c, 1, 70, 127
1, 119249, Note_off_c, 1, 73, 0
1, 119250, Note_on_c, 1, 71, 127
1, 119279, Note_off_c, 1, 54, 0
1, 119279, Note_off_c, 1, 70, 0
1, 119279, Note_off_c, 1, 71, 0
1, 119280, Note_on_c, 1, 70, 127
1, 119280, Note_on_c, 1, 56, 127
1, 119280, Note_on_c, 1, 71, 127
1, 119280, Note_on_c, 1, 64, 127
1, 119309, Note_off_c, 1, 70, 0
1, 119310, Note_on_c, 1, 68, 127
1, 119339, Note_off_c, 1, 56, 0
1, 119339, Note_off_c, 1, 71, 0
1, 119339, Note_off_c, 1, 64, 0
1, 119339, Note_off_c, 1, 68, 0
1, 119340, Note_on_c, 1, 66, 127
1, 119340, Note_on_c, 1, 58, 127
1, 119340, Note_on_c, 1, 73, 127
1, 119369, Note_off_c, 1, 66, 0
1, 119370, Note_on_c, 1, 64, 127
1, 119399, Note_off_c, 1, 58, 0
1, 119399, Note_off_c, 1, 73, 0
1, 119399, Note_off_c, 1, 64, 0
1, 119400, Note_on_c, 1, 62, 127
1, 119400, Note_on_c, 1, 54, 127
1, 119400, Note_on_c, 1, 70, 127
1, 119429, Note_off_c, 1, 62, 0
1, 119430, Note_on_c, 1, 61, 127
1, 119459, Note_off_c, 1, 54, 0
1, 119459, Note_off_c, 1, 70, 0
1, 119459, Note_off_c, 1, 61, 0
1, 119460, Note_on_c, 1, 62, 127
1, 119460, Note_on_c, 1, 66, 127
1, 119460, Note_on_c, 1, 59, 127
1, 119460, Note_on_c, 1, 71, 127
1, 119519, Note_off_c, 1, 62, 0
1, 119519, Note_off_c, 1, 66, 0
1, 119519, Note_off_c, 1, 59, 0
1, 119519, Note_off_c, 1, 71, 0
1, 119520, Note_on_c, 1, 64, 127
1, 119520, Note_on_c, 1, 67, 127
1, 119520, Note_on_c, 1, 47, 127
1, 119579, Note_off_c, 1, 47, 0
1, 119639, Note_off_c, 1, 64, 0
1, 119639, Note_off_c, 1, 67, 0
1, 119640, Note_on_c, 1, 62, 127
1, 119640, Note_on_c, 1, 66, 127
1, 119640, Note_on_c, 1, 47, 127
1, 119669, Note_off_c, 1, 62, 0
1, 119669, Note_off_c, 1, 66, 0
1, 119670, Note_on_c, 1, 61, 127
1, 119670, Note_on_c, 1, 64, 127
1, 119699, Note_off_c, 1, 47, 0
1, 119699, Note_off_c, 1, 61, 0
1, 119699, Note_off_c, 1, 64, 0
1, 119700, Note_on_c, 1, 62, 127
1, 119700, Note_on_c, 1, 66, 127
1, 119700, Note_on_c, 1, 59, 127
1, 119759, Note_off_c, 1, 62, 0
1, 119759, Note_off_c, 1, 66, 0
1, 119759, Note_off_c, 1, 59, 0
1, 119760, Note_on_c, 1, 71, 127
1, 119760, Note_on_c, 1, 62, 127
1, 119760, Note_on_c, 1, 47, 127
1, 119789, Note_off_c, 1, 71, 0
1, 119789, Note_off_c, 1, 47, 0
1, 119790, Note_on_c, 1, 74, 127
1, 119790, Note_on_c, 1, 49, 127
1, 119819, Note_off_c, 1, 62, 0
1, 119819, Note_off_c, 1, 74, 0
1, 119819, Note_off_c, 1, 49, 0
1, 119820, Note_on_c, 1, 78, 127
1, 119820, Note_on_c, 1, 59, 127
1, 119820, Note_on_c, 1, 50, 127
1, 119820, Note_on_c, 1, 71, 127
1, 119820, Note_on_c, 1, 66, 127
1, 119879, Note_off_c, 1, 59, 0
1, 119879, Note_off_c, 1, 50, 0
1, 119879, Note_off_c, 1, 71, 0
1, 119879, Note_off_c, 1, 66, 0
1, 119880, Note_on_c, 1, 49, 127
1, 119909, Note_off_c, 1, 49, 0
1, 119940, Note_on_c, 1, 70, 127
1, 119940, Note_on_c, 1, 52, 127
1, 119940, Note_on_c, 1, 62, 127
1, 119940, Note_on_c, 1, 69, 127
1, 119940, Note_on_c, 1, 61, 127
1, 119999, Note_off_c, 1, 78, 0
1, 119999, Note_off_c, 1, 70, 0
1, 119999, Note_off_c, 1, 52, 0
1, 119999, Note_off_c, 1, 62, 0
1, 119999, Note_off_c, 1, 69, 0
1, 119999, Note_off_c, 1, 61, 0
1, 120000, Note_on_c, 1, 79, 127
1, 120000, Note_on_c, 1, 71, 127
1, 120000, Note_on_c, 1, 50, 127
1, 120000, Note_on_c, 1, 59, 127
1, 120029, Note_off_c, 1, 79, 0
1, 120030, Note_on_c, 1, 78, 127
1, 120059, Note_off_c, 1, 50, 0
1, 120059, Note_off_c, 1, 59, 0
1, 120059, Note_off_c, 1, 78, 0
1, 120060, Note_on_c, 1, 76, 127
1, 120060, Note_on_c, 1, 55, 127
1, 120060, Note_on_c, 1, 64, 127
1, 120060, Note_on_c, 1, 67, 127
1, 120089, Note_off_c, 1, 76, 0
1, 120090, Note_on_c, 1, 74, 127
1, 120119, Note_off_c, 1, 71, 0
1, 120119, Note_off_c, 1, 55, 0
1, 120119, Note_off_c, 1, 64, 0
1, 120119, Note_off_c, 1, 67, 0
1, 120119, Note_off_c, 1, 74, 0
1, 120120, Note_on_c, 1, 73, 127
1, 120120, Note_on_c, 1, 52, 127
1, 120120, Note_on_c, 1, 62, 127
1, 120149, Note_off_c, 1, 73, 0
1, 120150, Note_on_c, 1, 71, 127
1, 120150, Note_on_c, 1, 74, 127
1, 120179, Note_off_c, 1, 52, 0
1, 120179, Note_off_c, 1, 62, 0
1, 120179, Note_off_c, 1, 71, 0
1, 120179, Note_off_c, 1, 74, 0
1, 120180, Note_on_c, 1, 70, 127
1, 120180, Note_on_c, 1, 73, 127
1, 120180, Note_on_c, 1, 54, 127
1, 120180, Note_on_c, 1, 61, 127
1, 120239, Note_off_c, 1, 70, 0
1, 120239, Note_off_c, 1, 73, 0
1, 120239, Note_off_c, 1, 54, 0
1, 120239, Note_off_c, 1, 61, 0
1, 120240, Note_on_c, 1, 78, 127
1, 120240, Note_on_c, 1, 70, 127
1, 120299, Note_off_c, 1, 78, 0
1, 120299, Note_off_c, 1, 70, 0
1, 120300, Note_on_c, 1, 66, 127
1, 120300, Note_on_c, 1, 52, 127
1, 120300, Note_on_c, 1, 58, 127
1, 120359, Note_off_c, 1, 66, 0
1, 120359, Note_off_c, 1, 52, 0
1, 120359, Note_off_c, 1, 58, 0
1, 120360, Note_on_c, 1, 69, 127
1, 120420, Note_on_c, 1, 51, 127
1, 120420, Note_on_c, 1, 59, 127
1, 120420, Note_on_c, 1, 57, 127
1, 120479, Note_off_c, 1, 69, 0
1, 120479, Note_off_c, 1, 51, 0
1, 120479, Note_off_c, 1, 59, 0
1, 120479, Note_off_c, 1, 57, 0
1, 120480, Note_on_c, 1, 71, 127
1, 120480, Note_on_c, 1, 54, 127
1, 120509, Note_off_c, 1, 71, 0
1, 120510, Note_on_c, 1, 72, 127
1, 120539, Note_off_c, 1, 54, 0
1, 120539, Note_off_c, 1, 72, 0
1, 120540, Note_on_c, 1, 78, 127
1, 120540, Note_on_c, 1, 71, 127
1, 120540, Note_on_c, 1, 57, 127
1, 120540, Note_on_c, 1, 63, 127
1, 120599, Note_off_c, 1, 71, 0
1, 120599, Note_off_c, 1, 63, 0
1, 120600, Note_on_c, 1, 69, 127
1, 120600, Note_on_c, 1, 66, 127
1, 120600, Note_on_c, 1, 64, 127
1, 120659, Note_off_c, 1, 69, 0
1, 120659, Note_off_c, 1, 66, 0
1, 120659, Note_off_c, 1, 64, 0
1, 120660, Note_on_c, 1, 75, 127
1, 120660, Note_on_c, 1, 59, 127
1, 120719, Note_off_c, 1, 78, 0
1, 120719, Note_off_c, 1, 57, 0
1, 120719, Note_off_c, 1, 75, 0
1, 120719, Note_off_c, 1, 59, 0
1, 120720, Note_on_c, 1, 79, 127
1, 120720, Note_on_c, 1, 76, 127
1, 120720, Note_on_c, 1, 55, 127
1, 120749, Note_off_c, 1, 79, 0
1, 120749, Note_off_c, 1, 55, 0
1, 120750, Note_on_c, 1, 81, 127
1, 120750, Note_on_c, 1, 54, 127
1, 120779, Note_off_c, 1, 76, 0
1, 120779, Note_off_c, 1, 81, 0
1, 120779, Note_off_c, 1, 54, 0
1, 120780, Note_on_c, 1, 79, 127
1, 120780, Note_on_c, 1, 64, 127
1, 120780, Note_on_c, 1, 52, 127
1, 120780, Note_on_c, 1, 67, 127
1, 120839, Note_off_c, 1, 79, 0
1, 120839, Note_off_c, 1, 64, 0
1, 120839, Note_off_c, 1, 52, 0
1, 120839, Note_off_c, 1, 67, 0
1, 120840, Note_on_c, 1, 78, 127
1, 120840, Note_on_c, 1, 66, 127
1, 120840, Note_on_c, 1, 50, 127
1, 120899, Note_off_c, 1, 78, 0
1, 120899, Note_off_c, 1, 66, 0
1, 120899, Note_off_c, 1, 50, 0
1, 120900, Note_on_c, 1, 78, 127
1, 120900, Note_on_c, 1, 67, 127
1, 120900, Note_on_c, 1, 49, 127
1, 120900, Note_on_c, 1, 69, 127
1, 120900, Note_on_c, 1, 57, 127
1, 120959, Note_off_c, 1, 67, 0
1, 120959, Note_off_c, 1, 49, 0
1, 120959, Note_off_c, 1, 69, 0
1, 120959, Note_off_c, 1, 57, 0
1, 120960, Note_on_c, 1, 61, 127
1, 120989, Note_off_c, 1, 61, 0
1, 120990, Note_on_c, 1, 59, 127
1, 121019, Note_off_c, 1, 78, 0
1, 121019, Note_off_c, 1, 59, 0
1, 121020, Note_on_c, 1, 76, 127
1, 121020, Note_on_c, 1, 66, 127
1, 121020, Note_on_c, 1, 57, 127
1, 121079, Note_off_c, 1, 66, 0
1, 121079, Note_off_c, 1, 57, 0
1, 121080, Note_on_c, 1, 64, 127
1, 121080, Note_on_c, 1, 55, 127
1, 121139, Note_off_c, 1, 64, 0
1, 121139, Note_off_c, 1, 55, 0
1, 121140, Note_on_c, 1, 73, 127
1, 121140, Note_on_c, 1, 54, 127
1, 121140, Note_on_c, 1, 67, 127
1, 121140, Note_on_c, 1, 61, 127
1, 121199, Note_off_c, 1, 76, 0
1, 121199, Note_off_c, 1, 54, 0
1, 121199, Note_off_c, 1, 67, 0
1, 121199, Note_off_c, 1, 61, 0
1, 121200, Note_on_c, 1, 78, 127
1, 121200, Note_on_c, 1, 52, 127
1, 121229, Note_off_c, 1, 78, 0
1, 121230, Note_on_c, 1, 79, 127
1, 121259, Note_off_c, 1, 73, 0
1, 121259, Note_off_c, 1, 52, 0
1, 121259, Note_off_c, 1, 79, 0
1, 121260, Note_on_c, 1, 78, 127
1, 121260, Note_on_c, 1, 74, 127
1, 121260, Note_on_c, 1, 50, 127
1, 121260, Note_on_c, 1, 66, 127
1, 121260, Note_on_c, 1, 62, 127
1, 121319, Note_off_c, 1, 78, 0
1, 121319, Note_off_c, 1, 74, 0
1, 121319, Note_off_c, 1, 50, 0
1, 121319, Note_off_c, 1, 66, 0
1, 121319, Note_off_c, 1, 62, 0
1, 121320, Note_on_c, 1, 76, 127
1, 121320, Note_on_c, 1, 68, 127
1, 121320, Note_on_c, 1, 49, 127
1, 121379, Note_off_c, 1, 76, 0
1, 121379, Note_off_c, 1, 49, 0
1, 121380, Note_on_c, 1, 47, 127
1, 121380, Note_on_c, 1, 64, 127
1, 121439, Note_off_c, 1, 68, 0
1, 121439, Note_off_c, 1, 47, 0
1, 121439, Note_off_c, 1, 64, 0
1, 121440, Note_on_c, 1, 69, 127
1, 121469, Note_off_c, 1, 69, 0
1, 121470, Note_on_c, 1, 71, 127
1, 121499, Note_off_c, 1, 71, 0
1, 121500, Note_on_c, 1, 74, 127
1, 121500, Note_on_c, 1, 69, 127
1, 121500, Note_on_c, 1, 52, 127
1, 121500, Note_on_c, 1, 68, 127
1, 121500, Note_on_c, 1, 62, 127
1, 121559, Note_off_c, 1, 69, 0
1, 121559, Note_off_c, 1, 52, 0
1, 121559, Note_off_c, 1, 68, 0
1, 121559, Note_off_c, 1, 62, 0
1, 121620, Note_on_c, 1, 45, 127
1, 121620, Note_on_c, 1, 64, 127
1, 121679, Note_off_c, 1, 74, 0
1, 121680, Note_on_c, 1, 73, 127
1, 121680, Note_on_c, 1, 61, 127
1, 121709, Note_off_c, 1, 73, 0
1, 121710, Note_on_c, 1, 71, 127
1, 121739, Note_off_c, 1, 45, 0
1, 121739, Note_off_c, 1, 64, 0
1, 121739, Note_off_c, 1, 61, 0
1, 121739, Note_off_c, 1, 71, 0
1, 121740, Note_on_c, 1, 69, 127
1, 121740, Note_on_c, 1, 61, 127
1, 121799, Note_off_c, 1, 69, 0
1, 121799, Note_off_c, 1, 61, 0
1, 121800, Note_on_c, 1, 67, 127
1, 121800, Note_on_c, 1, 49, 127
1, 121800, Note_on_c, 1, 69, 127
1, 121859, Note_off_c, 1, 67, 0
1, 121859, Note_off_c, 1, 49, 0
1, 121859, Note_off_c, 1, 69, 0
1, 121860, Note_on_c, 1, 66, 127
1, 121860, Note_on_c, 1, 50, 127
1, 121860, Note_on_c, 1, 76, 127
1, 121919, Note_off_c, 1, 66, 0
1, 121919, Note_off_c, 1, 50, 0
1, 121919, Note_off_c, 1, 76, 0
1, 121920, Note_on_c, 1, 69, 127
1, 121920, Note_on_c, 1, 42, 127
1, 121920, Note_on_c, 1, 74, 127
1, 121949, Note_off_c, 1, 69, 0
1, 121950, Note_on_c, 1, 67, 127
1, 121979, Note_off_c, 1, 42, 0
1, 121979, Note_off_c, 1, 74, 0
1, 121979, Note_off_c, 1, 67, 0
1, 121980, Note_on_c, 1, 66, 127
1, 121980, Note_on_c, 1, 43, 127
1, 121980, Note_on_c, 1, 74, 127
1, 122039, Note_off_c, 1, 66, 0
1, 122039, Note_off_c, 1, 43, 0
1, 122039, Note_off_c, 1, 74, 0
1, 122040, Note_on_c, 1, 64, 127
1, 122040, Note_on_c, 1, 45, 127
1, 122040, Note_on_c, 1, 73, 127
1, 122099, Note_off_c, 1, 64, 0
1, 122099, Note_off_c, 1, 45, 0
1, 122099, Note_off_c, 1, 73, 0
1, 122100, Note_on_c, 1, 62, 127
1, 122100, Note_on_c, 1, 50, 127
1, 122100, Note_on_c, 1, 74, 127
1, 122100, Note_on_c, 1, 66, 127
1, 122130, Note_on_c, 1, 69, 127
1, 122159, Note_off_c, 1, 50, 0
1, 122159, Note_off_c, 1, 74, 0
1, 122159, Note_off_c, 1, 66, 0
1, 122159, Note_off_c, 1, 69, 0
1, 122160, Note_on_c, 1, 78, 127
1, 122160, Note_on_c, 1, 38, 127
1, 122190, Note_on_c, 1, 64, 127
1, 122219, Note_off_c, 1, 38, 0
1, 122220, Note_off_c, 1, 62, 0
1, 122220, Note_off_c, 1, 64, 0
1, 122249, Note_off_c, 1, 78, 0
1, 122250, Note_on_c, 1, 76, 127
1, 122279, Note_off_c, 1, 76, 0
1, 122280, Note_on_c, 1, 74, 127
1, 122280, Note_on_c, 1, 52, 127
1, 122280, Note_on_c, 1, 73, 127
1, 122280, Note_on_c, 1, 67, 127
1, 122309, Note_off_c, 1, 74, 0
1, 122339, Note_off_c, 1, 52, 0
1, 122339, Note_off_c, 1, 73, 0
1, 122339, Note_off_c, 1, 67, 0
1, 122340, Note_on_c, 1, 74, 127
1, 122340, Note_on_c, 1, 69, 127
1, 122340, Note_on_c, 1, 54, 127
1, 122340, Note_on_c, 1, 66, 127
1, 122399, Note_off_c, 1, 74, 0
1, 122399, Note_off_c, 1, 69, 0
1, 122399, Note_off_c, 1, 54, 0
1, 122399, Note_off_c, 1, 66, 0
1, 122400, Note_on_c, 1, 62, 127
1, 122400, Note_on_c, 1, 71, 127
1, 122400, Note_on_c, 1, 55, 127
1, 122429, Note_off_c, 1, 62, 0
1, 122430, Note_on_c, 1, 61, 127
1, 122459, Note_off_c, 1, 61, 0
1, 122519, Note_off_c, 1, 71, 0
1, 122519, Note_off_c, 1, 55, 0
1, 122520, Note_on_c, 1, 74, 127
1, 122520, Note_on_c, 1, 69, 127
1, 122520, Note_on_c, 1, 54, 127
1, 122520, Note_on_c, 1, 66, 127
1, 122549, Note_off_c, 1, 74, 0
1, 122549, Note_off_c, 1, 69, 0
1, 122549, Note_off_c, 1, 54, 0
1, 122549, Note_off_c, 1, 66, 0
1, 122550, Note_on_c, 1, 73, 127
1, 122550, Note_on_c, 1, 67, 127
1, 122550, Note_on_c, 1, 52, 127
1, 122550, Note_on_c, 1, 64, 127
1, 122579, Note_off_c, 1, 73, 0
1, 122579, Note_off_c, 1, 67, 0
1, 122579, Note_off_c, 1, 52, 0
1, 122579, Note_off_c, 1, 64, 0
1, 122580, Note_on_c, 1, 74, 127
1, 122580, Note_on_c, 1, 69, 127
1, 122580, Note_on_c, 1, 54, 127
1, 122580, Note_on_c, 1, 66, 127
1, 122639, Note_off_c, 1, 74, 0
1, 122639, Note_off_c, 1, 69, 0
1, 122639, Note_off_c, 1, 54, 0
1, 122639, Note_off_c, 1, 66, 0
1, 122640, Note_on_c, 1, 64, 127
1, 122640, Note_on_c, 1, 73, 127
1, 122640, Note_on_c, 1, 55, 127
1, 122640, Note_on_c, 1, 67, 127
1, 122699, Note_off_c, 1, 64, 0
1, 122699, Note_off_c, 1, 73, 0
1, 122699, Note_off_c, 1, 55, 0
1, 122699, Note_off_c, 1, 67, 0
1, 122700, Note_on_c, 1, 69, 127
1, 122700, Note_on_c, 1, 74, 127
1, 122700, Note_on_c, 1, 54, 127
1, 122700, Note_on_c, 1, 62, 127
1, 122700, Note_on_c, 1, 66, 127
1, 122759, Note_off_c, 1, 69, 0
1, 122759, Note_off_c, 1, 74, 0
1, 122759, Note_off_c, 1, 54, 0
1, 122759, Note_off_c, 1, 62, 0
1, 122759, Note_off_c, 1, 66, 0
1, 122760, Note_on_c, 1, 67, 127
1, 122760, Note_on_c, 1, 72, 127
1, 122760, Note_on_c, 1, 52, 127
1, 122760, Note_on_c, 1, 60, 127
1, 122760, Note_on_c, 1, 64, 127
1, 122819, Note_off_c, 1, 67, 0
1, 122819, Note_off_c, 1, 72, 0
1, 122819, Note_off_c, 1, 52, 0
1, 122819, Note_off_c, 1, 60, 0
1, 122819, Note_off_c, 1, 64, 0
1, 122820, Note_on_c, 1, 66, 127
1, 122820, Note_on_c, 1, 71, 127
1, 122820, Note_on_c, 1, 51, 127
1, 122820, Note_on_c, 1, 59, 127
1, 122850, Note_on_c, 1, 69, 127
1, 122879, Note_off_c, 1, 66, 0
1, 122879, Note_off_c, 1, 71, 0
1, 122879, Note_off_c, 1, 51, 0
1, 122879, Note_off_c, 1, 59, 0
1, 122879, Note_off_c, 1, 69, 0
1, 122880, Note_on_c, 1, 72, 127
1, 122880, Note_on_c, 1, 69, 127
1, 122880, Note_on_c, 1, 59, 127
1, 122880, Note_on_c, 1, 63, 127
1, 122909, Note_off_c, 1, 72, 0
1, 122910, Note_on_c, 1, 75, 127
1, 122939, Note_off_c, 1, 59, 0
1, 122939, Note_off_c, 1, 75, 0
1, 122940, Note_on_c, 1, 78, 127
1, 123000, Note_on_c, 1, 67, 127
1, 123029, Note_off_c, 1, 67, 0
1, 123030, Note_on_c, 1, 66, 127
1, 123059, Note_off_c, 1, 66, 0
1, 123060, Note_off_c, 1, 69, 0
1, 123060, Note_off_c, 1, 63, 0
1, 123060, Note_on_c, 1, 52, 127
1, 123060, Note_on_c, 1, 64, 127
1, 123089, Note_off_c, 1, 78, 0
1, 123119, Note_off_c, 1, 52, 0
1, 123119, Note_off_c, 1, 64, 0
1, 123120, Note_on_c, 1, 67, 127
1, 123120, Note_on_c, 1, 63, 127
1, 123120, Note_on_c, 1, 59, 127
1, 123149, Note_off_c, 1, 67, 0
1, 123150, Note_on_c, 1, 66, 127
1, 123179, Note_off_c, 1, 63, 0
1, 123179, Note_off_c, 1, 59, 0
1, 123179, Note_off_c, 1, 66, 0
1, 123180, Note_on_c, 1, 64, 127
1, 123180, Note_on_c, 1, 55, 127
1, 123180, Note_on_c, 1, 67, 127
1, 123210, Note_on_c, 1, 62, 127
1, 123239, Note_off_c, 1, 64, 0
1, 123239, Note_off_c, 1, 55, 0
1, 123239, Note_off_c, 1, 67, 0
1, 123239, Note_off_c, 1, 62, 0
1, 123240, Note_on_c, 1, 61, 127
1, 123240, Note_on_c, 1, 67, 127
1, 123240, Note_on_c, 1, 52, 127
1, 123269, Note_off_c, 1, 61, 0
1, 123270, Note_on_c, 1, 59, 127
1, 123299, Note_off_c, 1, 52, 0
1, 123299, Note_off_c, 1, 59, 0
1, 123300, Note_on_c, 1, 58, 127
1, 123300, Note_on_c, 1, 49, 127
1, 123300, Note_on_c, 1, 70, 127
1, 123329, Note_off_c, 1, 58, 0
1, 123359, Note_off_c, 1, 67, 0
1, 123359, Note_off_c, 1, 49, 0
1, 123359, Note_off_c, 1, 70, 0
1, 123360, Note_on_c, 1, 64, 127
1, 123360, Note_on_c, 1, 66, 127
1, 123360, Note_on_c, 1, 46, 127
1, 123389, Note_off_c, 1, 64, 0
1, 123390, Note_on_c, 1, 67, 127
1, 123419, Note_off_c, 1, 66, 0
1, 123419, Note_off_c, 1, 46, 0
1, 123419, Note_off_c, 1, 67, 0
1, 123420, Note_on_c, 1, 73, 127
1, 123420, Note_on_c, 1, 64, 127
1, 123420, Note_on_c, 1, 42, 127
1, 123420, Note_on_c, 1, 70, 127
1, 123479, Note_off_c, 1, 64, 0
1, 123479, Note_off_c, 1, 42, 0
1, 123479, Note_off_c, 1, 70, 0
1, 123480, Note_on_c, 1, 62, 127
1, 123480, Note_on_c, 1, 46, 127
1, 123509, Note_off_c, 1, 62, 0
1, 123510, Note_on_c, 1, 61, 127
1, 123539, Note_off_c, 1, 46, 0
1, 123539, Note_off_c, 1, 61, 0
1, 123540, Note_on_c, 1, 47, 127
1, 123540, Note_on_c, 1, 66, 127
1, 123599, Note_off_c, 1, 73, 0
1, 123599, Note_off_c, 1, 47, 0
1, 123599, Note_off_c, 1, 66, 0
1, 123600, Note_on_c, 1, 71, 127
1, 123600, Note_on_c, 1, 66, 127
1, 123600, Note_on_c, 1, 49, 127
1, 123630, Note_on_c, 1, 70, 127
1, 123659, Note_off_c, 1, 71, 0
1, 123659, Note_off_c, 1, 66, 0
1, 123659, Note_off_c, 1, 49, 0
1, 123659, Note_off_c, 1, 70, 0
1, 123660, Note_on_c, 1, 71, 127
1, 123660, Note_on_c, 1, 59, 127
1, 123660, Note_on_c, 1, 50, 127
1, 123660, Note_on_c, 1, 66, 127
1, 123660, Note_on_c, 1, 62, 127
1, 123690, Note_on_c, 1, 78, 127
1, 123719, Note_off_c, 1, 71, 0
1, 123719, Note_off_c, 1, 59, 0
1, 123719, Note_off_c, 1, 50, 0
1, 123719, Note_off_c, 1, 66, 0
1, 123719, Note_off_c, 1, 62, 0
1, 123719, Note_off_c, 1, 78, 0
1, 123720, Note_on_c, 1, 69, 127
1, 123720, Note_on_c, 1, 52, 127
1, 123779, Note_off_c, 1, 52, 0
1, 123780, Note_on_c, 1, 54, 127
1, 123780, Note_on_c, 1, 72, 127
1, 123839, Note_off_c, 1, 69, 0
1, 123839, Note_off_c, 1, 54, 0
1, 123839, Note_off_c, 1, 72, 0
1, 123840, Note_on_c, 1, 71, 127
1, 123840, Note_on_c, 1, 52, 127
1, 123869, Note_off_c, 1, 71, 0
1, 123870, Note_on_c, 1, 72, 127
1, 123899, Note_off_c, 1, 52, 0
1, 123899, Note_off_c, 1, 72, 0
1, 123900, Note_on_c, 1, 71, 127
1, 123900, Note_on_c, 1, 66, 127
1, 123900, Note_on_c, 1, 51, 127
1, 123900, Note_on_c, 1, 69, 127
1, 123959, Note_off_c, 1, 71, 0
1, 123959, Note_off_c, 1, 51, 0
1, 123959, Note_off_c, 1, 69, 0
1, 123960, Note_on_c, 1, 47, 127
1, 124019, Note_off_c, 1, 47, 0
1, 124020, Note_on_c, 1, 75, 127
1, 124020, Note_on_c, 1, 52, 127
1, 124020, Note_on_c, 1, 67, 127
1, 124079, Note_off_c, 1, 66, 0
1, 124079, Note_off_c, 1, 75, 0
1, 124079, Note_off_c, 1, 52, 0
1, 124079, Note_off_c, 1, 67, 0
1, 124080, Note_on_c, 1, 76, 127
1, 124080, Note_on_c, 1, 67, 127
1, 124080, Note_on_c, 1, 64, 127
1, 124109, Note_off_c, 1, 67, 0
1, 124110, Note_on_c, 1, 69, 127
1, 124139, Note_off_c, 1, 76, 0
1, 124139, Note_off_c, 1, 64, 0
1, 124139, Note_off_c, 1, 69, 0
1, 124140, Note_on_c, 1, 64, 127
1, 124140, Note_on_c, 1, 67, 127
1, 124140, Note_on_c, 1, 50, 127
1, 124199, Note_off_c, 1, 64, 0
1, 124199, Note_off_c, 1, 67, 0
1, 124199, Note_off_c, 1, 50, 0
1, 124200, Note_on_c, 1, 66, 127
1, 124259, Note_off_c, 1, 66, 0
1, 124260, Note_on_c, 1, 67, 127
1, 124260, Note_on_c, 1, 64, 127
1, 124260, Note_on_c, 1, 49, 127
1, 124319, Note_off_c, 1, 67, 0
1, 124319, Note_off_c, 1, 49, 0
1, 124320, Note_on_c, 1, 69, 127
1, 124320, Note_on_c, 1, 47, 127
1, 124349, Note_off_c, 1, 69, 0
1, 124379, Note_off_c, 1, 47, 0
1, 124380, Note_on_c, 1, 66, 127
1, 124380, Note_on_c, 1, 46, 127
1, 124439, Note_off_c, 1, 66, 0
1, 124439, Note_off_c, 1, 46, 0
1, 124500, Note_on_c, 1, 73, 127
1, 124500, Note_on_c, 1, 42, 127
1, 124500, Note_on_c, 1, 70, 127
1, 124559, Note_off_c, 1, 42, 0
1, 124559, Note_off_c, 1, 70, 0
1, 124560, Note_off_c, 1, 64, 0
1, 124560, Note_on_c, 1, 52, 127
1, 124619, Note_off_c, 1, 73, 0
1, 124619, Note_off_c, 1, 52, 0
1, 124620, Note_on_c, 1, 74, 127
1, 124620, Note_on_c, 1, 71, 127
1, 124620, Note_on_c, 1, 50, 127
1, 124620, Note_on_c, 1, 66, 127
1, 124679, Note_off_c, 1, 74, 0
1, 124679, Note_off_c, 1, 71, 0
1, 124679, Note_off_c, 1, 50, 0
1, 124679, Note_off_c, 1, 66, 0
1, 124680, Note_on_c, 1, 65, 127
1, 124680, Note_on_c, 1, 74, 127
1, 124680, Note_on_c, 1, 47, 127
1, 124739, Note_off_c, 1, 74, 0
1, 124739, Note_off_c, 1, 47, 0
1, 124740, Note_on_c, 1, 44, 127
1, 124740, Note_on_c, 1, 62, 127
1, 124799, Note_off_c, 1, 44, 0
1, 124800, Note_on_c, 1, 66, 127
1, 124829, Note_off_c, 1, 66, 0
1, 124830, Note_on_c, 1, 68, 127
1, 124859, Note_off_c, 1, 68, 0
1, 124980, Note_off_c, 1, 65, 0
1, 124980, Note_off_c, 1, 62, 0
1, 124980, Note_on_c, 1, 46, 127
1, 124980, Note_on_c, 1, 61, 127
1, 124980, Note_on_c, 1, 64, 127
1, 125010, Note_on_c, 1, 70, 127
1, 125039, Note_off_c, 1, 46, 0
1, 125039, Note_off_c, 1, 61, 0
1, 125039, Note_off_c, 1, 64, 0
1, 125040, Note_off_c, 1, 70, 0
1, 125040, Note_on_c, 1, 73, 127
1, 125040, Note_on_c, 1, 42, 127
1, 125070, Note_off_c, 1, 73, 0
1, 125070, Note_on_c, 1, 76, 127
1, 125099, Note_off_c, 1, 42, 0
1, 125100, Note_off_c, 1, 76, 0
1, 125100, Note_on_c, 1, 54, 127
1, 125159, Note_off_c, 1, 54, 0
1, 125160, Note_on_c, 1, 58, 127
1, 125219, Note_off_c, 1, 58, 0
1, 125220, Note_on_c, 1, 59, 127
1, 125220, Note_on_c, 1, 71, 127
1, 125279, Note_off_c, 1, 59, 0
1, 125279, Note_off_c, 1, 71, 0
1, 125580, Note_on_c, 1, 50, 127
1, 125610, Note_on_c, 1, 69, 127
1, 125639, Note_off_c, 1, 50, 0
1, 125639, Note_off_c, 1, 69, 0
1, 125640, Note_on_c, 1, 67, 127
1, 125669, Note_off_c, 1, 67, 0
1, 125910, Note_on_c, 1, 56, 127
1, 125939, Note_off_c, 1, 56, 0
1, 126060, Note_on_c, 1, 49, 127
1, 126119, Note_off_c, 1, 49, 0
1, 126240, Note_on_c, 1, 67, 127
1, 126240, Note_on_c, 1, 72, 127
1, 126269, Note_off_c, 1, 67, 0
1, 126270, Note_on_c, 1, 66, 127
1, 126299, Note_off_c, 1, 66, 0
1, 126300, Note_on_c, 1, 52, 127
1, 126300, Note_on_c, 1, 60, 127
1, 126359, Note_off_c, 1, 72, 0
1, 126359, Note_off_c, 1, 60, 0
1, 126360, Note_on_c, 1, 79, 127
1, 126360, Note_on_c, 1, 71, 127
1, 126360, Note_on_c, 1, 59, 127
1, 126389, Note_off_c, 1, 79, 0
1, 126390, Note_on_c, 1, 78, 127
1, 126419, Note_off_c, 1, 71, 0
1, 126419, Note_off_c, 1, 59, 0
1, 126419, Note_off_c, 1, 78, 0
1, 126420, Note_on_c, 1, 70, 127
1, 126479, Note_off_c, 1, 52, 0
1, 126479, Note_off_c, 1, 70, 0
1, 126480, Note_on_c, 1, 67, 127
1, 126480, Note_on_c, 1, 71, 127
1, 126480, Note_on_c, 1, 50, 127
1, 126509, Note_off_c, 1, 50, 0
1, 126510, Note_on_c, 1, 49, 127
1, 126539, Note_off_c, 1, 67, 0
1, 126539, Note_off_c, 1, 49, 0
1, 126540, Note_on_c, 1, 66, 127
1, 126599, Note_off_c, 1, 71, 0
1, 126599, Note_off_c, 1, 66, 0
1, 126600, Note_on_c, 1, 64, 127
1, 126600, Note_on_c, 1, 55, 127
1, 126659, Note_off_c, 1, 64, 0
1, 126659, Note_off_c, 1, 55, 0
1, 126660, Note_on_c, 1, 62, 127
1, 126660, Note_on_c, 1, 54, 127
1, 126660, Note_on_c, 1, 71, 127
1, 126719, Note_off_c, 1, 54, 0
1, 126719, Note_off_c, 1, 71, 0
1, 126720, Note_on_c, 1, 52, 127
1, 126779, Note_off_c, 1, 62, 0
1, 126779, Note_off_c, 1, 52, 0
1, 126780, Note_on_c, 1, 61, 127
1, 126780, Note_on_c, 1, 54, 127
1, 126780, Note_on_c, 1, 70, 127
1, 126839, Note_off_c, 1, 61, 0
1, 126839, Note_off_c, 1, 54, 0
1, 126839, Note_off_c, 1, 70, 0
1, 126840, Note_on_c, 1, 59, 127
1, 126840, Note_on_c, 1, 42, 127
1, 126840, Note_on_c, 1, 64, 127
1, 126899, Note_off_c, 1, 59, 0
1, 126899, Note_off_c, 1, 42, 0
1, 126899, Note_off_c, 1, 64, 0
1, 126900, Note_on_c, 1, 59, 127
1, 126900, Note_on_c, 1, 47, 127
1, 126900, Note_on_c, 1, 62, 127
1, 126900, Note_on_c, 1, 66, 127
1, 126959, Note_off_c, 1, 47, 0
1, 126959, Note_off_c, 1, 62, 0
1, 126959, Note_off_c, 1, 66, 0
1, 126990, Note_on_c, 1, 61, 127
1, 127019, Note_off_c, 1, 59, 0
1, 127019, Note_off_c, 1, 61, 0
1, 127020, Note_on_c, 1, 62, 127
1, 127020, Note_on_c, 1, 57, 127
1, 127020, Note_on_c, 1, 66, 127
1, 127050, Note_on_c, 1, 64, 127
1, 127079, Note_off_c, 1, 62, 0
1, 127079, Note_off_c, 1, 57, 0
1, 127079, Note_off_c, 1, 66, 0
1, 127079, Note_off_c, 1, 64, 0
1, 127080, Note_on_c, 1, 66, 127
1, 127080, Note_on_c, 1, 55, 127
1, 127109, Note_off_c, 1, 66, 0
1, 127110, Note_on_c, 1, 67, 127
1, 127139, Note_off_c, 1, 55, 0
1, 127139, Note_off_c, 1, 67, 0
1, 127140, Note_on_c, 1, 69, 127
1, 127140, Note_on_c, 1, 54, 127
1, 127140, Note_on_c, 1, 61, 127
1, 127140, Note_on_c, 1, 63, 127
1, 127169, Note_off_c, 1, 69, 0
1, 127170, Note_on_c, 1, 75, 127
1, 127199, Note_off_c, 1, 54, 0
1, 127199, Note_off_c, 1, 61, 0
1, 127199, Note_off_c, 1, 63, 0
1, 127199, Note_off_c, 1, 75, 0
1, 127200, Note_on_c, 1, 78, 127
1, 127200, Note_on_c, 1, 52, 127
1, 127200, Note_on_c, 1, 66, 127
1, 127230, Note_off_c, 1, 66, 0
1, 127230, Note_on_c, 1, 67, 127
1, 127259, Note_off_c, 1, 52, 0
1, 127260, Note_off_c, 1, 67, 0
1, 127260, Note_on_c, 1, 51, 127
1, 127260, Note_on_c, 1, 69, 127
1, 127260, Note_on_c, 1, 59, 127
1, 127289, Note_off_c, 1, 78, 0
1, 127290, Note_on_c, 1, 72, 127
1, 127319, Note_off_c, 1, 51, 0
1, 127319, Note_off_c, 1, 69, 0
1, 127319, Note_off_c, 1, 59, 0
1, 127319, Note_off_c, 1, 72, 0
1, 127320, Note_on_c, 1, 71, 127
1, 127320, Note_on_c, 1, 47, 127
1, 127350, Note_on_c, 1, 69, 127
1, 127379, Note_off_c, 1, 47, 0
1, 127379, Note_off_c, 1, 69, 0
1, 127380, Note_off_c, 1, 71, 0
1, 127380, Note_on_c, 1, 67, 127
1, 127380, Note_on_c, 1, 52, 127
1, 127380, Note_on_c, 1, 59, 127
1, 127410, Note_on_c, 1, 66, 127
1, 127439, Note_off_c, 1, 67, 0
1, 127439, Note_off_c, 1, 52, 0
1, 127439, Note_off_c, 1, 59, 0
1, 127439, Note_off_c, 1, 66, 0
1, 127440, Note_on_c, 1, 64, 127
1, 127440, Note_on_c, 1, 54, 127
1, 127499, Note_off_c, 1, 54, 0
1, 127500, Note_on_c, 1, 55, 127
1, 127500, Note_on_c, 1, 67, 127
1, 127530, Note_on_c, 1, 62, 127
1, 127559, Note_off_c, 1, 64, 0
1, 127559, Note_off_c, 1, 55, 0
1, 127559, Note_off_c, 1, 67, 0
1, 127559, Note_off_c, 1, 62, 0
1, 127560, Note_on_c, 1, 61, 127
1, 127560, Note_on_c, 1, 52, 127
1, 127589, Note_off_c, 1, 61, 0
1, 127590, Note_on_c, 1, 59, 127
1, 127619, Note_off_c, 1, 52, 0
1, 127619, Note_off_c, 1, 59, 0
1, 127620, Note_on_c, 1, 58, 127
1, 127620, Note_on_c, 1, 54, 127
1, 127620, Note_on_c, 1, 66, 127
1, 127620, Note_on_c, 1, 70, 127
1, 127649, Note_off_c, 1, 58, 0
1, 127679, Note_off_c, 1, 54, 0
1, 127679, Note_off_c, 1, 66, 0
1, 127679, Note_off_c, 1, 70, 0
1, 127680, Note_on_c, 1, 76, 127
1, 127680, Note_on_c, 1, 49, 127
1, 127680, Note_on_c, 1, 62, 127
1, 127709, Note_off_c, 1, 62, 0
1, 127710, Note_on_c, 1, 64, 127
1, 127739, Note_off_c, 1, 49, 0
1, 127739, Note_off_c, 1, 64, 0
1, 127740, Note_on_c, 1, 46, 127
1, 127740, Note_on_c, 1, 66, 127
1, 127799, Note_off_c, 1, 76, 0
1, 127799, Note_off_c, 1, 46, 0
1, 127799, Note_off_c, 1, 66, 0
1, 127800, Note_on_c, 1, 74, 127
1, 127800, Note_on_c, 1, 42, 127
1, 127829, Note_off_c, 1, 74, 0
1, 127830, Note_on_c, 1, 73, 127
1, 127859, Note_off_c, 1, 42, 0
1, 127859, Note_off_c, 1, 73, 0
1, 127860, Note_on_c, 1, 74, 127
1, 127860, Note_on_c, 1, 47, 127
1, 127860, Note_on_c, 1, 66, 127
1, 127860, Note_on_c, 1, 62, 127
1, 127889, Note_off_c, 1, 74, 0
1, 127890, Note_on_c, 1, 73, 127
1, 127919, Note_off_c, 1, 47, 0
1, 127919, Note_off_c, 1, 66, 0
1, 127919, Note_off_c, 1, 62, 0
1, 127919, Note_off_c, 1, 73, 0
1, 127920, Note_on_c, 1, 71, 127
1, 127920, Note_on_c, 1, 50, 127
1, 127979, Note_off_c, 1, 50, 0
1, 127980, Note_on_c, 1, 54, 127
1, 127980, Note_on_c, 1, 62, 127
1, 128010, Note_on_c, 1, 69, 127
1, 128039, Note_off_c, 1, 71, 0
1, 128039, Note_off_c, 1, 54, 0
1, 128039, Note_off_c, 1, 62, 0
1, 128039, Note_off_c, 1, 69, 0
1, 128040, Note_on_c, 1, 67, 127
1, 128040, Note_on_c, 1, 59, 127
1, 128069, Note_off_c, 1, 67, 0
1, 128070, Note_on_c, 1, 66, 127
1, 128099, Note_off_c, 1, 59, 0
1, 128099, Note_off_c, 1, 66, 0
1, 128100, Note_on_c, 1, 67, 127
1, 128100, Note_on_c, 1, 55, 127
1, 128100, Note_on_c, 1, 64, 127
1, 128100, Note_on_c, 1, 73, 127
1, 128129, Note_off_c, 1, 67, 0
1, 128130, Note_on_c, 1, 76, 127
1, 128159, Note_off_c, 1, 55, 0
1, 128159, Note_off_c, 1, 64, 0
1, 128159, Note_off_c, 1, 73, 0
1, 128159, Note_off_c, 1, 76, 0
1, 128160, Note_on_c, 1, 74, 127
1, 128189, Note_off_c, 1, 74, 0
1, 128190, Note_on_c, 1, 73, 127
1, 128219, Note_off_c, 1, 73, 0
1, 128220, Note_on_c, 1, 74, 127
1, 128220, Note_on_c, 1, 54, 127
1, 128220, Note_on_c, 1, 62, 127
1, 128220, Note_on_c, 1, 71, 127
1, 128249, Note_off_c, 1, 74, 0
1, 128279, Note_off_c, 1, 54, 0
1, 128279, Note_off_c, 1, 62, 0
1, 128279, Note_off_c, 1, 71, 0
1, 128280, Note_on_c, 1, 67, 127
1, 128309, Note_off_c, 1, 67, 0
1, 128310, Note_on_c, 1, 66, 127
1, 128339, Note_off_c, 1, 66, 0
1, 128340, Note_on_c, 1, 64, 127
1, 128340, Note_on_c, 1, 52, 127
1, 128340, Note_on_c, 1, 66, 127
1, 128340, Note_on_c, 1, 70, 127
1, 128340, Note_on_c, 1, 61, 127
1, 128369, Note_off_c, 1, 64, 0
1, 128370, Note_on_c, 1, 73, 127
1, 128399, Note_off_c, 1, 52, 0
1, 128399, Note_off_c, 1, 66, 0
1, 128399, Note_off_c, 1, 70, 0
1, 128399, Note_off_c, 1, 61, 0
1, 128399, Note_off_c, 1, 73, 0
1, 128400, Note_on_c, 1, 71, 127
1, 128429, Note_off_c, 1, 71, 0
1, 128430, Note_on_c, 1, 70, 127
1, 128459, Note_off_c, 1, 70, 0
1, 128460, Note_on_c, 1, 71, 127
1, 128460, Note_on_c, 1, 50, 127
1, 128460, Note_on_c, 1, 66, 127
1, 128460, Note_on_c, 1, 62, 127
1, 128490, Note_on_c, 1, 67, 127
1, 128519, Note_off_c, 1, 71, 0
1, 128519, Note_off_c, 1, 50, 0
1, 128519, Note_off_c, 1, 66, 0
1, 128519, Note_off_c, 1, 62, 0
1, 128519, Note_off_c, 1, 67, 0
1, 128520, Note_on_c, 1, 64, 127
1, 128549, Note_off_c, 1, 64, 0
1, 128550, Note_on_c, 1, 62, 127
1, 128579, Note_off_c, 1, 62, 0
1, 128580, Note_on_c, 1, 61, 127
1, 128580, Note_on_c, 1, 49, 127
1, 128580, Note_on_c, 1, 67, 127
1, 128580, Note_on_c, 1, 70, 127
1, 128609, Note_off_c, 1, 61, 0
1, 128610, Note_on_c, 1, 64, 127
1, 128639, Note_off_c, 1, 49, 0
1, 128639, Note_off_c, 1, 67, 0
1, 128639, Note_off_c, 1, 70, 0
1, 128639, Note_off_c, 1, 64, 0
1, 128640, Note_on_c, 1, 66, 127
1, 128669, Note_off_c, 1, 66, 0
1, 128670, Note_on_c, 1, 67, 127
1, 128699, Note_off_c, 1, 67, 0
1, 128700, Note_on_c, 1, 59, 127
1, 128700, Note_on_c, 1, 47, 127
1, 128700, Note_on_c, 1, 64, 127
1, 128700, Note_on_c, 1, 67, 127
1, 128729, Note_off_c, 1, 59, 0
1, 128759, Note_off_c, 1, 47, 0
1, 128759, Note_off_c, 1, 64, 0
1, 128759, Note_off_c, 1, 67, 0
1, 128760, Note_on_c, 1, 66, 127
1, 128789, Note_off_c, 1, 66, 0
1, 128790, Note_on_c, 1, 67, 127
1, 128819, Note_off_c, 1, 67, 0
1, 128820, Note_on_c, 1, 58, 127
1, 128820, Note_on_c, 1, 46, 127
1, 128820, Note_on_c, 1, 64, 127
1, 128820, Note_on_c, 1, 67, 127
1, 128849, Note_off_c, 1, 58, 0
1, 128850, Note_on_c, 1, 61, 127
1, 128879, Note_off_c, 1, 46, 0
1, 128879, Note_off_c, 1, 64, 0
1, 128879, Note_off_c, 1, 67, 0
1, 128879, Note_off_c, 1, 61, 0
1, 128880, Note_on_c, 1, 64, 127
1, 128909, Note_off_c, 1, 64, 0
1, 128910, Note_on_c, 1, 67, 127
1, 128939, Note_off_c, 1, 67, 0
1, 128940, Note_on_c, 1, 73, 127
1, 128940, Note_on_c, 1, 42, 127
1, 128940, Note_on_c, 1, 61, 127
1, 128940, Note_on_c, 1, 64, 127
1, 128969, Note_off_c, 1, 73, 0
1, 128970, Note_on_c, 1, 67, 127
1, 128999, Note_off_c, 1, 42, 0
1, 128999, Note_off_c, 1, 61, 0
1, 128999, Note_off_c, 1, 64, 0
1, 128999, Note_off_c, 1, 67, 0
1, 129000, Note_on_c, 1, 66, 127
1, 129029, Note_off_c, 1, 66, 0
1, 129030, Note_on_c, 1, 64, 127
1, 129059, Note_off_c, 1, 64, 0
1, 129060, Note_on_c, 1, 63, 127
1, 129060, Note_on_c, 1, 47, 127
1, 129060, Note_on_c, 1, 66, 127
1, 129119, Note_off_c, 1, 63, 0
1, 129119, Note_off_c, 1, 47, 0
1, 129119, Note_off_c, 1, 66, 0
1, 129120, Note_on_c, 1, 69, 127
1, 129149, Note_off_c, 1, 69, 0
1, 129150, Note_on_c, 1, 72, 127
1, 129179, Note_off_c, 1, 72, 0
1, 129180, Note_on_c, 1, 78, 127
1, 129180, Note_on_c, 1, 51, 127
1, 129180, Note_on_c, 1, 60, 127
1, 129180, Note_on_c, 1, 69, 127
1, 129209, Note_off_c, 1, 78, 0
1, 129210, Note_on_c, 1, 72, 127
1, 129239, Note_off_c, 1, 51, 0
1, 129239, Note_off_c, 1, 60, 0
1, 129239, Note_off_c, 1, 69, 0
1, 129239, Note_off_c, 1, 72, 0
1, 129240, Note_on_c, 1, 71, 127
1, 129269, Note_off_c, 1, 71, 0
1, 129270, Note_on_c, 1, 69, 127
1, 129299, Note_off_c, 1, 69, 0
1, 129300, Note_on_c, 1, 68, 127
1, 129300, Note_on_c, 1, 53, 127
1, 129300, Note_on_c, 1, 59, 127
1, 129300, Note_on_c, 1, 62, 127
1, 129329, Note_off_c, 1, 68, 0
1, 129330, Note_on_c, 1, 71, 127
1, 129359, Note_off_c, 1, 71, 0
1, 129360, Note_on_c, 1, 74, 127
1, 129389, Note_off_c, 1, 74, 0
1, 129390, Note_on_c, 1, 77, 127
1, 129419, Note_off_c, 1, 53, 0
1, 129419, Note_off_c, 1, 59, 0
1, 129419, Note_off_c, 1, 62, 0
1, 129419, Note_off_c, 1, 77, 0
1, 129420, Note_on_c, 1, 83, 127
1, 129480, Note_on_c, 1, 49, 127
1, 129480, Note_on_c, 1, 65, 127
1, 129480, Note_on_c, 1, 68, 127
1, 129539, Note_off_c, 1, 49, 0
1, 129539, Note_off_c, 1, 65, 0
1, 129539, Note_off_c, 1, 68, 0
1, 129540, Note_on_c, 1, 50, 127
1, 129540, Note_on_c, 1, 71, 127
1, 129540, Note_on_c, 1, 66, 127
1, 129599, Note_off_c, 1, 83, 0
1, 129599, Note_off_c, 1, 50, 0
1, 129599, Note_off_c, 1, 71, 0
1, 129599, Note_off_c, 1, 66, 0
1, 129600, Note_on_c, 1, 81, 127
1, 129600, Note_on_c, 1, 52, 127
1, 129600, Note_on_c, 1, 73, 127
1, 129600, Note_on_c, 1, 71, 127
1, 129629, Note_off_c, 1, 81, 0
1, 129630, Note_on_c, 1, 79, 127
1, 129659, Note_off_c, 1, 52, 0
1, 129659, Note_off_c, 1, 73, 0
1, 129659, Note_off_c, 1, 71, 0
1, 129659, Note_off_c, 1, 79, 0
1, 129660, Note_on_c, 1, 78, 127
1, 129660, Note_on_c, 1, 54, 127
1, 129660, Note_on_c, 1, 71, 127
1, 129660, Note_on_c, 1, 66, 127
1, 129689, Note_off_c, 1, 78, 0
1, 129690, Note_on_c, 1, 76, 127
1, 129719, Note_off_c, 1, 54, 0
1, 129719, Note_off_c, 1, 71, 0
1, 129719, Note_off_c, 1, 66, 0
1, 129719, Note_off_c, 1, 76, 0
1, 129720, Note_on_c, 1, 74, 127
1, 129720, Note_on_c, 1, 42, 127
1, 129720, Note_on_c, 1, 70, 127
1, 129720, Note_on_c, 1, 66, 127
1, 129749, Note_off_c, 1, 74, 0
1, 129750, Note_on_c, 1, 73, 127
1, 129779, Note_off_c, 1, 42, 0
1, 129779, Note_off_c, 1, 70, 0
1, 129779, Note_off_c, 1, 66, 0
1, 129779, Note_off_c, 1, 73, 0
1, 129780, Note_on_c, 1, 71, 127
1, 129780, Note_on_c, 1, 47, 127
1, 129780, Note_on_c, 1, 66, 127
1, 129780, Note_on_c, 1, 62, 127
1, 130019, Note_off_c, 1, 71, 0
1, 130019, Note_off_c, 1, 47, 0
1, 130019, Note_off_c, 1, 66, 0
1, 130019, Note_off_c, 1, 62, 0
1, 130140, Note_on_c, 1, 81, 127
1, 130140, Note_on_c, 1, 76, 127
1, 130140, Note_on_c, 1, 49, 127
1, 130140, Note_on_c, 1, 69, 127
1, 130140, Note_on_c, 1, 64, 127
1, 130140, Note_on_c, 1, 61, 127
1, 130350, Note_on_c, 1, 71, 127
1, 130379, Note_off_c, 1, 69, 0
1, 130379, Note_off_c, 1, 64, 0
1, 130379, Note_off_c, 1, 61, 0
1, 130379, Note_off_c, 1, 71, 0
1, 130380, Note_on_c, 1, 67, 127
1, 130500, Note_on_c, 1, 66, 127
1, 130559, Note_off_c, 1, 66, 0
1, 130619, Note_off_c, 1, 49, 0
1, 130619, Note_off_c, 1, 67, 0
1, 130620, Note_off_c, 1, 76, 0
1, 130620, Note_on_c, 1, 74, 127
1, 130620, Note_on_c, 1, 50, 127
1, 130620, Note_on_c, 1, 57, 127
1, 130620, Note_on_c, 1, 62, 127
1, 130740, Note_off_c, 1, 81, 0
1, 130740, Note_on_c, 1, 78, 127
1, 131099, Note_off_c, 1, 50, 0
1, 131099, Note_off_c, 1, 57, 0
1, 131099, Note_off_c, 1, 62, 0
1, 131100, Note_off_c, 1, 74, 0
1, 131100, Note_off_c, 1, 78, 0
1, 131100, Note_on_c, 1, 72, 127
1, 131100, Note_on_c, 1, 52, 127
1, 131100, Note_on_c, 1, 60, 127
1, 131159, Note_off_c, 1, 72, 0
1, 131579, Note_off_c, 1, 52, 0
1, 131579, Note_off_c, 1, 60, 0
1, 131580, Note_on_c, 1, 54, 127
1, 132059, Note_off_c, 1, 54, 0
1, 132060, Note_on_c, 1, 55, 127
1, 132179, Note_off_c, 1, 55, 0
1, 132180, Note_on_c, 1, 79, 127
1, 132180, Note_on_c, 1, 47, 127
1, 132299, Note_off_c, 1, 47, 0
1, 132300, Note_off_c, 1, 79, 0
1, 132420, Note_on_c, 1, 43, 127
1, 132420, Note_on_c, 1, 59, 127
1, 132539, Note_off_c, 1, 43, 0
1, 132539, Note_off_c, 1, 59, 0
1, 132660, Note_on_c, 1, 79, 127
1, 132660, Note_on_c, 1, 67, 127
1, 132660, Note_on_c, 1, 62, 127
1, 132660, Note_on_c, 1, 59, 127
1, 132660, Note_on_c, 1, 55, 127
1, 132779, Note_off_c, 1, 79, 0
1, 132779, Note_off_c, 1, 67, 0
1, 132779, Note_off_c, 1, 62, 0
1, 132779, Note_off_c, 1, 59, 0
1, 132779, Note_off_c, 1, 55, 0
1, 132780, Note_on_c, 1, 79, 127
1, 132780, Note_on_c, 1, 67, 127
1, 132780, Note_on_c, 1, 64, 127
1, 132780, Note_on_c, 1, 60, 127
1, 132780, Note_on_c, 1, 48, 127
1, 132899, Note_off_c, 1, 79, 0
1, 132899, Note_off_c, 1, 67, 0
1, 132899, Note_off_c, 1, 64, 0
1, 132899, Note_off_c, 1, 60, 0
1, 132900, Note_on_c, 1, 81, 127
1, 132900, Note_on_c, 1, 69, 127
1, 132900, Note_on_c, 1, 62, 127
1, 132900, Note_on_c, 1, 54, 127
1, 133019, Note_off_c, 1, 48, 0
1, 133019, Note_off_c, 1, 81, 0
1, 133019, Note_off_c, 1, 69, 0
1, 133019, Note_off_c, 1, 62, 0
1, 133019, Note_off_c, 1, 54, 0
1, 133020, Note_on_c, 1, 79, 127
1, 133020, Note_on_c, 1, 67, 127
1, 133020, Note_on_c, 1, 62, 127
1, 133020, Note_on_c, 1, 55, 127
1, 133020, Note_on_c, 1, 59, 127
1, 133020, Note_on_c, 1, 47, 127
1, 133139, Note_off_c, 1, 79, 0
1, 133139, Note_off_c, 1, 67, 0
1, 133139, Note_off_c, 1, 62, 0
1, 133139, Note_off_c, 1, 55, 0
1, 133139, Note_off_c, 1, 59, 0
1, 133139, Note_off_c, 1, 47, 0
1, 133140, Note_on_c, 1, 81, 127
1, 133140, Note_on_c, 1, 69, 127
1, 133140, Note_on_c, 1, 64, 127
1, 133140, Note_on_c, 1, 60, 127
1, 133140, Note_on_c, 1, 57, 127
1, 133140, Note_on_c, 1, 45, 127
1, 133199, Note_off_c, 1, 81, 0
1, 133199, Note_off_c, 1, 69, 0
1, 133200, Note_on_c, 1, 83, 127
1, 133200, Note_on_c, 1, 71, 127
1, 133259, Note_off_c, 1, 64, 0
1, 133259, Note_off_c, 1, 60, 0
1, 133259, Note_off_c, 1, 57, 0
1, 133259, Note_off_c, 1, 45, 0
1, 133259, Note_off_c, 1, 83, 0
1, 133259, Note_off_c, 1, 71, 0
1, 133260, Note_on_c, 1, 84, 127
1, 133260, Note_on_c, 1, 72, 127
1, 133260, Note_on_c, 1, 65, 127
1, 133260, Note_on_c, 1, 60, 127
1, 133260, Note_on_c, 1, 56, 127
1, 133260, Note_on_c, 1, 44, 127
1, 133319, Note_off_c, 1, 60, 0
1, 133320, Note_on_c, 1, 62, 127
1, 133379, Note_off_c, 1, 84, 0
1, 133379, Note_off_c, 1, 72, 0
1, 133379, Note_off_c, 1, 65, 0
1, 133379, Note_off_c, 1, 56, 0
1, 133379, Note_off_c, 1, 44, 0
1, 133379, Note_off_c, 1, 62, 0
1, 133380, Note_on_c, 1, 84, 127
1, 133380, Note_on_c, 1, 72, 127
1, 133380, Note_on_c, 1, 67, 127
1, 133380, Note_on_c, 1, 64, 127
1, 133380, Note_on_c, 1, 55, 127
1, 133380, Note_on_c, 1, 43, 127
1, 133499, Note_off_c, 1, 84, 0
1, 133499, Note_off_c, 1, 72, 0
1, 133499, Note_off_c, 1, 64, 0
1, 133500, Note_on_c, 1, 83, 127
1, 133500, Note_on_c, 1, 71, 127
1, 133500, Note_on_c, 1, 62, 127
1, 133619, Note_off_c, 1, 67, 0
1, 133619, Note_off_c, 1, 55, 0
1, 133619, Note_off_c, 1, 43, 0
1, 133619, Note_off_c, 1, 83, 0
1, 133619, Note_off_c, 1, 71, 0
1, 133619, Note_off_c, 1, 62, 0
1, 133620, Note_on_c, 1, 84, 127
1, 133620, Note_on_c, 1, 72, 127
1, 133620, Note_on_c, 1, 67, 127
1, 133620, Note_on_c, 1, 64, 127
1, 133620, Note_on_c, 1, 48, 127
1, 133859, Note_off_c, 1, 84, 0
1, 133859, Note_off_c, 1, 72, 0
1, 133859, Note_off_c, 1, 67, 0
1, 133859, Note_off_c, 1, 64, 0
1, 133859, Note_off_c, 1, 48, 0
1, 133860, Note_on_c, 1, 86, 127
1, 133860, Note_on_c, 1, 74, 127
1, 133860, Note_on_c, 1, 71, 127
1, 133860, Note_on_c, 1, 67, 127
1, 133860, Note_on_c, 1, 55, 127
1, 133919, Note_off_c, 1, 71, 0
1, 133919, Note_off_c, 1, 67, 0
1, 133920, Note_on_c, 1, 69, 127
1, 133920, Note_on_c, 1, 65, 127
1, 133979, Note_off_c, 1, 86, 0
1, 133979, Note_off_c, 1, 74, 0
1, 133979, Note_off_c, 1, 55, 0
1, 133979, Note_off_c, 1, 69, 0
1, 133979, Note_off_c, 1, 65, 0
1, 133980, Note_on_c, 1, 88, 127
1, 133980, Note_on_c, 1, 76, 127
1, 133980, Note_on_c, 1, 71, 127
1, 133980, Note_on_c, 1, 64, 127
1, 133980, Note_on_c, 1, 56, 127
1, 134099, Note_off_c, 1, 88, 0
1, 134099, Note_off_c, 1, 76, 0
1, 134099, Note_off_c, 1, 71, 0
1, 134099, Note_off_c, 1, 64, 0
1, 134099, Note_off_c, 1, 56, 0
1, 134100, Note_on_c, 1, 84, 127
1, 134100, Note_on_c, 1, 72, 127
1, 134100, Note_on_c, 1, 69, 127
1, 134100, Note_on_c, 1, 64, 127
1, 134100, Note_on_c, 1, 57, 127
1, 134339, Note_off_c, 1, 84, 0
1, 134339, Note_off_c, 1, 72, 0
1, 134339, Note_off_c, 1, 69, 0
1, 134339, Note_off_c, 1, 64, 0
1, 134339, Note_off_c, 1, 57, 0
1, 134340, Note_on_c, 1, 83, 127
1, 134340, Note_on_c, 1, 71, 127
1, 134340, Note_on_c, 1, 67, 127
1, 134340, Note_on_c, 1, 64, 127
1, 134340, Note_on_c, 1, 52, 127
1, 134399, Note_off_c, 1, 83, 0
1, 134399, Note_off_c, 1, 71, 0
1, 134400, Note_on_c, 1, 84, 127
1, 134400, Note_on_c, 1, 72, 127
1, 134459, Note_off_c, 1, 67, 0
1, 134459, Note_off_c, 1, 64, 0
1, 134459, Note_off_c, 1, 52, 0
1, 134459, Note_off_c, 1, 84, 0
1, 134459, Note_off_c, 1, 72, 0
1, 134460, Note_on_c, 1, 86, 127
1, 134460, Note_on_c, 1, 74, 127
1, 134460, Note_on_c, 1, 67, 127
1, 134460, Note_on_c, 1, 62, 127
1, 134460, Note_on_c, 1, 47, 127
1, 134519, Note_off_c, 1, 47, 0
1, 134520, Note_on_c, 1, 48, 127
1, 134579, Note_off_c, 1, 86, 0
1, 134579, Note_off_c, 1, 74, 0
1, 134579, Note_off_c, 1, 67, 0
1, 134579, Note_off_c, 1, 62, 0
1, 134579, Note_off_c, 1, 48, 0
1, 134580, Note_on_c, 1, 81, 127
1, 134580, Note_on_c, 1, 69, 127
1, 134580, Note_on_c, 1, 66, 127
1, 134580, Note_on_c, 1, 62, 127
1, 134580, Note_on_c, 1, 50, 127
1, 134819, Note_off_c, 1, 81, 0
1, 134819, Note_off_c, 1, 69, 0
1, 134819, Note_off_c, 1, 66, 0
1, 134819, Note_off_c, 1, 62, 0
1, 134819, Note_off_c, 1, 50, 0
1, 134820, Note_on_c, 1, 86, 127
1, 134820, Note_on_c, 1, 74, 127
1, 134820, Note_on_c, 1, 66, 127
1, 134820, Note_on_c, 1, 57, 127
1, 134820, Note_on_c, 1, 50, 127
1, 134939, Note_off_c, 1, 86, 0
1, 134939, Note_off_c, 1, 74, 0
1, 134939, Note_off_c, 1, 66, 0
1, 134939, Note_off_c, 1, 57, 0
1, 134939, Note_off_c, 1, 50, 0
1, 134940, Note_on_c, 1, 86, 127
1, 134940, Note_on_c, 1, 74, 127
1, 134940, Note_on_c, 1, 67, 127
1, 134940, Note_on_c, 1, 59, 127
1, 134940, Note_on_c, 1, 55, 127
1, 134999, Note_off_c, 1, 55, 0
1, 135000, Note_on_c, 1, 54, 127
1, 135059, Note_off_c, 1, 86, 0
1, 135059, Note_off_c, 1, 74, 0
1, 135059, Note_off_c, 1, 67, 0
1, 135059, Note_off_c, 1, 59, 0
1, 135059, Note_off_c, 1, 54, 0
1, 135060, Note_on_c, 1, 84, 127
1, 135060, Note_on_c, 1, 72, 127
1, 135060, Note_on_c, 1, 67, 127
1, 135060, Note_on_c, 1, 60, 127
1, 135060, Note_on_c, 1, 52, 127
1, 135179, Note_off_c, 1, 84, 0
1, 135179, Note_off_c, 1, 72, 0
1, 135179, Note_off_c, 1, 67, 0
1, 135179, Note_off_c, 1, 60, 0
1, 135179, Note_off_c, 1, 52, 0
1, 135180, Note_on_c, 1, 83, 127
1, 135180, Note_on_c, 1, 71, 127
1, 135180, Note_on_c, 1, 67, 127
1, 135180, Note_on_c, 1, 62, 127
1, 135180, Note_on_c, 1, 50, 127
1, 135239, Note_off_c, 1, 83, 0
1, 135239, Note_off_c, 1, 71, 0
1, 135240, Note_on_c, 1, 81, 127
1, 135240, Note_on_c, 1, 69, 127
1, 135299, Note_off_c, 1, 67, 0
1, 135299, Note_off_c, 1, 62, 0
1, 135299, Note_off_c, 1, 50, 0
1, 135299, Note_off_c, 1, 81, 0
1, 135299, Note_off_c, 1, 69, 0
1, 135300, Note_on_c, 1, 81, 127
1, 135300, Note_on_c, 1, 69, 127
1, 135300, Note_on_c, 1, 67, 127
1, 135300, Note_on_c, 1, 64, 127
1, 135300, Note_on_c, 1, 48, 127
1, 135419, Note_off_c, 1, 67, 0
1, 135419, Note_off_c, 1, 64, 0
1, 135419, Note_off_c, 1, 48, 0
1, 135420, Note_on_c, 1, 66, 127
1, 135420, Note_on_c, 1, 62, 127
1, 135420, Note_on_c, 1, 50, 127
1, 135479, Note_off_c, 1, 62, 0
1, 135480, Note_on_c, 1, 60, 127
1, 135539, Note_off_c, 1, 81, 0
1, 135539, Note_off_c, 1, 69, 0
1, 135539, Note_off_c, 1, 66, 0
1, 135539, Note_off_c, 1, 50, 0
1, 135539, Note_off_c, 1, 60, 0
1, 135540, Note_on_c, 1, 79, 127
1, 135540, Note_on_c, 1, 67, 127
1, 135540, Note_on_c, 1, 62, 127
1, 135540, Note_on_c, 1, 59, 127
1, 135540, Note_on_c, 1, 43, 127
1, 135779, Note_off_c, 1, 79, 0
1, 135779, Note_off_c, 1, 67, 0
1, 135779, Note_off_c, 1, 62, 0
1, 135779, Note_off_c, 1, 59, 0
1, 135779, Note_off_c, 1, 43, 0
1, 135780, Note_on_c, 1, 79, 127
1, 135780, Note_on_c, 1, 67, 127
1, 135780, Note_on_c, 1, 64, 127
1, 135780, Note_on_c, 1, 60, 127
1, 135780, Note_on_c, 1, 48, 127
1, 135839, Note_off_c, 1, 48, 0
1, 135840, Note_on_c, 1, 50, 127
1, 135899, Note_off_c, 1, 79, 0
1, 135899, Note_off_c, 1, 67, 0
1, 135899, Note_off_c, 1, 64, 0
1, 135899, Note_off_c, 1, 60, 0
1, 135899, Note_off_c, 1, 50, 0
1, 135900, Note_on_c, 1, 79, 127
1, 135900, Note_on_c, 1, 67, 127
1, 135900, Note_on_c, 1, 59, 127
1, 135900, Note_on_c, 1, 55, 127
1, 135900, Note_on_c, 1, 52, 127
1, 135959, Note_off_c, 1, 59, 0
1, 135960, Note_on_c, 1, 61, 127
1, 136019, Note_off_c, 1, 79, 0
1, 136019, Note_off_c, 1, 67, 0
1, 136019, Note_off_c, 1, 55, 0
1, 136019, Note_off_c, 1, 52, 0
1, 136019, Note_off_c, 1, 61, 0
1, 136020, Note_on_c, 1, 81, 127
1, 136020, Note_on_c, 1, 69, 127
1, 136020, Note_on_c, 1, 62, 127
1, 136020, Note_on_c, 1, 54, 127
1, 136020, Note_on_c, 1, 50, 127
1, 136079, Note_off_c, 1, 62, 0
1, 136079, Note_off_c, 1, 50, 0
1, 136080, Note_on_c, 1, 60, 127
1, 136080, Note_on_c, 1, 52, 127
1, 136139, Note_off_c, 1, 81, 0
1, 136139, Note_off_c, 1, 69, 0
1, 136139, Note_off_c, 1, 54, 0
1, 136139, Note_off_c, 1, 60, 0
1, 136139, Note_off_c, 1, 52, 0
1, 136140, Note_on_c, 1, 79, 127
1, 136140, Note_on_c, 1, 67, 127
1, 136140, Note_on_c, 1, 59, 127
1, 136140, Note_on_c, 1, 55, 127
1, 136140, Note_on_c, 1, 53, 127
1, 136259, Note_off_c, 1, 79, 0
1, 136259, Note_off_c, 1, 67, 0
1, 136259, Note_off_c, 1, 59, 0
1, 136259, Note_off_c, 1, 55, 0
1, 136259, Note_off_c, 1, 53, 0
1, 136260, Note_on_c, 1, 81, 127
1, 136260, Note_on_c, 1, 69, 127
1, 136260, Note_on_c, 1, 60, 127
1, 136260, Note_on_c, 1, 55, 127
1, 136260, Note_on_c, 1, 52, 127
1, 136319, Note_off_c, 1, 81, 0
1, 136319, Note_off_c, 1, 69, 0
1, 136319, Note_off_c, 1, 60, 0
1, 136319, Note_off_c, 1, 55, 0
1, 136319, Note_off_c, 1, 52, 0
1, 136320, Note_on_c, 1, 83, 127
1, 136320, Note_on_c, 1, 71, 127
1, 136320, Note_on_c, 1, 62, 127
1, 136320, Note_on_c, 1, 53, 127
1, 136320, Note_on_c, 1, 50, 127
1, 136379, Note_off_c, 1, 83, 0
1, 136379, Note_off_c, 1, 71, 0
1, 136379, Note_off_c, 1, 62, 0
1, 136379, Note_off_c, 1, 53, 0
1, 136379, Note_off_c, 1, 50, 0
1, 136380, Note_on_c, 1, 84, 127
1, 136380, Note_on_c, 1, 72, 127
1, 136380, Note_on_c, 1, 60, 127
1, 136380, Note_on_c, 1, 55, 127
1, 136380, Note_on_c, 1, 52, 127
1, 136439, Note_off_c, 1, 60, 0
1, 136439, Note_off_c, 1, 55, 0
1, 136439, Note_off_c, 1, 52, 0
1, 136440, Note_on_c, 1, 62, 127
1, 136440, Note_on_c, 1, 57, 127
1, 136440, Note_on_c, 1, 54, 127
1, 136499, Note_off_c, 1, 84, 0
1, 136499, Note_off_c, 1, 72, 0
1, 136499, Note_off_c, 1, 62, 0
1, 136499, Note_off_c, 1, 57, 0
1, 136499, Note_off_c, 1, 54, 0
1, 136500, Note_on_c, 1, 84, 127
1, 136500, Note_on_c, 1, 72, 127
1, 136500, Note_on_c, 1, 64, 127
1, 136500, Note_on_c, 1, 55, 127
1, 136619, Note_off_c, 1, 84, 0
1, 136619, Note_off_c, 1, 72, 0
1, 136619, Note_off_c, 1, 64, 0
1, 136619, Note_off_c, 1, 55, 0
1, 136620, Note_on_c, 1, 83, 127
1, 136620, Note_on_c, 1, 71, 127
1, 136620, Note_on_c, 1, 62, 127
1, 136620, Note_on_c, 1, 64, 127
1, 136620, Note_on_c, 1, 56, 127
1, 136739, Note_off_c, 1, 83, 0
1, 136739, Note_off_c, 1, 71, 0
1, 136739, Note_off_c, 1, 62, 0
1, 136739, Note_off_c, 1, 64, 0
1, 136739, Note_off_c, 1, 56, 0
1, 136740, Note_on_c, 1, 84, 127
1, 136740, Note_on_c, 1, 72, 127
1, 136740, Note_on_c, 1, 60, 127
1, 136740, Note_on_c, 1, 64, 127
1, 136740, Note_on_c, 1, 57, 127
1, 136979, Note_off_c, 1, 84, 0
1, 136979, Note_off_c, 1, 72, 0
1, 136979, Note_off_c, 1, 60, 0
1, 136979, Note_off_c, 1, 64, 0
1, 136979, Note_off_c, 1, 57, 0
1, 136980, Note_on_c, 1, 86, 127
1, 136980, Note_on_c, 1, 74, 127
1, 136980, Note_on_c, 1, 66, 127
1, 136980, Note_on_c, 1, 62, 127
1, 136980, Note_on_c, 1, 59, 127
1, 137039, Note_off_c, 1, 62, 0
1, 137040, Note_on_c, 1, 60, 127
1, 137099, Note_off_c, 1, 86, 0
1, 137099, Note_off_c, 1, 74, 0
1, 137099, Note_off_c, 1, 66, 0
1, 137099, Note_off_c, 1, 59, 0
1, 137099, Note_off_c, 1, 60, 0
1, 137100, Note_on_c, 1, 88, 127
1, 137100, Note_on_c, 1, 76, 127
1, 137100, Note_on_c, 1, 68, 127
1, 137100, Note_on_c, 1, 59, 127
1, 137100, Note_on_c, 1, 52, 127
1, 137219, Note_off_c, 1, 88, 0
1, 137219, Note_off_c, 1, 76, 0
1, 137219, Note_off_c, 1, 68, 0
1, 137219, Note_off_c, 1, 59, 0
1, 137219, Note_off_c, 1, 52, 0
1, 137220, Note_on_c, 1, 84, 127
1, 137220, Note_on_c, 1, 72, 127
1, 137220, Note_on_c, 1, 64, 127
1, 137220, Note_on_c, 1, 57, 127
1, 137459, Note_off_c, 1, 84, 0
1, 137459, Note_off_c, 1, 72, 0
1, 137459, Note_off_c, 1, 64, 0
1, 137459, Note_off_c, 1, 57, 0
1, 137460, Note_on_c, 1, 83, 127
1, 137460, Note_on_c, 1, 71, 127
1, 137460, Note_on_c, 1, 67, 127
1, 137460, Note_on_c, 1, 55, 127
1, 137460, Note_on_c, 1, 52, 127
1, 137519, Note_off_c, 1, 83, 0
1, 137519, Note_off_c, 1, 71, 0
1, 137519, Note_off_c, 1, 55, 0
1, 137520, Note_on_c, 1, 84, 127
1, 137520, Note_on_c, 1, 72, 127
1, 137520, Note_on_c, 1, 57, 127
1, 137579, Note_off_c, 1, 67, 0
1, 137579, Note_off_c, 1, 52, 0
1, 137579, Note_off_c, 1, 84, 0
1, 137579, Note_off_c, 1, 72, 0
1, 137579, Note_off_c, 1, 57, 0
1, 137580, Note_on_c, 1, 86, 127
1, 137580, Note_on_c, 1, 74, 127
1, 137580, Note_on_c, 1, 66, 127
1, 137580, Note_on_c, 1, 59, 127
1, 137580, Note_on_c, 1, 50, 127
1, 137639, Note_off_c, 1, 66, 0
1, 137639, Note_off_c, 1, 59, 0
1, 137639, Note_off_c, 1, 50, 0
1, 137640, Note_on_c, 1, 67, 127
1, 137640, Note_on_c, 1, 55, 127
1, 137640, Note_on_c, 1, 52, 127
1, 137699, Note_off_c, 1, 86, 0
1, 137699, Note_off_c, 1, 74, 0
1, 137699, Note_off_c, 1, 67, 0
1, 137699, Note_off_c, 1, 55, 0
1, 137699, Note_off_c, 1, 52, 0
1, 137700, Note_on_c, 1, 81, 127
1, 137700, Note_on_c, 1, 69, 127
1, 137700, Note_on_c, 1, 62, 127
1, 137700, Note_on_c, 1, 54, 127
1, 137939, Note_off_c, 1, 81, 0
1, 137939, Note_off_c, 1, 69, 0
1, 137939, Note_off_c, 1, 62, 0
1, 137939, Note_off_c, 1, 54, 0
1, 137940, Note_on_c, 1, 86, 127
1, 137940, Note_on_c, 1, 74, 127
1, 137940, Note_on_c, 1, 67, 127
1, 137940, Note_on_c, 1, 59, 127
1, 137940, Note_on_c, 1, 55, 127
1, 137999, Note_off_c, 1, 59, 0
1, 137999, Note_off_c, 1, 55, 0
1, 138000, Note_on_c, 1, 60, 127
1, 138000, Note_on_c, 1, 57, 127
1, 138059, Note_off_c, 1, 86, 0
1, 138059, Note_off_c, 1, 74, 0
1, 138059, Note_off_c, 1, 67, 0
1, 138059, Note_off_c, 1, 60, 0
1, 138059, Note_off_c, 1, 57, 0
1, 138060, Note_on_c, 1, 86, 127
1, 138060, Note_on_c, 1, 74, 127
1, 138060, Note_on_c, 1, 67, 127
1, 138060, Note_on_c, 1, 62, 127
1, 138060, Note_on_c, 1, 59, 127
1, 138119, Note_off_c, 1, 67, 0
1, 138120, Note_on_c, 1, 66, 127
1, 138179, Note_off_c, 1, 86, 0
1, 138179, Note_off_c, 1, 74, 0
1, 138179, Note_off_c, 1, 62, 0
1, 138179, Note_off_c, 1, 66, 0
1, 138180, Note_on_c, 1, 84, 127
1, 138180, Note_on_c, 1, 72, 127
1, 138180, Note_on_c, 1, 64, 127
1, 138239, Note_off_c, 1, 59, 0
1, 138239, Note_off_c, 1, 64, 0
1, 138240, Note_on_c, 1, 69, 127
1, 138240, Note_on_c, 1, 57, 127
1, 138299, Note_off_c, 1, 84, 0
1, 138299, Note_off_c, 1, 72, 0
1, 138299, Note_off_c, 1, 69, 0
1, 138299, Note_off_c, 1, 57, 0
1, 138300, Note_on_c, 1, 83, 127
1, 138300, Note_on_c, 1, 71, 127
1, 138300, Note_on_c, 1, 62, 127
1, 138300, Note_on_c, 1, 67, 127
1, 138300, Note_on_c, 1, 59, 127
1, 138359, Note_off_c, 1, 83, 0
1, 138359, Note_off_c, 1, 71, 0
1, 138359, Note_off_c, 1, 62, 0
1, 138359, Note_off_c, 1, 59, 0
1, 138360, Note_on_c, 1, 81, 127
1, 138360, Note_on_c, 1, 69, 127
1, 138360, Note_on_c, 1, 64, 127
1, 138360, Note_on_c, 1, 60, 127
1, 138419, Note_off_c, 1, 67, 0
1, 138419, Note_off_c, 1, 81, 0
1, 138419, Note_off_c, 1, 69, 0
1, 138419, Note_off_c, 1, 64, 0
1, 138419, Note_off_c, 1, 60, 0
1, 138420, Note_on_c, 1, 81, 127
1, 138420, Note_on_c, 1, 69, 127
1, 138420, Note_on_c, 1, 66, 127
1, 138420, Note_on_c, 1, 62, 127
1, 138479, Note_off_c, 1, 66, 0
1, 138480, Note_on_c, 1, 67, 127
1, 138480, Note_on_c, 1, 60, 127
1, 138509, Note_off_c, 1, 60, 0
1, 138510, Note_on_c, 1, 59, 127
1, 138539, Note_off_c, 1, 62, 0
1, 138539, Note_off_c, 1, 59, 0
1, 138540, Note_on_c, 1, 50, 127
1, 138599, Note_off_c, 1, 67, 0
1, 138659, Note_off_c, 1, 81, 0
1, 138659, Note_off_c, 1, 69, 0
1, 138659, Note_off_c, 1, 50, 0
1, 138660, Note_on_c, 1, 79, 127
1, 138660, Note_on_c, 1, 67, 127
1, 138660, Note_on_c, 1, 62, 127
1, 138660, Note_on_c, 1, 59, 127
1, 138660, Note_on_c, 1, 55, 127
1, 138899, Note_off_c, 1, 79, 0
1, 138899, Note_off_c, 1, 67, 0
1, 138899, Note_off_c, 1, 62, 0
1, 138899, Note_off_c, 1, 59, 0
1, 138899, Note_off_c, 1, 55, 0
1, 139020, Note_on_c, 1, 52, 127
1, 139020, Note_on_c, 1, 71, 127
1, 139020, Note_on_c, 1, 67, 127
1, 139020, Note_on_c, 1, 64, 127
1, 139140, Note_on_c, 1, 76, 127
1, 139199, Note_off_c, 1, 76, 0
1, 139200, Note_on_c, 1, 72, 127
1, 139259, Note_off_c, 1, 72, 0
1, 139260, Note_off_c, 1, 71, 0
1, 139260, Note_off_c, 1, 67, 0
1, 139260, Note_off_c, 1, 64, 0
1, 139260, Note_on_c, 1, 69, 127
1, 139260, Note_on_c, 1, 66, 127
1, 139260, Note_on_c, 1, 63, 127
1, 139500, Note_off_c, 1, 69, 0
1, 139500, Note_off_c, 1, 66, 0
1, 139500, Note_off_c, 1, 63, 0
1, 139500, Note_on_c, 1, 59, 127
1, 139740, Note_on_c, 1, 79, 127
1, 139769, Note_off_c, 1, 79, 0
1, 139860, Note_off_c, 1, 59, 0
1, 139860, Note_on_c, 1, 73, 127
1, 139860, Note_on_c, 1, 61, 127
1, 139919, Note_off_c, 1, 73, 0
1, 139980, Note_off_c, 1, 52, 0
1, 139980, Note_on_c, 1, 78, 127
1, 139980, Note_on_c, 1, 46, 127
1, 140039, Note_off_c, 1, 78, 0
1, 140280, Note_on_c, 1, 70, 127
1, 140309, Note_off_c, 1, 70, 0
1, 140460, Note_on_c, 1, 74, 127
1, 140519, Note_off_c, 1, 74, 0
1, 140700, Note_off_c, 1, 61, 0
1, 140700, Note_off_c, 1, 46, 0
1, 140700, Note_on_c, 1, 47, 127
1, 140700, Note_on_c, 1, 62, 127
1, 140940, Note_off_c, 1, 62, 0
1, 140940, Note_on_c, 1, 68, 127
1, 141060, Note_off_c, 1, 47, 0
1, 141060, Note_off_c, 1, 68, 0
1, 141060, Note_on_c, 1, 45, 127
1, 141180, Note_off_c, 1, 45, 0
1, 141180, Note_on_c, 1, 50, 127
1, 141300, Note_off_c, 1, 50, 0
1, 141360, Note_on_c, 1, 66, 127
1, 141419, Note_off_c, 1, 66, 0
1, 141420, Note_on_c, 1, 49, 127
1, 141420, Note_on_c, 1, 66, 127
1, 141420, Note_on_c, 1, 69, 127
1, 141480, Note_off_c, 1, 66, 0
1, 141480, Note_off_c, 1, 69, 0
1, 141480, Note_on_c, 1, 65, 127
1, 141480, Note_on_c, 1, 68, 127
1, 141540, Note_off_c, 1, 49, 0
1, 141540, Note_off_c, 1, 65, 0
1, 141540, Note_off_c, 1, 68, 0
1, 141540, Note_on_c, 1, 42, 127
1, 141540, Note_on_c, 1, 61, 127
1, 141660, Note_off_c, 1, 42, 0
1, 141660, Note_off_c, 1, 61, 0
1, 141900, Note_on_c, 1, 78, 127
1, 141900, Note_on_c, 1, 66, 127
1, 141900, Note_on_c, 1, 61, 127
1, 141900, Note_on_c, 1, 57, 127
1, 141900, Note_on_c, 1, 54, 127
1, 141959, Note_off_c, 1, 78, 0
1, 141959, Note_off_c, 1, 66, 0
1, 141959, Note_off_c, 1, 57, 0
1, 141960, Note_on_c, 1, 80, 127
1, 141960, Note_on_c, 1, 68, 127
1, 141960, Note_on_c, 1, 59, 127
1, 142019, Note_off_c, 1, 61, 0
1, 142019, Note_off_c, 1, 54, 0
1, 142019, Note_off_c, 1, 80, 0
1, 142019, Note_off_c, 1, 68, 0
1, 142019, Note_off_c, 1, 59, 0
1, 142020, Note_on_c, 1, 81, 127
1, 142020, Note_on_c, 1, 69, 127
1, 142020, Note_on_c, 1, 66, 127
1, 142020, Note_on_c, 1, 61, 127
1, 142020, Note_on_c, 1, 54, 127
1, 142049, Note_off_c, 1, 54, 0
1, 142050, Note_on_c, 1, 56, 127
1, 142079, Note_off_c, 1, 56, 0
1, 142080, Note_on_c, 1, 57, 127
1, 142109, Note_off_c, 1, 57, 0
1, 142110, Note_on_c, 1, 59, 127
1, 142139, Note_off_c, 1, 81, 0
1, 142139, Note_off_c, 1, 69, 0
1, 142139, Note_off_c, 1, 66, 0
1, 142139, Note_off_c, 1, 61, 0
1, 142139, Note_off_c, 1, 59, 0
1, 142140, Note_on_c, 1, 80, 127
1, 142140, Note_on_c, 1, 68, 127
1, 142140, Note_on_c, 1, 65, 127
1, 142140, Note_on_c, 1, 61, 127
1, 142199, Note_off_c, 1, 61, 0
1, 142200, Note_on_c, 1, 59, 127
1, 142200, Note_on_c, 1, 49, 127
1, 142259, Note_off_c, 1, 80, 0
1, 142259, Note_off_c, 1, 68, 0
1, 142259, Note_off_c, 1, 65, 0
1, 142259, Note_off_c, 1, 59, 0
1, 142259, Note_off_c, 1, 49, 0
1, 142260, Note_on_c, 1, 78, 127
1, 142260, Note_on_c, 1, 66, 127
1, 142260, Note_on_c, 1, 57, 127
1, 142260, Note_on_c, 1, 50, 127
1, 142379, Note_off_c, 1, 78, 0
1, 142379, Note_off_c, 1, 66, 0
1, 142379, Note_off_c, 1, 57, 0
1, 142379, Note_off_c, 1, 50, 0
1, 142380, Note_on_c, 1, 78, 127
1, 142380, Note_on_c, 1, 66, 127
1, 142380, Note_on_c, 1, 59, 127
1, 142380, Note_on_c, 1, 50, 127
1, 142439, Note_off_c, 1, 78, 0
1, 142440, Note_on_c, 1, 80, 127
1, 142440, Note_on_c, 1, 68, 127
1, 142499, Note_off_c, 1, 66, 0
1, 142499, Note_off_c, 1, 59, 0
1, 142499, Note_off_c, 1, 50, 0
1, 142499, Note_off_c, 1, 80, 0
1, 142499, Note_off_c, 1, 68, 0
1, 142500, Note_on_c, 1, 81, 127
1, 142500, Note_on_c, 1, 69, 127
1, 142500, Note_on_c, 1, 66, 127
1, 142500, Note_on_c, 1, 61, 127
1, 142500, Note_on_c, 1, 49, 127
1, 142559, Note_off_c, 1, 49, 0
1, 142560, Note_on_c, 1, 47, 127
1, 142619, Note_off_c, 1, 81, 0
1, 142619, Note_off_c, 1, 69, 0
1, 142619, Note_off_c, 1, 66, 0
1, 142619, Note_off_c, 1, 61, 0
1, 142619, Note_off_c, 1, 47, 0
1, 142620, Note_on_c, 1, 80, 127
1, 142620, Note_on_c, 1, 68, 127
1, 142620, Note_on_c, 1, 65, 127
1, 142620, Note_on_c, 1, 61, 127
1, 142620, Note_on_c, 1, 49, 127
1, 142679, Note_off_c, 1, 61, 0
1, 142680, Note_on_c, 1, 59, 127
1, 142739, Note_off_c, 1, 80, 0
1, 142739, Note_off_c, 1, 68, 0
1, 142739, Note_off_c, 1, 65, 0
1, 142739, Note_off_c, 1, 49, 0
1, 142739, Note_off_c, 1, 59, 0
1, 142740, Note_on_c, 1, 78, 127
1, 142740, Note_on_c, 1, 66, 127
1, 142740, Note_on_c, 1, 61, 127
1, 142740, Note_on_c, 1, 57, 127
1, 142740, Note_on_c, 1, 42, 127
1, 142859, Note_off_c, 1, 78, 0
1, 142859, Note_off_c, 1, 66, 0
1, 142859, Note_off_c, 1, 61, 0
1, 142859, Note_off_c, 1, 57, 0
1, 142859, Note_off_c, 1, 42, 0
1, 142860, Note_on_c, 1, 85, 127
1, 142860, Note_on_c, 1, 73, 127
1, 142860, Note_on_c, 1, 66, 127
1, 142860, Note_on_c, 1, 57, 127
1, 142860, Note_on_c, 1, 54, 127
1, 142979, Note_off_c, 1, 85, 0
1, 142979, Note_off_c, 1, 73, 0
1, 142979, Note_off_c, 1, 66, 0
1, 142979, Note_off_c, 1, 57, 0
1, 142979, Note_off_c, 1, 54, 0
1, 142980, Note_on_c, 1, 83, 127
1, 142980, Note_on_c, 1, 71, 127
1, 142980, Note_on_c, 1, 66, 127
1, 142980, Note_on_c, 1, 59, 127
1, 142980, Note_on_c, 1, 56, 127
1, 143039, Note_off_c, 1, 66, 0
1, 143040, Note_on_c, 1, 65, 127
1, 143099, Note_off_c, 1, 83, 0
1, 143099, Note_off_c, 1, 71, 0
1, 143099, Note_off_c, 1, 59, 0
1, 143099, Note_off_c, 1, 56, 0
1, 143099, Note_off_c, 1, 65, 0
1, 143100, Note_on_c, 1, 81, 127
1, 143100, Note_on_c, 1, 69, 127
1, 143100, Note_on_c, 1, 66, 127
1, 143100, Note_on_c, 1, 61, 127
1, 143100, Note_on_c, 1, 57, 127
1, 143159, Note_off_c, 1, 57, 0
1, 143160, Note_on_c, 1, 59, 127
1, 143219, Note_off_c, 1, 81, 0
1, 143219, Note_off_c, 1, 69, 0
1, 143219, Note_off_c, 1, 66, 0
1, 143219, Note_off_c, 1, 61, 0
1, 143219, Note_off_c, 1, 59, 0
1, 143220, Note_on_c, 1, 80, 127
1, 143220, Note_on_c, 1, 68, 127
1, 143220, Note_on_c, 1, 65, 127
1, 143220, Note_on_c, 1, 61, 127
1, 143339, Note_off_c, 1, 80, 0
1, 143339, Note_off_c, 1, 68, 0
1, 143339, Note_off_c, 1, 65, 0
1, 143339, Note_off_c, 1, 61, 0
1, 143340, Note_on_c, 1, 80, 127
1, 143340, Note_on_c, 1, 68, 127
1, 143340, Note_on_c, 1, 65, 127
1, 143340, Note_on_c, 1, 61, 127
1, 143340, Note_on_c, 1, 49, 127
1, 143459, Note_off_c, 1, 80, 0
1, 143459, Note_off_c, 1, 68, 0
1, 143459, Note_off_c, 1, 65, 0
1, 143459, Note_off_c, 1, 61, 0
1, 143459, Note_off_c, 1, 49, 0
1, 143460, Note_on_c, 1, 81, 127
1, 143460, Note_on_c, 1, 69, 127
1, 143460, Note_on_c, 1, 66, 127
1, 143460, Note_on_c, 1, 61, 127
1, 143460, Note_on_c, 1, 54, 127
1, 143519, Note_off_c, 1, 54, 0
1, 143520, Note_on_c, 1, 52, 127
1, 143579, Note_off_c, 1, 81, 0
1, 143579, Note_off_c, 1, 69, 0
1, 143579, Note_off_c, 1, 66, 0
1, 143579, Note_off_c, 1, 61, 0
1, 143579, Note_off_c, 1, 52, 0
1, 143580, Note_on_c, 1, 81, 127
1, 143580, Note_on_c, 1, 69, 127
1, 143580, Note_on_c, 1, 66, 127
1, 143580, Note_on_c, 1, 62, 127
1, 143580, Note_on_c, 1, 50, 127
1, 143639, Note_off_c, 1, 50, 0
1, 143640, Note_on_c, 1, 49, 127
1, 143699, Note_off_c, 1, 81, 0
1, 143699, Note_off_c, 1, 69, 0
1, 143699, Note_off_c, 1, 66, 0
1, 143699, Note_off_c, 1, 62, 0
1, 143699, Note_off_c, 1, 49, 0
1, 143700, Note_on_c, 1, 83, 127
1, 143700, Note_on_c, 1, 71, 127
1, 143700, Note_on_c, 1, 66, 127
1, 143700, Note_on_c, 1, 62, 127
1, 143700, Note_on_c, 1, 50, 127
1, 143759, Note_off_c, 1, 66, 0
1, 143759, Note_off_c, 1, 62, 0
1, 143759, Note_off_c, 1, 50, 0
1, 143760, Note_on_c, 1, 68, 127
1, 143760, Note_on_c, 1, 64, 127
1, 143760, Note_on_c, 1, 47, 127
1, 143789, Note_off_c, 1, 68, 0
1, 143789, Note_off_c, 1, 64, 0
1, 143790, Note_on_c, 1, 69, 127
1, 143819, Note_off_c, 1, 83, 0
1, 143819, Note_off_c, 1, 71, 0
1, 143819, Note_off_c, 1, 47, 0
1, 143819, Note_off_c, 1, 69, 0
1, 143820, Note_on_c, 1, 83, 127
1, 143820, Note_on_c, 1, 71, 127
1, 143820, Note_on_c, 1, 68, 127
1, 143820, Note_on_c, 1, 64, 127
1, 143820, Note_on_c, 1, 52, 127
1, 143879, Note_off_c, 1, 64, 0
1, 143880, Note_on_c, 1, 62, 127
1, 143880, Note_on_c, 1, 40, 127
1, 143939, Note_off_c, 1, 83, 0
1, 143939, Note_off_c, 1, 71, 0
1, 143939, Note_off_c, 1, 68, 0
1, 143939, Note_off_c, 1, 52, 0
1, 143939, Note_off_c, 1, 62, 0
1, 143939, Note_off_c, 1, 40, 0
1, 143940, Note_on_c, 1, 85, 127
1, 143940, Note_on_c, 1, 73, 127
1, 143940, Note_on_c, 1, 68, 127
1, 143940, Note_on_c, 1, 61, 127
1, 143940, Note_on_c, 1, 45, 127
1, 143999, Note_off_c, 1, 68, 0
1, 143999, Note_off_c, 1, 45, 0
1, 144000, Note_on_c, 1, 66, 127
1, 144000, Note_on_c, 1, 57, 127
1, 144059, Note_off_c, 1, 85, 0
1, 144059, Note_off_c, 1, 73, 0
1, 144059, Note_off_c, 1, 61, 0
1, 144059, Note_off_c, 1, 66, 0
1, 144059, Note_off_c, 1, 57, 0
1, 144060, Note_on_c, 1, 85, 127
1, 144060, Note_on_c, 1, 73, 127
1, 144060, Note_on_c, 1, 65, 127
1, 144060, Note_on_c, 1, 59, 127
1, 144060, Note_on_c, 1, 56, 127
1, 144119, Note_off_c, 1, 65, 0
1, 144119, Note_off_c, 1, 59, 0
1, 144119, Note_off_c, 1, 56, 0
1, 144120, Note_on_c, 1, 66, 127
1, 144120, Note_on_c, 1, 57, 127
1, 144120, Note_on_c, 1, 54, 127
1, 144179, Note_off_c, 1, 85, 0
1, 144179, Note_off_c, 1, 73, 0
1, 144179, Note_off_c, 1, 66, 0
1, 144179, Note_off_c, 1, 57, 0
1, 144180, Note_on_c, 1, 83, 127
1, 144180, Note_on_c, 1, 71, 127
1, 144180, Note_on_c, 1, 68, 127
1, 144180, Note_on_c, 1, 62, 127
1, 144239, Note_off_c, 1, 54, 0
1, 144239, Note_off_c, 1, 62, 0
1, 144240, Note_on_c, 1, 61, 127
1, 144240, Note_on_c, 1, 53, 127
1, 144299, Note_off_c, 1, 83, 0
1, 144299, Note_off_c, 1, 71, 0
1, 144299, Note_off_c, 1, 61, 0
1, 144299, Note_off_c, 1, 53, 0
1, 144300, Note_on_c, 1, 81, 127
1, 144300, Note_on_c, 1, 69, 127
1, 144359, Note_off_c, 1, 68, 0
1, 144360, Note_on_c, 1, 50, 127
1, 144419, Note_off_c, 1, 81, 0
1, 144419, Note_off_c, 1, 69, 0
1, 144419, Note_off_c, 1, 50, 0
1, 144420, Note_on_c, 1, 80, 127
1, 144420, Note_on_c, 1, 68, 127
1, 144420, Note_on_c, 1, 66, 127
1, 144420, Note_on_c, 1, 62, 127
1, 144420, Note_on_c, 1, 47, 127
1, 144479, Note_off_c, 1, 62, 0
1, 144479, Note_off_c, 1, 47, 0
1, 144480, Note_on_c, 1, 59, 127
1, 144480, Note_on_c, 1, 44, 127
1, 144539, Note_off_c, 1, 66, 0
1, 144539, Note_off_c, 1, 59, 0
1, 144539, Note_off_c, 1, 44, 0
1, 144540, Note_on_c, 1, 65, 127
1, 144540, Note_on_c, 1, 56, 127
1, 144540, Note_on_c, 1, 49, 127
1, 144599, Note_off_c, 1, 56, 0
1, 144600, Note_on_c, 1, 61, 127
1, 144659, Note_off_c, 1, 80, 0
1, 144659, Note_off_c, 1, 68, 0
1, 144659, Note_off_c, 1, 65, 0
1, 144659, Note_off_c, 1, 49, 0
1, 144659, Note_off_c, 1, 61, 0
1, 144660, Note_on_c, 1, 73, 127
1, 144660, Note_on_c, 1, 61, 127
1, 144660, Note_on_c, 1, 57, 127
1, 144660, Note_on_c, 1, 42, 127
1, 144779, Note_off_c, 1, 73, 0
1, 144779, Note_off_c, 1, 61, 0
1, 144779, Note_off_c, 1, 57, 0
1, 144779, Note_off_c, 1, 42, 0
1, 144780, Note_on_c, 1, 85, 127
1, 144780, Note_on_c, 1, 73, 127
1, 144780, Note_on_c, 1, 66, 127
1, 144780, Note_on_c, 1, 57, 127
1, 144780, Note_on_c, 1, 54, 127
1, 144839, Note_off_c, 1, 54, 0
1, 144840, Note_on_c, 1, 52, 127
1, 144899, Note_off_c, 1, 85, 0
1, 144899, Note_off_c, 1, 73, 0
1, 144899, Note_off_c, 1, 66, 0
1, 144899, Note_off_c, 1, 57, 0
1, 144899, Note_off_c, 1, 52, 0
1, 144900, Note_on_c, 1, 83, 127
1, 144900, Note_on_c, 1, 71, 127
1, 144900, Note_on_c, 1, 66, 127
1, 144900, Note_on_c, 1, 59, 127
1, 144900, Note_on_c, 1, 50, 127
1, 144959, Note_off_c, 1, 66, 0
1, 144959, Note_off_c, 1, 59, 0
1, 144959, Note_off_c, 1, 50, 0
1, 144960, Note_on_c, 1, 65, 127
1, 144960, Note_on_c, 1, 61, 127
1, 144960, Note_on_c, 1, 49, 127
1, 145019, Note_off_c, 1, 83, 0
1, 145019, Note_off_c, 1, 71, 0
1, 145019, Note_off_c, 1, 65, 0
1, 145019, Note_off_c, 1, 61, 0
1, 145019, Note_off_c, 1, 49, 0
1, 145020, Note_on_c, 1, 81, 127
1, 145020, Note_on_c, 1, 69, 127
1, 145020, Note_on_c, 1, 66, 127
1, 145020, Note_on_c, 1, 63, 127
1, 145020, Note_on_c, 1, 48, 127
1, 145079, Note_off_c, 1, 81, 0
1, 145079, Note_off_c, 1, 69, 0
1, 145080, Note_on_c, 1, 80, 127
1, 145080, Note_on_c, 1, 68, 127
1, 145139, Note_off_c, 1, 66, 0
1, 145139, Note_off_c, 1, 63, 0
1, 145139, Note_off_c, 1, 48, 0
1, 145139, Note_off_c, 1, 80, 0
1, 145139, Note_off_c, 1, 68, 0
1, 145140, Note_on_c, 1, 80, 127
1, 145140, Note_on_c, 1, 68, 127
1, 145140, Note_on_c, 1, 65, 127
1, 145140, Note_on_c, 1, 61, 127
1, 145140, Note_on_c, 1, 49, 127
1, 145259, Note_off_c, 1, 80, 0
1, 145259, Note_off_c, 1, 68, 0
1, 145259, Note_off_c, 1, 65, 0
1, 145259, Note_off_c, 1, 61, 0
1, 145259, Note_off_c, 1, 49, 0
1, 145260, Note_on_c, 1, 85, 127
1, 145260, Note_on_c, 1, 73, 127
1, 145260, Note_on_c, 1, 66, 127
1, 145260, Note_on_c, 1, 61, 127
1, 145260, Note_on_c, 1, 45, 127
1, 145319, Note_off_c, 1, 66, 0
1, 145320, Note_on_c, 1, 64, 127
1, 145379, Note_off_c, 1, 85, 0
1, 145379, Note_off_c, 1, 73, 0
1, 145379, Note_off_c, 1, 61, 0
1, 145379, Note_off_c, 1, 45, 0
1, 145379, Note_off_c, 1, 64, 0
1, 145380, Note_on_c, 1, 83, 127
1, 145380, Note_on_c, 1, 71, 127
1, 145380, Note_on_c, 1, 63, 127
1, 145380, Note_on_c, 1, 54, 127
1, 145380, Note_on_c, 1, 47, 127
1, 145439, Note_off_c, 1, 63, 0
1, 145439, Note_off_c, 1, 47, 0
1, 145440, Note_on_c, 1, 64, 127
1, 145440, Note_on_c, 1, 49, 127
1, 145499, Note_off_c, 1, 83, 0
1, 145499, Note_off_c, 1, 71, 0
1, 145499, Note_off_c, 1, 54, 0
1, 145499, Note_off_c, 1, 64, 0
1, 145499, Note_off_c, 1, 49, 0
1, 145500, Note_on_c, 1, 81, 127
1, 145500, Note_on_c, 1, 69, 127
1, 145500, Note_on_c, 1, 66, 127
1, 145500, Note_on_c, 1, 59, 127
1, 145500, Note_on_c, 1, 51, 127
1, 145559, Note_off_c, 1, 66, 0
1, 145559, Note_off_c, 1, 51, 0
1, 145560, Note_on_c, 1, 63, 127
1, 145560, Note_on_c, 1, 47, 127
1, 145619, Note_off_c, 1, 81, 0
1, 145619, Note_off_c, 1, 69, 0
1, 145619, Note_off_c, 1, 59, 0
1, 145619, Note_off_c, 1, 63, 0
1, 145619, Note_off_c, 1, 47, 0
1, 145620, Note_on_c, 1, 80, 127
1, 145620, Note_on_c, 1, 68, 127
1, 145620, Note_on_c, 1, 64, 127
1, 145620, Note_on_c, 1, 59, 127
1, 145620, Note_on_c, 1, 52, 127
1, 145739, Note_off_c, 1, 80, 0
1, 145739, Note_off_c, 1, 68, 0
1, 145739, Note_off_c, 1, 64, 0
1, 145739, Note_off_c, 1, 59, 0
1, 145739, Note_off_c, 1, 52, 0
1, 145740, Note_on_c, 1, 80, 127
1, 145740, Note_on_c, 1, 68, 127
1, 145740, Note_on_c, 1, 61, 127
1, 145740, Note_on_c, 1, 53, 127
1, 145799, Note_off_c, 1, 53, 0
1, 145800, Note_on_c, 1, 65, 127
1, 145800, Note_on_c, 1, 49, 127
1, 145859, Note_off_c, 1, 80, 0
1, 145859, Note_off_c, 1, 68, 0
1, 145859, Note_off_c, 1, 65, 0
1, 145859, Note_off_c, 1, 49, 0
1, 145860, Note_on_c, 1, 81, 127
1, 145860, Note_on_c, 1, 69, 127
1, 145860, Note_on_c, 1, 66, 127
1, 145860, Note_on_c, 1, 54, 127
1, 145919, Note_off_c, 1, 61, 0
1, 145920, Note_on_c, 1, 57, 127
1, 145920, Note_on_c, 1, 42, 127
1, 145979, Note_off_c, 1, 81, 0
1, 145979, Note_off_c, 1, 69, 0
1, 145979, Note_off_c, 1, 66, 0
1, 145979, Note_off_c, 1, 54, 0
1, 145979, Note_off_c, 1, 57, 0
1, 145979, Note_off_c, 1, 42, 0
1, 145980, Note_on_c, 1, 81, 127
1, 145980, Note_on_c, 1, 69, 127
1, 145980, Note_on_c, 1, 62, 127
1, 145980, Note_on_c, 1, 54, 127
1, 146039, Note_off_c, 1, 54, 0
1, 146040, Note_on_c, 1, 66, 127
1, 146040, Note_on_c, 1, 50, 127
1, 146099, Note_off_c, 1, 81, 0
1, 146099, Note_off_c, 1, 69, 0
1, 146099, Note_off_c, 1, 66, 0
1, 146099, Note_off_c, 1, 50, 0
1, 146100, Note_on_c, 1, 83, 127
1, 146100, Note_on_c, 1, 71, 127
1, 146100, Note_on_c, 1, 55, 127
1, 146160, Note_on_c, 1, 59, 127
1, 146160, Note_on_c, 1, 43, 127
1, 146219, Note_off_c, 1, 62, 0
1, 146219, Note_off_c, 1, 83, 0
1, 146219, Note_off_c, 1, 71, 0
1, 146219, Note_off_c, 1, 55, 0
1, 146219, Note_off_c, 1, 59, 0
1, 146219, Note_off_c, 1, 43, 0
1, 146220, Note_on_c, 1, 83, 127
1, 146220, Note_on_c, 1, 71, 127
1, 146220, Note_on_c, 1, 64, 127
1, 146220, Note_on_c, 1, 56, 127
1, 146279, Note_off_c, 1, 56, 0
1, 146280, Note_on_c, 1, 68, 127
1, 146280, Note_on_c, 1, 52, 127
1, 146339, Note_off_c, 1, 83, 0
1, 146339, Note_off_c, 1, 71, 0
1, 146339, Note_off_c, 1, 68, 0
1, 146339, Note_off_c, 1, 52, 0
1, 146340, Note_on_c, 1, 85, 127
1, 146340, Note_on_c, 1, 73, 127
1, 146340, Note_on_c, 1, 69, 127
1, 146340, Note_on_c, 1, 57, 127
1, 146399, Note_off_c, 1, 64, 0
1, 146399, Note_off_c, 1, 69, 0
1, 146400, Note_on_c, 1, 61, 127
1, 146400, Note_on_c, 1, 45, 127
1, 146459, Note_off_c, 1, 85, 0
1, 146459, Note_off_c, 1, 73, 0
1, 146459, Note_off_c, 1, 57, 0
1, 146459, Note_off_c, 1, 61, 0
1, 146459, Note_off_c, 1, 45, 0
1, 146460, Note_on_c, 1, 85, 127
1, 146460, Note_on_c, 1, 73, 127
1, 146460, Note_on_c, 1, 66, 127
1, 146460, Note_on_c, 1, 58, 127
1, 146519, Note_off_c, 1, 58, 0
1, 146520, Note_on_c, 1, 64, 127
1, 146520, Note_on_c, 1, 54, 127
1, 146579, Note_off_c, 1, 85, 0
1, 146579, Note_off_c, 1, 73, 0
1, 146579, Note_off_c, 1, 64, 0
1, 146579, Note_off_c, 1, 54, 0
1, 146580, Note_on_c, 1, 83, 127
1, 146580, Note_on_c, 1, 71, 127
1, 146580, Note_on_c, 1, 62, 127
1, 146580, Note_on_c, 1, 59, 127
1, 146639, Note_off_c, 1, 66, 0
1, 146639, Note_off_c, 1, 62, 0
1, 146640, Note_on_c, 1, 65, 127
1, 146640, Note_on_c, 1, 61, 127
1, 146640, Note_on_c, 1, 47, 127
1, 146699, Note_off_c, 1, 83, 0
1, 146699, Note_off_c, 1, 71, 0
1, 146699, Note_off_c, 1, 59, 0
1, 146699, Note_off_c, 1, 65, 0
1, 146699, Note_off_c, 1, 61, 0
1, 146699, Note_off_c, 1, 47, 0
1, 146700, Note_on_c, 1, 81, 127
1, 146700, Note_on_c, 1, 69, 127
1, 146700, Note_on_c, 1, 66, 127
1, 146700, Note_on_c, 1, 63, 127
1, 146700, Note_on_c, 1, 60, 127
1, 146759, Note_off_c, 1, 81, 0
1, 146759, Note_off_c, 1, 69, 0
1, 146759, Note_off_c, 1, 60, 0
1, 146760, Note_on_c, 1, 80, 127
1, 146760, Note_on_c, 1, 68, 127
1, 146760, Note_on_c, 1, 56, 127
1, 146819, Note_off_c, 1, 63, 0
1, 146819, Note_off_c, 1, 80, 0
1, 146819, Note_off_c, 1, 68, 0
1, 146819, Note_off_c, 1, 56, 0
1, 146820, Note_on_c, 1, 61, 127
1, 146879, Note_off_c, 1, 66, 0
1, 146880, Note_on_c, 1, 65, 127
1, 146910, Note_off_c, 1, 65, 0
1, 146939, Note_off_c, 1, 61, 0
1, 146940, Note_on_c, 1, 49, 127
1, 147000, Note_on_c, 1, 59, 127
1, 147059, Note_off_c, 1, 49, 0
1, 147059, Note_off_c, 1, 59, 0
1, 147060, Note_on_c, 1, 78, 127
1, 147060, Note_on_c, 1, 57, 127
1, 147060, Note_on_c, 1, 54, 127
1, 147060, Note_on_c, 1, 42, 127
1, 147179, Note_off_c, 1, 78, 0
1, 147179, Note_off_c, 1, 57, 0
1, 147179, Note_off_c, 1, 54, 0
1, 147179, Note_off_c, 1, 42, 0
1, 147300, Note_on_c, 1, 78, 127
1, 147300, Note_on_c, 1, 74, 127
1, 147300, Note_on_c, 1, 69, 127
1, 147300, Note_on_c, 1, 50, 127
1, 147300, Note_on_c, 1, 62, 127
1, 147359, Note_off_c, 1, 78, 0
1, 147359, Note_off_c, 1, 74, 0
1, 147359, Note_off_c, 1, 69, 0
1, 147359, Note_off_c, 1, 50, 0
1, 147359, Note_off_c, 1, 62, 0
1, 147360, Note_on_c, 1, 78, 127
1, 147360, Note_on_c, 1, 74, 127
1, 147360, Note_on_c, 1, 69, 127
1, 147360, Note_on_c, 1, 50, 127
1, 147419, Note_off_c, 1, 78, 0
1, 147419, Note_off_c, 1, 74, 0
1, 147419, Note_off_c, 1, 69, 0
1, 147419, Note_off_c, 1, 50, 0
1, 147420, Note_on_c, 1, 78, 127
1, 147420, Note_on_c, 1, 74, 127
1, 147420, Note_on_c, 1, 69, 127
1, 147420, Note_on_c, 1, 50, 127
1, 147420, Note_on_c, 1, 61, 127
1, 147479, Note_off_c, 1, 78, 0
1, 147479, Note_off_c, 1, 74, 0
1, 147479, Note_off_c, 1, 69, 0
1, 147479, Note_off_c, 1, 50, 0
1, 147479, Note_off_c, 1, 61, 0
1, 147480, Note_on_c, 1, 78, 127
1, 147480, Note_on_c, 1, 74, 127
1, 147480, Note_on_c, 1, 62, 127
1, 147480, Note_on_c, 1, 50, 127
1, 147480, Note_on_c, 1, 71, 127
1, 147480, Note_on_c, 1, 59, 127
1, 147539, Note_off_c, 1, 78, 0
1, 147539, Note_off_c, 1, 74, 0
1, 147539, Note_off_c, 1, 62, 0
1, 147539, Note_off_c, 1, 50, 0
1, 147539, Note_off_c, 1, 71, 0
1, 147539, Note_off_c, 1, 59, 0
1, 147540, Note_on_c, 1, 74, 127
1, 147540, Note_on_c, 1, 71, 127
1, 147540, Note_on_c, 1, 66, 127
1, 147540, Note_on_c, 1, 47, 127
1, 147569, Note_off_c, 1, 74, 0
1, 147569, Note_off_c, 1, 71, 0
1, 147570, Note_on_c, 1, 76, 127
1, 147570, Note_on_c, 1, 73, 127
1, 147599, Note_off_c, 1, 66, 0
1, 147599, Note_off_c, 1, 47, 0
1, 147599, Note_off_c, 1, 76, 0
1, 147599, Note_off_c, 1, 73, 0
1, 147600, Note_on_c, 1, 78, 127
1, 147600, Note_on_c, 1, 74, 127
1, 147600, Note_on_c, 1, 71, 127
1, 147600, Note_on_c, 1, 59, 127
1, 147629, Note_off_c, 1, 78, 0
1, 147629, Note_off_c, 1, 74, 0
1, 147630, Note_on_c, 1, 79, 127
1, 147659, Note_off_c, 1, 71, 0
1, 147659, Note_off_c, 1, 59, 0
1, 147659, Note_off_c, 1, 79, 0
1, 147660, Note_on_c, 1, 81, 127
1, 147660, Note_on_c, 1, 76, 127
1, 147660, Note_on_c, 1, 69, 127
1, 147660, Note_on_c, 1, 61, 127
1, 147689, Note_off_c, 1, 76, 0
1, 147690, Note_on_c, 1, 75, 127
1, 147719, Note_off_c, 1, 81, 0
1, 147719, Note_off_c, 1, 69, 0
1, 147719, Note_off_c, 1, 61, 0
1, 147719, Note_off_c, 1, 75, 0
1, 147720, Note_on_c, 1, 79, 127
1, 147720, Note_on_c, 1, 76, 127
1, 147720, Note_on_c, 1, 64, 127
1, 147720, Note_on_c, 1, 49, 127
1, 147779, Note_off_c, 1, 79, 0
1, 147779, Note_off_c, 1, 76, 0
1, 147779, Note_off_c, 1, 64, 0
1, 147779, Note_off_c, 1, 49, 0
1, 147780, Note_on_c, 1, 78, 127
1, 147780, Note_on_c, 1, 71, 127
1, 147780, Note_on_c, 1, 51, 127
1, 147839, Note_off_c, 1, 71, 0
1, 147839, Note_off_c, 1, 51, 0
1, 147840, Note_on_c, 1, 79, 127
1, 147840, Note_on_c, 1, 52, 127
1, 147899, Note_off_c, 1, 78, 0
1, 147899, Note_off_c, 1, 52, 0
1, 147900, Note_on_c, 1, 76, 127
1, 147900, Note_on_c, 1, 59, 127
1, 147900, Note_on_c, 1, 55, 127
1, 147929, Note_off_c, 1, 79, 0
1, 147930, Note_on_c, 1, 81, 127
1, 147944, Note_off_c, 1, 81, 0
1, 147945, Note_on_c, 1, 83, 127
1, 147959, Note_off_c, 1, 76, 0
1, 147959, Note_off_c, 1, 59, 0
1, 147959, Note_off_c, 1, 55, 0
1, 147959, Note_off_c, 1, 83, 0
1, 147960, Note_on_c, 1, 81, 127
1, 147960, Note_on_c, 1, 75, 127
1, 147960, Note_on_c, 1, 71, 127
1, 147960, Note_on_c, 1, 59, 127
1, 148019, Note_off_c, 1, 81, 0
1, 148019, Note_off_c, 1, 75, 0
1, 148019, Note_off_c, 1, 71, 0
1, 148019, Note_off_c, 1, 59, 0
1, 148020, Note_on_c, 1, 79, 127
1, 148020, Note_on_c, 1, 76, 127
1, 148020, Note_on_c, 1, 71, 127
1, 148020, Note_on_c, 1, 64, 127
1, 148079, Note_off_c, 1, 79, 0
1, 148079, Note_off_c, 1, 76, 0
1, 148079, Note_off_c, 1, 71, 0
1, 148079, Note_off_c, 1, 64, 0
1, 148080, Note_on_c, 1, 79, 127
1, 148080, Note_on_c, 1, 76, 127
1, 148080, Note_on_c, 1, 71, 127
1, 148080, Note_on_c, 1, 52, 127
1, 148139, Note_off_c, 1, 79, 0
1, 148139, Note_off_c, 1, 76, 0
1, 148139, Note_off_c, 1, 71, 0
1, 148139, Note_off_c, 1, 52, 0
1, 148140, Note_on_c, 1, 79, 127
1, 148140, Note_on_c, 1, 76, 127
1, 148140, Note_on_c, 1, 71, 127
1, 148140, Note_on_c, 1, 62, 127
1, 148199, Note_off_c, 1, 79, 0
1, 148199, Note_off_c, 1, 76, 0
1, 148199, Note_off_c, 1, 71, 0
1, 148199, Note_off_c, 1, 62, 0
1, 148200, Note_on_c, 1, 79, 127
1, 148200, Note_on_c, 1, 76, 127
1, 148200, Note_on_c, 1, 69, 127
1, 148200, Note_on_c, 1, 61, 127
1, 148259, Note_off_c, 1, 79, 0
1, 148259, Note_off_c, 1, 76, 0
1, 148259, Note_off_c, 1, 69, 0
1, 148259, Note_off_c, 1, 61, 0
1, 148260, Note_on_c, 1, 76, 127
1, 148260, Note_on_c, 1, 69, 127
1, 148260, Note_on_c, 1, 49, 127
1, 148289, Note_off_c, 1, 76, 0
1, 148290, Note_on_c, 1, 74, 127
1, 148319, Note_off_c, 1, 69, 0
1, 148319, Note_off_c, 1, 49, 0
1, 148319, Note_off_c, 1, 74, 0
1, 148320, Note_on_c, 1, 76, 127
1, 148320, Note_on_c, 1, 74, 127
1, 148320, Note_on_c, 1, 67, 127
1, 148320, Note_on_c, 1, 59, 127
1, 148349, Note_off_c, 1, 76, 0
1, 148350, Note_on_c, 1, 78, 127
1, 148379, Note_off_c, 1, 74, 0
1, 148379, Note_off_c, 1, 67, 0
1, 148379, Note_off_c, 1, 59, 0
1, 148379, Note_off_c, 1, 78, 0
1, 148380, Note_on_c, 1, 79, 127
1, 148380, Note_on_c, 1, 76, 127
1, 148380, Note_on_c, 1, 69, 127
1, 148380, Note_on_c, 1, 45, 127
1, 148380, Note_on_c, 1, 73, 127
1, 148380, Note_on_c, 1, 64, 127
1, 148380, Note_on_c, 1, 57, 127
1, 148409, Note_off_c, 1, 79, 0
1, 148410, Note_on_c, 1, 78, 127
1, 148439, Note_off_c, 1, 76, 0
1, 148439, Note_off_c, 1, 69, 0
1, 148439, Note_off_c, 1, 45, 0
1, 148439, Note_off_c, 1, 73, 0
1, 148439, Note_off_c, 1, 64, 0
1, 148439, Note_off_c, 1, 57, 0
1, 148439, Note_off_c, 1, 78, 0
1, 148440, Note_on_c, 1, 81, 127
1, 148440, Note_on_c, 1, 78, 127
1, 148440, Note_on_c, 1, 62, 127
1, 148440, Note_on_c, 1, 50, 127
1, 148440, Note_on_c, 1, 54, 127
1, 148469, Note_off_c, 1, 81, 0
1, 148469, Note_off_c, 1, 78, 0
1, 148470, Note_on_c, 1, 79, 127
1, 148470, Note_on_c, 1, 76, 127
1, 148499, Note_off_c, 1, 62, 0
1, 148499, Note_off_c, 1, 50, 0
1, 148499, Note_off_c, 1, 54, 0
1, 148499, Note_off_c, 1, 79, 0
1, 148499, Note_off_c, 1, 76, 0
1, 148500, Note_on_c, 1, 78, 127
1, 148500, Note_on_c, 1, 74, 127
1, 148500, Note_on_c, 1, 69, 127
1, 148500, Note_on_c, 1, 45, 127
1, 148500, Note_on_c, 1, 57, 127
1, 148529, Note_off_c, 1, 78, 0
1, 148529, Note_off_c, 1, 74, 0
1, 148530, Note_on_c, 1, 76, 127
1, 148530, Note_on_c, 1, 73, 127
1, 148559, Note_off_c, 1, 69, 0
1, 148559, Note_off_c, 1, 45, 0
1, 148559, Note_off_c, 1, 57, 0
1, 148559, Note_off_c, 1, 76, 0
1, 148559, Note_off_c, 1, 73, 0
1, 148560, Note_on_c, 1, 78, 127
1, 148560, Note_on_c, 1, 74, 127
1, 148560, Note_on_c, 1, 69, 127
1, 148560, Note_on_c, 1, 50, 127
1, 148619, Note_off_c, 1, 74, 0
1, 148619, Note_off_c, 1, 69, 0
1, 148619, Note_off_c, 1, 50, 0
1, 148620, Note_on_c, 1, 54, 127
1, 148649, Note_off_c, 1, 78, 0
1, 148650, Note_on_c, 1, 79, 127
1, 148664, Note_off_c, 1, 79, 0
1, 148665, Note_on_c, 1, 81, 127
1, 148679, Note_off_c, 1, 54, 0
1, 148679, Note_off_c, 1, 81, 0
1, 148680, Note_on_c, 1, 79, 127
1, 148680, Note_on_c, 1, 73, 127
1, 148680, Note_on_c, 1, 69, 127
1, 148680, Note_on_c, 1, 57, 127
1, 148739, Note_off_c, 1, 79, 0
1, 148739, Note_off_c, 1, 73, 0
1, 148739, Note_off_c, 1, 69, 0
1, 148739, Note_off_c, 1, 57, 0
1, 148740, Note_on_c, 1, 78, 127
1, 148740, Note_on_c, 1, 74, 127
1, 148740, Note_on_c, 1, 57, 127
1, 148740, Note_on_c, 1, 62, 127
1, 148799, Note_off_c, 1, 78, 0
1, 148799, Note_off_c, 1, 74, 0
1, 148799, Note_off_c, 1, 57, 0
1, 148799, Note_off_c, 1, 62, 0
1, 148800, Note_on_c, 1, 80, 127
1, 148800, Note_on_c, 1, 71, 127
1, 148800, Note_on_c, 1, 64, 127
1, 148800, Note_on_c, 1, 50, 127
1, 148859, Note_off_c, 1, 80, 0
1, 148859, Note_off_c, 1, 71, 0
1, 148859, Note_off_c, 1, 64, 0
1, 148859, Note_off_c, 1, 50, 0
1, 148860, Note_on_c, 1, 81, 127
1, 148860, Note_on_c, 1, 76, 127
1, 148860, Note_on_c, 1, 64, 127
1, 148860, Note_on_c, 1, 61, 127
1, 148889, Note_off_c, 1, 76, 0
1, 148890, Note_on_c, 1, 78, 127
1, 148919, Note_off_c, 1, 81, 0
1, 148919, Note_off_c, 1, 64, 0
1, 148919, Note_off_c, 1, 61, 0
1, 148919, Note_off_c, 1, 78, 0
1, 148920, Note_on_c, 1, 83, 127
1, 148920, Note_on_c, 1, 80, 127
1, 148920, Note_on_c, 1, 64, 127
1, 148920, Note_on_c, 1, 59, 127
1, 148949, Note_off_c, 1, 83, 0
1, 148949, Note_off_c, 1, 80, 0
1, 148950, Note_on_c, 1, 85, 127
1, 148950, Note_on_c, 1, 81, 127
1, 148979, Note_off_c, 1, 64, 0
1, 148979, Note_off_c, 1, 59, 0
1, 148979, Note_off_c, 1, 85, 0
1, 148979, Note_off_c, 1, 81, 0
1, 148980, Note_on_c, 1, 86, 127
1, 148980, Note_on_c, 1, 83, 127
1, 148980, Note_on_c, 1, 64, 127
1, 148980, Note_on_c, 1, 56, 127
1, 149039, Note_off_c, 1, 86, 0
1, 149039, Note_off_c, 1, 83, 0
1, 149039, Note_off_c, 1, 64, 0
1, 149039, Note_off_c, 1, 56, 0
1, 149040, Note_on_c, 1, 85, 127
1, 149040, Note_on_c, 1, 81, 127
1, 149040, Note_on_c, 1, 64, 127
1, 149040, Note_on_c, 1, 57, 127
1, 149099, Note_off_c, 1, 85, 0
1, 149099, Note_off_c, 1, 81, 0
1, 149099, Note_off_c, 1, 64, 0
1, 149099, Note_off_c, 1, 57, 0
1, 149100, Note_on_c, 1, 83, 127
1, 149100, Note_on_c, 1, 78, 127
1, 149100, Note_on_c, 1, 66, 127
1, 149100, Note_on_c, 1, 50, 127
1, 149159, Note_off_c, 1, 83, 0
1, 149159, Note_off_c, 1, 78, 0
1, 149159, Note_off_c, 1, 66, 0
1, 149159, Note_off_c, 1, 50, 0
1, 149160, Note_on_c, 1, 81, 127
1, 149160, Note_on_c, 1, 71, 127
1, 149160, Note_on_c, 1, 64, 127
1, 149160, Note_on_c, 1, 52, 127
1, 149189, Note_off_c, 1, 71, 0
1, 149190, Note_on_c, 1, 73, 127
1, 149219, Note_off_c, 1, 81, 0
1, 149219, Note_off_c, 1, 64, 0
1, 149219, Note_off_c, 1, 52, 0
1, 149219, Note_off_c, 1, 73, 0
1, 149220, Note_on_c, 1, 80, 127
1, 149220, Note_on_c, 1, 74, 127
1, 149220, Note_on_c, 1, 64, 127
1, 149220, Note_on_c, 1, 40, 127
1, 149279, Note_off_c, 1, 80, 0
1, 149279, Note_off_c, 1, 74, 0
1, 149279, Note_off_c, 1, 64, 0
1, 149279, Note_off_c, 1, 40, 0
1, 149280, Note_on_c, 1, 81, 127
1, 149280, Note_on_c, 1, 73, 127
1, 149280, Note_on_c, 1, 64, 127
1, 149280, Note_on_c, 1, 45, 127
1, 149339, Note_off_c, 1, 73, 0
1, 149339, Note_off_c, 1, 64, 0
1, 149339, Note_off_c, 1, 45, 0
1, 149340, Note_on_c, 1, 69, 127
1, 149369, Note_off_c, 1, 69, 0
1, 149370, Note_on_c, 1, 71, 127
1, 149370, Note_on_c, 1, 68, 127
1, 149399, Note_off_c, 1, 71, 0
1, 149399, Note_off_c, 1, 68, 0
1, 149430, Note_on_c, 1, 74, 127
1, 149459, Note_off_c, 1, 74, 0
1, 149460, Note_on_c, 1, 76, 127
1, 149519, Note_off_c, 1, 76, 0
1, 149520, Note_on_c, 1, 79, 127
1, 149520, Note_on_c, 1, 61, 127
1, 149579, Note_off_c, 1, 61, 0
1, 149580, Note_off_c, 1, 79, 0
1, 149580, Note_on_c, 1, 78, 127
1, 149580, Note_on_c, 1, 50, 127
1, 149580, Note_on_c, 1, 62, 127
1, 149639, Note_off_c, 1, 50, 0
1, 149639, Note_off_c, 1, 62, 0
1, 149640, Note_off_c, 1, 78, 0
1, 149640, Note_on_c, 1, 57, 127
1, 149699, Note_off_c, 1, 57, 0
1, 149790, Note_on_c, 1, 66, 127
1, 149819, Note_off_c, 1, 66, 0
1, 149820, Note_on_c, 1, 67, 127
1, 149879, Note_off_c, 1, 67, 0
1, 149880, Note_on_c, 1, 49, 127
1, 149939, Note_off_c, 1, 49, 0
1, 150090, Note_on_c, 1, 55, 127
1, 150119, Note_off_c, 1, 55, 0
1, 150120, Note_on_c, 1, 54, 127
1, 150149, Note_off_c, 1, 54, 0
1, 150150, Note_on_c, 1, 52, 127
1, 150179, Note_off_c, 1, 52, 0
1, 150180, Note_off_c, 1, 81, 0
1, 150300, Note_on_c, 1, 62, 127
1, 150335, Note_off_c, 1, 62, 0
1, 150360, Note_on_c, 1, 78, 127
1, 150360, Note_on_c, 1, 71, 127
1, 150360, Note_on_c, 1, 62, 127
1, 150360, Note_on_c, 1, 47, 127
1, 150419, Note_off_c, 1, 78, 0
1, 150419, Note_off_c, 1, 47, 0
1, 150420, Note_off_c, 1, 71, 0
1, 150420, Note_off_c, 1, 62, 0
1, 150420, Note_on_c, 1, 66, 127
1, 150450, Note_off_c, 1, 66, 0
1, 150450, Note_on_c, 1, 64, 127
1, 150480, Note_off_c, 1, 64, 0
1, 150510, Note_on_c, 1, 61, 127
1, 150540, Note_off_c, 1, 61, 0
1, 150540, Note_on_c, 1, 81, 127
1, 150540, Note_on_c, 1, 42, 127
1, 150599, Note_off_c, 1, 81, 0
1, 150599, Note_off_c, 1, 42, 0
1, 150600, Note_on_c, 1, 83, 127
1, 150600, Note_on_c, 1, 76, 127
1, 150600, Note_on_c, 1, 43, 127
1, 150630, Note_off_c, 1, 76, 0
1, 150630, Note_on_c, 1, 74, 127
1, 150630, Note_on_c, 1, 59, 127
1, 150659, Note_off_c, 1, 83, 0
1, 150659, Note_off_c, 1, 43, 0
1, 150660, Note_off_c, 1, 74, 0
1, 150660, Note_off_c, 1, 59, 0
1, 150660, Note_on_c, 1, 85, 127
1, 150660, Note_on_c, 1, 73, 127
1, 150660, Note_on_c, 1, 57, 127
1, 150660, Note_on_c, 1, 45, 127
1, 150690, Note_off_c, 1, 73, 0
1, 150690, Note_off_c, 1, 57, 0
1, 150690, Note_on_c, 1, 55, 127
1, 150719, Note_off_c, 1, 85, 0
1, 150719, Note_off_c, 1, 45, 0
1, 150720, Note_off_c, 1, 55, 0
1, 150720, Note_on_c, 1, 86, 127
1, 150720, Note_on_c, 1, 69, 127
1, 150720, Note_on_c, 1, 54, 127
1, 150720, Note_on_c, 1, 38, 127
1, 150779, Note_off_c, 1, 86, 0
1, 150779, Note_off_c, 1, 38, 0
1, 150780, Note_off_c, 1, 69, 0
1, 150780, Note_off_c, 1, 54, 0
1, 150780, Note_on_c, 1, 67, 127
1, 150780, Note_on_c, 1, 52, 127
1, 150810, Note_off_c, 1, 52, 0
1, 150810, Note_on_c, 1, 50, 127
1, 150840, Note_off_c, 1, 67, 0
1, 150840, Note_off_c, 1, 50, 0
1, 150900, Note_on_c, 1, 88, 127
1, 150900, Note_on_c, 1, 49, 127
1, 150959, Note_off_c, 1, 88, 0
1, 150959, Note_off_c, 1, 49, 0
1, 151290, Note_on_c, 1, 56, 127
1, 151320, Note_off_c, 1, 56, 0
1, 151440, Note_on_c, 1, 79, 127
1, 151500, Note_off_c, 1, 79, 0
1, 151800, Note_on_c, 1, 48, 127
1, 151859, Note_off_c, 1, 48, 0
1, 152040, Note_on_c, 1, 72, 127
1, 152070, Note_off_c, 1, 72, 0
1, 153450, Note_on_c, 1, 75, 127
1, 153480, Note_off_c, 1, 75, 0
1, 153540, Note_on_c, 1, 51, 127
1, 153600, Note_off_c, 1, 51, 0
1, 154500, Note_on_c, 1, 78, 127
1, 154500, Note_on_c, 1, 74, 127
1, 154500, Note_on_c, 1, 57, 127
1, 154500, Note_on_c, 1, 66, 127
1, 154500, Note_on_c, 1, 62, 127
1, 154559, Note_off_c, 1, 78, 0
1, 154559, Note_off_c, 1, 57, 0
1, 154560, Note_off_c, 1, 74, 0
1, 154560, Note_off_c, 1, 66, 0
1, 154560, Note_on_c, 1, 80, 127
1, 154560, Note_on_c, 1, 71, 127
1, 154560, Note_on_c, 1, 64, 127
1, 154560, Note_on_c, 1, 68, 127
1, 154560, Note_on_c, 1, 50, 127
1, 154619, Note_off_c, 1, 80, 0
1, 154619, Note_off_c, 1, 50, 0
1, 154620, Note_off_c, 1, 62, 0
1, 154620, Note_off_c, 1, 71, 0
1, 154620, Note_off_c, 1, 68, 0
1, 154620, Note_on_c, 1, 81, 127
1, 154620, Note_on_c, 1, 76, 127
1, 154620, Note_on_c, 1, 73, 127
1, 154620, Note_on_c, 1, 69, 127
1, 154620, Note_on_c, 1, 61, 127
1, 154649, Note_off_c, 1, 76, 0
1, 154679, Note_off_c, 1, 81, 0
1, 154680, Note_off_c, 1, 73, 0
1, 154680, Note_off_c, 1, 69, 0
1, 154680, Note_off_c, 1, 61, 0
1, 154680, Note_on_c, 1, 83, 127
1, 154680, Note_on_c, 1, 59, 127
1, 154709, Note_off_c, 1, 83, 0
1, 154710, Note_on_c, 1, 85, 127
1, 154739, Note_off_c, 1, 85, 0
1, 154740, Note_off_c, 1, 59, 0
1, 154740, Note_on_c, 1, 86, 127
1, 154740, Note_on_c, 1, 56, 127
1, 154799, Note_off_c, 1, 86, 0
1, 154800, Note_off_c, 1, 56, 0
1, 154860, Note_off_c, 1, 64, 0
1, 154920, Note_on_c, 1, 52, 127
1, 154980, Note_on_c, 1, 40, 127
1, 155039, Note_off_c, 1, 40, 0
1, 155040, Note_off_c, 1, 52, 0
1, 155040, Note_on_c, 1, 45, 127
1, 155099, Note_off_c, 1, 45, 0
1, 155280, Note_on_c, 1, 79, 127
1, 155340, Note_off_c, 1, 79, 0
1, 155580, Note_on_c, 1, 67, 127
1, 155640, Note_on_c, 1, 49, 127
1, 155700, Note_off_c, 1, 67, 0
1, 155700, Note_off_c, 1, 49, 0
1, 156120, Note_on_c, 1, 55, 127
1, 156179, Note_off_c, 1, 55, 0
1, 156180, Note_on_c, 1, 43, 127
1, 156239, Note_off_c, 1, 43, 0
1, 156300, Note_on_c, 1, 54, 127
1, 156359, Note_off_c, 1, 54, 0
1, 156360, Note_on_c, 1, 74, 127
1, 156360, Note_on_c, 1, 69, 127
1, 156360, Note_on_c, 1, 42, 127
1, 156419, Note_off_c, 1, 74, 0
1, 156419, Note_off_c, 1, 69, 0
1, 156419, Note_off_c, 1, 42, 0
1, 156420, Note_on_c, 1, 76, 127
1, 156420, Note_on_c, 1, 73, 127
1, 156420, Note_on_c, 1, 67, 127
1, 156420, Note_on_c, 1, 52, 127
1, 156479, Note_off_c, 1, 76, 0
1, 156479, Note_off_c, 1, 73, 0
1, 156479, Note_off_c, 1, 67, 0
1, 156479, Note_off_c, 1, 52, 0
1, 156480, Note_on_c, 1, 78, 127
1, 156480, Note_on_c, 1, 74, 127
1, 156480, Note_on_c, 1, 69, 127
1, 156480, Note_on_c, 1, 50, 127
1, 156539, Note_off_c, 1, 78, 0
1, 156539, Note_off_c, 1, 74, 0
1, 156539, Note_off_c, 1, 69, 0
1, 156539, Note_off_c, 1, 50, 0
1, 156540, Note_on_c, 1, 76, 127
1, 156540, Note_on_c, 1, 71, 127
1, 156540, Note_on_c, 1, 67, 127
1, 156540, Note_on_c, 1, 38, 127
1, 156599, Note_off_c, 1, 71, 0
1, 156599, Note_off_c, 1, 67, 0
1, 156599, Note_off_c, 1, 38, 0
1, 156600, Note_on_c, 1, 69, 127
1, 156600, Note_on_c, 1, 64, 127
1, 156600, Note_on_c, 1, 49, 127
1, 156629, Note_off_c, 1, 76, 0
1, 156630, Note_on_c, 1, 78, 127
1, 156644, Note_off_c, 1, 78, 0
1, 156645, Note_on_c, 1, 79, 127
1, 156659, Note_off_c, 1, 64, 0
1, 156659, Note_off_c, 1, 49, 0
1, 156659, Note_off_c, 1, 79, 0
1, 156660, Note_on_c, 1, 74, 127
1, 156660, Note_on_c, 1, 50, 127
1, 156660, Note_on_c, 1, 62, 127
1, 156719, Note_off_c, 1, 62, 0
1, 156840, Note_on_c, 1, 60, 127
1, 156899, Note_off_c, 1, 60, 0
1, 156900, Note_off_c, 1, 69, 0
1, 156900, Note_off_c, 1, 50, 0
1, 156900, Note_on_c, 1, 81, 127
1, 156900, Note_on_c, 1, 48, 127
1, 156929, Note_off_c, 1, 81, 0
1, 156959, Note_off_c, 1, 48, 0
1, 157020, Note_on_c, 1, 59, 127
1, 157050, Note_on_c, 1, 72, 127
1, 157079, Note_off_c, 1, 59, 0
1, 157079, Note_off_c, 1, 72, 0
1, 157080, Note_on_c, 1, 47, 127
1, 157139, Note_off_c, 1, 47, 0
1, 157140, Note_on_c, 1, 57, 127
1, 157199, Note_off_c, 1, 57, 0
1, 157200, Note_on_c, 1, 83, 127
1, 157200, Note_on_c, 1, 55, 127
1, 157259, Note_off_c, 1, 83, 0
1, 157259, Note_off_c, 1, 55, 0
1, 157260, Note_off_c, 1, 74, 0
1, 157260, Note_on_c, 1, 43, 127
1, 157319, Note_off_c, 1, 43, 0
1, 157320, Note_on_c, 1, 54, 127
1, 157365, Note_on_c, 1, 84, 127
1, 157379, Note_off_c, 1, 54, 0
1, 157380, Note_off_c, 1, 84, 0
1, 157560, Note_on_c, 1, 45, 127
1, 157560, Note_on_c, 1, 73, 127
1, 157619, Note_off_c, 1, 73, 0
1, 157620, Note_off_c, 1, 45, 0
1, 157920, Note_on_c, 1, 66, 127
1, 158040, Note_off_c, 1, 66, 0
1, 158190, Note_on_c, 1, 61, 127
1, 158220, Note_off_c, 1, 61, 0
1, 158730, Note_on_c, 1, 52, 127
1, 158759, Note_off_c, 1, 52, 0
1, 158880, Note_on_c, 1, 64, 127
1, 158915, Note_off_c, 1, 64, 0
1, 158940, Note_on_c, 1, 64, 127
1, 158975, Note_off_c, 1, 64, 0
1, 159000, Note_on_c, 1, 76, 127
1, 159000, Note_on_c, 1, 81, 127
1, 159000, Note_on_c, 1, 61, 127
1, 159000, Note_on_c, 1, 55, 127
1, 159059, Note_off_c, 1, 76, 0
1, 159059, Note_off_c, 1, 81, 0
1, 159059, Note_off_c, 1, 55, 0
1, 159060, Note_off_c, 1, 61, 0
1, 159060, Note_on_c, 1, 62, 127
1, 159090, Note_off_c, 1, 62, 0
1, 159120, Note_on_c, 1, 59, 127
1, 159150, Note_off_c, 1, 59, 0
1, 159150, Note_on_c, 1, 57, 127
1, 159180, Note_off_c, 1, 57, 0
1, 159180, Note_on_c, 1, 78, 127
1, 159180, Note_on_c, 1, 69, 127
1, 159180, Note_on_c, 1, 54, 127
1, 159239, Note_off_c, 1, 78, 0
1, 159239, Note_off_c, 1, 69, 0
1, 159239, Note_off_c, 1, 54, 0
1, 159240, Note_on_c, 1, 80, 127
1, 159240, Note_on_c, 1, 73, 127
1, 159240, Note_on_c, 1, 64, 127
1, 159240, Note_on_c, 1, 52, 127
1, 159269, Note_off_c, 1, 80, 0
1, 159299, Note_off_c, 1, 73, 0
1, 159299, Note_off_c, 1, 52, 0
1, 159300, Note_off_c, 1, 64, 0
1, 159300, Note_on_c, 1, 83, 127
1, 159300, Note_on_c, 1, 74, 127
1, 159300, Note_on_c, 1, 66, 127
1, 159300, Note_on_c, 1, 50, 127
1, 159359, Note_off_c, 1, 50, 0
1, 159360, Note_off_c, 1, 66, 0
1, 159419, Note_off_c, 1, 83, 0
1, 159419, Note_off_c, 1, 74, 0
1, 159420, Note_on_c, 1, 79, 127
1, 159479, Note_off_c, 1, 79, 0
1, 159480, Note_on_c, 1, 82, 127
1, 159539, Note_off_c, 1, 82, 0
1, 159540, Note_on_c, 1, 71, 127
1, 159540, Note_on_c, 1, 47, 127
1, 159599, Note_off_c, 1, 71, 0
1, 159599, Note_off_c, 1, 47, 0
1, 159690, Note_on_c, 1, 67, 127
1, 159720, Note_off_c, 1, 67, 0
1, 159720, Note_on_c, 1, 42, 127
1, 159779, Note_off_c, 1, 42, 0
1, 159900, Note_on_c, 1, 43, 127
1, 159959, Note_off_c, 1, 43, 0
1, 160020, Note_on_c, 1, 40, 127
1, 160079, Note_off_c, 1, 40, 0
1, 160080, Note_on_c, 1, 38, 127
1, 160139, Note_off_c, 1, 38, 0
1, 160140, Note_on_c, 1, 49, 127
1, 160199, Note_off_c, 1, 49, 0
1, 160200, Note_on_c, 1, 56, 127
1, 160260, Note_off_c, 1, 56, 0
1, 160260, Note_on_c, 1, 45, 127
1, 160379, Note_off_c, 1, 45, 0
1, 161160, Note_on_c, 1, 68, 127
1, 161190, Note_off_c, 1, 68, 0
1, 162600, Note_on_c, 1, 60, 127
1, 162660, Note_on_c, 1, 48, 127
1, 162719, Note_off_c, 1, 48, 0
1, 162780, Note_off_c, 1, 60, 0
1, 162810, Note_on_c, 1, 72, 127
1, 162839, Note_off_c, 1, 72, 0
1, 163125, Note_on_c, 1, 84, 127
1, 163140, Note_off_c, 1, 84, 0
1, 163140, End_track
0, 0, End_of_file