0, 0, Header, 1, 1, 480
1, 0, Start_track
1, 0, Title_t, "Test"
1, 0, Tempo, 500000
1, 0, Instrument_name_t, "Church Organ"
1, 0, Note_on_c, 1, 71, 127
1, 0, Note_on_c, 1, 62, 127
1, 0, Note_on_c, 1, 55, 127
1, 0, Note_on_c, 1, 67, 127
1, 0, Note_on_c, 1, 74, 127
1, 120, Note_off_c, 1, 71, 0
1, 120, Note_off_c, 1, 55, 0
1, 120, Note_off_c, 1, 67, 0
1, 120, Note_off_c, 1, 74, 0
1, 120, Note_on_c, 1, 79, 127
1, 120, Note_on_c, 1, 54, 127
1, 120, Note_on_c, 1, 66, 127
1, 180, Note_off_c, 1, 66, 0
1, 270, Note_off_c, 1, 79, 0
1, 270, Note_on_c, 1, 78, 127
1, 300, Note_off_c, 1, 62, 0
1, 300, Note_off_c, 1, 54, 0
1, 300, Note_off_c, 1, 78, 0
1, 300, Note_on_c, 1, 52, 127
1, 300, Note_on_c, 1, 64, 127
1, 360, Note_on_c, 1, 59, 127
1, 480, Note_off_c, 1, 52, 0
1, 480, Note_off_c, 1, 64, 0
1, 480, Note_off_c, 1, 59, 0
1, 480, Note_on_c, 1, 50, 127
1, 660, Note_off_c, 1, 50, 0
1, 660, Note_on_c, 1, 48, 127
1, 660, Note_on_c, 1, 60, 127
1, 720, Note_off_c, 1, 60, 0
1, 720, Note_on_c, 1, 69, 127
1, 840, Note_off_c, 1, 48, 0
1, 840, Note_on_c, 1, 45, 127
1, 900, Note_off_c, 1, 45, 0
1, 1020, Note_on_c, 1, 72, 127
1, 1020, Note_on_c, 1, 38, 127
1, 1080, Note_off_c, 1, 72, 0
1, 1080, Note_off_c, 1, 38, 0
1, 1080, Note_on_c, 1, 43, 127
1, 1200, Note_off_c, 1, 43, 0
1, 1260, Note_off_c, 1, 69, 0
1, 1260, Note_on_c, 1, 47, 127
1, 1380, Note_off_c, 1, 47, 0
1, 1380, Note_on_c, 1, 77, 127
1, 1380, Note_on_c, 1, 65, 127
1, 1440, Note_off_c, 1, 65, 0
1, 1500, Note_on_c, 1, 76, 127
1, 1515, Note_off_c, 1, 76, 0
1, 1530, Note_off_c, 1, 77, 0
1, 1560, Note_on_c, 1, 81, 127
1, 1620, Note_off_c, 1, 81, 0
1, 2160, Note_on_c, 1, 40, 127
1, 2280, Note_off_c, 1, 40, 0
1, 2280, Note_on_c, 1, 42, 127
1, 2340, Note_off_c, 1, 42, 0
1, 2460, Note_on_c, 1, 36, 127
1, 2520, Note_off_c, 1, 36, 0
1, 3240, Note_on_c, 1, 68, 127
1, 3420, Note_off_c, 1, 68, 0
1, 3690, Note_on_c, 1, 49, 127
1, 3720, Note_off_c, 1, 49, 0
1, 3720, Note_on_c, 1, 73, 127
1, 3780, Note_off_c, 1, 73, 0
1, 4080, Note_on_c, 1, 83, 127
1, 4140, Note_on_c, 1, 61, 127
1, 4260, Note_off_c, 1, 61, 0
1, 4440, Note_off_c, 1, 83, 0
1, 4620, Note_on_c, 1, 57, 127
1, 4680, Note_off_c, 1, 57, 0
1, 7680, Note_on_c, 1, 75, 127
1, 7860, Note_off_c, 1, 75, 0
1, 8040, Note_on_c, 1, 63, 127
1, 8100, Note_off_c, 1, 63, 0
1, 12180, Note_on_c, 1, 56, 127
1, 12240, Note_off_c, 1, 56, 0
1, 14760, Note_on_c, 1, 46, 127
1, 14850, Note_off_c, 1, 46, 0
1, 14880, Note_on_c, 1, 70, 127
1, 15120, Note_off_c, 1, 70, 0
1, 15570, Note_on_c, 1, 84, 127
1, 15600, Note_off_c, 1, 84, 0
1, 20640, Note_on_c, 1, 86, 127
1, 20790, Note_off_c, 1, 86, 0
1, 20790, Note_on_c, 1, 85, 127
1, 20820, Note_off_c, 1, 85, 0
1, 23700, Note_on_c, 1, 39, 127
1, 23759, Note_off_c, 1, 39, 0
1, 23939, Note_on_c, 1, 44, 127
1, 24058, Note_off_c, 1, 44, 0
1, 26190, Note_on_c, 1, 82, 127
1, 26220, Note_off_c, 1, 82, 0
1, 27720, Note_on_c, 1, 41, 127
1, 27810, Note_off_c, 1, 41, 0
1, 28380, Note_on_c, 1, 58, 127
1, 28439, Note_off_c, 1, 58, 0
1, 28980, Note_on_c, 1, 74, 127
1, 28980, Note_on_c, 1, 71, 127
1, 28980, Note_on_c, 1, 59, 127
1, 29069, Note_off_c, 1, 59, 0
1, 29070, Note_on_c, 1, 57, 127
1, 29099, Note_off_c, 1, 74, 0
1, 29099, Note_off_c, 1, 57, 0
1, 29100, Note_off_c, 1, 71, 0
1, 29100, Note_on_c, 1, 77, 127
1, 29100, Note_on_c, 1, 69, 127
1, 29159, Note_off_c, 1, 77, 0
1, 29159, Note_off_c, 1, 69, 0
1, 29160, Note_on_c, 1, 77, 127
1, 29160, Note_on_c, 1, 69, 127
1, 29160, Note_on_c, 1, 40, 127
1, 29250, Note_on_c, 1, 72, 127
1, 29279, Note_off_c, 1, 77, 0
1, 29279, Note_off_c, 1, 40, 0
1, 29280, Note_off_c, 1, 69, 0
1, 29280, Note_off_c, 1, 72, 0
1, 29280, Note_on_c, 1, 71, 127
1, 29280, Note_on_c, 1, 76, 127
1, 29280, Note_on_c, 1, 68, 127
1, 29280, Note_on_c, 1, 64, 127
1, 29280, Note_on_c, 1, 59, 127
1, 29339, Note_off_c, 1, 76, 0
1, 29339, Note_off_c, 1, 68, 0
1, 29339, Note_off_c, 1, 64, 0
1, 29340, Note_off_c, 1, 59, 0
1, 29340, Note_on_c, 1, 56, 127
1, 29430, Note_off_c, 1, 71, 0
1, 29430, Note_on_c, 1, 74, 127
1, 29460, Note_off_c, 1, 56, 0
1, 29460, Note_off_c, 1, 74, 0
1, 29460, Note_on_c, 1, 73, 127
1, 29460, Note_on_c, 1, 57, 127
1, 29520, Note_off_c, 1, 73, 0
1, 29520, Note_off_c, 1, 57, 0
1, 29610, Note_on_c, 1, 84, 127
1, 29640, Note_off_c, 1, 84, 0
1, 29640, Note_on_c, 1, 83, 127
1, 29640, Note_on_c, 1, 62, 127
1, 29640, Note_on_c, 1, 52, 127
1, 29700, Note_off_c, 1, 62, 0
1, 29790, Note_off_c, 1, 83, 0
1, 29790, Note_on_c, 1, 66, 127
1, 29819, Note_off_c, 1, 52, 0
1, 29820, Note_off_c, 1, 66, 0
1, 29880, Note_on_c, 1, 45, 127
1, 29969, Note_off_c, 1, 45, 0
1, 30060, Note_on_c, 1, 81, 127
1, 30150, Note_on_c, 1, 55, 127
1, 30180, Note_off_c, 1, 81, 0
1, 30180, Note_off_c, 1, 55, 0
1, 30180, Note_on_c, 1, 79, 127
1, 30180, Note_on_c, 1, 75, 127
1, 30180, Note_on_c, 1, 60, 127
1, 30240, Note_off_c, 1, 60, 0
1, 30240, Note_on_c, 1, 38, 127
1, 30330, Note_on_c, 1, 70, 127
1, 30360, Note_off_c, 1, 79, 0
1, 30360, Note_off_c, 1, 75, 0
1, 30360, Note_off_c, 1, 38, 0
1, 30360, Note_off_c, 1, 70, 0
1, 30360, Note_on_c, 1, 78, 127
1, 30420, Note_off_c, 1, 78, 0
1, 30540, Note_on_c, 1, 67, 127
1, 30599, Note_off_c, 1, 67, 0
1, 30690, Note_on_c, 1, 82, 127
1, 30720, Note_off_c, 1, 82, 0
1, 30720, Note_on_c, 1, 50, 127
1, 30779, Note_off_c, 1, 50, 0
1, 30960, Note_on_c, 1, 43, 127
1, 31079, Note_off_c, 1, 43, 0
1, 31080, Note_on_c, 1, 42, 127
1, 31139, Note_off_c, 1, 42, 0
1, 31620, Note_on_c, 1, 36, 127
1, 31679, Note_off_c, 1, 36, 0
1, 32220, Note_on_c, 1, 47, 127
1, 32339, Note_off_c, 1, 47, 0
1, 32400, Note_on_c, 1, 48, 127
1, 32519, Note_off_c, 1, 48, 0
1, 32760, Note_on_c, 1, 54, 127
1, 32880, Note_off_c, 1, 54, 0
1, 33780, Note_on_c, 1, 45, 127
1, 33839, Note_off_c, 1, 45, 0
1, 33840, Note_on_c, 1, 71, 127
1, 33840, Note_on_c, 1, 67, 127
1, 33840, Note_on_c, 1, 62, 127
1, 33840, Note_on_c, 1, 55, 127
1, 33840, Note_on_c, 1, 43, 127
1, 33959, Note_off_c, 1, 43, 0
1, 33960, Note_off_c, 1, 71, 0
1, 33960, Note_off_c, 1, 67, 0
1, 33960, Note_off_c, 1, 62, 0
1, 33960, Note_on_c, 1, 69, 127
1, 33960, Note_on_c, 1, 66, 127
1, 33960, Note_on_c, 1, 60, 127
1, 34140, Note_off_c, 1, 69, 0
1, 34140, Note_off_c, 1, 66, 0
1, 34140, Note_off_c, 1, 60, 0
1, 34140, Note_on_c, 1, 59, 127
1, 34290, Note_on_c, 1, 76, 127
1, 34320, Note_off_c, 1, 59, 0
1, 34320, Note_off_c, 1, 76, 0
1, 34320, Note_on_c, 1, 74, 127
1, 34470, Note_off_c, 1, 74, 0
1, 34500, Note_on_c, 1, 57, 127
1, 34560, Note_off_c, 1, 57, 0
1, 35040, Note_off_c, 1, 55, 0
1, 35040, Note_on_c, 1, 79, 127
1, 35040, Note_on_c, 1, 54, 127
1, 35099, Note_off_c, 1, 54, 0
1, 35190, Note_off_c, 1, 79, 0
1, 35190, Note_on_c, 1, 78, 127
1, 35220, Note_off_c, 1, 78, 0
1, 35220, Note_on_c, 1, 52, 127
1, 35279, Note_off_c, 1, 52, 0
1, 35280, Note_on_c, 1, 64, 127
1, 35400, Note_off_c, 1, 64, 0
1, 35400, Note_on_c, 1, 75, 127
1, 35580, Note_off_c, 1, 75, 0
1, 35730, Note_on_c, 1, 72, 127
1, 35760, Note_off_c, 1, 72, 0
1, 35760, Note_on_c, 1, 63, 127
1, 35820, Note_off_c, 1, 63, 0
1, 36300, Note_on_c, 1, 81, 127
1, 36360, Note_off_c, 1, 81, 0
1, 36480, Note_on_c, 1, 77, 127
1, 36480, Note_on_c, 1, 50, 127
1, 36539, Note_off_c, 1, 50, 0
1, 36630, Note_off_c, 1, 77, 0
1, 36660, Note_on_c, 1, 48, 127
1, 36719, Note_off_c, 1, 48, 0
1, 36840, Note_on_c, 1, 65, 127
1, 37020, Note_off_c, 1, 65, 0
1, 38070, Note_on_c, 1, 53, 127
1, 38099, Note_off_c, 1, 53, 0
1, 38160, Note_on_c, 1, 73, 127
1, 38160, Note_on_c, 1, 45, 127
1, 38247, Note_off_c, 1, 45, 0
1, 38280, Note_off_c, 1, 73, 0
1, 38280, Note_on_c, 1, 61, 127
1, 38340, Note_off_c, 1, 61, 0
1, 38700, Note_on_c, 1, 84, 127
1, 38880, Note_on_c, 1, 42, 127
1, 38967, Note_off_c, 1, 42, 0
1, 39060, Note_off_c, 1, 84, 0
1, 39060, Note_on_c, 1, 88, 127
1, 39150, Note_on_c, 1, 47, 127
1, 39179, Note_off_c, 1, 47, 0
1, 39360, Note_off_c, 1, 88, 0
1, 39360, Note_on_c, 1, 86, 127
1, 39720, Note_off_c, 1, 86, 0
1, 39780, Note_on_c, 1, 83, 127
1, 39870, Note_off_c, 1, 83, 0
1, 42060, Note_on_c, 1, 82, 127
1, 42119, Note_off_c, 1, 82, 0
1, 42480, Note_on_c, 1, 70, 127
1, 42599, Note_off_c, 1, 70, 0
1, 42600, Note_on_c, 1, 58, 127
1, 42659, Note_off_c, 1, 58, 0
1, 42840, Note_on_c, 1, 49, 127
1, 42929, Note_off_c, 1, 49, 0
1, 43860, Note_on_c, 1, 38, 127
1, 43919, Note_off_c, 1, 38, 0
1, 45360, Note_on_c, 1, 52, 127
1, 45360, Note_on_c, 1, 67, 127
1, 45360, Note_on_c, 1, 64, 127
1, 45480, Note_on_c, 1, 71, 127
1, 45600, Note_off_c, 1, 71, 0
1, 45600, Note_on_c, 1, 76, 127
1, 45780, Note_off_c, 1, 76, 0
1, 45780, Note_on_c, 1, 75, 127
1, 45840, Note_off_c, 1, 75, 0
1, 46020, Note_on_c, 1, 78, 127
1, 46080, Note_off_c, 1, 78, 0
1, 46080, Note_on_c, 1, 79, 127
1, 46260, Note_off_c, 1, 79, 0
1, 46320, Note_off_c, 1, 67, 0
1, 46320, Note_on_c, 1, 72, 127
1, 46320, Note_on_c, 1, 69, 127
1, 46320, Note_on_c, 1, 60, 127
1, 46440, Note_off_c, 1, 72, 0
1, 46560, Note_off_c, 1, 52, 0
1, 46560, Note_off_c, 1, 64, 0
1, 46560, Note_off_c, 1, 60, 0
1, 46560, Note_on_c, 1, 54, 127
1, 46560, Note_on_c, 1, 63, 127
1, 46560, Note_on_c, 1, 66, 127
1, 47040, Note_off_c, 1, 69, 0
1, 47040, Note_off_c, 1, 54, 0
1, 47040, Note_on_c, 1, 47, 127
1, 47280, Note_off_c, 1, 63, 0
1, 47280, Note_off_c, 1, 66, 0
1, 47280, Note_off_c, 1, 47, 0
1, 47640, Note_on_c, 1, 73, 127
1, 47760, Note_on_c, 1, 55, 127
1, 47880, Note_on_c, 1, 81, 127
1, 47940, Note_off_c, 1, 81, 0
1, 48240, Note_off_c, 1, 73, 0
1, 48240, Note_off_c, 1, 55, 0
1, 48240, Note_on_c, 1, 74, 127
1, 48600, Note_off_c, 1, 74, 0
1, 48840, Note_on_c, 1, 70, 127
1, 48960, Note_off_c, 1, 70, 0
1, 48960, Note_on_c, 1, 50, 127
1, 48960, Note_on_c, 1, 62, 127
1, 48990, Note_off_c, 1, 50, 0
1, 48990, Note_on_c, 1, 49, 127
1, 49020, Note_off_c, 1, 49, 0
1, 49050, Note_on_c, 1, 45, 127
1, 49080, Note_off_c, 1, 62, 0
1, 49080, Note_off_c, 1, 45, 0
1, 49080, Note_on_c, 1, 44, 127
1, 49080, Note_on_c, 1, 65, 127
1, 49140, Note_on_c, 1, 68, 127
1, 49200, Note_off_c, 1, 68, 0
1, 49230, Note_off_c, 1, 44, 0
1, 49380, Note_off_c, 1, 65, 0
1, 49410, Note_on_c, 1, 42, 127
1, 49440, Note_off_c, 1, 42, 0
1, 49440, Note_on_c, 1, 41, 127
1, 49500, Note_off_c, 1, 41, 0
1, 49680, Note_on_c, 1, 47, 127
1, 49680, Note_on_c, 1, 71, 127
1, 49680, Note_on_c, 1, 66, 127
1, 49680, Note_on_c, 1, 62, 127
1, 50160, Note_off_c, 1, 47, 0
1, 50160, Note_off_c, 1, 71, 0
1, 50160, Note_off_c, 1, 66, 0
1, 50160, Note_off_c, 1, 62, 0
1, 50520, Note_on_c, 1, 79, 127
1, 50520, Note_on_c, 1, 67, 127
1, 50520, Note_on_c, 1, 62, 127
1, 50520, Note_on_c, 1, 59, 127
1, 50520, Note_on_c, 1, 55, 127
1, 50579, Note_off_c, 1, 55, 0
1, 50580, Note_on_c, 1, 54, 127
1, 50639, Note_off_c, 1, 79, 0
1, 50639, Note_off_c, 1, 67, 0
1, 50639, Note_off_c, 1, 62, 0
1, 50639, Note_off_c, 1, 59, 0
1, 50639, Note_off_c, 1, 54, 0
1, 50640, Note_on_c, 1, 79, 127
1, 50640, Note_on_c, 1, 67, 127
1, 50640, Note_on_c, 1, 64, 127
1, 50640, Note_on_c, 1, 59, 127
1, 50640, Note_on_c, 1, 52, 127
1, 50699, Note_off_c, 1, 59, 0
1, 50700, Note_on_c, 1, 60, 127
1, 50759, Note_off_c, 1, 79, 0
1, 50759, Note_off_c, 1, 67, 0
1, 50759, Note_off_c, 1, 64, 0
1, 50759, Note_off_c, 1, 52, 0
1, 50760, Note_on_c, 1, 81, 127
1, 50760, Note_on_c, 1, 69, 127
1, 50760, Note_on_c, 1, 66, 127
1, 50760, Note_on_c, 1, 50, 127
1, 50819, Note_off_c, 1, 60, 0
1, 50820, Note_on_c, 1, 62, 127
1, 50879, Note_off_c, 1, 81, 0
1, 50879, Note_off_c, 1, 69, 0
1, 50879, Note_off_c, 1, 66, 0
1, 50879, Note_off_c, 1, 50, 0
1, 50879, Note_off_c, 1, 62, 0
1, 50880, Note_on_c, 1, 83, 127
1, 50880, Note_on_c, 1, 71, 127
1, 50880, Note_on_c, 1, 62, 127
1, 50880, Note_on_c, 1, 59, 127
1, 50880, Note_on_c, 1, 55, 127
1, 50939, Note_off_c, 1, 83, 0
1, 50939, Note_off_c, 1, 71, 0
1, 50939, Note_off_c, 1, 62, 0
1, 50939, Note_off_c, 1, 59, 0
1, 50940, Note_on_c, 1, 85, 127
1, 50940, Note_on_c, 1, 73, 127
1, 50940, Note_on_c, 1, 64, 127
1, 50940, Note_on_c, 1, 57, 127
1, 50999, Note_off_c, 1, 55, 0
1, 50999, Note_off_c, 1, 85, 0
1, 50999, Note_off_c, 1, 73, 0
1, 50999, Note_off_c, 1, 64, 0
1, 50999, Note_off_c, 1, 57, 0
1, 51000, Note_on_c, 1, 86, 127
1, 51000, Note_on_c, 1, 74, 127
1, 51000, Note_on_c, 1, 66, 127
1, 51000, Note_on_c, 1, 57, 127
1, 51000, Note_on_c, 1, 54, 127
1, 51059, Note_off_c, 1, 54, 0
1, 51060, Note_on_c, 1, 55, 127
1, 51119, Note_off_c, 1, 86, 0
1, 51119, Note_off_c, 1, 74, 0
1, 51119, Note_off_c, 1, 66, 0
1, 51119, Note_off_c, 1, 57, 0
1, 51119, Note_off_c, 1, 55, 0
1, 51120, Note_on_c, 1, 86, 127
1, 51120, Note_on_c, 1, 74, 127
1, 51120, Note_on_c, 1, 64, 127
1, 51120, Note_on_c, 1, 57, 127
1, 51179, Note_off_c, 1, 64, 0
1, 51180, Note_on_c, 1, 66, 127
1, 51239, Note_off_c, 1, 86, 0
1, 51239, Note_off_c, 1, 74, 0
1, 51239, Note_off_c, 1, 57, 0
1, 51239, Note_off_c, 1, 66, 0
1, 51240, Note_on_c, 1, 85, 127
1, 51240, Note_on_c, 1, 73, 127
1, 51240, Note_on_c, 1, 67, 127
1, 51240, Note_on_c, 1, 57, 127
1, 51240, Note_on_c, 1, 45, 127
1, 51359, Note_off_c, 1, 85, 0
1, 51359, Note_off_c, 1, 73, 0
1, 51359, Note_off_c, 1, 67, 0
1, 51359, Note_off_c, 1, 57, 0
1, 51359, Note_off_c, 1, 45, 0
1, 51360, Note_on_c, 1, 86, 127
1, 51360, Note_on_c, 1, 74, 127
1, 51360, Note_on_c, 1, 66, 127
1, 51360, Note_on_c, 1, 57, 127
1, 51360, Note_on_c, 1, 50, 127
1, 51449, Note_off_c, 1, 86, 0
1, 51449, Note_off_c, 1, 74, 0
1, 51449, Note_off_c, 1, 66, 0
1, 51449, Note_off_c, 1, 57, 0
1, 51449, Note_off_c, 1, 50, 0
1, 51480, Note_on_c, 1, 83, 127
1, 51480, Note_on_c, 1, 71, 127
1, 51480, Note_on_c, 1, 66, 127
1, 51480, Note_on_c, 1, 59, 127
1, 51480, Note_on_c, 1, 51, 127
1, 51539, Note_off_c, 1, 59, 0
1, 51540, Note_on_c, 1, 57, 127
1, 51599, Note_off_c, 1, 83, 0
1, 51599, Note_off_c, 1, 71, 0
1, 51599, Note_off_c, 1, 66, 0
1, 51599, Note_off_c, 1, 51, 0
1, 51599, Note_off_c, 1, 57, 0
1, 51600, Note_on_c, 1, 84, 127
1, 51600, Note_on_c, 1, 72, 127
1, 51600, Note_on_c, 1, 64, 127
1, 51600, Note_on_c, 1, 55, 127
1, 51600, Note_on_c, 1, 52, 127
1, 51659, Note_off_c, 1, 55, 0
1, 51659, Note_off_c, 1, 52, 0
1, 51660, Note_on_c, 1, 57, 127
1, 51660, Note_on_c, 1, 54, 127
1, 51719, Note_off_c, 1, 84, 0
1, 51719, Note_off_c, 1, 72, 0
1, 51719, Note_off_c, 1, 64, 0
1, 51719, Note_off_c, 1, 57, 0
1, 51719, Note_off_c, 1, 54, 0
1, 51720, Note_on_c, 1, 83, 127
1, 51720, Note_on_c, 1, 71, 127
1, 51720, Note_on_c, 1, 62, 127
1, 51720, Note_on_c, 1, 59, 127
1, 51720, Note_on_c, 1, 55, 127
1, 51779, Note_off_c, 1, 62, 0
1, 51779, Note_off_c, 1, 59, 0
1, 51779, Note_off_c, 1, 55, 0
1, 51780, Note_on_c, 1, 64, 127
1, 51780, Note_on_c, 1, 60, 127
1, 51780, Note_on_c, 1, 48, 127
1, 51839, Note_off_c, 1, 83, 0
1, 51839, Note_off_c, 1, 71, 0
1, 51839, Note_off_c, 1, 64, 0
1, 51839, Note_off_c, 1, 60, 0
1, 51840, Note_on_c, 1, 81, 127
1, 51840, Note_on_c, 1, 69, 127
1, 51840, Note_on_c, 1, 66, 127
1, 51899, Note_off_c, 1, 48, 0
1, 51900, Note_on_c, 1, 47, 127
1, 51959, Note_off_c, 1, 81, 0
1, 51959, Note_off_c, 1, 69, 0
1, 51959, Note_off_c, 1, 66, 0
1, 51959, Note_off_c, 1, 47, 0
1, 51960, Note_on_c, 1, 83, 127
1, 51960, Note_on_c, 1, 71, 127
1, 51960, Note_on_c, 1, 67, 127
1, 51960, Note_on_c, 1, 62, 127
1, 51960, Note_on_c, 1, 57, 127
1, 51960, Note_on_c, 1, 45, 127
1, 52019, Note_off_c, 1, 57, 0
1, 52019, Note_off_c, 1, 45, 0
1, 52020, Note_on_c, 1, 55, 127
1, 52020, Note_on_c, 1, 43, 127
1, 52079, Note_off_c, 1, 83, 0
1, 52079, Note_off_c, 1, 71, 0
1, 52079, Note_off_c, 1, 67, 0
1, 52079, Note_off_c, 1, 62, 0
1, 52079, Note_off_c, 1, 55, 0
1, 52079, Note_off_c, 1, 43, 0
1, 52080, Note_on_c, 1, 81, 127
1, 52080, Note_on_c, 1, 69, 127
1, 52080, Note_on_c, 1, 67, 127
1, 52080, Note_on_c, 1, 62, 127
1, 52080, Note_on_c, 1, 50, 127
1, 52199, Note_off_c, 1, 67, 0
1, 52199, Note_off_c, 1, 50, 0
1, 52200, Note_on_c, 1, 66, 127
1, 52200, Note_on_c, 1, 38, 127
1, 52259, Note_off_c, 1, 62, 0
1, 52260, Note_on_c, 1, 60, 127
1, 52319, Note_off_c, 1, 81, 0
1, 52319, Note_off_c, 1, 69, 0
1, 52319, Note_off_c, 1, 66, 0
1, 52319, Note_off_c, 1, 38, 0
1, 52319, Note_off_c, 1, 60, 0
1, 52320, Note_on_c, 1, 79, 127
1, 52320, Note_on_c, 1, 67, 127
1, 52320, Note_on_c, 1, 62, 127
1, 52320, Note_on_c, 1, 59, 127
1, 52320, Note_on_c, 1, 55, 127
1, 52320, Note_on_c, 1, 43, 127
1, 52409, Note_off_c, 1, 79, 0
1, 52409, Note_off_c, 1, 67, 0
1, 52409, Note_off_c, 1, 62, 0
1, 52409, Note_off_c, 1, 59, 0
1, 52409, Note_off_c, 1, 55, 0
1, 52409, Note_off_c, 1, 43, 0
1, 52440, Note_on_c, 1, 79, 127
1, 52440, Note_on_c, 1, 67, 127
1, 52440, Note_on_c, 1, 62, 127
1, 52440, Note_on_c, 1, 59, 127
1, 52440, Note_on_c, 1, 55, 127
1, 52499, Note_off_c, 1, 55, 0
1, 52500, Note_on_c, 1, 54, 127
1, 52559, Note_off_c, 1, 79, 0
1, 52559, Note_off_c, 1, 67, 0
1, 52559, Note_off_c, 1, 62, 0
1, 52559, Note_off_c, 1, 59, 0
1, 52559, Note_off_c, 1, 54, 0
1, 52560, Note_on_c, 1, 79, 127
1, 52560, Note_on_c, 1, 67, 127
1, 52560, Note_on_c, 1, 64, 127
1, 52560, Note_on_c, 1, 59, 127
1, 52560, Note_on_c, 1, 52, 127
1, 52619, Note_off_c, 1, 59, 0
1, 52620, Note_on_c, 1, 60, 127
1, 52679, Note_off_c, 1, 79, 0
1, 52679, Note_off_c, 1, 67, 0
1, 52679, Note_off_c, 1, 64, 0
1, 52679, Note_off_c, 1, 52, 0
1, 52680, Note_on_c, 1, 81, 127
1, 52680, Note_on_c, 1, 69, 127
1, 52680, Note_on_c, 1, 66, 127
1, 52680, Note_on_c, 1, 50, 127
1, 52739, Note_off_c, 1, 60, 0
1, 52740, Note_on_c, 1, 62, 127
1, 52799, Note_off_c, 1, 81, 0
1, 52799, Note_off_c, 1, 69, 0
1, 52799, Note_off_c, 1, 66, 0
1, 52799, Note_off_c, 1, 50, 0
1, 52799, Note_off_c, 1, 62, 0
1, 52800, Note_on_c, 1, 83, 127
1, 52800, Note_on_c, 1, 71, 127
1, 52800, Note_on_c, 1, 62, 127
1, 52800, Note_on_c, 1, 59, 127
1, 52800, Note_on_c, 1, 55, 127
1, 52859, Note_off_c, 1, 83, 0
1, 52859, Note_off_c, 1, 71, 0
1, 52859, Note_off_c, 1, 62, 0
1, 52859, Note_off_c, 1, 59, 0
1, 52860, Note_on_c, 1, 85, 127
1, 52860, Note_on_c, 1, 73, 127
1, 52860, Note_on_c, 1, 64, 127
1, 52860, Note_on_c, 1, 57, 127
1, 52919, Note_off_c, 1, 55, 0
1, 52919, Note_off_c, 1, 85, 0
1, 52919, Note_off_c, 1, 73, 0
1, 52919, Note_off_c, 1, 64, 0
1, 52919, Note_off_c, 1, 57, 0
1, 52920, Note_on_c, 1, 86, 127
1, 52920, Note_on_c, 1, 74, 127
1, 52920, Note_on_c, 1, 66, 127
1, 52920, Note_on_c, 1, 57, 127
1, 52920, Note_on_c, 1, 54, 127
1, 52979, Note_off_c, 1, 54, 0
1, 52980, Note_on_c, 1, 55, 127
1, 53039, Note_off_c, 1, 86, 0
1, 53039, Note_off_c, 1, 74, 0
1, 53039, Note_off_c, 1, 66, 0
1, 53039, Note_off_c, 1, 57, 0
1, 53039, Note_off_c, 1, 55, 0
1, 53040, Note_on_c, 1, 86, 127
1, 53040, Note_on_c, 1, 74, 127
1, 53040, Note_on_c, 1, 64, 127
1, 53040, Note_on_c, 1, 57, 127
1, 53099, Note_off_c, 1, 64, 0
1, 53100, Note_on_c, 1, 66, 127
1, 53159, Note_off_c, 1, 86, 0
1, 53159, Note_off_c, 1, 74, 0
1, 53159, Note_off_c, 1, 57, 0
1, 53159, Note_off_c, 1, 66, 0
1, 53160, Note_on_c, 1, 85, 127
1, 53160, Note_on_c, 1, 73, 127
1, 53160, Note_on_c, 1, 67, 127
1, 53160, Note_on_c, 1, 57, 127
1, 53160, Note_on_c, 1, 45, 127
1, 53279, Note_off_c, 1, 85, 0
1, 53279, Note_off_c, 1, 73, 0
1, 53279, Note_off_c, 1, 67, 0
1, 53279, Note_off_c, 1, 57, 0
1, 53279, Note_off_c, 1, 45, 0
1, 53280, Note_on_c, 1, 86, 127
1, 53280, Note_on_c, 1, 74, 127
1, 53280, Note_on_c, 1, 66, 127
1, 53280, Note_on_c, 1, 57, 127
1, 53280, Note_on_c, 1, 50, 127
1, 53369, Note_off_c, 1, 86, 0
1, 53369, Note_off_c, 1, 74, 0
1, 53369, Note_off_c, 1, 66, 0
1, 53369, Note_off_c, 1, 57, 0
1, 53369, Note_off_c, 1, 50, 0
1, 53400, Note_on_c, 1, 83, 127
1, 53400, Note_on_c, 1, 71, 127
1, 53400, Note_on_c, 1, 66, 127
1, 53400, Note_on_c, 1, 59, 127
1, 53400, Note_on_c, 1, 51, 127
1, 53459, Note_off_c, 1, 59, 0
1, 53460, Note_on_c, 1, 57, 127
1, 53519, Note_off_c, 1, 83, 0
1, 53519, Note_off_c, 1, 71, 0
1, 53519, Note_off_c, 1, 66, 0
1, 53519, Note_off_c, 1, 51, 0
1, 53519, Note_off_c, 1, 57, 0
1, 53520, Note_on_c, 1, 84, 127
1, 53520, Note_on_c, 1, 72, 127
1, 53520, Note_on_c, 1, 64, 127
1, 53520, Note_on_c, 1, 55, 127
1, 53520, Note_on_c, 1, 52, 127
1, 53579, Note_off_c, 1, 55, 0
1, 53579, Note_off_c, 1, 52, 0
1, 53580, Note_on_c, 1, 57, 127
1, 53580, Note_on_c, 1, 54, 127
1, 53639, Note_off_c, 1, 84, 0
1, 53639, Note_off_c, 1, 72, 0
1, 53639, Note_off_c, 1, 64, 0
1, 53639, Note_off_c, 1, 57, 0
1, 53639, Note_off_c, 1, 54, 0
1, 53640, Note_on_c, 1, 83, 127
1, 53640, Note_on_c, 1, 71, 127
1, 53640, Note_on_c, 1, 62, 127
1, 53640, Note_on_c, 1, 59, 127
1, 53640, Note_on_c, 1, 55, 127
1, 53699, Note_off_c, 1, 62, 0
1, 53699, Note_off_c, 1, 59, 0
1, 53699, Note_off_c, 1, 55, 0
1, 53700, Note_on_c, 1, 64, 127
1, 53700, Note_on_c, 1, 60, 127
1, 53700, Note_on_c, 1, 48, 127
1, 53759, Note_off_c, 1, 83, 0
1, 53759, Note_off_c, 1, 71, 0
1, 53759, Note_off_c, 1, 64, 0
1, 53759, Note_off_c, 1, 60, 0
1, 53760, Note_on_c, 1, 81, 127
1, 53760, Note_on_c, 1, 69, 127
1, 53760, Note_on_c, 1, 66, 127
1, 53819, Note_off_c, 1, 48, 0
1, 53820, Note_on_c, 1, 47, 127
1, 53879, Note_off_c, 1, 81, 0
1, 53879, Note_off_c, 1, 69, 0
1, 53879, Note_off_c, 1, 66, 0
1, 53879, Note_off_c, 1, 47, 0
1, 53880, Note_on_c, 1, 83, 127
1, 53880, Note_on_c, 1, 71, 127
1, 53880, Note_on_c, 1, 67, 127
1, 53880, Note_on_c, 1, 62, 127
1, 53880, Note_on_c, 1, 57, 127
1, 53880, Note_on_c, 1, 45, 127
1, 53939, Note_off_c, 1, 57, 0
1, 53939, Note_off_c, 1, 45, 0
1, 53940, Note_on_c, 1, 55, 127
1, 53940, Note_on_c, 1, 43, 127
1, 53999, Note_off_c, 1, 83, 0
1, 53999, Note_off_c, 1, 71, 0
1, 53999, Note_off_c, 1, 67, 0
1, 53999, Note_off_c, 1, 62, 0
1, 53999, Note_off_c, 1, 55, 0
1, 53999, Note_off_c, 1, 43, 0
1, 54000, Note_on_c, 1, 81, 127
1, 54000, Note_on_c, 1, 69, 127
1, 54000, Note_on_c, 1, 67, 127
1, 54000, Note_on_c, 1, 62, 127
1, 54000, Note_on_c, 1, 50, 127
1, 54119, Note_off_c, 1, 67, 0
1, 54119, Note_off_c, 1, 50, 0
1, 54120, Note_on_c, 1, 66, 127
1, 54120, Note_on_c, 1, 38, 127
1, 54179, Note_off_c, 1, 62, 0
1, 54180, Note_on_c, 1, 60, 127
1, 54239, Note_off_c, 1, 81, 0
1, 54239, Note_off_c, 1, 69, 0
1, 54239, Note_off_c, 1, 66, 0
1, 54239, Note_off_c, 1, 38, 0
1, 54239, Note_off_c, 1, 60, 0
1, 54240, Note_on_c, 1, 79, 127
1, 54240, Note_on_c, 1, 67, 127
1, 54240, Note_on_c, 1, 62, 127
1, 54240, Note_on_c, 1, 59, 127
1, 54240, Note_on_c, 1, 55, 127
1, 54240, Note_on_c, 1, 43, 127
1, 54329, Note_off_c, 1, 79, 0
1, 54329, Note_off_c, 1, 67, 0
1, 54329, Note_off_c, 1, 62, 0
1, 54329, Note_off_c, 1, 59, 0
1, 54329, Note_off_c, 1, 55, 0
1, 54329, Note_off_c, 1, 43, 0
1, 54360, Note_on_c, 1, 81, 127
1, 54360, Note_on_c, 1, 69, 127
1, 54360, Note_on_c, 1, 66, 127
1, 54360, Note_on_c, 1, 62, 127
1, 54360, Note_on_c, 1, 50, 127
1, 54419, Note_off_c, 1, 66, 0
1, 54419, Note_off_c, 1, 62, 0
1, 54420, Note_on_c, 1, 67, 127
1, 54420, Note_on_c, 1, 64, 127
1, 54479, Note_off_c, 1, 81, 0
1, 54479, Note_off_c, 1, 69, 0
1, 54479, Note_off_c, 1, 50, 0
1, 54479, Note_off_c, 1, 67, 0
1, 54479, Note_off_c, 1, 64, 0
1, 54480, Note_on_c, 1, 81, 127
1, 54480, Note_on_c, 1, 69, 127
1, 54480, Note_on_c, 1, 66, 127
1, 54480, Note_on_c, 1, 62, 127
1, 54539, Note_off_c, 1, 66, 0
1, 54539, Note_off_c, 1, 62, 0
1, 54540, Note_on_c, 1, 64, 127
1, 54540, Note_on_c, 1, 60, 127
1, 54599, Note_off_c, 1, 81, 0
1, 54599, Note_off_c, 1, 64, 0
1, 54599, Note_off_c, 1, 60, 0
1, 54600, Note_on_c, 1, 83, 127
1, 54600, Note_on_c, 1, 71, 127
1, 54600, Note_on_c, 1, 59, 127
1, 54659, Note_off_c, 1, 69, 0
1, 54660, Note_on_c, 1, 68, 127
1, 54719, Note_off_c, 1, 83, 0
1, 54719, Note_off_c, 1, 71, 0
1, 54719, Note_off_c, 1, 59, 0
1, 54719, Note_off_c, 1, 68, 0
1, 54720, Note_on_c, 1, 84, 127
1, 54720, Note_on_c, 1, 72, 127
1, 54720, Note_on_c, 1, 69, 127
1, 54720, Note_on_c, 1, 64, 127
1, 54720, Note_on_c, 1, 57, 127
1, 54779, Note_off_c, 1, 69, 0
1, 54780, Note_on_c, 1, 68, 127
1, 54839, Note_off_c, 1, 84, 0
1, 54839, Note_off_c, 1, 72, 0
1, 54839, Note_off_c, 1, 64, 0
1, 54839, Note_off_c, 1, 57, 0
1, 54839, Note_off_c, 1, 68, 0
1, 54840, Note_on_c, 1, 84, 127
1, 54840, Note_on_c, 1, 72, 127
1, 54840, Note_on_c, 1, 69, 127
1, 54840, Note_on_c, 1, 66, 127
1, 54840, Note_on_c, 1, 51, 127
1, 54959, Note_off_c, 1, 84, 0
1, 54959, Note_off_c, 1, 72, 0
1, 54959, Note_off_c, 1, 69, 0
1, 54959, Note_off_c, 1, 66, 0
1, 54959, Note_off_c, 1, 51, 0
1, 54960, Note_on_c, 1, 83, 127
1, 54960, Note_on_c, 1, 71, 127
1, 54960, Note_on_c, 1, 69, 127
1, 54960, Note_on_c, 1, 59, 127
1, 54960, Note_on_c, 1, 52, 127
1, 55019, Note_off_c, 1, 83, 0
1, 55019, Note_off_c, 1, 71, 0
1, 55020, Note_on_c, 1, 81, 127
1, 55079, Note_off_c, 1, 69, 0
1, 55079, Note_off_c, 1, 59, 0
1, 55079, Note_off_c, 1, 52, 0
1, 55079, Note_off_c, 1, 81, 0
1, 55080, Note_on_c, 1, 83, 127
1, 55080, Note_on_c, 1, 71, 127
1, 55080, Note_on_c, 1, 68, 127
1, 55080, Note_on_c, 1, 64, 127
1, 55080, Note_on_c, 1, 52, 127
1, 55080, Note_on_c, 1, 40, 127
1, 55139, Note_off_c, 1, 64, 0
1, 55140, Note_on_c, 1, 62, 127
1, 55199, Note_off_c, 1, 83, 0
1, 55199, Note_off_c, 1, 71, 0
1, 55199, Note_off_c, 1, 68, 0
1, 55199, Note_off_c, 1, 52, 0
1, 55199, Note_off_c, 1, 40, 0
1, 55199, Note_off_c, 1, 62, 0
1, 55200, Note_on_c, 1, 81, 127
1, 55200, Note_on_c, 1, 69, 127
1, 55200, Note_on_c, 1, 64, 127
1, 55200, Note_on_c, 1, 60, 127
1, 55200, Note_on_c, 1, 45, 127
1, 55289, Note_off_c, 1, 81, 0
1, 55289, Note_off_c, 1, 69, 0
1, 55289, Note_off_c, 1, 64, 0
1, 55289, Note_off_c, 1, 60, 0
1, 55289, Note_off_c, 1, 45, 0
1, 55320, Note_on_c, 1, 83, 127
1, 55320, Note_on_c, 1, 71, 127
1, 55320, Note_on_c, 1, 64, 127
1, 55320, Note_on_c, 1, 55, 127
1, 55320, Note_on_c, 1, 52, 127
1, 55379, Note_off_c, 1, 64, 0
1, 55379, Note_off_c, 1, 55, 0
1, 55379, Note_off_c, 1, 52, 0
1, 55380, Note_on_c, 1, 63, 127
1, 55380, Note_on_c, 1, 57, 127
1, 55380, Note_on_c, 1, 54, 127
1, 55439, Note_off_c, 1, 83, 0
1, 55439, Note_off_c, 1, 71, 0
1, 55439, Note_off_c, 1, 63, 0
1, 55439, Note_off_c, 1, 57, 0
1, 55439, Note_off_c, 1, 54, 0
1, 55440, Note_on_c, 1, 83, 127
1, 55440, Note_on_c, 1, 71, 127
1, 55440, Note_on_c, 1, 64, 127
1, 55440, Note_on_c, 1, 59, 127
1, 55440, Note_on_c, 1, 55, 127
1, 55499, Note_off_c, 1, 59, 0
1, 55500, Note_on_c, 1, 60, 127
1, 55559, Note_off_c, 1, 83, 0
1, 55559, Note_off_c, 1, 71, 0
1, 55559, Note_off_c, 1, 64, 0
1, 55559, Note_off_c, 1, 55, 0
1, 55559, Note_off_c, 1, 60, 0
1, 55560, Note_on_c, 1, 83, 127
1, 55560, Note_on_c, 1, 71, 127
1, 55560, Note_on_c, 1, 64, 127
1, 55560, Note_on_c, 1, 62, 127
1, 55560, Note_on_c, 1, 56, 127
1, 55619, Note_off_c, 1, 62, 0
1, 55679, Note_off_c, 1, 83, 0
1, 55679, Note_off_c, 1, 71, 0
1, 55679, Note_off_c, 1, 64, 0
1, 55679, Note_off_c, 1, 56, 0
1, 55680, Note_on_c, 1, 84, 127
1, 55680, Note_on_c, 1, 72, 127
1, 55680, Note_on_c, 1, 64, 127
1, 55680, Note_on_c, 1, 60, 127
1, 55680, Note_on_c, 1, 57, 127
1, 55739, Note_off_c, 1, 84, 0
1, 55739, Note_off_c, 1, 72, 0
1, 55739, Note_off_c, 1, 64, 0
1, 55740, Note_on_c, 1, 86, 127
1, 55740, Note_on_c, 1, 74, 127
1, 55740, Note_on_c, 1, 66, 127
1, 55799, Note_off_c, 1, 60, 0
1, 55799, Note_off_c, 1, 57, 0
1, 55799, Note_off_c, 1, 86, 0
1, 55799, Note_off_c, 1, 74, 0
1, 55799, Note_off_c, 1, 66, 0
1, 55800, Note_on_c, 1, 88, 127
1, 55800, Note_on_c, 1, 76, 127
1, 55800, Note_on_c, 1, 67, 127
1, 55800, Note_on_c, 1, 61, 127
1, 55800, Note_on_c, 1, 58, 127
1, 55859, Note_off_c, 1, 67, 0
1, 55860, Note_on_c, 1, 66, 127
1, 55919, Note_off_c, 1, 88, 0
1, 55919, Note_off_c, 1, 76, 0
1, 55919, Note_off_c, 1, 61, 0
1, 55919, Note_off_c, 1, 58, 0
1, 55919, Note_off_c, 1, 66, 0
1, 55920, Note_on_c, 1, 88, 127
1, 55920, Note_on_c, 1, 76, 127
1, 55920, Note_on_c, 1, 66, 127
1, 55920, Note_on_c, 1, 59, 127
1, 55979, Note_off_c, 1, 66, 0
1, 55980, Note_on_c, 1, 67, 127
1, 56039, Note_off_c, 1, 88, 0
1, 56039, Note_off_c, 1, 76, 0
1, 56039, Note_off_c, 1, 59, 0
1, 56039, Note_off_c, 1, 67, 0
1, 56040, Note_on_c, 1, 87, 127
1, 56040, Note_on_c, 1, 75, 127
1, 56040, Note_on_c, 1, 69, 127
1, 56040, Note_on_c, 1, 59, 127
1, 56040, Note_on_c, 1, 47, 127
1, 56159, Note_off_c, 1, 87, 0
1, 56159, Note_off_c, 1, 75, 0
1, 56159, Note_off_c, 1, 69, 0
1, 56159, Note_off_c, 1, 59, 0
1, 56159, Note_off_c, 1, 47, 0
1, 56160, Note_on_c, 1, 88, 127
1, 56160, Note_on_c, 1, 76, 127
1, 56160, Note_on_c, 1, 67, 127
1, 56160, Note_on_c, 1, 59, 127
1, 56160, Note_on_c, 1, 52, 127
1, 56249, Note_off_c, 1, 88, 0
1, 56249, Note_off_c, 1, 76, 0
1, 56249, Note_off_c, 1, 67, 0
1, 56249, Note_off_c, 1, 59, 0
1, 56249, Note_off_c, 1, 52, 0
1, 56280, Note_on_c, 1, 90, 127
1, 56280, Note_on_c, 1, 78, 127
1, 56280, Note_on_c, 1, 69, 127
1, 56280, Note_on_c, 1, 62, 127
1, 56280, Note_on_c, 1, 50, 127
1, 56339, Note_off_c, 1, 50, 0
1, 56340, Note_on_c, 1, 60, 127
1, 56340, Note_on_c, 1, 48, 127
1, 56399, Note_off_c, 1, 90, 0
1, 56399, Note_off_c, 1, 78, 0
1, 56399, Note_off_c, 1, 69, 0
1, 56399, Note_off_c, 1, 62, 0
1, 56399, Note_off_c, 1, 60, 0
1, 56399, Note_off_c, 1, 48, 0
1, 56400, Note_on_c, 1, 91, 127
1, 56400, Note_on_c, 1, 79, 127
1, 56400, Note_on_c, 1, 67, 127
1, 56400, Note_on_c, 1, 62, 127
1, 56400, Note_on_c, 1, 59, 127
1, 56400, Note_on_c, 1, 47, 127
1, 56459, Note_off_c, 1, 67, 0
1, 56459, Note_off_c, 1, 59, 0
1, 56459, Note_off_c, 1, 47, 0
1, 56460, Note_on_c, 1, 69, 127
1, 56460, Note_on_c, 1, 57, 127
1, 56460, Note_on_c, 1, 45, 127
1, 56519, Note_off_c, 1, 91, 0
1, 56519, Note_off_c, 1, 79, 0
1, 56519, Note_off_c, 1, 62, 0
1, 56519, Note_off_c, 1, 69, 0
1, 56519, Note_off_c, 1, 57, 0
1, 56519, Note_off_c, 1, 45, 0
1, 56520, Note_on_c, 1, 83, 127
1, 56520, Note_on_c, 1, 71, 127
1, 56520, Note_on_c, 1, 67, 127
1, 56520, Note_on_c, 1, 55, 127
1, 56520, Note_on_c, 1, 43, 127
1, 56579, Note_off_c, 1, 55, 0
1, 56579, Note_off_c, 1, 43, 0
1, 56580, Note_on_c, 1, 54, 127
1, 56580, Note_on_c, 1, 42, 127
1, 56639, Note_off_c, 1, 83, 0
1, 56639, Note_off_c, 1, 71, 0
1, 56639, Note_off_c, 1, 67, 0
1, 56639, Note_off_c, 1, 54, 0
1, 56639, Note_off_c, 1, 42, 0
1, 56640, Note_on_c, 1, 84, 127
1, 56640, Note_on_c, 1, 72, 127
1, 56640, Note_on_c, 1, 71, 127
1, 56640, Note_on_c, 1, 55, 127
1, 56640, Note_on_c, 1, 52, 127
1, 56640, Note_on_c, 1, 40, 127
1, 56699, Note_off_c, 1, 71, 0
1, 56699, Note_off_c, 1, 55, 0
1, 56699, Note_off_c, 1, 52, 0
1, 56699, Note_off_c, 1, 40, 0
1, 56700, Note_on_c, 1, 69, 127
1, 56700, Note_on_c, 1, 57, 127
1, 56700, Note_on_c, 1, 54, 127
1, 56700, Note_on_c, 1, 42, 127
1, 56759, Note_off_c, 1, 84, 0
1, 56759, Note_off_c, 1, 72, 0
1, 56759, Note_off_c, 1, 69, 0
1, 56759, Note_off_c, 1, 57, 0
1, 56759, Note_off_c, 1, 54, 0
1, 56759, Note_off_c, 1, 42, 0
1, 56760, Note_on_c, 1, 83, 127
1, 56760, Note_on_c, 1, 71, 127
1, 56760, Note_on_c, 1, 69, 127
1, 56760, Note_on_c, 1, 59, 127
1, 56760, Note_on_c, 1, 55, 127
1, 56760, Note_on_c, 1, 43, 127
1, 56819, Note_off_c, 1, 69, 0
1, 56819, Note_off_c, 1, 55, 0
1, 56819, Note_off_c, 1, 43, 0
1, 56820, Note_on_c, 1, 67, 127
1, 56820, Note_on_c, 1, 52, 127
1, 56820, Note_on_c, 1, 40, 127
1, 56879, Note_off_c, 1, 83, 0
1, 56879, Note_off_c, 1, 71, 0
1, 56879, Note_off_c, 1, 59, 0
1, 56879, Note_off_c, 1, 67, 0
1, 56879, Note_off_c, 1, 52, 0
1, 56879, Note_off_c, 1, 40, 0
1, 56880, Note_on_c, 1, 81, 127
1, 56880, Note_on_c, 1, 69, 127
1, 56880, Note_on_c, 1, 67, 127
1, 56880, Note_on_c, 1, 64, 127
1, 56880, Note_on_c, 1, 49, 127
1, 56939, Note_off_c, 1, 64, 0
1, 56939, Note_off_c, 1, 49, 0
1, 56940, Note_on_c, 1, 62, 127
1, 56940, Note_on_c, 1, 47, 127
1, 56999, Note_off_c, 1, 62, 0
1, 56999, Note_off_c, 1, 47, 0
1, 57060, Note_on_c, 1, 61, 127
1, 57060, Note_on_c, 1, 45, 127
1, 57119, Note_off_c, 1, 81, 0
1, 57119, Note_off_c, 1, 69, 0
1, 57119, Note_off_c, 1, 67, 0
1, 57119, Note_off_c, 1, 61, 0
1, 57119, Note_off_c, 1, 45, 0
1, 57120, Note_on_c, 1, 81, 127
1, 57120, Note_on_c, 1, 69, 127
1, 57120, Note_on_c, 1, 66, 127
1, 57120, Note_on_c, 1, 62, 127
1, 57120, Note_on_c, 1, 50, 127
1, 57209, Note_off_c, 1, 81, 0
1, 57209, Note_off_c, 1, 69, 0
1, 57209, Note_off_c, 1, 66, 0
1, 57209, Note_off_c, 1, 62, 0
1, 57209, Note_off_c, 1, 50, 0
1, 57240, Note_on_c, 1, 86, 127
1, 57240, Note_on_c, 1, 74, 127
1, 57240, Note_on_c, 1, 67, 127
1, 57240, Note_on_c, 1, 62, 127
1, 57240, Note_on_c, 1, 47, 127
1, 57299, Note_off_c, 1, 67, 0
1, 57300, Note_on_c, 1, 66, 127
1, 57359, Note_off_c, 1, 86, 0
1, 57359, Note_off_c, 1, 74, 0
1, 57359, Note_off_c, 1, 47, 0
1, 57359, Note_off_c, 1, 66, 0
1, 57360, Note_on_c, 1, 88, 127
1, 57360, Note_on_c, 1, 76, 127
1, 57360, Note_on_c, 1, 64, 127
1, 57360, Note_on_c, 1, 48, 127
1, 57419, Note_off_c, 1, 62, 0
1, 57420, Note_on_c, 1, 60, 127
1, 57479, Note_off_c, 1, 88, 0
1, 57479, Note_off_c, 1, 76, 0
1, 57479, Note_off_c, 1, 64, 0
1, 57479, Note_off_c, 1, 48, 0
1, 57480, Note_on_c, 1, 50, 127
1, 57539, Note_off_c, 1, 60, 0
1, 57540, Note_on_c, 1, 59, 127
1, 57599, Note_off_c, 1, 50, 0
1, 57600, Note_on_c, 1, 84, 127
1, 57600, Note_on_c, 1, 72, 127
1, 57600, Note_on_c, 1, 52, 127
1, 57659, Note_off_c, 1, 59, 0
1, 57659, Note_off_c, 1, 52, 0
1, 57660, Note_on_c, 1, 69, 127
1, 57660, Note_on_c, 1, 57, 127
1, 57660, Note_on_c, 1, 54, 127
1, 57719, Note_off_c, 1, 84, 0
1, 57719, Note_off_c, 1, 72, 0
1, 57719, Note_off_c, 1, 69, 0
1, 57719, Note_off_c, 1, 57, 0
1, 57719, Note_off_c, 1, 54, 0
1, 57720, Note_on_c, 1, 83, 127
1, 57720, Note_on_c, 1, 71, 127
1, 57720, Note_on_c, 1, 62, 127
1, 57720, Note_on_c, 1, 55, 127
1, 57779, Note_off_c, 1, 83, 0
1, 57779, Note_off_c, 1, 71, 0
1, 57780, Note_on_c, 1, 84, 127
1, 57780, Note_on_c, 1, 72, 127
1, 57839, Note_off_c, 1, 62, 0
1, 57839, Note_off_c, 1, 84, 0
1, 57839, Note_off_c, 1, 72, 0
1, 57840, Note_on_c, 1, 81, 127
1, 57840, Note_on_c, 1, 69, 127
1, 57840, Note_on_c, 1, 64, 127
1, 57840, Note_on_c, 1, 48, 127
1, 57899, Note_off_c, 1, 55, 0
1, 57900, Note_on_c, 1, 60, 127
1, 57900, Note_on_c, 1, 54, 127
1, 57929, Note_off_c, 1, 60, 0
1, 57929, Note_off_c, 1, 54, 0
1, 57930, Note_on_c, 1, 59, 127
1, 57930, Note_on_c, 1, 52, 127
1, 57959, Note_off_c, 1, 64, 0
1, 57959, Note_off_c, 1, 48, 0
1, 57959, Note_off_c, 1, 59, 0
1, 57959, Note_off_c, 1, 52, 0
1, 57960, Note_on_c, 1, 57, 127
1, 57960, Note_on_c, 1, 50, 127
1, 58020, Note_off_c, 1, 57, 0
1, 58079, Note_off_c, 1, 81, 0
1, 58079, Note_off_c, 1, 69, 0
1, 58079, Note_off_c, 1, 50, 0
1, 58080, Note_on_c, 1, 79, 127
1, 58080, Note_on_c, 1, 67, 127
1, 58080, Note_on_c, 1, 62, 127
1, 58080, Note_on_c, 1, 55, 127
1, 58080, Note_on_c, 1, 59, 127
1, 58080, Note_on_c, 1, 43, 127
1, 58199, Note_off_c, 1, 79, 0
1, 58199, Note_off_c, 1, 67, 0
1, 58199, Note_off_c, 1, 62, 0
1, 58199, Note_off_c, 1, 55, 0
1, 58199, Note_off_c, 1, 59, 0
1, 58199, Note_off_c, 1, 43, 0
1, 58320, Note_on_c, 1, 49, 127
1, 58320, Note_on_c, 1, 69, 127
1, 58320, Note_on_c, 1, 64, 127
1, 58560, Note_on_c, 1, 76, 127
1, 58680, Note_off_c, 1, 69, 0
1, 58680, Note_off_c, 1, 76, 0
1, 58680, Note_on_c, 1, 79, 127
1, 58680, Note_on_c, 1, 67, 127
1, 58740, Note_off_c, 1, 79, 0
1, 58740, Note_on_c, 1, 78, 127
1, 58800, Note_off_c, 1, 49, 0
1, 58800, Note_off_c, 1, 64, 0
1, 58800, Note_off_c, 1, 67, 0
1, 58800, Note_on_c, 1, 50, 127
1, 58800, Note_on_c, 1, 66, 127
1, 58800, Note_on_c, 1, 62, 127
1, 58920, Note_on_c, 1, 81, 127
1, 58920, Note_on_c, 1, 74, 127
1, 59160, Note_off_c, 1, 78, 0
1, 59160, Note_off_c, 1, 50, 0
1, 59160, Note_off_c, 1, 66, 0
1, 59160, Note_off_c, 1, 62, 0
1, 59160, Note_off_c, 1, 81, 0
1, 59160, Note_off_c, 1, 74, 0
1, 59160, Note_on_c, 1, 73, 127
1, 59160, Note_on_c, 1, 52, 127
1, 59280, Note_off_c, 1, 73, 0
1, 59280, Note_off_c, 1, 52, 0
1, 59520, Note_on_c, 1, 45, 127
1, 59760, Note_off_c, 1, 45, 0
1, 60000, Note_on_c, 1, 71, 127
1, 60000, Note_on_c, 1, 44, 127
1, 60240, Note_off_c, 1, 71, 0
1, 60240, Note_off_c, 1, 44, 0
1, 60480, Note_on_c, 1, 38, 127
1, 60960, Note_off_c, 1, 38, 0
1, 60960, Note_on_c, 1, 70, 127
1, 61200, Note_off_c, 1, 70, 0
1, 61200, Note_on_c, 1, 61, 127
1, 61200, Note_on_c, 1, 46, 127
1, 61320, Note_off_c, 1, 46, 0
1, 61320, Note_on_c, 1, 42, 127
1, 61440, Note_off_c, 1, 61, 0
1, 61440, Note_off_c, 1, 42, 0
1, 61440, Note_on_c, 1, 47, 127
1, 61560, Note_off_c, 1, 47, 0
1, 61560, Note_on_c, 1, 59, 127
1, 61680, Note_off_c, 1, 59, 0
1, 61680, Note_on_c, 1, 55, 127
1, 61800, Note_off_c, 1, 55, 0
1, 61920, Note_on_c, 1, 54, 127
1, 62160, Note_off_c, 1, 54, 0
1, 62400, Note_on_c, 1, 74, 127
1, 62400, Note_on_c, 1, 71, 127
1, 62400, Note_on_c, 1, 67, 127
1, 62400, Note_on_c, 1, 62, 127
1, 62400, Note_on_c, 1, 43, 127
1, 62520, Note_off_c, 1, 74, 0
1, 62580, Note_on_c, 1, 59, 127
1, 62639, Note_off_c, 1, 59, 0
1, 62640, Note_on_c, 1, 55, 127
1, 62729, Note_off_c, 1, 55, 0
1, 62760, Note_on_c, 1, 57, 127
1, 62819, Note_off_c, 1, 57, 0
1, 62880, Note_off_c, 1, 71, 0
1, 62880, Note_off_c, 1, 62, 0
1, 62880, Note_on_c, 1, 76, 127
1, 62880, Note_on_c, 1, 64, 127
1, 62880, Note_on_c, 1, 60, 127
1, 62880, Note_on_c, 1, 72, 127
1, 63000, Note_off_c, 1, 76, 0
1, 63000, Note_off_c, 1, 60, 0
1, 63120, Note_on_c, 1, 54, 127
1, 63179, Note_off_c, 1, 54, 0
1, 63360, Note_off_c, 1, 67, 0
1, 63360, Note_off_c, 1, 64, 0
1, 63360, Note_on_c, 1, 78, 127
1, 63360, Note_on_c, 1, 69, 127
1, 63360, Note_on_c, 1, 66, 127
1, 63420, Note_on_c, 1, 50, 127
1, 63479, Note_off_c, 1, 50, 0
1, 63480, Note_off_c, 1, 78, 0
1, 63600, Note_off_c, 1, 72, 0
1, 63600, Note_off_c, 1, 69, 0
1, 63600, Note_off_c, 1, 66, 0
1, 63600, Note_on_c, 1, 79, 127
1, 63720, Note_off_c, 1, 79, 0
1, 64080, Note_on_c, 1, 52, 127
1, 64139, Note_off_c, 1, 52, 0
1, 64200, Note_on_c, 1, 73, 127
1, 64200, Note_on_c, 1, 61, 127
1, 64259, Note_off_c, 1, 61, 0
1, 64320, Note_off_c, 1, 73, 0
1, 64560, Note_off_c, 1, 43, 0
1, 64560, Note_on_c, 1, 42, 127
1, 65040, Note_on_c, 1, 81, 127
1, 65040, Note_on_c, 1, 63, 127
1, 65040, Note_on_c, 1, 75, 127
1, 65160, Note_off_c, 1, 81, 0
1, 65219, Note_off_c, 1, 63, 0
1, 65280, Note_off_c, 1, 42, 0
1, 65280, Note_off_c, 1, 75, 0
1, 65280, Note_on_c, 1, 51, 127
1, 65760, Note_on_c, 1, 47, 127
1, 65820, Note_off_c, 1, 47, 0
1, 65879, Note_off_c, 1, 51, 0
1, 65880, Note_on_c, 1, 78, 127
1, 65880, Note_on_c, 1, 75, 127
1, 65880, Note_on_c, 1, 66, 127
1, 65880, Note_on_c, 1, 60, 127
1, 65880, Note_on_c, 1, 45, 127
1, 65880, Note_on_c, 1, 72, 127
1, 65910, Note_off_c, 1, 78, 0
1, 65910, Note_off_c, 1, 60, 0
1, 65940, Note_off_c, 1, 75, 0
1, 65940, Note_off_c, 1, 66, 0
1, 65940, Note_off_c, 1, 45, 0
1, 65940, Note_off_c, 1, 72, 0
1, 66000, Note_on_c, 1, 76, 127
1, 66000, Note_on_c, 1, 71, 127
1, 66000, Note_on_c, 1, 67, 127
1, 66000, Note_on_c, 1, 59, 127
1, 66000, Note_on_c, 1, 43, 127
1, 66000, Note_on_c, 1, 64, 127
1, 66030, Note_off_c, 1, 76, 0
1, 66059, Note_off_c, 1, 59, 0
1, 66060, Note_off_c, 1, 71, 0
1, 66060, Note_off_c, 1, 67, 0
1, 66060, Note_off_c, 1, 43, 0
1, 66060, Note_off_c, 1, 64, 0
1, 66060, Note_on_c, 1, 52, 127
1, 66119, Note_off_c, 1, 52, 0
1, 66120, Note_on_c, 1, 76, 127
1, 66120, Note_on_c, 1, 64, 127
1, 66120, Note_on_c, 1, 72, 127
1, 66120, Note_on_c, 1, 69, 127
1, 66120, Note_on_c, 1, 57, 127
1, 66120, Note_on_c, 1, 48, 127
1, 66150, Note_off_c, 1, 76, 0
1, 66179, Note_off_c, 1, 57, 0
1, 66180, Note_off_c, 1, 64, 0
1, 66180, Note_off_c, 1, 72, 0
1, 66180, Note_off_c, 1, 69, 0
1, 66180, Note_off_c, 1, 48, 0
1, 66180, Note_on_c, 1, 55, 127
1, 66239, Note_off_c, 1, 55, 0
1, 66240, Note_on_c, 1, 54, 127
1, 66299, Note_off_c, 1, 54, 0
1, 66300, Note_on_c, 1, 52, 127
1, 66359, Note_off_c, 1, 52, 0
1, 66360, Note_on_c, 1, 75, 127
1, 66360, Note_on_c, 1, 71, 127
1, 66360, Note_on_c, 1, 66, 127
1, 66360, Note_on_c, 1, 69, 127
1, 66360, Note_on_c, 1, 47, 127
1, 66480, Note_off_c, 1, 75, 0
1, 66480, Note_off_c, 1, 66, 0
1, 66480, Note_off_c, 1, 69, 0
1, 66480, Note_off_c, 1, 47, 0
1, 66480, Note_on_c, 1, 76, 127
1, 66480, Note_on_c, 1, 64, 127
1, 66480, Note_on_c, 1, 67, 127
1, 66480, Note_on_c, 1, 40, 127
1, 66720, Note_off_c, 1, 71, 0
1, 66720, Note_off_c, 1, 76, 0
1, 66720, Note_off_c, 1, 64, 0
1, 66720, Note_off_c, 1, 67, 0
1, 66720, Note_off_c, 1, 40, 0
1, 66960, Note_on_c, 1, 71, 127
1, 66960, Note_on_c, 1, 52, 127
1, 66960, Note_on_c, 1, 64, 127
1, 66960, Note_on_c, 1, 67, 127
1, 67019, Note_off_c, 1, 71, 0
1, 67020, Note_on_c, 1, 79, 127
1, 67049, Note_off_c, 1, 79, 0
1, 67050, Note_on_c, 1, 78, 127
1, 67079, Note_off_c, 1, 52, 0
1, 67079, Note_off_c, 1, 64, 0
1, 67079, Note_off_c, 1, 67, 0
1, 67079, Note_off_c, 1, 78, 0
1, 67080, Note_on_c, 1, 76, 127
1, 67080, Note_on_c, 1, 54, 127
1, 67080, Note_on_c, 1, 66, 127
1, 67080, Note_on_c, 1, 63, 127
1, 67109, Note_off_c, 1, 76, 0
1, 67110, Note_on_c, 1, 75, 127
1, 67139, Note_off_c, 1, 54, 0
1, 67139, Note_off_c, 1, 66, 0
1, 67139, Note_off_c, 1, 63, 0
1, 67139, Note_off_c, 1, 75, 0
1, 67140, Note_on_c, 1, 76, 127
1, 67140, Note_on_c, 1, 55, 127
1, 67140, Note_on_c, 1, 64, 127
1, 67140, Note_on_c, 1, 67, 127
1, 67169, Note_off_c, 1, 76, 0
1, 67170, Note_on_c, 1, 71, 127
1, 67199, Note_off_c, 1, 55, 0
1, 67199, Note_off_c, 1, 64, 0
1, 67199, Note_off_c, 1, 67, 0
1, 67199, Note_off_c, 1, 71, 0
1, 67200, Note_on_c, 1, 72, 127
1, 67200, Note_on_c, 1, 54, 127
1, 67200, Note_on_c, 1, 63, 127
1, 67200, Note_on_c, 1, 69, 127
1, 67214, Note_off_c, 1, 72, 0
1, 67215, Note_on_c, 1, 71, 127
1, 67229, Note_off_c, 1, 71, 0
1, 67259, Note_off_c, 1, 54, 0
1, 67259, Note_off_c, 1, 63, 0
1, 67259, Note_off_c, 1, 69, 0
1, 67260, Note_on_c, 1, 69, 127
1, 67260, Note_on_c, 1, 55, 127
1, 67260, Note_on_c, 1, 64, 127
1, 67260, Note_on_c, 1, 67, 127
1, 67289, Note_off_c, 1, 69, 0
1, 67290, Note_on_c, 1, 71, 127
1, 67319, Note_off_c, 1, 55, 0
1, 67319, Note_off_c, 1, 64, 0
1, 67319, Note_off_c, 1, 67, 0
1, 67320, Note_on_c, 1, 57, 127
1, 67320, Note_on_c, 1, 66, 127
1, 67320, Note_on_c, 1, 63, 127
1, 67379, Note_off_c, 1, 71, 0
1, 67379, Note_off_c, 1, 57, 0
1, 67379, Note_off_c, 1, 66, 0
1, 67379, Note_off_c, 1, 63, 0
1, 67380, Note_on_c, 1, 83, 127
1, 67380, Note_on_c, 1, 55, 127
1, 67380, Note_on_c, 1, 64, 127
1, 67380, Note_on_c, 1, 67, 127
1, 67409, Note_off_c, 1, 83, 0
1, 67410, Note_on_c, 1, 81, 127
1, 67439, Note_off_c, 1, 55, 0
1, 67439, Note_off_c, 1, 64, 0
1, 67439, Note_off_c, 1, 67, 0
1, 67439, Note_off_c, 1, 81, 0
1, 67440, Note_on_c, 1, 79, 127
1, 67440, Note_on_c, 1, 59, 127
1, 67440, Note_on_c, 1, 69, 127
1, 67440, Note_on_c, 1, 66, 127
1, 67440, Note_on_c, 1, 63, 127
1, 67469, Note_off_c, 1, 79, 0
1, 67470, Note_on_c, 1, 78, 127
1, 67499, Note_off_c, 1, 59, 0
1, 67499, Note_off_c, 1, 69, 0
1, 67499, Note_off_c, 1, 66, 0
1, 67499, Note_off_c, 1, 63, 0
1, 67499, Note_off_c, 1, 78, 0
1, 67500, Note_on_c, 1, 79, 127
1, 67500, Note_on_c, 1, 52, 127
1, 67500, Note_on_c, 1, 67, 127
1, 67500, Note_on_c, 1, 64, 127
1, 67514, Note_off_c, 1, 79, 0
1, 67515, Note_on_c, 1, 78, 127
1, 67529, Note_off_c, 1, 78, 0
1, 67530, Note_on_c, 1, 76, 127
1, 67559, Note_off_c, 1, 76, 0
1, 67590, Note_on_c, 1, 75, 127
1, 67619, Note_off_c, 1, 52, 0
1, 67619, Note_off_c, 1, 67, 0
1, 67619, Note_off_c, 1, 64, 0
1, 67619, Note_off_c, 1, 75, 0
1, 67620, Note_on_c, 1, 75, 127
1, 67649, Note_off_c, 1, 75, 0
1, 67650, Note_on_c, 1, 76, 127
1, 67680, Note_on_c, 1, 57, 127
1, 67709, Note_off_c, 1, 76, 0
1, 67710, Note_on_c, 1, 84, 127
1, 67739, Note_off_c, 1, 57, 0
1, 67739, Note_off_c, 1, 84, 0
1, 67740, Note_on_c, 1, 83, 127
1, 67740, Note_on_c, 1, 54, 127
1, 67769, Note_off_c, 1, 83, 0
1, 67770, Note_on_c, 1, 81, 127
1, 67799, Note_off_c, 1, 54, 0
1, 67799, Note_off_c, 1, 81, 0
1, 67800, Note_on_c, 1, 83, 127
1, 67800, Note_on_c, 1, 55, 127
1, 67829, Note_off_c, 1, 83, 0
1, 67830, Note_on_c, 1, 79, 127
1, 67859, Note_off_c, 1, 55, 0
1, 67859, Note_off_c, 1, 79, 0
1, 67860, Note_on_c, 1, 76, 127
1, 67860, Note_on_c, 1, 60, 127
1, 67889, Note_off_c, 1, 76, 0
1, 67890, Note_on_c, 1, 81, 127
1, 67919, Note_off_c, 1, 60, 0
1, 67919, Note_off_c, 1, 81, 0
1, 67920, Note_on_c, 1, 79, 127
1, 67920, Note_on_c, 1, 51, 127
1, 67949, Note_off_c, 1, 79, 0
1, 67950, Note_on_c, 1, 78, 127
1, 67979, Note_off_c, 1, 51, 0
1, 67979, Note_off_c, 1, 78, 0
1, 67980, Note_on_c, 1, 79, 127
1, 67980, Note_on_c, 1, 52, 127
1, 68009, Note_off_c, 1, 79, 0
1, 68010, Note_on_c, 1, 76, 127
1, 68039, Note_off_c, 1, 76, 0
1, 68040, Note_on_c, 1, 74, 127
1, 68069, Note_off_c, 1, 74, 0
1, 68070, Note_on_c, 1, 72, 127
1, 68099, Note_off_c, 1, 52, 0
1, 68099, Note_off_c, 1, 72, 0
1, 68100, Note_on_c, 1, 71, 127
1, 68100, Note_on_c, 1, 48, 127
1, 68129, Note_off_c, 1, 71, 0
1, 68130, Note_on_c, 1, 69, 127
1, 68159, Note_off_c, 1, 48, 0
1, 68159, Note_off_c, 1, 69, 0
1, 68160, Note_on_c, 1, 78, 127
1, 68160, Note_on_c, 1, 45, 127
1, 68219, Note_off_c, 1, 78, 0
1, 68219, Note_off_c, 1, 45, 0
1, 68220, Note_on_c, 1, 76, 127
1, 68220, Note_on_c, 1, 47, 127
1, 68249, Note_off_c, 1, 47, 0
1, 68250, Note_on_c, 1, 48, 127
1, 68279, Note_off_c, 1, 76, 0
1, 68279, Note_off_c, 1, 48, 0
1, 68280, Note_on_c, 1, 75, 127
1, 68280, Note_on_c, 1, 47, 127
1, 68309, Note_off_c, 1, 47, 0
1, 68310, Note_on_c, 1, 45, 127
1, 68339, Note_off_c, 1, 75, 0
1, 68339, Note_off_c, 1, 45, 0
1, 68340, Note_on_c, 1, 43, 127
1, 68369, Note_off_c, 1, 43, 0
1, 68370, Note_on_c, 1, 42, 127
1, 68399, Note_off_c, 1, 42, 0
1, 68400, Note_on_c, 1, 79, 127
1, 68400, Note_on_c, 1, 40, 127
1, 68429, Note_off_c, 1, 79, 0
1, 68430, Note_on_c, 1, 78, 127
1, 68459, Note_off_c, 1, 40, 0
1, 68459, Note_off_c, 1, 78, 0
1, 68460, Note_on_c, 1, 76, 127
1, 68460, Note_on_c, 1, 59, 127
1, 68489, Note_off_c, 1, 76, 0
1, 68490, Note_on_c, 1, 75, 127
1, 68519, Note_off_c, 1, 59, 0
1, 68519, Note_off_c, 1, 75, 0
1, 68520, Note_on_c, 1, 76, 127
1, 68520, Note_on_c, 1, 61, 127
1, 68549, Note_off_c, 1, 76, 0
1, 68550, Note_on_c, 1, 79, 127
1, 68579, Note_off_c, 1, 61, 0
1, 68579, Note_off_c, 1, 79, 0
1, 68580, Note_on_c, 1, 78, 127
1, 68580, Note_on_c, 1, 62, 127
1, 68609, Note_off_c, 1, 78, 0
1, 68610, Note_on_c, 1, 83, 127
1, 68639, Note_off_c, 1, 83, 0
1, 68640, Note_on_c, 1, 82, 127
1, 68669, Note_off_c, 1, 82, 0
1, 68699, Note_off_c, 1, 62, 0
1, 68700, Note_on_c, 1, 50, 127
1, 68730, Note_on_c, 1, 71, 127
1, 68759, Note_off_c, 1, 50, 0
1, 68759, Note_off_c, 1, 71, 0
1, 68760, Note_on_c, 1, 76, 127
1, 68760, Note_on_c, 1, 49, 127
1, 68789, Note_off_c, 1, 76, 0
1, 68790, Note_on_c, 1, 74, 127
1, 68819, Note_off_c, 1, 49, 0
1, 68819, Note_off_c, 1, 74, 0
1, 68820, Note_on_c, 1, 73, 127
1, 68820, Note_on_c, 1, 59, 127
1, 68849, Note_off_c, 1, 73, 0
1, 68850, Note_on_c, 1, 71, 127
1, 68879, Note_off_c, 1, 59, 0
1, 68879, Note_off_c, 1, 71, 0
1, 68880, Note_on_c, 1, 73, 127
1, 68880, Note_on_c, 1, 58, 127
1, 68909, Note_off_c, 1, 73, 0
1, 68910, Note_on_c, 1, 76, 127
1, 68939, Note_off_c, 1, 58, 0
1, 68939, Note_off_c, 1, 76, 0
1, 68940, Note_on_c, 1, 74, 127
1, 68940, Note_on_c, 1, 59, 127
1, 68969, Note_off_c, 1, 74, 0
1, 68970, Note_on_c, 1, 83, 127
1, 68999, Note_off_c, 1, 83, 0
1, 69000, Note_on_c, 1, 82, 127
1, 69029, Note_off_c, 1, 82, 0
1, 69059, Note_off_c, 1, 59, 0
1, 69060, Note_on_c, 1, 47, 127
1, 69090, Note_on_c, 1, 74, 127
1, 69119, Note_off_c, 1, 47, 0
1, 69119, Note_off_c, 1, 74, 0
1, 69120, Note_on_c, 1, 73, 127
1, 69120, Note_on_c, 1, 52, 127
1, 69149, Note_off_c, 1, 73, 0
1, 69150, Note_on_c, 1, 74, 127
1, 69179, Note_off_c, 1, 52, 0
1, 69179, Note_off_c, 1, 74, 0
1, 69180, Note_on_c, 1, 76, 127
1, 69180, Note_on_c, 1, 49, 127
1, 69209, Note_off_c, 1, 76, 0
1, 69210, Note_on_c, 1, 79, 127
1, 69239, Note_off_c, 1, 49, 0
1, 69239, Note_off_c, 1, 79, 0
1, 69240, Note_on_c, 1, 78, 127
1, 69240, Note_on_c, 1, 50, 127
1, 69269, Note_off_c, 1, 78, 0
1, 69270, Note_on_c, 1, 71, 127
1, 69299, Note_off_c, 1, 50, 0
1, 69299, Note_off_c, 1, 71, 0
1, 69300, Note_on_c, 1, 70, 127
1, 69300, Note_on_c, 1, 55, 127
1, 69329, Note_off_c, 1, 70, 0
1, 69330, Note_on_c, 1, 71, 127
1, 69359, Note_off_c, 1, 55, 0
1, 69359, Note_off_c, 1, 71, 0
1, 69360, Note_on_c, 1, 73, 127
1, 69360, Note_on_c, 1, 46, 127
1, 69389, Note_off_c, 1, 73, 0
1, 69390, Note_on_c, 1, 76, 127
1, 69419, Note_off_c, 1, 46, 0
1, 69419, Note_off_c, 1, 76, 0
1, 69420, Note_on_c, 1, 74, 127
1, 69420, Note_on_c, 1, 47, 127
1, 69449, Note_off_c, 1, 74, 0
1, 69450, Note_on_c, 1, 79, 127
1, 69479, Note_off_c, 1, 47, 0
1, 69479, Note_off_c, 1, 79, 0
1, 69480, Note_on_c, 1, 78, 127
1, 69480, Note_on_c, 1, 38, 127
1, 69509, Note_off_c, 1, 78, 0
1, 69510, Note_on_c, 1, 71, 127
1, 69539, Note_off_c, 1, 38, 0
1, 69539, Note_off_c, 1, 71, 0
1, 69540, Note_on_c, 1, 74, 127
1, 69540, Note_on_c, 1, 40, 127
1, 69569, Note_off_c, 1, 74, 0
1, 69570, Note_on_c, 1, 73, 127
1, 69599, Note_off_c, 1, 40, 0
1, 69599, Note_off_c, 1, 73, 0
1, 69600, Note_on_c, 1, 71, 127
1, 69600, Note_on_c, 1, 42, 127
1, 69629, Note_off_c, 1, 71, 0
1, 69630, Note_on_c, 1, 70, 127
1, 69659, Note_off_c, 1, 42, 0
1, 69659, Note_off_c, 1, 70, 0
1, 69660, Note_on_c, 1, 71, 127
1, 69660, Note_on_c, 1, 47, 127
1, 69719, Note_off_c, 1, 47, 0
1, 69720, Note_on_c, 1, 59, 127
1, 69749, Note_off_c, 1, 59, 0
1, 69750, Note_on_c, 1, 57, 127
1, 69779, Note_off_c, 1, 71, 0
1, 69779, Note_off_c, 1, 57, 0
1, 69780, Note_on_c, 1, 55, 127
1, 69809, Note_off_c, 1, 55, 0
1, 69810, Note_on_c, 1, 54, 127
1, 69839, Note_off_c, 1, 54, 0
1, 69840, Note_on_c, 1, 71, 127
1, 69840, Note_on_c, 1, 52, 127
1, 69899, Note_off_c, 1, 71, 0
1, 69900, Note_on_c, 1, 79, 127
1, 69929, Note_off_c, 1, 79, 0
1, 69930, Note_on_c, 1, 78, 127
1, 69959, Note_off_c, 1, 52, 0
1, 69959, Note_off_c, 1, 78, 0
1, 69960, Note_on_c, 1, 76, 127
1, 69960, Note_on_c, 1, 54, 127
1, 69989, Note_off_c, 1, 76, 0
1, 69990, Note_on_c, 1, 75, 127
1, 70019, Note_off_c, 1, 54, 0
1, 70019, Note_off_c, 1, 75, 0
1, 70020, Note_on_c, 1, 71, 127
1, 70020, Note_on_c, 1, 76, 127
1, 70020, Note_on_c, 1, 55, 127
1, 70079, Note_off_c, 1, 71, 0
1, 70079, Note_off_c, 1, 76, 0
1, 70080, Note_on_c, 1, 79, 127
1, 70109, Note_off_c, 1, 79, 0
1, 70110, Note_on_c, 1, 78, 127
1, 70139, Note_off_c, 1, 55, 0
1, 70139, Note_off_c, 1, 78, 0
1, 70140, Note_on_c, 1, 76, 127
1, 70140, Note_on_c, 1, 72, 127
1, 70140, Note_on_c, 1, 57, 127
1, 70169, Note_off_c, 1, 76, 0
1, 70170, Note_on_c, 1, 75, 127
1, 70199, Note_off_c, 1, 72, 0
1, 70199, Note_off_c, 1, 57, 0
1, 70199, Note_off_c, 1, 75, 0
1, 70200, Note_on_c, 1, 76, 127
1, 70200, Note_on_c, 1, 71, 127
1, 70200, Note_on_c, 1, 55, 127
1, 70229, Note_off_c, 1, 71, 0
1, 70259, Note_off_c, 1, 76, 0
1, 70260, Note_off_c, 1, 55, 0
1, 70260, Note_on_c, 1, 75, 127
1, 70260, Note_on_c, 1, 57, 127
1, 70289, Note_off_c, 1, 75, 0
1, 70320, Note_off_c, 1, 57, 0
1, 70320, Note_on_c, 1, 59, 127
1, 70350, Note_on_c, 1, 69, 127
1, 70379, Note_off_c, 1, 69, 0
1, 70380, Note_off_c, 1, 59, 0
1, 70380, Note_on_c, 1, 67, 127
1, 70380, Note_on_c, 1, 52, 127
1, 70439, Note_off_c, 1, 67, 0
1, 70440, Note_off_c, 1, 52, 0
1, 70440, Note_on_c, 1, 66, 127
1, 70440, Note_on_c, 1, 47, 127
1, 70469, Note_off_c, 1, 66, 0
1, 70500, Note_off_c, 1, 47, 0
1, 70500, Note_on_c, 1, 64, 127
1, 70500, Note_on_c, 1, 43, 127
1, 70558, Note_off_c, 1, 64, 0
1, 70560, Note_off_c, 1, 43, 0
1, 70560, Note_on_c, 1, 40, 127
1, 70620, Note_on_c, 1, 79, 127
1, 70649, Note_off_c, 1, 79, 0
1, 70650, Note_on_c, 1, 78, 127
1, 70679, Note_off_c, 1, 40, 0
1, 70679, Note_off_c, 1, 78, 0
1, 70680, Note_on_c, 1, 76, 127
1, 70680, Note_on_c, 1, 42, 127
1, 70709, Note_off_c, 1, 76, 0
1, 70710, Note_on_c, 1, 75, 127
1, 70739, Note_off_c, 1, 42, 0
1, 70739, Note_off_c, 1, 75, 0
1, 70740, Note_on_c, 1, 71, 127
1, 70740, Note_on_c, 1, 76, 127
1, 70740, Note_on_c, 1, 43, 127
1, 70799, Note_off_c, 1, 71, 0
1, 70799, Note_off_c, 1, 76, 0
1, 70800, Note_on_c, 1, 79, 127
1, 70829, Note_off_c, 1, 79, 0
1, 70830, Note_on_c, 1, 78, 127
1, 70859, Note_off_c, 1, 43, 0
1, 70859, Note_off_c, 1, 78, 0
1, 70860, Note_on_c, 1, 76, 127
1, 70860, Note_on_c, 1, 72, 127
1, 70860, Note_on_c, 1, 42, 127
1, 70889, Note_off_c, 1, 76, 0
1, 70890, Note_on_c, 1, 75, 127
1, 70919, Note_off_c, 1, 72, 0
1, 70919, Note_off_c, 1, 42, 0
1, 70919, Note_off_c, 1, 75, 0
1, 70920, Note_on_c, 1, 76, 127
1, 70920, Note_on_c, 1, 71, 127
1, 70920, Note_on_c, 1, 43, 127
1, 70949, Note_off_c, 1, 71, 0
1, 70979, Note_off_c, 1, 43, 0
1, 70980, Note_on_c, 1, 75, 127
1, 70980, Note_on_c, 1, 45, 127
1, 71009, Note_off_c, 1, 75, 0
1, 71039, Note_off_c, 1, 76, 0
1, 71039, Note_off_c, 1, 45, 0
1, 71040, Note_on_c, 1, 71, 127
1, 71040, Note_on_c, 1, 47, 127
1, 71069, Note_off_c, 1, 71, 0
1, 71070, Note_on_c, 1, 69, 127
1, 71099, Note_off_c, 1, 47, 0
1, 71099, Note_off_c, 1, 69, 0
1, 71100, Note_on_c, 1, 71, 127
1, 71100, Note_on_c, 1, 67, 127
1, 71100, Note_on_c, 1, 40, 127
1, 71129, Note_off_c, 1, 71, 0
1, 71130, Note_on_c, 1, 76, 127
1, 71159, Note_off_c, 1, 67, 0
1, 71159, Note_off_c, 1, 40, 0
1, 71159, Note_off_c, 1, 76, 0
1, 71160, Note_on_c, 1, 75, 127
1, 71160, Note_on_c, 1, 66, 127
1, 71160, Note_on_c, 1, 47, 127
1, 71189, Note_off_c, 1, 75, 0
1, 71189, Note_off_c, 1, 66, 0
1, 71190, Note_on_c, 1, 76, 127
1, 71190, Note_on_c, 1, 67, 127
1, 71219, Note_off_c, 1, 47, 0
1, 71219, Note_off_c, 1, 76, 0
1, 71219, Note_off_c, 1, 67, 0
1, 71220, Note_on_c, 1, 71, 127
1, 71220, Note_on_c, 1, 64, 127
1, 71220, Note_on_c, 1, 52, 127
1, 71249, Note_off_c, 1, 71, 0
1, 71250, Note_on_c, 1, 69, 127
1, 71279, Note_off_c, 1, 64, 0
1, 71279, Note_off_c, 1, 69, 0
1, 71280, Note_on_c, 1, 72, 127
1, 71309, Note_off_c, 1, 52, 0
1, 71339, Note_off_c, 1, 72, 0
1, 71340, Note_on_c, 1, 67, 127
1, 71340, Note_on_c, 1, 72, 127
1, 71340, Note_on_c, 1, 50, 127
1, 71369, Note_off_c, 1, 50, 0
1, 71370, Note_on_c, 1, 48, 127
1, 71399, Note_off_c, 1, 67, 0
1, 71399, Note_off_c, 1, 72, 0
1, 71399, Note_off_c, 1, 48, 0
1, 71400, Note_on_c, 1, 71, 127
1, 71400, Note_on_c, 1, 50, 127
1, 71429, Note_off_c, 1, 50, 0
1, 71430, Note_on_c, 1, 47, 127
1, 71459, Note_off_c, 1, 71, 0
1, 71459, Note_off_c, 1, 47, 0
1, 71460, Note_on_c, 1, 72, 127
1, 71460, Note_on_c, 1, 43, 127
1, 71489, Note_off_c, 1, 43, 0
1, 71490, Note_on_c, 1, 48, 127
1, 71519, Note_off_c, 1, 48, 0
1, 71520, Note_on_c, 1, 47, 127
1, 71549, Note_off_c, 1, 72, 0
1, 71549, Note_off_c, 1, 47, 0
1, 71550, Note_on_c, 1, 74, 127
1, 71550, Note_on_c, 1, 45, 127
1, 71564, Note_off_c, 1, 74, 0
1, 71565, Note_on_c, 1, 76, 127
1, 71579, Note_off_c, 1, 45, 0
1, 71579, Note_off_c, 1, 76, 0
1, 71580, Note_on_c, 1, 74, 127
1, 71580, Note_on_c, 1, 47, 127
1, 71609, Note_off_c, 1, 47, 0
1, 71610, Note_on_c, 1, 43, 127
1, 71639, Note_off_c, 1, 43, 0
1, 71699, Note_off_c, 1, 74, 0
1, 71700, Note_on_c, 1, 72, 127
1, 71700, Note_on_c, 1, 48, 127
1, 71729, Note_off_c, 1, 72, 0
1, 71730, Note_on_c, 1, 71, 127
1, 71759, Note_off_c, 1, 48, 0
1, 71759, Note_off_c, 1, 71, 0
1, 71760, Note_on_c, 1, 69, 127
1, 71760, Note_on_c, 1, 50, 127
1, 71789, Note_off_c, 1, 69, 0
1, 71790, Note_on_c, 1, 67, 127
1, 71819, Note_off_c, 1, 50, 0
1, 71819, Note_off_c, 1, 67, 0
1, 71820, Note_on_c, 1, 74, 127
1, 71820, Note_on_c, 1, 67, 127
1, 71820, Note_on_c, 1, 43, 127
1, 71879, Note_off_c, 1, 74, 0
1, 71879, Note_off_c, 1, 43, 0
1, 71880, Note_on_c, 1, 83, 127
1, 71880, Note_on_c, 1, 55, 127
1, 71909, Note_off_c, 1, 83, 0
1, 71910, Note_on_c, 1, 81, 127
1, 71939, Note_off_c, 1, 67, 0
1, 71939, Note_off_c, 1, 55, 0
1, 71939, Note_off_c, 1, 81, 0
1, 71940, Note_on_c, 1, 79, 127
1, 71940, Note_on_c, 1, 57, 127
1, 71969, Note_off_c, 1, 79, 0
1, 71970, Note_on_c, 1, 78, 127
1, 71999, Note_off_c, 1, 57, 0
1, 71999, Note_off_c, 1, 78, 0
1, 72000, Note_on_c, 1, 79, 127
1, 72000, Note_on_c, 1, 59, 127
1, 72029, Note_off_c, 1, 79, 0
1, 72030, Note_on_c, 1, 74, 127
1, 72059, Note_off_c, 1, 74, 0
1, 72060, Note_on_c, 1, 76, 127
1, 72074, Note_off_c, 1, 76, 0
1, 72090, Note_on_c, 1, 73, 127
1, 72119, Note_off_c, 1, 59, 0
1, 72119, Note_off_c, 1, 73, 0
1, 72120, Note_on_c, 1, 73, 127
1, 72120, Note_on_c, 1, 71, 127
1, 72120, Note_on_c, 1, 55, 127
1, 72149, Note_off_c, 1, 73, 0
1, 72150, Note_on_c, 1, 74, 127
1, 72179, Note_off_c, 1, 71, 0
1, 72179, Note_off_c, 1, 55, 0
1, 72180, Note_on_c, 1, 69, 127
1, 72180, Note_on_c, 1, 54, 127
1, 72209, Note_off_c, 1, 69, 0
1, 72210, Note_on_c, 1, 67, 127
1, 72239, Note_off_c, 1, 74, 0
1, 72239, Note_off_c, 1, 54, 0
1, 72239, Note_off_c, 1, 67, 0
1, 72240, Note_on_c, 1, 84, 127
1, 72240, Note_on_c, 1, 69, 127
1, 72240, Note_on_c, 1, 50, 127
1, 72269, Note_off_c, 1, 84, 0
1, 72270, Note_on_c, 1, 83, 127
1, 72299, Note_off_c, 1, 69, 0
1, 72299, Note_off_c, 1, 50, 0
1, 72299, Note_off_c, 1, 83, 0
1, 72300, Note_on_c, 1, 81, 127
1, 72300, Note_on_c, 1, 52, 127
1, 72329, Note_off_c, 1, 81, 0
1, 72330, Note_on_c, 1, 79, 127
1, 72359, Note_off_c, 1, 52, 0
1, 72359, Note_off_c, 1, 79, 0
1, 72360, Note_on_c, 1, 81, 127
1, 72360, Note_on_c, 1, 54, 127
1, 72389, Note_off_c, 1, 81, 0
1, 72390, Note_on_c, 1, 74, 127
1, 72419, Note_off_c, 1, 54, 0
1, 72419, Note_off_c, 1, 74, 0
1, 72420, Note_on_c, 1, 76, 127
1, 72420, Note_on_c, 1, 69, 127
1, 72420, Note_on_c, 1, 52, 127
1, 72434, Note_off_c, 1, 76, 0
1, 72435, Note_on_c, 1, 74, 127
1, 72449, Note_off_c, 1, 74, 0
1, 72450, Note_on_c, 1, 73, 127
1, 72479, Note_off_c, 1, 69, 0
1, 72479, Note_off_c, 1, 52, 0
1, 72479, Note_off_c, 1, 73, 0
1, 72480, Note_on_c, 1, 74, 127
1, 72480, Note_on_c, 1, 54, 127
1, 72539, Note_off_c, 1, 74, 0
1, 72539, Note_off_c, 1, 54, 0
1, 72540, Note_on_c, 1, 71, 127
1, 72540, Note_on_c, 1, 55, 127
1, 72569, Note_off_c, 1, 55, 0
1, 72570, Note_on_c, 1, 54, 127
1, 72599, Note_off_c, 1, 71, 0
1, 72599, Note_off_c, 1, 54, 0
1, 72600, Note_on_c, 1, 74, 127
1, 72600, Note_on_c, 1, 55, 127
1, 72629, Note_off_c, 1, 55, 0
1, 72630, Note_on_c, 1, 57, 127
1, 72659, Note_off_c, 1, 74, 0
1, 72659, Note_off_c, 1, 57, 0
1, 72660, Note_on_c, 1, 79, 127
1, 72660, Note_on_c, 1, 59, 127
1, 72689, Note_off_c, 1, 59, 0
1, 72690, Note_on_c, 1, 55, 127
1, 72719, Note_off_c, 1, 79, 0
1, 72719, Note_off_c, 1, 55, 0
1, 72720, Note_on_c, 1, 78, 127
1, 72720, Note_on_c, 1, 57, 127
1, 72779, Note_off_c, 1, 78, 0
1, 72779, Note_off_c, 1, 57, 0
1, 72780, Note_on_c, 1, 79, 127
1, 72780, Note_on_c, 1, 55, 127
1, 72839, Note_off_c, 1, 79, 0
1, 72839, Note_off_c, 1, 55, 0
1, 72840, Note_on_c, 1, 76, 127
1, 72840, Note_on_c, 1, 57, 127
1, 72899, Note_off_c, 1, 76, 0
1, 72899, Note_off_c, 1, 57, 0
1, 72900, Note_on_c, 1, 74, 127
1, 72900, Note_on_c, 1, 50, 127
1, 72959, Note_off_c, 1, 50, 0
1, 72960, Note_on_c, 1, 54, 127
1, 72990, Note_on_c, 1, 72, 127
1, 73019, Note_off_c, 1, 54, 0
1, 73019, Note_off_c, 1, 72, 0
1, 73020, Note_on_c, 1, 71, 127
1, 73049, Note_off_c, 1, 71, 0
1, 73050, Note_on_c, 1, 69, 127
1, 73079, Note_off_c, 1, 69, 0
1, 73080, Note_on_c, 1, 55, 127
1, 73110, Note_on_c, 1, 67, 127
1, 73139, Note_off_c, 1, 74, 0
1, 73139, Note_off_c, 1, 55, 0
1, 73139, Note_off_c, 1, 67, 0
1, 73140, Note_on_c, 1, 69, 127
1, 73140, Note_on_c, 1, 62, 127
1, 73154, Note_off_c, 1, 69, 0
1, 73155, Note_on_c, 1, 67, 127
1, 73169, Note_off_c, 1, 62, 0
1, 73169, Note_off_c, 1, 67, 0
1, 73170, Note_on_c, 1, 66, 127
1, 73170, Note_on_c, 1, 60, 127
1, 73199, Note_off_c, 1, 66, 0
1, 73199, Note_off_c, 1, 60, 0
1, 73200, Note_on_c, 1, 67, 127
1, 73200, Note_on_c, 1, 59, 127
1, 73229, Note_off_c, 1, 59, 0
1, 73230, Note_on_c, 1, 57, 127
1, 73259, Note_off_c, 1, 67, 0
1, 73259, Note_off_c, 1, 57, 0
1, 73260, Note_on_c, 1, 59, 127
1, 73319, Note_off_c, 1, 59, 0
1, 73320, Note_on_c, 1, 79, 127
1, 73320, Note_on_c, 1, 55, 127
1, 73349, Note_off_c, 1, 79, 0
1, 73350, Note_on_c, 1, 78, 127
1, 73379, Note_off_c, 1, 55, 0
1, 73379, Note_off_c, 1, 78, 0
1, 73380, Note_on_c, 1, 76, 127
1, 73380, Note_on_c, 1, 59, 127
1, 73409, Note_off_c, 1, 76, 0
1, 73410, Note_on_c, 1, 75, 127
1, 73439, Note_off_c, 1, 59, 0
1, 73439, Note_off_c, 1, 75, 0
1, 73440, Note_on_c, 1, 76, 127
1, 73440, Note_on_c, 1, 60, 127
1, 73499, Note_off_c, 1, 60, 0
1, 73500, Note_on_c, 1, 56, 127
1, 73530, Note_on_c, 1, 74, 127
1, 73559, Note_off_c, 1, 76, 0
1, 73559, Note_off_c, 1, 56, 0
1, 73559, Note_off_c, 1, 74, 0
1, 73560, Note_on_c, 1, 72, 127
1, 73560, Note_on_c, 1, 52, 127
1, 73589, Note_off_c, 1, 72, 0
1, 73590, Note_on_c, 1, 71, 127
1, 73619, Note_off_c, 1, 52, 0
1, 73619, Note_off_c, 1, 71, 0
1, 73620, Note_on_c, 1, 72, 127
1, 73620, Note_on_c, 1, 57, 127
1, 73679, Note_off_c, 1, 72, 0
1, 73679, Note_off_c, 1, 57, 0
1, 73680, Note_on_c, 1, 76, 127
1, 73680, Note_on_c, 1, 68, 127
1, 73680, Note_on_c, 1, 52, 127
1, 73709, Note_off_c, 1, 76, 0
1, 73710, Note_on_c, 1, 74, 127
1, 73739, Note_off_c, 1, 68, 0
1, 73739, Note_off_c, 1, 52, 0
1, 73739, Note_off_c, 1, 74, 0
1, 73740, Note_on_c, 1, 72, 127
1, 73740, Note_on_c, 1, 69, 127
1, 73740, Note_on_c, 1, 45, 127
1, 73769, Note_off_c, 1, 72, 0
1, 73770, Note_on_c, 1, 71, 127
1, 73799, Note_off_c, 1, 69, 0
1, 73799, Note_off_c, 1, 45, 0
1, 73799, Note_off_c, 1, 71, 0
1, 73800, Note_on_c, 1, 72, 127
1, 73800, Note_on_c, 1, 57, 127
1, 73829, Note_off_c, 1, 57, 0
1, 73830, Note_on_c, 1, 55, 127
1, 73859, Note_off_c, 1, 55, 0
1, 73860, Note_on_c, 1, 74, 127
1, 73860, Note_on_c, 1, 54, 127
1, 73889, Note_off_c, 1, 74, 0
1, 73889, Note_off_c, 1, 54, 0
1, 73890, Note_on_c, 1, 52, 127
1, 73919, Note_off_c, 1, 72, 0
1, 73919, Note_off_c, 1, 52, 0
1, 73920, Note_on_c, 1, 71, 127
1, 73920, Note_on_c, 1, 50, 127
1, 73949, Note_off_c, 1, 71, 0
1, 73950, Note_on_c, 1, 69, 127
1, 73979, Note_off_c, 1, 50, 0
1, 73979, Note_off_c, 1, 69, 0
1, 73980, Note_on_c, 1, 71, 127
1, 73980, Note_on_c, 1, 55, 127
1, 74039, Note_off_c, 1, 71, 0
1, 74039, Note_off_c, 1, 55, 0
1, 74040, Note_on_c, 1, 74, 127
1, 74040, Note_on_c, 1, 66, 127
1, 74040, Note_on_c, 1, 50, 127
1, 74069, Note_off_c, 1, 74, 0
1, 74070, Note_on_c, 1, 72, 127
1, 74099, Note_off_c, 1, 66, 0
1, 74099, Note_off_c, 1, 50, 0
1, 74099, Note_off_c, 1, 72, 0
1, 74100, Note_on_c, 1, 71, 127
1, 74100, Note_on_c, 1, 67, 127
1, 74100, Note_on_c, 1, 43, 127
1, 74129, Note_off_c, 1, 71, 0
1, 74130, Note_on_c, 1, 69, 127
1, 74159, Note_off_c, 1, 67, 0
1, 74159, Note_off_c, 1, 43, 0
1, 74159, Note_off_c, 1, 69, 0
1, 74160, Note_on_c, 1, 71, 127
1, 74160, Note_on_c, 1, 55, 127
1, 74189, Note_off_c, 1, 55, 0
1, 74190, Note_on_c, 1, 54, 127
1, 74219, Note_off_c, 1, 54, 0
1, 74220, Note_on_c, 1, 79, 127
1, 74220, Note_on_c, 1, 52, 127
1, 74249, Note_off_c, 1, 79, 0
1, 74250, Note_on_c, 1, 78, 127
1, 74279, Note_off_c, 1, 71, 0
1, 74279, Note_off_c, 1, 52, 0
1, 74279, Note_off_c, 1, 78, 0
1, 74280, Note_on_c, 1, 76, 127
1, 74280, Note_on_c, 1, 59, 127
1, 74309, Note_off_c, 1, 76, 0
1, 74310, Note_on_c, 1, 75, 127
1, 74339, Note_off_c, 1, 59, 0
1, 74339, Note_off_c, 1, 75, 0
1, 74340, Note_on_c, 1, 76, 127
1, 74340, Note_on_c, 1, 60, 127
1, 74399, Note_off_c, 1, 76, 0
1, 74399, Note_off_c, 1, 60, 0
1, 74400, Note_on_c, 1, 79, 127
1, 74400, Note_on_c, 1, 71, 127
1, 74400, Note_on_c, 1, 55, 127
1, 74429, Note_off_c, 1, 79, 0
1, 74430, Note_on_c, 1, 78, 127
1, 74459, Note_off_c, 1, 71, 0
1, 74459, Note_off_c, 1, 55, 0
1, 74459, Note_off_c, 1, 78, 0
1, 74460, Note_on_c, 1, 76, 127
1, 74460, Note_on_c, 1, 72, 127
1, 74460, Note_on_c, 1, 54, 127
1, 74489, Note_off_c, 1, 76, 0
1, 74490, Note_on_c, 1, 75, 127
1, 74519, Note_off_c, 1, 72, 0
1, 74519, Note_off_c, 1, 54, 0
1, 74519, Note_off_c, 1, 75, 0
1, 74520, Note_on_c, 1, 76, 127
1, 74520, Note_on_c, 1, 71, 127
1, 74520, Note_on_c, 1, 55, 127
1, 74549, Note_off_c, 1, 71, 0
1, 74579, Note_off_c, 1, 55, 0
1, 74580, Note_on_c, 1, 75, 127
1, 74580, Note_on_c, 1, 57, 127
1, 74609, Note_off_c, 1, 75, 0
1, 74639, Note_off_c, 1, 76, 0
1, 74639, Note_off_c, 1, 57, 0
1, 74640, Note_on_c, 1, 71, 127
1, 74640, Note_on_c, 1, 59, 127
1, 74669, Note_off_c, 1, 71, 0
1, 74670, Note_on_c, 1, 69, 127
1, 74699, Note_off_c, 1, 59, 0
1, 74699, Note_off_c, 1, 69, 0
1, 74700, Note_on_c, 1, 67, 127
1, 74700, Note_on_c, 1, 52, 127
1, 74730, Note_on_c, 1, 76, 127
1, 74759, Note_off_c, 1, 67, 0
1, 74759, Note_off_c, 1, 52, 0
1, 74759, Note_off_c, 1, 76, 0
1, 74760, Note_on_c, 1, 75, 127
1, 74760, Note_on_c, 1, 66, 127
1, 74760, Note_on_c, 1, 54, 127
1, 74789, Note_off_c, 1, 75, 0
1, 74789, Note_off_c, 1, 66, 0
1, 74790, Note_on_c, 1, 76, 127
1, 74790, Note_on_c, 1, 67, 127
1, 74819, Note_off_c, 1, 54, 0
1, 74819, Note_off_c, 1, 76, 0
1, 74819, Note_off_c, 1, 67, 0
1, 74820, Note_on_c, 1, 71, 127
1, 74820, Note_on_c, 1, 64, 127
1, 74820, Note_on_c, 1, 55, 127
1, 74849, Note_off_c, 1, 71, 0
1, 74850, Note_on_c, 1, 74, 127
1, 74879, Note_off_c, 1, 64, 0
1, 74879, Note_off_c, 1, 55, 0
1, 74879, Note_off_c, 1, 74, 0
1, 74880, Note_on_c, 1, 72, 127
1, 74880, Note_on_c, 1, 57, 127
1, 74909, Note_off_c, 1, 72, 0
1, 74910, Note_on_c, 1, 84, 127
1, 74939, Note_off_c, 1, 84, 0
1, 74940, Note_on_c, 1, 83, 127
1, 74940, Note_on_c, 1, 78, 127
1, 74969, Note_off_c, 1, 83, 0
1, 74970, Note_on_c, 1, 81, 127
1, 74999, Note_off_c, 1, 57, 0
1, 74999, Note_off_c, 1, 78, 0
1, 74999, Note_off_c, 1, 81, 0
1, 75000, Note_on_c, 1, 83, 127
1, 75000, Note_on_c, 1, 79, 127
1, 75000, Note_on_c, 1, 52, 127
1, 75029, Note_off_c, 1, 83, 0
1, 75059, Note_off_c, 1, 79, 0
1, 75059, Note_off_c, 1, 52, 0
1, 75060, Note_on_c, 1, 76, 127
1, 75060, Note_on_c, 1, 81, 127
1, 75060, Note_on_c, 1, 48, 127
1, 75089, Note_off_c, 1, 76, 0
1, 75119, Note_off_c, 1, 81, 0
1, 75120, Note_on_c, 1, 79, 127
1, 75120, Note_on_c, 1, 75, 127
1, 75149, Note_off_c, 1, 79, 0
1, 75150, Note_on_c, 1, 78, 127
1, 75179, Note_off_c, 1, 48, 0
1, 75179, Note_off_c, 1, 75, 0
1, 75179, Note_off_c, 1, 78, 0
1, 75180, Note_on_c, 1, 79, 127
1, 75180, Note_on_c, 1, 76, 127
1, 75180, Note_on_c, 1, 47, 127
1, 75209, Note_off_c, 1, 79, 0
1, 75239, Note_off_c, 1, 47, 0
1, 75240, Note_on_c, 1, 74, 127
1, 75240, Note_on_c, 1, 45, 127
1, 75269, Note_off_c, 1, 74, 0
1, 75270, Note_on_c, 1, 72, 127
1, 75299, Note_off_c, 1, 76, 0
1, 75299, Note_off_c, 1, 45, 0
1, 75299, Note_off_c, 1, 72, 0
1, 75300, Note_on_c, 1, 71, 127
1, 75300, Note_on_c, 1, 67, 127
1, 75300, Note_on_c, 1, 47, 127
1, 75329, Note_off_c, 1, 71, 0
1, 75329, Note_off_c, 1, 67, 0
1, 75330, Note_on_c, 1, 69, 127
1, 75359, Note_off_c, 1, 47, 0
1, 75359, Note_off_c, 1, 69, 0
1, 75360, Note_on_c, 1, 78, 127
1, 75360, Note_on_c, 1, 71, 127
1, 75360, Note_on_c, 1, 48, 127
1, 75389, Note_off_c, 1, 78, 0
1, 75389, Note_off_c, 1, 71, 0
1, 75390, Note_on_c, 1, 67, 127
1, 75404, Note_off_c, 1, 67, 0
1, 75405, Note_on_c, 1, 69, 127
1, 75419, Note_off_c, 1, 48, 0
1, 75419, Note_off_c, 1, 69, 0
1, 75420, Note_on_c, 1, 76, 127
1, 75420, Note_on_c, 1, 71, 127
1, 75420, Note_on_c, 1, 47, 127
1, 75479, Note_off_c, 1, 76, 0
1, 75479, Note_off_c, 1, 71, 0
1, 75479, Note_off_c, 1, 47, 0
1, 75480, Note_on_c, 1, 75, 127
1, 75480, Note_on_c, 1, 73, 127
1, 75509, Note_off_c, 1, 73, 0
1, 75539, Note_off_c, 1, 75, 0
1, 75540, Note_on_c, 1, 76, 127
1, 75540, Note_on_c, 1, 47, 127
1, 75569, Note_off_c, 1, 76, 0
1, 75570, Note_on_c, 1, 78, 127
1, 75599, Note_off_c, 1, 78, 0
1, 75600, Note_off_c, 1, 47, 0
1, 75600, Note_on_c, 1, 79, 127
1, 75600, Note_on_c, 1, 52, 127
1, 75629, Note_off_c, 1, 79, 0
1, 75630, Note_on_c, 1, 81, 127
1, 75659, Note_off_c, 1, 81, 0
1, 75660, Note_off_c, 1, 52, 0
1, 75660, Note_on_c, 1, 55, 127
1, 75690, Note_on_c, 1, 75, 127
1, 75719, Note_off_c, 1, 75, 0
1, 75720, Note_off_c, 1, 55, 0
1, 75750, Note_on_c, 1, 73, 127
1, 75779, Note_off_c, 1, 73, 0
1, 75780, Note_on_c, 1, 74, 127
1, 75780, Note_on_c, 1, 59, 127
1, 75809, Note_off_c, 1, 74, 0
1, 75810, Note_on_c, 1, 83, 127
1, 75839, Note_off_c, 1, 83, 0
1, 75840, Note_off_c, 1, 59, 0
1, 75840, Note_on_c, 1, 82, 127
1, 75840, Note_on_c, 1, 50, 127
1, 75869, Note_off_c, 1, 82, 0
1, 75900, Note_off_c, 1, 50, 0
1, 75930, Note_on_c, 1, 71, 127
1, 75959, Note_off_c, 1, 71, 0
1, 75960, Note_on_c, 1, 49, 127
1, 76020, Note_off_c, 1, 49, 0
1, 76020, Note_on_c, 1, 54, 127
1, 76080, Note_off_c, 1, 54, 0
1, 76080, Note_on_c, 1, 46, 127
1, 76140, Note_off_c, 1, 46, 0
1, 76200, Note_on_c, 1, 66, 127
1, 76229, Note_off_c, 1, 66, 0
1, 76230, Note_on_c, 1, 68, 127
1, 76259, Note_off_c, 1, 68, 0
1, 76260, Note_on_c, 1, 70, 127
1, 76289, Note_off_c, 1, 70, 0
1, 76680, Note_on_c, 1, 43, 127
1, 76740, Note_off_c, 1, 43, 0
1, 76740, Note_on_c, 1, 40, 127
1, 76800, Note_off_c, 1, 40, 0
1, 76800, Note_on_c, 1, 42, 127
1, 76860, Note_off_c, 1, 42, 0
1, 76950, Note_on_c, 1, 69, 127
1, 76979, Note_off_c, 1, 69, 0
1, 76980, Note_on_c, 1, 67, 127
1, 77009, Note_off_c, 1, 67, 0
1, 77460, Note_on_c, 1, 66, 127
1, 77460, Note_on_c, 1, 55, 127
1, 77489, Note_off_c, 1, 66, 0
1, 77490, Note_on_c, 1, 64, 127
1, 77519, Note_off_c, 1, 55, 0
1, 77519, Note_off_c, 1, 64, 0
1, 77520, Note_on_c, 1, 73, 127
1, 77520, Note_on_c, 1, 52, 127
1, 77549, Note_off_c, 1, 73, 0
1, 77579, Note_off_c, 1, 52, 0
1, 77580, Note_on_c, 1, 71, 127
1, 77580, Note_on_c, 1, 54, 127
1, 77609, Note_off_c, 1, 54, 0
1, 77610, Note_on_c, 1, 55, 127
1, 77639, Note_off_c, 1, 71, 0
1, 77639, Note_off_c, 1, 55, 0
1, 77640, Note_on_c, 1, 70, 127
1, 77640, Note_on_c, 1, 54, 127
1, 77669, Note_off_c, 1, 54, 0
1, 77670, Note_on_c, 1, 52, 127
1, 77699, Note_off_c, 1, 70, 0
1, 77699, Note_off_c, 1, 52, 0
1, 77700, Note_on_c, 1, 50, 127
1, 77729, Note_off_c, 1, 50, 0
1, 77730, Note_on_c, 1, 49, 127
1, 77759, Note_off_c, 1, 49, 0
1, 77760, Note_on_c, 1, 66, 127
1, 77760, Note_on_c, 1, 50, 127
1, 77819, Note_off_c, 1, 66, 0
1, 77819, Note_off_c, 1, 50, 0
1, 77820, Note_on_c, 1, 74, 127
1, 77820, Note_on_c, 1, 47, 127
1, 77849, Note_off_c, 1, 74, 0
1, 77850, Note_on_c, 1, 73, 127
1, 77879, Note_off_c, 1, 47, 0
1, 77879, Note_off_c, 1, 73, 0
1, 77880, Note_on_c, 1, 71, 127
1, 77880, Note_on_c, 1, 49, 127
1, 77909, Note_off_c, 1, 71, 0
1, 77910, Note_on_c, 1, 70, 127
1, 77939, Note_off_c, 1, 49, 0
1, 77939, Note_off_c, 1, 70, 0
1, 77940, Note_on_c, 1, 71, 127
1, 77940, Note_on_c, 1, 50, 127
1, 77969, Note_off_c, 1, 71, 0
1, 77970, Note_on_c, 1, 66, 127
1, 77999, Note_off_c, 1, 50, 0
1, 77999, Note_off_c, 1, 66, 0
1, 78000, Note_on_c, 1, 67, 127
1, 78000, Note_on_c, 1, 49, 127
1, 78014, Note_off_c, 1, 67, 0
1, 78015, Note_on_c, 1, 66, 127
1, 78029, Note_off_c, 1, 66, 0
1, 78030, Note_on_c, 1, 64, 127
1, 78059, Note_off_c, 1, 49, 0
1, 78059, Note_off_c, 1, 64, 0
1, 78060, Note_on_c, 1, 64, 127
1, 78060, Note_on_c, 1, 50, 127
1, 78089, Note_off_c, 1, 64, 0
1, 78090, Note_on_c, 1, 66, 127
1, 78119, Note_off_c, 1, 50, 0
1, 78120, Note_on_c, 1, 52, 127
1, 78179, Note_off_c, 1, 66, 0
1, 78179, Note_off_c, 1, 52, 0
1, 78180, Note_on_c, 1, 78, 127
1, 78180, Note_on_c, 1, 50, 127
1, 78209, Note_off_c, 1, 78, 0
1, 78210, Note_on_c, 1, 76, 127
1, 78239, Note_off_c, 1, 50, 0
1, 78239, Note_off_c, 1, 76, 0
1, 78240, Note_on_c, 1, 74, 127
1, 78240, Note_on_c, 1, 54, 127
1, 78269, Note_off_c, 1, 74, 0
1, 78270, Note_on_c, 1, 73, 127
1, 78299, Note_off_c, 1, 54, 0
1, 78299, Note_off_c, 1, 73, 0
1, 78300, Note_on_c, 1, 74, 127
1, 78300, Note_on_c, 1, 47, 127
1, 78314, Note_off_c, 1, 74, 0
1, 78315, Note_on_c, 1, 73, 127
1, 78329, Note_off_c, 1, 73, 0
1, 78330, Note_on_c, 1, 71, 127
1, 78359, Note_off_c, 1, 71, 0
1, 78390, Note_on_c, 1, 70, 127
1, 78419, Note_off_c, 1, 47, 0
1, 78419, Note_off_c, 1, 70, 0
1, 78420, Note_on_c, 1, 71, 127
1, 78449, Note_off_c, 1, 71, 0
1, 78450, Note_on_c, 1, 74, 127
1, 78479, Note_off_c, 1, 74, 0
1, 78480, Note_on_c, 1, 73, 127
1, 78480, Note_on_c, 1, 52, 127
1, 78509, Note_off_c, 1, 73, 0
1, 78510, Note_on_c, 1, 74, 127
1, 78539, Note_off_c, 1, 52, 0
1, 78539, Note_off_c, 1, 74, 0
1, 78540, Note_on_c, 1, 76, 127
1, 78540, Note_on_c, 1, 49, 127
1, 78569, Note_off_c, 1, 76, 0
1, 78570, Note_on_c, 1, 79, 127
1, 78599, Note_off_c, 1, 49, 0
1, 78599, Note_off_c, 1, 79, 0
1, 78600, Note_on_c, 1, 78, 127
1, 78600, Note_on_c, 1, 50, 127
1, 78629, Note_off_c, 1, 78, 0
1, 78630, Note_on_c, 1, 71, 127
1, 78659, Note_off_c, 1, 50, 0
1, 78659, Note_off_c, 1, 71, 0
1, 78660, Note_on_c, 1, 70, 127
1, 78660, Note_on_c, 1, 55, 127
1, 78689, Note_off_c, 1, 70, 0
1, 78690, Note_on_c, 1, 71, 127
1, 78719, Note_off_c, 1, 55, 0
1, 78719, Note_off_c, 1, 71, 0
1, 78720, Note_on_c, 1, 73, 127
1, 78720, Note_on_c, 1, 46, 127
1, 78749, Note_off_c, 1, 73, 0
1, 78750, Note_on_c, 1, 76, 127
1, 78779, Note_off_c, 1, 46, 0
1, 78779, Note_off_c, 1, 76, 0
1, 78780, Note_on_c, 1, 74, 127
1, 78780, Note_on_c, 1, 47, 127
1, 78809, Note_off_c, 1, 74, 0
1, 78810, Note_on_c, 1, 79, 127
1, 78839, Note_off_c, 1, 47, 0
1, 78839, Note_off_c, 1, 79, 0
1, 78840, Note_on_c, 1, 78, 127
1, 78840, Note_on_c, 1, 38, 127
1, 78869, Note_off_c, 1, 78, 0
1, 78870, Note_on_c, 1, 71, 127
1, 78899, Note_off_c, 1, 38, 0
1, 78899, Note_off_c, 1, 71, 0
1, 78900, Note_on_c, 1, 74, 127
1, 78900, Note_on_c, 1, 40, 127
1, 78929, Note_off_c, 1, 74, 0
1, 78930, Note_on_c, 1, 73, 127
1, 78959, Note_off_c, 1, 40, 0
1, 78959, Note_off_c, 1, 73, 0
1, 78960, Note_on_c, 1, 71, 127
1, 78960, Note_on_c, 1, 42, 127
1, 78989, Note_off_c, 1, 71, 0
1, 78990, Note_on_c, 1, 70, 127
1, 79019, Note_off_c, 1, 42, 0
1, 79019, Note_off_c, 1, 70, 0
1, 79020, Note_on_c, 1, 71, 127
1, 79020, Note_on_c, 1, 47, 127
1, 79079, Note_off_c, 1, 71, 0
1, 79079, Note_off_c, 1, 47, 0
1, 79080, Note_on_c, 1, 59, 127
1, 79095, Note_on_c, 1, 66, 127
1, 79109, Note_off_c, 1, 66, 0
1, 79110, Note_on_c, 1, 67, 127
1, 79124, Note_off_c, 1, 67, 0
1, 79125, Note_on_c, 1, 69, 127
1, 79139, Note_off_c, 1, 59, 0
1, 79139, Note_off_c, 1, 69, 0
1, 79140, Note_on_c, 1, 71, 127
1, 79140, Note_on_c, 1, 57, 127
1, 79154, Note_off_c, 1, 71, 0
1, 79155, Note_on_c, 1, 69, 127
1, 79169, Note_off_c, 1, 69, 0
1, 79185, Note_on_c, 1, 72, 127
1, 79199, Note_off_c, 1, 57, 0
1, 79199, Note_off_c, 1, 72, 0
1, 79200, Note_on_c, 1, 74, 127
1, 79200, Note_on_c, 1, 55, 127
1, 79215, Note_on_c, 1, 72, 127
1, 79229, Note_off_c, 1, 72, 0
1, 79230, Note_on_c, 1, 71, 127
1, 79259, Note_off_c, 1, 74, 0
1, 79259, Note_off_c, 1, 55, 0
1, 79260, Note_on_c, 1, 83, 127
1, 79260, Note_on_c, 1, 43, 127
1, 79289, Note_off_c, 1, 71, 0
1, 79289, Note_off_c, 1, 83, 0
1, 79290, Note_on_c, 1, 81, 127
1, 79319, Note_off_c, 1, 43, 0
1, 79319, Note_off_c, 1, 81, 0
1, 79320, Note_on_c, 1, 79, 127
1, 79320, Note_on_c, 1, 74, 127
1, 79320, Note_on_c, 1, 45, 127
1, 79334, Note_off_c, 1, 74, 0
1, 79335, Note_on_c, 1, 72, 127
1, 79349, Note_off_c, 1, 79, 0
1, 79349, Note_off_c, 1, 72, 0
1, 79350, Note_on_c, 1, 78, 127
1, 79350, Note_on_c, 1, 71, 127
1, 79364, Note_off_c, 1, 71, 0
1, 79379, Note_off_c, 1, 45, 0
1, 79379, Note_off_c, 1, 78, 0
1, 79380, Note_on_c, 1, 79, 127
1, 79380, Note_on_c, 1, 74, 127
1, 79380, Note_on_c, 1, 47, 127
1, 79394, Note_off_c, 1, 74, 0
1, 79395, Note_on_c, 1, 78, 127
1, 79409, Note_off_c, 1, 79, 0
1, 79409, Note_off_c, 1, 78, 0
1, 79439, Note_off_c, 1, 47, 0
1, 79440, Note_on_c, 1, 76, 127
1, 79440, Note_on_c, 1, 45, 127
1, 79454, Note_off_c, 1, 76, 0
1, 79470, Note_on_c, 1, 72, 127
1, 79499, Note_off_c, 1, 45, 0
1, 79499, Note_off_c, 1, 72, 0
1, 79500, Note_on_c, 1, 74, 127
1, 79500, Note_on_c, 1, 47, 127
1, 79515, Note_on_c, 1, 72, 127
1, 79529, Note_off_c, 1, 72, 0
1, 79530, Note_on_c, 1, 71, 127
1, 79544, Note_off_c, 1, 71, 0
1, 79545, Note_on_c, 1, 69, 127
1, 79559, Note_off_c, 1, 74, 0
1, 79559, Note_off_c, 1, 69, 0
1, 79560, Note_on_c, 1, 67, 127
1, 79574, Note_off_c, 1, 67, 0
1, 79619, Note_off_c, 1, 47, 0
1, 79620, Note_on_c, 1, 43, 127
1, 79679, Note_off_c, 1, 43, 0
1, 79680, Note_on_c, 1, 74, 127
1, 79680, Note_on_c, 1, 47, 127
1, 79709, Note_off_c, 1, 74, 0
1, 79710, Note_on_c, 1, 65, 127
1, 79739, Note_off_c, 1, 47, 0
1, 79739, Note_off_c, 1, 65, 0
1, 79740, Note_on_c, 1, 64, 127
1, 79740, Note_on_c, 1, 48, 127
1, 79770, Note_on_c, 1, 74, 127
1, 79799, Note_off_c, 1, 48, 0
1, 79799, Note_off_c, 1, 74, 0
1, 79800, Note_on_c, 1, 72, 127
1, 79800, Note_on_c, 1, 52, 127
1, 79829, Note_off_c, 1, 72, 0
1, 79830, Note_on_c, 1, 71, 127
1, 79859, Note_off_c, 1, 64, 0
1, 79859, Note_off_c, 1, 52, 0
1, 79859, Note_off_c, 1, 71, 0
1, 79860, Note_on_c, 1, 72, 127
1, 79860, Note_on_c, 1, 50, 127
1, 79889, Note_off_c, 1, 72, 0
1, 79890, Note_on_c, 1, 76, 127
1, 79919, Note_off_c, 1, 50, 0
1, 79919, Note_off_c, 1, 76, 0
1, 79920, Note_on_c, 1, 67, 127
1, 79920, Note_on_c, 1, 76, 127
1, 79920, Note_on_c, 1, 49, 127
1, 79934, Note_off_c, 1, 76, 0
1, 79935, Note_on_c, 1, 74, 127
1, 79949, Note_off_c, 1, 74, 0
1, 79950, Note_on_c, 1, 73, 127
1, 79979, Note_off_c, 1, 67, 0
1, 79979, Note_off_c, 1, 49, 0
1, 79980, Note_on_c, 1, 45, 127
1, 80009, Note_off_c, 1, 73, 0
1, 80039, Note_off_c, 1, 45, 0
1, 80040, Note_on_c, 1, 73, 127
1, 80040, Note_on_c, 1, 76, 127
1, 80040, Note_on_c, 1, 47, 127
1, 80054, Note_off_c, 1, 76, 0
1, 80055, Note_on_c, 1, 74, 127
1, 80069, Note_off_c, 1, 73, 0
1, 80069, Note_off_c, 1, 74, 0
1, 80070, Note_on_c, 1, 71, 127
1, 80099, Note_off_c, 1, 47, 0
1, 80099, Note_off_c, 1, 71, 0
1, 80100, Note_on_c, 1, 69, 127
1, 80100, Note_on_c, 1, 76, 127
1, 80100, Note_on_c, 1, 49, 127
1, 80114, Note_off_c, 1, 76, 0
1, 80115, Note_on_c, 1, 80, 127
1, 80129, Note_off_c, 1, 69, 0
1, 80129, Note_off_c, 1, 80, 0
1, 80130, Note_on_c, 1, 81, 127
1, 80159, Note_off_c, 1, 49, 0
1, 80160, Note_on_c, 1, 78, 127
1, 80160, Note_on_c, 1, 47, 127
1, 80174, Note_off_c, 1, 78, 0
1, 80189, Note_off_c, 1, 81, 0
1, 80190, Note_on_c, 1, 74, 127
1, 80190, Note_on_c, 1, 79, 127
1, 80204, Note_off_c, 1, 79, 0
1, 80219, Note_off_c, 1, 47, 0
1, 80219, Note_off_c, 1, 74, 0
1, 80220, Note_on_c, 1, 79, 127
1, 80220, Note_on_c, 1, 76, 127
1, 80220, Note_on_c, 1, 49, 127
1, 80234, Note_off_c, 1, 76, 0
1, 80235, Note_on_c, 1, 74, 127
1, 80249, Note_off_c, 1, 74, 0
1, 80250, Note_on_c, 1, 73, 127
1, 80264, Note_off_c, 1, 73, 0
1, 80265, Note_on_c, 1, 71, 127
1, 80279, Note_off_c, 1, 79, 0
1, 80279, Note_off_c, 1, 71, 0
1, 80280, Note_on_c, 1, 69, 127
1, 80294, Note_off_c, 1, 69, 0
1, 80339, Note_off_c, 1, 49, 0
1, 80340, Note_on_c, 1, 45, 127
1, 80399, Note_off_c, 1, 45, 0
1, 80400, Note_on_c, 1, 76, 127
1, 80400, Note_on_c, 1, 49, 127
1, 80429, Note_off_c, 1, 76, 0
1, 80430, Note_on_c, 1, 67, 127
1, 80459, Note_off_c, 1, 49, 0
1, 80459, Note_off_c, 1, 67, 0
1, 80460, Note_on_c, 1, 66, 127
1, 80460, Note_on_c, 1, 50, 127
1, 80490, Note_on_c, 1, 79, 127
1, 80519, Note_off_c, 1, 50, 0
1, 80519, Note_off_c, 1, 79, 0
1, 80520, Note_on_c, 1, 78, 127
1, 80520, Note_on_c, 1, 49, 127
1, 80549, Note_off_c, 1, 78, 0
1, 80550, Note_on_c, 1, 76, 127
1, 80579, Note_off_c, 1, 66, 0
1, 80579, Note_off_c, 1, 49, 0
1, 80579, Note_off_c, 1, 76, 0
1, 80580, Note_on_c, 1, 78, 127
1, 80580, Note_on_c, 1, 47, 127
1, 80609, Note_off_c, 1, 78, 0
1, 80610, Note_on_c, 1, 83, 127
1, 80639, Note_off_c, 1, 47, 0
1, 80639, Note_off_c, 1, 83, 0
1, 80640, Note_on_c, 1, 85, 127
1, 80640, Note_on_c, 1, 66, 127
1, 80640, Note_on_c, 1, 46, 127
1, 80669, Note_off_c, 1, 85, 0
1, 80669, Note_off_c, 1, 66, 0
1, 80670, Note_on_c, 1, 78, 127
1, 80699, Note_off_c, 1, 46, 0
1, 80700, Note_on_c, 1, 73, 127
1, 80700, Note_on_c, 1, 58, 127
1, 80729, Note_off_c, 1, 78, 0
1, 80729, Note_off_c, 1, 73, 0
1, 80730, Note_on_c, 1, 76, 127
1, 80759, Note_off_c, 1, 58, 0
1, 80759, Note_off_c, 1, 76, 0
1, 80760, Note_on_c, 1, 74, 127
1, 80760, Note_on_c, 1, 54, 127
1, 80789, Note_off_c, 1, 74, 0
1, 80790, Note_on_c, 1, 73, 127
1, 80819, Note_off_c, 1, 54, 0
1, 80819, Note_off_c, 1, 73, 0
1, 80820, Note_on_c, 1, 74, 127
1, 80820, Note_on_c, 1, 59, 127
1, 80834, Note_off_c, 1, 74, 0
1, 80835, Note_on_c, 1, 73, 127
1, 80849, Note_off_c, 1, 73, 0
1, 80850, Note_on_c, 1, 79, 127
1, 80879, Note_off_c, 1, 59, 0
1, 80879, Note_off_c, 1, 79, 0
1, 80880, Note_on_c, 1, 78, 127
1, 80880, Note_on_c, 1, 69, 127
1, 80880, Note_on_c, 1, 50, 127
1, 80909, Note_off_c, 1, 78, 0
1, 80910, Note_on_c, 1, 76, 127
1, 80939, Note_off_c, 1, 50, 0
1, 80939, Note_off_c, 1, 76, 0
1, 80940, Note_off_c, 1, 69, 0
1, 80940, Note_on_c, 1, 47, 127
1, 80970, Note_on_c, 1, 74, 127
1, 80970, Note_on_c, 1, 66, 127
1, 80999, Note_off_c, 1, 47, 0
1, 80999, Note_off_c, 1, 74, 0
1, 80999, Note_off_c, 1, 66, 0
1, 81000, Note_on_c, 1, 71, 127
1, 81000, Note_on_c, 1, 68, 127
1, 81000, Note_on_c, 1, 52, 127
1, 81029, Note_off_c, 1, 71, 0
1, 81029, Note_off_c, 1, 68, 0
1, 81059, Note_off_c, 1, 52, 0
1, 81060, Note_on_c, 1, 83, 127
1, 81060, Note_on_c, 1, 76, 127
1, 81060, Note_on_c, 1, 56, 127
1, 81089, Note_off_c, 1, 83, 0
1, 81089, Note_off_c, 1, 76, 0
1, 81090, Note_on_c, 1, 74, 127
1, 81119, Note_off_c, 1, 56, 0
1, 81119, Note_off_c, 1, 74, 0
1, 81120, Note_on_c, 1, 72, 127
1, 81120, Note_on_c, 1, 52, 127
1, 81149, Note_off_c, 1, 72, 0
1, 81150, Note_on_c, 1, 71, 127
1, 81179, Note_off_c, 1, 52, 0
1, 81179, Note_off_c, 1, 71, 0
1, 81180, Note_on_c, 1, 72, 127
1, 81180, Note_on_c, 1, 57, 127
1, 81195, Note_off_c, 1, 72, 0
1, 81195, Note_on_c, 1, 71, 127
1, 81210, Note_off_c, 1, 71, 0
1, 81210, Note_on_c, 1, 76, 127
1, 81239, Note_off_c, 1, 57, 0
1, 81240, Note_on_c, 1, 69, 127
1, 81240, Note_on_c, 1, 48, 127
1, 81254, Note_off_c, 1, 76, 0
1, 81255, Note_on_c, 1, 74, 127
1, 81269, Note_off_c, 1, 74, 0
1, 81299, Note_off_c, 1, 48, 0
1, 81300, Note_off_c, 1, 69, 0
1, 81300, Note_on_c, 1, 45, 127
1, 81345, Note_on_c, 1, 67, 127
1, 81359, Note_off_c, 1, 45, 0
1, 81359, Note_off_c, 1, 67, 0
1, 81360, Note_on_c, 1, 69, 127
1, 81360, Note_on_c, 1, 62, 127
1, 81360, Note_on_c, 1, 42, 127
1, 81360, Note_on_c, 1, 60, 127
1, 81374, Note_off_c, 1, 69, 0
1, 81375, Note_on_c, 1, 67, 127
1, 81389, Note_off_c, 1, 67, 0
1, 81390, Note_on_c, 1, 66, 127
1, 81390, Note_on_c, 1, 74, 127
1, 81404, Note_off_c, 1, 66, 0
1, 81405, Note_on_c, 1, 64, 127
1, 81419, Note_off_c, 1, 42, 0
1, 81419, Note_off_c, 1, 74, 0
1, 81419, Note_off_c, 1, 64, 0
1, 81420, Note_on_c, 1, 54, 127
1, 81435, Note_on_c, 1, 72, 127
1, 81449, Note_off_c, 1, 72, 0
1, 81450, Note_on_c, 1, 71, 127
1, 81464, Note_off_c, 1, 71, 0
1, 81479, Note_off_c, 1, 54, 0
1, 81480, Note_on_c, 1, 50, 127
1, 81539, Note_off_c, 1, 50, 0
1, 81540, Note_off_c, 1, 60, 0
1, 81540, Note_on_c, 1, 55, 127
1, 81569, Note_off_c, 1, 55, 0
1, 81660, Note_on_c, 1, 57, 127
1, 81689, Note_off_c, 1, 57, 0
1, 81780, Note_on_c, 1, 47, 127
1, 81809, Note_off_c, 1, 47, 0
1, 81810, Note_on_c, 1, 43, 127
1, 81839, Note_off_c, 1, 43, 0
1, 81840, Note_off_c, 1, 62, 0
1, 81840, Note_on_c, 1, 76, 127
1, 81840, Note_on_c, 1, 48, 127
1, 81854, Note_off_c, 1, 76, 0
1, 81869, Note_off_c, 1, 48, 0
1, 81870, Note_on_c, 1, 45, 127
1, 81899, Note_off_c, 1, 45, 0
1, 81960, Note_on_c, 1, 73, 127
1, 81960, Note_on_c, 1, 52, 127
1, 81960, Note_on_c, 1, 61, 127
1, 81974, Note_off_c, 1, 73, 0
1, 81989, Note_off_c, 1, 52, 0
1, 81990, Note_on_c, 1, 49, 127
1, 82005, Note_on_c, 1, 78, 127
1, 82019, Note_off_c, 1, 49, 0
1, 82019, Note_off_c, 1, 78, 0
1, 82020, Note_on_c, 1, 79, 127
1, 82034, Note_off_c, 1, 79, 0
1, 82080, Note_off_c, 1, 61, 0
1, 82800, Note_on_c, 1, 81, 127
1, 82859, Note_off_c, 1, 81, 0
1, 82920, Note_on_c, 1, 83, 127
1, 82934, Note_off_c, 1, 83, 0
1, 83040, Note_on_c, 1, 59, 127
1, 83055, Note_on_c, 1, 77, 127
1, 83069, Note_off_c, 1, 59, 0
1, 83069, Note_off_c, 1, 77, 0
1, 83100, Note_on_c, 1, 65, 127
1, 83160, Note_off_c, 1, 65, 0
1, 84030, Note_on_c, 1, 38, 127
1, 84059, Note_off_c, 1, 38, 0
1, 84240, Note_on_c, 1, 66, 127
1, 84240, Note_on_c, 1, 50, 127
1, 84254, Note_off_c, 1, 66, 0
1, 84255, Note_on_c, 1, 67, 127
1, 84269, Note_off_c, 1, 67, 0
1, 84270, Note_on_c, 1, 69, 127
1, 84284, Note_off_c, 1, 69, 0
1, 84285, Note_on_c, 1, 71, 127
1, 84299, Note_off_c, 1, 50, 0
1, 84299, Note_off_c, 1, 71, 0
1, 84300, Note_on_c, 1, 72, 127
1, 84300, Note_on_c, 1, 45, 127
1, 84329, Note_off_c, 1, 72, 0
1, 84330, Note_on_c, 1, 76, 127
1, 84344, Note_off_c, 1, 76, 0
1, 84359, Note_off_c, 1, 45, 0
1, 84360, Note_on_c, 1, 74, 127
1, 84360, Note_on_c, 1, 47, 127
1, 84374, Note_off_c, 1, 74, 0
1, 84390, Note_on_c, 1, 67, 127
1, 84404, Note_off_c, 1, 67, 0
1, 84419, Note_off_c, 1, 47, 0
1, 84420, Note_on_c, 1, 62, 127
1, 84420, Note_on_c, 1, 42, 127
1, 84434, Note_off_c, 1, 62, 0
1, 84435, Note_on_c, 1, 64, 127
1, 84449, Note_off_c, 1, 64, 0
1, 84450, Note_on_c, 1, 66, 127
1, 84464, Note_off_c, 1, 66, 0
1, 84465, Note_on_c, 1, 67, 127
1, 84479, Note_off_c, 1, 42, 0
1, 84479, Note_off_c, 1, 67, 0
1, 84480, Note_on_c, 1, 69, 127
1, 84480, Note_on_c, 1, 38, 127
1, 84509, Note_off_c, 1, 69, 0
1, 84510, Note_on_c, 1, 72, 127
1, 84524, Note_off_c, 1, 72, 0
1, 84539, Note_off_c, 1, 38, 0
1, 84540, Note_on_c, 1, 71, 127
1, 84540, Note_on_c, 1, 43, 127
1, 84554, Note_off_c, 1, 71, 0
1, 84570, Note_on_c, 1, 76, 127
1, 84584, Note_off_c, 1, 76, 0
1, 84599, Note_off_c, 1, 43, 0
1, 84600, Note_on_c, 1, 74, 127
1, 84600, Note_on_c, 1, 47, 127
1, 84614, Note_off_c, 1, 74, 0
1, 84630, Note_on_c, 1, 67, 127
1, 84644, Note_off_c, 1, 67, 0
1, 84659, Note_off_c, 1, 47, 0
1, 84660, Note_on_c, 1, 71, 127
1, 84660, Note_on_c, 1, 48, 127
1, 84689, Note_off_c, 1, 71, 0
1, 84690, Note_on_c, 1, 69, 127
1, 84710, Note_off_c, 1, 69, 0
1, 84719, Note_off_c, 1, 48, 0
1, 84720, Note_on_c, 1, 67, 127
1, 84720, Note_on_c, 1, 50, 127
1, 84749, Note_off_c, 1, 67, 0
1, 84750, Note_on_c, 1, 66, 127
1, 84770, Note_off_c, 1, 66, 0
1, 84779, Note_off_c, 1, 50, 0
1, 84780, Note_on_c, 1, 67, 127
1, 84780, Note_on_c, 1, 71, 127
1, 84780, Note_on_c, 1, 55, 127
1, 84794, Note_off_c, 1, 71, 0
1, 84795, Note_on_c, 1, 69, 127
1, 84809, Note_off_c, 1, 69, 0
1, 84839, Note_off_c, 1, 55, 0
1, 84840, Note_on_c, 1, 59, 127
1, 84869, Note_off_c, 1, 67, 0
1, 84870, Note_on_c, 1, 79, 127
1, 84899, Note_off_c, 1, 59, 0
1, 84899, Note_off_c, 1, 79, 0
1, 84900, Note_on_c, 1, 79, 127
1, 84900, Note_on_c, 1, 55, 127
1, 84914, Note_off_c, 1, 79, 0
1, 84915, Note_on_c, 1, 78, 127
1, 84929, Note_off_c, 1, 78, 0
1, 84930, Note_on_c, 1, 76, 127
1, 84944, Note_off_c, 1, 76, 0
1, 84945, Note_on_c, 1, 75, 127
1, 84959, Note_off_c, 1, 55, 0
1, 84959, Note_off_c, 1, 75, 0
1, 84960, Note_on_c, 1, 76, 127
1, 84960, Note_on_c, 1, 60, 127
1, 84974, Note_off_c, 1, 76, 0
1, 84975, Note_on_c, 1, 74, 127
1, 84989, Note_off_c, 1, 74, 0
1, 84990, Note_on_c, 1, 83, 127
1, 85005, Note_on_c, 1, 78, 127
1, 85019, Note_off_c, 1, 83, 0
1, 85019, Note_off_c, 1, 78, 0
1, 85020, Note_on_c, 1, 81, 127
1, 85049, Note_off_c, 1, 81, 0
1, 85050, Note_on_c, 1, 80, 127
1, 85050, Note_on_c, 1, 72, 127
1, 85064, Note_off_c, 1, 72, 0
1, 85065, Note_on_c, 1, 71, 127
1, 85079, Note_off_c, 1, 60, 0
1, 85079, Note_off_c, 1, 80, 0
1, 85079, Note_off_c, 1, 71, 0
1, 85080, Note_on_c, 1, 81, 127
1, 85080, Note_on_c, 1, 69, 127
1, 85080, Note_on_c, 1, 54, 127
1, 85109, Note_off_c, 1, 81, 0
1, 85110, Note_on_c, 1, 84, 127
1, 85139, Note_off_c, 1, 69, 0
1, 85139, Note_off_c, 1, 54, 0
1, 85139, Note_off_c, 1, 84, 0
1, 85140, Note_on_c, 1, 75, 127
1, 85140, Note_on_c, 1, 59, 127
1, 85155, Note_on_c, 1, 72, 127
1, 85169, Note_off_c, 1, 72, 0
1, 85170, Note_on_c, 1, 71, 127
1, 85184, Note_off_c, 1, 71, 0
1, 85185, Note_on_c, 1, 69, 127
1, 85199, Note_off_c, 1, 75, 0
1, 85199, Note_off_c, 1, 59, 0
1, 85199, Note_off_c, 1, 69, 0
1, 85200, Note_on_c, 1, 78, 127
1, 85200, Note_on_c, 1, 51, 127
1, 85229, Note_off_c, 1, 78, 0
1, 85230, Note_on_c, 1, 69, 127
1, 85259, Note_off_c, 1, 51, 0
1, 85259, Note_off_c, 1, 69, 0
1, 85260, Note_on_c, 1, 72, 127
1, 85260, Note_on_c, 1, 47, 127
1, 85289, Note_off_c, 1, 72, 0
1, 85290, Note_on_c, 1, 71, 127
1, 85319, Note_off_c, 1, 47, 0
1, 85319, Note_off_c, 1, 71, 0
1, 85320, Note_on_c, 1, 69, 127
1, 85320, Note_on_c, 1, 40, 127
1, 85350, Note_on_c, 1, 72, 127
1, 85379, Note_off_c, 1, 69, 0
1, 85379, Note_off_c, 1, 40, 0
1, 85379, Note_off_c, 1, 72, 0
1, 85380, Note_on_c, 1, 71, 127
1, 85380, Note_on_c, 1, 67, 127
1, 85380, Note_on_c, 1, 43, 127
1, 85409, Note_off_c, 1, 71, 0
1, 85410, Note_on_c, 1, 69, 127
1, 85439, Note_off_c, 1, 67, 0
1, 85439, Note_off_c, 1, 43, 0
1, 85439, Note_off_c, 1, 69, 0
1, 85440, Note_on_c, 1, 71, 127
1, 85440, Note_on_c, 1, 47, 127
1, 85469, Note_off_c, 1, 71, 0
1, 85470, Note_on_c, 1, 74, 127
1, 85499, Note_off_c, 1, 47, 0
1, 85499, Note_off_c, 1, 74, 0
1, 85500, Note_on_c, 1, 68, 127
1, 85500, Note_on_c, 1, 64, 127
1, 85500, Note_on_c, 1, 50, 127
1, 85514, Note_off_c, 1, 64, 0
1, 85515, Note_on_c, 1, 66, 127
1, 85529, Note_off_c, 1, 66, 0
1, 85559, Note_off_c, 1, 50, 0
1, 85560, Note_on_c, 1, 47, 127
1, 85574, Note_off_c, 1, 68, 0
1, 85575, Note_on_c, 1, 69, 127
1, 85589, Note_off_c, 1, 69, 0
1, 85590, Note_on_c, 1, 71, 127
1, 85619, Note_off_c, 1, 47, 0
1, 85620, Note_on_c, 1, 44, 127
1, 85634, Note_off_c, 1, 71, 0
1, 85635, Note_on_c, 1, 72, 127
1, 85649, Note_off_c, 1, 72, 0
1, 85650, Note_on_c, 1, 74, 127
1, 85679, Note_off_c, 1, 44, 0
1, 85680, Note_on_c, 1, 40, 127
1, 85709, Note_off_c, 1, 74, 0
1, 85739, Note_off_c, 1, 40, 0
1, 85740, Note_on_c, 1, 68, 127
1, 85740, Note_on_c, 1, 52, 127
1, 85754, Note_off_c, 1, 68, 0
1, 85755, Note_on_c, 1, 69, 127
1, 85769, Note_off_c, 1, 69, 0
1, 85770, Note_on_c, 1, 71, 127
1, 85784, Note_off_c, 1, 71, 0
1, 85785, Note_on_c, 1, 72, 127
1, 85799, Note_off_c, 1, 52, 0
1, 85799, Note_off_c, 1, 72, 0
1, 85800, Note_on_c, 1, 74, 127
1, 85800, Note_on_c, 1, 47, 127
1, 85814, Note_off_c, 1, 74, 0
1, 85815, Note_on_c, 1, 76, 127
1, 85829, Note_off_c, 1, 76, 0
1, 85830, Note_on_c, 1, 77, 127
1, 85859, Note_off_c, 1, 47, 0
1, 85860, Note_on_c, 1, 44, 127
1, 85874, Note_off_c, 1, 77, 0
1, 85905, Note_on_c, 1, 72, 127
1, 85919, Note_off_c, 1, 44, 0
1, 85919, Note_off_c, 1, 72, 0
1, 85920, Note_on_c, 1, 74, 127
1, 85920, Note_on_c, 1, 40, 127
1, 85949, Note_off_c, 1, 74, 0
1, 85950, Note_on_c, 1, 71, 127
1, 85979, Note_off_c, 1, 40, 0
1, 85979, Note_off_c, 1, 71, 0
1, 85980, Note_on_c, 1, 76, 127
1, 85980, Note_on_c, 1, 44, 127
1, 86009, Note_off_c, 1, 76, 0
1, 86010, Note_on_c, 1, 71, 127
1, 86039, Note_off_c, 1, 44, 0
1, 86039, Note_off_c, 1, 71, 0
1, 86040, Note_on_c, 1, 72, 127
1, 86040, Note_on_c, 1, 45, 127
1, 86070, Note_on_c, 1, 84, 127
1, 86099, Note_off_c, 1, 45, 0
1, 86100, Note_on_c, 1, 47, 127
1, 86114, Note_off_c, 1, 84, 0
1, 86115, Note_on_c, 1, 83, 127
1, 86129, Note_off_c, 1, 83, 0
1, 86130, Note_on_c, 1, 81, 127
1, 86144, Note_off_c, 1, 81, 0
1, 86145, Note_on_c, 1, 79, 127
1, 86159, Note_off_c, 1, 72, 0
1, 86159, Note_off_c, 1, 47, 0
1, 86159, Note_off_c, 1, 79, 0
1, 86160, Note_on_c, 1, 78, 127
1, 86160, Note_on_c, 1, 48, 127
1, 86174, Note_off_c, 1, 78, 0
1, 86175, Note_on_c, 1, 76, 127
1, 86189, Note_off_c, 1, 76, 0
1, 86190, Note_on_c, 1, 75, 127
1, 86204, Note_off_c, 1, 75, 0
1, 86219, Note_off_c, 1, 48, 0
1, 86220, Note_on_c, 1, 75, 127
1, 86220, Note_on_c, 1, 66, 127
1, 86220, Note_on_c, 1, 47, 127
1, 86249, Note_off_c, 1, 75, 0
1, 86250, Note_on_c, 1, 81, 127
1, 86279, Note_off_c, 1, 66, 0
1, 86279, Note_off_c, 1, 81, 0
1, 86280, Note_on_c, 1, 79, 127
1, 86280, Note_on_c, 1, 76, 127
1, 86294, Note_off_c, 1, 79, 0
1, 86295, Note_on_c, 1, 78, 127
1, 86309, Note_off_c, 1, 78, 0
1, 86339, Note_off_c, 1, 47, 0
1, 86339, Note_off_c, 1, 76, 0
1, 86340, Note_on_c, 1, 78, 127
1, 86340, Note_on_c, 1, 45, 127
1, 86369, Note_off_c, 1, 78, 0
1, 86370, Note_on_c, 1, 83, 127
1, 86370, Note_on_c, 1, 75, 127
1, 86399, Note_off_c, 1, 45, 0
1, 86399, Note_off_c, 1, 83, 0
1, 86399, Note_off_c, 1, 75, 0
1, 86400, Note_on_c, 1, 71, 127
1, 86400, Note_on_c, 1, 76, 127
1, 86400, Note_on_c, 1, 43, 127
1, 86429, Note_off_c, 1, 76, 0
1, 86430, Note_on_c, 1, 78, 127
1, 86459, Note_off_c, 1, 43, 0
1, 86459, Note_off_c, 1, 78, 0
1, 86460, Note_on_c, 1, 79, 127
1, 86460, Note_on_c, 1, 40, 127
1, 86489, Note_off_c, 1, 79, 0
1, 86519, Note_off_c, 1, 40, 0
1, 86520, Note_on_c, 1, 75, 127
1, 86549, Note_off_c, 1, 75, 0
1, 86579, Note_off_c, 1, 71, 0
1, 86580, Note_on_c, 1, 72, 127
1, 86580, Note_on_c, 1, 45, 127
1, 86609, Note_off_c, 1, 72, 0
1, 86610, Note_on_c, 1, 79, 127
1, 86610, Note_on_c, 1, 71, 127
1, 86639, Note_off_c, 1, 45, 0
1, 86639, Note_off_c, 1, 79, 0
1, 86639, Note_off_c, 1, 71, 0
1, 86640, Note_on_c, 1, 78, 127
1, 86640, Note_on_c, 1, 69, 127
1, 86640, Note_on_c, 1, 47, 127
1, 86669, Note_off_c, 1, 78, 0
1, 86669, Note_off_c, 1, 69, 0
1, 86670, Note_on_c, 1, 76, 127
1, 86670, Note_on_c, 1, 67, 127
1, 86699, Note_off_c, 1, 47, 0
1, 86699, Note_off_c, 1, 76, 0
1, 86699, Note_off_c, 1, 67, 0
1, 86700, Note_on_c, 1, 81, 127
1, 86700, Note_on_c, 1, 66, 127
1, 86700, Note_on_c, 1, 48, 127
1, 86729, Note_off_c, 1, 66, 0
1, 86730, Note_on_c, 1, 64, 127
1, 86759, Note_off_c, 1, 81, 0
1, 86759, Note_off_c, 1, 48, 0
1, 86759, Note_off_c, 1, 64, 0
1, 86760, Note_on_c, 1, 64, 127
1, 86760, Note_on_c, 1, 47, 127
1, 86775, Note_on_c, 1, 83, 127
1, 86789, Note_off_c, 1, 83, 0
1, 86790, Note_on_c, 1, 81, 127
1, 86804, Note_off_c, 1, 81, 0
1, 86805, Note_on_c, 1, 79, 127
1, 86819, Note_off_c, 1, 64, 0
1, 86819, Note_off_c, 1, 47, 0
1, 86819, Note_off_c, 1, 79, 0
1, 86820, Note_on_c, 1, 78, 127
1, 86820, Note_on_c, 1, 63, 127
1, 86820, Note_on_c, 1, 59, 127
1, 86834, Note_off_c, 1, 78, 0
1, 86835, Note_on_c, 1, 76, 127
1, 86849, Note_off_c, 1, 76, 0
1, 86850, Note_on_c, 1, 75, 127
1, 86864, Note_off_c, 1, 75, 0
1, 86865, Note_on_c, 1, 73, 127
1, 86879, Note_off_c, 1, 63, 0
1, 86879, Note_off_c, 1, 59, 0
1, 86879, Note_off_c, 1, 73, 0
1, 86880, Note_on_c, 1, 71, 127
1, 86880, Note_on_c, 1, 63, 127
1, 86880, Note_on_c, 1, 57, 127
1, 86894, Note_off_c, 1, 71, 0
1, 86895, Note_on_c, 1, 69, 127
1, 86909, Note_off_c, 1, 69, 0
1, 86910, Note_on_c, 1, 67, 127
1, 86924, Note_off_c, 1, 67, 0
1, 86925, Note_on_c, 1, 66, 127
1, 86939, Note_off_c, 1, 63, 0
1, 86939, Note_off_c, 1, 57, 0
1, 86939, Note_off_c, 1, 66, 0
1, 86940, Note_on_c, 1, 64, 127
1, 86940, Note_on_c, 1, 55, 127
1, 86969, Note_off_c, 1, 64, 0
1, 86969, Note_off_c, 1, 55, 0
1, 86970, Note_on_c, 1, 83, 127
1, 86970, Note_on_c, 1, 54, 127
1, 86999, Note_off_c, 1, 54, 0
1, 87000, Note_on_c, 1, 71, 127
1, 87000, Note_on_c, 1, 55, 127
1, 87014, Note_off_c, 1, 83, 0
1, 87015, Note_on_c, 1, 81, 127
1, 87029, Note_off_c, 1, 55, 0
1, 87029, Note_off_c, 1, 81, 0
1, 87030, Note_on_c, 1, 79, 127
1, 87030, Note_on_c, 1, 52, 127
1, 87044, Note_off_c, 1, 79, 0
1, 87059, Note_off_c, 1, 71, 0
1, 87059, Note_off_c, 1, 52, 0
1, 87060, Note_on_c, 1, 81, 127
1, 87060, Note_on_c, 1, 71, 127
1, 87060, Note_on_c, 1, 54, 127
1, 87074, Note_off_c, 1, 81, 0
1, 87075, Note_on_c, 1, 79, 127
1, 87089, Note_off_c, 1, 54, 0
1, 87089, Note_off_c, 1, 79, 0
1, 87090, Note_on_c, 1, 78, 127
1, 87090, Note_on_c, 1, 51, 127
1, 87104, Note_off_c, 1, 78, 0
1, 87119, Note_off_c, 1, 71, 0
1, 87119, Note_off_c, 1, 51, 0
1, 87120, Note_on_c, 1, 79, 127
1, 87120, Note_on_c, 1, 71, 127
1, 87120, Note_on_c, 1, 52, 127
1, 87134, Note_off_c, 1, 79, 0
1, 87135, Note_on_c, 1, 76, 127
1, 87149, Note_off_c, 1, 52, 0
1, 87149, Note_off_c, 1, 76, 0
1, 87150, Note_on_c, 1, 75, 127
1, 87150, Note_on_c, 1, 47, 127
1, 87164, Note_off_c, 1, 75, 0
1, 87179, Note_off_c, 1, 47, 0
1, 87180, Note_on_c, 1, 78, 127
1, 87180, Note_on_c, 1, 49, 127
1, 87194, Note_off_c, 1, 78, 0
1, 87209, Note_off_c, 1, 49, 0
1, 87210, Note_on_c, 1, 81, 127
1, 87224, Note_off_c, 1, 81, 0
1, 87225, Note_on_c, 1, 83, 127
1, 87239, Note_off_c, 1, 83, 0
1, 87240, Note_on_c, 1, 54, 127
1, 87269, Note_off_c, 1, 54, 0
1, 87359, Note_off_c, 1, 71, 0
1, 87360, Note_on_c, 1, 78, 127
1, 87360, Note_on_c, 1, 43, 127
1, 87374, Note_off_c, 1, 78, 0
1, 87375, Note_on_c, 1, 79, 127
1, 87389, Note_off_c, 1, 43, 0
1, 87389, Note_off_c, 1, 79, 0
1, 87390, Note_on_c, 1, 81, 127
1, 87390, Note_on_c, 1, 69, 127
1, 87390, Note_on_c, 1, 40, 127
1, 87404, Note_off_c, 1, 81, 0
1, 87404, Note_off_c, 1, 69, 0
1, 87405, Note_on_c, 1, 83, 127
1, 87405, Note_on_c, 1, 67, 127
1, 87419, Note_off_c, 1, 40, 0
1, 87419, Note_off_c, 1, 83, 0
1, 87419, Note_off_c, 1, 67, 0
1, 87420, Note_on_c, 1, 84, 127
1, 87420, Note_on_c, 1, 69, 127
1, 87420, Note_on_c, 1, 45, 127
1, 87434, Note_off_c, 1, 84, 0
1, 87435, Note_on_c, 1, 83, 127
1, 87449, Note_off_c, 1, 69, 0
1, 87449, Note_off_c, 1, 45, 0
1, 87449, Note_off_c, 1, 83, 0
1, 87450, Note_on_c, 1, 81, 127
1, 87450, Note_on_c, 1, 66, 127
1, 87450, Note_on_c, 1, 48, 127
1, 87464, Note_off_c, 1, 81, 0
1, 87465, Note_on_c, 1, 84, 127
1, 87479, Note_off_c, 1, 66, 0
1, 87479, Note_off_c, 1, 48, 0
1, 87479, Note_off_c, 1, 84, 0
1, 87480, Note_on_c, 1, 83, 127
1, 87480, Note_on_c, 1, 67, 127
1, 87480, Note_on_c, 1, 52, 127
1, 87494, Note_off_c, 1, 83, 0
1, 87495, Note_on_c, 1, 79, 127
1, 87509, Note_off_c, 1, 52, 0
1, 87509, Note_off_c, 1, 79, 0
1, 87510, Note_on_c, 1, 78, 127
1, 87510, Note_on_c, 1, 50, 127
1, 87524, Note_off_c, 1, 78, 0
1, 87539, Note_off_c, 1, 67, 0
1, 87539, Note_off_c, 1, 50, 0
1, 87540, Note_on_c, 1, 81, 127
1, 87540, Note_on_c, 1, 76, 127
1, 87540, Note_on_c, 1, 48, 127
1, 87554, Note_off_c, 1, 81, 0
1, 87555, Note_on_c, 1, 83, 127
1, 87569, Note_off_c, 1, 48, 0
1, 87569, Note_off_c, 1, 83, 0
1, 87570, Note_on_c, 1, 84, 127
1, 87570, Note_on_c, 1, 47, 127
1, 87584, Note_off_c, 1, 84, 0
1, 87599, Note_off_c, 1, 47, 0
1, 87615, Note_on_c, 1, 79, 127
1, 87629, Note_off_c, 1, 76, 0
1, 87629, Note_off_c, 1, 79, 0
1, 87630, Note_on_c, 1, 78, 127
1, 87630, Note_on_c, 1, 45, 127
1, 87644, Note_off_c, 1, 78, 0
1, 87645, Note_on_c, 1, 76, 127
1, 87645, Note_on_c, 1, 79, 127
1, 87659, Note_off_c, 1, 45, 0
1, 87659, Note_off_c, 1, 76, 0
1, 87659, Note_off_c, 1, 79, 0
1, 87660, Note_on_c, 1, 75, 127
1, 87660, Note_on_c, 1, 78, 127
1, 87660, Note_on_c, 1, 47, 127
1, 87674, Note_off_c, 1, 75, 0
1, 87675, Note_on_c, 1, 73, 127
1, 87689, Note_off_c, 1, 47, 0
1, 87689, Note_off_c, 1, 73, 0
1, 87690, Note_on_c, 1, 71, 127
1, 87690, Note_on_c, 1, 51, 127
1, 87704, Note_off_c, 1, 71, 0
1, 87719, Note_off_c, 1, 78, 0
1, 87719, Note_off_c, 1, 51, 0
1, 87720, Note_on_c, 1, 75, 127
1, 87720, Note_on_c, 1, 71, 127
1, 87720, Note_on_c, 1, 54, 127
1, 87734, Note_off_c, 1, 75, 0
1, 87735, Note_on_c, 1, 76, 127
1, 87749, Note_off_c, 1, 54, 0
1, 87749, Note_off_c, 1, 76, 0
1, 87750, Note_on_c, 1, 78, 127
1, 87750, Note_on_c, 1, 51, 127
1, 87764, Note_off_c, 1, 78, 0
1, 87765, Note_on_c, 1, 79, 127
1, 87779, Note_off_c, 1, 71, 0
1, 87779, Note_off_c, 1, 51, 0
1, 87779, Note_off_c, 1, 79, 0
1, 87780, Note_on_c, 1, 81, 127
1, 87780, Note_on_c, 1, 47, 127
1, 87794, Note_off_c, 1, 81, 0
1, 87795, Note_on_c, 1, 79, 127
1, 87809, Note_off_c, 1, 47, 0
1, 87809, Note_off_c, 1, 79, 0
1, 87810, Note_on_c, 1, 78, 127
1, 87810, Note_on_c, 1, 51, 127
1, 87824, Note_off_c, 1, 78, 0
1, 87825, Note_on_c, 1, 81, 127
1, 87839, Note_off_c, 1, 51, 0
1, 87839, Note_off_c, 1, 81, 0
1, 87840, Note_on_c, 1, 79, 127
1, 87840, Note_on_c, 1, 52, 127
1, 87854, Note_off_c, 1, 79, 0
1, 87855, Note_on_c, 1, 78, 127
1, 87869, Note_off_c, 1, 78, 0
1, 87870, Note_on_c, 1, 71, 127
1, 87885, Note_on_c, 1, 76, 127
1, 87899, Note_off_c, 1, 52, 0
1, 87899, Note_off_c, 1, 76, 0
1, 87900, Note_on_c, 1, 75, 127
1, 87900, Note_on_c, 1, 54, 127
1, 87914, Note_off_c, 1, 71, 0
1, 87915, Note_on_c, 1, 69, 127
1, 87929, Note_off_c, 1, 69, 0
1, 87930, Note_on_c, 1, 67, 127
1, 87944, Note_off_c, 1, 67, 0
1, 87959, Note_off_c, 1, 54, 0
1, 87960, Note_on_c, 1, 47, 127
1, 87989, Note_off_c, 1, 75, 0
1, 87990, Note_on_c, 1, 66, 127
1, 88004, Note_off_c, 1, 66, 0
1, 88019, Note_off_c, 1, 47, 0
1, 88020, Note_on_c, 1, 76, 127
1, 88020, Note_on_c, 1, 67, 127
1, 88020, Note_on_c, 1, 52, 127
1, 88034, Note_off_c, 1, 67, 0
1, 88035, Note_on_c, 1, 64, 127
1, 88049, Note_off_c, 1, 52, 0
1, 88049, Note_off_c, 1, 64, 0
1, 88050, Note_on_c, 1, 63, 127
1, 88050, Note_on_c, 1, 55, 127
1, 88064, Note_off_c, 1, 63, 0
1, 88079, Note_off_c, 1, 55, 0
1, 88080, Note_on_c, 1, 66, 127
1, 88080, Note_on_c, 1, 57, 127
1, 88094, Note_off_c, 1, 66, 0
1, 88109, Note_off_c, 1, 57, 0
1, 88110, Note_on_c, 1, 69, 127
1, 88110, Note_on_c, 1, 54, 127
1, 88124, Note_off_c, 1, 69, 0
1, 88125, Note_on_c, 1, 71, 127
1, 88139, Note_off_c, 1, 54, 0
1, 88139, Note_off_c, 1, 71, 0
1, 88140, Note_on_c, 1, 60, 127
1, 88169, Note_off_c, 1, 60, 0
1, 88200, Note_on_c, 1, 59, 127
1, 88229, Note_off_c, 1, 59, 0
1, 88320, Note_on_c, 1, 72, 127
1, 88334, Note_off_c, 1, 72, 0
1, 88470, Note_on_c, 1, 73, 127
1, 88484, Note_off_c, 1, 73, 0
1, 88485, Note_on_c, 1, 75, 127
1, 88499, Note_off_c, 1, 75, 0
1, 88514, Note_off_c, 1, 76, 0
1, 88530, Note_on_c, 1, 73, 127
1, 88530, Note_on_c, 1, 52, 127
1, 88544, Note_off_c, 1, 73, 0
1, 88545, Note_on_c, 1, 76, 127
1, 88559, Note_off_c, 1, 52, 0
1, 88559, Note_off_c, 1, 76, 0
1, 88560, Note_on_c, 1, 75, 127
1, 88560, Note_on_c, 1, 59, 127
1, 88574, Note_off_c, 1, 75, 0
1, 88575, Note_on_c, 1, 71, 127
1, 88589, Note_off_c, 1, 59, 0
1, 88589, Note_off_c, 1, 71, 0
1, 88590, Note_on_c, 1, 70, 127
1, 88590, Note_on_c, 1, 54, 127
1, 88604, Note_off_c, 1, 70, 0
1, 88605, Note_on_c, 1, 71, 127
1, 88619, Note_off_c, 1, 54, 0
1, 88619, Note_off_c, 1, 71, 0
1, 88620, Note_on_c, 1, 73, 127
1, 88620, Note_on_c, 1, 55, 127
1, 88634, Note_off_c, 1, 73, 0
1, 88635, Note_on_c, 1, 75, 127
1, 88649, Note_off_c, 1, 55, 0
1, 88649, Note_off_c, 1, 75, 0
1, 88650, Note_on_c, 1, 76, 127
1, 88650, Note_on_c, 1, 51, 127
1, 88664, Note_off_c, 1, 76, 0
1, 88665, Note_on_c, 1, 78, 127
1, 88679, Note_off_c, 1, 51, 0
1, 88679, Note_off_c, 1, 78, 0
1, 88680, Note_on_c, 1, 79, 127
1, 88680, Note_on_c, 1, 52, 127
1, 88694, Note_off_c, 1, 79, 0
1, 88695, Note_on_c, 1, 78, 127
1, 88709, Note_off_c, 1, 52, 0
1, 88709, Note_off_c, 1, 78, 0
1, 88710, Note_on_c, 1, 76, 127
1, 88710, Note_on_c, 1, 47, 127
1, 88724, Note_off_c, 1, 76, 0
1, 88725, Note_on_c, 1, 75, 127
1, 88739, Note_off_c, 1, 47, 0
1, 88739, Note_off_c, 1, 75, 0
1, 88740, Note_on_c, 1, 76, 127
1, 88740, Note_on_c, 1, 48, 127
1, 88769, Note_off_c, 1, 48, 0
1, 88770, Note_off_c, 1, 76, 0
1, 88770, Note_on_c, 1, 71, 127
1, 88770, Note_on_c, 1, 52, 127
1, 88799, Note_off_c, 1, 52, 0
1, 88800, Note_off_c, 1, 71, 0
1, 88800, Note_on_c, 1, 74, 127
1, 88800, Note_on_c, 1, 45, 127
1, 88814, Note_off_c, 1, 74, 0
1, 88815, Note_on_c, 1, 72, 127
1, 88829, Note_off_c, 1, 72, 0
1, 88845, Note_on_c, 1, 69, 127
1, 88859, Note_off_c, 1, 69, 0
1, 88889, Note_off_c, 1, 45, 0
1, 88890, Note_on_c, 1, 43, 127
1, 88904, Note_off_c, 1, 43, 0
1, 88905, Note_on_c, 1, 42, 127
1, 88919, Note_off_c, 1, 42, 0
1, 88950, Note_on_c, 1, 64, 127
1, 88980, Note_off_c, 1, 64, 0
1, 88980, Note_on_c, 1, 67, 127
1, 88980, Note_on_c, 1, 47, 127
1, 89039, Note_off_c, 1, 47, 0
1, 89040, Note_off_c, 1, 67, 0
1, 89040, Note_on_c, 1, 66, 127
1, 89070, Note_off_c, 1, 66, 0
1, 89100, Note_on_c, 1, 40, 127
1, 89159, Note_off_c, 1, 40, 0
1, 89160, Note_on_c, 1, 79, 127
1, 89189, Note_off_c, 1, 79, 0
1, 89190, Note_on_c, 1, 78, 127
1, 89219, Note_off_c, 1, 78, 0
1, 89220, Note_on_c, 1, 54, 127
1, 89250, Note_on_c, 1, 75, 127
1, 89279, Note_off_c, 1, 54, 0
1, 89279, Note_off_c, 1, 75, 0
1, 89280, Note_on_c, 1, 76, 127
1, 89280, Note_on_c, 1, 55, 127
1, 89309, Note_off_c, 1, 76, 0
1, 89310, Note_on_c, 1, 71, 127
1, 89339, Note_off_c, 1, 55, 0
1, 89339, Note_off_c, 1, 71, 0
1, 89340, Note_on_c, 1, 72, 127
1, 89340, Note_on_c, 1, 54, 127
1, 89354, Note_off_c, 1, 72, 0
1, 89355, Note_on_c, 1, 71, 127
1, 89369, Note_off_c, 1, 71, 0
1, 89370, Note_on_c, 1, 69, 127
1, 89399, Note_off_c, 1, 54, 0
1, 89399, Note_off_c, 1, 69, 0
1, 89400, Note_on_c, 1, 69, 127
1, 89400, Note_on_c, 1, 55, 127
1, 89429, Note_off_c, 1, 69, 0
1, 89430, Note_on_c, 1, 71, 127
1, 89459, Note_off_c, 1, 55, 0
1, 89460, Note_on_c, 1, 57, 127
1, 89519, Note_off_c, 1, 71, 0
1, 89519, Note_off_c, 1, 57, 0
1, 89520, Note_on_c, 1, 83, 127
1, 89520, Note_on_c, 1, 55, 127
1, 89549, Note_off_c, 1, 83, 0
1, 89550, Note_on_c, 1, 81, 127
1, 89579, Note_off_c, 1, 55, 0
1, 89579, Note_off_c, 1, 81, 0
1, 89580, Note_on_c, 1, 79, 127
1, 89580, Note_on_c, 1, 59, 127
1, 89609, Note_off_c, 1, 79, 0
1, 89610, Note_on_c, 1, 78, 127
1, 89639, Note_off_c, 1, 59, 0
1, 89639, Note_off_c, 1, 78, 0
1, 89640, Note_on_c, 1, 79, 127
1, 89640, Note_on_c, 1, 52, 127
1, 89654, Note_off_c, 1, 79, 0
1, 89655, Note_on_c, 1, 78, 127
1, 89669, Note_off_c, 1, 78, 0
1, 89670, Note_on_c, 1, 76, 127
1, 89699, Note_off_c, 1, 52, 0
1, 89699, Note_off_c, 1, 76, 0
1, 89700, Note_on_c, 1, 78, 127
1, 89714, Note_off_c, 1, 78, 0
1, 89715, Note_on_c, 1, 76, 127
1, 89729, Note_off_c, 1, 76, 0
1, 89730, Note_on_c, 1, 75, 127
1, 89759, Note_off_c, 1, 75, 0
1, 89760, Note_on_c, 1, 75, 127
1, 89760, Note_on_c, 1, 55, 127
1, 89789, Note_off_c, 1, 75, 0
1, 89790, Note_on_c, 1, 79, 127
1, 89819, Note_off_c, 1, 55, 0
1, 89819, Note_off_c, 1, 79, 0
1, 89820, Note_on_c, 1, 78, 127
1, 89820, Note_on_c, 1, 57, 127
1, 89849, Note_off_c, 1, 78, 0
1, 89850, Note_on_c, 1, 79, 127
1, 89879, Note_off_c, 1, 57, 0
1, 89879, Note_off_c, 1, 79, 0
1, 89880, Note_on_c, 1, 81, 127
1, 89880, Note_on_c, 1, 54, 127
1, 89909, Note_off_c, 1, 81, 0
1, 89910, Note_on_c, 1, 84, 127
1, 89939, Note_off_c, 1, 54, 0
1, 89939, Note_off_c, 1, 84, 0
1, 89940, Note_on_c, 1, 83, 127
1, 89940, Note_on_c, 1, 55, 127
1, 89969, Note_off_c, 1, 83, 0
1, 89970, Note_on_c, 1, 76, 127
1, 89999, Note_off_c, 1, 55, 0
1, 89999, Note_off_c, 1, 76, 0
1, 90000, Note_on_c, 1, 75, 127
1, 90000, Note_on_c, 1, 54, 127
1, 90029, Note_off_c, 1, 75, 0
1, 90030, Note_on_c, 1, 76, 127
1, 90059, Note_off_c, 1, 54, 0
1, 90059, Note_off_c, 1, 76, 0
1, 90060, Note_on_c, 1, 78, 127
1, 90060, Note_on_c, 1, 52, 127
1, 90089, Note_off_c, 1, 78, 0
1, 90090, Note_on_c, 1, 81, 127
1, 90119, Note_off_c, 1, 52, 0
1, 90119, Note_off_c, 1, 81, 0
1, 90120, Note_on_c, 1, 72, 127
1, 90120, Note_on_c, 1, 51, 127
1, 90149, Note_off_c, 1, 72, 0
1, 90150, Note_on_c, 1, 71, 127
1, 90179, Note_off_c, 1, 51, 0
1, 90180, Note_on_c, 1, 52, 127
1, 90209, Note_off_c, 1, 71, 0
1, 90210, Note_on_c, 1, 70, 127
1, 90239, Note_off_c, 1, 52, 0
1, 90239, Note_off_c, 1, 70, 0
1, 90240, Note_on_c, 1, 71, 127
1, 90240, Note_on_c, 1, 43, 127
1, 90269, Note_off_c, 1, 71, 0
1, 90270, Note_on_c, 1, 79, 127
1, 90299, Note_off_c, 1, 43, 0
1, 90299, Note_off_c, 1, 79, 0
1, 90300, Note_on_c, 1, 78, 127
1, 90300, Note_on_c, 1, 47, 127
1, 90329, Note_off_c, 1, 78, 0
1, 90330, Note_on_c, 1, 75, 127
1, 90359, Note_off_c, 1, 47, 0
1, 90359, Note_off_c, 1, 75, 0
1, 90360, Note_on_c, 1, 76, 127
1, 90360, Note_on_c, 1, 40, 127
1, 90539, Note_off_c, 1, 76, 0
1, 90539, Note_off_c, 1, 40, 0
1, 90720, Note_on_c, 1, 54, 127
1, 90720, Note_on_c, 1, 62, 127
1, 90720, Note_on_c, 1, 66, 127
1, 90780, Note_on_c, 1, 69, 127
1, 90839, Note_off_c, 1, 69, 0
1, 90840, Note_on_c, 1, 74, 127
1, 90899, Note_off_c, 1, 74, 0
1, 90930, Note_on_c, 1, 67, 127
1, 90959, Note_off_c, 1, 67, 0
1, 91410, Note_on_c, 1, 71, 127
1, 91439, Note_off_c, 1, 71, 0
1, 91440, Note_off_c, 1, 62, 0
1, 91440, Note_on_c, 1, 72, 127
1, 91440, Note_on_c, 1, 60, 127
1, 91499, Note_off_c, 1, 72, 0
1, 91560, Note_on_c, 1, 76, 127
1, 91619, Note_off_c, 1, 76, 0
1, 91680, Note_off_c, 1, 54, 0
1, 91680, Note_off_c, 1, 66, 0
1, 91680, Note_off_c, 1, 60, 0
1, 91680, Note_on_c, 1, 53, 127
1, 91680, Note_on_c, 1, 59, 127
1, 91920, Note_off_c, 1, 53, 0
1, 91920, Note_off_c, 1, 59, 0
1, 91920, Note_on_c, 1, 68, 127
1, 91920, Note_on_c, 1, 47, 127
1, 91920, Note_on_c, 1, 65, 127
1, 91980, Note_on_c, 1, 77, 127
1, 92009, Note_off_c, 1, 77, 0
1, 92040, Note_off_c, 1, 68, 0
1, 92040, Note_off_c, 1, 47, 0
1, 92040, Note_off_c, 1, 65, 0
1, 92040, Note_on_c, 1, 48, 127
1, 92040, Note_on_c, 1, 64, 127
1, 92160, Note_off_c, 1, 48, 0
1, 92160, Note_off_c, 1, 64, 0
1, 92220, Note_on_c, 1, 64, 127
1, 92279, Note_off_c, 1, 64, 0
1, 92280, Note_on_c, 1, 52, 127
1, 92280, Note_on_c, 1, 69, 127
1, 92280, Note_on_c, 1, 60, 127
1, 92280, Note_on_c, 1, 64, 127
1, 92340, Note_off_c, 1, 69, 0
1, 92340, Note_off_c, 1, 60, 0
1, 92340, Note_on_c, 1, 68, 127
1, 92340, Note_on_c, 1, 59, 127
1, 92400, Note_off_c, 1, 52, 0
1, 92400, Note_off_c, 1, 68, 0
1, 92400, Note_off_c, 1, 59, 0
1, 92400, Note_on_c, 1, 45, 127
1, 92640, Note_off_c, 1, 64, 0
1, 92640, Note_off_c, 1, 45, 0
1, 93000, Note_on_c, 1, 84, 127
1, 93000, Note_on_c, 1, 72, 127
1, 93000, Note_on_c, 1, 67, 127
1, 93000, Note_on_c, 1, 64, 127
1, 93000, Note_on_c, 1, 48, 127
1, 93119, Note_off_c, 1, 84, 0
1, 93119, Note_off_c, 1, 72, 0
1, 93119, Note_off_c, 1, 67, 0
1, 93119, Note_off_c, 1, 64, 0
1, 93119, Note_off_c, 1, 48, 0
1, 93120, Note_on_c, 1, 83, 127
1, 93120, Note_on_c, 1, 71, 127
1, 93120, Note_on_c, 1, 67, 127
1, 93120, Note_on_c, 1, 62, 127
1, 93120, Note_on_c, 1, 55, 127
1, 93179, Note_off_c, 1, 67, 0
1, 93180, Note_on_c, 1, 65, 127
1, 93239, Note_off_c, 1, 83, 0
1, 93239, Note_off_c, 1, 71, 0
1, 93239, Note_off_c, 1, 55, 0
1, 93239, Note_off_c, 1, 65, 0
1, 93240, Note_on_c, 1, 81, 127
1, 93240, Note_on_c, 1, 69, 127
1, 93240, Note_on_c, 1, 64, 127
1, 93240, Note_on_c, 1, 57, 127
1, 93299, Note_off_c, 1, 62, 0
1, 93300, Note_on_c, 1, 60, 127
1, 93359, Note_off_c, 1, 81, 0
1, 93359, Note_off_c, 1, 69, 0
1, 93359, Note_off_c, 1, 64, 0
1, 93359, Note_off_c, 1, 57, 0
1, 93359, Note_off_c, 1, 60, 0
1, 93360, Note_on_c, 1, 83, 127
1, 93360, Note_on_c, 1, 71, 127
1, 93360, Note_on_c, 1, 66, 127
1, 93360, Note_on_c, 1, 59, 127
1, 93360, Note_on_c, 1, 51, 127
1, 93419, Note_off_c, 1, 83, 0
1, 93419, Note_off_c, 1, 71, 0
1, 93420, Note_on_c, 1, 81, 127
1, 93420, Note_on_c, 1, 69, 127
1, 93479, Note_off_c, 1, 66, 0
1, 93479, Note_off_c, 1, 59, 0
1, 93479, Note_off_c, 1, 51, 0
1, 93479, Note_off_c, 1, 81, 0
1, 93479, Note_off_c, 1, 69, 0
1, 93480, Note_on_c, 1, 79, 127
1, 93480, Note_on_c, 1, 67, 127
1, 93480, Note_on_c, 1, 64, 127
1, 93480, Note_on_c, 1, 60, 127
1, 93480, Note_on_c, 1, 52, 127
1, 93539, Note_off_c, 1, 64, 0
1, 93539, Note_off_c, 1, 60, 0
1, 93540, Note_on_c, 1, 62, 127
1, 93540, Note_on_c, 1, 59, 127
1, 93599, Note_off_c, 1, 79, 0
1, 93599, Note_off_c, 1, 67, 0
1, 93599, Note_off_c, 1, 52, 0
1, 93599, Note_off_c, 1, 62, 0
1, 93599, Note_off_c, 1, 59, 0
1, 93600, Note_on_c, 1, 81, 127
1, 93600, Note_on_c, 1, 69, 127
1, 93600, Note_on_c, 1, 60, 127
1, 93600, Note_on_c, 1, 57, 127
1, 93600, Note_on_c, 1, 53, 127
1, 93659, Note_off_c, 1, 57, 0
1, 93659, Note_off_c, 1, 53, 0
1, 93660, Note_on_c, 1, 55, 127
1, 93660, Note_on_c, 1, 52, 127
1, 93719, Note_off_c, 1, 81, 0
1, 93719, Note_off_c, 1, 69, 0
1, 93719, Note_off_c, 1, 60, 0
1, 93719, Note_off_c, 1, 55, 0
1, 93719, Note_off_c, 1, 52, 0
1, 93720, Note_on_c, 1, 83, 127
1, 93720, Note_on_c, 1, 71, 127
1, 93720, Note_on_c, 1, 62, 127
1, 93720, Note_on_c, 1, 53, 127
1, 93720, Note_on_c, 1, 50, 127
1, 93839, Note_off_c, 1, 83, 0
1, 93839, Note_off_c, 1, 71, 0
1, 93839, Note_off_c, 1, 62, 0
1, 93839, Note_off_c, 1, 53, 0
1, 93839, Note_off_c, 1, 50, 0
1, 93840, Note_on_c, 1, 84, 127
1, 93840, Note_on_c, 1, 72, 127
1, 93840, Note_on_c, 1, 64, 127
1, 93840, Note_on_c, 1, 55, 127
1, 93840, Note_on_c, 1, 48, 127
1, 93929, Note_off_c, 1, 84, 0
1, 93929, Note_off_c, 1, 72, 0
1, 93929, Note_off_c, 1, 64, 0
1, 93929, Note_off_c, 1, 55, 0
1, 93929, Note_off_c, 1, 48, 0
1, 93960, Note_on_c, 1, 84, 127
1, 93960, Note_on_c, 1, 72, 127
1, 93960, Note_on_c, 1, 64, 127
1, 93960, Note_on_c, 1, 57, 127
1, 93960, Note_on_c, 1, 45, 127
1, 94019, Note_off_c, 1, 45, 0
1, 94020, Note_on_c, 1, 47, 127
1, 94079, Note_off_c, 1, 84, 0
1, 94079, Note_off_c, 1, 72, 0
1, 94079, Note_off_c, 1, 64, 0
1, 94079, Note_off_c, 1, 57, 0
1, 94079, Note_off_c, 1, 47, 0
1, 94080, Note_on_c, 1, 84, 127
1, 94080, Note_on_c, 1, 72, 127
1, 94080, Note_on_c, 1, 64, 127
1, 94080, Note_on_c, 1, 57, 127
1, 94080, Note_on_c, 1, 48, 127
1, 94139, Note_off_c, 1, 57, 0
1, 94139, Note_off_c, 1, 48, 0
1, 94140, Note_on_c, 1, 59, 127
1, 94140, Note_on_c, 1, 50, 127
1, 94199, Note_off_c, 1, 84, 0
1, 94199, Note_off_c, 1, 72, 0
1, 94199, Note_off_c, 1, 64, 0
1, 94199, Note_off_c, 1, 59, 0
1, 94199, Note_off_c, 1, 50, 0
1, 94200, Note_on_c, 1, 79, 127
1, 94200, Note_on_c, 1, 67, 127
1, 94200, Note_on_c, 1, 64, 127
1, 94200, Note_on_c, 1, 60, 127
1, 94200, Note_on_c, 1, 52, 127
1, 94259, Note_off_c, 1, 52, 0
1, 94260, Note_on_c, 1, 53, 127
1, 94319, Note_off_c, 1, 79, 0
1, 94319, Note_off_c, 1, 67, 0
1, 94319, Note_off_c, 1, 64, 0
1, 94319, Note_off_c, 1, 60, 0
1, 94319, Note_off_c, 1, 53, 0
1, 94320, Note_on_c, 1, 79, 127
1, 94320, Note_on_c, 1, 67, 127
1, 94320, Note_on_c, 1, 62, 127
1, 94320, Note_on_c, 1, 59, 127
1, 94320, Note_on_c, 1, 55, 127
1, 94379, Note_off_c, 1, 79, 0
1, 94379, Note_off_c, 1, 67, 0
1, 94379, Note_off_c, 1, 59, 0
1, 94379, Note_off_c, 1, 55, 0
1, 94380, Note_on_c, 1, 77, 127
1, 94380, Note_on_c, 1, 65, 127
1, 94380, Note_on_c, 1, 57, 127
1, 94439, Note_off_c, 1, 62, 0
1, 94439, Note_off_c, 1, 77, 0
1, 94439, Note_off_c, 1, 65, 0
1, 94439, Note_off_c, 1, 57, 0
1, 94440, Note_on_c, 1, 76, 127
1, 94440, Note_on_c, 1, 64, 127
1, 94440, Note_on_c, 1, 60, 127
1, 94440, Note_on_c, 1, 55, 127
1, 94440, Note_on_c, 1, 58, 127
1, 94499, Note_off_c, 1, 76, 0
1, 94499, Note_off_c, 1, 64, 0
1, 94499, Note_off_c, 1, 55, 0
1, 94500, Note_on_c, 1, 77, 127
1, 94500, Note_on_c, 1, 65, 127
1, 94500, Note_on_c, 1, 57, 127
1, 94559, Note_off_c, 1, 60, 0
1, 94559, Note_off_c, 1, 58, 0
1, 94559, Note_off_c, 1, 77, 0
1, 94559, Note_off_c, 1, 65, 0
1, 94559, Note_off_c, 1, 57, 0
1, 94560, Note_on_c, 1, 79, 127
1, 94560, Note_on_c, 1, 67, 127
1, 94560, Note_on_c, 1, 60, 127
1, 94560, Note_on_c, 1, 58, 127
1, 94560, Note_on_c, 1, 52, 127
1, 94679, Note_off_c, 1, 79, 0
1, 94679, Note_off_c, 1, 67, 0
1, 94679, Note_off_c, 1, 60, 0
1, 94679, Note_off_c, 1, 52, 0
1, 94680, Note_on_c, 1, 77, 127
1, 94680, Note_on_c, 1, 65, 127
1, 94680, Note_on_c, 1, 53, 127
1, 94739, Note_off_c, 1, 58, 0
1, 94740, Note_on_c, 1, 57, 127
1, 94799, Note_off_c, 1, 77, 0
1, 94799, Note_off_c, 1, 65, 0
1, 94799, Note_off_c, 1, 53, 0
1, 94799, Note_off_c, 1, 57, 0
1, 94800, Note_on_c, 1, 76, 127
1, 94800, Note_on_c, 1, 64, 127
1, 94800, Note_on_c, 1, 60, 127
1, 94800, Note_on_c, 1, 55, 127
1, 94800, Note_on_c, 1, 48, 127
1, 94889, Note_off_c, 1, 76, 0
1, 94889, Note_off_c, 1, 64, 0
1, 94889, Note_off_c, 1, 60, 0
1, 94889, Note_off_c, 1, 55, 0
1, 94889, Note_off_c, 1, 48, 0
1, 94920, Note_on_c, 1, 76, 127
1, 94920, Note_on_c, 1, 64, 127
1, 94920, Note_on_c, 1, 60, 127
1, 94920, Note_on_c, 1, 57, 127
1, 94979, Note_off_c, 1, 57, 0
1, 94980, Note_on_c, 1, 58, 127
1, 94980, Note_on_c, 1, 55, 127
1, 95039, Note_off_c, 1, 76, 0
1, 95039, Note_off_c, 1, 64, 0
1, 95039, Note_off_c, 1, 60, 0
1, 95039, Note_off_c, 1, 58, 0
1, 95039, Note_off_c, 1, 55, 0
1, 95040, Note_on_c, 1, 81, 127
1, 95040, Note_on_c, 1, 69, 127
1, 95040, Note_on_c, 1, 60, 127
1, 95040, Note_on_c, 1, 57, 127
1, 95040, Note_on_c, 1, 53, 127
1, 95099, Note_off_c, 1, 57, 0
1, 95099, Note_off_c, 1, 53, 0
1, 95100, Note_on_c, 1, 55, 127
1, 95100, Note_on_c, 1, 52, 127
1, 95159, Note_off_c, 1, 81, 0
1, 95159, Note_off_c, 1, 69, 0
1, 95159, Note_off_c, 1, 60, 0
1, 95159, Note_off_c, 1, 55, 0
1, 95159, Note_off_c, 1, 52, 0
1, 95160, Note_on_c, 1, 81, 127
1, 95160, Note_on_c, 1, 69, 127
1, 95160, Note_on_c, 1, 65, 127
1, 95160, Note_on_c, 1, 53, 127
1, 95160, Note_on_c, 1, 50, 127
1, 95219, Note_off_c, 1, 65, 0
1, 95219, Note_off_c, 1, 50, 0
1, 95220, Note_on_c, 1, 64, 127
1, 95220, Note_on_c, 1, 48, 127
1, 95279, Note_off_c, 1, 81, 0
1, 95279, Note_off_c, 1, 69, 0
1, 95279, Note_off_c, 1, 53, 0
1, 95279, Note_off_c, 1, 64, 0
1, 95279, Note_off_c, 1, 48, 0
1, 95280, Note_on_c, 1, 79, 127
1, 95280, Note_on_c, 1, 67, 127
1, 95280, Note_on_c, 1, 62, 127
1, 95280, Note_on_c, 1, 55, 127
1, 95280, Note_on_c, 1, 53, 127
1, 95280, Note_on_c, 1, 47, 127
1, 95339, Note_off_c, 1, 79, 0
1, 95339, Note_off_c, 1, 67, 0
1, 95339, Note_off_c, 1, 62, 0
1, 95339, Note_off_c, 1, 47, 0
1, 95340, Note_on_c, 1, 81, 127
1, 95340, Note_on_c, 1, 69, 127
1, 95340, Note_on_c, 1, 60, 127
1, 95340, Note_on_c, 1, 45, 127
1, 95399, Note_off_c, 1, 55, 0
1, 95399, Note_off_c, 1, 53, 0
1, 95399, Note_off_c, 1, 81, 0
1, 95399, Note_off_c, 1, 69, 0
1, 95399, Note_off_c, 1, 60, 0
1, 95399, Note_off_c, 1, 45, 0
1, 95400, Note_on_c, 1, 83, 127
1, 95400, Note_on_c, 1, 71, 127
1, 95400, Note_on_c, 1, 59, 127
1, 95400, Note_on_c, 1, 62, 127
1, 95400, Note_on_c, 1, 55, 127
1, 95400, Note_on_c, 1, 43, 127
1, 95459, Note_off_c, 1, 55, 0
1, 95460, Note_on_c, 1, 53, 127
1, 95519, Note_off_c, 1, 83, 0
1, 95519, Note_off_c, 1, 71, 0
1, 95519, Note_off_c, 1, 59, 0
1, 95519, Note_off_c, 1, 62, 0
1, 95519, Note_off_c, 1, 43, 0
1, 95519, Note_off_c, 1, 53, 0
1, 95520, Note_on_c, 1, 84, 127
1, 95520, Note_on_c, 1, 72, 127
1, 95520, Note_on_c, 1, 57, 127
1, 95520, Note_on_c, 1, 60, 127
1, 95520, Note_on_c, 1, 52, 127
1, 95520, Note_on_c, 1, 45, 127
1, 95579, Note_off_c, 1, 84, 0
1, 95579, Note_off_c, 1, 72, 0
1, 95579, Note_off_c, 1, 57, 0
1, 95579, Note_off_c, 1, 52, 0
1, 95580, Note_on_c, 1, 83, 127
1, 95580, Note_on_c, 1, 71, 127
1, 95580, Note_on_c, 1, 64, 127
1, 95580, Note_on_c, 1, 48, 127
1, 95639, Note_off_c, 1, 60, 0
1, 95639, Note_off_c, 1, 83, 0
1, 95639, Note_off_c, 1, 71, 0
1, 95639, Note_off_c, 1, 64, 0
1, 95639, Note_off_c, 1, 48, 0
1, 95640, Note_on_c, 1, 81, 127
1, 95640, Note_on_c, 1, 69, 127
1, 95640, Note_on_c, 1, 65, 127
1, 95699, Note_off_c, 1, 45, 0
1, 95700, Note_on_c, 1, 47, 127
1, 95759, Note_off_c, 1, 81, 0
1, 95759, Note_off_c, 1, 69, 0
1, 95759, Note_off_c, 1, 65, 0
1, 95759, Note_off_c, 1, 47, 0
1, 95760, Note_on_c, 1, 79, 127
1, 95760, Note_on_c, 1, 67, 127
1, 95760, Note_on_c, 1, 64, 127
1, 95760, Note_on_c, 1, 60, 127
1, 95760, Note_on_c, 1, 48, 127
1, 95849, Note_off_c, 1, 79, 0
1, 95849, Note_off_c, 1, 67, 0
1, 95849, Note_off_c, 1, 64, 0
1, 95849, Note_off_c, 1, 60, 0
1, 95849, Note_off_c, 1, 48, 0
1, 95880, Note_on_c, 1, 84, 127
1, 95880, Note_on_c, 1, 72, 127
1, 95880, Note_on_c, 1, 69, 127
1, 95880, Note_on_c, 1, 64, 127
1, 95880, Note_on_c, 1, 48, 127
1, 95939, Note_off_c, 1, 48, 0
1, 95940, Note_on_c, 1, 50, 127
1, 95999, Note_off_c, 1, 84, 0
1, 95999, Note_off_c, 1, 72, 0
1, 95999, Note_off_c, 1, 69, 0
1, 95999, Note_off_c, 1, 64, 0
1, 95999, Note_off_c, 1, 50, 0
1, 96000, Note_on_c, 1, 83, 127
1, 96000, Note_on_c, 1, 71, 127
1, 96000, Note_on_c, 1, 69, 127
1, 96000, Note_on_c, 1, 64, 127
1, 96000, Note_on_c, 1, 52, 127
1, 96059, Note_off_c, 1, 69, 0
1, 96059, Note_off_c, 1, 64, 0
1, 96060, Note_on_c, 1, 67, 127
1, 96060, Note_on_c, 1, 59, 127
1, 96119, Note_off_c, 1, 83, 0
1, 96119, Note_off_c, 1, 71, 0
1, 96119, Note_off_c, 1, 67, 0
1, 96119, Note_off_c, 1, 59, 0
1, 96120, Note_on_c, 1, 81, 127
1, 96120, Note_on_c, 1, 65, 127
1, 96120, Note_on_c, 1, 60, 127
1, 96179, Note_off_c, 1, 52, 0
1, 96180, Note_on_c, 1, 50, 127
1, 96239, Note_off_c, 1, 81, 0
1, 96239, Note_off_c, 1, 65, 0
1, 96239, Note_off_c, 1, 60, 0
1, 96240, Note_on_c, 1, 79, 127
1, 96300, Note_off_c, 1, 50, 0
1, 96300, Note_on_c, 1, 48, 127
1, 96359, Note_off_c, 1, 79, 0
1, 96360, Note_on_c, 1, 57, 127
1, 96419, Note_off_c, 1, 57, 0
1, 96420, Note_off_c, 1, 48, 0
1, 96420, Note_on_c, 1, 62, 127
1, 96420, Note_on_c, 1, 47, 127
1, 96479, Note_off_c, 1, 62, 0
1, 96479, Note_off_c, 1, 47, 0
1, 96480, Note_on_c, 1, 77, 127
1, 96480, Note_on_c, 1, 65, 127
1, 96480, Note_on_c, 1, 60, 127
1, 96480, Note_on_c, 1, 45, 127
1, 96510, Note_on_c, 1, 47, 127
1, 96539, Note_off_c, 1, 77, 0
1, 96539, Note_off_c, 1, 65, 0
1, 96539, Note_off_c, 1, 45, 0
1, 96539, Note_off_c, 1, 47, 0
1, 96540, Note_on_c, 1, 76, 127
1, 96540, Note_on_c, 1, 64, 127
1, 96540, Note_on_c, 1, 57, 127
1, 96540, Note_on_c, 1, 48, 127
1, 96540, Note_on_c, 1, 43, 127
1, 96569, Note_off_c, 1, 43, 0
1, 96570, Note_on_c, 1, 41, 127
1, 96599, Note_off_c, 1, 76, 0
1, 96599, Note_off_c, 1, 64, 0
1, 96599, Note_off_c, 1, 57, 0
1, 96599, Note_off_c, 1, 48, 0
1, 96599, Note_off_c, 1, 41, 0
1, 96600, Note_on_c, 1, 74, 127
1, 96600, Note_on_c, 1, 62, 127
1, 96600, Note_on_c, 1, 67, 127
1, 96600, Note_on_c, 1, 50, 127
1, 96600, Note_on_c, 1, 55, 127
1, 96659, Note_off_c, 1, 60, 0
1, 96659, Note_off_c, 1, 50, 0
1, 96659, Note_off_c, 1, 55, 0
1, 96660, Note_off_c, 1, 67, 0
1, 96660, Note_on_c, 1, 59, 127
1, 96719, Note_off_c, 1, 74, 0
1, 96719, Note_off_c, 1, 62, 0
1, 96719, Note_off_c, 1, 59, 0
1, 96720, Note_on_c, 1, 72, 127
1, 96720, Note_on_c, 1, 52, 127
1, 96720, Note_on_c, 1, 36, 127
1, 96839, Note_off_c, 1, 72, 0
1, 96839, Note_off_c, 1, 52, 0
1, 96839, Note_off_c, 1, 36, 0
1, 96960, Note_on_c, 1, 76, 127
1, 96960, Note_on_c, 1, 72, 127
1, 96960, Note_on_c, 1, 64, 127
1, 96960, Note_on_c, 1, 57, 127
1, 96960, Note_on_c, 1, 45, 127
1, 96960, Note_on_c, 1, 69, 127
1, 96960, Note_on_c, 1, 60, 127
1, 97020, Note_on_c, 1, 52, 127
1, 97079, Note_off_c, 1, 45, 0
1, 97079, Note_off_c, 1, 69, 0
1, 97079, Note_off_c, 1, 60, 0
1, 97079, Note_off_c, 1, 52, 0
1, 97080, Note_off_c, 1, 76, 0
1, 97080, Note_off_c, 1, 72, 0
1, 97080, Note_off_c, 1, 64, 0
1, 97139, Note_off_c, 1, 57, 0
1, 97140, Note_on_c, 1, 59, 127
1, 97199, Note_off_c, 1, 59, 0
1, 97200, Note_on_c, 1, 81, 127
1, 97200, Note_on_c, 1, 76, 127
1, 97200, Note_on_c, 1, 60, 127
1, 97200, Note_on_c, 1, 57, 127
1, 97200, Note_on_c, 1, 64, 127
1, 97230, Note_on_c, 1, 45, 127
1, 97259, Note_off_c, 1, 45, 0
1, 97260, Note_on_c, 1, 48, 127
1, 97289, Note_off_c, 1, 48, 0
1, 97290, Note_on_c, 1, 52, 127
1, 97319, Note_off_c, 1, 52, 0
1, 97320, Note_off_c, 1, 81, 0
1, 97320, Note_off_c, 1, 76, 0
1, 97320, Note_on_c, 1, 69, 127
1, 97379, Note_off_c, 1, 60, 0
1, 97379, Note_off_c, 1, 57, 0
1, 97379, Note_off_c, 1, 64, 0
1, 97379, Note_off_c, 1, 69, 0
1, 97380, Note_on_c, 1, 57, 127
1, 97439, Note_off_c, 1, 57, 0
1, 97440, Note_on_c, 1, 74, 127
1, 97440, Note_on_c, 1, 69, 127
1, 97440, Note_on_c, 1, 65, 127
1, 97440, Note_on_c, 1, 57, 127
1, 97440, Note_on_c, 1, 55, 127
1, 97440, Note_on_c, 1, 62, 127
1, 97470, Note_on_c, 1, 45, 127
1, 97499, Note_off_c, 1, 55, 0
1, 97499, Note_off_c, 1, 45, 0
1, 97500, Note_on_c, 1, 53, 127
1, 97500, Note_on_c, 1, 50, 127
1, 97529, Note_off_c, 1, 50, 0
1, 97559, Note_off_c, 1, 53, 0
1, 97560, Note_off_c, 1, 74, 0
1, 97619, Note_off_c, 1, 69, 0
1, 97619, Note_off_c, 1, 65, 0
1, 97619, Note_off_c, 1, 57, 0
1, 97619, Note_off_c, 1, 62, 0
1, 97620, Note_on_c, 1, 50, 127
1, 97679, Note_off_c, 1, 50, 0
1, 97680, Note_on_c, 1, 71, 127
1, 97680, Note_on_c, 1, 68, 127
1, 97680, Note_on_c, 1, 62, 127
1, 97680, Note_on_c, 1, 65, 127
1, 97680, Note_on_c, 1, 59, 127
1, 97710, Note_on_c, 1, 45, 127
1, 97739, Note_off_c, 1, 45, 0
1, 97740, Note_on_c, 1, 50, 127
1, 97769, Note_off_c, 1, 50, 0
1, 97770, Note_on_c, 1, 53, 127
1, 97799, Note_off_c, 1, 53, 0
1, 97800, Note_off_c, 1, 71, 0
1, 97800, Note_off_c, 1, 65, 0
1, 97800, Note_on_c, 1, 56, 127
1, 97859, Note_off_c, 1, 68, 0
1, 97859, Note_off_c, 1, 62, 0
1, 97859, Note_off_c, 1, 59, 0
1, 97859, Note_off_c, 1, 56, 0
1, 97860, Note_on_c, 1, 59, 127
1, 97919, Note_off_c, 1, 59, 0
1, 97920, Note_on_c, 1, 69, 127
1, 97920, Note_on_c, 1, 64, 127
1, 97920, Note_on_c, 1, 57, 127
1, 97920, Note_on_c, 1, 60, 127
1, 97950, Note_on_c, 1, 45, 127
1, 97979, Note_off_c, 1, 45, 0
1, 97980, Note_on_c, 1, 48, 127
1, 98009, Note_off_c, 1, 48, 0
1, 98010, Note_on_c, 1, 52, 127
1, 98039, Note_off_c, 1, 52, 0
1, 98099, Note_off_c, 1, 69, 0
1, 98099, Note_off_c, 1, 64, 0
1, 98099, Note_off_c, 1, 57, 0
1, 98099, Note_off_c, 1, 60, 0
1, 98100, Note_on_c, 1, 64, 127
1, 98129, Note_off_c, 1, 64, 0
1, 98130, Note_on_c, 1, 60, 127
1, 98159, Note_off_c, 1, 60, 0
1, 98160, Note_on_c, 1, 72, 127
1, 98160, Note_on_c, 1, 69, 127
1, 98160, Note_on_c, 1, 57, 127
1, 98160, Note_on_c, 1, 66, 127
1, 98160, Note_on_c, 1, 60, 127
1, 98190, Note_on_c, 1, 45, 127
1, 98219, Note_off_c, 1, 45, 0
1, 98220, Note_on_c, 1, 48, 127
1, 98249, Note_off_c, 1, 48, 0
1, 98250, Note_on_c, 1, 54, 127
1, 98279, Note_off_c, 1, 54, 0
1, 98280, Note_off_c, 1, 72, 0
1, 98280, Note_on_c, 1, 59, 127
1, 98339, Note_off_c, 1, 69, 0
1, 98339, Note_off_c, 1, 57, 0
1, 98339, Note_off_c, 1, 66, 0
1, 98339, Note_off_c, 1, 60, 0
1, 98339, Note_off_c, 1, 59, 0
1, 98340, Note_on_c, 1, 60, 127
1, 98399, Note_off_c, 1, 60, 0
1, 98400, Note_on_c, 1, 79, 127
1, 98400, Note_on_c, 1, 67, 127
1, 98400, Note_on_c, 1, 62, 127
1, 98400, Note_on_c, 1, 59, 127
1, 98430, Note_on_c, 1, 47, 127
1, 98459, Note_off_c, 1, 47, 0
1, 98460, Note_on_c, 1, 50, 127
1, 98489, Note_off_c, 1, 50, 0
1, 98490, Note_on_c, 1, 55, 127
1, 98519, Note_off_c, 1, 55, 0
1, 98520, Note_off_c, 1, 79, 0
1, 98520, Note_on_c, 1, 71, 127
1, 98579, Note_off_c, 1, 67, 0
1, 98579, Note_off_c, 1, 62, 0
1, 98579, Note_off_c, 1, 59, 0
1, 98579, Note_off_c, 1, 71, 0
1, 98580, Note_on_c, 1, 52, 127
1, 98639, Note_off_c, 1, 52, 0
1, 98640, Note_on_c, 1, 71, 127
1, 98640, Note_on_c, 1, 67, 127
1, 98640, Note_on_c, 1, 55, 127
1, 98640, Note_on_c, 1, 62, 127
1, 98640, Note_on_c, 1, 53, 127
1, 98670, Note_on_c, 1, 43, 127
1, 98699, Note_off_c, 1, 53, 0
1, 98699, Note_off_c, 1, 43, 0
1, 98700, Note_on_c, 1, 47, 127
1, 98729, Note_off_c, 1, 47, 0
1, 98730, Note_on_c, 1, 50, 127
1, 98759, Note_off_c, 1, 50, 0
1, 98760, Note_off_c, 1, 62, 0
1, 98760, Note_on_c, 1, 57, 127
1, 98760, Note_on_c, 1, 65, 127
1, 98819, Note_off_c, 1, 71, 0
1, 98819, Note_off_c, 1, 67, 0
1, 98819, Note_off_c, 1, 55, 0
1, 98819, Note_off_c, 1, 57, 0
1, 98819, Note_off_c, 1, 65, 0
1, 98820, Note_on_c, 1, 55, 127
1, 98879, Note_off_c, 1, 55, 0
1, 98880, Note_on_c, 1, 72, 127
1, 98880, Note_on_c, 1, 67, 127
1, 98880, Note_on_c, 1, 60, 127
1, 98880, Note_on_c, 1, 64, 127
1, 98880, Note_on_c, 1, 52, 127
1, 98880, Note_on_c, 1, 48, 127
1, 98920, Note_on_c, 1, 55, 127
1, 98939, Note_off_c, 1, 60, 0
1, 98939, Note_off_c, 1, 52, 0
1, 98939, Note_off_c, 1, 55, 0
1, 99120, Note_on_c, 1, 76, 127
1, 99179, Note_off_c, 1, 76, 0
1, 99360, Note_off_c, 1, 72, 0
1, 99360, Note_on_c, 1, 79, 127
1, 99360, Note_on_c, 1, 58, 127
1, 99360, Note_on_c, 1, 70, 127
1, 99419, Note_off_c, 1, 79, 0
1, 99419, Note_off_c, 1, 58, 0
1, 99450, Note_on_c, 1, 53, 127
1, 99479, Note_off_c, 1, 53, 0
1, 99720, Note_on_c, 1, 57, 127
1, 99749, Note_off_c, 1, 57, 0
1, 99840, Note_off_c, 1, 48, 0
1, 99840, Note_off_c, 1, 70, 0
1, 99840, Note_on_c, 1, 69, 127
1, 99840, Note_on_c, 1, 49, 127
1, 100260, Note_on_c, 1, 54, 127
1, 100319, Note_off_c, 1, 54, 0
1, 100320, Note_off_c, 1, 67, 0
1, 100320, Note_off_c, 1, 64, 0
1, 100320, Note_off_c, 1, 49, 0
1, 100320, Note_on_c, 1, 78, 127
1, 100320, Note_on_c, 1, 74, 127
1, 100320, Note_on_c, 1, 62, 127
1, 100320, Note_on_c, 1, 50, 127
1, 100320, Note_on_c, 1, 66, 127
1, 100379, Note_off_c, 1, 78, 0
1, 100379, Note_off_c, 1, 74, 0
1, 100439, Note_off_c, 1, 50, 0
1, 100560, Note_off_c, 1, 69, 0
1, 100560, Note_off_c, 1, 66, 0
1, 100560, Note_on_c, 1, 59, 127
1, 100560, Note_on_c, 1, 47, 127
1, 100680, Note_off_c, 1, 62, 0
1, 100680, Note_off_c, 1, 59, 0
1, 100680, Note_off_c, 1, 47, 0
1, 100800, Note_on_c, 1, 71, 127
1, 100920, Note_off_c, 1, 71, 0
1, 100980, Note_on_c, 1, 38, 127
1, 101040, Note_off_c, 1, 38, 0
1, 101040, Note_on_c, 1, 43, 127
1, 101279, Note_off_c, 1, 43, 0
1, 101520, Note_on_c, 1, 71, 127
1, 101520, Note_on_c, 1, 62, 127
1, 101520, Note_on_c, 1, 55, 127
1, 101520, Note_on_c, 1, 43, 127
1, 101579, Note_off_c, 1, 43, 0
1, 101609, Note_off_c, 1, 71, 0
1, 101609, Note_off_c, 1, 62, 0
1, 101610, Note_on_c, 1, 72, 127
1, 101610, Note_on_c, 1, 64, 127
1, 101624, Note_off_c, 1, 72, 0
1, 101624, Note_off_c, 1, 64, 0
1, 101625, Note_on_c, 1, 74, 127
1, 101625, Note_on_c, 1, 65, 127
1, 101639, Note_off_c, 1, 74, 0
1, 101639, Note_off_c, 1, 65, 0
1, 101700, Note_on_c, 1, 69, 127
1, 101700, Note_on_c, 1, 60, 127
1, 101729, Note_off_c, 1, 69, 0
1, 101729, Note_off_c, 1, 60, 0
1, 101730, Note_on_c, 1, 67, 127
1, 101730, Note_on_c, 1, 59, 127
1, 101759, Note_off_c, 1, 67, 0
1, 101759, Note_off_c, 1, 59, 0
1, 101820, Note_on_c, 1, 66, 127
1, 101820, Note_on_c, 1, 57, 127
1, 101879, Note_off_c, 1, 66, 0
1, 101879, Note_off_c, 1, 57, 0
1, 102480, Note_off_c, 1, 55, 0
1, 102720, Note_on_c, 1, 76, 127
1, 102779, Note_off_c, 1, 76, 0
1, 103200, Note_on_c, 1, 72, 127
1, 103200, Note_on_c, 1, 67, 127
1, 103200, Note_on_c, 1, 62, 127
1, 103200, Note_on_c, 1, 43, 127
1, 103229, Note_off_c, 1, 72, 0
1, 103230, Note_on_c, 1, 71, 127
1, 103259, Note_off_c, 1, 67, 0
1, 103259, Note_off_c, 1, 62, 0
1, 103259, Note_off_c, 1, 43, 0
1, 103259, Note_off_c, 1, 71, 0
1, 103260, Note_on_c, 1, 69, 127
1, 103260, Note_on_c, 1, 66, 127
1, 103260, Note_on_c, 1, 60, 127
1, 103260, Note_on_c, 1, 55, 127
1, 103289, Note_off_c, 1, 69, 0
1, 103290, Note_on_c, 1, 72, 127
1, 103319, Note_off_c, 1, 66, 0
1, 103319, Note_off_c, 1, 60, 0
1, 103319, Note_off_c, 1, 55, 0
1, 103319, Note_off_c, 1, 72, 0
1, 103320, Note_on_c, 1, 71, 127
1, 103320, Note_on_c, 1, 67, 127
1, 103320, Note_on_c, 1, 62, 127
1, 103320, Note_on_c, 1, 55, 127
1, 103379, Note_off_c, 1, 55, 0
1, 103380, Note_on_c, 1, 43, 127
1, 103439, Note_off_c, 1, 71, 0
1, 103439, Note_off_c, 1, 67, 0
1, 103439, Note_off_c, 1, 62, 0
1, 103439, Note_off_c, 1, 43, 0
1, 103440, Note_on_c, 1, 62, 127
1, 103440, Note_on_c, 1, 59, 127
1, 103440, Note_on_c, 1, 43, 127
1, 103499, Note_off_c, 1, 62, 0
1, 103499, Note_off_c, 1, 59, 0
1, 103500, Note_on_c, 1, 64, 127
1, 103500, Note_on_c, 1, 60, 127
1, 103500, Note_on_c, 1, 55, 127
1, 103559, Note_off_c, 1, 64, 0
1, 103559, Note_off_c, 1, 60, 0
1, 103559, Note_off_c, 1, 55, 0
1, 103620, Note_on_c, 1, 66, 127
1, 103620, Note_on_c, 1, 57, 127
1, 103679, Note_off_c, 1, 66, 0
1, 103679, Note_off_c, 1, 57, 0
1, 103740, Note_on_c, 1, 67, 127
1, 103769, Note_off_c, 1, 67, 0
1, 104100, Note_on_c, 1, 65, 127
1, 104159, Note_off_c, 1, 65, 0
1, 104220, Note_off_c, 1, 43, 0
1, 104220, Note_on_c, 1, 45, 127
1, 104279, Note_off_c, 1, 45, 0
1, 104280, Note_on_c, 1, 47, 127
1, 104339, Note_off_c, 1, 47, 0
1, 104400, Note_on_c, 1, 64, 127
1, 104400, Note_on_c, 1, 60, 127
1, 104400, Note_on_c, 1, 55, 127
1, 104400, Note_on_c, 1, 48, 127
1, 104429, Note_off_c, 1, 60, 0
1, 104459, Note_off_c, 1, 64, 0
1, 104459, Note_off_c, 1, 55, 0
1, 104459, Note_off_c, 1, 48, 0
1, 104460, Note_on_c, 1, 69, 127
1, 104519, Note_off_c, 1, 69, 0
1, 104520, Note_on_c, 1, 69, 127
1, 104520, Note_on_c, 1, 64, 127
1, 104520, Note_on_c, 1, 60, 127
1, 104520, Note_on_c, 1, 45, 127
1, 104549, Note_off_c, 1, 64, 0
1, 104579, Note_off_c, 1, 69, 0
1, 104579, Note_off_c, 1, 60, 0
1, 104579, Note_off_c, 1, 45, 0
1, 104580, Note_on_c, 1, 72, 127
1, 104639, Note_off_c, 1, 72, 0
1, 104640, Note_on_c, 1, 72, 127
1, 104640, Note_on_c, 1, 66, 127
1, 104640, Note_on_c, 1, 57, 127
1, 104640, Note_on_c, 1, 50, 127
1, 104669, Note_off_c, 1, 66, 0
1, 104699, Note_off_c, 1, 72, 0
1, 104699, Note_off_c, 1, 57, 0
1, 104699, Note_off_c, 1, 50, 0
1, 104700, Note_on_c, 1, 74, 127
1, 104729, Note_off_c, 1, 74, 0
1, 104730, Note_on_c, 1, 76, 127
1, 104759, Note_off_c, 1, 76, 0
1, 104760, Note_on_c, 1, 74, 127
1, 104760, Note_on_c, 1, 66, 127
1, 104760, Note_on_c, 1, 59, 127
1, 104760, Note_on_c, 1, 47, 127
1, 104789, Note_off_c, 1, 74, 0
1, 104789, Note_off_c, 1, 66, 0
1, 104790, Note_on_c, 1, 72, 127
1, 104819, Note_off_c, 1, 59, 0
1, 104819, Note_off_c, 1, 47, 0
1, 104819, Note_off_c, 1, 72, 0
1, 104820, Note_on_c, 1, 71, 127
1, 104849, Note_off_c, 1, 71, 0
1, 104850, Note_on_c, 1, 69, 127
1, 104879, Note_off_c, 1, 69, 0
1, 104880, Note_on_c, 1, 67, 127
1, 104880, Note_on_c, 1, 64, 127
1, 104880, Note_on_c, 1, 59, 127
1, 104880, Note_on_c, 1, 52, 127
1, 104909, Note_off_c, 1, 67, 0
1, 104910, Note_on_c, 1, 66, 127
1, 104939, Note_off_c, 1, 64, 0
1, 104939, Note_off_c, 1, 59, 0
1, 104939, Note_off_c, 1, 52, 0
1, 104939, Note_off_c, 1, 66, 0
1, 104940, Note_on_c, 1, 67, 127
1, 104940, Note_on_c, 1, 64, 127
1, 104940, Note_on_c, 1, 48, 127
1, 104970, Note_on_c, 1, 72, 127
1, 104999, Note_off_c, 1, 67, 0
1, 104999, Note_off_c, 1, 64, 0
1, 104999, Note_off_c, 1, 48, 0
1, 104999, Note_off_c, 1, 72, 0
1, 105000, Note_on_c, 1, 69, 127
1, 105000, Note_on_c, 1, 67, 127
1, 105000, Note_on_c, 1, 62, 127
1, 105000, Note_on_c, 1, 50, 127
1, 105059, Note_off_c, 1, 67, 0
1, 105059, Note_off_c, 1, 62, 0
1, 105059, Note_off_c, 1, 50, 0
1, 105060, Note_on_c, 1, 66, 127
1, 105060, Note_on_c, 1, 60, 127
1, 105060, Note_on_c, 1, 38, 127
1, 105089, Note_off_c, 1, 69, 0
1, 105119, Note_off_c, 1, 66, 0
1, 105119, Note_off_c, 1, 60, 0
1, 105119, Note_off_c, 1, 38, 0
1, 105120, Note_on_c, 1, 67, 127
1, 105120, Note_on_c, 1, 59, 127
1, 105120, Note_on_c, 1, 40, 127
1, 105179, Note_off_c, 1, 67, 0
1, 105179, Note_off_c, 1, 59, 0
1, 105179, Note_off_c, 1, 40, 0
1, 105180, Note_on_c, 1, 73, 127
1, 105240, Note_on_c, 1, 67, 127
1, 105240, Note_on_c, 1, 57, 127
1, 105240, Note_on_c, 1, 45, 127
1, 105269, Note_off_c, 1, 67, 0
1, 105299, Note_off_c, 1, 73, 0
1, 105299, Note_off_c, 1, 57, 0
1, 105299, Note_off_c, 1, 45, 0
1, 105300, Note_on_c, 1, 74, 127
1, 105329, Note_off_c, 1, 74, 0
1, 105330, Note_on_c, 1, 76, 127
1, 105359, Note_off_c, 1, 76, 0
1, 105360, Note_on_c, 1, 74, 127
1, 105360, Note_on_c, 1, 66, 127
1, 105360, Note_on_c, 1, 57, 127
1, 105360, Note_on_c, 1, 38, 127
1, 105389, Note_off_c, 1, 66, 0
1, 105419, Note_off_c, 1, 74, 0
1, 105419, Note_off_c, 1, 57, 0
1, 105419, Note_off_c, 1, 38, 0
1, 105420, Note_on_c, 1, 67, 127
1, 105420, Note_on_c, 1, 59, 127
1, 105479, Note_off_c, 1, 67, 0
1, 105479, Note_off_c, 1, 59, 0
1, 105480, Note_on_c, 1, 66, 127
1, 105480, Note_on_c, 1, 57, 127
1, 105509, Note_off_c, 1, 57, 0
1, 105510, Note_on_c, 1, 55, 127
1, 105539, Note_off_c, 1, 66, 0
1, 105539, Note_off_c, 1, 55, 0
1, 105540, Note_on_c, 1, 69, 127
1, 105540, Note_on_c, 1, 54, 127
1, 105569, Note_off_c, 1, 54, 0
1, 105570, Note_on_c, 1, 52, 127
1, 105599, Note_off_c, 1, 69, 0
1, 105599, Note_off_c, 1, 52, 0
1, 105600, Note_on_c, 1, 72, 127
1, 105600, Note_on_c, 1, 66, 127
1, 105600, Note_on_c, 1, 57, 127
1, 105600, Note_on_c, 1, 50, 127
1, 105629, Note_off_c, 1, 66, 0
1, 105659, Note_off_c, 1, 72, 0
1, 105659, Note_off_c, 1, 57, 0
1, 105659, Note_off_c, 1, 50, 0
1, 105660, Note_on_c, 1, 78, 127
1, 105720, Note_on_c, 1, 69, 127
1, 105720, Note_on_c, 1, 62, 127
1, 105720, Note_on_c, 1, 48, 127
1, 105749, Note_off_c, 1, 69, 0
1, 105779, Note_off_c, 1, 78, 0
1, 105779, Note_off_c, 1, 62, 0
1, 105779, Note_off_c, 1, 48, 0
1, 105780, Note_on_c, 1, 79, 127
1, 105809, Note_off_c, 1, 79, 0
1, 105810, Note_on_c, 1, 81, 127
1, 105839, Note_off_c, 1, 81, 0
1, 105840, Note_on_c, 1, 79, 127
1, 105840, Note_on_c, 1, 74, 127
1, 105840, Note_on_c, 1, 55, 127
1, 105840, Note_on_c, 1, 47, 127
1, 105869, Note_off_c, 1, 74, 0
1, 105899, Note_off_c, 1, 79, 0
1, 105899, Note_off_c, 1, 55, 0
1, 105899, Note_off_c, 1, 47, 0
1, 105900, Note_on_c, 1, 72, 127
1, 105900, Note_on_c, 1, 52, 127
1, 105959, Note_off_c, 1, 72, 0
1, 105959, Note_off_c, 1, 52, 0
1, 105960, Note_on_c, 1, 71, 127
1, 105960, Note_on_c, 1, 50, 127
1, 105989, Note_off_c, 1, 50, 0
1, 105990, Note_on_c, 1, 48, 127
1, 106019, Note_off_c, 1, 71, 0
1, 106019, Note_off_c, 1, 48, 0
1, 106020, Note_on_c, 1, 74, 127
1, 106020, Note_on_c, 1, 47, 127
1, 106049, Note_off_c, 1, 47, 0
1, 106050, Note_on_c, 1, 45, 127
1, 106079, Note_off_c, 1, 74, 0
1, 106079, Note_off_c, 1, 45, 0
1, 106080, Note_on_c, 1, 77, 127
1, 106080, Note_on_c, 1, 71, 127
1, 106080, Note_on_c, 1, 62, 127
1, 106080, Note_on_c, 1, 44, 127
1, 106139, Note_off_c, 1, 77, 0
1, 106139, Note_off_c, 1, 62, 0
1, 106139, Note_off_c, 1, 44, 0
1, 106140, Note_on_c, 1, 76, 127
1, 106140, Note_on_c, 1, 56, 127
1, 106199, Note_off_c, 1, 56, 0
1, 106200, Note_on_c, 1, 64, 127
1, 106259, Note_off_c, 1, 76, 0
1, 106259, Note_off_c, 1, 64, 0
1, 106260, Note_on_c, 1, 74, 127
1, 106320, Note_on_c, 1, 45, 127
1, 106379, Note_off_c, 1, 74, 0
1, 106379, Note_off_c, 1, 45, 0
1, 106380, Note_off_c, 1, 71, 0
1, 106380, Note_on_c, 1, 72, 127
1, 106380, Note_on_c, 1, 69, 127
1, 106380, Note_on_c, 1, 57, 127
1, 106409, Note_off_c, 1, 69, 0
1, 106410, Note_on_c, 1, 68, 127
1, 106439, Note_off_c, 1, 57, 0
1, 106439, Note_off_c, 1, 68, 0
1, 106499, Note_off_c, 1, 72, 0
1, 106500, Note_on_c, 1, 70, 127
1, 106500, Note_on_c, 1, 67, 127
1, 106500, Note_on_c, 1, 52, 127
1, 106559, Note_off_c, 1, 67, 0
1, 106559, Note_off_c, 1, 52, 0
1, 106560, Note_on_c, 1, 64, 127
1, 106560, Note_on_c, 1, 55, 127
1, 106560, Note_on_c, 1, 49, 127
1, 106619, Note_off_c, 1, 70, 0
1, 106619, Note_off_c, 1, 55, 0
1, 106619, Note_off_c, 1, 49, 0
1, 106620, Note_on_c, 1, 69, 127
1, 106620, Note_on_c, 1, 61, 127
1, 106679, Note_off_c, 1, 61, 0
1, 106680, Note_on_c, 1, 57, 127
1, 106739, Note_off_c, 1, 69, 0
1, 106739, Note_off_c, 1, 57, 0
1, 106800, Note_on_c, 1, 50, 127
1, 106859, Note_off_c, 1, 50, 0
1, 106860, Note_off_c, 1, 64, 0
1, 106860, Note_on_c, 1, 66, 127
1, 106860, Note_on_c, 1, 62, 127
1, 106919, Note_off_c, 1, 62, 0
1, 106979, Note_off_c, 1, 66, 0
1, 106980, Note_on_c, 1, 63, 127
1, 106980, Note_on_c, 1, 60, 127
1, 106980, Note_on_c, 1, 57, 127
1, 107039, Note_off_c, 1, 60, 0
1, 107039, Note_off_c, 1, 57, 0
1, 107040, Note_on_c, 1, 54, 127
1, 107099, Note_off_c, 1, 63, 0
1, 107099, Note_off_c, 1, 54, 0
1, 107100, Note_on_c, 1, 62, 127
1, 107100, Note_on_c, 1, 42, 127
1, 107159, Note_off_c, 1, 42, 0
1, 107160, Note_on_c, 1, 69, 127
1, 107219, Note_off_c, 1, 62, 0
1, 107280, Note_on_c, 1, 55, 127
1, 107339, Note_off_c, 1, 69, 0
1, 107339, Note_off_c, 1, 55, 0
1, 107340, Note_on_c, 1, 59, 127
1, 107340, Note_on_c, 1, 67, 127
1, 107340, Note_on_c, 1, 43, 127
1, 107369, Note_off_c, 1, 67, 0
1, 107370, Note_on_c, 1, 66, 127
1, 107399, Note_off_c, 1, 43, 0
1, 107399, Note_off_c, 1, 66, 0
1, 107459, Note_off_c, 1, 59, 0
1, 107460, Note_on_c, 1, 60, 127
1, 107460, Note_on_c, 1, 67, 127
1, 107460, Note_on_c, 1, 64, 127
1, 107460, Note_on_c, 1, 52, 127
1, 107519, Note_off_c, 1, 60, 0
1, 107519, Note_off_c, 1, 64, 0
1, 107519, Note_off_c, 1, 52, 0
1, 107520, Note_on_c, 1, 62, 127
1, 107520, Note_on_c, 1, 47, 127
1, 107579, Note_off_c, 1, 67, 0
1, 107579, Note_off_c, 1, 62, 0
1, 107579, Note_off_c, 1, 47, 0
1, 107580, Note_on_c, 1, 64, 127
1, 107580, Note_on_c, 1, 67, 127
1, 107580, Note_on_c, 1, 60, 127
1, 107580, Note_on_c, 1, 48, 127
1, 107609, Note_off_c, 1, 64, 0
1, 107609, Note_off_c, 1, 60, 0
1, 107610, Note_on_c, 1, 62, 127
1, 107610, Note_on_c, 1, 59, 127
1, 107639, Note_off_c, 1, 48, 0
1, 107639, Note_off_c, 1, 62, 0
1, 107639, Note_off_c, 1, 59, 0
1, 107640, Note_on_c, 1, 57, 127
1, 107640, Note_on_c, 1, 50, 127
1, 107699, Note_off_c, 1, 67, 0
1, 107699, Note_off_c, 1, 57, 0
1, 107699, Note_off_c, 1, 50, 0
1, 107700, Note_on_c, 1, 57, 127
1, 107700, Note_on_c, 1, 66, 127
1, 107700, Note_on_c, 1, 62, 127
1, 107700, Note_on_c, 1, 48, 127
1, 107729, Note_off_c, 1, 57, 0
1, 107730, Note_on_c, 1, 69, 127
1, 107759, Note_off_c, 1, 66, 0
1, 107759, Note_off_c, 1, 48, 0
1, 107759, Note_off_c, 1, 69, 0
1, 107760, Note_on_c, 1, 67, 127
1, 107760, Note_on_c, 1, 47, 127
1, 107819, Note_off_c, 1, 62, 0
1, 107819, Note_off_c, 1, 47, 0
1, 107820, Note_on_c, 1, 64, 127
1, 107820, Note_on_c, 1, 60, 127
1, 107849, Note_off_c, 1, 64, 0
1, 107849, Note_off_c, 1, 60, 0
1, 107850, Note_on_c, 1, 59, 127
1, 107879, Note_off_c, 1, 67, 0
1, 107879, Note_off_c, 1, 59, 0
1, 107880, Note_on_c, 1, 72, 127
1, 107880, Note_on_c, 1, 66, 127
1, 107880, Note_on_c, 1, 57, 127
1, 107880, Note_on_c, 1, 50, 127
1, 107909, Note_off_c, 1, 72, 0
1, 107909, Note_off_c, 1, 66, 0
1, 107910, Note_on_c, 1, 64, 127
1, 107939, Note_off_c, 1, 57, 0
1, 107939, Note_off_c, 1, 50, 0
1, 107939, Note_off_c, 1, 64, 0
1, 107940, Note_on_c, 1, 71, 127
1, 107940, Note_on_c, 1, 62, 127
1, 107940, Note_on_c, 1, 66, 127
1, 107940, Note_on_c, 1, 38, 127
1, 107969, Note_off_c, 1, 71, 0
1, 107969, Note_off_c, 1, 62, 0
1, 107970, Note_on_c, 1, 60, 127
1, 107999, Note_off_c, 1, 66, 0
1, 107999, Note_off_c, 1, 38, 0
1, 107999, Note_off_c, 1, 60, 0
1, 108000, Note_on_c, 1, 69, 127
1, 108000, Note_on_c, 1, 60, 127
1, 108000, Note_on_c, 1, 62, 127
1, 108000, Note_on_c, 1, 43, 127
1, 108059, Note_off_c, 1, 69, 0
1, 108060, Note_on_c, 1, 67, 127
1, 108119, Note_off_c, 1, 60, 0
1, 108119, Note_off_c, 1, 62, 0
1, 108119, Note_off_c, 1, 43, 0
1, 108119, Note_off_c, 1, 67, 0
1, 108120, Note_on_c, 1, 79, 127
1, 108120, Note_on_c, 1, 67, 127
1, 108240, Note_on_c, 1, 71, 127
1, 108240, Note_on_c, 1, 62, 127
1, 108240, Note_on_c, 1, 55, 127
1, 108240, Note_on_c, 1, 43, 127
1, 108299, Note_off_c, 1, 43, 0
1, 108329, Note_off_c, 1, 71, 0
1, 108329, Note_off_c, 1, 62, 0
1, 108330, Note_on_c, 1, 72, 127
1, 108330, Note_on_c, 1, 64, 127
1, 108344, Note_off_c, 1, 72, 0
1, 108344, Note_off_c, 1, 64, 0
1, 108345, Note_on_c, 1, 74, 127
1, 108345, Note_on_c, 1, 65, 127
1, 108359, Note_off_c, 1, 74, 0
1, 108359, Note_off_c, 1, 65, 0
1, 108420, Note_on_c, 1, 69, 127
1, 108420, Note_on_c, 1, 60, 127
1, 108449, Note_off_c, 1, 69, 0
1, 108449, Note_off_c, 1, 60, 0
1, 108450, Note_on_c, 1, 59, 127
1, 108479, Note_off_c, 1, 59, 0
1, 108540, Note_on_c, 1, 66, 127
1, 108540, Note_on_c, 1, 57, 127
1, 108599, Note_off_c, 1, 55, 0
1, 108599, Note_off_c, 1, 66, 0
1, 108599, Note_off_c, 1, 57, 0
1, 109020, Note_off_c, 1, 79, 0
1, 109020, Note_off_c, 1, 67, 0
1, 109020, Note_on_c, 1, 77, 127
1, 109080, Note_on_c, 1, 47, 127
1, 109139, Note_off_c, 1, 47, 0
1, 109140, Note_off_c, 1, 77, 0
1, 109140, Note_on_c, 1, 76, 127
1, 109200, Note_on_c, 1, 48, 127
1, 109259, Note_off_c, 1, 48, 0
1, 109320, Note_on_c, 1, 45, 127
1, 109379, Note_off_c, 1, 45, 0
1, 109440, Note_on_c, 1, 56, 127
1, 109440, Note_on_c, 1, 52, 127
1, 109499, Note_off_c, 1, 56, 0
1, 109499, Note_off_c, 1, 52, 0
1, 109500, Note_on_c, 1, 68, 127
1, 109500, Note_on_c, 1, 50, 127
1, 109559, Note_off_c, 1, 68, 0
1, 109559, Note_off_c, 1, 50, 0
1, 110039, Note_off_c, 1, 76, 0
1, 110040, Note_on_c, 1, 42, 127
1, 110099, Note_off_c, 1, 42, 0
1, 110160, Note_on_c, 1, 38, 127
1, 110219, Note_off_c, 1, 38, 0
1, 111300, Note_on_c, 1, 78, 127
1, 111359, Note_off_c, 1, 78, 0
1, 112080, Note_on_c, 1, 83, 127
1, 112169, Note_off_c, 1, 83, 0
1, 112170, Note_on_c, 1, 84, 127
1, 112184, Note_off_c, 1, 84, 0
1, 112185, Note_on_c, 1, 86, 127
1, 112199, Note_off_c, 1, 86, 0
1, 112260, Note_on_c, 1, 81, 127
1, 112289, Note_off_c, 1, 81, 0
1, 112665, Note_on_c, 1, 88, 127
1, 112679, Note_off_c, 1, 88, 0
1, 112800, Note_on_c, 1, 79, 127
1, 112800, Note_on_c, 1, 66, 127
1, 112800, Note_on_c, 1, 60, 127
1, 112800, Note_on_c, 1, 57, 127
1, 112800, Note_on_c, 1, 67, 127
1, 112800, Note_on_c, 1, 43, 127
1, 112859, Note_off_c, 1, 79, 0
1, 112859, Note_off_c, 1, 67, 0
1, 112859, Note_off_c, 1, 43, 0
1, 112860, Note_on_c, 1, 78, 127
1, 112860, Note_on_c, 1, 55, 127
1, 112919, Note_off_c, 1, 57, 0
1, 112919, Note_off_c, 1, 78, 0
1, 112919, Note_off_c, 1, 55, 0
1, 112920, Note_on_c, 1, 84, 127
1, 112920, Note_on_c, 1, 62, 127
1, 112920, Note_on_c, 1, 72, 127
1, 112979, Note_off_c, 1, 66, 0
1, 112979, Note_off_c, 1, 60, 0
1, 112980, Note_on_c, 1, 59, 127
1, 113009, Note_off_c, 1, 59, 0
1, 113010, Note_on_c, 1, 69, 127
1, 113039, Note_off_c, 1, 84, 0
1, 113039, Note_off_c, 1, 72, 0
1, 113039, Note_off_c, 1, 69, 0
1, 113040, Note_on_c, 1, 83, 127
1, 113040, Note_on_c, 1, 71, 127
1, 113129, Note_off_c, 1, 62, 0
1, 113129, Note_off_c, 1, 83, 0
1, 113129, Note_off_c, 1, 71, 0
1, 113130, Note_on_c, 1, 64, 127
1, 113144, Note_off_c, 1, 64, 0
1, 113145, Note_on_c, 1, 86, 127
1, 113145, Note_on_c, 1, 74, 127
1, 113145, Note_on_c, 1, 65, 127
1, 113159, Note_off_c, 1, 86, 0
1, 113159, Note_off_c, 1, 74, 0
1, 113159, Note_off_c, 1, 65, 0
1, 113220, Note_on_c, 1, 81, 127
1, 113249, Note_off_c, 1, 81, 0
1, 113730, Note_on_c, 1, 76, 127
1, 113759, Note_off_c, 1, 76, 0
1, 113820, Note_on_c, 1, 73, 127
1, 113820, Note_on_c, 1, 61, 127
1, 113999, Note_off_c, 1, 73, 0
1, 113999, Note_off_c, 1, 61, 0
1, 114000, Note_on_c, 1, 86, 127
1, 114000, Note_on_c, 1, 62, 127
1, 114000, Note_on_c, 1, 57, 127
1, 114000, Note_on_c, 1, 74, 127
1, 114000, Note_on_c, 1, 42, 127
1, 114059, Note_off_c, 1, 86, 0
1, 114059, Note_off_c, 1, 74, 0
1, 114059, Note_off_c, 1, 42, 0
1, 114060, Note_on_c, 1, 85, 127
1, 114060, Note_on_c, 1, 73, 127
1, 114060, Note_on_c, 1, 55, 127
1, 114089, Note_off_c, 1, 85, 0
1, 114089, Note_off_c, 1, 73, 0
1, 114090, Note_on_c, 1, 83, 127
1, 114090, Note_on_c, 1, 71, 127
1, 114119, Note_off_c, 1, 62, 0
1, 114119, Note_off_c, 1, 57, 0
1, 114119, Note_off_c, 1, 55, 0
1, 114119, Note_off_c, 1, 83, 0
1, 114119, Note_off_c, 1, 71, 0
1, 114120, Note_on_c, 1, 81, 127
1, 114120, Note_on_c, 1, 69, 127
1, 114120, Note_on_c, 1, 54, 127
1, 114179, Note_off_c, 1, 81, 0
1, 114179, Note_off_c, 1, 69, 0
1, 114179, Note_off_c, 1, 54, 0
1, 114180, Note_on_c, 1, 79, 127
1, 114180, Note_on_c, 1, 67, 127
1, 114180, Note_on_c, 1, 52, 127
1, 114239, Note_off_c, 1, 79, 0
1, 114239, Note_off_c, 1, 67, 0
1, 114239, Note_off_c, 1, 52, 0
1, 114240, Note_on_c, 1, 78, 127
1, 114240, Note_on_c, 1, 66, 127
1, 114240, Note_on_c, 1, 50, 127
1, 114299, Note_off_c, 1, 78, 0
1, 114299, Note_off_c, 1, 66, 0
1, 114299, Note_off_c, 1, 50, 0
1, 114300, Note_on_c, 1, 83, 127
1, 114300, Note_on_c, 1, 71, 127
1, 114300, Note_on_c, 1, 52, 127
1, 114359, Note_off_c, 1, 83, 0
1, 114359, Note_off_c, 1, 71, 0
1, 114359, Note_off_c, 1, 52, 0
1, 114360, Note_on_c, 1, 81, 127
1, 114360, Note_on_c, 1, 69, 127
1, 114360, Note_on_c, 1, 54, 127
1, 114419, Note_off_c, 1, 81, 0
1, 114419, Note_off_c, 1, 69, 0
1, 114419, Note_off_c, 1, 54, 0
1, 114420, Note_on_c, 1, 79, 127
1, 114420, Note_on_c, 1, 67, 127
1, 114420, Note_on_c, 1, 55, 127
1, 114479, Note_off_c, 1, 79, 0
1, 114479, Note_off_c, 1, 67, 0
1, 114479, Note_off_c, 1, 55, 0
1, 114480, Note_on_c, 1, 78, 127
1, 114480, Note_on_c, 1, 66, 127
1, 114480, Note_on_c, 1, 57, 127
1, 114539, Note_off_c, 1, 78, 0
1, 114539, Note_off_c, 1, 66, 0
1, 114540, Note_on_c, 1, 76, 127
1, 114540, Note_on_c, 1, 64, 127
1, 114569, Note_off_c, 1, 76, 0
1, 114569, Note_off_c, 1, 64, 0
1, 114570, Note_on_c, 1, 74, 127
1, 114570, Note_on_c, 1, 62, 127
1, 114599, Note_off_c, 1, 57, 0
1, 114599, Note_off_c, 1, 74, 0
1, 114599, Note_off_c, 1, 62, 0
1, 114600, Note_on_c, 1, 76, 127
1, 114600, Note_on_c, 1, 64, 127
1, 114600, Note_on_c, 1, 45, 127
1, 114615, Note_off_c, 1, 76, 0
1, 114615, Note_off_c, 1, 64, 0
1, 114615, Note_on_c, 1, 78, 127
1, 114615, Note_on_c, 1, 66, 127
1, 114630, Note_off_c, 1, 78, 0
1, 114630, Note_off_c, 1, 66, 0
1, 114700, Note_on_c, 1, 74, 127
1, 114700, Note_on_c, 1, 62, 127
1, 114710, Note_off_c, 1, 74, 0
1, 114710, Note_off_c, 1, 62, 0
1, 114719, Note_off_c, 1, 45, 0
1, 114720, Note_on_c, 1, 57, 127
1, 114720, Note_on_c, 1, 50, 127
1, 114779, Note_off_c, 1, 57, 0
1, 114779, Note_off_c, 1, 50, 0
1, 114780, Note_on_c, 1, 68, 127
1, 114840, Note_on_c, 1, 59, 127
1, 114840, Note_on_c, 1, 47, 127
1, 114899, Note_off_c, 1, 68, 0
1, 114899, Note_off_c, 1, 59, 0
1, 114899, Note_off_c, 1, 47, 0
1, 114900, Note_on_c, 1, 69, 127
1, 114929, Note_off_c, 1, 69, 0
1, 114930, Note_on_c, 1, 71, 127
1, 114959, Note_off_c, 1, 71, 0
1, 114960, Note_on_c, 1, 69, 127
1, 114960, Note_on_c, 1, 57, 127
1, 114960, Note_on_c, 1, 64, 127
1, 114960, Note_on_c, 1, 49, 127
1, 115019, Note_off_c, 1, 69, 0
1, 115019, Note_off_c, 1, 57, 0
1, 115019, Note_off_c, 1, 64, 0
1, 115019, Note_off_c, 1, 49, 0
1, 115020, Note_on_c, 1, 62, 127
1, 115020, Note_on_c, 1, 54, 127
1, 115079, Note_off_c, 1, 62, 0
1, 115079, Note_off_c, 1, 54, 0
1, 115080, Note_on_c, 1, 61, 127
1, 115080, Note_on_c, 1, 52, 127
1, 115109, Note_off_c, 1, 52, 0
1, 115110, Note_on_c, 1, 50, 127
1, 115139, Note_off_c, 1, 61, 0
1, 115139, Note_off_c, 1, 50, 0
1, 115140, Note_on_c, 1, 64, 127
1, 115140, Note_on_c, 1, 48, 127
1, 115169, Note_off_c, 1, 48, 0
1, 115170, Note_on_c, 1, 47, 127
1, 115199, Note_off_c, 1, 64, 0
1, 115199, Note_off_c, 1, 47, 0
1, 115200, Note_on_c, 1, 67, 127
1, 115200, Note_on_c, 1, 61, 127
1, 115200, Note_on_c, 1, 64, 127
1, 115200, Note_on_c, 1, 45, 127
1, 115259, Note_off_c, 1, 67, 0
1, 115259, Note_off_c, 1, 61, 0
1, 115259, Note_off_c, 1, 64, 0
1, 115259, Note_off_c, 1, 45, 0
1, 115260, Note_on_c, 1, 73, 127
1, 115320, Note_on_c, 1, 64, 127
1, 115320, Note_on_c, 1, 69, 127
1, 115320, Note_on_c, 1, 43, 127
1, 115379, Note_off_c, 1, 73, 0
1, 115379, Note_off_c, 1, 64, 0
1, 115379, Note_off_c, 1, 69, 0
1, 115379, Note_off_c, 1, 43, 0
1, 115380, Note_on_c, 1, 74, 127
1, 115409, Note_off_c, 1, 74, 0
1, 115410, Note_on_c, 1, 76, 127
1, 115439, Note_off_c, 1, 76, 0
1, 115440, Note_on_c, 1, 74, 127
1, 115440, Note_on_c, 1, 69, 127
1, 115440, Note_on_c, 1, 62, 127
1, 115440, Note_on_c, 1, 42, 127
1, 115499, Note_off_c, 1, 74, 0
1, 115499, Note_off_c, 1, 69, 0
1, 115499, Note_off_c, 1, 62, 0
1, 115499, Note_off_c, 1, 42, 0
1, 115500, Note_on_c, 1, 67, 127
1, 115500, Note_on_c, 1, 47, 127
1, 115559, Note_off_c, 1, 67, 0
1, 115559, Note_off_c, 1, 47, 0
1, 115560, Note_on_c, 1, 66, 127
1, 115560, Note_on_c, 1, 45, 127
1, 115589, Note_off_c, 1, 45, 0
1, 115590, Note_on_c, 1, 43, 127
1, 115619, Note_off_c, 1, 66, 0
1, 115619, Note_off_c, 1, 43, 0
1, 115620, Note_on_c, 1, 69, 127
1, 115620, Note_on_c, 1, 42, 127
1, 115649, Note_off_c, 1, 42, 0
1, 115650, Note_on_c, 1, 40, 127
1, 115679, Note_off_c, 1, 69, 0
1, 115679, Note_off_c, 1, 40, 0
1, 115680, Note_on_c, 1, 72, 127
1, 115680, Note_on_c, 1, 66, 127
1, 115680, Note_on_c, 1, 57, 127
1, 115680, Note_on_c, 1, 39, 127
1, 115739, Note_off_c, 1, 72, 0
1, 115739, Note_off_c, 1, 57, 0
1, 115739, Note_off_c, 1, 39, 0
1, 115740, Note_on_c, 1, 71, 127
1, 115740, Note_on_c, 1, 51, 127
1, 115799, Note_off_c, 1, 51, 0
1, 115800, Note_on_c, 1, 59, 127
1, 115859, Note_off_c, 1, 71, 0
1, 115859, Note_off_c, 1, 59, 0
1, 115860, Note_on_c, 1, 69, 127
1, 115920, Note_on_c, 1, 40, 127
1, 115979, Note_off_c, 1, 69, 0
1, 115979, Note_off_c, 1, 40, 0
1, 115980, Note_off_c, 1, 66, 0
1, 115980, Note_on_c, 1, 67, 127
1, 115980, Note_on_c, 1, 64, 127
1, 115980, Note_on_c, 1, 52, 127
1, 116009, Note_off_c, 1, 64, 0
1, 116010, Note_on_c, 1, 63, 127
1, 116039, Note_off_c, 1, 52, 0
1, 116039, Note_off_c, 1, 63, 0
1, 116099, Note_off_c, 1, 67, 0
1, 116100, Note_on_c, 1, 77, 127
1, 116100, Note_on_c, 1, 62, 127
1, 116100, Note_on_c, 1, 47, 127
1, 116159, Note_off_c, 1, 62, 0
1, 116159, Note_off_c, 1, 47, 0
1, 116160, Note_on_c, 1, 59, 127
1, 116160, Note_on_c, 1, 44, 127
1, 116219, Note_off_c, 1, 77, 0
1, 116219, Note_off_c, 1, 44, 0
1, 116220, Note_on_c, 1, 76, 127
1, 116220, Note_on_c, 1, 56, 127
1, 116279, Note_off_c, 1, 56, 0
1, 116280, Note_on_c, 1, 64, 127
1, 116339, Note_off_c, 1, 76, 0
1, 116339, Note_off_c, 1, 64, 0
1, 116340, Note_on_c, 1, 74, 127
1, 116400, Note_on_c, 1, 45, 127
1, 116459, Note_off_c, 1, 74, 0
1, 116459, Note_off_c, 1, 45, 0
1, 116460, Note_off_c, 1, 59, 0
1, 116460, Note_on_c, 1, 73, 127
1, 116460, Note_on_c, 1, 57, 127
1, 116519, Note_off_c, 1, 57, 0
1, 116579, Note_off_c, 1, 73, 0
1, 116580, Note_on_c, 1, 70, 127
1, 116580, Note_on_c, 1, 67, 127
1, 116580, Note_on_c, 1, 52, 127
1, 116639, Note_off_c, 1, 67, 0
1, 116639, Note_off_c, 1, 52, 0
1, 116640, Note_on_c, 1, 64, 127
1, 116640, Note_on_c, 1, 55, 127
1, 116640, Note_on_c, 1, 49, 127
1, 116699, Note_off_c, 1, 70, 0
1, 116699, Note_off_c, 1, 55, 0
1, 116699, Note_off_c, 1, 49, 0
1, 116700, Note_on_c, 1, 69, 127
1, 116700, Note_on_c, 1, 61, 127
1, 116759, Note_off_c, 1, 61, 0
1, 116760, Note_on_c, 1, 57, 127
1, 116819, Note_off_c, 1, 69, 0
1, 116819, Note_off_c, 1, 57, 0
1, 116880, Note_on_c, 1, 50, 127
1, 116939, Note_off_c, 1, 50, 0
1, 116940, Note_off_c, 1, 64, 0
1, 116940, Note_on_c, 1, 66, 127
1, 116940, Note_on_c, 1, 62, 127
1, 116999, Note_off_c, 1, 62, 0
1, 117059, Note_off_c, 1, 66, 0
1, 117060, Note_on_c, 1, 67, 127
1, 117060, Note_on_c, 1, 62, 127
1, 117060, Note_on_c, 1, 59, 127
1, 117119, Note_off_c, 1, 67, 0
1, 117119, Note_off_c, 1, 59, 0
1, 117120, Note_on_c, 1, 69, 127
1, 117120, Note_on_c, 1, 57, 127
1, 117120, Note_on_c, 1, 54, 127
1, 117179, Note_off_c, 1, 62, 0
1, 117179, Note_off_c, 1, 69, 0
1, 117179, Note_off_c, 1, 57, 0
1, 117179, Note_off_c, 1, 54, 0
1, 117180, Note_on_c, 1, 71, 127
1, 117180, Note_on_c, 1, 67, 127
1, 117180, Note_on_c, 1, 62, 127
1, 117180, Note_on_c, 1, 55, 127
1, 117209, Note_off_c, 1, 71, 0
1, 117209, Note_off_c, 1, 67, 0
1, 117210, Note_on_c, 1, 69, 127
1, 117210, Note_on_c, 1, 66, 127
1, 117239, Note_off_c, 1, 55, 0
1, 117239, Note_off_c, 1, 69, 0
1, 117239, Note_off_c, 1, 66, 0
1, 117240, Note_on_c, 1, 64, 127
1, 117240, Note_on_c, 1, 57, 127
1, 117299, Note_off_c, 1, 64, 0
1, 117299, Note_off_c, 1, 57, 0
1, 117300, Note_off_c, 1, 62, 0
1, 117300, Note_on_c, 1, 61, 127
1, 117330, Note_on_c, 1, 76, 127
1, 117359, Note_off_c, 1, 61, 0
1, 117359, Note_off_c, 1, 76, 0
1, 117360, Note_on_c, 1, 74, 127
1, 117360, Note_on_c, 1, 54, 127
1, 117389, Note_off_c, 1, 74, 0
1, 117390, Note_on_c, 1, 73, 127
1, 117419, Note_off_c, 1, 54, 0
1, 117419, Note_off_c, 1, 73, 0
1, 117420, Note_on_c, 1, 71, 127
1, 117420, Note_on_c, 1, 74, 127
1, 117420, Note_on_c, 1, 64, 127
1, 117420, Note_on_c, 1, 55, 127
1, 117449, Note_off_c, 1, 71, 0
1, 117450, Note_off_c, 1, 64, 0
1, 117450, Note_on_c, 1, 69, 127
1, 117450, Note_on_c, 1, 66, 127
1, 117479, Note_off_c, 1, 74, 0
1, 117479, Note_off_c, 1, 55, 0
1, 117479, Note_off_c, 1, 69, 0
1, 117480, Note_off_c, 1, 66, 0
1, 117480, Note_on_c, 1, 79, 127
1, 117480, Note_on_c, 1, 73, 127
1, 117480, Note_on_c, 1, 61, 127
1, 117480, Note_on_c, 1, 57, 127
1, 117509, Note_off_c, 1, 79, 0
1, 117509, Note_off_c, 1, 73, 0
1, 117539, Note_off_c, 1, 61, 0
1, 117539, Note_off_c, 1, 57, 0
1, 117540, Note_on_c, 1, 78, 127
1, 117540, Note_on_c, 1, 69, 127
1, 117540, Note_on_c, 1, 45, 127
1, 117569, Note_off_c, 1, 78, 0
1, 117569, Note_off_c, 1, 69, 0
1, 117570, Note_on_c, 1, 67, 127
1, 117599, Note_off_c, 1, 45, 0
1, 117599, Note_off_c, 1, 67, 0
1, 117600, Note_on_c, 1, 76, 127
1, 117600, Note_on_c, 1, 66, 127
1, 117600, Note_on_c, 1, 57, 127
1, 117600, Note_on_c, 1, 50, 127
1, 117629, Note_off_c, 1, 76, 0
1, 117630, Note_on_c, 1, 74, 127
1, 117659, Note_off_c, 1, 50, 0
1, 117659, Note_off_c, 1, 74, 0
1, 117660, Note_on_c, 1, 73, 127
1, 117660, Note_on_c, 1, 45, 127
1, 117689, Note_off_c, 1, 73, 0
1, 117690, Note_on_c, 1, 71, 127
1, 117719, Note_off_c, 1, 66, 0
1, 117719, Note_off_c, 1, 45, 0
1, 117719, Note_off_c, 1, 71, 0
1, 117720, Note_off_c, 1, 57, 0
1, 117720, Note_on_c, 1, 69, 127
1, 117720, Note_on_c, 1, 42, 127
1, 117749, Note_off_c, 1, 69, 0
1, 117750, Note_on_c, 1, 67, 127
1, 117779, Note_off_c, 1, 42, 0
1, 117779, Note_off_c, 1, 67, 0
1, 117780, Note_on_c, 1, 66, 127
1, 117780, Note_on_c, 1, 45, 127
1, 117809, Note_off_c, 1, 66, 0
1, 117810, Note_on_c, 1, 64, 127
1, 117839, Note_off_c, 1, 45, 0
1, 117839, Note_off_c, 1, 64, 0
1, 117840, Note_on_c, 1, 78, 127
1, 117840, Note_on_c, 1, 66, 127
1, 117840, Note_on_c, 1, 69, 127
1, 117840, Note_on_c, 1, 38, 127
1, 117900, Note_on_c, 1, 74, 127
1, 117900, Note_on_c, 1, 62, 127
1, 117929, Note_off_c, 1, 78, 0
1, 117929, Note_off_c, 1, 66, 0
1, 117929, Note_off_c, 1, 69, 0
1, 117930, Note_on_c, 1, 79, 127
1, 117930, Note_on_c, 1, 71, 127
1, 117930, Note_on_c, 1, 67, 127
1, 117944, Note_off_c, 1, 79, 0
1, 117944, Note_off_c, 1, 71, 0
1, 117944, Note_off_c, 1, 67, 0
1, 117945, Note_on_c, 1, 81, 127
1, 117945, Note_on_c, 1, 72, 127
1, 117959, Note_off_c, 1, 62, 0
1, 117959, Note_off_c, 1, 81, 0
1, 117959, Note_off_c, 1, 72, 0
1, 118019, Note_off_c, 1, 74, 0
1, 118020, Note_on_c, 1, 76, 127
1, 118020, Note_on_c, 1, 73, 127
1, 118020, Note_on_c, 1, 57, 127
1, 118020, Note_on_c, 1, 64, 127
1, 118049, Note_off_c, 1, 76, 0
1, 118049, Note_off_c, 1, 64, 0
1, 118079, Note_off_c, 1, 57, 0
1, 118139, Note_off_c, 1, 73, 0
1, 118140, Note_on_c, 1, 61, 127
1, 118199, Note_off_c, 1, 61, 0
1, 118410, Note_on_c, 1, 59, 127
1, 118424, Note_off_c, 1, 59, 0
1, 118425, Note_on_c, 1, 60, 127
1, 118439, Note_off_c, 1, 60, 0
1, 118500, Note_on_c, 1, 55, 127
1, 118529, Note_off_c, 1, 55, 0
1, 118620, Note_off_c, 1, 38, 0
1, 118620, Note_on_c, 1, 50, 127
1, 118679, Note_off_c, 1, 50, 0
1, 118680, Note_on_c, 1, 52, 127
1, 118739, Note_off_c, 1, 52, 0
1, 118740, Note_on_c, 1, 54, 127
1, 118799, Note_off_c, 1, 54, 0
1, 118800, Note_on_c, 1, 83, 127
1, 118800, Note_on_c, 1, 74, 127
1, 118800, Note_on_c, 1, 62, 127
1, 118800, Note_on_c, 1, 55, 127
1, 118800, Note_on_c, 1, 71, 127
1, 118800, Note_on_c, 1, 43, 127
1, 118859, Note_off_c, 1, 74, 0
1, 118859, Note_off_c, 1, 55, 0
1, 118860, Note_on_c, 1, 79, 127
1, 118860, Note_on_c, 1, 67, 127
1, 118889, Note_off_c, 1, 83, 0
1, 118889, Note_off_c, 1, 62, 0
1, 118889, Note_off_c, 1, 71, 0
1, 118890, Note_on_c, 1, 84, 127
1, 118890, Note_on_c, 1, 64, 127
1, 118890, Note_on_c, 1, 72, 127
1, 118904, Note_off_c, 1, 84, 0
1, 118904, Note_off_c, 1, 64, 0
1, 118904, Note_off_c, 1, 72, 0
1, 118905, Note_on_c, 1, 86, 127
1, 118905, Note_on_c, 1, 65, 127
1, 118919, Note_off_c, 1, 67, 0
1, 118919, Note_off_c, 1, 86, 0
1, 118919, Note_off_c, 1, 65, 0
1, 118979, Note_off_c, 1, 79, 0
1, 118980, Note_on_c, 1, 81, 127
1, 118980, Note_on_c, 1, 78, 127
1, 118980, Note_on_c, 1, 60, 127
1, 118980, Note_on_c, 1, 69, 127
1, 119009, Note_off_c, 1, 81, 0
1, 119009, Note_off_c, 1, 60, 0
1, 119009, Note_off_c, 1, 69, 0
1, 119010, Note_on_c, 1, 59, 127
1, 119039, Note_off_c, 1, 59, 0
1, 119099, Note_off_c, 1, 78, 0
1, 119100, Note_on_c, 1, 57, 127
1, 119100, Note_on_c, 1, 66, 127
1, 119159, Note_off_c, 1, 57, 0
1, 119159, Note_off_c, 1, 66, 0
1, 119520, Note_on_c, 1, 77, 127
1, 119580, Note_off_c, 1, 43, 0
1, 119759, Note_off_c, 1, 77, 0
1, 119760, Note_on_c, 1, 76, 127
1, 119760, Note_on_c, 1, 55, 127
1, 119760, Note_on_c, 1, 60, 127
1, 119760, Note_on_c, 1, 64, 127
1, 119760, Note_on_c, 1, 48, 127
1, 119819, Note_off_c, 1, 55, 0
1, 119819, Note_off_c, 1, 60, 0
1, 119819, Note_off_c, 1, 48, 0
1, 119820, Note_off_c, 1, 64, 0
1, 119820, Note_on_c, 1, 88, 127
1, 119880, Note_on_c, 1, 71, 127
1, 119880, Note_on_c, 1, 44, 127
1, 119909, Note_off_c, 1, 76, 0
1, 119909, Note_off_c, 1, 88, 0
1, 119910, Note_on_c, 1, 86, 127
1, 119910, Note_on_c, 1, 74, 127
1, 119939, Note_off_c, 1, 71, 0
1, 119939, Note_off_c, 1, 44, 0
1, 119939, Note_off_c, 1, 86, 0
1, 119939, Note_off_c, 1, 74, 0
1, 119940, Note_on_c, 1, 84, 127
1, 119940, Note_on_c, 1, 72, 127
1, 119969, Note_off_c, 1, 84, 0
1, 119969, Note_off_c, 1, 72, 0
1, 119970, Note_on_c, 1, 83, 127
1, 119970, Note_on_c, 1, 71, 127
1, 119999, Note_off_c, 1, 83, 0
1, 119999, Note_off_c, 1, 71, 0
1, 120000, Note_on_c, 1, 84, 127
1, 120000, Note_on_c, 1, 64, 127
1, 120000, Note_on_c, 1, 72, 127
1, 120000, Note_on_c, 1, 45, 127
1, 120059, Note_off_c, 1, 84, 0
1, 120059, Note_off_c, 1, 64, 0
1, 120059, Note_off_c, 1, 72, 0
1, 120059, Note_off_c, 1, 45, 0
1, 120060, Note_on_c, 1, 83, 127
1, 120060, Note_on_c, 1, 76, 127
1, 120060, Note_on_c, 1, 71, 127
1, 120119, Note_off_c, 1, 83, 0
1, 120119, Note_off_c, 1, 71, 0
1, 120120, Note_on_c, 1, 81, 127
1, 120120, Note_on_c, 1, 69, 127
1, 120120, Note_on_c, 1, 48, 127
1, 120149, Note_off_c, 1, 76, 0
1, 120150, Note_on_c, 1, 74, 127
1, 120179, Note_off_c, 1, 81, 0
1, 120179, Note_off_c, 1, 69, 0
1, 120179, Note_off_c, 1, 48, 0
1, 120179, Note_off_c, 1, 74, 0
1, 120180, Note_on_c, 1, 79, 127
1, 120180, Note_on_c, 1, 72, 127
1, 120180, Note_on_c, 1, 67, 127
1, 120209, Note_off_c, 1, 72, 0
1, 120210, Note_on_c, 1, 71, 127
1, 120239, Note_off_c, 1, 79, 0
1, 120239, Note_off_c, 1, 67, 0
1, 120239, Note_off_c, 1, 71, 0
1, 120240, Note_on_c, 1, 78, 127
1, 120240, Note_on_c, 1, 69, 127
1, 120240, Note_on_c, 1, 66, 127
1, 120240, Note_on_c, 1, 50, 127
1, 120299, Note_off_c, 1, 78, 0
1, 120299, Note_off_c, 1, 69, 0
1, 120299, Note_off_c, 1, 66, 0
1, 120299, Note_off_c, 1, 50, 0
1, 120300, Note_on_c, 1, 86, 127
1, 120300, Note_on_c, 1, 74, 127
1, 120360, Note_on_c, 1, 66, 127
1, 120360, Note_on_c, 1, 38, 127
1, 120389, Note_off_c, 1, 86, 0
1, 120389, Note_off_c, 1, 74, 0
1, 120390, Note_on_c, 1, 84, 127
1, 120390, Note_on_c, 1, 72, 127
1, 120419, Note_off_c, 1, 66, 0
1, 120419, Note_off_c, 1, 38, 0
1, 120419, Note_off_c, 1, 84, 0
1, 120419, Note_off_c, 1, 72, 0
1, 120420, Note_on_c, 1, 83, 127
1, 120420, Note_on_c, 1, 71, 127
1, 120449, Note_off_c, 1, 83, 0
1, 120449, Note_off_c, 1, 71, 0
1, 120450, Note_on_c, 1, 81, 127
1, 120450, Note_on_c, 1, 69, 127
1, 120479, Note_off_c, 1, 81, 0
1, 120479, Note_off_c, 1, 69, 0
1, 120480, Note_on_c, 1, 83, 127
1, 120480, Note_on_c, 1, 62, 127
1, 120480, Note_on_c, 1, 71, 127
1, 120480, Note_on_c, 1, 43, 127
1, 120539, Note_off_c, 1, 83, 0
1, 120539, Note_off_c, 1, 62, 0
1, 120539, Note_off_c, 1, 71, 0
1, 120539, Note_off_c, 1, 43, 0
1, 120540, Note_on_c, 1, 81, 127
1, 120540, Note_on_c, 1, 74, 127
1, 120540, Note_on_c, 1, 69, 127
1, 120599, Note_off_c, 1, 81, 0
1, 120599, Note_off_c, 1, 69, 0
1, 120600, Note_on_c, 1, 79, 127
1, 120600, Note_on_c, 1, 67, 127
1, 120600, Note_on_c, 1, 47, 127
1, 120629, Note_off_c, 1, 74, 0
1, 120630, Note_on_c, 1, 72, 127
1, 120659, Note_off_c, 1, 79, 0
1, 120659, Note_off_c, 1, 67, 0
1, 120659, Note_off_c, 1, 47, 0
1, 120659, Note_off_c, 1, 72, 0
1, 120660, Note_on_c, 1, 77, 127
1, 120660, Note_on_c, 1, 71, 127
1, 120660, Note_on_c, 1, 65, 127
1, 120689, Note_off_c, 1, 71, 0
1, 120690, Note_on_c, 1, 74, 127
1, 120719, Note_off_c, 1, 77, 0
1, 120719, Note_off_c, 1, 65, 0
1, 120719, Note_off_c, 1, 74, 0
1, 120720, Note_on_c, 1, 76, 127
1, 120720, Note_on_c, 1, 64, 127
1, 120720, Note_on_c, 1, 60, 127
1, 120720, Note_on_c, 1, 55, 127
1, 120720, Note_on_c, 1, 48, 127
1, 120779, Note_off_c, 1, 76, 0
1, 120779, Note_off_c, 1, 64, 0
1, 120779, Note_off_c, 1, 60, 0
1, 120779, Note_off_c, 1, 55, 0
1, 120779, Note_off_c, 1, 48, 0
1, 120780, Note_on_c, 1, 81, 127
1, 120780, Note_on_c, 1, 69, 127
1, 120780, Note_on_c, 1, 64, 127
1, 120780, Note_on_c, 1, 60, 127
1, 120839, Note_off_c, 1, 81, 0
1, 120839, Note_off_c, 1, 69, 0
1, 120839, Note_off_c, 1, 64, 0
1, 120839, Note_off_c, 1, 60, 0
1, 120840, Note_on_c, 1, 81, 127
1, 120840, Note_on_c, 1, 69, 127
1, 120840, Note_on_c, 1, 64, 127
1, 120840, Note_on_c, 1, 60, 127
1, 120840, Note_on_c, 1, 45, 127
1, 120899, Note_off_c, 1, 81, 0
1, 120899, Note_off_c, 1, 69, 0
1, 120899, Note_off_c, 1, 64, 0
1, 120899, Note_off_c, 1, 60, 0
1, 120899, Note_off_c, 1, 45, 0
1, 120900, Note_on_c, 1, 84, 127
1, 120900, Note_on_c, 1, 72, 127
1, 120900, Note_on_c, 1, 69, 127
1, 120900, Note_on_c, 1, 64, 127
1, 120959, Note_off_c, 1, 84, 0
1, 120959, Note_off_c, 1, 72, 0
1, 120959, Note_off_c, 1, 69, 0
1, 120959, Note_off_c, 1, 64, 0
1, 120960, Note_on_c, 1, 84, 127
1, 120960, Note_on_c, 1, 72, 127
1, 120960, Note_on_c, 1, 69, 127
1, 120960, Note_on_c, 1, 66, 127
1, 120960, Note_on_c, 1, 50, 127
1, 121019, Note_off_c, 1, 50, 0
1, 121049, Note_off_c, 1, 84, 0
1, 121049, Note_off_c, 1, 72, 0
1, 121050, Note_on_c, 1, 86, 127
1, 121050, Note_on_c, 1, 74, 127
1, 121064, Note_off_c, 1, 86, 0
1, 121064, Note_off_c, 1, 74, 0
1, 121065, Note_on_c, 1, 88, 127
1, 121065, Note_on_c, 1, 76, 127
1, 121079, Note_off_c, 1, 88, 0
1, 121079, Note_off_c, 1, 76, 0
1, 121080, Note_on_c, 1, 47, 127
1, 121110, Note_off_c, 1, 66, 0
1, 121110, Note_on_c, 1, 64, 127
1, 121139, Note_off_c, 1, 69, 0
1, 121139, Note_off_c, 1, 47, 0
1, 121139, Note_off_c, 1, 64, 0
1, 121140, Note_on_c, 1, 83, 127
1, 121140, Note_on_c, 1, 71, 127
1, 121140, Note_on_c, 1, 67, 127
1, 121140, Note_on_c, 1, 62, 127
1, 121169, Note_off_c, 1, 83, 0
1, 121169, Note_off_c, 1, 71, 0
1, 121169, Note_off_c, 1, 67, 0
1, 121169, Note_off_c, 1, 62, 0
1, 121170, Note_on_c, 1, 81, 127
1, 121170, Note_on_c, 1, 69, 127
1, 121170, Note_on_c, 1, 66, 127
1, 121170, Note_on_c, 1, 60, 127
1, 121199, Note_off_c, 1, 81, 0
1, 121199, Note_off_c, 1, 69, 0
1, 121199, Note_off_c, 1, 66, 0
1, 121199, Note_off_c, 1, 60, 0
1, 121200, Note_on_c, 1, 79, 127
1, 121200, Note_on_c, 1, 67, 127
1, 121200, Note_on_c, 1, 59, 127
1, 121200, Note_on_c, 1, 52, 127
1, 121230, Note_off_c, 1, 79, 0
1, 121230, Note_on_c, 1, 78, 127
1, 121230, Note_on_c, 1, 66, 127
1, 121259, Note_off_c, 1, 67, 0
1, 121259, Note_off_c, 1, 59, 0
1, 121259, Note_off_c, 1, 52, 0
1, 121260, Note_off_c, 1, 78, 0
1, 121260, Note_off_c, 1, 66, 0
1, 121260, Note_on_c, 1, 64, 127
1, 121260, Note_on_c, 1, 48, 127
1, 121290, Note_on_c, 1, 84, 127
1, 121290, Note_on_c, 1, 72, 127
1, 121319, Note_off_c, 1, 64, 0
1, 121319, Note_off_c, 1, 48, 0
1, 121320, Note_off_c, 1, 84, 0
1, 121320, Note_off_c, 1, 72, 0
1, 121320, Note_on_c, 1, 81, 127
1, 121320, Note_on_c, 1, 69, 127
1, 121320, Note_on_c, 1, 62, 127
1, 121320, Note_on_c, 1, 50, 127
1, 121330, Note_off_c, 1, 81, 0
1, 121330, Note_on_c, 1, 83, 127
1, 121330, Note_on_c, 1, 71, 127
1, 121340, Note_off_c, 1, 83, 0
1, 121340, Note_off_c, 1, 71, 0
1, 121379, Note_off_c, 1, 62, 0
1, 121379, Note_off_c, 1, 50, 0
1, 121380, Note_on_c, 1, 60, 127
1, 121380, Note_on_c, 1, 38, 127
1, 121410, Note_off_c, 1, 69, 0
1, 121439, Note_off_c, 1, 60, 0
1, 121439, Note_off_c, 1, 38, 0
1, 121440, Note_on_c, 1, 40, 127
1, 121499, Note_off_c, 1, 40, 0
1, 121500, Note_on_c, 1, 73, 127
1, 121560, Note_on_c, 1, 57, 127
1, 121560, Note_on_c, 1, 45, 127
1, 121619, Note_off_c, 1, 73, 0
1, 121619, Note_off_c, 1, 57, 0
1, 121619, Note_off_c, 1, 45, 0
1, 121620, Note_on_c, 1, 79, 127
1, 121620, Note_on_c, 1, 74, 127
1, 121620, Note_on_c, 1, 67, 127
1, 121649, Note_off_c, 1, 74, 0
1, 121650, Note_on_c, 1, 76, 127
1, 121679, Note_off_c, 1, 76, 0
1, 121680, Note_on_c, 1, 57, 127
1, 121680, Note_on_c, 1, 50, 127
1, 121739, Note_off_c, 1, 79, 0
1, 121739, Note_off_c, 1, 67, 0
1, 121739, Note_off_c, 1, 57, 0
1, 121739, Note_off_c, 1, 50, 0
1, 121740, Note_on_c, 1, 76, 127
1, 121740, Note_on_c, 1, 67, 127
1, 121740, Note_on_c, 1, 64, 127
1, 121740, Note_on_c, 1, 59, 127
1, 121799, Note_off_c, 1, 76, 0
1, 121799, Note_off_c, 1, 67, 0
1, 121799, Note_off_c, 1, 64, 0
1, 121799, Note_off_c, 1, 59, 0
1, 121800, Note_on_c, 1, 76, 127
1, 121800, Note_on_c, 1, 66, 127
1, 121800, Note_on_c, 1, 64, 127
1, 121800, Note_on_c, 1, 57, 127
1, 121829, Note_off_c, 1, 57, 0
1, 121830, Note_on_c, 1, 55, 127
1, 121859, Note_off_c, 1, 76, 0
1, 121859, Note_off_c, 1, 66, 0
1, 121859, Note_off_c, 1, 64, 0
1, 121859, Note_off_c, 1, 55, 0
1, 121860, Note_on_c, 1, 78, 127
1, 121860, Note_on_c, 1, 69, 127
1, 121860, Note_on_c, 1, 66, 127
1, 121860, Note_on_c, 1, 54, 127
1, 121889, Note_off_c, 1, 54, 0
1, 121890, Note_on_c, 1, 52, 127
1, 121919, Note_off_c, 1, 78, 0
1, 121919, Note_off_c, 1, 69, 0
1, 121919, Note_off_c, 1, 66, 0
1, 121919, Note_off_c, 1, 52, 0
1, 121920, Note_on_c, 1, 72, 127
1, 121920, Note_on_c, 1, 66, 127
1, 121920, Note_on_c, 1, 57, 127
1, 121920, Note_on_c, 1, 50, 127
1, 121979, Note_off_c, 1, 72, 0
1, 121979, Note_off_c, 1, 66, 0
1, 121979, Note_off_c, 1, 57, 0
1, 121979, Note_off_c, 1, 50, 0
1, 121980, Note_on_c, 1, 78, 127
1, 122040, Note_on_c, 1, 69, 127
1, 122040, Note_on_c, 1, 62, 127
1, 122040, Note_on_c, 1, 38, 127
1, 122099, Note_off_c, 1, 78, 0
1, 122099, Note_off_c, 1, 69, 0
1, 122099, Note_off_c, 1, 62, 0
1, 122099, Note_off_c, 1, 38, 0
1, 122100, Note_on_c, 1, 84, 127
1, 122100, Note_on_c, 1, 79, 127
1, 122100, Note_on_c, 1, 72, 127
1, 122129, Note_off_c, 1, 79, 0
1, 122130, Note_on_c, 1, 81, 127
1, 122159, Note_off_c, 1, 81, 0
1, 122160, Note_on_c, 1, 62, 127
1, 122160, Note_on_c, 1, 43, 127
1, 122219, Note_off_c, 1, 84, 0
1, 122219, Note_off_c, 1, 72, 0
1, 122219, Note_off_c, 1, 62, 0
1, 122219, Note_off_c, 1, 43, 0
1, 122220, Note_on_c, 1, 81, 127
1, 122220, Note_on_c, 1, 72, 127
1, 122220, Note_on_c, 1, 69, 127
1, 122220, Note_on_c, 1, 52, 127
1, 122279, Note_off_c, 1, 81, 0
1, 122279, Note_off_c, 1, 72, 0
1, 122279, Note_off_c, 1, 69, 0
1, 122279, Note_off_c, 1, 52, 0
1, 122280, Note_on_c, 1, 81, 127
1, 122280, Note_on_c, 1, 71, 127
1, 122280, Note_on_c, 1, 69, 127
1, 122280, Note_on_c, 1, 50, 127
1, 122309, Note_off_c, 1, 50, 0
1, 122310, Note_on_c, 1, 48, 127
1, 122339, Note_off_c, 1, 81, 0
1, 122339, Note_off_c, 1, 71, 0
1, 122339, Note_off_c, 1, 69, 0
1, 122339, Note_off_c, 1, 48, 0
1, 122340, Note_on_c, 1, 83, 127
1, 122340, Note_on_c, 1, 74, 127
1, 122340, Note_on_c, 1, 71, 127
1, 122340, Note_on_c, 1, 47, 127
1, 122369, Note_off_c, 1, 47, 0
1, 122370, Note_on_c, 1, 45, 127
1, 122399, Note_off_c, 1, 83, 0
1, 122399, Note_off_c, 1, 74, 0
1, 122399, Note_off_c, 1, 71, 0
1, 122399, Note_off_c, 1, 45, 0
1, 122400, Note_on_c, 1, 77, 127
1, 122400, Note_on_c, 1, 71, 127
1, 122400, Note_on_c, 1, 62, 127
1, 122400, Note_on_c, 1, 44, 127
1, 122459, Note_off_c, 1, 77, 0
1, 122459, Note_off_c, 1, 62, 0
1, 122459, Note_off_c, 1, 44, 0
1, 122460, Note_on_c, 1, 76, 127
1, 122460, Note_on_c, 1, 64, 127
1, 122460, Note_on_c, 1, 56, 127
1, 122489, Note_off_c, 1, 64, 0
1, 122490, Note_on_c, 1, 78, 127
1, 122490, Note_on_c, 1, 66, 127
1, 122519, Note_off_c, 1, 56, 0
1, 122519, Note_off_c, 1, 78, 0
1, 122519, Note_off_c, 1, 66, 0
1, 122520, Note_on_c, 1, 80, 127
1, 122520, Note_on_c, 1, 68, 127
1, 122549, Note_off_c, 1, 80, 0
1, 122549, Note_off_c, 1, 68, 0
1, 122550, Note_on_c, 1, 81, 127
1, 122550, Note_on_c, 1, 69, 127
1, 122579, Note_off_c, 1, 76, 0
1, 122579, Note_off_c, 1, 81, 0
1, 122579, Note_off_c, 1, 69, 0
1, 122580, Note_on_c, 1, 83, 127
1, 122580, Note_on_c, 1, 74, 127
1, 122609, Note_off_c, 1, 83, 0
1, 122610, Note_on_c, 1, 84, 127
1, 122610, Note_on_c, 1, 72, 127
1, 122639, Note_off_c, 1, 84, 0
1, 122639, Note_off_c, 1, 72, 0
1, 122640, Note_on_c, 1, 86, 127
1, 122640, Note_on_c, 1, 45, 127
1, 122699, Note_off_c, 1, 74, 0
1, 122699, Note_off_c, 1, 86, 0
1, 122699, Note_off_c, 1, 45, 0
1, 122700, Note_off_c, 1, 71, 0
1, 122700, Note_on_c, 1, 57, 127
1, 122759, Note_off_c, 1, 57, 0
1, 122820, Note_on_c, 1, 70, 127
1, 122820, Note_on_c, 1, 67, 127
1, 122820, Note_on_c, 1, 45, 127
1, 122879, Note_off_c, 1, 67, 0
1, 122879, Note_off_c, 1, 45, 0
1, 122880, Note_on_c, 1, 64, 127
1, 122880, Note_on_c, 1, 55, 127
1, 122880, Note_on_c, 1, 49, 127
1, 122939, Note_off_c, 1, 70, 0
1, 122939, Note_off_c, 1, 55, 0
1, 122939, Note_off_c, 1, 49, 0
1, 122940, Note_on_c, 1, 76, 127
1, 122940, Note_on_c, 1, 69, 127
1, 122940, Note_on_c, 1, 57, 127
1, 122999, Note_off_c, 1, 76, 0
1, 122999, Note_off_c, 1, 57, 0
1, 123000, Note_on_c, 1, 85, 127
1, 123000, Note_on_c, 1, 73, 127
1, 123059, Note_off_c, 1, 69, 0
1, 123120, Note_on_c, 1, 38, 127
1, 123179, Note_off_c, 1, 85, 0
1, 123179, Note_off_c, 1, 73, 0
1, 123179, Note_off_c, 1, 38, 0
1, 123180, Note_off_c, 1, 64, 0
1, 123180, Note_on_c, 1, 86, 127
1, 123180, Note_on_c, 1, 66, 127
1, 123180, Note_on_c, 1, 62, 127
1, 123180, Note_on_c, 1, 74, 127
1, 123180, Note_on_c, 1, 50, 127
1, 123209, Note_off_c, 1, 62, 0
1, 123210, Note_on_c, 1, 61, 127
1, 123239, Note_off_c, 1, 50, 0
1, 123239, Note_off_c, 1, 61, 0
1, 123299, Note_off_c, 1, 86, 0
1, 123299, Note_off_c, 1, 66, 0
1, 123299, Note_off_c, 1, 74, 0
1, 123300, Note_on_c, 1, 84, 127
1, 123300, Note_on_c, 1, 63, 127
1, 123300, Note_on_c, 1, 67, 127
1, 123300, Note_on_c, 1, 72, 127
1, 123300, Note_on_c, 1, 45, 127
1, 123359, Note_off_c, 1, 67, 0
1, 123359, Note_off_c, 1, 45, 0
1, 123360, Note_on_c, 1, 66, 127
1, 123360, Note_on_c, 1, 38, 127
1, 123419, Note_off_c, 1, 84, 0
1, 123419, Note_off_c, 1, 63, 0
1, 123419, Note_off_c, 1, 72, 0
1, 123419, Note_off_c, 1, 66, 0
1, 123419, Note_off_c, 1, 38, 0
1, 123420, Note_on_c, 1, 82, 127
1, 123420, Note_on_c, 1, 62, 127
1, 123420, Note_on_c, 1, 67, 127
1, 123420, Note_on_c, 1, 70, 127
1, 123420, Note_on_c, 1, 50, 127
1, 123479, Note_off_c, 1, 50, 0
1, 123480, Note_on_c, 1, 52, 127
1, 123539, Note_off_c, 1, 82, 0
1, 123539, Note_off_c, 1, 62, 0
1, 123539, Note_off_c, 1, 67, 0
1, 123539, Note_off_c, 1, 70, 0
1, 123539, Note_off_c, 1, 52, 0
1, 123540, Note_on_c, 1, 81, 127
1, 123540, Note_on_c, 1, 60, 127
1, 123540, Note_on_c, 1, 69, 127
1, 123540, Note_on_c, 1, 54, 127
1, 123599, Note_off_c, 1, 81, 0
1, 123599, Note_off_c, 1, 54, 0
1, 123600, Note_on_c, 1, 86, 127
1, 123600, Note_on_c, 1, 74, 127
1, 123600, Note_on_c, 1, 47, 127
1, 123659, Note_off_c, 1, 60, 0
1, 123659, Note_off_c, 1, 69, 0
1, 123659, Note_off_c, 1, 86, 0
1, 123659, Note_off_c, 1, 74, 0
1, 123659, Note_off_c, 1, 47, 0
1, 123660, Note_on_c, 1, 79, 127
1, 123660, Note_on_c, 1, 60, 127
1, 123660, Note_on_c, 1, 67, 127
1, 123660, Note_on_c, 1, 59, 127
1, 123719, Note_off_c, 1, 59, 0
1, 123720, Note_on_c, 1, 57, 127
1, 123779, Note_off_c, 1, 79, 0
1, 123779, Note_off_c, 1, 60, 0
1, 123779, Note_off_c, 1, 67, 0
1, 123779, Note_off_c, 1, 57, 0
1, 123780, Note_on_c, 1, 78, 127
1, 123780, Note_on_c, 1, 60, 127
1, 123780, Note_on_c, 1, 72, 127
1, 123780, Note_on_c, 1, 66, 127
1, 123780, Note_on_c, 1, 55, 127
1, 123809, Note_off_c, 1, 78, 0
1, 123809, Note_off_c, 1, 66, 0
1, 123810, Note_on_c, 1, 76, 127
1, 123810, Note_on_c, 1, 64, 127
1, 123839, Note_off_c, 1, 55, 0
1, 123839, Note_off_c, 1, 76, 0
1, 123839, Note_off_c, 1, 64, 0
1, 123840, Note_on_c, 1, 74, 127
1, 123840, Note_on_c, 1, 62, 127
1, 123840, Note_on_c, 1, 54, 127
1, 123899, Note_off_c, 1, 60, 0
1, 123899, Note_off_c, 1, 72, 0
1, 123899, Note_off_c, 1, 74, 0
1, 123899, Note_off_c, 1, 62, 0
1, 123899, Note_off_c, 1, 54, 0
1, 123900, Note_on_c, 1, 76, 127
1, 123900, Note_on_c, 1, 64, 127
1, 123900, Note_on_c, 1, 50, 127
1, 123929, Note_off_c, 1, 76, 0
1, 123929, Note_off_c, 1, 64, 0
1, 123930, Note_on_c, 1, 78, 127
1, 123930, Note_on_c, 1, 66, 127
1, 123959, Note_off_c, 1, 50, 0
1, 123959, Note_off_c, 1, 78, 0
1, 123959, Note_off_c, 1, 66, 0
1, 123960, Note_on_c, 1, 79, 127
1, 123960, Note_on_c, 1, 67, 127
1, 123960, Note_on_c, 1, 47, 127
1, 123989, Note_off_c, 1, 79, 0
1, 123989, Note_off_c, 1, 67, 0
1, 123990, Note_on_c, 1, 81, 127
1, 123990, Note_on_c, 1, 69, 127
1, 124019, Note_off_c, 1, 47, 0
1, 124019, Note_off_c, 1, 81, 0
1, 124019, Note_off_c, 1, 69, 0
1, 124020, Note_on_c, 1, 83, 127
1, 124020, Note_on_c, 1, 71, 127
1, 124020, Note_on_c, 1, 43, 127
1, 124049, Note_off_c, 1, 83, 0
1, 124049, Note_off_c, 1, 71, 0
1, 124050, Note_on_c, 1, 84, 127
1, 124050, Note_on_c, 1, 72, 127
1, 124079, Note_off_c, 1, 43, 0
1, 124079, Note_off_c, 1, 84, 0
1, 124079, Note_off_c, 1, 72, 0
1, 124080, Note_on_c, 1, 84, 127
1, 124080, Note_on_c, 1, 72, 127
1, 124080, Note_on_c, 1, 52, 127
1, 124109, Note_off_c, 1, 84, 0
1, 124109, Note_off_c, 1, 72, 0
1, 124110, Note_on_c, 1, 83, 127
1, 124110, Note_on_c, 1, 71, 127
1, 124139, Note_off_c, 1, 52, 0
1, 124139, Note_off_c, 1, 83, 0
1, 124139, Note_off_c, 1, 71, 0
1, 124140, Note_on_c, 1, 81, 127
1, 124140, Note_on_c, 1, 69, 127
1, 124140, Note_on_c, 1, 47, 127
1, 124169, Note_off_c, 1, 81, 0
1, 124169, Note_off_c, 1, 69, 0
1, 124170, Note_on_c, 1, 79, 127
1, 124170, Note_on_c, 1, 67, 127
1, 124199, Note_off_c, 1, 47, 0
1, 124199, Note_off_c, 1, 79, 0
1, 124199, Note_off_c, 1, 67, 0
1, 124200, Note_on_c, 1, 81, 127
1, 124200, Note_on_c, 1, 69, 127
1, 124200, Note_on_c, 1, 48, 127
1, 124215, Note_off_c, 1, 81, 0
1, 124215, Note_off_c, 1, 69, 0
1, 124215, Note_on_c, 1, 83, 127
1, 124215, Note_on_c, 1, 71, 127
1, 124230, Note_off_c, 1, 83, 0
1, 124230, Note_off_c, 1, 71, 0
1, 124259, Note_off_c, 1, 48, 0
1, 124260, Note_on_c, 1, 50, 127
1, 124300, Note_on_c, 1, 79, 127
1, 124300, Note_on_c, 1, 67, 127
1, 124310, Note_off_c, 1, 79, 0
1, 124310, Note_off_c, 1, 67, 0
1, 124319, Note_off_c, 1, 50, 0
1, 124320, Note_on_c, 1, 43, 127
1, 124379, Note_off_c, 1, 43, 0
1, 124380, Note_on_c, 1, 55, 127
1, 124439, Note_off_c, 1, 55, 0
1, 124440, Note_on_c, 1, 50, 127
1, 124499, Note_off_c, 1, 50, 0
1, 124500, Note_on_c, 1, 47, 127
1, 124559, Note_off_c, 1, 47, 0
1, 124560, Note_on_c, 1, 71, 127
1, 124560, Note_on_c, 1, 62, 127
1, 124560, Note_on_c, 1, 55, 127
1, 124560, Note_on_c, 1, 43, 127
1, 124619, Note_off_c, 1, 43, 0
1, 124649, Note_off_c, 1, 71, 0
1, 124649, Note_off_c, 1, 62, 0
1, 124650, Note_on_c, 1, 72, 127
1, 124650, Note_on_c, 1, 64, 127
1, 124664, Note_off_c, 1, 72, 0
1, 124664, Note_off_c, 1, 64, 0
1, 124665, Note_on_c, 1, 74, 127
1, 124665, Note_on_c, 1, 65, 127
1, 124679, Note_off_c, 1, 74, 0
1, 124679, Note_off_c, 1, 65, 0
1, 124740, Note_on_c, 1, 69, 127
1, 124740, Note_on_c, 1, 60, 127
1, 124769, Note_off_c, 1, 69, 0
1, 124769, Note_off_c, 1, 60, 0
1, 124770, Note_on_c, 1, 67, 127
1, 124770, Note_on_c, 1, 59, 127
1, 124799, Note_off_c, 1, 67, 0
1, 124799, Note_off_c, 1, 59, 0
1, 124860, Note_on_c, 1, 66, 127
1, 124860, Note_on_c, 1, 57, 127
1, 124919, Note_off_c, 1, 66, 0
1, 124919, Note_off_c, 1, 57, 0
1, 125520, Note_off_c, 1, 55, 0
1, 125760, Note_on_c, 1, 76, 127
1, 125819, Note_off_c, 1, 76, 0
1, 126240, Note_on_c, 1, 72, 127
1, 126240, Note_on_c, 1, 67, 127
1, 126240, Note_on_c, 1, 62, 127
1, 126240, Note_on_c, 1, 43, 127
1, 126269, Note_off_c, 1, 72, 0
1, 126270, Note_on_c, 1, 71, 127
1, 126299, Note_off_c, 1, 67, 0
1, 126299, Note_off_c, 1, 62, 0
1, 126299, Note_off_c, 1, 43, 0
1, 126299, Note_off_c, 1, 71, 0
1, 126300, Note_on_c, 1, 69, 127
1, 126300, Note_on_c, 1, 66, 127
1, 126300, Note_on_c, 1, 60, 127
1, 126300, Note_on_c, 1, 55, 127
1, 126329, Note_off_c, 1, 69, 0
1, 126330, Note_on_c, 1, 72, 127
1, 126359, Note_off_c, 1, 66, 0
1, 126359, Note_off_c, 1, 60, 0
1, 126359, Note_off_c, 1, 55, 0
1, 126359, Note_off_c, 1, 72, 0
1, 126360, Note_on_c, 1, 71, 127
1, 126360, Note_on_c, 1, 67, 127
1, 126360, Note_on_c, 1, 62, 127
1, 126360, Note_on_c, 1, 55, 127
1, 126419, Note_off_c, 1, 55, 0
1, 126420, Note_on_c, 1, 43, 127
1, 126479, Note_off_c, 1, 71, 0
1, 126479, Note_off_c, 1, 67, 0
1, 126479, Note_off_c, 1, 62, 0
1, 126479, Note_off_c, 1, 43, 0
1, 126480, Note_on_c, 1, 62, 127
1, 126480, Note_on_c, 1, 59, 127
1, 126480, Note_on_c, 1, 43, 127
1, 126539, Note_off_c, 1, 62, 0
1, 126539, Note_off_c, 1, 59, 0
1, 126540, Note_on_c, 1, 64, 127
1, 126540, Note_on_c, 1, 60, 127
1, 126540, Note_on_c, 1, 55, 127
1, 126599, Note_off_c, 1, 64, 0
1, 126599, Note_off_c, 1, 60, 0
1, 126599, Note_off_c, 1, 55, 0
1, 126660, Note_on_c, 1, 66, 127
1, 126660, Note_on_c, 1, 57, 127
1, 126719, Note_off_c, 1, 66, 0
1, 126719, Note_off_c, 1, 57, 0
1, 126780, Note_on_c, 1, 67, 127
1, 126809, Note_off_c, 1, 67, 0
1, 127140, Note_on_c, 1, 65, 127
1, 127199, Note_off_c, 1, 65, 0
1, 127260, Note_off_c, 1, 43, 0
1, 127260, Note_on_c, 1, 45, 127
1, 127319, Note_off_c, 1, 45, 0
1, 127320, Note_on_c, 1, 47, 127
1, 127379, Note_off_c, 1, 47, 0
1, 127440, Note_on_c, 1, 64, 127
1, 127440, Note_on_c, 1, 60, 127
1, 127440, Note_on_c, 1, 55, 127
1, 127440, Note_on_c, 1, 48, 127
1, 127499, Note_off_c, 1, 64, 0
1, 127499, Note_off_c, 1, 60, 0
1, 127499, Note_off_c, 1, 55, 0
1, 127499, Note_off_c, 1, 48, 0
1, 127500, Note_on_c, 1, 69, 127
1, 127559, Note_off_c, 1, 69, 0
1, 127560, Note_on_c, 1, 69, 127
1, 127560, Note_on_c, 1, 64, 127
1, 127560, Note_on_c, 1, 60, 127
1, 127560, Note_on_c, 1, 45, 127
1, 127619, Note_off_c, 1, 69, 0
1, 127619, Note_off_c, 1, 64, 0
1, 127619, Note_off_c, 1, 60, 0
1, 127619, Note_off_c, 1, 45, 0
1, 127620, Note_on_c, 1, 72, 127
1, 127679, Note_off_c, 1, 72, 0
1, 127680, Note_on_c, 1, 72, 127
1, 127680, Note_on_c, 1, 66, 127
1, 127680, Note_on_c, 1, 57, 127
1, 127680, Note_on_c, 1, 50, 127
1, 127739, Note_off_c, 1, 66, 0
1, 127739, Note_off_c, 1, 57, 0
1, 127739, Note_off_c, 1, 50, 0
1, 127769, Note_off_c, 1, 72, 0
1, 127770, Note_on_c, 1, 74, 127
1, 127784, Note_off_c, 1, 74, 0
1, 127785, Note_on_c, 1, 76, 127
1, 127799, Note_off_c, 1, 76, 0
1, 127800, Note_on_c, 1, 74, 127
1, 127800, Note_on_c, 1, 66, 127
1, 127800, Note_on_c, 1, 59, 127
1, 127800, Note_on_c, 1, 47, 127
1, 127829, Note_off_c, 1, 74, 0
1, 127830, Note_on_c, 1, 72, 127
1, 127859, Note_off_c, 1, 66, 0
1, 127859, Note_off_c, 1, 59, 0
1, 127859, Note_off_c, 1, 47, 0
1, 127859, Note_off_c, 1, 72, 0
1, 127860, Note_on_c, 1, 71, 127
1, 127889, Note_off_c, 1, 71, 0
1, 127890, Note_on_c, 1, 69, 127
1, 127919, Note_off_c, 1, 69, 0
1, 127920, Note_on_c, 1, 67, 127
1, 127920, Note_on_c, 1, 64, 127
1, 127920, Note_on_c, 1, 59, 127
1, 127920, Note_on_c, 1, 52, 127
1, 127949, Note_off_c, 1, 67, 0
1, 127950, Note_on_c, 1, 66, 127
1, 127979, Note_off_c, 1, 64, 0
1, 127979, Note_off_c, 1, 59, 0
1, 127979, Note_off_c, 1, 52, 0
1, 127979, Note_off_c, 1, 66, 0
1, 127980, Note_on_c, 1, 67, 127
1, 127980, Note_on_c, 1, 64, 127
1, 127980, Note_on_c, 1, 48, 127
1, 128010, Note_on_c, 1, 72, 127
1, 128039, Note_off_c, 1, 67, 0
1, 128039, Note_off_c, 1, 64, 0
1, 128039, Note_off_c, 1, 48, 0
1, 128039, Note_off_c, 1, 72, 0
1, 128040, Note_on_c, 1, 69, 127
1, 128040, Note_on_c, 1, 67, 127
1, 128040, Note_on_c, 1, 62, 127
1, 128040, Note_on_c, 1, 50, 127
1, 128099, Note_off_c, 1, 67, 0
1, 128099, Note_off_c, 1, 62, 0
1, 128099, Note_off_c, 1, 50, 0
1, 128100, Note_on_c, 1, 66, 127
1, 128100, Note_on_c, 1, 60, 127
1, 128100, Note_on_c, 1, 38, 127
1, 128129, Note_off_c, 1, 69, 0
1, 128159, Note_off_c, 1, 66, 0
1, 128159, Note_off_c, 1, 60, 0
1, 128159, Note_off_c, 1, 38, 0
1, 128160, Note_on_c, 1, 67, 127
1, 128160, Note_on_c, 1, 62, 127
1, 128160, Note_on_c, 1, 59, 127
1, 128160, Note_on_c, 1, 43, 127
1, 128219, Note_off_c, 1, 43, 0
1, 128220, Note_on_c, 1, 45, 127
1, 128279, Note_off_c, 1, 45, 0
1, 128340, Note_on_c, 1, 42, 127
1, 128399, Note_off_c, 1, 67, 0
1, 128399, Note_off_c, 1, 62, 0
1, 128399, Note_off_c, 1, 59, 0
1, 128399, Note_off_c, 1, 42, 0
1, 128400, Note_on_c, 1, 83, 127
1, 128400, Note_on_c, 1, 71, 127
1, 128400, Note_on_c, 1, 40, 127
1, 128459, Note_off_c, 1, 83, 0
1, 128459, Note_off_c, 1, 71, 0
1, 128459, Note_off_c, 1, 40, 0
1, 128460, Note_on_c, 1, 84, 127
1, 128460, Note_on_c, 1, 72, 127
1, 128460, Note_on_c, 1, 43, 127
1, 128489, Note_off_c, 1, 84, 0
1, 128489, Note_off_c, 1, 72, 0
1, 128490, Note_on_c, 1, 83, 127
1, 128490, Note_on_c, 1, 71, 127
1, 128519, Note_off_c, 1, 43, 0
1, 128519, Note_off_c, 1, 83, 0
1, 128519, Note_off_c, 1, 71, 0
1, 128520, Note_on_c, 1, 81, 127
1, 128520, Note_on_c, 1, 69, 127
1, 128520, Note_on_c, 1, 48, 127
1, 128549, Note_off_c, 1, 81, 0
1, 128549, Note_off_c, 1, 69, 0
1, 128550, Note_on_c, 1, 79, 127
1, 128550, Note_on_c, 1, 67, 127
1, 128579, Note_off_c, 1, 48, 0
1, 128579, Note_off_c, 1, 79, 0
1, 128579, Note_off_c, 1, 67, 0
1, 128580, Note_on_c, 1, 78, 127
1, 128580, Note_on_c, 1, 66, 127
1, 128580, Note_on_c, 1, 45, 127
1, 128609, Note_off_c, 1, 78, 0
1, 128609, Note_off_c, 1, 66, 0
1, 128610, Note_on_c, 1, 76, 127
1, 128610, Note_on_c, 1, 64, 127
1, 128639, Note_off_c, 1, 45, 0
1, 128639, Note_off_c, 1, 76, 0
1, 128639, Note_off_c, 1, 64, 0
1, 128640, Note_on_c, 1, 76, 127
1, 128640, Note_on_c, 1, 64, 127
1, 128640, Note_on_c, 1, 47, 127
1, 128670, Note_on_c, 1, 66, 127
1, 128670, Note_on_c, 1, 63, 127
1, 128699, Note_off_c, 1, 76, 0
1, 128699, Note_off_c, 1, 64, 0
1, 128699, Note_off_c, 1, 47, 0
1, 128699, Note_off_c, 1, 63, 0
1, 128700, Note_off_c, 1, 66, 0
1, 128700, Note_on_c, 1, 75, 127
1, 128700, Note_on_c, 1, 67, 127
1, 128700, Note_on_c, 1, 59, 127
1, 128730, Note_off_c, 1, 67, 0
1, 128730, Note_on_c, 1, 69, 127
1, 128759, Note_off_c, 1, 75, 0
1, 128759, Note_off_c, 1, 59, 0
1, 128760, Note_off_c, 1, 69, 0
1, 128820, Note_on_c, 1, 71, 127
1, 128820, Note_on_c, 1, 45, 127
1, 128879, Note_off_c, 1, 71, 0
1, 128879, Note_off_c, 1, 45, 0
1, 128880, Note_on_c, 1, 83, 127
1, 128880, Note_on_c, 1, 71, 127
1, 128880, Note_on_c, 1, 43, 127
1, 128939, Note_off_c, 1, 83, 0
1, 128939, Note_off_c, 1, 71, 0
1, 128939, Note_off_c, 1, 43, 0
1, 128940, Note_on_c, 1, 84, 127
1, 128940, Note_on_c, 1, 72, 127
1, 128940, Note_on_c, 1, 40, 127
1, 128969, Note_off_c, 1, 84, 0
1, 128969, Note_off_c, 1, 72, 0
1, 128970, Note_on_c, 1, 83, 127
1, 128970, Note_on_c, 1, 71, 127
1, 128999, Note_off_c, 1, 40, 0
1, 128999, Note_off_c, 1, 83, 0
1, 128999, Note_off_c, 1, 71, 0
1, 129000, Note_on_c, 1, 81, 127
1, 129000, Note_on_c, 1, 69, 127
1, 129000, Note_on_c, 1, 48, 127
1, 129029, Note_off_c, 1, 81, 0
1, 129029, Note_off_c, 1, 69, 0
1, 129030, Note_on_c, 1, 79, 127
1, 129030, Note_on_c, 1, 67, 127
1, 129059, Note_off_c, 1, 48, 0
1, 129059, Note_off_c, 1, 79, 0
1, 129059, Note_off_c, 1, 67, 0
1, 129060, Note_on_c, 1, 78, 127
1, 129060, Note_on_c, 1, 66, 127
1, 129060, Note_on_c, 1, 45, 127
1, 129089, Note_off_c, 1, 78, 0
1, 129089, Note_off_c, 1, 66, 0
1, 129090, Note_on_c, 1, 76, 127
1, 129090, Note_on_c, 1, 64, 127
1, 129119, Note_off_c, 1, 45, 0
1, 129119, Note_off_c, 1, 76, 0
1, 129119, Note_off_c, 1, 64, 0
1, 129120, Note_on_c, 1, 76, 127
1, 129120, Note_on_c, 1, 64, 127
1, 129120, Note_on_c, 1, 47, 127
1, 129150, Note_on_c, 1, 66, 127
1, 129150, Note_on_c, 1, 63, 127
1, 129179, Note_off_c, 1, 76, 0
1, 129179, Note_off_c, 1, 64, 0
1, 129179, Note_off_c, 1, 47, 0
1, 129179, Note_off_c, 1, 63, 0
1, 129180, Note_off_c, 1, 66, 0
1, 129180, Note_on_c, 1, 75, 127
1, 129180, Note_on_c, 1, 67, 127
1, 129180, Note_on_c, 1, 59, 127
1, 129210, Note_off_c, 1, 67, 0
1, 129210, Note_on_c, 1, 69, 127
1, 129239, Note_off_c, 1, 75, 0
1, 129239, Note_off_c, 1, 59, 0
1, 129240, Note_off_c, 1, 69, 0
1, 129240, Note_on_c, 1, 78, 127
1, 129240, Note_on_c, 1, 57, 127
1, 129299, Note_off_c, 1, 78, 0
1, 129299, Note_off_c, 1, 57, 0
1, 129300, Note_on_c, 1, 79, 127
1, 129300, Note_on_c, 1, 55, 127
1, 129359, Note_off_c, 1, 79, 0
1, 129359, Note_off_c, 1, 55, 0
1, 129360, Note_on_c, 1, 81, 127
1, 129360, Note_on_c, 1, 69, 127
1, 129360, Note_on_c, 1, 54, 127
1, 129419, Note_off_c, 1, 81, 0
1, 129419, Note_off_c, 1, 69, 0
1, 129419, Note_off_c, 1, 54, 0
1, 129420, Note_on_c, 1, 79, 127
1, 129420, Note_on_c, 1, 67, 127
1, 129420, Note_on_c, 1, 52, 127
1, 129479, Note_off_c, 1, 79, 0
1, 129479, Note_off_c, 1, 67, 0
1, 129479, Note_off_c, 1, 52, 0
1, 129480, Note_on_c, 1, 78, 127
1, 129480, Note_on_c, 1, 66, 127
1, 129480, Note_on_c, 1, 51, 127
1, 129539, Note_off_c, 1, 78, 0
1, 129539, Note_off_c, 1, 66, 0
1, 129539, Note_off_c, 1, 51, 0
1, 129540, Note_on_c, 1, 83, 127
1, 129540, Note_on_c, 1, 71, 127
1, 129540, Note_on_c, 1, 47, 127
1, 129599, Note_off_c, 1, 83, 0
1, 129599, Note_off_c, 1, 71, 0
1, 129599, Note_off_c, 1, 47, 0
1, 129600, Note_on_c, 1, 79, 127
1, 129600, Note_on_c, 1, 67, 127
1, 129600, Note_on_c, 1, 52, 127
1, 129629, Note_off_c, 1, 79, 0
1, 129629, Note_off_c, 1, 67, 0
1, 129630, Note_on_c, 1, 78, 127
1, 129630, Note_on_c, 1, 66, 127
1, 129659, Note_off_c, 1, 52, 0
1, 129659, Note_off_c, 1, 78, 0
1, 129659, Note_off_c, 1, 66, 0
1, 129660, Note_on_c, 1, 76, 127
1, 129660, Note_on_c, 1, 64, 127
1, 129660, Note_on_c, 1, 54, 127
1, 129719, Note_off_c, 1, 54, 0
1, 129720, Note_on_c, 1, 55, 127
1, 129749, Note_off_c, 1, 76, 0
1, 129749, Note_off_c, 1, 64, 0
1, 129750, Note_on_c, 1, 71, 127
1, 129750, Note_on_c, 1, 59, 127
1, 129779, Note_off_c, 1, 55, 0
1, 129779, Note_off_c, 1, 71, 0
1, 129779, Note_off_c, 1, 59, 0
1, 129780, Note_on_c, 1, 76, 127
1, 129780, Note_on_c, 1, 64, 127
1, 129780, Note_on_c, 1, 54, 127
1, 129809, Note_off_c, 1, 76, 0
1, 129809, Note_off_c, 1, 64, 0
1, 129810, Note_on_c, 1, 78, 127
1, 129810, Note_on_c, 1, 66, 127
1, 129839, Note_off_c, 1, 54, 0
1, 129839, Note_off_c, 1, 78, 0
1, 129839, Note_off_c, 1, 66, 0
1, 129840, Note_on_c, 1, 79, 127
1, 129840, Note_on_c, 1, 67, 127
1, 129840, Note_on_c, 1, 52, 127
1, 129869, Note_off_c, 1, 79, 0
1, 129869, Note_off_c, 1, 67, 0
1, 129870, Note_on_c, 1, 78, 127
1, 129870, Note_on_c, 1, 66, 127
1, 129899, Note_off_c, 1, 52, 0
1, 129899, Note_off_c, 1, 78, 0
1, 129899, Note_off_c, 1, 66, 0
1, 129900, Note_on_c, 1, 79, 127
1, 129900, Note_on_c, 1, 67, 127
1, 129900, Note_on_c, 1, 50, 127
1, 129929, Note_off_c, 1, 79, 0
1, 129929, Note_off_c, 1, 67, 0
1, 129930, Note_on_c, 1, 83, 127
1, 129930, Note_on_c, 1, 71, 127
1, 129959, Note_off_c, 1, 50, 0
1, 129959, Note_off_c, 1, 83, 0
1, 129959, Note_off_c, 1, 71, 0
1, 129960, Note_on_c, 1, 81, 127
1, 129960, Note_on_c, 1, 69, 127
1, 129960, Note_on_c, 1, 49, 127
1, 129989, Note_off_c, 1, 81, 0
1, 129989, Note_off_c, 1, 69, 0
1, 129990, Note_on_c, 1, 79, 127
1, 129990, Note_on_c, 1, 67, 127
1, 130019, Note_off_c, 1, 49, 0
1, 130019, Note_off_c, 1, 79, 0
1, 130019, Note_off_c, 1, 67, 0
1, 130020, Note_on_c, 1, 78, 127
1, 130020, Note_on_c, 1, 66, 127
1, 130020, Note_on_c, 1, 45, 127
1, 130049, Note_off_c, 1, 78, 0
1, 130049, Note_off_c, 1, 66, 0
1, 130050, Note_on_c, 1, 76, 127
1, 130050, Note_on_c, 1, 64, 127
1, 130079, Note_off_c, 1, 45, 0
1, 130079, Note_off_c, 1, 76, 0
1, 130079, Note_off_c, 1, 64, 0
1, 130080, Note_on_c, 1, 79, 127
1, 130080, Note_on_c, 1, 67, 127
1, 130080, Note_on_c, 1, 38, 127
1, 130109, Note_off_c, 1, 79, 0
1, 130109, Note_off_c, 1, 67, 0
1, 130110, Note_on_c, 1, 78, 127
1, 130110, Note_on_c, 1, 66, 127
1, 130139, Note_off_c, 1, 38, 0
1, 130139, Note_off_c, 1, 78, 0
1, 130139, Note_off_c, 1, 66, 0
1, 130140, Note_on_c, 1, 76, 127
1, 130140, Note_on_c, 1, 64, 127
1, 130140, Note_on_c, 1, 50, 127
1, 130169, Note_off_c, 1, 76, 0
1, 130169, Note_off_c, 1, 64, 0
1, 130170, Note_on_c, 1, 74, 127
1, 130170, Note_on_c, 1, 62, 127
1, 130199, Note_off_c, 1, 50, 0
1, 130199, Note_off_c, 1, 74, 0
1, 130199, Note_off_c, 1, 62, 0
1, 130200, Note_on_c, 1, 81, 127
1, 130200, Note_on_c, 1, 69, 127
1, 130200, Note_on_c, 1, 48, 127
1, 130259, Note_off_c, 1, 81, 0
1, 130259, Note_off_c, 1, 69, 0
1, 130259, Note_off_c, 1, 48, 0
1, 130260, Note_on_c, 1, 83, 127
1, 130260, Note_on_c, 1, 71, 127
1, 130260, Note_on_c, 1, 47, 127
1, 130270, Note_off_c, 1, 83, 0
1, 130270, Note_off_c, 1, 71, 0
1, 130270, Note_on_c, 1, 84, 127
1, 130270, Note_on_c, 1, 72, 127
1, 130280, Note_off_c, 1, 84, 0
1, 130280, Note_off_c, 1, 72, 0
1, 130319, Note_off_c, 1, 47, 0
1, 130320, Note_on_c, 1, 76, 127
1, 130320, Note_on_c, 1, 45, 127
1, 130379, Note_off_c, 1, 76, 0
1, 130379, Note_off_c, 1, 45, 0
1, 130380, Note_on_c, 1, 86, 127
1, 130380, Note_on_c, 1, 77, 127
1, 130380, Note_on_c, 1, 74, 127
1, 130380, Note_on_c, 1, 43, 127
1, 130409, Note_off_c, 1, 86, 0
1, 130409, Note_off_c, 1, 77, 0
1, 130409, Note_off_c, 1, 74, 0
1, 130410, Note_on_c, 1, 84, 127
1, 130410, Note_on_c, 1, 76, 127
1, 130410, Note_on_c, 1, 72, 127
1, 130439, Note_off_c, 1, 43, 0
1, 130439, Note_off_c, 1, 84, 0
1, 130439, Note_off_c, 1, 76, 0
1, 130439, Note_off_c, 1, 72, 0
1, 130440, Note_on_c, 1, 83, 127
1, 130440, Note_on_c, 1, 74, 127
1, 130440, Note_on_c, 1, 71, 127
1, 130440, Note_on_c, 1, 41, 127
1, 130469, Note_off_c, 1, 83, 0
1, 130469, Note_off_c, 1, 74, 0
1, 130469, Note_off_c, 1, 71, 0
1, 130470, Note_on_c, 1, 81, 127
1, 130470, Note_on_c, 1, 72, 127
1, 130470, Note_on_c, 1, 69, 127
1, 130499, Note_off_c, 1, 41, 0
1, 130499, Note_off_c, 1, 81, 0
1, 130499, Note_off_c, 1, 72, 0
1, 130499, Note_off_c, 1, 69, 0
1, 130500, Note_on_c, 1, 80, 127
1, 130500, Note_on_c, 1, 71, 127
1, 130500, Note_on_c, 1, 68, 127
1, 130500, Note_on_c, 1, 53, 127
1, 130529, Note_off_c, 1, 80, 0
1, 130529, Note_off_c, 1, 71, 0
1, 130529, Note_off_c, 1, 68, 0
1, 130530, Note_on_c, 1, 81, 127
1, 130530, Note_on_c, 1, 69, 127
1, 130559, Note_off_c, 1, 53, 0
1, 130559, Note_off_c, 1, 81, 0
1, 130559, Note_off_c, 1, 69, 0
1, 130560, Note_on_c, 1, 83, 127
1, 130560, Note_on_c, 1, 68, 127
1, 130560, Note_on_c, 1, 71, 127
1, 130560, Note_on_c, 1, 52, 127
1, 130619, Note_off_c, 1, 83, 0
1, 130619, Note_off_c, 1, 71, 0
1, 130619, Note_off_c, 1, 52, 0
1, 130620, Note_on_c, 1, 84, 127
1, 130620, Note_on_c, 1, 69, 127
1, 130620, Note_on_c, 1, 72, 127
1, 130620, Note_on_c, 1, 40, 127
1, 130649, Note_off_c, 1, 84, 0
1, 130649, Note_off_c, 1, 69, 0
1, 130649, Note_off_c, 1, 72, 0
1, 130650, Note_on_c, 1, 86, 127
1, 130650, Note_on_c, 1, 74, 127
1, 130679, Note_off_c, 1, 68, 0
1, 130679, Note_off_c, 1, 40, 0
1, 130679, Note_off_c, 1, 86, 0
1, 130679, Note_off_c, 1, 74, 0
1, 130680, Note_on_c, 1, 84, 127
1, 130680, Note_on_c, 1, 64, 127
1, 130680, Note_on_c, 1, 72, 127
1, 130680, Note_on_c, 1, 42, 127
1, 130709, Note_off_c, 1, 84, 0
1, 130709, Note_off_c, 1, 72, 0
1, 130710, Note_on_c, 1, 83, 127
1, 130710, Note_on_c, 1, 71, 127
1, 130739, Note_off_c, 1, 64, 0
1, 130739, Note_off_c, 1, 42, 0
1, 130739, Note_off_c, 1, 83, 0
1, 130739, Note_off_c, 1, 71, 0
1, 130740, Note_on_c, 1, 81, 127
1, 130740, Note_on_c, 1, 64, 127
1, 130740, Note_on_c, 1, 69, 127
1, 130740, Note_on_c, 1, 44, 127
1, 130769, Note_off_c, 1, 81, 0
1, 130769, Note_off_c, 1, 69, 0
1, 130770, Note_on_c, 1, 83, 127
1, 130770, Note_on_c, 1, 71, 127
1, 130799, Note_off_c, 1, 64, 0
1, 130799, Note_off_c, 1, 44, 0
1, 130799, Note_off_c, 1, 83, 0
1, 130799, Note_off_c, 1, 71, 0
1, 130800, Note_on_c, 1, 84, 127
1, 130800, Note_on_c, 1, 76, 127
1, 130800, Note_on_c, 1, 72, 127
1, 130800, Note_on_c, 1, 45, 127
1, 130829, Note_off_c, 1, 84, 0
1, 130829, Note_off_c, 1, 72, 0
1, 130830, Note_on_c, 1, 83, 127
1, 130830, Note_on_c, 1, 71, 127
1, 130859, Note_off_c, 1, 76, 0
1, 130859, Note_off_c, 1, 45, 0
1, 130859, Note_off_c, 1, 83, 0
1, 130859, Note_off_c, 1, 71, 0
1, 130860, Note_on_c, 1, 86, 127
1, 130860, Note_on_c, 1, 77, 127
1, 130860, Note_on_c, 1, 74, 127
1, 130860, Note_on_c, 1, 57, 127
1, 130889, Note_off_c, 1, 86, 0
1, 130889, Note_off_c, 1, 77, 0
1, 130889, Note_off_c, 1, 74, 0
1, 130890, Note_on_c, 1, 84, 127
1, 130890, Note_on_c, 1, 76, 127
1, 130890, Note_on_c, 1, 72, 127
1, 130919, Note_off_c, 1, 57, 0
1, 130919, Note_off_c, 1, 84, 0
1, 130919, Note_off_c, 1, 76, 0
1, 130919, Note_off_c, 1, 72, 0
1, 130920, Note_on_c, 1, 83, 127
1, 130920, Note_on_c, 1, 74, 127
1, 130920, Note_on_c, 1, 71, 127
1, 130920, Note_on_c, 1, 50, 127
1, 130949, Note_off_c, 1, 83, 0
1, 130949, Note_off_c, 1, 74, 0
1, 130949, Note_off_c, 1, 71, 0
1, 130950, Note_on_c, 1, 81, 127
1, 130950, Note_on_c, 1, 72, 127
1, 130950, Note_on_c, 1, 69, 127
1, 130979, Note_off_c, 1, 50, 0
1, 130979, Note_off_c, 1, 81, 0
1, 130979, Note_off_c, 1, 72, 0
1, 130979, Note_off_c, 1, 69, 0
1, 130980, Note_on_c, 1, 80, 127
1, 130980, Note_on_c, 1, 71, 127
1, 130980, Note_on_c, 1, 68, 127
1, 130980, Note_on_c, 1, 53, 127
1, 131009, Note_off_c, 1, 80, 0
1, 131009, Note_off_c, 1, 71, 0
1, 131009, Note_off_c, 1, 68, 0
1, 131010, Note_on_c, 1, 81, 127
1, 131010, Note_on_c, 1, 69, 127
1, 131039, Note_off_c, 1, 53, 0
1, 131039, Note_off_c, 1, 81, 0
1, 131039, Note_off_c, 1, 69, 0
1, 131040, Note_on_c, 1, 83, 127
1, 131040, Note_on_c, 1, 68, 127
1, 131040, Note_on_c, 1, 71, 127
1, 131040, Note_on_c, 1, 52, 127
1, 131099, Note_off_c, 1, 83, 0
1, 131099, Note_off_c, 1, 71, 0
1, 131099, Note_off_c, 1, 52, 0
1, 131100, Note_on_c, 1, 76, 127
1, 131100, Note_on_c, 1, 72, 127
1, 131100, Note_on_c, 1, 69, 127
1, 131100, Note_on_c, 1, 64, 127
1, 131100, Note_on_c, 1, 40, 127
1, 131129, Note_off_c, 1, 72, 0
1, 131129, Note_off_c, 1, 69, 0
1, 131130, Note_on_c, 1, 74, 127
1, 131159, Note_off_c, 1, 68, 0
1, 131159, Note_off_c, 1, 76, 0
1, 131159, Note_off_c, 1, 64, 0
1, 131159, Note_off_c, 1, 40, 0
1, 131159, Note_off_c, 1, 74, 0
1, 131160, Note_on_c, 1, 71, 127
1, 131160, Note_on_c, 1, 68, 127
1, 131160, Note_on_c, 1, 64, 127
1, 131160, Note_on_c, 1, 50, 127
1, 131219, Note_off_c, 1, 71, 0
1, 131219, Note_off_c, 1, 68, 0
1, 131219, Note_off_c, 1, 64, 0
1, 131219, Note_off_c, 1, 50, 0
1, 131220, Note_on_c, 1, 81, 127
1, 131220, Note_on_c, 1, 72, 127
1, 131220, Note_on_c, 1, 69, 127
1, 131220, Note_on_c, 1, 48, 127
1, 131279, Note_off_c, 1, 72, 0
1, 131279, Note_off_c, 1, 48, 0
1, 131280, Note_on_c, 1, 74, 127
1, 131280, Note_on_c, 1, 47, 127
1, 131309, Note_off_c, 1, 81, 0
1, 131309, Note_off_c, 1, 69, 0
1, 131310, Note_on_c, 1, 80, 127
1, 131310, Note_on_c, 1, 68, 127
1, 131339, Note_off_c, 1, 74, 0
1, 131339, Note_off_c, 1, 47, 0
1, 131339, Note_off_c, 1, 80, 0
1, 131339, Note_off_c, 1, 68, 0
1, 131340, Note_on_c, 1, 81, 127
1, 131340, Note_on_c, 1, 72, 127
1, 131340, Note_on_c, 1, 69, 127
1, 131340, Note_on_c, 1, 45, 127
1, 131369, Note_off_c, 1, 81, 0
1, 131369, Note_off_c, 1, 69, 0
1, 131370, Note_on_c, 1, 83, 127
1, 131370, Note_on_c, 1, 71, 127
1, 131399, Note_off_c, 1, 72, 0
1, 131399, Note_off_c, 1, 45, 0
1, 131399, Note_off_c, 1, 83, 0
1, 131399, Note_off_c, 1, 71, 0
1, 131400, Note_on_c, 1, 81, 127
1, 131400, Note_on_c, 1, 71, 127
1, 131400, Note_on_c, 1, 69, 127
1, 131400, Note_on_c, 1, 52, 127
1, 131429, Note_off_c, 1, 81, 0
1, 131429, Note_off_c, 1, 69, 0
1, 131430, Note_on_c, 1, 80, 127
1, 131430, Note_on_c, 1, 68, 127
1, 131459, Note_off_c, 1, 71, 0
1, 131459, Note_off_c, 1, 52, 0
1, 131459, Note_off_c, 1, 80, 0
1, 131459, Note_off_c, 1, 68, 0
1, 131460, Note_on_c, 1, 78, 127
1, 131460, Note_on_c, 1, 76, 127
1, 131460, Note_on_c, 1, 66, 127
1, 131460, Note_on_c, 1, 56, 127
1, 131489, Note_off_c, 1, 78, 0
1, 131489, Note_off_c, 1, 66, 0
1, 131490, Note_on_c, 1, 64, 127
1, 131519, Note_off_c, 1, 76, 0
1, 131519, Note_off_c, 1, 56, 0
1, 131519, Note_off_c, 1, 64, 0
1, 131520, Note_on_c, 1, 81, 127
1, 131520, Note_on_c, 1, 72, 127
1, 131520, Note_on_c, 1, 69, 127
1, 131520, Note_on_c, 1, 57, 127
1, 131549, Note_off_c, 1, 72, 0
1, 131550, Note_on_c, 1, 71, 127
1, 131579, Note_off_c, 1, 57, 0
1, 131579, Note_off_c, 1, 71, 0
1, 131580, Note_on_c, 1, 55, 127
1, 131639, Note_off_c, 1, 81, 0
1, 131639, Note_off_c, 1, 55, 0
1, 131640, Note_on_c, 1, 54, 127
1, 131669, Note_off_c, 1, 69, 0
1, 131670, Note_on_c, 1, 64, 127
1, 131699, Note_off_c, 1, 54, 0
1, 131699, Note_off_c, 1, 64, 0
1, 131700, Note_on_c, 1, 79, 127
1, 131700, Note_on_c, 1, 69, 127
1, 131700, Note_on_c, 1, 67, 127
1, 131700, Note_on_c, 1, 52, 127
1, 131729, Note_off_c, 1, 69, 0
1, 131730, Note_on_c, 1, 71, 127
1, 131759, Note_off_c, 1, 79, 0
1, 131759, Note_off_c, 1, 67, 0
1, 131759, Note_off_c, 1, 52, 0
1, 131759, Note_off_c, 1, 71, 0
1, 131760, Note_on_c, 1, 78, 127
1, 131760, Note_on_c, 1, 72, 127
1, 131760, Note_on_c, 1, 66, 127
1, 131760, Note_on_c, 1, 50, 127
1, 131789, Note_off_c, 1, 78, 0
1, 131789, Note_off_c, 1, 72, 0
1, 131789, Note_off_c, 1, 66, 0
1, 131790, Note_on_c, 1, 79, 127
1, 131790, Note_on_c, 1, 71, 127
1, 131790, Note_on_c, 1, 67, 127
1, 131819, Note_off_c, 1, 50, 0
1, 131819, Note_off_c, 1, 79, 0
1, 131819, Note_off_c, 1, 71, 0
1, 131819, Note_off_c, 1, 67, 0
1, 131820, Note_on_c, 1, 81, 127
1, 131820, Note_on_c, 1, 72, 127
1, 131820, Note_on_c, 1, 69, 127
1, 131820, Note_on_c, 1, 45, 127
1, 131849, Note_off_c, 1, 72, 0
1, 131850, Note_on_c, 1, 76, 127
1, 131879, Note_off_c, 1, 45, 0
1, 131879, Note_off_c, 1, 76, 0
1, 131880, Note_on_c, 1, 74, 127
1, 131880, Note_on_c, 1, 42, 127
1, 131909, Note_off_c, 1, 74, 0
1, 131939, Note_off_c, 1, 81, 0
1, 131939, Note_off_c, 1, 69, 0
1, 131939, Note_off_c, 1, 42, 0
1, 131940, Note_on_c, 1, 79, 127
1, 131940, Note_on_c, 1, 71, 127
1, 131940, Note_on_c, 1, 67, 127
1, 131940, Note_on_c, 1, 38, 127
1, 131969, Note_off_c, 1, 79, 0
1, 131969, Note_off_c, 1, 71, 0
1, 131969, Note_off_c, 1, 67, 0
1, 131970, Note_on_c, 1, 78, 127
1, 131970, Note_on_c, 1, 69, 127
1, 131970, Note_on_c, 1, 66, 127
1, 131999, Note_off_c, 1, 38, 0
1, 131999, Note_off_c, 1, 78, 0
1, 131999, Note_off_c, 1, 69, 0
1, 131999, Note_off_c, 1, 66, 0
1, 132000, Note_on_c, 1, 79, 127
1, 132000, Note_on_c, 1, 71, 127
1, 132000, Note_on_c, 1, 67, 127
1, 132000, Note_on_c, 1, 43, 127
1, 132029, Note_off_c, 1, 71, 0
1, 132030, Note_on_c, 1, 69, 127
1, 132059, Note_off_c, 1, 43, 0
1, 132059, Note_off_c, 1, 69, 0
1, 132060, Note_on_c, 1, 45, 127
1, 132119, Note_off_c, 1, 79, 0
1, 132119, Note_off_c, 1, 45, 0
1, 132120, Note_on_c, 1, 47, 127
1, 132149, Note_off_c, 1, 67, 0
1, 132150, Note_on_c, 1, 62, 127
1, 132179, Note_off_c, 1, 47, 0
1, 132179, Note_off_c, 1, 62, 0
1, 132180, Note_on_c, 1, 78, 127
1, 132180, Note_on_c, 1, 67, 127
1, 132180, Note_on_c, 1, 66, 127
1, 132180, Note_on_c, 1, 45, 127
1, 132209, Note_off_c, 1, 67, 0
1, 132210, Note_on_c, 1, 69, 127
1, 132239, Note_off_c, 1, 45, 0
1, 132239, Note_off_c, 1, 69, 0
1, 132240, Note_on_c, 1, 71, 127
1, 132240, Note_on_c, 1, 43, 127
1, 132269, Note_off_c, 1, 71, 0
1, 132299, Note_off_c, 1, 78, 0
1, 132299, Note_off_c, 1, 66, 0
1, 132299, Note_off_c, 1, 43, 0
1, 132300, Note_on_c, 1, 76, 127
1, 132300, Note_on_c, 1, 72, 127
1, 132300, Note_on_c, 1, 64, 127
1, 132300, Note_on_c, 1, 45, 127
1, 132329, Note_off_c, 1, 76, 0
1, 132329, Note_off_c, 1, 72, 0
1, 132329, Note_off_c, 1, 64, 0
1, 132330, Note_off_c, 1, 45, 0
1, 132330, Note_on_c, 1, 75, 127
1, 132330, Note_on_c, 1, 71, 127
1, 132330, Note_on_c, 1, 63, 127
1, 132330, Note_on_c, 1, 47, 127
1, 132359, Note_off_c, 1, 75, 0
1, 132359, Note_off_c, 1, 71, 0
1, 132359, Note_off_c, 1, 63, 0
1, 132360, Note_off_c, 1, 47, 0
1, 132360, Note_on_c, 1, 69, 127
1, 132360, Note_on_c, 1, 48, 127
1, 132389, Note_off_c, 1, 69, 0
1, 132390, Note_on_c, 1, 67, 127
1, 132419, Note_off_c, 1, 48, 0
1, 132419, Note_off_c, 1, 67, 0
1, 132420, Note_on_c, 1, 81, 127
1, 132420, Note_on_c, 1, 66, 127
1, 132420, Note_on_c, 1, 69, 127
1, 132420, Note_on_c, 1, 42, 127
1, 132449, Note_off_c, 1, 66, 0
1, 132450, Note_on_c, 1, 64, 127
1, 132479, Note_off_c, 1, 42, 0
1, 132479, Note_off_c, 1, 64, 0
1, 132480, Note_on_c, 1, 63, 127
1, 132480, Note_on_c, 1, 47, 127
1, 132509, Note_off_c, 1, 81, 0
1, 132509, Note_off_c, 1, 69, 0
1, 132510, Note_on_c, 1, 84, 127
1, 132510, Note_on_c, 1, 72, 127
1, 132539, Note_off_c, 1, 47, 0
1, 132539, Note_off_c, 1, 84, 0
1, 132539, Note_off_c, 1, 72, 0
1, 132540, Note_on_c, 1, 83, 127
1, 132540, Note_on_c, 1, 67, 127
1, 132540, Note_on_c, 1, 71, 127
1, 132540, Note_on_c, 1, 43, 127
1, 132569, Note_off_c, 1, 83, 0
1, 132569, Note_off_c, 1, 67, 0
1, 132569, Note_off_c, 1, 71, 0
1, 132599, Note_off_c, 1, 63, 0
1, 132599, Note_off_c, 1, 43, 0
1, 132600, Note_on_c, 1, 83, 127
1, 132600, Note_on_c, 1, 63, 127
1, 132600, Note_on_c, 1, 59, 127
1, 132600, Note_on_c, 1, 71, 127
1, 132600, Note_on_c, 1, 45, 127
1, 132629, Note_off_c, 1, 83, 0
1, 132629, Note_off_c, 1, 71, 0
1, 132630, Note_on_c, 1, 81, 127
1, 132630, Note_on_c, 1, 69, 127
1, 132659, Note_off_c, 1, 63, 0
1, 132659, Note_off_c, 1, 59, 0
1, 132659, Note_off_c, 1, 45, 0
1, 132659, Note_off_c, 1, 81, 0
1, 132659, Note_off_c, 1, 69, 0
1, 132660, Note_on_c, 1, 79, 127
1, 132660, Note_on_c, 1, 59, 127
1, 132660, Note_on_c, 1, 67, 127
1, 132660, Note_on_c, 1, 47, 127
1, 132689, Note_off_c, 1, 79, 0
1, 132689, Note_off_c, 1, 67, 0
1, 132690, Note_on_c, 1, 78, 127
1, 132690, Note_on_c, 1, 66, 127
1, 132719, Note_off_c, 1, 59, 0
1, 132719, Note_off_c, 1, 47, 0
1, 132719, Note_off_c, 1, 78, 0
1, 132719, Note_off_c, 1, 66, 0
1, 132720, Note_on_c, 1, 79, 127
1, 132720, Note_on_c, 1, 71, 127
1, 132720, Note_on_c, 1, 67, 127
1, 132720, Note_on_c, 1, 40, 127
1, 132779, Note_off_c, 1, 79, 0
1, 132779, Note_off_c, 1, 71, 0
1, 132779, Note_off_c, 1, 67, 0
1, 132779, Note_off_c, 1, 40, 0
1, 132780, Note_on_c, 1, 76, 127
1, 132780, Note_on_c, 1, 72, 127
1, 132780, Note_on_c, 1, 64, 127
1, 132780, Note_on_c, 1, 52, 127
1, 132809, Note_off_c, 1, 72, 0
1, 132809, Note_off_c, 1, 52, 0
1, 132810, Note_on_c, 1, 71, 127
1, 132810, Note_on_c, 1, 54, 127
1, 132839, Note_off_c, 1, 76, 0
1, 132839, Note_off_c, 1, 64, 0
1, 132839, Note_off_c, 1, 71, 0
1, 132839, Note_off_c, 1, 54, 0
1, 132840, Note_on_c, 1, 83, 127
1, 132840, Note_on_c, 1, 69, 127
1, 132840, Note_on_c, 1, 71, 127
1, 132840, Note_on_c, 1, 55, 127
1, 132869, Note_off_c, 1, 69, 0
1, 132870, Note_on_c, 1, 67, 127
1, 132899, Note_off_c, 1, 55, 0
1, 132899, Note_off_c, 1, 67, 0
1, 132900, Note_on_c, 1, 66, 127
1, 132900, Note_on_c, 1, 57, 127
1, 132929, Note_off_c, 1, 66, 0
1, 132930, Note_on_c, 1, 64, 127
1, 132959, Note_off_c, 1, 57, 0
1, 132959, Note_off_c, 1, 64, 0
1, 132960, Note_on_c, 1, 63, 127
1, 132960, Note_on_c, 1, 59, 127
1, 133019, Note_off_c, 1, 83, 0
1, 133019, Note_off_c, 1, 71, 0
1, 133019, Note_off_c, 1, 63, 0
1, 133019, Note_off_c, 1, 59, 0
1, 133020, Note_on_c, 1, 84, 127
1, 133020, Note_on_c, 1, 64, 127
1, 133020, Note_on_c, 1, 67, 127
1, 133020, Note_on_c, 1, 72, 127
1, 133020, Note_on_c, 1, 47, 127
1, 133049, Note_off_c, 1, 84, 0
1, 133049, Note_off_c, 1, 67, 0
1, 133049, Note_off_c, 1, 72, 0
1, 133050, Note_on_c, 1, 83, 127
1, 133050, Note_on_c, 1, 69, 127
1, 133050, Note_on_c, 1, 71, 127
1, 133079, Note_off_c, 1, 64, 0
1, 133079, Note_off_c, 1, 47, 0
1, 133079, Note_off_c, 1, 83, 0
1, 133079, Note_off_c, 1, 69, 0
1, 133079, Note_off_c, 1, 71, 0
1, 133080, Note_on_c, 1, 81, 127
1, 133080, Note_on_c, 1, 66, 127
1, 133080, Note_on_c, 1, 59, 127
1, 133080, Note_on_c, 1, 69, 127
1, 133080, Note_on_c, 1, 51, 127
1, 133109, Note_off_c, 1, 81, 0
1, 133109, Note_off_c, 1, 69, 0
1, 133110, Note_on_c, 1, 79, 127
1, 133110, Note_on_c, 1, 67, 127
1, 133139, Note_off_c, 1, 59, 0
1, 133139, Note_off_c, 1, 51, 0
1, 133139, Note_off_c, 1, 79, 0
1, 133139, Note_off_c, 1, 67, 0
1, 133140, Note_on_c, 1, 78, 127
1, 133140, Note_on_c, 1, 54, 127
1, 133169, Note_off_c, 1, 78, 0
1, 133170, Note_on_c, 1, 76, 127
1, 133170, Note_on_c, 1, 64, 127
1, 133199, Note_off_c, 1, 54, 0
1, 133199, Note_off_c, 1, 76, 0
1, 133199, Note_off_c, 1, 64, 0
1, 133200, Note_on_c, 1, 57, 127
1, 133259, Note_off_c, 1, 66, 0
1, 133259, Note_off_c, 1, 57, 0
1, 133260, Note_on_c, 1, 75, 127
1, 133260, Note_on_c, 1, 67, 127
1, 133260, Note_on_c, 1, 71, 127
1, 133260, Note_on_c, 1, 63, 127
1, 133260, Note_on_c, 1, 54, 127
1, 133289, Note_off_c, 1, 67, 0
1, 133289, Note_off_c, 1, 71, 0
1, 133290, Note_on_c, 1, 69, 127
1, 133290, Note_on_c, 1, 72, 127
1, 133319, Note_off_c, 1, 75, 0
1, 133319, Note_off_c, 1, 63, 0
1, 133319, Note_off_c, 1, 54, 0
1, 133319, Note_off_c, 1, 69, 0
1, 133319, Note_off_c, 1, 72, 0
1, 133320, Note_on_c, 1, 67, 127
1, 133320, Note_on_c, 1, 63, 127
1, 133320, Note_on_c, 1, 59, 127
1, 133349, Note_off_c, 1, 67, 0
1, 133349, Note_off_c, 1, 59, 0
1, 133350, Note_on_c, 1, 66, 127
1, 133350, Note_on_c, 1, 57, 127
1, 133379, Note_off_c, 1, 63, 0
1, 133379, Note_off_c, 1, 66, 0
1, 133379, Note_off_c, 1, 57, 0
1, 133380, Note_on_c, 1, 71, 127
1, 133380, Note_on_c, 1, 64, 127
1, 133380, Note_on_c, 1, 59, 127
1, 133380, Note_on_c, 1, 55, 127
1, 133409, Note_off_c, 1, 64, 0
1, 133409, Note_off_c, 1, 55, 0
1, 133410, Note_on_c, 1, 66, 127
1, 133410, Note_on_c, 1, 54, 127
1, 133439, Note_off_c, 1, 71, 0
1, 133439, Note_off_c, 1, 59, 0
1, 133439, Note_off_c, 1, 66, 0
1, 133439, Note_off_c, 1, 54, 0
1, 133440, Note_on_c, 1, 83, 127
1, 133440, Note_on_c, 1, 67, 127
1, 133440, Note_on_c, 1, 71, 127
1, 133440, Note_on_c, 1, 52, 127
1, 133499, Note_off_c, 1, 83, 0
1, 133499, Note_off_c, 1, 67, 0
1, 133499, Note_off_c, 1, 71, 0
1, 133499, Note_off_c, 1, 52, 0
1, 133500, Note_on_c, 1, 84, 127
1, 133500, Note_on_c, 1, 69, 127
1, 133500, Note_on_c, 1, 72, 127
1, 133500, Note_on_c, 1, 50, 127
1, 133529, Note_off_c, 1, 84, 0
1, 133529, Note_off_c, 1, 69, 0
1, 133529, Note_off_c, 1, 72, 0
1, 133530, Note_on_c, 1, 83, 127
1, 133530, Note_on_c, 1, 71, 127
1, 133559, Note_off_c, 1, 50, 0
1, 133559, Note_off_c, 1, 83, 0
1, 133559, Note_off_c, 1, 71, 0
1, 133560, Note_on_c, 1, 81, 127
1, 133560, Note_on_c, 1, 64, 127
1, 133560, Note_on_c, 1, 69, 127
1, 133560, Note_on_c, 1, 48, 127
1, 133589, Note_off_c, 1, 81, 0
1, 133589, Note_off_c, 1, 69, 0
1, 133590, Note_on_c, 1, 79, 127
1, 133590, Note_on_c, 1, 67, 127
1, 133619, Note_off_c, 1, 64, 0
1, 133619, Note_off_c, 1, 48, 0
1, 133619, Note_off_c, 1, 79, 0
1, 133619, Note_off_c, 1, 67, 0
1, 133620, Note_on_c, 1, 78, 127
1, 133620, Note_on_c, 1, 72, 127
1, 133620, Note_on_c, 1, 66, 127
1, 133620, Note_on_c, 1, 45, 127
1, 133649, Note_off_c, 1, 78, 0
1, 133649, Note_off_c, 1, 66, 0
1, 133650, Note_on_c, 1, 76, 127
1, 133650, Note_on_c, 1, 64, 127
1, 133679, Note_off_c, 1, 45, 0
1, 133679, Note_off_c, 1, 76, 0
1, 133679, Note_off_c, 1, 64, 0
1, 133680, Note_on_c, 1, 75, 127
1, 133680, Note_on_c, 1, 63, 127
1, 133680, Note_on_c, 1, 47, 127
1, 133739, Note_off_c, 1, 72, 0
1, 133739, Note_off_c, 1, 47, 0
1, 133740, Note_on_c, 1, 71, 127
1, 133740, Note_on_c, 1, 67, 127
1, 133740, Note_on_c, 1, 59, 127
1, 133769, Note_off_c, 1, 67, 0
1, 133770, Note_on_c, 1, 69, 127
1, 133799, Note_off_c, 1, 75, 0
1, 133799, Note_off_c, 1, 63, 0
1, 133799, Note_off_c, 1, 71, 0
1, 133799, Note_off_c, 1, 59, 0
1, 133799, Note_off_c, 1, 69, 0
1, 133800, Note_on_c, 1, 78, 127
1, 133800, Note_on_c, 1, 63, 127
1, 133800, Note_on_c, 1, 59, 127
1, 133800, Note_on_c, 1, 66, 127
1, 133800, Note_on_c, 1, 57, 127
1, 133859, Note_off_c, 1, 78, 0
1, 133859, Note_off_c, 1, 63, 0
1, 133859, Note_off_c, 1, 59, 0
1, 133859, Note_off_c, 1, 66, 0
1, 133859, Note_off_c, 1, 57, 0
1, 133860, Note_on_c, 1, 79, 127
1, 133860, Note_on_c, 1, 67, 127
1, 133860, Note_on_c, 1, 55, 127
1, 133870, Note_off_c, 1, 79, 0
1, 133870, Note_off_c, 1, 67, 0
1, 133870, Note_on_c, 1, 81, 127
1, 133870, Note_on_c, 1, 69, 127
1, 133880, Note_off_c, 1, 81, 0
1, 133880, Note_off_c, 1, 69, 0
1, 133919, Note_off_c, 1, 55, 0
1, 133920, Note_on_c, 1, 54, 127
1, 133979, Note_off_c, 1, 54, 0
1, 133980, Note_on_c, 1, 79, 127
1, 133980, Note_on_c, 1, 67, 127
1, 133980, Note_on_c, 1, 52, 127
1, 134039, Note_off_c, 1, 79, 0
1, 134039, Note_off_c, 1, 67, 0
1, 134039, Note_off_c, 1, 52, 0
1, 134040, Note_on_c, 1, 78, 127
1, 134040, Note_on_c, 1, 66, 127
1, 134040, Note_on_c, 1, 51, 127
1, 134099, Note_off_c, 1, 78, 0
1, 134099, Note_off_c, 1, 66, 0
1, 134099, Note_off_c, 1, 51, 0
1, 134100, Note_on_c, 1, 83, 127
1, 134100, Note_on_c, 1, 71, 127
1, 134100, Note_on_c, 1, 47, 127
1, 134159, Note_off_c, 1, 83, 0
1, 134159, Note_off_c, 1, 71, 0
1, 134159, Note_off_c, 1, 47, 0
1, 134160, Note_on_c, 1, 79, 127
1, 134160, Note_on_c, 1, 67, 127
1, 134160, Note_on_c, 1, 52, 127
1, 134174, Note_off_c, 1, 79, 0
1, 134174, Note_off_c, 1, 67, 0
1, 134175, Note_on_c, 1, 78, 127
1, 134175, Note_on_c, 1, 66, 127
1, 134189, Note_off_c, 1, 78, 0
1, 134189, Note_off_c, 1, 66, 0
1, 134190, Note_on_c, 1, 76, 127
1, 134190, Note_on_c, 1, 64, 127
1, 134219, Note_off_c, 1, 52, 0
1, 134219, Note_off_c, 1, 76, 0
1, 134219, Note_off_c, 1, 64, 0
1, 134220, Note_on_c, 1, 84, 127
1, 134220, Note_on_c, 1, 72, 127
1, 134220, Note_on_c, 1, 54, 127
1, 134234, Note_off_c, 1, 84, 0
1, 134234, Note_off_c, 1, 72, 0
1, 134235, Note_on_c, 1, 83, 127
1, 134235, Note_on_c, 1, 71, 127
1, 134249, Note_off_c, 1, 83, 0
1, 134249, Note_off_c, 1, 71, 0
1, 134250, Note_on_c, 1, 81, 127
1, 134250, Note_on_c, 1, 69, 127
1, 134279, Note_off_c, 1, 54, 0
1, 134279, Note_off_c, 1, 81, 0
1, 134279, Note_off_c, 1, 69, 0
1, 134280, Note_on_c, 1, 83, 127
1, 134280, Note_on_c, 1, 71, 127
1, 134280, Note_on_c, 1, 55, 127
1, 134309, Note_off_c, 1, 83, 0
1, 134309, Note_off_c, 1, 71, 0
1, 134310, Note_on_c, 1, 76, 127
1, 134310, Note_on_c, 1, 64, 127
1, 134339, Note_off_c, 1, 55, 0
1, 134339, Note_off_c, 1, 76, 0
1, 134339, Note_off_c, 1, 64, 0
1, 134340, Note_on_c, 1, 81, 127
1, 134340, Note_on_c, 1, 69, 127
1, 134340, Note_on_c, 1, 57, 127
1, 134354, Note_off_c, 1, 81, 0
1, 134354, Note_off_c, 1, 69, 0
1, 134355, Note_on_c, 1, 79, 127
1, 134355, Note_on_c, 1, 67, 127
1, 134369, Note_off_c, 1, 79, 0
1, 134369, Note_off_c, 1, 67, 0
1, 134370, Note_on_c, 1, 78, 127
1, 134370, Note_on_c, 1, 66, 127
1, 134399, Note_off_c, 1, 57, 0
1, 134399, Note_off_c, 1, 78, 0
1, 134399, Note_off_c, 1, 66, 0
1, 134400, Note_on_c, 1, 79, 127
1, 134400, Note_on_c, 1, 67, 127
1, 134400, Note_on_c, 1, 59, 127
1, 134429, Note_off_c, 1, 79, 0
1, 134429, Note_off_c, 1, 67, 0
1, 134430, Note_on_c, 1, 83, 127
1, 134430, Note_on_c, 1, 71, 127
1, 134444, Note_off_c, 1, 83, 0
1, 134444, Note_off_c, 1, 71, 0
1, 134445, Note_on_c, 1, 81, 127
1, 134445, Note_on_c, 1, 69, 127
1, 134459, Note_off_c, 1, 59, 0
1, 134459, Note_off_c, 1, 81, 0
1, 134459, Note_off_c, 1, 69, 0
1, 134460, Note_on_c, 1, 79, 127
1, 134460, Note_on_c, 1, 67, 127
1, 134460, Note_on_c, 1, 60, 127
1, 134474, Note_off_c, 1, 79, 0
1, 134474, Note_off_c, 1, 67, 0
1, 134475, Note_on_c, 1, 78, 127
1, 134475, Note_on_c, 1, 66, 127
1, 134489, Note_off_c, 1, 78, 0
1, 134489, Note_off_c, 1, 66, 0
1, 134490, Note_on_c, 1, 76, 127
1, 134490, Note_on_c, 1, 64, 127
1, 134519, Note_off_c, 1, 60, 0
1, 134519, Note_off_c, 1, 76, 0
1, 134519, Note_off_c, 1, 64, 0
1, 134520, Note_on_c, 1, 78, 127
1, 134520, Note_on_c, 1, 66, 127
1, 134520, Note_on_c, 1, 57, 127
1, 134535, Note_off_c, 1, 78, 0
1, 134535, Note_off_c, 1, 66, 0
1, 134535, Note_on_c, 1, 79, 127
1, 134535, Note_on_c, 1, 67, 127
1, 134550, Note_off_c, 1, 79, 0
1, 134550, Note_off_c, 1, 67, 0
1, 134579, Note_off_c, 1, 57, 0
1, 134580, Note_on_c, 1, 59, 127
1, 134620, Note_on_c, 1, 76, 127
1, 134620, Note_on_c, 1, 64, 127
1, 134630, Note_off_c, 1, 76, 0
1, 134630, Note_off_c, 1, 64, 0
1, 134639, Note_off_c, 1, 59, 0
1, 134640, Note_on_c, 1, 49, 127
1, 134699, Note_off_c, 1, 49, 0
1, 134700, Note_on_c, 1, 70, 127
1, 134760, Note_on_c, 1, 61, 127
1, 134760, Note_on_c, 1, 52, 127
1, 134819, Note_off_c, 1, 70, 0
1, 134819, Note_off_c, 1, 61, 0
1, 134819, Note_off_c, 1, 52, 0
1, 134820, Note_on_c, 1, 79, 127
1, 134820, Note_on_c, 1, 71, 127
1, 134820, Note_on_c, 1, 67, 127
1, 134849, Note_off_c, 1, 71, 0
1, 134850, Note_on_c, 1, 73, 127
1, 134879, Note_off_c, 1, 73, 0
1, 134880, Note_on_c, 1, 59, 127
1, 134880, Note_on_c, 1, 63, 127
1, 134880, Note_on_c, 1, 51, 127
1, 134939, Note_off_c, 1, 79, 0
1, 134939, Note_off_c, 1, 67, 0
1, 134939, Note_off_c, 1, 59, 0
1, 134939, Note_off_c, 1, 63, 0
1, 134939, Note_off_c, 1, 51, 0
1, 134940, Note_on_c, 1, 81, 127
1, 134940, Note_on_c, 1, 64, 127
1, 134940, Note_on_c, 1, 69, 127
1, 134940, Note_on_c, 1, 60, 127
1, 134969, Note_off_c, 1, 81, 0
1, 134969, Note_off_c, 1, 69, 0
1, 134970, Note_on_c, 1, 79, 127
1, 134970, Note_on_c, 1, 67, 127
1, 134999, Note_off_c, 1, 64, 0
1, 134999, Note_off_c, 1, 79, 0
1, 134999, Note_off_c, 1, 67, 0
1, 135000, Note_on_c, 1, 63, 127
1, 135029, Note_off_c, 1, 60, 0
1, 135030, Note_on_c, 1, 59, 127
1, 135059, Note_off_c, 1, 63, 0
1, 135059, Note_off_c, 1, 59, 0
1, 135060, Note_on_c, 1, 78, 127
1, 135060, Note_on_c, 1, 66, 127
1, 135060, Note_on_c, 1, 57, 127
1, 135089, Note_off_c, 1, 57, 0
1, 135090, Note_on_c, 1, 55, 127
1, 135119, Note_off_c, 1, 78, 0
1, 135119, Note_off_c, 1, 66, 0
1, 135119, Note_off_c, 1, 55, 0
1, 135120, Note_on_c, 1, 69, 127
1, 135120, Note_on_c, 1, 63, 127
1, 135120, Note_on_c, 1, 66, 127
1, 135120, Note_on_c, 1, 54, 127
1, 135179, Note_off_c, 1, 69, 0
1, 135179, Note_off_c, 1, 63, 0
1, 135179, Note_off_c, 1, 66, 0
1, 135179, Note_off_c, 1, 54, 0
1, 135180, Note_on_c, 1, 75, 127
1, 135240, Note_on_c, 1, 59, 127
1, 135240, Note_on_c, 1, 69, 127
1, 135240, Note_on_c, 1, 47, 127
1, 135299, Note_off_c, 1, 75, 0
1, 135299, Note_off_c, 1, 59, 0
1, 135299, Note_off_c, 1, 69, 0
1, 135299, Note_off_c, 1, 47, 0
1, 135300, Note_on_c, 1, 83, 127
1, 135300, Note_on_c, 1, 76, 127
1, 135300, Note_on_c, 1, 71, 127
1, 135329, Note_off_c, 1, 76, 0
1, 135330, Note_on_c, 1, 78, 127
1, 135359, Note_off_c, 1, 83, 0
1, 135359, Note_off_c, 1, 71, 0
1, 135359, Note_off_c, 1, 78, 0
1, 135360, Note_on_c, 1, 84, 127
1, 135360, Note_on_c, 1, 76, 127
1, 135360, Note_on_c, 1, 64, 127
1, 135360, Note_on_c, 1, 68, 127
1, 135360, Note_on_c, 1, 72, 127
1, 135360, Note_on_c, 1, 40, 127
1, 135419, Note_off_c, 1, 84, 0
1, 135419, Note_off_c, 1, 76, 0
1, 135419, Note_off_c, 1, 64, 0
1, 135419, Note_off_c, 1, 68, 0
1, 135419, Note_off_c, 1, 72, 0
1, 135419, Note_off_c, 1, 40, 0
1, 135420, Note_on_c, 1, 86, 127
1, 135420, Note_on_c, 1, 69, 127
1, 135420, Note_on_c, 1, 74, 127
1, 135420, Note_on_c, 1, 53, 127
1, 135449, Note_off_c, 1, 86, 0
1, 135449, Note_off_c, 1, 74, 0
1, 135450, Note_on_c, 1, 84, 127
1, 135450, Note_on_c, 1, 72, 127
1, 135479, Note_off_c, 1, 69, 0
1, 135479, Note_off_c, 1, 84, 0
1, 135479, Note_off_c, 1, 72, 0
1, 135480, Note_on_c, 1, 83, 127
1, 135480, Note_on_c, 1, 68, 127
1, 135480, Note_on_c, 1, 71, 127
1, 135509, Note_off_c, 1, 53, 0
1, 135510, Note_on_c, 1, 52, 127
1, 135539, Note_off_c, 1, 68, 0
1, 135539, Note_off_c, 1, 52, 0
1, 135540, Note_on_c, 1, 50, 127
1, 135569, Note_off_c, 1, 50, 0
1, 135570, Note_on_c, 1, 48, 127
1, 135599, Note_off_c, 1, 83, 0
1, 135599, Note_off_c, 1, 71, 0
1, 135599, Note_off_c, 1, 48, 0
1, 135600, Note_on_c, 1, 74, 127
1, 135600, Note_on_c, 1, 65, 127
1, 135600, Note_on_c, 1, 68, 127
1, 135600, Note_on_c, 1, 47, 127
1, 135659, Note_off_c, 1, 74, 0
1, 135659, Note_off_c, 1, 65, 0
1, 135659, Note_off_c, 1, 68, 0
1, 135659, Note_off_c, 1, 47, 0
1, 135660, Note_on_c, 1, 72, 127
1, 135720, Note_on_c, 1, 88, 127
1, 135720, Note_on_c, 1, 64, 127
1, 135720, Note_on_c, 1, 68, 127
1, 135720, Note_on_c, 1, 76, 127
1, 135720, Note_on_c, 1, 52, 127
1, 135779, Note_off_c, 1, 72, 0
1, 135779, Note_off_c, 1, 88, 0
1, 135779, Note_off_c, 1, 64, 0
1, 135779, Note_off_c, 1, 68, 0
1, 135779, Note_off_c, 1, 76, 0
1, 135779, Note_off_c, 1, 52, 0
1, 135780, Note_on_c, 1, 86, 127
1, 135780, Note_on_c, 1, 71, 127
1, 135780, Note_on_c, 1, 74, 127
1, 135839, Note_off_c, 1, 86, 0
1, 135839, Note_off_c, 1, 74, 0
1, 135840, Note_on_c, 1, 84, 127
1, 135840, Note_on_c, 1, 76, 127
1, 135840, Note_on_c, 1, 64, 127
1, 135840, Note_on_c, 1, 72, 127
1, 135840, Note_on_c, 1, 45, 127
1, 135899, Note_off_c, 1, 71, 0
1, 135899, Note_off_c, 1, 84, 0
1, 135899, Note_off_c, 1, 76, 0
1, 135899, Note_off_c, 1, 64, 0
1, 135899, Note_off_c, 1, 72, 0
1, 135899, Note_off_c, 1, 45, 0
1, 135900, Note_on_c, 1, 86, 127
1, 135900, Note_on_c, 1, 69, 127
1, 135900, Note_on_c, 1, 74, 127
1, 135929, Note_off_c, 1, 86, 0
1, 135929, Note_off_c, 1, 74, 0
1, 135930, Note_on_c, 1, 88, 127
1, 135930, Note_on_c, 1, 76, 127
1, 135959, Note_off_c, 1, 88, 0
1, 135959, Note_off_c, 1, 76, 0
1, 135960, Note_on_c, 1, 57, 127
1, 135960, Note_on_c, 1, 42, 127
1, 135990, Note_on_c, 1, 84, 127
1, 135990, Note_on_c, 1, 72, 127
1, 136019, Note_off_c, 1, 69, 0
1, 136019, Note_off_c, 1, 57, 0
1, 136019, Note_off_c, 1, 42, 0
1, 136019, Note_off_c, 1, 84, 0
1, 136019, Note_off_c, 1, 72, 0
1, 136020, Note_on_c, 1, 83, 127
1, 136020, Note_on_c, 1, 67, 127
1, 136020, Note_on_c, 1, 71, 127
1, 136049, Note_off_c, 1, 83, 0
1, 136049, Note_off_c, 1, 71, 0
1, 136050, Note_on_c, 1, 81, 127
1, 136050, Note_on_c, 1, 69, 127
1, 136079, Note_off_c, 1, 81, 0
1, 136079, Note_off_c, 1, 69, 0
1, 136080, Note_on_c, 1, 62, 127
1, 136080, Note_on_c, 1, 43, 127
1, 136139, Note_off_c, 1, 67, 0
1, 136139, Note_off_c, 1, 62, 0
1, 136139, Note_off_c, 1, 43, 0
1, 136140, Note_on_c, 1, 84, 127
1, 136140, Note_on_c, 1, 65, 127
1, 136140, Note_on_c, 1, 72, 127
1, 136169, Note_off_c, 1, 84, 0
1, 136169, Note_off_c, 1, 72, 0
1, 136170, Note_on_c, 1, 86, 127
1, 136170, Note_on_c, 1, 74, 127
1, 136199, Note_off_c, 1, 86, 0
1, 136199, Note_off_c, 1, 74, 0
1, 136200, Note_on_c, 1, 57, 127
1, 136200, Note_on_c, 1, 45, 127
1, 136230, Note_on_c, 1, 83, 127
1, 136230, Note_on_c, 1, 71, 127
1, 136259, Note_off_c, 1, 65, 0
1, 136259, Note_off_c, 1, 57, 0
1, 136259, Note_off_c, 1, 45, 0
1, 136259, Note_off_c, 1, 83, 0
1, 136259, Note_off_c, 1, 71, 0
1, 136260, Note_on_c, 1, 81, 127
1, 136260, Note_on_c, 1, 64, 127
1, 136260, Note_on_c, 1, 69, 127
1, 136289, Note_off_c, 1, 81, 0
1, 136289, Note_off_c, 1, 69, 0
1, 136290, Note_on_c, 1, 79, 127
1, 136290, Note_on_c, 1, 67, 127
1, 136319, Note_off_c, 1, 79, 0
1, 136319, Note_off_c, 1, 67, 0
1, 136320, Note_on_c, 1, 60, 127
1, 136320, Note_on_c, 1, 42, 127
1, 136379, Note_off_c, 1, 64, 0
1, 136379, Note_off_c, 1, 60, 0
1, 136379, Note_off_c, 1, 42, 0
1, 136380, Note_on_c, 1, 83, 127
1, 136380, Note_on_c, 1, 63, 127
1, 136380, Note_on_c, 1, 71, 127
1, 136409, Note_off_c, 1, 83, 0
1, 136409, Note_off_c, 1, 71, 0
1, 136410, Note_on_c, 1, 84, 127
1, 136410, Note_on_c, 1, 72, 127
1, 136439, Note_off_c, 1, 84, 0
1, 136439, Note_off_c, 1, 72, 0
1, 136440, Note_on_c, 1, 66, 127
1, 136440, Note_on_c, 1, 47, 127
1, 136470, Note_on_c, 1, 81, 127
1, 136470, Note_on_c, 1, 69, 127
1, 136499, Note_off_c, 1, 63, 0
1, 136499, Note_off_c, 1, 66, 0
1, 136499, Note_off_c, 1, 47, 0
1, 136499, Note_off_c, 1, 81, 0
1, 136499, Note_off_c, 1, 69, 0
1, 136500, Note_on_c, 1, 79, 127
1, 136500, Note_on_c, 1, 60, 127
1, 136500, Note_on_c, 1, 67, 127
1, 136529, Note_off_c, 1, 79, 0
1, 136529, Note_off_c, 1, 67, 0
1, 136530, Note_on_c, 1, 78, 127
1, 136530, Note_on_c, 1, 66, 127
1, 136559, Note_off_c, 1, 78, 0
1, 136559, Note_off_c, 1, 66, 0
1, 136560, Note_on_c, 1, 64, 127
1, 136560, Note_on_c, 1, 40, 127
1, 136619, Note_off_c, 1, 60, 0
1, 136619, Note_off_c, 1, 64, 0
1, 136619, Note_off_c, 1, 40, 0
1, 136620, Note_on_c, 1, 81, 127
1, 136620, Note_on_c, 1, 59, 127
1, 136620, Note_on_c, 1, 69, 127
1, 136649, Note_off_c, 1, 81, 0
1, 136649, Note_off_c, 1, 69, 0
1, 136650, Note_on_c, 1, 83, 127
1, 136650, Note_on_c, 1, 71, 127
1, 136679, Note_off_c, 1, 83, 0
1, 136679, Note_off_c, 1, 71, 0
1, 136680, Note_on_c, 1, 64, 127
1, 136680, Note_on_c, 1, 48, 127
1, 136710, Note_on_c, 1, 79, 127
1, 136710, Note_on_c, 1, 67, 127
1, 136739, Note_off_c, 1, 59, 0
1, 136739, Note_off_c, 1, 64, 0
1, 136739, Note_off_c, 1, 48, 0
1, 136739, Note_off_c, 1, 79, 0
1, 136739, Note_off_c, 1, 67, 0
1, 136740, Note_on_c, 1, 78, 127
1, 136740, Note_on_c, 1, 57, 127
1, 136740, Note_on_c, 1, 66, 127
1, 136769, Note_off_c, 1, 78, 0
1, 136769, Note_off_c, 1, 66, 0
1, 136770, Note_on_c, 1, 76, 127
1, 136770, Note_on_c, 1, 64, 127
1, 136799, Note_off_c, 1, 76, 0
1, 136799, Note_off_c, 1, 64, 0
1, 136800, Note_on_c, 1, 75, 127
1, 136800, Note_on_c, 1, 71, 127
1, 136800, Note_on_c, 1, 63, 127
1, 136800, Note_on_c, 1, 47, 127
1, 136859, Note_off_c, 1, 57, 0
1, 136859, Note_off_c, 1, 75, 0
1, 136859, Note_off_c, 1, 71, 0
1, 136859, Note_off_c, 1, 63, 0
1, 136919, Note_off_c, 1, 47, 0
1, 136920, Note_on_c, 1, 76, 127
1, 136920, Note_on_c, 1, 64, 127
1, 136949, Note_off_c, 1, 76, 0
1, 136949, Note_off_c, 1, 64, 0
1, 136950, Note_on_c, 1, 75, 127
1, 136950, Note_on_c, 1, 63, 127
1, 136979, Note_off_c, 1, 75, 0
1, 136979, Note_off_c, 1, 63, 0
1, 136980, Note_on_c, 1, 73, 127
1, 136980, Note_on_c, 1, 61, 127
1, 137009, Note_off_c, 1, 73, 0
1, 137009, Note_off_c, 1, 61, 0
1, 137010, Note_on_c, 1, 71, 127
1, 137010, Note_on_c, 1, 59, 127
1, 137039, Note_off_c, 1, 71, 0
1, 137039, Note_off_c, 1, 59, 0
1, 137040, Note_on_c, 1, 73, 127
1, 137040, Note_on_c, 1, 61, 127
1, 137069, Note_off_c, 1, 73, 0
1, 137069, Note_off_c, 1, 61, 0
1, 137070, Note_on_c, 1, 75, 127
1, 137070, Note_on_c, 1, 63, 127
1, 137099, Note_off_c, 1, 75, 0
1, 137099, Note_off_c, 1, 63, 0
1, 137100, Note_on_c, 1, 76, 127
1, 137100, Note_on_c, 1, 64, 127
1, 137129, Note_off_c, 1, 76, 0
1, 137129, Note_off_c, 1, 64, 0
1, 137130, Note_on_c, 1, 78, 127
1, 137130, Note_on_c, 1, 66, 127
1, 137159, Note_off_c, 1, 78, 0
1, 137159, Note_off_c, 1, 66, 0
1, 137160, Note_on_c, 1, 79, 127
1, 137160, Note_on_c, 1, 67, 127
1, 137189, Note_off_c, 1, 79, 0
1, 137189, Note_off_c, 1, 67, 0
1, 137190, Note_on_c, 1, 81, 127
1, 137190, Note_on_c, 1, 69, 127
1, 137219, Note_off_c, 1, 81, 0
1, 137219, Note_off_c, 1, 69, 0
1, 137220, Note_on_c, 1, 83, 127
1, 137220, Note_on_c, 1, 71, 127
1, 137249, Note_off_c, 1, 83, 0
1, 137249, Note_off_c, 1, 71, 0
1, 137250, Note_on_c, 1, 81, 127
1, 137250, Note_on_c, 1, 69, 127
1, 137279, Note_off_c, 1, 81, 0
1, 137279, Note_off_c, 1, 69, 0
1, 137280, Note_on_c, 1, 84, 127
1, 137280, Note_on_c, 1, 72, 127
1, 137309, Note_off_c, 1, 84, 0
1, 137309, Note_off_c, 1, 72, 0
1, 137310, Note_on_c, 1, 83, 127
1, 137310, Note_on_c, 1, 71, 127
1, 137339, Note_off_c, 1, 83, 0
1, 137339, Note_off_c, 1, 71, 0
1, 137340, Note_on_c, 1, 87, 127
1, 137340, Note_on_c, 1, 75, 127
1, 137369, Note_off_c, 1, 87, 0
1, 137369, Note_off_c, 1, 75, 0
1, 137370, Note_on_c, 1, 88, 127
1, 137370, Note_on_c, 1, 76, 127
1, 137399, Note_off_c, 1, 88, 0
1, 137399, Note_off_c, 1, 76, 0
1, 137400, Note_on_c, 1, 76, 127
1, 137400, Note_on_c, 1, 64, 127
1, 137460, Note_on_c, 1, 48, 127
1, 137519, Note_off_c, 1, 48, 0
1, 137520, Note_on_c, 1, 47, 127
1, 137579, Note_off_c, 1, 47, 0
1, 137580, Note_on_c, 1, 45, 127
1, 137610, Note_off_c, 1, 76, 0
1, 137610, Note_off_c, 1, 64, 0
1, 137610, Note_on_c, 1, 78, 127
1, 137610, Note_on_c, 1, 66, 127
1, 137639, Note_off_c, 1, 45, 0
1, 137639, Note_off_c, 1, 78, 0
1, 137639, Note_off_c, 1, 66, 0
1, 137640, Note_on_c, 1, 79, 127
1, 137640, Note_on_c, 1, 67, 127
1, 137640, Note_on_c, 1, 47, 127
1, 137655, Note_off_c, 1, 79, 0
1, 137655, Note_off_c, 1, 67, 0
1, 137655, Note_on_c, 1, 78, 127
1, 137655, Note_on_c, 1, 66, 127
1, 137670, Note_off_c, 1, 78, 0
1, 137670, Note_off_c, 1, 66, 0
1, 137745, Note_on_c, 1, 76, 127
1, 137745, Note_on_c, 1, 64, 127
1, 137753, Note_off_c, 1, 76, 0
1, 137753, Note_off_c, 1, 64, 0
1, 137759, Note_off_c, 1, 47, 0
1, 137760, Note_on_c, 1, 40, 127
1, 137879, Note_off_c, 1, 40, 0
1, 138000, Note_on_c, 1, 71, 127
1, 138000, Note_on_c, 1, 62, 127
1, 138000, Note_on_c, 1, 55, 127
1, 138000, Note_on_c, 1, 43, 127
1, 138059, Note_off_c, 1, 43, 0
1, 138089, Note_off_c, 1, 71, 0
1, 138089, Note_off_c, 1, 62, 0
1, 138090, Note_on_c, 1, 72, 127
1, 138090, Note_on_c, 1, 64, 127
1, 138104, Note_off_c, 1, 72, 0
1, 138104, Note_off_c, 1, 64, 0
1, 138105, Note_on_c, 1, 74, 127
1, 138105, Note_on_c, 1, 65, 127
1, 138119, Note_off_c, 1, 74, 0
1, 138119, Note_off_c, 1, 65, 0
1, 138180, Note_on_c, 1, 69, 127
1, 138180, Note_on_c, 1, 60, 127
1, 138209, Note_off_c, 1, 69, 0
1, 138209, Note_off_c, 1, 60, 0
1, 138210, Note_on_c, 1, 67, 127
1, 138210, Note_on_c, 1, 59, 127
1, 138239, Note_off_c, 1, 67, 0
1, 138239, Note_off_c, 1, 59, 0
1, 138300, Note_on_c, 1, 66, 127
1, 138300, Note_on_c, 1, 57, 127
1, 138359, Note_off_c, 1, 66, 0
1, 138359, Note_off_c, 1, 57, 0
1, 138960, Note_off_c, 1, 55, 0
1, 139200, Note_on_c, 1, 76, 127
1, 139259, Note_off_c, 1, 76, 0
1, 139680, Note_on_c, 1, 72, 127
1, 139680, Note_on_c, 1, 67, 127
1, 139680, Note_on_c, 1, 62, 127
1, 139680, Note_on_c, 1, 43, 127
1, 139709, Note_off_c, 1, 72, 0
1, 139710, Note_on_c, 1, 71, 127
1, 139739, Note_off_c, 1, 67, 0
1, 139739, Note_off_c, 1, 62, 0
1, 139739, Note_off_c, 1, 43, 0
1, 139739, Note_off_c, 1, 71, 0
1, 139740, Note_on_c, 1, 69, 127
1, 139740, Note_on_c, 1, 66, 127
1, 139740, Note_on_c, 1, 60, 127
1, 139740, Note_on_c, 1, 55, 127
1, 139769, Note_off_c, 1, 69, 0
1, 139770, Note_on_c, 1, 72, 127
1, 139799, Note_off_c, 1, 66, 0
1, 139799, Note_off_c, 1, 60, 0
1, 139799, Note_off_c, 1, 55, 0
1, 139799, Note_off_c, 1, 72, 0
1, 139800, Note_on_c, 1, 71, 127
1, 139800, Note_on_c, 1, 67, 127
1, 139800, Note_on_c, 1, 62, 127
1, 139800, Note_on_c, 1, 55, 127
1, 139859, Note_off_c, 1, 55, 0
1, 139860, Note_on_c, 1, 43, 127
1, 139919, Note_off_c, 1, 71, 0
1, 139919, Note_off_c, 1, 67, 0
1, 139919, Note_off_c, 1, 62, 0
1, 139919, Note_off_c, 1, 43, 0
1, 139920, Note_on_c, 1, 62, 127
1, 139920, Note_on_c, 1, 59, 127
1, 139920, Note_on_c, 1, 43, 127
1, 139979, Note_off_c, 1, 62, 0
1, 139979, Note_off_c, 1, 59, 0
1, 139980, Note_on_c, 1, 64, 127
1, 139980, Note_on_c, 1, 60, 127
1, 139980, Note_on_c, 1, 55, 127
1, 140039, Note_off_c, 1, 64, 0
1, 140039, Note_off_c, 1, 60, 0
1, 140039, Note_off_c, 1, 55, 0
1, 140100, Note_on_c, 1, 66, 127
1, 140100, Note_on_c, 1, 57, 127
1, 140159, Note_off_c, 1, 66, 0
1, 140159, Note_off_c, 1, 57, 0
1, 140220, Note_on_c, 1, 67, 127
1, 140249, Note_off_c, 1, 67, 0
1, 140580, Note_on_c, 1, 65, 127
1, 140639, Note_off_c, 1, 65, 0
1, 140700, Note_off_c, 1, 43, 0
1, 140700, Note_on_c, 1, 45, 127
1, 140759, Note_off_c, 1, 45, 0
1, 140760, Note_on_c, 1, 47, 127
1, 140819, Note_off_c, 1, 47, 0
1, 140880, Note_on_c, 1, 64, 127
1, 140880, Note_on_c, 1, 60, 127
1, 140880, Note_on_c, 1, 55, 127
1, 140880, Note_on_c, 1, 48, 127
1, 140909, Note_off_c, 1, 60, 0
1, 140939, Note_off_c, 1, 64, 0
1, 140939, Note_off_c, 1, 55, 0
1, 140939, Note_off_c, 1, 48, 0
1, 140940, Note_on_c, 1, 69, 127
1, 140999, Note_off_c, 1, 69, 0
1, 141000, Note_on_c, 1, 69, 127
1, 141000, Note_on_c, 1, 64, 127
1, 141000, Note_on_c, 1, 60, 127
1, 141000, Note_on_c, 1, 45, 127
1, 141029, Note_off_c, 1, 64, 0
1, 141059, Note_off_c, 1, 69, 0
1, 141059, Note_off_c, 1, 60, 0
1, 141059, Note_off_c, 1, 45, 0
1, 141060, Note_on_c, 1, 72, 127
1, 141119, Note_off_c, 1, 72, 0
1, 141120, Note_on_c, 1, 72, 127
1, 141120, Note_on_c, 1, 66, 127
1, 141120, Note_on_c, 1, 57, 127
1, 141120, Note_on_c, 1, 50, 127
1, 141149, Note_off_c, 1, 66, 0
1, 141179, Note_off_c, 1, 72, 0
1, 141179, Note_off_c, 1, 57, 0
1, 141179, Note_off_c, 1, 50, 0
1, 141180, Note_on_c, 1, 74, 127
1, 141209, Note_off_c, 1, 74, 0
1, 141210, Note_on_c, 1, 76, 127
1, 141239, Note_off_c, 1, 76, 0
1, 141240, Note_on_c, 1, 74, 127
1, 141240, Note_on_c, 1, 66, 127
1, 141240, Note_on_c, 1, 59, 127
1, 141240, Note_on_c, 1, 47, 127
1, 141269, Note_off_c, 1, 74, 0
1, 141269, Note_off_c, 1, 66, 0
1, 141270, Note_on_c, 1, 72, 127
1, 141299, Note_off_c, 1, 59, 0
1, 141299, Note_off_c, 1, 47, 0
1, 141299, Note_off_c, 1, 72, 0
1, 141300, Note_on_c, 1, 71, 127
1, 141329, Note_off_c, 1, 71, 0
1, 141330, Note_on_c, 1, 69, 127
1, 141359, Note_off_c, 1, 69, 0
1, 141360, Note_on_c, 1, 67, 127
1, 141360, Note_on_c, 1, 64, 127
1, 141360, Note_on_c, 1, 59, 127
1, 141360, Note_on_c, 1, 52, 127
1, 141389, Note_off_c, 1, 67, 0
1, 141390, Note_on_c, 1, 66, 127
1, 141419, Note_off_c, 1, 64, 0
1, 141419, Note_off_c, 1, 59, 0
1, 141419, Note_off_c, 1, 52, 0
1, 141419, Note_off_c, 1, 66, 0
1, 141420, Note_on_c, 1, 67, 127
1, 141420, Note_on_c, 1, 64, 127
1, 141420, Note_on_c, 1, 48, 127
1, 141450, Note_on_c, 1, 72, 127
1, 141479, Note_off_c, 1, 67, 0
1, 141479, Note_off_c, 1, 64, 0
1, 141479, Note_off_c, 1, 48, 0
1, 141479, Note_off_c, 1, 72, 0
1, 141480, Note_on_c, 1, 69, 127
1, 141480, Note_on_c, 1, 67, 127
1, 141480, Note_on_c, 1, 62, 127
1, 141480, Note_on_c, 1, 50, 127
1, 141539, Note_off_c, 1, 67, 0
1, 141539, Note_off_c, 1, 62, 0
1, 141539, Note_off_c, 1, 50, 0
1, 141540, Note_on_c, 1, 66, 127
1, 141540, Note_on_c, 1, 60, 127
1, 141540, Note_on_c, 1, 38, 127
1, 141569, Note_off_c, 1, 69, 0
1, 141599, Note_off_c, 1, 66, 0
1, 141599, Note_off_c, 1, 60, 0
1, 141599, Note_off_c, 1, 38, 0
1, 141600, Note_on_c, 1, 67, 127
1, 141600, Note_on_c, 1, 59, 127
1, 141600, Note_on_c, 1, 40, 127
1, 141659, Note_off_c, 1, 67, 0
1, 141659, Note_off_c, 1, 59, 0
1, 141659, Note_off_c, 1, 40, 0
1, 141660, Note_on_c, 1, 73, 127
1, 141720, Note_on_c, 1, 67, 127
1, 141720, Note_on_c, 1, 57, 127
1, 141720, Note_on_c, 1, 45, 127
1, 141749, Note_off_c, 1, 67, 0
1, 141779, Note_off_c, 1, 73, 0
1, 141779, Note_off_c, 1, 57, 0
1, 141779, Note_off_c, 1, 45, 0
1, 141780, Note_on_c, 1, 74, 127
1, 141809, Note_off_c, 1, 74, 0
1, 141810, Note_on_c, 1, 76, 127
1, 141839, Note_off_c, 1, 76, 0
1, 141840, Note_on_c, 1, 74, 127
1, 141840, Note_on_c, 1, 66, 127
1, 141840, Note_on_c, 1, 57, 127
1, 141840, Note_on_c, 1, 38, 127
1, 141869, Note_off_c, 1, 66, 0
1, 141899, Note_off_c, 1, 74, 0
1, 141899, Note_off_c, 1, 57, 0
1, 141899, Note_off_c, 1, 38, 0
1, 141900, Note_on_c, 1, 67, 127
1, 141900, Note_on_c, 1, 59, 127
1, 141959, Note_off_c, 1, 67, 0
1, 141959, Note_off_c, 1, 59, 0
1, 141960, Note_on_c, 1, 66, 127
1, 141960, Note_on_c, 1, 57, 127
1, 141989, Note_off_c, 1, 57, 0
1, 141990, Note_on_c, 1, 55, 127
1, 142019, Note_off_c, 1, 66, 0
1, 142019, Note_off_c, 1, 55, 0
1, 142020, Note_on_c, 1, 69, 127
1, 142020, Note_on_c, 1, 54, 127
1, 142049, Note_off_c, 1, 54, 0
1, 142050, Note_on_c, 1, 52, 127
1, 142079, Note_off_c, 1, 69, 0
1, 142079, Note_off_c, 1, 52, 0
1, 142080, Note_on_c, 1, 72, 127
1, 142080, Note_on_c, 1, 66, 127
1, 142080, Note_on_c, 1, 57, 127
1, 142080, Note_on_c, 1, 50, 127
1, 142109, Note_off_c, 1, 66, 0
1, 142139, Note_off_c, 1, 72, 0
1, 142139, Note_off_c, 1, 57, 0
1, 142139, Note_off_c, 1, 50, 0
1, 142140, Note_on_c, 1, 78, 127
1, 142200, Note_on_c, 1, 69, 127
1, 142200, Note_on_c, 1, 62, 127
1, 142200, Note_on_c, 1, 48, 127
1, 142229, Note_off_c, 1, 69, 0
1, 142259, Note_off_c, 1, 78, 0
1, 142259, Note_off_c, 1, 62, 0
1, 142259, Note_off_c, 1, 48, 0
1, 142260, Note_on_c, 1, 79, 127
1, 142289, Note_off_c, 1, 79, 0
1, 142290, Note_on_c, 1, 81, 127
1, 142319, Note_off_c, 1, 81, 0
1, 142320, Note_on_c, 1, 79, 127
1, 142320, Note_on_c, 1, 74, 127
1, 142320, Note_on_c, 1, 55, 127
1, 142320, Note_on_c, 1, 47, 127
1, 142349, Note_off_c, 1, 74, 0
1, 142379, Note_off_c, 1, 79, 0
1, 142379, Note_off_c, 1, 55, 0
1, 142379, Note_off_c, 1, 47, 0
1, 142380, Note_on_c, 1, 72, 127
1, 142380, Note_on_c, 1, 52, 127
1, 142439, Note_off_c, 1, 72, 0
1, 142439, Note_off_c, 1, 52, 0
1, 142440, Note_on_c, 1, 71, 127
1, 142440, Note_on_c, 1, 50, 127
1, 142469, Note_off_c, 1, 50, 0
1, 142470, Note_on_c, 1, 48, 127
1, 142499, Note_off_c, 1, 71, 0
1, 142499, Note_off_c, 1, 48, 0
1, 142500, Note_on_c, 1, 74, 127
1, 142500, Note_on_c, 1, 47, 127
1, 142529, Note_off_c, 1, 47, 0
1, 142530, Note_on_c, 1, 45, 127
1, 142559, Note_off_c, 1, 74, 0
1, 142559, Note_off_c, 1, 45, 0
1, 142560, Note_on_c, 1, 77, 127
1, 142560, Note_on_c, 1, 71, 127
1, 142560, Note_on_c, 1, 62, 127
1, 142560, Note_on_c, 1, 44, 127
1, 142619, Note_off_c, 1, 77, 0
1, 142619, Note_off_c, 1, 62, 0
1, 142619, Note_off_c, 1, 44, 0
1, 142620, Note_on_c, 1, 76, 127
1, 142620, Note_on_c, 1, 56, 127
1, 142679, Note_off_c, 1, 56, 0
1, 142680, Note_on_c, 1, 64, 127
1, 142739, Note_off_c, 1, 76, 0
1, 142739, Note_off_c, 1, 64, 0
1, 142740, Note_on_c, 1, 74, 127
1, 142800, Note_on_c, 1, 45, 127
1, 142859, Note_off_c, 1, 74, 0
1, 142859, Note_off_c, 1, 45, 0
1, 142860, Note_off_c, 1, 71, 0
1, 142860, Note_on_c, 1, 72, 127
1, 142860, Note_on_c, 1, 69, 127
1, 142860, Note_on_c, 1, 57, 127
1, 142889, Note_off_c, 1, 69, 0
1, 142890, Note_on_c, 1, 68, 127
1, 142919, Note_off_c, 1, 57, 0
1, 142919, Note_off_c, 1, 68, 0
1, 142979, Note_off_c, 1, 72, 0
1, 142980, Note_on_c, 1, 70, 127
1, 142980, Note_on_c, 1, 67, 127
1, 142980, Note_on_c, 1, 52, 127
1, 143039, Note_off_c, 1, 67, 0
1, 143039, Note_off_c, 1, 52, 0
1, 143040, Note_on_c, 1, 64, 127
1, 143040, Note_on_c, 1, 55, 127
1, 143040, Note_on_c, 1, 49, 127
1, 143099, Note_off_c, 1, 70, 0
1, 143099, Note_off_c, 1, 55, 0
1, 143099, Note_off_c, 1, 49, 0
1, 143100, Note_on_c, 1, 69, 127
1, 143100, Note_on_c, 1, 61, 127
1, 143159, Note_off_c, 1, 61, 0
1, 143160, Note_on_c, 1, 57, 127
1, 143219, Note_off_c, 1, 69, 0
1, 143219, Note_off_c, 1, 57, 0
1, 143280, Note_on_c, 1, 50, 127
1, 143339, Note_off_c, 1, 50, 0
1, 143340, Note_off_c, 1, 64, 0
1, 143340, Note_on_c, 1, 66, 127
1, 143340, Note_on_c, 1, 62, 127
1, 143399, Note_off_c, 1, 62, 0
1, 143459, Note_off_c, 1, 66, 0
1, 143460, Note_on_c, 1, 63, 127
1, 143460, Note_on_c, 1, 60, 127
1, 143460, Note_on_c, 1, 57, 127
1, 143519, Note_off_c, 1, 60, 0
1, 143519, Note_off_c, 1, 57, 0
1, 143520, Note_on_c, 1, 54, 127
1, 143579, Note_off_c, 1, 63, 0
1, 143579, Note_off_c, 1, 54, 0
1, 143580, Note_on_c, 1, 62, 127
1, 143580, Note_on_c, 1, 42, 127
1, 143639, Note_off_c, 1, 42, 0
1, 143640, Note_on_c, 1, 69, 127
1, 143699, Note_off_c, 1, 62, 0
1, 143760, Note_on_c, 1, 55, 127
1, 143819, Note_off_c, 1, 69, 0
1, 143819, Note_off_c, 1, 55, 0
1, 143820, Note_on_c, 1, 59, 127
1, 143820, Note_on_c, 1, 67, 127
1, 143820, Note_on_c, 1, 43, 127
1, 143849, Note_off_c, 1, 67, 0
1, 143850, Note_on_c, 1, 66, 127
1, 143879, Note_off_c, 1, 43, 0
1, 143879, Note_off_c, 1, 66, 0
1, 143939, Note_off_c, 1, 59, 0
1, 143940, Note_on_c, 1, 60, 127
1, 143940, Note_on_c, 1, 67, 127
1, 143940, Note_on_c, 1, 64, 127
1, 143940, Note_on_c, 1, 52, 127
1, 143999, Note_off_c, 1, 60, 0
1, 143999, Note_off_c, 1, 64, 0
1, 143999, Note_off_c, 1, 52, 0
1, 144000, Note_on_c, 1, 62, 127
1, 144000, Note_on_c, 1, 47, 127
1, 144059, Note_off_c, 1, 67, 0
1, 144059, Note_off_c, 1, 62, 0
1, 144059, Note_off_c, 1, 47, 0
1, 144060, Note_on_c, 1, 64, 127
1, 144060, Note_on_c, 1, 67, 127
1, 144060, Note_on_c, 1, 60, 127
1, 144060, Note_on_c, 1, 48, 127
1, 144089, Note_off_c, 1, 64, 0
1, 144089, Note_off_c, 1, 60, 0
1, 144090, Note_on_c, 1, 62, 127
1, 144090, Note_on_c, 1, 59, 127
1, 144119, Note_off_c, 1, 48, 0
1, 144119, Note_off_c, 1, 62, 0
1, 144119, Note_off_c, 1, 59, 0
1, 144120, Note_on_c, 1, 57, 127
1, 144120, Note_on_c, 1, 50, 127
1, 144179, Note_off_c, 1, 67, 0
1, 144179, Note_off_c, 1, 57, 0
1, 144179, Note_off_c, 1, 50, 0
1, 144180, Note_on_c, 1, 57, 127
1, 144180, Note_on_c, 1, 66, 127
1, 144180, Note_on_c, 1, 62, 127
1, 144180, Note_on_c, 1, 48, 127
1, 144209, Note_off_c, 1, 57, 0
1, 144210, Note_on_c, 1, 69, 127
1, 144239, Note_off_c, 1, 66, 0
1, 144239, Note_off_c, 1, 48, 0
1, 144239, Note_off_c, 1, 69, 0
1, 144240, Note_on_c, 1, 67, 127
1, 144240, Note_on_c, 1, 47, 127
1, 144299, Note_off_c, 1, 62, 0
1, 144299, Note_off_c, 1, 47, 0
1, 144300, Note_on_c, 1, 64, 127
1, 144300, Note_on_c, 1, 60, 127
1, 144329, Note_off_c, 1, 64, 0
1, 144329, Note_off_c, 1, 60, 0
1, 144330, Note_on_c, 1, 59, 127
1, 144359, Note_off_c, 1, 67, 0
1, 144359, Note_off_c, 1, 59, 0
1, 144360, Note_on_c, 1, 72, 127
1, 144360, Note_on_c, 1, 66, 127
1, 144360, Note_on_c, 1, 57, 127
1, 144360, Note_on_c, 1, 50, 127
1, 144389, Note_off_c, 1, 72, 0
1, 144389, Note_off_c, 1, 66, 0
1, 144390, Note_on_c, 1, 64, 127
1, 144419, Note_off_c, 1, 57, 0
1, 144419, Note_off_c, 1, 50, 0
1, 144419, Note_off_c, 1, 64, 0
1, 144420, Note_on_c, 1, 71, 127
1, 144420, Note_on_c, 1, 62, 127
1, 144420, Note_on_c, 1, 66, 127
1, 144420, Note_on_c, 1, 38, 127
1, 144449, Note_off_c, 1, 71, 0
1, 144449, Note_off_c, 1, 62, 0
1, 144450, Note_on_c, 1, 60, 127
1, 144479, Note_off_c, 1, 66, 0
1, 144479, Note_off_c, 1, 38, 0
1, 144479, Note_off_c, 1, 60, 0
1, 144480, Note_on_c, 1, 69, 127
1, 144480, Note_on_c, 1, 60, 127
1, 144480, Note_on_c, 1, 62, 127
1, 144480, Note_on_c, 1, 43, 127
1, 144539, Note_off_c, 1, 69, 0
1, 144540, Note_on_c, 1, 67, 127
1, 144599, Note_off_c, 1, 60, 0
1, 144599, Note_off_c, 1, 62, 0
1, 144599, Note_off_c, 1, 43, 0
1, 144599, Note_off_c, 1, 67, 0
1, 144600, Note_on_c, 1, 79, 127
1, 144600, Note_on_c, 1, 67, 127
1, 144720, Note_on_c, 1, 71, 127
1, 144720, Note_on_c, 1, 62, 127
1, 144720, Note_on_c, 1, 55, 127
1, 144720, Note_on_c, 1, 43, 127
1, 144779, Note_off_c, 1, 43, 0
1, 144809, Note_off_c, 1, 71, 0
1, 144809, Note_off_c, 1, 62, 0
1, 144810, Note_on_c, 1, 72, 127
1, 144810, Note_on_c, 1, 64, 127
1, 144824, Note_off_c, 1, 72, 0
1, 144824, Note_off_c, 1, 64, 0
1, 144825, Note_on_c, 1, 74, 127
1, 144825, Note_on_c, 1, 65, 127
1, 144839, Note_off_c, 1, 74, 0
1, 144839, Note_off_c, 1, 65, 0
1, 144900, Note_on_c, 1, 69, 127
1, 144900, Note_on_c, 1, 60, 127
1, 144929, Note_off_c, 1, 69, 0
1, 144929, Note_off_c, 1, 60, 0
1, 144930, Note_on_c, 1, 59, 127
1, 144959, Note_off_c, 1, 59, 0
1, 145020, Note_on_c, 1, 66, 127
1, 145020, Note_on_c, 1, 57, 127
1, 145079, Note_off_c, 1, 55, 0
1, 145079, Note_off_c, 1, 66, 0
1, 145079, Note_off_c, 1, 57, 0
1, 145500, Note_off_c, 1, 79, 0
1, 145500, Note_off_c, 1, 67, 0
1, 145500, Note_on_c, 1, 77, 127
1, 145560, Note_on_c, 1, 47, 127
1, 145619, Note_off_c, 1, 47, 0
1, 145620, Note_off_c, 1, 77, 0
1, 145620, Note_on_c, 1, 76, 127
1, 145680, Note_on_c, 1, 48, 127
1, 145739, Note_off_c, 1, 48, 0
1, 145800, Note_on_c, 1, 45, 127
1, 145859, Note_off_c, 1, 45, 0
1, 145920, Note_on_c, 1, 56, 127
1, 145920, Note_on_c, 1, 52, 127
1, 145979, Note_off_c, 1, 56, 0
1, 145979, Note_off_c, 1, 52, 0
1, 145980, Note_on_c, 1, 68, 127
1, 145980, Note_on_c, 1, 50, 127
1, 146039, Note_off_c, 1, 68, 0
1, 146039, Note_off_c, 1, 50, 0
1, 146519, Note_off_c, 1, 76, 0
1, 146520, Note_on_c, 1, 42, 127
1, 146579, Note_off_c, 1, 42, 0
1, 146640, Note_on_c, 1, 38, 127
1, 146699, Note_off_c, 1, 38, 0
1, 147780, Note_on_c, 1, 78, 127
1, 147839, Note_off_c, 1, 78, 0
1, 148560, Note_on_c, 1, 83, 127
1, 148649, Note_off_c, 1, 83, 0
1, 148650, Note_on_c, 1, 84, 127
1, 148664, Note_off_c, 1, 84, 0
1, 148665, Note_on_c, 1, 86, 127
1, 148679, Note_off_c, 1, 86, 0
1, 148740, Note_on_c, 1, 81, 127
1, 148769, Note_off_c, 1, 81, 0
1, 149145, Note_on_c, 1, 88, 127
1, 149159, Note_off_c, 1, 88, 0
1, 149280, Note_on_c, 1, 79, 127
1, 149280, Note_on_c, 1, 66, 127
1, 149280, Note_on_c, 1, 60, 127
1, 149280, Note_on_c, 1, 57, 127
1, 149280, Note_on_c, 1, 67, 127
1, 149280, Note_on_c, 1, 43, 127
1, 149339, Note_off_c, 1, 79, 0
1, 149339, Note_off_c, 1, 67, 0
1, 149339, Note_off_c, 1, 43, 0
1, 149340, Note_on_c, 1, 78, 127
1, 149340, Note_on_c, 1, 55, 127
1, 149399, Note_off_c, 1, 57, 0
1, 149399, Note_off_c, 1, 78, 0
1, 149399, Note_off_c, 1, 55, 0
1, 149400, Note_on_c, 1, 84, 127
1, 149400, Note_on_c, 1, 62, 127
1, 149400, Note_on_c, 1, 72, 127
1, 149459, Note_off_c, 1, 66, 0
1, 149459, Note_off_c, 1, 60, 0
1, 149460, Note_on_c, 1, 59, 127
1, 149489, Note_off_c, 1, 59, 0
1, 149490, Note_on_c, 1, 69, 127
1, 149519, Note_off_c, 1, 84, 0
1, 149519, Note_off_c, 1, 72, 0
1, 149519, Note_off_c, 1, 69, 0
1, 149520, Note_on_c, 1, 83, 127
1, 149520, Note_on_c, 1, 71, 127
1, 149609, Note_off_c, 1, 62, 0
1, 149609, Note_off_c, 1, 83, 0
1, 149609, Note_off_c, 1, 71, 0
1, 149610, Note_on_c, 1, 64, 127
1, 149624, Note_off_c, 1, 64, 0
1, 149625, Note_on_c, 1, 86, 127
1, 149625, Note_on_c, 1, 74, 127
1, 149625, Note_on_c, 1, 65, 127
1, 149639, Note_off_c, 1, 86, 0
1, 149639, Note_off_c, 1, 74, 0
1, 149639, Note_off_c, 1, 65, 0
1, 149700, Note_on_c, 1, 81, 127
1, 149729, Note_off_c, 1, 81, 0
1, 150210, Note_on_c, 1, 76, 127
1, 150239, Note_off_c, 1, 76, 0
1, 150300, Note_on_c, 1, 73, 127
1, 150300, Note_on_c, 1, 61, 127
1, 150479, Note_off_c, 1, 73, 0
1, 150479, Note_off_c, 1, 61, 0
1, 150480, Note_on_c, 1, 86, 127
1, 150480, Note_on_c, 1, 62, 127
1, 150480, Note_on_c, 1, 57, 127
1, 150480, Note_on_c, 1, 74, 127
1, 150480, Note_on_c, 1, 42, 127
1, 150539, Note_off_c, 1, 86, 0
1, 150539, Note_off_c, 1, 74, 0
1, 150539, Note_off_c, 1, 42, 0
1, 150540, Note_on_c, 1, 85, 127
1, 150540, Note_on_c, 1, 73, 127
1, 150540, Note_on_c, 1, 55, 127
1, 150569, Note_off_c, 1, 85, 0
1, 150569, Note_off_c, 1, 73, 0
1, 150570, Note_on_c, 1, 83, 127
1, 150570, Note_on_c, 1, 71, 127
1, 150599, Note_off_c, 1, 62, 0
1, 150599, Note_off_c, 1, 57, 0
1, 150599, Note_off_c, 1, 55, 0
1, 150599, Note_off_c, 1, 83, 0
1, 150599, Note_off_c, 1, 71, 0
1, 150600, Note_on_c, 1, 81, 127
1, 150600, Note_on_c, 1, 69, 127
1, 150600, Note_on_c, 1, 54, 127
1, 150659, Note_off_c, 1, 81, 0
1, 150659, Note_off_c, 1, 69, 0
1, 150659, Note_off_c, 1, 54, 0
1, 150660, Note_on_c, 1, 79, 127
1, 150660, Note_on_c, 1, 67, 127
1, 150660, Note_on_c, 1, 52, 127
1, 150719, Note_off_c, 1, 79, 0
1, 150719, Note_off_c, 1, 67, 0
1, 150719, Note_off_c, 1, 52, 0
1, 150720, Note_on_c, 1, 78, 127
1, 150720, Note_on_c, 1, 66, 127
1, 150720, Note_on_c, 1, 50, 127
1, 150779, Note_off_c, 1, 78, 0
1, 150779, Note_off_c, 1, 66, 0
1, 150779, Note_off_c, 1, 50, 0
1, 150780, Note_on_c, 1, 83, 127
1, 150780, Note_on_c, 1, 71, 127
1, 150780, Note_on_c, 1, 52, 127
1, 150839, Note_off_c, 1, 83, 0
1, 150839, Note_off_c, 1, 71, 0
1, 150839, Note_off_c, 1, 52, 0
1, 150840, Note_on_c, 1, 81, 127
1, 150840, Note_on_c, 1, 69, 127
1, 150840, Note_on_c, 1, 54, 127
1, 150899, Note_off_c, 1, 81, 0
1, 150899, Note_off_c, 1, 69, 0
1, 150899, Note_off_c, 1, 54, 0
1, 150900, Note_on_c, 1, 79, 127
1, 150900, Note_on_c, 1, 67, 127
1, 150900, Note_on_c, 1, 55, 127
1, 150959, Note_off_c, 1, 79, 0
1, 150959, Note_off_c, 1, 67, 0
1, 150959, Note_off_c, 1, 55, 0
1, 150960, Note_on_c, 1, 78, 127
1, 150960, Note_on_c, 1, 66, 127
1, 150960, Note_on_c, 1, 57, 127
1, 151019, Note_off_c, 1, 78, 0
1, 151019, Note_off_c, 1, 66, 0
1, 151020, Note_on_c, 1, 76, 127
1, 151020, Note_on_c, 1, 64, 127
1, 151049, Note_off_c, 1, 76, 0
1, 151049, Note_off_c, 1, 64, 0
1, 151050, Note_on_c, 1, 74, 127
1, 151050, Note_on_c, 1, 62, 127
1, 151079, Note_off_c, 1, 57, 0
1, 151079, Note_off_c, 1, 74, 0
1, 151079, Note_off_c, 1, 62, 0
1, 151080, Note_on_c, 1, 76, 127
1, 151080, Note_on_c, 1, 64, 127
1, 151080, Note_on_c, 1, 45, 127
1, 151095, Note_off_c, 1, 76, 0
1, 151095, Note_off_c, 1, 64, 0
1, 151095, Note_on_c, 1, 78, 127
1, 151095, Note_on_c, 1, 66, 127
1, 151110, Note_off_c, 1, 78, 0
1, 151110, Note_off_c, 1, 66, 0
1, 151180, Note_on_c, 1, 74, 127
1, 151180, Note_on_c, 1, 62, 127
1, 151190, Note_off_c, 1, 74, 0
1, 151190, Note_off_c, 1, 62, 0
1, 151199, Note_off_c, 1, 45, 0
1, 151200, Note_on_c, 1, 57, 127
1, 151200, Note_on_c, 1, 50, 127
1, 151259, Note_off_c, 1, 57, 0
1, 151259, Note_off_c, 1, 50, 0
1, 151260, Note_on_c, 1, 68, 127
1, 151320, Note_on_c, 1, 59, 127
1, 151320, Note_on_c, 1, 47, 127
1, 151379, Note_off_c, 1, 68, 0
1, 151379, Note_off_c, 1, 59, 0
1, 151379, Note_off_c, 1, 47, 0
1, 151380, Note_on_c, 1, 69, 127
1, 151409, Note_off_c, 1, 69, 0
1, 151410, Note_on_c, 1, 71, 127
1, 151439, Note_off_c, 1, 71, 0
1, 151440, Note_on_c, 1, 69, 127
1, 151440, Note_on_c, 1, 57, 127
1, 151440, Note_on_c, 1, 64, 127
1, 151440, Note_on_c, 1, 49, 127
1, 151499, Note_off_c, 1, 69, 0
1, 151499, Note_off_c, 1, 57, 0
1, 151499, Note_off_c, 1, 64, 0
1, 151499, Note_off_c, 1, 49, 0
1, 151500, Note_on_c, 1, 62, 127
1, 151500, Note_on_c, 1, 54, 127
1, 151559, Note_off_c, 1, 62, 0
1, 151559, Note_off_c, 1, 54, 0
1, 151560, Note_on_c, 1, 61, 127
1, 151560, Note_on_c, 1, 52, 127
1, 151589, Note_off_c, 1, 52, 0
1, 151590, Note_on_c, 1, 50, 127
1, 151619, Note_off_c, 1, 61, 0
1, 151619, Note_off_c, 1, 50, 0
1, 151620, Note_on_c, 1, 64, 127
1, 151620, Note_on_c, 1, 48, 127
1, 151649, Note_off_c, 1, 48, 0
1, 151650, Note_on_c, 1, 47, 127
1, 151679, Note_off_c, 1, 64, 0
1, 151679, Note_off_c, 1, 47, 0
1, 151680, Note_on_c, 1, 67, 127
1, 151680, Note_on_c, 1, 61, 127
1, 151680, Note_on_c, 1, 64, 127
1, 151680, Note_on_c, 1, 45, 127
1, 151739, Note_off_c, 1, 67, 0
1, 151739, Note_off_c, 1, 61, 0
1, 151739, Note_off_c, 1, 64, 0
1, 151739, Note_off_c, 1, 45, 0
1, 151740, Note_on_c, 1, 73, 127
1, 151800, Note_on_c, 1, 64, 127
1, 151800, Note_on_c, 1, 69, 127
1, 151800, Note_on_c, 1, 43, 127
1, 151859, Note_off_c, 1, 73, 0
1, 151859, Note_off_c, 1, 64, 0
1, 151859, Note_off_c, 1, 69, 0
1, 151859, Note_off_c, 1, 43, 0
1, 151860, Note_on_c, 1, 74, 127
1, 151889, Note_off_c, 1, 74, 0
1, 151890, Note_on_c, 1, 76, 127
1, 151919, Note_off_c, 1, 76, 0
1, 151920, Note_on_c, 1, 74, 127
1, 151920, Note_on_c, 1, 69, 127
1, 151920, Note_on_c, 1, 62, 127
1, 151920, Note_on_c, 1, 42, 127
1, 151979, Note_off_c, 1, 74, 0
1, 151979, Note_off_c, 1, 69, 0
1, 151979, Note_off_c, 1, 62, 0
1, 151979, Note_off_c, 1, 42, 0
1, 151980, Note_on_c, 1, 67, 127
1, 151980, Note_on_c, 1, 47, 127
1, 152039, Note_off_c, 1, 67, 0
1, 152039, Note_off_c, 1, 47, 0
1, 152040, Note_on_c, 1, 66, 127
1, 152040, Note_on_c, 1, 45, 127
1, 152069, Note_off_c, 1, 45, 0
1, 152070, Note_on_c, 1, 43, 127
1, 152099, Note_off_c, 1, 66, 0
1, 152099, Note_off_c, 1, 43, 0
1, 152100, Note_on_c, 1, 69, 127
1, 152100, Note_on_c, 1, 42, 127
1, 152129, Note_off_c, 1, 42, 0
1, 152130, Note_on_c, 1, 40, 127
1, 152159, Note_off_c, 1, 69, 0
1, 152159, Note_off_c, 1, 40, 0
1, 152160, Note_on_c, 1, 72, 127
1, 152160, Note_on_c, 1, 66, 127
1, 152160, Note_on_c, 1, 57, 127
1, 152160, Note_on_c, 1, 39, 127
1, 152219, Note_off_c, 1, 72, 0
1, 152219, Note_off_c, 1, 57, 0
1, 152219, Note_off_c, 1, 39, 0
1, 152220, Note_on_c, 1, 71, 127
1, 152220, Note_on_c, 1, 51, 127
1, 152279, Note_off_c, 1, 51, 0
1, 152280, Note_on_c, 1, 59, 127
1, 152339, Note_off_c, 1, 71, 0
1, 152339, Note_off_c, 1, 59, 0
1, 152340, Note_on_c, 1, 69, 127
1, 152400, Note_on_c, 1, 40, 127
1, 152459, Note_off_c, 1, 69, 0
1, 152459, Note_off_c, 1, 40, 0
1, 152460, Note_off_c, 1, 66, 0
1, 152460, Note_on_c, 1, 67, 127
1, 152460, Note_on_c, 1, 64, 127
1, 152460, Note_on_c, 1, 52, 127
1, 152489, Note_off_c, 1, 64, 0
1, 152490, Note_on_c, 1, 63, 127
1, 152519, Note_off_c, 1, 52, 0
1, 152519, Note_off_c, 1, 63, 0
1, 152579, Note_off_c, 1, 67, 0
1, 152580, Note_on_c, 1, 77, 127
1, 152580, Note_on_c, 1, 62, 127
1, 152580, Note_on_c, 1, 47, 127
1, 152639, Note_off_c, 1, 62, 0
1, 152639, Note_off_c, 1, 47, 0
1, 152640, Note_on_c, 1, 59, 127
1, 152640, Note_on_c, 1, 44, 127
1, 152699, Note_off_c, 1, 77, 0
1, 152699, Note_off_c, 1, 44, 0
1, 152700, Note_on_c, 1, 76, 127
1, 152700, Note_on_c, 1, 56, 127
1, 152759, Note_off_c, 1, 56, 0
1, 152760, Note_on_c, 1, 64, 127
1, 152819, Note_off_c, 1, 76, 0
1, 152819, Note_off_c, 1, 64, 0
1, 152820, Note_on_c, 1, 74, 127
1, 152880, Note_on_c, 1, 45, 127
1, 152939, Note_off_c, 1, 74, 0
1, 152939, Note_off_c, 1, 45, 0
1, 152940, Note_off_c, 1, 59, 0
1, 152940, Note_on_c, 1, 73, 127
1, 152940, Note_on_c, 1, 57, 127
1, 152999, Note_off_c, 1, 57, 0
1, 153059, Note_off_c, 1, 73, 0
1, 153060, Note_on_c, 1, 70, 127
1, 153060, Note_on_c, 1, 67, 127
1, 153060, Note_on_c, 1, 52, 127
1, 153119, Note_off_c, 1, 67, 0
1, 153119, Note_off_c, 1, 52, 0
1, 153120, Note_on_c, 1, 64, 127
1, 153120, Note_on_c, 1, 55, 127
1, 153120, Note_on_c, 1, 49, 127
1, 153179, Note_off_c, 1, 70, 0
1, 153179, Note_off_c, 1, 55, 0
1, 153179, Note_off_c, 1, 49, 0
1, 153180, Note_on_c, 1, 69, 127
1, 153180, Note_on_c, 1, 61, 127
1, 153239, Note_off_c, 1, 61, 0
1, 153240, Note_on_c, 1, 57, 127
1, 153299, Note_off_c, 1, 69, 0
1, 153299, Note_off_c, 1, 57, 0
1, 153360, Note_on_c, 1, 50, 127
1, 153419, Note_off_c, 1, 50, 0
1, 153420, Note_off_c, 1, 64, 0
1, 153420, Note_on_c, 1, 66, 127
1, 153420, Note_on_c, 1, 62, 127
1, 153479, Note_off_c, 1, 62, 0
1, 153539, Note_off_c, 1, 66, 0
1, 153540, Note_on_c, 1, 67, 127
1, 153540, Note_on_c, 1, 62, 127
1, 153540, Note_on_c, 1, 59, 127
1, 153599, Note_off_c, 1, 67, 0
1, 153599, Note_off_c, 1, 59, 0
1, 153600, Note_on_c, 1, 69, 127
1, 153600, Note_on_c, 1, 57, 127
1, 153600, Note_on_c, 1, 54, 127
1, 153659, Note_off_c, 1, 62, 0
1, 153659, Note_off_c, 1, 69, 0
1, 153659, Note_off_c, 1, 57, 0
1, 153659, Note_off_c, 1, 54, 0
1, 153660, Note_on_c, 1, 71, 127
1, 153660, Note_on_c, 1, 67, 127
1, 153660, Note_on_c, 1, 62, 127
1, 153660, Note_on_c, 1, 55, 127
1, 153689, Note_off_c, 1, 71, 0
1, 153689, Note_off_c, 1, 67, 0
1, 153690, Note_on_c, 1, 69, 127
1, 153690, Note_on_c, 1, 66, 127
1, 153719, Note_off_c, 1, 55, 0
1, 153719, Note_off_c, 1, 69, 0
1, 153719, Note_off_c, 1, 66, 0
1, 153720, Note_on_c, 1, 64, 127
1, 153720, Note_on_c, 1, 57, 127
1, 153779, Note_off_c, 1, 64, 0
1, 153779, Note_off_c, 1, 57, 0
1, 153780, Note_off_c, 1, 62, 0
1, 153780, Note_on_c, 1, 61, 127
1, 153810, Note_on_c, 1, 76, 127
1, 153839, Note_off_c, 1, 61, 0
1, 153839, Note_off_c, 1, 76, 0
1, 153840, Note_on_c, 1, 74, 127
1, 153840, Note_on_c, 1, 54, 127
1, 153869, Note_off_c, 1, 74, 0
1, 153870, Note_on_c, 1, 73, 127
1, 153899, Note_off_c, 1, 54, 0
1, 153899, Note_off_c, 1, 73, 0
1, 153900, Note_on_c, 1, 71, 127
1, 153900, Note_on_c, 1, 74, 127
1, 153900, Note_on_c, 1, 64, 127
1, 153900, Note_on_c, 1, 55, 127
1, 153929, Note_off_c, 1, 71, 0
1, 153930, Note_off_c, 1, 64, 0
1, 153930, Note_on_c, 1, 69, 127
1, 153930, Note_on_c, 1, 66, 127
1, 153959, Note_off_c, 1, 74, 0
1, 153959, Note_off_c, 1, 55, 0
1, 153959, Note_off_c, 1, 69, 0
1, 153960, Note_off_c, 1, 66, 0
1, 153960, Note_on_c, 1, 79, 127
1, 153960, Note_on_c, 1, 73, 127
1, 153960, Note_on_c, 1, 61, 127
1, 153960, Note_on_c, 1, 57, 127
1, 153989, Note_off_c, 1, 79, 0
1, 153989, Note_off_c, 1, 73, 0
1, 154019, Note_off_c, 1, 61, 0
1, 154019, Note_off_c, 1, 57, 0
1, 154020, Note_on_c, 1, 78, 127
1, 154020, Note_on_c, 1, 69, 127
1, 154020, Note_on_c, 1, 45, 127
1, 154049, Note_off_c, 1, 78, 0
1, 154049, Note_off_c, 1, 69, 0
1, 154050, Note_on_c, 1, 67, 127
1, 154079, Note_off_c, 1, 45, 0
1, 154079, Note_off_c, 1, 67, 0
1, 154080, Note_on_c, 1, 76, 127
1, 154080, Note_on_c, 1, 66, 127
1, 154080, Note_on_c, 1, 57, 127
1, 154080, Note_on_c, 1, 50, 127
1, 154109, Note_off_c, 1, 76, 0
1, 154110, Note_on_c, 1, 74, 127
1, 154139, Note_off_c, 1, 50, 0
1, 154139, Note_off_c, 1, 74, 0
1, 154140, Note_on_c, 1, 73, 127
1, 154140, Note_on_c, 1, 45, 127
1, 154169, Note_off_c, 1, 73, 0
1, 154170, Note_on_c, 1, 71, 127
1, 154199, Note_off_c, 1, 66, 0
1, 154199, Note_off_c, 1, 45, 0
1, 154199, Note_off_c, 1, 71, 0
1, 154200, Note_off_c, 1, 57, 0
1, 154200, Note_on_c, 1, 69, 127
1, 154200, Note_on_c, 1, 42, 127
1, 154229, Note_off_c, 1, 69, 0
1, 154230, Note_on_c, 1, 67, 127
1, 154259, Note_off_c, 1, 42, 0
1, 154259, Note_off_c, 1, 67, 0
1, 154260, Note_on_c, 1, 66, 127
1, 154260, Note_on_c, 1, 45, 127
1, 154289, Note_off_c, 1, 66, 0
1, 154290, Note_on_c, 1, 64, 127
1, 154319, Note_off_c, 1, 45, 0
1, 154319, Note_off_c, 1, 64, 0
1, 154320, Note_on_c, 1, 78, 127
1, 154320, Note_on_c, 1, 66, 127
1, 154320, Note_on_c, 1, 69, 127
1, 154320, Note_on_c, 1, 38, 127
1, 154380, Note_on_c, 1, 74, 127
1, 154380, Note_on_c, 1, 62, 127
1, 154409, Note_off_c, 1, 78, 0
1, 154409, Note_off_c, 1, 66, 0
1, 154409, Note_off_c, 1, 69, 0
1, 154410, Note_on_c, 1, 79, 127
1, 154410, Note_on_c, 1, 71, 127
1, 154410, Note_on_c, 1, 67, 127
1, 154424, Note_off_c, 1, 79, 0
1, 154424, Note_off_c, 1, 71, 0
1, 154424, Note_off_c, 1, 67, 0
1, 154425, Note_on_c, 1, 81, 127
1, 154425, Note_on_c, 1, 72, 127
1, 154439, Note_off_c, 1, 62, 0
1, 154439, Note_off_c, 1, 81, 0
1, 154439, Note_off_c, 1, 72, 0
1, 154499, Note_off_c, 1, 74, 0
1, 154500, Note_on_c, 1, 76, 127
1, 154500, Note_on_c, 1, 73, 127
1, 154500, Note_on_c, 1, 57, 127
1, 154500, Note_on_c, 1, 64, 127
1, 154529, Note_off_c, 1, 76, 0
1, 154529, Note_off_c, 1, 64, 0
1, 154559, Note_off_c, 1, 57, 0
1, 154619, Note_off_c, 1, 73, 0
1, 154620, Note_on_c, 1, 61, 127
1, 154679, Note_off_c, 1, 61, 0
1, 154890, Note_on_c, 1, 59, 127
1, 154904, Note_off_c, 1, 59, 0
1, 154905, Note_on_c, 1, 60, 127
1, 154919, Note_off_c, 1, 60, 0
1, 154980, Note_on_c, 1, 55, 127
1, 155009, Note_off_c, 1, 55, 0
1, 155100, Note_off_c, 1, 38, 0
1, 155100, Note_on_c, 1, 50, 127
1, 155159, Note_off_c, 1, 50, 0
1, 155160, Note_on_c, 1, 52, 127
1, 155219, Note_off_c, 1, 52, 0
1, 155220, Note_on_c, 1, 54, 127
1, 155279, Note_off_c, 1, 54, 0
1, 155280, Note_on_c, 1, 83, 127
1, 155280, Note_on_c, 1, 74, 127
1, 155280, Note_on_c, 1, 62, 127
1, 155280, Note_on_c, 1, 55, 127
1, 155280, Note_on_c, 1, 71, 127
1, 155280, Note_on_c, 1, 43, 127
1, 155339, Note_off_c, 1, 74, 0
1, 155339, Note_off_c, 1, 55, 0
1, 155340, Note_on_c, 1, 79, 127
1, 155340, Note_on_c, 1, 67, 127
1, 155369, Note_off_c, 1, 83, 0
1, 155369, Note_off_c, 1, 62, 0
1, 155369, Note_off_c, 1, 71, 0
1, 155370, Note_on_c, 1, 84, 127
1, 155370, Note_on_c, 1, 64, 127
1, 155370, Note_on_c, 1, 72, 127
1, 155384, Note_off_c, 1, 84, 0
1, 155384, Note_off_c, 1, 64, 0
1, 155384, Note_off_c, 1, 72, 0
1, 155385, Note_on_c, 1, 86, 127
1, 155385, Note_on_c, 1, 65, 127
1, 155399, Note_off_c, 1, 67, 0
1, 155399, Note_off_c, 1, 86, 0
1, 155399, Note_off_c, 1, 65, 0
1, 155459, Note_off_c, 1, 79, 0
1, 155460, Note_on_c, 1, 81, 127
1, 155460, Note_on_c, 1, 78, 127
1, 155460, Note_on_c, 1, 60, 127
1, 155460, Note_on_c, 1, 69, 127
1, 155489, Note_off_c, 1, 81, 0
1, 155489, Note_off_c, 1, 60, 0
1, 155489, Note_off_c, 1, 69, 0
1, 155490, Note_on_c, 1, 59, 127
1, 155519, Note_off_c, 1, 59, 0
1, 155579, Note_off_c, 1, 78, 0
1, 155580, Note_on_c, 1, 57, 127
1, 155580, Note_on_c, 1, 66, 127
1, 155639, Note_off_c, 1, 57, 0
1, 155639, Note_off_c, 1, 66, 0
1, 156000, Note_on_c, 1, 77, 127
1, 156060, Note_off_c, 1, 43, 0
1, 156239, Note_off_c, 1, 77, 0
1, 156240, Note_on_c, 1, 76, 127
1, 156240, Note_on_c, 1, 55, 127
1, 156240, Note_on_c, 1, 60, 127
1, 156240, Note_on_c, 1, 64, 127
1, 156240, Note_on_c, 1, 48, 127
1, 156299, Note_off_c, 1, 55, 0
1, 156299, Note_off_c, 1, 60, 0
1, 156299, Note_off_c, 1, 48, 0
1, 156300, Note_off_c, 1, 64, 0
1, 156300, Note_on_c, 1, 88, 127
1, 156360, Note_on_c, 1, 71, 127
1, 156360, Note_on_c, 1, 44, 127
1, 156389, Note_off_c, 1, 76, 0
1, 156389, Note_off_c, 1, 88, 0
1, 156390, Note_on_c, 1, 86, 127
1, 156390, Note_on_c, 1, 74, 127
1, 156419, Note_off_c, 1, 71, 0
1, 156419, Note_off_c, 1, 44, 0
1, 156419, Note_off_c, 1, 86, 0
1, 156419, Note_off_c, 1, 74, 0
1, 156420, Note_on_c, 1, 84, 127
1, 156420, Note_on_c, 1, 72, 127
1, 156449, Note_off_c, 1, 84, 0
1, 156449, Note_off_c, 1, 72, 0
1, 156450, Note_on_c, 1, 83, 127
1, 156450, Note_on_c, 1, 71, 127
1, 156479, Note_off_c, 1, 83, 0
1, 156479, Note_off_c, 1, 71, 0
1, 156480, Note_on_c, 1, 84, 127
1, 156480, Note_on_c, 1, 64, 127
1, 156480, Note_on_c, 1, 72, 127
1, 156480, Note_on_c, 1, 45, 127
1, 156539, Note_off_c, 1, 84, 0
1, 156539, Note_off_c, 1, 64, 0
1, 156539, Note_off_c, 1, 72, 0
1, 156539, Note_off_c, 1, 45, 0
1, 156540, Note_on_c, 1, 83, 127
1, 156540, Note_on_c, 1, 76, 127
1, 156540, Note_on_c, 1, 71, 127
1, 156599, Note_off_c, 1, 83, 0
1, 156599, Note_off_c, 1, 71, 0
1, 156600, Note_on_c, 1, 81, 127
1, 156600, Note_on_c, 1, 69, 127
1, 156600, Note_on_c, 1, 48, 127
1, 156629, Note_off_c, 1, 76, 0
1, 156630, Note_on_c, 1, 74, 127
1, 156659, Note_off_c, 1, 81, 0
1, 156659, Note_off_c, 1, 69, 0
1, 156659, Note_off_c, 1, 48, 0
1, 156659, Note_off_c, 1, 74, 0
1, 156660, Note_on_c, 1, 79, 127
1, 156660, Note_on_c, 1, 72, 127
1, 156660, Note_on_c, 1, 67, 127
1, 156689, Note_off_c, 1, 72, 0
1, 156690, Note_on_c, 1, 71, 127
1, 156719, Note_off_c, 1, 79, 0
1, 156719, Note_off_c, 1, 67, 0
1, 156719, Note_off_c, 1, 71, 0
1, 156720, Note_on_c, 1, 78, 127
1, 156720, Note_on_c, 1, 69, 127
1, 156720, Note_on_c, 1, 66, 127
1, 156720, Note_on_c, 1, 50, 127
1, 156779, Note_off_c, 1, 78, 0
1, 156779, Note_off_c, 1, 69, 0
1, 156779, Note_off_c, 1, 66, 0
1, 156779, Note_off_c, 1, 50, 0
1, 156780, Note_on_c, 1, 86, 127
1, 156780, Note_on_c, 1, 74, 127
1, 156840, Note_on_c, 1, 66, 127
1, 156840, Note_on_c, 1, 38, 127
1, 156869, Note_off_c, 1, 86, 0
1, 156869, Note_off_c, 1, 74, 0
1, 156870, Note_on_c, 1, 84, 127
1, 156870, Note_on_c, 1, 72, 127
1, 156899, Note_off_c, 1, 66, 0
1, 156899, Note_off_c, 1, 38, 0
1, 156899, Note_off_c, 1, 84, 0
1, 156899, Note_off_c, 1, 72, 0
1, 156900, Note_on_c, 1, 83, 127
1, 156900, Note_on_c, 1, 71, 127
1, 156929, Note_off_c, 1, 83, 0
1, 156929, Note_off_c, 1, 71, 0
1, 156930, Note_on_c, 1, 81, 127
1, 156930, Note_on_c, 1, 69, 127
1, 156959, Note_off_c, 1, 81, 0
1, 156959, Note_off_c, 1, 69, 0
1, 156960, Note_on_c, 1, 83, 127
1, 156960, Note_on_c, 1, 62, 127
1, 156960, Note_on_c, 1, 71, 127
1, 156960, Note_on_c, 1, 43, 127
1, 157019, Note_off_c, 1, 83, 0
1, 157019, Note_off_c, 1, 62, 0
1, 157019, Note_off_c, 1, 71, 0
1, 157019, Note_off_c, 1, 43, 0
1, 157020, Note_on_c, 1, 81, 127
1, 157020, Note_on_c, 1, 74, 127
1, 157020, Note_on_c, 1, 69, 127
1, 157079, Note_off_c, 1, 81, 0
1, 157079, Note_off_c, 1, 69, 0
1, 157080, Note_on_c, 1, 79, 127
1, 157080, Note_on_c, 1, 67, 127
1, 157080, Note_on_c, 1, 47, 127
1, 157109, Note_off_c, 1, 74, 0
1, 157110, Note_on_c, 1, 72, 127
1, 157139, Note_off_c, 1, 79, 0
1, 157139, Note_off_c, 1, 67, 0
1, 157139, Note_off_c, 1, 47, 0
1, 157139, Note_off_c, 1, 72, 0
1, 157140, Note_on_c, 1, 77, 127
1, 157140, Note_on_c, 1, 71, 127
1, 157140, Note_on_c, 1, 65, 127
1, 157169, Note_off_c, 1, 71, 0
1, 157170, Note_on_c, 1, 74, 127
1, 157199, Note_off_c, 1, 77, 0
1, 157199, Note_off_c, 1, 65, 0
1, 157199, Note_off_c, 1, 74, 0
1, 157200, Note_on_c, 1, 76, 127
1, 157200, Note_on_c, 1, 64, 127
1, 157200, Note_on_c, 1, 60, 127
1, 157200, Note_on_c, 1, 55, 127
1, 157200, Note_on_c, 1, 48, 127
1, 157259, Note_off_c, 1, 76, 0
1, 157259, Note_off_c, 1, 64, 0
1, 157259, Note_off_c, 1, 60, 0
1, 157259, Note_off_c, 1, 55, 0
1, 157259, Note_off_c, 1, 48, 0
1, 157260, Note_on_c, 1, 81, 127
1, 157260, Note_on_c, 1, 69, 127
1, 157260, Note_on_c, 1, 64, 127
1, 157260, Note_on_c, 1, 60, 127
1, 157319, Note_off_c, 1, 81, 0
1, 157319, Note_off_c, 1, 69, 0
1, 157319, Note_off_c, 1, 64, 0
1, 157319, Note_off_c, 1, 60, 0
1, 157320, Note_on_c, 1, 81, 127
1, 157320, Note_on_c, 1, 69, 127
1, 157320, Note_on_c, 1, 64, 127
1, 157320, Note_on_c, 1, 60, 127
1, 157320, Note_on_c, 1, 45, 127
1, 157379, Note_off_c, 1, 81, 0
1, 157379, Note_off_c, 1, 69, 0
1, 157379, Note_off_c, 1, 64, 0
1, 157379, Note_off_c, 1, 60, 0
1, 157379, Note_off_c, 1, 45, 0
1, 157380, Note_on_c, 1, 84, 127
1, 157380, Note_on_c, 1, 72, 127
1, 157380, Note_on_c, 1, 69, 127
1, 157380, Note_on_c, 1, 64, 127
1, 157439, Note_off_c, 1, 84, 0
1, 157439, Note_off_c, 1, 72, 0
1, 157439, Note_off_c, 1, 69, 0
1, 157439, Note_off_c, 1, 64, 0
1, 157440, Note_on_c, 1, 84, 127
1, 157440, Note_on_c, 1, 72, 127
1, 157440, Note_on_c, 1, 69, 127
1, 157440, Note_on_c, 1, 66, 127
1, 157440, Note_on_c, 1, 50, 127
1, 157499, Note_off_c, 1, 50, 0
1, 157529, Note_off_c, 1, 84, 0
1, 157529, Note_off_c, 1, 72, 0
1, 157530, Note_on_c, 1, 86, 127
1, 157530, Note_on_c, 1, 74, 127
1, 157544, Note_off_c, 1, 86, 0
1, 157544, Note_off_c, 1, 74, 0
1, 157545, Note_on_c, 1, 88, 127
1, 157545, Note_on_c, 1, 76, 127
1, 157559, Note_off_c, 1, 88, 0
1, 157559, Note_off_c, 1, 76, 0
1, 157560, Note_on_c, 1, 47, 127
1, 157590, Note_off_c, 1, 66, 0
1, 157590, Note_on_c, 1, 64, 127
1, 157619, Note_off_c, 1, 69, 0
1, 157619, Note_off_c, 1, 47, 0
1, 157619, Note_off_c, 1, 64, 0
1, 157620, Note_on_c, 1, 83, 127
1, 157620, Note_on_c, 1, 71, 127
1, 157620, Note_on_c, 1, 67, 127
1, 157620, Note_on_c, 1, 62, 127
1, 157649, Note_off_c, 1, 83, 0
1, 157649, Note_off_c, 1, 71, 0
1, 157649, Note_off_c, 1, 67, 0
1, 157649, Note_off_c, 1, 62, 0
1, 157650, Note_on_c, 1, 81, 127
1, 157650, Note_on_c, 1, 69, 127
1, 157650, Note_on_c, 1, 66, 127
1, 157650, Note_on_c, 1, 60, 127
1, 157679, Note_off_c, 1, 81, 0
1, 157679, Note_off_c, 1, 69, 0
1, 157679, Note_off_c, 1, 66, 0
1, 157679, Note_off_c, 1, 60, 0
1, 157680, Note_on_c, 1, 79, 127
1, 157680, Note_on_c, 1, 67, 127
1, 157680, Note_on_c, 1, 59, 127
1, 157680, Note_on_c, 1, 52, 127
1, 157710, Note_off_c, 1, 79, 0
1, 157710, Note_on_c, 1, 78, 127
1, 157710, Note_on_c, 1, 66, 127
1, 157739, Note_off_c, 1, 67, 0
1, 157739, Note_off_c, 1, 59, 0
1, 157739, Note_off_c, 1, 52, 0
1, 157740, Note_off_c, 1, 78, 0
1, 157740, Note_off_c, 1, 66, 0
1, 157740, Note_on_c, 1, 64, 127
1, 157740, Note_on_c, 1, 48, 127
1, 157770, Note_on_c, 1, 84, 127
1, 157770, Note_on_c, 1, 72, 127
1, 157799, Note_off_c, 1, 64, 0
1, 157799, Note_off_c, 1, 48, 0
1, 157800, Note_off_c, 1, 84, 0
1, 157800, Note_off_c, 1, 72, 0
1, 157800, Note_on_c, 1, 81, 127
1, 157800, Note_on_c, 1, 69, 127
1, 157800, Note_on_c, 1, 62, 127
1, 157800, Note_on_c, 1, 50, 127
1, 157810, Note_off_c, 1, 81, 0
1, 157810, Note_on_c, 1, 83, 127
1, 157810, Note_on_c, 1, 71, 127
1, 157820, Note_off_c, 1, 83, 0
1, 157820, Note_off_c, 1, 71, 0
1, 157859, Note_off_c, 1, 62, 0
1, 157859, Note_off_c, 1, 50, 0
1, 157860, Note_on_c, 1, 60, 127
1, 157860, Note_on_c, 1, 38, 127
1, 157890, Note_off_c, 1, 69, 0
1, 157919, Note_off_c, 1, 60, 0
1, 157919, Note_off_c, 1, 38, 0
1, 157920, Note_on_c, 1, 40, 127
1, 157979, Note_off_c, 1, 40, 0
1, 157980, Note_on_c, 1, 73, 127
1, 158040, Note_on_c, 1, 57, 127
1, 158040, Note_on_c, 1, 45, 127
1, 158099, Note_off_c, 1, 73, 0
1, 158099, Note_off_c, 1, 57, 0
1, 158099, Note_off_c, 1, 45, 0
1, 158100, Note_on_c, 1, 79, 127
1, 158100, Note_on_c, 1, 74, 127
1, 158100, Note_on_c, 1, 67, 127
1, 158129, Note_off_c, 1, 74, 0
1, 158130, Note_on_c, 1, 76, 127
1, 158159, Note_off_c, 1, 76, 0
1, 158160, Note_on_c, 1, 57, 127
1, 158160, Note_on_c, 1, 50, 127
1, 158219, Note_off_c, 1, 79, 0
1, 158219, Note_off_c, 1, 67, 0
1, 158219, Note_off_c, 1, 57, 0
1, 158219, Note_off_c, 1, 50, 0
1, 158220, Note_on_c, 1, 76, 127
1, 158220, Note_on_c, 1, 67, 127
1, 158220, Note_on_c, 1, 64, 127
1, 158220, Note_on_c, 1, 59, 127
1, 158279, Note_off_c, 1, 76, 0
1, 158279, Note_off_c, 1, 67, 0
1, 158279, Note_off_c, 1, 64, 0
1, 158279, Note_off_c, 1, 59, 0
1, 158280, Note_on_c, 1, 76, 127
1, 158280, Note_on_c, 1, 66, 127
1, 158280, Note_on_c, 1, 64, 127
1, 158280, Note_on_c, 1, 57, 127
1, 158309, Note_off_c, 1, 57, 0
1, 158310, Note_on_c, 1, 55, 127
1, 158339, Note_off_c, 1, 76, 0
1, 158339, Note_off_c, 1, 66, 0
1, 158339, Note_off_c, 1, 64, 0
1, 158339, Note_off_c, 1, 55, 0
1, 158340, Note_on_c, 1, 78, 127
1, 158340, Note_on_c, 1, 69, 127
1, 158340, Note_on_c, 1, 66, 127
1, 158340, Note_on_c, 1, 54, 127
1, 158369, Note_off_c, 1, 54, 0
1, 158370, Note_on_c, 1, 52, 127
1, 158399, Note_off_c, 1, 78, 0
1, 158399, Note_off_c, 1, 69, 0
1, 158399, Note_off_c, 1, 66, 0
1, 158399, Note_off_c, 1, 52, 0
1, 158400, Note_on_c, 1, 72, 127
1, 158400, Note_on_c, 1, 66, 127
1, 158400, Note_on_c, 1, 57, 127
1, 158400, Note_on_c, 1, 50, 127
1, 158459, Note_off_c, 1, 72, 0
1, 158459, Note_off_c, 1, 66, 0
1, 158459, Note_off_c, 1, 57, 0
1, 158459, Note_off_c, 1, 50, 0
1, 158460, Note_on_c, 1, 78, 127
1, 158520, Note_on_c, 1, 69, 127
1, 158520, Note_on_c, 1, 62, 127
1, 158520, Note_on_c, 1, 38, 127
1, 158579, Note_off_c, 1, 78, 0
1, 158579, Note_off_c, 1, 69, 0
1, 158579, Note_off_c, 1, 62, 0
1, 158579, Note_off_c, 1, 38, 0
1, 158580, Note_on_c, 1, 84, 127
1, 158580, Note_on_c, 1, 79, 127
1, 158580, Note_on_c, 1, 72, 127
1, 158609, Note_off_c, 1, 79, 0
1, 158610, Note_on_c, 1, 81, 127
1, 158639, Note_off_c, 1, 81, 0
1, 158640, Note_on_c, 1, 62, 127
1, 158640, Note_on_c, 1, 43, 127
1, 158699, Note_off_c, 1, 84, 0
1, 158699, Note_off_c, 1, 72, 0
1, 158699, Note_off_c, 1, 62, 0
1, 158699, Note_off_c, 1, 43, 0
1, 158700, Note_on_c, 1, 81, 127
1, 158700, Note_on_c, 1, 72, 127
1, 158700, Note_on_c, 1, 69, 127
1, 158700, Note_on_c, 1, 52, 127
1, 158759, Note_off_c, 1, 81, 0
1, 158759, Note_off_c, 1, 72, 0
1, 158759, Note_off_c, 1, 69, 0
1, 158759, Note_off_c, 1, 52, 0
1, 158760, Note_on_c, 1, 81, 127
1, 158760, Note_on_c, 1, 71, 127
1, 158760, Note_on_c, 1, 69, 127
1, 158760, Note_on_c, 1, 50, 127
1, 158789, Note_off_c, 1, 50, 0
1, 158790, Note_on_c, 1, 48, 127
1, 158819, Note_off_c, 1, 81, 0
1, 158819, Note_off_c, 1, 71, 0
1, 158819, Note_off_c, 1, 69, 0
1, 158819, Note_off_c, 1, 48, 0
1, 158820, Note_on_c, 1, 83, 127
1, 158820, Note_on_c, 1, 74, 127
1, 158820, Note_on_c, 1, 71, 127
1, 158820, Note_on_c, 1, 47, 127
1, 158849, Note_off_c, 1, 47, 0
1, 158850, Note_on_c, 1, 45, 127
1, 158879, Note_off_c, 1, 83, 0
1, 158879, Note_off_c, 1, 74, 0
1, 158879, Note_off_c, 1, 71, 0
1, 158879, Note_off_c, 1, 45, 0
1, 158880, Note_on_c, 1, 77, 127
1, 158880, Note_on_c, 1, 71, 127
1, 158880, Note_on_c, 1, 62, 127
1, 158880, Note_on_c, 1, 44, 127
1, 158939, Note_off_c, 1, 77, 0
1, 158939, Note_off_c, 1, 62, 0
1, 158939, Note_off_c, 1, 44, 0
1, 158940, Note_on_c, 1, 76, 127
1, 158940, Note_on_c, 1, 64, 127
1, 158940, Note_on_c, 1, 56, 127
1, 158969, Note_off_c, 1, 64, 0
1, 158970, Note_on_c, 1, 78, 127
1, 158970, Note_on_c, 1, 66, 127
1, 158999, Note_off_c, 1, 56, 0
1, 158999, Note_off_c, 1, 78, 0
1, 158999, Note_off_c, 1, 66, 0
1, 159000, Note_on_c, 1, 80, 127
1, 159000, Note_on_c, 1, 68, 127
1, 159029, Note_off_c, 1, 80, 0
1, 159029, Note_off_c, 1, 68, 0
1, 159030, Note_on_c, 1, 81, 127
1, 159030, Note_on_c, 1, 69, 127
1, 159059, Note_off_c, 1, 76, 0
1, 159059, Note_off_c, 1, 81, 0
1, 159059, Note_off_c, 1, 69, 0
1, 159060, Note_on_c, 1, 83, 127
1, 159060, Note_on_c, 1, 74, 127
1, 159089, Note_off_c, 1, 83, 0
1, 159090, Note_on_c, 1, 84, 127
1, 159090, Note_on_c, 1, 72, 127
1, 159119, Note_off_c, 1, 84, 0
1, 159119, Note_off_c, 1, 72, 0
1, 159120, Note_on_c, 1, 86, 127
1, 159120, Note_on_c, 1, 45, 127
1, 159179, Note_off_c, 1, 74, 0
1, 159179, Note_off_c, 1, 86, 0
1, 159179, Note_off_c, 1, 45, 0
1, 159180, Note_off_c, 1, 71, 0
1, 159180, Note_on_c, 1, 57, 127
1, 159239, Note_off_c, 1, 57, 0
1, 159300, Note_on_c, 1, 70, 127
1, 159300, Note_on_c, 1, 67, 127
1, 159300, Note_on_c, 1, 45, 127
1, 159359, Note_off_c, 1, 67, 0
1, 159359, Note_off_c, 1, 45, 0
1, 159360, Note_on_c, 1, 64, 127
1, 159360, Note_on_c, 1, 55, 127
1, 159360, Note_on_c, 1, 49, 127
1, 159419, Note_off_c, 1, 70, 0
1, 159419, Note_off_c, 1, 55, 0
1, 159419, Note_off_c, 1, 49, 0
1, 159420, Note_on_c, 1, 76, 127
1, 159420, Note_on_c, 1, 69, 127
1, 159420, Note_on_c, 1, 57, 127
1, 159479, Note_off_c, 1, 76, 0
1, 159479, Note_off_c, 1, 57, 0
1, 159480, Note_on_c, 1, 85, 127
1, 159480, Note_on_c, 1, 73, 127
1, 159539, Note_off_c, 1, 69, 0
1, 159600, Note_on_c, 1, 38, 127
1, 159659, Note_off_c, 1, 85, 0
1, 159659, Note_off_c, 1, 73, 0
1, 159659, Note_off_c, 1, 38, 0
1, 159660, Note_off_c, 1, 64, 0
1, 159660, Note_on_c, 1, 86, 127
1, 159660, Note_on_c, 1, 66, 127
1, 159660, Note_on_c, 1, 62, 127
1, 159660, Note_on_c, 1, 74, 127
1, 159660, Note_on_c, 1, 50, 127
1, 159689, Note_off_c, 1, 62, 0
1, 159690, Note_on_c, 1, 61, 127
1, 159719, Note_off_c, 1, 50, 0
1, 159719, Note_off_c, 1, 61, 0
1, 159779, Note_off_c, 1, 86, 0
1, 159779, Note_off_c, 1, 66, 0
1, 159779, Note_off_c, 1, 74, 0
1, 159780, Note_on_c, 1, 84, 127
1, 159780, Note_on_c, 1, 63, 127
1, 159780, Note_on_c, 1, 67, 127
1, 159780, Note_on_c, 1, 72, 127
1, 159780, Note_on_c, 1, 45, 127
1, 159839, Note_off_c, 1, 67, 0
1, 159839, Note_off_c, 1, 45, 0
1, 159840, Note_on_c, 1, 66, 127
1, 159840, Note_on_c, 1, 38, 127
1, 159899, Note_off_c, 1, 84, 0
1, 159899, Note_off_c, 1, 63, 0
1, 159899, Note_off_c, 1, 72, 0
1, 159899, Note_off_c, 1, 66, 0
1, 159899, Note_off_c, 1, 38, 0
1, 159900, Note_on_c, 1, 82, 127
1, 159900, Note_on_c, 1, 62, 127
1, 159900, Note_on_c, 1, 67, 127
1, 159900, Note_on_c, 1, 70, 127
1, 159900, Note_on_c, 1, 50, 127
1, 159959, Note_off_c, 1, 50, 0
1, 159960, Note_on_c, 1, 52, 127
1, 160019, Note_off_c, 1, 82, 0
1, 160019, Note_off_c, 1, 62, 0
1, 160019, Note_off_c, 1, 67, 0
1, 160019, Note_off_c, 1, 70, 0
1, 160019, Note_off_c, 1, 52, 0
1, 160020, Note_on_c, 1, 81, 127
1, 160020, Note_on_c, 1, 60, 127
1, 160020, Note_on_c, 1, 69, 127
1, 160020, Note_on_c, 1, 54, 127
1, 160079, Note_off_c, 1, 81, 0
1, 160079, Note_off_c, 1, 54, 0
1, 160080, Note_on_c, 1, 86, 127
1, 160080, Note_on_c, 1, 74, 127
1, 160080, Note_on_c, 1, 47, 127
1, 160139, Note_off_c, 1, 60, 0
1, 160139, Note_off_c, 1, 69, 0
1, 160139, Note_off_c, 1, 86, 0
1, 160139, Note_off_c, 1, 74, 0
1, 160139, Note_off_c, 1, 47, 0
1, 160140, Note_on_c, 1, 79, 127
1, 160140, Note_on_c, 1, 60, 127
1, 160140, Note_on_c, 1, 67, 127
1, 160140, Note_on_c, 1, 59, 127
1, 160199, Note_off_c, 1, 59, 0
1, 160200, Note_on_c, 1, 57, 127
1, 160259, Note_off_c, 1, 79, 0
1, 160259, Note_off_c, 1, 60, 0
1, 160259, Note_off_c, 1, 67, 0
1, 160259, Note_off_c, 1, 57, 0
1, 160260, Note_on_c, 1, 78, 127
1, 160260, Note_on_c, 1, 60, 127
1, 160260, Note_on_c, 1, 72, 127
1, 160260, Note_on_c, 1, 66, 127
1, 160260, Note_on_c, 1, 55, 127
1, 160289, Note_off_c, 1, 78, 0
1, 160289, Note_off_c, 1, 66, 0
1, 160290, Note_on_c, 1, 76, 127
1, 160290, Note_on_c, 1, 64, 127
1, 160319, Note_off_c, 1, 55, 0
1, 160319, Note_off_c, 1, 76, 0
1, 160319, Note_off_c, 1, 64, 0
1, 160320, Note_on_c, 1, 74, 127
1, 160320, Note_on_c, 1, 62, 127
1, 160320, Note_on_c, 1, 54, 127
1, 160379, Note_off_c, 1, 60, 0
1, 160379, Note_off_c, 1, 72, 0
1, 160379, Note_off_c, 1, 74, 0
1, 160379, Note_off_c, 1, 62, 0
1, 160379, Note_off_c, 1, 54, 0
1, 160380, Note_on_c, 1, 76, 127
1, 160380, Note_on_c, 1, 64, 127
1, 160380, Note_on_c, 1, 50, 127
1, 160409, Note_off_c, 1, 76, 0
1, 160409, Note_off_c, 1, 64, 0
1, 160410, Note_on_c, 1, 78, 127
1, 160410, Note_on_c, 1, 66, 127
1, 160439, Note_off_c, 1, 50, 0
1, 160439, Note_off_c, 1, 78, 0
1, 160439, Note_off_c, 1, 66, 0
1, 160440, Note_on_c, 1, 79, 127
1, 160440, Note_on_c, 1, 67, 127
1, 160440, Note_on_c, 1, 47, 127
1, 160469, Note_off_c, 1, 79, 0
1, 160469, Note_off_c, 1, 67, 0
1, 160470, Note_on_c, 1, 81, 127
1, 160470, Note_on_c, 1, 69, 127
1, 160499, Note_off_c, 1, 47, 0
1, 160499, Note_off_c, 1, 81, 0
1, 160499, Note_off_c, 1, 69, 0
1, 160500, Note_on_c, 1, 83, 127
1, 160500, Note_on_c, 1, 71, 127
1, 160500, Note_on_c, 1, 43, 127
1, 160529, Note_off_c, 1, 83, 0
1, 160529, Note_off_c, 1, 71, 0
1, 160530, Note_on_c, 1, 84, 127
1, 160530, Note_on_c, 1, 72, 127
1, 160559, Note_off_c, 1, 43, 0
1, 160559, Note_off_c, 1, 84, 0
1, 160559, Note_off_c, 1, 72, 0
1, 160560, Note_on_c, 1, 84, 127
1, 160560, Note_on_c, 1, 72, 127
1, 160560, Note_on_c, 1, 52, 127
1, 160589, Note_off_c, 1, 84, 0
1, 160589, Note_off_c, 1, 72, 0
1, 160590, Note_on_c, 1, 83, 127
1, 160590, Note_on_c, 1, 71, 127
1, 160619, Note_off_c, 1, 52, 0
1, 160619, Note_off_c, 1, 83, 0
1, 160619, Note_off_c, 1, 71, 0
1, 160620, Note_on_c, 1, 81, 127
1, 160620, Note_on_c, 1, 69, 127
1, 160620, Note_on_c, 1, 47, 127
1, 160649, Note_off_c, 1, 81, 0
1, 160649, Note_off_c, 1, 69, 0
1, 160650, Note_on_c, 1, 79, 127
1, 160650, Note_on_c, 1, 67, 127
1, 160679, Note_off_c, 1, 47, 0
1, 160679, Note_off_c, 1, 79, 0
1, 160679, Note_off_c, 1, 67, 0
1, 160680, Note_on_c, 1, 81, 127
1, 160680, Note_on_c, 1, 69, 127
1, 160680, Note_on_c, 1, 48, 127
1, 160695, Note_off_c, 1, 81, 0
1, 160695, Note_off_c, 1, 69, 0
1, 160695, Note_on_c, 1, 83, 127
1, 160695, Note_on_c, 1, 71, 127
1, 160710, Note_off_c, 1, 83, 0
1, 160710, Note_off_c, 1, 71, 0
1, 160739, Note_off_c, 1, 48, 0
1, 160740, Note_on_c, 1, 50, 127
1, 160780, Note_on_c, 1, 79, 127
1, 160780, Note_on_c, 1, 67, 127
1, 160790, Note_off_c, 1, 79, 0
1, 160790, Note_off_c, 1, 67, 0
1, 160799, Note_off_c, 1, 50, 0
1, 160800, Note_on_c, 1, 43, 127
1, 160859, Note_off_c, 1, 43, 0
1, 160860, Note_on_c, 1, 55, 127
1, 160919, Note_off_c, 1, 55, 0
1, 160920, Note_on_c, 1, 50, 127
1, 160979, Note_off_c, 1, 50, 0
1, 160980, Note_on_c, 1, 47, 127
1, 161039, Note_off_c, 1, 47, 0
1, 161040, Note_on_c, 1, 71, 127
1, 161040, Note_on_c, 1, 62, 127
1, 161040, Note_on_c, 1, 55, 127
1, 161040, Note_on_c, 1, 43, 127
1, 161099, Note_off_c, 1, 43, 0
1, 161129, Note_off_c, 1, 71, 0
1, 161129, Note_off_c, 1, 62, 0
1, 161130, Note_on_c, 1, 72, 127
1, 161130, Note_on_c, 1, 64, 127
1, 161144, Note_off_c, 1, 72, 0
1, 161144, Note_off_c, 1, 64, 0
1, 161145, Note_on_c, 1, 74, 127
1, 161145, Note_on_c, 1, 65, 127
1, 161159, Note_off_c, 1, 74, 0
1, 161159, Note_off_c, 1, 65, 0
1, 161220, Note_on_c, 1, 69, 127
1, 161220, Note_on_c, 1, 60, 127
1, 161249, Note_off_c, 1, 69, 0
1, 161249, Note_off_c, 1, 60, 0
1, 161250, Note_on_c, 1, 67, 127
1, 161250, Note_on_c, 1, 59, 127
1, 161279, Note_off_c, 1, 67, 0
1, 161279, Note_off_c, 1, 59, 0
1, 161340, Note_on_c, 1, 66, 127
1, 161340, Note_on_c, 1, 57, 127
1, 161399, Note_off_c, 1, 66, 0
1, 161399, Note_off_c, 1, 57, 0
1, 162000, Note_off_c, 1, 55, 0
1, 162240, Note_on_c, 1, 76, 127
1, 162299, Note_off_c, 1, 76, 0
1, 162720, Note_on_c, 1, 72, 127
1, 162720, Note_on_c, 1, 67, 127
1, 162720, Note_on_c, 1, 62, 127
1, 162720, Note_on_c, 1, 43, 127
1, 162749, Note_off_c, 1, 72, 0
1, 162750, Note_on_c, 1, 71, 127
1, 162779, Note_off_c, 1, 67, 0
1, 162779, Note_off_c, 1, 62, 0
1, 162779, Note_off_c, 1, 43, 0
1, 162779, Note_off_c, 1, 71, 0
1, 162780, Note_on_c, 1, 69, 127
1, 162780, Note_on_c, 1, 66, 127
1, 162780, Note_on_c, 1, 60, 127
1, 162780, Note_on_c, 1, 55, 127
1, 162809, Note_off_c, 1, 69, 0
1, 162810, Note_on_c, 1, 72, 127
1, 162839, Note_off_c, 1, 66, 0
1, 162839, Note_off_c, 1, 60, 0
1, 162839, Note_off_c, 1, 55, 0
1, 162839, Note_off_c, 1, 72, 0
1, 162840, Note_on_c, 1, 71, 127
1, 162840, Note_on_c, 1, 67, 127
1, 162840, Note_on_c, 1, 62, 127
1, 162840, Note_on_c, 1, 55, 127
1, 162899, Note_off_c, 1, 55, 0
1, 162900, Note_on_c, 1, 43, 127
1, 162959, Note_off_c, 1, 71, 0
1, 162959, Note_off_c, 1, 67, 0
1, 162959, Note_off_c, 1, 62, 0
1, 162959, Note_off_c, 1, 43, 0
1, 162960, Note_on_c, 1, 62, 127
1, 162960, Note_on_c, 1, 59, 127
1, 162960, Note_on_c, 1, 43, 127
1, 163019, Note_off_c, 1, 62, 0
1, 163019, Note_off_c, 1, 59, 0
1, 163020, Note_on_c, 1, 64, 127
1, 163020, Note_on_c, 1, 60, 127
1, 163020, Note_on_c, 1, 55, 127
1, 163079, Note_off_c, 1, 64, 0
1, 163079, Note_off_c, 1, 60, 0
1, 163079, Note_off_c, 1, 55, 0
1, 163140, Note_on_c, 1, 66, 127
1, 163140, Note_on_c, 1, 57, 127
1, 163199, Note_off_c, 1, 66, 0
1, 163199, Note_off_c, 1, 57, 0
1, 163260, Note_on_c, 1, 67, 127
1, 163289, Note_off_c, 1, 67, 0
1, 163620, Note_on_c, 1, 65, 127
1, 163679, Note_off_c, 1, 65, 0
1, 163740, Note_off_c, 1, 43, 0
1, 163740, Note_on_c, 1, 45, 127
1, 163799, Note_off_c, 1, 45, 0
1, 163800, Note_on_c, 1, 47, 127
1, 163859, Note_off_c, 1, 47, 0
1, 163920, Note_on_c, 1, 64, 127
1, 163920, Note_on_c, 1, 60, 127
1, 163920, Note_on_c, 1, 55, 127
1, 163920, Note_on_c, 1, 48, 127
1, 163979, Note_off_c, 1, 64, 0
1, 163979, Note_off_c, 1, 60, 0
1, 163979, Note_off_c, 1, 55, 0
1, 163979, Note_off_c, 1, 48, 0
1, 163980, Note_on_c, 1, 69, 127
1, 164039, Note_off_c, 1, 69, 0
1, 164040, Note_on_c, 1, 69, 127
1, 164040, Note_on_c, 1, 64, 127
1, 164040, Note_on_c, 1, 60, 127
1, 164040, Note_on_c, 1, 45, 127
1, 164099, Note_off_c, 1, 69, 0
1, 164099, Note_off_c, 1, 64, 0
1, 164099, Note_off_c, 1, 60, 0
1, 164099, Note_off_c, 1, 45, 0
1, 164100, Note_on_c, 1, 72, 127
1, 164159, Note_off_c, 1, 72, 0
1, 164160, Note_on_c, 1, 72, 127
1, 164160, Note_on_c, 1, 66, 127
1, 164160, Note_on_c, 1, 57, 127
1, 164160, Note_on_c, 1, 50, 127
1, 164219, Note_off_c, 1, 66, 0
1, 164219, Note_off_c, 1, 57, 0
1, 164219, Note_off_c, 1, 50, 0
1, 164249, Note_off_c, 1, 72, 0
1, 164250, Note_on_c, 1, 74, 127
1, 164264, Note_off_c, 1, 74, 0
1, 164265, Note_on_c, 1, 76, 127
1, 164279, Note_off_c, 1, 76, 0
1, 164280, Note_on_c, 1, 74, 127
1, 164280, Note_on_c, 1, 66, 127
1, 164280, Note_on_c, 1, 59, 127
1, 164280, Note_on_c, 1, 47, 127
1, 164309, Note_off_c, 1, 74, 0
1, 164310, Note_on_c, 1, 72, 127
1, 164339, Note_off_c, 1, 66, 0
1, 164339, Note_off_c, 1, 59, 0
1, 164339, Note_off_c, 1, 47, 0
1, 164339, Note_off_c, 1, 72, 0
1, 164340, Note_on_c, 1, 71, 127
1, 164369, Note_off_c, 1, 71, 0
1, 164370, Note_on_c, 1, 69, 127
1, 164399, Note_off_c, 1, 69, 0
1, 164400, Note_on_c, 1, 67, 127
1, 164400, Note_on_c, 1, 64, 127
1, 164400, Note_on_c, 1, 59, 127
1, 164400, Note_on_c, 1, 52, 127
1, 164429, Note_off_c, 1, 67, 0
1, 164430, Note_on_c, 1, 66, 127
1, 164459, Note_off_c, 1, 64, 0
1, 164459, Note_off_c, 1, 59, 0
1, 164459, Note_off_c, 1, 52, 0
1, 164459, Note_off_c, 1, 66, 0
1, 164460, Note_on_c, 1, 67, 127
1, 164460, Note_on_c, 1, 64, 127
1, 164460, Note_on_c, 1, 48, 127
1, 164490, Note_on_c, 1, 72, 127
1, 164519, Note_off_c, 1, 67, 0
1, 164519, Note_off_c, 1, 64, 0
1, 164519, Note_off_c, 1, 48, 0
1, 164519, Note_off_c, 1, 72, 0
1, 164520, Note_on_c, 1, 69, 127
1, 164520, Note_on_c, 1, 67, 127
1, 164520, Note_on_c, 1, 62, 127
1, 164520, Note_on_c, 1, 50, 127
1, 164579, Note_off_c, 1, 67, 0
1, 164579, Note_off_c, 1, 62, 0
1, 164579, Note_off_c, 1, 50, 0
1, 164580, Note_on_c, 1, 66, 127
1, 164580, Note_on_c, 1, 60, 127
1, 164580, Note_on_c, 1, 38, 127
1, 164609, Note_off_c, 1, 69, 0
1, 164639, Note_off_c, 1, 66, 0
1, 164639, Note_off_c, 1, 60, 0
1, 164639, Note_off_c, 1, 38, 0
1, 164640, Note_on_c, 1, 67, 127
1, 164640, Note_on_c, 1, 62, 127
1, 164640, Note_on_c, 1, 59, 127
1, 164640, Note_on_c, 1, 43, 127
1, 164879, Note_off_c, 1, 67, 0
1, 164879, Note_off_c, 1, 62, 0
1, 164879, Note_off_c, 1, 59, 0
1, 164880, Note_off_c, 1, 43, 0
1, 165120, Note_on_c, 1, 49, 127
1, 165120, Note_on_c, 1, 69, 127
1, 165120, Note_on_c, 1, 64, 127
1, 165120, Note_on_c, 1, 61, 127
1, 165240, Note_on_c, 1, 73, 127
1, 165299, Note_off_c, 1, 73, 0
1, 165300, Note_on_c, 1, 74, 127
1, 165359, Note_off_c, 1, 74, 0
1, 165360, Note_on_c, 1, 76, 127
1, 165419, Note_off_c, 1, 76, 0
1, 165480, Note_on_c, 1, 81, 127
1, 165539, Note_off_c, 1, 81, 0
1, 165840, Note_off_c, 1, 69, 0
1, 165840, Note_on_c, 1, 79, 127
1, 165840, Note_on_c, 1, 67, 127
1, 165899, Note_off_c, 1, 79, 0
1, 166020, Note_on_c, 1, 78, 127
1, 166049, Note_off_c, 1, 78, 0
1, 166080, Note_off_c, 1, 49, 0
1, 166080, Note_off_c, 1, 64, 0
1, 166080, Note_off_c, 1, 61, 0
1, 166080, Note_off_c, 1, 67, 0
1, 166080, Note_on_c, 1, 50, 127
1, 166080, Note_on_c, 1, 62, 127
1, 166080, Note_on_c, 1, 66, 127
1, 166200, Note_off_c, 1, 50, 0
1, 166200, Note_off_c, 1, 62, 0
1, 166200, Note_on_c, 1, 54, 127
1, 166320, Note_off_c, 1, 66, 0
1, 166320, Note_off_c, 1, 54, 0
1, 166320, Note_on_c, 1, 71, 127
1, 166320, Note_on_c, 1, 55, 127
1, 166440, Note_off_c, 1, 71, 0
1, 166440, Note_off_c, 1, 55, 0
1, 166440, Note_on_c, 1, 52, 127
1, 166560, Note_off_c, 1, 52, 0
1, 166620, Note_on_c, 1, 69, 127
1, 166679, Note_off_c, 1, 69, 0
1, 166680, Note_on_c, 1, 57, 127
1, 166680, Note_on_c, 1, 62, 127
1, 166680, Note_on_c, 1, 66, 127
1, 166680, Note_on_c, 1, 69, 127
1, 166740, Note_off_c, 1, 62, 0
1, 166740, Note_off_c, 1, 66, 0
1, 166740, Note_on_c, 1, 64, 127
1, 166740, Note_on_c, 1, 61, 127
1, 166800, Note_off_c, 1, 57, 0
1, 166800, Note_off_c, 1, 69, 0
1, 166800, Note_off_c, 1, 64, 0
1, 166800, Note_off_c, 1, 61, 0
1, 166800, Note_on_c, 1, 50, 127
1, 167040, Note_off_c, 1, 50, 0
1, 167280, Note_on_c, 1, 79, 127
1, 167280, Note_on_c, 1, 74, 127
1, 167280, Note_on_c, 1, 71, 127
1, 167280, Note_on_c, 1, 67, 127
1, 167280, Note_on_c, 1, 59, 127
1, 167280, Note_on_c, 1, 55, 127
1, 167280, Note_on_c, 1, 43, 127
1, 167339, Note_off_c, 1, 59, 0
1, 167339, Note_off_c, 1, 55, 0
1, 167339, Note_off_c, 1, 43, 0
1, 167340, Note_off_c, 1, 79, 0
1, 167340, Note_off_c, 1, 71, 0
1, 167340, Note_off_c, 1, 67, 0
1, 167340, Note_on_c, 1, 60, 127
1, 167340, Note_on_c, 1, 57, 127
1, 167340, Note_on_c, 1, 45, 127
1, 167399, Note_off_c, 1, 74, 0
1, 167399, Note_off_c, 1, 60, 0
1, 167399, Note_off_c, 1, 57, 0
1, 167399, Note_off_c, 1, 45, 0
1, 167400, Note_on_c, 1, 79, 127
1, 167400, Note_on_c, 1, 74, 127
1, 167400, Note_on_c, 1, 67, 127
1, 167400, Note_on_c, 1, 62, 127
1, 167400, Note_on_c, 1, 59, 127
1, 167400, Note_on_c, 1, 47, 127
1, 167459, Note_off_c, 1, 62, 0
1, 167459, Note_off_c, 1, 59, 0
1, 167459, Note_off_c, 1, 47, 0
1, 167460, Note_off_c, 1, 67, 0
1, 167460, Note_on_c, 1, 71, 127
1, 167460, Note_on_c, 1, 55, 127
1, 167460, Note_on_c, 1, 43, 127
1, 167490, Note_off_c, 1, 74, 0
1, 167490, Note_off_c, 1, 71, 0
1, 167519, Note_off_c, 1, 55, 0
1, 167519, Note_off_c, 1, 43, 0
1, 167520, Note_on_c, 1, 76, 127
1, 167520, Note_on_c, 1, 72, 127
1, 167520, Note_on_c, 1, 69, 127
1, 167520, Note_on_c, 1, 64, 127
1, 167520, Note_on_c, 1, 60, 127
1, 167520, Note_on_c, 1, 57, 127
1, 167520, Note_on_c, 1, 45, 127
1, 167550, Note_off_c, 1, 76, 0
1, 167550, Note_off_c, 1, 72, 0
1, 167550, Note_off_c, 1, 69, 0
1, 167579, Note_off_c, 1, 60, 0
1, 167579, Note_off_c, 1, 57, 0
1, 167579, Note_off_c, 1, 45, 0
1, 167639, Note_off_c, 1, 79, 0
1, 167639, Note_off_c, 1, 64, 0
1, 167640, Note_on_c, 1, 78, 127
1, 167640, Note_on_c, 1, 74, 127
1, 167640, Note_on_c, 1, 69, 127
1, 167640, Note_on_c, 1, 57, 127
1, 167640, Note_on_c, 1, 60, 127
1, 167640, Note_on_c, 1, 48, 127
1, 167670, Note_off_c, 1, 74, 0
1, 167699, Note_off_c, 1, 78, 0
1, 167699, Note_off_c, 1, 57, 0
1, 167699, Note_off_c, 1, 60, 0
1, 167699, Note_off_c, 1, 48, 0
1, 167700, Note_on_c, 1, 76, 127
1, 167700, Note_on_c, 1, 72, 127
1, 167700, Note_on_c, 1, 66, 127
1, 167700, Note_on_c, 1, 59, 127
1, 167700, Note_on_c, 1, 45, 127
1, 167729, Note_off_c, 1, 59, 0
1, 167730, Note_off_c, 1, 72, 0
1, 167730, Note_off_c, 1, 66, 0
1, 167759, Note_off_c, 1, 76, 0
1, 167759, Note_off_c, 1, 45, 0
1, 167760, Note_on_c, 1, 71, 127
1, 167760, Note_on_c, 1, 62, 127
1, 167760, Note_on_c, 1, 54, 127
1, 167760, Note_on_c, 1, 47, 127
1, 167790, Note_off_c, 1, 71, 0
1, 167819, Note_off_c, 1, 62, 0
1, 167819, Note_off_c, 1, 47, 0
1, 167820, Note_on_c, 1, 64, 127
1, 167850, Note_off_c, 1, 64, 0
1, 167879, Note_off_c, 1, 69, 0
1, 167879, Note_off_c, 1, 54, 0
1, 167880, Note_on_c, 1, 71, 127
1, 167880, Note_on_c, 1, 67, 127
1, 167880, Note_on_c, 1, 62, 127
1, 167880, Note_on_c, 1, 74, 127
1, 167880, Note_on_c, 1, 59, 127
1, 167880, Note_on_c, 1, 50, 127
1, 167910, Note_off_c, 1, 71, 0
1, 167910, Note_off_c, 1, 62, 0
1, 167939, Note_off_c, 1, 67, 0
1, 167939, Note_off_c, 1, 50, 0
1, 167940, Note_on_c, 1, 66, 127
1, 167940, Note_on_c, 1, 57, 127
1, 167940, Note_on_c, 1, 47, 127
1, 167999, Note_off_c, 1, 66, 0
1, 167999, Note_off_c, 1, 57, 0
1, 167999, Note_off_c, 1, 47, 0
1, 168000, Note_on_c, 1, 76, 127
1, 168000, Note_on_c, 1, 64, 127
1, 168000, Note_on_c, 1, 55, 127
1, 168000, Note_on_c, 1, 48, 127
1, 168030, Note_off_c, 1, 76, 0
1, 168059, Note_off_c, 1, 48, 0
1, 168119, Note_off_c, 1, 74, 0
1, 168119, Note_off_c, 1, 59, 0
1, 168119, Note_off_c, 1, 64, 0
1, 168119, Note_off_c, 1, 55, 0
1, 168120, Note_on_c, 1, 72, 127
1, 168120, Note_on_c, 1, 67, 127
1, 168120, Note_on_c, 1, 64, 127
1, 168120, Note_on_c, 1, 60, 127
1, 168120, Note_on_c, 1, 57, 127
1, 168120, Note_on_c, 1, 52, 127
1, 168150, Note_off_c, 1, 67, 0
1, 168179, Note_off_c, 1, 72, 0
1, 168179, Note_off_c, 1, 57, 0
1, 168179, Note_off_c, 1, 52, 0
1, 168180, Note_on_c, 1, 76, 127
1, 168180, Note_on_c, 1, 71, 127
1, 168180, Note_on_c, 1, 55, 127
1, 168180, Note_on_c, 1, 48, 127
1, 168210, Note_off_c, 1, 76, 0
1, 168239, Note_off_c, 1, 71, 0
1, 168239, Note_off_c, 1, 55, 0
1, 168239, Note_off_c, 1, 48, 0
1, 168240, Note_on_c, 1, 78, 127
1, 168240, Note_on_c, 1, 74, 127
1, 168240, Note_on_c, 1, 69, 127
1, 168240, Note_on_c, 1, 54, 127
1, 168240, Note_on_c, 1, 50, 127
1, 168270, Note_off_c, 1, 78, 0
1, 168270, Note_off_c, 1, 74, 0
1, 168299, Note_off_c, 1, 50, 0
1, 168359, Note_off_c, 1, 64, 0
1, 168359, Note_off_c, 1, 60, 0
1, 168359, Note_off_c, 1, 69, 0
1, 168359, Note_off_c, 1, 54, 0
1, 168360, Note_on_c, 1, 74, 127
1, 168360, Note_on_c, 1, 62, 127
1, 168360, Note_on_c, 1, 69, 127
1, 168360, Note_on_c, 1, 78, 127
1, 168360, Note_on_c, 1, 59, 127
1, 168360, Note_on_c, 1, 54, 127
1, 168390, Note_off_c, 1, 74, 0
1, 168390, Note_off_c, 1, 69, 0
1, 168419, Note_off_c, 1, 59, 0
1, 168419, Note_off_c, 1, 54, 0
1, 168420, Note_on_c, 1, 57, 127
1, 168420, Note_on_c, 1, 60, 127
1, 168420, Note_on_c, 1, 50, 127
1, 168479, Note_off_c, 1, 57, 0
1, 168479, Note_off_c, 1, 60, 0
1, 168479, Note_off_c, 1, 50, 0
1, 168480, Note_on_c, 1, 79, 127
1, 168480, Note_on_c, 1, 67, 127
1, 168480, Note_on_c, 1, 64, 127
1, 168480, Note_on_c, 1, 55, 127
1, 168480, Note_on_c, 1, 52, 127
1, 168510, Note_off_c, 1, 79, 0
1, 168510, Note_off_c, 1, 67, 0
1, 168510, Note_off_c, 1, 64, 0
1, 168539, Note_off_c, 1, 52, 0
1, 168540, Note_on_c, 1, 66, 127
1, 168570, Note_off_c, 1, 66, 0
1, 168599, Note_off_c, 1, 62, 0
1, 168599, Note_off_c, 1, 78, 0
1, 168599, Note_off_c, 1, 55, 0
1, 168600, Note_on_c, 1, 76, 127
1, 168600, Note_on_c, 1, 71, 127
1, 168600, Note_on_c, 1, 64, 127
1, 168600, Note_on_c, 1, 67, 127
1, 168600, Note_on_c, 1, 61, 127
1, 168600, Note_on_c, 1, 55, 127
1, 168630, Note_off_c, 1, 71, 0
1, 168659, Note_off_c, 1, 76, 0
1, 168659, Note_off_c, 1, 61, 0
1, 168659, Note_off_c, 1, 55, 0
1, 168660, Note_on_c, 1, 79, 127
1, 168660, Note_on_c, 1, 74, 127
1, 168660, Note_on_c, 1, 59, 127
1, 168660, Note_on_c, 1, 52, 127
1, 168690, Note_off_c, 1, 79, 0
1, 168719, Note_off_c, 1, 74, 0
1, 168719, Note_off_c, 1, 59, 0
1, 168719, Note_off_c, 1, 52, 0
1, 168720, Note_on_c, 1, 81, 127
1, 168720, Note_on_c, 1, 69, 127
1, 168720, Note_on_c, 1, 57, 127
1, 168720, Note_on_c, 1, 54, 127
1, 168750, Note_off_c, 1, 81, 0
1, 168750, Note_off_c, 1, 69, 0
1, 168779, Note_off_c, 1, 57, 0
1, 168779, Note_off_c, 1, 54, 0
1, 168839, Note_off_c, 1, 64, 0
1, 168839, Note_off_c, 1, 67, 0
1, 168840, Note_on_c, 1, 78, 127
1, 168840, Note_on_c, 1, 66, 127
1, 168840, Note_on_c, 1, 57, 127
1, 168840, Note_on_c, 1, 62, 127
1, 168870, Note_off_c, 1, 78, 0
1, 168870, Note_on_c, 1, 79, 127
1, 168899, Note_off_c, 1, 66, 0
1, 168899, Note_off_c, 1, 57, 0
1, 168899, Note_off_c, 1, 62, 0
1, 168899, Note_off_c, 1, 79, 0
1, 168900, Note_on_c, 1, 81, 127
1, 168900, Note_on_c, 1, 78, 127
1, 168900, Note_on_c, 1, 64, 127
1, 168900, Note_on_c, 1, 69, 127
1, 168900, Note_on_c, 1, 61, 127
1, 168900, Note_on_c, 1, 54, 127
1, 168930, Note_off_c, 1, 78, 0
1, 168930, Note_off_c, 1, 69, 0
1, 168959, Note_off_c, 1, 64, 0
1, 168959, Note_off_c, 1, 61, 0
1, 168959, Note_off_c, 1, 54, 0
1, 168960, Note_on_c, 1, 83, 127
1, 168960, Note_on_c, 1, 71, 127
1, 168960, Note_on_c, 1, 62, 127
1, 168960, Note_on_c, 1, 67, 127
1, 168960, Note_on_c, 1, 59, 127
1, 168960, Note_on_c, 1, 55, 127
1, 168990, Note_off_c, 1, 83, 0
1, 168990, Note_off_c, 1, 71, 0
1, 168990, Note_off_c, 1, 67, 0
1, 169019, Note_off_c, 1, 81, 0
1, 169019, Note_off_c, 1, 55, 0
1, 169020, Note_on_c, 1, 74, 127
1, 169020, Note_on_c, 1, 79, 127
1, 169020, Note_on_c, 1, 50, 127
1, 169050, Note_off_c, 1, 74, 0
1, 169079, Note_off_c, 1, 62, 0
1, 169079, Note_off_c, 1, 59, 0
1, 169079, Note_off_c, 1, 50, 0
1, 169080, Note_on_c, 1, 76, 127
1, 169110, Note_off_c, 1, 76, 0
1, 169139, Note_off_c, 1, 79, 0
1, 169260, Note_on_c, 1, 76, 127
1, 169260, Note_on_c, 1, 73, 127
1, 169260, Note_on_c, 1, 69, 127
1, 169260, Note_on_c, 1, 74, 127
1, 169260, Note_on_c, 1, 57, 127
1, 169260, Note_on_c, 1, 54, 127
1, 169289, Note_off_c, 1, 74, 0
1, 169289, Note_off_c, 1, 54, 0
1, 169290, Note_off_c, 1, 76, 0
1, 169290, Note_on_c, 1, 52, 127
1, 169319, Note_off_c, 1, 73, 0
1, 169319, Note_off_c, 1, 57, 0
1, 169319, Note_off_c, 1, 52, 0
1, 169320, Note_on_c, 1, 66, 127
1, 169379, Note_off_c, 1, 66, 0
1, 169380, Note_off_c, 1, 69, 0
1, 169380, Note_on_c, 1, 78, 127
1, 169380, Note_on_c, 1, 71, 127
1, 169380, Note_on_c, 1, 67, 127
1, 169380, Note_on_c, 1, 64, 127
1, 169380, Note_on_c, 1, 59, 127
1, 169409, Note_off_c, 1, 67, 0
1, 169409, Note_off_c, 1, 64, 0
1, 169410, Note_off_c, 1, 78, 0
1, 169410, Note_off_c, 1, 71, 0
1, 169410, Note_on_c, 1, 62, 127
1, 169439, Note_off_c, 1, 59, 0
1, 169439, Note_off_c, 1, 62, 0
1, 169440, Note_on_c, 1, 55, 127
1, 169499, Note_off_c, 1, 55, 0
1, 169500, Note_on_c, 1, 72, 127
1, 169530, Note_off_c, 1, 72, 0
1, 169680, Note_on_c, 1, 81, 127
1, 169710, Note_off_c, 1, 81, 0
1, 169770, Note_on_c, 1, 61, 127
1, 169799, Note_off_c, 1, 61, 0
1, 169860, Note_on_c, 1, 79, 127
1, 169890, Note_off_c, 1, 79, 0
1, 169920, Note_on_c, 1, 79, 127
1, 169920, Note_on_c, 1, 69, 127
1, 169920, Note_on_c, 1, 64, 127
1, 169920, Note_on_c, 1, 61, 127
1, 169950, Note_off_c, 1, 69, 0
1, 169979, Note_off_c, 1, 61, 0
1, 169980, Note_on_c, 1, 73, 127
1, 169980, Note_on_c, 1, 57, 127
1, 170010, Note_off_c, 1, 73, 0
1, 170039, Note_off_c, 1, 79, 0
1, 170039, Note_off_c, 1, 64, 0
1, 170039, Note_off_c, 1, 57, 0
1, 170040, Note_on_c, 1, 74, 127
1, 170040, Note_on_c, 1, 69, 127
1, 170040, Note_on_c, 1, 66, 127
1, 170040, Note_on_c, 1, 78, 127
1, 170040, Note_on_c, 1, 62, 127
1, 170040, Note_on_c, 1, 57, 127
1, 170070, Note_off_c, 1, 74, 0
1, 170070, Note_off_c, 1, 69, 0
1, 170070, Note_off_c, 1, 66, 0
1, 170099, Note_off_c, 1, 78, 0
1, 170099, Note_off_c, 1, 62, 0
1, 170099, Note_off_c, 1, 57, 0
1, 170100, Note_on_c, 1, 78, 127
1, 170100, Note_on_c, 1, 74, 127
1, 170100, Note_on_c, 1, 69, 127
1, 170100, Note_on_c, 1, 57, 127
1, 170100, Note_on_c, 1, 62, 127
1, 170100, Note_on_c, 1, 61, 127
1, 170100, Note_on_c, 1, 60, 127
1, 170130, Note_off_c, 1, 74, 0
1, 170130, Note_off_c, 1, 69, 0
1, 170159, Note_off_c, 1, 78, 0
1, 170159, Note_off_c, 1, 57, 0
1, 170159, Note_off_c, 1, 62, 0
1, 170159, Note_off_c, 1, 61, 0
1, 170159, Note_off_c, 1, 60, 0
1, 170160, Note_on_c, 1, 78, 127
1, 170160, Note_on_c, 1, 74, 127
1, 170160, Note_on_c, 1, 67, 127
1, 170160, Note_on_c, 1, 62, 127
1, 170160, Note_on_c, 1, 59, 127
1, 170190, Note_off_c, 1, 74, 0
1, 170219, Note_off_c, 1, 59, 0
1, 170220, Note_on_c, 1, 57, 127
1, 170249, Note_off_c, 1, 57, 0
1, 170279, Note_off_c, 1, 78, 0
1, 170279, Note_off_c, 1, 67, 0
1, 170279, Note_off_c, 1, 62, 0
1, 170280, Note_on_c, 1, 76, 127
1, 170280, Note_on_c, 1, 69, 127
1, 170280, Note_on_c, 1, 67, 127
1, 170280, Note_on_c, 1, 61, 127
1, 170339, Note_off_c, 1, 76, 0
1, 170339, Note_off_c, 1, 69, 0
1, 170339, Note_off_c, 1, 67, 0
1, 170339, Note_off_c, 1, 61, 0
1, 170340, Note_on_c, 1, 76, 127
1, 170340, Note_on_c, 1, 69, 127
1, 170340, Note_on_c, 1, 67, 127
1, 170340, Note_on_c, 1, 64, 127
1, 170340, Note_on_c, 1, 59, 127
1, 170369, Note_off_c, 1, 59, 0
1, 170370, Note_off_c, 1, 64, 0
1, 170370, Note_on_c, 1, 61, 127
1, 170399, Note_off_c, 1, 76, 0
1, 170399, Note_off_c, 1, 69, 0
1, 170399, Note_off_c, 1, 67, 0
1, 170399, Note_off_c, 1, 61, 0
1, 170400, Note_on_c, 1, 76, 127
1, 170400, Note_on_c, 1, 69, 127
1, 170400, Note_on_c, 1, 66, 127
1, 170400, Note_on_c, 1, 57, 127
1, 170400, Note_on_c, 1, 62, 127
1, 170430, Note_off_c, 1, 57, 0
1, 170459, Note_off_c, 1, 69, 0
1, 170459, Note_off_c, 1, 62, 0
1, 170460, Note_on_c, 1, 61, 127
1, 170519, Note_off_c, 1, 76, 0
1, 170519, Note_off_c, 1, 61, 0
1, 170520, Note_on_c, 1, 74, 127
1, 170520, Note_on_c, 1, 71, 127
1, 170520, Note_on_c, 1, 54, 127
1, 170520, Note_on_c, 1, 59, 127
1, 170550, Note_off_c, 1, 71, 0
1, 170550, Note_off_c, 1, 54, 0
1, 170579, Note_off_c, 1, 66, 0
1, 170579, Note_off_c, 1, 59, 0
1, 170580, Note_on_c, 1, 67, 127
1, 170580, Note_on_c, 1, 64, 127
1, 170609, Note_off_c, 1, 67, 0
1, 170609, Note_off_c, 1, 64, 0
1, 170640, Note_on_c, 1, 55, 127
1, 170700, Note_on_c, 1, 52, 127
1, 170730, Note_off_c, 1, 52, 0
1, 170759, Note_off_c, 1, 74, 0
1, 170759, Note_off_c, 1, 55, 0
1, 170760, Note_on_c, 1, 73, 127
1, 170819, Note_off_c, 1, 73, 0
1, 170820, Note_on_c, 1, 73, 127
1, 170820, Note_on_c, 1, 69, 127
1, 170820, Note_on_c, 1, 67, 127
1, 170820, Note_on_c, 1, 64, 127
1, 170820, Note_on_c, 1, 57, 127
1, 170820, Note_on_c, 1, 55, 127
1, 170849, Note_off_c, 1, 55, 0
1, 170850, Note_off_c, 1, 69, 0
1, 170879, Note_off_c, 1, 73, 0
1, 170879, Note_off_c, 1, 67, 0
1, 170879, Note_off_c, 1, 64, 0
1, 170879, Note_off_c, 1, 57, 0
1, 170880, Note_on_c, 1, 74, 127
1, 170880, Note_on_c, 1, 62, 127
1, 170880, Note_on_c, 1, 66, 127
1, 170880, Note_on_c, 1, 71, 127
1, 170880, Note_on_c, 1, 59, 127
1, 170910, Note_off_c, 1, 71, 0
1, 170939, Note_off_c, 1, 62, 0
1, 170939, Note_off_c, 1, 59, 0
1, 170940, Note_on_c, 1, 55, 127
1, 170969, Note_off_c, 1, 74, 0
1, 170970, Note_off_c, 1, 66, 0
1, 170970, Note_on_c, 1, 76, 127
1, 170970, Note_on_c, 1, 67, 127
1, 170999, Note_off_c, 1, 55, 0
1, 170999, Note_off_c, 1, 76, 0
1, 170999, Note_off_c, 1, 67, 0
1, 171000, Note_on_c, 1, 73, 127
1, 171000, Note_on_c, 1, 64, 127
1, 171000, Note_on_c, 1, 57, 127
1, 171060, Note_on_c, 1, 69, 127
1, 171060, Note_on_c, 1, 45, 127
1, 171090, Note_off_c, 1, 69, 0
1, 171119, Note_off_c, 1, 73, 0
1, 171119, Note_off_c, 1, 64, 0
1, 171119, Note_off_c, 1, 57, 0
1, 171119, Note_off_c, 1, 45, 0
1, 171120, Note_on_c, 1, 74, 127
1, 171120, Note_on_c, 1, 69, 127
1, 171120, Note_on_c, 1, 66, 127
1, 171120, Note_on_c, 1, 57, 127
1, 171120, Note_on_c, 1, 50, 127
1, 171150, Note_off_c, 1, 69, 0
1, 171179, Note_off_c, 1, 66, 0
1, 171179, Note_off_c, 1, 50, 0
1, 171180, Note_on_c, 1, 67, 127
1, 171180, Note_on_c, 1, 52, 127
1, 171239, Note_off_c, 1, 74, 0
1, 171239, Note_off_c, 1, 57, 0
1, 171239, Note_off_c, 1, 67, 0
1, 171239, Note_off_c, 1, 52, 0
1, 171240, Note_on_c, 1, 74, 127
1, 171240, Note_on_c, 1, 66, 127
1, 171240, Note_on_c, 1, 57, 127
1, 171240, Note_on_c, 1, 69, 127
1, 171240, Note_on_c, 1, 62, 127
1, 171240, Note_on_c, 1, 54, 127
1, 171299, Note_off_c, 1, 69, 0
1, 171299, Note_off_c, 1, 54, 0
1, 171300, Note_off_c, 1, 74, 0
1, 171300, Note_on_c, 1, 81, 127
1, 171300, Note_on_c, 1, 78, 127
1, 171300, Note_on_c, 1, 50, 127
1, 171330, Note_off_c, 1, 57, 0
1, 171330, Note_off_c, 1, 81, 0
1, 171330, Note_off_c, 1, 78, 0
1, 171359, Note_off_c, 1, 66, 0
1, 171359, Note_off_c, 1, 50, 0
1, 171360, Note_on_c, 1, 79, 127
1, 171360, Note_on_c, 1, 76, 127
1, 171360, Note_on_c, 1, 59, 127
1, 171360, Note_on_c, 1, 64, 127
1, 171360, Note_on_c, 1, 67, 127
1, 171360, Note_on_c, 1, 52, 127
1, 171390, Note_off_c, 1, 79, 0
1, 171390, Note_off_c, 1, 76, 0
1, 171390, Note_off_c, 1, 64, 0
1, 171419, Note_off_c, 1, 67, 0
1, 171419, Note_off_c, 1, 52, 0
1, 171479, Note_off_c, 1, 62, 0
1, 171479, Note_off_c, 1, 59, 0
1, 171480, Note_on_c, 1, 76, 127
1, 171480, Note_on_c, 1, 67, 127
1, 171480, Note_on_c, 1, 64, 127
1, 171480, Note_on_c, 1, 60, 127
1, 171480, Note_on_c, 1, 55, 127
1, 171510, Note_off_c, 1, 76, 0
1, 171510, Note_off_c, 1, 67, 0
1, 171539, Note_off_c, 1, 60, 0
1, 171539, Note_off_c, 1, 55, 0
1, 171540, Note_on_c, 1, 72, 127
1, 171540, Note_on_c, 1, 66, 127
1, 171540, Note_on_c, 1, 59, 127
1, 171540, Note_on_c, 1, 52, 127
1, 171569, Note_off_c, 1, 66, 0
1, 171570, Note_off_c, 1, 72, 0
1, 171599, Note_off_c, 1, 59, 0
1, 171599, Note_off_c, 1, 52, 0
1, 171600, Note_on_c, 1, 81, 127
1, 171600, Note_on_c, 1, 69, 127
1, 171600, Note_on_c, 1, 57, 127
1, 171600, Note_on_c, 1, 54, 127
1, 171630, Note_off_c, 1, 81, 0
1, 171659, Note_off_c, 1, 69, 0
1, 171659, Note_off_c, 1, 54, 0
1, 171660, Note_on_c, 1, 71, 127
1, 171690, Note_off_c, 1, 71, 0
1, 171719, Note_off_c, 1, 64, 0
1, 171719, Note_off_c, 1, 57, 0
1, 171720, Note_on_c, 1, 78, 127
1, 171720, Note_on_c, 1, 72, 127
1, 171720, Note_on_c, 1, 69, 127
1, 171720, Note_on_c, 1, 66, 127
1, 171720, Note_on_c, 1, 62, 127
1, 171720, Note_on_c, 1, 57, 127
1, 171750, Note_off_c, 1, 78, 0
1, 171750, Note_off_c, 1, 72, 0
1, 171750, Note_off_c, 1, 69, 0
1, 171779, Note_off_c, 1, 66, 0
1, 171779, Note_off_c, 1, 62, 0
1, 171780, Note_on_c, 1, 81, 127
1, 171780, Note_on_c, 1, 64, 127
1, 171780, Note_on_c, 1, 60, 127
1, 171780, Note_on_c, 1, 54, 127
1, 171810, Note_off_c, 1, 81, 0
1, 171839, Note_off_c, 1, 64, 0
1, 171839, Note_off_c, 1, 60, 0
1, 171839, Note_off_c, 1, 54, 0
1, 171840, Note_on_c, 1, 83, 127
1, 171840, Note_on_c, 1, 67, 127
1, 171840, Note_on_c, 1, 59, 127
1, 171840, Note_on_c, 1, 55, 127
1, 171870, Note_off_c, 1, 83, 0
1, 171870, Note_off_c, 1, 67, 0
1, 171899, Note_off_c, 1, 59, 0
1, 171899, Note_off_c, 1, 55, 0
1, 171959, Note_off_c, 1, 57, 0
1, 171960, Note_on_c, 1, 79, 127
1, 171960, Note_on_c, 1, 71, 127
1, 171960, Note_on_c, 1, 62, 127
1, 171960, Note_on_c, 1, 67, 127
1, 171960, Note_on_c, 1, 55, 127
1, 171960, Note_on_c, 1, 59, 127
1, 171990, Note_off_c, 1, 79, 0
1, 171990, Note_off_c, 1, 71, 0
1, 172019, Note_off_c, 1, 55, 0
1, 172019, Note_off_c, 1, 59, 0
1, 172020, Note_on_c, 1, 74, 127
1, 172020, Note_on_c, 1, 54, 127
1, 172050, Note_off_c, 1, 74, 0
1, 172079, Note_off_c, 1, 54, 0
1, 172080, Note_on_c, 1, 76, 127
1, 172080, Note_on_c, 1, 52, 127
1, 172110, Note_off_c, 1, 76, 0
1, 172139, Note_off_c, 1, 52, 0
1, 172140, Note_off_c, 1, 67, 0
1, 172140, Note_on_c, 1, 66, 127
1, 172199, Note_off_c, 1, 62, 0
1, 172199, Note_off_c, 1, 66, 0
1, 172200, Note_on_c, 1, 76, 127
1, 172200, Note_on_c, 1, 71, 127
1, 172200, Note_on_c, 1, 64, 127
1, 172200, Note_on_c, 1, 60, 127
1, 172200, Note_on_c, 1, 55, 127
1, 172259, Note_off_c, 1, 60, 0
1, 172259, Note_off_c, 1, 55, 0
1, 172260, Note_off_c, 1, 71, 0
1, 172260, Note_on_c, 1, 79, 127
1, 172260, Note_on_c, 1, 62, 127
1, 172260, Note_on_c, 1, 67, 127
1, 172260, Note_on_c, 1, 59, 127
1, 172260, Note_on_c, 1, 52, 127
1, 172290, Note_off_c, 1, 64, 0
1, 172290, Note_off_c, 1, 79, 0
1, 172290, Note_off_c, 1, 62, 0
1, 172319, Note_off_c, 1, 67, 0
1, 172319, Note_off_c, 1, 59, 0
1, 172319, Note_off_c, 1, 52, 0
1, 172320, Note_on_c, 1, 78, 127
1, 172320, Note_on_c, 1, 69, 127
1, 172320, Note_on_c, 1, 57, 127
1, 172320, Note_on_c, 1, 54, 127
1, 172350, Note_off_c, 1, 78, 0
1, 172379, Note_off_c, 1, 54, 0
1, 172380, Note_on_c, 1, 72, 127
1, 172380, Note_on_c, 1, 68, 127
1, 172380, Note_on_c, 1, 56, 127
1, 172410, Note_off_c, 1, 72, 0
1, 172410, Note_off_c, 1, 68, 0
1, 172439, Note_off_c, 1, 76, 0
1, 172439, Note_off_c, 1, 69, 0
1, 172439, Note_off_c, 1, 57, 0
1, 172439, Note_off_c, 1, 56, 0
1, 172440, Note_on_c, 1, 78, 127
1, 172440, Note_on_c, 1, 71, 127
1, 172440, Note_on_c, 1, 66, 127
1, 172440, Note_on_c, 1, 74, 127
1, 172440, Note_on_c, 1, 62, 127
1, 172440, Note_on_c, 1, 57, 127
1, 172470, Note_off_c, 1, 78, 0
1, 172470, Note_off_c, 1, 71, 0
1, 172470, Note_off_c, 1, 66, 0
1, 172499, Note_off_c, 1, 74, 0
1, 172499, Note_off_c, 1, 57, 0
1, 172500, Note_on_c, 1, 81, 127
1, 172500, Note_on_c, 1, 59, 127
1, 172500, Note_on_c, 1, 72, 127
1, 172500, Note_on_c, 1, 54, 127
1, 172530, Note_off_c, 1, 81, 0
1, 172530, Note_off_c, 1, 59, 0
1, 172559, Note_off_c, 1, 72, 0
1, 172559, Note_off_c, 1, 54, 0
1, 172560, Note_on_c, 1, 83, 127
1, 172560, Note_on_c, 1, 76, 127
1, 172560, Note_on_c, 1, 64, 127
1, 172560, Note_on_c, 1, 56, 127
1, 172590, Note_off_c, 1, 83, 0
1, 172590, Note_off_c, 1, 76, 0
1, 172619, Note_off_c, 1, 62, 0
1, 172619, Note_off_c, 1, 56, 0
1, 172620, Note_on_c, 1, 69, 127
1, 172620, Note_on_c, 1, 60, 127
1, 172650, Note_off_c, 1, 69, 0
1, 172679, Note_off_c, 1, 64, 0
1, 172679, Note_off_c, 1, 60, 0
1, 172680, Note_on_c, 1, 80, 127
1, 172680, Note_on_c, 1, 71, 127
1, 172680, Note_on_c, 1, 62, 127
1, 172680, Note_on_c, 1, 59, 127
1, 172710, Note_off_c, 1, 80, 0
1, 172739, Note_off_c, 1, 62, 0
1, 172739, Note_off_c, 1, 59, 0
1, 172740, Note_on_c, 1, 83, 127
1, 172740, Note_on_c, 1, 74, 127
1, 172740, Note_on_c, 1, 64, 127
1, 172740, Note_on_c, 1, 76, 127
1, 172740, Note_on_c, 1, 56, 127
1, 172770, Note_off_c, 1, 83, 0
1, 172770, Note_off_c, 1, 74, 0
1, 172770, Note_off_c, 1, 64, 0
1, 172799, Note_off_c, 1, 76, 0
1, 172799, Note_off_c, 1, 56, 0
1, 172800, Note_on_c, 1, 72, 127
1, 172800, Note_on_c, 1, 60, 127
1, 172800, Note_on_c, 1, 57, 127
1, 172830, Note_off_c, 1, 60, 0
1, 172859, Note_off_c, 1, 57, 0
1, 172860, Note_on_c, 1, 66, 127
1, 172860, Note_on_c, 1, 52, 127
1, 172889, Note_off_c, 1, 66, 0
1, 172890, Note_on_c, 1, 67, 127
1, 172919, Note_off_c, 1, 71, 0
1, 172919, Note_off_c, 1, 72, 0
1, 172919, Note_off_c, 1, 52, 0
1, 172919, Note_off_c, 1, 67, 0
1, 172920, Note_on_c, 1, 81, 127
1, 172920, Note_on_c, 1, 72, 127
1, 172920, Note_on_c, 1, 64, 127
1, 172920, Note_on_c, 1, 69, 127
1, 172920, Note_on_c, 1, 66, 127
1, 172920, Note_on_c, 1, 57, 127
1, 172950, Note_off_c, 1, 81, 0
1, 172950, Note_off_c, 1, 64, 0
1, 172979, Note_off_c, 1, 72, 0
1, 172979, Note_off_c, 1, 69, 0
1, 172979, Note_off_c, 1, 66, 0
1, 172980, Note_on_c, 1, 76, 127
1, 172980, Note_on_c, 1, 67, 127
1, 173010, Note_off_c, 1, 76, 0
1, 173039, Note_off_c, 1, 67, 0
1, 173040, Note_on_c, 1, 78, 127
1, 173040, Note_on_c, 1, 71, 127
1, 173040, Note_on_c, 1, 63, 127
1, 173070, Note_off_c, 1, 78, 0
1, 173099, Note_off_c, 1, 57, 0
1, 173099, Note_off_c, 1, 63, 0
1, 173100, Note_on_c, 1, 59, 127
1, 173100, Note_on_c, 1, 55, 127
1, 173129, Note_off_c, 1, 55, 0
1, 173130, Note_on_c, 1, 54, 127
1, 173159, Note_off_c, 1, 59, 0
1, 173159, Note_off_c, 1, 54, 0
1, 173219, Note_off_c, 1, 71, 0
1, 173220, Note_on_c, 1, 79, 127
1, 173220, Note_on_c, 1, 60, 127
1, 173250, Note_off_c, 1, 79, 0
1, 173279, Note_off_c, 1, 60, 0
1, 173370, Note_on_c, 1, 61, 127
1, 173399, Note_off_c, 1, 61, 0
1, 173400, Note_on_c, 1, 75, 127
1, 173430, Note_off_c, 1, 75, 0
1, 173700, Note_on_c, 1, 81, 127
1, 173700, Note_on_c, 1, 72, 127
1, 173700, Note_on_c, 1, 69, 127
1, 173700, Note_on_c, 1, 64, 127
1, 173700, Note_on_c, 1, 66, 127
1, 173700, Note_on_c, 1, 63, 127
1, 173700, Note_on_c, 1, 57, 127
1, 173729, Note_off_c, 1, 66, 0
1, 173729, Note_off_c, 1, 63, 0
1, 173730, Note_off_c, 1, 81, 0
1, 173730, Note_off_c, 1, 72, 0
1, 173730, Note_off_c, 1, 69, 0
1, 173730, Note_on_c, 1, 67, 127
1, 173759, Note_off_c, 1, 64, 0
1, 173759, Note_off_c, 1, 57, 0
1, 173759, Note_off_c, 1, 67, 0
1, 173760, Note_on_c, 1, 78, 127
1, 173760, Note_on_c, 1, 71, 127
1, 173760, Note_on_c, 1, 69, 127
1, 173760, Note_on_c, 1, 66, 127
1, 173760, Note_on_c, 1, 63, 127
1, 173790, Note_off_c, 1, 78, 0
1, 173790, Note_off_c, 1, 71, 0
1, 173819, Note_off_c, 1, 66, 0
1, 173819, Note_off_c, 1, 63, 0
1, 173820, Note_on_c, 1, 59, 127
1, 173879, Note_off_c, 1, 69, 0
1, 173879, Note_off_c, 1, 59, 0
1, 173880, Note_on_c, 1, 79, 127
1, 173880, Note_on_c, 1, 71, 127
1, 173880, Note_on_c, 1, 64, 127
1, 173880, Note_on_c, 1, 67, 127
1, 173910, Note_off_c, 1, 79, 0
1, 173939, Note_off_c, 1, 64, 0
1, 173939, Note_off_c, 1, 67, 0
1, 173940, Note_on_c, 1, 76, 127
1, 173940, Note_on_c, 1, 59, 127
1, 173940, Note_on_c, 1, 62, 127
1, 173970, Note_off_c, 1, 76, 0
1, 173999, Note_off_c, 1, 71, 0
1, 173999, Note_off_c, 1, 59, 0
1, 173999, Note_off_c, 1, 62, 0
1, 174000, Note_on_c, 1, 76, 127
1, 174000, Note_on_c, 1, 69, 127
1, 174000, Note_on_c, 1, 67, 127
1, 174000, Note_on_c, 1, 57, 127
1, 174000, Note_on_c, 1, 61, 127
1, 174030, Note_off_c, 1, 69, 0
1, 174059, Note_off_c, 1, 57, 0
1, 174059, Note_off_c, 1, 61, 0
1, 174060, Note_on_c, 1, 59, 127
1, 174089, Note_off_c, 1, 59, 0
1, 174119, Note_off_c, 1, 76, 0
1, 174119, Note_off_c, 1, 67, 0
1, 174120, Note_on_c, 1, 78, 127
1, 174120, Note_on_c, 1, 66, 127
1, 174120, Note_on_c, 1, 63, 127
1, 174179, Note_off_c, 1, 78, 0
1, 174179, Note_off_c, 1, 66, 0
1, 174179, Note_off_c, 1, 63, 0
1, 174180, Note_on_c, 1, 78, 127
1, 174180, Note_on_c, 1, 69, 127
1, 174180, Note_on_c, 1, 66, 127
1, 174180, Note_on_c, 1, 63, 127
1, 174180, Note_on_c, 1, 71, 127
1, 174180, Note_on_c, 1, 61, 127
1, 174209, Note_off_c, 1, 61, 0
1, 174210, Note_off_c, 1, 78, 0
1, 174210, Note_off_c, 1, 69, 0
1, 174239, Note_off_c, 1, 66, 0
1, 174239, Note_off_c, 1, 63, 0
1, 174239, Note_off_c, 1, 71, 0
1, 174240, Note_on_c, 1, 79, 127
1, 174240, Note_on_c, 1, 67, 127
1, 174240, Note_on_c, 1, 66, 127
1, 174240, Note_on_c, 1, 59, 127
1, 174240, Note_on_c, 1, 64, 127
1, 174270, Note_off_c, 1, 67, 0
1, 174299, Note_off_c, 1, 59, 0
1, 174299, Note_off_c, 1, 64, 0
1, 174300, Note_on_c, 1, 71, 127
1, 174300, Note_on_c, 1, 60, 127
1, 174300, Note_on_c, 1, 62, 127
1, 174329, Note_off_c, 1, 60, 0
1, 174330, Note_off_c, 1, 71, 0
1, 174359, Note_off_c, 1, 79, 0
1, 174359, Note_off_c, 1, 66, 0
1, 174359, Note_off_c, 1, 62, 0
1, 174360, Note_on_c, 1, 81, 127
1, 174360, Note_on_c, 1, 72, 127
1, 174360, Note_on_c, 1, 64, 127
1, 174360, Note_on_c, 1, 60, 127
1, 174390, Note_off_c, 1, 72, 0
1, 174419, Note_off_c, 1, 81, 0
1, 174419, Note_off_c, 1, 60, 0
1, 174420, Note_on_c, 1, 79, 127
1, 174420, Note_on_c, 1, 71, 127
1, 174420, Note_on_c, 1, 55, 127
1, 174420, Note_on_c, 1, 62, 127
1, 174420, Note_on_c, 1, 59, 127
1, 174450, Note_off_c, 1, 71, 0
1, 174450, Note_off_c, 1, 55, 0
1, 174479, Note_off_c, 1, 64, 0
1, 174479, Note_off_c, 1, 79, 0
1, 174479, Note_off_c, 1, 62, 0
1, 174479, Note_off_c, 1, 59, 0
1, 174480, Note_on_c, 1, 78, 127
1, 174480, Note_on_c, 1, 72, 127
1, 174480, Note_on_c, 1, 64, 127
1, 174480, Note_on_c, 1, 57, 127
1, 174480, Note_on_c, 1, 60, 127
1, 174510, Note_off_c, 1, 72, 0
1, 174510, Note_off_c, 1, 64, 0
1, 174539, Note_off_c, 1, 57, 0
1, 174539, Note_off_c, 1, 60, 0
1, 174540, Note_on_c, 1, 62, 127
1, 174540, Note_on_c, 1, 55, 127
1, 174569, Note_off_c, 1, 62, 0
1, 174569, Note_off_c, 1, 55, 0
1, 174600, Note_on_c, 1, 71, 127
1, 174600, Note_on_c, 1, 66, 127
1, 174600, Note_on_c, 1, 63, 127
1, 174600, Note_on_c, 1, 59, 127
1, 174630, Note_off_c, 1, 71, 0
1, 174630, Note_off_c, 1, 66, 0
1, 174659, Note_off_c, 1, 63, 0
1, 174659, Note_off_c, 1, 59, 0
1, 174660, Note_on_c, 1, 79, 127
1, 174690, Note_off_c, 1, 79, 0
1, 174720, Note_on_c, 1, 81, 127
1, 174720, Note_on_c, 1, 76, 127
1, 174750, Note_off_c, 1, 81, 0
1, 174750, Note_off_c, 1, 76, 0
1, 174780, Note_off_c, 1, 78, 0
1, 174840, Note_on_c, 1, 78, 127
1, 174840, Note_on_c, 1, 71, 127
1, 174840, Note_on_c, 1, 63, 127
1, 174840, Note_on_c, 1, 59, 127
1, 174870, Note_off_c, 1, 71, 0
1, 174899, Note_off_c, 1, 59, 0
1, 174900, Note_on_c, 1, 81, 127
1, 174900, Note_on_c, 1, 75, 127
1, 174900, Note_on_c, 1, 66, 127
1, 174900, Note_on_c, 1, 47, 127
1, 174930, Note_off_c, 1, 81, 0
1, 174930, Note_off_c, 1, 75, 0
1, 174930, Note_off_c, 1, 66, 0
1, 174959, Note_off_c, 1, 78, 0
1, 174959, Note_off_c, 1, 63, 0
1, 174959, Note_off_c, 1, 47, 0
1, 174960, Note_on_c, 1, 79, 127
1, 174960, Note_on_c, 1, 71, 127
1, 174960, Note_on_c, 1, 67, 127
1, 174960, Note_on_c, 1, 59, 127
1, 174960, Note_on_c, 1, 76, 127
1, 174960, Note_on_c, 1, 64, 127
1, 174960, Note_on_c, 1, 52, 127
1, 174990, Note_off_c, 1, 79, 0
1, 174990, Note_off_c, 1, 71, 0
1, 174990, Note_off_c, 1, 67, 0
1, 175020, Note_on_c, 1, 54, 127
1, 175079, Note_off_c, 1, 59, 0
1, 175079, Note_off_c, 1, 76, 0
1, 175079, Note_off_c, 1, 64, 0
1, 175079, Note_off_c, 1, 52, 0
1, 175079, Note_off_c, 1, 54, 0
1, 175080, Note_on_c, 1, 71, 127
1, 175080, Note_on_c, 1, 67, 127
1, 175080, Note_on_c, 1, 64, 127
1, 175080, Note_on_c, 1, 55, 127
1, 175139, Note_off_c, 1, 55, 0
1, 175140, Note_off_c, 1, 71, 0
1, 175140, Note_off_c, 1, 67, 0
1, 175140, Note_on_c, 1, 79, 127
1, 175140, Note_on_c, 1, 76, 127
1, 175140, Note_on_c, 1, 60, 127
1, 175140, Note_on_c, 1, 52, 127
1, 175170, Note_off_c, 1, 79, 0
1, 175170, Note_off_c, 1, 76, 0
1, 175170, Note_off_c, 1, 60, 0
1, 175199, Note_off_c, 1, 52, 0
1, 175200, Note_on_c, 1, 81, 127
1, 175200, Note_on_c, 1, 69, 127
1, 175200, Note_on_c, 1, 54, 127
1, 175230, Note_off_c, 1, 81, 0
1, 175259, Note_off_c, 1, 54, 0
1, 175319, Note_off_c, 1, 64, 0
1, 175319, Note_off_c, 1, 69, 0
1, 175320, Note_on_c, 1, 74, 127
1, 175320, Note_on_c, 1, 66, 127
1, 175320, Note_on_c, 1, 57, 127
1, 175320, Note_on_c, 1, 62, 127
1, 175350, Note_off_c, 1, 66, 0
1, 175379, Note_off_c, 1, 57, 0
1, 175379, Note_off_c, 1, 62, 0
1, 175380, Note_on_c, 1, 81, 127
1, 175380, Note_on_c, 1, 60, 127
1, 175380, Note_on_c, 1, 54, 127
1, 175410, Note_off_c, 1, 81, 0
1, 175439, Note_off_c, 1, 60, 0
1, 175439, Note_off_c, 1, 54, 0
1, 175440, Note_on_c, 1, 83, 127
1, 175440, Note_on_c, 1, 59, 127
1, 175440, Note_on_c, 1, 64, 127
1, 175440, Note_on_c, 1, 56, 127
1, 175470, Note_off_c, 1, 83, 0
1, 175499, Note_off_c, 1, 74, 0
1, 175499, Note_off_c, 1, 56, 0
1, 175500, Note_on_c, 1, 72, 127
1, 175559, Note_off_c, 1, 59, 0
1, 175559, Note_off_c, 1, 64, 0
1, 175559, Note_off_c, 1, 72, 0
1, 175560, Note_on_c, 1, 74, 127
1, 175560, Note_on_c, 1, 71, 127
1, 175560, Note_on_c, 1, 56, 127
1, 175560, Note_on_c, 1, 68, 127
1, 175560, Note_on_c, 1, 52, 127
1, 175560, Note_on_c, 1, 59, 127
1, 175590, Note_off_c, 1, 56, 0
1, 175619, Note_off_c, 1, 74, 0
1, 175619, Note_off_c, 1, 68, 0
1, 175619, Note_off_c, 1, 59, 0
1, 175620, Note_on_c, 1, 64, 127
1, 175679, Note_off_c, 1, 52, 0
1, 175679, Note_off_c, 1, 64, 0
1, 175680, Note_on_c, 1, 72, 127
1, 175680, Note_on_c, 1, 57, 127
1, 175739, Note_off_c, 1, 57, 0
1, 175740, Note_on_c, 1, 62, 127
1, 175799, Note_off_c, 1, 71, 0
1, 175799, Note_off_c, 1, 72, 0
1, 175799, Note_off_c, 1, 62, 0
1, 175800, Note_on_c, 1, 76, 127
1, 175800, Note_on_c, 1, 69, 127
1, 175800, Note_on_c, 1, 60, 127
1, 175800, Note_on_c, 1, 57, 127
1, 175830, Note_off_c, 1, 76, 0
1, 175859, Note_off_c, 1, 69, 0
1, 175860, Note_on_c, 1, 64, 127
1, 175860, Note_on_c, 1, 67, 127
1, 175890, Note_off_c, 1, 64, 0
1, 175919, Note_off_c, 1, 67, 0
1, 175920, Note_on_c, 1, 78, 127
1, 175920, Note_on_c, 1, 62, 127
1, 175920, Note_on_c, 1, 66, 127
1, 175920, Note_on_c, 1, 50, 127
1, 175950, Note_off_c, 1, 78, 0
1, 175950, Note_off_c, 1, 62, 0
1, 175979, Note_off_c, 1, 60, 0
1, 175979, Note_off_c, 1, 57, 0
1, 175979, Note_off_c, 1, 66, 0
1, 175979, Note_off_c, 1, 50, 0
1, 175980, Note_on_c, 1, 59, 127
1, 175980, Note_on_c, 1, 55, 127
1, 175980, Note_on_c, 1, 52, 127
1, 176039, Note_off_c, 1, 59, 0
1, 176039, Note_off_c, 1, 55, 0
1, 176039, Note_off_c, 1, 52, 0
1, 176040, Note_on_c, 1, 74, 127
1, 176040, Note_on_c, 1, 69, 127
1, 176040, Note_on_c, 1, 62, 127
1, 176040, Note_on_c, 1, 57, 127
1, 176040, Note_on_c, 1, 54, 127
1, 176099, Note_off_c, 1, 54, 0
1, 176100, Note_on_c, 1, 78, 127
1, 176100, Note_on_c, 1, 64, 127
1, 176100, Note_on_c, 1, 50, 127
1, 176129, Note_off_c, 1, 64, 0
1, 176130, Note_off_c, 1, 69, 0
1, 176130, Note_off_c, 1, 62, 0
1, 176130, Note_off_c, 1, 78, 0
1, 176130, Note_on_c, 1, 66, 127
1, 176159, Note_off_c, 1, 57, 0
1, 176159, Note_off_c, 1, 50, 0
1, 176159, Note_off_c, 1, 66, 0
1, 176160, Note_on_c, 1, 76, 127
1, 176160, Note_on_c, 1, 67, 127
1, 176160, Note_on_c, 1, 59, 127
1, 176160, Note_on_c, 1, 55, 127
1, 176160, Note_on_c, 1, 52, 127
1, 176190, Note_off_c, 1, 76, 0
1, 176190, Note_off_c, 1, 59, 0
1, 176219, Note_off_c, 1, 67, 0
1, 176219, Note_off_c, 1, 55, 0
1, 176219, Note_off_c, 1, 52, 0
1, 176279, Note_off_c, 1, 74, 0
1, 176280, Note_on_c, 1, 72, 127
1, 176280, Note_on_c, 1, 67, 127
1, 176280, Note_on_c, 1, 62, 127
1, 176280, Note_on_c, 1, 64, 127
1, 176280, Note_on_c, 1, 55, 127
1, 176310, Note_off_c, 1, 67, 0
1, 176310, Note_off_c, 1, 62, 0
1, 176339, Note_off_c, 1, 72, 0
1, 176339, Note_off_c, 1, 55, 0
1, 176340, Note_on_c, 1, 74, 127
1, 176340, Note_on_c, 1, 71, 127
1, 176340, Note_on_c, 1, 66, 127
1, 176340, Note_on_c, 1, 52, 127
1, 176369, Note_off_c, 1, 66, 0
1, 176370, Note_off_c, 1, 74, 0
1, 176399, Note_off_c, 1, 71, 0
1, 176399, Note_off_c, 1, 52, 0
1, 176400, Note_on_c, 1, 69, 127
1, 176400, Note_on_c, 1, 60, 127
1, 176400, Note_on_c, 1, 57, 127
1, 176400, Note_on_c, 1, 54, 127
1, 176430, Note_off_c, 1, 60, 0
1, 176459, Note_off_c, 1, 54, 0
1, 176460, Note_on_c, 1, 76, 127
1, 176490, Note_off_c, 1, 76, 0
1, 176519, Note_off_c, 1, 64, 0
1, 176519, Note_off_c, 1, 57, 0
1, 176579, Note_off_c, 1, 69, 0
1, 176700, Note_on_c, 1, 73, 127
1, 176700, Note_on_c, 1, 47, 127
1, 176729, Note_off_c, 1, 73, 0
1, 176759, Note_off_c, 1, 47, 0
1, 176760, Note_on_c, 1, 73, 127
1, 176760, Note_on_c, 1, 67, 127
1, 176760, Note_on_c, 1, 64, 127
1, 176760, Note_on_c, 1, 52, 127
1, 176819, Note_off_c, 1, 73, 0
1, 176819, Note_off_c, 1, 67, 0
1, 176819, Note_off_c, 1, 64, 0
1, 176820, Note_on_c, 1, 71, 127
1, 176820, Note_on_c, 1, 76, 127
1, 176820, Note_on_c, 1, 59, 127
1, 176820, Note_on_c, 1, 62, 127
1, 176850, Note_off_c, 1, 76, 0
1, 176850, Note_off_c, 1, 59, 0
1, 176879, Note_off_c, 1, 71, 0
1, 176879, Note_off_c, 1, 62, 0
1, 176880, Note_on_c, 1, 70, 127
1, 176880, Note_on_c, 1, 78, 127
1, 176880, Note_on_c, 1, 66, 127
1, 176880, Note_on_c, 1, 61, 127
1, 176910, Note_off_c, 1, 78, 0
1, 176939, Note_off_c, 1, 52, 0
1, 176939, Note_off_c, 1, 70, 0
1, 176939, Note_off_c, 1, 61, 0
1, 176940, Note_on_c, 1, 50, 127
1, 176969, Note_off_c, 1, 50, 0
1, 176970, Note_on_c, 1, 58, 127
1, 176970, Note_on_c, 1, 49, 127
1, 176999, Note_off_c, 1, 66, 0
1, 176999, Note_off_c, 1, 58, 0
1, 176999, Note_off_c, 1, 49, 0
1, 177060, Note_on_c, 1, 74, 127
1, 177060, Note_on_c, 1, 55, 127
1, 177090, Note_off_c, 1, 74, 0
1, 177119, Note_off_c, 1, 55, 0
1, 177210, Note_on_c, 1, 56, 127
1, 177239, Note_off_c, 1, 56, 0
1, 177240, Note_on_c, 1, 54, 127
1, 177299, Note_off_c, 1, 54, 0
1, 177330, Note_on_c, 1, 60, 127
1, 177359, Note_off_c, 1, 60, 0
1, 177540, Note_on_c, 1, 79, 127
1, 177540, Note_on_c, 1, 71, 127
1, 177540, Note_on_c, 1, 64, 127
1, 177540, Note_on_c, 1, 61, 127
1, 177540, Note_on_c, 1, 52, 127
1, 177570, Note_off_c, 1, 71, 0
1, 177570, Note_off_c, 1, 64, 0
1, 177570, Note_off_c, 1, 61, 0
1, 177570, Note_on_c, 1, 62, 127
1, 177599, Note_off_c, 1, 79, 0
1, 177599, Note_off_c, 1, 52, 0
1, 177599, Note_off_c, 1, 62, 0
1, 177600, Note_on_c, 1, 78, 127
1, 177600, Note_on_c, 1, 73, 127
1, 177600, Note_on_c, 1, 64, 127
1, 177600, Note_on_c, 1, 61, 127
1, 177600, Note_on_c, 1, 58, 127
1, 177630, Note_off_c, 1, 73, 0
1, 177659, Note_off_c, 1, 61, 0
1, 177659, Note_off_c, 1, 58, 0
1, 177660, Note_on_c, 1, 70, 127
1, 177660, Note_on_c, 1, 66, 127
1, 177660, Note_on_c, 1, 54, 127
1, 177690, Note_off_c, 1, 66, 0
1, 177719, Note_off_c, 1, 64, 0
1, 177719, Note_off_c, 1, 70, 0
1, 177719, Note_off_c, 1, 54, 0
1, 177720, Note_on_c, 1, 74, 127
1, 177720, Note_on_c, 1, 71, 127
1, 177720, Note_on_c, 1, 62, 127
1, 177720, Note_on_c, 1, 59, 127
1, 177750, Note_off_c, 1, 74, 0
1, 177779, Note_off_c, 1, 78, 0
1, 177779, Note_off_c, 1, 71, 0
1, 177779, Note_off_c, 1, 62, 0
1, 177779, Note_off_c, 1, 59, 0
1, 177780, Note_on_c, 1, 74, 127
1, 177780, Note_on_c, 1, 71, 127
1, 177780, Note_on_c, 1, 62, 127
1, 177780, Note_on_c, 1, 66, 127
1, 177780, Note_on_c, 1, 79, 127
1, 177780, Note_on_c, 1, 57, 127
1, 177809, Note_off_c, 1, 79, 0
1, 177810, Note_off_c, 1, 74, 0
1, 177810, Note_off_c, 1, 66, 0
1, 177810, Note_on_c, 1, 78, 127
1, 177839, Note_off_c, 1, 71, 0
1, 177839, Note_off_c, 1, 62, 0
1, 177839, Note_off_c, 1, 57, 0
1, 177839, Note_off_c, 1, 78, 0
1, 177840, Note_on_c, 1, 76, 127
1, 177840, Note_on_c, 1, 71, 127
1, 177840, Note_on_c, 1, 62, 127
1, 177840, Note_on_c, 1, 59, 127
1, 177840, Note_on_c, 1, 56, 127
1, 177870, Note_off_c, 1, 59, 0
1, 177899, Note_off_c, 1, 56, 0
1, 177900, Note_on_c, 1, 54, 127
1, 177929, Note_off_c, 1, 54, 0
1, 177959, Note_off_c, 1, 62, 0
1, 177960, Note_off_c, 1, 71, 0
1, 177960, Note_on_c, 1, 73, 127
1, 177960, Note_on_c, 1, 66, 127
1, 177960, Note_on_c, 1, 61, 127
1, 177960, Note_on_c, 1, 58, 127
1, 177990, Note_off_c, 1, 73, 0
1, 178019, Note_off_c, 1, 76, 0
1, 178019, Note_off_c, 1, 61, 0
1, 178019, Note_off_c, 1, 58, 0
1, 178020, Note_on_c, 1, 64, 127
1, 178020, Note_on_c, 1, 78, 127
1, 178049, Note_off_c, 1, 78, 0
1, 178050, Note_off_c, 1, 64, 0
1, 178080, Note_on_c, 1, 74, 127
1, 178140, Note_on_c, 1, 57, 127
1, 178199, Note_off_c, 1, 66, 0
1, 178199, Note_off_c, 1, 57, 0
1, 178200, Note_on_c, 1, 55, 127
1, 178259, Note_off_c, 1, 74, 0
1, 178259, Note_off_c, 1, 55, 0
1, 178260, Note_on_c, 1, 69, 127
1, 178319, Note_off_c, 1, 69, 0
1, 178320, Note_on_c, 1, 67, 127
1, 178320, Note_on_c, 1, 52, 127
1, 178380, Note_on_c, 1, 79, 127
1, 178380, Note_on_c, 1, 50, 127
1, 178409, Note_off_c, 1, 50, 0
1, 178410, Note_off_c, 1, 79, 0
1, 178439, Note_off_c, 1, 67, 0
1, 178439, Note_off_c, 1, 52, 0
1, 178560, Note_on_c, 1, 76, 127
1, 178560, Note_on_c, 1, 64, 127
1, 178560, Note_on_c, 1, 61, 127
1, 178560, Note_on_c, 1, 59, 127
1, 178560, Note_on_c, 1, 55, 127
1, 178590, Note_off_c, 1, 61, 0
1, 178619, Note_off_c, 1, 76, 0
1, 178619, Note_off_c, 1, 64, 0
1, 178619, Note_off_c, 1, 55, 0
1, 178620, Note_on_c, 1, 73, 127
1, 178620, Note_on_c, 1, 67, 127
1, 178620, Note_on_c, 1, 74, 127
1, 178620, Note_on_c, 1, 52, 127
1, 178649, Note_off_c, 1, 74, 0
1, 178650, Note_off_c, 1, 59, 0
1, 178679, Note_off_c, 1, 73, 0
1, 178679, Note_off_c, 1, 67, 0
1, 178679, Note_off_c, 1, 52, 0
1, 178680, Note_on_c, 1, 78, 127
1, 178680, Note_on_c, 1, 61, 127
1, 178680, Note_on_c, 1, 58, 127
1, 178680, Note_on_c, 1, 73, 127
1, 178680, Note_on_c, 1, 66, 127
1, 178680, Note_on_c, 1, 54, 127
1, 178710, Note_off_c, 1, 78, 0
1, 178710, Note_off_c, 1, 61, 0
1, 178739, Note_off_c, 1, 66, 0
1, 178740, Note_on_c, 1, 64, 127
1, 178740, Note_on_c, 1, 42, 127
1, 178799, Note_off_c, 1, 58, 0
1, 178799, Note_off_c, 1, 73, 0
1, 178799, Note_off_c, 1, 54, 0
1, 178799, Note_off_c, 1, 64, 0
1, 178799, Note_off_c, 1, 42, 0
1, 178800, Note_on_c, 1, 71, 127
1, 178800, Note_on_c, 1, 63, 127
1, 178800, Note_on_c, 1, 66, 127
1, 178800, Note_on_c, 1, 59, 127
1, 178800, Note_on_c, 1, 47, 127
1, 178860, Note_on_c, 1, 78, 127
1, 178860, Note_on_c, 1, 75, 127
1, 178919, Note_off_c, 1, 71, 0
1, 178919, Note_off_c, 1, 63, 0
1, 178919, Note_off_c, 1, 66, 0
1, 178919, Note_off_c, 1, 59, 0
1, 178919, Note_off_c, 1, 78, 0
1, 178919, Note_off_c, 1, 75, 0
1, 178920, Note_on_c, 1, 67, 127
1, 179040, Note_on_c, 1, 72, 127
1, 179040, Note_on_c, 1, 64, 127
1, 179159, Note_off_c, 1, 67, 0
1, 179160, Note_on_c, 1, 69, 127
1, 179279, Note_off_c, 1, 72, 0
1, 179279, Note_off_c, 1, 64, 0
1, 179399, Note_off_c, 1, 69, 0
1, 179760, Note_off_c, 1, 47, 0
1, 179760, Note_on_c, 1, 52, 127
1, 179760, Note_on_c, 1, 40, 127
1, 179879, Note_off_c, 1, 52, 0
1, 179880, Note_on_c, 1, 68, 127
1, 179880, Note_on_c, 1, 76, 127
1, 179939, Note_off_c, 1, 76, 0
1, 179940, Note_on_c, 1, 60, 127
1, 179999, Note_off_c, 1, 68, 0
1, 179999, Note_off_c, 1, 60, 0
1, 180000, Note_on_c, 1, 65, 127
1, 180060, Note_on_c, 1, 77, 127
1, 180119, Note_off_c, 1, 77, 0
1, 180120, Note_on_c, 1, 62, 127
1, 180180, Note_on_c, 1, 74, 127
1, 180239, Note_off_c, 1, 65, 0
1, 180239, Note_off_c, 1, 74, 0
1, 180359, Note_off_c, 1, 62, 0
1, 180360, Note_on_c, 1, 57, 127
1, 180419, Note_off_c, 1, 57, 0
1, 180660, Note_on_c, 1, 56, 127
1, 180719, Note_off_c, 1, 56, 0
1, 180720, Note_off_c, 1, 40, 0
1, 180720, Note_on_c, 1, 45, 127
1, 180840, Note_on_c, 1, 61, 127
1, 180959, Note_off_c, 1, 61, 0
1, 180960, Note_on_c, 1, 58, 127
1, 181020, Note_on_c, 1, 82, 127
1, 181020, Note_on_c, 1, 70, 127
1, 181079, Note_off_c, 1, 82, 0
1, 181079, Note_off_c, 1, 70, 0
1, 181080, Note_on_c, 1, 79, 127
1, 181139, Note_off_c, 1, 79, 0
1, 181199, Note_off_c, 1, 58, 0
1, 181260, Note_on_c, 1, 81, 127
1, 181319, Note_off_c, 1, 81, 0
1, 181440, Note_on_c, 1, 55, 127
1, 181499, Note_off_c, 1, 55, 0
1, 181500, Note_on_c, 1, 54, 127
1, 181559, Note_off_c, 1, 54, 0
1, 181560, Note_on_c, 1, 73, 127
1, 181619, Note_off_c, 1, 73, 0
1, 181680, Note_off_c, 1, 45, 0
1, 181680, Note_on_c, 1, 50, 127
1, 181799, Note_off_c, 1, 50, 0
1, 181800, Note_on_c, 1, 53, 127
1, 181859, Note_off_c, 1, 53, 0
1, 182160, Note_on_c, 1, 48, 127
1, 182219, Note_off_c, 1, 48, 0
1, 182880, Note_on_c, 1, 43, 127
1, 182939, Note_off_c, 1, 43, 0
1, 183180, Note_on_c, 1, 42, 127
1, 183239, Note_off_c, 1, 42, 0
1, 183870, Note_on_c, 1, 49, 127
1, 183899, Note_off_c, 1, 49, 0
1, 187440, Note_on_c, 1, 38, 127
1, 187499, Note_off_c, 1, 38, 0
1, 188760, Note_on_c, 1, 83, 127
1, 188760, Note_on_c, 1, 51, 127
1, 188819, Note_off_c, 1, 51, 0
1, 188999, Note_off_c, 1, 83, 0
1, 190320, Note_on_c, 1, 76, 127
1, 190320, Note_on_c, 1, 72, 127
1, 190320, Note_on_c, 1, 67, 127
1, 190320, Note_on_c, 1, 60, 127
1, 190320, Note_on_c, 1, 36, 127
1, 190379, Note_off_c, 1, 36, 0
1, 190380, Note_on_c, 1, 48, 127
1, 190380, Note_on_c, 1, 38, 127
1, 190439, Note_off_c, 1, 76, 0
1, 190439, Note_off_c, 1, 67, 0
1, 190439, Note_off_c, 1, 60, 0
1, 190439, Note_off_c, 1, 48, 0
1, 190439, Note_off_c, 1, 38, 0
1, 190440, Note_on_c, 1, 64, 127
1, 190440, Note_on_c, 1, 40, 127
1, 190499, Note_off_c, 1, 40, 0
1, 190500, Note_off_c, 1, 64, 0
1, 190560, Note_on_c, 1, 77, 127
1, 190560, Note_on_c, 1, 69, 127
1, 190560, Note_on_c, 1, 62, 127
1, 190560, Note_on_c, 1, 57, 127
1, 190590, Note_off_c, 1, 77, 0
1, 190590, Note_off_c, 1, 69, 0
1, 190590, Note_off_c, 1, 62, 0
1, 190679, Note_off_c, 1, 72, 0
1, 190679, Note_off_c, 1, 57, 0
1, 190680, Note_on_c, 1, 71, 127
1, 190680, Note_on_c, 1, 67, 127
1, 190680, Note_on_c, 1, 62, 127
1, 190680, Note_on_c, 1, 55, 127
1, 190680, Note_on_c, 1, 41, 127
1, 190710, Note_off_c, 1, 67, 0
1, 190710, Note_off_c, 1, 55, 0
1, 190739, Note_off_c, 1, 71, 0
1, 190739, Note_off_c, 1, 41, 0
1, 190740, Note_on_c, 1, 77, 127
1, 190740, Note_on_c, 1, 74, 127
1, 190740, Note_on_c, 1, 59, 127
1, 190740, Note_on_c, 1, 69, 127
1, 190740, Note_on_c, 1, 38, 127
1, 190770, Note_off_c, 1, 77, 0
1, 190770, Note_off_c, 1, 74, 0
1, 190770, Note_off_c, 1, 59, 0
1, 190799, Note_off_c, 1, 69, 0
1, 190799, Note_off_c, 1, 38, 0
1, 190800, Note_on_c, 1, 79, 127
1, 190800, Note_on_c, 1, 64, 127
1, 190800, Note_on_c, 1, 40, 127
1, 190830, Note_off_c, 1, 79, 0
1, 190830, Note_off_c, 1, 64, 0
1, 190859, Note_off_c, 1, 40, 0
1, 190919, Note_off_c, 1, 62, 0
1, 190920, Note_on_c, 1, 76, 127
1, 190920, Note_on_c, 1, 72, 127
1, 190920, Note_on_c, 1, 60, 127
1, 190920, Note_on_c, 1, 55, 127
1, 190920, Note_on_c, 1, 67, 127
1, 190920, Note_on_c, 1, 43, 127
1, 190950, Note_off_c, 1, 72, 0
1, 190950, Note_off_c, 1, 55, 0
1, 190979, Note_off_c, 1, 60, 0
1, 190979, Note_off_c, 1, 43, 0
1, 190980, Note_on_c, 1, 79, 127
1, 190980, Note_on_c, 1, 59, 127
1, 190980, Note_on_c, 1, 40, 127
1, 191010, Note_off_c, 1, 79, 0
1, 191039, Note_off_c, 1, 59, 0
1, 191039, Note_off_c, 1, 40, 0
1, 191040, Note_on_c, 1, 81, 127
1, 191040, Note_on_c, 1, 57, 127
1, 191040, Note_on_c, 1, 48, 127
1, 191040, Note_on_c, 1, 41, 127
1, 191070, Note_off_c, 1, 81, 0
1, 191099, Note_off_c, 1, 41, 0
1, 191100, Note_on_c, 1, 71, 127
1, 191100, Note_on_c, 1, 64, 127
1, 191130, Note_off_c, 1, 71, 0
1, 191130, Note_off_c, 1, 64, 0
1, 191159, Note_off_c, 1, 76, 0
1, 191159, Note_off_c, 1, 67, 0
1, 191159, Note_off_c, 1, 57, 0
1, 191159, Note_off_c, 1, 48, 0
1, 191160, Note_on_c, 1, 77, 127
1, 191160, Note_on_c, 1, 72, 127
1, 191160, Note_on_c, 1, 65, 127
1, 191160, Note_on_c, 1, 60, 127
1, 191160, Note_on_c, 1, 74, 127
1, 191160, Note_on_c, 1, 57, 127
1, 191160, Note_on_c, 1, 53, 127
1, 191160, Note_on_c, 1, 45, 127
1, 191190, Note_off_c, 1, 77, 0
1, 191190, Note_off_c, 1, 72, 0
1, 191190, Note_off_c, 1, 60, 0
1, 191219, Note_off_c, 1, 65, 0
1, 191219, Note_off_c, 1, 74, 0
1, 191219, Note_off_c, 1, 45, 0
1, 191220, Note_on_c, 1, 81, 127
1, 191220, Note_on_c, 1, 64, 127
1, 191220, Note_on_c, 1, 41, 127
1, 191250, Note_off_c, 1, 81, 0
1, 191279, Note_off_c, 1, 64, 0
1, 191279, Note_off_c, 1, 41, 0
1, 191280, Note_on_c, 1, 83, 127
1, 191280, Note_on_c, 1, 79, 127
1, 191280, Note_on_c, 1, 62, 127
1, 191280, Note_on_c, 1, 71, 127
1, 191280, Note_on_c, 1, 43, 127
1, 191310, Note_off_c, 1, 83, 0
1, 191310, Note_off_c, 1, 79, 0
1, 191339, Note_off_c, 1, 43, 0
1, 191340, Note_on_c, 1, 69, 127
1, 191370, Note_off_c, 1, 69, 0
1, 191399, Note_off_c, 1, 57, 0
1, 191399, Note_off_c, 1, 53, 0
1, 191399, Note_off_c, 1, 62, 0
1, 191399, Note_off_c, 1, 71, 0
1, 191400, Note_on_c, 1, 79, 127
1, 191400, Note_on_c, 1, 67, 127
1, 191400, Note_on_c, 1, 74, 127
1, 191400, Note_on_c, 1, 59, 127
1, 191400, Note_on_c, 1, 71, 127
1, 191400, Note_on_c, 1, 55, 127
1, 191400, Note_on_c, 1, 52, 127
1, 191400, Note_on_c, 1, 47, 127
1, 191430, Note_off_c, 1, 67, 0
1, 191430, Note_off_c, 1, 74, 0
1, 191430, Note_off_c, 1, 59, 0
1, 191459, Note_off_c, 1, 55, 0
1, 191459, Note_off_c, 1, 52, 0
1, 191459, Note_off_c, 1, 47, 0
1, 191460, Note_on_c, 1, 83, 127
1, 191460, Note_on_c, 1, 53, 127
1, 191460, Note_on_c, 1, 50, 127
1, 191460, Note_on_c, 1, 43, 127
1, 191490, Note_off_c, 1, 83, 0
1, 191519, Note_off_c, 1, 53, 0
1, 191519, Note_off_c, 1, 50, 0
1, 191519, Note_off_c, 1, 43, 0
1, 191520, Note_on_c, 1, 84, 127
1, 191520, Note_on_c, 1, 81, 127
1, 191520, Note_on_c, 1, 64, 127
1, 191520, Note_on_c, 1, 48, 127
1, 191520, Note_on_c, 1, 45, 127
1, 191550, Note_off_c, 1, 84, 0
1, 191550, Note_off_c, 1, 81, 0
1, 191550, Note_off_c, 1, 64, 0
1, 191579, Note_off_c, 1, 45, 0
1, 191580, Note_on_c, 1, 62, 127
1, 191610, Note_off_c, 1, 62, 0
1, 191639, Note_off_c, 1, 79, 0
1, 191639, Note_off_c, 1, 71, 0
1, 191639, Note_off_c, 1, 48, 0
1, 191640, Note_on_c, 1, 81, 127
1, 191640, Note_on_c, 1, 76, 127
1, 191640, Note_on_c, 1, 69, 127
1, 191640, Note_on_c, 1, 60, 127
1, 191640, Note_on_c, 1, 78, 127
1, 191640, Note_on_c, 1, 57, 127
1, 191640, Note_on_c, 1, 48, 127
1, 191670, Note_off_c, 1, 81, 0
1, 191670, Note_off_c, 1, 76, 0
1, 191699, Note_off_c, 1, 69, 0
1, 191699, Note_off_c, 1, 78, 0
1, 191699, Note_off_c, 1, 48, 0
1, 191700, Note_on_c, 1, 84, 127
1, 191700, Note_on_c, 1, 67, 127
1, 191700, Note_on_c, 1, 45, 127
1, 191730, Note_off_c, 1, 84, 0
1, 191759, Note_off_c, 1, 67, 0
1, 191759, Note_off_c, 1, 45, 0
1, 191760, Note_on_c, 1, 86, 127
1, 191760, Note_on_c, 1, 74, 127
1, 191760, Note_on_c, 1, 66, 127
1, 191760, Note_on_c, 1, 47, 127
1, 191790, Note_off_c, 1, 86, 0
1, 191819, Note_off_c, 1, 66, 0
1, 191819, Note_off_c, 1, 47, 0
1, 191820, Note_on_c, 1, 62, 127
1, 191879, Note_off_c, 1, 60, 0
1, 191879, Note_off_c, 1, 57, 0
1, 191879, Note_off_c, 1, 74, 0
1, 191879, Note_off_c, 1, 62, 0
1, 191880, Note_on_c, 1, 83, 127
1, 191880, Note_on_c, 1, 71, 127
1, 191880, Note_on_c, 1, 67, 127
1, 191880, Note_on_c, 1, 55, 127
1, 191880, Note_on_c, 1, 74, 127
1, 191880, Note_on_c, 1, 59, 127
1, 191880, Note_on_c, 1, 50, 127
1, 191910, Note_off_c, 1, 83, 0
1, 191910, Note_off_c, 1, 71, 0
1, 191939, Note_off_c, 1, 55, 0
1, 191939, Note_off_c, 1, 59, 0
1, 191939, Note_off_c, 1, 50, 0
1, 191940, Note_on_c, 1, 57, 127
1, 191940, Note_on_c, 1, 54, 127
1, 191940, Note_on_c, 1, 47, 127
1, 191999, Note_off_c, 1, 57, 0
1, 191999, Note_off_c, 1, 54, 0
1, 191999, Note_off_c, 1, 47, 0
1, 192000, Note_on_c, 1, 76, 127
1, 192000, Note_on_c, 1, 52, 127
1, 192000, Note_on_c, 1, 48, 127
1, 192030, Note_off_c, 1, 76, 0
1, 192059, Note_off_c, 1, 67, 0
1, 192059, Note_off_c, 1, 52, 0
1, 192059, Note_off_c, 1, 48, 0
1, 192060, Note_on_c, 1, 79, 127
1, 192060, Note_on_c, 1, 69, 127
1, 192060, Note_on_c, 1, 64, 127
1, 192060, Note_on_c, 1, 43, 127
1, 192089, Note_off_c, 1, 69, 0
1, 192090, Note_off_c, 1, 79, 0
1, 192119, Note_off_c, 1, 74, 0
1, 192119, Note_off_c, 1, 43, 0
1, 192120, Note_on_c, 1, 81, 127
1, 192120, Note_on_c, 1, 72, 127
1, 192120, Note_on_c, 1, 60, 127
1, 192150, Note_off_c, 1, 81, 0
1, 192179, Note_off_c, 1, 64, 0
1, 192179, Note_off_c, 1, 72, 0
1, 192180, Note_on_c, 1, 62, 127
1, 192209, Note_off_c, 1, 62, 0
1, 192240, Note_on_c, 1, 78, 127
1, 192240, Note_on_c, 1, 66, 127
1, 192270, Note_off_c, 1, 78, 0
1, 192299, Note_off_c, 1, 60, 0
1, 192299, Note_off_c, 1, 66, 0
1, 192300, Note_on_c, 1, 81, 127
1, 192300, Note_on_c, 1, 78, 127
1, 192300, Note_on_c, 1, 74, 127
1, 192300, Note_on_c, 1, 57, 127
1, 192300, Note_on_c, 1, 62, 127
1, 192300, Note_on_c, 1, 54, 127
1, 192300, Note_on_c, 1, 59, 127
1, 192300, Note_on_c, 1, 47, 127
1, 192329, Note_off_c, 1, 59, 0
1, 192329, Note_off_c, 1, 47, 0
1, 192330, Note_off_c, 1, 81, 0
1, 192330, Note_off_c, 1, 78, 0
1, 192330, Note_on_c, 1, 45, 127
1, 192359, Note_off_c, 1, 57, 0
1, 192359, Note_off_c, 1, 62, 0
1, 192359, Note_off_c, 1, 54, 0
1, 192359, Note_off_c, 1, 45, 0
1, 192360, Note_on_c, 1, 79, 127
1, 192360, Note_on_c, 1, 71, 127
1, 192360, Note_on_c, 1, 55, 127
1, 192390, Note_off_c, 1, 79, 0
1, 192419, Note_off_c, 1, 74, 0
1, 192419, Note_off_c, 1, 71, 0
1, 192420, Note_on_c, 1, 76, 127
1, 192420, Note_on_c, 1, 72, 127
1, 192420, Note_on_c, 1, 69, 127
1, 192420, Note_on_c, 1, 64, 127
1, 192420, Note_on_c, 1, 52, 127
1, 192449, Note_off_c, 1, 72, 0
1, 192449, Note_off_c, 1, 69, 0
1, 192450, Note_off_c, 1, 76, 0
1, 192450, Note_on_c, 1, 67, 127
1, 192479, Note_off_c, 1, 64, 0
1, 192479, Note_off_c, 1, 52, 0
1, 192479, Note_off_c, 1, 67, 0
1, 192480, Note_on_c, 1, 60, 127
1, 192480, Note_on_c, 1, 48, 127
1, 192539, Note_off_c, 1, 55, 0
1, 192539, Note_off_c, 1, 60, 0
1, 192539, Note_off_c, 1, 48, 0
1, 192600, Note_on_c, 1, 50, 127
1, 192659, Note_off_c, 1, 50, 0
1, 192720, Note_on_c, 1, 66, 127
1, 192750, Note_off_c, 1, 66, 0
1, 192780, Note_on_c, 1, 83, 127
1, 192810, Note_off_c, 1, 83, 0
1, 192960, Note_on_c, 1, 74, 127
1, 192960, Note_on_c, 1, 69, 127
1, 192960, Note_on_c, 1, 60, 127
1, 192960, Note_on_c, 1, 54, 127
1, 192990, Note_off_c, 1, 74, 0
1, 193019, Note_off_c, 1, 54, 0
1, 193020, Note_on_c, 1, 78, 127
1, 193020, Note_on_c, 1, 66, 127
1, 193020, Note_on_c, 1, 50, 127
1, 193050, Note_off_c, 1, 78, 0
1, 193079, Note_off_c, 1, 69, 0
1, 193079, Note_off_c, 1, 60, 0
1, 193079, Note_off_c, 1, 66, 0
1, 193079, Note_off_c, 1, 50, 0
1, 193080, Note_on_c, 1, 79, 127
1, 193080, Note_on_c, 1, 74, 127
1, 193080, Note_on_c, 1, 71, 127
1, 193080, Note_on_c, 1, 59, 127
1, 193080, Note_on_c, 1, 67, 127
1, 193080, Note_on_c, 1, 62, 127
1, 193080, Note_on_c, 1, 55, 127
1, 193110, Note_off_c, 1, 79, 0
1, 193110, Note_off_c, 1, 74, 0
1, 193110, Note_off_c, 1, 71, 0
1, 193139, Note_off_c, 1, 59, 0
1, 193139, Note_off_c, 1, 67, 0
1, 193139, Note_off_c, 1, 62, 0
1, 193139, Note_off_c, 1, 55, 0
1, 193140, Note_on_c, 1, 74, 127
1, 193140, Note_on_c, 1, 67, 127
1, 193140, Note_on_c, 1, 59, 127
1, 193140, Note_on_c, 1, 62, 127
1, 193140, Note_on_c, 1, 54, 127
1, 193170, Note_off_c, 1, 74, 0
1, 193199, Note_off_c, 1, 67, 0
1, 193199, Note_off_c, 1, 59, 0
1, 193199, Note_off_c, 1, 62, 0
1, 193199, Note_off_c, 1, 54, 0
1, 193200, Note_on_c, 1, 76, 127
1, 193200, Note_on_c, 1, 67, 127
1, 193200, Note_on_c, 1, 59, 127
1, 193200, Note_on_c, 1, 72, 127
1, 193200, Note_on_c, 1, 52, 127
1, 193230, Note_off_c, 1, 76, 0
1, 193259, Note_off_c, 1, 52, 0
1, 193260, Note_on_c, 1, 79, 127
1, 193260, Note_on_c, 1, 71, 127
1, 193260, Note_on_c, 1, 50, 127
1, 193289, Note_off_c, 1, 50, 0
1, 193290, Note_off_c, 1, 79, 0
1, 193290, Note_off_c, 1, 71, 0
1, 193319, Note_off_c, 1, 67, 0
1, 193319, Note_off_c, 1, 59, 0
1, 193319, Note_off_c, 1, 72, 0
1, 193320, Note_on_c, 1, 74, 127
1, 193320, Note_on_c, 1, 69, 127
1, 193320, Note_on_c, 1, 66, 127
1, 193320, Note_on_c, 1, 57, 127
1, 193320, Note_on_c, 1, 72, 127
1, 193320, Note_on_c, 1, 54, 127
1, 193350, Note_off_c, 1, 74, 0
1, 193350, Note_off_c, 1, 66, 0
1, 193379, Note_off_c, 1, 69, 0
1, 193379, Note_off_c, 1, 57, 0
1, 193379, Note_off_c, 1, 72, 0
1, 193379, Note_off_c, 1, 54, 0
1, 193380, Note_on_c, 1, 81, 127
1, 193380, Note_on_c, 1, 72, 127
1, 193380, Note_on_c, 1, 57, 127
1, 193380, Note_on_c, 1, 74, 127
1, 193380, Note_on_c, 1, 69, 127
1, 193380, Note_on_c, 1, 52, 127
1, 193409, Note_off_c, 1, 52, 0
1, 193410, Note_off_c, 1, 81, 0
1, 193410, Note_off_c, 1, 72, 0
1, 193410, Note_on_c, 1, 54, 127
1, 193439, Note_off_c, 1, 57, 0
1, 193439, Note_off_c, 1, 74, 0
1, 193439, Note_off_c, 1, 69, 0
1, 193439, Note_off_c, 1, 54, 0
1, 193440, Note_on_c, 1, 74, 127
1, 193440, Note_on_c, 1, 71, 127
1, 193440, Note_on_c, 1, 55, 127
1, 193440, Note_on_c, 1, 69, 127
1, 193440, Note_on_c, 1, 59, 127
1, 193470, Note_off_c, 1, 74, 0
1, 193499, Note_off_c, 1, 55, 0
1, 193499, Note_off_c, 1, 59, 0
1, 193500, Note_on_c, 1, 66, 127
1, 193500, Note_on_c, 1, 62, 127
1, 193500, Note_on_c, 1, 60, 127
1, 193500, Note_on_c, 1, 54, 127
1, 193529, Note_off_c, 1, 60, 0
1, 193530, Note_off_c, 1, 66, 0
1, 193559, Note_off_c, 1, 69, 0
1, 193559, Note_off_c, 1, 62, 0
1, 193559, Note_off_c, 1, 54, 0
1, 193560, Note_on_c, 1, 79, 127
1, 193560, Note_on_c, 1, 67, 127
1, 193560, Note_on_c, 1, 64, 127
1, 193560, Note_on_c, 1, 52, 127
1, 193590, Note_off_c, 1, 79, 0
1, 193619, Note_off_c, 1, 71, 0
1, 193619, Note_off_c, 1, 52, 0
1, 193620, Note_on_c, 1, 72, 127
1, 193620, Note_on_c, 1, 50, 127
1, 193649, Note_off_c, 1, 72, 0
1, 193679, Note_off_c, 1, 50, 0
1, 193680, Note_on_c, 1, 81, 127
1, 193680, Note_on_c, 1, 76, 127
1, 193680, Note_on_c, 1, 48, 127
1, 193710, Note_off_c, 1, 81, 0
1, 193739, Note_off_c, 1, 67, 0
1, 193739, Note_off_c, 1, 64, 0
1, 193740, Note_on_c, 1, 57, 127
1, 193740, Note_on_c, 1, 47, 127
1, 193769, Note_off_c, 1, 47, 0
1, 193799, Note_off_c, 1, 48, 0
1, 193799, Note_off_c, 1, 57, 0
1, 193800, Note_on_c, 1, 78, 127
1, 193830, Note_off_c, 1, 78, 0
1, 193859, Note_off_c, 1, 76, 0
1, 193860, Note_on_c, 1, 83, 127
1, 193860, Note_on_c, 1, 71, 127
1, 193860, Note_on_c, 1, 66, 127
1, 193860, Note_on_c, 1, 74, 127
1, 193860, Note_on_c, 1, 57, 127
1, 193860, Note_on_c, 1, 50, 127
1, 193860, Note_on_c, 1, 48, 127
1, 193889, Note_off_c, 1, 74, 0
1, 193889, Note_off_c, 1, 48, 0
1, 193890, Note_off_c, 1, 83, 0
1, 193890, Note_off_c, 1, 71, 0
1, 193890, Note_on_c, 1, 72, 127
1, 193919, Note_off_c, 1, 66, 0
1, 193919, Note_off_c, 1, 57, 0
1, 193919, Note_off_c, 1, 50, 0
1, 193919, Note_off_c, 1, 72, 0
1, 193920, Note_on_c, 1, 83, 127
1, 193920, Note_on_c, 1, 76, 127
1, 193920, Note_on_c, 1, 67, 127
1, 193920, Note_on_c, 1, 71, 127
1, 193920, Note_on_c, 1, 55, 127
1, 193920, Note_on_c, 1, 52, 127
1, 193950, Note_off_c, 1, 83, 0
1, 193950, Note_off_c, 1, 76, 0
1, 193979, Note_off_c, 1, 71, 0
1, 193979, Note_off_c, 1, 55, 0
1, 193979, Note_off_c, 1, 52, 0
1, 193980, Note_on_c, 1, 81, 127
1, 193980, Note_on_c, 1, 79, 127
1, 193980, Note_on_c, 1, 64, 127
1, 193980, Note_on_c, 1, 60, 127
1, 193980, Note_on_c, 1, 48, 127
1, 194009, Note_off_c, 1, 67, 0
1, 194010, Note_off_c, 1, 81, 0
1, 194010, Note_off_c, 1, 60, 0
1, 194010, Note_on_c, 1, 72, 127
1, 194039, Note_off_c, 1, 64, 0
1, 194039, Note_off_c, 1, 48, 0
1, 194039, Note_off_c, 1, 72, 0
1, 194040, Note_on_c, 1, 74, 127
1, 194040, Note_on_c, 1, 69, 127
1, 194040, Note_on_c, 1, 57, 127
1, 194040, Note_on_c, 1, 62, 127
1, 194040, Note_on_c, 1, 50, 127
1, 194070, Note_off_c, 1, 74, 0
1, 194070, Note_off_c, 1, 57, 0
1, 194099, Note_off_c, 1, 79, 0
1, 194100, Note_on_c, 1, 84, 127
1, 194100, Note_on_c, 1, 78, 127
1, 194100, Note_on_c, 1, 38, 127
1, 194159, Note_off_c, 1, 69, 0
1, 194159, Note_off_c, 1, 62, 0
1, 194159, Note_off_c, 1, 50, 0
1, 194159, Note_off_c, 1, 84, 0
1, 194159, Note_off_c, 1, 78, 0
1, 194159, Note_off_c, 1, 38, 0
1, 194160, Note_on_c, 1, 43, 127
1, 194280, Note_on_c, 1, 77, 127
1, 194340, Note_on_c, 1, 59, 127
1, 194399, Note_off_c, 1, 77, 0
1, 194399, Note_off_c, 1, 59, 0
1, 194640, Note_on_c, 1, 66, 127
1, 194759, Note_off_c, 1, 66, 0
1, 195060, Note_on_c, 1, 54, 127
1, 195119, Note_off_c, 1, 54, 0
1, 195300, Note_on_c, 1, 65, 127
1, 195359, Note_off_c, 1, 65, 0
1, 196140, Note_off_c, 1, 43, 0
1, 196140, Note_on_c, 1, 45, 127
1, 196199, Note_off_c, 1, 45, 0
1, 196200, Note_on_c, 1, 47, 127
1, 196259, Note_off_c, 1, 47, 0
1, 196320, Note_on_c, 1, 64, 127
1, 196320, Note_on_c, 1, 48, 127
1, 196379, Note_off_c, 1, 64, 0
1, 196379, Note_off_c, 1, 48, 0
1, 196380, Note_on_c, 1, 66, 127
1, 196380, Note_on_c, 1, 50, 127
1, 196439, Note_off_c, 1, 66, 0
1, 196439, Note_off_c, 1, 50, 0
1, 196440, Note_on_c, 1, 76, 127
1, 196440, Note_on_c, 1, 67, 127
1, 196440, Note_on_c, 1, 60, 127
1, 196440, Note_on_c, 1, 52, 127
1, 196499, Note_off_c, 1, 76, 0
1, 196499, Note_off_c, 1, 67, 0
1, 196499, Note_off_c, 1, 60, 0
1, 196499, Note_off_c, 1, 52, 0
1, 196500, Note_on_c, 1, 74, 127
1, 196500, Note_on_c, 1, 64, 127
1, 196500, Note_on_c, 1, 59, 127
1, 196500, Note_on_c, 1, 48, 127
1, 196559, Note_off_c, 1, 74, 0
1, 196559, Note_off_c, 1, 64, 0
1, 196559, Note_off_c, 1, 59, 0
1, 196559, Note_off_c, 1, 48, 0
1, 196560, Note_on_c, 1, 72, 127
1, 196560, Note_on_c, 1, 69, 127
1, 196560, Note_on_c, 1, 57, 127
1, 196560, Note_on_c, 1, 45, 127
1, 196619, Note_off_c, 1, 72, 0
1, 196619, Note_off_c, 1, 69, 0
1, 196619, Note_off_c, 1, 57, 0
1, 196619, Note_off_c, 1, 45, 0
1, 196620, Note_on_c, 1, 74, 127
1, 196620, Note_on_c, 1, 67, 127
1, 196620, Note_on_c, 1, 59, 127
1, 196620, Note_on_c, 1, 47, 127
1, 196649, Note_off_c, 1, 67, 0
1, 196650, Note_on_c, 1, 66, 127
1, 196679, Note_off_c, 1, 74, 0
1, 196679, Note_off_c, 1, 59, 0
1, 196679, Note_off_c, 1, 47, 0
1, 196679, Note_off_c, 1, 66, 0
1, 196680, Note_on_c, 1, 76, 127
1, 196680, Note_on_c, 1, 64, 127
1, 196680, Note_on_c, 1, 57, 127
1, 196680, Note_on_c, 1, 60, 127
1, 196680, Note_on_c, 1, 48, 127
1, 196739, Note_off_c, 1, 76, 0
1, 196739, Note_off_c, 1, 64, 0
1, 196739, Note_off_c, 1, 57, 0
1, 196739, Note_off_c, 1, 48, 0
1, 196740, Note_on_c, 1, 72, 127
1, 196740, Note_on_c, 1, 69, 127
1, 196740, Note_on_c, 1, 45, 127
1, 196799, Note_off_c, 1, 72, 0
1, 196799, Note_off_c, 1, 69, 0
1, 196799, Note_off_c, 1, 45, 0
1, 196800, Note_on_c, 1, 74, 127
1, 196800, Note_on_c, 1, 66, 127
1, 196800, Note_on_c, 1, 62, 127
1, 196800, Note_on_c, 1, 50, 127
1, 196829, Note_off_c, 1, 66, 0
1, 196830, Note_off_c, 1, 60, 0
1, 196830, Note_on_c, 1, 59, 127
1, 196859, Note_off_c, 1, 74, 0
1, 196859, Note_off_c, 1, 50, 0
1, 196860, Note_off_c, 1, 59, 0
1, 196860, Note_on_c, 1, 52, 127
1, 196890, Note_on_c, 1, 71, 127
1, 196890, Note_on_c, 1, 67, 127
1, 196890, Note_on_c, 1, 55, 127
1, 196919, Note_off_c, 1, 52, 0
1, 196919, Note_off_c, 1, 71, 0
1, 196919, Note_off_c, 1, 67, 0
1, 196920, Note_off_c, 1, 55, 0
1, 196920, Note_on_c, 1, 54, 127
1, 196979, Note_off_c, 1, 54, 0
1, 197100, Note_on_c, 1, 65, 127
1, 197129, Note_off_c, 1, 65, 0
1, 197339, Note_off_c, 1, 62, 0
1, 197340, Note_on_c, 1, 61, 127
1, 197369, Note_off_c, 1, 61, 0
1, 197400, Note_on_c, 1, 58, 127
1, 197520, Note_on_c, 1, 49, 127
1, 197640, Note_off_c, 1, 58, 0
1, 197759, Note_off_c, 1, 49, 0
1, 198000, Note_on_c, 1, 43, 127
1, 198240, Note_off_c, 1, 43, 0
1, 198480, Note_on_c, 1, 47, 127
1, 198480, Note_on_c, 1, 67, 127
1, 198480, Note_on_c, 1, 62, 127
1, 198480, Note_on_c, 1, 59, 127
1, 198660, Note_on_c, 1, 50, 127
1, 198719, Note_off_c, 1, 50, 0
1, 198720, Note_on_c, 1, 55, 127
1, 198839, Note_off_c, 1, 55, 0
1, 199200, Note_off_c, 1, 47, 0
1, 199200, Note_off_c, 1, 67, 0
1, 199200, Note_off_c, 1, 62, 0
1, 199200, Note_on_c, 1, 52, 127
1, 199200, Note_on_c, 1, 44, 127
1, 199200, Note_on_c, 1, 64, 127
1, 199200, Note_on_c, 1, 68, 127
1, 199259, Note_off_c, 1, 52, 0
1, 199380, Note_on_c, 1, 56, 127
1, 199409, Note_off_c, 1, 56, 0
1, 199410, Note_on_c, 1, 57, 127
1, 199439, Note_off_c, 1, 57, 0
1, 199560, Note_off_c, 1, 64, 0
1, 199620, Note_on_c, 1, 60, 127
1, 199679, Note_off_c, 1, 60, 0
1, 199680, Note_off_c, 1, 59, 0
1, 199680, Note_off_c, 1, 44, 0
1, 199680, Note_off_c, 1, 68, 0
1, 199680, Note_on_c, 1, 45, 127
1, 200400, Note_on_c, 1, 54, 127
1, 200400, Note_on_c, 1, 66, 127
1, 200459, Note_off_c, 1, 54, 0
1, 200640, Note_off_c, 1, 45, 0
1, 200640, Note_off_c, 1, 66, 0
1, 200940, Note_on_c, 1, 55, 127
1, 200999, Note_off_c, 1, 55, 0
1, 201000, Note_on_c, 1, 50, 127
1, 201000, Note_on_c, 1, 67, 127
1, 201000, Note_on_c, 1, 59, 127
1, 201060, Note_off_c, 1, 67, 0
1, 201060, Note_off_c, 1, 59, 0
1, 201060, Note_on_c, 1, 57, 127
1, 201060, Note_on_c, 1, 66, 127
1, 201120, Note_off_c, 1, 50, 0
1, 201120, Note_off_c, 1, 57, 0
1, 201120, Note_off_c, 1, 66, 0
1, 201120, Note_on_c, 1, 43, 127
1, 201120, Note_on_c, 1, 62, 127
1, 201360, Note_off_c, 1, 43, 0
1, 201360, Note_off_c, 1, 62, 0
1, 201900, Note_on_c, 1, 79, 127
1, 201900, Note_on_c, 1, 71, 127
1, 201900, Note_on_c, 1, 62, 127
1, 201900, Note_on_c, 1, 55, 127
1, 201990, Note_on_c, 1, 59, 127
1, 202020, Note_off_c, 1, 59, 0
1, 202079, Note_off_c, 1, 79, 0
1, 202079, Note_off_c, 1, 71, 0
1, 202079, Note_off_c, 1, 55, 0
1, 202080, Note_on_c, 1, 78, 127
1, 202080, Note_on_c, 1, 69, 127
1, 202170, Note_on_c, 1, 61, 127
1, 202200, Note_off_c, 1, 61, 0
1, 202259, Note_off_c, 1, 78, 0
1, 202259, Note_off_c, 1, 69, 0
1, 202260, Note_on_c, 1, 76, 127
1, 202350, Note_on_c, 1, 52, 127
1, 202380, Note_off_c, 1, 62, 0
1, 202380, Note_off_c, 1, 52, 0
1, 202380, Note_on_c, 1, 57, 127
1, 202439, Note_off_c, 1, 76, 0
1, 202440, Note_off_c, 1, 57, 0
1, 202440, Note_on_c, 1, 50, 127
1, 202560, Note_on_c, 1, 60, 127
1, 202560, Note_on_c, 1, 54, 127
1, 202619, Note_off_c, 1, 50, 0
1, 202619, Note_off_c, 1, 60, 0
1, 202620, Note_off_c, 1, 54, 0
1, 202620, Note_on_c, 1, 74, 127
1, 202620, Note_on_c, 1, 67, 127
1, 202799, Note_off_c, 1, 74, 0
1, 202800, Note_on_c, 1, 48, 127
1, 202890, Note_on_c, 1, 47, 127
1, 202920, Note_off_c, 1, 67, 0
1, 202920, Note_off_c, 1, 47, 0
1, 202920, Note_on_c, 1, 72, 127
1, 202979, Note_off_c, 1, 72, 0
1, 202980, Note_off_c, 1, 48, 0
1, 203160, Note_on_c, 1, 83, 127
1, 203160, Note_on_c, 1, 43, 127
1, 203279, Note_off_c, 1, 83, 0
1, 203280, Note_on_c, 1, 81, 127
1, 203280, Note_on_c, 1, 66, 127
1, 203339, Note_off_c, 1, 81, 0
1, 203339, Note_off_c, 1, 66, 0
1, 203340, Note_off_c, 1, 43, 0
1, 203610, Note_on_c, 1, 88, 127
1, 203639, Note_off_c, 1, 88, 0
1, 203640, Note_on_c, 1, 86, 127
1, 203790, Note_off_c, 1, 86, 0
1, 204600, Note_on_c, 1, 79, 127
1, 204600, Note_on_c, 1, 71, 127
1, 204600, Note_on_c, 1, 64, 127
1, 204600, Note_on_c, 1, 52, 127
1, 204690, Note_on_c, 1, 50, 127
1, 204719, Note_off_c, 1, 50, 0
1, 204779, Note_off_c, 1, 79, 0
1, 204779, Note_off_c, 1, 71, 0
1, 204779, Note_off_c, 1, 64, 0
1, 204779, Note_off_c, 1, 52, 0
1, 204780, Note_on_c, 1, 74, 127
1, 204780, Note_on_c, 1, 71, 127
1, 204780, Note_on_c, 1, 66, 127
1, 204780, Note_on_c, 1, 59, 127
1, 204780, Note_on_c, 1, 47, 127
1, 204869, Note_off_c, 1, 47, 0
1, 204870, Note_on_c, 1, 50, 127
1, 204899, Note_off_c, 1, 66, 0
1, 204899, Note_off_c, 1, 50, 0
1, 204900, Note_on_c, 1, 67, 127
1, 204900, Note_on_c, 1, 54, 127
1, 204959, Note_off_c, 1, 74, 0
1, 204959, Note_off_c, 1, 71, 0
1, 204959, Note_off_c, 1, 59, 0
1, 204959, Note_off_c, 1, 54, 0
1, 204960, Note_off_c, 1, 67, 0
1, 204960, Note_on_c, 1, 69, 127
1, 204960, Note_on_c, 1, 62, 127
1, 205050, Note_on_c, 1, 52, 127
1, 205079, Note_off_c, 1, 52, 0
1, 205080, Note_on_c, 1, 72, 127
1, 205139, Note_off_c, 1, 69, 0
1, 205139, Note_off_c, 1, 62, 0
1, 205139, Note_off_c, 1, 72, 0
1, 205140, Note_on_c, 1, 71, 127
1, 205140, Note_on_c, 1, 67, 127
1, 205140, Note_on_c, 1, 62, 127
1, 205140, Note_on_c, 1, 55, 127
1, 205230, Note_on_c, 1, 54, 127
1, 205259, Note_off_c, 1, 71, 0
1, 205259, Note_off_c, 1, 62, 0
1, 205259, Note_off_c, 1, 55, 0
1, 205259, Note_off_c, 1, 54, 0
1, 205260, Note_on_c, 1, 72, 127
1, 205260, Note_on_c, 1, 64, 127
1, 205260, Note_on_c, 1, 52, 127
1, 205319, Note_off_c, 1, 67, 0
1, 205319, Note_off_c, 1, 72, 0
1, 205319, Note_off_c, 1, 64, 0
1, 205319, Note_off_c, 1, 52, 0
1, 205320, Note_on_c, 1, 74, 127
1, 205320, Note_on_c, 1, 69, 127
1, 205320, Note_on_c, 1, 57, 127
1, 205320, Note_on_c, 1, 54, 127
1, 205439, Note_off_c, 1, 69, 0
1, 205439, Note_off_c, 1, 57, 0
1, 205439, Note_off_c, 1, 54, 0
1, 205440, Note_on_c, 1, 64, 127
1, 205440, Note_on_c, 1, 59, 127
1, 205440, Note_on_c, 1, 56, 127
1, 205499, Note_off_c, 1, 74, 0
1, 205499, Note_off_c, 1, 64, 0
1, 205499, Note_off_c, 1, 59, 0
1, 205499, Note_off_c, 1, 56, 0
1, 205500, Note_on_c, 1, 72, 127
1, 205500, Note_on_c, 1, 64, 127
1, 205500, Note_on_c, 1, 60, 127
1, 205500, Note_on_c, 1, 57, 127
1, 205589, Note_off_c, 1, 64, 0
1, 205589, Note_off_c, 1, 60, 0
1, 205590, Note_on_c, 1, 67, 127
1, 205619, Note_off_c, 1, 67, 0
1, 205620, Note_on_c, 1, 66, 127
1, 205620, Note_on_c, 1, 63, 127
1, 205620, Note_on_c, 1, 45, 127
1, 205679, Note_off_c, 1, 72, 0
1, 205679, Note_off_c, 1, 57, 0
1, 205679, Note_off_c, 1, 66, 0
1, 205679, Note_off_c, 1, 63, 0
1, 205679, Note_off_c, 1, 45, 0
1, 205680, Note_on_c, 1, 79, 127
1, 205680, Note_on_c, 1, 71, 127
1, 205680, Note_on_c, 1, 64, 127
1, 205680, Note_on_c, 1, 67, 127
1, 205680, Note_on_c, 1, 52, 127
1, 205799, Note_off_c, 1, 79, 0
1, 205800, Note_on_c, 1, 78, 127
1, 205800, Note_on_c, 1, 75, 127
1, 205800, Note_on_c, 1, 66, 127
1, 205859, Note_off_c, 1, 71, 0
1, 205859, Note_off_c, 1, 67, 0
1, 205859, Note_off_c, 1, 52, 0
1, 205859, Note_off_c, 1, 78, 0
1, 205859, Note_off_c, 1, 75, 0
1, 205859, Note_off_c, 1, 66, 0
1, 205980, Note_on_c, 1, 76, 127
1, 206039, Note_off_c, 1, 76, 0
1, 206130, Note_on_c, 1, 84, 127
1, 206130, Note_on_c, 1, 72, 127
1, 206159, Note_off_c, 1, 84, 0
1, 206159, Note_off_c, 1, 72, 0
1, 206160, Note_on_c, 1, 83, 127
1, 206309, Note_off_c, 1, 83, 0
1, 206340, Note_on_c, 1, 81, 127
1, 206340, Note_on_c, 1, 63, 127
1, 206399, Note_off_c, 1, 81, 0
1, 206399, Note_off_c, 1, 63, 0
1, 206700, Note_on_c, 1, 69, 127
1, 206759, Note_off_c, 1, 69, 0
1, 207030, Note_on_c, 1, 50, 127
1, 207059, Note_off_c, 1, 50, 0
1, 207119, Note_off_c, 1, 64, 0
1, 207120, Note_on_c, 1, 76, 127
1, 207120, Note_on_c, 1, 67, 127
1, 207120, Note_on_c, 1, 64, 127
1, 207120, Note_on_c, 1, 48, 127
1, 207210, Note_on_c, 1, 52, 127
1, 207239, Note_off_c, 1, 64, 0
1, 207239, Note_off_c, 1, 48, 0
1, 207239, Note_off_c, 1, 52, 0
1, 207240, Note_on_c, 1, 62, 127
1, 207240, Note_on_c, 1, 50, 127
1, 207240, Note_on_c, 1, 55, 127
1, 207299, Note_off_c, 1, 76, 0
1, 207299, Note_off_c, 1, 67, 0
1, 207299, Note_off_c, 1, 62, 0
1, 207299, Note_off_c, 1, 50, 0
1, 207299, Note_off_c, 1, 55, 0
1, 207300, Note_on_c, 1, 76, 127
1, 207300, Note_on_c, 1, 67, 127
1, 207300, Note_on_c, 1, 60, 127
1, 207300, Note_on_c, 1, 52, 127
1, 207300, Note_on_c, 1, 55, 127
1, 207389, Note_off_c, 1, 55, 0
1, 207390, Note_on_c, 1, 54, 127
1, 207419, Note_off_c, 1, 67, 0
1, 207419, Note_off_c, 1, 52, 0
1, 207419, Note_off_c, 1, 54, 0
1, 207420, Note_on_c, 1, 69, 127
1, 207420, Note_on_c, 1, 48, 127
1, 207479, Note_off_c, 1, 76, 0
1, 207479, Note_off_c, 1, 60, 0
1, 207479, Note_off_c, 1, 69, 0
1, 207479, Note_off_c, 1, 48, 0
1, 207480, Note_on_c, 1, 74, 127
1, 207480, Note_on_c, 1, 71, 127
1, 207480, Note_on_c, 1, 59, 127
1, 207480, Note_on_c, 1, 55, 127
1, 207480, Note_on_c, 1, 43, 127
1, 207569, Note_off_c, 1, 43, 0
1, 207570, Note_on_c, 1, 47, 127
1, 207599, Note_off_c, 1, 74, 0
1, 207599, Note_off_c, 1, 71, 0
1, 207599, Note_off_c, 1, 59, 0
1, 207599, Note_off_c, 1, 47, 0
1, 207600, Note_on_c, 1, 76, 127
1, 207600, Note_on_c, 1, 69, 127
1, 207600, Note_on_c, 1, 61, 127
1, 207600, Note_on_c, 1, 50, 127
1, 207659, Note_off_c, 1, 55, 0
1, 207659, Note_off_c, 1, 76, 0
1, 207659, Note_off_c, 1, 69, 0
1, 207659, Note_off_c, 1, 61, 0
1, 207659, Note_off_c, 1, 50, 0
1, 207660, Note_on_c, 1, 78, 127
1, 207660, Note_on_c, 1, 69, 127
1, 207660, Note_on_c, 1, 62, 127
1, 207660, Note_on_c, 1, 54, 127
1, 207660, Note_on_c, 1, 50, 127
1, 207749, Note_off_c, 1, 50, 0
1, 207750, Note_on_c, 1, 49, 127
1, 207779, Note_off_c, 1, 69, 0
1, 207779, Note_off_c, 1, 54, 0
1, 207779, Note_off_c, 1, 49, 0
1, 207780, Note_on_c, 1, 71, 127
1, 207780, Note_on_c, 1, 59, 127
1, 207839, Note_off_c, 1, 78, 0
1, 207839, Note_off_c, 1, 62, 0
1, 207839, Note_off_c, 1, 71, 0
1, 207839, Note_off_c, 1, 59, 0
1, 207840, Note_on_c, 1, 79, 127
1, 207840, Note_on_c, 1, 71, 127
1, 207840, Note_on_c, 1, 55, 127
1, 207840, Note_on_c, 1, 52, 127
1, 207840, Note_on_c, 1, 40, 127
1, 207929, Note_off_c, 1, 40, 0
1, 207930, Note_on_c, 1, 49, 127
1, 207959, Note_off_c, 1, 79, 0
1, 207959, Note_off_c, 1, 71, 0
1, 207959, Note_off_c, 1, 55, 0
1, 207959, Note_off_c, 1, 52, 0
1, 207959, Note_off_c, 1, 49, 0
1, 207960, Note_on_c, 1, 78, 127
1, 207960, Note_on_c, 1, 69, 127
1, 207960, Note_on_c, 1, 62, 127
1, 207960, Note_on_c, 1, 54, 127
1, 207960, Note_on_c, 1, 50, 127
1, 208019, Note_off_c, 1, 78, 0
1, 208019, Note_off_c, 1, 69, 0
1, 208019, Note_off_c, 1, 62, 0
1, 208019, Note_off_c, 1, 54, 0
1, 208019, Note_off_c, 1, 50, 0
1, 208020, Note_on_c, 1, 76, 127
1, 208020, Note_on_c, 1, 71, 127
1, 208020, Note_on_c, 1, 62, 127
1, 208020, Note_on_c, 1, 55, 127
1, 208020, Note_on_c, 1, 43, 127
1, 208109, Note_off_c, 1, 43, 0
1, 208110, Note_on_c, 1, 40, 127
1, 208139, Note_off_c, 1, 71, 0
1, 208139, Note_off_c, 1, 62, 0
1, 208139, Note_off_c, 1, 55, 0
1, 208139, Note_off_c, 1, 40, 0
1, 208140, Note_on_c, 1, 69, 127
1, 208140, Note_on_c, 1, 61, 127
1, 208140, Note_on_c, 1, 57, 127
1, 208140, Note_on_c, 1, 45, 127
1, 208199, Note_off_c, 1, 76, 0
1, 208199, Note_off_c, 1, 69, 0
1, 208199, Note_off_c, 1, 61, 0
1, 208199, Note_off_c, 1, 57, 0
1, 208199, Note_off_c, 1, 45, 0
1, 208200, Note_on_c, 1, 78, 127
1, 208200, Note_on_c, 1, 81, 127
1, 208200, Note_on_c, 1, 66, 127
1, 208200, Note_on_c, 1, 69, 127
1, 208200, Note_on_c, 1, 62, 127
1, 208200, Note_on_c, 1, 74, 127
1, 208200, Note_on_c, 1, 50, 127
1, 208200, Note_on_c, 1, 38, 127
1, 208319, Note_off_c, 1, 78, 0
1, 208319, Note_off_c, 1, 81, 0
1, 208320, Note_on_c, 1, 76, 127
1, 208320, Note_on_c, 1, 79, 127
1, 208320, Note_on_c, 1, 64, 127
1, 208320, Note_on_c, 1, 73, 127
1, 208379, Note_off_c, 1, 66, 0
1, 208379, Note_off_c, 1, 69, 0
1, 208379, Note_off_c, 1, 74, 0
1, 208379, Note_off_c, 1, 50, 0
1, 208379, Note_off_c, 1, 38, 0
1, 208379, Note_off_c, 1, 76, 0
1, 208379, Note_off_c, 1, 79, 0
1, 208379, Note_off_c, 1, 64, 0
1, 208379, Note_off_c, 1, 73, 0
1, 208650, Note_on_c, 1, 83, 127
1, 208650, Note_on_c, 1, 71, 127
1, 208679, Note_off_c, 1, 83, 0
1, 208679, Note_off_c, 1, 71, 0
1, 208680, Note_on_c, 1, 67, 127
1, 208739, Note_off_c, 1, 67, 0
1, 208860, Note_on_c, 1, 61, 127
1, 208919, Note_off_c, 1, 61, 0
1, 209460, Note_off_c, 1, 62, 0
1, 209460, Note_on_c, 1, 52, 127
1, 209550, Note_on_c, 1, 54, 127
1, 209579, Note_off_c, 1, 52, 0
1, 209579, Note_off_c, 1, 54, 0
1, 209580, Note_on_c, 1, 55, 127
1, 209639, Note_off_c, 1, 55, 0
1, 209640, Note_on_c, 1, 78, 127
1, 209640, Note_on_c, 1, 72, 127
1, 209640, Note_on_c, 1, 64, 127
1, 209640, Note_on_c, 1, 57, 127
1, 209730, Note_on_c, 1, 54, 127
1, 209759, Note_off_c, 1, 72, 0
1, 209759, Note_off_c, 1, 64, 0
1, 209759, Note_off_c, 1, 57, 0
1, 209759, Note_off_c, 1, 54, 0
1, 209760, Note_on_c, 1, 71, 127
1, 209760, Note_on_c, 1, 62, 127
1, 209760, Note_on_c, 1, 59, 127
1, 209819, Note_off_c, 1, 78, 0
1, 209819, Note_off_c, 1, 71, 0
1, 209819, Note_off_c, 1, 62, 0
1, 209819, Note_off_c, 1, 59, 0
1, 209820, Note_on_c, 1, 76, 127
1, 209820, Note_on_c, 1, 71, 127
1, 209820, Note_on_c, 1, 62, 127
1, 209820, Note_on_c, 1, 55, 127
1, 209910, Note_on_c, 1, 52, 127
1, 209939, Note_off_c, 1, 71, 0
1, 209939, Note_off_c, 1, 62, 0
1, 209939, Note_off_c, 1, 55, 0
1, 209939, Note_off_c, 1, 52, 0
1, 209940, Note_on_c, 1, 69, 127
1, 209940, Note_on_c, 1, 60, 127
1, 209940, Note_on_c, 1, 57, 127
1, 209999, Note_off_c, 1, 76, 0
1, 209999, Note_off_c, 1, 69, 0
1, 209999, Note_off_c, 1, 60, 0
1, 209999, Note_off_c, 1, 57, 0
1, 210000, Note_on_c, 1, 74, 127
1, 210000, Note_on_c, 1, 69, 127
1, 210000, Note_on_c, 1, 60, 127
1, 210000, Note_on_c, 1, 54, 127
1, 210090, Note_on_c, 1, 50, 127
1, 210119, Note_off_c, 1, 69, 0
1, 210119, Note_off_c, 1, 60, 0
1, 210119, Note_off_c, 1, 54, 0
1, 210119, Note_off_c, 1, 50, 0
1, 210120, Note_on_c, 1, 67, 127
1, 210120, Note_on_c, 1, 59, 127
1, 210120, Note_on_c, 1, 55, 127
1, 210179, Note_off_c, 1, 74, 0
1, 210179, Note_off_c, 1, 67, 0
1, 210179, Note_off_c, 1, 59, 0
1, 210179, Note_off_c, 1, 55, 0
1, 210180, Note_on_c, 1, 76, 127
1, 210180, Note_on_c, 1, 67, 127
1, 210180, Note_on_c, 1, 60, 127
1, 210180, Note_on_c, 1, 48, 127
1, 210270, Note_on_c, 1, 52, 127
1, 210299, Note_off_c, 1, 76, 0
1, 210299, Note_off_c, 1, 67, 0
1, 210299, Note_off_c, 1, 60, 0
1, 210299, Note_off_c, 1, 48, 0
1, 210299, Note_off_c, 1, 52, 0
1, 210300, Note_on_c, 1, 74, 127
1, 210300, Note_on_c, 1, 67, 127
1, 210300, Note_on_c, 1, 59, 127
1, 210300, Note_on_c, 1, 50, 127
1, 210300, Note_on_c, 1, 55, 127
1, 210359, Note_off_c, 1, 74, 0
1, 210359, Note_off_c, 1, 67, 0
1, 210359, Note_off_c, 1, 59, 0
1, 210359, Note_off_c, 1, 50, 0
1, 210359, Note_off_c, 1, 55, 0
1, 210360, Note_on_c, 1, 72, 127
1, 210360, Note_on_c, 1, 67, 127
1, 210360, Note_on_c, 1, 60, 127
1, 210360, Note_on_c, 1, 52, 127
1, 210360, Note_on_c, 1, 55, 127
1, 210449, Note_off_c, 1, 55, 0
1, 210450, Note_on_c, 1, 54, 127
1, 210479, Note_off_c, 1, 72, 0
1, 210479, Note_off_c, 1, 67, 0
1, 210479, Note_off_c, 1, 60, 0
1, 210479, Note_off_c, 1, 52, 0
1, 210479, Note_off_c, 1, 54, 0
1, 210480, Note_on_c, 1, 71, 127
1, 210480, Note_on_c, 1, 67, 127
1, 210480, Note_on_c, 1, 62, 127
1, 210480, Note_on_c, 1, 50, 127
1, 210480, Note_on_c, 1, 55, 127
1, 210539, Note_off_c, 1, 71, 0
1, 210539, Note_off_c, 1, 67, 0
1, 210539, Note_off_c, 1, 62, 0
1, 210539, Note_off_c, 1, 50, 0
1, 210539, Note_off_c, 1, 55, 0
1, 210540, Note_on_c, 1, 69, 127
1, 210540, Note_on_c, 1, 67, 127
1, 210540, Note_on_c, 1, 64, 127
1, 210540, Note_on_c, 1, 48, 127
1, 210630, Note_on_c, 1, 45, 127
1, 210659, Note_off_c, 1, 67, 0
1, 210659, Note_off_c, 1, 64, 0
1, 210659, Note_off_c, 1, 48, 0
1, 210659, Note_off_c, 1, 45, 0
1, 210660, Note_on_c, 1, 66, 127
1, 210660, Note_on_c, 1, 62, 127
1, 210660, Note_on_c, 1, 50, 127
1, 210719, Note_off_c, 1, 69, 0
1, 210719, Note_off_c, 1, 66, 0
1, 210719, Note_off_c, 1, 62, 0
1, 210719, Note_off_c, 1, 50, 0
1, 210720, Note_on_c, 1, 83, 127
1, 210720, Note_on_c, 1, 71, 127
1, 210720, Note_on_c, 1, 67, 127
1, 210720, Note_on_c, 1, 62, 127
1, 210720, Note_on_c, 1, 55, 127
1, 210720, Note_on_c, 1, 59, 127
1, 210720, Note_on_c, 1, 43, 127
1, 210839, Note_off_c, 1, 83, 0
1, 210839, Note_off_c, 1, 71, 0
1, 210840, Note_on_c, 1, 81, 127
1, 210840, Note_on_c, 1, 69, 127
1, 210840, Note_on_c, 1, 66, 127
1, 210840, Note_on_c, 1, 60, 127
1, 210899, Note_off_c, 1, 67, 0
1, 210899, Note_off_c, 1, 62, 0
1, 210899, Note_off_c, 1, 59, 0
1, 210899, Note_off_c, 1, 81, 0
1, 210899, Note_off_c, 1, 69, 0
1, 210899, Note_off_c, 1, 66, 0
1, 210899, Note_off_c, 1, 60, 0
1, 210900, Note_off_c, 1, 43, 0
1, 211020, Note_on_c, 1, 79, 127
1, 211079, Note_off_c, 1, 79, 0
1, 211170, Note_on_c, 1, 88, 127
1, 211170, Note_on_c, 1, 76, 127
1, 211199, Note_off_c, 1, 88, 0
1, 211199, Note_off_c, 1, 76, 0
1, 211200, Note_on_c, 1, 86, 127
1, 211200, Note_on_c, 1, 74, 127
1, 211349, Note_off_c, 1, 86, 0
1, 211349, Note_off_c, 1, 74, 0
1, 211380, Note_on_c, 1, 78, 127
1, 211380, Note_on_c, 1, 57, 127
1, 211439, Note_off_c, 1, 78, 0
1, 211439, Note_off_c, 1, 57, 0
1, 211980, Note_off_c, 1, 55, 0
1, 211980, End_track
0, 0, End_of_file