0, 0, Header, 1, 1, 480
1, 0, Start_track
1, 0, Title_t, "Test"
1, 0, Tempo, 500000
1, 0, Instrument_name_t, "Church Organ"
1, 0, Note_on_c, 1, 50, 127
1, 0, Note_on_c, 1, 86, 127
1, 0, Note_on_c, 1, 69, 127
1, 0, Note_on_c, 1, 66, 127
1, 0, Note_on_c, 1, 81, 127
1, 0, Note_on_c, 1, 78, 127
1, 0, Note_on_c, 1, 74, 127
1, 0, Note_on_c, 1, 62, 127
1, 20, Note_off_c, 1, 69, 0
1, 40, Note_off_c, 1, 81, 0
1, 40, Note_off_c, 1, 78, 0
1, 40, Note_off_c, 1, 62, 0
1, 50, Note_off_c, 1, 74, 0
1, 60, Note_on_c, 1, 57, 127
1, 60, Note_on_c, 1, 73, 127
1, 60, Note_on_c, 1, 38, 127
1, 80, Note_off_c, 1, 73, 0
1, 90, Note_on_c, 1, 71, 127
1, 90, Note_on_c, 1, 67, 127
1, 100, Note_off_c, 1, 50, 0
1, 100, Note_off_c, 1, 66, 0
1, 100, Note_off_c, 1, 57, 0
1, 100, Note_off_c, 1, 38, 0
1, 110, Note_off_c, 1, 71, 0
1, 110, Note_off_c, 1, 67, 0
1, 150, Note_on_c, 1, 64, 127
1, 170, Note_off_c, 1, 64, 0
1, 360, Note_on_c, 1, 59, 127
1, 360, Note_on_c, 1, 47, 127
1, 400, Note_off_c, 1, 59, 0
1, 400, Note_off_c, 1, 47, 0
1, 420, Note_on_c, 1, 35, 127
1, 460, Note_off_c, 1, 35, 0
1, 720, Note_on_c, 1, 54, 127
1, 720, Note_on_c, 1, 42, 127
1, 760, Note_off_c, 1, 54, 0
1, 760, Note_off_c, 1, 42, 0
1, 780, Note_on_c, 1, 30, 127
1, 820, Note_off_c, 1, 30, 0
1, 897, Note_off_c, 1, 86, 0
1, 900, Note_on_c, 1, 81, 127
1, 900, Note_on_c, 1, 78, 127
1, 900, Note_on_c, 1, 74, 127
1, 900, Note_on_c, 1, 50, 127
1, 900, Note_on_c, 1, 85, 127
1, 900, Note_on_c, 1, 76, 127
1, 900, Note_on_c, 1, 67, 127
1, 900, Note_on_c, 1, 69, 127
1, 900, Note_on_c, 1, 62, 127
1, 900, Note_on_c, 1, 54, 127
1, 900, Note_on_c, 1, 42, 127
1, 920, Note_off_c, 1, 76, 0
1, 920, Note_off_c, 1, 67, 0
1, 920, Note_off_c, 1, 54, 0
1, 920, Note_off_c, 1, 42, 0
1, 927, Note_off_c, 1, 85, 0
1, 930, Note_on_c, 1, 83, 127
1, 930, Note_on_c, 1, 66, 127
1, 930, Note_on_c, 1, 71, 127
1, 930, Note_on_c, 1, 55, 127
1, 930, Note_on_c, 1, 43, 127
1, 940, Note_off_c, 1, 81, 0
1, 940, Note_off_c, 1, 78, 0
1, 940, Note_off_c, 1, 50, 0
1, 940, Note_off_c, 1, 69, 0
1, 940, Note_off_c, 1, 62, 0
1, 950, Note_off_c, 1, 74, 0
1, 950, Note_off_c, 1, 66, 0
1, 950, Note_off_c, 1, 71, 0
1, 950, Note_off_c, 1, 55, 0
1, 950, Note_off_c, 1, 43, 0
1, 957, Note_off_c, 1, 83, 0
1, 960, Note_on_c, 1, 81, 127
1, 960, Note_on_c, 1, 76, 127
1, 960, Note_on_c, 1, 45, 127
1, 960, Note_on_c, 1, 73, 127
1, 960, Note_on_c, 1, 64, 127
1, 960, Note_on_c, 1, 69, 127
1, 960, Note_on_c, 1, 57, 127
1, 980, Note_off_c, 1, 76, 0
1, 980, Note_off_c, 1, 73, 0
1, 987, Note_off_c, 1, 81, 0
1, 990, Note_on_c, 1, 79, 127
1, 990, Note_on_c, 1, 74, 127
1, 990, Note_on_c, 1, 83, 127
1, 1000, Note_off_c, 1, 45, 0
1, 1000, Note_off_c, 1, 64, 0
1, 1000, Note_off_c, 1, 69, 0
1, 1000, Note_off_c, 1, 57, 0
1, 1010, Note_off_c, 1, 79, 0
1, 1010, Note_off_c, 1, 74, 0
1, 1017, Note_off_c, 1, 83, 0
1, 1020, Note_on_c, 1, 78, 127
1, 1020, Note_on_c, 1, 76, 127
1, 1020, Note_on_c, 1, 69, 127
1, 1020, Note_on_c, 1, 45, 127
1, 1020, Note_on_c, 1, 81, 127
1, 1020, Note_on_c, 1, 71, 127
1, 1020, Note_on_c, 1, 64, 127
1, 1020, Note_on_c, 1, 33, 127
1, 1040, Note_off_c, 1, 78, 0
1, 1040, Note_off_c, 1, 71, 0
1, 1047, Note_off_c, 1, 81, 0
1, 1050, Note_on_c, 1, 79, 127
1, 1050, Note_on_c, 1, 73, 127
1, 1060, Note_off_c, 1, 69, 0
1, 1060, Note_off_c, 1, 45, 0
1, 1060, Note_off_c, 1, 64, 0
1, 1060, Note_off_c, 1, 33, 0
1, 1070, Note_off_c, 1, 76, 0
1, 1070, Note_off_c, 1, 73, 0
1, 1077, Note_off_c, 1, 79, 0
1, 1080, Note_on_c, 1, 78, 127
1, 1080, Note_on_c, 1, 74, 127
1, 1080, Note_on_c, 1, 69, 127
1, 1080, Note_on_c, 1, 50, 127
1, 1080, Note_on_c, 1, 62, 127
1, 1080, Note_on_c, 1, 38, 127
1, 1107, Note_off_c, 1, 78, 0
1, 1110, Note_on_c, 1, 76, 127
1, 1110, Note_on_c, 1, 79, 127
1, 1120, Note_off_c, 1, 74, 0
1, 1120, Note_off_c, 1, 69, 0
1, 1120, Note_off_c, 1, 62, 0
1, 1120, Note_off_c, 1, 38, 0
1, 1130, Note_off_c, 1, 76, 0
1, 1137, Note_off_c, 1, 79, 0
1, 1140, Note_on_c, 1, 66, 127
1, 1140, Note_on_c, 1, 57, 127
1, 1160, Note_off_c, 1, 50, 0
1, 1170, Note_on_c, 1, 61, 127
1, 1170, Note_on_c, 1, 49, 127
1, 1180, Note_off_c, 1, 66, 0
1, 1180, Note_off_c, 1, 57, 0
1, 1190, Note_off_c, 1, 61, 0
1, 1190, Note_off_c, 1, 49, 0
1, 1200, Note_on_c, 1, 78, 127
1, 1200, Note_on_c, 1, 74, 127
1, 1200, Note_on_c, 1, 69, 127
1, 1200, Note_on_c, 1, 66, 127
1, 1200, Note_on_c, 1, 59, 127
1, 1200, Note_on_c, 1, 47, 127
1, 1220, Note_off_c, 1, 78, 0
1, 1230, Note_on_c, 1, 79, 127
1, 1230, Note_on_c, 1, 76, 127
1, 1230, Note_on_c, 1, 86, 127
1, 1240, Note_off_c, 1, 74, 0
1, 1240, Note_off_c, 1, 69, 0
1, 1240, Note_off_c, 1, 66, 0
1, 1240, Note_off_c, 1, 59, 0
1, 1240, Note_off_c, 1, 47, 0
1, 1250, Note_off_c, 1, 79, 0
1, 1250, Note_off_c, 1, 76, 0
1, 1257, Note_off_c, 1, 86, 0
1, 1260, Note_on_c, 1, 81, 127
1, 1260, Note_on_c, 1, 78, 127
1, 1260, Note_on_c, 1, 74, 127
1, 1260, Note_on_c, 1, 50, 127
1, 1260, Note_on_c, 1, 85, 127
1, 1260, Note_on_c, 1, 69, 127
1, 1260, Note_on_c, 1, 57, 127
1, 1260, Note_on_c, 1, 45, 127
1, 1280, Note_off_c, 1, 57, 0
1, 1280, Note_off_c, 1, 45, 0
1, 1287, Note_off_c, 1, 85, 0
1, 1290, Note_on_c, 1, 83, 127
1, 1290, Note_on_c, 1, 55, 127
1, 1290, Note_on_c, 1, 43, 127
1, 1300, Note_off_c, 1, 81, 0
1, 1300, Note_off_c, 1, 78, 0
1, 1300, Note_off_c, 1, 74, 0
1, 1300, Note_off_c, 1, 50, 0
1, 1300, Note_off_c, 1, 69, 0
1, 1310, Note_off_c, 1, 55, 0
1, 1310, Note_off_c, 1, 43, 0
1, 1317, Note_off_c, 1, 83, 0
1, 1320, Note_on_c, 1, 81, 127
1, 1320, Note_on_c, 1, 76, 127
1, 1320, Note_on_c, 1, 45, 127
1, 1320, Note_on_c, 1, 69, 127
1, 1320, Note_on_c, 1, 73, 127
1, 1320, Note_on_c, 1, 64, 127
1, 1320, Note_on_c, 1, 57, 127
1, 1340, Note_off_c, 1, 76, 0
1, 1347, Note_off_c, 1, 81, 0
1, 1350, Note_on_c, 1, 79, 127
1, 1350, Note_on_c, 1, 74, 127
1, 1350, Note_on_c, 1, 83, 127
1, 1360, Note_off_c, 1, 45, 0
1, 1360, Note_off_c, 1, 69, 0
1, 1360, Note_off_c, 1, 73, 0
1, 1360, Note_off_c, 1, 64, 0
1, 1360, Note_off_c, 1, 57, 0
1, 1370, Note_off_c, 1, 79, 0
1, 1370, Note_off_c, 1, 74, 0
1, 1377, Note_off_c, 1, 83, 0
1, 1380, Note_on_c, 1, 78, 127
1, 1380, Note_on_c, 1, 76, 127
1, 1380, Note_on_c, 1, 69, 127
1, 1380, Note_on_c, 1, 45, 127
1, 1380, Note_on_c, 1, 81, 127
1, 1380, Note_on_c, 1, 73, 127
1, 1380, Note_on_c, 1, 61, 127
1, 1380, Note_on_c, 1, 33, 127
1, 1400, Note_off_c, 1, 78, 0
1, 1407, Note_off_c, 1, 81, 0
1, 1410, Note_on_c, 1, 79, 127
1, 1420, Note_off_c, 1, 69, 0
1, 1420, Note_off_c, 1, 45, 0
1, 1420, Note_off_c, 1, 73, 0
1, 1420, Note_off_c, 1, 61, 0
1, 1420, Note_off_c, 1, 33, 0
1, 1430, Note_off_c, 1, 76, 0
1, 1437, Note_off_c, 1, 79, 0
1, 1440, Note_on_c, 1, 78, 127
1, 1440, Note_on_c, 1, 74, 127
1, 1440, Note_on_c, 1, 69, 127
1, 1440, Note_on_c, 1, 50, 127
1, 1440, Note_on_c, 1, 57, 127
1, 1440, Note_on_c, 1, 38, 127
1, 1470, Note_on_c, 1, 79, 127
1, 1470, Note_on_c, 1, 71, 127
1, 1480, Note_off_c, 1, 57, 0
1, 1480, Note_off_c, 1, 38, 0
1, 1490, Note_off_c, 1, 71, 0
1, 1497, Note_off_c, 1, 79, 0
1, 1500, Note_on_c, 1, 66, 127
1, 1500, Note_on_c, 1, 62, 127
1, 1500, Note_on_c, 1, 54, 127
1, 1500, Note_on_c, 1, 42, 127
1, 1520, Note_off_c, 1, 74, 0
1, 1520, Note_off_c, 1, 50, 0
1, 1530, Note_on_c, 1, 76, 127
1, 1530, Note_on_c, 1, 67, 127
1, 1540, Note_off_c, 1, 69, 0
1, 1540, Note_off_c, 1, 66, 0
1, 1540, Note_off_c, 1, 62, 0
1, 1540, Note_off_c, 1, 54, 0
1, 1540, Note_off_c, 1, 42, 0
1, 1550, Note_off_c, 1, 67, 0
1, 1557, Note_off_c, 1, 76, 0
1, 1560, Note_on_c, 1, 45, 127
1, 1600, Note_off_c, 1, 45, 0
1, 1650, Note_on_c, 1, 64, 127
1, 1670, Note_off_c, 1, 64, 0
1, 1770, Note_on_c, 1, 73, 127
1, 1797, Note_off_c, 1, 78, 0
1, 1797, Note_off_c, 1, 73, 0
1, 1800, Note_on_c, 1, 68, 127
1, 1800, Note_on_c, 1, 56, 127
1, 1800, Note_on_c, 1, 44, 127
1, 1840, Note_off_c, 1, 68, 0
1, 1840, Note_off_c, 1, 56, 0
1, 1840, Note_off_c, 1, 44, 0
1, 1860, Note_on_c, 1, 52, 127
1, 1860, Note_on_c, 1, 40, 127
1, 1900, Note_off_c, 1, 52, 0
1, 1900, Note_off_c, 1, 40, 0
1, 1980, Note_on_c, 1, 61, 127
1, 1980, Note_on_c, 1, 49, 127
1, 2020, Note_off_c, 1, 61, 0
1, 2020, Note_off_c, 1, 49, 0
1, 2220, Note_on_c, 1, 81, 127
1, 2240, Note_off_c, 1, 81, 0
1, 2250, Note_on_c, 1, 83, 127
1, 2270, Note_off_c, 1, 83, 0
1, 2370, Note_on_c, 1, 55, 127
1, 2370, Note_on_c, 1, 43, 127
1, 2390, Note_off_c, 1, 55, 0
1, 2390, Note_off_c, 1, 43, 0
1, 2490, Note_on_c, 1, 37, 127
1, 2510, Note_off_c, 1, 37, 0
1, 2520, Note_on_c, 1, 47, 127
1, 2520, Note_on_c, 1, 35, 127
1, 2560, Note_off_c, 1, 47, 0
1, 2560, Note_off_c, 1, 35, 0
1, 2580, Note_on_c, 1, 59, 127
1, 2620, Note_off_c, 1, 59, 0
1, 2790, Note_on_c, 1, 33, 127
1, 2810, Note_off_c, 1, 33, 0
1, 2820, Note_on_c, 1, 32, 127
1, 2840, Note_off_c, 1, 32, 0
1, 2850, Note_on_c, 1, 30, 127
1, 2870, Note_off_c, 1, 30, 0
1, 2880, Note_on_c, 1, 28, 127
1, 2920, Note_off_c, 1, 28, 0
1, 3000, Note_on_c, 1, 78, 127
1, 3000, Note_on_c, 1, 74, 127
1, 3000, Note_on_c, 1, 71, 127
1, 3000, Note_on_c, 1, 47, 127
1, 3000, Note_on_c, 1, 35, 127
1, 3020, Note_off_c, 1, 74, 0
1, 3027, Note_off_c, 1, 78, 0
1, 3030, Note_on_c, 1, 80, 127
1, 3030, Note_on_c, 1, 73, 127
1, 3040, Note_off_c, 1, 71, 0
1, 3040, Note_off_c, 1, 47, 0
1, 3040, Note_off_c, 1, 35, 0
1, 3050, Note_off_c, 1, 73, 0
1, 3057, Note_off_c, 1, 80, 0
1, 3060, Note_on_c, 1, 76, 127
1, 3060, Note_on_c, 1, 71, 127
1, 3060, Note_on_c, 1, 74, 127
1, 3060, Note_on_c, 1, 68, 127
1, 3060, Note_on_c, 1, 44, 127
1, 3060, Note_on_c, 1, 32, 127
1, 3087, Note_off_c, 1, 76, 0
1, 3090, Note_on_c, 1, 78, 127
1, 3090, Note_on_c, 1, 69, 127
1, 3100, Note_off_c, 1, 71, 0
1, 3100, Note_off_c, 1, 74, 0
1, 3100, Note_off_c, 1, 68, 0
1, 3100, Note_off_c, 1, 44, 0
1, 3100, Note_off_c, 1, 32, 0
1, 3110, Note_off_c, 1, 69, 0
1, 3117, Note_off_c, 1, 78, 0
1, 3120, Note_on_c, 1, 80, 127
1, 3120, Note_on_c, 1, 76, 127
1, 3120, Note_on_c, 1, 74, 127
1, 3120, Note_on_c, 1, 71, 127
1, 3120, Note_on_c, 1, 68, 127
1, 3120, Note_on_c, 1, 40, 127
1, 3120, Note_on_c, 1, 28, 127
1, 3147, Note_off_c, 1, 80, 0
1, 3150, Note_on_c, 1, 81, 127
1, 3160, Note_off_c, 1, 74, 0
1, 3160, Note_off_c, 1, 71, 0
1, 3160, Note_off_c, 1, 68, 0
1, 3160, Note_off_c, 1, 40, 0
1, 3160, Note_off_c, 1, 28, 0
1, 3177, Note_off_c, 1, 81, 0
1, 3180, Note_on_c, 1, 78, 127
1, 3180, Note_on_c, 1, 73, 127
1, 3180, Note_on_c, 1, 69, 127
1, 3180, Note_on_c, 1, 64, 127
1, 3180, Note_on_c, 1, 50, 127
1, 3180, Note_on_c, 1, 38, 127
1, 3200, Note_off_c, 1, 73, 0
1, 3200, Note_off_c, 1, 69, 0
1, 3207, Note_off_c, 1, 78, 0
1, 3220, Note_off_c, 1, 64, 0
1, 3220, Note_off_c, 1, 50, 0
1, 3220, Note_off_c, 1, 38, 0
1, 3240, Note_on_c, 1, 49, 127
1, 3240, Note_on_c, 1, 37, 127
1, 3280, Note_off_c, 1, 49, 0
1, 3280, Note_off_c, 1, 37, 0
1, 3300, Note_on_c, 1, 57, 127
1, 3300, Note_on_c, 1, 45, 127
1, 3320, Note_off_c, 1, 76, 0
1, 3340, Note_off_c, 1, 57, 0
1, 3340, Note_off_c, 1, 45, 0
1, 3360, Note_on_c, 1, 81, 127
1, 3360, Note_on_c, 1, 74, 127
1, 3360, Note_on_c, 1, 76, 127
1, 3360, Note_on_c, 1, 73, 127
1, 3360, Note_on_c, 1, 52, 127
1, 3360, Note_on_c, 1, 40, 127
1, 3380, Note_off_c, 1, 74, 0
1, 3387, Note_off_c, 1, 81, 0
1, 3390, Note_on_c, 1, 83, 127
1, 3400, Note_off_c, 1, 76, 0
1, 3400, Note_off_c, 1, 52, 0
1, 3400, Note_off_c, 1, 40, 0
1, 3410, Note_off_c, 1, 73, 0
1, 3417, Note_off_c, 1, 83, 0
1, 3420, Note_on_c, 1, 81, 127
1, 3420, Note_on_c, 1, 71, 127
1, 3420, Note_on_c, 1, 79, 127
1, 3420, Note_on_c, 1, 76, 127
1, 3420, Note_on_c, 1, 61, 127
1, 3420, Note_on_c, 1, 64, 127
1, 3420, Note_on_c, 1, 49, 127
1, 3420, Note_on_c, 1, 37, 127
1, 3440, Note_off_c, 1, 71, 0
1, 3447, Note_off_c, 1, 81, 0
1, 3450, Note_on_c, 1, 83, 127
1, 3450, Note_on_c, 1, 69, 127
1, 3460, Note_off_c, 1, 79, 0
1, 3460, Note_off_c, 1, 76, 0
1, 3460, Note_off_c, 1, 61, 0
1, 3460, Note_off_c, 1, 64, 0
1, 3460, Note_off_c, 1, 49, 0
1, 3460, Note_off_c, 1, 37, 0
1, 3470, Note_off_c, 1, 69, 0
1, 3477, Note_off_c, 1, 83, 0
1, 3480, Note_on_c, 1, 85, 127
1, 3480, Note_on_c, 1, 81, 127
1, 3480, Note_on_c, 1, 79, 127
1, 3480, Note_on_c, 1, 76, 127
1, 3480, Note_on_c, 1, 64, 127
1, 3480, Note_on_c, 1, 61, 127
1, 3480, Note_on_c, 1, 45, 127
1, 3480, Note_on_c, 1, 33, 127
1, 3507, Note_off_c, 1, 85, 0
1, 3510, Note_on_c, 1, 86, 127
1, 3520, Note_off_c, 1, 79, 0
1, 3520, Note_off_c, 1, 76, 0
1, 3520, Note_off_c, 1, 64, 0
1, 3520, Note_off_c, 1, 61, 0
1, 3520, Note_off_c, 1, 45, 0
1, 3520, Note_off_c, 1, 33, 0
1, 3537, Note_off_c, 1, 86, 0
1, 3540, Note_on_c, 1, 83, 127
1, 3540, Note_on_c, 1, 78, 127
1, 3540, Note_on_c, 1, 74, 127
1, 3540, Note_on_c, 1, 69, 127
1, 3540, Note_on_c, 1, 57, 127
1, 3540, Note_on_c, 1, 55, 127
1, 3540, Note_on_c, 1, 43, 127
1, 3560, Note_off_c, 1, 78, 0
1, 3560, Note_off_c, 1, 74, 0
1, 3567, Note_off_c, 1, 83, 0
1, 3570, Note_on_c, 1, 73, 127
1, 3580, Note_off_c, 1, 69, 0
1, 3580, Note_off_c, 1, 57, 0
1, 3580, Note_off_c, 1, 55, 0
1, 3580, Note_off_c, 1, 43, 0
1, 3590, Note_off_c, 1, 73, 0
1, 3600, Note_on_c, 1, 54, 127
1, 3600, Note_on_c, 1, 42, 127
1, 3640, Note_off_c, 1, 54, 0
1, 3640, Note_off_c, 1, 42, 0
1, 3660, Note_on_c, 1, 66, 127
1, 3660, Note_on_c, 1, 50, 127
1, 3660, Note_on_c, 1, 38, 127
1, 3680, Note_off_c, 1, 81, 0
1, 3700, Note_off_c, 1, 66, 0
1, 3700, Note_off_c, 1, 50, 0
1, 3700, Note_off_c, 1, 38, 0
1, 3720, Note_on_c, 1, 83, 127
1, 3720, Note_on_c, 1, 71, 127
1, 3720, Note_on_c, 1, 74, 127
1, 3720, Note_on_c, 1, 54, 127
1, 3720, Note_on_c, 1, 42, 127
1, 3740, Note_off_c, 1, 74, 0
1, 3747, Note_off_c, 1, 83, 0
1, 3750, Note_on_c, 1, 81, 127
1, 3750, Note_on_c, 1, 73, 127
1, 3760, Note_off_c, 1, 71, 0
1, 3760, Note_off_c, 1, 54, 0
1, 3760, Note_off_c, 1, 42, 0
1, 3770, Note_off_c, 1, 73, 0
1, 3777, Note_off_c, 1, 81, 0
1, 3780, Note_on_c, 1, 80, 127
1, 3780, Note_on_c, 1, 74, 127
1, 3780, Note_on_c, 1, 71, 127
1, 3780, Note_on_c, 1, 59, 127
1, 3780, Note_on_c, 1, 47, 127
1, 3800, Note_off_c, 1, 71, 0
1, 3807, Note_off_c, 1, 80, 0
1, 3810, Note_on_c, 1, 78, 127
1, 3810, Note_on_c, 1, 69, 127
1, 3820, Note_off_c, 1, 74, 0
1, 3820, Note_off_c, 1, 59, 0
1, 3820, Note_off_c, 1, 47, 0
1, 3830, Note_off_c, 1, 69, 0
1, 3837, Note_off_c, 1, 78, 0
1, 3840, Note_on_c, 1, 80, 127
1, 3840, Note_on_c, 1, 74, 127
1, 3840, Note_on_c, 1, 59, 127
1, 3840, Note_on_c, 1, 47, 127
1, 3867, Note_off_c, 1, 80, 0
1, 3870, Note_on_c, 1, 78, 127
1, 3880, Note_off_c, 1, 59, 0
1, 3880, Note_off_c, 1, 47, 0
1, 3897, Note_off_c, 1, 78, 0
1, 3900, Note_on_c, 1, 76, 127
1, 3900, Note_on_c, 1, 73, 127
1, 3900, Note_on_c, 1, 56, 127
1, 3900, Note_on_c, 1, 44, 127
1, 3920, Note_off_c, 1, 73, 0
1, 3927, Note_off_c, 1, 76, 0
1, 3930, Note_on_c, 1, 71, 127
1, 3940, Note_off_c, 1, 56, 0
1, 3940, Note_off_c, 1, 44, 0
1, 3950, Note_off_c, 1, 71, 0
1, 3960, Note_on_c, 1, 52, 127
1, 3960, Note_on_c, 1, 40, 127
1, 4000, Note_off_c, 1, 74, 0
1, 4000, Note_off_c, 1, 52, 0
1, 4000, Note_off_c, 1, 40, 0
1, 4020, Note_on_c, 1, 86, 127
1, 4020, Note_on_c, 1, 83, 127
1, 4020, Note_on_c, 1, 81, 127
1, 4020, Note_on_c, 1, 76, 127
1, 4020, Note_on_c, 1, 64, 127
1, 4020, Note_on_c, 1, 71, 127
1, 4020, Note_on_c, 1, 56, 127
1, 4020, Note_on_c, 1, 44, 127
1, 4040, Note_off_c, 1, 76, 0
1, 4050, Note_on_c, 1, 78, 127
1, 4060, Note_off_c, 1, 83, 0
1, 4060, Note_off_c, 1, 81, 0
1, 4060, Note_off_c, 1, 64, 0
1, 4060, Note_off_c, 1, 71, 0
1, 4060, Note_off_c, 1, 56, 0
1, 4060, Note_off_c, 1, 44, 0
1, 4070, Note_off_c, 1, 78, 0
1, 4077, Note_off_c, 1, 86, 0
1, 4080, Note_on_c, 1, 85, 127
1, 4080, Note_on_c, 1, 81, 127
1, 4080, Note_on_c, 1, 76, 127
1, 4080, Note_on_c, 1, 69, 127
1, 4080, Note_on_c, 1, 73, 127
1, 4080, Note_on_c, 1, 64, 127
1, 4080, Note_on_c, 1, 57, 127
1, 4080, Note_on_c, 1, 45, 127
1, 4100, Note_off_c, 1, 81, 0
1, 4107, Note_off_c, 1, 85, 0
1, 4110, Note_on_c, 1, 83, 127
1, 4110, Note_on_c, 1, 80, 127
1, 4110, Note_on_c, 1, 74, 127
1, 4120, Note_off_c, 1, 76, 0
1, 4120, Note_off_c, 1, 69, 0
1, 4120, Note_off_c, 1, 73, 0
1, 4120, Note_off_c, 1, 64, 0
1, 4120, Note_off_c, 1, 57, 0
1, 4120, Note_off_c, 1, 45, 0
1, 4130, Note_off_c, 1, 80, 0
1, 4130, Note_off_c, 1, 74, 0
1, 4137, Note_off_c, 1, 83, 0
1, 4140, Note_on_c, 1, 81, 127
1, 4140, Note_on_c, 1, 78, 127
1, 4140, Note_on_c, 1, 73, 127
1, 4140, Note_on_c, 1, 69, 127
1, 4140, Note_on_c, 1, 66, 127
1, 4140, Note_on_c, 1, 50, 127
1, 4140, Note_on_c, 1, 38, 127
1, 4160, Note_off_c, 1, 78, 0
1, 4170, Note_on_c, 1, 83, 127
1, 4170, Note_on_c, 1, 80, 127
1, 4170, Note_on_c, 1, 71, 127
1, 4180, Note_off_c, 1, 81, 0
1, 4180, Note_off_c, 1, 73, 0
1, 4180, Note_off_c, 1, 69, 0
1, 4180, Note_off_c, 1, 66, 0
1, 4180, Note_off_c, 1, 50, 0
1, 4180, Note_off_c, 1, 38, 0
1, 4190, Note_off_c, 1, 80, 0
1, 4190, Note_off_c, 1, 71, 0
1, 4197, Note_off_c, 1, 83, 0
1, 4200, Note_on_c, 1, 83, 127
1, 4200, Note_on_c, 1, 80, 127
1, 4200, Note_on_c, 1, 71, 127
1, 4200, Note_on_c, 1, 69, 127
1, 4200, Note_on_c, 1, 64, 127
1, 4200, Note_on_c, 1, 59, 127
1, 4200, Note_on_c, 1, 52, 127
1, 4200, Note_on_c, 1, 40, 127
1, 4215, Note_off_c, 1, 83, 0
1, 4215, Note_off_c, 1, 80, 0
1, 4215, Note_on_c, 1, 85, 127
1, 4215, Note_on_c, 1, 81, 127
1, 4220, Note_off_c, 1, 69, 0
1, 4230, Note_off_c, 1, 85, 0
1, 4230, Note_off_c, 1, 81, 0
1, 4230, Note_on_c, 1, 68, 127
1, 4240, Note_off_c, 1, 71, 0
1, 4240, Note_off_c, 1, 64, 0
1, 4240, Note_off_c, 1, 59, 0
1, 4240, Note_off_c, 1, 52, 0
1, 4240, Note_off_c, 1, 40, 0
1, 4250, Note_off_c, 1, 68, 0
1, 4260, Note_on_c, 1, 74, 127
1, 4260, Note_on_c, 1, 28, 127
1, 4275, Note_on_c, 1, 78, 127
1, 4290, Note_off_c, 1, 78, 0
1, 4290, Note_on_c, 1, 76, 127
1, 4300, Note_off_c, 1, 74, 0
1, 4300, Note_off_c, 1, 28, 0
1, 4310, Note_off_c, 1, 76, 0
1, 4320, Note_on_c, 1, 81, 127
1, 4320, Note_on_c, 1, 76, 127
1, 4320, Note_on_c, 1, 69, 127
1, 4320, Note_on_c, 1, 45, 127
1, 4320, Note_on_c, 1, 73, 127
1, 4320, Note_on_c, 1, 64, 127
1, 4320, Note_on_c, 1, 33, 127
1, 4360, Note_off_c, 1, 76, 0
1, 4360, Note_off_c, 1, 69, 0
1, 4360, Note_off_c, 1, 64, 0
1, 4360, Note_off_c, 1, 33, 0
1, 4380, Note_on_c, 1, 57, 127
1, 4380, Note_on_c, 1, 80, 127
1, 4380, Note_on_c, 1, 61, 127
1, 4380, Note_on_c, 1, 52, 127
1, 4400, Note_off_c, 1, 80, 0
1, 4410, Note_on_c, 1, 78, 127
1, 4420, Note_off_c, 1, 45, 0
1, 4420, Note_off_c, 1, 57, 0
1, 4420, Note_off_c, 1, 61, 0
1, 4420, Note_off_c, 1, 52, 0
1, 4430, Note_off_c, 1, 78, 0
1, 4470, Note_on_c, 1, 74, 127
1, 4490, Note_off_c, 1, 74, 0
1, 4530, Note_on_c, 1, 83, 127
1, 4550, Note_off_c, 1, 83, 0
1, 4560, Note_on_c, 1, 85, 127
1, 4580, Note_off_c, 1, 85, 0
1, 4590, Note_on_c, 1, 86, 127
1, 4610, Note_off_c, 1, 86, 0
1, 4680, Note_on_c, 1, 42, 127
1, 4680, Note_on_c, 1, 30, 127
1, 4720, Note_off_c, 1, 42, 0
1, 4720, Note_off_c, 1, 30, 0
1, 4740, Note_on_c, 1, 54, 127
1, 4780, Note_off_c, 1, 54, 0
1, 5040, Note_on_c, 1, 88, 127
1, 5040, Note_on_c, 1, 37, 127
1, 5040, Note_on_c, 1, 25, 127
1, 5060, Note_off_c, 1, 73, 0
1, 5080, Note_off_c, 1, 88, 0
1, 5080, Note_off_c, 1, 37, 0
1, 5080, Note_off_c, 1, 25, 0
1, 5090, Note_off_c, 1, 81, 0
1, 5100, Note_on_c, 1, 49, 127
1, 5140, Note_off_c, 1, 49, 0
1, 5160, Note_on_c, 1, 76, 127
1, 5160, Note_on_c, 1, 73, 127
1, 5160, Note_on_c, 1, 69, 127
1, 5160, Note_on_c, 1, 64, 127
1, 5180, Note_off_c, 1, 76, 0
1, 5190, Note_on_c, 1, 85, 127
1, 5200, Note_off_c, 1, 73, 0
1, 5200, Note_off_c, 1, 69, 0
1, 5200, Note_off_c, 1, 64, 0
1, 5210, Note_off_c, 1, 85, 0
1, 5220, Note_on_c, 1, 83, 127
1, 5220, Note_on_c, 1, 74, 127
1, 5220, Note_on_c, 1, 76, 127
1, 5220, Note_on_c, 1, 73, 127
1, 5220, Note_on_c, 1, 69, 127
1, 5220, Note_on_c, 1, 49, 127
1, 5220, Note_on_c, 1, 37, 127
1, 5240, Note_off_c, 1, 83, 0
1, 5240, Note_off_c, 1, 74, 0
1, 5240, Note_off_c, 1, 49, 0
1, 5240, Note_off_c, 1, 37, 0
1, 5250, Note_on_c, 1, 81, 127
1, 5250, Note_on_c, 1, 50, 127
1, 5250, Note_on_c, 1, 38, 127
1, 5260, Note_off_c, 1, 76, 0
1, 5260, Note_off_c, 1, 69, 0
1, 5270, Note_off_c, 1, 73, 0
1, 5270, Note_off_c, 1, 81, 0
1, 5270, Note_off_c, 1, 50, 0
1, 5270, Note_off_c, 1, 38, 0
1, 5280, Note_on_c, 1, 79, 127
1, 5280, Note_on_c, 1, 71, 127
1, 5280, Note_on_c, 1, 76, 127
1, 5280, Note_on_c, 1, 64, 127
1, 5280, Note_on_c, 1, 52, 127
1, 5280, Note_on_c, 1, 40, 127
1, 5300, Note_off_c, 1, 79, 0
1, 5300, Note_off_c, 1, 76, 0
1, 5310, Note_on_c, 1, 78, 127
1, 5310, Note_on_c, 1, 74, 127
1, 5310, Note_on_c, 1, 69, 127
1, 5320, Note_off_c, 1, 71, 0
1, 5320, Note_off_c, 1, 64, 0
1, 5320, Note_off_c, 1, 52, 0
1, 5320, Note_off_c, 1, 40, 0
1, 5330, Note_off_c, 1, 78, 0
1, 5330, Note_off_c, 1, 74, 0
1, 5330, Note_off_c, 1, 69, 0
1, 5340, Note_on_c, 1, 76, 127
1, 5340, Note_on_c, 1, 80, 127
1, 5340, Note_on_c, 1, 73, 127
1, 5340, Note_on_c, 1, 68, 127
1, 5340, Note_on_c, 1, 64, 127
1, 5340, Note_on_c, 1, 40, 127
1, 5340, Note_on_c, 1, 28, 127
1, 5360, Note_off_c, 1, 76, 0
1, 5360, Note_off_c, 1, 73, 0
1, 5360, Note_off_c, 1, 68, 0
1, 5370, Note_on_c, 1, 74, 127
1, 5370, Note_on_c, 1, 71, 127
1, 5370, Note_on_c, 1, 66, 127
1, 5380, Note_off_c, 1, 80, 0
1, 5380, Note_off_c, 1, 64, 0
1, 5380, Note_off_c, 1, 40, 0
1, 5380, Note_off_c, 1, 28, 0
1, 5390, Note_off_c, 1, 74, 0
1, 5390, Note_off_c, 1, 71, 0
1, 5390, Note_off_c, 1, 66, 0
1, 5400, Note_on_c, 1, 73, 127
1, 5400, Note_on_c, 1, 81, 127
1, 5400, Note_on_c, 1, 64, 127
1, 5400, Note_on_c, 1, 45, 127
1, 5400, Note_on_c, 1, 33, 127
1, 5420, Note_off_c, 1, 73, 0
1, 5430, Note_on_c, 1, 74, 127
1, 5430, Note_on_c, 1, 71, 127
1, 5440, Note_off_c, 1, 81, 0
1, 5440, Note_off_c, 1, 64, 0
1, 5440, Note_off_c, 1, 45, 0
1, 5440, Note_off_c, 1, 33, 0
1, 5450, Note_off_c, 1, 74, 0
1, 5450, Note_off_c, 1, 71, 0
1, 5460, Note_on_c, 1, 73, 127
1, 5460, Note_on_c, 1, 76, 127
1, 5460, Note_on_c, 1, 69, 127
1, 5460, Note_on_c, 1, 64, 127
1, 5460, Note_on_c, 1, 61, 127
1, 5460, Note_on_c, 1, 57, 127
1, 5460, Note_on_c, 1, 45, 127
1, 5480, Note_off_c, 1, 73, 0
1, 5480, Note_off_c, 1, 69, 0
1, 5480, Note_off_c, 1, 57, 0
1, 5480, Note_off_c, 1, 45, 0
1, 5490, Note_on_c, 1, 71, 127
1, 5490, Note_on_c, 1, 56, 127
1, 5490, Note_on_c, 1, 44, 127
1, 5500, Note_off_c, 1, 76, 0
1, 5500, Note_off_c, 1, 64, 0
1, 5500, Note_off_c, 1, 61, 0
1, 5510, Note_off_c, 1, 71, 0
1, 5510, Note_off_c, 1, 56, 0
1, 5510, Note_off_c, 1, 44, 0
1, 5520, Note_on_c, 1, 69, 127
1, 5520, Note_on_c, 1, 73, 127
1, 5520, Note_on_c, 1, 64, 127
1, 5520, Note_on_c, 1, 54, 127
1, 5520, Note_on_c, 1, 42, 127
1, 5540, Note_off_c, 1, 73, 0
1, 5550, Note_on_c, 1, 85, 127
1, 5550, Note_on_c, 1, 74, 127
1, 5560, Note_off_c, 1, 69, 0
1, 5560, Note_off_c, 1, 64, 0
1, 5560, Note_off_c, 1, 54, 0
1, 5560, Note_off_c, 1, 42, 0
1, 5570, Note_off_c, 1, 85, 0
1, 5570, Note_off_c, 1, 74, 0
1, 5580, Note_on_c, 1, 83, 127
1, 5580, Note_on_c, 1, 76, 127
1, 5580, Note_on_c, 1, 73, 127
1, 5580, Note_on_c, 1, 69, 127
1, 5580, Note_on_c, 1, 52, 127
1, 5580, Note_on_c, 1, 40, 127
1, 5600, Note_off_c, 1, 83, 0
1, 5600, Note_off_c, 1, 52, 0
1, 5600, Note_off_c, 1, 40, 0
1, 5610, Note_on_c, 1, 81, 127
1, 5610, Note_on_c, 1, 50, 127
1, 5610, Note_on_c, 1, 38, 127
1, 5620, Note_off_c, 1, 76, 0
1, 5620, Note_off_c, 1, 73, 0
1, 5620, Note_off_c, 1, 69, 0
1, 5630, Note_off_c, 1, 81, 0
1, 5630, Note_off_c, 1, 50, 0
1, 5630, Note_off_c, 1, 38, 0
1, 5640, Note_on_c, 1, 80, 127
1, 5640, Note_on_c, 1, 64, 127
1, 5640, Note_on_c, 1, 79, 127
1, 5640, Note_on_c, 1, 76, 127
1, 5640, Note_on_c, 1, 71, 127
1, 5640, Note_on_c, 1, 52, 127
1, 5640, Note_on_c, 1, 40, 127
1, 5660, Note_off_c, 1, 80, 0
1, 5660, Note_off_c, 1, 79, 0
1, 5660, Note_off_c, 1, 76, 0
1, 5660, Note_off_c, 1, 71, 0
1, 5670, Note_on_c, 1, 78, 127
1, 5670, Note_on_c, 1, 74, 127
1, 5670, Note_on_c, 1, 69, 127
1, 5680, Note_off_c, 1, 64, 0
1, 5680, Note_off_c, 1, 52, 0
1, 5680, Note_off_c, 1, 40, 0
1, 5690, Note_off_c, 1, 78, 0
1, 5690, Note_off_c, 1, 74, 0
1, 5690, Note_off_c, 1, 69, 0
1, 5700, Note_on_c, 1, 76, 127
1, 5700, Note_on_c, 1, 68, 127
1, 5700, Note_on_c, 1, 73, 127
1, 5700, Note_on_c, 1, 64, 127
1, 5700, Note_on_c, 1, 40, 127
1, 5700, Note_on_c, 1, 28, 127
1, 5720, Note_off_c, 1, 76, 0
1, 5720, Note_off_c, 1, 73, 0
1, 5730, Note_on_c, 1, 74, 127
1, 5730, Note_on_c, 1, 71, 127
1, 5730, Note_on_c, 1, 66, 127
1, 5740, Note_off_c, 1, 68, 0
1, 5740, Note_off_c, 1, 64, 0
1, 5740, Note_off_c, 1, 40, 0
1, 5740, Note_off_c, 1, 28, 0
1, 5750, Note_off_c, 1, 74, 0
1, 5750, Note_off_c, 1, 71, 0
1, 5750, Note_off_c, 1, 66, 0
1, 5760, Note_on_c, 1, 73, 127
1, 5760, Note_on_c, 1, 69, 127
1, 5760, Note_on_c, 1, 64, 127
1, 5760, Note_on_c, 1, 45, 127
1, 5760, Note_on_c, 1, 33, 127
1, 5800, Note_off_c, 1, 64, 0
1, 5800, Note_off_c, 1, 45, 0
1, 5800, Note_off_c, 1, 33, 0
1, 5810, Note_off_c, 1, 69, 0
1, 5820, Note_on_c, 1, 67, 127
1, 5820, Note_on_c, 1, 76, 127
1, 5820, Note_on_c, 1, 61, 127
1, 5820, Note_on_c, 1, 57, 127
1, 5840, Note_off_c, 1, 67, 0
1, 5850, Note_on_c, 1, 74, 127
1, 5850, Note_on_c, 1, 66, 127
1, 5860, Note_off_c, 1, 61, 0
1, 5860, Note_off_c, 1, 57, 0
1, 5870, Note_off_c, 1, 76, 0
1, 5870, Note_off_c, 1, 74, 0
1, 5870, Note_off_c, 1, 66, 0
1, 5880, Note_on_c, 1, 81, 127
1, 5920, Note_off_c, 1, 81, 0
1, 5940, Note_on_c, 1, 85, 127
1, 5970, Note_on_c, 1, 62, 127
1, 5970, Note_on_c, 1, 59, 127
1, 5970, Note_on_c, 1, 47, 127
1, 5980, Note_off_c, 1, 85, 0
1, 5990, Note_off_c, 1, 62, 0
1, 5990, Note_off_c, 1, 59, 0
1, 5990, Note_off_c, 1, 47, 0
1, 6030, Note_on_c, 1, 55, 127
1, 6030, Note_on_c, 1, 43, 127
1, 6050, Note_off_c, 1, 55, 0
1, 6050, Note_off_c, 1, 43, 0
1, 6060, Note_on_c, 1, 54, 127
1, 6060, Note_on_c, 1, 42, 127
1, 6080, Note_off_c, 1, 54, 0
1, 6080, Note_off_c, 1, 42, 0
1, 6090, Note_on_c, 1, 52, 127
1, 6090, Note_on_c, 1, 40, 127
1, 6110, Note_off_c, 1, 52, 0
1, 6110, Note_off_c, 1, 40, 0
1, 6117, Note_off_c, 1, 73, 0
1, 6120, Note_on_c, 1, 50, 127
1, 6120, Note_on_c, 1, 78, 127
1, 6120, Note_on_c, 1, 72, 127
1, 6120, Note_on_c, 1, 69, 127
1, 6120, Note_on_c, 1, 74, 127
1, 6120, Note_on_c, 1, 38, 127
1, 6160, Note_off_c, 1, 78, 0
1, 6160, Note_off_c, 1, 38, 0
1, 6170, Note_off_c, 1, 69, 0
1, 6170, Note_off_c, 1, 74, 0
1, 6180, Note_on_c, 1, 66, 127
1, 6180, Note_on_c, 1, 62, 127
1, 6210, Note_on_c, 1, 71, 127
1, 6220, Note_off_c, 1, 50, 0
1, 6220, Note_off_c, 1, 66, 0
1, 6220, Note_off_c, 1, 62, 0
1, 6230, Note_off_c, 1, 71, 0
1, 6240, Note_on_c, 1, 81, 127
1, 6280, Note_off_c, 1, 81, 0
1, 6300, Note_on_c, 1, 86, 127
1, 6300, Note_on_c, 1, 57, 127
1, 6330, Note_on_c, 1, 67, 127
1, 6330, Note_on_c, 1, 52, 127
1, 6330, Note_on_c, 1, 40, 127
1, 6340, Note_off_c, 1, 86, 0
1, 6340, Note_off_c, 1, 57, 0
1, 6350, Note_off_c, 1, 67, 0
1, 6350, Note_off_c, 1, 52, 0
1, 6350, Note_off_c, 1, 40, 0
1, 6390, Note_on_c, 1, 48, 127
1, 6390, Note_on_c, 1, 36, 127
1, 6410, Note_off_c, 1, 48, 0
1, 6410, Note_off_c, 1, 36, 0
1, 6420, Note_on_c, 1, 47, 127
1, 6420, Note_on_c, 1, 35, 127
1, 6440, Note_off_c, 1, 47, 0
1, 6440, Note_off_c, 1, 35, 0
1, 6450, Note_on_c, 1, 45, 127
1, 6450, Note_on_c, 1, 33, 127
1, 6470, Note_off_c, 1, 45, 0
1, 6470, Note_off_c, 1, 33, 0
1, 6477, Note_off_c, 1, 72, 0
1, 6480, Note_on_c, 1, 83, 127
1, 6480, Note_on_c, 1, 74, 127
1, 6480, Note_on_c, 1, 79, 127
1, 6480, Note_on_c, 1, 50, 127
1, 6480, Note_on_c, 1, 71, 127
1, 6480, Note_on_c, 1, 62, 127
1, 6480, Note_on_c, 1, 59, 127
1, 6480, Note_on_c, 1, 43, 127
1, 6480, Note_on_c, 1, 31, 127
1, 6510, Note_on_c, 1, 76, 127
1, 6520, Note_off_c, 1, 83, 0
1, 6520, Note_off_c, 1, 74, 0
1, 6520, Note_off_c, 1, 79, 0
1, 6520, Note_off_c, 1, 71, 0
1, 6520, Note_off_c, 1, 62, 0
1, 6520, Note_off_c, 1, 59, 0
1, 6520, Note_off_c, 1, 43, 0
1, 6520, Note_off_c, 1, 31, 0
1, 6530, Note_off_c, 1, 76, 0
1, 6540, Note_on_c, 1, 67, 127
1, 6540, Note_on_c, 1, 55, 127
1, 6560, Note_off_c, 1, 50, 0
1, 6570, Note_on_c, 1, 73, 127
1, 6570, Note_on_c, 1, 69, 127
1, 6580, Note_off_c, 1, 67, 0
1, 6580, Note_off_c, 1, 55, 0
1, 6590, Note_off_c, 1, 73, 0
1, 6590, Note_off_c, 1, 69, 0
1, 6600, Note_on_c, 1, 76, 127
1, 6600, Note_on_c, 1, 73, 127
1, 6600, Note_on_c, 1, 71, 127
1, 6600, Note_on_c, 1, 67, 127
1, 6620, Note_off_c, 1, 71, 0
1, 6630, Note_on_c, 1, 69, 127
1, 6630, Note_on_c, 1, 66, 127
1, 6640, Note_off_c, 1, 76, 0
1, 6640, Note_off_c, 1, 73, 0
1, 6640, Note_off_c, 1, 67, 0
1, 6650, Note_off_c, 1, 69, 0
1, 6650, Note_off_c, 1, 66, 0
1, 6660, Note_on_c, 1, 71, 127
1, 6660, Note_on_c, 1, 79, 127
1, 6660, Note_on_c, 1, 76, 127
1, 6660, Note_on_c, 1, 67, 127
1, 6660, Note_on_c, 1, 64, 127
1, 6660, Note_on_c, 1, 55, 127
1, 6660, Note_on_c, 1, 43, 127
1, 6680, Note_off_c, 1, 67, 0
1, 6680, Note_off_c, 1, 64, 0
1, 6680, Note_off_c, 1, 55, 0
1, 6680, Note_off_c, 1, 43, 0
1, 6690, Note_on_c, 1, 69, 127
1, 6690, Note_on_c, 1, 66, 127
1, 6690, Note_on_c, 1, 54, 127
1, 6690, Note_on_c, 1, 42, 127
1, 6700, Note_off_c, 1, 71, 0
1, 6700, Note_off_c, 1, 79, 0
1, 6700, Note_off_c, 1, 76, 0
1, 6710, Note_off_c, 1, 69, 0
1, 6710, Note_off_c, 1, 66, 0
1, 6710, Note_off_c, 1, 54, 0
1, 6710, Note_off_c, 1, 42, 0
1, 6720, Note_on_c, 1, 76, 127
1, 6720, Note_on_c, 1, 79, 127
1, 6720, Note_on_c, 1, 71, 127
1, 6720, Note_on_c, 1, 67, 127
1, 6720, Note_on_c, 1, 52, 127
1, 6720, Note_on_c, 1, 40, 127
1, 6740, Note_off_c, 1, 67, 0
1, 6740, Note_off_c, 1, 52, 0
1, 6740, Note_off_c, 1, 40, 0
1, 6750, Note_on_c, 1, 73, 127
1, 6750, Note_on_c, 1, 69, 127
1, 6750, Note_on_c, 1, 50, 127
1, 6750, Note_on_c, 1, 38, 127
1, 6760, Note_off_c, 1, 76, 0
1, 6760, Note_off_c, 1, 79, 0
1, 6760, Note_off_c, 1, 71, 0
1, 6770, Note_off_c, 1, 73, 0
1, 6770, Note_off_c, 1, 69, 0
1, 6770, Note_off_c, 1, 50, 0
1, 6770, Note_off_c, 1, 38, 0
1, 6780, Note_on_c, 1, 79, 127
1, 6780, Note_on_c, 1, 76, 127
1, 6780, Note_on_c, 1, 64, 127
1, 6780, Note_on_c, 1, 69, 127
1, 6780, Note_on_c, 1, 66, 127
1, 6780, Note_on_c, 1, 59, 127
1, 6780, Note_on_c, 1, 49, 127
1, 6780, Note_on_c, 1, 37, 127
1, 6800, Note_off_c, 1, 69, 0
1, 6800, Note_off_c, 1, 66, 0
1, 6800, Note_off_c, 1, 49, 0
1, 6800, Note_off_c, 1, 37, 0
1, 6810, Note_on_c, 1, 71, 127
1, 6810, Note_on_c, 1, 67, 127
1, 6810, Note_on_c, 1, 47, 127
1, 6810, Note_on_c, 1, 35, 127
1, 6820, Note_off_c, 1, 76, 0
1, 6820, Note_off_c, 1, 64, 0
1, 6820, Note_off_c, 1, 59, 0
1, 6830, Note_off_c, 1, 71, 0
1, 6830, Note_off_c, 1, 67, 0
1, 6830, Note_off_c, 1, 47, 0
1, 6830, Note_off_c, 1, 35, 0
1, 6840, Note_on_c, 1, 81, 127
1, 6840, Note_on_c, 1, 73, 127
1, 6840, Note_on_c, 1, 45, 127
1, 6840, Note_on_c, 1, 33, 127
1, 6880, Note_off_c, 1, 79, 0
1, 6880, Note_off_c, 1, 73, 0
1, 6880, Note_off_c, 1, 45, 0
1, 6880, Note_off_c, 1, 33, 0
1, 6900, Note_on_c, 1, 61, 127
1, 6900, Note_on_c, 1, 57, 127
1, 6930, Note_on_c, 1, 78, 127
1, 6940, Note_off_c, 1, 61, 0
1, 6940, Note_off_c, 1, 57, 0
1, 6950, Note_off_c, 1, 78, 0
1, 6990, Note_on_c, 1, 74, 127
1, 7010, Note_off_c, 1, 74, 0
1, 7020, Note_on_c, 1, 85, 127
1, 7060, Note_off_c, 1, 85, 0
1, 7197, Note_off_c, 1, 81, 0
1, 7200, Note_on_c, 1, 80, 127
1, 7200, Note_on_c, 1, 86, 127
1, 7200, Note_on_c, 1, 74, 127
1, 7200, Note_on_c, 1, 71, 127
1, 7230, Note_on_c, 1, 76, 127
1, 7240, Note_off_c, 1, 86, 0
1, 7240, Note_off_c, 1, 71, 0
1, 7250, Note_off_c, 1, 76, 0
1, 7260, Note_on_c, 1, 83, 127
1, 7260, Note_on_c, 1, 59, 127
1, 7280, Note_off_c, 1, 74, 0
1, 7290, Note_on_c, 1, 73, 127
1, 7300, Note_off_c, 1, 83, 0
1, 7300, Note_off_c, 1, 59, 0
1, 7310, Note_off_c, 1, 73, 0
1, 7320, Note_on_c, 1, 64, 127
1, 7350, Note_on_c, 1, 69, 127
1, 7360, Note_off_c, 1, 64, 0
1, 7370, Note_off_c, 1, 69, 0
1, 7380, Note_on_c, 1, 68, 127
1, 7400, Note_off_c, 1, 68, 0
1, 7500, Note_on_c, 1, 81, 127
1, 7540, Note_off_c, 1, 81, 0
1, 7557, Note_off_c, 1, 80, 0
1, 7560, Note_on_c, 1, 79, 127
1, 7560, Note_on_c, 1, 81, 127
1, 7560, Note_on_c, 1, 73, 127
1, 7610, Note_off_c, 1, 81, 0
1, 7620, Note_on_c, 1, 64, 127
1, 7650, Note_on_c, 1, 78, 127
1, 7650, Note_on_c, 1, 74, 127
1, 7660, Note_off_c, 1, 73, 0
1, 7660, Note_off_c, 1, 64, 0
1, 7670, Note_off_c, 1, 78, 0
1, 7670, Note_off_c, 1, 74, 0
1, 7680, Note_on_c, 1, 76, 127
1, 7680, Note_on_c, 1, 69, 127
1, 7710, Note_on_c, 1, 71, 127
1, 7720, Note_off_c, 1, 76, 0
1, 7720, Note_off_c, 1, 69, 0
1, 7730, Note_off_c, 1, 71, 0
1, 7917, Note_off_c, 1, 79, 0
1, 7920, Note_on_c, 1, 50, 127
1, 7950, Note_on_c, 1, 86, 127
1, 7977, Note_off_c, 1, 86, 0
1, 7980, Note_on_c, 1, 85, 127
1, 7980, Note_on_c, 1, 66, 127
1, 7980, Note_on_c, 1, 45, 127
1, 7980, Note_on_c, 1, 33, 127
1, 8000, Note_off_c, 1, 50, 0
1, 8007, Note_off_c, 1, 85, 0
1, 8010, Note_on_c, 1, 83, 127
1, 8020, Note_off_c, 1, 66, 0
1, 8020, Note_off_c, 1, 45, 0
1, 8020, Note_off_c, 1, 33, 0
1, 8037, Note_off_c, 1, 83, 0
1, 8040, Note_on_c, 1, 38, 127
1, 8080, Note_off_c, 1, 38, 0
1, 8100, Note_on_c, 1, 62, 127
1, 8100, Note_on_c, 1, 54, 127
1, 8100, Note_on_c, 1, 42, 127
1, 8140, Note_off_c, 1, 62, 0
1, 8140, Note_off_c, 1, 54, 0
1, 8140, Note_off_c, 1, 42, 0
1, 8460, Note_on_c, 1, 57, 127
1, 8500, Note_off_c, 1, 57, 0
1, 8730, Note_on_c, 1, 67, 127
1, 8750, Note_off_c, 1, 67, 0
1, 9000, Note_on_c, 1, 47, 127
1, 9000, Note_on_c, 1, 35, 127
1, 9040, Note_off_c, 1, 47, 0
1, 9040, Note_off_c, 1, 35, 0
1, 9060, Note_on_c, 1, 59, 127
1, 9100, Note_off_c, 1, 59, 0
1, 9360, Note_on_c, 1, 30, 127
1, 9380, Note_off_c, 1, 30, 0
1, 9420, Note_on_c, 1, 61, 127
1, 9420, Note_on_c, 1, 49, 127
1, 9440, Note_off_c, 1, 61, 0
1, 9440, Note_off_c, 1, 49, 0
1, 9480, Note_on_c, 1, 78, 127
1, 9480, Note_on_c, 1, 74, 127
1, 9480, Note_on_c, 1, 69, 127
1, 9480, Note_on_c, 1, 57, 127
1, 9480, Note_on_c, 1, 45, 127
1, 9500, Note_off_c, 1, 57, 0
1, 9500, Note_off_c, 1, 45, 0
1, 9510, Note_on_c, 1, 55, 127
1, 9510, Note_on_c, 1, 43, 127
1, 9520, Note_off_c, 1, 78, 0
1, 9520, Note_off_c, 1, 74, 0
1, 9520, Note_off_c, 1, 69, 0
1, 9530, Note_off_c, 1, 55, 0
1, 9530, Note_off_c, 1, 43, 0
1, 9540, Note_on_c, 1, 74, 127
1, 9540, Note_on_c, 1, 69, 127
1, 9540, Note_on_c, 1, 62, 127
1, 9540, Note_on_c, 1, 50, 127
1, 9540, Note_on_c, 1, 81, 127
1, 9540, Note_on_c, 1, 78, 127
1, 9540, Note_on_c, 1, 54, 127
1, 9540, Note_on_c, 1, 42, 127
1, 9560, Note_off_c, 1, 54, 0
1, 9560, Note_off_c, 1, 42, 0
1, 9570, Note_on_c, 1, 55, 127
1, 9570, Note_on_c, 1, 43, 127
1, 9580, Note_off_c, 1, 74, 0
1, 9580, Note_off_c, 1, 69, 0
1, 9580, Note_off_c, 1, 62, 0
1, 9580, Note_off_c, 1, 50, 0
1, 9580, Note_off_c, 1, 81, 0
1, 9580, Note_off_c, 1, 78, 0
1, 9590, Note_off_c, 1, 55, 0
1, 9590, Note_off_c, 1, 43, 0
1, 9600, Note_on_c, 1, 78, 127
1, 9600, Note_on_c, 1, 74, 127
1, 9600, Note_on_c, 1, 69, 127
1, 9600, Note_on_c, 1, 45, 127
1, 9600, Note_on_c, 1, 81, 127
1, 9600, Note_on_c, 1, 57, 127
1, 9620, Note_off_c, 1, 81, 0
1, 9620, Note_off_c, 1, 57, 0
1, 9630, Note_on_c, 1, 79, 127
1, 9630, Note_on_c, 1, 76, 127
1, 9630, Note_on_c, 1, 59, 127
1, 9630, Note_on_c, 1, 47, 127
1, 9640, Note_off_c, 1, 78, 0
1, 9640, Note_off_c, 1, 74, 0
1, 9640, Note_off_c, 1, 69, 0
1, 9640, Note_off_c, 1, 45, 0
1, 9650, Note_off_c, 1, 79, 0
1, 9650, Note_off_c, 1, 76, 0
1, 9650, Note_off_c, 1, 59, 0
1, 9650, Note_off_c, 1, 47, 0
1, 9660, Note_on_c, 1, 81, 127
1, 9660, Note_on_c, 1, 78, 127
1, 9660, Note_on_c, 1, 74, 127
1, 9660, Note_on_c, 1, 45, 127
1, 9660, Note_on_c, 1, 69, 127
1, 9660, Note_on_c, 1, 57, 127
1, 9680, Note_off_c, 1, 57, 0
1, 9690, Note_on_c, 1, 76, 127
1, 9690, Note_on_c, 1, 73, 127
1, 9690, Note_on_c, 1, 59, 127
1, 9690, Note_on_c, 1, 47, 127
1, 9700, Note_off_c, 1, 81, 0
1, 9700, Note_off_c, 1, 78, 0
1, 9700, Note_off_c, 1, 74, 0
1, 9700, Note_off_c, 1, 45, 0
1, 9700, Note_off_c, 1, 69, 0
1, 9710, Note_off_c, 1, 76, 0
1, 9710, Note_off_c, 1, 73, 0
1, 9710, Note_off_c, 1, 59, 0
1, 9710, Note_off_c, 1, 47, 0
1, 9720, Note_on_c, 1, 81, 127
1, 9720, Note_on_c, 1, 78, 127
1, 9720, Note_on_c, 1, 74, 127
1, 9720, Note_on_c, 1, 50, 127
1, 9720, Note_on_c, 1, 62, 127
1, 9720, Note_on_c, 1, 57, 127
1, 9720, Note_on_c, 1, 45, 127
1, 9740, Note_off_c, 1, 62, 0
1, 9740, Note_off_c, 1, 57, 0
1, 9740, Note_off_c, 1, 45, 0
1, 9750, Note_on_c, 1, 64, 127
1, 9770, Note_off_c, 1, 64, 0
1, 9780, Note_on_c, 1, 69, 127
1, 9780, Note_on_c, 1, 66, 127
1, 9780, Note_on_c, 1, 61, 127
1, 9780, Note_on_c, 1, 49, 127
1, 9800, Note_off_c, 1, 81, 0
1, 9800, Note_off_c, 1, 78, 0
1, 9800, Note_off_c, 1, 50, 0
1, 9800, Note_off_c, 1, 61, 0
1, 9800, Note_off_c, 1, 49, 0
1, 9810, Note_on_c, 1, 76, 127
1, 9810, Note_on_c, 1, 67, 127
1, 9810, Note_on_c, 1, 59, 127
1, 9810, Note_on_c, 1, 47, 127
1, 9820, Note_off_c, 1, 74, 0
1, 9820, Note_off_c, 1, 69, 0
1, 9820, Note_off_c, 1, 66, 0
1, 9830, Note_off_c, 1, 76, 0
1, 9830, Note_off_c, 1, 67, 0
1, 9830, Note_off_c, 1, 59, 0
1, 9830, Note_off_c, 1, 47, 0
1, 9840, Note_on_c, 1, 78, 127
1, 9840, Note_on_c, 1, 74, 127
1, 9840, Note_on_c, 1, 69, 127
1, 9840, Note_on_c, 1, 57, 127
1, 9840, Note_on_c, 1, 45, 127
1, 9860, Note_off_c, 1, 78, 0
1, 9860, Note_off_c, 1, 74, 0
1, 9860, Note_off_c, 1, 57, 0
1, 9860, Note_off_c, 1, 45, 0
1, 9870, Note_on_c, 1, 79, 127
1, 9870, Note_on_c, 1, 76, 127
1, 9870, Note_on_c, 1, 55, 127
1, 9870, Note_on_c, 1, 43, 127
1, 9880, Note_off_c, 1, 69, 0
1, 9890, Note_off_c, 1, 79, 0
1, 9890, Note_off_c, 1, 76, 0
1, 9890, Note_off_c, 1, 55, 0
1, 9890, Note_off_c, 1, 43, 0
1, 9900, Note_on_c, 1, 74, 127
1, 9900, Note_on_c, 1, 69, 127
1, 9900, Note_on_c, 1, 62, 127
1, 9900, Note_on_c, 1, 50, 127
1, 9900, Note_on_c, 1, 81, 127
1, 9900, Note_on_c, 1, 78, 127
1, 9900, Note_on_c, 1, 54, 127
1, 9900, Note_on_c, 1, 42, 127
1, 9920, Note_off_c, 1, 54, 0
1, 9920, Note_off_c, 1, 42, 0
1, 9930, Note_on_c, 1, 55, 127
1, 9930, Note_on_c, 1, 43, 127
1, 9940, Note_off_c, 1, 74, 0
1, 9940, Note_off_c, 1, 69, 0
1, 9940, Note_off_c, 1, 62, 0
1, 9940, Note_off_c, 1, 50, 0
1, 9940, Note_off_c, 1, 81, 0
1, 9940, Note_off_c, 1, 78, 0
1, 9950, Note_off_c, 1, 55, 0
1, 9950, Note_off_c, 1, 43, 0
1, 9960, Note_on_c, 1, 78, 127
1, 9960, Note_on_c, 1, 74, 127
1, 9960, Note_on_c, 1, 69, 127
1, 9960, Note_on_c, 1, 50, 127
1, 9960, Note_on_c, 1, 81, 127
1, 9960, Note_on_c, 1, 57, 127
1, 9960, Note_on_c, 1, 45, 127
1, 9980, Note_off_c, 1, 81, 0
1, 9980, Note_off_c, 1, 45, 0
1, 9990, Note_on_c, 1, 79, 127
1, 9990, Note_on_c, 1, 76, 127
1, 9990, Note_on_c, 1, 59, 127
1, 9990, Note_on_c, 1, 47, 127
1, 10000, Note_off_c, 1, 78, 0
1, 10000, Note_off_c, 1, 74, 0
1, 10000, Note_off_c, 1, 69, 0
1, 10000, Note_off_c, 1, 50, 0
1, 10000, Note_off_c, 1, 57, 0
1, 10010, Note_off_c, 1, 79, 0
1, 10010, Note_off_c, 1, 76, 0
1, 10010, Note_off_c, 1, 59, 0
1, 10010, Note_off_c, 1, 47, 0
1, 10020, Note_on_c, 1, 81, 127
1, 10020, Note_on_c, 1, 78, 127
1, 10020, Note_on_c, 1, 74, 127
1, 10020, Note_on_c, 1, 50, 127
1, 10020, Note_on_c, 1, 69, 127
1, 10020, Note_on_c, 1, 55, 127
1, 10020, Note_on_c, 1, 43, 127
1, 10040, Note_off_c, 1, 55, 0
1, 10040, Note_off_c, 1, 43, 0
1, 10050, Note_on_c, 1, 76, 127
1, 10050, Note_on_c, 1, 73, 127
1, 10050, Note_on_c, 1, 57, 127
1, 10050, Note_on_c, 1, 45, 127
1, 10060, Note_off_c, 1, 81, 0
1, 10060, Note_off_c, 1, 78, 0
1, 10060, Note_off_c, 1, 74, 0
1, 10060, Note_off_c, 1, 50, 0
1, 10060, Note_off_c, 1, 69, 0
1, 10070, Note_off_c, 1, 76, 0
1, 10070, Note_off_c, 1, 73, 0
1, 10070, Note_off_c, 1, 57, 0
1, 10070, Note_off_c, 1, 45, 0
1, 10080, Note_on_c, 1, 86, 127
1, 10080, Note_on_c, 1, 78, 127
1, 10080, Note_on_c, 1, 74, 127
1, 10080, Note_on_c, 1, 50, 127
1, 10080, Note_on_c, 1, 66, 127
1, 10080, Note_on_c, 1, 59, 127
1, 10080, Note_on_c, 1, 47, 127
1, 10100, Note_off_c, 1, 66, 0
1, 10110, Note_on_c, 1, 73, 127
1, 10110, Note_on_c, 1, 67, 127
1, 10120, Note_off_c, 1, 86, 0
1, 10120, Note_off_c, 1, 59, 0
1, 10120, Note_off_c, 1, 47, 0
1, 10130, Note_off_c, 1, 73, 0
1, 10130, Note_off_c, 1, 67, 0
1, 10140, Note_on_c, 1, 57, 127
1, 10140, Note_on_c, 1, 45, 127
1, 10160, Note_off_c, 1, 78, 0
1, 10160, Note_off_c, 1, 50, 0
1, 10160, Note_off_c, 1, 57, 0
1, 10160, Note_off_c, 1, 45, 0
1, 10170, Note_on_c, 1, 76, 127
1, 10170, Note_on_c, 1, 64, 127
1, 10170, Note_on_c, 1, 55, 127
1, 10170, Note_on_c, 1, 43, 127
1, 10180, Note_off_c, 1, 74, 0
1, 10190, Note_off_c, 1, 76, 0
1, 10190, Note_off_c, 1, 64, 0
1, 10190, Note_off_c, 1, 55, 0
1, 10190, Note_off_c, 1, 43, 0
1, 10200, Note_on_c, 1, 78, 127
1, 10200, Note_on_c, 1, 69, 127
1, 10200, Note_on_c, 1, 62, 127
1, 10200, Note_on_c, 1, 54, 127
1, 10200, Note_on_c, 1, 42, 127
1, 10220, Note_off_c, 1, 62, 0
1, 10220, Note_off_c, 1, 54, 0
1, 10220, Note_off_c, 1, 42, 0
1, 10230, Note_on_c, 1, 79, 127
1, 10230, Note_on_c, 1, 64, 127
1, 10230, Note_on_c, 1, 52, 127
1, 10230, Note_on_c, 1, 40, 127
1, 10240, Note_off_c, 1, 78, 0
1, 10240, Note_off_c, 1, 69, 0
1, 10250, Note_off_c, 1, 79, 0
1, 10250, Note_off_c, 1, 64, 0
1, 10250, Note_off_c, 1, 52, 0
1, 10250, Note_off_c, 1, 40, 0
1, 10260, Note_on_c, 1, 81, 127
1, 10260, Note_on_c, 1, 78, 127
1, 10260, Note_on_c, 1, 74, 127
1, 10260, Note_on_c, 1, 50, 127
1, 10260, Note_on_c, 1, 66, 127
1, 10260, Note_on_c, 1, 38, 127
1, 10280, Note_off_c, 1, 66, 0
1, 10280, Note_off_c, 1, 38, 0
1, 10290, Note_on_c, 1, 67, 127
1, 10290, Note_on_c, 1, 52, 127
1, 10290, Note_on_c, 1, 40, 127
1, 10300, Note_off_c, 1, 81, 0
1, 10300, Note_off_c, 1, 78, 0
1, 10300, Note_off_c, 1, 74, 0
1, 10300, Note_off_c, 1, 50, 0
1, 10310, Note_off_c, 1, 67, 0
1, 10310, Note_off_c, 1, 52, 0
1, 10310, Note_off_c, 1, 40, 0
1, 10320, Note_on_c, 1, 81, 127
1, 10320, Note_on_c, 1, 78, 127
1, 10320, Note_on_c, 1, 74, 127
1, 10320, Note_on_c, 1, 45, 127
1, 10320, Note_on_c, 1, 69, 127
1, 10320, Note_on_c, 1, 54, 127
1, 10320, Note_on_c, 1, 42, 127
1, 10340, Note_off_c, 1, 81, 0
1, 10340, Note_off_c, 1, 78, 0
1, 10340, Note_off_c, 1, 54, 0
1, 10340, Note_off_c, 1, 42, 0
1, 10350, Note_on_c, 1, 79, 127
1, 10350, Note_on_c, 1, 76, 127
1, 10350, Note_on_c, 1, 55, 127
1, 10350, Note_on_c, 1, 43, 127
1, 10360, Note_off_c, 1, 74, 0
1, 10360, Note_off_c, 1, 45, 0
1, 10360, Note_off_c, 1, 69, 0
1, 10370, Note_off_c, 1, 79, 0
1, 10370, Note_off_c, 1, 76, 0
1, 10370, Note_off_c, 1, 55, 0
1, 10370, Note_off_c, 1, 43, 0
1, 10380, Note_on_c, 1, 78, 127
1, 10380, Note_on_c, 1, 74, 127
1, 10380, Note_on_c, 1, 69, 127
1, 10380, Note_on_c, 1, 45, 127
1, 10380, Note_on_c, 1, 57, 127
1, 10400, Note_off_c, 1, 78, 0
1, 10400, Note_off_c, 1, 74, 0
1, 10410, Note_on_c, 1, 76, 127
1, 10410, Note_on_c, 1, 73, 127
1, 10420, Note_off_c, 1, 69, 0
1, 10420, Note_off_c, 1, 45, 0
1, 10420, Note_off_c, 1, 57, 0
1, 10430, Note_off_c, 1, 76, 0
1, 10430, Note_off_c, 1, 73, 0
1, 10440, Note_on_c, 1, 78, 127
1, 10440, Note_on_c, 1, 74, 127
1, 10440, Note_on_c, 1, 69, 127
1, 10440, Note_on_c, 1, 50, 127
1, 10440, Note_on_c, 1, 38, 127
1, 10460, Note_off_c, 1, 78, 0
1, 10460, Note_off_c, 1, 74, 0
1, 10470, Note_on_c, 1, 76, 127
1, 10470, Note_on_c, 1, 73, 127
1, 10480, Note_off_c, 1, 69, 0
1, 10480, Note_off_c, 1, 50, 0
1, 10480, Note_off_c, 1, 38, 0
1, 10490, Note_off_c, 1, 76, 0
1, 10490, Note_off_c, 1, 73, 0
1, 10500, Note_on_c, 1, 78, 127
1, 10500, Note_on_c, 1, 74, 127
1, 10500, Note_on_c, 1, 66, 127
1, 10500, Note_on_c, 1, 50, 127
1, 10500, Note_on_c, 1, 59, 127
1, 10500, Note_on_c, 1, 47, 127
1, 10520, Note_off_c, 1, 78, 0
1, 10520, Note_off_c, 1, 74, 0
1, 10520, Note_off_c, 1, 50, 0
1, 10530, Note_on_c, 1, 79, 127
1, 10530, Note_on_c, 1, 76, 127
1, 10540, Note_off_c, 1, 66, 0
1, 10540, Note_off_c, 1, 59, 0
1, 10540, Note_off_c, 1, 47, 0
1, 10550, Note_off_c, 1, 79, 0
1, 10550, Note_off_c, 1, 76, 0
1, 10560, Note_on_c, 1, 81, 127
1, 10560, Note_on_c, 1, 78, 127
1, 10560, Note_on_c, 1, 62, 127
1, 10560, Note_on_c, 1, 50, 127
1, 10560, Note_on_c, 1, 54, 127
1, 10560, Note_on_c, 1, 42, 127
1, 10600, Note_off_c, 1, 81, 0
1, 10600, Note_off_c, 1, 78, 0
1, 10600, Note_off_c, 1, 62, 0
1, 10600, Note_off_c, 1, 50, 0
1, 10600, Note_off_c, 1, 54, 0
1, 10600, Note_off_c, 1, 42, 0
1, 10620, Note_on_c, 1, 83, 127
1, 10620, Note_on_c, 1, 74, 127
1, 10620, Note_on_c, 1, 62, 127
1, 10620, Note_on_c, 1, 50, 127
1, 10620, Note_on_c, 1, 55, 127
1, 10620, Note_on_c, 1, 43, 127
1, 10640, Note_off_c, 1, 83, 0
1, 10650, Note_on_c, 1, 81, 127
1, 10660, Note_off_c, 1, 74, 0
1, 10660, Note_off_c, 1, 62, 0
1, 10660, Note_off_c, 1, 50, 0
1, 10660, Note_off_c, 1, 55, 0
1, 10660, Note_off_c, 1, 43, 0
1, 10670, Note_off_c, 1, 81, 0
1, 10680, Note_on_c, 1, 79, 127
1, 10680, Note_on_c, 1, 74, 127
1, 10680, Note_on_c, 1, 69, 127
1, 10680, Note_on_c, 1, 45, 127
1, 10680, Note_on_c, 1, 57, 127
1, 10700, Note_off_c, 1, 79, 0
1, 10710, Note_on_c, 1, 78, 127
1, 10720, Note_off_c, 1, 74, 0
1, 10720, Note_off_c, 1, 69, 0
1, 10720, Note_off_c, 1, 45, 0
1, 10720, Note_off_c, 1, 57, 0
1, 10730, Note_off_c, 1, 78, 0
1, 10740, Note_on_c, 1, 76, 127
1, 10740, Note_on_c, 1, 69, 127
1, 10740, Note_on_c, 1, 45, 127
1, 10740, Note_on_c, 1, 73, 127
1, 10740, Note_on_c, 1, 67, 127
1, 10740, Note_on_c, 1, 33, 127
1, 10760, Note_off_c, 1, 76, 0
1, 10770, Note_on_c, 1, 74, 127
1, 10780, Note_off_c, 1, 69, 0
1, 10780, Note_off_c, 1, 45, 0
1, 10780, Note_off_c, 1, 73, 0
1, 10780, Note_off_c, 1, 67, 0
1, 10780, Note_off_c, 1, 33, 0
1, 10790, Note_off_c, 1, 74, 0
1, 10800, Note_on_c, 1, 74, 127
1, 10800, Note_on_c, 1, 69, 127
1, 10800, Note_on_c, 1, 66, 127
1, 10800, Note_on_c, 1, 50, 127
1, 10800, Note_on_c, 1, 38, 127
1, 10840, Note_off_c, 1, 38, 0
1, 10860, Note_on_c, 1, 62, 127
1, 10860, Note_on_c, 1, 26, 127
1, 10880, Note_off_c, 1, 74, 0
1, 10880, Note_off_c, 1, 69, 0
1, 10880, Note_off_c, 1, 66, 0
1, 10880, Note_off_c, 1, 50, 0
1, 10880, Note_off_c, 1, 62, 0
1, 10890, Note_on_c, 1, 67, 127
1, 10890, Note_on_c, 1, 64, 127
1, 10900, Note_off_c, 1, 26, 0
1, 10910, Note_off_c, 1, 67, 0
1, 10910, Note_off_c, 1, 64, 0
1, 10920, Note_on_c, 1, 69, 127
1, 10920, Note_on_c, 1, 66, 127
1, 10940, Note_off_c, 1, 69, 0
1, 10950, Note_on_c, 1, 74, 127
1, 10970, Note_off_c, 1, 74, 0
1, 10980, Note_off_c, 1, 66, 0
1, 10980, Note_on_c, 1, 73, 127
1, 11000, Note_off_c, 1, 73, 0
1, 11010, Note_on_c, 1, 71, 127
1, 11010, Note_on_c, 1, 67, 127
1, 11030, Note_off_c, 1, 71, 0
1, 11030, Note_off_c, 1, 67, 0
1, 11040, Note_on_c, 1, 69, 127
1, 11040, Note_on_c, 1, 66, 127
1, 11060, Note_off_c, 1, 69, 0
1, 11060, Note_off_c, 1, 66, 0
1, 11070, Note_on_c, 1, 71, 127
1, 11070, Note_on_c, 1, 67, 127
1, 11090, Note_off_c, 1, 71, 0
1, 11090, Note_off_c, 1, 67, 0
1, 11100, Note_on_c, 1, 69, 127
1, 11100, Note_on_c, 1, 66, 127
1, 11120, Note_off_c, 1, 69, 0
1, 11120, Note_off_c, 1, 66, 0
1, 11130, Note_on_c, 1, 71, 127
1, 11130, Note_on_c, 1, 67, 127
1, 11150, Note_off_c, 1, 71, 0
1, 11150, Note_off_c, 1, 67, 0
1, 11160, Note_on_c, 1, 69, 127
1, 11160, Note_on_c, 1, 66, 127
1, 11160, Note_on_c, 1, 50, 127
1, 11160, Note_on_c, 1, 38, 127
1, 11200, Note_off_c, 1, 50, 0
1, 11200, Note_off_c, 1, 38, 0
1, 11220, Note_off_c, 1, 69, 0
1, 11220, Note_off_c, 1, 66, 0
1, 11220, Note_on_c, 1, 62, 127
1, 11220, Note_on_c, 1, 54, 127
1, 11220, Note_on_c, 1, 26, 127
1, 11240, Note_off_c, 1, 62, 0
1, 11240, Note_off_c, 1, 54, 0
1, 11250, Note_on_c, 1, 67, 127
1, 11250, Note_on_c, 1, 64, 127
1, 11250, Note_on_c, 1, 55, 127
1, 11260, Note_off_c, 1, 26, 0
1, 11270, Note_off_c, 1, 67, 0
1, 11270, Note_off_c, 1, 64, 0
1, 11270, Note_off_c, 1, 55, 0
1, 11280, Note_on_c, 1, 66, 127
1, 11280, Note_on_c, 1, 62, 127
1, 11280, Note_on_c, 1, 57, 127
1, 11300, Note_off_c, 1, 57, 0
1, 11340, Note_on_c, 1, 61, 127
1, 11360, Note_off_c, 1, 66, 0
1, 11360, Note_off_c, 1, 62, 0
1, 11360, Note_off_c, 1, 61, 0
1, 11370, Note_on_c, 1, 67, 127
1, 11370, Note_on_c, 1, 59, 127
1, 11390, Note_off_c, 1, 67, 0
1, 11390, Note_off_c, 1, 59, 0
1, 11400, Note_on_c, 1, 66, 127
1, 11400, Note_on_c, 1, 57, 127
1, 11420, Note_off_c, 1, 66, 0
1, 11420, Note_off_c, 1, 57, 0
1, 11430, Note_on_c, 1, 67, 127
1, 11430, Note_on_c, 1, 59, 127
1, 11450, Note_off_c, 1, 67, 0
1, 11450, Note_off_c, 1, 59, 0
1, 11460, Note_on_c, 1, 66, 127
1, 11460, Note_on_c, 1, 57, 127
1, 11480, Note_off_c, 1, 66, 0
1, 11480, Note_off_c, 1, 57, 0
1, 11490, Note_on_c, 1, 67, 127
1, 11490, Note_on_c, 1, 59, 127
1, 11510, Note_off_c, 1, 67, 0
1, 11510, Note_off_c, 1, 59, 0
1, 11520, Note_on_c, 1, 50, 127
1, 11520, Note_on_c, 1, 86, 127
1, 11520, Note_on_c, 1, 69, 127
1, 11520, Note_on_c, 1, 66, 127
1, 11520, Note_on_c, 1, 81, 127
1, 11520, Note_on_c, 1, 78, 127
1, 11520, Note_on_c, 1, 74, 127
1, 11520, Note_on_c, 1, 57, 127
1, 11520, Note_on_c, 1, 62, 127
1, 11540, Note_off_c, 1, 69, 0
1, 11540, Note_off_c, 1, 57, 0
1, 11550, Note_on_c, 1, 71, 127
1, 11550, Note_on_c, 1, 59, 127
1, 11560, Note_off_c, 1, 81, 0
1, 11560, Note_off_c, 1, 78, 0
1, 11560, Note_off_c, 1, 62, 0
1, 11570, Note_off_c, 1, 74, 0
1, 11570, Note_off_c, 1, 71, 0
1, 11570, Note_off_c, 1, 59, 0
1, 11580, Note_on_c, 1, 73, 127
1, 11580, Note_on_c, 1, 61, 127
1, 11580, Note_on_c, 1, 38, 127
1, 11600, Note_off_c, 1, 73, 0
1, 11600, Note_off_c, 1, 61, 0
1, 11610, Note_on_c, 1, 67, 127
1, 11620, Note_off_c, 1, 50, 0
1, 11620, Note_off_c, 1, 66, 0
1, 11620, Note_off_c, 1, 38, 0
1, 11630, Note_off_c, 1, 67, 0
1, 11670, Note_on_c, 1, 64, 127
1, 11690, Note_off_c, 1, 64, 0
1, 11880, Note_on_c, 1, 47, 127
1, 11920, Note_off_c, 1, 47, 0
1, 11940, Note_on_c, 1, 35, 127
1, 11980, Note_off_c, 1, 35, 0
1, 12240, Note_on_c, 1, 54, 127
1, 12240, Note_on_c, 1, 42, 127
1, 12280, Note_off_c, 1, 54, 0
1, 12280, Note_off_c, 1, 42, 0
1, 12297, Note_off_c, 1, 86, 0
1, 12300, Note_on_c, 1, 30, 127
1, 12340, Note_off_c, 1, 30, 0
1, 12360, Note_on_c, 1, 66, 127
1, 12360, Note_on_c, 1, 62, 127
1, 12380, Note_off_c, 1, 66, 0
1, 12380, Note_off_c, 1, 62, 0
1, 12390, Note_on_c, 1, 67, 127
1, 12390, Note_on_c, 1, 64, 127
1, 12410, Note_off_c, 1, 67, 0
1, 12410, Note_off_c, 1, 64, 0
1, 12420, Note_on_c, 1, 69, 127
1, 12420, Note_on_c, 1, 66, 127
1, 12420, Note_on_c, 1, 54, 127
1, 12420, Note_on_c, 1, 42, 127
1, 12440, Note_off_c, 1, 54, 0
1, 12440, Note_off_c, 1, 42, 0
1, 12450, Note_on_c, 1, 55, 127
1, 12450, Note_on_c, 1, 43, 127
1, 12460, Note_off_c, 1, 69, 0
1, 12460, Note_off_c, 1, 66, 0
1, 12470, Note_off_c, 1, 55, 0
1, 12470, Note_off_c, 1, 43, 0
1, 12480, Note_on_c, 1, 69, 127
1, 12480, Note_on_c, 1, 66, 127
1, 12480, Note_on_c, 1, 57, 127
1, 12480, Note_on_c, 1, 45, 127
1, 12500, Note_off_c, 1, 69, 0
1, 12500, Note_off_c, 1, 66, 0
1, 12510, Note_on_c, 1, 67, 127
1, 12510, Note_on_c, 1, 64, 127
1, 12520, Note_off_c, 1, 57, 0
1, 12520, Note_off_c, 1, 45, 0
1, 12530, Note_off_c, 1, 67, 0
1, 12530, Note_off_c, 1, 64, 0
1, 12540, Note_on_c, 1, 66, 127
1, 12540, Note_on_c, 1, 62, 127
1, 12540, Note_on_c, 1, 45, 127
1, 12540, Note_on_c, 1, 33, 127
1, 12560, Note_off_c, 1, 66, 0
1, 12560, Note_off_c, 1, 62, 0
1, 12570, Note_on_c, 1, 64, 127
1, 12570, Note_on_c, 1, 61, 127
1, 12580, Note_off_c, 1, 45, 0
1, 12580, Note_off_c, 1, 33, 0
1, 12590, Note_off_c, 1, 64, 0
1, 12590, Note_off_c, 1, 61, 0
1, 12600, Note_on_c, 1, 66, 127
1, 12600, Note_on_c, 1, 62, 127
1, 12600, Note_on_c, 1, 50, 127
1, 12600, Note_on_c, 1, 38, 127
1, 12640, Note_off_c, 1, 38, 0
1, 12660, Note_off_c, 1, 66, 0
1, 12660, Note_on_c, 1, 69, 127
1, 12680, Note_off_c, 1, 62, 0
1, 12680, Note_off_c, 1, 50, 0
1, 12690, Note_on_c, 1, 64, 127
1, 12690, Note_on_c, 1, 61, 127
1, 12690, Note_on_c, 1, 49, 127
1, 12700, Note_off_c, 1, 69, 0
1, 12710, Note_off_c, 1, 64, 0
1, 12710, Note_off_c, 1, 61, 0
1, 12710, Note_off_c, 1, 49, 0
1, 12720, Note_on_c, 1, 74, 127
1, 12720, Note_on_c, 1, 66, 127
1, 12720, Note_on_c, 1, 62, 127
1, 12720, Note_on_c, 1, 50, 127
1, 12720, Note_on_c, 1, 59, 127
1, 12720, Note_on_c, 1, 47, 127
1, 12740, Note_off_c, 1, 74, 0
1, 12750, Note_on_c, 1, 76, 127
1, 12750, Note_on_c, 1, 67, 127
1, 12760, Note_off_c, 1, 59, 0
1, 12760, Note_off_c, 1, 47, 0
1, 12770, Note_off_c, 1, 76, 0
1, 12770, Note_off_c, 1, 67, 0
1, 12780, Note_on_c, 1, 78, 127
1, 12780, Note_on_c, 1, 69, 127
1, 12780, Note_on_c, 1, 57, 127
1, 12780, Note_on_c, 1, 45, 127
1, 12800, Note_off_c, 1, 66, 0
1, 12800, Note_off_c, 1, 62, 0
1, 12800, Note_off_c, 1, 50, 0
1, 12800, Note_off_c, 1, 57, 0
1, 12800, Note_off_c, 1, 45, 0
1, 12810, Note_on_c, 1, 55, 127
1, 12810, Note_on_c, 1, 43, 127
1, 12820, Note_off_c, 1, 78, 0
1, 12820, Note_off_c, 1, 69, 0
1, 12830, Note_off_c, 1, 55, 0
1, 12830, Note_off_c, 1, 43, 0
1, 12840, Note_on_c, 1, 78, 127
1, 12840, Note_on_c, 1, 69, 127
1, 12840, Note_on_c, 1, 57, 127
1, 12840, Note_on_c, 1, 45, 127
1, 12860, Note_off_c, 1, 78, 0
1, 12860, Note_off_c, 1, 69, 0
1, 12870, Note_on_c, 1, 76, 127
1, 12870, Note_on_c, 1, 67, 127
1, 12880, Note_off_c, 1, 57, 0
1, 12880, Note_off_c, 1, 45, 0
1, 12890, Note_off_c, 1, 76, 0
1, 12890, Note_off_c, 1, 67, 0
1, 12900, Note_on_c, 1, 73, 127
1, 12900, Note_on_c, 1, 69, 127
1, 12900, Note_on_c, 1, 64, 127
1, 12900, Note_on_c, 1, 74, 127
1, 12900, Note_on_c, 1, 66, 127
1, 12900, Note_on_c, 1, 57, 127
1, 12900, Note_on_c, 1, 45, 127
1, 12900, Note_on_c, 1, 33, 127
1, 12920, Note_off_c, 1, 74, 0
1, 12920, Note_off_c, 1, 66, 0
1, 12940, Note_off_c, 1, 69, 0
1, 12940, Note_off_c, 1, 57, 0
1, 12940, Note_off_c, 1, 45, 0
1, 12940, Note_off_c, 1, 33, 0
1, 12950, Note_off_c, 1, 73, 0
1, 12950, Note_off_c, 1, 64, 0
1, 12960, Note_on_c, 1, 78, 127
1, 12960, Note_on_c, 1, 81, 127
1, 12960, Note_on_c, 1, 74, 127
1, 12960, Note_on_c, 1, 50, 127
1, 12960, Note_on_c, 1, 69, 127
1, 12960, Note_on_c, 1, 62, 127
1, 12960, Note_on_c, 1, 66, 127
1, 12960, Note_on_c, 1, 38, 127
1, 12990, Note_on_c, 1, 79, 127
1, 12990, Note_on_c, 1, 71, 127
1, 12990, Note_on_c, 1, 61, 127
1, 13000, Note_off_c, 1, 81, 0
1, 13000, Note_off_c, 1, 38, 0
1, 13010, Note_off_c, 1, 79, 0
1, 13010, Note_off_c, 1, 71, 0
1, 13010, Note_off_c, 1, 61, 0
1, 13020, Note_off_c, 1, 74, 0
1, 13020, Note_on_c, 1, 54, 127
1, 13020, Note_on_c, 1, 42, 127
1, 13040, Note_off_c, 1, 50, 0
1, 13040, Note_off_c, 1, 62, 0
1, 13050, Note_on_c, 1, 76, 127
1, 13050, Note_on_c, 1, 67, 127
1, 13050, Note_on_c, 1, 64, 127
1, 13060, Note_off_c, 1, 54, 0
1, 13060, Note_off_c, 1, 42, 0
1, 13070, Note_off_c, 1, 69, 0
1, 13070, Note_off_c, 1, 66, 0
1, 13070, Note_off_c, 1, 67, 0
1, 13070, Note_off_c, 1, 64, 0
1, 13077, Note_off_c, 1, 76, 0
1, 13080, Note_on_c, 1, 59, 127
1, 13080, Note_on_c, 1, 57, 127
1, 13080, Note_on_c, 1, 45, 127
1, 13120, Note_off_c, 1, 57, 0
1, 13120, Note_off_c, 1, 45, 0
1, 13160, Note_off_c, 1, 59, 0
1, 13290, Note_on_c, 1, 73, 127
1, 13317, Note_off_c, 1, 78, 0
1, 13317, Note_off_c, 1, 73, 0
1, 13320, Note_on_c, 1, 83, 127
1, 13320, Note_on_c, 1, 68, 127
1, 13320, Note_on_c, 1, 56, 127
1, 13320, Note_on_c, 1, 44, 127
1, 13360, Note_off_c, 1, 83, 0
1, 13360, Note_off_c, 1, 68, 0
1, 13360, Note_off_c, 1, 56, 0
1, 13360, Note_off_c, 1, 44, 0
1, 13380, Note_on_c, 1, 80, 127
1, 13380, Note_on_c, 1, 52, 127
1, 13380, Note_on_c, 1, 40, 127
1, 13420, Note_off_c, 1, 80, 0
1, 13420, Note_off_c, 1, 52, 0
1, 13420, Note_off_c, 1, 40, 0
1, 13500, Note_on_c, 1, 49, 127
1, 13540, Note_off_c, 1, 49, 0
1, 13650, Note_on_c, 1, 55, 127
1, 13670, Note_off_c, 1, 55, 0
1, 13890, Note_on_c, 1, 43, 127
1, 13910, Note_off_c, 1, 43, 0
1, 14010, Note_on_c, 1, 37, 127
1, 14030, Note_off_c, 1, 37, 0
1, 14040, Note_on_c, 1, 47, 127
1, 14040, Note_on_c, 1, 35, 127
1, 14080, Note_off_c, 1, 47, 0
1, 14080, Note_off_c, 1, 35, 0
1, 14310, Note_on_c, 1, 33, 127
1, 14330, Note_off_c, 1, 33, 0
1, 14340, Note_on_c, 1, 32, 127
1, 14360, Note_off_c, 1, 32, 0
1, 14370, Note_on_c, 1, 30, 127
1, 14390, Note_off_c, 1, 30, 0
1, 14400, Note_on_c, 1, 28, 127
1, 14440, Note_off_c, 1, 28, 0
1, 14520, Note_on_c, 1, 78, 127
1, 14520, Note_on_c, 1, 74, 127
1, 14520, Note_on_c, 1, 71, 127
1, 14520, Note_on_c, 1, 64, 127
1, 14520, Note_on_c, 1, 47, 127
1, 14520, Note_on_c, 1, 35, 127
1, 14540, Note_off_c, 1, 74, 0
1, 14547, Note_off_c, 1, 78, 0
1, 14550, Note_on_c, 1, 80, 127
1, 14550, Note_on_c, 1, 73, 127
1, 14560, Note_off_c, 1, 64, 0
1, 14560, Note_off_c, 1, 47, 0
1, 14560, Note_off_c, 1, 35, 0
1, 14570, Note_off_c, 1, 73, 0
1, 14577, Note_off_c, 1, 80, 0
1, 14580, Note_on_c, 1, 76, 127
1, 14580, Note_on_c, 1, 68, 127
1, 14580, Note_on_c, 1, 56, 127
1, 14580, Note_on_c, 1, 44, 127
1, 14580, Note_on_c, 1, 32, 127
1, 14600, Note_off_c, 1, 56, 0
1, 14607, Note_off_c, 1, 76, 0
1, 14610, Note_on_c, 1, 69, 127
1, 14610, Note_on_c, 1, 57, 127
1, 14610, Note_on_c, 1, 54, 127
1, 14620, Note_off_c, 1, 68, 0
1, 14620, Note_off_c, 1, 44, 0
1, 14620, Note_off_c, 1, 32, 0
1, 14630, Note_off_c, 1, 69, 0
1, 14630, Note_off_c, 1, 57, 0
1, 14630, Note_off_c, 1, 54, 0
1, 14640, Note_on_c, 1, 59, 127
1, 14640, Note_on_c, 1, 52, 127
1, 14640, Note_on_c, 1, 40, 127
1, 14640, Note_on_c, 1, 28, 127
1, 14660, Note_off_c, 1, 52, 0
1, 14670, Note_on_c, 1, 81, 127
1, 14680, Note_off_c, 1, 71, 0
1, 14680, Note_off_c, 1, 59, 0
1, 14680, Note_off_c, 1, 40, 0
1, 14680, Note_off_c, 1, 28, 0
1, 14697, Note_off_c, 1, 81, 0
1, 14700, Note_on_c, 1, 61, 127
1, 14700, Note_on_c, 1, 50, 127
1, 14700, Note_on_c, 1, 38, 127
1, 14720, Note_off_c, 1, 61, 0
1, 14730, Note_on_c, 1, 62, 127
1, 14740, Note_off_c, 1, 38, 0
1, 14750, Note_off_c, 1, 50, 0
1, 14750, Note_off_c, 1, 62, 0
1, 14760, Note_on_c, 1, 49, 127
1, 14760, Note_on_c, 1, 37, 127
1, 14800, Note_off_c, 1, 49, 0
1, 14800, Note_off_c, 1, 37, 0
1, 14820, Note_on_c, 1, 45, 127
1, 14860, Note_off_c, 1, 45, 0
1, 14880, Note_on_c, 1, 81, 127
1, 14880, Note_on_c, 1, 74, 127
1, 14880, Note_on_c, 1, 76, 127
1, 14880, Note_on_c, 1, 73, 127
1, 14880, Note_on_c, 1, 67, 127
1, 14880, Note_on_c, 1, 52, 127
1, 14880, Note_on_c, 1, 40, 127
1, 14900, Note_off_c, 1, 74, 0
1, 14907, Note_off_c, 1, 81, 0
1, 14910, Note_on_c, 1, 83, 127
1, 14920, Note_off_c, 1, 76, 0
1, 14920, Note_off_c, 1, 52, 0
1, 14920, Note_off_c, 1, 40, 0
1, 14930, Note_off_c, 1, 73, 0
1, 14937, Note_off_c, 1, 83, 0
1, 14940, Note_on_c, 1, 71, 127
1, 14940, Note_on_c, 1, 79, 127
1, 14940, Note_on_c, 1, 61, 127
1, 14940, Note_on_c, 1, 64, 127
1, 14940, Note_on_c, 1, 49, 127
1, 14940, Note_on_c, 1, 37, 127
1, 14960, Note_off_c, 1, 71, 0
1, 14970, Note_on_c, 1, 69, 127
1, 14970, Note_on_c, 1, 62, 127
1, 14970, Note_on_c, 1, 59, 127
1, 14980, Note_off_c, 1, 79, 0
1, 14980, Note_off_c, 1, 61, 0
1, 14980, Note_off_c, 1, 64, 0
1, 14980, Note_off_c, 1, 49, 0
1, 14980, Note_off_c, 1, 37, 0
1, 14990, Note_off_c, 1, 69, 0
1, 14990, Note_off_c, 1, 62, 0
1, 14990, Note_off_c, 1, 59, 0
1, 15000, Note_off_c, 1, 67, 0
1, 15000, Note_on_c, 1, 85, 127
1, 15000, Note_on_c, 1, 57, 127
1, 15000, Note_on_c, 1, 45, 127
1, 15000, Note_on_c, 1, 33, 127
1, 15027, Note_off_c, 1, 85, 0
1, 15030, Note_on_c, 1, 86, 127
1, 15040, Note_off_c, 1, 45, 0
1, 15040, Note_off_c, 1, 33, 0
1, 15057, Note_off_c, 1, 86, 0
1, 15060, Note_on_c, 1, 78, 127
1, 15060, Note_on_c, 1, 66, 127
1, 15060, Note_on_c, 1, 55, 127
1, 15060, Note_on_c, 1, 43, 127
1, 15080, Note_off_c, 1, 78, 0
1, 15080, Note_off_c, 1, 66, 0
1, 15100, Note_off_c, 1, 43, 0
1, 15110, Note_off_c, 1, 57, 0
1, 15110, Note_off_c, 1, 55, 0
1, 15120, Note_on_c, 1, 54, 127
1, 15120, Note_on_c, 1, 42, 127
1, 15160, Note_off_c, 1, 54, 0
1, 15160, Note_off_c, 1, 42, 0
1, 15180, Note_on_c, 1, 50, 127
1, 15180, Note_on_c, 1, 38, 127
1, 15220, Note_off_c, 1, 50, 0
1, 15220, Note_off_c, 1, 38, 0
1, 15240, Note_on_c, 1, 83, 127
1, 15240, Note_on_c, 1, 71, 127
1, 15240, Note_on_c, 1, 74, 127
1, 15240, Note_on_c, 1, 66, 127
1, 15240, Note_on_c, 1, 59, 127
1, 15240, Note_on_c, 1, 54, 127
1, 15240, Note_on_c, 1, 42, 127
1, 15260, Note_off_c, 1, 66, 0
1, 15267, Note_off_c, 1, 83, 0
1, 15270, Note_on_c, 1, 81, 127
1, 15270, Note_on_c, 1, 73, 127
1, 15270, Note_on_c, 1, 64, 127
1, 15280, Note_off_c, 1, 71, 0
1, 15280, Note_off_c, 1, 59, 0
1, 15280, Note_off_c, 1, 54, 0
1, 15280, Note_off_c, 1, 42, 0
1, 15290, Note_off_c, 1, 73, 0
1, 15290, Note_off_c, 1, 64, 0
1, 15297, Note_off_c, 1, 81, 0
1, 15300, Note_on_c, 1, 80, 127
1, 15300, Note_on_c, 1, 62, 127
1, 15300, Note_on_c, 1, 57, 127
1, 15300, Note_on_c, 1, 47, 127
1, 15320, Note_off_c, 1, 62, 0
1, 15327, Note_off_c, 1, 80, 0
1, 15330, Note_on_c, 1, 78, 127
1, 15330, Note_on_c, 1, 69, 127
1, 15330, Note_on_c, 1, 61, 127
1, 15340, Note_off_c, 1, 57, 0
1, 15340, Note_off_c, 1, 47, 0
1, 15350, Note_off_c, 1, 69, 0
1, 15350, Note_off_c, 1, 61, 0
1, 15357, Note_off_c, 1, 78, 0
1, 15360, Note_on_c, 1, 56, 127
1, 15400, Note_off_c, 1, 56, 0
1, 15420, Note_on_c, 1, 76, 127
1, 15420, Note_on_c, 1, 44, 127
1, 15447, Note_off_c, 1, 76, 0
1, 15460, Note_off_c, 1, 44, 0
1, 15480, Note_on_c, 1, 68, 127
1, 15480, Note_on_c, 1, 52, 127
1, 15480, Note_on_c, 1, 40, 127
1, 15520, Note_off_c, 1, 74, 0
1, 15520, Note_off_c, 1, 68, 0
1, 15520, Note_off_c, 1, 52, 0
1, 15520, Note_off_c, 1, 40, 0
1, 15540, Note_on_c, 1, 86, 127
1, 15540, Note_on_c, 1, 83, 127
1, 15540, Note_on_c, 1, 76, 127
1, 15540, Note_on_c, 1, 81, 127
1, 15540, Note_on_c, 1, 64, 127
1, 15540, Note_on_c, 1, 71, 127
1, 15540, Note_on_c, 1, 59, 127
1, 15540, Note_on_c, 1, 56, 127
1, 15540, Note_on_c, 1, 44, 127
1, 15560, Note_off_c, 1, 76, 0
1, 15570, Note_on_c, 1, 78, 127
1, 15570, Note_on_c, 1, 62, 127
1, 15580, Note_off_c, 1, 83, 0
1, 15580, Note_off_c, 1, 81, 0
1, 15580, Note_off_c, 1, 64, 0
1, 15580, Note_off_c, 1, 71, 0
1, 15580, Note_off_c, 1, 59, 0
1, 15580, Note_off_c, 1, 56, 0
1, 15580, Note_off_c, 1, 44, 0
1, 15590, Note_off_c, 1, 78, 0
1, 15590, Note_off_c, 1, 62, 0
1, 15597, Note_off_c, 1, 86, 0
1, 15600, Note_on_c, 1, 85, 127
1, 15600, Note_on_c, 1, 81, 127
1, 15600, Note_on_c, 1, 76, 127
1, 15600, Note_on_c, 1, 69, 127
1, 15600, Note_on_c, 1, 73, 127
1, 15600, Note_on_c, 1, 64, 127
1, 15600, Note_on_c, 1, 61, 127
1, 15600, Note_on_c, 1, 57, 127
1, 15600, Note_on_c, 1, 45, 127
1, 15620, Note_off_c, 1, 81, 0
1, 15627, Note_off_c, 1, 85, 0
1, 15630, Note_on_c, 1, 83, 127
1, 15630, Note_on_c, 1, 80, 127
1, 15630, Note_on_c, 1, 74, 127
1, 15630, Note_on_c, 1, 59, 127
1, 15640, Note_off_c, 1, 76, 0
1, 15640, Note_off_c, 1, 69, 0
1, 15640, Note_off_c, 1, 73, 0
1, 15640, Note_off_c, 1, 64, 0
1, 15640, Note_off_c, 1, 61, 0
1, 15640, Note_off_c, 1, 57, 0
1, 15640, Note_off_c, 1, 45, 0
1, 15650, Note_off_c, 1, 80, 0
1, 15650, Note_off_c, 1, 74, 0
1, 15650, Note_off_c, 1, 59, 0
1, 15657, Note_off_c, 1, 83, 0
1, 15660, Note_on_c, 1, 81, 127
1, 15660, Note_on_c, 1, 78, 127
1, 15660, Note_on_c, 1, 73, 127
1, 15660, Note_on_c, 1, 69, 127
1, 15660, Note_on_c, 1, 66, 127
1, 15660, Note_on_c, 1, 57, 127
1, 15660, Note_on_c, 1, 50, 127
1, 15660, Note_on_c, 1, 38, 127
1, 15670, Note_off_c, 1, 57, 0
1, 15670, Note_on_c, 1, 59, 127
1, 15680, Note_off_c, 1, 78, 0
1, 15680, Note_off_c, 1, 59, 0
1, 15690, Note_on_c, 1, 83, 127
1, 15690, Note_on_c, 1, 80, 127
1, 15690, Note_on_c, 1, 71, 127
1, 15690, Note_on_c, 1, 61, 127
1, 15700, Note_off_c, 1, 81, 0
1, 15700, Note_off_c, 1, 73, 0
1, 15700, Note_off_c, 1, 69, 0
1, 15700, Note_off_c, 1, 66, 0
1, 15700, Note_off_c, 1, 50, 0
1, 15700, Note_off_c, 1, 38, 0
1, 15710, Note_off_c, 1, 80, 0
1, 15710, Note_off_c, 1, 71, 0
1, 15710, Note_off_c, 1, 61, 0
1, 15717, Note_off_c, 1, 83, 0
1, 15720, Note_on_c, 1, 83, 127
1, 15720, Note_on_c, 1, 80, 127
1, 15720, Note_on_c, 1, 71, 127
1, 15720, Note_on_c, 1, 69, 127
1, 15720, Note_on_c, 1, 64, 127
1, 15720, Note_on_c, 1, 59, 127
1, 15720, Note_on_c, 1, 52, 127
1, 15720, Note_on_c, 1, 40, 127
1, 15735, Note_off_c, 1, 83, 0
1, 15735, Note_off_c, 1, 80, 0
1, 15735, Note_on_c, 1, 85, 127
1, 15735, Note_on_c, 1, 81, 127
1, 15740, Note_off_c, 1, 69, 0
1, 15750, Note_off_c, 1, 85, 0
1, 15750, Note_off_c, 1, 81, 0
1, 15750, Note_on_c, 1, 68, 127
1, 15760, Note_off_c, 1, 71, 0
1, 15760, Note_off_c, 1, 64, 0
1, 15760, Note_off_c, 1, 52, 0
1, 15760, Note_off_c, 1, 40, 0
1, 15770, Note_off_c, 1, 68, 0
1, 15780, Note_on_c, 1, 74, 127
1, 15780, Note_on_c, 1, 56, 127
1, 15780, Note_on_c, 1, 28, 127
1, 15795, Note_on_c, 1, 78, 127
1, 15800, Note_off_c, 1, 59, 0
1, 15810, Note_off_c, 1, 78, 0
1, 15810, Note_on_c, 1, 76, 127
1, 15820, Note_off_c, 1, 74, 0
1, 15820, Note_off_c, 1, 56, 0
1, 15820, Note_off_c, 1, 28, 0
1, 15830, Note_off_c, 1, 76, 0
1, 15840, Note_on_c, 1, 81, 127
1, 15840, Note_on_c, 1, 76, 127
1, 15840, Note_on_c, 1, 69, 127
1, 15840, Note_on_c, 1, 45, 127
1, 15840, Note_on_c, 1, 73, 127
1, 15840, Note_on_c, 1, 64, 127
1, 15840, Note_on_c, 1, 61, 127
1, 15840, Note_on_c, 1, 57, 127
1, 15840, Note_on_c, 1, 33, 127
1, 15880, Note_off_c, 1, 61, 0
1, 15880, Note_off_c, 1, 57, 0
1, 15880, Note_off_c, 1, 33, 0
1, 15920, Note_off_c, 1, 81, 0
1, 15920, Note_off_c, 1, 76, 0
1, 15920, Note_off_c, 1, 69, 0
1, 15920, Note_off_c, 1, 73, 0
1, 15920, Note_off_c, 1, 64, 0
1, 15930, Note_on_c, 1, 62, 127
1, 15930, Note_on_c, 1, 59, 127
1, 15940, Note_off_c, 1, 45, 0
1, 15950, Note_off_c, 1, 62, 0
1, 15950, Note_off_c, 1, 59, 0
1, 15960, Note_on_c, 1, 64, 127
1, 15960, Note_on_c, 1, 61, 127
1, 15980, Note_off_c, 1, 64, 0
1, 15990, Note_on_c, 1, 69, 127
1, 16010, Note_off_c, 1, 69, 0
1, 16020, Note_off_c, 1, 61, 0
1, 16020, Note_on_c, 1, 68, 127
1, 16040, Note_off_c, 1, 68, 0
1, 16050, Note_on_c, 1, 66, 127
1, 16050, Note_on_c, 1, 62, 127
1, 16070, Note_off_c, 1, 66, 0
1, 16070, Note_off_c, 1, 62, 0
1, 16080, Note_on_c, 1, 64, 127
1, 16080, Note_on_c, 1, 61, 127
1, 16100, Note_off_c, 1, 64, 0
1, 16100, Note_off_c, 1, 61, 0
1, 16110, Note_on_c, 1, 66, 127
1, 16110, Note_on_c, 1, 62, 127
1, 16130, Note_off_c, 1, 66, 0
1, 16130, Note_off_c, 1, 62, 0
1, 16140, Note_on_c, 1, 64, 127
1, 16140, Note_on_c, 1, 61, 127
1, 16160, Note_off_c, 1, 64, 0
1, 16160, Note_off_c, 1, 61, 0
1, 16170, Note_on_c, 1, 66, 127
1, 16170, Note_on_c, 1, 62, 127
1, 16190, Note_off_c, 1, 66, 0
1, 16190, Note_off_c, 1, 62, 0
1, 16200, Note_on_c, 1, 64, 127
1, 16200, Note_on_c, 1, 61, 127
1, 16200, Note_on_c, 1, 45, 127
1, 16200, Note_on_c, 1, 33, 127
1, 16240, Note_off_c, 1, 45, 0
1, 16240, Note_off_c, 1, 33, 0
1, 16260, Note_off_c, 1, 64, 0
1, 16260, Note_on_c, 1, 69, 127
1, 16260, Note_on_c, 1, 57, 127
1, 16280, Note_off_c, 1, 61, 0
1, 16280, Note_off_c, 1, 69, 0
1, 16290, Note_on_c, 1, 71, 127
1, 16290, Note_on_c, 1, 62, 127
1, 16310, Note_off_c, 1, 57, 0
1, 16310, Note_off_c, 1, 71, 0
1, 16310, Note_off_c, 1, 62, 0
1, 16320, Note_on_c, 1, 73, 127
1, 16320, Note_on_c, 1, 64, 127
1, 16320, Note_on_c, 1, 61, 127
1, 16320, Note_on_c, 1, 57, 127
1, 16340, Note_off_c, 1, 64, 0
1, 16350, Note_on_c, 1, 69, 127
1, 16370, Note_off_c, 1, 69, 0
1, 16380, Note_off_c, 1, 73, 0
1, 16380, Note_on_c, 1, 68, 127
1, 16400, Note_off_c, 1, 61, 0
1, 16400, Note_off_c, 1, 57, 0
1, 16400, Note_off_c, 1, 68, 0
1, 16410, Note_on_c, 1, 74, 127
1, 16410, Note_on_c, 1, 66, 127
1, 16430, Note_off_c, 1, 74, 0
1, 16430, Note_off_c, 1, 66, 0
1, 16440, Note_on_c, 1, 73, 127
1, 16440, Note_on_c, 1, 64, 127
1, 16460, Note_off_c, 1, 73, 0
1, 16460, Note_off_c, 1, 64, 0
1, 16470, Note_on_c, 1, 74, 127
1, 16470, Note_on_c, 1, 66, 127
1, 16490, Note_off_c, 1, 74, 0
1, 16490, Note_off_c, 1, 66, 0
1, 16500, Note_on_c, 1, 73, 127
1, 16500, Note_on_c, 1, 64, 127
1, 16520, Note_off_c, 1, 73, 0
1, 16520, Note_off_c, 1, 64, 0
1, 16530, Note_on_c, 1, 74, 127
1, 16530, Note_on_c, 1, 66, 127
1, 16550, Note_off_c, 1, 74, 0
1, 16550, Note_off_c, 1, 66, 0
1, 16560, Note_on_c, 1, 81, 127
1, 16560, Note_on_c, 1, 76, 127
1, 16560, Note_on_c, 1, 69, 127
1, 16560, Note_on_c, 1, 45, 127
1, 16560, Note_on_c, 1, 85, 127
1, 16560, Note_on_c, 1, 73, 127
1, 16560, Note_on_c, 1, 64, 127
1, 16560, Note_on_c, 1, 33, 127
1, 16580, Note_off_c, 1, 64, 0
1, 16590, Note_on_c, 1, 78, 127
1, 16590, Note_on_c, 1, 66, 127
1, 16600, Note_off_c, 1, 76, 0
1, 16600, Note_off_c, 1, 69, 0
1, 16600, Note_off_c, 1, 33, 0
1, 16610, Note_off_c, 1, 78, 0
1, 16610, Note_off_c, 1, 66, 0
1, 16620, Note_off_c, 1, 85, 0
1, 16620, Note_on_c, 1, 57, 127
1, 16620, Note_on_c, 1, 80, 127
1, 16620, Note_on_c, 1, 68, 127
1, 16620, Note_on_c, 1, 61, 127
1, 16640, Note_off_c, 1, 80, 0
1, 16640, Note_off_c, 1, 68, 0
1, 16650, Note_on_c, 1, 86, 127
1, 16650, Note_on_c, 1, 74, 127
1, 16660, Note_off_c, 1, 45, 0
1, 16660, Note_off_c, 1, 57, 0
1, 16660, Note_off_c, 1, 61, 0
1, 16670, Note_off_c, 1, 86, 0
1, 16670, Note_off_c, 1, 74, 0
1, 16710, Note_on_c, 1, 83, 127
1, 16730, Note_off_c, 1, 83, 0
1, 16920, Note_on_c, 1, 42, 127
1, 16920, Note_on_c, 1, 30, 127
1, 16960, Note_off_c, 1, 42, 0
1, 16960, Note_off_c, 1, 30, 0
1, 16980, Note_on_c, 1, 54, 127
1, 17020, Note_off_c, 1, 54, 0
1, 17280, Note_on_c, 1, 88, 127
1, 17280, Note_on_c, 1, 37, 127
1, 17280, Note_on_c, 1, 25, 127
1, 17320, Note_off_c, 1, 81, 0
1, 17320, Note_off_c, 1, 88, 0
1, 17320, Note_off_c, 1, 37, 0
1, 17320, Note_off_c, 1, 25, 0
1, 17340, Note_on_c, 1, 49, 127
1, 17360, Note_off_c, 1, 73, 0
1, 17370, Note_on_c, 1, 71, 127
1, 17380, Note_off_c, 1, 49, 0
1, 17390, Note_off_c, 1, 71, 0
1, 17400, Note_on_c, 1, 73, 127
1, 17400, Note_on_c, 1, 69, 127
1, 17420, Note_off_c, 1, 73, 0
1, 17420, Note_off_c, 1, 69, 0
1, 17430, Note_on_c, 1, 74, 127
1, 17430, Note_on_c, 1, 71, 127
1, 17450, Note_off_c, 1, 74, 0
1, 17450, Note_off_c, 1, 71, 0
1, 17460, Note_on_c, 1, 76, 127
1, 17460, Note_on_c, 1, 73, 127
1, 17460, Note_on_c, 1, 49, 127
1, 17460, Note_on_c, 1, 37, 127
1, 17480, Note_off_c, 1, 49, 0
1, 17480, Note_off_c, 1, 37, 0
1, 17490, Note_on_c, 1, 50, 127
1, 17490, Note_on_c, 1, 38, 127
1, 17500, Note_off_c, 1, 76, 0
1, 17500, Note_off_c, 1, 73, 0
1, 17510, Note_off_c, 1, 50, 0
1, 17510, Note_off_c, 1, 38, 0
1, 17520, Note_on_c, 1, 76, 127
1, 17520, Note_on_c, 1, 73, 127
1, 17520, Note_on_c, 1, 52, 127
1, 17520, Note_on_c, 1, 40, 127
1, 17540, Note_off_c, 1, 76, 0
1, 17540, Note_off_c, 1, 73, 0
1, 17550, Note_on_c, 1, 74, 127
1, 17550, Note_on_c, 1, 71, 127
1, 17560, Note_off_c, 1, 52, 0
1, 17560, Note_off_c, 1, 40, 0
1, 17570, Note_off_c, 1, 74, 0
1, 17570, Note_off_c, 1, 71, 0
1, 17580, Note_on_c, 1, 73, 127
1, 17580, Note_on_c, 1, 69, 127
1, 17580, Note_on_c, 1, 40, 127
1, 17580, Note_on_c, 1, 28, 127
1, 17600, Note_off_c, 1, 73, 0
1, 17600, Note_off_c, 1, 69, 0
1, 17610, Note_on_c, 1, 71, 127
1, 17610, Note_on_c, 1, 68, 127
1, 17620, Note_off_c, 1, 40, 0
1, 17620, Note_off_c, 1, 28, 0
1, 17630, Note_off_c, 1, 71, 0
1, 17630, Note_off_c, 1, 68, 0
1, 17640, Note_on_c, 1, 73, 127
1, 17640, Note_on_c, 1, 69, 127
1, 17640, Note_on_c, 1, 45, 127
1, 17640, Note_on_c, 1, 33, 127
1, 17680, Note_off_c, 1, 45, 0
1, 17680, Note_off_c, 1, 33, 0
1, 17700, Note_off_c, 1, 73, 0
1, 17700, Note_off_c, 1, 69, 0
1, 17700, Note_on_c, 1, 64, 127
1, 17700, Note_on_c, 1, 57, 127
1, 17720, Note_off_c, 1, 57, 0
1, 17730, Note_on_c, 1, 59, 127
1, 17730, Note_on_c, 1, 56, 127
1, 17730, Note_on_c, 1, 44, 127
1, 17740, Note_off_c, 1, 64, 0
1, 17750, Note_off_c, 1, 59, 0
1, 17750, Note_off_c, 1, 56, 0
1, 17750, Note_off_c, 1, 44, 0
1, 17760, Note_on_c, 1, 73, 127
1, 17760, Note_on_c, 1, 69, 127
1, 17760, Note_on_c, 1, 61, 127
1, 17760, Note_on_c, 1, 54, 127
1, 17760, Note_on_c, 1, 42, 127
1, 17780, Note_off_c, 1, 61, 0
1, 17790, Note_on_c, 1, 71, 127
1, 17790, Note_on_c, 1, 62, 127
1, 17800, Note_off_c, 1, 54, 0
1, 17800, Note_off_c, 1, 42, 0
1, 17810, Note_off_c, 1, 71, 0
1, 17810, Note_off_c, 1, 62, 0
1, 17820, Note_on_c, 1, 64, 127
1, 17820, Note_on_c, 1, 49, 127
1, 17820, Note_on_c, 1, 52, 127
1, 17820, Note_on_c, 1, 40, 127
1, 17840, Note_off_c, 1, 69, 0
1, 17840, Note_off_c, 1, 49, 0
1, 17840, Note_off_c, 1, 52, 0
1, 17840, Note_off_c, 1, 40, 0
1, 17850, Note_on_c, 1, 50, 127
1, 17850, Note_on_c, 1, 38, 127
1, 17860, Note_off_c, 1, 73, 0
1, 17860, Note_off_c, 1, 64, 0
1, 17870, Note_off_c, 1, 50, 0
1, 17870, Note_off_c, 1, 38, 0
1, 17880, Note_on_c, 1, 73, 127
1, 17880, Note_on_c, 1, 64, 127
1, 17880, Note_on_c, 1, 52, 127
1, 17880, Note_on_c, 1, 40, 127
1, 17900, Note_off_c, 1, 73, 0
1, 17900, Note_off_c, 1, 64, 0
1, 17910, Note_on_c, 1, 71, 127
1, 17910, Note_on_c, 1, 62, 127
1, 17920, Note_off_c, 1, 52, 0
1, 17920, Note_off_c, 1, 40, 0
1, 17930, Note_off_c, 1, 71, 0
1, 17930, Note_off_c, 1, 62, 0
1, 17940, Note_on_c, 1, 69, 127
1, 17940, Note_on_c, 1, 61, 127
1, 17940, Note_on_c, 1, 64, 127
1, 17940, Note_on_c, 1, 40, 127
1, 17940, Note_on_c, 1, 28, 127
1, 17960, Note_off_c, 1, 69, 0
1, 17960, Note_off_c, 1, 61, 0
1, 17970, Note_on_c, 1, 68, 127
1, 17970, Note_on_c, 1, 59, 127
1, 17980, Note_off_c, 1, 64, 0
1, 17980, Note_off_c, 1, 40, 0
1, 17980, Note_off_c, 1, 28, 0
1, 17990, Note_off_c, 1, 68, 0
1, 17990, Note_off_c, 1, 59, 0
1, 18000, Note_on_c, 1, 88, 127
1, 18000, Note_on_c, 1, 85, 127
1, 18000, Note_on_c, 1, 76, 127
1, 18000, Note_on_c, 1, 73, 127
1, 18000, Note_on_c, 1, 69, 127
1, 18000, Note_on_c, 1, 57, 127
1, 18000, Note_on_c, 1, 45, 127
1, 18000, Note_on_c, 1, 33, 127
1, 18040, Note_off_c, 1, 88, 0
1, 18040, Note_off_c, 1, 85, 0
1, 18040, Note_off_c, 1, 45, 0
1, 18040, Note_off_c, 1, 33, 0
1, 18060, Note_off_c, 1, 76, 0
1, 18060, Note_on_c, 1, 81, 127
1, 18080, Note_off_c, 1, 73, 0
1, 18080, Note_off_c, 1, 69, 0
1, 18090, Note_on_c, 1, 74, 127
1, 18090, Note_on_c, 1, 71, 127
1, 18090, Note_on_c, 1, 52, 127
1, 18100, Note_off_c, 1, 81, 0
1, 18110, Note_off_c, 1, 57, 0
1, 18110, Note_off_c, 1, 74, 0
1, 18110, Note_off_c, 1, 71, 0
1, 18110, Note_off_c, 1, 52, 0
1, 18120, Note_on_c, 1, 76, 127
1, 18120, Note_on_c, 1, 73, 127
1, 18120, Note_on_c, 1, 64, 127
1, 18120, Note_on_c, 1, 61, 127
1, 18120, Note_on_c, 1, 57, 127
1, 18120, Note_on_c, 1, 69, 127
1, 18120, Note_on_c, 1, 52, 127
1, 18150, Note_on_c, 1, 74, 127
1, 18160, Note_off_c, 1, 64, 0
1, 18160, Note_off_c, 1, 61, 0
1, 18170, Note_off_c, 1, 74, 0
1, 18180, Note_on_c, 1, 81, 127
1, 18200, Note_off_c, 1, 73, 0
1, 18200, Note_off_c, 1, 57, 0
1, 18200, Note_off_c, 1, 52, 0
1, 18220, Note_off_c, 1, 76, 0
1, 18220, Note_off_c, 1, 69, 0
1, 18220, Note_off_c, 1, 81, 0
1, 18240, Note_on_c, 1, 81, 127
1, 18240, Note_on_c, 1, 73, 127
1, 18240, Note_on_c, 1, 69, 127
1, 18240, Note_on_c, 1, 66, 127
1, 18260, Note_off_c, 1, 81, 0
1, 18270, Note_on_c, 1, 79, 127
1, 18280, Note_off_c, 1, 73, 0
1, 18280, Note_off_c, 1, 69, 0
1, 18280, Note_off_c, 1, 66, 0
1, 18290, Note_off_c, 1, 79, 0
1, 18300, Note_on_c, 1, 78, 127
1, 18300, Note_on_c, 1, 69, 127
1, 18320, Note_off_c, 1, 78, 0
1, 18330, Note_on_c, 1, 76, 127
1, 18340, Note_off_c, 1, 69, 0
1, 18350, Note_off_c, 1, 76, 0
1, 18360, Note_on_c, 1, 85, 127
1, 18360, Note_on_c, 1, 78, 127
1, 18360, Note_on_c, 1, 73, 127
1, 18360, Note_on_c, 1, 66, 127
1, 18360, Note_on_c, 1, 61, 127
1, 18360, Note_on_c, 1, 46, 127
1, 18360, Note_on_c, 1, 34, 127
1, 18390, Note_on_c, 1, 74, 127
1, 18400, Note_off_c, 1, 85, 0
1, 18400, Note_off_c, 1, 46, 0
1, 18400, Note_off_c, 1, 34, 0
1, 18410, Note_off_c, 1, 74, 0
1, 18420, Note_on_c, 1, 76, 127
1, 18420, Note_on_c, 1, 58, 127
1, 18440, Note_off_c, 1, 66, 0
1, 18440, Note_off_c, 1, 61, 0
1, 18450, Note_on_c, 1, 68, 127
1, 18460, Note_off_c, 1, 73, 0
1, 18460, Note_off_c, 1, 76, 0
1, 18460, Note_off_c, 1, 58, 0
1, 18470, Note_off_c, 1, 68, 0
1, 18480, Note_on_c, 1, 70, 127
1, 18500, Note_off_c, 1, 70, 0
1, 18510, Note_on_c, 1, 71, 127
1, 18530, Note_off_c, 1, 71, 0
1, 18720, Note_on_c, 1, 83, 127
1, 18720, Note_on_c, 1, 47, 127
1, 18720, Note_on_c, 1, 35, 127
1, 18760, Note_off_c, 1, 83, 0
1, 18760, Note_off_c, 1, 47, 0
1, 18760, Note_off_c, 1, 35, 0
1, 18780, Note_on_c, 1, 59, 127
1, 18820, Note_off_c, 1, 59, 0
1, 18960, Note_on_c, 1, 62, 127
1, 19000, Note_off_c, 1, 78, 0
1, 19000, Note_off_c, 1, 62, 0
1, 19050, Note_on_c, 1, 69, 127
1, 19070, Note_off_c, 1, 69, 0
1, 19080, Note_on_c, 1, 80, 127
1, 19080, Note_on_c, 1, 41, 127
1, 19080, Note_on_c, 1, 29, 127
1, 19120, Note_off_c, 1, 41, 0
1, 19120, Note_off_c, 1, 29, 0
1, 19140, Note_on_c, 1, 53, 127
1, 19170, Note_on_c, 1, 63, 127
1, 19180, Note_off_c, 1, 53, 0
1, 19190, Note_off_c, 1, 63, 0
1, 19200, Note_on_c, 1, 65, 127
1, 19220, Note_off_c, 1, 65, 0
1, 19260, Note_on_c, 1, 77, 127
1, 19300, Note_off_c, 1, 77, 0
1, 19440, Note_on_c, 1, 81, 127
1, 19440, Note_on_c, 1, 42, 127
1, 19440, Note_on_c, 1, 30, 127
1, 19480, Note_off_c, 1, 81, 0
1, 19480, Note_off_c, 1, 42, 0
1, 19480, Note_off_c, 1, 30, 0
1, 19500, Note_on_c, 1, 54, 127
1, 19520, Note_off_c, 1, 80, 0
1, 19530, Note_on_c, 1, 56, 127
1, 19540, Note_off_c, 1, 54, 0
1, 19550, Note_off_c, 1, 56, 0
1, 19560, Note_on_c, 1, 57, 127
1, 19580, Note_off_c, 1, 57, 0
1, 19680, Note_on_c, 1, 67, 127
1, 19700, Note_off_c, 1, 67, 0
1, 19740, Note_on_c, 1, 64, 127
1, 19740, Note_on_c, 1, 55, 127
1, 19760, Note_off_c, 1, 64, 0
1, 19760, Note_off_c, 1, 55, 0
1, 19800, Note_on_c, 1, 88, 127
1, 19800, Note_on_c, 1, 37, 127
1, 19800, Note_on_c, 1, 25, 127
1, 19840, Note_off_c, 1, 88, 0
1, 19840, Note_off_c, 1, 37, 0
1, 19840, Note_off_c, 1, 25, 0
1, 19860, Note_on_c, 1, 45, 127
1, 19860, Note_on_c, 1, 49, 127
1, 19880, Note_off_c, 1, 45, 0
1, 19900, Note_off_c, 1, 49, 0
1, 19950, Note_on_c, 1, 50, 127
1, 19970, Note_off_c, 1, 50, 0
1, 19980, Note_on_c, 1, 52, 127
1, 20000, Note_off_c, 1, 52, 0
1, 20220, Note_on_c, 1, 38, 127
1, 20260, Note_off_c, 1, 38, 0
1, 20280, Note_on_c, 1, 74, 127
1, 20280, Note_on_c, 1, 69, 127
1, 20280, Note_on_c, 1, 66, 127
1, 20280, Note_on_c, 1, 62, 127
1, 20280, Note_on_c, 1, 54, 127
1, 20300, Note_off_c, 1, 54, 0
1, 20310, Note_on_c, 1, 64, 127
1, 20310, Note_on_c, 1, 55, 127
1, 20320, Note_off_c, 1, 69, 0
1, 20330, Note_off_c, 1, 64, 0
1, 20330, Note_off_c, 1, 55, 0
1, 20340, Note_on_c, 1, 57, 127
1, 20380, Note_off_c, 1, 74, 0
1, 20380, Note_off_c, 1, 66, 0
1, 20380, Note_off_c, 1, 57, 0
1, 20397, Note_off_c, 1, 62, 0
1, 20400, Note_on_c, 1, 78, 127
1, 20400, Note_on_c, 1, 74, 127
1, 20400, Note_on_c, 1, 69, 127
1, 20400, Note_on_c, 1, 66, 127
1, 20400, Note_on_c, 1, 57, 127
1, 20420, Note_off_c, 1, 66, 0
1, 20420, Note_off_c, 1, 57, 0
1, 20430, Note_on_c, 1, 64, 127
1, 20430, Note_on_c, 1, 55, 127
1, 20440, Note_off_c, 1, 78, 0
1, 20440, Note_off_c, 1, 74, 0
1, 20440, Note_off_c, 1, 69, 0
1, 20450, Note_off_c, 1, 64, 0
1, 20450, Note_off_c, 1, 55, 0
1, 20460, Note_on_c, 1, 81, 127
1, 20460, Note_on_c, 1, 78, 127
1, 20460, Note_on_c, 1, 74, 127
1, 20460, Note_on_c, 1, 62, 127
1, 20460, Note_on_c, 1, 54, 127
1, 20480, Note_off_c, 1, 62, 0
1, 20480, Note_off_c, 1, 54, 0
1, 20490, Note_on_c, 1, 61, 127
1, 20490, Note_on_c, 1, 52, 127
1, 20500, Note_off_c, 1, 81, 0
1, 20500, Note_off_c, 1, 78, 0
1, 20500, Note_off_c, 1, 74, 0
1, 20510, Note_off_c, 1, 61, 0
1, 20510, Note_off_c, 1, 52, 0
1, 20520, Note_on_c, 1, 78, 127
1, 20520, Note_on_c, 1, 74, 127
1, 20520, Note_on_c, 1, 69, 127
1, 20520, Note_on_c, 1, 50, 127
1, 20520, Note_on_c, 1, 81, 127
1, 20520, Note_on_c, 1, 62, 127
1, 20520, Note_on_c, 1, 54, 127
1, 20520, Note_on_c, 1, 59, 127
1, 20520, Note_on_c, 1, 47, 127
1, 20560, Note_off_c, 1, 69, 0
1, 20560, Note_off_c, 1, 59, 0
1, 20560, Note_off_c, 1, 47, 0
1, 20580, Note_off_c, 1, 54, 0
1, 20580, Note_on_c, 1, 66, 127
1, 20580, Note_on_c, 1, 35, 127
1, 20600, Note_off_c, 1, 78, 0
1, 20600, Note_off_c, 1, 50, 0
1, 20600, Note_off_c, 1, 81, 0
1, 20600, Note_off_c, 1, 62, 0
1, 20610, Note_on_c, 1, 67, 127
1, 20610, Note_on_c, 1, 64, 127
1, 20620, Note_off_c, 1, 74, 0
1, 20620, Note_off_c, 1, 66, 0
1, 20620, Note_off_c, 1, 35, 0
1, 20630, Note_off_c, 1, 67, 0
1, 20630, Note_off_c, 1, 64, 0
1, 20640, Note_on_c, 1, 78, 127
1, 20640, Note_on_c, 1, 74, 127
1, 20640, Note_on_c, 1, 69, 127
1, 20640, Note_on_c, 1, 66, 127
1, 20640, Note_on_c, 1, 62, 127
1, 20640, Note_on_c, 1, 54, 127
1, 20660, Note_off_c, 1, 66, 0
1, 20670, Note_on_c, 1, 76, 127
1, 20670, Note_on_c, 1, 67, 127
1, 20680, Note_off_c, 1, 78, 0
1, 20680, Note_off_c, 1, 74, 0
1, 20690, Note_off_c, 1, 76, 0
1, 20690, Note_off_c, 1, 67, 0
1, 20697, Note_off_c, 1, 69, 0
1, 20720, Note_off_c, 1, 62, 0
1, 20720, Note_off_c, 1, 54, 0
1, 20760, Note_on_c, 1, 86, 127
1, 20760, Note_on_c, 1, 78, 127
1, 20760, Note_on_c, 1, 74, 127
1, 20760, Note_on_c, 1, 69, 127
1, 20790, Note_on_c, 1, 76, 127
1, 20790, Note_on_c, 1, 67, 127
1, 20800, Note_off_c, 1, 78, 0
1, 20800, Note_off_c, 1, 74, 0
1, 20800, Note_off_c, 1, 69, 0
1, 20810, Note_off_c, 1, 76, 0
1, 20810, Note_off_c, 1, 67, 0
1, 20820, Note_on_c, 1, 81, 127
1, 20820, Note_on_c, 1, 66, 127
1, 20840, Note_off_c, 1, 66, 0
1, 20850, Note_on_c, 1, 73, 127
1, 20850, Note_on_c, 1, 64, 127
1, 20860, Note_off_c, 1, 81, 0
1, 20870, Note_off_c, 1, 73, 0
1, 20870, Note_off_c, 1, 64, 0
1, 20880, Note_on_c, 1, 50, 127
1, 20880, Note_on_c, 1, 54, 127
1, 20880, Note_on_c, 1, 42, 127
1, 20920, Note_off_c, 1, 54, 0
1, 20920, Note_off_c, 1, 42, 0
1, 20940, Note_on_c, 1, 30, 127
1, 20960, Note_off_c, 1, 50, 0
1, 20970, Note_on_c, 1, 71, 127
1, 20980, Note_off_c, 1, 30, 0
1, 20990, Note_off_c, 1, 71, 0
1, 21000, Note_off_c, 1, 86, 0
1, 21060, Note_on_c, 1, 81, 127
1, 21060, Note_on_c, 1, 78, 127
1, 21060, Note_on_c, 1, 74, 127
1, 21060, Note_on_c, 1, 50, 127
1, 21060, Note_on_c, 1, 85, 127
1, 21060, Note_on_c, 1, 76, 127
1, 21060, Note_on_c, 1, 67, 127
1, 21060, Note_on_c, 1, 69, 127
1, 21060, Note_on_c, 1, 62, 127
1, 21060, Note_on_c, 1, 66, 127
1, 21060, Note_on_c, 1, 57, 127
1, 21060, Note_on_c, 1, 54, 127
1, 21060, Note_on_c, 1, 42, 127
1, 21080, Note_off_c, 1, 85, 0
1, 21080, Note_off_c, 1, 76, 0
1, 21080, Note_off_c, 1, 54, 0
1, 21080, Note_off_c, 1, 42, 0
1, 21087, Note_off_c, 1, 67, 0
1, 21090, Note_on_c, 1, 83, 127
1, 21090, Note_on_c, 1, 71, 127
1, 21090, Note_on_c, 1, 55, 127
1, 21090, Note_on_c, 1, 43, 127
1, 21100, Note_off_c, 1, 81, 0
1, 21100, Note_off_c, 1, 78, 0
1, 21100, Note_off_c, 1, 50, 0
1, 21100, Note_off_c, 1, 69, 0
1, 21100, Note_off_c, 1, 62, 0
1, 21100, Note_off_c, 1, 57, 0
1, 21110, Note_off_c, 1, 74, 0
1, 21110, Note_off_c, 1, 83, 0
1, 21110, Note_off_c, 1, 71, 0
1, 21110, Note_off_c, 1, 55, 0
1, 21110, Note_off_c, 1, 43, 0
1, 21117, Note_off_c, 1, 66, 0
1, 21120, Note_on_c, 1, 81, 127
1, 21120, Note_on_c, 1, 74, 127
1, 21120, Note_on_c, 1, 45, 127
1, 21120, Note_on_c, 1, 73, 127
1, 21120, Note_on_c, 1, 64, 127
1, 21120, Note_on_c, 1, 69, 127
1, 21120, Note_on_c, 1, 57, 127
1, 21140, Note_off_c, 1, 81, 0
1, 21140, Note_off_c, 1, 74, 0
1, 21150, Note_on_c, 1, 79, 127
1, 21150, Note_on_c, 1, 83, 127
1, 21160, Note_off_c, 1, 45, 0
1, 21170, Note_off_c, 1, 79, 0
1, 21170, Note_off_c, 1, 83, 0
1, 21180, Note_off_c, 1, 73, 0
1, 21180, Note_off_c, 1, 57, 0
1, 21180, Note_on_c, 1, 78, 127
1, 21180, Note_on_c, 1, 71, 127
1, 21180, Note_on_c, 1, 33, 127
1, 21200, Note_off_c, 1, 78, 0
1, 21200, Note_off_c, 1, 71, 0
1, 21210, Note_on_c, 1, 76, 127
1, 21220, Note_off_c, 1, 33, 0
1, 21230, Note_off_c, 1, 64, 0
1, 21230, Note_off_c, 1, 76, 0
1, 21237, Note_off_c, 1, 69, 0
1, 21240, Note_on_c, 1, 78, 127
1, 21240, Note_on_c, 1, 74, 127
1, 21240, Note_on_c, 1, 69, 127
1, 21240, Note_on_c, 1, 50, 127
1, 21240, Note_on_c, 1, 62, 127
1, 21240, Note_on_c, 1, 66, 127
1, 21240, Note_on_c, 1, 57, 127
1, 21240, Note_on_c, 1, 38, 127
1, 21260, Note_off_c, 1, 78, 0
1, 21270, Note_on_c, 1, 76, 127
1, 21270, Note_on_c, 1, 79, 127
1, 21280, Note_off_c, 1, 62, 0
1, 21280, Note_off_c, 1, 38, 0
1, 21290, Note_off_c, 1, 76, 0
1, 21290, Note_off_c, 1, 79, 0
1, 21320, Note_off_c, 1, 50, 0
1, 21330, Note_on_c, 1, 61, 127
1, 21330, Note_on_c, 1, 49, 127
1, 21340, Note_off_c, 1, 74, 0
1, 21340, Note_off_c, 1, 69, 0
1, 21340, Note_off_c, 1, 66, 0
1, 21340, Note_off_c, 1, 57, 0
1, 21350, Note_off_c, 1, 61, 0
1, 21350, Note_off_c, 1, 49, 0
1, 21360, Note_on_c, 1, 78, 127
1, 21360, Note_on_c, 1, 74, 127
1, 21360, Note_on_c, 1, 69, 127
1, 21360, Note_on_c, 1, 66, 127
1, 21360, Note_on_c, 1, 59, 127
1, 21360, Note_on_c, 1, 47, 127
1, 21380, Note_off_c, 1, 78, 0
1, 21390, Note_on_c, 1, 79, 127
1, 21390, Note_on_c, 1, 86, 127
1, 21400, Note_off_c, 1, 74, 0
1, 21400, Note_off_c, 1, 69, 0
1, 21400, Note_off_c, 1, 66, 0
1, 21400, Note_off_c, 1, 59, 0
1, 21400, Note_off_c, 1, 47, 0
1, 21410, Note_off_c, 1, 79, 0
1, 21410, Note_off_c, 1, 86, 0
1, 21420, Note_on_c, 1, 81, 127
1, 21420, Note_on_c, 1, 78, 127
1, 21420, Note_on_c, 1, 74, 127
1, 21420, Note_on_c, 1, 50, 127
1, 21420, Note_on_c, 1, 85, 127
1, 21420, Note_on_c, 1, 69, 127
1, 21420, Note_on_c, 1, 66, 127
1, 21420, Note_on_c, 1, 57, 127
1, 21420, Note_on_c, 1, 54, 127
1, 21420, Note_on_c, 1, 42, 127
1, 21440, Note_off_c, 1, 85, 0
1, 21440, Note_off_c, 1, 54, 0
1, 21440, Note_off_c, 1, 42, 0
1, 21450, Note_on_c, 1, 83, 127
1, 21450, Note_on_c, 1, 55, 127
1, 21450, Note_on_c, 1, 43, 127
1, 21460, Note_off_c, 1, 81, 0
1, 21460, Note_off_c, 1, 78, 0
1, 21460, Note_off_c, 1, 74, 0
1, 21460, Note_off_c, 1, 50, 0
1, 21460, Note_off_c, 1, 69, 0
1, 21460, Note_off_c, 1, 66, 0
1, 21460, Note_off_c, 1, 57, 0
1, 21470, Note_off_c, 1, 83, 0
1, 21470, Note_off_c, 1, 55, 0
1, 21470, Note_off_c, 1, 43, 0
1, 21480, Note_on_c, 1, 81, 127
1, 21480, Note_on_c, 1, 76, 127
1, 21480, Note_on_c, 1, 45, 127
1, 21480, Note_on_c, 1, 69, 127
1, 21480, Note_on_c, 1, 73, 127
1, 21480, Note_on_c, 1, 64, 127
1, 21480, Note_on_c, 1, 57, 127
1, 21500, Note_off_c, 1, 81, 0
1, 21510, Note_on_c, 1, 79, 127
1, 21510, Note_on_c, 1, 74, 127
1, 21510, Note_on_c, 1, 83, 127
1, 21520, Note_off_c, 1, 76, 0
1, 21520, Note_off_c, 1, 45, 0
1, 21530, Note_off_c, 1, 79, 0
1, 21530, Note_off_c, 1, 74, 0
1, 21530, Note_off_c, 1, 83, 0
1, 21540, Note_off_c, 1, 64, 0
1, 21540, Note_off_c, 1, 57, 0
1, 21540, Note_on_c, 1, 78, 127
1, 21540, Note_on_c, 1, 61, 127
1, 21540, Note_on_c, 1, 33, 127
1, 21560, Note_off_c, 1, 78, 0
1, 21580, Note_off_c, 1, 61, 0
1, 21580, Note_off_c, 1, 33, 0
1, 21590, Note_off_c, 1, 69, 0
1, 21590, Note_off_c, 1, 73, 0
1, 21600, Note_on_c, 1, 78, 127
1, 21600, Note_on_c, 1, 74, 127
1, 21600, Note_on_c, 1, 69, 127
1, 21600, Note_on_c, 1, 50, 127
1, 21600, Note_on_c, 1, 57, 127
1, 21600, Note_on_c, 1, 66, 127
1, 21600, Note_on_c, 1, 38, 127
1, 21630, Note_on_c, 1, 79, 127
1, 21630, Note_on_c, 1, 71, 127
1, 21640, Note_off_c, 1, 78, 0
1, 21640, Note_off_c, 1, 57, 0
1, 21640, Note_off_c, 1, 66, 0
1, 21640, Note_off_c, 1, 38, 0
1, 21650, Note_off_c, 1, 79, 0
1, 21650, Note_off_c, 1, 71, 0
1, 21660, Note_on_c, 1, 62, 127
1, 21690, Note_on_c, 1, 76, 127
1, 21690, Note_on_c, 1, 67, 127
1, 21690, Note_on_c, 1, 64, 127
1, 21700, Note_off_c, 1, 74, 0
1, 21700, Note_off_c, 1, 69, 0
1, 21700, Note_off_c, 1, 50, 0
1, 21700, Note_off_c, 1, 62, 0
1, 21710, Note_off_c, 1, 76, 0
1, 21710, Note_off_c, 1, 67, 0
1, 21710, Note_off_c, 1, 64, 0
1, 21720, Note_on_c, 1, 74, 127
1, 21720, Note_on_c, 1, 66, 127
1, 21720, Note_on_c, 1, 62, 127
1, 21750, Note_on_c, 1, 71, 127
1, 21760, Note_off_c, 1, 74, 0
1, 21760, Note_off_c, 1, 66, 0
1, 21770, Note_off_c, 1, 71, 0
1, 21780, Note_off_c, 1, 62, 0
1, 21780, Note_on_c, 1, 69, 127
1, 21800, Note_off_c, 1, 69, 0
1, 21810, Note_on_c, 1, 67, 127
1, 21810, Note_on_c, 1, 64, 127
1, 21830, Note_off_c, 1, 67, 0
1, 21830, Note_off_c, 1, 64, 0
1, 21840, Note_on_c, 1, 66, 127
1, 21840, Note_on_c, 1, 62, 127
1, 21860, Note_off_c, 1, 66, 0
1, 21860, Note_off_c, 1, 62, 0
1, 21870, Note_on_c, 1, 67, 127
1, 21870, Note_on_c, 1, 64, 127
1, 21890, Note_off_c, 1, 67, 0
1, 21890, Note_off_c, 1, 64, 0
1, 21900, Note_on_c, 1, 66, 127
1, 21900, Note_on_c, 1, 62, 127
1, 21920, Note_off_c, 1, 66, 0
1, 21920, Note_off_c, 1, 62, 0
1, 21930, Note_on_c, 1, 67, 127
1, 21930, Note_on_c, 1, 64, 127
1, 21950, Note_off_c, 1, 67, 0
1, 21950, Note_off_c, 1, 64, 0
1, 21960, Note_on_c, 1, 66, 127
1, 21960, Note_on_c, 1, 62, 127
1, 21960, Note_on_c, 1, 50, 127
1, 21960, Note_on_c, 1, 38, 127
1, 22000, Note_off_c, 1, 50, 0
1, 22000, Note_off_c, 1, 38, 0
1, 22020, Note_off_c, 1, 62, 0
1, 22020, Note_on_c, 1, 71, 127
1, 22020, Note_on_c, 1, 59, 127
1, 22020, Note_on_c, 1, 47, 127
1, 22040, Note_off_c, 1, 71, 0
1, 22040, Note_off_c, 1, 59, 0
1, 22040, Note_off_c, 1, 47, 0
1, 22050, Note_on_c, 1, 73, 127
1, 22050, Note_on_c, 1, 61, 127
1, 22050, Note_on_c, 1, 57, 127
1, 22050, Note_on_c, 1, 45, 127
1, 22070, Note_off_c, 1, 66, 0
1, 22070, Note_off_c, 1, 73, 0
1, 22070, Note_off_c, 1, 61, 0
1, 22070, Note_off_c, 1, 57, 0
1, 22070, Note_off_c, 1, 45, 0
1, 22080, Note_on_c, 1, 74, 127
1, 22080, Note_on_c, 1, 71, 127
1, 22080, Note_on_c, 1, 67, 127
1, 22080, Note_on_c, 1, 59, 127
1, 22080, Note_on_c, 1, 55, 127
1, 22080, Note_on_c, 1, 43, 127
1, 22100, Note_off_c, 1, 74, 0
1, 22100, Note_off_c, 1, 71, 0
1, 22110, Note_on_c, 1, 76, 127
1, 22110, Note_on_c, 1, 73, 127
1, 22120, Note_off_c, 1, 55, 0
1, 22120, Note_off_c, 1, 43, 0
1, 22130, Note_off_c, 1, 76, 0
1, 22130, Note_off_c, 1, 73, 0
1, 22140, Note_on_c, 1, 78, 127
1, 22140, Note_on_c, 1, 54, 127
1, 22140, Note_on_c, 1, 50, 127
1, 22140, Note_on_c, 1, 38, 127
1, 22160, Note_off_c, 1, 67, 0
1, 22160, Note_off_c, 1, 59, 0
1, 22160, Note_off_c, 1, 54, 0
1, 22160, Note_off_c, 1, 50, 0
1, 22160, Note_off_c, 1, 38, 0
1, 22170, Note_on_c, 1, 52, 127
1, 22170, Note_on_c, 1, 40, 127
1, 22180, Note_off_c, 1, 78, 0
1, 22190, Note_off_c, 1, 52, 0
1, 22190, Note_off_c, 1, 40, 0
1, 22200, Note_on_c, 1, 78, 127
1, 22200, Note_on_c, 1, 74, 127
1, 22200, Note_on_c, 1, 54, 127
1, 22200, Note_on_c, 1, 42, 127
1, 22220, Note_off_c, 1, 78, 0
1, 22220, Note_off_c, 1, 74, 0
1, 22230, Note_on_c, 1, 76, 127
1, 22230, Note_on_c, 1, 73, 127
1, 22240, Note_off_c, 1, 54, 0
1, 22240, Note_off_c, 1, 42, 0
1, 22250, Note_off_c, 1, 76, 0
1, 22250, Note_off_c, 1, 73, 0
1, 22260, Note_on_c, 1, 74, 127
1, 22260, Note_on_c, 1, 71, 127
1, 22260, Note_on_c, 1, 78, 127
1, 22260, Note_on_c, 1, 73, 127
1, 22260, Note_on_c, 1, 66, 127
1, 22260, Note_on_c, 1, 42, 127
1, 22260, Note_on_c, 1, 30, 127
1, 22280, Note_off_c, 1, 74, 0
1, 22280, Note_off_c, 1, 71, 0
1, 22290, Note_on_c, 1, 70, 127
1, 22300, Note_off_c, 1, 78, 0
1, 22300, Note_off_c, 1, 66, 0
1, 22300, Note_off_c, 1, 42, 0
1, 22300, Note_off_c, 1, 30, 0
1, 22310, Note_off_c, 1, 73, 0
1, 22310, Note_off_c, 1, 70, 0
1, 22320, Note_on_c, 1, 74, 127
1, 22320, Note_on_c, 1, 71, 127
1, 22320, Note_on_c, 1, 66, 127
1, 22320, Note_on_c, 1, 47, 127
1, 22320, Note_on_c, 1, 35, 127
1, 22360, Note_off_c, 1, 47, 0
1, 22360, Note_off_c, 1, 35, 0
1, 22380, Note_off_c, 1, 74, 0
1, 22380, Note_on_c, 1, 59, 127
1, 22380, Note_on_c, 1, 54, 127
1, 22410, Note_on_c, 1, 73, 127
1, 22410, Note_on_c, 1, 64, 127
1, 22410, Note_on_c, 1, 61, 127
1, 22420, Note_off_c, 1, 71, 0
1, 22420, Note_off_c, 1, 59, 0
1, 22420, Note_off_c, 1, 54, 0
1, 22430, Note_off_c, 1, 66, 0
1, 22430, Note_off_c, 1, 73, 0
1, 22430, Note_off_c, 1, 64, 0
1, 22430, Note_off_c, 1, 61, 0
1, 22440, Note_on_c, 1, 71, 127
1, 22440, Note_on_c, 1, 66, 127
1, 22440, Note_on_c, 1, 62, 127
1, 22440, Note_on_c, 1, 59, 127
1, 22470, Note_on_c, 1, 67, 127
1, 22490, Note_off_c, 1, 67, 0
1, 22500, Note_off_c, 1, 59, 0
1, 22520, Note_off_c, 1, 71, 0
1, 22520, Note_off_c, 1, 66, 0
1, 22520, Note_off_c, 1, 62, 0
1, 22530, Note_on_c, 1, 64, 127
1, 22530, Note_on_c, 1, 60, 127
1, 22550, Note_off_c, 1, 64, 0
1, 22550, Note_off_c, 1, 60, 0
1, 22560, Note_on_c, 1, 62, 127
1, 22560, Note_on_c, 1, 59, 127
1, 22580, Note_off_c, 1, 62, 0
1, 22580, Note_off_c, 1, 59, 0
1, 22590, Note_on_c, 1, 64, 127
1, 22590, Note_on_c, 1, 60, 127
1, 22610, Note_off_c, 1, 64, 0
1, 22610, Note_off_c, 1, 60, 0
1, 22620, Note_on_c, 1, 62, 127
1, 22620, Note_on_c, 1, 59, 127
1, 22640, Note_off_c, 1, 62, 0
1, 22640, Note_off_c, 1, 59, 0
1, 22650, Note_on_c, 1, 64, 127
1, 22650, Note_on_c, 1, 60, 127
1, 22670, Note_off_c, 1, 64, 0
1, 22670, Note_off_c, 1, 60, 0
1, 22680, Note_on_c, 1, 62, 127
1, 22680, Note_on_c, 1, 59, 127
1, 22680, Note_on_c, 1, 43, 127
1, 22680, Note_on_c, 1, 31, 127
1, 22720, Note_off_c, 1, 43, 0
1, 22720, Note_off_c, 1, 31, 0
1, 22740, Note_off_c, 1, 62, 0
1, 22740, Note_off_c, 1, 59, 0
1, 22740, Note_on_c, 1, 79, 127
1, 22740, Note_on_c, 1, 74, 127
1, 22740, Note_on_c, 1, 55, 127
1, 22760, Note_off_c, 1, 79, 0
1, 22760, Note_off_c, 1, 55, 0
1, 22770, Note_on_c, 1, 81, 127
1, 22770, Note_on_c, 1, 66, 127
1, 22770, Note_on_c, 1, 57, 127
1, 22770, Note_on_c, 1, 54, 127
1, 22770, Note_on_c, 1, 42, 127
1, 22780, Note_off_c, 1, 74, 0
1, 22790, Note_off_c, 1, 81, 0
1, 22790, Note_off_c, 1, 66, 0
1, 22790, Note_off_c, 1, 57, 0
1, 22790, Note_off_c, 1, 54, 0
1, 22790, Note_off_c, 1, 42, 0
1, 22800, Note_on_c, 1, 83, 127
1, 22800, Note_on_c, 1, 79, 127
1, 22800, Note_on_c, 1, 59, 127
1, 22800, Note_on_c, 1, 55, 127
1, 22800, Note_on_c, 1, 52, 127
1, 22800, Note_on_c, 1, 40, 127
1, 22820, Note_off_c, 1, 83, 0
1, 22820, Note_off_c, 1, 79, 0
1, 22830, Note_on_c, 1, 84, 127
1, 22830, Note_on_c, 1, 81, 127
1, 22840, Note_off_c, 1, 52, 0
1, 22840, Note_off_c, 1, 40, 0
1, 22850, Note_off_c, 1, 84, 0
1, 22850, Note_off_c, 1, 81, 0
1, 22860, Note_on_c, 1, 86, 127
1, 22860, Note_on_c, 1, 47, 127
1, 22860, Note_on_c, 1, 35, 127
1, 22880, Note_off_c, 1, 59, 0
1, 22880, Note_off_c, 1, 55, 0
1, 22880, Note_off_c, 1, 47, 0
1, 22880, Note_off_c, 1, 35, 0
1, 22890, Note_on_c, 1, 49, 127
1, 22890, Note_on_c, 1, 37, 127
1, 22900, Note_off_c, 1, 86, 0
1, 22910, Note_off_c, 1, 49, 0
1, 22910, Note_off_c, 1, 37, 0
1, 22920, Note_on_c, 1, 86, 127
1, 22920, Note_on_c, 1, 83, 127
1, 22920, Note_on_c, 1, 50, 127
1, 22920, Note_on_c, 1, 38, 127
1, 22940, Note_off_c, 1, 86, 0
1, 22940, Note_off_c, 1, 83, 0
1, 22950, Note_on_c, 1, 84, 127
1, 22950, Note_on_c, 1, 81, 127
1, 22960, Note_off_c, 1, 50, 0
1, 22960, Note_off_c, 1, 38, 0
1, 22970, Note_off_c, 1, 84, 0
1, 22970, Note_off_c, 1, 81, 0
1, 22980, Note_on_c, 1, 83, 127
1, 22980, Note_on_c, 1, 79, 127
1, 22980, Note_on_c, 1, 62, 127
1, 22980, Note_on_c, 1, 50, 127
1, 22980, Note_on_c, 1, 38, 127
1, 22980, Note_on_c, 1, 26, 127
1, 23000, Note_off_c, 1, 83, 0
1, 23000, Note_off_c, 1, 79, 0
1, 23010, Note_on_c, 1, 81, 127
1, 23010, Note_on_c, 1, 78, 127
1, 23020, Note_off_c, 1, 62, 0
1, 23020, Note_off_c, 1, 50, 0
1, 23020, Note_off_c, 1, 38, 0
1, 23020, Note_off_c, 1, 26, 0
1, 23030, Note_off_c, 1, 81, 0
1, 23030, Note_off_c, 1, 78, 0
1, 23040, Note_on_c, 1, 83, 127
1, 23040, Note_on_c, 1, 79, 127
1, 23040, Note_on_c, 1, 62, 127
1, 23040, Note_on_c, 1, 59, 127
1, 23040, Note_on_c, 1, 55, 127
1, 23040, Note_on_c, 1, 43, 127
1, 23040, Note_on_c, 1, 31, 127
1, 23080, Note_off_c, 1, 83, 0
1, 23080, Note_off_c, 1, 79, 0
1, 23080, Note_off_c, 1, 43, 0
1, 23080, Note_off_c, 1, 31, 0
1, 23100, Note_off_c, 1, 59, 0
1, 23100, Note_on_c, 1, 74, 127
1, 23100, Note_on_c, 1, 67, 127
1, 23120, Note_off_c, 1, 67, 0
1, 23130, Note_on_c, 1, 69, 127
1, 23130, Note_on_c, 1, 60, 127
1, 23130, Note_on_c, 1, 57, 127
1, 23140, Note_off_c, 1, 62, 0
1, 23140, Note_off_c, 1, 55, 0
1, 23140, Note_off_c, 1, 74, 0
1, 23150, Note_off_c, 1, 69, 0
1, 23150, Note_off_c, 1, 60, 0
1, 23150, Note_off_c, 1, 57, 0
1, 23160, Note_on_c, 1, 71, 127
1, 23160, Note_on_c, 1, 67, 127
1, 23160, Note_on_c, 1, 59, 127
1, 23160, Note_on_c, 1, 55, 127
1, 23160, Note_on_c, 1, 43, 127
1, 23180, Note_off_c, 1, 71, 0
1, 23190, Note_on_c, 1, 76, 127
1, 23210, Note_off_c, 1, 76, 0
1, 23220, Note_off_c, 1, 67, 0
1, 23220, Note_on_c, 1, 74, 127
1, 23240, Note_off_c, 1, 59, 0
1, 23240, Note_off_c, 1, 55, 0
1, 23240, Note_off_c, 1, 43, 0
1, 23240, Note_off_c, 1, 74, 0
1, 23250, Note_on_c, 1, 72, 127
1, 23250, Note_on_c, 1, 69, 127
1, 23270, Note_off_c, 1, 72, 0
1, 23270, Note_off_c, 1, 69, 0
1, 23280, Note_on_c, 1, 71, 127
1, 23280, Note_on_c, 1, 67, 127
1, 23300, Note_off_c, 1, 71, 0
1, 23300, Note_off_c, 1, 67, 0
1, 23310, Note_on_c, 1, 72, 127
1, 23310, Note_on_c, 1, 69, 127
1, 23330, Note_off_c, 1, 72, 0
1, 23330, Note_off_c, 1, 69, 0
1, 23340, Note_on_c, 1, 71, 127
1, 23340, Note_on_c, 1, 67, 127
1, 23360, Note_off_c, 1, 71, 0
1, 23360, Note_off_c, 1, 67, 0
1, 23370, Note_on_c, 1, 72, 127
1, 23370, Note_on_c, 1, 69, 127
1, 23390, Note_off_c, 1, 72, 0
1, 23390, Note_off_c, 1, 69, 0
1, 23400, Note_on_c, 1, 71, 127
1, 23400, Note_on_c, 1, 67, 127
1, 23400, Note_on_c, 1, 40, 127
1, 23400, Note_on_c, 1, 28, 127
1, 23440, Note_off_c, 1, 40, 0
1, 23440, Note_off_c, 1, 28, 0
1, 23460, Note_off_c, 1, 71, 0
1, 23460, Note_on_c, 1, 64, 127
1, 23460, Note_on_c, 1, 59, 127
1, 23460, Note_on_c, 1, 52, 127
1, 23480, Note_off_c, 1, 67, 0
1, 23480, Note_off_c, 1, 64, 0
1, 23480, Note_off_c, 1, 52, 0
1, 23490, Note_on_c, 1, 66, 127
1, 23490, Note_on_c, 1, 50, 127
1, 23490, Note_on_c, 1, 38, 127
1, 23500, Note_off_c, 1, 59, 0
1, 23510, Note_off_c, 1, 66, 0
1, 23510, Note_off_c, 1, 50, 0
1, 23510, Note_off_c, 1, 38, 0
1, 23520, Note_on_c, 1, 67, 127
1, 23520, Note_on_c, 1, 64, 127
1, 23520, Note_on_c, 1, 72, 127
1, 23520, Note_on_c, 1, 48, 127
1, 23520, Note_on_c, 1, 36, 127
1, 23540, Note_off_c, 1, 67, 0
1, 23550, Note_on_c, 1, 69, 127
1, 23550, Note_on_c, 1, 66, 127
1, 23560, Note_off_c, 1, 48, 0
1, 23560, Note_off_c, 1, 36, 0
1, 23570, Note_off_c, 1, 69, 0
1, 23570, Note_off_c, 1, 66, 0
1, 23580, Note_on_c, 1, 71, 127
1, 23580, Note_on_c, 1, 47, 127
1, 23580, Note_on_c, 1, 43, 127
1, 23580, Note_on_c, 1, 31, 127
1, 23600, Note_off_c, 1, 72, 0
1, 23600, Note_off_c, 1, 47, 0
1, 23600, Note_off_c, 1, 43, 0
1, 23600, Note_off_c, 1, 31, 0
1, 23610, Note_on_c, 1, 45, 127
1, 23610, Note_on_c, 1, 33, 127
1, 23620, Note_off_c, 1, 64, 0
1, 23620, Note_off_c, 1, 71, 0
1, 23630, Note_off_c, 1, 45, 0
1, 23630, Note_off_c, 1, 33, 0
1, 23640, Note_on_c, 1, 71, 127
1, 23640, Note_on_c, 1, 67, 127
1, 23640, Note_on_c, 1, 64, 127
1, 23640, Note_on_c, 1, 47, 127
1, 23640, Note_on_c, 1, 35, 127
1, 23660, Note_off_c, 1, 71, 0
1, 23660, Note_off_c, 1, 67, 0
1, 23670, Note_on_c, 1, 69, 127
1, 23670, Note_on_c, 1, 66, 127
1, 23680, Note_off_c, 1, 64, 0
1, 23680, Note_off_c, 1, 47, 0
1, 23680, Note_off_c, 1, 35, 0
1, 23690, Note_off_c, 1, 69, 0
1, 23690, Note_off_c, 1, 66, 0
1, 23700, Note_on_c, 1, 67, 127
1, 23700, Note_on_c, 1, 64, 127
1, 23700, Note_on_c, 1, 59, 127
1, 23700, Note_on_c, 1, 71, 127
1, 23700, Note_on_c, 1, 69, 127
1, 23700, Note_on_c, 1, 66, 127
1, 23700, Note_on_c, 1, 63, 127
1, 23700, Note_on_c, 1, 47, 127
1, 23700, Note_on_c, 1, 35, 127
1, 23720, Note_off_c, 1, 67, 0
1, 23720, Note_off_c, 1, 64, 0
1, 23740, Note_off_c, 1, 59, 0
1, 23740, Note_off_c, 1, 71, 0
1, 23740, Note_off_c, 1, 69, 0
1, 23740, Note_off_c, 1, 47, 0
1, 23740, Note_off_c, 1, 35, 0
1, 23750, Note_off_c, 1, 66, 0
1, 23750, Note_off_c, 1, 63, 0
1, 23760, Note_on_c, 1, 83, 127
1, 23760, Note_on_c, 1, 79, 127
1, 23760, Note_on_c, 1, 76, 127
1, 23760, Note_on_c, 1, 67, 127
1, 23760, Note_on_c, 1, 64, 127
1, 23760, Note_on_c, 1, 59, 127
1, 23760, Note_on_c, 1, 71, 127
1, 23760, Note_on_c, 1, 52, 127
1, 23760, Note_on_c, 1, 40, 127
1, 23760, Note_on_c, 1, 28, 127
1, 23800, Note_off_c, 1, 79, 0
1, 23800, Note_off_c, 1, 76, 0
1, 23800, Note_off_c, 1, 59, 0
1, 23800, Note_off_c, 1, 52, 0
1, 23800, Note_off_c, 1, 40, 0
1, 23800, Note_off_c, 1, 28, 0
1, 23820, Note_off_c, 1, 67, 0
1, 23820, Note_on_c, 1, 55, 127
1, 23820, Note_on_c, 1, 47, 127
1, 23820, Note_on_c, 1, 35, 127
1, 23840, Note_off_c, 1, 55, 0
1, 23850, Note_on_c, 1, 57, 127
1, 23850, Note_on_c, 1, 69, 127
1, 23850, Note_on_c, 1, 66, 127
1, 23860, Note_off_c, 1, 64, 0
1, 23860, Note_off_c, 1, 71, 0
1, 23860, Note_off_c, 1, 47, 0
1, 23860, Note_off_c, 1, 35, 0
1, 23870, Note_off_c, 1, 57, 0
1, 23870, Note_off_c, 1, 69, 0
1, 23870, Note_off_c, 1, 66, 0
1, 23910, Note_on_c, 1, 60, 127
1, 23910, Note_on_c, 1, 54, 127
1, 23930, Note_off_c, 1, 60, 0
1, 23930, Note_off_c, 1, 54, 0
1, 23940, Note_on_c, 1, 43, 127
1, 23970, Note_on_c, 1, 72, 127
1, 23980, Note_off_c, 1, 43, 0
1, 23990, Note_off_c, 1, 72, 0
1, 23997, Note_off_c, 1, 83, 0
1, 24000, Note_on_c, 1, 71, 127
1, 24000, Note_on_c, 1, 55, 127
1, 24000, Note_on_c, 1, 67, 127
1, 24000, Note_on_c, 1, 43, 127
1, 24020, Note_off_c, 1, 71, 0
1, 24030, Note_on_c, 1, 69, 127
1, 24030, Note_on_c, 1, 57, 127
1, 24030, Note_on_c, 1, 54, 127
1, 24040, Note_off_c, 1, 55, 0
1, 24040, Note_off_c, 1, 43, 0
1, 24050, Note_off_c, 1, 69, 0
1, 24050, Note_off_c, 1, 57, 0
1, 24050, Note_off_c, 1, 54, 0
1, 24060, Note_on_c, 1, 64, 127
1, 24060, Note_on_c, 1, 59, 127
1, 24060, Note_on_c, 1, 76, 127
1, 24060, Note_on_c, 1, 52, 127
1, 24060, Note_on_c, 1, 40, 127
1, 24090, Note_on_c, 1, 66, 127
1, 24090, Note_on_c, 1, 50, 127
1, 24100, Note_off_c, 1, 64, 0
1, 24100, Note_off_c, 1, 59, 0
1, 24100, Note_off_c, 1, 76, 0
1, 24100, Note_off_c, 1, 52, 0
1, 24100, Note_off_c, 1, 40, 0
1, 24110, Note_off_c, 1, 66, 0
1, 24110, Note_off_c, 1, 50, 0
1, 24120, Note_on_c, 1, 81, 127
1, 24120, Note_on_c, 1, 45, 127
1, 24120, Note_on_c, 1, 79, 127
1, 24120, Note_on_c, 1, 61, 127
1, 24120, Note_on_c, 1, 49, 127
1, 24120, Note_on_c, 1, 37, 127
1, 24150, Note_on_c, 1, 62, 127
1, 24160, Note_off_c, 1, 67, 0
1, 24160, Note_off_c, 1, 79, 0
1, 24160, Note_off_c, 1, 61, 0
1, 24160, Note_off_c, 1, 49, 0
1, 24160, Note_off_c, 1, 37, 0
1, 24170, Note_off_c, 1, 62, 0
1, 24180, Note_on_c, 1, 73, 127
1, 24180, Note_on_c, 1, 72, 127
1, 24180, Note_on_c, 1, 33, 127
1, 24220, Note_off_c, 1, 45, 0
1, 24220, Note_off_c, 1, 73, 0
1, 24220, Note_off_c, 1, 72, 0
1, 24220, Note_off_c, 1, 33, 0
1, 24240, Note_on_c, 1, 78, 127
1, 24240, Note_on_c, 1, 38, 127
1, 24280, Note_off_c, 1, 38, 0
1, 24300, Note_on_c, 1, 42, 127
1, 24320, Note_off_c, 1, 78, 0
1, 24340, Note_off_c, 1, 42, 0
1, 24357, Note_off_c, 1, 81, 0
1, 24360, Note_on_c, 1, 69, 127
1, 24360, Note_on_c, 1, 66, 127
1, 24360, Note_on_c, 1, 54, 127
1, 24360, Note_on_c, 1, 42, 127
1, 24380, Note_off_c, 1, 69, 0
1, 24390, Note_on_c, 1, 67, 127
1, 24390, Note_on_c, 1, 52, 127
1, 24400, Note_off_c, 1, 54, 0
1, 24400, Note_off_c, 1, 42, 0
1, 24410, Note_off_c, 1, 67, 0
1, 24410, Note_off_c, 1, 52, 0
1, 24420, Note_on_c, 1, 74, 127
1, 24420, Note_on_c, 1, 78, 127
1, 24420, Note_on_c, 1, 57, 127
1, 24420, Note_on_c, 1, 50, 127
1, 24420, Note_on_c, 1, 38, 127
1, 24440, Note_off_c, 1, 66, 0
1, 24450, Note_on_c, 1, 64, 127
1, 24450, Note_on_c, 1, 48, 127
1, 24460, Note_off_c, 1, 74, 0
1, 24460, Note_off_c, 1, 78, 0
1, 24460, Note_off_c, 1, 57, 0
1, 24460, Note_off_c, 1, 50, 0
1, 24460, Note_off_c, 1, 38, 0
1, 24470, Note_off_c, 1, 64, 0
1, 24470, Note_off_c, 1, 48, 0
1, 24480, Note_on_c, 1, 79, 127
1, 24480, Note_on_c, 1, 50, 127
1, 24480, Note_on_c, 1, 78, 127
1, 24480, Note_on_c, 1, 62, 127
1, 24480, Note_on_c, 1, 74, 127
1, 24480, Note_on_c, 1, 71, 127
1, 24480, Note_on_c, 1, 59, 127
1, 24480, Note_on_c, 1, 47, 127
1, 24480, Note_on_c, 1, 35, 127
1, 24510, Note_on_c, 1, 81, 127
1, 24510, Note_on_c, 1, 45, 127
1, 24520, Note_off_c, 1, 78, 0
1, 24520, Note_off_c, 1, 62, 0
1, 24520, Note_off_c, 1, 74, 0
1, 24520, Note_off_c, 1, 71, 0
1, 24520, Note_off_c, 1, 47, 0
1, 24520, Note_off_c, 1, 35, 0
1, 24530, Note_off_c, 1, 81, 0
1, 24530, Note_off_c, 1, 45, 0
1, 24540, Note_on_c, 1, 83, 127
1, 24540, Note_on_c, 1, 67, 127
1, 24540, Note_on_c, 1, 55, 127
1, 24540, Note_on_c, 1, 43, 127
1, 24540, Note_on_c, 1, 31, 127
1, 24560, Note_off_c, 1, 50, 0
1, 24560, Note_off_c, 1, 83, 0
1, 24570, Note_on_c, 1, 84, 127
1, 24570, Note_on_c, 1, 76, 127
1, 24580, Note_off_c, 1, 55, 0
1, 24580, Note_off_c, 1, 43, 0
1, 24580, Note_off_c, 1, 31, 0
1, 24590, Note_off_c, 1, 59, 0
1, 24590, Note_off_c, 1, 67, 0
1, 24590, Note_off_c, 1, 84, 0
1, 24590, Note_off_c, 1, 76, 0
1, 24630, Note_on_c, 1, 72, 127
1, 24650, Note_off_c, 1, 72, 0
1, 24690, Note_on_c, 1, 69, 127
1, 24690, Note_on_c, 1, 60, 127
1, 24690, Note_on_c, 1, 48, 127
1, 24690, Note_on_c, 1, 36, 127
1, 24710, Note_off_c, 1, 69, 0
1, 24710, Note_off_c, 1, 60, 0
1, 24710, Note_off_c, 1, 48, 0
1, 24710, Note_off_c, 1, 36, 0
1, 24720, Note_on_c, 1, 86, 127
1, 24750, Note_on_c, 1, 66, 127
1, 24750, Note_on_c, 1, 57, 127
1, 24750, Note_on_c, 1, 33, 127
1, 24770, Note_off_c, 1, 66, 0
1, 24770, Note_off_c, 1, 57, 0
1, 24770, Note_off_c, 1, 33, 0
1, 24780, Note_on_c, 1, 64, 127
1, 24800, Note_off_c, 1, 64, 0
1, 24810, Note_on_c, 1, 54, 127
1, 24810, Note_on_c, 1, 42, 127
1, 24810, Note_on_c, 1, 30, 127
1, 24830, Note_off_c, 1, 54, 0
1, 24830, Note_off_c, 1, 42, 0
1, 24830, Note_off_c, 1, 30, 0
1, 24840, Note_on_c, 1, 52, 127
1, 24840, Note_on_c, 1, 40, 127
1, 24840, Note_on_c, 1, 28, 127
1, 24860, Note_off_c, 1, 86, 0
1, 24880, Note_off_c, 1, 52, 0
1, 24880, Note_off_c, 1, 40, 0
1, 24880, Note_off_c, 1, 28, 0
1, 24930, Note_on_c, 1, 85, 127
1, 24950, Note_off_c, 1, 85, 0
1, 25080, Note_on_c, 1, 73, 127
1, 25080, Note_on_c, 1, 88, 127
1, 25100, Note_off_c, 1, 73, 0
1, 25110, Note_on_c, 1, 38, 127
1, 25130, Note_off_c, 1, 38, 0
1, 25140, Note_on_c, 1, 49, 127
1, 25140, Note_on_c, 1, 37, 127
1, 25160, Note_off_c, 1, 49, 0
1, 25160, Note_off_c, 1, 37, 0
1, 25200, Note_on_c, 1, 61, 127
1, 25227, Note_off_c, 1, 79, 0
1, 25240, Note_off_c, 1, 88, 0
1, 25240, Note_off_c, 1, 61, 0
1, 25320, Note_on_c, 1, 83, 127
1, 25320, Note_on_c, 1, 69, 127
1, 25320, Note_on_c, 1, 64, 127
1, 25320, Note_on_c, 1, 79, 127
1, 25320, Note_on_c, 1, 52, 127
1, 25320, Note_on_c, 1, 40, 127
1, 25340, Note_off_c, 1, 79, 0
1, 25347, Note_off_c, 1, 83, 0
1, 25350, Note_on_c, 1, 85, 127
1, 25350, Note_on_c, 1, 78, 127
1, 25360, Note_off_c, 1, 69, 0
1, 25360, Note_off_c, 1, 52, 0
1, 25360, Note_off_c, 1, 40, 0
1, 25370, Note_off_c, 1, 78, 0
1, 25377, Note_off_c, 1, 85, 0
1, 25380, Note_on_c, 1, 81, 127
1, 25380, Note_on_c, 1, 76, 127
1, 25380, Note_on_c, 1, 67, 127
1, 25380, Note_on_c, 1, 73, 127
1, 25380, Note_on_c, 1, 61, 127
1, 25380, Note_on_c, 1, 49, 127
1, 25380, Note_on_c, 1, 37, 127
1, 25400, Note_off_c, 1, 61, 0
1, 25407, Note_off_c, 1, 81, 0
1, 25410, Note_on_c, 1, 74, 127
1, 25410, Note_on_c, 1, 66, 127
1, 25410, Note_on_c, 1, 62, 127
1, 25410, Note_on_c, 1, 59, 127
1, 25420, Note_off_c, 1, 76, 0
1, 25420, Note_off_c, 1, 67, 0
1, 25420, Note_off_c, 1, 73, 0
1, 25420, Note_off_c, 1, 49, 0
1, 25420, Note_off_c, 1, 37, 0
1, 25430, Note_off_c, 1, 74, 0
1, 25430, Note_off_c, 1, 66, 0
1, 25430, Note_off_c, 1, 62, 0
1, 25430, Note_off_c, 1, 59, 0
1, 25440, Note_off_c, 1, 64, 0
1, 25440, Note_on_c, 1, 57, 127
1, 25440, Note_on_c, 1, 45, 127
1, 25440, Note_on_c, 1, 33, 127
1, 25460, Note_off_c, 1, 57, 0
1, 25470, Note_on_c, 1, 86, 127
1, 25480, Note_off_c, 1, 45, 0
1, 25480, Note_off_c, 1, 33, 0
1, 25497, Note_off_c, 1, 86, 0
1, 25500, Note_on_c, 1, 55, 127
1, 25500, Note_on_c, 1, 43, 127
1, 25540, Note_off_c, 1, 43, 0
1, 25550, Note_off_c, 1, 55, 0
1, 25560, Note_on_c, 1, 50, 127
1, 25560, Note_on_c, 1, 54, 127
1, 25560, Note_on_c, 1, 42, 127
1, 25600, Note_off_c, 1, 54, 0
1, 25600, Note_off_c, 1, 42, 0
1, 25620, Note_on_c, 1, 38, 127
1, 25660, Note_off_c, 1, 50, 0
1, 25660, Note_off_c, 1, 38, 0
1, 25680, Note_on_c, 1, 74, 127
1, 25680, Note_on_c, 1, 78, 127
1, 25680, Note_on_c, 1, 69, 127
1, 25680, Note_on_c, 1, 79, 127
1, 25680, Note_on_c, 1, 60, 127
1, 25680, Note_on_c, 1, 45, 127
1, 25680, Note_on_c, 1, 33, 127
1, 25700, Note_off_c, 1, 79, 0
1, 25707, Note_off_c, 1, 74, 0
1, 25710, Note_on_c, 1, 76, 127
1, 25720, Note_off_c, 1, 69, 0
1, 25720, Note_off_c, 1, 45, 0
1, 25720, Note_off_c, 1, 33, 0
1, 25730, Note_off_c, 1, 78, 0
1, 25737, Note_off_c, 1, 76, 0
1, 25740, Note_on_c, 1, 72, 127
1, 25740, Note_on_c, 1, 81, 127
1, 25740, Note_on_c, 1, 66, 127
1, 25740, Note_on_c, 1, 57, 127
1, 25740, Note_on_c, 1, 55, 127
1, 25740, Note_on_c, 1, 42, 127
1, 25740, Note_on_c, 1, 30, 127
1, 25760, Note_off_c, 1, 57, 0
1, 25760, Note_off_c, 1, 55, 0
1, 25770, Note_on_c, 1, 67, 127
1, 25770, Note_on_c, 1, 52, 127
1, 25780, Note_off_c, 1, 72, 0
1, 25780, Note_off_c, 1, 81, 0
1, 25780, Note_off_c, 1, 66, 0
1, 25780, Note_off_c, 1, 42, 0
1, 25780, Note_off_c, 1, 30, 0
1, 25790, Note_off_c, 1, 67, 0
1, 25790, Note_off_c, 1, 52, 0
1, 25800, Note_off_c, 1, 60, 0
1, 25800, Note_on_c, 1, 86, 127
1, 25800, Note_on_c, 1, 54, 127
1, 25800, Note_on_c, 1, 50, 127
1, 25800, Note_on_c, 1, 38, 127
1, 25800, Note_on_c, 1, 26, 127
1, 25820, Note_off_c, 1, 50, 0
1, 25840, Note_off_c, 1, 54, 0
1, 25840, Note_off_c, 1, 38, 0
1, 25840, Note_off_c, 1, 26, 0
1, 25860, Note_on_c, 1, 71, 127
1, 25860, Note_on_c, 1, 62, 127
1, 25860, Note_on_c, 1, 59, 127
1, 25860, Note_on_c, 1, 48, 127
1, 25860, Note_on_c, 1, 36, 127
1, 25880, Note_off_c, 1, 71, 0
1, 25880, Note_off_c, 1, 59, 0
1, 25900, Note_off_c, 1, 62, 0
1, 25900, Note_off_c, 1, 36, 0
1, 25910, Note_off_c, 1, 48, 0
1, 25920, Note_on_c, 1, 73, 127
1, 25920, Note_on_c, 1, 47, 127
1, 25920, Note_on_c, 1, 35, 127
1, 25960, Note_off_c, 1, 86, 0
1, 25960, Note_off_c, 1, 73, 0
1, 25960, Note_off_c, 1, 47, 0
1, 25960, Note_off_c, 1, 35, 0
1, 25980, Note_on_c, 1, 43, 127
1, 25980, Note_on_c, 1, 31, 127
1, 26020, Note_off_c, 1, 43, 0
1, 26020, Note_off_c, 1, 31, 0
1, 26040, Note_on_c, 1, 76, 127
1, 26040, Note_on_c, 1, 79, 127
1, 26040, Note_on_c, 1, 67, 127
1, 26040, Note_on_c, 1, 59, 127
1, 26040, Note_on_c, 1, 47, 127
1, 26040, Note_on_c, 1, 35, 127
1, 26060, Note_off_c, 1, 79, 0
1, 26060, Note_off_c, 1, 59, 0
1, 26070, Note_on_c, 1, 78, 127
1, 26070, Note_on_c, 1, 66, 127
1, 26070, Note_on_c, 1, 57, 127
1, 26080, Note_off_c, 1, 47, 0
1, 26080, Note_off_c, 1, 35, 0
1, 26090, Note_off_c, 1, 78, 0
1, 26090, Note_off_c, 1, 66, 0
1, 26090, Note_off_c, 1, 57, 0
1, 26100, Note_on_c, 1, 74, 127
1, 26100, Note_on_c, 1, 64, 127
1, 26100, Note_on_c, 1, 55, 127
1, 26100, Note_on_c, 1, 52, 127
1, 26100, Note_on_c, 1, 40, 127
1, 26120, Note_off_c, 1, 64, 0
1, 26120, Note_off_c, 1, 55, 0
1, 26130, Note_on_c, 1, 62, 127
1, 26130, Note_on_c, 1, 54, 127
1, 26140, Note_off_c, 1, 52, 0
1, 26140, Note_off_c, 1, 40, 0
1, 26150, Note_off_c, 1, 74, 0
1, 26150, Note_off_c, 1, 62, 0
1, 26150, Note_off_c, 1, 54, 0
1, 26160, Note_on_c, 1, 73, 127
1, 26190, Note_on_c, 1, 50, 127
1, 26200, Note_off_c, 1, 73, 0
1, 26210, Note_off_c, 1, 50, 0
1, 26220, Note_on_c, 1, 49, 127
1, 26220, Note_on_c, 1, 38, 127
1, 26240, Note_off_c, 1, 49, 0
1, 26260, Note_off_c, 1, 38, 0
1, 26280, Note_on_c, 1, 61, 127
1, 26280, Note_on_c, 1, 45, 127
1, 26280, Note_on_c, 1, 33, 127
1, 26320, Note_off_c, 1, 67, 0
1, 26320, Note_off_c, 1, 61, 0
1, 26320, Note_off_c, 1, 45, 0
1, 26320, Note_off_c, 1, 33, 0
1, 26337, Note_off_c, 1, 76, 0
1, 26340, Note_on_c, 1, 81, 127
1, 26340, Note_on_c, 1, 76, 127
1, 26340, Note_on_c, 1, 69, 127
1, 26340, Note_on_c, 1, 45, 127
1, 26340, Note_on_c, 1, 78, 127
1, 26340, Note_on_c, 1, 57, 127
1, 26340, Note_on_c, 1, 52, 127
1, 26340, Note_on_c, 1, 49, 127
1, 26340, Note_on_c, 1, 37, 127
1, 26360, Note_off_c, 1, 81, 0
1, 26360, Note_off_c, 1, 78, 0
1, 26370, Note_on_c, 1, 79, 127
1, 26370, Note_on_c, 1, 83, 127
1, 26370, Note_on_c, 1, 71, 127
1, 26380, Note_off_c, 1, 76, 0
1, 26380, Note_off_c, 1, 69, 0
1, 26380, Note_off_c, 1, 45, 0
1, 26380, Note_off_c, 1, 57, 0
1, 26380, Note_off_c, 1, 52, 0
1, 26380, Note_off_c, 1, 49, 0
1, 26380, Note_off_c, 1, 37, 0
1, 26390, Note_off_c, 1, 79, 0
1, 26390, Note_off_c, 1, 83, 0
1, 26390, Note_off_c, 1, 71, 0
1, 26400, Note_on_c, 1, 78, 127
1, 26400, Note_on_c, 1, 74, 127
1, 26400, Note_on_c, 1, 69, 127
1, 26400, Note_on_c, 1, 50, 127
1, 26400, Note_on_c, 1, 81, 127
1, 26400, Note_on_c, 1, 62, 127
1, 26400, Note_on_c, 1, 54, 127
1, 26400, Note_on_c, 1, 38, 127
1, 26420, Note_off_c, 1, 81, 0
1, 26430, Note_on_c, 1, 76, 127
1, 26430, Note_on_c, 1, 79, 127
1, 26430, Note_on_c, 1, 67, 127
1, 26440, Note_off_c, 1, 78, 0
1, 26440, Note_off_c, 1, 74, 0
1, 26440, Note_off_c, 1, 69, 0
1, 26440, Note_off_c, 1, 50, 0
1, 26440, Note_off_c, 1, 62, 0
1, 26440, Note_off_c, 1, 54, 0
1, 26440, Note_off_c, 1, 38, 0
1, 26450, Note_off_c, 1, 76, 0
1, 26450, Note_off_c, 1, 79, 0
1, 26450, Note_off_c, 1, 67, 0
1, 26460, Note_on_c, 1, 74, 127
1, 26460, Note_on_c, 1, 81, 127
1, 26460, Note_on_c, 1, 66, 127
1, 26460, Note_on_c, 1, 50, 127
1, 26460, Note_on_c, 1, 78, 127
1, 26460, Note_on_c, 1, 71, 127
1, 26460, Note_on_c, 1, 59, 127
1, 26460, Note_on_c, 1, 55, 127
1, 26460, Note_on_c, 1, 43, 127
1, 26480, Note_off_c, 1, 81, 0
1, 26490, Note_on_c, 1, 76, 127
1, 26490, Note_on_c, 1, 79, 127
1, 26490, Note_on_c, 1, 62, 127
1, 26490, Note_on_c, 1, 64, 127
1, 26500, Note_off_c, 1, 74, 0
1, 26500, Note_off_c, 1, 66, 0
1, 26500, Note_off_c, 1, 50, 0
1, 26500, Note_off_c, 1, 78, 0
1, 26500, Note_off_c, 1, 71, 0
1, 26500, Note_off_c, 1, 59, 0
1, 26500, Note_off_c, 1, 55, 0
1, 26500, Note_off_c, 1, 43, 0
1, 26510, Note_off_c, 1, 76, 0
1, 26510, Note_off_c, 1, 79, 0
1, 26510, Note_off_c, 1, 62, 0
1, 26510, Note_off_c, 1, 64, 0
1, 26520, Note_on_c, 1, 78, 127
1, 26520, Note_on_c, 1, 81, 127
1, 26520, Note_on_c, 1, 69, 127
1, 26520, Note_on_c, 1, 45, 127
1, 26520, Note_on_c, 1, 74, 127
1, 26520, Note_on_c, 1, 64, 127
1, 26520, Note_on_c, 1, 62, 127
1, 26520, Note_on_c, 1, 52, 127
1, 26520, Note_on_c, 1, 57, 127
1, 26535, Note_off_c, 1, 78, 0
1, 26535, Note_off_c, 1, 81, 0
1, 26535, Note_on_c, 1, 76, 127
1, 26535, Note_on_c, 1, 79, 127
1, 26540, Note_off_c, 1, 74, 0
1, 26540, Note_off_c, 1, 62, 0
1, 26550, Note_off_c, 1, 76, 0
1, 26550, Note_off_c, 1, 79, 0
1, 26550, Note_on_c, 1, 73, 127
1, 26550, Note_on_c, 1, 61, 127
1, 26560, Note_off_c, 1, 69, 0
1, 26560, Note_off_c, 1, 45, 0
1, 26560, Note_off_c, 1, 64, 0
1, 26560, Note_off_c, 1, 52, 0
1, 26560, Note_off_c, 1, 57, 0
1, 26570, Note_off_c, 1, 73, 0
1, 26570, Note_off_c, 1, 61, 0
1, 26580, Note_on_c, 1, 67, 127
1, 26580, Note_on_c, 1, 33, 127
1, 26620, Note_off_c, 1, 67, 0
1, 26620, Note_off_c, 1, 33, 0
1, 26640, Note_on_c, 1, 74, 127
1, 26640, Note_on_c, 1, 78, 127
1, 26640, Note_on_c, 1, 69, 127
1, 26640, Note_on_c, 1, 50, 127
1, 26640, Note_on_c, 1, 66, 127
1, 26640, Note_on_c, 1, 57, 127
1, 26640, Note_on_c, 1, 38, 127
1, 26640, Note_on_c, 1, 26, 127
1, 26680, Note_off_c, 1, 38, 0
1, 26680, Note_off_c, 1, 26, 0
1, 26700, Note_on_c, 1, 62, 127
1, 26720, Note_off_c, 1, 78, 0
1, 26720, Note_off_c, 1, 69, 0
1, 26720, Note_off_c, 1, 57, 0
1, 26720, Note_off_c, 1, 62, 0
1, 26730, Note_on_c, 1, 64, 127
1, 26740, Note_off_c, 1, 74, 0
1, 26740, Note_off_c, 1, 50, 0
1, 26740, Note_off_c, 1, 66, 0
1, 26750, Note_off_c, 1, 64, 0
1, 26760, Note_on_c, 1, 74, 127
1, 26760, Note_on_c, 1, 66, 127
1, 26780, Note_off_c, 1, 74, 0
1, 26780, Note_off_c, 1, 66, 0
1, 26790, Note_on_c, 1, 76, 127
1, 26790, Note_on_c, 1, 67, 127
1, 26810, Note_off_c, 1, 76, 0
1, 26810, Note_off_c, 1, 67, 0
1, 26820, Note_on_c, 1, 78, 127
1, 26820, Note_on_c, 1, 69, 127
1, 26820, Note_on_c, 1, 50, 127
1, 26820, Note_on_c, 1, 38, 127
1, 26840, Note_off_c, 1, 78, 0
1, 26840, Note_off_c, 1, 69, 0
1, 26850, Note_on_c, 1, 76, 127
1, 26850, Note_on_c, 1, 67, 127
1, 26860, Note_off_c, 1, 50, 0
1, 26860, Note_off_c, 1, 38, 0
1, 26870, Note_off_c, 1, 76, 0
1, 26870, Note_off_c, 1, 67, 0
1, 26880, Note_on_c, 1, 79, 127
1, 26880, Note_on_c, 1, 71, 127
1, 26880, Note_on_c, 1, 49, 127
1, 26880, Note_on_c, 1, 37, 127
1, 26900, Note_off_c, 1, 79, 0
1, 26900, Note_off_c, 1, 71, 0
1, 26910, Note_on_c, 1, 78, 127
1, 26910, Note_on_c, 1, 69, 127
1, 26920, Note_off_c, 1, 49, 0
1, 26920, Note_off_c, 1, 37, 0
1, 26930, Note_off_c, 1, 78, 0
1, 26930, Note_off_c, 1, 69, 0
1, 26940, Note_on_c, 1, 76, 127
1, 26940, Note_on_c, 1, 67, 127
1, 26940, Note_on_c, 1, 50, 127
1, 26940, Note_on_c, 1, 38, 127
1, 26960, Note_off_c, 1, 76, 0
1, 26960, Note_off_c, 1, 67, 0
1, 26970, Note_on_c, 1, 74, 127
1, 26970, Note_on_c, 1, 66, 127
1, 26980, Note_off_c, 1, 50, 0
1, 26980, Note_off_c, 1, 38, 0
1, 26990, Note_off_c, 1, 74, 0
1, 26990, Note_off_c, 1, 66, 0
1, 27000, Note_on_c, 1, 73, 127
1, 27000, Note_on_c, 1, 69, 127
1, 27000, Note_on_c, 1, 64, 127
1, 27000, Note_on_c, 1, 45, 127
1, 27000, Note_on_c, 1, 33, 127
1, 27020, Note_off_c, 1, 64, 0
1, 27040, Note_off_c, 1, 45, 0
1, 27040, Note_off_c, 1, 33, 0
1, 27050, Note_off_c, 1, 69, 0
1, 27060, Note_on_c, 1, 67, 127
1, 27060, Note_on_c, 1, 76, 127
1, 27060, Note_on_c, 1, 61, 127
1, 27060, Note_on_c, 1, 57, 127
1, 27080, Note_off_c, 1, 67, 0
1, 27090, Note_on_c, 1, 74, 127
1, 27090, Note_on_c, 1, 66, 127
1, 27100, Note_off_c, 1, 61, 0
1, 27100, Note_off_c, 1, 57, 0
1, 27110, Note_off_c, 1, 76, 0
1, 27110, Note_off_c, 1, 74, 0
1, 27110, Note_off_c, 1, 66, 0
1, 27120, Note_on_c, 1, 81, 127
1, 27160, Note_off_c, 1, 81, 0
1, 27180, Note_on_c, 1, 85, 127
1, 27210, Note_on_c, 1, 62, 127
1, 27210, Note_on_c, 1, 59, 127
1, 27210, Note_on_c, 1, 47, 127
1, 27220, Note_off_c, 1, 85, 0
1, 27230, Note_off_c, 1, 62, 0
1, 27230, Note_off_c, 1, 59, 0
1, 27230, Note_off_c, 1, 47, 0
1, 27270, Note_on_c, 1, 55, 127
1, 27270, Note_on_c, 1, 43, 127
1, 27290, Note_off_c, 1, 55, 0
1, 27290, Note_off_c, 1, 43, 0
1, 27300, Note_on_c, 1, 54, 127
1, 27300, Note_on_c, 1, 42, 127
1, 27320, Note_off_c, 1, 54, 0
1, 27320, Note_off_c, 1, 42, 0
1, 27330, Note_on_c, 1, 52, 127
1, 27330, Note_on_c, 1, 40, 127
1, 27350, Note_off_c, 1, 52, 0
1, 27350, Note_off_c, 1, 40, 0
1, 27357, Note_off_c, 1, 73, 0
1, 27360, Note_on_c, 1, 50, 127
1, 27360, Note_on_c, 1, 78, 127
1, 27360, Note_on_c, 1, 72, 127
1, 27360, Note_on_c, 1, 69, 127
1, 27360, Note_on_c, 1, 74, 127
1, 27360, Note_on_c, 1, 38, 127
1, 27400, Note_off_c, 1, 78, 0
1, 27400, Note_off_c, 1, 38, 0
1, 27410, Note_off_c, 1, 69, 0
1, 27410, Note_off_c, 1, 74, 0
1, 27420, Note_on_c, 1, 66, 127
1, 27420, Note_on_c, 1, 62, 127
1, 27450, Note_on_c, 1, 71, 127
1, 27460, Note_off_c, 1, 50, 0
1, 27460, Note_off_c, 1, 66, 0
1, 27460, Note_off_c, 1, 62, 0
1, 27470, Note_off_c, 1, 71, 0
1, 27480, Note_on_c, 1, 81, 127
1, 27520, Note_off_c, 1, 81, 0
1, 27540, Note_on_c, 1, 86, 127
1, 27540, Note_on_c, 1, 57, 127
1, 27570, Note_on_c, 1, 67, 127
1, 27570, Note_on_c, 1, 52, 127
1, 27570, Note_on_c, 1, 40, 127
1, 27580, Note_off_c, 1, 86, 0
1, 27580, Note_off_c, 1, 57, 0
1, 27590, Note_off_c, 1, 67, 0
1, 27590, Note_off_c, 1, 52, 0
1, 27590, Note_off_c, 1, 40, 0
1, 27630, Note_on_c, 1, 48, 127
1, 27630, Note_on_c, 1, 36, 127
1, 27650, Note_off_c, 1, 48, 0
1, 27650, Note_off_c, 1, 36, 0
1, 27660, Note_on_c, 1, 47, 127
1, 27660, Note_on_c, 1, 35, 127
1, 27680, Note_off_c, 1, 47, 0
1, 27680, Note_off_c, 1, 35, 0
1, 27690, Note_on_c, 1, 45, 127
1, 27690, Note_on_c, 1, 33, 127
1, 27710, Note_off_c, 1, 45, 0
1, 27710, Note_off_c, 1, 33, 0
1, 27717, Note_off_c, 1, 72, 0
1, 27720, Note_on_c, 1, 83, 127
1, 27720, Note_on_c, 1, 74, 127
1, 27720, Note_on_c, 1, 79, 127
1, 27720, Note_on_c, 1, 50, 127
1, 27720, Note_on_c, 1, 71, 127
1, 27720, Note_on_c, 1, 62, 127
1, 27720, Note_on_c, 1, 59, 127
1, 27720, Note_on_c, 1, 43, 127
1, 27720, Note_on_c, 1, 31, 127
1, 27750, Note_on_c, 1, 76, 127
1, 27760, Note_off_c, 1, 83, 0
1, 27760, Note_off_c, 1, 74, 0
1, 27760, Note_off_c, 1, 79, 0
1, 27760, Note_off_c, 1, 71, 0
1, 27760, Note_off_c, 1, 62, 0
1, 27760, Note_off_c, 1, 59, 0
1, 27760, Note_off_c, 1, 43, 0
1, 27760, Note_off_c, 1, 31, 0
1, 27770, Note_off_c, 1, 76, 0
1, 27780, Note_on_c, 1, 67, 127
1, 27780, Note_on_c, 1, 55, 127
1, 27800, Note_off_c, 1, 50, 0
1, 27810, Note_on_c, 1, 73, 127
1, 27810, Note_on_c, 1, 69, 127
1, 27820, Note_off_c, 1, 67, 0
1, 27820, Note_off_c, 1, 55, 0
1, 27830, Note_off_c, 1, 73, 0
1, 27830, Note_off_c, 1, 69, 0
1, 27840, Note_on_c, 1, 76, 127
1, 27840, Note_on_c, 1, 73, 127
1, 27840, Note_on_c, 1, 71, 127
1, 27840, Note_on_c, 1, 67, 127
1, 27860, Note_off_c, 1, 71, 0
1, 27870, Note_on_c, 1, 69, 127
1, 27870, Note_on_c, 1, 66, 127
1, 27880, Note_off_c, 1, 76, 0
1, 27880, Note_off_c, 1, 73, 0
1, 27880, Note_off_c, 1, 67, 0
1, 27890, Note_off_c, 1, 69, 0
1, 27890, Note_off_c, 1, 66, 0
1, 27900, Note_on_c, 1, 71, 127
1, 27900, Note_on_c, 1, 79, 127
1, 27900, Note_on_c, 1, 76, 127
1, 27900, Note_on_c, 1, 67, 127
1, 27900, Note_on_c, 1, 64, 127
1, 27900, Note_on_c, 1, 55, 127
1, 27900, Note_on_c, 1, 43, 127
1, 27920, Note_off_c, 1, 67, 0
1, 27920, Note_off_c, 1, 64, 0
1, 27920, Note_off_c, 1, 55, 0
1, 27920, Note_off_c, 1, 43, 0
1, 27930, Note_on_c, 1, 69, 127
1, 27930, Note_on_c, 1, 66, 127
1, 27930, Note_on_c, 1, 54, 127
1, 27930, Note_on_c, 1, 42, 127
1, 27940, Note_off_c, 1, 71, 0
1, 27940, Note_off_c, 1, 79, 0
1, 27940, Note_off_c, 1, 76, 0
1, 27950, Note_off_c, 1, 69, 0
1, 27950, Note_off_c, 1, 66, 0
1, 27950, Note_off_c, 1, 54, 0
1, 27950, Note_off_c, 1, 42, 0
1, 27960, Note_on_c, 1, 76, 127
1, 27960, Note_on_c, 1, 79, 127
1, 27960, Note_on_c, 1, 71, 127
1, 27960, Note_on_c, 1, 67, 127
1, 27960, Note_on_c, 1, 52, 127
1, 27960, Note_on_c, 1, 40, 127
1, 27980, Note_off_c, 1, 67, 0
1, 27980, Note_off_c, 1, 52, 0
1, 27980, Note_off_c, 1, 40, 0
1, 27990, Note_on_c, 1, 73, 127
1, 27990, Note_on_c, 1, 69, 127
1, 27990, Note_on_c, 1, 50, 127
1, 27990, Note_on_c, 1, 38, 127
1, 28000, Note_off_c, 1, 76, 0
1, 28000, Note_off_c, 1, 79, 0
1, 28000, Note_off_c, 1, 71, 0
1, 28010, Note_off_c, 1, 73, 0
1, 28010, Note_off_c, 1, 69, 0
1, 28010, Note_off_c, 1, 50, 0
1, 28010, Note_off_c, 1, 38, 0
1, 28020, Note_on_c, 1, 79, 127
1, 28020, Note_on_c, 1, 76, 127
1, 28020, Note_on_c, 1, 64, 127
1, 28020, Note_on_c, 1, 69, 127
1, 28020, Note_on_c, 1, 66, 127
1, 28020, Note_on_c, 1, 59, 127
1, 28020, Note_on_c, 1, 49, 127
1, 28020, Note_on_c, 1, 37, 127
1, 28040, Note_off_c, 1, 69, 0
1, 28040, Note_off_c, 1, 66, 0
1, 28040, Note_off_c, 1, 49, 0
1, 28040, Note_off_c, 1, 37, 0
1, 28050, Note_on_c, 1, 71, 127
1, 28050, Note_on_c, 1, 67, 127
1, 28050, Note_on_c, 1, 47, 127
1, 28050, Note_on_c, 1, 35, 127
1, 28060, Note_off_c, 1, 76, 0
1, 28060, Note_off_c, 1, 64, 0
1, 28060, Note_off_c, 1, 59, 0
1, 28070, Note_off_c, 1, 71, 0
1, 28070, Note_off_c, 1, 67, 0
1, 28070, Note_off_c, 1, 47, 0
1, 28070, Note_off_c, 1, 35, 0
1, 28080, Note_on_c, 1, 81, 127
1, 28080, Note_on_c, 1, 73, 127
1, 28080, Note_on_c, 1, 45, 127
1, 28080, Note_on_c, 1, 33, 127
1, 28120, Note_off_c, 1, 79, 0
1, 28120, Note_off_c, 1, 73, 0
1, 28120, Note_off_c, 1, 45, 0
1, 28120, Note_off_c, 1, 33, 0
1, 28140, Note_on_c, 1, 61, 127
1, 28140, Note_on_c, 1, 57, 127
1, 28170, Note_on_c, 1, 78, 127
1, 28180, Note_off_c, 1, 61, 0
1, 28180, Note_off_c, 1, 57, 0
1, 28190, Note_off_c, 1, 78, 0
1, 28230, Note_on_c, 1, 74, 127
1, 28250, Note_off_c, 1, 74, 0
1, 28260, Note_on_c, 1, 85, 127
1, 28300, Note_off_c, 1, 85, 0
1, 28437, Note_off_c, 1, 81, 0
1, 28440, Note_on_c, 1, 80, 127
1, 28440, Note_on_c, 1, 86, 127
1, 28440, Note_on_c, 1, 74, 127
1, 28440, Note_on_c, 1, 71, 127
1, 28470, Note_on_c, 1, 76, 127
1, 28480, Note_off_c, 1, 86, 0
1, 28480, Note_off_c, 1, 71, 0
1, 28490, Note_off_c, 1, 76, 0
1, 28500, Note_on_c, 1, 83, 127
1, 28500, Note_on_c, 1, 59, 127
1, 28520, Note_off_c, 1, 74, 0
1, 28530, Note_on_c, 1, 73, 127
1, 28540, Note_off_c, 1, 83, 0
1, 28540, Note_off_c, 1, 59, 0
1, 28550, Note_off_c, 1, 73, 0
1, 28560, Note_on_c, 1, 64, 127
1, 28590, Note_on_c, 1, 69, 127
1, 28600, Note_off_c, 1, 64, 0
1, 28610, Note_off_c, 1, 69, 0
1, 28620, Note_on_c, 1, 68, 127
1, 28640, Note_off_c, 1, 68, 0
1, 28740, Note_on_c, 1, 81, 127
1, 28780, Note_off_c, 1, 81, 0
1, 28797, Note_off_c, 1, 80, 0
1, 28800, Note_on_c, 1, 79, 127
1, 28800, Note_on_c, 1, 81, 127
1, 28800, Note_on_c, 1, 73, 127
1, 28850, Note_off_c, 1, 81, 0
1, 28860, Note_on_c, 1, 64, 127
1, 28890, Note_on_c, 1, 78, 127
1, 28890, Note_on_c, 1, 74, 127
1, 28900, Note_off_c, 1, 73, 0
1, 28900, Note_off_c, 1, 64, 0
1, 28910, Note_off_c, 1, 78, 0
1, 28910, Note_off_c, 1, 74, 0
1, 28920, Note_on_c, 1, 76, 127
1, 28920, Note_on_c, 1, 69, 127
1, 28950, Note_on_c, 1, 71, 127
1, 28960, Note_off_c, 1, 76, 0
1, 28960, Note_off_c, 1, 69, 0
1, 28970, Note_off_c, 1, 71, 0
1, 29157, Note_off_c, 1, 79, 0
1, 29160, Note_on_c, 1, 50, 127
1, 29190, Note_on_c, 1, 86, 127
1, 29217, Note_off_c, 1, 86, 0
1, 29220, Note_on_c, 1, 85, 127
1, 29220, Note_on_c, 1, 66, 127
1, 29220, Note_on_c, 1, 45, 127
1, 29220, Note_on_c, 1, 33, 127
1, 29240, Note_off_c, 1, 50, 0
1, 29247, Note_off_c, 1, 85, 0
1, 29250, Note_on_c, 1, 83, 127
1, 29260, Note_off_c, 1, 66, 0
1, 29260, Note_off_c, 1, 45, 0
1, 29260, Note_off_c, 1, 33, 0
1, 29277, Note_off_c, 1, 83, 0
1, 29280, Note_on_c, 1, 38, 127
1, 29320, Note_off_c, 1, 38, 0
1, 29340, Note_on_c, 1, 62, 127
1, 29340, Note_on_c, 1, 54, 127
1, 29340, Note_on_c, 1, 42, 127
1, 29380, Note_off_c, 1, 62, 0
1, 29380, Note_off_c, 1, 54, 0
1, 29380, Note_off_c, 1, 42, 0
1, 29700, Note_on_c, 1, 57, 127
1, 29740, Note_off_c, 1, 57, 0
1, 29970, Note_on_c, 1, 67, 127
1, 29990, Note_off_c, 1, 67, 0
1, 30240, Note_on_c, 1, 47, 127
1, 30240, Note_on_c, 1, 35, 127
1, 30280, Note_off_c, 1, 47, 0
1, 30280, Note_off_c, 1, 35, 0
1, 30300, Note_on_c, 1, 59, 127
1, 30340, Note_off_c, 1, 59, 0
1, 30600, Note_on_c, 1, 30, 127
1, 30620, Note_off_c, 1, 30, 0
1, 30660, Note_on_c, 1, 61, 127
1, 30660, Note_on_c, 1, 49, 127
1, 30680, Note_off_c, 1, 61, 0
1, 30680, Note_off_c, 1, 49, 0
1, 30720, Note_on_c, 1, 78, 127
1, 30720, Note_on_c, 1, 74, 127
1, 30720, Note_on_c, 1, 69, 127
1, 30720, Note_on_c, 1, 57, 127
1, 30720, Note_on_c, 1, 45, 127
1, 30740, Note_off_c, 1, 57, 0
1, 30740, Note_off_c, 1, 45, 0
1, 30750, Note_on_c, 1, 55, 127
1, 30750, Note_on_c, 1, 43, 127
1, 30760, Note_off_c, 1, 78, 0
1, 30760, Note_off_c, 1, 74, 0
1, 30760, Note_off_c, 1, 69, 0
1, 30770, Note_off_c, 1, 55, 0
1, 30770, Note_off_c, 1, 43, 0
1, 30780, Note_on_c, 1, 74, 127
1, 30780, Note_on_c, 1, 69, 127
1, 30780, Note_on_c, 1, 62, 127
1, 30780, Note_on_c, 1, 50, 127
1, 30780, Note_on_c, 1, 81, 127
1, 30780, Note_on_c, 1, 78, 127
1, 30780, Note_on_c, 1, 54, 127
1, 30780, Note_on_c, 1, 42, 127
1, 30800, Note_off_c, 1, 54, 0
1, 30800, Note_off_c, 1, 42, 0
1, 30810, Note_on_c, 1, 55, 127
1, 30810, Note_on_c, 1, 43, 127
1, 30820, Note_off_c, 1, 74, 0
1, 30820, Note_off_c, 1, 69, 0
1, 30820, Note_off_c, 1, 62, 0
1, 30820, Note_off_c, 1, 50, 0
1, 30820, Note_off_c, 1, 81, 0
1, 30820, Note_off_c, 1, 78, 0
1, 30830, Note_off_c, 1, 55, 0
1, 30830, Note_off_c, 1, 43, 0
1, 30840, Note_on_c, 1, 78, 127
1, 30840, Note_on_c, 1, 74, 127
1, 30840, Note_on_c, 1, 69, 127
1, 30840, Note_on_c, 1, 45, 127
1, 30840, Note_on_c, 1, 81, 127
1, 30840, Note_on_c, 1, 57, 127
1, 30860, Note_off_c, 1, 81, 0
1, 30860, Note_off_c, 1, 57, 0
1, 30870, Note_on_c, 1, 79, 127
1, 30870, Note_on_c, 1, 76, 127
1, 30870, Note_on_c, 1, 59, 127
1, 30870, Note_on_c, 1, 47, 127
1, 30880, Note_off_c, 1, 78, 0
1, 30880, Note_off_c, 1, 74, 0
1, 30880, Note_off_c, 1, 69, 0
1, 30880, Note_off_c, 1, 45, 0
1, 30890, Note_off_c, 1, 79, 0
1, 30890, Note_off_c, 1, 76, 0
1, 30890, Note_off_c, 1, 59, 0
1, 30890, Note_off_c, 1, 47, 0
1, 30900, Note_on_c, 1, 81, 127
1, 30900, Note_on_c, 1, 78, 127
1, 30900, Note_on_c, 1, 74, 127
1, 30900, Note_on_c, 1, 45, 127
1, 30900, Note_on_c, 1, 69, 127
1, 30900, Note_on_c, 1, 57, 127
1, 30920, Note_off_c, 1, 57, 0
1, 30930, Note_on_c, 1, 76, 127
1, 30930, Note_on_c, 1, 73, 127
1, 30930, Note_on_c, 1, 59, 127
1, 30930, Note_on_c, 1, 47, 127
1, 30940, Note_off_c, 1, 81, 0
1, 30940, Note_off_c, 1, 78, 0
1, 30940, Note_off_c, 1, 74, 0
1, 30940, Note_off_c, 1, 45, 0
1, 30940, Note_off_c, 1, 69, 0
1, 30950, Note_off_c, 1, 76, 0
1, 30950, Note_off_c, 1, 73, 0
1, 30950, Note_off_c, 1, 59, 0
1, 30950, Note_off_c, 1, 47, 0
1, 30960, Note_on_c, 1, 81, 127
1, 30960, Note_on_c, 1, 78, 127
1, 30960, Note_on_c, 1, 74, 127
1, 30960, Note_on_c, 1, 50, 127
1, 30960, Note_on_c, 1, 62, 127
1, 30960, Note_on_c, 1, 57, 127
1, 30960, Note_on_c, 1, 45, 127
1, 30980, Note_off_c, 1, 62, 0
1, 30980, Note_off_c, 1, 57, 0
1, 30980, Note_off_c, 1, 45, 0
1, 30990, Note_on_c, 1, 64, 127
1, 31010, Note_off_c, 1, 64, 0
1, 31020, Note_on_c, 1, 69, 127
1, 31020, Note_on_c, 1, 66, 127
1, 31020, Note_on_c, 1, 61, 127
1, 31020, Note_on_c, 1, 49, 127
1, 31040, Note_off_c, 1, 81, 0
1, 31040, Note_off_c, 1, 78, 0
1, 31040, Note_off_c, 1, 50, 0
1, 31040, Note_off_c, 1, 61, 0
1, 31040, Note_off_c, 1, 49, 0
1, 31050, Note_on_c, 1, 76, 127
1, 31050, Note_on_c, 1, 67, 127
1, 31050, Note_on_c, 1, 59, 127
1, 31050, Note_on_c, 1, 47, 127
1, 31060, Note_off_c, 1, 74, 0
1, 31060, Note_off_c, 1, 69, 0
1, 31060, Note_off_c, 1, 66, 0
1, 31070, Note_off_c, 1, 76, 0
1, 31070, Note_off_c, 1, 67, 0
1, 31070, Note_off_c, 1, 59, 0
1, 31070, Note_off_c, 1, 47, 0
1, 31080, Note_on_c, 1, 78, 127
1, 31080, Note_on_c, 1, 74, 127
1, 31080, Note_on_c, 1, 69, 127
1, 31080, Note_on_c, 1, 57, 127
1, 31080, Note_on_c, 1, 45, 127
1, 31100, Note_off_c, 1, 78, 0
1, 31100, Note_off_c, 1, 74, 0
1, 31100, Note_off_c, 1, 57, 0
1, 31100, Note_off_c, 1, 45, 0
1, 31110, Note_on_c, 1, 79, 127
1, 31110, Note_on_c, 1, 76, 127
1, 31110, Note_on_c, 1, 55, 127
1, 31110, Note_on_c, 1, 43, 127
1, 31120, Note_off_c, 1, 69, 0
1, 31130, Note_off_c, 1, 79, 0
1, 31130, Note_off_c, 1, 76, 0
1, 31130, Note_off_c, 1, 55, 0
1, 31130, Note_off_c, 1, 43, 0
1, 31140, Note_on_c, 1, 74, 127
1, 31140, Note_on_c, 1, 69, 127
1, 31140, Note_on_c, 1, 62, 127
1, 31140, Note_on_c, 1, 50, 127
1, 31140, Note_on_c, 1, 81, 127
1, 31140, Note_on_c, 1, 78, 127
1, 31140, Note_on_c, 1, 54, 127
1, 31140, Note_on_c, 1, 42, 127
1, 31160, Note_off_c, 1, 54, 0
1, 31160, Note_off_c, 1, 42, 0
1, 31170, Note_on_c, 1, 55, 127
1, 31170, Note_on_c, 1, 43, 127
1, 31180, Note_off_c, 1, 74, 0
1, 31180, Note_off_c, 1, 69, 0
1, 31180, Note_off_c, 1, 62, 0
1, 31180, Note_off_c, 1, 50, 0
1, 31180, Note_off_c, 1, 81, 0
1, 31180, Note_off_c, 1, 78, 0
1, 31190, Note_off_c, 1, 55, 0
1, 31190, Note_off_c, 1, 43, 0
1, 31200, Note_on_c, 1, 78, 127
1, 31200, Note_on_c, 1, 74, 127
1, 31200, Note_on_c, 1, 69, 127
1, 31200, Note_on_c, 1, 50, 127
1, 31200, Note_on_c, 1, 81, 127
1, 31200, Note_on_c, 1, 57, 127
1, 31200, Note_on_c, 1, 45, 127
1, 31220, Note_off_c, 1, 81, 0
1, 31220, Note_off_c, 1, 45, 0
1, 31230, Note_on_c, 1, 79, 127
1, 31230, Note_on_c, 1, 76, 127
1, 31230, Note_on_c, 1, 59, 127
1, 31230, Note_on_c, 1, 47, 127
1, 31240, Note_off_c, 1, 78, 0
1, 31240, Note_off_c, 1, 74, 0
1, 31240, Note_off_c, 1, 69, 0
1, 31240, Note_off_c, 1, 50, 0
1, 31240, Note_off_c, 1, 57, 0
1, 31250, Note_off_c, 1, 79, 0
1, 31250, Note_off_c, 1, 76, 0
1, 31250, Note_off_c, 1, 59, 0
1, 31250, Note_off_c, 1, 47, 0
1, 31260, Note_on_c, 1, 81, 127
1, 31260, Note_on_c, 1, 78, 127
1, 31260, Note_on_c, 1, 74, 127
1, 31260, Note_on_c, 1, 50, 127
1, 31260, Note_on_c, 1, 69, 127
1, 31260, Note_on_c, 1, 55, 127
1, 31260, Note_on_c, 1, 43, 127
1, 31280, Note_off_c, 1, 55, 0
1, 31280, Note_off_c, 1, 43, 0
1, 31290, Note_on_c, 1, 76, 127
1, 31290, Note_on_c, 1, 73, 127
1, 31290, Note_on_c, 1, 57, 127
1, 31290, Note_on_c, 1, 45, 127
1, 31300, Note_off_c, 1, 81, 0
1, 31300, Note_off_c, 1, 78, 0
1, 31300, Note_off_c, 1, 74, 0
1, 31300, Note_off_c, 1, 50, 0
1, 31300, Note_off_c, 1, 69, 0
1, 31310, Note_off_c, 1, 76, 0
1, 31310, Note_off_c, 1, 73, 0
1, 31310, Note_off_c, 1, 57, 0
1, 31310, Note_off_c, 1, 45, 0
1, 31320, Note_on_c, 1, 86, 127
1, 31320, Note_on_c, 1, 78, 127
1, 31320, Note_on_c, 1, 74, 127
1, 31320, Note_on_c, 1, 50, 127
1, 31320, Note_on_c, 1, 66, 127
1, 31320, Note_on_c, 1, 59, 127
1, 31320, Note_on_c, 1, 47, 127
1, 31340, Note_off_c, 1, 66, 0
1, 31350, Note_on_c, 1, 73, 127
1, 31350, Note_on_c, 1, 67, 127
1, 31360, Note_off_c, 1, 86, 0
1, 31360, Note_off_c, 1, 59, 0
1, 31360, Note_off_c, 1, 47, 0
1, 31370, Note_off_c, 1, 73, 0
1, 31370, Note_off_c, 1, 67, 0
1, 31380, Note_on_c, 1, 57, 127
1, 31380, Note_on_c, 1, 45, 127
1, 31400, Note_off_c, 1, 78, 0
1, 31400, Note_off_c, 1, 50, 0
1, 31400, Note_off_c, 1, 57, 0
1, 31400, Note_off_c, 1, 45, 0
1, 31410, Note_on_c, 1, 76, 127
1, 31410, Note_on_c, 1, 64, 127
1, 31410, Note_on_c, 1, 55, 127
1, 31410, Note_on_c, 1, 43, 127
1, 31420, Note_off_c, 1, 74, 0
1, 31430, Note_off_c, 1, 76, 0
1, 31430, Note_off_c, 1, 64, 0
1, 31430, Note_off_c, 1, 55, 0
1, 31430, Note_off_c, 1, 43, 0
1, 31440, Note_on_c, 1, 78, 127
1, 31440, Note_on_c, 1, 69, 127
1, 31440, Note_on_c, 1, 62, 127
1, 31440, Note_on_c, 1, 54, 127
1, 31440, Note_on_c, 1, 42, 127
1, 31460, Note_off_c, 1, 62, 0
1, 31460, Note_off_c, 1, 54, 0
1, 31460, Note_off_c, 1, 42, 0
1, 31470, Note_on_c, 1, 79, 127
1, 31470, Note_on_c, 1, 64, 127
1, 31470, Note_on_c, 1, 52, 127
1, 31470, Note_on_c, 1, 40, 127
1, 31480, Note_off_c, 1, 78, 0
1, 31480, Note_off_c, 1, 69, 0
1, 31490, Note_off_c, 1, 79, 0
1, 31490, Note_off_c, 1, 64, 0
1, 31490, Note_off_c, 1, 52, 0
1, 31490, Note_off_c, 1, 40, 0
1, 31500, Note_on_c, 1, 81, 127
1, 31500, Note_on_c, 1, 78, 127
1, 31500, Note_on_c, 1, 74, 127
1, 31500, Note_on_c, 1, 50, 127
1, 31500, Note_on_c, 1, 66, 127
1, 31500, Note_on_c, 1, 38, 127
1, 31520, Note_off_c, 1, 66, 0
1, 31520, Note_off_c, 1, 38, 0
1, 31530, Note_on_c, 1, 67, 127
1, 31530, Note_on_c, 1, 52, 127
1, 31530, Note_on_c, 1, 40, 127
1, 31540, Note_off_c, 1, 81, 0
1, 31540, Note_off_c, 1, 78, 0
1, 31540, Note_off_c, 1, 74, 0
1, 31540, Note_off_c, 1, 50, 0
1, 31550, Note_off_c, 1, 67, 0
1, 31550, Note_off_c, 1, 52, 0
1, 31550, Note_off_c, 1, 40, 0
1, 31560, Note_on_c, 1, 81, 127
1, 31560, Note_on_c, 1, 78, 127
1, 31560, Note_on_c, 1, 74, 127
1, 31560, Note_on_c, 1, 45, 127
1, 31560, Note_on_c, 1, 69, 127
1, 31560, Note_on_c, 1, 54, 127
1, 31560, Note_on_c, 1, 42, 127
1, 31580, Note_off_c, 1, 81, 0
1, 31580, Note_off_c, 1, 78, 0
1, 31580, Note_off_c, 1, 54, 0
1, 31580, Note_off_c, 1, 42, 0
1, 31590, Note_on_c, 1, 79, 127
1, 31590, Note_on_c, 1, 76, 127
1, 31590, Note_on_c, 1, 55, 127
1, 31590, Note_on_c, 1, 43, 127
1, 31600, Note_off_c, 1, 74, 0
1, 31600, Note_off_c, 1, 45, 0
1, 31600, Note_off_c, 1, 69, 0
1, 31610, Note_off_c, 1, 79, 0
1, 31610, Note_off_c, 1, 76, 0
1, 31610, Note_off_c, 1, 55, 0
1, 31610, Note_off_c, 1, 43, 0
1, 31620, Note_on_c, 1, 78, 127
1, 31620, Note_on_c, 1, 74, 127
1, 31620, Note_on_c, 1, 69, 127
1, 31620, Note_on_c, 1, 45, 127
1, 31620, Note_on_c, 1, 57, 127
1, 31640, Note_off_c, 1, 78, 0
1, 31640, Note_off_c, 1, 74, 0
1, 31650, Note_on_c, 1, 76, 127
1, 31650, Note_on_c, 1, 73, 127
1, 31660, Note_off_c, 1, 69, 0
1, 31660, Note_off_c, 1, 45, 0
1, 31660, Note_off_c, 1, 57, 0
1, 31670, Note_off_c, 1, 76, 0
1, 31670, Note_off_c, 1, 73, 0
1, 31680, Note_on_c, 1, 78, 127
1, 31680, Note_on_c, 1, 74, 127
1, 31680, Note_on_c, 1, 69, 127
1, 31680, Note_on_c, 1, 50, 127
1, 31680, Note_on_c, 1, 38, 127
1, 31700, Note_off_c, 1, 78, 0
1, 31700, Note_off_c, 1, 74, 0
1, 31710, Note_on_c, 1, 76, 127
1, 31710, Note_on_c, 1, 73, 127
1, 31720, Note_off_c, 1, 69, 0
1, 31720, Note_off_c, 1, 50, 0
1, 31720, Note_off_c, 1, 38, 0
1, 31730, Note_off_c, 1, 76, 0
1, 31730, Note_off_c, 1, 73, 0
1, 31740, Note_on_c, 1, 78, 127
1, 31740, Note_on_c, 1, 74, 127
1, 31740, Note_on_c, 1, 66, 127
1, 31740, Note_on_c, 1, 50, 127
1, 31740, Note_on_c, 1, 59, 127
1, 31740, Note_on_c, 1, 47, 127
1, 31760, Note_off_c, 1, 78, 0
1, 31760, Note_off_c, 1, 74, 0
1, 31760, Note_off_c, 1, 50, 0
1, 31770, Note_on_c, 1, 79, 127
1, 31770, Note_on_c, 1, 76, 127
1, 31780, Note_off_c, 1, 66, 0
1, 31780, Note_off_c, 1, 59, 0
1, 31780, Note_off_c, 1, 47, 0
1, 31790, Note_off_c, 1, 79, 0
1, 31790, Note_off_c, 1, 76, 0
1, 31800, Note_on_c, 1, 81, 127
1, 31800, Note_on_c, 1, 78, 127
1, 31800, Note_on_c, 1, 62, 127
1, 31800, Note_on_c, 1, 50, 127
1, 31800, Note_on_c, 1, 54, 127
1, 31800, Note_on_c, 1, 42, 127
1, 31840, Note_off_c, 1, 81, 0
1, 31840, Note_off_c, 1, 78, 0
1, 31840, Note_off_c, 1, 62, 0
1, 31840, Note_off_c, 1, 50, 0
1, 31840, Note_off_c, 1, 54, 0
1, 31840, Note_off_c, 1, 42, 0
1, 31860, Note_on_c, 1, 83, 127
1, 31860, Note_on_c, 1, 74, 127
1, 31860, Note_on_c, 1, 62, 127
1, 31860, Note_on_c, 1, 50, 127
1, 31860, Note_on_c, 1, 55, 127
1, 31860, Note_on_c, 1, 43, 127
1, 31880, Note_off_c, 1, 83, 0
1, 31890, Note_on_c, 1, 81, 127
1, 31900, Note_off_c, 1, 74, 0
1, 31900, Note_off_c, 1, 62, 0
1, 31900, Note_off_c, 1, 50, 0
1, 31900, Note_off_c, 1, 55, 0
1, 31900, Note_off_c, 1, 43, 0
1, 31910, Note_off_c, 1, 81, 0
1, 31920, Note_on_c, 1, 79, 127
1, 31920, Note_on_c, 1, 74, 127
1, 31920, Note_on_c, 1, 69, 127
1, 31920, Note_on_c, 1, 45, 127
1, 31920, Note_on_c, 1, 57, 127
1, 31940, Note_off_c, 1, 79, 0
1, 31950, Note_on_c, 1, 78, 127
1, 31960, Note_off_c, 1, 74, 0
1, 31960, Note_off_c, 1, 69, 0
1, 31960, Note_off_c, 1, 45, 0
1, 31960, Note_off_c, 1, 57, 0
1, 31970, Note_off_c, 1, 78, 0
1, 31980, Note_on_c, 1, 76, 127
1, 31980, Note_on_c, 1, 69, 127
1, 31980, Note_on_c, 1, 45, 127
1, 31980, Note_on_c, 1, 73, 127
1, 31980, Note_on_c, 1, 67, 127
1, 31980, Note_on_c, 1, 33, 127
1, 32000, Note_off_c, 1, 76, 0
1, 32010, Note_on_c, 1, 74, 127
1, 32020, Note_off_c, 1, 69, 0
1, 32020, Note_off_c, 1, 45, 0
1, 32020, Note_off_c, 1, 73, 0
1, 32020, Note_off_c, 1, 67, 0
1, 32020, Note_off_c, 1, 33, 0
1, 32030, Note_off_c, 1, 74, 0
1, 32040, Note_on_c, 1, 74, 127
1, 32040, Note_on_c, 1, 69, 127
1, 32040, Note_on_c, 1, 66, 127
1, 32040, Note_on_c, 1, 50, 127
1, 32040, Note_on_c, 1, 38, 127
1, 32120, Note_off_c, 1, 74, 0
1, 32120, Note_off_c, 1, 69, 0
1, 32120, Note_off_c, 1, 66, 0
1, 32120, Note_off_c, 1, 50, 0
1, 32120, Note_off_c, 1, 38, 0
1, 32760, Note_on_c, 1, 62, 127
1, 32760, Note_on_c, 1, 57, 127
1, 32760, Note_on_c, 1, 54, 127
1, 32760, Note_on_c, 1, 50, 127
1, 32760, Note_on_c, 1, 38, 127
1, 32800, Note_off_c, 1, 62, 0
1, 32800, Note_off_c, 1, 57, 0
1, 32800, Note_off_c, 1, 54, 0
1, 32820, Note_on_c, 1, 66, 127
1, 32840, Note_off_c, 1, 50, 0
1, 32840, Note_off_c, 1, 38, 0
1, 32860, Note_off_c, 1, 66, 0
1, 32880, Note_on_c, 1, 69, 127
1, 32880, Note_on_c, 1, 66, 127
1, 32880, Note_on_c, 1, 62, 127
1, 32920, Note_off_c, 1, 69, 0
1, 32920, Note_off_c, 1, 66, 0
1, 32920, Note_off_c, 1, 62, 0
1, 32940, Note_on_c, 1, 71, 127
1, 32940, Note_on_c, 1, 67, 127
1, 32940, Note_on_c, 1, 55, 127
1, 32970, Note_off_c, 1, 71, 0
1, 32970, Note_on_c, 1, 64, 127
1, 32970, Note_on_c, 1, 62, 127
1, 32970, Note_on_c, 1, 50, 127
1, 32980, Note_off_c, 1, 55, 0
1, 32980, Note_off_c, 1, 62, 0
1, 32980, Note_off_c, 1, 50, 0
1, 32985, Note_on_c, 1, 61, 127
1, 32985, Note_on_c, 1, 49, 127
1, 32995, Note_off_c, 1, 61, 0
1, 32995, Note_off_c, 1, 49, 0
1, 33000, Note_off_c, 1, 67, 0
1, 33000, Note_off_c, 1, 64, 0
1, 33000, Note_on_c, 1, 69, 127
1, 33000, Note_on_c, 1, 66, 127
1, 33030, Note_on_c, 1, 57, 127
1, 33030, Note_on_c, 1, 45, 127
1, 33050, Note_off_c, 1, 57, 0
1, 33050, Note_off_c, 1, 45, 0
1, 33060, Note_off_c, 1, 69, 0
1, 33060, Note_off_c, 1, 66, 0
1, 33060, Note_on_c, 1, 54, 127
1, 33060, Note_on_c, 1, 42, 127
1, 33080, Note_off_c, 1, 54, 0
1, 33080, Note_off_c, 1, 42, 0
1, 33090, Note_on_c, 1, 50, 127
1, 33090, Note_on_c, 1, 38, 127
1, 33110, Note_off_c, 1, 50, 0
1, 33110, Note_off_c, 1, 38, 0
1, 33120, Note_on_c, 1, 61, 127
1, 33120, Note_on_c, 1, 67, 127
1, 33120, Note_on_c, 1, 52, 127
1, 33120, Note_on_c, 1, 40, 127
1, 33150, Note_on_c, 1, 71, 127
1, 33160, Note_off_c, 1, 61, 0
1, 33160, Note_off_c, 1, 67, 0
1, 33160, Note_off_c, 1, 52, 0
1, 33160, Note_off_c, 1, 40, 0
1, 33180, Note_off_c, 1, 71, 0
1, 33180, Note_on_c, 1, 69, 127
1, 33180, Note_on_c, 1, 66, 127
1, 33180, Note_on_c, 1, 62, 127
1, 33180, Note_on_c, 1, 54, 127
1, 33180, Note_on_c, 1, 42, 127
1, 33210, Note_off_c, 1, 69, 0
1, 33220, Note_off_c, 1, 66, 0
1, 33220, Note_off_c, 1, 62, 0
1, 33220, Note_off_c, 1, 54, 0
1, 33220, Note_off_c, 1, 42, 0
1, 33240, Note_on_c, 1, 55, 127
1, 33240, Note_on_c, 1, 43, 127
1, 33270, Note_on_c, 1, 64, 127
1, 33280, Note_off_c, 1, 55, 0
1, 33280, Note_off_c, 1, 43, 0
1, 33300, Note_on_c, 1, 57, 127
1, 33300, Note_on_c, 1, 45, 127
1, 33340, Note_off_c, 1, 64, 0
1, 33340, Note_off_c, 1, 57, 0
1, 33340, Note_off_c, 1, 45, 0
1, 33360, Note_on_c, 1, 59, 127
1, 33390, Note_off_c, 1, 59, 0
1, 33420, Note_on_c, 1, 59, 127
1, 33440, Note_off_c, 1, 59, 0
1, 33450, Note_on_c, 1, 61, 127
1, 33470, Note_off_c, 1, 61, 0
1, 33480, Note_on_c, 1, 62, 127
1, 33480, Note_on_c, 1, 57, 127
1, 33480, Note_on_c, 1, 54, 127
1, 33480, Note_on_c, 1, 42, 127
1, 33500, Note_off_c, 1, 62, 0
1, 33510, Note_on_c, 1, 64, 127
1, 33520, Note_off_c, 1, 57, 0
1, 33530, Note_off_c, 1, 64, 0
1, 33540, Note_on_c, 1, 66, 127
1, 33560, Note_off_c, 1, 54, 0
1, 33560, Note_off_c, 1, 42, 0
1, 33560, Note_off_c, 1, 66, 0
1, 33570, Note_on_c, 1, 67, 127
1, 33590, Note_off_c, 1, 67, 0
1, 33600, Note_on_c, 1, 69, 127
1, 33600, Note_on_c, 1, 66, 127
1, 33600, Note_on_c, 1, 62, 127
1, 33620, Note_off_c, 1, 69, 0
1, 33620, Note_off_c, 1, 66, 0
1, 33630, Note_on_c, 1, 71, 127
1, 33630, Note_on_c, 1, 67, 127
1, 33640, Note_off_c, 1, 62, 0
1, 33650, Note_off_c, 1, 71, 0
1, 33650, Note_off_c, 1, 67, 0
1, 33660, Note_on_c, 1, 72, 127
1, 33660, Note_on_c, 1, 69, 127
1, 33660, Note_on_c, 1, 50, 127
1, 33690, Note_off_c, 1, 72, 0
1, 33690, Note_on_c, 1, 55, 127
1, 33690, Note_on_c, 1, 43, 127
1, 33700, Note_off_c, 1, 50, 0
1, 33700, Note_off_c, 1, 55, 0
1, 33700, Note_off_c, 1, 43, 0
1, 33705, Note_on_c, 1, 54, 127
1, 33705, Note_on_c, 1, 42, 127
1, 33715, Note_off_c, 1, 54, 0
1, 33715, Note_off_c, 1, 42, 0
1, 33720, Note_off_c, 1, 69, 0
1, 33720, Note_on_c, 1, 71, 127
1, 33720, Note_on_c, 1, 67, 127
1, 33720, Note_on_c, 1, 62, 127
1, 33750, Note_on_c, 1, 38, 127
1, 33760, Note_off_c, 1, 71, 0
1, 33760, Note_off_c, 1, 67, 0
1, 33760, Note_off_c, 1, 62, 0
1, 33770, Note_off_c, 1, 38, 0
1, 33780, Note_on_c, 1, 47, 127
1, 33780, Note_on_c, 1, 35, 127
1, 33800, Note_off_c, 1, 47, 0
1, 33800, Note_off_c, 1, 35, 0
1, 33810, Note_on_c, 1, 43, 127
1, 33810, Note_on_c, 1, 31, 127
1, 33830, Note_off_c, 1, 43, 0
1, 33830, Note_off_c, 1, 31, 0
1, 33840, Note_on_c, 1, 64, 127
1, 33840, Note_on_c, 1, 59, 127
1, 33840, Note_on_c, 1, 56, 127
1, 33840, Note_on_c, 1, 44, 127
1, 33880, Note_off_c, 1, 64, 0
1, 33880, Note_off_c, 1, 59, 0
1, 33900, Note_on_c, 1, 68, 127
1, 33920, Note_off_c, 1, 56, 0
1, 33920, Note_off_c, 1, 44, 0
1, 33940, Note_off_c, 1, 68, 0
1, 33960, Note_on_c, 1, 71, 127
1, 33960, Note_on_c, 1, 68, 127
1, 33960, Note_on_c, 1, 64, 127
1, 34000, Note_off_c, 1, 71, 0
1, 34000, Note_off_c, 1, 68, 0
1, 34000, Note_off_c, 1, 64, 0
1, 34020, Note_on_c, 1, 74, 127
1, 34020, Note_on_c, 1, 71, 127
1, 34020, Note_on_c, 1, 52, 127
1, 34050, Note_off_c, 1, 74, 0
1, 34050, Note_on_c, 1, 57, 127
1, 34050, Note_on_c, 1, 45, 127
1, 34060, Note_off_c, 1, 52, 0
1, 34060, Note_off_c, 1, 57, 0
1, 34060, Note_off_c, 1, 45, 0
1, 34065, Note_on_c, 1, 56, 127
1, 34065, Note_on_c, 1, 44, 127
1, 34075, Note_off_c, 1, 56, 0
1, 34075, Note_off_c, 1, 44, 0
1, 34080, Note_off_c, 1, 71, 0
1, 34080, Note_on_c, 1, 73, 127
1, 34080, Note_on_c, 1, 69, 127
1, 34080, Note_on_c, 1, 64, 127
1, 34110, Note_on_c, 1, 40, 127
1, 34120, Note_off_c, 1, 69, 0
1, 34120, Note_off_c, 1, 64, 0
1, 34130, Note_off_c, 1, 40, 0
1, 34140, Note_off_c, 1, 73, 0
1, 34140, Note_on_c, 1, 49, 127
1, 34140, Note_on_c, 1, 37, 127
1, 34160, Note_off_c, 1, 49, 0
1, 34160, Note_off_c, 1, 37, 0
1, 34170, Note_on_c, 1, 45, 127
1, 34170, Note_on_c, 1, 33, 127
1, 34190, Note_off_c, 1, 45, 0
1, 34190, Note_off_c, 1, 33, 0
1, 34200, Note_on_c, 1, 69, 127
1, 34200, Note_on_c, 1, 64, 127
1, 34200, Note_on_c, 1, 49, 127
1, 34200, Note_on_c, 1, 37, 127
1, 34230, Note_on_c, 1, 71, 127
1, 34240, Note_off_c, 1, 69, 0
1, 34240, Note_off_c, 1, 64, 0
1, 34250, Note_off_c, 1, 71, 0
1, 34260, Note_on_c, 1, 73, 127
1, 34260, Note_on_c, 1, 67, 127
1, 34280, Note_off_c, 1, 49, 0
1, 34280, Note_off_c, 1, 37, 0
1, 34280, Note_off_c, 1, 73, 0
1, 34280, Note_off_c, 1, 67, 0
1, 34290, Note_on_c, 1, 74, 127
1, 34310, Note_off_c, 1, 74, 0
1, 34320, Note_on_c, 1, 76, 127
1, 34320, Note_on_c, 1, 73, 127
1, 34320, Note_on_c, 1, 69, 127
1, 34340, Note_off_c, 1, 76, 0
1, 34340, Note_off_c, 1, 73, 0
1, 34350, Note_on_c, 1, 78, 127
1, 34350, Note_on_c, 1, 74, 127
1, 34360, Note_off_c, 1, 69, 0
1, 34370, Note_off_c, 1, 78, 0
1, 34370, Note_off_c, 1, 74, 0
1, 34380, Note_on_c, 1, 79, 127
1, 34380, Note_on_c, 1, 76, 127
1, 34380, Note_on_c, 1, 61, 127
1, 34380, Note_on_c, 1, 45, 127
1, 34380, Note_on_c, 1, 33, 127
1, 34410, Note_off_c, 1, 79, 0
1, 34410, Note_on_c, 1, 73, 127
1, 34420, Note_off_c, 1, 61, 0
1, 34420, Note_off_c, 1, 45, 0
1, 34420, Note_off_c, 1, 33, 0
1, 34430, Note_off_c, 1, 76, 0
1, 34430, Note_off_c, 1, 73, 0
1, 34440, Note_on_c, 1, 78, 127
1, 34440, Note_on_c, 1, 69, 127
1, 34440, Note_on_c, 1, 62, 127
1, 34440, Note_on_c, 1, 50, 127
1, 34440, Note_on_c, 1, 38, 127
1, 34470, Note_off_c, 1, 78, 0
1, 34470, Note_off_c, 1, 69, 0
1, 34470, Note_on_c, 1, 74, 127
1, 34470, Note_on_c, 1, 66, 127
1, 34480, Note_off_c, 1, 62, 0
1, 34480, Note_off_c, 1, 50, 0
1, 34480, Note_off_c, 1, 38, 0
1, 34490, Note_off_c, 1, 74, 0
1, 34490, Note_off_c, 1, 66, 0
1, 34500, Note_on_c, 1, 76, 127
1, 34500, Note_on_c, 1, 67, 127
1, 34500, Note_on_c, 1, 47, 127
1, 34500, Note_on_c, 1, 35, 127
1, 34530, Note_off_c, 1, 76, 0
1, 34530, Note_on_c, 1, 73, 127
1, 34530, Note_on_c, 1, 64, 127
1, 34540, Note_off_c, 1, 67, 0
1, 34540, Note_off_c, 1, 47, 0
1, 34540, Note_off_c, 1, 35, 0
1, 34550, Note_off_c, 1, 73, 0
1, 34550, Note_off_c, 1, 64, 0
1, 34560, Note_on_c, 1, 74, 127
1, 34560, Note_on_c, 1, 66, 127
1, 34560, Note_on_c, 1, 71, 127
1, 34560, Note_on_c, 1, 43, 127
1, 34560, Note_on_c, 1, 31, 127
1, 34590, Note_off_c, 1, 74, 0
1, 34590, Note_off_c, 1, 66, 0
1, 34590, Note_on_c, 1, 67, 127
1, 34600, Note_off_c, 1, 43, 0
1, 34600, Note_off_c, 1, 31, 0
1, 34610, Note_off_c, 1, 71, 0
1, 34620, Note_off_c, 1, 67, 0
1, 34620, Note_on_c, 1, 64, 127
1, 34620, Note_on_c, 1, 69, 127
1, 34620, Note_on_c, 1, 45, 127
1, 34620, Note_on_c, 1, 33, 127
1, 34627, Note_on_c, 1, 73, 127
1, 34634, Note_off_c, 1, 73, 0
1, 34660, Note_off_c, 1, 69, 0
1, 34660, Note_off_c, 1, 45, 0
1, 34660, Note_off_c, 1, 33, 0
1, 34680, Note_on_c, 1, 57, 127
1, 34710, Note_off_c, 1, 64, 0
1, 34720, Note_off_c, 1, 57, 0
1, 34740, Note_on_c, 1, 74, 127
1, 34740, Note_on_c, 1, 66, 127
1, 34740, Note_on_c, 1, 57, 127
1, 34740, Note_on_c, 1, 38, 127
1, 34740, Note_on_c, 1, 26, 127
1, 34760, Note_off_c, 1, 74, 0
1, 34760, Note_off_c, 1, 66, 0
1, 34760, Note_off_c, 1, 57, 0
1, 34770, Note_on_c, 1, 69, 127
1, 34770, Note_on_c, 1, 62, 127
1, 34780, Note_off_c, 1, 38, 0
1, 34780, Note_off_c, 1, 26, 0
1, 34785, Note_off_c, 1, 69, 0
1, 34785, Note_on_c, 1, 71, 127
1, 34790, Note_off_c, 1, 62, 0
1, 34800, Note_off_c, 1, 71, 0
1, 34800, Note_on_c, 1, 42, 127
1, 34800, Note_on_c, 1, 30, 127
1, 34840, Note_off_c, 1, 42, 0
1, 34840, Note_off_c, 1, 30, 0
1, 34845, Note_on_c, 1, 67, 127
1, 34860, Note_off_c, 1, 67, 0
1, 34860, Note_on_c, 1, 45, 127
1, 34860, Note_on_c, 1, 33, 127
1, 34890, Note_on_c, 1, 54, 127
1, 34900, Note_off_c, 1, 45, 0
1, 34900, Note_off_c, 1, 33, 0
1, 34905, Note_on_c, 1, 64, 127
1, 34910, Note_off_c, 1, 54, 0
1, 34920, Note_off_c, 1, 64, 0
1, 34920, Note_on_c, 1, 50, 127
1, 35000, Note_off_c, 1, 50, 0
1, 35145, Note_on_c, 1, 61, 127
1, 35145, Note_on_c, 1, 49, 127
1, 35155, Note_off_c, 1, 61, 0
1, 35155, Note_off_c, 1, 49, 0
1, 35250, Note_on_c, 1, 50, 127
1, 35250, Note_on_c, 1, 38, 127
1, 35270, Note_off_c, 1, 50, 0
1, 35270, Note_off_c, 1, 38, 0
1, 35280, Note_on_c, 1, 74, 127
1, 35280, Note_on_c, 1, 71, 127
1, 35280, Note_on_c, 1, 55, 127
1, 35280, Note_on_c, 1, 43, 127
1, 35310, Note_off_c, 1, 71, 0
1, 35320, Note_off_c, 1, 55, 0
1, 35320, Note_off_c, 1, 43, 0
1, 35340, Note_off_c, 1, 74, 0
1, 35340, Note_on_c, 1, 79, 127
1, 35340, Note_on_c, 1, 73, 127
1, 35340, Note_on_c, 1, 52, 127
1, 35340, Note_on_c, 1, 40, 127
1, 35370, Note_off_c, 1, 73, 0
1, 35380, Note_off_c, 1, 79, 0
1, 35380, Note_off_c, 1, 52, 0
1, 35380, Note_off_c, 1, 40, 0
1, 35400, Note_on_c, 1, 69, 127
1, 35400, Note_on_c, 1, 57, 127
1, 35400, Note_on_c, 1, 45, 127
1, 35430, Note_off_c, 1, 69, 0
1, 35430, Note_on_c, 1, 67, 127
1, 35440, Note_off_c, 1, 57, 0
1, 35440, Note_off_c, 1, 45, 0
1, 35460, Note_off_c, 1, 67, 0
1, 35460, Note_on_c, 1, 66, 127
1, 35460, Note_on_c, 1, 50, 127
1, 35460, Note_on_c, 1, 38, 127
1, 35480, Note_off_c, 1, 50, 0
1, 35480, Note_off_c, 1, 38, 0
1, 35490, Note_off_c, 1, 66, 0
1, 35490, Note_on_c, 1, 62, 127
1, 35505, Note_on_c, 1, 56, 127
1, 35505, Note_on_c, 1, 44, 127
1, 35515, Note_off_c, 1, 56, 0
1, 35515, Note_off_c, 1, 44, 0
1, 35520, Note_off_c, 1, 62, 0
1, 35520, Note_on_c, 1, 64, 127
1, 35580, Note_off_c, 1, 64, 0
1, 35580, Note_on_c, 1, 49, 127
1, 35580, Note_on_c, 1, 37, 127
1, 35600, Note_off_c, 1, 49, 0
1, 35600, Note_off_c, 1, 37, 0
1, 35610, Note_on_c, 1, 45, 127
1, 35610, Note_on_c, 1, 33, 127
1, 35630, Note_off_c, 1, 45, 0
1, 35630, Note_off_c, 1, 33, 0
1, 35640, Note_on_c, 1, 69, 127
1, 35640, Note_on_c, 1, 64, 127
1, 35640, Note_on_c, 1, 49, 127
1, 35640, Note_on_c, 1, 37, 127
1, 35670, Note_on_c, 1, 71, 127
1, 35680, Note_off_c, 1, 69, 0
1, 35680, Note_off_c, 1, 64, 0
1, 35690, Note_off_c, 1, 71, 0
1, 35700, Note_on_c, 1, 73, 127
1, 35700, Note_on_c, 1, 67, 127
1, 35720, Note_off_c, 1, 49, 0
1, 35720, Note_off_c, 1, 37, 0
1, 35720, Note_off_c, 1, 73, 0
1, 35720, Note_off_c, 1, 67, 0
1, 35730, Note_on_c, 1, 74, 127
1, 35750, Note_off_c, 1, 74, 0
1, 35760, Note_on_c, 1, 76, 127
1, 35760, Note_on_c, 1, 73, 127
1, 35760, Note_on_c, 1, 69, 127
1, 35780, Note_off_c, 1, 76, 0
1, 35780, Note_off_c, 1, 73, 0
1, 35790, Note_on_c, 1, 78, 127
1, 35790, Note_on_c, 1, 74, 127
1, 35800, Note_off_c, 1, 69, 0
1, 35810, Note_off_c, 1, 78, 0
1, 35810, Note_off_c, 1, 74, 0
1, 35820, Note_on_c, 1, 79, 127
1, 35820, Note_on_c, 1, 76, 127
1, 35820, Note_on_c, 1, 61, 127
1, 35820, Note_on_c, 1, 45, 127
1, 35820, Note_on_c, 1, 33, 127
1, 35850, Note_off_c, 1, 79, 0
1, 35850, Note_on_c, 1, 73, 127
1, 35860, Note_off_c, 1, 61, 0
1, 35860, Note_off_c, 1, 45, 0
1, 35860, Note_off_c, 1, 33, 0
1, 35870, Note_off_c, 1, 76, 0
1, 35870, Note_off_c, 1, 73, 0
1, 35880, Note_on_c, 1, 78, 127
1, 35880, Note_on_c, 1, 69, 127
1, 35880, Note_on_c, 1, 62, 127
1, 35880, Note_on_c, 1, 50, 127
1, 35880, Note_on_c, 1, 38, 127
1, 35910, Note_off_c, 1, 78, 0
1, 35910, Note_off_c, 1, 69, 0
1, 35910, Note_on_c, 1, 74, 127
1, 35910, Note_on_c, 1, 66, 127
1, 35920, Note_off_c, 1, 62, 0
1, 35920, Note_off_c, 1, 50, 0
1, 35920, Note_off_c, 1, 38, 0
1, 35930, Note_off_c, 1, 74, 0
1, 35930, Note_off_c, 1, 66, 0
1, 35940, Note_on_c, 1, 76, 127
1, 35940, Note_on_c, 1, 67, 127
1, 35940, Note_on_c, 1, 47, 127
1, 35940, Note_on_c, 1, 35, 127
1, 35970, Note_off_c, 1, 76, 0
1, 35970, Note_on_c, 1, 73, 127
1, 35970, Note_on_c, 1, 64, 127
1, 35980, Note_off_c, 1, 67, 0
1, 35980, Note_off_c, 1, 47, 0
1, 35980, Note_off_c, 1, 35, 0
1, 35990, Note_off_c, 1, 73, 0
1, 35990, Note_off_c, 1, 64, 0
1, 36000, Note_on_c, 1, 74, 127
1, 36000, Note_on_c, 1, 66, 127
1, 36000, Note_on_c, 1, 71, 127
1, 36000, Note_on_c, 1, 43, 127
1, 36000, Note_on_c, 1, 31, 127
1, 36030, Note_off_c, 1, 74, 0
1, 36030, Note_off_c, 1, 66, 0
1, 36030, Note_on_c, 1, 67, 127
1, 36040, Note_off_c, 1, 43, 0
1, 36040, Note_off_c, 1, 31, 0
1, 36050, Note_off_c, 1, 71, 0
1, 36060, Note_off_c, 1, 67, 0
1, 36060, Note_on_c, 1, 73, 127
1, 36060, Note_on_c, 1, 64, 127
1, 36060, Note_on_c, 1, 69, 127
1, 36060, Note_on_c, 1, 45, 127
1, 36060, Note_on_c, 1, 33, 127
1, 36067, Note_off_c, 1, 73, 0
1, 36100, Note_off_c, 1, 69, 0
1, 36100, Note_off_c, 1, 45, 0
1, 36100, Note_off_c, 1, 33, 0
1, 36120, Note_on_c, 1, 57, 127
1, 36150, Note_off_c, 1, 64, 0
1, 36160, Note_off_c, 1, 57, 0
1, 36180, Note_on_c, 1, 74, 127
1, 36180, Note_on_c, 1, 66, 127
1, 36180, Note_on_c, 1, 57, 127
1, 36180, Note_on_c, 1, 38, 127
1, 36180, Note_on_c, 1, 26, 127
1, 36200, Note_off_c, 1, 74, 0
1, 36200, Note_off_c, 1, 66, 0
1, 36200, Note_off_c, 1, 57, 0
1, 36210, Note_on_c, 1, 69, 127
1, 36210, Note_on_c, 1, 62, 127
1, 36220, Note_off_c, 1, 38, 0
1, 36220, Note_off_c, 1, 26, 0
1, 36225, Note_off_c, 1, 69, 0
1, 36225, Note_on_c, 1, 71, 127
1, 36230, Note_off_c, 1, 62, 0
1, 36240, Note_off_c, 1, 71, 0
1, 36240, Note_on_c, 1, 42, 127
1, 36240, Note_on_c, 1, 30, 127
1, 36280, Note_off_c, 1, 42, 0
1, 36280, Note_off_c, 1, 30, 0
1, 36285, Note_on_c, 1, 67, 127
1, 36300, Note_off_c, 1, 67, 0
1, 36300, Note_on_c, 1, 45, 127
1, 36300, Note_on_c, 1, 33, 127
1, 36330, Note_on_c, 1, 54, 127
1, 36340, Note_off_c, 1, 45, 0
1, 36340, Note_off_c, 1, 33, 0
1, 36345, Note_on_c, 1, 64, 127
1, 36350, Note_off_c, 1, 54, 0
1, 36360, Note_off_c, 1, 64, 0
1, 36360, Note_on_c, 1, 50, 127
1, 36440, Note_off_c, 1, 50, 0
1, 36540, Note_on_c, 1, 55, 127
1, 36580, Note_off_c, 1, 55, 0
1, 36585, Note_on_c, 1, 61, 127
1, 36585, Note_on_c, 1, 49, 127
1, 36595, Note_off_c, 1, 61, 0
1, 36595, Note_off_c, 1, 49, 0
1, 36690, Note_on_c, 1, 50, 127
1, 36690, Note_on_c, 1, 38, 127
1, 36710, Note_off_c, 1, 50, 0
1, 36710, Note_off_c, 1, 38, 0
1, 36720, Note_on_c, 1, 62, 127
1, 36720, Note_on_c, 1, 67, 127
1, 36720, Note_on_c, 1, 71, 127
1, 36720, Note_on_c, 1, 55, 127
1, 36720, Note_on_c, 1, 43, 127
1, 36750, Note_on_c, 1, 74, 127
1, 36760, Note_off_c, 1, 62, 0
1, 36760, Note_off_c, 1, 67, 0
1, 36760, Note_off_c, 1, 55, 0
1, 36760, Note_off_c, 1, 43, 0
1, 36770, Note_off_c, 1, 71, 0
1, 36780, Note_off_c, 1, 74, 0
1, 36780, Note_on_c, 1, 69, 127
1, 36780, Note_on_c, 1, 64, 127
1, 36780, Note_on_c, 1, 57, 127
1, 36780, Note_on_c, 1, 73, 127
1, 36780, Note_on_c, 1, 45, 127
1, 36800, Note_off_c, 1, 69, 0
1, 36810, Note_off_c, 1, 73, 0
1, 36820, Note_off_c, 1, 64, 0
1, 36820, Note_off_c, 1, 57, 0
1, 36820, Note_off_c, 1, 45, 0
1, 36840, Note_on_c, 1, 66, 127
1, 36840, Note_on_c, 1, 33, 127
1, 36860, Note_off_c, 1, 66, 0
1, 36880, Note_off_c, 1, 33, 0
1, 36900, Note_on_c, 1, 50, 127
1, 36900, Note_on_c, 1, 38, 127
1, 36940, Note_off_c, 1, 50, 0
1, 36940, Note_off_c, 1, 38, 0
1, 37020, Note_on_c, 1, 69, 127
1, 37020, Note_on_c, 1, 64, 127
1, 37020, Note_on_c, 1, 62, 127
1, 37020, Note_on_c, 1, 47, 127
1, 37020, Note_on_c, 1, 35, 127
1, 37040, Note_off_c, 1, 69, 0
1, 37050, Note_on_c, 1, 68, 127
1, 37060, Note_off_c, 1, 64, 0
1, 37060, Note_off_c, 1, 62, 0
1, 37060, Note_off_c, 1, 47, 0
1, 37060, Note_off_c, 1, 35, 0
1, 37070, Note_off_c, 1, 68, 0
1, 37080, Note_on_c, 1, 69, 127
1, 37080, Note_on_c, 1, 64, 127
1, 37080, Note_on_c, 1, 61, 127
1, 37080, Note_on_c, 1, 49, 127
1, 37080, Note_on_c, 1, 37, 127
1, 37120, Note_off_c, 1, 69, 0
1, 37120, Note_off_c, 1, 61, 0
1, 37140, Note_off_c, 1, 49, 0
1, 37140, Note_off_c, 1, 37, 0
1, 37140, Note_on_c, 1, 73, 127
1, 37140, Note_on_c, 1, 45, 127
1, 37140, Note_on_c, 1, 33, 127
1, 37180, Note_off_c, 1, 64, 0
1, 37180, Note_off_c, 1, 73, 0
1, 37200, Note_off_c, 1, 45, 0
1, 37200, Note_off_c, 1, 33, 0
1, 37200, Note_on_c, 1, 76, 127
1, 37240, Note_off_c, 1, 76, 0
1, 37260, Note_on_c, 1, 78, 127
1, 37260, Note_on_c, 1, 74, 127
1, 37260, Note_on_c, 1, 62, 127
1, 37290, Note_off_c, 1, 78, 0
1, 37290, Note_on_c, 1, 71, 127
1, 37290, Note_on_c, 1, 57, 127
1, 37300, Note_off_c, 1, 62, 0
1, 37305, Note_off_c, 1, 57, 0
1, 37305, Note_on_c, 1, 56, 127
1, 37305, Note_on_c, 1, 44, 127
1, 37320, Note_off_c, 1, 74, 0
1, 37320, Note_off_c, 1, 71, 0
1, 37320, Note_off_c, 1, 56, 0
1, 37320, Note_off_c, 1, 44, 0
1, 37350, Note_on_c, 1, 52, 127
1, 37350, Note_on_c, 1, 40, 127
1, 37380, Note_off_c, 1, 52, 0
1, 37380, Note_off_c, 1, 40, 0
1, 37440, Note_on_c, 1, 68, 127
1, 37440, Note_on_c, 1, 47, 127
1, 37440, Note_on_c, 1, 35, 127
1, 37480, Note_off_c, 1, 68, 0
1, 37500, Note_off_c, 1, 47, 0
1, 37500, Note_off_c, 1, 35, 0
1, 37500, Note_on_c, 1, 28, 127
1, 37560, Note_off_c, 1, 28, 0
1, 37560, Note_on_c, 1, 50, 127
1, 37560, Note_on_c, 1, 38, 127
1, 37620, Note_off_c, 1, 50, 0
1, 37620, Note_off_c, 1, 38, 0
1, 37650, Note_on_c, 1, 67, 127
1, 37680, Note_off_c, 1, 67, 0
1, 37680, Note_on_c, 1, 66, 127
1, 37710, Note_off_c, 1, 66, 0
1, 37740, Note_on_c, 1, 59, 127
1, 37780, Note_off_c, 1, 59, 0
1, 37845, Note_on_c, 1, 54, 127
1, 37845, Note_on_c, 1, 42, 127
1, 37860, Note_off_c, 1, 54, 0
1, 37860, Note_off_c, 1, 42, 0
1, 37980, Note_on_c, 1, 79, 127
1, 38010, Note_off_c, 1, 79, 0
1, 38160, Note_on_c, 1, 63, 127
1, 38200, Note_off_c, 1, 63, 0
1, 38220, Note_on_c, 1, 75, 127
1, 38260, Note_off_c, 1, 75, 0
1, 38280, Note_on_c, 1, 51, 127
1, 38280, Note_on_c, 1, 39, 127
1, 38310, Note_off_c, 1, 51, 0
1, 38310, Note_off_c, 1, 39, 0
1, 38340, Note_on_c, 1, 81, 127
1, 38370, Note_off_c, 1, 81, 0
1, 38400, Note_on_c, 1, 80, 127
1, 38440, Note_off_c, 1, 80, 0
1, 38700, Note_on_c, 1, 32, 127
1, 38740, Note_off_c, 1, 32, 0
1, 38820, Note_on_c, 1, 30, 127
1, 38860, Note_off_c, 1, 30, 0
1, 38880, Note_on_c, 1, 26, 127
1, 38920, Note_off_c, 1, 26, 0
1, 39240, Note_on_c, 1, 55, 127
1, 39240, Note_on_c, 1, 43, 127
1, 39270, Note_off_c, 1, 55, 0
1, 39270, Note_off_c, 1, 43, 0
1, 39420, Note_on_c, 1, 31, 127
1, 39440, Note_off_c, 1, 31, 0
1, 39660, Note_on_c, 1, 46, 127
1, 39660, Note_on_c, 1, 34, 127
1, 39690, Note_on_c, 1, 70, 127
1, 39710, Note_off_c, 1, 70, 0
1, 39720, Note_off_c, 1, 46, 0
1, 39720, Note_off_c, 1, 34, 0
1, 41685, Note_on_c, 1, 70, 127
1, 41691, Note_off_c, 1, 70, 0
1, 41692, Note_on_c, 1, 71, 127
1, 41698, Note_off_c, 1, 71, 0
1, 41700, Note_on_c, 1, 70, 127
1, 41700, Note_on_c, 1, 42, 127
1, 41700, Note_on_c, 1, 30, 127
1, 41706, Note_off_c, 1, 70, 0
1, 41707, Note_on_c, 1, 71, 127
1, 41713, Note_off_c, 1, 71, 0
1, 41740, Note_off_c, 1, 42, 0
1, 41740, Note_off_c, 1, 30, 0
1, 41760, Note_on_c, 1, 66, 127
1, 41760, Note_on_c, 1, 62, 127
1, 41760, Note_on_c, 1, 47, 127
1, 41760, Note_on_c, 1, 35, 127
1, 41790, Note_on_c, 1, 73, 127
1, 41800, Note_off_c, 1, 66, 0
1, 41800, Note_off_c, 1, 62, 0
1, 41810, Note_off_c, 1, 73, 0
1, 41820, Note_on_c, 1, 74, 127
1, 41840, Note_off_c, 1, 47, 0
1, 41840, Note_off_c, 1, 35, 0
1, 41840, Note_off_c, 1, 74, 0
1, 41850, Note_on_c, 1, 76, 127
1, 41870, Note_off_c, 1, 76, 0
1, 41880, Note_on_c, 1, 78, 127
1, 41900, Note_off_c, 1, 78, 0
1, 41910, Note_on_c, 1, 80, 127
1, 41930, Note_off_c, 1, 80, 0
1, 41940, Note_on_c, 1, 81, 127
1, 41940, Note_on_c, 1, 78, 127
1, 41940, Note_on_c, 1, 63, 127
1, 41970, Note_off_c, 1, 81, 0
1, 41970, Note_on_c, 1, 52, 127
1, 41970, Note_on_c, 1, 40, 127
1, 41980, Note_off_c, 1, 63, 0
1, 41980, Note_off_c, 1, 52, 0
1, 41980, Note_off_c, 1, 40, 0
1, 41985, Note_on_c, 1, 51, 127
1, 41985, Note_on_c, 1, 39, 127
1, 41995, Note_off_c, 1, 51, 0
1, 41995, Note_off_c, 1, 39, 0
1, 42000, Note_off_c, 1, 78, 0
1, 42000, Note_on_c, 1, 80, 127
1, 42000, Note_on_c, 1, 76, 127
1, 42000, Note_on_c, 1, 71, 127
1, 42030, Note_on_c, 1, 47, 127
1, 42030, Note_on_c, 1, 35, 127
1, 42040, Note_off_c, 1, 80, 0
1, 42040, Note_off_c, 1, 76, 0
1, 42040, Note_off_c, 1, 71, 0
1, 42050, Note_off_c, 1, 47, 0
1, 42050, Note_off_c, 1, 35, 0
1, 42060, Note_on_c, 1, 44, 127
1, 42060, Note_on_c, 1, 32, 127
1, 42080, Note_off_c, 1, 44, 0
1, 42080, Note_off_c, 1, 32, 0
1, 42090, Note_on_c, 1, 40, 127
1, 42090, Note_on_c, 1, 28, 127
1, 42110, Note_off_c, 1, 40, 0
1, 42110, Note_off_c, 1, 28, 0
1, 42120, Note_on_c, 1, 73, 127
1, 42120, Note_on_c, 1, 68, 127
1, 42120, Note_on_c, 1, 53, 127
1, 42120, Note_on_c, 1, 41, 127
1, 42160, Note_off_c, 1, 73, 0
1, 42160, Note_off_c, 1, 68, 0
1, 42180, Note_on_c, 1, 77, 127
1, 42200, Note_off_c, 1, 53, 0
1, 42200, Note_off_c, 1, 41, 0
1, 42220, Note_off_c, 1, 77, 0
1, 42240, Note_on_c, 1, 80, 127
1, 42240, Note_on_c, 1, 77, 127
1, 42240, Note_on_c, 1, 73, 127
1, 42280, Note_off_c, 1, 80, 0
1, 42280, Note_off_c, 1, 77, 0
1, 42280, Note_off_c, 1, 73, 0
1, 42300, Note_on_c, 1, 83, 127
1, 42300, Note_on_c, 1, 80, 127
1, 42300, Note_on_c, 1, 74, 127
1, 42330, Note_off_c, 1, 83, 0
1, 42330, Note_on_c, 1, 54, 127
1, 42330, Note_on_c, 1, 42, 127
1, 42340, Note_off_c, 1, 74, 0
1, 42340, Note_off_c, 1, 54, 0
1, 42340, Note_off_c, 1, 42, 0
1, 42345, Note_on_c, 1, 53, 127
1, 42345, Note_on_c, 1, 41, 127
1, 42355, Note_off_c, 1, 53, 0
1, 42355, Note_off_c, 1, 41, 0
1, 42360, Note_off_c, 1, 80, 0
1, 42360, Note_on_c, 1, 82, 127
1, 42360, Note_on_c, 1, 78, 127
1, 42360, Note_on_c, 1, 73, 127
1, 42390, Note_on_c, 1, 49, 127
1, 42390, Note_on_c, 1, 37, 127
1, 42400, Note_off_c, 1, 82, 0
1, 42400, Note_off_c, 1, 78, 0
1, 42400, Note_off_c, 1, 73, 0
1, 42410, Note_off_c, 1, 49, 0
1, 42410, Note_off_c, 1, 37, 0
1, 42420, Note_on_c, 1, 46, 127
1, 42420, Note_on_c, 1, 34, 127
1, 42440, Note_off_c, 1, 46, 0
1, 42440, Note_off_c, 1, 34, 0
1, 42450, Note_on_c, 1, 42, 127
1, 42450, Note_on_c, 1, 30, 127
1, 42470, Note_off_c, 1, 42, 0
1, 42470, Note_off_c, 1, 30, 0
1, 42480, Note_on_c, 1, 66, 127
1, 42480, Note_on_c, 1, 61, 127
1, 42480, Note_on_c, 1, 58, 127
1, 42480, Note_on_c, 1, 52, 127
1, 42480, Note_on_c, 1, 40, 127
1, 42500, Note_off_c, 1, 66, 0
1, 42510, Note_on_c, 1, 68, 127
1, 42520, Note_off_c, 1, 61, 0
1, 42520, Note_off_c, 1, 58, 0
1, 42530, Note_off_c, 1, 68, 0
1, 42540, Note_on_c, 1, 70, 127
1, 42560, Note_off_c, 1, 52, 0
1, 42560, Note_off_c, 1, 40, 0
1, 42560, Note_off_c, 1, 70, 0
1, 42570, Note_on_c, 1, 71, 127
1, 42590, Note_off_c, 1, 71, 0
1, 42600, Note_on_c, 1, 73, 127
1, 42600, Note_on_c, 1, 70, 127
1, 42600, Note_on_c, 1, 66, 127
1, 42620, Note_off_c, 1, 73, 0
1, 42630, Note_on_c, 1, 74, 127
1, 42640, Note_off_c, 1, 70, 0
1, 42640, Note_off_c, 1, 66, 0
1, 42650, Note_off_c, 1, 74, 0
1, 42660, Note_on_c, 1, 76, 127
1, 42660, Note_on_c, 1, 73, 127
1, 42660, Note_on_c, 1, 66, 127
1, 42660, Note_on_c, 1, 46, 127
1, 42660, Note_on_c, 1, 34, 127
1, 42690, Note_off_c, 1, 76, 0
1, 42700, Note_off_c, 1, 66, 0
1, 42700, Note_off_c, 1, 46, 0
1, 42700, Note_off_c, 1, 34, 0
1, 42710, Note_off_c, 1, 73, 0
1, 42720, Note_on_c, 1, 74, 127
1, 42720, Note_on_c, 1, 66, 127
1, 42720, Note_on_c, 1, 71, 127
1, 42720, Note_on_c, 1, 47, 127
1, 42720, Note_on_c, 1, 35, 127
1, 42750, Note_off_c, 1, 74, 0
1, 42750, Note_off_c, 1, 66, 0
1, 42750, Note_on_c, 1, 62, 127
1, 42760, Note_off_c, 1, 47, 0
1, 42760, Note_off_c, 1, 35, 0
1, 42770, Note_off_c, 1, 71, 0
1, 42770, Note_off_c, 1, 62, 0
1, 42780, Note_on_c, 1, 73, 127
1, 42780, Note_on_c, 1, 62, 127
1, 42780, Note_on_c, 1, 64, 127
1, 42780, Note_on_c, 1, 43, 127
1, 42780, Note_on_c, 1, 31, 127
1, 42810, Note_off_c, 1, 73, 0
1, 42810, Note_off_c, 1, 62, 0
1, 42810, Note_on_c, 1, 70, 127
1, 42810, Note_on_c, 1, 61, 127
1, 42820, Note_off_c, 1, 64, 0
1, 42820, Note_off_c, 1, 43, 0
1, 42820, Note_off_c, 1, 31, 0
1, 42830, Note_off_c, 1, 70, 0
1, 42830, Note_off_c, 1, 61, 0
1, 42840, Note_on_c, 1, 71, 127
1, 42840, Note_on_c, 1, 62, 127
1, 42840, Note_on_c, 1, 59, 127
1, 42840, Note_on_c, 1, 40, 127
1, 42840, Note_on_c, 1, 28, 127
1, 42870, Note_off_c, 1, 71, 0
1, 42870, Note_off_c, 1, 62, 0
1, 42870, Note_on_c, 1, 67, 127
1, 42870, Note_on_c, 1, 64, 127
1, 42880, Note_off_c, 1, 59, 0
1, 42880, Note_off_c, 1, 40, 0
1, 42880, Note_off_c, 1, 28, 0
1, 42900, Note_off_c, 1, 67, 0
1, 42900, Note_off_c, 1, 64, 0
1, 42900, Note_on_c, 1, 70, 127
1, 42900, Note_on_c, 1, 61, 127
1, 42900, Note_on_c, 1, 54, 127
1, 42900, Note_on_c, 1, 42, 127
1, 42900, Note_on_c, 1, 30, 127
1, 42907, Note_off_c, 1, 70, 0
1, 42940, Note_off_c, 1, 54, 0
1, 42940, Note_off_c, 1, 42, 0
1, 42940, Note_off_c, 1, 30, 0
1, 42990, Note_off_c, 1, 61, 0
1, 43020, Note_on_c, 1, 71, 127
1, 43020, Note_on_c, 1, 62, 127
1, 43020, Note_on_c, 1, 54, 127
1, 43020, Note_on_c, 1, 47, 127
1, 43020, Note_on_c, 1, 35, 127
1, 43040, Note_off_c, 1, 71, 0
1, 43040, Note_off_c, 1, 62, 0
1, 43040, Note_off_c, 1, 54, 0
1, 43050, Note_on_c, 1, 66, 127
1, 43050, Note_on_c, 1, 59, 127
1, 43060, Note_off_c, 1, 47, 0
1, 43060, Note_off_c, 1, 35, 0
1, 43065, Note_off_c, 1, 66, 0
1, 43065, Note_on_c, 1, 67, 127
1, 43070, Note_off_c, 1, 59, 0
1, 43080, Note_off_c, 1, 67, 0
1, 43080, Note_on_c, 1, 50, 127
1, 43080, Note_on_c, 1, 38, 127
1, 43120, Note_off_c, 1, 50, 0
1, 43120, Note_off_c, 1, 38, 0
1, 43125, Note_on_c, 1, 64, 127
1, 43140, Note_off_c, 1, 64, 0
1, 43140, Note_on_c, 1, 42, 127
1, 43180, Note_off_c, 1, 42, 0
1, 43185, Note_on_c, 1, 61, 127
1, 43200, Note_off_c, 1, 61, 0
1, 43230, Note_on_c, 1, 49, 127
1, 43230, Note_on_c, 1, 37, 127
1, 43250, Note_off_c, 1, 49, 0
1, 43250, Note_off_c, 1, 37, 0
1, 43290, Note_on_c, 1, 52, 127
1, 43290, Note_on_c, 1, 40, 127
1, 43310, Note_off_c, 1, 52, 0
1, 43310, Note_off_c, 1, 40, 0
1, 43320, Note_on_c, 1, 69, 127
1, 43350, Note_on_c, 1, 55, 127
1, 43350, Note_on_c, 1, 43, 127
1, 43370, Note_off_c, 1, 55, 0
1, 43370, Note_off_c, 1, 43, 0
1, 43380, Note_off_c, 1, 69, 0
1, 43380, Note_on_c, 1, 72, 127
1, 43380, Note_on_c, 1, 57, 127
1, 43380, Note_on_c, 1, 45, 127
1, 43410, Note_off_c, 1, 57, 0
1, 43410, Note_off_c, 1, 45, 0
1, 43470, Note_off_c, 1, 72, 0
1, 43470, Note_on_c, 1, 74, 127
1, 43485, Note_off_c, 1, 74, 0
1, 43485, Note_on_c, 1, 76, 127
1, 43500, Note_off_c, 1, 76, 0
1, 43560, Note_on_c, 1, 48, 127
1, 43560, Note_on_c, 1, 36, 127
1, 43600, Note_off_c, 1, 48, 0
1, 43600, Note_off_c, 1, 36, 0
1, 43740, Note_on_c, 1, 31, 127
1, 43820, Note_off_c, 1, 31, 0
1, 43860, Note_on_c, 1, 64, 127
1, 43920, Note_off_c, 1, 64, 0
1, 43920, Note_on_c, 1, 69, 127
1, 43950, Note_on_c, 1, 55, 127
1, 43950, Note_on_c, 1, 43, 127
1, 43960, Note_off_c, 1, 55, 0
1, 43960, Note_off_c, 1, 43, 0
1, 43965, Note_on_c, 1, 54, 127
1, 43965, Note_on_c, 1, 42, 127
1, 43975, Note_off_c, 1, 54, 0
1, 43975, Note_off_c, 1, 42, 0
1, 44010, Note_on_c, 1, 52, 127
1, 44010, Note_on_c, 1, 40, 127
1, 44030, Note_off_c, 1, 52, 0
1, 44030, Note_off_c, 1, 40, 0
1, 44040, Note_on_c, 1, 49, 127
1, 44040, Note_on_c, 1, 37, 127
1, 44060, Note_off_c, 1, 49, 0
1, 44060, Note_off_c, 1, 37, 0
1, 44070, Note_on_c, 1, 45, 127
1, 44070, Note_on_c, 1, 33, 127
1, 44090, Note_off_c, 1, 45, 0
1, 44090, Note_off_c, 1, 33, 0
1, 44130, Note_on_c, 1, 66, 127
1, 44145, Note_off_c, 1, 69, 0
1, 44145, Note_on_c, 1, 71, 127
1, 44160, Note_off_c, 1, 66, 0
1, 44160, Note_off_c, 1, 71, 0
1, 44190, Note_on_c, 1, 62, 127
1, 44205, Note_on_c, 1, 67, 127
1, 44220, Note_off_c, 1, 62, 0
1, 44220, Note_off_c, 1, 67, 0
1, 44220, Note_on_c, 1, 61, 127
1, 44250, Note_off_c, 1, 61, 0
1, 44370, Note_on_c, 1, 50, 127
1, 44370, Note_on_c, 1, 38, 127
1, 44390, Note_off_c, 1, 50, 0
1, 44390, Note_off_c, 1, 38, 0
1, 44400, Note_on_c, 1, 47, 127
1, 44400, Note_on_c, 1, 35, 127
1, 44420, Note_off_c, 1, 47, 0
1, 44420, Note_off_c, 1, 35, 0
1, 44430, Note_on_c, 1, 31, 127
1, 44450, Note_off_c, 1, 31, 0
1, 44505, Note_on_c, 1, 72, 127
1, 44520, Note_off_c, 1, 72, 0
1, 44640, Note_on_c, 1, 73, 127
1, 44640, Note_on_c, 1, 57, 127
1, 44670, Note_off_c, 1, 73, 0
1, 44670, Note_on_c, 1, 76, 127
1, 44680, Note_off_c, 1, 57, 0
1, 44700, Note_off_c, 1, 76, 0
1, 44700, Note_on_c, 1, 74, 127
1, 44730, Note_off_c, 1, 74, 0
1, 44820, Note_on_c, 1, 30, 127
1, 44850, Note_off_c, 1, 30, 0
1, 45660, Note_on_c, 1, 47, 127
1, 45660, Note_on_c, 1, 35, 127
1, 45680, Note_off_c, 1, 47, 0
1, 45680, Note_off_c, 1, 35, 0
1, 45690, Note_on_c, 1, 43, 127
1, 45690, Note_on_c, 1, 31, 127
1, 45710, Note_off_c, 1, 43, 0
1, 45710, Note_off_c, 1, 31, 0
1, 45720, Note_on_c, 1, 64, 127
1, 45720, Note_on_c, 1, 59, 127
1, 45720, Note_on_c, 1, 56, 127
1, 45720, Note_on_c, 1, 44, 127
1, 45750, Note_on_c, 1, 66, 127
1, 45760, Note_off_c, 1, 64, 0
1, 45760, Note_off_c, 1, 59, 0
1, 45780, Note_off_c, 1, 66, 0
1, 45780, Note_on_c, 1, 68, 127
1, 45800, Note_off_c, 1, 56, 0
1, 45800, Note_off_c, 1, 44, 0
1, 45810, Note_on_c, 1, 69, 127
1, 45820, Note_off_c, 1, 68, 0
1, 45840, Note_off_c, 1, 69, 0
1, 45840, Note_on_c, 1, 71, 127
1, 45870, Note_on_c, 1, 73, 127
1, 45880, Note_off_c, 1, 71, 0
1, 45900, Note_off_c, 1, 73, 0
1, 45900, Note_on_c, 1, 74, 127
1, 45900, Note_on_c, 1, 52, 127
1, 45930, Note_off_c, 1, 74, 0
1, 45930, Note_on_c, 1, 57, 127
1, 45930, Note_on_c, 1, 45, 127
1, 45940, Note_off_c, 1, 52, 0
1, 45940, Note_off_c, 1, 57, 0
1, 45940, Note_off_c, 1, 45, 0
1, 45990, Note_on_c, 1, 40, 127
1, 46010, Note_off_c, 1, 40, 0
1, 46020, Note_on_c, 1, 49, 127
1, 46020, Note_on_c, 1, 37, 127
1, 46040, Note_off_c, 1, 49, 0
1, 46040, Note_off_c, 1, 37, 0
1, 46050, Note_on_c, 1, 45, 127
1, 46050, Note_on_c, 1, 33, 127
1, 46070, Note_off_c, 1, 45, 0
1, 46070, Note_off_c, 1, 33, 0
1, 46080, Note_on_c, 1, 69, 127
1, 46080, Note_on_c, 1, 49, 127
1, 46080, Note_on_c, 1, 37, 127
1, 46110, Note_on_c, 1, 71, 127
1, 46120, Note_off_c, 1, 69, 0
1, 46140, Note_off_c, 1, 71, 0
1, 46140, Note_on_c, 1, 73, 127
1, 46140, Note_on_c, 1, 64, 127
1, 46160, Note_off_c, 1, 49, 0
1, 46160, Note_off_c, 1, 37, 0
1, 46170, Note_off_c, 1, 73, 0
1, 46170, Note_on_c, 1, 74, 127
1, 46180, Note_off_c, 1, 64, 0
1, 46200, Note_off_c, 1, 74, 0
1, 46200, Note_on_c, 1, 76, 127
1, 46230, Note_off_c, 1, 76, 0
1, 46230, Note_on_c, 1, 78, 127
1, 46260, Note_off_c, 1, 78, 0
1, 46260, Note_on_c, 1, 67, 127
1, 46260, Note_on_c, 1, 45, 127
1, 46260, Note_on_c, 1, 33, 127
1, 46275, Note_off_c, 1, 67, 0
1, 46275, Note_on_c, 1, 66, 127
1, 46290, Note_off_c, 1, 66, 0
1, 46290, Note_on_c, 1, 79, 127
1, 46300, Note_off_c, 1, 45, 0
1, 46300, Note_off_c, 1, 33, 0
1, 46320, Note_off_c, 1, 79, 0
1, 46320, Note_on_c, 1, 81, 127
1, 46320, Note_on_c, 1, 62, 127
1, 46320, Note_on_c, 1, 50, 127
1, 46320, Note_on_c, 1, 38, 127
1, 46360, Note_off_c, 1, 81, 0
1, 46360, Note_off_c, 1, 62, 0
1, 46360, Note_off_c, 1, 50, 0
1, 46360, Note_off_c, 1, 38, 0
1, 46380, Note_on_c, 1, 47, 127
1, 46380, Note_on_c, 1, 35, 127
1, 46420, Note_off_c, 1, 47, 0
1, 46420, Note_off_c, 1, 35, 0
1, 46440, Note_on_c, 1, 43, 127
1, 46440, Note_on_c, 1, 31, 127
1, 46480, Note_off_c, 1, 43, 0
1, 46480, Note_off_c, 1, 31, 0
1, 46560, Note_on_c, 1, 57, 127
1, 46600, Note_off_c, 1, 57, 0
1, 46620, Note_on_c, 1, 59, 127
1, 46660, Note_off_c, 1, 59, 0
1, 46680, Note_on_c, 1, 54, 127
1, 46680, Note_on_c, 1, 42, 127
1, 46720, Note_off_c, 1, 54, 0
1, 46720, Note_off_c, 1, 42, 0
1, 46740, Note_on_c, 1, 55, 127
1, 46780, Note_off_c, 1, 55, 0
1, 46950, Note_on_c, 1, 52, 127
1, 46950, Note_on_c, 1, 40, 127
1, 46980, Note_off_c, 1, 52, 0
1, 46980, Note_off_c, 1, 40, 0
1, 47085, Note_on_c, 1, 74, 127
1, 47092, Note_off_c, 1, 74, 0
1, 47092, Note_on_c, 1, 73, 127
1, 47099, Note_off_c, 1, 73, 0
1, 47100, Note_on_c, 1, 74, 127
1, 47100, Note_on_c, 1, 45, 127
1, 47100, Note_on_c, 1, 33, 127
1, 47107, Note_off_c, 1, 74, 0
1, 47107, Note_on_c, 1, 73, 127
1, 47114, Note_off_c, 1, 73, 0
1, 47140, Note_off_c, 1, 45, 0
1, 47140, Note_off_c, 1, 33, 0
1, 47160, Note_on_c, 1, 62, 127
1, 47160, Note_on_c, 1, 57, 127
1, 47160, Note_on_c, 1, 54, 127
1, 47160, Note_on_c, 1, 50, 127
1, 47160, Note_on_c, 1, 38, 127
1, 47200, Note_off_c, 1, 62, 0
1, 47200, Note_off_c, 1, 57, 0
1, 47200, Note_off_c, 1, 54, 0
1, 47220, Note_on_c, 1, 66, 127
1, 47240, Note_off_c, 1, 50, 0
1, 47240, Note_off_c, 1, 38, 0
1, 47260, Note_off_c, 1, 66, 0
1, 47280, Note_on_c, 1, 69, 127
1, 47320, Note_off_c, 1, 69, 0
1, 47340, Note_on_c, 1, 71, 127
1, 47340, Note_on_c, 1, 67, 127
1, 47340, Note_on_c, 1, 55, 127
1, 47370, Note_off_c, 1, 71, 0
1, 47370, Note_on_c, 1, 64, 127
1, 47370, Note_on_c, 1, 62, 127
1, 47370, Note_on_c, 1, 50, 127
1, 47380, Note_off_c, 1, 55, 0
1, 47380, Note_off_c, 1, 62, 0
1, 47380, Note_off_c, 1, 50, 0
1, 47385, Note_on_c, 1, 61, 127
1, 47385, Note_on_c, 1, 49, 127
1, 47395, Note_off_c, 1, 61, 0
1, 47395, Note_off_c, 1, 49, 0
1, 47400, Note_off_c, 1, 67, 0
1, 47400, Note_off_c, 1, 64, 0
1, 47400, Note_on_c, 1, 69, 127
1, 47400, Note_on_c, 1, 66, 127
1, 47430, Note_on_c, 1, 57, 127
1, 47430, Note_on_c, 1, 45, 127
1, 47450, Note_off_c, 1, 57, 0
1, 47450, Note_off_c, 1, 45, 0
1, 47460, Note_off_c, 1, 69, 0
1, 47460, Note_off_c, 1, 66, 0
1, 47460, Note_on_c, 1, 54, 127
1, 47460, Note_on_c, 1, 42, 127
1, 47480, Note_off_c, 1, 54, 0
1, 47480, Note_off_c, 1, 42, 0
1, 47490, Note_on_c, 1, 50, 127
1, 47490, Note_on_c, 1, 38, 127
1, 47510, Note_off_c, 1, 50, 0
1, 47510, Note_off_c, 1, 38, 0
1, 47520, Note_on_c, 1, 61, 127
1, 47520, Note_on_c, 1, 67, 127
1, 47520, Note_on_c, 1, 52, 127
1, 47520, Note_on_c, 1, 40, 127
1, 47550, Note_on_c, 1, 71, 127
1, 47560, Note_off_c, 1, 61, 0
1, 47560, Note_off_c, 1, 67, 0
1, 47560, Note_off_c, 1, 52, 0
1, 47560, Note_off_c, 1, 40, 0
1, 47580, Note_off_c, 1, 71, 0
1, 47580, Note_on_c, 1, 69, 127
1, 47580, Note_on_c, 1, 66, 127
1, 47580, Note_on_c, 1, 62, 127
1, 47580, Note_on_c, 1, 54, 127
1, 47580, Note_on_c, 1, 42, 127
1, 47610, Note_off_c, 1, 69, 0
1, 47620, Note_off_c, 1, 66, 0
1, 47620, Note_off_c, 1, 62, 0
1, 47620, Note_off_c, 1, 54, 0
1, 47620, Note_off_c, 1, 42, 0
1, 47640, Note_on_c, 1, 55, 127
1, 47640, Note_on_c, 1, 43, 127
1, 47670, Note_on_c, 1, 64, 127
1, 47680, Note_off_c, 1, 55, 0
1, 47680, Note_off_c, 1, 43, 0
1, 47700, Note_on_c, 1, 57, 127
1, 47700, Note_on_c, 1, 45, 127
1, 47740, Note_off_c, 1, 64, 0
1, 47740, Note_off_c, 1, 57, 0
1, 47740, Note_off_c, 1, 45, 0
1, 47760, Note_on_c, 1, 59, 127
1, 47790, Note_off_c, 1, 59, 0
1, 47820, Note_on_c, 1, 59, 127
1, 47840, Note_off_c, 1, 59, 0
1, 47850, Note_on_c, 1, 61, 127
1, 47870, Note_off_c, 1, 61, 0
1, 47880, Note_on_c, 1, 62, 127
1, 47880, Note_on_c, 1, 57, 127
1, 47880, Note_on_c, 1, 54, 127
1, 47880, Note_on_c, 1, 42, 127
1, 47900, Note_off_c, 1, 62, 0
1, 47910, Note_on_c, 1, 64, 127
1, 47920, Note_off_c, 1, 57, 0
1, 47930, Note_off_c, 1, 64, 0
1, 47940, Note_on_c, 1, 66, 127
1, 47960, Note_off_c, 1, 54, 0
1, 47960, Note_off_c, 1, 42, 0
1, 47960, Note_off_c, 1, 66, 0
1, 47970, Note_on_c, 1, 67, 127
1, 47990, Note_off_c, 1, 67, 0
1, 48000, Note_on_c, 1, 69, 127
1, 48000, Note_on_c, 1, 66, 127
1, 48000, Note_on_c, 1, 62, 127
1, 48020, Note_off_c, 1, 69, 0
1, 48020, Note_off_c, 1, 66, 0
1, 48030, Note_on_c, 1, 71, 127
1, 48030, Note_on_c, 1, 67, 127
1, 48040, Note_off_c, 1, 62, 0
1, 48050, Note_off_c, 1, 71, 0
1, 48050, Note_off_c, 1, 67, 0
1, 48060, Note_on_c, 1, 72, 127
1, 48060, Note_on_c, 1, 69, 127
1, 48060, Note_on_c, 1, 50, 127
1, 48090, Note_off_c, 1, 72, 0
1, 48090, Note_on_c, 1, 55, 127
1, 48090, Note_on_c, 1, 43, 127
1, 48100, Note_off_c, 1, 50, 0
1, 48100, Note_off_c, 1, 55, 0
1, 48100, Note_off_c, 1, 43, 0
1, 48105, Note_on_c, 1, 54, 127
1, 48105, Note_on_c, 1, 42, 127
1, 48115, Note_off_c, 1, 54, 0
1, 48115, Note_off_c, 1, 42, 0
1, 48120, Note_off_c, 1, 69, 0
1, 48120, Note_on_c, 1, 71, 127
1, 48120, Note_on_c, 1, 67, 127
1, 48120, Note_on_c, 1, 62, 127
1, 48150, Note_on_c, 1, 38, 127
1, 48160, Note_off_c, 1, 71, 0
1, 48160, Note_off_c, 1, 67, 0
1, 48160, Note_off_c, 1, 62, 0
1, 48170, Note_off_c, 1, 38, 0
1, 48180, Note_on_c, 1, 47, 127
1, 48180, Note_on_c, 1, 35, 127
1, 48200, Note_off_c, 1, 47, 0
1, 48200, Note_off_c, 1, 35, 0
1, 48210, Note_on_c, 1, 43, 127
1, 48210, Note_on_c, 1, 31, 127
1, 48230, Note_off_c, 1, 43, 0
1, 48230, Note_off_c, 1, 31, 0
1, 48240, Note_on_c, 1, 64, 127
1, 48240, Note_on_c, 1, 59, 127
1, 48240, Note_on_c, 1, 56, 127
1, 48240, Note_on_c, 1, 44, 127
1, 48280, Note_off_c, 1, 64, 0
1, 48280, Note_off_c, 1, 59, 0
1, 48300, Note_on_c, 1, 68, 127
1, 48320, Note_off_c, 1, 56, 0
1, 48320, Note_off_c, 1, 44, 0
1, 48340, Note_off_c, 1, 68, 0
1, 48360, Note_on_c, 1, 71, 127
1, 48360, Note_on_c, 1, 68, 127
1, 48360, Note_on_c, 1, 64, 127
1, 48400, Note_off_c, 1, 71, 0
1, 48400, Note_off_c, 1, 68, 0
1, 48400, Note_off_c, 1, 64, 0
1, 48420, Note_on_c, 1, 74, 127
1, 48420, Note_on_c, 1, 71, 127
1, 48420, Note_on_c, 1, 52, 127
1, 48450, Note_off_c, 1, 74, 0
1, 48450, Note_on_c, 1, 57, 127
1, 48450, Note_on_c, 1, 45, 127
1, 48460, Note_off_c, 1, 52, 0
1, 48460, Note_off_c, 1, 57, 0
1, 48460, Note_off_c, 1, 45, 0
1, 48465, Note_on_c, 1, 56, 127
1, 48465, Note_on_c, 1, 44, 127
1, 48475, Note_off_c, 1, 56, 0
1, 48475, Note_off_c, 1, 44, 0
1, 48480, Note_off_c, 1, 71, 0
1, 48480, Note_on_c, 1, 73, 127
1, 48480, Note_on_c, 1, 69, 127
1, 48480, Note_on_c, 1, 64, 127
1, 48510, Note_on_c, 1, 40, 127
1, 48520, Note_off_c, 1, 69, 0
1, 48520, Note_off_c, 1, 64, 0
1, 48530, Note_off_c, 1, 40, 0
1, 48540, Note_off_c, 1, 73, 0
1, 48540, Note_on_c, 1, 49, 127
1, 48540, Note_on_c, 1, 37, 127
1, 48560, Note_off_c, 1, 49, 0
1, 48560, Note_off_c, 1, 37, 0
1, 48570, Note_on_c, 1, 45, 127
1, 48570, Note_on_c, 1, 33, 127
1, 48590, Note_off_c, 1, 45, 0
1, 48590, Note_off_c, 1, 33, 0
1, 48600, Note_on_c, 1, 69, 127
1, 48600, Note_on_c, 1, 64, 127
1, 48600, Note_on_c, 1, 49, 127
1, 48600, Note_on_c, 1, 37, 127
1, 48630, Note_on_c, 1, 71, 127
1, 48640, Note_off_c, 1, 69, 0
1, 48640, Note_off_c, 1, 64, 0
1, 48650, Note_off_c, 1, 71, 0
1, 48660, Note_on_c, 1, 73, 127
1, 48660, Note_on_c, 1, 67, 127
1, 48680, Note_off_c, 1, 49, 0
1, 48680, Note_off_c, 1, 37, 0
1, 48680, Note_off_c, 1, 73, 0
1, 48680, Note_off_c, 1, 67, 0
1, 48690, Note_on_c, 1, 74, 127
1, 48710, Note_off_c, 1, 74, 0
1, 48720, Note_on_c, 1, 76, 127
1, 48720, Note_on_c, 1, 73, 127
1, 48720, Note_on_c, 1, 69, 127
1, 48740, Note_off_c, 1, 76, 0
1, 48740, Note_off_c, 1, 73, 0
1, 48750, Note_on_c, 1, 78, 127
1, 48750, Note_on_c, 1, 74, 127
1, 48760, Note_off_c, 1, 69, 0
1, 48770, Note_off_c, 1, 78, 0
1, 48770, Note_off_c, 1, 74, 0
1, 48780, Note_on_c, 1, 79, 127
1, 48780, Note_on_c, 1, 76, 127
1, 48780, Note_on_c, 1, 61, 127
1, 48780, Note_on_c, 1, 45, 127
1, 48780, Note_on_c, 1, 33, 127
1, 48810, Note_off_c, 1, 79, 0
1, 48810, Note_on_c, 1, 73, 127
1, 48820, Note_off_c, 1, 61, 0
1, 48820, Note_off_c, 1, 45, 0
1, 48820, Note_off_c, 1, 33, 0
1, 48830, Note_off_c, 1, 76, 0
1, 48830, Note_off_c, 1, 73, 0
1, 48840, Note_on_c, 1, 78, 127
1, 48840, Note_on_c, 1, 69, 127
1, 48840, Note_on_c, 1, 62, 127
1, 48840, Note_on_c, 1, 50, 127
1, 48840, Note_on_c, 1, 38, 127
1, 48870, Note_off_c, 1, 78, 0
1, 48870, Note_off_c, 1, 69, 0
1, 48870, Note_on_c, 1, 74, 127
1, 48870, Note_on_c, 1, 66, 127
1, 48880, Note_off_c, 1, 62, 0
1, 48880, Note_off_c, 1, 50, 0
1, 48880, Note_off_c, 1, 38, 0
1, 48890, Note_off_c, 1, 74, 0
1, 48890, Note_off_c, 1, 66, 0
1, 48900, Note_on_c, 1, 76, 127
1, 48900, Note_on_c, 1, 67, 127
1, 48900, Note_on_c, 1, 47, 127
1, 48900, Note_on_c, 1, 35, 127
1, 48930, Note_off_c, 1, 76, 0
1, 48930, Note_on_c, 1, 73, 127
1, 48930, Note_on_c, 1, 64, 127
1, 48940, Note_off_c, 1, 67, 0
1, 48940, Note_off_c, 1, 47, 0
1, 48940, Note_off_c, 1, 35, 0
1, 48950, Note_off_c, 1, 73, 0
1, 48950, Note_off_c, 1, 64, 0
1, 48960, Note_on_c, 1, 74, 127
1, 48960, Note_on_c, 1, 66, 127
1, 48960, Note_on_c, 1, 71, 127
1, 48960, Note_on_c, 1, 43, 127
1, 48960, Note_on_c, 1, 31, 127
1, 48990, Note_off_c, 1, 74, 0
1, 48990, Note_off_c, 1, 66, 0
1, 48990, Note_on_c, 1, 67, 127
1, 49000, Note_off_c, 1, 43, 0
1, 49000, Note_off_c, 1, 31, 0
1, 49010, Note_off_c, 1, 71, 0
1, 49020, Note_off_c, 1, 67, 0
1, 49020, Note_on_c, 1, 73, 127
1, 49020, Note_on_c, 1, 64, 127
1, 49020, Note_on_c, 1, 69, 127
1, 49020, Note_on_c, 1, 45, 127
1, 49020, Note_on_c, 1, 33, 127
1, 49060, Note_off_c, 1, 69, 0
1, 49060, Note_off_c, 1, 45, 0
1, 49060, Note_off_c, 1, 33, 0
1, 49080, Note_on_c, 1, 57, 127
1, 49110, Note_off_c, 1, 73, 0
1, 49110, Note_off_c, 1, 64, 0
1, 49120, Note_off_c, 1, 57, 0
1, 49140, Note_on_c, 1, 74, 127
1, 49140, Note_on_c, 1, 66, 127
1, 49140, Note_on_c, 1, 57, 127
1, 49140, Note_on_c, 1, 38, 127
1, 49140, Note_on_c, 1, 26, 127
1, 49260, Note_off_c, 1, 74, 0
1, 49260, Note_off_c, 1, 66, 0
1, 49260, Note_off_c, 1, 57, 0
1, 49260, Note_off_c, 1, 38, 0
1, 49260, Note_off_c, 1, 26, 0
1, 49500, Note_on_c, 1, 47, 127
1, 49500, Note_on_c, 1, 35, 127
1, 49500, Note_on_c, 1, 62, 127
1, 49500, Note_on_c, 1, 66, 127
1, 49560, Note_on_c, 1, 74, 127
1, 49588, Note_off_c, 1, 74, 0
1, 49590, Note_on_c, 1, 73, 127
1, 49618, Note_off_c, 1, 47, 0
1, 49618, Note_off_c, 1, 35, 0
1, 49618, Note_off_c, 1, 62, 0
1, 49618, Note_off_c, 1, 66, 0
1, 49618, Note_off_c, 1, 73, 0
1, 49620, Note_on_c, 1, 76, 127
1, 49648, Note_off_c, 1, 76, 0
1, 49650, Note_on_c, 1, 74, 127
1, 49678, Note_off_c, 1, 74, 0
1, 49680, Note_on_c, 1, 73, 127
1, 49680, Note_on_c, 1, 47, 127
1, 49680, Note_on_c, 1, 35, 127
1, 49680, Note_on_c, 1, 62, 127
1, 49680, Note_on_c, 1, 66, 127
1, 49708, Note_off_c, 1, 73, 0
1, 49710, Note_on_c, 1, 71, 127
1, 49738, Note_off_c, 1, 47, 0
1, 49738, Note_off_c, 1, 35, 0
1, 49738, Note_off_c, 1, 62, 0
1, 49738, Note_off_c, 1, 66, 0
1, 49738, Note_off_c, 1, 71, 0
1, 49740, Note_on_c, 1, 70, 127
1, 49740, Note_on_c, 1, 49, 127
1, 49740, Note_on_c, 1, 37, 127
1, 49740, Note_on_c, 1, 64, 127
1, 49828, Note_off_c, 1, 70, 0
1, 49830, Note_on_c, 1, 71, 127
1, 49843, Note_off_c, 1, 71, 0
1, 49845, Note_on_c, 1, 73, 127
1, 49858, Note_off_c, 1, 49, 0
1, 49858, Note_off_c, 1, 37, 0
1, 49858, Note_off_c, 1, 64, 0
1, 49858, Note_off_c, 1, 73, 0
1, 49860, Note_on_c, 1, 64, 127
1, 49890, Note_on_c, 1, 49, 127
1, 49890, Note_on_c, 1, 37, 127
1, 49918, Note_off_c, 1, 49, 0
1, 49918, Note_off_c, 1, 37, 0
1, 49920, Note_on_c, 1, 50, 127
1, 49920, Note_on_c, 1, 38, 127
1, 49920, Note_on_c, 1, 59, 127
1, 49920, Note_on_c, 1, 61, 127
1, 49948, Note_off_c, 1, 50, 0
1, 49948, Note_off_c, 1, 38, 0
1, 49950, Note_on_c, 1, 52, 127
1, 49950, Note_on_c, 1, 40, 127
1, 49978, Note_off_c, 1, 59, 0
1, 49978, Note_off_c, 1, 52, 0
1, 49978, Note_off_c, 1, 40, 0
1, 49980, Note_on_c, 1, 42, 127
1, 49980, Note_on_c, 1, 30, 127
1, 49980, Note_on_c, 1, 58, 127
1, 50008, Note_off_c, 1, 64, 0
1, 50010, Note_on_c, 1, 74, 127
1, 50038, Note_off_c, 1, 74, 0
1, 50040, Note_on_c, 1, 73, 127
1, 50068, Note_off_c, 1, 73, 0
1, 50070, Note_on_c, 1, 71, 127
1, 50098, Note_off_c, 1, 61, 0
1, 50098, Note_off_c, 1, 42, 0
1, 50098, Note_off_c, 1, 30, 0
1, 50098, Note_off_c, 1, 58, 0
1, 50098, Note_off_c, 1, 71, 0
1, 50100, Note_on_c, 1, 70, 127
1, 50128, Note_off_c, 1, 70, 0
1, 50130, Note_on_c, 1, 67, 127
1, 50158, Note_off_c, 1, 67, 0
1, 50160, Note_on_c, 1, 66, 127
1, 50160, Note_on_c, 1, 42, 127
1, 50160, Note_on_c, 1, 30, 127
1, 50160, Note_on_c, 1, 58, 127
1, 50160, Note_on_c, 1, 61, 127
1, 50188, Note_off_c, 1, 66, 0
1, 50190, Note_on_c, 1, 64, 127
1, 50218, Note_off_c, 1, 42, 0
1, 50218, Note_off_c, 1, 30, 0
1, 50218, Note_off_c, 1, 58, 0
1, 50218, Note_off_c, 1, 61, 0
1, 50218, Note_off_c, 1, 64, 0
1, 50220, Note_on_c, 1, 63, 127
1, 50220, Note_on_c, 1, 47, 127
1, 50220, Note_on_c, 1, 35, 127
1, 50220, Note_on_c, 1, 54, 127
1, 50220, Note_on_c, 1, 57, 127
1, 50248, Note_off_c, 1, 63, 0
1, 50250, Note_on_c, 1, 64, 127
1, 50278, Note_off_c, 1, 64, 0
1, 50280, Note_on_c, 1, 66, 127
1, 50308, Note_off_c, 1, 66, 0
1, 50310, Note_on_c, 1, 67, 127
1, 50338, Note_off_c, 1, 47, 0
1, 50338, Note_off_c, 1, 35, 0
1, 50338, Note_off_c, 1, 54, 0
1, 50338, Note_off_c, 1, 57, 0
1, 50338, Note_off_c, 1, 67, 0
1, 50340, Note_on_c, 1, 69, 127
1, 50370, Note_on_c, 1, 51, 127
1, 50370, Note_on_c, 1, 39, 127
1, 50398, Note_off_c, 1, 51, 0
1, 50398, Note_off_c, 1, 39, 0
1, 50400, Note_on_c, 1, 52, 127
1, 50400, Note_on_c, 1, 40, 127
1, 50400, Note_on_c, 1, 61, 127
1, 50400, Note_on_c, 1, 64, 127
1, 50400, Note_on_c, 1, 66, 127
1, 50428, Note_off_c, 1, 52, 0
1, 50428, Note_off_c, 1, 40, 0
1, 50430, Note_on_c, 1, 54, 127
1, 50430, Note_on_c, 1, 42, 127
1, 50458, Note_off_c, 1, 69, 0
1, 50458, Note_off_c, 1, 61, 0
1, 50458, Note_off_c, 1, 64, 0
1, 50458, Note_off_c, 1, 66, 0
1, 50458, Note_off_c, 1, 54, 0
1, 50458, Note_off_c, 1, 42, 0
1, 50460, Note_on_c, 1, 47, 127
1, 50460, Note_on_c, 1, 35, 127
1, 50460, Note_on_c, 1, 59, 127
1, 50460, Note_on_c, 1, 63, 127
1, 50460, Note_on_c, 1, 66, 127
1, 50490, Note_on_c, 1, 79, 127
1, 50518, Note_off_c, 1, 79, 0
1, 50520, Note_on_c, 1, 78, 127
1, 50548, Note_off_c, 1, 78, 0
1, 50550, Note_on_c, 1, 76, 127
1, 50578, Note_off_c, 1, 47, 0
1, 50578, Note_off_c, 1, 35, 0
1, 50578, Note_off_c, 1, 59, 0
1, 50578, Note_off_c, 1, 63, 0
1, 50578, Note_off_c, 1, 66, 0
1, 50578, Note_off_c, 1, 76, 0
1, 50580, Note_on_c, 1, 75, 127
1, 50608, Note_off_c, 1, 75, 0
1, 50610, Note_on_c, 1, 72, 127
1, 50638, Note_off_c, 1, 72, 0
1, 50640, Note_on_c, 1, 71, 127
1, 50640, Note_on_c, 1, 47, 127
1, 50640, Note_on_c, 1, 35, 127
1, 50640, Note_on_c, 1, 63, 127
1, 50640, Note_on_c, 1, 66, 127
1, 50668, Note_off_c, 1, 71, 0
1, 50670, Note_on_c, 1, 69, 127
1, 50698, Note_off_c, 1, 47, 0
1, 50698, Note_off_c, 1, 35, 0
1, 50698, Note_off_c, 1, 63, 0
1, 50698, Note_off_c, 1, 66, 0
1, 50698, Note_off_c, 1, 69, 0
1, 50700, Note_on_c, 1, 67, 127
1, 50700, Note_on_c, 1, 52, 127
1, 50700, Note_on_c, 1, 40, 127
1, 50700, Note_on_c, 1, 61, 127
1, 50700, Note_on_c, 1, 64, 127
1, 50728, Note_off_c, 1, 67, 0
1, 50730, Note_on_c, 1, 69, 127
1, 50758, Note_off_c, 1, 69, 0
1, 50760, Note_on_c, 1, 71, 127
1, 50788, Note_off_c, 1, 71, 0
1, 50790, Note_on_c, 1, 73, 127
1, 50818, Note_off_c, 1, 52, 0
1, 50818, Note_off_c, 1, 40, 0
1, 50818, Note_off_c, 1, 61, 0
1, 50818, Note_off_c, 1, 64, 0
1, 50818, Note_off_c, 1, 73, 0
1, 50820, Note_on_c, 1, 74, 127
1, 50850, Note_on_c, 1, 53, 127
1, 50850, Note_on_c, 1, 41, 127
1, 50878, Note_off_c, 1, 53, 0
1, 50878, Note_off_c, 1, 41, 0
1, 50880, Note_on_c, 1, 54, 127
1, 50880, Note_on_c, 1, 42, 127
1, 50880, Note_on_c, 1, 66, 127
1, 50880, Note_on_c, 1, 68, 127
1, 50880, Note_on_c, 1, 71, 127
1, 50908, Note_off_c, 1, 54, 0
1, 50908, Note_off_c, 1, 42, 0
1, 50910, Note_on_c, 1, 56, 127
1, 50910, Note_on_c, 1, 44, 127
1, 50938, Note_off_c, 1, 74, 0
1, 50938, Note_off_c, 1, 66, 0
1, 50938, Note_off_c, 1, 68, 0
1, 50938, Note_off_c, 1, 71, 0
1, 50938, Note_off_c, 1, 56, 0
1, 50938, Note_off_c, 1, 44, 0
1, 50940, Note_on_c, 1, 49, 127
1, 50940, Note_on_c, 1, 37, 127
1, 50940, Note_on_c, 1, 65, 127
1, 50940, Note_on_c, 1, 68, 127
1, 50940, Note_on_c, 1, 71, 127
1, 50970, Note_on_c, 1, 81, 127
1, 50998, Note_off_c, 1, 81, 0
1, 51000, Note_on_c, 1, 80, 127
1, 51028, Note_off_c, 1, 80, 0
1, 51030, Note_on_c, 1, 78, 127
1, 51058, Note_off_c, 1, 49, 0
1, 51058, Note_off_c, 1, 37, 0
1, 51058, Note_off_c, 1, 65, 0
1, 51058, Note_off_c, 1, 68, 0
1, 51058, Note_off_c, 1, 71, 0
1, 51058, Note_off_c, 1, 78, 0
1, 51060, Note_on_c, 1, 77, 127
1, 51088, Note_off_c, 1, 77, 0
1, 51090, Note_on_c, 1, 74, 127
1, 51118, Note_off_c, 1, 74, 0
1, 51120, Note_on_c, 1, 73, 127
1, 51120, Note_on_c, 1, 49, 127
1, 51120, Note_on_c, 1, 37, 127
1, 51120, Note_on_c, 1, 68, 127
1, 51120, Note_on_c, 1, 65, 127
1, 51148, Note_off_c, 1, 73, 0
1, 51150, Note_on_c, 1, 71, 127
1, 51178, Note_off_c, 1, 49, 0
1, 51178, Note_off_c, 1, 37, 0
1, 51178, Note_off_c, 1, 68, 0
1, 51178, Note_off_c, 1, 65, 0
1, 51178, Note_off_c, 1, 71, 0
1, 51180, Note_on_c, 1, 70, 127
1, 51180, Note_on_c, 1, 54, 127
1, 51180, Note_on_c, 1, 42, 127
1, 51180, Note_on_c, 1, 61, 127
1, 51180, Note_on_c, 1, 66, 127
1, 51208, Note_off_c, 1, 70, 0
1, 51210, Note_on_c, 1, 67, 127
1, 51238, Note_off_c, 1, 61, 0
1, 51238, Note_off_c, 1, 66, 0
1, 51238, Note_off_c, 1, 67, 0
1, 51270, Note_on_c, 1, 64, 127
1, 51298, Note_off_c, 1, 54, 0
1, 51298, Note_off_c, 1, 42, 0
1, 51298, Note_off_c, 1, 64, 0
1, 51300, Note_on_c, 1, 62, 127
1, 51330, Note_on_c, 1, 72, 127
1, 51358, Note_off_c, 1, 72, 0
1, 51360, Note_on_c, 1, 71, 127
1, 51360, Note_on_c, 1, 54, 127
1, 51360, Note_on_c, 1, 42, 127
1, 51388, Note_off_c, 1, 71, 0
1, 51390, Note_on_c, 1, 70, 127
1, 51418, Note_off_c, 1, 54, 0
1, 51418, Note_off_c, 1, 42, 0
1, 51418, Note_off_c, 1, 70, 0
1, 51420, Note_on_c, 1, 50, 127
1, 51420, Note_on_c, 1, 38, 127
1, 51448, Note_off_c, 1, 62, 0
1, 51450, Note_on_c, 1, 67, 127
1, 51450, Note_on_c, 1, 64, 127
1, 51478, Note_off_c, 1, 50, 0
1, 51478, Note_off_c, 1, 38, 0
1, 51478, Note_off_c, 1, 67, 0
1, 51478, Note_off_c, 1, 64, 0
1, 51480, Note_on_c, 1, 66, 127
1, 51480, Note_on_c, 1, 47, 127
1, 51480, Note_on_c, 1, 35, 127
1, 51480, Note_on_c, 1, 62, 127
1, 51508, Note_off_c, 1, 66, 0
1, 51508, Note_off_c, 1, 62, 0
1, 51510, Note_on_c, 1, 65, 127
1, 51510, Note_on_c, 1, 61, 127
1, 51538, Note_off_c, 1, 47, 0
1, 51538, Note_off_c, 1, 35, 0
1, 51538, Note_off_c, 1, 65, 0
1, 51538, Note_off_c, 1, 61, 0
1, 51540, Note_on_c, 1, 65, 127
1, 51540, Note_on_c, 1, 54, 127
1, 51540, Note_on_c, 1, 42, 127
1, 51540, Note_on_c, 1, 61, 127
1, 51568, Note_off_c, 1, 65, 0
1, 51568, Note_off_c, 1, 61, 0
1, 51570, Note_on_c, 1, 66, 127
1, 51570, Note_on_c, 1, 62, 127
1, 51598, Note_off_c, 1, 54, 0
1, 51598, Note_off_c, 1, 42, 0
1, 51598, Note_off_c, 1, 66, 0
1, 51598, Note_off_c, 1, 62, 0
1, 51600, Note_on_c, 1, 64, 127
1, 51600, Note_on_c, 1, 42, 127
1, 51600, Note_on_c, 1, 30, 127
1, 51600, Note_on_c, 1, 59, 127
1, 51628, Note_off_c, 1, 64, 0
1, 51630, Note_on_c, 1, 62, 127
1, 51658, Note_off_c, 1, 42, 0
1, 51658, Note_off_c, 1, 30, 0
1, 51658, Note_off_c, 1, 59, 0
1, 51658, Note_off_c, 1, 62, 0
1, 51660, Note_on_c, 1, 59, 127
1, 51660, Note_on_c, 1, 47, 127
1, 51660, Note_on_c, 1, 35, 127
1, 51690, Note_on_c, 1, 66, 127
1, 51718, Note_off_c, 1, 66, 0
1, 51720, Note_on_c, 1, 68, 127
1, 51748, Note_off_c, 1, 68, 0
1, 51750, Note_on_c, 1, 70, 127
1, 51778, Note_off_c, 1, 59, 0
1, 51778, Note_off_c, 1, 47, 0
1, 51778, Note_off_c, 1, 35, 0
1, 51778, Note_off_c, 1, 70, 0
1, 51780, Note_on_c, 1, 71, 127
1, 51810, Note_on_c, 1, 50, 127
1, 51810, Note_on_c, 1, 38, 127
1, 51838, Note_off_c, 1, 50, 0
1, 51838, Note_off_c, 1, 38, 0
1, 51840, Note_on_c, 1, 52, 127
1, 51840, Note_on_c, 1, 40, 127
1, 51868, Note_off_c, 1, 52, 0
1, 51868, Note_off_c, 1, 40, 0
1, 51870, Note_on_c, 1, 54, 127
1, 51870, Note_on_c, 1, 42, 127
1, 51898, Note_off_c, 1, 71, 0
1, 51898, Note_off_c, 1, 54, 0
1, 51898, Note_off_c, 1, 42, 0
1, 51900, Note_on_c, 1, 74, 127
1, 51900, Note_on_c, 1, 47, 127
1, 51900, Note_on_c, 1, 35, 127
1, 51900, Note_on_c, 1, 66, 127
1, 51900, Note_on_c, 1, 62, 127
1, 51990, Note_off_c, 1, 74, 0
1, 51990, Note_on_c, 1, 76, 127
1, 52005, Note_off_c, 1, 76, 0
1, 52005, Note_on_c, 1, 78, 127
1, 52018, Note_off_c, 1, 47, 0
1, 52018, Note_off_c, 1, 35, 0
1, 52020, Note_off_c, 1, 66, 0
1, 52020, Note_off_c, 1, 62, 0
1, 52020, Note_off_c, 1, 78, 0
1, 52080, Note_on_c, 1, 73, 127
1, 52110, Note_off_c, 1, 73, 0
1, 52110, Note_on_c, 1, 71, 127
1, 52140, Note_off_c, 1, 71, 0
1, 52140, Note_on_c, 1, 70, 127
1, 52140, Note_on_c, 1, 49, 127
1, 52140, Note_on_c, 1, 37, 127
1, 52140, Note_on_c, 1, 64, 127
1, 52230, Note_off_c, 1, 70, 0
1, 52260, Note_off_c, 1, 49, 0
1, 52260, Note_off_c, 1, 37, 0
1, 52320, Note_on_c, 1, 50, 127
1, 52320, Note_on_c, 1, 38, 127
1, 52320, Note_on_c, 1, 61, 127
1, 52350, Note_off_c, 1, 50, 0
1, 52350, Note_off_c, 1, 38, 0
1, 52350, Note_on_c, 1, 68, 127
1, 52350, Note_on_c, 1, 52, 127
1, 52350, Note_on_c, 1, 40, 127
1, 52380, Note_off_c, 1, 68, 0
1, 52380, Note_off_c, 1, 52, 0
1, 52380, Note_off_c, 1, 40, 0
1, 52380, Note_on_c, 1, 42, 127
1, 52380, Note_on_c, 1, 30, 127
1, 52500, Note_off_c, 1, 64, 0
1, 52500, Note_off_c, 1, 61, 0
1, 52500, Note_off_c, 1, 42, 0
1, 52500, Note_off_c, 1, 30, 0
1, 52560, Note_on_c, 1, 67, 127
1, 52560, Note_on_c, 1, 58, 127
1, 52590, Note_off_c, 1, 67, 0
1, 52620, Note_off_c, 1, 58, 0
1, 52620, Note_on_c, 1, 59, 127
1, 52680, Note_on_c, 1, 79, 127
1, 52710, Note_off_c, 1, 79, 0
1, 52740, Note_off_c, 1, 59, 0
1, 52740, Note_on_c, 1, 81, 127
1, 52770, Note_off_c, 1, 81, 0
1, 52830, Note_on_c, 1, 54, 127
1, 52860, Note_off_c, 1, 54, 0
1, 52860, Note_on_c, 1, 75, 127
1, 52860, Note_on_c, 1, 69, 127
1, 52950, Note_off_c, 1, 75, 0
1, 53040, Note_on_c, 1, 72, 127
1, 53040, Note_on_c, 1, 63, 127
1, 53070, Note_off_c, 1, 72, 0
1, 53100, Note_off_c, 1, 63, 0
1, 53160, Note_off_c, 1, 69, 0
1, 53340, Note_on_c, 1, 55, 127
1, 53340, Note_on_c, 1, 43, 127
1, 53460, Note_off_c, 1, 55, 0
1, 53460, Note_off_c, 1, 43, 0
1, 53520, Note_on_c, 1, 31, 127
1, 53580, Note_off_c, 1, 31, 0
1, 53820, Note_on_c, 1, 46, 127
1, 53820, Note_on_c, 1, 34, 127
1, 53940, Note_off_c, 1, 46, 0
1, 53940, Note_off_c, 1, 34, 0
1, 54720, Note_on_c, 1, 56, 127
1, 54720, Note_on_c, 1, 44, 127
1, 54750, Note_off_c, 1, 56, 0
1, 54750, Note_off_c, 1, 44, 0
1, 54780, Note_on_c, 1, 48, 127
1, 54780, Note_on_c, 1, 36, 127
1, 54780, Note_on_c, 1, 57, 127
1, 54900, Note_off_c, 1, 48, 0
1, 54900, Note_off_c, 1, 36, 0
1, 54900, Note_off_c, 1, 57, 0
1, 54960, Note_on_c, 1, 39, 127
1, 54960, Note_on_c, 1, 27, 127
1, 55020, Note_off_c, 1, 39, 0
1, 55020, Note_off_c, 1, 27, 0
1, 55020, Note_on_c, 1, 28, 127
1, 55140, Note_off_c, 1, 28, 0
1, 55260, Note_on_c, 1, 45, 127
1, 55260, Note_on_c, 1, 33, 127
1, 55380, Note_off_c, 1, 45, 0
1, 55380, Note_off_c, 1, 33, 0
1, 59340, Note_on_c, 1, 32, 127
1, 59460, Note_off_c, 1, 32, 0
1, 59460, Note_on_c, 1, 65, 127
1, 59490, Note_off_c, 1, 65, 0
1, 59520, Note_on_c, 1, 51, 127
1, 59550, Note_off_c, 1, 51, 0
1, 59550, Note_on_c, 1, 53, 127
1, 59550, Note_on_c, 1, 41, 127
1, 59580, Note_off_c, 1, 53, 0
1, 59580, Note_off_c, 1, 41, 0
1, 60300, Note_on_c, 1, 60, 127
1, 60420, Note_off_c, 1, 60, 0
1, 60600, Note_on_c, 1, 77, 127
1, 60630, Note_off_c, 1, 77, 0
1, 60960, Note_on_c, 1, 25, 127
1, 61020, Note_off_c, 1, 25, 0
1, 61260, Note_on_c, 1, 80, 127
1, 61400, Note_off_c, 1, 80, 0
1, 61980, Note_on_c, 1, 85, 127
1, 62020, Note_off_c, 1, 85, 0
1, 62280, Note_on_c, 1, 83, 127
1, 62300, Note_off_c, 1, 83, 0
1, 63300, Note_on_c, 1, 29, 127
1, 63330, Note_off_c, 1, 29, 0
1, 63480, Note_on_c, 1, 26, 127
1, 63510, Note_off_c, 1, 26, 0
1, 70800, Note_on_c, 1, 61, 127
1, 70859, Note_off_c, 1, 61, 0
1, 70860, Note_on_c, 1, 77, 127
1, 70860, Note_on_c, 1, 73, 127
1, 70860, Note_on_c, 1, 80, 127
1, 70860, Note_on_c, 1, 68, 127
1, 70860, Note_on_c, 1, 61, 127
1, 70860, Note_on_c, 1, 37, 127
1, 70860, Note_on_c, 1, 25, 127
1, 70920, Note_on_c, 1, 59, 127
1, 70940, Note_off_c, 1, 80, 0
1, 70940, Note_off_c, 1, 68, 0
1, 70949, Note_off_c, 1, 59, 0
1, 70950, Note_on_c, 1, 57, 127
1, 70979, Note_off_c, 1, 61, 0
1, 70979, Note_off_c, 1, 57, 0
1, 70980, Note_off_c, 1, 77, 0
1, 70980, Note_off_c, 1, 37, 0
1, 70980, Note_off_c, 1, 25, 0
1, 70980, Note_on_c, 1, 56, 127
1, 71039, Note_off_c, 1, 73, 0
1, 71039, Note_off_c, 1, 56, 0
1, 71040, Note_on_c, 1, 73, 127
1, 71040, Note_on_c, 1, 59, 127
1, 71040, Note_on_c, 1, 54, 127
1, 71069, Note_off_c, 1, 59, 0
1, 71070, Note_on_c, 1, 57, 127
1, 71099, Note_off_c, 1, 73, 0
1, 71099, Note_off_c, 1, 54, 0
1, 71099, Note_off_c, 1, 57, 0
1, 71100, Note_on_c, 1, 80, 127
1, 71100, Note_on_c, 1, 77, 127
1, 71100, Note_on_c, 1, 85, 127
1, 71100, Note_on_c, 1, 65, 127
1, 71100, Note_on_c, 1, 61, 127
1, 71100, Note_on_c, 1, 73, 127
1, 71100, Note_on_c, 1, 56, 127
1, 71100, Note_on_c, 1, 53, 127
1, 71100, Note_on_c, 1, 37, 127
1, 71100, Note_on_c, 1, 25, 127
1, 71129, Note_off_c, 1, 53, 0
1, 71130, Note_on_c, 1, 51, 127
1, 71159, Note_off_c, 1, 73, 0
1, 71159, Note_off_c, 1, 56, 0
1, 71159, Note_off_c, 1, 51, 0
1, 71160, Note_on_c, 1, 71, 127
1, 71160, Note_on_c, 1, 54, 127
1, 71160, Note_on_c, 1, 49, 127
1, 71180, Note_off_c, 1, 85, 0
1, 71180, Note_off_c, 1, 65, 0
1, 71189, Note_off_c, 1, 71, 0
1, 71189, Note_off_c, 1, 49, 0
1, 71190, Note_on_c, 1, 69, 127
1, 71219, Note_off_c, 1, 61, 0
1, 71219, Note_off_c, 1, 54, 0
1, 71219, Note_off_c, 1, 69, 0
1, 71220, Note_off_c, 1, 80, 0
1, 71220, Note_off_c, 1, 77, 0
1, 71220, Note_off_c, 1, 37, 0
1, 71220, Note_off_c, 1, 25, 0
1, 71220, Note_on_c, 1, 68, 127
1, 71279, Note_off_c, 1, 68, 0
1, 71280, Note_on_c, 1, 73, 127
1, 71280, Note_on_c, 1, 71, 127
1, 71280, Note_on_c, 1, 66, 127
1, 71280, Note_on_c, 1, 49, 127
1, 71280, Note_on_c, 1, 53, 127
1, 71309, Note_off_c, 1, 71, 0
1, 71309, Note_off_c, 1, 49, 0
1, 71309, Note_off_c, 1, 53, 0
1, 71310, Note_on_c, 1, 69, 127
1, 71310, Note_on_c, 1, 51, 127
1, 71310, Note_on_c, 1, 54, 127
1, 71339, Note_off_c, 1, 73, 0
1, 71339, Note_off_c, 1, 66, 0
1, 71339, Note_off_c, 1, 69, 0
1, 71339, Note_off_c, 1, 51, 0
1, 71339, Note_off_c, 1, 54, 0
1, 71340, Note_on_c, 1, 85, 127
1, 71340, Note_on_c, 1, 80, 127
1, 71340, Note_on_c, 1, 77, 127
1, 71340, Note_on_c, 1, 68, 127
1, 71340, Note_on_c, 1, 65, 127
1, 71340, Note_on_c, 1, 61, 127
1, 71340, Note_on_c, 1, 73, 127
1, 71340, Note_on_c, 1, 53, 127
1, 71340, Note_on_c, 1, 56, 127
1, 71340, Note_on_c, 1, 37, 127
1, 71340, Note_on_c, 1, 25, 127
1, 71369, Note_off_c, 1, 53, 0
1, 71369, Note_off_c, 1, 56, 0
1, 71370, Note_on_c, 1, 63, 127
1, 71370, Note_on_c, 1, 54, 127
1, 71370, Note_on_c, 1, 57, 127
1, 71399, Note_off_c, 1, 73, 0
1, 71399, Note_off_c, 1, 63, 0
1, 71399, Note_off_c, 1, 54, 0
1, 71399, Note_off_c, 1, 57, 0
1, 71400, Note_on_c, 1, 71, 127
1, 71400, Note_on_c, 1, 66, 127
1, 71420, Note_off_c, 1, 68, 0
1, 71420, Note_off_c, 1, 65, 0
1, 71429, Note_off_c, 1, 71, 0
1, 71430, Note_on_c, 1, 69, 127
1, 71458, Note_off_c, 1, 77, 0
1, 71459, Note_off_c, 1, 61, 0
1, 71459, Note_off_c, 1, 66, 0
1, 71459, Note_off_c, 1, 69, 0
1, 71460, Note_off_c, 1, 85, 0
1, 71460, Note_off_c, 1, 80, 0
1, 71460, Note_off_c, 1, 37, 0
1, 71460, Note_off_c, 1, 25, 0
1, 71460, Note_on_c, 1, 59, 127
1, 71519, Note_off_c, 1, 59, 0
1, 71520, Note_on_c, 1, 66, 127
1, 71520, Note_on_c, 1, 61, 127
1, 71520, Note_on_c, 1, 65, 127
1, 71520, Note_on_c, 1, 56, 127
1, 71520, Note_on_c, 1, 57, 127
1, 71549, Note_off_c, 1, 61, 0
1, 71549, Note_off_c, 1, 65, 0
1, 71549, Note_off_c, 1, 56, 0
1, 71550, Note_on_c, 1, 63, 127
1, 71579, Note_off_c, 1, 66, 0
1, 71579, Note_off_c, 1, 57, 0
1, 71579, Note_off_c, 1, 63, 0
1, 71580, Note_on_c, 1, 80, 127
1, 71580, Note_on_c, 1, 77, 127
1, 71580, Note_on_c, 1, 73, 127
1, 71580, Note_on_c, 1, 71, 127
1, 71580, Note_on_c, 1, 68, 127
1, 71580, Note_on_c, 1, 65, 127
1, 71580, Note_on_c, 1, 59, 127
1, 71580, Note_on_c, 1, 56, 127
1, 71580, Note_on_c, 1, 37, 127
1, 71580, Note_on_c, 1, 25, 127
1, 71610, Note_on_c, 1, 63, 127
1, 71610, Note_on_c, 1, 66, 127
1, 71610, Note_on_c, 1, 69, 127
1, 71639, Note_off_c, 1, 56, 0
1, 71639, Note_off_c, 1, 63, 0
1, 71639, Note_off_c, 1, 66, 0
1, 71639, Note_off_c, 1, 69, 0
1, 71640, Note_on_c, 1, 61, 127
1, 71660, Note_off_c, 1, 71, 0
1, 71669, Note_off_c, 1, 68, 0
1, 71698, Note_off_c, 1, 73, 0
1, 71699, Note_off_c, 1, 65, 0
1, 71699, Note_off_c, 1, 61, 0
1, 71700, Note_off_c, 1, 80, 0
1, 71700, Note_off_c, 1, 77, 0
1, 71700, Note_off_c, 1, 37, 0
1, 71700, Note_off_c, 1, 25, 0
1, 71759, Note_off_c, 1, 59, 0
1, 71760, Note_on_c, 1, 62, 127
1, 71760, Note_on_c, 1, 57, 127
1, 71789, Note_off_c, 1, 62, 0
1, 71819, Note_off_c, 1, 57, 0
1, 71880, Note_on_c, 1, 54, 127
1, 71939, Note_off_c, 1, 54, 0
1, 71940, Note_on_c, 1, 53, 127
1, 71999, Note_off_c, 1, 53, 0
1, 72060, Note_on_c, 1, 74, 127
1, 72060, Note_on_c, 1, 49, 127
1, 72119, Note_off_c, 1, 74, 0
1, 72179, Note_off_c, 1, 49, 0
1, 72360, Note_on_c, 1, 71, 127
1, 72360, Note_on_c, 1, 68, 127
1, 72360, Note_on_c, 1, 65, 127
1, 72360, Note_on_c, 1, 61, 127
1, 72419, Note_off_c, 1, 71, 0
1, 72419, Note_off_c, 1, 68, 0
1, 72419, Note_off_c, 1, 65, 0
1, 72419, Note_off_c, 1, 61, 0
1, 72420, Note_on_c, 1, 71, 127
1, 72420, Note_on_c, 1, 68, 127
1, 72420, Note_on_c, 1, 65, 127
1, 72420, Note_on_c, 1, 61, 127
1, 72479, Note_off_c, 1, 71, 0
1, 72479, Note_off_c, 1, 68, 0
1, 72479, Note_off_c, 1, 65, 0
1, 72479, Note_off_c, 1, 61, 0
1, 72480, Note_on_c, 1, 71, 127
1, 72480, Note_on_c, 1, 68, 127
1, 72480, Note_on_c, 1, 65, 127
1, 72480, Note_on_c, 1, 61, 127
1, 72539, Note_off_c, 1, 71, 0
1, 72539, Note_off_c, 1, 68, 0
1, 72539, Note_off_c, 1, 65, 0
1, 72539, Note_off_c, 1, 61, 0
1, 72540, Note_on_c, 1, 80, 127
1, 72540, Note_on_c, 1, 71, 127
1, 72540, Note_on_c, 1, 68, 127
1, 72540, Note_on_c, 1, 65, 127
1, 72540, Note_on_c, 1, 61, 127
1, 72540, Note_on_c, 1, 54, 127
1, 72540, Note_on_c, 1, 42, 127
1, 72599, Note_off_c, 1, 71, 0
1, 72599, Note_off_c, 1, 68, 0
1, 72599, Note_off_c, 1, 65, 0
1, 72599, Note_off_c, 1, 61, 0
1, 72600, Note_on_c, 1, 69, 127
1, 72600, Note_on_c, 1, 66, 127
1, 72629, Note_off_c, 1, 69, 0
1, 72659, Note_off_c, 1, 66, 0
1, 72720, Note_on_c, 1, 62, 127
1, 72720, Note_on_c, 1, 59, 127
1, 72749, Note_off_c, 1, 59, 0
1, 72750, Note_on_c, 1, 57, 127
1, 72778, Note_off_c, 1, 80, 0
1, 72779, Note_off_c, 1, 62, 0
1, 72779, Note_off_c, 1, 57, 0
1, 72780, Note_on_c, 1, 73, 127
1, 72780, Note_on_c, 1, 56, 127
1, 72839, Note_off_c, 1, 73, 0
1, 72839, Note_off_c, 1, 56, 0
1, 72840, Note_off_c, 1, 54, 0
1, 72840, Note_off_c, 1, 42, 0
1, 72840, Note_on_c, 1, 53, 127
1, 72840, Note_on_c, 1, 41, 127
1, 72870, Note_off_c, 1, 53, 0
1, 72870, Note_off_c, 1, 41, 0
1, 72870, Note_on_c, 1, 51, 127
1, 72870, Note_on_c, 1, 39, 127
1, 72900, Note_off_c, 1, 51, 0
1, 72900, Note_off_c, 1, 39, 0
1, 72900, Note_on_c, 1, 49, 127
1, 72900, Note_on_c, 1, 37, 127
1, 72960, Note_off_c, 1, 49, 0
1, 72960, Note_off_c, 1, 37, 0
1, 72960, Note_on_c, 1, 75, 127
1, 72960, Note_on_c, 1, 47, 127
1, 72960, Note_on_c, 1, 35, 127
1, 72990, Note_off_c, 1, 75, 0
1, 72990, Note_on_c, 1, 77, 127
1, 73020, Note_off_c, 1, 47, 0
1, 73020, Note_off_c, 1, 35, 0
1, 73020, Note_off_c, 1, 77, 0
1, 73020, Note_on_c, 1, 78, 127
1, 73020, Note_on_c, 1, 45, 127
1, 73020, Note_on_c, 1, 33, 127
1, 73050, Note_off_c, 1, 45, 0
1, 73050, Note_off_c, 1, 33, 0
1, 73050, Note_on_c, 1, 44, 127
1, 73050, Note_on_c, 1, 32, 127
1, 73080, Note_off_c, 1, 44, 0
1, 73080, Note_off_c, 1, 32, 0
1, 73080, Note_on_c, 1, 81, 127
1, 73080, Note_on_c, 1, 30, 127
1, 73100, Note_off_c, 1, 81, 0
1, 73110, Note_off_c, 1, 30, 0
1, 73230, Note_on_c, 1, 74, 127
1, 73260, Note_off_c, 1, 74, 0
1, 73260, Note_on_c, 1, 85, 127
1, 73300, Note_off_c, 1, 85, 0
1, 73320, Note_off_c, 1, 78, 0
1, 73680, Note_on_c, 1, 25, 127
1, 73740, Note_off_c, 1, 25, 0
1, 74580, Note_on_c, 1, 57, 127
1, 74580, Note_on_c, 1, 45, 127
1, 74620, Note_off_c, 1, 57, 0
1, 74620, Note_off_c, 1, 45, 0
1, 74640, Note_on_c, 1, 57, 127
1, 74640, Note_on_c, 1, 45, 127
1, 74680, Note_off_c, 1, 57, 0
1, 74680, Note_off_c, 1, 45, 0
1, 74700, Note_on_c, 1, 57, 127
1, 74700, Note_on_c, 1, 45, 127
1, 74758, Note_off_c, 1, 57, 0
1, 74758, Note_off_c, 1, 45, 0
1, 74760, Note_on_c, 1, 56, 127
1, 74760, Note_on_c, 1, 44, 127
1, 74788, Note_off_c, 1, 56, 0
1, 74788, Note_off_c, 1, 44, 0
1, 74790, Note_on_c, 1, 57, 127
1, 74790, Note_on_c, 1, 45, 127
1, 74818, Note_off_c, 1, 57, 0
1, 74818, Note_off_c, 1, 45, 0
1, 74820, Note_on_c, 1, 59, 127
1, 74820, Note_on_c, 1, 47, 127
1, 74820, Note_on_c, 1, 68, 127
1, 74820, Note_on_c, 1, 64, 127
1, 74878, Note_off_c, 1, 59, 0
1, 74878, Note_off_c, 1, 47, 0
1, 74878, Note_off_c, 1, 68, 0
1, 74880, Note_on_c, 1, 50, 127
1, 74880, Note_on_c, 1, 38, 127
1, 74880, Note_on_c, 1, 69, 127
1, 74908, Note_off_c, 1, 69, 0
1, 74910, Note_on_c, 1, 71, 127
1, 74938, Note_off_c, 1, 50, 0
1, 74938, Note_off_c, 1, 38, 0
1, 74938, Note_off_c, 1, 71, 0
1, 74940, Note_on_c, 1, 49, 127
1, 74940, Note_on_c, 1, 37, 127
1, 75058, Note_off_c, 1, 64, 0
1, 75058, Note_off_c, 1, 49, 0
1, 75058, Note_off_c, 1, 37, 0
1, 75060, Note_on_c, 1, 61, 127
1, 75060, Note_on_c, 1, 49, 127
1, 75060, Note_on_c, 1, 69, 127
1, 75060, Note_on_c, 1, 64, 127
1, 75100, Note_off_c, 1, 61, 0
1, 75100, Note_off_c, 1, 49, 0
1, 75118, Note_off_c, 1, 69, 0
1, 75120, Note_on_c, 1, 68, 127
1, 75178, Note_off_c, 1, 68, 0
1, 75180, Note_on_c, 1, 66, 127
1, 75238, Note_off_c, 1, 64, 0
1, 75240, Note_on_c, 1, 59, 127
1, 75240, Note_on_c, 1, 47, 127
1, 75240, Note_on_c, 1, 62, 127
1, 75268, Note_off_c, 1, 59, 0
1, 75268, Note_off_c, 1, 47, 0
1, 75268, Note_off_c, 1, 62, 0
1, 75298, Note_off_c, 1, 66, 0
1, 75300, Note_on_c, 1, 62, 127
1, 75300, Note_on_c, 1, 50, 127
1, 75300, Note_on_c, 1, 71, 127
1, 75300, Note_on_c, 1, 66, 127
1, 75358, Note_off_c, 1, 62, 0
1, 75358, Note_off_c, 1, 50, 0
1, 75358, Note_off_c, 1, 71, 0
1, 75358, Note_off_c, 1, 66, 0
1, 75360, Note_on_c, 1, 54, 127
1, 75360, Note_on_c, 1, 42, 127
1, 75360, Note_on_c, 1, 69, 127
1, 75360, Note_on_c, 1, 66, 127
1, 75418, Note_off_c, 1, 54, 0
1, 75418, Note_off_c, 1, 42, 0
1, 75418, Note_off_c, 1, 69, 0
1, 75418, Note_off_c, 1, 66, 0
1, 75420, Note_on_c, 1, 52, 127
1, 75420, Note_on_c, 1, 40, 127
1, 75420, Note_on_c, 1, 66, 127
1, 75420, Note_on_c, 1, 62, 127
1, 75420, Note_on_c, 1, 68, 127
1, 75478, Note_off_c, 1, 66, 0
1, 75480, Note_on_c, 1, 59, 127
1, 75538, Note_off_c, 1, 52, 0
1, 75538, Note_off_c, 1, 40, 0
1, 75538, Note_off_c, 1, 59, 0
1, 75540, Note_on_c, 1, 61, 127
1, 75540, Note_on_c, 1, 49, 127
1, 75540, Note_on_c, 1, 76, 127
1, 75598, Note_off_c, 1, 62, 0
1, 75598, Note_off_c, 1, 68, 0
1, 75598, Note_off_c, 1, 49, 0
1, 75600, Note_on_c, 1, 69, 127
1, 75628, Note_off_c, 1, 69, 0
1, 75658, Note_off_c, 1, 61, 0
1, 75660, Note_on_c, 1, 50, 127
1, 75660, Note_on_c, 1, 38, 127
1, 75718, Note_off_c, 1, 76, 0
1, 75778, Note_off_c, 1, 50, 0
1, 75778, Note_off_c, 1, 38, 0
1, 75780, Note_on_c, 1, 47, 127
1, 75780, Note_on_c, 1, 74, 127
1, 75838, Note_off_c, 1, 47, 0
1, 75900, Note_on_c, 1, 37, 127
1, 75900, Note_on_c, 1, 64, 127
1, 75930, Note_on_c, 1, 56, 127
1, 75950, Note_off_c, 1, 56, 0
1, 75958, Note_off_c, 1, 74, 0
1, 75958, Note_off_c, 1, 64, 0
1, 75960, Note_on_c, 1, 57, 127
1, 75960, Note_on_c, 1, 73, 127
1, 75980, Note_off_c, 1, 57, 0
1, 75988, Note_off_c, 1, 73, 0
1, 75990, Note_on_c, 1, 71, 127
1, 76018, Note_off_c, 1, 37, 0
1, 76018, Note_off_c, 1, 71, 0
1, 76020, Note_on_c, 1, 57, 127
1, 76020, Note_on_c, 1, 45, 127
1, 76020, Note_on_c, 1, 61, 127
1, 76020, Note_on_c, 1, 69, 127
1, 76048, Note_off_c, 1, 57, 0
1, 76048, Note_off_c, 1, 45, 0
1, 76050, Note_on_c, 1, 56, 127
1, 76050, Note_on_c, 1, 44, 127
1, 76078, Note_off_c, 1, 61, 0
1, 76078, Note_off_c, 1, 56, 0
1, 76078, Note_off_c, 1, 44, 0
1, 76080, Note_on_c, 1, 54, 127
1, 76080, Note_on_c, 1, 42, 127
1, 76080, Note_on_c, 1, 62, 127
1, 76108, Note_off_c, 1, 54, 0
1, 76108, Note_off_c, 1, 42, 0
1, 76108, Note_off_c, 1, 62, 0
1, 76110, Note_on_c, 1, 52, 127
1, 76110, Note_on_c, 1, 40, 127
1, 76138, Note_off_c, 1, 69, 0
1, 76138, Note_off_c, 1, 52, 0
1, 76138, Note_off_c, 1, 40, 0
1, 76140, Note_on_c, 1, 50, 127
1, 76140, Note_on_c, 1, 38, 127
1, 76140, Note_on_c, 1, 66, 127
1, 76168, Note_off_c, 1, 50, 0
1, 76168, Note_off_c, 1, 38, 0
1, 76168, Note_off_c, 1, 66, 0
1, 76170, Note_on_c, 1, 49, 127
1, 76170, Note_on_c, 1, 37, 127
1, 76170, Note_on_c, 1, 64, 127
1, 76198, Note_off_c, 1, 49, 0
1, 76198, Note_off_c, 1, 37, 0
1, 76198, Note_off_c, 1, 64, 0
1, 76200, Note_on_c, 1, 47, 127
1, 76200, Note_on_c, 1, 35, 127
1, 76200, Note_on_c, 1, 68, 127
1, 76200, Note_on_c, 1, 62, 127
1, 76228, Note_off_c, 1, 47, 0
1, 76228, Note_off_c, 1, 35, 0
1, 76228, Note_off_c, 1, 68, 0
1, 76228, Note_off_c, 1, 62, 0
1, 76230, Note_on_c, 1, 45, 127
1, 76230, Note_on_c, 1, 33, 127
1, 76230, Note_on_c, 1, 69, 127
1, 76230, Note_on_c, 1, 61, 127
1, 76258, Note_off_c, 1, 45, 0
1, 76258, Note_off_c, 1, 33, 0
1, 76258, Note_off_c, 1, 69, 0
1, 76258, Note_off_c, 1, 61, 0
1, 76260, Note_on_c, 1, 52, 127
1, 76260, Note_on_c, 1, 40, 127
1, 76260, Note_on_c, 1, 73, 127
1, 76260, Note_on_c, 1, 69, 127
1, 76260, Note_on_c, 1, 64, 127
1, 76318, Note_off_c, 1, 52, 0
1, 76318, Note_off_c, 1, 40, 0
1, 76318, Note_off_c, 1, 73, 0
1, 76318, Note_off_c, 1, 69, 0
1, 76318, Note_off_c, 1, 64, 0
1, 76320, Note_on_c, 1, 40, 127
1, 76320, Note_on_c, 1, 28, 127
1, 76320, Note_on_c, 1, 68, 127
1, 76320, Note_on_c, 1, 71, 127
1, 76320, Note_on_c, 1, 62, 127
1, 76320, Note_on_c, 1, 64, 127
1, 76348, Note_off_c, 1, 68, 0
1, 76348, Note_off_c, 1, 71, 0
1, 76350, Note_on_c, 1, 69, 127
1, 76378, Note_off_c, 1, 40, 0
1, 76378, Note_off_c, 1, 28, 0
1, 76378, Note_off_c, 1, 62, 0
1, 76378, Note_off_c, 1, 64, 0
1, 76378, Note_off_c, 1, 69, 0
1, 76380, Note_on_c, 1, 45, 127
1, 76380, Note_on_c, 1, 33, 127
1, 76380, Note_on_c, 1, 69, 127
1, 76380, Note_on_c, 1, 64, 127
1, 76380, Note_on_c, 1, 61, 127
1, 76438, Note_off_c, 1, 45, 0
1, 76438, Note_off_c, 1, 33, 0
1, 76438, Note_off_c, 1, 69, 0
1, 76438, Note_off_c, 1, 64, 0
1, 76438, Note_off_c, 1, 61, 0
1, 76500, Note_on_c, 1, 57, 127
1, 76500, Note_on_c, 1, 49, 127
1, 76500, Note_on_c, 1, 37, 127
1, 76500, Note_on_c, 1, 69, 127
1, 76500, Note_on_c, 1, 64, 127
1, 76500, Note_on_c, 1, 61, 127
1, 76540, Note_off_c, 1, 49, 0
1, 76540, Note_off_c, 1, 37, 0
1, 76618, Note_off_c, 1, 57, 0
1, 76618, Note_off_c, 1, 69, 0
1, 76618, Note_off_c, 1, 64, 0
1, 76618, Note_off_c, 1, 61, 0
1, 76620, Note_on_c, 1, 57, 127
1, 76620, Note_on_c, 1, 52, 127
1, 76620, Note_on_c, 1, 40, 127
1, 76620, Note_on_c, 1, 73, 127
1, 76620, Note_on_c, 1, 69, 127
1, 76620, Note_on_c, 1, 64, 127
1, 76660, Note_off_c, 1, 52, 0
1, 76660, Note_off_c, 1, 40, 0
1, 76678, Note_off_c, 1, 57, 0
1, 76680, Note_on_c, 1, 56, 127
1, 76708, Note_off_c, 1, 56, 0
1, 76738, Note_off_c, 1, 73, 0
1, 76738, Note_off_c, 1, 69, 0
1, 76738, Note_off_c, 1, 64, 0
1, 76740, Note_on_c, 1, 59, 127
1, 76740, Note_on_c, 1, 40, 127
1, 76740, Note_on_c, 1, 28, 127
1, 76740, Note_on_c, 1, 68, 127
1, 76740, Note_on_c, 1, 64, 127
1, 76780, Note_off_c, 1, 40, 0
1, 76780, Note_off_c, 1, 28, 0
1, 76798, Note_off_c, 1, 59, 0
1, 76798, Note_off_c, 1, 68, 0
1, 76800, Note_on_c, 1, 50, 127
1, 76800, Note_on_c, 1, 69, 127
1, 76828, Note_off_c, 1, 69, 0
1, 76830, Note_on_c, 1, 71, 127
1, 76858, Note_off_c, 1, 50, 0
1, 76858, Note_off_c, 1, 71, 0
1, 76860, Note_on_c, 1, 49, 127
1, 76860, Note_on_c, 1, 45, 127
1, 76860, Note_on_c, 1, 33, 127
1, 76900, Note_off_c, 1, 49, 0
1, 76900, Note_off_c, 1, 45, 0
1, 76900, Note_off_c, 1, 33, 0
1, 76918, Note_off_c, 1, 64, 0
1, 76920, Note_on_c, 1, 45, 127
1, 76920, Note_on_c, 1, 69, 127
1, 76948, Note_off_c, 1, 69, 0
1, 76950, Note_on_c, 1, 68, 127
1, 76960, Note_off_c, 1, 45, 0
1, 76978, Note_off_c, 1, 68, 0
1, 76980, Note_on_c, 1, 61, 127
1, 76980, Note_on_c, 1, 49, 127
1, 76980, Note_on_c, 1, 66, 127
1, 77020, Note_off_c, 1, 61, 0
1, 77020, Note_off_c, 1, 49, 0
1, 77038, Note_off_c, 1, 66, 0
1, 77040, Note_on_c, 1, 61, 127
1, 77040, Note_on_c, 1, 49, 127
1, 77040, Note_on_c, 1, 64, 127
1, 77080, Note_off_c, 1, 61, 0
1, 77080, Note_off_c, 1, 49, 0
1, 77098, Note_off_c, 1, 64, 0
1, 77100, Note_on_c, 1, 61, 127
1, 77100, Note_on_c, 1, 49, 127
1, 77100, Note_on_c, 1, 62, 127
1, 77158, Note_off_c, 1, 61, 0
1, 77158, Note_off_c, 1, 49, 0
1, 77160, Note_on_c, 1, 59, 127
1, 77160, Note_on_c, 1, 47, 127
1, 77188, Note_off_c, 1, 59, 0
1, 77188, Note_off_c, 1, 47, 0
1, 77218, Note_off_c, 1, 62, 0
1, 77220, Note_on_c, 1, 62, 127
1, 77220, Note_on_c, 1, 50, 127
1, 77220, Note_on_c, 1, 71, 127
1, 77278, Note_off_c, 1, 62, 0
1, 77278, Note_off_c, 1, 50, 0
1, 77278, Note_off_c, 1, 71, 0
1, 77280, Note_on_c, 1, 54, 127
1, 77280, Note_on_c, 1, 42, 127
1, 77280, Note_on_c, 1, 64, 127
1, 77280, Note_on_c, 1, 69, 127
1, 77308, Note_off_c, 1, 64, 0
1, 77310, Note_on_c, 1, 66, 127
1, 77338, Note_off_c, 1, 54, 0
1, 77338, Note_off_c, 1, 42, 0
1, 77338, Note_off_c, 1, 69, 0
1, 77338, Note_off_c, 1, 66, 0
1, 77340, Note_on_c, 1, 52, 127
1, 77340, Note_on_c, 1, 40, 127
1, 77340, Note_on_c, 1, 68, 127
1, 77400, Note_on_c, 1, 66, 127
1, 77428, Note_off_c, 1, 66, 0
1, 77430, Note_on_c, 1, 64, 127
1, 77458, Note_off_c, 1, 52, 0
1, 77458, Note_off_c, 1, 40, 0
1, 77458, Note_off_c, 1, 64, 0
1, 77460, Note_on_c, 1, 61, 127
1, 77460, Note_on_c, 1, 49, 127
1, 77460, Note_on_c, 1, 73, 127
1, 77518, Note_off_c, 1, 49, 0
1, 77518, Note_off_c, 1, 73, 0
1, 77520, Note_on_c, 1, 71, 127
1, 77578, Note_off_c, 1, 68, 0
1, 77578, Note_off_c, 1, 71, 0
1, 77580, Note_on_c, 1, 50, 127
1, 77580, Note_on_c, 1, 38, 127
1, 77580, Note_on_c, 1, 69, 127
1, 77638, Note_off_c, 1, 61, 0
1, 77640, Note_on_c, 1, 62, 127
1, 77668, Note_off_c, 1, 62, 0
1, 77698, Note_off_c, 1, 50, 0
1, 77698, Note_off_c, 1, 38, 0
1, 77698, Note_off_c, 1, 69, 0
1, 77700, Note_on_c, 1, 59, 127
1, 77700, Note_on_c, 1, 47, 127
1, 77700, Note_on_c, 1, 62, 127
1, 77730, Note_on_c, 1, 69, 127
1, 77758, Note_off_c, 1, 59, 0
1, 77758, Note_off_c, 1, 47, 0
1, 77758, Note_off_c, 1, 69, 0
1, 77760, Note_on_c, 1, 50, 127
1, 77760, Note_on_c, 1, 38, 127
1, 77760, Note_on_c, 1, 68, 127
1, 77788, Note_off_c, 1, 68, 0
1, 77790, Note_on_c, 1, 66, 127
1, 77818, Note_off_c, 1, 50, 0
1, 77818, Note_off_c, 1, 38, 0
1, 77818, Note_off_c, 1, 66, 0
1, 77820, Note_on_c, 1, 49, 127
1, 77820, Note_on_c, 1, 37, 127
1, 77820, Note_on_c, 1, 64, 127
1, 77850, Note_on_c, 1, 52, 127
1, 77878, Note_off_c, 1, 62, 0
1, 77880, Note_on_c, 1, 73, 127
1, 77908, Note_off_c, 1, 64, 0
1, 77908, Note_off_c, 1, 73, 0
1, 77910, Note_off_c, 1, 52, 0
1, 77910, Note_on_c, 1, 71, 127
1, 77910, Note_on_c, 1, 56, 127
1, 77938, Note_off_c, 1, 49, 0
1, 77938, Note_off_c, 1, 37, 0
1, 77938, Note_off_c, 1, 71, 0
1, 77940, Note_off_c, 1, 56, 0
1, 77940, Note_on_c, 1, 57, 127
1, 77940, Note_on_c, 1, 45, 127
1, 77940, Note_on_c, 1, 61, 127
1, 77968, Note_off_c, 1, 57, 0
1, 77968, Note_off_c, 1, 45, 0
1, 77970, Note_on_c, 1, 44, 127
1, 77998, Note_off_c, 1, 61, 0
1, 77998, Note_off_c, 1, 44, 0
1, 78000, Note_on_c, 1, 54, 127
1, 78000, Note_on_c, 1, 42, 127
1, 78028, Note_off_c, 1, 54, 0
1, 78028, Note_off_c, 1, 42, 0
1, 78030, Note_on_c, 1, 40, 127
1, 78058, Note_off_c, 1, 40, 0
1, 78120, Note_on_c, 1, 47, 127
1, 78120, Note_on_c, 1, 35, 127
1, 78120, Note_on_c, 1, 68, 127
1, 78120, Note_on_c, 1, 62, 127
1, 78148, Note_off_c, 1, 47, 0
1, 78148, Note_off_c, 1, 35, 0
1, 78148, Note_off_c, 1, 68, 0
1, 78148, Note_off_c, 1, 62, 0
1, 78150, Note_on_c, 1, 45, 127
1, 78150, Note_on_c, 1, 33, 127
1, 78150, Note_on_c, 1, 69, 127
1, 78150, Note_on_c, 1, 61, 127
1, 78178, Note_off_c, 1, 45, 0
1, 78178, Note_off_c, 1, 33, 0
1, 78178, Note_off_c, 1, 69, 0
1, 78178, Note_off_c, 1, 61, 0
1, 78180, Note_on_c, 1, 52, 127
1, 78180, Note_on_c, 1, 40, 127
1, 78180, Note_on_c, 1, 69, 127
1, 78180, Note_on_c, 1, 73, 127
1, 78180, Note_on_c, 1, 64, 127
1, 78238, Note_off_c, 1, 52, 0
1, 78238, Note_off_c, 1, 40, 0
1, 78238, Note_off_c, 1, 69, 0
1, 78238, Note_off_c, 1, 73, 0
1, 78238, Note_off_c, 1, 64, 0
1, 78240, Note_on_c, 1, 40, 127
1, 78240, Note_on_c, 1, 28, 127
1, 78240, Note_on_c, 1, 71, 127
1, 78240, Note_on_c, 1, 68, 127
1, 78240, Note_on_c, 1, 64, 127
1, 78240, Note_on_c, 1, 62, 127
1, 78268, Note_off_c, 1, 71, 0
1, 78270, Note_on_c, 1, 69, 127
1, 78280, Note_off_c, 1, 40, 0
1, 78280, Note_off_c, 1, 28, 0
1, 78298, Note_off_c, 1, 68, 0
1, 78298, Note_off_c, 1, 64, 0
1, 78298, Note_off_c, 1, 62, 0
1, 78298, Note_off_c, 1, 69, 0
1, 78300, Note_on_c, 1, 45, 127
1, 78300, Note_on_c, 1, 33, 127
1, 78300, Note_on_c, 1, 61, 127
1, 78300, Note_on_c, 1, 64, 127
1, 78300, Note_on_c, 1, 69, 127
1, 78358, Note_off_c, 1, 45, 0
1, 78358, Note_off_c, 1, 33, 0
1, 78358, Note_off_c, 1, 61, 0
1, 78358, Note_off_c, 1, 64, 0
1, 78358, Note_off_c, 1, 69, 0
1, 78420, Note_on_c, 1, 57, 127
1, 78420, Note_on_c, 1, 49, 127
1, 78420, Note_on_c, 1, 37, 127
1, 78420, Note_on_c, 1, 69, 127
1, 78420, Note_on_c, 1, 64, 127
1, 78420, Note_on_c, 1, 61, 127
1, 78460, Note_off_c, 1, 49, 0
1, 78460, Note_off_c, 1, 37, 0
1, 78538, Note_off_c, 1, 57, 0
1, 78538, Note_off_c, 1, 69, 0
1, 78538, Note_off_c, 1, 64, 0
1, 78538, Note_off_c, 1, 61, 0
1, 78540, Note_on_c, 1, 57, 127
1, 78540, Note_on_c, 1, 52, 127
1, 78540, Note_on_c, 1, 40, 127
1, 78540, Note_on_c, 1, 61, 127
1, 78540, Note_on_c, 1, 73, 127
1, 78540, Note_on_c, 1, 64, 127
1, 78540, Note_on_c, 1, 69, 127
1, 78580, Note_off_c, 1, 52, 0
1, 78580, Note_off_c, 1, 40, 0
1, 78598, Note_off_c, 1, 57, 0
1, 78600, Note_on_c, 1, 56, 127
1, 78628, Note_off_c, 1, 56, 0
1, 78658, Note_off_c, 1, 61, 0
1, 78658, Note_off_c, 1, 73, 0
1, 78658, Note_off_c, 1, 64, 0
1, 78658, Note_off_c, 1, 69, 0
1, 78660, Note_on_c, 1, 59, 127
1, 78660, Note_on_c, 1, 40, 127
1, 78660, Note_on_c, 1, 28, 127
1, 78660, Note_on_c, 1, 71, 127
1, 78700, Note_off_c, 1, 40, 0
1, 78700, Note_off_c, 1, 28, 0
1, 78718, Note_off_c, 1, 59, 0
1, 78718, Note_off_c, 1, 71, 0
1, 78720, Note_on_c, 1, 50, 127
1, 78720, Note_on_c, 1, 71, 127
1, 78778, Note_off_c, 1, 50, 0
1, 78778, Note_off_c, 1, 71, 0
1, 78780, Note_on_c, 1, 49, 127
1, 78780, Note_on_c, 1, 45, 127
1, 78780, Note_on_c, 1, 33, 127
1, 78780, Note_on_c, 1, 71, 127
1, 78820, Note_off_c, 1, 45, 0
1, 78820, Note_off_c, 1, 33, 0
1, 78838, Note_off_c, 1, 49, 0
1, 78838, Note_off_c, 1, 71, 0
1, 78840, Note_on_c, 1, 45, 127
1, 78840, Note_on_c, 1, 69, 127
1, 78868, Note_off_c, 1, 69, 0
1, 78870, Note_on_c, 1, 68, 127
1, 78898, Note_off_c, 1, 45, 0
1, 78898, Note_off_c, 1, 68, 0
1, 78900, Note_on_c, 1, 61, 127
1, 78900, Note_on_c, 1, 49, 127
1, 78900, Note_on_c, 1, 57, 127
1, 78900, Note_on_c, 1, 66, 127
1, 78940, Note_off_c, 1, 61, 0
1, 78940, Note_off_c, 1, 49, 0
1, 78958, Note_off_c, 1, 57, 0
1, 78958, Note_off_c, 1, 66, 0
1, 78960, Note_on_c, 1, 52, 127
1, 78960, Note_on_c, 1, 61, 127
1, 78960, Note_on_c, 1, 49, 127
1, 78960, Note_on_c, 1, 57, 127
1, 78960, Note_on_c, 1, 64, 127
1, 79000, Note_off_c, 1, 61, 0
1, 79000, Note_off_c, 1, 49, 0
1, 79018, Note_off_c, 1, 52, 0
1, 79018, Note_off_c, 1, 57, 0
1, 79018, Note_off_c, 1, 64, 0
1, 79020, Note_on_c, 1, 50, 127
1, 79020, Note_on_c, 1, 61, 127
1, 79020, Note_on_c, 1, 49, 127
1, 79020, Note_on_c, 1, 57, 127
1, 79020, Note_on_c, 1, 62, 127
1, 79048, Note_off_c, 1, 50, 0
1, 79078, Note_off_c, 1, 61, 0
1, 79078, Note_off_c, 1, 49, 0
1, 79078, Note_off_c, 1, 57, 0
1, 79080, Note_on_c, 1, 59, 127
1, 79080, Note_on_c, 1, 47, 127
1, 79080, Note_on_c, 1, 56, 127
1, 79108, Note_off_c, 1, 59, 0
1, 79108, Note_off_c, 1, 47, 0
1, 79108, Note_off_c, 1, 56, 0
1, 79110, Note_on_c, 1, 54, 127
1, 79138, Note_off_c, 1, 62, 0
1, 79138, Note_off_c, 1, 54, 0
1, 79140, Note_on_c, 1, 59, 127
1, 79140, Note_on_c, 1, 62, 127
1, 79140, Note_on_c, 1, 50, 127
1, 79140, Note_on_c, 1, 71, 127
1, 79198, Note_off_c, 1, 59, 0
1, 79198, Note_off_c, 1, 62, 0
1, 79198, Note_off_c, 1, 50, 0
1, 79198, Note_off_c, 1, 71, 0
1, 79200, Note_on_c, 1, 50, 127
1, 79200, Note_on_c, 1, 54, 127
1, 79200, Note_on_c, 1, 42, 127
1, 79200, Note_on_c, 1, 73, 127
1, 79200, Note_on_c, 1, 62, 127
1, 79228, Note_off_c, 1, 73, 0
1, 79230, Note_on_c, 1, 74, 127
1, 79258, Note_off_c, 1, 50, 0
1, 79258, Note_off_c, 1, 54, 0
1, 79258, Note_off_c, 1, 42, 0
1, 79258, Note_off_c, 1, 62, 0
1, 79258, Note_off_c, 1, 74, 0
1, 79260, Note_on_c, 1, 49, 127
1, 79260, Note_on_c, 1, 52, 127
1, 79260, Note_on_c, 1, 40, 127
1, 79260, Note_on_c, 1, 76, 127
1, 79288, Note_off_c, 1, 49, 0
1, 79290, Note_on_c, 1, 47, 127
1, 79290, Note_on_c, 1, 59, 127
1, 79318, Note_off_c, 1, 76, 0
1, 79318, Note_off_c, 1, 47, 0
1, 79320, Note_off_c, 1, 59, 0
1, 79320, Note_on_c, 1, 73, 127
1, 79320, Note_on_c, 1, 61, 127
1, 79348, Note_off_c, 1, 73, 0
1, 79350, Note_off_c, 1, 61, 0
1, 79350, Note_on_c, 1, 71, 127
1, 79350, Note_on_c, 1, 64, 127
1, 79378, Note_off_c, 1, 52, 0
1, 79378, Note_off_c, 1, 40, 0
1, 79378, Note_off_c, 1, 71, 0
1, 79380, Note_off_c, 1, 64, 0
1, 79380, Note_on_c, 1, 57, 127
1, 79380, Note_on_c, 1, 69, 127
1, 79438, Note_off_c, 1, 57, 0
1, 79438, Note_off_c, 1, 69, 0
1, 79440, Note_on_c, 1, 49, 127
1, 79440, Note_on_c, 1, 52, 127
1, 79440, Note_on_c, 1, 40, 127
1, 79440, Note_on_c, 1, 64, 127
1, 79440, Note_on_c, 1, 69, 127
1, 79440, Note_on_c, 1, 73, 127
1, 79468, Note_off_c, 1, 64, 0
1, 79470, Note_on_c, 1, 66, 127
1, 79498, Note_off_c, 1, 49, 0
1, 79498, Note_off_c, 1, 52, 0
1, 79498, Note_off_c, 1, 40, 0
1, 79498, Note_off_c, 1, 69, 0
1, 79498, Note_off_c, 1, 73, 0
1, 79498, Note_off_c, 1, 66, 0
1, 79500, Note_on_c, 1, 47, 127
1, 79500, Note_on_c, 1, 50, 127
1, 79500, Note_on_c, 1, 38, 127
1, 79500, Note_on_c, 1, 66, 127
1, 79500, Note_on_c, 1, 68, 127
1, 79500, Note_on_c, 1, 71, 127
1, 79558, Note_off_c, 1, 47, 0
1, 79558, Note_off_c, 1, 66, 0
1, 79560, Note_on_c, 1, 49, 127
1, 79560, Note_on_c, 1, 64, 127
1, 79588, Note_off_c, 1, 49, 0
1, 79618, Note_off_c, 1, 50, 0
1, 79618, Note_off_c, 1, 38, 0
1, 79618, Note_off_c, 1, 68, 0
1, 79618, Note_off_c, 1, 71, 0
1, 79618, Note_off_c, 1, 64, 0
1, 79620, Note_on_c, 1, 52, 127
1, 79620, Note_on_c, 1, 59, 127
1, 79620, Note_on_c, 1, 47, 127
1, 79620, Note_on_c, 1, 68, 127
1, 79648, Note_off_c, 1, 52, 0
1, 79650, Note_on_c, 1, 54, 127
1, 79678, Note_off_c, 1, 59, 0
1, 79678, Note_off_c, 1, 47, 0
1, 79678, Note_off_c, 1, 68, 0
1, 79678, Note_off_c, 1, 54, 0
1, 79680, Note_on_c, 1, 56, 127
1, 79680, Note_on_c, 1, 50, 127
1, 79680, Note_on_c, 1, 38, 127
1, 79680, Note_on_c, 1, 64, 127
1, 79680, Note_on_c, 1, 68, 127
1, 79680, Note_on_c, 1, 71, 127
1, 79708, Note_off_c, 1, 56, 0
1, 79708, Note_off_c, 1, 64, 0
1, 79710, Note_on_c, 1, 52, 127
1, 79710, Note_on_c, 1, 66, 127
1, 79738, Note_off_c, 1, 50, 0
1, 79738, Note_off_c, 1, 38, 0
1, 79738, Note_off_c, 1, 68, 0
1, 79738, Note_off_c, 1, 71, 0
1, 79738, Note_off_c, 1, 52, 0
1, 79738, Note_off_c, 1, 66, 0
1, 79740, Note_on_c, 1, 57, 127
1, 79740, Note_on_c, 1, 49, 127
1, 79740, Note_on_c, 1, 37, 127
1, 79740, Note_on_c, 1, 66, 127
1, 79740, Note_on_c, 1, 69, 127
1, 79740, Note_on_c, 1, 73, 127
1, 79768, Note_off_c, 1, 57, 0
1, 79770, Note_on_c, 1, 59, 127
1, 79798, Note_off_c, 1, 66, 0
1, 79798, Note_off_c, 1, 59, 0
1, 79800, Note_on_c, 1, 61, 127
1, 79800, Note_on_c, 1, 64, 127
1, 79828, Note_off_c, 1, 61, 0
1, 79858, Note_off_c, 1, 49, 0
1, 79858, Note_off_c, 1, 37, 0
1, 79858, Note_off_c, 1, 69, 0
1, 79858, Note_off_c, 1, 73, 0
1, 79858, Note_off_c, 1, 64, 0
1, 79860, Note_on_c, 1, 57, 127
1, 79860, Note_on_c, 1, 45, 127
1, 79860, Note_on_c, 1, 64, 127
1, 79860, Note_on_c, 1, 73, 127
1, 79888, Note_off_c, 1, 57, 0
1, 79888, Note_off_c, 1, 45, 0
1, 79890, Note_on_c, 1, 56, 127
1, 79890, Note_on_c, 1, 44, 127
1, 79918, Note_off_c, 1, 64, 0
1, 79918, Note_off_c, 1, 56, 0
1, 79918, Note_off_c, 1, 44, 0
1, 79920, Note_on_c, 1, 54, 127
1, 79920, Note_on_c, 1, 42, 127
1, 79920, Note_on_c, 1, 69, 127
1, 79948, Note_off_c, 1, 54, 0
1, 79948, Note_off_c, 1, 42, 0
1, 79948, Note_off_c, 1, 69, 0
1, 79950, Note_on_c, 1, 52, 127
1, 79950, Note_on_c, 1, 40, 127
1, 79950, Note_on_c, 1, 68, 127
1, 79978, Note_off_c, 1, 73, 0
1, 79978, Note_off_c, 1, 52, 0
1, 79978, Note_off_c, 1, 40, 0
1, 79978, Note_off_c, 1, 68, 0
1, 79980, Note_on_c, 1, 59, 127
1, 79980, Note_on_c, 1, 51, 127
1, 79980, Note_on_c, 1, 39, 127
1, 79980, Note_on_c, 1, 66, 127
1, 80010, Note_on_c, 1, 71, 127
1, 80020, Note_off_c, 1, 51, 0
1, 80020, Note_off_c, 1, 39, 0
1, 80038, Note_off_c, 1, 59, 0
1, 80038, Note_off_c, 1, 66, 0
1, 80038, Note_off_c, 1, 71, 0
1, 80040, Note_on_c, 1, 56, 127
1, 80040, Note_on_c, 1, 52, 127
1, 80040, Note_on_c, 1, 40, 127
1, 80040, Note_on_c, 1, 59, 127
1, 80040, Note_on_c, 1, 64, 127
1, 80068, Note_off_c, 1, 56, 0
1, 80068, Note_off_c, 1, 59, 0
1, 80070, Note_on_c, 1, 54, 127
1, 80070, Note_on_c, 1, 69, 127
1, 80080, Note_off_c, 1, 52, 0
1, 80080, Note_off_c, 1, 40, 0
1, 80098, Note_off_c, 1, 64, 0
1, 80098, Note_off_c, 1, 54, 0
1, 80098, Note_off_c, 1, 69, 0
1, 80100, Note_on_c, 1, 47, 127
1, 80100, Note_on_c, 1, 59, 127
1, 80100, Note_on_c, 1, 64, 127
1, 80100, Note_on_c, 1, 68, 127
1, 80158, Note_off_c, 1, 47, 0
1, 80158, Note_off_c, 1, 59, 0
1, 80158, Note_off_c, 1, 64, 0
1, 80158, Note_off_c, 1, 68, 0
1, 80160, Note_on_c, 1, 51, 127
1, 80160, Note_on_c, 1, 47, 127
1, 80160, Note_on_c, 1, 35, 127
1, 80160, Note_on_c, 1, 66, 127
1, 80160, Note_on_c, 1, 57, 127
1, 80160, Note_on_c, 1, 59, 127
1, 80188, Note_off_c, 1, 66, 0
1, 80190, Note_on_c, 1, 64, 127
1, 80200, Note_off_c, 1, 47, 0
1, 80200, Note_off_c, 1, 35, 0
1, 80218, Note_off_c, 1, 51, 0
1, 80218, Note_off_c, 1, 57, 0
1, 80218, Note_off_c, 1, 59, 0
1, 80218, Note_off_c, 1, 64, 0
1, 80220, Note_on_c, 1, 52, 127
1, 80220, Note_on_c, 1, 40, 127
1, 80220, Note_on_c, 1, 28, 127
1, 80220, Note_on_c, 1, 56, 127
1, 80220, Note_on_c, 1, 59, 127
1, 80220, Note_on_c, 1, 64, 127
1, 80300, Note_off_c, 1, 40, 0
1, 80300, Note_off_c, 1, 28, 0
1, 80338, Note_off_c, 1, 52, 0
1, 80338, Note_off_c, 1, 56, 0
1, 80338, Note_off_c, 1, 59, 0
1, 80338, Note_off_c, 1, 64, 0
1, 80340, Note_on_c, 1, 52, 127
1, 80340, Note_on_c, 1, 40, 127
1, 80380, Note_off_c, 1, 52, 0
1, 80380, Note_off_c, 1, 40, 0
1, 80400, Note_on_c, 1, 52, 127
1, 80400, Note_on_c, 1, 40, 127
1, 80440, Note_off_c, 1, 52, 0
1, 80440, Note_off_c, 1, 40, 0
1, 80460, Note_on_c, 1, 52, 127
1, 80460, Note_on_c, 1, 40, 127
1, 80500, Note_off_c, 1, 52, 0
1, 80500, Note_off_c, 1, 40, 0
1, 80520, Note_on_c, 1, 51, 127
1, 80520, Note_on_c, 1, 39, 127
1, 80540, Note_off_c, 1, 51, 0
1, 80540, Note_off_c, 1, 39, 0
1, 80550, Note_on_c, 1, 52, 127
1, 80550, Note_on_c, 1, 40, 127
1, 80570, Note_off_c, 1, 52, 0
1, 80570, Note_off_c, 1, 40, 0
1, 80580, Note_on_c, 1, 54, 127
1, 80580, Note_on_c, 1, 42, 127
1, 80580, Note_on_c, 1, 63, 127
1, 80610, Note_on_c, 1, 66, 127
1, 80620, Note_off_c, 1, 54, 0
1, 80620, Note_off_c, 1, 42, 0
1, 80638, Note_off_c, 1, 63, 0
1, 80638, Note_off_c, 1, 66, 0
1, 80640, Note_on_c, 1, 45, 127
1, 80640, Note_on_c, 1, 33, 127
1, 80640, Note_on_c, 1, 71, 127
1, 80640, Note_on_c, 1, 63, 127
1, 80640, Note_on_c, 1, 66, 127
1, 80668, Note_off_c, 1, 71, 0
1, 80670, Note_on_c, 1, 73, 127
1, 80680, Note_off_c, 1, 45, 0
1, 80680, Note_off_c, 1, 33, 0
1, 80698, Note_off_c, 1, 63, 0
1, 80698, Note_off_c, 1, 66, 0
1, 80698, Note_off_c, 1, 73, 0
1, 80700, Note_on_c, 1, 44, 127
1, 80700, Note_on_c, 1, 32, 127
1, 80700, Note_on_c, 1, 73, 127
1, 80700, Note_on_c, 1, 64, 127
1, 80700, Note_on_c, 1, 68, 127
1, 80758, Note_off_c, 1, 73, 0
1, 80760, Note_on_c, 1, 71, 127
1, 80780, Note_off_c, 1, 44, 0
1, 80780, Note_off_c, 1, 32, 0
1, 80818, Note_off_c, 1, 64, 0
1, 80818, Note_off_c, 1, 68, 0
1, 80818, Note_off_c, 1, 71, 0
1, 80820, Note_on_c, 1, 52, 127
1, 80820, Note_on_c, 1, 56, 127
1, 80820, Note_on_c, 1, 44, 127
1, 80860, Note_off_c, 1, 56, 0
1, 80860, Note_off_c, 1, 44, 0
1, 80878, Note_off_c, 1, 52, 0
1, 80880, Note_on_c, 1, 52, 127
1, 80880, Note_on_c, 1, 56, 127
1, 80880, Note_on_c, 1, 44, 127
1, 80920, Note_off_c, 1, 56, 0
1, 80920, Note_off_c, 1, 44, 0
1, 80938, Note_off_c, 1, 52, 0
1, 80940, Note_on_c, 1, 52, 127
1, 80940, Note_on_c, 1, 56, 127
1, 80940, Note_on_c, 1, 44, 127
1, 80980, Note_off_c, 1, 56, 0
1, 80980, Note_off_c, 1, 44, 0
1, 80998, Note_off_c, 1, 52, 0
1, 81000, Note_on_c, 1, 51, 127
1, 81000, Note_on_c, 1, 54, 127
1, 81000, Note_on_c, 1, 42, 127
1, 81020, Note_off_c, 1, 54, 0
1, 81020, Note_off_c, 1, 42, 0
1, 81028, Note_off_c, 1, 51, 0
1, 81030, Note_on_c, 1, 52, 127
1, 81030, Note_on_c, 1, 56, 127
1, 81030, Note_on_c, 1, 44, 127
1, 81050, Note_off_c, 1, 56, 0
1, 81050, Note_off_c, 1, 44, 0
1, 81058, Note_off_c, 1, 52, 0
1, 81060, Note_on_c, 1, 54, 127
1, 81060, Note_on_c, 1, 57, 127
1, 81060, Note_on_c, 1, 45, 127
1, 81060, Note_on_c, 1, 73, 127
1, 81088, Note_off_c, 1, 73, 0
1, 81090, Note_on_c, 1, 69, 127
1, 81100, Note_off_c, 1, 57, 0
1, 81100, Note_off_c, 1, 45, 0
1, 81118, Note_off_c, 1, 54, 0
1, 81118, Note_off_c, 1, 69, 0
1, 81120, Note_on_c, 1, 45, 127
1, 81120, Note_on_c, 1, 49, 127
1, 81120, Note_on_c, 1, 37, 127
1, 81120, Note_on_c, 1, 66, 127
1, 81148, Note_off_c, 1, 66, 0
1, 81150, Note_on_c, 1, 64, 127
1, 81160, Note_off_c, 1, 49, 0
1, 81160, Note_off_c, 1, 37, 0
1, 81178, Note_off_c, 1, 45, 0
1, 81178, Note_off_c, 1, 64, 0
1, 81180, Note_on_c, 1, 44, 127
1, 81180, Note_on_c, 1, 47, 127
1, 81180, Note_on_c, 1, 35, 127
1, 81180, Note_on_c, 1, 64, 127
1, 81208, Note_off_c, 1, 44, 0
1, 81238, Note_off_c, 1, 64, 0
1, 81240, Note_on_c, 1, 49, 127
1, 81240, Note_on_c, 1, 63, 127
1, 81260, Note_off_c, 1, 47, 0
1, 81260, Note_off_c, 1, 35, 0
1, 81268, Note_off_c, 1, 49, 0
1, 81270, Note_on_c, 1, 50, 127
1, 81298, Note_off_c, 1, 63, 0
1, 81298, Note_off_c, 1, 50, 0
1, 81300, Note_on_c, 1, 52, 127
1, 81300, Note_on_c, 1, 56, 127
1, 81300, Note_on_c, 1, 44, 127
1, 81300, Note_on_c, 1, 71, 127
1, 81328, Note_off_c, 1, 52, 0
1, 81328, Note_off_c, 1, 71, 0
1, 81330, Note_on_c, 1, 54, 127
1, 81330, Note_on_c, 1, 64, 127
1, 81340, Note_off_c, 1, 56, 0
1, 81340, Note_off_c, 1, 44, 0
1, 81358, Note_off_c, 1, 54, 0
1, 81358, Note_off_c, 1, 64, 0
1, 81360, Note_on_c, 1, 56, 127
1, 81360, Note_on_c, 1, 47, 127
1, 81360, Note_on_c, 1, 35, 127
1, 81360, Note_on_c, 1, 68, 127
1, 81360, Note_on_c, 1, 64, 127
1, 81388, Note_off_c, 1, 56, 0
1, 81388, Note_off_c, 1, 68, 0
1, 81390, Note_on_c, 1, 52, 127
1, 81390, Note_on_c, 1, 71, 127
1, 81400, Note_off_c, 1, 47, 0
1, 81400, Note_off_c, 1, 35, 0
1, 81418, Note_off_c, 1, 64, 0
1, 81418, Note_off_c, 1, 52, 0
1, 81418, Note_off_c, 1, 71, 0
1, 81420, Note_on_c, 1, 49, 127
1, 81420, Note_on_c, 1, 45, 127
1, 81420, Note_on_c, 1, 33, 127
1, 81420, Note_on_c, 1, 73, 127
1, 81420, Note_on_c, 1, 64, 127
1, 81448, Note_off_c, 1, 49, 0
1, 81450, Note_on_c, 1, 52, 127
1, 81478, Note_off_c, 1, 73, 0
1, 81478, Note_off_c, 1, 64, 0
1, 81478, Note_off_c, 1, 52, 0
1, 81480, Note_on_c, 1, 54, 127
1, 81480, Note_on_c, 1, 69, 127
1, 81480, Note_on_c, 1, 61, 127
1, 81500, Note_off_c, 1, 45, 0
1, 81500, Note_off_c, 1, 33, 0
1, 81508, Note_off_c, 1, 54, 0
1, 81510, Note_on_c, 1, 56, 127
1, 81538, Note_off_c, 1, 69, 0
1, 81538, Note_off_c, 1, 61, 0
1, 81538, Note_off_c, 1, 56, 0
1, 81540, Note_on_c, 1, 57, 127
1, 81540, Note_on_c, 1, 54, 127
1, 81540, Note_on_c, 1, 42, 127
1, 81540, Note_on_c, 1, 66, 127
1, 81568, Note_off_c, 1, 57, 0
1, 81570, Note_on_c, 1, 59, 127
1, 81570, Note_on_c, 1, 71, 127
1, 81580, Note_off_c, 1, 54, 0
1, 81580, Note_off_c, 1, 42, 0
1, 81598, Note_off_c, 1, 66, 0
1, 81598, Note_off_c, 1, 59, 0
1, 81598, Note_off_c, 1, 71, 0
1, 81600, Note_on_c, 1, 61, 127
1, 81600, Note_on_c, 1, 45, 127
1, 81600, Note_on_c, 1, 33, 127
1, 81600, Note_on_c, 1, 73, 127
1, 81600, Note_on_c, 1, 66, 127
1, 81628, Note_off_c, 1, 61, 0
1, 81628, Note_off_c, 1, 73, 0
1, 81630, Note_on_c, 1, 57, 127
1, 81630, Note_on_c, 1, 75, 127
1, 81640, Note_off_c, 1, 45, 0
1, 81640, Note_off_c, 1, 33, 0
1, 81658, Note_off_c, 1, 66, 0
1, 81658, Note_off_c, 1, 57, 0
1, 81658, Note_off_c, 1, 75, 0
1, 81660, Note_on_c, 1, 59, 127
1, 81660, Note_on_c, 1, 44, 127
1, 81660, Note_on_c, 1, 32, 127
1, 81660, Note_on_c, 1, 75, 127
1, 81660, Note_on_c, 1, 64, 127
1, 81660, Note_on_c, 1, 71, 127
1, 81718, Note_off_c, 1, 59, 0
1, 81718, Note_off_c, 1, 75, 0
1, 81720, Note_on_c, 1, 56, 127
1, 81720, Note_on_c, 1, 76, 127
1, 81740, Note_off_c, 1, 44, 0
1, 81740, Note_off_c, 1, 32, 0
1, 81748, Note_off_c, 1, 56, 0
1, 81750, Note_on_c, 1, 52, 127
1, 81778, Note_off_c, 1, 64, 0
1, 81778, Note_off_c, 1, 71, 0
1, 81778, Note_off_c, 1, 76, 0
1, 81778, Note_off_c, 1, 52, 0
1, 81780, Note_on_c, 1, 61, 127
1, 81780, Note_on_c, 1, 52, 127
1, 81780, Note_on_c, 1, 40, 127
1, 81780, Note_on_c, 1, 68, 127
1, 81780, Note_on_c, 1, 64, 127
1, 81800, Note_off_c, 1, 52, 0
1, 81800, Note_off_c, 1, 40, 0
1, 81810, Note_on_c, 1, 51, 127
1, 81810, Note_on_c, 1, 39, 127
1, 81830, Note_off_c, 1, 51, 0
1, 81830, Note_off_c, 1, 39, 0
1, 81838, Note_off_c, 1, 68, 0
1, 81840, Note_on_c, 1, 49, 127
1, 81840, Note_on_c, 1, 37, 127
1, 81840, Note_on_c, 1, 69, 127
1, 81860, Note_off_c, 1, 49, 0
1, 81860, Note_off_c, 1, 37, 0
1, 81868, Note_off_c, 1, 69, 0
1, 81870, Note_on_c, 1, 47, 127
1, 81870, Note_on_c, 1, 35, 127
1, 81890, Note_off_c, 1, 47, 0
1, 81890, Note_off_c, 1, 35, 0
1, 81898, Note_off_c, 1, 61, 0
1, 81900, Note_on_c, 1, 45, 127
1, 81900, Note_on_c, 1, 33, 127
1, 81900, Note_on_c, 1, 73, 127
1, 81920, Note_off_c, 1, 45, 0
1, 81920, Note_off_c, 1, 33, 0
1, 81930, Note_on_c, 1, 59, 127
1, 81930, Note_on_c, 1, 44, 127
1, 81930, Note_on_c, 1, 32, 127
1, 81950, Note_off_c, 1, 44, 0
1, 81950, Note_off_c, 1, 32, 0
1, 81958, Note_off_c, 1, 64, 0
1, 81958, Note_off_c, 1, 73, 0
1, 81958, Note_off_c, 1, 59, 0
1, 81960, Note_on_c, 1, 57, 127
1, 81960, Note_on_c, 1, 42, 127
1, 81960, Note_on_c, 1, 30, 127
1, 81960, Note_on_c, 1, 63, 127
1, 81980, Note_off_c, 1, 42, 0
1, 81980, Note_off_c, 1, 30, 0
1, 81988, Note_off_c, 1, 57, 0
1, 81988, Note_off_c, 1, 63, 0
1, 81990, Note_on_c, 1, 56, 127
1, 81990, Note_on_c, 1, 40, 127
1, 81990, Note_on_c, 1, 28, 127
1, 81990, Note_on_c, 1, 64, 127
1, 82010, Note_off_c, 1, 40, 0
1, 82010, Note_off_c, 1, 28, 0
1, 82018, Note_off_c, 1, 56, 0
1, 82018, Note_off_c, 1, 64, 0
1, 82020, Note_on_c, 1, 54, 127
1, 82020, Note_on_c, 1, 47, 127
1, 82020, Note_on_c, 1, 35, 127
1, 82020, Note_on_c, 1, 59, 127
1, 82020, Note_on_c, 1, 64, 127
1, 82020, Note_on_c, 1, 68, 127
1, 82048, Note_off_c, 1, 54, 0
1, 82050, Note_on_c, 1, 52, 127
1, 82060, Note_off_c, 1, 47, 0
1, 82060, Note_off_c, 1, 35, 0
1, 82078, Note_off_c, 1, 59, 0
1, 82078, Note_off_c, 1, 64, 0
1, 82078, Note_off_c, 1, 68, 0
1, 82078, Note_off_c, 1, 52, 0
1, 82080, Note_on_c, 1, 59, 127
1, 82080, Note_on_c, 1, 47, 127
1, 82080, Note_on_c, 1, 35, 127
1, 82080, Note_on_c, 1, 66, 127
1, 82080, Note_on_c, 1, 63, 127
1, 82080, Note_on_c, 1, 57, 127
1, 82108, Note_off_c, 1, 66, 0
1, 82110, Note_on_c, 1, 64, 127
1, 82120, Note_off_c, 1, 47, 0
1, 82120, Note_off_c, 1, 35, 0
1, 82138, Note_off_c, 1, 59, 0
1, 82138, Note_off_c, 1, 63, 0
1, 82138, Note_off_c, 1, 57, 0
1, 82138, Note_off_c, 1, 64, 0
1, 82140, Note_on_c, 1, 52, 127
1, 82140, Note_on_c, 1, 40, 127
1, 82140, Note_on_c, 1, 28, 127
1, 82140, Note_on_c, 1, 56, 127
1, 82140, Note_on_c, 1, 59, 127
1, 82140, Note_on_c, 1, 64, 127
1, 82198, Note_off_c, 1, 52, 0
1, 82220, Note_off_c, 1, 40, 0
1, 82220, Note_off_c, 1, 28, 0
1, 82258, Note_off_c, 1, 56, 0
1, 82258, Note_off_c, 1, 59, 0
1, 82258, Note_off_c, 1, 64, 0
1, 82260, Note_on_c, 1, 57, 127
1, 82318, Note_off_c, 1, 57, 0
1, 82320, Note_on_c, 1, 59, 127
1, 82378, Note_off_c, 1, 59, 0
1, 82380, Note_on_c, 1, 53, 127
1, 82440, Note_on_c, 1, 68, 127
1, 82498, Note_off_c, 1, 53, 0
1, 82498, Note_off_c, 1, 68, 0
1, 82500, Note_on_c, 1, 54, 127
1, 82500, Note_on_c, 1, 42, 127
1, 82500, Note_on_c, 1, 69, 127
1, 82540, Note_off_c, 1, 42, 0
1, 82558, Note_off_c, 1, 54, 0
1, 82558, Note_off_c, 1, 69, 0
1, 82560, Note_on_c, 1, 54, 127
1, 82560, Note_on_c, 1, 42, 127
1, 82560, Note_on_c, 1, 71, 127
1, 82590, Note_on_c, 1, 56, 127
1, 82600, Note_off_c, 1, 54, 0
1, 82600, Note_off_c, 1, 42, 0
1, 82605, Note_off_c, 1, 56, 0
1, 82605, Note_on_c, 1, 57, 127
1, 82618, Note_off_c, 1, 71, 0
1, 82620, Note_off_c, 1, 57, 0
1, 82620, Note_on_c, 1, 62, 127
1, 82680, Note_on_c, 1, 49, 127
1, 82680, Note_on_c, 1, 53, 127
1, 82680, Note_on_c, 1, 41, 127
1, 82700, Note_off_c, 1, 53, 0
1, 82700, Note_off_c, 1, 41, 0
1, 82738, Note_off_c, 1, 49, 0
1, 82740, Note_on_c, 1, 44, 127
1, 82740, Note_on_c, 1, 65, 127
1, 82780, Note_off_c, 1, 44, 0
1, 82798, Note_off_c, 1, 62, 0
1, 82800, Note_on_c, 1, 47, 127
1, 82800, Note_on_c, 1, 35, 127
1, 82828, Note_off_c, 1, 65, 0
1, 82830, Note_on_c, 1, 66, 127
1, 82840, Note_off_c, 1, 47, 0
1, 82840, Note_off_c, 1, 35, 0
1, 82845, Note_off_c, 1, 66, 0
1, 82845, Note_on_c, 1, 68, 127
1, 82860, Note_off_c, 1, 68, 0
1, 82860, Note_on_c, 1, 61, 127
1, 82860, Note_on_c, 1, 45, 127
1, 82860, Note_on_c, 1, 33, 127
1, 82888, Note_off_c, 1, 61, 0
1, 82940, Note_off_c, 1, 45, 0
1, 82940, Note_off_c, 1, 33, 0
1, 82950, Note_on_c, 1, 59, 127
1, 82978, Note_off_c, 1, 59, 0
1, 82980, Note_on_c, 1, 57, 127
1, 82980, Note_on_c, 1, 45, 127
1, 82980, Note_on_c, 1, 73, 127
1, 83010, Note_on_c, 1, 56, 127
1, 83020, Note_off_c, 1, 57, 0
1, 83020, Note_off_c, 1, 45, 0
1, 83038, Note_off_c, 1, 73, 0
1, 83038, Note_off_c, 1, 56, 0
1, 83040, Note_on_c, 1, 54, 127
1, 83040, Note_on_c, 1, 57, 127
1, 83040, Note_on_c, 1, 45, 127
1, 83040, Note_on_c, 1, 74, 127
1, 83068, Note_off_c, 1, 54, 0
1, 83070, Note_on_c, 1, 52, 127
1, 83080, Note_off_c, 1, 57, 0
1, 83080, Note_off_c, 1, 45, 0
1, 83098, Note_off_c, 1, 74, 0
1, 83098, Note_off_c, 1, 52, 0
1, 83100, Note_on_c, 1, 50, 127
1, 83100, Note_on_c, 1, 57, 127
1, 83100, Note_on_c, 1, 45, 127
1, 83100, Note_on_c, 1, 66, 127
1, 83128, Note_off_c, 1, 50, 0
1, 83130, Note_on_c, 1, 49, 127
1, 83140, Note_off_c, 1, 57, 0
1, 83140, Note_off_c, 1, 45, 0
1, 83158, Note_off_c, 1, 49, 0
1, 83160, Note_on_c, 1, 47, 127
1, 83160, Note_on_c, 1, 56, 127
1, 83160, Note_on_c, 1, 44, 127
1, 83180, Note_off_c, 1, 56, 0
1, 83180, Note_off_c, 1, 44, 0
1, 83188, Note_off_c, 1, 47, 0
1, 83218, Note_off_c, 1, 66, 0
1, 83220, Note_on_c, 1, 50, 127
1, 83220, Note_on_c, 1, 59, 127
1, 83220, Note_on_c, 1, 47, 127
1, 83220, Note_on_c, 1, 68, 127
1, 83220, Note_on_c, 1, 64, 127
1, 83260, Note_off_c, 1, 59, 0
1, 83260, Note_off_c, 1, 47, 0
1, 83278, Note_off_c, 1, 50, 0
1, 83280, Note_on_c, 1, 38, 127
1, 83308, Note_off_c, 1, 68, 0
1, 83310, Note_on_c, 1, 69, 127
1, 83320, Note_off_c, 1, 38, 0
1, 83325, Note_off_c, 1, 69, 0
1, 83325, Note_on_c, 1, 71, 127
1, 83338, Note_off_c, 1, 64, 0
1, 83340, Note_off_c, 1, 71, 0
1, 83340, Note_on_c, 1, 49, 127
1, 83340, Note_on_c, 1, 37, 127
1, 83340, Note_on_c, 1, 76, 127
1, 83368, Note_off_c, 1, 76, 0
1, 83370, Note_on_c, 1, 74, 127
1, 83398, Note_off_c, 1, 74, 0
1, 83400, Note_on_c, 1, 73, 127
1, 83420, Note_off_c, 1, 37, 0
1, 83428, Note_off_c, 1, 73, 0
1, 83458, Note_off_c, 1, 49, 0
1, 83460, Note_on_c, 1, 57, 127
1, 83460, Note_on_c, 1, 45, 127
1, 83460, Note_on_c, 1, 69, 127
1, 83490, Note_on_c, 1, 68, 127
1, 83500, Note_off_c, 1, 57, 0
1, 83500, Note_off_c, 1, 45, 0
1, 83518, Note_off_c, 1, 69, 0
1, 83518, Note_off_c, 1, 68, 0
1, 83520, Note_on_c, 1, 57, 127
1, 83520, Note_on_c, 1, 49, 127
1, 83520, Note_on_c, 1, 37, 127
1, 83520, Note_on_c, 1, 66, 127
1, 83520, Note_on_c, 1, 69, 127
1, 83548, Note_off_c, 1, 66, 0
1, 83550, Note_on_c, 1, 64, 127
1, 83560, Note_off_c, 1, 49, 0
1, 83560, Note_off_c, 1, 37, 0
1, 83578, Note_off_c, 1, 57, 0
1, 83578, Note_off_c, 1, 69, 0
1, 83578, Note_off_c, 1, 64, 0
1, 83580, Note_on_c, 1, 57, 127
1, 83580, Note_on_c, 1, 47, 127
1, 83580, Note_on_c, 1, 35, 127
1, 83580, Note_on_c, 1, 74, 127
1, 83580, Note_on_c, 1, 69, 127
1, 83580, Note_on_c, 1, 62, 127
1, 83608, Note_off_c, 1, 74, 0
1, 83610, Note_on_c, 1, 73, 127
1, 83638, Note_off_c, 1, 57, 0
1, 83638, Note_off_c, 1, 69, 0
1, 83638, Note_off_c, 1, 73, 0
1, 83640, Note_on_c, 1, 68, 127
1, 83640, Note_on_c, 1, 71, 127
1, 83660, Note_off_c, 1, 35, 0
1, 83668, Note_off_c, 1, 68, 0
1, 83668, Note_off_c, 1, 71, 0
1, 83698, Note_off_c, 1, 47, 0
1, 83698, Note_off_c, 1, 62, 0
1, 83700, Note_on_c, 1, 47, 127
1, 83700, Note_on_c, 1, 56, 127
1, 83700, Note_on_c, 1, 44, 127
1, 83700, Note_on_c, 1, 68, 127
1, 83700, Note_on_c, 1, 71, 127
1, 83728, Note_off_c, 1, 68, 0
1, 83730, Note_on_c, 1, 66, 127
1, 83740, Note_off_c, 1, 56, 0
1, 83740, Note_off_c, 1, 44, 0
1, 83758, Note_off_c, 1, 47, 0
1, 83758, Note_off_c, 1, 71, 0
1, 83758, Note_off_c, 1, 66, 0
1, 83760, Note_on_c, 1, 56, 127
1, 83760, Note_on_c, 1, 47, 127
1, 83760, Note_on_c, 1, 35, 127
1, 83760, Note_on_c, 1, 64, 127
1, 83760, Note_on_c, 1, 68, 127
1, 83760, Note_on_c, 1, 71, 127
1, 83788, Note_off_c, 1, 64, 0
1, 83790, Note_on_c, 1, 62, 127
1, 83800, Note_off_c, 1, 47, 0
1, 83800, Note_off_c, 1, 35, 0
1, 83818, Note_off_c, 1, 56, 0
1, 83818, Note_off_c, 1, 68, 0
1, 83818, Note_off_c, 1, 71, 0
1, 83818, Note_off_c, 1, 62, 0
1, 83820, Note_on_c, 1, 56, 127
1, 83820, Note_on_c, 1, 45, 127
1, 83820, Note_on_c, 1, 33, 127
1, 83820, Note_on_c, 1, 73, 127
1, 83820, Note_on_c, 1, 65, 127
1, 83820, Note_on_c, 1, 68, 127
1, 83820, Note_on_c, 1, 61, 127
1, 83848, Note_off_c, 1, 73, 0
1, 83850, Note_on_c, 1, 71, 127
1, 83878, Note_off_c, 1, 56, 0
1, 83878, Note_off_c, 1, 65, 0
1, 83878, Note_off_c, 1, 68, 0
1, 83878, Note_off_c, 1, 71, 0
1, 83880, Note_on_c, 1, 54, 127
1, 83880, Note_on_c, 1, 66, 127
1, 83880, Note_on_c, 1, 69, 127
1, 83900, Note_off_c, 1, 45, 0
1, 83900, Note_off_c, 1, 33, 0
1, 83908, Note_off_c, 1, 54, 0
1, 83908, Note_off_c, 1, 66, 0
1, 83908, Note_off_c, 1, 69, 0
1, 83910, Note_on_c, 1, 53, 127
1, 83938, Note_off_c, 1, 61, 0
1, 83938, Note_off_c, 1, 53, 0
1, 83940, Note_on_c, 1, 54, 127
1, 83940, Note_on_c, 1, 42, 127
1, 83940, Note_on_c, 1, 57, 127
1, 83940, Note_on_c, 1, 66, 127
1, 83960, Note_off_c, 1, 42, 0
1, 83970, Note_on_c, 1, 52, 127
1, 83970, Note_on_c, 1, 40, 127
1, 83990, Note_off_c, 1, 52, 0
1, 83990, Note_off_c, 1, 40, 0
1, 83998, Note_off_c, 1, 54, 0
1, 83998, Note_off_c, 1, 57, 0
1, 83998, Note_off_c, 1, 66, 0
1, 84000, Note_on_c, 1, 56, 127
1, 84000, Note_on_c, 1, 50, 127
1, 84000, Note_on_c, 1, 38, 127
1, 84000, Note_on_c, 1, 59, 127
1, 84000, Note_on_c, 1, 66, 127
1, 84020, Note_off_c, 1, 50, 0
1, 84020, Note_off_c, 1, 38, 0
1, 84028, Note_off_c, 1, 56, 0
1, 84028, Note_off_c, 1, 59, 0
1, 84030, Note_on_c, 1, 57, 127
1, 84030, Note_on_c, 1, 49, 127
1, 84030, Note_on_c, 1, 37, 127
1, 84050, Note_off_c, 1, 49, 0
1, 84050, Note_off_c, 1, 37, 0
1, 84058, Note_off_c, 1, 66, 0
1, 84058, Note_off_c, 1, 57, 0
1, 84060, Note_on_c, 1, 59, 127
1, 84060, Note_on_c, 1, 47, 127
1, 84060, Note_on_c, 1, 35, 127
1, 84060, Note_on_c, 1, 62, 127
1, 84060, Note_on_c, 1, 66, 127
1, 84080, Note_off_c, 1, 47, 0
1, 84080, Note_off_c, 1, 35, 0
1, 84088, Note_off_c, 1, 62, 0
1, 84090, Note_on_c, 1, 45, 127
1, 84090, Note_on_c, 1, 33, 127
1, 84090, Note_on_c, 1, 61, 127
1, 84110, Note_off_c, 1, 45, 0
1, 84110, Note_off_c, 1, 33, 0
1, 84118, Note_off_c, 1, 59, 0
1, 84118, Note_off_c, 1, 66, 0
1, 84118, Note_off_c, 1, 61, 0
1, 84120, Note_on_c, 1, 61, 127
1, 84120, Note_on_c, 1, 44, 127
1, 84120, Note_on_c, 1, 32, 127
1, 84120, Note_on_c, 1, 59, 127
1, 84120, Note_on_c, 1, 65, 127
1, 84140, Note_off_c, 1, 44, 0
1, 84140, Note_off_c, 1, 32, 0
1, 84148, Note_off_c, 1, 61, 0
1, 84148, Note_off_c, 1, 59, 0
1, 84148, Note_off_c, 1, 65, 0
1, 84150, Note_on_c, 1, 62, 127
1, 84150, Note_on_c, 1, 42, 127
1, 84150, Note_on_c, 1, 30, 127
1, 84150, Note_on_c, 1, 57, 127
1, 84150, Note_on_c, 1, 66, 127
1, 84170, Note_off_c, 1, 42, 0
1, 84170, Note_off_c, 1, 30, 0
1, 84178, Note_off_c, 1, 62, 0
1, 84178, Note_off_c, 1, 57, 0
1, 84178, Note_off_c, 1, 66, 0
1, 84180, Note_on_c, 1, 56, 127
1, 84180, Note_on_c, 1, 49, 127
1, 84180, Note_on_c, 1, 37, 127
1, 84180, Note_on_c, 1, 61, 127
1, 84220, Note_off_c, 1, 49, 0
1, 84220, Note_off_c, 1, 37, 0
1, 84238, Note_off_c, 1, 61, 0
1, 84240, Note_on_c, 1, 25, 127
1, 84240, Note_on_c, 1, 65, 127
1, 84280, Note_off_c, 1, 25, 0
1, 84298, Note_off_c, 1, 56, 0
1, 84298, Note_off_c, 1, 65, 0
1, 84300, Note_on_c, 1, 57, 127
1, 84300, Note_on_c, 1, 42, 127
1, 84300, Note_on_c, 1, 30, 127
1, 84300, Note_on_c, 1, 61, 127
1, 84300, Note_on_c, 1, 66, 127
1, 84360, Note_on_c, 1, 56, 127
1, 84380, Note_off_c, 1, 42, 0
1, 84380, Note_off_c, 1, 30, 0
1, 84388, Note_off_c, 1, 56, 0
1, 84418, Note_off_c, 1, 57, 0
1, 84418, Note_off_c, 1, 61, 0
1, 84418, Note_off_c, 1, 66, 0
1, 84420, Note_on_c, 1, 59, 127
1, 84420, Note_on_c, 1, 54, 127
1, 84420, Note_on_c, 1, 42, 127
1, 84420, Note_on_c, 1, 66, 127
1, 84420, Note_on_c, 1, 73, 127
1, 84448, Note_off_c, 1, 59, 0
1, 84450, Note_on_c, 1, 57, 127
1, 84460, Note_off_c, 1, 54, 0
1, 84460, Note_off_c, 1, 42, 0
1, 84478, Note_off_c, 1, 66, 0
1, 84478, Note_off_c, 1, 57, 0
1, 84480, Note_on_c, 1, 56, 127
1, 84480, Note_on_c, 1, 45, 127
1, 84480, Note_on_c, 1, 33, 127
1, 84508, Note_off_c, 1, 56, 0
1, 84520, Note_off_c, 1, 45, 0
1, 84520, Note_off_c, 1, 33, 0
1, 84538, Note_off_c, 1, 73, 0
1, 84540, Note_on_c, 1, 60, 127
1, 84540, Note_on_c, 1, 44, 127
1, 84540, Note_on_c, 1, 32, 127
1, 84540, Note_on_c, 1, 66, 127
1, 84540, Note_on_c, 1, 72, 127
1, 84570, Note_off_c, 1, 60, 0
1, 84570, Note_on_c, 1, 61, 127
1, 84598, Note_off_c, 1, 66, 0
1, 84600, Note_off_c, 1, 61, 0
1, 84600, Note_on_c, 1, 64, 127
1, 84620, Note_off_c, 1, 44, 0
1, 84620, Note_off_c, 1, 32, 0
1, 84628, Note_off_c, 1, 64, 0
1, 84630, Note_on_c, 1, 68, 127
1, 84658, Note_off_c, 1, 72, 0
1, 84658, Note_off_c, 1, 68, 0
1, 84660, Note_on_c, 1, 63, 127
1, 84660, Note_on_c, 1, 52, 127
1, 84660, Note_on_c, 1, 40, 127
1, 84660, Note_on_c, 1, 73, 127
1, 84675, Note_off_c, 1, 63, 0
1, 84700, Note_off_c, 1, 52, 0
1, 84700, Note_off_c, 1, 40, 0
1, 84778, Note_off_c, 1, 73, 0
1, 84780, Note_on_c, 1, 42, 127
1, 84780, Note_on_c, 1, 30, 127
1, 84780, Note_on_c, 1, 59, 127
1, 84780, Note_on_c, 1, 75, 127
1, 84840, Note_on_c, 1, 56, 127
1, 84860, Note_off_c, 1, 42, 0
1, 84860, Note_off_c, 1, 30, 0
1, 84898, Note_off_c, 1, 59, 0
1, 84898, Note_off_c, 1, 75, 0
1, 84898, Note_off_c, 1, 56, 0
1, 84900, Note_on_c, 1, 51, 127
1, 84900, Note_on_c, 1, 39, 127
1, 84940, Note_off_c, 1, 51, 0
1, 84940, Note_off_c, 1, 39, 0
1, 84960, Note_on_c, 1, 56, 127
1, 84960, Note_on_c, 1, 42, 127
1, 84960, Note_on_c, 1, 30, 127
1, 84960, Note_on_c, 1, 59, 127
1, 85000, Note_off_c, 1, 42, 0
1, 85000, Note_off_c, 1, 30, 0
1, 85018, Note_off_c, 1, 59, 0
1, 85020, Note_on_c, 1, 49, 127
1, 85020, Note_on_c, 1, 40, 127
1, 85020, Note_on_c, 1, 28, 127
1, 85020, Note_on_c, 1, 61, 127
1, 85048, Note_off_c, 1, 49, 0
1, 85050, Note_on_c, 1, 48, 127
1, 85078, Note_off_c, 1, 48, 0
1, 85080, Note_on_c, 1, 51, 127
1, 85100, Note_off_c, 1, 40, 0
1, 85100, Note_off_c, 1, 28, 0
1, 85108, Note_off_c, 1, 51, 0
1, 85138, Note_off_c, 1, 56, 0
1, 85138, Note_off_c, 1, 61, 0
1, 85140, Note_on_c, 1, 52, 127
1, 85140, Note_on_c, 1, 61, 127
1, 85140, Note_on_c, 1, 49, 127
1, 85140, Note_on_c, 1, 64, 127
1, 85160, Note_off_c, 1, 49, 0
1, 85168, Note_off_c, 1, 52, 0
1, 85168, Note_off_c, 1, 64, 0
1, 85170, Note_on_c, 1, 51, 127
1, 85170, Note_on_c, 1, 59, 127
1, 85170, Note_on_c, 1, 47, 127
1, 85170, Note_on_c, 1, 63, 127
1, 85190, Note_off_c, 1, 59, 0
1, 85190, Note_off_c, 1, 47, 0
1, 85198, Note_off_c, 1, 51, 0
1, 85198, Note_off_c, 1, 63, 0
1, 85200, Note_on_c, 1, 54, 127
1, 85200, Note_on_c, 1, 57, 127
1, 85200, Note_on_c, 1, 45, 127
1, 85200, Note_on_c, 1, 66, 127
1, 85220, Note_off_c, 1, 57, 0
1, 85220, Note_off_c, 1, 45, 0
1, 85228, Note_off_c, 1, 54, 0
1, 85228, Note_off_c, 1, 66, 0
1, 85230, Note_on_c, 1, 56, 127
1, 85230, Note_on_c, 1, 44, 127
1, 85250, Note_off_c, 1, 56, 0
1, 85250, Note_off_c, 1, 44, 0
1, 85260, Note_on_c, 1, 42, 127
1, 85260, Note_on_c, 1, 69, 127
1, 85280, Note_off_c, 1, 42, 0
1, 85290, Note_on_c, 1, 40, 127
1, 85310, Note_off_c, 1, 40, 0
1, 85318, Note_off_c, 1, 61, 0
1, 85318, Note_off_c, 1, 69, 0
1, 85320, Note_on_c, 1, 60, 127
1, 85320, Note_on_c, 1, 51, 127
1, 85320, Note_on_c, 1, 39, 127
1, 85320, Note_on_c, 1, 54, 127
1, 85340, Note_off_c, 1, 51, 0
1, 85340, Note_off_c, 1, 39, 0
1, 85348, Note_off_c, 1, 60, 0
1, 85348, Note_off_c, 1, 54, 0
1, 85350, Note_on_c, 1, 61, 127
1, 85350, Note_on_c, 1, 49, 127
1, 85350, Note_on_c, 1, 37, 127
1, 85350, Note_on_c, 1, 52, 127
1, 85370, Note_off_c, 1, 49, 0
1, 85370, Note_off_c, 1, 37, 0
1, 85378, Note_off_c, 1, 61, 0
1, 85378, Note_off_c, 1, 52, 0
1, 85380, Note_on_c, 1, 56, 127
1, 85380, Note_on_c, 1, 44, 127
1, 85380, Note_on_c, 1, 61, 127
1, 85380, Note_on_c, 1, 51, 127
1, 85420, Note_off_c, 1, 44, 0
1, 85438, Note_off_c, 1, 61, 0
1, 85440, Note_on_c, 1, 60, 127
1, 85440, Note_on_c, 1, 32, 127
1, 85480, Note_off_c, 1, 32, 0
1, 85498, Note_off_c, 1, 56, 0
1, 85498, Note_off_c, 1, 51, 0
1, 85498, Note_off_c, 1, 60, 0
1, 85500, Note_on_c, 1, 49, 127
1, 85500, Note_on_c, 1, 37, 127
1, 85500, Note_on_c, 1, 25, 127
1, 85500, Note_on_c, 1, 52, 127
1, 85500, Note_on_c, 1, 56, 127
1, 85500, Note_on_c, 1, 61, 127
1, 85580, Note_off_c, 1, 37, 0
1, 85580, Note_off_c, 1, 25, 0
1, 85618, Note_off_c, 1, 49, 0
1, 85618, Note_off_c, 1, 52, 0
1, 85618, Note_off_c, 1, 56, 0
1, 85618, Note_off_c, 1, 61, 0
1, 85620, Note_on_c, 1, 49, 127
1, 85620, Note_on_c, 1, 37, 127
1, 85660, Note_off_c, 1, 49, 0
1, 85660, Note_off_c, 1, 37, 0
1, 85680, Note_on_c, 1, 49, 127
1, 85680, Note_on_c, 1, 37, 127
1, 85720, Note_off_c, 1, 49, 0
1, 85720, Note_off_c, 1, 37, 0
1, 85740, Note_on_c, 1, 49, 127
1, 85740, Note_on_c, 1, 37, 127
1, 85780, Note_off_c, 1, 49, 0
1, 85780, Note_off_c, 1, 37, 0
1, 85800, Note_on_c, 1, 48, 127
1, 85800, Note_on_c, 1, 36, 127
1, 85820, Note_off_c, 1, 48, 0
1, 85820, Note_off_c, 1, 36, 0
1, 85830, Note_on_c, 1, 49, 127
1, 85830, Note_on_c, 1, 37, 127
1, 85850, Note_off_c, 1, 49, 0
1, 85850, Note_off_c, 1, 37, 0
1, 85860, Note_on_c, 1, 51, 127
1, 85860, Note_on_c, 1, 39, 127
1, 85860, Note_on_c, 1, 60, 127
1, 85890, Note_on_c, 1, 63, 127
1, 85900, Note_off_c, 1, 51, 0
1, 85900, Note_off_c, 1, 39, 0
1, 85918, Note_off_c, 1, 60, 0
1, 85918, Note_off_c, 1, 63, 0
1, 85920, Note_on_c, 1, 42, 127
1, 85920, Note_on_c, 1, 30, 127
1, 85920, Note_on_c, 1, 68, 127
1, 85920, Note_on_c, 1, 59, 127
1, 85920, Note_on_c, 1, 63, 127
1, 85948, Note_off_c, 1, 68, 0
1, 85950, Note_on_c, 1, 69, 127
1, 85960, Note_off_c, 1, 42, 0
1, 85960, Note_off_c, 1, 30, 0
1, 85978, Note_off_c, 1, 59, 0
1, 85978, Note_off_c, 1, 63, 0
1, 85978, Note_off_c, 1, 69, 0
1, 85980, Note_on_c, 1, 40, 127
1, 85980, Note_on_c, 1, 28, 127
1, 85980, Note_on_c, 1, 69, 127
1, 85980, Note_on_c, 1, 61, 127
1, 85980, Note_on_c, 1, 64, 127
1, 86038, Note_off_c, 1, 69, 0
1, 86040, Note_on_c, 1, 68, 127
1, 86060, Note_off_c, 1, 40, 0
1, 86060, Note_off_c, 1, 28, 0
1, 86068, Note_off_c, 1, 68, 0
1, 86098, Note_off_c, 1, 61, 0
1, 86098, Note_off_c, 1, 64, 0
1, 86100, Note_on_c, 1, 61, 127
1, 86100, Note_on_c, 1, 52, 127
1, 86100, Note_on_c, 1, 40, 127
1, 86140, Note_off_c, 1, 52, 0
1, 86140, Note_off_c, 1, 40, 0
1, 86158, Note_off_c, 1, 61, 0
1, 86160, Note_on_c, 1, 56, 127
1, 86160, Note_on_c, 1, 52, 127
1, 86160, Note_on_c, 1, 40, 127
1, 86200, Note_off_c, 1, 52, 0
1, 86200, Note_off_c, 1, 40, 0
1, 86218, Note_off_c, 1, 56, 0
1, 86220, Note_on_c, 1, 57, 127
1, 86220, Note_on_c, 1, 52, 127
1, 86220, Note_on_c, 1, 40, 127
1, 86260, Note_off_c, 1, 52, 0
1, 86260, Note_off_c, 1, 40, 0
1, 86278, Note_off_c, 1, 57, 0
1, 86280, Note_on_c, 1, 54, 127
1, 86280, Note_on_c, 1, 51, 127
1, 86280, Note_on_c, 1, 39, 127
1, 86300, Note_off_c, 1, 51, 0
1, 86300, Note_off_c, 1, 39, 0
1, 86310, Note_on_c, 1, 52, 127
1, 86310, Note_on_c, 1, 40, 127
1, 86330, Note_off_c, 1, 52, 0
1, 86330, Note_off_c, 1, 40, 0
1, 86338, Note_off_c, 1, 54, 0
1, 86340, Note_on_c, 1, 51, 127
1, 86340, Note_on_c, 1, 54, 127
1, 86340, Note_on_c, 1, 42, 127
1, 86340, Note_on_c, 1, 78, 127
1, 86340, Note_on_c, 1, 63, 127
1, 86368, Note_off_c, 1, 78, 0
1, 86370, Note_on_c, 1, 75, 127
1, 86380, Note_off_c, 1, 54, 0
1, 86380, Note_off_c, 1, 42, 0
1, 86398, Note_off_c, 1, 51, 0
1, 86398, Note_off_c, 1, 63, 0
1, 86398, Note_off_c, 1, 75, 0
1, 86400, Note_on_c, 1, 54, 127
1, 86400, Note_on_c, 1, 45, 127
1, 86400, Note_on_c, 1, 33, 127
1, 86400, Note_on_c, 1, 71, 127
1, 86400, Note_on_c, 1, 66, 127
1, 86400, Note_on_c, 1, 63, 127
1, 86428, Note_off_c, 1, 71, 0
1, 86430, Note_on_c, 1, 73, 127
1, 86440, Note_off_c, 1, 45, 0
1, 86440, Note_off_c, 1, 33, 0
1, 86458, Note_off_c, 1, 54, 0
1, 86458, Note_off_c, 1, 66, 0
1, 86458, Note_off_c, 1, 63, 0
1, 86458, Note_off_c, 1, 73, 0
1, 86460, Note_on_c, 1, 59, 127
1, 86460, Note_on_c, 1, 44, 127
1, 86460, Note_on_c, 1, 32, 127
1, 86460, Note_on_c, 1, 73, 127
1, 86460, Note_on_c, 1, 64, 127
1, 86488, Note_off_c, 1, 59, 0
1, 86490, Note_on_c, 1, 57, 127
1, 86518, Note_off_c, 1, 73, 0
1, 86518, Note_off_c, 1, 57, 0
1, 86520, Note_on_c, 1, 56, 127
1, 86520, Note_on_c, 1, 71, 127
1, 86540, Note_off_c, 1, 44, 0
1, 86540, Note_off_c, 1, 32, 0
1, 86548, Note_off_c, 1, 56, 0
1, 86548, Note_off_c, 1, 71, 0
1, 86550, Note_on_c, 1, 54, 127
1, 86578, Note_off_c, 1, 64, 0
1, 86578, Note_off_c, 1, 54, 0
1, 86580, Note_on_c, 1, 52, 127
1, 86580, Note_on_c, 1, 57, 127
1, 86580, Note_on_c, 1, 45, 127
1, 86580, Note_on_c, 1, 69, 127
1, 86580, Note_on_c, 1, 61, 127
1, 86620, Note_off_c, 1, 57, 0
1, 86620, Note_off_c, 1, 45, 0
1, 86638, Note_off_c, 1, 52, 0
1, 86638, Note_off_c, 1, 69, 0
1, 86640, Note_on_c, 1, 50, 127
1, 86640, Note_on_c, 1, 66, 127
1, 86668, Note_off_c, 1, 50, 0
1, 86670, Note_on_c, 1, 49, 127
1, 86698, Note_off_c, 1, 61, 0
1, 86698, Note_off_c, 1, 66, 0
1, 86698, Note_off_c, 1, 49, 0
1, 86700, Note_on_c, 1, 54, 127
1, 86700, Note_on_c, 1, 57, 127
1, 86700, Note_on_c, 1, 45, 127
1, 86700, Note_on_c, 1, 59, 127
1, 86700, Note_on_c, 1, 62, 127
1, 86758, Note_off_c, 1, 54, 0
1, 86758, Note_off_c, 1, 57, 0
1, 86758, Note_off_c, 1, 45, 0
1, 86760, Note_on_c, 1, 52, 127
1, 86760, Note_on_c, 1, 56, 127
1, 86760, Note_on_c, 1, 44, 127
1, 86788, Note_off_c, 1, 52, 0
1, 86788, Note_off_c, 1, 56, 0
1, 86788, Note_off_c, 1, 44, 0
1, 86818, Note_off_c, 1, 59, 0
1, 86818, Note_off_c, 1, 62, 0
1, 86820, Note_on_c, 1, 56, 127
1, 86820, Note_on_c, 1, 59, 127
1, 86820, Note_on_c, 1, 47, 127
1, 86820, Note_on_c, 1, 68, 127
1, 86878, Note_off_c, 1, 56, 0
1, 86878, Note_off_c, 1, 59, 0
1, 86878, Note_off_c, 1, 47, 0
1, 86878, Note_off_c, 1, 68, 0
1, 86880, Note_on_c, 1, 54, 127
1, 86880, Note_on_c, 1, 50, 127
1, 86880, Note_on_c, 1, 38, 127
1, 86880, Note_on_c, 1, 69, 127
1, 86880, Note_on_c, 1, 59, 127
1, 86908, Note_off_c, 1, 54, 0
1, 86908, Note_off_c, 1, 69, 0
1, 86910, Note_on_c, 1, 56, 127
1, 86910, Note_on_c, 1, 71, 127
1, 86938, Note_off_c, 1, 50, 0
1, 86938, Note_off_c, 1, 38, 0
1, 86938, Note_off_c, 1, 59, 0
1, 86938, Note_off_c, 1, 56, 0
1, 86938, Note_off_c, 1, 71, 0
1, 86940, Note_on_c, 1, 57, 127
1, 86940, Note_on_c, 1, 49, 127
1, 86940, Note_on_c, 1, 37, 127
1, 86940, Note_on_c, 1, 71, 127
1, 86940, Note_on_c, 1, 64, 127
1, 86998, Note_off_c, 1, 57, 0
1, 86998, Note_off_c, 1, 71, 0
1, 87000, Note_on_c, 1, 45, 127
1, 87000, Note_on_c, 1, 69, 127
1, 87058, Note_off_c, 1, 49, 0
1, 87058, Note_off_c, 1, 37, 0
1, 87058, Note_off_c, 1, 64, 0
1, 87058, Note_off_c, 1, 45, 0
1, 87058, Note_off_c, 1, 69, 0
1, 87060, Note_on_c, 1, 55, 127
1, 87060, Note_on_c, 1, 61, 127
1, 87060, Note_on_c, 1, 49, 127
1, 87060, Note_on_c, 1, 69, 127
1, 87060, Note_on_c, 1, 76, 127
1, 87060, Note_on_c, 1, 64, 127
1, 87100, Note_off_c, 1, 61, 0
1, 87100, Note_off_c, 1, 49, 0
1, 87118, Note_off_c, 1, 55, 0
1, 87118, Note_off_c, 1, 69, 0
1, 87120, Note_on_c, 1, 54, 127
1, 87120, Note_on_c, 1, 67, 127
1, 87148, Note_off_c, 1, 54, 0
1, 87150, Note_on_c, 1, 52, 127
1, 87178, Note_off_c, 1, 76, 0
1, 87178, Note_off_c, 1, 64, 0
1, 87178, Note_off_c, 1, 67, 0
1, 87178, Note_off_c, 1, 52, 0
1, 87180, Note_on_c, 1, 54, 127
1, 87180, Note_on_c, 1, 61, 127
1, 87180, Note_on_c, 1, 49, 127
1, 87180, Note_on_c, 1, 76, 127
1, 87180, Note_on_c, 1, 66, 127
1, 87238, Note_off_c, 1, 61, 0
1, 87238, Note_off_c, 1, 49, 0
1, 87238, Note_off_c, 1, 76, 0
1, 87240, Note_on_c, 1, 59, 127
1, 87240, Note_on_c, 1, 47, 127
1, 87240, Note_on_c, 1, 74, 127
1, 87268, Note_off_c, 1, 59, 0
1, 87268, Note_off_c, 1, 47, 0
1, 87268, Note_off_c, 1, 74, 0
1, 87270, Note_on_c, 1, 73, 127
1, 87298, Note_off_c, 1, 66, 0
1, 87298, Note_off_c, 1, 73, 0
1, 87300, Note_on_c, 1, 62, 127
1, 87300, Note_on_c, 1, 50, 127
1, 87300, Note_on_c, 1, 71, 127
1, 87300, Note_on_c, 1, 78, 127
1, 87328, Note_off_c, 1, 54, 0
1, 87358, Note_off_c, 1, 62, 0
1, 87358, Note_off_c, 1, 50, 0
1, 87358, Note_off_c, 1, 71, 0
1, 87358, Note_off_c, 1, 78, 0
1, 87360, Note_on_c, 1, 49, 127
1, 87360, Note_on_c, 1, 54, 127
1, 87360, Note_on_c, 1, 42, 127
1, 87360, Note_on_c, 1, 64, 127
1, 87360, Note_on_c, 1, 69, 127
1, 87388, Note_off_c, 1, 49, 0
1, 87390, Note_on_c, 1, 50, 127
1, 87418, Note_off_c, 1, 54, 0
1, 87418, Note_off_c, 1, 42, 0
1, 87418, Note_off_c, 1, 64, 0
1, 87418, Note_off_c, 1, 69, 0
1, 87418, Note_off_c, 1, 50, 0
1, 87420, Note_on_c, 1, 57, 127
1, 87420, Note_on_c, 1, 52, 127
1, 87420, Note_on_c, 1, 40, 127
1, 87420, Note_on_c, 1, 69, 127
1, 87420, Note_on_c, 1, 62, 127
1, 87420, Note_on_c, 1, 71, 127
1, 87448, Note_off_c, 1, 57, 0
1, 87450, Note_on_c, 1, 56, 127
1, 87478, Note_off_c, 1, 69, 0
1, 87478, Note_off_c, 1, 56, 0
1, 87480, Note_on_c, 1, 54, 127
1, 87480, Note_on_c, 1, 68, 127
1, 87508, Note_off_c, 1, 54, 0
1, 87538, Note_off_c, 1, 52, 0
1, 87538, Note_off_c, 1, 40, 0
1, 87538, Note_off_c, 1, 62, 0
1, 87538, Note_off_c, 1, 71, 0
1, 87538, Note_off_c, 1, 68, 0
1, 87540, Note_on_c, 1, 57, 127
1, 87540, Note_on_c, 1, 61, 127
1, 87540, Note_on_c, 1, 49, 127
1, 87540, Note_on_c, 1, 69, 127
1, 87568, Note_off_c, 1, 69, 0
1, 87570, Note_on_c, 1, 59, 127
1, 87570, Note_on_c, 1, 68, 127
1, 87580, Note_off_c, 1, 61, 0
1, 87580, Note_off_c, 1, 49, 0
1, 87598, Note_off_c, 1, 57, 0
1, 87598, Note_off_c, 1, 59, 0
1, 87598, Note_off_c, 1, 68, 0
1, 87600, Note_on_c, 1, 61, 127
1, 87600, Note_on_c, 1, 52, 127
1, 87600, Note_on_c, 1, 40, 127
1, 87600, Note_on_c, 1, 66, 127
1, 87600, Note_on_c, 1, 57, 127
1, 87628, Note_off_c, 1, 66, 0
1, 87630, Note_on_c, 1, 64, 127
1, 87640, Note_off_c, 1, 52, 0
1, 87640, Note_off_c, 1, 40, 0
1, 87658, Note_off_c, 1, 61, 0
1, 87658, Note_off_c, 1, 57, 0
1, 87658, Note_off_c, 1, 64, 0
1, 87660, Note_on_c, 1, 61, 127
1, 87660, Note_on_c, 1, 50, 127
1, 87660, Note_on_c, 1, 38, 127
1, 87660, Note_on_c, 1, 57, 127
1, 87660, Note_on_c, 1, 64, 127
1, 87718, Note_off_c, 1, 61, 0
1, 87718, Note_off_c, 1, 57, 0
1, 87720, Note_on_c, 1, 59, 127
1, 87720, Note_on_c, 1, 56, 127
1, 87740, Note_off_c, 1, 50, 0
1, 87740, Note_off_c, 1, 38, 0
1, 87778, Note_off_c, 1, 64, 0
1, 87778, Note_off_c, 1, 59, 0
1, 87778, Note_off_c, 1, 56, 0
1, 87780, Note_on_c, 1, 59, 127
1, 87780, Note_on_c, 1, 47, 127
1, 87780, Note_on_c, 1, 71, 127
1, 87780, Note_on_c, 1, 56, 127
1, 87808, Note_off_c, 1, 71, 0
1, 87810, Note_on_c, 1, 68, 127
1, 87820, Note_off_c, 1, 47, 0
1, 87838, Note_off_c, 1, 59, 0
1, 87838, Note_off_c, 1, 56, 0
1, 87838, Note_off_c, 1, 68, 0
1, 87840, Note_on_c, 1, 50, 127
1, 87840, Note_on_c, 1, 38, 127
1, 87840, Note_on_c, 1, 66, 127
1, 87840, Note_on_c, 1, 59, 127
1, 87840, Note_on_c, 1, 56, 127
1, 87868, Note_off_c, 1, 66, 0
1, 87870, Note_on_c, 1, 64, 127
1, 87880, Note_off_c, 1, 50, 0
1, 87880, Note_off_c, 1, 38, 0
1, 87898, Note_off_c, 1, 59, 0
1, 87898, Note_off_c, 1, 56, 0
1, 87898, Note_off_c, 1, 64, 0
1, 87900, Note_on_c, 1, 49, 127
1, 87900, Note_on_c, 1, 37, 127
1, 87900, Note_on_c, 1, 56, 127
1, 87900, Note_on_c, 1, 59, 127
1, 87900, Note_on_c, 1, 64, 127
1, 87958, Note_off_c, 1, 56, 0
1, 87958, Note_off_c, 1, 59, 0
1, 87960, Note_on_c, 1, 57, 127
1, 87980, Note_off_c, 1, 49, 0
1, 87980, Note_off_c, 1, 37, 0
1, 88018, Note_off_c, 1, 64, 0
1, 88018, Note_off_c, 1, 57, 0
1, 88020, Note_on_c, 1, 61, 127
1, 88020, Note_on_c, 1, 57, 127
1, 88020, Note_on_c, 1, 45, 127
1, 88020, Note_on_c, 1, 69, 127
1, 88040, Note_off_c, 1, 57, 0
1, 88040, Note_off_c, 1, 45, 0
1, 88048, Note_off_c, 1, 61, 0
1, 88050, Note_on_c, 1, 59, 127
1, 88050, Note_on_c, 1, 56, 127
1, 88050, Note_on_c, 1, 44, 127
1, 88070, Note_off_c, 1, 56, 0
1, 88070, Note_off_c, 1, 44, 0
1, 88078, Note_off_c, 1, 69, 0
1, 88078, Note_off_c, 1, 59, 0
1, 88080, Note_on_c, 1, 62, 127
1, 88080, Note_on_c, 1, 54, 127
1, 88080, Note_on_c, 1, 42, 127
1, 88080, Note_on_c, 1, 74, 127
1, 88100, Note_off_c, 1, 54, 0
1, 88100, Note_off_c, 1, 42, 0
1, 88108, Note_off_c, 1, 62, 0
1, 88108, Note_off_c, 1, 74, 0
1, 88110, Note_on_c, 1, 61, 127
1, 88110, Note_on_c, 1, 52, 127
1, 88110, Note_on_c, 1, 40, 127
1, 88110, Note_on_c, 1, 73, 127
1, 88130, Note_off_c, 1, 52, 0
1, 88130, Note_off_c, 1, 40, 0
1, 88138, Note_off_c, 1, 61, 0
1, 88138, Note_off_c, 1, 73, 0
1, 88140, Note_on_c, 1, 59, 127
1, 88140, Note_on_c, 1, 50, 127
1, 88140, Note_on_c, 1, 38, 127
1, 88140, Note_on_c, 1, 69, 127
1, 88140, Note_on_c, 1, 66, 127
1, 88160, Note_off_c, 1, 50, 0
1, 88160, Note_off_c, 1, 38, 0
1, 88168, Note_off_c, 1, 59, 0
1, 88170, Note_on_c, 1, 57, 127
1, 88170, Note_on_c, 1, 49, 127
1, 88170, Note_on_c, 1, 37, 127
1, 88190, Note_off_c, 1, 49, 0
1, 88190, Note_off_c, 1, 37, 0
1, 88198, Note_off_c, 1, 69, 0
1, 88198, Note_off_c, 1, 66, 0
1, 88198, Note_off_c, 1, 57, 0
1, 88200, Note_on_c, 1, 56, 127
1, 88200, Note_on_c, 1, 47, 127
1, 88200, Note_on_c, 1, 35, 127
1, 88200, Note_on_c, 1, 62, 127
1, 88200, Note_on_c, 1, 68, 127
1, 88220, Note_off_c, 1, 47, 0
1, 88220, Note_off_c, 1, 35, 0
1, 88228, Note_off_c, 1, 56, 0
1, 88228, Note_off_c, 1, 62, 0
1, 88228, Note_off_c, 1, 68, 0
1, 88230, Note_on_c, 1, 57, 127
1, 88230, Note_on_c, 1, 45, 127
1, 88230, Note_on_c, 1, 33, 127
1, 88230, Note_on_c, 1, 61, 127
1, 88230, Note_on_c, 1, 69, 127
1, 88250, Note_off_c, 1, 45, 0
1, 88250, Note_off_c, 1, 33, 0
1, 88258, Note_off_c, 1, 57, 0
1, 88258, Note_off_c, 1, 61, 0
1, 88258, Note_off_c, 1, 69, 0
1, 88260, Note_on_c, 1, 52, 127
1, 88260, Note_on_c, 1, 40, 127
1, 88260, Note_on_c, 1, 59, 127
1, 88260, Note_on_c, 1, 69, 127
1, 88260, Note_on_c, 1, 64, 127
1, 88300, Note_off_c, 1, 40, 0
1, 88318, Note_off_c, 1, 59, 0
1, 88318, Note_off_c, 1, 69, 0
1, 88320, Note_on_c, 1, 28, 127
1, 88320, Note_on_c, 1, 62, 127
1, 88320, Note_on_c, 1, 68, 127
1, 88360, Note_off_c, 1, 28, 0
1, 88378, Note_off_c, 1, 52, 0
1, 88378, Note_off_c, 1, 64, 0
1, 88378, Note_off_c, 1, 62, 0
1, 88378, Note_off_c, 1, 68, 0
1, 88380, Note_on_c, 1, 45, 127
1, 88380, Note_on_c, 1, 33, 127
1, 88380, Note_on_c, 1, 61, 127
1, 88380, Note_on_c, 1, 64, 127
1, 88380, Note_on_c, 1, 69, 127
1, 88460, Note_off_c, 1, 33, 0
1, 88498, Note_off_c, 1, 45, 0
1, 88498, Note_off_c, 1, 61, 0
1, 88498, Note_off_c, 1, 64, 0
1, 88498, Note_off_c, 1, 69, 0
1, 88500, Note_on_c, 1, 57, 127
1, 88500, Note_on_c, 1, 45, 127
1, 88540, Note_off_c, 1, 57, 0
1, 88540, Note_off_c, 1, 45, 0
1, 88560, Note_on_c, 1, 57, 127
1, 88560, Note_on_c, 1, 45, 127
1, 88600, Note_off_c, 1, 57, 0
1, 88600, Note_off_c, 1, 45, 0
1, 88620, Note_on_c, 1, 57, 127
1, 88620, Note_on_c, 1, 45, 127
1, 88678, Note_off_c, 1, 57, 0
1, 88678, Note_off_c, 1, 45, 0
1, 88680, Note_on_c, 1, 56, 127
1, 88680, Note_on_c, 1, 44, 127
1, 88708, Note_off_c, 1, 56, 0
1, 88708, Note_off_c, 1, 44, 0
1, 88710, Note_on_c, 1, 57, 127
1, 88710, Note_on_c, 1, 45, 127
1, 88738, Note_off_c, 1, 57, 0
1, 88738, Note_off_c, 1, 45, 0
1, 88740, Note_on_c, 1, 59, 127
1, 88740, Note_on_c, 1, 47, 127
1, 88740, Note_on_c, 1, 64, 127
1, 88740, Note_on_c, 1, 68, 127
1, 88798, Note_off_c, 1, 59, 0
1, 88798, Note_off_c, 1, 47, 0
1, 88798, Note_off_c, 1, 64, 0
1, 88798, Note_off_c, 1, 68, 0
1, 88800, Note_on_c, 1, 50, 127
1, 88800, Note_on_c, 1, 38, 127
1, 88800, Note_on_c, 1, 69, 127
1, 88800, Note_on_c, 1, 64, 127
1, 88828, Note_off_c, 1, 69, 0
1, 88830, Note_on_c, 1, 71, 127
1, 88858, Note_off_c, 1, 50, 0
1, 88858, Note_off_c, 1, 38, 0
1, 88858, Note_off_c, 1, 64, 0
1, 88858, Note_off_c, 1, 71, 0
1, 88860, Note_on_c, 1, 49, 127
1, 88860, Note_on_c, 1, 37, 127
1, 88860, Note_on_c, 1, 71, 127
1, 88860, Note_on_c, 1, 64, 127
1, 88918, Note_off_c, 1, 71, 0
1, 88920, Note_on_c, 1, 69, 127
1, 88948, Note_off_c, 1, 69, 0
1, 88978, Note_off_c, 1, 49, 0
1, 88978, Note_off_c, 1, 37, 0
1, 88978, Note_off_c, 1, 64, 0
1, 88980, Note_on_c, 1, 61, 127
1, 88980, Note_on_c, 1, 49, 127
1, 88980, Note_on_c, 1, 64, 127
1, 88980, Note_on_c, 1, 73, 127
1, 88980, Note_on_c, 1, 76, 127
1, 89020, Note_off_c, 1, 61, 0
1, 89020, Note_off_c, 1, 49, 0
1, 89038, Note_off_c, 1, 64, 0
1, 89038, Note_off_c, 1, 73, 0
1, 89038, Note_off_c, 1, 76, 0
1, 89040, Note_on_c, 1, 61, 127
1, 89040, Note_on_c, 1, 49, 127
1, 89040, Note_on_c, 1, 64, 127
1, 89040, Note_on_c, 1, 68, 127
1, 89040, Note_on_c, 1, 76, 127
1, 89080, Note_off_c, 1, 61, 0
1, 89080, Note_off_c, 1, 49, 0
1, 89098, Note_off_c, 1, 64, 0
1, 89098, Note_off_c, 1, 68, 0
1, 89098, Note_off_c, 1, 76, 0
1, 89100, Note_on_c, 1, 61, 127
1, 89100, Note_on_c, 1, 49, 127
1, 89100, Note_on_c, 1, 76, 127
1, 89100, Note_on_c, 1, 66, 127
1, 89158, Note_off_c, 1, 61, 0
1, 89158, Note_off_c, 1, 49, 0
1, 89158, Note_off_c, 1, 76, 0
1, 89160, Note_on_c, 1, 59, 127
1, 89160, Note_on_c, 1, 47, 127
1, 89160, Note_on_c, 1, 74, 127
1, 89188, Note_off_c, 1, 59, 0
1, 89188, Note_off_c, 1, 47, 0
1, 89188, Note_off_c, 1, 74, 0
1, 89190, Note_on_c, 1, 73, 127
1, 89218, Note_off_c, 1, 66, 0
1, 89218, Note_off_c, 1, 73, 0
1, 89220, Note_on_c, 1, 62, 127
1, 89220, Note_on_c, 1, 50, 127
1, 89220, Note_on_c, 1, 71, 127
1, 89220, Note_on_c, 1, 66, 127
1, 89220, Note_on_c, 1, 78, 127
1, 89278, Note_off_c, 1, 62, 0
1, 89278, Note_off_c, 1, 50, 0
1, 89278, Note_off_c, 1, 71, 0
1, 89278, Note_off_c, 1, 66, 0
1, 89278, Note_off_c, 1, 78, 0
1, 89280, Note_on_c, 1, 54, 127
1, 89280, Note_on_c, 1, 42, 127
1, 89280, Note_on_c, 1, 62, 127
1, 89280, Note_on_c, 1, 69, 127
1, 89338, Note_off_c, 1, 54, 0
1, 89338, Note_off_c, 1, 42, 0
1, 89338, Note_off_c, 1, 62, 0
1, 89338, Note_off_c, 1, 69, 0
1, 89340, Note_on_c, 1, 52, 127
1, 89340, Note_on_c, 1, 40, 127
1, 89340, Note_on_c, 1, 69, 127
1, 89340, Note_on_c, 1, 62, 127
1, 89398, Note_off_c, 1, 69, 0
1, 89400, Note_on_c, 1, 68, 127
1, 89458, Note_off_c, 1, 52, 0
1, 89458, Note_off_c, 1, 40, 0
1, 89458, Note_off_c, 1, 62, 0
1, 89458, Note_off_c, 1, 68, 0
1, 89460, Note_on_c, 1, 61, 127
1, 89460, Note_on_c, 1, 49, 127
1, 89460, Note_on_c, 1, 57, 127
1, 89488, Note_off_c, 1, 57, 0
1, 89500, Note_off_c, 1, 49, 0
1, 89518, Note_off_c, 1, 61, 0
1, 89520, Note_on_c, 1, 52, 127
1, 89520, Note_on_c, 1, 40, 127
1, 89520, Note_on_c, 1, 64, 127
1, 89520, Note_on_c, 1, 69, 127
1, 89520, Note_on_c, 1, 73, 127
1, 89548, Note_off_c, 1, 64, 0
1, 89550, Note_on_c, 1, 66, 127
1, 89560, Note_off_c, 1, 52, 0
1, 89560, Note_off_c, 1, 40, 0
1, 89578, Note_off_c, 1, 69, 0
1, 89578, Note_off_c, 1, 73, 0
1, 89578, Note_off_c, 1, 66, 0
1, 89580, Note_on_c, 1, 50, 127
1, 89580, Note_on_c, 1, 38, 127
1, 89580, Note_on_c, 1, 66, 127
1, 89580, Note_on_c, 1, 68, 127
1, 89580, Note_on_c, 1, 71, 127
1, 89638, Note_off_c, 1, 66, 0
1, 89640, Note_on_c, 1, 64, 127
1, 89660, Note_off_c, 1, 50, 0
1, 89660, Note_off_c, 1, 38, 0
1, 89698, Note_off_c, 1, 68, 0
1, 89698, Note_off_c, 1, 71, 0
1, 89698, Note_off_c, 1, 64, 0
1, 89700, Note_on_c, 1, 59, 127
1, 89700, Note_on_c, 1, 47, 127
1, 89700, Note_on_c, 1, 56, 127
1, 89728, Note_off_c, 1, 56, 0
1, 89740, Note_off_c, 1, 47, 0
1, 89758, Note_off_c, 1, 59, 0
1, 89760, Note_on_c, 1, 50, 127
1, 89760, Note_on_c, 1, 38, 127
1, 89760, Note_on_c, 1, 64, 127
1, 89760, Note_on_c, 1, 68, 127
1, 89760, Note_on_c, 1, 71, 127
1, 89788, Note_off_c, 1, 64, 0
1, 89790, Note_on_c, 1, 66, 127
1, 89800, Note_off_c, 1, 50, 0
1, 89800, Note_off_c, 1, 38, 0
1, 89818, Note_off_c, 1, 68, 0
1, 89818, Note_off_c, 1, 71, 0
1, 89818, Note_off_c, 1, 66, 0
1, 89820, Note_on_c, 1, 49, 127
1, 89820, Note_on_c, 1, 37, 127
1, 89820, Note_on_c, 1, 66, 127
1, 89820, Note_on_c, 1, 69, 127
1, 89820, Note_on_c, 1, 73, 127
1, 89878, Note_off_c, 1, 66, 0
1, 89880, Note_on_c, 1, 64, 127
1, 89900, Note_off_c, 1, 49, 0
1, 89900, Note_off_c, 1, 37, 0
1, 89938, Note_off_c, 1, 69, 0
1, 89938, Note_off_c, 1, 73, 0
1, 89938, Note_off_c, 1, 64, 0
1, 89940, Note_on_c, 1, 57, 127
1, 89940, Note_on_c, 1, 45, 127
1, 89940, Note_on_c, 1, 61, 127
1, 89940, Note_on_c, 1, 69, 127
1, 89960, Note_off_c, 1, 57, 0
1, 89960, Note_off_c, 1, 45, 0
1, 89970, Note_on_c, 1, 56, 127
1, 89970, Note_on_c, 1, 44, 127
1, 89990, Note_off_c, 1, 56, 0
1, 89990, Note_off_c, 1, 44, 0
1, 89998, Note_off_c, 1, 61, 0
1, 90000, Note_on_c, 1, 54, 127
1, 90000, Note_on_c, 1, 42, 127
1, 90000, Note_on_c, 1, 62, 127
1, 90020, Note_off_c, 1, 54, 0
1, 90020, Note_off_c, 1, 42, 0
1, 90028, Note_off_c, 1, 62, 0
1, 90030, Note_on_c, 1, 52, 127
1, 90030, Note_on_c, 1, 40, 127
1, 90050, Note_off_c, 1, 52, 0
1, 90050, Note_off_c, 1, 40, 0
1, 90060, Note_on_c, 1, 50, 127
1, 90060, Note_on_c, 1, 38, 127
1, 90060, Note_on_c, 1, 66, 127
1, 90080, Note_off_c, 1, 50, 0
1, 90080, Note_off_c, 1, 38, 0
1, 90088, Note_off_c, 1, 66, 0
1, 90090, Note_on_c, 1, 49, 127
1, 90090, Note_on_c, 1, 37, 127
1, 90090, Note_on_c, 1, 64, 127
1, 90110, Note_off_c, 1, 49, 0
1, 90110, Note_off_c, 1, 37, 0
1, 90118, Note_off_c, 1, 69, 0
1, 90118, Note_off_c, 1, 64, 0
1, 90120, Note_on_c, 1, 47, 127
1, 90120, Note_on_c, 1, 35, 127
1, 90120, Note_on_c, 1, 68, 127
1, 90120, Note_on_c, 1, 62, 127
1, 90140, Note_off_c, 1, 47, 0
1, 90140, Note_off_c, 1, 35, 0
1, 90148, Note_off_c, 1, 68, 0
1, 90148, Note_off_c, 1, 62, 0
1, 90150, Note_on_c, 1, 45, 127
1, 90150, Note_on_c, 1, 33, 127
1, 90150, Note_on_c, 1, 69, 127
1, 90150, Note_on_c, 1, 61, 127
1, 90170, Note_off_c, 1, 45, 0
1, 90170, Note_off_c, 1, 33, 0
1, 90178, Note_off_c, 1, 69, 0
1, 90178, Note_off_c, 1, 61, 0
1, 90180, Note_on_c, 1, 52, 127
1, 90180, Note_on_c, 1, 40, 127
1, 90180, Note_on_c, 1, 73, 127
1, 90180, Note_on_c, 1, 69, 127
1, 90180, Note_on_c, 1, 64, 127
1, 90220, Note_off_c, 1, 52, 0
1, 90220, Note_off_c, 1, 40, 0
1, 90238, Note_off_c, 1, 73, 0
1, 90238, Note_off_c, 1, 69, 0
1, 90238, Note_off_c, 1, 64, 0
1, 90240, Note_on_c, 1, 40, 127
1, 90240, Note_on_c, 1, 28, 127
1, 90240, Note_on_c, 1, 71, 127
1, 90240, Note_on_c, 1, 62, 127
1, 90240, Note_on_c, 1, 64, 127
1, 90268, Note_off_c, 1, 71, 0
1, 90270, Note_on_c, 1, 69, 127
1, 90280, Note_off_c, 1, 40, 0
1, 90280, Note_off_c, 1, 28, 0
1, 90298, Note_off_c, 1, 62, 0
1, 90298, Note_off_c, 1, 64, 0
1, 90298, Note_off_c, 1, 69, 0
1, 90300, Note_on_c, 1, 45, 127
1, 90300, Note_on_c, 1, 33, 127
1, 90300, Note_on_c, 1, 57, 127
1, 90300, Note_on_c, 1, 69, 127
1, 90300, Note_on_c, 1, 64, 127
1, 90300, Note_on_c, 1, 61, 127
1, 90380, Note_off_c, 1, 45, 0
1, 90380, Note_off_c, 1, 33, 0
1, 90418, Note_off_c, 1, 57, 0
1, 90418, Note_off_c, 1, 69, 0
1, 90418, Note_off_c, 1, 64, 0
1, 90418, Note_off_c, 1, 61, 0
1, 91260, Note_on_c, 1, 71, 127
1, 91260, Note_on_c, 1, 67, 127
1, 91260, Note_on_c, 1, 64, 127
1, 91260, Note_on_c, 1, 52, 127
1, 91260, Note_on_c, 1, 40, 127
1, 91377, Note_off_c, 1, 71, 0
1, 91377, Note_off_c, 1, 67, 0
1, 91377, Note_off_c, 1, 52, 0
1, 91377, Note_off_c, 1, 40, 0
1, 91380, Note_on_c, 1, 69, 127
1, 91380, Note_on_c, 1, 66, 127
1, 91380, Note_on_c, 1, 28, 127
1, 91437, Note_off_c, 1, 69, 0
1, 91437, Note_off_c, 1, 66, 0
1, 91437, Note_off_c, 1, 28, 0
1, 91440, Note_on_c, 1, 72, 127
1, 91497, Note_off_c, 1, 64, 0
1, 91500, Note_on_c, 1, 62, 127
1, 91557, Note_off_c, 1, 62, 0
1, 91560, Note_off_c, 1, 72, 0
1, 91560, Note_on_c, 1, 60, 127
1, 91617, Note_off_c, 1, 60, 0
1, 91620, Note_on_c, 1, 69, 127
1, 91620, Note_on_c, 1, 66, 127
1, 91620, Note_on_c, 1, 60, 127
1, 91620, Note_on_c, 1, 52, 127
1, 91620, Note_on_c, 1, 40, 127
1, 91677, Note_off_c, 1, 60, 0
1, 91680, Note_on_c, 1, 71, 127
1, 91680, Note_on_c, 1, 67, 127
1, 91680, Note_on_c, 1, 59, 127
1, 91737, Note_off_c, 1, 69, 0
1, 91737, Note_off_c, 1, 66, 0
1, 91737, Note_off_c, 1, 52, 0
1, 91737, Note_off_c, 1, 40, 0
1, 91737, Note_off_c, 1, 71, 0
1, 91737, Note_off_c, 1, 67, 0
1, 91737, Note_off_c, 1, 59, 0
1, 91740, Note_on_c, 1, 72, 127
1, 91740, Note_on_c, 1, 69, 127
1, 91740, Note_on_c, 1, 57, 127
1, 91740, Note_on_c, 1, 40, 127
1, 91740, Note_on_c, 1, 28, 127
1, 91797, Note_off_c, 1, 72, 0
1, 91797, Note_off_c, 1, 69, 0
1, 91797, Note_off_c, 1, 57, 0
1, 91797, Note_off_c, 1, 40, 0
1, 91797, Note_off_c, 1, 28, 0
1, 91800, Note_on_c, 1, 72, 127
1, 91800, Note_on_c, 1, 69, 127
1, 91800, Note_on_c, 1, 64, 127
1, 91800, Note_on_c, 1, 40, 127
1, 91800, Note_on_c, 1, 28, 127
1, 91857, Note_off_c, 1, 64, 0
1, 91860, Note_on_c, 1, 63, 127
1, 91917, Note_off_c, 1, 40, 0
1, 91917, Note_off_c, 1, 28, 0
1, 91917, Note_off_c, 1, 63, 0
1, 91920, Note_on_c, 1, 52, 127
1, 91977, Note_off_c, 1, 52, 0
1, 91980, Note_on_c, 1, 66, 127
1, 91980, Note_on_c, 1, 51, 127
1, 91980, Note_on_c, 1, 39, 127
1, 92038, Note_off_c, 1, 72, 0
1, 92038, Note_off_c, 1, 69, 0
1, 92040, Note_on_c, 1, 71, 127
1, 92040, Note_on_c, 1, 67, 127
1, 92097, Note_off_c, 1, 51, 0
1, 92097, Note_off_c, 1, 39, 0
1, 92097, Note_off_c, 1, 71, 0
1, 92097, Note_off_c, 1, 67, 0
1, 92100, Note_on_c, 1, 27, 127
1, 92157, Note_off_c, 1, 66, 0
1, 92157, Note_off_c, 1, 27, 0
1, 92160, Note_on_c, 1, 78, 127
1, 92160, Note_on_c, 1, 69, 127
1, 92160, Note_on_c, 1, 59, 127
1, 92160, Note_on_c, 1, 39, 127
1, 92160, Note_on_c, 1, 27, 127
1, 92160, Note_on_c, 1, 66, 127
1, 92217, Note_off_c, 1, 78, 0
1, 92220, Note_on_c, 1, 71, 127
1, 92220, Note_on_c, 1, 67, 127
1, 92277, Note_off_c, 1, 69, 0
1, 92277, Note_off_c, 1, 39, 0
1, 92277, Note_off_c, 1, 27, 0
1, 92277, Note_off_c, 1, 66, 0
1, 92277, Note_off_c, 1, 71, 0
1, 92277, Note_off_c, 1, 67, 0
1, 92280, Note_on_c, 1, 51, 127
1, 92337, Note_off_c, 1, 51, 0
1, 92340, Note_on_c, 1, 68, 127
1, 92340, Note_on_c, 1, 64, 127
1, 92340, Note_on_c, 1, 50, 127
1, 92340, Note_on_c, 1, 38, 127
1, 92397, Note_off_c, 1, 68, 0
1, 92397, Note_off_c, 1, 64, 0
1, 92457, Note_off_c, 1, 59, 0
1, 92457, Note_off_c, 1, 50, 0
1, 92457, Note_off_c, 1, 38, 0
1, 92460, Note_on_c, 1, 71, 127
1, 92460, Note_on_c, 1, 68, 127
1, 92460, Note_on_c, 1, 64, 127
1, 92460, Note_on_c, 1, 38, 127
1, 92460, Note_on_c, 1, 26, 127
1, 92517, Note_off_c, 1, 71, 0
1, 92517, Note_off_c, 1, 68, 0
1, 92517, Note_off_c, 1, 64, 0
1, 92517, Note_off_c, 1, 38, 0
1, 92517, Note_off_c, 1, 26, 0
1, 92520, Note_on_c, 1, 71, 127
1, 92520, Note_on_c, 1, 68, 127
1, 92520, Note_on_c, 1, 64, 127
1, 92520, Note_on_c, 1, 38, 127
1, 92520, Note_on_c, 1, 26, 127
1, 92577, Note_off_c, 1, 64, 0
1, 92580, Note_on_c, 1, 62, 127
1, 92637, Note_off_c, 1, 38, 0
1, 92637, Note_off_c, 1, 26, 0
1, 92637, Note_off_c, 1, 62, 0
1, 92640, Note_on_c, 1, 50, 127
1, 92697, Note_off_c, 1, 50, 0
1, 92700, Note_on_c, 1, 48, 127
1, 92700, Note_on_c, 1, 36, 127
1, 92760, Note_off_c, 1, 71, 0
1, 92760, Note_off_c, 1, 68, 0
1, 92760, Note_on_c, 1, 69, 127
1, 92817, Note_off_c, 1, 48, 0
1, 92817, Note_off_c, 1, 36, 0
1, 92817, Note_off_c, 1, 69, 0
1, 92820, Note_on_c, 1, 24, 127
1, 92877, Note_off_c, 1, 24, 0
1, 92880, Note_on_c, 1, 76, 127
1, 92937, Note_off_c, 1, 76, 0
1, 92940, Note_on_c, 1, 66, 127
1, 92940, Note_on_c, 1, 63, 127
1, 92997, Note_off_c, 1, 66, 0
1, 92997, Note_off_c, 1, 63, 0
1, 93000, Note_on_c, 1, 67, 127
1, 93057, Note_off_c, 1, 67, 0
1, 93060, Note_on_c, 1, 69, 127
1, 93060, Note_on_c, 1, 63, 127
1, 93060, Note_on_c, 1, 66, 127
1, 93060, Note_on_c, 1, 47, 127
1, 93060, Note_on_c, 1, 35, 127
1, 93117, Note_off_c, 1, 69, 0
1, 93120, Note_on_c, 1, 67, 127
1, 93177, Note_off_c, 1, 63, 0
1, 93177, Note_off_c, 1, 66, 0
1, 93177, Note_off_c, 1, 47, 0
1, 93177, Note_off_c, 1, 35, 0
1, 93177, Note_off_c, 1, 67, 0
1, 93180, Note_on_c, 1, 66, 127
1, 93180, Note_on_c, 1, 63, 127
1, 93180, Note_on_c, 1, 59, 127
1, 93180, Note_on_c, 1, 47, 127
1, 93237, Note_off_c, 1, 66, 0
1, 93237, Note_off_c, 1, 63, 0
1, 93237, Note_off_c, 1, 59, 0
1, 93237, Note_off_c, 1, 47, 0
1, 93240, Note_on_c, 1, 75, 127
1, 93240, Note_on_c, 1, 69, 127
1, 93240, Note_on_c, 1, 59, 127
1, 93240, Note_on_c, 1, 47, 127
1, 93297, Note_off_c, 1, 75, 0
1, 93300, Note_on_c, 1, 76, 127
1, 93357, Note_off_c, 1, 69, 0
1, 93357, Note_off_c, 1, 59, 0
1, 93357, Note_off_c, 1, 47, 0
1, 93357, Note_off_c, 1, 76, 0
1, 93360, Note_on_c, 1, 78, 127
1, 93360, Note_on_c, 1, 72, 127
1, 93360, Note_on_c, 1, 69, 127
1, 93360, Note_on_c, 1, 51, 127
1, 93360, Note_on_c, 1, 39, 127
1, 93417, Note_off_c, 1, 78, 0
1, 93417, Note_off_c, 1, 72, 0
1, 93417, Note_off_c, 1, 69, 0
1, 93417, Note_off_c, 1, 51, 0
1, 93417, Note_off_c, 1, 39, 0
1, 93420, Note_on_c, 1, 67, 127
1, 93420, Note_on_c, 1, 71, 127
1, 93420, Note_on_c, 1, 52, 127
1, 93420, Note_on_c, 1, 40, 127
1, 93477, Note_off_c, 1, 67, 0
1, 93477, Note_off_c, 1, 71, 0
1, 93480, Note_on_c, 1, 72, 127
1, 93480, Note_on_c, 1, 69, 127
1, 93480, Note_on_c, 1, 63, 127
1, 93537, Note_off_c, 1, 52, 0
1, 93537, Note_off_c, 1, 40, 0
1, 93537, Note_off_c, 1, 72, 0
1, 93537, Note_off_c, 1, 69, 0
1, 93537, Note_off_c, 1, 63, 0
1, 93540, Note_on_c, 1, 71, 127
1, 93540, Note_on_c, 1, 67, 127
1, 93540, Note_on_c, 1, 64, 127
1, 93540, Note_on_c, 1, 55, 127
1, 93540, Note_on_c, 1, 43, 127
1, 93597, Note_off_c, 1, 71, 0
1, 93597, Note_off_c, 1, 67, 0
1, 93597, Note_off_c, 1, 64, 0
1, 93597, Note_off_c, 1, 55, 0
1, 93597, Note_off_c, 1, 43, 0
1, 93600, Note_on_c, 1, 69, 127
1, 93600, Note_on_c, 1, 66, 127
1, 93600, Note_on_c, 1, 59, 127
1, 93600, Note_on_c, 1, 47, 127
1, 93657, Note_off_c, 1, 69, 0
1, 93657, Note_off_c, 1, 66, 0
1, 93660, Note_on_c, 1, 67, 127
1, 93660, Note_on_c, 1, 64, 127
1, 93717, Note_off_c, 1, 59, 0
1, 93717, Note_off_c, 1, 47, 0
1, 93717, Note_off_c, 1, 67, 0
1, 93717, Note_off_c, 1, 64, 0
1, 93720, Note_on_c, 1, 66, 127
1, 93720, Note_on_c, 1, 63, 127
1, 93720, Note_on_c, 1, 57, 127
1, 93720, Note_on_c, 1, 47, 127
1, 93720, Note_on_c, 1, 35, 127
1, 93777, Note_off_c, 1, 66, 0
1, 93777, Note_off_c, 1, 63, 0
1, 93777, Note_off_c, 1, 57, 0
1, 93777, Note_off_c, 1, 47, 0
1, 93777, Note_off_c, 1, 35, 0
1, 93780, Note_on_c, 1, 64, 127
1, 93780, Note_on_c, 1, 55, 127
1, 93780, Note_on_c, 1, 67, 127
1, 93780, Note_on_c, 1, 59, 127
1, 93780, Note_on_c, 1, 52, 127
1, 93780, Note_on_c, 1, 40, 127
1, 93897, Note_off_c, 1, 64, 0
1, 93897, Note_off_c, 1, 55, 0
1, 93897, Note_off_c, 1, 67, 0
1, 93897, Note_off_c, 1, 59, 0
1, 93897, Note_off_c, 1, 52, 0
1, 93897, Note_off_c, 1, 40, 0
1, 93900, Note_on_c, 1, 66, 127
1, 93900, Note_on_c, 1, 57, 127
1, 93900, Note_on_c, 1, 40, 127
1, 93900, Note_on_c, 1, 28, 127
1, 93957, Note_off_c, 1, 66, 0
1, 93957, Note_off_c, 1, 57, 0
1, 93957, Note_off_c, 1, 40, 0
1, 93957, Note_off_c, 1, 28, 0
1, 93960, Note_on_c, 1, 69, 127
1, 93960, Note_on_c, 1, 60, 127
1, 93960, Note_on_c, 1, 40, 127
1, 93960, Note_on_c, 1, 28, 127
1, 94017, Note_off_c, 1, 69, 0
1, 94017, Note_off_c, 1, 60, 0
1, 94020, Note_on_c, 1, 67, 127
1, 94020, Note_on_c, 1, 59, 127
1, 94077, Note_off_c, 1, 40, 0
1, 94077, Note_off_c, 1, 28, 0
1, 94077, Note_off_c, 1, 67, 0
1, 94077, Note_off_c, 1, 59, 0
1, 94080, Note_on_c, 1, 66, 127
1, 94080, Note_on_c, 1, 57, 127
1, 94080, Note_on_c, 1, 52, 127
1, 94080, Note_on_c, 1, 40, 127
1, 94137, Note_off_c, 1, 66, 0
1, 94137, Note_off_c, 1, 57, 0
1, 94137, Note_off_c, 1, 52, 0
1, 94137, Note_off_c, 1, 40, 0
1, 94140, Note_on_c, 1, 66, 127
1, 94140, Note_on_c, 1, 57, 127
1, 94140, Note_on_c, 1, 52, 127
1, 94140, Note_on_c, 1, 40, 127
1, 94197, Note_off_c, 1, 66, 0
1, 94197, Note_off_c, 1, 57, 0
1, 94200, Note_on_c, 1, 67, 127
1, 94200, Note_on_c, 1, 59, 127
1, 94257, Note_off_c, 1, 52, 0
1, 94257, Note_off_c, 1, 40, 0
1, 94257, Note_off_c, 1, 67, 0
1, 94257, Note_off_c, 1, 59, 0
1, 94260, Note_on_c, 1, 69, 127
1, 94260, Note_on_c, 1, 60, 127
1, 94260, Note_on_c, 1, 40, 127
1, 94260, Note_on_c, 1, 28, 127
1, 94317, Note_off_c, 1, 69, 0
1, 94317, Note_off_c, 1, 60, 0
1, 94317, Note_off_c, 1, 40, 0
1, 94317, Note_off_c, 1, 28, 0
1, 94320, Note_on_c, 1, 69, 127
1, 94320, Note_on_c, 1, 60, 127
1, 94320, Note_on_c, 1, 40, 127
1, 94320, Note_on_c, 1, 28, 127
1, 94320, Note_on_c, 1, 57, 127
1, 94320, Note_on_c, 1, 66, 127
1, 94377, Note_off_c, 1, 57, 0
1, 94377, Note_off_c, 1, 66, 0
1, 94380, Note_on_c, 1, 59, 127
1, 94380, Note_on_c, 1, 67, 127
1, 94437, Note_off_c, 1, 40, 0
1, 94437, Note_off_c, 1, 28, 0
1, 94437, Note_off_c, 1, 59, 0
1, 94437, Note_off_c, 1, 67, 0
1, 94440, Note_on_c, 1, 52, 127
1, 94497, Note_off_c, 1, 52, 0
1, 94500, Note_on_c, 1, 51, 127
1, 94500, Note_on_c, 1, 39, 127
1, 94617, Note_off_c, 1, 69, 0
1, 94617, Note_off_c, 1, 60, 0
1, 94617, Note_off_c, 1, 51, 0
1, 94617, Note_off_c, 1, 39, 0
1, 94620, Note_on_c, 1, 66, 127
1, 94620, Note_on_c, 1, 57, 127
1, 94620, Note_on_c, 1, 39, 127
1, 94620, Note_on_c, 1, 27, 127
1, 94677, Note_off_c, 1, 66, 0
1, 94677, Note_off_c, 1, 57, 0
1, 94677, Note_off_c, 1, 39, 0
1, 94677, Note_off_c, 1, 27, 0
1, 94680, Note_on_c, 1, 69, 127
1, 94680, Note_on_c, 1, 66, 127
1, 94680, Note_on_c, 1, 39, 127
1, 94680, Note_on_c, 1, 27, 127
1, 94737, Note_off_c, 1, 69, 0
1, 94737, Note_off_c, 1, 66, 0
1, 94740, Note_on_c, 1, 67, 127
1, 94740, Note_on_c, 1, 59, 127
1, 94797, Note_off_c, 1, 39, 0
1, 94797, Note_off_c, 1, 27, 0
1, 94797, Note_off_c, 1, 67, 0
1, 94797, Note_off_c, 1, 59, 0
1, 94800, Note_on_c, 1, 66, 127
1, 94800, Note_on_c, 1, 57, 127
1, 94800, Note_on_c, 1, 51, 127
1, 94800, Note_on_c, 1, 39, 127
1, 94857, Note_off_c, 1, 66, 0
1, 94857, Note_off_c, 1, 57, 0
1, 94857, Note_off_c, 1, 51, 0
1, 94857, Note_off_c, 1, 39, 0
1, 94860, Note_on_c, 1, 64, 127
1, 94860, Note_on_c, 1, 56, 127
1, 94860, Note_on_c, 1, 50, 127
1, 94860, Note_on_c, 1, 38, 127
1, 94917, Note_off_c, 1, 64, 0
1, 94917, Note_off_c, 1, 56, 0
1, 94920, Note_on_c, 1, 66, 127
1, 94920, Note_on_c, 1, 57, 127
1, 94977, Note_off_c, 1, 50, 0
1, 94977, Note_off_c, 1, 38, 0
1, 94977, Note_off_c, 1, 66, 0
1, 94977, Note_off_c, 1, 57, 0
1, 94980, Note_on_c, 1, 68, 127
1, 94980, Note_on_c, 1, 59, 127
1, 94980, Note_on_c, 1, 38, 127
1, 94980, Note_on_c, 1, 26, 127
1, 95037, Note_off_c, 1, 68, 0
1, 95037, Note_off_c, 1, 59, 0
1, 95037, Note_off_c, 1, 38, 0
1, 95037, Note_off_c, 1, 26, 0
1, 95040, Note_on_c, 1, 68, 127
1, 95040, Note_on_c, 1, 59, 127
1, 95040, Note_on_c, 1, 38, 127
1, 95040, Note_on_c, 1, 26, 127
1, 95040, Note_on_c, 1, 56, 127
1, 95040, Note_on_c, 1, 64, 127
1, 95097, Note_off_c, 1, 56, 0
1, 95097, Note_off_c, 1, 64, 0
1, 95100, Note_on_c, 1, 57, 127
1, 95100, Note_on_c, 1, 66, 127
1, 95157, Note_off_c, 1, 38, 0
1, 95157, Note_off_c, 1, 26, 0
1, 95157, Note_off_c, 1, 57, 0
1, 95157, Note_off_c, 1, 66, 0
1, 95160, Note_on_c, 1, 50, 127
1, 95217, Note_off_c, 1, 50, 0
1, 95220, Note_on_c, 1, 48, 127
1, 95220, Note_on_c, 1, 36, 127
1, 95277, Note_off_c, 1, 68, 0
1, 95277, Note_off_c, 1, 59, 0
1, 95280, Note_on_c, 1, 69, 127
1, 95337, Note_off_c, 1, 48, 0
1, 95337, Note_off_c, 1, 36, 0
1, 95337, Note_off_c, 1, 69, 0
1, 95340, Note_on_c, 1, 64, 127
1, 95340, Note_on_c, 1, 56, 127
1, 95340, Note_on_c, 1, 36, 127
1, 95340, Note_on_c, 1, 24, 127
1, 95340, Note_on_c, 1, 71, 127
1, 95397, Note_off_c, 1, 64, 0
1, 95397, Note_off_c, 1, 56, 0
1, 95397, Note_off_c, 1, 36, 0
1, 95397, Note_off_c, 1, 24, 0
1, 95397, Note_off_c, 1, 71, 0
1, 95400, Note_on_c, 1, 67, 127
1, 95400, Note_on_c, 1, 64, 127
1, 95400, Note_on_c, 1, 36, 127
1, 95400, Note_on_c, 1, 24, 127
1, 95400, Note_on_c, 1, 72, 127
1, 95457, Note_off_c, 1, 67, 0
1, 95457, Note_off_c, 1, 64, 0
1, 95457, Note_off_c, 1, 72, 0
1, 95460, Note_on_c, 1, 66, 127
1, 95460, Note_on_c, 1, 57, 127
1, 95517, Note_off_c, 1, 36, 0
1, 95517, Note_off_c, 1, 24, 0
1, 95517, Note_off_c, 1, 57, 0
1, 95520, Note_on_c, 1, 55, 127
1, 95520, Note_on_c, 1, 48, 127
1, 95577, Note_off_c, 1, 55, 0
1, 95577, Note_off_c, 1, 48, 0
1, 95580, Note_on_c, 1, 47, 127
1, 95580, Note_on_c, 1, 35, 127
1, 95637, Note_off_c, 1, 66, 0
1, 95697, Note_off_c, 1, 47, 0
1, 95697, Note_off_c, 1, 35, 0
1, 95700, Note_on_c, 1, 63, 127
1, 95700, Note_on_c, 1, 54, 127
1, 95700, Note_on_c, 1, 59, 127
1, 95700, Note_on_c, 1, 47, 127
1, 95757, Note_off_c, 1, 63, 0
1, 95757, Note_off_c, 1, 54, 0
1, 95757, Note_off_c, 1, 59, 0
1, 95757, Note_off_c, 1, 47, 0
1, 95760, Note_on_c, 1, 71, 127
1, 95760, Note_on_c, 1, 63, 127
1, 95760, Note_on_c, 1, 59, 127
1, 95760, Note_on_c, 1, 47, 127
1, 95760, Note_on_c, 1, 66, 127
1, 95817, Note_off_c, 1, 63, 0
1, 95817, Note_off_c, 1, 66, 0
1, 95820, Note_on_c, 1, 64, 127
1, 95820, Note_on_c, 1, 67, 127
1, 95877, Note_off_c, 1, 59, 0
1, 95877, Note_off_c, 1, 47, 0
1, 95877, Note_off_c, 1, 64, 0
1, 95877, Note_off_c, 1, 67, 0
1, 95880, Note_on_c, 1, 51, 127
1, 95880, Note_on_c, 1, 39, 127
1, 95880, Note_on_c, 1, 69, 127
1, 95937, Note_off_c, 1, 51, 0
1, 95937, Note_off_c, 1, 39, 0
1, 95937, Note_off_c, 1, 69, 0
1, 95940, Note_on_c, 1, 55, 127
1, 95940, Note_on_c, 1, 52, 127
1, 95940, Note_on_c, 1, 40, 127
1, 95997, Note_off_c, 1, 55, 0
1, 96000, Note_on_c, 1, 60, 127
1, 96057, Note_off_c, 1, 71, 0
1, 96057, Note_off_c, 1, 52, 0
1, 96057, Note_off_c, 1, 40, 0
1, 96057, Note_off_c, 1, 60, 0
1, 96060, Note_on_c, 1, 67, 127
1, 96060, Note_on_c, 1, 59, 127
1, 96060, Note_on_c, 1, 50, 127
1, 96060, Note_on_c, 1, 38, 127
1, 96117, Note_off_c, 1, 67, 0
1, 96117, Note_off_c, 1, 59, 0
1, 96117, Note_off_c, 1, 50, 0
1, 96117, Note_off_c, 1, 38, 0
1, 96120, Note_on_c, 1, 67, 127
1, 96120, Note_on_c, 1, 59, 127
1, 96120, Note_on_c, 1, 48, 127
1, 96120, Note_on_c, 1, 36, 127
1, 96177, Note_off_c, 1, 67, 0
1, 96177, Note_off_c, 1, 59, 0
1, 96180, Note_on_c, 1, 66, 127
1, 96180, Note_on_c, 1, 57, 127
1, 96237, Note_off_c, 1, 48, 0
1, 96237, Note_off_c, 1, 36, 0
1, 96237, Note_off_c, 1, 66, 0
1, 96237, Note_off_c, 1, 57, 0
1, 96240, Note_on_c, 1, 64, 127
1, 96240, Note_on_c, 1, 59, 127
1, 96240, Note_on_c, 1, 48, 127
1, 96240, Note_on_c, 1, 36, 127
1, 96297, Note_off_c, 1, 64, 0
1, 96297, Note_off_c, 1, 59, 0
1, 96297, Note_off_c, 1, 48, 0
1, 96297, Note_off_c, 1, 36, 0
1, 96300, Note_on_c, 1, 71, 127
1, 96300, Note_on_c, 1, 66, 127
1, 96300, Note_on_c, 1, 63, 127
1, 96300, Note_on_c, 1, 59, 127
1, 96300, Note_on_c, 1, 47, 127
1, 96300, Note_on_c, 1, 35, 127
1, 96417, Note_off_c, 1, 71, 0
1, 96417, Note_off_c, 1, 66, 0
1, 96417, Note_off_c, 1, 59, 0
1, 96417, Note_off_c, 1, 47, 0
1, 96417, Note_off_c, 1, 35, 0
1, 96420, Note_on_c, 1, 69, 127
1, 96477, Note_off_c, 1, 69, 0
1, 96480, Note_on_c, 1, 72, 127
1, 96537, Note_off_c, 1, 72, 0
1, 96540, Note_on_c, 1, 67, 127
1, 96597, Note_off_c, 1, 67, 0
1, 96897, Note_off_c, 1, 63, 0
1, 96900, Note_on_c, 1, 64, 127
1, 96957, Note_off_c, 1, 64, 0
1, 97020, Note_on_c, 1, 51, 127
1, 97020, Note_on_c, 1, 39, 127
1, 97137, Note_off_c, 1, 51, 0
1, 97137, Note_off_c, 1, 39, 0
1, 97140, Note_on_c, 1, 27, 127
1, 97197, Note_off_c, 1, 27, 0
1, 97200, Note_on_c, 1, 78, 127
1, 97257, Note_off_c, 1, 78, 0
1, 97380, Note_on_c, 1, 68, 127
1, 97380, Note_on_c, 1, 50, 127
1, 97380, Note_on_c, 1, 38, 127
1, 97437, Note_off_c, 1, 68, 0
1, 97497, Note_off_c, 1, 50, 0
1, 97497, Note_off_c, 1, 38, 0
1, 97500, Note_on_c, 1, 71, 127
1, 97500, Note_on_c, 1, 68, 127
1, 97500, Note_on_c, 1, 64, 127
1, 97500, Note_on_c, 1, 38, 127
1, 97500, Note_on_c, 1, 26, 127
1, 97557, Note_off_c, 1, 71, 0
1, 97557, Note_off_c, 1, 64, 0
1, 97557, Note_off_c, 1, 38, 0
1, 97557, Note_off_c, 1, 26, 0
1, 97680, Note_on_c, 1, 66, 127
1, 97680, Note_on_c, 1, 50, 127
1, 97737, Note_off_c, 1, 66, 0
1, 97737, Note_off_c, 1, 50, 0
1, 97740, Note_on_c, 1, 65, 127
1, 97740, Note_on_c, 1, 49, 127
1, 97740, Note_on_c, 1, 37, 127
1, 97797, Note_off_c, 1, 65, 0
1, 97800, Note_off_c, 1, 68, 0
1, 97800, Note_on_c, 1, 69, 127
1, 97857, Note_off_c, 1, 49, 0
1, 97857, Note_off_c, 1, 37, 0
1, 97857, Note_off_c, 1, 69, 0
1, 97860, Note_on_c, 1, 68, 127
1, 97860, Note_on_c, 1, 65, 127
1, 97860, Note_on_c, 1, 37, 127
1, 97860, Note_on_c, 1, 25, 127
1, 97917, Note_off_c, 1, 68, 0
1, 97917, Note_off_c, 1, 65, 0
1, 97917, Note_off_c, 1, 37, 0
1, 97917, Note_off_c, 1, 25, 0
1, 97920, Note_on_c, 1, 80, 127
1, 97920, Note_on_c, 1, 65, 127
1, 97920, Note_on_c, 1, 61, 127
1, 97920, Note_on_c, 1, 37, 127
1, 97920, Note_on_c, 1, 25, 127
1, 97977, Note_off_c, 1, 80, 0
1, 97980, Note_on_c, 1, 73, 127
1, 98037, Note_off_c, 1, 65, 0
1, 98037, Note_off_c, 1, 37, 0
1, 98037, Note_off_c, 1, 25, 0
1, 98037, Note_off_c, 1, 73, 0
1, 98040, Note_on_c, 1, 71, 127
1, 98040, Note_on_c, 1, 64, 127
1, 98040, Note_on_c, 1, 49, 127
1, 98097, Note_off_c, 1, 71, 0
1, 98097, Note_off_c, 1, 49, 0
1, 98100, Note_on_c, 1, 70, 127
1, 98100, Note_on_c, 1, 54, 127
1, 98100, Note_on_c, 1, 42, 127
1, 98157, Note_off_c, 1, 64, 0
1, 98160, Note_on_c, 1, 62, 127
1, 98217, Note_off_c, 1, 61, 0
1, 98217, Note_off_c, 1, 70, 0
1, 98217, Note_off_c, 1, 54, 0
1, 98217, Note_off_c, 1, 42, 0
1, 98217, Note_off_c, 1, 62, 0
1, 98220, Note_on_c, 1, 73, 127
1, 98220, Note_on_c, 1, 64, 127
1, 98220, Note_on_c, 1, 61, 127
1, 98220, Note_on_c, 1, 58, 127
1, 98220, Note_on_c, 1, 42, 127
1, 98220, Note_on_c, 1, 30, 127
1, 98277, Note_off_c, 1, 73, 0
1, 98277, Note_off_c, 1, 64, 0
1, 98277, Note_off_c, 1, 61, 0
1, 98277, Note_off_c, 1, 58, 0
1, 98277, Note_off_c, 1, 42, 0
1, 98277, Note_off_c, 1, 30, 0
1, 98280, Note_on_c, 1, 76, 127
1, 98280, Note_on_c, 1, 70, 127
1, 98280, Note_on_c, 1, 61, 127
1, 98280, Note_on_c, 1, 42, 127
1, 98280, Note_on_c, 1, 30, 127
1, 98337, Note_off_c, 1, 70, 0
1, 98337, Note_off_c, 1, 61, 0
1, 98340, Note_on_c, 1, 71, 127
1, 98340, Note_on_c, 1, 62, 127
1, 98397, Note_off_c, 1, 76, 0
1, 98397, Note_off_c, 1, 42, 0
1, 98397, Note_off_c, 1, 30, 0
1, 98397, Note_off_c, 1, 71, 0
1, 98397, Note_off_c, 1, 62, 0
1, 98400, Note_on_c, 1, 79, 127
1, 98400, Note_on_c, 1, 73, 127
1, 98400, Note_on_c, 1, 64, 127
1, 98400, Note_on_c, 1, 58, 127
1, 98400, Note_on_c, 1, 46, 127
1, 98457, Note_off_c, 1, 79, 0
1, 98457, Note_off_c, 1, 73, 0
1, 98457, Note_off_c, 1, 64, 0
1, 98457, Note_off_c, 1, 58, 0
1, 98457, Note_off_c, 1, 46, 0
1, 98460, Note_on_c, 1, 78, 127
1, 98460, Note_on_c, 1, 62, 127
1, 98460, Note_on_c, 1, 59, 127
1, 98460, Note_on_c, 1, 47, 127
1, 98517, Note_off_c, 1, 78, 0
1, 98517, Note_off_c, 1, 62, 0
1, 98520, Note_on_c, 1, 76, 127
1, 98520, Note_on_c, 1, 67, 127
1, 98520, Note_on_c, 1, 58, 127
1, 98577, Note_off_c, 1, 59, 0
1, 98577, Note_off_c, 1, 47, 0
1, 98577, Note_off_c, 1, 76, 0
1, 98577, Note_off_c, 1, 67, 0
1, 98577, Note_off_c, 1, 58, 0
1, 98580, Note_on_c, 1, 74, 127
1, 98580, Note_on_c, 1, 66, 127
1, 98580, Note_on_c, 1, 59, 127
1, 98580, Note_on_c, 1, 50, 127
1, 98580, Note_on_c, 1, 38, 127
1, 98637, Note_off_c, 1, 74, 0
1, 98637, Note_off_c, 1, 66, 0
1, 98637, Note_off_c, 1, 59, 0
1, 98637, Note_off_c, 1, 50, 0
1, 98637, Note_off_c, 1, 38, 0
1, 98640, Note_on_c, 1, 73, 127
1, 98640, Note_on_c, 1, 64, 127
1, 98640, Note_on_c, 1, 67, 127
1, 98640, Note_on_c, 1, 52, 127
1, 98640, Note_on_c, 1, 40, 127
1, 98697, Note_off_c, 1, 73, 0
1, 98697, Note_off_c, 1, 64, 0
1, 98700, Note_on_c, 1, 71, 127
1, 98700, Note_on_c, 1, 62, 127
1, 98757, Note_off_c, 1, 67, 0
1, 98757, Note_off_c, 1, 52, 0
1, 98757, Note_off_c, 1, 40, 0
1, 98757, Note_off_c, 1, 71, 0
1, 98757, Note_off_c, 1, 62, 0
1, 98760, Note_on_c, 1, 70, 127
1, 98760, Note_on_c, 1, 64, 127
1, 98760, Note_on_c, 1, 61, 127
1, 98760, Note_on_c, 1, 66, 127
1, 98760, Note_on_c, 1, 54, 127
1, 98760, Note_on_c, 1, 42, 127
1, 98817, Note_off_c, 1, 70, 0
1, 98817, Note_off_c, 1, 64, 0
1, 98817, Note_off_c, 1, 61, 0
1, 98817, Note_off_c, 1, 66, 0
1, 98817, Note_off_c, 1, 54, 0
1, 98817, Note_off_c, 1, 42, 0
1, 98820, Note_on_c, 1, 71, 127
1, 98820, Note_on_c, 1, 62, 127
1, 98820, Note_on_c, 1, 59, 127
1, 98820, Note_on_c, 1, 66, 127
1, 98820, Note_on_c, 1, 47, 127
1, 98937, Note_off_c, 1, 71, 0
1, 98937, Note_off_c, 1, 62, 0
1, 98937, Note_off_c, 1, 59, 0
1, 98937, Note_off_c, 1, 66, 0
1, 98937, Note_off_c, 1, 47, 0
1, 98940, Note_on_c, 1, 64, 127
1, 98940, Note_on_c, 1, 61, 127
1, 98940, Note_on_c, 1, 47, 127
1, 98940, Note_on_c, 1, 35, 127
1, 98997, Note_off_c, 1, 64, 0
1, 98997, Note_off_c, 1, 61, 0
1, 98997, Note_off_c, 1, 47, 0
1, 98997, Note_off_c, 1, 35, 0
1, 99000, Note_on_c, 1, 67, 127
1, 99000, Note_on_c, 1, 64, 127
1, 99000, Note_on_c, 1, 47, 127
1, 99000, Note_on_c, 1, 35, 127
1, 99057, Note_off_c, 1, 67, 0
1, 99057, Note_off_c, 1, 64, 0
1, 99060, Note_on_c, 1, 66, 127
1, 99060, Note_on_c, 1, 62, 127
1, 99117, Note_off_c, 1, 47, 0
1, 99117, Note_off_c, 1, 35, 0
1, 99117, Note_off_c, 1, 66, 0
1, 99117, Note_off_c, 1, 62, 0
1, 99120, Note_on_c, 1, 64, 127
1, 99120, Note_on_c, 1, 61, 127
1, 99120, Note_on_c, 1, 59, 127
1, 99120, Note_on_c, 1, 47, 127
1, 99177, Note_off_c, 1, 64, 0
1, 99177, Note_off_c, 1, 61, 0
1, 99177, Note_off_c, 1, 59, 0
1, 99177, Note_off_c, 1, 47, 0
1, 99180, Note_on_c, 1, 79, 127
1, 99180, Note_on_c, 1, 76, 127
1, 99180, Note_on_c, 1, 70, 127
1, 99180, Note_on_c, 1, 64, 127
1, 99180, Note_on_c, 1, 61, 127
1, 99180, Note_on_c, 1, 59, 127
1, 99180, Note_on_c, 1, 47, 127
1, 99180, Note_on_c, 1, 67, 127
1, 99237, Note_off_c, 1, 79, 0
1, 99237, Note_off_c, 1, 76, 0
1, 99237, Note_off_c, 1, 70, 0
1, 99237, Note_off_c, 1, 64, 0
1, 99237, Note_off_c, 1, 61, 0
1, 99237, Note_off_c, 1, 67, 0
1, 99240, Note_on_c, 1, 78, 127
1, 99240, Note_on_c, 1, 74, 127
1, 99240, Note_on_c, 1, 71, 127
1, 99240, Note_on_c, 1, 66, 127
1, 99240, Note_on_c, 1, 62, 127
1, 99297, Note_off_c, 1, 59, 0
1, 99297, Note_off_c, 1, 47, 0
1, 99297, Note_off_c, 1, 78, 0
1, 99297, Note_off_c, 1, 74, 0
1, 99297, Note_off_c, 1, 71, 0
1, 99297, Note_off_c, 1, 66, 0
1, 99297, Note_off_c, 1, 62, 0
1, 99300, Note_on_c, 1, 76, 127
1, 99300, Note_on_c, 1, 73, 127
1, 99300, Note_on_c, 1, 67, 127
1, 99300, Note_on_c, 1, 64, 127
1, 99300, Note_on_c, 1, 47, 127
1, 99300, Note_on_c, 1, 35, 127
1, 99357, Note_off_c, 1, 76, 0
1, 99357, Note_off_c, 1, 73, 0
1, 99357, Note_off_c, 1, 67, 0
1, 99357, Note_off_c, 1, 64, 0
1, 99357, Note_off_c, 1, 47, 0
1, 99357, Note_off_c, 1, 35, 0
1, 99360, Note_on_c, 1, 76, 127
1, 99360, Note_on_c, 1, 67, 127
1, 99360, Note_on_c, 1, 64, 127
1, 99360, Note_on_c, 1, 47, 127
1, 99360, Note_on_c, 1, 35, 127
1, 99417, Note_off_c, 1, 76, 0
1, 99420, Note_on_c, 1, 74, 127
1, 99420, Note_on_c, 1, 66, 127
1, 99477, Note_off_c, 1, 47, 0
1, 99477, Note_off_c, 1, 35, 0
1, 99477, Note_off_c, 1, 74, 0
1, 99477, Note_off_c, 1, 66, 0
1, 99480, Note_on_c, 1, 73, 127
1, 99480, Note_on_c, 1, 59, 127
1, 99537, Note_off_c, 1, 73, 0
1, 99537, Note_off_c, 1, 59, 0
1, 99540, Note_on_c, 1, 58, 127
1, 99540, Note_on_c, 1, 46, 127
1, 99600, Note_on_c, 1, 62, 127
1, 99657, Note_off_c, 1, 67, 0
1, 99657, Note_off_c, 1, 64, 0
1, 99657, Note_off_c, 1, 58, 0
1, 99657, Note_off_c, 1, 46, 0
1, 99657, Note_off_c, 1, 62, 0
1, 99660, Note_on_c, 1, 64, 127
1, 99660, Note_on_c, 1, 61, 127
1, 99660, Note_on_c, 1, 46, 127
1, 99660, Note_on_c, 1, 34, 127
1, 99717, Note_off_c, 1, 64, 0
1, 99717, Note_off_c, 1, 61, 0
1, 99717, Note_off_c, 1, 46, 0
1, 99717, Note_off_c, 1, 34, 0
1, 99720, Note_on_c, 1, 73, 127
1, 99720, Note_on_c, 1, 64, 127
1, 99720, Note_on_c, 1, 46, 127
1, 99720, Note_on_c, 1, 34, 127
1, 99777, Note_off_c, 1, 73, 0
1, 99777, Note_off_c, 1, 64, 0
1, 99780, Note_on_c, 1, 66, 127
1, 99780, Note_on_c, 1, 62, 127
1, 99837, Note_off_c, 1, 46, 0
1, 99837, Note_off_c, 1, 34, 0
1, 99837, Note_off_c, 1, 66, 0
1, 99837, Note_off_c, 1, 62, 0
1, 99840, Note_on_c, 1, 64, 127
1, 99840, Note_on_c, 1, 61, 127
1, 99840, Note_on_c, 1, 58, 127
1, 99840, Note_on_c, 1, 46, 127
1, 99897, Note_off_c, 1, 64, 0
1, 99897, Note_off_c, 1, 61, 0
1, 99897, Note_off_c, 1, 58, 0
1, 99897, Note_off_c, 1, 46, 0
1, 99900, Note_on_c, 1, 78, 127
1, 99900, Note_on_c, 1, 75, 127
1, 99900, Note_on_c, 1, 54, 127
1, 99900, Note_on_c, 1, 63, 127
1, 99900, Note_on_c, 1, 59, 127
1, 99900, Note_on_c, 1, 57, 127
1, 99900, Note_on_c, 1, 45, 127
1, 99957, Note_off_c, 1, 78, 0
1, 99957, Note_off_c, 1, 75, 0
1, 99957, Note_off_c, 1, 54, 0
1, 99957, Note_off_c, 1, 63, 0
1, 99957, Note_off_c, 1, 59, 0
1, 99960, Note_on_c, 1, 76, 127
1, 99960, Note_on_c, 1, 73, 127
1, 99960, Note_on_c, 1, 55, 127
1, 99960, Note_on_c, 1, 64, 127
1, 99960, Note_on_c, 1, 61, 127
1, 100017, Note_off_c, 1, 57, 0
1, 100017, Note_off_c, 1, 45, 0
1, 100017, Note_off_c, 1, 76, 0
1, 100017, Note_off_c, 1, 73, 0
1, 100017, Note_off_c, 1, 55, 0
1, 100017, Note_off_c, 1, 64, 0
1, 100017, Note_off_c, 1, 61, 0
1, 100020, Note_on_c, 1, 75, 127
1, 100020, Note_on_c, 1, 71, 127
1, 100020, Note_on_c, 1, 57, 127
1, 100020, Note_on_c, 1, 66, 127
1, 100020, Note_on_c, 1, 63, 127
1, 100020, Note_on_c, 1, 45, 127
1, 100020, Note_on_c, 1, 33, 127
1, 100077, Note_off_c, 1, 75, 0
1, 100077, Note_off_c, 1, 71, 0
1, 100077, Note_off_c, 1, 57, 0
1, 100077, Note_off_c, 1, 66, 0
1, 100077, Note_off_c, 1, 63, 0
1, 100077, Note_off_c, 1, 45, 0
1, 100077, Note_off_c, 1, 33, 0
1, 100080, Note_on_c, 1, 75, 127
1, 100080, Note_on_c, 1, 66, 127
1, 100080, Note_on_c, 1, 54, 127
1, 100080, Note_on_c, 1, 63, 127
1, 100080, Note_on_c, 1, 45, 127
1, 100080, Note_on_c, 1, 33, 127
1, 100137, Note_off_c, 1, 75, 0
1, 100137, Note_off_c, 1, 54, 0
1, 100140, Note_on_c, 1, 73, 127
1, 100140, Note_on_c, 1, 64, 127
1, 100140, Note_on_c, 1, 55, 127
1, 100197, Note_off_c, 1, 45, 0
1, 100197, Note_off_c, 1, 33, 0
1, 100197, Note_off_c, 1, 73, 0
1, 100197, Note_off_c, 1, 64, 0
1, 100197, Note_off_c, 1, 55, 0
1, 100200, Note_on_c, 1, 71, 127
1, 100200, Note_on_c, 1, 57, 127
1, 100257, Note_off_c, 1, 71, 0
1, 100257, Note_off_c, 1, 57, 0
1, 100260, Note_on_c, 1, 59, 127
1, 100260, Note_on_c, 1, 43, 127
1, 100317, Note_off_c, 1, 66, 0
1, 100317, Note_off_c, 1, 63, 0
1, 100320, Note_on_c, 1, 67, 127
1, 100377, Note_off_c, 1, 43, 0
1, 100377, Note_off_c, 1, 67, 0
1, 100380, Note_on_c, 1, 31, 127
1, 100437, Note_off_c, 1, 31, 0
1, 100440, Note_on_c, 1, 62, 127
1, 100497, Note_off_c, 1, 59, 0
1, 100497, Note_off_c, 1, 62, 0
1, 100500, Note_on_c, 1, 58, 127
1, 100500, Note_on_c, 1, 61, 127
1, 100557, Note_off_c, 1, 58, 0
1, 100620, Note_on_c, 1, 70, 127
1, 100620, Note_on_c, 1, 42, 127
1, 100737, Note_off_c, 1, 61, 0
1, 100737, Note_off_c, 1, 70, 0
1, 100737, Note_off_c, 1, 42, 0
1, 100740, Note_on_c, 1, 30, 127
1, 100797, Note_off_c, 1, 30, 0
1, 100800, Note_on_c, 1, 70, 127
1, 100800, Note_on_c, 1, 66, 127
1, 100800, Note_on_c, 1, 42, 127
1, 100800, Note_on_c, 1, 30, 127
1, 100857, Note_off_c, 1, 70, 0
1, 100860, Note_on_c, 1, 71, 127
1, 100917, Note_off_c, 1, 42, 0
1, 100917, Note_off_c, 1, 30, 0
1, 100917, Note_off_c, 1, 71, 0
1, 100920, Note_on_c, 1, 73, 127
1, 100920, Note_on_c, 1, 64, 127
1, 100920, Note_on_c, 1, 58, 127
1, 100920, Note_on_c, 1, 46, 127
1, 100977, Note_off_c, 1, 73, 0
1, 100977, Note_off_c, 1, 64, 0
1, 100977, Note_off_c, 1, 58, 0
1, 100977, Note_off_c, 1, 46, 0
1, 100980, Note_on_c, 1, 74, 127
1, 100980, Note_on_c, 1, 62, 127
1, 100980, Note_on_c, 1, 59, 127
1, 100980, Note_on_c, 1, 47, 127
1, 101037, Note_off_c, 1, 66, 0
1, 101037, Note_off_c, 1, 74, 0
1, 101037, Note_off_c, 1, 62, 0
1, 101040, Note_on_c, 1, 67, 127
1, 101097, Note_off_c, 1, 59, 0
1, 101097, Note_off_c, 1, 47, 0
1, 101097, Note_off_c, 1, 67, 0
1, 101100, Note_on_c, 1, 71, 127
1, 101100, Note_on_c, 1, 66, 127
1, 101100, Note_on_c, 1, 62, 127
1, 101100, Note_on_c, 1, 50, 127
1, 101100, Note_on_c, 1, 38, 127
1, 101157, Note_off_c, 1, 71, 0
1, 101157, Note_off_c, 1, 66, 0
1, 101157, Note_off_c, 1, 62, 0
1, 101157, Note_off_c, 1, 50, 0
1, 101157, Note_off_c, 1, 38, 0
1, 101160, Note_on_c, 1, 70, 127
1, 101160, Note_on_c, 1, 66, 127
1, 101160, Note_on_c, 1, 61, 127
1, 101160, Note_on_c, 1, 64, 127
1, 101160, Note_on_c, 1, 54, 127
1, 101160, Note_on_c, 1, 42, 127
1, 101217, Note_off_c, 1, 70, 0
1, 101217, Note_off_c, 1, 64, 0
1, 101220, Note_on_c, 1, 62, 127
1, 101220, Note_on_c, 1, 59, 127
1, 101277, Note_off_c, 1, 54, 0
1, 101277, Note_off_c, 1, 42, 0
1, 101277, Note_off_c, 1, 62, 0
1, 101277, Note_off_c, 1, 59, 0
1, 101280, Note_on_c, 1, 58, 127
1, 101280, Note_on_c, 1, 30, 127
1, 101337, Note_off_c, 1, 66, 0
1, 101337, Note_off_c, 1, 61, 0
1, 101337, Note_off_c, 1, 58, 0
1, 101337, Note_off_c, 1, 30, 0
1, 101340, Note_on_c, 1, 62, 127
1, 101340, Note_on_c, 1, 66, 127
1, 101340, Note_on_c, 1, 59, 127
1, 101340, Note_on_c, 1, 47, 127
1, 101340, Note_on_c, 1, 35, 127
1, 101457, Note_off_c, 1, 62, 0
1, 101457, Note_off_c, 1, 66, 0
1, 101457, Note_off_c, 1, 59, 0
1, 101457, Note_off_c, 1, 47, 0
1, 101457, Note_off_c, 1, 35, 0
1, 101460, Note_on_c, 1, 62, 127
1, 101460, Note_on_c, 1, 59, 127
1, 101460, Note_on_c, 1, 47, 127
1, 101517, Note_off_c, 1, 62, 0
1, 101517, Note_off_c, 1, 59, 0
1, 101517, Note_off_c, 1, 47, 0
1, 101520, Note_on_c, 1, 65, 127
1, 101520, Note_on_c, 1, 59, 127
1, 101520, Note_on_c, 1, 47, 127
1, 101637, Note_off_c, 1, 59, 0
1, 101637, Note_off_c, 1, 47, 0
1, 101640, Note_on_c, 1, 69, 127
1, 101640, Note_on_c, 1, 35, 127
1, 101697, Note_off_c, 1, 69, 0
1, 101697, Note_off_c, 1, 35, 0
1, 101700, Note_on_c, 1, 68, 127
1, 101700, Note_on_c, 1, 52, 127
1, 101700, Note_on_c, 1, 40, 127
1, 101757, Note_off_c, 1, 65, 0
1, 101757, Note_off_c, 1, 68, 0
1, 101760, Note_on_c, 1, 64, 127
1, 101817, Note_off_c, 1, 52, 0
1, 101817, Note_off_c, 1, 40, 0
1, 101817, Note_off_c, 1, 64, 0
1, 101820, Note_on_c, 1, 71, 127
1, 101820, Note_on_c, 1, 62, 127
1, 101820, Note_on_c, 1, 40, 127
1, 101820, Note_on_c, 1, 28, 127
1, 101877, Note_off_c, 1, 40, 0
1, 101877, Note_off_c, 1, 28, 0
1, 101937, Note_off_c, 1, 71, 0
1, 101937, Note_off_c, 1, 62, 0
1, 101940, Note_on_c, 1, 69, 127
1, 101940, Note_on_c, 1, 60, 127
1, 101997, Note_off_c, 1, 69, 0
1, 101997, Note_off_c, 1, 60, 0
1, 102000, Note_on_c, 1, 68, 127
1, 102000, Note_on_c, 1, 59, 127
1, 102000, Note_on_c, 1, 52, 127
1, 102000, Note_on_c, 1, 40, 127
1, 102057, Note_off_c, 1, 68, 0
1, 102057, Note_off_c, 1, 59, 0
1, 102057, Note_off_c, 1, 52, 0
1, 102057, Note_off_c, 1, 40, 0
1, 102060, Note_on_c, 1, 69, 127
1, 102060, Note_on_c, 1, 60, 127
1, 102060, Note_on_c, 1, 57, 127
1, 102060, Note_on_c, 1, 45, 127
1, 102117, Note_off_c, 1, 69, 0
1, 102117, Note_off_c, 1, 60, 0
1, 102120, Note_on_c, 1, 71, 127
1, 102120, Note_on_c, 1, 62, 127
1, 102177, Note_off_c, 1, 57, 0
1, 102177, Note_off_c, 1, 45, 0
1, 102177, Note_off_c, 1, 71, 0
1, 102177, Note_off_c, 1, 62, 0
1, 102180, Note_on_c, 1, 69, 127
1, 102180, Note_on_c, 1, 72, 127
1, 102180, Note_on_c, 1, 64, 127
1, 102180, Note_on_c, 1, 45, 127
1, 102180, Note_on_c, 1, 33, 127
1, 102237, Note_off_c, 1, 69, 0
1, 102237, Note_off_c, 1, 72, 0
1, 102237, Note_off_c, 1, 64, 0
1, 102237, Note_off_c, 1, 45, 0
1, 102237, Note_off_c, 1, 33, 0
1, 102240, Note_on_c, 1, 72, 127
1, 102240, Note_on_c, 1, 45, 127
1, 102240, Note_on_c, 1, 33, 127
1, 102357, Note_off_c, 1, 45, 0
1, 102357, Note_off_c, 1, 33, 0
1, 102360, Note_on_c, 1, 64, 127
1, 102360, Note_on_c, 1, 57, 127
1, 102417, Note_off_c, 1, 64, 0
1, 102417, Note_off_c, 1, 57, 0
1, 102420, Note_on_c, 1, 63, 127
1, 102420, Note_on_c, 1, 54, 127
1, 102420, Note_on_c, 1, 59, 127
1, 102420, Note_on_c, 1, 47, 127
1, 102477, Note_off_c, 1, 63, 0
1, 102478, Note_off_c, 1, 72, 0
1, 102480, Note_on_c, 1, 71, 127
1, 102537, Note_off_c, 1, 54, 0
1, 102537, Note_off_c, 1, 59, 0
1, 102537, Note_off_c, 1, 47, 0
1, 102537, Note_off_c, 1, 71, 0
1, 102540, Note_on_c, 1, 69, 127
1, 102540, Note_on_c, 1, 66, 127
1, 102540, Note_on_c, 1, 63, 127
1, 102540, Note_on_c, 1, 47, 127
1, 102540, Note_on_c, 1, 35, 127
1, 102597, Note_off_c, 1, 63, 0
1, 102597, Note_off_c, 1, 47, 0
1, 102597, Note_off_c, 1, 35, 0
1, 102657, Note_off_c, 1, 69, 0
1, 102657, Note_off_c, 1, 66, 0
1, 102660, Note_on_c, 1, 67, 127
1, 102660, Note_on_c, 1, 64, 127
1, 102717, Note_off_c, 1, 67, 0
1, 102717, Note_off_c, 1, 64, 0
1, 102720, Note_on_c, 1, 66, 127
1, 102720, Note_on_c, 1, 63, 127
1, 102720, Note_on_c, 1, 59, 127
1, 102720, Note_on_c, 1, 47, 127
1, 102777, Note_off_c, 1, 66, 0
1, 102777, Note_off_c, 1, 63, 0
1, 102777, Note_off_c, 1, 59, 0
1, 102777, Note_off_c, 1, 47, 0
1, 102780, Note_on_c, 1, 67, 127
1, 102780, Note_on_c, 1, 64, 127
1, 102780, Note_on_c, 1, 59, 127
1, 102780, Note_on_c, 1, 52, 127
1, 102780, Note_on_c, 1, 40, 127
1, 102837, Note_off_c, 1, 67, 0
1, 102837, Note_off_c, 1, 64, 0
1, 102840, Note_on_c, 1, 69, 127
1, 102840, Note_on_c, 1, 66, 127
1, 102897, Note_off_c, 1, 59, 0
1, 102897, Note_off_c, 1, 52, 0
1, 102897, Note_off_c, 1, 40, 0
1, 102897, Note_off_c, 1, 69, 0
1, 102897, Note_off_c, 1, 66, 0
1, 102900, Note_on_c, 1, 71, 127
1, 102900, Note_on_c, 1, 67, 127
1, 102900, Note_on_c, 1, 64, 127
1, 102900, Note_on_c, 1, 40, 127
1, 102900, Note_on_c, 1, 28, 127
1, 102957, Note_off_c, 1, 71, 0
1, 102957, Note_off_c, 1, 67, 0
1, 102957, Note_off_c, 1, 64, 0
1, 102957, Note_off_c, 1, 40, 0
1, 102957, Note_off_c, 1, 28, 0
1, 102960, Note_on_c, 1, 70, 127
1, 102960, Note_on_c, 1, 40, 127
1, 102960, Note_on_c, 1, 28, 127
1, 103077, Note_off_c, 1, 40, 0
1, 103077, Note_off_c, 1, 28, 0
1, 103080, Note_on_c, 1, 62, 127
1, 103080, Note_on_c, 1, 52, 127
1, 103137, Note_off_c, 1, 62, 0
1, 103137, Note_off_c, 1, 52, 0
1, 103140, Note_on_c, 1, 61, 127
1, 103140, Note_on_c, 1, 57, 127
1, 103140, Note_on_c, 1, 45, 127
1, 103197, Note_off_c, 1, 70, 0
1, 103197, Note_off_c, 1, 61, 0
1, 103200, Note_on_c, 1, 69, 127
1, 103257, Note_off_c, 1, 57, 0
1, 103257, Note_off_c, 1, 45, 0
1, 103257, Note_off_c, 1, 69, 0
1, 103260, Note_on_c, 1, 67, 127
1, 103260, Note_on_c, 1, 64, 127
1, 103260, Note_on_c, 1, 45, 127
1, 103260, Note_on_c, 1, 33, 127
1, 103317, Note_off_c, 1, 45, 0
1, 103317, Note_off_c, 1, 33, 0
1, 103377, Note_off_c, 1, 67, 0
1, 103377, Note_off_c, 1, 64, 0
1, 103380, Note_on_c, 1, 65, 127
1, 103380, Note_on_c, 1, 62, 127
1, 103437, Note_off_c, 1, 65, 0
1, 103437, Note_off_c, 1, 62, 0
1, 103440, Note_on_c, 1, 64, 127
1, 103440, Note_on_c, 1, 61, 127
1, 103440, Note_on_c, 1, 57, 127
1, 103440, Note_on_c, 1, 45, 127
1, 103497, Note_off_c, 1, 64, 0
1, 103497, Note_off_c, 1, 61, 0
1, 103497, Note_off_c, 1, 57, 0
1, 103497, Note_off_c, 1, 45, 0
1, 103500, Note_on_c, 1, 77, 127
1, 103500, Note_on_c, 1, 74, 127
1, 103500, Note_on_c, 1, 69, 127
1, 103500, Note_on_c, 1, 65, 127
1, 103500, Note_on_c, 1, 62, 127
1, 103500, Note_on_c, 1, 50, 127
1, 103557, Note_off_c, 1, 65, 0
1, 103560, Note_on_c, 1, 67, 127
1, 103560, Note_on_c, 1, 64, 127
1, 103617, Note_off_c, 1, 77, 0
1, 103617, Note_off_c, 1, 74, 0
1, 103617, Note_off_c, 1, 62, 0
1, 103617, Note_off_c, 1, 50, 0
1, 103617, Note_off_c, 1, 67, 0
1, 103617, Note_off_c, 1, 64, 0
1, 103620, Note_on_c, 1, 38, 127
1, 103677, Note_off_c, 1, 69, 0
1, 103677, Note_off_c, 1, 38, 0
1, 103680, Note_on_c, 1, 79, 127
1, 103680, Note_on_c, 1, 76, 127
1, 103680, Note_on_c, 1, 70, 127
1, 103680, Note_on_c, 1, 50, 127
1, 103680, Note_on_c, 1, 38, 127
1, 103737, Note_off_c, 1, 79, 0
1, 103737, Note_off_c, 1, 76, 0
1, 103737, Note_off_c, 1, 70, 0
1, 103740, Note_on_c, 1, 77, 127
1, 103740, Note_on_c, 1, 74, 127
1, 103740, Note_on_c, 1, 69, 127
1, 103797, Note_off_c, 1, 50, 0
1, 103797, Note_off_c, 1, 38, 0
1, 103797, Note_off_c, 1, 77, 0
1, 103797, Note_off_c, 1, 74, 0
1, 103797, Note_off_c, 1, 69, 0
1, 103800, Note_on_c, 1, 76, 127
1, 103800, Note_on_c, 1, 73, 127
1, 103800, Note_on_c, 1, 67, 127
1, 103800, Note_on_c, 1, 62, 127
1, 103800, Note_on_c, 1, 50, 127
1, 103857, Note_off_c, 1, 76, 0
1, 103857, Note_off_c, 1, 73, 0
1, 103857, Note_off_c, 1, 67, 0
1, 103857, Note_off_c, 1, 62, 0
1, 103857, Note_off_c, 1, 50, 0
1, 103860, Note_on_c, 1, 76, 127
1, 103860, Note_on_c, 1, 73, 127
1, 103860, Note_on_c, 1, 67, 127
1, 103860, Note_on_c, 1, 62, 127
1, 103860, Note_on_c, 1, 50, 127
1, 103917, Note_off_c, 1, 76, 0
1, 103917, Note_off_c, 1, 73, 0
1, 103917, Note_off_c, 1, 67, 0
1, 103920, Note_on_c, 1, 77, 127
1, 103920, Note_on_c, 1, 74, 127
1, 103920, Note_on_c, 1, 69, 127
1, 103977, Note_off_c, 1, 62, 0
1, 103977, Note_off_c, 1, 50, 0
1, 103977, Note_off_c, 1, 77, 0
1, 103977, Note_off_c, 1, 74, 0
1, 103977, Note_off_c, 1, 69, 0
1, 103980, Note_on_c, 1, 79, 127
1, 103980, Note_on_c, 1, 76, 127
1, 103980, Note_on_c, 1, 70, 127
1, 103980, Note_on_c, 1, 50, 127
1, 103980, Note_on_c, 1, 38, 127
1, 104037, Note_off_c, 1, 79, 0
1, 104037, Note_off_c, 1, 76, 0
1, 104037, Note_off_c, 1, 70, 0
1, 104037, Note_off_c, 1, 50, 0
1, 104037, Note_off_c, 1, 38, 0
1, 104040, Note_on_c, 1, 79, 127
1, 104040, Note_on_c, 1, 76, 127
1, 104040, Note_on_c, 1, 70, 127
1, 104040, Note_on_c, 1, 50, 127
1, 104040, Note_on_c, 1, 38, 127
1, 104157, Note_off_c, 1, 50, 0
1, 104157, Note_off_c, 1, 38, 0
1, 104160, Note_on_c, 1, 62, 127
1, 104217, Note_off_c, 1, 62, 0
1, 104220, Note_on_c, 1, 61, 127
1, 104220, Note_on_c, 1, 49, 127
1, 104277, Note_off_c, 1, 70, 0
1, 104280, Note_off_c, 1, 79, 0
1, 104280, Note_on_c, 1, 77, 127
1, 104280, Note_on_c, 1, 69, 127
1, 104337, Note_off_c, 1, 61, 0
1, 104337, Note_off_c, 1, 49, 0
1, 104337, Note_off_c, 1, 77, 0
1, 104337, Note_off_c, 1, 69, 0
1, 104340, Note_on_c, 1, 67, 127
1, 104340, Note_on_c, 1, 37, 127
1, 104397, Note_off_c, 1, 67, 0
1, 104397, Note_off_c, 1, 37, 0
1, 104400, Note_on_c, 1, 82, 127
1, 104457, Note_off_c, 1, 82, 0
1, 104460, Note_on_c, 1, 81, 127
1, 104460, Note_on_c, 1, 65, 127
1, 104517, Note_off_c, 1, 81, 0
1, 104517, Note_off_c, 1, 65, 0
1, 104520, Note_on_c, 1, 64, 127
1, 104577, Note_off_c, 1, 64, 0
1, 104640, Note_off_c, 1, 76, 0
1, 104640, Note_on_c, 1, 74, 127
1, 104697, Note_off_c, 1, 74, 0
1, 104700, Note_on_c, 1, 72, 127
1, 104757, Note_off_c, 1, 72, 0
1, 104760, Note_on_c, 1, 26, 127
1, 104877, Note_off_c, 1, 26, 0
1, 104880, Note_on_c, 1, 60, 127
1, 104937, Note_off_c, 1, 60, 0
1, 104940, Note_on_c, 1, 68, 127
1, 104940, Note_on_c, 1, 59, 127
1, 104940, Note_on_c, 1, 52, 127
1, 104940, Note_on_c, 1, 40, 127
1, 105057, Note_off_c, 1, 52, 0
1, 105057, Note_off_c, 1, 40, 0
1, 105060, Note_on_c, 1, 28, 127
1, 105117, Note_off_c, 1, 59, 0
1, 105117, Note_off_c, 1, 28, 0
1, 105240, Note_on_c, 1, 71, 127
1, 105297, Note_off_c, 1, 68, 0
1, 105297, Note_off_c, 1, 71, 0
1, 105420, Note_on_c, 1, 74, 127
1, 105420, Note_on_c, 1, 69, 127
1, 105420, Note_on_c, 1, 65, 127
1, 105420, Note_on_c, 1, 62, 127
1, 105420, Note_on_c, 1, 59, 127
1, 105420, Note_on_c, 1, 40, 127
1, 105420, Note_on_c, 1, 28, 127
1, 105477, Note_off_c, 1, 74, 0
1, 105477, Note_off_c, 1, 69, 0
1, 105477, Note_off_c, 1, 65, 0
1, 105477, Note_off_c, 1, 62, 0
1, 105477, Note_off_c, 1, 59, 0
1, 105477, Note_off_c, 1, 40, 0
1, 105477, Note_off_c, 1, 28, 0
1, 105480, Note_on_c, 1, 65, 127
1, 105480, Note_on_c, 1, 62, 127
1, 105480, Note_on_c, 1, 40, 127
1, 105480, Note_on_c, 1, 28, 127
1, 105537, Note_off_c, 1, 65, 0
1, 105537, Note_off_c, 1, 62, 0
1, 105540, Note_on_c, 1, 64, 127
1, 105540, Note_on_c, 1, 60, 127
1, 105597, Note_off_c, 1, 40, 0
1, 105597, Note_off_c, 1, 28, 0
1, 105597, Note_off_c, 1, 64, 0
1, 105597, Note_off_c, 1, 60, 0
1, 105600, Note_on_c, 1, 62, 127
1, 105600, Note_on_c, 1, 59, 127
1, 105600, Note_on_c, 1, 52, 127
1, 105600, Note_on_c, 1, 40, 127
1, 105657, Note_off_c, 1, 62, 0
1, 105657, Note_off_c, 1, 59, 0
1, 105657, Note_off_c, 1, 52, 0
1, 105657, Note_off_c, 1, 40, 0
1, 105660, Note_on_c, 1, 77, 127
1, 105660, Note_on_c, 1, 74, 127
1, 105660, Note_on_c, 1, 68, 127
1, 105660, Note_on_c, 1, 62, 127
1, 105660, Note_on_c, 1, 59, 127
1, 105660, Note_on_c, 1, 52, 127
1, 105660, Note_on_c, 1, 40, 127
1, 105717, Note_off_c, 1, 77, 0
1, 105717, Note_off_c, 1, 74, 0
1, 105717, Note_off_c, 1, 68, 0
1, 105717, Note_off_c, 1, 62, 0
1, 105717, Note_off_c, 1, 59, 0
1, 105720, Note_on_c, 1, 76, 127
1, 105720, Note_on_c, 1, 72, 127
1, 105720, Note_on_c, 1, 69, 127
1, 105720, Note_on_c, 1, 64, 127
1, 105720, Note_on_c, 1, 60, 127
1, 105777, Note_off_c, 1, 52, 0
1, 105777, Note_off_c, 1, 40, 0
1, 105777, Note_off_c, 1, 76, 0
1, 105777, Note_off_c, 1, 72, 0
1, 105777, Note_off_c, 1, 69, 0
1, 105777, Note_off_c, 1, 64, 0
1, 105777, Note_off_c, 1, 60, 0
1, 105780, Note_on_c, 1, 74, 127
1, 105780, Note_on_c, 1, 71, 127
1, 105780, Note_on_c, 1, 65, 127
1, 105780, Note_on_c, 1, 62, 127
1, 105780, Note_on_c, 1, 40, 127
1, 105780, Note_on_c, 1, 28, 127
1, 105837, Note_off_c, 1, 74, 0
1, 105837, Note_off_c, 1, 71, 0
1, 105837, Note_off_c, 1, 65, 0
1, 105837, Note_off_c, 1, 62, 0
1, 105837, Note_off_c, 1, 40, 0
1, 105837, Note_off_c, 1, 28, 0
1, 105840, Note_on_c, 1, 74, 127
1, 105840, Note_on_c, 1, 71, 127
1, 105840, Note_on_c, 1, 62, 127
1, 105840, Note_on_c, 1, 65, 127
1, 105840, Note_on_c, 1, 40, 127
1, 105840, Note_on_c, 1, 28, 127
1, 105897, Note_off_c, 1, 74, 0
1, 105897, Note_off_c, 1, 71, 0
1, 105900, Note_on_c, 1, 72, 127
1, 105900, Note_on_c, 1, 69, 127
1, 105900, Note_on_c, 1, 64, 127
1, 105957, Note_off_c, 1, 40, 0
1, 105957, Note_off_c, 1, 28, 0
1, 105957, Note_off_c, 1, 72, 0
1, 105957, Note_off_c, 1, 69, 0
1, 105957, Note_off_c, 1, 64, 0
1, 105960, Note_on_c, 1, 68, 127
1, 105960, Note_on_c, 1, 52, 127
1, 106017, Note_off_c, 1, 68, 0
1, 106017, Note_off_c, 1, 52, 0
1, 106077, Note_off_c, 1, 62, 0
1, 106080, Note_on_c, 1, 60, 127
1, 106137, Note_off_c, 1, 65, 0
1, 106137, Note_off_c, 1, 60, 0
1, 106140, Note_on_c, 1, 62, 127
1, 106140, Note_on_c, 1, 59, 127
1, 106140, Note_on_c, 1, 40, 127
1, 106140, Note_on_c, 1, 28, 127
1, 106197, Note_off_c, 1, 62, 0
1, 106197, Note_off_c, 1, 59, 0
1, 106197, Note_off_c, 1, 40, 0
1, 106197, Note_off_c, 1, 28, 0
1, 106200, Note_on_c, 1, 71, 127
1, 106200, Note_on_c, 1, 62, 127
1, 106200, Note_on_c, 1, 40, 127
1, 106200, Note_on_c, 1, 28, 127
1, 106257, Note_off_c, 1, 71, 0
1, 106257, Note_off_c, 1, 62, 0
1, 106260, Note_on_c, 1, 64, 127
1, 106260, Note_on_c, 1, 60, 127
1, 106317, Note_off_c, 1, 40, 0
1, 106317, Note_off_c, 1, 28, 0
1, 106317, Note_off_c, 1, 64, 0
1, 106317, Note_off_c, 1, 60, 0
1, 106320, Note_on_c, 1, 62, 127
1, 106320, Note_on_c, 1, 59, 127
1, 106320, Note_on_c, 1, 52, 127
1, 106320, Note_on_c, 1, 40, 127
1, 106377, Note_off_c, 1, 62, 0
1, 106377, Note_off_c, 1, 59, 0
1, 106377, Note_off_c, 1, 52, 0
1, 106377, Note_off_c, 1, 40, 0
1, 106380, Note_on_c, 1, 76, 127
1, 106380, Note_on_c, 1, 73, 127
1, 106380, Note_on_c, 1, 52, 127
1, 106380, Note_on_c, 1, 61, 127
1, 106380, Note_on_c, 1, 57, 127
1, 106380, Note_on_c, 1, 55, 127
1, 106380, Note_on_c, 1, 43, 127
1, 106437, Note_off_c, 1, 76, 0
1, 106437, Note_off_c, 1, 73, 0
1, 106437, Note_off_c, 1, 52, 0
1, 106437, Note_off_c, 1, 61, 0
1, 106437, Note_off_c, 1, 57, 0
1, 106440, Note_on_c, 1, 74, 127
1, 106440, Note_on_c, 1, 71, 127
1, 106440, Note_on_c, 1, 53, 127
1, 106440, Note_on_c, 1, 62, 127
1, 106440, Note_on_c, 1, 59, 127
1, 106497, Note_off_c, 1, 55, 0
1, 106497, Note_off_c, 1, 43, 0
1, 106497, Note_off_c, 1, 74, 0
1, 106497, Note_off_c, 1, 71, 0
1, 106497, Note_off_c, 1, 53, 0
1, 106497, Note_off_c, 1, 62, 0
1, 106497, Note_off_c, 1, 59, 0
1, 106500, Note_on_c, 1, 73, 127
1, 106500, Note_on_c, 1, 69, 127
1, 106500, Note_on_c, 1, 55, 127
1, 106500, Note_on_c, 1, 64, 127
1, 106500, Note_on_c, 1, 61, 127
1, 106500, Note_on_c, 1, 43, 127
1, 106500, Note_on_c, 1, 31, 127
1, 106557, Note_off_c, 1, 73, 0
1, 106557, Note_off_c, 1, 69, 0
1, 106557, Note_off_c, 1, 55, 0
1, 106557, Note_off_c, 1, 64, 0
1, 106557, Note_off_c, 1, 61, 0
1, 106557, Note_off_c, 1, 43, 0
1, 106557, Note_off_c, 1, 31, 0
1, 106560, Note_on_c, 1, 73, 127
1, 106560, Note_on_c, 1, 64, 127
1, 106560, Note_on_c, 1, 52, 127
1, 106560, Note_on_c, 1, 61, 127
1, 106560, Note_on_c, 1, 43, 127
1, 106560, Note_on_c, 1, 31, 127
1, 106617, Note_off_c, 1, 73, 0
1, 106617, Note_off_c, 1, 52, 0
1, 106620, Note_on_c, 1, 71, 127
1, 106620, Note_on_c, 1, 62, 127
1, 106620, Note_on_c, 1, 53, 127
1, 106677, Note_off_c, 1, 43, 0
1, 106677, Note_off_c, 1, 31, 0
1, 106677, Note_off_c, 1, 71, 0
1, 106677, Note_off_c, 1, 62, 0
1, 106677, Note_off_c, 1, 53, 0
1, 106680, Note_on_c, 1, 69, 127
1, 106680, Note_on_c, 1, 55, 127
1, 106737, Note_off_c, 1, 69, 0
1, 106737, Note_off_c, 1, 55, 0
1, 106740, Note_on_c, 1, 57, 127
1, 106740, Note_on_c, 1, 41, 127
1, 106797, Note_off_c, 1, 64, 0
1, 106797, Note_off_c, 1, 61, 0
1, 106800, Note_on_c, 1, 65, 127
1, 106857, Note_off_c, 1, 41, 0
1, 106857, Note_off_c, 1, 65, 0
1, 106860, Note_on_c, 1, 29, 127
1, 106917, Note_off_c, 1, 29, 0
1, 106920, Note_on_c, 1, 60, 127
1, 106977, Note_off_c, 1, 57, 0
1, 106977, Note_off_c, 1, 60, 0
1, 106980, Note_on_c, 1, 56, 127
1, 106980, Note_on_c, 1, 59, 127
1, 107037, Note_off_c, 1, 56, 0
1, 107100, Note_on_c, 1, 68, 127
1, 107100, Note_on_c, 1, 40, 127
1, 107217, Note_off_c, 1, 59, 0
1, 107217, Note_off_c, 1, 40, 0
1, 107220, Note_on_c, 1, 28, 127
1, 107277, Note_off_c, 1, 68, 0
1, 107277, Note_off_c, 1, 28, 0
1, 107280, Note_on_c, 1, 68, 127
1, 107280, Note_on_c, 1, 64, 127
1, 107280, Note_on_c, 1, 40, 127
1, 107280, Note_on_c, 1, 28, 127
1, 107337, Note_off_c, 1, 68, 0
1, 107340, Note_on_c, 1, 69, 127
1, 107397, Note_off_c, 1, 40, 0
1, 107397, Note_off_c, 1, 28, 0
1, 107397, Note_off_c, 1, 69, 0
1, 107400, Note_on_c, 1, 71, 127
1, 107400, Note_on_c, 1, 62, 127
1, 107400, Note_on_c, 1, 56, 127
1, 107400, Note_on_c, 1, 44, 127
1, 107457, Note_off_c, 1, 71, 0
1, 107457, Note_off_c, 1, 62, 0
1, 107457, Note_off_c, 1, 56, 0
1, 107457, Note_off_c, 1, 44, 0
1, 107460, Note_on_c, 1, 72, 127
1, 107460, Note_on_c, 1, 60, 127
1, 107460, Note_on_c, 1, 57, 127
1, 107460, Note_on_c, 1, 45, 127
1, 107517, Note_off_c, 1, 64, 0
1, 107517, Note_off_c, 1, 72, 0
1, 107517, Note_off_c, 1, 60, 0
1, 107520, Note_on_c, 1, 65, 127
1, 107577, Note_off_c, 1, 57, 0
1, 107577, Note_off_c, 1, 45, 0
1, 107577, Note_off_c, 1, 65, 0
1, 107580, Note_on_c, 1, 69, 127
1, 107580, Note_on_c, 1, 64, 127
1, 107580, Note_on_c, 1, 60, 127
1, 107580, Note_on_c, 1, 48, 127
1, 107580, Note_on_c, 1, 36, 127
1, 107637, Note_off_c, 1, 69, 0
1, 107637, Note_off_c, 1, 64, 0
1, 107637, Note_off_c, 1, 60, 0
1, 107637, Note_off_c, 1, 48, 0
1, 107637, Note_off_c, 1, 36, 0
1, 107640, Note_on_c, 1, 68, 127
1, 107640, Note_on_c, 1, 64, 127
1, 107640, Note_on_c, 1, 59, 127
1, 107640, Note_on_c, 1, 62, 127
1, 107640, Note_on_c, 1, 52, 127
1, 107640, Note_on_c, 1, 40, 127
1, 107697, Note_off_c, 1, 68, 0
1, 107697, Note_off_c, 1, 62, 0
1, 107700, Note_on_c, 1, 65, 127
1, 107700, Note_on_c, 1, 60, 127
1, 107700, Note_on_c, 1, 57, 127
1, 107757, Note_off_c, 1, 52, 0
1, 107757, Note_off_c, 1, 40, 0
1, 107757, Note_off_c, 1, 65, 0
1, 107757, Note_off_c, 1, 60, 0
1, 107757, Note_off_c, 1, 57, 0
1, 107760, Note_on_c, 1, 55, 127
1, 107760, Note_on_c, 1, 28, 127
1, 107817, Note_off_c, 1, 64, 0
1, 107817, Note_off_c, 1, 59, 0
1, 107817, Note_off_c, 1, 55, 0
1, 107817, Note_off_c, 1, 28, 0
1, 107820, Note_on_c, 1, 60, 127
1, 107820, Note_on_c, 1, 64, 127
1, 107820, Note_on_c, 1, 57, 127
1, 107820, Note_on_c, 1, 45, 127
1, 107937, Note_off_c, 1, 60, 0
1, 107937, Note_off_c, 1, 64, 0
1, 107937, Note_off_c, 1, 57, 0
1, 107937, Note_off_c, 1, 45, 0
1, 107940, Note_on_c, 1, 59, 127
1, 107940, Note_on_c, 1, 45, 127
1, 107940, Note_on_c, 1, 33, 127
1, 107997, Note_off_c, 1, 59, 0
1, 107997, Note_off_c, 1, 45, 0
1, 107997, Note_off_c, 1, 33, 0
1, 108000, Note_on_c, 1, 60, 127
1, 108000, Note_on_c, 1, 45, 127
1, 108000, Note_on_c, 1, 33, 127
1, 108117, Note_off_c, 1, 45, 0
1, 108117, Note_off_c, 1, 33, 0
1, 108120, Note_on_c, 1, 64, 127
1, 108120, Note_on_c, 1, 57, 127
1, 108177, Note_off_c, 1, 64, 0
1, 108177, Note_off_c, 1, 57, 0
1, 108180, Note_on_c, 1, 63, 127
1, 108180, Note_on_c, 1, 59, 127
1, 108180, Note_on_c, 1, 47, 127
1, 108237, Note_off_c, 1, 60, 0
1, 108237, Note_off_c, 1, 63, 0
1, 108297, Note_off_c, 1, 59, 0
1, 108297, Note_off_c, 1, 47, 0
1, 108300, Note_on_c, 1, 66, 127
1, 108300, Note_on_c, 1, 57, 127
1, 108300, Note_on_c, 1, 47, 127
1, 108300, Note_on_c, 1, 35, 127
1, 108357, Note_off_c, 1, 47, 0
1, 108357, Note_off_c, 1, 35, 0
1, 108417, Note_off_c, 1, 66, 0
1, 108417, Note_off_c, 1, 57, 0
1, 108420, Note_on_c, 1, 64, 127
1, 108420, Note_on_c, 1, 55, 127
1, 108477, Note_off_c, 1, 64, 0
1, 108477, Note_off_c, 1, 55, 0
1, 108480, Note_on_c, 1, 63, 127
1, 108480, Note_on_c, 1, 54, 127
1, 108480, Note_on_c, 1, 59, 127
1, 108480, Note_on_c, 1, 47, 127
1, 108537, Note_off_c, 1, 63, 0
1, 108537, Note_off_c, 1, 54, 0
1, 108537, Note_off_c, 1, 59, 0
1, 108537, Note_off_c, 1, 47, 0
1, 108540, Note_on_c, 1, 64, 127
1, 108540, Note_on_c, 1, 55, 127
1, 108540, Note_on_c, 1, 52, 127
1, 108540, Note_on_c, 1, 40, 127
1, 108597, Note_off_c, 1, 64, 0
1, 108597, Note_off_c, 1, 55, 0
1, 108600, Note_on_c, 1, 66, 127
1, 108600, Note_on_c, 1, 57, 127
1, 108657, Note_off_c, 1, 52, 0
1, 108657, Note_off_c, 1, 40, 0
1, 108657, Note_off_c, 1, 66, 0
1, 108657, Note_off_c, 1, 57, 0
1, 108660, Note_on_c, 1, 76, 127
1, 108660, Note_on_c, 1, 67, 127
1, 108660, Note_on_c, 1, 59, 127
1, 108660, Note_on_c, 1, 40, 127
1, 108660, Note_on_c, 1, 28, 127
1, 108717, Note_off_c, 1, 76, 0
1, 108717, Note_off_c, 1, 67, 0
1, 108717, Note_off_c, 1, 59, 0
1, 108717, Note_off_c, 1, 40, 0
1, 108717, Note_off_c, 1, 28, 0
1, 108720, Note_on_c, 1, 79, 127
1, 108720, Note_on_c, 1, 40, 127
1, 108720, Note_on_c, 1, 28, 127
1, 108837, Note_off_c, 1, 40, 0
1, 108837, Note_off_c, 1, 28, 0
1, 108840, Note_on_c, 1, 71, 127
1, 108840, Note_on_c, 1, 64, 127
1, 108840, Note_on_c, 1, 52, 127
1, 108897, Note_off_c, 1, 71, 0
1, 108897, Note_off_c, 1, 64, 0
1, 108897, Note_off_c, 1, 52, 0
1, 108900, Note_on_c, 1, 70, 127
1, 108900, Note_on_c, 1, 61, 127
1, 108900, Note_on_c, 1, 54, 127
1, 108900, Note_on_c, 1, 42, 127
1, 108957, Note_off_c, 1, 79, 0
1, 108957, Note_off_c, 1, 70, 0
1, 108960, Note_on_c, 1, 78, 127
1, 109017, Note_off_c, 1, 61, 0
1, 109017, Note_off_c, 1, 54, 0
1, 109017, Note_off_c, 1, 42, 0
1, 109017, Note_off_c, 1, 78, 0
1, 109020, Note_on_c, 1, 76, 127
1, 109020, Note_on_c, 1, 73, 127
1, 109020, Note_on_c, 1, 70, 127
1, 109020, Note_on_c, 1, 42, 127
1, 109020, Note_on_c, 1, 30, 127
1, 109077, Note_off_c, 1, 70, 0
1, 109077, Note_off_c, 1, 42, 0
1, 109077, Note_off_c, 1, 30, 0
1, 109137, Note_off_c, 1, 76, 0
1, 109137, Note_off_c, 1, 73, 0
1, 109140, Note_on_c, 1, 75, 127
1, 109140, Note_on_c, 1, 71, 127
1, 109197, Note_off_c, 1, 75, 0
1, 109197, Note_off_c, 1, 71, 0
1, 109200, Note_on_c, 1, 73, 127
1, 109200, Note_on_c, 1, 70, 127
1, 109200, Note_on_c, 1, 54, 127
1, 109200, Note_on_c, 1, 42, 127
1, 109257, Note_off_c, 1, 73, 0
1, 109257, Note_off_c, 1, 70, 0
1, 109257, Note_off_c, 1, 54, 0
1, 109257, Note_off_c, 1, 42, 0
1, 109260, Note_on_c, 1, 75, 127
1, 109260, Note_on_c, 1, 71, 127
1, 109260, Note_on_c, 1, 66, 127
1, 109260, Note_on_c, 1, 59, 127
1, 109260, Note_on_c, 1, 47, 127
1, 109317, Note_off_c, 1, 75, 0
1, 109317, Note_off_c, 1, 71, 0
1, 109320, Note_on_c, 1, 76, 127
1, 109320, Note_on_c, 1, 73, 127
1, 109377, Note_off_c, 1, 66, 0
1, 109377, Note_off_c, 1, 59, 0
1, 109377, Note_off_c, 1, 47, 0
1, 109377, Note_off_c, 1, 76, 0
1, 109377, Note_off_c, 1, 73, 0
1, 109380, Note_on_c, 1, 78, 127
1, 109380, Note_on_c, 1, 75, 127
1, 109380, Note_on_c, 1, 71, 127
1, 109380, Note_on_c, 1, 66, 127
1, 109380, Note_on_c, 1, 47, 127
1, 109380, Note_on_c, 1, 35, 127
1, 109437, Note_off_c, 1, 78, 0
1, 109437, Note_off_c, 1, 75, 0
1, 109437, Note_off_c, 1, 71, 0
1, 109437, Note_off_c, 1, 66, 0
1, 109437, Note_off_c, 1, 47, 0
1, 109437, Note_off_c, 1, 35, 0
1, 109440, Note_on_c, 1, 78, 127
1, 109440, Note_on_c, 1, 75, 127
1, 109440, Note_on_c, 1, 66, 127
1, 109440, Note_on_c, 1, 72, 127
1, 109440, Note_on_c, 1, 47, 127
1, 109440, Note_on_c, 1, 35, 127
1, 109497, Note_off_c, 1, 78, 0
1, 109497, Note_off_c, 1, 75, 0
1, 109497, Note_off_c, 1, 66, 0
1, 109500, Note_on_c, 1, 79, 127
1, 109500, Note_on_c, 1, 76, 127
1, 109500, Note_on_c, 1, 64, 127
1, 109557, Note_off_c, 1, 47, 0
1, 109557, Note_off_c, 1, 35, 0
1, 109557, Note_off_c, 1, 79, 0
1, 109557, Note_off_c, 1, 76, 0
1, 109557, Note_off_c, 1, 64, 0
1, 109560, Note_on_c, 1, 81, 127
1, 109560, Note_on_c, 1, 63, 127
1, 109560, Note_on_c, 1, 57, 127
1, 109560, Note_on_c, 1, 59, 127
1, 109617, Note_off_c, 1, 81, 0
1, 109617, Note_off_c, 1, 63, 0
1, 109617, Note_off_c, 1, 57, 0
1, 109617, Note_off_c, 1, 59, 0
1, 109677, Note_off_c, 1, 72, 0
1, 109680, Note_on_c, 1, 71, 127
1, 109737, Note_off_c, 1, 71, 0
1, 109740, Note_on_c, 1, 69, 127
1, 109740, Note_on_c, 1, 66, 127
1, 109740, Note_on_c, 1, 47, 127
1, 109740, Note_on_c, 1, 35, 127
1, 109797, Note_off_c, 1, 47, 0
1, 109797, Note_off_c, 1, 35, 0
1, 109857, Note_off_c, 1, 69, 0
1, 109857, Note_off_c, 1, 66, 0
1, 109860, Note_on_c, 1, 67, 127
1, 109860, Note_on_c, 1, 64, 127
1, 109917, Note_off_c, 1, 67, 0
1, 109917, Note_off_c, 1, 64, 0
1, 109920, Note_on_c, 1, 66, 127
1, 109920, Note_on_c, 1, 63, 127
1, 109920, Note_on_c, 1, 59, 127
1, 109920, Note_on_c, 1, 47, 127
1, 109977, Note_off_c, 1, 66, 0
1, 109977, Note_off_c, 1, 63, 0
1, 109977, Note_off_c, 1, 59, 0
1, 109977, Note_off_c, 1, 47, 0
1, 109980, Note_on_c, 1, 71, 127
1, 109980, Note_on_c, 1, 67, 127
1, 109980, Note_on_c, 1, 64, 127
1, 109980, Note_on_c, 1, 52, 127
1, 109980, Note_on_c, 1, 40, 127
1, 110037, Note_off_c, 1, 71, 0
1, 110037, Note_off_c, 1, 67, 0
1, 110040, Note_on_c, 1, 69, 127
1, 110040, Note_on_c, 1, 66, 127
1, 110097, Note_off_c, 1, 52, 0
1, 110097, Note_off_c, 1, 40, 0
1, 110097, Note_off_c, 1, 69, 0
1, 110097, Note_off_c, 1, 66, 0
1, 110100, Note_on_c, 1, 28, 127
1, 110157, Note_off_c, 1, 28, 0
1, 110160, Note_on_c, 1, 72, 127
1, 110217, Note_off_c, 1, 72, 0
1, 110280, Note_on_c, 1, 57, 127
1, 110337, Note_off_c, 1, 64, 0
1, 110337, Note_off_c, 1, 57, 0
1, 110340, Note_on_c, 1, 69, 127
1, 110340, Note_on_c, 1, 66, 127
1, 110340, Note_on_c, 1, 63, 127
1, 110340, Note_on_c, 1, 72, 127
1, 110340, Note_on_c, 1, 57, 127
1, 110340, Note_on_c, 1, 52, 127
1, 110340, Note_on_c, 1, 40, 127
1, 110397, Note_off_c, 1, 69, 0
1, 110397, Note_off_c, 1, 66, 0
1, 110397, Note_off_c, 1, 72, 0
1, 110397, Note_off_c, 1, 57, 0
1, 110400, Note_on_c, 1, 71, 127
1, 110400, Note_on_c, 1, 67, 127
1, 110400, Note_on_c, 1, 55, 127
1, 110457, Note_off_c, 1, 52, 0
1, 110457, Note_off_c, 1, 40, 0
1, 110457, Note_off_c, 1, 71, 0
1, 110457, Note_off_c, 1, 67, 0
1, 110457, Note_off_c, 1, 55, 0
1, 110460, Note_on_c, 1, 54, 127
1, 110460, Note_on_c, 1, 28, 127
1, 110517, Note_off_c, 1, 54, 0
1, 110517, Note_off_c, 1, 28, 0
1, 110520, Note_on_c, 1, 60, 127
1, 110577, Note_off_c, 1, 63, 0
1, 110577, Note_off_c, 1, 60, 0
1, 110580, Note_on_c, 1, 64, 127
1, 110580, Note_on_c, 1, 59, 127
1, 110637, Note_off_c, 1, 64, 0
1, 110637, Note_off_c, 1, 59, 0
1, 110700, Note_on_c, 1, 51, 127
1, 110700, Note_on_c, 1, 39, 127
1, 110817, Note_off_c, 1, 51, 0
1, 110817, Note_off_c, 1, 39, 0
1, 110820, Note_on_c, 1, 27, 127
1, 110877, Note_off_c, 1, 27, 0
1, 110880, Note_on_c, 1, 78, 127
1, 110880, Note_on_c, 1, 69, 127
1, 110880, Note_on_c, 1, 59, 127
1, 110880, Note_on_c, 1, 39, 127
1, 110880, Note_on_c, 1, 27, 127
1, 110937, Note_off_c, 1, 78, 0
1, 110940, Note_off_c, 1, 69, 0
1, 110940, Note_on_c, 1, 71, 127
1, 110940, Note_on_c, 1, 67, 127
1, 110997, Note_off_c, 1, 39, 0
1, 110997, Note_off_c, 1, 27, 0
1, 110997, Note_off_c, 1, 67, 0
1, 110998, Note_off_c, 1, 71, 0
1, 111000, Note_on_c, 1, 66, 127
1, 111000, Note_on_c, 1, 54, 127
1, 111000, Note_on_c, 1, 51, 127
1, 111057, Note_off_c, 1, 66, 0
1, 111057, Note_off_c, 1, 54, 0
1, 111057, Note_off_c, 1, 51, 0
1, 111060, Note_on_c, 1, 68, 127
1, 111060, Note_on_c, 1, 64, 127
1, 111060, Note_on_c, 1, 56, 127
1, 111060, Note_on_c, 1, 50, 127
1, 111060, Note_on_c, 1, 38, 127
1, 111117, Note_off_c, 1, 59, 0
1, 111117, Note_off_c, 1, 68, 0
1, 111117, Note_off_c, 1, 64, 0
1, 111117, Note_off_c, 1, 56, 0
1, 111120, Note_on_c, 1, 60, 127
1, 111177, Note_off_c, 1, 50, 0
1, 111177, Note_off_c, 1, 38, 0
1, 111177, Note_off_c, 1, 60, 0
1, 111180, Note_on_c, 1, 71, 127
1, 111180, Note_on_c, 1, 68, 127
1, 111180, Note_on_c, 1, 62, 127
1, 111180, Note_on_c, 1, 52, 127
1, 111180, Note_on_c, 1, 38, 127
1, 111180, Note_on_c, 1, 26, 127
1, 111237, Note_off_c, 1, 71, 0
1, 111237, Note_off_c, 1, 62, 0
1, 111237, Note_off_c, 1, 52, 0
1, 111237, Note_off_c, 1, 38, 0
1, 111237, Note_off_c, 1, 26, 0
1, 111240, Note_on_c, 1, 64, 127
1, 111240, Note_on_c, 1, 59, 127
1, 111297, Note_off_c, 1, 59, 0
1, 111300, Note_on_c, 1, 66, 127
1, 111300, Note_on_c, 1, 57, 127
1, 111357, Note_off_c, 1, 66, 0
1, 111357, Note_off_c, 1, 57, 0
1, 111360, Note_on_c, 1, 56, 127
1, 111360, Note_on_c, 1, 50, 127
1, 111417, Note_off_c, 1, 50, 0
1, 111420, Note_on_c, 1, 48, 127
1, 111420, Note_on_c, 1, 36, 127
1, 111477, Note_off_c, 1, 56, 0
1, 111480, Note_off_c, 1, 68, 0
1, 111480, Note_on_c, 1, 69, 127
1, 111480, Note_on_c, 1, 60, 127
1, 111537, Note_off_c, 1, 48, 0
1, 111537, Note_off_c, 1, 36, 0
1, 111537, Note_off_c, 1, 69, 0
1, 111537, Note_off_c, 1, 60, 0
1, 111540, Note_on_c, 1, 24, 127
1, 111597, Note_off_c, 1, 24, 0
1, 111600, Note_on_c, 1, 76, 127
1, 111600, Note_on_c, 1, 67, 127
1, 111657, Note_off_c, 1, 64, 0
1, 111657, Note_off_c, 1, 76, 0
1, 111657, Note_off_c, 1, 67, 0
1, 111660, Note_on_c, 1, 54, 127
1, 111660, Note_on_c, 1, 63, 127
1, 111717, Note_off_c, 1, 54, 0
1, 111717, Note_off_c, 1, 63, 0
1, 111780, Note_on_c, 1, 47, 127
1, 111780, Note_on_c, 1, 35, 127
1, 111897, Note_off_c, 1, 47, 0
1, 111897, Note_off_c, 1, 35, 0
1, 111960, Note_on_c, 1, 75, 127
1, 112017, Note_off_c, 1, 75, 0
1, 112080, Note_on_c, 1, 78, 127
1, 112080, Note_on_c, 1, 51, 127
1, 112080, Note_on_c, 1, 39, 127
1, 112137, Note_off_c, 1, 78, 0
1, 112137, Note_off_c, 1, 51, 0
1, 112137, Note_off_c, 1, 39, 0
1, 112140, Note_on_c, 1, 40, 127
1, 112200, Note_on_c, 1, 72, 127
1, 112257, Note_off_c, 1, 40, 0
1, 112258, Note_off_c, 1, 72, 0
1, 112260, Note_on_c, 1, 43, 127
1, 112260, Note_on_c, 1, 31, 127
1, 112317, Note_off_c, 1, 43, 0
1, 112317, Note_off_c, 1, 31, 0
1, 112320, Note_on_c, 1, 69, 127
1, 112320, Note_on_c, 1, 66, 127
1, 112320, Note_on_c, 1, 63, 127
1, 112320, Note_on_c, 1, 60, 127
1, 112320, Note_on_c, 1, 45, 127
1, 112320, Note_on_c, 1, 33, 127
1, 112377, Note_off_c, 1, 69, 0
1, 112377, Note_off_c, 1, 60, 0
1, 112380, Note_on_c, 1, 67, 127
1, 112380, Note_on_c, 1, 64, 127
1, 112380, Note_on_c, 1, 59, 127
1, 112437, Note_off_c, 1, 66, 0
1, 112437, Note_off_c, 1, 63, 0
1, 112437, Note_off_c, 1, 45, 0
1, 112437, Note_off_c, 1, 33, 0
1, 112437, Note_off_c, 1, 67, 0
1, 112437, Note_off_c, 1, 64, 0
1, 112437, Note_off_c, 1, 59, 0
1, 112440, Note_on_c, 1, 66, 127
1, 112440, Note_on_c, 1, 63, 127
1, 112440, Note_on_c, 1, 59, 127
1, 112440, Note_on_c, 1, 57, 127
1, 112440, Note_on_c, 1, 47, 127
1, 112440, Note_on_c, 1, 35, 127
1, 112497, Note_off_c, 1, 66, 0
1, 112497, Note_off_c, 1, 63, 0
1, 112497, Note_off_c, 1, 59, 0
1, 112497, Note_off_c, 1, 57, 0
1, 112497, Note_off_c, 1, 47, 0
1, 112497, Note_off_c, 1, 35, 0
1, 112500, Note_on_c, 1, 64, 127
1, 112500, Note_on_c, 1, 67, 127
1, 112500, Note_on_c, 1, 55, 127
1, 112500, Note_on_c, 1, 48, 127
1, 112500, Note_on_c, 1, 36, 127
1, 112557, Note_off_c, 1, 48, 0
1, 112557, Note_off_c, 1, 36, 0
1, 112617, Note_off_c, 1, 64, 0
1, 112617, Note_off_c, 1, 67, 0
1, 112617, Note_off_c, 1, 55, 0
1, 112620, Note_on_c, 1, 64, 127
1, 112620, Note_on_c, 1, 48, 127
1, 112620, Note_on_c, 1, 36, 127
1, 112677, Note_off_c, 1, 64, 0
1, 112677, Note_off_c, 1, 48, 0
1, 112677, Note_off_c, 1, 36, 0
1, 112680, Note_on_c, 1, 65, 127
1, 112680, Note_on_c, 1, 45, 127
1, 112680, Note_on_c, 1, 33, 127
1, 112737, Note_off_c, 1, 45, 0
1, 112737, Note_off_c, 1, 33, 0
1, 112800, Note_on_c, 1, 60, 127
1, 112857, Note_off_c, 1, 60, 0
1, 112860, Note_on_c, 1, 58, 127
1, 112860, Note_on_c, 1, 43, 127
1, 112860, Note_on_c, 1, 31, 127
1, 112917, Note_off_c, 1, 65, 0
1, 112917, Note_off_c, 1, 58, 0
1, 112917, Note_off_c, 1, 43, 0
1, 112917, Note_off_c, 1, 31, 0
1, 112920, Note_on_c, 1, 64, 127
1, 112920, Note_on_c, 1, 58, 127
1, 112920, Note_on_c, 1, 43, 127
1, 112920, Note_on_c, 1, 31, 127
1, 112977, Note_off_c, 1, 64, 0
1, 112977, Note_off_c, 1, 58, 0
1, 112977, Note_off_c, 1, 43, 0
1, 112977, Note_off_c, 1, 31, 0
1, 112980, Note_on_c, 1, 63, 127
1, 112980, Note_on_c, 1, 58, 127
1, 112980, Note_on_c, 1, 43, 127
1, 112980, Note_on_c, 1, 31, 127
1, 113037, Note_off_c, 1, 58, 0
1, 113037, Note_off_c, 1, 43, 0
1, 113037, Note_off_c, 1, 31, 0
1, 113040, Note_on_c, 1, 57, 127
1, 113040, Note_on_c, 1, 48, 127
1, 113040, Note_on_c, 1, 36, 127
1, 113097, Note_off_c, 1, 63, 0
1, 113097, Note_off_c, 1, 57, 0
1, 113097, Note_off_c, 1, 48, 0
1, 113097, Note_off_c, 1, 36, 0
1, 113100, Note_on_c, 1, 64, 127
1, 113100, Note_on_c, 1, 57, 127
1, 113100, Note_on_c, 1, 48, 127
1, 113100, Note_on_c, 1, 36, 127
1, 113157, Note_off_c, 1, 64, 0
1, 113157, Note_off_c, 1, 57, 0
1, 113157, Note_off_c, 1, 48, 0
1, 113157, Note_off_c, 1, 36, 0
1, 113160, Note_on_c, 1, 66, 127
1, 113160, Note_on_c, 1, 57, 127
1, 113160, Note_on_c, 1, 48, 127
1, 113160, Note_on_c, 1, 36, 127
1, 113217, Note_off_c, 1, 57, 0
1, 113217, Note_off_c, 1, 48, 0
1, 113217, Note_off_c, 1, 36, 0
1, 113220, Note_on_c, 1, 56, 127
1, 113220, Note_on_c, 1, 47, 127
1, 113220, Note_on_c, 1, 35, 127
1, 113277, Note_off_c, 1, 66, 0
1, 113277, Note_off_c, 1, 56, 0
1, 113277, Note_off_c, 1, 47, 0
1, 113277, Note_off_c, 1, 35, 0
1, 113280, Note_on_c, 1, 70, 127
1, 113280, Note_on_c, 1, 54, 127
1, 113280, Note_on_c, 1, 47, 127
1, 113280, Note_on_c, 1, 35, 127
1, 113337, Note_off_c, 1, 70, 0
1, 113337, Note_off_c, 1, 54, 0
1, 113337, Note_off_c, 1, 47, 0
1, 113337, Note_off_c, 1, 35, 0
1, 113340, Note_on_c, 1, 71, 127
1, 113340, Note_on_c, 1, 55, 127
1, 113340, Note_on_c, 1, 47, 127
1, 113340, Note_on_c, 1, 35, 127
1, 113397, Note_off_c, 1, 71, 0
1, 113397, Note_off_c, 1, 55, 0
1, 113397, Note_off_c, 1, 47, 0
1, 113397, Note_off_c, 1, 35, 0
1, 113400, Note_on_c, 1, 64, 127
1, 113400, Note_on_c, 1, 54, 127
1, 113400, Note_on_c, 1, 47, 127
1, 113400, Note_on_c, 1, 35, 127
1, 113457, Note_off_c, 1, 64, 0
1, 113457, Note_off_c, 1, 47, 0
1, 113457, Note_off_c, 1, 35, 0
1, 113460, Note_on_c, 1, 63, 127
1, 113517, Note_off_c, 1, 54, 0
1, 113517, Note_off_c, 1, 63, 0
1, 113520, Note_on_c, 1, 64, 127
1, 113520, Note_on_c, 1, 52, 127
1, 113520, Note_on_c, 1, 47, 127
1, 113520, Note_on_c, 1, 35, 127
1, 113577, Note_off_c, 1, 64, 0
1, 113577, Note_off_c, 1, 52, 0
1, 113577, Note_off_c, 1, 47, 0
1, 113577, Note_off_c, 1, 35, 0
1, 113580, Note_on_c, 1, 71, 127
1, 113580, Note_on_c, 1, 67, 127
1, 113580, Note_on_c, 1, 64, 127
1, 113580, Note_on_c, 1, 52, 127
1, 113580, Note_on_c, 1, 40, 127
1, 113697, Note_off_c, 1, 71, 0
1, 113697, Note_off_c, 1, 67, 0
1, 113697, Note_off_c, 1, 52, 0
1, 113697, Note_off_c, 1, 40, 0
1, 113700, Note_on_c, 1, 69, 127
1, 113700, Note_on_c, 1, 66, 127
1, 113700, Note_on_c, 1, 28, 127
1, 113757, Note_off_c, 1, 69, 0
1, 113757, Note_off_c, 1, 66, 0
1, 113757, Note_off_c, 1, 28, 0
1, 113760, Note_on_c, 1, 72, 127
1, 113817, Note_off_c, 1, 64, 0
1, 113817, Note_off_c, 1, 72, 0
1, 113820, Note_on_c, 1, 62, 127
1, 113877, Note_off_c, 1, 62, 0
1, 113880, Note_on_c, 1, 69, 127
1, 113880, Note_on_c, 1, 66, 127
1, 113880, Note_on_c, 1, 60, 127
1, 113880, Note_on_c, 1, 52, 127
1, 113880, Note_on_c, 1, 40, 127
1, 113937, Note_off_c, 1, 69, 0
1, 113937, Note_off_c, 1, 66, 0
1, 113937, Note_off_c, 1, 60, 0
1, 113937, Note_off_c, 1, 52, 0
1, 113937, Note_off_c, 1, 40, 0
1, 113940, Note_on_c, 1, 69, 127
1, 113940, Note_on_c, 1, 66, 127
1, 113940, Note_on_c, 1, 60, 127
1, 113940, Note_on_c, 1, 52, 127
1, 113940, Note_on_c, 1, 40, 127
1, 113997, Note_off_c, 1, 69, 0
1, 113997, Note_off_c, 1, 66, 0
1, 113997, Note_off_c, 1, 60, 0
1, 114000, Note_on_c, 1, 71, 127
1, 114000, Note_on_c, 1, 67, 127
1, 114000, Note_on_c, 1, 59, 127
1, 114057, Note_off_c, 1, 52, 0
1, 114057, Note_off_c, 1, 40, 0
1, 114057, Note_off_c, 1, 71, 0
1, 114057, Note_off_c, 1, 67, 0
1, 114057, Note_off_c, 1, 59, 0
1, 114060, Note_on_c, 1, 72, 127
1, 114060, Note_on_c, 1, 69, 127
1, 114060, Note_on_c, 1, 57, 127
1, 114060, Note_on_c, 1, 40, 127
1, 114060, Note_on_c, 1, 28, 127
1, 114117, Note_off_c, 1, 72, 0
1, 114117, Note_off_c, 1, 69, 0
1, 114117, Note_off_c, 1, 57, 0
1, 114117, Note_off_c, 1, 40, 0
1, 114117, Note_off_c, 1, 28, 0
1, 114120, Note_on_c, 1, 72, 127
1, 114120, Note_on_c, 1, 69, 127
1, 114120, Note_on_c, 1, 64, 127
1, 114120, Note_on_c, 1, 40, 127
1, 114120, Note_on_c, 1, 28, 127
1, 114177, Note_off_c, 1, 64, 0
1, 114180, Note_on_c, 1, 63, 127
1, 114237, Note_off_c, 1, 40, 0
1, 114237, Note_off_c, 1, 28, 0
1, 114237, Note_off_c, 1, 63, 0
1, 114240, Note_on_c, 1, 52, 127
1, 114297, Note_off_c, 1, 52, 0
1, 114300, Note_on_c, 1, 66, 127
1, 114300, Note_on_c, 1, 51, 127
1, 114300, Note_on_c, 1, 39, 127
1, 114357, Note_off_c, 1, 69, 0
1, 114358, Note_off_c, 1, 72, 0
1, 114360, Note_on_c, 1, 71, 127
1, 114360, Note_on_c, 1, 67, 127
1, 114417, Note_off_c, 1, 51, 0
1, 114417, Note_off_c, 1, 39, 0
1, 114417, Note_off_c, 1, 71, 0
1, 114417, Note_off_c, 1, 67, 0
1, 114420, Note_on_c, 1, 27, 127
1, 114477, Note_off_c, 1, 66, 0
1, 114477, Note_off_c, 1, 27, 0
1, 114480, Note_on_c, 1, 78, 127
1, 114480, Note_on_c, 1, 69, 127
1, 114480, Note_on_c, 1, 59, 127
1, 114480, Note_on_c, 1, 39, 127
1, 114480, Note_on_c, 1, 27, 127
1, 114537, Note_off_c, 1, 78, 0
1, 114537, Note_off_c, 1, 69, 0
1, 114540, Note_on_c, 1, 71, 127
1, 114540, Note_on_c, 1, 67, 127
1, 114597, Note_off_c, 1, 39, 0
1, 114597, Note_off_c, 1, 27, 0
1, 114597, Note_off_c, 1, 71, 0
1, 114597, Note_off_c, 1, 67, 0
1, 114600, Note_on_c, 1, 66, 127
1, 114600, Note_on_c, 1, 51, 127
1, 114657, Note_off_c, 1, 66, 0
1, 114657, Note_off_c, 1, 51, 0
1, 114660, Note_on_c, 1, 68, 127
1, 114660, Note_on_c, 1, 64, 127
1, 114660, Note_on_c, 1, 50, 127
1, 114660, Note_on_c, 1, 38, 127
1, 114717, Note_off_c, 1, 68, 0
1, 114717, Note_off_c, 1, 64, 0
1, 114777, Note_off_c, 1, 59, 0
1, 114777, Note_off_c, 1, 50, 0
1, 114777, Note_off_c, 1, 38, 0
1, 114780, Note_on_c, 1, 71, 127
1, 114780, Note_on_c, 1, 68, 127
1, 114780, Note_on_c, 1, 64, 127
1, 114780, Note_on_c, 1, 38, 127
1, 114780, Note_on_c, 1, 26, 127
1, 114837, Note_off_c, 1, 71, 0
1, 114837, Note_off_c, 1, 64, 0
1, 114837, Note_off_c, 1, 38, 0
1, 114837, Note_off_c, 1, 26, 0
1, 114900, Note_on_c, 1, 62, 127
1, 114957, Note_off_c, 1, 62, 0
1, 114960, Note_on_c, 1, 50, 127
1, 115017, Note_off_c, 1, 50, 0
1, 115020, Note_on_c, 1, 48, 127
1, 115020, Note_on_c, 1, 36, 127
1, 115080, Note_off_c, 1, 68, 0
1, 115080, Note_on_c, 1, 69, 127
1, 115137, Note_off_c, 1, 48, 0
1, 115137, Note_off_c, 1, 36, 0
1, 115137, Note_off_c, 1, 69, 0
1, 115140, Note_on_c, 1, 24, 127
1, 115197, Note_off_c, 1, 24, 0
1, 115200, Note_on_c, 1, 76, 127
1, 115257, Note_off_c, 1, 76, 0
1, 115260, Note_on_c, 1, 66, 127
1, 115260, Note_on_c, 1, 63, 127
1, 115317, Note_off_c, 1, 66, 0
1, 115317, Note_off_c, 1, 63, 0
1, 115320, Note_on_c, 1, 67, 127
1, 115377, Note_off_c, 1, 67, 0
1, 115380, Note_on_c, 1, 69, 127
1, 115380, Note_on_c, 1, 63, 127
1, 115380, Note_on_c, 1, 66, 127
1, 115380, Note_on_c, 1, 47, 127
1, 115380, Note_on_c, 1, 35, 127
1, 115437, Note_off_c, 1, 69, 0
1, 115440, Note_on_c, 1, 67, 127
1, 115497, Note_off_c, 1, 63, 0
1, 115497, Note_off_c, 1, 66, 0
1, 115497, Note_off_c, 1, 47, 0
1, 115497, Note_off_c, 1, 35, 0
1, 115497, Note_off_c, 1, 67, 0
1, 115500, Note_on_c, 1, 66, 127
1, 115500, Note_on_c, 1, 63, 127
1, 115500, Note_on_c, 1, 59, 127
1, 115500, Note_on_c, 1, 47, 127
1, 115557, Note_off_c, 1, 66, 0
1, 115557, Note_off_c, 1, 63, 0
1, 115557, Note_off_c, 1, 59, 0
1, 115557, Note_off_c, 1, 47, 0
1, 115560, Note_on_c, 1, 75, 127
1, 115560, Note_on_c, 1, 69, 127
1, 115560, Note_on_c, 1, 59, 127
1, 115560, Note_on_c, 1, 47, 127
1, 115617, Note_off_c, 1, 75, 0
1, 115620, Note_on_c, 1, 76, 127
1, 115677, Note_off_c, 1, 69, 0
1, 115677, Note_off_c, 1, 59, 0
1, 115677, Note_off_c, 1, 47, 0
1, 115677, Note_off_c, 1, 76, 0
1, 115680, Note_on_c, 1, 78, 127
1, 115680, Note_on_c, 1, 72, 127
1, 115680, Note_on_c, 1, 69, 127
1, 115680, Note_on_c, 1, 51, 127
1, 115680, Note_on_c, 1, 39, 127
1, 115737, Note_off_c, 1, 78, 0
1, 115737, Note_off_c, 1, 72, 0
1, 115737, Note_off_c, 1, 69, 0
1, 115737, Note_off_c, 1, 51, 0
1, 115737, Note_off_c, 1, 39, 0
1, 115740, Note_on_c, 1, 67, 127
1, 115740, Note_on_c, 1, 71, 127
1, 115740, Note_on_c, 1, 52, 127
1, 115740, Note_on_c, 1, 40, 127
1, 115797, Note_off_c, 1, 67, 0
1, 115797, Note_off_c, 1, 71, 0
1, 115800, Note_on_c, 1, 72, 127
1, 115800, Note_on_c, 1, 69, 127
1, 115800, Note_on_c, 1, 63, 127
1, 115857, Note_off_c, 1, 52, 0
1, 115857, Note_off_c, 1, 40, 0
1, 115857, Note_off_c, 1, 72, 0
1, 115857, Note_off_c, 1, 69, 0
1, 115857, Note_off_c, 1, 63, 0
1, 115860, Note_on_c, 1, 71, 127
1, 115860, Note_on_c, 1, 67, 127
1, 115860, Note_on_c, 1, 64, 127
1, 115860, Note_on_c, 1, 55, 127
1, 115860, Note_on_c, 1, 43, 127
1, 115917, Note_off_c, 1, 71, 0
1, 115917, Note_off_c, 1, 67, 0
1, 115917, Note_off_c, 1, 64, 0
1, 115917, Note_off_c, 1, 55, 0
1, 115917, Note_off_c, 1, 43, 0
1, 115920, Note_on_c, 1, 69, 127
1, 115920, Note_on_c, 1, 66, 127
1, 115920, Note_on_c, 1, 59, 127
1, 115920, Note_on_c, 1, 47, 127
1, 115977, Note_off_c, 1, 69, 0
1, 115977, Note_off_c, 1, 66, 0
1, 115980, Note_on_c, 1, 67, 127
1, 115980, Note_on_c, 1, 64, 127
1, 116037, Note_off_c, 1, 59, 0
1, 116037, Note_off_c, 1, 47, 0
1, 116037, Note_off_c, 1, 67, 0
1, 116037, Note_off_c, 1, 64, 0
1, 116040, Note_on_c, 1, 66, 127
1, 116040, Note_on_c, 1, 63, 127
1, 116040, Note_on_c, 1, 57, 127
1, 116040, Note_on_c, 1, 47, 127
1, 116040, Note_on_c, 1, 35, 127
1, 116097, Note_off_c, 1, 66, 0
1, 116097, Note_off_c, 1, 63, 0
1, 116097, Note_off_c, 1, 57, 0
1, 116097, Note_off_c, 1, 47, 0
1, 116097, Note_off_c, 1, 35, 0
1, 116100, Note_on_c, 1, 64, 127
1, 116100, Note_on_c, 1, 55, 127
1, 116100, Note_on_c, 1, 52, 127
1, 116100, Note_on_c, 1, 40, 127
1, 116337, Note_off_c, 1, 64, 0
1, 116337, Note_off_c, 1, 55, 0
1, 116337, Note_off_c, 1, 52, 0
1, 116337, Note_off_c, 1, 40, 0
1, 117180, Note_on_c, 1, 55, 127
1, 117180, Note_on_c, 1, 43, 127
1, 117220, Note_off_c, 1, 55, 0
1, 117220, Note_off_c, 1, 43, 0
1, 117240, Note_on_c, 1, 67, 127
1, 117240, Note_on_c, 1, 62, 127
1, 117240, Note_on_c, 1, 59, 127
1, 117240, Note_on_c, 1, 55, 127
1, 117240, Note_on_c, 1, 43, 127
1, 117240, Note_on_c, 1, 31, 127
1, 117270, Note_on_c, 1, 57, 127
1, 117280, Note_off_c, 1, 67, 0
1, 117280, Note_off_c, 1, 62, 0
1, 117280, Note_off_c, 1, 59, 0
1, 117280, Note_off_c, 1, 55, 0
1, 117280, Note_off_c, 1, 43, 0
1, 117280, Note_off_c, 1, 31, 0
1, 117290, Note_off_c, 1, 57, 0
1, 117300, Note_on_c, 1, 71, 127
1, 117300, Note_on_c, 1, 67, 127
1, 117300, Note_on_c, 1, 62, 127
1, 117300, Note_on_c, 1, 55, 127
1, 117330, Note_on_c, 1, 43, 127
1, 117340, Note_off_c, 1, 71, 0
1, 117340, Note_off_c, 1, 67, 0
1, 117340, Note_off_c, 1, 62, 0
1, 117350, Note_off_c, 1, 55, 0
1, 117350, Note_off_c, 1, 43, 0
1, 117360, Note_on_c, 1, 74, 127
1, 117360, Note_on_c, 1, 71, 127
1, 117360, Note_on_c, 1, 67, 127
1, 117360, Note_on_c, 1, 62, 127
1, 117360, Note_on_c, 1, 55, 127
1, 117360, Note_on_c, 1, 43, 127
1, 117380, Note_off_c, 1, 43, 0
1, 117400, Note_off_c, 1, 74, 0
1, 117400, Note_off_c, 1, 71, 0
1, 117400, Note_off_c, 1, 67, 0
1, 117400, Note_off_c, 1, 62, 0
1, 117410, Note_off_c, 1, 55, 0
1, 117420, Note_on_c, 1, 71, 127
1, 117420, Note_on_c, 1, 67, 127
1, 117420, Note_on_c, 1, 62, 127
1, 117420, Note_on_c, 1, 74, 127
1, 117420, Note_on_c, 1, 55, 127
1, 117420, Note_on_c, 1, 53, 127
1, 117420, Note_on_c, 1, 41, 127
1, 117440, Note_off_c, 1, 55, 0
1, 117450, Note_on_c, 1, 50, 127
1, 117460, Note_off_c, 1, 62, 0
1, 117460, Note_off_c, 1, 41, 0
1, 117470, Note_off_c, 1, 50, 0
1, 117480, Note_off_c, 1, 53, 0
1, 117480, Note_on_c, 1, 79, 127
1, 117480, Note_on_c, 1, 52, 127
1, 117480, Note_on_c, 1, 29, 127
1, 117500, Note_off_c, 1, 52, 0
1, 117520, Note_off_c, 1, 79, 0
1, 117520, Note_off_c, 1, 29, 0
1, 117530, Note_off_c, 1, 71, 0
1, 117530, Note_off_c, 1, 67, 0
1, 117530, Note_off_c, 1, 74, 0
1, 117540, Note_on_c, 1, 74, 127
1, 117540, Note_on_c, 1, 71, 127
1, 117540, Note_on_c, 1, 67, 127
1, 117540, Note_on_c, 1, 62, 127
1, 117540, Note_on_c, 1, 59, 127
1, 117540, Note_on_c, 1, 55, 127
1, 117540, Note_on_c, 1, 53, 127
1, 117560, Note_off_c, 1, 55, 0
1, 117570, Note_on_c, 1, 41, 127
1, 117590, Note_off_c, 1, 41, 0
1, 117600, Note_off_c, 1, 59, 0
1, 117600, Note_on_c, 1, 79, 127
1, 117600, Note_on_c, 1, 57, 127
1, 117620, Note_off_c, 1, 71, 0
1, 117620, Note_off_c, 1, 67, 0
1, 117620, Note_off_c, 1, 53, 0
1, 117620, Note_off_c, 1, 57, 0
1, 117640, Note_off_c, 1, 74, 0
1, 117640, Note_off_c, 1, 79, 0
1, 117650, Note_off_c, 1, 62, 0
1, 117660, Note_on_c, 1, 72, 127
1, 117660, Note_on_c, 1, 67, 127
1, 117660, Note_on_c, 1, 64, 127
1, 117660, Note_on_c, 1, 60, 127
1, 117660, Note_on_c, 1, 52, 127
1, 117660, Note_on_c, 1, 40, 127
1, 117690, Note_on_c, 1, 50, 127
1, 117700, Note_off_c, 1, 52, 0
1, 117700, Note_off_c, 1, 40, 0
1, 117710, Note_off_c, 1, 50, 0
1, 117720, Note_on_c, 1, 28, 127
1, 117740, Note_off_c, 1, 64, 0
1, 117740, Note_off_c, 1, 60, 0
1, 117750, Note_on_c, 1, 54, 127
1, 117760, Note_off_c, 1, 28, 0
1, 117770, Note_off_c, 1, 72, 0
1, 117770, Note_off_c, 1, 67, 0
1, 117770, Note_off_c, 1, 54, 0
1, 117780, Note_on_c, 1, 72, 127
1, 117780, Note_on_c, 1, 67, 127
1, 117780, Note_on_c, 1, 64, 127
1, 117780, Note_on_c, 1, 76, 127
1, 117780, Note_on_c, 1, 55, 127
1, 117780, Note_on_c, 1, 52, 127
1, 117800, Note_off_c, 1, 55, 0
1, 117810, Note_on_c, 1, 57, 127
1, 117810, Note_on_c, 1, 40, 127
1, 117820, Note_off_c, 1, 76, 0
1, 117830, Note_off_c, 1, 52, 0
1, 117830, Note_off_c, 1, 57, 0
1, 117830, Note_off_c, 1, 40, 0
1, 117840, Note_on_c, 1, 59, 127
1, 117860, Note_off_c, 1, 59, 0
1, 117880, Note_off_c, 1, 72, 0
1, 117880, Note_off_c, 1, 67, 0
1, 117880, Note_off_c, 1, 64, 0
1, 117900, Note_on_c, 1, 71, 127
1, 117900, Note_on_c, 1, 67, 127
1, 117900, Note_on_c, 1, 62, 127
1, 117900, Note_on_c, 1, 79, 127
1, 117900, Note_on_c, 1, 74, 127
1, 117900, Note_on_c, 1, 55, 127
1, 117900, Note_on_c, 1, 47, 127
1, 117900, Note_on_c, 1, 35, 127
1, 117920, Note_off_c, 1, 55, 0
1, 117940, Note_off_c, 1, 71, 0
1, 117940, Note_off_c, 1, 35, 0
1, 117950, Note_off_c, 1, 62, 0
1, 117960, Note_on_c, 1, 50, 127
1, 117960, Note_on_c, 1, 59, 127
1, 117980, Note_off_c, 1, 50, 0
1, 117990, Note_on_c, 1, 52, 127
1, 118000, Note_off_c, 1, 59, 0
1, 118010, Note_off_c, 1, 67, 0
1, 118010, Note_off_c, 1, 79, 0
1, 118010, Note_off_c, 1, 74, 0
1, 118010, Note_off_c, 1, 47, 0
1, 118010, Note_off_c, 1, 52, 0
1, 118020, Note_on_c, 1, 74, 127
1, 118020, Note_on_c, 1, 71, 127
1, 118020, Note_on_c, 1, 67, 127
1, 118020, Note_on_c, 1, 62, 127
1, 118020, Note_on_c, 1, 59, 127
1, 118020, Note_on_c, 1, 79, 127
1, 118020, Note_on_c, 1, 54, 127
1, 118020, Note_on_c, 1, 47, 127
1, 118040, Note_off_c, 1, 54, 0
1, 118050, Note_on_c, 1, 55, 127
1, 118050, Note_on_c, 1, 35, 127
1, 118060, Note_off_c, 1, 71, 0
1, 118070, Note_off_c, 1, 55, 0
1, 118070, Note_off_c, 1, 35, 0
1, 118080, Note_off_c, 1, 62, 0
1, 118080, Note_off_c, 1, 59, 0
1, 118080, Note_on_c, 1, 57, 127
1, 118100, Note_off_c, 1, 47, 0
1, 118100, Note_off_c, 1, 57, 0
1, 118120, Note_off_c, 1, 74, 0
1, 118120, Note_off_c, 1, 79, 0
1, 118130, Note_off_c, 1, 67, 0
1, 118140, Note_on_c, 1, 76, 127
1, 118140, Note_on_c, 1, 72, 127
1, 118140, Note_on_c, 1, 67, 127
1, 118140, Note_on_c, 1, 60, 127
1, 118140, Note_on_c, 1, 64, 127
1, 118140, Note_on_c, 1, 48, 127
1, 118140, Note_on_c, 1, 36, 127
1, 118180, Note_off_c, 1, 48, 0
1, 118180, Note_off_c, 1, 36, 0
1, 118200, Note_off_c, 1, 76, 0
1, 118200, Note_off_c, 1, 72, 0
1, 118200, Note_on_c, 1, 65, 127
1, 118220, Note_off_c, 1, 67, 0
1, 118220, Note_off_c, 1, 64, 0
1, 118220, Note_off_c, 1, 65, 0
1, 118240, Note_off_c, 1, 60, 0
1, 118260, Note_on_c, 1, 76, 127
1, 118260, Note_on_c, 1, 72, 127
1, 118260, Note_on_c, 1, 67, 127
1, 118260, Note_on_c, 1, 64, 127
1, 118280, Note_off_c, 1, 64, 0
1, 118290, Note_on_c, 1, 65, 127
1, 118290, Note_on_c, 1, 48, 127
1, 118290, Note_on_c, 1, 36, 127
1, 118310, Note_off_c, 1, 65, 0
1, 118310, Note_off_c, 1, 48, 0
1, 118310, Note_off_c, 1, 36, 0
1, 118320, Note_on_c, 1, 62, 127
1, 118340, Note_off_c, 1, 76, 0
1, 118340, Note_off_c, 1, 72, 0
1, 118340, Note_off_c, 1, 67, 0
1, 118340, Note_off_c, 1, 62, 0
1, 118350, Note_on_c, 1, 64, 127
1, 118350, Note_on_c, 1, 48, 127
1, 118350, Note_on_c, 1, 36, 127
1, 118370, Note_off_c, 1, 64, 0
1, 118370, Note_off_c, 1, 48, 0
1, 118370, Note_off_c, 1, 36, 0
1, 118380, Note_on_c, 1, 60, 127
1, 118380, Note_on_c, 1, 57, 127
1, 118380, Note_on_c, 1, 45, 127
1, 118400, Note_off_c, 1, 60, 0
1, 118410, Note_on_c, 1, 62, 127
1, 118420, Note_off_c, 1, 57, 0
1, 118420, Note_off_c, 1, 45, 0
1, 118430, Note_off_c, 1, 62, 0
1, 118440, Note_on_c, 1, 59, 127
1, 118440, Note_on_c, 1, 45, 127
1, 118440, Note_on_c, 1, 33, 127
1, 118460, Note_off_c, 1, 59, 0
1, 118470, Note_on_c, 1, 60, 127
1, 118480, Note_off_c, 1, 45, 0
1, 118480, Note_off_c, 1, 33, 0
1, 118490, Note_off_c, 1, 60, 0
1, 118500, Note_on_c, 1, 57, 127
1, 118520, Note_off_c, 1, 57, 0
1, 118530, Note_on_c, 1, 62, 127
1, 118530, Note_on_c, 1, 54, 127
1, 118530, Note_on_c, 1, 42, 127
1, 118550, Note_off_c, 1, 62, 0
1, 118550, Note_off_c, 1, 54, 0
1, 118550, Note_off_c, 1, 42, 0
1, 118560, Note_on_c, 1, 60, 127
1, 118560, Note_on_c, 1, 54, 127
1, 118560, Note_on_c, 1, 42, 127
1, 118580, Note_off_c, 1, 60, 0
1, 118580, Note_off_c, 1, 54, 0
1, 118580, Note_off_c, 1, 42, 0
1, 118590, Note_on_c, 1, 62, 127
1, 118590, Note_on_c, 1, 54, 127
1, 118590, Note_on_c, 1, 42, 127
1, 118610, Note_off_c, 1, 62, 0
1, 118610, Note_off_c, 1, 54, 0
1, 118610, Note_off_c, 1, 42, 0
1, 118620, Note_on_c, 1, 59, 127
1, 118620, Note_on_c, 1, 55, 127
1, 118620, Note_on_c, 1, 43, 127
1, 118660, Note_off_c, 1, 59, 0
1, 118678, Note_off_c, 1, 55, 0
1, 118678, Note_off_c, 1, 43, 0
1, 118680, Note_on_c, 1, 57, 127
1, 118680, Note_on_c, 1, 43, 127
1, 118680, Note_on_c, 1, 31, 127
1, 118700, Note_off_c, 1, 57, 0
1, 118710, Note_on_c, 1, 59, 127
1, 118730, Note_off_c, 1, 59, 0
1, 118738, Note_off_c, 1, 43, 0
1, 118738, Note_off_c, 1, 31, 0
1, 118740, Note_on_c, 1, 55, 127
1, 118770, Note_on_c, 1, 59, 127
1, 118770, Note_on_c, 1, 47, 127
1, 118780, Note_off_c, 1, 55, 0
1, 118798, Note_off_c, 1, 59, 0
1, 118798, Note_off_c, 1, 47, 0
1, 118800, Note_on_c, 1, 57, 127
1, 118800, Note_on_c, 1, 59, 127
1, 118800, Note_on_c, 1, 47, 127
1, 118828, Note_off_c, 1, 59, 0
1, 118828, Note_off_c, 1, 47, 0
1, 118840, Note_off_c, 1, 57, 0
1, 118860, Note_on_c, 1, 59, 127
1, 118860, Note_on_c, 1, 52, 127
1, 118860, Note_on_c, 1, 40, 127
1, 118900, Note_off_c, 1, 59, 0
1, 118918, Note_off_c, 1, 52, 0
1, 118918, Note_off_c, 1, 40, 0
1, 118920, Note_on_c, 1, 55, 127
1, 118920, Note_on_c, 1, 40, 127
1, 118920, Note_on_c, 1, 28, 127
1, 118940, Note_off_c, 1, 55, 0
1, 118950, Note_on_c, 1, 59, 127
1, 118970, Note_off_c, 1, 59, 0
1, 118978, Note_off_c, 1, 40, 0
1, 118978, Note_off_c, 1, 28, 0
1, 118980, Note_on_c, 1, 61, 127
1, 119010, Note_on_c, 1, 57, 127
1, 119010, Note_on_c, 1, 45, 127
1, 119020, Note_off_c, 1, 61, 0
1, 119038, Note_off_c, 1, 57, 0
1, 119038, Note_off_c, 1, 45, 0
1, 119040, Note_on_c, 1, 57, 127
1, 119040, Note_on_c, 1, 45, 127
1, 119068, Note_off_c, 1, 57, 0
1, 119068, Note_off_c, 1, 45, 0
1, 119070, Note_on_c, 1, 61, 127
1, 119070, Note_on_c, 1, 57, 127
1, 119070, Note_on_c, 1, 45, 127
1, 119090, Note_off_c, 1, 61, 0
1, 119098, Note_off_c, 1, 57, 0
1, 119098, Note_off_c, 1, 45, 0
1, 119100, Note_on_c, 1, 62, 127
1, 119100, Note_on_c, 1, 50, 127
1, 119100, Note_on_c, 1, 38, 127
1, 119140, Note_off_c, 1, 62, 0
1, 119158, Note_off_c, 1, 50, 0
1, 119158, Note_off_c, 1, 38, 0
1, 119160, Note_on_c, 1, 66, 127
1, 119160, Note_on_c, 1, 62, 127
1, 119160, Note_on_c, 1, 57, 127
1, 119160, Note_on_c, 1, 50, 127
1, 119160, Note_on_c, 1, 38, 127
1, 119160, Note_on_c, 1, 26, 127
1, 119180, Note_off_c, 1, 57, 0
1, 119190, Note_on_c, 1, 64, 127
1, 119190, Note_on_c, 1, 55, 127
1, 119200, Note_off_c, 1, 66, 0
1, 119200, Note_off_c, 1, 62, 0
1, 119200, Note_off_c, 1, 50, 0
1, 119210, Note_off_c, 1, 64, 0
1, 119210, Note_off_c, 1, 55, 0
1, 119218, Note_off_c, 1, 38, 0
1, 119218, Note_off_c, 1, 26, 0
1, 119220, Note_on_c, 1, 69, 127
1, 119220, Note_on_c, 1, 66, 127
1, 119220, Note_on_c, 1, 62, 127
1, 119220, Note_on_c, 1, 54, 127
1, 119220, Note_on_c, 1, 50, 127
1, 119250, Note_on_c, 1, 38, 127
1, 119260, Note_off_c, 1, 69, 0
1, 119260, Note_off_c, 1, 66, 0
1, 119260, Note_off_c, 1, 62, 0
1, 119260, Note_off_c, 1, 54, 0
1, 119278, Note_off_c, 1, 50, 0
1, 119278, Note_off_c, 1, 38, 0
1, 119280, Note_on_c, 1, 81, 127
1, 119280, Note_on_c, 1, 78, 127
1, 119280, Note_on_c, 1, 74, 127
1, 119280, Note_on_c, 1, 62, 127
1, 119280, Note_on_c, 1, 57, 127
1, 119280, Note_on_c, 1, 50, 127
1, 119280, Note_on_c, 1, 38, 127
1, 119308, Note_off_c, 1, 38, 0
1, 119320, Note_off_c, 1, 81, 0
1, 119320, Note_off_c, 1, 78, 0
1, 119320, Note_off_c, 1, 74, 0
1, 119320, Note_off_c, 1, 62, 0
1, 119320, Note_off_c, 1, 57, 0
1, 119338, Note_off_c, 1, 50, 0
1, 119340, Note_on_c, 1, 78, 127
1, 119340, Note_on_c, 1, 74, 127
1, 119340, Note_on_c, 1, 69, 127
1, 119340, Note_on_c, 1, 62, 127
1, 119340, Note_on_c, 1, 66, 127
1, 119340, Note_on_c, 1, 48, 127
1, 119340, Note_on_c, 1, 36, 127
1, 119360, Note_off_c, 1, 62, 0
1, 119370, Note_on_c, 1, 57, 127
1, 119380, Note_off_c, 1, 78, 0
1, 119390, Note_off_c, 1, 57, 0
1, 119398, Note_off_c, 1, 36, 0
1, 119400, Note_off_c, 1, 69, 0
1, 119400, Note_off_c, 1, 66, 0
1, 119400, Note_off_c, 1, 48, 0
1, 119400, Note_on_c, 1, 86, 127
1, 119400, Note_on_c, 1, 81, 127
1, 119400, Note_on_c, 1, 59, 127
1, 119400, Note_on_c, 1, 24, 127
1, 119420, Note_off_c, 1, 59, 0
1, 119430, Note_on_c, 1, 60, 127
1, 119440, Note_off_c, 1, 86, 0
1, 119440, Note_off_c, 1, 81, 0
1, 119450, Note_off_c, 1, 74, 0
1, 119450, Note_off_c, 1, 60, 0
1, 119458, Note_off_c, 1, 24, 0
1, 119460, Note_on_c, 1, 81, 127
1, 119460, Note_on_c, 1, 74, 127
1, 119460, Note_on_c, 1, 69, 127
1, 119460, Note_on_c, 1, 66, 127
1, 119460, Note_on_c, 1, 62, 127
1, 119460, Note_on_c, 1, 48, 127
1, 119480, Note_off_c, 1, 62, 0
1, 119490, Note_on_c, 1, 36, 127
1, 119500, Note_off_c, 1, 81, 0
1, 119518, Note_off_c, 1, 36, 0
1, 119520, Note_on_c, 1, 86, 127
1, 119520, Note_on_c, 1, 64, 127
1, 119540, Note_off_c, 1, 74, 0
1, 119540, Note_off_c, 1, 66, 0
1, 119540, Note_off_c, 1, 64, 0
1, 119548, Note_off_c, 1, 48, 0
1, 119560, Note_off_c, 1, 86, 0
1, 119570, Note_off_c, 1, 69, 0
1, 119580, Note_on_c, 1, 79, 127
1, 119580, Note_on_c, 1, 74, 127
1, 119580, Note_on_c, 1, 71, 127
1, 119580, Note_on_c, 1, 67, 127
1, 119580, Note_on_c, 1, 47, 127
1, 119580, Note_on_c, 1, 35, 127
1, 119610, Note_on_c, 1, 57, 127
1, 119630, Note_off_c, 1, 57, 0
1, 119638, Note_off_c, 1, 47, 0
1, 119638, Note_off_c, 1, 35, 0
1, 119640, Note_off_c, 1, 79, 0
1, 119640, Note_on_c, 1, 62, 127
1, 119640, Note_on_c, 1, 59, 127
1, 119660, Note_off_c, 1, 74, 0
1, 119660, Note_off_c, 1, 71, 0
1, 119670, Note_on_c, 1, 61, 127
1, 119680, Note_off_c, 1, 67, 0
1, 119680, Note_off_c, 1, 62, 0
1, 119690, Note_off_c, 1, 61, 0
1, 119698, Note_off_c, 1, 59, 0
1, 119700, Note_on_c, 1, 79, 127
1, 119700, Note_on_c, 1, 74, 127
1, 119700, Note_on_c, 1, 71, 127
1, 119700, Note_on_c, 1, 67, 127
1, 119700, Note_on_c, 1, 62, 127
1, 119700, Note_on_c, 1, 47, 127
1, 119730, Note_on_c, 1, 66, 127
1, 119730, Note_on_c, 1, 35, 127
1, 119740, Note_off_c, 1, 67, 0
1, 119740, Note_off_c, 1, 62, 0
1, 119750, Note_off_c, 1, 66, 0
1, 119758, Note_off_c, 1, 47, 0
1, 119758, Note_off_c, 1, 35, 0
1, 119760, Note_on_c, 1, 64, 127
1, 119780, Note_off_c, 1, 64, 0
1, 119800, Note_off_c, 1, 79, 0
1, 119800, Note_off_c, 1, 74, 0
1, 119800, Note_off_c, 1, 71, 0
1, 119820, Note_on_c, 1, 78, 127
1, 119820, Note_on_c, 1, 74, 127
1, 119820, Note_on_c, 1, 69, 127
1, 119820, Note_on_c, 1, 62, 127
1, 119820, Note_on_c, 1, 54, 127
1, 119820, Note_on_c, 1, 42, 127
1, 119820, Note_on_c, 1, 30, 127
1, 119850, Note_on_c, 1, 57, 127
1, 119860, Note_off_c, 1, 78, 0
1, 119870, Note_off_c, 1, 57, 0
1, 119878, Note_off_c, 1, 42, 0
1, 119878, Note_off_c, 1, 30, 0
1, 119880, Note_off_c, 1, 69, 0
1, 119880, Note_off_c, 1, 62, 0
1, 119880, Note_on_c, 1, 86, 127
1, 119880, Note_on_c, 1, 81, 127
1, 119880, Note_on_c, 1, 59, 127
1, 119900, Note_off_c, 1, 59, 0
1, 119910, Note_on_c, 1, 61, 127
1, 119920, Note_off_c, 1, 86, 0
1, 119920, Note_off_c, 1, 81, 0
1, 119930, Note_off_c, 1, 74, 0
1, 119930, Note_off_c, 1, 61, 0
1, 119938, Note_off_c, 1, 54, 0
1, 119940, Note_on_c, 1, 81, 127
1, 119940, Note_on_c, 1, 78, 127
1, 119940, Note_on_c, 1, 74, 127
1, 119940, Note_on_c, 1, 69, 127
1, 119940, Note_on_c, 1, 66, 127
1, 119940, Note_on_c, 1, 62, 127
1, 119940, Note_on_c, 1, 54, 127
1, 119970, Note_on_c, 1, 42, 127
1, 119980, Note_off_c, 1, 81, 0
1, 119980, Note_off_c, 1, 78, 0
1, 119998, Note_off_c, 1, 42, 0
1, 120000, Note_off_c, 1, 66, 0
1, 120000, Note_on_c, 1, 86, 127
1, 120000, Note_on_c, 1, 64, 127
1, 120020, Note_off_c, 1, 69, 0
1, 120020, Note_off_c, 1, 62, 0
1, 120020, Note_off_c, 1, 64, 0
1, 120028, Note_off_c, 1, 54, 0
1, 120040, Note_off_c, 1, 86, 0
1, 120050, Note_off_c, 1, 74, 0
1, 120060, Note_on_c, 1, 83, 127
1, 120060, Note_on_c, 1, 79, 127
1, 120060, Note_on_c, 1, 74, 127
1, 120060, Note_on_c, 1, 67, 127
1, 120060, Note_on_c, 1, 71, 127
1, 120060, Note_on_c, 1, 55, 127
1, 120060, Note_on_c, 1, 43, 127
1, 120118, Note_off_c, 1, 55, 0
1, 120118, Note_off_c, 1, 43, 0
1, 120120, Note_off_c, 1, 83, 0
1, 120120, Note_off_c, 1, 79, 0
1, 120120, Note_on_c, 1, 72, 127
1, 120120, Note_on_c, 1, 50, 127
1, 120120, Note_on_c, 1, 31, 127
1, 120140, Note_off_c, 1, 74, 0
1, 120140, Note_off_c, 1, 67, 0
1, 120140, Note_off_c, 1, 71, 0
1, 120140, Note_off_c, 1, 72, 0
1, 120178, Note_off_c, 1, 50, 0
1, 120178, Note_off_c, 1, 31, 0
1, 120180, Note_on_c, 1, 83, 127
1, 120180, Note_on_c, 1, 79, 127
1, 120180, Note_on_c, 1, 74, 127
1, 120180, Note_on_c, 1, 71, 127
1, 120180, Note_on_c, 1, 62, 127
1, 120200, Note_off_c, 1, 71, 0
1, 120210, Note_on_c, 1, 72, 127
1, 120210, Note_on_c, 1, 50, 127
1, 120210, Note_on_c, 1, 38, 127
1, 120230, Note_off_c, 1, 72, 0
1, 120238, Note_off_c, 1, 50, 0
1, 120238, Note_off_c, 1, 38, 0
1, 120240, Note_on_c, 1, 69, 127
1, 120260, Note_off_c, 1, 83, 0
1, 120260, Note_off_c, 1, 79, 0
1, 120260, Note_off_c, 1, 74, 0
1, 120260, Note_off_c, 1, 69, 0
1, 120300, Note_on_c, 1, 67, 127
1, 120300, Note_on_c, 1, 52, 127
1, 120300, Note_on_c, 1, 40, 127
1, 120320, Note_off_c, 1, 67, 0
1, 120358, Note_off_c, 1, 62, 0
1, 120358, Note_off_c, 1, 52, 0
1, 120358, Note_off_c, 1, 40, 0
1, 120360, Note_on_c, 1, 66, 127
1, 120360, Note_on_c, 1, 64, 127
1, 120360, Note_on_c, 1, 40, 127
1, 120360, Note_on_c, 1, 28, 127
1, 120380, Note_off_c, 1, 66, 0
1, 120388, Note_off_c, 1, 64, 0
1, 120390, Note_on_c, 1, 67, 127
1, 120390, Note_on_c, 1, 62, 127
1, 120410, Note_off_c, 1, 67, 0
1, 120418, Note_off_c, 1, 40, 0
1, 120418, Note_off_c, 1, 28, 0
1, 120418, Note_off_c, 1, 62, 0
1, 120420, Note_on_c, 1, 64, 127
1, 120420, Note_on_c, 1, 61, 127
1, 120440, Note_off_c, 1, 64, 0
1, 120450, Note_on_c, 1, 69, 127
1, 120450, Note_on_c, 1, 45, 127
1, 120450, Note_on_c, 1, 33, 127
1, 120470, Note_off_c, 1, 69, 0
1, 120478, Note_off_c, 1, 45, 0
1, 120478, Note_off_c, 1, 33, 0
1, 120480, Note_on_c, 1, 67, 127
1, 120500, Note_off_c, 1, 67, 0
1, 120538, Note_off_c, 1, 61, 0
1, 120540, Note_on_c, 1, 66, 127
1, 120540, Note_on_c, 1, 62, 127
1, 120540, Note_on_c, 1, 50, 127
1, 120540, Note_on_c, 1, 38, 127
1, 120580, Note_off_c, 1, 66, 0
1, 120580, Note_off_c, 1, 62, 0
1, 120598, Note_off_c, 1, 50, 0
1, 120598, Note_off_c, 1, 38, 0
1, 120600, Note_on_c, 1, 64, 127
1, 120600, Note_on_c, 1, 57, 127
1, 120600, Note_on_c, 1, 38, 127
1, 120600, Note_on_c, 1, 26, 127
1, 120620, Note_off_c, 1, 64, 0
1, 120630, Note_on_c, 1, 66, 127
1, 120640, Note_off_c, 1, 57, 0
1, 120650, Note_off_c, 1, 66, 0
1, 120658, Note_off_c, 1, 38, 0
1, 120658, Note_off_c, 1, 26, 0
1, 120660, Note_on_c, 1, 62, 127
1, 120660, Note_on_c, 1, 59, 127
1, 120680, Note_off_c, 1, 59, 0
1, 120690, Note_on_c, 1, 60, 127
1, 120690, Note_on_c, 1, 43, 127
1, 120690, Note_on_c, 1, 31, 127
1, 120700, Note_off_c, 1, 62, 0
1, 120710, Note_off_c, 1, 60, 0
1, 120718, Note_off_c, 1, 43, 0
1, 120718, Note_off_c, 1, 31, 0
1, 120720, Note_on_c, 1, 62, 127
1, 120720, Note_on_c, 1, 57, 127
1, 120720, Note_on_c, 1, 43, 127
1, 120720, Note_on_c, 1, 31, 127
1, 120740, Note_off_c, 1, 57, 0
1, 120748, Note_off_c, 1, 43, 0
1, 120748, Note_off_c, 1, 31, 0
1, 120750, Note_on_c, 1, 59, 127
1, 120760, Note_off_c, 1, 62, 0
1, 120770, Note_off_c, 1, 59, 0
1, 120780, Note_on_c, 1, 64, 127
1, 120780, Note_on_c, 1, 60, 127
1, 120780, Note_on_c, 1, 48, 127
1, 120780, Note_on_c, 1, 36, 127
1, 120800, Note_off_c, 1, 60, 0
1, 120810, Note_on_c, 1, 62, 127
1, 120820, Note_off_c, 1, 64, 0
1, 120830, Note_off_c, 1, 62, 0
1, 120838, Note_off_c, 1, 48, 0
1, 120838, Note_off_c, 1, 36, 0
1, 120840, Note_on_c, 1, 60, 127
1, 120840, Note_on_c, 1, 64, 127
1, 120840, Note_on_c, 1, 36, 127
1, 120840, Note_on_c, 1, 24, 127
1, 120860, Note_off_c, 1, 60, 0
1, 120860, Note_off_c, 1, 64, 0
1, 120898, Note_off_c, 1, 36, 0
1, 120898, Note_off_c, 1, 24, 0
1, 120900, Note_on_c, 1, 66, 127
1, 120900, Note_on_c, 1, 57, 127
1, 120920, Note_off_c, 1, 57, 0
1, 120930, Note_on_c, 1, 59, 127
1, 120930, Note_on_c, 1, 50, 127
1, 120930, Note_on_c, 1, 38, 127
1, 120940, Note_off_c, 1, 66, 0
1, 120950, Note_off_c, 1, 59, 0
1, 120958, Note_off_c, 1, 50, 0
1, 120958, Note_off_c, 1, 38, 0
1, 120960, Note_on_c, 1, 62, 127
1, 120960, Note_on_c, 1, 60, 127
1, 120960, Note_on_c, 1, 50, 127
1, 120960, Note_on_c, 1, 38, 127
1, 120980, Note_off_c, 1, 62, 0
1, 120980, Note_off_c, 1, 60, 0
1, 120988, Note_off_c, 1, 50, 0
1, 120988, Note_off_c, 1, 38, 0
1, 120990, Note_on_c, 1, 66, 127
1, 120990, Note_on_c, 1, 57, 127
1, 120990, Note_on_c, 1, 50, 127
1, 120990, Note_on_c, 1, 38, 127
1, 121010, Note_off_c, 1, 66, 0
1, 121010, Note_off_c, 1, 57, 0
1, 121018, Note_off_c, 1, 50, 0
1, 121018, Note_off_c, 1, 38, 0
1, 121020, Note_on_c, 1, 67, 127
1, 121020, Note_on_c, 1, 57, 127
1, 121020, Note_on_c, 1, 55, 127
1, 121020, Note_on_c, 1, 43, 127
1, 121060, Note_off_c, 1, 67, 0
1, 121060, Note_off_c, 1, 57, 0
1, 121078, Note_off_c, 1, 55, 0
1, 121078, Note_off_c, 1, 43, 0
1, 121080, Note_on_c, 1, 67, 127
1, 121080, Note_on_c, 1, 71, 127
1, 121080, Note_on_c, 1, 62, 127
1, 121080, Note_on_c, 1, 59, 127
1, 121080, Note_on_c, 1, 55, 127
1, 121080, Note_on_c, 1, 43, 127
1, 121080, Note_on_c, 1, 31, 127
1, 121100, Note_off_c, 1, 71, 0
1, 121100, Note_off_c, 1, 62, 0
1, 121100, Note_off_c, 1, 59, 0
1, 121110, Note_on_c, 1, 69, 127
1, 121110, Note_on_c, 1, 60, 127
1, 121120, Note_off_c, 1, 67, 0
1, 121120, Note_off_c, 1, 55, 0
1, 121130, Note_off_c, 1, 69, 0
1, 121130, Note_off_c, 1, 60, 0
1, 121138, Note_off_c, 1, 43, 0
1, 121138, Note_off_c, 1, 31, 0
1, 121140, Note_on_c, 1, 71, 127
1, 121140, Note_on_c, 1, 67, 127
1, 121140, Note_on_c, 1, 59, 127
1, 121140, Note_on_c, 1, 62, 127
1, 121140, Note_on_c, 1, 55, 127
1, 121170, Note_on_c, 1, 43, 127
1, 121180, Note_off_c, 1, 71, 0
1, 121180, Note_off_c, 1, 67, 0
1, 121180, Note_off_c, 1, 59, 0
1, 121180, Note_off_c, 1, 62, 0
1, 121198, Note_off_c, 1, 55, 0
1, 121198, Note_off_c, 1, 43, 0
1, 121200, Note_on_c, 1, 74, 127
1, 121200, Note_on_c, 1, 71, 127
1, 121200, Note_on_c, 1, 67, 127
1, 121200, Note_on_c, 1, 62, 127
1, 121200, Note_on_c, 1, 55, 127
1, 121200, Note_on_c, 1, 43, 127
1, 121228, Note_off_c, 1, 43, 0
1, 121240, Note_off_c, 1, 74, 0
1, 121240, Note_off_c, 1, 71, 0
1, 121240, Note_off_c, 1, 67, 0
1, 121240, Note_off_c, 1, 62, 0
1, 121258, Note_off_c, 1, 55, 0
1, 121260, Note_on_c, 1, 71, 127
1, 121260, Note_on_c, 1, 67, 127
1, 121260, Note_on_c, 1, 62, 127
1, 121260, Note_on_c, 1, 74, 127
1, 121260, Note_on_c, 1, 55, 127
1, 121260, Note_on_c, 1, 53, 127
1, 121260, Note_on_c, 1, 41, 127
1, 121300, Note_off_c, 1, 67, 0
1, 121318, Note_off_c, 1, 62, 0
1, 121318, Note_off_c, 1, 41, 0
1, 121320, Note_on_c, 1, 79, 127
1, 121320, Note_on_c, 1, 64, 127
1, 121320, Note_on_c, 1, 29, 127
1, 121348, Note_off_c, 1, 55, 0
1, 121348, Note_off_c, 1, 53, 0
1, 121348, Note_off_c, 1, 64, 0
1, 121350, Note_on_c, 1, 65, 127
1, 121360, Note_off_c, 1, 79, 0
1, 121378, Note_off_c, 1, 71, 0
1, 121378, Note_off_c, 1, 74, 0
1, 121378, Note_off_c, 1, 29, 0
1, 121378, Note_off_c, 1, 65, 0
1, 121380, Note_on_c, 1, 74, 127
1, 121380, Note_on_c, 1, 71, 127
1, 121380, Note_on_c, 1, 67, 127
1, 121380, Note_on_c, 1, 62, 127
1, 121380, Note_on_c, 1, 59, 127
1, 121380, Note_on_c, 1, 55, 127
1, 121380, Note_on_c, 1, 53, 127
1, 121410, Note_on_c, 1, 41, 127
1, 121438, Note_off_c, 1, 41, 0
1, 121440, Note_off_c, 1, 67, 0
1, 121440, Note_off_c, 1, 59, 0
1, 121440, Note_on_c, 1, 79, 127
1, 121440, Note_on_c, 1, 69, 127
1, 121468, Note_off_c, 1, 69, 0
1, 121480, Note_off_c, 1, 79, 0
1, 121490, Note_off_c, 1, 62, 0
1, 121498, Note_off_c, 1, 74, 0
1, 121498, Note_off_c, 1, 71, 0
1, 121498, Note_off_c, 1, 55, 0
1, 121498, Note_off_c, 1, 53, 0
1, 121500, Note_on_c, 1, 72, 127
1, 121500, Note_on_c, 1, 67, 127
1, 121500, Note_on_c, 1, 64, 127
1, 121500, Note_on_c, 1, 60, 127
1, 121500, Note_on_c, 1, 52, 127
1, 121500, Note_on_c, 1, 40, 127
1, 121530, Note_on_c, 1, 62, 127
1, 121558, Note_off_c, 1, 52, 0
1, 121558, Note_off_c, 1, 40, 0
1, 121558, Note_off_c, 1, 62, 0
1, 121560, Note_on_c, 1, 55, 127
1, 121560, Note_on_c, 1, 28, 127
1, 121580, Note_off_c, 1, 60, 0
1, 121588, Note_off_c, 1, 64, 0
1, 121590, Note_on_c, 1, 66, 127
1, 121618, Note_off_c, 1, 72, 0
1, 121618, Note_off_c, 1, 67, 0
1, 121618, Note_off_c, 1, 55, 0
1, 121618, Note_off_c, 1, 28, 0
1, 121618, Note_off_c, 1, 66, 0
1, 121620, Note_on_c, 1, 72, 127
1, 121620, Note_on_c, 1, 67, 127
1, 121620, Note_on_c, 1, 64, 127
1, 121620, Note_on_c, 1, 76, 127
1, 121620, Note_on_c, 1, 60, 127
1, 121620, Note_on_c, 1, 52, 127
1, 121650, Note_on_c, 1, 71, 127
1, 121650, Note_on_c, 1, 40, 127
1, 121678, Note_off_c, 1, 76, 0
1, 121678, Note_off_c, 1, 60, 0
1, 121678, Note_off_c, 1, 52, 0
1, 121678, Note_off_c, 1, 71, 0
1, 121678, Note_off_c, 1, 40, 0
1, 121680, Note_on_c, 1, 69, 127
1, 121708, Note_off_c, 1, 69, 0
1, 121738, Note_off_c, 1, 72, 0
1, 121738, Note_off_c, 1, 67, 0
1, 121738, Note_off_c, 1, 64, 0
1, 121740, Note_on_c, 1, 71, 127
1, 121740, Note_on_c, 1, 67, 127
1, 121740, Note_on_c, 1, 62, 127
1, 121740, Note_on_c, 1, 79, 127
1, 121740, Note_on_c, 1, 74, 127
1, 121740, Note_on_c, 1, 47, 127
1, 121740, Note_on_c, 1, 35, 127
1, 121768, Note_off_c, 1, 74, 0
1, 121780, Note_off_c, 1, 71, 0
1, 121798, Note_off_c, 1, 35, 0
1, 121800, Note_on_c, 1, 64, 127
1, 121800, Note_on_c, 1, 59, 127
1, 121828, Note_off_c, 1, 62, 0
1, 121828, Note_off_c, 1, 64, 0
1, 121830, Note_on_c, 1, 66, 127
1, 121858, Note_off_c, 1, 67, 0
1, 121858, Note_off_c, 1, 79, 0
1, 121858, Note_off_c, 1, 47, 0
1, 121858, Note_off_c, 1, 59, 0
1, 121858, Note_off_c, 1, 66, 0
1, 121860, Note_on_c, 1, 74, 127
1, 121860, Note_on_c, 1, 71, 127
1, 121860, Note_on_c, 1, 67, 127
1, 121860, Note_on_c, 1, 62, 127
1, 121860, Note_on_c, 1, 59, 127
1, 121860, Note_on_c, 1, 79, 127
1, 121860, Note_on_c, 1, 47, 127
1, 121890, Note_on_c, 1, 35, 127
1, 121900, Note_off_c, 1, 74, 0
1, 121918, Note_off_c, 1, 71, 0
1, 121918, Note_off_c, 1, 35, 0
1, 121920, Note_off_c, 1, 59, 0
1, 121920, Note_on_c, 1, 69, 127
1, 121948, Note_off_c, 1, 69, 0
1, 121978, Note_off_c, 1, 67, 0
1, 121978, Note_off_c, 1, 62, 0
1, 121978, Note_off_c, 1, 79, 0
1, 121978, Note_off_c, 1, 47, 0
1, 121980, Note_on_c, 1, 76, 127
1, 121980, Note_on_c, 1, 72, 127
1, 121980, Note_on_c, 1, 67, 127
1, 121980, Note_on_c, 1, 60, 127
1, 121980, Note_on_c, 1, 64, 127
1, 121980, Note_on_c, 1, 48, 127
1, 121980, Note_on_c, 1, 36, 127
1, 122010, Note_on_c, 1, 79, 127
1, 122038, Note_off_c, 1, 48, 0
1, 122038, Note_off_c, 1, 36, 0
1, 122038, Note_off_c, 1, 79, 0
1, 122040, Note_off_c, 1, 76, 0
1, 122040, Note_off_c, 1, 72, 0
1, 122040, Note_on_c, 1, 77, 127
1, 122040, Note_on_c, 1, 55, 127
1, 122040, Note_on_c, 1, 62, 127
1, 122040, Note_on_c, 1, 24, 127
1, 122060, Note_off_c, 1, 67, 0
1, 122060, Note_off_c, 1, 60, 0
1, 122060, Note_off_c, 1, 64, 0
1, 122068, Note_off_c, 1, 77, 0
1, 122068, Note_off_c, 1, 62, 0
1, 122098, Note_off_c, 1, 55, 0
1, 122098, Note_off_c, 1, 24, 0
1, 122100, Note_on_c, 1, 76, 127
1, 122100, Note_on_c, 1, 72, 127
1, 122100, Note_on_c, 1, 67, 127
1, 122100, Note_on_c, 1, 60, 127
1, 122128, Note_off_c, 1, 60, 0
1, 122130, Note_on_c, 1, 77, 127
1, 122130, Note_on_c, 1, 62, 127
1, 122130, Note_on_c, 1, 55, 127
1, 122130, Note_on_c, 1, 43, 127
1, 122158, Note_off_c, 1, 77, 0
1, 122158, Note_off_c, 1, 62, 0
1, 122158, Note_off_c, 1, 55, 0
1, 122158, Note_off_c, 1, 43, 0
1, 122160, Note_on_c, 1, 74, 127
1, 122160, Note_on_c, 1, 59, 127
1, 122180, Note_off_c, 1, 76, 0
1, 122180, Note_off_c, 1, 72, 0
1, 122188, Note_off_c, 1, 74, 0
1, 122188, Note_off_c, 1, 59, 0
1, 122220, Note_on_c, 1, 57, 127
1, 122220, Note_on_c, 1, 45, 127
1, 122278, Note_off_c, 1, 67, 0
1, 122278, Note_off_c, 1, 57, 0
1, 122278, Note_off_c, 1, 45, 0
1, 122280, Note_on_c, 1, 71, 127
1, 122280, Note_on_c, 1, 69, 127
1, 122280, Note_on_c, 1, 60, 127
1, 122280, Note_on_c, 1, 45, 127
1, 122280, Note_on_c, 1, 33, 127
1, 122308, Note_off_c, 1, 71, 0
1, 122308, Note_off_c, 1, 69, 0
1, 122308, Note_off_c, 1, 60, 0
1, 122310, Note_on_c, 1, 72, 127
1, 122310, Note_on_c, 1, 67, 127
1, 122310, Note_on_c, 1, 57, 127
1, 122338, Note_off_c, 1, 45, 0
1, 122338, Note_off_c, 1, 33, 0
1, 122338, Note_off_c, 1, 72, 0
1, 122338, Note_off_c, 1, 67, 0
1, 122338, Note_off_c, 1, 57, 0
1, 122340, Note_on_c, 1, 69, 127
1, 122340, Note_on_c, 1, 66, 127
1, 122340, Note_on_c, 1, 62, 127
1, 122368, Note_off_c, 1, 69, 0
1, 122370, Note_on_c, 1, 74, 127
1, 122370, Note_on_c, 1, 50, 127
1, 122370, Note_on_c, 1, 38, 127
1, 122398, Note_off_c, 1, 62, 0
1, 122398, Note_off_c, 1, 74, 0
1, 122398, Note_off_c, 1, 50, 0
1, 122398, Note_off_c, 1, 38, 0
1, 122400, Note_on_c, 1, 72, 127
1, 122428, Note_off_c, 1, 72, 0
1, 122458, Note_off_c, 1, 66, 0
1, 122460, Note_on_c, 1, 71, 127
1, 122460, Note_on_c, 1, 67, 127
1, 122460, Note_on_c, 1, 55, 127
1, 122460, Note_on_c, 1, 43, 127
1, 122518, Note_off_c, 1, 71, 0
1, 122518, Note_off_c, 1, 67, 0
1, 122518, Note_off_c, 1, 55, 0
1, 122518, Note_off_c, 1, 43, 0
1, 122520, Note_on_c, 1, 69, 127
1, 122520, Note_on_c, 1, 62, 127
1, 122520, Note_on_c, 1, 55, 127
1, 122520, Note_on_c, 1, 43, 127
1, 122520, Note_on_c, 1, 31, 127
1, 122548, Note_off_c, 1, 69, 0
1, 122550, Note_on_c, 1, 71, 127
1, 122578, Note_off_c, 1, 62, 0
1, 122578, Note_off_c, 1, 55, 0
1, 122578, Note_off_c, 1, 43, 0
1, 122578, Note_off_c, 1, 31, 0
1, 122578, Note_off_c, 1, 71, 0
1, 122580, Note_on_c, 1, 67, 127
1, 122580, Note_on_c, 1, 64, 127
1, 122580, Note_on_c, 1, 60, 127
1, 122608, Note_off_c, 1, 64, 0
1, 122608, Note_off_c, 1, 60, 0
1, 122610, Note_on_c, 1, 66, 127
1, 122610, Note_on_c, 1, 57, 127
1, 122610, Note_on_c, 1, 48, 127
1, 122638, Note_off_c, 1, 67, 0
1, 122638, Note_off_c, 1, 66, 0
1, 122638, Note_off_c, 1, 57, 0
1, 122638, Note_off_c, 1, 48, 0
1, 122640, Note_on_c, 1, 69, 127
1, 122640, Note_on_c, 1, 64, 127
1, 122640, Note_on_c, 1, 60, 127
1, 122640, Note_on_c, 1, 48, 127
1, 122668, Note_off_c, 1, 64, 0
1, 122668, Note_off_c, 1, 60, 0
1, 122668, Note_off_c, 1, 48, 0
1, 122670, Note_on_c, 1, 66, 127
1, 122670, Note_on_c, 1, 57, 127
1, 122698, Note_off_c, 1, 69, 0
1, 122698, Note_off_c, 1, 66, 0
1, 122698, Note_off_c, 1, 57, 0
1, 122700, Note_on_c, 1, 71, 127
1, 122700, Note_on_c, 1, 67, 127
1, 122700, Note_on_c, 1, 62, 127
1, 122700, Note_on_c, 1, 59, 127
1, 122700, Note_on_c, 1, 47, 127
1, 122728, Note_off_c, 1, 67, 0
1, 122728, Note_off_c, 1, 62, 0
1, 122730, Note_on_c, 1, 69, 127
1, 122730, Note_on_c, 1, 60, 127
1, 122758, Note_off_c, 1, 71, 0
1, 122758, Note_off_c, 1, 59, 0
1, 122758, Note_off_c, 1, 47, 0
1, 122758, Note_off_c, 1, 69, 0
1, 122758, Note_off_c, 1, 60, 0
1, 122760, Note_on_c, 1, 67, 127
1, 122760, Note_on_c, 1, 71, 127
1, 122760, Note_on_c, 1, 62, 127
1, 122760, Note_on_c, 1, 47, 127
1, 122760, Note_on_c, 1, 35, 127
1, 122788, Note_off_c, 1, 67, 0
1, 122788, Note_off_c, 1, 71, 0
1, 122788, Note_off_c, 1, 62, 0
1, 122790, Note_on_c, 1, 59, 127
1, 122818, Note_off_c, 1, 47, 0
1, 122818, Note_off_c, 1, 35, 0
1, 122818, Note_off_c, 1, 59, 0
1, 122820, Note_on_c, 1, 73, 127
1, 122820, Note_on_c, 1, 64, 127
1, 122848, Note_off_c, 1, 64, 0
1, 122850, Note_on_c, 1, 66, 127
1, 122850, Note_on_c, 1, 62, 127
1, 122850, Note_on_c, 1, 57, 127
1, 122850, Note_on_c, 1, 45, 127
1, 122878, Note_off_c, 1, 73, 0
1, 122878, Note_off_c, 1, 66, 0
1, 122878, Note_off_c, 1, 62, 0
1, 122878, Note_off_c, 1, 57, 0
1, 122878, Note_off_c, 1, 45, 0
1, 122880, Note_on_c, 1, 69, 127
1, 122880, Note_on_c, 1, 67, 127
1, 122880, Note_on_c, 1, 64, 127
1, 122880, Note_on_c, 1, 57, 127
1, 122880, Note_on_c, 1, 45, 127
1, 122908, Note_off_c, 1, 69, 0
1, 122908, Note_off_c, 1, 67, 0
1, 122908, Note_off_c, 1, 64, 0
1, 122908, Note_off_c, 1, 57, 0
1, 122908, Note_off_c, 1, 45, 0
1, 122910, Note_on_c, 1, 73, 127
1, 122910, Note_on_c, 1, 64, 127
1, 122910, Note_on_c, 1, 61, 127
1, 122910, Note_on_c, 1, 57, 127
1, 122910, Note_on_c, 1, 45, 127
1, 122938, Note_off_c, 1, 73, 0
1, 122938, Note_off_c, 1, 64, 0
1, 122938, Note_off_c, 1, 61, 0
1, 122938, Note_off_c, 1, 57, 0
1, 122938, Note_off_c, 1, 45, 0
1, 122940, Note_on_c, 1, 74, 127
1, 122940, Note_on_c, 1, 66, 127
1, 122940, Note_on_c, 1, 57, 127
1, 122940, Note_on_c, 1, 50, 127
1, 122940, Note_on_c, 1, 38, 127
1, 122998, Note_off_c, 1, 74, 0
1, 122998, Note_off_c, 1, 66, 0
1, 122998, Note_off_c, 1, 57, 0
1, 122998, Note_off_c, 1, 50, 0
1, 122998, Note_off_c, 1, 38, 0
1, 123000, Note_on_c, 1, 74, 127
1, 123000, Note_on_c, 1, 69, 127
1, 123000, Note_on_c, 1, 66, 127
1, 123000, Note_on_c, 1, 50, 127
1, 123000, Note_on_c, 1, 62, 127
1, 123000, Note_on_c, 1, 54, 127
1, 123000, Note_on_c, 1, 38, 127
1, 123000, Note_on_c, 1, 26, 127
1, 123028, Note_off_c, 1, 54, 0
1, 123030, Note_on_c, 1, 67, 127
1, 123030, Note_on_c, 1, 61, 127
1, 123030, Note_on_c, 1, 52, 127
1, 123040, Note_off_c, 1, 74, 0
1, 123040, Note_off_c, 1, 69, 0
1, 123040, Note_off_c, 1, 66, 0
1, 123040, Note_off_c, 1, 50, 0
1, 123058, Note_off_c, 1, 62, 0
1, 123058, Note_off_c, 1, 38, 0
1, 123058, Note_off_c, 1, 26, 0
1, 123058, Note_off_c, 1, 67, 0
1, 123058, Note_off_c, 1, 61, 0
1, 123058, Note_off_c, 1, 52, 0
1, 123060, Note_on_c, 1, 78, 127
1, 123060, Note_on_c, 1, 74, 127
1, 123060, Note_on_c, 1, 69, 127
1, 123060, Note_on_c, 1, 50, 127
1, 123060, Note_on_c, 1, 66, 127
1, 123060, Note_on_c, 1, 62, 127
1, 123090, Note_on_c, 1, 38, 127
1, 123100, Note_off_c, 1, 78, 0
1, 123100, Note_off_c, 1, 74, 0
1, 123118, Note_off_c, 1, 69, 0
1, 123118, Note_off_c, 1, 50, 0
1, 123118, Note_off_c, 1, 66, 0
1, 123118, Note_off_c, 1, 62, 0
1, 123118, Note_off_c, 1, 38, 0
1, 123120, Note_on_c, 1, 74, 127
1, 123120, Note_on_c, 1, 78, 127
1, 123120, Note_on_c, 1, 69, 127
1, 123120, Note_on_c, 1, 50, 127
1, 123120, Note_on_c, 1, 81, 127
1, 123120, Note_on_c, 1, 62, 127
1, 123120, Note_on_c, 1, 57, 127
1, 123120, Note_on_c, 1, 38, 127
1, 123148, Note_off_c, 1, 38, 0
1, 123160, Note_off_c, 1, 78, 0
1, 123160, Note_off_c, 1, 81, 0
1, 123178, Note_off_c, 1, 74, 0
1, 123178, Note_off_c, 1, 69, 0
1, 123178, Note_off_c, 1, 50, 0
1, 123178, Note_off_c, 1, 62, 0
1, 123178, Note_off_c, 1, 57, 0
1, 123180, Note_on_c, 1, 81, 127
1, 123180, Note_on_c, 1, 78, 127
1, 123180, Note_on_c, 1, 74, 127
1, 123180, Note_on_c, 1, 50, 127
1, 123180, Note_on_c, 1, 69, 127
1, 123180, Note_on_c, 1, 57, 127
1, 123180, Note_on_c, 1, 48, 127
1, 123180, Note_on_c, 1, 36, 127
1, 123210, Note_on_c, 1, 45, 127
1, 123238, Note_off_c, 1, 48, 0
1, 123238, Note_off_c, 1, 36, 0
1, 123238, Note_off_c, 1, 45, 0
1, 123240, Note_off_c, 1, 50, 0
1, 123240, Note_on_c, 1, 86, 127
1, 123240, Note_on_c, 1, 47, 127
1, 123240, Note_on_c, 1, 24, 127
1, 123268, Note_off_c, 1, 69, 0
1, 123268, Note_off_c, 1, 57, 0
1, 123268, Note_off_c, 1, 47, 0
1, 123280, Note_off_c, 1, 86, 0
1, 123290, Note_off_c, 1, 81, 0
1, 123298, Note_off_c, 1, 78, 0
1, 123298, Note_off_c, 1, 74, 0
1, 123298, Note_off_c, 1, 24, 0
1, 123300, Note_on_c, 1, 81, 127
1, 123300, Note_on_c, 1, 78, 127
1, 123300, Note_on_c, 1, 74, 127
1, 123300, Note_on_c, 1, 50, 127
1, 123300, Note_on_c, 1, 69, 127
1, 123300, Note_on_c, 1, 66, 127
1, 123300, Note_on_c, 1, 57, 127
1, 123330, Note_on_c, 1, 54, 127
1, 123330, Note_on_c, 1, 48, 127
1, 123330, Note_on_c, 1, 36, 127
1, 123358, Note_off_c, 1, 54, 0
1, 123358, Note_off_c, 1, 48, 0
1, 123358, Note_off_c, 1, 36, 0
1, 123360, Note_off_c, 1, 66, 0
1, 123360, Note_on_c, 1, 86, 127
1, 123360, Note_on_c, 1, 52, 127
1, 123380, Note_off_c, 1, 50, 0
1, 123388, Note_off_c, 1, 52, 0
1, 123400, Note_off_c, 1, 81, 0
1, 123400, Note_off_c, 1, 86, 0
1, 123418, Note_off_c, 1, 78, 0
1, 123418, Note_off_c, 1, 74, 0
1, 123418, Note_off_c, 1, 69, 0
1, 123418, Note_off_c, 1, 57, 0
1, 123420, Note_on_c, 1, 79, 127
1, 123420, Note_on_c, 1, 74, 127
1, 123420, Note_on_c, 1, 71, 127
1, 123420, Note_on_c, 1, 67, 127
1, 123420, Note_on_c, 1, 55, 127
1, 123420, Note_on_c, 1, 47, 127
1, 123420, Note_on_c, 1, 35, 127
1, 123448, Note_off_c, 1, 55, 0
1, 123450, Note_on_c, 1, 45, 127
1, 123478, Note_off_c, 1, 47, 0
1, 123478, Note_off_c, 1, 35, 0
1, 123478, Note_off_c, 1, 45, 0
1, 123480, Note_on_c, 1, 62, 127
1, 123480, Note_on_c, 1, 50, 127
1, 123480, Note_on_c, 1, 59, 127
1, 123500, Note_off_c, 1, 71, 0
1, 123510, Note_on_c, 1, 49, 127
1, 123520, Note_off_c, 1, 50, 0
1, 123530, Note_off_c, 1, 79, 0
1, 123538, Note_off_c, 1, 74, 0
1, 123538, Note_off_c, 1, 67, 0
1, 123538, Note_off_c, 1, 62, 0
1, 123538, Note_off_c, 1, 59, 0
1, 123538, Note_off_c, 1, 49, 0
1, 123540, Note_on_c, 1, 83, 127
1, 123540, Note_on_c, 1, 79, 127
1, 123540, Note_on_c, 1, 74, 127
1, 123540, Note_on_c, 1, 50, 127
1, 123540, Note_on_c, 1, 71, 127
1, 123540, Note_on_c, 1, 67, 127
1, 123540, Note_on_c, 1, 55, 127
1, 123570, Note_on_c, 1, 54, 127
1, 123570, Note_on_c, 1, 47, 127
1, 123570, Note_on_c, 1, 35, 127
1, 123580, Note_off_c, 1, 83, 0
1, 123580, Note_off_c, 1, 50, 0
1, 123598, Note_off_c, 1, 67, 0
1, 123598, Note_off_c, 1, 55, 0
1, 123598, Note_off_c, 1, 54, 0
1, 123598, Note_off_c, 1, 47, 0
1, 123598, Note_off_c, 1, 35, 0
1, 123600, Note_on_c, 1, 52, 127
1, 123628, Note_off_c, 1, 52, 0
1, 123640, Note_off_c, 1, 79, 0
1, 123658, Note_off_c, 1, 74, 0
1, 123658, Note_off_c, 1, 71, 0
1, 123660, Note_on_c, 1, 86, 127
1, 123660, Note_on_c, 1, 81, 127
1, 123660, Note_on_c, 1, 78, 127
1, 123660, Note_on_c, 1, 50, 127
1, 123660, Note_on_c, 1, 74, 127
1, 123660, Note_on_c, 1, 69, 127
1, 123660, Note_on_c, 1, 54, 127
1, 123660, Note_on_c, 1, 57, 127
1, 123660, Note_on_c, 1, 42, 127
1, 123660, Note_on_c, 1, 30, 127
1, 123688, Note_off_c, 1, 57, 0
1, 123690, Note_on_c, 1, 45, 127
1, 123718, Note_off_c, 1, 42, 0
1, 123718, Note_off_c, 1, 30, 0
1, 123718, Note_off_c, 1, 45, 0
1, 123720, Note_off_c, 1, 50, 0
1, 123720, Note_on_c, 1, 47, 127
1, 123748, Note_off_c, 1, 69, 0
1, 123748, Note_off_c, 1, 47, 0
1, 123750, Note_on_c, 1, 49, 127
1, 123770, Note_off_c, 1, 86, 0
1, 123770, Note_off_c, 1, 81, 0
1, 123770, Note_off_c, 1, 78, 0
1, 123778, Note_off_c, 1, 74, 0
1, 123778, Note_off_c, 1, 54, 0
1, 123778, Note_off_c, 1, 49, 0
1, 123780, Note_on_c, 1, 86, 127
1, 123780, Note_on_c, 1, 81, 127
1, 123780, Note_on_c, 1, 78, 127
1, 123780, Note_on_c, 1, 50, 127
1, 123780, Note_on_c, 1, 74, 127
1, 123780, Note_on_c, 1, 69, 127
1, 123780, Note_on_c, 1, 66, 127
1, 123780, Note_on_c, 1, 54, 127
1, 123810, Note_on_c, 1, 42, 127
1, 123810, Note_on_c, 1, 30, 127
1, 123838, Note_off_c, 1, 54, 0
1, 123838, Note_off_c, 1, 42, 0
1, 123838, Note_off_c, 1, 30, 0
1, 123840, Note_off_c, 1, 66, 0
1, 123840, Note_on_c, 1, 62, 127
1, 123840, Note_on_c, 1, 52, 127
1, 123860, Note_off_c, 1, 78, 0
1, 123860, Note_off_c, 1, 50, 0
1, 123868, Note_off_c, 1, 52, 0
1, 123880, Note_off_c, 1, 86, 0
1, 123880, Note_off_c, 1, 81, 0
1, 123898, Note_off_c, 1, 74, 0
1, 123898, Note_off_c, 1, 69, 0
1, 123898, Note_off_c, 1, 62, 0
1, 123900, Note_on_c, 1, 83, 127
1, 123900, Note_on_c, 1, 79, 127
1, 123900, Note_on_c, 1, 74, 127
1, 123900, Note_on_c, 1, 67, 127
1, 123900, Note_on_c, 1, 71, 127
1, 123900, Note_on_c, 1, 62, 127
1, 123900, Note_on_c, 1, 59, 127
1, 123900, Note_on_c, 1, 43, 127
1, 123900, Note_on_c, 1, 31, 127
1, 123928, Note_off_c, 1, 59, 0
1, 123958, Note_off_c, 1, 62, 0
1, 123958, Note_off_c, 1, 43, 0
1, 123958, Note_off_c, 1, 31, 0
1, 123960, Note_off_c, 1, 83, 0
1, 123960, Note_off_c, 1, 79, 0
1, 123960, Note_on_c, 1, 69, 127
1, 123960, Note_on_c, 1, 50, 127
1, 123960, Note_on_c, 1, 60, 127
1, 123960, Note_on_c, 1, 55, 127
1, 123980, Note_off_c, 1, 74, 0
1, 123980, Note_off_c, 1, 67, 0
1, 123980, Note_off_c, 1, 71, 0
1, 123988, Note_off_c, 1, 69, 0
1, 123988, Note_off_c, 1, 60, 0
1, 124018, Note_off_c, 1, 50, 0
1, 124018, Note_off_c, 1, 55, 0
1, 124020, Note_on_c, 1, 83, 127
1, 124020, Note_on_c, 1, 79, 127
1, 124020, Note_on_c, 1, 74, 127
1, 124020, Note_on_c, 1, 67, 127
1, 124020, Note_on_c, 1, 59, 127
1, 124048, Note_off_c, 1, 67, 0
1, 124048, Note_off_c, 1, 59, 0
1, 124050, Note_on_c, 1, 69, 127
1, 124050, Note_on_c, 1, 60, 127
1, 124050, Note_on_c, 1, 50, 127
1, 124050, Note_on_c, 1, 38, 127
1, 124078, Note_off_c, 1, 69, 0
1, 124078, Note_off_c, 1, 60, 0
1, 124078, Note_off_c, 1, 50, 0
1, 124078, Note_off_c, 1, 38, 0
1, 124080, Note_on_c, 1, 66, 127
1, 124080, Note_on_c, 1, 62, 127
1, 124080, Note_on_c, 1, 57, 127
1, 124100, Note_off_c, 1, 83, 0
1, 124100, Note_off_c, 1, 79, 0
1, 124108, Note_off_c, 1, 66, 0
1, 124108, Note_off_c, 1, 57, 0
1, 124138, Note_off_c, 1, 62, 0
1, 124140, Note_on_c, 1, 64, 127
1, 124140, Note_on_c, 1, 55, 127
1, 124140, Note_on_c, 1, 52, 127
1, 124140, Note_on_c, 1, 40, 127
1, 124168, Note_off_c, 1, 55, 0
1, 124198, Note_off_c, 1, 74, 0
1, 124198, Note_off_c, 1, 64, 0
1, 124198, Note_off_c, 1, 52, 0
1, 124198, Note_off_c, 1, 40, 0
1, 124200, Note_on_c, 1, 76, 127
1, 124200, Note_on_c, 1, 67, 127
1, 124200, Note_on_c, 1, 55, 127
1, 124200, Note_on_c, 1, 54, 127
1, 124200, Note_on_c, 1, 40, 127
1, 124200, Note_on_c, 1, 28, 127
1, 124228, Note_off_c, 1, 76, 0
1, 124228, Note_off_c, 1, 67, 0
1, 124228, Note_off_c, 1, 54, 0
1, 124230, Note_on_c, 1, 74, 127
1, 124230, Note_on_c, 1, 64, 127
1, 124258, Note_off_c, 1, 55, 0
1, 124258, Note_off_c, 1, 40, 0
1, 124258, Note_off_c, 1, 28, 0
1, 124258, Note_off_c, 1, 74, 0
1, 124258, Note_off_c, 1, 64, 0
1, 124260, Note_on_c, 1, 73, 127
1, 124260, Note_on_c, 1, 69, 127
1, 124260, Note_on_c, 1, 52, 127
1, 124288, Note_off_c, 1, 52, 0
1, 124290, Note_on_c, 1, 57, 127
1, 124290, Note_on_c, 1, 45, 127
1, 124290, Note_on_c, 1, 33, 127
1, 124318, Note_off_c, 1, 69, 0
1, 124318, Note_off_c, 1, 57, 0
1, 124318, Note_off_c, 1, 45, 0
1, 124318, Note_off_c, 1, 33, 0
1, 124320, Note_on_c, 1, 61, 127
1, 124320, Note_on_c, 1, 55, 127
1, 124348, Note_off_c, 1, 55, 0
1, 124378, Note_off_c, 1, 73, 0
1, 124378, Note_off_c, 1, 61, 0
1, 124380, Note_on_c, 1, 74, 127
1, 124380, Note_on_c, 1, 57, 127
1, 124380, Note_on_c, 1, 54, 127
1, 124380, Note_on_c, 1, 50, 127
1, 124380, Note_on_c, 1, 38, 127
1, 124438, Note_off_c, 1, 74, 0
1, 124438, Note_off_c, 1, 57, 0
1, 124438, Note_off_c, 1, 54, 0
1, 124438, Note_off_c, 1, 50, 0
1, 124438, Note_off_c, 1, 38, 0
1, 124440, Note_on_c, 1, 69, 127
1, 124440, Note_on_c, 1, 62, 127
1, 124440, Note_on_c, 1, 54, 127
1, 124440, Note_on_c, 1, 52, 127
1, 124440, Note_on_c, 1, 38, 127
1, 124440, Note_on_c, 1, 26, 127
1, 124468, Note_off_c, 1, 52, 0
1, 124498, Note_off_c, 1, 69, 0
1, 124498, Note_off_c, 1, 62, 0
1, 124498, Note_off_c, 1, 54, 0
1, 124498, Note_off_c, 1, 38, 0
1, 124498, Note_off_c, 1, 26, 0
1, 124500, Note_on_c, 1, 71, 127
1, 124500, Note_on_c, 1, 67, 127
1, 124500, Note_on_c, 1, 50, 127
1, 124528, Note_off_c, 1, 71, 0
1, 124528, Note_off_c, 1, 67, 0
1, 124530, Note_on_c, 1, 73, 127
1, 124530, Note_on_c, 1, 66, 127
1, 124530, Note_on_c, 1, 55, 127
1, 124530, Note_on_c, 1, 43, 127
1, 124558, Note_off_c, 1, 50, 0
1, 124558, Note_off_c, 1, 73, 0
1, 124558, Note_off_c, 1, 66, 0
1, 124558, Note_off_c, 1, 55, 0
1, 124558, Note_off_c, 1, 43, 0
1, 124560, Note_on_c, 1, 71, 127
1, 124560, Note_on_c, 1, 67, 127
1, 124560, Note_on_c, 1, 64, 127
1, 124560, Note_on_c, 1, 52, 127
1, 124560, Note_on_c, 1, 55, 127
1, 124560, Note_on_c, 1, 43, 127
1, 124588, Note_off_c, 1, 71, 0
1, 124588, Note_off_c, 1, 67, 0
1, 124588, Note_off_c, 1, 55, 0
1, 124588, Note_off_c, 1, 43, 0
1, 124590, Note_on_c, 1, 73, 127
1, 124618, Note_off_c, 1, 64, 0
1, 124618, Note_off_c, 1, 52, 0
1, 124618, Note_off_c, 1, 73, 0
1, 124620, Note_on_c, 1, 74, 127
1, 124620, Note_on_c, 1, 69, 127
1, 124620, Note_on_c, 1, 62, 127
1, 124620, Note_on_c, 1, 54, 127
1, 124620, Note_on_c, 1, 42, 127
1, 124648, Note_off_c, 1, 74, 0
1, 124648, Note_off_c, 1, 69, 0
1, 124650, Note_on_c, 1, 76, 127
1, 124650, Note_on_c, 1, 67, 127
1, 124678, Note_off_c, 1, 62, 0
1, 124678, Note_off_c, 1, 54, 0
1, 124678, Note_off_c, 1, 42, 0
1, 124678, Note_off_c, 1, 76, 0
1, 124678, Note_off_c, 1, 67, 0
1, 124680, Note_on_c, 1, 78, 127
1, 124680, Note_on_c, 1, 69, 127
1, 124680, Note_on_c, 1, 57, 127
1, 124680, Note_on_c, 1, 50, 127
1, 124680, Note_on_c, 1, 42, 127
1, 124680, Note_on_c, 1, 30, 127
1, 124708, Note_off_c, 1, 78, 0
1, 124708, Note_off_c, 1, 69, 0
1, 124708, Note_off_c, 1, 57, 0
1, 124708, Note_off_c, 1, 50, 0
1, 124710, Note_on_c, 1, 74, 127
1, 124710, Note_on_c, 1, 66, 127
1, 124710, Note_on_c, 1, 62, 127
1, 124710, Note_on_c, 1, 54, 127
1, 124738, Note_off_c, 1, 42, 0
1, 124738, Note_off_c, 1, 30, 0
1, 124738, Note_off_c, 1, 74, 0
1, 124738, Note_off_c, 1, 66, 0
1, 124738, Note_off_c, 1, 62, 0
1, 124738, Note_off_c, 1, 54, 0
1, 124740, Note_on_c, 1, 71, 127
1, 124740, Note_on_c, 1, 64, 127
1, 124740, Note_on_c, 1, 56, 127
1, 124768, Note_off_c, 1, 71, 0
1, 124770, Note_on_c, 1, 73, 127
1, 124770, Note_on_c, 1, 69, 127
1, 124770, Note_on_c, 1, 52, 127
1, 124770, Note_on_c, 1, 40, 127
1, 124798, Note_off_c, 1, 64, 0
1, 124798, Note_off_c, 1, 56, 0
1, 124798, Note_off_c, 1, 73, 0
1, 124798, Note_off_c, 1, 69, 0
1, 124798, Note_off_c, 1, 52, 0
1, 124798, Note_off_c, 1, 40, 0
1, 124800, Note_on_c, 1, 74, 127
1, 124800, Note_on_c, 1, 71, 127
1, 124800, Note_on_c, 1, 59, 127
1, 124800, Note_on_c, 1, 52, 127
1, 124800, Note_on_c, 1, 40, 127
1, 124828, Note_off_c, 1, 74, 0
1, 124828, Note_off_c, 1, 71, 0
1, 124828, Note_off_c, 1, 59, 0
1, 124828, Note_off_c, 1, 52, 0
1, 124828, Note_off_c, 1, 40, 0
1, 124830, Note_on_c, 1, 71, 127
1, 124830, Note_on_c, 1, 68, 127
1, 124830, Note_on_c, 1, 64, 127
1, 124830, Note_on_c, 1, 56, 127
1, 124830, Note_on_c, 1, 52, 127
1, 124830, Note_on_c, 1, 40, 127
1, 124858, Note_off_c, 1, 71, 0
1, 124858, Note_off_c, 1, 68, 0
1, 124858, Note_off_c, 1, 64, 0
1, 124858, Note_off_c, 1, 56, 0
1, 124858, Note_off_c, 1, 52, 0
1, 124858, Note_off_c, 1, 40, 0
1, 124860, Note_on_c, 1, 69, 127
1, 124860, Note_on_c, 1, 73, 127
1, 124860, Note_on_c, 1, 64, 127
1, 124860, Note_on_c, 1, 61, 127
1, 124860, Note_on_c, 1, 57, 127
1, 124860, Note_on_c, 1, 45, 127
1, 124918, Note_off_c, 1, 69, 0
1, 124918, Note_off_c, 1, 73, 0
1, 124918, Note_off_c, 1, 64, 0
1, 124918, Note_off_c, 1, 61, 0
1, 124918, Note_off_c, 1, 57, 0
1, 124918, Note_off_c, 1, 45, 0
1, 124920, Note_on_c, 1, 81, 127
1, 124920, Note_on_c, 1, 76, 127
1, 124920, Note_on_c, 1, 69, 127
1, 124920, Note_on_c, 1, 45, 127
1, 124920, Note_on_c, 1, 73, 127
1, 124920, Note_on_c, 1, 64, 127
1, 124920, Note_on_c, 1, 33, 127
1, 124948, Note_off_c, 1, 73, 0
1, 124948, Note_off_c, 1, 64, 0
1, 124950, Note_on_c, 1, 71, 127
1, 124950, Note_on_c, 1, 74, 127
1, 124950, Note_on_c, 1, 68, 127
1, 124950, Note_on_c, 1, 62, 127
1, 124950, Note_on_c, 1, 57, 127
1, 124960, Note_off_c, 1, 81, 0
1, 124960, Note_off_c, 1, 76, 0
1, 124960, Note_off_c, 1, 69, 0
1, 124978, Note_off_c, 1, 45, 0
1, 124978, Note_off_c, 1, 33, 0
1, 124978, Note_off_c, 1, 71, 0
1, 124978, Note_off_c, 1, 74, 0
1, 124978, Note_off_c, 1, 68, 0
1, 124978, Note_off_c, 1, 62, 0
1, 124978, Note_off_c, 1, 57, 0
1, 124980, Note_on_c, 1, 85, 127
1, 124980, Note_on_c, 1, 81, 127
1, 124980, Note_on_c, 1, 76, 127
1, 124980, Note_on_c, 1, 45, 127
1, 124980, Note_on_c, 1, 69, 127
1, 124980, Note_on_c, 1, 61, 127
1, 124980, Note_on_c, 1, 57, 127
1, 125020, Note_off_c, 1, 85, 0
1, 125020, Note_off_c, 1, 81, 0
1, 125038, Note_off_c, 1, 76, 0
1, 125038, Note_off_c, 1, 45, 0
1, 125038, Note_off_c, 1, 69, 0
1, 125038, Note_off_c, 1, 61, 0
1, 125038, Note_off_c, 1, 57, 0
1, 125040, Note_on_c, 1, 81, 127
1, 125040, Note_on_c, 1, 85, 127
1, 125040, Note_on_c, 1, 76, 127
1, 125040, Note_on_c, 1, 45, 127
1, 125040, Note_on_c, 1, 73, 127
1, 125040, Note_on_c, 1, 69, 127
1, 125040, Note_on_c, 1, 64, 127
1, 125040, Note_on_c, 1, 52, 127
1, 125040, Note_on_c, 1, 57, 127
1, 125080, Note_off_c, 1, 85, 0
1, 125080, Note_off_c, 1, 76, 0
1, 125080, Note_off_c, 1, 73, 0
1, 125098, Note_off_c, 1, 81, 0
1, 125098, Note_off_c, 1, 45, 0
1, 125098, Note_off_c, 1, 69, 0
1, 125098, Note_off_c, 1, 64, 0
1, 125098, Note_off_c, 1, 52, 0
1, 125098, Note_off_c, 1, 57, 0
1, 125100, Note_on_c, 1, 76, 127
1, 125100, Note_on_c, 1, 88, 127
1, 125100, Note_on_c, 1, 85, 127
1, 125100, Note_on_c, 1, 81, 127
1, 125100, Note_on_c, 1, 45, 127
1, 125100, Note_on_c, 1, 73, 127
1, 125100, Note_on_c, 1, 69, 127
1, 125100, Note_on_c, 1, 64, 127
1, 125100, Note_on_c, 1, 61, 127
1, 125100, Note_on_c, 1, 55, 127
1, 125100, Note_on_c, 1, 43, 127
1, 125140, Note_off_c, 1, 73, 0
1, 125158, Note_off_c, 1, 43, 0
1, 125160, Note_off_c, 1, 88, 0
1, 125160, Note_off_c, 1, 85, 0
1, 125160, Note_off_c, 1, 45, 0
1, 125160, Note_on_c, 1, 66, 127
1, 125160, Note_on_c, 1, 31, 127
1, 125188, Note_off_c, 1, 64, 0
1, 125188, Note_off_c, 1, 61, 0
1, 125188, Note_off_c, 1, 55, 0
1, 125188, Note_off_c, 1, 66, 0
1, 125190, Note_on_c, 1, 67, 127
1, 125210, Note_off_c, 1, 76, 0
1, 125210, Note_off_c, 1, 81, 0
1, 125218, Note_off_c, 1, 69, 0
1, 125218, Note_off_c, 1, 31, 0
1, 125218, Note_off_c, 1, 67, 0
1, 125220, Note_on_c, 1, 76, 127
1, 125220, Note_on_c, 1, 88, 127
1, 125220, Note_on_c, 1, 85, 127
1, 125220, Note_on_c, 1, 81, 127
1, 125220, Note_on_c, 1, 45, 127
1, 125220, Note_on_c, 1, 73, 127
1, 125220, Note_on_c, 1, 69, 127
1, 125220, Note_on_c, 1, 64, 127
1, 125220, Note_on_c, 1, 61, 127
1, 125220, Note_on_c, 1, 55, 127
1, 125250, Note_on_c, 1, 43, 127
1, 125278, Note_off_c, 1, 73, 0
1, 125278, Note_off_c, 1, 43, 0
1, 125280, Note_on_c, 1, 71, 127
1, 125300, Note_off_c, 1, 88, 0
1, 125300, Note_off_c, 1, 85, 0
1, 125300, Note_off_c, 1, 45, 0
1, 125308, Note_off_c, 1, 71, 0
1, 125320, Note_off_c, 1, 76, 0
1, 125320, Note_off_c, 1, 81, 0
1, 125338, Note_off_c, 1, 69, 0
1, 125338, Note_off_c, 1, 64, 0
1, 125338, Note_off_c, 1, 61, 0
1, 125338, Note_off_c, 1, 55, 0
1, 125340, Note_on_c, 1, 74, 127
1, 125340, Note_on_c, 1, 69, 127
1, 125340, Note_on_c, 1, 66, 127
1, 125340, Note_on_c, 1, 67, 127
1, 125340, Note_on_c, 1, 62, 127
1, 125340, Note_on_c, 1, 54, 127
1, 125340, Note_on_c, 1, 42, 127
1, 125370, Note_on_c, 1, 64, 127
1, 125398, Note_off_c, 1, 54, 0
1, 125398, Note_off_c, 1, 42, 0
1, 125398, Note_off_c, 1, 64, 0
1, 125400, Note_on_c, 1, 57, 127
1, 125400, Note_on_c, 1, 50, 127
1, 125400, Note_on_c, 1, 30, 127
1, 125420, Note_off_c, 1, 67, 0
1, 125420, Note_off_c, 1, 62, 0
1, 125440, Note_off_c, 1, 50, 0
1, 125450, Note_off_c, 1, 74, 0
1, 125458, Note_off_c, 1, 69, 0
1, 125458, Note_off_c, 1, 66, 0
1, 125458, Note_off_c, 1, 57, 0
1, 125458, Note_off_c, 1, 30, 0
1, 125460, Note_on_c, 1, 78, 127
1, 125460, Note_on_c, 1, 74, 127
1, 125460, Note_on_c, 1, 69, 127
1, 125460, Note_on_c, 1, 50, 127
1, 125460, Note_on_c, 1, 66, 127
1, 125460, Note_on_c, 1, 62, 127
1, 125460, Note_on_c, 1, 57, 127
1, 125460, Note_on_c, 1, 54, 127
1, 125490, Note_on_c, 1, 73, 127
1, 125490, Note_on_c, 1, 42, 127
1, 125500, Note_off_c, 1, 78, 0
1, 125500, Note_off_c, 1, 50, 0
1, 125518, Note_off_c, 1, 62, 0
1, 125518, Note_off_c, 1, 57, 0
1, 125518, Note_off_c, 1, 54, 0
1, 125518, Note_off_c, 1, 73, 0
1, 125518, Note_off_c, 1, 42, 0
1, 125520, Note_on_c, 1, 71, 127
1, 125548, Note_off_c, 1, 71, 0
1, 125560, Note_off_c, 1, 74, 0
1, 125560, Note_off_c, 1, 66, 0
1, 125578, Note_off_c, 1, 69, 0
1, 125580, Note_on_c, 1, 81, 127
1, 125580, Note_on_c, 1, 76, 127
1, 125580, Note_on_c, 1, 69, 127
1, 125580, Note_on_c, 1, 45, 127
1, 125580, Note_on_c, 1, 73, 127
1, 125580, Note_on_c, 1, 64, 127
1, 125580, Note_on_c, 1, 61, 127
1, 125580, Note_on_c, 1, 57, 127
1, 125580, Note_on_c, 1, 49, 127
1, 125580, Note_on_c, 1, 37, 127
1, 125610, Note_on_c, 1, 66, 127
1, 125620, Note_off_c, 1, 73, 0
1, 125620, Note_off_c, 1, 64, 0
1, 125638, Note_off_c, 1, 37, 0
1, 125638, Note_off_c, 1, 66, 0
1, 125640, Note_off_c, 1, 45, 0
1, 125640, Note_on_c, 1, 25, 127
1, 125668, Note_off_c, 1, 61, 0
1, 125668, Note_off_c, 1, 57, 0
1, 125668, Note_off_c, 1, 49, 0
1, 125670, Note_on_c, 1, 67, 127
1, 125690, Note_off_c, 1, 81, 0
1, 125690, Note_off_c, 1, 69, 0
1, 125698, Note_off_c, 1, 76, 0
1, 125698, Note_off_c, 1, 25, 0
1, 125698, Note_off_c, 1, 67, 0
1, 125700, Note_on_c, 1, 81, 127
1, 125700, Note_on_c, 1, 76, 127
1, 125700, Note_on_c, 1, 69, 127
1, 125700, Note_on_c, 1, 45, 127
1, 125700, Note_on_c, 1, 73, 127
1, 125700, Note_on_c, 1, 64, 127
1, 125700, Note_on_c, 1, 61, 127
1, 125700, Note_on_c, 1, 57, 127
1, 125700, Note_on_c, 1, 49, 127
1, 125730, Note_on_c, 1, 37, 127
1, 125758, Note_off_c, 1, 73, 0
1, 125758, Note_off_c, 1, 37, 0
1, 125760, Note_off_c, 1, 64, 0
1, 125760, Note_off_c, 1, 61, 0
1, 125760, Note_on_c, 1, 71, 127
1, 125780, Note_off_c, 1, 45, 0
1, 125788, Note_off_c, 1, 71, 0
1, 125800, Note_off_c, 1, 81, 0
1, 125818, Note_off_c, 1, 76, 0
1, 125818, Note_off_c, 1, 69, 0
1, 125818, Note_off_c, 1, 57, 0
1, 125818, Note_off_c, 1, 49, 0
1, 125820, Note_on_c, 1, 78, 127
1, 125820, Note_on_c, 1, 74, 127
1, 125820, Note_on_c, 1, 69, 127
1, 125820, Note_on_c, 1, 67, 127
1, 125820, Note_on_c, 1, 62, 127
1, 125820, Note_on_c, 1, 66, 127
1, 125820, Note_on_c, 1, 50, 127
1, 125820, Note_on_c, 1, 38, 127
1, 125850, Note_on_c, 1, 81, 127
1, 125878, Note_off_c, 1, 50, 0
1, 125878, Note_off_c, 1, 38, 0
1, 125878, Note_off_c, 1, 81, 0
1, 125880, Note_off_c, 1, 78, 0
1, 125880, Note_off_c, 1, 74, 0
1, 125880, Note_off_c, 1, 69, 0
1, 125880, Note_on_c, 1, 79, 127
1, 125880, Note_on_c, 1, 76, 127
1, 125880, Note_on_c, 1, 57, 127
1, 125880, Note_on_c, 1, 45, 127
1, 125880, Note_on_c, 1, 26, 127
1, 125900, Note_off_c, 1, 67, 0
1, 125900, Note_off_c, 1, 66, 0
1, 125908, Note_off_c, 1, 79, 0
1, 125908, Note_off_c, 1, 76, 0
1, 125938, Note_off_c, 1, 62, 0
1, 125938, Note_off_c, 1, 57, 0
1, 125938, Note_off_c, 1, 45, 0
1, 125938, Note_off_c, 1, 26, 0
1, 125940, Note_on_c, 1, 78, 127
1, 125940, Note_on_c, 1, 74, 127
1, 125940, Note_on_c, 1, 69, 127
1, 125940, Note_on_c, 1, 57, 127
1, 125970, Note_on_c, 1, 79, 127
1, 125970, Note_on_c, 1, 76, 127
1, 125970, Note_on_c, 1, 45, 127
1, 125970, Note_on_c, 1, 33, 127
1, 125998, Note_off_c, 1, 79, 0
1, 125998, Note_off_c, 1, 76, 0
1, 125998, Note_off_c, 1, 45, 0
1, 125998, Note_off_c, 1, 33, 0
1, 126000, Note_on_c, 1, 73, 127
1, 126000, Note_on_c, 1, 54, 127
1, 126020, Note_off_c, 1, 78, 0
1, 126020, Note_off_c, 1, 74, 0
1, 126028, Note_off_c, 1, 73, 0
1, 126058, Note_off_c, 1, 69, 0
1, 126058, Note_off_c, 1, 54, 0
1, 126060, Note_on_c, 1, 71, 127
1, 126060, Note_on_c, 1, 66, 127
1, 126060, Note_on_c, 1, 47, 127
1, 126060, Note_on_c, 1, 35, 127
1, 126118, Note_off_c, 1, 57, 0
1, 126118, Note_off_c, 1, 71, 0
1, 126118, Note_off_c, 1, 66, 0
1, 126118, Note_off_c, 1, 47, 0
1, 126118, Note_off_c, 1, 35, 0
1, 126120, Note_on_c, 1, 73, 127
1, 126120, Note_on_c, 1, 74, 127
1, 126120, Note_on_c, 1, 62, 127
1, 126120, Note_on_c, 1, 54, 127
1, 126120, Note_on_c, 1, 59, 127
1, 126120, Note_on_c, 1, 47, 127
1, 126148, Note_off_c, 1, 73, 0
1, 126148, Note_off_c, 1, 74, 0
1, 126150, Note_on_c, 1, 71, 127
1, 126150, Note_on_c, 1, 57, 127
1, 126178, Note_off_c, 1, 62, 0
1, 126178, Note_off_c, 1, 54, 0
1, 126178, Note_off_c, 1, 59, 0
1, 126178, Note_off_c, 1, 47, 0
1, 126178, Note_off_c, 1, 71, 0
1, 126178, Note_off_c, 1, 57, 0
1, 126180, Note_on_c, 1, 71, 127
1, 126180, Note_on_c, 1, 76, 127
1, 126180, Note_on_c, 1, 56, 127
1, 126208, Note_off_c, 1, 71, 0
1, 126210, Note_on_c, 1, 40, 127
1, 126210, Note_on_c, 1, 28, 127
1, 126238, Note_off_c, 1, 76, 0
1, 126238, Note_off_c, 1, 40, 0
1, 126238, Note_off_c, 1, 28, 0
1, 126240, Note_on_c, 1, 74, 127
1, 126240, Note_on_c, 1, 64, 127
1, 126240, Note_on_c, 1, 68, 127
1, 126240, Note_on_c, 1, 59, 127
1, 126268, Note_off_c, 1, 74, 0
1, 126298, Note_off_c, 1, 56, 0
1, 126298, Note_off_c, 1, 64, 0
1, 126298, Note_off_c, 1, 68, 0
1, 126298, Note_off_c, 1, 59, 0
1, 126300, Note_on_c, 1, 73, 127
1, 126300, Note_on_c, 1, 64, 127
1, 126300, Note_on_c, 1, 57, 127
1, 126300, Note_on_c, 1, 45, 127
1, 126300, Note_on_c, 1, 33, 127
1, 126358, Note_off_c, 1, 73, 0
1, 126358, Note_off_c, 1, 64, 0
1, 126358, Note_off_c, 1, 57, 0
1, 126358, Note_off_c, 1, 45, 0
1, 126358, Note_off_c, 1, 33, 0
1, 126360, Note_on_c, 1, 71, 127
1, 126360, Note_on_c, 1, 69, 127
1, 126360, Note_on_c, 1, 61, 127
1, 126360, Note_on_c, 1, 52, 127
1, 126360, Note_on_c, 1, 57, 127
1, 126360, Note_on_c, 1, 45, 127
1, 126388, Note_off_c, 1, 71, 0
1, 126390, Note_on_c, 1, 73, 127
1, 126418, Note_off_c, 1, 69, 0
1, 126418, Note_off_c, 1, 61, 0
1, 126418, Note_off_c, 1, 52, 0
1, 126418, Note_off_c, 1, 57, 0
1, 126418, Note_off_c, 1, 45, 0
1, 126418, Note_off_c, 1, 73, 0
1, 126420, Note_on_c, 1, 69, 127
1, 126420, Note_on_c, 1, 74, 127
1, 126420, Note_on_c, 1, 57, 127
1, 126420, Note_on_c, 1, 54, 127
1, 126448, Note_off_c, 1, 74, 0
1, 126448, Note_off_c, 1, 54, 0
1, 126450, Note_on_c, 1, 73, 127
1, 126450, Note_on_c, 1, 55, 127
1, 126450, Note_on_c, 1, 42, 127
1, 126478, Note_off_c, 1, 69, 0
1, 126478, Note_off_c, 1, 57, 0
1, 126478, Note_off_c, 1, 73, 0
1, 126478, Note_off_c, 1, 55, 0
1, 126478, Note_off_c, 1, 42, 0
1, 126480, Note_on_c, 1, 69, 127
1, 126480, Note_on_c, 1, 74, 127
1, 126480, Note_on_c, 1, 50, 127
1, 126480, Note_on_c, 1, 52, 127
1, 126480, Note_on_c, 1, 54, 127
1, 126480, Note_on_c, 1, 42, 127
1, 126508, Note_off_c, 1, 74, 0
1, 126508, Note_off_c, 1, 52, 0
1, 126508, Note_off_c, 1, 54, 0
1, 126508, Note_off_c, 1, 42, 0
1, 126538, Note_off_c, 1, 69, 0
1, 126538, Note_off_c, 1, 50, 0
1, 126540, Note_on_c, 1, 71, 127
1, 126540, Note_on_c, 1, 74, 127
1, 126540, Note_on_c, 1, 67, 127
1, 126540, Note_on_c, 1, 55, 127
1, 126540, Note_on_c, 1, 43, 127
1, 126568, Note_off_c, 1, 74, 0
1, 126570, Note_on_c, 1, 73, 127
1, 126570, Note_on_c, 1, 57, 127
1, 126598, Note_off_c, 1, 71, 0
1, 126598, Note_off_c, 1, 67, 0
1, 126598, Note_off_c, 1, 55, 0
1, 126598, Note_off_c, 1, 43, 0
1, 126598, Note_off_c, 1, 73, 0
1, 126598, Note_off_c, 1, 57, 0
1, 126600, Note_on_c, 1, 67, 127
1, 126600, Note_on_c, 1, 74, 127
1, 126600, Note_on_c, 1, 62, 127
1, 126600, Note_on_c, 1, 59, 127
1, 126600, Note_on_c, 1, 43, 127
1, 126600, Note_on_c, 1, 31, 127
1, 126628, Note_off_c, 1, 67, 0
1, 126628, Note_off_c, 1, 74, 0
1, 126628, Note_off_c, 1, 59, 0
1, 126630, Note_on_c, 1, 71, 127
1, 126630, Note_on_c, 1, 66, 127
1, 126630, Note_on_c, 1, 55, 127
1, 126658, Note_off_c, 1, 62, 0
1, 126658, Note_off_c, 1, 43, 0
1, 126658, Note_off_c, 1, 31, 0
1, 126658, Note_off_c, 1, 71, 0
1, 126658, Note_off_c, 1, 66, 0
1, 126658, Note_off_c, 1, 55, 0
1, 126660, Note_on_c, 1, 73, 127
1, 126660, Note_on_c, 1, 76, 127
1, 126660, Note_on_c, 1, 67, 127
1, 126660, Note_on_c, 1, 61, 127
1, 126660, Note_on_c, 1, 52, 127
1, 126688, Note_off_c, 1, 76, 0
1, 126688, Note_off_c, 1, 52, 0
1, 126690, Note_on_c, 1, 74, 127
1, 126690, Note_on_c, 1, 54, 127
1, 126690, Note_on_c, 1, 40, 127
1, 126718, Note_off_c, 1, 73, 0
1, 126718, Note_off_c, 1, 67, 0
1, 126718, Note_off_c, 1, 61, 0
1, 126718, Note_off_c, 1, 74, 0
1, 126718, Note_off_c, 1, 54, 0
1, 126718, Note_off_c, 1, 40, 0
1, 126720, Note_on_c, 1, 69, 127
1, 126720, Note_on_c, 1, 76, 127
1, 126720, Note_on_c, 1, 64, 127
1, 126720, Note_on_c, 1, 55, 127
1, 126720, Note_on_c, 1, 52, 127
1, 126720, Note_on_c, 1, 40, 127
1, 126748, Note_off_c, 1, 69, 0
1, 126748, Note_off_c, 1, 76, 0
1, 126748, Note_off_c, 1, 55, 0
1, 126748, Note_off_c, 1, 52, 0
1, 126748, Note_off_c, 1, 40, 0
1, 126750, Note_on_c, 1, 73, 127
1, 126778, Note_off_c, 1, 64, 0
1, 126778, Note_off_c, 1, 73, 0
1, 126780, Note_on_c, 1, 74, 127
1, 126780, Note_on_c, 1, 50, 127
1, 126780, Note_on_c, 1, 69, 127
1, 126780, Note_on_c, 1, 66, 127
1, 126780, Note_on_c, 1, 54, 127
1, 126780, Note_on_c, 1, 38, 127
1, 126838, Note_off_c, 1, 74, 0
1, 126838, Note_off_c, 1, 69, 0
1, 126838, Note_off_c, 1, 66, 0
1, 126838, Note_off_c, 1, 54, 0
1, 126838, Note_off_c, 1, 38, 0
1, 126840, Note_on_c, 1, 78, 127
1, 126840, Note_on_c, 1, 62, 127
1, 126840, Note_on_c, 1, 26, 127
1, 126860, Note_off_c, 1, 78, 0
1, 126868, Note_off_c, 1, 50, 0
1, 126870, Note_on_c, 1, 76, 127
1, 126870, Note_on_c, 1, 67, 127
1, 126870, Note_on_c, 1, 73, 127
1, 126870, Note_on_c, 1, 64, 127
1, 126890, Note_off_c, 1, 76, 0
1, 126898, Note_off_c, 1, 62, 0
1, 126898, Note_off_c, 1, 26, 0
1, 126898, Note_off_c, 1, 67, 0
1, 126898, Note_off_c, 1, 73, 0
1, 126898, Note_off_c, 1, 64, 0
1, 126900, Note_on_c, 1, 74, 127
1, 126900, Note_on_c, 1, 66, 127
1, 126900, Note_on_c, 1, 69, 127
1, 126900, Note_on_c, 1, 62, 127
1, 126930, Note_on_c, 1, 50, 127
1, 126958, Note_off_c, 1, 74, 0
1, 126958, Note_off_c, 1, 66, 0
1, 126958, Note_off_c, 1, 69, 0
1, 126958, Note_off_c, 1, 62, 0
1, 126958, Note_off_c, 1, 50, 0
1, 126960, Note_on_c, 1, 74, 127
1, 126960, Note_on_c, 1, 69, 127
1, 126960, Note_on_c, 1, 62, 127
1, 126960, Note_on_c, 1, 50, 127
1, 126988, Note_off_c, 1, 50, 0
1, 127018, Note_off_c, 1, 74, 0
1, 127018, Note_off_c, 1, 69, 0
1, 127018, Note_off_c, 1, 62, 0
1, 127020, Note_on_c, 1, 74, 127
1, 127020, Note_on_c, 1, 66, 127
1, 127020, Note_on_c, 1, 45, 127
1, 127020, Note_on_c, 1, 69, 127
1, 127020, Note_on_c, 1, 78, 127
1, 127020, Note_on_c, 1, 62, 127
1, 127020, Note_on_c, 1, 57, 127
1, 127020, Note_on_c, 1, 60, 127
1, 127020, Note_on_c, 1, 48, 127
1, 127040, Note_off_c, 1, 74, 0
1, 127060, Note_off_c, 1, 66, 0
1, 127078, Note_off_c, 1, 48, 0
1, 127080, Note_on_c, 1, 76, 127
1, 127080, Note_on_c, 1, 36, 127
1, 127100, Note_off_c, 1, 45, 0
1, 127100, Note_off_c, 1, 76, 0
1, 127108, Note_off_c, 1, 78, 0
1, 127108, Note_off_c, 1, 62, 0
1, 127108, Note_off_c, 1, 57, 0
1, 127108, Note_off_c, 1, 60, 0
1, 127138, Note_off_c, 1, 69, 0
1, 127138, Note_off_c, 1, 36, 0
1, 127140, Note_on_c, 1, 74, 127
1, 127140, Note_on_c, 1, 62, 127
1, 127140, Note_on_c, 1, 66, 127
1, 127140, Note_on_c, 1, 69, 127
1, 127140, Note_on_c, 1, 78, 127
1, 127140, Note_on_c, 1, 57, 127
1, 127140, Note_on_c, 1, 60, 127
1, 127160, Note_off_c, 1, 74, 0
1, 127170, Note_on_c, 1, 48, 127
1, 127180, Note_off_c, 1, 66, 0
1, 127198, Note_off_c, 1, 48, 0
1, 127200, Note_on_c, 1, 76, 127
1, 127220, Note_off_c, 1, 76, 0
1, 127258, Note_off_c, 1, 62, 0
1, 127258, Note_off_c, 1, 69, 0
1, 127258, Note_off_c, 1, 78, 0
1, 127258, Note_off_c, 1, 57, 0
1, 127258, Note_off_c, 1, 60, 0
1, 127260, Note_on_c, 1, 79, 127
1, 127260, Note_on_c, 1, 62, 127
1, 127260, Note_on_c, 1, 50, 127
1, 127260, Note_on_c, 1, 59, 127
1, 127260, Note_on_c, 1, 47, 127
1, 127280, Note_off_c, 1, 79, 0
1, 127290, Note_on_c, 1, 78, 127
1, 127310, Note_off_c, 1, 78, 0
1, 127318, Note_off_c, 1, 59, 0
1, 127318, Note_off_c, 1, 47, 0
1, 127320, Note_on_c, 1, 76, 127
1, 127320, Note_on_c, 1, 67, 127
1, 127320, Note_on_c, 1, 74, 127
1, 127320, Note_on_c, 1, 71, 127
1, 127320, Note_on_c, 1, 55, 127
1, 127320, Note_on_c, 1, 35, 127
1, 127340, Note_off_c, 1, 50, 0
1, 127340, Note_off_c, 1, 76, 0
1, 127360, Note_off_c, 1, 67, 0
1, 127378, Note_off_c, 1, 62, 0
1, 127378, Note_off_c, 1, 74, 0
1, 127378, Note_off_c, 1, 71, 0
1, 127378, Note_off_c, 1, 55, 0
1, 127378, Note_off_c, 1, 35, 0
1, 127380, Note_on_c, 1, 74, 127
1, 127380, Note_on_c, 1, 62, 127
1, 127380, Note_on_c, 1, 71, 127
1, 127380, Note_on_c, 1, 67, 127
1, 127380, Note_on_c, 1, 59, 127
1, 127410, Note_on_c, 1, 78, 127
1, 127410, Note_on_c, 1, 47, 127
1, 127420, Note_off_c, 1, 71, 0
1, 127430, Note_off_c, 1, 78, 0
1, 127438, Note_off_c, 1, 74, 0
1, 127438, Note_off_c, 1, 67, 0
1, 127438, Note_off_c, 1, 59, 0
1, 127438, Note_off_c, 1, 47, 0
1, 127440, Note_on_c, 1, 76, 127
1, 127460, Note_off_c, 1, 76, 0
1, 127498, Note_off_c, 1, 62, 0
1, 127500, Note_on_c, 1, 81, 127
1, 127500, Note_on_c, 1, 66, 127
1, 127500, Note_on_c, 1, 45, 127
1, 127500, Note_on_c, 1, 74, 127
1, 127500, Note_on_c, 1, 69, 127
1, 127500, Note_on_c, 1, 62, 127
1, 127500, Note_on_c, 1, 54, 127
1, 127500, Note_on_c, 1, 42, 127
1, 127520, Note_off_c, 1, 81, 0
1, 127530, Note_on_c, 1, 78, 127
1, 127550, Note_off_c, 1, 78, 0
1, 127558, Note_off_c, 1, 42, 0
1, 127560, Note_on_c, 1, 76, 127
1, 127560, Note_on_c, 1, 33, 127
1, 127580, Note_off_c, 1, 76, 0
1, 127588, Note_off_c, 1, 66, 0
1, 127588, Note_off_c, 1, 74, 0
1, 127588, Note_off_c, 1, 62, 0
1, 127588, Note_off_c, 1, 54, 0
1, 127618, Note_off_c, 1, 45, 0
1, 127618, Note_off_c, 1, 69, 0
1, 127618, Note_off_c, 1, 33, 0
1, 127620, Note_on_c, 1, 74, 127
1, 127620, Note_on_c, 1, 62, 127
1, 127620, Note_on_c, 1, 66, 127
1, 127620, Note_on_c, 1, 69, 127
1, 127620, Note_on_c, 1, 54, 127
1, 127650, Note_on_c, 1, 78, 127
1, 127650, Note_on_c, 1, 42, 127
1, 127670, Note_off_c, 1, 78, 0
1, 127678, Note_off_c, 1, 66, 0
1, 127678, Note_off_c, 1, 69, 0
1, 127678, Note_off_c, 1, 54, 0
1, 127678, Note_off_c, 1, 42, 0
1, 127680, Note_off_c, 1, 62, 0
1, 127680, Note_on_c, 1, 76, 127
1, 127680, Note_on_c, 1, 81, 127
1, 127700, Note_off_c, 1, 76, 0
1, 127720, Note_off_c, 1, 81, 0
1, 127738, Note_off_c, 1, 74, 0
1, 127740, Note_on_c, 1, 83, 127
1, 127740, Note_on_c, 1, 62, 127
1, 127740, Note_on_c, 1, 50, 127
1, 127740, Note_on_c, 1, 74, 127
1, 127740, Note_on_c, 1, 79, 127
1, 127740, Note_on_c, 1, 67, 127
1, 127740, Note_on_c, 1, 59, 127
1, 127740, Note_on_c, 1, 55, 127
1, 127740, Note_on_c, 1, 43, 127
1, 127760, Note_off_c, 1, 83, 0
1, 127760, Note_off_c, 1, 79, 0
1, 127770, Note_on_c, 1, 86, 127
1, 127770, Note_on_c, 1, 71, 127
1, 127780, Note_off_c, 1, 67, 0
1, 127780, Note_off_c, 1, 59, 0
1, 127790, Note_off_c, 1, 86, 0
1, 127798, Note_off_c, 1, 74, 0
1, 127798, Note_off_c, 1, 55, 0
1, 127798, Note_off_c, 1, 43, 0
1, 127798, Note_off_c, 1, 71, 0
1, 127800, Note_on_c, 1, 85, 127
1, 127800, Note_on_c, 1, 81, 127
1, 127800, Note_on_c, 1, 69, 127
1, 127800, Note_on_c, 1, 31, 127
1, 127820, Note_off_c, 1, 85, 0
1, 127820, Note_off_c, 1, 81, 0
1, 127828, Note_off_c, 1, 69, 0
1, 127858, Note_off_c, 1, 62, 0
1, 127858, Note_off_c, 1, 50, 0
1, 127858, Note_off_c, 1, 31, 0
1, 127860, Note_on_c, 1, 83, 127
1, 127860, Note_on_c, 1, 62, 127
1, 127860, Note_on_c, 1, 74, 127
1, 127860, Note_on_c, 1, 79, 127
1, 127860, Note_on_c, 1, 67, 127
1, 127860, Note_on_c, 1, 50, 127
1, 127880, Note_off_c, 1, 83, 0
1, 127880, Note_off_c, 1, 79, 0
1, 127888, Note_off_c, 1, 67, 0
1, 127890, Note_on_c, 1, 85, 127
1, 127890, Note_on_c, 1, 81, 127
1, 127890, Note_on_c, 1, 69, 127
1, 127890, Note_on_c, 1, 38, 127
1, 127910, Note_off_c, 1, 85, 0
1, 127910, Note_off_c, 1, 81, 0
1, 127918, Note_off_c, 1, 50, 0
1, 127918, Note_off_c, 1, 69, 0
1, 127918, Note_off_c, 1, 38, 0
1, 127920, Note_on_c, 1, 78, 127
1, 127920, Note_on_c, 1, 66, 127
1, 127920, Note_on_c, 1, 59, 127
1, 127920, Note_on_c, 1, 54, 127
1, 127920, Note_on_c, 1, 47, 127
1, 127940, Note_off_c, 1, 62, 0
1, 127940, Note_off_c, 1, 78, 0
1, 127960, Note_off_c, 1, 66, 0
1, 127960, Note_off_c, 1, 59, 0
1, 127978, Note_off_c, 1, 54, 0
1, 127978, Note_off_c, 1, 47, 0
1, 127980, Note_on_c, 1, 71, 127
1, 127980, Note_on_c, 1, 76, 127
1, 127980, Note_on_c, 1, 64, 127
1, 127980, Note_on_c, 1, 55, 127
1, 127980, Note_on_c, 1, 52, 127
1, 127980, Note_on_c, 1, 40, 127
1, 128020, Note_off_c, 1, 76, 0
1, 128038, Note_off_c, 1, 74, 0
1, 128038, Note_off_c, 1, 71, 0
1, 128038, Note_off_c, 1, 64, 0
1, 128038, Note_off_c, 1, 55, 0
1, 128038, Note_off_c, 1, 52, 0
1, 128038, Note_off_c, 1, 40, 0
1, 128040, Note_on_c, 1, 78, 127
1, 128040, Note_on_c, 1, 76, 127
1, 128040, Note_on_c, 1, 67, 127
1, 128040, Note_on_c, 1, 79, 127
1, 128040, Note_on_c, 1, 71, 127
1, 128040, Note_on_c, 1, 59, 127
1, 128040, Note_on_c, 1, 40, 127
1, 128040, Note_on_c, 1, 28, 127
1, 128060, Note_off_c, 1, 78, 0
1, 128060, Note_off_c, 1, 79, 0
1, 128068, Note_off_c, 1, 76, 0
1, 128070, Note_on_c, 1, 74, 127
1, 128080, Note_off_c, 1, 71, 0
1, 128098, Note_off_c, 1, 67, 0
1, 128098, Note_off_c, 1, 59, 0
1, 128098, Note_off_c, 1, 40, 0
1, 128098, Note_off_c, 1, 28, 0
1, 128098, Note_off_c, 1, 74, 0
1, 128100, Note_on_c, 1, 76, 127
1, 128100, Note_on_c, 1, 73, 127
1, 128100, Note_on_c, 1, 81, 127
1, 128100, Note_on_c, 1, 61, 127
1, 128100, Note_on_c, 1, 69, 127
1, 128100, Note_on_c, 1, 49, 127
1, 128120, Note_off_c, 1, 76, 0
1, 128130, Note_on_c, 1, 45, 127
1, 128130, Note_on_c, 1, 33, 127
1, 128140, Note_off_c, 1, 61, 0
1, 128150, Note_off_c, 1, 81, 0
1, 128158, Note_off_c, 1, 69, 0
1, 128158, Note_off_c, 1, 49, 0
1, 128158, Note_off_c, 1, 45, 0
1, 128158, Note_off_c, 1, 33, 0
1, 128160, Note_on_c, 1, 79, 127
1, 128160, Note_on_c, 1, 64, 127
1, 128160, Note_on_c, 1, 57, 127
1, 128160, Note_on_c, 1, 52, 127
1, 128180, Note_off_c, 1, 79, 0
1, 128200, Note_off_c, 1, 64, 0
1, 128218, Note_off_c, 1, 73, 0
1, 128218, Note_off_c, 1, 57, 0
1, 128218, Note_off_c, 1, 52, 0
1, 128220, Note_on_c, 1, 78, 127
1, 128220, Note_on_c, 1, 74, 127
1, 128220, Note_on_c, 1, 69, 127
1, 128220, Note_on_c, 1, 66, 127
1, 128220, Note_on_c, 1, 54, 127
1, 128220, Note_on_c, 1, 50, 127
1, 128220, Note_on_c, 1, 38, 127
1, 128260, Note_off_c, 1, 78, 0
1, 128260, Note_off_c, 1, 66, 0
1, 128278, Note_off_c, 1, 74, 0
1, 128278, Note_off_c, 1, 69, 0
1, 128278, Note_off_c, 1, 54, 0
1, 128278, Note_off_c, 1, 50, 0
1, 128278, Note_off_c, 1, 38, 0
1, 128280, Note_on_c, 1, 76, 127
1, 128280, Note_on_c, 1, 69, 127
1, 128280, Note_on_c, 1, 66, 127
1, 128280, Note_on_c, 1, 74, 127
1, 128280, Note_on_c, 1, 62, 127
1, 128280, Note_on_c, 1, 57, 127
1, 128280, Note_on_c, 1, 38, 127
1, 128280, Note_on_c, 1, 26, 127
1, 128300, Note_off_c, 1, 76, 0
1, 128310, Note_on_c, 1, 78, 127
1, 128320, Note_off_c, 1, 74, 0
1, 128330, Note_off_c, 1, 78, 0
1, 128338, Note_off_c, 1, 69, 0
1, 128338, Note_off_c, 1, 66, 0
1, 128338, Note_off_c, 1, 62, 0
1, 128338, Note_off_c, 1, 57, 0
1, 128338, Note_off_c, 1, 38, 0
1, 128338, Note_off_c, 1, 26, 0
1, 128340, Note_on_c, 1, 74, 127
1, 128340, Note_on_c, 1, 71, 127
1, 128340, Note_on_c, 1, 79, 127
1, 128340, Note_on_c, 1, 67, 127
1, 128340, Note_on_c, 1, 62, 127
1, 128360, Note_off_c, 1, 79, 0
1, 128368, Note_off_c, 1, 71, 0
1, 128368, Note_off_c, 1, 67, 0
1, 128370, Note_on_c, 1, 73, 127
1, 128370, Note_on_c, 1, 78, 127
1, 128370, Note_on_c, 1, 66, 127
1, 128370, Note_on_c, 1, 55, 127
1, 128370, Note_on_c, 1, 43, 127
1, 128380, Note_off_c, 1, 74, 0
1, 128390, Note_off_c, 1, 78, 0
1, 128398, Note_off_c, 1, 62, 0
1, 128398, Note_off_c, 1, 73, 0
1, 128398, Note_off_c, 1, 66, 0
1, 128398, Note_off_c, 1, 55, 0
1, 128398, Note_off_c, 1, 43, 0
1, 128400, Note_on_c, 1, 76, 127
1, 128400, Note_on_c, 1, 45, 127
1, 128400, Note_on_c, 1, 71, 127
1, 128400, Note_on_c, 1, 79, 127
1, 128400, Note_on_c, 1, 67, 127
1, 128400, Note_on_c, 1, 59, 127
1, 128400, Note_on_c, 1, 55, 127
1, 128400, Note_on_c, 1, 43, 127
1, 128420, Note_off_c, 1, 79, 0
1, 128428, Note_off_c, 1, 43, 0
1, 128430, Note_on_c, 1, 73, 127
1, 128430, Note_on_c, 1, 64, 127
1, 128440, Note_off_c, 1, 45, 0
1, 128440, Note_off_c, 1, 71, 0
1, 128440, Note_off_c, 1, 67, 0
1, 128458, Note_off_c, 1, 76, 0
1, 128458, Note_off_c, 1, 59, 0
1, 128458, Note_off_c, 1, 55, 0
1, 128458, Note_off_c, 1, 73, 0
1, 128458, Note_off_c, 1, 64, 0
1, 128460, Note_on_c, 1, 78, 127
1, 128460, Note_on_c, 1, 50, 127
1, 128460, Note_on_c, 1, 74, 127
1, 128460, Note_on_c, 1, 81, 127
1, 128460, Note_on_c, 1, 69, 127
1, 128460, Note_on_c, 1, 57, 127
1, 128460, Note_on_c, 1, 54, 127
1, 128460, Note_on_c, 1, 42, 127
1, 128480, Note_off_c, 1, 81, 0
1, 128490, Note_on_c, 1, 76, 127
1, 128490, Note_on_c, 1, 79, 127
1, 128490, Note_on_c, 1, 67, 127
1, 128500, Note_off_c, 1, 78, 0
1, 128500, Note_off_c, 1, 50, 0
1, 128500, Note_off_c, 1, 69, 0
1, 128510, Note_off_c, 1, 79, 0
1, 128518, Note_off_c, 1, 74, 0
1, 128518, Note_off_c, 1, 57, 0
1, 128518, Note_off_c, 1, 54, 0
1, 128518, Note_off_c, 1, 42, 0
1, 128518, Note_off_c, 1, 76, 0
1, 128518, Note_off_c, 1, 67, 0
1, 128520, Note_on_c, 1, 74, 127
1, 128520, Note_on_c, 1, 69, 127
1, 128520, Note_on_c, 1, 50, 127
1, 128520, Note_on_c, 1, 78, 127
1, 128520, Note_on_c, 1, 81, 127
1, 128520, Note_on_c, 1, 66, 127
1, 128520, Note_on_c, 1, 54, 127
1, 128520, Note_on_c, 1, 57, 127
1, 128520, Note_on_c, 1, 42, 127
1, 128520, Note_on_c, 1, 30, 127
1, 128540, Note_off_c, 1, 74, 0
1, 128540, Note_off_c, 1, 50, 0
1, 128540, Note_off_c, 1, 81, 0
1, 128548, Note_off_c, 1, 78, 0
1, 128550, Note_on_c, 1, 73, 127
1, 128570, Note_off_c, 1, 69, 0
1, 128578, Note_off_c, 1, 66, 0
1, 128578, Note_off_c, 1, 54, 0
1, 128578, Note_off_c, 1, 57, 0
1, 128578, Note_off_c, 1, 42, 0
1, 128578, Note_off_c, 1, 30, 0
1, 128578, Note_off_c, 1, 73, 0
1, 128580, Note_on_c, 1, 80, 127
1, 128580, Note_on_c, 1, 74, 127
1, 128580, Note_on_c, 1, 64, 127
1, 128580, Note_on_c, 1, 50, 127
1, 128580, Note_on_c, 1, 71, 127
1, 128580, Note_on_c, 1, 83, 127
1, 128580, Note_on_c, 1, 68, 127
1, 128580, Note_on_c, 1, 56, 127
1, 128600, Note_off_c, 1, 83, 0
1, 128608, Note_off_c, 1, 71, 0
1, 128610, Note_on_c, 1, 73, 127
1, 128610, Note_on_c, 1, 81, 127
1, 128610, Note_on_c, 1, 69, 127
1, 128610, Note_on_c, 1, 52, 127
1, 128610, Note_on_c, 1, 40, 127
1, 128620, Note_off_c, 1, 80, 0
1, 128620, Note_off_c, 1, 64, 0
1, 128620, Note_off_c, 1, 50, 0
1, 128620, Note_off_c, 1, 68, 0
1, 128630, Note_off_c, 1, 81, 0
1, 128638, Note_off_c, 1, 74, 0
1, 128638, Note_off_c, 1, 56, 0
1, 128638, Note_off_c, 1, 73, 0
1, 128638, Note_off_c, 1, 69, 0
1, 128638, Note_off_c, 1, 52, 0
1, 128638, Note_off_c, 1, 40, 0
1, 128640, Note_on_c, 1, 74, 127
1, 128640, Note_on_c, 1, 64, 127
1, 128640, Note_on_c, 1, 50, 127
1, 128640, Note_on_c, 1, 69, 127
1, 128640, Note_on_c, 1, 83, 127
1, 128640, Note_on_c, 1, 68, 127
1, 128640, Note_on_c, 1, 71, 127
1, 128640, Note_on_c, 1, 56, 127
1, 128640, Note_on_c, 1, 59, 127
1, 128640, Note_on_c, 1, 52, 127
1, 128640, Note_on_c, 1, 40, 127
1, 128660, Note_off_c, 1, 64, 0
1, 128660, Note_off_c, 1, 50, 0
1, 128660, Note_off_c, 1, 69, 0
1, 128660, Note_off_c, 1, 83, 0
1, 128668, Note_off_c, 1, 74, 0
1, 128668, Note_off_c, 1, 52, 0
1, 128668, Note_off_c, 1, 40, 0
1, 128670, Note_on_c, 1, 80, 127
1, 128670, Note_on_c, 1, 76, 127
1, 128690, Note_off_c, 1, 80, 0
1, 128698, Note_off_c, 1, 68, 0
1, 128698, Note_off_c, 1, 71, 0
1, 128698, Note_off_c, 1, 56, 0
1, 128698, Note_off_c, 1, 59, 0
1, 128698, Note_off_c, 1, 76, 0
1, 128700, Note_on_c, 1, 81, 127
1, 128700, Note_on_c, 1, 76, 127
1, 128700, Note_on_c, 1, 69, 127
1, 128700, Note_on_c, 1, 45, 127
1, 128700, Note_on_c, 1, 73, 127
1, 128700, Note_on_c, 1, 64, 127
1, 128700, Note_on_c, 1, 57, 127
1, 128730, Note_on_c, 1, 74, 127
1, 128730, Note_on_c, 1, 59, 127
1, 128750, Note_off_c, 1, 74, 0
1, 128758, Note_off_c, 1, 73, 0
1, 128758, Note_off_c, 1, 64, 0
1, 128758, Note_off_c, 1, 57, 0
1, 128758, Note_off_c, 1, 59, 0
1, 128760, Note_on_c, 1, 61, 127
1, 128760, Note_on_c, 1, 33, 127
1, 128780, Note_off_c, 1, 81, 0
1, 128780, Note_off_c, 1, 76, 0
1, 128788, Note_off_c, 1, 69, 0
1, 128800, Note_off_c, 1, 61, 0
1, 128818, Note_off_c, 1, 45, 0
1, 128818, Note_off_c, 1, 33, 0
1, 128820, Note_on_c, 1, 75, 127
1, 128820, Note_on_c, 1, 66, 127
1, 128820, Note_on_c, 1, 69, 127
1, 128820, Note_on_c, 1, 54, 127
1, 128840, Note_off_c, 1, 69, 0
1, 128848, Note_off_c, 1, 54, 0
1, 128850, Note_on_c, 1, 71, 127
1, 128850, Note_on_c, 1, 55, 127
1, 128850, Note_on_c, 1, 42, 127
1, 128870, Note_off_c, 1, 71, 0
1, 128878, Note_off_c, 1, 75, 0
1, 128878, Note_off_c, 1, 66, 0
1, 128878, Note_off_c, 1, 55, 0
1, 128878, Note_off_c, 1, 42, 0
1, 128880, Note_on_c, 1, 69, 127
1, 128880, Note_on_c, 1, 63, 127
1, 128880, Note_on_c, 1, 81, 127
1, 128880, Note_on_c, 1, 72, 127
1, 128880, Note_on_c, 1, 54, 127
1, 128880, Note_on_c, 1, 57, 127
1, 128880, Note_on_c, 1, 42, 127
1, 128900, Note_off_c, 1, 72, 0
1, 128908, Note_off_c, 1, 63, 0
1, 128908, Note_off_c, 1, 57, 0
1, 128908, Note_off_c, 1, 42, 0
1, 128910, Note_on_c, 1, 75, 127
1, 128910, Note_on_c, 1, 66, 127
1, 128910, Note_on_c, 1, 74, 127
1, 128920, Note_off_c, 1, 81, 0
1, 128930, Note_off_c, 1, 75, 0
1, 128938, Note_off_c, 1, 69, 0
1, 128938, Note_off_c, 1, 54, 0
1, 128938, Note_off_c, 1, 66, 0
1, 128938, Note_off_c, 1, 74, 0
1, 128940, Note_on_c, 1, 80, 127
1, 128940, Note_on_c, 1, 76, 127
1, 128940, Note_on_c, 1, 68, 127
1, 128940, Note_on_c, 1, 71, 127
1, 128940, Note_on_c, 1, 59, 127
1, 128940, Note_on_c, 1, 52, 127
1, 128940, Note_on_c, 1, 40, 127
1, 128970, Note_on_c, 1, 69, 127
1, 128970, Note_on_c, 1, 54, 127
1, 128980, Note_off_c, 1, 80, 0
1, 128980, Note_off_c, 1, 71, 0
1, 128998, Note_off_c, 1, 76, 0
1, 128998, Note_off_c, 1, 68, 0
1, 128998, Note_off_c, 1, 59, 0
1, 128998, Note_off_c, 1, 52, 0
1, 128998, Note_off_c, 1, 40, 0
1, 128998, Note_off_c, 1, 69, 0
1, 128998, Note_off_c, 1, 54, 0
1, 129000, Note_on_c, 1, 76, 127
1, 129000, Note_on_c, 1, 71, 127
1, 129000, Note_on_c, 1, 68, 127
1, 129000, Note_on_c, 1, 59, 127
1, 129000, Note_on_c, 1, 64, 127
1, 129000, Note_on_c, 1, 56, 127
1, 129000, Note_on_c, 1, 40, 127
1, 129000, Note_on_c, 1, 28, 127
1, 129020, Note_off_c, 1, 68, 0
1, 129028, Note_off_c, 1, 71, 0
1, 129028, Note_off_c, 1, 64, 0
1, 129028, Note_off_c, 1, 56, 0
1, 129030, Note_on_c, 1, 80, 127
1, 129030, Note_on_c, 1, 67, 127
1, 129030, Note_on_c, 1, 52, 127
1, 129050, Note_off_c, 1, 80, 0
1, 129058, Note_off_c, 1, 76, 0
1, 129058, Note_off_c, 1, 59, 0
1, 129058, Note_off_c, 1, 40, 0
1, 129058, Note_off_c, 1, 28, 0
1, 129058, Note_off_c, 1, 67, 0
1, 129058, Note_off_c, 1, 52, 0
1, 129060, Note_on_c, 1, 82, 127
1, 129060, Note_on_c, 1, 64, 127
1, 129060, Note_on_c, 1, 73, 127
1, 129060, Note_on_c, 1, 70, 127
1, 129060, Note_on_c, 1, 61, 127
1, 129060, Note_on_c, 1, 49, 127
1, 129088, Note_off_c, 1, 49, 0
1, 129090, Note_on_c, 1, 66, 127
1, 129090, Note_on_c, 1, 50, 127
1, 129090, Note_on_c, 1, 37, 127
1, 129100, Note_off_c, 1, 82, 0
1, 129100, Note_off_c, 1, 64, 0
1, 129100, Note_off_c, 1, 73, 0
1, 129118, Note_off_c, 1, 70, 0
1, 129118, Note_off_c, 1, 61, 0
1, 129118, Note_off_c, 1, 66, 0
1, 129118, Note_off_c, 1, 50, 0
1, 129118, Note_off_c, 1, 37, 0
1, 129120, Note_on_c, 1, 76, 127
1, 129120, Note_on_c, 1, 67, 127
1, 129120, Note_on_c, 1, 70, 127
1, 129120, Note_on_c, 1, 52, 127
1, 129120, Note_on_c, 1, 64, 127
1, 129120, Note_on_c, 1, 68, 127
1, 129120, Note_on_c, 1, 58, 127
1, 129120, Note_on_c, 1, 49, 127
1, 129120, Note_on_c, 1, 37, 127
1, 129140, Note_off_c, 1, 67, 0
1, 129140, Note_off_c, 1, 70, 0
1, 129148, Note_off_c, 1, 64, 0
1, 129148, Note_off_c, 1, 68, 0
1, 129148, Note_off_c, 1, 58, 0
1, 129148, Note_off_c, 1, 49, 0
1, 129148, Note_off_c, 1, 37, 0
1, 129150, Note_on_c, 1, 82, 127
1, 129150, Note_on_c, 1, 73, 127
1, 129150, Note_on_c, 1, 61, 127
1, 129160, Note_off_c, 1, 52, 0
1, 129170, Note_off_c, 1, 82, 0
1, 129170, Note_off_c, 1, 73, 0
1, 129178, Note_off_c, 1, 76, 0
1, 129178, Note_off_c, 1, 61, 0
1, 129180, Note_on_c, 1, 83, 127
1, 129180, Note_on_c, 1, 74, 127
1, 129180, Note_on_c, 1, 71, 127
1, 129180, Note_on_c, 1, 66, 127
1, 129180, Note_on_c, 1, 54, 127
1, 129180, Note_on_c, 1, 50, 127
1, 129180, Note_on_c, 1, 47, 127
1, 129180, Note_on_c, 1, 35, 127
1, 129208, Note_off_c, 1, 74, 0
1, 129208, Note_off_c, 1, 71, 0
1, 129210, Note_on_c, 1, 76, 127
1, 129210, Note_on_c, 1, 73, 127
1, 129220, Note_off_c, 1, 83, 0
1, 129238, Note_off_c, 1, 66, 0
1, 129238, Note_off_c, 1, 54, 0
1, 129238, Note_off_c, 1, 50, 0
1, 129238, Note_off_c, 1, 47, 0
1, 129238, Note_off_c, 1, 35, 0
1, 129238, Note_off_c, 1, 76, 0
1, 129238, Note_off_c, 1, 73, 0
1, 129240, Note_on_c, 1, 74, 127
1, 129240, Note_on_c, 1, 78, 127
1, 129240, Note_on_c, 1, 66, 127
1, 129240, Note_on_c, 1, 59, 127
1, 129240, Note_on_c, 1, 62, 127
1, 129240, Note_on_c, 1, 54, 127
1, 129240, Note_on_c, 1, 47, 127
1, 129268, Note_off_c, 1, 74, 0
1, 129268, Note_off_c, 1, 78, 0
1, 129268, Note_off_c, 1, 62, 0
1, 129268, Note_off_c, 1, 54, 0
1, 129270, Note_on_c, 1, 71, 127
1, 129270, Note_on_c, 1, 50, 127
1, 129298, Note_off_c, 1, 66, 0
1, 129298, Note_off_c, 1, 59, 0
1, 129298, Note_off_c, 1, 47, 0
1, 129298, Note_off_c, 1, 71, 0
1, 129298, Note_off_c, 1, 50, 0
1, 129300, Note_on_c, 1, 79, 127
1, 129300, Note_on_c, 1, 73, 127
1, 129300, Note_on_c, 1, 64, 127
1, 129300, Note_on_c, 1, 67, 127
1, 129300, Note_on_c, 1, 52, 127
1, 129328, Note_off_c, 1, 73, 0
1, 129330, Note_on_c, 1, 74, 127
1, 129330, Note_on_c, 1, 66, 127
1, 129330, Note_on_c, 1, 54, 127
1, 129330, Note_on_c, 1, 55, 127
1, 129330, Note_on_c, 1, 43, 127
1, 129340, Note_off_c, 1, 64, 0
1, 129350, Note_off_c, 1, 66, 0
1, 129358, Note_off_c, 1, 79, 0
1, 129358, Note_off_c, 1, 67, 0
1, 129358, Note_off_c, 1, 52, 0
1, 129358, Note_off_c, 1, 74, 0
1, 129358, Note_off_c, 1, 54, 0
1, 129358, Note_off_c, 1, 55, 0
1, 129358, Note_off_c, 1, 43, 0
1, 129360, Note_on_c, 1, 76, 127
1, 129360, Note_on_c, 1, 71, 127
1, 129360, Note_on_c, 1, 67, 127
1, 129360, Note_on_c, 1, 61, 127
1, 129360, Note_on_c, 1, 64, 127
1, 129360, Note_on_c, 1, 55, 127
1, 129360, Note_on_c, 1, 49, 127
1, 129360, Note_on_c, 1, 43, 127
1, 129380, Note_off_c, 1, 67, 0
1, 129388, Note_off_c, 1, 76, 0
1, 129388, Note_off_c, 1, 64, 0
1, 129388, Note_off_c, 1, 55, 0
1, 129388, Note_off_c, 1, 49, 0
1, 129388, Note_off_c, 1, 43, 0
1, 129390, Note_on_c, 1, 79, 127
1, 129390, Note_on_c, 1, 73, 127
1, 129390, Note_on_c, 1, 52, 127
1, 129400, Note_off_c, 1, 61, 0
1, 129410, Note_off_c, 1, 79, 0
1, 129418, Note_off_c, 1, 71, 0
1, 129418, Note_off_c, 1, 73, 0
1, 129418, Note_off_c, 1, 52, 0
1, 129420, Note_on_c, 1, 73, 127
1, 129420, Note_on_c, 1, 69, 127
1, 129420, Note_on_c, 1, 66, 127
1, 129420, Note_on_c, 1, 61, 127
1, 129420, Note_on_c, 1, 57, 127
1, 129420, Note_on_c, 1, 54, 127
1, 129420, Note_on_c, 1, 42, 127
1, 129460, Note_off_c, 1, 73, 0
1, 129460, Note_off_c, 1, 66, 0
1, 129478, Note_off_c, 1, 69, 0
1, 129478, Note_off_c, 1, 61, 0
1, 129478, Note_off_c, 1, 57, 0
1, 129478, Note_off_c, 1, 54, 0
1, 129478, Note_off_c, 1, 42, 0
1, 129480, Note_on_c, 1, 85, 127
1, 129480, Note_on_c, 1, 81, 127
1, 129480, Note_on_c, 1, 78, 127
1, 129480, Note_on_c, 1, 45, 127
1, 129480, Note_on_c, 1, 66, 127
1, 129480, Note_on_c, 1, 61, 127
1, 129480, Note_on_c, 1, 57, 127
1, 129480, Note_on_c, 1, 42, 127
1, 129480, Note_on_c, 1, 30, 127
1, 129508, Note_off_c, 1, 61, 0
1, 129510, Note_on_c, 1, 73, 127
1, 129510, Note_on_c, 1, 69, 127
1, 129510, Note_on_c, 1, 54, 127
1, 129520, Note_off_c, 1, 85, 0
1, 129520, Note_off_c, 1, 81, 0
1, 129520, Note_off_c, 1, 45, 0
1, 129520, Note_off_c, 1, 66, 0
1, 129538, Note_off_c, 1, 78, 0
1, 129538, Note_off_c, 1, 57, 0
1, 129538, Note_off_c, 1, 42, 0
1, 129538, Note_off_c, 1, 30, 0
1, 129538, Note_off_c, 1, 73, 0
1, 129538, Note_off_c, 1, 69, 0
1, 129538, Note_off_c, 1, 54, 0
1, 129540, Note_on_c, 1, 86, 127
1, 129540, Note_on_c, 1, 83, 127
1, 129540, Note_on_c, 1, 78, 127
1, 129540, Note_on_c, 1, 50, 127
1, 129540, Note_on_c, 1, 74, 127
1, 129540, Note_on_c, 1, 71, 127
1, 129540, Note_on_c, 1, 66, 127
1, 129540, Note_on_c, 1, 59, 127
1, 129570, Note_on_c, 1, 47, 127
1, 129570, Note_on_c, 1, 35, 127
1, 129580, Note_off_c, 1, 86, 0
1, 129580, Note_off_c, 1, 83, 0
1, 129580, Note_off_c, 1, 78, 0
1, 129580, Note_off_c, 1, 50, 0
1, 129598, Note_off_c, 1, 74, 0
1, 129598, Note_off_c, 1, 71, 0
1, 129598, Note_off_c, 1, 66, 0
1, 129598, Note_off_c, 1, 59, 0
1, 129598, Note_off_c, 1, 47, 0
1, 129598, Note_off_c, 1, 35, 0
1, 129600, Note_on_c, 1, 86, 127
1, 129600, Note_on_c, 1, 83, 127
1, 129600, Note_on_c, 1, 78, 127
1, 129600, Note_on_c, 1, 74, 127
1, 129600, Note_on_c, 1, 71, 127
1, 129600, Note_on_c, 1, 66, 127
1, 129600, Note_on_c, 1, 62, 127
1, 129600, Note_on_c, 1, 59, 127
1, 129600, Note_on_c, 1, 47, 127
1, 129600, Note_on_c, 1, 50, 127
1, 129600, Note_on_c, 1, 38, 127
1, 129628, Note_off_c, 1, 62, 0
1, 129628, Note_off_c, 1, 50, 0
1, 129628, Note_off_c, 1, 38, 0
1, 129630, Note_on_c, 1, 35, 127
1, 129640, Note_off_c, 1, 86, 0
1, 129640, Note_off_c, 1, 83, 0
1, 129640, Note_off_c, 1, 78, 0
1, 129640, Note_off_c, 1, 74, 0
1, 129658, Note_off_c, 1, 71, 0
1, 129658, Note_off_c, 1, 66, 0
1, 129658, Note_off_c, 1, 59, 0
1, 129658, Note_off_c, 1, 47, 0
1, 129658, Note_off_c, 1, 35, 0
1, 129660, Note_on_c, 1, 86, 127
1, 129660, Note_on_c, 1, 83, 127
1, 129660, Note_on_c, 1, 79, 127
1, 129660, Note_on_c, 1, 76, 127
1, 129660, Note_on_c, 1, 71, 127
1, 129660, Note_on_c, 1, 67, 127
1, 129660, Note_on_c, 1, 64, 127
1, 129660, Note_on_c, 1, 52, 127
1, 129660, Note_on_c, 1, 40, 127
1, 129700, Note_off_c, 1, 86, 0
1, 129700, Note_off_c, 1, 83, 0
1, 129700, Note_off_c, 1, 79, 0
1, 129700, Note_off_c, 1, 76, 0
1, 129700, Note_off_c, 1, 71, 0
1, 129718, Note_off_c, 1, 67, 0
1, 129718, Note_off_c, 1, 64, 0
1, 129718, Note_off_c, 1, 52, 0
1, 129718, Note_off_c, 1, 40, 0
1, 129720, Note_on_c, 1, 83, 127
1, 129720, Note_on_c, 1, 79, 127
1, 129720, Note_on_c, 1, 76, 127
1, 129720, Note_on_c, 1, 50, 127
1, 129720, Note_on_c, 1, 71, 127
1, 129720, Note_on_c, 1, 67, 127
1, 129720, Note_on_c, 1, 52, 127
1, 129720, Note_on_c, 1, 40, 127
1, 129720, Note_on_c, 1, 28, 127
1, 129760, Note_off_c, 1, 83, 0
1, 129760, Note_off_c, 1, 79, 0
1, 129760, Note_off_c, 1, 76, 0
1, 129760, Note_off_c, 1, 50, 0
1, 129760, Note_off_c, 1, 71, 0
1, 129778, Note_off_c, 1, 67, 0
1, 129778, Note_off_c, 1, 52, 0
1, 129778, Note_off_c, 1, 40, 0
1, 129778, Note_off_c, 1, 28, 0
1, 129780, Note_on_c, 1, 85, 127
1, 129780, Note_on_c, 1, 81, 127
1, 129780, Note_on_c, 1, 76, 127
1, 129780, Note_on_c, 1, 45, 127
1, 129780, Note_on_c, 1, 73, 127
1, 129780, Note_on_c, 1, 69, 127
1, 129780, Note_on_c, 1, 57, 127
1, 129810, Note_on_c, 1, 33, 127
1, 129820, Note_off_c, 1, 85, 0
1, 129820, Note_off_c, 1, 81, 0
1, 129820, Note_off_c, 1, 76, 0
1, 129820, Note_off_c, 1, 73, 0
1, 129820, Note_off_c, 1, 69, 0
1, 129838, Note_off_c, 1, 45, 0
1, 129838, Note_off_c, 1, 57, 0
1, 129838, Note_off_c, 1, 33, 0
1, 129840, Note_on_c, 1, 85, 127
1, 129840, Note_on_c, 1, 81, 127
1, 129840, Note_on_c, 1, 69, 127
1, 129840, Note_on_c, 1, 64, 127
1, 129840, Note_on_c, 1, 76, 127
1, 129840, Note_on_c, 1, 45, 127
1, 129840, Note_on_c, 1, 49, 127
1, 129840, Note_on_c, 1, 37, 127
1, 129868, Note_off_c, 1, 49, 0
1, 129868, Note_off_c, 1, 37, 0
1, 129870, Note_on_c, 1, 52, 127
1, 129870, Note_on_c, 1, 40, 127
1, 129880, Note_off_c, 1, 85, 0
1, 129880, Note_off_c, 1, 81, 0
1, 129880, Note_off_c, 1, 69, 0
1, 129880, Note_off_c, 1, 64, 0
1, 129898, Note_off_c, 1, 76, 0
1, 129898, Note_off_c, 1, 45, 0
1, 129898, Note_off_c, 1, 52, 0
1, 129898, Note_off_c, 1, 40, 0
1, 129900, Note_on_c, 1, 85, 127
1, 129900, Note_on_c, 1, 81, 127
1, 129900, Note_on_c, 1, 73, 127
1, 129900, Note_on_c, 1, 57, 127
1, 129900, Note_on_c, 1, 45, 127
1, 129940, Note_off_c, 1, 85, 0
1, 129940, Note_off_c, 1, 81, 0
1, 129958, Note_off_c, 1, 73, 0
1, 129958, Note_off_c, 1, 57, 0
1, 129958, Note_off_c, 1, 45, 0
1, 129960, Note_on_c, 1, 76, 127
1, 129960, Note_on_c, 1, 61, 127
1, 129960, Note_on_c, 1, 69, 127
1, 129960, Note_on_c, 1, 73, 127
1, 129960, Note_on_c, 1, 45, 127
1, 129960, Note_on_c, 1, 33, 127
1, 129980, Note_off_c, 1, 61, 0
1, 129990, Note_on_c, 1, 64, 127
1, 130000, Note_off_c, 1, 76, 0
1, 130010, Note_off_c, 1, 64, 0
1, 130018, Note_off_c, 1, 69, 0
1, 130018, Note_off_c, 1, 73, 0
1, 130018, Note_off_c, 1, 45, 0
1, 130018, Note_off_c, 1, 33, 0
1, 130020, Note_on_c, 1, 73, 127
1, 130020, Note_on_c, 1, 69, 127
1, 130050, Note_on_c, 1, 61, 127
1, 130050, Note_on_c, 1, 64, 127
1, 130060, Note_off_c, 1, 73, 0
1, 130070, Note_off_c, 1, 61, 0
1, 130070, Note_off_c, 1, 64, 0
1, 130078, Note_off_c, 1, 69, 0
1, 130080, Note_on_c, 1, 69, 127
1, 130080, Note_on_c, 1, 73, 127
1, 130080, Note_on_c, 1, 64, 127
1, 130080, Note_on_c, 1, 61, 127
1, 130080, Note_on_c, 1, 67, 127
1, 130100, Note_off_c, 1, 61, 0
1, 130120, Note_off_c, 1, 73, 0
1, 130130, Note_off_c, 1, 69, 0
1, 130138, Note_off_c, 1, 64, 0
1, 130138, Note_off_c, 1, 67, 0
1, 130140, Note_on_c, 1, 69, 127
1, 130140, Note_on_c, 1, 73, 127
1, 130140, Note_on_c, 1, 64, 127
1, 130160, Note_off_c, 1, 73, 0
1, 130190, Note_off_c, 1, 69, 0
1, 130198, Note_off_c, 1, 64, 0
1, 130200, Note_on_c, 1, 69, 127
1, 130200, Note_on_c, 1, 81, 127
1, 130200, Note_on_c, 1, 64, 127
1, 130200, Note_on_c, 1, 61, 127
1, 130220, Note_off_c, 1, 69, 0
1, 130230, Note_on_c, 1, 73, 127
1, 130240, Note_off_c, 1, 81, 0
1, 130250, Note_off_c, 1, 73, 0
1, 130258, Note_off_c, 1, 64, 0
1, 130258, Note_off_c, 1, 61, 0
1, 130260, Note_on_c, 1, 76, 127
1, 130260, Note_on_c, 1, 73, 127
1, 130260, Note_on_c, 1, 69, 127
1, 130260, Note_on_c, 1, 61, 127
1, 130280, Note_off_c, 1, 73, 0
1, 130280, Note_off_c, 1, 69, 0
1, 130290, Note_on_c, 1, 64, 127
1, 130290, Note_on_c, 1, 52, 127
1, 130290, Note_on_c, 1, 40, 127
1, 130300, Note_off_c, 1, 76, 0
1, 130310, Note_off_c, 1, 64, 0
1, 130318, Note_off_c, 1, 61, 0
1, 130318, Note_off_c, 1, 52, 0
1, 130318, Note_off_c, 1, 40, 0
1, 130320, Note_on_c, 1, 73, 127
1, 130320, Note_on_c, 1, 69, 127
1, 130320, Note_on_c, 1, 64, 127
1, 130320, Note_on_c, 1, 66, 127
1, 130320, Note_on_c, 1, 57, 127
1, 130320, Note_on_c, 1, 49, 127
1, 130320, Note_on_c, 1, 37, 127
1, 130340, Note_off_c, 1, 69, 0
1, 130340, Note_off_c, 1, 66, 0
1, 130348, Note_off_c, 1, 57, 0
1, 130348, Note_off_c, 1, 49, 0
1, 130348, Note_off_c, 1, 37, 0
1, 130350, Note_on_c, 1, 76, 127
1, 130350, Note_on_c, 1, 61, 127
1, 130350, Note_on_c, 1, 45, 127
1, 130350, Note_on_c, 1, 33, 127
1, 130370, Note_off_c, 1, 76, 0
1, 130378, Note_off_c, 1, 73, 0
1, 130378, Note_off_c, 1, 64, 0
1, 130378, Note_off_c, 1, 61, 0
1, 130378, Note_off_c, 1, 45, 0
1, 130378, Note_off_c, 1, 33, 0
1, 130380, Note_on_c, 1, 80, 127
1, 130380, Note_on_c, 1, 71, 127
1, 130380, Note_on_c, 1, 74, 127
1, 130380, Note_on_c, 1, 68, 127
1, 130380, Note_on_c, 1, 59, 127
1, 130380, Note_on_c, 1, 52, 127
1, 130380, Note_on_c, 1, 41, 127
1, 130380, Note_on_c, 1, 29, 127
1, 130420, Note_off_c, 1, 68, 0
1, 130438, Note_off_c, 1, 80, 0
1, 130438, Note_off_c, 1, 71, 0
1, 130438, Note_off_c, 1, 74, 0
1, 130438, Note_off_c, 1, 59, 0
1, 130438, Note_off_c, 1, 52, 0
1, 130438, Note_off_c, 1, 41, 0
1, 130438, Note_off_c, 1, 29, 0
1, 130440, Note_on_c, 1, 80, 127
1, 130440, Note_on_c, 1, 71, 127
1, 130440, Note_on_c, 1, 74, 127
1, 130440, Note_on_c, 1, 68, 127
1, 130440, Note_on_c, 1, 56, 127
1, 130440, Note_on_c, 1, 52, 127
1, 130440, Note_on_c, 1, 53, 127
1, 130440, Note_on_c, 1, 41, 127
1, 130480, Note_off_c, 1, 68, 0
1, 130498, Note_off_c, 1, 80, 0
1, 130498, Note_off_c, 1, 71, 0
1, 130498, Note_off_c, 1, 74, 0
1, 130498, Note_off_c, 1, 56, 0
1, 130498, Note_off_c, 1, 52, 0
1, 130498, Note_off_c, 1, 53, 0
1, 130498, Note_off_c, 1, 41, 0
1, 130740, Note_on_c, 1, 78, 127
1, 130740, Note_on_c, 1, 74, 127
1, 130740, Note_on_c, 1, 70, 127
1, 130740, Note_on_c, 1, 66, 127
1, 130740, Note_on_c, 1, 58, 127
1, 130740, Note_on_c, 1, 54, 127
1, 130740, Note_on_c, 1, 42, 127
1, 130740, Note_on_c, 1, 30, 127
1, 130920, Note_on_c, 1, 76, 127
1, 130978, Note_off_c, 1, 78, 0
1, 130978, Note_off_c, 1, 74, 0
1, 130978, Note_off_c, 1, 70, 0
1, 130978, Note_off_c, 1, 66, 0
1, 130978, Note_off_c, 1, 58, 0
1, 130978, Note_off_c, 1, 54, 0
1, 130978, Note_off_c, 1, 42, 0
1, 130978, Note_off_c, 1, 30, 0
1, 130978, Note_off_c, 1, 76, 0
1, 130980, Note_on_c, 1, 78, 127
1, 130980, Note_on_c, 1, 74, 127
1, 130980, Note_on_c, 1, 70, 127
1, 130980, Note_on_c, 1, 66, 127
1, 130980, Note_on_c, 1, 54, 127
1, 130980, Note_on_c, 1, 42, 127
1, 130980, Note_on_c, 1, 30, 127
1, 131098, Note_off_c, 1, 78, 0
1, 131098, Note_off_c, 1, 74, 0
1, 131098, Note_off_c, 1, 70, 0
1, 131098, Note_off_c, 1, 66, 0
1, 131098, Note_off_c, 1, 54, 0
1, 131098, Note_off_c, 1, 42, 0
1, 131098, Note_off_c, 1, 30, 0
1, 131100, Note_on_c, 1, 74, 127
1, 131100, Note_on_c, 1, 71, 127
1, 131100, Note_on_c, 1, 78, 127
1, 131100, Note_on_c, 1, 66, 127
1, 131100, Note_on_c, 1, 62, 127
1, 131100, Note_on_c, 1, 55, 127
1, 131100, Note_on_c, 1, 43, 127
1, 131100, Note_on_c, 1, 31, 127
1, 131338, Note_off_c, 1, 74, 0
1, 131338, Note_off_c, 1, 71, 0
1, 131338, Note_off_c, 1, 78, 0
1, 131338, Note_off_c, 1, 66, 0
1, 131338, Note_off_c, 1, 62, 0
1, 131338, Note_off_c, 1, 55, 0
1, 131338, Note_off_c, 1, 43, 0
1, 131338, Note_off_c, 1, 31, 0
1, 131340, Note_on_c, 1, 74, 127
1, 131340, Note_on_c, 1, 71, 127
1, 131340, Note_on_c, 1, 62, 127
1, 131340, Note_on_c, 1, 77, 127
1, 131340, Note_on_c, 1, 68, 127
1, 131340, Note_on_c, 1, 65, 127
1, 131340, Note_on_c, 1, 59, 127
1, 131340, Note_on_c, 1, 56, 127
1, 131340, Note_on_c, 1, 44, 127
1, 131340, Note_on_c, 1, 32, 127
1, 131458, Note_off_c, 1, 68, 0
1, 131520, Note_on_c, 1, 61, 127
1, 131578, Note_off_c, 1, 74, 0
1, 131578, Note_off_c, 1, 71, 0
1, 131578, Note_off_c, 1, 62, 0
1, 131578, Note_off_c, 1, 77, 0
1, 131578, Note_off_c, 1, 65, 0
1, 131578, Note_off_c, 1, 59, 0
1, 131578, Note_off_c, 1, 56, 0
1, 131578, Note_off_c, 1, 44, 0
1, 131578, Note_off_c, 1, 32, 0
1, 131578, Note_off_c, 1, 61, 0
1, 131580, Note_on_c, 1, 74, 127
1, 131580, Note_on_c, 1, 71, 127
1, 131580, Note_on_c, 1, 64, 127
1, 131580, Note_on_c, 1, 78, 127
1, 131580, Note_on_c, 1, 62, 127
1, 131580, Note_on_c, 1, 66, 127
1, 131580, Note_on_c, 1, 59, 127
1, 131580, Note_on_c, 1, 54, 127
1, 131580, Note_on_c, 1, 42, 127
1, 131580, Note_on_c, 1, 30, 127
1, 131698, Note_off_c, 1, 59, 0
1, 131700, Note_on_c, 1, 73, 127
1, 131700, Note_on_c, 1, 61, 127
1, 131758, Note_off_c, 1, 73, 0
1, 131758, Note_off_c, 1, 61, 0
1, 131818, Note_off_c, 1, 74, 0
1, 131818, Note_off_c, 1, 71, 0
1, 131818, Note_off_c, 1, 64, 0
1, 131818, Note_off_c, 1, 62, 0
1, 131820, Note_on_c, 1, 70, 127
1, 131820, Note_on_c, 1, 76, 127
1, 132058, Note_off_c, 1, 78, 0
1, 132058, Note_off_c, 1, 66, 0
1, 132058, Note_off_c, 1, 54, 0
1, 132058, Note_off_c, 1, 42, 0
1, 132058, Note_off_c, 1, 30, 0
1, 132058, Note_off_c, 1, 70, 0
1, 132058, Note_off_c, 1, 76, 0
1, 132060, Note_on_c, 1, 71, 127
1, 132060, Note_on_c, 1, 62, 127
1, 132060, Note_on_c, 1, 78, 127
1, 132060, Note_on_c, 1, 74, 127
1, 132060, Note_on_c, 1, 66, 127
1, 132060, Note_on_c, 1, 59, 127
1, 132060, Note_on_c, 1, 47, 127
1, 132060, Note_on_c, 1, 35, 127
1, 132178, Note_off_c, 1, 71, 0
1, 132178, Note_off_c, 1, 62, 0
1, 132178, Note_off_c, 1, 78, 0
1, 132178, Note_off_c, 1, 74, 0
1, 132178, Note_off_c, 1, 66, 0
1, 132178, Note_off_c, 1, 59, 0
1, 132178, Note_off_c, 1, 47, 0
1, 132178, Note_off_c, 1, 35, 0
1, 132180, Note_on_c, 1, 83, 127
1, 132180, Note_on_c, 1, 78, 127
1, 132180, Note_on_c, 1, 74, 127
1, 132180, Note_on_c, 1, 50, 127
1, 132180, Note_on_c, 1, 66, 127
1, 132180, Note_on_c, 1, 59, 127
1, 132180, Note_on_c, 1, 62, 127
1, 132180, Note_on_c, 1, 47, 127
1, 132180, Note_on_c, 1, 35, 127
1, 132238, Note_off_c, 1, 50, 0
1, 132418, Note_off_c, 1, 83, 0
1, 132418, Note_off_c, 1, 78, 0
1, 132418, Note_off_c, 1, 74, 0
1, 132418, Note_off_c, 1, 66, 0
1, 132418, Note_off_c, 1, 59, 0
1, 132418, Note_off_c, 1, 62, 0
1, 132418, Note_off_c, 1, 47, 0
1, 132418, Note_off_c, 1, 35, 0
1, 132420, Note_on_c, 1, 83, 127
1, 132420, Note_on_c, 1, 76, 127
1, 132420, Note_on_c, 1, 79, 127
1, 132420, Note_on_c, 1, 67, 127
1, 132420, Note_on_c, 1, 74, 127
1, 132420, Note_on_c, 1, 71, 127
1, 132420, Note_on_c, 1, 64, 127
1, 132420, Note_on_c, 1, 52, 127
1, 132420, Note_on_c, 1, 40, 127
1, 132420, Note_on_c, 1, 28, 127
1, 132478, Note_off_c, 1, 79, 0
1, 132538, Note_off_c, 1, 83, 0
1, 132538, Note_off_c, 1, 76, 0
1, 132538, Note_off_c, 1, 67, 0
1, 132538, Note_off_c, 1, 74, 0
1, 132538, Note_off_c, 1, 71, 0
1, 132538, Note_off_c, 1, 64, 0
1, 132538, Note_off_c, 1, 52, 0
1, 132538, Note_off_c, 1, 40, 0
1, 132538, Note_off_c, 1, 28, 0
1, 132540, Note_on_c, 1, 81, 127
1, 132540, Note_on_c, 1, 76, 127
1, 132540, Note_on_c, 1, 69, 127
1, 132540, Note_on_c, 1, 45, 127
1, 132540, Note_on_c, 1, 73, 127
1, 132540, Note_on_c, 1, 67, 127
1, 132540, Note_on_c, 1, 61, 127
1, 132540, Note_on_c, 1, 64, 127
1, 132540, Note_on_c, 1, 57, 127
1, 132540, Note_on_c, 1, 33, 127
1, 132778, Note_off_c, 1, 81, 0
1, 132778, Note_off_c, 1, 76, 0
1, 132778, Note_off_c, 1, 69, 0
1, 132778, Note_off_c, 1, 45, 0
1, 132778, Note_off_c, 1, 73, 0
1, 132778, Note_off_c, 1, 67, 0
1, 132778, Note_off_c, 1, 61, 0
1, 132778, Note_off_c, 1, 64, 0
1, 132778, Note_off_c, 1, 57, 0
1, 132778, Note_off_c, 1, 33, 0
1, 132780, Note_on_c, 1, 86, 127
1, 132780, Note_on_c, 1, 71, 127
1, 132780, Note_on_c, 1, 62, 127
1, 132780, Note_on_c, 1, 50, 127
1, 132780, Note_on_c, 1, 74, 127
1, 132780, Note_on_c, 1, 81, 127
1, 132780, Note_on_c, 1, 65, 127
1, 132780, Note_on_c, 1, 83, 127
1, 132780, Note_on_c, 1, 78, 127
1, 132780, Note_on_c, 1, 59, 127
1, 132780, Note_on_c, 1, 56, 127
1, 132780, Note_on_c, 1, 44, 127
1, 132780, Note_on_c, 1, 32, 127
1, 132838, Note_off_c, 1, 78, 0
1, 132838, Note_off_c, 1, 59, 0
1, 132840, Note_on_c, 1, 76, 127
1, 132840, Note_on_c, 1, 61, 127
1, 132898, Note_off_c, 1, 76, 0
1, 132898, Note_off_c, 1, 61, 0
1, 133018, Note_off_c, 1, 86, 0
1, 133018, Note_off_c, 1, 71, 0
1, 133018, Note_off_c, 1, 62, 0
1, 133018, Note_off_c, 1, 50, 0
1, 133018, Note_off_c, 1, 74, 0
1, 133018, Note_off_c, 1, 81, 0
1, 133018, Note_off_c, 1, 65, 0
1, 133018, Note_off_c, 1, 83, 0
1, 133018, Note_off_c, 1, 56, 0
1, 133018, Note_off_c, 1, 44, 0
1, 133018, Note_off_c, 1, 32, 0
1, 133020, Note_on_c, 1, 86, 127
1, 133020, Note_on_c, 1, 76, 127
1, 133020, Note_on_c, 1, 69, 127
1, 133020, Note_on_c, 1, 43, 127
1, 133020, Note_on_c, 1, 74, 127
1, 133020, Note_on_c, 1, 64, 127
1, 133020, Note_on_c, 1, 81, 127
1, 133020, Note_on_c, 1, 57, 127
1, 133020, Note_on_c, 1, 45, 127
1, 133020, Note_on_c, 1, 33, 127
1, 133078, Note_off_c, 1, 86, 0
1, 133080, Note_on_c, 1, 85, 127
1, 133108, Note_off_c, 1, 85, 0
1, 133110, Note_on_c, 1, 83, 127
1, 133138, Note_off_c, 1, 83, 0
1, 133200, Note_on_c, 1, 71, 127
1, 133230, Note_on_c, 1, 79, 127
1, 133258, Note_off_c, 1, 74, 0
1, 133258, Note_off_c, 1, 71, 0
1, 133258, Note_off_c, 1, 79, 0
1, 133260, Note_on_c, 1, 78, 127
1, 133260, Note_on_c, 1, 73, 127
1, 133270, Note_off_c, 1, 78, 0
1, 133498, Note_off_c, 1, 76, 0
1, 133498, Note_off_c, 1, 69, 0
1, 133498, Note_off_c, 1, 43, 0
1, 133498, Note_off_c, 1, 64, 0
1, 133498, Note_off_c, 1, 81, 0
1, 133498, Note_off_c, 1, 57, 0
1, 133498, Note_off_c, 1, 45, 0
1, 133498, Note_off_c, 1, 33, 0
1, 133498, Note_off_c, 1, 73, 0
1, 133500, Note_on_c, 1, 78, 127
1, 133500, Note_on_c, 1, 74, 127
1, 133500, Note_on_c, 1, 69, 127
1, 133500, Note_on_c, 1, 66, 127
1, 133500, Note_on_c, 1, 81, 127
1, 133500, Note_on_c, 1, 57, 127
1, 133500, Note_on_c, 1, 50, 127
1, 133500, Note_on_c, 1, 38, 127
1, 133500, Note_on_c, 1, 26, 127
1, 133978, Note_off_c, 1, 78, 0
1, 133978, Note_off_c, 1, 74, 0
1, 133978, Note_off_c, 1, 69, 0
1, 133978, Note_off_c, 1, 66, 0
1, 133978, Note_off_c, 1, 81, 0
1, 133978, Note_off_c, 1, 57, 0
1, 133978, Note_off_c, 1, 38, 0
1, 133978, Note_off_c, 1, 26, 0
1, 133980, Note_off_c, 1, 50, 0
1, 134790, Note_on_c, 1, 78, 127
1, 134811, Note_off_c, 1, 78, 0
1, 134820, Note_on_c, 1, 78, 127
1, 134820, Note_on_c, 1, 42, 127
1, 134820, Note_on_c, 1, 30, 127
1, 134820, Note_on_c, 1, 69, 127
1, 134820, Note_on_c, 1, 66, 127
1, 134938, Note_off_c, 1, 42, 0
1, 134938, Note_off_c, 1, 30, 0
1, 134940, Note_on_c, 1, 45, 127
1, 134940, Note_on_c, 1, 33, 127
1, 134998, Note_off_c, 1, 78, 0
1, 135000, Note_on_c, 1, 76, 127
1, 135028, Note_off_c, 1, 76, 0
1, 135030, Note_on_c, 1, 74, 127
1, 135058, Note_off_c, 1, 45, 0
1, 135058, Note_off_c, 1, 33, 0
1, 135058, Note_off_c, 1, 74, 0
1, 135060, Note_off_c, 1, 69, 0
1, 135060, Note_on_c, 1, 73, 127
1, 135060, Note_on_c, 1, 49, 127
1, 135060, Note_on_c, 1, 37, 127
1, 135060, Note_on_c, 1, 61, 127
1, 135088, Note_off_c, 1, 73, 0
1, 135090, Note_on_c, 1, 71, 127
1, 135118, Note_off_c, 1, 71, 0
1, 135150, Note_on_c, 1, 68, 127
1, 135178, Note_off_c, 1, 49, 0
1, 135178, Note_off_c, 1, 37, 0
1, 135178, Note_off_c, 1, 68, 0
1, 135180, Note_on_c, 1, 54, 127
1, 135300, Note_off_c, 1, 66, 0
1, 135300, Note_off_c, 1, 61, 0
1, 135300, Note_on_c, 1, 72, 127
1, 135300, Note_on_c, 1, 63, 127
1, 135358, Note_off_c, 1, 54, 0
1, 135358, Note_off_c, 1, 72, 0
1, 135360, Note_on_c, 1, 56, 127
1, 135360, Note_on_c, 1, 44, 127
1, 135388, Note_off_c, 1, 56, 0
1, 135388, Note_off_c, 1, 44, 0
1, 135390, Note_on_c, 1, 57, 127
1, 135418, Note_off_c, 1, 57, 0
1, 135420, Note_off_c, 1, 63, 0
1, 135450, Note_on_c, 1, 54, 127
1, 135450, Note_on_c, 1, 42, 127
1, 135478, Note_off_c, 1, 54, 0
1, 135478, Note_off_c, 1, 42, 0
1, 135480, Note_on_c, 1, 53, 127
1, 135480, Note_on_c, 1, 41, 127
1, 135508, Note_off_c, 1, 53, 0
1, 135508, Note_off_c, 1, 41, 0
1, 135510, Note_on_c, 1, 73, 127
1, 135510, Note_on_c, 1, 51, 127
1, 135510, Note_on_c, 1, 39, 127
1, 135531, Note_off_c, 1, 73, 0
1, 135538, Note_off_c, 1, 51, 0
1, 135538, Note_off_c, 1, 39, 0
1, 135540, Note_on_c, 1, 73, 127
1, 135540, Note_on_c, 1, 49, 127
1, 135540, Note_on_c, 1, 37, 127
1, 135540, Note_on_c, 1, 68, 127
1, 135540, Note_on_c, 1, 65, 127
1, 135658, Note_off_c, 1, 49, 0
1, 135658, Note_off_c, 1, 37, 0
1, 135660, Note_on_c, 1, 53, 127
1, 135660, Note_on_c, 1, 41, 127
1, 135718, Note_off_c, 1, 73, 0
1, 135720, Note_on_c, 1, 71, 127
1, 135748, Note_off_c, 1, 71, 0
1, 135750, Note_on_c, 1, 69, 127
1, 135778, Note_off_c, 1, 53, 0
1, 135778, Note_off_c, 1, 41, 0
1, 135778, Note_off_c, 1, 69, 0
1, 135780, Note_on_c, 1, 56, 127
1, 135780, Note_on_c, 1, 44, 127
1, 135780, Note_on_c, 1, 61, 127
1, 135808, Note_off_c, 1, 68, 0
1, 135810, Note_on_c, 1, 66, 127
1, 135838, Note_off_c, 1, 66, 0
1, 135870, Note_on_c, 1, 63, 127
1, 135898, Note_off_c, 1, 56, 0
1, 135898, Note_off_c, 1, 44, 0
1, 135898, Note_off_c, 1, 63, 0
1, 135900, Note_on_c, 1, 59, 127
1, 135900, Note_on_c, 1, 47, 127
1, 136020, Note_off_c, 1, 61, 0
1, 136020, Note_on_c, 1, 74, 127
1, 136078, Note_off_c, 1, 59, 0
1, 136078, Note_off_c, 1, 47, 0
1, 136078, Note_off_c, 1, 74, 0
1, 136110, Note_on_c, 1, 62, 127
1, 136110, Note_on_c, 1, 50, 127
1, 136138, Note_off_c, 1, 62, 0
1, 136138, Note_off_c, 1, 50, 0
1, 136140, Note_off_c, 1, 65, 0
1, 136170, Note_on_c, 1, 74, 127
1, 136170, Note_on_c, 1, 59, 127
1, 136170, Note_on_c, 1, 47, 127
1, 136198, Note_off_c, 1, 74, 0
1, 136198, Note_off_c, 1, 59, 0
1, 136198, Note_off_c, 1, 47, 0
1, 136200, Note_on_c, 1, 73, 127
1, 136200, Note_on_c, 1, 57, 127
1, 136200, Note_on_c, 1, 45, 127
1, 136228, Note_off_c, 1, 73, 0
1, 136228, Note_off_c, 1, 57, 0
1, 136228, Note_off_c, 1, 45, 0
1, 136230, Note_on_c, 1, 71, 127
1, 136230, Note_on_c, 1, 56, 127
1, 136230, Note_on_c, 1, 44, 127
1, 136258, Note_off_c, 1, 71, 0
1, 136258, Note_off_c, 1, 56, 0
1, 136258, Note_off_c, 1, 44, 0
1, 136260, Note_on_c, 1, 69, 127
1, 136260, Note_on_c, 1, 54, 127
1, 136260, Note_on_c, 1, 42, 127
1, 136260, Note_on_c, 1, 66, 127
1, 136260, Note_on_c, 1, 61, 127
1, 136310, Note_off_c, 1, 69, 0
1, 136320, Note_on_c, 1, 73, 127
1, 136340, Note_off_c, 1, 54, 0
1, 136340, Note_off_c, 1, 42, 0
1, 136340, Note_off_c, 1, 66, 0
1, 136340, Note_off_c, 1, 61, 0
1, 136348, Note_off_c, 1, 73, 0
1, 136350, Note_on_c, 1, 69, 127
1, 136378, Note_off_c, 1, 69, 0
1, 136380, Note_on_c, 1, 68, 127
1, 136380, Note_on_c, 1, 52, 127
1, 136380, Note_on_c, 1, 40, 127
1, 136380, Note_on_c, 1, 64, 127
1, 136380, Note_on_c, 1, 61, 127
1, 136430, Note_off_c, 1, 68, 0
1, 136440, Note_on_c, 1, 73, 127
1, 136460, Note_off_c, 1, 52, 0
1, 136460, Note_off_c, 1, 40, 0
1, 136460, Note_off_c, 1, 64, 0
1, 136460, Note_off_c, 1, 61, 0
1, 136468, Note_off_c, 1, 73, 0
1, 136470, Note_on_c, 1, 68, 127
1, 136498, Note_off_c, 1, 68, 0
1, 136500, Note_on_c, 1, 66, 127
1, 136500, Note_on_c, 1, 50, 127
1, 136500, Note_on_c, 1, 38, 127
1, 136500, Note_on_c, 1, 62, 127
1, 136500, Note_on_c, 1, 61, 127
1, 136550, Note_off_c, 1, 66, 0
1, 136560, Note_on_c, 1, 74, 127
1, 136580, Note_off_c, 1, 50, 0
1, 136580, Note_off_c, 1, 38, 0
1, 136580, Note_off_c, 1, 62, 0
1, 136580, Note_off_c, 1, 61, 0
1, 136588, Note_off_c, 1, 74, 0
1, 136590, Note_on_c, 1, 66, 127
1, 136618, Note_off_c, 1, 66, 0
1, 136620, Note_on_c, 1, 65, 127
1, 136620, Note_on_c, 1, 49, 127
1, 136620, Note_on_c, 1, 37, 127
1, 136620, Note_on_c, 1, 61, 127
1, 136620, Note_on_c, 1, 56, 127
1, 136660, Note_off_c, 1, 49, 0
1, 136660, Note_off_c, 1, 37, 0
1, 136678, Note_off_c, 1, 65, 0
1, 136680, Note_on_c, 1, 53, 127
1, 136680, Note_on_c, 1, 41, 127
1, 136700, Note_off_c, 1, 56, 0
1, 136700, Note_off_c, 1, 53, 0
1, 136700, Note_off_c, 1, 41, 0
1, 136710, Note_on_c, 1, 44, 127
1, 136730, Note_off_c, 1, 44, 0
1, 136738, Note_off_c, 1, 61, 0
1, 136740, Note_on_c, 1, 61, 127
1, 136740, Note_on_c, 1, 49, 127
1, 136740, Note_on_c, 1, 69, 127
1, 136780, Note_off_c, 1, 61, 0
1, 136780, Note_off_c, 1, 49, 0
1, 136800, Note_on_c, 1, 37, 127
1, 136820, Note_off_c, 1, 37, 0
1, 136860, Note_off_c, 1, 69, 0
1, 136860, Note_on_c, 1, 59, 127
1, 136860, Note_on_c, 1, 47, 127
1, 136860, Note_on_c, 1, 68, 127
1, 136900, Note_off_c, 1, 59, 0
1, 136900, Note_off_c, 1, 47, 0
1, 136920, Note_on_c, 1, 65, 127
1, 136940, Note_off_c, 1, 65, 0
1, 136980, Note_off_c, 1, 68, 0
1, 136980, Note_on_c, 1, 73, 127
1, 136980, Note_on_c, 1, 57, 127
1, 136980, Note_on_c, 1, 45, 127
1, 136980, Note_on_c, 1, 66, 127
1, 137000, Note_off_c, 1, 73, 0
1, 137010, Note_on_c, 1, 71, 127
1, 137020, Note_off_c, 1, 57, 0
1, 137020, Note_off_c, 1, 45, 0
1, 137030, Note_off_c, 1, 71, 0
1, 137100, Note_off_c, 1, 66, 0
1, 137100, Note_on_c, 1, 56, 127
1, 137100, Note_on_c, 1, 44, 127
1, 137140, Note_off_c, 1, 56, 0
1, 137140, Note_off_c, 1, 44, 0
1, 137160, Note_on_c, 1, 68, 127
1, 137160, Note_on_c, 1, 49, 127
1, 137160, Note_on_c, 1, 37, 127
1, 137180, Note_off_c, 1, 68, 0
1, 137180, Note_off_c, 1, 49, 0
1, 137180, Note_off_c, 1, 37, 0
1, 137190, Note_on_c, 1, 71, 127
1, 137190, Note_on_c, 1, 56, 127
1, 137190, Note_on_c, 1, 44, 127
1, 137210, Note_off_c, 1, 71, 0
1, 137210, Note_off_c, 1, 56, 0
1, 137210, Note_off_c, 1, 44, 0
1, 137220, Note_on_c, 1, 69, 127
1, 137220, Note_on_c, 1, 54, 127
1, 137220, Note_on_c, 1, 42, 127
1, 137240, Note_off_c, 1, 69, 0
1, 137250, Note_on_c, 1, 68, 127
1, 137260, Note_off_c, 1, 54, 0
1, 137260, Note_off_c, 1, 42, 0
1, 137270, Note_off_c, 1, 68, 0
1, 137280, Note_on_c, 1, 66, 127
1, 137280, Note_on_c, 1, 49, 127
1, 137280, Note_on_c, 1, 37, 127
1, 137300, Note_off_c, 1, 66, 0
1, 137300, Note_off_c, 1, 49, 0
1, 137300, Note_off_c, 1, 37, 0
1, 137310, Note_on_c, 1, 69, 127
1, 137310, Note_on_c, 1, 54, 127
1, 137310, Note_on_c, 1, 42, 127
1, 137330, Note_off_c, 1, 69, 0
1, 137330, Note_off_c, 1, 54, 0
1, 137330, Note_off_c, 1, 42, 0
1, 137340, Note_on_c, 1, 68, 127
1, 137340, Note_on_c, 1, 53, 127
1, 137340, Note_on_c, 1, 41, 127
1, 137360, Note_off_c, 1, 68, 0
1, 137370, Note_on_c, 1, 66, 127
1, 137390, Note_off_c, 1, 66, 0
1, 137400, Note_on_c, 1, 65, 127
1, 137420, Note_off_c, 1, 65, 0
1, 137430, Note_on_c, 1, 63, 127
1, 137450, Note_off_c, 1, 63, 0
1, 137460, Note_on_c, 1, 61, 127
1, 137488, Note_off_c, 1, 53, 0
1, 137488, Note_off_c, 1, 41, 0
1, 137490, Note_on_c, 1, 49, 127
1, 137490, Note_on_c, 1, 37, 127
1, 137518, Note_off_c, 1, 49, 0
1, 137518, Note_off_c, 1, 37, 0
1, 137520, Note_on_c, 1, 51, 127
1, 137520, Note_on_c, 1, 39, 127
1, 137540, Note_off_c, 1, 61, 0
1, 137548, Note_off_c, 1, 51, 0
1, 137548, Note_off_c, 1, 39, 0
1, 137550, Note_on_c, 1, 53, 127
1, 137550, Note_on_c, 1, 41, 127
1, 137578, Note_off_c, 1, 53, 0
1, 137578, Note_off_c, 1, 41, 0
1, 137580, Note_on_c, 1, 54, 127
1, 137580, Note_on_c, 1, 42, 127
1, 137608, Note_off_c, 1, 54, 0
1, 137608, Note_off_c, 1, 42, 0
1, 137610, Note_on_c, 1, 56, 127
1, 137610, Note_on_c, 1, 44, 127
1, 137638, Note_off_c, 1, 56, 0
1, 137638, Note_off_c, 1, 44, 0
1, 137640, Note_on_c, 1, 61, 127
1, 137640, Note_on_c, 1, 57, 127
1, 137640, Note_on_c, 1, 45, 127
1, 137668, Note_off_c, 1, 57, 0
1, 137668, Note_off_c, 1, 45, 0
1, 137670, Note_on_c, 1, 54, 127
1, 137670, Note_on_c, 1, 42, 127
1, 137698, Note_off_c, 1, 61, 0
1, 137698, Note_off_c, 1, 54, 0
1, 137698, Note_off_c, 1, 42, 0
1, 137700, Note_on_c, 1, 63, 127
1, 137700, Note_on_c, 1, 47, 127
1, 137700, Note_on_c, 1, 35, 127
1, 137728, Note_off_c, 1, 63, 0
1, 137730, Note_on_c, 1, 61, 127
1, 137758, Note_off_c, 1, 61, 0
1, 137760, Note_on_c, 1, 54, 127
1, 137790, Note_on_c, 1, 65, 127
1, 137818, Note_off_c, 1, 47, 0
1, 137818, Note_off_c, 1, 35, 0
1, 137818, Note_off_c, 1, 65, 0
1, 137820, Note_off_c, 1, 54, 0
1, 137820, Note_on_c, 1, 66, 127
1, 137820, Note_on_c, 1, 59, 127
1, 137848, Note_off_c, 1, 66, 0
1, 137910, Note_on_c, 1, 68, 127
1, 137938, Note_off_c, 1, 68, 0
1, 137940, Note_off_c, 1, 59, 0
1, 137940, Note_on_c, 1, 69, 127
1, 137940, Note_on_c, 1, 62, 127
1, 137968, Note_off_c, 1, 69, 0
1, 138000, Note_off_c, 1, 62, 0
1, 138030, Note_on_c, 1, 71, 127
1, 138058, Note_off_c, 1, 71, 0
1, 138060, Note_on_c, 1, 65, 127
1, 138060, Note_on_c, 1, 49, 127
1, 138060, Note_on_c, 1, 37, 127
1, 138088, Note_off_c, 1, 65, 0
1, 138090, Note_on_c, 1, 63, 127
1, 138118, Note_off_c, 1, 63, 0
1, 138120, Note_on_c, 1, 57, 127
1, 138140, Note_off_c, 1, 49, 0
1, 138140, Note_off_c, 1, 37, 0
1, 138150, Note_on_c, 1, 66, 127
1, 138178, Note_off_c, 1, 66, 0
1, 138180, Note_off_c, 1, 57, 0
1, 138180, Note_on_c, 1, 68, 127
1, 138180, Note_on_c, 1, 62, 127
1, 138208, Note_off_c, 1, 68, 0
1, 138240, Note_on_c, 1, 61, 127
1, 138270, Note_on_c, 1, 69, 127
1, 138298, Note_off_c, 1, 69, 0
1, 138300, Note_off_c, 1, 62, 0
1, 138300, Note_off_c, 1, 61, 0
1, 138300, Note_on_c, 1, 71, 127
1, 138300, Note_on_c, 1, 59, 127
1, 138328, Note_off_c, 1, 71, 0
1, 138360, Note_off_c, 1, 59, 0
1, 138360, Note_on_c, 1, 56, 127
1, 138390, Note_on_c, 1, 73, 127
1, 138418, Note_off_c, 1, 73, 0
1, 138420, Note_off_c, 1, 56, 0
1, 138420, Note_on_c, 1, 50, 127
1, 138420, Note_on_c, 1, 38, 127
1, 138500, Note_off_c, 1, 50, 0
1, 138500, Note_off_c, 1, 38, 0
1, 138510, Note_on_c, 1, 68, 127
1, 138538, Note_off_c, 1, 68, 0
1, 138540, Note_on_c, 1, 69, 127
1, 138568, Note_off_c, 1, 69, 0
1, 138570, Note_on_c, 1, 68, 127
1, 138598, Note_off_c, 1, 68, 0
1, 138600, Note_on_c, 1, 69, 127
1, 138628, Note_off_c, 1, 69, 0
1, 138630, Note_on_c, 1, 71, 127
1, 138658, Note_off_c, 1, 71, 0
1, 138660, Note_on_c, 1, 73, 127
1, 138688, Note_off_c, 1, 73, 0
1, 138690, Note_on_c, 1, 71, 127
1, 138718, Note_off_c, 1, 71, 0
1, 138720, Note_on_c, 1, 73, 127
1, 138748, Note_off_c, 1, 73, 0
1, 138750, Note_on_c, 1, 74, 127
1, 138778, Note_off_c, 1, 74, 0
1, 138780, Note_on_c, 1, 74, 127
1, 138780, Note_on_c, 1, 41, 127
1, 138780, Note_on_c, 1, 29, 127
1, 138820, Note_off_c, 1, 74, 0
1, 138840, Note_off_c, 1, 41, 0
1, 138840, Note_off_c, 1, 29, 0
1, 138840, Note_on_c, 1, 73, 127
1, 138870, Note_on_c, 1, 44, 127
1, 138870, Note_on_c, 1, 32, 127
1, 138880, Note_off_c, 1, 44, 0
1, 138880, Note_off_c, 1, 32, 0
1, 138885, Note_on_c, 1, 45, 127
1, 138885, Note_on_c, 1, 33, 127
1, 138895, Note_off_c, 1, 45, 0
1, 138895, Note_off_c, 1, 33, 0
1, 138900, Note_on_c, 1, 47, 127
1, 138900, Note_on_c, 1, 35, 127
1, 138920, Note_off_c, 1, 73, 0
1, 138940, Note_off_c, 1, 47, 0
1, 138940, Note_off_c, 1, 35, 0
1, 138960, Note_on_c, 1, 71, 127
1, 138988, Note_off_c, 1, 71, 0
1, 138990, Note_on_c, 1, 69, 127
1, 139018, Note_off_c, 1, 69, 0
1, 139020, Note_on_c, 1, 68, 127
1, 139048, Note_off_c, 1, 68, 0
1, 139050, Note_on_c, 1, 66, 127
1, 139078, Note_off_c, 1, 66, 0
1, 139080, Note_on_c, 1, 65, 127
1, 139080, Note_on_c, 1, 44, 127
1, 139080, Note_on_c, 1, 32, 127
1, 139108, Note_off_c, 1, 65, 0
1, 139110, Note_on_c, 1, 68, 127
1, 139120, Note_off_c, 1, 44, 0
1, 139120, Note_off_c, 1, 32, 0
1, 139138, Note_off_c, 1, 68, 0
1, 139140, Note_on_c, 1, 61, 127
1, 139140, Note_on_c, 1, 45, 127
1, 139140, Note_on_c, 1, 33, 127
1, 139200, Note_off_c, 1, 45, 0
1, 139200, Note_off_c, 1, 33, 0
1, 139228, Note_off_c, 1, 61, 0
1, 139230, Note_on_c, 1, 66, 127
1, 139230, Note_on_c, 1, 47, 127
1, 139230, Note_on_c, 1, 35, 127
1, 139250, Note_off_c, 1, 47, 0
1, 139250, Note_off_c, 1, 35, 0
1, 139258, Note_off_c, 1, 66, 0
1, 139260, Note_on_c, 1, 57, 127
1, 139260, Note_on_c, 1, 49, 127
1, 139260, Note_on_c, 1, 37, 127
1, 139300, Note_off_c, 1, 57, 0
1, 139320, Note_on_c, 1, 56, 127
1, 139340, Note_off_c, 1, 49, 0
1, 139340, Note_off_c, 1, 37, 0
1, 139360, Note_off_c, 1, 56, 0
1, 139380, Note_on_c, 1, 56, 127
1, 139380, Note_on_c, 1, 37, 127
1, 139380, Note_on_c, 1, 25, 127
1, 139420, Note_off_c, 1, 56, 0
1, 139440, Note_off_c, 1, 37, 0
1, 139440, Note_off_c, 1, 25, 0
1, 139440, Note_on_c, 1, 65, 127
1, 139470, Note_on_c, 1, 54, 127
1, 139470, Note_on_c, 1, 42, 127
1, 139470, Note_on_c, 1, 73, 127
1, 139470, Note_on_c, 1, 69, 127
1, 139470, Note_on_c, 1, 66, 127
1, 139480, Note_off_c, 1, 65, 0
1, 139490, Note_off_c, 1, 54, 0
1, 139490, Note_off_c, 1, 42, 0
1, 139490, Note_off_c, 1, 73, 0
1, 139490, Note_off_c, 1, 69, 0
1, 139490, Note_off_c, 1, 66, 0
1, 139500, Note_on_c, 1, 66, 127
1, 139500, Note_on_c, 1, 54, 127
1, 139500, Note_on_c, 1, 42, 127
1, 139500, Note_on_c, 1, 69, 127
1, 139500, Note_on_c, 1, 73, 127
1, 139530, Note_on_c, 1, 68, 127
1, 139540, Note_off_c, 1, 68, 0
1, 139560, Note_on_c, 1, 71, 127
1, 139570, Note_off_c, 1, 71, 0
1, 139590, Note_on_c, 1, 74, 127
1, 139600, Note_off_c, 1, 74, 0
1, 139605, Note_on_c, 1, 77, 127
1, 139615, Note_off_c, 1, 77, 0
1, 139620, Note_off_c, 1, 66, 0
1, 139620, Note_off_c, 1, 54, 0
1, 139620, Note_off_c, 1, 42, 0
1, 139620, Note_off_c, 1, 69, 0
1, 139620, Note_off_c, 1, 73, 0
1, 139620, Note_on_c, 1, 78, 127
1, 139660, Note_off_c, 1, 78, 0
1, 139680, Note_on_c, 1, 52, 127
1, 139680, Note_on_c, 1, 40, 127
1, 139700, Note_off_c, 1, 52, 0
1, 139700, Note_off_c, 1, 40, 0
1, 139710, Note_on_c, 1, 50, 127
1, 139710, Note_on_c, 1, 38, 127
1, 139730, Note_off_c, 1, 50, 0
1, 139730, Note_off_c, 1, 38, 0
1, 139740, Note_on_c, 1, 49, 127
1, 139740, Note_on_c, 1, 37, 127
1, 139760, Note_off_c, 1, 49, 0
1, 139760, Note_off_c, 1, 37, 0
1, 139770, Note_on_c, 1, 47, 127
1, 139770, Note_on_c, 1, 35, 127
1, 139790, Note_off_c, 1, 47, 0
1, 139790, Note_off_c, 1, 35, 0
1, 139800, Note_on_c, 1, 45, 127
1, 139800, Note_on_c, 1, 33, 127
1, 139820, Note_off_c, 1, 45, 0
1, 139820, Note_off_c, 1, 33, 0
1, 139830, Note_on_c, 1, 66, 127
1, 139830, Note_on_c, 1, 44, 127
1, 139830, Note_on_c, 1, 32, 127
1, 139850, Note_off_c, 1, 66, 0
1, 139850, Note_off_c, 1, 44, 0
1, 139850, Note_off_c, 1, 32, 0
1, 139860, Note_on_c, 1, 66, 127
1, 139860, Note_on_c, 1, 42, 127
1, 139860, Note_on_c, 1, 30, 127
1, 139860, Note_on_c, 1, 57, 127
1, 139860, Note_on_c, 1, 61, 127
1, 139978, Note_off_c, 1, 42, 0
1, 139978, Note_off_c, 1, 30, 0
1, 139980, Note_off_c, 1, 57, 0
1, 139980, Note_off_c, 1, 61, 0
1, 139980, Note_on_c, 1, 45, 127
1, 139980, Note_on_c, 1, 33, 127
1, 139988, Note_off_c, 1, 66, 0
1, 140040, Note_on_c, 1, 64, 127
1, 140070, Note_off_c, 1, 64, 0
1, 140070, Note_on_c, 1, 62, 127
1, 140098, Note_off_c, 1, 45, 0
1, 140098, Note_off_c, 1, 33, 0
1, 140100, Note_off_c, 1, 62, 0
1, 140100, Note_on_c, 1, 49, 127
1, 140100, Note_on_c, 1, 37, 127
1, 140130, Note_on_c, 1, 59, 127
1, 140157, Note_off_c, 1, 59, 0
1, 140190, Note_on_c, 1, 56, 127
1, 140217, Note_off_c, 1, 56, 0
1, 140218, Note_off_c, 1, 49, 0
1, 140218, Note_off_c, 1, 37, 0
1, 140220, Note_on_c, 1, 57, 127
1, 140220, Note_on_c, 1, 54, 127
1, 140220, Note_on_c, 1, 42, 127
1, 140250, Note_on_c, 1, 69, 127
1, 140270, Note_off_c, 1, 69, 0
1, 140280, Note_on_c, 1, 66, 127
1, 140290, Note_off_c, 1, 57, 0
1, 140300, Note_off_c, 1, 66, 0
1, 140310, Note_on_c, 1, 61, 127
1, 140330, Note_off_c, 1, 61, 0
1, 140340, Note_on_c, 1, 56, 127
1, 140340, Note_on_c, 1, 60, 127
1, 140391, Note_off_c, 1, 60, 0
1, 140398, Note_off_c, 1, 54, 0
1, 140398, Note_off_c, 1, 42, 0
1, 140400, Note_on_c, 1, 44, 127
1, 140428, Note_off_c, 1, 44, 0
1, 140430, Note_on_c, 1, 45, 127
1, 140458, Note_off_c, 1, 45, 0
1, 140520, Note_on_c, 1, 53, 127
1, 140520, Note_on_c, 1, 41, 127
1, 140548, Note_off_c, 1, 53, 0
1, 140548, Note_off_c, 1, 41, 0
1, 140550, Note_on_c, 1, 51, 127
1, 140550, Note_on_c, 1, 39, 127
1, 140578, Note_off_c, 1, 51, 0
1, 140578, Note_off_c, 1, 39, 0
1, 140580, Note_on_c, 1, 49, 127
1, 140580, Note_on_c, 1, 37, 127
1, 140698, Note_off_c, 1, 49, 0
1, 140698, Note_off_c, 1, 37, 0
1, 140760, Note_on_c, 1, 59, 127
1, 140790, Note_off_c, 1, 59, 0
1, 140940, Note_off_c, 1, 56, 0
1, 140940, Note_on_c, 1, 47, 127
1, 140970, Note_on_c, 1, 74, 127
1, 140990, Note_off_c, 1, 74, 0
1, 141000, Note_on_c, 1, 71, 127
1, 141020, Note_off_c, 1, 71, 0
1, 141030, Note_on_c, 1, 68, 127
1, 141050, Note_off_c, 1, 68, 0
1, 141060, Note_on_c, 1, 65, 127
1, 141060, Note_on_c, 1, 62, 127
1, 141103, Note_off_c, 1, 62, 0
1, 141118, Note_off_c, 1, 47, 0
1, 141150, Note_on_c, 1, 50, 127
1, 141178, Note_off_c, 1, 50, 0
1, 141220, Note_off_c, 1, 65, 0
1, 141240, Note_on_c, 1, 61, 127
1, 141240, Note_on_c, 1, 57, 127
1, 141240, Note_on_c, 1, 45, 127
1, 141268, Note_off_c, 1, 57, 0
1, 141268, Note_off_c, 1, 45, 0
1, 141270, Note_on_c, 1, 56, 127
1, 141270, Note_on_c, 1, 44, 127
1, 141283, Note_off_c, 1, 61, 0
1, 141298, Note_off_c, 1, 56, 0
1, 141298, Note_off_c, 1, 44, 0
1, 141300, Note_on_c, 1, 57, 127
1, 141300, Note_on_c, 1, 54, 127
1, 141300, Note_on_c, 1, 42, 127
1, 141330, Note_on_c, 1, 73, 127
1, 141346, Note_off_c, 1, 57, 0
1, 141350, Note_off_c, 1, 73, 0
1, 141360, Note_on_c, 1, 69, 127
1, 141360, Note_on_c, 1, 61, 127
1, 141380, Note_off_c, 1, 54, 0
1, 141380, Note_off_c, 1, 42, 0
1, 141380, Note_off_c, 1, 69, 0
1, 141387, Note_off_c, 1, 61, 0
1, 141390, Note_on_c, 1, 66, 127
1, 141390, Note_on_c, 1, 57, 127
1, 141410, Note_off_c, 1, 66, 0
1, 141415, Note_off_c, 1, 57, 0
1, 141420, Note_on_c, 1, 61, 127
1, 141420, Note_on_c, 1, 56, 127
1, 141420, Note_on_c, 1, 52, 127
1, 141420, Note_on_c, 1, 40, 127
1, 141465, Note_off_c, 1, 56, 0
1, 141500, Note_off_c, 1, 52, 0
1, 141500, Note_off_c, 1, 40, 0
1, 141540, Note_off_c, 1, 61, 0
1, 141540, Note_on_c, 1, 54, 127
1, 141540, Note_on_c, 1, 50, 127
1, 141540, Note_on_c, 1, 38, 127
1, 141587, Note_off_c, 1, 54, 0
1, 141600, Note_on_c, 1, 62, 127
1, 141620, Note_off_c, 1, 50, 0
1, 141620, Note_off_c, 1, 38, 0
1, 141626, Note_off_c, 1, 62, 0
1, 141630, Note_on_c, 1, 56, 127
1, 141656, Note_off_c, 1, 56, 0
1, 141660, Note_on_c, 1, 53, 127
1, 141660, Note_on_c, 1, 49, 127
1, 141660, Note_on_c, 1, 37, 127
1, 141690, Note_on_c, 1, 73, 127
1, 141700, Note_off_c, 1, 49, 0
1, 141700, Note_off_c, 1, 37, 0
1, 141710, Note_off_c, 1, 73, 0
1, 141720, Note_on_c, 1, 68, 127
1, 141720, Note_on_c, 1, 41, 127
1, 141740, Note_off_c, 1, 53, 0
1, 141740, Note_off_c, 1, 68, 0
1, 141740, Note_off_c, 1, 41, 0
1, 141750, Note_on_c, 1, 65, 127
1, 141750, Note_on_c, 1, 56, 127
1, 141750, Note_on_c, 1, 44, 127
1, 141770, Note_off_c, 1, 65, 0
1, 141770, Note_off_c, 1, 56, 0
1, 141770, Note_off_c, 1, 44, 0
1, 141780, Note_on_c, 1, 61, 127
1, 141780, Note_on_c, 1, 49, 127
1, 141820, Note_off_c, 1, 49, 0
1, 141840, Note_on_c, 1, 37, 127
1, 141860, Note_off_c, 1, 37, 0
1, 141900, Note_on_c, 1, 59, 127
1, 141900, Note_on_c, 1, 47, 127
1, 141940, Note_off_c, 1, 59, 0
1, 141940, Note_off_c, 1, 47, 0
1, 142020, Note_on_c, 1, 57, 127
1, 142020, Note_on_c, 1, 45, 127
1, 142060, Note_off_c, 1, 61, 0
1, 142060, Note_off_c, 1, 57, 0
1, 142060, Note_off_c, 1, 45, 0
1, 142080, Note_on_c, 1, 66, 127
1, 142080, Note_on_c, 1, 57, 127
1, 142080, Note_on_c, 1, 49, 127
1, 142080, Note_on_c, 1, 37, 127
1, 142100, Note_off_c, 1, 66, 0
1, 142100, Note_off_c, 1, 57, 0
1, 142100, Note_off_c, 1, 49, 0
1, 142100, Note_off_c, 1, 37, 0
1, 142110, Note_on_c, 1, 69, 127
1, 142110, Note_on_c, 1, 61, 127
1, 142110, Note_on_c, 1, 57, 127
1, 142110, Note_on_c, 1, 45, 127
1, 142130, Note_off_c, 1, 69, 0
1, 142130, Note_off_c, 1, 61, 0
1, 142130, Note_off_c, 1, 57, 0
1, 142130, Note_off_c, 1, 45, 0
1, 142140, Note_on_c, 1, 73, 127
1, 142140, Note_on_c, 1, 59, 127
1, 142140, Note_on_c, 1, 56, 127
1, 142140, Note_on_c, 1, 44, 127
1, 142160, Note_off_c, 1, 59, 0
1, 142170, Note_on_c, 1, 57, 127
1, 142180, Note_off_c, 1, 56, 0
1, 142180, Note_off_c, 1, 44, 0
1, 142190, Note_off_c, 1, 57, 0
1, 142200, Note_on_c, 1, 49, 127
1, 142200, Note_on_c, 1, 37, 127
1, 142220, Note_off_c, 1, 49, 0
1, 142220, Note_off_c, 1, 37, 0
1, 142260, Note_on_c, 1, 54, 127
1, 142260, Note_on_c, 1, 42, 127
1, 142300, Note_off_c, 1, 54, 0
1, 142300, Note_off_c, 1, 42, 0
1, 142380, Note_on_c, 1, 53, 127
1, 142380, Note_on_c, 1, 41, 127
1, 142470, Note_on_c, 1, 51, 127
1, 142490, Note_off_c, 1, 51, 0
1, 142500, Note_off_c, 1, 73, 0
1, 142528, Note_off_c, 1, 53, 0
1, 142528, Note_off_c, 1, 41, 0
1, 142530, Note_on_c, 1, 39, 127
1, 142558, Note_off_c, 1, 39, 0
1, 142560, Note_on_c, 1, 68, 127
1, 142580, Note_off_c, 1, 68, 0
1, 142590, Note_on_c, 1, 65, 127
1, 142590, Note_on_c, 1, 51, 127
1, 142590, Note_on_c, 1, 39, 127
1, 142610, Note_off_c, 1, 65, 0
1, 142618, Note_off_c, 1, 51, 0
1, 142618, Note_off_c, 1, 39, 0
1, 142620, Note_on_c, 1, 61, 127
1, 142620, Note_on_c, 1, 53, 127
1, 142620, Note_on_c, 1, 41, 127
1, 142648, Note_off_c, 1, 53, 0
1, 142648, Note_off_c, 1, 41, 0
1, 142650, Note_on_c, 1, 54, 127
1, 142650, Note_on_c, 1, 42, 127
1, 142660, Note_off_c, 1, 61, 0
1, 142678, Note_off_c, 1, 54, 0
1, 142678, Note_off_c, 1, 42, 0
1, 142680, Note_on_c, 1, 56, 127
1, 142680, Note_on_c, 1, 44, 127
1, 142708, Note_off_c, 1, 44, 0
1, 142710, Note_on_c, 1, 53, 127
1, 142710, Note_on_c, 1, 41, 127
1, 142720, Note_off_c, 1, 56, 0
1, 142738, Note_off_c, 1, 53, 0
1, 142738, Note_off_c, 1, 41, 0
1, 142740, Note_on_c, 1, 57, 127
1, 142740, Note_on_c, 1, 54, 127
1, 142740, Note_on_c, 1, 42, 127
1, 142770, Note_on_c, 1, 61, 127
1, 142780, Note_off_c, 1, 57, 0
1, 142790, Note_off_c, 1, 61, 0
1, 142800, Note_on_c, 1, 63, 127
1, 142820, Note_off_c, 1, 42, 0
1, 142820, Note_off_c, 1, 63, 0
1, 142830, Note_on_c, 1, 65, 127
1, 142840, Note_off_c, 1, 54, 0
1, 142850, Note_off_c, 1, 65, 0
1, 142860, Note_on_c, 1, 66, 127
1, 142860, Note_on_c, 1, 62, 127
1, 142860, Note_on_c, 1, 42, 127
1, 142860, Note_on_c, 1, 30, 127
1, 142880, Note_off_c, 1, 66, 0
1, 142890, Note_on_c, 1, 65, 127
1, 142910, Note_off_c, 1, 65, 0
1, 142940, Note_off_c, 1, 42, 0
1, 142940, Note_off_c, 1, 30, 0
1, 142950, Note_on_c, 1, 68, 127
1, 142970, Note_off_c, 1, 68, 0
1, 142980, Note_on_c, 1, 69, 127
1, 142980, Note_on_c, 1, 54, 127
1, 143000, Note_off_c, 1, 62, 0
1, 143010, Note_on_c, 1, 61, 127
1, 143020, Note_off_c, 1, 69, 0
1, 143030, Note_off_c, 1, 61, 0
1, 143040, Note_on_c, 1, 59, 127
1, 143060, Note_off_c, 1, 54, 0
1, 143060, Note_off_c, 1, 59, 0
1, 143070, Note_on_c, 1, 57, 127
1, 143090, Note_off_c, 1, 57, 0
1, 143100, Note_on_c, 1, 59, 127
1, 143100, Note_on_c, 1, 56, 127
1, 143100, Note_on_c, 1, 44, 127
1, 143120, Note_off_c, 1, 59, 0
1, 143130, Note_on_c, 1, 57, 127
1, 143150, Note_off_c, 1, 57, 0
1, 143160, Note_on_c, 1, 64, 127
1, 143180, Note_off_c, 1, 56, 0
1, 143180, Note_off_c, 1, 44, 0
1, 143180, Note_off_c, 1, 64, 0
1, 143190, Note_on_c, 1, 66, 127
1, 143190, Note_on_c, 1, 59, 127
1, 143210, Note_off_c, 1, 66, 0
1, 143210, Note_off_c, 1, 59, 0
1, 143220, Note_on_c, 1, 68, 127
1, 143220, Note_on_c, 1, 64, 127
1, 143220, Note_on_c, 1, 44, 127
1, 143220, Note_on_c, 1, 32, 127
1, 143240, Note_off_c, 1, 68, 0
1, 143250, Note_on_c, 1, 66, 127
1, 143270, Note_off_c, 1, 66, 0
1, 143300, Note_off_c, 1, 44, 0
1, 143300, Note_off_c, 1, 32, 0
1, 143310, Note_on_c, 1, 69, 127
1, 143330, Note_off_c, 1, 69, 0
1, 143340, Note_on_c, 1, 71, 127
1, 143340, Note_on_c, 1, 56, 127
1, 143360, Note_off_c, 1, 64, 0
1, 143370, Note_on_c, 1, 62, 127
1, 143380, Note_off_c, 1, 71, 0
1, 143390, Note_off_c, 1, 62, 0
1, 143400, Note_on_c, 1, 61, 127
1, 143420, Note_off_c, 1, 56, 0
1, 143420, Note_off_c, 1, 61, 0
1, 143430, Note_on_c, 1, 59, 127
1, 143450, Note_off_c, 1, 59, 0
1, 143460, Note_on_c, 1, 61, 127
1, 143460, Note_on_c, 1, 57, 127
1, 143460, Note_on_c, 1, 45, 127
1, 143480, Note_off_c, 1, 61, 0
1, 143490, Note_on_c, 1, 64, 127
1, 143490, Note_on_c, 1, 59, 127
1, 143510, Note_off_c, 1, 64, 0
1, 143510, Note_off_c, 1, 59, 0
1, 143520, Note_on_c, 1, 66, 127
1, 143540, Note_off_c, 1, 57, 0
1, 143540, Note_off_c, 1, 45, 0
1, 143540, Note_off_c, 1, 66, 0
1, 143550, Note_on_c, 1, 68, 127
1, 143550, Note_on_c, 1, 61, 127
1, 143570, Note_off_c, 1, 68, 0
1, 143570, Note_off_c, 1, 61, 0
1, 143580, Note_on_c, 1, 69, 127
1, 143580, Note_on_c, 1, 66, 127
1, 143580, Note_on_c, 1, 45, 127
1, 143580, Note_on_c, 1, 33, 127
1, 143600, Note_off_c, 1, 69, 0
1, 143610, Note_on_c, 1, 68, 127
1, 143630, Note_off_c, 1, 68, 0
1, 143660, Note_off_c, 1, 45, 0
1, 143660, Note_off_c, 1, 33, 0
1, 143670, Note_on_c, 1, 71, 127
1, 143690, Note_off_c, 1, 71, 0
1, 143700, Note_on_c, 1, 73, 127
1, 143700, Note_on_c, 1, 57, 127
1, 143720, Note_off_c, 1, 66, 0
1, 143730, Note_on_c, 1, 64, 127
1, 143740, Note_off_c, 1, 73, 0
1, 143750, Note_off_c, 1, 64, 0
1, 143760, Note_on_c, 1, 62, 127
1, 143780, Note_off_c, 1, 57, 0
1, 143780, Note_off_c, 1, 62, 0
1, 143790, Note_on_c, 1, 61, 127
1, 143810, Note_off_c, 1, 61, 0
1, 143820, Note_on_c, 1, 62, 127
1, 143820, Note_on_c, 1, 59, 127
1, 143820, Note_on_c, 1, 47, 127
1, 143840, Note_off_c, 1, 62, 0
1, 143850, Note_on_c, 1, 61, 127
1, 143870, Note_off_c, 1, 61, 0
1, 143900, Note_off_c, 1, 59, 0
1, 143900, Note_off_c, 1, 47, 0
1, 143910, Note_on_c, 1, 61, 127
1, 143930, Note_off_c, 1, 61, 0
1, 143940, Note_on_c, 1, 62, 127
1, 143940, Note_on_c, 1, 47, 127
1, 143940, Note_on_c, 1, 35, 127
1, 143960, Note_off_c, 1, 62, 0
1, 143970, Note_on_c, 1, 61, 127
1, 143990, Note_off_c, 1, 61, 0
1, 144020, Note_off_c, 1, 47, 0
1, 144020, Note_off_c, 1, 35, 0
1, 144030, Note_on_c, 1, 64, 127
1, 144050, Note_off_c, 1, 64, 0
1, 144060, Note_on_c, 1, 66, 127
1, 144080, Note_off_c, 1, 66, 0
1, 144090, Note_on_c, 1, 64, 127
1, 144110, Note_off_c, 1, 64, 0
1, 144120, Note_on_c, 1, 66, 127
1, 144120, Note_on_c, 1, 47, 127
1, 144120, Note_on_c, 1, 35, 127
1, 144140, Note_off_c, 1, 66, 0
1, 144150, Note_on_c, 1, 68, 127
1, 144160, Note_off_c, 1, 47, 0
1, 144160, Note_off_c, 1, 35, 0
1, 144170, Note_off_c, 1, 68, 0
1, 144180, Note_on_c, 1, 69, 127
1, 144180, Note_on_c, 1, 49, 127
1, 144180, Note_on_c, 1, 37, 127
1, 144220, Note_off_c, 1, 49, 0
1, 144220, Note_off_c, 1, 37, 0
1, 144240, Note_off_c, 1, 69, 0
1, 144240, Note_on_c, 1, 64, 127
1, 144240, Note_on_c, 1, 45, 127
1, 144240, Note_on_c, 1, 33, 127
1, 144280, Note_off_c, 1, 45, 0
1, 144280, Note_off_c, 1, 33, 0
1, 144300, Note_off_c, 1, 64, 0
1, 144300, Note_on_c, 1, 62, 127
1, 144300, Note_on_c, 1, 52, 127
1, 144300, Note_on_c, 1, 40, 127
1, 144360, Note_off_c, 1, 62, 0
1, 144360, Note_on_c, 1, 61, 127
1, 144380, Note_off_c, 1, 52, 0
1, 144380, Note_off_c, 1, 40, 0
1, 144420, Note_off_c, 1, 61, 0
1, 144420, Note_on_c, 1, 59, 127
1, 144420, Note_on_c, 1, 28, 127
1, 144480, Note_off_c, 1, 59, 0
1, 144480, Note_on_c, 1, 57, 127
1, 144500, Note_off_c, 1, 28, 0
1, 144510, Note_on_c, 1, 81, 127
1, 144530, Note_off_c, 1, 81, 0
1, 144700, Note_off_c, 1, 57, 0
1, 144720, Note_on_c, 1, 80, 127
1, 144740, Note_off_c, 1, 80, 0
1, 144750, Note_on_c, 1, 78, 127
1, 144770, Note_off_c, 1, 78, 0
1, 144780, Note_on_c, 1, 76, 127
1, 144780, Note_on_c, 1, 52, 127
1, 144780, Note_on_c, 1, 40, 127
1, 144800, Note_off_c, 1, 76, 0
1, 144810, Note_on_c, 1, 74, 127
1, 144830, Note_off_c, 1, 74, 0
1, 144840, Note_on_c, 1, 73, 127
1, 144860, Note_off_c, 1, 52, 0
1, 144860, Note_off_c, 1, 40, 0
1, 144860, Note_off_c, 1, 73, 0
1, 144870, Note_on_c, 1, 71, 127
1, 144890, Note_off_c, 1, 71, 0
1, 144900, Note_on_c, 1, 73, 127
1, 144900, Note_on_c, 1, 57, 127
1, 144900, Note_on_c, 1, 45, 127
1, 144960, Note_off_c, 1, 73, 0
1, 144990, Note_on_c, 1, 69, 127
1, 145010, Note_off_c, 1, 69, 0
1, 145020, Note_off_c, 1, 57, 0
1, 145020, Note_off_c, 1, 45, 0
1, 145020, Note_on_c, 1, 75, 127
1, 145060, Note_off_c, 1, 75, 0
1, 145080, Note_on_c, 1, 59, 127
1, 145080, Note_on_c, 1, 47, 127
1, 145100, Note_off_c, 1, 59, 0
1, 145100, Note_off_c, 1, 47, 0
1, 145110, Note_on_c, 1, 61, 127
1, 145110, Note_on_c, 1, 49, 127
1, 145130, Note_off_c, 1, 61, 0
1, 145130, Note_off_c, 1, 49, 0
1, 145140, Note_on_c, 1, 59, 127
1, 145140, Note_on_c, 1, 47, 127
1, 145160, Note_off_c, 1, 59, 0
1, 145160, Note_off_c, 1, 47, 0
1, 145170, Note_on_c, 1, 57, 127
1, 145170, Note_on_c, 1, 45, 127
1, 145190, Note_off_c, 1, 57, 0
1, 145190, Note_off_c, 1, 45, 0
1, 145200, Note_on_c, 1, 56, 127
1, 145200, Note_on_c, 1, 44, 127
1, 145220, Note_off_c, 1, 56, 0
1, 145220, Note_off_c, 1, 44, 0
1, 145230, Note_on_c, 1, 76, 127
1, 145230, Note_on_c, 1, 54, 127
1, 145230, Note_on_c, 1, 42, 127
1, 145250, Note_off_c, 1, 76, 0
1, 145250, Note_off_c, 1, 54, 0
1, 145250, Note_off_c, 1, 42, 0
1, 145260, Note_on_c, 1, 76, 127
1, 145260, Note_on_c, 1, 52, 127
1, 145260, Note_on_c, 1, 40, 127
1, 145340, Note_off_c, 1, 52, 0
1, 145340, Note_off_c, 1, 40, 0
1, 145380, Note_off_c, 1, 76, 0
1, 145380, Note_on_c, 1, 44, 127
1, 145380, Note_on_c, 1, 32, 127
1, 145440, Note_on_c, 1, 74, 127
1, 145460, Note_off_c, 1, 44, 0
1, 145460, Note_off_c, 1, 32, 0
1, 145460, Note_off_c, 1, 74, 0
1, 145470, Note_on_c, 1, 73, 127
1, 145490, Note_off_c, 1, 73, 0
1, 145500, Note_on_c, 1, 71, 127
1, 145500, Note_on_c, 1, 47, 127
1, 145500, Note_on_c, 1, 35, 127
1, 145520, Note_off_c, 1, 71, 0
1, 145530, Note_on_c, 1, 69, 127
1, 145550, Note_off_c, 1, 69, 0
1, 145560, Note_on_c, 1, 68, 127
1, 145580, Note_off_c, 1, 47, 0
1, 145580, Note_off_c, 1, 35, 0
1, 145580, Note_off_c, 1, 68, 0
1, 145590, Note_on_c, 1, 66, 127
1, 145610, Note_off_c, 1, 66, 0
1, 145620, Note_on_c, 1, 68, 127
1, 145620, Note_on_c, 1, 40, 127
1, 145620, Note_on_c, 1, 28, 127
1, 145680, Note_off_c, 1, 68, 0
1, 145710, Note_on_c, 1, 64, 127
1, 145718, Note_off_c, 1, 64, 0
1, 145725, Note_on_c, 1, 71, 127
1, 145733, Note_off_c, 1, 71, 0
1, 145740, Note_off_c, 1, 40, 0
1, 145740, Note_off_c, 1, 28, 0
1, 145740, Note_on_c, 1, 74, 127
1, 145780, Note_off_c, 1, 74, 0
1, 145800, Note_on_c, 1, 52, 127
1, 145800, Note_on_c, 1, 40, 127
1, 145820, Note_off_c, 1, 52, 0
1, 145820, Note_off_c, 1, 40, 0
1, 145830, Note_on_c, 1, 54, 127
1, 145830, Note_on_c, 1, 42, 127
1, 145850, Note_off_c, 1, 54, 0
1, 145850, Note_off_c, 1, 42, 0
1, 145860, Note_on_c, 1, 52, 127
1, 145860, Note_on_c, 1, 40, 127
1, 145880, Note_off_c, 1, 52, 0
1, 145880, Note_off_c, 1, 40, 0
1, 145890, Note_on_c, 1, 78, 127
1, 145890, Note_on_c, 1, 50, 127
1, 145890, Note_on_c, 1, 38, 127
1, 145910, Note_off_c, 1, 78, 0
1, 145910, Note_off_c, 1, 50, 0
1, 145910, Note_off_c, 1, 38, 0
1, 145920, Note_on_c, 1, 76, 127
1, 145920, Note_on_c, 1, 49, 127
1, 145920, Note_on_c, 1, 37, 127
1, 145940, Note_off_c, 1, 76, 0
1, 145940, Note_off_c, 1, 49, 0
1, 145940, Note_off_c, 1, 37, 0
1, 145950, Note_on_c, 1, 74, 127
1, 145950, Note_on_c, 1, 47, 127
1, 145950, Note_on_c, 1, 35, 127
1, 145970, Note_off_c, 1, 74, 0
1, 145970, Note_off_c, 1, 47, 0
1, 145970, Note_off_c, 1, 35, 0
1, 145980, Note_on_c, 1, 73, 127
1, 145980, Note_on_c, 1, 45, 127
1, 145980, Note_on_c, 1, 33, 127
1, 146000, Note_off_c, 1, 73, 0
1, 146010, Note_on_c, 1, 71, 127
1, 146030, Note_off_c, 1, 71, 0
1, 146040, Note_on_c, 1, 69, 127
1, 146060, Note_off_c, 1, 45, 0
1, 146060, Note_off_c, 1, 33, 0
1, 146060, Note_off_c, 1, 69, 0
1, 146070, Note_on_c, 1, 73, 127
1, 146090, Note_off_c, 1, 73, 0
1, 146100, Note_on_c, 1, 71, 127
1, 146100, Note_on_c, 1, 44, 127
1, 146100, Note_on_c, 1, 32, 127
1, 146120, Note_off_c, 1, 71, 0
1, 146130, Note_on_c, 1, 69, 127
1, 146150, Note_off_c, 1, 69, 0
1, 146160, Note_on_c, 1, 68, 127
1, 146180, Note_off_c, 1, 44, 0
1, 146180, Note_off_c, 1, 32, 0
1, 146180, Note_off_c, 1, 68, 0
1, 146190, Note_on_c, 1, 71, 127
1, 146210, Note_off_c, 1, 71, 0
1, 146220, Note_on_c, 1, 69, 127
1, 146220, Note_on_c, 1, 42, 127
1, 146220, Note_on_c, 1, 30, 127
1, 146240, Note_off_c, 1, 69, 0
1, 146250, Note_on_c, 1, 68, 127
1, 146270, Note_off_c, 1, 68, 0
1, 146280, Note_on_c, 1, 66, 127
1, 146300, Note_off_c, 1, 42, 0
1, 146300, Note_off_c, 1, 30, 0
1, 146300, Note_off_c, 1, 66, 0
1, 146310, Note_on_c, 1, 69, 127
1, 146330, Note_off_c, 1, 69, 0
1, 146340, Note_on_c, 1, 68, 127
1, 146340, Note_on_c, 1, 40, 127
1, 146340, Note_on_c, 1, 28, 127
1, 146360, Note_off_c, 1, 68, 0
1, 146370, Note_on_c, 1, 66, 127
1, 146390, Note_off_c, 1, 66, 0
1, 146400, Note_on_c, 1, 64, 127
1, 146420, Note_off_c, 1, 64, 0
1, 146430, Note_on_c, 1, 71, 127
1, 146450, Note_off_c, 1, 71, 0
1, 146460, Note_off_c, 1, 40, 0
1, 146460, Note_off_c, 1, 28, 0
1, 146460, Note_on_c, 1, 62, 127
1, 146520, Note_on_c, 1, 52, 127
1, 146540, Note_off_c, 1, 52, 0
1, 146550, Note_on_c, 1, 54, 127
1, 146550, Note_on_c, 1, 42, 127
1, 146570, Note_off_c, 1, 54, 0
1, 146570, Note_off_c, 1, 42, 0
1, 146600, Note_off_c, 1, 62, 0
1, 146610, Note_on_c, 1, 66, 127
1, 146610, Note_on_c, 1, 50, 127
1, 146610, Note_on_c, 1, 38, 127
1, 146630, Note_off_c, 1, 66, 0
1, 146630, Note_off_c, 1, 50, 0
1, 146630, Note_off_c, 1, 38, 0
1, 146640, Note_on_c, 1, 64, 127
1, 146640, Note_on_c, 1, 49, 127
1, 146640, Note_on_c, 1, 37, 127
1, 146660, Note_off_c, 1, 64, 0
1, 146660, Note_off_c, 1, 49, 0
1, 146660, Note_off_c, 1, 37, 0
1, 146670, Note_on_c, 1, 62, 127
1, 146670, Note_on_c, 1, 47, 127
1, 146670, Note_on_c, 1, 35, 127
1, 146690, Note_off_c, 1, 62, 0
1, 146690, Note_off_c, 1, 47, 0
1, 146690, Note_off_c, 1, 35, 0
1, 146700, Note_on_c, 1, 61, 127
1, 146700, Note_on_c, 1, 45, 127
1, 146700, Note_on_c, 1, 33, 127
1, 146720, Note_off_c, 1, 61, 0
1, 146730, Note_on_c, 1, 59, 127
1, 146750, Note_off_c, 1, 59, 0
1, 146760, Note_off_c, 1, 45, 0
1, 146760, Note_off_c, 1, 33, 0
1, 146760, Note_on_c, 1, 57, 127
1, 146780, Note_off_c, 1, 57, 0
1, 146790, Note_on_c, 1, 66, 127
1, 146790, Note_on_c, 1, 50, 127
1, 146790, Note_on_c, 1, 38, 127
1, 146810, Note_off_c, 1, 66, 0
1, 146810, Note_off_c, 1, 50, 0
1, 146810, Note_off_c, 1, 38, 0
1, 146820, Note_on_c, 1, 57, 127
1, 146820, Note_on_c, 1, 52, 127
1, 146820, Note_on_c, 1, 40, 127
1, 146860, Note_off_c, 1, 57, 0
1, 146880, Note_on_c, 1, 56, 127
1, 146900, Note_off_c, 1, 52, 0
1, 146900, Note_off_c, 1, 40, 0
1, 146940, Note_on_c, 1, 28, 127
1, 146960, Note_off_c, 1, 56, 0
1, 147020, Note_off_c, 1, 28, 0
1, 147030, Note_on_c, 1, 57, 127
1, 147030, Note_on_c, 1, 64, 127
1, 147050, Note_off_c, 1, 57, 0
1, 147050, Note_off_c, 1, 64, 0
1, 147060, Note_on_c, 1, 57, 127
1, 147060, Note_on_c, 1, 64, 127
1, 147060, Note_on_c, 1, 45, 127
1, 147060, Note_on_c, 1, 33, 127
1, 147140, Note_off_c, 1, 57, 0
1, 147140, Note_off_c, 1, 45, 0
1, 147140, Note_off_c, 1, 33, 0
1, 147180, Note_on_c, 1, 49, 127
1, 147180, Note_on_c, 1, 37, 127
1, 147200, Note_off_c, 1, 64, 0
1, 147210, Note_on_c, 1, 66, 127
1, 147230, Note_off_c, 1, 66, 0
1, 147260, Note_off_c, 1, 49, 0
1, 147260, Note_off_c, 1, 37, 0
1, 147270, Note_on_c, 1, 62, 127
1, 147290, Note_off_c, 1, 62, 0
1, 147300, Note_on_c, 1, 61, 127
1, 147300, Note_on_c, 1, 52, 127
1, 147300, Note_on_c, 1, 40, 127
1, 147320, Note_off_c, 1, 61, 0
1, 147330, Note_on_c, 1, 59, 127
1, 147350, Note_off_c, 1, 59, 0
1, 147360, Note_on_c, 1, 58, 127
1, 147380, Note_off_c, 1, 52, 0
1, 147380, Note_off_c, 1, 40, 0
1, 147380, Note_off_c, 1, 58, 0
1, 147390, Note_on_c, 1, 56, 127
1, 147410, Note_off_c, 1, 56, 0
1, 147420, Note_on_c, 1, 58, 127
1, 147420, Note_on_c, 1, 42, 127
1, 147420, Note_on_c, 1, 30, 127
1, 147450, Note_on_c, 1, 76, 127
1, 147470, Note_off_c, 1, 76, 0
1, 147480, Note_off_c, 1, 58, 0
1, 147480, Note_on_c, 1, 73, 127
1, 147500, Note_off_c, 1, 73, 0
1, 147510, Note_on_c, 1, 70, 127
1, 147510, Note_on_c, 1, 54, 127
1, 147530, Note_off_c, 1, 70, 0
1, 147530, Note_off_c, 1, 54, 0
1, 147540, Note_off_c, 1, 42, 0
1, 147540, Note_off_c, 1, 30, 0
1, 147540, Note_on_c, 1, 66, 127
1, 147540, Note_on_c, 1, 64, 127
1, 147580, Note_off_c, 1, 64, 0
1, 147630, Note_on_c, 1, 55, 127
1, 147630, Note_on_c, 1, 43, 127
1, 147650, Note_off_c, 1, 55, 0
1, 147650, Note_off_c, 1, 43, 0
1, 147690, Note_on_c, 1, 52, 127
1, 147690, Note_on_c, 1, 40, 127
1, 147710, Note_off_c, 1, 52, 0
1, 147710, Note_off_c, 1, 40, 0
1, 147720, Note_on_c, 1, 50, 127
1, 147720, Note_on_c, 1, 38, 127
1, 147740, Note_off_c, 1, 50, 0
1, 147740, Note_off_c, 1, 38, 0
1, 147750, Note_on_c, 1, 62, 127
1, 147750, Note_on_c, 1, 49, 127
1, 147750, Note_on_c, 1, 37, 127
1, 147770, Note_off_c, 1, 62, 0
1, 147770, Note_off_c, 1, 49, 0
1, 147770, Note_off_c, 1, 37, 0
1, 147780, Note_on_c, 1, 47, 127
1, 147780, Note_on_c, 1, 35, 127
1, 147860, Note_off_c, 1, 66, 0
1, 147860, Note_off_c, 1, 47, 0
1, 147860, Note_off_c, 1, 35, 0
1, 147990, Note_on_c, 1, 61, 127
1, 148010, Note_off_c, 1, 61, 0
1, 148020, Note_on_c, 1, 59, 127
1, 148020, Note_on_c, 1, 47, 127
1, 148050, Note_on_c, 1, 57, 127
1, 148070, Note_off_c, 1, 57, 0
1, 148080, Note_on_c, 1, 56, 127
1, 148100, Note_off_c, 1, 59, 0
1, 148100, Note_off_c, 1, 47, 0
1, 148100, Note_off_c, 1, 56, 0
1, 148110, Note_on_c, 1, 54, 127
1, 148130, Note_off_c, 1, 54, 0
1, 148140, Note_on_c, 1, 56, 127
1, 148140, Note_on_c, 1, 53, 127
1, 148140, Note_on_c, 1, 41, 127
1, 148170, Note_on_c, 1, 68, 127
1, 148190, Note_off_c, 1, 68, 0
1, 148200, Note_off_c, 1, 56, 0
1, 148200, Note_on_c, 1, 65, 127
1, 148220, Note_off_c, 1, 65, 0
1, 148230, Note_on_c, 1, 59, 127
1, 148250, Note_off_c, 1, 59, 0
1, 148260, Note_on_c, 1, 62, 127
1, 148280, Note_off_c, 1, 53, 0
1, 148280, Note_off_c, 1, 41, 0
1, 148290, Note_on_c, 1, 54, 127
1, 148290, Note_on_c, 1, 42, 127
1, 148300, Note_off_c, 1, 62, 0
1, 148310, Note_off_c, 1, 54, 0
1, 148310, Note_off_c, 1, 42, 0
1, 148350, Note_on_c, 1, 51, 127
1, 148350, Note_on_c, 1, 39, 127
1, 148370, Note_off_c, 1, 51, 0
1, 148370, Note_off_c, 1, 39, 0
1, 148380, Note_on_c, 1, 49, 127
1, 148380, Note_on_c, 1, 37, 127
1, 148400, Note_off_c, 1, 49, 0
1, 148400, Note_off_c, 1, 37, 0
1, 148410, Note_on_c, 1, 47, 127
1, 148410, Note_on_c, 1, 35, 127
1, 148430, Note_off_c, 1, 47, 0
1, 148430, Note_off_c, 1, 35, 0
1, 148440, Note_on_c, 1, 61, 127
1, 148440, Note_on_c, 1, 45, 127
1, 148440, Note_on_c, 1, 33, 127
1, 148460, Note_off_c, 1, 45, 0
1, 148460, Note_off_c, 1, 33, 0
1, 148470, Note_on_c, 1, 44, 127
1, 148470, Note_on_c, 1, 32, 127
1, 148480, Note_off_c, 1, 61, 0
1, 148490, Note_off_c, 1, 44, 0
1, 148490, Note_off_c, 1, 32, 0
1, 148500, Note_on_c, 1, 57, 127
1, 148500, Note_on_c, 1, 42, 127
1, 148500, Note_on_c, 1, 30, 127
1, 148540, Note_off_c, 1, 57, 0
1, 148560, Note_on_c, 1, 61, 127
1, 148580, Note_off_c, 1, 42, 0
1, 148580, Note_off_c, 1, 30, 0
1, 148580, Note_off_c, 1, 61, 0
1, 148590, Note_on_c, 1, 57, 127
1, 148610, Note_off_c, 1, 57, 0
1, 148620, Note_on_c, 1, 56, 127
1, 148620, Note_on_c, 1, 40, 127
1, 148620, Note_on_c, 1, 28, 127
1, 148660, Note_off_c, 1, 56, 0
1, 148680, Note_on_c, 1, 61, 127
1, 148700, Note_off_c, 1, 40, 0
1, 148700, Note_off_c, 1, 28, 0
1, 148700, Note_off_c, 1, 61, 0
1, 148710, Note_on_c, 1, 56, 127
1, 148730, Note_off_c, 1, 56, 0
1, 148740, Note_on_c, 1, 54, 127
1, 148740, Note_on_c, 1, 38, 127
1, 148740, Note_on_c, 1, 26, 127
1, 148780, Note_off_c, 1, 54, 0
1, 148800, Note_on_c, 1, 62, 127
1, 148820, Note_off_c, 1, 38, 0
1, 148820, Note_off_c, 1, 26, 0
1, 148820, Note_off_c, 1, 62, 0
1, 148830, Note_on_c, 1, 54, 127
1, 148850, Note_off_c, 1, 54, 0
1, 148860, Note_on_c, 1, 53, 127
1, 148860, Note_on_c, 1, 37, 127
1, 148860, Note_on_c, 1, 25, 127
1, 148890, Note_on_c, 1, 61, 127
1, 148900, Note_off_c, 1, 37, 0
1, 148900, Note_off_c, 1, 25, 0
1, 148910, Note_off_c, 1, 61, 0
1, 148920, Note_off_c, 1, 53, 0
1, 148920, Note_on_c, 1, 65, 127
1, 148920, Note_on_c, 1, 49, 127
1, 148940, Note_off_c, 1, 65, 0
1, 148950, Note_on_c, 1, 68, 127
1, 148960, Note_off_c, 1, 49, 0
1, 148970, Note_off_c, 1, 68, 0
1, 148980, Note_on_c, 1, 73, 127
1, 148980, Note_on_c, 1, 53, 127
1, 148980, Note_on_c, 1, 41, 127
1, 149020, Note_off_c, 1, 73, 0
1, 149020, Note_off_c, 1, 53, 0
1, 149020, Note_off_c, 1, 41, 0
1, 149040, Note_on_c, 1, 61, 127
1, 149040, Note_on_c, 1, 56, 127
1, 149040, Note_on_c, 1, 44, 127
1, 149060, Note_off_c, 1, 61, 0
1, 149070, Note_on_c, 1, 73, 127
1, 149080, Note_off_c, 1, 56, 0
1, 149080, Note_off_c, 1, 44, 0
1, 149090, Note_off_c, 1, 73, 0
1, 149100, Note_on_c, 1, 71, 127
1, 149100, Note_on_c, 1, 53, 127
1, 149100, Note_on_c, 1, 41, 127
1, 149140, Note_off_c, 1, 71, 0
1, 149140, Note_off_c, 1, 53, 0
1, 149140, Note_off_c, 1, 41, 0
1, 149160, Note_on_c, 1, 61, 127
1, 149160, Note_on_c, 1, 49, 127
1, 149160, Note_on_c, 1, 37, 127
1, 149180, Note_off_c, 1, 61, 0
1, 149190, Note_on_c, 1, 71, 127
1, 149200, Note_off_c, 1, 49, 0
1, 149200, Note_off_c, 1, 37, 0
1, 149210, Note_off_c, 1, 71, 0
1, 149220, Note_on_c, 1, 69, 127
1, 149220, Note_on_c, 1, 61, 127
1, 149220, Note_on_c, 1, 37, 127
1, 149220, Note_on_c, 1, 25, 127
1, 149240, Note_off_c, 1, 61, 0
1, 149250, Note_on_c, 1, 59, 127
1, 149260, Note_off_c, 1, 69, 0
1, 149270, Note_off_c, 1, 59, 0
1, 149280, Note_on_c, 1, 57, 127
1, 149300, Note_off_c, 1, 57, 0
1, 149340, Note_on_c, 1, 68, 127
1, 149380, Note_off_c, 1, 68, 0
1, 149400, Note_on_c, 1, 56, 127
1, 149420, Note_off_c, 1, 56, 0
1, 149460, Note_on_c, 1, 66, 127
1, 149500, Note_off_c, 1, 66, 0
1, 149520, Note_on_c, 1, 54, 127
1, 149540, Note_off_c, 1, 54, 0
1, 149580, Note_on_c, 1, 65, 127
1, 149620, Note_off_c, 1, 37, 0
1, 149620, Note_off_c, 1, 25, 0
1, 149620, Note_off_c, 1, 65, 0
1, 149640, Note_on_c, 1, 61, 127
1, 149640, Note_on_c, 1, 53, 127
1, 149640, Note_on_c, 1, 56, 127
1, 149640, Note_on_c, 1, 44, 127
1, 149660, Note_off_c, 1, 53, 0
1, 149670, Note_on_c, 1, 51, 127
1, 149680, Note_off_c, 1, 61, 0
1, 149680, Note_off_c, 1, 56, 0
1, 149680, Note_off_c, 1, 44, 0
1, 149690, Note_off_c, 1, 51, 0
1, 149700, Note_on_c, 1, 49, 127
1, 149700, Note_on_c, 1, 57, 127
1, 149700, Note_on_c, 1, 45, 127
1, 149730, Note_on_c, 1, 61, 127
1, 149740, Note_off_c, 1, 57, 0
1, 149740, Note_off_c, 1, 45, 0
1, 149750, Note_off_c, 1, 61, 0
1, 149760, Note_on_c, 1, 63, 127
1, 149780, Note_off_c, 1, 63, 0
1, 149790, Note_on_c, 1, 65, 127
1, 149800, Note_off_c, 1, 49, 0
1, 149810, Note_off_c, 1, 65, 0
1, 149820, Note_on_c, 1, 66, 127
1, 149820, Note_on_c, 1, 57, 127
1, 149820, Note_on_c, 1, 45, 127
1, 149840, Note_off_c, 1, 66, 0
1, 149850, Note_on_c, 1, 68, 127
1, 149860, Note_off_c, 1, 57, 0
1, 149860, Note_off_c, 1, 45, 0
1, 149870, Note_off_c, 1, 68, 0
1, 149880, Note_on_c, 1, 69, 127
1, 149880, Note_on_c, 1, 61, 127
1, 149880, Note_on_c, 1, 54, 127
1, 149880, Note_on_c, 1, 42, 127
1, 149900, Note_off_c, 1, 69, 0
1, 149910, Note_on_c, 1, 66, 127
1, 149920, Note_off_c, 1, 61, 0
1, 149920, Note_off_c, 1, 54, 0
1, 149920, Note_off_c, 1, 42, 0
1, 149930, Note_off_c, 1, 66, 0
1, 149940, Note_on_c, 1, 63, 127
1, 149940, Note_on_c, 1, 61, 127
1, 149940, Note_on_c, 1, 47, 127
1, 149940, Note_on_c, 1, 35, 127
1, 149960, Note_off_c, 1, 63, 0
1, 149960, Note_off_c, 1, 61, 0
1, 149970, Note_on_c, 1, 57, 127
1, 149990, Note_off_c, 1, 57, 0
1, 150000, Note_on_c, 1, 56, 127
1, 150020, Note_off_c, 1, 47, 0
1, 150020, Note_off_c, 1, 35, 0
1, 150020, Note_off_c, 1, 56, 0
1, 150030, Note_on_c, 1, 65, 127
1, 150030, Note_on_c, 1, 54, 127
1, 150050, Note_off_c, 1, 65, 0
1, 150050, Note_off_c, 1, 54, 0
1, 150060, Note_on_c, 1, 66, 127
1, 150060, Note_on_c, 1, 63, 127
1, 150080, Note_off_c, 1, 66, 0
1, 150090, Note_on_c, 1, 65, 127
1, 150110, Note_off_c, 1, 65, 0
1, 150150, Note_on_c, 1, 68, 127
1, 150170, Note_off_c, 1, 68, 0
1, 150180, Note_on_c, 1, 69, 127
1, 150200, Note_off_c, 1, 69, 0
1, 150270, Note_on_c, 1, 71, 127
1, 150290, Note_off_c, 1, 71, 0
1, 150300, Note_on_c, 1, 49, 127
1, 150300, Note_on_c, 1, 37, 127
1, 150320, Note_off_c, 1, 63, 0
1, 150330, Note_on_c, 1, 59, 127
1, 150350, Note_off_c, 1, 59, 0
1, 150360, Note_on_c, 1, 57, 127
1, 150380, Note_off_c, 1, 49, 0
1, 150380, Note_off_c, 1, 37, 0
1, 150380, Note_off_c, 1, 57, 0
1, 150390, Note_on_c, 1, 66, 127
1, 150390, Note_on_c, 1, 56, 127
1, 150410, Note_off_c, 1, 66, 0
1, 150410, Note_off_c, 1, 56, 0
1, 150420, Note_on_c, 1, 68, 127
1, 150420, Note_on_c, 1, 65, 127
1, 150440, Note_off_c, 1, 68, 0
1, 150440, Note_off_c, 1, 65, 0
1, 150450, Note_on_c, 1, 66, 127
1, 150450, Note_on_c, 1, 63, 127
1, 150470, Note_off_c, 1, 66, 0
1, 150470, Note_off_c, 1, 63, 0
1, 150480, Note_on_c, 1, 68, 127
1, 150480, Note_on_c, 1, 65, 127
1, 150500, Note_off_c, 1, 68, 0
1, 150500, Note_off_c, 1, 65, 0
1, 150510, Note_on_c, 1, 69, 127
1, 150510, Note_on_c, 1, 66, 127
1, 150530, Note_off_c, 1, 69, 0
1, 150530, Note_off_c, 1, 66, 0
1, 150540, Note_on_c, 1, 71, 127
1, 150540, Note_on_c, 1, 65, 127
1, 150560, Note_off_c, 1, 71, 0
1, 150560, Note_off_c, 1, 65, 0
1, 150570, Note_on_c, 1, 69, 127
1, 150570, Note_on_c, 1, 61, 127
1, 150590, Note_off_c, 1, 69, 0
1, 150590, Note_off_c, 1, 61, 0
1, 150600, Note_on_c, 1, 71, 127
1, 150600, Note_on_c, 1, 63, 127
1, 150620, Note_off_c, 1, 71, 0
1, 150620, Note_off_c, 1, 63, 0
1, 150630, Note_on_c, 1, 73, 127
1, 150630, Note_on_c, 1, 65, 127
1, 150650, Note_off_c, 1, 73, 0
1, 150650, Note_off_c, 1, 65, 0
1, 150660, Note_on_c, 1, 66, 127
1, 150660, Note_on_c, 1, 50, 127
1, 150660, Note_on_c, 1, 38, 127
1, 150720, Note_on_c, 1, 54, 127
1, 150740, Note_off_c, 1, 66, 0
1, 150740, Note_off_c, 1, 50, 0
1, 150740, Note_off_c, 1, 38, 0
1, 150740, Note_off_c, 1, 54, 0
1, 150750, Note_on_c, 1, 56, 127
1, 150770, Note_off_c, 1, 56, 0
1, 150780, Note_on_c, 1, 57, 127
1, 150800, Note_off_c, 1, 57, 0
1, 150810, Note_on_c, 1, 56, 127
1, 150830, Note_off_c, 1, 56, 0
1, 150840, Note_on_c, 1, 57, 127
1, 150860, Note_off_c, 1, 57, 0
1, 150870, Note_on_c, 1, 59, 127
1, 150890, Note_off_c, 1, 59, 0
1, 150900, Note_on_c, 1, 61, 127
1, 150920, Note_off_c, 1, 61, 0
1, 150930, Note_on_c, 1, 59, 127
1, 150950, Note_off_c, 1, 59, 0
1, 150960, Note_on_c, 1, 61, 127
1, 150980, Note_off_c, 1, 61, 0
1, 150990, Note_on_c, 1, 62, 127
1, 151010, Note_off_c, 1, 62, 0
1, 151020, Note_on_c, 1, 61, 127
1, 151020, Note_on_c, 1, 41, 127
1, 151020, Note_on_c, 1, 29, 127
1, 151050, Note_on_c, 1, 73, 127
1, 151060, Note_off_c, 1, 41, 0
1, 151060, Note_off_c, 1, 29, 0
1, 151070, Note_off_c, 1, 73, 0
1, 151080, Note_on_c, 1, 77, 127
1, 151080, Note_on_c, 1, 49, 127
1, 151080, Note_on_c, 1, 37, 127
1, 151100, Note_off_c, 1, 77, 0
1, 151110, Note_on_c, 1, 80, 127
1, 151120, Note_off_c, 1, 49, 0
1, 151120, Note_off_c, 1, 37, 0
1, 151130, Note_off_c, 1, 80, 0
1, 151140, Note_off_c, 1, 61, 0
1, 151140, Note_on_c, 1, 83, 127
1, 151140, Note_on_c, 1, 53, 127
1, 151180, Note_off_c, 1, 53, 0
1, 151200, Note_on_c, 1, 62, 127
1, 151200, Note_on_c, 1, 56, 127
1, 151200, Note_on_c, 1, 44, 127
1, 151220, Note_off_c, 1, 62, 0
1, 151230, Note_on_c, 1, 59, 127
1, 151240, Note_off_c, 1, 56, 0
1, 151240, Note_off_c, 1, 44, 0
1, 151250, Note_off_c, 1, 59, 0
1, 151260, Note_on_c, 1, 68, 127
1, 151280, Note_off_c, 1, 68, 0
1, 151290, Note_on_c, 1, 66, 127
1, 151310, Note_off_c, 1, 66, 0
1, 151320, Note_on_c, 1, 65, 127
1, 151340, Note_off_c, 1, 65, 0
1, 151350, Note_on_c, 1, 63, 127
1, 151370, Note_off_c, 1, 63, 0
1, 151380, Note_on_c, 1, 54, 127
1, 151380, Note_on_c, 1, 42, 127
1, 151400, Note_off_c, 1, 83, 0
1, 151410, Note_on_c, 1, 81, 127
1, 151420, Note_off_c, 1, 54, 0
1, 151420, Note_off_c, 1, 42, 0
1, 151430, Note_off_c, 1, 81, 0
1, 151440, Note_on_c, 1, 57, 127
1, 151440, Note_on_c, 1, 45, 127
1, 151470, Note_on_c, 1, 78, 127
1, 151480, Note_off_c, 1, 57, 0
1, 151480, Note_off_c, 1, 45, 0
1, 151490, Note_off_c, 1, 78, 0
1, 151500, Note_on_c, 1, 77, 127
1, 151500, Note_on_c, 1, 57, 127
1, 151500, Note_on_c, 1, 61, 127
1, 151500, Note_on_c, 1, 49, 127
1, 151520, Note_off_c, 1, 77, 0
1, 151530, Note_on_c, 1, 75, 127
1, 151540, Note_off_c, 1, 61, 0
1, 151540, Note_off_c, 1, 49, 0
1, 151550, Note_off_c, 1, 75, 0
1, 151560, Note_on_c, 1, 73, 127
1, 151560, Note_on_c, 1, 59, 127
1, 151560, Note_on_c, 1, 47, 127
1, 151580, Note_off_c, 1, 73, 0
1, 151590, Note_on_c, 1, 78, 127
1, 151600, Note_off_c, 1, 59, 0
1, 151600, Note_off_c, 1, 47, 0
1, 151610, Note_off_c, 1, 78, 0
1, 151620, Note_off_c, 1, 57, 0
1, 151620, Note_on_c, 1, 56, 127
1, 151680, Note_on_c, 1, 37, 127
1, 151710, Note_on_c, 1, 71, 127
1, 151720, Note_off_c, 1, 37, 0
1, 151730, Note_off_c, 1, 71, 0
1, 151740, Note_off_c, 1, 56, 0
1, 151740, Note_on_c, 1, 69, 127
1, 151740, Note_on_c, 1, 54, 127
1, 151740, Note_on_c, 1, 50, 127
1, 151740, Note_on_c, 1, 38, 127
1, 151760, Note_off_c, 1, 69, 0
1, 151770, Note_on_c, 1, 74, 127
1, 151790, Note_off_c, 1, 74, 0
1, 151820, Note_off_c, 1, 50, 0
1, 151820, Note_off_c, 1, 38, 0
1, 151890, Note_on_c, 1, 68, 127
1, 151910, Note_off_c, 1, 68, 0
1, 151920, Note_on_c, 1, 66, 127
1, 151940, Note_off_c, 1, 66, 0
1, 151980, Note_on_c, 1, 70, 127
1, 152000, Note_off_c, 1, 70, 0
1, 152040, Note_on_c, 1, 35, 127
1, 152080, Note_off_c, 1, 35, 0
1, 152100, Note_on_c, 1, 76, 127
1, 152100, Note_on_c, 1, 46, 127
1, 152100, Note_on_c, 1, 34, 127
1, 152140, Note_off_c, 1, 46, 0
1, 152140, Note_off_c, 1, 34, 0
1, 152160, Note_on_c, 1, 42, 127
1, 152160, Note_on_c, 1, 30, 127
1, 152200, Note_off_c, 1, 42, 0
1, 152200, Note_off_c, 1, 30, 0
1, 152240, Note_off_c, 1, 76, 0
1, 152610, Note_on_c, 1, 52, 127
1, 152610, Note_on_c, 1, 40, 127
1, 152630, Note_off_c, 1, 52, 0
1, 152630, Note_off_c, 1, 40, 0
1, 152670, Note_on_c, 1, 55, 127
1, 152670, Note_on_c, 1, 43, 127
1, 152690, Note_off_c, 1, 55, 0
1, 152690, Note_off_c, 1, 43, 0
1, 152860, Note_off_c, 1, 54, 0
1, 153060, Note_on_c, 1, 71, 127
1, 153060, Note_on_c, 1, 59, 127
1, 153060, Note_on_c, 1, 44, 127
1, 153060, Note_on_c, 1, 32, 127
1, 153080, Note_off_c, 1, 71, 0
1, 153090, Note_on_c, 1, 69, 127
1, 153110, Note_off_c, 1, 69, 0
1, 153120, Note_on_c, 1, 68, 127
1, 153140, Note_off_c, 1, 44, 0
1, 153140, Note_off_c, 1, 32, 0
1, 153140, Note_off_c, 1, 68, 0
1, 153150, Note_on_c, 1, 66, 127
1, 153170, Note_off_c, 1, 66, 0
1, 153180, Note_on_c, 1, 65, 127
1, 153180, Note_on_c, 1, 49, 127
1, 153180, Note_on_c, 1, 37, 127
1, 153200, Note_off_c, 1, 59, 0
1, 153210, Note_on_c, 1, 57, 127
1, 153230, Note_off_c, 1, 57, 0
1, 153240, Note_off_c, 1, 65, 0
1, 153240, Note_on_c, 1, 56, 127
1, 153260, Note_off_c, 1, 49, 0
1, 153260, Note_off_c, 1, 37, 0
1, 153260, Note_off_c, 1, 56, 0
1, 153270, Note_on_c, 1, 61, 127
1, 153270, Note_on_c, 1, 54, 127
1, 153290, Note_off_c, 1, 61, 0
1, 153290, Note_off_c, 1, 54, 0
1, 153300, Note_on_c, 1, 71, 127
1, 153300, Note_on_c, 1, 53, 127
1, 153320, Note_off_c, 1, 53, 0
1, 153330, Note_on_c, 1, 54, 127
1, 153340, Note_off_c, 1, 71, 0
1, 153350, Note_off_c, 1, 54, 0
1, 153360, Note_on_c, 1, 56, 127
1, 153360, Note_on_c, 1, 50, 127
1, 153360, Note_on_c, 1, 38, 127
1, 153380, Note_off_c, 1, 56, 0
1, 153390, Note_on_c, 1, 57, 127
1, 153400, Note_off_c, 1, 50, 0
1, 153400, Note_off_c, 1, 38, 0
1, 153410, Note_off_c, 1, 57, 0
1, 153420, Note_on_c, 1, 59, 127
1, 153420, Note_on_c, 1, 49, 127
1, 153420, Note_on_c, 1, 37, 127
1, 153440, Note_off_c, 1, 59, 0
1, 153450, Note_on_c, 1, 61, 127
1, 153460, Note_off_c, 1, 49, 0
1, 153460, Note_off_c, 1, 37, 0
1, 153470, Note_off_c, 1, 61, 0
1, 153480, Note_on_c, 1, 63, 127
1, 153480, Note_on_c, 1, 47, 127
1, 153480, Note_on_c, 1, 35, 127
1, 153500, Note_off_c, 1, 63, 0
1, 153510, Note_on_c, 1, 65, 127
1, 153520, Note_off_c, 1, 47, 0
1, 153520, Note_off_c, 1, 35, 0
1, 153530, Note_off_c, 1, 65, 0
1, 153540, Note_on_c, 1, 66, 127
1, 153540, Note_on_c, 1, 45, 127
1, 153540, Note_on_c, 1, 33, 127
1, 153580, Note_off_c, 1, 45, 0
1, 153580, Note_off_c, 1, 33, 0
1, 153600, Note_off_c, 1, 66, 0
1, 153600, Note_on_c, 1, 61, 127
1, 153600, Note_on_c, 1, 42, 127
1, 153600, Note_on_c, 1, 30, 127
1, 153640, Note_off_c, 1, 42, 0
1, 153640, Note_off_c, 1, 30, 0
1, 153660, Note_off_c, 1, 61, 0
1, 153660, Note_on_c, 1, 59, 127
1, 153660, Note_on_c, 1, 49, 127
1, 153660, Note_on_c, 1, 37, 127
1, 153720, Note_off_c, 1, 59, 0
1, 153720, Note_on_c, 1, 57, 127
1, 153740, Note_off_c, 1, 49, 0
1, 153740, Note_off_c, 1, 37, 0
1, 153780, Note_off_c, 1, 57, 0
1, 153780, Note_on_c, 1, 56, 127
1, 153780, Note_on_c, 1, 25, 127
1, 153840, Note_off_c, 1, 56, 0
1, 153840, Note_on_c, 1, 54, 127
1, 153860, Note_off_c, 1, 25, 0
1, 153870, Note_on_c, 1, 78, 127
1, 153890, Note_off_c, 1, 78, 0
1, 153980, Note_off_c, 1, 54, 0
1, 154080, Note_on_c, 1, 76, 127
1, 154108, Note_off_c, 1, 76, 0
1, 154110, Note_on_c, 1, 74, 127
1, 154138, Note_off_c, 1, 74, 0
1, 154140, Note_on_c, 1, 73, 127
1, 154140, Note_on_c, 1, 49, 127
1, 154140, Note_on_c, 1, 37, 127
1, 154168, Note_off_c, 1, 73, 0
1, 154170, Note_on_c, 1, 71, 127
1, 154198, Note_off_c, 1, 71, 0
1, 154200, Note_on_c, 1, 69, 127
1, 154228, Note_off_c, 1, 69, 0
1, 154230, Note_on_c, 1, 68, 127
1, 154258, Note_off_c, 1, 49, 0
1, 154258, Note_off_c, 1, 37, 0
1, 154258, Note_off_c, 1, 68, 0
1, 154260, Note_on_c, 1, 69, 127
1, 154260, Note_on_c, 1, 54, 127
1, 154260, Note_on_c, 1, 42, 127
1, 154348, Note_off_c, 1, 69, 0
1, 154350, Note_on_c, 1, 66, 127
1, 154378, Note_off_c, 1, 66, 0
1, 154380, Note_on_c, 1, 72, 127
1, 154438, Note_off_c, 1, 54, 0
1, 154438, Note_off_c, 1, 42, 0
1, 154438, Note_off_c, 1, 72, 0
1, 154440, Note_on_c, 1, 56, 127
1, 154440, Note_on_c, 1, 44, 127
1, 154468, Note_off_c, 1, 56, 0
1, 154468, Note_off_c, 1, 44, 0
1, 154470, Note_on_c, 1, 57, 127
1, 154470, Note_on_c, 1, 45, 127
1, 154498, Note_off_c, 1, 57, 0
1, 154498, Note_off_c, 1, 45, 0
1, 154500, Note_on_c, 1, 56, 127
1, 154500, Note_on_c, 1, 44, 127
1, 154528, Note_off_c, 1, 56, 0
1, 154528, Note_off_c, 1, 44, 0
1, 154530, Note_on_c, 1, 54, 127
1, 154530, Note_on_c, 1, 42, 127
1, 154558, Note_off_c, 1, 54, 0
1, 154558, Note_off_c, 1, 42, 0
1, 154560, Note_on_c, 1, 53, 127
1, 154560, Note_on_c, 1, 41, 127
1, 154588, Note_off_c, 1, 53, 0
1, 154588, Note_off_c, 1, 41, 0
1, 154590, Note_on_c, 1, 73, 127
1, 154590, Note_on_c, 1, 51, 127
1, 154590, Note_on_c, 1, 39, 127
1, 154611, Note_off_c, 1, 73, 0
1, 154618, Note_off_c, 1, 51, 0
1, 154618, Note_off_c, 1, 39, 0
1, 154620, Note_on_c, 1, 73, 127
1, 154620, Note_on_c, 1, 49, 127
1, 154620, Note_on_c, 1, 37, 127
1, 154738, Note_off_c, 1, 49, 0
1, 154738, Note_off_c, 1, 37, 0
1, 154740, Note_on_c, 1, 53, 127
1, 154740, Note_on_c, 1, 41, 127
1, 154798, Note_off_c, 1, 73, 0
1, 154800, Note_on_c, 1, 71, 127
1, 154828, Note_off_c, 1, 71, 0
1, 154830, Note_on_c, 1, 69, 127
1, 154858, Note_off_c, 1, 53, 0
1, 154858, Note_off_c, 1, 41, 0
1, 154858, Note_off_c, 1, 69, 0
1, 154860, Note_on_c, 1, 68, 127
1, 154860, Note_on_c, 1, 56, 127
1, 154860, Note_on_c, 1, 44, 127
1, 154888, Note_off_c, 1, 68, 0
1, 154890, Note_on_c, 1, 66, 127
1, 154918, Note_off_c, 1, 66, 0
1, 154920, Note_on_c, 1, 65, 127
1, 154948, Note_off_c, 1, 65, 0
1, 154950, Note_on_c, 1, 63, 127
1, 154978, Note_off_c, 1, 56, 0
1, 154978, Note_off_c, 1, 44, 0
1, 154978, Note_off_c, 1, 63, 0
1, 154980, Note_on_c, 1, 65, 127
1, 154980, Note_on_c, 1, 59, 127
1, 154980, Note_on_c, 1, 47, 127
1, 155068, Note_off_c, 1, 65, 0
1, 155068, Note_on_c, 1, 68, 127
1, 155083, Note_off_c, 1, 68, 0
1, 155085, Note_on_c, 1, 71, 127
1, 155100, Note_off_c, 1, 71, 0
1, 155100, Note_on_c, 1, 74, 127
1, 155158, Note_off_c, 1, 59, 0
1, 155158, Note_off_c, 1, 47, 0
1, 155158, Note_off_c, 1, 74, 0
1, 155160, Note_on_c, 1, 61, 127
1, 155160, Note_on_c, 1, 49, 127
1, 155188, Note_off_c, 1, 61, 0
1, 155188, Note_off_c, 1, 49, 0
1, 155190, Note_on_c, 1, 62, 127
1, 155190, Note_on_c, 1, 50, 127
1, 155218, Note_off_c, 1, 62, 0
1, 155218, Note_off_c, 1, 50, 0
1, 155220, Note_on_c, 1, 61, 127
1, 155220, Note_on_c, 1, 49, 127
1, 155248, Note_off_c, 1, 61, 0
1, 155248, Note_off_c, 1, 49, 0
1, 155250, Note_on_c, 1, 74, 127
1, 155250, Note_on_c, 1, 59, 127
1, 155250, Note_on_c, 1, 47, 127
1, 155278, Note_off_c, 1, 74, 0
1, 155278, Note_off_c, 1, 59, 0
1, 155278, Note_off_c, 1, 47, 0
1, 155280, Note_on_c, 1, 73, 127
1, 155280, Note_on_c, 1, 57, 127
1, 155280, Note_on_c, 1, 45, 127
1, 155308, Note_off_c, 1, 73, 0
1, 155308, Note_off_c, 1, 57, 0
1, 155308, Note_off_c, 1, 45, 0
1, 155310, Note_on_c, 1, 71, 127
1, 155310, Note_on_c, 1, 56, 127
1, 155310, Note_on_c, 1, 44, 127
1, 155338, Note_off_c, 1, 71, 0
1, 155338, Note_off_c, 1, 56, 0
1, 155338, Note_off_c, 1, 44, 0
1, 155340, Note_on_c, 1, 69, 127
1, 155340, Note_on_c, 1, 54, 127
1, 155340, Note_on_c, 1, 42, 127
1, 155390, Note_off_c, 1, 69, 0
1, 155400, Note_on_c, 1, 73, 127
1, 155420, Note_off_c, 1, 54, 0
1, 155420, Note_off_c, 1, 42, 0
1, 155428, Note_off_c, 1, 73, 0
1, 155430, Note_on_c, 1, 69, 127
1, 155458, Note_off_c, 1, 69, 0
1, 155460, Note_on_c, 1, 68, 127
1, 155460, Note_on_c, 1, 52, 127
1, 155460, Note_on_c, 1, 40, 127
1, 155510, Note_off_c, 1, 68, 0
1, 155520, Note_on_c, 1, 73, 127
1, 155540, Note_off_c, 1, 52, 0
1, 155540, Note_off_c, 1, 40, 0
1, 155548, Note_off_c, 1, 73, 0
1, 155550, Note_on_c, 1, 68, 127
1, 155578, Note_off_c, 1, 68, 0
1, 155580, Note_on_c, 1, 66, 127
1, 155580, Note_on_c, 1, 50, 127
1, 155580, Note_on_c, 1, 38, 127
1, 155630, Note_off_c, 1, 66, 0
1, 155640, Note_on_c, 1, 74, 127
1, 155660, Note_off_c, 1, 50, 0
1, 155660, Note_off_c, 1, 38, 0
1, 155668, Note_off_c, 1, 74, 0
1, 155670, Note_on_c, 1, 66, 127
1, 155698, Note_off_c, 1, 66, 0
1, 155700, Note_on_c, 1, 65, 127
1, 155700, Note_on_c, 1, 49, 127
1, 155700, Note_on_c, 1, 37, 127
1, 155740, Note_off_c, 1, 49, 0
1, 155740, Note_off_c, 1, 37, 0
1, 155758, Note_off_c, 1, 65, 0
1, 155760, Note_on_c, 1, 61, 127
1, 155760, Note_on_c, 1, 53, 127
1, 155760, Note_on_c, 1, 41, 127
1, 155780, Note_off_c, 1, 53, 0
1, 155780, Note_off_c, 1, 41, 0
1, 155790, Note_on_c, 1, 56, 127
1, 155790, Note_on_c, 1, 44, 127
1, 155810, Note_off_c, 1, 56, 0
1, 155810, Note_off_c, 1, 44, 0
1, 155818, Note_off_c, 1, 61, 0
1, 155820, Note_on_c, 1, 61, 127
1, 155820, Note_on_c, 1, 49, 127
1, 155860, Note_off_c, 1, 61, 0
1, 155860, Note_off_c, 1, 49, 0
1, 155880, Note_on_c, 1, 49, 127
1, 155880, Note_on_c, 1, 37, 127
1, 155900, Note_off_c, 1, 49, 0
1, 155900, Note_off_c, 1, 37, 0
1, 155910, Note_on_c, 1, 61, 127
1, 155910, Note_on_c, 1, 49, 127
1, 155930, Note_off_c, 1, 61, 0
1, 155930, Note_off_c, 1, 49, 0
1, 155940, Note_on_c, 1, 59, 127
1, 155940, Note_on_c, 1, 47, 127
1, 155970, Note_on_c, 1, 61, 127
1, 155980, Note_off_c, 1, 59, 0
1, 155980, Note_off_c, 1, 47, 0
1, 155990, Note_off_c, 1, 61, 0
1, 156000, Note_on_c, 1, 65, 127
1, 156000, Note_on_c, 1, 49, 127
1, 156000, Note_on_c, 1, 37, 127
1, 156020, Note_off_c, 1, 65, 0
1, 156020, Note_off_c, 1, 49, 0
1, 156020, Note_off_c, 1, 37, 0
1, 156030, Note_on_c, 1, 68, 127
1, 156030, Note_on_c, 1, 59, 127
1, 156030, Note_on_c, 1, 47, 127
1, 156050, Note_off_c, 1, 68, 0
1, 156050, Note_off_c, 1, 59, 0
1, 156050, Note_off_c, 1, 47, 0
1, 156060, Note_on_c, 1, 73, 127
1, 156060, Note_on_c, 1, 57, 127
1, 156060, Note_on_c, 1, 45, 127
1, 156080, Note_off_c, 1, 73, 0
1, 156090, Note_on_c, 1, 71, 127
1, 156100, Note_off_c, 1, 57, 0
1, 156100, Note_off_c, 1, 45, 0
1, 156110, Note_off_c, 1, 71, 0
1, 156120, Note_on_c, 1, 69, 127
1, 156120, Note_on_c, 1, 49, 127
1, 156120, Note_on_c, 1, 37, 127
1, 156140, Note_off_c, 1, 69, 0
1, 156140, Note_off_c, 1, 49, 0
1, 156140, Note_off_c, 1, 37, 0
1, 156150, Note_on_c, 1, 73, 127
1, 156150, Note_on_c, 1, 57, 127
1, 156150, Note_on_c, 1, 45, 127
1, 156170, Note_off_c, 1, 73, 0
1, 156170, Note_off_c, 1, 57, 0
1, 156170, Note_off_c, 1, 45, 0
1, 156180, Note_on_c, 1, 71, 127
1, 156180, Note_on_c, 1, 56, 127
1, 156180, Note_on_c, 1, 44, 127
1, 156200, Note_off_c, 1, 71, 0
1, 156210, Note_on_c, 1, 69, 127
1, 156220, Note_off_c, 1, 56, 0
1, 156220, Note_off_c, 1, 44, 0
1, 156230, Note_off_c, 1, 69, 0
1, 156240, Note_on_c, 1, 68, 127
1, 156240, Note_on_c, 1, 49, 127
1, 156240, Note_on_c, 1, 37, 127
1, 156260, Note_off_c, 1, 68, 0
1, 156260, Note_off_c, 1, 49, 0
1, 156260, Note_off_c, 1, 37, 0
1, 156270, Note_on_c, 1, 71, 127
1, 156270, Note_on_c, 1, 56, 127
1, 156270, Note_on_c, 1, 44, 127
1, 156290, Note_off_c, 1, 71, 0
1, 156290, Note_off_c, 1, 56, 0
1, 156290, Note_off_c, 1, 44, 0
1, 156300, Note_on_c, 1, 69, 127
1, 156300, Note_on_c, 1, 54, 127
1, 156300, Note_on_c, 1, 42, 127
1, 156320, Note_off_c, 1, 69, 0
1, 156330, Note_on_c, 1, 68, 127
1, 156340, Note_off_c, 1, 54, 0
1, 156340, Note_off_c, 1, 42, 0
1, 156350, Note_off_c, 1, 68, 0
1, 156360, Note_on_c, 1, 66, 127
1, 156360, Note_on_c, 1, 49, 127
1, 156360, Note_on_c, 1, 37, 127
1, 156380, Note_off_c, 1, 66, 0
1, 156380, Note_off_c, 1, 49, 0
1, 156380, Note_off_c, 1, 37, 0
1, 156390, Note_on_c, 1, 69, 127
1, 156390, Note_on_c, 1, 54, 127
1, 156390, Note_on_c, 1, 42, 127
1, 156410, Note_off_c, 1, 69, 0
1, 156410, Note_off_c, 1, 54, 0
1, 156410, Note_off_c, 1, 42, 0
1, 156420, Note_on_c, 1, 68, 127
1, 156420, Note_on_c, 1, 53, 127
1, 156420, Note_on_c, 1, 41, 127
1, 156440, Note_off_c, 1, 68, 0
1, 156450, Note_on_c, 1, 66, 127
1, 156470, Note_off_c, 1, 66, 0
1, 156480, Note_on_c, 1, 65, 127
1, 156500, Note_off_c, 1, 65, 0
1, 156510, Note_on_c, 1, 63, 127
1, 156530, Note_off_c, 1, 63, 0
1, 156540, Note_on_c, 1, 61, 127
1, 156568, Note_off_c, 1, 53, 0
1, 156568, Note_off_c, 1, 41, 0
1, 156570, Note_on_c, 1, 49, 127
1, 156570, Note_on_c, 1, 37, 127
1, 156598, Note_off_c, 1, 49, 0
1, 156598, Note_off_c, 1, 37, 0
1, 156600, Note_on_c, 1, 51, 127
1, 156600, Note_on_c, 1, 39, 127
1, 156620, Note_off_c, 1, 61, 0
1, 156628, Note_off_c, 1, 51, 0
1, 156628, Note_off_c, 1, 39, 0
1, 156630, Note_on_c, 1, 53, 127
1, 156630, Note_on_c, 1, 41, 127
1, 156658, Note_off_c, 1, 53, 0
1, 156658, Note_off_c, 1, 41, 0
1, 156660, Note_on_c, 1, 54, 127
1, 156660, Note_on_c, 1, 42, 127
1, 156688, Note_off_c, 1, 54, 0
1, 156688, Note_off_c, 1, 42, 0
1, 156690, Note_on_c, 1, 56, 127
1, 156690, Note_on_c, 1, 44, 127
1, 156718, Note_off_c, 1, 56, 0
1, 156718, Note_off_c, 1, 44, 0
1, 156720, Note_on_c, 1, 61, 127
1, 156720, Note_on_c, 1, 57, 127
1, 156720, Note_on_c, 1, 45, 127
1, 156748, Note_off_c, 1, 57, 0
1, 156748, Note_off_c, 1, 45, 0
1, 156750, Note_on_c, 1, 54, 127
1, 156750, Note_on_c, 1, 42, 127
1, 156778, Note_off_c, 1, 61, 0
1, 156778, Note_off_c, 1, 54, 0
1, 156778, Note_off_c, 1, 42, 0
1, 156780, Note_on_c, 1, 63, 127
1, 156780, Note_on_c, 1, 47, 127
1, 156780, Note_on_c, 1, 35, 127
1, 156808, Note_off_c, 1, 63, 0
1, 156810, Note_on_c, 1, 61, 127
1, 156838, Note_off_c, 1, 61, 0
1, 156870, Note_on_c, 1, 65, 127
1, 156898, Note_off_c, 1, 47, 0
1, 156898, Note_off_c, 1, 35, 0
1, 156898, Note_off_c, 1, 65, 0
1, 156900, Note_on_c, 1, 66, 127
1, 156928, Note_off_c, 1, 66, 0
1, 156930, Note_on_c, 1, 65, 127
1, 156958, Note_off_c, 1, 65, 0
1, 156960, Note_on_c, 1, 66, 127
1, 156988, Note_off_c, 1, 66, 0
1, 156990, Note_on_c, 1, 68, 127
1, 157018, Note_off_c, 1, 68, 0
1, 157020, Note_on_c, 1, 69, 127
1, 157048, Note_off_c, 1, 69, 0
1, 157050, Note_on_c, 1, 68, 127
1, 157078, Note_off_c, 1, 68, 0
1, 157080, Note_on_c, 1, 69, 127
1, 157108, Note_off_c, 1, 69, 0
1, 157110, Note_on_c, 1, 71, 127
1, 157138, Note_off_c, 1, 71, 0
1, 157140, Note_on_c, 1, 65, 127
1, 157140, Note_on_c, 1, 49, 127
1, 157140, Note_on_c, 1, 37, 127
1, 157168, Note_off_c, 1, 65, 0
1, 157170, Note_on_c, 1, 63, 127
1, 157198, Note_off_c, 1, 63, 0
1, 157220, Note_off_c, 1, 49, 0
1, 157220, Note_off_c, 1, 37, 0
1, 157230, Note_on_c, 1, 66, 127
1, 157258, Note_off_c, 1, 66, 0
1, 157260, Note_on_c, 1, 68, 127
1, 157288, Note_off_c, 1, 68, 0
1, 157290, Note_on_c, 1, 66, 127
1, 157318, Note_off_c, 1, 66, 0
1, 157320, Note_on_c, 1, 68, 127
1, 157348, Note_off_c, 1, 68, 0
1, 157350, Note_on_c, 1, 69, 127
1, 157378, Note_off_c, 1, 69, 0
1, 157380, Note_on_c, 1, 71, 127
1, 157408, Note_off_c, 1, 71, 0
1, 157410, Note_on_c, 1, 69, 127
1, 157438, Note_off_c, 1, 69, 0
1, 157440, Note_on_c, 1, 71, 127
1, 157468, Note_off_c, 1, 71, 0
1, 157470, Note_on_c, 1, 73, 127
1, 157498, Note_off_c, 1, 73, 0
1, 157500, Note_on_c, 1, 66, 127
1, 157500, Note_on_c, 1, 50, 127
1, 157500, Note_on_c, 1, 38, 127
1, 157528, Note_off_c, 1, 66, 0
1, 157530, Note_on_c, 1, 65, 127
1, 157558, Note_off_c, 1, 65, 0
1, 157580, Note_off_c, 1, 50, 0
1, 157580, Note_off_c, 1, 38, 0
1, 157590, Note_on_c, 1, 68, 127
1, 157618, Note_off_c, 1, 68, 0
1, 157620, Note_on_c, 1, 69, 127
1, 157648, Note_off_c, 1, 69, 0
1, 157650, Note_on_c, 1, 68, 127
1, 157678, Note_off_c, 1, 68, 0
1, 157680, Note_on_c, 1, 69, 127
1, 157708, Note_off_c, 1, 69, 0
1, 157710, Note_on_c, 1, 71, 127
1, 157738, Note_off_c, 1, 71, 0
1, 157740, Note_on_c, 1, 73, 127
1, 157768, Note_off_c, 1, 73, 0
1, 157770, Note_on_c, 1, 71, 127
1, 157798, Note_off_c, 1, 71, 0
1, 157800, Note_on_c, 1, 73, 127
1, 157828, Note_off_c, 1, 73, 0
1, 157830, Note_on_c, 1, 74, 127
1, 157858, Note_off_c, 1, 74, 0
1, 157860, Note_on_c, 1, 74, 127
1, 157860, Note_on_c, 1, 41, 127
1, 157860, Note_on_c, 1, 29, 127
1, 157900, Note_off_c, 1, 74, 0
1, 157920, Note_off_c, 1, 41, 0
1, 157920, Note_off_c, 1, 29, 0
1, 157920, Note_on_c, 1, 73, 127
1, 157950, Note_on_c, 1, 44, 127
1, 157950, Note_on_c, 1, 32, 127
1, 157960, Note_off_c, 1, 44, 0
1, 157960, Note_off_c, 1, 32, 0
1, 157965, Note_on_c, 1, 45, 127
1, 157965, Note_on_c, 1, 33, 127
1, 157975, Note_off_c, 1, 45, 0
1, 157975, Note_off_c, 1, 33, 0
1, 157980, Note_on_c, 1, 47, 127
1, 157980, Note_on_c, 1, 35, 127
1, 158000, Note_off_c, 1, 73, 0
1, 158020, Note_off_c, 1, 47, 0
1, 158020, Note_off_c, 1, 35, 0
1, 158040, Note_on_c, 1, 71, 127
1, 158068, Note_off_c, 1, 71, 0
1, 158070, Note_on_c, 1, 69, 127
1, 158098, Note_off_c, 1, 69, 0
1, 158100, Note_on_c, 1, 68, 127
1, 158128, Note_off_c, 1, 68, 0
1, 158130, Note_on_c, 1, 66, 127
1, 158158, Note_off_c, 1, 66, 0
1, 158160, Note_on_c, 1, 65, 127
1, 158160, Note_on_c, 1, 44, 127
1, 158160, Note_on_c, 1, 32, 127
1, 158188, Note_off_c, 1, 65, 0
1, 158190, Note_on_c, 1, 68, 127
1, 158200, Note_off_c, 1, 44, 0
1, 158200, Note_off_c, 1, 32, 0
1, 158218, Note_off_c, 1, 68, 0
1, 158220, Note_on_c, 1, 61, 127
1, 158220, Note_on_c, 1, 45, 127
1, 158220, Note_on_c, 1, 33, 127
1, 158280, Note_off_c, 1, 45, 0
1, 158280, Note_off_c, 1, 33, 0
1, 158308, Note_off_c, 1, 61, 0
1, 158310, Note_on_c, 1, 66, 127
1, 158310, Note_on_c, 1, 47, 127
1, 158310, Note_on_c, 1, 35, 127
1, 158330, Note_off_c, 1, 47, 0
1, 158330, Note_off_c, 1, 35, 0
1, 158338, Note_off_c, 1, 66, 0
1, 158340, Note_on_c, 1, 57, 127
1, 158340, Note_on_c, 1, 49, 127
1, 158340, Note_on_c, 1, 37, 127
1, 158380, Note_off_c, 1, 57, 0
1, 158400, Note_on_c, 1, 56, 127
1, 158420, Note_off_c, 1, 49, 0
1, 158420, Note_off_c, 1, 37, 0
1, 158440, Note_off_c, 1, 56, 0
1, 158460, Note_on_c, 1, 56, 127
1, 158460, Note_on_c, 1, 37, 127
1, 158460, Note_on_c, 1, 25, 127
1, 158500, Note_off_c, 1, 56, 0
1, 158520, Note_on_c, 1, 65, 127
1, 158540, Note_off_c, 1, 37, 0
1, 158540, Note_off_c, 1, 25, 0
1, 158560, Note_off_c, 1, 65, 0
1, 158580, Note_on_c, 1, 66, 127
1, 158580, Note_on_c, 1, 42, 127
1, 158580, Note_on_c, 1, 30, 127
1, 158660, Note_off_c, 1, 66, 0
1, 158660, Note_off_c, 1, 42, 0
1, 158660, Note_off_c, 1, 30, 0
1, 159300, Note_on_c, 1, 76, 127
1, 159300, Note_on_c, 1, 68, 127
1, 159300, Note_on_c, 1, 52, 127
1, 159300, Note_on_c, 1, 40, 127
1, 159330, Note_off_c, 1, 76, 0
1, 159330, Note_off_c, 1, 68, 0
1, 159330, Note_on_c, 1, 78, 127
1, 159330, Note_on_c, 1, 69, 127
1, 159360, Note_off_c, 1, 52, 0
1, 159360, Note_off_c, 1, 40, 0
1, 159360, Note_off_c, 1, 78, 0
1, 159360, Note_off_c, 1, 69, 0
1, 159360, Note_on_c, 1, 80, 127
1, 159360, Note_on_c, 1, 71, 127
1, 159420, Note_on_c, 1, 47, 127
1, 159420, Note_on_c, 1, 35, 127
1, 159450, Note_off_c, 1, 80, 0
1, 159450, Note_off_c, 1, 71, 0
1, 159450, Note_on_c, 1, 81, 127
1, 159450, Note_on_c, 1, 73, 127
1, 159480, Note_off_c, 1, 47, 0
1, 159480, Note_off_c, 1, 35, 0
1, 159480, Note_off_c, 1, 81, 0
1, 159480, Note_off_c, 1, 73, 0
1, 159540, Note_on_c, 1, 28, 127
1, 159600, Note_off_c, 1, 28, 0
1, 159720, Note_on_c, 1, 75, 127
1, 159720, Note_on_c, 1, 66, 127
1, 159780, Note_off_c, 1, 75, 0
1, 159780, Note_off_c, 1, 66, 0
1, 159900, Note_on_c, 1, 83, 127
1, 159900, Note_on_c, 1, 41, 127
1, 159900, Note_on_c, 1, 29, 127
1, 159930, Note_on_c, 1, 86, 127
1, 159960, Note_off_c, 1, 83, 0
1, 159960, Note_off_c, 1, 41, 0
1, 159960, Note_off_c, 1, 29, 0
1, 159960, Note_off_c, 1, 86, 0
1, 159960, Note_on_c, 1, 85, 127
1, 160020, Note_off_c, 1, 85, 0
1, 160020, Note_on_c, 1, 42, 127
1, 160020, Note_on_c, 1, 30, 127
1, 160080, Note_off_c, 1, 42, 0
1, 160080, Note_off_c, 1, 30, 0
1, 160140, Note_on_c, 1, 37, 127
1, 160140, Note_on_c, 1, 25, 127
1, 160200, Note_off_c, 1, 37, 0
1, 160200, Note_off_c, 1, 25, 0
1, 160260, Note_on_c, 1, 78, 127
1, 160260, Note_on_c, 1, 69, 127
1, 160260, Note_on_c, 1, 42, 127
1, 160260, Note_on_c, 1, 30, 127
1, 160290, Note_off_c, 1, 78, 0
1, 160290, Note_off_c, 1, 69, 0
1, 160290, Note_on_c, 1, 80, 127
1, 160290, Note_on_c, 1, 71, 127
1, 160320, Note_off_c, 1, 42, 0
1, 160320, Note_off_c, 1, 30, 0
1, 160320, Note_off_c, 1, 80, 0
1, 160320, Note_off_c, 1, 71, 0
1, 160320, Note_on_c, 1, 81, 127
1, 160320, Note_on_c, 1, 73, 127
1, 160380, Note_on_c, 1, 49, 127
1, 160380, Note_on_c, 1, 37, 127
1, 160410, Note_off_c, 1, 81, 0
1, 160410, Note_off_c, 1, 73, 0
1, 160410, Note_on_c, 1, 83, 127
1, 160410, Note_on_c, 1, 74, 127
1, 160440, Note_off_c, 1, 49, 0
1, 160440, Note_off_c, 1, 37, 0
1, 160440, Note_off_c, 1, 83, 0
1, 160440, Note_off_c, 1, 74, 0
1, 160500, Note_on_c, 1, 54, 127
1, 160560, Note_off_c, 1, 54, 0
1, 160680, Note_on_c, 1, 77, 127
1, 160680, Note_on_c, 1, 68, 127
1, 160740, Note_off_c, 1, 77, 0
1, 160740, Note_off_c, 1, 68, 0
1, 160860, Note_on_c, 1, 85, 127
1, 160860, Note_on_c, 1, 51, 127
1, 160860, Note_on_c, 1, 39, 127
1, 160890, Note_off_c, 1, 85, 0
1, 160920, Note_off_c, 1, 51, 0
1, 160920, Note_off_c, 1, 39, 0
1, 160980, Note_on_c, 1, 52, 127
1, 160980, Note_on_c, 1, 40, 127
1, 161040, Note_off_c, 1, 52, 0
1, 161040, Note_off_c, 1, 40, 0
1, 161040, Note_on_c, 1, 76, 127
1, 161040, Note_on_c, 1, 47, 127
1, 161040, Note_on_c, 1, 35, 127
1, 161100, Note_off_c, 1, 76, 0
1, 161100, Note_off_c, 1, 47, 0
1, 161100, Note_off_c, 1, 35, 0
1, 161100, Note_on_c, 1, 44, 127
1, 161100, Note_on_c, 1, 32, 127
1, 161160, Note_off_c, 1, 44, 0
1, 161160, Note_off_c, 1, 32, 0
1, 161220, Note_on_c, 1, 28, 127
1, 161280, Note_off_c, 1, 28, 0
1, 161280, Note_on_c, 1, 56, 127
1, 161340, Note_off_c, 1, 56, 0
1, 161460, Note_on_c, 1, 57, 127
1, 161460, Note_on_c, 1, 45, 127
1, 161490, Note_on_c, 1, 86, 127
1, 161520, Note_off_c, 1, 57, 0
1, 161520, Note_off_c, 1, 45, 0
1, 161520, Note_off_c, 1, 86, 0
1, 161520, Note_on_c, 1, 61, 127
1, 161580, Note_off_c, 1, 61, 0
1, 161700, Note_on_c, 1, 75, 127
1, 161700, Note_on_c, 1, 59, 127
1, 161760, Note_off_c, 1, 75, 0
1, 161760, Note_off_c, 1, 59, 0
1, 162000, Note_on_c, 1, 64, 127
1, 162060, Note_off_c, 1, 64, 0
1, 162180, Note_on_c, 1, 33, 127
1, 162240, Note_off_c, 1, 33, 0
1, 162690, Note_on_c, 1, 66, 127
1, 162720, Note_off_c, 1, 66, 0
1, 163080, Note_on_c, 1, 63, 127
1, 163140, Note_off_c, 1, 63, 0
1, 163260, Note_on_c, 1, 41, 127
1, 163260, Note_on_c, 1, 29, 127
1, 163320, Note_off_c, 1, 41, 0
1, 163320, Note_off_c, 1, 29, 0
1, 163320, Note_on_c, 1, 65, 127
1, 163380, Note_off_c, 1, 65, 0
1, 163500, Note_on_c, 1, 25, 127
1, 163560, Note_off_c, 1, 25, 0
1, 164790, Note_on_c, 1, 62, 127
1, 164820, Note_off_c, 1, 62, 0
1, 165600, Note_on_c, 1, 70, 127
1, 165660, Note_off_c, 1, 70, 0
1, 165660, Note_on_c, 1, 82, 127
1, 165720, Note_off_c, 1, 82, 0
1, 165900, Note_on_c, 1, 46, 127
1, 165900, Note_on_c, 1, 34, 127
1, 165960, Note_off_c, 1, 46, 0
1, 165960, Note_off_c, 1, 34, 0
1, 166080, Note_on_c, 1, 87, 127
1, 166140, Note_off_c, 1, 87, 0
1, 166320, Note_on_c, 1, 88, 127
1, 166380, Note_off_c, 1, 88, 0
1, 166560, Note_on_c, 1, 90, 127
1, 166620, Note_off_c, 1, 90, 0
1, 166770, Note_on_c, 1, 58, 127
1, 166800, Note_off_c, 1, 58, 0
1, 167580, Note_on_c, 1, 48, 127
1, 167580, Note_on_c, 1, 36, 127
1, 167640, Note_off_c, 1, 48, 0
1, 167640, Note_off_c, 1, 36, 0
1, 167700, Note_on_c, 1, 87, 127
1, 167700, Note_on_c, 1, 78, 127
1, 167700, Note_on_c, 1, 49, 127
1, 167700, Note_on_c, 1, 37, 127
1, 167707, Note_off_c, 1, 87, 0
1, 167707, Note_off_c, 1, 78, 0
1, 167707, Note_on_c, 1, 88, 127
1, 167707, Note_on_c, 1, 80, 127
1, 167714, Note_off_c, 1, 88, 0
1, 167714, Note_off_c, 1, 80, 0
1, 167760, Note_off_c, 1, 49, 0
1, 167760, Note_off_c, 1, 37, 0
1, 167760, Note_on_c, 1, 85, 127
1, 167760, Note_on_c, 1, 76, 127
1, 167820, Note_off_c, 1, 85, 0
1, 167820, Note_off_c, 1, 76, 0
1, 167820, Note_on_c, 1, 56, 127
1, 167820, Note_on_c, 1, 44, 127
1, 167880, Note_off_c, 1, 56, 0
1, 167880, Note_off_c, 1, 44, 0
1, 167940, Note_on_c, 1, 76, 127
1, 167940, Note_on_c, 1, 73, 127
1, 167940, Note_on_c, 1, 61, 127
1, 167940, Note_on_c, 1, 49, 127
1, 167970, Note_off_c, 1, 76, 0
1, 167970, Note_off_c, 1, 73, 0
1, 167970, Note_on_c, 1, 78, 127
1, 167970, Note_on_c, 1, 75, 127
1, 168000, Note_off_c, 1, 61, 0
1, 168000, Note_off_c, 1, 49, 0
1, 168000, Note_off_c, 1, 78, 0
1, 168000, Note_off_c, 1, 75, 0
1, 168000, Note_on_c, 1, 80, 127
1, 168060, Note_on_c, 1, 56, 127
1, 168060, Note_on_c, 1, 44, 127
1, 168090, Note_off_c, 1, 80, 0
1, 168090, Note_on_c, 1, 81, 127
1, 168120, Note_off_c, 1, 56, 0
1, 168120, Note_off_c, 1, 44, 0
1, 168120, Note_off_c, 1, 81, 0
1, 168180, Note_on_c, 1, 37, 127
1, 168240, Note_off_c, 1, 37, 0
1, 168360, Note_on_c, 1, 72, 127
1, 168420, Note_off_c, 1, 72, 0
1, 168480, Note_on_c, 1, 85, 127
1, 168510, Note_off_c, 1, 85, 0
1, 168510, Note_on_c, 1, 87, 127
1, 168540, Note_off_c, 1, 87, 0
1, 168540, Note_on_c, 1, 88, 127
1, 168540, Note_on_c, 1, 58, 127
1, 168540, Note_on_c, 1, 46, 127
1, 168570, Note_off_c, 1, 88, 0
1, 168600, Note_off_c, 1, 58, 0
1, 168600, Note_off_c, 1, 46, 0
1, 168660, Note_on_c, 1, 59, 127
1, 168660, Note_on_c, 1, 47, 127
1, 168720, Note_off_c, 1, 59, 0
1, 168720, Note_off_c, 1, 47, 0
1, 168720, Note_on_c, 1, 83, 127
1, 168720, Note_on_c, 1, 54, 127
1, 168720, Note_on_c, 1, 42, 127
1, 168780, Note_off_c, 1, 83, 0
1, 168780, Note_off_c, 1, 54, 0
1, 168780, Note_off_c, 1, 42, 0
1, 168780, Note_on_c, 1, 51, 127
1, 168780, Note_on_c, 1, 39, 127
1, 168840, Note_off_c, 1, 51, 0
1, 168840, Note_off_c, 1, 39, 0
1, 168900, Note_on_c, 1, 71, 127
1, 168900, Note_on_c, 1, 63, 127
1, 168900, Note_on_c, 1, 35, 127
1, 168930, Note_off_c, 1, 63, 0
1, 168930, Note_on_c, 1, 64, 127
1, 168937, Note_off_c, 1, 71, 0
1, 168960, Note_off_c, 1, 35, 0
1, 168960, Note_off_c, 1, 64, 0
1, 168960, Note_on_c, 1, 66, 127
1, 169020, Note_on_c, 1, 32, 127
1, 169050, Note_off_c, 1, 66, 0
1, 169050, Note_on_c, 1, 69, 127
1, 169080, Note_off_c, 1, 32, 0
1, 169080, Note_off_c, 1, 69, 0
1, 169080, Note_on_c, 1, 77, 127
1, 169080, Note_on_c, 1, 68, 127
1, 169140, Note_off_c, 1, 77, 0
1, 169140, Note_off_c, 1, 68, 0
1, 169140, Note_on_c, 1, 30, 127
1, 169200, Note_off_c, 1, 30, 0
1, 169320, Note_on_c, 1, 74, 127
1, 169500, Note_on_c, 1, 52, 127
1, 169500, Note_on_c, 1, 40, 127
1, 169560, Note_off_c, 1, 52, 0
1, 169560, Note_off_c, 1, 40, 0
1, 169620, Note_on_c, 1, 57, 127
1, 169620, Note_on_c, 1, 45, 127
1, 169680, Note_off_c, 1, 74, 0
1, 169680, Note_off_c, 1, 57, 0
1, 169680, Note_off_c, 1, 45, 0
1, 169860, Note_on_c, 1, 81, 127
1, 169860, Note_on_c, 1, 73, 127
1, 169860, Note_on_c, 1, 45, 127
1, 169860, Note_on_c, 1, 33, 127
1, 169860, Note_on_c, 1, 57, 127
1, 169890, Note_on_c, 1, 71, 127
1, 169920, Note_off_c, 1, 81, 0
1, 169920, Note_off_c, 1, 33, 0
1, 169920, Note_off_c, 1, 71, 0
1, 169920, Note_on_c, 1, 85, 127
1, 169920, Note_on_c, 1, 76, 127
1, 169920, Note_on_c, 1, 69, 127
1, 169920, Note_on_c, 1, 64, 127
1, 169980, Note_off_c, 1, 73, 0
1, 169980, Note_off_c, 1, 85, 0
1, 169980, Note_off_c, 1, 76, 0
1, 169980, Note_off_c, 1, 64, 0
1, 170010, Note_off_c, 1, 69, 0
1, 170010, Note_on_c, 1, 68, 127
1, 170040, Note_off_c, 1, 68, 0
1, 170040, Note_on_c, 1, 66, 127
1, 170100, Note_off_c, 1, 66, 0
1, 170130, Note_on_c, 1, 63, 127
1, 170160, Note_on_c, 1, 78, 127
1, 170160, Note_on_c, 1, 83, 127
1, 170160, Note_on_c, 1, 75, 127
1, 170218, Note_off_c, 1, 78, 0
1, 170220, Note_off_c, 1, 63, 0
1, 170220, Note_off_c, 1, 83, 0
1, 170220, Note_off_c, 1, 75, 0
1, 170280, Note_on_c, 1, 59, 127
1, 170340, Note_off_c, 1, 45, 0
1, 170340, Note_off_c, 1, 57, 0
1, 170340, Note_off_c, 1, 59, 0
1, 170340, Note_on_c, 1, 44, 127
1, 170340, Note_on_c, 1, 32, 127
1, 170340, Note_on_c, 1, 56, 127
1, 170400, Note_off_c, 1, 32, 0
1, 170520, Note_on_c, 1, 80, 127
1, 170578, Note_off_c, 1, 80, 0
1, 170580, Note_off_c, 1, 56, 0
1, 170580, Note_on_c, 1, 54, 127
1, 170640, Note_off_c, 1, 54, 0
1, 170640, Note_on_c, 1, 61, 127
1, 170670, Note_off_c, 1, 61, 0
1, 170700, Note_on_c, 1, 52, 127
1, 170760, Note_off_c, 1, 52, 0
1, 170820, Note_off_c, 1, 44, 0
1, 170820, Note_on_c, 1, 42, 127
1, 170820, Note_on_c, 1, 30, 127
1, 170880, Note_off_c, 1, 30, 0
1, 170940, Note_off_c, 1, 42, 0
1, 170940, Note_on_c, 1, 40, 127
1, 170940, Note_on_c, 1, 28, 127
1, 171000, Note_off_c, 1, 28, 0
1, 171060, Note_off_c, 1, 40, 0
1, 171060, Note_on_c, 1, 39, 127
1, 171060, Note_on_c, 1, 27, 127
1, 171120, Note_off_c, 1, 27, 0
1, 171120, Note_on_c, 1, 90, 127
1, 171120, Note_on_c, 1, 51, 127
1, 171180, Note_off_c, 1, 39, 0
1, 171180, Note_off_c, 1, 90, 0
1, 171180, Note_on_c, 1, 35, 127
1, 171180, Note_on_c, 1, 23, 127
1, 171240, Note_off_c, 1, 51, 0
1, 171240, Note_off_c, 1, 23, 0
1, 171240, Note_on_c, 1, 87, 127
1, 171240, Note_on_c, 1, 47, 127
1, 171300, Note_off_c, 1, 35, 0
1, 171300, Note_off_c, 1, 87, 0
1, 171300, Note_off_c, 1, 47, 0
1, 172380, Note_on_c, 1, 37, 127
1, 172380, Note_on_c, 1, 25, 127
1, 172440, Note_off_c, 1, 25, 0
1, 172440, Note_on_c, 1, 49, 127
1, 172500, Note_off_c, 1, 37, 0
1, 172500, Note_off_c, 1, 49, 0
1, 173100, Note_on_c, 1, 46, 127
1, 173100, Note_on_c, 1, 34, 127
1, 173160, Note_off_c, 1, 46, 0
1, 173160, Note_off_c, 1, 34, 0
1, 173160, Note_on_c, 1, 48, 127
1, 173160, Note_on_c, 1, 36, 127
1, 173220, Note_off_c, 1, 48, 0
1, 173220, Note_off_c, 1, 36, 0
1, 173490, Note_on_c, 1, 74, 127
1, 173520, Note_off_c, 1, 74, 0
1, 174060, Note_on_c, 1, 88, 127
1, 174150, Note_on_c, 1, 62, 127
1, 174180, Note_off_c, 1, 62, 0
1, 174210, Note_off_c, 1, 88, 0
1, 175170, Note_on_c, 1, 86, 127
1, 175200, Note_off_c, 1, 86, 0
1, 175230, Note_on_c, 1, 65, 127
1, 175260, Note_off_c, 1, 65, 0
1, 175560, Note_on_c, 1, 59, 127
1, 175620, Note_off_c, 1, 59, 0
1, 175620, Note_on_c, 1, 67, 127
1, 175650, Note_off_c, 1, 67, 0
1, 175650, Note_on_c, 1, 66, 127
1, 175680, Note_off_c, 1, 66, 0
1, 175740, Note_on_c, 1, 46, 127
1, 175740, Note_on_c, 1, 34, 127
1, 175740, Note_on_c, 1, 61, 127
1, 175740, Note_on_c, 1, 64, 127
1, 175800, Note_off_c, 1, 46, 0
1, 175800, Note_off_c, 1, 34, 0
1, 175800, Note_off_c, 1, 61, 0
1, 175800, Note_off_c, 1, 64, 0
1, 175860, Note_on_c, 1, 63, 127
1, 175860, Note_on_c, 1, 45, 127
1, 175860, Note_on_c, 1, 33, 127
1, 175920, Note_off_c, 1, 63, 0
1, 175920, Note_off_c, 1, 45, 0
1, 175920, Note_off_c, 1, 33, 0
1, 175920, Note_on_c, 1, 44, 127
1, 175920, Note_on_c, 1, 32, 127
1, 175920, Note_on_c, 1, 71, 127
1, 175950, Note_off_c, 1, 44, 0
1, 175950, Note_off_c, 1, 32, 0
1, 175950, Note_on_c, 1, 40, 127
1, 175950, Note_on_c, 1, 28, 127
1, 175980, Note_off_c, 1, 71, 0
1, 175980, Note_off_c, 1, 40, 0
1, 175980, Note_off_c, 1, 28, 0
1, 175980, Note_on_c, 1, 69, 127
1, 175980, Note_on_c, 1, 47, 127
1, 175980, Note_on_c, 1, 35, 127
1, 176010, Note_off_c, 1, 69, 0
1, 176010, Note_on_c, 1, 68, 127
1, 176040, Note_off_c, 1, 35, 0
1, 176040, Note_off_c, 1, 68, 0
1, 176040, Note_on_c, 1, 57, 127
1, 176100, Note_off_c, 1, 47, 0
1, 176100, Note_off_c, 1, 57, 0
1, 176100, Note_on_c, 1, 76, 127
1, 176100, Note_on_c, 1, 52, 127
1, 176100, Note_on_c, 1, 56, 127
1, 176130, Note_off_c, 1, 76, 0
1, 176130, Note_on_c, 1, 78, 127
1, 176158, Note_off_c, 1, 56, 0
1, 176160, Note_off_c, 1, 52, 0
1, 176160, Note_off_c, 1, 78, 0
1, 176160, Note_on_c, 1, 80, 127
1, 176250, Note_off_c, 1, 80, 0
1, 176250, Note_on_c, 1, 81, 127
1, 176250, Note_on_c, 1, 73, 127
1, 176280, Note_off_c, 1, 81, 0
1, 176280, Note_off_c, 1, 73, 0
1, 176520, Note_on_c, 1, 75, 127
1, 176580, Note_off_c, 1, 75, 0
1, 176700, Note_on_c, 1, 83, 127
1, 176700, Note_on_c, 1, 41, 127
1, 176700, Note_on_c, 1, 29, 127
1, 176730, Note_on_c, 1, 86, 127
1, 176760, Note_off_c, 1, 83, 0
1, 176760, Note_off_c, 1, 41, 0
1, 176760, Note_off_c, 1, 29, 0
1, 176760, Note_off_c, 1, 86, 0
1, 176760, Note_on_c, 1, 85, 127
1, 176820, Note_off_c, 1, 85, 0
1, 176820, Note_on_c, 1, 42, 127
1, 176820, Note_on_c, 1, 30, 127
1, 176880, Note_off_c, 1, 42, 0
1, 176880, Note_off_c, 1, 30, 0
1, 176940, Note_on_c, 1, 37, 127
1, 176940, Note_on_c, 1, 25, 127
1, 177000, Note_off_c, 1, 37, 0
1, 177000, Note_off_c, 1, 25, 0
1, 177060, Note_on_c, 1, 78, 127
1, 177060, Note_on_c, 1, 69, 127
1, 177060, Note_on_c, 1, 42, 127
1, 177060, Note_on_c, 1, 30, 127
1, 177090, Note_off_c, 1, 78, 0
1, 177090, Note_off_c, 1, 69, 0
1, 177090, Note_on_c, 1, 80, 127
1, 177090, Note_on_c, 1, 71, 127
1, 177120, Note_off_c, 1, 42, 0
1, 177120, Note_off_c, 1, 30, 0
1, 177120, Note_off_c, 1, 80, 0
1, 177120, Note_off_c, 1, 71, 0
1, 177120, Note_on_c, 1, 81, 127
1, 177120, Note_on_c, 1, 73, 127
1, 177180, Note_on_c, 1, 49, 127
1, 177180, Note_on_c, 1, 37, 127
1, 177210, Note_off_c, 1, 81, 0
1, 177210, Note_off_c, 1, 73, 0
1, 177210, Note_on_c, 1, 83, 127
1, 177210, Note_on_c, 1, 74, 127
1, 177240, Note_off_c, 1, 49, 0
1, 177240, Note_off_c, 1, 37, 0
1, 177240, Note_off_c, 1, 83, 0
1, 177240, Note_off_c, 1, 74, 0
1, 177300, Note_on_c, 1, 54, 127
1, 177360, Note_off_c, 1, 54, 0
1, 177480, Note_on_c, 1, 77, 127
1, 177480, Note_on_c, 1, 68, 127
1, 177540, Note_off_c, 1, 77, 0
1, 177540, Note_off_c, 1, 68, 0
1, 177660, Note_on_c, 1, 85, 127
1, 177660, Note_on_c, 1, 51, 127
1, 177660, Note_on_c, 1, 39, 127
1, 177690, Note_off_c, 1, 85, 0
1, 177720, Note_off_c, 1, 51, 0
1, 177720, Note_off_c, 1, 39, 0
1, 177780, Note_on_c, 1, 52, 127
1, 177780, Note_on_c, 1, 40, 127
1, 177840, Note_off_c, 1, 52, 0
1, 177840, Note_off_c, 1, 40, 0
1, 177840, Note_on_c, 1, 76, 127
1, 177840, Note_on_c, 1, 47, 127
1, 177840, Note_on_c, 1, 35, 127
1, 177900, Note_off_c, 1, 76, 0
1, 177900, Note_off_c, 1, 47, 0
1, 177900, Note_off_c, 1, 35, 0
1, 177900, Note_on_c, 1, 44, 127
1, 177900, Note_on_c, 1, 32, 127
1, 177960, Note_off_c, 1, 44, 0
1, 177960, Note_off_c, 1, 32, 0
1, 178020, Note_on_c, 1, 28, 127
1, 178080, Note_off_c, 1, 28, 0
1, 178080, Note_on_c, 1, 56, 127
1, 178140, Note_off_c, 1, 56, 0
1, 178260, Note_on_c, 1, 57, 127
1, 178260, Note_on_c, 1, 45, 127
1, 178290, Note_on_c, 1, 86, 127
1, 178320, Note_off_c, 1, 57, 0
1, 178320, Note_off_c, 1, 45, 0
1, 178320, Note_off_c, 1, 86, 0
1, 178320, Note_on_c, 1, 61, 127
1, 178380, Note_off_c, 1, 61, 0
1, 178500, Note_on_c, 1, 75, 127
1, 178500, Note_on_c, 1, 59, 127
1, 178560, Note_off_c, 1, 75, 0
1, 178560, Note_off_c, 1, 59, 0
1, 178800, Note_on_c, 1, 64, 127
1, 178860, Note_off_c, 1, 64, 0
1, 178980, Note_on_c, 1, 33, 127
1, 179040, Note_off_c, 1, 33, 0
1, 179940, Note_on_c, 1, 59, 127
1, 179940, Note_on_c, 1, 47, 127
1, 180000, Note_on_c, 1, 70, 127
1, 180058, Note_off_c, 1, 59, 0
1, 180058, Note_off_c, 1, 47, 0
1, 180058, Note_off_c, 1, 70, 0
1, 180060, Note_on_c, 1, 71, 127
1, 180060, Note_on_c, 1, 59, 127
1, 180060, Note_on_c, 1, 47, 127
1, 180118, Note_off_c, 1, 71, 0
1, 180120, Note_on_c, 1, 73, 127
1, 180178, Note_off_c, 1, 59, 0
1, 180178, Note_off_c, 1, 47, 0
1, 180178, Note_off_c, 1, 73, 0
1, 180180, Note_on_c, 1, 74, 127
1, 180180, Note_on_c, 1, 59, 127
1, 180180, Note_on_c, 1, 47, 127
1, 180238, Note_off_c, 1, 74, 0
1, 180240, Note_on_c, 1, 76, 127
1, 180298, Note_off_c, 1, 59, 0
1, 180298, Note_off_c, 1, 47, 0
1, 180298, Note_off_c, 1, 76, 0
1, 180300, Note_on_c, 1, 78, 127
1, 180300, Note_on_c, 1, 57, 127
1, 180300, Note_on_c, 1, 45, 127
1, 180360, Note_on_c, 1, 67, 127
1, 180418, Note_off_c, 1, 57, 0
1, 180418, Note_off_c, 1, 45, 0
1, 180418, Note_off_c, 1, 67, 0
1, 180420, Note_on_c, 1, 66, 127
1, 180478, Note_off_c, 1, 78, 0
1, 180478, Note_off_c, 1, 66, 0
1, 180480, Note_on_c, 1, 64, 127
1, 180538, Note_off_c, 1, 64, 0
1, 180540, Note_on_c, 1, 78, 127
1, 180540, Note_on_c, 1, 62, 127
1, 180540, Note_on_c, 1, 57, 127
1, 180540, Note_on_c, 1, 45, 127
1, 180598, Note_off_c, 1, 62, 0
1, 180600, Note_on_c, 1, 61, 127
1, 180658, Note_off_c, 1, 78, 0
1, 180658, Note_off_c, 1, 57, 0
1, 180658, Note_off_c, 1, 45, 0
1, 180658, Note_off_c, 1, 61, 0
1, 180660, Note_on_c, 1, 78, 127
1, 180660, Note_on_c, 1, 59, 127
1, 180660, Note_on_c, 1, 55, 127
1, 180660, Note_on_c, 1, 43, 127
1, 180720, Note_on_c, 1, 70, 127
1, 180778, Note_off_c, 1, 78, 0
1, 180778, Note_off_c, 1, 55, 0
1, 180778, Note_off_c, 1, 43, 0
1, 180778, Note_off_c, 1, 70, 0
1, 180780, Note_on_c, 1, 76, 127
1, 180780, Note_on_c, 1, 71, 127
1, 180838, Note_off_c, 1, 59, 0
1, 180838, Note_off_c, 1, 76, 0
1, 180838, Note_off_c, 1, 71, 0
1, 180840, Note_on_c, 1, 74, 127
1, 180840, Note_on_c, 1, 73, 127
1, 180898, Note_off_c, 1, 74, 0
1, 180898, Note_off_c, 1, 73, 0
1, 180900, Note_on_c, 1, 73, 127
1, 180900, Note_on_c, 1, 74, 127
1, 180900, Note_on_c, 1, 59, 127
1, 180900, Note_on_c, 1, 55, 127
1, 180900, Note_on_c, 1, 43, 127
1, 180958, Note_off_c, 1, 73, 0
1, 180958, Note_off_c, 1, 74, 0
1, 180960, Note_on_c, 1, 71, 127
1, 180960, Note_on_c, 1, 76, 127
1, 181018, Note_off_c, 1, 59, 0
1, 181018, Note_off_c, 1, 55, 0
1, 181018, Note_off_c, 1, 43, 0
1, 181018, Note_off_c, 1, 71, 0
1, 181018, Note_off_c, 1, 76, 0
1, 181020, Note_on_c, 1, 70, 127
1, 181020, Note_on_c, 1, 78, 127
1, 181020, Note_on_c, 1, 61, 127
1, 181020, Note_on_c, 1, 54, 127
1, 181020, Note_on_c, 1, 42, 127
1, 181078, Note_off_c, 1, 61, 0
1, 181080, Note_on_c, 1, 59, 127
1, 181138, Note_off_c, 1, 54, 0
1, 181138, Note_off_c, 1, 42, 0
1, 181138, Note_off_c, 1, 59, 0
1, 181198, Note_off_c, 1, 70, 0
1, 181198, Note_off_c, 1, 78, 0
1, 181200, Note_on_c, 1, 68, 127
1, 181200, Note_on_c, 1, 62, 127
1, 181258, Note_off_c, 1, 68, 0
1, 181258, Note_off_c, 1, 62, 0
1, 181260, Note_on_c, 1, 66, 127
1, 181260, Note_on_c, 1, 78, 127
1, 181260, Note_on_c, 1, 64, 127
1, 181260, Note_on_c, 1, 54, 127
1, 181260, Note_on_c, 1, 42, 127
1, 181318, Note_off_c, 1, 64, 0
1, 181378, Note_off_c, 1, 66, 0
1, 181378, Note_off_c, 1, 78, 0
1, 181378, Note_off_c, 1, 54, 0
1, 181378, Note_off_c, 1, 42, 0
1, 181380, Note_on_c, 1, 78, 127
1, 181380, Note_on_c, 1, 62, 127
1, 181380, Note_on_c, 1, 59, 127
1, 181380, Note_on_c, 1, 47, 127
1, 181438, Note_off_c, 1, 62, 0
1, 181440, Note_on_c, 1, 74, 127
1, 181440, Note_on_c, 1, 64, 127
1, 181498, Note_off_c, 1, 59, 0
1, 181498, Note_off_c, 1, 47, 0
1, 181498, Note_off_c, 1, 74, 0
1, 181498, Note_off_c, 1, 64, 0
1, 181500, Note_on_c, 1, 73, 127
1, 181500, Note_on_c, 1, 76, 127
1, 181500, Note_on_c, 1, 66, 127
1, 181558, Note_off_c, 1, 73, 0
1, 181558, Note_off_c, 1, 76, 0
1, 181560, Note_on_c, 1, 71, 127
1, 181618, Note_off_c, 1, 66, 0
1, 181618, Note_off_c, 1, 71, 0
1, 181620, Note_on_c, 1, 69, 127
1, 181678, Note_off_c, 1, 69, 0
1, 181680, Note_on_c, 1, 67, 127
1, 181738, Note_off_c, 1, 78, 0
1, 181738, Note_off_c, 1, 67, 0
1, 181740, Note_on_c, 1, 81, 127
1, 181740, Note_on_c, 1, 76, 127
1, 181740, Note_on_c, 1, 69, 127
1, 181740, Note_on_c, 1, 61, 127
1, 181740, Note_on_c, 1, 49, 127
1, 181800, Note_on_c, 1, 71, 127
1, 181858, Note_off_c, 1, 61, 0
1, 181858, Note_off_c, 1, 49, 0
1, 181858, Note_off_c, 1, 71, 0
1, 181918, Note_off_c, 1, 76, 0
1, 181920, Note_on_c, 1, 67, 127
1, 181978, Note_off_c, 1, 69, 0
1, 181978, Note_off_c, 1, 67, 0
1, 181980, Note_on_c, 1, 66, 127
1, 182038, Note_off_c, 1, 66, 0
1, 182040, Note_on_c, 1, 64, 127
1, 182098, Note_off_c, 1, 81, 0
1, 182098, Note_off_c, 1, 64, 0
1, 182100, Note_on_c, 1, 78, 127
1, 182100, Note_on_c, 1, 62, 127
1, 182100, Note_on_c, 1, 50, 127
1, 182160, Note_on_c, 1, 76, 127
1, 182218, Note_off_c, 1, 50, 0
1, 182218, Note_off_c, 1, 76, 0
1, 182220, Note_on_c, 1, 74, 127
1, 182278, Note_off_c, 1, 74, 0
1, 182280, Note_on_c, 1, 73, 127
1, 182338, Note_off_c, 1, 62, 0
1, 182338, Note_off_c, 1, 73, 0
1, 182340, Note_on_c, 1, 71, 127
1, 182398, Note_off_c, 1, 71, 0
1, 182400, Note_on_c, 1, 70, 127
1, 182458, Note_off_c, 1, 78, 0
1, 182458, Note_off_c, 1, 70, 0
1, 182460, Note_on_c, 1, 78, 127
1, 182460, Note_on_c, 1, 71, 127
1, 182460, Note_on_c, 1, 63, 127
1, 182460, Note_on_c, 1, 51, 127
1, 182520, Note_on_c, 1, 72, 127
1, 182520, Note_on_c, 1, 69, 127
1, 182578, Note_off_c, 1, 63, 0
1, 182578, Note_off_c, 1, 51, 0
1, 182578, Note_off_c, 1, 72, 0
1, 182578, Note_off_c, 1, 69, 0
1, 182580, Note_on_c, 1, 67, 127
1, 182638, Note_off_c, 1, 71, 0
1, 182638, Note_off_c, 1, 67, 0
1, 182640, Note_on_c, 1, 66, 127
1, 182698, Note_off_c, 1, 66, 0
1, 182700, Note_on_c, 1, 64, 127
1, 182758, Note_off_c, 1, 64, 0
1, 182818, Note_off_c, 1, 78, 0
1, 182820, Note_on_c, 1, 79, 127
1, 182820, Note_on_c, 1, 64, 127
1, 182820, Note_on_c, 1, 52, 127
1, 182880, Note_on_c, 1, 66, 127
1, 182880, Note_on_c, 1, 63, 127
1, 182938, Note_off_c, 1, 52, 0
1, 182938, Note_off_c, 1, 66, 0
1, 182938, Note_off_c, 1, 63, 0
1, 182940, Note_on_c, 1, 67, 127
1, 182998, Note_off_c, 1, 67, 0
1, 183000, Note_on_c, 1, 69, 127
1, 183058, Note_off_c, 1, 64, 0
1, 183058, Note_off_c, 1, 69, 0
1, 183060, Note_on_c, 1, 71, 127
1, 183118, Note_off_c, 1, 71, 0
1, 183120, Note_on_c, 1, 73, 127
1, 183178, Note_off_c, 1, 79, 0
1, 183178, Note_off_c, 1, 73, 0
1, 183180, Note_on_c, 1, 78, 127
1, 183180, Note_on_c, 1, 74, 127
1, 183180, Note_on_c, 1, 66, 127
1, 183180, Note_on_c, 1, 54, 127
1, 183240, Note_on_c, 1, 62, 127
1, 183298, Note_off_c, 1, 66, 0
1, 183298, Note_off_c, 1, 54, 0
1, 183298, Note_off_c, 1, 62, 0
1, 183300, Note_on_c, 1, 64, 127
1, 183300, Note_on_c, 1, 67, 127
1, 183358, Note_off_c, 1, 74, 0
1, 183358, Note_off_c, 1, 64, 0
1, 183358, Note_off_c, 1, 67, 0
1, 183480, Note_on_c, 1, 69, 127
1, 183538, Note_off_c, 1, 78, 0
1, 183538, Note_off_c, 1, 69, 0
1, 183540, Note_on_c, 1, 76, 127
1, 183540, Note_on_c, 1, 71, 127
1, 183540, Note_on_c, 1, 67, 127
1, 183540, Note_on_c, 1, 55, 127
1, 183600, Note_on_c, 1, 78, 127
1, 183600, Note_on_c, 1, 69, 127
1, 183658, Note_off_c, 1, 67, 0
1, 183658, Note_off_c, 1, 55, 0
1, 183658, Note_off_c, 1, 78, 0
1, 183658, Note_off_c, 1, 69, 0
1, 183718, Note_off_c, 1, 71, 0
1, 183720, Note_on_c, 1, 74, 127
1, 183720, Note_on_c, 1, 66, 127
1, 183778, Note_off_c, 1, 74, 0
1, 183778, Note_off_c, 1, 66, 0
1, 183780, Note_on_c, 1, 73, 127
1, 183838, Note_off_c, 1, 73, 0
1, 183840, Note_on_c, 1, 64, 127
1, 183898, Note_off_c, 1, 64, 0
1, 183900, Note_on_c, 1, 57, 127
1, 183960, Note_on_c, 1, 62, 127
1, 184018, Note_off_c, 1, 57, 0
1, 184018, Note_off_c, 1, 62, 0
1, 184258, Note_off_c, 1, 76, 0
1, 184320, Note_on_c, 1, 72, 127
1, 184378, Note_off_c, 1, 72, 0
1, 184620, Note_on_c, 1, 61, 127
1, 184620, Note_on_c, 1, 64, 127
1, 184620, Note_on_c, 1, 67, 127
1, 184620, Note_on_c, 1, 55, 127
1, 184678, Note_off_c, 1, 61, 0
1, 184680, Note_on_c, 1, 69, 127
1, 184738, Note_off_c, 1, 64, 0
1, 184738, Note_off_c, 1, 67, 0
1, 184738, Note_off_c, 1, 55, 0
1, 184738, Note_off_c, 1, 69, 0
1, 184740, Note_on_c, 1, 74, 127
1, 184740, Note_on_c, 1, 69, 127
1, 184740, Note_on_c, 1, 66, 127
1, 184740, Note_on_c, 1, 54, 127
1, 184798, Note_off_c, 1, 74, 0
1, 184798, Note_off_c, 1, 69, 0
1, 184798, Note_off_c, 1, 66, 0
1, 184798, Note_off_c, 1, 54, 0
1, 184800, Note_on_c, 1, 76, 127
1, 184800, Note_on_c, 1, 67, 127
1, 184800, Note_on_c, 1, 64, 127
1, 184800, Note_on_c, 1, 52, 127
1, 184858, Note_off_c, 1, 76, 0
1, 184858, Note_off_c, 1, 67, 0
1, 184858, Note_off_c, 1, 64, 0
1, 184858, Note_off_c, 1, 52, 0
1, 184860, Note_on_c, 1, 78, 127
1, 184860, Note_on_c, 1, 69, 127
1, 184860, Note_on_c, 1, 62, 127
1, 184860, Note_on_c, 1, 50, 127
1, 184918, Note_off_c, 1, 62, 0
1, 184918, Note_off_c, 1, 50, 0
1, 184920, Note_on_c, 1, 61, 127
1, 184920, Note_on_c, 1, 49, 127
1, 184978, Note_off_c, 1, 78, 0
1, 184978, Note_off_c, 1, 61, 0
1, 184978, Note_off_c, 1, 49, 0
1, 184980, Note_on_c, 1, 59, 127
1, 184980, Note_on_c, 1, 47, 127
1, 185040, Note_on_c, 1, 71, 127
1, 185040, Note_on_c, 1, 66, 127
1, 185098, Note_off_c, 1, 69, 0
1, 185098, Note_off_c, 1, 59, 0
1, 185098, Note_off_c, 1, 47, 0
1, 185098, Note_off_c, 1, 71, 0
1, 185098, Note_off_c, 1, 66, 0
1, 185100, Note_on_c, 1, 73, 127
1, 185100, Note_on_c, 1, 67, 127
1, 185100, Note_on_c, 1, 64, 127
1, 185100, Note_on_c, 1, 52, 127
1, 185158, Note_off_c, 1, 73, 0
1, 185158, Note_off_c, 1, 67, 0
1, 185158, Note_off_c, 1, 64, 0
1, 185158, Note_off_c, 1, 52, 0
1, 185160, Note_on_c, 1, 74, 127
1, 185160, Note_on_c, 1, 66, 127
1, 185160, Note_on_c, 1, 62, 127
1, 185160, Note_on_c, 1, 50, 127
1, 185218, Note_off_c, 1, 74, 0
1, 185218, Note_off_c, 1, 66, 0
1, 185218, Note_off_c, 1, 62, 0
1, 185218, Note_off_c, 1, 50, 0
1, 185220, Note_on_c, 1, 76, 127
1, 185220, Note_on_c, 1, 67, 127
1, 185220, Note_on_c, 1, 61, 127
1, 185220, Note_on_c, 1, 49, 127
1, 185278, Note_off_c, 1, 61, 0
1, 185278, Note_off_c, 1, 49, 0
1, 185280, Note_on_c, 1, 59, 127
1, 185280, Note_on_c, 1, 47, 127
1, 185338, Note_off_c, 1, 67, 0
1, 185338, Note_off_c, 1, 59, 0
1, 185338, Note_off_c, 1, 47, 0
1, 185340, Note_on_c, 1, 57, 127
1, 185340, Note_on_c, 1, 45, 127
1, 185398, Note_off_c, 1, 76, 0
1, 185400, Note_on_c, 1, 78, 127
1, 185428, Note_off_c, 1, 78, 0
1, 185430, Note_on_c, 1, 79, 127
1, 185458, Note_off_c, 1, 57, 0
1, 185458, Note_off_c, 1, 45, 0
1, 185458, Note_off_c, 1, 79, 0
1, 185460, Note_on_c, 1, 62, 127
1, 185460, Note_on_c, 1, 50, 127
1, 185518, Note_off_c, 1, 62, 0
1, 185518, Note_off_c, 1, 50, 0
1, 185520, Note_on_c, 1, 76, 127
1, 185520, Note_on_c, 1, 69, 127
1, 185520, Note_on_c, 1, 61, 127
1, 185520, Note_on_c, 1, 49, 127
1, 185578, Note_off_c, 1, 76, 0
1, 185578, Note_off_c, 1, 69, 0
1, 185578, Note_off_c, 1, 61, 0
1, 185578, Note_off_c, 1, 49, 0
1, 185580, Note_on_c, 1, 74, 127
1, 185580, Note_on_c, 1, 66, 127
1, 185580, Note_on_c, 1, 59, 127
1, 185580, Note_on_c, 1, 47, 127
1, 185638, Note_off_c, 1, 74, 0
1, 185638, Note_off_c, 1, 59, 0
1, 185638, Note_off_c, 1, 47, 0
1, 185640, Note_on_c, 1, 73, 127
1, 185640, Note_on_c, 1, 57, 127
1, 185640, Note_on_c, 1, 45, 127
1, 185698, Note_off_c, 1, 73, 0
1, 185698, Note_off_c, 1, 57, 0
1, 185698, Note_off_c, 1, 45, 0
1, 185700, Note_on_c, 1, 55, 127
1, 185700, Note_on_c, 1, 43, 127
1, 185758, Note_off_c, 1, 66, 0
1, 185760, Note_on_c, 1, 76, 127
1, 185760, Note_on_c, 1, 67, 127
1, 185818, Note_off_c, 1, 55, 0
1, 185818, Note_off_c, 1, 43, 0
1, 185818, Note_off_c, 1, 76, 0
1, 185818, Note_off_c, 1, 67, 0
1, 185820, Note_on_c, 1, 73, 127
1, 185820, Note_on_c, 1, 64, 127
1, 185820, Note_on_c, 1, 57, 127
1, 185820, Note_on_c, 1, 45, 127
1, 185938, Note_off_c, 1, 45, 0
1, 185998, Note_off_c, 1, 73, 0
1, 185998, Note_off_c, 1, 64, 0
1, 186000, Note_on_c, 1, 74, 127
1, 186000, Note_on_c, 1, 66, 127
1, 186058, Note_off_c, 1, 57, 0
1, 186058, Note_off_c, 1, 74, 0
1, 186058, Note_off_c, 1, 66, 0
1, 186060, Note_on_c, 1, 78, 127
1, 186060, Note_on_c, 1, 74, 127
1, 186060, Note_on_c, 1, 66, 127
1, 186060, Note_on_c, 1, 62, 127
1, 186060, Note_on_c, 1, 50, 127
1, 186178, Note_off_c, 1, 74, 0
1, 186178, Note_off_c, 1, 66, 0
1, 186178, Note_off_c, 1, 62, 0
1, 186178, Note_off_c, 1, 50, 0
1, 186180, Note_on_c, 1, 69, 127
1, 186238, Note_off_c, 1, 69, 0
1, 186240, Note_on_c, 1, 64, 127
1, 186298, Note_off_c, 1, 64, 0
1, 186418, Note_off_c, 1, 78, 0
1, 186420, Note_on_c, 1, 81, 127
1, 186420, Note_on_c, 1, 64, 127
1, 186420, Note_on_c, 1, 61, 127
1, 186420, Note_on_c, 1, 49, 127
1, 186538, Note_off_c, 1, 64, 0
1, 186538, Note_off_c, 1, 61, 0
1, 186538, Note_off_c, 1, 49, 0
1, 186540, Note_on_c, 1, 76, 127
1, 186540, Note_on_c, 1, 57, 127
1, 186598, Note_off_c, 1, 76, 0
1, 186600, Note_on_c, 1, 71, 127
1, 186658, Note_off_c, 1, 57, 0
1, 186658, Note_off_c, 1, 71, 0
1, 186660, Note_on_c, 1, 73, 127
1, 186718, Note_off_c, 1, 73, 0
1, 186720, Note_on_c, 1, 68, 127
1, 186778, Note_off_c, 1, 81, 0
1, 186778, Note_off_c, 1, 68, 0
1, 186780, Note_on_c, 1, 76, 127
1, 186780, Note_on_c, 1, 69, 127
1, 186780, Note_on_c, 1, 57, 127
1, 186780, Note_on_c, 1, 60, 127
1, 186780, Note_on_c, 1, 48, 127
1, 186898, Note_off_c, 1, 69, 0
1, 186898, Note_off_c, 1, 57, 0
1, 186898, Note_off_c, 1, 60, 0
1, 186898, Note_off_c, 1, 48, 0
1, 186900, Note_on_c, 1, 64, 127
1, 186960, Note_on_c, 1, 71, 127
1, 187018, Note_off_c, 1, 64, 0
1, 187018, Note_off_c, 1, 71, 0
1, 187020, Note_on_c, 1, 72, 127
1, 187078, Note_off_c, 1, 72, 0
1, 187138, Note_off_c, 1, 76, 0
1, 187140, Note_on_c, 1, 76, 127
1, 187140, Note_on_c, 1, 74, 127
1, 187140, Note_on_c, 1, 68, 127
1, 187140, Note_on_c, 1, 59, 127
1, 187140, Note_on_c, 1, 47, 127
1, 187198, Note_off_c, 1, 74, 0
1, 187200, Note_on_c, 1, 72, 127
1, 187200, Note_on_c, 1, 57, 127
1, 187258, Note_off_c, 1, 68, 0
1, 187258, Note_off_c, 1, 59, 0
1, 187258, Note_off_c, 1, 47, 0
1, 187258, Note_off_c, 1, 72, 0
1, 187258, Note_off_c, 1, 57, 0
1, 187260, Note_on_c, 1, 71, 127
1, 187260, Note_on_c, 1, 56, 127
1, 187318, Note_off_c, 1, 56, 0
1, 187320, Note_on_c, 1, 73, 127
1, 187378, Note_off_c, 1, 71, 0
1, 187378, Note_off_c, 1, 73, 0
1, 187498, Note_off_c, 1, 76, 0
1, 187500, Note_on_c, 1, 64, 127
1, 187500, Note_on_c, 1, 45, 127
1, 187618, Note_off_c, 1, 45, 0
1, 187678, Note_off_c, 1, 64, 0
1, 187680, Note_on_c, 1, 69, 127
1, 187680, Note_on_c, 1, 65, 127
1, 187680, Note_on_c, 1, 60, 127
1, 187738, Note_off_c, 1, 69, 0
1, 187738, Note_off_c, 1, 65, 0
1, 187738, Note_off_c, 1, 60, 0
1, 187740, Note_on_c, 1, 62, 127
1, 187860, Note_on_c, 1, 44, 127
1, 187918, Note_off_c, 1, 62, 0
1, 187978, Note_off_c, 1, 44, 0
1, 188100, Note_on_c, 1, 61, 127
1, 188158, Note_off_c, 1, 61, 0
1, 188160, Note_on_c, 1, 66, 127
1, 188218, Note_off_c, 1, 66, 0
1, 188220, Note_on_c, 1, 67, 127
1, 188220, Note_on_c, 1, 55, 127
1, 188220, Note_on_c, 1, 43, 127
1, 188278, Note_off_c, 1, 67, 0
1, 188338, Note_off_c, 1, 55, 0
1, 188338, Note_off_c, 1, 43, 0
1, 188460, Note_on_c, 1, 70, 127
1, 188518, Note_off_c, 1, 70, 0
1, 188580, Note_on_c, 1, 54, 127
1, 188580, Note_on_c, 1, 42, 127
1, 188698, Note_off_c, 1, 54, 0
1, 188698, Note_off_c, 1, 42, 0
1, 188700, Note_on_c, 1, 49, 127
1, 188700, Note_on_c, 1, 37, 127
1, 188818, Note_off_c, 1, 49, 0
1, 188818, Note_off_c, 1, 37, 0
1, 188940, Note_on_c, 1, 71, 127
1, 188940, Note_on_c, 1, 66, 127
1, 188940, Note_on_c, 1, 62, 127
1, 188940, Note_on_c, 1, 50, 127
1, 188940, Note_on_c, 1, 38, 127
1, 189000, Note_on_c, 1, 70, 127
1, 189058, Note_off_c, 1, 66, 0
1, 189058, Note_off_c, 1, 62, 0
1, 189058, Note_off_c, 1, 50, 0
1, 189058, Note_off_c, 1, 38, 0
1, 189058, Note_off_c, 1, 70, 0
1, 189120, Note_on_c, 1, 64, 127
1, 189178, Note_off_c, 1, 64, 0
1, 189180, Note_on_c, 1, 61, 127
1, 189180, Note_on_c, 1, 49, 127
1, 189298, Note_off_c, 1, 71, 0
1, 189298, Note_off_c, 1, 61, 0
1, 189298, Note_off_c, 1, 49, 0
1, 189300, Note_on_c, 1, 74, 127
1, 189300, Note_on_c, 1, 59, 127
1, 189300, Note_on_c, 1, 47, 127
1, 189360, Note_on_c, 1, 57, 127
1, 189418, Note_off_c, 1, 59, 0
1, 189418, Note_off_c, 1, 47, 0
1, 189418, Note_off_c, 1, 57, 0
1, 189420, Note_on_c, 1, 73, 127
1, 189420, Note_on_c, 1, 55, 127
1, 189420, Note_on_c, 1, 67, 127
1, 189478, Note_off_c, 1, 73, 0
1, 189538, Note_off_c, 1, 55, 0
1, 189538, Note_off_c, 1, 67, 0
1, 189540, Note_on_c, 1, 54, 127
1, 189658, Note_off_c, 1, 74, 0
1, 189658, Note_off_c, 1, 54, 0
1, 189660, Note_on_c, 1, 73, 127
1, 189660, Note_on_c, 1, 67, 127
1, 189660, Note_on_c, 1, 71, 127
1, 189660, Note_on_c, 1, 65, 127
1, 189660, Note_on_c, 1, 53, 127
1, 189718, Note_off_c, 1, 71, 0
1, 189720, Note_on_c, 1, 74, 127
1, 189778, Note_off_c, 1, 67, 0
1, 189778, Note_off_c, 1, 53, 0
1, 189778, Note_off_c, 1, 74, 0
1, 189898, Note_off_c, 1, 65, 0
1, 189900, Note_on_c, 1, 70, 127
1, 189958, Note_off_c, 1, 70, 0
1, 190020, Note_on_c, 1, 66, 127
1, 190020, Note_on_c, 1, 54, 127
1, 190080, Note_on_c, 1, 76, 127
1, 190138, Note_off_c, 1, 66, 0
1, 190138, Note_off_c, 1, 54, 0
1, 190138, Note_off_c, 1, 76, 0
1, 190140, Note_on_c, 1, 75, 127
1, 190140, Note_on_c, 1, 69, 127
1, 190198, Note_off_c, 1, 75, 0
1, 190200, Note_on_c, 1, 64, 127
1, 190258, Note_off_c, 1, 64, 0
1, 190260, Note_on_c, 1, 78, 127
1, 190260, Note_on_c, 1, 63, 127
1, 190260, Note_on_c, 1, 52, 127
1, 190318, Note_off_c, 1, 63, 0
1, 190378, Note_off_c, 1, 73, 0
1, 190378, Note_off_c, 1, 78, 0
1, 190378, Note_off_c, 1, 52, 0
1, 190380, Note_on_c, 1, 51, 127
1, 190440, Note_on_c, 1, 72, 127
1, 190498, Note_off_c, 1, 69, 0
1, 190498, Note_off_c, 1, 51, 0
1, 190498, Note_off_c, 1, 72, 0
1, 191100, Note_on_c, 1, 59, 127
1, 191100, Note_on_c, 1, 47, 127
1, 191218, Note_off_c, 1, 59, 0
1, 191218, Note_off_c, 1, 47, 0
1, 191220, Note_on_c, 1, 61, 127
1, 191220, Note_on_c, 1, 49, 127
1, 191338, Note_off_c, 1, 61, 0
1, 191338, Note_off_c, 1, 49, 0
1, 191700, Note_on_c, 1, 55, 127
1, 191818, Note_off_c, 1, 55, 0
1, 192300, Note_on_c, 1, 57, 127
1, 192300, Note_on_c, 1, 45, 127
1, 192358, Note_off_c, 1, 57, 0
1, 192358, Note_off_c, 1, 45, 0
1, 192360, Note_on_c, 1, 43, 127
1, 192418, Note_off_c, 1, 43, 0
1, 192420, Note_on_c, 1, 42, 127
1, 192478, Note_off_c, 1, 42, 0
1, 192480, Note_on_c, 1, 40, 127
1, 192538, Note_off_c, 1, 40, 0
1, 192900, Note_on_c, 1, 35, 127
1, 193258, Note_off_c, 1, 35, 0
1, 193740, Note_on_c, 1, 50, 127
1, 193740, Note_on_c, 1, 38, 127
1, 193978, Note_off_c, 1, 50, 0
1, 193978, Note_off_c, 1, 38, 0
1, 193980, Note_on_c, 1, 52, 127
1, 193980, Note_on_c, 1, 40, 127
1, 194098, Note_off_c, 1, 52, 0
1, 194098, Note_off_c, 1, 40, 0
1, 194100, Note_on_c, 1, 52, 127
1, 194100, Note_on_c, 1, 40, 127
1, 194218, Note_off_c, 1, 52, 0
1, 194218, Note_off_c, 1, 40, 0
1, 194220, Note_on_c, 1, 54, 127
1, 194220, Note_on_c, 1, 42, 127
1, 194278, Note_off_c, 1, 54, 0
1, 194278, Note_off_c, 1, 42, 0
1, 194280, Note_on_c, 1, 52, 127
1, 194280, Note_on_c, 1, 40, 127
1, 194338, Note_off_c, 1, 52, 0
1, 194338, Note_off_c, 1, 40, 0
1, 194340, Note_on_c, 1, 50, 127
1, 194340, Note_on_c, 1, 38, 127
1, 194398, Note_off_c, 1, 50, 0
1, 194398, Note_off_c, 1, 38, 0
1, 194400, Note_on_c, 1, 52, 127
1, 194400, Note_on_c, 1, 40, 127
1, 194458, Note_off_c, 1, 52, 0
1, 194458, Note_off_c, 1, 40, 0
1, 194460, Note_on_c, 1, 54, 127
1, 194460, Note_on_c, 1, 42, 127
1, 194518, Note_off_c, 1, 54, 0
1, 194518, Note_off_c, 1, 42, 0
1, 194520, Note_on_c, 1, 55, 127
1, 194520, Note_on_c, 1, 43, 127
1, 194578, Note_off_c, 1, 55, 0
1, 194578, Note_off_c, 1, 43, 0
1, 194580, Note_on_c, 1, 57, 127
1, 194580, Note_on_c, 1, 45, 127
1, 194698, Note_off_c, 1, 57, 0
1, 194698, Note_off_c, 1, 45, 0
1, 194700, Note_on_c, 1, 57, 127
1, 194700, Note_on_c, 1, 45, 127
1, 194818, Note_off_c, 1, 57, 0
1, 194818, Note_off_c, 1, 45, 0
1, 194820, Note_on_c, 1, 52, 127
1, 194820, Note_on_c, 1, 40, 127
1, 194938, Note_off_c, 1, 52, 0
1, 194938, Note_off_c, 1, 40, 0
1, 194940, Note_on_c, 1, 57, 127
1, 194940, Note_on_c, 1, 45, 127
1, 195058, Note_off_c, 1, 57, 0
1, 195058, Note_off_c, 1, 45, 0
1, 195060, Note_on_c, 1, 49, 127
1, 195060, Note_on_c, 1, 37, 127
1, 195178, Note_off_c, 1, 49, 0
1, 195178, Note_off_c, 1, 37, 0
1, 195180, Note_on_c, 1, 47, 127
1, 195180, Note_on_c, 1, 35, 127
1, 195418, Note_off_c, 1, 47, 0
1, 195418, Note_off_c, 1, 35, 0
1, 195420, Note_on_c, 1, 56, 127
1, 195420, Note_on_c, 1, 44, 127
1, 195658, Note_off_c, 1, 56, 0
1, 195658, Note_off_c, 1, 44, 0
1, 195660, Note_on_c, 1, 57, 127
1, 195660, Note_on_c, 1, 45, 127
1, 195898, Note_off_c, 1, 57, 0
1, 195898, Note_off_c, 1, 45, 0
1, 195900, Note_on_c, 1, 57, 127
1, 195900, Note_on_c, 1, 54, 127
1, 195900, Note_on_c, 1, 42, 127
1, 196018, Note_off_c, 1, 57, 0
1, 196078, Note_off_c, 1, 54, 0
1, 196078, Note_off_c, 1, 42, 0
1, 196140, Note_on_c, 1, 59, 127
1, 196140, Note_on_c, 1, 55, 127
1, 196140, Note_on_c, 1, 43, 127
1, 196198, Note_off_c, 1, 59, 0
1, 196200, Note_on_c, 1, 57, 127
1, 196258, Note_off_c, 1, 55, 0
1, 196258, Note_off_c, 1, 43, 0
1, 196258, Note_off_c, 1, 57, 0
1, 196260, Note_on_c, 1, 55, 127
1, 196260, Note_on_c, 1, 43, 127
1, 196260, Note_on_c, 1, 31, 127
1, 196318, Note_off_c, 1, 55, 0
1, 196320, Note_on_c, 1, 57, 127
1, 196378, Note_off_c, 1, 43, 0
1, 196378, Note_off_c, 1, 31, 0
1, 196378, Note_off_c, 1, 57, 0
1, 196380, Note_on_c, 1, 59, 127
1, 196380, Note_on_c, 1, 55, 127
1, 196380, Note_on_c, 1, 43, 127
1, 196438, Note_off_c, 1, 59, 0
1, 196440, Note_on_c, 1, 61, 127
1, 196498, Note_off_c, 1, 55, 0
1, 196498, Note_off_c, 1, 43, 0
1, 196498, Note_off_c, 1, 61, 0
1, 196500, Note_on_c, 1, 62, 127
1, 196500, Note_on_c, 1, 54, 127
1, 196500, Note_on_c, 1, 42, 127
1, 196558, Note_off_c, 1, 54, 0
1, 196558, Note_off_c, 1, 42, 0
1, 196560, Note_on_c, 1, 52, 127
1, 196560, Note_on_c, 1, 40, 127
1, 196618, Note_off_c, 1, 62, 0
1, 196618, Note_off_c, 1, 52, 0
1, 196618, Note_off_c, 1, 40, 0
1, 196620, Note_on_c, 1, 62, 127
1, 196620, Note_on_c, 1, 54, 127
1, 196620, Note_on_c, 1, 42, 127
1, 196678, Note_off_c, 1, 54, 0
1, 196678, Note_off_c, 1, 42, 0
1, 196680, Note_on_c, 1, 52, 127
1, 196680, Note_on_c, 1, 40, 127
1, 196738, Note_off_c, 1, 62, 0
1, 196738, Note_off_c, 1, 52, 0
1, 196738, Note_off_c, 1, 40, 0
1, 196740, Note_on_c, 1, 57, 127
1, 196740, Note_on_c, 1, 50, 127
1, 196740, Note_on_c, 1, 38, 127
1, 196798, Note_off_c, 1, 50, 0
1, 196798, Note_off_c, 1, 38, 0
1, 196800, Note_on_c, 1, 52, 127
1, 196800, Note_on_c, 1, 40, 127
1, 196858, Note_off_c, 1, 57, 0
1, 196858, Note_off_c, 1, 52, 0
1, 196858, Note_off_c, 1, 40, 0
1, 196860, Note_on_c, 1, 62, 127
1, 196860, Note_on_c, 1, 54, 127
1, 196860, Note_on_c, 1, 42, 127
1, 196918, Note_off_c, 1, 54, 0
1, 196918, Note_off_c, 1, 42, 0
1, 196920, Note_on_c, 1, 55, 127
1, 196920, Note_on_c, 1, 43, 127
1, 196978, Note_off_c, 1, 62, 0
1, 196978, Note_off_c, 1, 55, 0
1, 196978, Note_off_c, 1, 43, 0
1, 196980, Note_on_c, 1, 54, 127
1, 196980, Note_on_c, 1, 57, 127
1, 196980, Note_on_c, 1, 45, 127
1, 197098, Note_off_c, 1, 54, 0
1, 197098, Note_off_c, 1, 57, 0
1, 197098, Note_off_c, 1, 45, 0
1, 197100, Note_on_c, 1, 52, 127
1, 197100, Note_on_c, 1, 55, 127
1, 197100, Note_on_c, 1, 43, 127
1, 197218, Note_off_c, 1, 55, 0
1, 197218, Note_off_c, 1, 43, 0
1, 197220, Note_on_c, 1, 54, 127
1, 197220, Note_on_c, 1, 42, 127
1, 197338, Note_off_c, 1, 52, 0
1, 197338, Note_off_c, 1, 54, 0
1, 197338, Note_off_c, 1, 42, 0
1, 197340, Note_on_c, 1, 61, 127
1, 197340, Note_on_c, 1, 52, 127
1, 197340, Note_on_c, 1, 40, 127
1, 197578, Note_off_c, 1, 61, 0
1, 197578, Note_off_c, 1, 52, 0
1, 197578, Note_off_c, 1, 40, 0
1, 197580, Note_on_c, 1, 62, 127
1, 197580, Note_on_c, 1, 50, 127
1, 197580, Note_on_c, 1, 38, 127
1, 197698, Note_off_c, 1, 50, 0
1, 197698, Note_off_c, 1, 38, 0
1, 197818, Note_off_c, 1, 62, 0
1, 197820, Note_on_c, 1, 64, 127
1, 197820, Note_on_c, 1, 61, 127
1, 197820, Note_on_c, 1, 57, 127
1, 197820, Note_on_c, 1, 45, 127
1, 197938, Note_off_c, 1, 64, 0
1, 197938, Note_off_c, 1, 57, 0
1, 197938, Note_off_c, 1, 45, 0
1, 197940, Note_on_c, 1, 55, 127
1, 197940, Note_on_c, 1, 43, 127
1, 197998, Note_off_c, 1, 61, 0
1, 198058, Note_off_c, 1, 55, 0
1, 198058, Note_off_c, 1, 43, 0
1, 198060, Note_on_c, 1, 66, 127
1, 198060, Note_on_c, 1, 62, 127
1, 198060, Note_on_c, 1, 54, 127
1, 198060, Note_on_c, 1, 42, 127
1, 198118, Note_off_c, 1, 66, 0
1, 198120, Note_on_c, 1, 64, 127
1, 198178, Note_off_c, 1, 62, 0
1, 198178, Note_off_c, 1, 64, 0
1, 198180, Note_on_c, 1, 50, 127
1, 198238, Note_off_c, 1, 54, 0
1, 198238, Note_off_c, 1, 42, 0
1, 198240, Note_on_c, 1, 52, 127
1, 198240, Note_on_c, 1, 40, 127
1, 198298, Note_off_c, 1, 50, 0
1, 198298, Note_off_c, 1, 52, 0
1, 198298, Note_off_c, 1, 40, 0
1, 198300, Note_on_c, 1, 66, 127
1, 198300, Note_on_c, 1, 62, 127
1, 198300, Note_on_c, 1, 50, 127
1, 198300, Note_on_c, 1, 38, 127
1, 198358, Note_off_c, 1, 66, 0
1, 198360, Note_on_c, 1, 67, 127
1, 198418, Note_off_c, 1, 62, 0
1, 198418, Note_off_c, 1, 67, 0
1, 198420, Note_on_c, 1, 69, 127
1, 198420, Note_on_c, 1, 61, 127
1, 198478, Note_off_c, 1, 61, 0
1, 198480, Note_on_c, 1, 59, 127
1, 198538, Note_off_c, 1, 50, 0
1, 198538, Note_off_c, 1, 38, 0
1, 198538, Note_off_c, 1, 69, 0
1, 198538, Note_off_c, 1, 59, 0
1, 198540, Note_on_c, 1, 69, 127
1, 198540, Note_on_c, 1, 61, 127
1, 198598, Note_off_c, 1, 61, 0
1, 198600, Note_on_c, 1, 59, 127
1, 198658, Note_off_c, 1, 69, 0
1, 198658, Note_off_c, 1, 59, 0
1, 198660, Note_on_c, 1, 64, 127
1, 198660, Note_on_c, 1, 57, 127
1, 198718, Note_off_c, 1, 57, 0
1, 198720, Note_on_c, 1, 59, 127
1, 198778, Note_off_c, 1, 64, 0
1, 198778, Note_off_c, 1, 59, 0
1, 198780, Note_on_c, 1, 69, 127
1, 198780, Note_on_c, 1, 61, 127
1, 198780, Note_on_c, 1, 49, 127
1, 198780, Note_on_c, 1, 37, 127
1, 198838, Note_off_c, 1, 61, 0
1, 198840, Note_on_c, 1, 62, 127
1, 198898, Note_off_c, 1, 69, 0
1, 198898, Note_off_c, 1, 62, 0
1, 198900, Note_on_c, 1, 64, 127
1, 199018, Note_off_c, 1, 49, 0
1, 199018, Note_off_c, 1, 37, 0
1, 199018, Note_off_c, 1, 64, 0
1, 199020, Note_on_c, 1, 59, 127
1, 199020, Note_on_c, 1, 62, 127
1, 199020, Note_on_c, 1, 50, 127
1, 199020, Note_on_c, 1, 38, 127
1, 199138, Note_off_c, 1, 62, 0
1, 199140, Note_on_c, 1, 61, 127
1, 199258, Note_off_c, 1, 59, 0
1, 199258, Note_off_c, 1, 50, 0
1, 199258, Note_off_c, 1, 38, 0
1, 199258, Note_off_c, 1, 61, 0
1, 199260, Note_on_c, 1, 68, 127
1, 199260, Note_on_c, 1, 59, 127
1, 199260, Note_on_c, 1, 52, 127
1, 199260, Note_on_c, 1, 40, 127
1, 199498, Note_off_c, 1, 68, 0
1, 199498, Note_off_c, 1, 59, 0
1, 199498, Note_off_c, 1, 52, 0
1, 199498, Note_off_c, 1, 40, 0
1, 199500, Note_on_c, 1, 69, 127
1, 199500, Note_on_c, 1, 57, 127
1, 199500, Note_on_c, 1, 45, 127
1, 199500, Note_on_c, 1, 33, 127
1, 199618, Note_off_c, 1, 57, 0
1, 199738, Note_off_c, 1, 69, 0
1, 199738, Note_off_c, 1, 45, 0
1, 199738, Note_off_c, 1, 33, 0
1, 199740, Note_on_c, 1, 69, 127
1, 199740, Note_on_c, 1, 66, 127
1, 199740, Note_on_c, 1, 62, 127
1, 199858, Note_off_c, 1, 69, 0
1, 199858, Note_off_c, 1, 62, 0
1, 199860, Note_on_c, 1, 60, 127
1, 199860, Note_on_c, 1, 50, 127
1, 199860, Note_on_c, 1, 38, 127
1, 199918, Note_off_c, 1, 66, 0
1, 199978, Note_off_c, 1, 60, 0
1, 199978, Note_off_c, 1, 50, 0
1, 199978, Note_off_c, 1, 38, 0
1, 199980, Note_on_c, 1, 71, 127
1, 199980, Note_on_c, 1, 67, 127
1, 199980, Note_on_c, 1, 59, 127
1, 199980, Note_on_c, 1, 55, 127
1, 199980, Note_on_c, 1, 43, 127
1, 200038, Note_off_c, 1, 71, 0
1, 200040, Note_on_c, 1, 69, 127
1, 200098, Note_off_c, 1, 67, 0
1, 200098, Note_off_c, 1, 55, 0
1, 200098, Note_off_c, 1, 43, 0
1, 200098, Note_off_c, 1, 69, 0
1, 200100, Note_on_c, 1, 54, 127
1, 200100, Note_on_c, 1, 42, 127
1, 200158, Note_off_c, 1, 59, 0
1, 200160, Note_on_c, 1, 57, 127
1, 200218, Note_off_c, 1, 54, 0
1, 200218, Note_off_c, 1, 42, 0
1, 200218, Note_off_c, 1, 57, 0
1, 200220, Note_on_c, 1, 71, 127
1, 200220, Note_on_c, 1, 67, 127
1, 200220, Note_on_c, 1, 55, 127
1, 200220, Note_on_c, 1, 52, 127
1, 200220, Note_on_c, 1, 40, 127
1, 200278, Note_off_c, 1, 71, 0
1, 200280, Note_on_c, 1, 73, 127
1, 200338, Note_off_c, 1, 67, 0
1, 200338, Note_off_c, 1, 73, 0
1, 200340, Note_on_c, 1, 74, 127
1, 200340, Note_on_c, 1, 66, 127
1, 200398, Note_off_c, 1, 52, 0
1, 200398, Note_off_c, 1, 40, 0
1, 200398, Note_off_c, 1, 66, 0
1, 200400, Note_on_c, 1, 64, 127
1, 200400, Note_on_c, 1, 50, 127
1, 200400, Note_on_c, 1, 38, 127
1, 200458, Note_off_c, 1, 55, 0
1, 200458, Note_off_c, 1, 74, 0
1, 200458, Note_off_c, 1, 64, 0
1, 200458, Note_off_c, 1, 50, 0
1, 200458, Note_off_c, 1, 38, 0
1, 200460, Note_on_c, 1, 74, 127
1, 200460, Note_on_c, 1, 66, 127
1, 200460, Note_on_c, 1, 50, 127
1, 200460, Note_on_c, 1, 38, 127
1, 200518, Note_off_c, 1, 66, 0
1, 200520, Note_on_c, 1, 64, 127
1, 200578, Note_off_c, 1, 74, 0
1, 200578, Note_off_c, 1, 50, 0
1, 200578, Note_off_c, 1, 38, 0
1, 200578, Note_off_c, 1, 64, 0
1, 200580, Note_on_c, 1, 69, 127
1, 200580, Note_on_c, 1, 62, 127
1, 200580, Note_on_c, 1, 54, 127
1, 200580, Note_on_c, 1, 42, 127
1, 200638, Note_off_c, 1, 62, 0
1, 200640, Note_on_c, 1, 64, 127
1, 200698, Note_off_c, 1, 69, 0
1, 200698, Note_off_c, 1, 54, 0
1, 200698, Note_off_c, 1, 42, 0
1, 200698, Note_off_c, 1, 64, 0
1, 200700, Note_on_c, 1, 74, 127
1, 200700, Note_on_c, 1, 66, 127
1, 200700, Note_on_c, 1, 54, 127
1, 200700, Note_on_c, 1, 59, 127
1, 200700, Note_on_c, 1, 47, 127
1, 200758, Note_off_c, 1, 66, 0
1, 200760, Note_on_c, 1, 67, 127
1, 200818, Note_off_c, 1, 74, 0
1, 200818, Note_off_c, 1, 59, 0
1, 200818, Note_off_c, 1, 47, 0
1, 200818, Note_off_c, 1, 67, 0
1, 200820, Note_on_c, 1, 69, 127
1, 200820, Note_on_c, 1, 50, 127
1, 200820, Note_on_c, 1, 38, 127
1, 200938, Note_off_c, 1, 54, 0
1, 200938, Note_off_c, 1, 69, 0
1, 200938, Note_off_c, 1, 50, 0
1, 200938, Note_off_c, 1, 38, 0
1, 200940, Note_on_c, 1, 64, 127
1, 200940, Note_on_c, 1, 67, 127
1, 200940, Note_on_c, 1, 55, 127
1, 200940, Note_on_c, 1, 52, 127
1, 200940, Note_on_c, 1, 40, 127
1, 201058, Note_off_c, 1, 67, 0
1, 201058, Note_off_c, 1, 52, 0
1, 201058, Note_off_c, 1, 40, 0
1, 201060, Note_on_c, 1, 66, 127
1, 201060, Note_on_c, 1, 54, 127
1, 201060, Note_on_c, 1, 42, 127
1, 201178, Note_off_c, 1, 64, 0
1, 201178, Note_off_c, 1, 55, 0
1, 201178, Note_off_c, 1, 66, 0
1, 201178, Note_off_c, 1, 54, 0
1, 201178, Note_off_c, 1, 42, 0
1, 201180, Note_on_c, 1, 73, 127
1, 201180, Note_on_c, 1, 64, 127
1, 201180, Note_on_c, 1, 57, 127
1, 201180, Note_on_c, 1, 55, 127
1, 201180, Note_on_c, 1, 43, 127
1, 201418, Note_off_c, 1, 73, 0
1, 201418, Note_off_c, 1, 64, 0
1, 201418, Note_off_c, 1, 57, 0
1, 201418, Note_off_c, 1, 55, 0
1, 201418, Note_off_c, 1, 43, 0
1, 201420, Note_on_c, 1, 74, 127
1, 201420, Note_on_c, 1, 62, 127
1, 201420, Note_on_c, 1, 50, 127
1, 201420, Note_on_c, 1, 54, 127
1, 201420, Note_on_c, 1, 42, 127
1, 201538, Note_off_c, 1, 54, 0
1, 201538, Note_off_c, 1, 42, 0
1, 201540, Note_on_c, 1, 38, 127
1, 201658, Note_off_c, 1, 74, 0
1, 201658, Note_off_c, 1, 62, 0
1, 201658, Note_off_c, 1, 50, 0
1, 201658, Note_off_c, 1, 38, 0
1, 201660, Note_on_c, 1, 73, 127
1, 201660, Note_on_c, 1, 64, 127
1, 201660, Note_on_c, 1, 57, 127
1, 201660, Note_on_c, 1, 45, 127
1, 201778, Note_off_c, 1, 57, 0
1, 201778, Note_off_c, 1, 45, 0
1, 201780, Note_on_c, 1, 55, 127
1, 201780, Note_on_c, 1, 43, 127
1, 201838, Note_off_c, 1, 73, 0
1, 201898, Note_off_c, 1, 64, 0
1, 201898, Note_off_c, 1, 55, 0
1, 201898, Note_off_c, 1, 43, 0
1, 201900, Note_on_c, 1, 74, 127
1, 201900, Note_on_c, 1, 66, 127
1, 201900, Note_on_c, 1, 62, 127
1, 201900, Note_on_c, 1, 54, 127
1, 201900, Note_on_c, 1, 42, 127
1, 202018, Note_off_c, 1, 74, 0
1, 202018, Note_off_c, 1, 62, 0
1, 202020, Note_on_c, 1, 61, 127
1, 202078, Note_off_c, 1, 54, 0
1, 202078, Note_off_c, 1, 42, 0
1, 202080, Note_on_c, 1, 52, 127
1, 202080, Note_on_c, 1, 40, 127
1, 202138, Note_off_c, 1, 66, 0
1, 202138, Note_off_c, 1, 61, 0
1, 202138, Note_off_c, 1, 52, 0
1, 202138, Note_off_c, 1, 40, 0
1, 202140, Note_on_c, 1, 74, 127
1, 202140, Note_on_c, 1, 68, 127
1, 202140, Note_on_c, 1, 59, 127
1, 202140, Note_on_c, 1, 50, 127
1, 202140, Note_on_c, 1, 38, 127
1, 202258, Note_off_c, 1, 74, 0
1, 202260, Note_on_c, 1, 73, 127
1, 202318, Note_off_c, 1, 59, 0
1, 202318, Note_off_c, 1, 73, 0
1, 202320, Note_on_c, 1, 71, 127
1, 202378, Note_off_c, 1, 68, 0
1, 202378, Note_off_c, 1, 50, 0
1, 202378, Note_off_c, 1, 38, 0
1, 202378, Note_off_c, 1, 71, 0
1, 202380, Note_on_c, 1, 73, 127
1, 202380, Note_on_c, 1, 69, 127
1, 202380, Note_on_c, 1, 57, 127
1, 202438, Note_off_c, 1, 73, 0
1, 202440, Note_on_c, 1, 71, 127
1, 202498, Note_off_c, 1, 69, 0
1, 202498, Note_off_c, 1, 57, 0
1, 202498, Note_off_c, 1, 71, 0
1, 202500, Note_on_c, 1, 69, 127
1, 202500, Note_on_c, 1, 57, 127
1, 202500, Note_on_c, 1, 61, 127
1, 202558, Note_off_c, 1, 69, 0
1, 202560, Note_on_c, 1, 71, 127
1, 202618, Note_off_c, 1, 57, 0
1, 202618, Note_off_c, 1, 61, 0
1, 202618, Note_off_c, 1, 71, 0
1, 202620, Note_on_c, 1, 73, 127
1, 202620, Note_on_c, 1, 69, 127
1, 202620, Note_on_c, 1, 66, 127
1, 202620, Note_on_c, 1, 49, 127
1, 202620, Note_on_c, 1, 37, 127
1, 202678, Note_off_c, 1, 73, 0
1, 202680, Note_on_c, 1, 74, 127
1, 202738, Note_off_c, 1, 66, 0
1, 202738, Note_off_c, 1, 74, 0
1, 202740, Note_on_c, 1, 76, 127
1, 202740, Note_on_c, 1, 57, 127
1, 202858, Note_off_c, 1, 49, 0
1, 202858, Note_off_c, 1, 37, 0
1, 202858, Note_off_c, 1, 76, 0
1, 202858, Note_off_c, 1, 57, 0
1, 202860, Note_on_c, 1, 59, 127
1, 202860, Note_on_c, 1, 50, 127
1, 202860, Note_on_c, 1, 38, 127
1, 202978, Note_off_c, 1, 59, 0
1, 202980, Note_on_c, 1, 61, 127
1, 203098, Note_off_c, 1, 69, 0
1, 203098, Note_off_c, 1, 50, 0
1, 203098, Note_off_c, 1, 38, 0
1, 203098, Note_off_c, 1, 61, 0
1, 203100, Note_on_c, 1, 71, 127
1, 203100, Note_on_c, 1, 68, 127
1, 203100, Note_on_c, 1, 62, 127
1, 203100, Note_on_c, 1, 52, 127
1, 203100, Note_on_c, 1, 40, 127
1, 203338, Note_off_c, 1, 71, 0
1, 203338, Note_off_c, 1, 68, 0
1, 203338, Note_off_c, 1, 62, 0
1, 203338, Note_off_c, 1, 52, 0
1, 203338, Note_off_c, 1, 40, 0
1, 203340, Note_on_c, 1, 69, 127
1, 203340, Note_on_c, 1, 61, 127
1, 203340, Note_on_c, 1, 45, 127
1, 203340, Note_on_c, 1, 33, 127
1, 203458, Note_off_c, 1, 61, 0
1, 203460, Note_on_c, 1, 57, 127
1, 203578, Note_off_c, 1, 69, 0
1, 203578, Note_off_c, 1, 45, 0
1, 203578, Note_off_c, 1, 33, 0
1, 203578, Note_off_c, 1, 57, 0
1, 203580, Note_on_c, 1, 69, 127
1, 203580, Note_on_c, 1, 66, 127
1, 203580, Note_on_c, 1, 62, 127
1, 203698, Note_off_c, 1, 69, 0
1, 203698, Note_off_c, 1, 62, 0
1, 203700, Note_on_c, 1, 60, 127
1, 203758, Note_off_c, 1, 66, 0
1, 203818, Note_off_c, 1, 60, 0
1, 203820, Note_on_c, 1, 71, 127
1, 203820, Note_on_c, 1, 67, 127
1, 203820, Note_on_c, 1, 59, 127
1, 203878, Note_off_c, 1, 71, 0
1, 203880, Note_on_c, 1, 69, 127
1, 203938, Note_off_c, 1, 67, 0
1, 203938, Note_off_c, 1, 69, 0
1, 203940, Note_on_c, 1, 62, 127
1, 203998, Note_off_c, 1, 59, 0
1, 204000, Note_on_c, 1, 57, 127
1, 204058, Note_off_c, 1, 62, 0
1, 204058, Note_off_c, 1, 57, 0
1, 204060, Note_on_c, 1, 71, 127
1, 204060, Note_on_c, 1, 67, 127
1, 204060, Note_on_c, 1, 55, 127
1, 204118, Note_off_c, 1, 71, 0
1, 204120, Note_on_c, 1, 73, 127
1, 204178, Note_off_c, 1, 67, 0
1, 204178, Note_off_c, 1, 73, 0
1, 204180, Note_on_c, 1, 74, 127
1, 204180, Note_on_c, 1, 66, 127
1, 204238, Note_off_c, 1, 66, 0
1, 204240, Note_on_c, 1, 64, 127
1, 204298, Note_off_c, 1, 55, 0
1, 204298, Note_off_c, 1, 74, 0
1, 204298, Note_off_c, 1, 64, 0
1, 204300, Note_on_c, 1, 74, 127
1, 204300, Note_on_c, 1, 66, 127
1, 204358, Note_off_c, 1, 66, 0
1, 204360, Note_on_c, 1, 64, 127
1, 204418, Note_off_c, 1, 74, 0
1, 204418, Note_off_c, 1, 64, 0
1, 204420, Note_on_c, 1, 69, 127
1, 204420, Note_on_c, 1, 62, 127
1, 204478, Note_off_c, 1, 62, 0
1, 204480, Note_on_c, 1, 64, 127
1, 204538, Note_off_c, 1, 69, 0
1, 204538, Note_off_c, 1, 64, 0
1, 204540, Note_on_c, 1, 74, 127
1, 204540, Note_on_c, 1, 66, 127
1, 204540, Note_on_c, 1, 54, 127
1, 204598, Note_off_c, 1, 66, 0
1, 204600, Note_on_c, 1, 67, 127
1, 204658, Note_off_c, 1, 74, 0
1, 204658, Note_off_c, 1, 67, 0
1, 204660, Note_on_c, 1, 69, 127
1, 204778, Note_off_c, 1, 54, 0
1, 204778, Note_off_c, 1, 69, 0
1, 204780, Note_on_c, 1, 64, 127
1, 204780, Note_on_c, 1, 67, 127
1, 204780, Note_on_c, 1, 55, 127
1, 204898, Note_off_c, 1, 67, 0
1, 204900, Note_on_c, 1, 66, 127
1, 205018, Note_off_c, 1, 64, 0
1, 205018, Note_off_c, 1, 55, 0
1, 205018, Note_off_c, 1, 66, 0
1, 205020, Note_on_c, 1, 73, 127
1, 205020, Note_on_c, 1, 64, 127
1, 205020, Note_on_c, 1, 57, 127
1, 205258, Note_off_c, 1, 73, 0
1, 205258, Note_off_c, 1, 64, 0
1, 205258, Note_off_c, 1, 57, 0
1, 205260, Note_on_c, 1, 74, 127
1, 205260, Note_on_c, 1, 62, 127
1, 205260, Note_on_c, 1, 50, 127
1, 205380, Note_on_c, 1, 66, 127
1, 205498, Note_off_c, 1, 74, 0
1, 205498, Note_off_c, 1, 62, 0
1, 205498, Note_off_c, 1, 50, 0
1, 205498, Note_off_c, 1, 66, 0
1, 205500, Note_on_c, 1, 73, 127
1, 205500, Note_on_c, 1, 67, 127
1, 205500, Note_on_c, 1, 64, 127
1, 205618, Note_off_c, 1, 67, 0
1, 205618, Note_off_c, 1, 64, 0
1, 205678, Note_off_c, 1, 73, 0
1, 205740, Note_on_c, 1, 74, 127
1, 205740, Note_on_c, 1, 69, 127
1, 205740, Note_on_c, 1, 66, 127
1, 205798, Note_off_c, 1, 69, 0
1, 205798, Note_off_c, 1, 66, 0
1, 205800, Note_on_c, 1, 67, 127
1, 205800, Note_on_c, 1, 64, 127
1, 205858, Note_off_c, 1, 74, 0
1, 205858, Note_off_c, 1, 67, 0
1, 205858, Note_off_c, 1, 64, 0
1, 205860, Note_on_c, 1, 62, 127
1, 205860, Note_on_c, 1, 66, 127
1, 205918, Note_off_c, 1, 66, 0
1, 205920, Note_on_c, 1, 67, 127
1, 205920, Note_on_c, 1, 64, 127
1, 205978, Note_off_c, 1, 62, 0
1, 205978, Note_off_c, 1, 67, 0
1, 205978, Note_off_c, 1, 64, 0
1, 205980, Note_on_c, 1, 74, 127
1, 205980, Note_on_c, 1, 69, 127
1, 205980, Note_on_c, 1, 66, 127
1, 206038, Note_off_c, 1, 69, 0
1, 206038, Note_off_c, 1, 66, 0
1, 206040, Note_on_c, 1, 71, 127
1, 206040, Note_on_c, 1, 67, 127
1, 206098, Note_off_c, 1, 74, 0
1, 206098, Note_off_c, 1, 71, 0
1, 206098, Note_off_c, 1, 67, 0
1, 206100, Note_on_c, 1, 73, 127
1, 206100, Note_on_c, 1, 69, 127
1, 206158, Note_off_c, 1, 73, 0
1, 206160, Note_on_c, 1, 71, 127
1, 206160, Note_on_c, 1, 74, 127
1, 206218, Note_off_c, 1, 69, 0
1, 206218, Note_off_c, 1, 71, 0
1, 206218, Note_off_c, 1, 74, 0
1, 206220, Note_on_c, 1, 73, 127
1, 206220, Note_on_c, 1, 76, 127
1, 206220, Note_on_c, 1, 69, 127
1, 206278, Note_off_c, 1, 73, 0
1, 206280, Note_on_c, 1, 71, 127
1, 206338, Note_off_c, 1, 69, 0
1, 206338, Note_off_c, 1, 71, 0
1, 206340, Note_on_c, 1, 64, 127
1, 206458, Note_off_c, 1, 76, 0
1, 206458, Note_off_c, 1, 64, 0
1, 206460, Note_on_c, 1, 73, 127
1, 206460, Note_on_c, 1, 69, 127
1, 206518, Note_off_c, 1, 73, 0
1, 206520, Note_on_c, 1, 74, 127
1, 206578, Note_off_c, 1, 69, 0
1, 206578, Note_off_c, 1, 74, 0
1, 206580, Note_on_c, 1, 76, 127
1, 206580, Note_on_c, 1, 69, 127
1, 206580, Note_on_c, 1, 61, 127
1, 206698, Note_off_c, 1, 76, 0
1, 206698, Note_off_c, 1, 69, 0
1, 206698, Note_off_c, 1, 61, 0
1, 206700, Note_on_c, 1, 74, 127
1, 206700, Note_on_c, 1, 78, 127
1, 206700, Note_on_c, 1, 59, 127
1, 206818, Note_off_c, 1, 74, 0
1, 206818, Note_off_c, 1, 78, 0
1, 206820, Note_on_c, 1, 73, 127
1, 206820, Note_on_c, 1, 76, 127
1, 206938, Note_off_c, 1, 59, 0
1, 206938, Note_off_c, 1, 73, 0
1, 206938, Note_off_c, 1, 76, 0
1, 206940, Note_on_c, 1, 71, 127
1, 206940, Note_on_c, 1, 74, 127
1, 206940, Note_on_c, 1, 68, 127
1, 207178, Note_off_c, 1, 71, 0
1, 207178, Note_off_c, 1, 74, 0
1, 207178, Note_off_c, 1, 68, 0
1, 207180, Note_on_c, 1, 69, 127
1, 207180, Note_on_c, 1, 73, 127
1, 207180, Note_on_c, 1, 57, 127
1, 207418, Note_off_c, 1, 69, 0
1, 207418, Note_off_c, 1, 73, 0
1, 207418, Note_off_c, 1, 57, 0
1, 207420, Note_on_c, 1, 74, 127
1, 207420, Note_on_c, 1, 66, 127
1, 207420, Note_on_c, 1, 57, 127
1, 207538, Note_off_c, 1, 57, 0
1, 207540, Note_on_c, 1, 72, 127
1, 207598, Note_off_c, 1, 66, 0
1, 207658, Note_off_c, 1, 74, 0
1, 207658, Note_off_c, 1, 72, 0
1, 207660, Note_on_c, 1, 71, 127
1, 207660, Note_on_c, 1, 74, 127
1, 207660, Note_on_c, 1, 67, 127
1, 207660, Note_on_c, 1, 59, 127
1, 207718, Note_off_c, 1, 59, 0
1, 207720, Note_on_c, 1, 57, 127
1, 207778, Note_off_c, 1, 67, 0
1, 207778, Note_off_c, 1, 57, 0
1, 207780, Note_on_c, 1, 55, 127
1, 207838, Note_off_c, 1, 71, 0
1, 207840, Note_on_c, 1, 69, 127
1, 207898, Note_off_c, 1, 74, 0
1, 207898, Note_off_c, 1, 55, 0
1, 207898, Note_off_c, 1, 69, 0
1, 207900, Note_on_c, 1, 67, 127
1, 207900, Note_on_c, 1, 76, 127
1, 207900, Note_on_c, 1, 59, 127
1, 207958, Note_off_c, 1, 59, 0
1, 207960, Note_on_c, 1, 61, 127
1, 208018, Note_off_c, 1, 61, 0
1, 208020, Note_on_c, 1, 66, 127
1, 208020, Note_on_c, 1, 62, 127
1, 208078, Note_off_c, 1, 66, 0
1, 208080, Note_on_c, 1, 64, 127
1, 208138, Note_off_c, 1, 67, 0
1, 208138, Note_off_c, 1, 76, 0
1, 208138, Note_off_c, 1, 62, 0
1, 208138, Note_off_c, 1, 64, 0
1, 208140, Note_on_c, 1, 69, 127
1, 208140, Note_on_c, 1, 66, 127
1, 208140, Note_on_c, 1, 62, 127
1, 208198, Note_off_c, 1, 66, 0
1, 208200, Note_on_c, 1, 64, 127
1, 208258, Note_off_c, 1, 69, 0
1, 208258, Note_off_c, 1, 62, 0
1, 208258, Note_off_c, 1, 64, 0
1, 208260, Note_on_c, 1, 66, 127
1, 208260, Note_on_c, 1, 62, 127
1, 208260, Note_on_c, 1, 57, 127
1, 208318, Note_off_c, 1, 62, 0
1, 208320, Note_on_c, 1, 64, 127
1, 208378, Note_off_c, 1, 66, 0
1, 208378, Note_off_c, 1, 57, 0
1, 208378, Note_off_c, 1, 64, 0
1, 208380, Note_on_c, 1, 66, 127
1, 208380, Note_on_c, 1, 71, 127
1, 208380, Note_on_c, 1, 62, 127
1, 208440, Note_on_c, 1, 67, 127
1, 208498, Note_off_c, 1, 71, 0
1, 208498, Note_off_c, 1, 62, 0
1, 208498, Note_off_c, 1, 67, 0
1, 208500, Note_on_c, 1, 69, 127
1, 208500, Note_on_c, 1, 54, 127
1, 208618, Note_off_c, 1, 66, 0
1, 208618, Note_off_c, 1, 69, 0
1, 208618, Note_off_c, 1, 54, 0
1, 208620, Note_on_c, 1, 67, 127
1, 208620, Note_on_c, 1, 64, 127
1, 208620, Note_on_c, 1, 52, 127
1, 208738, Note_off_c, 1, 64, 0
1, 208740, Note_on_c, 1, 66, 127
1, 208858, Note_off_c, 1, 67, 0
1, 208858, Note_off_c, 1, 52, 0
1, 208858, Note_off_c, 1, 66, 0
1, 208860, Note_on_c, 1, 69, 127
1, 208860, Note_on_c, 1, 67, 127
1, 208860, Note_on_c, 1, 64, 127
1, 208860, Note_on_c, 1, 61, 127
1, 209098, Note_off_c, 1, 69, 0
1, 209098, Note_off_c, 1, 67, 0
1, 209098, Note_off_c, 1, 64, 0
1, 209098, Note_off_c, 1, 61, 0
1, 209100, Note_on_c, 1, 62, 127
1, 209100, Note_on_c, 1, 66, 127
1, 209100, Note_on_c, 1, 50, 127
1, 209100, Note_on_c, 1, 38, 127
1, 209338, Note_off_c, 1, 62, 0
1, 209338, Note_off_c, 1, 66, 0
1, 209338, Note_off_c, 1, 50, 0
1, 209338, Note_off_c, 1, 38, 0
1, 209340, Note_on_c, 1, 67, 127
1, 209340, Note_on_c, 1, 61, 127
1, 209340, Note_on_c, 1, 52, 127
1, 209340, Note_on_c, 1, 40, 127
1, 209458, Note_off_c, 1, 67, 0
1, 209458, Note_off_c, 1, 52, 0
1, 209458, Note_off_c, 1, 40, 0
1, 209460, Note_on_c, 1, 64, 127
1, 209518, Note_off_c, 1, 61, 0
1, 209578, Note_off_c, 1, 64, 0
1, 209580, Note_on_c, 1, 69, 127
1, 209580, Note_on_c, 1, 66, 127
1, 209580, Note_on_c, 1, 62, 127
1, 209580, Note_on_c, 1, 54, 127
1, 209580, Note_on_c, 1, 42, 127
1, 209638, Note_off_c, 1, 54, 0
1, 209638, Note_off_c, 1, 42, 0
1, 209640, Note_on_c, 1, 52, 127
1, 209640, Note_on_c, 1, 40, 127
1, 209698, Note_off_c, 1, 69, 0
1, 209698, Note_off_c, 1, 62, 0
1, 209698, Note_off_c, 1, 52, 0
1, 209698, Note_off_c, 1, 40, 0
1, 209700, Note_on_c, 1, 50, 127
1, 209700, Note_on_c, 1, 38, 127
1, 209758, Note_off_c, 1, 66, 0
1, 209758, Note_off_c, 1, 38, 0
1, 209760, Note_on_c, 1, 64, 127
1, 209818, Note_off_c, 1, 50, 0
1, 209818, Note_off_c, 1, 64, 0
1, 209820, Note_on_c, 1, 74, 127
1, 209820, Note_on_c, 1, 66, 127
1, 209820, Note_on_c, 1, 62, 127
1, 209820, Note_on_c, 1, 54, 127
1, 209820, Note_on_c, 1, 42, 127
1, 209878, Note_off_c, 1, 54, 0
1, 209878, Note_off_c, 1, 42, 0
1, 209880, Note_on_c, 1, 55, 127
1, 209880, Note_on_c, 1, 43, 127
1, 209938, Note_off_c, 1, 74, 0
1, 209938, Note_off_c, 1, 55, 0
1, 209938, Note_off_c, 1, 43, 0
1, 209940, Note_on_c, 1, 61, 127
1, 209940, Note_on_c, 1, 57, 127
1, 209940, Note_on_c, 1, 45, 127
1, 209998, Note_off_c, 1, 66, 0
1, 209998, Note_off_c, 1, 61, 0
1, 210000, Note_on_c, 1, 64, 127
1, 210000, Note_on_c, 1, 59, 127
1, 210058, Note_off_c, 1, 62, 0
1, 210058, Note_off_c, 1, 57, 0
1, 210058, Note_off_c, 1, 45, 0
1, 210058, Note_off_c, 1, 64, 0
1, 210058, Note_off_c, 1, 59, 0
1, 210060, Note_on_c, 1, 73, 127
1, 210060, Note_on_c, 1, 64, 127
1, 210060, Note_on_c, 1, 61, 127
1, 210060, Note_on_c, 1, 57, 127
1, 210060, Note_on_c, 1, 45, 127
1, 210118, Note_off_c, 1, 61, 0
1, 210120, Note_on_c, 1, 59, 127
1, 210178, Note_off_c, 1, 64, 0
1, 210178, Note_off_c, 1, 57, 0
1, 210178, Note_off_c, 1, 45, 0
1, 210178, Note_off_c, 1, 59, 0
1, 210180, Note_on_c, 1, 52, 127
1, 210180, Note_on_c, 1, 40, 127
1, 210240, Note_on_c, 1, 71, 127
1, 210298, Note_off_c, 1, 73, 0
1, 210298, Note_off_c, 1, 52, 0
1, 210298, Note_off_c, 1, 40, 0
1, 210298, Note_off_c, 1, 71, 0
1, 210300, Note_on_c, 1, 69, 127
1, 210300, Note_on_c, 1, 78, 127
1, 210300, Note_on_c, 1, 61, 127
1, 210300, Note_on_c, 1, 57, 127
1, 210300, Note_on_c, 1, 45, 127
1, 210360, Note_on_c, 1, 62, 127
1, 210418, Note_off_c, 1, 69, 0
1, 210418, Note_off_c, 1, 78, 0
1, 210418, Note_off_c, 1, 57, 0
1, 210418, Note_off_c, 1, 45, 0
1, 210418, Note_off_c, 1, 62, 0
1, 210420, Note_on_c, 1, 73, 127
1, 210420, Note_on_c, 1, 64, 127
1, 210420, Note_on_c, 1, 49, 127
1, 210420, Note_on_c, 1, 37, 127
1, 210538, Note_off_c, 1, 61, 0
1, 210538, Note_off_c, 1, 73, 0
1, 210538, Note_off_c, 1, 64, 0
1, 210538, Note_off_c, 1, 49, 0
1, 210538, Note_off_c, 1, 37, 0
1, 210540, Note_on_c, 1, 78, 127
1, 210540, Note_on_c, 1, 71, 127
1, 210540, Note_on_c, 1, 62, 127
1, 210540, Note_on_c, 1, 47, 127
1, 210540, Note_on_c, 1, 35, 127
1, 210658, Note_off_c, 1, 71, 0
1, 210660, Note_on_c, 1, 73, 127
1, 210660, Note_on_c, 1, 61, 127
1, 210778, Note_off_c, 1, 78, 0
1, 210778, Note_off_c, 1, 62, 0
1, 210778, Note_off_c, 1, 47, 0
1, 210778, Note_off_c, 1, 35, 0
1, 210778, Note_off_c, 1, 73, 0
1, 210778, Note_off_c, 1, 61, 0
1, 210780, Note_on_c, 1, 76, 127
1, 210780, Note_on_c, 1, 74, 127
1, 210780, Note_on_c, 1, 64, 127
1, 210780, Note_on_c, 1, 59, 127
1, 210780, Note_on_c, 1, 56, 127
1, 210780, Note_on_c, 1, 44, 127
1, 211018, Note_off_c, 1, 76, 0
1, 211018, Note_off_c, 1, 74, 0
1, 211018, Note_off_c, 1, 64, 0
1, 211018, Note_off_c, 1, 59, 0
1, 211018, Note_off_c, 1, 56, 0
1, 211018, Note_off_c, 1, 44, 0
1, 211020, Note_on_c, 1, 76, 127
1, 211020, Note_on_c, 1, 73, 127
1, 211020, Note_on_c, 1, 57, 127
1, 211020, Note_on_c, 1, 45, 127
1, 211258, Note_off_c, 1, 76, 0
1, 211258, Note_off_c, 1, 73, 0
1, 211258, Note_off_c, 1, 57, 0
1, 211258, Note_off_c, 1, 45, 0
1, 211260, Note_on_c, 1, 73, 127
1, 211260, Note_on_c, 1, 69, 127
1, 211260, Note_on_c, 1, 64, 127
1, 211260, Note_on_c, 1, 57, 127
1, 211260, Note_on_c, 1, 55, 127
1, 211260, Note_on_c, 1, 43, 127
1, 211438, Note_off_c, 1, 73, 0
1, 211438, Note_off_c, 1, 69, 0
1, 211438, Note_off_c, 1, 64, 0
1, 211438, Note_off_c, 1, 57, 0
1, 211438, Note_off_c, 1, 55, 0
1, 211438, Note_off_c, 1, 43, 0
1, 211440, Note_on_c, 1, 73, 127
1, 211440, Note_on_c, 1, 69, 127
1, 211440, Note_on_c, 1, 64, 127
1, 211440, Note_on_c, 1, 57, 127
1, 211440, Note_on_c, 1, 55, 127
1, 211440, Note_on_c, 1, 43, 127
1, 211498, Note_off_c, 1, 73, 0
1, 211498, Note_off_c, 1, 69, 0
1, 211498, Note_off_c, 1, 64, 0
1, 211498, Note_off_c, 1, 57, 0
1, 211498, Note_off_c, 1, 55, 0
1, 211498, Note_off_c, 1, 43, 0
1, 211500, Note_on_c, 1, 74, 127
1, 211500, Note_on_c, 1, 69, 127
1, 211500, Note_on_c, 1, 66, 127
1, 211500, Note_on_c, 1, 62, 127
1, 211500, Note_on_c, 1, 54, 127
1, 211500, Note_on_c, 1, 42, 127
1, 211618, Note_off_c, 1, 74, 0
1, 211738, Note_off_c, 1, 69, 0
1, 211738, Note_off_c, 1, 66, 0
1, 211738, Note_off_c, 1, 62, 0
1, 211738, Note_off_c, 1, 54, 0
1, 211738, Note_off_c, 1, 42, 0
1, 211740, Note_on_c, 1, 74, 127
1, 211740, Note_on_c, 1, 71, 127
1, 211740, Note_on_c, 1, 64, 127
1, 211740, Note_on_c, 1, 59, 127
1, 211740, Note_on_c, 1, 56, 127
1, 211740, Note_on_c, 1, 44, 127
1, 211858, Note_off_c, 1, 74, 0
1, 211860, Note_on_c, 1, 73, 127
1, 211918, Note_off_c, 1, 71, 0
1, 211918, Note_off_c, 1, 64, 0
1, 211918, Note_off_c, 1, 59, 0
1, 211918, Note_off_c, 1, 56, 0
1, 211918, Note_off_c, 1, 44, 0
1, 211918, Note_off_c, 1, 73, 0
1, 211920, Note_on_c, 1, 71, 127
1, 211920, Note_on_c, 1, 64, 127
1, 211920, Note_on_c, 1, 59, 127
1, 211920, Note_on_c, 1, 56, 127
1, 211920, Note_on_c, 1, 44, 127
1, 211978, Note_off_c, 1, 71, 0
1, 211978, Note_off_c, 1, 64, 0
1, 211978, Note_off_c, 1, 59, 0
1, 211978, Note_off_c, 1, 56, 0
1, 211978, Note_off_c, 1, 44, 0
1, 211980, Note_on_c, 1, 73, 127
1, 211980, Note_on_c, 1, 69, 127
1, 211980, Note_on_c, 1, 64, 127
1, 211980, Note_on_c, 1, 57, 127
1, 211980, Note_on_c, 1, 45, 127
1, 212098, Note_off_c, 1, 73, 0
1, 212098, Note_off_c, 1, 69, 0
1, 212098, Note_off_c, 1, 64, 0
1, 212098, Note_off_c, 1, 57, 0
1, 212098, Note_off_c, 1, 45, 0
1, 212100, Note_on_c, 1, 69, 127
1, 212100, Note_on_c, 1, 64, 127
1, 212100, Note_on_c, 1, 61, 127
1, 212100, Note_on_c, 1, 45, 127
1, 212100, Note_on_c, 1, 33, 127
1, 212218, Note_off_c, 1, 69, 0
1, 212218, Note_off_c, 1, 64, 0
1, 212218, Note_off_c, 1, 61, 0
1, 212218, Note_off_c, 1, 45, 0
1, 212218, Note_off_c, 1, 33, 0
1, 212220, Note_on_c, 1, 75, 127
1, 212220, Note_on_c, 1, 71, 127
1, 212220, Note_on_c, 1, 66, 127
1, 212220, Note_on_c, 1, 59, 127
1, 212220, Note_on_c, 1, 57, 127
1, 212220, Note_on_c, 1, 45, 127
1, 212338, Note_off_c, 1, 71, 0
1, 212338, Note_off_c, 1, 66, 0
1, 212338, Note_off_c, 1, 59, 0
1, 212338, Note_off_c, 1, 57, 0
1, 212338, Note_off_c, 1, 45, 0
1, 212340, Note_on_c, 1, 55, 127
1, 212340, Note_on_c, 1, 43, 127
1, 212398, Note_off_c, 1, 75, 0
1, 212398, Note_off_c, 1, 55, 0
1, 212398, Note_off_c, 1, 43, 0
1, 212400, Note_on_c, 1, 75, 127
1, 212400, Note_on_c, 1, 71, 127
1, 212400, Note_on_c, 1, 66, 127
1, 212400, Note_on_c, 1, 59, 127
1, 212400, Note_on_c, 1, 54, 127
1, 212400, Note_on_c, 1, 42, 127
1, 212458, Note_off_c, 1, 75, 0
1, 212458, Note_off_c, 1, 71, 0
1, 212458, Note_off_c, 1, 66, 0
1, 212458, Note_off_c, 1, 59, 0
1, 212458, Note_off_c, 1, 54, 0
1, 212458, Note_off_c, 1, 42, 0
1, 212460, Note_on_c, 1, 76, 127
1, 212460, Note_on_c, 1, 71, 127
1, 212460, Note_on_c, 1, 64, 127
1, 212460, Note_on_c, 1, 59, 127
1, 212460, Note_on_c, 1, 55, 127
1, 212460, Note_on_c, 1, 43, 127
1, 212578, Note_off_c, 1, 76, 0
1, 212578, Note_off_c, 1, 71, 0
1, 212578, Note_off_c, 1, 64, 0
1, 212578, Note_off_c, 1, 59, 0
1, 212578, Note_off_c, 1, 55, 0
1, 212578, Note_off_c, 1, 43, 0
1, 212580, Note_on_c, 1, 64, 127
1, 212580, Note_on_c, 1, 67, 127
1, 212580, Note_on_c, 1, 59, 127
1, 212580, Note_on_c, 1, 52, 127
1, 212580, Note_on_c, 1, 40, 127
1, 212698, Note_off_c, 1, 64, 0
1, 212698, Note_off_c, 1, 67, 0
1, 212698, Note_off_c, 1, 59, 0
1, 212698, Note_off_c, 1, 52, 0
1, 212698, Note_off_c, 1, 40, 0
1, 212700, Note_on_c, 1, 76, 127
1, 212700, Note_on_c, 1, 66, 127
1, 212700, Note_on_c, 1, 61, 127
1, 212700, Note_on_c, 1, 58, 127
1, 212700, Note_on_c, 1, 46, 127
1, 212818, Note_off_c, 1, 76, 0
1, 212820, Note_on_c, 1, 74, 127
1, 212878, Note_off_c, 1, 66, 0
1, 212878, Note_off_c, 1, 61, 0
1, 212878, Note_off_c, 1, 58, 0
1, 212878, Note_off_c, 1, 46, 0
1, 212878, Note_off_c, 1, 74, 0
1, 212880, Note_on_c, 1, 73, 127
1, 212880, Note_on_c, 1, 66, 127
1, 212880, Note_on_c, 1, 61, 127
1, 212880, Note_on_c, 1, 58, 127
1, 212880, Note_on_c, 1, 46, 127
1, 212938, Note_off_c, 1, 73, 0
1, 212938, Note_off_c, 1, 66, 0
1, 212938, Note_off_c, 1, 61, 0
1, 212938, Note_off_c, 1, 58, 0
1, 212938, Note_off_c, 1, 46, 0
1, 212940, Note_on_c, 1, 74, 127
1, 212940, Note_on_c, 1, 71, 127
1, 212940, Note_on_c, 1, 66, 127
1, 212940, Note_on_c, 1, 59, 127
1, 212940, Note_on_c, 1, 47, 127
1, 213058, Note_off_c, 1, 74, 0
1, 213058, Note_off_c, 1, 71, 0
1, 213058, Note_off_c, 1, 66, 0
1, 213058, Note_off_c, 1, 59, 0
1, 213058, Note_off_c, 1, 47, 0
1, 213060, Note_on_c, 1, 73, 127
1, 213060, Note_on_c, 1, 66, 127
1, 213060, Note_on_c, 1, 62, 127
1, 213060, Note_on_c, 1, 47, 127
1, 213060, Note_on_c, 1, 35, 127
1, 213118, Note_off_c, 1, 73, 0
1, 213120, Note_on_c, 1, 71, 127
1, 213178, Note_off_c, 1, 66, 0
1, 213178, Note_off_c, 1, 62, 0
1, 213178, Note_off_c, 1, 47, 0
1, 213178, Note_off_c, 1, 35, 0
1, 213178, Note_off_c, 1, 71, 0
1, 213180, Note_on_c, 1, 79, 127
1, 213180, Note_on_c, 1, 74, 127
1, 213180, Note_on_c, 1, 67, 127
1, 213180, Note_on_c, 1, 62, 127
1, 213180, Note_on_c, 1, 59, 127
1, 213180, Note_on_c, 1, 47, 127
1, 213298, Note_off_c, 1, 74, 0
1, 213298, Note_off_c, 1, 67, 0
1, 213298, Note_off_c, 1, 62, 0
1, 213298, Note_off_c, 1, 59, 0
1, 213298, Note_off_c, 1, 47, 0
1, 213300, Note_on_c, 1, 73, 127
1, 213300, Note_on_c, 1, 69, 127
1, 213300, Note_on_c, 1, 64, 127
1, 213300, Note_on_c, 1, 57, 127
1, 213300, Note_on_c, 1, 45, 127
1, 213358, Note_off_c, 1, 73, 0
1, 213358, Note_off_c, 1, 69, 0
1, 213358, Note_off_c, 1, 64, 0
1, 213358, Note_off_c, 1, 57, 0
1, 213358, Note_off_c, 1, 45, 0
1, 213360, Note_on_c, 1, 71, 127
1, 213360, Note_on_c, 1, 66, 127
1, 213360, Note_on_c, 1, 55, 127
1, 213360, Note_on_c, 1, 43, 127
1, 213418, Note_off_c, 1, 71, 0
1, 213418, Note_off_c, 1, 66, 0
1, 213418, Note_off_c, 1, 55, 0
1, 213418, Note_off_c, 1, 43, 0
1, 213540, Note_on_c, 1, 33, 127
1, 213658, Note_off_c, 1, 79, 0
1, 213658, Note_off_c, 1, 33, 0
1, 213660, Note_on_c, 1, 78, 127
1, 213660, Note_on_c, 1, 72, 127
1, 213660, Note_on_c, 1, 69, 127
1, 213660, Note_on_c, 1, 57, 127
1, 213660, Note_on_c, 1, 45, 127
1, 213778, Note_off_c, 1, 72, 0
1, 213778, Note_off_c, 1, 69, 0
1, 213778, Note_off_c, 1, 57, 0
1, 213778, Note_off_c, 1, 45, 0
1, 213780, Note_on_c, 1, 71, 127
1, 213780, Note_on_c, 1, 55, 127
1, 213780, Note_on_c, 1, 43, 127
1, 213838, Note_off_c, 1, 71, 0
1, 213838, Note_off_c, 1, 55, 0
1, 213838, Note_off_c, 1, 43, 0
1, 213840, Note_on_c, 1, 54, 127
1, 213840, Note_on_c, 1, 42, 127
1, 213898, Note_off_c, 1, 54, 0
1, 213898, Note_off_c, 1, 42, 0
1, 213900, Note_on_c, 1, 62, 127
1, 214020, Note_on_c, 1, 31, 127
1, 214138, Note_off_c, 1, 78, 0
1, 214138, Note_off_c, 1, 62, 0
1, 214138, Note_off_c, 1, 31, 0
1, 214140, Note_on_c, 1, 76, 127
1, 214140, Note_on_c, 1, 67, 127
1, 214140, Note_on_c, 1, 64, 127
1, 214320, Note_on_c, 1, 52, 127
1, 214320, Note_on_c, 1, 40, 127
1, 214378, Note_off_c, 1, 64, 0
1, 214378, Note_off_c, 1, 52, 0
1, 214378, Note_off_c, 1, 40, 0
1, 214500, Note_on_c, 1, 50, 127
1, 214500, Note_on_c, 1, 38, 127
1, 214558, Note_off_c, 1, 50, 0
1, 214558, Note_off_c, 1, 38, 0
1, 214618, Note_off_c, 1, 76, 0
1, 214618, Note_off_c, 1, 67, 0
1, 214620, Note_on_c, 1, 74, 127
1, 214620, Note_on_c, 1, 66, 127
1, 214738, Note_off_c, 1, 66, 0
1, 214740, Note_on_c, 1, 59, 127
1, 214858, Note_off_c, 1, 59, 0
1, 214980, Note_on_c, 1, 33, 127
1, 215098, Note_off_c, 1, 74, 0
1, 215098, Note_off_c, 1, 33, 0
1, 215100, Note_on_c, 1, 72, 127
1, 215100, Note_on_c, 1, 69, 127
1, 215100, Note_on_c, 1, 66, 127
1, 215100, Note_on_c, 1, 45, 127
1, 215100, Note_on_c, 1, 33, 127
1, 215218, Note_off_c, 1, 45, 0
1, 215218, Note_off_c, 1, 33, 0
1, 215278, Note_off_c, 1, 66, 0
1, 215338, Note_off_c, 1, 69, 0
1, 215340, Note_on_c, 1, 62, 127
1, 215340, Note_on_c, 1, 67, 127
1, 215340, Note_on_c, 1, 47, 127
1, 215340, Note_on_c, 1, 35, 127
1, 215398, Note_off_c, 1, 47, 0
1, 215398, Note_off_c, 1, 35, 0
1, 215458, Note_off_c, 1, 67, 0
1, 215460, Note_on_c, 1, 55, 127
1, 215460, Note_on_c, 1, 43, 127
1, 215460, Note_on_c, 1, 31, 127
1, 215518, Note_off_c, 1, 43, 0
1, 215518, Note_off_c, 1, 31, 0
1, 215578, Note_off_c, 1, 72, 0
1, 215578, Note_off_c, 1, 55, 0
1, 215580, Note_on_c, 1, 71, 127
1, 215580, Note_on_c, 1, 50, 127
1, 215640, Note_on_c, 1, 49, 127
1, 215640, Note_on_c, 1, 37, 127
1, 215698, Note_off_c, 1, 49, 0
1, 215698, Note_off_c, 1, 37, 0
1, 215700, Note_on_c, 1, 38, 127
1, 215760, Note_on_c, 1, 64, 127
1, 215818, Note_off_c, 1, 71, 0
1, 215818, Note_off_c, 1, 50, 0
1, 215818, Note_off_c, 1, 38, 0
1, 215818, Note_off_c, 1, 64, 0
1, 215820, Note_on_c, 1, 57, 127
1, 215878, Note_off_c, 1, 57, 0
1, 215940, Note_on_c, 1, 54, 127
1, 215998, Note_off_c, 1, 54, 0
1, 216180, Note_on_c, 1, 61, 127
1, 216180, Note_on_c, 1, 42, 127
1, 216238, Note_off_c, 1, 61, 0
1, 216298, Note_off_c, 1, 42, 0
1, 216300, Note_on_c, 1, 59, 127
1, 216300, Note_on_c, 1, 52, 127
1, 216300, Note_on_c, 1, 40, 127
1, 216418, Note_off_c, 1, 62, 0
1, 216538, Note_off_c, 1, 59, 0
1, 216538, Note_off_c, 1, 52, 0
1, 216538, Note_off_c, 1, 40, 0
1, 216540, Note_on_c, 1, 69, 127
1, 216540, Note_on_c, 1, 67, 127
1, 216540, Note_on_c, 1, 64, 127
1, 216540, Note_on_c, 1, 61, 127
1, 216540, Note_on_c, 1, 57, 127
1, 216540, Note_on_c, 1, 45, 127
1, 216658, Note_off_c, 1, 67, 0
1, 216778, Note_off_c, 1, 69, 0
1, 216778, Note_off_c, 1, 64, 0
1, 216778, Note_off_c, 1, 61, 0
1, 216778, Note_off_c, 1, 57, 0
1, 216778, Note_off_c, 1, 45, 0
1, 216780, Note_on_c, 1, 69, 127
1, 216780, Note_on_c, 1, 66, 127
1, 216780, Note_on_c, 1, 62, 127
1, 216780, Note_on_c, 1, 57, 127
1, 216780, Note_on_c, 1, 50, 127
1, 216780, Note_on_c, 1, 38, 127
1, 217018, Note_off_c, 1, 69, 0
1, 217018, Note_off_c, 1, 66, 0
1, 217018, Note_off_c, 1, 62, 0
1, 217018, Note_off_c, 1, 57, 0
1, 217018, Note_off_c, 1, 50, 0
1, 217018, Note_off_c, 1, 38, 0
1, 217020, Note_on_c, 1, 74, 127
1, 217020, Note_on_c, 1, 69, 127
1, 217020, Note_on_c, 1, 62, 127
1, 217020, Note_on_c, 1, 57, 127
1, 217020, Note_on_c, 1, 54, 127
1, 217020, Note_on_c, 1, 42, 127
1, 217198, Note_off_c, 1, 74, 0
1, 217198, Note_off_c, 1, 69, 0
1, 217198, Note_off_c, 1, 62, 0
1, 217198, Note_off_c, 1, 57, 0
1, 217198, Note_off_c, 1, 54, 0
1, 217198, Note_off_c, 1, 42, 0
1, 217200, Note_on_c, 1, 72, 127
1, 217200, Note_on_c, 1, 69, 127
1, 217200, Note_on_c, 1, 62, 127
1, 217200, Note_on_c, 1, 57, 127
1, 217200, Note_on_c, 1, 54, 127
1, 217200, Note_on_c, 1, 42, 127
1, 217258, Note_off_c, 1, 72, 0
1, 217258, Note_off_c, 1, 69, 0
1, 217258, Note_off_c, 1, 62, 0
1, 217258, Note_off_c, 1, 57, 0
1, 217258, Note_off_c, 1, 54, 0
1, 217258, Note_off_c, 1, 42, 0
1, 217260, Note_on_c, 1, 71, 127
1, 217260, Note_on_c, 1, 69, 127
1, 217260, Note_on_c, 1, 62, 127
1, 217260, Note_on_c, 1, 59, 127
1, 217260, Note_on_c, 1, 55, 127
1, 217260, Note_on_c, 1, 43, 127
1, 217378, Note_off_c, 1, 71, 0
1, 217378, Note_off_c, 1, 69, 0
1, 217378, Note_off_c, 1, 62, 0
1, 217378, Note_off_c, 1, 59, 0
1, 217378, Note_off_c, 1, 55, 0
1, 217378, Note_off_c, 1, 43, 0
1, 217380, Note_on_c, 1, 71, 127
1, 217380, Note_on_c, 1, 67, 127
1, 217380, Note_on_c, 1, 62, 127
1, 217380, Note_on_c, 1, 59, 127
1, 217380, Note_on_c, 1, 43, 127
1, 217380, Note_on_c, 1, 31, 127
1, 217438, Note_off_c, 1, 67, 0
1, 217440, Note_on_c, 1, 66, 127
1, 217498, Note_off_c, 1, 71, 0
1, 217498, Note_off_c, 1, 62, 0
1, 217498, Note_off_c, 1, 59, 0
1, 217498, Note_off_c, 1, 43, 0
1, 217498, Note_off_c, 1, 31, 0
1, 217498, Note_off_c, 1, 66, 0
1, 217500, Note_on_c, 1, 76, 127
1, 217500, Note_on_c, 1, 67, 127
1, 217500, Note_on_c, 1, 59, 127
1, 217500, Note_on_c, 1, 55, 127
1, 217500, Note_on_c, 1, 43, 127
1, 217618, Note_off_c, 1, 76, 0
1, 217618, Note_off_c, 1, 67, 0
1, 217618, Note_off_c, 1, 59, 0
1, 217620, Note_on_c, 1, 78, 127
1, 217620, Note_on_c, 1, 69, 127
1, 217620, Note_on_c, 1, 54, 127
1, 217678, Note_off_c, 1, 78, 0
1, 217678, Note_off_c, 1, 69, 0
1, 217678, Note_off_c, 1, 54, 0
1, 217680, Note_on_c, 1, 79, 127
1, 217680, Note_on_c, 1, 71, 127
1, 217680, Note_on_c, 1, 52, 127
1, 217738, Note_off_c, 1, 79, 0
1, 217738, Note_off_c, 1, 71, 0
1, 217738, Note_off_c, 1, 52, 0
1, 217740, Note_on_c, 1, 73, 127
1, 217740, Note_on_c, 1, 64, 127
1, 217740, Note_on_c, 1, 57, 127
1, 217858, Note_off_c, 1, 55, 0
1, 217858, Note_off_c, 1, 43, 0
1, 217860, Note_on_c, 1, 42, 127
1, 217918, Note_off_c, 1, 42, 0
1, 217920, Note_on_c, 1, 40, 127
1, 217978, Note_off_c, 1, 73, 0
1, 217978, Note_off_c, 1, 64, 0
1, 217978, Note_off_c, 1, 57, 0
1, 217978, Note_off_c, 1, 40, 0
1, 217980, Note_on_c, 1, 74, 127
1, 217980, Note_on_c, 1, 69, 127
1, 217980, Note_on_c, 1, 57, 127
1, 217980, Note_on_c, 1, 62, 127
1, 217980, Note_on_c, 1, 54, 127
1, 217980, Note_on_c, 1, 42, 127
1, 218038, Note_off_c, 1, 54, 0
1, 218038, Note_off_c, 1, 42, 0
1, 218040, Note_on_c, 1, 52, 127
1, 218040, Note_on_c, 1, 40, 127
1, 218098, Note_off_c, 1, 74, 0
1, 218098, Note_off_c, 1, 69, 0
1, 218098, Note_off_c, 1, 57, 0
1, 218098, Note_off_c, 1, 62, 0
1, 218098, Note_off_c, 1, 52, 0
1, 218098, Note_off_c, 1, 40, 0
1, 218100, Note_on_c, 1, 74, 127
1, 218100, Note_on_c, 1, 69, 127
1, 218100, Note_on_c, 1, 66, 127
1, 218100, Note_on_c, 1, 62, 127
1, 218100, Note_on_c, 1, 50, 127
1, 218100, Note_on_c, 1, 38, 127
1, 218158, Note_off_c, 1, 50, 0
1, 218158, Note_off_c, 1, 38, 0
1, 218160, Note_on_c, 1, 52, 127
1, 218160, Note_on_c, 1, 40, 127
1, 218218, Note_off_c, 1, 74, 0
1, 218218, Note_off_c, 1, 69, 0
1, 218218, Note_off_c, 1, 66, 0
1, 218218, Note_off_c, 1, 62, 0
1, 218218, Note_off_c, 1, 52, 0
1, 218218, Note_off_c, 1, 40, 0
1, 218220, Note_on_c, 1, 74, 127
1, 218220, Note_on_c, 1, 69, 127
1, 218220, Note_on_c, 1, 66, 127
1, 218220, Note_on_c, 1, 57, 127
1, 218220, Note_on_c, 1, 54, 127
1, 218220, Note_on_c, 1, 42, 127
1, 218278, Note_off_c, 1, 54, 0
1, 218278, Note_off_c, 1, 42, 0
1, 218280, Note_on_c, 1, 55, 127
1, 218280, Note_on_c, 1, 43, 127
1, 218338, Note_off_c, 1, 66, 0
1, 218338, Note_off_c, 1, 55, 0
1, 218338, Note_off_c, 1, 43, 0
1, 218340, Note_on_c, 1, 64, 127
1, 218340, Note_on_c, 1, 45, 127
1, 218398, Note_off_c, 1, 64, 0
1, 218400, Note_on_c, 1, 62, 127
1, 218458, Note_off_c, 1, 74, 0
1, 218458, Note_off_c, 1, 69, 0
1, 218458, Note_off_c, 1, 57, 0
1, 218458, Note_off_c, 1, 45, 0
1, 218458, Note_off_c, 1, 62, 0
1, 218460, Note_on_c, 1, 73, 127
1, 218460, Note_on_c, 1, 69, 127
1, 218460, Note_on_c, 1, 64, 127
1, 218460, Note_on_c, 1, 57, 127
1, 218460, Note_on_c, 1, 45, 127
1, 218460, Note_on_c, 1, 33, 127
1, 218518, Note_off_c, 1, 64, 0
1, 218520, Note_on_c, 1, 66, 127
1, 218578, Note_off_c, 1, 66, 0
1, 218580, Note_on_c, 1, 67, 127
1, 218638, Note_off_c, 1, 45, 0
1, 218638, Note_off_c, 1, 33, 0
1, 218698, Note_off_c, 1, 73, 0
1, 218698, Note_off_c, 1, 69, 0
1, 218698, Note_off_c, 1, 57, 0
1, 218698, Note_off_c, 1, 67, 0
1, 218700, Note_on_c, 1, 74, 127
1, 218700, Note_on_c, 1, 69, 127
1, 218700, Note_on_c, 1, 66, 127
1, 218700, Note_on_c, 1, 57, 127
1, 218700, Note_on_c, 1, 50, 127
1, 218700, Note_on_c, 1, 38, 127
1, 219178, Note_off_c, 1, 74, 0
1, 219178, Note_off_c, 1, 69, 0
1, 219178, Note_off_c, 1, 66, 0
1, 219178, Note_off_c, 1, 57, 0
1, 219178, Note_off_c, 1, 50, 0
1, 219178, Note_off_c, 1, 38, 0
1, 219660, Note_on_c, 1, 88, 127
1, 219660, Note_on_c, 1, 85, 127
1, 219660, Note_on_c, 1, 81, 127
1, 219660, Note_on_c, 1, 76, 127
1, 219660, Note_on_c, 1, 73, 127
1, 219660, Note_on_c, 1, 69, 127
1, 219660, Note_on_c, 1, 64, 127
1, 219660, Note_on_c, 1, 57, 127
1, 219660, Note_on_c, 1, 45, 127
1, 219660, Note_on_c, 1, 33, 127
1, 219780, Note_off_c, 1, 88, 0
1, 219780, Note_off_c, 1, 85, 0
1, 219780, Note_off_c, 1, 81, 0
1, 219780, Note_off_c, 1, 76, 0
1, 219780, Note_off_c, 1, 73, 0
1, 219780, Note_off_c, 1, 69, 0
1, 219780, Note_off_c, 1, 64, 0
1, 219780, Note_off_c, 1, 57, 0
1, 219780, Note_off_c, 1, 45, 0
1, 219780, Note_off_c, 1, 33, 0
1, 219840, Note_on_c, 1, 88, 127
1, 219840, Note_on_c, 1, 85, 127
1, 219840, Note_on_c, 1, 81, 127
1, 219840, Note_on_c, 1, 76, 127
1, 219840, Note_on_c, 1, 73, 127
1, 219840, Note_on_c, 1, 69, 127
1, 219840, Note_on_c, 1, 64, 127
1, 219840, Note_on_c, 1, 57, 127
1, 219840, Note_on_c, 1, 45, 127
1, 219840, Note_on_c, 1, 33, 127
1, 219880, Note_off_c, 1, 88, 0
1, 219880, Note_off_c, 1, 85, 0
1, 219880, Note_off_c, 1, 81, 0
1, 219880, Note_off_c, 1, 76, 0
1, 219880, Note_off_c, 1, 73, 0
1, 219880, Note_off_c, 1, 69, 0
1, 219880, Note_off_c, 1, 64, 0
1, 219880, Note_off_c, 1, 57, 0
1, 219880, Note_off_c, 1, 45, 0
1, 219880, Note_off_c, 1, 33, 0
1, 219900, Note_on_c, 1, 88, 127
1, 219900, Note_on_c, 1, 85, 127
1, 219900, Note_on_c, 1, 81, 127
1, 219900, Note_on_c, 1, 76, 127
1, 219900, Note_on_c, 1, 73, 127
1, 219900, Note_on_c, 1, 69, 127
1, 219900, Note_on_c, 1, 64, 127
1, 219900, Note_on_c, 1, 57, 127
1, 219900, Note_on_c, 1, 45, 127
1, 219900, Note_on_c, 1, 33, 127
1, 220060, Note_off_c, 1, 88, 0
1, 220060, Note_off_c, 1, 85, 0
1, 220060, Note_off_c, 1, 81, 0
1, 220060, Note_off_c, 1, 76, 0
1, 220060, Note_off_c, 1, 73, 0
1, 220060, Note_off_c, 1, 69, 0
1, 220060, Note_off_c, 1, 64, 0
1, 220060, Note_off_c, 1, 57, 0
1, 220060, Note_off_c, 1, 45, 0
1, 220060, Note_off_c, 1, 33, 0
1, 220140, Note_on_c, 1, 45, 127
1, 220140, Note_on_c, 1, 33, 127
1, 220220, Note_on_c, 1, 47, 127
1, 220257, Note_off_c, 1, 47, 0
1, 220260, Note_on_c, 1, 49, 127
1, 220297, Note_off_c, 1, 49, 0
1, 220300, Note_on_c, 1, 50, 127
1, 220337, Note_off_c, 1, 50, 0
1, 220340, Note_on_c, 1, 52, 127
1, 220377, Note_off_c, 1, 52, 0
1, 220380, Note_on_c, 1, 54, 127
1, 220457, Note_off_c, 1, 54, 0
1, 220460, Note_on_c, 1, 56, 127
1, 220497, Note_off_c, 1, 56, 0
1, 220500, Note_on_c, 1, 57, 127
1, 220537, Note_off_c, 1, 57, 0
1, 220540, Note_on_c, 1, 59, 127
1, 220577, Note_off_c, 1, 59, 0
1, 220580, Note_on_c, 1, 61, 127
1, 220617, Note_off_c, 1, 61, 0
1, 220740, Note_on_c, 1, 62, 127
1, 220777, Note_off_c, 1, 62, 0
1, 220780, Note_on_c, 1, 64, 127
1, 220817, Note_off_c, 1, 64, 0
1, 220820, Note_on_c, 1, 66, 127
1, 220857, Note_off_c, 1, 66, 0
1, 220900, Note_on_c, 1, 68, 127
1, 220937, Note_off_c, 1, 68, 0
1, 220940, Note_on_c, 1, 69, 127
1, 220977, Note_off_c, 1, 69, 0
1, 220980, Note_on_c, 1, 71, 127
1, 221017, Note_off_c, 1, 71, 0
1, 221020, Note_on_c, 1, 73, 127
1, 221057, Note_off_c, 1, 73, 0
1, 221060, Note_on_c, 1, 74, 127
1, 221097, Note_off_c, 1, 74, 0
1, 221300, Note_on_c, 1, 43, 127
1, 221337, Note_off_c, 1, 43, 0
1, 221380, Note_on_c, 1, 76, 127
1, 221417, Note_off_c, 1, 76, 0
1, 221577, Note_off_c, 1, 45, 0
1, 221577, Note_off_c, 1, 33, 0
1, 221580, Note_on_c, 1, 83, 127
1, 221580, Note_on_c, 1, 81, 127
1, 221580, Note_on_c, 1, 78, 127
1, 221580, Note_on_c, 1, 71, 127
1, 221580, Note_on_c, 1, 66, 127
1, 221580, Note_on_c, 1, 59, 127
1, 221580, Note_on_c, 1, 69, 127
1, 221580, Note_on_c, 1, 51, 127
1, 221580, Note_on_c, 1, 39, 127
1, 221580, Note_on_c, 1, 27, 127
1, 221700, Note_off_c, 1, 83, 0
1, 221700, Note_off_c, 1, 81, 0
1, 221700, Note_off_c, 1, 78, 0
1, 221700, Note_off_c, 1, 71, 0
1, 221700, Note_off_c, 1, 66, 0
1, 221700, Note_off_c, 1, 69, 0
1, 221700, Note_off_c, 1, 51, 0
1, 221700, Note_off_c, 1, 39, 0
1, 221700, Note_off_c, 1, 27, 0
1, 221758, Note_off_c, 1, 59, 0
1, 221760, Note_on_c, 1, 83, 127
1, 221760, Note_on_c, 1, 81, 127
1, 221760, Note_on_c, 1, 78, 127
1, 221760, Note_on_c, 1, 71, 127
1, 221760, Note_on_c, 1, 66, 127
1, 221760, Note_on_c, 1, 59, 127
1, 221760, Note_on_c, 1, 69, 127
1, 221760, Note_on_c, 1, 51, 127
1, 221760, Note_on_c, 1, 39, 127
1, 221760, Note_on_c, 1, 27, 127
1, 221800, Note_off_c, 1, 69, 0
1, 221800, Note_off_c, 1, 51, 0
1, 221800, Note_off_c, 1, 39, 0
1, 221800, Note_off_c, 1, 27, 0
1, 221818, Note_off_c, 1, 83, 0
1, 221818, Note_off_c, 1, 81, 0
1, 221818, Note_off_c, 1, 78, 0
1, 221818, Note_off_c, 1, 71, 0
1, 221818, Note_off_c, 1, 66, 0
1, 221818, Note_off_c, 1, 59, 0
1, 221820, Note_on_c, 1, 83, 127
1, 221820, Note_on_c, 1, 81, 127
1, 221820, Note_on_c, 1, 78, 127
1, 221820, Note_on_c, 1, 71, 127
1, 221820, Note_on_c, 1, 66, 127
1, 221820, Note_on_c, 1, 59, 127
1, 221820, Note_on_c, 1, 69, 127
1, 221820, Note_on_c, 1, 51, 127
1, 221820, Note_on_c, 1, 39, 127
1, 221820, Note_on_c, 1, 27, 127
1, 221980, Note_off_c, 1, 69, 0
1, 221980, Note_off_c, 1, 51, 0
1, 221980, Note_off_c, 1, 39, 0
1, 221980, Note_off_c, 1, 27, 0
1, 222058, Note_off_c, 1, 83, 0
1, 222058, Note_off_c, 1, 81, 0
1, 222058, Note_off_c, 1, 78, 0
1, 222058, Note_off_c, 1, 71, 0
1, 222058, Note_off_c, 1, 66, 0
1, 222058, Note_off_c, 1, 59, 0
1, 222060, Note_on_c, 1, 83, 127
1, 222060, Note_on_c, 1, 80, 127
1, 222060, Note_on_c, 1, 71, 127
1, 222060, Note_on_c, 1, 76, 127
1, 222060, Note_on_c, 1, 68, 127
1, 222060, Note_on_c, 1, 59, 127
1, 222060, Note_on_c, 1, 64, 127
1, 222060, Note_on_c, 1, 52, 127
1, 222060, Note_on_c, 1, 40, 127
1, 222060, Note_on_c, 1, 28, 127
1, 222298, Note_off_c, 1, 83, 0
1, 222298, Note_off_c, 1, 80, 0
1, 222298, Note_off_c, 1, 71, 0
1, 222298, Note_off_c, 1, 76, 0
1, 222298, Note_off_c, 1, 68, 0
1, 222298, Note_off_c, 1, 59, 0
1, 222298, Note_off_c, 1, 64, 0
1, 222298, Note_off_c, 1, 52, 0
1, 222298, Note_off_c, 1, 40, 0
1, 222298, Note_off_c, 1, 28, 0
1, 222300, Note_on_c, 1, 83, 127
1, 222300, Note_on_c, 1, 80, 127
1, 222300, Note_on_c, 1, 71, 127
1, 222300, Note_on_c, 1, 76, 127
1, 222300, Note_on_c, 1, 68, 127
1, 222300, Note_on_c, 1, 59, 127
1, 222300, Note_on_c, 1, 64, 127
1, 222300, Note_on_c, 1, 52, 127
1, 222300, Note_on_c, 1, 40, 127
1, 222300, Note_on_c, 1, 28, 127
1, 222538, Note_off_c, 1, 83, 0
1, 222538, Note_off_c, 1, 80, 0
1, 222538, Note_off_c, 1, 76, 0
1, 222538, Note_off_c, 1, 40, 0
1, 222538, Note_off_c, 1, 28, 0
1, 222540, Note_off_c, 1, 71, 0
1, 222540, Note_off_c, 1, 68, 0
1, 222540, Note_off_c, 1, 59, 0
1, 222540, Note_off_c, 1, 64, 0
1, 222620, Note_on_c, 1, 66, 127
1, 222659, Note_off_c, 1, 66, 0
1, 222700, Note_on_c, 1, 69, 127
1, 222739, Note_off_c, 1, 69, 0
1, 222780, Note_on_c, 1, 73, 127
1, 222820, Note_on_c, 1, 57, 127
1, 222859, Note_off_c, 1, 57, 0
1, 222869, Note_off_c, 1, 73, 0
1, 222870, Note_on_c, 1, 75, 127
1, 222899, Note_off_c, 1, 75, 0
1, 222900, Note_on_c, 1, 61, 127
1, 222939, Note_off_c, 1, 61, 0
1, 222940, Note_on_c, 1, 78, 127
1, 222940, Note_on_c, 1, 63, 127
1, 222979, Note_off_c, 1, 63, 0
1, 222980, Note_off_c, 1, 78, 0
1, 223300, Note_on_c, 1, 51, 127
1, 223339, Note_off_c, 1, 51, 0
1, 223380, Note_on_c, 1, 54, 127
1, 223419, Note_off_c, 1, 54, 0
1, 223420, Note_on_c, 1, 56, 127
1, 223459, Note_off_c, 1, 56, 0
1, 223540, Note_on_c, 1, 47, 127
1, 223580, Note_off_c, 1, 47, 0
1, 223580, Note_on_c, 1, 49, 127
1, 223620, Note_off_c, 1, 49, 0
1, 223780, Note_on_c, 1, 62, 127
1, 223819, Note_off_c, 1, 62, 0
1, 223900, Note_on_c, 1, 58, 127
1, 223940, Note_off_c, 1, 58, 0
1, 223940, Note_on_c, 1, 74, 127
1, 223978, Note_off_c, 1, 52, 0
1, 223979, Note_off_c, 1, 74, 0
1, 223980, Note_on_c, 1, 85, 127
1, 223980, Note_on_c, 1, 46, 127
1, 223980, Note_on_c, 1, 34, 127
1, 224099, Note_off_c, 1, 85, 0
1, 224460, Note_off_c, 1, 46, 0
1, 224460, Note_off_c, 1, 34, 0
1, 224460, Note_on_c, 1, 86, 127
1, 224460, Note_on_c, 1, 35, 127
1, 224579, Note_off_c, 1, 86, 0
1, 225260, Note_on_c, 1, 70, 127
1, 225300, Note_off_c, 1, 70, 0
1, 225580, Note_on_c, 1, 50, 127
1, 225620, Note_off_c, 1, 50, 0
1, 226060, Note_on_c, 1, 55, 127
1, 226100, Note_off_c, 1, 55, 0
1, 226140, Note_on_c, 1, 67, 127
1, 226180, Note_off_c, 1, 35, 0
1, 226180, Note_off_c, 1, 67, 0
1, 226180, Note_on_c, 1, 38, 127
1, 226220, Note_off_c, 1, 38, 0
1, 226220, Note_on_c, 1, 37, 127
1, 226260, Note_off_c, 1, 37, 0
1, 226300, Note_on_c, 1, 45, 127
1, 226300, Note_on_c, 1, 33, 127
1, 226340, Note_off_c, 1, 45, 0
1, 226340, Note_off_c, 1, 33, 0
1, 226340, Note_on_c, 1, 43, 127
1, 226340, Note_on_c, 1, 31, 127
1, 226380, Note_off_c, 1, 43, 0
1, 226380, Note_off_c, 1, 31, 0
1, 226380, Note_on_c, 1, 81, 127
1, 226380, Note_on_c, 1, 72, 127
1, 226380, Note_on_c, 1, 42, 127
1, 226380, Note_on_c, 1, 30, 127
1, 226860, Note_off_c, 1, 81, 0
1, 226860, Note_off_c, 1, 72, 0
1, 226860, Note_off_c, 1, 42, 0
1, 226860, Note_off_c, 1, 30, 0
1, 226860, Note_on_c, 1, 79, 127
1, 227040, Note_off_c, 1, 79, 0
1, 227220, Note_on_c, 1, 88, 127
1, 227580, Note_off_c, 1, 88, 0
1, 229620, Note_on_c, 1, 66, 127
1, 229620, Note_on_c, 1, 62, 127
1, 229649, Note_off_c, 1, 66, 0
1, 229649, Note_off_c, 1, 62, 0
1, 229650, Note_on_c, 1, 67, 127
1, 229650, Note_on_c, 1, 64, 127
1, 229679, Note_off_c, 1, 67, 0
1, 229679, Note_off_c, 1, 64, 0
1, 229680, Note_on_c, 1, 69, 127
1, 229680, Note_on_c, 1, 66, 127
1, 229680, Note_on_c, 1, 54, 127
1, 229680, Note_on_c, 1, 42, 127
1, 229709, Note_off_c, 1, 54, 0
1, 229709, Note_off_c, 1, 42, 0
1, 229710, Note_off_c, 1, 69, 0
1, 229710, Note_off_c, 1, 66, 0
1, 229710, Note_on_c, 1, 55, 127
1, 229710, Note_on_c, 1, 43, 127
1, 229739, Note_off_c, 1, 55, 0
1, 229739, Note_off_c, 1, 43, 0
1, 229740, Note_on_c, 1, 69, 127
1, 229740, Note_on_c, 1, 66, 127
1, 229740, Note_on_c, 1, 57, 127
1, 229740, Note_on_c, 1, 45, 127
1, 229769, Note_off_c, 1, 69, 0
1, 229769, Note_off_c, 1, 66, 0
1, 229770, Note_on_c, 1, 67, 127
1, 229770, Note_on_c, 1, 64, 127
1, 229799, Note_off_c, 1, 57, 0
1, 229799, Note_off_c, 1, 45, 0
1, 229799, Note_off_c, 1, 67, 0
1, 229799, Note_off_c, 1, 64, 0
1, 229800, Note_on_c, 1, 66, 127
1, 229800, Note_on_c, 1, 62, 127
1, 229800, Note_on_c, 1, 45, 127
1, 229800, Note_on_c, 1, 33, 127
1, 229829, Note_off_c, 1, 66, 0
1, 229829, Note_off_c, 1, 62, 0
1, 229830, Note_on_c, 1, 64, 127
1, 229830, Note_on_c, 1, 61, 127
1, 229859, Note_off_c, 1, 45, 0
1, 229859, Note_off_c, 1, 33, 0
1, 229859, Note_off_c, 1, 64, 0
1, 229859, Note_off_c, 1, 61, 0
1, 229860, Note_on_c, 1, 66, 127
1, 229860, Note_on_c, 1, 62, 127
1, 229860, Note_on_c, 1, 50, 127
1, 229860, Note_on_c, 1, 38, 127
1, 229919, Note_off_c, 1, 50, 0
1, 229919, Note_off_c, 1, 38, 0
1, 229920, Note_on_c, 1, 78, 127
1, 229949, Note_off_c, 1, 78, 0
1, 229950, Note_on_c, 1, 76, 127
1, 229950, Note_on_c, 1, 64, 127
1, 229950, Note_on_c, 1, 61, 127
1, 229950, Note_on_c, 1, 49, 127
1, 229979, Note_off_c, 1, 66, 0
1, 229979, Note_off_c, 1, 62, 0
1, 229979, Note_off_c, 1, 76, 0
1, 229979, Note_off_c, 1, 64, 0
1, 229979, Note_off_c, 1, 61, 0
1, 229979, Note_off_c, 1, 49, 0
1, 229980, Note_on_c, 1, 74, 127
1, 229980, Note_on_c, 1, 66, 127
1, 229980, Note_on_c, 1, 62, 127
1, 229980, Note_on_c, 1, 59, 127
1, 229980, Note_on_c, 1, 47, 127
1, 230009, Note_off_c, 1, 74, 0
1, 230010, Note_on_c, 1, 76, 127
1, 230010, Note_on_c, 1, 67, 127
1, 230039, Note_off_c, 1, 59, 0
1, 230039, Note_off_c, 1, 47, 0
1, 230039, Note_off_c, 1, 76, 0
1, 230039, Note_off_c, 1, 67, 0
1, 230040, Note_on_c, 1, 78, 127
1, 230040, Note_on_c, 1, 69, 127
1, 230040, Note_on_c, 1, 54, 127
1, 230040, Note_on_c, 1, 57, 127
1, 230040, Note_on_c, 1, 45, 127
1, 230069, Note_off_c, 1, 54, 0
1, 230069, Note_off_c, 1, 57, 0
1, 230069, Note_off_c, 1, 45, 0
1, 230070, Note_off_c, 1, 78, 0
1, 230070, Note_off_c, 1, 69, 0
1, 230070, Note_on_c, 1, 55, 127
1, 230070, Note_on_c, 1, 43, 127
1, 230099, Note_off_c, 1, 55, 0
1, 230099, Note_off_c, 1, 43, 0
1, 230100, Note_off_c, 1, 66, 0
1, 230100, Note_off_c, 1, 62, 0
1, 230160, Note_on_c, 1, 74, 127
1, 230160, Note_on_c, 1, 66, 127
1, 230160, Note_on_c, 1, 45, 127
1, 230160, Note_on_c, 1, 33, 127
1, 230189, Note_off_c, 1, 74, 0
1, 230189, Note_off_c, 1, 66, 0
1, 230190, Note_on_c, 1, 73, 127
1, 230190, Note_on_c, 1, 64, 127
1, 230219, Note_off_c, 1, 45, 0
1, 230219, Note_off_c, 1, 33, 0
1, 230219, Note_off_c, 1, 73, 0
1, 230219, Note_off_c, 1, 64, 0
1, 230220, Note_on_c, 1, 81, 127
1, 230220, Note_on_c, 1, 78, 127
1, 230220, Note_on_c, 1, 74, 127
1, 230220, Note_on_c, 1, 50, 127
1, 230220, Note_on_c, 1, 66, 127
1, 230220, Note_on_c, 1, 38, 127
1, 230250, Note_on_c, 1, 86, 127
1, 230279, Note_off_c, 1, 81, 0
1, 230279, Note_off_c, 1, 38, 0
1, 230279, Note_off_c, 1, 86, 0
1, 230280, Note_on_c, 1, 69, 127
1, 230280, Note_on_c, 1, 85, 127
1, 230280, Note_on_c, 1, 62, 127
1, 230309, Note_off_c, 1, 85, 0
1, 230310, Note_on_c, 1, 83, 127
1, 230310, Note_on_c, 1, 79, 127
1, 230339, Note_off_c, 1, 78, 0
1, 230339, Note_off_c, 1, 50, 0
1, 230339, Note_off_c, 1, 66, 0
1, 230339, Note_off_c, 1, 69, 0
1, 230339, Note_off_c, 1, 62, 0
1, 230339, Note_off_c, 1, 83, 0
1, 230339, Note_off_c, 1, 79, 0
1, 230370, Note_on_c, 1, 76, 127
1, 230399, Note_off_c, 1, 76, 0
1, 230580, Note_on_c, 1, 47, 127
1, 230580, Note_on_c, 1, 35, 127
1, 230639, Note_off_c, 1, 47, 0
1, 230639, Note_off_c, 1, 35, 0
1, 230640, Note_on_c, 1, 59, 127
1, 230699, Note_off_c, 1, 59, 0
1, 230940, Note_on_c, 1, 42, 127
1, 230940, Note_on_c, 1, 30, 127
1, 230999, Note_off_c, 1, 42, 0
1, 230999, Note_off_c, 1, 30, 0
1, 231000, Note_off_c, 1, 74, 0
1, 231000, Note_on_c, 1, 57, 127
1, 231000, Note_on_c, 1, 54, 127
1, 231029, Note_off_c, 1, 57, 0
1, 231030, Note_on_c, 1, 61, 127
1, 231030, Note_on_c, 1, 55, 127
1, 231030, Note_on_c, 1, 52, 127
1, 231059, Note_off_c, 1, 54, 0
1, 231059, Note_off_c, 1, 61, 0
1, 231059, Note_off_c, 1, 55, 0
1, 231059, Note_off_c, 1, 52, 0
1, 231060, Note_on_c, 1, 62, 127
1, 231060, Note_on_c, 1, 57, 127
1, 231060, Note_on_c, 1, 54, 127
1, 231089, Note_off_c, 1, 62, 0
1, 231089, Note_off_c, 1, 54, 0
1, 231090, Note_on_c, 1, 64, 127
1, 231090, Note_on_c, 1, 55, 127
1, 231119, Note_off_c, 1, 57, 0
1, 231119, Note_off_c, 1, 64, 0
1, 231119, Note_off_c, 1, 55, 0
1, 231120, Note_on_c, 1, 66, 127
1, 231120, Note_on_c, 1, 62, 127
1, 231120, Note_on_c, 1, 57, 127
1, 231120, Note_on_c, 1, 54, 127
1, 231120, Note_on_c, 1, 42, 127
1, 231149, Note_off_c, 1, 66, 0
1, 231149, Note_off_c, 1, 57, 0
1, 231149, Note_off_c, 1, 54, 0
1, 231149, Note_off_c, 1, 42, 0
1, 231150, Note_on_c, 1, 55, 127
1, 231150, Note_on_c, 1, 43, 127
1, 231179, Note_off_c, 1, 62, 0
1, 231179, Note_off_c, 1, 55, 0
1, 231179, Note_off_c, 1, 43, 0
1, 231180, Note_on_c, 1, 66, 127
1, 231180, Note_on_c, 1, 62, 127
1, 231180, Note_on_c, 1, 57, 127
1, 231180, Note_on_c, 1, 45, 127
1, 231209, Note_off_c, 1, 66, 0
1, 231210, Note_on_c, 1, 64, 127
1, 231210, Note_on_c, 1, 55, 127
1, 231239, Note_off_c, 1, 62, 0
1, 231239, Note_off_c, 1, 57, 0
1, 231239, Note_off_c, 1, 45, 0
1, 231239, Note_off_c, 1, 64, 0
1, 231239, Note_off_c, 1, 55, 0
1, 231240, Note_on_c, 1, 62, 127
1, 231240, Note_on_c, 1, 57, 127
1, 231240, Note_on_c, 1, 54, 127
1, 231240, Note_on_c, 1, 45, 127
1, 231240, Note_on_c, 1, 33, 127
1, 231269, Note_off_c, 1, 62, 0
1, 231269, Note_off_c, 1, 54, 0
1, 231270, Note_on_c, 1, 61, 127
1, 231270, Note_on_c, 1, 52, 127
1, 231299, Note_off_c, 1, 57, 0
1, 231299, Note_off_c, 1, 45, 0
1, 231299, Note_off_c, 1, 33, 0
1, 231299, Note_off_c, 1, 61, 0
1, 231299, Note_off_c, 1, 52, 0
1, 231300, Note_on_c, 1, 62, 127
1, 231300, Note_on_c, 1, 57, 127
1, 231300, Note_on_c, 1, 54, 127
1, 231300, Note_on_c, 1, 50, 127
1, 231300, Note_on_c, 1, 38, 127
1, 231359, Note_off_c, 1, 50, 0
1, 231359, Note_off_c, 1, 38, 0
1, 231360, Note_on_c, 1, 81, 127
1, 231360, Note_on_c, 1, 74, 127
1, 231360, Note_on_c, 1, 78, 127
1, 231389, Note_off_c, 1, 62, 0
1, 231389, Note_off_c, 1, 54, 0
1, 231390, Note_on_c, 1, 76, 127
1, 231390, Note_on_c, 1, 61, 127
1, 231390, Note_on_c, 1, 49, 127
1, 231419, Note_off_c, 1, 57, 0
1, 231419, Note_off_c, 1, 81, 0
1, 231419, Note_off_c, 1, 78, 0
1, 231419, Note_off_c, 1, 76, 0
1, 231419, Note_off_c, 1, 61, 0
1, 231419, Note_off_c, 1, 49, 0
1, 231420, Note_on_c, 1, 86, 127
1, 231420, Note_on_c, 1, 83, 127
1, 231420, Note_on_c, 1, 59, 127
1, 231420, Note_on_c, 1, 47, 127
1, 231449, Note_off_c, 1, 74, 0
1, 231450, Note_on_c, 1, 79, 127
1, 231479, Note_off_c, 1, 86, 0
1, 231479, Note_off_c, 1, 83, 0
1, 231479, Note_off_c, 1, 59, 0
1, 231479, Note_off_c, 1, 47, 0
1, 231479, Note_off_c, 1, 79, 0
1, 231480, Note_on_c, 1, 85, 127
1, 231480, Note_on_c, 1, 81, 127
1, 231480, Note_on_c, 1, 78, 127
1, 231480, Note_on_c, 1, 74, 127
1, 231480, Note_on_c, 1, 62, 127
1, 231480, Note_on_c, 1, 54, 127
1, 231480, Note_on_c, 1, 57, 127
1, 231480, Note_on_c, 1, 45, 127
1, 231509, Note_off_c, 1, 85, 0
1, 231509, Note_off_c, 1, 74, 0
1, 231509, Note_off_c, 1, 54, 0
1, 231509, Note_off_c, 1, 57, 0
1, 231509, Note_off_c, 1, 45, 0
1, 231510, Note_off_c, 1, 81, 0
1, 231510, Note_on_c, 1, 83, 127
1, 231510, Note_on_c, 1, 76, 127
1, 231510, Note_on_c, 1, 64, 127
1, 231510, Note_on_c, 1, 55, 127
1, 231510, Note_on_c, 1, 43, 127
1, 231539, Note_off_c, 1, 83, 0
1, 231539, Note_off_c, 1, 76, 0
1, 231539, Note_off_c, 1, 64, 0
1, 231539, Note_off_c, 1, 55, 0
1, 231539, Note_off_c, 1, 43, 0
1, 231540, Note_on_c, 1, 66, 127
1, 231569, Note_off_c, 1, 78, 0
1, 231569, Note_off_c, 1, 66, 0
1, 231570, Note_on_c, 1, 79, 127
1, 231570, Note_on_c, 1, 67, 127
1, 231599, Note_off_c, 1, 62, 0
1, 231599, Note_off_c, 1, 79, 0
1, 231599, Note_off_c, 1, 67, 0
1, 231600, Note_on_c, 1, 78, 127
1, 231600, Note_on_c, 1, 74, 127
1, 231600, Note_on_c, 1, 81, 127
1, 231600, Note_on_c, 1, 57, 127
1, 231600, Note_on_c, 1, 69, 127
1, 231600, Note_on_c, 1, 45, 127
1, 231600, Note_on_c, 1, 33, 127
1, 231629, Note_off_c, 1, 78, 0
1, 231629, Note_off_c, 1, 74, 0
1, 231629, Note_off_c, 1, 81, 0
1, 231630, Note_on_c, 1, 76, 127
1, 231630, Note_on_c, 1, 73, 127
1, 231659, Note_off_c, 1, 57, 0
1, 231659, Note_off_c, 1, 69, 0
1, 231659, Note_off_c, 1, 45, 0
1, 231659, Note_off_c, 1, 33, 0
1, 231659, Note_off_c, 1, 76, 0
1, 231659, Note_off_c, 1, 73, 0
1, 231660, Note_on_c, 1, 78, 127
1, 231660, Note_on_c, 1, 74, 127
1, 231660, Note_on_c, 1, 81, 127
1, 231660, Note_on_c, 1, 69, 127
1, 231660, Note_on_c, 1, 57, 127
1, 231660, Note_on_c, 1, 50, 127
1, 231660, Note_on_c, 1, 38, 127
1, 231719, Note_off_c, 1, 38, 0
1, 231720, Note_on_c, 1, 26, 127
1, 231749, Note_off_c, 1, 78, 0
1, 231749, Note_off_c, 1, 74, 0
1, 231749, Note_off_c, 1, 81, 0
1, 231749, Note_off_c, 1, 69, 0
1, 231749, Note_off_c, 1, 57, 0
1, 231749, Note_off_c, 1, 50, 0
1, 231750, Note_on_c, 1, 76, 127
1, 231750, Note_on_c, 1, 73, 127
1, 231750, Note_on_c, 1, 79, 127
1, 231750, Note_on_c, 1, 67, 127
1, 231779, Note_off_c, 1, 26, 0
1, 231779, Note_off_c, 1, 76, 0
1, 231779, Note_off_c, 1, 73, 0
1, 231779, Note_off_c, 1, 79, 0
1, 231779, Note_off_c, 1, 67, 0
1, 231780, Note_on_c, 1, 78, 127
1, 231780, Note_on_c, 1, 74, 127
1, 231780, Note_on_c, 1, 50, 127
1, 231780, Note_on_c, 1, 69, 127
1, 231780, Note_on_c, 1, 66, 127
1, 231780, Note_on_c, 1, 57, 127
1, 231810, Note_on_c, 1, 79, 127
1, 231810, Note_on_c, 1, 76, 127
1, 231839, Note_off_c, 1, 79, 0
1, 231839, Note_off_c, 1, 76, 0
1, 231840, Note_on_c, 1, 81, 127
1, 231840, Note_on_c, 1, 62, 127
1, 231899, Note_off_c, 1, 78, 0
1, 231899, Note_off_c, 1, 74, 0
1, 231899, Note_off_c, 1, 50, 0
1, 231899, Note_off_c, 1, 69, 0
1, 231899, Note_off_c, 1, 66, 0
1, 231899, Note_off_c, 1, 57, 0
1, 231899, Note_off_c, 1, 81, 0
1, 231899, Note_off_c, 1, 62, 0
1, 231900, Note_on_c, 1, 81, 127
1, 231900, Note_on_c, 1, 76, 127
1, 231900, Note_on_c, 1, 69, 127
1, 231900, Note_on_c, 1, 45, 127
1, 231900, Note_on_c, 1, 61, 127
1, 231900, Note_on_c, 1, 49, 127
1, 231929, Note_off_c, 1, 81, 0
1, 231930, Note_on_c, 1, 79, 127
1, 231959, Note_off_c, 1, 76, 0
1, 231959, Note_off_c, 1, 69, 0
1, 231959, Note_off_c, 1, 45, 0
1, 231959, Note_off_c, 1, 61, 0
1, 231959, Note_off_c, 1, 49, 0
1, 231959, Note_off_c, 1, 79, 0
1, 231960, Note_on_c, 1, 78, 127
1, 231960, Note_on_c, 1, 69, 127
1, 231960, Note_on_c, 1, 45, 127
1, 231960, Note_on_c, 1, 57, 127
1, 231989, Note_off_c, 1, 78, 0
1, 231990, Note_on_c, 1, 76, 127
1, 232019, Note_off_c, 1, 69, 0
1, 232019, Note_off_c, 1, 45, 0
1, 232019, Note_off_c, 1, 57, 0
1, 232019, Note_off_c, 1, 76, 0
1, 232020, Note_on_c, 1, 74, 127
1, 232020, Note_on_c, 1, 66, 127
1, 232020, Note_on_c, 1, 62, 127
1, 232020, Note_on_c, 1, 50, 127
1, 232020, Note_on_c, 1, 59, 127
1, 232020, Note_on_c, 1, 47, 127
1, 232079, Note_off_c, 1, 74, 0
1, 232079, Note_off_c, 1, 66, 0
1, 232079, Note_off_c, 1, 62, 0
1, 232079, Note_off_c, 1, 50, 0
1, 232079, Note_off_c, 1, 59, 0
1, 232079, Note_off_c, 1, 47, 0
1, 232080, Note_on_c, 1, 71, 127
1, 232080, Note_on_c, 1, 66, 127
1, 232080, Note_on_c, 1, 62, 127
1, 232080, Note_on_c, 1, 50, 127
1, 232080, Note_on_c, 1, 47, 127
1, 232080, Note_on_c, 1, 35, 127
1, 232109, Note_off_c, 1, 71, 0
1, 232109, Note_off_c, 1, 66, 0
1, 232109, Note_off_c, 1, 62, 0
1, 232109, Note_off_c, 1, 50, 0
1, 232110, Note_on_c, 1, 73, 127
1, 232110, Note_on_c, 1, 70, 127
1, 232110, Note_on_c, 1, 64, 127
1, 232110, Note_on_c, 1, 61, 127
1, 232110, Note_on_c, 1, 52, 127
1, 232139, Note_off_c, 1, 47, 0
1, 232139, Note_off_c, 1, 35, 0
1, 232139, Note_off_c, 1, 73, 0
1, 232139, Note_off_c, 1, 70, 0
1, 232139, Note_off_c, 1, 64, 0
1, 232139, Note_off_c, 1, 61, 0
1, 232139, Note_off_c, 1, 52, 0
1, 232140, Note_on_c, 1, 74, 127
1, 232140, Note_on_c, 1, 71, 127
1, 232140, Note_on_c, 1, 62, 127
1, 232140, Note_on_c, 1, 59, 127
1, 232140, Note_on_c, 1, 54, 127
1, 232169, Note_off_c, 1, 74, 0
1, 232169, Note_off_c, 1, 71, 0
1, 232170, Note_on_c, 1, 76, 127
1, 232170, Note_on_c, 1, 73, 127
1, 232199, Note_off_c, 1, 62, 0
1, 232199, Note_off_c, 1, 59, 0
1, 232199, Note_off_c, 1, 54, 0
1, 232199, Note_off_c, 1, 76, 0
1, 232199, Note_off_c, 1, 73, 0
1, 232200, Note_on_c, 1, 78, 127
1, 232200, Note_on_c, 1, 74, 127
1, 232200, Note_on_c, 1, 59, 127
1, 232200, Note_on_c, 1, 54, 127
1, 232200, Note_on_c, 1, 47, 127
1, 232230, Note_off_c, 1, 78, 0
1, 232230, Note_off_c, 1, 74, 0
1, 232259, Note_off_c, 1, 59, 0
1, 232259, Note_off_c, 1, 54, 0
1, 232259, Note_off_c, 1, 47, 0
1, 232260, Note_on_c, 1, 78, 127
1, 232260, Note_on_c, 1, 73, 127
1, 232260, Note_on_c, 1, 61, 127
1, 232260, Note_on_c, 1, 57, 127
1, 232260, Note_on_c, 1, 45, 127
1, 232289, Note_off_c, 1, 78, 0
1, 232290, Note_on_c, 1, 76, 127
1, 232319, Note_off_c, 1, 73, 0
1, 232319, Note_off_c, 1, 61, 0
1, 232319, Note_off_c, 1, 57, 0
1, 232319, Note_off_c, 1, 45, 0
1, 232319, Note_off_c, 1, 76, 0
1, 232320, Note_on_c, 1, 74, 127
1, 232320, Note_on_c, 1, 69, 127
1, 232320, Note_on_c, 1, 66, 127
1, 232320, Note_on_c, 1, 62, 127
1, 232320, Note_on_c, 1, 54, 127
1, 232320, Note_on_c, 1, 42, 127
1, 232349, Note_off_c, 1, 74, 0
1, 232350, Note_on_c, 1, 73, 127
1, 232379, Note_off_c, 1, 69, 0
1, 232379, Note_off_c, 1, 66, 0
1, 232379, Note_off_c, 1, 62, 0
1, 232379, Note_off_c, 1, 54, 0
1, 232379, Note_off_c, 1, 42, 0
1, 232379, Note_off_c, 1, 73, 0
1, 232380, Note_on_c, 1, 71, 127
1, 232380, Note_on_c, 1, 62, 127
1, 232380, Note_on_c, 1, 55, 127
1, 232380, Note_on_c, 1, 43, 127
1, 232439, Note_off_c, 1, 71, 0
1, 232439, Note_off_c, 1, 62, 0
1, 232439, Note_off_c, 1, 55, 0
1, 232439, Note_off_c, 1, 43, 0
1, 232440, Note_on_c, 1, 79, 127
1, 232440, Note_on_c, 1, 71, 127
1, 232440, Note_on_c, 1, 43, 127
1, 232440, Note_on_c, 1, 31, 127
1, 232469, Note_off_c, 1, 79, 0
1, 232470, Note_off_c, 1, 71, 0
1, 232470, Note_on_c, 1, 81, 127
1, 232470, Note_on_c, 1, 72, 127
1, 232499, Note_off_c, 1, 43, 0
1, 232499, Note_off_c, 1, 31, 0
1, 232499, Note_off_c, 1, 81, 0
1, 232500, Note_off_c, 1, 72, 0
1, 232500, Note_on_c, 1, 83, 127
1, 232500, Note_on_c, 1, 74, 127
1, 232529, Note_off_c, 1, 83, 0
1, 232530, Note_on_c, 1, 84, 127
1, 232559, Note_off_c, 1, 84, 0
1, 232560, Note_off_c, 1, 74, 0
1, 232560, Note_on_c, 1, 86, 127
1, 232560, Note_on_c, 1, 55, 127
1, 232619, Note_off_c, 1, 86, 0
1, 232619, Note_off_c, 1, 55, 0
1, 232620, Note_on_c, 1, 54, 127
1, 232620, Note_on_c, 1, 42, 127
1, 232679, Note_off_c, 1, 54, 0
1, 232679, Note_off_c, 1, 42, 0
1, 232680, Note_on_c, 1, 78, 127
1, 232680, Note_on_c, 1, 50, 127
1, 232680, Note_on_c, 1, 38, 127
1, 232739, Note_off_c, 1, 50, 0
1, 232739, Note_off_c, 1, 38, 0
1, 232740, Note_off_c, 1, 78, 0
1, 232740, Note_on_c, 1, 52, 127
1, 232740, Note_on_c, 1, 40, 127
1, 232799, Note_off_c, 1, 52, 0
1, 232799, Note_off_c, 1, 40, 0
1, 232800, Note_on_c, 1, 76, 127
1, 232800, Note_on_c, 1, 64, 127
1, 232800, Note_on_c, 1, 67, 127
1, 232800, Note_on_c, 1, 59, 127
1, 232800, Note_on_c, 1, 28, 127
1, 232829, Note_off_c, 1, 76, 0
1, 232829, Note_off_c, 1, 64, 0
1, 232829, Note_off_c, 1, 67, 0
1, 232829, Note_off_c, 1, 59, 0
1, 232830, Note_on_c, 1, 75, 127
1, 232830, Note_on_c, 1, 66, 127
1, 232830, Note_on_c, 1, 69, 127
1, 232830, Note_on_c, 1, 57, 127
1, 232859, Note_off_c, 1, 28, 0
1, 232859, Note_off_c, 1, 75, 0
1, 232859, Note_off_c, 1, 66, 0
1, 232859, Note_off_c, 1, 69, 0
1, 232859, Note_off_c, 1, 57, 0
1, 232860, Note_on_c, 1, 76, 127
1, 232860, Note_on_c, 1, 67, 127
1, 232860, Note_on_c, 1, 71, 127
1, 232860, Note_on_c, 1, 55, 127
1, 232860, Note_on_c, 1, 52, 127
1, 232889, Note_off_c, 1, 76, 0
1, 232889, Note_off_c, 1, 67, 0
1, 232890, Note_on_c, 1, 78, 127
1, 232890, Note_on_c, 1, 69, 127
1, 232919, Note_off_c, 1, 71, 0
1, 232919, Note_off_c, 1, 55, 0
1, 232919, Note_off_c, 1, 52, 0
1, 232919, Note_off_c, 1, 78, 0
1, 232919, Note_off_c, 1, 69, 0
1, 232920, Note_on_c, 1, 79, 127
1, 232920, Note_on_c, 1, 71, 127
1, 232920, Note_on_c, 1, 67, 127
1, 232920, Note_on_c, 1, 52, 127
1, 232920, Note_on_c, 1, 40, 127
1, 232949, Note_off_c, 1, 71, 0
1, 232979, Note_off_c, 1, 79, 0
1, 232979, Note_off_c, 1, 67, 0
1, 232979, Note_off_c, 1, 52, 0
1, 232979, Note_off_c, 1, 40, 0
1, 232980, Note_on_c, 1, 78, 127
1, 232980, Note_on_c, 1, 71, 127
1, 232980, Note_on_c, 1, 69, 127
1, 232980, Note_on_c, 1, 54, 127
1, 232980, Note_on_c, 1, 51, 127
1, 232980, Note_on_c, 1, 39, 127
1, 233009, Note_off_c, 1, 71, 0
1, 233039, Note_off_c, 1, 78, 0
1, 233039, Note_off_c, 1, 69, 0
1, 233039, Note_off_c, 1, 54, 0
1, 233039, Note_off_c, 1, 51, 0
1, 233039, Note_off_c, 1, 39, 0
1, 233040, Note_on_c, 1, 75, 127
1, 233040, Note_on_c, 1, 67, 127
1, 233040, Note_on_c, 1, 71, 127
1, 233040, Note_on_c, 1, 59, 127
1, 233040, Note_on_c, 1, 47, 127
1, 233040, Note_on_c, 1, 35, 127
1, 233069, Note_off_c, 1, 67, 0
1, 233070, Note_on_c, 1, 66, 127
1, 233099, Note_off_c, 1, 75, 0
1, 233099, Note_off_c, 1, 71, 0
1, 233099, Note_off_c, 1, 59, 0
1, 233099, Note_off_c, 1, 47, 0
1, 233099, Note_off_c, 1, 35, 0
1, 233099, Note_off_c, 1, 66, 0
1, 233100, Note_on_c, 1, 76, 127
1, 233100, Note_on_c, 1, 67, 127
1, 233100, Note_on_c, 1, 71, 127
1, 233100, Note_on_c, 1, 59, 127
1, 233100, Note_on_c, 1, 52, 127
1, 233100, Note_on_c, 1, 40, 127
1, 233159, Note_off_c, 1, 40, 0
1, 233160, Note_on_c, 1, 28, 127
1, 233189, Note_off_c, 1, 76, 0
1, 233189, Note_off_c, 1, 67, 0
1, 233189, Note_off_c, 1, 59, 0
1, 233189, Note_off_c, 1, 52, 0
1, 233190, Note_on_c, 1, 78, 127
1, 233190, Note_on_c, 1, 75, 127
1, 233190, Note_on_c, 1, 66, 127
1, 233190, Note_on_c, 1, 69, 127
1, 233219, Note_off_c, 1, 71, 0
1, 233219, Note_off_c, 1, 28, 0
1, 233219, Note_off_c, 1, 78, 0
1, 233219, Note_off_c, 1, 75, 0
1, 233219, Note_off_c, 1, 66, 0
1, 233219, Note_off_c, 1, 69, 0
1, 233220, Note_on_c, 1, 79, 127
1, 233220, Note_on_c, 1, 64, 127
1, 233249, Note_off_c, 1, 79, 0
1, 233250, Note_on_c, 1, 81, 127
1, 233279, Note_off_c, 1, 81, 0
1, 233280, Note_on_c, 1, 83, 127
1, 233309, Note_off_c, 1, 83, 0
1, 233310, Note_on_c, 1, 54, 127
1, 233310, Note_on_c, 1, 42, 127
1, 233339, Note_off_c, 1, 64, 0
1, 233339, Note_off_c, 1, 54, 0
1, 233339, Note_off_c, 1, 42, 0
1, 233340, Note_on_c, 1, 55, 127
1, 233340, Note_on_c, 1, 43, 127
1, 233369, Note_off_c, 1, 55, 0
1, 233369, Note_off_c, 1, 43, 0
1, 233370, Note_on_c, 1, 81, 127
1, 233370, Note_on_c, 1, 78, 127
1, 233370, Note_on_c, 1, 57, 127
1, 233370, Note_on_c, 1, 45, 127
1, 233399, Note_off_c, 1, 81, 0
1, 233399, Note_off_c, 1, 78, 0
1, 233399, Note_off_c, 1, 57, 0
1, 233399, Note_off_c, 1, 45, 0
1, 233400, Note_on_c, 1, 79, 127
1, 233400, Note_on_c, 1, 76, 127
1, 233400, Note_on_c, 1, 59, 127
1, 233400, Note_on_c, 1, 47, 127
1, 233429, Note_off_c, 1, 79, 0
1, 233429, Note_off_c, 1, 76, 0
1, 233430, Note_on_c, 1, 78, 127
1, 233430, Note_on_c, 1, 74, 127
1, 233459, Note_off_c, 1, 59, 0
1, 233459, Note_off_c, 1, 47, 0
1, 233459, Note_off_c, 1, 78, 0
1, 233459, Note_off_c, 1, 74, 0
1, 233460, Note_on_c, 1, 76, 127
1, 233460, Note_on_c, 1, 81, 127
1, 233460, Note_on_c, 1, 49, 127
1, 233460, Note_on_c, 1, 37, 127
1, 233489, Note_off_c, 1, 76, 0
1, 233490, Note_on_c, 1, 78, 127
1, 233519, Note_off_c, 1, 81, 0
1, 233519, Note_off_c, 1, 49, 0
1, 233519, Note_off_c, 1, 37, 0
1, 233519, Note_off_c, 1, 78, 0
1, 233520, Note_on_c, 1, 79, 127
1, 233520, Note_on_c, 1, 76, 127
1, 233520, Note_on_c, 1, 69, 127
1, 233520, Note_on_c, 1, 61, 127
1, 233520, Note_on_c, 1, 49, 127
1, 233549, Note_off_c, 1, 79, 0
1, 233549, Note_off_c, 1, 69, 0
1, 233550, Note_on_c, 1, 71, 127
1, 233550, Note_on_c, 1, 62, 127
1, 233579, Note_off_c, 1, 76, 0
1, 233579, Note_off_c, 1, 61, 0
1, 233579, Note_off_c, 1, 49, 0
1, 233579, Note_off_c, 1, 71, 0
1, 233579, Note_off_c, 1, 62, 0
1, 233580, Note_on_c, 1, 79, 127
1, 233580, Note_on_c, 1, 76, 127
1, 233580, Note_on_c, 1, 73, 127
1, 233580, Note_on_c, 1, 64, 127
1, 233609, Note_off_c, 1, 73, 0
1, 233609, Note_off_c, 1, 64, 0
1, 233610, Note_on_c, 1, 74, 127
1, 233610, Note_on_c, 1, 66, 127
1, 233639, Note_off_c, 1, 74, 0
1, 233639, Note_off_c, 1, 66, 0
1, 233640, Note_on_c, 1, 67, 127
1, 233640, Note_on_c, 1, 49, 127
1, 233640, Note_on_c, 1, 37, 127
1, 233669, Note_off_c, 1, 67, 0
1, 233669, Note_off_c, 1, 49, 0
1, 233669, Note_off_c, 1, 37, 0
1, 233670, Note_on_c, 1, 50, 127
1, 233670, Note_on_c, 1, 38, 127
1, 233699, Note_off_c, 1, 50, 0
1, 233699, Note_off_c, 1, 38, 0
1, 233700, Note_on_c, 1, 52, 127
1, 233700, Note_on_c, 1, 40, 127
1, 233729, Note_off_c, 1, 52, 0
1, 233729, Note_off_c, 1, 40, 0
1, 233730, Note_on_c, 1, 54, 127
1, 233730, Note_on_c, 1, 42, 127
1, 233759, Note_off_c, 1, 54, 0
1, 233759, Note_off_c, 1, 42, 0
1, 233760, Note_on_c, 1, 55, 127
1, 233760, Note_on_c, 1, 43, 127
1, 233790, Note_on_c, 1, 71, 127
1, 233790, Note_on_c, 1, 62, 127
1, 233819, Note_off_c, 1, 55, 0
1, 233819, Note_off_c, 1, 43, 0
1, 233819, Note_off_c, 1, 71, 0
1, 233819, Note_off_c, 1, 62, 0
1, 233820, Note_on_c, 1, 45, 127
1, 233820, Note_on_c, 1, 33, 127
1, 233879, Note_off_c, 1, 45, 0
1, 233879, Note_off_c, 1, 33, 0
1, 233880, Note_on_c, 1, 69, 127
1, 233880, Note_on_c, 1, 61, 127
1, 233880, Note_on_c, 1, 57, 127
1, 233909, Note_off_c, 1, 69, 0
1, 233909, Note_off_c, 1, 61, 0
1, 233939, Note_off_c, 1, 57, 0
1, 233970, Note_on_c, 1, 78, 127
1, 233999, Note_off_c, 1, 78, 0
1, 234030, Note_on_c, 1, 47, 127
1, 234030, Note_on_c, 1, 35, 127
1, 234059, Note_off_c, 1, 47, 0
1, 234059, Note_off_c, 1, 35, 0
1, 234180, Note_on_c, 1, 30, 127
1, 234239, Note_off_c, 1, 30, 0
1, 234330, Note_on_c, 1, 59, 127
1, 234359, Note_off_c, 1, 59, 0
1, 234390, Note_on_c, 1, 31, 127
1, 234419, Note_off_c, 1, 31, 0
1, 234420, Note_off_c, 1, 79, 0
1, 234449, Note_off_c, 1, 76, 0
1, 234450, Note_on_c, 1, 81, 127
1, 234479, Note_off_c, 1, 81, 0
1, 234540, Note_on_c, 1, 26, 127
1, 234599, Note_off_c, 1, 26, 0
1, 234660, Note_on_c, 1, 86, 127
1, 234719, Note_off_c, 1, 86, 0
1, 234960, Note_on_c, 1, 85, 127
1, 234989, Note_off_c, 1, 85, 0
1, 234990, Note_on_c, 1, 83, 127
1, 235019, Note_off_c, 1, 83, 0
1, 235980, Note_on_c, 1, 50, 127
1, 235980, Note_on_c, 1, 74, 127
1, 235980, Note_on_c, 1, 86, 127
1, 235980, Note_on_c, 1, 78, 127
1, 235980, Note_on_c, 1, 66, 127
1, 235980, Note_on_c, 1, 62, 127
1, 235980, Note_on_c, 1, 59, 127
1, 235980, Note_on_c, 1, 47, 127
1, 235980, Note_on_c, 1, 35, 127
1, 236009, Note_off_c, 1, 66, 0
1, 236009, Note_off_c, 1, 62, 0
1, 236010, Note_on_c, 1, 73, 127
1, 236010, Note_on_c, 1, 67, 127
1, 236010, Note_on_c, 1, 64, 127
1, 236039, Note_off_c, 1, 74, 0
1, 236039, Note_off_c, 1, 86, 0
1, 236039, Note_off_c, 1, 78, 0
1, 236039, Note_off_c, 1, 59, 0
1, 236039, Note_off_c, 1, 47, 0
1, 236039, Note_off_c, 1, 35, 0
1, 236039, Note_off_c, 1, 73, 0
1, 236039, Note_off_c, 1, 67, 0
1, 236039, Note_off_c, 1, 64, 0
1, 236040, Note_on_c, 1, 69, 127
1, 236040, Note_on_c, 1, 57, 127
1, 236040, Note_on_c, 1, 45, 127
1, 236040, Note_on_c, 1, 33, 127
1, 236069, Note_off_c, 1, 57, 0
1, 236069, Note_off_c, 1, 45, 0
1, 236069, Note_off_c, 1, 33, 0
1, 236070, Note_on_c, 1, 76, 127
1, 236070, Note_on_c, 1, 61, 127
1, 236070, Note_on_c, 1, 55, 127
1, 236070, Note_on_c, 1, 43, 127
1, 236070, Note_on_c, 1, 31, 127
1, 236099, Note_off_c, 1, 50, 0
1, 236099, Note_off_c, 1, 69, 0
1, 236099, Note_off_c, 1, 76, 0
1, 236099, Note_off_c, 1, 61, 0
1, 236099, Note_off_c, 1, 55, 0
1, 236099, Note_off_c, 1, 43, 0
1, 236099, Note_off_c, 1, 31, 0
1, 236100, Note_on_c, 1, 78, 127
1, 236100, Note_on_c, 1, 74, 127
1, 236100, Note_on_c, 1, 69, 127
1, 236100, Note_on_c, 1, 62, 127
1, 236100, Note_on_c, 1, 54, 127
1, 236100, Note_on_c, 1, 42, 127
1, 236100, Note_on_c, 1, 30, 127
1, 236129, Note_off_c, 1, 54, 0
1, 236129, Note_off_c, 1, 42, 0
1, 236129, Note_off_c, 1, 30, 0
1, 236130, Note_on_c, 1, 79, 127
1, 236130, Note_on_c, 1, 76, 127
1, 236130, Note_on_c, 1, 67, 127
1, 236130, Note_on_c, 1, 61, 127
1, 236130, Note_on_c, 1, 52, 127
1, 236130, Note_on_c, 1, 40, 127
1, 236130, Note_on_c, 1, 28, 127
1, 236159, Note_off_c, 1, 78, 0
1, 236159, Note_off_c, 1, 74, 0
1, 236159, Note_off_c, 1, 69, 0
1, 236159, Note_off_c, 1, 62, 0
1, 236159, Note_off_c, 1, 79, 0
1, 236159, Note_off_c, 1, 76, 0
1, 236159, Note_off_c, 1, 67, 0
1, 236159, Note_off_c, 1, 61, 0
1, 236159, Note_off_c, 1, 52, 0
1, 236159, Note_off_c, 1, 40, 0
1, 236159, Note_off_c, 1, 28, 0
1, 236160, Note_on_c, 1, 81, 127
1, 236160, Note_on_c, 1, 78, 127
1, 236160, Note_on_c, 1, 74, 127
1, 236160, Note_on_c, 1, 50, 127
1, 236160, Note_on_c, 1, 57, 127
1, 236160, Note_on_c, 1, 66, 127
1, 236160, Note_on_c, 1, 62, 127
1, 236160, Note_on_c, 1, 38, 127
1, 236160, Note_on_c, 1, 26, 127
1, 236189, Note_off_c, 1, 66, 0
1, 236189, Note_off_c, 1, 38, 0
1, 236189, Note_off_c, 1, 26, 0
1, 236190, Note_on_c, 1, 67, 127
1, 236190, Note_on_c, 1, 52, 127
1, 236190, Note_on_c, 1, 40, 127
1, 236190, Note_on_c, 1, 28, 127
1, 236219, Note_off_c, 1, 81, 0
1, 236219, Note_off_c, 1, 78, 0
1, 236219, Note_off_c, 1, 50, 0
1, 236219, Note_off_c, 1, 57, 0
1, 236219, Note_off_c, 1, 67, 0
1, 236219, Note_off_c, 1, 52, 0
1, 236219, Note_off_c, 1, 40, 0
1, 236219, Note_off_c, 1, 28, 0
1, 236220, Note_on_c, 1, 45, 127
1, 236220, Note_on_c, 1, 69, 127
1, 236220, Note_on_c, 1, 54, 127
1, 236220, Note_on_c, 1, 42, 127
1, 236220, Note_on_c, 1, 30, 127
1, 236249, Note_off_c, 1, 62, 0
1, 236249, Note_off_c, 1, 54, 0
1, 236249, Note_off_c, 1, 42, 0
1, 236249, Note_off_c, 1, 30, 0
1, 236250, Note_on_c, 1, 79, 127
1, 236250, Note_on_c, 1, 76, 127
1, 236250, Note_on_c, 1, 71, 127
1, 236250, Note_on_c, 1, 61, 127
1, 236250, Note_on_c, 1, 55, 127
1, 236250, Note_on_c, 1, 43, 127
1, 236250, Note_on_c, 1, 31, 127
1, 236279, Note_off_c, 1, 74, 0
1, 236279, Note_off_c, 1, 45, 0
1, 236279, Note_off_c, 1, 69, 0
1, 236279, Note_off_c, 1, 79, 0
1, 236279, Note_off_c, 1, 71, 0
1, 236279, Note_off_c, 1, 61, 0
1, 236279, Note_off_c, 1, 55, 0
1, 236279, Note_off_c, 1, 43, 0
1, 236279, Note_off_c, 1, 31, 0
1, 236280, Note_off_c, 1, 76, 0
1, 236280, Note_on_c, 1, 33, 127
1, 236310, Note_on_c, 1, 73, 127
1, 236310, Note_on_c, 1, 64, 127
1, 236339, Note_off_c, 1, 33, 0
1, 236339, Note_off_c, 1, 64, 0
1, 236340, Note_off_c, 1, 73, 0
1, 236400, Note_on_c, 1, 59, 127
1, 236400, Note_on_c, 1, 47, 127
1, 236400, Note_on_c, 1, 35, 127
1, 236459, Note_off_c, 1, 47, 0
1, 236459, Note_off_c, 1, 35, 0
1, 236460, Note_off_c, 1, 59, 0
1, 236520, Note_on_c, 1, 83, 127
1, 236550, Note_off_c, 1, 83, 0
1, 236550, End_track
0, 0, End_of_file