0, 0, Header, 1, 1, 480
1, 0, Start_track
1, 0, Title_t, "Test"
1, 0, Tempo, 500000
1, 0, Instrument_name_t, "Church Organ"
1, 0, Note_on_c, 1, 43, 127
1, 0, Note_on_c, 1, 31, 127
1, 0, Note_on_c, 1, 74, 127
1, 0, Note_on_c, 1, 62, 127
1, 0, Note_on_c, 1, 67, 127
1, 0, Note_on_c, 1, 71, 127
1, 30, Note_on_c, 1, 55, 127
1, 59, Note_off_c, 1, 55, 0
1, 60, Note_on_c, 1, 59, 127
1, 89, Note_off_c, 1, 59, 0
1, 119, Note_off_c, 1, 43, 0
1, 119, Note_off_c, 1, 31, 0
1, 210, Note_on_c, 1, 77, 127
1, 239, Note_off_c, 1, 74, 0
1, 239, Note_off_c, 1, 62, 0
1, 239, Note_off_c, 1, 67, 0
1, 239, Note_off_c, 1, 71, 0
1, 239, Note_off_c, 1, 77, 0
1, 240, Note_on_c, 1, 43, 127
1, 240, Note_on_c, 1, 31, 127
1, 240, Note_on_c, 1, 76, 127
1, 240, Note_on_c, 1, 60, 127
1, 240, Note_on_c, 1, 67, 127
1, 240, Note_on_c, 1, 72, 127
1, 270, Note_on_c, 1, 55, 127
1, 299, Note_off_c, 1, 55, 0
1, 330, Note_on_c, 1, 64, 127
1, 359, Note_off_c, 1, 43, 0
1, 359, Note_off_c, 1, 31, 0
1, 359, Note_off_c, 1, 64, 0
1, 450, Note_on_c, 1, 79, 127
1, 479, Note_off_c, 1, 76, 0
1, 479, Note_off_c, 1, 60, 0
1, 479, Note_off_c, 1, 67, 0
1, 479, Note_off_c, 1, 72, 0
1, 479, Note_off_c, 1, 79, 0
1, 480, Note_on_c, 1, 45, 127
1, 480, Note_on_c, 1, 33, 127
1, 480, Note_on_c, 1, 74, 127
1, 480, Note_on_c, 1, 66, 127
1, 480, Note_on_c, 1, 69, 127
1, 480, Note_on_c, 1, 72, 127
1, 510, Note_on_c, 1, 57, 127
1, 539, Note_off_c, 1, 57, 0
1, 540, Note_on_c, 1, 60, 127
1, 569, Note_off_c, 1, 60, 0
1, 599, Note_off_c, 1, 45, 0
1, 599, Note_off_c, 1, 33, 0
1, 660, Note_on_c, 1, 78, 127
1, 689, Note_off_c, 1, 78, 0
1, 690, Note_on_c, 1, 81, 127
1, 719, Note_off_c, 1, 74, 0
1, 719, Note_off_c, 1, 66, 0
1, 719, Note_off_c, 1, 69, 0
1, 719, Note_off_c, 1, 72, 0
1, 719, Note_off_c, 1, 81, 0
1, 720, Note_on_c, 1, 47, 127
1, 720, Note_on_c, 1, 35, 127
1, 720, Note_on_c, 1, 79, 127
1, 720, Note_on_c, 1, 67, 127
1, 720, Note_on_c, 1, 71, 127
1, 720, Note_on_c, 1, 74, 127
1, 750, Note_on_c, 1, 59, 127
1, 779, Note_off_c, 1, 59, 0
1, 780, Note_on_c, 1, 62, 127
1, 809, Note_off_c, 1, 62, 0
1, 839, Note_off_c, 1, 47, 0
1, 839, Note_off_c, 1, 35, 0
1, 930, Note_on_c, 1, 83, 127
1, 959, Note_off_c, 1, 79, 0
1, 959, Note_off_c, 1, 67, 0
1, 959, Note_off_c, 1, 71, 0
1, 959, Note_off_c, 1, 74, 0
1, 959, Note_off_c, 1, 83, 0
1, 960, Note_on_c, 1, 48, 127
1, 960, Note_on_c, 1, 36, 127
1, 960, Note_on_c, 1, 79, 127
1, 960, Note_on_c, 1, 72, 127
1, 960, Note_on_c, 1, 60, 127
1, 960, Note_on_c, 1, 67, 127
1, 960, Note_on_c, 1, 76, 127
1, 1020, Note_on_c, 1, 64, 127
1, 1049, Note_off_c, 1, 64, 0
1, 1079, Note_off_c, 1, 48, 0
1, 1079, Note_off_c, 1, 36, 0
1, 1170, Note_on_c, 1, 84, 127
1, 1199, Note_off_c, 1, 79, 0
1, 1199, Note_off_c, 1, 72, 0
1, 1199, Note_off_c, 1, 60, 0
1, 1199, Note_off_c, 1, 67, 0
1, 1199, Note_off_c, 1, 76, 0
1, 1199, Note_off_c, 1, 84, 0
1, 1200, Note_on_c, 1, 74, 127
1, 1200, Note_on_c, 1, 48, 127
1, 1200, Note_on_c, 1, 36, 127
1, 1200, Note_on_c, 1, 78, 127
1, 1200, Note_on_c, 1, 69, 127
1, 1200, Note_on_c, 1, 60, 127
1, 1200, Note_on_c, 1, 66, 127
1, 1230, Note_on_c, 1, 62, 127
1, 1259, Note_off_c, 1, 62, 0
1, 1319, Note_off_c, 1, 48, 0
1, 1319, Note_off_c, 1, 36, 0
1, 1380, Note_on_c, 1, 81, 127
1, 1409, Note_off_c, 1, 81, 0
1, 1410, Note_on_c, 1, 86, 127
1, 1439, Note_off_c, 1, 78, 0
1, 1439, Note_off_c, 1, 69, 0
1, 1439, Note_off_c, 1, 60, 0
1, 1439, Note_off_c, 1, 66, 0
1, 1439, Note_off_c, 1, 86, 0
1, 1440, Note_on_c, 1, 47, 127
1, 1440, Note_on_c, 1, 35, 127
1, 1440, Note_on_c, 1, 79, 127
1, 1440, Note_on_c, 1, 67, 127
1, 1440, Note_on_c, 1, 71, 127
1, 1470, Note_on_c, 1, 55, 127
1, 1499, Note_off_c, 1, 55, 0
1, 1500, Note_on_c, 1, 59, 127
1, 1529, Note_off_c, 1, 59, 0
1, 1530, Note_on_c, 1, 72, 127
1, 1559, Note_off_c, 1, 47, 0
1, 1559, Note_off_c, 1, 35, 0
1, 1559, Note_off_c, 1, 72, 0
1, 1679, Note_off_c, 1, 74, 0
1, 1679, Note_off_c, 1, 79, 0
1, 1679, Note_off_c, 1, 67, 0
1, 1679, Note_off_c, 1, 71, 0
1, 1680, Note_on_c, 1, 69, 127
1, 1680, Note_on_c, 1, 52, 127
1, 1680, Note_on_c, 1, 40, 127
1, 1680, Note_on_c, 1, 74, 127
1, 1680, Note_on_c, 1, 64, 127
1, 1680, Note_on_c, 1, 67, 127
1, 1680, Note_on_c, 1, 71, 127
1, 1688, Note_off_c, 1, 69, 0
1, 1710, Note_on_c, 1, 55, 127
1, 1739, Note_off_c, 1, 55, 0
1, 1740, Note_on_c, 1, 59, 127
1, 1769, Note_off_c, 1, 59, 0
1, 1770, Note_on_c, 1, 66, 127
1, 1770, Note_on_c, 1, 62, 127
1, 1799, Note_off_c, 1, 52, 0
1, 1799, Note_off_c, 1, 40, 0
1, 1799, Note_off_c, 1, 66, 0
1, 1799, Note_off_c, 1, 62, 0
1, 1875, Note_on_c, 1, 72, 127
1, 1889, Note_off_c, 1, 72, 0
1, 1890, Note_on_c, 1, 79, 127
1, 1919, Note_off_c, 1, 74, 0
1, 1919, Note_off_c, 1, 64, 0
1, 1919, Note_off_c, 1, 67, 0
1, 1919, Note_off_c, 1, 71, 0
1, 1919, Note_off_c, 1, 79, 0
1, 1920, Note_on_c, 1, 72, 127
1, 1920, Note_on_c, 1, 45, 127
1, 1920, Note_on_c, 1, 33, 127
1, 1920, Note_on_c, 1, 79, 127
1, 1920, Note_on_c, 1, 67, 127
1, 1920, Note_on_c, 1, 76, 127
1, 1927, Note_on_c, 1, 74, 127
1, 1935, Note_off_c, 1, 74, 0
1, 1950, Note_on_c, 1, 57, 127
1, 1979, Note_off_c, 1, 57, 0
1, 1980, Note_on_c, 1, 60, 127
1, 2009, Note_off_c, 1, 60, 0
1, 2010, Note_on_c, 1, 64, 127
1, 2039, Note_off_c, 1, 45, 0
1, 2039, Note_off_c, 1, 33, 0
1, 2039, Note_off_c, 1, 64, 0
1, 2040, Note_on_c, 1, 69, 127
1, 2055, Note_on_c, 1, 71, 127
1, 2069, Note_off_c, 1, 69, 0
1, 2069, Note_off_c, 1, 71, 0
1, 2145, Note_on_c, 1, 78, 127
1, 2159, Note_off_c, 1, 72, 0
1, 2159, Note_off_c, 1, 79, 0
1, 2159, Note_off_c, 1, 67, 0
1, 2159, Note_off_c, 1, 76, 0
1, 2159, Note_off_c, 1, 78, 0
1, 2160, Note_on_c, 1, 79, 127
1, 2160, Note_on_c, 1, 74, 127
1, 2160, Note_on_c, 1, 48, 127
1, 2160, Note_on_c, 1, 36, 127
1, 2160, Note_on_c, 1, 78, 127
1, 2160, Note_on_c, 1, 69, 127
1, 2160, Note_on_c, 1, 60, 127
1, 2160, Note_on_c, 1, 66, 127
1, 2174, Note_off_c, 1, 79, 0
1, 2175, Note_on_c, 1, 81, 127
1, 2189, Note_off_c, 1, 81, 0
1, 2190, Note_on_c, 1, 57, 127
1, 2219, Note_off_c, 1, 57, 0
1, 2220, Note_on_c, 1, 62, 127
1, 2249, Note_off_c, 1, 62, 0
1, 2279, Note_off_c, 1, 48, 0
1, 2279, Note_off_c, 1, 36, 0
1, 2280, Note_on_c, 1, 76, 127
1, 2294, Note_off_c, 1, 76, 0
1, 2310, Note_on_c, 1, 72, 127
1, 2325, Note_off_c, 1, 72, 0
1, 2325, Note_on_c, 1, 71, 127
1, 2340, Note_off_c, 1, 71, 0
1, 2370, Note_on_c, 1, 67, 127
1, 2399, Note_off_c, 1, 78, 0
1, 2399, Note_off_c, 1, 69, 0
1, 2399, Note_off_c, 1, 60, 0
1, 2399, Note_off_c, 1, 66, 0
1, 2400, Note_on_c, 1, 47, 127
1, 2400, Note_on_c, 1, 35, 127
1, 2430, Note_on_c, 1, 55, 127
1, 2459, Note_off_c, 1, 55, 0
1, 2460, Note_on_c, 1, 59, 127
1, 2489, Note_off_c, 1, 59, 0
1, 2519, Note_off_c, 1, 47, 0
1, 2519, Note_off_c, 1, 35, 0
1, 2550, Note_on_c, 1, 77, 127
1, 2565, Note_off_c, 1, 77, 0
1, 2639, Note_off_c, 1, 74, 0
1, 2640, Note_off_c, 1, 67, 0
1, 2640, Note_on_c, 1, 75, 127
1, 2640, Note_on_c, 1, 42, 127
1, 2640, Note_on_c, 1, 30, 127
1, 2759, Note_off_c, 1, 42, 0
1, 2759, Note_off_c, 1, 30, 0
1, 2820, Note_on_c, 1, 73, 127
1, 2850, Note_off_c, 1, 73, 0
1, 2879, Note_off_c, 1, 75, 0
1, 2880, Note_on_c, 1, 43, 127
1, 2880, Note_on_c, 1, 31, 127
1, 2880, Note_on_c, 1, 64, 127
1, 2895, Note_on_c, 1, 82, 127
1, 2910, Note_off_c, 1, 82, 0
1, 2940, Note_on_c, 1, 61, 127
1, 2969, Note_off_c, 1, 61, 0
1, 2999, Note_off_c, 1, 43, 0
1, 2999, Note_off_c, 1, 31, 0
1, 3119, Note_off_c, 1, 64, 0
1, 3120, Note_on_c, 1, 44, 127
1, 3120, Note_on_c, 1, 32, 127
1, 3210, Note_on_c, 1, 68, 127
1, 3239, Note_off_c, 1, 44, 0
1, 3239, Note_off_c, 1, 32, 0
1, 3239, Note_off_c, 1, 68, 0
1, 3300, Note_on_c, 1, 80, 127
1, 3329, Note_off_c, 1, 80, 0
1, 3330, Note_on_c, 1, 83, 127
1, 3359, Note_off_c, 1, 83, 0
1, 3360, Note_on_c, 1, 46, 127
1, 3360, Note_on_c, 1, 34, 127
1, 3360, Note_on_c, 1, 70, 127
1, 3479, Note_off_c, 1, 46, 0
1, 3479, Note_off_c, 1, 34, 0
1, 3600, Note_off_c, 1, 70, 0
1, 3600, Note_on_c, 1, 65, 127
1, 3719, Note_off_c, 1, 65, 0
1, 3720, Note_on_c, 1, 49, 127
1, 3720, Note_on_c, 1, 37, 127
1, 3780, Note_on_c, 1, 85, 127
1, 3809, Note_off_c, 1, 85, 0
1, 3810, Note_on_c, 1, 88, 127
1, 3839, Note_off_c, 1, 49, 0
1, 3839, Note_off_c, 1, 37, 0
1, 3839, Note_off_c, 1, 88, 0
1, 3840, Note_on_c, 1, 50, 127
1, 3840, Note_on_c, 1, 38, 127
1, 3899, Note_off_c, 1, 50, 0
1, 3899, Note_off_c, 1, 38, 0
1, 3960, Note_on_c, 1, 45, 127
1, 4019, Note_off_c, 1, 45, 0
1, 4020, Note_on_c, 1, 33, 127
1, 4079, Note_off_c, 1, 33, 0
1, 4260, Note_on_c, 1, 54, 127
1, 4289, Note_off_c, 1, 54, 0
1, 4290, Note_on_c, 1, 52, 127
1, 4319, Note_off_c, 1, 52, 0
1, 4800, Note_on_c, 1, 40, 127
1, 4919, Note_off_c, 1, 40, 0
1, 5160, Note_on_c, 1, 63, 127
1, 5279, Note_off_c, 1, 63, 0
1, 5730, Note_on_c, 1, 86, 127
1, 5759, Note_off_c, 1, 86, 0
1, 5940, Note_on_c, 1, 26, 127
1, 5999, Note_off_c, 1, 26, 0
1, 6240, Note_on_c, 1, 41, 127
1, 6240, Note_on_c, 1, 29, 127
1, 6359, Note_off_c, 1, 41, 0
1, 6359, Note_off_c, 1, 29, 0
1, 6480, Note_on_c, 1, 28, 127
1, 6599, Note_off_c, 1, 28, 0
1, 8580, Note_on_c, 1, 57, 127
1, 8580, Note_on_c, 1, 38, 127
1, 8580, Note_on_c, 1, 26, 127
1, 8580, Note_on_c, 1, 69, 127
1, 8580, Note_on_c, 1, 66, 127
1, 8580, Note_on_c, 1, 62, 127
1, 8609, Note_off_c, 1, 57, 0
1, 8610, Note_on_c, 1, 55, 127
1, 8639, Note_off_c, 1, 38, 0
1, 8639, Note_off_c, 1, 26, 0
1, 8639, Note_off_c, 1, 69, 0
1, 8639, Note_off_c, 1, 66, 0
1, 8639, Note_off_c, 1, 62, 0
1, 8639, Note_off_c, 1, 55, 0
1, 8640, Note_on_c, 1, 55, 127
1, 8640, Note_on_c, 1, 43, 127
1, 8640, Note_on_c, 1, 31, 127
1, 8640, Note_on_c, 1, 71, 127
1, 8640, Note_on_c, 1, 67, 127
1, 8640, Note_on_c, 1, 62, 127
1, 8699, Note_off_c, 1, 43, 0
1, 8699, Note_off_c, 1, 31, 0
1, 8759, Note_off_c, 1, 55, 0
1, 8759, Note_off_c, 1, 71, 0
1, 8759, Note_off_c, 1, 67, 0
1, 8759, Note_off_c, 1, 62, 0
1, 8760, Note_on_c, 1, 74, 127
1, 8760, Note_on_c, 1, 54, 127
1, 8760, Note_on_c, 1, 42, 127
1, 8760, Note_on_c, 1, 69, 127
1, 8760, Note_on_c, 1, 62, 127
1, 8760, Note_on_c, 1, 66, 127
1, 8819, Note_off_c, 1, 54, 0
1, 8819, Note_off_c, 1, 42, 0
1, 8819, Note_off_c, 1, 69, 0
1, 8819, Note_off_c, 1, 62, 0
1, 8819, Note_off_c, 1, 66, 0
1, 8820, Note_off_c, 1, 74, 0
1, 8820, Note_on_c, 1, 76, 127
1, 8820, Note_on_c, 1, 52, 127
1, 8820, Note_on_c, 1, 40, 127
1, 8820, Note_on_c, 1, 67, 127
1, 8820, Note_on_c, 1, 73, 127
1, 8820, Note_on_c, 1, 64, 127
1, 8850, Note_off_c, 1, 76, 0
1, 8850, Note_on_c, 1, 79, 127
1, 8865, Note_off_c, 1, 79, 0
1, 8865, Note_on_c, 1, 78, 127
1, 8879, Note_off_c, 1, 52, 0
1, 8879, Note_off_c, 1, 40, 0
1, 8879, Note_off_c, 1, 67, 0
1, 8879, Note_off_c, 1, 73, 0
1, 8879, Note_off_c, 1, 64, 0
1, 8880, Note_on_c, 1, 50, 127
1, 8880, Note_on_c, 1, 38, 127
1, 8939, Note_off_c, 1, 50, 0
1, 8939, Note_off_c, 1, 38, 0
1, 8940, Note_off_c, 1, 78, 0
1, 9000, Note_on_c, 1, 76, 127
1, 9000, Note_on_c, 1, 55, 127
1, 9000, Note_on_c, 1, 43, 127
1, 9000, Note_on_c, 1, 64, 127
1, 9000, Note_on_c, 1, 67, 127
1, 9059, Note_off_c, 1, 55, 0
1, 9059, Note_off_c, 1, 43, 0
1, 9059, Note_off_c, 1, 64, 0
1, 9059, Note_off_c, 1, 67, 0
1, 9060, Note_off_c, 1, 76, 0
1, 9060, Note_on_c, 1, 78, 127
1, 9060, Note_on_c, 1, 52, 127
1, 9060, Note_on_c, 1, 40, 127
1, 9060, Note_on_c, 1, 71, 127
1, 9060, Note_on_c, 1, 62, 127
1, 9090, Note_off_c, 1, 78, 0
1, 9090, Note_on_c, 1, 74, 127
1, 9119, Note_off_c, 1, 52, 0
1, 9119, Note_off_c, 1, 40, 0
1, 9119, Note_off_c, 1, 71, 0
1, 9119, Note_off_c, 1, 62, 0
1, 9120, Note_off_c, 1, 74, 0
1, 9120, Note_on_c, 1, 73, 127
1, 9120, Note_on_c, 1, 57, 127
1, 9120, Note_on_c, 1, 45, 127
1, 9179, Note_off_c, 1, 57, 0
1, 9179, Note_off_c, 1, 45, 0
1, 9180, Note_on_c, 1, 59, 127
1, 9180, Note_on_c, 1, 47, 127
1, 9239, Note_off_c, 1, 73, 0
1, 9239, Note_off_c, 1, 59, 0
1, 9239, Note_off_c, 1, 47, 0
1, 9240, Note_on_c, 1, 76, 127
1, 9240, Note_on_c, 1, 61, 127
1, 9240, Note_on_c, 1, 49, 127
1, 9240, Note_on_c, 1, 64, 127
1, 9240, Note_on_c, 1, 69, 127
1, 9270, Note_off_c, 1, 76, 0
1, 9270, Note_on_c, 1, 78, 127
1, 9285, Note_off_c, 1, 78, 0
1, 9285, Note_on_c, 1, 79, 127
1, 9299, Note_off_c, 1, 49, 0
1, 9300, Note_off_c, 1, 79, 0
1, 9300, Note_on_c, 1, 62, 127
1, 9300, Note_on_c, 1, 50, 127
1, 9330, Note_on_c, 1, 74, 127
1, 9359, Note_off_c, 1, 61, 0
1, 9359, Note_off_c, 1, 64, 0
1, 9359, Note_off_c, 1, 69, 0
1, 9359, Note_off_c, 1, 62, 0
1, 9359, Note_off_c, 1, 50, 0
1, 9360, Note_off_c, 1, 74, 0
1, 9360, Note_on_c, 1, 57, 127
1, 9360, Note_on_c, 1, 45, 127
1, 9360, Note_on_c, 1, 73, 127
1, 9419, Note_off_c, 1, 57, 0
1, 9419, Note_off_c, 1, 45, 0
1, 9420, Note_on_c, 1, 59, 127
1, 9420, Note_on_c, 1, 47, 127
1, 9479, Note_off_c, 1, 73, 0
1, 9479, Note_off_c, 1, 59, 0
1, 9479, Note_off_c, 1, 47, 0
1, 9600, Note_on_c, 1, 67, 127
1, 9660, Note_on_c, 1, 55, 127
1, 9660, Note_on_c, 1, 43, 127
1, 9719, Note_off_c, 1, 67, 0
1, 9719, Note_off_c, 1, 55, 0
1, 9719, Note_off_c, 1, 43, 0
1, 9720, Note_on_c, 1, 54, 127
1, 9720, Note_on_c, 1, 42, 127
1, 9720, Note_on_c, 1, 71, 127
1, 9720, Note_on_c, 1, 66, 127
1, 9720, Note_on_c, 1, 63, 127
1, 9765, Note_on_c, 1, 81, 127
1, 9779, Note_off_c, 1, 54, 0
1, 9779, Note_off_c, 1, 42, 0
1, 9779, Note_off_c, 1, 71, 0
1, 9779, Note_off_c, 1, 66, 0
1, 9779, Note_off_c, 1, 63, 0
1, 9780, Note_off_c, 1, 81, 0
1, 9780, Note_on_c, 1, 52, 127
1, 9780, Note_on_c, 1, 40, 127
1, 9839, Note_off_c, 1, 52, 0
1, 9839, Note_off_c, 1, 40, 0
1, 9870, Note_on_c, 1, 75, 127
1, 9900, Note_off_c, 1, 75, 0
1, 10320, Note_on_c, 1, 60, 127
1, 10320, Note_on_c, 1, 48, 127
1, 10320, Note_on_c, 1, 72, 127
1, 10379, Note_off_c, 1, 60, 0
1, 10379, Note_off_c, 1, 48, 0
1, 10379, Note_off_c, 1, 72, 0
1, 10500, Note_on_c, 1, 35, 127
1, 10559, Note_off_c, 1, 35, 0
1, 10740, Note_on_c, 1, 76, 127
1, 10740, Note_on_c, 1, 72, 127
1, 10740, Note_on_c, 1, 67, 127
1, 10740, Note_on_c, 1, 60, 127
1, 10740, Note_on_c, 1, 52, 127
1, 10740, Note_on_c, 1, 40, 127
1, 10740, Note_on_c, 1, 64, 127
1, 10769, Note_off_c, 1, 76, 0
1, 10770, Note_on_c, 1, 74, 127
1, 10770, Note_on_c, 1, 71, 127
1, 10799, Note_off_c, 1, 72, 0
1, 10799, Note_off_c, 1, 67, 0
1, 10799, Note_off_c, 1, 60, 0
1, 10799, Note_off_c, 1, 52, 0
1, 10799, Note_off_c, 1, 40, 0
1, 10799, Note_off_c, 1, 64, 0
1, 10799, Note_off_c, 1, 74, 0
1, 10799, Note_off_c, 1, 71, 0
1, 10800, Note_on_c, 1, 74, 127
1, 10800, Note_on_c, 1, 69, 127
1, 10800, Note_on_c, 1, 66, 127
1, 10800, Note_on_c, 1, 62, 127
1, 10800, Note_on_c, 1, 54, 127
1, 10800, Note_on_c, 1, 42, 127
1, 10859, Note_off_c, 1, 54, 0
1, 10859, Note_off_c, 1, 42, 0
1, 10860, Note_on_c, 1, 50, 127
1, 10860, Note_on_c, 1, 38, 127
1, 10860, Note_on_c, 1, 72, 127
1, 10889, Note_off_c, 1, 74, 0
1, 10919, Note_off_c, 1, 69, 0
1, 10919, Note_off_c, 1, 66, 0
1, 10919, Note_off_c, 1, 50, 0
1, 10919, Note_off_c, 1, 38, 0
1, 10919, Note_off_c, 1, 72, 0
1, 10920, Note_on_c, 1, 55, 127
1, 10920, Note_on_c, 1, 43, 127
1, 10950, Note_on_c, 1, 71, 127
1, 10950, Note_on_c, 1, 60, 127
1, 10964, Note_off_c, 1, 71, 0
1, 10979, Note_off_c, 1, 62, 0
1, 10979, Note_off_c, 1, 55, 0
1, 10979, Note_off_c, 1, 43, 0
1, 10979, Note_off_c, 1, 60, 0
1, 10980, Note_on_c, 1, 71, 127
1, 10980, Note_on_c, 1, 67, 127
1, 10980, Note_on_c, 1, 62, 127
1, 10980, Note_on_c, 1, 55, 127
1, 10980, Note_on_c, 1, 43, 127
1, 10980, Note_on_c, 1, 31, 127
1, 10980, Note_on_c, 1, 64, 127
1, 11009, Note_off_c, 1, 67, 0
1, 11010, Note_on_c, 1, 59, 127
1, 11039, Note_off_c, 1, 71, 0
1, 11039, Note_off_c, 1, 62, 0
1, 11039, Note_off_c, 1, 55, 0
1, 11039, Note_off_c, 1, 43, 0
1, 11039, Note_off_c, 1, 31, 0
1, 11039, Note_off_c, 1, 64, 0
1, 11039, Note_off_c, 1, 59, 0
1, 11040, Note_on_c, 1, 66, 127
1, 11040, Note_on_c, 1, 62, 127
1, 11040, Note_on_c, 1, 57, 127
1, 11040, Note_on_c, 1, 50, 127
1, 11040, Note_on_c, 1, 38, 127
1, 11040, Note_on_c, 1, 74, 127
1, 11040, Note_on_c, 1, 69, 127
1, 11069, Note_off_c, 1, 62, 0
1, 11099, Note_off_c, 1, 50, 0
1, 11099, Note_off_c, 1, 38, 0
1, 11100, Note_on_c, 1, 64, 127
1, 11100, Note_on_c, 1, 52, 127
1, 11100, Note_on_c, 1, 40, 127
1, 11129, Note_off_c, 1, 64, 0
1, 11159, Note_off_c, 1, 66, 0
1, 11159, Note_off_c, 1, 57, 0
1, 11159, Note_off_c, 1, 74, 0
1, 11159, Note_off_c, 1, 69, 0
1, 11159, Note_off_c, 1, 52, 0
1, 11159, Note_off_c, 1, 40, 0
1, 11160, Note_on_c, 1, 54, 127
1, 11160, Note_on_c, 1, 42, 127
1, 11190, Note_on_c, 1, 71, 127
1, 11204, Note_off_c, 1, 71, 0
1, 11205, Note_on_c, 1, 72, 127
1, 11219, Note_off_c, 1, 54, 0
1, 11219, Note_off_c, 1, 42, 0
1, 11219, Note_off_c, 1, 72, 0
1, 11220, Note_on_c, 1, 55, 127
1, 11220, Note_on_c, 1, 43, 127
1, 11250, Note_on_c, 1, 67, 127
1, 11279, Note_off_c, 1, 55, 0
1, 11279, Note_off_c, 1, 43, 0
1, 11279, Note_off_c, 1, 67, 0
1, 11340, Note_on_c, 1, 59, 127
1, 11399, Note_off_c, 1, 59, 0
1, 11580, Note_on_c, 1, 48, 127
1, 11580, Note_on_c, 1, 36, 127
1, 11639, Note_off_c, 1, 48, 0
1, 11639, Note_off_c, 1, 36, 0
1, 11640, Note_on_c, 1, 56, 127
1, 11640, Note_on_c, 1, 47, 127
1, 11640, Note_on_c, 1, 35, 127
1, 11640, Note_on_c, 1, 68, 127
1, 11670, Note_on_c, 1, 76, 127
1, 11699, Note_off_c, 1, 56, 0
1, 11699, Note_off_c, 1, 47, 0
1, 11699, Note_off_c, 1, 35, 0
1, 11699, Note_off_c, 1, 76, 0
1, 11700, Note_on_c, 1, 45, 127
1, 11700, Note_on_c, 1, 33, 127
1, 11759, Note_off_c, 1, 68, 0
1, 11759, Note_off_c, 1, 45, 0
1, 11759, Note_off_c, 1, 33, 0
1, 12120, Note_on_c, 1, 67, 127
1, 12120, Note_on_c, 1, 62, 127
1, 12120, Note_on_c, 1, 55, 127
1, 12120, Note_on_c, 1, 74, 127
1, 12120, Note_on_c, 1, 47, 127
1, 12120, Note_on_c, 1, 35, 127
1, 12120, Note_on_c, 1, 71, 127
1, 12179, Note_off_c, 1, 55, 0
1, 12179, Note_off_c, 1, 47, 0
1, 12179, Note_off_c, 1, 35, 0
1, 12180, Note_off_c, 1, 74, 0
1, 12180, Note_on_c, 1, 77, 127
1, 12180, Note_on_c, 1, 43, 127
1, 12180, Note_on_c, 1, 31, 127
1, 12210, Note_off_c, 1, 77, 0
1, 12210, Note_on_c, 1, 76, 127
1, 12239, Note_off_c, 1, 67, 0
1, 12239, Note_off_c, 1, 62, 0
1, 12239, Note_off_c, 1, 71, 0
1, 12239, Note_off_c, 1, 43, 0
1, 12239, Note_off_c, 1, 31, 0
1, 12240, Note_on_c, 1, 60, 127
1, 12240, Note_on_c, 1, 48, 127
1, 12240, Note_on_c, 1, 36, 127
1, 12240, Note_on_c, 1, 64, 127
1, 12240, Note_on_c, 1, 72, 127
1, 12299, Note_off_c, 1, 48, 0
1, 12299, Note_off_c, 1, 36, 0
1, 12299, Note_off_c, 1, 64, 0
1, 12299, Note_off_c, 1, 72, 0
1, 12300, Note_off_c, 1, 76, 0
1, 12300, Note_on_c, 1, 70, 127
1, 12300, Note_on_c, 1, 52, 127
1, 12300, Note_on_c, 1, 40, 127
1, 12329, Note_off_c, 1, 70, 0
1, 12330, Note_on_c, 1, 69, 127
1, 12359, Note_off_c, 1, 60, 0
1, 12359, Note_off_c, 1, 52, 0
1, 12359, Note_off_c, 1, 40, 0
1, 12359, Note_off_c, 1, 69, 0
1, 12360, Note_on_c, 1, 69, 127
1, 12360, Note_on_c, 1, 65, 127
1, 12360, Note_on_c, 1, 57, 127
1, 12360, Note_on_c, 1, 74, 127
1, 12360, Note_on_c, 1, 53, 127
1, 12360, Note_on_c, 1, 41, 127
1, 12360, Note_on_c, 1, 62, 127
1, 12390, Note_on_c, 1, 67, 127
1, 12404, Note_off_c, 1, 67, 0
1, 12419, Note_off_c, 1, 69, 0
1, 12419, Note_off_c, 1, 65, 0
1, 12419, Note_off_c, 1, 57, 0
1, 12419, Note_off_c, 1, 53, 0
1, 12419, Note_off_c, 1, 41, 0
1, 12419, Note_off_c, 1, 62, 0
1, 12420, Note_off_c, 1, 74, 0
1, 12420, Note_on_c, 1, 76, 127
1, 12420, Note_on_c, 1, 50, 127
1, 12420, Note_on_c, 1, 38, 127
1, 12450, Note_off_c, 1, 76, 0
1, 12450, Note_on_c, 1, 64, 127
1, 12450, Note_on_c, 1, 72, 127
1, 12479, Note_off_c, 1, 50, 0
1, 12479, Note_off_c, 1, 38, 0
1, 12479, Note_off_c, 1, 64, 0
1, 12480, Note_off_c, 1, 72, 0
1, 12480, Note_on_c, 1, 71, 127
1, 12480, Note_on_c, 1, 55, 127
1, 12480, Note_on_c, 1, 43, 127
1, 12510, Note_on_c, 1, 79, 127
1, 12539, Note_off_c, 1, 55, 0
1, 12539, Note_off_c, 1, 43, 0
1, 12539, Note_off_c, 1, 79, 0
1, 12540, Note_on_c, 1, 45, 127
1, 12599, Note_off_c, 1, 71, 0
1, 12599, Note_off_c, 1, 45, 0
1, 12600, Note_on_c, 1, 59, 127
1, 12600, Note_on_c, 1, 47, 127
1, 12645, Note_on_c, 1, 77, 127
1, 12659, Note_off_c, 1, 59, 0
1, 12659, Note_off_c, 1, 47, 0
1, 12660, Note_off_c, 1, 77, 0
1, 12660, Note_on_c, 1, 60, 127
1, 12660, Note_on_c, 1, 48, 127
1, 12719, Note_off_c, 1, 60, 0
1, 12719, Note_off_c, 1, 48, 0
1, 13020, Note_on_c, 1, 54, 127
1, 13020, Note_on_c, 1, 42, 127
1, 13079, Note_off_c, 1, 54, 0
1, 13079, Note_off_c, 1, 42, 0
1, 13080, Note_on_c, 1, 61, 127
1, 13080, Note_on_c, 1, 52, 127
1, 13080, Note_on_c, 1, 40, 127
1, 13080, Note_on_c, 1, 73, 127
1, 13110, Note_on_c, 1, 81, 127
1, 13110, Note_on_c, 1, 78, 127
1, 13125, Note_off_c, 1, 78, 0
1, 13139, Note_off_c, 1, 61, 0
1, 13139, Note_off_c, 1, 52, 0
1, 13139, Note_off_c, 1, 40, 0
1, 13139, Note_off_c, 1, 81, 0
1, 13199, Note_off_c, 1, 73, 0
1, 13260, Note_on_c, 1, 66, 127
1, 13319, Note_off_c, 1, 66, 0
1, 13740, Note_on_c, 1, 83, 127
1, 13769, Note_off_c, 1, 83, 0
1, 14280, Note_on_c, 1, 49, 127
1, 14280, Note_on_c, 1, 37, 127
1, 14339, Note_off_c, 1, 49, 0
1, 14339, Note_off_c, 1, 37, 0
1, 14340, Note_on_c, 1, 35, 127
1, 14399, Note_off_c, 1, 35, 0
1, 14400, Note_on_c, 1, 46, 127
1, 14400, Note_on_c, 1, 34, 127
1, 14400, Note_on_c, 1, 70, 127
1, 14429, Note_off_c, 1, 46, 0
1, 14429, Note_off_c, 1, 34, 0
1, 14489, Note_off_c, 1, 70, 0
1, 14580, Note_on_c, 1, 30, 127
1, 14639, Note_off_c, 1, 30, 0
1, 15060, Note_on_c, 1, 33, 127
1, 15119, Note_off_c, 1, 33, 0
1, 16320, Note_on_c, 1, 43, 127
1, 16320, Note_on_c, 1, 31, 127
1, 16320, Note_on_c, 1, 74, 127
1, 16320, Note_on_c, 1, 62, 127
1, 16320, Note_on_c, 1, 67, 127
1, 16320, Note_on_c, 1, 71, 127
1, 16350, Note_on_c, 1, 55, 127
1, 16379, Note_off_c, 1, 55, 0
1, 16380, Note_on_c, 1, 59, 127
1, 16409, Note_off_c, 1, 59, 0
1, 16439, Note_off_c, 1, 43, 0
1, 16439, Note_off_c, 1, 31, 0
1, 16530, Note_on_c, 1, 77, 127
1, 16559, Note_off_c, 1, 74, 0
1, 16559, Note_off_c, 1, 62, 0
1, 16559, Note_off_c, 1, 67, 0
1, 16559, Note_off_c, 1, 71, 0
1, 16559, Note_off_c, 1, 77, 0
1, 16560, Note_on_c, 1, 43, 127
1, 16560, Note_on_c, 1, 31, 127
1, 16560, Note_on_c, 1, 76, 127
1, 16560, Note_on_c, 1, 60, 127
1, 16560, Note_on_c, 1, 67, 127
1, 16560, Note_on_c, 1, 72, 127
1, 16590, Note_on_c, 1, 55, 127
1, 16619, Note_off_c, 1, 55, 0
1, 16650, Note_on_c, 1, 64, 127
1, 16679, Note_off_c, 1, 43, 0
1, 16679, Note_off_c, 1, 31, 0
1, 16679, Note_off_c, 1, 64, 0
1, 16770, Note_on_c, 1, 79, 127
1, 16799, Note_off_c, 1, 76, 0
1, 16799, Note_off_c, 1, 60, 0
1, 16799, Note_off_c, 1, 67, 0
1, 16799, Note_off_c, 1, 72, 0
1, 16799, Note_off_c, 1, 79, 0
1, 16800, Note_on_c, 1, 45, 127
1, 16800, Note_on_c, 1, 33, 127
1, 16800, Note_on_c, 1, 74, 127
1, 16800, Note_on_c, 1, 66, 127
1, 16800, Note_on_c, 1, 69, 127
1, 16800, Note_on_c, 1, 72, 127
1, 16830, Note_on_c, 1, 57, 127
1, 16859, Note_off_c, 1, 57, 0
1, 16860, Note_on_c, 1, 60, 127
1, 16889, Note_off_c, 1, 60, 0
1, 16919, Note_off_c, 1, 45, 0
1, 16919, Note_off_c, 1, 33, 0
1, 16980, Note_on_c, 1, 78, 127
1, 17009, Note_off_c, 1, 78, 0
1, 17010, Note_on_c, 1, 81, 127
1, 17039, Note_off_c, 1, 74, 0
1, 17039, Note_off_c, 1, 66, 0
1, 17039, Note_off_c, 1, 69, 0
1, 17039, Note_off_c, 1, 72, 0
1, 17039, Note_off_c, 1, 81, 0
1, 17040, Note_on_c, 1, 47, 127
1, 17040, Note_on_c, 1, 35, 127
1, 17040, Note_on_c, 1, 79, 127
1, 17040, Note_on_c, 1, 67, 127
1, 17040, Note_on_c, 1, 71, 127
1, 17040, Note_on_c, 1, 74, 127
1, 17070, Note_on_c, 1, 59, 127
1, 17099, Note_off_c, 1, 59, 0
1, 17100, Note_on_c, 1, 62, 127
1, 17129, Note_off_c, 1, 62, 0
1, 17159, Note_off_c, 1, 47, 0
1, 17159, Note_off_c, 1, 35, 0
1, 17250, Note_on_c, 1, 83, 127
1, 17279, Note_off_c, 1, 79, 0
1, 17279, Note_off_c, 1, 67, 0
1, 17279, Note_off_c, 1, 71, 0
1, 17279, Note_off_c, 1, 74, 0
1, 17279, Note_off_c, 1, 83, 0
1, 17280, Note_on_c, 1, 48, 127
1, 17280, Note_on_c, 1, 36, 127
1, 17280, Note_on_c, 1, 79, 127
1, 17280, Note_on_c, 1, 72, 127
1, 17280, Note_on_c, 1, 60, 127
1, 17280, Note_on_c, 1, 67, 127
1, 17280, Note_on_c, 1, 76, 127
1, 17340, Note_on_c, 1, 64, 127
1, 17369, Note_off_c, 1, 64, 0
1, 17399, Note_off_c, 1, 48, 0
1, 17399, Note_off_c, 1, 36, 0
1, 17490, Note_on_c, 1, 84, 127
1, 17519, Note_off_c, 1, 79, 0
1, 17519, Note_off_c, 1, 72, 0
1, 17519, Note_off_c, 1, 60, 0
1, 17519, Note_off_c, 1, 67, 0
1, 17519, Note_off_c, 1, 76, 0
1, 17519, Note_off_c, 1, 84, 0
1, 17520, Note_on_c, 1, 74, 127
1, 17520, Note_on_c, 1, 48, 127
1, 17520, Note_on_c, 1, 36, 127
1, 17520, Note_on_c, 1, 78, 127
1, 17520, Note_on_c, 1, 69, 127
1, 17520, Note_on_c, 1, 60, 127
1, 17520, Note_on_c, 1, 66, 127
1, 17550, Note_on_c, 1, 62, 127
1, 17579, Note_off_c, 1, 62, 0
1, 17639, Note_off_c, 1, 48, 0
1, 17639, Note_off_c, 1, 36, 0
1, 17700, Note_on_c, 1, 81, 127
1, 17729, Note_off_c, 1, 81, 0
1, 17730, Note_on_c, 1, 86, 127
1, 17759, Note_off_c, 1, 78, 0
1, 17759, Note_off_c, 1, 69, 0
1, 17759, Note_off_c, 1, 60, 0
1, 17759, Note_off_c, 1, 66, 0
1, 17759, Note_off_c, 1, 86, 0
1, 17760, Note_on_c, 1, 47, 127
1, 17760, Note_on_c, 1, 35, 127
1, 17760, Note_on_c, 1, 79, 127
1, 17760, Note_on_c, 1, 67, 127
1, 17760, Note_on_c, 1, 71, 127
1, 17790, Note_on_c, 1, 55, 127
1, 17819, Note_off_c, 1, 55, 0
1, 17820, Note_on_c, 1, 59, 127
1, 17849, Note_off_c, 1, 59, 0
1, 17850, Note_on_c, 1, 72, 127
1, 17879, Note_off_c, 1, 47, 0
1, 17879, Note_off_c, 1, 35, 0
1, 17879, Note_off_c, 1, 72, 0
1, 17999, Note_off_c, 1, 74, 0
1, 17999, Note_off_c, 1, 79, 0
1, 17999, Note_off_c, 1, 67, 0
1, 17999, Note_off_c, 1, 71, 0
1, 18000, Note_on_c, 1, 69, 127
1, 18000, Note_on_c, 1, 52, 127
1, 18000, Note_on_c, 1, 40, 127
1, 18000, Note_on_c, 1, 74, 127
1, 18000, Note_on_c, 1, 64, 127
1, 18000, Note_on_c, 1, 67, 127
1, 18000, Note_on_c, 1, 71, 127
1, 18008, Note_off_c, 1, 69, 0
1, 18030, Note_on_c, 1, 55, 127
1, 18059, Note_off_c, 1, 55, 0
1, 18060, Note_on_c, 1, 59, 127
1, 18089, Note_off_c, 1, 59, 0
1, 18090, Note_on_c, 1, 66, 127
1, 18090, Note_on_c, 1, 62, 127
1, 18119, Note_off_c, 1, 52, 0
1, 18119, Note_off_c, 1, 40, 0
1, 18119, Note_off_c, 1, 66, 0
1, 18119, Note_off_c, 1, 62, 0
1, 18195, Note_on_c, 1, 72, 127
1, 18209, Note_off_c, 1, 72, 0
1, 18210, Note_on_c, 1, 79, 127
1, 18239, Note_off_c, 1, 74, 0
1, 18239, Note_off_c, 1, 64, 0
1, 18239, Note_off_c, 1, 67, 0
1, 18239, Note_off_c, 1, 71, 0
1, 18239, Note_off_c, 1, 79, 0
1, 18240, Note_on_c, 1, 72, 127
1, 18240, Note_on_c, 1, 45, 127
1, 18240, Note_on_c, 1, 33, 127
1, 18240, Note_on_c, 1, 79, 127
1, 18240, Note_on_c, 1, 67, 127
1, 18240, Note_on_c, 1, 76, 127
1, 18247, Note_on_c, 1, 74, 127
1, 18255, Note_off_c, 1, 74, 0
1, 18270, Note_on_c, 1, 57, 127
1, 18299, Note_off_c, 1, 57, 0
1, 18300, Note_on_c, 1, 60, 127
1, 18329, Note_off_c, 1, 60, 0
1, 18330, Note_on_c, 1, 64, 127
1, 18359, Note_off_c, 1, 45, 0
1, 18359, Note_off_c, 1, 33, 0
1, 18359, Note_off_c, 1, 64, 0
1, 18360, Note_on_c, 1, 69, 127
1, 18375, Note_on_c, 1, 71, 127
1, 18389, Note_off_c, 1, 69, 0
1, 18389, Note_off_c, 1, 71, 0
1, 18465, Note_on_c, 1, 78, 127
1, 18479, Note_off_c, 1, 72, 0
1, 18479, Note_off_c, 1, 79, 0
1, 18479, Note_off_c, 1, 67, 0
1, 18479, Note_off_c, 1, 76, 0
1, 18479, Note_off_c, 1, 78, 0
1, 18480, Note_on_c, 1, 79, 127
1, 18480, Note_on_c, 1, 74, 127
1, 18480, Note_on_c, 1, 48, 127
1, 18480, Note_on_c, 1, 36, 127
1, 18480, Note_on_c, 1, 78, 127
1, 18480, Note_on_c, 1, 69, 127
1, 18480, Note_on_c, 1, 60, 127
1, 18480, Note_on_c, 1, 66, 127
1, 18494, Note_off_c, 1, 79, 0
1, 18495, Note_on_c, 1, 81, 127
1, 18509, Note_off_c, 1, 81, 0
1, 18510, Note_on_c, 1, 57, 127
1, 18539, Note_off_c, 1, 57, 0
1, 18540, Note_on_c, 1, 62, 127
1, 18569, Note_off_c, 1, 62, 0
1, 18599, Note_off_c, 1, 48, 0
1, 18599, Note_off_c, 1, 36, 0
1, 18600, Note_on_c, 1, 76, 127
1, 18614, Note_off_c, 1, 76, 0
1, 18630, Note_on_c, 1, 72, 127
1, 18645, Note_off_c, 1, 72, 0
1, 18645, Note_on_c, 1, 71, 127
1, 18660, Note_off_c, 1, 71, 0
1, 18690, Note_on_c, 1, 67, 127
1, 18719, Note_off_c, 1, 78, 0
1, 18719, Note_off_c, 1, 69, 0
1, 18719, Note_off_c, 1, 60, 0
1, 18719, Note_off_c, 1, 66, 0
1, 18720, Note_on_c, 1, 47, 127
1, 18720, Note_on_c, 1, 35, 127
1, 18750, Note_on_c, 1, 55, 127
1, 18779, Note_off_c, 1, 55, 0
1, 18780, Note_on_c, 1, 59, 127
1, 18809, Note_off_c, 1, 59, 0
1, 18839, Note_off_c, 1, 47, 0
1, 18839, Note_off_c, 1, 35, 0
1, 18870, Note_on_c, 1, 77, 127
1, 18885, Note_off_c, 1, 77, 0
1, 18959, Note_off_c, 1, 74, 0
1, 18960, Note_off_c, 1, 67, 0
1, 18960, Note_on_c, 1, 75, 127
1, 18960, Note_on_c, 1, 42, 127
1, 18960, Note_on_c, 1, 30, 127
1, 19079, Note_off_c, 1, 42, 0
1, 19079, Note_off_c, 1, 30, 0
1, 19140, Note_on_c, 1, 73, 127
1, 19170, Note_off_c, 1, 73, 0
1, 19199, Note_off_c, 1, 75, 0
1, 19200, Note_on_c, 1, 43, 127
1, 19200, Note_on_c, 1, 31, 127
1, 19200, Note_on_c, 1, 64, 127
1, 19215, Note_on_c, 1, 82, 127
1, 19230, Note_off_c, 1, 82, 0
1, 19260, Note_on_c, 1, 61, 127
1, 19289, Note_off_c, 1, 61, 0
1, 19319, Note_off_c, 1, 43, 0
1, 19319, Note_off_c, 1, 31, 0
1, 19439, Note_off_c, 1, 64, 0
1, 19440, Note_on_c, 1, 44, 127
1, 19440, Note_on_c, 1, 32, 127
1, 19530, Note_on_c, 1, 68, 127
1, 19559, Note_off_c, 1, 44, 0
1, 19559, Note_off_c, 1, 32, 0
1, 19559, Note_off_c, 1, 68, 0
1, 19620, Note_on_c, 1, 80, 127
1, 19649, Note_off_c, 1, 80, 0
1, 19650, Note_on_c, 1, 83, 127
1, 19679, Note_off_c, 1, 83, 0
1, 19680, Note_on_c, 1, 46, 127
1, 19680, Note_on_c, 1, 34, 127
1, 19680, Note_on_c, 1, 70, 127
1, 19799, Note_off_c, 1, 46, 0
1, 19799, Note_off_c, 1, 34, 0
1, 19920, Note_off_c, 1, 70, 0
1, 19920, Note_on_c, 1, 65, 127
1, 20039, Note_off_c, 1, 65, 0
1, 20040, Note_on_c, 1, 49, 127
1, 20040, Note_on_c, 1, 37, 127
1, 20100, Note_on_c, 1, 85, 127
1, 20129, Note_off_c, 1, 85, 0
1, 20130, Note_on_c, 1, 88, 127
1, 20159, Note_off_c, 1, 49, 0
1, 20159, Note_off_c, 1, 37, 0
1, 20159, Note_off_c, 1, 88, 0
1, 20160, Note_on_c, 1, 50, 127
1, 20160, Note_on_c, 1, 38, 127
1, 20219, Note_off_c, 1, 50, 0
1, 20219, Note_off_c, 1, 38, 0
1, 20280, Note_on_c, 1, 45, 127
1, 20339, Note_off_c, 1, 45, 0
1, 20340, Note_on_c, 1, 33, 127
1, 20399, Note_off_c, 1, 33, 0
1, 20580, Note_on_c, 1, 54, 127
1, 20609, Note_off_c, 1, 54, 0
1, 20610, Note_on_c, 1, 52, 127
1, 20639, Note_off_c, 1, 52, 0
1, 21120, Note_on_c, 1, 40, 127
1, 21239, Note_off_c, 1, 40, 0
1, 21480, Note_on_c, 1, 63, 127
1, 21599, Note_off_c, 1, 63, 0
1, 22050, Note_on_c, 1, 86, 127
1, 22079, Note_off_c, 1, 86, 0
1, 22260, Note_on_c, 1, 26, 127
1, 22319, Note_off_c, 1, 26, 0
1, 22560, Note_on_c, 1, 41, 127
1, 22560, Note_on_c, 1, 29, 127
1, 22679, Note_off_c, 1, 41, 0
1, 22679, Note_off_c, 1, 29, 0
1, 22800, Note_on_c, 1, 28, 127
1, 22919, Note_off_c, 1, 28, 0
1, 24900, Note_on_c, 1, 57, 127
1, 24900, Note_on_c, 1, 38, 127
1, 24900, Note_on_c, 1, 26, 127
1, 24900, Note_on_c, 1, 69, 127
1, 24900, Note_on_c, 1, 66, 127
1, 24900, Note_on_c, 1, 62, 127
1, 24929, Note_off_c, 1, 57, 0
1, 24930, Note_on_c, 1, 55, 127
1, 24959, Note_off_c, 1, 38, 0
1, 24959, Note_off_c, 1, 26, 0
1, 24959, Note_off_c, 1, 69, 0
1, 24959, Note_off_c, 1, 66, 0
1, 24959, Note_off_c, 1, 62, 0
1, 24959, Note_off_c, 1, 55, 0
1, 24960, Note_on_c, 1, 55, 127
1, 24960, Note_on_c, 1, 43, 127
1, 24960, Note_on_c, 1, 31, 127
1, 24960, Note_on_c, 1, 71, 127
1, 24960, Note_on_c, 1, 67, 127
1, 24960, Note_on_c, 1, 62, 127
1, 25200, Note_off_c, 1, 55, 0
1, 25200, Note_off_c, 1, 43, 0
1, 25200, Note_off_c, 1, 31, 0
1, 25200, Note_off_c, 1, 71, 0
1, 25200, Note_off_c, 1, 67, 0
1, 25200, Note_off_c, 1, 62, 0
1, 25440, Note_on_c, 1, 48, 127
1, 25440, Note_on_c, 1, 36, 127
1, 25440, Note_on_c, 1, 67, 127
1, 25440, Note_on_c, 1, 64, 127
1, 25440, Note_on_c, 1, 60, 127
1, 25680, Note_on_c, 1, 72, 127
1, 25860, Note_off_c, 1, 72, 0
1, 25860, Note_on_c, 1, 74, 127
1, 25920, Note_off_c, 1, 74, 0
1, 25920, Note_on_c, 1, 76, 127
1, 26040, Note_off_c, 1, 76, 0
1, 26160, Note_off_c, 1, 48, 0
1, 26160, Note_off_c, 1, 36, 0
1, 26160, Note_off_c, 1, 60, 0
1, 26160, Note_on_c, 1, 79, 127
1, 26160, Note_on_c, 1, 52, 127
1, 26160, Note_on_c, 1, 40, 127
1, 26220, Note_off_c, 1, 79, 0
1, 26280, Note_on_c, 1, 70, 127
1, 26310, Note_off_c, 1, 70, 0
1, 26310, Note_on_c, 1, 69, 127
1, 26340, Note_off_c, 1, 69, 0
1, 26400, Note_off_c, 1, 67, 0
1, 26400, Note_off_c, 1, 64, 0
1, 26400, Note_off_c, 1, 52, 0
1, 26400, Note_off_c, 1, 40, 0
1, 26400, Note_on_c, 1, 53, 127
1, 26400, Note_on_c, 1, 41, 127
1, 26400, Note_on_c, 1, 65, 127
1, 26640, Note_off_c, 1, 53, 0
1, 26640, Note_off_c, 1, 41, 0
1, 26640, Note_on_c, 1, 77, 127
1, 26640, Note_on_c, 1, 50, 127
1, 26640, Note_on_c, 1, 38, 127
1, 26640, Note_on_c, 1, 62, 127
1, 26700, Note_off_c, 1, 77, 0
1, 26850, Note_on_c, 1, 71, 127
1, 26880, Note_off_c, 1, 62, 0
1, 27120, Note_off_c, 1, 50, 0
1, 27120, Note_off_c, 1, 38, 0
1, 27120, Note_off_c, 1, 71, 0
1, 27120, Note_on_c, 1, 47, 127
1, 27120, Note_on_c, 1, 35, 127
1, 27360, Note_off_c, 1, 65, 0
1, 27360, Note_off_c, 1, 47, 0
1, 27360, Note_off_c, 1, 35, 0
1, 27720, Note_on_c, 1, 55, 127
1, 27720, Note_on_c, 1, 43, 127
1, 27780, Note_off_c, 1, 55, 0
1, 27780, Note_off_c, 1, 43, 0
1, 27840, Note_on_c, 1, 57, 127
1, 27840, Note_on_c, 1, 45, 127
1, 27900, Note_off_c, 1, 57, 0
1, 27900, Note_off_c, 1, 45, 0
1, 28020, Note_on_c, 1, 31, 127
1, 28020, Note_on_c, 1, 59, 127
1, 28080, Note_off_c, 1, 31, 0
1, 28080, Note_off_c, 1, 59, 0
1, 28080, Note_on_c, 1, 24, 127
1, 28320, Note_off_c, 1, 24, 0
1, 28440, Note_on_c, 1, 48, 127
1, 28440, Note_on_c, 1, 67, 127
1, 28440, Note_on_c, 1, 60, 127
1, 28500, Note_off_c, 1, 48, 0
1, 28500, Note_on_c, 1, 72, 127
1, 28500, Note_on_c, 1, 64, 127
1, 28620, Note_off_c, 1, 67, 0
1, 28620, Note_off_c, 1, 60, 0
1, 28620, Note_off_c, 1, 72, 0
1, 28620, Note_off_c, 1, 64, 0
1, 28620, Note_on_c, 1, 50, 127
1, 28620, Note_on_c, 1, 62, 127
1, 28680, Note_off_c, 1, 50, 0
1, 28680, Note_on_c, 1, 65, 127
1, 28755, Note_on_c, 1, 71, 127
1, 28770, Note_off_c, 1, 71, 0
1, 28770, Note_on_c, 1, 69, 127
1, 28800, Note_off_c, 1, 62, 0
1, 28800, Note_off_c, 1, 65, 0
1, 28800, Note_off_c, 1, 69, 0
1, 28800, Note_on_c, 1, 52, 127
1, 28830, Note_on_c, 1, 55, 127
1, 28860, Note_off_c, 1, 52, 0
1, 28860, Note_off_c, 1, 55, 0
1, 28860, Note_on_c, 1, 57, 127
1, 28890, Note_off_c, 1, 57, 0
1, 28890, Note_on_c, 1, 59, 127
1, 28920, Note_off_c, 1, 59, 0
1, 28980, Note_on_c, 1, 54, 127
1, 28980, Note_on_c, 1, 74, 127
1, 29040, Note_off_c, 1, 54, 0
1, 29040, Note_on_c, 1, 66, 127
1, 29100, Note_off_c, 1, 74, 0
1, 29160, Note_off_c, 1, 66, 0
1, 29340, Note_on_c, 1, 43, 127
1, 29400, Note_off_c, 1, 43, 0
1, 29400, Note_on_c, 1, 76, 127
1, 29475, Note_off_c, 1, 76, 0
1, 29520, Note_on_c, 1, 47, 127
1, 29580, Note_off_c, 1, 47, 0
1, 29700, Note_on_c, 1, 61, 127
1, 29700, Note_on_c, 1, 49, 127
1, 29760, Note_off_c, 1, 49, 0
1, 29880, Note_off_c, 1, 61, 0
1, 30930, Note_on_c, 1, 53, 127
1, 30960, Note_off_c, 1, 53, 0
1, 31710, Note_on_c, 1, 77, 127
1, 31740, Note_off_c, 1, 77, 0
1, 31890, Note_on_c, 1, 79, 127
1, 31920, Note_off_c, 1, 79, 0
1, 35880, Note_on_c, 1, 78, 127
1, 35940, Note_off_c, 1, 78, 0
1, 36540, Note_on_c, 1, 56, 127
1, 36540, Note_on_c, 1, 68, 127
1, 36600, Note_off_c, 1, 56, 0
1, 36600, Note_off_c, 1, 68, 0
1, 36660, Note_on_c, 1, 71, 127
1, 36660, Note_on_c, 1, 62, 127
1, 36660, Note_on_c, 1, 50, 127
1, 36660, Note_on_c, 1, 64, 127
1, 36660, Note_on_c, 1, 68, 127
1, 36690, Note_on_c, 1, 56, 127
1, 36719, Note_off_c, 1, 71, 0
1, 36719, Note_off_c, 1, 56, 0
1, 36720, Note_off_c, 1, 62, 0
1, 36720, Note_off_c, 1, 50, 0
1, 36720, Note_off_c, 1, 68, 0
1, 36720, Note_on_c, 1, 72, 127
1, 36720, Note_on_c, 1, 57, 127
1, 36720, Note_on_c, 1, 69, 127
1, 36720, Note_on_c, 1, 60, 127
1, 36779, Note_off_c, 1, 72, 0
1, 36780, Note_off_c, 1, 64, 0
1, 36780, Note_off_c, 1, 57, 0
1, 36780, Note_off_c, 1, 69, 0
1, 36809, Note_off_c, 1, 60, 0
1, 36810, Note_on_c, 1, 59, 127
1, 36839, Note_off_c, 1, 59, 0
1, 36840, Note_on_c, 1, 69, 127
1, 36840, Note_on_c, 1, 60, 127
1, 36869, Note_off_c, 1, 60, 0
1, 36870, Note_on_c, 1, 57, 127
1, 36899, Note_off_c, 1, 69, 0
1, 36899, Note_off_c, 1, 57, 0
1, 36900, Note_on_c, 1, 74, 127
1, 36900, Note_on_c, 1, 54, 127
1, 36900, Note_on_c, 1, 62, 127
1, 36900, Note_on_c, 1, 66, 127
1, 36900, Note_on_c, 1, 69, 127
1, 36930, Note_on_c, 1, 60, 127
1, 36959, Note_off_c, 1, 74, 0
1, 36959, Note_off_c, 1, 60, 0
1, 36960, Note_off_c, 1, 54, 0
1, 36960, Note_off_c, 1, 66, 0
1, 36960, Note_off_c, 1, 69, 0
1, 36960, Note_on_c, 1, 59, 127
1, 36989, Note_off_c, 1, 59, 0
1, 36990, Note_on_c, 1, 57, 127
1, 37019, Note_off_c, 1, 62, 0
1, 37019, Note_off_c, 1, 57, 0
1, 37020, Note_on_c, 1, 67, 127
1, 37020, Note_on_c, 1, 59, 127
1, 37049, Note_off_c, 1, 59, 0
1, 37050, Note_on_c, 1, 55, 127
1, 37079, Note_off_c, 1, 67, 0
1, 37079, Note_off_c, 1, 55, 0
1, 37080, Note_on_c, 1, 66, 127
1, 37080, Note_on_c, 1, 50, 127
1, 37080, Note_on_c, 1, 62, 127
1, 37110, Note_on_c, 1, 59, 127
1, 37139, Note_off_c, 1, 59, 0
1, 37140, Note_off_c, 1, 50, 0
1, 37140, Note_on_c, 1, 57, 127
1, 37169, Note_off_c, 1, 57, 0
1, 37170, Note_on_c, 1, 55, 127
1, 37199, Note_off_c, 1, 66, 0
1, 37199, Note_off_c, 1, 62, 0
1, 37199, Note_off_c, 1, 55, 0
1, 37200, Note_on_c, 1, 57, 127
1, 37229, Note_off_c, 1, 57, 0
1, 37230, Note_on_c, 1, 54, 127
1, 37259, Note_off_c, 1, 54, 0
1, 37260, Note_on_c, 1, 79, 127
1, 37260, Note_on_c, 1, 50, 127
1, 37260, Note_on_c, 1, 62, 127
1, 37260, Note_on_c, 1, 67, 127
1, 37290, Note_on_c, 1, 57, 127
1, 37319, Note_off_c, 1, 79, 0
1, 37319, Note_off_c, 1, 57, 0
1, 37320, Note_off_c, 1, 50, 0
1, 37320, Note_on_c, 1, 78, 127
1, 37320, Note_on_c, 1, 55, 127
1, 37349, Note_off_c, 1, 55, 0
1, 37350, Note_on_c, 1, 54, 127
1, 37379, Note_off_c, 1, 62, 0
1, 37379, Note_off_c, 1, 67, 0
1, 37379, Note_off_c, 1, 78, 0
1, 37379, Note_off_c, 1, 54, 0
1, 37380, Note_on_c, 1, 76, 127
1, 37380, Note_on_c, 1, 55, 127
1, 37409, Note_off_c, 1, 55, 0
1, 37410, Note_on_c, 1, 52, 127
1, 37439, Note_off_c, 1, 76, 0
1, 37439, Note_off_c, 1, 52, 0
1, 37440, Note_on_c, 1, 74, 127
1, 37440, Note_on_c, 1, 50, 127
1, 37440, Note_on_c, 1, 66, 127
1, 37440, Note_on_c, 1, 62, 127
1, 37470, Note_on_c, 1, 55, 127
1, 37499, Note_off_c, 1, 55, 0
1, 37500, Note_off_c, 1, 50, 0
1, 37500, Note_on_c, 1, 54, 127
1, 37529, Note_off_c, 1, 74, 0
1, 37529, Note_off_c, 1, 54, 0
1, 37530, Note_on_c, 1, 76, 127
1, 37530, Note_on_c, 1, 52, 127
1, 37559, Note_off_c, 1, 66, 0
1, 37559, Note_off_c, 1, 62, 0
1, 37559, Note_off_c, 1, 76, 0
1, 37559, Note_off_c, 1, 52, 0
1, 37560, Note_on_c, 1, 74, 127
1, 37560, Note_on_c, 1, 54, 127
1, 37589, Note_off_c, 1, 74, 0
1, 37589, Note_off_c, 1, 54, 0
1, 37590, Note_on_c, 1, 72, 127
1, 37590, Note_on_c, 1, 50, 127
1, 37619, Note_off_c, 1, 72, 0
1, 37619, Note_off_c, 1, 50, 0
1, 37620, Note_on_c, 1, 71, 127
1, 37620, Note_on_c, 1, 55, 127
1, 37620, Note_on_c, 1, 67, 127
1, 37620, Note_on_c, 1, 62, 127
1, 37650, Note_on_c, 1, 72, 127
1, 37679, Note_off_c, 1, 71, 0
1, 37679, Note_off_c, 1, 67, 0
1, 37679, Note_off_c, 1, 62, 0
1, 37679, Note_off_c, 1, 72, 0
1, 37680, Note_off_c, 1, 55, 0
1, 37680, Note_on_c, 1, 74, 127
1, 37680, Note_on_c, 1, 54, 127
1, 37709, Note_off_c, 1, 74, 0
1, 37709, Note_off_c, 1, 54, 0
1, 37710, Note_on_c, 1, 74, 127
1, 37710, Note_on_c, 1, 52, 127
1, 37710, Note_on_c, 1, 72, 127
1, 37724, Note_off_c, 1, 74, 0
1, 37739, Note_off_c, 1, 52, 0
1, 37739, Note_off_c, 1, 72, 0
1, 37740, Note_on_c, 1, 74, 127
1, 37740, Note_on_c, 1, 50, 127
1, 37740, Note_on_c, 1, 71, 127
1, 37754, Note_off_c, 1, 74, 0
1, 37755, Note_on_c, 1, 72, 127
1, 37769, Note_off_c, 1, 50, 0
1, 37769, Note_off_c, 1, 71, 0
1, 37769, Note_off_c, 1, 72, 0
1, 37770, Note_on_c, 1, 71, 127
1, 37770, Note_on_c, 1, 48, 127
1, 37770, Note_on_c, 1, 69, 127
1, 37784, Note_off_c, 1, 71, 0
1, 37785, Note_on_c, 1, 72, 127
1, 37799, Note_off_c, 1, 48, 0
1, 37799, Note_off_c, 1, 69, 0
1, 37799, Note_off_c, 1, 72, 0
1, 37800, Note_on_c, 1, 74, 127
1, 37800, Note_on_c, 1, 47, 127
1, 37800, Note_on_c, 1, 67, 127
1, 37800, Note_on_c, 1, 71, 127
1, 37859, Note_off_c, 1, 74, 0
1, 37859, Note_off_c, 1, 67, 0
1, 37859, Note_off_c, 1, 71, 0
1, 37860, Note_off_c, 1, 47, 0
1, 37860, Note_on_c, 1, 48, 127
1, 37860, Note_on_c, 1, 76, 127
1, 37889, Note_off_c, 1, 48, 0
1, 37889, Note_off_c, 1, 76, 0
1, 37920, Note_on_c, 1, 72, 127
1, 37920, Note_on_c, 1, 45, 127
1, 37920, Note_on_c, 1, 69, 127
1, 37949, Note_off_c, 1, 45, 0
1, 37950, Note_on_c, 1, 43, 127
1, 37950, Note_on_c, 1, 71, 127
1, 37979, Note_off_c, 1, 72, 0
1, 37979, Note_off_c, 1, 69, 0
1, 37979, Note_off_c, 1, 43, 0
1, 37979, Note_off_c, 1, 71, 0
1, 37980, Note_on_c, 1, 71, 127
1, 37980, Note_on_c, 1, 50, 127
1, 37980, Note_on_c, 1, 74, 127
1, 38039, Note_off_c, 1, 71, 0
1, 38039, Note_off_c, 1, 50, 0
1, 38039, Note_off_c, 1, 74, 0
1, 38040, Note_on_c, 1, 69, 127
1, 38040, Note_on_c, 1, 48, 127
1, 38040, Note_on_c, 1, 72, 127
1, 38099, Note_off_c, 1, 69, 0
1, 38099, Note_off_c, 1, 48, 0
1, 38099, Note_off_c, 1, 72, 0
1, 38100, Note_on_c, 1, 67, 127
1, 38100, Note_on_c, 1, 50, 127
1, 38100, Note_on_c, 1, 74, 127
1, 38115, Note_off_c, 1, 74, 0
1, 38115, Note_on_c, 1, 72, 127
1, 38130, Note_off_c, 1, 72, 0
1, 38130, Note_on_c, 1, 71, 127
1, 38145, Note_off_c, 1, 71, 0
1, 38159, Note_off_c, 1, 67, 0
1, 38159, Note_off_c, 1, 50, 0
1, 38160, Note_on_c, 1, 43, 127
1, 38219, Note_off_c, 1, 43, 0
1, 38220, Note_on_c, 1, 55, 127
1, 38279, Note_off_c, 1, 55, 0
1, 38340, Note_on_c, 1, 45, 127
1, 38340, Note_on_c, 1, 69, 127
1, 38340, Note_on_c, 1, 72, 127
1, 38340, Note_on_c, 1, 74, 127
1, 38399, Note_off_c, 1, 45, 0
1, 38400, Note_on_c, 1, 55, 127
1, 38459, Note_off_c, 1, 55, 0
1, 38460, Note_off_c, 1, 69, 0
1, 38460, Note_off_c, 1, 72, 0
1, 38460, Note_off_c, 1, 74, 0
1, 38519, Note_on_c, 1, 47, 127
1, 38520, Note_on_c, 1, 71, 127
1, 38520, Note_on_c, 1, 67, 127
1, 38549, Note_on_c, 1, 50, 127
1, 38578, Note_off_c, 1, 50, 0
1, 38579, Note_off_c, 1, 47, 0
1, 38579, Note_off_c, 1, 71, 0
1, 38579, Note_off_c, 1, 67, 0
1, 38579, Note_on_c, 1, 52, 127
1, 38608, Note_off_c, 1, 52, 0
1, 38609, Note_on_c, 1, 53, 127
1, 38638, Note_off_c, 1, 53, 0
1, 38699, Note_on_c, 1, 49, 127
1, 38700, Note_on_c, 1, 76, 127
1, 38700, Note_on_c, 1, 73, 127
1, 38759, Note_off_c, 1, 49, 0
1, 38759, Note_off_c, 1, 73, 0
1, 38879, Note_off_c, 1, 76, 0
1, 38880, Note_on_c, 1, 77, 127
1, 38880, Note_on_c, 1, 50, 127
1, 38880, Note_on_c, 1, 65, 127
1, 38880, Note_on_c, 1, 69, 127
1, 38880, Note_on_c, 1, 74, 127
1, 38909, Note_off_c, 1, 77, 0
1, 38910, Note_on_c, 1, 79, 127
1, 38939, Note_off_c, 1, 50, 0
1, 38939, Note_off_c, 1, 79, 0
1, 38970, Note_on_c, 1, 76, 127
1, 38999, Note_off_c, 1, 76, 0
1, 39000, Note_off_c, 1, 65, 0
1, 39000, Note_off_c, 1, 74, 0
1, 39000, Note_on_c, 1, 52, 127
1, 39000, Note_on_c, 1, 64, 127
1, 39059, Note_off_c, 1, 69, 0
1, 39059, Note_off_c, 1, 52, 0
1, 39059, Note_off_c, 1, 64, 0
1, 39060, Note_on_c, 1, 74, 127
1, 39060, Note_on_c, 1, 53, 127
1, 39060, Note_on_c, 1, 69, 127
1, 39060, Note_on_c, 1, 65, 127
1, 39090, Note_on_c, 1, 76, 127
1, 39119, Note_off_c, 1, 53, 0
1, 39119, Note_off_c, 1, 76, 0
1, 39150, Note_on_c, 1, 72, 127
1, 39179, Note_off_c, 1, 72, 0
1, 39180, Note_on_c, 1, 50, 127
1, 39209, Note_off_c, 1, 74, 0
1, 39239, Note_off_c, 1, 69, 0
1, 39239, Note_off_c, 1, 65, 0
1, 39239, Note_off_c, 1, 50, 0
1, 39240, Note_on_c, 1, 71, 127
1, 39240, Note_on_c, 1, 55, 127
1, 39240, Note_on_c, 1, 74, 127
1, 39240, Note_on_c, 1, 67, 127
1, 39270, Note_on_c, 1, 72, 127
1, 39299, Note_off_c, 1, 55, 0
1, 39299, Note_off_c, 1, 72, 0
1, 39330, Note_on_c, 1, 69, 127
1, 39359, Note_off_c, 1, 69, 0
1, 39360, Note_off_c, 1, 74, 0
1, 39389, Note_off_c, 1, 71, 0
1, 39419, Note_off_c, 1, 67, 0
1, 39420, Note_on_c, 1, 72, 127
1, 39420, Note_on_c, 1, 57, 127
1, 39420, Note_on_c, 1, 74, 127
1, 39420, Note_on_c, 1, 69, 127
1, 39479, Note_off_c, 1, 57, 0
1, 39480, Note_on_c, 1, 67, 127
1, 39510, Note_on_c, 1, 71, 127
1, 39539, Note_off_c, 1, 67, 0
1, 39539, Note_off_c, 1, 71, 0
1, 39540, Note_off_c, 1, 74, 0
1, 39540, Note_off_c, 1, 69, 0
1, 39569, Note_off_c, 1, 72, 0
1, 39600, Note_on_c, 1, 74, 127
1, 39600, Note_on_c, 1, 59, 127
1, 39600, Note_on_c, 1, 71, 127
1, 39630, Note_on_c, 1, 76, 127
1, 39630, Note_on_c, 1, 62, 127
1, 39659, Note_off_c, 1, 59, 0
1, 39659, Note_off_c, 1, 76, 0
1, 39659, Note_off_c, 1, 62, 0
1, 39660, Note_on_c, 1, 64, 127
1, 39689, Note_off_c, 1, 64, 0
1, 39690, Note_on_c, 1, 72, 127
1, 39690, Note_on_c, 1, 65, 127
1, 39719, Note_off_c, 1, 72, 0
1, 39719, Note_off_c, 1, 65, 0
1, 39720, Note_off_c, 1, 71, 0
1, 39720, Note_on_c, 1, 67, 127
1, 39720, Note_on_c, 1, 55, 127
1, 39749, Note_off_c, 1, 74, 0
1, 39749, Note_off_c, 1, 67, 0
1, 39779, Note_off_c, 1, 55, 0
1, 39780, Note_on_c, 1, 76, 127
1, 39780, Note_on_c, 1, 60, 127
1, 39780, Note_on_c, 1, 72, 127
1, 39810, Note_on_c, 1, 77, 127
1, 39810, Note_on_c, 1, 62, 127
1, 39839, Note_off_c, 1, 60, 0
1, 39839, Note_off_c, 1, 77, 0
1, 39839, Note_off_c, 1, 62, 0
1, 39840, Note_on_c, 1, 64, 127
1, 39869, Note_off_c, 1, 64, 0
1, 39870, Note_on_c, 1, 74, 127
1, 39870, Note_on_c, 1, 65, 127
1, 39899, Note_off_c, 1, 74, 0
1, 39899, Note_off_c, 1, 65, 0
1, 39900, Note_off_c, 1, 72, 0
1, 39900, Note_on_c, 1, 67, 127
1, 39900, Note_on_c, 1, 55, 127
1, 39929, Note_off_c, 1, 76, 0
1, 39929, Note_off_c, 1, 67, 0
1, 39959, Note_off_c, 1, 55, 0
1, 39960, Note_on_c, 1, 77, 127
1, 39960, Note_on_c, 1, 62, 127
1, 39960, Note_on_c, 1, 74, 127
1, 39990, Note_on_c, 1, 67, 127
1, 40019, Note_off_c, 1, 62, 0
1, 40019, Note_off_c, 1, 67, 0
1, 40020, Note_on_c, 1, 76, 127
1, 40020, Note_on_c, 1, 65, 127
1, 40049, Note_off_c, 1, 65, 0
1, 40050, Note_on_c, 1, 64, 127
1, 40079, Note_off_c, 1, 76, 0
1, 40079, Note_off_c, 1, 64, 0
1, 40080, Note_off_c, 1, 77, 0
1, 40139, Note_off_c, 1, 74, 0
1, 40140, Note_on_c, 1, 79, 127
1, 40140, Note_on_c, 1, 59, 127
1, 40140, Note_on_c, 1, 71, 127
1, 40140, Note_on_c, 1, 67, 127
1, 40170, Note_on_c, 1, 65, 127
1, 40199, Note_off_c, 1, 79, 0
1, 40199, Note_off_c, 1, 59, 0
1, 40199, Note_off_c, 1, 65, 0
1, 40200, Note_on_c, 1, 77, 127
1, 40200, Note_on_c, 1, 64, 127
1, 40229, Note_off_c, 1, 77, 0
1, 40229, Note_off_c, 1, 64, 0
1, 40230, Note_on_c, 1, 76, 127
1, 40230, Note_on_c, 1, 62, 127
1, 40259, Note_off_c, 1, 76, 0
1, 40259, Note_off_c, 1, 62, 0
1, 40260, Note_off_c, 1, 71, 0
1, 40260, Note_off_c, 1, 67, 0
1, 40260, Note_on_c, 1, 74, 127
1, 40289, Note_off_c, 1, 74, 0
1, 40290, Note_on_c, 1, 72, 127
1, 40290, Note_on_c, 1, 60, 127
1, 40319, Note_off_c, 1, 72, 0
1, 40319, Note_off_c, 1, 60, 0
1, 40320, Note_on_c, 1, 71, 127
1, 40320, Note_on_c, 1, 55, 127
1, 40320, Note_on_c, 1, 67, 127
1, 40320, Note_on_c, 1, 64, 127
1, 40379, Note_off_c, 1, 55, 0
1, 40380, Note_on_c, 1, 62, 127
1, 40409, Note_off_c, 1, 62, 0
1, 40410, Note_on_c, 1, 60, 127
1, 40439, Note_off_c, 1, 71, 0
1, 40439, Note_off_c, 1, 60, 0
1, 40440, Note_off_c, 1, 64, 0
1, 40470, Note_on_c, 1, 59, 127
1, 40499, Note_off_c, 1, 67, 0
1, 40499, Note_off_c, 1, 59, 0
1, 40500, Note_on_c, 1, 72, 127
1, 40500, Note_on_c, 1, 55, 127
1, 40500, Note_on_c, 1, 67, 127
1, 40500, Note_on_c, 1, 62, 127
1, 40559, Note_off_c, 1, 72, 0
1, 40559, Note_off_c, 1, 55, 0
1, 40560, Note_on_c, 1, 74, 127
1, 40560, Note_on_c, 1, 60, 127
1, 40589, Note_off_c, 1, 60, 0
1, 40590, Note_on_c, 1, 59, 127
1, 40619, Note_off_c, 1, 74, 0
1, 40619, Note_off_c, 1, 59, 0
1, 40620, Note_off_c, 1, 67, 0
1, 40620, Note_off_c, 1, 62, 0
1, 40620, Note_on_c, 1, 76, 127
1, 40650, Note_on_c, 1, 57, 127
1, 40679, Note_off_c, 1, 76, 0
1, 40679, Note_off_c, 1, 57, 0
1, 40680, Note_on_c, 1, 77, 127
1, 40680, Note_on_c, 1, 55, 127
1, 40680, Note_on_c, 1, 67, 127
1, 40680, Note_on_c, 1, 60, 127
1, 40739, Note_off_c, 1, 55, 0
1, 40740, Note_on_c, 1, 59, 127
1, 40769, Note_off_c, 1, 59, 0
1, 40770, Note_on_c, 1, 57, 127
1, 40799, Note_off_c, 1, 57, 0
1, 40800, Note_off_c, 1, 67, 0
1, 40800, Note_off_c, 1, 60, 0
1, 40860, Note_on_c, 1, 64, 127
1, 40919, Note_off_c, 1, 77, 0
1, 40919, Note_off_c, 1, 64, 0
1, 40920, Note_on_c, 1, 79, 127
1, 40920, Note_on_c, 1, 59, 127
1, 40920, Note_on_c, 1, 67, 127
1, 40949, Note_off_c, 1, 79, 0
1, 40949, Note_off_c, 1, 59, 0
1, 40949, Note_off_c, 1, 67, 0
1, 40950, Note_on_c, 1, 77, 127
1, 40950, Note_on_c, 1, 57, 127
1, 40950, Note_on_c, 1, 65, 127
1, 40979, Note_off_c, 1, 77, 0
1, 40979, Note_off_c, 1, 57, 0
1, 40979, Note_off_c, 1, 65, 0
1, 40980, Note_on_c, 1, 76, 127
1, 40980, Note_on_c, 1, 55, 127
1, 40980, Note_on_c, 1, 64, 127
1, 41009, Note_off_c, 1, 76, 0
1, 41009, Note_off_c, 1, 55, 0
1, 41009, Note_off_c, 1, 64, 0
1, 41010, Note_on_c, 1, 77, 127
1, 41010, Note_on_c, 1, 53, 127
1, 41010, Note_on_c, 1, 62, 127
1, 41039, Note_off_c, 1, 77, 0
1, 41039, Note_off_c, 1, 53, 0
1, 41039, Note_off_c, 1, 62, 0
1, 41040, Note_on_c, 1, 79, 127
1, 41040, Note_on_c, 1, 52, 127
1, 41040, Note_on_c, 1, 60, 127
1, 41099, Note_off_c, 1, 79, 0
1, 41099, Note_off_c, 1, 52, 0
1, 41099, Note_off_c, 1, 60, 0
1, 41100, Note_on_c, 1, 72, 127
1, 41100, Note_on_c, 1, 53, 127
1, 41100, Note_on_c, 1, 69, 127
1, 41129, Note_off_c, 1, 53, 0
1, 41129, Note_off_c, 1, 69, 0
1, 41130, Note_on_c, 1, 52, 127
1, 41130, Note_on_c, 1, 67, 127
1, 41159, Note_off_c, 1, 72, 0
1, 41159, Note_off_c, 1, 52, 0
1, 41159, Note_off_c, 1, 67, 0
1, 41160, Note_on_c, 1, 74, 127
1, 41160, Note_on_c, 1, 50, 127
1, 41160, Note_on_c, 1, 65, 127
1, 41189, Note_off_c, 1, 50, 0
1, 41189, Note_off_c, 1, 65, 0
1, 41190, Note_on_c, 1, 48, 127
1, 41190, Note_on_c, 1, 64, 127
1, 41219, Note_off_c, 1, 74, 0
1, 41219, Note_off_c, 1, 48, 0
1, 41219, Note_off_c, 1, 64, 0
1, 41220, Note_on_c, 1, 67, 127
1, 41220, Note_on_c, 1, 55, 127
1, 41279, Note_off_c, 1, 67, 0
1, 41279, Note_off_c, 1, 55, 0
1, 41280, Note_on_c, 1, 76, 127
1, 41280, Note_on_c, 1, 53, 127
1, 41280, Note_on_c, 1, 67, 127
1, 41309, Note_off_c, 1, 67, 0
1, 41310, Note_on_c, 1, 65, 127
1, 41339, Note_off_c, 1, 76, 0
1, 41339, Note_off_c, 1, 53, 0
1, 41339, Note_off_c, 1, 65, 0
1, 41340, Note_on_c, 1, 74, 127
1, 41340, Note_on_c, 1, 55, 127
1, 41340, Note_on_c, 1, 64, 127
1, 41369, Note_off_c, 1, 64, 0
1, 41370, Note_on_c, 1, 62, 127
1, 41399, Note_off_c, 1, 74, 0
1, 41399, Note_off_c, 1, 55, 0
1, 41399, Note_off_c, 1, 62, 0
1, 41400, Note_on_c, 1, 72, 127
1, 41400, Note_on_c, 1, 48, 127
1, 41400, Note_on_c, 1, 64, 127
1, 41400, Note_on_c, 1, 60, 127
1, 41430, Note_on_c, 1, 62, 127
1, 41459, Note_off_c, 1, 48, 0
1, 41459, Note_off_c, 1, 62, 0
1, 41490, Note_on_c, 1, 58, 127
1, 41519, Note_off_c, 1, 58, 0
1, 41550, Note_on_c, 1, 57, 127
1, 41579, Note_off_c, 1, 72, 0
1, 41579, Note_off_c, 1, 64, 0
1, 41579, Note_off_c, 1, 60, 0
1, 41579, Note_off_c, 1, 57, 0
1, 41580, Note_on_c, 1, 48, 127
1, 41580, Note_on_c, 1, 64, 127
1, 41580, Note_on_c, 1, 60, 127
1, 41639, Note_off_c, 1, 48, 0
1, 41640, Note_on_c, 1, 58, 127
1, 41669, Note_off_c, 1, 58, 0
1, 41670, Note_on_c, 1, 57, 127
1, 41699, Note_off_c, 1, 57, 0
1, 41700, Note_off_c, 1, 64, 0
1, 41700, Note_off_c, 1, 60, 0
1, 41730, Note_on_c, 1, 55, 127
1, 41759, Note_off_c, 1, 55, 0
1, 41760, Note_on_c, 1, 48, 127
1, 41760, Note_on_c, 1, 64, 127
1, 41760, Note_on_c, 1, 59, 127
1, 41790, Note_on_c, 1, 58, 127
1, 41819, Note_off_c, 1, 48, 0
1, 41819, Note_off_c, 1, 58, 0
1, 41820, Note_on_c, 1, 57, 127
1, 41849, Note_off_c, 1, 57, 0
1, 41850, Note_on_c, 1, 55, 127
1, 41879, Note_off_c, 1, 55, 0
1, 41880, Note_off_c, 1, 64, 0
1, 41880, Note_off_c, 1, 59, 0
1, 41910, Note_on_c, 1, 53, 127
1, 41939, Note_off_c, 1, 53, 0
1, 41940, Note_on_c, 1, 48, 127
1, 41940, Note_on_c, 1, 64, 127
1, 41940, Note_on_c, 1, 57, 127
1, 41999, Note_off_c, 1, 48, 0
1, 42000, Note_on_c, 1, 55, 127
1, 42029, Note_off_c, 1, 55, 0
1, 42030, Note_on_c, 1, 53, 127
1, 42059, Note_off_c, 1, 53, 0
1, 42060, Note_off_c, 1, 64, 0
1, 42060, Note_off_c, 1, 57, 0
1, 42090, Note_on_c, 1, 52, 127
1, 42119, Note_off_c, 1, 52, 0
1, 42120, Note_on_c, 1, 50, 127
1, 42120, Note_on_c, 1, 62, 127
1, 42120, Note_on_c, 1, 67, 127
1, 42150, Note_on_c, 1, 55, 127
1, 42179, Note_off_c, 1, 50, 0
1, 42179, Note_off_c, 1, 55, 0
1, 42180, Note_on_c, 1, 53, 127
1, 42209, Note_off_c, 1, 53, 0
1, 42210, Note_on_c, 1, 52, 127
1, 42239, Note_off_c, 1, 52, 0
1, 42240, Note_off_c, 1, 62, 0
1, 42240, Note_off_c, 1, 67, 0
1, 42270, Note_on_c, 1, 50, 127
1, 42299, Note_off_c, 1, 50, 0
1, 42300, Note_on_c, 1, 47, 127
1, 42300, Note_on_c, 1, 65, 127
1, 42300, Note_on_c, 1, 62, 127
1, 42330, Note_on_c, 1, 53, 127
1, 42359, Note_off_c, 1, 47, 0
1, 42359, Note_off_c, 1, 53, 0
1, 42360, Note_on_c, 1, 52, 127
1, 42389, Note_off_c, 1, 52, 0
1, 42390, Note_on_c, 1, 50, 127
1, 42419, Note_off_c, 1, 50, 0
1, 42420, Note_off_c, 1, 65, 0
1, 42420, Note_off_c, 1, 62, 0
1, 42450, Note_on_c, 1, 48, 127
1, 42479, Note_off_c, 1, 48, 0
1, 42480, Note_on_c, 1, 43, 127
1, 42480, Note_on_c, 1, 67, 127
1, 42480, Note_on_c, 1, 64, 127
1, 42510, Note_on_c, 1, 52, 127
1, 42539, Note_off_c, 1, 43, 0
1, 42539, Note_off_c, 1, 52, 0
1, 42540, Note_on_c, 1, 50, 127
1, 42569, Note_off_c, 1, 50, 0
1, 42570, Note_on_c, 1, 48, 127
1, 42599, Note_off_c, 1, 48, 0
1, 42600, Note_off_c, 1, 67, 0
1, 42600, Note_off_c, 1, 64, 0
1, 42630, Note_on_c, 1, 47, 127
1, 42659, Note_off_c, 1, 47, 0
1, 42660, Note_on_c, 1, 43, 127
1, 42660, Note_on_c, 1, 67, 127
1, 42660, Note_on_c, 1, 62, 127
1, 42690, Note_on_c, 1, 50, 127
1, 42719, Note_off_c, 1, 43, 0
1, 42719, Note_off_c, 1, 50, 0
1, 42720, Note_on_c, 1, 48, 127
1, 42749, Note_off_c, 1, 48, 0
1, 42750, Note_on_c, 1, 47, 127
1, 42779, Note_off_c, 1, 47, 0
1, 42780, Note_off_c, 1, 67, 0
1, 42780, Note_off_c, 1, 62, 0
1, 42810, Note_on_c, 1, 45, 127
1, 42839, Note_off_c, 1, 45, 0
1, 42840, Note_on_c, 1, 43, 127
1, 42840, Note_on_c, 1, 67, 127
1, 42840, Note_on_c, 1, 60, 127
1, 42870, Note_on_c, 1, 48, 127
1, 42899, Note_off_c, 1, 43, 0
1, 42899, Note_off_c, 1, 48, 0
1, 42900, Note_on_c, 1, 47, 127
1, 42929, Note_off_c, 1, 47, 0
1, 42930, Note_on_c, 1, 45, 127
1, 42959, Note_off_c, 1, 45, 0
1, 42960, Note_off_c, 1, 67, 0
1, 42960, Note_off_c, 1, 60, 0
1, 42960, Note_on_c, 1, 65, 127
1, 42960, Note_on_c, 1, 62, 127
1, 43019, Note_off_c, 1, 65, 0
1, 43019, Note_off_c, 1, 62, 0
1, 43020, Note_on_c, 1, 48, 127
1, 43020, Note_on_c, 1, 67, 127
1, 43020, Note_on_c, 1, 64, 127
1, 43020, Note_on_c, 1, 60, 127
1, 43079, Note_off_c, 1, 48, 0
1, 43079, Note_off_c, 1, 67, 0
1, 43079, Note_off_c, 1, 64, 0
1, 43079, Note_off_c, 1, 60, 0
1, 43080, Note_on_c, 1, 47, 127
1, 43080, Note_on_c, 1, 67, 127
1, 43109, Note_off_c, 1, 47, 0
1, 43109, Note_off_c, 1, 67, 0
1, 43110, Note_on_c, 1, 45, 127
1, 43110, Note_on_c, 1, 65, 127
1, 43139, Note_off_c, 1, 45, 0
1, 43139, Note_off_c, 1, 65, 0
1, 43140, Note_on_c, 1, 43, 127
1, 43140, Note_on_c, 1, 64, 127
1, 43169, Note_off_c, 1, 43, 0
1, 43169, Note_off_c, 1, 64, 0
1, 43170, Note_on_c, 1, 41, 127
1, 43170, Note_on_c, 1, 62, 127
1, 43199, Note_off_c, 1, 41, 0
1, 43199, Note_off_c, 1, 62, 0
1, 43200, Note_on_c, 1, 40, 127
1, 43200, Note_on_c, 1, 60, 127
1, 43259, Note_off_c, 1, 40, 0
1, 43259, Note_off_c, 1, 60, 0
1, 43260, Note_on_c, 1, 41, 127
1, 43260, Note_on_c, 1, 69, 127
1, 43289, Note_off_c, 1, 41, 0
1, 43289, Note_off_c, 1, 69, 0
1, 43290, Note_on_c, 1, 40, 127
1, 43290, Note_on_c, 1, 67, 127
1, 43319, Note_off_c, 1, 40, 0
1, 43319, Note_off_c, 1, 67, 0
1, 43320, Note_on_c, 1, 38, 127
1, 43320, Note_on_c, 1, 65, 127
1, 43349, Note_off_c, 1, 38, 0
1, 43349, Note_off_c, 1, 65, 0
1, 43350, Note_on_c, 1, 36, 127
1, 43350, Note_on_c, 1, 64, 127
1, 43379, Note_off_c, 1, 36, 0
1, 43379, Note_off_c, 1, 64, 0
1, 43380, Note_on_c, 1, 43, 127
1, 43380, Note_on_c, 1, 65, 127
1, 43439, Note_off_c, 1, 43, 0
1, 43439, Note_off_c, 1, 65, 0
1, 43440, Note_on_c, 1, 41, 127
1, 43440, Note_on_c, 1, 67, 127
1, 43469, Note_off_c, 1, 67, 0
1, 43470, Note_on_c, 1, 65, 127
1, 43499, Note_off_c, 1, 41, 0
1, 43499, Note_off_c, 1, 65, 0
1, 43500, Note_on_c, 1, 43, 127
1, 43500, Note_on_c, 1, 64, 127
1, 43529, Note_off_c, 1, 64, 0
1, 43530, Note_on_c, 1, 62, 127
1, 43559, Note_off_c, 1, 43, 0
1, 43559, Note_off_c, 1, 62, 0
1, 43560, Note_on_c, 1, 36, 127
1, 43560, Note_on_c, 1, 60, 127
1, 43739, Note_off_c, 1, 36, 0
1, 43739, Note_off_c, 1, 60, 0
1, 43740, Note_on_c, 1, 67, 127
1, 43859, Note_off_c, 1, 67, 0
1, 43860, Note_on_c, 1, 69, 127
1, 43919, Note_off_c, 1, 69, 0
1, 43920, Note_on_c, 1, 71, 127
1, 43920, Note_on_c, 1, 43, 127
1, 43920, Note_on_c, 1, 67, 127
1, 43920, Note_on_c, 1, 62, 127
1, 43920, Note_on_c, 1, 59, 127
1, 44039, Note_off_c, 1, 71, 0
1, 44040, Note_off_c, 1, 43, 0
1, 44040, Note_off_c, 1, 67, 0
1, 44040, Note_off_c, 1, 62, 0
1, 44040, Note_off_c, 1, 59, 0
1, 44040, Note_on_c, 1, 72, 127
1, 44040, Note_on_c, 1, 45, 127
1, 44040, Note_on_c, 1, 60, 127
1, 44040, Note_on_c, 1, 57, 127
1, 44099, Note_off_c, 1, 72, 0
1, 44100, Note_off_c, 1, 45, 0
1, 44100, Note_off_c, 1, 60, 0
1, 44100, Note_off_c, 1, 57, 0
1, 44100, Note_on_c, 1, 74, 127
1, 44100, Note_on_c, 1, 47, 127
1, 44159, Note_off_c, 1, 74, 0
1, 44160, Note_off_c, 1, 47, 0
1, 44160, Note_on_c, 1, 64, 127
1, 44220, Note_on_c, 1, 76, 127
1, 44220, Note_on_c, 1, 44, 127
1, 44279, Note_off_c, 1, 76, 0
1, 44280, Note_off_c, 1, 44, 0
1, 44400, Note_off_c, 1, 64, 0
1, 44460, Note_on_c, 1, 74, 127
1, 44460, Note_on_c, 1, 47, 127
1, 44460, Note_on_c, 1, 59, 127
1, 44460, Note_on_c, 1, 64, 127
1, 44460, Note_on_c, 1, 62, 127
1, 44519, Note_off_c, 1, 74, 0
1, 44519, Note_off_c, 1, 47, 0
1, 44520, Note_on_c, 1, 76, 127
1, 44520, Note_on_c, 1, 57, 127
1, 44579, Note_off_c, 1, 76, 0
1, 44579, Note_off_c, 1, 57, 0
1, 44580, Note_off_c, 1, 59, 0
1, 44580, Note_off_c, 1, 64, 0
1, 44580, Note_off_c, 1, 62, 0
1, 44580, Note_on_c, 1, 77, 127
1, 44639, Note_off_c, 1, 77, 0
1, 44640, Note_on_c, 1, 76, 127
1, 44640, Note_on_c, 1, 48, 127
1, 44640, Note_on_c, 1, 60, 127
1, 44640, Note_on_c, 1, 64, 127
1, 44670, Note_on_c, 1, 52, 127
1, 44699, Note_off_c, 1, 76, 0
1, 44699, Note_off_c, 1, 48, 0
1, 44699, Note_off_c, 1, 52, 0
1, 44700, Note_on_c, 1, 74, 127
1, 44700, Note_on_c, 1, 54, 127
1, 44729, Note_off_c, 1, 54, 0
1, 44730, Note_on_c, 1, 56, 127
1, 44759, Note_off_c, 1, 74, 0
1, 44759, Note_off_c, 1, 56, 0
1, 44760, Note_off_c, 1, 60, 0
1, 44760, Note_off_c, 1, 64, 0
1, 44760, Note_on_c, 1, 72, 127
1, 44760, Note_on_c, 1, 57, 127
1, 44789, Note_off_c, 1, 57, 0
1, 44819, Note_off_c, 1, 72, 0
1, 44820, Note_on_c, 1, 71, 127
1, 44820, Note_on_c, 1, 50, 127
1, 44820, Note_on_c, 1, 62, 127
1, 44820, Note_on_c, 1, 65, 127
1, 44850, Note_on_c, 1, 52, 127
1, 44879, Note_off_c, 1, 71, 0
1, 44879, Note_off_c, 1, 50, 0
1, 44879, Note_off_c, 1, 52, 0
1, 44880, Note_on_c, 1, 74, 127
1, 44880, Note_on_c, 1, 53, 127
1, 44909, Note_off_c, 1, 53, 0
1, 44910, Note_on_c, 1, 55, 127
1, 44939, Note_off_c, 1, 74, 0
1, 44939, Note_off_c, 1, 55, 0
1, 44940, Note_off_c, 1, 62, 0
1, 44940, Note_off_c, 1, 65, 0
1, 44940, Note_on_c, 1, 69, 127
1, 44940, Note_on_c, 1, 57, 127
1, 44969, Note_off_c, 1, 57, 0
1, 44999, Note_off_c, 1, 69, 0
1, 45000, Note_on_c, 1, 68, 127
1, 45000, Note_on_c, 1, 52, 127
1, 45000, Note_on_c, 1, 64, 127
1, 45059, Note_off_c, 1, 52, 0
1, 45120, Note_off_c, 1, 68, 0
1, 45120, Note_on_c, 1, 72, 127
1, 45179, Note_off_c, 1, 64, 0
1, 45179, Note_off_c, 1, 72, 0
1, 45180, Note_on_c, 1, 71, 127
1, 45180, Note_on_c, 1, 54, 127
1, 45180, Note_on_c, 1, 66, 127
1, 45239, Note_off_c, 1, 54, 0
1, 45240, Note_on_c, 1, 68, 127
1, 45240, Note_on_c, 1, 64, 127
1, 45299, Note_off_c, 1, 68, 0
1, 45299, Note_off_c, 1, 64, 0
1, 45300, Note_off_c, 1, 71, 0
1, 45300, Note_off_c, 1, 66, 0
1, 45300, Note_on_c, 1, 69, 127
1, 45359, Note_off_c, 1, 69, 0
1, 45360, Note_on_c, 1, 64, 127
1, 45360, Note_on_c, 1, 56, 127
1, 45360, Note_on_c, 1, 68, 127
1, 45360, Note_on_c, 1, 71, 127
1, 45390, Note_on_c, 1, 59, 127
1, 45419, Note_off_c, 1, 56, 0
1, 45419, Note_off_c, 1, 59, 0
1, 45420, Note_on_c, 1, 60, 127
1, 45449, Note_off_c, 1, 60, 0
1, 45450, Note_on_c, 1, 62, 127
1, 45479, Note_off_c, 1, 62, 0
1, 45480, Note_off_c, 1, 71, 0
1, 45539, Note_off_c, 1, 64, 0
1, 45539, Note_off_c, 1, 68, 0
1, 45540, Note_on_c, 1, 76, 127
1, 45540, Note_on_c, 1, 57, 127
1, 45540, Note_on_c, 1, 60, 127
1, 45540, Note_on_c, 1, 64, 127
1, 45540, Note_on_c, 1, 69, 127
1, 45570, Note_on_c, 1, 59, 127
1, 45599, Note_off_c, 1, 76, 0
1, 45599, Note_off_c, 1, 57, 0
1, 45599, Note_off_c, 1, 59, 0
1, 45600, Note_on_c, 1, 72, 127
1, 45630, Note_on_c, 1, 62, 127
1, 45659, Note_off_c, 1, 72, 0
1, 45659, Note_off_c, 1, 62, 0
1, 45660, Note_off_c, 1, 60, 0
1, 45689, Note_off_c, 1, 64, 0
1, 45719, Note_off_c, 1, 69, 0
1, 45720, Note_on_c, 1, 74, 127
1, 45720, Note_on_c, 1, 59, 127
1, 45720, Note_on_c, 1, 64, 127
1, 45720, Note_on_c, 1, 68, 127
1, 45779, Note_off_c, 1, 74, 0
1, 45779, Note_off_c, 1, 59, 0
1, 45780, Note_on_c, 1, 76, 127
1, 45780, Note_on_c, 1, 62, 127
1, 45809, Note_off_c, 1, 62, 0
1, 45810, Note_on_c, 1, 60, 127
1, 45839, Note_off_c, 1, 76, 0
1, 45839, Note_off_c, 1, 60, 0
1, 45840, Note_off_c, 1, 64, 0
1, 45840, Note_off_c, 1, 68, 0
1, 45840, Note_on_c, 1, 77, 127
1, 45899, Note_off_c, 1, 77, 0
1, 45900, Note_on_c, 1, 76, 127
1, 45900, Note_on_c, 1, 56, 127
1, 45900, Note_on_c, 1, 64, 127
1, 45900, Note_on_c, 1, 68, 127
1, 45900, Note_on_c, 1, 62, 127
1, 45959, Note_off_c, 1, 76, 0
1, 45959, Note_off_c, 1, 56, 0
1, 45960, Note_on_c, 1, 74, 127
1, 45960, Note_on_c, 1, 60, 127
1, 45989, Note_off_c, 1, 60, 0
1, 45990, Note_on_c, 1, 59, 127
1, 46019, Note_off_c, 1, 74, 0
1, 46019, Note_off_c, 1, 59, 0
1, 46020, Note_off_c, 1, 64, 0
1, 46020, Note_off_c, 1, 68, 0
1, 46020, Note_off_c, 1, 62, 0
1, 46020, Note_on_c, 1, 72, 127
1, 46050, Note_on_c, 1, 57, 127
1, 46079, Note_off_c, 1, 72, 0
1, 46079, Note_off_c, 1, 57, 0
1, 46080, Note_on_c, 1, 71, 127
1, 46080, Note_on_c, 1, 52, 127
1, 46080, Note_on_c, 1, 64, 127
1, 46080, Note_on_c, 1, 60, 127
1, 46139, Note_off_c, 1, 71, 0
1, 46139, Note_off_c, 1, 52, 0
1, 46140, Note_on_c, 1, 72, 127
1, 46140, Note_on_c, 1, 59, 127
1, 46169, Note_off_c, 1, 59, 0
1, 46170, Note_on_c, 1, 57, 127
1, 46199, Note_off_c, 1, 72, 0
1, 46199, Note_off_c, 1, 57, 0
1, 46200, Note_off_c, 1, 64, 0
1, 46200, Note_off_c, 1, 60, 0
1, 46200, Note_on_c, 1, 74, 127
1, 46230, Note_on_c, 1, 56, 127
1, 46259, Note_off_c, 1, 74, 0
1, 46259, Note_off_c, 1, 56, 0
1, 46260, Note_on_c, 1, 72, 127
1, 46260, Note_on_c, 1, 52, 127
1, 46260, Note_on_c, 1, 64, 127
1, 46260, Note_on_c, 1, 59, 127
1, 46319, Note_off_c, 1, 72, 0
1, 46319, Note_off_c, 1, 52, 0
1, 46320, Note_on_c, 1, 71, 127
1, 46320, Note_on_c, 1, 57, 127
1, 46349, Note_off_c, 1, 57, 0
1, 46350, Note_on_c, 1, 56, 127
1, 46379, Note_off_c, 1, 71, 0
1, 46379, Note_off_c, 1, 56, 0
1, 46380, Note_off_c, 1, 64, 0
1, 46380, Note_off_c, 1, 59, 0
1, 46380, Note_on_c, 1, 69, 127
1, 46410, Note_on_c, 1, 54, 127
1, 46439, Note_off_c, 1, 69, 0
1, 46439, Note_off_c, 1, 54, 0
1, 46440, Note_on_c, 1, 77, 127
1, 46440, Note_on_c, 1, 52, 127
1, 46440, Note_on_c, 1, 64, 127
1, 46440, Note_on_c, 1, 57, 127
1, 46440, Note_on_c, 1, 65, 127
1, 46499, Note_off_c, 1, 52, 0
1, 46500, Note_on_c, 1, 56, 127
1, 46529, Note_off_c, 1, 56, 0
1, 46530, Note_on_c, 1, 54, 127
1, 46559, Note_off_c, 1, 54, 0
1, 46560, Note_off_c, 1, 64, 0
1, 46560, Note_off_c, 1, 57, 0
1, 46560, Note_off_c, 1, 65, 0
1, 46620, Note_on_c, 1, 69, 127
1, 46679, Note_off_c, 1, 69, 0
1, 46680, Note_on_c, 1, 55, 127
1, 46680, Note_on_c, 1, 71, 127
1, 46709, Note_off_c, 1, 55, 0
1, 46709, Note_off_c, 1, 71, 0
1, 46710, Note_on_c, 1, 53, 127
1, 46739, Note_off_c, 1, 53, 0
1, 46740, Note_off_c, 1, 77, 0
1, 46740, Note_on_c, 1, 67, 127
1, 46769, Note_off_c, 1, 67, 0
1, 46770, Note_on_c, 1, 50, 127
1, 46799, Note_off_c, 1, 50, 0
1, 46800, Note_on_c, 1, 76, 127
1, 46800, Note_on_c, 1, 48, 127
1, 46800, Note_on_c, 1, 64, 127
1, 46859, Note_off_c, 1, 76, 0
1, 46859, Note_off_c, 1, 48, 0
1, 46859, Note_off_c, 1, 64, 0
1, 46860, Note_on_c, 1, 69, 127
1, 46860, Note_on_c, 1, 50, 127
1, 46889, Note_off_c, 1, 50, 0
1, 46890, Note_on_c, 1, 48, 127
1, 46890, Note_on_c, 1, 67, 127
1, 46919, Note_off_c, 1, 69, 0
1, 46919, Note_off_c, 1, 48, 0
1, 46919, Note_off_c, 1, 67, 0
1, 46920, Note_on_c, 1, 71, 127
1, 46920, Note_on_c, 1, 47, 127
1, 46920, Note_on_c, 1, 65, 127
1, 46949, Note_off_c, 1, 47, 0
1, 46949, Note_off_c, 1, 65, 0
1, 46950, Note_on_c, 1, 45, 127
1, 46950, Note_on_c, 1, 64, 127
1, 46979, Note_off_c, 1, 71, 0
1, 46979, Note_off_c, 1, 45, 0
1, 46979, Note_off_c, 1, 64, 0
1, 46980, Note_on_c, 1, 64, 127
1, 46980, Note_on_c, 1, 52, 127
1, 46980, Note_on_c, 1, 62, 127
1, 47039, Note_off_c, 1, 64, 0
1, 47039, Note_off_c, 1, 52, 0
1, 47039, Note_off_c, 1, 62, 0
1, 47040, Note_on_c, 1, 69, 127
1, 47040, Note_on_c, 1, 50, 127
1, 47040, Note_on_c, 1, 72, 127
1, 47069, Note_off_c, 1, 72, 0
1, 47070, Note_on_c, 1, 71, 127
1, 47099, Note_off_c, 1, 69, 0
1, 47099, Note_off_c, 1, 50, 0
1, 47099, Note_off_c, 1, 71, 0
1, 47100, Note_on_c, 1, 68, 127
1, 47100, Note_on_c, 1, 52, 127
1, 47100, Note_on_c, 1, 69, 127
1, 47129, Note_off_c, 1, 69, 0
1, 47159, Note_off_c, 1, 68, 0
1, 47159, Note_off_c, 1, 52, 0
1, 47160, Note_on_c, 1, 69, 127
1, 47160, Note_on_c, 1, 45, 127
1, 47160, Note_on_c, 1, 64, 127
1, 47160, Note_on_c, 1, 60, 127
1, 47219, Note_off_c, 1, 45, 0
1, 47220, Note_on_c, 1, 52, 127
1, 47279, Note_off_c, 1, 69, 0
1, 47279, Note_off_c, 1, 64, 0
1, 47279, Note_off_c, 1, 60, 0
1, 47279, Note_off_c, 1, 52, 0
1, 47280, Note_on_c, 1, 69, 127
1, 47280, Note_on_c, 1, 52, 127
1, 47339, Note_off_c, 1, 69, 0
1, 47339, Note_off_c, 1, 52, 0
1, 47340, Note_on_c, 1, 72, 127
1, 47340, Note_on_c, 1, 43, 127
1, 47340, Note_on_c, 1, 67, 127
1, 47340, Note_on_c, 1, 64, 127
1, 47340, Note_on_c, 1, 60, 127
1, 47399, Note_off_c, 1, 43, 0
1, 47400, Note_on_c, 1, 52, 127
1, 47459, Note_off_c, 1, 72, 0
1, 47459, Note_off_c, 1, 67, 0
1, 47459, Note_off_c, 1, 64, 0
1, 47459, Note_off_c, 1, 60, 0
1, 47459, Note_off_c, 1, 52, 0
1, 47460, Note_on_c, 1, 72, 127
1, 47460, Note_on_c, 1, 52, 127
1, 47519, Note_off_c, 1, 72, 0
1, 47519, Note_off_c, 1, 52, 0
1, 47520, Note_on_c, 1, 72, 127
1, 47520, Note_on_c, 1, 42, 127
1, 47520, Note_on_c, 1, 66, 127
1, 47520, Note_on_c, 1, 60, 127
1, 47520, Note_on_c, 1, 57, 127
1, 47550, Note_on_c, 1, 45, 127
1, 47579, Note_off_c, 1, 72, 0
1, 47579, Note_off_c, 1, 42, 0
1, 47579, Note_off_c, 1, 45, 0
1, 47580, Note_on_c, 1, 69, 127
1, 47580, Note_on_c, 1, 47, 127
1, 47609, Note_off_c, 1, 47, 0
1, 47610, Note_on_c, 1, 48, 127
1, 47639, Note_off_c, 1, 66, 0
1, 47639, Note_off_c, 1, 60, 0
1, 47639, Note_off_c, 1, 57, 0
1, 47639, Note_off_c, 1, 69, 0
1, 47639, Note_off_c, 1, 48, 0
1, 47640, Note_on_c, 1, 71, 127
1, 47640, Note_on_c, 1, 50, 127
1, 47669, Note_off_c, 1, 50, 0
1, 47670, Note_on_c, 1, 40, 127
1, 47699, Note_off_c, 1, 71, 0
1, 47699, Note_off_c, 1, 40, 0
1, 47700, Note_on_c, 1, 72, 127
1, 47700, Note_on_c, 1, 38, 127
1, 47700, Note_on_c, 1, 66, 127
1, 47700, Note_on_c, 1, 62, 127
1, 47700, Note_on_c, 1, 57, 127
1, 47730, Note_on_c, 1, 45, 127
1, 47759, Note_off_c, 1, 72, 0
1, 47759, Note_off_c, 1, 38, 0
1, 47759, Note_off_c, 1, 45, 0
1, 47760, Note_on_c, 1, 76, 127
1, 47760, Note_on_c, 1, 47, 127
1, 47789, Note_off_c, 1, 47, 0
1, 47790, Note_on_c, 1, 48, 127
1, 47819, Note_off_c, 1, 66, 0
1, 47819, Note_off_c, 1, 62, 0
1, 47819, Note_off_c, 1, 57, 0
1, 47819, Note_off_c, 1, 76, 0
1, 47819, Note_off_c, 1, 48, 0
1, 47820, Note_on_c, 1, 74, 127
1, 47820, Note_on_c, 1, 50, 127
1, 47820, Note_on_c, 1, 60, 127
1, 47849, Note_off_c, 1, 50, 0
1, 47850, Note_on_c, 1, 42, 127
1, 47879, Note_off_c, 1, 74, 0
1, 47879, Note_off_c, 1, 42, 0
1, 47880, Note_off_c, 1, 60, 0
1, 47880, Note_on_c, 1, 71, 127
1, 47880, Note_on_c, 1, 43, 127
1, 47880, Note_on_c, 1, 67, 127
1, 47880, Note_on_c, 1, 62, 127
1, 47880, Note_on_c, 1, 59, 127
1, 47939, Note_off_c, 1, 43, 0
1, 47970, Note_on_c, 1, 48, 127
1, 47999, Note_off_c, 1, 67, 0
1, 47999, Note_off_c, 1, 62, 0
1, 47999, Note_off_c, 1, 59, 0
1, 47999, Note_off_c, 1, 48, 0
1, 48000, Note_on_c, 1, 47, 127
1, 48000, Note_on_c, 1, 65, 127
1, 48030, Note_on_c, 1, 45, 127
1, 48059, Note_off_c, 1, 71, 0
1, 48059, Note_off_c, 1, 47, 0
1, 48059, Note_off_c, 1, 65, 0
1, 48059, Note_off_c, 1, 45, 0
1, 48060, Note_on_c, 1, 76, 127
1, 48060, Note_on_c, 1, 43, 127
1, 48060, Note_on_c, 1, 67, 127
1, 48060, Note_on_c, 1, 64, 127
1, 48060, Note_on_c, 1, 60, 127
1, 48119, Note_off_c, 1, 43, 0
1, 48120, Note_on_c, 1, 47, 127
1, 48149, Note_off_c, 1, 47, 0
1, 48150, Note_on_c, 1, 45, 127
1, 48179, Note_off_c, 1, 76, 0
1, 48179, Note_off_c, 1, 67, 0
1, 48179, Note_off_c, 1, 64, 0
1, 48179, Note_off_c, 1, 60, 0
1, 48179, Note_off_c, 1, 45, 0
1, 48180, Note_on_c, 1, 78, 127
1, 48180, Note_on_c, 1, 43, 127
1, 48210, Note_on_c, 1, 42, 127
1, 48239, Note_off_c, 1, 78, 0
1, 48239, Note_off_c, 1, 43, 0
1, 48239, Note_off_c, 1, 42, 0
1, 48240, Note_on_c, 1, 79, 127
1, 48240, Note_on_c, 1, 40, 127
1, 48240, Note_on_c, 1, 64, 127
1, 48240, Note_on_c, 1, 59, 127
1, 48240, Note_on_c, 1, 67, 127
1, 48299, Note_off_c, 1, 40, 0
1, 48299, Note_off_c, 1, 64, 0
1, 48299, Note_off_c, 1, 59, 0
1, 48299, Note_off_c, 1, 67, 0
1, 48300, Note_on_c, 1, 52, 127
1, 48300, Note_on_c, 1, 78, 127
1, 48329, Note_off_c, 1, 78, 0
1, 48330, Note_on_c, 1, 76, 127
1, 48359, Note_off_c, 1, 79, 0
1, 48359, Note_off_c, 1, 52, 0
1, 48359, Note_off_c, 1, 76, 0
1, 48360, Note_on_c, 1, 78, 127
1, 48360, Note_on_c, 1, 52, 127
1, 48360, Note_on_c, 1, 74, 127
1, 48389, Note_off_c, 1, 74, 0
1, 48390, Note_on_c, 1, 72, 127
1, 48419, Note_off_c, 1, 78, 0
1, 48419, Note_off_c, 1, 52, 0
1, 48419, Note_off_c, 1, 72, 0
1, 48420, Note_on_c, 1, 76, 127
1, 48420, Note_on_c, 1, 42, 127
1, 48420, Note_on_c, 1, 66, 127
1, 48420, Note_on_c, 1, 63, 127
1, 48420, Note_on_c, 1, 71, 127
1, 48479, Note_off_c, 1, 76, 0
1, 48479, Note_off_c, 1, 42, 0
1, 48479, Note_off_c, 1, 66, 0
1, 48479, Note_off_c, 1, 63, 0
1, 48479, Note_off_c, 1, 71, 0
1, 48480, Note_on_c, 1, 75, 127
1, 48480, Note_on_c, 1, 52, 127
1, 48510, Note_on_c, 1, 73, 127
1, 48539, Note_off_c, 1, 75, 0
1, 48539, Note_off_c, 1, 52, 0
1, 48539, Note_off_c, 1, 73, 0
1, 48540, Note_on_c, 1, 76, 127
1, 48540, Note_on_c, 1, 52, 127
1, 48540, Note_on_c, 1, 71, 127
1, 48569, Note_off_c, 1, 71, 0
1, 48570, Note_on_c, 1, 69, 127
1, 48599, Note_off_c, 1, 76, 0
1, 48599, Note_off_c, 1, 52, 0
1, 48599, Note_off_c, 1, 69, 0
1, 48600, Note_on_c, 1, 71, 127
1, 48600, Note_on_c, 1, 43, 127
1, 48600, Note_on_c, 1, 67, 127
1, 48600, Note_on_c, 1, 64, 127
1, 48600, Note_on_c, 1, 59, 127
1, 48630, Note_on_c, 1, 47, 127
1, 48659, Note_off_c, 1, 43, 0
1, 48659, Note_off_c, 1, 47, 0
1, 48660, Note_on_c, 1, 49, 127
1, 48689, Note_off_c, 1, 49, 0
1, 48690, Note_on_c, 1, 51, 127
1, 48719, Note_off_c, 1, 71, 0
1, 48719, Note_off_c, 1, 67, 0
1, 48719, Note_off_c, 1, 64, 0
1, 48719, Note_off_c, 1, 59, 0
1, 48719, Note_off_c, 1, 51, 0
1, 48720, Note_on_c, 1, 52, 127
1, 48720, Note_on_c, 1, 43, 127
1, 48749, Note_off_c, 1, 52, 0
1, 48779, Note_off_c, 1, 43, 0
1, 48780, Note_on_c, 1, 72, 127
1, 48780, Note_on_c, 1, 45, 127
1, 48780, Note_on_c, 1, 64, 127
1, 48780, Note_on_c, 1, 69, 127
1, 48780, Note_on_c, 1, 60, 127
1, 48810, Note_on_c, 1, 47, 127
1, 48839, Note_off_c, 1, 45, 0
1, 48839, Note_off_c, 1, 47, 0
1, 48840, Note_on_c, 1, 48, 127
1, 48869, Note_off_c, 1, 48, 0
1, 48870, Note_on_c, 1, 50, 127
1, 48899, Note_off_c, 1, 72, 0
1, 48899, Note_off_c, 1, 64, 0
1, 48899, Note_off_c, 1, 69, 0
1, 48899, Note_off_c, 1, 60, 0
1, 48899, Note_off_c, 1, 50, 0
1, 48900, Note_on_c, 1, 52, 127
1, 48929, Note_off_c, 1, 52, 0
1, 48930, Note_on_c, 1, 45, 127
1, 48959, Note_off_c, 1, 45, 0
1, 48960, Note_on_c, 1, 71, 127
1, 48960, Note_on_c, 1, 47, 127
1, 48960, Note_on_c, 1, 59, 127
1, 48960, Note_on_c, 1, 64, 127
1, 48960, Note_on_c, 1, 67, 127
1, 49019, Note_off_c, 1, 47, 0
1, 49079, Note_off_c, 1, 71, 0
1, 49079, Note_off_c, 1, 59, 0
1, 49079, Note_off_c, 1, 64, 0
1, 49079, Note_off_c, 1, 67, 0
1, 49080, Note_on_c, 1, 59, 127
1, 49139, Note_off_c, 1, 59, 0
1, 49140, Note_on_c, 1, 76, 127
1, 49140, Note_on_c, 1, 49, 127
1, 49140, Note_on_c, 1, 64, 127
1, 49140, Note_on_c, 1, 61, 127
1, 49140, Note_on_c, 1, 67, 127
1, 49199, Note_off_c, 1, 49, 0
1, 49200, Note_on_c, 1, 59, 127
1, 49259, Note_off_c, 1, 76, 0
1, 49259, Note_off_c, 1, 64, 0
1, 49259, Note_off_c, 1, 61, 0
1, 49259, Note_off_c, 1, 67, 0
1, 49259, Note_off_c, 1, 59, 0
1, 49260, Note_on_c, 1, 78, 127
1, 49260, Note_on_c, 1, 59, 127
1, 49289, Note_off_c, 1, 78, 0
1, 49290, Note_on_c, 1, 79, 127
1, 49319, Note_off_c, 1, 59, 0
1, 49319, Note_off_c, 1, 79, 0
1, 49320, Note_on_c, 1, 78, 127
1, 49320, Note_on_c, 1, 51, 127
1, 49320, Note_on_c, 1, 66, 127
1, 49320, Note_on_c, 1, 63, 127
1, 49320, Note_on_c, 1, 69, 127
1, 49350, Note_on_c, 1, 54, 127
1, 49379, Note_off_c, 1, 51, 0
1, 49379, Note_off_c, 1, 54, 0
1, 49380, Note_on_c, 1, 55, 127
1, 49409, Note_off_c, 1, 55, 0
1, 49410, Note_on_c, 1, 57, 127
1, 49439, Note_off_c, 1, 78, 0
1, 49439, Note_off_c, 1, 66, 0
1, 49439, Note_off_c, 1, 63, 0
1, 49439, Note_off_c, 1, 69, 0
1, 49439, Note_off_c, 1, 57, 0
1, 49440, Note_on_c, 1, 59, 127
1, 49469, Note_off_c, 1, 59, 0
1, 49470, Note_on_c, 1, 51, 127
1, 49499, Note_off_c, 1, 51, 0
1, 49500, Note_on_c, 1, 71, 127
1, 49500, Note_on_c, 1, 52, 127
1, 49500, Note_on_c, 1, 67, 127
1, 49500, Note_on_c, 1, 64, 127
1, 49500, Note_on_c, 1, 59, 127
1, 49530, Note_on_c, 1, 54, 127
1, 49559, Note_off_c, 1, 52, 0
1, 49559, Note_off_c, 1, 54, 0
1, 49560, Note_on_c, 1, 55, 127
1, 49589, Note_off_c, 1, 55, 0
1, 49590, Note_on_c, 1, 57, 127
1, 49619, Note_off_c, 1, 71, 0
1, 49619, Note_off_c, 1, 67, 0
1, 49619, Note_off_c, 1, 64, 0
1, 49619, Note_off_c, 1, 59, 0
1, 49619, Note_off_c, 1, 57, 0
1, 49620, Note_on_c, 1, 64, 127
1, 49620, Note_on_c, 1, 59, 127
1, 49649, Note_off_c, 1, 59, 0
1, 49650, Note_on_c, 1, 52, 127
1, 49679, Note_off_c, 1, 64, 0
1, 49679, Note_off_c, 1, 52, 0
1, 49680, Note_on_c, 1, 69, 127
1, 49680, Note_on_c, 1, 54, 127
1, 49680, Note_on_c, 1, 66, 127
1, 49680, Note_on_c, 1, 60, 127
1, 49710, Note_on_c, 1, 59, 127
1, 49739, Note_off_c, 1, 54, 0
1, 49739, Note_off_c, 1, 59, 0
1, 49740, Note_on_c, 1, 72, 127
1, 49740, Note_on_c, 1, 57, 127
1, 49769, Note_off_c, 1, 57, 0
1, 49770, Note_on_c, 1, 55, 127
1, 49799, Note_off_c, 1, 69, 0
1, 49799, Note_off_c, 1, 66, 0
1, 49799, Note_off_c, 1, 60, 0
1, 49799, Note_off_c, 1, 72, 0
1, 49799, Note_off_c, 1, 55, 0
1, 49800, Note_on_c, 1, 71, 127
1, 49800, Note_on_c, 1, 57, 127
1, 49829, Note_off_c, 1, 57, 0
1, 49830, Note_on_c, 1, 54, 127
1, 49859, Note_off_c, 1, 71, 0
1, 49859, Note_off_c, 1, 54, 0
1, 49860, Note_on_c, 1, 69, 127
1, 49860, Note_on_c, 1, 51, 127
1, 49860, Note_on_c, 1, 63, 127
1, 49860, Note_on_c, 1, 66, 127
1, 49890, Note_on_c, 1, 57, 127
1, 49919, Note_off_c, 1, 51, 0
1, 49919, Note_off_c, 1, 57, 0
1, 49920, Note_on_c, 1, 55, 127
1, 49949, Note_off_c, 1, 55, 0
1, 49950, Note_on_c, 1, 54, 127
1, 49979, Note_off_c, 1, 69, 0
1, 49979, Note_off_c, 1, 63, 0
1, 49979, Note_off_c, 1, 66, 0
1, 49979, Note_off_c, 1, 54, 0
1, 49980, Note_on_c, 1, 76, 127
1, 49980, Note_on_c, 1, 55, 127
1, 49980, Note_on_c, 1, 67, 127
1, 49980, Note_on_c, 1, 64, 127
1, 50009, Note_off_c, 1, 55, 0
1, 50010, Note_on_c, 1, 52, 127
1, 50039, Note_off_c, 1, 76, 0
1, 50039, Note_off_c, 1, 52, 0
1, 50040, Note_off_c, 1, 67, 0
1, 50040, Note_off_c, 1, 64, 0
1, 50040, Note_on_c, 1, 75, 127
1, 50040, Note_on_c, 1, 47, 127
1, 50040, Note_on_c, 1, 66, 127
1, 50040, Note_on_c, 1, 63, 127
1, 50099, Note_off_c, 1, 47, 0
1, 50100, Note_on_c, 1, 54, 127
1, 50129, Note_off_c, 1, 54, 0
1, 50159, Note_off_c, 1, 75, 0
1, 50159, Note_off_c, 1, 66, 0
1, 50159, Note_off_c, 1, 63, 0
1, 50160, Note_on_c, 1, 54, 127
1, 50189, Note_off_c, 1, 54, 0
1, 50190, Note_on_c, 1, 51, 127
1, 50219, Note_off_c, 1, 51, 0
1, 50220, Note_on_c, 1, 76, 127
1, 50220, Note_on_c, 1, 47, 127
1, 50220, Note_on_c, 1, 66, 127
1, 50220, Note_on_c, 1, 59, 127
1, 50250, Note_on_c, 1, 54, 127
1, 50279, Note_off_c, 1, 76, 0
1, 50279, Note_off_c, 1, 47, 0
1, 50279, Note_off_c, 1, 54, 0
1, 50280, Note_on_c, 1, 78, 127
1, 50280, Note_on_c, 1, 52, 127
1, 50309, Note_off_c, 1, 52, 0
1, 50310, Note_on_c, 1, 51, 127
1, 50339, Note_off_c, 1, 66, 0
1, 50339, Note_off_c, 1, 59, 0
1, 50339, Note_off_c, 1, 78, 0
1, 50339, Note_off_c, 1, 51, 0
1, 50340, Note_on_c, 1, 79, 127
1, 50340, Note_on_c, 1, 52, 127
1, 50369, Note_off_c, 1, 52, 0
1, 50370, Note_on_c, 1, 49, 127
1, 50399, Note_off_c, 1, 79, 0
1, 50399, Note_off_c, 1, 49, 0
1, 50400, Note_on_c, 1, 69, 127
1, 50400, Note_on_c, 1, 47, 127
1, 50400, Note_on_c, 1, 64, 127
1, 50400, Note_on_c, 1, 59, 127
1, 50430, Note_on_c, 1, 52, 127
1, 50459, Note_off_c, 1, 47, 0
1, 50459, Note_off_c, 1, 52, 0
1, 50460, Note_on_c, 1, 51, 127
1, 50489, Note_off_c, 1, 51, 0
1, 50490, Note_on_c, 1, 49, 127
1, 50519, Note_off_c, 1, 69, 0
1, 50519, Note_off_c, 1, 64, 0
1, 50519, Note_off_c, 1, 59, 0
1, 50519, Note_off_c, 1, 49, 0
1, 50520, Note_on_c, 1, 78, 127
1, 50520, Note_on_c, 1, 51, 127
1, 50549, Note_off_c, 1, 51, 0
1, 50550, Note_on_c, 1, 47, 127
1, 50579, Note_off_c, 1, 78, 0
1, 50579, Note_off_c, 1, 47, 0
1, 50580, Note_on_c, 1, 67, 127
1, 50580, Note_on_c, 1, 52, 127
1, 50580, Note_on_c, 1, 64, 127
1, 50639, Note_off_c, 1, 67, 0
1, 50639, Note_off_c, 1, 52, 0
1, 50639, Note_off_c, 1, 64, 0
1, 50640, Note_on_c, 1, 69, 127
1, 50640, Note_on_c, 1, 50, 127
1, 50640, Note_on_c, 1, 66, 127
1, 50669, Note_off_c, 1, 50, 0
1, 50669, Note_off_c, 1, 66, 0
1, 50670, Note_on_c, 1, 48, 127
1, 50670, Note_on_c, 1, 64, 127
1, 50699, Note_off_c, 1, 69, 0
1, 50699, Note_off_c, 1, 48, 0
1, 50699, Note_off_c, 1, 64, 0
1, 50700, Note_on_c, 1, 72, 127
1, 50700, Note_on_c, 1, 47, 127
1, 50700, Note_on_c, 1, 62, 127
1, 50729, Note_off_c, 1, 62, 0
1, 50730, Note_on_c, 1, 45, 127
1, 50730, Note_on_c, 1, 60, 127
1, 50759, Note_off_c, 1, 72, 0
1, 50759, Note_off_c, 1, 47, 0
1, 50759, Note_off_c, 1, 45, 0
1, 50759, Note_off_c, 1, 60, 0
1, 50760, Note_on_c, 1, 71, 127
1, 50760, Note_on_c, 1, 43, 127
1, 50760, Note_on_c, 1, 59, 127
1, 50760, Note_on_c, 1, 67, 127
1, 50760, Note_on_c, 1, 64, 127
1, 50819, Note_off_c, 1, 71, 0
1, 50819, Note_off_c, 1, 43, 0
1, 50819, Note_off_c, 1, 59, 0
1, 50819, Note_off_c, 1, 67, 0
1, 50819, Note_off_c, 1, 64, 0
1, 50820, Note_on_c, 1, 69, 127
1, 50820, Note_on_c, 1, 45, 127
1, 50820, Note_on_c, 1, 62, 127
1, 50849, Note_off_c, 1, 45, 0
1, 50849, Note_off_c, 1, 62, 0
1, 50850, Note_on_c, 1, 43, 127
1, 50850, Note_on_c, 1, 60, 127
1, 50879, Note_off_c, 1, 69, 0
1, 50879, Note_off_c, 1, 43, 0
1, 50879, Note_off_c, 1, 60, 0
1, 50880, Note_on_c, 1, 67, 127
1, 50880, Note_on_c, 1, 42, 127
1, 50880, Note_on_c, 1, 59, 127
1, 50909, Note_off_c, 1, 42, 0
1, 50909, Note_off_c, 1, 59, 0
1, 50910, Note_on_c, 1, 40, 127
1, 50910, Note_on_c, 1, 57, 127
1, 50939, Note_off_c, 1, 67, 0
1, 50939, Note_off_c, 1, 40, 0
1, 50939, Note_off_c, 1, 57, 0
1, 50940, Note_on_c, 1, 67, 127
1, 50940, Note_on_c, 1, 47, 127
1, 50940, Note_on_c, 1, 64, 127
1, 50999, Note_off_c, 1, 67, 0
1, 50999, Note_off_c, 1, 47, 0
1, 50999, Note_off_c, 1, 64, 0
1, 51000, Note_on_c, 1, 66, 127
1, 51000, Note_on_c, 1, 45, 127
1, 51030, Note_on_c, 1, 64, 127
1, 51059, Note_off_c, 1, 66, 0
1, 51059, Note_off_c, 1, 45, 0
1, 51059, Note_off_c, 1, 64, 0
1, 51060, Note_on_c, 1, 64, 127
1, 51060, Note_on_c, 1, 47, 127
1, 51060, Note_on_c, 1, 63, 127
1, 51089, Note_off_c, 1, 63, 0
1, 51090, Note_on_c, 1, 61, 127
1, 51119, Note_off_c, 1, 64, 0
1, 51119, Note_off_c, 1, 47, 0
1, 51119, Note_off_c, 1, 61, 0
1, 51120, Note_on_c, 1, 64, 127
1, 51120, Note_on_c, 1, 40, 127
1, 51299, Note_off_c, 1, 64, 0
1, 51299, Note_off_c, 1, 40, 0
1, 51480, Note_on_c, 1, 48, 127
1, 51480, Note_on_c, 1, 67, 127
1, 51480, Note_on_c, 1, 60, 127
1, 51540, Note_off_c, 1, 48, 0
1, 51540, Note_on_c, 1, 72, 127
1, 51540, Note_on_c, 1, 64, 127
1, 51660, Note_off_c, 1, 67, 0
1, 51660, Note_off_c, 1, 60, 0
1, 51660, Note_off_c, 1, 72, 0
1, 51660, Note_off_c, 1, 64, 0
1, 51660, Note_on_c, 1, 50, 127
1, 51660, Note_on_c, 1, 62, 127
1, 51720, Note_off_c, 1, 50, 0
1, 51720, Note_on_c, 1, 65, 127
1, 51795, Note_on_c, 1, 71, 127
1, 51810, Note_off_c, 1, 71, 0
1, 51810, Note_on_c, 1, 69, 127
1, 51840, Note_off_c, 1, 62, 0
1, 51840, Note_off_c, 1, 65, 0
1, 51840, Note_off_c, 1, 69, 0
1, 51840, Note_on_c, 1, 52, 127
1, 51870, Note_on_c, 1, 55, 127
1, 51900, Note_off_c, 1, 52, 0
1, 51900, Note_off_c, 1, 55, 0
1, 51900, Note_on_c, 1, 57, 127
1, 51930, Note_off_c, 1, 57, 0
1, 51930, Note_on_c, 1, 59, 127
1, 51960, Note_off_c, 1, 59, 0
1, 52020, Note_on_c, 1, 54, 127
1, 52020, Note_on_c, 1, 74, 127
1, 52080, Note_off_c, 1, 54, 0
1, 52080, Note_on_c, 1, 66, 127
1, 52140, Note_off_c, 1, 74, 0
1, 52200, Note_off_c, 1, 66, 0
1, 52380, Note_on_c, 1, 43, 127
1, 52440, Note_off_c, 1, 43, 0
1, 52440, Note_on_c, 1, 76, 127
1, 52515, Note_off_c, 1, 76, 0
1, 52560, Note_on_c, 1, 47, 127
1, 52620, Note_off_c, 1, 47, 0
1, 52740, Note_on_c, 1, 61, 127
1, 52740, Note_on_c, 1, 49, 127
1, 52800, Note_off_c, 1, 49, 0
1, 52920, Note_off_c, 1, 61, 0
1, 53970, Note_on_c, 1, 53, 127
1, 54000, Note_off_c, 1, 53, 0
1, 54750, Note_on_c, 1, 77, 127
1, 54780, Note_off_c, 1, 77, 0
1, 54930, Note_on_c, 1, 79, 127
1, 54960, Note_off_c, 1, 79, 0
1, 58920, Note_on_c, 1, 78, 127
1, 58980, Note_off_c, 1, 78, 0
1, 59580, Note_on_c, 1, 56, 127
1, 59580, Note_on_c, 1, 68, 127
1, 59640, Note_off_c, 1, 56, 0
1, 59640, Note_off_c, 1, 68, 0
1, 59700, Note_on_c, 1, 71, 127
1, 59700, Note_on_c, 1, 62, 127
1, 59700, Note_on_c, 1, 50, 127
1, 59700, Note_on_c, 1, 64, 127
1, 59700, Note_on_c, 1, 68, 127
1, 59730, Note_on_c, 1, 56, 127
1, 59759, Note_off_c, 1, 71, 0
1, 59759, Note_off_c, 1, 56, 0
1, 59760, Note_off_c, 1, 62, 0
1, 59760, Note_off_c, 1, 50, 0
1, 59760, Note_off_c, 1, 68, 0
1, 59760, Note_on_c, 1, 72, 127
1, 59760, Note_on_c, 1, 57, 127
1, 59760, Note_on_c, 1, 69, 127
1, 59760, Note_on_c, 1, 60, 127
1, 59819, Note_off_c, 1, 72, 0
1, 59820, Note_off_c, 1, 64, 0
1, 59820, Note_off_c, 1, 57, 0
1, 59820, Note_off_c, 1, 69, 0
1, 59849, Note_off_c, 1, 60, 0
1, 59850, Note_on_c, 1, 59, 127
1, 59879, Note_off_c, 1, 59, 0
1, 59880, Note_on_c, 1, 69, 127
1, 59880, Note_on_c, 1, 60, 127
1, 59909, Note_off_c, 1, 60, 0
1, 59910, Note_on_c, 1, 57, 127
1, 59939, Note_off_c, 1, 69, 0
1, 59939, Note_off_c, 1, 57, 0
1, 59940, Note_on_c, 1, 74, 127
1, 59940, Note_on_c, 1, 54, 127
1, 59940, Note_on_c, 1, 62, 127
1, 59940, Note_on_c, 1, 66, 127
1, 59940, Note_on_c, 1, 69, 127
1, 59970, Note_on_c, 1, 60, 127
1, 59999, Note_off_c, 1, 74, 0
1, 59999, Note_off_c, 1, 60, 0
1, 60000, Note_off_c, 1, 54, 0
1, 60000, Note_off_c, 1, 66, 0
1, 60000, Note_off_c, 1, 69, 0
1, 60000, Note_on_c, 1, 59, 127
1, 60029, Note_off_c, 1, 59, 0
1, 60030, Note_on_c, 1, 57, 127
1, 60059, Note_off_c, 1, 62, 0
1, 60059, Note_off_c, 1, 57, 0
1, 60060, Note_on_c, 1, 67, 127
1, 60060, Note_on_c, 1, 59, 127
1, 60089, Note_off_c, 1, 59, 0
1, 60090, Note_on_c, 1, 55, 127
1, 60119, Note_off_c, 1, 67, 0
1, 60119, Note_off_c, 1, 55, 0
1, 60120, Note_on_c, 1, 66, 127
1, 60120, Note_on_c, 1, 50, 127
1, 60120, Note_on_c, 1, 62, 127
1, 60150, Note_on_c, 1, 59, 127
1, 60179, Note_off_c, 1, 59, 0
1, 60180, Note_off_c, 1, 50, 0
1, 60180, Note_on_c, 1, 57, 127
1, 60209, Note_off_c, 1, 57, 0
1, 60210, Note_on_c, 1, 55, 127
1, 60239, Note_off_c, 1, 66, 0
1, 60239, Note_off_c, 1, 62, 0
1, 60239, Note_off_c, 1, 55, 0
1, 60240, Note_on_c, 1, 57, 127
1, 60269, Note_off_c, 1, 57, 0
1, 60270, Note_on_c, 1, 54, 127
1, 60299, Note_off_c, 1, 54, 0
1, 60300, Note_on_c, 1, 79, 127
1, 60300, Note_on_c, 1, 50, 127
1, 60300, Note_on_c, 1, 62, 127
1, 60300, Note_on_c, 1, 67, 127
1, 60330, Note_on_c, 1, 57, 127
1, 60359, Note_off_c, 1, 79, 0
1, 60359, Note_off_c, 1, 57, 0
1, 60360, Note_off_c, 1, 50, 0
1, 60360, Note_on_c, 1, 78, 127
1, 60360, Note_on_c, 1, 55, 127
1, 60389, Note_off_c, 1, 55, 0
1, 60390, Note_on_c, 1, 54, 127
1, 60419, Note_off_c, 1, 62, 0
1, 60419, Note_off_c, 1, 67, 0
1, 60419, Note_off_c, 1, 78, 0
1, 60419, Note_off_c, 1, 54, 0
1, 60420, Note_on_c, 1, 76, 127
1, 60420, Note_on_c, 1, 55, 127
1, 60449, Note_off_c, 1, 55, 0
1, 60450, Note_on_c, 1, 52, 127
1, 60479, Note_off_c, 1, 76, 0
1, 60479, Note_off_c, 1, 52, 0
1, 60480, Note_on_c, 1, 74, 127
1, 60480, Note_on_c, 1, 50, 127
1, 60480, Note_on_c, 1, 66, 127
1, 60480, Note_on_c, 1, 62, 127
1, 60510, Note_on_c, 1, 55, 127
1, 60539, Note_off_c, 1, 55, 0
1, 60540, Note_off_c, 1, 50, 0
1, 60540, Note_on_c, 1, 54, 127
1, 60569, Note_off_c, 1, 74, 0
1, 60569, Note_off_c, 1, 54, 0
1, 60570, Note_on_c, 1, 76, 127
1, 60570, Note_on_c, 1, 52, 127
1, 60599, Note_off_c, 1, 66, 0
1, 60599, Note_off_c, 1, 62, 0
1, 60599, Note_off_c, 1, 76, 0
1, 60599, Note_off_c, 1, 52, 0
1, 60600, Note_on_c, 1, 74, 127
1, 60600, Note_on_c, 1, 54, 127
1, 60629, Note_off_c, 1, 74, 0
1, 60629, Note_off_c, 1, 54, 0
1, 60630, Note_on_c, 1, 72, 127
1, 60630, Note_on_c, 1, 50, 127
1, 60659, Note_off_c, 1, 72, 0
1, 60659, Note_off_c, 1, 50, 0
1, 60660, Note_on_c, 1, 71, 127
1, 60660, Note_on_c, 1, 55, 127
1, 60660, Note_on_c, 1, 67, 127
1, 60660, Note_on_c, 1, 62, 127
1, 60690, Note_on_c, 1, 72, 127
1, 60719, Note_off_c, 1, 71, 0
1, 60719, Note_off_c, 1, 67, 0
1, 60719, Note_off_c, 1, 62, 0
1, 60719, Note_off_c, 1, 72, 0
1, 60720, Note_off_c, 1, 55, 0
1, 60720, Note_on_c, 1, 74, 127
1, 60720, Note_on_c, 1, 54, 127
1, 60749, Note_off_c, 1, 74, 0
1, 60749, Note_off_c, 1, 54, 0
1, 60750, Note_on_c, 1, 74, 127
1, 60750, Note_on_c, 1, 52, 127
1, 60750, Note_on_c, 1, 72, 127
1, 60764, Note_off_c, 1, 74, 0
1, 60779, Note_off_c, 1, 52, 0
1, 60779, Note_off_c, 1, 72, 0
1, 60780, Note_on_c, 1, 74, 127
1, 60780, Note_on_c, 1, 50, 127
1, 60780, Note_on_c, 1, 71, 127
1, 60794, Note_off_c, 1, 74, 0
1, 60795, Note_on_c, 1, 72, 127
1, 60809, Note_off_c, 1, 50, 0
1, 60809, Note_off_c, 1, 71, 0
1, 60809, Note_off_c, 1, 72, 0
1, 60810, Note_on_c, 1, 71, 127
1, 60810, Note_on_c, 1, 48, 127
1, 60810, Note_on_c, 1, 69, 127
1, 60824, Note_off_c, 1, 71, 0
1, 60825, Note_on_c, 1, 72, 127
1, 60839, Note_off_c, 1, 48, 0
1, 60839, Note_off_c, 1, 69, 0
1, 60839, Note_off_c, 1, 72, 0
1, 60840, Note_on_c, 1, 74, 127
1, 60840, Note_on_c, 1, 47, 127
1, 60840, Note_on_c, 1, 67, 127
1, 60840, Note_on_c, 1, 71, 127
1, 60899, Note_off_c, 1, 74, 0
1, 60899, Note_off_c, 1, 67, 0
1, 60899, Note_off_c, 1, 71, 0
1, 60900, Note_off_c, 1, 47, 0
1, 60900, Note_on_c, 1, 48, 127
1, 60900, Note_on_c, 1, 76, 127
1, 60929, Note_off_c, 1, 48, 0
1, 60929, Note_off_c, 1, 76, 0
1, 60960, Note_on_c, 1, 72, 127
1, 60960, Note_on_c, 1, 45, 127
1, 60960, Note_on_c, 1, 69, 127
1, 60989, Note_off_c, 1, 45, 0
1, 60990, Note_on_c, 1, 43, 127
1, 60990, Note_on_c, 1, 71, 127
1, 61019, Note_off_c, 1, 72, 0
1, 61019, Note_off_c, 1, 69, 0
1, 61019, Note_off_c, 1, 43, 0
1, 61019, Note_off_c, 1, 71, 0
1, 61020, Note_on_c, 1, 71, 127
1, 61020, Note_on_c, 1, 50, 127
1, 61020, Note_on_c, 1, 74, 127
1, 61079, Note_off_c, 1, 71, 0
1, 61079, Note_off_c, 1, 50, 0
1, 61079, Note_off_c, 1, 74, 0
1, 61080, Note_on_c, 1, 69, 127
1, 61080, Note_on_c, 1, 48, 127
1, 61080, Note_on_c, 1, 72, 127
1, 61139, Note_off_c, 1, 69, 0
1, 61139, Note_off_c, 1, 48, 0
1, 61139, Note_off_c, 1, 72, 0
1, 61140, Note_on_c, 1, 67, 127
1, 61140, Note_on_c, 1, 50, 127
1, 61140, Note_on_c, 1, 74, 127
1, 61155, Note_off_c, 1, 74, 0
1, 61155, Note_on_c, 1, 72, 127
1, 61170, Note_off_c, 1, 72, 0
1, 61170, Note_on_c, 1, 71, 127
1, 61185, Note_off_c, 1, 71, 0
1, 61199, Note_off_c, 1, 67, 0
1, 61199, Note_off_c, 1, 50, 0
1, 61200, Note_on_c, 1, 43, 127
1, 61259, Note_off_c, 1, 43, 0
1, 61260, Note_on_c, 1, 55, 127
1, 61319, Note_off_c, 1, 55, 0
1, 61380, Note_on_c, 1, 45, 127
1, 61380, Note_on_c, 1, 69, 127
1, 61380, Note_on_c, 1, 72, 127
1, 61380, Note_on_c, 1, 74, 127
1, 61439, Note_off_c, 1, 45, 0
1, 61440, Note_on_c, 1, 55, 127
1, 61499, Note_off_c, 1, 55, 0
1, 61500, Note_off_c, 1, 69, 0
1, 61500, Note_off_c, 1, 72, 0
1, 61500, Note_off_c, 1, 74, 0
1, 61559, Note_on_c, 1, 47, 127
1, 61560, Note_on_c, 1, 71, 127
1, 61560, Note_on_c, 1, 67, 127
1, 61589, Note_on_c, 1, 50, 127
1, 61618, Note_off_c, 1, 50, 0
1, 61619, Note_off_c, 1, 47, 0
1, 61619, Note_off_c, 1, 71, 0
1, 61619, Note_off_c, 1, 67, 0
1, 61619, Note_on_c, 1, 52, 127
1, 61648, Note_off_c, 1, 52, 0
1, 61649, Note_on_c, 1, 53, 127
1, 61678, Note_off_c, 1, 53, 0
1, 61739, Note_on_c, 1, 49, 127
1, 61740, Note_on_c, 1, 76, 127
1, 61740, Note_on_c, 1, 73, 127
1, 61799, Note_off_c, 1, 49, 0
1, 61799, Note_off_c, 1, 73, 0
1, 61919, Note_off_c, 1, 76, 0
1, 61920, Note_on_c, 1, 77, 127
1, 61920, Note_on_c, 1, 50, 127
1, 61920, Note_on_c, 1, 65, 127
1, 61920, Note_on_c, 1, 69, 127
1, 61920, Note_on_c, 1, 74, 127
1, 61949, Note_off_c, 1, 77, 0
1, 61950, Note_on_c, 1, 79, 127
1, 61979, Note_off_c, 1, 50, 0
1, 61979, Note_off_c, 1, 79, 0
1, 62010, Note_on_c, 1, 76, 127
1, 62039, Note_off_c, 1, 76, 0
1, 62040, Note_off_c, 1, 65, 0
1, 62040, Note_off_c, 1, 74, 0
1, 62040, Note_on_c, 1, 52, 127
1, 62040, Note_on_c, 1, 64, 127
1, 62099, Note_off_c, 1, 69, 0
1, 62099, Note_off_c, 1, 52, 0
1, 62099, Note_off_c, 1, 64, 0
1, 62100, Note_on_c, 1, 74, 127
1, 62100, Note_on_c, 1, 53, 127
1, 62100, Note_on_c, 1, 69, 127
1, 62100, Note_on_c, 1, 65, 127
1, 62130, Note_on_c, 1, 76, 127
1, 62159, Note_off_c, 1, 53, 0
1, 62159, Note_off_c, 1, 76, 0
1, 62190, Note_on_c, 1, 72, 127
1, 62219, Note_off_c, 1, 72, 0
1, 62220, Note_on_c, 1, 50, 127
1, 62249, Note_off_c, 1, 74, 0
1, 62279, Note_off_c, 1, 69, 0
1, 62279, Note_off_c, 1, 65, 0
1, 62279, Note_off_c, 1, 50, 0
1, 62280, Note_on_c, 1, 71, 127
1, 62280, Note_on_c, 1, 55, 127
1, 62280, Note_on_c, 1, 74, 127
1, 62280, Note_on_c, 1, 67, 127
1, 62310, Note_on_c, 1, 72, 127
1, 62339, Note_off_c, 1, 55, 0
1, 62339, Note_off_c, 1, 72, 0
1, 62370, Note_on_c, 1, 69, 127
1, 62399, Note_off_c, 1, 69, 0
1, 62400, Note_off_c, 1, 74, 0
1, 62429, Note_off_c, 1, 71, 0
1, 62459, Note_off_c, 1, 67, 0
1, 62460, Note_on_c, 1, 72, 127
1, 62460, Note_on_c, 1, 57, 127
1, 62460, Note_on_c, 1, 74, 127
1, 62460, Note_on_c, 1, 69, 127
1, 62519, Note_off_c, 1, 57, 0
1, 62520, Note_on_c, 1, 67, 127
1, 62550, Note_on_c, 1, 71, 127
1, 62579, Note_off_c, 1, 67, 0
1, 62579, Note_off_c, 1, 71, 0
1, 62580, Note_off_c, 1, 74, 0
1, 62580, Note_off_c, 1, 69, 0
1, 62609, Note_off_c, 1, 72, 0
1, 62640, Note_on_c, 1, 74, 127
1, 62640, Note_on_c, 1, 59, 127
1, 62640, Note_on_c, 1, 71, 127
1, 62670, Note_on_c, 1, 76, 127
1, 62670, Note_on_c, 1, 62, 127
1, 62699, Note_off_c, 1, 59, 0
1, 62699, Note_off_c, 1, 76, 0
1, 62699, Note_off_c, 1, 62, 0
1, 62700, Note_on_c, 1, 64, 127
1, 62729, Note_off_c, 1, 64, 0
1, 62730, Note_on_c, 1, 72, 127
1, 62730, Note_on_c, 1, 65, 127
1, 62759, Note_off_c, 1, 72, 0
1, 62759, Note_off_c, 1, 65, 0
1, 62760, Note_off_c, 1, 71, 0
1, 62760, Note_on_c, 1, 67, 127
1, 62760, Note_on_c, 1, 55, 127
1, 62789, Note_off_c, 1, 74, 0
1, 62789, Note_off_c, 1, 67, 0
1, 62819, Note_off_c, 1, 55, 0
1, 62820, Note_on_c, 1, 76, 127
1, 62820, Note_on_c, 1, 60, 127
1, 62820, Note_on_c, 1, 72, 127
1, 62850, Note_on_c, 1, 77, 127
1, 62850, Note_on_c, 1, 62, 127
1, 62879, Note_off_c, 1, 60, 0
1, 62879, Note_off_c, 1, 77, 0
1, 62879, Note_off_c, 1, 62, 0
1, 62880, Note_on_c, 1, 64, 127
1, 62909, Note_off_c, 1, 64, 0
1, 62910, Note_on_c, 1, 74, 127
1, 62910, Note_on_c, 1, 65, 127
1, 62939, Note_off_c, 1, 74, 0
1, 62939, Note_off_c, 1, 65, 0
1, 62940, Note_off_c, 1, 72, 0
1, 62940, Note_on_c, 1, 67, 127
1, 62940, Note_on_c, 1, 55, 127
1, 62969, Note_off_c, 1, 76, 0
1, 62969, Note_off_c, 1, 67, 0
1, 62999, Note_off_c, 1, 55, 0
1, 63000, Note_on_c, 1, 77, 127
1, 63000, Note_on_c, 1, 62, 127
1, 63000, Note_on_c, 1, 74, 127
1, 63030, Note_on_c, 1, 67, 127
1, 63059, Note_off_c, 1, 62, 0
1, 63059, Note_off_c, 1, 67, 0
1, 63060, Note_on_c, 1, 76, 127
1, 63060, Note_on_c, 1, 65, 127
1, 63089, Note_off_c, 1, 65, 0
1, 63090, Note_on_c, 1, 64, 127
1, 63119, Note_off_c, 1, 76, 0
1, 63119, Note_off_c, 1, 64, 0
1, 63120, Note_off_c, 1, 77, 0
1, 63179, Note_off_c, 1, 74, 0
1, 63180, Note_on_c, 1, 79, 127
1, 63180, Note_on_c, 1, 59, 127
1, 63180, Note_on_c, 1, 71, 127
1, 63180, Note_on_c, 1, 67, 127
1, 63210, Note_on_c, 1, 65, 127
1, 63239, Note_off_c, 1, 79, 0
1, 63239, Note_off_c, 1, 59, 0
1, 63239, Note_off_c, 1, 65, 0
1, 63240, Note_on_c, 1, 77, 127
1, 63240, Note_on_c, 1, 64, 127
1, 63269, Note_off_c, 1, 77, 0
1, 63269, Note_off_c, 1, 64, 0
1, 63270, Note_on_c, 1, 76, 127
1, 63270, Note_on_c, 1, 62, 127
1, 63299, Note_off_c, 1, 76, 0
1, 63299, Note_off_c, 1, 62, 0
1, 63300, Note_off_c, 1, 71, 0
1, 63300, Note_off_c, 1, 67, 0
1, 63300, Note_on_c, 1, 74, 127
1, 63329, Note_off_c, 1, 74, 0
1, 63330, Note_on_c, 1, 72, 127
1, 63330, Note_on_c, 1, 60, 127
1, 63359, Note_off_c, 1, 72, 0
1, 63359, Note_off_c, 1, 60, 0
1, 63360, Note_on_c, 1, 71, 127
1, 63360, Note_on_c, 1, 55, 127
1, 63360, Note_on_c, 1, 67, 127
1, 63360, Note_on_c, 1, 64, 127
1, 63419, Note_off_c, 1, 55, 0
1, 63420, Note_on_c, 1, 62, 127
1, 63449, Note_off_c, 1, 62, 0
1, 63450, Note_on_c, 1, 60, 127
1, 63479, Note_off_c, 1, 71, 0
1, 63479, Note_off_c, 1, 60, 0
1, 63480, Note_off_c, 1, 64, 0
1, 63510, Note_on_c, 1, 59, 127
1, 63539, Note_off_c, 1, 67, 0
1, 63539, Note_off_c, 1, 59, 0
1, 63540, Note_on_c, 1, 72, 127
1, 63540, Note_on_c, 1, 55, 127
1, 63540, Note_on_c, 1, 67, 127
1, 63540, Note_on_c, 1, 62, 127
1, 63599, Note_off_c, 1, 72, 0
1, 63599, Note_off_c, 1, 55, 0
1, 63600, Note_on_c, 1, 74, 127
1, 63600, Note_on_c, 1, 60, 127
1, 63629, Note_off_c, 1, 60, 0
1, 63630, Note_on_c, 1, 59, 127
1, 63659, Note_off_c, 1, 74, 0
1, 63659, Note_off_c, 1, 59, 0
1, 63660, Note_off_c, 1, 67, 0
1, 63660, Note_off_c, 1, 62, 0
1, 63660, Note_on_c, 1, 76, 127
1, 63690, Note_on_c, 1, 57, 127
1, 63719, Note_off_c, 1, 76, 0
1, 63719, Note_off_c, 1, 57, 0
1, 63720, Note_on_c, 1, 77, 127
1, 63720, Note_on_c, 1, 55, 127
1, 63720, Note_on_c, 1, 67, 127
1, 63720, Note_on_c, 1, 60, 127
1, 63779, Note_off_c, 1, 55, 0
1, 63780, Note_on_c, 1, 59, 127
1, 63809, Note_off_c, 1, 59, 0
1, 63810, Note_on_c, 1, 57, 127
1, 63839, Note_off_c, 1, 57, 0
1, 63840, Note_off_c, 1, 67, 0
1, 63840, Note_off_c, 1, 60, 0
1, 63900, Note_on_c, 1, 64, 127
1, 63959, Note_off_c, 1, 77, 0
1, 63959, Note_off_c, 1, 64, 0
1, 63960, Note_on_c, 1, 79, 127
1, 63960, Note_on_c, 1, 59, 127
1, 63960, Note_on_c, 1, 67, 127
1, 63989, Note_off_c, 1, 79, 0
1, 63989, Note_off_c, 1, 59, 0
1, 63989, Note_off_c, 1, 67, 0
1, 63990, Note_on_c, 1, 77, 127
1, 63990, Note_on_c, 1, 57, 127
1, 63990, Note_on_c, 1, 65, 127
1, 64019, Note_off_c, 1, 77, 0
1, 64019, Note_off_c, 1, 57, 0
1, 64019, Note_off_c, 1, 65, 0
1, 64020, Note_on_c, 1, 76, 127
1, 64020, Note_on_c, 1, 55, 127
1, 64020, Note_on_c, 1, 64, 127
1, 64049, Note_off_c, 1, 76, 0
1, 64049, Note_off_c, 1, 55, 0
1, 64049, Note_off_c, 1, 64, 0
1, 64050, Note_on_c, 1, 77, 127
1, 64050, Note_on_c, 1, 53, 127
1, 64050, Note_on_c, 1, 62, 127
1, 64079, Note_off_c, 1, 77, 0
1, 64079, Note_off_c, 1, 53, 0
1, 64079, Note_off_c, 1, 62, 0
1, 64080, Note_on_c, 1, 79, 127
1, 64080, Note_on_c, 1, 52, 127
1, 64080, Note_on_c, 1, 60, 127
1, 64139, Note_off_c, 1, 79, 0
1, 64139, Note_off_c, 1, 52, 0
1, 64139, Note_off_c, 1, 60, 0
1, 64140, Note_on_c, 1, 72, 127
1, 64140, Note_on_c, 1, 53, 127
1, 64140, Note_on_c, 1, 69, 127
1, 64169, Note_off_c, 1, 53, 0
1, 64169, Note_off_c, 1, 69, 0
1, 64170, Note_on_c, 1, 52, 127
1, 64170, Note_on_c, 1, 67, 127
1, 64199, Note_off_c, 1, 72, 0
1, 64199, Note_off_c, 1, 52, 0
1, 64199, Note_off_c, 1, 67, 0
1, 64200, Note_on_c, 1, 74, 127
1, 64200, Note_on_c, 1, 50, 127
1, 64200, Note_on_c, 1, 65, 127
1, 64229, Note_off_c, 1, 50, 0
1, 64229, Note_off_c, 1, 65, 0
1, 64230, Note_on_c, 1, 48, 127
1, 64230, Note_on_c, 1, 64, 127
1, 64259, Note_off_c, 1, 74, 0
1, 64259, Note_off_c, 1, 48, 0
1, 64259, Note_off_c, 1, 64, 0
1, 64260, Note_on_c, 1, 67, 127
1, 64260, Note_on_c, 1, 55, 127
1, 64319, Note_off_c, 1, 67, 0
1, 64319, Note_off_c, 1, 55, 0
1, 64320, Note_on_c, 1, 76, 127
1, 64320, Note_on_c, 1, 53, 127
1, 64320, Note_on_c, 1, 67, 127
1, 64349, Note_off_c, 1, 67, 0
1, 64350, Note_on_c, 1, 65, 127
1, 64379, Note_off_c, 1, 76, 0
1, 64379, Note_off_c, 1, 53, 0
1, 64379, Note_off_c, 1, 65, 0
1, 64380, Note_on_c, 1, 74, 127
1, 64380, Note_on_c, 1, 55, 127
1, 64380, Note_on_c, 1, 64, 127
1, 64409, Note_off_c, 1, 64, 0
1, 64410, Note_on_c, 1, 62, 127
1, 64439, Note_off_c, 1, 74, 0
1, 64439, Note_off_c, 1, 55, 0
1, 64439, Note_off_c, 1, 62, 0
1, 64440, Note_on_c, 1, 72, 127
1, 64440, Note_on_c, 1, 48, 127
1, 64440, Note_on_c, 1, 64, 127
1, 64440, Note_on_c, 1, 60, 127
1, 64470, Note_on_c, 1, 62, 127
1, 64499, Note_off_c, 1, 48, 0
1, 64499, Note_off_c, 1, 62, 0
1, 64530, Note_on_c, 1, 58, 127
1, 64559, Note_off_c, 1, 58, 0
1, 64590, Note_on_c, 1, 57, 127
1, 64619, Note_off_c, 1, 72, 0
1, 64619, Note_off_c, 1, 64, 0
1, 64619, Note_off_c, 1, 60, 0
1, 64619, Note_off_c, 1, 57, 0
1, 64620, Note_on_c, 1, 48, 127
1, 64620, Note_on_c, 1, 64, 127
1, 64620, Note_on_c, 1, 60, 127
1, 64679, Note_off_c, 1, 48, 0
1, 64680, Note_on_c, 1, 58, 127
1, 64709, Note_off_c, 1, 58, 0
1, 64710, Note_on_c, 1, 57, 127
1, 64739, Note_off_c, 1, 57, 0
1, 64740, Note_off_c, 1, 64, 0
1, 64740, Note_off_c, 1, 60, 0
1, 64770, Note_on_c, 1, 55, 127
1, 64799, Note_off_c, 1, 55, 0
1, 64800, Note_on_c, 1, 48, 127
1, 64800, Note_on_c, 1, 64, 127
1, 64800, Note_on_c, 1, 59, 127
1, 64830, Note_on_c, 1, 58, 127
1, 64859, Note_off_c, 1, 48, 0
1, 64859, Note_off_c, 1, 58, 0
1, 64860, Note_on_c, 1, 57, 127
1, 64889, Note_off_c, 1, 57, 0
1, 64890, Note_on_c, 1, 55, 127
1, 64919, Note_off_c, 1, 55, 0
1, 64920, Note_off_c, 1, 64, 0
1, 64920, Note_off_c, 1, 59, 0
1, 64950, Note_on_c, 1, 53, 127
1, 64979, Note_off_c, 1, 53, 0
1, 64980, Note_on_c, 1, 48, 127
1, 64980, Note_on_c, 1, 64, 127
1, 64980, Note_on_c, 1, 57, 127
1, 65039, Note_off_c, 1, 48, 0
1, 65040, Note_on_c, 1, 55, 127
1, 65069, Note_off_c, 1, 55, 0
1, 65070, Note_on_c, 1, 53, 127
1, 65099, Note_off_c, 1, 53, 0
1, 65100, Note_off_c, 1, 64, 0
1, 65100, Note_off_c, 1, 57, 0
1, 65130, Note_on_c, 1, 52, 127
1, 65159, Note_off_c, 1, 52, 0
1, 65160, Note_on_c, 1, 50, 127
1, 65160, Note_on_c, 1, 62, 127
1, 65160, Note_on_c, 1, 67, 127
1, 65190, Note_on_c, 1, 55, 127
1, 65219, Note_off_c, 1, 50, 0
1, 65219, Note_off_c, 1, 55, 0
1, 65220, Note_on_c, 1, 53, 127
1, 65249, Note_off_c, 1, 53, 0
1, 65250, Note_on_c, 1, 52, 127
1, 65279, Note_off_c, 1, 52, 0
1, 65280, Note_off_c, 1, 62, 0
1, 65280, Note_off_c, 1, 67, 0
1, 65310, Note_on_c, 1, 50, 127
1, 65339, Note_off_c, 1, 50, 0
1, 65340, Note_on_c, 1, 47, 127
1, 65340, Note_on_c, 1, 65, 127
1, 65340, Note_on_c, 1, 62, 127
1, 65370, Note_on_c, 1, 53, 127
1, 65399, Note_off_c, 1, 47, 0
1, 65399, Note_off_c, 1, 53, 0
1, 65400, Note_on_c, 1, 52, 127
1, 65429, Note_off_c, 1, 52, 0
1, 65430, Note_on_c, 1, 50, 127
1, 65459, Note_off_c, 1, 50, 0
1, 65460, Note_off_c, 1, 65, 0
1, 65460, Note_off_c, 1, 62, 0
1, 65490, Note_on_c, 1, 48, 127
1, 65519, Note_off_c, 1, 48, 0
1, 65520, Note_on_c, 1, 43, 127
1, 65520, Note_on_c, 1, 67, 127
1, 65520, Note_on_c, 1, 64, 127
1, 65550, Note_on_c, 1, 52, 127
1, 65579, Note_off_c, 1, 43, 0
1, 65579, Note_off_c, 1, 52, 0
1, 65580, Note_on_c, 1, 50, 127
1, 65609, Note_off_c, 1, 50, 0
1, 65610, Note_on_c, 1, 48, 127
1, 65639, Note_off_c, 1, 48, 0
1, 65640, Note_off_c, 1, 67, 0
1, 65640, Note_off_c, 1, 64, 0
1, 65670, Note_on_c, 1, 47, 127
1, 65699, Note_off_c, 1, 47, 0
1, 65700, Note_on_c, 1, 43, 127
1, 65700, Note_on_c, 1, 67, 127
1, 65700, Note_on_c, 1, 62, 127
1, 65730, Note_on_c, 1, 50, 127
1, 65759, Note_off_c, 1, 43, 0
1, 65759, Note_off_c, 1, 50, 0
1, 65760, Note_on_c, 1, 48, 127
1, 65789, Note_off_c, 1, 48, 0
1, 65790, Note_on_c, 1, 47, 127
1, 65819, Note_off_c, 1, 47, 0
1, 65820, Note_off_c, 1, 67, 0
1, 65820, Note_off_c, 1, 62, 0
1, 65850, Note_on_c, 1, 45, 127
1, 65879, Note_off_c, 1, 45, 0
1, 65880, Note_on_c, 1, 43, 127
1, 65880, Note_on_c, 1, 67, 127
1, 65880, Note_on_c, 1, 60, 127
1, 65910, Note_on_c, 1, 48, 127
1, 65939, Note_off_c, 1, 43, 0
1, 65939, Note_off_c, 1, 48, 0
1, 65940, Note_on_c, 1, 47, 127
1, 65969, Note_off_c, 1, 47, 0
1, 65970, Note_on_c, 1, 45, 127
1, 65999, Note_off_c, 1, 45, 0
1, 66000, Note_off_c, 1, 67, 0
1, 66000, Note_off_c, 1, 60, 0
1, 66000, Note_on_c, 1, 65, 127
1, 66000, Note_on_c, 1, 62, 127
1, 66059, Note_off_c, 1, 65, 0
1, 66059, Note_off_c, 1, 62, 0
1, 66060, Note_on_c, 1, 48, 127
1, 66060, Note_on_c, 1, 67, 127
1, 66060, Note_on_c, 1, 64, 127
1, 66060, Note_on_c, 1, 60, 127
1, 66119, Note_off_c, 1, 48, 0
1, 66119, Note_off_c, 1, 67, 0
1, 66119, Note_off_c, 1, 64, 0
1, 66119, Note_off_c, 1, 60, 0
1, 66120, Note_on_c, 1, 47, 127
1, 66120, Note_on_c, 1, 67, 127
1, 66149, Note_off_c, 1, 47, 0
1, 66149, Note_off_c, 1, 67, 0
1, 66150, Note_on_c, 1, 45, 127
1, 66150, Note_on_c, 1, 65, 127
1, 66179, Note_off_c, 1, 45, 0
1, 66179, Note_off_c, 1, 65, 0
1, 66180, Note_on_c, 1, 43, 127
1, 66180, Note_on_c, 1, 64, 127
1, 66209, Note_off_c, 1, 43, 0
1, 66209, Note_off_c, 1, 64, 0
1, 66210, Note_on_c, 1, 41, 127
1, 66210, Note_on_c, 1, 62, 127
1, 66239, Note_off_c, 1, 41, 0
1, 66239, Note_off_c, 1, 62, 0
1, 66240, Note_on_c, 1, 40, 127
1, 66240, Note_on_c, 1, 60, 127
1, 66299, Note_off_c, 1, 40, 0
1, 66299, Note_off_c, 1, 60, 0
1, 66300, Note_on_c, 1, 41, 127
1, 66300, Note_on_c, 1, 69, 127
1, 66329, Note_off_c, 1, 41, 0
1, 66329, Note_off_c, 1, 69, 0
1, 66330, Note_on_c, 1, 40, 127
1, 66330, Note_on_c, 1, 67, 127
1, 66359, Note_off_c, 1, 40, 0
1, 66359, Note_off_c, 1, 67, 0
1, 66360, Note_on_c, 1, 38, 127
1, 66360, Note_on_c, 1, 65, 127
1, 66389, Note_off_c, 1, 38, 0
1, 66389, Note_off_c, 1, 65, 0
1, 66390, Note_on_c, 1, 36, 127
1, 66390, Note_on_c, 1, 64, 127
1, 66419, Note_off_c, 1, 36, 0
1, 66419, Note_off_c, 1, 64, 0
1, 66420, Note_on_c, 1, 43, 127
1, 66420, Note_on_c, 1, 65, 127
1, 66479, Note_off_c, 1, 43, 0
1, 66479, Note_off_c, 1, 65, 0
1, 66480, Note_on_c, 1, 41, 127
1, 66480, Note_on_c, 1, 67, 127
1, 66509, Note_off_c, 1, 67, 0
1, 66510, Note_on_c, 1, 65, 127
1, 66539, Note_off_c, 1, 41, 0
1, 66539, Note_off_c, 1, 65, 0
1, 66540, Note_on_c, 1, 43, 127
1, 66540, Note_on_c, 1, 64, 127
1, 66569, Note_off_c, 1, 64, 0
1, 66570, Note_on_c, 1, 62, 127
1, 66599, Note_off_c, 1, 43, 0
1, 66599, Note_off_c, 1, 62, 0
1, 66600, Note_on_c, 1, 36, 127
1, 66600, Note_on_c, 1, 60, 127
1, 66779, Note_off_c, 1, 36, 0
1, 66779, Note_off_c, 1, 60, 0
1, 66960, Note_on_c, 1, 44, 127
1, 66960, Note_on_c, 1, 32, 127
1, 66960, Note_on_c, 1, 64, 127
1, 66960, Note_on_c, 1, 68, 127
1, 66960, Note_on_c, 1, 59, 127
1, 67170, Note_on_c, 1, 69, 127
1, 67200, Note_off_c, 1, 69, 0
1, 67200, Note_on_c, 1, 71, 127
1, 67320, Note_off_c, 1, 71, 0
1, 67320, Note_on_c, 1, 72, 127
1, 67380, Note_off_c, 1, 72, 0
1, 67380, Note_on_c, 1, 74, 127
1, 67439, Note_off_c, 1, 44, 0
1, 67439, Note_off_c, 1, 32, 0
1, 67439, Note_off_c, 1, 64, 0
1, 67439, Note_off_c, 1, 68, 0
1, 67439, Note_off_c, 1, 59, 0
1, 67440, Note_off_c, 1, 74, 0
1, 67440, Note_on_c, 1, 45, 127
1, 67440, Note_on_c, 1, 33, 127
1, 67440, Note_on_c, 1, 60, 127
1, 67679, Note_off_c, 1, 45, 0
1, 67679, Note_off_c, 1, 33, 0
1, 67679, Note_off_c, 1, 60, 0
1, 67680, Note_on_c, 1, 76, 127
1, 67680, Note_on_c, 1, 43, 127
1, 67680, Note_on_c, 1, 31, 127
1, 67919, Note_off_c, 1, 43, 0
1, 67919, Note_off_c, 1, 31, 0
1, 67920, Note_off_c, 1, 76, 0
1, 67920, Note_on_c, 1, 67, 127
1, 67920, Note_on_c, 1, 49, 127
1, 67920, Note_on_c, 1, 37, 127
1, 68159, Note_off_c, 1, 67, 0
1, 68159, Note_off_c, 1, 49, 0
1, 68159, Note_off_c, 1, 37, 0
1, 68160, Note_on_c, 1, 66, 127
1, 68160, Note_on_c, 1, 50, 127
1, 68160, Note_on_c, 1, 38, 127
1, 68160, Note_on_c, 1, 62, 127
1, 68639, Note_off_c, 1, 66, 0
1, 68639, Note_off_c, 1, 50, 0
1, 68639, Note_off_c, 1, 38, 0
1, 68639, Note_off_c, 1, 62, 0
1, 68940, Note_on_c, 1, 75, 127
1, 69000, Note_off_c, 1, 75, 0
1, 69060, Note_on_c, 1, 78, 127
1, 69060, Note_on_c, 1, 47, 127
1, 69060, Note_on_c, 1, 35, 127
1, 69119, Note_off_c, 1, 47, 0
1, 69119, Note_off_c, 1, 35, 0
1, 69120, Note_off_c, 1, 78, 0
1, 69120, Note_on_c, 1, 79, 127
1, 69120, Note_on_c, 1, 52, 127
1, 69120, Note_on_c, 1, 40, 127
1, 69179, Note_off_c, 1, 52, 0
1, 69179, Note_off_c, 1, 40, 0
1, 69180, Note_on_c, 1, 51, 127
1, 69180, Note_on_c, 1, 39, 127
1, 69239, Note_off_c, 1, 51, 0
1, 69239, Note_off_c, 1, 39, 0
1, 69240, Note_off_c, 1, 79, 0
1, 69300, Note_on_c, 1, 78, 127
1, 69300, Note_on_c, 1, 54, 127
1, 69300, Note_on_c, 1, 42, 127
1, 69300, Note_on_c, 1, 66, 127
1, 69359, Note_off_c, 1, 54, 0
1, 69359, Note_off_c, 1, 42, 0
1, 69359, Note_off_c, 1, 66, 0
1, 69360, Note_off_c, 1, 78, 0
1, 69360, Note_on_c, 1, 76, 127
1, 69360, Note_on_c, 1, 55, 127
1, 69360, Note_on_c, 1, 43, 127
1, 69360, Note_on_c, 1, 67, 127
1, 69419, Note_off_c, 1, 55, 0
1, 69419, Note_off_c, 1, 43, 0
1, 69420, Note_off_c, 1, 76, 0
1, 69420, Note_off_c, 1, 67, 0
1, 69420, Note_on_c, 1, 75, 127
1, 69480, Note_off_c, 1, 75, 0
1, 69480, Note_on_c, 1, 52, 127
1, 69480, Note_on_c, 1, 40, 127
1, 69539, Note_off_c, 1, 52, 0
1, 69539, Note_off_c, 1, 40, 0
1, 69540, Note_on_c, 1, 51, 127
1, 69540, Note_on_c, 1, 39, 127
1, 69540, Note_on_c, 1, 69, 127
1, 69599, Note_off_c, 1, 51, 0
1, 69599, Note_off_c, 1, 39, 0
1, 69600, Note_on_c, 1, 49, 127
1, 69600, Note_on_c, 1, 37, 127
1, 69600, Note_on_c, 1, 61, 127
1, 69659, Note_off_c, 1, 49, 0
1, 69659, Note_off_c, 1, 37, 0
1, 69720, Note_off_c, 1, 69, 0
1, 69720, Note_off_c, 1, 61, 0
1, 69780, Note_on_c, 1, 72, 127
1, 69780, Note_on_c, 1, 54, 127
1, 69780, Note_on_c, 1, 42, 127
1, 69780, Note_on_c, 1, 69, 127
1, 69780, Note_on_c, 1, 66, 127
1, 69839, Note_off_c, 1, 54, 0
1, 69839, Note_off_c, 1, 42, 0
1, 69840, Note_off_c, 1, 72, 0
1, 69840, Note_off_c, 1, 69, 0
1, 69840, Note_off_c, 1, 66, 0
1, 69840, Note_on_c, 1, 71, 127
1, 69840, Note_on_c, 1, 55, 127
1, 69840, Note_on_c, 1, 43, 127
1, 69840, Note_on_c, 1, 67, 127
1, 69899, Note_off_c, 1, 55, 0
1, 69899, Note_off_c, 1, 43, 0
1, 69900, Note_off_c, 1, 71, 0
1, 69900, Note_off_c, 1, 67, 0
1, 70020, Note_on_c, 1, 57, 127
1, 70020, Note_on_c, 1, 45, 127
1, 70079, Note_off_c, 1, 57, 0
1, 70079, Note_off_c, 1, 45, 0
1, 70080, Note_on_c, 1, 63, 127
1, 70080, Note_on_c, 1, 59, 127
1, 70080, Note_on_c, 1, 47, 127
1, 70139, Note_off_c, 1, 59, 0
1, 70139, Note_off_c, 1, 47, 0
1, 70200, Note_off_c, 1, 63, 0
1, 70260, Note_on_c, 1, 72, 127
1, 70260, Note_on_c, 1, 54, 127
1, 70260, Note_on_c, 1, 42, 127
1, 70260, Note_on_c, 1, 66, 127
1, 70319, Note_off_c, 1, 54, 0
1, 70319, Note_off_c, 1, 42, 0
1, 70320, Note_off_c, 1, 72, 0
1, 70320, Note_off_c, 1, 66, 0
1, 70320, Note_on_c, 1, 71, 127
1, 70320, Note_on_c, 1, 55, 127
1, 70320, Note_on_c, 1, 43, 127
1, 70320, Note_on_c, 1, 67, 127
1, 70379, Note_off_c, 1, 55, 0
1, 70379, Note_off_c, 1, 43, 0
1, 70380, Note_on_c, 1, 76, 127
1, 70380, Note_on_c, 1, 57, 127
1, 70380, Note_on_c, 1, 45, 127
1, 70410, Note_off_c, 1, 76, 0
1, 70410, Note_on_c, 1, 78, 127
1, 70439, Note_off_c, 1, 57, 0
1, 70439, Note_off_c, 1, 45, 0
1, 70440, Note_off_c, 1, 78, 0
1, 70440, Note_on_c, 1, 79, 127
1, 70440, Note_on_c, 1, 59, 127
1, 70440, Note_on_c, 1, 47, 127
1, 70440, Note_on_c, 1, 64, 127
1, 70499, Note_off_c, 1, 59, 0
1, 70499, Note_off_c, 1, 47, 0
1, 70500, Note_off_c, 1, 79, 0
1, 70560, Note_off_c, 1, 71, 0
1, 70680, Note_on_c, 1, 52, 127
1, 70680, Note_on_c, 1, 40, 127
1, 70739, Note_off_c, 1, 52, 0
1, 70739, Note_off_c, 1, 40, 0
1, 70740, Note_on_c, 1, 50, 127
1, 70740, Note_on_c, 1, 38, 127
1, 70799, Note_off_c, 1, 50, 0
1, 70799, Note_off_c, 1, 38, 0
1, 70800, Note_off_c, 1, 67, 0
1, 70800, Note_on_c, 1, 48, 127
1, 70800, Note_on_c, 1, 36, 127
1, 70800, Note_on_c, 1, 69, 127
1, 70859, Note_off_c, 1, 64, 0
1, 70859, Note_off_c, 1, 48, 0
1, 70859, Note_off_c, 1, 36, 0
1, 70859, Note_off_c, 1, 69, 0
1, 70860, Note_on_c, 1, 47, 127
1, 70860, Note_on_c, 1, 35, 127
1, 70860, Note_on_c, 1, 67, 127
1, 70919, Note_off_c, 1, 47, 0
1, 70919, Note_off_c, 1, 35, 0
1, 70919, Note_off_c, 1, 67, 0
1, 70920, Note_on_c, 1, 45, 127
1, 70920, Note_on_c, 1, 33, 127
1, 70920, Note_on_c, 1, 66, 127
1, 70920, Note_on_c, 1, 69, 127
1, 70979, Note_off_c, 1, 45, 0
1, 70979, Note_off_c, 1, 33, 0
1, 70979, Note_off_c, 1, 66, 0
1, 70979, Note_off_c, 1, 69, 0
1, 70980, Note_on_c, 1, 47, 127
1, 70980, Note_on_c, 1, 35, 127
1, 70980, Note_on_c, 1, 64, 127
1, 71039, Note_off_c, 1, 47, 0
1, 71039, Note_off_c, 1, 35, 0
1, 71039, Note_off_c, 1, 64, 0
1, 71040, Note_on_c, 1, 40, 127
1, 71040, Note_on_c, 1, 28, 127
1, 71040, Note_on_c, 1, 64, 127
1, 71040, Note_on_c, 1, 59, 127
1, 71279, Note_off_c, 1, 40, 0
1, 71279, Note_off_c, 1, 28, 0
1, 71279, Note_off_c, 1, 64, 0
1, 71279, Note_off_c, 1, 59, 0
1, 71280, Note_on_c, 1, 52, 127
1, 71280, Note_on_c, 1, 40, 127
1, 71280, Note_on_c, 1, 67, 127
1, 71280, Note_on_c, 1, 64, 127
1, 71280, Note_on_c, 1, 59, 127
1, 71339, Note_off_c, 1, 52, 0
1, 71339, Note_off_c, 1, 40, 0
1, 71339, Note_off_c, 1, 67, 0
1, 71340, Note_on_c, 1, 71, 127
1, 71340, Note_on_c, 1, 54, 127
1, 71340, Note_on_c, 1, 42, 127
1, 71340, Note_on_c, 1, 69, 127
1, 71399, Note_off_c, 1, 71, 0
1, 71399, Note_off_c, 1, 54, 0
1, 71399, Note_off_c, 1, 42, 0
1, 71399, Note_off_c, 1, 69, 0
1, 71400, Note_on_c, 1, 76, 127
1, 71400, Note_on_c, 1, 55, 127
1, 71400, Note_on_c, 1, 43, 127
1, 71459, Note_off_c, 1, 55, 0
1, 71459, Note_off_c, 1, 43, 0
1, 71489, Note_off_c, 1, 76, 0
1, 71490, Note_on_c, 1, 78, 127
1, 71504, Note_off_c, 1, 78, 0
1, 71505, Note_on_c, 1, 79, 127
1, 71519, Note_off_c, 1, 79, 0
1, 71520, Note_off_c, 1, 64, 0
1, 71520, Note_off_c, 1, 59, 0
1, 71520, Note_on_c, 1, 57, 127
1, 71520, Note_on_c, 1, 45, 127
1, 71520, Note_on_c, 1, 66, 127
1, 71520, Note_on_c, 1, 60, 127
1, 71579, Note_off_c, 1, 57, 0
1, 71579, Note_off_c, 1, 45, 0
1, 71579, Note_off_c, 1, 66, 0
1, 71640, Note_on_c, 1, 74, 127
1, 71640, Note_on_c, 1, 62, 127
1, 71669, Note_off_c, 1, 74, 0
1, 71670, Note_on_c, 1, 72, 127
1, 71699, Note_off_c, 1, 62, 0
1, 71699, Note_off_c, 1, 72, 0
1, 71700, Note_on_c, 1, 50, 127
1, 71700, Note_on_c, 1, 38, 127
1, 71759, Note_off_c, 1, 50, 0
1, 71759, Note_off_c, 1, 38, 0
1, 71760, Note_off_c, 1, 60, 0
1, 71820, Note_on_c, 1, 74, 127
1, 71820, Note_on_c, 1, 54, 127
1, 71820, Note_on_c, 1, 42, 127
1, 71820, Note_on_c, 1, 62, 127
1, 71879, Note_off_c, 1, 74, 0
1, 71879, Note_off_c, 1, 54, 0
1, 71879, Note_off_c, 1, 42, 0
1, 71879, Note_off_c, 1, 62, 0
1, 71880, Note_on_c, 1, 79, 127
1, 71880, Note_on_c, 1, 52, 127
1, 71880, Note_on_c, 1, 40, 127
1, 71880, Note_on_c, 1, 60, 127
1, 71939, Note_off_c, 1, 52, 0
1, 71939, Note_off_c, 1, 40, 0
1, 71940, Note_on_c, 1, 50, 127
1, 71940, Note_on_c, 1, 38, 127
1, 71940, Note_on_c, 1, 59, 127
1, 71969, Note_off_c, 1, 79, 0
1, 71970, Note_on_c, 1, 81, 127
1, 71984, Note_off_c, 1, 81, 0
1, 71985, Note_on_c, 1, 83, 127
1, 71999, Note_off_c, 1, 50, 0
1, 71999, Note_off_c, 1, 38, 0
1, 71999, Note_off_c, 1, 59, 0
1, 71999, Note_off_c, 1, 83, 0
1, 72000, Note_off_c, 1, 60, 0
1, 72000, Note_on_c, 1, 48, 127
1, 72000, Note_on_c, 1, 36, 127
1, 72000, Note_on_c, 1, 64, 127
1, 72059, Note_off_c, 1, 48, 0
1, 72059, Note_off_c, 1, 36, 0
1, 72059, Note_off_c, 1, 64, 0
1, 72060, Note_on_c, 1, 81, 127
1, 72060, Note_on_c, 1, 47, 127
1, 72060, Note_on_c, 1, 35, 127
1, 72060, Note_on_c, 1, 62, 127
1, 72089, Note_off_c, 1, 81, 0
1, 72090, Note_on_c, 1, 79, 127
1, 72119, Note_off_c, 1, 47, 0
1, 72119, Note_off_c, 1, 35, 0
1, 72119, Note_off_c, 1, 62, 0
1, 72119, Note_off_c, 1, 79, 0
1, 72120, Note_on_c, 1, 78, 127
1, 72120, Note_on_c, 1, 45, 127
1, 72120, Note_on_c, 1, 33, 127
1, 72120, Note_on_c, 1, 60, 127
1, 72149, Note_off_c, 1, 78, 0
1, 72150, Note_on_c, 1, 76, 127
1, 72179, Note_off_c, 1, 45, 0
1, 72179, Note_off_c, 1, 33, 0
1, 72179, Note_off_c, 1, 76, 0
1, 72180, Note_on_c, 1, 75, 127
1, 72180, Note_on_c, 1, 42, 127
1, 72180, Note_on_c, 1, 30, 127
1, 72180, Note_on_c, 1, 57, 127
1, 72209, Note_off_c, 1, 75, 0
1, 72239, Note_off_c, 1, 42, 0
1, 72239, Note_off_c, 1, 30, 0
1, 72239, Note_off_c, 1, 57, 0
1, 72240, Note_off_c, 1, 60, 0
1, 72240, Note_on_c, 1, 47, 127
1, 72240, Note_on_c, 1, 35, 127
1, 72240, Note_on_c, 1, 59, 127
1, 72240, Note_on_c, 1, 66, 127
1, 72240, Note_on_c, 1, 63, 127
1, 72270, Note_on_c, 1, 79, 127
1, 72299, Note_off_c, 1, 79, 0
1, 72359, Note_off_c, 1, 47, 0
1, 72359, Note_off_c, 1, 35, 0
1, 72360, Note_off_c, 1, 59, 0
1, 72360, Note_off_c, 1, 66, 0
1, 72360, Note_off_c, 1, 63, 0
1, 72390, Note_on_c, 1, 75, 127
1, 72419, Note_off_c, 1, 75, 0
1, 72420, Note_on_c, 1, 76, 127
1, 72449, Note_off_c, 1, 76, 0
1, 72450, Note_on_c, 1, 78, 127
1, 72479, Note_off_c, 1, 78, 0
1, 72480, Note_on_c, 1, 71, 127
1, 72480, Note_on_c, 1, 45, 127
1, 72480, Note_on_c, 1, 33, 127
1, 72480, Note_on_c, 1, 66, 127
1, 72480, Note_on_c, 1, 59, 127
1, 72480, Note_on_c, 1, 63, 127
1, 72509, Note_off_c, 1, 71, 0
1, 72510, Note_on_c, 1, 79, 127
1, 72539, Note_off_c, 1, 79, 0
1, 72540, Note_on_c, 1, 78, 127
1, 72569, Note_off_c, 1, 78, 0
1, 72570, Note_on_c, 1, 75, 127
1, 72599, Note_off_c, 1, 45, 0
1, 72599, Note_off_c, 1, 33, 0
1, 72599, Note_off_c, 1, 75, 0
1, 72600, Note_off_c, 1, 66, 0
1, 72600, Note_off_c, 1, 59, 0
1, 72600, Note_off_c, 1, 63, 0
1, 72600, Note_on_c, 1, 76, 127
1, 72629, Note_off_c, 1, 76, 0
1, 72630, Note_on_c, 1, 75, 127
1, 72659, Note_off_c, 1, 75, 0
1, 72660, Note_on_c, 1, 76, 127
1, 72689, Note_off_c, 1, 76, 0
1, 72690, Note_on_c, 1, 78, 127
1, 72719, Note_off_c, 1, 78, 0
1, 72720, Note_on_c, 1, 71, 127
1, 72720, Note_on_c, 1, 43, 127
1, 72720, Note_on_c, 1, 31, 127
1, 72720, Note_on_c, 1, 55, 127
1, 72720, Note_on_c, 1, 59, 127
1, 72720, Note_on_c, 1, 64, 127
1, 72749, Note_off_c, 1, 71, 0
1, 72750, Note_on_c, 1, 79, 127
1, 72779, Note_off_c, 1, 79, 0
1, 72780, Note_on_c, 1, 78, 127
1, 72809, Note_off_c, 1, 78, 0
1, 72810, Note_on_c, 1, 75, 127
1, 72839, Note_off_c, 1, 43, 0
1, 72839, Note_off_c, 1, 31, 0
1, 72839, Note_off_c, 1, 75, 0
1, 72840, Note_off_c, 1, 55, 0
1, 72840, Note_off_c, 1, 59, 0
1, 72840, Note_off_c, 1, 64, 0
1, 72840, Note_on_c, 1, 76, 127
1, 72869, Note_off_c, 1, 76, 0
1, 72870, Note_on_c, 1, 75, 127
1, 72899, Note_off_c, 1, 75, 0
1, 72900, Note_on_c, 1, 76, 127
1, 72929, Note_off_c, 1, 76, 0
1, 72930, Note_on_c, 1, 78, 127
1, 72959, Note_off_c, 1, 78, 0
1, 72960, Note_on_c, 1, 69, 127
1, 72960, Note_on_c, 1, 42, 127
1, 72960, Note_on_c, 1, 30, 127
1, 72960, Note_on_c, 1, 57, 127
1, 72960, Note_on_c, 1, 63, 127
1, 72960, Note_on_c, 1, 66, 127
1, 72989, Note_off_c, 1, 69, 0
1, 72990, Note_on_c, 1, 79, 127
1, 73019, Note_off_c, 1, 79, 0
1, 73020, Note_on_c, 1, 78, 127
1, 73049, Note_off_c, 1, 78, 0
1, 73050, Note_on_c, 1, 75, 127
1, 73079, Note_off_c, 1, 42, 0
1, 73079, Note_off_c, 1, 30, 0
1, 73079, Note_off_c, 1, 75, 0
1, 73080, Note_off_c, 1, 57, 0
1, 73080, Note_off_c, 1, 63, 0
1, 73080, Note_off_c, 1, 66, 0
1, 73080, Note_on_c, 1, 76, 127
1, 73109, Note_off_c, 1, 76, 0
1, 73110, Note_on_c, 1, 75, 127
1, 73139, Note_off_c, 1, 75, 0
1, 73140, Note_on_c, 1, 76, 127
1, 73169, Note_off_c, 1, 76, 0
1, 73170, Note_on_c, 1, 78, 127
1, 73199, Note_off_c, 1, 78, 0
1, 73200, Note_on_c, 1, 67, 127
1, 73200, Note_on_c, 1, 40, 127
1, 73200, Note_on_c, 1, 28, 127
1, 73259, Note_off_c, 1, 67, 0
1, 73259, Note_off_c, 1, 40, 0
1, 73259, Note_off_c, 1, 28, 0
1, 73260, Note_on_c, 1, 64, 127
1, 73260, Note_on_c, 1, 42, 127
1, 73260, Note_on_c, 1, 30, 127
1, 73260, Note_on_c, 1, 69, 127
1, 73319, Note_off_c, 1, 64, 0
1, 73319, Note_off_c, 1, 42, 0
1, 73319, Note_off_c, 1, 30, 0
1, 73319, Note_off_c, 1, 69, 0
1, 73320, Note_on_c, 1, 71, 127
1, 73320, Note_on_c, 1, 43, 127
1, 73320, Note_on_c, 1, 31, 127
1, 73379, Note_off_c, 1, 43, 0
1, 73379, Note_off_c, 1, 31, 0
1, 73380, Note_on_c, 1, 40, 127
1, 73380, Note_on_c, 1, 28, 127
1, 73380, Note_on_c, 1, 67, 127
1, 73409, Note_off_c, 1, 71, 0
1, 73410, Note_on_c, 1, 72, 127
1, 73424, Note_off_c, 1, 72, 0
1, 73425, Note_on_c, 1, 74, 127
1, 73439, Note_off_c, 1, 40, 0
1, 73439, Note_off_c, 1, 28, 0
1, 73439, Note_off_c, 1, 67, 0
1, 73439, Note_off_c, 1, 74, 0
1, 73440, Note_on_c, 1, 72, 127
1, 73440, Note_on_c, 1, 45, 127
1, 73440, Note_on_c, 1, 33, 127
1, 73440, Note_on_c, 1, 60, 127
1, 73469, Note_off_c, 1, 72, 0
1, 73470, Note_on_c, 1, 74, 127
1, 73499, Note_off_c, 1, 45, 0
1, 73499, Note_off_c, 1, 33, 0
1, 73499, Note_off_c, 1, 60, 0
1, 73499, Note_off_c, 1, 74, 0
1, 73500, Note_on_c, 1, 72, 127
1, 73500, Note_on_c, 1, 47, 127
1, 73500, Note_on_c, 1, 35, 127
1, 73500, Note_on_c, 1, 62, 127
1, 73529, Note_off_c, 1, 72, 0
1, 73530, Note_on_c, 1, 71, 127
1, 73559, Note_off_c, 1, 47, 0
1, 73559, Note_off_c, 1, 35, 0
1, 73559, Note_off_c, 1, 62, 0
1, 73559, Note_off_c, 1, 71, 0
1, 73560, Note_on_c, 1, 69, 127
1, 73560, Note_on_c, 1, 48, 127
1, 73560, Note_on_c, 1, 36, 127
1, 73560, Note_on_c, 1, 64, 127
1, 73589, Note_off_c, 1, 69, 0
1, 73590, Note_on_c, 1, 67, 127
1, 73619, Note_off_c, 1, 48, 0
1, 73619, Note_off_c, 1, 36, 0
1, 73619, Note_off_c, 1, 64, 0
1, 73619, Note_off_c, 1, 67, 0
1, 73620, Note_on_c, 1, 66, 127
1, 73620, Note_on_c, 1, 45, 127
1, 73620, Note_on_c, 1, 33, 127
1, 73620, Note_on_c, 1, 60, 127
1, 73649, Note_off_c, 1, 66, 0
1, 73650, Note_on_c, 1, 64, 127
1, 73679, Note_off_c, 1, 45, 0
1, 73679, Note_off_c, 1, 33, 0
1, 73679, Note_off_c, 1, 60, 0
1, 73679, Note_off_c, 1, 64, 0
1, 73680, Note_on_c, 1, 71, 127
1, 73680, Note_on_c, 1, 47, 127
1, 73680, Note_on_c, 1, 35, 127
1, 73680, Note_on_c, 1, 66, 127
1, 73680, Note_on_c, 1, 63, 127
1, 73709, Note_off_c, 1, 71, 0
1, 73710, Note_on_c, 1, 72, 127
1, 73739, Note_off_c, 1, 47, 0
1, 73739, Note_off_c, 1, 35, 0
1, 73739, Note_off_c, 1, 66, 0
1, 73739, Note_off_c, 1, 63, 0
1, 73739, Note_off_c, 1, 72, 0
1, 73740, Note_on_c, 1, 71, 127
1, 73740, Note_on_c, 1, 51, 127
1, 73740, Note_on_c, 1, 39, 127
1, 73740, Note_on_c, 1, 69, 127
1, 73740, Note_on_c, 1, 66, 127
1, 73769, Note_off_c, 1, 71, 0
1, 73799, Note_off_c, 1, 51, 0
1, 73799, Note_off_c, 1, 39, 0
1, 73799, Note_off_c, 1, 69, 0
1, 73799, Note_off_c, 1, 66, 0
1, 73800, Note_on_c, 1, 67, 127
1, 73800, Note_on_c, 1, 52, 127
1, 73800, Note_on_c, 1, 40, 127
1, 73800, Note_on_c, 1, 64, 127
1, 73830, Note_on_c, 1, 66, 127
1, 73859, Note_off_c, 1, 67, 0
1, 73859, Note_off_c, 1, 52, 0
1, 73859, Note_off_c, 1, 40, 0
1, 73859, Note_off_c, 1, 64, 0
1, 73859, Note_off_c, 1, 66, 0
1, 73860, Note_on_c, 1, 64, 127
1, 73860, Note_on_c, 1, 55, 127
1, 73860, Note_on_c, 1, 43, 127
1, 73860, Note_on_c, 1, 59, 127
1, 73890, Note_on_c, 1, 63, 127
1, 73919, Note_off_c, 1, 64, 0
1, 73919, Note_off_c, 1, 55, 0
1, 73919, Note_off_c, 1, 43, 0
1, 73919, Note_off_c, 1, 59, 0
1, 73919, Note_off_c, 1, 63, 0
1, 73920, Note_on_c, 1, 64, 127
1, 73920, Note_on_c, 1, 60, 127
1, 73920, Note_on_c, 1, 48, 127
1, 73920, Note_on_c, 1, 67, 127
1, 73950, Note_on_c, 1, 63, 127
1, 73979, Note_off_c, 1, 64, 0
1, 73979, Note_off_c, 1, 60, 0
1, 73979, Note_off_c, 1, 48, 0
1, 73979, Note_off_c, 1, 67, 0
1, 73979, Note_off_c, 1, 63, 0
1, 73980, Note_on_c, 1, 64, 127
1, 73980, Note_on_c, 1, 57, 127
1, 73980, Note_on_c, 1, 45, 127
1, 73980, Note_on_c, 1, 69, 127
1, 74010, Note_on_c, 1, 66, 127
1, 74039, Note_off_c, 1, 64, 0
1, 74039, Note_off_c, 1, 57, 0
1, 74039, Note_off_c, 1, 45, 0
1, 74039, Note_off_c, 1, 69, 0
1, 74039, Note_off_c, 1, 66, 0
1, 74040, Note_on_c, 1, 59, 127
1, 74040, Note_on_c, 1, 47, 127
1, 74040, Note_on_c, 1, 66, 127
1, 74040, Note_on_c, 1, 63, 127
1, 74099, Note_off_c, 1, 59, 0
1, 74099, Note_off_c, 1, 47, 0
1, 74099, Note_off_c, 1, 66, 0
1, 74099, Note_off_c, 1, 63, 0
1, 74100, Note_on_c, 1, 63, 127
1, 74100, Note_on_c, 1, 47, 127
1, 74100, Note_on_c, 1, 35, 127
1, 74100, Note_on_c, 1, 69, 127
1, 74100, Note_on_c, 1, 66, 127
1, 74100, Note_on_c, 1, 59, 127
1, 74159, Note_off_c, 1, 63, 0
1, 74159, Note_off_c, 1, 47, 0
1, 74159, Note_off_c, 1, 35, 0
1, 74159, Note_off_c, 1, 69, 0
1, 74159, Note_off_c, 1, 66, 0
1, 74159, Note_off_c, 1, 59, 0
1, 74160, Note_on_c, 1, 64, 127
1, 74160, Note_on_c, 1, 71, 127
1, 74160, Note_on_c, 1, 52, 127
1, 74160, Note_on_c, 1, 40, 127
1, 74160, Note_on_c, 1, 67, 127
1, 74160, Note_on_c, 1, 59, 127
1, 74219, Note_off_c, 1, 52, 0
1, 74219, Note_off_c, 1, 40, 0
1, 74219, Note_off_c, 1, 67, 0
1, 74220, Note_on_c, 1, 54, 127
1, 74220, Note_on_c, 1, 42, 127
1, 74220, Note_on_c, 1, 69, 127
1, 74279, Note_off_c, 1, 71, 0
1, 74279, Note_off_c, 1, 54, 0
1, 74279, Note_off_c, 1, 42, 0
1, 74279, Note_off_c, 1, 69, 0
1, 74280, Note_on_c, 1, 76, 127
1, 74280, Note_on_c, 1, 55, 127
1, 74280, Note_on_c, 1, 43, 127
1, 74339, Note_off_c, 1, 55, 0
1, 74339, Note_off_c, 1, 43, 0
1, 74369, Note_off_c, 1, 76, 0
1, 74370, Note_on_c, 1, 78, 127
1, 74385, Note_off_c, 1, 78, 0
1, 74385, Note_on_c, 1, 79, 127
1, 74400, Note_off_c, 1, 64, 0
1, 74400, Note_off_c, 1, 59, 0
1, 74400, Note_off_c, 1, 79, 0
1, 74400, Note_on_c, 1, 57, 127
1, 74400, Note_on_c, 1, 45, 127
1, 74400, Note_on_c, 1, 66, 127
1, 74459, Note_off_c, 1, 57, 0
1, 74459, Note_off_c, 1, 45, 0
1, 74459, Note_off_c, 1, 66, 0
1, 74520, Note_on_c, 1, 74, 127
1, 74520, Note_on_c, 1, 62, 127
1, 74579, Note_off_c, 1, 62, 0
1, 74580, Note_off_c, 1, 74, 0
1, 74580, Note_on_c, 1, 72, 127
1, 74580, Note_on_c, 1, 50, 127
1, 74580, Note_on_c, 1, 38, 127
1, 74639, Note_off_c, 1, 50, 0
1, 74639, Note_off_c, 1, 38, 0
1, 74640, Note_off_c, 1, 72, 0
1, 74760, Note_on_c, 1, 60, 127
1, 74850, Note_on_c, 1, 81, 127
1, 74864, Note_off_c, 1, 81, 0
1, 74865, Note_on_c, 1, 83, 127
1, 74879, Note_off_c, 1, 83, 0
1, 74880, Note_off_c, 1, 60, 0
1, 74880, Note_on_c, 1, 48, 127
1, 74880, Note_on_c, 1, 36, 127
1, 74910, Note_on_c, 1, 75, 127
1, 74939, Note_off_c, 1, 48, 0
1, 74939, Note_off_c, 1, 36, 0
1, 74939, Note_off_c, 1, 75, 0
1, 74940, Note_on_c, 1, 47, 127
1, 74940, Note_on_c, 1, 35, 127
1, 74940, Note_on_c, 1, 63, 127
1, 74999, Note_off_c, 1, 47, 0
1, 74999, Note_off_c, 1, 35, 0
1, 74999, Note_off_c, 1, 63, 0
1, 75060, Note_on_c, 1, 33, 127
1, 75119, Note_off_c, 1, 33, 0
1, 75270, Note_on_c, 1, 75, 127
1, 75299, Note_off_c, 1, 75, 0
1, 75300, Note_on_c, 1, 76, 127
1, 75329, Note_off_c, 1, 76, 0
1, 75330, Note_on_c, 1, 78, 127
1, 75359, Note_off_c, 1, 78, 0
1, 75360, Note_on_c, 1, 71, 127
1, 75360, Note_on_c, 1, 45, 127
1, 75360, Note_on_c, 1, 33, 127
1, 75360, Note_on_c, 1, 69, 127
1, 75360, Note_on_c, 1, 63, 127
1, 75360, Note_on_c, 1, 66, 127
1, 75389, Note_off_c, 1, 71, 0
1, 75390, Note_on_c, 1, 79, 127
1, 75419, Note_off_c, 1, 79, 0
1, 75420, Note_on_c, 1, 78, 127
1, 75449, Note_off_c, 1, 78, 0
1, 75450, Note_on_c, 1, 75, 127
1, 75479, Note_off_c, 1, 45, 0
1, 75479, Note_off_c, 1, 33, 0
1, 75479, Note_off_c, 1, 69, 0
1, 75479, Note_off_c, 1, 63, 0
1, 75479, Note_off_c, 1, 66, 0
1, 75479, Note_off_c, 1, 75, 0
1, 75480, Note_on_c, 1, 76, 127
1, 75509, Note_off_c, 1, 76, 0
1, 75510, Note_on_c, 1, 75, 127
1, 75539, Note_off_c, 1, 75, 0
1, 75540, Note_on_c, 1, 76, 127
1, 75569, Note_off_c, 1, 76, 0
1, 75570, Note_on_c, 1, 78, 127
1, 75599, Note_off_c, 1, 78, 0
1, 75600, Note_on_c, 1, 71, 127
1, 75600, Note_on_c, 1, 43, 127
1, 75600, Note_on_c, 1, 31, 127
1, 75600, Note_on_c, 1, 67, 127
1, 75600, Note_on_c, 1, 64, 127
1, 75600, Note_on_c, 1, 59, 127
1, 75629, Note_off_c, 1, 71, 0
1, 75630, Note_on_c, 1, 79, 127
1, 75659, Note_off_c, 1, 79, 0
1, 75660, Note_on_c, 1, 78, 127
1, 75689, Note_off_c, 1, 78, 0
1, 75690, Note_on_c, 1, 75, 127
1, 75719, Note_off_c, 1, 43, 0
1, 75719, Note_off_c, 1, 31, 0
1, 75719, Note_off_c, 1, 67, 0
1, 75719, Note_off_c, 1, 64, 0
1, 75719, Note_off_c, 1, 59, 0
1, 75719, Note_off_c, 1, 75, 0
1, 75720, Note_on_c, 1, 76, 127
1, 75749, Note_off_c, 1, 76, 0
1, 75750, Note_on_c, 1, 75, 127
1, 75779, Note_off_c, 1, 75, 0
1, 75780, Note_on_c, 1, 76, 127
1, 75809, Note_off_c, 1, 76, 0
1, 75810, Note_on_c, 1, 78, 127
1, 75839, Note_off_c, 1, 78, 0
1, 75840, Note_on_c, 1, 69, 127
1, 75840, Note_on_c, 1, 42, 127
1, 75840, Note_on_c, 1, 30, 127
1, 75840, Note_on_c, 1, 66, 127
1, 75840, Note_on_c, 1, 63, 127
1, 75840, Note_on_c, 1, 59, 127
1, 75869, Note_off_c, 1, 69, 0
1, 75870, Note_on_c, 1, 79, 127
1, 75899, Note_off_c, 1, 79, 0
1, 75900, Note_on_c, 1, 78, 127
1, 75929, Note_off_c, 1, 78, 0
1, 75930, Note_on_c, 1, 75, 127
1, 75959, Note_off_c, 1, 42, 0
1, 75959, Note_off_c, 1, 30, 0
1, 75959, Note_off_c, 1, 66, 0
1, 75959, Note_off_c, 1, 63, 0
1, 75959, Note_off_c, 1, 59, 0
1, 75959, Note_off_c, 1, 75, 0
1, 75960, Note_on_c, 1, 76, 127
1, 75989, Note_off_c, 1, 76, 0
1, 75990, Note_on_c, 1, 75, 127
1, 76019, Note_off_c, 1, 75, 0
1, 76020, Note_on_c, 1, 76, 127
1, 76049, Note_off_c, 1, 76, 0
1, 76050, Note_on_c, 1, 78, 127
1, 76079, Note_off_c, 1, 78, 0
1, 76080, Note_on_c, 1, 67, 127
1, 76080, Note_on_c, 1, 71, 127
1, 76080, Note_on_c, 1, 52, 127
1, 76080, Note_on_c, 1, 40, 127
1, 76080, Note_on_c, 1, 64, 127
1, 76080, Note_on_c, 1, 59, 127
1, 76139, Note_off_c, 1, 67, 0
1, 76139, Note_off_c, 1, 52, 0
1, 76139, Note_off_c, 1, 40, 0
1, 76140, Note_on_c, 1, 54, 127
1, 76140, Note_on_c, 1, 42, 127
1, 76140, Note_on_c, 1, 69, 127
1, 76199, Note_off_c, 1, 54, 0
1, 76199, Note_off_c, 1, 42, 0
1, 76199, Note_off_c, 1, 69, 0
1, 76200, Note_off_c, 1, 64, 0
1, 76200, Note_off_c, 1, 59, 0
1, 76200, Note_on_c, 1, 76, 127
1, 76200, Note_on_c, 1, 55, 127
1, 76200, Note_on_c, 1, 43, 127
1, 76259, Note_off_c, 1, 71, 0
1, 76259, Note_off_c, 1, 55, 0
1, 76259, Note_off_c, 1, 43, 0
1, 76289, Note_off_c, 1, 76, 0
1, 76290, Note_on_c, 1, 78, 127
1, 76305, Note_off_c, 1, 78, 0
1, 76305, Note_on_c, 1, 79, 127
1, 76320, Note_off_c, 1, 79, 0
1, 76320, Note_on_c, 1, 57, 127
1, 76320, Note_on_c, 1, 45, 127
1, 76320, Note_on_c, 1, 66, 127
1, 76320, Note_on_c, 1, 60, 127
1, 76379, Note_off_c, 1, 57, 0
1, 76379, Note_off_c, 1, 45, 0
1, 76379, Note_off_c, 1, 66, 0
1, 76440, Note_off_c, 1, 60, 0
1, 76440, Note_on_c, 1, 74, 127
1, 76440, Note_on_c, 1, 62, 127
1, 76499, Note_off_c, 1, 74, 0
1, 76499, Note_off_c, 1, 62, 0
1, 76500, Note_on_c, 1, 72, 127
1, 76500, Note_on_c, 1, 50, 127
1, 76500, Note_on_c, 1, 38, 127
1, 76559, Note_off_c, 1, 72, 0
1, 76559, Note_off_c, 1, 50, 0
1, 76559, Note_off_c, 1, 38, 0
1, 76560, Note_on_c, 1, 71, 127
1, 76560, Note_on_c, 1, 55, 127
1, 76560, Note_on_c, 1, 43, 127
1, 76619, Note_off_c, 1, 71, 0
1, 76619, Note_off_c, 1, 55, 0
1, 76619, Note_off_c, 1, 43, 0
1, 76620, Note_on_c, 1, 62, 127
1, 76620, Note_on_c, 1, 69, 127
1, 76620, Note_on_c, 1, 54, 127
1, 76620, Note_on_c, 1, 42, 127
1, 76679, Note_off_c, 1, 62, 0
1, 76679, Note_off_c, 1, 69, 0
1, 76679, Note_off_c, 1, 54, 0
1, 76679, Note_off_c, 1, 42, 0
1, 76680, Note_on_c, 1, 67, 127
1, 76680, Note_on_c, 1, 72, 127
1, 76680, Note_on_c, 1, 52, 127
1, 76680, Note_on_c, 1, 40, 127
1, 76739, Note_off_c, 1, 72, 0
1, 76739, Note_off_c, 1, 52, 0
1, 76739, Note_off_c, 1, 40, 0
1, 76740, Note_on_c, 1, 71, 127
1, 76740, Note_on_c, 1, 50, 127
1, 76740, Note_on_c, 1, 38, 127
1, 76740, Note_on_c, 1, 66, 127
1, 76769, Note_off_c, 1, 67, 0
1, 76770, Note_on_c, 1, 69, 127
1, 76784, Note_off_c, 1, 69, 0
1, 76799, Note_off_c, 1, 71, 0
1, 76799, Note_off_c, 1, 50, 0
1, 76799, Note_off_c, 1, 38, 0
1, 76799, Note_off_c, 1, 66, 0
1, 76800, Note_on_c, 1, 69, 127
1, 76800, Note_on_c, 1, 76, 127
1, 76800, Note_on_c, 1, 48, 127
1, 76800, Note_on_c, 1, 36, 127
1, 76800, Note_on_c, 1, 60, 127
1, 76800, Note_on_c, 1, 64, 127
1, 76829, Note_off_c, 1, 76, 0
1, 76830, Note_on_c, 1, 71, 127
1, 76830, Note_on_c, 1, 75, 127
1, 76859, Note_off_c, 1, 48, 0
1, 76859, Note_off_c, 1, 36, 0
1, 76859, Note_off_c, 1, 71, 0
1, 76859, Note_off_c, 1, 75, 0
1, 76860, Note_on_c, 1, 47, 127
1, 76860, Note_on_c, 1, 35, 127
1, 76890, Note_on_c, 1, 67, 127
1, 76919, Note_off_c, 1, 47, 0
1, 76919, Note_off_c, 1, 35, 0
1, 76919, Note_off_c, 1, 67, 0
1, 76920, Note_off_c, 1, 69, 0
1, 76920, Note_off_c, 1, 64, 0
1, 76920, Note_on_c, 1, 66, 127
1, 76980, Note_on_c, 1, 63, 127
1, 76980, Note_on_c, 1, 45, 127
1, 76980, Note_on_c, 1, 33, 127
1, 77009, Note_off_c, 1, 63, 0
1, 77010, Note_on_c, 1, 78, 127
1, 77039, Note_off_c, 1, 45, 0
1, 77039, Note_off_c, 1, 33, 0
1, 77039, Note_off_c, 1, 78, 0
1, 77040, Note_off_c, 1, 60, 0
1, 77070, Note_on_c, 1, 79, 127
1, 77099, Note_off_c, 1, 79, 0
1, 77160, Note_off_c, 1, 66, 0
1, 77220, Note_on_c, 1, 76, 127
1, 77220, Note_on_c, 1, 45, 127
1, 77220, Note_on_c, 1, 33, 127
1, 77249, Note_off_c, 1, 76, 0
1, 77250, Note_on_c, 1, 78, 127
1, 77279, Note_off_c, 1, 45, 0
1, 77279, Note_off_c, 1, 33, 0
1, 77279, Note_off_c, 1, 78, 0
1, 77280, Note_on_c, 1, 71, 127
1, 77280, Note_on_c, 1, 74, 127
1, 77280, Note_on_c, 1, 44, 127
1, 77280, Note_on_c, 1, 32, 127
1, 77280, Note_on_c, 1, 62, 127
1, 77280, Note_on_c, 1, 68, 127
1, 77339, Note_off_c, 1, 44, 0
1, 77339, Note_off_c, 1, 32, 0
1, 77340, Note_on_c, 1, 42, 127
1, 77340, Note_on_c, 1, 30, 127
1, 77399, Note_off_c, 1, 74, 0
1, 77399, Note_off_c, 1, 42, 0
1, 77399, Note_off_c, 1, 30, 0
1, 77400, Note_off_c, 1, 62, 0
1, 77400, Note_on_c, 1, 64, 127
1, 77460, Note_on_c, 1, 40, 127
1, 77460, Note_on_c, 1, 28, 127
1, 77519, Note_off_c, 1, 40, 0
1, 77519, Note_off_c, 1, 28, 0
1, 77520, Note_off_c, 1, 71, 0
1, 77520, Note_off_c, 1, 68, 0
1, 77520, Note_on_c, 1, 72, 127
1, 77520, Note_on_c, 1, 45, 127
1, 77520, Note_on_c, 1, 33, 127
1, 77520, Note_on_c, 1, 69, 127
1, 77579, Note_off_c, 1, 45, 0
1, 77579, Note_off_c, 1, 33, 0
1, 77580, Note_off_c, 1, 72, 0
1, 77580, Note_on_c, 1, 47, 127
1, 77580, Note_on_c, 1, 35, 127
1, 77639, Note_off_c, 1, 47, 0
1, 77639, Note_off_c, 1, 35, 0
1, 77640, Note_off_c, 1, 64, 0
1, 77640, Note_on_c, 1, 48, 127
1, 77640, Note_on_c, 1, 36, 127
1, 77640, Note_on_c, 1, 76, 127
1, 77699, Note_off_c, 1, 48, 0
1, 77699, Note_off_c, 1, 36, 0
1, 77699, Note_off_c, 1, 76, 0
1, 77700, Note_off_c, 1, 69, 0
1, 77700, Note_on_c, 1, 67, 127
1, 77760, Note_off_c, 1, 67, 0
1, 77760, Note_on_c, 1, 66, 127
1, 77760, Note_on_c, 1, 50, 127
1, 77760, Note_on_c, 1, 38, 127
1, 77760, Note_on_c, 1, 78, 127
1, 77819, Note_off_c, 1, 50, 0
1, 77819, Note_off_c, 1, 38, 0
1, 77819, Note_off_c, 1, 78, 0
1, 77880, Note_off_c, 1, 66, 0
1, 78000, Note_on_c, 1, 43, 127
1, 78000, Note_on_c, 1, 31, 127
1, 78059, Note_off_c, 1, 43, 0
1, 78059, Note_off_c, 1, 31, 0
1, 78180, Note_on_c, 1, 26, 127
1, 78180, Note_on_c, 1, 60, 127
1, 78239, Note_off_c, 1, 26, 0
1, 78239, Note_off_c, 1, 60, 0
1, 78240, Note_on_c, 1, 59, 127
1, 78299, Note_off_c, 1, 59, 0
1, 78600, Note_on_c, 1, 55, 127
1, 78659, Note_off_c, 1, 55, 0
1, 78720, Note_on_c, 1, 54, 127
1, 78779, Note_off_c, 1, 54, 0
1, 78780, Note_on_c, 1, 52, 127
1, 78809, Note_off_c, 1, 52, 0
1, 79440, Note_on_c, 1, 61, 127
1, 79440, Note_on_c, 1, 49, 127
1, 79440, Note_on_c, 1, 37, 127
1, 79440, Note_on_c, 1, 73, 127
1, 79499, Note_off_c, 1, 49, 0
1, 79499, Note_off_c, 1, 37, 0
1, 79559, Note_off_c, 1, 61, 0
1, 79679, Note_off_c, 1, 73, 0
1, 79680, Note_on_c, 1, 70, 127
1, 79680, Note_on_c, 1, 54, 127
1, 79680, Note_on_c, 1, 42, 127
1, 79680, Note_on_c, 1, 66, 127
1, 79680, Note_on_c, 1, 62, 127
1, 79739, Note_off_c, 1, 54, 0
1, 79739, Note_off_c, 1, 42, 0
1, 79740, Note_off_c, 1, 70, 0
1, 79740, Note_on_c, 1, 78, 127
1, 79740, Note_on_c, 1, 50, 127
1, 79740, Note_on_c, 1, 38, 127
1, 79799, Note_off_c, 1, 50, 0
1, 79799, Note_off_c, 1, 38, 0
1, 79800, Note_off_c, 1, 66, 0
1, 79800, Note_off_c, 1, 62, 0
1, 79800, Note_off_c, 1, 78, 0
1, 79800, Note_on_c, 1, 74, 127
1, 79800, Note_on_c, 1, 52, 127
1, 79800, Note_on_c, 1, 40, 127
1, 79800, Note_on_c, 1, 61, 127
1, 79800, Note_on_c, 1, 64, 127
1, 79859, Note_off_c, 1, 52, 0
1, 79859, Note_off_c, 1, 40, 0
1, 79860, Note_off_c, 1, 74, 0
1, 79860, Note_on_c, 1, 73, 127
1, 79890, Note_off_c, 1, 61, 0
1, 79890, Note_off_c, 1, 64, 0
1, 79890, Note_off_c, 1, 73, 0
1, 79890, Note_on_c, 1, 71, 127
1, 79890, Note_on_c, 1, 59, 127
1, 79920, Note_on_c, 1, 47, 127
1, 79920, Note_on_c, 1, 35, 127
1, 79979, Note_off_c, 1, 47, 0
1, 79979, Note_off_c, 1, 35, 0
1, 79980, Note_on_c, 1, 49, 127
1, 79980, Note_on_c, 1, 37, 127
1, 80039, Note_off_c, 1, 49, 0
1, 80039, Note_off_c, 1, 37, 0
1, 80040, Note_off_c, 1, 71, 0
1, 80040, Note_off_c, 1, 59, 0
1, 80130, Note_on_c, 1, 79, 127
1, 80144, Note_off_c, 1, 79, 0
1, 80145, Note_on_c, 1, 81, 127
1, 80159, Note_off_c, 1, 81, 0
1, 80160, Note_on_c, 1, 67, 127
1, 80219, Note_off_c, 1, 67, 0
1, 80220, Note_on_c, 1, 69, 127
1, 80265, Note_on_c, 1, 76, 127
1, 80279, Note_off_c, 1, 69, 0
1, 80279, Note_off_c, 1, 76, 0
1, 80280, Note_on_c, 1, 55, 127
1, 80280, Note_on_c, 1, 43, 127
1, 80339, Note_off_c, 1, 55, 0
1, 80339, Note_off_c, 1, 43, 0
1, 80820, Note_on_c, 1, 30, 127
1, 80879, Note_off_c, 1, 30, 0
1, 80880, Note_on_c, 1, 71, 127
1, 80880, Note_on_c, 1, 47, 127
1, 80880, Note_on_c, 1, 35, 127
1, 80939, Note_off_c, 1, 47, 0
1, 80939, Note_off_c, 1, 35, 0
1, 80940, Note_on_c, 1, 66, 127
1, 80940, Note_on_c, 1, 49, 127
1, 80940, Note_on_c, 1, 37, 127
1, 80999, Note_off_c, 1, 66, 0
1, 80999, Note_off_c, 1, 49, 0
1, 80999, Note_off_c, 1, 37, 0
1, 81000, Note_on_c, 1, 50, 127
1, 81000, Note_on_c, 1, 38, 127
1, 81059, Note_off_c, 1, 50, 0
1, 81059, Note_off_c, 1, 38, 0
1, 81089, Note_off_c, 1, 71, 0
1, 81090, Note_on_c, 1, 73, 127
1, 81104, Note_off_c, 1, 73, 0
1, 81105, Note_on_c, 1, 74, 127
1, 81119, Note_off_c, 1, 74, 0
1, 81120, Note_on_c, 1, 73, 127
1, 81120, Note_on_c, 1, 52, 127
1, 81120, Note_on_c, 1, 40, 127
1, 81149, Note_off_c, 1, 73, 0
1, 81150, Note_on_c, 1, 74, 127
1, 81179, Note_off_c, 1, 52, 0
1, 81179, Note_off_c, 1, 40, 0
1, 81179, Note_off_c, 1, 74, 0
1, 81180, Note_on_c, 1, 73, 127
1, 81180, Note_on_c, 1, 50, 127
1, 81180, Note_on_c, 1, 38, 127
1, 81209, Note_off_c, 1, 73, 0
1, 81210, Note_on_c, 1, 71, 127
1, 81239, Note_off_c, 1, 50, 0
1, 81239, Note_off_c, 1, 38, 0
1, 81239, Note_off_c, 1, 71, 0
1, 81240, Note_on_c, 1, 69, 127
1, 81240, Note_on_c, 1, 49, 127
1, 81240, Note_on_c, 1, 37, 127
1, 81269, Note_off_c, 1, 69, 0
1, 81270, Note_on_c, 1, 67, 127
1, 81299, Note_off_c, 1, 49, 0
1, 81299, Note_off_c, 1, 37, 0
1, 81299, Note_off_c, 1, 67, 0
1, 81300, Note_on_c, 1, 66, 127
1, 81300, Note_on_c, 1, 45, 127
1, 81300, Note_on_c, 1, 33, 127
1, 81329, Note_off_c, 1, 66, 0
1, 81330, Note_on_c, 1, 67, 127
1, 81359, Note_off_c, 1, 45, 0
1, 81359, Note_off_c, 1, 33, 0
1, 81359, Note_off_c, 1, 67, 0
1, 81360, Note_on_c, 1, 66, 127
1, 81360, Note_on_c, 1, 50, 127
1, 81360, Note_on_c, 1, 38, 127
1, 81419, Note_off_c, 1, 66, 0
1, 81419, Note_off_c, 1, 50, 0
1, 81419, Note_off_c, 1, 38, 0
1, 81420, Note_on_c, 1, 69, 127
1, 81420, Note_on_c, 1, 49, 127
1, 81420, Note_on_c, 1, 37, 127
1, 81479, Note_off_c, 1, 69, 0
1, 81479, Note_off_c, 1, 49, 0
1, 81479, Note_off_c, 1, 37, 0
1, 81480, Note_on_c, 1, 74, 127
1, 81480, Note_on_c, 1, 47, 127
1, 81480, Note_on_c, 1, 35, 127
1, 81539, Note_off_c, 1, 47, 0
1, 81539, Note_off_c, 1, 35, 0
1, 81540, Note_on_c, 1, 45, 127
1, 81540, Note_on_c, 1, 33, 127
1, 81569, Note_off_c, 1, 74, 0
1, 81570, Note_on_c, 1, 76, 127
1, 81584, Note_off_c, 1, 76, 0
1, 81585, Note_on_c, 1, 78, 127
1, 81599, Note_off_c, 1, 45, 0
1, 81599, Note_off_c, 1, 33, 0
1, 81599, Note_off_c, 1, 78, 0
1, 81600, Note_on_c, 1, 76, 127
1, 81600, Note_on_c, 1, 43, 127
1, 81600, Note_on_c, 1, 31, 127
1, 81629, Note_off_c, 1, 76, 0
1, 81630, Note_on_c, 1, 78, 127
1, 81659, Note_off_c, 1, 43, 0
1, 81659, Note_off_c, 1, 31, 0
1, 81659, Note_off_c, 1, 78, 0
1, 81660, Note_on_c, 1, 76, 127
1, 81660, Note_on_c, 1, 42, 127
1, 81660, Note_on_c, 1, 30, 127
1, 81689, Note_off_c, 1, 76, 0
1, 81690, Note_on_c, 1, 74, 127
1, 81719, Note_off_c, 1, 42, 0
1, 81719, Note_off_c, 1, 30, 0
1, 81719, Note_off_c, 1, 74, 0
1, 81720, Note_on_c, 1, 73, 127
1, 81720, Note_on_c, 1, 40, 127
1, 81720, Note_on_c, 1, 28, 127
1, 81749, Note_off_c, 1, 73, 0
1, 81750, Note_on_c, 1, 71, 127
1, 81779, Note_off_c, 1, 40, 0
1, 81779, Note_off_c, 1, 28, 0
1, 81779, Note_off_c, 1, 71, 0
1, 81780, Note_on_c, 1, 70, 127
1, 81780, Note_on_c, 1, 49, 127
1, 81780, Note_on_c, 1, 37, 127
1, 81809, Note_off_c, 1, 70, 0
1, 81810, Note_on_c, 1, 71, 127
1, 81839, Note_off_c, 1, 49, 0
1, 81839, Note_off_c, 1, 37, 0
1, 81839, Note_off_c, 1, 71, 0
1, 81840, Note_on_c, 1, 70, 127
1, 81840, Note_on_c, 1, 54, 127
1, 81840, Note_on_c, 1, 42, 127
1, 81840, Note_on_c, 1, 66, 127
1, 81840, Note_on_c, 1, 61, 127
1, 81870, Note_on_c, 1, 74, 127
1, 81899, Note_off_c, 1, 74, 0
1, 81900, Note_on_c, 1, 73, 127
1, 81929, Note_off_c, 1, 73, 0
1, 81959, Note_off_c, 1, 70, 0
1, 81959, Note_off_c, 1, 54, 0
1, 81959, Note_off_c, 1, 42, 0
1, 81959, Note_off_c, 1, 66, 0
1, 81959, Note_off_c, 1, 61, 0
1, 81960, Note_on_c, 1, 71, 127
1, 81989, Note_off_c, 1, 71, 0
1, 81990, Note_on_c, 1, 70, 127
1, 82019, Note_off_c, 1, 70, 0
1, 82020, Note_on_c, 1, 71, 127
1, 82049, Note_off_c, 1, 71, 0
1, 82050, Note_on_c, 1, 73, 127
1, 82079, Note_off_c, 1, 73, 0
1, 82080, Note_on_c, 1, 66, 127
1, 82080, Note_on_c, 1, 52, 127
1, 82080, Note_on_c, 1, 40, 127
1, 82080, Note_on_c, 1, 70, 127
1, 82080, Note_on_c, 1, 61, 127
1, 82110, Note_on_c, 1, 74, 127
1, 82139, Note_off_c, 1, 74, 0
1, 82140, Note_on_c, 1, 73, 127
1, 82169, Note_off_c, 1, 73, 0
1, 82199, Note_off_c, 1, 66, 0
1, 82199, Note_off_c, 1, 52, 0
1, 82199, Note_off_c, 1, 40, 0
1, 82199, Note_off_c, 1, 70, 0
1, 82199, Note_off_c, 1, 61, 0
1, 82200, Note_on_c, 1, 71, 127
1, 82229, Note_off_c, 1, 71, 0
1, 82230, Note_on_c, 1, 70, 127
1, 82259, Note_off_c, 1, 70, 0
1, 82260, Note_on_c, 1, 71, 127
1, 82289, Note_off_c, 1, 71, 0
1, 82290, Note_on_c, 1, 73, 127
1, 82319, Note_off_c, 1, 73, 0
1, 82320, Note_on_c, 1, 66, 127
1, 82320, Note_on_c, 1, 50, 127
1, 82320, Note_on_c, 1, 38, 127
1, 82320, Note_on_c, 1, 71, 127
1, 82320, Note_on_c, 1, 62, 127
1, 82350, Note_on_c, 1, 74, 127
1, 82379, Note_off_c, 1, 74, 0
1, 82380, Note_on_c, 1, 73, 127
1, 82409, Note_off_c, 1, 73, 0
1, 82410, Note_on_c, 1, 70, 127
1, 82439, Note_off_c, 1, 66, 0
1, 82439, Note_off_c, 1, 50, 0
1, 82439, Note_off_c, 1, 38, 0
1, 82439, Note_off_c, 1, 71, 0
1, 82439, Note_off_c, 1, 62, 0
1, 82439, Note_off_c, 1, 70, 0
1, 82440, Note_on_c, 1, 71, 127
1, 82469, Note_off_c, 1, 71, 0
1, 82470, Note_on_c, 1, 70, 127
1, 82499, Note_off_c, 1, 70, 0
1, 82500, Note_on_c, 1, 71, 127
1, 82529, Note_off_c, 1, 71, 0
1, 82530, Note_on_c, 1, 73, 127
1, 82559, Note_off_c, 1, 73, 0
1, 82560, Note_on_c, 1, 64, 127
1, 82560, Note_on_c, 1, 49, 127
1, 82560, Note_on_c, 1, 37, 127
1, 82560, Note_on_c, 1, 70, 127
1, 82560, Note_on_c, 1, 61, 127
1, 82590, Note_on_c, 1, 74, 127
1, 82619, Note_off_c, 1, 74, 0
1, 82620, Note_on_c, 1, 73, 127
1, 82649, Note_off_c, 1, 73, 0
1, 82679, Note_off_c, 1, 64, 0
1, 82679, Note_off_c, 1, 49, 0
1, 82679, Note_off_c, 1, 37, 0
1, 82679, Note_off_c, 1, 70, 0
1, 82679, Note_off_c, 1, 61, 0
1, 82680, Note_on_c, 1, 71, 127
1, 82709, Note_off_c, 1, 71, 0
1, 82710, Note_on_c, 1, 70, 127
1, 82739, Note_off_c, 1, 70, 0
1, 82740, Note_on_c, 1, 71, 127
1, 82769, Note_off_c, 1, 71, 0
1, 82770, Note_on_c, 1, 73, 127
1, 82799, Note_off_c, 1, 73, 0
1, 82800, Note_on_c, 1, 62, 127
1, 82800, Note_on_c, 1, 47, 127
1, 82800, Note_on_c, 1, 35, 127
1, 82800, Note_on_c, 1, 66, 127
1, 82859, Note_off_c, 1, 62, 0
1, 82859, Note_off_c, 1, 47, 0
1, 82859, Note_off_c, 1, 35, 0
1, 82860, Note_on_c, 1, 59, 127
1, 82860, Note_on_c, 1, 49, 127
1, 82860, Note_on_c, 1, 37, 127
1, 82860, Note_on_c, 1, 64, 127
1, 82919, Note_off_c, 1, 66, 0
1, 82919, Note_off_c, 1, 59, 0
1, 82919, Note_off_c, 1, 49, 0
1, 82919, Note_off_c, 1, 37, 0
1, 82919, Note_off_c, 1, 64, 0
1, 82920, Note_on_c, 1, 66, 127
1, 82920, Note_on_c, 1, 50, 127
1, 82920, Note_on_c, 1, 38, 127
1, 82979, Note_off_c, 1, 50, 0
1, 82979, Note_off_c, 1, 38, 0
1, 82980, Note_on_c, 1, 47, 127
1, 82980, Note_on_c, 1, 35, 127
1, 82980, Note_on_c, 1, 62, 127
1, 83009, Note_off_c, 1, 66, 0
1, 83010, Note_on_c, 1, 67, 127
1, 83024, Note_off_c, 1, 67, 0
1, 83025, Note_on_c, 1, 69, 127
1, 83039, Note_off_c, 1, 47, 0
1, 83039, Note_off_c, 1, 35, 0
1, 83039, Note_off_c, 1, 62, 0
1, 83039, Note_off_c, 1, 69, 0
1, 83040, Note_on_c, 1, 67, 127
1, 83040, Note_on_c, 1, 52, 127
1, 83040, Note_on_c, 1, 40, 127
1, 83040, Note_on_c, 1, 64, 127
1, 83040, Note_on_c, 1, 59, 127
1, 83070, Note_on_c, 1, 69, 127
1, 83099, Note_off_c, 1, 52, 0
1, 83099, Note_off_c, 1, 40, 0
1, 83099, Note_off_c, 1, 69, 0
1, 83100, Note_on_c, 1, 54, 127
1, 83100, Note_on_c, 1, 42, 127
1, 83130, Note_on_c, 1, 66, 127
1, 83159, Note_off_c, 1, 54, 0
1, 83159, Note_off_c, 1, 42, 0
1, 83159, Note_off_c, 1, 66, 0
1, 83160, Note_on_c, 1, 55, 127
1, 83160, Note_on_c, 1, 43, 127
1, 83190, Note_on_c, 1, 62, 127
1, 83219, Note_off_c, 1, 55, 0
1, 83219, Note_off_c, 1, 43, 0
1, 83219, Note_off_c, 1, 62, 0
1, 83220, Note_on_c, 1, 61, 127
1, 83249, Note_off_c, 1, 61, 0
1, 83280, Note_off_c, 1, 67, 0
1, 83280, Note_off_c, 1, 59, 0
1, 83280, Note_on_c, 1, 57, 127
1, 83280, Note_on_c, 1, 76, 127
1, 83280, Note_on_c, 1, 49, 127
1, 83280, Note_on_c, 1, 37, 127
1, 83339, Note_off_c, 1, 49, 0
1, 83339, Note_off_c, 1, 37, 0
1, 83340, Note_on_c, 1, 47, 127
1, 83340, Note_on_c, 1, 35, 127
1, 83399, Note_off_c, 1, 57, 0
1, 83399, Note_off_c, 1, 47, 0
1, 83399, Note_off_c, 1, 35, 0
1, 83459, Note_off_c, 1, 64, 0
1, 83460, Note_on_c, 1, 45, 127
1, 83460, Note_on_c, 1, 33, 127
1, 83490, Note_off_c, 1, 76, 0
1, 83490, Note_on_c, 1, 78, 127
1, 83505, Note_off_c, 1, 78, 0
1, 83505, Note_on_c, 1, 79, 127
1, 83519, Note_off_c, 1, 45, 0
1, 83519, Note_off_c, 1, 33, 0
1, 83520, Note_off_c, 1, 79, 0
1, 83520, Note_on_c, 1, 50, 127
1, 83520, Note_on_c, 1, 38, 127
1, 83579, Note_off_c, 1, 50, 0
1, 83579, Note_off_c, 1, 38, 0
1, 83580, Note_on_c, 1, 73, 127
1, 83640, Note_off_c, 1, 73, 0
1, 83640, Note_on_c, 1, 74, 127
1, 83730, Note_off_c, 1, 74, 0
1, 83940, Note_on_c, 1, 74, 127
1, 83940, Note_on_c, 1, 49, 127
1, 83940, Note_on_c, 1, 37, 127
1, 83940, Note_on_c, 1, 67, 127
1, 83969, Note_off_c, 1, 74, 0
1, 83970, Note_on_c, 1, 76, 127
1, 83999, Note_off_c, 1, 49, 0
1, 83999, Note_off_c, 1, 37, 0
1, 83999, Note_off_c, 1, 67, 0
1, 83999, Note_off_c, 1, 76, 0
1, 84000, Note_on_c, 1, 69, 127
1, 84000, Note_on_c, 1, 78, 127
1, 84000, Note_on_c, 1, 50, 127
1, 84000, Note_on_c, 1, 38, 127
1, 84000, Note_on_c, 1, 62, 127
1, 84000, Note_on_c, 1, 66, 127
1, 84059, Note_off_c, 1, 50, 0
1, 84059, Note_off_c, 1, 38, 0
1, 84060, Note_on_c, 1, 57, 127
1, 84060, Note_on_c, 1, 45, 127
1, 84090, Note_off_c, 1, 78, 0
1, 84090, Note_on_c, 1, 79, 127
1, 84105, Note_off_c, 1, 79, 0
1, 84105, Note_on_c, 1, 81, 127
1, 84119, Note_off_c, 1, 57, 0
1, 84119, Note_off_c, 1, 45, 0
1, 84120, Note_off_c, 1, 81, 0
1, 84179, Note_off_c, 1, 62, 0
1, 84179, Note_off_c, 1, 66, 0
1, 84180, Note_on_c, 1, 60, 127
1, 84180, Note_on_c, 1, 48, 127
1, 84180, Note_on_c, 1, 64, 127
1, 84239, Note_off_c, 1, 60, 0
1, 84239, Note_off_c, 1, 48, 0
1, 84239, Note_off_c, 1, 64, 0
1, 84240, Note_on_c, 1, 74, 127
1, 84240, Note_on_c, 1, 59, 127
1, 84240, Note_on_c, 1, 47, 127
1, 84270, Note_off_c, 1, 69, 0
1, 84299, Note_off_c, 1, 59, 0
1, 84299, Note_off_c, 1, 47, 0
1, 84330, Note_on_c, 1, 61, 127
1, 84359, Note_off_c, 1, 61, 0
1, 84420, Note_off_c, 1, 74, 0
1, 84420, Note_on_c, 1, 55, 127
1, 84420, Note_on_c, 1, 43, 127
1, 84479, Note_off_c, 1, 55, 0
1, 84479, Note_off_c, 1, 43, 0
1, 84540, Note_on_c, 1, 71, 127
1, 84569, Note_off_c, 1, 71, 0
1, 84600, Note_on_c, 1, 76, 127
1, 84629, Note_off_c, 1, 76, 0
1, 84660, Note_on_c, 1, 33, 127
1, 84719, Note_off_c, 1, 33, 0
1, 84780, Note_on_c, 1, 52, 127
1, 84780, Note_on_c, 1, 40, 127
1, 84839, Note_off_c, 1, 52, 0
1, 84839, Note_off_c, 1, 40, 0
1, 84840, Note_on_c, 1, 54, 127
1, 84840, Note_on_c, 1, 42, 127
1, 84899, Note_off_c, 1, 54, 0
1, 84899, Note_off_c, 1, 42, 0
1, 84960, Note_on_c, 1, 49, 127
1, 84960, Note_on_c, 1, 37, 127
1, 85019, Note_off_c, 1, 49, 0
1, 85019, Note_off_c, 1, 37, 0
1, 85260, Note_on_c, 1, 35, 127
1, 85289, Note_off_c, 1, 35, 0
1, 85920, Note_on_c, 1, 72, 127
1, 86040, Note_on_c, 1, 67, 127
1, 86069, Note_off_c, 1, 67, 0
1, 86100, Note_off_c, 1, 72, 0
1, 86340, Note_on_c, 1, 73, 127
1, 86400, Note_off_c, 1, 73, 0
1, 86400, Note_on_c, 1, 56, 127
1, 86400, Note_on_c, 1, 44, 127
1, 86400, Note_on_c, 1, 68, 127
1, 86459, Note_off_c, 1, 56, 0
1, 86459, Note_off_c, 1, 44, 0
1, 86640, Note_off_c, 1, 68, 0
1, 86760, Note_on_c, 1, 75, 127
1, 86820, Note_off_c, 1, 75, 0
1, 87000, Note_on_c, 1, 51, 127
1, 87000, Note_on_c, 1, 39, 127
1, 87059, Note_off_c, 1, 51, 0
1, 87059, Note_off_c, 1, 39, 0
1, 87825, Note_on_c, 1, 83, 127
1, 87839, Note_off_c, 1, 83, 0
1, 88080, Note_on_c, 1, 63, 127
1, 88200, Note_off_c, 1, 63, 0
1, 88230, Note_on_c, 1, 75, 127
1, 88259, Note_off_c, 1, 75, 0
1, 88260, Note_on_c, 1, 76, 127
1, 88289, Note_off_c, 1, 76, 0
1, 88290, Note_on_c, 1, 78, 127
1, 88319, Note_off_c, 1, 78, 0
1, 88320, Note_on_c, 1, 71, 127
1, 88320, Note_on_c, 1, 45, 127
1, 88320, Note_on_c, 1, 33, 127
1, 88320, Note_on_c, 1, 66, 127
1, 88320, Note_on_c, 1, 63, 127
1, 88350, Note_on_c, 1, 79, 127
1, 88379, Note_off_c, 1, 79, 0
1, 88380, Note_on_c, 1, 78, 127
1, 88409, Note_off_c, 1, 78, 0
1, 88410, Note_on_c, 1, 75, 127
1, 88439, Note_off_c, 1, 45, 0
1, 88439, Note_off_c, 1, 33, 0
1, 88439, Note_off_c, 1, 75, 0
1, 88440, Note_off_c, 1, 71, 0
1, 88440, Note_off_c, 1, 66, 0
1, 88440, Note_off_c, 1, 63, 0
1, 88440, Note_on_c, 1, 76, 127
1, 88469, Note_off_c, 1, 76, 0
1, 88470, Note_on_c, 1, 75, 127
1, 88499, Note_off_c, 1, 75, 0
1, 88500, Note_on_c, 1, 76, 127
1, 88500, Note_on_c, 1, 75, 127
1, 88529, Note_off_c, 1, 76, 0
1, 88530, Note_on_c, 1, 78, 127
1, 88559, Note_off_c, 1, 78, 0
1, 88560, Note_off_c, 1, 75, 0
1, 88560, Note_on_c, 1, 71, 127
1, 88560, Note_on_c, 1, 43, 127
1, 88560, Note_on_c, 1, 31, 127
1, 88560, Note_on_c, 1, 67, 127
1, 88560, Note_on_c, 1, 64, 127
1, 88590, Note_on_c, 1, 79, 127
1, 88619, Note_off_c, 1, 79, 0
1, 88679, Note_off_c, 1, 43, 0
1, 88679, Note_off_c, 1, 31, 0
1, 88680, Note_off_c, 1, 71, 0
1, 88680, Note_off_c, 1, 67, 0
1, 88680, Note_off_c, 1, 64, 0
1, 88710, Note_on_c, 1, 75, 127
1, 88739, Note_off_c, 1, 75, 0
1, 88740, Note_on_c, 1, 76, 127
1, 88740, Note_on_c, 1, 71, 127
1, 88769, Note_off_c, 1, 76, 0
1, 88770, Note_on_c, 1, 78, 127
1, 88799, Note_off_c, 1, 78, 0
1, 88800, Note_off_c, 1, 71, 0
1, 88800, Note_on_c, 1, 69, 127
1, 88800, Note_on_c, 1, 72, 127
1, 88800, Note_on_c, 1, 42, 127
1, 88800, Note_on_c, 1, 30, 127
1, 88800, Note_on_c, 1, 63, 127
1, 88800, Note_on_c, 1, 66, 127
1, 88830, Note_on_c, 1, 79, 127
1, 88859, Note_off_c, 1, 79, 0
1, 88890, Note_on_c, 1, 75, 127
1, 88919, Note_off_c, 1, 42, 0
1, 88919, Note_off_c, 1, 30, 0
1, 88919, Note_off_c, 1, 75, 0
1, 88920, Note_off_c, 1, 69, 0
1, 88920, Note_off_c, 1, 72, 0
1, 88920, Note_off_c, 1, 63, 0
1, 88920, Note_off_c, 1, 66, 0
1, 89040, Note_on_c, 1, 67, 127
1, 89040, Note_on_c, 1, 52, 127
1, 89040, Note_on_c, 1, 40, 127
1, 89040, Note_on_c, 1, 64, 127
1, 89099, Note_off_c, 1, 52, 0
1, 89099, Note_off_c, 1, 40, 0
1, 89100, Note_on_c, 1, 50, 127
1, 89100, Note_on_c, 1, 38, 127
1, 89100, Note_on_c, 1, 62, 127
1, 89159, Note_off_c, 1, 50, 0
1, 89159, Note_off_c, 1, 38, 0
1, 89159, Note_off_c, 1, 62, 0
1, 89160, Note_off_c, 1, 67, 0
1, 89160, Note_on_c, 1, 48, 127
1, 89160, Note_on_c, 1, 36, 127
1, 89219, Note_off_c, 1, 64, 0
1, 89219, Note_off_c, 1, 48, 0
1, 89219, Note_off_c, 1, 36, 0
1, 89220, Note_on_c, 1, 47, 127
1, 89220, Note_on_c, 1, 35, 127
1, 89265, Note_on_c, 1, 74, 127
1, 89279, Note_off_c, 1, 47, 0
1, 89279, Note_off_c, 1, 35, 0
1, 89279, Note_off_c, 1, 74, 0
1, 89280, Note_on_c, 1, 45, 127
1, 89280, Note_on_c, 1, 33, 127
1, 89280, Note_on_c, 1, 60, 127
1, 89339, Note_off_c, 1, 45, 0
1, 89339, Note_off_c, 1, 33, 0
1, 89400, Note_off_c, 1, 60, 0
1, 89580, Note_on_c, 1, 73, 127
1, 89580, Note_on_c, 1, 51, 127
1, 89580, Note_on_c, 1, 39, 127
1, 89639, Note_off_c, 1, 51, 0
1, 89639, Note_off_c, 1, 39, 0
1, 89640, Note_off_c, 1, 73, 0
1, 89760, Note_on_c, 1, 59, 127
1, 89819, Note_off_c, 1, 59, 0
1, 89820, Note_on_c, 1, 57, 127
1, 89879, Note_off_c, 1, 57, 0
1, 90060, Note_on_c, 1, 54, 127
1, 90119, Note_off_c, 1, 54, 0
1, 90120, Note_on_c, 1, 55, 127
1, 90120, Note_on_c, 1, 43, 127
1, 90179, Note_off_c, 1, 55, 0
1, 90179, Note_off_c, 1, 43, 0
1, 90540, Note_on_c, 1, 74, 127
1, 90540, Note_on_c, 1, 54, 127
1, 90540, Note_on_c, 1, 42, 127
1, 90540, Note_on_c, 1, 62, 127
1, 90599, Note_off_c, 1, 74, 0
1, 90599, Note_off_c, 1, 54, 0
1, 90599, Note_off_c, 1, 42, 0
1, 90599, Note_off_c, 1, 62, 0
1, 90600, Note_on_c, 1, 79, 127
1, 90600, Note_on_c, 1, 52, 127
1, 90600, Note_on_c, 1, 40, 127
1, 90600, Note_on_c, 1, 60, 127
1, 90659, Note_off_c, 1, 52, 0
1, 90659, Note_off_c, 1, 40, 0
1, 90660, Note_on_c, 1, 50, 127
1, 90660, Note_on_c, 1, 38, 127
1, 90660, Note_on_c, 1, 59, 127
1, 90689, Note_off_c, 1, 79, 0
1, 90690, Note_on_c, 1, 81, 127
1, 90704, Note_off_c, 1, 81, 0
1, 90705, Note_on_c, 1, 83, 127
1, 90719, Note_off_c, 1, 50, 0
1, 90719, Note_off_c, 1, 38, 0
1, 90719, Note_off_c, 1, 59, 0
1, 90719, Note_off_c, 1, 83, 0
1, 90720, Note_off_c, 1, 60, 0
1, 90720, Note_on_c, 1, 48, 127
1, 90720, Note_on_c, 1, 36, 127
1, 90720, Note_on_c, 1, 64, 127
1, 90779, Note_off_c, 1, 48, 0
1, 90779, Note_off_c, 1, 36, 0
1, 90779, Note_off_c, 1, 64, 0
1, 90780, Note_on_c, 1, 81, 127
1, 90780, Note_on_c, 1, 47, 127
1, 90780, Note_on_c, 1, 35, 127
1, 90780, Note_on_c, 1, 62, 127
1, 90809, Note_off_c, 1, 81, 0
1, 90810, Note_on_c, 1, 79, 127
1, 90839, Note_off_c, 1, 47, 0
1, 90839, Note_off_c, 1, 35, 0
1, 90839, Note_off_c, 1, 62, 0
1, 90839, Note_off_c, 1, 79, 0
1, 90840, Note_on_c, 1, 78, 127
1, 90840, Note_on_c, 1, 45, 127
1, 90840, Note_on_c, 1, 33, 127
1, 90840, Note_on_c, 1, 60, 127
1, 90869, Note_off_c, 1, 78, 0
1, 90870, Note_on_c, 1, 76, 127
1, 90899, Note_off_c, 1, 45, 0
1, 90899, Note_off_c, 1, 33, 0
1, 90899, Note_off_c, 1, 76, 0
1, 90900, Note_on_c, 1, 75, 127
1, 90900, Note_on_c, 1, 42, 127
1, 90900, Note_on_c, 1, 30, 127
1, 90900, Note_on_c, 1, 57, 127
1, 90929, Note_off_c, 1, 75, 0
1, 90959, Note_off_c, 1, 42, 0
1, 90959, Note_off_c, 1, 30, 0
1, 90959, Note_off_c, 1, 57, 0
1, 90960, Note_off_c, 1, 60, 0
1, 90960, Note_on_c, 1, 47, 127
1, 90960, Note_on_c, 1, 35, 127
1, 90960, Note_on_c, 1, 59, 127
1, 90960, Note_on_c, 1, 66, 127
1, 90960, Note_on_c, 1, 63, 127
1, 90990, Note_on_c, 1, 79, 127
1, 91019, Note_off_c, 1, 79, 0
1, 91079, Note_off_c, 1, 47, 0
1, 91079, Note_off_c, 1, 35, 0
1, 91080, Note_off_c, 1, 59, 0
1, 91080, Note_off_c, 1, 66, 0
1, 91080, Note_off_c, 1, 63, 0
1, 91110, Note_on_c, 1, 75, 127
1, 91139, Note_off_c, 1, 75, 0
1, 91140, Note_on_c, 1, 76, 127
1, 91169, Note_off_c, 1, 76, 0
1, 91170, Note_on_c, 1, 78, 127
1, 91199, Note_off_c, 1, 78, 0
1, 91200, Note_on_c, 1, 71, 127
1, 91200, Note_on_c, 1, 45, 127
1, 91200, Note_on_c, 1, 33, 127
1, 91200, Note_on_c, 1, 66, 127
1, 91200, Note_on_c, 1, 59, 127
1, 91200, Note_on_c, 1, 63, 127
1, 91229, Note_off_c, 1, 71, 0
1, 91230, Note_on_c, 1, 79, 127
1, 91259, Note_off_c, 1, 79, 0
1, 91260, Note_on_c, 1, 78, 127
1, 91289, Note_off_c, 1, 78, 0
1, 91290, Note_on_c, 1, 75, 127
1, 91319, Note_off_c, 1, 45, 0
1, 91319, Note_off_c, 1, 33, 0
1, 91319, Note_off_c, 1, 75, 0
1, 91320, Note_off_c, 1, 66, 0
1, 91320, Note_off_c, 1, 59, 0
1, 91320, Note_off_c, 1, 63, 0
1, 91320, Note_on_c, 1, 76, 127
1, 91349, Note_off_c, 1, 76, 0
1, 91350, Note_on_c, 1, 75, 127
1, 91379, Note_off_c, 1, 75, 0
1, 91380, Note_on_c, 1, 76, 127
1, 91409, Note_off_c, 1, 76, 0
1, 91410, Note_on_c, 1, 78, 127
1, 91439, Note_off_c, 1, 78, 0
1, 91440, Note_on_c, 1, 71, 127
1, 91440, Note_on_c, 1, 43, 127
1, 91440, Note_on_c, 1, 31, 127
1, 91440, Note_on_c, 1, 55, 127
1, 91440, Note_on_c, 1, 59, 127
1, 91440, Note_on_c, 1, 64, 127
1, 91469, Note_off_c, 1, 71, 0
1, 91470, Note_on_c, 1, 79, 127
1, 91499, Note_off_c, 1, 79, 0
1, 91500, Note_on_c, 1, 78, 127
1, 91529, Note_off_c, 1, 78, 0
1, 91530, Note_on_c, 1, 75, 127
1, 91559, Note_off_c, 1, 43, 0
1, 91559, Note_off_c, 1, 31, 0
1, 91559, Note_off_c, 1, 75, 0
1, 91560, Note_off_c, 1, 55, 0
1, 91560, Note_off_c, 1, 59, 0
1, 91560, Note_off_c, 1, 64, 0
1, 91560, Note_on_c, 1, 76, 127
1, 91589, Note_off_c, 1, 76, 0
1, 91590, Note_on_c, 1, 75, 127
1, 91619, Note_off_c, 1, 75, 0
1, 91620, Note_on_c, 1, 76, 127
1, 91649, Note_off_c, 1, 76, 0
1, 91650, Note_on_c, 1, 78, 127
1, 91679, Note_off_c, 1, 78, 0
1, 91680, Note_on_c, 1, 69, 127
1, 91680, Note_on_c, 1, 42, 127
1, 91680, Note_on_c, 1, 30, 127
1, 91680, Note_on_c, 1, 57, 127
1, 91680, Note_on_c, 1, 63, 127
1, 91680, Note_on_c, 1, 66, 127
1, 91709, Note_off_c, 1, 69, 0
1, 91710, Note_on_c, 1, 79, 127
1, 91739, Note_off_c, 1, 79, 0
1, 91740, Note_on_c, 1, 78, 127
1, 91769, Note_off_c, 1, 78, 0
1, 91770, Note_on_c, 1, 75, 127
1, 91799, Note_off_c, 1, 42, 0
1, 91799, Note_off_c, 1, 30, 0
1, 91799, Note_off_c, 1, 75, 0
1, 91800, Note_off_c, 1, 57, 0
1, 91800, Note_off_c, 1, 63, 0
1, 91800, Note_off_c, 1, 66, 0
1, 91800, Note_on_c, 1, 76, 127
1, 91829, Note_off_c, 1, 76, 0
1, 91830, Note_on_c, 1, 75, 127
1, 91859, Note_off_c, 1, 75, 0
1, 91860, Note_on_c, 1, 76, 127
1, 91889, Note_off_c, 1, 76, 0
1, 91890, Note_on_c, 1, 78, 127
1, 91919, Note_off_c, 1, 78, 0
1, 91920, Note_on_c, 1, 67, 127
1, 91920, Note_on_c, 1, 40, 127
1, 91920, Note_on_c, 1, 28, 127
1, 91979, Note_off_c, 1, 67, 0
1, 91979, Note_off_c, 1, 40, 0
1, 91979, Note_off_c, 1, 28, 0
1, 91980, Note_on_c, 1, 64, 127
1, 91980, Note_on_c, 1, 42, 127
1, 91980, Note_on_c, 1, 30, 127
1, 91980, Note_on_c, 1, 69, 127
1, 92039, Note_off_c, 1, 64, 0
1, 92039, Note_off_c, 1, 42, 0
1, 92039, Note_off_c, 1, 30, 0
1, 92039, Note_off_c, 1, 69, 0
1, 92040, Note_on_c, 1, 71, 127
1, 92040, Note_on_c, 1, 43, 127
1, 92040, Note_on_c, 1, 31, 127
1, 92099, Note_off_c, 1, 43, 0
1, 92099, Note_off_c, 1, 31, 0
1, 92100, Note_on_c, 1, 40, 127
1, 92100, Note_on_c, 1, 28, 127
1, 92100, Note_on_c, 1, 67, 127
1, 92129, Note_off_c, 1, 71, 0
1, 92130, Note_on_c, 1, 72, 127
1, 92144, Note_off_c, 1, 72, 0
1, 92145, Note_on_c, 1, 74, 127
1, 92159, Note_off_c, 1, 40, 0
1, 92159, Note_off_c, 1, 28, 0
1, 92159, Note_off_c, 1, 67, 0
1, 92159, Note_off_c, 1, 74, 0
1, 92160, Note_on_c, 1, 72, 127
1, 92160, Note_on_c, 1, 45, 127
1, 92160, Note_on_c, 1, 33, 127
1, 92160, Note_on_c, 1, 60, 127
1, 92189, Note_off_c, 1, 72, 0
1, 92190, Note_on_c, 1, 74, 127
1, 92219, Note_off_c, 1, 45, 0
1, 92219, Note_off_c, 1, 33, 0
1, 92219, Note_off_c, 1, 60, 0
1, 92219, Note_off_c, 1, 74, 0
1, 92220, Note_on_c, 1, 72, 127
1, 92220, Note_on_c, 1, 47, 127
1, 92220, Note_on_c, 1, 35, 127
1, 92220, Note_on_c, 1, 62, 127
1, 92249, Note_off_c, 1, 72, 0
1, 92250, Note_on_c, 1, 71, 127
1, 92279, Note_off_c, 1, 47, 0
1, 92279, Note_off_c, 1, 35, 0
1, 92279, Note_off_c, 1, 62, 0
1, 92279, Note_off_c, 1, 71, 0
1, 92280, Note_on_c, 1, 69, 127
1, 92280, Note_on_c, 1, 48, 127
1, 92280, Note_on_c, 1, 36, 127
1, 92280, Note_on_c, 1, 64, 127
1, 92309, Note_off_c, 1, 69, 0
1, 92310, Note_on_c, 1, 67, 127
1, 92339, Note_off_c, 1, 48, 0
1, 92339, Note_off_c, 1, 36, 0
1, 92339, Note_off_c, 1, 64, 0
1, 92339, Note_off_c, 1, 67, 0
1, 92340, Note_on_c, 1, 66, 127
1, 92340, Note_on_c, 1, 45, 127
1, 92340, Note_on_c, 1, 33, 127
1, 92340, Note_on_c, 1, 60, 127
1, 92369, Note_off_c, 1, 66, 0
1, 92370, Note_on_c, 1, 64, 127
1, 92399, Note_off_c, 1, 45, 0
1, 92399, Note_off_c, 1, 33, 0
1, 92399, Note_off_c, 1, 60, 0
1, 92399, Note_off_c, 1, 64, 0
1, 92400, Note_on_c, 1, 71, 127
1, 92400, Note_on_c, 1, 47, 127
1, 92400, Note_on_c, 1, 35, 127
1, 92400, Note_on_c, 1, 66, 127
1, 92400, Note_on_c, 1, 63, 127
1, 92429, Note_off_c, 1, 71, 0
1, 92430, Note_on_c, 1, 72, 127
1, 92459, Note_off_c, 1, 47, 0
1, 92459, Note_off_c, 1, 35, 0
1, 92459, Note_off_c, 1, 66, 0
1, 92459, Note_off_c, 1, 63, 0
1, 92459, Note_off_c, 1, 72, 0
1, 92460, Note_on_c, 1, 71, 127
1, 92460, Note_on_c, 1, 51, 127
1, 92460, Note_on_c, 1, 39, 127
1, 92460, Note_on_c, 1, 69, 127
1, 92460, Note_on_c, 1, 66, 127
1, 92489, Note_off_c, 1, 71, 0
1, 92519, Note_off_c, 1, 51, 0
1, 92519, Note_off_c, 1, 39, 0
1, 92519, Note_off_c, 1, 69, 0
1, 92519, Note_off_c, 1, 66, 0
1, 92520, Note_on_c, 1, 67, 127
1, 92520, Note_on_c, 1, 52, 127
1, 92520, Note_on_c, 1, 40, 127
1, 92520, Note_on_c, 1, 64, 127
1, 92550, Note_on_c, 1, 66, 127
1, 92579, Note_off_c, 1, 67, 0
1, 92579, Note_off_c, 1, 52, 0
1, 92579, Note_off_c, 1, 40, 0
1, 92579, Note_off_c, 1, 64, 0
1, 92579, Note_off_c, 1, 66, 0
1, 92580, Note_on_c, 1, 64, 127
1, 92580, Note_on_c, 1, 55, 127
1, 92580, Note_on_c, 1, 43, 127
1, 92580, Note_on_c, 1, 59, 127
1, 92610, Note_on_c, 1, 63, 127
1, 92639, Note_off_c, 1, 64, 0
1, 92639, Note_off_c, 1, 55, 0
1, 92639, Note_off_c, 1, 43, 0
1, 92639, Note_off_c, 1, 59, 0
1, 92639, Note_off_c, 1, 63, 0
1, 92640, Note_on_c, 1, 64, 127
1, 92640, Note_on_c, 1, 60, 127
1, 92640, Note_on_c, 1, 48, 127
1, 92640, Note_on_c, 1, 67, 127
1, 92670, Note_on_c, 1, 63, 127
1, 92699, Note_off_c, 1, 64, 0
1, 92699, Note_off_c, 1, 60, 0
1, 92699, Note_off_c, 1, 48, 0
1, 92699, Note_off_c, 1, 67, 0
1, 92699, Note_off_c, 1, 63, 0
1, 92700, Note_on_c, 1, 64, 127
1, 92700, Note_on_c, 1, 57, 127
1, 92700, Note_on_c, 1, 45, 127
1, 92700, Note_on_c, 1, 69, 127
1, 92730, Note_on_c, 1, 66, 127
1, 92759, Note_off_c, 1, 64, 0
1, 92759, Note_off_c, 1, 57, 0
1, 92759, Note_off_c, 1, 45, 0
1, 92759, Note_off_c, 1, 69, 0
1, 92759, Note_off_c, 1, 66, 0
1, 92760, Note_on_c, 1, 59, 127
1, 92760, Note_on_c, 1, 47, 127
1, 92760, Note_on_c, 1, 66, 127
1, 92760, Note_on_c, 1, 63, 127
1, 92819, Note_off_c, 1, 59, 0
1, 92819, Note_off_c, 1, 47, 0
1, 92819, Note_off_c, 1, 66, 0
1, 92819, Note_off_c, 1, 63, 0
1, 92820, Note_on_c, 1, 63, 127
1, 92820, Note_on_c, 1, 47, 127
1, 92820, Note_on_c, 1, 35, 127
1, 92820, Note_on_c, 1, 69, 127
1, 92820, Note_on_c, 1, 66, 127
1, 92820, Note_on_c, 1, 59, 127
1, 92879, Note_off_c, 1, 63, 0
1, 92879, Note_off_c, 1, 47, 0
1, 92879, Note_off_c, 1, 35, 0
1, 92879, Note_off_c, 1, 69, 0
1, 92879, Note_off_c, 1, 66, 0
1, 92879, Note_off_c, 1, 59, 0
1, 92880, Note_on_c, 1, 64, 127
1, 92880, Note_on_c, 1, 52, 127
1, 92880, Note_on_c, 1, 40, 127
1, 92880, Note_on_c, 1, 67, 127
1, 92880, Note_on_c, 1, 59, 127
1, 92999, Note_off_c, 1, 64, 0
1, 92999, Note_off_c, 1, 52, 0
1, 92999, Note_off_c, 1, 40, 0
1, 92999, Note_off_c, 1, 67, 0
1, 92999, Note_off_c, 1, 59, 0
1, 93360, Note_on_c, 1, 49, 127
1, 93360, Note_on_c, 1, 37, 127
1, 93360, Note_on_c, 1, 64, 127
1, 93360, Note_on_c, 1, 61, 127
1, 93360, Note_on_c, 1, 69, 127
1, 93600, Note_on_c, 1, 76, 127
1, 93720, Note_off_c, 1, 76, 0
1, 93720, Note_on_c, 1, 73, 127
1, 93780, Note_off_c, 1, 73, 0
1, 94050, Note_on_c, 1, 74, 127
1, 94080, Note_off_c, 1, 74, 0
1, 94200, Note_off_c, 1, 49, 0
1, 94200, Note_off_c, 1, 37, 0
1, 94200, Note_off_c, 1, 64, 0
1, 94200, Note_off_c, 1, 69, 0
1, 94200, Note_on_c, 1, 78, 127
1, 94200, Note_on_c, 1, 46, 127
1, 94200, Note_on_c, 1, 34, 127
1, 94200, Note_on_c, 1, 66, 127
1, 94260, Note_off_c, 1, 78, 0
1, 94320, Note_off_c, 1, 61, 0
1, 94320, Note_off_c, 1, 46, 0
1, 94320, Note_off_c, 1, 34, 0
1, 94320, Note_on_c, 1, 47, 127
1, 94320, Note_on_c, 1, 35, 127
1, 94320, Note_on_c, 1, 62, 127
1, 94560, Note_off_c, 1, 47, 0
1, 94560, Note_off_c, 1, 35, 0
1, 94560, Note_on_c, 1, 54, 127
1, 94560, Note_on_c, 1, 42, 127
1, 94920, Note_on_c, 1, 71, 127
1, 94980, Note_off_c, 1, 71, 0
1, 94980, Note_on_c, 1, 72, 127
1, 95040, Note_off_c, 1, 66, 0
1, 95040, Note_off_c, 1, 54, 0
1, 95040, Note_off_c, 1, 42, 0
1, 95040, Note_off_c, 1, 72, 0
1, 95040, Note_on_c, 1, 55, 127
1, 95040, Note_on_c, 1, 43, 127
1, 95040, Note_on_c, 1, 67, 127
1, 95099, Note_off_c, 1, 55, 0
1, 95099, Note_off_c, 1, 43, 0
1, 95100, Note_on_c, 1, 57, 127
1, 95100, Note_on_c, 1, 45, 127
1, 95159, Note_off_c, 1, 57, 0
1, 95159, Note_off_c, 1, 45, 0
1, 95160, Note_off_c, 1, 62, 0
1, 95160, Note_off_c, 1, 67, 0
1, 95220, Note_on_c, 1, 71, 127
1, 95220, Note_on_c, 1, 54, 127
1, 95220, Note_on_c, 1, 42, 127
1, 95220, Note_on_c, 1, 66, 127
1, 95279, Note_off_c, 1, 54, 0
1, 95279, Note_off_c, 1, 42, 0
1, 95280, Note_off_c, 1, 66, 0
1, 95280, Note_on_c, 1, 79, 127
1, 95280, Note_on_c, 1, 52, 127
1, 95280, Note_on_c, 1, 40, 127
1, 95280, Note_on_c, 1, 67, 127
1, 95280, Note_on_c, 1, 64, 127
1, 95339, Note_off_c, 1, 52, 0
1, 95339, Note_off_c, 1, 40, 0
1, 95399, Note_off_c, 1, 79, 0
1, 95400, Note_on_c, 1, 76, 127
1, 95400, Note_on_c, 1, 55, 127
1, 95400, Note_on_c, 1, 43, 127
1, 95459, Note_off_c, 1, 55, 0
1, 95459, Note_off_c, 1, 43, 0
1, 95519, Note_off_c, 1, 76, 0
1, 95520, Note_off_c, 1, 71, 0
1, 95520, Note_off_c, 1, 67, 0
1, 95520, Note_on_c, 1, 73, 127
1, 95520, Note_on_c, 1, 57, 127
1, 95520, Note_on_c, 1, 45, 127
1, 95520, Note_on_c, 1, 69, 127
1, 95579, Note_off_c, 1, 57, 0
1, 95579, Note_off_c, 1, 45, 0
1, 95580, Note_on_c, 1, 59, 127
1, 95580, Note_on_c, 1, 47, 127
1, 95639, Note_off_c, 1, 59, 0
1, 95639, Note_off_c, 1, 47, 0
1, 95760, Note_off_c, 1, 64, 0
1, 95760, Note_off_c, 1, 73, 0
1, 95760, Note_on_c, 1, 62, 127
1, 95880, Note_on_c, 1, 50, 127
1, 95880, Note_on_c, 1, 38, 127
1, 95939, Note_off_c, 1, 50, 0
1, 95939, Note_off_c, 1, 38, 0
1, 95940, Note_on_c, 1, 74, 127
1, 95940, Note_on_c, 1, 35, 127
1, 95999, Note_off_c, 1, 74, 0
1, 95999, Note_off_c, 1, 35, 0
1, 96000, Note_off_c, 1, 69, 0
1, 96000, Note_off_c, 1, 62, 0
1, 96120, Note_on_c, 1, 49, 127
1, 96120, Note_on_c, 1, 37, 127
1, 96120, Note_on_c, 1, 61, 127
1, 96179, Note_off_c, 1, 49, 0
1, 96179, Note_off_c, 1, 37, 0
1, 96180, Note_on_c, 1, 33, 127
1, 96239, Note_off_c, 1, 33, 0
1, 96240, Note_off_c, 1, 61, 0
1, 96600, Note_on_c, 1, 56, 127
1, 96600, Note_on_c, 1, 44, 127
1, 96600, Note_on_c, 1, 68, 127
1, 96630, Note_on_c, 1, 78, 127
1, 96659, Note_off_c, 1, 56, 0
1, 96659, Note_off_c, 1, 44, 0
1, 96659, Note_off_c, 1, 78, 0
1, 96720, Note_off_c, 1, 68, 0
1, 96960, Note_on_c, 1, 81, 127
1, 97079, Note_off_c, 1, 81, 0
1, 97200, Note_on_c, 1, 74, 127
1, 97200, Note_on_c, 1, 59, 127
1, 97200, Note_on_c, 1, 47, 127
1, 97200, Note_on_c, 1, 62, 127
1, 97200, Note_on_c, 1, 71, 127
1, 97259, Note_off_c, 1, 59, 0
1, 97259, Note_off_c, 1, 47, 0
1, 97260, Note_on_c, 1, 57, 127
1, 97260, Note_on_c, 1, 45, 127
1, 97319, Note_off_c, 1, 62, 0
1, 97319, Note_off_c, 1, 71, 0
1, 97319, Note_off_c, 1, 57, 0
1, 97319, Note_off_c, 1, 45, 0
1, 97320, Note_on_c, 1, 64, 127
1, 97379, Note_off_c, 1, 74, 0
1, 97380, Note_on_c, 1, 76, 127
1, 97380, Note_on_c, 1, 55, 127
1, 97380, Note_on_c, 1, 43, 127
1, 97439, Note_off_c, 1, 64, 0
1, 97439, Note_off_c, 1, 76, 0
1, 97439, Note_off_c, 1, 55, 0
1, 97439, Note_off_c, 1, 43, 0
1, 97440, Note_on_c, 1, 69, 127
1, 97440, Note_on_c, 1, 57, 127
1, 97440, Note_on_c, 1, 45, 127
1, 97440, Note_on_c, 1, 64, 127
1, 97440, Note_on_c, 1, 61, 127
1, 97499, Note_off_c, 1, 57, 0
1, 97499, Note_off_c, 1, 45, 0
1, 97500, Note_on_c, 1, 79, 127
1, 97500, Note_on_c, 1, 55, 127
1, 97500, Note_on_c, 1, 43, 127
1, 97559, Note_off_c, 1, 69, 0
1, 97559, Note_off_c, 1, 64, 0
1, 97559, Note_off_c, 1, 61, 0
1, 97559, Note_off_c, 1, 79, 0
1, 97559, Note_off_c, 1, 55, 0
1, 97559, Note_off_c, 1, 43, 0
1, 97560, Note_on_c, 1, 78, 127
1, 97560, Note_on_c, 1, 57, 127
1, 97560, Note_on_c, 1, 45, 127
1, 97560, Note_on_c, 1, 69, 127
1, 97560, Note_on_c, 1, 64, 127
1, 97619, Note_off_c, 1, 78, 0
1, 97619, Note_off_c, 1, 57, 0
1, 97619, Note_off_c, 1, 45, 0
1, 97619, Note_off_c, 1, 69, 0
1, 97620, Note_on_c, 1, 76, 127
1, 97620, Note_on_c, 1, 33, 127
1, 97620, Note_on_c, 1, 67, 127
1, 97649, Note_off_c, 1, 76, 0
1, 97650, Note_on_c, 1, 74, 127
1, 97679, Note_off_c, 1, 64, 0
1, 97679, Note_off_c, 1, 33, 0
1, 97679, Note_off_c, 1, 67, 0
1, 97679, Note_off_c, 1, 74, 0
1, 97680, Note_on_c, 1, 74, 127
1, 97680, Note_on_c, 1, 50, 127
1, 97680, Note_on_c, 1, 38, 127
1, 97680, Note_on_c, 1, 66, 127
1, 97680, Note_on_c, 1, 62, 127
1, 97680, Note_on_c, 1, 57, 127
1, 97739, Note_off_c, 1, 50, 0
1, 97739, Note_off_c, 1, 38, 0
1, 97739, Note_off_c, 1, 66, 0
1, 97740, Note_on_c, 1, 52, 127
1, 97740, Note_on_c, 1, 40, 127
1, 97740, Note_on_c, 1, 67, 127
1, 97799, Note_off_c, 1, 74, 0
1, 97799, Note_off_c, 1, 62, 0
1, 97799, Note_off_c, 1, 57, 0
1, 97799, Note_off_c, 1, 52, 0
1, 97799, Note_off_c, 1, 40, 0
1, 97799, Note_off_c, 1, 67, 0
1, 97800, Note_on_c, 1, 74, 127
1, 97800, Note_on_c, 1, 54, 127
1, 97800, Note_on_c, 1, 42, 127
1, 97800, Note_on_c, 1, 69, 127
1, 97859, Note_off_c, 1, 54, 0
1, 97859, Note_off_c, 1, 42, 0
1, 97859, Note_off_c, 1, 69, 0
1, 97860, Note_on_c, 1, 50, 127
1, 97860, Note_on_c, 1, 38, 127
1, 97860, Note_on_c, 1, 66, 127
1, 97919, Note_off_c, 1, 74, 0
1, 97919, Note_off_c, 1, 50, 0
1, 97919, Note_off_c, 1, 38, 0
1, 97919, Note_off_c, 1, 66, 0
1, 97920, Note_on_c, 1, 47, 127
1, 97920, Note_on_c, 1, 35, 127
1, 97920, Note_on_c, 1, 62, 127
1, 97920, Note_on_c, 1, 59, 127
1, 97979, Note_off_c, 1, 47, 0
1, 97979, Note_off_c, 1, 35, 0
1, 97979, Note_off_c, 1, 62, 0
1, 97980, Note_on_c, 1, 49, 127
1, 97980, Note_on_c, 1, 37, 127
1, 97980, Note_on_c, 1, 64, 127
1, 98039, Note_off_c, 1, 59, 0
1, 98039, Note_off_c, 1, 49, 0
1, 98039, Note_off_c, 1, 37, 0
1, 98039, Note_off_c, 1, 64, 0
1, 98040, Note_on_c, 1, 47, 127
1, 98040, Note_on_c, 1, 35, 127
1, 98040, Note_on_c, 1, 62, 127
1, 98099, Note_off_c, 1, 47, 0
1, 98099, Note_off_c, 1, 35, 0
1, 98099, Note_off_c, 1, 62, 0
1, 98100, Note_on_c, 1, 45, 127
1, 98100, Note_on_c, 1, 33, 127
1, 98100, Note_on_c, 1, 61, 127
1, 98159, Note_off_c, 1, 45, 0
1, 98159, Note_off_c, 1, 33, 0
1, 98159, Note_off_c, 1, 61, 0
1, 98160, Note_on_c, 1, 43, 127
1, 98160, Note_on_c, 1, 31, 127
1, 98160, Note_on_c, 1, 67, 127
1, 98160, Note_on_c, 1, 62, 127
1, 98160, Note_on_c, 1, 59, 127
1, 98219, Note_off_c, 1, 43, 0
1, 98219, Note_off_c, 1, 31, 0
1, 98220, Note_on_c, 1, 42, 127
1, 98220, Note_on_c, 1, 30, 127
1, 98279, Note_off_c, 1, 42, 0
1, 98279, Note_off_c, 1, 30, 0
1, 98280, Note_off_c, 1, 67, 0
1, 98280, Note_off_c, 1, 62, 0
1, 98280, Note_off_c, 1, 59, 0
1, 98280, Note_on_c, 1, 61, 127
1, 98340, Note_on_c, 1, 45, 127
1, 98340, Note_on_c, 1, 33, 127
1, 98340, Note_on_c, 1, 66, 127
1, 98370, Note_off_c, 1, 66, 0
1, 98370, Note_on_c, 1, 64, 127
1, 98399, Note_off_c, 1, 45, 0
1, 98399, Note_off_c, 1, 33, 0
1, 98400, Note_off_c, 1, 61, 0
1, 98400, Note_off_c, 1, 64, 0
1, 98400, Note_on_c, 1, 38, 127
1, 98400, Note_on_c, 1, 26, 127
1, 98639, Note_off_c, 1, 38, 0
1, 98639, Note_off_c, 1, 26, 0
1, 98760, Note_on_c, 1, 69, 127
1, 98820, Note_on_c, 1, 74, 127
1, 98820, Note_on_c, 1, 50, 127
1, 98820, Note_on_c, 1, 66, 127
1, 98850, Note_on_c, 1, 73, 127
1, 98879, Note_off_c, 1, 50, 0
1, 98879, Note_off_c, 1, 73, 0
1, 98880, Note_on_c, 1, 54, 127
1, 98939, Note_off_c, 1, 54, 0
1, 98940, Note_on_c, 1, 57, 127
1, 98999, Note_off_c, 1, 57, 0
1, 99030, Note_on_c, 1, 78, 127
1, 99059, Note_off_c, 1, 78, 0
1, 99060, Note_on_c, 1, 76, 127
1, 99089, Note_off_c, 1, 76, 0
1, 99180, Note_off_c, 1, 74, 0
1, 99180, Note_off_c, 1, 66, 0
1, 99180, Note_on_c, 1, 49, 127
1, 99180, Note_on_c, 1, 64, 127
1, 99239, Note_off_c, 1, 49, 0
1, 99240, Note_on_c, 1, 52, 127
1, 99299, Note_off_c, 1, 52, 0
1, 99360, Note_off_c, 1, 64, 0
1, 99360, Note_on_c, 1, 67, 127
1, 99390, Note_on_c, 1, 79, 127
1, 99419, Note_off_c, 1, 79, 0
1, 99540, Note_off_c, 1, 67, 0
1, 99720, Note_on_c, 1, 62, 127
1, 99750, Note_on_c, 1, 81, 127
1, 99779, Note_off_c, 1, 81, 0
1, 99900, Note_off_c, 1, 62, 0
1, 99900, Note_on_c, 1, 45, 127
1, 99959, Note_off_c, 1, 45, 0
1, 99990, Note_on_c, 1, 56, 127
1, 100019, Note_off_c, 1, 56, 0
1, 100050, Note_on_c, 1, 71, 127
1, 100079, Note_off_c, 1, 71, 0
1, 100140, Note_on_c, 1, 47, 127
1, 100199, Note_off_c, 1, 69, 0
1, 100199, Note_off_c, 1, 47, 0
1, 100200, Note_on_c, 1, 76, 127
1, 100200, Note_on_c, 1, 45, 127
1, 100200, Note_on_c, 1, 71, 127
1, 100200, Note_on_c, 1, 61, 127
1, 100229, Note_off_c, 1, 71, 0
1, 100230, Note_on_c, 1, 69, 127
1, 100259, Note_off_c, 1, 76, 0
1, 100259, Note_off_c, 1, 45, 0
1, 100259, Note_off_c, 1, 61, 0
1, 100259, Note_off_c, 1, 69, 0
1, 100260, Note_on_c, 1, 67, 127
1, 100260, Note_on_c, 1, 47, 127
1, 100260, Note_on_c, 1, 62, 127
1, 100260, Note_on_c, 1, 71, 127
1, 100290, Note_on_c, 1, 66, 127
1, 100319, Note_off_c, 1, 47, 0
1, 100319, Note_off_c, 1, 66, 0
1, 100320, Note_on_c, 1, 50, 127
1, 100350, Note_on_c, 1, 76, 127
1, 100379, Note_off_c, 1, 50, 0
1, 100379, Note_off_c, 1, 76, 0
1, 100380, Note_on_c, 1, 74, 127
1, 100380, Note_on_c, 1, 55, 127
1, 100409, Note_off_c, 1, 74, 0
1, 100439, Note_off_c, 1, 55, 0
1, 100440, Note_off_c, 1, 62, 0
1, 100440, Note_off_c, 1, 71, 0
1, 100440, Note_on_c, 1, 49, 127
1, 100440, Note_on_c, 1, 73, 127
1, 100440, Note_on_c, 1, 69, 127
1, 100440, Note_on_c, 1, 64, 127
1, 100469, Note_off_c, 1, 67, 0
1, 100499, Note_off_c, 1, 49, 0
1, 100500, Note_on_c, 1, 52, 127
1, 100559, Note_off_c, 1, 52, 0
1, 100560, Note_on_c, 1, 57, 127
1, 100619, Note_off_c, 1, 57, 0
1, 100620, Note_off_c, 1, 73, 0
1, 100620, Note_off_c, 1, 64, 0
1, 100680, Note_on_c, 1, 54, 127
1, 100739, Note_off_c, 1, 54, 0
1, 100980, Note_off_c, 1, 69, 0
1, 101040, Note_on_c, 1, 59, 127
1, 101099, Note_off_c, 1, 59, 0
1, 101160, Note_on_c, 1, 56, 127
1, 101160, Note_on_c, 1, 68, 127
1, 101219, Note_off_c, 1, 56, 0
1, 101340, Note_off_c, 1, 68, 0
1, 101400, Note_on_c, 1, 61, 127
1, 101459, Note_off_c, 1, 61, 0
1, 101880, Note_on_c, 1, 79, 127
1, 101909, Note_off_c, 1, 79, 0
1, 101910, Note_on_c, 1, 78, 127
1, 101939, Note_off_c, 1, 78, 0
1, 101970, Note_on_c, 1, 83, 127
1, 101999, Note_off_c, 1, 83, 0
1, 102000, Note_on_c, 1, 81, 127
1, 102029, Note_off_c, 1, 81, 0
1, 102120, Note_on_c, 1, 79, 127
1, 102120, Note_on_c, 1, 59, 127
1, 102120, Note_on_c, 1, 67, 127
1, 102149, Note_off_c, 1, 79, 0
1, 102150, Note_on_c, 1, 78, 127
1, 102179, Note_off_c, 1, 59, 0
1, 102179, Note_off_c, 1, 67, 0
1, 102179, Note_off_c, 1, 78, 0
1, 102180, Note_on_c, 1, 76, 127
1, 102180, Note_on_c, 1, 55, 127
1, 102180, Note_on_c, 1, 64, 127
1, 102209, Note_off_c, 1, 76, 0
1, 102210, Note_on_c, 1, 74, 127
1, 102239, Note_off_c, 1, 55, 0
1, 102239, Note_off_c, 1, 64, 0
1, 102239, Note_off_c, 1, 74, 0
1, 102240, Note_on_c, 1, 81, 127
1, 102240, Note_on_c, 1, 54, 127
1, 102240, Note_on_c, 1, 66, 127
1, 102269, Note_off_c, 1, 54, 0
1, 102269, Note_off_c, 1, 66, 0
1, 102270, Note_on_c, 1, 52, 127
1, 102270, Note_on_c, 1, 67, 127
1, 102299, Note_off_c, 1, 81, 0
1, 102299, Note_off_c, 1, 52, 0
1, 102299, Note_off_c, 1, 67, 0
1, 102300, Note_on_c, 1, 69, 127
1, 102300, Note_on_c, 1, 54, 127
1, 102300, Note_on_c, 1, 66, 127
1, 102329, Note_off_c, 1, 54, 0
1, 102329, Note_off_c, 1, 66, 0
1, 102330, Note_on_c, 1, 55, 127
1, 102330, Note_on_c, 1, 64, 127
1, 102359, Note_off_c, 1, 69, 0
1, 102359, Note_off_c, 1, 55, 0
1, 102359, Note_off_c, 1, 64, 0
1, 102360, Note_on_c, 1, 73, 127
1, 102360, Note_on_c, 1, 57, 127
1, 102360, Note_on_c, 1, 61, 127
1, 102419, Note_off_c, 1, 73, 0
1, 102419, Note_off_c, 1, 57, 0
1, 102419, Note_off_c, 1, 61, 0
1, 102420, Note_on_c, 1, 74, 127
1, 102420, Note_on_c, 1, 50, 127
1, 102420, Note_on_c, 1, 62, 127
1, 102479, Note_off_c, 1, 50, 0
1, 102479, Note_off_c, 1, 62, 0
1, 102480, Note_on_c, 1, 54, 127
1, 102480, Note_on_c, 1, 69, 127
1, 102510, Note_off_c, 1, 69, 0
1, 102510, Note_on_c, 1, 67, 127
1, 102539, Note_off_c, 1, 54, 0
1, 102540, Note_off_c, 1, 67, 0
1, 102540, Note_on_c, 1, 57, 127
1, 102540, Note_on_c, 1, 66, 127
1, 102570, Note_off_c, 1, 66, 0
1, 102570, Note_on_c, 1, 64, 127
1, 102599, Note_off_c, 1, 57, 0
1, 102600, Note_off_c, 1, 64, 0
1, 102719, Note_off_c, 1, 74, 0
1, 102720, Note_on_c, 1, 69, 127
1, 102720, Note_on_c, 1, 74, 127
1, 102780, Note_on_c, 1, 50, 127
1, 102780, Note_on_c, 1, 66, 127
1, 102810, Note_on_c, 1, 73, 127
1, 102839, Note_off_c, 1, 50, 0
1, 102839, Note_off_c, 1, 73, 0
1, 102840, Note_on_c, 1, 54, 127
1, 102899, Note_off_c, 1, 54, 0
1, 102900, Note_on_c, 1, 57, 127
1, 102959, Note_off_c, 1, 57, 0
1, 102990, Note_on_c, 1, 78, 127
1, 103019, Note_off_c, 1, 78, 0
1, 103020, Note_on_c, 1, 76, 127
1, 103080, Note_off_c, 1, 76, 0
1, 103140, Note_off_c, 1, 74, 0
1, 103140, Note_off_c, 1, 66, 0
1, 103140, Note_on_c, 1, 49, 127
1, 103140, Note_on_c, 1, 64, 127
1, 103199, Note_off_c, 1, 49, 0
1, 103200, Note_on_c, 1, 52, 127
1, 103259, Note_off_c, 1, 52, 0
1, 103320, Note_off_c, 1, 64, 0
1, 103320, Note_on_c, 1, 67, 127
1, 103350, Note_on_c, 1, 79, 127
1, 103379, Note_off_c, 1, 79, 0
1, 103500, Note_off_c, 1, 67, 0
1, 103680, Note_on_c, 1, 62, 127
1, 103710, Note_on_c, 1, 81, 127
1, 103739, Note_off_c, 1, 81, 0
1, 103860, Note_off_c, 1, 62, 0
1, 103860, Note_on_c, 1, 45, 127
1, 103919, Note_off_c, 1, 45, 0
1, 103950, Note_on_c, 1, 56, 127
1, 103979, Note_off_c, 1, 56, 0
1, 104010, Note_on_c, 1, 71, 127
1, 104039, Note_off_c, 1, 71, 0
1, 104100, Note_on_c, 1, 47, 127
1, 104159, Note_off_c, 1, 47, 0
1, 104160, Note_off_c, 1, 69, 0
1, 104220, Note_on_c, 1, 74, 127
1, 104220, Note_on_c, 1, 78, 127
1, 104220, Note_on_c, 1, 50, 127
1, 104220, Note_on_c, 1, 69, 127
1, 104220, Note_on_c, 1, 66, 127
1, 104220, Note_on_c, 1, 62, 127
1, 104279, Note_off_c, 1, 74, 0
1, 104279, Note_off_c, 1, 78, 0
1, 104280, Note_on_c, 1, 76, 127
1, 104310, Note_off_c, 1, 76, 0
1, 104340, Note_off_c, 1, 50, 0
1, 104340, Note_off_c, 1, 69, 0
1, 104340, Note_off_c, 1, 66, 0
1, 104340, Note_off_c, 1, 62, 0
1, 104340, Note_on_c, 1, 81, 127
1, 104399, Note_off_c, 1, 81, 0
1, 104400, Note_on_c, 1, 74, 127
1, 104400, Note_on_c, 1, 78, 127
1, 104400, Note_on_c, 1, 47, 127
1, 104400, Note_on_c, 1, 71, 127
1, 104400, Note_on_c, 1, 66, 127
1, 104400, Note_on_c, 1, 62, 127
1, 104459, Note_off_c, 1, 74, 0
1, 104459, Note_off_c, 1, 78, 0
1, 104459, Note_off_c, 1, 47, 0
1, 104459, Note_off_c, 1, 71, 0
1, 104460, Note_on_c, 1, 45, 127
1, 104490, Note_on_c, 1, 69, 127
1, 104519, Note_off_c, 1, 45, 0
1, 104520, Note_off_c, 1, 66, 0
1, 104520, Note_off_c, 1, 62, 0
1, 104520, Note_off_c, 1, 69, 0
1, 104520, Note_on_c, 1, 83, 127
1, 104520, Note_on_c, 1, 44, 127
1, 104520, Note_on_c, 1, 68, 127
1, 104579, Note_off_c, 1, 83, 0
1, 104579, Note_off_c, 1, 44, 0
1, 104579, Note_off_c, 1, 68, 0
1, 104580, Note_on_c, 1, 73, 127
1, 104580, Note_on_c, 1, 76, 127
1, 104580, Note_on_c, 1, 49, 127
1, 104580, Note_on_c, 1, 69, 127
1, 104580, Note_on_c, 1, 64, 127
1, 104639, Note_off_c, 1, 76, 0
1, 104640, Note_on_c, 1, 74, 127
1, 104670, Note_off_c, 1, 74, 0
1, 104699, Note_off_c, 1, 49, 0
1, 104700, Note_off_c, 1, 73, 0
1, 104700, Note_off_c, 1, 69, 0
1, 104700, Note_off_c, 1, 64, 0
1, 104700, Note_on_c, 1, 83, 127
1, 104759, Note_off_c, 1, 83, 0
1, 104760, Note_on_c, 1, 73, 127
1, 104760, Note_on_c, 1, 76, 127
1, 104760, Note_on_c, 1, 45, 127
1, 104760, Note_on_c, 1, 64, 127
1, 104760, Note_on_c, 1, 69, 127
1, 104819, Note_off_c, 1, 73, 0
1, 104819, Note_off_c, 1, 76, 0
1, 104819, Note_off_c, 1, 45, 0
1, 104820, Note_on_c, 1, 44, 127
1, 104850, Note_on_c, 1, 71, 127
1, 104879, Note_off_c, 1, 64, 0
1, 104879, Note_off_c, 1, 69, 0
1, 104879, Note_off_c, 1, 44, 0
1, 104880, Note_off_c, 1, 71, 0
1, 104880, Note_on_c, 1, 81, 127
1, 104880, Note_on_c, 1, 42, 127
1, 104880, Note_on_c, 1, 66, 127
1, 104939, Note_off_c, 1, 81, 0
1, 104939, Note_off_c, 1, 42, 0
1, 104939, Note_off_c, 1, 66, 0
1, 104940, Note_on_c, 1, 71, 127
1, 104940, Note_on_c, 1, 74, 127
1, 104940, Note_on_c, 1, 47, 127
1, 104940, Note_on_c, 1, 66, 127
1, 104940, Note_on_c, 1, 62, 127
1, 104999, Note_off_c, 1, 74, 0
1, 105000, Note_on_c, 1, 76, 127
1, 105059, Note_off_c, 1, 71, 0
1, 105059, Note_off_c, 1, 47, 0
1, 105059, Note_off_c, 1, 66, 0
1, 105059, Note_off_c, 1, 62, 0
1, 105059, Note_off_c, 1, 76, 0
1, 105060, Note_on_c, 1, 81, 127
1, 105060, Note_on_c, 1, 78, 127
1, 105119, Note_off_c, 1, 81, 0
1, 105119, Note_off_c, 1, 78, 0
1, 105120, Note_on_c, 1, 71, 127
1, 105120, Note_on_c, 1, 76, 127
1, 105120, Note_on_c, 1, 44, 127
1, 105120, Note_on_c, 1, 64, 127
1, 105179, Note_off_c, 1, 71, 0
1, 105179, Note_off_c, 1, 76, 0
1, 105179, Note_off_c, 1, 44, 0
1, 105180, Note_on_c, 1, 74, 127
1, 105180, Note_on_c, 1, 78, 127
1, 105180, Note_on_c, 1, 42, 127
1, 105180, Note_on_c, 1, 69, 127
1, 105210, Note_off_c, 1, 78, 0
1, 105210, Note_off_c, 1, 69, 0
1, 105210, Note_on_c, 1, 68, 127
1, 105239, Note_off_c, 1, 64, 0
1, 105239, Note_off_c, 1, 74, 0
1, 105239, Note_off_c, 1, 42, 0
1, 105240, Note_off_c, 1, 68, 0
1, 105240, Note_on_c, 1, 80, 127
1, 105240, Note_on_c, 1, 40, 127
1, 105240, Note_on_c, 1, 66, 127
1, 105270, Note_off_c, 1, 66, 0
1, 105299, Note_off_c, 1, 80, 0
1, 105299, Note_off_c, 1, 40, 0
1, 105300, Note_on_c, 1, 73, 127
1, 105300, Note_on_c, 1, 45, 127
1, 105359, Note_off_c, 1, 45, 0
1, 105360, Note_on_c, 1, 54, 127
1, 105419, Note_off_c, 1, 73, 0
1, 105419, Note_off_c, 1, 54, 0
1, 105420, Note_on_c, 1, 50, 127
1, 105479, Note_off_c, 1, 50, 0
1, 105480, Note_on_c, 1, 71, 127
1, 105480, Note_on_c, 1, 52, 127
1, 105480, Note_on_c, 1, 64, 127
1, 105480, Note_on_c, 1, 68, 127
1, 105509, Note_off_c, 1, 52, 0
1, 105510, Note_on_c, 1, 54, 127
1, 105539, Note_off_c, 1, 64, 0
1, 105539, Note_off_c, 1, 68, 0
1, 105539, Note_off_c, 1, 54, 0
1, 105570, Note_on_c, 1, 50, 127
1, 105570, Note_on_c, 1, 66, 127
1, 105599, Note_off_c, 1, 50, 0
1, 105599, Note_off_c, 1, 66, 0
1, 105600, Note_off_c, 1, 71, 0
1, 105600, Note_on_c, 1, 69, 127
1, 105600, Note_on_c, 1, 49, 127
1, 105629, Note_off_c, 1, 49, 0
1, 105630, Note_on_c, 1, 47, 127
1, 105630, Note_on_c, 1, 62, 127
1, 105659, Note_off_c, 1, 69, 0
1, 105659, Note_off_c, 1, 47, 0
1, 105659, Note_off_c, 1, 62, 0
1, 105660, Note_on_c, 1, 69, 127
1, 105660, Note_on_c, 1, 64, 127
1, 105660, Note_on_c, 1, 45, 127
1, 105660, Note_on_c, 1, 61, 127
1, 105690, Note_on_c, 1, 68, 127
1, 105719, Note_off_c, 1, 45, 0
1, 105719, Note_off_c, 1, 68, 0
1, 105720, Note_on_c, 1, 49, 127
1, 105779, Note_off_c, 1, 49, 0
1, 105780, Note_on_c, 1, 52, 127
1, 105839, Note_off_c, 1, 52, 0
1, 105840, Note_off_c, 1, 61, 0
1, 105869, Note_off_c, 1, 64, 0
1, 105870, Note_on_c, 1, 73, 127
1, 105899, Note_off_c, 1, 69, 0
1, 105899, Note_off_c, 1, 73, 0
1, 105900, Note_on_c, 1, 71, 127
1, 105959, Note_off_c, 1, 71, 0
1, 106020, Note_on_c, 1, 44, 127
1, 106079, Note_off_c, 1, 44, 0
1, 106080, Note_on_c, 1, 47, 127
1, 106139, Note_off_c, 1, 47, 0
1, 106230, Note_on_c, 1, 74, 127
1, 106259, Note_off_c, 1, 74, 0
1, 106320, Note_on_c, 1, 69, 127
1, 106320, Note_on_c, 1, 74, 127
1, 106320, Note_on_c, 1, 52, 127
1, 106320, Note_on_c, 1, 68, 127
1, 106349, Note_off_c, 1, 69, 0
1, 106350, Note_on_c, 1, 71, 127
1, 106379, Note_off_c, 1, 74, 0
1, 106379, Note_off_c, 1, 52, 0
1, 106379, Note_off_c, 1, 68, 0
1, 106379, Note_off_c, 1, 71, 0
1, 106380, Note_on_c, 1, 73, 127
1, 106380, Note_on_c, 1, 45, 127
1, 106380, Note_on_c, 1, 69, 127
1, 106380, Note_on_c, 1, 64, 127
1, 106410, Note_on_c, 1, 71, 127
1, 106439, Note_off_c, 1, 71, 0
1, 106499, Note_off_c, 1, 45, 0
1, 106499, Note_off_c, 1, 64, 0
1, 106500, Note_off_c, 1, 73, 0
1, 106500, Note_off_c, 1, 69, 0
1, 106500, Note_on_c, 1, 68, 127
1, 106500, Note_on_c, 1, 47, 127
1, 106530, Note_on_c, 1, 66, 127
1, 106559, Note_off_c, 1, 68, 0
1, 106559, Note_off_c, 1, 47, 0
1, 106560, Note_off_c, 1, 66, 0
1, 106560, Note_on_c, 1, 49, 127
1, 106590, Note_on_c, 1, 76, 127
1, 106619, Note_off_c, 1, 76, 0
1, 106620, Note_on_c, 1, 74, 127
1, 106649, Note_off_c, 1, 74, 0
1, 106679, Note_off_c, 1, 49, 0
1, 106680, Note_on_c, 1, 50, 127
1, 106739, Note_off_c, 1, 50, 0
1, 106740, Note_on_c, 1, 81, 127
1, 106740, Note_on_c, 1, 52, 127
1, 106799, Note_off_c, 1, 81, 0
1, 106799, Note_off_c, 1, 52, 0
1, 106800, Note_on_c, 1, 83, 127
1, 106859, Note_off_c, 1, 83, 0
1, 106860, Note_on_c, 1, 80, 127
1, 106919, Note_off_c, 1, 80, 0
1, 107100, Note_on_c, 1, 74, 127
1, 107100, Note_on_c, 1, 47, 127
1, 107100, Note_on_c, 1, 71, 127
1, 107100, Note_on_c, 1, 66, 127
1, 107100, Note_on_c, 1, 62, 127
1, 107129, Note_off_c, 1, 74, 0
1, 107130, Note_on_c, 1, 73, 127
1, 107159, Note_off_c, 1, 47, 0
1, 107159, Note_off_c, 1, 73, 0
1, 107160, Note_on_c, 1, 50, 127
1, 107190, Note_on_c, 1, 83, 127
1, 107219, Note_off_c, 1, 50, 0
1, 107219, Note_off_c, 1, 83, 0
1, 107220, Note_on_c, 1, 81, 127
1, 107220, Note_on_c, 1, 54, 127
1, 107249, Note_off_c, 1, 81, 0
1, 107279, Note_off_c, 1, 54, 0
1, 107280, Note_off_c, 1, 66, 0
1, 107280, Note_off_c, 1, 62, 0
1, 107280, Note_on_c, 1, 44, 127
1, 107280, Note_on_c, 1, 68, 127
1, 107280, Note_on_c, 1, 64, 127
1, 107339, Note_off_c, 1, 44, 0
1, 107400, Note_on_c, 1, 52, 127
1, 107459, Note_off_c, 1, 52, 0
1, 107460, Note_off_c, 1, 71, 0
1, 107460, Note_off_c, 1, 68, 0
1, 107460, Note_on_c, 1, 45, 127
1, 107460, Note_on_c, 1, 69, 127
1, 107460, Note_on_c, 1, 61, 127
1, 107519, Note_off_c, 1, 45, 0
1, 107520, Note_on_c, 1, 49, 127
1, 107579, Note_off_c, 1, 49, 0
1, 107580, Note_on_c, 1, 80, 127
1, 107609, Note_off_c, 1, 80, 0
1, 107760, Note_on_c, 1, 57, 127
1, 107819, Note_off_c, 1, 57, 0
1, 107820, Note_off_c, 1, 64, 0
1, 107820, Note_off_c, 1, 61, 0
1, 108000, Note_off_c, 1, 69, 0
1, 108000, Note_on_c, 1, 51, 127
1, 108000, Note_on_c, 1, 63, 127
1, 108059, Note_off_c, 1, 51, 0
1, 108120, Note_on_c, 1, 59, 127
1, 108179, Note_off_c, 1, 59, 0
1, 108180, Note_off_c, 1, 63, 0
1, 108240, Note_on_c, 1, 56, 127
1, 108299, Note_off_c, 1, 56, 0
1, 108570, Note_on_c, 1, 78, 127
1, 108599, Note_off_c, 1, 78, 0
1, 108840, Note_on_c, 1, 76, 127
1, 108869, Note_off_c, 1, 76, 0
1, 109140, Note_on_c, 1, 64, 127
1, 109140, Note_on_c, 1, 49, 127
1, 109140, Note_on_c, 1, 73, 127
1, 109169, Note_off_c, 1, 49, 0
1, 109169, Note_off_c, 1, 73, 0
1, 109170, Note_on_c, 1, 50, 127
1, 109170, Note_on_c, 1, 71, 127
1, 109199, Note_off_c, 1, 64, 0
1, 109199, Note_off_c, 1, 50, 0
1, 109199, Note_off_c, 1, 71, 0
1, 109200, Note_on_c, 1, 68, 127
1, 109200, Note_on_c, 1, 52, 127
1, 109200, Note_on_c, 1, 71, 127
1, 109200, Note_on_c, 1, 64, 127
1, 109259, Note_off_c, 1, 52, 0
1, 109260, Note_off_c, 1, 68, 0
1, 109260, Note_off_c, 1, 71, 0
1, 109260, Note_on_c, 1, 69, 127
1, 109260, Note_on_c, 1, 45, 127
1, 109260, Note_on_c, 1, 61, 127
1, 109319, Note_off_c, 1, 45, 0
1, 109320, Note_on_c, 1, 49, 127
1, 109379, Note_off_c, 1, 49, 0
1, 109440, Note_off_c, 1, 61, 0
1, 109440, Note_on_c, 1, 57, 127
1, 109440, Note_on_c, 1, 73, 127
1, 109499, Note_off_c, 1, 57, 0
1, 109530, Note_on_c, 1, 47, 127
1, 109559, Note_off_c, 1, 47, 0
1, 109560, Note_on_c, 1, 76, 127
1, 109620, Note_off_c, 1, 64, 0
1, 109620, Note_off_c, 1, 69, 0
1, 109620, Note_off_c, 1, 73, 0
1, 109620, Note_off_c, 1, 76, 0
1, 109620, Note_on_c, 1, 78, 127
1, 109620, Note_on_c, 1, 50, 127
1, 109620, Note_on_c, 1, 62, 127
1, 109620, Note_on_c, 1, 66, 127
1, 109679, Note_off_c, 1, 50, 0
1, 109679, Note_off_c, 1, 62, 0
1, 109679, Note_off_c, 1, 66, 0
1, 109680, Note_off_c, 1, 78, 0
1, 109680, Note_on_c, 1, 54, 127
1, 109710, Note_on_c, 1, 74, 127
1, 109739, Note_off_c, 1, 54, 0
1, 109739, Note_off_c, 1, 74, 0
1, 109740, Note_on_c, 1, 73, 127
1, 109740, Note_on_c, 1, 76, 127
1, 109740, Note_on_c, 1, 57, 127
1, 109740, Note_on_c, 1, 64, 127
1, 109769, Note_off_c, 1, 64, 0
1, 109770, Note_on_c, 1, 61, 127
1, 109799, Note_off_c, 1, 57, 0
1, 109799, Note_off_c, 1, 61, 0
1, 109800, Note_off_c, 1, 73, 0
1, 109800, Note_off_c, 1, 76, 0
1, 109800, Note_on_c, 1, 69, 127
1, 109800, Note_on_c, 1, 78, 127
1, 109800, Note_on_c, 1, 50, 127
1, 109800, Note_on_c, 1, 62, 127
1, 109800, Note_on_c, 1, 66, 127
1, 109859, Note_off_c, 1, 50, 0
1, 109860, Note_off_c, 1, 78, 0
1, 109860, Note_on_c, 1, 74, 127
1, 109860, Note_on_c, 1, 54, 127
1, 109889, Note_off_c, 1, 54, 0
1, 109890, Note_on_c, 1, 52, 127
1, 109919, Note_off_c, 1, 52, 0
1, 109980, Note_off_c, 1, 69, 0
1, 109980, Note_off_c, 1, 62, 0
1, 109980, Note_off_c, 1, 66, 0
1, 109980, Note_off_c, 1, 74, 0
1, 109980, Note_on_c, 1, 71, 127
1, 109980, Note_on_c, 1, 55, 127
1, 109980, Note_on_c, 1, 67, 127
1, 110039, Note_off_c, 1, 55, 0
1, 110039, Note_off_c, 1, 67, 0
1, 110040, Note_off_c, 1, 71, 0
1, 110040, Note_on_c, 1, 59, 127
1, 110099, Note_off_c, 1, 59, 0
1, 110100, Note_on_c, 1, 66, 127
1, 110100, Note_on_c, 1, 69, 127
1, 110100, Note_on_c, 1, 62, 127
1, 110159, Note_off_c, 1, 62, 0
1, 110160, Note_off_c, 1, 66, 0
1, 110160, Note_off_c, 1, 69, 0
1, 110160, Note_on_c, 1, 71, 127
1, 110160, Note_on_c, 1, 55, 127
1, 110160, Note_on_c, 1, 67, 127
1, 110219, Note_off_c, 1, 55, 0
1, 110220, Note_on_c, 1, 59, 127
1, 110249, Note_off_c, 1, 59, 0
1, 110250, Note_on_c, 1, 57, 127
1, 110279, Note_off_c, 1, 57, 0
1, 110340, Note_off_c, 1, 71, 0
1, 110340, Note_on_c, 1, 76, 127
1, 110340, Note_on_c, 1, 52, 127
1, 110340, Note_on_c, 1, 64, 127
1, 110369, Note_off_c, 1, 76, 0
1, 110370, Note_on_c, 1, 75, 127
1, 110399, Note_off_c, 1, 52, 0
1, 110399, Note_off_c, 1, 75, 0
1, 110460, Note_on_c, 1, 78, 127
1, 110520, Note_off_c, 1, 78, 0
1, 110520, Note_on_c, 1, 79, 127
1, 110550, Note_on_c, 1, 51, 127
1, 110579, Note_off_c, 1, 51, 0
1, 110610, Note_off_c, 1, 79, 0
1, 110610, Note_on_c, 1, 54, 127
1, 110639, Note_off_c, 1, 54, 0
1, 110640, Note_off_c, 1, 64, 0
1, 110700, Note_off_c, 1, 67, 0
1, 110700, Note_on_c, 1, 74, 127
1, 110760, Note_off_c, 1, 74, 0
1, 110760, Note_on_c, 1, 73, 127
1, 110760, Note_on_c, 1, 56, 127
1, 110819, Note_off_c, 1, 73, 0
1, 110819, Note_off_c, 1, 56, 0
1, 110820, Note_on_c, 1, 68, 127
1, 110820, Note_on_c, 1, 76, 127
1, 110820, Note_on_c, 1, 52, 127
1, 110820, Note_on_c, 1, 64, 127
1, 110879, Note_off_c, 1, 52, 0
1, 110879, Note_off_c, 1, 64, 0
1, 110880, Note_off_c, 1, 68, 0
1, 110880, Note_off_c, 1, 76, 0
1, 110880, Note_on_c, 1, 73, 127
1, 110880, Note_on_c, 1, 57, 127
1, 110880, Note_on_c, 1, 69, 127
1, 110939, Note_off_c, 1, 57, 0
1, 110940, Note_on_c, 1, 45, 127
1, 110999, Note_off_c, 1, 45, 0
1, 111000, Note_off_c, 1, 73, 0
1, 111000, Note_on_c, 1, 74, 127
1, 111060, Note_on_c, 1, 50, 127
1, 111060, Note_on_c, 1, 62, 127
1, 111060, Note_on_c, 1, 66, 127
1, 111089, Note_off_c, 1, 74, 0
1, 111119, Note_off_c, 1, 50, 0
1, 111120, Note_on_c, 1, 54, 127
1, 111179, Note_off_c, 1, 54, 0
1, 111270, Note_on_c, 1, 78, 127
1, 111299, Note_off_c, 1, 78, 0
1, 111420, Note_off_c, 1, 62, 0
1, 111420, Note_off_c, 1, 66, 0
1, 111420, Note_on_c, 1, 49, 127
1, 111420, Note_on_c, 1, 61, 127
1, 111479, Note_off_c, 1, 49, 0
1, 111600, Note_off_c, 1, 61, 0
1, 111630, Note_on_c, 1, 79, 127
1, 111659, Note_off_c, 1, 79, 0
1, 111899, Note_off_c, 1, 69, 0
1, 111900, Note_on_c, 1, 69, 127
1, 111900, Note_on_c, 1, 73, 127
1, 111900, Note_on_c, 1, 52, 127
1, 111900, Note_on_c, 1, 64, 127
1, 111930, Note_on_c, 1, 71, 127
1, 111959, Note_off_c, 1, 73, 0
1, 111959, Note_off_c, 1, 52, 0
1, 111959, Note_off_c, 1, 64, 0
1, 111959, Note_off_c, 1, 71, 0
1, 111960, Note_on_c, 1, 54, 127
1, 111960, Note_on_c, 1, 66, 127
1, 111990, Note_on_c, 1, 81, 127
1, 112019, Note_off_c, 1, 81, 0
1, 112020, Note_on_c, 1, 79, 127
1, 112049, Note_off_c, 1, 79, 0
1, 112050, Note_on_c, 1, 78, 127
1, 112079, Note_off_c, 1, 69, 0
1, 112079, Note_off_c, 1, 54, 0
1, 112079, Note_off_c, 1, 66, 0
1, 112079, Note_off_c, 1, 78, 0
1, 112080, Note_on_c, 1, 76, 127
1, 112080, Note_on_c, 1, 67, 127
1, 112080, Note_on_c, 1, 55, 127
1, 112080, Note_on_c, 1, 64, 127
1, 112109, Note_off_c, 1, 76, 0
1, 112110, Note_on_c, 1, 78, 127
1, 112110, Note_on_c, 1, 69, 127
1, 112139, Note_off_c, 1, 67, 0
1, 112139, Note_off_c, 1, 55, 0
1, 112139, Note_off_c, 1, 64, 0
1, 112139, Note_off_c, 1, 78, 0
1, 112139, Note_off_c, 1, 69, 0
1, 112140, Note_on_c, 1, 74, 127
1, 112140, Note_on_c, 1, 66, 127
1, 112140, Note_on_c, 1, 57, 127
1, 112199, Note_off_c, 1, 57, 0
1, 112200, Note_on_c, 1, 69, 127
1, 112200, Note_on_c, 1, 55, 127
1, 112200, Note_on_c, 1, 62, 127
1, 112229, Note_off_c, 1, 69, 0
1, 112230, Note_on_c, 1, 67, 127
1, 112259, Note_off_c, 1, 66, 0
1, 112259, Note_off_c, 1, 55, 0
1, 112259, Note_off_c, 1, 62, 0
1, 112259, Note_off_c, 1, 67, 0
1, 112260, Note_off_c, 1, 74, 0
1, 112260, Note_on_c, 1, 73, 127
1, 112260, Note_on_c, 1, 64, 127
1, 112319, Note_off_c, 1, 64, 0
1, 112320, Note_off_c, 1, 73, 0
1, 112320, Note_on_c, 1, 50, 127
1, 112440, Note_off_c, 1, 50, 0
1, 112560, Note_on_c, 1, 54, 127
1, 112619, Note_off_c, 1, 54, 0
1, 112710, Note_on_c, 1, 78, 127
1, 112739, Note_off_c, 1, 78, 0
1, 112740, Note_on_c, 1, 76, 127
1, 112769, Note_off_c, 1, 76, 0
1, 112860, Note_on_c, 1, 49, 127
1, 112919, Note_off_c, 1, 49, 0
1, 112920, Note_on_c, 1, 52, 127
1, 112979, Note_off_c, 1, 52, 0
1, 113070, Note_on_c, 1, 79, 127
1, 113099, Note_off_c, 1, 79, 0
1, 113430, Note_on_c, 1, 81, 127
1, 113459, Note_off_c, 1, 81, 0
1, 113580, Note_on_c, 1, 45, 127
1, 113639, Note_off_c, 1, 45, 0
1, 113670, Note_on_c, 1, 56, 127
1, 113699, Note_off_c, 1, 56, 0
1, 113730, Note_on_c, 1, 71, 127
1, 113759, Note_off_c, 1, 71, 0
1, 113820, Note_on_c, 1, 47, 127
1, 113879, Note_off_c, 1, 47, 0
1, 113880, Note_on_c, 1, 76, 127
1, 113880, Note_on_c, 1, 45, 127
1, 113880, Note_on_c, 1, 71, 127
1, 113880, Note_on_c, 1, 61, 127
1, 113909, Note_off_c, 1, 71, 0
1, 113910, Note_on_c, 1, 69, 127
1, 113939, Note_off_c, 1, 76, 0
1, 113939, Note_off_c, 1, 45, 0
1, 113939, Note_off_c, 1, 61, 0
1, 113939, Note_off_c, 1, 69, 0
1, 113940, Note_on_c, 1, 67, 127
1, 113940, Note_on_c, 1, 47, 127
1, 113940, Note_on_c, 1, 62, 127
1, 113940, Note_on_c, 1, 71, 127
1, 113970, Note_on_c, 1, 66, 127
1, 113999, Note_off_c, 1, 47, 0
1, 113999, Note_off_c, 1, 66, 0
1, 114000, Note_on_c, 1, 50, 127
1, 114030, Note_on_c, 1, 76, 127
1, 114059, Note_off_c, 1, 50, 0
1, 114059, Note_off_c, 1, 76, 0
1, 114060, Note_on_c, 1, 74, 127
1, 114060, Note_on_c, 1, 55, 127
1, 114089, Note_off_c, 1, 74, 0
1, 114119, Note_off_c, 1, 55, 0
1, 114120, Note_off_c, 1, 62, 0
1, 114120, Note_off_c, 1, 71, 0
1, 114120, Note_on_c, 1, 49, 127
1, 114120, Note_on_c, 1, 73, 127
1, 114120, Note_on_c, 1, 69, 127
1, 114120, Note_on_c, 1, 64, 127
1, 114149, Note_off_c, 1, 67, 0
1, 114179, Note_off_c, 1, 49, 0
1, 114180, Note_on_c, 1, 52, 127
1, 114239, Note_off_c, 1, 52, 0
1, 114240, Note_on_c, 1, 57, 127
1, 114299, Note_off_c, 1, 57, 0
1, 114300, Note_off_c, 1, 73, 0
1, 114300, Note_off_c, 1, 64, 0
1, 114360, Note_on_c, 1, 54, 127
1, 114419, Note_off_c, 1, 54, 0
1, 114660, Note_off_c, 1, 69, 0
1, 114720, Note_on_c, 1, 59, 127
1, 114779, Note_off_c, 1, 59, 0
1, 114840, Note_on_c, 1, 56, 127
1, 114840, Note_on_c, 1, 68, 127
1, 114899, Note_off_c, 1, 56, 0
1, 115020, Note_off_c, 1, 68, 0
1, 115080, Note_on_c, 1, 61, 127
1, 115139, Note_off_c, 1, 61, 0
1, 115560, Note_on_c, 1, 79, 127
1, 115589, Note_off_c, 1, 79, 0
1, 115590, Note_on_c, 1, 78, 127
1, 115619, Note_off_c, 1, 78, 0
1, 115650, Note_on_c, 1, 83, 127
1, 115679, Note_off_c, 1, 83, 0
1, 115680, Note_on_c, 1, 81, 127
1, 115709, Note_off_c, 1, 81, 0
1, 115800, Note_on_c, 1, 79, 127
1, 115800, Note_on_c, 1, 59, 127
1, 115800, Note_on_c, 1, 67, 127
1, 115829, Note_off_c, 1, 79, 0
1, 115830, Note_on_c, 1, 78, 127
1, 115859, Note_off_c, 1, 59, 0
1, 115859, Note_off_c, 1, 67, 0
1, 115859, Note_off_c, 1, 78, 0
1, 115860, Note_on_c, 1, 76, 127
1, 115860, Note_on_c, 1, 55, 127
1, 115860, Note_on_c, 1, 64, 127
1, 115889, Note_off_c, 1, 76, 0
1, 115890, Note_on_c, 1, 74, 127
1, 115919, Note_off_c, 1, 55, 0
1, 115919, Note_off_c, 1, 64, 0
1, 115919, Note_off_c, 1, 74, 0
1, 115920, Note_on_c, 1, 81, 127
1, 115920, Note_on_c, 1, 54, 127
1, 115920, Note_on_c, 1, 66, 127
1, 115949, Note_off_c, 1, 54, 0
1, 115949, Note_off_c, 1, 66, 0
1, 115950, Note_on_c, 1, 52, 127
1, 115950, Note_on_c, 1, 67, 127
1, 115979, Note_off_c, 1, 81, 0
1, 115979, Note_off_c, 1, 52, 0
1, 115979, Note_off_c, 1, 67, 0
1, 115980, Note_on_c, 1, 69, 127
1, 115980, Note_on_c, 1, 54, 127
1, 115980, Note_on_c, 1, 66, 127
1, 116009, Note_off_c, 1, 54, 0
1, 116009, Note_off_c, 1, 66, 0
1, 116010, Note_on_c, 1, 55, 127
1, 116010, Note_on_c, 1, 64, 127
1, 116039, Note_off_c, 1, 69, 0
1, 116039, Note_off_c, 1, 55, 0
1, 116039, Note_off_c, 1, 64, 0
1, 116040, Note_on_c, 1, 73, 127
1, 116040, Note_on_c, 1, 57, 127
1, 116040, Note_on_c, 1, 61, 127
1, 116099, Note_off_c, 1, 73, 0
1, 116099, Note_off_c, 1, 57, 0
1, 116099, Note_off_c, 1, 61, 0
1, 116100, Note_on_c, 1, 74, 127
1, 116100, Note_on_c, 1, 50, 127
1, 116100, Note_on_c, 1, 62, 127
1, 116159, Note_off_c, 1, 50, 0
1, 116159, Note_off_c, 1, 62, 0
1, 116160, Note_on_c, 1, 42, 127
1, 116160, Note_on_c, 1, 69, 127
1, 116190, Note_off_c, 1, 69, 0
1, 116190, Note_on_c, 1, 67, 127
1, 116219, Note_off_c, 1, 42, 0
1, 116220, Note_off_c, 1, 67, 0
1, 116220, Note_on_c, 1, 45, 127
1, 116220, Note_on_c, 1, 66, 127
1, 116250, Note_off_c, 1, 66, 0
1, 116250, Note_on_c, 1, 64, 127
1, 116279, Note_off_c, 1, 45, 0
1, 116280, Note_off_c, 1, 64, 0
1, 116280, Note_on_c, 1, 38, 127
1, 116399, Note_off_c, 1, 74, 0
1, 116399, Note_off_c, 1, 38, 0
1, 116400, Note_on_c, 1, 73, 127
1, 116400, Note_on_c, 1, 54, 127
1, 116400, Note_on_c, 1, 66, 127
1, 116400, Note_on_c, 1, 70, 127
1, 116459, Note_off_c, 1, 73, 0
1, 116459, Note_off_c, 1, 54, 0
1, 116459, Note_off_c, 1, 66, 0
1, 116459, Note_off_c, 1, 70, 0
1, 116460, Note_on_c, 1, 74, 127
1, 116460, Note_on_c, 1, 47, 127
1, 116460, Note_on_c, 1, 71, 127
1, 116460, Note_on_c, 1, 66, 127
1, 116519, Note_off_c, 1, 47, 0
1, 116520, Note_on_c, 1, 78, 127
1, 116520, Note_on_c, 1, 50, 127
1, 116550, Note_off_c, 1, 78, 0
1, 116550, Note_on_c, 1, 76, 127
1, 116579, Note_off_c, 1, 50, 0
1, 116580, Note_off_c, 1, 76, 0
1, 116580, Note_on_c, 1, 54, 127
1, 116610, Note_on_c, 1, 73, 127
1, 116639, Note_off_c, 1, 54, 0
1, 116640, Note_off_c, 1, 73, 0
1, 116640, Note_on_c, 1, 59, 127
1, 116699, Note_off_c, 1, 74, 0
1, 116699, Note_off_c, 1, 71, 0
1, 116699, Note_off_c, 1, 66, 0
1, 116699, Note_off_c, 1, 59, 0
1, 116700, Note_on_c, 1, 71, 127
1, 116700, Note_on_c, 1, 56, 127
1, 116700, Note_on_c, 1, 76, 127
1, 116729, Note_off_c, 1, 56, 0
1, 116730, Note_off_c, 1, 76, 0
1, 116730, Note_on_c, 1, 54, 127
1, 116730, Note_on_c, 1, 74, 127
1, 116759, Note_off_c, 1, 71, 0
1, 116759, Note_off_c, 1, 54, 0
1, 116760, Note_on_c, 1, 73, 127
1, 116790, Note_off_c, 1, 73, 0
1, 116790, Note_on_c, 1, 52, 127
1, 116819, Note_off_c, 1, 74, 0
1, 116819, Note_off_c, 1, 52, 0
1, 116820, Note_on_c, 1, 45, 127
1, 116820, Note_on_c, 1, 69, 127
1, 116820, Note_on_c, 1, 64, 127
1, 116879, Note_off_c, 1, 45, 0
1, 116880, Note_on_c, 1, 49, 127
1, 116939, Note_off_c, 1, 49, 0
1, 117000, Note_on_c, 1, 57, 127
1, 117059, Note_off_c, 1, 69, 0
1, 117059, Note_off_c, 1, 64, 0
1, 117059, Note_off_c, 1, 57, 0
1, 117060, Note_on_c, 1, 69, 127
1, 117060, Note_on_c, 1, 49, 127
1, 117089, Note_off_c, 1, 49, 0
1, 117090, Note_on_c, 1, 47, 127
1, 117090, Note_on_c, 1, 68, 127
1, 117119, Note_off_c, 1, 69, 0
1, 117119, Note_off_c, 1, 47, 0
1, 117119, Note_off_c, 1, 68, 0
1, 117120, Note_on_c, 1, 73, 127
1, 117120, Note_on_c, 1, 49, 127
1, 117120, Note_on_c, 1, 66, 127
1, 117149, Note_off_c, 1, 49, 0
1, 117149, Note_off_c, 1, 66, 0
1, 117150, Note_on_c, 1, 45, 127
1, 117150, Note_on_c, 1, 64, 127
1, 117179, Note_off_c, 1, 73, 0
1, 117179, Note_off_c, 1, 45, 0
1, 117179, Note_off_c, 1, 64, 0
1, 117180, Note_on_c, 1, 78, 127
1, 117180, Note_on_c, 1, 47, 127
1, 117180, Note_on_c, 1, 71, 127
1, 117180, Note_on_c, 1, 66, 127
1, 117180, Note_on_c, 1, 62, 127
1, 117210, Note_off_c, 1, 78, 0
1, 117210, Note_on_c, 1, 74, 127
1, 117239, Note_off_c, 1, 47, 0
1, 117240, Note_off_c, 1, 74, 0
1, 117240, Note_on_c, 1, 73, 127
1, 117240, Note_on_c, 1, 50, 127
1, 117270, Note_off_c, 1, 73, 0
1, 117299, Note_off_c, 1, 50, 0
1, 117300, Note_off_c, 1, 71, 0
1, 117300, Note_off_c, 1, 66, 0
1, 117300, Note_off_c, 1, 62, 0
1, 117300, Note_on_c, 1, 69, 127
1, 117300, Note_on_c, 1, 56, 127
1, 117300, Note_on_c, 1, 64, 127
1, 117300, Note_on_c, 1, 68, 127
1, 117330, Note_off_c, 1, 69, 0
1, 117359, Note_off_c, 1, 56, 0
1, 117359, Note_off_c, 1, 64, 0
1, 117360, Note_off_c, 1, 68, 0
1, 117360, Note_on_c, 1, 45, 127
1, 117419, Note_off_c, 1, 45, 0
1, 117420, Note_on_c, 1, 49, 127
1, 117479, Note_off_c, 1, 49, 0
1, 117480, Note_on_c, 1, 54, 127
1, 117480, Note_on_c, 1, 61, 127
1, 117539, Note_off_c, 1, 54, 0
1, 117539, Note_off_c, 1, 61, 0
1, 117540, Note_on_c, 1, 44, 127
1, 117540, Note_on_c, 1, 65, 127
1, 117599, Note_off_c, 1, 44, 0
1, 117690, Note_on_c, 1, 42, 127
1, 117719, Note_off_c, 1, 42, 0
1, 117720, Note_on_c, 1, 77, 127
1, 117840, Note_off_c, 1, 77, 0
1, 117900, Note_off_c, 1, 65, 0
1, 118110, Note_on_c, 1, 81, 127
1, 118139, Note_off_c, 1, 81, 0
1, 118140, Note_on_c, 1, 80, 127
1, 118169, Note_off_c, 1, 80, 0
1, 118260, Note_on_c, 1, 41, 127
1, 118319, Note_off_c, 1, 41, 0
1, 118470, Note_on_c, 1, 83, 127
1, 118499, Note_off_c, 1, 83, 0
1, 118620, Note_on_c, 1, 70, 127
1, 118739, Note_off_c, 1, 70, 0
1, 118770, Note_on_c, 1, 76, 127
1, 118799, Note_off_c, 1, 76, 0
1, 118800, Note_on_c, 1, 59, 127
1, 118919, Note_off_c, 1, 59, 0
1, 119220, Note_on_c, 1, 57, 127
1, 119279, Note_off_c, 1, 57, 0
1, 119340, Note_on_c, 1, 51, 127
1, 119340, Note_on_c, 1, 63, 127
1, 119399, Note_off_c, 1, 51, 0
1, 119520, Note_off_c, 1, 63, 0
1, 119520, Note_on_c, 1, 53, 127
1, 119579, Note_off_c, 1, 53, 0
1, 120240, Note_on_c, 1, 48, 127
1, 120240, Note_on_c, 1, 72, 127
1, 120299, Note_off_c, 1, 48, 0
1, 120420, Note_off_c, 1, 72, 0
1, 120810, Note_on_c, 1, 75, 127
1, 120839, Note_off_c, 1, 75, 0
1, 121740, Note_on_c, 1, 57, 127
1, 121769, Note_off_c, 1, 57, 0
1, 121770, Note_on_c, 1, 56, 127
1, 121799, Note_off_c, 1, 56, 0
1, 121800, Note_on_c, 1, 69, 127
1, 121800, Note_on_c, 1, 57, 127
1, 121800, Note_on_c, 1, 66, 127
1, 121829, Note_off_c, 1, 57, 0
1, 121830, Note_on_c, 1, 54, 127
1, 121859, Note_off_c, 1, 54, 0
1, 121860, Note_off_c, 1, 69, 0
1, 121860, Note_off_c, 1, 66, 0
1, 121860, Note_on_c, 1, 68, 127
1, 121860, Note_on_c, 1, 53, 127
1, 121860, Note_on_c, 1, 65, 127
1, 121919, Note_off_c, 1, 53, 0
1, 121920, Note_off_c, 1, 68, 0
1, 121920, Note_off_c, 1, 65, 0
1, 121920, Note_on_c, 1, 73, 127
1, 121920, Note_on_c, 1, 56, 127
1, 121950, Note_off_c, 1, 73, 0
1, 121950, Note_on_c, 1, 71, 127
1, 121979, Note_off_c, 1, 56, 0
1, 121980, Note_off_c, 1, 71, 0
1, 121980, Note_on_c, 1, 77, 127
1, 121980, Note_on_c, 1, 61, 127
1, 122039, Note_off_c, 1, 77, 0
1, 122039, Note_off_c, 1, 61, 0
1, 122100, Note_on_c, 1, 78, 127
1, 122129, Note_off_c, 1, 78, 0
1, 122280, Note_on_c, 1, 76, 127
1, 122280, Note_on_c, 1, 59, 127
1, 122310, Note_off_c, 1, 76, 0
1, 122310, Note_on_c, 1, 74, 127
1, 122339, Note_off_c, 1, 59, 0
1, 122340, Note_off_c, 1, 74, 0
1, 122340, Note_on_c, 1, 80, 127
1, 122340, Note_on_c, 1, 64, 127
1, 122399, Note_off_c, 1, 80, 0
1, 122399, Note_off_c, 1, 64, 0
1, 122460, Note_on_c, 1, 81, 127
1, 122489, Note_off_c, 1, 81, 0
1, 122580, Note_on_c, 1, 62, 127
1, 122639, Note_off_c, 1, 62, 0
1, 122640, Note_on_c, 1, 79, 127
1, 122670, Note_off_c, 1, 79, 0
1, 122820, Note_on_c, 1, 58, 127
1, 122879, Note_off_c, 1, 58, 0
1, 123000, Note_on_c, 1, 55, 127
1, 123059, Note_off_c, 1, 55, 0
1, 123060, Note_on_c, 1, 52, 127
1, 123119, Note_off_c, 1, 52, 0
1, 123120, Note_on_c, 1, 70, 127
1, 123210, Note_on_c, 1, 50, 127
1, 123239, Note_off_c, 1, 50, 0
1, 123269, Note_off_c, 1, 70, 0
1, 123270, Note_on_c, 1, 49, 127
1, 123299, Note_off_c, 1, 49, 0
1, 123480, Note_on_c, 1, 47, 127
1, 123539, Note_off_c, 1, 47, 0
1, 123660, Note_on_c, 1, 46, 127
1, 123899, Note_off_c, 1, 46, 0
1, 124140, Note_on_c, 1, 83, 127
1, 124169, Note_off_c, 1, 83, 0
1, 124200, Note_on_c, 1, 67, 127
1, 124319, Note_off_c, 1, 67, 0
1, 124320, Note_on_c, 1, 40, 127
1, 124379, Note_off_c, 1, 40, 0
1, 124380, Note_on_c, 1, 42, 127
1, 124439, Note_off_c, 1, 42, 0
1, 124860, Note_on_c, 1, 69, 127
1, 124920, Note_on_c, 1, 74, 127
1, 124920, Note_on_c, 1, 50, 127
1, 124920, Note_on_c, 1, 66, 127
1, 124950, Note_on_c, 1, 73, 127
1, 124979, Note_off_c, 1, 50, 0
1, 124979, Note_off_c, 1, 73, 0
1, 124980, Note_on_c, 1, 54, 127
1, 125039, Note_off_c, 1, 54, 0
1, 125040, Note_on_c, 1, 57, 127
1, 125099, Note_off_c, 1, 57, 0
1, 125130, Note_on_c, 1, 78, 127
1, 125159, Note_off_c, 1, 78, 0
1, 125160, Note_on_c, 1, 76, 127
1, 125189, Note_off_c, 1, 76, 0
1, 125280, Note_off_c, 1, 74, 0
1, 125280, Note_off_c, 1, 66, 0
1, 125280, Note_on_c, 1, 49, 127
1, 125280, Note_on_c, 1, 64, 127
1, 125339, Note_off_c, 1, 49, 0
1, 125340, Note_on_c, 1, 52, 127
1, 125399, Note_off_c, 1, 52, 0
1, 125460, Note_off_c, 1, 64, 0
1, 125460, Note_on_c, 1, 67, 127
1, 125490, Note_on_c, 1, 79, 127
1, 125519, Note_off_c, 1, 79, 0
1, 125640, Note_off_c, 1, 67, 0
1, 125820, Note_on_c, 1, 62, 127
1, 125850, Note_on_c, 1, 81, 127
1, 125879, Note_off_c, 1, 81, 0
1, 126000, Note_off_c, 1, 62, 0
1, 126000, Note_on_c, 1, 45, 127
1, 126059, Note_off_c, 1, 45, 0
1, 126090, Note_on_c, 1, 56, 127
1, 126119, Note_off_c, 1, 56, 0
1, 126150, Note_on_c, 1, 71, 127
1, 126179, Note_off_c, 1, 71, 0
1, 126240, Note_on_c, 1, 47, 127
1, 126299, Note_off_c, 1, 69, 0
1, 126299, Note_off_c, 1, 47, 0
1, 126300, Note_on_c, 1, 76, 127
1, 126300, Note_on_c, 1, 45, 127
1, 126300, Note_on_c, 1, 71, 127
1, 126300, Note_on_c, 1, 61, 127
1, 126329, Note_off_c, 1, 71, 0
1, 126330, Note_on_c, 1, 69, 127
1, 126359, Note_off_c, 1, 76, 0
1, 126359, Note_off_c, 1, 45, 0
1, 126359, Note_off_c, 1, 61, 0
1, 126359, Note_off_c, 1, 69, 0
1, 126360, Note_on_c, 1, 67, 127
1, 126360, Note_on_c, 1, 47, 127
1, 126360, Note_on_c, 1, 62, 127
1, 126360, Note_on_c, 1, 71, 127
1, 126390, Note_on_c, 1, 66, 127
1, 126419, Note_off_c, 1, 47, 0
1, 126419, Note_off_c, 1, 66, 0
1, 126420, Note_on_c, 1, 50, 127
1, 126450, Note_on_c, 1, 76, 127
1, 126479, Note_off_c, 1, 50, 0
1, 126479, Note_off_c, 1, 76, 0
1, 126480, Note_on_c, 1, 74, 127
1, 126480, Note_on_c, 1, 55, 127
1, 126509, Note_off_c, 1, 74, 0
1, 126539, Note_off_c, 1, 55, 0
1, 126540, Note_off_c, 1, 62, 0
1, 126540, Note_off_c, 1, 71, 0
1, 126540, Note_on_c, 1, 49, 127
1, 126540, Note_on_c, 1, 73, 127
1, 126540, Note_on_c, 1, 69, 127
1, 126540, Note_on_c, 1, 64, 127
1, 126569, Note_off_c, 1, 67, 0
1, 126599, Note_off_c, 1, 49, 0
1, 126600, Note_on_c, 1, 52, 127
1, 126659, Note_off_c, 1, 52, 0
1, 126660, Note_on_c, 1, 57, 127
1, 126719, Note_off_c, 1, 57, 0
1, 126720, Note_off_c, 1, 73, 0
1, 126720, Note_off_c, 1, 64, 0
1, 126780, Note_on_c, 1, 54, 127
1, 126839, Note_off_c, 1, 54, 0
1, 127080, Note_off_c, 1, 69, 0
1, 127140, Note_on_c, 1, 59, 127
1, 127199, Note_off_c, 1, 59, 0
1, 127260, Note_on_c, 1, 56, 127
1, 127260, Note_on_c, 1, 68, 127
1, 127319, Note_off_c, 1, 56, 0
1, 127440, Note_off_c, 1, 68, 0
1, 127500, Note_on_c, 1, 61, 127
1, 127559, Note_off_c, 1, 61, 0
1, 127980, Note_on_c, 1, 79, 127
1, 128009, Note_off_c, 1, 79, 0
1, 128010, Note_on_c, 1, 78, 127
1, 128039, Note_off_c, 1, 78, 0
1, 128070, Note_on_c, 1, 83, 127
1, 128099, Note_off_c, 1, 83, 0
1, 128100, Note_on_c, 1, 81, 127
1, 128129, Note_off_c, 1, 81, 0
1, 128220, Note_on_c, 1, 79, 127
1, 128220, Note_on_c, 1, 59, 127
1, 128220, Note_on_c, 1, 67, 127
1, 128249, Note_off_c, 1, 79, 0
1, 128250, Note_on_c, 1, 78, 127
1, 128279, Note_off_c, 1, 59, 0
1, 128279, Note_off_c, 1, 67, 0
1, 128279, Note_off_c, 1, 78, 0
1, 128280, Note_on_c, 1, 76, 127
1, 128280, Note_on_c, 1, 55, 127
1, 128280, Note_on_c, 1, 64, 127
1, 128309, Note_off_c, 1, 76, 0
1, 128310, Note_on_c, 1, 74, 127
1, 128339, Note_off_c, 1, 55, 0
1, 128339, Note_off_c, 1, 64, 0
1, 128339, Note_off_c, 1, 74, 0
1, 128340, Note_on_c, 1, 81, 127
1, 128340, Note_on_c, 1, 54, 127
1, 128340, Note_on_c, 1, 66, 127
1, 128369, Note_off_c, 1, 54, 0
1, 128369, Note_off_c, 1, 66, 0
1, 128370, Note_on_c, 1, 52, 127
1, 128370, Note_on_c, 1, 67, 127
1, 128399, Note_off_c, 1, 81, 0
1, 128399, Note_off_c, 1, 52, 0
1, 128399, Note_off_c, 1, 67, 0
1, 128400, Note_on_c, 1, 69, 127
1, 128400, Note_on_c, 1, 54, 127
1, 128400, Note_on_c, 1, 66, 127
1, 128429, Note_off_c, 1, 54, 0
1, 128429, Note_off_c, 1, 66, 0
1, 128430, Note_on_c, 1, 55, 127
1, 128430, Note_on_c, 1, 64, 127
1, 128459, Note_off_c, 1, 69, 0
1, 128459, Note_off_c, 1, 55, 0
1, 128459, Note_off_c, 1, 64, 0
1, 128460, Note_on_c, 1, 73, 127
1, 128460, Note_on_c, 1, 57, 127
1, 128460, Note_on_c, 1, 61, 127
1, 128519, Note_off_c, 1, 73, 0
1, 128519, Note_off_c, 1, 57, 0
1, 128519, Note_off_c, 1, 61, 0
1, 128520, Note_on_c, 1, 74, 127
1, 128520, Note_on_c, 1, 50, 127
1, 128520, Note_on_c, 1, 62, 127
1, 128579, Note_off_c, 1, 50, 0
1, 128579, Note_off_c, 1, 62, 0
1, 128580, Note_on_c, 1, 54, 127
1, 128580, Note_on_c, 1, 69, 127
1, 128610, Note_off_c, 1, 69, 0
1, 128610, Note_on_c, 1, 67, 127
1, 128639, Note_off_c, 1, 54, 0
1, 128640, Note_off_c, 1, 67, 0
1, 128640, Note_on_c, 1, 57, 127
1, 128640, Note_on_c, 1, 66, 127
1, 128670, Note_off_c, 1, 66, 0
1, 128670, Note_on_c, 1, 64, 127
1, 128699, Note_off_c, 1, 57, 0
1, 128700, Note_off_c, 1, 64, 0
1, 128819, Note_off_c, 1, 74, 0
1, 128820, Note_on_c, 1, 69, 127
1, 128820, Note_on_c, 1, 74, 127
1, 128880, Note_on_c, 1, 50, 127
1, 128880, Note_on_c, 1, 66, 127
1, 128910, Note_on_c, 1, 73, 127
1, 128939, Note_off_c, 1, 50, 0
1, 128939, Note_off_c, 1, 73, 0
1, 128940, Note_on_c, 1, 54, 127
1, 128999, Note_off_c, 1, 54, 0
1, 129000, Note_on_c, 1, 57, 127
1, 129059, Note_off_c, 1, 57, 0
1, 129090, Note_on_c, 1, 78, 127
1, 129119, Note_off_c, 1, 78, 0
1, 129120, Note_on_c, 1, 76, 127
1, 129180, Note_off_c, 1, 76, 0
1, 129240, Note_off_c, 1, 74, 0
1, 129240, Note_off_c, 1, 66, 0
1, 129240, Note_on_c, 1, 49, 127
1, 129240, Note_on_c, 1, 64, 127
1, 129299, Note_off_c, 1, 49, 0
1, 129300, Note_on_c, 1, 52, 127
1, 129359, Note_off_c, 1, 52, 0
1, 129420, Note_off_c, 1, 64, 0
1, 129420, Note_on_c, 1, 67, 127
1, 129450, Note_on_c, 1, 79, 127
1, 129479, Note_off_c, 1, 79, 0
1, 129600, Note_off_c, 1, 67, 0
1, 129780, Note_on_c, 1, 62, 127
1, 129810, Note_on_c, 1, 81, 127
1, 129839, Note_off_c, 1, 81, 0
1, 129960, Note_off_c, 1, 62, 0
1, 129960, Note_on_c, 1, 45, 127
1, 130019, Note_off_c, 1, 45, 0
1, 130050, Note_on_c, 1, 56, 127
1, 130079, Note_off_c, 1, 56, 0
1, 130110, Note_on_c, 1, 71, 127
1, 130139, Note_off_c, 1, 71, 0
1, 130200, Note_on_c, 1, 47, 127
1, 130259, Note_off_c, 1, 47, 0
1, 130260, Note_off_c, 1, 69, 0
1, 130320, Note_on_c, 1, 74, 127
1, 130320, Note_on_c, 1, 78, 127
1, 130320, Note_on_c, 1, 50, 127
1, 130320, Note_on_c, 1, 69, 127
1, 130320, Note_on_c, 1, 66, 127
1, 130320, Note_on_c, 1, 62, 127
1, 130379, Note_off_c, 1, 74, 0
1, 130379, Note_off_c, 1, 78, 0
1, 130380, Note_on_c, 1, 76, 127
1, 130410, Note_off_c, 1, 76, 0
1, 130440, Note_off_c, 1, 50, 0
1, 130440, Note_off_c, 1, 69, 0
1, 130440, Note_off_c, 1, 66, 0
1, 130440, Note_off_c, 1, 62, 0
1, 130440, Note_on_c, 1, 81, 127
1, 130499, Note_off_c, 1, 81, 0
1, 130500, Note_on_c, 1, 74, 127
1, 130500, Note_on_c, 1, 78, 127
1, 130500, Note_on_c, 1, 47, 127
1, 130500, Note_on_c, 1, 71, 127
1, 130500, Note_on_c, 1, 66, 127
1, 130500, Note_on_c, 1, 62, 127
1, 130559, Note_off_c, 1, 74, 0
1, 130559, Note_off_c, 1, 78, 0
1, 130559, Note_off_c, 1, 47, 0
1, 130559, Note_off_c, 1, 71, 0
1, 130560, Note_on_c, 1, 45, 127
1, 130590, Note_on_c, 1, 69, 127
1, 130619, Note_off_c, 1, 45, 0
1, 130620, Note_off_c, 1, 66, 0
1, 130620, Note_off_c, 1, 62, 0
1, 130620, Note_off_c, 1, 69, 0
1, 130620, Note_on_c, 1, 83, 127
1, 130620, Note_on_c, 1, 44, 127
1, 130620, Note_on_c, 1, 68, 127
1, 130679, Note_off_c, 1, 83, 0
1, 130679, Note_off_c, 1, 44, 0
1, 130679, Note_off_c, 1, 68, 0
1, 130680, Note_on_c, 1, 73, 127
1, 130680, Note_on_c, 1, 76, 127
1, 130680, Note_on_c, 1, 49, 127
1, 130680, Note_on_c, 1, 69, 127
1, 130680, Note_on_c, 1, 64, 127
1, 130739, Note_off_c, 1, 76, 0
1, 130740, Note_on_c, 1, 74, 127
1, 130770, Note_off_c, 1, 74, 0
1, 130799, Note_off_c, 1, 49, 0
1, 130800, Note_off_c, 1, 73, 0
1, 130800, Note_off_c, 1, 69, 0
1, 130800, Note_off_c, 1, 64, 0
1, 130800, Note_on_c, 1, 83, 127
1, 130859, Note_off_c, 1, 83, 0
1, 130860, Note_on_c, 1, 73, 127
1, 130860, Note_on_c, 1, 76, 127
1, 130860, Note_on_c, 1, 45, 127
1, 130860, Note_on_c, 1, 64, 127
1, 130860, Note_on_c, 1, 69, 127
1, 130919, Note_off_c, 1, 73, 0
1, 130919, Note_off_c, 1, 76, 0
1, 130919, Note_off_c, 1, 45, 0
1, 130920, Note_on_c, 1, 44, 127
1, 130950, Note_on_c, 1, 71, 127
1, 130979, Note_off_c, 1, 64, 0
1, 130979, Note_off_c, 1, 69, 0
1, 130979, Note_off_c, 1, 44, 0
1, 130980, Note_off_c, 1, 71, 0
1, 130980, Note_on_c, 1, 81, 127
1, 130980, Note_on_c, 1, 42, 127
1, 130980, Note_on_c, 1, 66, 127
1, 131039, Note_off_c, 1, 81, 0
1, 131039, Note_off_c, 1, 42, 0
1, 131039, Note_off_c, 1, 66, 0
1, 131040, Note_on_c, 1, 71, 127
1, 131040, Note_on_c, 1, 74, 127
1, 131040, Note_on_c, 1, 47, 127
1, 131040, Note_on_c, 1, 66, 127
1, 131040, Note_on_c, 1, 62, 127
1, 131099, Note_off_c, 1, 74, 0
1, 131100, Note_on_c, 1, 76, 127
1, 131159, Note_off_c, 1, 71, 0
1, 131159, Note_off_c, 1, 47, 0
1, 131159, Note_off_c, 1, 66, 0
1, 131159, Note_off_c, 1, 62, 0
1, 131159, Note_off_c, 1, 76, 0
1, 131160, Note_on_c, 1, 81, 127
1, 131160, Note_on_c, 1, 78, 127
1, 131219, Note_off_c, 1, 81, 0
1, 131219, Note_off_c, 1, 78, 0
1, 131220, Note_on_c, 1, 71, 127
1, 131220, Note_on_c, 1, 76, 127
1, 131220, Note_on_c, 1, 44, 127
1, 131220, Note_on_c, 1, 64, 127
1, 131279, Note_off_c, 1, 71, 0
1, 131279, Note_off_c, 1, 76, 0
1, 131279, Note_off_c, 1, 44, 0
1, 131280, Note_on_c, 1, 74, 127
1, 131280, Note_on_c, 1, 78, 127
1, 131280, Note_on_c, 1, 42, 127
1, 131280, Note_on_c, 1, 69, 127
1, 131310, Note_off_c, 1, 78, 0
1, 131310, Note_off_c, 1, 69, 0
1, 131310, Note_on_c, 1, 68, 127
1, 131339, Note_off_c, 1, 64, 0
1, 131339, Note_off_c, 1, 74, 0
1, 131339, Note_off_c, 1, 42, 0
1, 131340, Note_off_c, 1, 68, 0
1, 131340, Note_on_c, 1, 80, 127
1, 131340, Note_on_c, 1, 40, 127
1, 131340, Note_on_c, 1, 66, 127
1, 131370, Note_off_c, 1, 66, 0
1, 131399, Note_off_c, 1, 80, 0
1, 131399, Note_off_c, 1, 40, 0
1, 131400, Note_on_c, 1, 73, 127
1, 131400, Note_on_c, 1, 45, 127
1, 131459, Note_off_c, 1, 45, 0
1, 131460, Note_on_c, 1, 54, 127
1, 131519, Note_off_c, 1, 73, 0
1, 131519, Note_off_c, 1, 54, 0
1, 131520, Note_on_c, 1, 50, 127
1, 131579, Note_off_c, 1, 50, 0
1, 131580, Note_on_c, 1, 71, 127
1, 131580, Note_on_c, 1, 52, 127
1, 131580, Note_on_c, 1, 64, 127
1, 131580, Note_on_c, 1, 68, 127
1, 131609, Note_off_c, 1, 52, 0
1, 131610, Note_on_c, 1, 54, 127
1, 131639, Note_off_c, 1, 64, 0
1, 131639, Note_off_c, 1, 68, 0
1, 131639, Note_off_c, 1, 54, 0
1, 131670, Note_on_c, 1, 50, 127
1, 131670, Note_on_c, 1, 66, 127
1, 131699, Note_off_c, 1, 50, 0
1, 131699, Note_off_c, 1, 66, 0
1, 131700, Note_off_c, 1, 71, 0
1, 131700, Note_on_c, 1, 69, 127
1, 131700, Note_on_c, 1, 49, 127
1, 131729, Note_off_c, 1, 49, 0
1, 131730, Note_on_c, 1, 47, 127
1, 131730, Note_on_c, 1, 62, 127
1, 131759, Note_off_c, 1, 69, 0
1, 131759, Note_off_c, 1, 47, 0
1, 131759, Note_off_c, 1, 62, 0
1, 131760, Note_on_c, 1, 69, 127
1, 131760, Note_on_c, 1, 64, 127
1, 131760, Note_on_c, 1, 45, 127
1, 131760, Note_on_c, 1, 61, 127
1, 131790, Note_on_c, 1, 68, 127
1, 131819, Note_off_c, 1, 45, 0
1, 131819, Note_off_c, 1, 68, 0
1, 131820, Note_on_c, 1, 49, 127
1, 131879, Note_off_c, 1, 49, 0
1, 131880, Note_on_c, 1, 52, 127
1, 131939, Note_off_c, 1, 52, 0
1, 131940, Note_off_c, 1, 61, 0
1, 131969, Note_off_c, 1, 64, 0
1, 131970, Note_on_c, 1, 73, 127
1, 131999, Note_off_c, 1, 69, 0
1, 131999, Note_off_c, 1, 73, 0
1, 132000, Note_on_c, 1, 71, 127
1, 132059, Note_off_c, 1, 71, 0
1, 132120, Note_on_c, 1, 44, 127
1, 132179, Note_off_c, 1, 44, 0
1, 132180, Note_on_c, 1, 47, 127
1, 132239, Note_off_c, 1, 47, 0
1, 132330, Note_on_c, 1, 74, 127
1, 132359, Note_off_c, 1, 74, 0
1, 132420, Note_on_c, 1, 69, 127
1, 132420, Note_on_c, 1, 74, 127
1, 132420, Note_on_c, 1, 52, 127
1, 132420, Note_on_c, 1, 68, 127
1, 132449, Note_off_c, 1, 69, 0
1, 132450, Note_on_c, 1, 71, 127
1, 132479, Note_off_c, 1, 74, 0
1, 132479, Note_off_c, 1, 52, 0
1, 132479, Note_off_c, 1, 68, 0
1, 132479, Note_off_c, 1, 71, 0
1, 132480, Note_on_c, 1, 73, 127
1, 132480, Note_on_c, 1, 45, 127
1, 132480, Note_on_c, 1, 69, 127
1, 132480, Note_on_c, 1, 64, 127
1, 132510, Note_on_c, 1, 71, 127
1, 132539, Note_off_c, 1, 71, 0
1, 132599, Note_off_c, 1, 45, 0
1, 132599, Note_off_c, 1, 64, 0
1, 132600, Note_off_c, 1, 73, 0
1, 132600, Note_off_c, 1, 69, 0
1, 132600, Note_on_c, 1, 68, 127
1, 132600, Note_on_c, 1, 47, 127
1, 132630, Note_on_c, 1, 66, 127
1, 132659, Note_off_c, 1, 68, 0
1, 132659, Note_off_c, 1, 47, 0
1, 132660, Note_off_c, 1, 66, 0
1, 132660, Note_on_c, 1, 49, 127
1, 132690, Note_on_c, 1, 76, 127
1, 132719, Note_off_c, 1, 76, 0
1, 132720, Note_on_c, 1, 74, 127
1, 132749, Note_off_c, 1, 74, 0
1, 132779, Note_off_c, 1, 49, 0
1, 132780, Note_on_c, 1, 50, 127
1, 132839, Note_off_c, 1, 50, 0
1, 132840, Note_on_c, 1, 81, 127
1, 132840, Note_on_c, 1, 52, 127
1, 132899, Note_off_c, 1, 81, 0
1, 132899, Note_off_c, 1, 52, 0
1, 132900, Note_on_c, 1, 83, 127
1, 132959, Note_off_c, 1, 83, 0
1, 132960, Note_on_c, 1, 80, 127
1, 133019, Note_off_c, 1, 80, 0
1, 133200, Note_on_c, 1, 74, 127
1, 133200, Note_on_c, 1, 47, 127
1, 133200, Note_on_c, 1, 71, 127
1, 133200, Note_on_c, 1, 66, 127
1, 133200, Note_on_c, 1, 62, 127
1, 133229, Note_off_c, 1, 74, 0
1, 133230, Note_on_c, 1, 73, 127
1, 133259, Note_off_c, 1, 47, 0
1, 133259, Note_off_c, 1, 73, 0
1, 133260, Note_on_c, 1, 50, 127
1, 133290, Note_on_c, 1, 83, 127
1, 133319, Note_off_c, 1, 50, 0
1, 133319, Note_off_c, 1, 83, 0
1, 133320, Note_on_c, 1, 81, 127
1, 133320, Note_on_c, 1, 54, 127
1, 133349, Note_off_c, 1, 81, 0
1, 133379, Note_off_c, 1, 54, 0
1, 133380, Note_off_c, 1, 66, 0
1, 133380, Note_off_c, 1, 62, 0
1, 133380, Note_on_c, 1, 44, 127
1, 133380, Note_on_c, 1, 68, 127
1, 133380, Note_on_c, 1, 64, 127
1, 133439, Note_off_c, 1, 44, 0
1, 133500, Note_on_c, 1, 52, 127
1, 133559, Note_off_c, 1, 52, 0
1, 133560, Note_off_c, 1, 71, 0
1, 133560, Note_off_c, 1, 68, 0
1, 133560, Note_on_c, 1, 45, 127
1, 133560, Note_on_c, 1, 69, 127
1, 133560, Note_on_c, 1, 61, 127
1, 133619, Note_off_c, 1, 45, 0
1, 133620, Note_on_c, 1, 49, 127
1, 133679, Note_off_c, 1, 49, 0
1, 133680, Note_on_c, 1, 80, 127
1, 133709, Note_off_c, 1, 80, 0
1, 133860, Note_on_c, 1, 57, 127
1, 133919, Note_off_c, 1, 57, 0
1, 133920, Note_off_c, 1, 64, 0
1, 133920, Note_off_c, 1, 61, 0
1, 134100, Note_off_c, 1, 69, 0
1, 134100, Note_on_c, 1, 51, 127
1, 134100, Note_on_c, 1, 63, 127
1, 134159, Note_off_c, 1, 51, 0
1, 134220, Note_on_c, 1, 59, 127
1, 134279, Note_off_c, 1, 59, 0
1, 134280, Note_off_c, 1, 63, 0
1, 134340, Note_on_c, 1, 56, 127
1, 134399, Note_off_c, 1, 56, 0
1, 134670, Note_on_c, 1, 78, 127
1, 134699, Note_off_c, 1, 78, 0
1, 134940, Note_on_c, 1, 76, 127
1, 134969, Note_off_c, 1, 76, 0
1, 135240, Note_on_c, 1, 64, 127
1, 135240, Note_on_c, 1, 49, 127
1, 135240, Note_on_c, 1, 73, 127
1, 135269, Note_off_c, 1, 49, 0
1, 135269, Note_off_c, 1, 73, 0
1, 135270, Note_on_c, 1, 50, 127
1, 135270, Note_on_c, 1, 71, 127
1, 135299, Note_off_c, 1, 64, 0
1, 135299, Note_off_c, 1, 50, 0
1, 135299, Note_off_c, 1, 71, 0
1, 135300, Note_on_c, 1, 68, 127
1, 135300, Note_on_c, 1, 52, 127
1, 135300, Note_on_c, 1, 71, 127
1, 135300, Note_on_c, 1, 64, 127
1, 135359, Note_off_c, 1, 52, 0
1, 135360, Note_off_c, 1, 68, 0
1, 135360, Note_off_c, 1, 71, 0
1, 135360, Note_on_c, 1, 69, 127
1, 135360, Note_on_c, 1, 45, 127
1, 135360, Note_on_c, 1, 61, 127
1, 135419, Note_off_c, 1, 45, 0
1, 135420, Note_on_c, 1, 49, 127
1, 135479, Note_off_c, 1, 49, 0
1, 135540, Note_off_c, 1, 61, 0
1, 135540, Note_on_c, 1, 57, 127
1, 135540, Note_on_c, 1, 73, 127
1, 135599, Note_off_c, 1, 57, 0
1, 135630, Note_on_c, 1, 47, 127
1, 135659, Note_off_c, 1, 47, 0
1, 135660, Note_on_c, 1, 76, 127
1, 135720, Note_off_c, 1, 64, 0
1, 135720, Note_off_c, 1, 69, 0
1, 135720, Note_off_c, 1, 73, 0
1, 135720, Note_off_c, 1, 76, 0
1, 135720, Note_on_c, 1, 78, 127
1, 135720, Note_on_c, 1, 50, 127
1, 135720, Note_on_c, 1, 62, 127
1, 135720, Note_on_c, 1, 66, 127
1, 135779, Note_off_c, 1, 50, 0
1, 135779, Note_off_c, 1, 62, 0
1, 135779, Note_off_c, 1, 66, 0
1, 135780, Note_off_c, 1, 78, 0
1, 135780, Note_on_c, 1, 54, 127
1, 135810, Note_on_c, 1, 74, 127
1, 135839, Note_off_c, 1, 54, 0
1, 135839, Note_off_c, 1, 74, 0
1, 135840, Note_on_c, 1, 73, 127
1, 135840, Note_on_c, 1, 76, 127
1, 135840, Note_on_c, 1, 57, 127
1, 135840, Note_on_c, 1, 64, 127
1, 135869, Note_off_c, 1, 64, 0
1, 135870, Note_on_c, 1, 61, 127
1, 135899, Note_off_c, 1, 57, 0
1, 135899, Note_off_c, 1, 61, 0
1, 135900, Note_off_c, 1, 73, 0
1, 135900, Note_off_c, 1, 76, 0
1, 135900, Note_on_c, 1, 69, 127
1, 135900, Note_on_c, 1, 78, 127
1, 135900, Note_on_c, 1, 50, 127
1, 135900, Note_on_c, 1, 62, 127
1, 135900, Note_on_c, 1, 66, 127
1, 135959, Note_off_c, 1, 50, 0
1, 135960, Note_off_c, 1, 78, 0
1, 135960, Note_on_c, 1, 74, 127
1, 135960, Note_on_c, 1, 54, 127
1, 135989, Note_off_c, 1, 54, 0
1, 135990, Note_on_c, 1, 52, 127
1, 136019, Note_off_c, 1, 52, 0
1, 136080, Note_off_c, 1, 69, 0
1, 136080, Note_off_c, 1, 62, 0
1, 136080, Note_off_c, 1, 66, 0
1, 136080, Note_off_c, 1, 74, 0
1, 136080, Note_on_c, 1, 71, 127
1, 136080, Note_on_c, 1, 55, 127
1, 136080, Note_on_c, 1, 67, 127
1, 136139, Note_off_c, 1, 55, 0
1, 136139, Note_off_c, 1, 67, 0
1, 136140, Note_off_c, 1, 71, 0
1, 136140, Note_on_c, 1, 59, 127
1, 136199, Note_off_c, 1, 59, 0
1, 136200, Note_on_c, 1, 66, 127
1, 136200, Note_on_c, 1, 69, 127
1, 136200, Note_on_c, 1, 62, 127
1, 136259, Note_off_c, 1, 62, 0
1, 136260, Note_off_c, 1, 66, 0
1, 136260, Note_off_c, 1, 69, 0
1, 136260, Note_on_c, 1, 71, 127
1, 136260, Note_on_c, 1, 55, 127
1, 136260, Note_on_c, 1, 67, 127
1, 136319, Note_off_c, 1, 55, 0
1, 136320, Note_on_c, 1, 59, 127
1, 136349, Note_off_c, 1, 59, 0
1, 136350, Note_on_c, 1, 57, 127
1, 136379, Note_off_c, 1, 57, 0
1, 136440, Note_off_c, 1, 71, 0
1, 136440, Note_on_c, 1, 76, 127
1, 136440, Note_on_c, 1, 52, 127
1, 136440, Note_on_c, 1, 64, 127
1, 136469, Note_off_c, 1, 76, 0
1, 136470, Note_on_c, 1, 75, 127
1, 136499, Note_off_c, 1, 52, 0
1, 136499, Note_off_c, 1, 75, 0
1, 136560, Note_on_c, 1, 78, 127
1, 136620, Note_off_c, 1, 78, 0
1, 136620, Note_on_c, 1, 79, 127
1, 136650, Note_on_c, 1, 51, 127
1, 136679, Note_off_c, 1, 51, 0
1, 136710, Note_off_c, 1, 79, 0
1, 136710, Note_on_c, 1, 54, 127
1, 136739, Note_off_c, 1, 54, 0
1, 136740, Note_off_c, 1, 64, 0
1, 136800, Note_off_c, 1, 67, 0
1, 136800, Note_on_c, 1, 74, 127
1, 136860, Note_off_c, 1, 74, 0
1, 136860, Note_on_c, 1, 73, 127
1, 136860, Note_on_c, 1, 56, 127
1, 136919, Note_off_c, 1, 73, 0
1, 136919, Note_off_c, 1, 56, 0
1, 136920, Note_on_c, 1, 68, 127
1, 136920, Note_on_c, 1, 76, 127
1, 136920, Note_on_c, 1, 52, 127
1, 136920, Note_on_c, 1, 64, 127
1, 136979, Note_off_c, 1, 52, 0
1, 136979, Note_off_c, 1, 64, 0
1, 136980, Note_off_c, 1, 68, 0
1, 136980, Note_off_c, 1, 76, 0
1, 136980, Note_on_c, 1, 73, 127
1, 136980, Note_on_c, 1, 57, 127
1, 136980, Note_on_c, 1, 69, 127
1, 137039, Note_off_c, 1, 57, 0
1, 137040, Note_on_c, 1, 45, 127
1, 137099, Note_off_c, 1, 45, 0
1, 137100, Note_off_c, 1, 73, 0
1, 137100, Note_on_c, 1, 74, 127
1, 137160, Note_on_c, 1, 50, 127
1, 137160, Note_on_c, 1, 62, 127
1, 137160, Note_on_c, 1, 66, 127
1, 137189, Note_off_c, 1, 74, 0
1, 137219, Note_off_c, 1, 50, 0
1, 137220, Note_on_c, 1, 54, 127
1, 137279, Note_off_c, 1, 54, 0
1, 137370, Note_on_c, 1, 78, 127
1, 137399, Note_off_c, 1, 78, 0
1, 137520, Note_off_c, 1, 62, 0
1, 137520, Note_off_c, 1, 66, 0
1, 137520, Note_on_c, 1, 49, 127
1, 137520, Note_on_c, 1, 61, 127
1, 137579, Note_off_c, 1, 49, 0
1, 137700, Note_off_c, 1, 61, 0
1, 137730, Note_on_c, 1, 79, 127
1, 137759, Note_off_c, 1, 79, 0
1, 137999, Note_off_c, 1, 69, 0
1, 138000, Note_on_c, 1, 69, 127
1, 138000, Note_on_c, 1, 73, 127
1, 138000, Note_on_c, 1, 52, 127
1, 138000, Note_on_c, 1, 64, 127
1, 138030, Note_on_c, 1, 71, 127
1, 138059, Note_off_c, 1, 73, 0
1, 138059, Note_off_c, 1, 52, 0
1, 138059, Note_off_c, 1, 64, 0
1, 138059, Note_off_c, 1, 71, 0
1, 138060, Note_on_c, 1, 54, 127
1, 138060, Note_on_c, 1, 66, 127
1, 138090, Note_on_c, 1, 81, 127
1, 138119, Note_off_c, 1, 81, 0
1, 138120, Note_on_c, 1, 79, 127
1, 138149, Note_off_c, 1, 79, 0
1, 138150, Note_on_c, 1, 78, 127
1, 138179, Note_off_c, 1, 69, 0
1, 138179, Note_off_c, 1, 54, 0
1, 138179, Note_off_c, 1, 66, 0
1, 138179, Note_off_c, 1, 78, 0
1, 138180, Note_on_c, 1, 76, 127
1, 138180, Note_on_c, 1, 67, 127
1, 138180, Note_on_c, 1, 55, 127
1, 138180, Note_on_c, 1, 64, 127
1, 138209, Note_off_c, 1, 76, 0
1, 138210, Note_on_c, 1, 78, 127
1, 138210, Note_on_c, 1, 69, 127
1, 138239, Note_off_c, 1, 67, 0
1, 138239, Note_off_c, 1, 55, 0
1, 138239, Note_off_c, 1, 64, 0
1, 138239, Note_off_c, 1, 78, 0
1, 138239, Note_off_c, 1, 69, 0
1, 138240, Note_on_c, 1, 74, 127
1, 138240, Note_on_c, 1, 66, 127
1, 138240, Note_on_c, 1, 57, 127
1, 138299, Note_off_c, 1, 57, 0
1, 138300, Note_on_c, 1, 69, 127
1, 138300, Note_on_c, 1, 55, 127
1, 138300, Note_on_c, 1, 62, 127
1, 138329, Note_off_c, 1, 69, 0
1, 138330, Note_on_c, 1, 67, 127
1, 138359, Note_off_c, 1, 66, 0
1, 138359, Note_off_c, 1, 55, 0
1, 138359, Note_off_c, 1, 62, 0
1, 138359, Note_off_c, 1, 67, 0
1, 138360, Note_off_c, 1, 74, 0
1, 138360, Note_on_c, 1, 73, 127
1, 138360, Note_on_c, 1, 64, 127
1, 138419, Note_off_c, 1, 64, 0
1, 138420, Note_off_c, 1, 73, 0
1, 138420, Note_on_c, 1, 50, 127
1, 138540, Note_off_c, 1, 50, 0
1, 138660, Note_on_c, 1, 54, 127
1, 138719, Note_off_c, 1, 54, 0
1, 138810, Note_on_c, 1, 78, 127
1, 138839, Note_off_c, 1, 78, 0
1, 138840, Note_on_c, 1, 76, 127
1, 138869, Note_off_c, 1, 76, 0
1, 138960, Note_on_c, 1, 49, 127
1, 139019, Note_off_c, 1, 49, 0
1, 139020, Note_on_c, 1, 52, 127
1, 139079, Note_off_c, 1, 52, 0
1, 139170, Note_on_c, 1, 79, 127
1, 139199, Note_off_c, 1, 79, 0
1, 139530, Note_on_c, 1, 81, 127
1, 139559, Note_off_c, 1, 81, 0
1, 139680, Note_on_c, 1, 45, 127
1, 139739, Note_off_c, 1, 45, 0
1, 139770, Note_on_c, 1, 56, 127
1, 139799, Note_off_c, 1, 56, 0
1, 139830, Note_on_c, 1, 71, 127
1, 139859, Note_off_c, 1, 71, 0
1, 139920, Note_on_c, 1, 47, 127
1, 139979, Note_off_c, 1, 47, 0
1, 139980, Note_on_c, 1, 76, 127
1, 139980, Note_on_c, 1, 45, 127
1, 139980, Note_on_c, 1, 71, 127
1, 139980, Note_on_c, 1, 61, 127
1, 140009, Note_off_c, 1, 71, 0
1, 140010, Note_on_c, 1, 69, 127
1, 140039, Note_off_c, 1, 76, 0
1, 140039, Note_off_c, 1, 45, 0
1, 140039, Note_off_c, 1, 61, 0
1, 140039, Note_off_c, 1, 69, 0
1, 140040, Note_on_c, 1, 67, 127
1, 140040, Note_on_c, 1, 47, 127
1, 140040, Note_on_c, 1, 62, 127
1, 140040, Note_on_c, 1, 71, 127
1, 140070, Note_on_c, 1, 66, 127
1, 140099, Note_off_c, 1, 47, 0
1, 140099, Note_off_c, 1, 66, 0
1, 140100, Note_on_c, 1, 50, 127
1, 140130, Note_on_c, 1, 76, 127
1, 140159, Note_off_c, 1, 50, 0
1, 140159, Note_off_c, 1, 76, 0
1, 140160, Note_on_c, 1, 74, 127
1, 140160, Note_on_c, 1, 55, 127
1, 140189, Note_off_c, 1, 74, 0
1, 140219, Note_off_c, 1, 55, 0
1, 140220, Note_off_c, 1, 62, 0
1, 140220, Note_off_c, 1, 71, 0
1, 140220, Note_on_c, 1, 49, 127
1, 140220, Note_on_c, 1, 73, 127
1, 140220, Note_on_c, 1, 69, 127
1, 140220, Note_on_c, 1, 64, 127
1, 140249, Note_off_c, 1, 67, 0
1, 140279, Note_off_c, 1, 49, 0
1, 140280, Note_on_c, 1, 52, 127
1, 140339, Note_off_c, 1, 52, 0
1, 140340, Note_on_c, 1, 57, 127
1, 140399, Note_off_c, 1, 57, 0
1, 140400, Note_off_c, 1, 73, 0
1, 140400, Note_off_c, 1, 64, 0
1, 140460, Note_on_c, 1, 54, 127
1, 140519, Note_off_c, 1, 54, 0
1, 140760, Note_off_c, 1, 69, 0
1, 140820, Note_on_c, 1, 59, 127
1, 140879, Note_off_c, 1, 59, 0
1, 140940, Note_on_c, 1, 56, 127
1, 140940, Note_on_c, 1, 68, 127
1, 140999, Note_off_c, 1, 56, 0
1, 141120, Note_off_c, 1, 68, 0
1, 141180, Note_on_c, 1, 61, 127
1, 141239, Note_off_c, 1, 61, 0
1, 141660, Note_on_c, 1, 79, 127
1, 141689, Note_off_c, 1, 79, 0
1, 141690, Note_on_c, 1, 78, 127
1, 141719, Note_off_c, 1, 78, 0
1, 141750, Note_on_c, 1, 83, 127
1, 141779, Note_off_c, 1, 83, 0
1, 141780, Note_on_c, 1, 81, 127
1, 141809, Note_off_c, 1, 81, 0
1, 141900, Note_on_c, 1, 79, 127
1, 141900, Note_on_c, 1, 59, 127
1, 141900, Note_on_c, 1, 67, 127
1, 141929, Note_off_c, 1, 79, 0
1, 141930, Note_on_c, 1, 78, 127
1, 141959, Note_off_c, 1, 59, 0
1, 141959, Note_off_c, 1, 67, 0
1, 141959, Note_off_c, 1, 78, 0
1, 141960, Note_on_c, 1, 76, 127
1, 141960, Note_on_c, 1, 55, 127
1, 141960, Note_on_c, 1, 64, 127
1, 141989, Note_off_c, 1, 76, 0
1, 141990, Note_on_c, 1, 74, 127
1, 142019, Note_off_c, 1, 55, 0
1, 142019, Note_off_c, 1, 64, 0
1, 142019, Note_off_c, 1, 74, 0
1, 142020, Note_on_c, 1, 81, 127
1, 142020, Note_on_c, 1, 54, 127
1, 142020, Note_on_c, 1, 66, 127
1, 142049, Note_off_c, 1, 54, 0
1, 142049, Note_off_c, 1, 66, 0
1, 142050, Note_on_c, 1, 52, 127
1, 142050, Note_on_c, 1, 67, 127
1, 142079, Note_off_c, 1, 81, 0
1, 142079, Note_off_c, 1, 52, 0
1, 142079, Note_off_c, 1, 67, 0
1, 142080, Note_on_c, 1, 69, 127
1, 142080, Note_on_c, 1, 54, 127
1, 142080, Note_on_c, 1, 66, 127
1, 142109, Note_off_c, 1, 54, 0
1, 142109, Note_off_c, 1, 66, 0
1, 142110, Note_on_c, 1, 55, 127
1, 142110, Note_on_c, 1, 64, 127
1, 142139, Note_off_c, 1, 69, 0
1, 142139, Note_off_c, 1, 55, 0
1, 142139, Note_off_c, 1, 64, 0
1, 142140, Note_on_c, 1, 73, 127
1, 142140, Note_on_c, 1, 57, 127
1, 142140, Note_on_c, 1, 61, 127
1, 142199, Note_off_c, 1, 73, 0
1, 142199, Note_off_c, 1, 57, 0
1, 142199, Note_off_c, 1, 61, 0
1, 142200, Note_on_c, 1, 74, 127
1, 142200, Note_on_c, 1, 50, 127
1, 142200, Note_on_c, 1, 62, 127
1, 142259, Note_off_c, 1, 50, 0
1, 142259, Note_off_c, 1, 62, 0
1, 142260, Note_on_c, 1, 42, 127
1, 142260, Note_on_c, 1, 69, 127
1, 142290, Note_off_c, 1, 69, 0
1, 142290, Note_on_c, 1, 67, 127
1, 142319, Note_off_c, 1, 42, 0
1, 142320, Note_off_c, 1, 67, 0
1, 142320, Note_on_c, 1, 45, 127
1, 142320, Note_on_c, 1, 66, 127
1, 142350, Note_off_c, 1, 66, 0
1, 142350, Note_on_c, 1, 64, 127
1, 142379, Note_off_c, 1, 45, 0
1, 142380, Note_off_c, 1, 64, 0
1, 142380, Note_on_c, 1, 38, 127
1, 142499, Note_off_c, 1, 74, 0
1, 142499, Note_off_c, 1, 38, 0
1, 142500, Note_on_c, 1, 73, 127
1, 142500, Note_on_c, 1, 54, 127
1, 142500, Note_on_c, 1, 66, 127
1, 142500, Note_on_c, 1, 70, 127
1, 142559, Note_off_c, 1, 73, 0
1, 142559, Note_off_c, 1, 54, 0
1, 142559, Note_off_c, 1, 66, 0
1, 142559, Note_off_c, 1, 70, 0
1, 142560, Note_on_c, 1, 74, 127
1, 142560, Note_on_c, 1, 47, 127
1, 142560, Note_on_c, 1, 71, 127
1, 142560, Note_on_c, 1, 66, 127
1, 142619, Note_off_c, 1, 47, 0
1, 142620, Note_on_c, 1, 78, 127
1, 142620, Note_on_c, 1, 50, 127
1, 142650, Note_off_c, 1, 78, 0
1, 142650, Note_on_c, 1, 76, 127
1, 142679, Note_off_c, 1, 50, 0
1, 142680, Note_off_c, 1, 76, 0
1, 142680, Note_on_c, 1, 54, 127
1, 142710, Note_on_c, 1, 73, 127
1, 142739, Note_off_c, 1, 54, 0
1, 142740, Note_off_c, 1, 73, 0
1, 142740, Note_on_c, 1, 59, 127
1, 142799, Note_off_c, 1, 74, 0
1, 142799, Note_off_c, 1, 71, 0
1, 142799, Note_off_c, 1, 66, 0
1, 142799, Note_off_c, 1, 59, 0
1, 142800, Note_on_c, 1, 71, 127
1, 142800, Note_on_c, 1, 56, 127
1, 142800, Note_on_c, 1, 76, 127
1, 142829, Note_off_c, 1, 56, 0
1, 142830, Note_off_c, 1, 76, 0
1, 142830, Note_on_c, 1, 54, 127
1, 142830, Note_on_c, 1, 74, 127
1, 142859, Note_off_c, 1, 71, 0
1, 142859, Note_off_c, 1, 54, 0
1, 142860, Note_on_c, 1, 73, 127
1, 142890, Note_off_c, 1, 73, 0
1, 142890, Note_on_c, 1, 52, 127
1, 142919, Note_off_c, 1, 74, 0
1, 142919, Note_off_c, 1, 52, 0
1, 142920, Note_on_c, 1, 45, 127
1, 142920, Note_on_c, 1, 69, 127
1, 142920, Note_on_c, 1, 64, 127
1, 142979, Note_off_c, 1, 45, 0
1, 142980, Note_on_c, 1, 49, 127
1, 143039, Note_off_c, 1, 49, 0
1, 143100, Note_on_c, 1, 57, 127
1, 143159, Note_off_c, 1, 69, 0
1, 143159, Note_off_c, 1, 64, 0
1, 143159, Note_off_c, 1, 57, 0
1, 143160, Note_on_c, 1, 69, 127
1, 143160, Note_on_c, 1, 49, 127
1, 143189, Note_off_c, 1, 49, 0
1, 143190, Note_on_c, 1, 47, 127
1, 143190, Note_on_c, 1, 68, 127
1, 143219, Note_off_c, 1, 69, 0
1, 143219, Note_off_c, 1, 47, 0
1, 143219, Note_off_c, 1, 68, 0
1, 143220, Note_on_c, 1, 73, 127
1, 143220, Note_on_c, 1, 49, 127
1, 143220, Note_on_c, 1, 66, 127
1, 143249, Note_off_c, 1, 49, 0
1, 143249, Note_off_c, 1, 66, 0
1, 143250, Note_on_c, 1, 45, 127
1, 143250, Note_on_c, 1, 64, 127
1, 143279, Note_off_c, 1, 73, 0
1, 143279, Note_off_c, 1, 45, 0
1, 143279, Note_off_c, 1, 64, 0
1, 143280, Note_on_c, 1, 78, 127
1, 143280, Note_on_c, 1, 47, 127
1, 143280, Note_on_c, 1, 71, 127
1, 143280, Note_on_c, 1, 66, 127
1, 143280, Note_on_c, 1, 62, 127
1, 143310, Note_off_c, 1, 78, 0
1, 143310, Note_on_c, 1, 74, 127
1, 143339, Note_off_c, 1, 47, 0
1, 143340, Note_off_c, 1, 74, 0
1, 143340, Note_on_c, 1, 73, 127
1, 143340, Note_on_c, 1, 50, 127
1, 143370, Note_off_c, 1, 73, 0
1, 143399, Note_off_c, 1, 50, 0
1, 143400, Note_off_c, 1, 71, 0
1, 143400, Note_off_c, 1, 66, 0
1, 143400, Note_off_c, 1, 62, 0
1, 143400, Note_on_c, 1, 69, 127
1, 143400, Note_on_c, 1, 56, 127
1, 143400, Note_on_c, 1, 64, 127
1, 143400, Note_on_c, 1, 68, 127
1, 143430, Note_off_c, 1, 69, 0
1, 143459, Note_off_c, 1, 56, 0
1, 143459, Note_off_c, 1, 64, 0
1, 143460, Note_off_c, 1, 68, 0
1, 143460, Note_on_c, 1, 45, 127
1, 143519, Note_off_c, 1, 45, 0
1, 143520, Note_on_c, 1, 49, 127
1, 143579, Note_off_c, 1, 49, 0
1, 143580, Note_on_c, 1, 54, 127
1, 143580, Note_on_c, 1, 61, 127
1, 143639, Note_off_c, 1, 54, 0
1, 143639, Note_off_c, 1, 61, 0
1, 143640, Note_on_c, 1, 44, 127
1, 143640, Note_on_c, 1, 65, 127
1, 143699, Note_off_c, 1, 44, 0
1, 143790, Note_on_c, 1, 42, 127
1, 143819, Note_off_c, 1, 42, 0
1, 143820, Note_on_c, 1, 77, 127
1, 143940, Note_off_c, 1, 77, 0
1, 144000, Note_off_c, 1, 65, 0
1, 144210, Note_on_c, 1, 81, 127
1, 144239, Note_off_c, 1, 81, 0
1, 144240, Note_on_c, 1, 80, 127
1, 144269, Note_off_c, 1, 80, 0
1, 144360, Note_on_c, 1, 41, 127
1, 144419, Note_off_c, 1, 41, 0
1, 144570, Note_on_c, 1, 83, 127
1, 144599, Note_off_c, 1, 83, 0
1, 144720, Note_on_c, 1, 70, 127
1, 144839, Note_off_c, 1, 70, 0
1, 144870, Note_on_c, 1, 76, 127
1, 144899, Note_off_c, 1, 76, 0
1, 144900, Note_on_c, 1, 59, 127
1, 145019, Note_off_c, 1, 59, 0
1, 145320, Note_on_c, 1, 57, 127
1, 145379, Note_off_c, 1, 57, 0
1, 145440, Note_on_c, 1, 51, 127
1, 145440, Note_on_c, 1, 63, 127
1, 145499, Note_off_c, 1, 51, 0
1, 145620, Note_off_c, 1, 63, 0
1, 145620, Note_on_c, 1, 53, 127
1, 145679, Note_off_c, 1, 53, 0
1, 146340, Note_on_c, 1, 48, 127
1, 146340, Note_on_c, 1, 72, 127
1, 146399, Note_off_c, 1, 48, 0
1, 146520, Note_off_c, 1, 72, 0
1, 146910, Note_on_c, 1, 75, 127
1, 146939, Note_off_c, 1, 75, 0
1, 147840, Note_on_c, 1, 57, 127
1, 147869, Note_off_c, 1, 57, 0
1, 147870, Note_on_c, 1, 56, 127
1, 147899, Note_off_c, 1, 56, 0
1, 147900, Note_on_c, 1, 69, 127
1, 147900, Note_on_c, 1, 57, 127
1, 147900, Note_on_c, 1, 66, 127
1, 147929, Note_off_c, 1, 57, 0
1, 147930, Note_on_c, 1, 54, 127
1, 147959, Note_off_c, 1, 54, 0
1, 147960, Note_off_c, 1, 69, 0
1, 147960, Note_off_c, 1, 66, 0
1, 147960, Note_on_c, 1, 68, 127
1, 147960, Note_on_c, 1, 53, 127
1, 147960, Note_on_c, 1, 65, 127
1, 148019, Note_off_c, 1, 53, 0
1, 148020, Note_off_c, 1, 68, 0
1, 148020, Note_off_c, 1, 65, 0
1, 148020, Note_on_c, 1, 73, 127
1, 148020, Note_on_c, 1, 56, 127
1, 148050, Note_off_c, 1, 73, 0
1, 148050, Note_on_c, 1, 71, 127
1, 148079, Note_off_c, 1, 56, 0
1, 148080, Note_off_c, 1, 71, 0
1, 148080, Note_on_c, 1, 77, 127
1, 148080, Note_on_c, 1, 61, 127
1, 148139, Note_off_c, 1, 77, 0
1, 148139, Note_off_c, 1, 61, 0
1, 148200, Note_on_c, 1, 78, 127
1, 148229, Note_off_c, 1, 78, 0
1, 148380, Note_on_c, 1, 76, 127
1, 148380, Note_on_c, 1, 59, 127
1, 148410, Note_off_c, 1, 76, 0
1, 148410, Note_on_c, 1, 74, 127
1, 148439, Note_off_c, 1, 59, 0
1, 148440, Note_off_c, 1, 74, 0
1, 148440, Note_on_c, 1, 80, 127
1, 148440, Note_on_c, 1, 64, 127
1, 148499, Note_off_c, 1, 80, 0
1, 148499, Note_off_c, 1, 64, 0
1, 148560, Note_on_c, 1, 81, 127
1, 148589, Note_off_c, 1, 81, 0
1, 148680, Note_on_c, 1, 62, 127
1, 148739, Note_off_c, 1, 62, 0
1, 148740, Note_on_c, 1, 79, 127
1, 148770, Note_off_c, 1, 79, 0
1, 148920, Note_on_c, 1, 58, 127
1, 148979, Note_off_c, 1, 58, 0
1, 149100, Note_on_c, 1, 55, 127
1, 149159, Note_off_c, 1, 55, 0
1, 149160, Note_on_c, 1, 52, 127
1, 149219, Note_off_c, 1, 52, 0
1, 149220, Note_on_c, 1, 70, 127
1, 149310, Note_on_c, 1, 50, 127
1, 149339, Note_off_c, 1, 50, 0
1, 149369, Note_off_c, 1, 70, 0
1, 149370, Note_on_c, 1, 49, 127
1, 149399, Note_off_c, 1, 49, 0
1, 149580, Note_on_c, 1, 47, 127
1, 149639, Note_off_c, 1, 47, 0
1, 149760, Note_on_c, 1, 46, 127
1, 149999, Note_off_c, 1, 46, 0
1, 150240, Note_on_c, 1, 83, 127
1, 150269, Note_off_c, 1, 83, 0
1, 150300, Note_on_c, 1, 67, 127
1, 150419, Note_off_c, 1, 67, 0
1, 150420, Note_on_c, 1, 40, 127
1, 150479, Note_off_c, 1, 40, 0
1, 150480, Note_on_c, 1, 42, 127
1, 150539, Note_off_c, 1, 42, 0
1, 150840, Note_on_c, 1, 54, 127
1, 150840, Note_on_c, 1, 42, 127
1, 150840, Note_on_c, 1, 74, 127
1, 150840, Note_on_c, 1, 69, 127
1, 150840, Note_on_c, 1, 66, 127
1, 151020, Note_on_c, 1, 71, 127
1, 151080, Note_off_c, 1, 74, 0
1, 151080, Note_off_c, 1, 71, 0
1, 151080, Note_on_c, 1, 72, 127
1, 151200, Note_on_c, 1, 76, 127
1, 151260, Note_off_c, 1, 76, 0
1, 151320, Note_off_c, 1, 54, 0
1, 151320, Note_off_c, 1, 42, 0
1, 151320, Note_off_c, 1, 69, 0
1, 151320, Note_off_c, 1, 66, 0
1, 151320, Note_off_c, 1, 72, 0
1, 151320, Note_on_c, 1, 55, 127
1, 151320, Note_on_c, 1, 43, 127
1, 151320, Note_on_c, 1, 67, 127
1, 151320, Note_on_c, 1, 62, 127
1, 151800, Note_off_c, 1, 55, 0
1, 151800, Note_off_c, 1, 43, 0
1, 151800, Note_on_c, 1, 47, 127
1, 151800, Note_on_c, 1, 35, 127
1, 151860, Note_off_c, 1, 67, 0
1, 152040, Note_on_c, 1, 77, 127
1, 152160, Note_off_c, 1, 77, 0
1, 152160, Note_on_c, 1, 79, 127
1, 152220, Note_off_c, 1, 79, 0
1, 152280, Note_off_c, 1, 62, 0
1, 152280, Note_off_c, 1, 47, 0
1, 152280, Note_off_c, 1, 35, 0
1, 152280, Note_on_c, 1, 48, 127
1, 152280, Note_on_c, 1, 36, 127
1, 152280, Note_on_c, 1, 64, 127
1, 152280, Note_on_c, 1, 60, 127
1, 152520, Note_off_c, 1, 48, 0
1, 152520, Note_off_c, 1, 36, 0
1, 152520, Note_off_c, 1, 64, 0
1, 152520, Note_off_c, 1, 60, 0
1, 152520, Note_on_c, 1, 44, 127
1, 152520, Note_on_c, 1, 32, 127
1, 152520, Note_on_c, 1, 65, 127
1, 152520, Note_on_c, 1, 68, 127
1, 152640, Note_off_c, 1, 65, 0
1, 152790, Note_off_c, 1, 44, 0
1, 152790, Note_off_c, 1, 32, 0
1, 152790, Note_on_c, 1, 53, 127
1, 152819, Note_off_c, 1, 53, 0
1, 152820, Note_on_c, 1, 50, 127
1, 152849, Note_off_c, 1, 50, 0
1, 152850, Note_on_c, 1, 59, 127
1, 152879, Note_off_c, 1, 59, 0
1, 152880, Note_on_c, 1, 56, 127
1, 152909, Note_off_c, 1, 56, 0
1, 152970, Note_on_c, 1, 52, 127
1, 152970, Note_on_c, 1, 40, 127
1, 152999, Note_off_c, 1, 52, 0
1, 152999, Note_off_c, 1, 40, 0
1, 153000, Note_off_c, 1, 68, 0
1, 153000, Note_on_c, 1, 45, 127
1, 153000, Note_on_c, 1, 33, 127
1, 153029, Note_off_c, 1, 45, 0
1, 153029, Note_off_c, 1, 33, 0
1, 153060, Note_on_c, 1, 61, 127
1, 153060, Note_on_c, 1, 49, 127
1, 153089, Note_off_c, 1, 61, 0
1, 153089, Note_off_c, 1, 49, 0
1, 153090, Note_on_c, 1, 57, 127
1, 153119, Note_off_c, 1, 57, 0
1, 153210, Note_on_c, 1, 38, 127
1, 153239, Note_off_c, 1, 38, 0
1, 153240, Note_on_c, 1, 31, 127
1, 153269, Note_off_c, 1, 31, 0
1, 153330, Note_on_c, 1, 37, 127
1, 153359, Note_off_c, 1, 37, 0
1, 153420, Note_on_c, 1, 26, 127
1, 153479, Note_off_c, 1, 26, 0
1, 153960, Note_on_c, 1, 71, 127
1, 153960, Note_on_c, 1, 67, 127
1, 153960, Note_on_c, 1, 62, 127
1, 153960, Note_on_c, 1, 55, 127
1, 153960, Note_on_c, 1, 43, 127
1, 154055, Note_off_c, 1, 71, 0
1, 154055, Note_off_c, 1, 67, 0
1, 154055, Note_off_c, 1, 62, 0
1, 154055, Note_off_c, 1, 55, 0
1, 154055, Note_off_c, 1, 43, 0
1, 154080, Note_on_c, 1, 69, 127
1, 154080, Note_on_c, 1, 72, 127
1, 154080, Note_on_c, 1, 64, 127
1, 154080, Note_on_c, 1, 52, 127
1, 154080, Note_on_c, 1, 40, 127
1, 154127, Note_off_c, 1, 69, 0
1, 154140, Note_on_c, 1, 67, 127
1, 154175, Note_off_c, 1, 72, 0
1, 154175, Note_off_c, 1, 64, 0
1, 154175, Note_off_c, 1, 52, 0
1, 154175, Note_off_c, 1, 40, 0
1, 154187, Note_off_c, 1, 67, 0
1, 154200, Note_on_c, 1, 74, 127
1, 154200, Note_on_c, 1, 71, 127
1, 154200, Note_on_c, 1, 67, 127
1, 154200, Note_on_c, 1, 47, 127
1, 154200, Note_on_c, 1, 35, 127
1, 154295, Note_off_c, 1, 71, 0
1, 154295, Note_off_c, 1, 67, 0
1, 154295, Note_off_c, 1, 47, 0
1, 154295, Note_off_c, 1, 35, 0
1, 154320, Note_on_c, 1, 60, 127
1, 154320, Note_on_c, 1, 48, 127
1, 154320, Note_on_c, 1, 36, 127
1, 154343, Note_off_c, 1, 74, 0
1, 154380, Note_on_c, 1, 76, 127
1, 154415, Note_off_c, 1, 60, 0
1, 154415, Note_off_c, 1, 48, 0
1, 154415, Note_off_c, 1, 36, 0
1, 154427, Note_off_c, 1, 76, 0
1, 154440, Note_on_c, 1, 72, 127
1, 154440, Note_on_c, 1, 66, 127
1, 154440, Note_on_c, 1, 60, 127
1, 154440, Note_on_c, 1, 45, 127
1, 154440, Note_on_c, 1, 33, 127
1, 154535, Note_off_c, 1, 72, 0
1, 154535, Note_off_c, 1, 66, 0
1, 154535, Note_off_c, 1, 60, 0
1, 154535, Note_off_c, 1, 45, 0
1, 154535, Note_off_c, 1, 33, 0
1, 154560, Note_on_c, 1, 71, 127
1, 154560, Note_on_c, 1, 67, 127
1, 154560, Note_on_c, 1, 62, 127
1, 154560, Note_on_c, 1, 43, 127
1, 154560, Note_on_c, 1, 31, 127
1, 154607, Note_off_c, 1, 71, 0
1, 154620, Note_on_c, 1, 69, 127
1, 154655, Note_off_c, 1, 67, 0
1, 154655, Note_off_c, 1, 62, 0
1, 154655, Note_off_c, 1, 43, 0
1, 154655, Note_off_c, 1, 31, 0
1, 154667, Note_off_c, 1, 69, 0
1, 154680, Note_on_c, 1, 69, 127
1, 154680, Note_on_c, 1, 66, 127
1, 154680, Note_on_c, 1, 62, 127
1, 154680, Note_on_c, 1, 50, 127
1, 154680, Note_on_c, 1, 38, 127
1, 154775, Note_off_c, 1, 50, 0
1, 154775, Note_off_c, 1, 38, 0
1, 154800, Note_on_c, 1, 48, 127
1, 154800, Note_on_c, 1, 36, 127
1, 154871, Note_off_c, 1, 69, 0
1, 154871, Note_off_c, 1, 66, 0
1, 154871, Note_off_c, 1, 62, 0
1, 154895, Note_off_c, 1, 48, 0
1, 154895, Note_off_c, 1, 36, 0
1, 154920, Note_on_c, 1, 74, 127
1, 154920, Note_on_c, 1, 67, 127
1, 154920, Note_on_c, 1, 62, 127
1, 154920, Note_on_c, 1, 47, 127
1, 154920, Note_on_c, 1, 35, 127
1, 155015, Note_off_c, 1, 74, 0
1, 155015, Note_off_c, 1, 67, 0
1, 155015, Note_off_c, 1, 62, 0
1, 155015, Note_off_c, 1, 47, 0
1, 155015, Note_off_c, 1, 35, 0
1, 155040, Note_on_c, 1, 71, 127
1, 155040, Note_on_c, 1, 66, 127
1, 155040, Note_on_c, 1, 62, 127
1, 155040, Note_on_c, 1, 50, 127
1, 155040, Note_on_c, 1, 38, 127
1, 155135, Note_off_c, 1, 71, 0
1, 155135, Note_off_c, 1, 66, 0
1, 155135, Note_off_c, 1, 62, 0
1, 155135, Note_off_c, 1, 50, 0
1, 155135, Note_off_c, 1, 38, 0
1, 155160, Note_on_c, 1, 67, 127
1, 155160, Note_on_c, 1, 64, 127
1, 155160, Note_on_c, 1, 59, 127
1, 155160, Note_on_c, 1, 52, 127
1, 155160, Note_on_c, 1, 40, 127
1, 155255, Note_off_c, 1, 64, 0
1, 155255, Note_off_c, 1, 59, 0
1, 155255, Note_off_c, 1, 52, 0
1, 155255, Note_off_c, 1, 40, 0
1, 155280, Note_on_c, 1, 48, 127
1, 155280, Note_on_c, 1, 36, 127
1, 155340, Note_on_c, 1, 72, 127
1, 155375, Note_off_c, 1, 67, 0
1, 155375, Note_off_c, 1, 48, 0
1, 155375, Note_off_c, 1, 36, 0
1, 155387, Note_off_c, 1, 72, 0
1, 155400, Note_on_c, 1, 69, 127
1, 155400, Note_on_c, 1, 67, 127
1, 155400, Note_on_c, 1, 62, 127
1, 155400, Note_on_c, 1, 50, 127
1, 155400, Note_on_c, 1, 38, 127
1, 155495, Note_off_c, 1, 69, 0
1, 155495, Note_off_c, 1, 67, 0
1, 155495, Note_off_c, 1, 62, 0
1, 155495, Note_off_c, 1, 50, 0
1, 155495, Note_off_c, 1, 38, 0
1, 155520, Note_on_c, 1, 74, 127
1, 155520, Note_on_c, 1, 66, 127
1, 155520, Note_on_c, 1, 57, 127
1, 155520, Note_on_c, 1, 38, 127
1, 155520, Note_on_c, 1, 26, 127
1, 155615, Note_off_c, 1, 74, 0
1, 155615, Note_off_c, 1, 66, 0
1, 155615, Note_off_c, 1, 57, 0
1, 155615, Note_off_c, 1, 38, 0
1, 155615, Note_off_c, 1, 26, 0
1, 155640, Note_on_c, 1, 71, 127
1, 155640, Note_on_c, 1, 67, 127
1, 155640, Note_on_c, 1, 55, 127
1, 155640, Note_on_c, 1, 43, 127
1, 155640, Note_on_c, 1, 31, 127
1, 155656, Note_off_c, 1, 71, 0
1, 155660, Note_on_c, 1, 72, 127
1, 155676, Note_off_c, 1, 72, 0
1, 155760, Note_on_c, 1, 69, 127
1, 155807, Note_off_c, 1, 69, 0
1, 155831, Note_off_c, 1, 55, 0
1, 155831, Note_off_c, 1, 43, 0
1, 155831, Note_off_c, 1, 31, 0
1, 155867, Note_off_c, 1, 67, 0
1, 155880, Note_on_c, 1, 71, 127
1, 155880, Note_on_c, 1, 67, 127
1, 155880, Note_on_c, 1, 62, 127
1, 155880, Note_on_c, 1, 55, 127
1, 155880, Note_on_c, 1, 43, 127
1, 155975, Note_off_c, 1, 71, 0
1, 155975, Note_off_c, 1, 67, 0
1, 155975, Note_off_c, 1, 62, 0
1, 155975, Note_off_c, 1, 55, 0
1, 155975, Note_off_c, 1, 43, 0
1, 156000, Note_on_c, 1, 76, 127
1, 156000, Note_on_c, 1, 71, 127
1, 156000, Note_on_c, 1, 67, 127
1, 156000, Note_on_c, 1, 52, 127
1, 156000, Note_on_c, 1, 40, 127
1, 156095, Note_off_c, 1, 76, 0
1, 156095, Note_off_c, 1, 71, 0
1, 156095, Note_off_c, 1, 67, 0
1, 156095, Note_off_c, 1, 52, 0
1, 156095, Note_off_c, 1, 40, 0
1, 156120, Note_on_c, 1, 73, 127
1, 156120, Note_on_c, 1, 69, 127
1, 156120, Note_on_c, 1, 64, 127
1, 156120, Note_on_c, 1, 57, 127
1, 156120, Note_on_c, 1, 45, 127
1, 156215, Note_off_c, 1, 69, 0
1, 156215, Note_off_c, 1, 64, 0
1, 156215, Note_off_c, 1, 57, 0
1, 156215, Note_off_c, 1, 45, 0
1, 156240, Note_on_c, 1, 66, 127
1, 156240, Note_on_c, 1, 54, 127
1, 156240, Note_on_c, 1, 42, 127
1, 156263, Note_off_c, 1, 73, 0
1, 156300, Note_on_c, 1, 74, 127
1, 156335, Note_off_c, 1, 66, 0
1, 156335, Note_off_c, 1, 54, 0
1, 156335, Note_off_c, 1, 42, 0
1, 156347, Note_off_c, 1, 74, 0
1, 156360, Note_on_c, 1, 76, 127
1, 156360, Note_on_c, 1, 73, 127
1, 156360, Note_on_c, 1, 67, 127
1, 156360, Note_on_c, 1, 52, 127
1, 156360, Note_on_c, 1, 40, 127
1, 156455, Note_off_c, 1, 76, 0
1, 156455, Note_off_c, 1, 73, 0
1, 156455, Note_off_c, 1, 67, 0
1, 156455, Note_off_c, 1, 52, 0
1, 156455, Note_off_c, 1, 40, 0
1, 156480, Note_on_c, 1, 78, 127
1, 156480, Note_on_c, 1, 74, 127
1, 156480, Note_on_c, 1, 69, 127
1, 156480, Note_on_c, 1, 50, 127
1, 156480, Note_on_c, 1, 38, 127
1, 156527, Note_off_c, 1, 78, 0
1, 156540, Note_on_c, 1, 79, 127
1, 156575, Note_off_c, 1, 74, 0
1, 156575, Note_off_c, 1, 69, 0
1, 156575, Note_off_c, 1, 50, 0
1, 156575, Note_off_c, 1, 38, 0
1, 156587, Note_off_c, 1, 79, 0
1, 156600, Note_on_c, 1, 76, 127
1, 156600, Note_on_c, 1, 73, 127
1, 156600, Note_on_c, 1, 69, 127
1, 156600, Note_on_c, 1, 57, 127
1, 156600, Note_on_c, 1, 45, 127
1, 156695, Note_off_c, 1, 57, 0
1, 156695, Note_off_c, 1, 45, 0
1, 156720, Note_on_c, 1, 55, 127
1, 156720, Note_on_c, 1, 43, 127
1, 156791, Note_off_c, 1, 76, 0
1, 156791, Note_off_c, 1, 73, 0
1, 156791, Note_off_c, 1, 69, 0
1, 156815, Note_off_c, 1, 55, 0
1, 156815, Note_off_c, 1, 43, 0
1, 156840, Note_on_c, 1, 81, 127
1, 156840, Note_on_c, 1, 74, 127
1, 156840, Note_on_c, 1, 69, 127
1, 156840, Note_on_c, 1, 54, 127
1, 156840, Note_on_c, 1, 42, 127
1, 156935, Note_off_c, 1, 81, 0
1, 156935, Note_off_c, 1, 74, 0
1, 156935, Note_off_c, 1, 69, 0
1, 156935, Note_off_c, 1, 54, 0
1, 156935, Note_off_c, 1, 42, 0
1, 156960, Note_on_c, 1, 73, 127
1, 156960, Note_on_c, 1, 69, 127
1, 156960, Note_on_c, 1, 67, 127
1, 156960, Note_on_c, 1, 57, 127
1, 156960, Note_on_c, 1, 45, 127
1, 157055, Note_off_c, 1, 73, 0
1, 157055, Note_off_c, 1, 69, 0
1, 157055, Note_off_c, 1, 67, 0
1, 157055, Note_off_c, 1, 57, 0
1, 157055, Note_off_c, 1, 45, 0
1, 157080, Note_on_c, 1, 74, 127
1, 157080, Note_on_c, 1, 62, 127
1, 157080, Note_on_c, 1, 66, 127
1, 157080, Note_on_c, 1, 59, 127
1, 157080, Note_on_c, 1, 47, 127
1, 157175, Note_off_c, 1, 66, 0
1, 157175, Note_off_c, 1, 59, 0
1, 157175, Note_off_c, 1, 47, 0
1, 157200, Note_on_c, 1, 71, 127
1, 157200, Note_on_c, 1, 55, 127
1, 157200, Note_on_c, 1, 43, 127
1, 157223, Note_off_c, 1, 74, 0
1, 157223, Note_off_c, 1, 62, 0
1, 157260, Note_on_c, 1, 76, 127
1, 157295, Note_off_c, 1, 71, 0
1, 157295, Note_off_c, 1, 55, 0
1, 157295, Note_off_c, 1, 43, 0
1, 157307, Note_off_c, 1, 76, 0
1, 157320, Note_on_c, 1, 76, 127
1, 157320, Note_on_c, 1, 73, 127
1, 157320, Note_on_c, 1, 69, 127
1, 157320, Note_on_c, 1, 57, 127
1, 157320, Note_on_c, 1, 45, 127
1, 157415, Note_off_c, 1, 69, 0
1, 157415, Note_off_c, 1, 57, 0
1, 157415, Note_off_c, 1, 45, 0
1, 157440, Note_on_c, 1, 64, 127
1, 157440, Note_on_c, 1, 33, 127
1, 157463, Note_off_c, 1, 76, 0
1, 157463, Note_off_c, 1, 73, 0
1, 157500, Note_on_c, 1, 74, 127
1, 157535, Note_off_c, 1, 64, 0
1, 157535, Note_off_c, 1, 33, 0
1, 157547, Note_off_c, 1, 74, 0
1, 157560, Note_on_c, 1, 74, 127
1, 157560, Note_on_c, 1, 66, 127
1, 157560, Note_on_c, 1, 50, 127
1, 157560, Note_on_c, 1, 38, 127
1, 157703, Note_off_c, 1, 50, 0
1, 157703, Note_off_c, 1, 38, 0
1, 157740, Note_on_c, 1, 48, 127
1, 157740, Note_on_c, 1, 36, 127
1, 157751, Note_off_c, 1, 74, 0
1, 157751, Note_off_c, 1, 66, 0
1, 157787, Note_off_c, 1, 48, 0
1, 157787, Note_off_c, 1, 36, 0
1, 157800, Note_on_c, 1, 79, 127
1, 157800, Note_on_c, 1, 74, 127
1, 157800, Note_on_c, 1, 62, 127
1, 157800, Note_on_c, 1, 47, 127
1, 157800, Note_on_c, 1, 35, 127
1, 157895, Note_off_c, 1, 79, 0
1, 157895, Note_off_c, 1, 74, 0
1, 157895, Note_off_c, 1, 62, 0
1, 157895, Note_off_c, 1, 47, 0
1, 157895, Note_off_c, 1, 35, 0
1, 157920, Note_on_c, 1, 74, 127
1, 157920, Note_on_c, 1, 71, 127
1, 157920, Note_on_c, 1, 67, 127
1, 157920, Note_on_c, 1, 43, 127
1, 157920, Note_on_c, 1, 31, 127
1, 158015, Note_off_c, 1, 74, 0
1, 158015, Note_off_c, 1, 71, 0
1, 158015, Note_off_c, 1, 67, 0
1, 158015, Note_off_c, 1, 43, 0
1, 158015, Note_off_c, 1, 31, 0
1, 158040, Note_on_c, 1, 76, 127
1, 158040, Note_on_c, 1, 72, 127
1, 158040, Note_on_c, 1, 67, 127
1, 158040, Note_on_c, 1, 48, 127
1, 158040, Note_on_c, 1, 36, 127
1, 158135, Note_off_c, 1, 72, 0
1, 158135, Note_off_c, 1, 67, 0
1, 158135, Note_off_c, 1, 48, 0
1, 158135, Note_off_c, 1, 36, 0
1, 158160, Note_on_c, 1, 64, 127
1, 158160, Note_on_c, 1, 60, 127
1, 158183, Note_off_c, 1, 76, 0
1, 158220, Note_on_c, 1, 77, 127
1, 158220, Note_on_c, 1, 69, 127
1, 158255, Note_off_c, 1, 64, 0
1, 158255, Note_off_c, 1, 60, 0
1, 158267, Note_off_c, 1, 77, 0
1, 158267, Note_off_c, 1, 69, 0
1, 158280, Note_on_c, 1, 76, 127
1, 158280, Note_on_c, 1, 71, 127
1, 158280, Note_on_c, 1, 64, 127
1, 158280, Note_on_c, 1, 56, 127
1, 158280, Note_on_c, 1, 44, 127
1, 158327, Note_off_c, 1, 76, 0
1, 158340, Note_on_c, 1, 74, 127
1, 158375, Note_off_c, 1, 71, 0
1, 158375, Note_off_c, 1, 64, 0
1, 158375, Note_off_c, 1, 56, 0
1, 158375, Note_off_c, 1, 44, 0
1, 158387, Note_off_c, 1, 74, 0
1, 158400, Note_on_c, 1, 72, 127
1, 158400, Note_on_c, 1, 68, 127
1, 158400, Note_on_c, 1, 64, 127
1, 158400, Note_on_c, 1, 52, 127
1, 158400, Note_on_c, 1, 40, 127
1, 158447, Note_off_c, 1, 72, 0
1, 158460, Note_on_c, 1, 71, 127
1, 158495, Note_off_c, 1, 68, 0
1, 158495, Note_off_c, 1, 64, 0
1, 158495, Note_off_c, 1, 52, 0
1, 158495, Note_off_c, 1, 40, 0
1, 158507, Note_off_c, 1, 71, 0
1, 158520, Note_on_c, 1, 72, 127
1, 158520, Note_on_c, 1, 69, 127
1, 158520, Note_on_c, 1, 64, 127
1, 158520, Note_on_c, 1, 57, 127
1, 158520, Note_on_c, 1, 45, 127
1, 158615, Note_off_c, 1, 57, 0
1, 158615, Note_off_c, 1, 45, 0
1, 158640, Note_on_c, 1, 55, 127
1, 158640, Note_on_c, 1, 43, 127
1, 158711, Note_off_c, 1, 72, 0
1, 158711, Note_off_c, 1, 69, 0
1, 158711, Note_off_c, 1, 64, 0
1, 158735, Note_off_c, 1, 55, 0
1, 158735, Note_off_c, 1, 43, 0
1, 158760, Note_on_c, 1, 74, 127
1, 158760, Note_on_c, 1, 69, 127
1, 158760, Note_on_c, 1, 62, 127
1, 158760, Note_on_c, 1, 54, 127
1, 158760, Note_on_c, 1, 42, 127
1, 158855, Note_off_c, 1, 74, 0
1, 158855, Note_off_c, 1, 69, 0
1, 158855, Note_off_c, 1, 62, 0
1, 158855, Note_off_c, 1, 54, 0
1, 158855, Note_off_c, 1, 42, 0
1, 158880, Note_on_c, 1, 69, 127
1, 158880, Note_on_c, 1, 66, 127
1, 158880, Note_on_c, 1, 62, 127
1, 158880, Note_on_c, 1, 50, 127
1, 158880, Note_on_c, 1, 38, 127
1, 158975, Note_off_c, 1, 69, 0
1, 158975, Note_off_c, 1, 66, 0
1, 158975, Note_off_c, 1, 62, 0
1, 158975, Note_off_c, 1, 50, 0
1, 158975, Note_off_c, 1, 38, 0
1, 159000, Note_on_c, 1, 71, 127
1, 159000, Note_on_c, 1, 62, 127
1, 159000, Note_on_c, 1, 59, 127
1, 159000, Note_on_c, 1, 55, 127
1, 159000, Note_on_c, 1, 43, 127
1, 159095, Note_off_c, 1, 71, 0
1, 159095, Note_off_c, 1, 62, 0
1, 159095, Note_off_c, 1, 59, 0
1, 159095, Note_off_c, 1, 55, 0
1, 159095, Note_off_c, 1, 43, 0
1, 159120, Note_on_c, 1, 67, 127
1, 159120, Note_on_c, 1, 62, 127
1, 159120, Note_on_c, 1, 59, 127
1, 159120, Note_on_c, 1, 52, 127
1, 159120, Note_on_c, 1, 40, 127
1, 159215, Note_off_c, 1, 67, 0
1, 159215, Note_off_c, 1, 62, 0
1, 159215, Note_off_c, 1, 59, 0
1, 159215, Note_off_c, 1, 52, 0
1, 159215, Note_off_c, 1, 40, 0
1, 159240, Note_on_c, 1, 64, 127
1, 159240, Note_on_c, 1, 62, 127
1, 159240, Note_on_c, 1, 57, 127
1, 159240, Note_on_c, 1, 45, 127
1, 159335, Note_off_c, 1, 64, 0
1, 159335, Note_off_c, 1, 62, 0
1, 159335, Note_off_c, 1, 57, 0
1, 159335, Note_off_c, 1, 45, 0
1, 159360, Note_on_c, 1, 69, 127
1, 159360, Note_on_c, 1, 61, 127
1, 159360, Note_on_c, 1, 57, 127
1, 159360, Note_on_c, 1, 45, 127
1, 159360, Note_on_c, 1, 33, 127
1, 159455, Note_off_c, 1, 69, 0
1, 159455, Note_off_c, 1, 61, 0
1, 159455, Note_off_c, 1, 57, 0
1, 159455, Note_off_c, 1, 45, 0
1, 159455, Note_off_c, 1, 33, 0
1, 159480, Note_on_c, 1, 66, 127
1, 159480, Note_on_c, 1, 62, 127
1, 159480, Note_on_c, 1, 57, 127
1, 159480, Note_on_c, 1, 50, 127
1, 159480, Note_on_c, 1, 38, 127
1, 159575, Note_off_c, 1, 66, 0
1, 159575, Note_off_c, 1, 50, 0
1, 159575, Note_off_c, 1, 38, 0
1, 159600, Note_on_c, 1, 64, 127
1, 159600, Note_on_c, 1, 52, 127
1, 159600, Note_on_c, 1, 40, 127
1, 159647, Note_off_c, 1, 64, 0
1, 159671, Note_off_c, 1, 57, 0
1, 159695, Note_off_c, 1, 52, 0
1, 159695, Note_off_c, 1, 40, 0
1, 159707, Note_off_c, 1, 62, 0
1, 159720, Note_on_c, 1, 69, 127
1, 159720, Note_on_c, 1, 62, 127
1, 159720, Note_on_c, 1, 54, 127
1, 159720, Note_on_c, 1, 42, 127
1, 159815, Note_off_c, 1, 69, 0
1, 159815, Note_off_c, 1, 62, 0
1, 159815, Note_off_c, 1, 54, 0
1, 159815, Note_off_c, 1, 42, 0
1, 159840, Note_on_c, 1, 74, 127
1, 159840, Note_on_c, 1, 66, 127
1, 159840, Note_on_c, 1, 62, 127
1, 159840, Note_on_c, 1, 50, 127
1, 159840, Note_on_c, 1, 38, 127
1, 159935, Note_off_c, 1, 74, 0
1, 159935, Note_off_c, 1, 66, 0
1, 159935, Note_off_c, 1, 62, 0
1, 159935, Note_off_c, 1, 50, 0
1, 159935, Note_off_c, 1, 38, 0
1, 159960, Note_on_c, 1, 71, 127
1, 159960, Note_on_c, 1, 67, 127
1, 159960, Note_on_c, 1, 62, 127
1, 159960, Note_on_c, 1, 55, 127
1, 159960, Note_on_c, 1, 43, 127
1, 160055, Note_off_c, 1, 55, 0
1, 160055, Note_off_c, 1, 43, 0
1, 160080, Note_on_c, 1, 53, 127
1, 160080, Note_on_c, 1, 41, 127
1, 160103, Note_off_c, 1, 71, 0
1, 160103, Note_off_c, 1, 67, 0
1, 160103, Note_off_c, 1, 62, 0
1, 160175, Note_off_c, 1, 53, 0
1, 160175, Note_off_c, 1, 41, 0
1, 160200, Note_on_c, 1, 72, 127
1, 160200, Note_on_c, 1, 69, 127
1, 160200, Note_on_c, 1, 64, 127
1, 160200, Note_on_c, 1, 52, 127
1, 160200, Note_on_c, 1, 40, 127
1, 160295, Note_off_c, 1, 72, 0
1, 160295, Note_off_c, 1, 69, 0
1, 160295, Note_off_c, 1, 64, 0
1, 160295, Note_off_c, 1, 52, 0
1, 160295, Note_off_c, 1, 40, 0
1, 160320, Note_on_c, 1, 74, 127
1, 160320, Note_on_c, 1, 71, 127
1, 160320, Note_on_c, 1, 65, 127
1, 160320, Note_on_c, 1, 50, 127
1, 160320, Note_on_c, 1, 38, 127
1, 160415, Note_off_c, 1, 74, 0
1, 160415, Note_off_c, 1, 71, 0
1, 160415, Note_off_c, 1, 65, 0
1, 160415, Note_off_c, 1, 50, 0
1, 160415, Note_off_c, 1, 38, 0
1, 160440, Note_on_c, 1, 76, 127
1, 160440, Note_on_c, 1, 72, 127
1, 160440, Note_on_c, 1, 67, 127
1, 160440, Note_on_c, 1, 48, 127
1, 160440, Note_on_c, 1, 36, 127
1, 160535, Note_off_c, 1, 48, 0
1, 160535, Note_off_c, 1, 36, 0
1, 160560, Note_on_c, 1, 47, 127
1, 160560, Note_on_c, 1, 35, 127
1, 160583, Note_off_c, 1, 76, 0
1, 160583, Note_off_c, 1, 72, 0
1, 160583, Note_off_c, 1, 67, 0
1, 160620, Note_on_c, 1, 74, 127
1, 160655, Note_off_c, 1, 47, 0
1, 160655, Note_off_c, 1, 35, 0
1, 160667, Note_off_c, 1, 74, 0
1, 160680, Note_on_c, 1, 76, 127
1, 160680, Note_on_c, 1, 67, 127
1, 160680, Note_on_c, 1, 64, 127
1, 160680, Note_on_c, 1, 48, 127
1, 160680, Note_on_c, 1, 36, 127
1, 160775, Note_off_c, 1, 76, 0
1, 160775, Note_off_c, 1, 67, 0
1, 160775, Note_off_c, 1, 64, 0
1, 160775, Note_off_c, 1, 48, 0
1, 160775, Note_off_c, 1, 36, 0
1, 160800, Note_on_c, 1, 78, 127
1, 160800, Note_on_c, 1, 72, 127
1, 160800, Note_on_c, 1, 69, 127
1, 160800, Note_on_c, 1, 45, 127
1, 160800, Note_on_c, 1, 33, 127
1, 160895, Note_off_c, 1, 78, 0
1, 160895, Note_off_c, 1, 72, 0
1, 160895, Note_off_c, 1, 69, 0
1, 160895, Note_off_c, 1, 45, 0
1, 160895, Note_off_c, 1, 33, 0
1, 160920, Note_on_c, 1, 79, 127
1, 160920, Note_on_c, 1, 67, 127
1, 160920, Note_on_c, 1, 62, 127
1, 160920, Note_on_c, 1, 47, 127
1, 160920, Note_on_c, 1, 35, 127
1, 160967, Note_off_c, 1, 79, 0
1, 160980, Note_on_c, 1, 71, 127
1, 161015, Note_off_c, 1, 67, 0
1, 161015, Note_off_c, 1, 62, 0
1, 161015, Note_off_c, 1, 47, 0
1, 161015, Note_off_c, 1, 35, 0
1, 161027, Note_off_c, 1, 71, 0
1, 161040, Note_on_c, 1, 72, 127
1, 161040, Note_on_c, 1, 69, 127
1, 161040, Note_on_c, 1, 60, 127
1, 161040, Note_on_c, 1, 45, 127
1, 161040, Note_on_c, 1, 33, 127
1, 161087, Note_off_c, 1, 72, 0
1, 161087, Note_off_c, 1, 69, 0
1, 161087, Note_off_c, 1, 60, 0
1, 161087, Note_off_c, 1, 45, 0
1, 161087, Note_off_c, 1, 33, 0
1, 161100, Note_on_c, 1, 74, 127
1, 161100, Note_on_c, 1, 71, 127
1, 161100, Note_on_c, 1, 59, 127
1, 161100, Note_on_c, 1, 43, 127
1, 161100, Note_on_c, 1, 31, 127
1, 161147, Note_off_c, 1, 74, 0
1, 161147, Note_off_c, 1, 71, 0
1, 161147, Note_off_c, 1, 59, 0
1, 161147, Note_off_c, 1, 43, 0
1, 161147, Note_off_c, 1, 31, 0
1, 161160, Note_on_c, 1, 69, 127
1, 161160, Note_on_c, 1, 66, 127
1, 161160, Note_on_c, 1, 57, 127
1, 161160, Note_on_c, 1, 50, 127
1, 161160, Note_on_c, 1, 38, 127
1, 161190, Note_on_c, 1, 71, 127
1, 161220, Note_off_c, 1, 71, 0
1, 161255, Note_off_c, 1, 57, 0
1, 161255, Note_off_c, 1, 50, 0
1, 161255, Note_off_c, 1, 38, 0
1, 161280, Note_on_c, 1, 62, 127
1, 161280, Note_on_c, 1, 26, 127
1, 161303, Note_off_c, 1, 69, 0
1, 161303, Note_off_c, 1, 66, 0
1, 161340, Note_on_c, 1, 67, 127
1, 161375, Note_off_c, 1, 62, 0
1, 161375, Note_off_c, 1, 26, 0
1, 161387, Note_off_c, 1, 67, 0
1, 161400, Note_on_c, 1, 67, 127
1, 161400, Note_on_c, 1, 59, 127
1, 161400, Note_on_c, 1, 43, 127
1, 161400, Note_on_c, 1, 31, 127
1, 161591, Note_off_c, 1, 67, 0
1, 161591, Note_off_c, 1, 59, 0
1, 161591, Note_off_c, 1, 43, 0
1, 161591, Note_off_c, 1, 31, 0
1, 161640, Note_on_c, 1, 67, 127
1, 161640, Note_on_c, 1, 72, 127
1, 161640, Note_on_c, 1, 55, 127
1, 161640, Note_on_c, 1, 43, 127
1, 161687, Note_off_c, 1, 67, 0
1, 161699, Note_off_c, 1, 72, 0
1, 161700, Note_on_c, 1, 71, 127
1, 161735, Note_off_c, 1, 55, 0
1, 161735, Note_off_c, 1, 43, 0
1, 161759, Note_off_c, 1, 71, 0
1, 161760, Note_on_c, 1, 74, 127
1, 161760, Note_on_c, 1, 69, 127
1, 161760, Note_on_c, 1, 52, 127
1, 161760, Note_on_c, 1, 40, 127
1, 161807, Note_off_c, 1, 74, 0
1, 161819, Note_off_c, 1, 69, 0
1, 161820, Note_on_c, 1, 79, 127
1, 161820, Note_on_c, 1, 67, 127
1, 161855, Note_off_c, 1, 52, 0
1, 161855, Note_off_c, 1, 40, 0
1, 161867, Note_off_c, 1, 79, 0
1, 161879, Note_off_c, 1, 67, 0
1, 161880, Note_on_c, 1, 67, 127
1, 161880, Note_on_c, 1, 74, 127
1, 161880, Note_on_c, 1, 47, 127
1, 161880, Note_on_c, 1, 35, 127
1, 161927, Note_off_c, 1, 67, 0
1, 161940, Note_on_c, 1, 71, 127
1, 161975, Note_off_c, 1, 47, 0
1, 161975, Note_off_c, 1, 35, 0
1, 161987, Note_off_c, 1, 71, 0
1, 162000, Note_on_c, 1, 76, 127
1, 162000, Note_on_c, 1, 48, 127
1, 162000, Note_on_c, 1, 36, 127
1, 162047, Note_off_c, 1, 76, 0
1, 162059, Note_off_c, 1, 74, 0
1, 162060, Note_on_c, 1, 79, 127
1, 162095, Note_off_c, 1, 48, 0
1, 162095, Note_off_c, 1, 36, 0
1, 162107, Note_off_c, 1, 79, 0
1, 162120, Note_on_c, 1, 78, 127
1, 162120, Note_on_c, 1, 74, 127
1, 162120, Note_on_c, 1, 45, 127
1, 162120, Note_on_c, 1, 33, 127
1, 162167, Note_off_c, 1, 78, 0
1, 162179, Note_off_c, 1, 74, 0
1, 162180, Note_on_c, 1, 81, 127
1, 162180, Note_on_c, 1, 72, 127
1, 162215, Note_off_c, 1, 45, 0
1, 162215, Note_off_c, 1, 33, 0
1, 162227, Note_off_c, 1, 81, 0
1, 162239, Note_off_c, 1, 72, 0
1, 162240, Note_on_c, 1, 74, 127
1, 162240, Note_on_c, 1, 71, 127
1, 162240, Note_on_c, 1, 67, 127
1, 162240, Note_on_c, 1, 62, 127
1, 162240, Note_on_c, 1, 43, 127
1, 162240, Note_on_c, 1, 31, 127
1, 162287, Note_off_c, 1, 74, 0
1, 162300, Note_on_c, 1, 79, 127
1, 162300, Note_on_c, 1, 72, 127
1, 162329, Note_off_c, 1, 72, 0
1, 162330, Note_on_c, 1, 69, 127
1, 162335, Note_off_c, 1, 67, 0
1, 162335, Note_off_c, 1, 62, 0
1, 162335, Note_off_c, 1, 43, 0
1, 162335, Note_off_c, 1, 31, 0
1, 162347, Note_off_c, 1, 79, 0
1, 162359, Note_off_c, 1, 69, 0
1, 162360, Note_off_c, 1, 71, 0
1, 162360, Note_on_c, 1, 57, 127
1, 162360, Note_on_c, 1, 50, 127
1, 162360, Note_on_c, 1, 38, 127
1, 162420, Note_on_c, 1, 78, 127
1, 162455, Note_off_c, 1, 50, 0
1, 162455, Note_off_c, 1, 38, 0
1, 162467, Note_off_c, 1, 78, 0
1, 162480, Note_on_c, 1, 76, 127
1, 162480, Note_on_c, 1, 48, 127
1, 162480, Note_on_c, 1, 36, 127
1, 162527, Note_off_c, 1, 76, 0
1, 162551, Note_off_c, 1, 57, 0
1, 162575, Note_off_c, 1, 48, 0
1, 162575, Note_off_c, 1, 36, 0
1, 162600, Note_on_c, 1, 47, 127
1, 162600, Note_on_c, 1, 35, 127
1, 162695, Note_off_c, 1, 47, 0
1, 162695, Note_off_c, 1, 35, 0
1, 162720, Note_on_c, 1, 74, 127
1, 162720, Note_on_c, 1, 72, 127
1, 162720, Note_on_c, 1, 50, 127
1, 162720, Note_on_c, 1, 38, 127
1, 162767, Note_off_c, 1, 74, 0
1, 162779, Note_off_c, 1, 72, 0
1, 162780, Note_on_c, 1, 79, 127
1, 162780, Note_on_c, 1, 71, 127
1, 162815, Note_off_c, 1, 50, 0
1, 162815, Note_off_c, 1, 38, 0
1, 162827, Note_off_c, 1, 79, 0
1, 162839, Note_off_c, 1, 71, 0
1, 162840, Note_on_c, 1, 67, 127
1, 162840, Note_on_c, 1, 52, 127
1, 162840, Note_on_c, 1, 40, 127
1, 162900, Note_on_c, 1, 71, 127
1, 162935, Note_off_c, 1, 52, 0
1, 162935, Note_off_c, 1, 40, 0
1, 162947, Note_off_c, 1, 71, 0
1, 162960, Note_on_c, 1, 76, 127
1, 162960, Note_on_c, 1, 48, 127
1, 162960, Note_on_c, 1, 36, 127
1, 163007, Note_off_c, 1, 76, 0
1, 163019, Note_off_c, 1, 67, 0
1, 163020, Note_on_c, 1, 79, 127
1, 163020, Note_on_c, 1, 72, 127
1, 163055, Note_off_c, 1, 48, 0
1, 163055, Note_off_c, 1, 36, 0
1, 163067, Note_off_c, 1, 79, 0
1, 163079, Note_off_c, 1, 72, 0
1, 163080, Note_on_c, 1, 78, 127
1, 163080, Note_on_c, 1, 71, 127
1, 163080, Note_on_c, 1, 50, 127
1, 163080, Note_on_c, 1, 38, 127
1, 163127, Note_off_c, 1, 78, 0
1, 163139, Note_off_c, 1, 71, 0
1, 163140, Note_on_c, 1, 81, 127
1, 163140, Note_on_c, 1, 69, 127
1, 163175, Note_off_c, 1, 50, 0
1, 163175, Note_off_c, 1, 38, 0
1, 163187, Note_off_c, 1, 81, 0
1, 163199, Note_off_c, 1, 69, 0
1, 163200, Note_on_c, 1, 69, 127
1, 163200, Note_on_c, 1, 74, 127
1, 163200, Note_on_c, 1, 66, 127
1, 163200, Note_on_c, 1, 62, 127
1, 163200, Note_on_c, 1, 38, 127
1, 163200, Note_on_c, 1, 26, 127
1, 163260, Note_on_c, 1, 79, 127
1, 163295, Note_off_c, 1, 69, 0
1, 163295, Note_off_c, 1, 66, 0
1, 163295, Note_off_c, 1, 62, 0
1, 163295, Note_off_c, 1, 38, 0
1, 163295, Note_off_c, 1, 26, 0
1, 163307, Note_off_c, 1, 79, 0
1, 163319, Note_off_c, 1, 74, 0
1, 163320, Note_on_c, 1, 67, 127
1, 163320, Note_on_c, 1, 79, 127
1, 163320, Note_on_c, 1, 62, 127
1, 163320, Note_on_c, 1, 72, 127
1, 163320, Note_on_c, 1, 43, 127
1, 163320, Note_on_c, 1, 31, 127
1, 163367, Note_off_c, 1, 79, 0
1, 163379, Note_off_c, 1, 72, 0
1, 163380, Note_on_c, 1, 78, 127
1, 163380, Note_on_c, 1, 71, 127
1, 163415, Note_off_c, 1, 43, 0
1, 163415, Note_off_c, 1, 31, 0
1, 163427, Note_off_c, 1, 78, 0
1, 163439, Note_off_c, 1, 71, 0
1, 163440, Note_on_c, 1, 76, 127
1, 163440, Note_on_c, 1, 69, 127
1, 163440, Note_on_c, 1, 50, 127
1, 163440, Note_on_c, 1, 38, 127
1, 163487, Note_off_c, 1, 76, 0
1, 163499, Note_off_c, 1, 69, 0
1, 163500, Note_on_c, 1, 74, 127
1, 163511, Note_off_c, 1, 62, 0
1, 163535, Note_off_c, 1, 50, 0
1, 163535, Note_off_c, 1, 38, 0
1, 163547, Note_off_c, 1, 74, 0
1, 163559, Note_off_c, 1, 67, 0
1, 163560, Note_on_c, 1, 67, 127
1, 163560, Note_on_c, 1, 71, 127
1, 163560, Note_on_c, 1, 55, 127
1, 163560, Note_on_c, 1, 43, 127
1, 163607, Note_off_c, 1, 67, 0
1, 163655, Note_off_c, 1, 55, 0
1, 163655, Note_off_c, 1, 43, 0
1, 163679, Note_off_c, 1, 71, 0
1, 163680, Note_on_c, 1, 76, 127
1, 163680, Note_on_c, 1, 73, 127
1, 163680, Note_on_c, 1, 52, 127
1, 163680, Note_on_c, 1, 40, 127
1, 163727, Note_off_c, 1, 76, 0
1, 163739, Note_off_c, 1, 73, 0
1, 163740, Note_on_c, 1, 79, 127
1, 163740, Note_on_c, 1, 74, 127
1, 163769, Note_off_c, 1, 74, 0
1, 163775, Note_off_c, 1, 52, 0
1, 163775, Note_off_c, 1, 40, 0
1, 163787, Note_off_c, 1, 79, 0
1, 163800, Note_on_c, 1, 69, 127
1, 163800, Note_on_c, 1, 73, 127
1, 163800, Note_on_c, 1, 57, 127
1, 163800, Note_on_c, 1, 45, 127
1, 163847, Note_off_c, 1, 69, 0
1, 163895, Note_off_c, 1, 57, 0
1, 163895, Note_off_c, 1, 45, 0
1, 163920, Note_on_c, 1, 78, 127
1, 163920, Note_on_c, 1, 54, 127
1, 163920, Note_on_c, 1, 42, 127
1, 163967, Note_off_c, 1, 78, 0
1, 163979, Note_off_c, 1, 73, 0
1, 163980, Note_on_c, 1, 81, 127
1, 163980, Note_on_c, 1, 74, 127
1, 164015, Note_off_c, 1, 54, 0
1, 164015, Note_off_c, 1, 42, 0
1, 164027, Note_off_c, 1, 81, 0
1, 164039, Note_off_c, 1, 74, 0
1, 164040, Note_on_c, 1, 73, 127
1, 164040, Note_on_c, 1, 76, 127
1, 164040, Note_on_c, 1, 52, 127
1, 164040, Note_on_c, 1, 40, 127
1, 164087, Note_off_c, 1, 73, 0
1, 164099, Note_off_c, 1, 76, 0
1, 164100, Note_on_c, 1, 74, 127
1, 164100, Note_on_c, 1, 79, 127
1, 164135, Note_off_c, 1, 52, 0
1, 164135, Note_off_c, 1, 40, 0
1, 164147, Note_off_c, 1, 74, 0
1, 164159, Note_off_c, 1, 79, 0
1, 164160, Note_on_c, 1, 69, 127
1, 164160, Note_on_c, 1, 66, 127
1, 164160, Note_on_c, 1, 62, 127
1, 164160, Note_on_c, 1, 78, 127
1, 164160, Note_on_c, 1, 50, 127
1, 164160, Note_on_c, 1, 38, 127
1, 164219, Note_off_c, 1, 78, 0
1, 164220, Note_on_c, 1, 74, 127
1, 164220, Note_on_c, 1, 76, 127
1, 164255, Note_off_c, 1, 69, 0
1, 164255, Note_off_c, 1, 66, 0
1, 164255, Note_off_c, 1, 62, 0
1, 164255, Note_off_c, 1, 50, 0
1, 164255, Note_off_c, 1, 38, 0
1, 164267, Note_off_c, 1, 74, 0
1, 164279, Note_off_c, 1, 76, 0
1, 164280, Note_on_c, 1, 69, 127
1, 164280, Note_on_c, 1, 74, 127
1, 164280, Note_on_c, 1, 64, 127
1, 164280, Note_on_c, 1, 76, 127
1, 164280, Note_on_c, 1, 57, 127
1, 164280, Note_on_c, 1, 45, 127
1, 164327, Note_off_c, 1, 74, 0
1, 164340, Note_on_c, 1, 73, 127
1, 164375, Note_off_c, 1, 57, 0
1, 164375, Note_off_c, 1, 45, 0
1, 164387, Note_off_c, 1, 73, 0
1, 164400, Note_on_c, 1, 71, 127
1, 164400, Note_on_c, 1, 55, 127
1, 164400, Note_on_c, 1, 43, 127
1, 164447, Note_off_c, 1, 71, 0
1, 164471, Note_off_c, 1, 64, 0
1, 164495, Note_off_c, 1, 55, 0
1, 164495, Note_off_c, 1, 43, 0
1, 164507, Note_off_c, 1, 69, 0
1, 164519, Note_off_c, 1, 76, 0
1, 164520, Note_on_c, 1, 57, 127
1, 164520, Note_on_c, 1, 78, 127
1, 164520, Note_on_c, 1, 45, 127
1, 164579, Note_off_c, 1, 78, 0
1, 164580, Note_on_c, 1, 61, 127
1, 164580, Note_on_c, 1, 79, 127
1, 164609, Note_off_c, 1, 79, 0
1, 164610, Note_on_c, 1, 81, 127
1, 164615, Note_off_c, 1, 57, 0
1, 164615, Note_off_c, 1, 45, 0
1, 164627, Note_off_c, 1, 61, 0
1, 164639, Note_off_c, 1, 81, 0
1, 164640, Note_on_c, 1, 66, 127
1, 164640, Note_on_c, 1, 73, 127
1, 164640, Note_on_c, 1, 54, 127
1, 164640, Note_on_c, 1, 42, 127
1, 164687, Note_off_c, 1, 66, 0
1, 164700, Note_on_c, 1, 69, 127
1, 164735, Note_off_c, 1, 54, 0
1, 164735, Note_off_c, 1, 42, 0
1, 164747, Note_off_c, 1, 69, 0
1, 164759, Note_off_c, 1, 73, 0
1, 164760, Note_on_c, 1, 57, 127
1, 164760, Note_on_c, 1, 74, 127
1, 164760, Note_on_c, 1, 59, 127
1, 164760, Note_on_c, 1, 47, 127
1, 164807, Note_off_c, 1, 57, 0
1, 164820, Note_on_c, 1, 62, 127
1, 164855, Note_off_c, 1, 59, 0
1, 164855, Note_off_c, 1, 47, 0
1, 164867, Note_off_c, 1, 62, 0
1, 164880, Note_on_c, 1, 67, 127
1, 164880, Note_on_c, 1, 55, 127
1, 164880, Note_on_c, 1, 43, 127
1, 164927, Note_off_c, 1, 67, 0
1, 164939, Note_off_c, 1, 74, 0
1, 164940, Note_on_c, 1, 71, 127
1, 164940, Note_on_c, 1, 76, 127
1, 164975, Note_off_c, 1, 55, 0
1, 164975, Note_off_c, 1, 43, 0
1, 164987, Note_off_c, 1, 71, 0
1, 164999, Note_off_c, 1, 76, 0
1, 165000, Note_on_c, 1, 61, 127
1, 165000, Note_on_c, 1, 69, 127
1, 165000, Note_on_c, 1, 57, 127
1, 165000, Note_on_c, 1, 45, 127
1, 165047, Note_off_c, 1, 61, 0
1, 165059, Note_off_c, 1, 69, 0
1, 165060, Note_on_c, 1, 78, 127
1, 165095, Note_off_c, 1, 57, 0
1, 165095, Note_off_c, 1, 45, 0
1, 165119, Note_off_c, 1, 78, 0
1, 165120, Note_on_c, 1, 73, 127
1, 165120, Note_on_c, 1, 69, 127
1, 165120, Note_on_c, 1, 64, 127
1, 165120, Note_on_c, 1, 76, 127
1, 165120, Note_on_c, 1, 45, 127
1, 165120, Note_on_c, 1, 33, 127
1, 165167, Note_off_c, 1, 64, 0
1, 165179, Note_off_c, 1, 76, 0
1, 165180, Note_on_c, 1, 67, 127
1, 165180, Note_on_c, 1, 74, 127
1, 165215, Note_off_c, 1, 73, 0
1, 165215, Note_off_c, 1, 69, 0
1, 165215, Note_off_c, 1, 45, 0
1, 165215, Note_off_c, 1, 33, 0
1, 165227, Note_off_c, 1, 67, 0
1, 165239, Note_off_c, 1, 74, 0
1, 165240, Note_on_c, 1, 74, 127
1, 165240, Note_on_c, 1, 69, 127
1, 165240, Note_on_c, 1, 67, 127
1, 165240, Note_on_c, 1, 50, 127
1, 165240, Note_on_c, 1, 38, 127
1, 165287, Note_off_c, 1, 67, 0
1, 165300, Note_on_c, 1, 66, 127
1, 165335, Note_off_c, 1, 50, 0
1, 165335, Note_off_c, 1, 38, 0
1, 165347, Note_off_c, 1, 66, 0
1, 165360, Note_on_c, 1, 64, 127
1, 165360, Note_on_c, 1, 48, 127
1, 165360, Note_on_c, 1, 36, 127
1, 165407, Note_off_c, 1, 64, 0
1, 165420, Note_on_c, 1, 62, 127
1, 165431, Note_off_c, 1, 69, 0
1, 165455, Note_off_c, 1, 48, 0
1, 165455, Note_off_c, 1, 36, 0
1, 165467, Note_off_c, 1, 62, 0
1, 165479, Note_off_c, 1, 74, 0
1, 165480, Note_on_c, 1, 62, 127
1, 165480, Note_on_c, 1, 79, 127
1, 165480, Note_on_c, 1, 47, 127
1, 165480, Note_on_c, 1, 35, 127
1, 165527, Note_off_c, 1, 62, 0
1, 165540, Note_on_c, 1, 67, 127
1, 165575, Note_off_c, 1, 47, 0
1, 165575, Note_off_c, 1, 35, 0
1, 165587, Note_off_c, 1, 67, 0
1, 165599, Note_off_c, 1, 79, 0
1, 165600, Note_on_c, 1, 71, 127
1, 165600, Note_on_c, 1, 74, 127
1, 165600, Note_on_c, 1, 43, 127
1, 165600, Note_on_c, 1, 31, 127
1, 165647, Note_off_c, 1, 71, 0
1, 165695, Note_off_c, 1, 43, 0
1, 165695, Note_off_c, 1, 31, 0
1, 165719, Note_off_c, 1, 74, 0
1, 165720, Note_on_c, 1, 60, 127
1, 165720, Note_on_c, 1, 76, 127
1, 165720, Note_on_c, 1, 48, 127
1, 165720, Note_on_c, 1, 36, 127
1, 165767, Note_off_c, 1, 60, 0
1, 165780, Note_on_c, 1, 64, 127
1, 165815, Note_off_c, 1, 48, 0
1, 165815, Note_off_c, 1, 36, 0
1, 165827, Note_off_c, 1, 64, 0
1, 165840, Note_on_c, 1, 67, 127
1, 165887, Note_off_c, 1, 67, 0
1, 165899, Note_off_c, 1, 76, 0
1, 165900, Note_on_c, 1, 72, 127
1, 165900, Note_on_c, 1, 77, 127
1, 165947, Note_off_c, 1, 72, 0
1, 165959, Note_off_c, 1, 77, 0
1, 165960, Note_on_c, 1, 59, 127
1, 165960, Note_on_c, 1, 76, 127
1, 165960, Note_on_c, 1, 56, 127
1, 165960, Note_on_c, 1, 44, 127
1, 166007, Note_off_c, 1, 59, 0
1, 166019, Note_off_c, 1, 76, 0
1, 166020, Note_on_c, 1, 62, 127
1, 166020, Note_on_c, 1, 74, 127
1, 166055, Note_off_c, 1, 56, 0
1, 166055, Note_off_c, 1, 44, 0
1, 166067, Note_off_c, 1, 62, 0
1, 166079, Note_off_c, 1, 74, 0
1, 166080, Note_on_c, 1, 76, 127
1, 166080, Note_on_c, 1, 68, 127
1, 166080, Note_on_c, 1, 64, 127
1, 166080, Note_on_c, 1, 56, 127
1, 166080, Note_on_c, 1, 72, 127
1, 166080, Note_on_c, 1, 52, 127
1, 166080, Note_on_c, 1, 40, 127
1, 166127, Note_off_c, 1, 56, 0
1, 166139, Note_off_c, 1, 72, 0
1, 166140, Note_on_c, 1, 59, 127
1, 166140, Note_on_c, 1, 71, 127
1, 166175, Note_off_c, 1, 76, 0
1, 166175, Note_off_c, 1, 68, 0
1, 166175, Note_off_c, 1, 64, 0
1, 166175, Note_off_c, 1, 52, 0
1, 166175, Note_off_c, 1, 40, 0
1, 166187, Note_off_c, 1, 59, 0
1, 166199, Note_off_c, 1, 71, 0
1, 166200, Note_on_c, 1, 72, 127
1, 166200, Note_on_c, 1, 69, 127
1, 166200, Note_on_c, 1, 64, 127
1, 166200, Note_on_c, 1, 57, 127
1, 166200, Note_on_c, 1, 45, 127
1, 166260, Note_on_c, 1, 60, 127
1, 166295, Note_off_c, 1, 57, 0
1, 166295, Note_off_c, 1, 45, 0
1, 166307, Note_off_c, 1, 60, 0
1, 166320, Note_on_c, 1, 55, 127
1, 166320, Note_on_c, 1, 43, 127
1, 166391, Note_off_c, 1, 64, 0
1, 166415, Note_off_c, 1, 55, 0
1, 166415, Note_off_c, 1, 43, 0
1, 166427, Note_off_c, 1, 69, 0
1, 166439, Note_off_c, 1, 72, 0
1, 166440, Note_on_c, 1, 62, 127
1, 166440, Note_on_c, 1, 74, 127
1, 166440, Note_on_c, 1, 54, 127
1, 166440, Note_on_c, 1, 42, 127
1, 166487, Note_off_c, 1, 62, 0
1, 166500, Note_on_c, 1, 66, 127
1, 166535, Note_off_c, 1, 54, 0
1, 166535, Note_off_c, 1, 42, 0
1, 166547, Note_off_c, 1, 66, 0
1, 166559, Note_off_c, 1, 74, 0
1, 166560, Note_on_c, 1, 69, 127
1, 166560, Note_on_c, 1, 50, 127
1, 166560, Note_on_c, 1, 38, 127
1, 166620, Note_on_c, 1, 74, 127
1, 166655, Note_off_c, 1, 50, 0
1, 166655, Note_off_c, 1, 38, 0
1, 166667, Note_off_c, 1, 74, 0
1, 166679, Note_off_c, 1, 69, 0
1, 166680, Note_on_c, 1, 62, 127
1, 166680, Note_on_c, 1, 71, 127
1, 166680, Note_on_c, 1, 55, 127
1, 166680, Note_on_c, 1, 43, 127
1, 166727, Note_off_c, 1, 62, 0
1, 166740, Note_on_c, 1, 67, 127
1, 166775, Note_off_c, 1, 55, 0
1, 166775, Note_off_c, 1, 43, 0
1, 166787, Note_off_c, 1, 67, 0
1, 166799, Note_off_c, 1, 71, 0
1, 166800, Note_on_c, 1, 71, 127
1, 166800, Note_on_c, 1, 69, 127
1, 166800, Note_on_c, 1, 52, 127
1, 166800, Note_on_c, 1, 40, 127
1, 166847, Note_off_c, 1, 71, 0
1, 166859, Note_off_c, 1, 69, 0
1, 166860, Note_on_c, 1, 74, 127
1, 166860, Note_on_c, 1, 67, 127
1, 166895, Note_off_c, 1, 52, 0
1, 166895, Note_off_c, 1, 40, 0
1, 166907, Note_off_c, 1, 74, 0
1, 166919, Note_off_c, 1, 67, 0
1, 166920, Note_on_c, 1, 73, 127
1, 166920, Note_on_c, 1, 66, 127
1, 166920, Note_on_c, 1, 57, 127
1, 166920, Note_on_c, 1, 45, 127
1, 166967, Note_off_c, 1, 73, 0
1, 166979, Note_off_c, 1, 66, 0
1, 166980, Note_on_c, 1, 76, 127
1, 166980, Note_on_c, 1, 64, 127
1, 167015, Note_off_c, 1, 57, 0
1, 167015, Note_off_c, 1, 45, 0
1, 167027, Note_off_c, 1, 76, 0
1, 167039, Note_off_c, 1, 64, 0
1, 167040, Note_on_c, 1, 76, 127
1, 167040, Note_on_c, 1, 73, 127
1, 167040, Note_on_c, 1, 69, 127
1, 167040, Note_on_c, 1, 45, 127
1, 167040, Note_on_c, 1, 33, 127
1, 167135, Note_off_c, 1, 76, 0
1, 167135, Note_off_c, 1, 45, 0
1, 167135, Note_off_c, 1, 33, 0
1, 167147, Note_off_c, 1, 73, 0
1, 167159, Note_off_c, 1, 69, 0
1, 167160, Note_on_c, 1, 74, 127
1, 167160, Note_on_c, 1, 69, 127
1, 167160, Note_on_c, 1, 67, 127
1, 167160, Note_on_c, 1, 50, 127
1, 167160, Note_on_c, 1, 38, 127
1, 167219, Note_off_c, 1, 67, 0
1, 167220, Note_on_c, 1, 66, 127
1, 167255, Note_off_c, 1, 50, 0
1, 167255, Note_off_c, 1, 38, 0
1, 167279, Note_off_c, 1, 66, 0
1, 167280, Note_on_c, 1, 64, 127
1, 167280, Note_on_c, 1, 52, 127
1, 167280, Note_on_c, 1, 40, 127
1, 167339, Note_off_c, 1, 64, 0
1, 167340, Note_on_c, 1, 62, 127
1, 167351, Note_off_c, 1, 74, 0
1, 167351, Note_off_c, 1, 69, 0
1, 167375, Note_off_c, 1, 52, 0
1, 167375, Note_off_c, 1, 40, 0
1, 167399, Note_off_c, 1, 62, 0
1, 167400, Note_on_c, 1, 62, 127
1, 167400, Note_on_c, 1, 69, 127
1, 167400, Note_on_c, 1, 54, 127
1, 167400, Note_on_c, 1, 42, 127
1, 167447, Note_off_c, 1, 62, 0
1, 167460, Note_on_c, 1, 66, 127
1, 167495, Note_off_c, 1, 54, 0
1, 167495, Note_off_c, 1, 42, 0
1, 167507, Note_off_c, 1, 66, 0
1, 167519, Note_off_c, 1, 69, 0
1, 167520, Note_on_c, 1, 69, 127
1, 167520, Note_on_c, 1, 74, 127
1, 167520, Note_on_c, 1, 50, 127
1, 167520, Note_on_c, 1, 38, 127
1, 167567, Note_off_c, 1, 69, 0
1, 167615, Note_off_c, 1, 50, 0
1, 167615, Note_off_c, 1, 38, 0
1, 167639, Note_off_c, 1, 74, 0
1, 167640, Note_on_c, 1, 62, 127
1, 167640, Note_on_c, 1, 71, 127
1, 167640, Note_on_c, 1, 55, 127
1, 167640, Note_on_c, 1, 43, 127
1, 167687, Note_off_c, 1, 62, 0
1, 167700, Note_on_c, 1, 67, 127
1, 167735, Note_off_c, 1, 55, 0
1, 167735, Note_off_c, 1, 43, 0
1, 167747, Note_off_c, 1, 67, 0
1, 167760, Note_on_c, 1, 53, 127
1, 167760, Note_on_c, 1, 41, 127
1, 167819, Note_off_c, 1, 71, 0
1, 167820, Note_on_c, 1, 74, 127
1, 167855, Note_off_c, 1, 53, 0
1, 167855, Note_off_c, 1, 41, 0
1, 167867, Note_off_c, 1, 74, 0
1, 167880, Note_on_c, 1, 64, 127
1, 167880, Note_on_c, 1, 72, 127
1, 167880, Note_on_c, 1, 52, 127
1, 167880, Note_on_c, 1, 40, 127
1, 167927, Note_off_c, 1, 64, 0
1, 167939, Note_off_c, 1, 72, 0
1, 167940, Note_on_c, 1, 67, 127
1, 167940, Note_on_c, 1, 71, 127
1, 167975, Note_off_c, 1, 52, 0
1, 167975, Note_off_c, 1, 40, 0
1, 167987, Note_off_c, 1, 67, 0
1, 167999, Note_off_c, 1, 71, 0
1, 168000, Note_on_c, 1, 77, 127
1, 168000, Note_on_c, 1, 57, 127
1, 168000, Note_on_c, 1, 74, 127
1, 168000, Note_on_c, 1, 65, 127
1, 168000, Note_on_c, 1, 72, 127
1, 168000, Note_on_c, 1, 50, 127
1, 168000, Note_on_c, 1, 38, 127
1, 168047, Note_off_c, 1, 57, 0
1, 168059, Note_off_c, 1, 72, 0
1, 168060, Note_on_c, 1, 59, 127
1, 168095, Note_off_c, 1, 77, 0
1, 168095, Note_off_c, 1, 65, 0
1, 168095, Note_off_c, 1, 50, 0
1, 168095, Note_off_c, 1, 38, 0
1, 168107, Note_off_c, 1, 59, 0
1, 168119, Note_off_c, 1, 74, 0
1, 168120, Note_on_c, 1, 76, 127
1, 168120, Note_on_c, 1, 60, 127
1, 168120, Note_on_c, 1, 67, 127
1, 168120, Note_on_c, 1, 48, 127
1, 168120, Note_on_c, 1, 36, 127
1, 168167, Note_off_c, 1, 60, 0
1, 168180, Note_on_c, 1, 64, 127
1, 168215, Note_off_c, 1, 48, 0
1, 168215, Note_off_c, 1, 36, 0
1, 168227, Note_off_c, 1, 64, 0
1, 168240, Note_on_c, 1, 50, 127
1, 168240, Note_on_c, 1, 38, 127
1, 168300, Note_on_c, 1, 72, 127
1, 168300, Note_on_c, 1, 74, 127
1, 168311, Note_off_c, 1, 76, 0
1, 168311, Note_off_c, 1, 67, 0
1, 168335, Note_off_c, 1, 50, 0
1, 168335, Note_off_c, 1, 38, 0
1, 168347, Note_off_c, 1, 72, 0
1, 168359, Note_off_c, 1, 74, 0
1, 168360, Note_on_c, 1, 67, 127
1, 168360, Note_on_c, 1, 72, 127
1, 168360, Note_on_c, 1, 52, 127
1, 168360, Note_on_c, 1, 40, 127
1, 168407, Note_off_c, 1, 67, 0
1, 168419, Note_off_c, 1, 72, 0
1, 168420, Note_on_c, 1, 71, 127
1, 168455, Note_off_c, 1, 52, 0
1, 168455, Note_off_c, 1, 40, 0
1, 168479, Note_off_c, 1, 71, 0
1, 168480, Note_on_c, 1, 76, 127
1, 168480, Note_on_c, 1, 69, 127
1, 168480, Note_on_c, 1, 48, 127
1, 168480, Note_on_c, 1, 36, 127
1, 168527, Note_off_c, 1, 76, 0
1, 168539, Note_off_c, 1, 69, 0
1, 168540, Note_on_c, 1, 79, 127
1, 168540, Note_on_c, 1, 67, 127
1, 168575, Note_off_c, 1, 48, 0
1, 168575, Note_off_c, 1, 36, 0
1, 168587, Note_off_c, 1, 79, 0
1, 168599, Note_off_c, 1, 67, 0
1, 168600, Note_on_c, 1, 67, 127
1, 168600, Note_on_c, 1, 74, 127
1, 168600, Note_on_c, 1, 47, 127
1, 168600, Note_on_c, 1, 35, 127
1, 168647, Note_off_c, 1, 67, 0
1, 168660, Note_on_c, 1, 71, 127
1, 168695, Note_off_c, 1, 47, 0
1, 168695, Note_off_c, 1, 35, 0
1, 168707, Note_off_c, 1, 71, 0
1, 168720, Note_on_c, 1, 48, 127
1, 168720, Note_on_c, 1, 36, 127
1, 168779, Note_off_c, 1, 74, 0
1, 168780, Note_on_c, 1, 79, 127
1, 168780, Note_on_c, 1, 76, 127
1, 168815, Note_off_c, 1, 48, 0
1, 168815, Note_off_c, 1, 36, 0
1, 168827, Note_off_c, 1, 79, 0
1, 168839, Note_off_c, 1, 76, 0
1, 168840, Note_on_c, 1, 78, 127
1, 168840, Note_on_c, 1, 71, 127
1, 168840, Note_on_c, 1, 50, 127
1, 168840, Note_on_c, 1, 38, 127
1, 168887, Note_off_c, 1, 78, 0
1, 168900, Note_on_c, 1, 81, 127
1, 168935, Note_off_c, 1, 50, 0
1, 168935, Note_off_c, 1, 38, 0
1, 168947, Note_off_c, 1, 81, 0
1, 168959, Note_off_c, 1, 71, 0
1, 168960, Note_on_c, 1, 74, 127
1, 168960, Note_on_c, 1, 72, 127
1, 168960, Note_on_c, 1, 66, 127
1, 168960, Note_on_c, 1, 69, 127
1, 168960, Note_on_c, 1, 38, 127
1, 168960, Note_on_c, 1, 26, 127
1, 169019, Note_off_c, 1, 69, 0
1, 169020, Note_on_c, 1, 78, 127
1, 169020, Note_on_c, 1, 67, 127
1, 169055, Note_off_c, 1, 74, 0
1, 169055, Note_off_c, 1, 72, 0
1, 169055, Note_off_c, 1, 66, 0
1, 169055, Note_off_c, 1, 38, 0
1, 169055, Note_off_c, 1, 26, 0
1, 169067, Note_off_c, 1, 78, 0
1, 169079, Note_off_c, 1, 67, 0
1, 169080, Note_on_c, 1, 79, 127
1, 169080, Note_on_c, 1, 74, 127
1, 169080, Note_on_c, 1, 71, 127
1, 169080, Note_on_c, 1, 62, 127
1, 169080, Note_on_c, 1, 67, 127
1, 169080, Note_on_c, 1, 43, 127
1, 169080, Note_on_c, 1, 31, 127
1, 169175, Note_off_c, 1, 79, 0
1, 169199, Note_off_c, 1, 67, 0
1, 169271, Note_off_c, 1, 74, 0
1, 169271, Note_off_c, 1, 71, 0
1, 169271, Note_off_c, 1, 62, 0
1, 169271, Note_off_c, 1, 43, 0
1, 169271, Note_off_c, 1, 31, 0
1, 169320, Note_on_c, 1, 71, 127
1, 169320, Note_on_c, 1, 67, 127
1, 169320, Note_on_c, 1, 62, 127
1, 169320, Note_on_c, 1, 55, 127
1, 169320, Note_on_c, 1, 43, 127
1, 169415, Note_off_c, 1, 71, 0
1, 169415, Note_off_c, 1, 67, 0
1, 169415, Note_off_c, 1, 62, 0
1, 169415, Note_off_c, 1, 55, 0
1, 169415, Note_off_c, 1, 43, 0
1, 169440, Note_on_c, 1, 69, 127
1, 169440, Note_on_c, 1, 72, 127
1, 169440, Note_on_c, 1, 64, 127
1, 169440, Note_on_c, 1, 52, 127
1, 169440, Note_on_c, 1, 40, 127
1, 169487, Note_off_c, 1, 69, 0
1, 169500, Note_on_c, 1, 67, 127
1, 169535, Note_off_c, 1, 72, 0
1, 169535, Note_off_c, 1, 64, 0
1, 169535, Note_off_c, 1, 52, 0
1, 169535, Note_off_c, 1, 40, 0
1, 169547, Note_off_c, 1, 67, 0
1, 169560, Note_on_c, 1, 74, 127
1, 169560, Note_on_c, 1, 71, 127
1, 169560, Note_on_c, 1, 67, 127
1, 169560, Note_on_c, 1, 47, 127
1, 169560, Note_on_c, 1, 35, 127
1, 169655, Note_off_c, 1, 71, 0
1, 169655, Note_off_c, 1, 67, 0
1, 169655, Note_off_c, 1, 47, 0
1, 169655, Note_off_c, 1, 35, 0
1, 169680, Note_on_c, 1, 60, 127
1, 169680, Note_on_c, 1, 48, 127
1, 169680, Note_on_c, 1, 36, 127
1, 169703, Note_off_c, 1, 74, 0
1, 169740, Note_on_c, 1, 76, 127
1, 169775, Note_off_c, 1, 60, 0
1, 169775, Note_off_c, 1, 48, 0
1, 169775, Note_off_c, 1, 36, 0
1, 169787, Note_off_c, 1, 76, 0
1, 169800, Note_on_c, 1, 72, 127
1, 169800, Note_on_c, 1, 66, 127
1, 169800, Note_on_c, 1, 60, 127
1, 169800, Note_on_c, 1, 45, 127
1, 169800, Note_on_c, 1, 33, 127
1, 169895, Note_off_c, 1, 72, 0
1, 169895, Note_off_c, 1, 66, 0
1, 169895, Note_off_c, 1, 60, 0
1, 169895, Note_off_c, 1, 45, 0
1, 169895, Note_off_c, 1, 33, 0
1, 169920, Note_on_c, 1, 71, 127
1, 169920, Note_on_c, 1, 67, 127
1, 169920, Note_on_c, 1, 62, 127
1, 169920, Note_on_c, 1, 43, 127
1, 169920, Note_on_c, 1, 31, 127
1, 169967, Note_off_c, 1, 71, 0
1, 169980, Note_on_c, 1, 69, 127
1, 170015, Note_off_c, 1, 67, 0
1, 170015, Note_off_c, 1, 62, 0
1, 170015, Note_off_c, 1, 43, 0
1, 170015, Note_off_c, 1, 31, 0
1, 170027, Note_off_c, 1, 69, 0
1, 170040, Note_on_c, 1, 69, 127
1, 170040, Note_on_c, 1, 66, 127
1, 170040, Note_on_c, 1, 62, 127
1, 170040, Note_on_c, 1, 50, 127
1, 170040, Note_on_c, 1, 38, 127
1, 170135, Note_off_c, 1, 50, 0
1, 170135, Note_off_c, 1, 38, 0
1, 170160, Note_on_c, 1, 48, 127
1, 170160, Note_on_c, 1, 36, 127
1, 170231, Note_off_c, 1, 69, 0
1, 170231, Note_off_c, 1, 66, 0
1, 170231, Note_off_c, 1, 62, 0
1, 170255, Note_off_c, 1, 48, 0
1, 170255, Note_off_c, 1, 36, 0
1, 170280, Note_on_c, 1, 74, 127
1, 170280, Note_on_c, 1, 67, 127
1, 170280, Note_on_c, 1, 62, 127
1, 170280, Note_on_c, 1, 47, 127
1, 170280, Note_on_c, 1, 35, 127
1, 170375, Note_off_c, 1, 74, 0
1, 170375, Note_off_c, 1, 67, 0
1, 170375, Note_off_c, 1, 62, 0
1, 170375, Note_off_c, 1, 47, 0
1, 170375, Note_off_c, 1, 35, 0
1, 170400, Note_on_c, 1, 71, 127
1, 170400, Note_on_c, 1, 66, 127
1, 170400, Note_on_c, 1, 62, 127
1, 170400, Note_on_c, 1, 50, 127
1, 170400, Note_on_c, 1, 38, 127
1, 170495, Note_off_c, 1, 71, 0
1, 170495, Note_off_c, 1, 66, 0
1, 170495, Note_off_c, 1, 62, 0
1, 170495, Note_off_c, 1, 50, 0
1, 170495, Note_off_c, 1, 38, 0
1, 170520, Note_on_c, 1, 67, 127
1, 170520, Note_on_c, 1, 64, 127
1, 170520, Note_on_c, 1, 59, 127
1, 170520, Note_on_c, 1, 52, 127
1, 170520, Note_on_c, 1, 40, 127
1, 170615, Note_off_c, 1, 64, 0
1, 170615, Note_off_c, 1, 59, 0
1, 170615, Note_off_c, 1, 52, 0
1, 170615, Note_off_c, 1, 40, 0
1, 170640, Note_on_c, 1, 48, 127
1, 170640, Note_on_c, 1, 36, 127
1, 170700, Note_on_c, 1, 72, 127
1, 170735, Note_off_c, 1, 67, 0
1, 170735, Note_off_c, 1, 48, 0
1, 170735, Note_off_c, 1, 36, 0
1, 170747, Note_off_c, 1, 72, 0
1, 170760, Note_on_c, 1, 69, 127
1, 170760, Note_on_c, 1, 67, 127
1, 170760, Note_on_c, 1, 62, 127
1, 170760, Note_on_c, 1, 50, 127
1, 170760, Note_on_c, 1, 38, 127
1, 170855, Note_off_c, 1, 69, 0
1, 170855, Note_off_c, 1, 67, 0
1, 170855, Note_off_c, 1, 62, 0
1, 170855, Note_off_c, 1, 50, 0
1, 170855, Note_off_c, 1, 38, 0
1, 170880, Note_on_c, 1, 74, 127
1, 170880, Note_on_c, 1, 66, 127
1, 170880, Note_on_c, 1, 57, 127
1, 170880, Note_on_c, 1, 38, 127
1, 170880, Note_on_c, 1, 26, 127
1, 170975, Note_off_c, 1, 74, 0
1, 170975, Note_off_c, 1, 66, 0
1, 170975, Note_off_c, 1, 57, 0
1, 170975, Note_off_c, 1, 38, 0
1, 170975, Note_off_c, 1, 26, 0
1, 171000, Note_on_c, 1, 71, 127
1, 171000, Note_on_c, 1, 67, 127
1, 171000, Note_on_c, 1, 55, 127
1, 171000, Note_on_c, 1, 43, 127
1, 171000, Note_on_c, 1, 31, 127
1, 171016, Note_off_c, 1, 71, 0
1, 171020, Note_on_c, 1, 72, 127
1, 171036, Note_off_c, 1, 72, 0
1, 171120, Note_on_c, 1, 69, 127
1, 171167, Note_off_c, 1, 69, 0
1, 171191, Note_off_c, 1, 55, 0
1, 171191, Note_off_c, 1, 43, 0
1, 171191, Note_off_c, 1, 31, 0
1, 171227, Note_off_c, 1, 67, 0
1, 171240, Note_on_c, 1, 71, 127
1, 171240, Note_on_c, 1, 67, 127
1, 171240, Note_on_c, 1, 62, 127
1, 171240, Note_on_c, 1, 55, 127
1, 171240, Note_on_c, 1, 43, 127
1, 171335, Note_off_c, 1, 71, 0
1, 171335, Note_off_c, 1, 67, 0
1, 171335, Note_off_c, 1, 62, 0
1, 171335, Note_off_c, 1, 55, 0
1, 171335, Note_off_c, 1, 43, 0
1, 171360, Note_on_c, 1, 76, 127
1, 171360, Note_on_c, 1, 71, 127
1, 171360, Note_on_c, 1, 67, 127
1, 171360, Note_on_c, 1, 52, 127
1, 171360, Note_on_c, 1, 40, 127
1, 171455, Note_off_c, 1, 76, 0
1, 171455, Note_off_c, 1, 71, 0
1, 171455, Note_off_c, 1, 67, 0
1, 171455, Note_off_c, 1, 52, 0
1, 171455, Note_off_c, 1, 40, 0
1, 171480, Note_on_c, 1, 73, 127
1, 171480, Note_on_c, 1, 69, 127
1, 171480, Note_on_c, 1, 64, 127
1, 171480, Note_on_c, 1, 57, 127
1, 171480, Note_on_c, 1, 45, 127
1, 171575, Note_off_c, 1, 69, 0
1, 171575, Note_off_c, 1, 64, 0
1, 171575, Note_off_c, 1, 57, 0
1, 171575, Note_off_c, 1, 45, 0
1, 171600, Note_on_c, 1, 66, 127
1, 171600, Note_on_c, 1, 54, 127
1, 171600, Note_on_c, 1, 42, 127
1, 171623, Note_off_c, 1, 73, 0
1, 171660, Note_on_c, 1, 74, 127
1, 171695, Note_off_c, 1, 66, 0
1, 171695, Note_off_c, 1, 54, 0
1, 171695, Note_off_c, 1, 42, 0
1, 171707, Note_off_c, 1, 74, 0
1, 171720, Note_on_c, 1, 76, 127
1, 171720, Note_on_c, 1, 73, 127
1, 171720, Note_on_c, 1, 67, 127
1, 171720, Note_on_c, 1, 52, 127
1, 171720, Note_on_c, 1, 40, 127
1, 171815, Note_off_c, 1, 76, 0
1, 171815, Note_off_c, 1, 73, 0
1, 171815, Note_off_c, 1, 67, 0
1, 171815, Note_off_c, 1, 52, 0
1, 171815, Note_off_c, 1, 40, 0
1, 171840, Note_on_c, 1, 78, 127
1, 171840, Note_on_c, 1, 74, 127
1, 171840, Note_on_c, 1, 69, 127
1, 171840, Note_on_c, 1, 50, 127
1, 171840, Note_on_c, 1, 38, 127
1, 171887, Note_off_c, 1, 78, 0
1, 171900, Note_on_c, 1, 79, 127
1, 171935, Note_off_c, 1, 74, 0
1, 171935, Note_off_c, 1, 69, 0
1, 171935, Note_off_c, 1, 50, 0
1, 171935, Note_off_c, 1, 38, 0
1, 171947, Note_off_c, 1, 79, 0
1, 171960, Note_on_c, 1, 76, 127
1, 171960, Note_on_c, 1, 73, 127
1, 171960, Note_on_c, 1, 69, 127
1, 171960, Note_on_c, 1, 57, 127
1, 171960, Note_on_c, 1, 45, 127
1, 172055, Note_off_c, 1, 57, 0
1, 172055, Note_off_c, 1, 45, 0
1, 172080, Note_on_c, 1, 55, 127
1, 172080, Note_on_c, 1, 43, 127
1, 172151, Note_off_c, 1, 76, 0
1, 172151, Note_off_c, 1, 73, 0
1, 172151, Note_off_c, 1, 69, 0
1, 172175, Note_off_c, 1, 55, 0
1, 172175, Note_off_c, 1, 43, 0
1, 172200, Note_on_c, 1, 81, 127
1, 172200, Note_on_c, 1, 74, 127
1, 172200, Note_on_c, 1, 69, 127
1, 172200, Note_on_c, 1, 54, 127
1, 172200, Note_on_c, 1, 42, 127
1, 172295, Note_off_c, 1, 81, 0
1, 172295, Note_off_c, 1, 74, 0
1, 172295, Note_off_c, 1, 69, 0
1, 172295, Note_off_c, 1, 54, 0
1, 172295, Note_off_c, 1, 42, 0
1, 172320, Note_on_c, 1, 73, 127
1, 172320, Note_on_c, 1, 69, 127
1, 172320, Note_on_c, 1, 67, 127
1, 172320, Note_on_c, 1, 57, 127
1, 172320, Note_on_c, 1, 45, 127
1, 172415, Note_off_c, 1, 73, 0
1, 172415, Note_off_c, 1, 69, 0
1, 172415, Note_off_c, 1, 67, 0
1, 172415, Note_off_c, 1, 57, 0
1, 172415, Note_off_c, 1, 45, 0
1, 172440, Note_on_c, 1, 74, 127
1, 172440, Note_on_c, 1, 62, 127
1, 172440, Note_on_c, 1, 66, 127
1, 172440, Note_on_c, 1, 59, 127
1, 172440, Note_on_c, 1, 47, 127
1, 172535, Note_off_c, 1, 66, 0
1, 172535, Note_off_c, 1, 59, 0
1, 172535, Note_off_c, 1, 47, 0
1, 172560, Note_on_c, 1, 71, 127
1, 172560, Note_on_c, 1, 55, 127
1, 172560, Note_on_c, 1, 43, 127
1, 172583, Note_off_c, 1, 74, 0
1, 172583, Note_off_c, 1, 62, 0
1, 172620, Note_on_c, 1, 76, 127
1, 172655, Note_off_c, 1, 71, 0
1, 172655, Note_off_c, 1, 55, 0
1, 172655, Note_off_c, 1, 43, 0
1, 172667, Note_off_c, 1, 76, 0
1, 172680, Note_on_c, 1, 76, 127
1, 172680, Note_on_c, 1, 73, 127
1, 172680, Note_on_c, 1, 69, 127
1, 172680, Note_on_c, 1, 57, 127
1, 172680, Note_on_c, 1, 45, 127
1, 172775, Note_off_c, 1, 69, 0
1, 172775, Note_off_c, 1, 57, 0
1, 172775, Note_off_c, 1, 45, 0
1, 172800, Note_on_c, 1, 64, 127
1, 172800, Note_on_c, 1, 33, 127
1, 172823, Note_off_c, 1, 76, 0
1, 172823, Note_off_c, 1, 73, 0
1, 172860, Note_on_c, 1, 74, 127
1, 172895, Note_off_c, 1, 64, 0
1, 172895, Note_off_c, 1, 33, 0
1, 172907, Note_off_c, 1, 74, 0
1, 172920, Note_on_c, 1, 74, 127
1, 172920, Note_on_c, 1, 66, 127
1, 172920, Note_on_c, 1, 50, 127
1, 172920, Note_on_c, 1, 38, 127
1, 173063, Note_off_c, 1, 50, 0
1, 173063, Note_off_c, 1, 38, 0
1, 173100, Note_on_c, 1, 48, 127
1, 173100, Note_on_c, 1, 36, 127
1, 173111, Note_off_c, 1, 74, 0
1, 173111, Note_off_c, 1, 66, 0
1, 173147, Note_off_c, 1, 48, 0
1, 173147, Note_off_c, 1, 36, 0
1, 173160, Note_on_c, 1, 79, 127
1, 173160, Note_on_c, 1, 74, 127
1, 173160, Note_on_c, 1, 62, 127
1, 173160, Note_on_c, 1, 47, 127
1, 173160, Note_on_c, 1, 35, 127
1, 173255, Note_off_c, 1, 79, 0
1, 173255, Note_off_c, 1, 74, 0
1, 173255, Note_off_c, 1, 62, 0
1, 173255, Note_off_c, 1, 47, 0
1, 173255, Note_off_c, 1, 35, 0
1, 173280, Note_on_c, 1, 74, 127
1, 173280, Note_on_c, 1, 71, 127
1, 173280, Note_on_c, 1, 67, 127
1, 173280, Note_on_c, 1, 43, 127
1, 173280, Note_on_c, 1, 31, 127
1, 173375, Note_off_c, 1, 74, 0
1, 173375, Note_off_c, 1, 71, 0
1, 173375, Note_off_c, 1, 67, 0
1, 173375, Note_off_c, 1, 43, 0
1, 173375, Note_off_c, 1, 31, 0
1, 173400, Note_on_c, 1, 76, 127
1, 173400, Note_on_c, 1, 72, 127
1, 173400, Note_on_c, 1, 67, 127
1, 173400, Note_on_c, 1, 48, 127
1, 173400, Note_on_c, 1, 36, 127
1, 173495, Note_off_c, 1, 72, 0
1, 173495, Note_off_c, 1, 67, 0
1, 173495, Note_off_c, 1, 48, 0
1, 173495, Note_off_c, 1, 36, 0
1, 173520, Note_on_c, 1, 64, 127
1, 173520, Note_on_c, 1, 60, 127
1, 173543, Note_off_c, 1, 76, 0
1, 173580, Note_on_c, 1, 77, 127
1, 173580, Note_on_c, 1, 69, 127
1, 173615, Note_off_c, 1, 64, 0
1, 173615, Note_off_c, 1, 60, 0
1, 173627, Note_off_c, 1, 77, 0
1, 173627, Note_off_c, 1, 69, 0
1, 173640, Note_on_c, 1, 76, 127
1, 173640, Note_on_c, 1, 71, 127
1, 173640, Note_on_c, 1, 64, 127
1, 173640, Note_on_c, 1, 56, 127
1, 173640, Note_on_c, 1, 44, 127
1, 173687, Note_off_c, 1, 76, 0
1, 173700, Note_on_c, 1, 74, 127
1, 173735, Note_off_c, 1, 71, 0
1, 173735, Note_off_c, 1, 64, 0
1, 173735, Note_off_c, 1, 56, 0
1, 173735, Note_off_c, 1, 44, 0
1, 173747, Note_off_c, 1, 74, 0
1, 173760, Note_on_c, 1, 72, 127
1, 173760, Note_on_c, 1, 68, 127
1, 173760, Note_on_c, 1, 64, 127
1, 173760, Note_on_c, 1, 52, 127
1, 173760, Note_on_c, 1, 40, 127
1, 173807, Note_off_c, 1, 72, 0
1, 173820, Note_on_c, 1, 71, 127
1, 173855, Note_off_c, 1, 68, 0
1, 173855, Note_off_c, 1, 64, 0
1, 173855, Note_off_c, 1, 52, 0
1, 173855, Note_off_c, 1, 40, 0
1, 173867, Note_off_c, 1, 71, 0
1, 173880, Note_on_c, 1, 72, 127
1, 173880, Note_on_c, 1, 69, 127
1, 173880, Note_on_c, 1, 64, 127
1, 173880, Note_on_c, 1, 57, 127
1, 173880, Note_on_c, 1, 45, 127
1, 173975, Note_off_c, 1, 57, 0
1, 173975, Note_off_c, 1, 45, 0
1, 174000, Note_on_c, 1, 55, 127
1, 174000, Note_on_c, 1, 43, 127
1, 174071, Note_off_c, 1, 72, 0
1, 174071, Note_off_c, 1, 69, 0
1, 174071, Note_off_c, 1, 64, 0
1, 174095, Note_off_c, 1, 55, 0
1, 174095, Note_off_c, 1, 43, 0
1, 174120, Note_on_c, 1, 74, 127
1, 174120, Note_on_c, 1, 69, 127
1, 174120, Note_on_c, 1, 62, 127
1, 174120, Note_on_c, 1, 54, 127
1, 174120, Note_on_c, 1, 42, 127
1, 174215, Note_off_c, 1, 74, 0
1, 174215, Note_off_c, 1, 69, 0
1, 174215, Note_off_c, 1, 62, 0
1, 174215, Note_off_c, 1, 54, 0
1, 174215, Note_off_c, 1, 42, 0
1, 174240, Note_on_c, 1, 69, 127
1, 174240, Note_on_c, 1, 66, 127
1, 174240, Note_on_c, 1, 62, 127
1, 174240, Note_on_c, 1, 50, 127
1, 174240, Note_on_c, 1, 38, 127
1, 174335, Note_off_c, 1, 69, 0
1, 174335, Note_off_c, 1, 66, 0
1, 174335, Note_off_c, 1, 62, 0
1, 174335, Note_off_c, 1, 50, 0
1, 174335, Note_off_c, 1, 38, 0
1, 174360, Note_on_c, 1, 71, 127
1, 174360, Note_on_c, 1, 62, 127
1, 174360, Note_on_c, 1, 59, 127
1, 174360, Note_on_c, 1, 55, 127
1, 174360, Note_on_c, 1, 43, 127
1, 174455, Note_off_c, 1, 71, 0
1, 174455, Note_off_c, 1, 62, 0
1, 174455, Note_off_c, 1, 59, 0
1, 174455, Note_off_c, 1, 55, 0
1, 174455, Note_off_c, 1, 43, 0
1, 174480, Note_on_c, 1, 67, 127
1, 174480, Note_on_c, 1, 62, 127
1, 174480, Note_on_c, 1, 59, 127
1, 174480, Note_on_c, 1, 52, 127
1, 174480, Note_on_c, 1, 40, 127
1, 174575, Note_off_c, 1, 67, 0
1, 174575, Note_off_c, 1, 62, 0
1, 174575, Note_off_c, 1, 59, 0
1, 174575, Note_off_c, 1, 52, 0
1, 174575, Note_off_c, 1, 40, 0
1, 174600, Note_on_c, 1, 64, 127
1, 174600, Note_on_c, 1, 62, 127
1, 174600, Note_on_c, 1, 57, 127
1, 174600, Note_on_c, 1, 45, 127
1, 174695, Note_off_c, 1, 64, 0
1, 174695, Note_off_c, 1, 62, 0
1, 174695, Note_off_c, 1, 57, 0
1, 174695, Note_off_c, 1, 45, 0
1, 174720, Note_on_c, 1, 69, 127
1, 174720, Note_on_c, 1, 61, 127
1, 174720, Note_on_c, 1, 57, 127
1, 174720, Note_on_c, 1, 45, 127
1, 174720, Note_on_c, 1, 33, 127
1, 174815, Note_off_c, 1, 69, 0
1, 174815, Note_off_c, 1, 61, 0
1, 174815, Note_off_c, 1, 57, 0
1, 174815, Note_off_c, 1, 45, 0
1, 174815, Note_off_c, 1, 33, 0
1, 174840, Note_on_c, 1, 66, 127
1, 174840, Note_on_c, 1, 62, 127
1, 174840, Note_on_c, 1, 57, 127
1, 174840, Note_on_c, 1, 50, 127
1, 174840, Note_on_c, 1, 38, 127
1, 174935, Note_off_c, 1, 66, 0
1, 174935, Note_off_c, 1, 50, 0
1, 174935, Note_off_c, 1, 38, 0
1, 174960, Note_on_c, 1, 64, 127
1, 174960, Note_on_c, 1, 52, 127
1, 174960, Note_on_c, 1, 40, 127
1, 175007, Note_off_c, 1, 64, 0
1, 175031, Note_off_c, 1, 57, 0
1, 175055, Note_off_c, 1, 52, 0
1, 175055, Note_off_c, 1, 40, 0
1, 175067, Note_off_c, 1, 62, 0
1, 175080, Note_on_c, 1, 69, 127
1, 175080, Note_on_c, 1, 62, 127
1, 175080, Note_on_c, 1, 54, 127
1, 175080, Note_on_c, 1, 42, 127
1, 175175, Note_off_c, 1, 69, 0
1, 175175, Note_off_c, 1, 62, 0
1, 175175, Note_off_c, 1, 54, 0
1, 175175, Note_off_c, 1, 42, 0
1, 175200, Note_on_c, 1, 74, 127
1, 175200, Note_on_c, 1, 66, 127
1, 175200, Note_on_c, 1, 62, 127
1, 175200, Note_on_c, 1, 50, 127
1, 175200, Note_on_c, 1, 38, 127
1, 175295, Note_off_c, 1, 74, 0
1, 175295, Note_off_c, 1, 66, 0
1, 175295, Note_off_c, 1, 62, 0
1, 175295, Note_off_c, 1, 50, 0
1, 175295, Note_off_c, 1, 38, 0
1, 175320, Note_on_c, 1, 71, 127
1, 175320, Note_on_c, 1, 67, 127
1, 175320, Note_on_c, 1, 62, 127
1, 175320, Note_on_c, 1, 55, 127
1, 175320, Note_on_c, 1, 43, 127
1, 175415, Note_off_c, 1, 55, 0
1, 175415, Note_off_c, 1, 43, 0
1, 175440, Note_on_c, 1, 53, 127
1, 175440, Note_on_c, 1, 41, 127
1, 175463, Note_off_c, 1, 71, 0
1, 175463, Note_off_c, 1, 67, 0
1, 175463, Note_off_c, 1, 62, 0
1, 175535, Note_off_c, 1, 53, 0
1, 175535, Note_off_c, 1, 41, 0
1, 175560, Note_on_c, 1, 72, 127
1, 175560, Note_on_c, 1, 69, 127
1, 175560, Note_on_c, 1, 64, 127
1, 175560, Note_on_c, 1, 52, 127
1, 175560, Note_on_c, 1, 40, 127
1, 175655, Note_off_c, 1, 72, 0
1, 175655, Note_off_c, 1, 69, 0
1, 175655, Note_off_c, 1, 64, 0
1, 175655, Note_off_c, 1, 52, 0
1, 175655, Note_off_c, 1, 40, 0
1, 175680, Note_on_c, 1, 74, 127
1, 175680, Note_on_c, 1, 71, 127
1, 175680, Note_on_c, 1, 65, 127
1, 175680, Note_on_c, 1, 50, 127
1, 175680, Note_on_c, 1, 38, 127
1, 175775, Note_off_c, 1, 74, 0
1, 175775, Note_off_c, 1, 71, 0
1, 175775, Note_off_c, 1, 65, 0
1, 175775, Note_off_c, 1, 50, 0
1, 175775, Note_off_c, 1, 38, 0
1, 175800, Note_on_c, 1, 76, 127
1, 175800, Note_on_c, 1, 72, 127
1, 175800, Note_on_c, 1, 67, 127
1, 175800, Note_on_c, 1, 48, 127
1, 175800, Note_on_c, 1, 36, 127
1, 175895, Note_off_c, 1, 48, 0
1, 175895, Note_off_c, 1, 36, 0
1, 175920, Note_on_c, 1, 47, 127
1, 175920, Note_on_c, 1, 35, 127
1, 175943, Note_off_c, 1, 76, 0
1, 175943, Note_off_c, 1, 72, 0
1, 175943, Note_off_c, 1, 67, 0
1, 175980, Note_on_c, 1, 74, 127
1, 176015, Note_off_c, 1, 47, 0
1, 176015, Note_off_c, 1, 35, 0
1, 176027, Note_off_c, 1, 74, 0
1, 176040, Note_on_c, 1, 76, 127
1, 176040, Note_on_c, 1, 67, 127
1, 176040, Note_on_c, 1, 64, 127
1, 176040, Note_on_c, 1, 48, 127
1, 176040, Note_on_c, 1, 36, 127
1, 176135, Note_off_c, 1, 76, 0
1, 176135, Note_off_c, 1, 67, 0
1, 176135, Note_off_c, 1, 64, 0
1, 176135, Note_off_c, 1, 48, 0
1, 176135, Note_off_c, 1, 36, 0
1, 176160, Note_on_c, 1, 78, 127
1, 176160, Note_on_c, 1, 72, 127
1, 176160, Note_on_c, 1, 69, 127
1, 176160, Note_on_c, 1, 45, 127
1, 176160, Note_on_c, 1, 33, 127
1, 176255, Note_off_c, 1, 78, 0
1, 176255, Note_off_c, 1, 72, 0
1, 176255, Note_off_c, 1, 69, 0
1, 176255, Note_off_c, 1, 45, 0
1, 176255, Note_off_c, 1, 33, 0
1, 176280, Note_on_c, 1, 79, 127
1, 176280, Note_on_c, 1, 67, 127
1, 176280, Note_on_c, 1, 62, 127
1, 176280, Note_on_c, 1, 47, 127
1, 176280, Note_on_c, 1, 35, 127
1, 176327, Note_off_c, 1, 79, 0
1, 176340, Note_on_c, 1, 71, 127
1, 176375, Note_off_c, 1, 67, 0
1, 176375, Note_off_c, 1, 62, 0
1, 176375, Note_off_c, 1, 47, 0
1, 176375, Note_off_c, 1, 35, 0
1, 176387, Note_off_c, 1, 71, 0
1, 176400, Note_on_c, 1, 72, 127
1, 176400, Note_on_c, 1, 69, 127
1, 176400, Note_on_c, 1, 60, 127
1, 176400, Note_on_c, 1, 45, 127
1, 176400, Note_on_c, 1, 33, 127
1, 176447, Note_off_c, 1, 72, 0
1, 176447, Note_off_c, 1, 69, 0
1, 176447, Note_off_c, 1, 60, 0
1, 176447, Note_off_c, 1, 45, 0
1, 176447, Note_off_c, 1, 33, 0
1, 176460, Note_on_c, 1, 74, 127
1, 176460, Note_on_c, 1, 71, 127
1, 176460, Note_on_c, 1, 59, 127
1, 176460, Note_on_c, 1, 43, 127
1, 176460, Note_on_c, 1, 31, 127
1, 176507, Note_off_c, 1, 74, 0
1, 176507, Note_off_c, 1, 71, 0
1, 176507, Note_off_c, 1, 59, 0
1, 176507, Note_off_c, 1, 43, 0
1, 176507, Note_off_c, 1, 31, 0
1, 176520, Note_on_c, 1, 69, 127
1, 176520, Note_on_c, 1, 66, 127
1, 176520, Note_on_c, 1, 57, 127
1, 176520, Note_on_c, 1, 50, 127
1, 176520, Note_on_c, 1, 38, 127
1, 176615, Note_off_c, 1, 57, 0
1, 176615, Note_off_c, 1, 50, 0
1, 176615, Note_off_c, 1, 38, 0
1, 176640, Note_on_c, 1, 62, 127
1, 176640, Note_on_c, 1, 26, 127
1, 176663, Note_off_c, 1, 69, 0
1, 176663, Note_off_c, 1, 66, 0
1, 176700, Note_on_c, 1, 67, 127
1, 176735, Note_off_c, 1, 62, 0
1, 176735, Note_off_c, 1, 26, 0
1, 176747, Note_off_c, 1, 67, 0
1, 176760, Note_on_c, 1, 67, 127
1, 176760, Note_on_c, 1, 59, 127
1, 176760, Note_on_c, 1, 43, 127
1, 176760, Note_on_c, 1, 31, 127
1, 176951, Note_off_c, 1, 67, 0
1, 176951, Note_off_c, 1, 59, 0
1, 176951, Note_off_c, 1, 43, 0
1, 176951, Note_off_c, 1, 31, 0
1, 176951, End_track
0, 0, End_of_file