0, 0, Header, 1, 1, 480
1, 0, Start_track
1, 0, Title_t, "Test"
1, 0, Tempo, 500000
1, 0, Instrument_name_t, "Church Organ"
1, 0, Note_on_c, 1, 69, 127
1, 0, Note_on_c, 1, 53, 127
1, 0, Note_on_c, 1, 65, 127
1, 0, Note_on_c, 1, 60, 127
1, 119, Note_off_c, 1, 69, 0
1, 119, Note_off_c, 1, 65, 0
1, 119, Note_off_c, 1, 60, 0
1, 120, Note_on_c, 1, 70, 127
1, 120, Note_on_c, 1, 62, 127
1, 179, Note_off_c, 1, 70, 0
1, 179, Note_off_c, 1, 62, 0
1, 180, Note_on_c, 1, 67, 127
1, 180, Note_on_c, 1, 64, 127
1, 180, Note_on_c, 1, 58, 127
1, 195, Note_off_c, 1, 67, 0
1, 195, Note_off_c, 1, 64, 0
1, 195, Note_off_c, 1, 58, 0
1, 300, Note_on_c, 1, 57, 127
1, 359, Note_off_c, 1, 53, 0
1, 359, Note_off_c, 1, 57, 0
1, 360, Note_on_c, 1, 69, 127
1, 360, Note_on_c, 1, 65, 127
1, 360, Note_on_c, 1, 60, 127
1, 360, Note_on_c, 1, 51, 127
1, 419, Note_off_c, 1, 69, 0
1, 419, Note_off_c, 1, 60, 0
1, 419, Note_off_c, 1, 51, 0
1, 420, Note_on_c, 1, 70, 127
1, 420, Note_on_c, 1, 62, 127
1, 420, Note_on_c, 1, 50, 127
1, 479, Note_off_c, 1, 65, 0
1, 479, Note_off_c, 1, 70, 0
1, 479, Note_off_c, 1, 62, 0
1, 479, Note_off_c, 1, 50, 0
1, 480, Note_on_c, 1, 72, 127
1, 480, Note_on_c, 1, 69, 127
1, 480, Note_on_c, 1, 63, 127
1, 480, Note_on_c, 1, 48, 127
1, 539, Note_off_c, 1, 72, 0
1, 539, Note_off_c, 1, 69, 0
1, 539, Note_off_c, 1, 63, 0
1, 539, Note_off_c, 1, 48, 0
1, 540, Note_on_c, 1, 74, 127
1, 540, Note_on_c, 1, 70, 127
1, 540, Note_on_c, 1, 65, 127
1, 540, Note_on_c, 1, 46, 127
1, 569, Note_off_c, 1, 74, 0
1, 569, Note_off_c, 1, 70, 0
1, 569, Note_off_c, 1, 65, 0
1, 570, Note_off_c, 1, 46, 0
1, 600, Note_on_c, 1, 72, 127
1, 600, Note_on_c, 1, 69, 127
1, 600, Note_on_c, 1, 65, 127
1, 600, Note_on_c, 1, 53, 127
1, 629, Note_off_c, 1, 72, 0
1, 629, Note_off_c, 1, 69, 0
1, 629, Note_off_c, 1, 65, 0
1, 630, Note_off_c, 1, 53, 0
1, 720, Note_on_c, 1, 74, 127
1, 720, Note_on_c, 1, 65, 127
1, 720, Note_on_c, 1, 70, 127
1, 720, Note_on_c, 1, 58, 127
1, 749, Note_off_c, 1, 74, 0
1, 749, Note_off_c, 1, 58, 0
1, 750, Note_on_c, 1, 76, 127
1, 750, Note_on_c, 1, 60, 127
1, 779, Note_off_c, 1, 65, 0
1, 779, Note_off_c, 1, 70, 0
1, 779, Note_off_c, 1, 76, 0
1, 779, Note_off_c, 1, 60, 0
1, 780, Note_on_c, 1, 77, 127
1, 780, Note_on_c, 1, 60, 127
1, 780, Note_on_c, 1, 67, 127
1, 780, Note_on_c, 1, 58, 127
1, 794, Note_off_c, 1, 77, 0
1, 795, Note_on_c, 1, 76, 127
1, 809, Note_off_c, 1, 58, 0
1, 809, Note_off_c, 1, 76, 0
1, 810, Note_on_c, 1, 57, 127
1, 839, Note_off_c, 1, 60, 0
1, 839, Note_off_c, 1, 57, 0
1, 840, Note_on_c, 1, 55, 127
1, 869, Note_off_c, 1, 67, 0
1, 870, Note_on_c, 1, 74, 127
1, 870, Note_on_c, 1, 65, 127
1, 884, Note_off_c, 1, 74, 0
1, 884, Note_off_c, 1, 65, 0
1, 899, Note_off_c, 1, 55, 0
1, 900, Note_on_c, 1, 77, 127
1, 900, Note_on_c, 1, 53, 127
1, 900, Note_on_c, 1, 72, 127
1, 900, Note_on_c, 1, 57, 127
1, 959, Note_off_c, 1, 77, 0
1, 959, Note_off_c, 1, 53, 0
1, 960, Note_on_c, 1, 76, 127
1, 989, Note_off_c, 1, 76, 0
1, 990, Note_on_c, 1, 74, 127
1, 1019, Note_off_c, 1, 72, 0
1, 1019, Note_off_c, 1, 57, 0
1, 1019, Note_off_c, 1, 74, 0
1, 1020, Note_on_c, 1, 72, 127
1, 1020, Note_on_c, 1, 60, 127
1, 1020, Note_on_c, 1, 67, 127
1, 1020, Note_on_c, 1, 52, 127
1, 1049, Note_off_c, 1, 72, 0
1, 1050, Note_on_c, 1, 70, 127
1, 1079, Note_off_c, 1, 60, 0
1, 1079, Note_off_c, 1, 67, 0
1, 1079, Note_off_c, 1, 52, 0
1, 1079, Note_off_c, 1, 70, 0
1, 1080, Note_on_c, 1, 69, 127
1, 1080, Note_on_c, 1, 65, 127
1, 1080, Note_on_c, 1, 60, 127
1, 1080, Note_on_c, 1, 53, 127
1, 1139, Note_off_c, 1, 69, 0
1, 1139, Note_off_c, 1, 65, 0
1, 1139, Note_off_c, 1, 60, 0
1, 1139, Note_off_c, 1, 53, 0
1, 1140, Note_on_c, 1, 74, 127
1, 1140, Note_on_c, 1, 65, 127
1, 1140, Note_on_c, 1, 58, 127
1, 1140, Note_on_c, 1, 46, 127
1, 1199, Note_off_c, 1, 74, 0
1, 1199, Note_off_c, 1, 65, 0
1, 1199, Note_off_c, 1, 58, 0
1, 1199, Note_off_c, 1, 46, 0
1, 1200, Note_on_c, 1, 72, 127
1, 1200, Note_on_c, 1, 65, 127
1, 1200, Note_on_c, 1, 70, 127
1, 1200, Note_on_c, 1, 62, 127
1, 1200, Note_on_c, 1, 43, 127
1, 1229, Note_off_c, 1, 72, 0
1, 1259, Note_off_c, 1, 65, 0
1, 1259, Note_off_c, 1, 70, 0
1, 1259, Note_off_c, 1, 62, 0
1, 1259, Note_off_c, 1, 43, 0
1, 1260, Note_on_c, 1, 69, 127
1, 1260, Note_on_c, 1, 60, 127
1, 1260, Note_on_c, 1, 64, 127
1, 1260, Note_on_c, 1, 48, 127
1, 1319, Note_off_c, 1, 69, 0
1, 1320, Note_on_c, 1, 67, 127
1, 1439, Note_off_c, 1, 60, 0
1, 1439, Note_off_c, 1, 64, 0
1, 1439, Note_off_c, 1, 48, 0
1, 1439, Note_off_c, 1, 67, 0
1, 1440, Note_on_c, 1, 76, 127
1, 1440, Note_on_c, 1, 67, 127
1, 1440, Note_on_c, 1, 60, 127
1, 1455, Note_off_c, 1, 67, 0
1, 1487, Note_off_c, 1, 60, 0
1, 1500, Note_on_c, 1, 46, 127
1, 1530, Note_off_c, 1, 46, 0
1, 1559, Note_off_c, 1, 76, 0
1, 1560, Note_on_c, 1, 77, 127
1, 1560, Note_on_c, 1, 69, 127
1, 1560, Note_on_c, 1, 60, 127
1, 1560, Note_on_c, 1, 45, 127
1, 1575, Note_off_c, 1, 69, 0
1, 1590, Note_off_c, 1, 45, 0
1, 1590, Note_on_c, 1, 65, 127
1, 1605, Note_off_c, 1, 65, 0
1, 1607, Note_off_c, 1, 60, 0
1, 1619, Note_off_c, 1, 77, 0
1, 1620, Note_on_c, 1, 70, 127
1, 1620, Note_on_c, 1, 67, 127
1, 1620, Note_on_c, 1, 60, 127
1, 1635, Note_off_c, 1, 70, 0
1, 1635, Note_off_c, 1, 67, 0
1, 1635, Note_on_c, 1, 72, 127
1, 1650, Note_off_c, 1, 72, 0
1, 1667, Note_off_c, 1, 60, 0
1, 1680, Note_on_c, 1, 40, 127
1, 1710, Note_off_c, 1, 40, 0
1, 1740, Note_on_c, 1, 69, 127
1, 1740, Note_on_c, 1, 65, 127
1, 1740, Note_on_c, 1, 41, 127
1, 1755, Note_off_c, 1, 65, 0
1, 1770, Note_off_c, 1, 41, 0
1, 1799, Note_off_c, 1, 69, 0
1, 1800, Note_on_c, 1, 67, 127
1, 1800, Note_on_c, 1, 60, 127
1, 1800, Note_on_c, 1, 76, 127
1, 1800, Note_on_c, 1, 72, 127
1, 1800, Note_on_c, 1, 58, 127
1, 1859, Note_off_c, 1, 67, 0
1, 1859, Note_off_c, 1, 60, 0
1, 1859, Note_off_c, 1, 76, 0
1, 1859, Note_off_c, 1, 58, 0
1, 1860, Note_on_c, 1, 69, 127
1, 1860, Note_on_c, 1, 65, 127
1, 1860, Note_on_c, 1, 77, 127
1, 1860, Note_on_c, 1, 57, 127
1, 1919, Note_off_c, 1, 72, 0
1, 1919, Note_off_c, 1, 69, 0
1, 1919, Note_off_c, 1, 65, 0
1, 1919, Note_off_c, 1, 77, 0
1, 1919, Note_off_c, 1, 57, 0
1, 1920, Note_on_c, 1, 70, 127
1, 1920, Note_on_c, 1, 60, 127
1, 1920, Note_on_c, 1, 79, 127
1, 1920, Note_on_c, 1, 76, 127
1, 1920, Note_on_c, 1, 55, 127
1, 1979, Note_off_c, 1, 70, 0
1, 1979, Note_off_c, 1, 60, 0
1, 1979, Note_off_c, 1, 79, 0
1, 1979, Note_off_c, 1, 76, 0
1, 1979, Note_off_c, 1, 55, 0
1, 1980, Note_on_c, 1, 72, 127
1, 1980, Note_on_c, 1, 57, 127
1, 1980, Note_on_c, 1, 81, 127
1, 1980, Note_on_c, 1, 77, 127
1, 1980, Note_on_c, 1, 53, 127
1, 2010, Note_off_c, 1, 53, 0
1, 2010, Note_on_c, 1, 70, 127
1, 2039, Note_off_c, 1, 72, 0
1, 2039, Note_off_c, 1, 57, 0
1, 2039, Note_off_c, 1, 81, 0
1, 2039, Note_off_c, 1, 77, 0
1, 2039, Note_off_c, 1, 70, 0
1, 2040, Note_on_c, 1, 72, 127
1, 2040, Note_on_c, 1, 60, 127
1, 2040, Note_on_c, 1, 79, 127
1, 2040, Note_on_c, 1, 76, 127
1, 2040, Note_on_c, 1, 70, 127
1, 2040, Note_on_c, 1, 48, 127
1, 2069, Note_off_c, 1, 72, 0
1, 2069, Note_off_c, 1, 79, 0
1, 2070, Note_off_c, 1, 48, 0
1, 2070, Note_on_c, 1, 81, 127
1, 2099, Note_off_c, 1, 60, 0
1, 2099, Note_off_c, 1, 76, 0
1, 2099, Note_off_c, 1, 70, 0
1, 2099, Note_off_c, 1, 81, 0
1, 2100, Note_on_c, 1, 69, 127
1, 2100, Note_on_c, 1, 65, 127
1, 2100, Note_on_c, 1, 77, 127
1, 2100, Note_on_c, 1, 72, 127
1, 2100, Note_on_c, 1, 41, 127
1, 2130, Note_off_c, 1, 41, 0
1, 2159, Note_off_c, 1, 69, 0
1, 2159, Note_off_c, 1, 65, 0
1, 2159, Note_off_c, 1, 77, 0
1, 2159, Note_off_c, 1, 72, 0
1, 2160, Note_on_c, 1, 53, 127
1, 2160, Note_on_c, 1, 81, 127
1, 2160, Note_on_c, 1, 72, 127
1, 2175, Note_off_c, 1, 72, 0
1, 2190, Note_on_c, 1, 65, 127
1, 2205, Note_off_c, 1, 65, 0
1, 2219, Note_off_c, 1, 53, 0
1, 2220, Note_on_c, 1, 51, 127
1, 2250, Note_off_c, 1, 51, 0
1, 2279, Note_off_c, 1, 81, 0
1, 2280, Note_on_c, 1, 53, 127
1, 2280, Note_on_c, 1, 82, 127
1, 2280, Note_on_c, 1, 74, 127
1, 2280, Note_on_c, 1, 50, 127
1, 2295, Note_off_c, 1, 74, 0
1, 2310, Note_off_c, 1, 50, 0
1, 2310, Note_on_c, 1, 70, 127
1, 2325, Note_off_c, 1, 70, 0
1, 2339, Note_off_c, 1, 53, 0
1, 2339, Note_off_c, 1, 82, 0
1, 2340, Note_on_c, 1, 53, 127
1, 2340, Note_on_c, 1, 75, 127
1, 2340, Note_on_c, 1, 72, 127
1, 2355, Note_off_c, 1, 75, 0
1, 2355, Note_off_c, 1, 72, 0
1, 2355, Note_on_c, 1, 77, 127
1, 2370, Note_off_c, 1, 77, 0
1, 2370, Note_on_c, 1, 65, 127
1, 2385, Note_off_c, 1, 65, 0
1, 2399, Note_off_c, 1, 53, 0
1, 2400, Note_on_c, 1, 45, 127
1, 2430, Note_off_c, 1, 45, 0
1, 2460, Note_on_c, 1, 74, 127
1, 2460, Note_on_c, 1, 70, 127
1, 2460, Note_on_c, 1, 46, 127
1, 2475, Note_off_c, 1, 70, 0
1, 2490, Note_off_c, 1, 46, 0
1, 2519, Note_off_c, 1, 74, 0
1, 2520, Note_on_c, 1, 69, 127
1, 2520, Note_on_c, 1, 78, 127
1, 2520, Note_on_c, 1, 74, 127
1, 2520, Note_on_c, 1, 60, 127
1, 2579, Note_off_c, 1, 69, 0
1, 2579, Note_off_c, 1, 78, 0
1, 2579, Note_off_c, 1, 60, 0
1, 2580, Note_on_c, 1, 70, 127
1, 2580, Note_on_c, 1, 79, 127
1, 2580, Note_on_c, 1, 58, 127
1, 2639, Note_off_c, 1, 74, 0
1, 2639, Note_off_c, 1, 70, 0
1, 2639, Note_off_c, 1, 79, 0
1, 2639, Note_off_c, 1, 58, 0
1, 2640, Note_on_c, 1, 72, 127
1, 2640, Note_on_c, 1, 81, 127
1, 2640, Note_on_c, 1, 78, 127
1, 2640, Note_on_c, 1, 57, 127
1, 2699, Note_off_c, 1, 72, 0
1, 2699, Note_off_c, 1, 81, 0
1, 2699, Note_off_c, 1, 78, 0
1, 2699, Note_off_c, 1, 57, 0
1, 2700, Note_on_c, 1, 74, 127
1, 2700, Note_on_c, 1, 82, 127
1, 2700, Note_on_c, 1, 79, 127
1, 2700, Note_on_c, 1, 55, 127
1, 2730, Note_off_c, 1, 55, 0
1, 2730, Note_on_c, 1, 72, 127
1, 2759, Note_off_c, 1, 82, 0
1, 2759, Note_off_c, 1, 79, 0
1, 2759, Note_off_c, 1, 72, 0
1, 2760, Note_on_c, 1, 81, 127
1, 2760, Note_on_c, 1, 78, 127
1, 2760, Note_on_c, 1, 50, 127
1, 2789, Note_off_c, 1, 74, 0
1, 2789, Note_off_c, 1, 81, 0
1, 2790, Note_off_c, 1, 50, 0
1, 2819, Note_off_c, 1, 78, 0
1, 2820, Note_on_c, 1, 70, 127
1, 2820, Note_on_c, 1, 79, 127
1, 2820, Note_on_c, 1, 43, 127
1, 2850, Note_off_c, 1, 43, 0
1, 2850, Note_on_c, 1, 69, 127
1, 2879, Note_off_c, 1, 70, 0
1, 2879, Note_off_c, 1, 79, 0
1, 2879, Note_off_c, 1, 69, 0
1, 2880, Note_on_c, 1, 82, 127
1, 2880, Note_on_c, 1, 74, 127
1, 2880, Note_on_c, 1, 67, 127
1, 2880, Note_on_c, 1, 55, 127
1, 2910, Note_off_c, 1, 55, 0
1, 2939, Note_off_c, 1, 82, 0
1, 2939, Note_off_c, 1, 74, 0
1, 2939, Note_off_c, 1, 67, 0
1, 2940, Note_on_c, 1, 70, 127
1, 2940, Note_on_c, 1, 67, 127
1, 2940, Note_on_c, 1, 74, 127
1, 2940, Note_on_c, 1, 79, 127
1, 2940, Note_on_c, 1, 53, 127
1, 2969, Note_off_c, 1, 67, 0
1, 2969, Note_off_c, 1, 74, 0
1, 2970, Note_off_c, 1, 53, 0
1, 2970, Note_on_c, 1, 72, 127
1, 2970, Note_on_c, 1, 69, 127
1, 2999, Note_off_c, 1, 70, 0
1, 2999, Note_off_c, 1, 79, 0
1, 2999, Note_off_c, 1, 72, 0
1, 2999, Note_off_c, 1, 69, 0
1, 3000, Note_on_c, 1, 70, 127
1, 3000, Note_on_c, 1, 67, 127
1, 3000, Note_on_c, 1, 74, 127
1, 3029, Note_off_c, 1, 67, 0
1, 3030, Note_on_c, 1, 72, 127
1, 3030, Note_on_c, 1, 69, 127
1, 3059, Note_off_c, 1, 74, 0
1, 3059, Note_off_c, 1, 72, 0
1, 3059, Note_off_c, 1, 69, 0
1, 3060, Note_on_c, 1, 52, 127
1, 3089, Note_off_c, 1, 52, 0
1, 3090, Note_on_c, 1, 50, 127
1, 3119, Note_off_c, 1, 50, 0
1, 3120, Note_off_c, 1, 70, 0
1, 3150, Note_on_c, 1, 76, 127
1, 3179, Note_off_c, 1, 76, 0
1, 3180, Note_on_c, 1, 79, 127
1, 3180, Note_on_c, 1, 48, 127
1, 3209, Note_off_c, 1, 79, 0
1, 3210, Note_on_c, 1, 82, 127
1, 3239, Note_off_c, 1, 48, 0
1, 3239, Note_off_c, 1, 82, 0
1, 3240, Note_on_c, 1, 81, 127
1, 3240, Note_on_c, 1, 65, 127
1, 3240, Note_on_c, 1, 53, 127
1, 3270, Note_off_c, 1, 53, 0
1, 3299, Note_off_c, 1, 81, 0
1, 3299, Note_off_c, 1, 65, 0
1, 3300, Note_on_c, 1, 69, 127
1, 3300, Note_on_c, 1, 65, 127
1, 3300, Note_on_c, 1, 72, 127
1, 3300, Note_on_c, 1, 77, 127
1, 3300, Note_on_c, 1, 52, 127
1, 3329, Note_off_c, 1, 65, 0
1, 3329, Note_off_c, 1, 72, 0
1, 3330, Note_off_c, 1, 52, 0
1, 3330, Note_on_c, 1, 70, 127
1, 3330, Note_on_c, 1, 67, 127
1, 3359, Note_off_c, 1, 69, 0
1, 3359, Note_off_c, 1, 77, 0
1, 3359, Note_off_c, 1, 70, 0
1, 3359, Note_off_c, 1, 67, 0
1, 3360, Note_on_c, 1, 69, 127
1, 3360, Note_on_c, 1, 65, 127
1, 3360, Note_on_c, 1, 72, 127
1, 3389, Note_off_c, 1, 65, 0
1, 3390, Note_on_c, 1, 70, 127
1, 3390, Note_on_c, 1, 67, 127
1, 3419, Note_off_c, 1, 72, 0
1, 3419, Note_off_c, 1, 70, 0
1, 3419, Note_off_c, 1, 67, 0
1, 3420, Note_on_c, 1, 50, 127
1, 3449, Note_off_c, 1, 50, 0
1, 3450, Note_on_c, 1, 48, 127
1, 3479, Note_off_c, 1, 48, 0
1, 3510, Note_on_c, 1, 74, 127
1, 3539, Note_off_c, 1, 74, 0
1, 3540, Note_on_c, 1, 77, 127
1, 3540, Note_on_c, 1, 46, 127
1, 3569, Note_off_c, 1, 77, 0
1, 3570, Note_on_c, 1, 81, 127
1, 3599, Note_off_c, 1, 69, 0
1, 3599, Note_off_c, 1, 46, 0
1, 3599, Note_off_c, 1, 81, 0
1, 3600, Note_on_c, 1, 79, 127
1, 3600, Note_on_c, 1, 40, 127
1, 3659, Note_off_c, 1, 79, 0
1, 3659, Note_off_c, 1, 40, 0
1, 3660, Note_on_c, 1, 67, 127
1, 3660, Note_on_c, 1, 60, 127
1, 3660, Note_on_c, 1, 70, 127
1, 3660, Note_on_c, 1, 79, 127
1, 3660, Note_on_c, 1, 52, 127
1, 3689, Note_off_c, 1, 67, 0
1, 3689, Note_off_c, 1, 70, 0
1, 3689, Note_off_c, 1, 52, 0
1, 3690, Note_on_c, 1, 69, 127
1, 3690, Note_on_c, 1, 65, 127
1, 3690, Note_on_c, 1, 50, 127
1, 3719, Note_off_c, 1, 60, 0
1, 3719, Note_off_c, 1, 79, 0
1, 3719, Note_off_c, 1, 69, 0
1, 3719, Note_off_c, 1, 65, 0
1, 3719, Note_off_c, 1, 50, 0
1, 3720, Note_on_c, 1, 67, 127
1, 3720, Note_on_c, 1, 60, 127
1, 3720, Note_on_c, 1, 70, 127
1, 3720, Note_on_c, 1, 52, 127
1, 3749, Note_off_c, 1, 70, 0
1, 3749, Note_off_c, 1, 52, 0
1, 3750, Note_on_c, 1, 69, 127
1, 3750, Note_on_c, 1, 64, 127
1, 3750, Note_on_c, 1, 48, 127
1, 3779, Note_off_c, 1, 60, 0
1, 3779, Note_off_c, 1, 69, 0
1, 3779, Note_off_c, 1, 64, 0
1, 3779, Note_off_c, 1, 48, 0
1, 3780, Note_on_c, 1, 53, 127
1, 3839, Note_off_c, 1, 67, 0
1, 3839, Note_off_c, 1, 53, 0
1, 3840, Note_on_c, 1, 65, 127
1, 3840, Note_on_c, 1, 72, 127
1, 3840, Note_on_c, 1, 69, 127
1, 3840, Note_on_c, 1, 41, 127
1, 3869, Note_off_c, 1, 65, 0
1, 3869, Note_off_c, 1, 69, 0
1, 3869, Note_off_c, 1, 41, 0
1, 3870, Note_on_c, 1, 67, 127
1, 3870, Note_on_c, 1, 74, 127
1, 3870, Note_on_c, 1, 70, 127
1, 3870, Note_on_c, 1, 40, 127
1, 3899, Note_off_c, 1, 72, 0
1, 3899, Note_off_c, 1, 67, 0
1, 3899, Note_off_c, 1, 74, 0
1, 3899, Note_off_c, 1, 70, 0
1, 3899, Note_off_c, 1, 40, 0
1, 3900, Note_on_c, 1, 69, 127
1, 3900, Note_on_c, 1, 72, 127
1, 3900, Note_on_c, 1, 41, 127
1, 3929, Note_off_c, 1, 69, 0
1, 3929, Note_off_c, 1, 72, 0
1, 3929, Note_off_c, 1, 41, 0
1, 3930, Note_on_c, 1, 70, 127
1, 3930, Note_on_c, 1, 43, 127
1, 3959, Note_off_c, 1, 70, 0
1, 3959, Note_off_c, 1, 43, 0
1, 3960, Note_on_c, 1, 72, 127
1, 3960, Note_on_c, 1, 69, 127
1, 3960, Note_on_c, 1, 45, 127
1, 4019, Note_off_c, 1, 72, 0
1, 4019, Note_off_c, 1, 69, 0
1, 4019, Note_off_c, 1, 45, 0
1, 4020, Note_on_c, 1, 70, 127
1, 4020, Note_on_c, 1, 65, 127
1, 4020, Note_on_c, 1, 62, 127
1, 4020, Note_on_c, 1, 46, 127
1, 4049, Note_off_c, 1, 70, 0
1, 4049, Note_off_c, 1, 62, 0
1, 4050, Note_on_c, 1, 69, 127
1, 4079, Note_off_c, 1, 65, 0
1, 4079, Note_off_c, 1, 46, 0
1, 4079, Note_off_c, 1, 69, 0
1, 4080, Note_on_c, 1, 67, 127
1, 4080, Note_on_c, 1, 60, 127
1, 4080, Note_on_c, 1, 64, 127
1, 4080, Note_on_c, 1, 55, 127
1, 4080, Note_on_c, 1, 48, 127
1, 4090, Note_on_c, 1, 65, 127
1, 4100, Note_off_c, 1, 65, 0
1, 4109, Note_off_c, 1, 67, 0
1, 4109, Note_off_c, 1, 55, 0
1, 4139, Note_off_c, 1, 60, 0
1, 4139, Note_off_c, 1, 64, 0
1, 4139, Note_off_c, 1, 48, 0
1, 4140, Note_on_c, 1, 57, 127
1, 4140, Note_on_c, 1, 41, 127
1, 4199, Note_off_c, 1, 41, 0
1, 4200, Note_on_c, 1, 45, 127
1, 4259, Note_off_c, 1, 45, 0
1, 4319, Note_off_c, 1, 57, 0
1, 4320, Note_on_c, 1, 69, 127
1, 4320, Note_on_c, 1, 65, 127
1, 4320, Note_on_c, 1, 60, 127
1, 4320, Note_on_c, 1, 53, 127
1, 4439, Note_off_c, 1, 69, 0
1, 4439, Note_off_c, 1, 65, 0
1, 4439, Note_off_c, 1, 60, 0
1, 4440, Note_on_c, 1, 70, 127
1, 4440, Note_on_c, 1, 62, 127
1, 4499, Note_off_c, 1, 70, 0
1, 4499, Note_off_c, 1, 62, 0
1, 4500, Note_on_c, 1, 67, 127
1, 4500, Note_on_c, 1, 64, 127
1, 4500, Note_on_c, 1, 58, 127
1, 4619, Note_off_c, 1, 67, 0
1, 4619, Note_off_c, 1, 58, 0
1, 4620, Note_off_c, 1, 64, 0
1, 4620, Note_on_c, 1, 57, 127
1, 4679, Note_off_c, 1, 57, 0
1, 4680, Note_on_c, 1, 51, 127
1, 4739, Note_off_c, 1, 51, 0
1, 4740, Note_on_c, 1, 50, 127
1, 4799, Note_off_c, 1, 50, 0
1, 4800, Note_on_c, 1, 72, 127
1, 4800, Note_on_c, 1, 63, 127
1, 4800, Note_on_c, 1, 48, 127
1, 4859, Note_off_c, 1, 72, 0
1, 4859, Note_off_c, 1, 63, 0
1, 4859, Note_off_c, 1, 48, 0
1, 4860, Note_on_c, 1, 74, 127
1, 4860, Note_on_c, 1, 46, 127
1, 4889, Note_off_c, 1, 74, 0
1, 4890, Note_off_c, 1, 46, 0
1, 5040, Note_on_c, 1, 75, 127
1, 5040, Note_on_c, 1, 45, 127
1, 5070, Note_off_c, 1, 75, 0
1, 5099, Note_off_c, 1, 45, 0
1, 5160, Note_on_c, 1, 41, 127
1, 5219, Note_off_c, 1, 41, 0
1, 6240, Note_on_c, 1, 55, 127
1, 6299, Note_off_c, 1, 55, 0
1, 6839, Note_off_c, 1, 53, 0
1, 6960, Note_on_c, 1, 53, 127
1, 6960, Note_on_c, 1, 72, 127
1, 6960, Note_on_c, 1, 69, 127
1, 6960, Note_on_c, 1, 63, 127
1, 6960, Note_on_c, 1, 48, 127
1, 7019, Note_off_c, 1, 53, 0
1, 7019, Note_off_c, 1, 72, 0
1, 7019, Note_off_c, 1, 69, 0
1, 7019, Note_off_c, 1, 63, 0
1, 7019, Note_off_c, 1, 48, 0
1, 7020, Note_on_c, 1, 53, 127
1, 7020, Note_on_c, 1, 74, 127
1, 7020, Note_on_c, 1, 70, 127
1, 7020, Note_on_c, 1, 65, 127
1, 7020, Note_on_c, 1, 46, 127
1, 7049, Note_off_c, 1, 74, 0
1, 7049, Note_off_c, 1, 65, 0
1, 7050, Note_off_c, 1, 70, 0
1, 7050, Note_off_c, 1, 46, 0
1, 7079, Note_off_c, 1, 53, 0
1, 7080, Note_on_c, 1, 67, 127
1, 7080, Note_on_c, 1, 72, 127
1, 7080, Note_on_c, 1, 69, 127
1, 7080, Note_on_c, 1, 65, 127
1, 7080, Note_on_c, 1, 53, 127
1, 7109, Note_off_c, 1, 67, 0
1, 7109, Note_off_c, 1, 72, 0
1, 7109, Note_off_c, 1, 65, 0
1, 7110, Note_off_c, 1, 53, 0
1, 7139, Note_off_c, 1, 69, 0
1, 7140, Note_on_c, 1, 70, 127
1, 7140, Note_on_c, 1, 67, 127
1, 7169, Note_off_c, 1, 70, 0
1, 7169, Note_off_c, 1, 67, 0
1, 7170, Note_on_c, 1, 72, 127
1, 7170, Note_on_c, 1, 69, 127
1, 7199, Note_off_c, 1, 72, 0
1, 7199, Note_off_c, 1, 69, 0
1, 7200, Note_on_c, 1, 74, 127
1, 7200, Note_on_c, 1, 70, 127
1, 7200, Note_on_c, 1, 65, 127
1, 7200, Note_on_c, 1, 58, 127
1, 7229, Note_off_c, 1, 74, 0
1, 7230, Note_on_c, 1, 76, 127
1, 7230, Note_on_c, 1, 60, 127
1, 7259, Note_off_c, 1, 70, 0
1, 7259, Note_off_c, 1, 65, 0
1, 7259, Note_off_c, 1, 58, 0
1, 7259, Note_off_c, 1, 76, 0
1, 7259, Note_off_c, 1, 60, 0
1, 7260, Note_on_c, 1, 77, 127
1, 7260, Note_on_c, 1, 67, 127
1, 7260, Note_on_c, 1, 60, 127
1, 7260, Note_on_c, 1, 58, 127
1, 7275, Note_off_c, 1, 77, 0
1, 7275, Note_on_c, 1, 76, 127
1, 7289, Note_off_c, 1, 58, 0
1, 7290, Note_off_c, 1, 76, 0
1, 7290, Note_on_c, 1, 57, 127
1, 7319, Note_off_c, 1, 57, 0
1, 7320, Note_on_c, 1, 55, 127
1, 7350, Note_on_c, 1, 74, 127
1, 7350, Note_on_c, 1, 65, 127
1, 7364, Note_off_c, 1, 65, 0
1, 7365, Note_off_c, 1, 74, 0
1, 7379, Note_off_c, 1, 67, 0
1, 7379, Note_off_c, 1, 60, 0
1, 7379, Note_off_c, 1, 55, 0
1, 7380, Note_on_c, 1, 53, 127
1, 7380, Note_on_c, 1, 72, 127
1, 7439, Note_off_c, 1, 53, 0
1, 7499, Note_off_c, 1, 72, 0
1, 7500, Note_on_c, 1, 72, 127
1, 7500, Note_on_c, 1, 60, 127
1, 7500, Note_on_c, 1, 67, 127
1, 7500, Note_on_c, 1, 52, 127
1, 7529, Note_off_c, 1, 72, 0
1, 7530, Note_on_c, 1, 70, 127
1, 7559, Note_off_c, 1, 60, 0
1, 7559, Note_off_c, 1, 67, 0
1, 7559, Note_off_c, 1, 52, 0
1, 7559, Note_off_c, 1, 70, 0
1, 7560, Note_on_c, 1, 69, 127
1, 7560, Note_on_c, 1, 65, 127
1, 7560, Note_on_c, 1, 60, 127
1, 7560, Note_on_c, 1, 53, 127
1, 7619, Note_off_c, 1, 69, 0
1, 7619, Note_off_c, 1, 60, 0
1, 7619, Note_off_c, 1, 53, 0
1, 7620, Note_on_c, 1, 74, 127
1, 7620, Note_on_c, 1, 58, 127
1, 7620, Note_on_c, 1, 46, 127
1, 7679, Note_off_c, 1, 65, 0
1, 7679, Note_off_c, 1, 74, 0
1, 7679, Note_off_c, 1, 58, 0
1, 7679, Note_off_c, 1, 46, 0
1, 7680, Note_on_c, 1, 70, 127
1, 7680, Note_on_c, 1, 65, 127
1, 7680, Note_on_c, 1, 62, 127
1, 7680, Note_on_c, 1, 55, 127
1, 7680, Note_on_c, 1, 43, 127
1, 7739, Note_off_c, 1, 70, 0
1, 7739, Note_off_c, 1, 65, 0
1, 7739, Note_off_c, 1, 62, 0
1, 7739, Note_off_c, 1, 55, 0
1, 7739, Note_off_c, 1, 43, 0
1, 7740, Note_on_c, 1, 69, 127
1, 7740, Note_on_c, 1, 60, 127
1, 7740, Note_on_c, 1, 65, 127
1, 7740, Note_on_c, 1, 48, 127
1, 7799, Note_off_c, 1, 69, 0
1, 7799, Note_off_c, 1, 65, 0
1, 7799, Note_off_c, 1, 48, 0
1, 7800, Note_on_c, 1, 67, 127
1, 7800, Note_on_c, 1, 64, 127
1, 7800, Note_on_c, 1, 43, 127
1, 7859, Note_off_c, 1, 43, 0
1, 7860, Note_on_c, 1, 36, 127
1, 7919, Note_off_c, 1, 60, 0
1, 7919, Note_off_c, 1, 67, 0
1, 7919, Note_off_c, 1, 64, 0
1, 7919, Note_off_c, 1, 36, 0
1, 7920, Note_on_c, 1, 60, 127
1, 7920, Note_on_c, 1, 76, 127
1, 7920, Note_on_c, 1, 72, 127
1, 7920, Note_on_c, 1, 67, 127
1, 7950, Note_on_c, 1, 74, 127
1, 7979, Note_off_c, 1, 60, 0
1, 7979, Note_off_c, 1, 72, 0
1, 7979, Note_off_c, 1, 74, 0
1, 7980, Note_on_c, 1, 46, 127
1, 8010, Note_off_c, 1, 46, 0
1, 8039, Note_off_c, 1, 76, 0
1, 8039, Note_off_c, 1, 67, 0
1, 8040, Note_on_c, 1, 60, 127
1, 8040, Note_on_c, 1, 77, 127
1, 8040, Note_on_c, 1, 72, 127
1, 8040, Note_on_c, 1, 69, 127
1, 8040, Note_on_c, 1, 45, 127
1, 8070, Note_off_c, 1, 45, 0
1, 8099, Note_off_c, 1, 60, 0
1, 8099, Note_off_c, 1, 77, 0
1, 8099, Note_off_c, 1, 69, 0
1, 8100, Note_on_c, 1, 79, 127
1, 8100, Note_on_c, 1, 70, 127
1, 8129, Note_off_c, 1, 79, 0
1, 8159, Note_off_c, 1, 72, 0
1, 8160, Note_on_c, 1, 64, 127
1, 8160, Note_on_c, 1, 48, 127
1, 8190, Note_off_c, 1, 48, 0
1, 8219, Note_off_c, 1, 70, 0
1, 8219, Note_off_c, 1, 64, 0
1, 8220, Note_on_c, 1, 60, 127
1, 8220, Note_on_c, 1, 81, 127
1, 8220, Note_on_c, 1, 65, 127
1, 8220, Note_on_c, 1, 69, 127
1, 8220, Note_on_c, 1, 62, 127
1, 8220, Note_on_c, 1, 53, 127
1, 8249, Note_off_c, 1, 81, 0
1, 8250, Note_off_c, 1, 53, 0
1, 8250, Note_on_c, 1, 77, 127
1, 8279, Note_off_c, 1, 60, 0
1, 8279, Note_off_c, 1, 65, 0
1, 8279, Note_off_c, 1, 69, 0
1, 8279, Note_off_c, 1, 62, 0
1, 8279, Note_off_c, 1, 77, 0
1, 8280, Note_on_c, 1, 67, 127
1, 8280, Note_on_c, 1, 60, 127
1, 8280, Note_on_c, 1, 76, 127
1, 8280, Note_on_c, 1, 72, 127
1, 8280, Note_on_c, 1, 58, 127
1, 8339, Note_off_c, 1, 67, 0
1, 8339, Note_off_c, 1, 76, 0
1, 8339, Note_off_c, 1, 58, 0
1, 8340, Note_on_c, 1, 69, 127
1, 8340, Note_on_c, 1, 65, 127
1, 8340, Note_on_c, 1, 77, 127
1, 8340, Note_on_c, 1, 62, 127
1, 8340, Note_on_c, 1, 57, 127
1, 8399, Note_off_c, 1, 60, 0
1, 8399, Note_off_c, 1, 72, 0
1, 8399, Note_off_c, 1, 69, 0
1, 8399, Note_off_c, 1, 65, 0
1, 8399, Note_off_c, 1, 77, 0
1, 8399, Note_off_c, 1, 62, 0
1, 8399, Note_off_c, 1, 57, 0
1, 8400, Note_on_c, 1, 70, 127
1, 8400, Note_on_c, 1, 60, 127
1, 8400, Note_on_c, 1, 79, 127
1, 8400, Note_on_c, 1, 76, 127
1, 8400, Note_on_c, 1, 64, 127
1, 8400, Note_on_c, 1, 58, 127
1, 8400, Note_on_c, 1, 55, 127
1, 8459, Note_off_c, 1, 70, 0
1, 8459, Note_off_c, 1, 60, 0
1, 8459, Note_off_c, 1, 79, 0
1, 8459, Note_off_c, 1, 76, 0
1, 8459, Note_off_c, 1, 64, 0
1, 8459, Note_off_c, 1, 58, 0
1, 8459, Note_off_c, 1, 55, 0
1, 8460, Note_on_c, 1, 72, 127
1, 8460, Note_on_c, 1, 57, 127
1, 8460, Note_on_c, 1, 81, 127
1, 8460, Note_on_c, 1, 77, 127
1, 8460, Note_on_c, 1, 65, 127
1, 8460, Note_on_c, 1, 60, 127
1, 8460, Note_on_c, 1, 53, 127
1, 8519, Note_off_c, 1, 72, 0
1, 8519, Note_off_c, 1, 57, 0
1, 8519, Note_off_c, 1, 81, 0
1, 8519, Note_off_c, 1, 77, 0
1, 8519, Note_off_c, 1, 65, 0
1, 8519, Note_off_c, 1, 53, 0
1, 8520, Note_on_c, 1, 70, 127
1, 8520, Note_on_c, 1, 79, 127
1, 8520, Note_on_c, 1, 64, 127
1, 8520, Note_on_c, 1, 52, 127
1, 8520, Note_on_c, 1, 48, 127
1, 8549, Note_off_c, 1, 70, 0
1, 8549, Note_off_c, 1, 64, 0
1, 8550, Note_off_c, 1, 48, 0
1, 8579, Note_off_c, 1, 60, 0
1, 8579, Note_off_c, 1, 79, 0
1, 8579, Note_off_c, 1, 52, 0
1, 8580, Note_on_c, 1, 69, 127
1, 8580, Note_on_c, 1, 65, 127
1, 8580, Note_on_c, 1, 77, 127
1, 8580, Note_on_c, 1, 81, 127
1, 8580, Note_on_c, 1, 62, 127
1, 8580, Note_on_c, 1, 60, 127
1, 8580, Note_on_c, 1, 53, 127
1, 8580, Note_on_c, 1, 41, 127
1, 8610, Note_off_c, 1, 41, 0
1, 8639, Note_off_c, 1, 69, 0
1, 8639, Note_off_c, 1, 65, 0
1, 8639, Note_off_c, 1, 77, 0
1, 8639, Note_off_c, 1, 81, 0
1, 8639, Note_off_c, 1, 62, 0
1, 8639, Note_off_c, 1, 60, 0
1, 8639, Note_off_c, 1, 53, 0
1, 8640, Note_on_c, 1, 53, 127
1, 8640, Note_on_c, 1, 69, 127
1, 8640, Note_on_c, 1, 65, 127
1, 8640, Note_on_c, 1, 60, 127
1, 8640, Note_on_c, 1, 57, 127
1, 8669, Note_off_c, 1, 69, 0
1, 8670, Note_on_c, 1, 67, 127
1, 8699, Note_off_c, 1, 53, 0
1, 8699, Note_off_c, 1, 65, 0
1, 8699, Note_off_c, 1, 67, 0
1, 8700, Note_on_c, 1, 51, 127
1, 8730, Note_off_c, 1, 51, 0
1, 8759, Note_off_c, 1, 60, 0
1, 8759, Note_off_c, 1, 57, 0
1, 8760, Note_on_c, 1, 53, 127
1, 8760, Note_on_c, 1, 70, 127
1, 8760, Note_on_c, 1, 65, 127
1, 8760, Note_on_c, 1, 62, 127
1, 8760, Note_on_c, 1, 58, 127
1, 8760, Note_on_c, 1, 50, 127
1, 8789, Note_off_c, 1, 70, 0
1, 8790, Note_off_c, 1, 50, 0
1, 8819, Note_off_c, 1, 53, 0
1, 8819, Note_off_c, 1, 62, 0
1, 8819, Note_off_c, 1, 58, 0
1, 8820, Note_on_c, 1, 72, 127
1, 8820, Note_on_c, 1, 57, 127
1, 8820, Note_on_c, 1, 51, 127
1, 8849, Note_off_c, 1, 72, 0
1, 8880, Note_off_c, 1, 65, 0
1, 8939, Note_off_c, 1, 57, 0
1, 8939, Note_off_c, 1, 51, 0
1, 8940, Note_on_c, 1, 53, 127
1, 8940, Note_on_c, 1, 74, 127
1, 8940, Note_on_c, 1, 58, 127
1, 8940, Note_on_c, 1, 50, 127
1, 8940, Note_on_c, 1, 46, 127
1, 8969, Note_off_c, 1, 74, 0
1, 8970, Note_off_c, 1, 46, 0
1, 8970, Note_on_c, 1, 70, 127
1, 8999, Note_off_c, 1, 53, 0
1, 8999, Note_off_c, 1, 58, 0
1, 8999, Note_off_c, 1, 50, 0
1, 8999, Note_off_c, 1, 70, 0
1, 9000, Note_on_c, 1, 69, 127
1, 9000, Note_on_c, 1, 53, 127
1, 9000, Note_on_c, 1, 72, 127
1, 9000, Note_on_c, 1, 65, 127
1, 9000, Note_on_c, 1, 60, 127
1, 9000, Note_on_c, 1, 57, 127
1, 9000, Note_on_c, 1, 48, 127
1, 9000, Note_on_c, 1, 51, 127
1, 9059, Note_off_c, 1, 69, 0
1, 9059, Note_off_c, 1, 72, 0
1, 9059, Note_off_c, 1, 60, 0
1, 9059, Note_off_c, 1, 57, 0
1, 9059, Note_off_c, 1, 48, 0
1, 9059, Note_off_c, 1, 51, 0
1, 9060, Note_on_c, 1, 70, 127
1, 9060, Note_on_c, 1, 74, 127
1, 9060, Note_on_c, 1, 58, 127
1, 9060, Note_on_c, 1, 50, 127
1, 9119, Note_off_c, 1, 53, 0
1, 9119, Note_off_c, 1, 65, 0
1, 9119, Note_off_c, 1, 70, 0
1, 9119, Note_off_c, 1, 74, 0
1, 9119, Note_off_c, 1, 58, 0
1, 9119, Note_off_c, 1, 50, 0
1, 9120, Note_on_c, 1, 72, 127
1, 9120, Note_on_c, 1, 65, 127
1, 9120, Note_on_c, 1, 75, 127
1, 9120, Note_on_c, 1, 63, 127
1, 9120, Note_on_c, 1, 57, 127
1, 9120, Note_on_c, 1, 60, 127
1, 9120, Note_on_c, 1, 48, 127
1, 9179, Note_off_c, 1, 65, 0
1, 9179, Note_off_c, 1, 75, 0
1, 9179, Note_off_c, 1, 63, 0
1, 9179, Note_off_c, 1, 57, 0
1, 9179, Note_off_c, 1, 60, 0
1, 9179, Note_off_c, 1, 48, 0
1, 9180, Note_off_c, 1, 72, 0
1, 9180, Note_on_c, 1, 74, 127
1, 9180, Note_on_c, 1, 77, 127
1, 9180, Note_on_c, 1, 70, 127
1, 9180, Note_on_c, 1, 62, 127
1, 9180, Note_on_c, 1, 58, 127
1, 9180, Note_on_c, 1, 46, 127
1, 9210, Note_off_c, 1, 46, 0
1, 9239, Note_off_c, 1, 74, 0
1, 9239, Note_off_c, 1, 77, 0
1, 9239, Note_off_c, 1, 70, 0
1, 9239, Note_off_c, 1, 62, 0
1, 9239, Note_off_c, 1, 58, 0
1, 9240, Note_on_c, 1, 69, 127
1, 9240, Note_on_c, 1, 53, 127
1, 9299, Note_off_c, 1, 53, 0
1, 9300, Note_off_c, 1, 69, 0
1, 9420, Note_on_c, 1, 45, 127
1, 9450, Note_off_c, 1, 45, 0
1, 9480, Note_on_c, 1, 74, 127
1, 9480, Note_on_c, 1, 70, 127
1, 9480, Note_on_c, 1, 65, 127
1, 9480, Note_on_c, 1, 62, 127
1, 9480, Note_on_c, 1, 57, 127
1, 9510, Note_on_c, 1, 75, 127
1, 9510, Note_on_c, 1, 72, 127
1, 9539, Note_off_c, 1, 70, 0
1, 9539, Note_off_c, 1, 65, 0
1, 9539, Note_off_c, 1, 57, 0
1, 9539, Note_off_c, 1, 75, 0
1, 9539, Note_off_c, 1, 72, 0
1, 9540, Note_on_c, 1, 58, 127
1, 9540, Note_on_c, 1, 64, 127
1, 9540, Note_on_c, 1, 55, 127
1, 9540, Note_on_c, 1, 43, 127
1, 9569, Note_off_c, 1, 55, 0
1, 9569, Note_off_c, 1, 43, 0
1, 9570, Note_on_c, 1, 53, 127
1, 9570, Note_on_c, 1, 41, 127
1, 9599, Note_off_c, 1, 62, 0
1, 9599, Note_off_c, 1, 53, 0
1, 9599, Note_off_c, 1, 41, 0
1, 9600, Note_on_c, 1, 76, 127
1, 9630, Note_on_c, 1, 67, 127
1, 9659, Note_off_c, 1, 74, 0
1, 9659, Note_off_c, 1, 58, 0
1, 9659, Note_off_c, 1, 76, 0
1, 9659, Note_off_c, 1, 67, 0
1, 9660, Note_on_c, 1, 79, 127
1, 9660, Note_on_c, 1, 52, 127
1, 9660, Note_on_c, 1, 40, 127
1, 9719, Note_off_c, 1, 79, 0
1, 9719, Note_off_c, 1, 52, 0
1, 9719, Note_off_c, 1, 40, 0
1, 9720, Note_on_c, 1, 69, 127
1, 9720, Note_on_c, 1, 45, 127
1, 9750, Note_off_c, 1, 45, 0
1, 9780, Note_on_c, 1, 60, 127
1, 9839, Note_off_c, 1, 64, 0
1, 9839, Note_off_c, 1, 60, 0
1, 9900, Note_on_c, 1, 54, 127
1, 9900, Note_on_c, 1, 42, 127
1, 9929, Note_off_c, 1, 54, 0
1, 9929, Note_off_c, 1, 42, 0
1, 9990, Note_on_c, 1, 66, 127
1, 10019, Note_off_c, 1, 66, 0
1, 10020, Note_on_c, 1, 78, 127
1, 10020, Note_on_c, 1, 50, 127
1, 10020, Note_on_c, 1, 38, 127
1, 10079, Note_off_c, 1, 69, 0
1, 10079, Note_off_c, 1, 78, 0
1, 10079, Note_off_c, 1, 50, 0
1, 10079, Note_off_c, 1, 38, 0
1, 10380, Note_on_c, 1, 48, 127
1, 10380, Note_on_c, 1, 36, 127
1, 10439, Note_off_c, 1, 48, 0
1, 10439, Note_off_c, 1, 36, 0
1, 10500, Note_on_c, 1, 71, 127
1, 10559, Note_off_c, 1, 71, 0
1, 10560, Note_on_c, 1, 72, 127
1, 10560, Note_on_c, 1, 67, 127
1, 10560, Note_on_c, 1, 64, 127
1, 10560, Note_on_c, 1, 48, 127
1, 10560, Note_on_c, 1, 36, 127
1, 10619, Note_off_c, 1, 72, 0
1, 10619, Note_off_c, 1, 67, 0
1, 10619, Note_off_c, 1, 64, 0
1, 10619, Note_off_c, 1, 48, 0
1, 10619, Note_off_c, 1, 36, 0
1, 10620, Note_on_c, 1, 71, 127
1, 10620, Note_on_c, 1, 67, 127
1, 10620, Note_on_c, 1, 62, 127
1, 10620, Note_on_c, 1, 55, 127
1, 10620, Note_on_c, 1, 43, 127
1, 10635, Note_on_c, 1, 72, 127
1, 10650, Note_off_c, 1, 72, 0
1, 10679, Note_off_c, 1, 43, 0
1, 10680, Note_on_c, 1, 69, 127
1, 10680, Note_on_c, 1, 45, 127
1, 10709, Note_off_c, 1, 69, 0
1, 10739, Note_off_c, 1, 71, 0
1, 10739, Note_off_c, 1, 67, 0
1, 10739, Note_off_c, 1, 62, 0
1, 10739, Note_off_c, 1, 55, 0
1, 10739, Note_off_c, 1, 45, 0
1, 10740, Note_on_c, 1, 67, 127
1, 10740, Note_on_c, 1, 62, 127
1, 10740, Note_on_c, 1, 47, 127
1, 10799, Note_off_c, 1, 67, 0
1, 10799, Note_off_c, 1, 62, 0
1, 10799, Note_off_c, 1, 47, 0
1, 10800, Note_on_c, 1, 76, 127
1, 10800, Note_on_c, 1, 72, 127
1, 10800, Note_on_c, 1, 60, 127
1, 10800, Note_on_c, 1, 67, 127
1, 10800, Note_on_c, 1, 48, 127
1, 10859, Note_off_c, 1, 48, 0
1, 10919, Note_off_c, 1, 76, 0
1, 10919, Note_off_c, 1, 72, 0
1, 10919, Note_off_c, 1, 60, 0
1, 10919, Note_off_c, 1, 67, 0
1, 10920, Note_on_c, 1, 77, 127
1, 10920, Note_on_c, 1, 72, 127
1, 10920, Note_on_c, 1, 60, 127
1, 10920, Note_on_c, 1, 69, 127
1, 10920, Note_on_c, 1, 57, 127
1, 10979, Note_off_c, 1, 77, 0
1, 10979, Note_off_c, 1, 72, 0
1, 10979, Note_off_c, 1, 60, 0
1, 10979, Note_off_c, 1, 69, 0
1, 10979, Note_off_c, 1, 57, 0
1, 10980, Note_on_c, 1, 74, 127
1, 10980, Note_on_c, 1, 72, 127
1, 10980, Note_on_c, 1, 65, 127
1, 10980, Note_on_c, 1, 69, 127
1, 10980, Note_on_c, 1, 60, 127
1, 10980, Note_on_c, 1, 53, 127
1, 11039, Note_off_c, 1, 72, 0
1, 11039, Note_off_c, 1, 69, 0
1, 11039, Note_off_c, 1, 60, 0
1, 11039, Note_off_c, 1, 53, 0
1, 11040, Note_on_c, 1, 71, 127
1, 11040, Note_on_c, 1, 67, 127
1, 11040, Note_on_c, 1, 59, 127
1, 11040, Note_on_c, 1, 50, 127
1, 11069, Note_off_c, 1, 67, 0
1, 11099, Note_off_c, 1, 74, 0
1, 11099, Note_off_c, 1, 65, 0
1, 11099, Note_off_c, 1, 71, 0
1, 11099, Note_off_c, 1, 59, 0
1, 11099, Note_off_c, 1, 50, 0
1, 11100, Note_on_c, 1, 72, 127
1, 11100, Note_on_c, 1, 64, 127
1, 11100, Note_on_c, 1, 60, 127
1, 11100, Note_on_c, 1, 52, 127
1, 11159, Note_off_c, 1, 72, 0
1, 11159, Note_off_c, 1, 64, 0
1, 11159, Note_off_c, 1, 60, 0
1, 11159, Note_off_c, 1, 52, 0
1, 11160, Note_on_c, 1, 70, 127
1, 11160, Note_on_c, 1, 67, 127
1, 11160, Note_on_c, 1, 76, 127
1, 11160, Note_on_c, 1, 60, 127
1, 11160, Note_on_c, 1, 48, 127
1, 11219, Note_off_c, 1, 70, 0
1, 11219, Note_off_c, 1, 67, 0
1, 11219, Note_off_c, 1, 76, 0
1, 11219, Note_off_c, 1, 48, 0
1, 11220, Note_on_c, 1, 69, 127
1, 11220, Note_on_c, 1, 65, 127
1, 11220, Note_on_c, 1, 77, 127
1, 11220, Note_on_c, 1, 50, 127
1, 11279, Note_off_c, 1, 60, 0
1, 11279, Note_off_c, 1, 69, 0
1, 11279, Note_off_c, 1, 65, 0
1, 11279, Note_off_c, 1, 77, 0
1, 11279, Note_off_c, 1, 50, 0
1, 11280, Note_on_c, 1, 67, 127
1, 11280, Note_on_c, 1, 60, 127
1, 11280, Note_on_c, 1, 79, 127
1, 11280, Note_on_c, 1, 52, 127
1, 11339, Note_off_c, 1, 67, 0
1, 11339, Note_off_c, 1, 60, 0
1, 11339, Note_off_c, 1, 79, 0
1, 11339, Note_off_c, 1, 52, 0
1, 11340, Note_on_c, 1, 65, 127
1, 11340, Note_on_c, 1, 53, 127
1, 11340, Note_on_c, 1, 81, 127
1, 11340, Note_on_c, 1, 60, 127
1, 11369, Note_off_c, 1, 65, 0
1, 11369, Note_off_c, 1, 81, 0
1, 11370, Note_off_c, 1, 53, 0
1, 11370, Note_on_c, 1, 57, 127
1, 11399, Note_off_c, 1, 57, 0
1, 11400, Note_on_c, 1, 67, 127
1, 11400, Note_on_c, 1, 79, 127
1, 11400, Note_on_c, 1, 64, 127
1, 11400, Note_on_c, 1, 48, 127
1, 11429, Note_off_c, 1, 67, 0
1, 11429, Note_off_c, 1, 79, 0
1, 11429, Note_off_c, 1, 64, 0
1, 11430, Note_off_c, 1, 48, 0
1, 11520, Note_on_c, 1, 70, 127
1, 11520, Note_on_c, 1, 76, 127
1, 11550, Note_off_c, 1, 70, 0
1, 11579, Note_off_c, 1, 76, 0
1, 11580, Note_on_c, 1, 77, 127
1, 11580, Note_on_c, 1, 69, 127
1, 11639, Note_off_c, 1, 77, 0
1, 11639, Note_off_c, 1, 69, 0
1, 11640, Note_on_c, 1, 52, 127
1, 11699, Note_off_c, 1, 52, 0
1, 11820, Note_on_c, 1, 55, 127
1, 11879, Note_off_c, 1, 55, 0
1, 11940, Note_on_c, 1, 58, 127
1, 11999, Note_off_c, 1, 58, 0
1, 12240, Note_on_c, 1, 72, 127
1, 12299, Note_off_c, 1, 72, 0
1, 12300, Note_on_c, 1, 74, 127
1, 12359, Note_off_c, 1, 74, 0
1, 12480, Note_on_c, 1, 59, 127
1, 12539, Note_off_c, 1, 60, 0
1, 12539, Note_off_c, 1, 59, 0
1, 12540, Note_on_c, 1, 72, 127
1, 12540, Note_on_c, 1, 64, 127
1, 12540, Note_on_c, 1, 60, 127
1, 12540, Note_on_c, 1, 55, 127
1, 12599, Note_off_c, 1, 72, 0
1, 12599, Note_off_c, 1, 64, 0
1, 12599, Note_off_c, 1, 60, 0
1, 12599, Note_off_c, 1, 55, 0
1, 12600, Note_on_c, 1, 74, 127
1, 12600, Note_on_c, 1, 65, 127
1, 12600, Note_on_c, 1, 71, 127
1, 12600, Note_on_c, 1, 62, 127
1, 12600, Note_on_c, 1, 53, 127
1, 12600, Note_on_c, 1, 48, 127
1, 12630, Note_off_c, 1, 74, 0
1, 12630, Note_off_c, 1, 65, 0
1, 12659, Note_off_c, 1, 71, 0
1, 12659, Note_off_c, 1, 53, 0
1, 12659, Note_off_c, 1, 48, 0
1, 12660, Note_on_c, 1, 72, 127
1, 12660, Note_on_c, 1, 64, 127
1, 12660, Note_on_c, 1, 52, 127
1, 12719, Note_off_c, 1, 72, 0
1, 12719, Note_off_c, 1, 64, 0
1, 12719, Note_off_c, 1, 52, 0
1, 12720, Note_on_c, 1, 50, 127
1, 12779, Note_off_c, 1, 50, 0
1, 12780, Note_on_c, 1, 67, 127
1, 12780, Note_on_c, 1, 59, 127
1, 12780, Note_on_c, 1, 60, 127
1, 12839, Note_off_c, 1, 62, 0
1, 12839, Note_off_c, 1, 67, 0
1, 12839, Note_off_c, 1, 59, 0
1, 12839, Note_off_c, 1, 60, 0
1, 12840, Note_on_c, 1, 72, 127
1, 12840, Note_on_c, 1, 67, 127
1, 12840, Note_on_c, 1, 64, 127
1, 12840, Note_on_c, 1, 60, 127
1, 12869, Note_off_c, 1, 67, 0
1, 12899, Note_off_c, 1, 72, 0
1, 12899, Note_off_c, 1, 64, 0
1, 12899, Note_off_c, 1, 60, 0
1, 12900, Note_on_c, 1, 71, 127
1, 12900, Note_on_c, 1, 67, 127
1, 12900, Note_on_c, 1, 62, 127
1, 12900, Note_on_c, 1, 65, 127
1, 12929, Note_off_c, 1, 67, 0
1, 12959, Note_off_c, 1, 71, 0
1, 12959, Note_off_c, 1, 62, 0
1, 12959, Note_off_c, 1, 65, 0
1, 12960, Note_on_c, 1, 72, 127
1, 12960, Note_on_c, 1, 67, 127
1, 12960, Note_on_c, 1, 76, 127
1, 12960, Note_on_c, 1, 64, 127
1, 12960, Note_on_c, 1, 60, 127
1, 12960, Note_on_c, 1, 48, 127
1, 13079, Note_off_c, 1, 72, 0
1, 13079, Note_off_c, 1, 67, 0
1, 13079, Note_off_c, 1, 76, 0
1, 13079, Note_off_c, 1, 64, 0
1, 13079, Note_off_c, 1, 60, 0
1, 13079, Note_off_c, 1, 48, 0
1, 13080, Note_on_c, 1, 74, 127
1, 13080, Note_on_c, 1, 69, 127
1, 13080, Note_on_c, 1, 77, 127
1, 13080, Note_on_c, 1, 65, 127
1, 13080, Note_on_c, 1, 53, 127
1, 13139, Note_off_c, 1, 74, 0
1, 13139, Note_off_c, 1, 69, 0
1, 13139, Note_off_c, 1, 77, 0
1, 13139, Note_off_c, 1, 65, 0
1, 13139, Note_off_c, 1, 53, 0
1, 13140, Note_on_c, 1, 71, 127
1, 13140, Note_on_c, 1, 67, 127
1, 13140, Note_on_c, 1, 74, 127
1, 13140, Note_on_c, 1, 62, 127
1, 13140, Note_on_c, 1, 55, 127
1, 13200, Note_on_c, 1, 65, 127
1, 13259, Note_off_c, 1, 71, 0
1, 13259, Note_off_c, 1, 67, 0
1, 13259, Note_off_c, 1, 74, 0
1, 13259, Note_off_c, 1, 62, 0
1, 13259, Note_off_c, 1, 55, 0
1, 13259, Note_off_c, 1, 65, 0
1, 13260, Note_on_c, 1, 72, 127
1, 13260, Note_on_c, 1, 60, 127
1, 13260, Note_on_c, 1, 64, 127
1, 13260, Note_on_c, 1, 57, 127
1, 13319, Note_off_c, 1, 72, 0
1, 13319, Note_off_c, 1, 60, 0
1, 13319, Note_off_c, 1, 64, 0
1, 13319, Note_off_c, 1, 57, 0
1, 13320, Note_on_c, 1, 60, 127
1, 13320, Note_on_c, 1, 76, 127
1, 13320, Note_on_c, 1, 72, 127
1, 13320, Note_on_c, 1, 67, 127
1, 13320, Note_on_c, 1, 64, 127
1, 13320, Note_on_c, 1, 58, 127
1, 13320, Note_on_c, 1, 46, 127
1, 13379, Note_off_c, 1, 60, 0
1, 13379, Note_off_c, 1, 76, 0
1, 13379, Note_off_c, 1, 72, 0
1, 13379, Note_off_c, 1, 67, 0
1, 13379, Note_off_c, 1, 64, 0
1, 13379, Note_off_c, 1, 58, 0
1, 13379, Note_off_c, 1, 46, 0
1, 13380, Note_on_c, 1, 60, 127
1, 13380, Note_on_c, 1, 77, 127
1, 13380, Note_on_c, 1, 74, 127
1, 13380, Note_on_c, 1, 69, 127
1, 13380, Note_on_c, 1, 65, 127
1, 13380, Note_on_c, 1, 57, 127
1, 13380, Note_on_c, 1, 45, 127
1, 13439, Note_off_c, 1, 60, 0
1, 13439, Note_off_c, 1, 77, 0
1, 13439, Note_off_c, 1, 74, 0
1, 13439, Note_off_c, 1, 69, 0
1, 13439, Note_off_c, 1, 65, 0
1, 13439, Note_off_c, 1, 57, 0
1, 13439, Note_off_c, 1, 45, 0
1, 13440, Note_on_c, 1, 60, 127
1, 13440, Note_on_c, 1, 79, 127
1, 13440, Note_on_c, 1, 76, 127
1, 13440, Note_on_c, 1, 70, 127
1, 13440, Note_on_c, 1, 67, 127
1, 13440, Note_on_c, 1, 58, 127
1, 13440, Note_on_c, 1, 55, 127
1, 13440, Note_on_c, 1, 43, 127
1, 13499, Note_off_c, 1, 60, 0
1, 13499, Note_off_c, 1, 79, 0
1, 13499, Note_off_c, 1, 76, 0
1, 13499, Note_off_c, 1, 70, 0
1, 13499, Note_off_c, 1, 67, 0
1, 13499, Note_off_c, 1, 58, 0
1, 13499, Note_off_c, 1, 55, 0
1, 13499, Note_off_c, 1, 43, 0
1, 13500, Note_on_c, 1, 60, 127
1, 13500, Note_on_c, 1, 81, 127
1, 13500, Note_on_c, 1, 77, 127
1, 13500, Note_on_c, 1, 72, 127
1, 13500, Note_on_c, 1, 69, 127
1, 13500, Note_on_c, 1, 57, 127
1, 13500, Note_on_c, 1, 53, 127
1, 13500, Note_on_c, 1, 41, 127
1, 13529, Note_off_c, 1, 81, 0
1, 13529, Note_off_c, 1, 77, 0
1, 13529, Note_off_c, 1, 72, 0
1, 13529, Note_off_c, 1, 69, 0
1, 13529, Note_off_c, 1, 57, 0
1, 13529, Note_off_c, 1, 53, 0
1, 13530, Note_off_c, 1, 41, 0
1, 13560, Note_on_c, 1, 79, 127
1, 13560, Note_on_c, 1, 76, 127
1, 13560, Note_on_c, 1, 67, 127
1, 13560, Note_on_c, 1, 48, 127
1, 13589, Note_off_c, 1, 79, 0
1, 13589, Note_off_c, 1, 76, 0
1, 13589, Note_off_c, 1, 67, 0
1, 13590, Note_off_c, 1, 48, 0
1, 13619, Note_off_c, 1, 60, 0
1, 13620, Note_on_c, 1, 70, 127
1, 13620, Note_on_c, 1, 60, 127
1, 13649, Note_off_c, 1, 70, 0
1, 13650, Note_on_c, 1, 72, 127
1, 13679, Note_off_c, 1, 60, 0
1, 13679, Note_off_c, 1, 72, 0
1, 13680, Note_on_c, 1, 69, 127
1, 13680, Note_on_c, 1, 60, 127
1, 13680, Note_on_c, 1, 81, 127
1, 13680, Note_on_c, 1, 76, 127
1, 13680, Note_on_c, 1, 53, 127
1, 13710, Note_on_c, 1, 72, 127
1, 13739, Note_off_c, 1, 69, 0
1, 13739, Note_off_c, 1, 60, 0
1, 13739, Note_off_c, 1, 81, 0
1, 13739, Note_off_c, 1, 76, 0
1, 13739, Note_off_c, 1, 72, 0
1, 13740, Note_on_c, 1, 71, 127
1, 13740, Note_on_c, 1, 65, 127
1, 13740, Note_on_c, 1, 83, 127
1, 13740, Note_on_c, 1, 74, 127
1, 13740, Note_on_c, 1, 41, 127
1, 13769, Note_off_c, 1, 71, 0
1, 13769, Note_off_c, 1, 83, 0
1, 13769, Note_off_c, 1, 74, 0
1, 13770, Note_on_c, 1, 84, 127
1, 13799, Note_off_c, 1, 53, 0
1, 13799, Note_off_c, 1, 65, 0
1, 13799, Note_off_c, 1, 41, 0
1, 13799, Note_off_c, 1, 84, 0
1, 13800, Note_on_c, 1, 74, 127
1, 13800, Note_on_c, 1, 69, 127
1, 13800, Note_on_c, 1, 86, 127
1, 13800, Note_on_c, 1, 77, 127
1, 13800, Note_on_c, 1, 62, 127
1, 13800, Note_on_c, 1, 53, 127
1, 13829, Note_off_c, 1, 86, 0
1, 13830, Note_on_c, 1, 71, 127
1, 13830, Note_on_c, 1, 83, 127
1, 13859, Note_off_c, 1, 74, 0
1, 13859, Note_off_c, 1, 69, 0
1, 13859, Note_off_c, 1, 77, 0
1, 13859, Note_off_c, 1, 62, 0
1, 13859, Note_off_c, 1, 71, 0
1, 13859, Note_off_c, 1, 83, 0
1, 13860, Note_on_c, 1, 67, 127
1, 13860, Note_on_c, 1, 79, 127
1, 13919, Note_off_c, 1, 53, 0
1, 13919, Note_off_c, 1, 67, 0
1, 13919, Note_off_c, 1, 79, 0
1, 13920, Note_on_c, 1, 72, 127
1, 13920, Note_on_c, 1, 67, 127
1, 13920, Note_on_c, 1, 84, 127
1, 13920, Note_on_c, 1, 76, 127
1, 13920, Note_on_c, 1, 55, 127
1, 13920, Note_on_c, 1, 60, 127
1, 13920, Note_on_c, 1, 52, 127
1, 13950, Note_on_c, 1, 71, 127
1, 13979, Note_off_c, 1, 72, 0
1, 13979, Note_off_c, 1, 67, 0
1, 13979, Note_off_c, 1, 84, 0
1, 13979, Note_off_c, 1, 76, 0
1, 13979, Note_off_c, 1, 55, 0
1, 13979, Note_off_c, 1, 60, 0
1, 13979, Note_off_c, 1, 52, 0
1, 13979, Note_off_c, 1, 71, 0
1, 13980, Note_on_c, 1, 72, 127
1, 13980, Note_on_c, 1, 65, 127
1, 13980, Note_on_c, 1, 77, 127
1, 13980, Note_on_c, 1, 60, 127
1, 13980, Note_on_c, 1, 57, 127
1, 14039, Note_off_c, 1, 65, 0
1, 14039, Note_off_c, 1, 77, 0
1, 14039, Note_off_c, 1, 60, 0
1, 14039, Note_off_c, 1, 57, 0
1, 14040, Note_on_c, 1, 67, 127
1, 14040, Note_on_c, 1, 76, 127
1, 14040, Note_on_c, 1, 64, 127
1, 14040, Note_on_c, 1, 55, 127
1, 14099, Note_off_c, 1, 72, 0
1, 14099, Note_off_c, 1, 67, 0
1, 14099, Note_off_c, 1, 76, 0
1, 14099, Note_off_c, 1, 64, 0
1, 14099, Note_off_c, 1, 55, 0
1, 14100, Note_on_c, 1, 74, 127
1, 14100, Note_on_c, 1, 69, 127
1, 14100, Note_on_c, 1, 77, 127
1, 14100, Note_on_c, 1, 62, 127
1, 14100, Note_on_c, 1, 65, 127
1, 14100, Note_on_c, 1, 53, 127
1, 14159, Note_off_c, 1, 74, 0
1, 14159, Note_off_c, 1, 69, 0
1, 14159, Note_off_c, 1, 77, 0
1, 14159, Note_off_c, 1, 62, 0
1, 14159, Note_off_c, 1, 65, 0
1, 14159, Note_off_c, 1, 53, 0
1, 14160, Note_on_c, 1, 71, 127
1, 14160, Note_on_c, 1, 67, 127
1, 14160, Note_on_c, 1, 74, 127
1, 14160, Note_on_c, 1, 65, 127
1, 14160, Note_on_c, 1, 62, 127
1, 14160, Note_on_c, 1, 55, 127
1, 14219, Note_off_c, 1, 71, 0
1, 14219, Note_off_c, 1, 67, 0
1, 14219, Note_off_c, 1, 74, 0
1, 14219, Note_off_c, 1, 65, 0
1, 14219, Note_off_c, 1, 62, 0
1, 14219, Note_off_c, 1, 55, 0
1, 14220, Note_on_c, 1, 72, 127
1, 14220, Note_on_c, 1, 67, 127
1, 14220, Note_on_c, 1, 64, 127
1, 14220, Note_on_c, 1, 60, 127
1, 14220, Note_on_c, 1, 48, 127
1, 14250, Note_on_c, 1, 47, 127
1, 14279, Note_off_c, 1, 47, 0
1, 14310, Note_on_c, 1, 50, 127
1, 14339, Note_off_c, 1, 72, 0
1, 14339, Note_off_c, 1, 67, 0
1, 14339, Note_off_c, 1, 64, 0
1, 14339, Note_off_c, 1, 60, 0
1, 14339, Note_off_c, 1, 48, 0
1, 14339, Note_off_c, 1, 50, 0
1, 14340, Note_on_c, 1, 52, 127
1, 14369, Note_off_c, 1, 52, 0
1, 14370, Note_on_c, 1, 53, 127
1, 14399, Note_off_c, 1, 53, 0
1, 14400, Note_on_c, 1, 74, 127
1, 14400, Note_on_c, 1, 71, 127
1, 14400, Note_on_c, 1, 55, 127
1, 14415, Note_off_c, 1, 74, 0
1, 14430, Note_on_c, 1, 67, 127
1, 14445, Note_off_c, 1, 67, 0
1, 14459, Note_off_c, 1, 55, 0
1, 14460, Note_on_c, 1, 41, 127
1, 14490, Note_off_c, 1, 41, 0
1, 14519, Note_off_c, 1, 71, 0
1, 14520, Note_on_c, 1, 76, 127
1, 14520, Note_on_c, 1, 72, 127
1, 14520, Note_on_c, 1, 55, 127
1, 14520, Note_on_c, 1, 40, 127
1, 14535, Note_off_c, 1, 76, 0
1, 14550, Note_off_c, 1, 40, 0
1, 14567, Note_off_c, 1, 55, 0
1, 14579, Note_off_c, 1, 72, 0
1, 14580, Note_on_c, 1, 74, 127
1, 14580, Note_on_c, 1, 65, 127
1, 14580, Note_on_c, 1, 55, 127
1, 14595, Note_off_c, 1, 74, 0
1, 14610, Note_on_c, 1, 67, 127
1, 14625, Note_off_c, 1, 67, 0
1, 14627, Note_off_c, 1, 55, 0
1, 14640, Note_on_c, 1, 47, 127
1, 14670, Note_off_c, 1, 47, 0
1, 14699, Note_off_c, 1, 65, 0
1, 14700, Note_on_c, 1, 72, 127
1, 14700, Note_on_c, 1, 64, 127
1, 14700, Note_on_c, 1, 55, 127
1, 14700, Note_on_c, 1, 48, 127
1, 14715, Note_off_c, 1, 72, 0
1, 14730, Note_off_c, 1, 48, 0
1, 14730, Note_on_c, 1, 67, 127
1, 14745, Note_off_c, 1, 67, 0
1, 14747, Note_off_c, 1, 55, 0
1, 14759, Note_off_c, 1, 64, 0
1, 14760, Note_on_c, 1, 71, 127
1, 14760, Note_on_c, 1, 67, 127
1, 14760, Note_on_c, 1, 62, 127
1, 14760, Note_on_c, 1, 53, 127
1, 14819, Note_off_c, 1, 71, 0
1, 14819, Note_off_c, 1, 62, 0
1, 14819, Note_off_c, 1, 53, 0
1, 14820, Note_on_c, 1, 72, 127
1, 14820, Note_on_c, 1, 64, 127
1, 14820, Note_on_c, 1, 52, 127
1, 14879, Note_off_c, 1, 72, 0
1, 14879, Note_off_c, 1, 64, 0
1, 14879, Note_off_c, 1, 52, 0
1, 14880, Note_off_c, 1, 67, 0
1, 14880, Note_on_c, 1, 74, 127
1, 14880, Note_on_c, 1, 65, 127
1, 14880, Note_on_c, 1, 50, 127
1, 14939, Note_off_c, 1, 74, 0
1, 14939, Note_off_c, 1, 65, 0
1, 14939, Note_off_c, 1, 50, 0
1, 14940, Note_on_c, 1, 76, 127
1, 14940, Note_on_c, 1, 72, 127
1, 14940, Note_on_c, 1, 67, 127
1, 14940, Note_on_c, 1, 48, 127
1, 14970, Note_off_c, 1, 48, 0
1, 14999, Note_off_c, 1, 76, 0
1, 14999, Note_off_c, 1, 72, 0
1, 14999, Note_off_c, 1, 67, 0
1, 15000, Note_on_c, 1, 74, 127
1, 15000, Note_on_c, 1, 71, 127
1, 15000, Note_on_c, 1, 65, 127
1, 15000, Note_on_c, 1, 43, 127
1, 15029, Note_off_c, 1, 74, 0
1, 15030, Note_off_c, 1, 43, 0
1, 15030, Note_on_c, 1, 76, 127
1, 15030, Note_on_c, 1, 67, 127
1, 15059, Note_off_c, 1, 71, 0
1, 15059, Note_off_c, 1, 65, 0
1, 15059, Note_off_c, 1, 76, 0
1, 15059, Note_off_c, 1, 67, 0
1, 15060, Note_on_c, 1, 72, 127
1, 15060, Note_on_c, 1, 64, 127
1, 15060, Note_on_c, 1, 67, 127
1, 15060, Note_on_c, 1, 36, 127
1, 15090, Note_off_c, 1, 36, 0
1, 15119, Note_off_c, 1, 72, 0
1, 15119, Note_off_c, 1, 64, 0
1, 15119, Note_off_c, 1, 67, 0
1, 15120, Note_on_c, 1, 76, 127
1, 15120, Note_on_c, 1, 67, 127
1, 15120, Note_on_c, 1, 60, 127
1, 15135, Note_off_c, 1, 67, 0
1, 15179, Note_off_c, 1, 60, 0
1, 15180, Note_on_c, 1, 58, 127
1, 15210, Note_off_c, 1, 58, 0
1, 15239, Note_off_c, 1, 76, 0
1, 15240, Note_on_c, 1, 77, 127
1, 15240, Note_on_c, 1, 69, 127
1, 15240, Note_on_c, 1, 60, 127
1, 15240, Note_on_c, 1, 57, 127
1, 15255, Note_off_c, 1, 69, 0
1, 15270, Note_off_c, 1, 57, 0
1, 15270, Note_on_c, 1, 65, 127
1, 15285, Note_off_c, 1, 65, 0
1, 15299, Note_off_c, 1, 77, 0
1, 15299, Note_off_c, 1, 60, 0
1, 15300, Note_on_c, 1, 70, 127
1, 15300, Note_on_c, 1, 67, 127
1, 15300, Note_on_c, 1, 60, 127
1, 15315, Note_off_c, 1, 67, 0
1, 15359, Note_off_c, 1, 60, 0
1, 15360, Note_on_c, 1, 52, 127
1, 15390, Note_off_c, 1, 52, 0
1, 15419, Note_off_c, 1, 70, 0
1, 15420, Note_on_c, 1, 69, 127
1, 15420, Note_on_c, 1, 65, 127
1, 15420, Note_on_c, 1, 60, 127
1, 15420, Note_on_c, 1, 53, 127
1, 15435, Note_off_c, 1, 65, 0
1, 15450, Note_off_c, 1, 53, 0
1, 15479, Note_off_c, 1, 69, 0
1, 15479, Note_off_c, 1, 60, 0
1, 15480, Note_on_c, 1, 57, 127
1, 15480, Note_on_c, 1, 73, 127
1, 15480, Note_on_c, 1, 64, 127
1, 15480, Note_on_c, 1, 69, 127
1, 15480, Note_on_c, 1, 55, 127
1, 15539, Note_off_c, 1, 57, 0
1, 15539, Note_off_c, 1, 73, 0
1, 15539, Note_off_c, 1, 64, 0
1, 15539, Note_off_c, 1, 55, 0
1, 15540, Note_on_c, 1, 74, 127
1, 15540, Note_on_c, 1, 65, 127
1, 15540, Note_on_c, 1, 53, 127
1, 15599, Note_off_c, 1, 74, 0
1, 15599, Note_off_c, 1, 65, 0
1, 15599, Note_off_c, 1, 53, 0
1, 15600, Note_off_c, 1, 69, 0
1, 15600, Note_on_c, 1, 76, 127
1, 15600, Note_on_c, 1, 67, 127
1, 15600, Note_on_c, 1, 52, 127
1, 15659, Note_off_c, 1, 76, 0
1, 15659, Note_off_c, 1, 67, 0
1, 15659, Note_off_c, 1, 52, 0
1, 15660, Note_on_c, 1, 57, 127
1, 15660, Note_on_c, 1, 77, 127
1, 15660, Note_on_c, 1, 69, 127
1, 15660, Note_on_c, 1, 74, 127
1, 15660, Note_on_c, 1, 50, 127
1, 15690, Note_off_c, 1, 50, 0
1, 15719, Note_off_c, 1, 57, 0
1, 15719, Note_off_c, 1, 77, 0
1, 15719, Note_off_c, 1, 74, 0
1, 15720, Note_on_c, 1, 76, 127
1, 15720, Note_on_c, 1, 67, 127
1, 15720, Note_on_c, 1, 73, 127
1, 15720, Note_on_c, 1, 45, 127
1, 15749, Note_off_c, 1, 69, 0
1, 15749, Note_off_c, 1, 76, 0
1, 15749, Note_off_c, 1, 67, 0
1, 15750, Note_off_c, 1, 45, 0
1, 15779, Note_off_c, 1, 73, 0
1, 15780, Note_on_c, 1, 57, 127
1, 15780, Note_on_c, 1, 74, 127
1, 15780, Note_on_c, 1, 65, 127
1, 15780, Note_on_c, 1, 69, 127
1, 15780, Note_on_c, 1, 38, 127
1, 15810, Note_off_c, 1, 38, 0
1, 15810, Note_on_c, 1, 64, 127
1, 15839, Note_off_c, 1, 57, 0
1, 15839, Note_off_c, 1, 74, 0
1, 15839, Note_off_c, 1, 65, 0
1, 15839, Note_off_c, 1, 64, 0
1, 15840, Note_on_c, 1, 77, 127
1, 15840, Note_on_c, 1, 62, 127
1, 15840, Note_on_c, 1, 50, 127
1, 15870, Note_off_c, 1, 50, 0
1, 15899, Note_off_c, 1, 69, 0
1, 15899, Note_off_c, 1, 77, 0
1, 15899, Note_off_c, 1, 62, 0
1, 15900, Note_on_c, 1, 77, 127
1, 15900, Note_on_c, 1, 74, 127
1, 15900, Note_on_c, 1, 69, 127
1, 15900, Note_on_c, 1, 65, 127
1, 15900, Note_on_c, 1, 48, 127
1, 15929, Note_off_c, 1, 77, 0
1, 15930, Note_off_c, 1, 48, 0
1, 15930, Note_on_c, 1, 79, 127
1, 15930, Note_on_c, 1, 76, 127
1, 15959, Note_off_c, 1, 74, 0
1, 15959, Note_off_c, 1, 69, 0
1, 15959, Note_off_c, 1, 65, 0
1, 15959, Note_off_c, 1, 79, 0
1, 15959, Note_off_c, 1, 76, 0
1, 15960, Note_on_c, 1, 77, 127
1, 15960, Note_on_c, 1, 74, 127
1, 15960, Note_on_c, 1, 69, 127
1, 15960, Note_on_c, 1, 65, 127
1, 15989, Note_off_c, 1, 77, 0
1, 15989, Note_off_c, 1, 74, 0
1, 15990, Note_on_c, 1, 79, 127
1, 15990, Note_on_c, 1, 76, 127
1, 16019, Note_off_c, 1, 69, 0
1, 16019, Note_off_c, 1, 79, 0
1, 16019, Note_off_c, 1, 76, 0
1, 16020, Note_on_c, 1, 62, 127
1, 16020, Note_on_c, 1, 47, 127
1, 16049, Note_off_c, 1, 47, 0
1, 16050, Note_on_c, 1, 45, 127
1, 16079, Note_off_c, 1, 65, 0
1, 16079, Note_off_c, 1, 45, 0
1, 16080, Note_on_c, 1, 67, 127
1, 16109, Note_off_c, 1, 67, 0
1, 16110, Note_on_c, 1, 71, 127
1, 16139, Note_off_c, 1, 62, 0
1, 16139, Note_off_c, 1, 71, 0
1, 16140, Note_on_c, 1, 74, 127
1, 16140, Note_on_c, 1, 71, 127
1, 16140, Note_on_c, 1, 43, 127
1, 16169, Note_off_c, 1, 74, 0
1, 16170, Note_on_c, 1, 77, 127
1, 16199, Note_off_c, 1, 71, 0
1, 16199, Note_off_c, 1, 43, 0
1, 16199, Note_off_c, 1, 77, 0
1, 16200, Note_on_c, 1, 76, 127
1, 16200, Note_on_c, 1, 67, 127
1, 16200, Note_on_c, 1, 60, 127
1, 16200, Note_on_c, 1, 48, 127
1, 16230, Note_off_c, 1, 48, 0
1, 16259, Note_off_c, 1, 76, 0
1, 16259, Note_off_c, 1, 67, 0
1, 16259, Note_off_c, 1, 60, 0
1, 16260, Note_on_c, 1, 76, 127
1, 16260, Note_on_c, 1, 72, 127
1, 16260, Note_on_c, 1, 67, 127
1, 16260, Note_on_c, 1, 64, 127
1, 16260, Note_on_c, 1, 47, 127
1, 16289, Note_off_c, 1, 76, 0
1, 16290, Note_off_c, 1, 47, 0
1, 16290, Note_on_c, 1, 77, 127
1, 16290, Note_on_c, 1, 74, 127
1, 16319, Note_off_c, 1, 72, 0
1, 16319, Note_off_c, 1, 67, 0
1, 16319, Note_off_c, 1, 64, 0
1, 16319, Note_off_c, 1, 77, 0
1, 16319, Note_off_c, 1, 74, 0
1, 16320, Note_on_c, 1, 76, 127
1, 16320, Note_on_c, 1, 72, 127
1, 16320, Note_on_c, 1, 67, 127
1, 16320, Note_on_c, 1, 64, 127
1, 16349, Note_off_c, 1, 76, 0
1, 16349, Note_off_c, 1, 72, 0
1, 16350, Note_on_c, 1, 77, 127
1, 16350, Note_on_c, 1, 74, 127
1, 16379, Note_off_c, 1, 67, 0
1, 16379, Note_off_c, 1, 77, 0
1, 16379, Note_off_c, 1, 74, 0
1, 16380, Note_on_c, 1, 60, 127
1, 16380, Note_on_c, 1, 45, 127
1, 16409, Note_off_c, 1, 45, 0
1, 16410, Note_on_c, 1, 43, 127
1, 16439, Note_off_c, 1, 64, 0
1, 16439, Note_off_c, 1, 43, 0
1, 16440, Note_on_c, 1, 65, 127
1, 16469, Note_off_c, 1, 65, 0
1, 16470, Note_on_c, 1, 69, 127
1, 16499, Note_off_c, 1, 60, 0
1, 16499, Note_off_c, 1, 69, 0
1, 16500, Note_on_c, 1, 72, 127
1, 16500, Note_on_c, 1, 69, 127
1, 16500, Note_on_c, 1, 41, 127
1, 16529, Note_off_c, 1, 72, 0
1, 16530, Note_on_c, 1, 76, 127
1, 16559, Note_off_c, 1, 41, 0
1, 16559, Note_off_c, 1, 76, 0
1, 16560, Note_on_c, 1, 74, 127
1, 16560, Note_on_c, 1, 62, 127
1, 16560, Note_on_c, 1, 47, 127
1, 16589, Note_off_c, 1, 62, 0
1, 16590, Note_on_c, 1, 64, 127
1, 16619, Note_off_c, 1, 69, 0
1, 16619, Note_off_c, 1, 74, 0
1, 16619, Note_off_c, 1, 47, 0
1, 16619, Note_off_c, 1, 64, 0
1, 16620, Note_on_c, 1, 74, 127
1, 16620, Note_on_c, 1, 67, 127
1, 16620, Note_on_c, 1, 65, 127
1, 16620, Note_on_c, 1, 62, 127
1, 16620, Note_on_c, 1, 59, 127
1, 16649, Note_off_c, 1, 62, 0
1, 16649, Note_off_c, 1, 59, 0
1, 16650, Note_on_c, 1, 76, 127
1, 16650, Note_on_c, 1, 60, 127
1, 16650, Note_on_c, 1, 57, 127
1, 16679, Note_off_c, 1, 74, 0
1, 16679, Note_off_c, 1, 67, 0
1, 16679, Note_off_c, 1, 65, 0
1, 16679, Note_off_c, 1, 76, 0
1, 16679, Note_off_c, 1, 60, 0
1, 16679, Note_off_c, 1, 57, 0
1, 16680, Note_on_c, 1, 74, 127
1, 16680, Note_on_c, 1, 67, 127
1, 16680, Note_on_c, 1, 65, 127
1, 16680, Note_on_c, 1, 62, 127
1, 16680, Note_on_c, 1, 59, 127
1, 16709, Note_off_c, 1, 74, 0
1, 16709, Note_off_c, 1, 59, 0
1, 16710, Note_on_c, 1, 76, 127
1, 16710, Note_on_c, 1, 55, 127
1, 16739, Note_off_c, 1, 67, 0
1, 16739, Note_off_c, 1, 65, 0
1, 16739, Note_off_c, 1, 76, 0
1, 16739, Note_off_c, 1, 55, 0
1, 16740, Note_on_c, 1, 60, 127
1, 16799, Note_off_c, 1, 62, 0
1, 16799, Note_off_c, 1, 60, 0
1, 16800, Note_on_c, 1, 72, 127
1, 16800, Note_on_c, 1, 60, 127
1, 16800, Note_on_c, 1, 64, 127
1, 16800, Note_on_c, 1, 48, 127
1, 16829, Note_off_c, 1, 72, 0
1, 16829, Note_off_c, 1, 64, 0
1, 16829, Note_off_c, 1, 48, 0
1, 16830, Note_on_c, 1, 74, 127
1, 16830, Note_on_c, 1, 81, 127
1, 16830, Note_on_c, 1, 77, 127
1, 16830, Note_on_c, 1, 47, 127
1, 16859, Note_off_c, 1, 60, 0
1, 16859, Note_off_c, 1, 74, 0
1, 16859, Note_off_c, 1, 81, 0
1, 16859, Note_off_c, 1, 77, 0
1, 16859, Note_off_c, 1, 47, 0
1, 16860, Note_on_c, 1, 76, 127
1, 16860, Note_on_c, 1, 67, 127
1, 16860, Note_on_c, 1, 79, 127
1, 16860, Note_on_c, 1, 48, 127
1, 16889, Note_off_c, 1, 76, 0
1, 16889, Note_off_c, 1, 48, 0
1, 16890, Note_on_c, 1, 77, 127
1, 16890, Note_on_c, 1, 50, 127
1, 16919, Note_off_c, 1, 67, 0
1, 16919, Note_off_c, 1, 79, 0
1, 16919, Note_off_c, 1, 77, 0
1, 16919, Note_off_c, 1, 50, 0
1, 16920, Note_on_c, 1, 79, 127
1, 16920, Note_on_c, 1, 72, 127
1, 16920, Note_on_c, 1, 52, 127
1, 16979, Note_off_c, 1, 79, 0
1, 16979, Note_off_c, 1, 72, 0
1, 16979, Note_off_c, 1, 52, 0
1, 16980, Note_on_c, 1, 72, 127
1, 16980, Note_on_c, 1, 60, 127
1, 16980, Note_on_c, 1, 77, 127
1, 16980, Note_on_c, 1, 69, 127
1, 16980, Note_on_c, 1, 53, 127
1, 17009, Note_off_c, 1, 77, 0
1, 17009, Note_off_c, 1, 69, 0
1, 17010, Note_on_c, 1, 76, 127
1, 17039, Note_off_c, 1, 72, 0
1, 17039, Note_off_c, 1, 60, 0
1, 17039, Note_off_c, 1, 53, 0
1, 17039, Note_off_c, 1, 76, 0
1, 17040, Note_on_c, 1, 71, 127
1, 17040, Note_on_c, 1, 67, 127
1, 17040, Note_on_c, 1, 74, 127
1, 17040, Note_on_c, 1, 62, 127
1, 17040, Note_on_c, 1, 55, 127
1, 17069, Note_off_c, 1, 74, 0
1, 17069, Note_off_c, 1, 62, 0
1, 17070, Note_on_c, 1, 72, 127
1, 17099, Note_off_c, 1, 71, 0
1, 17099, Note_off_c, 1, 67, 0
1, 17099, Note_off_c, 1, 55, 0
1, 17099, Note_off_c, 1, 72, 0
1, 17100, Note_on_c, 1, 72, 127
1, 17100, Note_on_c, 1, 67, 127
1, 17100, Note_on_c, 1, 64, 127
1, 17100, Note_on_c, 1, 48, 127
1, 17129, Note_off_c, 1, 48, 0
1, 17130, Note_on_c, 1, 52, 127
1, 17159, Note_off_c, 1, 52, 0
1, 17160, Note_on_c, 1, 69, 127
1, 17160, Note_on_c, 1, 53, 127
1, 17189, Note_off_c, 1, 69, 0
1, 17189, Note_off_c, 1, 53, 0
1, 17190, Note_on_c, 1, 71, 127
1, 17190, Note_on_c, 1, 55, 127
1, 17219, Note_off_c, 1, 72, 0
1, 17219, Note_off_c, 1, 67, 0
1, 17219, Note_off_c, 1, 64, 0
1, 17219, Note_off_c, 1, 71, 0
1, 17219, Note_off_c, 1, 55, 0
1, 17220, Note_on_c, 1, 72, 127
1, 17220, Note_on_c, 1, 57, 127
1, 17249, Note_off_c, 1, 72, 0
1, 17249, Note_off_c, 1, 57, 0
1, 17250, Note_on_c, 1, 74, 127
1, 17250, Note_on_c, 1, 59, 127
1, 17279, Note_off_c, 1, 74, 0
1, 17279, Note_off_c, 1, 59, 0
1, 17280, Note_on_c, 1, 76, 127
1, 17280, Note_on_c, 1, 67, 127
1, 17280, Note_on_c, 1, 60, 127
1, 17310, Note_on_c, 1, 78, 127
1, 17310, Note_on_c, 1, 69, 127
1, 17339, Note_off_c, 1, 78, 0
1, 17339, Note_off_c, 1, 69, 0
1, 17340, Note_on_c, 1, 79, 127
1, 17340, Note_on_c, 1, 70, 127
1, 17340, Note_on_c, 1, 72, 127
1, 17340, Note_on_c, 1, 58, 127
1, 17354, Note_off_c, 1, 79, 0
1, 17354, Note_off_c, 1, 70, 0
1, 17369, Note_off_c, 1, 72, 0
1, 17399, Note_off_c, 1, 76, 0
1, 17399, Note_off_c, 1, 67, 0
1, 17399, Note_off_c, 1, 60, 0
1, 17399, Note_off_c, 1, 58, 0
1, 17400, Note_on_c, 1, 57, 127
1, 17459, Note_off_c, 1, 57, 0
1, 17460, Note_on_c, 1, 79, 127
1, 17460, Note_on_c, 1, 74, 127
1, 17460, Note_on_c, 1, 67, 127
1, 17460, Note_on_c, 1, 62, 127
1, 17460, Note_on_c, 1, 58, 127
1, 17519, Note_off_c, 1, 58, 0
1, 17520, Note_on_c, 1, 66, 127
1, 17520, Note_on_c, 1, 57, 127
1, 17549, Note_off_c, 1, 66, 0
1, 17579, Note_off_c, 1, 57, 0
1, 17580, Note_on_c, 1, 69, 127
1, 17580, Note_on_c, 1, 55, 127
1, 17609, Note_off_c, 1, 69, 0
1, 17610, Note_on_c, 1, 70, 127
1, 17639, Note_off_c, 1, 79, 0
1, 17639, Note_off_c, 1, 74, 0
1, 17639, Note_off_c, 1, 67, 0
1, 17639, Note_off_c, 1, 62, 0
1, 17639, Note_off_c, 1, 55, 0
1, 17639, Note_off_c, 1, 70, 0
1, 17640, Note_on_c, 1, 72, 127
1, 17640, Note_on_c, 1, 66, 127
1, 17640, Note_on_c, 1, 57, 127
1, 17670, Note_on_c, 1, 74, 127
1, 17699, Note_off_c, 1, 72, 0
1, 17699, Note_off_c, 1, 66, 0
1, 17699, Note_off_c, 1, 57, 0
1, 17699, Note_off_c, 1, 74, 0
1, 17700, Note_on_c, 1, 75, 127
1, 17700, Note_on_c, 1, 67, 127
1, 17700, Note_on_c, 1, 58, 127
1, 17700, Note_on_c, 1, 55, 127
1, 17759, Note_off_c, 1, 75, 0
1, 17759, Note_off_c, 1, 67, 0
1, 17759, Note_off_c, 1, 58, 0
1, 17759, Note_off_c, 1, 55, 0
1, 17760, Note_on_c, 1, 74, 127
1, 17760, Note_on_c, 1, 69, 127
1, 17760, Note_on_c, 1, 62, 127
1, 17760, Note_on_c, 1, 54, 127
1, 17819, Note_off_c, 1, 74, 0
1, 17819, Note_off_c, 1, 69, 0
1, 17819, Note_off_c, 1, 62, 0
1, 17819, Note_off_c, 1, 54, 0
1, 17820, Note_on_c, 1, 70, 127
1, 17820, Note_on_c, 1, 67, 127
1, 17820, Note_on_c, 1, 62, 127
1, 17820, Note_on_c, 1, 55, 127
1, 17850, Note_on_c, 1, 69, 127
1, 17879, Note_off_c, 1, 70, 0
1, 17879, Note_off_c, 1, 67, 0
1, 17879, Note_off_c, 1, 55, 0
1, 17879, Note_off_c, 1, 69, 0
1, 17880, Note_on_c, 1, 72, 127
1, 17880, Note_on_c, 1, 53, 127
1, 17909, Note_off_c, 1, 72, 0
1, 17939, Note_off_c, 1, 62, 0
1, 17939, Note_off_c, 1, 53, 0
1, 17940, Note_on_c, 1, 69, 127
1, 17940, Note_on_c, 1, 64, 127
1, 17940, Note_on_c, 1, 67, 127
1, 17940, Note_on_c, 1, 70, 127
1, 17940, Note_on_c, 1, 61, 127
1, 17940, Note_on_c, 1, 52, 127
1, 17969, Note_off_c, 1, 69, 0
1, 17999, Note_off_c, 1, 64, 0
1, 17999, Note_off_c, 1, 67, 0
1, 17999, Note_off_c, 1, 70, 0
1, 17999, Note_off_c, 1, 61, 0
1, 17999, Note_off_c, 1, 52, 0
1, 18000, Note_on_c, 1, 69, 127
1, 18000, Note_on_c, 1, 62, 127
1, 18000, Note_on_c, 1, 65, 127
1, 18000, Note_on_c, 1, 53, 127
1, 18030, Note_on_c, 1, 64, 127
1, 18059, Note_off_c, 1, 69, 0
1, 18059, Note_off_c, 1, 62, 0
1, 18059, Note_off_c, 1, 53, 0
1, 18059, Note_off_c, 1, 64, 0
1, 18060, Note_on_c, 1, 74, 127
1, 18060, Note_on_c, 1, 70, 127
1, 18060, Note_on_c, 1, 55, 127
1, 18119, Note_off_c, 1, 74, 0
1, 18119, Note_off_c, 1, 70, 0
1, 18119, Note_off_c, 1, 55, 0
1, 18120, Note_off_c, 1, 65, 0
1, 18120, Note_on_c, 1, 73, 127
1, 18120, Note_on_c, 1, 57, 127
1, 18179, Note_off_c, 1, 73, 0
1, 18179, Note_off_c, 1, 57, 0
1, 18180, Note_on_c, 1, 58, 127
1, 18240, Note_on_c, 1, 76, 127
1, 18240, Note_on_c, 1, 67, 127
1, 18299, Note_off_c, 1, 58, 0
1, 18299, Note_off_c, 1, 76, 0
1, 18299, Note_off_c, 1, 67, 0
1, 18300, Note_on_c, 1, 77, 127
1, 18359, Note_off_c, 1, 77, 0
1, 18390, Note_on_c, 1, 72, 127
1, 18419, Note_off_c, 1, 72, 0
1, 18420, Note_on_c, 1, 79, 127
1, 18420, Note_on_c, 1, 52, 127
1, 18449, Note_off_c, 1, 79, 0
1, 18479, Note_off_c, 1, 52, 0
1, 18570, Note_on_c, 1, 71, 127
1, 18599, Note_off_c, 1, 71, 0
1, 18660, Note_on_c, 1, 71, 127
1, 18660, Note_on_c, 1, 64, 127
1, 18660, Note_on_c, 1, 61, 127
1, 18660, Note_on_c, 1, 69, 127
1, 18660, Note_on_c, 1, 55, 127
1, 18689, Note_off_c, 1, 71, 0
1, 18719, Note_off_c, 1, 64, 0
1, 18719, Note_off_c, 1, 61, 0
1, 18719, Note_off_c, 1, 69, 0
1, 18719, Note_off_c, 1, 55, 0
1, 18720, Note_on_c, 1, 57, 127
1, 18720, Note_on_c, 1, 74, 127
1, 18720, Note_on_c, 1, 65, 127
1, 18720, Note_on_c, 1, 69, 127
1, 18720, Note_on_c, 1, 62, 127
1, 18720, Note_on_c, 1, 53, 127
1, 18749, Note_off_c, 1, 65, 0
1, 18749, Note_off_c, 1, 62, 0
1, 18750, Note_off_c, 1, 74, 0
1, 18750, Note_off_c, 1, 69, 0
1, 18750, Note_on_c, 1, 73, 127
1, 18750, Note_on_c, 1, 64, 127
1, 18779, Note_off_c, 1, 53, 0
1, 18779, Note_off_c, 1, 73, 0
1, 18779, Note_off_c, 1, 64, 0
1, 18780, Note_on_c, 1, 81, 127
1, 18780, Note_on_c, 1, 50, 127
1, 18810, Note_off_c, 1, 81, 0
1, 18810, Note_on_c, 1, 76, 127
1, 18810, Note_on_c, 1, 67, 127
1, 18839, Note_off_c, 1, 57, 0
1, 18839, Note_off_c, 1, 50, 0
1, 18839, Note_off_c, 1, 76, 0
1, 18839, Note_off_c, 1, 67, 0
1, 18840, Note_on_c, 1, 57, 127
1, 18840, Note_on_c, 1, 73, 127
1, 18840, Note_on_c, 1, 64, 127
1, 18869, Note_off_c, 1, 73, 0
1, 18869, Note_off_c, 1, 64, 0
1, 18870, Note_on_c, 1, 76, 127
1, 18870, Note_on_c, 1, 67, 127
1, 18899, Note_off_c, 1, 57, 0
1, 18899, Note_off_c, 1, 76, 0
1, 18899, Note_off_c, 1, 67, 0
1, 18900, Note_on_c, 1, 57, 127
1, 18900, Note_on_c, 1, 74, 127
1, 18900, Note_on_c, 1, 65, 127
1, 18900, Note_on_c, 1, 81, 127
1, 18900, Note_on_c, 1, 69, 127
1, 18900, Note_on_c, 1, 53, 127
1, 18929, Note_off_c, 1, 65, 0
1, 18929, Note_off_c, 1, 69, 0
1, 18930, Note_off_c, 1, 74, 0
1, 18930, Note_off_c, 1, 81, 0
1, 18930, Note_on_c, 1, 76, 127
1, 18930, Note_on_c, 1, 67, 127
1, 18959, Note_off_c, 1, 53, 0
1, 18959, Note_off_c, 1, 76, 0
1, 18959, Note_off_c, 1, 67, 0
1, 18960, Note_on_c, 1, 77, 127
1, 18960, Note_on_c, 1, 50, 127
1, 18990, Note_off_c, 1, 77, 0
1, 19019, Note_off_c, 1, 57, 0
1, 19019, Note_off_c, 1, 50, 0
1, 19020, Note_on_c, 1, 57, 127
1, 19020, Note_on_c, 1, 74, 127
1, 19020, Note_on_c, 1, 65, 127
1, 19020, Note_on_c, 1, 53, 127
1, 19049, Note_off_c, 1, 74, 0
1, 19049, Note_off_c, 1, 65, 0
1, 19050, Note_on_c, 1, 72, 127
1, 19050, Note_on_c, 1, 64, 127
1, 19079, Note_off_c, 1, 57, 0
1, 19079, Note_off_c, 1, 53, 0
1, 19079, Note_off_c, 1, 72, 0
1, 19079, Note_off_c, 1, 64, 0
1, 19080, Note_on_c, 1, 70, 127
1, 19080, Note_on_c, 1, 62, 127
1, 19080, Note_on_c, 1, 58, 127
1, 19080, Note_on_c, 1, 55, 127
1, 19109, Note_off_c, 1, 58, 0
1, 19110, Note_on_c, 1, 57, 127
1, 19110, Note_on_c, 1, 54, 127
1, 19127, Note_off_c, 1, 55, 0
1, 19139, Note_off_c, 1, 70, 0
1, 19139, Note_off_c, 1, 57, 0
1, 19139, Note_off_c, 1, 54, 0
1, 19140, Note_on_c, 1, 67, 127
1, 19140, Note_on_c, 1, 43, 127
1, 19170, Note_on_c, 1, 60, 127
1, 19199, Note_off_c, 1, 62, 0
1, 19199, Note_off_c, 1, 67, 0
1, 19199, Note_off_c, 1, 43, 0
1, 19199, Note_off_c, 1, 60, 0
1, 19200, Note_on_c, 1, 74, 127
1, 19200, Note_on_c, 1, 69, 127
1, 19200, Note_on_c, 1, 62, 127
1, 19200, Note_on_c, 1, 57, 127
1, 19200, Note_on_c, 1, 54, 127
1, 19200, Note_on_c, 1, 42, 127
1, 19229, Note_off_c, 1, 57, 0
1, 19229, Note_off_c, 1, 54, 0
1, 19230, Note_on_c, 1, 60, 127
1, 19259, Note_off_c, 1, 74, 0
1, 19259, Note_off_c, 1, 69, 0
1, 19259, Note_off_c, 1, 62, 0
1, 19259, Note_off_c, 1, 42, 0
1, 19259, Note_off_c, 1, 60, 0
1, 19260, Note_on_c, 1, 70, 127
1, 19260, Note_on_c, 1, 62, 127
1, 19260, Note_on_c, 1, 58, 127
1, 19260, Note_on_c, 1, 55, 127
1, 19260, Note_on_c, 1, 43, 127
1, 19289, Note_off_c, 1, 58, 0
1, 19289, Note_off_c, 1, 55, 0
1, 19290, Note_on_c, 1, 60, 127
1, 19290, Note_on_c, 1, 57, 127
1, 19307, Note_off_c, 1, 43, 0
1, 19319, Note_off_c, 1, 70, 0
1, 19319, Note_off_c, 1, 60, 0
1, 19319, Note_off_c, 1, 57, 0
1, 19320, Note_on_c, 1, 67, 127
1, 19379, Note_off_c, 1, 62, 0
1, 19379, Note_off_c, 1, 67, 0
1, 19380, Note_on_c, 1, 71, 127
1, 19380, Note_on_c, 1, 62, 127
1, 19380, Note_on_c, 1, 59, 127
1, 19380, Note_on_c, 1, 55, 127
1, 19380, Note_on_c, 1, 53, 127
1, 19409, Note_off_c, 1, 59, 0
1, 19409, Note_off_c, 1, 55, 0
1, 19410, Note_on_c, 1, 57, 127
1, 19439, Note_off_c, 1, 71, 0
1, 19439, Note_off_c, 1, 62, 0
1, 19439, Note_off_c, 1, 53, 0
1, 19439, Note_off_c, 1, 57, 0
1, 19440, Note_on_c, 1, 67, 127
1, 19440, Note_on_c, 1, 72, 127
1, 19440, Note_on_c, 1, 64, 127
1, 19440, Note_on_c, 1, 60, 127
1, 19440, Note_on_c, 1, 55, 127
1, 19440, Note_on_c, 1, 52, 127
1, 19469, Note_off_c, 1, 64, 0
1, 19469, Note_off_c, 1, 60, 0
1, 19470, Note_off_c, 1, 72, 0
1, 19470, Note_on_c, 1, 71, 127
1, 19470, Note_on_c, 1, 62, 127
1, 19499, Note_off_c, 1, 67, 0
1, 19499, Note_off_c, 1, 52, 0
1, 19499, Note_off_c, 1, 71, 0
1, 19499, Note_off_c, 1, 62, 0
1, 19500, Note_on_c, 1, 79, 127
1, 19500, Note_on_c, 1, 48, 127
1, 19530, Note_off_c, 1, 79, 0
1, 19530, Note_on_c, 1, 74, 127
1, 19530, Note_on_c, 1, 65, 127
1, 19559, Note_off_c, 1, 55, 0
1, 19559, Note_off_c, 1, 48, 0
1, 19559, Note_off_c, 1, 74, 0
1, 19559, Note_off_c, 1, 65, 0
1, 19560, Note_on_c, 1, 67, 127
1, 19560, Note_on_c, 1, 71, 127
1, 19560, Note_on_c, 1, 62, 127
1, 19560, Note_on_c, 1, 55, 127
1, 19589, Note_off_c, 1, 71, 0
1, 19589, Note_off_c, 1, 62, 0
1, 19590, Note_on_c, 1, 74, 127
1, 19590, Note_on_c, 1, 65, 127
1, 19619, Note_off_c, 1, 67, 0
1, 19619, Note_off_c, 1, 55, 0
1, 19619, Note_off_c, 1, 74, 0
1, 19619, Note_off_c, 1, 65, 0
1, 19620, Note_on_c, 1, 67, 127
1, 19620, Note_on_c, 1, 72, 127
1, 19620, Note_on_c, 1, 64, 127
1, 19620, Note_on_c, 1, 79, 127
1, 19620, Note_on_c, 1, 55, 127
1, 19620, Note_on_c, 1, 52, 127
1, 19649, Note_off_c, 1, 64, 0
1, 19650, Note_off_c, 1, 72, 0
1, 19650, Note_off_c, 1, 79, 0
1, 19650, Note_on_c, 1, 74, 127
1, 19650, Note_on_c, 1, 65, 127
1, 19679, Note_off_c, 1, 67, 0
1, 19679, Note_off_c, 1, 55, 0
1, 19679, Note_off_c, 1, 52, 0
1, 19679, Note_off_c, 1, 74, 0
1, 19679, Note_off_c, 1, 65, 0
1, 19680, Note_on_c, 1, 67, 127
1, 19680, Note_on_c, 1, 76, 127
1, 19680, Note_on_c, 1, 72, 127
1, 19680, Note_on_c, 1, 55, 127
1, 19680, Note_on_c, 1, 48, 127
1, 19709, Note_off_c, 1, 72, 0
1, 19710, Note_off_c, 1, 76, 0
1, 19710, Note_on_c, 1, 74, 127
1, 19710, Note_on_c, 1, 65, 127
1, 19739, Note_off_c, 1, 67, 0
1, 19739, Note_off_c, 1, 55, 0
1, 19739, Note_off_c, 1, 48, 0
1, 19739, Note_off_c, 1, 74, 0
1, 19739, Note_off_c, 1, 65, 0
1, 19740, Note_on_c, 1, 67, 127
1, 19740, Note_on_c, 1, 72, 127
1, 19740, Note_on_c, 1, 64, 127
1, 19740, Note_on_c, 1, 55, 127
1, 19740, Note_on_c, 1, 52, 127
1, 19769, Note_off_c, 1, 72, 0
1, 19769, Note_off_c, 1, 64, 0
1, 19770, Note_on_c, 1, 70, 127
1, 19770, Note_on_c, 1, 62, 127
1, 19799, Note_off_c, 1, 67, 0
1, 19799, Note_off_c, 1, 55, 0
1, 19799, Note_off_c, 1, 52, 0
1, 19799, Note_off_c, 1, 70, 0
1, 19799, Note_off_c, 1, 62, 0
1, 19800, Note_on_c, 1, 72, 127
1, 19800, Note_on_c, 1, 69, 127
1, 19800, Note_on_c, 1, 60, 127
1, 19800, Note_on_c, 1, 57, 127
1, 19800, Note_on_c, 1, 53, 127
1, 19829, Note_off_c, 1, 57, 0
1, 19830, Note_on_c, 1, 55, 127
1, 19830, Note_on_c, 1, 52, 127
1, 19847, Note_off_c, 1, 53, 0
1, 19859, Note_off_c, 1, 69, 0
1, 19859, Note_off_c, 1, 55, 0
1, 19859, Note_off_c, 1, 52, 0
1, 19860, Note_on_c, 1, 65, 127
1, 19860, Note_on_c, 1, 41, 127
1, 19890, Note_on_c, 1, 58, 127
1, 19919, Note_off_c, 1, 60, 0
1, 19919, Note_off_c, 1, 65, 0
1, 19919, Note_off_c, 1, 41, 0
1, 19919, Note_off_c, 1, 58, 0
1, 19920, Note_on_c, 1, 67, 127
1, 19920, Note_on_c, 1, 40, 127
1, 19979, Note_off_c, 1, 67, 0
1, 19979, Note_off_c, 1, 40, 0
1, 20159, Note_off_c, 1, 72, 0
1, 20160, Note_on_c, 1, 70, 127
1, 20160, Note_on_c, 1, 62, 127
1, 20160, Note_on_c, 1, 50, 127
1, 20219, Note_off_c, 1, 62, 0
1, 20219, Note_off_c, 1, 50, 0
1, 20220, Note_on_c, 1, 64, 127
1, 20220, Note_on_c, 1, 49, 127
1, 20279, Note_off_c, 1, 64, 0
1, 20279, Note_off_c, 1, 49, 0
1, 20340, Note_on_c, 1, 79, 127
1, 20340, Note_on_c, 1, 61, 127
1, 20399, Note_off_c, 1, 61, 0
1, 20519, Note_off_c, 1, 70, 0
1, 20519, Note_off_c, 1, 79, 0
1, 20520, Note_on_c, 1, 76, 127
1, 20580, Note_on_c, 1, 47, 127
1, 20639, Note_off_c, 1, 47, 0
1, 20699, Note_off_c, 1, 76, 0
1, 20700, Note_on_c, 1, 77, 127
1, 20760, Note_on_c, 1, 74, 127
1, 20790, Note_on_c, 1, 48, 127
1, 20819, Note_off_c, 1, 74, 0
1, 20819, Note_off_c, 1, 48, 0
1, 20820, Note_on_c, 1, 46, 127
1, 20849, Note_off_c, 1, 46, 0
1, 20850, Note_on_c, 1, 45, 127
1, 20879, Note_off_c, 1, 45, 0
1, 20880, Note_on_c, 1, 43, 127
1, 20939, Note_off_c, 1, 43, 0
1, 20940, Note_off_c, 1, 77, 0
1, 21000, Note_on_c, 1, 74, 127
1, 21000, Note_on_c, 1, 65, 127
1, 21000, Note_on_c, 1, 58, 127
1, 21000, Note_on_c, 1, 55, 127
1, 21029, Note_off_c, 1, 58, 0
1, 21059, Note_off_c, 1, 74, 0
1, 21059, Note_off_c, 1, 65, 0
1, 21060, Note_on_c, 1, 73, 127
1, 21060, Note_on_c, 1, 64, 127
1, 21060, Note_on_c, 1, 57, 127
1, 21119, Note_off_c, 1, 55, 0
1, 21119, Note_off_c, 1, 73, 0
1, 21119, Note_off_c, 1, 64, 0
1, 21119, Note_off_c, 1, 57, 0
1, 21120, Note_on_c, 1, 69, 127
1, 21120, Note_on_c, 1, 65, 127
1, 21120, Note_on_c, 1, 62, 127
1, 21120, Note_on_c, 1, 53, 127
1, 21149, Note_off_c, 1, 62, 0
1, 21150, Note_on_c, 1, 64, 127
1, 21150, Note_on_c, 1, 61, 127
1, 21179, Note_off_c, 1, 69, 0
1, 21179, Note_off_c, 1, 65, 0
1, 21179, Note_off_c, 1, 53, 0
1, 21179, Note_off_c, 1, 64, 0
1, 21179, Note_off_c, 1, 61, 0
1, 21180, Note_on_c, 1, 74, 127
1, 21180, Note_on_c, 1, 62, 127
1, 21180, Note_on_c, 1, 65, 127
1, 21180, Note_on_c, 1, 58, 127
1, 21239, Note_off_c, 1, 62, 0
1, 21239, Note_off_c, 1, 65, 0
1, 21239, Note_off_c, 1, 58, 0
1, 21240, Note_on_c, 1, 70, 127
1, 21240, Note_on_c, 1, 67, 127
1, 21240, Note_on_c, 1, 55, 127
1, 21270, Note_on_c, 1, 76, 127
1, 21299, Note_off_c, 1, 74, 0
1, 21299, Note_off_c, 1, 70, 0
1, 21299, Note_off_c, 1, 67, 0
1, 21299, Note_off_c, 1, 55, 0
1, 21299, Note_off_c, 1, 76, 0
1, 21300, Note_on_c, 1, 76, 127
1, 21300, Note_on_c, 1, 73, 127
1, 21300, Note_on_c, 1, 77, 127
1, 21300, Note_on_c, 1, 69, 127
1, 21300, Note_on_c, 1, 64, 127
1, 21300, Note_on_c, 1, 61, 127
1, 21300, Note_on_c, 1, 57, 127
1, 21315, Note_off_c, 1, 77, 0
1, 21359, Note_off_c, 1, 69, 0
1, 21359, Note_off_c, 1, 64, 0
1, 21359, Note_off_c, 1, 57, 0
1, 21360, Note_on_c, 1, 67, 127
1, 21360, Note_on_c, 1, 45, 127
1, 21390, Note_off_c, 1, 76, 0
1, 21390, Note_on_c, 1, 74, 127
1, 21419, Note_off_c, 1, 73, 0
1, 21419, Note_off_c, 1, 61, 0
1, 21419, Note_off_c, 1, 67, 0
1, 21419, Note_off_c, 1, 45, 0
1, 21419, Note_off_c, 1, 74, 0
1, 21420, Note_on_c, 1, 74, 127
1, 21420, Note_on_c, 1, 65, 127
1, 21420, Note_on_c, 1, 69, 127
1, 21420, Note_on_c, 1, 62, 127
1, 21420, Note_on_c, 1, 50, 127
1, 21450, Note_on_c, 1, 49, 127
1, 21479, Note_off_c, 1, 49, 0
1, 21510, Note_on_c, 1, 52, 127
1, 21539, Note_off_c, 1, 74, 0
1, 21539, Note_off_c, 1, 65, 0
1, 21539, Note_off_c, 1, 69, 0
1, 21539, Note_off_c, 1, 62, 0
1, 21539, Note_off_c, 1, 50, 0
1, 21539, Note_off_c, 1, 52, 0
1, 21540, Note_on_c, 1, 53, 127
1, 21569, Note_off_c, 1, 53, 0
1, 21570, Note_on_c, 1, 55, 127
1, 21599, Note_off_c, 1, 55, 0
1, 21600, Note_on_c, 1, 57, 127
1, 21600, Note_on_c, 1, 73, 127
1, 21600, Note_on_c, 1, 64, 127
1, 21615, Note_off_c, 1, 64, 0
1, 21659, Note_off_c, 1, 57, 0
1, 21660, Note_on_c, 1, 55, 127
1, 21719, Note_off_c, 1, 55, 0
1, 21720, Note_off_c, 1, 73, 0
1, 21720, Note_on_c, 1, 76, 127
1, 21720, Note_on_c, 1, 65, 127
1, 21720, Note_on_c, 1, 53, 127
1, 21735, Note_off_c, 1, 65, 0
1, 21750, Note_on_c, 1, 62, 127
1, 21765, Note_off_c, 1, 62, 0
1, 21779, Note_off_c, 1, 53, 0
1, 21780, Note_off_c, 1, 76, 0
1, 21780, Note_on_c, 1, 67, 127
1, 21840, Note_on_c, 1, 49, 127
1, 21887, Note_off_c, 1, 49, 0
1, 21900, Note_off_c, 1, 67, 0
1, 21900, Note_on_c, 1, 50, 127
1, 21947, Note_off_c, 1, 50, 0
1, 21960, Note_on_c, 1, 75, 127
1, 21960, Note_on_c, 1, 66, 127
1, 21960, Note_on_c, 1, 48, 127
1, 22019, Note_off_c, 1, 75, 0
1, 22019, Note_off_c, 1, 66, 0
1, 22019, Note_off_c, 1, 48, 0
1, 22020, Note_on_c, 1, 74, 127
1, 22020, Note_on_c, 1, 67, 127
1, 22020, Note_on_c, 1, 58, 127
1, 22020, Note_on_c, 1, 46, 127
1, 22079, Note_off_c, 1, 74, 0
1, 22079, Note_off_c, 1, 67, 0
1, 22079, Note_off_c, 1, 58, 0
1, 22079, Note_off_c, 1, 46, 0
1, 22080, Note_on_c, 1, 72, 127
1, 22080, Note_on_c, 1, 66, 127
1, 22080, Note_on_c, 1, 60, 127
1, 22080, Note_on_c, 1, 45, 127
1, 22139, Note_off_c, 1, 72, 0
1, 22139, Note_off_c, 1, 66, 0
1, 22139, Note_off_c, 1, 60, 0
1, 22139, Note_off_c, 1, 45, 0
1, 22140, Note_on_c, 1, 70, 127
1, 22140, Note_on_c, 1, 67, 127
1, 22140, Note_on_c, 1, 62, 127
1, 22140, Note_on_c, 1, 43, 127
1, 22199, Note_off_c, 1, 70, 0
1, 22199, Note_off_c, 1, 67, 0
1, 22199, Note_off_c, 1, 62, 0
1, 22199, Note_off_c, 1, 43, 0
1, 22200, Note_on_c, 1, 69, 127
1, 22200, Note_on_c, 1, 66, 127
1, 22200, Note_on_c, 1, 60, 127
1, 22200, Note_on_c, 1, 45, 127
1, 22229, Note_off_c, 1, 69, 0
1, 22230, Note_on_c, 1, 70, 127
1, 22259, Note_off_c, 1, 66, 0
1, 22259, Note_off_c, 1, 60, 0
1, 22259, Note_off_c, 1, 45, 0
1, 22259, Note_off_c, 1, 70, 0
1, 22260, Note_on_c, 1, 67, 127
1, 22260, Note_on_c, 1, 62, 127
1, 22260, Note_on_c, 1, 46, 127
1, 22319, Note_off_c, 1, 67, 0
1, 22319, Note_off_c, 1, 62, 0
1, 22319, Note_off_c, 1, 46, 0
1, 22320, Note_on_c, 1, 60, 127
1, 22320, Note_on_c, 1, 76, 127
1, 22320, Note_on_c, 1, 67, 127
1, 22320, Note_on_c, 1, 48, 127
1, 22335, Note_off_c, 1, 67, 0
1, 22379, Note_off_c, 1, 60, 0
1, 22379, Note_off_c, 1, 48, 0
1, 22380, Note_on_c, 1, 46, 127
1, 22439, Note_off_c, 1, 76, 0
1, 22439, Note_off_c, 1, 46, 0
1, 22440, Note_on_c, 1, 60, 127
1, 22440, Note_on_c, 1, 77, 127
1, 22440, Note_on_c, 1, 69, 127
1, 22440, Note_on_c, 1, 45, 127
1, 22455, Note_off_c, 1, 69, 0
1, 22470, Note_on_c, 1, 65, 127
1, 22485, Note_off_c, 1, 65, 0
1, 22499, Note_off_c, 1, 60, 0
1, 22499, Note_off_c, 1, 77, 0
1, 22499, Note_off_c, 1, 45, 0
1, 22500, Note_on_c, 1, 60, 127
1, 22500, Note_on_c, 1, 70, 127
1, 22500, Note_on_c, 1, 67, 127
1, 22515, Note_off_c, 1, 67, 0
1, 22559, Note_off_c, 1, 60, 0
1, 22560, Note_on_c, 1, 52, 127
1, 22607, Note_off_c, 1, 52, 0
1, 22619, Note_off_c, 1, 70, 0
1, 22620, Note_on_c, 1, 60, 127
1, 22620, Note_on_c, 1, 69, 127
1, 22620, Note_on_c, 1, 65, 127
1, 22620, Note_on_c, 1, 53, 127
1, 22635, Note_off_c, 1, 65, 0
1, 22667, Note_off_c, 1, 53, 0
1, 22679, Note_off_c, 1, 60, 0
1, 22679, Note_off_c, 1, 69, 0
1, 22680, Note_on_c, 1, 77, 127
1, 22680, Note_on_c, 1, 62, 127
1, 22680, Note_on_c, 1, 69, 127
1, 22680, Note_on_c, 1, 50, 127
1, 22739, Note_off_c, 1, 77, 0
1, 22739, Note_off_c, 1, 62, 0
1, 22739, Note_off_c, 1, 69, 0
1, 22739, Note_off_c, 1, 50, 0
1, 22740, Note_on_c, 1, 76, 127
1, 22740, Note_on_c, 1, 70, 127
1, 22740, Note_on_c, 1, 67, 127
1, 22740, Note_on_c, 1, 58, 127
1, 22740, Note_on_c, 1, 55, 127
1, 22799, Note_off_c, 1, 76, 0
1, 22799, Note_off_c, 1, 70, 0
1, 22799, Note_off_c, 1, 67, 0
1, 22799, Note_off_c, 1, 58, 0
1, 22799, Note_off_c, 1, 55, 0
1, 22800, Note_on_c, 1, 74, 127
1, 22800, Note_on_c, 1, 67, 127
1, 22800, Note_on_c, 1, 62, 127
1, 22800, Note_on_c, 1, 58, 127
1, 22859, Note_off_c, 1, 74, 0
1, 22859, Note_off_c, 1, 67, 0
1, 22859, Note_off_c, 1, 62, 0
1, 22859, Note_off_c, 1, 58, 0
1, 22860, Note_on_c, 1, 73, 127
1, 22860, Note_on_c, 1, 69, 127
1, 22860, Note_on_c, 1, 64, 127
1, 22860, Note_on_c, 1, 57, 127
1, 22889, Note_off_c, 1, 57, 0
1, 22890, Note_on_c, 1, 58, 127
1, 22919, Note_off_c, 1, 73, 0
1, 22919, Note_off_c, 1, 69, 0
1, 22919, Note_off_c, 1, 64, 0
1, 22919, Note_off_c, 1, 58, 0
1, 22920, Note_on_c, 1, 71, 127
1, 22920, Note_on_c, 1, 64, 127
1, 22920, Note_on_c, 1, 57, 127
1, 22949, Note_off_c, 1, 71, 0
1, 22950, Note_on_c, 1, 73, 127
1, 22950, Note_on_c, 1, 55, 127
1, 22979, Note_off_c, 1, 64, 0
1, 22979, Note_off_c, 1, 57, 0
1, 22979, Note_off_c, 1, 73, 0
1, 22979, Note_off_c, 1, 55, 0
1, 22980, Note_on_c, 1, 69, 127
1, 22980, Note_on_c, 1, 61, 127
1, 22980, Note_on_c, 1, 53, 127
1, 23009, Note_off_c, 1, 53, 0
1, 23010, Note_on_c, 1, 52, 127
1, 23039, Note_off_c, 1, 61, 0
1, 23039, Note_off_c, 1, 52, 0
1, 23040, Note_on_c, 1, 77, 127
1, 23040, Note_on_c, 1, 62, 127
1, 23040, Note_on_c, 1, 50, 127
1, 23087, Note_off_c, 1, 50, 0
1, 23099, Note_off_c, 1, 69, 0
1, 23099, Note_off_c, 1, 77, 0
1, 23099, Note_off_c, 1, 62, 0
1, 23100, Note_on_c, 1, 77, 127
1, 23100, Note_on_c, 1, 74, 127
1, 23100, Note_on_c, 1, 69, 127
1, 23100, Note_on_c, 1, 65, 127
1, 23100, Note_on_c, 1, 48, 127
1, 23129, Note_off_c, 1, 77, 0
1, 23130, Note_on_c, 1, 79, 127
1, 23130, Note_on_c, 1, 76, 127
1, 23147, Note_off_c, 1, 48, 0
1, 23159, Note_off_c, 1, 74, 0
1, 23159, Note_off_c, 1, 69, 0
1, 23159, Note_off_c, 1, 65, 0
1, 23159, Note_off_c, 1, 79, 0
1, 23159, Note_off_c, 1, 76, 0
1, 23160, Note_on_c, 1, 77, 127
1, 23160, Note_on_c, 1, 74, 127
1, 23160, Note_on_c, 1, 69, 127
1, 23160, Note_on_c, 1, 65, 127
1, 23189, Note_off_c, 1, 77, 0
1, 23189, Note_off_c, 1, 74, 0
1, 23190, Note_on_c, 1, 79, 127
1, 23190, Note_on_c, 1, 76, 127
1, 23219, Note_off_c, 1, 69, 0
1, 23219, Note_off_c, 1, 79, 0
1, 23219, Note_off_c, 1, 76, 0
1, 23220, Note_on_c, 1, 62, 127
1, 23220, Note_on_c, 1, 47, 127
1, 23249, Note_off_c, 1, 47, 0
1, 23250, Note_on_c, 1, 45, 127
1, 23279, Note_off_c, 1, 65, 0
1, 23279, Note_off_c, 1, 45, 0
1, 23280, Note_on_c, 1, 67, 127
1, 23309, Note_off_c, 1, 67, 0
1, 23310, Note_on_c, 1, 71, 127
1, 23339, Note_off_c, 1, 62, 0
1, 23339, Note_off_c, 1, 71, 0
1, 23340, Note_on_c, 1, 74, 127
1, 23340, Note_on_c, 1, 71, 127
1, 23340, Note_on_c, 1, 43, 127
1, 23369, Note_off_c, 1, 74, 0
1, 23370, Note_on_c, 1, 77, 127
1, 23399, Note_off_c, 1, 71, 0
1, 23399, Note_off_c, 1, 43, 0
1, 23399, Note_off_c, 1, 77, 0
1, 23400, Note_on_c, 1, 75, 127
1, 23400, Note_on_c, 1, 67, 127
1, 23400, Note_on_c, 1, 60, 127
1, 23400, Note_on_c, 1, 48, 127
1, 23447, Note_off_c, 1, 48, 0
1, 23459, Note_off_c, 1, 75, 0
1, 23459, Note_off_c, 1, 67, 0
1, 23459, Note_off_c, 1, 60, 0
1, 23460, Note_on_c, 1, 75, 127
1, 23460, Note_on_c, 1, 72, 127
1, 23460, Note_on_c, 1, 67, 127
1, 23460, Note_on_c, 1, 63, 127
1, 23460, Note_on_c, 1, 46, 127
1, 23489, Note_off_c, 1, 75, 0
1, 23490, Note_on_c, 1, 77, 127
1, 23490, Note_on_c, 1, 74, 127
1, 23507, Note_off_c, 1, 46, 0
1, 23519, Note_off_c, 1, 72, 0
1, 23519, Note_off_c, 1, 67, 0
1, 23519, Note_off_c, 1, 63, 0
1, 23519, Note_off_c, 1, 77, 0
1, 23519, Note_off_c, 1, 74, 0
1, 23520, Note_on_c, 1, 75, 127
1, 23520, Note_on_c, 1, 72, 127
1, 23520, Note_on_c, 1, 67, 127
1, 23520, Note_on_c, 1, 63, 127
1, 23549, Note_off_c, 1, 75, 0
1, 23549, Note_off_c, 1, 72, 0
1, 23550, Note_on_c, 1, 77, 127
1, 23550, Note_on_c, 1, 74, 127
1, 23579, Note_off_c, 1, 67, 0
1, 23579, Note_off_c, 1, 77, 0
1, 23579, Note_off_c, 1, 74, 0
1, 23580, Note_on_c, 1, 60, 127
1, 23580, Note_on_c, 1, 45, 127
1, 23609, Note_off_c, 1, 45, 0
1, 23610, Note_on_c, 1, 43, 127
1, 23639, Note_off_c, 1, 63, 0
1, 23639, Note_off_c, 1, 43, 0
1, 23640, Note_on_c, 1, 65, 127
1, 23669, Note_off_c, 1, 65, 0
1, 23670, Note_on_c, 1, 69, 127
1, 23699, Note_off_c, 1, 60, 0
1, 23699, Note_off_c, 1, 69, 0
1, 23700, Note_on_c, 1, 72, 127
1, 23700, Note_on_c, 1, 69, 127
1, 23700, Note_on_c, 1, 41, 127
1, 23729, Note_off_c, 1, 72, 0
1, 23730, Note_on_c, 1, 75, 127
1, 23759, Note_off_c, 1, 69, 0
1, 23759, Note_off_c, 1, 41, 0
1, 23759, Note_off_c, 1, 75, 0
1, 23760, Note_on_c, 1, 74, 127
1, 23760, Note_on_c, 1, 65, 127
1, 23760, Note_on_c, 1, 58, 127
1, 23760, Note_on_c, 1, 46, 127
1, 23807, Note_off_c, 1, 46, 0
1, 23819, Note_off_c, 1, 74, 0
1, 23819, Note_off_c, 1, 65, 0
1, 23819, Note_off_c, 1, 58, 0
1, 23820, Note_on_c, 1, 74, 127
1, 23820, Note_on_c, 1, 70, 127
1, 23820, Note_on_c, 1, 65, 127
1, 23820, Note_on_c, 1, 62, 127
1, 23820, Note_on_c, 1, 45, 127
1, 23849, Note_off_c, 1, 74, 0
1, 23850, Note_on_c, 1, 76, 127
1, 23850, Note_on_c, 1, 72, 127
1, 23867, Note_off_c, 1, 45, 0
1, 23879, Note_off_c, 1, 70, 0
1, 23879, Note_off_c, 1, 65, 0
1, 23879, Note_off_c, 1, 62, 0
1, 23879, Note_off_c, 1, 76, 0
1, 23879, Note_off_c, 1, 72, 0
1, 23880, Note_on_c, 1, 74, 127
1, 23880, Note_on_c, 1, 70, 127
1, 23880, Note_on_c, 1, 65, 127
1, 23880, Note_on_c, 1, 62, 127
1, 23909, Note_off_c, 1, 74, 0
1, 23909, Note_off_c, 1, 70, 0
1, 23910, Note_on_c, 1, 76, 127
1, 23910, Note_on_c, 1, 72, 127
1, 23939, Note_off_c, 1, 65, 0
1, 23939, Note_off_c, 1, 76, 0
1, 23939, Note_off_c, 1, 72, 0
1, 23940, Note_on_c, 1, 58, 127
1, 23940, Note_on_c, 1, 43, 127
1, 23999, Note_off_c, 1, 62, 0
1, 23999, Note_off_c, 1, 58, 0
1, 23999, Note_off_c, 1, 43, 0
1, 24000, Note_on_c, 1, 64, 127
1, 24000, Note_on_c, 1, 70, 127
1, 24000, Note_on_c, 1, 55, 127
1, 24029, Note_off_c, 1, 64, 0
1, 24029, Note_off_c, 1, 70, 0
1, 24029, Note_off_c, 1, 55, 0
1, 24030, Note_on_c, 1, 82, 127
1, 24030, Note_on_c, 1, 74, 127
1, 24030, Note_on_c, 1, 53, 127
1, 24059, Note_off_c, 1, 82, 0
1, 24059, Note_off_c, 1, 74, 0
1, 24059, Note_off_c, 1, 53, 0
1, 24060, Note_on_c, 1, 81, 127
1, 24060, Note_on_c, 1, 73, 127
1, 24060, Note_on_c, 1, 64, 127
1, 24060, Note_on_c, 1, 55, 127
1, 24089, Note_off_c, 1, 81, 0
1, 24089, Note_off_c, 1, 73, 0
1, 24089, Note_off_c, 1, 64, 0
1, 24089, Note_off_c, 1, 55, 0
1, 24090, Note_on_c, 1, 52, 127
1, 24119, Note_off_c, 1, 52, 0
1, 24120, Note_on_c, 1, 53, 127
1, 24179, Note_off_c, 1, 53, 0
1, 24180, Note_on_c, 1, 74, 127
1, 24180, Note_on_c, 1, 70, 127
1, 24180, Note_on_c, 1, 79, 127
1, 24180, Note_on_c, 1, 55, 127
1, 24209, Note_off_c, 1, 70, 0
1, 24209, Note_off_c, 1, 79, 0
1, 24210, Note_on_c, 1, 69, 127
1, 24210, Note_on_c, 1, 77, 127
1, 24239, Note_off_c, 1, 74, 0
1, 24239, Note_off_c, 1, 55, 0
1, 24239, Note_off_c, 1, 69, 0
1, 24239, Note_off_c, 1, 77, 0
1, 24240, Note_on_c, 1, 73, 127
1, 24240, Note_on_c, 1, 67, 127
1, 24240, Note_on_c, 1, 76, 127
1, 24240, Note_on_c, 1, 64, 127
1, 24240, Note_on_c, 1, 57, 127
1, 24269, Note_off_c, 1, 67, 0
1, 24269, Note_off_c, 1, 76, 0
1, 24269, Note_off_c, 1, 64, 0
1, 24270, Note_on_c, 1, 69, 127
1, 24270, Note_on_c, 1, 74, 127
1, 24299, Note_off_c, 1, 73, 0
1, 24299, Note_off_c, 1, 57, 0
1, 24299, Note_off_c, 1, 69, 0
1, 24299, Note_off_c, 1, 74, 0
1, 24300, Note_on_c, 1, 74, 127
1, 24300, Note_on_c, 1, 65, 127
1, 24300, Note_on_c, 1, 69, 127
1, 24300, Note_on_c, 1, 50, 127
1, 24359, Note_off_c, 1, 50, 0
1, 24360, Note_on_c, 1, 71, 127
1, 24360, Note_on_c, 1, 45, 127
1, 24389, Note_off_c, 1, 71, 0
1, 24389, Note_off_c, 1, 45, 0
1, 24390, Note_on_c, 1, 73, 127
1, 24390, Note_on_c, 1, 64, 127
1, 24390, Note_on_c, 1, 43, 127
1, 24419, Note_off_c, 1, 65, 0
1, 24419, Note_off_c, 1, 73, 0
1, 24419, Note_off_c, 1, 64, 0
1, 24419, Note_off_c, 1, 43, 0
1, 24420, Note_off_c, 1, 69, 0
1, 24420, Note_on_c, 1, 41, 127
1, 24449, Note_off_c, 1, 41, 0
1, 24450, Note_on_c, 1, 76, 127
1, 24450, Note_on_c, 1, 67, 127
1, 24450, Note_on_c, 1, 40, 127
1, 24479, Note_off_c, 1, 76, 0
1, 24479, Note_off_c, 1, 67, 0
1, 24479, Note_off_c, 1, 40, 0
1, 24480, Note_off_c, 1, 74, 0
1, 24480, Note_on_c, 1, 77, 127
1, 24480, Note_on_c, 1, 62, 127
1, 24480, Note_on_c, 1, 38, 127
1, 24509, Note_off_c, 1, 77, 0
1, 24539, Note_off_c, 1, 38, 0
1, 24540, Note_on_c, 1, 72, 127
1, 24540, Note_on_c, 1, 55, 127
1, 24554, Note_off_c, 1, 72, 0
1, 24599, Note_off_c, 1, 55, 0
1, 24600, Note_on_c, 1, 53, 127
1, 24630, Note_on_c, 1, 60, 127
1, 24644, Note_off_c, 1, 60, 0
1, 24659, Note_off_c, 1, 62, 0
1, 24659, Note_off_c, 1, 53, 0
1, 24660, Note_on_c, 1, 72, 127
1, 24660, Note_on_c, 1, 67, 127
1, 24660, Note_on_c, 1, 60, 127
1, 24660, Note_on_c, 1, 55, 127
1, 24660, Note_on_c, 1, 52, 127
1, 24660, Note_on_c, 1, 40, 127
1, 24719, Note_off_c, 1, 55, 0
1, 24719, Note_off_c, 1, 52, 0
1, 24719, Note_off_c, 1, 40, 0
1, 24720, Note_on_c, 1, 59, 127
1, 24720, Note_on_c, 1, 53, 127
1, 24720, Note_on_c, 1, 50, 127
1, 24720, Note_on_c, 1, 38, 127
1, 24749, Note_off_c, 1, 59, 0
1, 24779, Note_off_c, 1, 67, 0
1, 24779, Note_off_c, 1, 53, 0
1, 24779, Note_off_c, 1, 50, 0
1, 24779, Note_off_c, 1, 38, 0
1, 24780, Note_on_c, 1, 62, 127
1, 24780, Note_on_c, 1, 48, 127
1, 24780, Note_on_c, 1, 36, 127
1, 24809, Note_off_c, 1, 62, 0
1, 24810, Note_on_c, 1, 64, 127
1, 24839, Note_off_c, 1, 72, 0
1, 24839, Note_off_c, 1, 48, 0
1, 24839, Note_off_c, 1, 36, 0
1, 24839, Note_off_c, 1, 64, 0
1, 24840, Note_on_c, 1, 65, 127
1, 24840, Note_on_c, 1, 57, 127
1, 24899, Note_off_c, 1, 60, 0
1, 24899, Note_off_c, 1, 65, 0
1, 24899, Note_off_c, 1, 57, 0
1, 24900, Note_on_c, 1, 62, 127
1, 24900, Note_on_c, 1, 60, 127
1, 24900, Note_on_c, 1, 55, 127
1, 24900, Note_on_c, 1, 43, 127
1, 24929, Note_off_c, 1, 43, 0
1, 24930, Note_on_c, 1, 41, 127
1, 24959, Note_off_c, 1, 62, 0
1, 24959, Note_off_c, 1, 60, 0
1, 24959, Note_off_c, 1, 55, 0
1, 24959, Note_off_c, 1, 41, 0
1, 24960, Note_on_c, 1, 67, 127
1, 24960, Note_on_c, 1, 59, 127
1, 24960, Note_on_c, 1, 55, 127
1, 24960, Note_on_c, 1, 43, 127
1, 25019, Note_off_c, 1, 67, 0
1, 25019, Note_off_c, 1, 59, 0
1, 25019, Note_off_c, 1, 43, 0
1, 25020, Note_on_c, 1, 64, 127
1, 25020, Note_on_c, 1, 60, 127
1, 25020, Note_on_c, 1, 48, 127
1, 25050, Note_on_c, 1, 62, 127
1, 25079, Note_off_c, 1, 55, 0
1, 25079, Note_off_c, 1, 64, 0
1, 25079, Note_off_c, 1, 60, 0
1, 25079, Note_off_c, 1, 48, 0
1, 25079, Note_off_c, 1, 62, 0
1, 25080, Note_on_c, 1, 65, 127
1, 25080, Note_on_c, 1, 59, 127
1, 25080, Note_on_c, 1, 53, 127
1, 25080, Note_on_c, 1, 62, 127
1, 25080, Note_on_c, 1, 50, 127
1, 25109, Note_off_c, 1, 65, 0
1, 25110, Note_on_c, 1, 64, 127
1, 25139, Note_off_c, 1, 59, 0
1, 25139, Note_off_c, 1, 53, 0
1, 25139, Note_off_c, 1, 62, 0
1, 25139, Note_off_c, 1, 50, 0
1, 25139, Note_off_c, 1, 64, 0
1, 25140, Note_on_c, 1, 62, 127
1, 25140, Note_on_c, 1, 60, 127
1, 25140, Note_on_c, 1, 55, 127
1, 25140, Note_on_c, 1, 52, 127
1, 25169, Note_off_c, 1, 62, 0
1, 25199, Note_off_c, 1, 60, 0
1, 25199, Note_off_c, 1, 55, 0
1, 25199, Note_off_c, 1, 52, 0
1, 25200, Note_on_c, 1, 64, 127
1, 25200, Note_on_c, 1, 60, 127
1, 25200, Note_on_c, 1, 45, 127
1, 25259, Note_off_c, 1, 64, 0
1, 25260, Note_on_c, 1, 69, 127
1, 25319, Note_off_c, 1, 60, 0
1, 25319, Note_off_c, 1, 45, 0
1, 25319, Note_off_c, 1, 69, 0
1, 25320, Note_on_c, 1, 68, 127
1, 25320, Note_on_c, 1, 62, 127
1, 25320, Note_on_c, 1, 59, 127
1, 25320, Note_on_c, 1, 47, 127
1, 25379, Note_off_c, 1, 68, 0
1, 25379, Note_off_c, 1, 62, 0
1, 25379, Note_off_c, 1, 59, 0
1, 25379, Note_off_c, 1, 47, 0
1, 25380, Note_on_c, 1, 69, 127
1, 25380, Note_on_c, 1, 64, 127
1, 25380, Note_on_c, 1, 57, 127
1, 25380, Note_on_c, 1, 48, 127
1, 25439, Note_off_c, 1, 69, 0
1, 25439, Note_off_c, 1, 64, 0
1, 25439, Note_off_c, 1, 57, 0
1, 25439, Note_off_c, 1, 48, 0
1, 25440, Note_on_c, 1, 71, 127
1, 25440, Note_on_c, 1, 68, 127
1, 25440, Note_on_c, 1, 62, 127
1, 25440, Note_on_c, 1, 47, 127
1, 25499, Note_off_c, 1, 71, 0
1, 25499, Note_off_c, 1, 68, 0
1, 25499, Note_off_c, 1, 62, 0
1, 25499, Note_off_c, 1, 47, 0
1, 25500, Note_on_c, 1, 72, 127
1, 25500, Note_on_c, 1, 69, 127
1, 25500, Note_on_c, 1, 64, 127
1, 25500, Note_on_c, 1, 45, 127
1, 25559, Note_off_c, 1, 72, 0
1, 25559, Note_off_c, 1, 69, 0
1, 25559, Note_off_c, 1, 64, 0
1, 25559, Note_off_c, 1, 45, 0
1, 25560, Note_on_c, 1, 71, 127
1, 25560, Note_on_c, 1, 65, 127
1, 25560, Note_on_c, 1, 62, 127
1, 25560, Note_on_c, 1, 50, 127
1, 25619, Note_off_c, 1, 71, 0
1, 25619, Note_off_c, 1, 65, 0
1, 25619, Note_off_c, 1, 62, 0
1, 25619, Note_off_c, 1, 50, 0
1, 25620, Note_on_c, 1, 74, 127
1, 25620, Note_on_c, 1, 64, 127
1, 25620, Note_on_c, 1, 56, 127
1, 25620, Note_on_c, 1, 52, 127
1, 25649, Note_off_c, 1, 74, 0
1, 25650, Note_on_c, 1, 72, 127
1, 25679, Note_off_c, 1, 64, 0
1, 25679, Note_off_c, 1, 56, 0
1, 25679, Note_off_c, 1, 52, 0
1, 25679, Note_off_c, 1, 72, 0
1, 25680, Note_on_c, 1, 71, 127
1, 25680, Note_on_c, 1, 62, 127
1, 25680, Note_on_c, 1, 57, 127
1, 25680, Note_on_c, 1, 53, 127
1, 25709, Note_off_c, 1, 71, 0
1, 25710, Note_on_c, 1, 69, 127
1, 25739, Note_off_c, 1, 62, 0
1, 25739, Note_off_c, 1, 57, 0
1, 25739, Note_off_c, 1, 53, 0
1, 25739, Note_off_c, 1, 69, 0
1, 25740, Note_on_c, 1, 68, 127
1, 25740, Note_on_c, 1, 64, 127
1, 25740, Note_on_c, 1, 59, 127
1, 25740, Note_on_c, 1, 52, 127
1, 25770, Note_on_c, 1, 66, 127
1, 25799, Note_off_c, 1, 68, 0
1, 25799, Note_off_c, 1, 52, 0
1, 25799, Note_off_c, 1, 66, 0
1, 25800, Note_on_c, 1, 69, 127
1, 25800, Note_on_c, 1, 54, 127
1, 25829, Note_off_c, 1, 69, 0
1, 25859, Note_off_c, 1, 64, 0
1, 25859, Note_off_c, 1, 59, 0
1, 25859, Note_off_c, 1, 54, 0
1, 25860, Note_on_c, 1, 66, 127
1, 25860, Note_on_c, 1, 64, 127
1, 25860, Note_on_c, 1, 59, 127
1, 25860, Note_on_c, 1, 56, 127
1, 25889, Note_off_c, 1, 66, 0
1, 25919, Note_off_c, 1, 64, 0
1, 25919, Note_off_c, 1, 59, 0
1, 25919, Note_off_c, 1, 56, 0
1, 25920, Note_on_c, 1, 72, 127
1, 25920, Note_on_c, 1, 69, 127
1, 25920, Note_on_c, 1, 60, 127
1, 25920, Note_on_c, 1, 76, 127
1, 25920, Note_on_c, 1, 64, 127
1, 25920, Note_on_c, 1, 52, 127
1, 25920, Note_on_c, 1, 57, 127
1, 25949, Note_off_c, 1, 72, 0
1, 25949, Note_off_c, 1, 69, 0
1, 25949, Note_off_c, 1, 52, 0
1, 25950, Note_off_c, 1, 60, 0
1, 25950, Note_on_c, 1, 71, 127
1, 25950, Note_on_c, 1, 56, 127
1, 25979, Note_off_c, 1, 76, 0
1, 25979, Note_off_c, 1, 64, 0
1, 25979, Note_off_c, 1, 57, 0
1, 25979, Note_off_c, 1, 71, 0
1, 25979, Note_off_c, 1, 56, 0
1, 25980, Note_on_c, 1, 72, 127
1, 25980, Note_on_c, 1, 74, 127
1, 25980, Note_on_c, 1, 69, 127
1, 25980, Note_on_c, 1, 64, 127
1, 25980, Note_on_c, 1, 60, 127
1, 25980, Note_on_c, 1, 57, 127
1, 25980, Note_on_c, 1, 45, 127
1, 26009, Note_off_c, 1, 72, 0
1, 26009, Note_off_c, 1, 74, 0
1, 26009, Note_off_c, 1, 57, 0
1, 26010, Note_on_c, 1, 59, 127
1, 26039, Note_off_c, 1, 69, 0
1, 26039, Note_off_c, 1, 64, 0
1, 26039, Note_off_c, 1, 60, 0
1, 26039, Note_off_c, 1, 45, 0
1, 26039, Note_off_c, 1, 59, 0
1, 26040, Note_on_c, 1, 71, 127
1, 26040, Note_on_c, 1, 64, 127
1, 26040, Note_on_c, 1, 56, 127
1, 26040, Note_on_c, 1, 44, 127
1, 26069, Note_off_c, 1, 71, 0
1, 26069, Note_off_c, 1, 56, 0
1, 26070, Note_on_c, 1, 74, 127
1, 26070, Note_on_c, 1, 59, 127
1, 26099, Note_off_c, 1, 64, 0
1, 26099, Note_off_c, 1, 44, 0
1, 26099, Note_off_c, 1, 74, 0
1, 26099, Note_off_c, 1, 59, 0
1, 26100, Note_on_c, 1, 72, 127
1, 26100, Note_on_c, 1, 76, 127
1, 26100, Note_on_c, 1, 69, 127
1, 26100, Note_on_c, 1, 64, 127
1, 26100, Note_on_c, 1, 60, 127
1, 26100, Note_on_c, 1, 57, 127
1, 26100, Note_on_c, 1, 45, 127
1, 26129, Note_off_c, 1, 72, 0
1, 26129, Note_off_c, 1, 76, 0
1, 26129, Note_off_c, 1, 60, 0
1, 26130, Note_off_c, 1, 69, 0
1, 26130, Note_on_c, 1, 74, 127
1, 26130, Note_on_c, 1, 59, 127
1, 26147, Note_off_c, 1, 45, 0
1, 26159, Note_off_c, 1, 74, 0
1, 26159, Note_off_c, 1, 59, 0
1, 26219, Note_off_c, 1, 64, 0
1, 26219, Note_off_c, 1, 57, 0
1, 26220, Note_on_c, 1, 72, 127
1, 26220, Note_on_c, 1, 64, 127
1, 26220, Note_on_c, 1, 57, 127
1, 26220, Note_on_c, 1, 55, 127
1, 26249, Note_off_c, 1, 72, 0
1, 26250, Note_on_c, 1, 71, 127
1, 26279, Note_off_c, 1, 64, 0
1, 26279, Note_off_c, 1, 57, 0
1, 26279, Note_off_c, 1, 55, 0
1, 26279, Note_off_c, 1, 71, 0
1, 26280, Note_on_c, 1, 69, 127
1, 26280, Note_on_c, 1, 65, 127
1, 26280, Note_on_c, 1, 74, 127
1, 26280, Note_on_c, 1, 57, 127
1, 26280, Note_on_c, 1, 62, 127
1, 26280, Note_on_c, 1, 53, 127
1, 26309, Note_off_c, 1, 57, 0
1, 26309, Note_off_c, 1, 62, 0
1, 26310, Note_off_c, 1, 65, 0
1, 26310, Note_off_c, 1, 74, 0
1, 26310, Note_on_c, 1, 64, 127
1, 26310, Note_on_c, 1, 61, 127
1, 26339, Note_off_c, 1, 53, 0
1, 26339, Note_off_c, 1, 64, 0
1, 26339, Note_off_c, 1, 61, 0
1, 26340, Note_on_c, 1, 81, 127
1, 26340, Note_on_c, 1, 50, 127
1, 26370, Note_off_c, 1, 81, 0
1, 26370, Note_on_c, 1, 76, 127
1, 26370, Note_on_c, 1, 67, 127
1, 26399, Note_off_c, 1, 69, 0
1, 26399, Note_off_c, 1, 50, 0
1, 26399, Note_off_c, 1, 76, 0
1, 26399, Note_off_c, 1, 67, 0
1, 26400, Note_on_c, 1, 73, 127
1, 26400, Note_on_c, 1, 69, 127
1, 26400, Note_on_c, 1, 64, 127
1, 26400, Note_on_c, 1, 61, 127
1, 26400, Note_on_c, 1, 57, 127
1, 26429, Note_off_c, 1, 73, 0
1, 26429, Note_off_c, 1, 64, 0
1, 26429, Note_off_c, 1, 61, 0
1, 26430, Note_on_c, 1, 76, 127
1, 26430, Note_on_c, 1, 67, 127
1, 26459, Note_off_c, 1, 69, 0
1, 26459, Note_off_c, 1, 57, 0
1, 26459, Note_off_c, 1, 76, 0
1, 26459, Note_off_c, 1, 67, 0
1, 26460, Note_on_c, 1, 74, 127
1, 26460, Note_on_c, 1, 65, 127
1, 26460, Note_on_c, 1, 69, 127
1, 26460, Note_on_c, 1, 81, 127
1, 26460, Note_on_c, 1, 62, 127
1, 26460, Note_on_c, 1, 53, 127
1, 26489, Note_off_c, 1, 65, 0
1, 26489, Note_off_c, 1, 62, 0
1, 26490, Note_off_c, 1, 74, 0
1, 26490, Note_off_c, 1, 81, 0
1, 26490, Note_on_c, 1, 76, 127
1, 26490, Note_on_c, 1, 67, 127
1, 26490, Note_on_c, 1, 64, 127
1, 26519, Note_off_c, 1, 53, 0
1, 26519, Note_off_c, 1, 76, 0
1, 26519, Note_off_c, 1, 67, 0
1, 26519, Note_off_c, 1, 64, 0
1, 26520, Note_on_c, 1, 77, 127
1, 26520, Note_on_c, 1, 50, 127
1, 26550, Note_off_c, 1, 77, 0
1, 26579, Note_off_c, 1, 69, 0
1, 26579, Note_off_c, 1, 50, 0
1, 26580, Note_on_c, 1, 74, 127
1, 26580, Note_on_c, 1, 65, 127
1, 26580, Note_on_c, 1, 69, 127
1, 26580, Note_on_c, 1, 62, 127
1, 26580, Note_on_c, 1, 53, 127
1, 26609, Note_off_c, 1, 65, 0
1, 26609, Note_off_c, 1, 62, 0
1, 26610, Note_on_c, 1, 64, 127
1, 26610, Note_on_c, 1, 60, 127
1, 26639, Note_off_c, 1, 74, 0
1, 26639, Note_off_c, 1, 69, 0
1, 26639, Note_off_c, 1, 53, 0
1, 26639, Note_off_c, 1, 64, 0
1, 26639, Note_off_c, 1, 60, 0
1, 26640, Note_on_c, 1, 71, 127
1, 26640, Note_on_c, 1, 67, 127
1, 26640, Note_on_c, 1, 62, 127
1, 26640, Note_on_c, 1, 50, 127
1, 26640, Note_on_c, 1, 59, 127
1, 26640, Note_on_c, 1, 55, 127
1, 26669, Note_off_c, 1, 71, 0
1, 26669, Note_off_c, 1, 50, 0
1, 26670, Note_off_c, 1, 67, 0
1, 26670, Note_on_c, 1, 69, 127
1, 26670, Note_on_c, 1, 54, 127
1, 26687, Note_off_c, 1, 55, 0
1, 26699, Note_off_c, 1, 59, 0
1, 26699, Note_off_c, 1, 69, 0
1, 26699, Note_off_c, 1, 54, 0
1, 26700, Note_on_c, 1, 74, 127
1, 26700, Note_on_c, 1, 43, 127
1, 26730, Note_off_c, 1, 74, 0
1, 26730, Note_on_c, 1, 72, 127
1, 26730, Note_on_c, 1, 57, 127
1, 26759, Note_off_c, 1, 62, 0
1, 26759, Note_off_c, 1, 43, 0
1, 26759, Note_off_c, 1, 72, 0
1, 26759, Note_off_c, 1, 57, 0
1, 26760, Note_on_c, 1, 69, 127
1, 26760, Note_on_c, 1, 62, 127
1, 26760, Note_on_c, 1, 54, 127
1, 26760, Note_on_c, 1, 42, 127
1, 26789, Note_off_c, 1, 69, 0
1, 26789, Note_off_c, 1, 54, 0
1, 26790, Note_on_c, 1, 72, 127
1, 26790, Note_on_c, 1, 57, 127
1, 26819, Note_off_c, 1, 62, 0
1, 26819, Note_off_c, 1, 42, 0
1, 26819, Note_off_c, 1, 72, 0
1, 26819, Note_off_c, 1, 57, 0
1, 26820, Note_on_c, 1, 71, 127
1, 26820, Note_on_c, 1, 74, 127
1, 26820, Note_on_c, 1, 67, 127
1, 26820, Note_on_c, 1, 62, 127
1, 26820, Note_on_c, 1, 59, 127
1, 26820, Note_on_c, 1, 55, 127
1, 26820, Note_on_c, 1, 43, 127
1, 26849, Note_off_c, 1, 71, 0
1, 26849, Note_off_c, 1, 59, 0
1, 26850, Note_off_c, 1, 74, 0
1, 26850, Note_off_c, 1, 67, 0
1, 26850, Note_on_c, 1, 72, 127
1, 26850, Note_on_c, 1, 57, 127
1, 26867, Note_off_c, 1, 43, 0
1, 26879, Note_off_c, 1, 62, 0
1, 26879, Note_off_c, 1, 55, 0
1, 26879, Note_off_c, 1, 72, 0
1, 26879, Note_off_c, 1, 57, 0
1, 26880, Note_on_c, 1, 74, 127
1, 26880, Note_on_c, 1, 71, 127
1, 26880, Note_on_c, 1, 62, 127
1, 26880, Note_on_c, 1, 67, 127
1, 26880, Note_on_c, 1, 55, 127
1, 26880, Note_on_c, 1, 59, 127
1, 26909, Note_off_c, 1, 74, 0
1, 26909, Note_off_c, 1, 67, 0
1, 26909, Note_off_c, 1, 59, 0
1, 26910, Note_off_c, 1, 71, 0
1, 26910, Note_on_c, 1, 72, 127
1, 26910, Note_on_c, 1, 57, 127
1, 26939, Note_off_c, 1, 62, 0
1, 26939, Note_off_c, 1, 55, 0
1, 26939, Note_off_c, 1, 72, 0
1, 26939, Note_off_c, 1, 57, 0
1, 26940, Note_on_c, 1, 71, 127
1, 26940, Note_on_c, 1, 62, 127
1, 26940, Note_on_c, 1, 55, 127
1, 26940, Note_on_c, 1, 53, 127
1, 26969, Note_off_c, 1, 71, 0
1, 26970, Note_on_c, 1, 69, 127
1, 26999, Note_off_c, 1, 62, 0
1, 26999, Note_off_c, 1, 55, 0
1, 26999, Note_off_c, 1, 53, 0
1, 26999, Note_off_c, 1, 69, 0
1, 27000, Note_on_c, 1, 76, 127
1, 27000, Note_on_c, 1, 67, 127
1, 27000, Note_on_c, 1, 72, 127
1, 27000, Note_on_c, 1, 64, 127
1, 27000, Note_on_c, 1, 55, 127
1, 27000, Note_on_c, 1, 60, 127
1, 27000, Note_on_c, 1, 52, 127
1, 27029, Note_off_c, 1, 76, 0
1, 27029, Note_off_c, 1, 55, 0
1, 27029, Note_off_c, 1, 60, 0
1, 27030, Note_off_c, 1, 72, 0
1, 27030, Note_off_c, 1, 64, 0
1, 27030, Note_on_c, 1, 74, 127
1, 27030, Note_on_c, 1, 62, 127
1, 27030, Note_on_c, 1, 59, 127
1, 27059, Note_off_c, 1, 52, 0
1, 27059, Note_off_c, 1, 74, 0
1, 27059, Note_off_c, 1, 62, 0
1, 27059, Note_off_c, 1, 59, 0
1, 27060, Note_on_c, 1, 79, 127
1, 27060, Note_on_c, 1, 48, 127
1, 27090, Note_off_c, 1, 79, 0
1, 27090, Note_on_c, 1, 77, 127
1, 27090, Note_on_c, 1, 65, 127
1, 27119, Note_off_c, 1, 67, 0
1, 27119, Note_off_c, 1, 48, 0
1, 27119, Note_off_c, 1, 77, 0
1, 27119, Note_off_c, 1, 65, 0
1, 27120, Note_on_c, 1, 74, 127
1, 27120, Note_on_c, 1, 71, 127
1, 27120, Note_on_c, 1, 67, 127
1, 27120, Note_on_c, 1, 62, 127
1, 27120, Note_on_c, 1, 59, 127
1, 27120, Note_on_c, 1, 55, 127
1, 27149, Note_off_c, 1, 74, 0
1, 27149, Note_off_c, 1, 71, 0
1, 27149, Note_off_c, 1, 62, 0
1, 27149, Note_off_c, 1, 59, 0
1, 27150, Note_on_c, 1, 77, 127
1, 27150, Note_on_c, 1, 65, 127
1, 27179, Note_off_c, 1, 67, 0
1, 27179, Note_off_c, 1, 55, 0
1, 27179, Note_off_c, 1, 77, 0
1, 27179, Note_off_c, 1, 65, 0
1, 27180, Note_on_c, 1, 76, 127
1, 27180, Note_on_c, 1, 72, 127
1, 27180, Note_on_c, 1, 67, 127
1, 27180, Note_on_c, 1, 79, 127
1, 27180, Note_on_c, 1, 64, 127
1, 27180, Note_on_c, 1, 60, 127
1, 27180, Note_on_c, 1, 52, 127
1, 27209, Note_off_c, 1, 76, 0
1, 27209, Note_off_c, 1, 64, 0
1, 27209, Note_off_c, 1, 60, 0
1, 27210, Note_off_c, 1, 72, 0
1, 27210, Note_off_c, 1, 79, 0
1, 27210, Note_on_c, 1, 77, 127
1, 27210, Note_on_c, 1, 74, 127
1, 27210, Note_on_c, 1, 65, 127
1, 27210, Note_on_c, 1, 62, 127
1, 27239, Note_off_c, 1, 52, 0
1, 27239, Note_off_c, 1, 77, 0
1, 27239, Note_off_c, 1, 74, 0
1, 27239, Note_off_c, 1, 65, 0
1, 27239, Note_off_c, 1, 62, 0
1, 27240, Note_on_c, 1, 48, 127
1, 27299, Note_off_c, 1, 67, 0
1, 27299, Note_off_c, 1, 48, 0
1, 27300, Note_on_c, 1, 76, 127
1, 27300, Note_on_c, 1, 72, 127
1, 27300, Note_on_c, 1, 67, 127
1, 27300, Note_on_c, 1, 64, 127
1, 27300, Note_on_c, 1, 60, 127
1, 27300, Note_on_c, 1, 52, 127
1, 27329, Note_off_c, 1, 76, 0
1, 27329, Note_off_c, 1, 72, 0
1, 27329, Note_off_c, 1, 64, 0
1, 27329, Note_off_c, 1, 60, 0
1, 27330, Note_on_c, 1, 74, 127
1, 27330, Note_on_c, 1, 71, 127
1, 27330, Note_on_c, 1, 62, 127
1, 27330, Note_on_c, 1, 59, 127
1, 27359, Note_off_c, 1, 67, 0
1, 27359, Note_off_c, 1, 52, 0
1, 27359, Note_off_c, 1, 74, 0
1, 27359, Note_off_c, 1, 71, 0
1, 27359, Note_off_c, 1, 62, 0
1, 27359, Note_off_c, 1, 59, 0
1, 27360, Note_on_c, 1, 72, 127
1, 27360, Note_on_c, 1, 69, 127
1, 27360, Note_on_c, 1, 65, 127
1, 27360, Note_on_c, 1, 60, 127
1, 27360, Note_on_c, 1, 57, 127
1, 27360, Note_on_c, 1, 53, 127
1, 27389, Note_off_c, 1, 72, 0
1, 27390, Note_on_c, 1, 70, 127
1, 27419, Note_off_c, 1, 65, 0
1, 27419, Note_off_c, 1, 57, 0
1, 27419, Note_off_c, 1, 53, 0
1, 27419, Note_off_c, 1, 70, 0
1, 27420, Note_on_c, 1, 67, 127
1, 27420, Note_on_c, 1, 58, 127
1, 27420, Note_on_c, 1, 52, 127
1, 27450, Note_on_c, 1, 74, 127
1, 27479, Note_off_c, 1, 60, 0
1, 27479, Note_off_c, 1, 67, 0
1, 27479, Note_off_c, 1, 58, 0
1, 27479, Note_off_c, 1, 52, 0
1, 27479, Note_off_c, 1, 74, 0
1, 27540, Note_on_c, 1, 77, 127
1, 27540, Note_on_c, 1, 62, 127
1, 27540, Note_on_c, 1, 50, 127
1, 27599, Note_off_c, 1, 62, 0
1, 27599, Note_off_c, 1, 50, 0
1, 27600, Note_on_c, 1, 64, 127
1, 27600, Note_on_c, 1, 49, 127
1, 27659, Note_off_c, 1, 64, 0
1, 27659, Note_off_c, 1, 49, 0
1, 27719, Note_off_c, 1, 69, 0
1, 27719, Note_off_c, 1, 77, 0
1, 27720, Note_on_c, 1, 79, 127
1, 27840, Note_on_c, 1, 55, 127
1, 27899, Note_off_c, 1, 79, 0
1, 27899, Note_off_c, 1, 55, 0
1, 27900, Note_on_c, 1, 76, 127
1, 27960, Note_on_c, 1, 47, 127
1, 28019, Note_off_c, 1, 47, 0
1, 28139, Note_off_c, 1, 76, 0
1, 28140, Note_on_c, 1, 71, 127
1, 28140, Note_on_c, 1, 59, 127
1, 28199, Note_off_c, 1, 71, 0
1, 28199, Note_off_c, 1, 59, 0
1, 28260, Note_on_c, 1, 71, 127
1, 28260, Note_on_c, 1, 53, 127
1, 28260, Note_on_c, 1, 68, 127
1, 28260, Note_on_c, 1, 62, 127
1, 28319, Note_off_c, 1, 71, 0
1, 28319, Note_off_c, 1, 53, 0
1, 28319, Note_off_c, 1, 68, 0
1, 28319, Note_off_c, 1, 62, 0
1, 28320, Note_on_c, 1, 74, 127
1, 28320, Note_on_c, 1, 65, 127
1, 28320, Note_on_c, 1, 69, 127
1, 28320, Note_on_c, 1, 62, 127
1, 28320, Note_on_c, 1, 47, 127
1, 28349, Note_off_c, 1, 69, 0
1, 28350, Note_on_c, 1, 64, 127
1, 28350, Note_on_c, 1, 68, 127
1, 28379, Note_off_c, 1, 74, 0
1, 28379, Note_off_c, 1, 65, 0
1, 28379, Note_off_c, 1, 62, 0
1, 28379, Note_off_c, 1, 47, 0
1, 28379, Note_off_c, 1, 64, 0
1, 28379, Note_off_c, 1, 68, 0
1, 28380, Note_on_c, 1, 76, 127
1, 28380, Note_on_c, 1, 60, 127
1, 28380, Note_on_c, 1, 69, 127
1, 28380, Note_on_c, 1, 64, 127
1, 28380, Note_on_c, 1, 48, 127
1, 28439, Note_off_c, 1, 76, 0
1, 28439, Note_off_c, 1, 60, 0
1, 28439, Note_off_c, 1, 64, 0
1, 28439, Note_off_c, 1, 48, 0
1, 28440, Note_on_c, 1, 72, 127
1, 28440, Note_on_c, 1, 65, 127
1, 28440, Note_on_c, 1, 50, 127
1, 28469, Note_off_c, 1, 72, 0
1, 28470, Note_on_c, 1, 71, 127
1, 28499, Note_off_c, 1, 69, 0
1, 28499, Note_off_c, 1, 65, 0
1, 28499, Note_off_c, 1, 50, 0
1, 28499, Note_off_c, 1, 71, 0
1, 28500, Note_on_c, 1, 71, 127
1, 28500, Note_on_c, 1, 68, 127
1, 28500, Note_on_c, 1, 64, 127
1, 28500, Note_on_c, 1, 52, 127
1, 28559, Note_off_c, 1, 64, 0
1, 28560, Note_on_c, 1, 62, 127
1, 28560, Note_on_c, 1, 40, 127
1, 28589, Note_off_c, 1, 71, 0
1, 28590, Note_on_c, 1, 69, 127
1, 28619, Note_off_c, 1, 68, 0
1, 28619, Note_off_c, 1, 52, 0
1, 28619, Note_off_c, 1, 62, 0
1, 28619, Note_off_c, 1, 40, 0
1, 28619, Note_off_c, 1, 69, 0
1, 28620, Note_on_c, 1, 69, 127
1, 28620, Note_on_c, 1, 60, 127
1, 28620, Note_on_c, 1, 64, 127
1, 28620, Note_on_c, 1, 45, 127
1, 28739, Note_off_c, 1, 69, 0
1, 28739, Note_off_c, 1, 60, 0
1, 28739, Note_off_c, 1, 64, 0
1, 28739, Note_off_c, 1, 45, 0
1, 28800, Note_on_c, 1, 69, 127
1, 28800, Note_on_c, 1, 65, 127
1, 28800, Note_on_c, 1, 60, 127
1, 28800, Note_on_c, 1, 53, 127
1, 28919, Note_off_c, 1, 69, 0
1, 28919, Note_off_c, 1, 65, 0
1, 28919, Note_off_c, 1, 60, 0
1, 28920, Note_on_c, 1, 70, 127
1, 28920, Note_on_c, 1, 62, 127
1, 28979, Note_off_c, 1, 70, 0
1, 28979, Note_off_c, 1, 62, 0
1, 28980, Note_on_c, 1, 67, 127
1, 28980, Note_on_c, 1, 64, 127
1, 28980, Note_on_c, 1, 58, 127
1, 29039, Note_off_c, 1, 64, 0
1, 29040, Note_on_c, 1, 52, 127
1, 29099, Note_off_c, 1, 67, 0
1, 29099, Note_off_c, 1, 58, 0
1, 29099, Note_off_c, 1, 52, 0
1, 29100, Note_on_c, 1, 57, 127
1, 29159, Note_off_c, 1, 53, 0
1, 29159, Note_off_c, 1, 57, 0
1, 29160, Note_on_c, 1, 76, 127
1, 29160, Note_on_c, 1, 67, 127
1, 29160, Note_on_c, 1, 60, 127
1, 29175, Note_off_c, 1, 67, 0
1, 29219, Note_off_c, 1, 60, 0
1, 29220, Note_on_c, 1, 46, 127
1, 29267, Note_off_c, 1, 46, 0
1, 29279, Note_off_c, 1, 76, 0
1, 29280, Note_on_c, 1, 77, 127
1, 29280, Note_on_c, 1, 69, 127
1, 29280, Note_on_c, 1, 60, 127
1, 29280, Note_on_c, 1, 45, 127
1, 29295, Note_off_c, 1, 69, 0
1, 29310, Note_on_c, 1, 65, 127
1, 29325, Note_off_c, 1, 65, 0
1, 29327, Note_off_c, 1, 45, 0
1, 29339, Note_off_c, 1, 77, 0
1, 29339, Note_off_c, 1, 60, 0
1, 29340, Note_on_c, 1, 70, 127
1, 29340, Note_on_c, 1, 67, 127
1, 29340, Note_on_c, 1, 60, 127
1, 29355, Note_off_c, 1, 67, 0
1, 29399, Note_off_c, 1, 60, 0
1, 29400, Note_on_c, 1, 40, 127
1, 29447, Note_off_c, 1, 40, 0
1, 29459, Note_off_c, 1, 70, 0
1, 29460, Note_on_c, 1, 69, 127
1, 29460, Note_on_c, 1, 65, 127
1, 29460, Note_on_c, 1, 60, 127
1, 29460, Note_on_c, 1, 41, 127
1, 29475, Note_off_c, 1, 65, 0
1, 29507, Note_off_c, 1, 41, 0
1, 29519, Note_off_c, 1, 69, 0
1, 29519, Note_off_c, 1, 60, 0
1, 29520, Note_on_c, 1, 69, 127
1, 29520, Note_on_c, 1, 65, 127
1, 29520, Note_on_c, 1, 60, 127
1, 29520, Note_on_c, 1, 51, 127
1, 29579, Note_off_c, 1, 69, 0
1, 29579, Note_off_c, 1, 60, 0
1, 29579, Note_off_c, 1, 51, 0
1, 29580, Note_on_c, 1, 70, 127
1, 29580, Note_on_c, 1, 62, 127
1, 29580, Note_on_c, 1, 50, 127
1, 29639, Note_off_c, 1, 65, 0
1, 29639, Note_off_c, 1, 70, 0
1, 29639, Note_off_c, 1, 62, 0
1, 29639, Note_off_c, 1, 50, 0
1, 29640, Note_on_c, 1, 72, 127
1, 29640, Note_on_c, 1, 69, 127
1, 29640, Note_on_c, 1, 63, 127
1, 29640, Note_on_c, 1, 48, 127
1, 29699, Note_off_c, 1, 72, 0
1, 29699, Note_off_c, 1, 69, 0
1, 29699, Note_off_c, 1, 63, 0
1, 29699, Note_off_c, 1, 48, 0
1, 29700, Note_on_c, 1, 74, 127
1, 29700, Note_on_c, 1, 70, 127
1, 29700, Note_on_c, 1, 65, 127
1, 29700, Note_on_c, 1, 46, 127
1, 29729, Note_off_c, 1, 70, 0
1, 29729, Note_off_c, 1, 65, 0
1, 29730, Note_off_c, 1, 74, 0
1, 29747, Note_off_c, 1, 46, 0
1, 29760, Note_on_c, 1, 72, 127
1, 29760, Note_on_c, 1, 69, 127
1, 29760, Note_on_c, 1, 65, 127
1, 29760, Note_on_c, 1, 53, 127
1, 29789, Note_off_c, 1, 69, 0
1, 29789, Note_off_c, 1, 65, 0
1, 29790, Note_off_c, 1, 72, 0
1, 29807, Note_off_c, 1, 53, 0
1, 29880, Note_on_c, 1, 53, 127
1, 29880, Note_on_c, 1, 81, 127
1, 29880, Note_on_c, 1, 72, 127
1, 29895, Note_off_c, 1, 72, 0
1, 29910, Note_on_c, 1, 65, 127
1, 29925, Note_off_c, 1, 65, 0
1, 29939, Note_off_c, 1, 53, 0
1, 29940, Note_on_c, 1, 51, 127
1, 29987, Note_off_c, 1, 51, 0
1, 29999, Note_off_c, 1, 81, 0
1, 30000, Note_on_c, 1, 53, 127
1, 30000, Note_on_c, 1, 82, 127
1, 30000, Note_on_c, 1, 74, 127
1, 30000, Note_on_c, 1, 50, 127
1, 30015, Note_off_c, 1, 74, 0
1, 30030, Note_on_c, 1, 70, 127
1, 30045, Note_off_c, 1, 70, 0
1, 30047, Note_off_c, 1, 50, 0
1, 30059, Note_off_c, 1, 53, 0
1, 30059, Note_off_c, 1, 82, 0
1, 30060, Note_on_c, 1, 53, 127
1, 30060, Note_on_c, 1, 75, 127
1, 30060, Note_on_c, 1, 72, 127
1, 30075, Note_off_c, 1, 72, 0
1, 30090, Note_on_c, 1, 65, 127
1, 30105, Note_off_c, 1, 65, 0
1, 30119, Note_off_c, 1, 53, 0
1, 30120, Note_on_c, 1, 45, 127
1, 30167, Note_off_c, 1, 45, 0
1, 30179, Note_off_c, 1, 75, 0
1, 30180, Note_on_c, 1, 53, 127
1, 30180, Note_on_c, 1, 74, 127
1, 30180, Note_on_c, 1, 70, 127
1, 30180, Note_on_c, 1, 46, 127
1, 30195, Note_off_c, 1, 70, 0
1, 30209, Note_off_c, 1, 74, 0
1, 30210, Note_on_c, 1, 72, 127
1, 30210, Note_on_c, 1, 69, 127
1, 30225, Note_off_c, 1, 69, 0
1, 30227, Note_off_c, 1, 46, 0
1, 30239, Note_off_c, 1, 53, 0
1, 30239, Note_off_c, 1, 72, 0
1, 30240, Note_on_c, 1, 74, 127
1, 30240, Note_on_c, 1, 65, 127
1, 30240, Note_on_c, 1, 70, 127
1, 30240, Note_on_c, 1, 58, 127
1, 30240, Note_on_c, 1, 45, 127
1, 30269, Note_off_c, 1, 74, 0
1, 30269, Note_off_c, 1, 70, 0
1, 30270, Note_on_c, 1, 76, 127
1, 30270, Note_on_c, 1, 69, 127
1, 30270, Note_on_c, 1, 67, 127
1, 30299, Note_off_c, 1, 65, 0
1, 30299, Note_off_c, 1, 45, 0
1, 30299, Note_off_c, 1, 76, 0
1, 30299, Note_off_c, 1, 69, 0
1, 30299, Note_off_c, 1, 67, 0
1, 30300, Note_on_c, 1, 77, 127
1, 30300, Note_on_c, 1, 55, 127
1, 30300, Note_on_c, 1, 43, 127
1, 30314, Note_off_c, 1, 77, 0
1, 30359, Note_off_c, 1, 58, 0
1, 30359, Note_off_c, 1, 55, 0
1, 30359, Note_off_c, 1, 43, 0
1, 30360, Note_on_c, 1, 60, 127
1, 30360, Note_on_c, 1, 48, 127
1, 30419, Note_off_c, 1, 60, 0
1, 30419, Note_off_c, 1, 48, 0
1, 30420, Note_on_c, 1, 53, 127
1, 30420, Note_on_c, 1, 72, 127
1, 30420, Note_on_c, 1, 57, 127
1, 30479, Note_off_c, 1, 53, 0
1, 30479, Note_off_c, 1, 57, 0
1, 30480, Note_on_c, 1, 62, 127
1, 30480, Note_on_c, 1, 46, 127
1, 30539, Note_off_c, 1, 72, 0
1, 30539, Note_off_c, 1, 62, 0
1, 30539, Note_off_c, 1, 46, 0
1, 30540, Note_on_c, 1, 72, 127
1, 30540, Note_on_c, 1, 67, 127
1, 30540, Note_on_c, 1, 64, 127
1, 30540, Note_on_c, 1, 60, 127
1, 30540, Note_on_c, 1, 48, 127
1, 30569, Note_off_c, 1, 72, 0
1, 30570, Note_on_c, 1, 70, 127
1, 30599, Note_off_c, 1, 67, 0
1, 30599, Note_off_c, 1, 64, 0
1, 30599, Note_off_c, 1, 60, 0
1, 30599, Note_off_c, 1, 48, 0
1, 30599, Note_off_c, 1, 70, 0
1, 30600, Note_on_c, 1, 69, 127
1, 30600, Note_on_c, 1, 65, 127
1, 30600, Note_on_c, 1, 60, 127
1, 30600, Note_on_c, 1, 53, 127
1, 30600, Note_on_c, 1, 41, 127
1, 30659, Note_off_c, 1, 69, 0
1, 30659, Note_off_c, 1, 60, 0
1, 30659, Note_off_c, 1, 53, 0
1, 30659, Note_off_c, 1, 41, 0
1, 30660, Note_on_c, 1, 74, 127
1, 30660, Note_on_c, 1, 58, 127
1, 30660, Note_on_c, 1, 46, 127
1, 30719, Note_off_c, 1, 65, 0
1, 30719, Note_off_c, 1, 74, 0
1, 30719, Note_off_c, 1, 58, 0
1, 30719, Note_off_c, 1, 46, 0
1, 30720, Note_on_c, 1, 70, 127
1, 30720, Note_on_c, 1, 65, 127
1, 30720, Note_on_c, 1, 62, 127
1, 30720, Note_on_c, 1, 55, 127
1, 30720, Note_on_c, 1, 43, 127
1, 30779, Note_off_c, 1, 70, 0
1, 30779, Note_off_c, 1, 65, 0
1, 30779, Note_off_c, 1, 62, 0
1, 30779, Note_off_c, 1, 55, 0
1, 30779, Note_off_c, 1, 43, 0
1, 30780, Note_on_c, 1, 69, 127
1, 30780, Note_on_c, 1, 60, 127
1, 30780, Note_on_c, 1, 65, 127
1, 30780, Note_on_c, 1, 67, 127
1, 30780, Note_on_c, 1, 64, 127
1, 30780, Note_on_c, 1, 48, 127
1, 30839, Note_off_c, 1, 69, 0
1, 30839, Note_off_c, 1, 65, 0
1, 30839, Note_off_c, 1, 48, 0
1, 30840, Note_on_c, 1, 43, 127
1, 30869, Note_off_c, 1, 43, 0
1, 30870, Note_on_c, 1, 41, 127
1, 30899, Note_off_c, 1, 60, 0
1, 30899, Note_off_c, 1, 67, 0
1, 30899, Note_off_c, 1, 64, 0
1, 30899, Note_off_c, 1, 41, 0
1, 30900, Note_on_c, 1, 40, 127
1, 30929, Note_off_c, 1, 40, 0
1, 30930, Note_on_c, 1, 38, 127
1, 30959, Note_off_c, 1, 38, 0
1, 30960, Note_on_c, 1, 82, 127
1, 30960, Note_on_c, 1, 76, 127
1, 30960, Note_on_c, 1, 67, 127
1, 30960, Note_on_c, 1, 72, 127
1, 30960, Note_on_c, 1, 64, 127
1, 30960, Note_on_c, 1, 36, 127
1, 30990, Note_off_c, 1, 82, 0
1, 30990, Note_off_c, 1, 76, 0
1, 31019, Note_off_c, 1, 67, 0
1, 31019, Note_off_c, 1, 64, 0
1, 31019, Note_off_c, 1, 36, 0
1, 31020, Note_on_c, 1, 69, 127
1, 31020, Note_on_c, 1, 65, 127
1, 31079, Note_off_c, 1, 69, 0
1, 31079, Note_off_c, 1, 65, 0
1, 31080, Note_on_c, 1, 70, 127
1, 31080, Note_on_c, 1, 40, 127
1, 31139, Note_off_c, 1, 72, 0
1, 31139, Note_off_c, 1, 70, 0
1, 31139, Note_off_c, 1, 40, 0
1, 31140, Note_on_c, 1, 70, 127
1, 31140, Note_on_c, 1, 67, 127
1, 31140, Note_on_c, 1, 72, 127
1, 31140, Note_on_c, 1, 41, 127
1, 31199, Note_off_c, 1, 70, 0
1, 31199, Note_off_c, 1, 67, 0
1, 31199, Note_off_c, 1, 41, 0
1, 31200, Note_on_c, 1, 69, 127
1, 31200, Note_on_c, 1, 65, 127
1, 31259, Note_off_c, 1, 69, 0
1, 31259, Note_off_c, 1, 65, 0
1, 31260, Note_on_c, 1, 64, 127
1, 31260, Note_on_c, 1, 43, 127
1, 31319, Note_off_c, 1, 64, 0
1, 31319, Note_off_c, 1, 43, 0
1, 31320, Note_on_c, 1, 81, 127
1, 31320, Note_on_c, 1, 57, 127
1, 31320, Note_on_c, 1, 45, 127
1, 31350, Note_off_c, 1, 81, 0
1, 31379, Note_off_c, 1, 57, 0
1, 31379, Note_off_c, 1, 45, 0
1, 31380, Note_on_c, 1, 58, 127
1, 31439, Note_off_c, 1, 58, 0
1, 31440, Note_on_c, 1, 60, 127
1, 31499, Note_off_c, 1, 60, 0
1, 31500, Note_on_c, 1, 48, 127
1, 31619, Note_off_c, 1, 48, 0
1, 31620, Note_on_c, 1, 50, 127
1, 31679, Note_off_c, 1, 50, 0
1, 31680, Note_on_c, 1, 79, 127
1, 31680, Note_on_c, 1, 55, 127
1, 31680, Note_on_c, 1, 52, 127
1, 31710, Note_off_c, 1, 79, 0
1, 31739, Note_off_c, 1, 55, 0
1, 31739, Note_off_c, 1, 52, 0
1, 31860, Note_on_c, 1, 53, 127
1, 31979, Note_off_c, 1, 53, 0
1, 31980, Note_on_c, 1, 46, 127
1, 32039, Note_off_c, 1, 46, 0
1, 32040, Note_on_c, 1, 77, 127
1, 32070, Note_off_c, 1, 77, 0
1, 32460, Note_off_c, 1, 72, 0
1, 32460, Note_on_c, 1, 74, 127
1, 32519, Note_off_c, 1, 74, 0
1, 32520, Note_on_c, 1, 76, 127
1, 32520, Note_on_c, 1, 69, 127
1, 32520, Note_on_c, 1, 60, 127
1, 32520, Note_on_c, 1, 48, 127
1, 32579, Note_off_c, 1, 69, 0
1, 32579, Note_off_c, 1, 48, 0
1, 32580, Note_on_c, 1, 67, 127
1, 32580, Note_on_c, 1, 58, 127
1, 32639, Note_off_c, 1, 76, 0
1, 32639, Note_off_c, 1, 60, 0
1, 32639, Note_off_c, 1, 67, 0
1, 32640, Note_on_c, 1, 74, 127
1, 32640, Note_on_c, 1, 65, 127
1, 32640, Note_on_c, 1, 62, 127
1, 32699, Note_off_c, 1, 58, 0
1, 32699, Note_off_c, 1, 74, 0
1, 32699, Note_off_c, 1, 65, 0
1, 32699, Note_off_c, 1, 62, 0
1, 32700, Note_on_c, 1, 72, 127
1, 32700, Note_on_c, 1, 67, 127
1, 32700, Note_on_c, 1, 64, 127
1, 32700, Note_on_c, 1, 58, 127
1, 32759, Note_off_c, 1, 72, 0
1, 32759, Note_off_c, 1, 67, 0
1, 32759, Note_off_c, 1, 64, 0
1, 32759, Note_off_c, 1, 58, 0
1, 32760, Note_on_c, 1, 77, 127
1, 32760, Note_on_c, 1, 72, 127
1, 32760, Note_on_c, 1, 60, 127
1, 32760, Note_on_c, 1, 65, 127
1, 32760, Note_on_c, 1, 57, 127
1, 32819, Note_off_c, 1, 77, 0
1, 32819, Note_off_c, 1, 57, 0
1, 32820, Note_on_c, 1, 55, 127
1, 32879, Note_off_c, 1, 72, 0
1, 32879, Note_off_c, 1, 60, 0
1, 32879, Note_off_c, 1, 65, 0
1, 32879, Note_off_c, 1, 55, 0
1, 32880, Note_on_c, 1, 75, 127
1, 32880, Note_on_c, 1, 72, 127
1, 32880, Note_on_c, 1, 69, 127
1, 32880, Note_on_c, 1, 65, 127
1, 32880, Note_on_c, 1, 53, 127
1, 32939, Note_off_c, 1, 75, 0
1, 32939, Note_off_c, 1, 72, 0
1, 32939, Note_off_c, 1, 69, 0
1, 32939, Note_off_c, 1, 65, 0
1, 32939, Note_off_c, 1, 53, 0
1, 32940, Note_on_c, 1, 75, 127
1, 32940, Note_on_c, 1, 72, 127
1, 32940, Note_on_c, 1, 65, 127
1, 32940, Note_on_c, 1, 70, 127
1, 32940, Note_on_c, 1, 58, 127
1, 32969, Note_off_c, 1, 65, 0
1, 32969, Note_off_c, 1, 70, 0
1, 32970, Note_off_c, 1, 75, 0
1, 32970, Note_off_c, 1, 72, 0
1, 32987, Note_off_c, 1, 58, 0
1, 33000, Note_on_c, 1, 74, 127
1, 33000, Note_on_c, 1, 70, 127
1, 33000, Note_on_c, 1, 65, 127
1, 33000, Note_on_c, 1, 69, 127
1, 33000, Note_on_c, 1, 46, 127
1, 33029, Note_off_c, 1, 65, 0
1, 33029, Note_off_c, 1, 69, 0
1, 33030, Note_off_c, 1, 74, 0
1, 33030, Note_off_c, 1, 70, 0
1, 33047, Note_off_c, 1, 46, 0
1, 33120, Note_on_c, 1, 72, 127
1, 33120, Note_on_c, 1, 69, 127
1, 33120, Note_on_c, 1, 62, 127
1, 33120, Note_on_c, 1, 54, 127
1, 33179, Note_off_c, 1, 72, 0
1, 33180, Note_on_c, 1, 75, 127
1, 33180, Note_on_c, 1, 60, 127
1, 33239, Note_off_c, 1, 69, 0
1, 33239, Note_off_c, 1, 62, 0
1, 33239, Note_off_c, 1, 54, 0
1, 33239, Note_off_c, 1, 75, 0
1, 33239, Note_off_c, 1, 60, 0
1, 33240, Note_on_c, 1, 74, 127
1, 33240, Note_on_c, 1, 66, 127
1, 33240, Note_on_c, 1, 69, 127
1, 33240, Note_on_c, 1, 62, 127
1, 33240, Note_on_c, 1, 50, 127
1, 33299, Note_off_c, 1, 74, 0
1, 33299, Note_off_c, 1, 66, 0
1, 33299, Note_off_c, 1, 69, 0
1, 33299, Note_off_c, 1, 62, 0
1, 33299, Note_off_c, 1, 50, 0
1, 33300, Note_on_c, 1, 72, 127
1, 33300, Note_on_c, 1, 67, 127
1, 33300, Note_on_c, 1, 62, 127
1, 33300, Note_on_c, 1, 55, 127
1, 33359, Note_off_c, 1, 72, 0
1, 33360, Note_on_c, 1, 70, 127
1, 33360, Note_on_c, 1, 64, 127
1, 33419, Note_off_c, 1, 67, 0
1, 33419, Note_off_c, 1, 62, 0
1, 33419, Note_off_c, 1, 55, 0
1, 33419, Note_off_c, 1, 70, 0
1, 33419, Note_off_c, 1, 64, 0
1, 33420, Note_on_c, 1, 69, 127
1, 33420, Note_on_c, 1, 62, 127
1, 33420, Note_on_c, 1, 65, 127
1, 33420, Note_on_c, 1, 53, 127
1, 33479, Note_off_c, 1, 69, 0
1, 33479, Note_off_c, 1, 62, 0
1, 33479, Note_off_c, 1, 65, 0
1, 33479, Note_off_c, 1, 53, 0
1, 33480, Note_on_c, 1, 70, 127
1, 33480, Note_on_c, 1, 67, 127
1, 33480, Note_on_c, 1, 60, 127
1, 33480, Note_on_c, 1, 52, 127
1, 33539, Note_off_c, 1, 70, 0
1, 33539, Note_off_c, 1, 67, 0
1, 33540, Note_on_c, 1, 74, 127
1, 33540, Note_on_c, 1, 65, 127
1, 33599, Note_off_c, 1, 60, 0
1, 33599, Note_off_c, 1, 52, 0
1, 33599, Note_off_c, 1, 74, 0
1, 33599, Note_off_c, 1, 65, 0
1, 33600, Note_on_c, 1, 72, 127
1, 33600, Note_on_c, 1, 64, 127
1, 33600, Note_on_c, 1, 60, 127
1, 33600, Note_on_c, 1, 48, 127
1, 33659, Note_off_c, 1, 72, 0
1, 33659, Note_off_c, 1, 64, 0
1, 33659, Note_off_c, 1, 60, 0
1, 33659, Note_off_c, 1, 48, 0
1, 33660, Note_on_c, 1, 70, 127
1, 33660, Note_on_c, 1, 65, 127
1, 33660, Note_on_c, 1, 60, 127
1, 33660, Note_on_c, 1, 53, 127
1, 33719, Note_off_c, 1, 70, 0
1, 33720, Note_on_c, 1, 57, 127
1, 33720, Note_on_c, 1, 69, 127
1, 33720, Note_on_c, 1, 52, 127
1, 33749, Note_off_c, 1, 57, 0
1, 33779, Note_off_c, 1, 65, 0
1, 33779, Note_off_c, 1, 60, 0
1, 33779, Note_off_c, 1, 53, 0
1, 33779, Note_off_c, 1, 69, 0
1, 33779, Note_off_c, 1, 52, 0
1, 33780, Note_on_c, 1, 57, 127
1, 33780, Note_on_c, 1, 50, 127
1, 33809, Note_off_c, 1, 57, 0
1, 33810, Note_on_c, 1, 53, 127
1, 33839, Note_off_c, 1, 50, 0
1, 33839, Note_off_c, 1, 53, 0
1, 33840, Note_on_c, 1, 60, 127
1, 33840, Note_on_c, 1, 76, 127
1, 33840, Note_on_c, 1, 72, 127
1, 33840, Note_on_c, 1, 64, 127
1, 33840, Note_on_c, 1, 55, 127
1, 33840, Note_on_c, 1, 48, 127
1, 33869, Note_off_c, 1, 76, 0
1, 33870, Note_on_c, 1, 74, 127
1, 33899, Note_off_c, 1, 60, 0
1, 33899, Note_off_c, 1, 72, 0
1, 33899, Note_off_c, 1, 48, 0
1, 33899, Note_off_c, 1, 74, 0
1, 33900, Note_on_c, 1, 67, 127
1, 33900, Note_on_c, 1, 46, 127
1, 33959, Note_off_c, 1, 64, 0
1, 33959, Note_off_c, 1, 55, 0
1, 33959, Note_off_c, 1, 67, 0
1, 33959, Note_off_c, 1, 46, 0
1, 33960, Note_on_c, 1, 60, 127
1, 33960, Note_on_c, 1, 77, 127
1, 33960, Note_on_c, 1, 72, 127
1, 33960, Note_on_c, 1, 65, 127
1, 33960, Note_on_c, 1, 57, 127
1, 33960, Note_on_c, 1, 45, 127
1, 33989, Note_off_c, 1, 77, 0
1, 34019, Note_off_c, 1, 60, 0
1, 34019, Note_off_c, 1, 65, 0
1, 34019, Note_off_c, 1, 57, 0
1, 34019, Note_off_c, 1, 45, 0
1, 34020, Note_on_c, 1, 79, 127
1, 34020, Note_on_c, 1, 58, 127
1, 34020, Note_on_c, 1, 52, 127
1, 34049, Note_off_c, 1, 79, 0
1, 34079, Note_off_c, 1, 72, 0
1, 34080, Note_on_c, 1, 76, 127
1, 34080, Note_on_c, 1, 48, 127
1, 34127, Note_off_c, 1, 48, 0
1, 34139, Note_off_c, 1, 58, 0
1, 34139, Note_off_c, 1, 52, 0
1, 34139, Note_off_c, 1, 76, 0
1, 34140, Note_on_c, 1, 60, 127
1, 34140, Note_on_c, 1, 81, 127
1, 34140, Note_on_c, 1, 72, 127
1, 34140, Note_on_c, 1, 57, 127
1, 34140, Note_on_c, 1, 53, 127
1, 34169, Note_off_c, 1, 81, 0
1, 34199, Note_off_c, 1, 60, 0
1, 34199, Note_off_c, 1, 72, 0
1, 34199, Note_off_c, 1, 57, 0
1, 34199, Note_off_c, 1, 53, 0
1, 34200, Note_on_c, 1, 67, 127
1, 34200, Note_on_c, 1, 60, 127
1, 34200, Note_on_c, 1, 76, 127
1, 34200, Note_on_c, 1, 72, 127
1, 34200, Note_on_c, 1, 64, 127
1, 34200, Note_on_c, 1, 58, 127
1, 34200, Note_on_c, 1, 46, 127
1, 34259, Note_off_c, 1, 67, 0
1, 34259, Note_off_c, 1, 76, 0
1, 34259, Note_off_c, 1, 64, 0
1, 34259, Note_off_c, 1, 58, 0
1, 34259, Note_off_c, 1, 46, 0
1, 34260, Note_on_c, 1, 69, 127
1, 34260, Note_on_c, 1, 65, 127
1, 34260, Note_on_c, 1, 77, 127
1, 34260, Note_on_c, 1, 57, 127
1, 34260, Note_on_c, 1, 45, 127
1, 34319, Note_off_c, 1, 60, 0
1, 34319, Note_off_c, 1, 72, 0
1, 34319, Note_off_c, 1, 69, 0
1, 34319, Note_off_c, 1, 65, 0
1, 34319, Note_off_c, 1, 77, 0
1, 34319, Note_off_c, 1, 57, 0
1, 34319, Note_off_c, 1, 45, 0
1, 34320, Note_on_c, 1, 70, 127
1, 34320, Note_on_c, 1, 60, 127
1, 34320, Note_on_c, 1, 79, 127
1, 34320, Note_on_c, 1, 76, 127
1, 34320, Note_on_c, 1, 67, 127
1, 34320, Note_on_c, 1, 58, 127
1, 34320, Note_on_c, 1, 55, 127
1, 34320, Note_on_c, 1, 43, 127
1, 34378, Note_off_c, 1, 60, 0
1, 34379, Note_off_c, 1, 70, 0
1, 34379, Note_off_c, 1, 79, 0
1, 34379, Note_off_c, 1, 76, 0
1, 34379, Note_off_c, 1, 67, 0
1, 34379, Note_off_c, 1, 58, 0
1, 34379, Note_off_c, 1, 55, 0
1, 34379, Note_off_c, 1, 43, 0
1, 34380, Note_on_c, 1, 72, 127
1, 34380, Note_on_c, 1, 53, 127
1, 34380, Note_on_c, 1, 81, 127
1, 34380, Note_on_c, 1, 77, 127
1, 34380, Note_on_c, 1, 69, 127
1, 34380, Note_on_c, 1, 60, 127
1, 34380, Note_on_c, 1, 41, 127
1, 34427, Note_off_c, 1, 41, 0
1, 34439, Note_off_c, 1, 72, 0
1, 34439, Note_off_c, 1, 53, 0
1, 34439, Note_off_c, 1, 81, 0
1, 34439, Note_off_c, 1, 77, 0
1, 34439, Note_off_c, 1, 69, 0
1, 34440, Note_on_c, 1, 70, 127
1, 34440, Note_on_c, 1, 79, 127
1, 34440, Note_on_c, 1, 67, 127
1, 34440, Note_on_c, 1, 52, 127
1, 34440, Note_on_c, 1, 48, 127
1, 34469, Note_off_c, 1, 70, 0
1, 34469, Note_off_c, 1, 67, 0
1, 34487, Note_off_c, 1, 48, 0
1, 34499, Note_off_c, 1, 60, 0
1, 34499, Note_off_c, 1, 79, 0
1, 34499, Note_off_c, 1, 52, 0
1, 34500, Note_on_c, 1, 69, 127
1, 34500, Note_on_c, 1, 65, 127
1, 34500, Note_on_c, 1, 77, 127
1, 34500, Note_on_c, 1, 81, 127
1, 34500, Note_on_c, 1, 60, 127
1, 34500, Note_on_c, 1, 53, 127
1, 34559, Note_off_c, 1, 69, 0
1, 34559, Note_off_c, 1, 65, 0
1, 34559, Note_off_c, 1, 77, 0
1, 34559, Note_off_c, 1, 81, 0
1, 34559, Note_off_c, 1, 60, 0
1, 34559, Note_off_c, 1, 53, 0
1, 34560, Note_on_c, 1, 53, 127
1, 34560, Note_on_c, 1, 69, 127
1, 34560, Note_on_c, 1, 65, 127
1, 34560, Note_on_c, 1, 72, 127
1, 34590, Note_on_c, 1, 67, 127
1, 34619, Note_off_c, 1, 53, 0
1, 34619, Note_off_c, 1, 65, 0
1, 34619, Note_off_c, 1, 67, 0
1, 34620, Note_on_c, 1, 60, 127
1, 34620, Note_on_c, 1, 51, 127
1, 34667, Note_off_c, 1, 51, 0
1, 34679, Note_off_c, 1, 69, 0
1, 34679, Note_off_c, 1, 72, 0
1, 34679, Note_off_c, 1, 60, 0
1, 34680, Note_on_c, 1, 53, 127
1, 34680, Note_on_c, 1, 70, 127
1, 34680, Note_on_c, 1, 65, 127
1, 34680, Note_on_c, 1, 74, 127
1, 34680, Note_on_c, 1, 50, 127
1, 34727, Note_off_c, 1, 50, 0
1, 34739, Note_off_c, 1, 53, 0
1, 34739, Note_off_c, 1, 70, 0
1, 34739, Note_off_c, 1, 74, 0
1, 34740, Note_on_c, 1, 72, 127
1, 34740, Note_on_c, 1, 69, 127
1, 34740, Note_on_c, 1, 63, 127
1, 34769, Note_off_c, 1, 72, 0
1, 34799, Note_off_c, 1, 65, 0
1, 34800, Note_on_c, 1, 60, 127
1, 34800, Note_on_c, 1, 57, 127
1, 34859, Note_off_c, 1, 69, 0
1, 34859, Note_off_c, 1, 63, 0
1, 34859, Note_off_c, 1, 60, 0
1, 34859, Note_off_c, 1, 57, 0
1, 34860, Note_on_c, 1, 53, 127
1, 34860, Note_on_c, 1, 74, 127
1, 34860, Note_on_c, 1, 58, 127
1, 34860, Note_on_c, 1, 70, 127
1, 34860, Note_on_c, 1, 62, 127
1, 34889, Note_off_c, 1, 74, 0
1, 34890, Note_on_c, 1, 65, 127
1, 34919, Note_off_c, 1, 53, 0
1, 34919, Note_off_c, 1, 58, 0
1, 34919, Note_off_c, 1, 70, 0
1, 34919, Note_off_c, 1, 62, 0
1, 34919, Note_off_c, 1, 65, 0
1, 34920, Note_on_c, 1, 69, 127
1, 34920, Note_on_c, 1, 53, 127
1, 34920, Note_on_c, 1, 72, 127
1, 34920, Note_on_c, 1, 65, 127
1, 34920, Note_on_c, 1, 60, 127
1, 34920, Note_on_c, 1, 57, 127
1, 34920, Note_on_c, 1, 51, 127
1, 34979, Note_off_c, 1, 69, 0
1, 34979, Note_off_c, 1, 72, 0
1, 34979, Note_off_c, 1, 60, 0
1, 34979, Note_off_c, 1, 57, 0
1, 34979, Note_off_c, 1, 51, 0
1, 34980, Note_on_c, 1, 70, 127
1, 34980, Note_on_c, 1, 74, 127
1, 34980, Note_on_c, 1, 58, 127
1, 34980, Note_on_c, 1, 50, 127
1, 35039, Note_off_c, 1, 53, 0
1, 35039, Note_off_c, 1, 65, 0
1, 35039, Note_off_c, 1, 70, 0
1, 35039, Note_off_c, 1, 74, 0
1, 35039, Note_off_c, 1, 58, 0
1, 35039, Note_off_c, 1, 50, 0
1, 35040, Note_on_c, 1, 72, 127
1, 35040, Note_on_c, 1, 65, 127
1, 35040, Note_on_c, 1, 75, 127
1, 35040, Note_on_c, 1, 63, 127
1, 35040, Note_on_c, 1, 57, 127
1, 35040, Note_on_c, 1, 60, 127
1, 35040, Note_on_c, 1, 48, 127
1, 35099, Note_off_c, 1, 72, 0
1, 35099, Note_off_c, 1, 65, 0
1, 35099, Note_off_c, 1, 75, 0
1, 35099, Note_off_c, 1, 63, 0
1, 35099, Note_off_c, 1, 57, 0
1, 35099, Note_off_c, 1, 60, 0
1, 35099, Note_off_c, 1, 48, 0
1, 35100, Note_on_c, 1, 74, 127
1, 35100, Note_on_c, 1, 65, 127
1, 35100, Note_on_c, 1, 77, 127
1, 35100, Note_on_c, 1, 70, 127
1, 35100, Note_on_c, 1, 53, 127
1, 35100, Note_on_c, 1, 62, 127
1, 35100, Note_on_c, 1, 46, 127
1, 35159, Note_off_c, 1, 74, 0
1, 35159, Note_off_c, 1, 65, 0
1, 35159, Note_off_c, 1, 77, 0
1, 35159, Note_off_c, 1, 70, 0
1, 35159, Note_off_c, 1, 53, 0
1, 35159, Note_off_c, 1, 62, 0
1, 35159, Note_off_c, 1, 46, 0
1, 35160, Note_on_c, 1, 72, 127
1, 35160, Note_on_c, 1, 69, 127
1, 35160, Note_on_c, 1, 75, 127
1, 35160, Note_on_c, 1, 65, 127
1, 35160, Note_on_c, 1, 60, 127
1, 35160, Note_on_c, 1, 53, 127
1, 35189, Note_off_c, 1, 72, 0
1, 35189, Note_off_c, 1, 75, 0
1, 35189, Note_off_c, 1, 60, 0
1, 35190, Note_on_c, 1, 74, 127
1, 35190, Note_on_c, 1, 77, 127
1, 35190, Note_on_c, 1, 62, 127
1, 35219, Note_off_c, 1, 69, 0
1, 35219, Note_off_c, 1, 65, 0
1, 35219, Note_off_c, 1, 53, 0
1, 35219, Note_off_c, 1, 74, 0
1, 35219, Note_off_c, 1, 77, 0
1, 35219, Note_off_c, 1, 62, 0
1, 35220, Note_on_c, 1, 70, 127
1, 35220, Note_on_c, 1, 74, 127
1, 35220, Note_on_c, 1, 65, 127
1, 35220, Note_on_c, 1, 58, 127
1, 35279, Note_off_c, 1, 70, 0
1, 35279, Note_off_c, 1, 74, 0
1, 35279, Note_off_c, 1, 65, 0
1, 35279, Note_off_c, 1, 58, 0
1, 35280, Note_on_c, 1, 74, 127
1, 35280, Note_on_c, 1, 65, 127
1, 35280, Note_on_c, 1, 58, 127
1, 35280, Note_on_c, 1, 70, 127
1, 35280, Note_on_c, 1, 46, 127
1, 35327, Note_off_c, 1, 46, 0
1, 35339, Note_off_c, 1, 58, 0
1, 35340, Note_on_c, 1, 62, 127
1, 35340, Note_on_c, 1, 45, 127
1, 35370, Note_on_c, 1, 75, 127
1, 35370, Note_on_c, 1, 72, 127
1, 35387, Note_off_c, 1, 45, 0
1, 35399, Note_off_c, 1, 74, 0
1, 35399, Note_off_c, 1, 65, 0
1, 35399, Note_off_c, 1, 70, 0
1, 35399, Note_off_c, 1, 62, 0
1, 35399, Note_off_c, 1, 75, 0
1, 35399, Note_off_c, 1, 72, 0
1, 35400, Note_on_c, 1, 74, 127
1, 35400, Note_on_c, 1, 70, 127
1, 35400, Note_on_c, 1, 65, 127
1, 35400, Note_on_c, 1, 62, 127
1, 35400, Note_on_c, 1, 57, 127
1, 35430, Note_on_c, 1, 75, 127
1, 35430, Note_on_c, 1, 72, 127
1, 35459, Note_off_c, 1, 70, 0
1, 35459, Note_off_c, 1, 65, 0
1, 35459, Note_off_c, 1, 57, 0
1, 35459, Note_off_c, 1, 75, 0
1, 35459, Note_off_c, 1, 72, 0
1, 35460, Note_on_c, 1, 58, 127
1, 35460, Note_on_c, 1, 64, 127
1, 35460, Note_on_c, 1, 55, 127
1, 35460, Note_on_c, 1, 43, 127
1, 35489, Note_off_c, 1, 55, 0
1, 35489, Note_off_c, 1, 43, 0
1, 35490, Note_on_c, 1, 53, 127
1, 35490, Note_on_c, 1, 41, 127
1, 35519, Note_off_c, 1, 62, 0
1, 35519, Note_off_c, 1, 53, 0
1, 35519, Note_off_c, 1, 41, 0
1, 35520, Note_on_c, 1, 76, 127
1, 35550, Note_on_c, 1, 67, 127
1, 35579, Note_off_c, 1, 74, 0
1, 35579, Note_off_c, 1, 58, 0
1, 35579, Note_off_c, 1, 76, 0
1, 35579, Note_off_c, 1, 67, 0
1, 35580, Note_on_c, 1, 79, 127
1, 35580, Note_on_c, 1, 52, 127
1, 35580, Note_on_c, 1, 40, 127
1, 35639, Note_off_c, 1, 79, 0
1, 35639, Note_off_c, 1, 52, 0
1, 35639, Note_off_c, 1, 40, 0
1, 35640, Note_on_c, 1, 69, 127
1, 35640, Note_on_c, 1, 45, 127
1, 35687, Note_off_c, 1, 45, 0
1, 35700, Note_on_c, 1, 60, 127
1, 35759, Note_off_c, 1, 64, 0
1, 35759, Note_off_c, 1, 60, 0
1, 35820, Note_on_c, 1, 54, 127
1, 35820, Note_on_c, 1, 42, 127
1, 35849, Note_off_c, 1, 54, 0
1, 35849, Note_off_c, 1, 42, 0
1, 35910, Note_on_c, 1, 66, 127
1, 35939, Note_off_c, 1, 66, 0
1, 35940, Note_on_c, 1, 78, 127
1, 35940, Note_on_c, 1, 50, 127
1, 35940, Note_on_c, 1, 38, 127
1, 35999, Note_off_c, 1, 69, 0
1, 35999, Note_off_c, 1, 78, 0
1, 35999, Note_off_c, 1, 50, 0
1, 35999, Note_off_c, 1, 38, 0
1, 36300, Note_on_c, 1, 48, 127
1, 36300, Note_on_c, 1, 36, 127
1, 36359, Note_off_c, 1, 48, 0
1, 36359, Note_off_c, 1, 36, 0
1, 36360, Note_on_c, 1, 77, 127
1, 36389, Note_off_c, 1, 77, 0
1, 36420, Note_on_c, 1, 81, 127
1, 36479, Note_off_c, 1, 81, 0
1, 36480, Note_on_c, 1, 70, 127
1, 36480, Note_on_c, 1, 67, 127
1, 36480, Note_on_c, 1, 79, 127
1, 36480, Note_on_c, 1, 74, 127
1, 36480, Note_on_c, 1, 60, 127
1, 36480, Note_on_c, 1, 62, 127
1, 36480, Note_on_c, 1, 46, 127
1, 36539, Note_off_c, 1, 70, 0
1, 36539, Note_off_c, 1, 67, 0
1, 36539, Note_off_c, 1, 79, 0
1, 36539, Note_off_c, 1, 74, 0
1, 36539, Note_off_c, 1, 60, 0
1, 36539, Note_off_c, 1, 62, 0
1, 36539, Note_off_c, 1, 46, 0
1, 36540, Note_on_c, 1, 69, 127
1, 36540, Note_on_c, 1, 60, 127
1, 36540, Note_on_c, 1, 76, 127
1, 36540, Note_on_c, 1, 72, 127
1, 36540, Note_on_c, 1, 53, 127
1, 36540, Note_on_c, 1, 67, 127
1, 36540, Note_on_c, 1, 48, 127
1, 36600, Note_on_c, 1, 74, 127
1, 36600, Note_on_c, 1, 50, 127
1, 36629, Note_off_c, 1, 74, 0
1, 36659, Note_off_c, 1, 69, 0
1, 36659, Note_off_c, 1, 60, 0
1, 36659, Note_off_c, 1, 76, 0
1, 36659, Note_off_c, 1, 72, 0
1, 36659, Note_off_c, 1, 53, 0
1, 36659, Note_off_c, 1, 67, 0
1, 36659, Note_off_c, 1, 48, 0
1, 36659, Note_off_c, 1, 50, 0
1, 36660, Note_on_c, 1, 72, 127
1, 36660, Note_on_c, 1, 67, 127
1, 36660, Note_on_c, 1, 60, 127
1, 36660, Note_on_c, 1, 52, 127
1, 36689, Note_off_c, 1, 72, 0
1, 36690, Note_on_c, 1, 70, 127
1, 36719, Note_off_c, 1, 67, 0
1, 36719, Note_off_c, 1, 60, 0
1, 36719, Note_off_c, 1, 52, 0
1, 36719, Note_off_c, 1, 70, 0
1, 36720, Note_on_c, 1, 69, 127
1, 36720, Note_on_c, 1, 65, 127
1, 36720, Note_on_c, 1, 60, 127
1, 36720, Note_on_c, 1, 53, 127
1, 36779, Note_off_c, 1, 53, 0
1, 36780, Note_on_c, 1, 52, 127
1, 36839, Note_off_c, 1, 69, 0
1, 36839, Note_off_c, 1, 65, 0
1, 36839, Note_off_c, 1, 60, 0
1, 36839, Note_off_c, 1, 52, 0
1, 36840, Note_on_c, 1, 70, 127
1, 36840, Note_on_c, 1, 65, 127
1, 36840, Note_on_c, 1, 62, 127
1, 36840, Note_on_c, 1, 50, 127
1, 36899, Note_off_c, 1, 70, 0
1, 36899, Note_off_c, 1, 65, 0
1, 36899, Note_off_c, 1, 62, 0
1, 36899, Note_off_c, 1, 50, 0
1, 36900, Note_on_c, 1, 67, 127
1, 36900, Note_on_c, 1, 64, 127
1, 36900, Note_on_c, 1, 62, 127
1, 36900, Note_on_c, 1, 52, 127
1, 36959, Note_off_c, 1, 62, 0
1, 36959, Note_off_c, 1, 52, 0
1, 36960, Note_on_c, 1, 61, 127
1, 36960, Note_on_c, 1, 45, 127
1, 37019, Note_off_c, 1, 67, 0
1, 37019, Note_off_c, 1, 64, 0
1, 37019, Note_off_c, 1, 61, 0
1, 37019, Note_off_c, 1, 45, 0
1, 37020, Note_on_c, 1, 65, 127
1, 37020, Note_on_c, 1, 62, 127
1, 37020, Note_on_c, 1, 57, 127
1, 37020, Note_on_c, 1, 50, 127
1, 37020, Note_on_c, 1, 38, 127
1, 37079, Note_off_c, 1, 65, 0
1, 37079, Note_off_c, 1, 62, 0
1, 37079, Note_off_c, 1, 57, 0
1, 37079, Note_off_c, 1, 50, 0
1, 37079, Note_off_c, 1, 38, 0
1, 37080, Note_on_c, 1, 69, 127
1, 37080, Note_on_c, 1, 65, 127
1, 37080, Note_on_c, 1, 62, 127
1, 37080, Note_on_c, 1, 50, 127
1, 37139, Note_off_c, 1, 69, 0
1, 37139, Note_off_c, 1, 65, 0
1, 37140, Note_on_c, 1, 70, 127
1, 37140, Note_on_c, 1, 67, 127
1, 37140, Note_on_c, 1, 63, 127
1, 37199, Note_off_c, 1, 62, 0
1, 37199, Note_off_c, 1, 50, 0
1, 37199, Note_off_c, 1, 70, 0
1, 37199, Note_off_c, 1, 67, 0
1, 37199, Note_off_c, 1, 63, 0
1, 37200, Note_on_c, 1, 72, 127
1, 37200, Note_on_c, 1, 69, 127
1, 37200, Note_on_c, 1, 63, 127
1, 37200, Note_on_c, 1, 60, 127
1, 37200, Note_on_c, 1, 48, 127
1, 37259, Note_off_c, 1, 72, 0
1, 37259, Note_off_c, 1, 69, 0
1, 37259, Note_off_c, 1, 63, 0
1, 37259, Note_off_c, 1, 60, 0
1, 37259, Note_off_c, 1, 48, 0
1, 37260, Note_on_c, 1, 74, 127
1, 37260, Note_on_c, 1, 70, 127
1, 37260, Note_on_c, 1, 65, 127
1, 37260, Note_on_c, 1, 58, 127
1, 37260, Note_on_c, 1, 46, 127
1, 37289, Note_off_c, 1, 74, 0
1, 37289, Note_off_c, 1, 70, 0
1, 37289, Note_off_c, 1, 65, 0
1, 37289, Note_off_c, 1, 58, 0
1, 37307, Note_off_c, 1, 46, 0
1, 37320, Note_on_c, 1, 72, 127
1, 37320, Note_on_c, 1, 69, 127
1, 37320, Note_on_c, 1, 65, 127
1, 37320, Note_on_c, 1, 53, 127
1, 37349, Note_off_c, 1, 72, 0
1, 37349, Note_off_c, 1, 69, 0
1, 37349, Note_off_c, 1, 65, 0
1, 37367, Note_off_c, 1, 53, 0
1, 37440, Note_on_c, 1, 77, 127
1, 37440, Note_on_c, 1, 74, 127
1, 37440, Note_on_c, 1, 70, 127
1, 37440, Note_on_c, 1, 65, 127
1, 37440, Note_on_c, 1, 58, 127
1, 37470, Note_off_c, 1, 77, 0
1, 37470, Note_off_c, 1, 70, 0
1, 37499, Note_off_c, 1, 74, 0
1, 37499, Note_off_c, 1, 58, 0
1, 37500, Note_on_c, 1, 75, 127
1, 37500, Note_on_c, 1, 60, 127
1, 37559, Note_off_c, 1, 65, 0
1, 37559, Note_off_c, 1, 75, 0
1, 37559, Note_off_c, 1, 60, 0
1, 37560, Note_on_c, 1, 77, 127
1, 37560, Note_on_c, 1, 65, 127
1, 37560, Note_on_c, 1, 62, 127
1, 37619, Note_off_c, 1, 77, 0
1, 37619, Note_off_c, 1, 65, 0
1, 37619, Note_off_c, 1, 62, 0
1, 37620, Note_on_c, 1, 77, 127
1, 37620, Note_on_c, 1, 62, 127
1, 37620, Note_on_c, 1, 65, 127
1, 37620, Note_on_c, 1, 46, 127
1, 37650, Note_on_c, 1, 45, 127
1, 37679, Note_off_c, 1, 77, 0
1, 37679, Note_off_c, 1, 62, 0
1, 37679, Note_off_c, 1, 45, 0
1, 37680, Note_on_c, 1, 75, 127
1, 37680, Note_on_c, 1, 60, 127
1, 37710, Note_on_c, 1, 48, 127
1, 37739, Note_off_c, 1, 46, 0
1, 37739, Note_off_c, 1, 75, 0
1, 37739, Note_off_c, 1, 60, 0
1, 37739, Note_off_c, 1, 48, 0
1, 37740, Note_on_c, 1, 74, 127
1, 37740, Note_on_c, 1, 58, 127
1, 37740, Note_on_c, 1, 50, 127
1, 37770, Note_on_c, 1, 51, 127
1, 37799, Note_off_c, 1, 74, 0
1, 37799, Note_off_c, 1, 58, 0
1, 37799, Note_off_c, 1, 50, 0
1, 37799, Note_off_c, 1, 51, 0
1, 37800, Note_on_c, 1, 72, 127
1, 37800, Note_on_c, 1, 69, 127
1, 37800, Note_on_c, 1, 57, 127
1, 37800, Note_on_c, 1, 53, 127
1, 37830, Note_off_c, 1, 69, 0
1, 37859, Note_off_c, 1, 72, 0
1, 37859, Note_off_c, 1, 57, 0
1, 37860, Note_on_c, 1, 41, 127
1, 37919, Note_off_c, 1, 53, 0
1, 37919, Note_off_c, 1, 41, 0
1, 38010, Note_on_c, 1, 52, 127
1, 38039, Note_off_c, 1, 52, 0
1, 38070, Note_on_c, 1, 55, 127
1, 38099, Note_off_c, 1, 55, 0
1, 38160, Note_on_c, 1, 70, 127
1, 38219, Note_off_c, 1, 70, 0
1, 38220, Note_on_c, 1, 63, 127
1, 38279, Note_off_c, 1, 63, 0
1, 38760, Note_on_c, 1, 67, 127
1, 38819, Note_off_c, 1, 67, 0
1, 38879, Note_off_c, 1, 65, 0
1, 38880, Note_on_c, 1, 74, 127
1, 38880, Note_on_c, 1, 65, 127
1, 38880, Note_on_c, 1, 70, 127
1, 38880, Note_on_c, 1, 58, 127
1, 38999, Note_off_c, 1, 74, 0
1, 38999, Note_off_c, 1, 65, 0
1, 38999, Note_off_c, 1, 70, 0
1, 39000, Note_on_c, 1, 75, 127
1, 39000, Note_on_c, 1, 67, 127
1, 39000, Note_on_c, 1, 55, 127
1, 39059, Note_off_c, 1, 75, 0
1, 39059, Note_off_c, 1, 55, 0
1, 39060, Note_on_c, 1, 72, 127
1, 39060, Note_on_c, 1, 63, 127
1, 39119, Note_off_c, 1, 58, 0
1, 39119, Note_off_c, 1, 67, 0
1, 39119, Note_off_c, 1, 63, 0
1, 39120, Note_on_c, 1, 66, 127
1, 39120, Note_on_c, 1, 60, 127
1, 39120, Note_on_c, 1, 57, 127
1, 39179, Note_off_c, 1, 72, 0
1, 39179, Note_off_c, 1, 66, 0
1, 39179, Note_off_c, 1, 60, 0
1, 39179, Note_off_c, 1, 57, 0
1, 39180, Note_on_c, 1, 70, 127
1, 39180, Note_on_c, 1, 67, 127
1, 39180, Note_on_c, 1, 62, 127
1, 39180, Note_on_c, 1, 55, 127
1, 39239, Note_off_c, 1, 67, 0
1, 39239, Note_off_c, 1, 62, 0
1, 39240, Note_on_c, 1, 74, 127
1, 39240, Note_on_c, 1, 58, 127
1, 39270, Note_on_c, 1, 69, 127
1, 39270, Note_on_c, 1, 53, 127
1, 39299, Note_off_c, 1, 74, 0
1, 39299, Note_off_c, 1, 69, 0
1, 39299, Note_off_c, 1, 53, 0
1, 39300, Note_on_c, 1, 76, 127
1, 39330, Note_on_c, 1, 72, 127
1, 39330, Note_on_c, 1, 57, 127
1, 39359, Note_off_c, 1, 70, 0
1, 39359, Note_off_c, 1, 55, 0
1, 39359, Note_off_c, 1, 58, 0
1, 39359, Note_off_c, 1, 76, 0
1, 39359, Note_off_c, 1, 72, 0
1, 39359, Note_off_c, 1, 57, 0
1, 39360, Note_on_c, 1, 70, 127
1, 39360, Note_on_c, 1, 77, 127
1, 39360, Note_on_c, 1, 62, 127
1, 39360, Note_on_c, 1, 53, 127
1, 39360, Note_on_c, 1, 55, 127
1, 39389, Note_off_c, 1, 55, 0
1, 39390, Note_on_c, 1, 69, 127
1, 39419, Note_off_c, 1, 70, 0
1, 39419, Note_off_c, 1, 77, 0
1, 39419, Note_off_c, 1, 62, 0
1, 39419, Note_off_c, 1, 53, 0
1, 39419, Note_off_c, 1, 69, 0
1, 39420, Note_on_c, 1, 67, 127
1, 39420, Note_on_c, 1, 79, 127
1, 39420, Note_on_c, 1, 70, 127
1, 39420, Note_on_c, 1, 60, 127
1, 39420, Note_on_c, 1, 52, 127
1, 39449, Note_off_c, 1, 67, 0
1, 39449, Note_off_c, 1, 79, 0
1, 39449, Note_off_c, 1, 70, 0
1, 39449, Note_off_c, 1, 60, 0
1, 39449, Note_off_c, 1, 52, 0
1, 39450, Note_on_c, 1, 65, 127
1, 39450, Note_on_c, 1, 50, 127
1, 39479, Note_off_c, 1, 65, 0
1, 39479, Note_off_c, 1, 50, 0
1, 39480, Note_on_c, 1, 67, 127
1, 39480, Note_on_c, 1, 70, 127
1, 39480, Note_on_c, 1, 64, 127
1, 39480, Note_on_c, 1, 60, 127
1, 39480, Note_on_c, 1, 52, 127
1, 39509, Note_off_c, 1, 67, 0
1, 39509, Note_off_c, 1, 70, 0
1, 39509, Note_off_c, 1, 64, 0
1, 39509, Note_off_c, 1, 60, 0
1, 39509, Note_off_c, 1, 52, 0
1, 39510, Note_on_c, 1, 72, 127
1, 39510, Note_on_c, 1, 48, 127
1, 39539, Note_off_c, 1, 72, 0
1, 39539, Note_off_c, 1, 48, 0
1, 39540, Note_on_c, 1, 70, 127
1, 39540, Note_on_c, 1, 50, 127
1, 39569, Note_off_c, 1, 70, 0
1, 39569, Note_off_c, 1, 50, 0
1, 39570, Note_on_c, 1, 72, 127
1, 39570, Note_on_c, 1, 52, 127
1, 39599, Note_off_c, 1, 72, 0
1, 39599, Note_off_c, 1, 52, 0
1, 39600, Note_on_c, 1, 69, 127
1, 39600, Note_on_c, 1, 65, 127
1, 39600, Note_on_c, 1, 60, 127
1, 39600, Note_on_c, 1, 53, 127
1, 39659, Note_off_c, 1, 69, 0
1, 39659, Note_off_c, 1, 60, 0
1, 39659, Note_off_c, 1, 53, 0
1, 39660, Note_on_c, 1, 74, 127
1, 39660, Note_on_c, 1, 58, 127
1, 39660, Note_on_c, 1, 46, 127
1, 39719, Note_off_c, 1, 65, 0
1, 39719, Note_off_c, 1, 74, 0
1, 39719, Note_off_c, 1, 58, 0
1, 39719, Note_off_c, 1, 46, 0
1, 39720, Note_on_c, 1, 72, 127
1, 39720, Note_on_c, 1, 65, 127
1, 39720, Note_on_c, 1, 60, 127
1, 39720, Note_on_c, 1, 57, 127
1, 39720, Note_on_c, 1, 45, 127
1, 39779, Note_off_c, 1, 72, 0
1, 39779, Note_off_c, 1, 65, 0
1, 39779, Note_off_c, 1, 60, 0
1, 39779, Note_off_c, 1, 57, 0
1, 39779, Note_off_c, 1, 45, 0
1, 39780, Note_on_c, 1, 76, 127
1, 39780, Note_on_c, 1, 67, 127
1, 39780, Note_on_c, 1, 58, 127
1, 39780, Note_on_c, 1, 55, 127
1, 39780, Note_on_c, 1, 43, 127
1, 39839, Note_off_c, 1, 76, 0
1, 39839, Note_off_c, 1, 67, 0
1, 39839, Note_off_c, 1, 58, 0
1, 39839, Note_off_c, 1, 55, 0
1, 39839, Note_off_c, 1, 43, 0
1, 39840, Note_on_c, 1, 77, 127
1, 39840, Note_on_c, 1, 60, 127
1, 39840, Note_on_c, 1, 69, 127
1, 39840, Note_on_c, 1, 65, 127
1, 39840, Note_on_c, 1, 57, 127
1, 39840, Note_on_c, 1, 45, 127
1, 39899, Note_off_c, 1, 77, 0
1, 39899, Note_off_c, 1, 60, 0
1, 39899, Note_off_c, 1, 69, 0
1, 39899, Note_off_c, 1, 65, 0
1, 39899, Note_off_c, 1, 57, 0
1, 39899, Note_off_c, 1, 45, 0
1, 39900, Note_on_c, 1, 65, 127
1, 39900, Note_on_c, 1, 57, 127
1, 39900, Note_on_c, 1, 69, 127
1, 39900, Note_on_c, 1, 50, 127
1, 39959, Note_off_c, 1, 65, 0
1, 39959, Note_off_c, 1, 57, 0
1, 39959, Note_off_c, 1, 69, 0
1, 39959, Note_off_c, 1, 50, 0
1, 39960, Note_on_c, 1, 70, 127
1, 39960, Note_on_c, 1, 65, 127
1, 39960, Note_on_c, 1, 62, 127
1, 39960, Note_on_c, 1, 46, 127
1, 39990, Note_on_c, 1, 64, 127
1, 40019, Note_off_c, 1, 70, 0
1, 40019, Note_off_c, 1, 65, 0
1, 40019, Note_off_c, 1, 62, 0
1, 40019, Note_off_c, 1, 46, 0
1, 40019, Note_off_c, 1, 64, 0
1, 40020, Note_on_c, 1, 67, 127
1, 40020, Note_on_c, 1, 60, 127
1, 40020, Note_on_c, 1, 64, 127
1, 40020, Note_on_c, 1, 48, 127
1, 40050, Note_on_c, 1, 57, 127
1, 40079, Note_off_c, 1, 60, 0
1, 40079, Note_off_c, 1, 57, 0
1, 40080, Note_on_c, 1, 58, 127
1, 40080, Note_on_c, 1, 36, 127
1, 40110, Note_on_c, 1, 65, 127
1, 40139, Note_off_c, 1, 67, 0
1, 40139, Note_off_c, 1, 64, 0
1, 40139, Note_off_c, 1, 48, 0
1, 40139, Note_off_c, 1, 58, 0
1, 40139, Note_off_c, 1, 36, 0
1, 40139, Note_off_c, 1, 65, 0
1, 40140, Note_on_c, 1, 65, 127
1, 40140, Note_on_c, 1, 57, 127
1, 40140, Note_on_c, 1, 60, 127
1, 40140, Note_on_c, 1, 53, 127
1, 40140, Note_on_c, 1, 41, 127
1, 40169, Note_off_c, 1, 41, 0
1, 40170, Note_on_c, 1, 40, 127
1, 40199, Note_off_c, 1, 40, 0
1, 40230, Note_on_c, 1, 43, 127
1, 40259, Note_off_c, 1, 65, 0
1, 40259, Note_off_c, 1, 57, 0
1, 40259, Note_off_c, 1, 60, 0
1, 40259, Note_off_c, 1, 53, 0
1, 40259, Note_off_c, 1, 43, 0
1, 40260, Note_on_c, 1, 45, 127
1, 40289, Note_off_c, 1, 45, 0
1, 40290, Note_on_c, 1, 46, 127
1, 40319, Note_off_c, 1, 46, 0
1, 40320, Note_on_c, 1, 76, 127
1, 40320, Note_on_c, 1, 67, 127
1, 40320, Note_on_c, 1, 60, 127
1, 40320, Note_on_c, 1, 48, 127
1, 40335, Note_off_c, 1, 67, 0
1, 40367, Note_off_c, 1, 60, 0
1, 40379, Note_off_c, 1, 48, 0
1, 40380, Note_on_c, 1, 58, 127
1, 40427, Note_off_c, 1, 58, 0
1, 40439, Note_off_c, 1, 76, 0
1, 40440, Note_on_c, 1, 77, 127
1, 40440, Note_on_c, 1, 69, 127
1, 40440, Note_on_c, 1, 60, 127
1, 40440, Note_on_c, 1, 57, 127
1, 40455, Note_off_c, 1, 69, 0
1, 40470, Note_on_c, 1, 65, 127
1, 40485, Note_off_c, 1, 65, 0
1, 40487, Note_off_c, 1, 60, 0
1, 40487, Note_off_c, 1, 57, 0
1, 40499, Note_off_c, 1, 77, 0
1, 40500, Note_on_c, 1, 70, 127
1, 40500, Note_on_c, 1, 67, 127
1, 40500, Note_on_c, 1, 60, 127
1, 40515, Note_off_c, 1, 67, 0
1, 40547, Note_off_c, 1, 60, 0
1, 40560, Note_on_c, 1, 52, 127
1, 40607, Note_off_c, 1, 52, 0
1, 40619, Note_off_c, 1, 70, 0
1, 40620, Note_on_c, 1, 69, 127
1, 40620, Note_on_c, 1, 65, 127
1, 40620, Note_on_c, 1, 60, 127
1, 40620, Note_on_c, 1, 53, 127
1, 40635, Note_off_c, 1, 65, 0
1, 40667, Note_off_c, 1, 60, 0
1, 40667, Note_off_c, 1, 53, 0
1, 40679, Note_off_c, 1, 69, 0
1, 40680, Note_on_c, 1, 67, 127
1, 40680, Note_on_c, 1, 60, 127
1, 40680, Note_on_c, 1, 76, 127
1, 40680, Note_on_c, 1, 72, 127
1, 40680, Note_on_c, 1, 46, 127
1, 40739, Note_off_c, 1, 67, 0
1, 40739, Note_off_c, 1, 60, 0
1, 40739, Note_off_c, 1, 76, 0
1, 40739, Note_off_c, 1, 46, 0
1, 40740, Note_on_c, 1, 69, 127
1, 40740, Note_on_c, 1, 65, 127
1, 40740, Note_on_c, 1, 77, 127
1, 40740, Note_on_c, 1, 45, 127
1, 40799, Note_off_c, 1, 72, 0
1, 40799, Note_off_c, 1, 69, 0
1, 40799, Note_off_c, 1, 65, 0
1, 40799, Note_off_c, 1, 77, 0
1, 40799, Note_off_c, 1, 45, 0
1, 40800, Note_on_c, 1, 70, 127
1, 40800, Note_on_c, 1, 60, 127
1, 40800, Note_on_c, 1, 79, 127
1, 40800, Note_on_c, 1, 76, 127
1, 40800, Note_on_c, 1, 43, 127
1, 40859, Note_off_c, 1, 70, 0
1, 40859, Note_off_c, 1, 60, 0
1, 40859, Note_off_c, 1, 79, 0
1, 40859, Note_off_c, 1, 76, 0
1, 40859, Note_off_c, 1, 43, 0
1, 40860, Note_on_c, 1, 72, 127
1, 40860, Note_on_c, 1, 57, 127
1, 40860, Note_on_c, 1, 81, 127
1, 40860, Note_on_c, 1, 77, 127
1, 40860, Note_on_c, 1, 41, 127
1, 40890, Note_on_c, 1, 70, 127
1, 40907, Note_off_c, 1, 41, 0
1, 40919, Note_off_c, 1, 72, 0
1, 40919, Note_off_c, 1, 57, 0
1, 40919, Note_off_c, 1, 81, 0
1, 40919, Note_off_c, 1, 77, 0
1, 40919, Note_off_c, 1, 70, 0
1, 40920, Note_on_c, 1, 72, 127
1, 40920, Note_on_c, 1, 60, 127
1, 40920, Note_on_c, 1, 79, 127
1, 40920, Note_on_c, 1, 76, 127
1, 40920, Note_on_c, 1, 70, 127
1, 40920, Note_on_c, 1, 48, 127
1, 40949, Note_off_c, 1, 72, 0
1, 40949, Note_off_c, 1, 79, 0
1, 40950, Note_on_c, 1, 81, 127
1, 40967, Note_off_c, 1, 48, 0
1, 40979, Note_off_c, 1, 60, 0
1, 40979, Note_off_c, 1, 76, 0
1, 40979, Note_off_c, 1, 70, 0
1, 40979, Note_off_c, 1, 81, 0
1, 40980, Note_on_c, 1, 69, 127
1, 40980, Note_on_c, 1, 65, 127
1, 40980, Note_on_c, 1, 77, 127
1, 40980, Note_on_c, 1, 72, 127
1, 40980, Note_on_c, 1, 53, 127
1, 41027, Note_off_c, 1, 53, 0
1, 41039, Note_off_c, 1, 69, 0
1, 41039, Note_off_c, 1, 65, 0
1, 41039, Note_off_c, 1, 77, 0
1, 41039, Note_off_c, 1, 72, 0
1, 41040, Note_on_c, 1, 53, 127
1, 41040, Note_on_c, 1, 81, 127
1, 41040, Note_on_c, 1, 72, 127
1, 41055, Note_off_c, 1, 72, 0
1, 41070, Note_on_c, 1, 65, 127
1, 41085, Note_off_c, 1, 65, 0
1, 41099, Note_off_c, 1, 53, 0
1, 41100, Note_on_c, 1, 51, 127
1, 41147, Note_off_c, 1, 51, 0
1, 41159, Note_off_c, 1, 81, 0
1, 41160, Note_on_c, 1, 53, 127
1, 41160, Note_on_c, 1, 82, 127
1, 41160, Note_on_c, 1, 74, 127
1, 41160, Note_on_c, 1, 50, 127
1, 41175, Note_off_c, 1, 74, 0
1, 41190, Note_on_c, 1, 70, 127
1, 41205, Note_off_c, 1, 70, 0
1, 41207, Note_off_c, 1, 50, 0
1, 41219, Note_off_c, 1, 53, 0
1, 41219, Note_off_c, 1, 82, 0
1, 41220, Note_on_c, 1, 53, 127
1, 41220, Note_on_c, 1, 75, 127
1, 41220, Note_on_c, 1, 72, 127
1, 41235, Note_off_c, 1, 72, 0
1, 41250, Note_on_c, 1, 65, 127
1, 41265, Note_off_c, 1, 65, 0
1, 41279, Note_off_c, 1, 53, 0
1, 41280, Note_on_c, 1, 45, 127
1, 41327, Note_off_c, 1, 45, 0
1, 41339, Note_off_c, 1, 75, 0
1, 41340, Note_on_c, 1, 53, 127
1, 41340, Note_on_c, 1, 74, 127
1, 41340, Note_on_c, 1, 70, 127
1, 41340, Note_on_c, 1, 46, 127
1, 41355, Note_off_c, 1, 70, 0
1, 41370, Note_on_c, 1, 65, 127
1, 41385, Note_off_c, 1, 65, 0
1, 41387, Note_off_c, 1, 46, 0
1, 41399, Note_off_c, 1, 53, 0
1, 41399, Note_off_c, 1, 74, 0
1, 41400, Note_on_c, 1, 69, 127
1, 41400, Note_on_c, 1, 78, 127
1, 41400, Note_on_c, 1, 74, 127
1, 41400, Note_on_c, 1, 60, 127
1, 41459, Note_off_c, 1, 69, 0
1, 41459, Note_off_c, 1, 78, 0
1, 41459, Note_off_c, 1, 60, 0
1, 41460, Note_on_c, 1, 70, 127
1, 41460, Note_on_c, 1, 79, 127
1, 41460, Note_on_c, 1, 58, 127
1, 41519, Note_off_c, 1, 74, 0
1, 41519, Note_off_c, 1, 70, 0
1, 41519, Note_off_c, 1, 79, 0
1, 41519, Note_off_c, 1, 58, 0
1, 41520, Note_on_c, 1, 72, 127
1, 41520, Note_on_c, 1, 81, 127
1, 41520, Note_on_c, 1, 78, 127
1, 41520, Note_on_c, 1, 57, 127
1, 41579, Note_off_c, 1, 72, 0
1, 41579, Note_off_c, 1, 81, 0
1, 41579, Note_off_c, 1, 78, 0
1, 41579, Note_off_c, 1, 57, 0
1, 41580, Note_on_c, 1, 74, 127
1, 41580, Note_on_c, 1, 82, 127
1, 41580, Note_on_c, 1, 79, 127
1, 41580, Note_on_c, 1, 55, 127
1, 41610, Note_on_c, 1, 72, 127
1, 41627, Note_off_c, 1, 55, 0
1, 41639, Note_off_c, 1, 82, 0
1, 41639, Note_off_c, 1, 79, 0
1, 41639, Note_off_c, 1, 72, 0
1, 41640, Note_on_c, 1, 81, 127
1, 41640, Note_on_c, 1, 78, 127
1, 41640, Note_on_c, 1, 50, 127
1, 41669, Note_off_c, 1, 74, 0
1, 41669, Note_off_c, 1, 81, 0
1, 41687, Note_off_c, 1, 50, 0
1, 41699, Note_off_c, 1, 78, 0
1, 41700, Note_on_c, 1, 70, 127
1, 41700, Note_on_c, 1, 79, 127
1, 41700, Note_on_c, 1, 43, 127
1, 41730, Note_on_c, 1, 69, 127
1, 41747, Note_off_c, 1, 43, 0
1, 41759, Note_off_c, 1, 70, 0
1, 41759, Note_off_c, 1, 79, 0
1, 41759, Note_off_c, 1, 69, 0
1, 41760, Note_on_c, 1, 82, 127
1, 41760, Note_on_c, 1, 74, 127
1, 41760, Note_on_c, 1, 67, 127
1, 41760, Note_on_c, 1, 55, 127
1, 41807, Note_off_c, 1, 55, 0
1, 41819, Note_off_c, 1, 82, 0
1, 41819, Note_off_c, 1, 74, 0
1, 41819, Note_off_c, 1, 67, 0
1, 41820, Note_on_c, 1, 69, 127
1, 41820, Note_on_c, 1, 67, 127
1, 41820, Note_on_c, 1, 74, 127
1, 41820, Note_on_c, 1, 79, 127
1, 41820, Note_on_c, 1, 70, 127
1, 41820, Note_on_c, 1, 53, 127
1, 41849, Note_off_c, 1, 69, 0
1, 41849, Note_off_c, 1, 67, 0
1, 41850, Note_off_c, 1, 74, 0
1, 41867, Note_off_c, 1, 53, 0
1, 41879, Note_off_c, 1, 79, 0
1, 41879, Note_off_c, 1, 70, 0
1, 41880, Note_on_c, 1, 69, 127
1, 41880, Note_on_c, 1, 67, 127
1, 41880, Note_on_c, 1, 74, 127
1, 41880, Note_on_c, 1, 70, 127
1, 41909, Note_off_c, 1, 69, 0
1, 41909, Note_off_c, 1, 67, 0
1, 41939, Note_off_c, 1, 74, 0
1, 41940, Note_on_c, 1, 52, 127
1, 41969, Note_off_c, 1, 52, 0
1, 41970, Note_on_c, 1, 50, 127
1, 41999, Note_off_c, 1, 70, 0
1, 41999, Note_off_c, 1, 50, 0
1, 42000, Note_on_c, 1, 72, 127
1, 42029, Note_off_c, 1, 72, 0
1, 42030, Note_on_c, 1, 76, 127
1, 42059, Note_off_c, 1, 76, 0
1, 42060, Note_on_c, 1, 79, 127
1, 42060, Note_on_c, 1, 48, 127
1, 42089, Note_off_c, 1, 79, 0
1, 42090, Note_on_c, 1, 82, 127
1, 42119, Note_off_c, 1, 48, 0
1, 42119, Note_off_c, 1, 82, 0
1, 42120, Note_on_c, 1, 81, 127
1, 42120, Note_on_c, 1, 72, 127
1, 42120, Note_on_c, 1, 65, 127
1, 42120, Note_on_c, 1, 53, 127
1, 42167, Note_off_c, 1, 53, 0
1, 42179, Note_off_c, 1, 81, 0
1, 42179, Note_off_c, 1, 72, 0
1, 42179, Note_off_c, 1, 65, 0
1, 42180, Note_on_c, 1, 67, 127
1, 42180, Note_on_c, 1, 65, 127
1, 42180, Note_on_c, 1, 72, 127
1, 42180, Note_on_c, 1, 77, 127
1, 42180, Note_on_c, 1, 69, 127
1, 42180, Note_on_c, 1, 52, 127
1, 42209, Note_off_c, 1, 67, 0
1, 42209, Note_off_c, 1, 65, 0
1, 42210, Note_off_c, 1, 72, 0
1, 42227, Note_off_c, 1, 52, 0
1, 42239, Note_off_c, 1, 77, 0
1, 42239, Note_off_c, 1, 69, 0
1, 42240, Note_on_c, 1, 67, 127
1, 42240, Note_on_c, 1, 65, 127
1, 42240, Note_on_c, 1, 72, 127
1, 42240, Note_on_c, 1, 69, 127
1, 42269, Note_off_c, 1, 67, 0
1, 42269, Note_off_c, 1, 65, 0
1, 42299, Note_off_c, 1, 72, 0
1, 42300, Note_on_c, 1, 50, 127
1, 42329, Note_off_c, 1, 50, 0
1, 42330, Note_on_c, 1, 48, 127
1, 42359, Note_off_c, 1, 69, 0
1, 42359, Note_off_c, 1, 48, 0
1, 42360, Note_on_c, 1, 70, 127
1, 42389, Note_off_c, 1, 70, 0
1, 42390, Note_on_c, 1, 74, 127
1, 42419, Note_off_c, 1, 74, 0
1, 42420, Note_on_c, 1, 77, 127
1, 42420, Note_on_c, 1, 46, 127
1, 42449, Note_off_c, 1, 77, 0
1, 42450, Note_on_c, 1, 81, 127
1, 42479, Note_off_c, 1, 46, 0
1, 42479, Note_off_c, 1, 81, 0
1, 42480, Note_on_c, 1, 79, 127
1, 42480, Note_on_c, 1, 40, 127
1, 42539, Note_off_c, 1, 79, 0
1, 42539, Note_off_c, 1, 40, 0
1, 42540, Note_on_c, 1, 67, 127
1, 42540, Note_on_c, 1, 60, 127
1, 42540, Note_on_c, 1, 70, 127
1, 42540, Note_on_c, 1, 79, 127
1, 42540, Note_on_c, 1, 52, 127
1, 42569, Note_off_c, 1, 67, 0
1, 42569, Note_off_c, 1, 52, 0
1, 42570, Note_off_c, 1, 70, 0
1, 42570, Note_on_c, 1, 69, 127
1, 42570, Note_on_c, 1, 65, 127
1, 42570, Note_on_c, 1, 50, 127
1, 42599, Note_off_c, 1, 60, 0
1, 42599, Note_off_c, 1, 79, 0
1, 42599, Note_off_c, 1, 69, 0
1, 42599, Note_off_c, 1, 65, 0
1, 42599, Note_off_c, 1, 50, 0
1, 42600, Note_on_c, 1, 67, 127
1, 42600, Note_on_c, 1, 60, 127
1, 42600, Note_on_c, 1, 70, 127
1, 42600, Note_on_c, 1, 52, 127
1, 42629, Note_off_c, 1, 52, 0
1, 42630, Note_off_c, 1, 70, 0
1, 42630, Note_on_c, 1, 69, 127
1, 42630, Note_on_c, 1, 64, 127
1, 42630, Note_on_c, 1, 48, 127
1, 42659, Note_off_c, 1, 60, 0
1, 42659, Note_off_c, 1, 69, 0
1, 42659, Note_off_c, 1, 64, 0
1, 42659, Note_off_c, 1, 48, 0
1, 42660, Note_on_c, 1, 53, 127
1, 42719, Note_off_c, 1, 67, 0
1, 42719, Note_off_c, 1, 53, 0
1, 42720, Note_on_c, 1, 65, 127
1, 42720, Note_on_c, 1, 72, 127
1, 42720, Note_on_c, 1, 69, 127
1, 42720, Note_on_c, 1, 41, 127
1, 42749, Note_off_c, 1, 65, 0
1, 42749, Note_off_c, 1, 69, 0
1, 42749, Note_off_c, 1, 41, 0
1, 42750, Note_on_c, 1, 67, 127
1, 42750, Note_on_c, 1, 74, 127
1, 42750, Note_on_c, 1, 70, 127
1, 42750, Note_on_c, 1, 40, 127
1, 42779, Note_off_c, 1, 72, 0
1, 42779, Note_off_c, 1, 67, 0
1, 42779, Note_off_c, 1, 74, 0
1, 42779, Note_off_c, 1, 70, 0
1, 42779, Note_off_c, 1, 40, 0
1, 42780, Note_on_c, 1, 69, 127
1, 42780, Note_on_c, 1, 72, 127
1, 42780, Note_on_c, 1, 41, 127
1, 42809, Note_off_c, 1, 69, 0
1, 42809, Note_off_c, 1, 72, 0
1, 42809, Note_off_c, 1, 41, 0
1, 42810, Note_on_c, 1, 70, 127
1, 42810, Note_on_c, 1, 43, 127
1, 42839, Note_off_c, 1, 70, 0
1, 42839, Note_off_c, 1, 43, 0
1, 42840, Note_on_c, 1, 72, 127
1, 42840, Note_on_c, 1, 69, 127
1, 42840, Note_on_c, 1, 45, 127
1, 42899, Note_off_c, 1, 72, 0
1, 42899, Note_off_c, 1, 69, 0
1, 42899, Note_off_c, 1, 45, 0
1, 42900, Note_on_c, 1, 70, 127
1, 42900, Note_on_c, 1, 65, 127
1, 42900, Note_on_c, 1, 62, 127
1, 42900, Note_on_c, 1, 46, 127
1, 42929, Note_off_c, 1, 70, 0
1, 42929, Note_off_c, 1, 62, 0
1, 42930, Note_on_c, 1, 69, 127
1, 42959, Note_off_c, 1, 65, 0
1, 42959, Note_off_c, 1, 46, 0
1, 42959, Note_off_c, 1, 69, 0
1, 42960, Note_on_c, 1, 67, 127
1, 42960, Note_on_c, 1, 60, 127
1, 42960, Note_on_c, 1, 64, 127
1, 42960, Note_on_c, 1, 55, 127
1, 42960, Note_on_c, 1, 48, 127
1, 42989, Note_off_c, 1, 67, 0
1, 42989, Note_off_c, 1, 64, 0
1, 42989, Note_off_c, 1, 55, 0
1, 42990, Note_on_c, 1, 65, 127
1, 43019, Note_off_c, 1, 60, 0
1, 43019, Note_off_c, 1, 48, 0
1, 43019, Note_off_c, 1, 65, 0
1, 43020, Note_on_c, 1, 65, 127
1, 43020, Note_on_c, 1, 57, 127
1, 43020, Note_on_c, 1, 60, 127
1, 43020, Note_on_c, 1, 41, 127
1, 43199, Note_off_c, 1, 65, 0
1, 43199, Note_off_c, 1, 57, 0
1, 43199, Note_off_c, 1, 60, 0
1, 43199, Note_off_c, 1, 41, 0
1, 43380, Note_on_c, 1, 67, 127
1, 43380, Note_on_c, 1, 64, 127
1, 43380, Note_on_c, 1, 60, 127
1, 43380, Note_on_c, 1, 48, 127
1, 43740, Note_on_c, 1, 72, 127
1, 43799, Note_off_c, 1, 72, 0
1, 43800, Note_on_c, 1, 74, 127
1, 43829, Note_off_c, 1, 74, 0
1, 43830, Note_on_c, 1, 76, 127
1, 43859, Note_off_c, 1, 67, 0
1, 43859, Note_off_c, 1, 64, 0
1, 43859, Note_off_c, 1, 60, 0
1, 43859, Note_off_c, 1, 76, 0
1, 43860, Note_on_c, 1, 71, 127
1, 43860, Note_on_c, 1, 62, 127
1, 43860, Note_on_c, 1, 65, 127
1, 43860, Note_on_c, 1, 70, 127
1, 43919, Note_off_c, 1, 71, 0
1, 44099, Note_off_c, 1, 48, 0
1, 44099, Note_off_c, 1, 62, 0
1, 44099, Note_off_c, 1, 65, 0
1, 44099, Note_off_c, 1, 70, 0
1, 44100, Note_on_c, 1, 74, 127
1, 44100, Note_on_c, 1, 67, 127
1, 44100, Note_on_c, 1, 65, 127
1, 44100, Note_on_c, 1, 62, 127
1, 44100, Note_on_c, 1, 47, 127
1, 44159, Note_off_c, 1, 74, 0
1, 44220, Note_on_c, 1, 71, 127
1, 44279, Note_off_c, 1, 71, 0
1, 44339, Note_off_c, 1, 67, 0
1, 44339, Note_off_c, 1, 65, 0
1, 44339, Note_off_c, 1, 62, 0
1, 44339, Note_off_c, 1, 47, 0
1, 44340, Note_on_c, 1, 76, 127
1, 44340, Note_on_c, 1, 67, 127
1, 44340, Note_on_c, 1, 64, 127
1, 44340, Note_on_c, 1, 60, 127
1, 44340, Note_on_c, 1, 48, 127
1, 44399, Note_off_c, 1, 76, 0
1, 44520, Note_on_c, 1, 72, 127
1, 44579, Note_off_c, 1, 72, 0
1, 44640, Note_on_c, 1, 77, 127
1, 44699, Note_off_c, 1, 67, 0
1, 44699, Note_off_c, 1, 64, 0
1, 44699, Note_off_c, 1, 60, 0
1, 44699, Note_off_c, 1, 48, 0
1, 44699, Note_off_c, 1, 77, 0
1, 44700, Note_on_c, 1, 79, 127
1, 44700, Note_on_c, 1, 64, 127
1, 44700, Note_on_c, 1, 67, 127
1, 44700, Note_on_c, 1, 52, 127
1, 44759, Note_off_c, 1, 79, 0
1, 44790, Note_on_c, 1, 76, 127
1, 44819, Note_off_c, 1, 76, 0
1, 44820, Note_on_c, 1, 72, 127
1, 44879, Note_off_c, 1, 72, 0
1, 44939, Note_off_c, 1, 64, 0
1, 44939, Note_off_c, 1, 67, 0
1, 44939, Note_off_c, 1, 52, 0
1, 44940, Note_on_c, 1, 81, 127
1, 44940, Note_on_c, 1, 69, 127
1, 44940, Note_on_c, 1, 65, 127
1, 44940, Note_on_c, 1, 60, 127
1, 44940, Note_on_c, 1, 53, 127
1, 44999, Note_off_c, 1, 81, 0
1, 45299, Note_off_c, 1, 69, 0
1, 45299, Note_off_c, 1, 65, 0
1, 45299, Note_off_c, 1, 60, 0
1, 45299, Note_off_c, 1, 53, 0
1, 45300, Note_on_c, 1, 76, 127
1, 45300, Note_on_c, 1, 69, 127
1, 45300, Note_on_c, 1, 64, 127
1, 45300, Note_on_c, 1, 61, 127
1, 45300, Note_on_c, 1, 49, 127
1, 45359, Note_off_c, 1, 76, 0
1, 45419, Note_off_c, 1, 69, 0
1, 45420, Note_on_c, 1, 67, 127
1, 45480, Note_on_c, 1, 79, 127
1, 45509, Note_off_c, 1, 79, 0
1, 45510, Note_on_c, 1, 77, 127
1, 45539, Note_off_c, 1, 64, 0
1, 45539, Note_off_c, 1, 61, 0
1, 45539, Note_off_c, 1, 49, 0
1, 45539, Note_off_c, 1, 67, 0
1, 45539, Note_off_c, 1, 77, 0
1, 45540, Note_on_c, 1, 77, 127
1, 45540, Note_on_c, 1, 65, 127
1, 45540, Note_on_c, 1, 62, 127
1, 45540, Note_on_c, 1, 57, 127
1, 45540, Note_on_c, 1, 50, 127
1, 45599, Note_off_c, 1, 77, 0
1, 45750, Note_on_c, 1, 74, 127
1, 45779, Note_off_c, 1, 65, 0
1, 45779, Note_off_c, 1, 62, 0
1, 45779, Note_off_c, 1, 57, 0
1, 45779, Note_off_c, 1, 50, 0
1, 45779, Note_off_c, 1, 74, 0
1, 45780, Note_on_c, 1, 71, 127
1, 45780, Note_on_c, 1, 65, 127
1, 45780, Note_on_c, 1, 68, 127
1, 45780, Note_on_c, 1, 44, 127
1, 45870, Note_on_c, 1, 72, 127
1, 45899, Note_off_c, 1, 65, 0
1, 45899, Note_off_c, 1, 72, 0
1, 45900, Note_on_c, 1, 74, 127
1, 45900, Note_on_c, 1, 64, 127
1, 45959, Note_off_c, 1, 74, 0
1, 46019, Note_off_c, 1, 71, 0
1, 46019, Note_off_c, 1, 68, 0
1, 46019, Note_off_c, 1, 44, 0
1, 46019, Note_off_c, 1, 64, 0
1, 46020, Note_on_c, 1, 76, 127
1, 46020, Note_on_c, 1, 69, 127
1, 46020, Note_on_c, 1, 64, 127
1, 46020, Note_on_c, 1, 60, 127
1, 46020, Note_on_c, 1, 48, 127
1, 46079, Note_off_c, 1, 76, 0
1, 46139, Note_off_c, 1, 69, 0
1, 46139, Note_off_c, 1, 64, 0
1, 46139, Note_off_c, 1, 60, 0
1, 46139, Note_off_c, 1, 48, 0
1, 46140, Note_on_c, 1, 74, 127
1, 46140, Note_on_c, 1, 69, 127
1, 46140, Note_on_c, 1, 65, 127
1, 46140, Note_on_c, 1, 62, 127
1, 46140, Note_on_c, 1, 41, 127
1, 46199, Note_off_c, 1, 74, 0
1, 46200, Note_on_c, 1, 72, 127
1, 46259, Note_off_c, 1, 69, 0
1, 46259, Note_off_c, 1, 65, 0
1, 46259, Note_off_c, 1, 62, 0
1, 46259, Note_off_c, 1, 41, 0
1, 46259, Note_off_c, 1, 72, 0
1, 46260, Note_on_c, 1, 71, 127
1, 46319, Note_off_c, 1, 71, 0
1, 46320, Note_on_c, 1, 69, 127
1, 46379, Note_off_c, 1, 69, 0
1, 46380, Note_on_c, 1, 64, 127
1, 46380, Note_on_c, 1, 62, 127
1, 46380, Note_on_c, 1, 68, 127
1, 46380, Note_on_c, 1, 40, 127
1, 46499, Note_off_c, 1, 64, 0
1, 46499, Note_off_c, 1, 62, 0
1, 46499, Note_off_c, 1, 68, 0
1, 46499, Note_off_c, 1, 40, 0
1, 46500, Note_on_c, 1, 69, 127
1, 46500, Note_on_c, 1, 64, 127
1, 46500, Note_on_c, 1, 60, 127
1, 46500, Note_on_c, 1, 45, 127
1, 46620, Note_off_c, 1, 69, 0
1, 46620, Note_off_c, 1, 64, 0
1, 46620, Note_off_c, 1, 60, 0
1, 46620, Note_off_c, 1, 45, 0
1, 46740, Note_on_c, 1, 77, 127
1, 46740, Note_on_c, 1, 74, 127
1, 46740, Note_on_c, 1, 69, 127
1, 46740, Note_on_c, 1, 65, 127
1, 46740, Note_on_c, 1, 50, 127
1, 46800, Note_on_c, 1, 62, 127
1, 46859, Note_off_c, 1, 62, 0
1, 46920, Note_on_c, 1, 58, 127
1, 46979, Note_off_c, 1, 69, 0
1, 46979, Note_off_c, 1, 58, 0
1, 46980, Note_off_c, 1, 77, 0
1, 46980, Note_off_c, 1, 74, 0
1, 46980, Note_off_c, 1, 65, 0
1, 46980, Note_on_c, 1, 76, 127
1, 46980, Note_on_c, 1, 73, 127
1, 46980, Note_on_c, 1, 70, 127
1, 46980, Note_on_c, 1, 57, 127
1, 46980, Note_on_c, 1, 64, 127
1, 46980, Note_on_c, 1, 67, 127
1, 47009, Note_off_c, 1, 57, 0
1, 47010, Note_on_c, 1, 55, 127
1, 47039, Note_off_c, 1, 55, 0
1, 47099, Note_off_c, 1, 70, 0
1, 47220, Note_off_c, 1, 76, 0
1, 47220, Note_off_c, 1, 73, 0
1, 47220, Note_off_c, 1, 64, 0
1, 47220, Note_off_c, 1, 67, 0
1, 47280, Note_on_c, 1, 53, 127
1, 47339, Note_off_c, 1, 53, 0
1, 47580, Note_on_c, 1, 52, 127
1, 47639, Note_off_c, 1, 52, 0
1, 47700, Note_off_c, 1, 50, 0
1, 47700, Note_on_c, 1, 59, 127
1, 47700, Note_on_c, 1, 71, 127
1, 47819, Note_off_c, 1, 59, 0
1, 48180, Note_off_c, 1, 71, 0
1, 48180, Note_on_c, 1, 72, 127
1, 48180, Note_on_c, 1, 60, 127
1, 48239, Note_off_c, 1, 60, 0
1, 48660, Note_on_c, 1, 66, 127
1, 48660, Note_on_c, 1, 48, 127
1, 48660, Note_on_c, 1, 45, 127
1, 48719, Note_off_c, 1, 48, 0
1, 48900, Note_on_c, 1, 54, 127
1, 48959, Note_off_c, 1, 54, 0
1, 49440, Note_off_c, 1, 72, 0
1, 49500, Note_on_c, 1, 79, 127
1, 49500, Note_on_c, 1, 63, 127
1, 49559, Note_off_c, 1, 79, 0
1, 49559, Note_off_c, 1, 63, 0
1, 49560, Note_on_c, 1, 78, 127
1, 49619, Note_off_c, 1, 78, 0
1, 49620, Note_off_c, 1, 66, 0
1, 49620, Note_off_c, 1, 45, 0
1, 49620, Note_on_c, 1, 43, 127
1, 50340, Note_off_c, 1, 43, 0
1, 50460, Note_on_c, 1, 51, 127
1, 50519, Note_off_c, 1, 51, 0
1, 50580, Note_on_c, 1, 46, 127
1, 50699, Note_off_c, 1, 46, 0
1, 50700, Note_on_c, 1, 70, 127
1, 50700, Note_on_c, 1, 62, 127
1, 50700, Note_on_c, 1, 53, 127
1, 50700, Note_on_c, 1, 58, 127
1, 50700, Note_on_c, 1, 65, 127
1, 50700, Note_on_c, 1, 50, 127
1, 50759, Note_off_c, 1, 58, 0
1, 50760, Note_on_c, 1, 57, 127
1, 50819, Note_off_c, 1, 70, 0
1, 50819, Note_off_c, 1, 62, 0
1, 50819, Note_off_c, 1, 53, 0
1, 50819, Note_off_c, 1, 65, 0
1, 50819, Note_off_c, 1, 50, 0
1, 50819, Note_off_c, 1, 57, 0
1, 50820, Note_on_c, 1, 55, 127
1, 50879, Note_off_c, 1, 55, 0
1, 50880, Note_on_c, 1, 53, 127
1, 50939, Note_off_c, 1, 53, 0
1, 50940, Note_on_c, 1, 70, 127
1, 50940, Note_on_c, 1, 64, 127
1, 50940, Note_on_c, 1, 60, 127
1, 50940, Note_on_c, 1, 72, 127
1, 50940, Note_on_c, 1, 48, 127
1, 51059, Note_off_c, 1, 70, 0
1, 51059, Note_off_c, 1, 64, 0
1, 51059, Note_off_c, 1, 60, 0
1, 51059, Note_off_c, 1, 72, 0
1, 51059, Note_off_c, 1, 48, 0
1, 51060, Note_on_c, 1, 69, 127
1, 51060, Note_on_c, 1, 65, 127
1, 51060, Note_on_c, 1, 60, 127
1, 51060, Note_on_c, 1, 72, 127
1, 51060, Note_on_c, 1, 41, 127
1, 51119, Note_off_c, 1, 65, 0
1, 51120, Note_on_c, 1, 70, 127
1, 51120, Note_on_c, 1, 67, 127
1, 51179, Note_off_c, 1, 69, 0
1, 51179, Note_off_c, 1, 60, 0
1, 51179, Note_off_c, 1, 72, 0
1, 51179, Note_off_c, 1, 41, 0
1, 51179, Note_off_c, 1, 70, 0
1, 51179, Note_off_c, 1, 67, 0
1, 51180, Note_on_c, 1, 72, 127
1, 51180, Note_on_c, 1, 69, 127
1, 51180, Note_on_c, 1, 65, 127
1, 51180, Note_on_c, 1, 57, 127
1, 51239, Note_off_c, 1, 72, 0
1, 51239, Note_off_c, 1, 69, 0
1, 51239, Note_off_c, 1, 65, 0
1, 51240, Note_on_c, 1, 60, 127
1, 51299, Note_off_c, 1, 57, 0
1, 51299, Note_off_c, 1, 60, 0
1, 51300, Note_on_c, 1, 65, 127
1, 51300, Note_on_c, 1, 60, 127
1, 51300, Note_on_c, 1, 57, 127
1, 51360, Note_on_c, 1, 45, 127
1, 51389, Note_off_c, 1, 45, 0
1, 51390, Note_on_c, 1, 46, 127
1, 51419, Note_off_c, 1, 65, 0
1, 51419, Note_off_c, 1, 60, 0
1, 51419, Note_off_c, 1, 57, 0
1, 51419, Note_off_c, 1, 46, 0
1, 51420, Note_on_c, 1, 58, 127
1, 51420, Note_on_c, 1, 48, 127
1, 51449, Note_off_c, 1, 58, 0
1, 51450, Note_on_c, 1, 57, 127
1, 51479, Note_off_c, 1, 48, 0
1, 51479, Note_off_c, 1, 57, 0
1, 51480, Note_on_c, 1, 72, 127
1, 51480, Note_on_c, 1, 65, 127
1, 51480, Note_on_c, 1, 60, 127
1, 51480, Note_on_c, 1, 55, 127
1, 51480, Note_on_c, 1, 45, 127
1, 51509, Note_off_c, 1, 55, 0
1, 51510, Note_on_c, 1, 53, 127
1, 51539, Note_off_c, 1, 72, 0
1, 51539, Note_off_c, 1, 65, 0
1, 51539, Note_off_c, 1, 60, 0
1, 51539, Note_off_c, 1, 45, 0
1, 51539, Note_off_c, 1, 53, 0
1, 51540, Note_on_c, 1, 74, 127
1, 51540, Note_on_c, 1, 65, 127
1, 51540, Note_on_c, 1, 58, 127
1, 51540, Note_on_c, 1, 46, 127
1, 51599, Note_off_c, 1, 74, 0
1, 51599, Note_off_c, 1, 46, 0
1, 51600, Note_on_c, 1, 76, 127
1, 51600, Note_on_c, 1, 43, 127
1, 51659, Note_off_c, 1, 65, 0
1, 51659, Note_off_c, 1, 58, 0
1, 51659, Note_off_c, 1, 76, 0
1, 51659, Note_off_c, 1, 43, 0
1, 51660, Note_on_c, 1, 77, 127
1, 51660, Note_on_c, 1, 58, 127
1, 51660, Note_on_c, 1, 38, 127
1, 51719, Note_off_c, 1, 77, 0
1, 51719, Note_off_c, 1, 58, 0
1, 51719, Note_off_c, 1, 38, 0
1, 51720, Note_on_c, 1, 74, 127
1, 51720, Note_on_c, 1, 69, 127
1, 51720, Note_on_c, 1, 53, 127
1, 51720, Note_on_c, 1, 57, 127
1, 51720, Note_on_c, 1, 41, 127
1, 51779, Note_off_c, 1, 74, 0
1, 51779, Note_off_c, 1, 69, 0
1, 51779, Note_off_c, 1, 53, 0
1, 51779, Note_off_c, 1, 57, 0
1, 51780, Note_on_c, 1, 70, 127
1, 51780, Note_on_c, 1, 67, 127
1, 51780, Note_on_c, 1, 62, 127
1, 51839, Note_off_c, 1, 41, 0
1, 51839, Note_off_c, 1, 62, 0
1, 51840, Note_on_c, 1, 60, 127
1, 51840, Note_on_c, 1, 48, 127
1, 51840, Note_on_c, 1, 40, 127
1, 51899, Note_off_c, 1, 70, 0
1, 51899, Note_off_c, 1, 67, 0
1, 51899, Note_off_c, 1, 48, 0
1, 51899, Note_off_c, 1, 40, 0
1, 51900, Note_on_c, 1, 65, 127
1, 51959, Note_off_c, 1, 60, 0
1, 51960, Note_on_c, 1, 38, 127
1, 52019, Note_off_c, 1, 38, 0
1, 52020, Note_on_c, 1, 50, 127
1, 52020, Note_on_c, 1, 46, 127
1, 52079, Note_off_c, 1, 50, 0
1, 52079, Note_off_c, 1, 46, 0
1, 52080, Note_on_c, 1, 58, 127
1, 52080, Note_on_c, 1, 43, 127
1, 52139, Note_off_c, 1, 65, 0
1, 52139, Note_off_c, 1, 58, 0
1, 52139, Note_off_c, 1, 43, 0
1, 52140, Note_on_c, 1, 64, 127
1, 52140, Note_on_c, 1, 55, 127
1, 52140, Note_on_c, 1, 52, 127
1, 52199, Note_off_c, 1, 64, 0
1, 52199, Note_off_c, 1, 55, 0
1, 52199, Note_off_c, 1, 52, 0
1, 52200, Note_on_c, 1, 69, 127
1, 52200, Note_on_c, 1, 62, 127
1, 52200, Note_on_c, 1, 53, 127
1, 52200, Note_on_c, 1, 46, 127
1, 52259, Note_off_c, 1, 69, 0
1, 52259, Note_off_c, 1, 62, 0
1, 52259, Note_off_c, 1, 53, 0
1, 52259, Note_off_c, 1, 46, 0
1, 52260, Note_on_c, 1, 65, 127
1, 52260, Note_on_c, 1, 60, 127
1, 52260, Note_on_c, 1, 53, 127
1, 52260, Note_on_c, 1, 45, 127
1, 52319, Note_off_c, 1, 65, 0
1, 52319, Note_off_c, 1, 60, 0
1, 52319, Note_off_c, 1, 53, 0
1, 52319, Note_off_c, 1, 45, 0
1, 52320, Note_on_c, 1, 64, 127
1, 52320, Note_on_c, 1, 58, 127
1, 52320, Note_on_c, 1, 55, 127
1, 52320, Note_on_c, 1, 48, 127
1, 52379, Note_off_c, 1, 64, 0
1, 52379, Note_off_c, 1, 58, 0
1, 52379, Note_off_c, 1, 55, 0
1, 52379, Note_off_c, 1, 48, 0
1, 52380, Note_on_c, 1, 65, 127
1, 52380, Note_on_c, 1, 57, 127
1, 52380, Note_on_c, 1, 53, 127
1, 52380, Note_on_c, 1, 50, 127
1, 52439, Note_off_c, 1, 57, 0
1, 52439, Note_off_c, 1, 53, 0
1, 52439, Note_off_c, 1, 50, 0
1, 52440, Note_on_c, 1, 62, 127
1, 52440, Note_on_c, 1, 58, 127
1, 52440, Note_on_c, 1, 46, 127
1, 52499, Note_off_c, 1, 65, 0
1, 52499, Note_off_c, 1, 46, 0
1, 52500, Note_on_c, 1, 67, 127
1, 52500, Note_on_c, 1, 40, 127
1, 52559, Note_off_c, 1, 62, 0
1, 52559, Note_off_c, 1, 58, 0
1, 52559, Note_off_c, 1, 67, 0
1, 52559, Note_off_c, 1, 40, 0
1, 52560, Note_on_c, 1, 69, 127
1, 52560, Note_on_c, 1, 60, 127
1, 52560, Note_on_c, 1, 55, 127
1, 52560, Note_on_c, 1, 52, 127
1, 52589, Note_off_c, 1, 69, 0
1, 52590, Note_on_c, 1, 70, 127
1, 52619, Note_off_c, 1, 60, 0
1, 52619, Note_off_c, 1, 55, 0
1, 52619, Note_off_c, 1, 52, 0
1, 52619, Note_off_c, 1, 70, 0
1, 52620, Note_on_c, 1, 69, 127
1, 52620, Note_on_c, 1, 65, 127
1, 52620, Note_on_c, 1, 60, 127
1, 52620, Note_on_c, 1, 53, 127
1, 52679, Note_off_c, 1, 69, 0
1, 52679, Note_off_c, 1, 60, 0
1, 52679, Note_off_c, 1, 53, 0
1, 52680, Note_on_c, 1, 67, 127
1, 52680, Note_on_c, 1, 58, 127
1, 52680, Note_on_c, 1, 50, 127
1, 52709, Note_off_c, 1, 58, 0
1, 52710, Note_on_c, 1, 57, 127
1, 52739, Note_off_c, 1, 67, 0
1, 52739, Note_off_c, 1, 50, 0
1, 52739, Note_off_c, 1, 57, 0
1, 52740, Note_on_c, 1, 62, 127
1, 52740, Note_on_c, 1, 46, 127
1, 52799, Note_off_c, 1, 65, 0
1, 52799, Note_off_c, 1, 62, 0
1, 52799, Note_off_c, 1, 46, 0
1, 52800, Note_on_c, 1, 64, 127
1, 52800, Note_on_c, 1, 43, 127
1, 52829, Note_off_c, 1, 64, 0
1, 52859, Note_off_c, 1, 43, 0
1, 52860, Note_on_c, 1, 55, 127
1, 52860, Note_on_c, 1, 48, 127
1, 52919, Note_off_c, 1, 55, 0
1, 52919, Note_off_c, 1, 48, 0
1, 52980, Note_on_c, 1, 72, 127
1, 52980, Note_on_c, 1, 65, 127
1, 52980, Note_on_c, 1, 53, 127
1, 52980, Note_on_c, 1, 45, 127
1, 53039, Note_off_c, 1, 45, 0
1, 53040, Note_on_c, 1, 57, 127
1, 53040, Note_on_c, 1, 41, 127
1, 53099, Note_off_c, 1, 72, 0
1, 53099, Note_off_c, 1, 65, 0
1, 53099, Note_off_c, 1, 53, 0
1, 53099, Note_off_c, 1, 57, 0
1, 53099, Note_off_c, 1, 41, 0
1, 53100, Note_on_c, 1, 70, 127
1, 53100, Note_on_c, 1, 55, 127
1, 53100, Note_on_c, 1, 53, 127
1, 53159, Note_off_c, 1, 70, 0
1, 53159, Note_off_c, 1, 55, 0
1, 53160, Note_on_c, 1, 69, 127
1, 53160, Note_on_c, 1, 65, 127
1, 53160, Note_on_c, 1, 60, 127
1, 53160, Note_on_c, 1, 57, 127
1, 53189, Note_off_c, 1, 57, 0
1, 53219, Note_off_c, 1, 69, 0
1, 53219, Note_off_c, 1, 65, 0
1, 53219, Note_off_c, 1, 60, 0
1, 53220, Note_on_c, 1, 67, 127
1, 53220, Note_on_c, 1, 58, 127
1, 53220, Note_on_c, 1, 62, 127
1, 53279, Note_off_c, 1, 53, 0
1, 53279, Note_off_c, 1, 58, 0
1, 53279, Note_off_c, 1, 62, 0
1, 53280, Note_on_c, 1, 52, 127
1, 53339, Note_off_c, 1, 67, 0
1, 53339, Note_off_c, 1, 52, 0
1, 53400, Note_on_c, 1, 65, 127
1, 53400, Note_on_c, 1, 58, 127
1, 53400, Note_on_c, 1, 50, 127
1, 53430, Note_on_c, 1, 57, 127
1, 53459, Note_off_c, 1, 50, 0
1, 53459, Note_off_c, 1, 57, 0
1, 53460, Note_on_c, 1, 70, 127
1, 53460, Note_on_c, 1, 55, 127
1, 53519, Note_off_c, 1, 65, 0
1, 53519, Note_off_c, 1, 58, 0
1, 53520, Note_on_c, 1, 64, 127
1, 53520, Note_on_c, 1, 60, 127
1, 53549, Note_off_c, 1, 64, 0
1, 53549, Note_off_c, 1, 60, 0
1, 53550, Note_on_c, 1, 62, 127
1, 53579, Note_off_c, 1, 70, 0
1, 53579, Note_off_c, 1, 55, 0
1, 53579, Note_off_c, 1, 62, 0
1, 53580, Note_on_c, 1, 69, 127
1, 53580, Note_on_c, 1, 64, 127
1, 53580, Note_on_c, 1, 60, 127
1, 53639, Note_off_c, 1, 69, 0
1, 53640, Note_on_c, 1, 67, 127
1, 53640, Note_on_c, 1, 48, 127
1, 53699, Note_off_c, 1, 64, 0
1, 53699, Note_off_c, 1, 60, 0
1, 53699, Note_off_c, 1, 67, 0
1, 53699, Note_off_c, 1, 48, 0
1, 53700, Note_on_c, 1, 69, 127
1, 53700, Note_on_c, 1, 65, 127
1, 53700, Note_on_c, 1, 60, 127
1, 53700, Note_on_c, 1, 53, 127
1, 53759, Note_off_c, 1, 53, 0
1, 53760, Note_on_c, 1, 41, 127
1, 53789, Note_off_c, 1, 41, 0
1, 53790, Note_on_c, 1, 43, 127
1, 53819, Note_off_c, 1, 69, 0
1, 53819, Note_off_c, 1, 43, 0
1, 53820, Note_on_c, 1, 57, 127
1, 53820, Note_on_c, 1, 45, 127
1, 53879, Note_off_c, 1, 60, 0
1, 53879, Note_off_c, 1, 57, 0
1, 53879, Note_off_c, 1, 45, 0
1, 53880, Note_on_c, 1, 64, 127
1, 53880, Note_on_c, 1, 58, 127
1, 53880, Note_on_c, 1, 55, 127
1, 53880, Note_on_c, 1, 46, 127
1, 53909, Note_off_c, 1, 64, 0
1, 53909, Note_off_c, 1, 58, 0
1, 53909, Note_off_c, 1, 55, 0
1, 53910, Note_on_c, 1, 62, 127
1, 53939, Note_off_c, 1, 65, 0
1, 53939, Note_off_c, 1, 62, 0
1, 53940, Note_on_c, 1, 67, 127
1, 53940, Note_on_c, 1, 52, 127
1, 53999, Note_off_c, 1, 46, 0
1, 53999, Note_off_c, 1, 52, 0
1, 54000, Note_on_c, 1, 48, 127
1, 54059, Note_off_c, 1, 48, 0
1, 54119, Note_off_c, 1, 67, 0
1, 54120, Note_on_c, 1, 72, 127
1, 54179, Note_off_c, 1, 72, 0
1, 54240, Note_on_c, 1, 77, 127
1, 54299, Note_off_c, 1, 77, 0
1, 54300, Note_on_c, 1, 75, 127
1, 54300, Note_on_c, 1, 59, 127
1, 54300, Note_on_c, 1, 55, 127
1, 54359, Note_off_c, 1, 75, 0
1, 54359, Note_off_c, 1, 59, 0
1, 54359, Note_off_c, 1, 55, 0
1, 54360, Note_on_c, 1, 74, 127
1, 54360, Note_on_c, 1, 69, 127
1, 54360, Note_on_c, 1, 62, 127
1, 54360, Note_on_c, 1, 60, 127
1, 54360, Note_on_c, 1, 54, 127
1, 54419, Note_off_c, 1, 74, 0
1, 54419, Note_off_c, 1, 69, 0
1, 54419, Note_off_c, 1, 62, 0
1, 54419, Note_off_c, 1, 60, 0
1, 54419, Note_off_c, 1, 54, 0
1, 54420, Note_on_c, 1, 72, 127
1, 54420, Note_on_c, 1, 67, 127
1, 54420, Note_on_c, 1, 63, 127
1, 54420, Note_on_c, 1, 60, 127
1, 54420, Note_on_c, 1, 55, 127
1, 54479, Note_off_c, 1, 67, 0
1, 54479, Note_off_c, 1, 63, 0
1, 54479, Note_off_c, 1, 60, 0
1, 54480, Note_on_c, 1, 65, 127
1, 54480, Note_on_c, 1, 62, 127
1, 54509, Note_off_c, 1, 65, 0
1, 54510, Note_off_c, 1, 62, 0
1, 54539, Note_off_c, 1, 72, 0
1, 54539, Note_off_c, 1, 55, 0
1, 54540, Note_on_c, 1, 71, 127
1, 54540, Note_on_c, 1, 43, 127
1, 54629, Note_off_c, 1, 71, 0
1, 54659, Note_off_c, 1, 43, 0
1, 54660, Note_on_c, 1, 64, 127
1, 54660, Note_on_c, 1, 48, 127
1, 54780, Note_on_c, 1, 76, 127
1, 54840, Note_on_c, 1, 52, 127
1, 54899, Note_off_c, 1, 64, 0
1, 54899, Note_off_c, 1, 48, 0
1, 54899, Note_off_c, 1, 52, 0
1, 54900, Note_on_c, 1, 73, 127
1, 54900, Note_on_c, 1, 50, 127
1, 54900, Note_on_c, 1, 45, 127
1, 54959, Note_off_c, 1, 50, 0
1, 54960, Note_on_c, 1, 49, 127
1, 55019, Note_off_c, 1, 49, 0
1, 55320, Note_on_c, 1, 53, 127
1, 55379, Note_off_c, 1, 53, 0
1, 55500, Note_on_c, 1, 61, 127
1, 55515, Note_on_c, 1, 57, 127
1, 55529, Note_off_c, 1, 57, 0
1, 55530, Note_on_c, 1, 58, 127
1, 55559, Note_off_c, 1, 58, 0
1, 55619, Note_off_c, 1, 73, 0
1, 55619, Note_off_c, 1, 45, 0
1, 55620, Note_off_c, 1, 76, 0
1, 55620, Note_off_c, 1, 61, 0
1, 55620, Note_on_c, 1, 74, 127
1, 55620, Note_on_c, 1, 69, 127
1, 55859, Note_off_c, 1, 69, 0
1, 55860, Note_on_c, 1, 56, 127
1, 55860, Note_on_c, 1, 68, 127
1, 55860, Note_on_c, 1, 47, 127
1, 56040, Note_on_c, 1, 59, 127
1, 56099, Note_off_c, 1, 68, 0
1, 56099, Note_off_c, 1, 47, 0
1, 56099, Note_off_c, 1, 59, 0
1, 56219, Note_off_c, 1, 56, 0
1, 56340, Note_on_c, 1, 44, 127
1, 56699, Note_off_c, 1, 44, 0
1, 56700, Note_off_c, 1, 74, 0
1, 56700, Note_on_c, 1, 80, 127
1, 56700, Note_on_c, 1, 40, 127
1, 56819, Note_off_c, 1, 80, 0
1, 56819, Note_off_c, 1, 40, 0
1, 56820, Note_on_c, 1, 81, 127
1, 56940, Note_on_c, 1, 66, 127
1, 56940, Note_on_c, 1, 39, 127
1, 57060, Note_on_c, 1, 54, 127
1, 57119, Note_off_c, 1, 54, 0
1, 57179, Note_off_c, 1, 81, 0
1, 57180, Note_off_c, 1, 66, 0
1, 57180, Note_on_c, 1, 79, 127
1, 57299, Note_off_c, 1, 79, 0
1, 57300, Note_on_c, 1, 78, 127
1, 57419, Note_off_c, 1, 78, 0
1, 57540, Note_off_c, 1, 39, 0
1, 57540, Note_on_c, 1, 38, 127
1, 57660, Note_off_c, 1, 38, 0
1, 57660, Note_on_c, 1, 77, 127
1, 58379, Note_off_c, 1, 77, 0
1, 58470, Note_on_c, 1, 51, 127
1, 58499, Note_off_c, 1, 51, 0
1, 58980, Note_on_c, 1, 42, 127
1, 59459, Note_off_c, 1, 42, 0
1, 59580, Note_on_c, 1, 75, 127
1, 59700, Note_off_c, 1, 75, 0
1, 59760, Note_on_c, 1, 55, 127
1, 59819, Note_off_c, 1, 55, 0
1, 59820, Note_on_c, 1, 76, 127
1, 59820, Note_on_c, 1, 72, 127
1, 59820, Note_on_c, 1, 67, 127
1, 59820, Note_on_c, 1, 64, 127
1, 59820, Note_on_c, 1, 43, 127
1, 59880, Note_off_c, 1, 76, 0
1, 59880, Note_off_c, 1, 72, 0
1, 59880, Note_off_c, 1, 64, 0
1, 59880, Note_on_c, 1, 71, 127
1, 59880, Note_on_c, 1, 62, 127
1, 59939, Note_off_c, 1, 43, 0
1, 59940, Note_off_c, 1, 71, 0
1, 59940, Note_off_c, 1, 62, 0
1, 59940, Note_on_c, 1, 60, 127
1, 59940, Note_on_c, 1, 48, 127
1, 60060, Note_off_c, 1, 67, 0
1, 60060, Note_off_c, 1, 60, 0
1, 60060, Note_off_c, 1, 48, 0
1, 60180, Note_on_c, 1, 72, 127
1, 60180, Note_on_c, 1, 48, 127
1, 60180, Note_on_c, 1, 60, 127
1, 60180, Note_on_c, 1, 64, 127
1, 60180, Note_on_c, 1, 67, 127
1, 60300, Note_off_c, 1, 48, 0
1, 60300, Note_off_c, 1, 60, 0
1, 60300, Note_off_c, 1, 64, 0
1, 60300, Note_off_c, 1, 67, 0
1, 60300, Note_on_c, 1, 50, 127
1, 60300, Note_on_c, 1, 65, 127
1, 60300, Note_on_c, 1, 62, 127
1, 60300, Note_on_c, 1, 59, 127
1, 60360, Note_off_c, 1, 50, 0
1, 60360, Note_off_c, 1, 65, 0
1, 60360, Note_off_c, 1, 62, 0
1, 60360, Note_off_c, 1, 59, 0
1, 60360, Note_on_c, 1, 52, 127
1, 60420, Note_off_c, 1, 72, 0
1, 60480, Note_off_c, 1, 52, 0
1, 60540, Note_on_c, 1, 69, 127
1, 60540, Note_on_c, 1, 53, 127
1, 60660, Note_off_c, 1, 69, 0
1, 60660, Note_off_c, 1, 53, 0
1, 61140, Note_on_c, 1, 76, 127
1, 61200, Note_off_c, 1, 76, 0
1, 61200, Note_on_c, 1, 74, 127
1, 61200, Note_on_c, 1, 55, 127
1, 61260, Note_off_c, 1, 74, 0
1, 61260, Note_off_c, 1, 55, 0
1, 61620, Note_on_c, 1, 79, 127
1, 61860, Note_off_c, 1, 79, 0
1, 61920, Note_on_c, 1, 81, 127
1, 61980, Note_off_c, 1, 81, 0
1, 62100, Note_on_c, 1, 57, 127
1, 62160, Note_off_c, 1, 57, 0
1, 62160, Note_on_c, 1, 71, 127
1, 62220, Note_off_c, 1, 71, 0
1, 62220, Note_on_c, 1, 77, 127
1, 62280, Note_off_c, 1, 77, 0
1, 63360, Note_on_c, 1, 70, 127
1, 63420, Note_off_c, 1, 70, 0
1, 63780, Note_on_c, 1, 47, 127
1, 63840, Note_off_c, 1, 47, 0
1, 63840, Note_on_c, 1, 45, 127
1, 63900, Note_off_c, 1, 45, 0
1, 63900, Note_on_c, 1, 43, 127
1, 63960, Note_off_c, 1, 43, 0
1, 63960, Note_on_c, 1, 42, 127
1, 63960, Note_on_c, 1, 66, 127
1, 64080, Note_off_c, 1, 42, 0
1, 64080, Note_on_c, 1, 38, 127
1, 64140, Note_off_c, 1, 66, 0
1, 64140, Note_off_c, 1, 38, 0
1, 64260, Note_on_c, 1, 40, 127
1, 64320, Note_off_c, 1, 40, 0
1, 64320, Note_on_c, 1, 36, 127
1, 64440, Note_off_c, 1, 36, 0
1, 64680, Note_on_c, 1, 72, 127
1, 64740, Note_off_c, 1, 72, 0
1, 64740, Note_on_c, 1, 71, 127
1, 64800, Note_off_c, 1, 71, 0
1, 64860, Note_on_c, 1, 77, 127
1, 64860, Note_on_c, 1, 48, 127
1, 64860, Note_on_c, 1, 72, 127
1, 64860, Note_on_c, 1, 67, 127
1, 64860, Note_on_c, 1, 64, 127
1, 64920, Note_off_c, 1, 77, 0
1, 64920, Note_on_c, 1, 76, 127
1, 64980, Note_off_c, 1, 48, 0
1, 64980, Note_off_c, 1, 72, 0
1, 64980, Note_off_c, 1, 67, 0
1, 64980, Note_off_c, 1, 64, 0
1, 64980, Note_off_c, 1, 76, 0
1, 65040, Note_on_c, 1, 77, 127
1, 65100, Note_off_c, 1, 77, 0
1, 65100, Note_on_c, 1, 76, 127
1, 65160, Note_off_c, 1, 76, 0
1, 65220, Note_on_c, 1, 78, 127
1, 65220, Note_on_c, 1, 45, 127
1, 65220, Note_on_c, 1, 67, 127
1, 65220, Note_on_c, 1, 73, 127
1, 65220, Note_on_c, 1, 64, 127
1, 65280, Note_off_c, 1, 78, 0
1, 65280, Note_on_c, 1, 79, 127
1, 65340, Note_off_c, 1, 45, 0
1, 65340, Note_off_c, 1, 67, 0
1, 65340, Note_off_c, 1, 73, 0
1, 65340, Note_off_c, 1, 64, 0
1, 65340, Note_off_c, 1, 79, 0
1, 65400, Note_on_c, 1, 78, 127
1, 65460, Note_off_c, 1, 78, 0
1, 65460, Note_on_c, 1, 79, 127
1, 65520, Note_off_c, 1, 79, 0
1, 65580, Note_on_c, 1, 73, 127
1, 65580, Note_on_c, 1, 50, 127
1, 65580, Note_on_c, 1, 69, 127
1, 65580, Note_on_c, 1, 66, 127
1, 65640, Note_off_c, 1, 73, 0
1, 65640, Note_on_c, 1, 74, 127
1, 65700, Note_off_c, 1, 50, 0
1, 65700, Note_off_c, 1, 69, 0
1, 65700, Note_off_c, 1, 66, 0
1, 65700, Note_off_c, 1, 74, 0
1, 65760, Note_on_c, 1, 73, 127
1, 65820, Note_off_c, 1, 73, 0
1, 65820, Note_on_c, 1, 74, 127
1, 65880, Note_off_c, 1, 74, 0
1, 65940, Note_on_c, 1, 62, 127
1, 65940, Note_on_c, 1, 54, 127
1, 65940, Note_on_c, 1, 74, 127
1, 65940, Note_on_c, 1, 69, 127
1, 65940, Note_on_c, 1, 66, 127
1, 66000, Note_off_c, 1, 74, 0
1, 66000, Note_on_c, 1, 72, 127
1, 66060, Note_off_c, 1, 62, 0
1, 66060, Note_off_c, 1, 54, 0
1, 66060, Note_on_c, 1, 50, 127
1, 66060, Note_on_c, 1, 60, 127
1, 66120, Note_off_c, 1, 69, 0
1, 66120, Note_off_c, 1, 66, 0
1, 66120, Note_off_c, 1, 72, 0
1, 66120, Note_off_c, 1, 50, 0
1, 66120, Note_off_c, 1, 60, 0
1, 66120, Note_on_c, 1, 71, 127
1, 66120, Note_on_c, 1, 55, 127
1, 66120, Note_on_c, 1, 67, 127
1, 66180, Note_off_c, 1, 71, 0
1, 66240, Note_off_c, 1, 55, 0
1, 66240, Note_on_c, 1, 52, 127
1, 66240, Note_on_c, 1, 64, 127
1, 66300, Note_off_c, 1, 52, 0
1, 66300, Note_off_c, 1, 64, 0
1, 66300, Note_on_c, 1, 76, 127
1, 66300, Note_on_c, 1, 48, 127
1, 66360, Note_off_c, 1, 76, 0
1, 66360, Note_on_c, 1, 65, 127
1, 66390, Note_off_c, 1, 65, 0
1, 66420, Note_off_c, 1, 67, 0
1, 66420, Note_off_c, 1, 48, 0
1, 66480, Note_on_c, 1, 43, 127
1, 66540, Note_off_c, 1, 43, 0
1, 66570, Note_on_c, 1, 53, 127
1, 66600, Note_off_c, 1, 53, 0
1, 68160, Note_on_c, 1, 59, 127
1, 68190, Note_off_c, 1, 59, 0
1, 68190, Note_on_c, 1, 57, 127
1, 68220, Note_off_c, 1, 57, 0
1, 68940, Note_on_c, 1, 65, 127
1, 68940, Note_on_c, 1, 50, 127
1, 68940, Note_on_c, 1, 62, 127
1, 68999, Note_off_c, 1, 65, 0
1, 68999, Note_off_c, 1, 50, 0
1, 68999, Note_off_c, 1, 62, 0
1, 69000, Note_on_c, 1, 67, 127
1, 69000, Note_on_c, 1, 52, 127
1, 69000, Note_on_c, 1, 60, 127
1, 69119, Note_off_c, 1, 67, 0
1, 69119, Note_off_c, 1, 52, 0
1, 69119, Note_off_c, 1, 60, 0
1, 69120, Note_on_c, 1, 69, 127
1, 69120, Note_on_c, 1, 53, 127
1, 69120, Note_on_c, 1, 60, 127
1, 69179, Note_off_c, 1, 69, 0
1, 69179, Note_off_c, 1, 53, 0
1, 69179, Note_off_c, 1, 60, 0
1, 69180, Note_on_c, 1, 72, 127
1, 69180, Note_on_c, 1, 67, 127
1, 69180, Note_on_c, 1, 52, 127
1, 69180, Note_on_c, 1, 64, 127
1, 69239, Note_off_c, 1, 67, 0
1, 69299, Note_off_c, 1, 52, 0
1, 69299, Note_off_c, 1, 64, 0
1, 69300, Note_on_c, 1, 76, 127
1, 69300, Note_on_c, 1, 48, 127
1, 69359, Note_off_c, 1, 76, 0
1, 69359, Note_off_c, 1, 48, 0
1, 69360, Note_on_c, 1, 74, 127
1, 69360, Note_on_c, 1, 55, 127
1, 69360, Note_on_c, 1, 71, 127
1, 69419, Note_off_c, 1, 72, 0
1, 69419, Note_off_c, 1, 74, 0
1, 69419, Note_off_c, 1, 71, 0
1, 69420, Note_on_c, 1, 69, 127
1, 69479, Note_off_c, 1, 55, 0
1, 69479, Note_off_c, 1, 69, 0
1, 69480, Note_on_c, 1, 71, 127
1, 69480, Note_on_c, 1, 69, 127
1, 69480, Note_on_c, 1, 43, 127
1, 69480, Note_on_c, 1, 65, 127
1, 69509, Note_off_c, 1, 69, 0
1, 69509, Note_off_c, 1, 65, 0
1, 69510, Note_on_c, 1, 67, 127
1, 69510, Note_on_c, 1, 64, 127
1, 69539, Note_off_c, 1, 71, 0
1, 69539, Note_off_c, 1, 43, 0
1, 69539, Note_off_c, 1, 67, 0
1, 69539, Note_off_c, 1, 64, 0
1, 69540, Note_on_c, 1, 74, 127
1, 69540, Note_on_c, 1, 65, 127
1, 69540, Note_on_c, 1, 48, 127
1, 69540, Note_on_c, 1, 62, 127
1, 69599, Note_off_c, 1, 74, 0
1, 69599, Note_off_c, 1, 65, 0
1, 69600, Note_on_c, 1, 72, 127
1, 69600, Note_on_c, 1, 64, 127
1, 69659, Note_off_c, 1, 48, 0
1, 69659, Note_off_c, 1, 62, 0
1, 69659, Note_off_c, 1, 72, 0
1, 69659, Note_off_c, 1, 64, 0
1, 69660, Note_on_c, 1, 65, 127
1, 69660, Note_on_c, 1, 50, 127
1, 69719, Note_off_c, 1, 65, 0
1, 69719, Note_off_c, 1, 50, 0
1, 69720, Note_on_c, 1, 67, 127
1, 69720, Note_on_c, 1, 52, 127
1, 69720, Note_on_c, 1, 64, 127
1, 69720, Note_on_c, 1, 70, 127
1, 69780, Note_on_c, 1, 69, 127
1, 69839, Note_off_c, 1, 67, 0
1, 69839, Note_off_c, 1, 52, 0
1, 69839, Note_off_c, 1, 64, 0
1, 69839, Note_off_c, 1, 70, 0
1, 69839, Note_off_c, 1, 69, 0
1, 69840, Note_on_c, 1, 70, 127
1, 69840, Note_on_c, 1, 48, 127
1, 69899, Note_off_c, 1, 70, 0
1, 69899, Note_off_c, 1, 48, 0
1, 69900, Note_on_c, 1, 69, 127
1, 69900, Note_on_c, 1, 53, 127
1, 69900, Note_on_c, 1, 65, 127
1, 69900, Note_on_c, 1, 60, 127
1, 69960, Note_on_c, 1, 71, 127
1, 70019, Note_off_c, 1, 69, 0
1, 70019, Note_off_c, 1, 53, 0
1, 70019, Note_off_c, 1, 65, 0
1, 70019, Note_off_c, 1, 60, 0
1, 70019, Note_off_c, 1, 71, 0
1, 70020, Note_on_c, 1, 72, 127
1, 70020, Note_on_c, 1, 52, 127
1, 70079, Note_off_c, 1, 72, 0
1, 70079, Note_off_c, 1, 52, 0
1, 70080, Note_on_c, 1, 71, 127
1, 70080, Note_on_c, 1, 50, 127
1, 70080, Note_on_c, 1, 65, 127
1, 70110, Note_on_c, 1, 72, 127
1, 70139, Note_off_c, 1, 72, 0
1, 70140, Note_on_c, 1, 74, 127
1, 70154, Note_off_c, 1, 74, 0
1, 70199, Note_off_c, 1, 71, 0
1, 70199, Note_off_c, 1, 50, 0
1, 70199, Note_off_c, 1, 65, 0
1, 70200, Note_on_c, 1, 74, 127
1, 70200, Note_on_c, 1, 48, 127
1, 70200, Note_on_c, 1, 72, 127
1, 70200, Note_on_c, 1, 64, 127
1, 70214, Note_off_c, 1, 74, 0
1, 70230, Note_on_c, 1, 71, 127
1, 70244, Note_off_c, 1, 71, 0
1, 70259, Note_off_c, 1, 48, 0
1, 70259, Note_off_c, 1, 72, 0
1, 70259, Note_off_c, 1, 64, 0
1, 70260, Note_on_c, 1, 79, 127
1, 70260, Note_on_c, 1, 74, 127
1, 70260, Note_on_c, 1, 55, 127
1, 70260, Note_on_c, 1, 71, 127
1, 70260, Note_on_c, 1, 62, 127
1, 70379, Note_off_c, 1, 74, 0
1, 70379, Note_off_c, 1, 55, 0
1, 70379, Note_off_c, 1, 71, 0
1, 70379, Note_off_c, 1, 62, 0
1, 70380, Note_on_c, 1, 57, 127
1, 70439, Note_off_c, 1, 57, 0
1, 70440, Note_on_c, 1, 59, 127
1, 70440, Note_on_c, 1, 67, 127
1, 70559, Note_off_c, 1, 59, 0
1, 70559, Note_off_c, 1, 67, 0
1, 70560, Note_off_c, 1, 79, 0
1, 70620, Note_on_c, 1, 76, 127
1, 70620, Note_on_c, 1, 72, 127
1, 70620, Note_on_c, 1, 60, 127
1, 70620, Note_on_c, 1, 64, 127
1, 70620, Note_on_c, 1, 67, 127
1, 70679, Note_off_c, 1, 76, 0
1, 70739, Note_off_c, 1, 72, 0
1, 70739, Note_off_c, 1, 60, 0
1, 70739, Note_off_c, 1, 64, 0
1, 70739, Note_off_c, 1, 67, 0
1, 70740, Note_on_c, 1, 74, 127
1, 70740, Note_on_c, 1, 71, 127
1, 70740, Note_on_c, 1, 55, 127
1, 70740, Note_on_c, 1, 67, 127
1, 70740, Note_on_c, 1, 62, 127
1, 70799, Note_off_c, 1, 74, 0
1, 70799, Note_off_c, 1, 71, 0
1, 70799, Note_off_c, 1, 55, 0
1, 70799, Note_off_c, 1, 67, 0
1, 70799, Note_off_c, 1, 62, 0
1, 70800, Note_on_c, 1, 76, 127
1, 70800, Note_on_c, 1, 72, 127
1, 70859, Note_off_c, 1, 76, 0
1, 70859, Note_off_c, 1, 72, 0
1, 70860, Note_on_c, 1, 72, 127
1, 70860, Note_on_c, 1, 76, 127
1, 70919, Note_off_c, 1, 72, 0
1, 70919, Note_off_c, 1, 76, 0
1, 70920, Note_on_c, 1, 74, 127
1, 70979, Note_off_c, 1, 74, 0
1, 70980, Note_on_c, 1, 74, 127
1, 70980, Note_on_c, 1, 71, 127
1, 71039, Note_off_c, 1, 71, 0
1, 71040, Note_on_c, 1, 69, 127
1, 71099, Note_off_c, 1, 69, 0
1, 71100, Note_on_c, 1, 67, 127
1, 71100, Note_on_c, 1, 55, 127
1, 71159, Note_off_c, 1, 67, 0
1, 71159, Note_off_c, 1, 55, 0
1, 71160, Note_on_c, 1, 54, 127
1, 71160, Note_on_c, 1, 62, 127
1, 71160, Note_on_c, 1, 66, 127
1, 71279, Note_off_c, 1, 74, 0
1, 71279, Note_off_c, 1, 54, 0
1, 71279, Note_off_c, 1, 62, 0
1, 71279, Note_off_c, 1, 66, 0
1, 71280, Note_on_c, 1, 69, 127
1, 71280, Note_on_c, 1, 50, 127
1, 71339, Note_off_c, 1, 69, 0
1, 71339, Note_off_c, 1, 50, 0
1, 71340, Note_on_c, 1, 70, 127
1, 71340, Note_on_c, 1, 74, 127
1, 71340, Note_on_c, 1, 43, 127
1, 71340, Note_on_c, 1, 67, 127
1, 71340, Note_on_c, 1, 62, 127
1, 71399, Note_off_c, 1, 70, 0
1, 71459, Note_off_c, 1, 74, 0
1, 71459, Note_off_c, 1, 43, 0
1, 71459, Note_off_c, 1, 67, 0
1, 71459, Note_off_c, 1, 62, 0
1, 71460, Note_on_c, 1, 69, 127
1, 71460, Note_on_c, 1, 73, 127
1, 71460, Note_on_c, 1, 55, 127
1, 71519, Note_off_c, 1, 69, 0
1, 71519, Note_off_c, 1, 73, 0
1, 71519, Note_off_c, 1, 55, 0
1, 71520, Note_on_c, 1, 70, 127
1, 71520, Note_on_c, 1, 74, 127
1, 71520, Note_on_c, 1, 53, 127
1, 71579, Note_off_c, 1, 70, 0
1, 71579, Note_off_c, 1, 74, 0
1, 71579, Note_off_c, 1, 53, 0
1, 71580, Note_on_c, 1, 68, 127
1, 71580, Note_on_c, 1, 77, 127
1, 71580, Note_on_c, 1, 47, 127
1, 71639, Note_off_c, 1, 68, 0
1, 71639, Note_off_c, 1, 77, 0
1, 71639, Note_off_c, 1, 47, 0
1, 71640, Note_on_c, 1, 69, 127
1, 71640, Note_on_c, 1, 76, 127
1, 71640, Note_on_c, 1, 49, 127
1, 71699, Note_off_c, 1, 69, 0
1, 71699, Note_off_c, 1, 76, 0
1, 71699, Note_off_c, 1, 49, 0
1, 71700, Note_on_c, 1, 81, 127
1, 71700, Note_on_c, 1, 77, 127
1, 71700, Note_on_c, 1, 50, 127
1, 71700, Note_on_c, 1, 65, 127
1, 71700, Note_on_c, 1, 62, 127
1, 71759, Note_off_c, 1, 77, 0
1, 71760, Note_on_c, 1, 76, 127
1, 71819, Note_off_c, 1, 50, 0
1, 71819, Note_off_c, 1, 65, 0
1, 71819, Note_off_c, 1, 62, 0
1, 71819, Note_off_c, 1, 76, 0
1, 71820, Note_on_c, 1, 74, 127
1, 71820, Note_on_c, 1, 52, 127
1, 71879, Note_off_c, 1, 74, 0
1, 71879, Note_off_c, 1, 52, 0
1, 71880, Note_on_c, 1, 53, 127
1, 71880, Note_on_c, 1, 69, 127
1, 71999, Note_off_c, 1, 81, 0
1, 71999, Note_off_c, 1, 53, 0
1, 71999, Note_off_c, 1, 69, 0
1, 72000, Note_on_c, 1, 82, 127
1, 72000, Note_on_c, 1, 55, 127
1, 72059, Note_off_c, 1, 82, 0
1, 72059, Note_off_c, 1, 55, 0
1, 72060, Note_on_c, 1, 81, 127
1, 72060, Note_on_c, 1, 53, 127
1, 72060, Note_on_c, 1, 65, 127
1, 72060, Note_on_c, 1, 62, 127
1, 72119, Note_off_c, 1, 81, 0
1, 72120, Note_on_c, 1, 77, 127
1, 72179, Note_off_c, 1, 53, 0
1, 72179, Note_off_c, 1, 65, 0
1, 72179, Note_off_c, 1, 62, 0
1, 72179, Note_off_c, 1, 77, 0
1, 72180, Note_on_c, 1, 74, 127
1, 72180, Note_on_c, 1, 55, 127
1, 72239, Note_off_c, 1, 74, 0
1, 72239, Note_off_c, 1, 55, 0
1, 72240, Note_on_c, 1, 73, 127
1, 72240, Note_on_c, 1, 69, 127
1, 72240, Note_on_c, 1, 57, 127
1, 72240, Note_on_c, 1, 64, 127
1, 72240, Note_on_c, 1, 67, 127
1, 72299, Note_off_c, 1, 73, 0
1, 72300, Note_on_c, 1, 79, 127
1, 72359, Note_off_c, 1, 57, 0
1, 72359, Note_off_c, 1, 64, 0
1, 72359, Note_off_c, 1, 67, 0
1, 72359, Note_off_c, 1, 79, 0
1, 72360, Note_on_c, 1, 76, 127
1, 72360, Note_on_c, 1, 45, 127
1, 72419, Note_off_c, 1, 76, 0
1, 72419, Note_off_c, 1, 45, 0
1, 72420, Note_on_c, 1, 77, 127
1, 72420, Note_on_c, 1, 50, 127
1, 72420, Note_on_c, 1, 65, 127
1, 72420, Note_on_c, 1, 62, 127
1, 72435, Note_off_c, 1, 77, 0
1, 72480, Note_on_c, 1, 71, 127
1, 72539, Note_off_c, 1, 69, 0
1, 72539, Note_off_c, 1, 65, 0
1, 72539, Note_off_c, 1, 62, 0
1, 72539, Note_off_c, 1, 71, 0
1, 72540, Note_on_c, 1, 74, 127
1, 72540, Note_on_c, 1, 72, 127
1, 72599, Note_off_c, 1, 74, 0
1, 72599, Note_off_c, 1, 72, 0
1, 72659, Note_off_c, 1, 50, 0
1, 72660, Note_on_c, 1, 52, 127
1, 72719, Note_off_c, 1, 52, 0
1, 72720, Note_on_c, 1, 81, 127
1, 72720, Note_on_c, 1, 53, 127
1, 72720, Note_on_c, 1, 65, 127
1, 72779, Note_off_c, 1, 81, 0
1, 72779, Note_off_c, 1, 53, 0
1, 72779, Note_off_c, 1, 65, 0
1, 72780, Note_on_c, 1, 79, 127
1, 72780, Note_on_c, 1, 52, 127
1, 72839, Note_off_c, 1, 79, 0
1, 72840, Note_on_c, 1, 76, 127
1, 72899, Note_off_c, 1, 52, 0
1, 72899, Note_off_c, 1, 76, 0
1, 72900, Note_on_c, 1, 72, 127
1, 72900, Note_on_c, 1, 57, 127
1, 72959, Note_off_c, 1, 72, 0
1, 72959, Note_off_c, 1, 57, 0
1, 72960, Note_on_c, 1, 71, 127
1, 72960, Note_on_c, 1, 50, 127
1, 73019, Note_off_c, 1, 71, 0
1, 73020, Note_on_c, 1, 77, 127
1, 73079, Note_off_c, 1, 50, 0
1, 73079, Note_off_c, 1, 77, 0
1, 73080, Note_on_c, 1, 74, 127
1, 73080, Note_on_c, 1, 55, 127
1, 73139, Note_off_c, 1, 74, 0
1, 73139, Note_off_c, 1, 55, 0
1, 73140, Note_on_c, 1, 76, 127
1, 73140, Note_on_c, 1, 48, 127
1, 73155, Note_on_c, 1, 77, 127
1, 73170, Note_off_c, 1, 77, 0
1, 73200, Note_on_c, 1, 74, 127
1, 73259, Note_off_c, 1, 48, 0
1, 73259, Note_off_c, 1, 74, 0
1, 73260, Note_on_c, 1, 72, 127
1, 73260, Note_on_c, 1, 47, 127
1, 73319, Note_off_c, 1, 72, 0
1, 73319, Note_off_c, 1, 47, 0
1, 73320, Note_on_c, 1, 84, 127
1, 73320, Note_on_c, 1, 45, 127
1, 73379, Note_off_c, 1, 84, 0
1, 73380, Note_on_c, 1, 81, 127
1, 73439, Note_off_c, 1, 76, 0
1, 73439, Note_off_c, 1, 45, 0
1, 73439, Note_off_c, 1, 81, 0
1, 73440, Note_on_c, 1, 83, 127
1, 73440, Note_on_c, 1, 77, 127
1, 73440, Note_on_c, 1, 44, 127
1, 73499, Note_off_c, 1, 83, 0
1, 73499, Note_off_c, 1, 77, 0
1, 73499, Note_off_c, 1, 44, 0
1, 73500, Note_on_c, 1, 76, 127
1, 73500, Note_on_c, 1, 45, 127
1, 73559, Note_off_c, 1, 76, 0
1, 73560, Note_on_c, 1, 72, 127
1, 73619, Note_off_c, 1, 45, 0
1, 73619, Note_off_c, 1, 72, 0
1, 73620, Note_on_c, 1, 69, 127
1, 73620, Note_on_c, 1, 48, 127
1, 73679, Note_off_c, 1, 69, 0
1, 73679, Note_off_c, 1, 48, 0
1, 73680, Note_on_c, 1, 77, 127
1, 73680, Note_on_c, 1, 68, 127
1, 73680, Note_on_c, 1, 47, 127
1, 73739, Note_off_c, 1, 77, 0
1, 73739, Note_off_c, 1, 68, 0
1, 73740, Note_on_c, 1, 74, 127
1, 73799, Note_off_c, 1, 47, 0
1, 73799, Note_off_c, 1, 74, 0
1, 73800, Note_on_c, 1, 76, 127
1, 73800, Note_on_c, 1, 71, 127
1, 73800, Note_on_c, 1, 56, 127
1, 73859, Note_off_c, 1, 76, 0
1, 73859, Note_off_c, 1, 71, 0
1, 73859, Note_off_c, 1, 56, 0
1, 73860, Note_on_c, 1, 72, 127
1, 73860, Note_on_c, 1, 57, 127
1, 73919, Note_off_c, 1, 72, 0
1, 73920, Note_on_c, 1, 71, 127
1, 73979, Note_off_c, 1, 57, 0
1, 73979, Note_off_c, 1, 71, 0
1, 73980, Note_on_c, 1, 69, 127
1, 73980, Note_on_c, 1, 55, 127
1, 74039, Note_off_c, 1, 69, 0
1, 74039, Note_off_c, 1, 55, 0
1, 74040, Note_on_c, 1, 76, 127
1, 74040, Note_on_c, 1, 74, 127
1, 74040, Note_on_c, 1, 54, 127
1, 74099, Note_off_c, 1, 76, 0
1, 74100, Note_on_c, 1, 72, 127
1, 74159, Note_off_c, 1, 74, 0
1, 74159, Note_off_c, 1, 54, 0
1, 74159, Note_off_c, 1, 72, 0
1, 74160, Note_on_c, 1, 74, 127
1, 74160, Note_on_c, 1, 76, 127
1, 74160, Note_on_c, 1, 42, 127
1, 74219, Note_off_c, 1, 74, 0
1, 74219, Note_off_c, 1, 76, 0
1, 74219, Note_off_c, 1, 42, 0
1, 74220, Note_on_c, 1, 74, 127
1, 74220, Note_on_c, 1, 43, 127
1, 74279, Note_off_c, 1, 74, 0
1, 74280, Note_on_c, 1, 71, 127
1, 74339, Note_off_c, 1, 43, 0
1, 74339, Note_off_c, 1, 71, 0
1, 74340, Note_on_c, 1, 67, 127
1, 74340, Note_on_c, 1, 47, 127
1, 74399, Note_off_c, 1, 67, 0
1, 74399, Note_off_c, 1, 47, 0
1, 74400, Note_on_c, 1, 81, 127
1, 74400, Note_on_c, 1, 66, 127
1, 74400, Note_on_c, 1, 50, 127
1, 74459, Note_off_c, 1, 81, 0
1, 74459, Note_off_c, 1, 66, 0
1, 74460, Note_on_c, 1, 78, 127
1, 74460, Note_on_c, 1, 72, 127
1, 74519, Note_off_c, 1, 50, 0
1, 74519, Note_off_c, 1, 78, 0
1, 74519, Note_off_c, 1, 72, 0
1, 74520, Note_on_c, 1, 79, 127
1, 74520, Note_on_c, 1, 69, 127
1, 74520, Note_on_c, 1, 62, 127
1, 74579, Note_off_c, 1, 79, 0
1, 74579, Note_off_c, 1, 69, 0
1, 74579, Note_off_c, 1, 62, 0
1, 74580, Note_on_c, 1, 71, 127
1, 74580, Note_on_c, 1, 55, 127
1, 74639, Note_off_c, 1, 71, 0
1, 74640, Note_on_c, 1, 69, 127
1, 74699, Note_off_c, 1, 55, 0
1, 74699, Note_off_c, 1, 69, 0
1, 74700, Note_on_c, 1, 67, 127
1, 74700, Note_on_c, 1, 57, 127
1, 74759, Note_off_c, 1, 67, 0
1, 74759, Note_off_c, 1, 57, 0
1, 74760, Note_on_c, 1, 79, 127
1, 74760, Note_on_c, 1, 62, 127
1, 74760, Note_on_c, 1, 59, 127
1, 74819, Note_off_c, 1, 62, 0
1, 74820, Note_on_c, 1, 64, 127
1, 74879, Note_off_c, 1, 59, 0
1, 74879, Note_off_c, 1, 64, 0
1, 74880, Note_on_c, 1, 65, 127
1, 74880, Note_on_c, 1, 55, 127
1, 74939, Note_off_c, 1, 65, 0
1, 74939, Note_off_c, 1, 55, 0
1, 74940, Note_on_c, 1, 60, 127
1, 74999, Note_off_c, 1, 79, 0
1, 75000, Note_on_c, 1, 74, 127
1, 75000, Note_on_c, 1, 66, 127
1, 75059, Note_off_c, 1, 60, 0
1, 75059, Note_off_c, 1, 74, 0
1, 75059, Note_off_c, 1, 66, 0
1, 75060, Note_on_c, 1, 76, 127
1, 75060, Note_on_c, 1, 67, 127
1, 75060, Note_on_c, 1, 59, 127
1, 75119, Note_off_c, 1, 76, 0
1, 75119, Note_off_c, 1, 67, 0
1, 75119, Note_off_c, 1, 59, 0
1, 75120, Note_on_c, 1, 72, 127
1, 75120, Note_on_c, 1, 66, 127
1, 75120, Note_on_c, 1, 57, 127
1, 75149, Note_off_c, 1, 66, 0
1, 75150, Note_on_c, 1, 67, 127
1, 75179, Note_off_c, 1, 72, 0
1, 75179, Note_off_c, 1, 67, 0
1, 75180, Note_on_c, 1, 69, 127
1, 75239, Note_off_c, 1, 57, 0
1, 75239, Note_off_c, 1, 69, 0
1, 75240, Note_on_c, 1, 71, 127
1, 75240, Note_on_c, 1, 69, 127
1, 75240, Note_on_c, 1, 55, 127
1, 75254, Note_off_c, 1, 69, 0
1, 75255, Note_on_c, 1, 67, 127
1, 75269, Note_off_c, 1, 67, 0
1, 75270, Note_on_c, 1, 66, 127
1, 75284, Note_off_c, 1, 66, 0
1, 75299, Note_off_c, 1, 71, 0
1, 75299, Note_off_c, 1, 55, 0
1, 75300, Note_on_c, 1, 67, 127
1, 75300, Note_on_c, 1, 69, 127
1, 75300, Note_on_c, 1, 62, 127
1, 75359, Note_off_c, 1, 67, 0
1, 75360, Note_on_c, 1, 64, 127
1, 75419, Note_off_c, 1, 69, 0
1, 75419, Note_off_c, 1, 62, 0
1, 75419, Note_off_c, 1, 64, 0
1, 75420, Note_on_c, 1, 66, 127
1, 75420, Note_on_c, 1, 57, 127
1, 75479, Note_off_c, 1, 66, 0
1, 75479, Note_off_c, 1, 57, 0
1, 75480, Note_on_c, 1, 62, 127
1, 75480, Note_on_c, 1, 54, 127
1, 75539, Note_off_c, 1, 62, 0
1, 75540, Note_on_c, 1, 72, 127
1, 75599, Note_off_c, 1, 54, 0
1, 75600, Note_on_c, 1, 50, 127
1, 75659, Note_off_c, 1, 72, 0
1, 75659, Note_off_c, 1, 50, 0
1, 75660, Note_on_c, 1, 71, 127
1, 75660, Note_on_c, 1, 55, 127
1, 75719, Note_off_c, 1, 71, 0
1, 75720, Note_on_c, 1, 66, 127
1, 75779, Note_off_c, 1, 55, 0
1, 75779, Note_off_c, 1, 66, 0
1, 75780, Note_on_c, 1, 67, 127
1, 75780, Note_on_c, 1, 52, 127
1, 75839, Note_off_c, 1, 67, 0
1, 75839, Note_off_c, 1, 52, 0
1, 75840, Note_on_c, 1, 76, 127
1, 75840, Note_on_c, 1, 48, 127
1, 75899, Note_off_c, 1, 76, 0
1, 75900, Note_on_c, 1, 74, 127
1, 75959, Note_off_c, 1, 48, 0
1, 75959, Note_off_c, 1, 74, 0
1, 75960, Note_on_c, 1, 66, 127
1, 75960, Note_on_c, 1, 50, 127
1, 76019, Note_off_c, 1, 66, 0
1, 76019, Note_off_c, 1, 50, 0
1, 76020, Note_on_c, 1, 72, 127
1, 76020, Note_on_c, 1, 43, 127
1, 76079, Note_off_c, 1, 72, 0
1, 76080, Note_on_c, 1, 71, 127
1, 76139, Note_off_c, 1, 43, 0
1, 76139, Note_off_c, 1, 71, 0
1, 76200, Note_on_c, 1, 72, 127
1, 76260, Note_off_c, 1, 72, 0
1, 76260, Note_on_c, 1, 71, 127
1, 76320, Note_off_c, 1, 71, 0
1, 76380, Note_on_c, 1, 72, 127
1, 76440, Note_off_c, 1, 72, 0
1, 76440, Note_on_c, 1, 71, 127
1, 76500, Note_off_c, 1, 71, 0
1, 76500, Note_on_c, 1, 43, 127
1, 76559, Note_off_c, 1, 43, 0
1, 76560, Note_on_c, 1, 67, 127
1, 76560, Note_on_c, 1, 47, 127
1, 76619, Note_off_c, 1, 67, 0
1, 76620, Note_on_c, 1, 74, 127
1, 76679, Note_off_c, 1, 47, 0
1, 76680, Note_on_c, 1, 43, 127
1, 76709, Note_off_c, 1, 74, 0
1, 76710, Note_on_c, 1, 76, 127
1, 76724, Note_off_c, 1, 76, 0
1, 76725, Note_on_c, 1, 77, 127
1, 76739, Note_off_c, 1, 43, 0
1, 76739, Note_off_c, 1, 77, 0
1, 76740, Note_on_c, 1, 76, 127
1, 76740, Note_on_c, 1, 48, 127
1, 76799, Note_off_c, 1, 76, 0
1, 76800, Note_on_c, 1, 71, 127
1, 76859, Note_off_c, 1, 48, 0
1, 76859, Note_off_c, 1, 71, 0
1, 76860, Note_on_c, 1, 72, 127
1, 76919, Note_off_c, 1, 72, 0
1, 76920, Note_on_c, 1, 76, 127
1, 76980, Note_off_c, 1, 76, 0
1, 76980, Note_on_c, 1, 71, 127
1, 77040, Note_off_c, 1, 71, 0
1, 77040, Note_on_c, 1, 72, 127
1, 77100, Note_off_c, 1, 72, 0
1, 77100, Note_on_c, 1, 77, 127
1, 77100, Note_on_c, 1, 46, 127
1, 77160, Note_off_c, 1, 77, 0
1, 77219, Note_off_c, 1, 46, 0
1, 77280, Note_on_c, 1, 77, 127
1, 77340, Note_off_c, 1, 77, 0
1, 77340, Note_on_c, 1, 76, 127
1, 77400, Note_off_c, 1, 76, 0
1, 77460, Note_on_c, 1, 77, 127
1, 77460, Note_on_c, 1, 45, 127
1, 77520, Note_off_c, 1, 77, 0
1, 77520, Note_on_c, 1, 76, 127
1, 77579, Note_off_c, 1, 45, 0
1, 77580, Note_off_c, 1, 76, 0
1, 77640, Note_on_c, 1, 67, 127
1, 77640, Note_on_c, 1, 49, 127
1, 77699, Note_off_c, 1, 67, 0
1, 77700, Note_on_c, 1, 66, 127
1, 77759, Note_off_c, 1, 49, 0
1, 77759, Note_off_c, 1, 66, 0
1, 77760, Note_on_c, 1, 67, 127
1, 77760, Note_on_c, 1, 45, 127
1, 77819, Note_off_c, 1, 67, 0
1, 77819, Note_off_c, 1, 45, 0
1, 77820, Note_on_c, 1, 66, 127
1, 77820, Note_on_c, 1, 50, 127
1, 77879, Note_off_c, 1, 66, 0
1, 77880, Note_on_c, 1, 67, 127
1, 77939, Note_off_c, 1, 50, 0
1, 77939, Note_off_c, 1, 67, 0
1, 77940, Note_on_c, 1, 69, 127
1, 77940, Note_on_c, 1, 62, 127
1, 77999, Note_off_c, 1, 69, 0
1, 77999, Note_off_c, 1, 62, 0
1, 78000, Note_on_c, 1, 66, 127
1, 78000, Note_on_c, 1, 69, 127
1, 78000, Note_on_c, 1, 57, 127
1, 78059, Note_off_c, 1, 66, 0
1, 78059, Note_off_c, 1, 69, 0
1, 78060, Note_on_c, 1, 67, 127
1, 78060, Note_on_c, 1, 71, 127
1, 78119, Note_off_c, 1, 57, 0
1, 78119, Note_off_c, 1, 67, 0
1, 78119, Note_off_c, 1, 71, 0
1, 78120, Note_on_c, 1, 69, 127
1, 78120, Note_on_c, 1, 72, 127
1, 78120, Note_on_c, 1, 54, 127
1, 78179, Note_off_c, 1, 69, 0
1, 78179, Note_off_c, 1, 72, 0
1, 78179, Note_off_c, 1, 54, 0
1, 78180, Note_on_c, 1, 69, 127
1, 78180, Note_on_c, 1, 72, 127
1, 78180, Note_on_c, 1, 50, 127
1, 78239, Note_off_c, 1, 69, 0
1, 78239, Note_off_c, 1, 72, 0
1, 78240, Note_on_c, 1, 71, 127
1, 78240, Note_on_c, 1, 74, 127
1, 78299, Note_off_c, 1, 50, 0
1, 78299, Note_off_c, 1, 71, 0
1, 78299, Note_off_c, 1, 74, 0
1, 78300, Note_on_c, 1, 72, 127
1, 78300, Note_on_c, 1, 76, 127
1, 78300, Note_on_c, 1, 45, 127
1, 78359, Note_off_c, 1, 72, 0
1, 78359, Note_off_c, 1, 76, 0
1, 78359, Note_off_c, 1, 45, 0
1, 78360, Note_on_c, 1, 72, 127
1, 78360, Note_on_c, 1, 76, 127
1, 78360, Note_on_c, 1, 42, 127
1, 78419, Note_off_c, 1, 72, 0
1, 78419, Note_off_c, 1, 76, 0
1, 78420, Note_on_c, 1, 74, 127
1, 78479, Note_off_c, 1, 42, 0
1, 78479, Note_off_c, 1, 74, 0
1, 78480, Note_on_c, 1, 76, 127
1, 78480, Note_on_c, 1, 72, 127
1, 78480, Note_on_c, 1, 54, 127
1, 78539, Note_off_c, 1, 76, 0
1, 78539, Note_off_c, 1, 72, 0
1, 78539, Note_off_c, 1, 54, 0
1, 78540, Note_on_c, 1, 74, 127
1, 78540, Note_on_c, 1, 71, 127
1, 78540, Note_on_c, 1, 55, 127
1, 78599, Note_off_c, 1, 74, 0
1, 78599, Note_off_c, 1, 71, 0
1, 78600, Note_on_c, 1, 72, 127
1, 78600, Note_on_c, 1, 69, 127
1, 78659, Note_off_c, 1, 55, 0
1, 78659, Note_off_c, 1, 72, 0
1, 78659, Note_off_c, 1, 69, 0
1, 78660, Note_on_c, 1, 71, 127
1, 78660, Note_on_c, 1, 67, 127
1, 78719, Note_off_c, 1, 71, 0
1, 78719, Note_off_c, 1, 67, 0
1, 78720, Note_on_c, 1, 83, 127
1, 78720, Note_on_c, 1, 65, 127
1, 78720, Note_on_c, 1, 43, 127
1, 78779, Note_off_c, 1, 65, 0
1, 78780, Note_on_c, 1, 64, 127
1, 78839, Note_off_c, 1, 43, 0
1, 78839, Note_off_c, 1, 64, 0
1, 78900, Note_on_c, 1, 48, 127
1, 78959, Note_off_c, 1, 83, 0
1, 78960, Note_on_c, 1, 81, 127
1, 79019, Note_off_c, 1, 48, 0
1, 79019, Note_off_c, 1, 81, 0
1, 79020, Note_on_c, 1, 79, 127
1, 79020, Note_on_c, 1, 52, 127
1, 79079, Note_off_c, 1, 79, 0
1, 79079, Note_off_c, 1, 52, 0
1, 79140, Note_on_c, 1, 78, 127
1, 79140, Note_on_c, 1, 69, 127
1, 79199, Note_off_c, 1, 78, 0
1, 79199, Note_off_c, 1, 69, 0
1, 79200, Note_on_c, 1, 79, 127
1, 79200, Note_on_c, 1, 72, 127
1, 79200, Note_on_c, 1, 45, 127
1, 79259, Note_off_c, 1, 79, 0
1, 79259, Note_off_c, 1, 72, 0
1, 79259, Note_off_c, 1, 45, 0
1, 79260, Note_on_c, 1, 78, 127
1, 79260, Note_on_c, 1, 72, 127
1, 79260, Note_on_c, 1, 50, 127
1, 79319, Note_off_c, 1, 72, 0
1, 79320, Note_on_c, 1, 66, 127
1, 79379, Note_off_c, 1, 78, 0
1, 79379, Note_off_c, 1, 50, 0
1, 79379, Note_off_c, 1, 66, 0
1, 79440, Note_on_c, 1, 72, 127
1, 79499, Note_off_c, 1, 72, 0
1, 79500, Note_on_c, 1, 66, 127
1, 79559, Note_off_c, 1, 66, 0
1, 79620, Note_on_c, 1, 78, 127
1, 79620, Note_on_c, 1, 55, 127
1, 79679, Note_off_c, 1, 78, 0
1, 79680, Note_on_c, 1, 79, 127
1, 79739, Note_off_c, 1, 55, 0
1, 79739, Note_off_c, 1, 79, 0
1, 79800, Note_on_c, 1, 78, 127
1, 79859, Note_off_c, 1, 78, 0
1, 79860, Note_on_c, 1, 79, 127
1, 79919, Note_off_c, 1, 79, 0
1, 79980, Note_on_c, 1, 78, 127
1, 80039, Note_off_c, 1, 78, 0
1, 80040, Note_on_c, 1, 79, 127
1, 80099, Note_off_c, 1, 79, 0
1, 80160, Note_on_c, 1, 74, 127
1, 80160, Note_on_c, 1, 52, 127
1, 80219, Note_off_c, 1, 74, 0
1, 80220, Note_on_c, 1, 73, 127
1, 80279, Note_off_c, 1, 52, 0
1, 80279, Note_off_c, 1, 73, 0
1, 80340, Note_on_c, 1, 74, 127
1, 80399, Note_off_c, 1, 74, 0
1, 80400, Note_on_c, 1, 73, 127
1, 80459, Note_off_c, 1, 73, 0
1, 80520, Note_on_c, 1, 74, 127
1, 80579, Note_off_c, 1, 74, 0
1, 80580, Note_on_c, 1, 73, 127
1, 80639, Note_off_c, 1, 73, 0
1, 80700, Note_on_c, 1, 67, 127
1, 80700, Note_on_c, 1, 50, 127
1, 80759, Note_off_c, 1, 67, 0
1, 80760, Note_on_c, 1, 66, 127
1, 80819, Note_off_c, 1, 50, 0
1, 80819, Note_off_c, 1, 66, 0
1, 80880, Note_on_c, 1, 67, 127
1, 80939, Note_off_c, 1, 67, 0
1, 80940, Note_on_c, 1, 66, 127
1, 80999, Note_off_c, 1, 66, 0
1, 81060, Note_on_c, 1, 67, 127
1, 81119, Note_off_c, 1, 67, 0
1, 81120, Note_on_c, 1, 66, 127
1, 81179, Note_off_c, 1, 66, 0
1, 81240, Note_on_c, 1, 62, 127
1, 81240, Note_on_c, 1, 54, 127
1, 81299, Note_off_c, 1, 62, 0
1, 81300, Note_on_c, 1, 72, 127
1, 81359, Note_off_c, 1, 54, 0
1, 81360, Note_on_c, 1, 50, 127
1, 81419, Note_off_c, 1, 72, 0
1, 81419, Note_off_c, 1, 50, 0
1, 81420, Note_on_c, 1, 71, 127
1, 81420, Note_on_c, 1, 55, 127
1, 81479, Note_off_c, 1, 71, 0
1, 81480, Note_on_c, 1, 66, 127
1, 81539, Note_off_c, 1, 55, 0
1, 81539, Note_off_c, 1, 66, 0
1, 81540, Note_on_c, 1, 67, 127
1, 81540, Note_on_c, 1, 52, 127
1, 81599, Note_off_c, 1, 67, 0
1, 81599, Note_off_c, 1, 52, 0
1, 81600, Note_on_c, 1, 76, 127
1, 81600, Note_on_c, 1, 48, 127
1, 81659, Note_off_c, 1, 76, 0
1, 81660, Note_on_c, 1, 74, 127
1, 81719, Note_off_c, 1, 48, 0
1, 81719, Note_off_c, 1, 74, 0
1, 81720, Note_on_c, 1, 66, 127
1, 81720, Note_on_c, 1, 50, 127
1, 81779, Note_off_c, 1, 66, 0
1, 81779, Note_off_c, 1, 50, 0
1, 81780, Note_on_c, 1, 67, 127
1, 81780, Note_on_c, 1, 43, 127
1, 81899, Note_off_c, 1, 43, 0
1, 81900, Note_on_c, 1, 45, 127
1, 81959, Note_off_c, 1, 45, 0
1, 81960, Note_off_c, 1, 67, 0
1, 81960, Note_on_c, 1, 74, 127
1, 81960, Note_on_c, 1, 47, 127
1, 82079, Note_off_c, 1, 74, 0
1, 82079, Note_off_c, 1, 47, 0
1, 82080, Note_on_c, 1, 76, 127
1, 82080, Note_on_c, 1, 48, 127
1, 82139, Note_off_c, 1, 76, 0
1, 82139, Note_off_c, 1, 48, 0
1, 82140, Note_on_c, 1, 74, 127
1, 82140, Note_on_c, 1, 47, 127
1, 82199, Note_off_c, 1, 74, 0
1, 82200, Note_on_c, 1, 71, 127
1, 82259, Note_off_c, 1, 47, 0
1, 82259, Note_off_c, 1, 71, 0
1, 82260, Note_on_c, 1, 67, 127
1, 82260, Note_on_c, 1, 52, 127
1, 82319, Note_off_c, 1, 67, 0
1, 82319, Note_off_c, 1, 52, 0
1, 82320, Note_on_c, 1, 66, 127
1, 82320, Note_on_c, 1, 45, 127
1, 82379, Note_off_c, 1, 66, 0
1, 82380, Note_on_c, 1, 72, 127
1, 82439, Note_off_c, 1, 45, 0
1, 82439, Note_off_c, 1, 72, 0
1, 82440, Note_on_c, 1, 69, 127
1, 82440, Note_on_c, 1, 50, 127
1, 82499, Note_off_c, 1, 69, 0
1, 82499, Note_off_c, 1, 50, 0
1, 82500, Note_on_c, 1, 71, 127
1, 82500, Note_on_c, 1, 43, 127
1, 82515, Note_off_c, 1, 71, 0
1, 82515, Note_on_c, 1, 72, 127
1, 82530, Note_off_c, 1, 72, 0
1, 82559, Note_off_c, 1, 43, 0
1, 82560, Note_on_c, 1, 69, 127
1, 82560, Note_on_c, 1, 45, 127
1, 82619, Note_off_c, 1, 69, 0
1, 82619, Note_off_c, 1, 45, 0
1, 82620, Note_on_c, 1, 67, 127
1, 82620, Note_on_c, 1, 47, 127
1, 82679, Note_off_c, 1, 67, 0
1, 82679, Note_off_c, 1, 47, 0
1, 82680, Note_on_c, 1, 76, 127
1, 82680, Note_on_c, 1, 48, 127
1, 82799, Note_off_c, 1, 76, 0
1, 82799, Note_off_c, 1, 48, 0
1, 82800, Note_on_c, 1, 77, 127
1, 82800, Note_on_c, 1, 47, 127
1, 82859, Note_off_c, 1, 77, 0
1, 82859, Note_off_c, 1, 47, 0
1, 82860, Note_on_c, 1, 76, 127
1, 82860, Note_on_c, 1, 48, 127
1, 82919, Note_off_c, 1, 76, 0
1, 82920, Note_on_c, 1, 72, 127
1, 82979, Note_off_c, 1, 48, 0
1, 82979, Note_off_c, 1, 72, 0
1, 82980, Note_on_c, 1, 69, 127
1, 82980, Note_on_c, 1, 50, 127
1, 83039, Note_off_c, 1, 69, 0
1, 83039, Note_off_c, 1, 50, 0
1, 83040, Note_on_c, 1, 68, 127
1, 83040, Note_on_c, 1, 52, 127
1, 83099, Note_off_c, 1, 68, 0
1, 83100, Note_on_c, 1, 74, 127
1, 83159, Note_off_c, 1, 52, 0
1, 83159, Note_off_c, 1, 74, 0
1, 83160, Note_on_c, 1, 71, 127
1, 83160, Note_on_c, 1, 40, 127
1, 83219, Note_off_c, 1, 71, 0
1, 83219, Note_off_c, 1, 40, 0
1, 83220, Note_on_c, 1, 72, 127
1, 83220, Note_on_c, 1, 45, 127
1, 83279, Note_off_c, 1, 72, 0
1, 83280, Note_on_c, 1, 71, 127
1, 83339, Note_off_c, 1, 71, 0
1, 83340, Note_on_c, 1, 69, 127
1, 83399, Note_off_c, 1, 69, 0
1, 83400, Note_on_c, 1, 67, 127
1, 83459, Note_off_c, 1, 45, 0
1, 83459, Note_off_c, 1, 67, 0
1, 83460, Note_on_c, 1, 66, 127
1, 83460, Note_on_c, 1, 57, 127
1, 83519, Note_off_c, 1, 66, 0
1, 83519, Note_off_c, 1, 57, 0
1, 83520, Note_on_c, 1, 64, 127
1, 83520, Note_on_c, 1, 55, 127
1, 83579, Note_off_c, 1, 64, 0
1, 83579, Note_off_c, 1, 55, 0
1, 83580, Note_on_c, 1, 62, 127
1, 83580, Note_on_c, 1, 54, 127
1, 83639, Note_off_c, 1, 62, 0
1, 83639, Note_off_c, 1, 54, 0
1, 83640, Note_on_c, 1, 72, 127
1, 83640, Note_on_c, 1, 52, 127
1, 83699, Note_off_c, 1, 72, 0
1, 83699, Note_off_c, 1, 52, 0
1, 83700, Note_on_c, 1, 69, 127
1, 83700, Note_on_c, 1, 54, 127
1, 83759, Note_off_c, 1, 69, 0
1, 83759, Note_off_c, 1, 54, 0
1, 83760, Note_on_c, 1, 71, 127
1, 83760, Note_on_c, 1, 55, 127
1, 83789, Note_off_c, 1, 71, 0
1, 83790, Note_on_c, 1, 73, 127
1, 83819, Note_off_c, 1, 55, 0
1, 83819, Note_off_c, 1, 73, 0
1, 83820, Note_on_c, 1, 74, 127
1, 83820, Note_on_c, 1, 54, 127
1, 83834, Note_off_c, 1, 74, 0
1, 83835, Note_on_c, 1, 73, 127
1, 83849, Note_off_c, 1, 73, 0
1, 83879, Note_off_c, 1, 54, 0
1, 83880, Note_on_c, 1, 74, 127
1, 83880, Note_on_c, 1, 52, 127
1, 83894, Note_off_c, 1, 74, 0
1, 83895, Note_on_c, 1, 73, 127
1, 83909, Note_off_c, 1, 73, 0
1, 83910, Note_on_c, 1, 71, 127
1, 83924, Note_off_c, 1, 71, 0
1, 83939, Note_off_c, 1, 52, 0
1, 83940, Note_on_c, 1, 74, 127
1, 83940, Note_on_c, 1, 54, 127
1, 83999, Note_off_c, 1, 54, 0
1, 84000, Note_on_c, 1, 57, 127
1, 84059, Note_off_c, 1, 57, 0
1, 84060, Note_on_c, 1, 55, 127
1, 84119, Note_off_c, 1, 74, 0
1, 84119, Note_off_c, 1, 55, 0
1, 84120, Note_on_c, 1, 62, 127
1, 84120, Note_on_c, 1, 54, 127
1, 84149, Note_off_c, 1, 62, 0
1, 84179, Note_off_c, 1, 54, 0
1, 84180, Note_on_c, 1, 72, 127
1, 84180, Note_on_c, 1, 52, 127
1, 84239, Note_off_c, 1, 52, 0
1, 84240, Note_on_c, 1, 50, 127
1, 84299, Note_off_c, 1, 72, 0
1, 84299, Note_off_c, 1, 50, 0
1, 84300, Note_on_c, 1, 71, 127
1, 84300, Note_on_c, 1, 55, 127
1, 84359, Note_off_c, 1, 71, 0
1, 84360, Note_on_c, 1, 66, 127
1, 84419, Note_off_c, 1, 55, 0
1, 84419, Note_off_c, 1, 66, 0
1, 84420, Note_on_c, 1, 67, 127
1, 84420, Note_on_c, 1, 52, 127
1, 84479, Note_off_c, 1, 67, 0
1, 84479, Note_off_c, 1, 52, 0
1, 84480, Note_on_c, 1, 76, 127
1, 84480, Note_on_c, 1, 48, 127
1, 84539, Note_off_c, 1, 76, 0
1, 84540, Note_on_c, 1, 74, 127
1, 84599, Note_off_c, 1, 48, 0
1, 84599, Note_off_c, 1, 74, 0
1, 84600, Note_on_c, 1, 66, 127
1, 84600, Note_on_c, 1, 50, 127
1, 84659, Note_off_c, 1, 66, 0
1, 84659, Note_off_c, 1, 50, 0
1, 84660, Note_on_c, 1, 67, 127
1, 84660, Note_on_c, 1, 43, 127
1, 84779, Note_off_c, 1, 43, 0
1, 84780, Note_on_c, 1, 55, 127
1, 84839, Note_off_c, 1, 67, 0
1, 84839, Note_off_c, 1, 55, 0
1, 84840, Note_on_c, 1, 74, 127
1, 84840, Note_on_c, 1, 54, 127
1, 84899, Note_off_c, 1, 54, 0
1, 84900, Note_on_c, 1, 52, 127
1, 84959, Note_off_c, 1, 74, 0
1, 84959, Note_off_c, 1, 52, 0
1, 84960, Note_on_c, 1, 72, 127
1, 84960, Note_on_c, 1, 50, 127
1, 85019, Note_off_c, 1, 72, 0
1, 85019, Note_off_c, 1, 50, 0
1, 85020, Note_on_c, 1, 71, 127
1, 85020, Note_on_c, 1, 55, 127
1, 85079, Note_off_c, 1, 71, 0
1, 85080, Note_on_c, 1, 69, 127
1, 85139, Note_off_c, 1, 55, 0
1, 85139, Note_off_c, 1, 69, 0
1, 85140, Note_on_c, 1, 67, 127
1, 85140, Note_on_c, 1, 53, 127
1, 85199, Note_off_c, 1, 67, 0
1, 85199, Note_off_c, 1, 53, 0
1, 85200, Note_on_c, 1, 72, 127
1, 85200, Note_on_c, 1, 52, 127
1, 85259, Note_off_c, 1, 52, 0
1, 85260, Note_off_c, 1, 72, 0
1, 85260, Note_on_c, 1, 69, 127
1, 85260, Note_on_c, 1, 76, 127
1, 85260, Note_on_c, 1, 53, 127
1, 85319, Note_off_c, 1, 76, 0
1, 85319, Note_off_c, 1, 53, 0
1, 85320, Note_off_c, 1, 69, 0
1, 85320, Note_on_c, 1, 71, 127
1, 85320, Note_on_c, 1, 74, 127
1, 85320, Note_on_c, 1, 55, 127
1, 85379, Note_off_c, 1, 74, 0
1, 85379, Note_off_c, 1, 55, 0
1, 85380, Note_off_c, 1, 71, 0
1, 85380, Note_on_c, 1, 48, 127
1, 85499, Note_off_c, 1, 48, 0
1, 85500, Note_on_c, 1, 72, 127
1, 85500, Note_on_c, 1, 52, 127
1, 85559, Note_off_c, 1, 72, 0
1, 85559, Note_off_c, 1, 52, 0
1, 85560, Note_on_c, 1, 71, 127
1, 85560, Note_on_c, 1, 50, 127
1, 85619, Note_off_c, 1, 71, 0
1, 85620, Note_on_c, 1, 72, 127
1, 85679, Note_off_c, 1, 50, 0
1, 85679, Note_off_c, 1, 72, 0
1, 85680, Note_on_c, 1, 69, 127
1, 85680, Note_on_c, 1, 48, 127
1, 85739, Note_off_c, 1, 69, 0
1, 85739, Note_off_c, 1, 48, 0
1, 85740, Note_on_c, 1, 77, 127
1, 85740, Note_on_c, 1, 47, 127
1, 85799, Note_off_c, 1, 77, 0
1, 85800, Note_on_c, 1, 76, 127
1, 85859, Note_off_c, 1, 47, 0
1, 85859, Note_off_c, 1, 76, 0
1, 85860, Note_on_c, 1, 74, 127
1, 85860, Note_on_c, 1, 48, 127
1, 85919, Note_off_c, 1, 74, 0
1, 85919, Note_off_c, 1, 48, 0
1, 85920, Note_on_c, 1, 77, 127
1, 85920, Note_on_c, 1, 72, 127
1, 85920, Note_on_c, 1, 50, 127
1, 85979, Note_off_c, 1, 72, 0
1, 85980, Note_on_c, 1, 71, 127
1, 86039, Note_off_c, 1, 50, 0
1, 86039, Note_off_c, 1, 71, 0
1, 86040, Note_on_c, 1, 69, 127
1, 86040, Note_on_c, 1, 47, 127
1, 86099, Note_off_c, 1, 69, 0
1, 86099, Note_off_c, 1, 47, 0
1, 86100, Note_on_c, 1, 68, 127
1, 86100, Note_on_c, 1, 52, 127
1, 86160, Note_off_c, 1, 77, 0
1, 86160, Note_on_c, 1, 75, 127
1, 86219, Note_off_c, 1, 52, 0
1, 86220, Note_off_c, 1, 75, 0
1, 86220, Note_on_c, 1, 76, 127
1, 86220, Note_on_c, 1, 64, 127
1, 86279, Note_off_c, 1, 68, 0
1, 86279, Note_off_c, 1, 64, 0
1, 86280, Note_off_c, 1, 76, 0
1, 86280, Note_on_c, 1, 62, 127
1, 86340, Note_on_c, 1, 66, 127
1, 86399, Note_off_c, 1, 62, 0
1, 86399, Note_off_c, 1, 66, 0
1, 86400, Note_on_c, 1, 68, 127
1, 86400, Note_on_c, 1, 59, 127
1, 86459, Note_off_c, 1, 68, 0
1, 86459, Note_off_c, 1, 59, 0
1, 86460, Note_on_c, 1, 69, 127
1, 86460, Note_on_c, 1, 60, 127
1, 86519, Note_off_c, 1, 69, 0
1, 86520, Note_on_c, 1, 71, 127
1, 86579, Note_off_c, 1, 60, 0
1, 86579, Note_off_c, 1, 71, 0
1, 86580, Note_on_c, 1, 72, 127
1, 86580, Note_on_c, 1, 57, 127
1, 86639, Note_off_c, 1, 72, 0
1, 86639, Note_off_c, 1, 57, 0
1, 86640, Note_on_c, 1, 64, 127
1, 86640, Note_on_c, 1, 71, 127
1, 86640, Note_on_c, 1, 56, 127
1, 86699, Note_off_c, 1, 64, 0
1, 86699, Note_off_c, 1, 71, 0
1, 86700, Note_on_c, 1, 66, 127
1, 86700, Note_on_c, 1, 76, 127
1, 86759, Note_off_c, 1, 56, 0
1, 86759, Note_off_c, 1, 66, 0
1, 86759, Note_off_c, 1, 76, 0
1, 86760, Note_on_c, 1, 68, 127
1, 86760, Note_on_c, 1, 74, 127
1, 86760, Note_on_c, 1, 52, 127
1, 86819, Note_off_c, 1, 68, 0
1, 86819, Note_off_c, 1, 74, 0
1, 86819, Note_off_c, 1, 52, 0
1, 86820, Note_on_c, 1, 69, 127
1, 86820, Note_on_c, 1, 72, 127
1, 86820, Note_on_c, 1, 57, 127
1, 86879, Note_off_c, 1, 69, 0
1, 86879, Note_off_c, 1, 72, 0
1, 86880, Note_on_c, 1, 71, 127
1, 86939, Note_off_c, 1, 57, 0
1, 86939, Note_off_c, 1, 71, 0
1, 86940, Note_on_c, 1, 72, 127
1, 86940, Note_on_c, 1, 69, 127
1, 86940, Note_on_c, 1, 55, 127
1, 86999, Note_off_c, 1, 72, 0
1, 86999, Note_off_c, 1, 55, 0
1, 87000, Note_on_c, 1, 74, 127
1, 87000, Note_on_c, 1, 53, 127
1, 87059, Note_off_c, 1, 69, 0
1, 87059, Note_off_c, 1, 74, 0
1, 87059, Note_off_c, 1, 53, 0
1, 87060, Note_on_c, 1, 77, 127
1, 87060, Note_on_c, 1, 71, 127
1, 87060, Note_on_c, 1, 55, 127
1, 87119, Note_off_c, 1, 77, 0
1, 87119, Note_off_c, 1, 71, 0
1, 87119, Note_off_c, 1, 55, 0
1, 87120, Note_on_c, 1, 76, 127
1, 87120, Note_on_c, 1, 73, 127
1, 87120, Note_on_c, 1, 57, 127
1, 87179, Note_off_c, 1, 76, 0
1, 87179, Note_off_c, 1, 73, 0
1, 87179, Note_off_c, 1, 57, 0
1, 87180, Note_on_c, 1, 74, 127
1, 87180, Note_on_c, 1, 58, 127
1, 87239, Note_off_c, 1, 74, 0
1, 87240, Note_on_c, 1, 73, 127
1, 87240, Note_on_c, 1, 76, 127
1, 87299, Note_off_c, 1, 58, 0
1, 87299, Note_off_c, 1, 73, 0
1, 87299, Note_off_c, 1, 76, 0
1, 87300, Note_on_c, 1, 74, 127
1, 87300, Note_on_c, 1, 77, 127
1, 87300, Note_on_c, 1, 57, 127
1, 87359, Note_off_c, 1, 74, 0
1, 87359, Note_off_c, 1, 77, 0
1, 87359, Note_off_c, 1, 57, 0
1, 87360, Note_on_c, 1, 82, 127
1, 87360, Note_on_c, 1, 76, 127
1, 87360, Note_on_c, 1, 55, 127
1, 87419, Note_off_c, 1, 82, 0
1, 87419, Note_off_c, 1, 76, 0
1, 87420, Note_on_c, 1, 81, 127
1, 87420, Note_on_c, 1, 77, 127
1, 87479, Note_off_c, 1, 55, 0
1, 87479, Note_off_c, 1, 81, 0
1, 87479, Note_off_c, 1, 77, 0
1, 87480, Note_on_c, 1, 73, 127
1, 87480, Note_on_c, 1, 79, 127
1, 87480, Note_on_c, 1, 57, 127
1, 87539, Note_off_c, 1, 73, 0
1, 87539, Note_off_c, 1, 79, 0
1, 87539, Note_off_c, 1, 57, 0
1, 87540, Note_on_c, 1, 74, 127
1, 87540, Note_on_c, 1, 77, 127
1, 87540, Note_on_c, 1, 50, 127
1, 87599, Note_off_c, 1, 77, 0
1, 87600, Note_on_c, 1, 76, 127
1, 87659, Note_off_c, 1, 74, 0
1, 87659, Note_off_c, 1, 50, 0
1, 87659, Note_off_c, 1, 76, 0
1, 87660, Note_on_c, 1, 74, 127
1, 87660, Note_on_c, 1, 53, 127
1, 87719, Note_off_c, 1, 74, 0
1, 87719, Note_off_c, 1, 53, 0
1, 87720, Note_on_c, 1, 77, 127
1, 87720, Note_on_c, 1, 57, 127
1, 87749, Note_off_c, 1, 77, 0
1, 87750, Note_on_c, 1, 76, 127
1, 87779, Note_off_c, 1, 76, 0
1, 87839, Note_off_c, 1, 57, 0
1, 87840, Note_on_c, 1, 62, 127
1, 87899, Note_off_c, 1, 62, 0
1, 87900, Note_on_c, 1, 77, 127
1, 87900, Note_on_c, 1, 55, 127
1, 87929, Note_off_c, 1, 77, 0
1, 87930, Note_on_c, 1, 76, 127
1, 87959, Note_off_c, 1, 76, 0
1, 88019, Note_off_c, 1, 55, 0
1, 88020, Note_on_c, 1, 74, 127
1, 88020, Note_on_c, 1, 58, 127
1, 88079, Note_off_c, 1, 74, 0
1, 88079, Note_off_c, 1, 58, 0
1, 88080, Note_on_c, 1, 72, 127
1, 88080, Note_on_c, 1, 50, 127
1, 88139, Note_off_c, 1, 72, 0
1, 88140, Note_on_c, 1, 69, 127
1, 88199, Note_off_c, 1, 50, 0
1, 88199, Note_off_c, 1, 69, 0
1, 88200, Note_on_c, 1, 74, 127
1, 88200, Note_on_c, 1, 70, 127
1, 88200, Note_on_c, 1, 54, 127
1, 88259, Note_off_c, 1, 74, 0
1, 88259, Note_off_c, 1, 70, 0
1, 88259, Note_off_c, 1, 54, 0
1, 88260, Note_on_c, 1, 72, 127
1, 88260, Note_on_c, 1, 55, 127
1, 88319, Note_off_c, 1, 72, 0
1, 88320, Note_on_c, 1, 69, 127
1, 88379, Note_off_c, 1, 55, 0
1, 88379, Note_off_c, 1, 69, 0
1, 88380, Note_on_c, 1, 70, 127
1, 88380, Note_on_c, 1, 62, 127
1, 88439, Note_off_c, 1, 70, 0
1, 88439, Note_off_c, 1, 62, 0
1, 88440, Note_on_c, 1, 67, 127
1, 88440, Note_on_c, 1, 58, 127
1, 88469, Note_off_c, 1, 67, 0
1, 88470, Note_on_c, 1, 66, 127
1, 88499, Note_off_c, 1, 66, 0
1, 88559, Note_off_c, 1, 58, 0
1, 88560, Note_on_c, 1, 55, 127
1, 88619, Note_off_c, 1, 55, 0
1, 88620, Note_on_c, 1, 67, 127
1, 88620, Note_on_c, 1, 52, 127
1, 88649, Note_off_c, 1, 67, 0
1, 88650, Note_on_c, 1, 66, 127
1, 88679, Note_off_c, 1, 66, 0
1, 88739, Note_off_c, 1, 52, 0
1, 88740, Note_on_c, 1, 67, 127
1, 88740, Note_on_c, 1, 55, 127
1, 88799, Note_off_c, 1, 67, 0
1, 88799, Note_off_c, 1, 55, 0
1, 88800, Note_on_c, 1, 77, 127
1, 88800, Note_on_c, 1, 48, 127
1, 88859, Note_off_c, 1, 77, 0
1, 88860, Note_on_c, 1, 74, 127
1, 88919, Note_off_c, 1, 48, 0
1, 88919, Note_off_c, 1, 74, 0
1, 88920, Note_on_c, 1, 76, 127
1, 88920, Note_on_c, 1, 55, 127
1, 88979, Note_off_c, 1, 76, 0
1, 88979, Note_off_c, 1, 55, 0
1, 88980, Note_on_c, 1, 77, 127
1, 88980, Note_on_c, 1, 60, 127
1, 89039, Note_off_c, 1, 77, 0
1, 89040, Note_on_c, 1, 74, 127
1, 89099, Note_off_c, 1, 60, 0
1, 89099, Note_off_c, 1, 74, 0
1, 89100, Note_on_c, 1, 76, 127
1, 89100, Note_on_c, 1, 48, 127
1, 89159, Note_off_c, 1, 76, 0
1, 89159, Note_off_c, 1, 48, 0
1, 89160, Note_on_c, 1, 69, 127
1, 89160, Note_on_c, 1, 53, 127
1, 89219, Note_off_c, 1, 69, 0
1, 89220, Note_on_c, 1, 68, 127
1, 89279, Note_off_c, 1, 53, 0
1, 89279, Note_off_c, 1, 68, 0
1, 89280, Note_on_c, 1, 69, 127
1, 89280, Note_on_c, 1, 52, 127
1, 89339, Note_off_c, 1, 69, 0
1, 89339, Note_off_c, 1, 52, 0
1, 89340, Note_on_c, 1, 74, 127
1, 89340, Note_on_c, 1, 53, 127
1, 89459, Note_off_c, 1, 74, 0
1, 89459, Note_off_c, 1, 53, 0
1, 89520, Note_on_c, 1, 74, 127
1, 89639, Note_off_c, 1, 74, 0
1, 89700, Note_on_c, 1, 74, 127
1, 89819, Note_off_c, 1, 74, 0
1, 89880, Note_on_c, 1, 74, 127
1, 89880, Note_on_c, 1, 47, 127
1, 89939, Note_off_c, 1, 74, 0
1, 89940, Note_on_c, 1, 73, 127
1, 89999, Note_off_c, 1, 47, 0
1, 89999, Note_off_c, 1, 73, 0
1, 90000, Note_on_c, 1, 74, 127
1, 90000, Note_on_c, 1, 45, 127
1, 90059, Note_off_c, 1, 74, 0
1, 90060, Note_off_c, 1, 45, 0
1, 90060, Note_on_c, 1, 77, 127
1, 90060, Note_on_c, 1, 44, 127
1, 90119, Note_off_c, 1, 77, 0
1, 90120, Note_on_c, 1, 76, 127
1, 90179, Note_off_c, 1, 44, 0
1, 90179, Note_off_c, 1, 76, 0
1, 90180, Note_on_c, 1, 74, 127
1, 90180, Note_on_c, 1, 56, 127
1, 90239, Note_off_c, 1, 74, 0
1, 90240, Note_off_c, 1, 56, 0
1, 90240, Note_on_c, 1, 72, 127
1, 90240, Note_on_c, 1, 57, 127
1, 90299, Note_off_c, 1, 72, 0
1, 90300, Note_on_c, 1, 71, 127
1, 90359, Note_off_c, 1, 57, 0
1, 90359, Note_off_c, 1, 71, 0
1, 90360, Note_on_c, 1, 69, 127
1, 90360, Note_on_c, 1, 50, 127
1, 90419, Note_off_c, 1, 69, 0
1, 90420, Note_off_c, 1, 50, 0
1, 90420, Note_on_c, 1, 64, 127
1, 90420, Note_on_c, 1, 52, 127
1, 90539, Note_off_c, 1, 64, 0
1, 90539, Note_off_c, 1, 52, 0
1, 90600, Note_on_c, 1, 64, 127
1, 90719, Note_off_c, 1, 64, 0
1, 90780, Note_on_c, 1, 64, 127
1, 90959, Note_off_c, 1, 64, 0
1, 90960, Note_on_c, 1, 71, 127
1, 90960, Note_on_c, 1, 50, 127
1, 91079, Note_off_c, 1, 71, 0
1, 91079, Note_off_c, 1, 50, 0
1, 91080, Note_on_c, 1, 64, 127
1, 91140, Note_off_c, 1, 64, 0
1, 91140, Note_on_c, 1, 71, 127
1, 91260, Note_off_c, 1, 71, 0
1, 91500, Note_on_c, 1, 76, 127
1, 91500, Note_on_c, 1, 48, 127
1, 91619, Note_off_c, 1, 76, 0
1, 91619, Note_off_c, 1, 48, 0
1, 91620, Note_on_c, 1, 71, 127
1, 91680, Note_off_c, 1, 71, 0
1, 91680, Note_on_c, 1, 76, 127
1, 91800, Note_off_c, 1, 76, 0
1, 91980, Note_on_c, 1, 60, 127
1, 92039, Note_off_c, 1, 60, 0
1, 92040, Note_on_c, 1, 74, 127
1, 92040, Note_on_c, 1, 59, 127
1, 92099, Note_off_c, 1, 74, 0
1, 92099, Note_off_c, 1, 59, 0
1, 92100, Note_on_c, 1, 71, 127
1, 92100, Note_on_c, 1, 57, 127
1, 92159, Note_off_c, 1, 71, 0
1, 92159, Note_off_c, 1, 57, 0
1, 92160, Note_on_c, 1, 76, 127
1, 92160, Note_on_c, 1, 56, 127
1, 92219, Note_off_c, 1, 76, 0
1, 92219, Note_off_c, 1, 56, 0
1, 92220, Note_on_c, 1, 72, 127
1, 92220, Note_on_c, 1, 57, 127
1, 92279, Note_off_c, 1, 72, 0
1, 92280, Note_on_c, 1, 71, 127
1, 92339, Note_off_c, 1, 57, 0
1, 92339, Note_off_c, 1, 71, 0
1, 92340, Note_on_c, 1, 69, 127
1, 92340, Note_on_c, 1, 60, 127
1, 92399, Note_off_c, 1, 69, 0
1, 92399, Note_off_c, 1, 60, 0
1, 92400, Note_on_c, 1, 71, 127
1, 92400, Note_on_c, 1, 64, 127
1, 92459, Note_off_c, 1, 71, 0
1, 92460, Note_on_c, 1, 68, 127
1, 92519, Note_off_c, 1, 64, 0
1, 92519, Note_off_c, 1, 68, 0
1, 92520, Note_on_c, 1, 69, 127
1, 92520, Note_on_c, 1, 52, 127
1, 92579, Note_off_c, 1, 69, 0
1, 92579, Note_off_c, 1, 52, 0
1, 92580, Note_on_c, 1, 69, 127
1, 92580, Note_on_c, 1, 57, 127
1, 92699, Note_off_c, 1, 57, 0
1, 92700, Note_on_c, 1, 59, 127
1, 92759, Note_off_c, 1, 59, 0
1, 92760, Note_off_c, 1, 69, 0
1, 92760, Note_on_c, 1, 64, 127
1, 92760, Note_on_c, 1, 60, 127
1, 92819, Note_off_c, 1, 64, 0
1, 92820, Note_on_c, 1, 66, 127
1, 92879, Note_off_c, 1, 60, 0
1, 92879, Note_off_c, 1, 66, 0
1, 92880, Note_on_c, 1, 67, 127
1, 92880, Note_on_c, 1, 57, 127
1, 92939, Note_off_c, 1, 67, 0
1, 92939, Note_off_c, 1, 57, 0
1, 92940, Note_on_c, 1, 66, 127
1, 92940, Note_on_c, 1, 62, 127
1, 92999, Note_off_c, 1, 66, 0
1, 93000, Note_on_c, 1, 68, 127
1, 93059, Note_off_c, 1, 62, 0
1, 93059, Note_off_c, 1, 68, 0
1, 93060, Note_on_c, 1, 69, 127
1, 93060, Note_on_c, 1, 60, 127
1, 93119, Note_off_c, 1, 69, 0
1, 93119, Note_off_c, 1, 60, 0
1, 93120, Note_on_c, 1, 68, 127
1, 93120, Note_on_c, 1, 59, 127
1, 93149, Note_off_c, 1, 68, 0
1, 93150, Note_on_c, 1, 69, 127
1, 93179, Note_off_c, 1, 69, 0
1, 93180, Note_on_c, 1, 71, 127
1, 93195, Note_off_c, 1, 71, 0
1, 93239, Note_off_c, 1, 59, 0
1, 93240, Note_on_c, 1, 57, 127
1, 93299, Note_off_c, 1, 57, 0
1, 93300, Note_on_c, 1, 56, 127
1, 93359, Note_off_c, 1, 56, 0
1, 93540, Note_on_c, 1, 72, 127
1, 93540, Note_on_c, 1, 54, 127
1, 93599, Note_off_c, 1, 72, 0
1, 93599, Note_off_c, 1, 54, 0
1, 93600, Note_on_c, 1, 74, 127
1, 93600, Note_on_c, 1, 52, 127
1, 93659, Note_off_c, 1, 74, 0
1, 93659, Note_off_c, 1, 52, 0
1, 93660, Note_on_c, 1, 73, 127
1, 93660, Note_on_c, 1, 57, 127
1, 93719, Note_off_c, 1, 73, 0
1, 93720, Note_on_c, 1, 74, 127
1, 93779, Note_off_c, 1, 74, 0
1, 93780, Note_off_c, 1, 57, 0
1, 93780, Note_on_c, 1, 76, 127
1, 93780, Note_on_c, 1, 55, 127
1, 93839, Note_off_c, 1, 76, 0
1, 93839, Note_off_c, 1, 55, 0
1, 93840, Note_on_c, 1, 74, 127
1, 93840, Note_on_c, 1, 53, 127
1, 93869, Note_off_c, 1, 74, 0
1, 93870, Note_on_c, 1, 76, 127
1, 93899, Note_off_c, 1, 76, 0
1, 93900, Note_on_c, 1, 77, 127
1, 93914, Note_off_c, 1, 77, 0
1, 93960, Note_off_c, 1, 53, 0
1, 93960, Note_on_c, 1, 52, 127
1, 94019, Note_off_c, 1, 52, 0
1, 94020, Note_on_c, 1, 77, 127
1, 94020, Note_on_c, 1, 50, 127
1, 94079, Note_off_c, 1, 50, 0
1, 94080, Note_on_c, 1, 52, 127
1, 94139, Note_off_c, 1, 52, 0
1, 94140, Note_on_c, 1, 53, 127
1, 94199, Note_off_c, 1, 53, 0
1, 94200, Note_on_c, 1, 47, 127
1, 94259, Note_off_c, 1, 77, 0
1, 94259, Note_off_c, 1, 47, 0
1, 94260, Note_on_c, 1, 76, 127
1, 94260, Note_on_c, 1, 48, 127
1, 94289, Note_off_c, 1, 76, 0
1, 94290, Note_on_c, 1, 74, 127
1, 94319, Note_off_c, 1, 48, 0
1, 94319, Note_off_c, 1, 74, 0
1, 94320, Note_on_c, 1, 72, 127
1, 94320, Note_on_c, 1, 50, 127
1, 94349, Note_off_c, 1, 72, 0
1, 94350, Note_on_c, 1, 71, 127
1, 94379, Note_off_c, 1, 50, 0
1, 94379, Note_off_c, 1, 71, 0
1, 94380, Note_on_c, 1, 69, 127
1, 94380, Note_on_c, 1, 52, 127
1, 94409, Note_off_c, 1, 69, 0
1, 94410, Note_on_c, 1, 68, 127
1, 94439, Note_off_c, 1, 68, 0
1, 94470, Note_on_c, 1, 71, 127
1, 94499, Note_off_c, 1, 52, 0
1, 94499, Note_off_c, 1, 71, 0
1, 94500, Note_on_c, 1, 72, 127
1, 94500, Note_on_c, 1, 50, 127
1, 94529, Note_off_c, 1, 72, 0
1, 94530, Note_on_c, 1, 74, 127
1, 94559, Note_off_c, 1, 50, 0
1, 94559, Note_off_c, 1, 74, 0
1, 94560, Note_on_c, 1, 76, 127
1, 94560, Note_on_c, 1, 48, 127
1, 94619, Note_off_c, 1, 76, 0
1, 94619, Note_off_c, 1, 48, 0
1, 94620, Note_on_c, 1, 74, 127
1, 94620, Note_on_c, 1, 50, 127
1, 94649, Note_off_c, 1, 74, 0
1, 94650, Note_on_c, 1, 72, 127
1, 94679, Note_off_c, 1, 50, 0
1, 94679, Note_off_c, 1, 72, 0
1, 94680, Note_on_c, 1, 71, 127
1, 94680, Note_on_c, 1, 52, 127
1, 94709, Note_off_c, 1, 71, 0
1, 94710, Note_on_c, 1, 69, 127
1, 94739, Note_off_c, 1, 52, 0
1, 94739, Note_off_c, 1, 69, 0
1, 94740, Note_on_c, 1, 69, 127
1, 94740, Note_on_c, 1, 53, 127
1, 94799, Note_off_c, 1, 69, 0
1, 94800, Note_on_c, 1, 80, 127
1, 94859, Note_off_c, 1, 80, 0
1, 94860, Note_on_c, 1, 81, 127
1, 94919, Note_off_c, 1, 53, 0
1, 94919, Note_off_c, 1, 81, 0
1, 94920, Note_on_c, 1, 75, 127
1, 94979, Note_off_c, 1, 75, 0
1, 94980, Note_on_c, 1, 76, 127
1, 95039, Note_off_c, 1, 76, 0
1, 95040, Note_on_c, 1, 69, 127
1, 95040, Note_on_c, 1, 53, 127
1, 95099, Note_off_c, 1, 69, 0
1, 95099, Note_off_c, 1, 53, 0
1, 95100, Note_on_c, 1, 68, 127
1, 95100, Note_on_c, 1, 47, 127
1, 95159, Note_off_c, 1, 68, 0
1, 95160, Note_on_c, 1, 74, 127
1, 95219, Note_off_c, 1, 47, 0
1, 95219, Note_off_c, 1, 74, 0
1, 95220, Note_on_c, 1, 72, 127
1, 95220, Note_on_c, 1, 45, 127
1, 95279, Note_off_c, 1, 72, 0
1, 95279, Note_off_c, 1, 45, 0
1, 95280, Note_on_c, 1, 71, 127
1, 95280, Note_on_c, 1, 52, 127
1, 95339, Note_off_c, 1, 71, 0
1, 95340, Note_on_c, 1, 68, 127
1, 95360, Note_off_c, 1, 68, 0
1, 95360, Note_on_c, 1, 69, 127
1, 95380, Note_off_c, 1, 69, 0
1, 95399, Note_off_c, 1, 52, 0
1, 95400, Note_on_c, 1, 40, 127
1, 95459, Note_off_c, 1, 40, 0
1, 95460, Note_on_c, 1, 45, 127
1, 95579, Note_off_c, 1, 45, 0
1, 95640, Note_on_c, 1, 72, 127
1, 95640, Note_on_c, 1, 57, 127
1, 95699, Note_off_c, 1, 72, 0
1, 95700, Note_on_c, 1, 74, 127
1, 95759, Note_off_c, 1, 57, 0
1, 95759, Note_off_c, 1, 74, 0
1, 95760, Note_on_c, 1, 76, 127
1, 95760, Note_on_c, 1, 55, 127
1, 95819, Note_off_c, 1, 76, 0
1, 95819, Note_off_c, 1, 55, 0
1, 95820, Note_on_c, 1, 76, 127
1, 95820, Note_on_c, 1, 54, 127
1, 95879, Note_off_c, 1, 76, 0
1, 95880, Note_on_c, 1, 74, 127
1, 95939, Note_off_c, 1, 54, 0
1, 95939, Note_off_c, 1, 74, 0
1, 95940, Note_on_c, 1, 72, 127
1, 95940, Note_on_c, 1, 55, 127
1, 95999, Note_off_c, 1, 72, 0
1, 95999, Note_off_c, 1, 55, 0
1, 96000, Note_on_c, 1, 76, 127
1, 96000, Note_on_c, 1, 72, 127
1, 96000, Note_on_c, 1, 57, 127
1, 96059, Note_off_c, 1, 76, 0
1, 96059, Note_off_c, 1, 72, 0
1, 96060, Note_on_c, 1, 79, 127
1, 96060, Note_on_c, 1, 71, 127
1, 96119, Note_off_c, 1, 57, 0
1, 96119, Note_off_c, 1, 79, 0
1, 96119, Note_off_c, 1, 71, 0
1, 96120, Note_on_c, 1, 78, 127
1, 96120, Note_on_c, 1, 69, 127
1, 96120, Note_on_c, 1, 50, 127
1, 96179, Note_off_c, 1, 78, 0
1, 96179, Note_off_c, 1, 69, 0
1, 96179, Note_off_c, 1, 50, 0
1, 96180, Note_on_c, 1, 71, 127
1, 96180, Note_on_c, 1, 55, 127
1, 96239, Note_off_c, 1, 71, 0
1, 96240, Note_on_c, 1, 69, 127
1, 96299, Note_off_c, 1, 55, 0
1, 96299, Note_off_c, 1, 69, 0
1, 96300, Note_on_c, 1, 67, 127
1, 96300, Note_on_c, 1, 57, 127
1, 96359, Note_off_c, 1, 67, 0
1, 96359, Note_off_c, 1, 57, 0
1, 96360, Note_on_c, 1, 67, 127
1, 96360, Note_on_c, 1, 74, 127
1, 96360, Note_on_c, 1, 58, 127
1, 96419, Note_off_c, 1, 67, 0
1, 96420, Note_on_c, 1, 69, 127
1, 96479, Note_off_c, 1, 74, 0
1, 96479, Note_off_c, 1, 58, 0
1, 96479, Note_off_c, 1, 69, 0
1, 96480, Note_on_c, 1, 70, 127
1, 96480, Note_on_c, 1, 76, 127
1, 96480, Note_on_c, 1, 55, 127
1, 96539, Note_off_c, 1, 70, 0
1, 96539, Note_off_c, 1, 76, 0
1, 96539, Note_off_c, 1, 55, 0
1, 96540, Note_on_c, 1, 70, 127
1, 96540, Note_on_c, 1, 73, 127
1, 96540, Note_on_c, 1, 52, 127
1, 96599, Note_off_c, 1, 70, 0
1, 96600, Note_on_c, 1, 69, 127
1, 96659, Note_off_c, 1, 73, 0
1, 96659, Note_off_c, 1, 52, 0
1, 96659, Note_off_c, 1, 69, 0
1, 96660, Note_on_c, 1, 67, 127
1, 96660, Note_on_c, 1, 74, 127
1, 96660, Note_on_c, 1, 50, 127
1, 96719, Note_off_c, 1, 67, 0
1, 96719, Note_off_c, 1, 74, 0
1, 96719, Note_off_c, 1, 50, 0
1, 96720, Note_on_c, 1, 67, 127
1, 96720, Note_on_c, 1, 52, 127
1, 96779, Note_off_c, 1, 67, 0
1, 96779, Note_off_c, 1, 52, 0
1, 96780, Note_on_c, 1, 65, 127
1, 96780, Note_on_c, 1, 70, 127
1, 96780, Note_on_c, 1, 50, 127
1, 96839, Note_off_c, 1, 65, 0
1, 96839, Note_off_c, 1, 70, 0
1, 96839, Note_off_c, 1, 50, 0
1, 96840, Note_on_c, 1, 64, 127
1, 96840, Note_on_c, 1, 69, 127
1, 96840, Note_on_c, 1, 49, 127
1, 96899, Note_off_c, 1, 64, 0
1, 96899, Note_off_c, 1, 69, 0
1, 96899, Note_off_c, 1, 49, 0
1, 96900, Note_on_c, 1, 65, 127
1, 96900, Note_on_c, 1, 50, 127
1, 96960, Note_on_c, 1, 64, 127
1, 97019, Note_off_c, 1, 50, 0
1, 97019, Note_off_c, 1, 64, 0
1, 97020, Note_on_c, 1, 62, 127
1, 97020, Note_on_c, 1, 57, 127
1, 97079, Note_off_c, 1, 62, 0
1, 97079, Note_off_c, 1, 57, 0
1, 97080, Note_on_c, 1, 77, 127
1, 97139, Note_off_c, 1, 65, 0
1, 97140, Note_on_c, 1, 69, 127
1, 97199, Note_off_c, 1, 69, 0
1, 97200, Note_on_c, 1, 74, 127
1, 97259, Note_off_c, 1, 74, 0
1, 97260, Note_on_c, 1, 71, 127
1, 97260, Note_on_c, 1, 55, 127
1, 97319, Note_off_c, 1, 71, 0
1, 97320, Note_on_c, 1, 72, 127
1, 97379, Note_off_c, 1, 77, 0
1, 97379, Note_off_c, 1, 55, 0
1, 97379, Note_off_c, 1, 72, 0
1, 97380, Note_on_c, 1, 71, 127
1, 97380, Note_on_c, 1, 74, 127
1, 97380, Note_on_c, 1, 45, 127
1, 97439, Note_off_c, 1, 71, 0
1, 97439, Note_off_c, 1, 74, 0
1, 97439, Note_off_c, 1, 45, 0
1, 97440, Note_on_c, 1, 72, 127
1, 97440, Note_on_c, 1, 76, 127
1, 97440, Note_on_c, 1, 48, 127
1, 97499, Note_off_c, 1, 72, 0
1, 97499, Note_off_c, 1, 76, 0
1, 97499, Note_off_c, 1, 48, 0
1, 97500, Note_on_c, 1, 79, 127
1, 97500, Note_on_c, 1, 74, 127
1, 97500, Note_on_c, 1, 47, 127
1, 97559, Note_off_c, 1, 79, 0
1, 97559, Note_off_c, 1, 74, 0
1, 97559, Note_off_c, 1, 47, 0
1, 97560, Note_on_c, 1, 78, 127
1, 97560, Note_on_c, 1, 72, 127
1, 97560, Note_on_c, 1, 45, 127
1, 97619, Note_off_c, 1, 78, 0
1, 97619, Note_off_c, 1, 72, 0
1, 97619, Note_off_c, 1, 45, 0
1, 97620, Note_on_c, 1, 79, 127
1, 97620, Note_on_c, 1, 74, 127
1, 97620, Note_on_c, 1, 43, 127
1, 97679, Note_off_c, 1, 74, 0
1, 97680, Note_on_c, 1, 71, 127
1, 97739, Note_off_c, 1, 79, 0
1, 97739, Note_off_c, 1, 43, 0
1, 97739, Note_off_c, 1, 71, 0
1, 97740, Note_on_c, 1, 67, 127
1, 97740, Note_on_c, 1, 45, 127
1, 97799, Note_off_c, 1, 45, 0
1, 97800, Note_on_c, 1, 47, 127
1, 97859, Note_off_c, 1, 67, 0
1, 97860, Note_on_c, 1, 64, 127
1, 97919, Note_off_c, 1, 47, 0
1, 97919, Note_off_c, 1, 64, 0
1, 97920, Note_on_c, 1, 65, 127
1, 97920, Note_on_c, 1, 43, 127
1, 97979, Note_off_c, 1, 65, 0
1, 97979, Note_off_c, 1, 43, 0
1, 97980, Note_on_c, 1, 64, 127
1, 97980, Note_on_c, 1, 48, 127
1, 98039, Note_off_c, 1, 64, 0
1, 98040, Note_on_c, 1, 67, 127
1, 98099, Note_off_c, 1, 48, 0
1, 98099, Note_off_c, 1, 67, 0
1, 98100, Note_on_c, 1, 70, 127
1, 98100, Note_on_c, 1, 55, 127
1, 98159, Note_off_c, 1, 55, 0
1, 98160, Note_on_c, 1, 72, 127
1, 98160, Note_on_c, 1, 52, 127
1, 98219, Note_off_c, 1, 70, 0
1, 98219, Note_off_c, 1, 52, 0
1, 98220, Note_on_c, 1, 69, 127
1, 98220, Note_on_c, 1, 48, 127
1, 98279, Note_off_c, 1, 69, 0
1, 98279, Note_off_c, 1, 48, 0
1, 98280, Note_on_c, 1, 67, 127
1, 98339, Note_off_c, 1, 67, 0
1, 98340, Note_on_c, 1, 53, 127
1, 98399, Note_off_c, 1, 72, 0
1, 98519, Note_off_c, 1, 53, 0
1, 98580, Note_on_c, 1, 65, 127
1, 98639, Note_off_c, 1, 65, 0
1, 98700, Note_on_c, 1, 66, 127
1, 98700, Note_on_c, 1, 50, 127
1, 98759, Note_off_c, 1, 66, 0
1, 98819, Note_off_c, 1, 50, 0
1, 98820, Note_on_c, 1, 67, 127
1, 98820, Note_on_c, 1, 72, 127
1, 98820, Note_on_c, 1, 45, 127
1, 98879, Note_off_c, 1, 67, 0
1, 98879, Note_off_c, 1, 45, 0
1, 98880, Note_on_c, 1, 66, 127
1, 98880, Note_on_c, 1, 50, 127
1, 98939, Note_off_c, 1, 72, 0
1, 98939, Note_off_c, 1, 66, 0
1, 98939, Note_off_c, 1, 50, 0
1, 98940, Note_on_c, 1, 74, 127
1, 98940, Note_on_c, 1, 71, 127
1, 98940, Note_on_c, 1, 52, 127
1, 98999, Note_off_c, 1, 71, 0
1, 98999, Note_off_c, 1, 52, 0
1, 99000, Note_on_c, 1, 69, 127
1, 99000, Note_on_c, 1, 54, 127
1, 99059, Note_off_c, 1, 69, 0
1, 99059, Note_off_c, 1, 54, 0
1, 99060, Note_on_c, 1, 55, 127
1, 99119, Note_off_c, 1, 74, 0
1, 99180, Note_on_c, 1, 72, 127
1, 99239, Note_off_c, 1, 55, 0
1, 99239, Note_off_c, 1, 72, 0
1, 99360, Note_on_c, 1, 71, 127
1, 99360, Note_on_c, 1, 62, 127
1, 99389, Note_off_c, 1, 71, 0
1, 99390, Note_on_c, 1, 69, 127
1, 99419, Note_off_c, 1, 62, 0
1, 99419, Note_off_c, 1, 69, 0
1, 99420, Note_on_c, 1, 67, 127
1, 99420, Note_on_c, 1, 59, 127
1, 99479, Note_off_c, 1, 67, 0
1, 99480, Note_on_c, 1, 71, 127
1, 99539, Note_off_c, 1, 59, 0
1, 99539, Note_off_c, 1, 71, 0
1, 99540, Note_on_c, 1, 74, 127
1, 99540, Note_on_c, 1, 55, 127
1, 99599, Note_off_c, 1, 74, 0
1, 99599, Note_off_c, 1, 55, 0
1, 99600, Note_on_c, 1, 77, 127
1, 99600, Note_on_c, 1, 57, 127
1, 99659, Note_off_c, 1, 77, 0
1, 99660, Note_on_c, 1, 76, 127
1, 99719, Note_off_c, 1, 57, 0
1, 99719, Note_off_c, 1, 76, 0
1, 99720, Note_on_c, 1, 74, 127
1, 99720, Note_on_c, 1, 59, 127
1, 99779, Note_off_c, 1, 74, 0
1, 99779, Note_off_c, 1, 59, 0
1, 99780, Note_on_c, 1, 76, 127
1, 99780, Note_on_c, 1, 60, 127
1, 99839, Note_off_c, 1, 76, 0
1, 99840, Note_on_c, 1, 77, 127
1, 99899, Note_off_c, 1, 60, 0
1, 99899, Note_off_c, 1, 77, 0
1, 99900, Note_on_c, 1, 79, 127
1, 99900, Note_on_c, 1, 48, 127
1, 99959, Note_off_c, 1, 79, 0
1, 99959, Note_off_c, 1, 48, 0
1, 99960, Note_on_c, 1, 70, 127
1, 99960, Note_on_c, 1, 50, 127
1, 99989, Note_off_c, 1, 70, 0
1, 99990, Note_on_c, 1, 69, 127
1, 100019, Note_off_c, 1, 69, 0
1, 100079, Note_off_c, 1, 50, 0
1, 100080, Note_on_c, 1, 70, 127
1, 100080, Note_on_c, 1, 52, 127
1, 100139, Note_off_c, 1, 52, 0
1, 100140, Note_on_c, 1, 53, 127
1, 100170, Note_off_c, 1, 70, 0
1, 100170, Note_on_c, 1, 67, 127
1, 100200, Note_off_c, 1, 67, 0
1, 100200, Note_on_c, 1, 69, 127
1, 100230, Note_off_c, 1, 69, 0
1, 100259, Note_off_c, 1, 53, 0
1, 100260, Note_on_c, 1, 69, 127
1, 100319, Note_off_c, 1, 69, 0
1, 100320, Note_on_c, 1, 74, 127
1, 100379, Note_off_c, 1, 74, 0
1, 100380, Note_on_c, 1, 76, 127
1, 100439, Note_off_c, 1, 76, 0
1, 100440, Note_on_c, 1, 69, 127
1, 100440, Note_on_c, 1, 77, 127
1, 100440, Note_on_c, 1, 50, 127
1, 100499, Note_off_c, 1, 69, 0
1, 100499, Note_off_c, 1, 77, 0
1, 100499, Note_off_c, 1, 50, 0
1, 100500, Note_on_c, 1, 74, 127
1, 100500, Note_on_c, 1, 53, 127
1, 100559, Note_off_c, 1, 74, 0
1, 100560, Note_on_c, 1, 76, 127
1, 100619, Note_off_c, 1, 53, 0
1, 100619, Note_off_c, 1, 76, 0
1, 100620, Note_on_c, 1, 77, 127
1, 100620, Note_on_c, 1, 57, 127
1, 100679, Note_off_c, 1, 77, 0
1, 100679, Note_off_c, 1, 57, 0
1, 100680, Note_on_c, 1, 77, 127
1, 100680, Note_on_c, 1, 50, 127
1, 100739, Note_off_c, 1, 77, 0
1, 100740, Note_on_c, 1, 76, 127
1, 100799, Note_off_c, 1, 50, 0
1, 100799, Note_off_c, 1, 76, 0
1, 100800, Note_on_c, 1, 74, 127
1, 100800, Note_on_c, 1, 53, 127
1, 100859, Note_off_c, 1, 74, 0
1, 100859, Note_off_c, 1, 53, 0
1, 100860, Note_on_c, 1, 77, 127
1, 100860, Note_on_c, 1, 72, 127
1, 100860, Note_on_c, 1, 55, 127
1, 100919, Note_off_c, 1, 77, 0
1, 100919, Note_off_c, 1, 72, 0
1, 100920, Note_on_c, 1, 76, 127
1, 100920, Note_on_c, 1, 71, 127
1, 100979, Note_off_c, 1, 55, 0
1, 100979, Note_off_c, 1, 76, 0
1, 100979, Note_off_c, 1, 71, 0
1, 100980, Note_on_c, 1, 74, 127
1, 100980, Note_on_c, 1, 43, 127
1, 101039, Note_off_c, 1, 74, 0
1, 101039, Note_off_c, 1, 43, 0
1, 101040, Note_on_c, 1, 72, 127
1, 101040, Note_on_c, 1, 78, 127
1, 101040, Note_on_c, 1, 55, 127
1, 101099, Note_off_c, 1, 72, 0
1, 101099, Note_off_c, 1, 78, 0
1, 101100, Note_on_c, 1, 71, 127
1, 101100, Note_on_c, 1, 79, 127
1, 101159, Note_off_c, 1, 55, 0
1, 101159, Note_off_c, 1, 71, 0
1, 101159, Note_off_c, 1, 79, 0
1, 101160, Note_on_c, 1, 53, 127
1, 101219, Note_off_c, 1, 53, 0
1, 101220, Note_on_c, 1, 78, 127
1, 101220, Note_on_c, 1, 52, 127
1, 101279, Note_off_c, 1, 78, 0
1, 101280, Note_on_c, 1, 79, 127
1, 101339, Note_off_c, 1, 52, 0
1, 101339, Note_off_c, 1, 79, 0
1, 101340, Note_on_c, 1, 72, 127
1, 101399, Note_off_c, 1, 72, 0
1, 101400, Note_on_c, 1, 72, 127
1, 101400, Note_on_c, 1, 54, 127
1, 101459, Note_off_c, 1, 72, 0
1, 101460, Note_on_c, 1, 69, 127
1, 101519, Note_off_c, 1, 54, 0
1, 101519, Note_off_c, 1, 69, 0
1, 101520, Note_on_c, 1, 71, 127
1, 101579, Note_off_c, 1, 71, 0
1, 101580, Note_on_c, 1, 72, 127
1, 101580, Note_on_c, 1, 55, 127
1, 101639, Note_off_c, 1, 72, 0
1, 101640, Note_on_c, 1, 69, 127
1, 101699, Note_off_c, 1, 55, 0
1, 101699, Note_off_c, 1, 69, 0
1, 101700, Note_on_c, 1, 71, 127
1, 101759, Note_off_c, 1, 71, 0
1, 101760, Note_on_c, 1, 74, 127
1, 101760, Note_on_c, 1, 56, 127
1, 101819, Note_off_c, 1, 74, 0
1, 101820, Note_on_c, 1, 71, 127
1, 101879, Note_off_c, 1, 56, 0
1, 101879, Note_off_c, 1, 71, 0
1, 101880, Note_on_c, 1, 72, 127
1, 101939, Note_off_c, 1, 72, 0
1, 101940, Note_on_c, 1, 72, 127
1, 101940, Note_on_c, 1, 57, 127
1, 102059, Note_off_c, 1, 72, 0
1, 102059, Note_off_c, 1, 57, 0
1, 102120, Note_on_c, 1, 72, 127
1, 102239, Note_off_c, 1, 72, 0
1, 102300, Note_on_c, 1, 72, 127
1, 102419, Note_off_c, 1, 72, 0
1, 102480, Note_on_c, 1, 74, 127
1, 102480, Note_on_c, 1, 59, 127
1, 102539, Note_off_c, 1, 74, 0
1, 102539, Note_off_c, 1, 59, 0
1, 102540, Note_on_c, 1, 76, 127
1, 102540, Note_on_c, 1, 57, 127
1, 102599, Note_off_c, 1, 76, 0
1, 102599, Note_off_c, 1, 57, 0
1, 102600, Note_on_c, 1, 77, 127
1, 102600, Note_on_c, 1, 55, 127
1, 102659, Note_off_c, 1, 77, 0
1, 102659, Note_off_c, 1, 55, 0
1, 102660, Note_on_c, 1, 76, 127
1, 102660, Note_on_c, 1, 60, 127
1, 102719, Note_off_c, 1, 76, 0
1, 102719, Note_off_c, 1, 60, 0
1, 102720, Note_on_c, 1, 74, 127
1, 102720, Note_on_c, 1, 59, 127
1, 102779, Note_off_c, 1, 74, 0
1, 102779, Note_off_c, 1, 59, 0
1, 102780, Note_on_c, 1, 72, 127
1, 102780, Note_on_c, 1, 57, 127
1, 102839, Note_off_c, 1, 72, 0
1, 102839, Note_off_c, 1, 57, 0
1, 102840, Note_on_c, 1, 74, 127
1, 102840, Note_on_c, 1, 55, 127
1, 102899, Note_off_c, 1, 74, 0
1, 102899, Note_off_c, 1, 55, 0
1, 102900, Note_on_c, 1, 71, 127
1, 102900, Note_on_c, 1, 53, 127
1, 102959, Note_off_c, 1, 71, 0
1, 102959, Note_off_c, 1, 53, 0
1, 102960, Note_on_c, 1, 72, 127
1, 102960, Note_on_c, 1, 52, 127
1, 103019, Note_off_c, 1, 72, 0
1, 103019, Note_off_c, 1, 52, 0
1, 103020, Note_on_c, 1, 67, 127
1, 103020, Note_on_c, 1, 53, 127
1, 103139, Note_off_c, 1, 67, 0
1, 103139, Note_off_c, 1, 53, 0
1, 103200, Note_on_c, 1, 67, 127
1, 103319, Note_off_c, 1, 67, 0
1, 103380, Note_on_c, 1, 67, 127
1, 103499, Note_off_c, 1, 67, 0
1, 103500, Note_on_c, 1, 67, 127
1, 103559, Note_off_c, 1, 67, 0
1, 103560, Note_on_c, 1, 72, 127
1, 103560, Note_on_c, 1, 52, 127
1, 103679, Note_off_c, 1, 72, 0
1, 103679, Note_off_c, 1, 52, 0
1, 103680, Note_on_c, 1, 67, 127
1, 103739, Note_off_c, 1, 67, 0
1, 103740, Note_on_c, 1, 72, 127
1, 103859, Note_off_c, 1, 72, 0
1, 103860, Note_on_c, 1, 67, 127
1, 103919, Note_off_c, 1, 67, 0
1, 103920, Note_on_c, 1, 72, 127
1, 104039, Note_off_c, 1, 72, 0
1, 104040, Note_on_c, 1, 72, 127
1, 104099, Note_off_c, 1, 72, 0
1, 104100, Note_on_c, 1, 76, 127
1, 104100, Note_on_c, 1, 45, 127
1, 104219, Note_off_c, 1, 76, 0
1, 104219, Note_off_c, 1, 45, 0
1, 104220, Note_on_c, 1, 72, 127
1, 104279, Note_off_c, 1, 72, 0
1, 104280, Note_on_c, 1, 76, 127
1, 104399, Note_off_c, 1, 76, 0
1, 104400, Note_on_c, 1, 72, 127
1, 104459, Note_off_c, 1, 72, 0
1, 104460, Note_on_c, 1, 76, 127
1, 104579, Note_off_c, 1, 76, 0
1, 104580, Note_on_c, 1, 76, 127
1, 104639, Note_off_c, 1, 76, 0
1, 104640, Note_on_c, 1, 79, 127
1, 104640, Note_on_c, 1, 40, 127
1, 104759, Note_off_c, 1, 79, 0
1, 104759, Note_off_c, 1, 40, 0
1, 104760, Note_on_c, 1, 76, 127
1, 104819, Note_off_c, 1, 76, 0
1, 104820, Note_on_c, 1, 79, 127
1, 104939, Note_off_c, 1, 79, 0
1, 104940, Note_on_c, 1, 76, 127
1, 104999, Note_off_c, 1, 76, 0
1, 105000, Note_on_c, 1, 79, 127
1, 105119, Note_off_c, 1, 79, 0
1, 105120, Note_on_c, 1, 76, 127
1, 105120, Note_on_c, 1, 55, 127
1, 105179, Note_off_c, 1, 76, 0
1, 105179, Note_off_c, 1, 55, 0
1, 105180, Note_on_c, 1, 72, 127
1, 105180, Note_on_c, 1, 57, 127
1, 105239, Note_off_c, 1, 72, 0
1, 105240, Note_on_c, 1, 77, 127
1, 105299, Note_off_c, 1, 57, 0
1, 105299, Note_off_c, 1, 77, 0
1, 105300, Note_on_c, 1, 74, 127
1, 105300, Note_on_c, 1, 53, 127
1, 105359, Note_off_c, 1, 74, 0
1, 105359, Note_off_c, 1, 53, 0
1, 105360, Note_on_c, 1, 72, 127
1, 105360, Note_on_c, 1, 55, 127
1, 105419, Note_off_c, 1, 72, 0
1, 105420, Note_on_c, 1, 71, 127
1, 105479, Note_off_c, 1, 55, 0
1, 105479, Note_off_c, 1, 71, 0
1, 105480, Note_on_c, 1, 72, 127
1, 105480, Note_on_c, 1, 43, 127
1, 105539, Note_off_c, 1, 72, 0
1, 105539, Note_off_c, 1, 43, 0
1, 105540, Note_on_c, 1, 72, 127
1, 105540, Note_on_c, 1, 48, 127
1, 105659, Note_off_c, 1, 48, 0
1, 105660, Note_on_c, 1, 50, 127
1, 105719, Note_off_c, 1, 50, 0
1, 105720, Note_on_c, 1, 52, 127
1, 105839, Note_off_c, 1, 72, 0
1, 105839, Note_off_c, 1, 52, 0
1, 105840, Note_on_c, 1, 76, 127
1, 105840, Note_on_c, 1, 45, 127
1, 105899, Note_off_c, 1, 76, 0
1, 105899, Note_off_c, 1, 45, 0
1, 105900, Note_on_c, 1, 74, 127
1, 105900, Note_on_c, 1, 47, 127
1, 105959, Note_off_c, 1, 74, 0
1, 105960, Note_on_c, 1, 71, 127
1, 106019, Note_off_c, 1, 47, 0
1, 106019, Note_off_c, 1, 71, 0
1, 106020, Note_on_c, 1, 67, 127
1, 106020, Note_on_c, 1, 48, 127
1, 106079, Note_off_c, 1, 67, 0
1, 106079, Note_off_c, 1, 48, 0
1, 106080, Note_on_c, 1, 66, 127
1, 106080, Note_on_c, 1, 50, 127
1, 106139, Note_off_c, 1, 66, 0
1, 106140, Note_on_c, 1, 72, 127
1, 106199, Note_off_c, 1, 50, 0
1, 106199, Note_off_c, 1, 72, 0
1, 106200, Note_on_c, 1, 69, 127
1, 106200, Note_on_c, 1, 38, 127
1, 106259, Note_off_c, 1, 69, 0
1, 106259, Note_off_c, 1, 38, 0
1, 106260, Note_on_c, 1, 71, 127
1, 106260, Note_on_c, 1, 43, 127
1, 106275, Note_off_c, 1, 71, 0
1, 106275, Note_on_c, 1, 72, 127
1, 106290, Note_off_c, 1, 72, 0
1, 106320, Note_on_c, 1, 69, 127
1, 106379, Note_off_c, 1, 43, 0
1, 106379, Note_off_c, 1, 69, 0
1, 106380, Note_on_c, 1, 67, 127
1, 106380, Note_on_c, 1, 45, 127
1, 106439, Note_off_c, 1, 67, 0
1, 106439, Note_off_c, 1, 45, 0
1, 106440, Note_on_c, 1, 74, 127
1, 106440, Note_on_c, 1, 47, 127
1, 106559, Note_off_c, 1, 74, 0
1, 106559, Note_off_c, 1, 47, 0
1, 106560, Note_on_c, 1, 76, 127
1, 106560, Note_on_c, 1, 43, 127
1, 106589, Note_off_c, 1, 76, 0
1, 106590, Note_on_c, 1, 77, 127
1, 106619, Note_off_c, 1, 43, 0
1, 106619, Note_off_c, 1, 77, 0
1, 106620, Note_on_c, 1, 76, 127
1, 106620, Note_on_c, 1, 48, 127
1, 106679, Note_off_c, 1, 76, 0
1, 106680, Note_on_c, 1, 72, 127
1, 106739, Note_off_c, 1, 48, 0
1, 106739, Note_off_c, 1, 72, 0
1, 106740, Note_on_c, 1, 69, 127
1, 106740, Note_on_c, 1, 50, 127
1, 106799, Note_off_c, 1, 69, 0
1, 106799, Note_off_c, 1, 50, 0
1, 106800, Note_on_c, 1, 68, 127
1, 106800, Note_on_c, 1, 52, 127
1, 106859, Note_off_c, 1, 68, 0
1, 106860, Note_on_c, 1, 74, 127
1, 106919, Note_off_c, 1, 52, 0
1, 106919, Note_off_c, 1, 74, 0
1, 106920, Note_on_c, 1, 71, 127
1, 106920, Note_on_c, 1, 40, 127
1, 106979, Note_off_c, 1, 71, 0
1, 106979, Note_off_c, 1, 40, 0
1, 106980, Note_on_c, 1, 72, 127
1, 106980, Note_on_c, 1, 45, 127
1, 106995, Note_off_c, 1, 72, 0
1, 106995, Note_on_c, 1, 74, 127
1, 107010, Note_off_c, 1, 74, 0
1, 107039, Note_off_c, 1, 45, 0
1, 107040, Note_on_c, 1, 71, 127
1, 107040, Note_on_c, 1, 47, 127
1, 107099, Note_off_c, 1, 71, 0
1, 107099, Note_off_c, 1, 47, 0
1, 107100, Note_on_c, 1, 69, 127
1, 107100, Note_on_c, 1, 48, 127
1, 107159, Note_off_c, 1, 69, 0
1, 107159, Note_off_c, 1, 48, 0
1, 107160, Note_on_c, 1, 67, 127
1, 107160, Note_on_c, 1, 47, 127
1, 107189, Note_off_c, 1, 67, 0
1, 107219, Note_off_c, 1, 47, 0
1, 107220, Note_on_c, 1, 77, 127
1, 107220, Note_on_c, 1, 45, 127
1, 107279, Note_off_c, 1, 45, 0
1, 107280, Note_on_c, 1, 43, 127
1, 107339, Note_off_c, 1, 77, 0
1, 107339, Note_off_c, 1, 43, 0
1, 107340, Note_on_c, 1, 76, 127
1, 107340, Note_on_c, 1, 48, 127
1, 107399, Note_off_c, 1, 76, 0
1, 107400, Note_on_c, 1, 71, 127
1, 107459, Note_off_c, 1, 48, 0
1, 107459, Note_off_c, 1, 71, 0
1, 107460, Note_on_c, 1, 72, 127
1, 107460, Note_on_c, 1, 45, 127
1, 107519, Note_off_c, 1, 72, 0
1, 107519, Note_off_c, 1, 45, 0
1, 107520, Note_on_c, 1, 81, 127
1, 107520, Note_on_c, 1, 41, 127
1, 107579, Note_off_c, 1, 81, 0
1, 107580, Note_on_c, 1, 79, 127
1, 107639, Note_off_c, 1, 41, 0
1, 107639, Note_off_c, 1, 79, 0
1, 107640, Note_on_c, 1, 71, 127
1, 107640, Note_on_c, 1, 43, 127
1, 107699, Note_off_c, 1, 71, 0
1, 107699, Note_off_c, 1, 43, 0
1, 107700, Note_on_c, 1, 65, 127
1, 107700, Note_on_c, 1, 36, 127
1, 107759, Note_off_c, 1, 65, 0
1, 107760, Note_on_c, 1, 64, 127
1, 107819, Note_off_c, 1, 36, 0
1, 107819, Note_off_c, 1, 64, 0
1, 107880, Note_on_c, 1, 65, 127
1, 107939, Note_off_c, 1, 65, 0
1, 107940, Note_on_c, 1, 64, 127
1, 107999, Note_off_c, 1, 64, 0
1, 108060, Note_on_c, 1, 70, 127
1, 108060, Note_on_c, 1, 41, 127
1, 108119, Note_off_c, 1, 70, 0
1, 108120, Note_on_c, 1, 69, 127
1, 108179, Note_off_c, 1, 41, 0
1, 108179, Note_off_c, 1, 69, 0
1, 108240, Note_on_c, 1, 70, 127
1, 108299, Note_off_c, 1, 70, 0
1, 108300, Note_on_c, 1, 69, 127
1, 108359, Note_off_c, 1, 69, 0
1, 108420, Note_on_c, 1, 71, 127
1, 108420, Note_on_c, 1, 38, 127
1, 108479, Note_off_c, 1, 71, 0
1, 108480, Note_on_c, 1, 72, 127
1, 108539, Note_off_c, 1, 38, 0
1, 108539, Note_off_c, 1, 72, 0
1, 108600, Note_on_c, 1, 71, 127
1, 108659, Note_off_c, 1, 71, 0
1, 108660, Note_on_c, 1, 72, 127
1, 108719, Note_off_c, 1, 72, 0
1, 108780, Note_on_c, 1, 78, 127
1, 108780, Note_on_c, 1, 43, 127
1, 108839, Note_off_c, 1, 78, 0
1, 108840, Note_on_c, 1, 79, 127
1, 108899, Note_off_c, 1, 43, 0
1, 108899, Note_off_c, 1, 79, 0
1, 108960, Note_on_c, 1, 78, 127
1, 109019, Note_off_c, 1, 78, 0
1, 109020, Note_on_c, 1, 79, 127
1, 109079, Note_off_c, 1, 79, 0
1, 109140, Note_on_c, 1, 67, 127
1, 109140, Note_on_c, 1, 59, 127
1, 109199, Note_off_c, 1, 67, 0
1, 109199, Note_off_c, 1, 59, 0
1, 109200, Note_on_c, 1, 77, 127
1, 109200, Note_on_c, 1, 57, 127
1, 109259, Note_off_c, 1, 57, 0
1, 109260, Note_on_c, 1, 55, 127
1, 109319, Note_off_c, 1, 77, 0
1, 109319, Note_off_c, 1, 55, 0
1, 109320, Note_on_c, 1, 76, 127
1, 109320, Note_on_c, 1, 60, 127
1, 109379, Note_off_c, 1, 76, 0
1, 109379, Note_off_c, 1, 60, 0
1, 109380, Note_on_c, 1, 71, 127
1, 109380, Note_on_c, 1, 55, 127
1, 109439, Note_off_c, 1, 71, 0
1, 109439, Note_off_c, 1, 55, 0
1, 109440, Note_on_c, 1, 72, 127
1, 109440, Note_on_c, 1, 57, 127
1, 109499, Note_off_c, 1, 72, 0
1, 109499, Note_off_c, 1, 57, 0
1, 109500, Note_on_c, 1, 69, 127
1, 109500, Note_on_c, 1, 53, 127
1, 109559, Note_off_c, 1, 69, 0
1, 109559, Note_off_c, 1, 53, 0
1, 109560, Note_on_c, 1, 67, 127
1, 109560, Note_on_c, 1, 55, 127
1, 109589, Note_off_c, 1, 67, 0
1, 109590, Note_on_c, 1, 65, 127
1, 109619, Note_off_c, 1, 55, 0
1, 109619, Note_off_c, 1, 65, 0
1, 109620, Note_on_c, 1, 64, 127
1, 109620, Note_on_c, 1, 43, 127
1, 109649, Note_off_c, 1, 64, 0
1, 109650, Note_on_c, 1, 62, 127
1, 109679, Note_off_c, 1, 43, 0
1, 109679, Note_off_c, 1, 62, 0
1, 109680, Note_on_c, 1, 60, 127
1, 109680, Note_on_c, 1, 36, 127
1, 109859, Note_off_c, 1, 60, 0
1, 109859, Note_off_c, 1, 36, 0
1, 109980, Note_on_c, 1, 74, 127
1, 109980, Note_on_c, 1, 67, 127
1, 109980, Note_on_c, 1, 62, 127
1, 109980, Note_on_c, 1, 47, 127
1, 110040, Note_on_c, 1, 55, 127
1, 110099, Note_off_c, 1, 55, 0
1, 110280, Note_on_c, 1, 53, 127
1, 110339, Note_off_c, 1, 53, 0
1, 110340, Note_on_c, 1, 57, 127
1, 110399, Note_off_c, 1, 57, 0
1, 110459, Note_off_c, 1, 74, 0
1, 110459, Note_off_c, 1, 67, 0
1, 110459, Note_off_c, 1, 62, 0
1, 110459, Note_off_c, 1, 47, 0
1, 110460, Note_on_c, 1, 76, 127
1, 110460, Note_on_c, 1, 67, 127
1, 110460, Note_on_c, 1, 60, 127
1, 110460, Note_on_c, 1, 52, 127
1, 110460, Note_on_c, 1, 48, 127
1, 110519, Note_off_c, 1, 48, 0
1, 110520, Note_on_c, 1, 50, 127
1, 110579, Note_off_c, 1, 76, 0
1, 110579, Note_off_c, 1, 67, 0
1, 110579, Note_off_c, 1, 60, 0
1, 110579, Note_off_c, 1, 52, 0
1, 110579, Note_off_c, 1, 50, 0
1, 110580, Note_on_c, 1, 72, 127
1, 110580, Note_on_c, 1, 67, 127
1, 110580, Note_on_c, 1, 60, 127
1, 110580, Note_on_c, 1, 52, 127
1, 110639, Note_off_c, 1, 60, 0
1, 110639, Note_off_c, 1, 52, 0
1, 110640, Note_on_c, 1, 55, 127
1, 110640, Note_on_c, 1, 48, 127
1, 110699, Note_off_c, 1, 72, 0
1, 110699, Note_off_c, 1, 55, 0
1, 110699, Note_off_c, 1, 48, 0
1, 110700, Note_on_c, 1, 69, 127
1, 110700, Note_on_c, 1, 57, 127
1, 110700, Note_on_c, 1, 53, 127
1, 110759, Note_off_c, 1, 67, 0
1, 110759, Note_off_c, 1, 57, 0
1, 110759, Note_off_c, 1, 53, 0
1, 110760, Note_on_c, 1, 65, 127
1, 110760, Note_on_c, 1, 50, 127
1, 110819, Note_off_c, 1, 65, 0
1, 110819, Note_off_c, 1, 50, 0
1, 110820, Note_on_c, 1, 64, 127
1, 110820, Note_on_c, 1, 62, 127
1, 110849, Note_off_c, 1, 62, 0
1, 110850, Note_on_c, 1, 61, 127
1, 110879, Note_off_c, 1, 69, 0
1, 110879, Note_off_c, 1, 64, 0
1, 110909, Note_off_c, 1, 61, 0
1, 110940, Note_on_c, 1, 74, 127
1, 110940, Note_on_c, 1, 58, 127
1, 110999, Note_off_c, 1, 58, 0
1, 111059, Note_off_c, 1, 74, 0
1, 111060, Note_on_c, 1, 76, 127
1, 111060, Note_on_c, 1, 70, 127
1, 111060, Note_on_c, 1, 67, 127
1, 111060, Note_on_c, 1, 55, 127
1, 111119, Note_off_c, 1, 76, 0
1, 111119, Note_off_c, 1, 70, 0
1, 111119, Note_off_c, 1, 67, 0
1, 111119, Note_off_c, 1, 55, 0
1, 111120, Note_on_c, 1, 77, 127
1, 111120, Note_on_c, 1, 69, 127
1, 111120, Note_on_c, 1, 60, 127
1, 111120, Note_on_c, 1, 57, 127
1, 111149, Note_off_c, 1, 77, 0
1, 111150, Note_on_c, 1, 79, 127
1, 111179, Note_off_c, 1, 69, 0
1, 111179, Note_off_c, 1, 60, 0
1, 111179, Note_off_c, 1, 57, 0
1, 111179, Note_off_c, 1, 79, 0
1, 111180, Note_on_c, 1, 77, 127
1, 111180, Note_on_c, 1, 69, 127
1, 111180, Note_on_c, 1, 62, 127
1, 111180, Note_on_c, 1, 60, 127
1, 111180, Note_on_c, 1, 50, 127
1, 111239, Note_off_c, 1, 77, 0
1, 111239, Note_off_c, 1, 60, 0
1, 111239, Note_off_c, 1, 50, 0
1, 111240, Note_on_c, 1, 76, 127
1, 111240, Note_on_c, 1, 59, 127
1, 111240, Note_on_c, 1, 52, 127
1, 111299, Note_off_c, 1, 76, 0
1, 111299, Note_off_c, 1, 59, 0
1, 111299, Note_off_c, 1, 52, 0
1, 111300, Note_on_c, 1, 74, 127
1, 111300, Note_on_c, 1, 53, 127
1, 111359, Note_off_c, 1, 69, 0
1, 111359, Note_off_c, 1, 62, 0
1, 111359, Note_off_c, 1, 53, 0
1, 111360, Note_on_c, 1, 68, 127
1, 111360, Note_on_c, 1, 64, 127
1, 111389, Note_off_c, 1, 68, 0
1, 111389, Note_off_c, 1, 64, 0
1, 111390, Note_on_c, 1, 65, 127
1, 111419, Note_off_c, 1, 74, 0
1, 111419, Note_off_c, 1, 65, 0
1, 111420, Note_on_c, 1, 71, 127
1, 111420, Note_on_c, 1, 64, 127
1, 111420, Note_on_c, 1, 62, 127
1, 111420, Note_on_c, 1, 56, 127
1, 111479, Note_off_c, 1, 64, 0
1, 111479, Note_off_c, 1, 62, 0
1, 111479, Note_off_c, 1, 56, 0
1, 111480, Note_on_c, 1, 68, 127
1, 111480, Note_on_c, 1, 59, 127
1, 111509, Note_off_c, 1, 68, 0
1, 111510, Note_on_c, 1, 69, 127
1, 111539, Note_off_c, 1, 59, 0
1, 111539, Note_off_c, 1, 69, 0
1, 111540, Note_on_c, 1, 52, 127
1, 111599, Note_off_c, 1, 71, 0
1, 111599, Note_off_c, 1, 52, 0
1, 111600, Note_on_c, 1, 76, 127
1, 111600, Note_on_c, 1, 60, 127
1, 111629, Note_off_c, 1, 60, 0
1, 111659, Note_off_c, 1, 76, 0
1, 111660, Note_on_c, 1, 74, 127
1, 111660, Note_on_c, 1, 57, 127
1, 111660, Note_on_c, 1, 64, 127
1, 111719, Note_off_c, 1, 74, 0
1, 111720, Note_on_c, 1, 72, 127
1, 111720, Note_on_c, 1, 59, 127
1, 111779, Note_off_c, 1, 57, 0
1, 111779, Note_off_c, 1, 64, 0
1, 111779, Note_off_c, 1, 72, 0
1, 111779, Note_off_c, 1, 59, 0
1, 111780, Note_on_c, 1, 71, 127
1, 111780, Note_on_c, 1, 52, 127
1, 111780, Note_on_c, 1, 60, 127
1, 111839, Note_off_c, 1, 71, 0
1, 111839, Note_off_c, 1, 52, 0
1, 111839, Note_off_c, 1, 60, 0
1, 111840, Note_on_c, 1, 69, 127
1, 111840, Note_on_c, 1, 64, 127
1, 111840, Note_on_c, 1, 60, 127
1, 111840, Note_on_c, 1, 57, 127
1, 111840, Note_on_c, 1, 48, 127
1, 111899, Note_off_c, 1, 69, 0
1, 111899, Note_off_c, 1, 64, 0
1, 111899, Note_off_c, 1, 60, 0
1, 111899, Note_off_c, 1, 57, 0
1, 111899, Note_off_c, 1, 48, 0
1, 111900, Note_on_c, 1, 71, 127
1, 111900, Note_on_c, 1, 62, 127
1, 111900, Note_on_c, 1, 65, 127
1, 111900, Note_on_c, 1, 53, 127
1, 111900, Note_on_c, 1, 50, 127
1, 111959, Note_off_c, 1, 62, 0
1, 111959, Note_off_c, 1, 53, 0
1, 111960, Note_on_c, 1, 60, 127
1, 111960, Note_on_c, 1, 52, 127
1, 112019, Note_off_c, 1, 71, 0
1, 112019, Note_off_c, 1, 65, 0
1, 112019, Note_off_c, 1, 50, 0
1, 112019, Note_off_c, 1, 60, 0
1, 112019, Note_off_c, 1, 52, 0
1, 112020, Note_on_c, 1, 68, 127
1, 112020, Note_on_c, 1, 59, 127
1, 112020, Note_on_c, 1, 64, 127
1, 112020, Note_on_c, 1, 50, 127
1, 112079, Note_off_c, 1, 59, 0
1, 112079, Note_off_c, 1, 50, 0
1, 112080, Note_on_c, 1, 48, 127
1, 112080, Note_on_c, 1, 52, 127
1, 112139, Note_off_c, 1, 68, 0
1, 112139, Note_off_c, 1, 64, 0
1, 112139, Note_off_c, 1, 48, 0
1, 112139, Note_off_c, 1, 52, 0
1, 112140, Note_on_c, 1, 69, 127
1, 112140, Note_on_c, 1, 64, 127
1, 112140, Note_on_c, 1, 60, 127
1, 112140, Note_on_c, 1, 47, 127
1, 112140, Note_on_c, 1, 45, 127
1, 112199, Note_off_c, 1, 47, 0
1, 112199, Note_off_c, 1, 45, 0
1, 112260, Note_on_c, 1, 48, 127
1, 112319, Note_off_c, 1, 48, 0
1, 112320, Note_on_c, 1, 57, 127
1, 112379, Note_off_c, 1, 64, 0
1, 112379, Note_off_c, 1, 57, 0
1, 112380, Note_on_c, 1, 66, 127
1, 112380, Note_on_c, 1, 54, 127
1, 112380, Note_on_c, 1, 50, 127
1, 112439, Note_off_c, 1, 54, 0
1, 112560, Note_on_c, 1, 58, 127
1, 112619, Note_off_c, 1, 58, 0
1, 112739, Note_off_c, 1, 50, 0
1, 112740, Note_off_c, 1, 69, 0
1, 112740, Note_on_c, 1, 72, 127
1, 112740, Note_on_c, 1, 63, 127
1, 112800, Note_on_c, 1, 67, 127
1, 112800, Note_on_c, 1, 62, 127
1, 112859, Note_off_c, 1, 60, 0
1, 112859, Note_off_c, 1, 66, 0
1, 112859, Note_off_c, 1, 72, 0
1, 112859, Note_off_c, 1, 63, 0
1, 112859, Note_off_c, 1, 67, 0
1, 112859, Note_off_c, 1, 62, 0
1, 112860, Note_on_c, 1, 74, 127
1, 112860, Note_on_c, 1, 69, 127
1, 112860, Note_on_c, 1, 57, 127
1, 112860, Note_on_c, 1, 62, 127
1, 112860, Note_on_c, 1, 60, 127
1, 112860, Note_on_c, 1, 42, 127
1, 112919, Note_off_c, 1, 69, 0
1, 112919, Note_off_c, 1, 57, 0
1, 112919, Note_off_c, 1, 62, 0
1, 112919, Note_off_c, 1, 60, 0
1, 112919, Note_off_c, 1, 42, 0
1, 112920, Note_on_c, 1, 66, 127
1, 112920, Note_on_c, 1, 38, 127
1, 112979, Note_off_c, 1, 66, 0
1, 112979, Note_off_c, 1, 38, 0
1, 112980, Note_on_c, 1, 67, 127
1, 112980, Note_on_c, 1, 58, 127
1, 112980, Note_on_c, 1, 43, 127
1, 113039, Note_off_c, 1, 74, 0
1, 113039, Note_off_c, 1, 58, 0
1, 113039, Note_off_c, 1, 43, 0
1, 113040, Note_on_c, 1, 75, 127
1, 113040, Note_on_c, 1, 55, 127
1, 113040, Note_on_c, 1, 48, 127
1, 113099, Note_off_c, 1, 67, 0
1, 113099, Note_off_c, 1, 75, 0
1, 113099, Note_off_c, 1, 55, 0
1, 113159, Note_off_c, 1, 48, 0
1, 113160, Note_on_c, 1, 50, 127
1, 113160, Note_on_c, 1, 45, 127
1, 113219, Note_off_c, 1, 50, 0
1, 113219, Note_off_c, 1, 45, 0
1, 113220, Note_on_c, 1, 46, 127
1, 113279, Note_off_c, 1, 46, 0
1, 113280, Note_on_c, 1, 51, 127
1, 113339, Note_off_c, 1, 51, 0
1, 113340, Note_on_c, 1, 70, 127
1, 113400, Note_on_c, 1, 63, 127
1, 113459, Note_off_c, 1, 70, 0
1, 113459, Note_off_c, 1, 63, 0
1, 113460, Note_on_c, 1, 54, 127
1, 113519, Note_off_c, 1, 54, 0
1, 113520, Note_on_c, 1, 67, 127
1, 113520, Note_on_c, 1, 55, 127
1, 113520, Note_on_c, 1, 58, 127
1, 113520, Note_on_c, 1, 51, 127
1, 113579, Note_off_c, 1, 67, 0
1, 113579, Note_off_c, 1, 55, 0
1, 113579, Note_off_c, 1, 51, 0
1, 113580, Note_on_c, 1, 46, 127
1, 113639, Note_off_c, 1, 58, 0
1, 113639, Note_off_c, 1, 46, 0
1, 113640, Note_on_c, 1, 78, 127
1, 113640, Note_on_c, 1, 69, 127
1, 113640, Note_on_c, 1, 57, 127
1, 113640, Note_on_c, 1, 50, 127
1, 113640, Note_on_c, 1, 48, 127
1, 113669, Note_off_c, 1, 69, 0
1, 113669, Note_off_c, 1, 57, 0
1, 113670, Note_on_c, 1, 70, 127
1, 113670, Note_on_c, 1, 55, 127
1, 113699, Note_off_c, 1, 50, 0
1, 113699, Note_off_c, 1, 48, 0
1, 113699, Note_off_c, 1, 70, 0
1, 113699, Note_off_c, 1, 55, 0
1, 113700, Note_on_c, 1, 62, 127
1, 113759, Note_off_c, 1, 78, 0
1, 113759, Note_off_c, 1, 62, 0
1, 113760, Note_on_c, 1, 78, 127
1, 113760, Note_on_c, 1, 74, 127
1, 113760, Note_on_c, 1, 69, 127
1, 113760, Note_on_c, 1, 62, 127
1, 113760, Note_on_c, 1, 38, 127
1, 113819, Note_off_c, 1, 78, 0
1, 113819, Note_off_c, 1, 74, 0
1, 113819, Note_off_c, 1, 69, 0
1, 113819, Note_off_c, 1, 62, 0
1, 113819, Note_off_c, 1, 38, 0
1, 113820, Note_on_c, 1, 77, 127
1, 113820, Note_on_c, 1, 74, 127
1, 113820, Note_on_c, 1, 67, 127
1, 113820, Note_on_c, 1, 60, 127
1, 113820, Note_on_c, 1, 62, 127
1, 113820, Note_on_c, 1, 65, 127
1, 113820, Note_on_c, 1, 71, 127
1, 113820, Note_on_c, 1, 43, 127
1, 113849, Note_off_c, 1, 60, 0
1, 113850, Note_on_c, 1, 59, 127
1, 113879, Note_off_c, 1, 59, 0
1, 114030, Note_on_c, 1, 53, 127
1, 114059, Note_off_c, 1, 77, 0
1, 114059, Note_off_c, 1, 74, 0
1, 114059, Note_off_c, 1, 53, 0
1, 114180, Note_on_c, 1, 57, 127
1, 114239, Note_off_c, 1, 57, 0
1, 114240, Note_on_c, 1, 55, 127
1, 114299, Note_off_c, 1, 62, 0
1, 114299, Note_off_c, 1, 65, 0
1, 114299, Note_off_c, 1, 71, 0
1, 114299, Note_off_c, 1, 43, 0
1, 114299, Note_off_c, 1, 55, 0
1, 114300, Note_on_c, 1, 76, 127
1, 114300, Note_on_c, 1, 72, 127
1, 114300, Note_on_c, 1, 48, 127
1, 114359, Note_off_c, 1, 48, 0
1, 114360, Note_off_c, 1, 67, 0
1, 114360, Note_on_c, 1, 52, 127
1, 114360, Note_on_c, 1, 50, 127
1, 114419, Note_off_c, 1, 76, 0
1, 114419, Note_off_c, 1, 72, 0
1, 114419, Note_off_c, 1, 52, 0
1, 114419, Note_off_c, 1, 50, 0
1, 114420, Note_on_c, 1, 72, 127
1, 114420, Note_on_c, 1, 67, 127
1, 114420, Note_on_c, 1, 52, 127
1, 114479, Note_off_c, 1, 52, 0
1, 114480, Note_on_c, 1, 64, 127
1, 114480, Note_on_c, 1, 55, 127
1, 114480, Note_on_c, 1, 48, 127
1, 114539, Note_off_c, 1, 72, 0
1, 114539, Note_off_c, 1, 67, 0
1, 114539, Note_off_c, 1, 64, 0
1, 114539, Note_off_c, 1, 55, 0
1, 114539, Note_off_c, 1, 48, 0
1, 114540, Note_on_c, 1, 77, 127
1, 114540, Note_on_c, 1, 69, 127
1, 114540, Note_on_c, 1, 60, 127
1, 114540, Note_on_c, 1, 45, 127
1, 114599, Note_off_c, 1, 69, 0
1, 114599, Note_off_c, 1, 60, 0
1, 114599, Note_off_c, 1, 45, 0
1, 114600, Note_on_c, 1, 72, 127
1, 114600, Note_on_c, 1, 65, 127
1, 114600, Note_on_c, 1, 57, 127
1, 114600, Note_on_c, 1, 41, 127
1, 114659, Note_off_c, 1, 72, 0
1, 114659, Note_off_c, 1, 65, 0
1, 114659, Note_off_c, 1, 57, 0
1, 114659, Note_off_c, 1, 41, 0
1, 114660, Note_on_c, 1, 53, 127
1, 114719, Note_off_c, 1, 77, 0
1, 114720, Note_on_c, 1, 76, 127
1, 114779, Note_off_c, 1, 53, 0
1, 114779, Note_off_c, 1, 76, 0
1, 114780, Note_on_c, 1, 74, 127
1, 114780, Note_on_c, 1, 58, 127
1, 114840, Note_on_c, 1, 67, 127
1, 114840, Note_on_c, 1, 62, 127
1, 114840, Note_on_c, 1, 46, 127
1, 114869, Note_off_c, 1, 67, 0
1, 114899, Note_off_c, 1, 74, 0
1, 114899, Note_off_c, 1, 46, 0
1, 114900, Note_on_c, 1, 70, 127
1, 114959, Note_off_c, 1, 58, 0
1, 114959, Note_off_c, 1, 62, 0
1, 114960, Note_on_c, 1, 43, 127
1, 114990, Note_on_c, 1, 79, 127
1, 115019, Note_off_c, 1, 43, 0
1, 115019, Note_off_c, 1, 79, 0
1, 115020, Note_on_c, 1, 55, 127
1, 115020, Note_on_c, 1, 48, 127
1, 115079, Note_off_c, 1, 48, 0
1, 115080, Note_on_c, 1, 50, 127
1, 115139, Note_off_c, 1, 55, 0
1, 115139, Note_off_c, 1, 50, 0
1, 115140, Note_on_c, 1, 64, 127
1, 115140, Note_on_c, 1, 52, 127
1, 115260, Note_off_c, 1, 64, 0
1, 115740, Note_off_c, 1, 70, 0
1, 115740, Note_off_c, 1, 52, 0
1, 115740, Note_on_c, 1, 75, 127
1, 115859, Note_off_c, 1, 75, 0
1, 116220, Note_on_c, 1, 69, 127
1, 116220, Note_on_c, 1, 65, 127
1, 116220, Note_on_c, 1, 62, 127
1, 116220, Note_on_c, 1, 53, 127
1, 116220, Note_on_c, 1, 50, 127
1, 116279, Note_off_c, 1, 69, 0
1, 116279, Note_off_c, 1, 53, 0
1, 116280, Note_on_c, 1, 70, 127
1, 116280, Note_on_c, 1, 52, 127
1, 116339, Note_off_c, 1, 65, 0
1, 116339, Note_off_c, 1, 62, 0
1, 116339, Note_off_c, 1, 50, 0
1, 116339, Note_off_c, 1, 70, 0
1, 116339, Note_off_c, 1, 52, 0
1, 116340, Note_on_c, 1, 70, 127
1, 116340, Note_on_c, 1, 53, 127
1, 116399, Note_off_c, 1, 70, 0
1, 116399, Note_off_c, 1, 53, 0
1, 116400, Note_on_c, 1, 69, 127
1, 116400, Note_on_c, 1, 62, 127
1, 116400, Note_on_c, 1, 67, 127
1, 116400, Note_on_c, 1, 55, 127
1, 116400, Note_on_c, 1, 46, 127
1, 116429, Note_off_c, 1, 69, 0
1, 116430, Note_on_c, 1, 70, 127
1, 116459, Note_off_c, 1, 62, 0
1, 116459, Note_off_c, 1, 67, 0
1, 116459, Note_off_c, 1, 55, 0
1, 116459, Note_off_c, 1, 46, 0
1, 116459, Note_off_c, 1, 70, 0
1, 116460, Note_on_c, 1, 72, 127
1, 116460, Note_on_c, 1, 69, 127
1, 116460, Note_on_c, 1, 65, 127
1, 116460, Note_on_c, 1, 48, 127
1, 116460, Note_on_c, 1, 51, 127
1, 116519, Note_off_c, 1, 48, 0
1, 116550, Note_on_c, 1, 53, 127
1, 116579, Note_off_c, 1, 72, 0
1, 116579, Note_off_c, 1, 69, 0
1, 116579, Note_off_c, 1, 53, 0
1, 116580, Note_on_c, 1, 57, 127
1, 116580, Note_on_c, 1, 60, 127
1, 116639, Note_off_c, 1, 57, 0
1, 116639, Note_off_c, 1, 60, 0
1, 116640, Note_on_c, 1, 58, 127
1, 116640, Note_on_c, 1, 62, 127
1, 116699, Note_off_c, 1, 51, 0
1, 116699, Note_off_c, 1, 58, 0
1, 116699, Note_off_c, 1, 62, 0
1, 116700, Note_on_c, 1, 63, 127
1, 116700, Note_on_c, 1, 45, 127
1, 116759, Note_off_c, 1, 63, 0
1, 116759, Note_off_c, 1, 45, 0
1, 116760, Note_on_c, 1, 41, 127
1, 116819, Note_off_c, 1, 41, 0
1, 116820, Note_off_c, 1, 65, 0
1, 116820, Note_on_c, 1, 67, 127
1, 116820, Note_on_c, 1, 46, 127
1, 116879, Note_off_c, 1, 67, 0
1, 116940, Note_on_c, 1, 70, 127
1, 116940, Note_on_c, 1, 50, 127
1, 116999, Note_off_c, 1, 46, 0
1, 116999, Note_off_c, 1, 70, 0
1, 116999, Note_off_c, 1, 50, 0
1, 117000, Note_on_c, 1, 64, 127
1, 117000, Note_on_c, 1, 55, 127
1, 117000, Note_on_c, 1, 43, 127
1, 117030, Note_on_c, 1, 74, 127
1, 117059, Note_off_c, 1, 64, 0
1, 117059, Note_off_c, 1, 55, 0
1, 117059, Note_off_c, 1, 43, 0
1, 117059, Note_off_c, 1, 74, 0
1, 117060, Note_on_c, 1, 72, 127
1, 117060, Note_on_c, 1, 52, 127
1, 117060, Note_on_c, 1, 45, 127
1, 117119, Note_off_c, 1, 72, 0
1, 117119, Note_off_c, 1, 52, 0
1, 117119, Note_off_c, 1, 45, 0
1, 117120, Note_on_c, 1, 70, 127
1, 117120, Note_on_c, 1, 65, 127
1, 117120, Note_on_c, 1, 58, 127
1, 117120, Note_on_c, 1, 53, 127
1, 117120, Note_on_c, 1, 50, 127
1, 117179, Note_off_c, 1, 70, 0
1, 117179, Note_off_c, 1, 58, 0
1, 117179, Note_off_c, 1, 53, 0
1, 117179, Note_off_c, 1, 50, 0
1, 117180, Note_on_c, 1, 69, 127
1, 117180, Note_on_c, 1, 60, 127
1, 117180, Note_on_c, 1, 48, 127
1, 117239, Note_off_c, 1, 60, 0
1, 117239, Note_off_c, 1, 48, 0
1, 117240, Note_on_c, 1, 45, 127
1, 117299, Note_off_c, 1, 65, 0
1, 117299, Note_off_c, 1, 69, 0
1, 117299, Note_off_c, 1, 45, 0
1, 117300, Note_on_c, 1, 67, 127
1, 117300, Note_on_c, 1, 64, 127
1, 117300, Note_on_c, 1, 55, 127
1, 117300, Note_on_c, 1, 58, 127
1, 117300, Note_on_c, 1, 46, 127
1, 117329, Note_off_c, 1, 58, 0
1, 117330, Note_on_c, 1, 57, 127
1, 117359, Note_off_c, 1, 67, 0
1, 117359, Note_off_c, 1, 55, 0
1, 117359, Note_off_c, 1, 46, 0
1, 117359, Note_off_c, 1, 57, 0
1, 117360, Note_on_c, 1, 65, 127
1, 117360, Note_on_c, 1, 60, 127
1, 117360, Note_on_c, 1, 48, 127
1, 117419, Note_off_c, 1, 64, 0
1, 117419, Note_off_c, 1, 65, 0
1, 117419, Note_off_c, 1, 60, 0
1, 117419, Note_off_c, 1, 48, 0
1, 117420, Note_on_c, 1, 65, 127
1, 117420, Note_on_c, 1, 60, 127
1, 117420, Note_on_c, 1, 58, 127
1, 117420, Note_on_c, 1, 41, 127
1, 117479, Note_off_c, 1, 58, 0
1, 117480, Note_on_c, 1, 77, 127
1, 117480, Note_on_c, 1, 57, 127
1, 117539, Note_off_c, 1, 60, 0
1, 117539, Note_off_c, 1, 77, 0
1, 117539, Note_off_c, 1, 57, 0
1, 117540, Note_off_c, 1, 65, 0
1, 117540, Note_on_c, 1, 72, 127
1, 117599, Note_off_c, 1, 72, 0
1, 117600, Note_on_c, 1, 75, 127
1, 117600, Note_on_c, 1, 69, 127
1, 117659, Note_off_c, 1, 75, 0
1, 117659, Note_off_c, 1, 69, 0
1, 117720, Note_on_c, 1, 74, 127
1, 117720, Note_on_c, 1, 70, 127
1, 117779, Note_off_c, 1, 74, 0
1, 117779, Note_off_c, 1, 70, 0
1, 117840, Note_on_c, 1, 63, 127
1, 117899, Note_off_c, 1, 63, 0
1, 117960, Note_on_c, 1, 62, 127
1, 117960, Note_on_c, 1, 53, 127
1, 118019, Note_off_c, 1, 62, 0
1, 118019, Note_off_c, 1, 53, 0
1, 118020, Note_on_c, 1, 64, 127
1, 118079, Note_off_c, 1, 64, 0
1, 118080, Note_on_c, 1, 67, 127
1, 118080, Note_on_c, 1, 52, 127
1, 118139, Note_off_c, 1, 67, 0
1, 118139, Note_off_c, 1, 52, 0
1, 118140, Note_on_c, 1, 48, 127
1, 118259, Note_off_c, 1, 48, 0
1, 118260, Note_off_c, 1, 41, 0
1, 118620, Note_on_c, 1, 74, 127
1, 118620, Note_on_c, 1, 38, 127
1, 118620, Note_on_c, 1, 65, 127
1, 118620, Note_on_c, 1, 62, 127
1, 118679, Note_off_c, 1, 74, 0
1, 118679, Note_off_c, 1, 38, 0
1, 118679, Note_off_c, 1, 65, 0
1, 118679, Note_off_c, 1, 62, 0
1, 118680, Note_on_c, 1, 62, 127
1, 118740, Note_on_c, 1, 50, 127
1, 118740, Note_on_c, 1, 69, 127
1, 118740, Note_on_c, 1, 65, 127
1, 118769, Note_off_c, 1, 62, 0
1, 118770, Note_on_c, 1, 64, 127
1, 118799, Note_off_c, 1, 50, 0
1, 118799, Note_off_c, 1, 69, 0
1, 118799, Note_off_c, 1, 65, 0
1, 118799, Note_off_c, 1, 64, 0
1, 118800, Note_on_c, 1, 65, 127
1, 118829, Note_off_c, 1, 65, 0
1, 118830, Note_on_c, 1, 67, 127
1, 118859, Note_off_c, 1, 67, 0
1, 118860, Note_on_c, 1, 69, 127
1, 118860, Note_on_c, 1, 49, 127
1, 118860, Note_on_c, 1, 64, 127
1, 118860, Note_on_c, 1, 67, 127
1, 118919, Note_off_c, 1, 69, 0
1, 118919, Note_off_c, 1, 49, 0
1, 118919, Note_off_c, 1, 64, 0
1, 118919, Note_off_c, 1, 67, 0
1, 118920, Note_on_c, 1, 69, 127
1, 118979, Note_off_c, 1, 69, 0
1, 118980, Note_on_c, 1, 69, 127
1, 118980, Note_on_c, 1, 50, 127
1, 118980, Note_on_c, 1, 65, 127
1, 118980, Note_on_c, 1, 62, 127
1, 119039, Note_off_c, 1, 69, 0
1, 119039, Note_off_c, 1, 50, 0
1, 119039, Note_off_c, 1, 65, 0
1, 119039, Note_off_c, 1, 62, 0
1, 119040, Note_on_c, 1, 69, 127
1, 119099, Note_off_c, 1, 69, 0
1, 119100, Note_on_c, 1, 70, 127
1, 119100, Note_on_c, 1, 43, 127
1, 119100, Note_on_c, 1, 65, 127
1, 119100, Note_on_c, 1, 62, 127
1, 119129, Note_off_c, 1, 70, 0
1, 119130, Note_on_c, 1, 69, 127
1, 119159, Note_off_c, 1, 43, 0
1, 119159, Note_off_c, 1, 65, 0
1, 119159, Note_off_c, 1, 62, 0
1, 119159, Note_off_c, 1, 69, 0
1, 119160, Note_on_c, 1, 70, 127
1, 119189, Note_off_c, 1, 70, 0
1, 119190, Note_on_c, 1, 72, 127
1, 119219, Note_off_c, 1, 72, 0
1, 119220, Note_on_c, 1, 70, 127
1, 119220, Note_on_c, 1, 48, 127
1, 119220, Note_on_c, 1, 67, 127
1, 119250, Note_on_c, 1, 69, 127
1, 119279, Note_off_c, 1, 70, 0
1, 119279, Note_off_c, 1, 48, 0
1, 119279, Note_off_c, 1, 67, 0
1, 119279, Note_off_c, 1, 69, 0
1, 119280, Note_on_c, 1, 67, 127
1, 119309, Note_off_c, 1, 67, 0
1, 119310, Note_on_c, 1, 70, 127
1, 119339, Note_off_c, 1, 70, 0
1, 119340, Note_on_c, 1, 69, 127
1, 119340, Note_on_c, 1, 41, 127
1, 119340, Note_on_c, 1, 64, 127
1, 119340, Note_on_c, 1, 65, 127
1, 119370, Note_on_c, 1, 67, 127
1, 119399, Note_off_c, 1, 69, 0
1, 119399, Note_off_c, 1, 41, 0
1, 119399, Note_off_c, 1, 64, 0
1, 119399, Note_off_c, 1, 65, 0
1, 119399, Note_off_c, 1, 67, 0
1, 119400, Note_on_c, 1, 69, 127
1, 119429, Note_off_c, 1, 69, 0
1, 119430, Note_on_c, 1, 70, 127
1, 119459, Note_off_c, 1, 70, 0
1, 119460, Note_on_c, 1, 69, 127
1, 119460, Note_on_c, 1, 46, 127
1, 119460, Note_on_c, 1, 70, 127
1, 119460, Note_on_c, 1, 65, 127
1, 119489, Note_off_c, 1, 69, 0
1, 119490, Note_on_c, 1, 67, 127
1, 119519, Note_off_c, 1, 46, 0
1, 119519, Note_off_c, 1, 70, 0
1, 119519, Note_off_c, 1, 65, 0
1, 119519, Note_off_c, 1, 67, 0
1, 119520, Note_on_c, 1, 65, 127
1, 119549, Note_off_c, 1, 65, 0
1, 119550, Note_on_c, 1, 69, 127
1, 119579, Note_off_c, 1, 69, 0
1, 119580, Note_on_c, 1, 67, 127
1, 119580, Note_on_c, 1, 40, 127
1, 119580, Note_on_c, 1, 62, 127
1, 119610, Note_on_c, 1, 65, 127
1, 119639, Note_off_c, 1, 67, 0
1, 119639, Note_off_c, 1, 40, 0
1, 119639, Note_off_c, 1, 62, 0
1, 119639, Note_off_c, 1, 65, 0
1, 119640, Note_on_c, 1, 67, 127
1, 119669, Note_off_c, 1, 67, 0
1, 119670, Note_on_c, 1, 69, 127
1, 119699, Note_off_c, 1, 69, 0
1, 119700, Note_on_c, 1, 67, 127
1, 119700, Note_on_c, 1, 45, 127
1, 119700, Note_on_c, 1, 61, 127
1, 119730, Note_on_c, 1, 65, 127
1, 119759, Note_off_c, 1, 67, 0
1, 119759, Note_off_c, 1, 45, 0
1, 119759, Note_off_c, 1, 61, 0
1, 119759, Note_off_c, 1, 65, 0
1, 119760, Note_on_c, 1, 64, 127
1, 119789, Note_off_c, 1, 64, 0
1, 119790, Note_on_c, 1, 67, 127
1, 119819, Note_off_c, 1, 67, 0
1, 119820, Note_on_c, 1, 65, 127
1, 119820, Note_on_c, 1, 38, 127
1, 119820, Note_on_c, 1, 62, 127
1, 119850, Note_on_c, 1, 64, 127
1, 119879, Note_off_c, 1, 65, 0
1, 119879, Note_off_c, 1, 38, 0
1, 119879, Note_off_c, 1, 62, 0
1, 119879, Note_off_c, 1, 64, 0
1, 119880, Note_on_c, 1, 62, 127
1, 119880, Note_on_c, 1, 50, 127
1, 119880, Note_on_c, 1, 65, 127
1, 119909, Note_off_c, 1, 62, 0
1, 119910, Note_on_c, 1, 64, 127
1, 119939, Note_off_c, 1, 50, 0
1, 119939, Note_off_c, 1, 65, 0
1, 119939, Note_off_c, 1, 64, 0
1, 119940, Note_on_c, 1, 66, 127
1, 119940, Note_on_c, 1, 48, 127
1, 119940, Note_on_c, 1, 64, 127
1, 119969, Note_off_c, 1, 66, 0
1, 119970, Note_on_c, 1, 68, 127
1, 119999, Note_off_c, 1, 48, 0
1, 119999, Note_off_c, 1, 64, 0
1, 119999, Note_off_c, 1, 68, 0
1, 120000, Note_on_c, 1, 69, 127
1, 120000, Note_on_c, 1, 47, 127
1, 120000, Note_on_c, 1, 62, 127
1, 120000, Note_on_c, 1, 71, 127
1, 120000, Note_on_c, 1, 68, 127
1, 120029, Note_off_c, 1, 69, 0
1, 120059, Note_off_c, 1, 47, 0
1, 120059, Note_off_c, 1, 62, 0
1, 120059, Note_off_c, 1, 71, 0
1, 120059, Note_off_c, 1, 68, 0
1, 120060, Note_on_c, 1, 81, 127
1, 120060, Note_on_c, 1, 72, 127
1, 120060, Note_on_c, 1, 45, 127
1, 120060, Note_on_c, 1, 69, 127
1, 120060, Note_on_c, 1, 64, 127
1, 120060, Note_on_c, 1, 60, 127
1, 120089, Note_off_c, 1, 72, 0
1, 120090, Note_on_c, 1, 71, 127
1, 120119, Note_off_c, 1, 81, 0
1, 120119, Note_off_c, 1, 45, 0
1, 120119, Note_off_c, 1, 69, 0
1, 120119, Note_off_c, 1, 64, 0
1, 120119, Note_off_c, 1, 60, 0
1, 120119, Note_off_c, 1, 71, 0
1, 120120, Note_on_c, 1, 69, 127
1, 120150, Note_on_c, 1, 71, 127
1, 120179, Note_off_c, 1, 71, 0
1, 120180, Note_on_c, 1, 72, 127
1, 120180, Note_on_c, 1, 57, 127
1, 120210, Note_on_c, 1, 74, 127
1, 120239, Note_off_c, 1, 69, 0
1, 120239, Note_off_c, 1, 72, 0
1, 120239, Note_off_c, 1, 57, 0
1, 120239, Note_off_c, 1, 74, 0
1, 120240, Note_on_c, 1, 72, 127
1, 120240, Note_on_c, 1, 76, 127
1, 120269, Note_off_c, 1, 72, 0
1, 120269, Note_off_c, 1, 76, 0
1, 120270, Note_on_c, 1, 74, 127
1, 120270, Note_on_c, 1, 77, 127
1, 120299, Note_off_c, 1, 74, 0
1, 120299, Note_off_c, 1, 77, 0
1, 120300, Note_on_c, 1, 76, 127
1, 120300, Note_on_c, 1, 71, 127
1, 120300, Note_on_c, 1, 56, 127
1, 120300, Note_on_c, 1, 68, 127
1, 120330, Note_on_c, 1, 72, 127
1, 120359, Note_off_c, 1, 76, 0
1, 120359, Note_off_c, 1, 71, 0
1, 120359, Note_off_c, 1, 56, 0
1, 120359, Note_off_c, 1, 68, 0
1, 120359, Note_off_c, 1, 72, 0
1, 120360, Note_on_c, 1, 76, 127
1, 120360, Note_on_c, 1, 74, 127
1, 120389, Note_off_c, 1, 74, 0
1, 120390, Note_on_c, 1, 71, 127
1, 120419, Note_off_c, 1, 76, 0
1, 120419, Note_off_c, 1, 71, 0
1, 120420, Note_on_c, 1, 76, 127
1, 120420, Note_on_c, 1, 72, 127
1, 120420, Note_on_c, 1, 57, 127
1, 120420, Note_on_c, 1, 69, 127
1, 120420, Note_on_c, 1, 64, 127
1, 120479, Note_off_c, 1, 76, 0
1, 120479, Note_off_c, 1, 72, 0
1, 120479, Note_off_c, 1, 57, 0
1, 120479, Note_off_c, 1, 69, 0
1, 120479, Note_off_c, 1, 64, 0
1, 120480, Note_on_c, 1, 76, 127
1, 120480, Note_on_c, 1, 72, 127
1, 120539, Note_off_c, 1, 76, 0
1, 120540, Note_on_c, 1, 77, 127
1, 120540, Note_on_c, 1, 50, 127
1, 120540, Note_on_c, 1, 69, 127
1, 120540, Note_on_c, 1, 65, 127
1, 120569, Note_off_c, 1, 77, 0
1, 120599, Note_off_c, 1, 72, 0
1, 120599, Note_off_c, 1, 50, 0
1, 120599, Note_off_c, 1, 69, 0
1, 120599, Note_off_c, 1, 65, 0
1, 120600, Note_on_c, 1, 77, 127
1, 120600, Note_on_c, 1, 71, 127
1, 120629, Note_off_c, 1, 77, 0
1, 120629, Note_off_c, 1, 71, 0
1, 120630, Note_on_c, 1, 79, 127
1, 120630, Note_on_c, 1, 69, 127
1, 120659, Note_off_c, 1, 79, 0
1, 120659, Note_off_c, 1, 69, 0
1, 120660, Note_on_c, 1, 77, 127
1, 120660, Note_on_c, 1, 71, 127
1, 120660, Note_on_c, 1, 55, 127
1, 120660, Note_on_c, 1, 65, 127
1, 120660, Note_on_c, 1, 67, 127
1, 120689, Note_off_c, 1, 77, 0
1, 120690, Note_on_c, 1, 76, 127
1, 120719, Note_off_c, 1, 71, 0
1, 120719, Note_off_c, 1, 55, 0
1, 120719, Note_off_c, 1, 65, 0
1, 120719, Note_off_c, 1, 67, 0
1, 120719, Note_off_c, 1, 76, 0
1, 120720, Note_on_c, 1, 74, 127
1, 120720, Note_on_c, 1, 71, 127
1, 120749, Note_off_c, 1, 74, 0
1, 120750, Note_on_c, 1, 77, 127
1, 120779, Note_off_c, 1, 77, 0
1, 120780, Note_on_c, 1, 76, 127
1, 120780, Note_on_c, 1, 48, 127
1, 120780, Note_on_c, 1, 64, 127
1, 120780, Note_on_c, 1, 67, 127
1, 120809, Note_off_c, 1, 76, 0
1, 120839, Note_off_c, 1, 71, 0
1, 120839, Note_off_c, 1, 48, 0
1, 120839, Note_off_c, 1, 64, 0
1, 120839, Note_off_c, 1, 67, 0
1, 120840, Note_on_c, 1, 76, 127
1, 120840, Note_on_c, 1, 69, 127
1, 120869, Note_off_c, 1, 76, 0
1, 120869, Note_off_c, 1, 69, 0
1, 120870, Note_on_c, 1, 77, 127
1, 120870, Note_on_c, 1, 68, 127
1, 120899, Note_off_c, 1, 77, 0
1, 120899, Note_off_c, 1, 68, 0
1, 120900, Note_on_c, 1, 76, 127
1, 120900, Note_on_c, 1, 69, 127
1, 120900, Note_on_c, 1, 53, 127
1, 120900, Note_on_c, 1, 64, 127
1, 120900, Note_on_c, 1, 72, 127
1, 120929, Note_off_c, 1, 76, 0
1, 120930, Note_on_c, 1, 74, 127
1, 120959, Note_off_c, 1, 69, 0
1, 120959, Note_off_c, 1, 53, 0
1, 120959, Note_off_c, 1, 64, 0
1, 120959, Note_off_c, 1, 72, 0
1, 120959, Note_off_c, 1, 74, 0
1, 120960, Note_on_c, 1, 72, 127
1, 120960, Note_on_c, 1, 69, 127
1, 120989, Note_off_c, 1, 72, 0
1, 120990, Note_on_c, 1, 76, 127
1, 121019, Note_off_c, 1, 76, 0
1, 121020, Note_on_c, 1, 74, 127
1, 121020, Note_on_c, 1, 47, 127
1, 121020, Note_on_c, 1, 71, 127
1, 121020, Note_on_c, 1, 65, 127
1, 121049, Note_off_c, 1, 74, 0
1, 121079, Note_off_c, 1, 69, 0
1, 121079, Note_off_c, 1, 47, 0
1, 121079, Note_off_c, 1, 71, 0
1, 121079, Note_off_c, 1, 65, 0
1, 121080, Note_on_c, 1, 74, 127
1, 121080, Note_on_c, 1, 68, 127
1, 121109, Note_off_c, 1, 74, 0
1, 121109, Note_off_c, 1, 68, 0
1, 121110, Note_on_c, 1, 76, 127
1, 121110, Note_on_c, 1, 66, 127
1, 121139, Note_off_c, 1, 76, 0
1, 121139, Note_off_c, 1, 66, 0
1, 121140, Note_on_c, 1, 74, 127
1, 121140, Note_on_c, 1, 68, 127
1, 121140, Note_on_c, 1, 52, 127
1, 121140, Note_on_c, 1, 71, 127
1, 121140, Note_on_c, 1, 62, 127
1, 121160, Note_on_c, 1, 69, 127
1, 121169, Note_off_c, 1, 74, 0
1, 121170, Note_on_c, 1, 72, 127
1, 121179, Note_off_c, 1, 69, 0
1, 121199, Note_off_c, 1, 68, 0
1, 121199, Note_off_c, 1, 52, 0
1, 121199, Note_off_c, 1, 71, 0
1, 121199, Note_off_c, 1, 62, 0
1, 121199, Note_off_c, 1, 72, 0
1, 121200, Note_on_c, 1, 71, 127
1, 121200, Note_on_c, 1, 69, 127
1, 121214, Note_off_c, 1, 69, 0
1, 121215, Note_on_c, 1, 68, 127
1, 121229, Note_off_c, 1, 71, 0
1, 121229, Note_off_c, 1, 68, 0
1, 121230, Note_on_c, 1, 74, 127
1, 121230, Note_on_c, 1, 69, 127
1, 121259, Note_off_c, 1, 74, 0
1, 121260, Note_on_c, 1, 72, 127
1, 121260, Note_on_c, 1, 45, 127
1, 121260, Note_on_c, 1, 60, 127
1, 121289, Note_off_c, 1, 72, 0
1, 121290, Note_on_c, 1, 71, 127
1, 121319, Note_off_c, 1, 45, 0
1, 121319, Note_off_c, 1, 60, 0
1, 121319, Note_off_c, 1, 71, 0
1, 121320, Note_on_c, 1, 57, 127
1, 121320, Note_on_c, 1, 64, 127
1, 121379, Note_off_c, 1, 69, 0
1, 121379, Note_off_c, 1, 57, 0
1, 121379, Note_off_c, 1, 64, 0
1, 121380, Note_on_c, 1, 73, 127
1, 121380, Note_on_c, 1, 55, 127
1, 121380, Note_on_c, 1, 61, 127
1, 121380, Note_on_c, 1, 69, 127
1, 121409, Note_off_c, 1, 73, 0
1, 121410, Note_on_c, 1, 74, 127
1, 121439, Note_off_c, 1, 55, 0
1, 121439, Note_off_c, 1, 61, 0
1, 121439, Note_off_c, 1, 69, 0
1, 121439, Note_off_c, 1, 74, 0
1, 121440, Note_on_c, 1, 76, 127
1, 121440, Note_on_c, 1, 69, 127
1, 121440, Note_on_c, 1, 53, 127
1, 121440, Note_on_c, 1, 62, 127
1, 121469, Note_off_c, 1, 76, 0
1, 121470, Note_on_c, 1, 77, 127
1, 121499, Note_off_c, 1, 69, 0
1, 121499, Note_off_c, 1, 53, 0
1, 121499, Note_off_c, 1, 62, 0
1, 121499, Note_off_c, 1, 77, 0
1, 121500, Note_on_c, 1, 79, 127
1, 121500, Note_on_c, 1, 70, 127
1, 121500, Note_on_c, 1, 52, 127
1, 121500, Note_on_c, 1, 62, 127
1, 121500, Note_on_c, 1, 67, 127
1, 121529, Note_off_c, 1, 79, 0
1, 121530, Note_on_c, 1, 77, 127
1, 121559, Note_off_c, 1, 70, 0
1, 121559, Note_off_c, 1, 52, 0
1, 121559, Note_off_c, 1, 62, 0
1, 121559, Note_off_c, 1, 67, 0
1, 121559, Note_off_c, 1, 77, 0
1, 121560, Note_on_c, 1, 79, 127
1, 121560, Note_on_c, 1, 67, 127
1, 121589, Note_off_c, 1, 79, 0
1, 121590, Note_on_c, 1, 81, 127
1, 121619, Note_off_c, 1, 67, 0
1, 121619, Note_off_c, 1, 81, 0
1, 121620, Note_on_c, 1, 79, 127
1, 121620, Note_on_c, 1, 64, 127
1, 121620, Note_on_c, 1, 57, 127
1, 121620, Note_on_c, 1, 61, 127
1, 121620, Note_on_c, 1, 69, 127
1, 121620, Note_on_c, 1, 67, 127
1, 121649, Note_off_c, 1, 79, 0
1, 121650, Note_on_c, 1, 77, 127
1, 121679, Note_off_c, 1, 64, 0
1, 121679, Note_off_c, 1, 57, 0
1, 121679, Note_off_c, 1, 61, 0
1, 121679, Note_off_c, 1, 69, 0
1, 121679, Note_off_c, 1, 67, 0
1, 121679, Note_off_c, 1, 77, 0
1, 121680, Note_on_c, 1, 76, 127
1, 121680, Note_on_c, 1, 73, 127
1, 121709, Note_off_c, 1, 76, 0
1, 121710, Note_on_c, 1, 79, 127
1, 121739, Note_off_c, 1, 73, 0
1, 121739, Note_off_c, 1, 79, 0
1, 121740, Note_on_c, 1, 77, 127
1, 121740, Note_on_c, 1, 74, 127
1, 121740, Note_on_c, 1, 50, 127
1, 121740, Note_on_c, 1, 69, 127
1, 121740, Note_on_c, 1, 65, 127
1, 121740, Note_on_c, 1, 62, 127
1, 121799, Note_off_c, 1, 77, 0
1, 121799, Note_off_c, 1, 74, 0
1, 121799, Note_off_c, 1, 50, 0
1, 121799, Note_off_c, 1, 69, 0
1, 121799, Note_off_c, 1, 65, 0
1, 121799, Note_off_c, 1, 62, 0
1, 121800, Note_on_c, 1, 74, 127
1, 121800, Note_on_c, 1, 62, 127
1, 121800, Note_on_c, 1, 65, 127
1, 121830, Note_on_c, 1, 64, 127
1, 121859, Note_off_c, 1, 74, 0
1, 121859, Note_off_c, 1, 62, 0
1, 121859, Note_off_c, 1, 65, 0
1, 121859, Note_off_c, 1, 64, 0
1, 121860, Note_on_c, 1, 66, 127
1, 121860, Note_on_c, 1, 60, 127
1, 121860, Note_on_c, 1, 62, 127
1, 121890, Note_on_c, 1, 67, 127
1, 121919, Note_off_c, 1, 66, 0
1, 121919, Note_off_c, 1, 60, 0
1, 121919, Note_off_c, 1, 62, 0
1, 121919, Note_off_c, 1, 67, 0
1, 121920, Note_on_c, 1, 74, 127
1, 121920, Note_on_c, 1, 69, 127
1, 121920, Note_on_c, 1, 58, 127
1, 121920, Note_on_c, 1, 67, 127
1, 121949, Note_off_c, 1, 69, 0
1, 121950, Note_on_c, 1, 70, 127
1, 121979, Note_off_c, 1, 74, 0
1, 121979, Note_off_c, 1, 58, 0
1, 121979, Note_off_c, 1, 67, 0
1, 121979, Note_off_c, 1, 70, 0
1, 121980, Note_on_c, 1, 75, 127
1, 121980, Note_on_c, 1, 72, 127
1, 121980, Note_on_c, 1, 57, 127
1, 121980, Note_on_c, 1, 67, 127
1, 121980, Note_on_c, 1, 63, 127
1, 122009, Note_off_c, 1, 72, 0
1, 122010, Note_on_c, 1, 70, 127
1, 122039, Note_off_c, 1, 75, 0
1, 122039, Note_off_c, 1, 57, 0
1, 122039, Note_off_c, 1, 67, 0
1, 122039, Note_off_c, 1, 63, 0
1, 122039, Note_off_c, 1, 70, 0
1, 122040, Note_on_c, 1, 72, 127
1, 122070, Note_on_c, 1, 74, 127
1, 122099, Note_off_c, 1, 72, 0
1, 122099, Note_off_c, 1, 74, 0
1, 122100, Note_on_c, 1, 69, 127
1, 122100, Note_on_c, 1, 72, 127
1, 122100, Note_on_c, 1, 50, 127
1, 122100, Note_on_c, 1, 66, 127
1, 122100, Note_on_c, 1, 60, 127
1, 122129, Note_off_c, 1, 72, 0
1, 122130, Note_on_c, 1, 70, 127
1, 122159, Note_off_c, 1, 69, 0
1, 122159, Note_off_c, 1, 50, 0
1, 122159, Note_off_c, 1, 66, 0
1, 122159, Note_off_c, 1, 60, 0
1, 122159, Note_off_c, 1, 70, 0
1, 122160, Note_on_c, 1, 78, 127
1, 122160, Note_on_c, 1, 69, 127
1, 122189, Note_off_c, 1, 69, 0
1, 122190, Note_on_c, 1, 72, 127
1, 122219, Note_off_c, 1, 78, 0
1, 122219, Note_off_c, 1, 72, 0
1, 122220, Note_on_c, 1, 79, 127
1, 122220, Note_on_c, 1, 70, 127
1, 122220, Note_on_c, 1, 43, 127
1, 122220, Note_on_c, 1, 67, 127
1, 122220, Note_on_c, 1, 62, 127
1, 122249, Note_off_c, 1, 70, 0
1, 122250, Note_on_c, 1, 69, 127
1, 122279, Note_off_c, 1, 79, 0
1, 122279, Note_off_c, 1, 43, 0
1, 122279, Note_off_c, 1, 67, 0
1, 122279, Note_off_c, 1, 62, 0
1, 122279, Note_off_c, 1, 69, 0
1, 122280, Note_on_c, 1, 67, 127
1, 122280, Note_on_c, 1, 71, 127
1, 122280, Note_on_c, 1, 55, 127
1, 122310, Note_on_c, 1, 69, 127
1, 122310, Note_on_c, 1, 73, 127
1, 122339, Note_off_c, 1, 67, 0
1, 122339, Note_off_c, 1, 71, 0
1, 122339, Note_off_c, 1, 55, 0
1, 122339, Note_off_c, 1, 69, 0
1, 122339, Note_off_c, 1, 73, 0
1, 122340, Note_on_c, 1, 71, 127
1, 122340, Note_on_c, 1, 74, 127
1, 122340, Note_on_c, 1, 53, 127
1, 122340, Note_on_c, 1, 67, 127
1, 122369, Note_off_c, 1, 74, 0
1, 122370, Note_on_c, 1, 73, 127
1, 122370, Note_on_c, 1, 76, 127
1, 122399, Note_off_c, 1, 71, 0
1, 122399, Note_off_c, 1, 53, 0
1, 122399, Note_off_c, 1, 67, 0
1, 122399, Note_off_c, 1, 73, 0
1, 122399, Note_off_c, 1, 76, 0
1, 122400, Note_on_c, 1, 74, 127
1, 122400, Note_on_c, 1, 77, 127
1, 122400, Note_on_c, 1, 52, 127
1, 122400, Note_on_c, 1, 73, 127
1, 122400, Note_on_c, 1, 67, 127
1, 122429, Note_off_c, 1, 74, 0
1, 122429, Note_off_c, 1, 77, 0
1, 122430, Note_on_c, 1, 76, 127
1, 122430, Note_on_c, 1, 79, 127
1, 122459, Note_off_c, 1, 52, 0
1, 122459, Note_off_c, 1, 73, 0
1, 122459, Note_off_c, 1, 67, 0
1, 122459, Note_off_c, 1, 76, 0
1, 122459, Note_off_c, 1, 79, 0
1, 122460, Note_on_c, 1, 77, 127
1, 122460, Note_on_c, 1, 81, 127
1, 122460, Note_on_c, 1, 50, 127
1, 122460, Note_on_c, 1, 74, 127
1, 122460, Note_on_c, 1, 69, 127
1, 122460, Note_on_c, 1, 65, 127
1, 122489, Note_off_c, 1, 77, 0
1, 122489, Note_off_c, 1, 81, 0
1, 122490, Note_on_c, 1, 79, 127
1, 122490, Note_on_c, 1, 82, 127
1, 122519, Note_off_c, 1, 50, 0
1, 122519, Note_off_c, 1, 79, 0
1, 122519, Note_off_c, 1, 82, 0
1, 122520, Note_on_c, 1, 76, 127
1, 122520, Note_on_c, 1, 38, 127
1, 122549, Note_off_c, 1, 76, 0
1, 122580, Note_off_c, 1, 74, 0
1, 122609, Note_off_c, 1, 38, 0
1, 122610, Note_on_c, 1, 40, 127
1, 122639, Note_off_c, 1, 40, 0
1, 122640, Note_on_c, 1, 41, 127
1, 122669, Note_off_c, 1, 41, 0
1, 122670, Note_on_c, 1, 43, 127
1, 122699, Note_off_c, 1, 43, 0
1, 122700, Note_off_c, 1, 65, 0
1, 122700, Note_on_c, 1, 73, 127
1, 122700, Note_on_c, 1, 45, 127
1, 122700, Note_on_c, 1, 64, 127
1, 122759, Note_off_c, 1, 45, 0
1, 122790, Note_on_c, 1, 71, 127
1, 122819, Note_off_c, 1, 71, 0
1, 122940, Note_off_c, 1, 73, 0
1, 122940, Note_off_c, 1, 64, 0
1, 122940, Note_on_c, 1, 46, 127
1, 122940, Note_on_c, 1, 70, 127
1, 122969, Note_off_c, 1, 46, 0
1, 123030, Note_on_c, 1, 48, 127
1, 123059, Note_off_c, 1, 48, 0
1, 123060, Note_off_c, 1, 69, 0
1, 123180, Note_off_c, 1, 70, 0
1, 123180, Note_on_c, 1, 72, 127
1, 123239, Note_off_c, 1, 72, 0
1, 123420, Note_on_c, 1, 67, 127
1, 123660, Note_off_c, 1, 67, 0
1, 123810, Note_on_c, 1, 47, 127
1, 123839, Note_off_c, 1, 47, 0
1, 123840, Note_on_c, 1, 49, 127
1, 123869, Note_off_c, 1, 49, 0
1, 123900, Note_on_c, 1, 52, 127
1, 123929, Note_off_c, 1, 52, 0
1, 123990, Note_on_c, 1, 53, 127
1, 124019, Note_off_c, 1, 53, 0
1, 124020, Note_on_c, 1, 55, 127
1, 124049, Note_off_c, 1, 55, 0
1, 124050, Note_on_c, 1, 57, 127
1, 124079, Note_off_c, 1, 57, 0
1, 124080, Note_on_c, 1, 59, 127
1, 124109, Note_off_c, 1, 59, 0
1, 124110, Note_on_c, 1, 61, 127
1, 124139, Note_off_c, 1, 61, 0
1, 124140, Note_on_c, 1, 62, 127
1, 124199, Note_off_c, 1, 62, 0
1, 124440, Note_on_c, 1, 62, 127
1, 124500, Note_on_c, 1, 77, 127
1, 124500, Note_on_c, 1, 69, 127
1, 124500, Note_on_c, 1, 50, 127
1, 124529, Note_off_c, 1, 62, 0
1, 124530, Note_on_c, 1, 64, 127
1, 124559, Note_off_c, 1, 77, 0
1, 124559, Note_off_c, 1, 69, 0
1, 124559, Note_off_c, 1, 50, 0
1, 124559, Note_off_c, 1, 64, 0
1, 124560, Note_on_c, 1, 65, 127
1, 124589, Note_off_c, 1, 65, 0
1, 124590, Note_on_c, 1, 67, 127
1, 124619, Note_off_c, 1, 67, 0
1, 124620, Note_on_c, 1, 76, 127
1, 124620, Note_on_c, 1, 67, 127
1, 124620, Note_on_c, 1, 69, 127
1, 124620, Note_on_c, 1, 49, 127
1, 124679, Note_off_c, 1, 76, 0
1, 124679, Note_off_c, 1, 67, 0
1, 124679, Note_off_c, 1, 69, 0
1, 124679, Note_off_c, 1, 49, 0
1, 124680, Note_on_c, 1, 69, 127
1, 124739, Note_off_c, 1, 69, 0
1, 124740, Note_on_c, 1, 74, 127
1, 124740, Note_on_c, 1, 65, 127
1, 124740, Note_on_c, 1, 69, 127
1, 124740, Note_on_c, 1, 50, 127
1, 124799, Note_off_c, 1, 74, 0
1, 124799, Note_off_c, 1, 65, 0
1, 124799, Note_off_c, 1, 69, 0
1, 124799, Note_off_c, 1, 50, 0
1, 124800, Note_on_c, 1, 69, 127
1, 124859, Note_off_c, 1, 69, 0
1, 124860, Note_on_c, 1, 74, 127
1, 124860, Note_on_c, 1, 65, 127
1, 124860, Note_on_c, 1, 70, 127
1, 124860, Note_on_c, 1, 43, 127
1, 124889, Note_off_c, 1, 70, 0
1, 124890, Note_on_c, 1, 69, 127
1, 124919, Note_off_c, 1, 74, 0
1, 124919, Note_off_c, 1, 65, 0
1, 124919, Note_off_c, 1, 43, 0
1, 124919, Note_off_c, 1, 69, 0
1, 124920, Note_on_c, 1, 70, 127
1, 124949, Note_off_c, 1, 70, 0
1, 124950, Note_on_c, 1, 72, 127
1, 124979, Note_off_c, 1, 72, 0
1, 124980, Note_on_c, 1, 72, 127
1, 124980, Note_on_c, 1, 64, 127
1, 124980, Note_on_c, 1, 70, 127
1, 124980, Note_on_c, 1, 48, 127
1, 125009, Note_off_c, 1, 70, 0
1, 125010, Note_on_c, 1, 69, 127
1, 125039, Note_off_c, 1, 72, 0
1, 125039, Note_off_c, 1, 64, 0
1, 125039, Note_off_c, 1, 48, 0
1, 125039, Note_off_c, 1, 69, 0
1, 125040, Note_on_c, 1, 67, 127
1, 125069, Note_off_c, 1, 67, 0
1, 125070, Note_on_c, 1, 70, 127
1, 125099, Note_off_c, 1, 70, 0
1, 125100, Note_on_c, 1, 72, 127
1, 125100, Note_on_c, 1, 64, 127
1, 125100, Note_on_c, 1, 69, 127
1, 125100, Note_on_c, 1, 41, 127
1, 125129, Note_off_c, 1, 69, 0
1, 125130, Note_on_c, 1, 67, 127
1, 125159, Note_off_c, 1, 72, 0
1, 125159, Note_off_c, 1, 64, 0
1, 125159, Note_off_c, 1, 41, 0
1, 125159, Note_off_c, 1, 67, 0
1, 125160, Note_on_c, 1, 69, 127
1, 125189, Note_off_c, 1, 69, 0
1, 125190, Note_on_c, 1, 70, 127
1, 125219, Note_off_c, 1, 70, 0
1, 125220, Note_on_c, 1, 74, 127
1, 125220, Note_on_c, 1, 62, 127
1, 125220, Note_on_c, 1, 69, 127
1, 125220, Note_on_c, 1, 46, 127
1, 125249, Note_off_c, 1, 69, 0
1, 125250, Note_on_c, 1, 67, 127
1, 125279, Note_off_c, 1, 74, 0
1, 125279, Note_off_c, 1, 62, 0
1, 125279, Note_off_c, 1, 46, 0
1, 125279, Note_off_c, 1, 67, 0
1, 125280, Note_on_c, 1, 65, 127
1, 125309, Note_off_c, 1, 65, 0
1, 125310, Note_on_c, 1, 69, 127
1, 125339, Note_off_c, 1, 69, 0
1, 125340, Note_on_c, 1, 74, 127
1, 125340, Note_on_c, 1, 70, 127
1, 125340, Note_on_c, 1, 67, 127
1, 125340, Note_on_c, 1, 40, 127
1, 125369, Note_off_c, 1, 67, 0
1, 125370, Note_on_c, 1, 65, 127
1, 125399, Note_off_c, 1, 74, 0
1, 125399, Note_off_c, 1, 70, 0
1, 125399, Note_off_c, 1, 40, 0
1, 125399, Note_off_c, 1, 65, 0
1, 125400, Note_on_c, 1, 67, 127
1, 125429, Note_off_c, 1, 67, 0
1, 125430, Note_on_c, 1, 69, 127
1, 125459, Note_off_c, 1, 69, 0
1, 125460, Note_on_c, 1, 73, 127
1, 125460, Note_on_c, 1, 69, 127
1, 125460, Note_on_c, 1, 67, 127
1, 125460, Note_on_c, 1, 45, 127
1, 125489, Note_off_c, 1, 67, 0
1, 125490, Note_on_c, 1, 65, 127
1, 125519, Note_off_c, 1, 73, 0
1, 125519, Note_off_c, 1, 69, 0
1, 125519, Note_off_c, 1, 45, 0
1, 125519, Note_off_c, 1, 65, 0
1, 125520, Note_on_c, 1, 64, 127
1, 125549, Note_off_c, 1, 64, 0
1, 125550, Note_on_c, 1, 67, 127
1, 125579, Note_off_c, 1, 67, 0
1, 125580, Note_on_c, 1, 74, 127
1, 125580, Note_on_c, 1, 69, 127
1, 125580, Note_on_c, 1, 65, 127
1, 125580, Note_on_c, 1, 38, 127
1, 125609, Note_off_c, 1, 69, 0
1, 125609, Note_off_c, 1, 65, 0
1, 125610, Note_on_c, 1, 67, 127
1, 125610, Note_on_c, 1, 64, 127
1, 125639, Note_off_c, 1, 74, 0
1, 125639, Note_off_c, 1, 38, 0
1, 125639, Note_off_c, 1, 67, 0
1, 125639, Note_off_c, 1, 64, 0
1, 125640, Note_on_c, 1, 65, 127
1, 125640, Note_on_c, 1, 62, 127
1, 125640, Note_on_c, 1, 50, 127
1, 125669, Note_off_c, 1, 65, 0
1, 125669, Note_off_c, 1, 62, 0
1, 125670, Note_on_c, 1, 64, 127
1, 125699, Note_off_c, 1, 50, 0
1, 125699, Note_off_c, 1, 64, 0
1, 125700, Note_on_c, 1, 62, 127
1, 125700, Note_on_c, 1, 66, 127
1, 125700, Note_on_c, 1, 48, 127
1, 125729, Note_off_c, 1, 62, 0
1, 125729, Note_off_c, 1, 66, 0
1, 125730, Note_on_c, 1, 64, 127
1, 125730, Note_on_c, 1, 68, 127
1, 125759, Note_off_c, 1, 48, 0
1, 125759, Note_off_c, 1, 64, 0
1, 125759, Note_off_c, 1, 68, 0
1, 125760, Note_on_c, 1, 66, 127
1, 125760, Note_on_c, 1, 69, 127
1, 125760, Note_on_c, 1, 47, 127
1, 125789, Note_off_c, 1, 66, 0
1, 125789, Note_off_c, 1, 69, 0
1, 125790, Note_on_c, 1, 68, 127
1, 125790, Note_on_c, 1, 71, 127
1, 125819, Note_off_c, 1, 47, 0
1, 125819, Note_off_c, 1, 68, 0
1, 125819, Note_off_c, 1, 71, 0
1, 125820, Note_on_c, 1, 69, 127
1, 125820, Note_on_c, 1, 72, 127
1, 125820, Note_on_c, 1, 57, 127
1, 125849, Note_off_c, 1, 69, 0
1, 125849, Note_off_c, 1, 72, 0
1, 125850, Note_on_c, 1, 68, 127
1, 125850, Note_on_c, 1, 71, 127
1, 125879, Note_off_c, 1, 57, 0
1, 125879, Note_off_c, 1, 68, 0
1, 125879, Note_off_c, 1, 71, 0
1, 125880, Note_on_c, 1, 69, 127
1, 125880, Note_on_c, 1, 72, 127
1, 125880, Note_on_c, 1, 45, 127
1, 125909, Note_off_c, 1, 69, 0
1, 125909, Note_off_c, 1, 72, 0
1, 125910, Note_on_c, 1, 71, 127
1, 125910, Note_on_c, 1, 76, 127
1, 125939, Note_off_c, 1, 71, 0
1, 125939, Note_off_c, 1, 76, 0
1, 125940, Note_on_c, 1, 74, 127
1, 125969, Note_off_c, 1, 45, 0
1, 125969, Note_off_c, 1, 74, 0
1, 125970, Note_on_c, 1, 74, 127
1, 125970, Note_on_c, 1, 72, 127
1, 125970, Note_on_c, 1, 47, 127
1, 125999, Note_off_c, 1, 74, 0
1, 125999, Note_off_c, 1, 72, 0
1, 125999, Note_off_c, 1, 47, 0
1, 126000, Note_on_c, 1, 76, 127
1, 126000, Note_on_c, 1, 71, 127
1, 126000, Note_on_c, 1, 48, 127
1, 126029, Note_off_c, 1, 76, 0
1, 126029, Note_off_c, 1, 71, 0
1, 126029, Note_off_c, 1, 48, 0
1, 126030, Note_on_c, 1, 77, 127
1, 126030, Note_on_c, 1, 69, 127
1, 126030, Note_on_c, 1, 50, 127
1, 126059, Note_off_c, 1, 77, 0
1, 126059, Note_off_c, 1, 69, 0
1, 126059, Note_off_c, 1, 50, 0
1, 126060, Note_on_c, 1, 64, 127
1, 126060, Note_on_c, 1, 71, 127
1, 126060, Note_on_c, 1, 68, 127
1, 126060, Note_on_c, 1, 52, 127
1, 126089, Note_off_c, 1, 71, 0
1, 126090, Note_on_c, 1, 74, 127
1, 126119, Note_off_c, 1, 64, 0
1, 126119, Note_off_c, 1, 68, 0
1, 126119, Note_off_c, 1, 52, 0
1, 126119, Note_off_c, 1, 74, 0
1, 126120, Note_on_c, 1, 76, 127
1, 126120, Note_on_c, 1, 72, 127
1, 126120, Note_on_c, 1, 64, 127
1, 126120, Note_on_c, 1, 52, 127
1, 126149, Note_off_c, 1, 72, 0
1, 126150, Note_on_c, 1, 71, 127
1, 126179, Note_off_c, 1, 64, 0
1, 126179, Note_off_c, 1, 52, 0
1, 126179, Note_off_c, 1, 71, 0
1, 126209, Note_off_c, 1, 76, 0
1, 126210, Note_on_c, 1, 74, 127
1, 126239, Note_off_c, 1, 74, 0
1, 126240, Note_on_c, 1, 72, 127
1, 126240, Note_on_c, 1, 69, 127
1, 126240, Note_on_c, 1, 76, 127
1, 126240, Note_on_c, 1, 52, 127
1, 126269, Note_off_c, 1, 72, 0
1, 126269, Note_off_c, 1, 69, 0
1, 126270, Note_on_c, 1, 71, 127
1, 126270, Note_on_c, 1, 68, 127
1, 126299, Note_off_c, 1, 76, 0
1, 126299, Note_off_c, 1, 52, 0
1, 126299, Note_off_c, 1, 71, 0
1, 126299, Note_off_c, 1, 68, 0
1, 126300, Note_on_c, 1, 69, 127
1, 126300, Note_on_c, 1, 76, 127
1, 126300, Note_on_c, 1, 53, 127
1, 126329, Note_off_c, 1, 53, 0
1, 126330, Note_on_c, 1, 52, 127
1, 126359, Note_off_c, 1, 69, 0
1, 126359, Note_off_c, 1, 76, 0
1, 126359, Note_off_c, 1, 52, 0
1, 126360, Note_on_c, 1, 69, 127
1, 126360, Note_on_c, 1, 53, 127
1, 126389, Note_off_c, 1, 53, 0
1, 126390, Note_on_c, 1, 55, 127
1, 126419, Note_off_c, 1, 69, 0
1, 126419, Note_off_c, 1, 55, 0
1, 126420, Note_on_c, 1, 69, 127
1, 126420, Note_on_c, 1, 74, 127
1, 126420, Note_on_c, 1, 53, 127
1, 126449, Note_off_c, 1, 53, 0
1, 126450, Note_on_c, 1, 52, 127
1, 126479, Note_off_c, 1, 69, 0
1, 126479, Note_off_c, 1, 52, 0
1, 126480, Note_on_c, 1, 50, 127
1, 126509, Note_off_c, 1, 50, 0
1, 126540, Note_on_c, 1, 67, 127
1, 126569, Note_off_c, 1, 67, 0
1, 126570, Note_on_c, 1, 65, 127
1, 126599, Note_off_c, 1, 74, 0
1, 126599, Note_off_c, 1, 65, 0
1, 126600, Note_on_c, 1, 67, 127
1, 126600, Note_on_c, 1, 52, 127
1, 126629, Note_off_c, 1, 52, 0
1, 126630, Note_on_c, 1, 69, 127
1, 126630, Note_on_c, 1, 53, 127
1, 126659, Note_off_c, 1, 67, 0
1, 126659, Note_off_c, 1, 69, 0
1, 126659, Note_off_c, 1, 53, 0
1, 126660, Note_on_c, 1, 67, 127
1, 126660, Note_on_c, 1, 72, 127
1, 126660, Note_on_c, 1, 52, 127
1, 126689, Note_off_c, 1, 67, 0
1, 126689, Note_off_c, 1, 72, 0
1, 126689, Note_off_c, 1, 52, 0
1, 126690, Note_on_c, 1, 65, 127
1, 126690, Note_on_c, 1, 74, 127
1, 126690, Note_on_c, 1, 50, 127
1, 126719, Note_off_c, 1, 65, 0
1, 126719, Note_off_c, 1, 74, 0
1, 126719, Note_off_c, 1, 50, 0
1, 126720, Note_on_c, 1, 64, 127
1, 126720, Note_on_c, 1, 72, 127
1, 126720, Note_on_c, 1, 76, 127
1, 126720, Note_on_c, 1, 48, 127
1, 126749, Note_off_c, 1, 64, 0
1, 126749, Note_off_c, 1, 76, 0
1, 126749, Note_off_c, 1, 48, 0
1, 126750, Note_on_c, 1, 67, 127
1, 126750, Note_on_c, 1, 52, 127
1, 126779, Note_off_c, 1, 67, 0
1, 126779, Note_off_c, 1, 52, 0
1, 126780, Note_on_c, 1, 65, 127
1, 126780, Note_on_c, 1, 77, 127
1, 126780, Note_on_c, 1, 50, 127
1, 126809, Note_off_c, 1, 77, 0
1, 126809, Note_off_c, 1, 50, 0
1, 126839, Note_off_c, 1, 72, 0
1, 126839, Note_off_c, 1, 65, 0
1, 126840, Note_on_c, 1, 62, 127
1, 126840, Note_on_c, 1, 71, 127
1, 126840, Note_on_c, 1, 77, 127
1, 126840, Note_on_c, 1, 50, 127
1, 126869, Note_off_c, 1, 71, 0
1, 126869, Note_off_c, 1, 77, 0
1, 126869, Note_off_c, 1, 50, 0
1, 126870, Note_on_c, 1, 69, 127
1, 126870, Note_on_c, 1, 79, 127
1, 126870, Note_on_c, 1, 52, 127
1, 126899, Note_off_c, 1, 62, 0
1, 126899, Note_off_c, 1, 69, 0
1, 126899, Note_off_c, 1, 79, 0
1, 126899, Note_off_c, 1, 52, 0
1, 126900, Note_on_c, 1, 71, 127
1, 126900, Note_on_c, 1, 77, 127
1, 126900, Note_on_c, 1, 50, 127
1, 126929, Note_off_c, 1, 77, 0
1, 126929, Note_off_c, 1, 50, 0
1, 126930, Note_on_c, 1, 76, 127
1, 126930, Note_on_c, 1, 48, 127
1, 126959, Note_off_c, 1, 71, 0
1, 126959, Note_off_c, 1, 76, 0
1, 126959, Note_off_c, 1, 48, 0
1, 126960, Note_on_c, 1, 71, 127
1, 126960, Note_on_c, 1, 74, 127
1, 126960, Note_on_c, 1, 47, 127
1, 126989, Note_off_c, 1, 74, 0
1, 126989, Note_off_c, 1, 47, 0
1, 126990, Note_on_c, 1, 77, 127
1, 126990, Note_on_c, 1, 50, 127
1, 127019, Note_off_c, 1, 77, 0
1, 127019, Note_off_c, 1, 50, 0
1, 127020, Note_on_c, 1, 76, 127
1, 127020, Note_on_c, 1, 48, 127
1, 127049, Note_off_c, 1, 71, 0
1, 127049, Note_off_c, 1, 48, 0
1, 127050, Note_on_c, 1, 68, 127
1, 127079, Note_off_c, 1, 76, 0
1, 127079, Note_off_c, 1, 68, 0
1, 127080, Note_on_c, 1, 72, 127
1, 127080, Note_on_c, 1, 69, 127
1, 127080, Note_on_c, 1, 74, 127
1, 127080, Note_on_c, 1, 48, 127
1, 127109, Note_off_c, 1, 72, 0
1, 127109, Note_off_c, 1, 48, 0
1, 127110, Note_on_c, 1, 71, 127
1, 127110, Note_on_c, 1, 50, 127
1, 127139, Note_off_c, 1, 69, 0
1, 127139, Note_off_c, 1, 74, 0
1, 127139, Note_off_c, 1, 71, 0
1, 127139, Note_off_c, 1, 50, 0
1, 127140, Note_on_c, 1, 69, 127
1, 127140, Note_on_c, 1, 76, 127
1, 127140, Note_on_c, 1, 48, 127
1, 127169, Note_off_c, 1, 48, 0
1, 127170, Note_on_c, 1, 72, 127
1, 127170, Note_on_c, 1, 47, 127
1, 127199, Note_off_c, 1, 69, 0
1, 127199, Note_off_c, 1, 76, 0
1, 127199, Note_off_c, 1, 72, 0
1, 127199, Note_off_c, 1, 47, 0
1, 127200, Note_on_c, 1, 69, 127
1, 127200, Note_on_c, 1, 77, 127
1, 127200, Note_on_c, 1, 72, 127
1, 127200, Note_on_c, 1, 45, 127
1, 127229, Note_off_c, 1, 77, 0
1, 127229, Note_off_c, 1, 45, 0
1, 127230, Note_on_c, 1, 76, 127
1, 127230, Note_on_c, 1, 48, 127
1, 127259, Note_off_c, 1, 72, 0
1, 127259, Note_off_c, 1, 76, 0
1, 127259, Note_off_c, 1, 48, 0
1, 127260, Note_on_c, 1, 74, 127
1, 127260, Note_on_c, 1, 47, 127
1, 127289, Note_off_c, 1, 69, 0
1, 127289, Note_off_c, 1, 47, 0
1, 127290, Note_on_c, 1, 66, 127
1, 127319, Note_off_c, 1, 74, 0
1, 127319, Note_off_c, 1, 66, 0
1, 127320, Note_on_c, 1, 68, 127
1, 127320, Note_on_c, 1, 71, 127
1, 127320, Note_on_c, 1, 72, 127
1, 127320, Note_on_c, 1, 47, 127
1, 127349, Note_off_c, 1, 71, 0
1, 127349, Note_off_c, 1, 47, 0
1, 127350, Note_on_c, 1, 69, 127
1, 127350, Note_on_c, 1, 48, 127
1, 127379, Note_off_c, 1, 68, 0
1, 127379, Note_off_c, 1, 72, 0
1, 127379, Note_off_c, 1, 69, 0
1, 127379, Note_off_c, 1, 48, 0
1, 127380, Note_on_c, 1, 68, 127
1, 127380, Note_on_c, 1, 74, 127
1, 127380, Note_on_c, 1, 47, 127
1, 127409, Note_off_c, 1, 47, 0
1, 127410, Note_on_c, 1, 71, 127
1, 127410, Note_on_c, 1, 45, 127
1, 127439, Note_off_c, 1, 68, 0
1, 127439, Note_off_c, 1, 74, 0
1, 127439, Note_off_c, 1, 71, 0
1, 127439, Note_off_c, 1, 45, 0
1, 127440, Note_on_c, 1, 76, 127
1, 127440, Note_on_c, 1, 71, 127
1, 127440, Note_on_c, 1, 44, 127
1, 127469, Note_off_c, 1, 76, 0
1, 127469, Note_off_c, 1, 44, 0
1, 127470, Note_on_c, 1, 74, 127
1, 127470, Note_on_c, 1, 47, 127
1, 127499, Note_off_c, 1, 71, 0
1, 127499, Note_off_c, 1, 74, 0
1, 127499, Note_off_c, 1, 47, 0
1, 127500, Note_on_c, 1, 72, 127
1, 127500, Note_on_c, 1, 64, 127
1, 127500, Note_on_c, 1, 45, 127
1, 127529, Note_off_c, 1, 45, 0
1, 127530, Note_on_c, 1, 71, 127
1, 127530, Note_on_c, 1, 44, 127
1, 127559, Note_off_c, 1, 72, 0
1, 127559, Note_off_c, 1, 64, 0
1, 127559, Note_off_c, 1, 71, 0
1, 127559, Note_off_c, 1, 44, 0
1, 127560, Note_on_c, 1, 69, 127
1, 127560, Note_on_c, 1, 74, 127
1, 127560, Note_on_c, 1, 77, 127
1, 127560, Note_on_c, 1, 45, 127
1, 127589, Note_off_c, 1, 69, 0
1, 127589, Note_off_c, 1, 45, 0
1, 127590, Note_on_c, 1, 68, 127
1, 127590, Note_on_c, 1, 47, 127
1, 127619, Note_off_c, 1, 74, 0
1, 127619, Note_off_c, 1, 77, 0
1, 127619, Note_off_c, 1, 68, 0
1, 127619, Note_off_c, 1, 47, 0
1, 127620, Note_on_c, 1, 69, 127
1, 127620, Note_on_c, 1, 72, 127
1, 127620, Note_on_c, 1, 76, 127
1, 127620, Note_on_c, 1, 48, 127
1, 127649, Note_off_c, 1, 48, 0
1, 127650, Note_on_c, 1, 47, 127
1, 127679, Note_off_c, 1, 69, 0
1, 127679, Note_off_c, 1, 72, 0
1, 127679, Note_off_c, 1, 76, 0
1, 127679, Note_off_c, 1, 47, 0
1, 127680, Note_on_c, 1, 71, 127
1, 127680, Note_on_c, 1, 74, 127
1, 127680, Note_on_c, 1, 48, 127
1, 127709, Note_off_c, 1, 48, 0
1, 127710, Note_on_c, 1, 50, 127
1, 127739, Note_off_c, 1, 71, 0
1, 127739, Note_off_c, 1, 74, 0
1, 127739, Note_off_c, 1, 50, 0
1, 127740, Note_on_c, 1, 64, 127
1, 127740, Note_on_c, 1, 72, 127
1, 127740, Note_on_c, 1, 52, 127
1, 127799, Note_off_c, 1, 64, 0
1, 127799, Note_off_c, 1, 52, 0
1, 127800, Note_on_c, 1, 69, 127
1, 127800, Note_on_c, 1, 50, 127
1, 127859, Note_off_c, 1, 72, 0
1, 127859, Note_off_c, 1, 50, 0
1, 127860, Note_on_c, 1, 71, 127
1, 127879, Note_off_c, 1, 71, 0
1, 127919, Note_off_c, 1, 69, 0
1, 127920, Note_on_c, 1, 68, 127
1, 127920, Note_on_c, 1, 72, 127
1, 127920, Note_on_c, 1, 40, 127
1, 127934, Note_off_c, 1, 72, 0
1, 127935, Note_on_c, 1, 71, 127
1, 127949, Note_off_c, 1, 71, 0
1, 127979, Note_off_c, 1, 68, 0
1, 127979, Note_off_c, 1, 40, 0
1, 127980, Note_on_c, 1, 69, 127
1, 127980, Note_on_c, 1, 45, 127
1, 128039, Note_off_c, 1, 45, 0
1, 128040, Note_on_c, 1, 57, 127
1, 128099, Note_off_c, 1, 69, 0
1, 128130, Note_on_c, 1, 59, 127
1, 128159, Note_off_c, 1, 57, 0
1, 128159, Note_off_c, 1, 59, 0
1, 128160, Note_on_c, 1, 60, 127
1, 128189, Note_off_c, 1, 60, 0
1, 128190, Note_on_c, 1, 62, 127
1, 128219, Note_off_c, 1, 62, 0
1, 128220, Note_on_c, 1, 64, 127
1, 128220, Note_on_c, 1, 56, 127
1, 128279, Note_off_c, 1, 64, 0
1, 128279, Note_off_c, 1, 56, 0
1, 128280, Note_on_c, 1, 64, 127
1, 128339, Note_off_c, 1, 64, 0
1, 128340, Note_on_c, 1, 64, 127
1, 128340, Note_on_c, 1, 57, 127
1, 128399, Note_off_c, 1, 64, 0
1, 128399, Note_off_c, 1, 57, 0
1, 128400, Note_on_c, 1, 64, 127
1, 128459, Note_off_c, 1, 64, 0
1, 128460, Note_on_c, 1, 74, 127
1, 128460, Note_on_c, 1, 65, 127
1, 128460, Note_on_c, 1, 50, 127
1, 128489, Note_off_c, 1, 65, 0
1, 128490, Note_on_c, 1, 64, 127
1, 128519, Note_off_c, 1, 74, 0
1, 128519, Note_off_c, 1, 50, 0
1, 128519, Note_off_c, 1, 64, 0
1, 128520, Note_on_c, 1, 62, 127
1, 128520, Note_on_c, 1, 65, 127
1, 128549, Note_off_c, 1, 65, 0
1, 128550, Note_on_c, 1, 67, 127
1, 128579, Note_off_c, 1, 67, 0
1, 128580, Note_on_c, 1, 47, 127
1, 128609, Note_off_c, 1, 62, 0
1, 128610, Note_on_c, 1, 64, 127
1, 128639, Note_off_c, 1, 47, 0
1, 128639, Note_off_c, 1, 64, 0
1, 128640, Note_on_c, 1, 65, 127
1, 128640, Note_on_c, 1, 62, 127
1, 128669, Note_off_c, 1, 65, 0
1, 128669, Note_off_c, 1, 62, 0
1, 128670, Note_on_c, 1, 67, 127
1, 128670, Note_on_c, 1, 65, 127
1, 128699, Note_off_c, 1, 67, 0
1, 128699, Note_off_c, 1, 65, 0
1, 128700, Note_on_c, 1, 69, 127
1, 128700, Note_on_c, 1, 64, 127
1, 128700, Note_on_c, 1, 49, 127
1, 128729, Note_off_c, 1, 64, 0
1, 128730, Note_on_c, 1, 62, 127
1, 128759, Note_off_c, 1, 69, 0
1, 128759, Note_off_c, 1, 49, 0
1, 128759, Note_off_c, 1, 62, 0
1, 128760, Note_on_c, 1, 69, 127
1, 128760, Note_on_c, 1, 64, 127
1, 128789, Note_off_c, 1, 64, 0
1, 128790, Note_on_c, 1, 65, 127
1, 128819, Note_off_c, 1, 69, 0
1, 128819, Note_off_c, 1, 65, 0
1, 128820, Note_on_c, 1, 69, 127
1, 128820, Note_on_c, 1, 64, 127
1, 128820, Note_on_c, 1, 45, 127
1, 128849, Note_off_c, 1, 64, 0
1, 128850, Note_on_c, 1, 62, 127
1, 128879, Note_off_c, 1, 69, 0
1, 128879, Note_off_c, 1, 45, 0
1, 128879, Note_off_c, 1, 62, 0
1, 128880, Note_on_c, 1, 69, 127
1, 128880, Note_on_c, 1, 61, 127
1, 128909, Note_off_c, 1, 61, 0
1, 128910, Note_on_c, 1, 64, 127
1, 128939, Note_off_c, 1, 69, 0
1, 128939, Note_off_c, 1, 64, 0
1, 128940, Note_on_c, 1, 70, 127
1, 128940, Note_on_c, 1, 62, 127
1, 128940, Note_on_c, 1, 77, 127
1, 128940, Note_on_c, 1, 50, 127
1, 128969, Note_off_c, 1, 70, 0
1, 128969, Note_off_c, 1, 62, 0
1, 128970, Note_on_c, 1, 69, 127
1, 128970, Note_on_c, 1, 60, 127
1, 128999, Note_off_c, 1, 77, 0
1, 128999, Note_off_c, 1, 50, 0
1, 128999, Note_off_c, 1, 69, 0
1, 128999, Note_off_c, 1, 60, 0
1, 129000, Note_on_c, 1, 70, 127
1, 129000, Note_on_c, 1, 62, 127
1, 129000, Note_on_c, 1, 65, 127
1, 129029, Note_off_c, 1, 70, 0
1, 129029, Note_off_c, 1, 62, 0
1, 129030, Note_on_c, 1, 72, 127
1, 129030, Note_on_c, 1, 64, 127
1, 129059, Note_off_c, 1, 72, 0
1, 129059, Note_off_c, 1, 64, 0
1, 129060, Note_on_c, 1, 46, 127
1, 129089, Note_off_c, 1, 65, 0
1, 129090, Note_on_c, 1, 69, 127
1, 129090, Note_on_c, 1, 60, 127
1, 129090, Note_on_c, 1, 67, 127
1, 129119, Note_off_c, 1, 46, 0
1, 129119, Note_off_c, 1, 69, 0
1, 129119, Note_off_c, 1, 60, 0
1, 129119, Note_off_c, 1, 67, 0
1, 129120, Note_on_c, 1, 67, 127
1, 129120, Note_on_c, 1, 58, 127
1, 129120, Note_on_c, 1, 69, 127
1, 129149, Note_off_c, 1, 67, 0
1, 129149, Note_off_c, 1, 58, 0
1, 129149, Note_off_c, 1, 69, 0
1, 129150, Note_on_c, 1, 70, 127
1, 129150, Note_on_c, 1, 62, 127
1, 129179, Note_off_c, 1, 70, 0
1, 129179, Note_off_c, 1, 62, 0
1, 129180, Note_on_c, 1, 69, 127
1, 129180, Note_on_c, 1, 60, 127
1, 129180, Note_on_c, 1, 72, 127
1, 129180, Note_on_c, 1, 41, 127
1, 129209, Note_off_c, 1, 69, 0
1, 129209, Note_off_c, 1, 60, 0
1, 129210, Note_on_c, 1, 67, 127
1, 129210, Note_on_c, 1, 58, 127
1, 129239, Note_off_c, 1, 72, 0
1, 129239, Note_off_c, 1, 41, 0
1, 129239, Note_off_c, 1, 67, 0
1, 129239, Note_off_c, 1, 58, 0
1, 129240, Note_on_c, 1, 69, 127
1, 129240, Note_on_c, 1, 60, 127
1, 129240, Note_on_c, 1, 72, 127
1, 129240, Note_on_c, 1, 48, 127
1, 129269, Note_off_c, 1, 69, 0
1, 129269, Note_off_c, 1, 60, 0
1, 129270, Note_on_c, 1, 70, 127
1, 129270, Note_on_c, 1, 62, 127
1, 129299, Note_off_c, 1, 72, 0
1, 129299, Note_off_c, 1, 48, 0
1, 129299, Note_off_c, 1, 70, 0
1, 129299, Note_off_c, 1, 62, 0
1, 129300, Note_on_c, 1, 69, 127
1, 129300, Note_on_c, 1, 60, 127
1, 129300, Note_on_c, 1, 72, 127
1, 129300, Note_on_c, 1, 53, 127
1, 129329, Note_off_c, 1, 69, 0
1, 129329, Note_off_c, 1, 60, 0
1, 129330, Note_on_c, 1, 67, 127
1, 129330, Note_on_c, 1, 58, 127
1, 129359, Note_off_c, 1, 72, 0
1, 129359, Note_off_c, 1, 67, 0
1, 129359, Note_off_c, 1, 58, 0
1, 129360, Note_on_c, 1, 65, 127
1, 129360, Note_on_c, 1, 57, 127
1, 129389, Note_off_c, 1, 65, 0
1, 129389, Note_off_c, 1, 57, 0
1, 129420, Note_on_c, 1, 74, 127
1, 129449, Note_off_c, 1, 74, 0
1, 129479, Note_off_c, 1, 53, 0
1, 129480, Note_on_c, 1, 67, 127
1, 129480, Note_on_c, 1, 58, 127
1, 129480, Note_on_c, 1, 74, 127
1, 129480, Note_on_c, 1, 46, 127
1, 129509, Note_off_c, 1, 67, 0
1, 129509, Note_off_c, 1, 58, 0
1, 129509, Note_off_c, 1, 74, 0
1, 129510, Note_on_c, 1, 69, 127
1, 129510, Note_on_c, 1, 60, 127
1, 129510, Note_on_c, 1, 75, 127
1, 129539, Note_off_c, 1, 46, 0
1, 129539, Note_off_c, 1, 69, 0
1, 129539, Note_off_c, 1, 60, 0
1, 129539, Note_off_c, 1, 75, 0
1, 129540, Note_on_c, 1, 67, 127
1, 129540, Note_on_c, 1, 58, 127
1, 129540, Note_on_c, 1, 74, 127
1, 129540, Note_on_c, 1, 40, 127
1, 129569, Note_off_c, 1, 67, 0
1, 129569, Note_off_c, 1, 58, 0
1, 129569, Note_off_c, 1, 74, 0
1, 129570, Note_on_c, 1, 65, 127
1, 129570, Note_on_c, 1, 57, 127
1, 129570, Note_on_c, 1, 72, 127
1, 129599, Note_off_c, 1, 40, 0
1, 129599, Note_off_c, 1, 65, 0
1, 129599, Note_off_c, 1, 57, 0
1, 129599, Note_off_c, 1, 72, 0
1, 129600, Note_on_c, 1, 64, 127
1, 129600, Note_on_c, 1, 55, 127
1, 129600, Note_on_c, 1, 70, 127
1, 129600, Note_on_c, 1, 52, 127
1, 129629, Note_off_c, 1, 64, 0
1, 129629, Note_off_c, 1, 55, 0
1, 129629, Note_off_c, 1, 70, 0
1, 129630, Note_on_c, 1, 67, 127
1, 129630, Note_on_c, 1, 58, 127
1, 129630, Note_on_c, 1, 74, 127
1, 129659, Note_off_c, 1, 67, 0
1, 129659, Note_off_c, 1, 58, 0
1, 129659, Note_off_c, 1, 74, 0
1, 129660, Note_on_c, 1, 65, 127
1, 129660, Note_on_c, 1, 57, 127
1, 129660, Note_on_c, 1, 72, 127
1, 129689, Note_off_c, 1, 72, 0
1, 129719, Note_off_c, 1, 52, 0
1, 129719, Note_off_c, 1, 65, 0
1, 129719, Note_off_c, 1, 57, 0
1, 129720, Note_on_c, 1, 60, 127
1, 129720, Note_on_c, 1, 72, 127
1, 129720, Note_on_c, 1, 45, 127
1, 129749, Note_off_c, 1, 72, 0
1, 129750, Note_on_c, 1, 74, 127
1, 129779, Note_off_c, 1, 60, 0
1, 129779, Note_off_c, 1, 45, 0
1, 129779, Note_off_c, 1, 74, 0
1, 129780, Note_on_c, 1, 65, 127
1, 129780, Note_on_c, 1, 72, 127
1, 129780, Note_on_c, 1, 38, 127
1, 129809, Note_off_c, 1, 72, 0
1, 129810, Note_on_c, 1, 70, 127
1, 129839, Note_off_c, 1, 38, 0
1, 129839, Note_off_c, 1, 70, 0
1, 129840, Note_on_c, 1, 69, 127
1, 129840, Note_on_c, 1, 50, 127
1, 129869, Note_off_c, 1, 69, 0
1, 129959, Note_off_c, 1, 65, 0
1, 129959, Note_off_c, 1, 50, 0
1, 129960, Note_on_c, 1, 64, 127
1, 129960, Note_on_c, 1, 70, 127
1, 129960, Note_on_c, 1, 43, 127
1, 129989, Note_off_c, 1, 64, 0
1, 129989, Note_off_c, 1, 70, 0
1, 129990, Note_on_c, 1, 62, 127
1, 129990, Note_on_c, 1, 72, 127
1, 130019, Note_off_c, 1, 43, 0
1, 130019, Note_off_c, 1, 62, 0
1, 130019, Note_off_c, 1, 72, 0
1, 130020, Note_on_c, 1, 64, 127
1, 130020, Note_on_c, 1, 70, 127
1, 130020, Note_on_c, 1, 36, 127
1, 130049, Note_off_c, 1, 70, 0
1, 130050, Note_on_c, 1, 69, 127
1, 130079, Note_off_c, 1, 36, 0
1, 130079, Note_off_c, 1, 69, 0
1, 130080, Note_on_c, 1, 67, 127
1, 130080, Note_on_c, 1, 48, 127
1, 130109, Note_off_c, 1, 67, 0
1, 130139, Note_off_c, 1, 64, 0
1, 130139, Note_off_c, 1, 48, 0
1, 130140, Note_on_c, 1, 65, 127
1, 130140, Note_on_c, 1, 72, 127
1, 130140, Note_on_c, 1, 69, 127
1, 130140, Note_on_c, 1, 41, 127
1, 130199, Note_off_c, 1, 65, 0
1, 130199, Note_off_c, 1, 72, 0
1, 130199, Note_off_c, 1, 69, 0
1, 130199, Note_off_c, 1, 41, 0
1, 130200, Note_on_c, 1, 60, 127
1, 130200, Note_on_c, 1, 65, 127
1, 130200, Note_on_c, 1, 53, 127
1, 130229, Note_off_c, 1, 53, 0
1, 130230, Note_on_c, 1, 52, 127
1, 130259, Note_off_c, 1, 65, 0
1, 130259, Note_off_c, 1, 52, 0
1, 130289, Note_off_c, 1, 60, 0
1, 130290, Note_on_c, 1, 62, 127
1, 130319, Note_off_c, 1, 62, 0
1, 130320, Note_on_c, 1, 64, 127
1, 130320, Note_on_c, 1, 50, 127
1, 130349, Note_off_c, 1, 64, 0
1, 130350, Note_on_c, 1, 65, 127
1, 130379, Note_off_c, 1, 50, 0
1, 130379, Note_off_c, 1, 65, 0
1, 130380, Note_on_c, 1, 79, 127
1, 130380, Note_on_c, 1, 67, 127
1, 130380, Note_on_c, 1, 40, 127
1, 130439, Note_off_c, 1, 79, 0
1, 130439, Note_off_c, 1, 67, 0
1, 130439, Note_off_c, 1, 40, 0
1, 130440, Note_on_c, 1, 67, 127
1, 130440, Note_on_c, 1, 52, 127
1, 130469, Note_off_c, 1, 52, 0
1, 130470, Note_on_c, 1, 50, 127
1, 130499, Note_off_c, 1, 50, 0
1, 130530, Note_on_c, 1, 69, 127
1, 130559, Note_off_c, 1, 67, 0
1, 130559, Note_off_c, 1, 69, 0
1, 130560, Note_on_c, 1, 71, 127
1, 130560, Note_on_c, 1, 67, 127
1, 130560, Note_on_c, 1, 40, 127
1, 130589, Note_off_c, 1, 71, 0
1, 130590, Note_on_c, 1, 73, 127
1, 130619, Note_off_c, 1, 67, 0
1, 130619, Note_off_c, 1, 40, 0
1, 130619, Note_off_c, 1, 73, 0
1, 130620, Note_on_c, 1, 74, 127
1, 130620, Note_on_c, 1, 69, 127
1, 130620, Note_on_c, 1, 41, 127
1, 130649, Note_off_c, 1, 69, 0
1, 130650, Note_on_c, 1, 67, 127
1, 130679, Note_off_c, 1, 74, 0
1, 130679, Note_off_c, 1, 41, 0
1, 130679, Note_off_c, 1, 67, 0
1, 130680, Note_on_c, 1, 74, 127
1, 130680, Note_on_c, 1, 69, 127
1, 130709, Note_off_c, 1, 69, 0
1, 130710, Note_on_c, 1, 70, 127
1, 130739, Note_off_c, 1, 74, 0
1, 130739, Note_off_c, 1, 70, 0
1, 130740, Note_on_c, 1, 74, 127
1, 130740, Note_on_c, 1, 69, 127
1, 130740, Note_on_c, 1, 46, 127
1, 130769, Note_off_c, 1, 69, 0
1, 130770, Note_on_c, 1, 67, 127
1, 130799, Note_off_c, 1, 74, 0
1, 130799, Note_off_c, 1, 46, 0
1, 130799, Note_off_c, 1, 67, 0
1, 130800, Note_on_c, 1, 74, 127
1, 130800, Note_on_c, 1, 65, 127
1, 130829, Note_off_c, 1, 65, 0
1, 130830, Note_on_c, 1, 69, 127
1, 130859, Note_off_c, 1, 74, 0
1, 130859, Note_off_c, 1, 69, 0
1, 130860, Note_on_c, 1, 76, 127
1, 130860, Note_on_c, 1, 67, 127
1, 130860, Note_on_c, 1, 40, 127
1, 130889, Note_off_c, 1, 76, 0
1, 130889, Note_off_c, 1, 67, 0
1, 130890, Note_on_c, 1, 74, 127
1, 130890, Note_on_c, 1, 65, 127
1, 130919, Note_off_c, 1, 40, 0
1, 130919, Note_off_c, 1, 74, 0
1, 130919, Note_off_c, 1, 65, 0
1, 130920, Note_on_c, 1, 76, 127
1, 130920, Note_on_c, 1, 67, 127
1, 130949, Note_off_c, 1, 76, 0
1, 130949, Note_off_c, 1, 67, 0
1, 130950, Note_on_c, 1, 77, 127
1, 130950, Note_on_c, 1, 69, 127
1, 130979, Note_off_c, 1, 77, 0
1, 130979, Note_off_c, 1, 69, 0
1, 130980, Note_on_c, 1, 76, 127
1, 130980, Note_on_c, 1, 67, 127
1, 130980, Note_on_c, 1, 45, 127
1, 131009, Note_off_c, 1, 76, 0
1, 131009, Note_off_c, 1, 67, 0
1, 131010, Note_on_c, 1, 74, 127
1, 131010, Note_on_c, 1, 65, 127
1, 131039, Note_off_c, 1, 45, 0
1, 131039, Note_off_c, 1, 74, 0
1, 131039, Note_off_c, 1, 65, 0
1, 131040, Note_on_c, 1, 73, 127
1, 131040, Note_on_c, 1, 64, 127
1, 131069, Note_off_c, 1, 73, 0
1, 131069, Note_off_c, 1, 64, 0
1, 131070, Note_on_c, 1, 76, 127
1, 131070, Note_on_c, 1, 67, 127
1, 131099, Note_off_c, 1, 76, 0
1, 131099, Note_off_c, 1, 67, 0
1, 131100, Note_on_c, 1, 74, 127
1, 131100, Note_on_c, 1, 65, 127
1, 131100, Note_on_c, 1, 38, 127
1, 131129, Note_off_c, 1, 65, 0
1, 131130, Note_on_c, 1, 73, 127
1, 131130, Note_on_c, 1, 64, 127
1, 131159, Note_off_c, 1, 74, 0
1, 131159, Note_off_c, 1, 38, 0
1, 131159, Note_off_c, 1, 73, 0
1, 131159, Note_off_c, 1, 64, 0
1, 131160, Note_on_c, 1, 74, 127
1, 131160, Note_on_c, 1, 65, 127
1, 131160, Note_on_c, 1, 62, 127
1, 131189, Note_off_c, 1, 74, 0
1, 131189, Note_off_c, 1, 65, 0
1, 131190, Note_on_c, 1, 76, 127
1, 131190, Note_on_c, 1, 67, 127
1, 131219, Note_off_c, 1, 76, 0
1, 131219, Note_off_c, 1, 67, 0
1, 131220, Note_on_c, 1, 55, 127
1, 131249, Note_off_c, 1, 62, 0
1, 131250, Note_on_c, 1, 73, 127
1, 131250, Note_on_c, 1, 64, 127
1, 131279, Note_off_c, 1, 73, 0
1, 131279, Note_off_c, 1, 64, 0
1, 131280, Note_on_c, 1, 71, 127
1, 131309, Note_off_c, 1, 71, 0
1, 131340, Note_on_c, 1, 69, 127
1, 131399, Note_off_c, 1, 55, 0
1, 131399, Note_off_c, 1, 69, 0
1, 131400, Note_on_c, 1, 69, 127
1, 131400, Note_on_c, 1, 64, 127
1, 131400, Note_on_c, 1, 52, 127
1, 131429, Note_off_c, 1, 64, 0
1, 131430, Note_on_c, 1, 65, 127
1, 131459, Note_off_c, 1, 69, 0
1, 131459, Note_off_c, 1, 52, 0
1, 131459, Note_off_c, 1, 65, 0
1, 131460, Note_on_c, 1, 64, 127
1, 131460, Note_on_c, 1, 69, 127
1, 131460, Note_on_c, 1, 49, 127
1, 131489, Note_off_c, 1, 64, 0
1, 131490, Note_on_c, 1, 62, 127
1, 131519, Note_off_c, 1, 69, 0
1, 131519, Note_off_c, 1, 49, 0
1, 131519, Note_off_c, 1, 62, 0
1, 131520, Note_on_c, 1, 61, 127
1, 131520, Note_on_c, 1, 69, 127
1, 131520, Note_on_c, 1, 57, 127
1, 131549, Note_off_c, 1, 61, 0
1, 131550, Note_on_c, 1, 64, 127
1, 131579, Note_off_c, 1, 69, 0
1, 131579, Note_off_c, 1, 64, 0
1, 131580, Note_on_c, 1, 74, 127
1, 131580, Note_on_c, 1, 62, 127
1, 131580, Note_on_c, 1, 70, 127
1, 131609, Note_off_c, 1, 70, 0
1, 131639, Note_off_c, 1, 57, 0
1, 131639, Note_off_c, 1, 74, 0
1, 131639, Note_off_c, 1, 62, 0
1, 131640, Note_on_c, 1, 62, 127
1, 131640, Note_on_c, 1, 70, 127
1, 131640, Note_on_c, 1, 55, 127
1, 131669, Note_off_c, 1, 55, 0
1, 131670, Note_on_c, 1, 72, 127
1, 131670, Note_on_c, 1, 53, 127
1, 131699, Note_off_c, 1, 70, 0
1, 131699, Note_off_c, 1, 72, 0
1, 131699, Note_off_c, 1, 53, 0
1, 131700, Note_on_c, 1, 64, 127
1, 131729, Note_off_c, 1, 62, 0
1, 131730, Note_on_c, 1, 69, 127
1, 131759, Note_off_c, 1, 64, 0
1, 131759, Note_off_c, 1, 69, 0
1, 131760, Note_on_c, 1, 65, 127
1, 131760, Note_on_c, 1, 73, 127
1, 131760, Note_on_c, 1, 67, 127
1, 131760, Note_on_c, 1, 52, 127
1, 131789, Note_off_c, 1, 65, 0
1, 131789, Note_off_c, 1, 67, 0
1, 131790, Note_on_c, 1, 70, 127
1, 131819, Note_off_c, 1, 73, 0
1, 131819, Note_off_c, 1, 52, 0
1, 131819, Note_off_c, 1, 70, 0
1, 131820, Note_on_c, 1, 69, 127
1, 131820, Note_on_c, 1, 74, 127
1, 131820, Note_on_c, 1, 53, 127
1, 131850, Note_on_c, 1, 67, 127
1, 131879, Note_off_c, 1, 69, 0
1, 131879, Note_off_c, 1, 74, 0
1, 131879, Note_off_c, 1, 53, 0
1, 131879, Note_off_c, 1, 67, 0
1, 131880, Note_on_c, 1, 69, 127
1, 131880, Note_on_c, 1, 77, 127
1, 131880, Note_on_c, 1, 45, 127
1, 131909, Note_off_c, 1, 77, 0
1, 131910, Note_on_c, 1, 76, 127
1, 131910, Note_on_c, 1, 70, 127
1, 131939, Note_off_c, 1, 69, 0
1, 131939, Note_off_c, 1, 45, 0
1, 131939, Note_off_c, 1, 76, 0
1, 131939, Note_off_c, 1, 70, 0
1, 131940, Note_on_c, 1, 69, 127
1, 131940, Note_on_c, 1, 77, 127
1, 131940, Note_on_c, 1, 50, 127
1, 131970, Note_on_c, 1, 67, 127
1, 131999, Note_off_c, 1, 69, 0
1, 131999, Note_off_c, 1, 77, 0
1, 131999, Note_off_c, 1, 67, 0
1, 132000, Note_on_c, 1, 74, 127
1, 132000, Note_on_c, 1, 65, 127
1, 132029, Note_off_c, 1, 65, 0
1, 132059, Note_off_c, 1, 74, 0
1, 132060, Note_on_c, 1, 70, 127
1, 132060, Note_on_c, 1, 76, 127
1, 132089, Note_off_c, 1, 70, 0
1, 132119, Note_off_c, 1, 76, 0
1, 132120, Note_on_c, 1, 64, 127
1, 132150, Note_on_c, 1, 72, 127
1, 132179, Note_off_c, 1, 50, 0
1, 132179, Note_off_c, 1, 64, 0
1, 132179, Note_off_c, 1, 72, 0
1, 132180, Note_on_c, 1, 70, 127
1, 132180, Note_on_c, 1, 67, 127
1, 132180, Note_on_c, 1, 49, 127
1, 132209, Note_off_c, 1, 70, 0
1, 132209, Note_off_c, 1, 67, 0
1, 132210, Note_on_c, 1, 69, 127
1, 132210, Note_on_c, 1, 65, 127
1, 132239, Note_off_c, 1, 69, 0
1, 132239, Note_off_c, 1, 65, 0
1, 132240, Note_on_c, 1, 64, 127
1, 132269, Note_off_c, 1, 64, 0
1, 132299, Note_off_c, 1, 49, 0
1, 132300, Note_on_c, 1, 69, 127
1, 132300, Note_on_c, 1, 65, 127
1, 132300, Note_on_c, 1, 38, 127
1, 132329, Note_off_c, 1, 69, 0
1, 132330, Note_on_c, 1, 67, 127
1, 132359, Note_off_c, 1, 65, 0
1, 132359, Note_off_c, 1, 38, 0
1, 132359, Note_off_c, 1, 67, 0
1, 132360, Note_on_c, 1, 65, 127
1, 132360, Note_on_c, 1, 62, 127
1, 132360, Note_on_c, 1, 50, 127
1, 132389, Note_off_c, 1, 65, 0
1, 132390, Note_on_c, 1, 64, 127
1, 132419, Note_off_c, 1, 62, 0
1, 132419, Note_off_c, 1, 64, 0
1, 132449, Note_off_c, 1, 50, 0
1, 132450, Note_on_c, 1, 48, 127
1, 132479, Note_off_c, 1, 48, 0
1, 132480, Note_on_c, 1, 74, 127
1, 132480, Note_on_c, 1, 67, 127
1, 132480, Note_on_c, 1, 77, 127
1, 132480, Note_on_c, 1, 47, 127
1, 132509, Note_off_c, 1, 67, 0
1, 132509, Note_off_c, 1, 47, 0
1, 132510, Note_on_c, 1, 69, 127
1, 132510, Note_on_c, 1, 45, 127
1, 132539, Note_off_c, 1, 69, 0
1, 132539, Note_off_c, 1, 45, 0
1, 132540, Note_off_c, 1, 77, 0
1, 132540, Note_on_c, 1, 70, 127
1, 132540, Note_on_c, 1, 76, 127
1, 132540, Note_on_c, 1, 43, 127
1, 132569, Note_off_c, 1, 74, 0
1, 132569, Note_off_c, 1, 70, 0
1, 132570, Note_on_c, 1, 73, 127
1, 132599, Note_off_c, 1, 43, 0
1, 132599, Note_off_c, 1, 73, 0
1, 132600, Note_off_c, 1, 76, 0
1, 132630, Note_on_c, 1, 72, 127
1, 132659, Note_off_c, 1, 72, 0
1, 132780, Note_on_c, 1, 41, 127
1, 132809, Note_off_c, 1, 41, 0
1, 132840, Note_on_c, 1, 81, 127
1, 132870, Note_on_c, 1, 40, 127
1, 132899, Note_off_c, 1, 40, 0
1, 132929, Note_off_c, 1, 81, 0
1, 132930, Note_on_c, 1, 79, 127
1, 132959, Note_off_c, 1, 79, 0
1, 133080, Note_on_c, 1, 70, 127
1, 133080, Note_on_c, 1, 74, 127
1, 133080, Note_on_c, 1, 76, 127
1, 133080, Note_on_c, 1, 43, 127
1, 133109, Note_off_c, 1, 70, 0
1, 133109, Note_off_c, 1, 76, 0
1, 133109, Note_off_c, 1, 43, 0
1, 133110, Note_on_c, 1, 72, 127
1, 133110, Note_on_c, 1, 41, 127
1, 133139, Note_off_c, 1, 74, 0
1, 133139, Note_off_c, 1, 72, 0
1, 133139, Note_off_c, 1, 41, 0
1, 133140, Note_on_c, 1, 70, 127
1, 133140, Note_on_c, 1, 74, 127
1, 133140, Note_on_c, 1, 76, 127
1, 133140, Note_on_c, 1, 43, 127
1, 133169, Note_off_c, 1, 70, 0
1, 133169, Note_off_c, 1, 43, 0
1, 133170, Note_on_c, 1, 69, 127
1, 133170, Note_on_c, 1, 45, 127
1, 133199, Note_off_c, 1, 74, 0
1, 133199, Note_off_c, 1, 69, 0
1, 133199, Note_off_c, 1, 45, 0
1, 133200, Note_on_c, 1, 67, 127
1, 133200, Note_on_c, 1, 46, 127
1, 133229, Note_off_c, 1, 67, 0
1, 133229, Note_off_c, 1, 46, 0
1, 133230, Note_on_c, 1, 65, 127
1, 133259, Note_off_c, 1, 65, 0
1, 133260, Note_on_c, 1, 64, 127
1, 133260, Note_on_c, 1, 72, 127
1, 133289, Note_off_c, 1, 76, 0
1, 133289, Note_off_c, 1, 72, 0
1, 133290, Note_on_c, 1, 79, 127
1, 133319, Note_off_c, 1, 64, 0
1, 133319, Note_off_c, 1, 79, 0
1, 133320, Note_on_c, 1, 72, 127
1, 133320, Note_on_c, 1, 78, 127
1, 133320, Note_on_c, 1, 45, 127
1, 133349, Note_off_c, 1, 72, 0
1, 133349, Note_off_c, 1, 78, 0
1, 133349, Note_off_c, 1, 45, 0
1, 133350, Note_on_c, 1, 74, 127
1, 133350, Note_on_c, 1, 76, 127
1, 133350, Note_on_c, 1, 43, 127
1, 133379, Note_off_c, 1, 74, 0
1, 133379, Note_off_c, 1, 76, 0
1, 133379, Note_off_c, 1, 43, 0
1, 133380, Note_on_c, 1, 72, 127
1, 133380, Note_on_c, 1, 78, 127
1, 133380, Note_on_c, 1, 45, 127
1, 133409, Note_off_c, 1, 72, 0
1, 133409, Note_off_c, 1, 45, 0
1, 133410, Note_on_c, 1, 75, 127
1, 133410, Note_on_c, 1, 46, 127
1, 133439, Note_off_c, 1, 78, 0
1, 133439, Note_off_c, 1, 75, 0
1, 133439, Note_off_c, 1, 46, 0
1, 133440, Note_on_c, 1, 74, 127
1, 133440, Note_on_c, 1, 48, 127
1, 133469, Note_off_c, 1, 48, 0
1, 133470, Note_on_c, 1, 72, 127
1, 133470, Note_on_c, 1, 45, 127
1, 133499, Note_off_c, 1, 74, 0
1, 133499, Note_off_c, 1, 72, 0
1, 133499, Note_off_c, 1, 45, 0
1, 133500, Note_on_c, 1, 74, 127
1, 133500, Note_on_c, 1, 79, 127
1, 133500, Note_on_c, 1, 46, 127
1, 133529, Note_off_c, 1, 46, 0
1, 133530, Note_on_c, 1, 48, 127
1, 133559, Note_off_c, 1, 74, 0
1, 133559, Note_off_c, 1, 48, 0
1, 133560, Note_on_c, 1, 62, 127
1, 133590, Note_on_c, 1, 45, 127
1, 133619, Note_off_c, 1, 79, 0
1, 133619, Note_off_c, 1, 45, 0
1, 133620, Note_on_c, 1, 43, 127
1, 133649, Note_off_c, 1, 62, 0
1, 133649, Note_off_c, 1, 43, 0
1, 133650, Note_on_c, 1, 64, 127
1, 133650, Note_on_c, 1, 41, 127
1, 133679, Note_off_c, 1, 64, 0
1, 133679, Note_off_c, 1, 41, 0
1, 133680, Note_on_c, 1, 65, 127
1, 133680, Note_on_c, 1, 70, 127
1, 133680, Note_on_c, 1, 40, 127
1, 133709, Note_off_c, 1, 65, 0
1, 133709, Note_off_c, 1, 40, 0
1, 133710, Note_on_c, 1, 67, 127
1, 133710, Note_on_c, 1, 38, 127
1, 133739, Note_off_c, 1, 70, 0
1, 133739, Note_off_c, 1, 67, 0
1, 133739, Note_off_c, 1, 38, 0
1, 133740, Note_on_c, 1, 69, 127
1, 133740, Note_on_c, 1, 37, 127
1, 133769, Note_off_c, 1, 37, 0
1, 133770, Note_on_c, 1, 38, 127
1, 133799, Note_off_c, 1, 69, 0
1, 133799, Note_off_c, 1, 38, 0
1, 133800, Note_on_c, 1, 81, 127
1, 133800, Note_on_c, 1, 69, 127
1, 133800, Note_on_c, 1, 73, 127
1, 133800, Note_on_c, 1, 40, 127
1, 133829, Note_off_c, 1, 40, 0
1, 133830, Note_on_c, 1, 41, 127
1, 133859, Note_off_c, 1, 69, 0
1, 133859, Note_off_c, 1, 73, 0
1, 133859, Note_off_c, 1, 41, 0
1, 133860, Note_on_c, 1, 76, 127
1, 133860, Note_on_c, 1, 43, 127
1, 133889, Note_off_c, 1, 81, 0
1, 133889, Note_off_c, 1, 43, 0
1, 133890, Note_on_c, 1, 79, 127
1, 133890, Note_on_c, 1, 45, 127
1, 133919, Note_off_c, 1, 76, 0
1, 133919, Note_off_c, 1, 79, 0
1, 133919, Note_off_c, 1, 45, 0
1, 133920, Note_on_c, 1, 77, 127
1, 133920, Note_on_c, 1, 69, 127
1, 133920, Note_on_c, 1, 79, 127
1, 133920, Note_on_c, 1, 47, 127
1, 133949, Note_off_c, 1, 77, 0
1, 133949, Note_off_c, 1, 47, 0
1, 133950, Note_on_c, 1, 76, 127
1, 133950, Note_on_c, 1, 49, 127
1, 133979, Note_off_c, 1, 69, 0
1, 133979, Note_off_c, 1, 79, 0
1, 133979, Note_off_c, 1, 76, 0
1, 133979, Note_off_c, 1, 49, 0
1, 133980, Note_on_c, 1, 74, 127
1, 133980, Note_on_c, 1, 57, 127
1, 133980, Note_on_c, 1, 77, 127
1, 133980, Note_on_c, 1, 50, 127
1, 134009, Note_off_c, 1, 77, 0
1, 134009, Note_off_c, 1, 50, 0
1, 134010, Note_on_c, 1, 76, 127
1, 134010, Note_on_c, 1, 49, 127
1, 134039, Note_off_c, 1, 74, 0
1, 134039, Note_off_c, 1, 57, 0
1, 134039, Note_off_c, 1, 76, 0
1, 134039, Note_off_c, 1, 49, 0
1, 134040, Note_on_c, 1, 74, 127
1, 134040, Note_on_c, 1, 50, 127
1, 134069, Note_off_c, 1, 74, 0
1, 134069, Note_off_c, 1, 50, 0
1, 134070, Note_on_c, 1, 73, 127
1, 134070, Note_on_c, 1, 52, 127
1, 134099, Note_off_c, 1, 73, 0
1, 134099, Note_off_c, 1, 52, 0
1, 134100, Note_on_c, 1, 74, 127
1, 134100, Note_on_c, 1, 53, 127
1, 134129, Note_off_c, 1, 53, 0
1, 134130, Note_on_c, 1, 52, 127
1, 134159, Note_off_c, 1, 74, 0
1, 134159, Note_off_c, 1, 52, 0
1, 134160, Note_on_c, 1, 71, 127
1, 134160, Note_on_c, 1, 53, 127
1, 134189, Note_off_c, 1, 53, 0
1, 134190, Note_on_c, 1, 55, 127
1, 134219, Note_off_c, 1, 71, 0
1, 134219, Note_off_c, 1, 55, 0
1, 134220, Note_on_c, 1, 74, 127
1, 134220, Note_on_c, 1, 57, 127
1, 134279, Note_off_c, 1, 57, 0
1, 134280, Note_on_c, 1, 55, 127
1, 134339, Note_off_c, 1, 74, 0
1, 134339, Note_off_c, 1, 55, 0
1, 134340, Note_on_c, 1, 73, 127
1, 134340, Note_on_c, 1, 57, 127
1, 134359, Note_off_c, 1, 73, 0
1, 134360, Note_on_c, 1, 74, 127
1, 134379, Note_off_c, 1, 74, 0
1, 134399, Note_off_c, 1, 57, 0
1, 134400, Note_on_c, 1, 74, 127
1, 134400, Note_on_c, 1, 45, 127
1, 134414, Note_off_c, 1, 74, 0
1, 134415, Note_on_c, 1, 73, 127
1, 134429, Note_off_c, 1, 73, 0
1, 134459, Note_off_c, 1, 45, 0
1, 134460, Note_on_c, 1, 74, 127
1, 134460, Note_on_c, 1, 38, 127
1, 134519, Note_off_c, 1, 38, 0
1, 134520, Note_on_c, 1, 62, 127
1, 134579, Note_off_c, 1, 74, 0
1, 134580, Note_on_c, 1, 50, 127
1, 134609, Note_off_c, 1, 62, 0
1, 134610, Note_on_c, 1, 64, 127
1, 134639, Note_off_c, 1, 50, 0
1, 134639, Note_off_c, 1, 64, 0
1, 134640, Note_on_c, 1, 65, 127
1, 134669, Note_off_c, 1, 65, 0
1, 134670, Note_on_c, 1, 67, 127
1, 134699, Note_off_c, 1, 67, 0
1, 134700, Note_on_c, 1, 69, 127
1, 134700, Note_on_c, 1, 49, 127
1, 134759, Note_off_c, 1, 69, 0
1, 134759, Note_off_c, 1, 49, 0
1, 134760, Note_on_c, 1, 69, 127
1, 134819, Note_off_c, 1, 69, 0
1, 134820, Note_on_c, 1, 69, 127
1, 134820, Note_on_c, 1, 50, 127
1, 134879, Note_off_c, 1, 69, 0
1, 134879, Note_off_c, 1, 50, 0
1, 134880, Note_on_c, 1, 69, 127
1, 134939, Note_off_c, 1, 69, 0
1, 134940, Note_on_c, 1, 70, 127
1, 134940, Note_on_c, 1, 43, 127
1, 134969, Note_off_c, 1, 70, 0
1, 134970, Note_on_c, 1, 69, 127
1, 134999, Note_off_c, 1, 43, 0
1, 134999, Note_off_c, 1, 69, 0
1, 135000, Note_on_c, 1, 70, 127
1, 135029, Note_off_c, 1, 70, 0
1, 135030, Note_on_c, 1, 72, 127
1, 135059, Note_off_c, 1, 72, 0
1, 135060, Note_on_c, 1, 70, 127
1, 135060, Note_on_c, 1, 48, 127
1, 135089, Note_off_c, 1, 70, 0
1, 135090, Note_on_c, 1, 69, 127
1, 135119, Note_off_c, 1, 48, 0
1, 135119, Note_off_c, 1, 69, 0
1, 135120, Note_on_c, 1, 67, 127
1, 135149, Note_off_c, 1, 67, 0
1, 135150, Note_on_c, 1, 70, 127
1, 135179, Note_off_c, 1, 70, 0
1, 135180, Note_on_c, 1, 69, 127
1, 135180, Note_on_c, 1, 41, 127
1, 135209, Note_off_c, 1, 69, 0
1, 135210, Note_on_c, 1, 67, 127
1, 135239, Note_off_c, 1, 41, 0
1, 135239, Note_off_c, 1, 67, 0
1, 135240, Note_on_c, 1, 69, 127
1, 135269, Note_off_c, 1, 69, 0
1, 135270, Note_on_c, 1, 70, 127
1, 135299, Note_off_c, 1, 70, 0
1, 135300, Note_on_c, 1, 69, 127
1, 135300, Note_on_c, 1, 46, 127
1, 135329, Note_off_c, 1, 69, 0
1, 135330, Note_on_c, 1, 67, 127
1, 135359, Note_off_c, 1, 46, 0
1, 135359, Note_off_c, 1, 67, 0
1, 135360, Note_on_c, 1, 65, 127
1, 135389, Note_off_c, 1, 65, 0
1, 135390, Note_on_c, 1, 69, 127
1, 135419, Note_off_c, 1, 69, 0
1, 135420, Note_on_c, 1, 67, 127
1, 135420, Note_on_c, 1, 40, 127
1, 135449, Note_off_c, 1, 67, 0
1, 135450, Note_on_c, 1, 65, 127
1, 135479, Note_off_c, 1, 40, 0
1, 135479, Note_off_c, 1, 65, 0
1, 135480, Note_on_c, 1, 67, 127
1, 135509, Note_off_c, 1, 67, 0
1, 135510, Note_on_c, 1, 69, 127
1, 135539, Note_off_c, 1, 69, 0
1, 135540, Note_on_c, 1, 67, 127
1, 135540, Note_on_c, 1, 45, 127
1, 135569, Note_off_c, 1, 67, 0
1, 135570, Note_on_c, 1, 65, 127
1, 135599, Note_off_c, 1, 45, 0
1, 135599, Note_off_c, 1, 65, 0
1, 135600, Note_on_c, 1, 64, 127
1, 135629, Note_off_c, 1, 64, 0
1, 135630, Note_on_c, 1, 67, 127
1, 135659, Note_off_c, 1, 67, 0
1, 135660, Note_on_c, 1, 65, 127
1, 135660, Note_on_c, 1, 38, 127
1, 135689, Note_off_c, 1, 65, 0
1, 135690, Note_on_c, 1, 64, 127
1, 135719, Note_off_c, 1, 38, 0
1, 135719, Note_off_c, 1, 64, 0
1, 135720, Note_on_c, 1, 62, 127
1, 135720, Note_on_c, 1, 50, 127
1, 135749, Note_off_c, 1, 62, 0
1, 135750, Note_on_c, 1, 64, 127
1, 135779, Note_off_c, 1, 50, 0
1, 135779, Note_off_c, 1, 64, 0
1, 135780, Note_on_c, 1, 66, 127
1, 135780, Note_on_c, 1, 48, 127
1, 135809, Note_off_c, 1, 66, 0
1, 135810, Note_on_c, 1, 68, 127
1, 135839, Note_off_c, 1, 48, 0
1, 135839, Note_off_c, 1, 68, 0
1, 135840, Note_on_c, 1, 69, 127
1, 135840, Note_on_c, 1, 47, 127
1, 135869, Note_off_c, 1, 69, 0
1, 135870, Note_on_c, 1, 71, 127
1, 135899, Note_off_c, 1, 47, 0
1, 135899, Note_off_c, 1, 71, 0
1, 135900, Note_on_c, 1, 81, 127
1, 135900, Note_on_c, 1, 72, 127
1, 135900, Note_on_c, 1, 45, 127
1, 135929, Note_off_c, 1, 72, 0
1, 135930, Note_on_c, 1, 71, 127
1, 135959, Note_off_c, 1, 81, 0
1, 135959, Note_off_c, 1, 45, 0
1, 135959, Note_off_c, 1, 71, 0
1, 135960, Note_on_c, 1, 69, 127
1, 135990, Note_on_c, 1, 71, 127
1, 136019, Note_off_c, 1, 71, 0
1, 136020, Note_on_c, 1, 72, 127
1, 136020, Note_on_c, 1, 57, 127
1, 136049, Note_off_c, 1, 69, 0
1, 136049, Note_off_c, 1, 72, 0
1, 136050, Note_on_c, 1, 74, 127
1, 136079, Note_off_c, 1, 57, 0
1, 136079, Note_off_c, 1, 74, 0
1, 136080, Note_on_c, 1, 72, 127
1, 136080, Note_on_c, 1, 76, 127
1, 136109, Note_off_c, 1, 72, 0
1, 136109, Note_off_c, 1, 76, 0
1, 136110, Note_on_c, 1, 74, 127
1, 136110, Note_on_c, 1, 77, 127
1, 136139, Note_off_c, 1, 74, 0
1, 136139, Note_off_c, 1, 77, 0
1, 136140, Note_on_c, 1, 76, 127
1, 136140, Note_on_c, 1, 71, 127
1, 136140, Note_on_c, 1, 56, 127
1, 136169, Note_off_c, 1, 71, 0
1, 136170, Note_on_c, 1, 72, 127
1, 136199, Note_off_c, 1, 76, 0
1, 136199, Note_off_c, 1, 56, 0
1, 136199, Note_off_c, 1, 72, 0
1, 136200, Note_on_c, 1, 76, 127
1, 136200, Note_on_c, 1, 74, 127
1, 136229, Note_off_c, 1, 74, 0
1, 136230, Note_on_c, 1, 71, 127
1, 136259, Note_off_c, 1, 76, 0
1, 136259, Note_off_c, 1, 71, 0
1, 136260, Note_on_c, 1, 76, 127
1, 136260, Note_on_c, 1, 72, 127
1, 136260, Note_on_c, 1, 57, 127
1, 136319, Note_off_c, 1, 76, 0
1, 136319, Note_off_c, 1, 72, 0
1, 136319, Note_off_c, 1, 57, 0
1, 136320, Note_on_c, 1, 76, 127
1, 136320, Note_on_c, 1, 72, 127
1, 136379, Note_off_c, 1, 76, 0
1, 136380, Note_on_c, 1, 77, 127
1, 136380, Note_on_c, 1, 50, 127
1, 136409, Note_off_c, 1, 77, 0
1, 136439, Note_off_c, 1, 72, 0
1, 136439, Note_off_c, 1, 50, 0
1, 136440, Note_on_c, 1, 77, 127
1, 136440, Note_on_c, 1, 71, 127
1, 136469, Note_off_c, 1, 77, 0
1, 136469, Note_off_c, 1, 71, 0
1, 136470, Note_on_c, 1, 79, 127
1, 136470, Note_on_c, 1, 69, 127
1, 136499, Note_off_c, 1, 79, 0
1, 136499, Note_off_c, 1, 69, 0
1, 136500, Note_on_c, 1, 77, 127
1, 136500, Note_on_c, 1, 71, 127
1, 136500, Note_on_c, 1, 55, 127
1, 136529, Note_off_c, 1, 77, 0
1, 136530, Note_on_c, 1, 76, 127
1, 136559, Note_off_c, 1, 71, 0
1, 136559, Note_off_c, 1, 55, 0
1, 136559, Note_off_c, 1, 76, 0
1, 136560, Note_on_c, 1, 74, 127
1, 136560, Note_on_c, 1, 71, 127
1, 136589, Note_off_c, 1, 74, 0
1, 136590, Note_on_c, 1, 77, 127
1, 136619, Note_off_c, 1, 77, 0
1, 136620, Note_on_c, 1, 76, 127
1, 136620, Note_on_c, 1, 48, 127
1, 136649, Note_off_c, 1, 76, 0
1, 136679, Note_off_c, 1, 71, 0
1, 136679, Note_off_c, 1, 48, 0
1, 136680, Note_on_c, 1, 76, 127
1, 136680, Note_on_c, 1, 69, 127
1, 136709, Note_off_c, 1, 76, 0
1, 136709, Note_off_c, 1, 69, 0
1, 136710, Note_on_c, 1, 77, 127
1, 136710, Note_on_c, 1, 68, 127
1, 136739, Note_off_c, 1, 77, 0
1, 136739, Note_off_c, 1, 68, 0
1, 136740, Note_on_c, 1, 76, 127
1, 136740, Note_on_c, 1, 69, 127
1, 136740, Note_on_c, 1, 53, 127
1, 136769, Note_off_c, 1, 76, 0
1, 136770, Note_on_c, 1, 74, 127
1, 136799, Note_off_c, 1, 69, 0
1, 136799, Note_off_c, 1, 53, 0
1, 136799, Note_off_c, 1, 74, 0
1, 136800, Note_on_c, 1, 72, 127
1, 136800, Note_on_c, 1, 69, 127
1, 136829, Note_off_c, 1, 72, 0
1, 136830, Note_on_c, 1, 76, 127
1, 136859, Note_off_c, 1, 76, 0
1, 136860, Note_on_c, 1, 74, 127
1, 136860, Note_on_c, 1, 47, 127
1, 136889, Note_off_c, 1, 74, 0
1, 136919, Note_off_c, 1, 69, 0
1, 136919, Note_off_c, 1, 47, 0
1, 136920, Note_on_c, 1, 74, 127
1, 136920, Note_on_c, 1, 68, 127
1, 136949, Note_off_c, 1, 74, 0
1, 136949, Note_off_c, 1, 68, 0
1, 136950, Note_on_c, 1, 76, 127
1, 136950, Note_on_c, 1, 66, 127
1, 136979, Note_off_c, 1, 76, 0
1, 136979, Note_off_c, 1, 66, 0
1, 136980, Note_on_c, 1, 74, 127
1, 136980, Note_on_c, 1, 68, 127
1, 136980, Note_on_c, 1, 52, 127
1, 136999, Note_off_c, 1, 68, 0
1, 137000, Note_on_c, 1, 69, 127
1, 137009, Note_off_c, 1, 74, 0
1, 137010, Note_on_c, 1, 72, 127
1, 137019, Note_off_c, 1, 69, 0
1, 137039, Note_off_c, 1, 52, 0
1, 137039, Note_off_c, 1, 72, 0
1, 137040, Note_on_c, 1, 71, 127
1, 137040, Note_on_c, 1, 69, 127
1, 137054, Note_off_c, 1, 69, 0
1, 137055, Note_on_c, 1, 68, 127
1, 137069, Note_off_c, 1, 71, 0
1, 137069, Note_off_c, 1, 68, 0
1, 137070, Note_on_c, 1, 74, 127
1, 137070, Note_on_c, 1, 69, 127
1, 137084, Note_off_c, 1, 69, 0
1, 137085, Note_on_c, 1, 68, 127
1, 137099, Note_off_c, 1, 74, 0
1, 137099, Note_off_c, 1, 68, 0
1, 137100, Note_on_c, 1, 72, 127
1, 137100, Note_on_c, 1, 69, 127
1, 137100, Note_on_c, 1, 45, 127
1, 137129, Note_off_c, 1, 72, 0
1, 137130, Note_on_c, 1, 71, 127
1, 137159, Note_off_c, 1, 69, 0
1, 137159, Note_off_c, 1, 45, 0
1, 137159, Note_off_c, 1, 71, 0
1, 137160, Note_on_c, 1, 69, 127
1, 137160, Note_on_c, 1, 57, 127
1, 137189, Note_off_c, 1, 69, 0
1, 137190, Note_on_c, 1, 71, 127
1, 137219, Note_off_c, 1, 57, 0
1, 137219, Note_off_c, 1, 71, 0
1, 137220, Note_on_c, 1, 73, 127
1, 137220, Note_on_c, 1, 55, 127
1, 137249, Note_off_c, 1, 73, 0
1, 137250, Note_on_c, 1, 74, 127
1, 137279, Note_off_c, 1, 55, 0
1, 137279, Note_off_c, 1, 74, 0
1, 137280, Note_on_c, 1, 76, 127
1, 137280, Note_on_c, 1, 69, 127
1, 137280, Note_on_c, 1, 53, 127
1, 137309, Note_off_c, 1, 76, 0
1, 137310, Note_on_c, 1, 77, 127
1, 137339, Note_off_c, 1, 69, 0
1, 137339, Note_off_c, 1, 53, 0
1, 137339, Note_off_c, 1, 77, 0
1, 137340, Note_on_c, 1, 79, 127
1, 137340, Note_on_c, 1, 70, 127
1, 137340, Note_on_c, 1, 52, 127
1, 137369, Note_off_c, 1, 79, 0
1, 137370, Note_on_c, 1, 77, 127
1, 137399, Note_off_c, 1, 70, 0
1, 137399, Note_off_c, 1, 52, 0
1, 137399, Note_off_c, 1, 77, 0
1, 137400, Note_on_c, 1, 79, 127
1, 137400, Note_on_c, 1, 67, 127
1, 137429, Note_off_c, 1, 79, 0
1, 137430, Note_on_c, 1, 81, 127
1, 137459, Note_off_c, 1, 67, 0
1, 137459, Note_off_c, 1, 81, 0
1, 137460, Note_on_c, 1, 79, 127
1, 137460, Note_on_c, 1, 64, 127
1, 137460, Note_on_c, 1, 57, 127
1, 137489, Note_off_c, 1, 79, 0
1, 137490, Note_on_c, 1, 77, 127
1, 137519, Note_off_c, 1, 64, 0
1, 137519, Note_off_c, 1, 57, 0
1, 137519, Note_off_c, 1, 77, 0
1, 137520, Note_on_c, 1, 76, 127
1, 137520, Note_on_c, 1, 73, 127
1, 137549, Note_off_c, 1, 76, 0
1, 137550, Note_on_c, 1, 79, 127
1, 137579, Note_off_c, 1, 73, 0
1, 137579, Note_off_c, 1, 79, 0
1, 137580, Note_on_c, 1, 77, 127
1, 137580, Note_on_c, 1, 74, 127
1, 137580, Note_on_c, 1, 50, 127
1, 137639, Note_off_c, 1, 77, 0
1, 137639, Note_off_c, 1, 74, 0
1, 137639, Note_off_c, 1, 50, 0
1, 137640, Note_on_c, 1, 74, 127
1, 137640, Note_on_c, 1, 62, 127
1, 137670, Note_on_c, 1, 64, 127
1, 137699, Note_off_c, 1, 74, 0
1, 137699, Note_off_c, 1, 62, 0
1, 137699, Note_off_c, 1, 64, 0
1, 137700, Note_on_c, 1, 66, 127
1, 137700, Note_on_c, 1, 60, 127
1, 137729, Note_off_c, 1, 66, 0
1, 137730, Note_on_c, 1, 67, 127
1, 137759, Note_off_c, 1, 60, 0
1, 137759, Note_off_c, 1, 67, 0
1, 137760, Note_on_c, 1, 74, 127
1, 137760, Note_on_c, 1, 69, 127
1, 137760, Note_on_c, 1, 59, 127
1, 137789, Note_off_c, 1, 69, 0
1, 137790, Note_on_c, 1, 70, 127
1, 137819, Note_off_c, 1, 74, 0
1, 137819, Note_off_c, 1, 59, 0
1, 137819, Note_off_c, 1, 70, 0
1, 137820, Note_on_c, 1, 75, 127
1, 137820, Note_on_c, 1, 72, 127
1, 137820, Note_on_c, 1, 57, 127
1, 137849, Note_off_c, 1, 72, 0
1, 137850, Note_on_c, 1, 70, 127
1, 137879, Note_off_c, 1, 75, 0
1, 137879, Note_off_c, 1, 57, 0
1, 137879, Note_off_c, 1, 70, 0
1, 137880, Note_on_c, 1, 72, 127
1, 137910, Note_on_c, 1, 74, 127
1, 137939, Note_off_c, 1, 72, 0
1, 137939, Note_off_c, 1, 74, 0
1, 137940, Note_on_c, 1, 69, 127
1, 137940, Note_on_c, 1, 72, 127
1, 137940, Note_on_c, 1, 50, 127
1, 137969, Note_off_c, 1, 72, 0
1, 137970, Note_on_c, 1, 70, 127
1, 137999, Note_off_c, 1, 69, 0
1, 137999, Note_off_c, 1, 50, 0
1, 137999, Note_off_c, 1, 70, 0
1, 138000, Note_on_c, 1, 78, 127
1, 138000, Note_on_c, 1, 69, 127
1, 138029, Note_off_c, 1, 69, 0
1, 138030, Note_on_c, 1, 72, 127
1, 138059, Note_off_c, 1, 78, 0
1, 138059, Note_off_c, 1, 72, 0
1, 138060, Note_on_c, 1, 79, 127
1, 138060, Note_on_c, 1, 70, 127
1, 138060, Note_on_c, 1, 43, 127
1, 138089, Note_off_c, 1, 70, 0
1, 138090, Note_on_c, 1, 69, 127
1, 138119, Note_off_c, 1, 79, 0
1, 138119, Note_off_c, 1, 43, 0
1, 138119, Note_off_c, 1, 69, 0
1, 138120, Note_on_c, 1, 67, 127
1, 138120, Note_on_c, 1, 71, 127
1, 138120, Note_on_c, 1, 55, 127
1, 138149, Note_off_c, 1, 67, 0
1, 138149, Note_off_c, 1, 71, 0
1, 138150, Note_on_c, 1, 69, 127
1, 138150, Note_on_c, 1, 73, 127
1, 138179, Note_off_c, 1, 55, 0
1, 138179, Note_off_c, 1, 69, 0
1, 138179, Note_off_c, 1, 73, 0
1, 138180, Note_on_c, 1, 71, 127
1, 138180, Note_on_c, 1, 74, 127
1, 138180, Note_on_c, 1, 53, 127
1, 138209, Note_off_c, 1, 71, 0
1, 138209, Note_off_c, 1, 74, 0
1, 138210, Note_on_c, 1, 73, 127
1, 138210, Note_on_c, 1, 76, 127
1, 138239, Note_off_c, 1, 53, 0
1, 138239, Note_off_c, 1, 73, 0
1, 138239, Note_off_c, 1, 76, 0
1, 138240, Note_on_c, 1, 74, 127
1, 138240, Note_on_c, 1, 77, 127
1, 138240, Note_on_c, 1, 52, 127
1, 138269, Note_off_c, 1, 74, 0
1, 138269, Note_off_c, 1, 77, 0
1, 138270, Note_on_c, 1, 76, 127
1, 138270, Note_on_c, 1, 79, 127
1, 138299, Note_off_c, 1, 52, 0
1, 138299, Note_off_c, 1, 76, 0
1, 138299, Note_off_c, 1, 79, 0
1, 138300, Note_on_c, 1, 77, 127
1, 138300, Note_on_c, 1, 81, 127
1, 138300, Note_on_c, 1, 50, 127
1, 138329, Note_off_c, 1, 77, 0
1, 138329, Note_off_c, 1, 81, 0
1, 138330, Note_on_c, 1, 79, 127
1, 138330, Note_on_c, 1, 82, 127
1, 138359, Note_off_c, 1, 50, 0
1, 138359, Note_off_c, 1, 79, 0
1, 138359, Note_off_c, 1, 82, 0
1, 138360, Note_on_c, 1, 76, 127
1, 138360, Note_on_c, 1, 79, 127
1, 138360, Note_on_c, 1, 38, 127
1, 138389, Note_off_c, 1, 76, 0
1, 138389, Note_off_c, 1, 79, 0
1, 138390, Note_on_c, 1, 77, 127
1, 138390, Note_on_c, 1, 81, 127
1, 138419, Note_off_c, 1, 77, 0
1, 138419, Note_off_c, 1, 81, 0
1, 138420, Note_on_c, 1, 82, 127
1, 138449, Note_off_c, 1, 38, 0
1, 138449, Note_off_c, 1, 82, 0
1, 138450, Note_on_c, 1, 77, 127
1, 138450, Note_on_c, 1, 81, 127
1, 138450, Note_on_c, 1, 40, 127
1, 138479, Note_off_c, 1, 77, 0
1, 138479, Note_off_c, 1, 81, 0
1, 138479, Note_off_c, 1, 40, 0
1, 138480, Note_on_c, 1, 76, 127
1, 138480, Note_on_c, 1, 79, 127
1, 138480, Note_on_c, 1, 41, 127
1, 138509, Note_off_c, 1, 76, 0
1, 138509, Note_off_c, 1, 79, 0
1, 138509, Note_off_c, 1, 41, 0
1, 138510, Note_on_c, 1, 74, 127
1, 138510, Note_on_c, 1, 77, 127
1, 138510, Note_on_c, 1, 43, 127
1, 138539, Note_off_c, 1, 74, 0
1, 138539, Note_off_c, 1, 77, 0
1, 138539, Note_off_c, 1, 43, 0
1, 138540, Note_on_c, 1, 73, 127
1, 138540, Note_on_c, 1, 76, 127
1, 138540, Note_on_c, 1, 45, 127
1, 138569, Note_off_c, 1, 76, 0
1, 138570, Note_on_c, 1, 74, 127
1, 138599, Note_off_c, 1, 73, 0
1, 138599, Note_off_c, 1, 45, 0
1, 138599, Note_off_c, 1, 74, 0
1, 138600, Note_on_c, 1, 69, 127
1, 138600, Note_on_c, 1, 73, 127
1, 138600, Note_on_c, 1, 45, 127
1, 138629, Note_off_c, 1, 73, 0
1, 138630, Note_on_c, 1, 71, 127
1, 138659, Note_off_c, 1, 69, 0
1, 138659, Note_off_c, 1, 45, 0
1, 138659, Note_off_c, 1, 71, 0
1, 138660, Note_on_c, 1, 69, 127
1, 138660, Note_on_c, 1, 45, 127
1, 138689, Note_off_c, 1, 69, 0
1, 138690, Note_on_c, 1, 71, 127
1, 138719, Note_off_c, 1, 45, 0
1, 138719, Note_off_c, 1, 71, 0
1, 138720, Note_on_c, 1, 81, 127
1, 138720, Note_on_c, 1, 73, 127
1, 138720, Note_on_c, 1, 45, 127
1, 138749, Note_off_c, 1, 73, 0
1, 138750, Note_on_c, 1, 69, 127
1, 138779, Note_off_c, 1, 45, 0
1, 138779, Note_off_c, 1, 69, 0
1, 138780, Note_on_c, 1, 74, 127
1, 138780, Note_on_c, 1, 46, 127
1, 138809, Note_off_c, 1, 46, 0
1, 138839, Note_off_c, 1, 81, 0
1, 138839, Note_off_c, 1, 74, 0
1, 138840, Note_on_c, 1, 79, 127
1, 138840, Note_on_c, 1, 74, 127
1, 138840, Note_on_c, 1, 46, 127
1, 138869, Note_off_c, 1, 79, 0
1, 138869, Note_off_c, 1, 46, 0
1, 138870, Note_on_c, 1, 77, 127
1, 138870, Note_on_c, 1, 48, 127
1, 138899, Note_off_c, 1, 77, 0
1, 138899, Note_off_c, 1, 48, 0
1, 138930, Note_on_c, 1, 45, 127
1, 138959, Note_off_c, 1, 74, 0
1, 138959, Note_off_c, 1, 45, 0
1, 138960, Note_on_c, 1, 79, 127
1, 138960, Note_on_c, 1, 76, 127
1, 138960, Note_on_c, 1, 43, 127
1, 138989, Note_off_c, 1, 76, 0
1, 138989, Note_off_c, 1, 43, 0
1, 138990, Note_on_c, 1, 74, 127
1, 138990, Note_on_c, 1, 46, 127
1, 139019, Note_off_c, 1, 74, 0
1, 139019, Note_off_c, 1, 46, 0
1, 139020, Note_on_c, 1, 72, 127
1, 139020, Note_on_c, 1, 45, 127
1, 139049, Note_off_c, 1, 45, 0
1, 139079, Note_off_c, 1, 79, 0
1, 139079, Note_off_c, 1, 72, 0
1, 139080, Note_on_c, 1, 77, 127
1, 139080, Note_on_c, 1, 72, 127
1, 139080, Note_on_c, 1, 45, 127
1, 139109, Note_off_c, 1, 77, 0
1, 139109, Note_off_c, 1, 45, 0
1, 139110, Note_on_c, 1, 76, 127
1, 139110, Note_on_c, 1, 46, 127
1, 139139, Note_off_c, 1, 76, 0
1, 139139, Note_off_c, 1, 46, 0
1, 139170, Note_on_c, 1, 43, 127
1, 139199, Note_off_c, 1, 72, 0
1, 139199, Note_off_c, 1, 43, 0
1, 139200, Note_on_c, 1, 77, 127
1, 139200, Note_on_c, 1, 74, 127
1, 139200, Note_on_c, 1, 41, 127
1, 139229, Note_off_c, 1, 74, 0
1, 139229, Note_off_c, 1, 41, 0
1, 139230, Note_on_c, 1, 72, 127
1, 139230, Note_on_c, 1, 45, 127
1, 139259, Note_off_c, 1, 72, 0
1, 139259, Note_off_c, 1, 45, 0
1, 139260, Note_on_c, 1, 70, 127
1, 139260, Note_on_c, 1, 43, 127
1, 139289, Note_off_c, 1, 43, 0
1, 139319, Note_off_c, 1, 77, 0
1, 139319, Note_off_c, 1, 70, 0
1, 139320, Note_on_c, 1, 76, 127
1, 139320, Note_on_c, 1, 70, 127
1, 139320, Note_on_c, 1, 43, 127
1, 139349, Note_off_c, 1, 76, 0
1, 139349, Note_off_c, 1, 43, 0
1, 139350, Note_on_c, 1, 74, 127
1, 139350, Note_on_c, 1, 45, 127
1, 139379, Note_off_c, 1, 74, 0
1, 139379, Note_off_c, 1, 45, 0
1, 139410, Note_on_c, 1, 41, 127
1, 139439, Note_off_c, 1, 70, 0
1, 139439, Note_off_c, 1, 41, 0
1, 139440, Note_on_c, 1, 76, 127
1, 139440, Note_on_c, 1, 72, 127
1, 139440, Note_on_c, 1, 40, 127
1, 139469, Note_off_c, 1, 72, 0
1, 139469, Note_off_c, 1, 40, 0
1, 139470, Note_on_c, 1, 70, 127
1, 139470, Note_on_c, 1, 43, 127
1, 139499, Note_off_c, 1, 70, 0
1, 139499, Note_off_c, 1, 43, 0
1, 139500, Note_on_c, 1, 69, 127
1, 139500, Note_on_c, 1, 41, 127
1, 139529, Note_off_c, 1, 41, 0
1, 139559, Note_off_c, 1, 76, 0
1, 139559, Note_off_c, 1, 69, 0
1, 139560, Note_on_c, 1, 74, 127
1, 139560, Note_on_c, 1, 41, 127
1, 139589, Note_off_c, 1, 74, 0
1, 139589, Note_off_c, 1, 41, 0
1, 139590, Note_on_c, 1, 73, 127
1, 139590, Note_on_c, 1, 76, 127
1, 139590, Note_on_c, 1, 43, 127
1, 139619, Note_off_c, 1, 73, 0
1, 139619, Note_off_c, 1, 76, 0
1, 139619, Note_off_c, 1, 43, 0
1, 139620, Note_on_c, 1, 74, 127
1, 139620, Note_on_c, 1, 77, 127
1, 139620, Note_on_c, 1, 45, 127
1, 139649, Note_off_c, 1, 45, 0
1, 139650, Note_on_c, 1, 47, 127
1, 139679, Note_off_c, 1, 77, 0
1, 139679, Note_off_c, 1, 47, 0
1, 139680, Note_on_c, 1, 69, 127
1, 139680, Note_on_c, 1, 49, 127
1, 139709, Note_off_c, 1, 49, 0
1, 139710, Note_on_c, 1, 50, 127
1, 139739, Note_off_c, 1, 69, 0
1, 139739, Note_off_c, 1, 50, 0
1, 139740, Note_on_c, 1, 67, 127
1, 139740, Note_on_c, 1, 52, 127
1, 139769, Note_off_c, 1, 52, 0
1, 139799, Note_off_c, 1, 74, 0
1, 139800, Note_on_c, 1, 73, 127
1, 139829, Note_off_c, 1, 73, 0
1, 139830, Note_on_c, 1, 53, 127
1, 139859, Note_off_c, 1, 53, 0
1, 139860, Note_on_c, 1, 76, 127
1, 139860, Note_on_c, 1, 55, 127
1, 139889, Note_off_c, 1, 55, 0
1, 139890, Note_on_c, 1, 57, 127
1, 139919, Note_off_c, 1, 67, 0
1, 139919, Note_off_c, 1, 76, 0
1, 139919, Note_off_c, 1, 57, 0
1, 139920, Note_on_c, 1, 69, 127
1, 139920, Note_on_c, 1, 65, 127
1, 139920, Note_on_c, 1, 59, 127
1, 139949, Note_off_c, 1, 65, 0
1, 139949, Note_off_c, 1, 59, 0
1, 139950, Note_on_c, 1, 64, 127
1, 139950, Note_on_c, 1, 61, 127
1, 139979, Note_off_c, 1, 64, 0
1, 139979, Note_off_c, 1, 61, 0
1, 139980, Note_on_c, 1, 62, 127
1, 140039, Note_off_c, 1, 69, 0
1, 140039, Note_off_c, 1, 62, 0
1, 140040, Note_on_c, 1, 67, 127
1, 140040, Note_on_c, 1, 64, 127
1, 140040, Note_on_c, 1, 55, 127
1, 140069, Note_off_c, 1, 67, 0
1, 140069, Note_off_c, 1, 64, 0
1, 140070, Note_on_c, 1, 65, 127
1, 140070, Note_on_c, 1, 62, 127
1, 140099, Note_off_c, 1, 55, 0
1, 140099, Note_off_c, 1, 65, 0
1, 140099, Note_off_c, 1, 62, 0
1, 140100, Note_on_c, 1, 64, 127
1, 140100, Note_on_c, 1, 61, 127
1, 140100, Note_on_c, 1, 57, 127
1, 140119, Note_off_c, 1, 64, 0
1, 140119, Note_off_c, 1, 61, 0
1, 140120, Note_on_c, 1, 65, 127
1, 140120, Note_on_c, 1, 62, 127
1, 140139, Note_off_c, 1, 65, 0
1, 140139, Note_off_c, 1, 62, 0
1, 140159, Note_off_c, 1, 57, 0
1, 140160, Note_on_c, 1, 65, 127
1, 140160, Note_on_c, 1, 62, 127
1, 140160, Note_on_c, 1, 45, 127
1, 140174, Note_off_c, 1, 65, 0
1, 140174, Note_off_c, 1, 62, 0
1, 140175, Note_on_c, 1, 64, 127
1, 140175, Note_on_c, 1, 61, 127
1, 140189, Note_off_c, 1, 64, 0
1, 140189, Note_off_c, 1, 61, 0
1, 140219, Note_off_c, 1, 45, 0
1, 140220, Note_on_c, 1, 62, 127
1, 140220, Note_on_c, 1, 50, 127
1, 140279, Note_off_c, 1, 50, 0
1, 140280, Note_on_c, 1, 38, 127
1, 140339, Note_off_c, 1, 62, 0
1, 140369, Note_off_c, 1, 38, 0
1, 140370, Note_on_c, 1, 40, 127
1, 140399, Note_off_c, 1, 40, 0
1, 140400, Note_on_c, 1, 41, 127
1, 140429, Note_off_c, 1, 41, 0
1, 140430, Note_on_c, 1, 43, 127
1, 140459, Note_off_c, 1, 43, 0
1, 140460, Note_on_c, 1, 45, 127
1, 140519, Note_off_c, 1, 45, 0
1, 140520, Note_on_c, 1, 81, 127
1, 140520, Note_on_c, 1, 72, 127
1, 140520, Note_on_c, 1, 45, 127
1, 140579, Note_off_c, 1, 45, 0
1, 140639, Note_off_c, 1, 81, 0
1, 140639, Note_off_c, 1, 72, 0
1, 140640, Note_on_c, 1, 79, 127
1, 140640, Note_on_c, 1, 70, 127
1, 140640, Note_on_c, 1, 46, 127
1, 140669, Note_off_c, 1, 79, 0
1, 140669, Note_off_c, 1, 70, 0
1, 140670, Note_on_c, 1, 77, 127
1, 140670, Note_on_c, 1, 69, 127
1, 140699, Note_off_c, 1, 46, 0
1, 140699, Note_off_c, 1, 77, 0
1, 140699, Note_off_c, 1, 69, 0
1, 140700, Note_on_c, 1, 76, 127
1, 140700, Note_on_c, 1, 67, 127
1, 140700, Note_on_c, 1, 48, 127
1, 140759, Note_off_c, 1, 76, 0
1, 140759, Note_off_c, 1, 67, 0
1, 140759, Note_off_c, 1, 48, 0
1, 140760, Note_on_c, 1, 36, 127
1, 140849, Note_off_c, 1, 36, 0
1, 140850, Note_on_c, 1, 38, 127
1, 140879, Note_off_c, 1, 38, 0
1, 140880, Note_on_c, 1, 40, 127
1, 140909, Note_off_c, 1, 40, 0
1, 140910, Note_on_c, 1, 41, 127
1, 140939, Note_off_c, 1, 41, 0
1, 140940, Note_on_c, 1, 43, 127
1, 140999, Note_off_c, 1, 43, 0
1, 141000, Note_on_c, 1, 70, 127
1, 141000, Note_on_c, 1, 43, 127
1, 141059, Note_off_c, 1, 43, 0
1, 141119, Note_off_c, 1, 70, 0
1, 141120, Note_on_c, 1, 69, 127
1, 141120, Note_on_c, 1, 45, 127
1, 141149, Note_off_c, 1, 69, 0
1, 141150, Note_on_c, 1, 67, 127
1, 141179, Note_off_c, 1, 45, 0
1, 141179, Note_off_c, 1, 67, 0
1, 141180, Note_on_c, 1, 65, 127
1, 141180, Note_on_c, 1, 46, 127
1, 141239, Note_off_c, 1, 65, 0
1, 141239, Note_off_c, 1, 46, 0
1, 141240, Note_on_c, 1, 74, 127
1, 141240, Note_on_c, 1, 46, 127
1, 141299, Note_off_c, 1, 46, 0
1, 141359, Note_off_c, 1, 74, 0
1, 141360, Note_on_c, 1, 72, 127
1, 141360, Note_on_c, 1, 48, 127
1, 141389, Note_off_c, 1, 72, 0
1, 141390, Note_on_c, 1, 70, 127
1, 141419, Note_off_c, 1, 48, 0
1, 141419, Note_off_c, 1, 70, 0
1, 141420, Note_on_c, 1, 69, 127
1, 141420, Note_on_c, 1, 50, 127
1, 141479, Note_off_c, 1, 69, 0
1, 141479, Note_off_c, 1, 50, 0
1, 141480, Note_on_c, 1, 65, 127
1, 141480, Note_on_c, 1, 50, 127
1, 141539, Note_off_c, 1, 50, 0
1, 141599, Note_off_c, 1, 65, 0
1, 141600, Note_on_c, 1, 64, 127
1, 141600, Note_on_c, 1, 52, 127
1, 141629, Note_off_c, 1, 64, 0
1, 141630, Note_on_c, 1, 62, 127
1, 141659, Note_off_c, 1, 52, 0
1, 141659, Note_off_c, 1, 62, 0
1, 141660, Note_on_c, 1, 60, 127
1, 141660, Note_on_c, 1, 53, 127
1, 141719, Note_off_c, 1, 60, 0
1, 141719, Note_off_c, 1, 53, 0
1, 141720, Note_on_c, 1, 72, 127
1, 141720, Note_on_c, 1, 41, 127
1, 141809, Note_off_c, 1, 41, 0
1, 141810, Note_on_c, 1, 43, 127
1, 141839, Note_off_c, 1, 72, 0
1, 141839, Note_off_c, 1, 43, 0
1, 141840, Note_on_c, 1, 70, 127
1, 141840, Note_on_c, 1, 45, 127
1, 141869, Note_off_c, 1, 70, 0
1, 141869, Note_off_c, 1, 45, 0
1, 141870, Note_on_c, 1, 69, 127
1, 141870, Note_on_c, 1, 46, 127
1, 141899, Note_off_c, 1, 69, 0
1, 141899, Note_off_c, 1, 46, 0
1, 141900, Note_on_c, 1, 67, 127
1, 141900, Note_on_c, 1, 48, 127
1, 141959, Note_off_c, 1, 67, 0
1, 141959, Note_off_c, 1, 48, 0
1, 141960, Note_on_c, 1, 67, 127
1, 141960, Note_on_c, 1, 48, 127
1, 141989, Note_off_c, 1, 67, 0
1, 142019, Note_off_c, 1, 48, 0
1, 142020, Note_on_c, 1, 64, 127
1, 142020, Note_on_c, 1, 48, 127
1, 142049, Note_off_c, 1, 64, 0
1, 142079, Note_off_c, 1, 48, 0
1, 142080, Note_on_c, 1, 72, 127
1, 142080, Note_on_c, 1, 48, 127
1, 142109, Note_off_c, 1, 72, 0
1, 142139, Note_off_c, 1, 48, 0
1, 142140, Note_on_c, 1, 69, 127
1, 142140, Note_on_c, 1, 50, 127
1, 142169, Note_off_c, 1, 69, 0
1, 142169, Note_off_c, 1, 50, 0
1, 142170, Note_on_c, 1, 48, 127
1, 142199, Note_off_c, 1, 48, 0
1, 142200, Note_on_c, 1, 69, 127
1, 142200, Note_on_c, 1, 50, 127
1, 142229, Note_off_c, 1, 69, 0
1, 142229, Note_off_c, 1, 50, 0
1, 142230, Note_on_c, 1, 51, 127
1, 142259, Note_off_c, 1, 51, 0
1, 142260, Note_on_c, 1, 70, 127
1, 142260, Note_on_c, 1, 50, 127
1, 142289, Note_off_c, 1, 70, 0
1, 142289, Note_off_c, 1, 50, 0
1, 142290, Note_on_c, 1, 48, 127
1, 142319, Note_off_c, 1, 48, 0
1, 142320, Note_on_c, 1, 74, 127
1, 142320, Note_on_c, 1, 46, 127
1, 142349, Note_off_c, 1, 74, 0
1, 142349, Note_off_c, 1, 46, 0
1, 142350, Note_on_c, 1, 50, 127
1, 142379, Note_off_c, 1, 50, 0
1, 142380, Note_on_c, 1, 75, 127
1, 142380, Note_on_c, 1, 48, 127
1, 142409, Note_off_c, 1, 75, 0
1, 142409, Note_off_c, 1, 48, 0
1, 142410, Note_on_c, 1, 46, 127
1, 142439, Note_off_c, 1, 46, 0
1, 142440, Note_on_c, 1, 60, 127
1, 142440, Note_on_c, 1, 48, 127
1, 142469, Note_off_c, 1, 60, 0
1, 142469, Note_off_c, 1, 48, 0
1, 142470, Note_on_c, 1, 50, 127
1, 142499, Note_off_c, 1, 50, 0
1, 142500, Note_on_c, 1, 63, 127
1, 142500, Note_on_c, 1, 48, 127
1, 142529, Note_off_c, 1, 63, 0
1, 142529, Note_off_c, 1, 48, 0
1, 142530, Note_on_c, 1, 46, 127
1, 142559, Note_off_c, 1, 46, 0
1, 142560, Note_on_c, 1, 66, 127
1, 142560, Note_on_c, 1, 45, 127
1, 142589, Note_off_c, 1, 66, 0
1, 142589, Note_off_c, 1, 45, 0
1, 142590, Note_on_c, 1, 48, 127
1, 142619, Note_off_c, 1, 48, 0
1, 142620, Note_on_c, 1, 67, 127
1, 142620, Note_on_c, 1, 46, 127
1, 142649, Note_off_c, 1, 67, 0
1, 142649, Note_off_c, 1, 46, 0
1, 142650, Note_on_c, 1, 45, 127
1, 142679, Note_off_c, 1, 45, 0
1, 142680, Note_on_c, 1, 66, 127
1, 142680, Note_on_c, 1, 46, 127
1, 142709, Note_off_c, 1, 66, 0
1, 142709, Note_off_c, 1, 46, 0
1, 142710, Note_on_c, 1, 48, 127
1, 142739, Note_off_c, 1, 48, 0
1, 142740, Note_on_c, 1, 67, 127
1, 142740, Note_on_c, 1, 46, 127
1, 142769, Note_off_c, 1, 67, 0
1, 142769, Note_off_c, 1, 46, 0
1, 142770, Note_on_c, 1, 45, 127
1, 142799, Note_off_c, 1, 45, 0
1, 142800, Note_on_c, 1, 75, 127
1, 142800, Note_on_c, 1, 43, 127
1, 142829, Note_off_c, 1, 75, 0
1, 142829, Note_off_c, 1, 43, 0
1, 142830, Note_on_c, 1, 46, 127
1, 142859, Note_off_c, 1, 46, 0
1, 142860, Note_on_c, 1, 72, 127
1, 142860, Note_on_c, 1, 45, 127
1, 142889, Note_off_c, 1, 72, 0
1, 142889, Note_off_c, 1, 45, 0
1, 142890, Note_on_c, 1, 43, 127
1, 142919, Note_off_c, 1, 43, 0
1, 142920, Note_on_c, 1, 63, 127
1, 142920, Note_on_c, 1, 45, 127
1, 142949, Note_off_c, 1, 63, 0
1, 142949, Note_off_c, 1, 45, 0
1, 142950, Note_on_c, 1, 46, 127
1, 142979, Note_off_c, 1, 46, 0
1, 142980, Note_on_c, 1, 72, 127
1, 142980, Note_on_c, 1, 45, 127
1, 143009, Note_off_c, 1, 72, 0
1, 143009, Note_off_c, 1, 45, 0
1, 143010, Note_on_c, 1, 43, 127
1, 143039, Note_off_c, 1, 43, 0
1, 143040, Note_on_c, 1, 69, 127
1, 143040, Note_on_c, 1, 42, 127
1, 143069, Note_off_c, 1, 69, 0
1, 143069, Note_off_c, 1, 42, 0
1, 143070, Note_on_c, 1, 45, 127
1, 143099, Note_off_c, 1, 45, 0
1, 143100, Note_on_c, 1, 62, 127
1, 143100, Note_on_c, 1, 43, 127
1, 143129, Note_off_c, 1, 62, 0
1, 143159, Note_off_c, 1, 43, 0
1, 143160, Note_on_c, 1, 74, 127
1, 143160, Note_on_c, 1, 42, 127
1, 143189, Note_off_c, 1, 74, 0
1, 143219, Note_off_c, 1, 42, 0
1, 143220, Note_on_c, 1, 67, 127
1, 143220, Note_on_c, 1, 43, 127
1, 143249, Note_off_c, 1, 67, 0
1, 143279, Note_off_c, 1, 43, 0
1, 143280, Note_on_c, 1, 45, 127
1, 143339, Note_off_c, 1, 45, 0
1, 143340, Note_on_c, 1, 46, 127
1, 143399, Note_off_c, 1, 46, 0
1, 143400, Note_on_c, 1, 45, 127
1, 143459, Note_off_c, 1, 45, 0
1, 143460, Note_on_c, 1, 46, 127
1, 143519, Note_off_c, 1, 46, 0
1, 143520, Note_on_c, 1, 48, 127
1, 143579, Note_off_c, 1, 48, 0
1, 143580, Note_on_c, 1, 50, 127
1, 143639, Note_off_c, 1, 50, 0
1, 143640, Note_on_c, 1, 48, 127
1, 143699, Note_off_c, 1, 48, 0
1, 143700, Note_on_c, 1, 50, 127
1, 143759, Note_off_c, 1, 50, 0
1, 143760, Note_on_c, 1, 38, 127
1, 143819, Note_off_c, 1, 38, 0
1, 143820, Note_on_c, 1, 79, 127
1, 143820, Note_on_c, 1, 43, 127
1, 143879, Note_off_c, 1, 79, 0
1, 143879, Note_off_c, 1, 43, 0
1, 143880, Note_on_c, 1, 67, 127
1, 143940, Note_on_c, 1, 55, 127
1, 143969, Note_off_c, 1, 67, 0
1, 143970, Note_on_c, 1, 69, 127
1, 143999, Note_off_c, 1, 55, 0
1, 143999, Note_off_c, 1, 69, 0
1, 144000, Note_on_c, 1, 70, 127
1, 144029, Note_off_c, 1, 70, 0
1, 144030, Note_on_c, 1, 72, 127
1, 144059, Note_off_c, 1, 72, 0
1, 144060, Note_on_c, 1, 74, 127
1, 144060, Note_on_c, 1, 54, 127
1, 144119, Note_off_c, 1, 74, 0
1, 144119, Note_off_c, 1, 54, 0
1, 144120, Note_on_c, 1, 74, 127
1, 144179, Note_off_c, 1, 74, 0
1, 144180, Note_on_c, 1, 74, 127
1, 144180, Note_on_c, 1, 55, 127
1, 144239, Note_off_c, 1, 74, 0
1, 144239, Note_off_c, 1, 55, 0
1, 144240, Note_on_c, 1, 74, 127
1, 144299, Note_off_c, 1, 74, 0
1, 144300, Note_on_c, 1, 75, 127
1, 144300, Note_on_c, 1, 72, 127
1, 144300, Note_on_c, 1, 48, 127
1, 144329, Note_off_c, 1, 75, 0
1, 144330, Note_on_c, 1, 74, 127
1, 144359, Note_off_c, 1, 72, 0
1, 144359, Note_off_c, 1, 48, 0
1, 144359, Note_off_c, 1, 74, 0
1, 144360, Note_on_c, 1, 75, 127
1, 144360, Note_on_c, 1, 60, 127
1, 144389, Note_off_c, 1, 75, 0
1, 144390, Note_on_c, 1, 77, 127
1, 144419, Note_off_c, 1, 77, 0
1, 144420, Note_on_c, 1, 45, 127
1, 144449, Note_off_c, 1, 60, 0
1, 144450, Note_on_c, 1, 74, 127
1, 144450, Note_on_c, 1, 62, 127
1, 144479, Note_off_c, 1, 45, 0
1, 144479, Note_off_c, 1, 74, 0
1, 144479, Note_off_c, 1, 62, 0
1, 144480, Note_on_c, 1, 72, 127
1, 144480, Note_on_c, 1, 64, 127
1, 144509, Note_off_c, 1, 72, 0
1, 144509, Note_off_c, 1, 64, 0
1, 144510, Note_on_c, 1, 75, 127
1, 144510, Note_on_c, 1, 66, 127
1, 144539, Note_off_c, 1, 75, 0
1, 144539, Note_off_c, 1, 66, 0
1, 144540, Note_on_c, 1, 74, 127
1, 144540, Note_on_c, 1, 67, 127
1, 144540, Note_on_c, 1, 44, 127
1, 144569, Note_off_c, 1, 74, 0
1, 144570, Note_on_c, 1, 72, 127
1, 144599, Note_off_c, 1, 67, 0
1, 144599, Note_off_c, 1, 44, 0
1, 144599, Note_off_c, 1, 72, 0
1, 144600, Note_on_c, 1, 74, 127
1, 144600, Note_on_c, 1, 67, 127
1, 144629, Note_off_c, 1, 74, 0
1, 144630, Note_on_c, 1, 75, 127
1, 144659, Note_off_c, 1, 67, 0
1, 144659, Note_off_c, 1, 75, 0
1, 144660, Note_on_c, 1, 74, 127
1, 144660, Note_on_c, 1, 67, 127
1, 144660, Note_on_c, 1, 51, 127
1, 144689, Note_off_c, 1, 74, 0
1, 144690, Note_on_c, 1, 72, 127
1, 144719, Note_off_c, 1, 67, 0
1, 144719, Note_off_c, 1, 51, 0
1, 144719, Note_off_c, 1, 72, 0
1, 144720, Note_on_c, 1, 70, 127
1, 144720, Note_on_c, 1, 67, 127
1, 144749, Note_off_c, 1, 70, 0
1, 144750, Note_on_c, 1, 74, 127
1, 144779, Note_off_c, 1, 67, 0
1, 144779, Note_off_c, 1, 74, 0
1, 144780, Note_on_c, 1, 72, 127
1, 144780, Note_on_c, 1, 69, 127
1, 144780, Note_on_c, 1, 45, 127
1, 144809, Note_off_c, 1, 72, 0
1, 144809, Note_off_c, 1, 69, 0
1, 144810, Note_on_c, 1, 70, 127
1, 144810, Note_on_c, 1, 67, 127
1, 144839, Note_off_c, 1, 45, 0
1, 144839, Note_off_c, 1, 70, 0
1, 144839, Note_off_c, 1, 67, 0
1, 144840, Note_on_c, 1, 72, 127
1, 144840, Note_on_c, 1, 69, 127
1, 144869, Note_off_c, 1, 72, 0
1, 144869, Note_off_c, 1, 69, 0
1, 144870, Note_on_c, 1, 74, 127
1, 144870, Note_on_c, 1, 70, 127
1, 144899, Note_off_c, 1, 74, 0
1, 144899, Note_off_c, 1, 70, 0
1, 144900, Note_on_c, 1, 72, 127
1, 144900, Note_on_c, 1, 69, 127
1, 144900, Note_on_c, 1, 50, 127
1, 144929, Note_off_c, 1, 72, 0
1, 144929, Note_off_c, 1, 69, 0
1, 144930, Note_on_c, 1, 70, 127
1, 144930, Note_on_c, 1, 67, 127
1, 144959, Note_off_c, 1, 50, 0
1, 144959, Note_off_c, 1, 70, 0
1, 144959, Note_off_c, 1, 67, 0
1, 144960, Note_on_c, 1, 69, 127
1, 144960, Note_on_c, 1, 66, 127
1, 144989, Note_off_c, 1, 69, 0
1, 144989, Note_off_c, 1, 66, 0
1, 144990, Note_on_c, 1, 72, 127
1, 144990, Note_on_c, 1, 69, 127
1, 145019, Note_off_c, 1, 72, 0
1, 145019, Note_off_c, 1, 69, 0
1, 145020, Note_on_c, 1, 70, 127
1, 145020, Note_on_c, 1, 67, 127
1, 145020, Note_on_c, 1, 55, 127
1, 145049, Note_off_c, 1, 70, 0
1, 145049, Note_off_c, 1, 67, 0
1, 145050, Note_on_c, 1, 69, 127
1, 145050, Note_on_c, 1, 66, 127
1, 145079, Note_off_c, 1, 55, 0
1, 145079, Note_off_c, 1, 69, 0
1, 145079, Note_off_c, 1, 66, 0
1, 145080, Note_on_c, 1, 70, 127
1, 145080, Note_on_c, 1, 67, 127
1, 145080, Note_on_c, 1, 43, 127
1, 145109, Note_off_c, 1, 70, 0
1, 145109, Note_off_c, 1, 67, 0
1, 145110, Note_on_c, 1, 72, 127
1, 145110, Note_on_c, 1, 69, 127
1, 145139, Note_off_c, 1, 72, 0
1, 145139, Note_off_c, 1, 69, 0
1, 145169, Note_off_c, 1, 43, 0
1, 145170, Note_on_c, 1, 69, 127
1, 145170, Note_on_c, 1, 66, 127
1, 145170, Note_on_c, 1, 45, 127
1, 145199, Note_off_c, 1, 69, 0
1, 145199, Note_off_c, 1, 66, 0
1, 145199, Note_off_c, 1, 45, 0
1, 145200, Note_on_c, 1, 67, 127
1, 145200, Note_on_c, 1, 64, 127
1, 145200, Note_on_c, 1, 46, 127
1, 145229, Note_off_c, 1, 67, 0
1, 145229, Note_off_c, 1, 64, 0
1, 145229, Note_off_c, 1, 46, 0
1, 145230, Note_on_c, 1, 70, 127
1, 145230, Note_on_c, 1, 67, 127
1, 145230, Note_on_c, 1, 48, 127
1, 145259, Note_off_c, 1, 70, 0
1, 145259, Note_off_c, 1, 67, 0
1, 145259, Note_off_c, 1, 48, 0
1, 145260, Note_on_c, 1, 69, 127
1, 145260, Note_on_c, 1, 66, 127
1, 145260, Note_on_c, 1, 50, 127
1, 145289, Note_off_c, 1, 69, 0
1, 145290, Note_on_c, 1, 67, 127
1, 145319, Note_off_c, 1, 66, 0
1, 145319, Note_off_c, 1, 50, 0
1, 145319, Note_off_c, 1, 67, 0
1, 145320, Note_on_c, 1, 69, 127
1, 145320, Note_on_c, 1, 62, 127
1, 145320, Note_on_c, 1, 50, 127
1, 145349, Note_off_c, 1, 69, 0
1, 145350, Note_on_c, 1, 70, 127
1, 145379, Note_off_c, 1, 62, 0
1, 145379, Note_off_c, 1, 50, 0
1, 145379, Note_off_c, 1, 70, 0
1, 145380, Note_on_c, 1, 69, 127
1, 145380, Note_on_c, 1, 74, 127
1, 145380, Note_on_c, 1, 50, 127
1, 145409, Note_off_c, 1, 69, 0
1, 145410, Note_on_c, 1, 67, 127
1, 145439, Note_off_c, 1, 50, 0
1, 145439, Note_off_c, 1, 67, 0
1, 145440, Note_on_c, 1, 66, 127
1, 145469, Note_off_c, 1, 66, 0
1, 145500, Note_on_c, 1, 51, 127
1, 145529, Note_off_c, 1, 51, 0
1, 145559, Note_off_c, 1, 74, 0
1, 145560, Note_on_c, 1, 79, 127
1, 145560, Note_on_c, 1, 72, 127
1, 145560, Note_on_c, 1, 51, 127
1, 145589, Note_off_c, 1, 72, 0
1, 145589, Note_off_c, 1, 51, 0
1, 145590, Note_on_c, 1, 71, 127
1, 145590, Note_on_c, 1, 53, 127
1, 145619, Note_off_c, 1, 71, 0
1, 145619, Note_off_c, 1, 53, 0
1, 145650, Note_on_c, 1, 50, 127
1, 145679, Note_off_c, 1, 79, 0
1, 145679, Note_off_c, 1, 50, 0
1, 145680, Note_on_c, 1, 81, 127
1, 145680, Note_on_c, 1, 72, 127
1, 145680, Note_on_c, 1, 48, 127
1, 145709, Note_off_c, 1, 81, 0
1, 145709, Note_off_c, 1, 48, 0
1, 145710, Note_on_c, 1, 79, 127
1, 145710, Note_on_c, 1, 51, 127
1, 145739, Note_off_c, 1, 79, 0
1, 145739, Note_off_c, 1, 51, 0
1, 145740, Note_on_c, 1, 77, 127
1, 145740, Note_on_c, 1, 50, 127
1, 145769, Note_off_c, 1, 50, 0
1, 145799, Note_off_c, 1, 72, 0
1, 145799, Note_off_c, 1, 77, 0
1, 145800, Note_on_c, 1, 77, 127
1, 145800, Note_on_c, 1, 70, 127
1, 145800, Note_on_c, 1, 50, 127
1, 145829, Note_off_c, 1, 70, 0
1, 145829, Note_off_c, 1, 50, 0
1, 145830, Note_on_c, 1, 69, 127
1, 145830, Note_on_c, 1, 51, 127
1, 145859, Note_off_c, 1, 69, 0
1, 145859, Note_off_c, 1, 51, 0
1, 145890, Note_on_c, 1, 48, 127
1, 145919, Note_off_c, 1, 77, 0
1, 145919, Note_off_c, 1, 48, 0
1, 145920, Note_on_c, 1, 79, 127
1, 145920, Note_on_c, 1, 70, 127
1, 145920, Note_on_c, 1, 46, 127
1, 145949, Note_off_c, 1, 79, 0
1, 145949, Note_off_c, 1, 46, 0
1, 145950, Note_on_c, 1, 77, 127
1, 145950, Note_on_c, 1, 50, 127
1, 145979, Note_off_c, 1, 77, 0
1, 145979, Note_off_c, 1, 50, 0
1, 145980, Note_on_c, 1, 75, 127
1, 145980, Note_on_c, 1, 48, 127
1, 146009, Note_off_c, 1, 48, 0
1, 146039, Note_off_c, 1, 70, 0
1, 146039, Note_off_c, 1, 75, 0
1, 146040, Note_on_c, 1, 67, 127
1, 146040, Note_on_c, 1, 69, 127
1, 146040, Note_on_c, 1, 48, 127
1, 146069, Note_off_c, 1, 69, 0
1, 146069, Note_off_c, 1, 48, 0
1, 146070, Note_on_c, 1, 50, 127
1, 146099, Note_off_c, 1, 67, 0
1, 146099, Note_off_c, 1, 50, 0
1, 146100, Note_on_c, 1, 66, 127
1, 146100, Note_on_c, 1, 69, 127
1, 146100, Note_on_c, 1, 48, 127
1, 146129, Note_off_c, 1, 48, 0
1, 146130, Note_on_c, 1, 46, 127
1, 146159, Note_off_c, 1, 66, 0
1, 146159, Note_off_c, 1, 69, 0
1, 146159, Note_off_c, 1, 46, 0
1, 146160, Note_on_c, 1, 81, 127
1, 146160, Note_on_c, 1, 72, 127
1, 146160, Note_on_c, 1, 45, 127
1, 146189, Note_off_c, 1, 45, 0
1, 146190, Note_on_c, 1, 48, 127
1, 146219, Note_off_c, 1, 72, 0
1, 146219, Note_off_c, 1, 48, 0
1, 146220, Note_on_c, 1, 66, 127
1, 146220, Note_on_c, 1, 46, 127
1, 146249, Note_off_c, 1, 46, 0
1, 146279, Note_off_c, 1, 81, 0
1, 146279, Note_off_c, 1, 66, 0
1, 146280, Note_on_c, 1, 79, 127
1, 146280, Note_on_c, 1, 62, 127
1, 146280, Note_on_c, 1, 46, 127
1, 146309, Note_off_c, 1, 79, 0
1, 146309, Note_off_c, 1, 46, 0
1, 146310, Note_on_c, 1, 78, 127
1, 146310, Note_on_c, 1, 48, 127
1, 146339, Note_off_c, 1, 62, 0
1, 146339, Note_off_c, 1, 78, 0
1, 146339, Note_off_c, 1, 48, 0
1, 146340, Note_on_c, 1, 79, 127
1, 146340, Note_on_c, 1, 74, 127
1, 146340, Note_on_c, 1, 46, 127
1, 146369, Note_off_c, 1, 46, 0
1, 146370, Note_on_c, 1, 43, 127
1, 146399, Note_off_c, 1, 79, 0
1, 146399, Note_off_c, 1, 74, 0
1, 146399, Note_off_c, 1, 43, 0
1, 146400, Note_on_c, 1, 67, 127
1, 146400, Note_on_c, 1, 72, 127
1, 146400, Note_on_c, 1, 51, 127
1, 146429, Note_off_c, 1, 67, 0
1, 146429, Note_off_c, 1, 51, 0
1, 146430, Note_on_c, 1, 66, 127
1, 146430, Note_on_c, 1, 48, 127
1, 146459, Note_off_c, 1, 72, 0
1, 146459, Note_off_c, 1, 66, 0
1, 146459, Note_off_c, 1, 48, 0
1, 146460, Note_on_c, 1, 67, 127
1, 146460, Note_on_c, 1, 70, 127
1, 146460, Note_on_c, 1, 50, 127
1, 146489, Note_off_c, 1, 50, 0
1, 146490, Note_on_c, 1, 48, 127
1, 146519, Note_off_c, 1, 48, 0
1, 146520, Note_on_c, 1, 46, 127
1, 146549, Note_off_c, 1, 67, 0
1, 146549, Note_off_c, 1, 70, 0
1, 146549, Note_off_c, 1, 46, 0
1, 146550, Note_on_c, 1, 69, 127
1, 146550, Note_on_c, 1, 48, 127
1, 146579, Note_off_c, 1, 69, 0
1, 146579, Note_off_c, 1, 48, 0
1, 146580, Note_on_c, 1, 66, 127
1, 146580, Note_on_c, 1, 69, 127
1, 146580, Note_on_c, 1, 50, 127
1, 146599, Note_off_c, 1, 66, 0
1, 146600, Note_on_c, 1, 67, 127
1, 146619, Note_off_c, 1, 67, 0
1, 146639, Note_off_c, 1, 50, 0
1, 146640, Note_on_c, 1, 38, 127
1, 146669, Note_off_c, 1, 69, 0
1, 146699, Note_off_c, 1, 38, 0
1, 146700, Note_on_c, 1, 67, 127
1, 146700, Note_on_c, 1, 43, 127
1, 146759, Note_off_c, 1, 67, 0
1, 146759, Note_off_c, 1, 43, 0
1, 146760, Note_on_c, 1, 70, 127
1, 146760, Note_on_c, 1, 62, 127
1, 146760, Note_on_c, 1, 55, 127
1, 146819, Note_off_c, 1, 55, 0
1, 146820, Note_on_c, 1, 57, 127
1, 146849, Note_off_c, 1, 70, 0
1, 146849, Note_off_c, 1, 62, 0
1, 146850, Note_on_c, 1, 69, 127
1, 146850, Note_on_c, 1, 60, 127
1, 146879, Note_off_c, 1, 57, 0
1, 146879, Note_off_c, 1, 69, 0
1, 146879, Note_off_c, 1, 60, 0
1, 146880, Note_on_c, 1, 67, 127
1, 146880, Note_on_c, 1, 58, 127
1, 146909, Note_off_c, 1, 67, 0
1, 146910, Note_on_c, 1, 65, 127
1, 146910, Note_on_c, 1, 57, 127
1, 146939, Note_off_c, 1, 58, 0
1, 146939, Note_off_c, 1, 65, 0
1, 146939, Note_off_c, 1, 57, 0
1, 146940, Note_on_c, 1, 64, 127
1, 146940, Note_on_c, 1, 55, 127
1, 146940, Note_on_c, 1, 48, 127
1, 146969, Note_off_c, 1, 48, 0
1, 146970, Note_on_c, 1, 46, 127
1, 146999, Note_off_c, 1, 64, 0
1, 146999, Note_off_c, 1, 55, 0
1, 146999, Note_off_c, 1, 46, 0
1, 147000, Note_on_c, 1, 48, 127
1, 147029, Note_off_c, 1, 48, 0
1, 147030, Note_on_c, 1, 50, 127
1, 147059, Note_off_c, 1, 50, 0
1, 147060, Note_on_c, 1, 52, 127
1, 147089, Note_off_c, 1, 52, 0
1, 147090, Note_on_c, 1, 53, 127
1, 147119, Note_off_c, 1, 53, 0
1, 147120, Note_on_c, 1, 55, 127
1, 147149, Note_off_c, 1, 55, 0
1, 147150, Note_on_c, 1, 52, 127
1, 147179, Note_off_c, 1, 52, 0
1, 147180, Note_on_c, 1, 53, 127
1, 147239, Note_off_c, 1, 53, 0
1, 147240, Note_on_c, 1, 62, 127
1, 147299, Note_off_c, 1, 62, 0
1, 147300, Note_on_c, 1, 74, 127
1, 147300, Note_on_c, 1, 46, 127
1, 147359, Note_off_c, 1, 74, 0
1, 147359, Note_off_c, 1, 46, 0
1, 147360, Note_on_c, 1, 74, 127
1, 147420, Note_on_c, 1, 52, 127
1, 147479, Note_off_c, 1, 74, 0
1, 147479, Note_off_c, 1, 52, 0
1, 147480, Note_on_c, 1, 73, 127
1, 147480, Note_on_c, 1, 64, 127
1, 147539, Note_off_c, 1, 73, 0
1, 147539, Note_off_c, 1, 64, 0
1, 147540, Note_on_c, 1, 76, 127
1, 147540, Note_on_c, 1, 45, 127
1, 147599, Note_off_c, 1, 76, 0
1, 147599, Note_off_c, 1, 45, 0
1, 147600, Note_on_c, 1, 76, 127
1, 147660, Note_on_c, 1, 62, 127
1, 147719, Note_off_c, 1, 76, 0
1, 147719, Note_off_c, 1, 62, 0
1, 147720, Note_on_c, 1, 74, 127
1, 147720, Note_on_c, 1, 50, 127
1, 147779, Note_off_c, 1, 74, 0
1, 147780, Note_on_c, 1, 62, 127
1, 147809, Note_off_c, 1, 50, 0
1, 147810, Note_on_c, 1, 52, 127
1, 147839, Note_off_c, 1, 52, 0
1, 147840, Note_on_c, 1, 53, 127
1, 147869, Note_off_c, 1, 53, 0
1, 147870, Note_on_c, 1, 55, 127
1, 147899, Note_off_c, 1, 55, 0
1, 147900, Note_on_c, 1, 57, 127
1, 147959, Note_off_c, 1, 62, 0
1, 147959, Note_off_c, 1, 57, 0
1, 147960, Note_on_c, 1, 61, 127
1, 147960, Note_on_c, 1, 57, 127
1, 148019, Note_off_c, 1, 61, 0
1, 148019, Note_off_c, 1, 57, 0
1, 148020, Note_on_c, 1, 69, 127
1, 148020, Note_on_c, 1, 57, 127
1, 148079, Note_off_c, 1, 57, 0
1, 148140, Note_on_c, 1, 58, 127
1, 148169, Note_off_c, 1, 58, 0
1, 148199, Note_off_c, 1, 69, 0
1, 148200, Note_on_c, 1, 67, 127
1, 148200, Note_on_c, 1, 58, 127
1, 148229, Note_off_c, 1, 58, 0
1, 148230, Note_on_c, 1, 60, 127
1, 148259, Note_off_c, 1, 67, 0
1, 148259, Note_off_c, 1, 60, 0
1, 148260, Note_on_c, 1, 67, 127
1, 148260, Note_on_c, 1, 62, 127
1, 148260, Note_on_c, 1, 58, 127
1, 148289, Note_off_c, 1, 58, 0
1, 148290, Note_on_c, 1, 57, 127
1, 148319, Note_off_c, 1, 67, 0
1, 148319, Note_off_c, 1, 62, 0
1, 148319, Note_off_c, 1, 57, 0
1, 148320, Note_on_c, 1, 55, 127
1, 148349, Note_off_c, 1, 55, 0
1, 148350, Note_on_c, 1, 58, 127
1, 148379, Note_off_c, 1, 58, 0
1, 148380, Note_on_c, 1, 69, 127
1, 148380, Note_on_c, 1, 64, 127
1, 148380, Note_on_c, 1, 57, 127
1, 148409, Note_off_c, 1, 57, 0
1, 148410, Note_on_c, 1, 55, 127
1, 148439, Note_off_c, 1, 69, 0
1, 148439, Note_off_c, 1, 64, 0
1, 148439, Note_off_c, 1, 55, 0
1, 148440, Note_on_c, 1, 57, 127
1, 148469, Note_off_c, 1, 57, 0
1, 148470, Note_on_c, 1, 58, 127
1, 148499, Note_off_c, 1, 58, 0
1, 148500, Note_on_c, 1, 79, 127
1, 148500, Note_on_c, 1, 57, 127
1, 148529, Note_off_c, 1, 57, 0
1, 148530, Note_on_c, 1, 55, 127
1, 148559, Note_off_c, 1, 79, 0
1, 148559, Note_off_c, 1, 55, 0
1, 148560, Note_on_c, 1, 53, 127
1, 148589, Note_off_c, 1, 53, 0
1, 148590, Note_on_c, 1, 57, 127
1, 148619, Note_off_c, 1, 57, 0
1, 148620, Note_on_c, 1, 79, 127
1, 148620, Note_on_c, 1, 55, 127
1, 148649, Note_off_c, 1, 55, 0
1, 148650, Note_on_c, 1, 53, 127
1, 148679, Note_off_c, 1, 79, 0
1, 148679, Note_off_c, 1, 53, 0
1, 148680, Note_on_c, 1, 55, 127
1, 148709, Note_off_c, 1, 55, 0
1, 148710, Note_on_c, 1, 57, 127
1, 148739, Note_off_c, 1, 57, 0
1, 148740, Note_on_c, 1, 76, 127
1, 148740, Note_on_c, 1, 55, 127
1, 148769, Note_off_c, 1, 55, 0
1, 148770, Note_on_c, 1, 53, 127
1, 148799, Note_off_c, 1, 76, 0
1, 148799, Note_off_c, 1, 53, 0
1, 148800, Note_on_c, 1, 52, 127
1, 148829, Note_off_c, 1, 52, 0
1, 148830, Note_on_c, 1, 55, 127
1, 148859, Note_off_c, 1, 55, 0
1, 148860, Note_on_c, 1, 76, 127
1, 148860, Note_on_c, 1, 53, 127
1, 148889, Note_off_c, 1, 53, 0
1, 148890, Note_on_c, 1, 52, 127
1, 148919, Note_off_c, 1, 76, 0
1, 148919, Note_off_c, 1, 52, 0
1, 148920, Note_on_c, 1, 53, 127
1, 148949, Note_off_c, 1, 53, 0
1, 148950, Note_on_c, 1, 55, 127
1, 148979, Note_off_c, 1, 55, 0
1, 148980, Note_on_c, 1, 74, 127
1, 148980, Note_on_c, 1, 53, 127
1, 149009, Note_off_c, 1, 53, 0
1, 149010, Note_on_c, 1, 52, 127
1, 149039, Note_off_c, 1, 74, 0
1, 149039, Note_off_c, 1, 52, 0
1, 149040, Note_on_c, 1, 50, 127
1, 149069, Note_off_c, 1, 50, 0
1, 149070, Note_on_c, 1, 53, 127
1, 149099, Note_off_c, 1, 53, 0
1, 149100, Note_on_c, 1, 74, 127
1, 149100, Note_on_c, 1, 52, 127
1, 149129, Note_off_c, 1, 52, 0
1, 149130, Note_on_c, 1, 50, 127
1, 149159, Note_off_c, 1, 74, 0
1, 149159, Note_off_c, 1, 50, 0
1, 149160, Note_on_c, 1, 52, 127
1, 149189, Note_off_c, 1, 52, 0
1, 149190, Note_on_c, 1, 53, 127
1, 149219, Note_off_c, 1, 53, 0
1, 149220, Note_on_c, 1, 73, 127
1, 149220, Note_on_c, 1, 52, 127
1, 149249, Note_off_c, 1, 52, 0
1, 149250, Note_on_c, 1, 50, 127
1, 149279, Note_off_c, 1, 73, 0
1, 149279, Note_off_c, 1, 50, 0
1, 149280, Note_on_c, 1, 74, 127
1, 149280, Note_on_c, 1, 49, 127
1, 149309, Note_off_c, 1, 49, 0
1, 149310, Note_on_c, 1, 52, 127
1, 149339, Note_off_c, 1, 52, 0
1, 149340, Note_on_c, 1, 50, 127
1, 149369, Note_off_c, 1, 74, 0
1, 149369, Note_off_c, 1, 50, 0
1, 149370, Note_on_c, 1, 73, 127
1, 149370, Note_on_c, 1, 49, 127
1, 149399, Note_off_c, 1, 73, 0
1, 149399, Note_off_c, 1, 49, 0
1, 149400, Note_on_c, 1, 74, 127
1, 149400, Note_on_c, 1, 50, 127
1, 149429, Note_off_c, 1, 50, 0
1, 149430, Note_on_c, 1, 52, 127
1, 149459, Note_off_c, 1, 74, 0
1, 149459, Note_off_c, 1, 52, 0
1, 149460, Note_on_c, 1, 77, 127
1, 149460, Note_on_c, 1, 50, 127
1, 149489, Note_off_c, 1, 50, 0
1, 149490, Note_on_c, 1, 48, 127
1, 149519, Note_off_c, 1, 77, 0
1, 149519, Note_off_c, 1, 48, 0
1, 149520, Note_on_c, 1, 46, 127
1, 149549, Note_off_c, 1, 46, 0
1, 149550, Note_on_c, 1, 50, 127
1, 149579, Note_off_c, 1, 50, 0
1, 149580, Note_on_c, 1, 75, 127
1, 149580, Note_on_c, 1, 48, 127
1, 149609, Note_off_c, 1, 48, 0
1, 149610, Note_on_c, 1, 46, 127
1, 149639, Note_off_c, 1, 75, 0
1, 149639, Note_off_c, 1, 46, 0
1, 149640, Note_on_c, 1, 48, 127
1, 149669, Note_off_c, 1, 48, 0
1, 149670, Note_on_c, 1, 50, 127
1, 149699, Note_off_c, 1, 50, 0
1, 149700, Note_on_c, 1, 75, 127
1, 149700, Note_on_c, 1, 48, 127
1, 149729, Note_off_c, 1, 48, 0
1, 149730, Note_on_c, 1, 46, 127
1, 149759, Note_off_c, 1, 75, 0
1, 149759, Note_off_c, 1, 46, 0
1, 149760, Note_on_c, 1, 45, 127
1, 149789, Note_off_c, 1, 45, 0
1, 149790, Note_on_c, 1, 48, 127
1, 149819, Note_off_c, 1, 48, 0
1, 149820, Note_on_c, 1, 74, 127
1, 149820, Note_on_c, 1, 46, 127
1, 149879, Note_off_c, 1, 74, 0
1, 149880, Note_off_c, 1, 46, 0
1, 149880, Note_on_c, 1, 58, 127
1, 149940, Note_on_c, 1, 70, 127
1, 149940, Note_on_c, 1, 65, 127
1, 149969, Note_off_c, 1, 58, 0
1, 149970, Note_on_c, 1, 56, 127
1, 149999, Note_off_c, 1, 70, 0
1, 149999, Note_off_c, 1, 65, 0
1, 149999, Note_off_c, 1, 56, 0
1, 150000, Note_on_c, 1, 55, 127
1, 150029, Note_off_c, 1, 55, 0
1, 150030, Note_on_c, 1, 53, 127
1, 150059, Note_off_c, 1, 53, 0
1, 150060, Note_on_c, 1, 58, 127
1, 150060, Note_on_c, 1, 67, 127
1, 150060, Note_on_c, 1, 51, 127
1, 150119, Note_off_c, 1, 58, 0
1, 150119, Note_off_c, 1, 67, 0
1, 150119, Note_off_c, 1, 51, 0
1, 150120, Note_on_c, 1, 51, 127
1, 150179, Note_off_c, 1, 51, 0
1, 150180, Note_on_c, 1, 65, 127
1, 150180, Note_on_c, 1, 69, 127
1, 150180, Note_on_c, 1, 51, 127
1, 150239, Note_off_c, 1, 65, 0
1, 150239, Note_off_c, 1, 69, 0
1, 150239, Note_off_c, 1, 51, 0
1, 150240, Note_on_c, 1, 51, 127
1, 150299, Note_off_c, 1, 51, 0
1, 150300, Note_on_c, 1, 65, 127
1, 150300, Note_on_c, 1, 70, 127
1, 150300, Note_on_c, 1, 50, 127
1, 150329, Note_off_c, 1, 50, 0
1, 150330, Note_on_c, 1, 51, 127
1, 150359, Note_off_c, 1, 65, 0
1, 150359, Note_off_c, 1, 70, 0
1, 150359, Note_off_c, 1, 51, 0
1, 150360, Note_on_c, 1, 50, 127
1, 150389, Note_off_c, 1, 50, 0
1, 150390, Note_on_c, 1, 48, 127
1, 150419, Note_off_c, 1, 48, 0
1, 150420, Note_on_c, 1, 70, 127
1, 150420, Note_on_c, 1, 50, 127
1, 150449, Note_off_c, 1, 50, 0
1, 150450, Note_on_c, 1, 51, 127
1, 150479, Note_off_c, 1, 70, 0
1, 150479, Note_off_c, 1, 51, 0
1, 150480, Note_on_c, 1, 62, 127
1, 150480, Note_on_c, 1, 53, 127
1, 150509, Note_off_c, 1, 53, 0
1, 150510, Note_on_c, 1, 50, 127
1, 150539, Note_off_c, 1, 50, 0
1, 150540, Note_on_c, 1, 51, 127
1, 150569, Note_off_c, 1, 51, 0
1, 150599, Note_off_c, 1, 62, 0
1, 150600, Note_on_c, 1, 60, 127
1, 150600, Note_on_c, 1, 51, 127
1, 150629, Note_off_c, 1, 60, 0
1, 150629, Note_off_c, 1, 51, 0
1, 150630, Note_on_c, 1, 58, 127
1, 150630, Note_on_c, 1, 50, 127
1, 150659, Note_off_c, 1, 58, 0
1, 150659, Note_off_c, 1, 50, 0
1, 150660, Note_on_c, 1, 60, 127
1, 150660, Note_on_c, 1, 51, 127
1, 150689, Note_off_c, 1, 51, 0
1, 150690, Note_on_c, 1, 53, 127
1, 150719, Note_off_c, 1, 60, 0
1, 150719, Note_off_c, 1, 53, 0
1, 150720, Note_on_c, 1, 63, 127
1, 150720, Note_on_c, 1, 70, 127
1, 150720, Note_on_c, 1, 55, 127
1, 150749, Note_off_c, 1, 55, 0
1, 150750, Note_on_c, 1, 51, 127
1, 150779, Note_off_c, 1, 70, 0
1, 150779, Note_off_c, 1, 51, 0
1, 150780, Note_on_c, 1, 69, 127
1, 150780, Note_on_c, 1, 53, 127
1, 150809, Note_off_c, 1, 53, 0
1, 150839, Note_off_c, 1, 63, 0
1, 150839, Note_off_c, 1, 69, 0
1, 150840, Note_on_c, 1, 62, 127
1, 150840, Note_on_c, 1, 53, 127
1, 150869, Note_off_c, 1, 62, 0
1, 150869, Note_off_c, 1, 53, 0
1, 150870, Note_on_c, 1, 60, 127
1, 150870, Note_on_c, 1, 51, 127
1, 150899, Note_off_c, 1, 60, 0
1, 150899, Note_off_c, 1, 51, 0
1, 150900, Note_on_c, 1, 62, 127
1, 150900, Note_on_c, 1, 53, 127
1, 150929, Note_off_c, 1, 53, 0
1, 150930, Note_on_c, 1, 55, 127
1, 150959, Note_off_c, 1, 62, 0
1, 150959, Note_off_c, 1, 55, 0
1, 150960, Note_on_c, 1, 72, 127
1, 150960, Note_on_c, 1, 65, 127
1, 150960, Note_on_c, 1, 57, 127
1, 150989, Note_off_c, 1, 57, 0
1, 150990, Note_on_c, 1, 53, 127
1, 151019, Note_off_c, 1, 72, 0
1, 151019, Note_off_c, 1, 53, 0
1, 151020, Note_on_c, 1, 70, 127
1, 151020, Note_on_c, 1, 55, 127
1, 151049, Note_off_c, 1, 55, 0
1, 151079, Note_off_c, 1, 65, 0
1, 151079, Note_off_c, 1, 70, 0
1, 151080, Note_on_c, 1, 63, 127
1, 151080, Note_on_c, 1, 55, 127
1, 151109, Note_off_c, 1, 63, 0
1, 151109, Note_off_c, 1, 55, 0
1, 151110, Note_on_c, 1, 62, 127
1, 151110, Note_on_c, 1, 53, 127
1, 151139, Note_off_c, 1, 62, 0
1, 151139, Note_off_c, 1, 53, 0
1, 151140, Note_on_c, 1, 63, 127
1, 151140, Note_on_c, 1, 55, 127
1, 151169, Note_off_c, 1, 55, 0
1, 151170, Note_on_c, 1, 57, 127
1, 151199, Note_off_c, 1, 63, 0
1, 151199, Note_off_c, 1, 57, 0
1, 151200, Note_on_c, 1, 67, 127
1, 151200, Note_on_c, 1, 75, 127
1, 151200, Note_on_c, 1, 58, 127
1, 151229, Note_off_c, 1, 58, 0
1, 151230, Note_on_c, 1, 55, 127
1, 151259, Note_off_c, 1, 75, 0
1, 151259, Note_off_c, 1, 55, 0
1, 151260, Note_on_c, 1, 72, 127
1, 151260, Note_on_c, 1, 57, 127
1, 151289, Note_off_c, 1, 57, 0
1, 151319, Note_off_c, 1, 67, 0
1, 151319, Note_off_c, 1, 72, 0
1, 151320, Note_on_c, 1, 65, 127
1, 151320, Note_on_c, 1, 57, 127
1, 151349, Note_off_c, 1, 65, 0
1, 151349, Note_off_c, 1, 57, 0
1, 151350, Note_on_c, 1, 63, 127
1, 151350, Note_on_c, 1, 55, 127
1, 151379, Note_off_c, 1, 63, 0
1, 151379, Note_off_c, 1, 55, 0
1, 151380, Note_on_c, 1, 65, 127
1, 151380, Note_on_c, 1, 57, 127
1, 151409, Note_off_c, 1, 57, 0
1, 151410, Note_on_c, 1, 58, 127
1, 151439, Note_off_c, 1, 65, 0
1, 151439, Note_off_c, 1, 58, 0
1, 151440, Note_on_c, 1, 75, 127
1, 151440, Note_on_c, 1, 60, 127
1, 151469, Note_off_c, 1, 60, 0
1, 151470, Note_on_c, 1, 57, 127
1, 151499, Note_off_c, 1, 75, 0
1, 151499, Note_off_c, 1, 57, 0
1, 151500, Note_on_c, 1, 74, 127
1, 151500, Note_on_c, 1, 58, 127
1, 151559, Note_off_c, 1, 74, 0
1, 151559, Note_off_c, 1, 58, 0
1, 151560, Note_on_c, 1, 53, 127
1, 151619, Note_off_c, 1, 53, 0
1, 151620, Note_on_c, 1, 55, 127
1, 151679, Note_off_c, 1, 55, 0
1, 151680, Note_on_c, 1, 51, 127
1, 151739, Note_off_c, 1, 51, 0
1, 151740, Note_on_c, 1, 53, 127
1, 151859, Note_off_c, 1, 53, 0
1, 151860, Note_on_c, 1, 69, 127
1, 151860, Note_on_c, 1, 65, 127
1, 151860, Note_on_c, 1, 41, 127
1, 151979, Note_off_c, 1, 69, 0
1, 151979, Note_off_c, 1, 65, 0
1, 151979, Note_off_c, 1, 41, 0
1, 151980, Note_on_c, 1, 70, 127
1, 151980, Note_on_c, 1, 62, 127
1, 151980, Note_on_c, 1, 46, 127
1, 152099, Note_off_c, 1, 70, 0
1, 152099, Note_off_c, 1, 62, 0
1, 152099, Note_off_c, 1, 46, 0
1, 152220, Note_on_c, 1, 74, 127
1, 152220, Note_on_c, 1, 38, 127
1, 152220, Note_on_c, 1, 65, 127
1, 152220, Note_on_c, 1, 62, 127
1, 152279, Note_off_c, 1, 74, 0
1, 152279, Note_off_c, 1, 38, 0
1, 152279, Note_off_c, 1, 65, 0
1, 152279, Note_off_c, 1, 62, 0
1, 152280, Note_on_c, 1, 62, 127
1, 152340, Note_on_c, 1, 50, 127
1, 152340, Note_on_c, 1, 69, 127
1, 152340, Note_on_c, 1, 65, 127
1, 152369, Note_off_c, 1, 62, 0
1, 152370, Note_on_c, 1, 64, 127
1, 152399, Note_off_c, 1, 50, 0
1, 152399, Note_off_c, 1, 69, 0
1, 152399, Note_off_c, 1, 65, 0
1, 152399, Note_off_c, 1, 64, 0
1, 152400, Note_on_c, 1, 65, 127
1, 152429, Note_off_c, 1, 65, 0
1, 152430, Note_on_c, 1, 67, 127
1, 152459, Note_off_c, 1, 67, 0
1, 152460, Note_on_c, 1, 69, 127
1, 152460, Note_on_c, 1, 49, 127
1, 152460, Note_on_c, 1, 64, 127
1, 152460, Note_on_c, 1, 67, 127
1, 152519, Note_off_c, 1, 69, 0
1, 152519, Note_off_c, 1, 49, 0
1, 152519, Note_off_c, 1, 64, 0
1, 152519, Note_off_c, 1, 67, 0
1, 152520, Note_on_c, 1, 69, 127
1, 152579, Note_off_c, 1, 69, 0
1, 152580, Note_on_c, 1, 69, 127
1, 152580, Note_on_c, 1, 50, 127
1, 152580, Note_on_c, 1, 65, 127
1, 152580, Note_on_c, 1, 62, 127
1, 152639, Note_off_c, 1, 69, 0
1, 152639, Note_off_c, 1, 50, 0
1, 152639, Note_off_c, 1, 65, 0
1, 152639, Note_off_c, 1, 62, 0
1, 152640, Note_on_c, 1, 69, 127
1, 152699, Note_off_c, 1, 69, 0
1, 152700, Note_on_c, 1, 70, 127
1, 152700, Note_on_c, 1, 43, 127
1, 152700, Note_on_c, 1, 65, 127
1, 152700, Note_on_c, 1, 62, 127
1, 152729, Note_off_c, 1, 70, 0
1, 152730, Note_on_c, 1, 69, 127
1, 152759, Note_off_c, 1, 43, 0
1, 152759, Note_off_c, 1, 65, 0
1, 152759, Note_off_c, 1, 62, 0
1, 152759, Note_off_c, 1, 69, 0
1, 152760, Note_on_c, 1, 70, 127
1, 152789, Note_off_c, 1, 70, 0
1, 152790, Note_on_c, 1, 72, 127
1, 152819, Note_off_c, 1, 72, 0
1, 152820, Note_on_c, 1, 70, 127
1, 152820, Note_on_c, 1, 48, 127
1, 152820, Note_on_c, 1, 67, 127
1, 152850, Note_on_c, 1, 69, 127
1, 152879, Note_off_c, 1, 70, 0
1, 152879, Note_off_c, 1, 48, 0
1, 152879, Note_off_c, 1, 67, 0
1, 152879, Note_off_c, 1, 69, 0
1, 152880, Note_on_c, 1, 67, 127
1, 152909, Note_off_c, 1, 67, 0
1, 152910, Note_on_c, 1, 70, 127
1, 152939, Note_off_c, 1, 70, 0
1, 152940, Note_on_c, 1, 69, 127
1, 152940, Note_on_c, 1, 41, 127
1, 152940, Note_on_c, 1, 64, 127
1, 152940, Note_on_c, 1, 65, 127
1, 152970, Note_on_c, 1, 67, 127
1, 152999, Note_off_c, 1, 69, 0
1, 152999, Note_off_c, 1, 41, 0
1, 152999, Note_off_c, 1, 64, 0
1, 152999, Note_off_c, 1, 65, 0
1, 152999, Note_off_c, 1, 67, 0
1, 153000, Note_on_c, 1, 69, 127
1, 153029, Note_off_c, 1, 69, 0
1, 153030, Note_on_c, 1, 70, 127
1, 153059, Note_off_c, 1, 70, 0
1, 153060, Note_on_c, 1, 69, 127
1, 153060, Note_on_c, 1, 46, 127
1, 153060, Note_on_c, 1, 70, 127
1, 153060, Note_on_c, 1, 65, 127
1, 153089, Note_off_c, 1, 69, 0
1, 153090, Note_on_c, 1, 67, 127
1, 153119, Note_off_c, 1, 46, 0
1, 153119, Note_off_c, 1, 70, 0
1, 153119, Note_off_c, 1, 65, 0
1, 153119, Note_off_c, 1, 67, 0
1, 153120, Note_on_c, 1, 65, 127
1, 153149, Note_off_c, 1, 65, 0
1, 153150, Note_on_c, 1, 69, 127
1, 153179, Note_off_c, 1, 69, 0
1, 153180, Note_on_c, 1, 67, 127
1, 153180, Note_on_c, 1, 40, 127
1, 153180, Note_on_c, 1, 62, 127
1, 153210, Note_on_c, 1, 65, 127
1, 153239, Note_off_c, 1, 67, 0
1, 153239, Note_off_c, 1, 40, 0
1, 153239, Note_off_c, 1, 62, 0
1, 153239, Note_off_c, 1, 65, 0
1, 153240, Note_on_c, 1, 67, 127
1, 153269, Note_off_c, 1, 67, 0
1, 153270, Note_on_c, 1, 69, 127
1, 153299, Note_off_c, 1, 69, 0
1, 153300, Note_on_c, 1, 67, 127
1, 153300, Note_on_c, 1, 45, 127
1, 153300, Note_on_c, 1, 61, 127
1, 153330, Note_on_c, 1, 65, 127
1, 153359, Note_off_c, 1, 67, 0
1, 153359, Note_off_c, 1, 45, 0
1, 153359, Note_off_c, 1, 61, 0
1, 153359, Note_off_c, 1, 65, 0
1, 153360, Note_on_c, 1, 64, 127
1, 153389, Note_off_c, 1, 64, 0
1, 153390, Note_on_c, 1, 67, 127
1, 153419, Note_off_c, 1, 67, 0
1, 153420, Note_on_c, 1, 65, 127
1, 153420, Note_on_c, 1, 38, 127
1, 153420, Note_on_c, 1, 62, 127
1, 153450, Note_on_c, 1, 64, 127
1, 153479, Note_off_c, 1, 65, 0
1, 153479, Note_off_c, 1, 38, 0
1, 153479, Note_off_c, 1, 62, 0
1, 153479, Note_off_c, 1, 64, 0
1, 153480, Note_on_c, 1, 62, 127
1, 153480, Note_on_c, 1, 50, 127
1, 153480, Note_on_c, 1, 65, 127
1, 153509, Note_off_c, 1, 62, 0
1, 153510, Note_on_c, 1, 64, 127
1, 153539, Note_off_c, 1, 50, 0
1, 153539, Note_off_c, 1, 65, 0
1, 153539, Note_off_c, 1, 64, 0
1, 153540, Note_on_c, 1, 66, 127
1, 153540, Note_on_c, 1, 48, 127
1, 153540, Note_on_c, 1, 64, 127
1, 153569, Note_off_c, 1, 66, 0
1, 153570, Note_on_c, 1, 68, 127
1, 153599, Note_off_c, 1, 48, 0
1, 153599, Note_off_c, 1, 64, 0
1, 153599, Note_off_c, 1, 68, 0
1, 153600, Note_on_c, 1, 69, 127
1, 153600, Note_on_c, 1, 47, 127
1, 153600, Note_on_c, 1, 62, 127
1, 153600, Note_on_c, 1, 71, 127
1, 153600, Note_on_c, 1, 68, 127
1, 153629, Note_off_c, 1, 69, 0
1, 153659, Note_off_c, 1, 47, 0
1, 153659, Note_off_c, 1, 62, 0
1, 153659, Note_off_c, 1, 71, 0
1, 153659, Note_off_c, 1, 68, 0
1, 153660, Note_on_c, 1, 81, 127
1, 153660, Note_on_c, 1, 72, 127
1, 153660, Note_on_c, 1, 45, 127
1, 153660, Note_on_c, 1, 69, 127
1, 153660, Note_on_c, 1, 64, 127
1, 153660, Note_on_c, 1, 60, 127
1, 153689, Note_off_c, 1, 72, 0
1, 153690, Note_on_c, 1, 71, 127
1, 153719, Note_off_c, 1, 81, 0
1, 153719, Note_off_c, 1, 45, 0
1, 153719, Note_off_c, 1, 69, 0
1, 153719, Note_off_c, 1, 64, 0
1, 153719, Note_off_c, 1, 60, 0
1, 153719, Note_off_c, 1, 71, 0
1, 153720, Note_on_c, 1, 69, 127
1, 153750, Note_on_c, 1, 71, 127
1, 153779, Note_off_c, 1, 71, 0
1, 153780, Note_on_c, 1, 72, 127
1, 153780, Note_on_c, 1, 57, 127
1, 153810, Note_on_c, 1, 74, 127
1, 153839, Note_off_c, 1, 69, 0
1, 153839, Note_off_c, 1, 72, 0
1, 153839, Note_off_c, 1, 57, 0
1, 153839, Note_off_c, 1, 74, 0
1, 153840, Note_on_c, 1, 72, 127
1, 153840, Note_on_c, 1, 76, 127
1, 153869, Note_off_c, 1, 72, 0
1, 153869, Note_off_c, 1, 76, 0
1, 153870, Note_on_c, 1, 74, 127
1, 153870, Note_on_c, 1, 77, 127
1, 153899, Note_off_c, 1, 74, 0
1, 153899, Note_off_c, 1, 77, 0
1, 153900, Note_on_c, 1, 76, 127
1, 153900, Note_on_c, 1, 71, 127
1, 153900, Note_on_c, 1, 56, 127
1, 153900, Note_on_c, 1, 68, 127
1, 153930, Note_on_c, 1, 72, 127
1, 153959, Note_off_c, 1, 76, 0
1, 153959, Note_off_c, 1, 71, 0
1, 153959, Note_off_c, 1, 56, 0
1, 153959, Note_off_c, 1, 68, 0
1, 153959, Note_off_c, 1, 72, 0
1, 153960, Note_on_c, 1, 76, 127
1, 153960, Note_on_c, 1, 74, 127
1, 153989, Note_off_c, 1, 74, 0
1, 153990, Note_on_c, 1, 71, 127
1, 154019, Note_off_c, 1, 76, 0
1, 154019, Note_off_c, 1, 71, 0
1, 154020, Note_on_c, 1, 76, 127
1, 154020, Note_on_c, 1, 72, 127
1, 154020, Note_on_c, 1, 57, 127
1, 154020, Note_on_c, 1, 69, 127
1, 154020, Note_on_c, 1, 64, 127
1, 154079, Note_off_c, 1, 76, 0
1, 154079, Note_off_c, 1, 72, 0
1, 154079, Note_off_c, 1, 57, 0
1, 154079, Note_off_c, 1, 69, 0
1, 154079, Note_off_c, 1, 64, 0
1, 154080, Note_on_c, 1, 76, 127
1, 154080, Note_on_c, 1, 72, 127
1, 154139, Note_off_c, 1, 76, 0
1, 154140, Note_on_c, 1, 77, 127
1, 154140, Note_on_c, 1, 50, 127
1, 154140, Note_on_c, 1, 69, 127
1, 154140, Note_on_c, 1, 65, 127
1, 154169, Note_off_c, 1, 77, 0
1, 154199, Note_off_c, 1, 72, 0
1, 154199, Note_off_c, 1, 50, 0
1, 154199, Note_off_c, 1, 69, 0
1, 154199, Note_off_c, 1, 65, 0
1, 154200, Note_on_c, 1, 77, 127
1, 154200, Note_on_c, 1, 71, 127
1, 154229, Note_off_c, 1, 77, 0
1, 154229, Note_off_c, 1, 71, 0
1, 154230, Note_on_c, 1, 79, 127
1, 154230, Note_on_c, 1, 69, 127
1, 154259, Note_off_c, 1, 79, 0
1, 154259, Note_off_c, 1, 69, 0
1, 154260, Note_on_c, 1, 77, 127
1, 154260, Note_on_c, 1, 71, 127
1, 154260, Note_on_c, 1, 55, 127
1, 154260, Note_on_c, 1, 65, 127
1, 154260, Note_on_c, 1, 67, 127
1, 154289, Note_off_c, 1, 77, 0
1, 154290, Note_on_c, 1, 76, 127
1, 154319, Note_off_c, 1, 71, 0
1, 154319, Note_off_c, 1, 55, 0
1, 154319, Note_off_c, 1, 65, 0
1, 154319, Note_off_c, 1, 67, 0
1, 154319, Note_off_c, 1, 76, 0
1, 154320, Note_on_c, 1, 74, 127
1, 154320, Note_on_c, 1, 71, 127
1, 154349, Note_off_c, 1, 74, 0
1, 154350, Note_on_c, 1, 77, 127
1, 154379, Note_off_c, 1, 77, 0
1, 154380, Note_on_c, 1, 76, 127
1, 154380, Note_on_c, 1, 48, 127
1, 154380, Note_on_c, 1, 64, 127
1, 154380, Note_on_c, 1, 67, 127
1, 154409, Note_off_c, 1, 76, 0
1, 154439, Note_off_c, 1, 71, 0
1, 154439, Note_off_c, 1, 48, 0
1, 154439, Note_off_c, 1, 64, 0
1, 154439, Note_off_c, 1, 67, 0
1, 154440, Note_on_c, 1, 76, 127
1, 154440, Note_on_c, 1, 69, 127
1, 154469, Note_off_c, 1, 76, 0
1, 154469, Note_off_c, 1, 69, 0
1, 154470, Note_on_c, 1, 77, 127
1, 154470, Note_on_c, 1, 68, 127
1, 154499, Note_off_c, 1, 77, 0
1, 154499, Note_off_c, 1, 68, 0
1, 154500, Note_on_c, 1, 76, 127
1, 154500, Note_on_c, 1, 69, 127
1, 154500, Note_on_c, 1, 53, 127
1, 154500, Note_on_c, 1, 64, 127
1, 154500, Note_on_c, 1, 72, 127
1, 154529, Note_off_c, 1, 76, 0
1, 154530, Note_on_c, 1, 74, 127
1, 154559, Note_off_c, 1, 69, 0
1, 154559, Note_off_c, 1, 53, 0
1, 154559, Note_off_c, 1, 64, 0
1, 154559, Note_off_c, 1, 72, 0
1, 154559, Note_off_c, 1, 74, 0
1, 154560, Note_on_c, 1, 72, 127
1, 154560, Note_on_c, 1, 69, 127
1, 154589, Note_off_c, 1, 72, 0
1, 154590, Note_on_c, 1, 76, 127
1, 154619, Note_off_c, 1, 76, 0
1, 154620, Note_on_c, 1, 74, 127
1, 154620, Note_on_c, 1, 47, 127
1, 154620, Note_on_c, 1, 71, 127
1, 154620, Note_on_c, 1, 65, 127
1, 154649, Note_off_c, 1, 74, 0
1, 154679, Note_off_c, 1, 69, 0
1, 154679, Note_off_c, 1, 47, 0
1, 154679, Note_off_c, 1, 71, 0
1, 154679, Note_off_c, 1, 65, 0
1, 154680, Note_on_c, 1, 74, 127
1, 154680, Note_on_c, 1, 68, 127
1, 154709, Note_off_c, 1, 74, 0
1, 154709, Note_off_c, 1, 68, 0
1, 154710, Note_on_c, 1, 76, 127
1, 154710, Note_on_c, 1, 66, 127
1, 154739, Note_off_c, 1, 76, 0
1, 154739, Note_off_c, 1, 66, 0
1, 154740, Note_on_c, 1, 74, 127
1, 154740, Note_on_c, 1, 68, 127
1, 154740, Note_on_c, 1, 52, 127
1, 154740, Note_on_c, 1, 71, 127
1, 154740, Note_on_c, 1, 62, 127
1, 154760, Note_on_c, 1, 69, 127
1, 154769, Note_off_c, 1, 74, 0
1, 154770, Note_on_c, 1, 72, 127
1, 154779, Note_off_c, 1, 69, 0
1, 154799, Note_off_c, 1, 68, 0
1, 154799, Note_off_c, 1, 52, 0
1, 154799, Note_off_c, 1, 71, 0
1, 154799, Note_off_c, 1, 62, 0
1, 154799, Note_off_c, 1, 72, 0
1, 154800, Note_on_c, 1, 71, 127
1, 154800, Note_on_c, 1, 69, 127
1, 154814, Note_off_c, 1, 69, 0
1, 154815, Note_on_c, 1, 68, 127
1, 154829, Note_off_c, 1, 71, 0
1, 154829, Note_off_c, 1, 68, 0
1, 154830, Note_on_c, 1, 74, 127
1, 154830, Note_on_c, 1, 69, 127
1, 154859, Note_off_c, 1, 74, 0
1, 154860, Note_on_c, 1, 72, 127
1, 154860, Note_on_c, 1, 45, 127
1, 154860, Note_on_c, 1, 60, 127
1, 154889, Note_off_c, 1, 72, 0
1, 154890, Note_on_c, 1, 71, 127
1, 154919, Note_off_c, 1, 45, 0
1, 154919, Note_off_c, 1, 60, 0
1, 154919, Note_off_c, 1, 71, 0
1, 154920, Note_on_c, 1, 57, 127
1, 154920, Note_on_c, 1, 64, 127
1, 154979, Note_off_c, 1, 69, 0
1, 154979, Note_off_c, 1, 57, 0
1, 154979, Note_off_c, 1, 64, 0
1, 154980, Note_on_c, 1, 73, 127
1, 154980, Note_on_c, 1, 55, 127
1, 154980, Note_on_c, 1, 61, 127
1, 154980, Note_on_c, 1, 69, 127
1, 155009, Note_off_c, 1, 73, 0
1, 155010, Note_on_c, 1, 74, 127
1, 155039, Note_off_c, 1, 55, 0
1, 155039, Note_off_c, 1, 61, 0
1, 155039, Note_off_c, 1, 69, 0
1, 155039, Note_off_c, 1, 74, 0
1, 155040, Note_on_c, 1, 76, 127
1, 155040, Note_on_c, 1, 69, 127
1, 155040, Note_on_c, 1, 53, 127
1, 155040, Note_on_c, 1, 62, 127
1, 155069, Note_off_c, 1, 76, 0
1, 155070, Note_on_c, 1, 77, 127
1, 155099, Note_off_c, 1, 69, 0
1, 155099, Note_off_c, 1, 53, 0
1, 155099, Note_off_c, 1, 62, 0
1, 155099, Note_off_c, 1, 77, 0
1, 155100, Note_on_c, 1, 79, 127
1, 155100, Note_on_c, 1, 70, 127
1, 155100, Note_on_c, 1, 52, 127
1, 155100, Note_on_c, 1, 62, 127
1, 155100, Note_on_c, 1, 67, 127
1, 155129, Note_off_c, 1, 79, 0
1, 155130, Note_on_c, 1, 77, 127
1, 155159, Note_off_c, 1, 70, 0
1, 155159, Note_off_c, 1, 52, 0
1, 155159, Note_off_c, 1, 62, 0
1, 155159, Note_off_c, 1, 67, 0
1, 155159, Note_off_c, 1, 77, 0
1, 155160, Note_on_c, 1, 79, 127
1, 155160, Note_on_c, 1, 67, 127
1, 155189, Note_off_c, 1, 79, 0
1, 155190, Note_on_c, 1, 81, 127
1, 155219, Note_off_c, 1, 67, 0
1, 155219, Note_off_c, 1, 81, 0
1, 155220, Note_on_c, 1, 79, 127
1, 155220, Note_on_c, 1, 64, 127
1, 155220, Note_on_c, 1, 57, 127
1, 155220, Note_on_c, 1, 61, 127
1, 155220, Note_on_c, 1, 69, 127
1, 155220, Note_on_c, 1, 67, 127
1, 155249, Note_off_c, 1, 79, 0
1, 155250, Note_on_c, 1, 77, 127
1, 155279, Note_off_c, 1, 64, 0
1, 155279, Note_off_c, 1, 57, 0
1, 155279, Note_off_c, 1, 61, 0
1, 155279, Note_off_c, 1, 69, 0
1, 155279, Note_off_c, 1, 67, 0
1, 155279, Note_off_c, 1, 77, 0
1, 155280, Note_on_c, 1, 76, 127
1, 155280, Note_on_c, 1, 73, 127
1, 155309, Note_off_c, 1, 76, 0
1, 155310, Note_on_c, 1, 79, 127
1, 155339, Note_off_c, 1, 73, 0
1, 155339, Note_off_c, 1, 79, 0
1, 155340, Note_on_c, 1, 77, 127
1, 155340, Note_on_c, 1, 74, 127
1, 155340, Note_on_c, 1, 50, 127
1, 155340, Note_on_c, 1, 69, 127
1, 155340, Note_on_c, 1, 65, 127
1, 155340, Note_on_c, 1, 62, 127
1, 155399, Note_off_c, 1, 77, 0
1, 155399, Note_off_c, 1, 74, 0
1, 155399, Note_off_c, 1, 50, 0
1, 155399, Note_off_c, 1, 69, 0
1, 155399, Note_off_c, 1, 65, 0
1, 155399, Note_off_c, 1, 62, 0
1, 155400, Note_on_c, 1, 74, 127
1, 155400, Note_on_c, 1, 62, 127
1, 155400, Note_on_c, 1, 65, 127
1, 155430, Note_on_c, 1, 64, 127
1, 155459, Note_off_c, 1, 74, 0
1, 155459, Note_off_c, 1, 62, 0
1, 155459, Note_off_c, 1, 65, 0
1, 155459, Note_off_c, 1, 64, 0
1, 155460, Note_on_c, 1, 66, 127
1, 155460, Note_on_c, 1, 60, 127
1, 155460, Note_on_c, 1, 62, 127
1, 155490, Note_on_c, 1, 67, 127
1, 155519, Note_off_c, 1, 66, 0
1, 155519, Note_off_c, 1, 60, 0
1, 155519, Note_off_c, 1, 62, 0
1, 155519, Note_off_c, 1, 67, 0
1, 155520, Note_on_c, 1, 74, 127
1, 155520, Note_on_c, 1, 69, 127
1, 155520, Note_on_c, 1, 58, 127
1, 155520, Note_on_c, 1, 67, 127
1, 155549, Note_off_c, 1, 69, 0
1, 155550, Note_on_c, 1, 70, 127
1, 155579, Note_off_c, 1, 74, 0
1, 155579, Note_off_c, 1, 58, 0
1, 155579, Note_off_c, 1, 67, 0
1, 155579, Note_off_c, 1, 70, 0
1, 155580, Note_on_c, 1, 75, 127
1, 155580, Note_on_c, 1, 72, 127
1, 155580, Note_on_c, 1, 57, 127
1, 155580, Note_on_c, 1, 67, 127
1, 155580, Note_on_c, 1, 63, 127
1, 155609, Note_off_c, 1, 72, 0
1, 155610, Note_on_c, 1, 70, 127
1, 155639, Note_off_c, 1, 75, 0
1, 155639, Note_off_c, 1, 57, 0
1, 155639, Note_off_c, 1, 67, 0
1, 155639, Note_off_c, 1, 63, 0
1, 155639, Note_off_c, 1, 70, 0
1, 155640, Note_on_c, 1, 72, 127
1, 155670, Note_on_c, 1, 74, 127
1, 155699, Note_off_c, 1, 72, 0
1, 155699, Note_off_c, 1, 74, 0
1, 155700, Note_on_c, 1, 69, 127
1, 155700, Note_on_c, 1, 72, 127
1, 155700, Note_on_c, 1, 50, 127
1, 155700, Note_on_c, 1, 66, 127
1, 155700, Note_on_c, 1, 60, 127
1, 155729, Note_off_c, 1, 72, 0
1, 155730, Note_on_c, 1, 70, 127
1, 155759, Note_off_c, 1, 69, 0
1, 155759, Note_off_c, 1, 50, 0
1, 155759, Note_off_c, 1, 66, 0
1, 155759, Note_off_c, 1, 60, 0
1, 155759, Note_off_c, 1, 70, 0
1, 155760, Note_on_c, 1, 78, 127
1, 155760, Note_on_c, 1, 69, 127
1, 155789, Note_off_c, 1, 69, 0
1, 155790, Note_on_c, 1, 72, 127
1, 155819, Note_off_c, 1, 78, 0
1, 155819, Note_off_c, 1, 72, 0
1, 155820, Note_on_c, 1, 79, 127
1, 155820, Note_on_c, 1, 70, 127
1, 155820, Note_on_c, 1, 43, 127
1, 155820, Note_on_c, 1, 67, 127
1, 155820, Note_on_c, 1, 62, 127
1, 155849, Note_off_c, 1, 70, 0
1, 155850, Note_on_c, 1, 69, 127
1, 155879, Note_off_c, 1, 79, 0
1, 155879, Note_off_c, 1, 43, 0
1, 155879, Note_off_c, 1, 67, 0
1, 155879, Note_off_c, 1, 62, 0
1, 155879, Note_off_c, 1, 69, 0
1, 155880, Note_on_c, 1, 67, 127
1, 155880, Note_on_c, 1, 71, 127
1, 155880, Note_on_c, 1, 55, 127
1, 155910, Note_on_c, 1, 69, 127
1, 155910, Note_on_c, 1, 73, 127
1, 155939, Note_off_c, 1, 67, 0
1, 155939, Note_off_c, 1, 71, 0
1, 155939, Note_off_c, 1, 55, 0
1, 155939, Note_off_c, 1, 69, 0
1, 155939, Note_off_c, 1, 73, 0
1, 155940, Note_on_c, 1, 71, 127
1, 155940, Note_on_c, 1, 74, 127
1, 155940, Note_on_c, 1, 53, 127
1, 155940, Note_on_c, 1, 67, 127
1, 155969, Note_off_c, 1, 74, 0
1, 155970, Note_on_c, 1, 73, 127
1, 155970, Note_on_c, 1, 76, 127
1, 155999, Note_off_c, 1, 71, 0
1, 155999, Note_off_c, 1, 53, 0
1, 155999, Note_off_c, 1, 67, 0
1, 155999, Note_off_c, 1, 73, 0
1, 155999, Note_off_c, 1, 76, 0
1, 156000, Note_on_c, 1, 74, 127
1, 156000, Note_on_c, 1, 77, 127
1, 156000, Note_on_c, 1, 52, 127
1, 156000, Note_on_c, 1, 73, 127
1, 156000, Note_on_c, 1, 67, 127
1, 156029, Note_off_c, 1, 74, 0
1, 156029, Note_off_c, 1, 77, 0
1, 156030, Note_on_c, 1, 76, 127
1, 156030, Note_on_c, 1, 79, 127
1, 156059, Note_off_c, 1, 52, 0
1, 156059, Note_off_c, 1, 73, 0
1, 156059, Note_off_c, 1, 67, 0
1, 156059, Note_off_c, 1, 76, 0
1, 156059, Note_off_c, 1, 79, 0
1, 156060, Note_on_c, 1, 77, 127
1, 156060, Note_on_c, 1, 81, 127
1, 156060, Note_on_c, 1, 50, 127
1, 156060, Note_on_c, 1, 74, 127
1, 156060, Note_on_c, 1, 69, 127
1, 156060, Note_on_c, 1, 65, 127
1, 156089, Note_off_c, 1, 77, 0
1, 156089, Note_off_c, 1, 81, 0
1, 156090, Note_on_c, 1, 79, 127
1, 156090, Note_on_c, 1, 82, 127
1, 156119, Note_off_c, 1, 50, 0
1, 156119, Note_off_c, 1, 79, 0
1, 156119, Note_off_c, 1, 82, 0
1, 156120, Note_on_c, 1, 76, 127
1, 156120, Note_on_c, 1, 38, 127
1, 156149, Note_off_c, 1, 76, 0
1, 156180, Note_off_c, 1, 74, 0
1, 156209, Note_off_c, 1, 38, 0
1, 156210, Note_on_c, 1, 40, 127
1, 156239, Note_off_c, 1, 40, 0
1, 156240, Note_on_c, 1, 41, 127
1, 156269, Note_off_c, 1, 41, 0
1, 156270, Note_on_c, 1, 43, 127
1, 156299, Note_off_c, 1, 43, 0
1, 156300, Note_off_c, 1, 65, 0
1, 156300, Note_on_c, 1, 73, 127
1, 156300, Note_on_c, 1, 45, 127
1, 156300, Note_on_c, 1, 64, 127
1, 156359, Note_off_c, 1, 45, 0
1, 156390, Note_on_c, 1, 71, 127
1, 156419, Note_off_c, 1, 71, 0
1, 156540, Note_off_c, 1, 73, 0
1, 156540, Note_off_c, 1, 64, 0
1, 156540, Note_on_c, 1, 46, 127
1, 156540, Note_on_c, 1, 70, 127
1, 156569, Note_off_c, 1, 46, 0
1, 156630, Note_on_c, 1, 48, 127
1, 156659, Note_off_c, 1, 48, 0
1, 156660, Note_off_c, 1, 69, 0
1, 156780, Note_off_c, 1, 70, 0
1, 156780, Note_on_c, 1, 72, 127
1, 156839, Note_off_c, 1, 72, 0
1, 157020, Note_on_c, 1, 67, 127
1, 157260, Note_off_c, 1, 67, 0
1, 157410, Note_on_c, 1, 47, 127
1, 157439, Note_off_c, 1, 47, 0
1, 157440, Note_on_c, 1, 49, 127
1, 157469, Note_off_c, 1, 49, 0
1, 157500, Note_on_c, 1, 52, 127
1, 157529, Note_off_c, 1, 52, 0
1, 157590, Note_on_c, 1, 53, 127
1, 157619, Note_off_c, 1, 53, 0
1, 157620, Note_on_c, 1, 55, 127
1, 157649, Note_off_c, 1, 55, 0
1, 157650, Note_on_c, 1, 57, 127
1, 157679, Note_off_c, 1, 57, 0
1, 157680, Note_on_c, 1, 59, 127
1, 157709, Note_off_c, 1, 59, 0
1, 157710, Note_on_c, 1, 61, 127
1, 157739, Note_off_c, 1, 61, 0
1, 157740, Note_on_c, 1, 62, 127
1, 157799, Note_off_c, 1, 62, 0
1, 158040, Note_on_c, 1, 62, 127
1, 158100, Note_on_c, 1, 77, 127
1, 158100, Note_on_c, 1, 69, 127
1, 158100, Note_on_c, 1, 50, 127
1, 158129, Note_off_c, 1, 62, 0
1, 158130, Note_on_c, 1, 64, 127
1, 158159, Note_off_c, 1, 77, 0
1, 158159, Note_off_c, 1, 69, 0
1, 158159, Note_off_c, 1, 50, 0
1, 158159, Note_off_c, 1, 64, 0
1, 158160, Note_on_c, 1, 65, 127
1, 158189, Note_off_c, 1, 65, 0
1, 158190, Note_on_c, 1, 67, 127
1, 158219, Note_off_c, 1, 67, 0
1, 158220, Note_on_c, 1, 76, 127
1, 158220, Note_on_c, 1, 67, 127
1, 158220, Note_on_c, 1, 69, 127
1, 158220, Note_on_c, 1, 49, 127
1, 158279, Note_off_c, 1, 76, 0
1, 158279, Note_off_c, 1, 67, 0
1, 158279, Note_off_c, 1, 69, 0
1, 158279, Note_off_c, 1, 49, 0
1, 158280, Note_on_c, 1, 69, 127
1, 158339, Note_off_c, 1, 69, 0
1, 158340, Note_on_c, 1, 74, 127
1, 158340, Note_on_c, 1, 65, 127
1, 158340, Note_on_c, 1, 69, 127
1, 158340, Note_on_c, 1, 50, 127
1, 158399, Note_off_c, 1, 74, 0
1, 158399, Note_off_c, 1, 65, 0
1, 158399, Note_off_c, 1, 69, 0
1, 158399, Note_off_c, 1, 50, 0
1, 158400, Note_on_c, 1, 69, 127
1, 158459, Note_off_c, 1, 69, 0
1, 158460, Note_on_c, 1, 74, 127
1, 158460, Note_on_c, 1, 65, 127
1, 158460, Note_on_c, 1, 70, 127
1, 158460, Note_on_c, 1, 43, 127
1, 158489, Note_off_c, 1, 70, 0
1, 158490, Note_on_c, 1, 69, 127
1, 158519, Note_off_c, 1, 74, 0
1, 158519, Note_off_c, 1, 65, 0
1, 158519, Note_off_c, 1, 43, 0
1, 158519, Note_off_c, 1, 69, 0
1, 158520, Note_on_c, 1, 70, 127
1, 158549, Note_off_c, 1, 70, 0
1, 158550, Note_on_c, 1, 72, 127
1, 158579, Note_off_c, 1, 72, 0
1, 158580, Note_on_c, 1, 72, 127
1, 158580, Note_on_c, 1, 64, 127
1, 158580, Note_on_c, 1, 70, 127
1, 158580, Note_on_c, 1, 48, 127
1, 158609, Note_off_c, 1, 70, 0
1, 158610, Note_on_c, 1, 69, 127
1, 158639, Note_off_c, 1, 72, 0
1, 158639, Note_off_c, 1, 64, 0
1, 158639, Note_off_c, 1, 48, 0
1, 158639, Note_off_c, 1, 69, 0
1, 158640, Note_on_c, 1, 67, 127
1, 158669, Note_off_c, 1, 67, 0
1, 158670, Note_on_c, 1, 70, 127
1, 158699, Note_off_c, 1, 70, 0
1, 158700, Note_on_c, 1, 72, 127
1, 158700, Note_on_c, 1, 64, 127
1, 158700, Note_on_c, 1, 69, 127
1, 158700, Note_on_c, 1, 41, 127
1, 158729, Note_off_c, 1, 69, 0
1, 158730, Note_on_c, 1, 67, 127
1, 158759, Note_off_c, 1, 72, 0
1, 158759, Note_off_c, 1, 64, 0
1, 158759, Note_off_c, 1, 41, 0
1, 158759, Note_off_c, 1, 67, 0
1, 158760, Note_on_c, 1, 69, 127
1, 158789, Note_off_c, 1, 69, 0
1, 158790, Note_on_c, 1, 70, 127
1, 158819, Note_off_c, 1, 70, 0
1, 158820, Note_on_c, 1, 74, 127
1, 158820, Note_on_c, 1, 62, 127
1, 158820, Note_on_c, 1, 69, 127
1, 158820, Note_on_c, 1, 46, 127
1, 158849, Note_off_c, 1, 69, 0
1, 158850, Note_on_c, 1, 67, 127
1, 158879, Note_off_c, 1, 74, 0
1, 158879, Note_off_c, 1, 62, 0
1, 158879, Note_off_c, 1, 46, 0
1, 158879, Note_off_c, 1, 67, 0
1, 158880, Note_on_c, 1, 65, 127
1, 158909, Note_off_c, 1, 65, 0
1, 158910, Note_on_c, 1, 69, 127
1, 158939, Note_off_c, 1, 69, 0
1, 158940, Note_on_c, 1, 74, 127
1, 158940, Note_on_c, 1, 70, 127
1, 158940, Note_on_c, 1, 67, 127
1, 158940, Note_on_c, 1, 40, 127
1, 158969, Note_off_c, 1, 67, 0
1, 158970, Note_on_c, 1, 65, 127
1, 158999, Note_off_c, 1, 74, 0
1, 158999, Note_off_c, 1, 70, 0
1, 158999, Note_off_c, 1, 40, 0
1, 158999, Note_off_c, 1, 65, 0
1, 159000, Note_on_c, 1, 67, 127
1, 159029, Note_off_c, 1, 67, 0
1, 159030, Note_on_c, 1, 69, 127
1, 159059, Note_off_c, 1, 69, 0
1, 159060, Note_on_c, 1, 73, 127
1, 159060, Note_on_c, 1, 69, 127
1, 159060, Note_on_c, 1, 67, 127
1, 159060, Note_on_c, 1, 45, 127
1, 159089, Note_off_c, 1, 67, 0
1, 159090, Note_on_c, 1, 65, 127
1, 159119, Note_off_c, 1, 73, 0
1, 159119, Note_off_c, 1, 69, 0
1, 159119, Note_off_c, 1, 45, 0
1, 159119, Note_off_c, 1, 65, 0
1, 159120, Note_on_c, 1, 64, 127
1, 159149, Note_off_c, 1, 64, 0
1, 159150, Note_on_c, 1, 67, 127
1, 159179, Note_off_c, 1, 67, 0
1, 159180, Note_on_c, 1, 74, 127
1, 159180, Note_on_c, 1, 69, 127
1, 159180, Note_on_c, 1, 65, 127
1, 159180, Note_on_c, 1, 38, 127
1, 159209, Note_off_c, 1, 69, 0
1, 159209, Note_off_c, 1, 65, 0
1, 159210, Note_on_c, 1, 67, 127
1, 159210, Note_on_c, 1, 64, 127
1, 159239, Note_off_c, 1, 74, 0
1, 159239, Note_off_c, 1, 38, 0
1, 159239, Note_off_c, 1, 67, 0
1, 159239, Note_off_c, 1, 64, 0
1, 159240, Note_on_c, 1, 65, 127
1, 159240, Note_on_c, 1, 62, 127
1, 159240, Note_on_c, 1, 50, 127
1, 159269, Note_off_c, 1, 65, 0
1, 159269, Note_off_c, 1, 62, 0
1, 159270, Note_on_c, 1, 64, 127
1, 159299, Note_off_c, 1, 50, 0
1, 159299, Note_off_c, 1, 64, 0
1, 159300, Note_on_c, 1, 62, 127
1, 159300, Note_on_c, 1, 66, 127
1, 159300, Note_on_c, 1, 48, 127
1, 159329, Note_off_c, 1, 62, 0
1, 159329, Note_off_c, 1, 66, 0
1, 159330, Note_on_c, 1, 64, 127
1, 159330, Note_on_c, 1, 68, 127
1, 159359, Note_off_c, 1, 48, 0
1, 159359, Note_off_c, 1, 64, 0
1, 159359, Note_off_c, 1, 68, 0
1, 159360, Note_on_c, 1, 66, 127
1, 159360, Note_on_c, 1, 69, 127
1, 159360, Note_on_c, 1, 47, 127
1, 159389, Note_off_c, 1, 66, 0
1, 159389, Note_off_c, 1, 69, 0
1, 159390, Note_on_c, 1, 68, 127
1, 159390, Note_on_c, 1, 71, 127
1, 159419, Note_off_c, 1, 47, 0
1, 159419, Note_off_c, 1, 68, 0
1, 159419, Note_off_c, 1, 71, 0
1, 159420, Note_on_c, 1, 69, 127
1, 159420, Note_on_c, 1, 72, 127
1, 159420, Note_on_c, 1, 57, 127
1, 159449, Note_off_c, 1, 69, 0
1, 159449, Note_off_c, 1, 72, 0
1, 159450, Note_on_c, 1, 68, 127
1, 159450, Note_on_c, 1, 71, 127
1, 159479, Note_off_c, 1, 57, 0
1, 159479, Note_off_c, 1, 68, 0
1, 159479, Note_off_c, 1, 71, 0
1, 159480, Note_on_c, 1, 69, 127
1, 159480, Note_on_c, 1, 72, 127
1, 159480, Note_on_c, 1, 45, 127
1, 159509, Note_off_c, 1, 69, 0
1, 159509, Note_off_c, 1, 72, 0
1, 159510, Note_on_c, 1, 71, 127
1, 159510, Note_on_c, 1, 76, 127
1, 159539, Note_off_c, 1, 71, 0
1, 159539, Note_off_c, 1, 76, 0
1, 159540, Note_on_c, 1, 74, 127
1, 159569, Note_off_c, 1, 45, 0
1, 159569, Note_off_c, 1, 74, 0
1, 159570, Note_on_c, 1, 74, 127
1, 159570, Note_on_c, 1, 72, 127
1, 159570, Note_on_c, 1, 47, 127
1, 159599, Note_off_c, 1, 74, 0
1, 159599, Note_off_c, 1, 72, 0
1, 159599, Note_off_c, 1, 47, 0
1, 159600, Note_on_c, 1, 76, 127
1, 159600, Note_on_c, 1, 71, 127
1, 159600, Note_on_c, 1, 48, 127
1, 159629, Note_off_c, 1, 76, 0
1, 159629, Note_off_c, 1, 71, 0
1, 159629, Note_off_c, 1, 48, 0
1, 159630, Note_on_c, 1, 77, 127
1, 159630, Note_on_c, 1, 69, 127
1, 159630, Note_on_c, 1, 50, 127
1, 159659, Note_off_c, 1, 77, 0
1, 159659, Note_off_c, 1, 69, 0
1, 159659, Note_off_c, 1, 50, 0
1, 159660, Note_on_c, 1, 64, 127
1, 159660, Note_on_c, 1, 71, 127
1, 159660, Note_on_c, 1, 68, 127
1, 159660, Note_on_c, 1, 52, 127
1, 159689, Note_off_c, 1, 71, 0
1, 159690, Note_on_c, 1, 74, 127
1, 159719, Note_off_c, 1, 64, 0
1, 159719, Note_off_c, 1, 68, 0
1, 159719, Note_off_c, 1, 52, 0
1, 159719, Note_off_c, 1, 74, 0
1, 159720, Note_on_c, 1, 76, 127
1, 159720, Note_on_c, 1, 72, 127
1, 159720, Note_on_c, 1, 64, 127
1, 159720, Note_on_c, 1, 52, 127
1, 159749, Note_off_c, 1, 72, 0
1, 159750, Note_on_c, 1, 71, 127
1, 159779, Note_off_c, 1, 64, 0
1, 159779, Note_off_c, 1, 52, 0
1, 159779, Note_off_c, 1, 71, 0
1, 159809, Note_off_c, 1, 76, 0
1, 159810, Note_on_c, 1, 74, 127
1, 159839, Note_off_c, 1, 74, 0
1, 159840, Note_on_c, 1, 72, 127
1, 159840, Note_on_c, 1, 69, 127
1, 159840, Note_on_c, 1, 76, 127
1, 159840, Note_on_c, 1, 52, 127
1, 159869, Note_off_c, 1, 72, 0
1, 159869, Note_off_c, 1, 69, 0
1, 159870, Note_on_c, 1, 71, 127
1, 159870, Note_on_c, 1, 68, 127
1, 159899, Note_off_c, 1, 76, 0
1, 159899, Note_off_c, 1, 52, 0
1, 159899, Note_off_c, 1, 71, 0
1, 159899, Note_off_c, 1, 68, 0
1, 159900, Note_on_c, 1, 69, 127
1, 159900, Note_on_c, 1, 76, 127
1, 159900, Note_on_c, 1, 53, 127
1, 159929, Note_off_c, 1, 53, 0
1, 159930, Note_on_c, 1, 52, 127
1, 159959, Note_off_c, 1, 69, 0
1, 159959, Note_off_c, 1, 76, 0
1, 159959, Note_off_c, 1, 52, 0
1, 159960, Note_on_c, 1, 69, 127
1, 159960, Note_on_c, 1, 53, 127
1, 159989, Note_off_c, 1, 53, 0
1, 159990, Note_on_c, 1, 55, 127
1, 160019, Note_off_c, 1, 69, 0
1, 160019, Note_off_c, 1, 55, 0
1, 160020, Note_on_c, 1, 69, 127
1, 160020, Note_on_c, 1, 74, 127
1, 160020, Note_on_c, 1, 53, 127
1, 160049, Note_off_c, 1, 53, 0
1, 160050, Note_on_c, 1, 52, 127
1, 160079, Note_off_c, 1, 69, 0
1, 160079, Note_off_c, 1, 52, 0
1, 160080, Note_on_c, 1, 50, 127
1, 160109, Note_off_c, 1, 50, 0
1, 160140, Note_on_c, 1, 67, 127
1, 160169, Note_off_c, 1, 67, 0
1, 160170, Note_on_c, 1, 65, 127
1, 160199, Note_off_c, 1, 74, 0
1, 160199, Note_off_c, 1, 65, 0
1, 160200, Note_on_c, 1, 67, 127
1, 160200, Note_on_c, 1, 52, 127
1, 160229, Note_off_c, 1, 52, 0
1, 160230, Note_on_c, 1, 69, 127
1, 160230, Note_on_c, 1, 53, 127
1, 160259, Note_off_c, 1, 67, 0
1, 160259, Note_off_c, 1, 69, 0
1, 160259, Note_off_c, 1, 53, 0
1, 160260, Note_on_c, 1, 67, 127
1, 160260, Note_on_c, 1, 72, 127
1, 160260, Note_on_c, 1, 52, 127
1, 160289, Note_off_c, 1, 67, 0
1, 160289, Note_off_c, 1, 72, 0
1, 160289, Note_off_c, 1, 52, 0
1, 160290, Note_on_c, 1, 65, 127
1, 160290, Note_on_c, 1, 74, 127
1, 160290, Note_on_c, 1, 50, 127
1, 160319, Note_off_c, 1, 65, 0
1, 160319, Note_off_c, 1, 74, 0
1, 160319, Note_off_c, 1, 50, 0
1, 160320, Note_on_c, 1, 64, 127
1, 160320, Note_on_c, 1, 72, 127
1, 160320, Note_on_c, 1, 76, 127
1, 160320, Note_on_c, 1, 48, 127
1, 160349, Note_off_c, 1, 64, 0
1, 160349, Note_off_c, 1, 76, 0
1, 160349, Note_off_c, 1, 48, 0
1, 160350, Note_on_c, 1, 67, 127
1, 160350, Note_on_c, 1, 52, 127
1, 160379, Note_off_c, 1, 67, 0
1, 160379, Note_off_c, 1, 52, 0
1, 160380, Note_on_c, 1, 65, 127
1, 160380, Note_on_c, 1, 77, 127
1, 160380, Note_on_c, 1, 50, 127
1, 160409, Note_off_c, 1, 77, 0
1, 160409, Note_off_c, 1, 50, 0
1, 160439, Note_off_c, 1, 72, 0
1, 160439, Note_off_c, 1, 65, 0
1, 160440, Note_on_c, 1, 62, 127
1, 160440, Note_on_c, 1, 71, 127
1, 160440, Note_on_c, 1, 77, 127
1, 160440, Note_on_c, 1, 50, 127
1, 160469, Note_off_c, 1, 71, 0
1, 160469, Note_off_c, 1, 77, 0
1, 160469, Note_off_c, 1, 50, 0
1, 160470, Note_on_c, 1, 69, 127
1, 160470, Note_on_c, 1, 79, 127
1, 160470, Note_on_c, 1, 52, 127
1, 160499, Note_off_c, 1, 62, 0
1, 160499, Note_off_c, 1, 69, 0
1, 160499, Note_off_c, 1, 79, 0
1, 160499, Note_off_c, 1, 52, 0
1, 160500, Note_on_c, 1, 71, 127
1, 160500, Note_on_c, 1, 77, 127
1, 160500, Note_on_c, 1, 50, 127
1, 160529, Note_off_c, 1, 77, 0
1, 160529, Note_off_c, 1, 50, 0
1, 160530, Note_on_c, 1, 76, 127
1, 160530, Note_on_c, 1, 48, 127
1, 160559, Note_off_c, 1, 71, 0
1, 160559, Note_off_c, 1, 76, 0
1, 160559, Note_off_c, 1, 48, 0
1, 160560, Note_on_c, 1, 71, 127
1, 160560, Note_on_c, 1, 74, 127
1, 160560, Note_on_c, 1, 47, 127
1, 160589, Note_off_c, 1, 74, 0
1, 160589, Note_off_c, 1, 47, 0
1, 160590, Note_on_c, 1, 77, 127
1, 160590, Note_on_c, 1, 50, 127
1, 160619, Note_off_c, 1, 77, 0
1, 160619, Note_off_c, 1, 50, 0
1, 160620, Note_on_c, 1, 76, 127
1, 160620, Note_on_c, 1, 48, 127
1, 160649, Note_off_c, 1, 71, 0
1, 160649, Note_off_c, 1, 48, 0
1, 160650, Note_on_c, 1, 68, 127
1, 160679, Note_off_c, 1, 76, 0
1, 160679, Note_off_c, 1, 68, 0
1, 160680, Note_on_c, 1, 72, 127
1, 160680, Note_on_c, 1, 69, 127
1, 160680, Note_on_c, 1, 74, 127
1, 160680, Note_on_c, 1, 48, 127
1, 160709, Note_off_c, 1, 72, 0
1, 160709, Note_off_c, 1, 48, 0
1, 160710, Note_on_c, 1, 71, 127
1, 160710, Note_on_c, 1, 50, 127
1, 160739, Note_off_c, 1, 69, 0
1, 160739, Note_off_c, 1, 74, 0
1, 160739, Note_off_c, 1, 71, 0
1, 160739, Note_off_c, 1, 50, 0
1, 160740, Note_on_c, 1, 69, 127
1, 160740, Note_on_c, 1, 76, 127
1, 160740, Note_on_c, 1, 48, 127
1, 160769, Note_off_c, 1, 48, 0
1, 160770, Note_on_c, 1, 72, 127
1, 160770, Note_on_c, 1, 47, 127
1, 160799, Note_off_c, 1, 69, 0
1, 160799, Note_off_c, 1, 76, 0
1, 160799, Note_off_c, 1, 72, 0
1, 160799, Note_off_c, 1, 47, 0
1, 160800, Note_on_c, 1, 69, 127
1, 160800, Note_on_c, 1, 77, 127
1, 160800, Note_on_c, 1, 72, 127
1, 160800, Note_on_c, 1, 45, 127
1, 160829, Note_off_c, 1, 77, 0
1, 160829, Note_off_c, 1, 45, 0
1, 160830, Note_on_c, 1, 76, 127
1, 160830, Note_on_c, 1, 48, 127
1, 160859, Note_off_c, 1, 72, 0
1, 160859, Note_off_c, 1, 76, 0
1, 160859, Note_off_c, 1, 48, 0
1, 160860, Note_on_c, 1, 74, 127
1, 160860, Note_on_c, 1, 47, 127
1, 160889, Note_off_c, 1, 69, 0
1, 160889, Note_off_c, 1, 47, 0
1, 160890, Note_on_c, 1, 66, 127
1, 160919, Note_off_c, 1, 74, 0
1, 160919, Note_off_c, 1, 66, 0
1, 160920, Note_on_c, 1, 68, 127
1, 160920, Note_on_c, 1, 71, 127
1, 160920, Note_on_c, 1, 72, 127
1, 160920, Note_on_c, 1, 47, 127
1, 160949, Note_off_c, 1, 71, 0
1, 160949, Note_off_c, 1, 47, 0
1, 160950, Note_on_c, 1, 69, 127
1, 160950, Note_on_c, 1, 48, 127
1, 160979, Note_off_c, 1, 68, 0
1, 160979, Note_off_c, 1, 72, 0
1, 160979, Note_off_c, 1, 69, 0
1, 160979, Note_off_c, 1, 48, 0
1, 160980, Note_on_c, 1, 68, 127
1, 160980, Note_on_c, 1, 74, 127
1, 160980, Note_on_c, 1, 47, 127
1, 161009, Note_off_c, 1, 47, 0
1, 161010, Note_on_c, 1, 71, 127
1, 161010, Note_on_c, 1, 45, 127
1, 161039, Note_off_c, 1, 68, 0
1, 161039, Note_off_c, 1, 74, 0
1, 161039, Note_off_c, 1, 71, 0
1, 161039, Note_off_c, 1, 45, 0
1, 161040, Note_on_c, 1, 76, 127
1, 161040, Note_on_c, 1, 71, 127
1, 161040, Note_on_c, 1, 44, 127
1, 161069, Note_off_c, 1, 76, 0
1, 161069, Note_off_c, 1, 44, 0
1, 161070, Note_on_c, 1, 74, 127
1, 161070, Note_on_c, 1, 47, 127
1, 161099, Note_off_c, 1, 71, 0
1, 161099, Note_off_c, 1, 74, 0
1, 161099, Note_off_c, 1, 47, 0
1, 161100, Note_on_c, 1, 72, 127
1, 161100, Note_on_c, 1, 64, 127
1, 161100, Note_on_c, 1, 45, 127
1, 161129, Note_off_c, 1, 45, 0
1, 161130, Note_on_c, 1, 71, 127
1, 161130, Note_on_c, 1, 44, 127
1, 161159, Note_off_c, 1, 72, 0
1, 161159, Note_off_c, 1, 64, 0
1, 161159, Note_off_c, 1, 71, 0
1, 161159, Note_off_c, 1, 44, 0
1, 161160, Note_on_c, 1, 69, 127
1, 161160, Note_on_c, 1, 74, 127
1, 161160, Note_on_c, 1, 77, 127
1, 161160, Note_on_c, 1, 45, 127
1, 161189, Note_off_c, 1, 69, 0
1, 161189, Note_off_c, 1, 45, 0
1, 161190, Note_on_c, 1, 68, 127
1, 161190, Note_on_c, 1, 47, 127
1, 161219, Note_off_c, 1, 74, 0
1, 161219, Note_off_c, 1, 77, 0
1, 161219, Note_off_c, 1, 68, 0
1, 161219, Note_off_c, 1, 47, 0
1, 161220, Note_on_c, 1, 69, 127
1, 161220, Note_on_c, 1, 72, 127
1, 161220, Note_on_c, 1, 76, 127
1, 161220, Note_on_c, 1, 48, 127
1, 161249, Note_off_c, 1, 48, 0
1, 161250, Note_on_c, 1, 47, 127
1, 161279, Note_off_c, 1, 69, 0
1, 161279, Note_off_c, 1, 72, 0
1, 161279, Note_off_c, 1, 76, 0
1, 161279, Note_off_c, 1, 47, 0
1, 161280, Note_on_c, 1, 71, 127
1, 161280, Note_on_c, 1, 74, 127
1, 161280, Note_on_c, 1, 48, 127
1, 161309, Note_off_c, 1, 48, 0
1, 161310, Note_on_c, 1, 50, 127
1, 161339, Note_off_c, 1, 71, 0
1, 161339, Note_off_c, 1, 74, 0
1, 161339, Note_off_c, 1, 50, 0
1, 161340, Note_on_c, 1, 64, 127
1, 161340, Note_on_c, 1, 72, 127
1, 161340, Note_on_c, 1, 52, 127
1, 161399, Note_off_c, 1, 64, 0
1, 161399, Note_off_c, 1, 52, 0
1, 161400, Note_on_c, 1, 69, 127
1, 161400, Note_on_c, 1, 50, 127
1, 161459, Note_off_c, 1, 72, 0
1, 161459, Note_off_c, 1, 50, 0
1, 161460, Note_on_c, 1, 71, 127
1, 161479, Note_off_c, 1, 71, 0
1, 161519, Note_off_c, 1, 69, 0
1, 161520, Note_on_c, 1, 68, 127
1, 161520, Note_on_c, 1, 72, 127
1, 161520, Note_on_c, 1, 40, 127
1, 161534, Note_off_c, 1, 72, 0
1, 161535, Note_on_c, 1, 71, 127
1, 161549, Note_off_c, 1, 71, 0
1, 161579, Note_off_c, 1, 68, 0
1, 161579, Note_off_c, 1, 40, 0
1, 161580, Note_on_c, 1, 69, 127
1, 161580, Note_on_c, 1, 45, 127
1, 161639, Note_off_c, 1, 45, 0
1, 161640, Note_on_c, 1, 57, 127
1, 161699, Note_off_c, 1, 69, 0
1, 161730, Note_on_c, 1, 59, 127
1, 161759, Note_off_c, 1, 57, 0
1, 161759, Note_off_c, 1, 59, 0
1, 161760, Note_on_c, 1, 60, 127
1, 161789, Note_off_c, 1, 60, 0
1, 161790, Note_on_c, 1, 62, 127
1, 161819, Note_off_c, 1, 62, 0
1, 161820, Note_on_c, 1, 64, 127
1, 161820, Note_on_c, 1, 56, 127
1, 161879, Note_off_c, 1, 64, 0
1, 161879, Note_off_c, 1, 56, 0
1, 161880, Note_on_c, 1, 64, 127
1, 161939, Note_off_c, 1, 64, 0
1, 161940, Note_on_c, 1, 64, 127
1, 161940, Note_on_c, 1, 57, 127
1, 161999, Note_off_c, 1, 64, 0
1, 161999, Note_off_c, 1, 57, 0
1, 162000, Note_on_c, 1, 64, 127
1, 162059, Note_off_c, 1, 64, 0
1, 162060, Note_on_c, 1, 74, 127
1, 162060, Note_on_c, 1, 65, 127
1, 162060, Note_on_c, 1, 50, 127
1, 162089, Note_off_c, 1, 65, 0
1, 162090, Note_on_c, 1, 64, 127
1, 162119, Note_off_c, 1, 74, 0
1, 162119, Note_off_c, 1, 50, 0
1, 162119, Note_off_c, 1, 64, 0
1, 162120, Note_on_c, 1, 62, 127
1, 162120, Note_on_c, 1, 65, 127
1, 162149, Note_off_c, 1, 65, 0
1, 162150, Note_on_c, 1, 67, 127
1, 162179, Note_off_c, 1, 67, 0
1, 162180, Note_on_c, 1, 47, 127
1, 162209, Note_off_c, 1, 62, 0
1, 162210, Note_on_c, 1, 64, 127
1, 162239, Note_off_c, 1, 47, 0
1, 162239, Note_off_c, 1, 64, 0
1, 162240, Note_on_c, 1, 65, 127
1, 162240, Note_on_c, 1, 62, 127
1, 162269, Note_off_c, 1, 65, 0
1, 162269, Note_off_c, 1, 62, 0
1, 162270, Note_on_c, 1, 67, 127
1, 162270, Note_on_c, 1, 65, 127
1, 162299, Note_off_c, 1, 67, 0
1, 162299, Note_off_c, 1, 65, 0
1, 162300, Note_on_c, 1, 69, 127
1, 162300, Note_on_c, 1, 64, 127
1, 162300, Note_on_c, 1, 49, 127
1, 162329, Note_off_c, 1, 64, 0
1, 162330, Note_on_c, 1, 62, 127
1, 162359, Note_off_c, 1, 69, 0
1, 162359, Note_off_c, 1, 49, 0
1, 162359, Note_off_c, 1, 62, 0
1, 162360, Note_on_c, 1, 69, 127
1, 162360, Note_on_c, 1, 64, 127
1, 162389, Note_off_c, 1, 64, 0
1, 162390, Note_on_c, 1, 65, 127
1, 162419, Note_off_c, 1, 69, 0
1, 162419, Note_off_c, 1, 65, 0
1, 162420, Note_on_c, 1, 69, 127
1, 162420, Note_on_c, 1, 64, 127
1, 162420, Note_on_c, 1, 45, 127
1, 162449, Note_off_c, 1, 64, 0
1, 162450, Note_on_c, 1, 62, 127
1, 162479, Note_off_c, 1, 69, 0
1, 162479, Note_off_c, 1, 45, 0
1, 162479, Note_off_c, 1, 62, 0
1, 162480, Note_on_c, 1, 69, 127
1, 162480, Note_on_c, 1, 61, 127
1, 162509, Note_off_c, 1, 61, 0
1, 162510, Note_on_c, 1, 64, 127
1, 162539, Note_off_c, 1, 69, 0
1, 162539, Note_off_c, 1, 64, 0
1, 162540, Note_on_c, 1, 70, 127
1, 162540, Note_on_c, 1, 62, 127
1, 162540, Note_on_c, 1, 77, 127
1, 162540, Note_on_c, 1, 50, 127
1, 162569, Note_off_c, 1, 70, 0
1, 162569, Note_off_c, 1, 62, 0
1, 162570, Note_on_c, 1, 69, 127
1, 162570, Note_on_c, 1, 60, 127
1, 162599, Note_off_c, 1, 77, 0
1, 162599, Note_off_c, 1, 50, 0
1, 162599, Note_off_c, 1, 69, 0
1, 162599, Note_off_c, 1, 60, 0
1, 162600, Note_on_c, 1, 70, 127
1, 162600, Note_on_c, 1, 62, 127
1, 162600, Note_on_c, 1, 65, 127
1, 162629, Note_off_c, 1, 70, 0
1, 162629, Note_off_c, 1, 62, 0
1, 162630, Note_on_c, 1, 72, 127
1, 162630, Note_on_c, 1, 64, 127
1, 162659, Note_off_c, 1, 72, 0
1, 162659, Note_off_c, 1, 64, 0
1, 162660, Note_on_c, 1, 46, 127
1, 162689, Note_off_c, 1, 65, 0
1, 162690, Note_on_c, 1, 69, 127
1, 162690, Note_on_c, 1, 60, 127
1, 162690, Note_on_c, 1, 67, 127
1, 162719, Note_off_c, 1, 46, 0
1, 162719, Note_off_c, 1, 69, 0
1, 162719, Note_off_c, 1, 60, 0
1, 162719, Note_off_c, 1, 67, 0
1, 162720, Note_on_c, 1, 67, 127
1, 162720, Note_on_c, 1, 58, 127
1, 162720, Note_on_c, 1, 69, 127
1, 162749, Note_off_c, 1, 67, 0
1, 162749, Note_off_c, 1, 58, 0
1, 162749, Note_off_c, 1, 69, 0
1, 162750, Note_on_c, 1, 70, 127
1, 162750, Note_on_c, 1, 62, 127
1, 162779, Note_off_c, 1, 70, 0
1, 162779, Note_off_c, 1, 62, 0
1, 162780, Note_on_c, 1, 69, 127
1, 162780, Note_on_c, 1, 60, 127
1, 162780, Note_on_c, 1, 72, 127
1, 162780, Note_on_c, 1, 41, 127
1, 162809, Note_off_c, 1, 69, 0
1, 162809, Note_off_c, 1, 60, 0
1, 162810, Note_on_c, 1, 67, 127
1, 162810, Note_on_c, 1, 58, 127
1, 162839, Note_off_c, 1, 72, 0
1, 162839, Note_off_c, 1, 41, 0
1, 162839, Note_off_c, 1, 67, 0
1, 162839, Note_off_c, 1, 58, 0
1, 162840, Note_on_c, 1, 69, 127
1, 162840, Note_on_c, 1, 60, 127
1, 162840, Note_on_c, 1, 72, 127
1, 162840, Note_on_c, 1, 48, 127
1, 162869, Note_off_c, 1, 69, 0
1, 162869, Note_off_c, 1, 60, 0
1, 162870, Note_on_c, 1, 70, 127
1, 162870, Note_on_c, 1, 62, 127
1, 162899, Note_off_c, 1, 72, 0
1, 162899, Note_off_c, 1, 48, 0
1, 162899, Note_off_c, 1, 70, 0
1, 162899, Note_off_c, 1, 62, 0
1, 162900, Note_on_c, 1, 69, 127
1, 162900, Note_on_c, 1, 60, 127
1, 162900, Note_on_c, 1, 72, 127
1, 162900, Note_on_c, 1, 53, 127
1, 162929, Note_off_c, 1, 69, 0
1, 162929, Note_off_c, 1, 60, 0
1, 162930, Note_on_c, 1, 67, 127
1, 162930, Note_on_c, 1, 58, 127
1, 162959, Note_off_c, 1, 72, 0
1, 162959, Note_off_c, 1, 67, 0
1, 162959, Note_off_c, 1, 58, 0
1, 162960, Note_on_c, 1, 65, 127
1, 162960, Note_on_c, 1, 57, 127
1, 162989, Note_off_c, 1, 65, 0
1, 162989, Note_off_c, 1, 57, 0
1, 163020, Note_on_c, 1, 74, 127
1, 163049, Note_off_c, 1, 74, 0
1, 163079, Note_off_c, 1, 53, 0
1, 163080, Note_on_c, 1, 67, 127
1, 163080, Note_on_c, 1, 58, 127
1, 163080, Note_on_c, 1, 74, 127
1, 163080, Note_on_c, 1, 46, 127
1, 163109, Note_off_c, 1, 67, 0
1, 163109, Note_off_c, 1, 58, 0
1, 163109, Note_off_c, 1, 74, 0
1, 163110, Note_on_c, 1, 69, 127
1, 163110, Note_on_c, 1, 60, 127
1, 163110, Note_on_c, 1, 75, 127
1, 163139, Note_off_c, 1, 46, 0
1, 163139, Note_off_c, 1, 69, 0
1, 163139, Note_off_c, 1, 60, 0
1, 163139, Note_off_c, 1, 75, 0
1, 163140, Note_on_c, 1, 67, 127
1, 163140, Note_on_c, 1, 58, 127
1, 163140, Note_on_c, 1, 74, 127
1, 163140, Note_on_c, 1, 40, 127
1, 163169, Note_off_c, 1, 67, 0
1, 163169, Note_off_c, 1, 58, 0
1, 163169, Note_off_c, 1, 74, 0
1, 163170, Note_on_c, 1, 65, 127
1, 163170, Note_on_c, 1, 57, 127
1, 163170, Note_on_c, 1, 72, 127
1, 163199, Note_off_c, 1, 40, 0
1, 163199, Note_off_c, 1, 65, 0
1, 163199, Note_off_c, 1, 57, 0
1, 163199, Note_off_c, 1, 72, 0
1, 163200, Note_on_c, 1, 64, 127
1, 163200, Note_on_c, 1, 55, 127
1, 163200, Note_on_c, 1, 70, 127
1, 163200, Note_on_c, 1, 52, 127
1, 163229, Note_off_c, 1, 64, 0
1, 163229, Note_off_c, 1, 55, 0
1, 163229, Note_off_c, 1, 70, 0
1, 163230, Note_on_c, 1, 67, 127
1, 163230, Note_on_c, 1, 58, 127
1, 163230, Note_on_c, 1, 74, 127
1, 163259, Note_off_c, 1, 67, 0
1, 163259, Note_off_c, 1, 58, 0
1, 163259, Note_off_c, 1, 74, 0
1, 163260, Note_on_c, 1, 65, 127
1, 163260, Note_on_c, 1, 57, 127
1, 163260, Note_on_c, 1, 72, 127
1, 163289, Note_off_c, 1, 72, 0
1, 163319, Note_off_c, 1, 52, 0
1, 163319, Note_off_c, 1, 65, 0
1, 163319, Note_off_c, 1, 57, 0
1, 163320, Note_on_c, 1, 60, 127
1, 163320, Note_on_c, 1, 72, 127
1, 163320, Note_on_c, 1, 45, 127
1, 163349, Note_off_c, 1, 72, 0
1, 163350, Note_on_c, 1, 74, 127
1, 163379, Note_off_c, 1, 60, 0
1, 163379, Note_off_c, 1, 45, 0
1, 163379, Note_off_c, 1, 74, 0
1, 163380, Note_on_c, 1, 65, 127
1, 163380, Note_on_c, 1, 72, 127
1, 163380, Note_on_c, 1, 38, 127
1, 163409, Note_off_c, 1, 72, 0
1, 163410, Note_on_c, 1, 70, 127
1, 163439, Note_off_c, 1, 38, 0
1, 163439, Note_off_c, 1, 70, 0
1, 163440, Note_on_c, 1, 69, 127
1, 163440, Note_on_c, 1, 50, 127
1, 163469, Note_off_c, 1, 69, 0
1, 163559, Note_off_c, 1, 65, 0
1, 163559, Note_off_c, 1, 50, 0
1, 163560, Note_on_c, 1, 64, 127
1, 163560, Note_on_c, 1, 70, 127
1, 163560, Note_on_c, 1, 43, 127
1, 163589, Note_off_c, 1, 64, 0
1, 163589, Note_off_c, 1, 70, 0
1, 163590, Note_on_c, 1, 62, 127
1, 163590, Note_on_c, 1, 72, 127
1, 163619, Note_off_c, 1, 43, 0
1, 163619, Note_off_c, 1, 62, 0
1, 163619, Note_off_c, 1, 72, 0
1, 163620, Note_on_c, 1, 64, 127
1, 163620, Note_on_c, 1, 70, 127
1, 163620, Note_on_c, 1, 36, 127
1, 163649, Note_off_c, 1, 70, 0
1, 163650, Note_on_c, 1, 69, 127
1, 163679, Note_off_c, 1, 36, 0
1, 163679, Note_off_c, 1, 69, 0
1, 163680, Note_on_c, 1, 67, 127
1, 163680, Note_on_c, 1, 48, 127
1, 163709, Note_off_c, 1, 67, 0
1, 163739, Note_off_c, 1, 64, 0
1, 163739, Note_off_c, 1, 48, 0
1, 163740, Note_on_c, 1, 65, 127
1, 163740, Note_on_c, 1, 72, 127
1, 163740, Note_on_c, 1, 69, 127
1, 163740, Note_on_c, 1, 41, 127
1, 163799, Note_off_c, 1, 65, 0
1, 163799, Note_off_c, 1, 72, 0
1, 163799, Note_off_c, 1, 69, 0
1, 163799, Note_off_c, 1, 41, 0
1, 163800, Note_on_c, 1, 60, 127
1, 163800, Note_on_c, 1, 65, 127
1, 163800, Note_on_c, 1, 53, 127
1, 163829, Note_off_c, 1, 53, 0
1, 163830, Note_on_c, 1, 52, 127
1, 163859, Note_off_c, 1, 65, 0
1, 163859, Note_off_c, 1, 52, 0
1, 163889, Note_off_c, 1, 60, 0
1, 163890, Note_on_c, 1, 62, 127
1, 163919, Note_off_c, 1, 62, 0
1, 163920, Note_on_c, 1, 64, 127
1, 163920, Note_on_c, 1, 50, 127
1, 163949, Note_off_c, 1, 64, 0
1, 163950, Note_on_c, 1, 65, 127
1, 163979, Note_off_c, 1, 50, 0
1, 163979, Note_off_c, 1, 65, 0
1, 163980, Note_on_c, 1, 79, 127
1, 163980, Note_on_c, 1, 67, 127
1, 163980, Note_on_c, 1, 40, 127
1, 164039, Note_off_c, 1, 79, 0
1, 164039, Note_off_c, 1, 67, 0
1, 164039, Note_off_c, 1, 40, 0
1, 164040, Note_on_c, 1, 67, 127
1, 164040, Note_on_c, 1, 52, 127
1, 164069, Note_off_c, 1, 52, 0
1, 164070, Note_on_c, 1, 50, 127
1, 164099, Note_off_c, 1, 50, 0
1, 164130, Note_on_c, 1, 69, 127
1, 164159, Note_off_c, 1, 67, 0
1, 164159, Note_off_c, 1, 69, 0
1, 164160, Note_on_c, 1, 71, 127
1, 164160, Note_on_c, 1, 67, 127
1, 164160, Note_on_c, 1, 40, 127
1, 164189, Note_off_c, 1, 71, 0
1, 164190, Note_on_c, 1, 73, 127
1, 164219, Note_off_c, 1, 67, 0
1, 164219, Note_off_c, 1, 40, 0
1, 164219, Note_off_c, 1, 73, 0
1, 164220, Note_on_c, 1, 74, 127
1, 164220, Note_on_c, 1, 69, 127
1, 164220, Note_on_c, 1, 41, 127
1, 164249, Note_off_c, 1, 69, 0
1, 164250, Note_on_c, 1, 67, 127
1, 164279, Note_off_c, 1, 74, 0
1, 164279, Note_off_c, 1, 41, 0
1, 164279, Note_off_c, 1, 67, 0
1, 164280, Note_on_c, 1, 74, 127
1, 164280, Note_on_c, 1, 69, 127
1, 164309, Note_off_c, 1, 69, 0
1, 164310, Note_on_c, 1, 70, 127
1, 164339, Note_off_c, 1, 74, 0
1, 164339, Note_off_c, 1, 70, 0
1, 164340, Note_on_c, 1, 74, 127
1, 164340, Note_on_c, 1, 69, 127
1, 164340, Note_on_c, 1, 46, 127
1, 164369, Note_off_c, 1, 69, 0
1, 164370, Note_on_c, 1, 67, 127
1, 164399, Note_off_c, 1, 74, 0
1, 164399, Note_off_c, 1, 46, 0
1, 164399, Note_off_c, 1, 67, 0
1, 164400, Note_on_c, 1, 74, 127
1, 164400, Note_on_c, 1, 65, 127
1, 164429, Note_off_c, 1, 65, 0
1, 164430, Note_on_c, 1, 69, 127
1, 164459, Note_off_c, 1, 74, 0
1, 164459, Note_off_c, 1, 69, 0
1, 164460, Note_on_c, 1, 76, 127
1, 164460, Note_on_c, 1, 67, 127
1, 164460, Note_on_c, 1, 40, 127
1, 164489, Note_off_c, 1, 76, 0
1, 164489, Note_off_c, 1, 67, 0
1, 164490, Note_on_c, 1, 74, 127
1, 164490, Note_on_c, 1, 65, 127
1, 164519, Note_off_c, 1, 40, 0
1, 164519, Note_off_c, 1, 74, 0
1, 164519, Note_off_c, 1, 65, 0
1, 164520, Note_on_c, 1, 76, 127
1, 164520, Note_on_c, 1, 67, 127
1, 164549, Note_off_c, 1, 76, 0
1, 164549, Note_off_c, 1, 67, 0
1, 164550, Note_on_c, 1, 77, 127
1, 164550, Note_on_c, 1, 69, 127
1, 164579, Note_off_c, 1, 77, 0
1, 164579, Note_off_c, 1, 69, 0
1, 164580, Note_on_c, 1, 76, 127
1, 164580, Note_on_c, 1, 67, 127
1, 164580, Note_on_c, 1, 45, 127
1, 164609, Note_off_c, 1, 76, 0
1, 164609, Note_off_c, 1, 67, 0
1, 164610, Note_on_c, 1, 74, 127
1, 164610, Note_on_c, 1, 65, 127
1, 164639, Note_off_c, 1, 45, 0
1, 164639, Note_off_c, 1, 74, 0
1, 164639, Note_off_c, 1, 65, 0
1, 164640, Note_on_c, 1, 73, 127
1, 164640, Note_on_c, 1, 64, 127
1, 164669, Note_off_c, 1, 73, 0
1, 164669, Note_off_c, 1, 64, 0
1, 164670, Note_on_c, 1, 76, 127
1, 164670, Note_on_c, 1, 67, 127
1, 164699, Note_off_c, 1, 76, 0
1, 164699, Note_off_c, 1, 67, 0
1, 164700, Note_on_c, 1, 74, 127
1, 164700, Note_on_c, 1, 65, 127
1, 164700, Note_on_c, 1, 38, 127
1, 164729, Note_off_c, 1, 65, 0
1, 164730, Note_on_c, 1, 73, 127
1, 164730, Note_on_c, 1, 64, 127
1, 164759, Note_off_c, 1, 74, 0
1, 164759, Note_off_c, 1, 38, 0
1, 164759, Note_off_c, 1, 73, 0
1, 164759, Note_off_c, 1, 64, 0
1, 164760, Note_on_c, 1, 74, 127
1, 164760, Note_on_c, 1, 65, 127
1, 164760, Note_on_c, 1, 62, 127
1, 164789, Note_off_c, 1, 74, 0
1, 164789, Note_off_c, 1, 65, 0
1, 164790, Note_on_c, 1, 76, 127
1, 164790, Note_on_c, 1, 67, 127
1, 164819, Note_off_c, 1, 76, 0
1, 164819, Note_off_c, 1, 67, 0
1, 164820, Note_on_c, 1, 55, 127
1, 164849, Note_off_c, 1, 62, 0
1, 164850, Note_on_c, 1, 73, 127
1, 164850, Note_on_c, 1, 64, 127
1, 164879, Note_off_c, 1, 73, 0
1, 164879, Note_off_c, 1, 64, 0
1, 164880, Note_on_c, 1, 71, 127
1, 164909, Note_off_c, 1, 71, 0
1, 164940, Note_on_c, 1, 69, 127
1, 164999, Note_off_c, 1, 55, 0
1, 164999, Note_off_c, 1, 69, 0
1, 165000, Note_on_c, 1, 69, 127
1, 165000, Note_on_c, 1, 64, 127
1, 165000, Note_on_c, 1, 52, 127
1, 165029, Note_off_c, 1, 64, 0
1, 165030, Note_on_c, 1, 65, 127
1, 165059, Note_off_c, 1, 69, 0
1, 165059, Note_off_c, 1, 52, 0
1, 165059, Note_off_c, 1, 65, 0
1, 165060, Note_on_c, 1, 64, 127
1, 165060, Note_on_c, 1, 69, 127
1, 165060, Note_on_c, 1, 49, 127
1, 165089, Note_off_c, 1, 64, 0
1, 165090, Note_on_c, 1, 62, 127
1, 165119, Note_off_c, 1, 69, 0
1, 165119, Note_off_c, 1, 49, 0
1, 165119, Note_off_c, 1, 62, 0
1, 165120, Note_on_c, 1, 61, 127
1, 165120, Note_on_c, 1, 69, 127
1, 165120, Note_on_c, 1, 57, 127
1, 165149, Note_off_c, 1, 61, 0
1, 165150, Note_on_c, 1, 64, 127
1, 165179, Note_off_c, 1, 69, 0
1, 165179, Note_off_c, 1, 64, 0
1, 165180, Note_on_c, 1, 74, 127
1, 165180, Note_on_c, 1, 62, 127
1, 165180, Note_on_c, 1, 70, 127
1, 165209, Note_off_c, 1, 70, 0
1, 165239, Note_off_c, 1, 57, 0
1, 165239, Note_off_c, 1, 74, 0
1, 165239, Note_off_c, 1, 62, 0
1, 165240, Note_on_c, 1, 62, 127
1, 165240, Note_on_c, 1, 70, 127
1, 165240, Note_on_c, 1, 55, 127
1, 165269, Note_off_c, 1, 55, 0
1, 165270, Note_on_c, 1, 72, 127
1, 165270, Note_on_c, 1, 53, 127
1, 165299, Note_off_c, 1, 70, 0
1, 165299, Note_off_c, 1, 72, 0
1, 165299, Note_off_c, 1, 53, 0
1, 165300, Note_on_c, 1, 64, 127
1, 165329, Note_off_c, 1, 62, 0
1, 165330, Note_on_c, 1, 69, 127
1, 165359, Note_off_c, 1, 64, 0
1, 165359, Note_off_c, 1, 69, 0
1, 165360, Note_on_c, 1, 65, 127
1, 165360, Note_on_c, 1, 73, 127
1, 165360, Note_on_c, 1, 67, 127
1, 165360, Note_on_c, 1, 52, 127
1, 165389, Note_off_c, 1, 65, 0
1, 165389, Note_off_c, 1, 67, 0
1, 165390, Note_on_c, 1, 70, 127
1, 165419, Note_off_c, 1, 73, 0
1, 165419, Note_off_c, 1, 52, 0
1, 165419, Note_off_c, 1, 70, 0
1, 165420, Note_on_c, 1, 69, 127
1, 165420, Note_on_c, 1, 74, 127
1, 165420, Note_on_c, 1, 53, 127
1, 165450, Note_on_c, 1, 67, 127
1, 165479, Note_off_c, 1, 69, 0
1, 165479, Note_off_c, 1, 74, 0
1, 165479, Note_off_c, 1, 53, 0
1, 165479, Note_off_c, 1, 67, 0
1, 165480, Note_on_c, 1, 69, 127
1, 165480, Note_on_c, 1, 77, 127
1, 165480, Note_on_c, 1, 45, 127
1, 165509, Note_off_c, 1, 77, 0
1, 165510, Note_on_c, 1, 76, 127
1, 165510, Note_on_c, 1, 70, 127
1, 165539, Note_off_c, 1, 69, 0
1, 165539, Note_off_c, 1, 45, 0
1, 165539, Note_off_c, 1, 76, 0
1, 165539, Note_off_c, 1, 70, 0
1, 165540, Note_on_c, 1, 69, 127
1, 165540, Note_on_c, 1, 77, 127
1, 165540, Note_on_c, 1, 50, 127
1, 165570, Note_on_c, 1, 67, 127
1, 165599, Note_off_c, 1, 69, 0
1, 165599, Note_off_c, 1, 77, 0
1, 165599, Note_off_c, 1, 67, 0
1, 165600, Note_on_c, 1, 74, 127
1, 165600, Note_on_c, 1, 65, 127
1, 165629, Note_off_c, 1, 65, 0
1, 165659, Note_off_c, 1, 74, 0
1, 165660, Note_on_c, 1, 70, 127
1, 165660, Note_on_c, 1, 76, 127
1, 165689, Note_off_c, 1, 70, 0
1, 165719, Note_off_c, 1, 76, 0
1, 165720, Note_on_c, 1, 64, 127
1, 165750, Note_on_c, 1, 72, 127
1, 165779, Note_off_c, 1, 50, 0
1, 165779, Note_off_c, 1, 64, 0
1, 165779, Note_off_c, 1, 72, 0
1, 165780, Note_on_c, 1, 70, 127
1, 165780, Note_on_c, 1, 67, 127
1, 165780, Note_on_c, 1, 49, 127
1, 165809, Note_off_c, 1, 70, 0
1, 165809, Note_off_c, 1, 67, 0
1, 165810, Note_on_c, 1, 69, 127
1, 165810, Note_on_c, 1, 65, 127
1, 165839, Note_off_c, 1, 69, 0
1, 165839, Note_off_c, 1, 65, 0
1, 165840, Note_on_c, 1, 64, 127
1, 165869, Note_off_c, 1, 64, 0
1, 165899, Note_off_c, 1, 49, 0
1, 165900, Note_on_c, 1, 69, 127
1, 165900, Note_on_c, 1, 65, 127
1, 165900, Note_on_c, 1, 38, 127
1, 165929, Note_off_c, 1, 69, 0
1, 165930, Note_on_c, 1, 67, 127
1, 165959, Note_off_c, 1, 65, 0
1, 165959, Note_off_c, 1, 38, 0
1, 165959, Note_off_c, 1, 67, 0
1, 165960, Note_on_c, 1, 65, 127
1, 165960, Note_on_c, 1, 62, 127
1, 165960, Note_on_c, 1, 50, 127
1, 165989, Note_off_c, 1, 65, 0
1, 165990, Note_on_c, 1, 64, 127
1, 166019, Note_off_c, 1, 62, 0
1, 166019, Note_off_c, 1, 64, 0
1, 166049, Note_off_c, 1, 50, 0
1, 166050, Note_on_c, 1, 48, 127
1, 166079, Note_off_c, 1, 48, 0
1, 166080, Note_on_c, 1, 74, 127
1, 166080, Note_on_c, 1, 67, 127
1, 166080, Note_on_c, 1, 77, 127
1, 166080, Note_on_c, 1, 47, 127
1, 166109, Note_off_c, 1, 67, 0
1, 166109, Note_off_c, 1, 47, 0
1, 166110, Note_on_c, 1, 69, 127
1, 166110, Note_on_c, 1, 45, 127
1, 166139, Note_off_c, 1, 69, 0
1, 166139, Note_off_c, 1, 45, 0
1, 166140, Note_off_c, 1, 77, 0
1, 166140, Note_on_c, 1, 70, 127
1, 166140, Note_on_c, 1, 76, 127
1, 166140, Note_on_c, 1, 43, 127
1, 166169, Note_off_c, 1, 74, 0
1, 166169, Note_off_c, 1, 70, 0
1, 166170, Note_on_c, 1, 73, 127
1, 166199, Note_off_c, 1, 43, 0
1, 166199, Note_off_c, 1, 73, 0
1, 166200, Note_off_c, 1, 76, 0
1, 166230, Note_on_c, 1, 72, 127
1, 166259, Note_off_c, 1, 72, 0
1, 166380, Note_on_c, 1, 41, 127
1, 166409, Note_off_c, 1, 41, 0
1, 166440, Note_on_c, 1, 81, 127
1, 166470, Note_on_c, 1, 40, 127
1, 166499, Note_off_c, 1, 40, 0
1, 166529, Note_off_c, 1, 81, 0
1, 166530, Note_on_c, 1, 79, 127
1, 166559, Note_off_c, 1, 79, 0
1, 166680, Note_on_c, 1, 70, 127
1, 166680, Note_on_c, 1, 74, 127
1, 166680, Note_on_c, 1, 76, 127
1, 166680, Note_on_c, 1, 43, 127
1, 166709, Note_off_c, 1, 70, 0
1, 166709, Note_off_c, 1, 76, 0
1, 166709, Note_off_c, 1, 43, 0
1, 166710, Note_on_c, 1, 72, 127
1, 166710, Note_on_c, 1, 41, 127
1, 166739, Note_off_c, 1, 74, 0
1, 166739, Note_off_c, 1, 72, 0
1, 166739, Note_off_c, 1, 41, 0
1, 166740, Note_on_c, 1, 70, 127
1, 166740, Note_on_c, 1, 74, 127
1, 166740, Note_on_c, 1, 76, 127
1, 166740, Note_on_c, 1, 43, 127
1, 166769, Note_off_c, 1, 70, 0
1, 166769, Note_off_c, 1, 43, 0
1, 166770, Note_on_c, 1, 69, 127
1, 166770, Note_on_c, 1, 45, 127
1, 166799, Note_off_c, 1, 74, 0
1, 166799, Note_off_c, 1, 69, 0
1, 166799, Note_off_c, 1, 45, 0
1, 166800, Note_on_c, 1, 67, 127
1, 166800, Note_on_c, 1, 46, 127
1, 166829, Note_off_c, 1, 67, 0
1, 166829, Note_off_c, 1, 46, 0
1, 166830, Note_on_c, 1, 65, 127
1, 166859, Note_off_c, 1, 65, 0
1, 166860, Note_on_c, 1, 64, 127
1, 166860, Note_on_c, 1, 72, 127
1, 166889, Note_off_c, 1, 76, 0
1, 166889, Note_off_c, 1, 72, 0
1, 166890, Note_on_c, 1, 79, 127
1, 166919, Note_off_c, 1, 64, 0
1, 166919, Note_off_c, 1, 79, 0
1, 166920, Note_on_c, 1, 72, 127
1, 166920, Note_on_c, 1, 78, 127
1, 166920, Note_on_c, 1, 45, 127
1, 166949, Note_off_c, 1, 72, 0
1, 166949, Note_off_c, 1, 78, 0
1, 166949, Note_off_c, 1, 45, 0
1, 166950, Note_on_c, 1, 74, 127
1, 166950, Note_on_c, 1, 76, 127
1, 166950, Note_on_c, 1, 43, 127
1, 166979, Note_off_c, 1, 74, 0
1, 166979, Note_off_c, 1, 76, 0
1, 166979, Note_off_c, 1, 43, 0
1, 166980, Note_on_c, 1, 72, 127
1, 166980, Note_on_c, 1, 78, 127
1, 166980, Note_on_c, 1, 45, 127
1, 167009, Note_off_c, 1, 72, 0
1, 167009, Note_off_c, 1, 45, 0
1, 167010, Note_on_c, 1, 75, 127
1, 167010, Note_on_c, 1, 46, 127
1, 167039, Note_off_c, 1, 78, 0
1, 167039, Note_off_c, 1, 75, 0
1, 167039, Note_off_c, 1, 46, 0
1, 167040, Note_on_c, 1, 74, 127
1, 167040, Note_on_c, 1, 48, 127
1, 167069, Note_off_c, 1, 48, 0
1, 167070, Note_on_c, 1, 72, 127
1, 167070, Note_on_c, 1, 45, 127
1, 167099, Note_off_c, 1, 74, 0
1, 167099, Note_off_c, 1, 72, 0
1, 167099, Note_off_c, 1, 45, 0
1, 167100, Note_on_c, 1, 74, 127
1, 167100, Note_on_c, 1, 79, 127
1, 167100, Note_on_c, 1, 46, 127
1, 167129, Note_off_c, 1, 46, 0
1, 167130, Note_on_c, 1, 48, 127
1, 167159, Note_off_c, 1, 74, 0
1, 167159, Note_off_c, 1, 48, 0
1, 167160, Note_on_c, 1, 62, 127
1, 167190, Note_on_c, 1, 45, 127
1, 167219, Note_off_c, 1, 79, 0
1, 167219, Note_off_c, 1, 45, 0
1, 167220, Note_on_c, 1, 43, 127
1, 167249, Note_off_c, 1, 62, 0
1, 167249, Note_off_c, 1, 43, 0
1, 167250, Note_on_c, 1, 64, 127
1, 167250, Note_on_c, 1, 41, 127
1, 167279, Note_off_c, 1, 64, 0
1, 167279, Note_off_c, 1, 41, 0
1, 167280, Note_on_c, 1, 65, 127
1, 167280, Note_on_c, 1, 70, 127
1, 167280, Note_on_c, 1, 40, 127
1, 167309, Note_off_c, 1, 65, 0
1, 167309, Note_off_c, 1, 40, 0
1, 167310, Note_on_c, 1, 67, 127
1, 167310, Note_on_c, 1, 38, 127
1, 167339, Note_off_c, 1, 70, 0
1, 167339, Note_off_c, 1, 67, 0
1, 167339, Note_off_c, 1, 38, 0
1, 167340, Note_on_c, 1, 69, 127
1, 167340, Note_on_c, 1, 37, 127
1, 167369, Note_off_c, 1, 37, 0
1, 167370, Note_on_c, 1, 38, 127
1, 167399, Note_off_c, 1, 69, 0
1, 167399, Note_off_c, 1, 38, 0
1, 167400, Note_on_c, 1, 81, 127
1, 167400, Note_on_c, 1, 69, 127
1, 167400, Note_on_c, 1, 73, 127
1, 167400, Note_on_c, 1, 40, 127
1, 167429, Note_off_c, 1, 40, 0
1, 167430, Note_on_c, 1, 41, 127
1, 167459, Note_off_c, 1, 69, 0
1, 167459, Note_off_c, 1, 73, 0
1, 167459, Note_off_c, 1, 41, 0
1, 167460, Note_on_c, 1, 76, 127
1, 167460, Note_on_c, 1, 43, 127
1, 167489, Note_off_c, 1, 81, 0
1, 167489, Note_off_c, 1, 43, 0
1, 167490, Note_on_c, 1, 79, 127
1, 167490, Note_on_c, 1, 45, 127
1, 167519, Note_off_c, 1, 76, 0
1, 167519, Note_off_c, 1, 79, 0
1, 167519, Note_off_c, 1, 45, 0
1, 167520, Note_on_c, 1, 77, 127
1, 167520, Note_on_c, 1, 69, 127
1, 167520, Note_on_c, 1, 79, 127
1, 167520, Note_on_c, 1, 47, 127
1, 167549, Note_off_c, 1, 77, 0
1, 167549, Note_off_c, 1, 47, 0
1, 167550, Note_on_c, 1, 76, 127
1, 167550, Note_on_c, 1, 49, 127
1, 167579, Note_off_c, 1, 69, 0
1, 167579, Note_off_c, 1, 79, 0
1, 167579, Note_off_c, 1, 76, 0
1, 167579, Note_off_c, 1, 49, 0
1, 167580, Note_on_c, 1, 74, 127
1, 167580, Note_on_c, 1, 57, 127
1, 167580, Note_on_c, 1, 77, 127
1, 167580, Note_on_c, 1, 50, 127
1, 167609, Note_off_c, 1, 77, 0
1, 167609, Note_off_c, 1, 50, 0
1, 167610, Note_on_c, 1, 76, 127
1, 167610, Note_on_c, 1, 49, 127
1, 167639, Note_off_c, 1, 74, 0
1, 167639, Note_off_c, 1, 57, 0
1, 167639, Note_off_c, 1, 76, 0
1, 167639, Note_off_c, 1, 49, 0
1, 167640, Note_on_c, 1, 74, 127
1, 167640, Note_on_c, 1, 50, 127
1, 167669, Note_off_c, 1, 74, 0
1, 167669, Note_off_c, 1, 50, 0
1, 167670, Note_on_c, 1, 73, 127
1, 167670, Note_on_c, 1, 52, 127
1, 167699, Note_off_c, 1, 73, 0
1, 167699, Note_off_c, 1, 52, 0
1, 167700, Note_on_c, 1, 74, 127
1, 167700, Note_on_c, 1, 53, 127
1, 167729, Note_off_c, 1, 53, 0
1, 167730, Note_on_c, 1, 52, 127
1, 167759, Note_off_c, 1, 74, 0
1, 167759, Note_off_c, 1, 52, 0
1, 167760, Note_on_c, 1, 71, 127
1, 167760, Note_on_c, 1, 53, 127
1, 167789, Note_off_c, 1, 53, 0
1, 167790, Note_on_c, 1, 55, 127
1, 167819, Note_off_c, 1, 71, 0
1, 167819, Note_off_c, 1, 55, 0
1, 167820, Note_on_c, 1, 74, 127
1, 167820, Note_on_c, 1, 57, 127
1, 167879, Note_off_c, 1, 57, 0
1, 167880, Note_on_c, 1, 55, 127
1, 167939, Note_off_c, 1, 74, 0
1, 167939, Note_off_c, 1, 55, 0
1, 167940, Note_on_c, 1, 73, 127
1, 167940, Note_on_c, 1, 57, 127
1, 167959, Note_off_c, 1, 73, 0
1, 167960, Note_on_c, 1, 74, 127
1, 167979, Note_off_c, 1, 74, 0
1, 167999, Note_off_c, 1, 57, 0
1, 168000, Note_on_c, 1, 74, 127
1, 168000, Note_on_c, 1, 45, 127
1, 168014, Note_off_c, 1, 74, 0
1, 168015, Note_on_c, 1, 73, 127
1, 168029, Note_off_c, 1, 73, 0
1, 168059, Note_off_c, 1, 45, 0
1, 168060, Note_on_c, 1, 74, 127
1, 168060, Note_on_c, 1, 38, 127
1, 168119, Note_off_c, 1, 38, 0
1, 168120, Note_on_c, 1, 62, 127
1, 168179, Note_off_c, 1, 74, 0
1, 168180, Note_on_c, 1, 50, 127
1, 168209, Note_off_c, 1, 62, 0
1, 168210, Note_on_c, 1, 64, 127
1, 168239, Note_off_c, 1, 50, 0
1, 168239, Note_off_c, 1, 64, 0
1, 168240, Note_on_c, 1, 65, 127
1, 168269, Note_off_c, 1, 65, 0
1, 168270, Note_on_c, 1, 67, 127
1, 168299, Note_off_c, 1, 67, 0
1, 168300, Note_on_c, 1, 69, 127
1, 168300, Note_on_c, 1, 49, 127
1, 168359, Note_off_c, 1, 69, 0
1, 168359, Note_off_c, 1, 49, 0
1, 168360, Note_on_c, 1, 69, 127
1, 168419, Note_off_c, 1, 69, 0
1, 168420, Note_on_c, 1, 69, 127
1, 168420, Note_on_c, 1, 50, 127
1, 168479, Note_off_c, 1, 69, 0
1, 168479, Note_off_c, 1, 50, 0
1, 168480, Note_on_c, 1, 69, 127
1, 168539, Note_off_c, 1, 69, 0
1, 168540, Note_on_c, 1, 70, 127
1, 168540, Note_on_c, 1, 43, 127
1, 168569, Note_off_c, 1, 70, 0
1, 168570, Note_on_c, 1, 69, 127
1, 168599, Note_off_c, 1, 43, 0
1, 168599, Note_off_c, 1, 69, 0
1, 168600, Note_on_c, 1, 70, 127
1, 168629, Note_off_c, 1, 70, 0
1, 168630, Note_on_c, 1, 72, 127
1, 168659, Note_off_c, 1, 72, 0
1, 168660, Note_on_c, 1, 70, 127
1, 168660, Note_on_c, 1, 48, 127
1, 168689, Note_off_c, 1, 70, 0
1, 168690, Note_on_c, 1, 69, 127
1, 168719, Note_off_c, 1, 48, 0
1, 168719, Note_off_c, 1, 69, 0
1, 168720, Note_on_c, 1, 67, 127
1, 168749, Note_off_c, 1, 67, 0
1, 168750, Note_on_c, 1, 70, 127
1, 168779, Note_off_c, 1, 70, 0
1, 168780, Note_on_c, 1, 69, 127
1, 168780, Note_on_c, 1, 41, 127
1, 168809, Note_off_c, 1, 69, 0
1, 168810, Note_on_c, 1, 67, 127
1, 168839, Note_off_c, 1, 41, 0
1, 168839, Note_off_c, 1, 67, 0
1, 168840, Note_on_c, 1, 69, 127
1, 168869, Note_off_c, 1, 69, 0
1, 168870, Note_on_c, 1, 70, 127
1, 168899, Note_off_c, 1, 70, 0
1, 168900, Note_on_c, 1, 69, 127
1, 168900, Note_on_c, 1, 46, 127
1, 168929, Note_off_c, 1, 69, 0
1, 168930, Note_on_c, 1, 67, 127
1, 168959, Note_off_c, 1, 46, 0
1, 168959, Note_off_c, 1, 67, 0
1, 168960, Note_on_c, 1, 65, 127
1, 168989, Note_off_c, 1, 65, 0
1, 168990, Note_on_c, 1, 69, 127
1, 169019, Note_off_c, 1, 69, 0
1, 169020, Note_on_c, 1, 67, 127
1, 169020, Note_on_c, 1, 40, 127
1, 169049, Note_off_c, 1, 67, 0
1, 169050, Note_on_c, 1, 65, 127
1, 169079, Note_off_c, 1, 40, 0
1, 169079, Note_off_c, 1, 65, 0
1, 169080, Note_on_c, 1, 67, 127
1, 169109, Note_off_c, 1, 67, 0
1, 169110, Note_on_c, 1, 69, 127
1, 169139, Note_off_c, 1, 69, 0
1, 169140, Note_on_c, 1, 67, 127
1, 169140, Note_on_c, 1, 45, 127
1, 169169, Note_off_c, 1, 67, 0
1, 169170, Note_on_c, 1, 65, 127
1, 169199, Note_off_c, 1, 45, 0
1, 169199, Note_off_c, 1, 65, 0
1, 169200, Note_on_c, 1, 64, 127
1, 169229, Note_off_c, 1, 64, 0
1, 169230, Note_on_c, 1, 67, 127
1, 169259, Note_off_c, 1, 67, 0
1, 169260, Note_on_c, 1, 65, 127
1, 169260, Note_on_c, 1, 38, 127
1, 169289, Note_off_c, 1, 65, 0
1, 169290, Note_on_c, 1, 64, 127
1, 169319, Note_off_c, 1, 38, 0
1, 169319, Note_off_c, 1, 64, 0
1, 169320, Note_on_c, 1, 62, 127
1, 169320, Note_on_c, 1, 50, 127
1, 169349, Note_off_c, 1, 62, 0
1, 169350, Note_on_c, 1, 64, 127
1, 169379, Note_off_c, 1, 50, 0
1, 169379, Note_off_c, 1, 64, 0
1, 169380, Note_on_c, 1, 66, 127
1, 169380, Note_on_c, 1, 48, 127
1, 169409, Note_off_c, 1, 66, 0
1, 169410, Note_on_c, 1, 68, 127
1, 169439, Note_off_c, 1, 48, 0
1, 169439, Note_off_c, 1, 68, 0
1, 169440, Note_on_c, 1, 69, 127
1, 169440, Note_on_c, 1, 47, 127
1, 169469, Note_off_c, 1, 69, 0
1, 169470, Note_on_c, 1, 71, 127
1, 169499, Note_off_c, 1, 47, 0
1, 169499, Note_off_c, 1, 71, 0
1, 169500, Note_on_c, 1, 81, 127
1, 169500, Note_on_c, 1, 72, 127
1, 169500, Note_on_c, 1, 45, 127
1, 169529, Note_off_c, 1, 72, 0
1, 169530, Note_on_c, 1, 71, 127
1, 169559, Note_off_c, 1, 81, 0
1, 169559, Note_off_c, 1, 45, 0
1, 169559, Note_off_c, 1, 71, 0
1, 169560, Note_on_c, 1, 69, 127
1, 169590, Note_on_c, 1, 71, 127
1, 169619, Note_off_c, 1, 71, 0
1, 169620, Note_on_c, 1, 72, 127
1, 169620, Note_on_c, 1, 57, 127
1, 169649, Note_off_c, 1, 69, 0
1, 169649, Note_off_c, 1, 72, 0
1, 169650, Note_on_c, 1, 74, 127
1, 169679, Note_off_c, 1, 57, 0
1, 169679, Note_off_c, 1, 74, 0
1, 169680, Note_on_c, 1, 72, 127
1, 169680, Note_on_c, 1, 76, 127
1, 169709, Note_off_c, 1, 72, 0
1, 169709, Note_off_c, 1, 76, 0
1, 169710, Note_on_c, 1, 74, 127
1, 169710, Note_on_c, 1, 77, 127
1, 169739, Note_off_c, 1, 74, 0
1, 169739, Note_off_c, 1, 77, 0
1, 169740, Note_on_c, 1, 76, 127
1, 169740, Note_on_c, 1, 71, 127
1, 169740, Note_on_c, 1, 56, 127
1, 169769, Note_off_c, 1, 71, 0
1, 169770, Note_on_c, 1, 72, 127
1, 169799, Note_off_c, 1, 76, 0
1, 169799, Note_off_c, 1, 56, 0
1, 169799, Note_off_c, 1, 72, 0
1, 169800, Note_on_c, 1, 76, 127
1, 169800, Note_on_c, 1, 74, 127
1, 169829, Note_off_c, 1, 74, 0
1, 169830, Note_on_c, 1, 71, 127
1, 169859, Note_off_c, 1, 76, 0
1, 169859, Note_off_c, 1, 71, 0
1, 169860, Note_on_c, 1, 76, 127
1, 169860, Note_on_c, 1, 72, 127
1, 169860, Note_on_c, 1, 57, 127
1, 169919, Note_off_c, 1, 76, 0
1, 169919, Note_off_c, 1, 72, 0
1, 169919, Note_off_c, 1, 57, 0
1, 169920, Note_on_c, 1, 76, 127
1, 169920, Note_on_c, 1, 72, 127
1, 169979, Note_off_c, 1, 76, 0
1, 169980, Note_on_c, 1, 77, 127
1, 169980, Note_on_c, 1, 50, 127
1, 170009, Note_off_c, 1, 77, 0
1, 170039, Note_off_c, 1, 72, 0
1, 170039, Note_off_c, 1, 50, 0
1, 170040, Note_on_c, 1, 77, 127
1, 170040, Note_on_c, 1, 71, 127
1, 170069, Note_off_c, 1, 77, 0
1, 170069, Note_off_c, 1, 71, 0
1, 170070, Note_on_c, 1, 79, 127
1, 170070, Note_on_c, 1, 69, 127
1, 170099, Note_off_c, 1, 79, 0
1, 170099, Note_off_c, 1, 69, 0
1, 170100, Note_on_c, 1, 77, 127
1, 170100, Note_on_c, 1, 71, 127
1, 170100, Note_on_c, 1, 55, 127
1, 170129, Note_off_c, 1, 77, 0
1, 170130, Note_on_c, 1, 76, 127
1, 170159, Note_off_c, 1, 71, 0
1, 170159, Note_off_c, 1, 55, 0
1, 170159, Note_off_c, 1, 76, 0
1, 170160, Note_on_c, 1, 74, 127
1, 170160, Note_on_c, 1, 71, 127
1, 170189, Note_off_c, 1, 74, 0
1, 170190, Note_on_c, 1, 77, 127
1, 170219, Note_off_c, 1, 77, 0
1, 170220, Note_on_c, 1, 76, 127
1, 170220, Note_on_c, 1, 48, 127
1, 170249, Note_off_c, 1, 76, 0
1, 170279, Note_off_c, 1, 71, 0
1, 170279, Note_off_c, 1, 48, 0
1, 170280, Note_on_c, 1, 76, 127
1, 170280, Note_on_c, 1, 69, 127
1, 170309, Note_off_c, 1, 76, 0
1, 170309, Note_off_c, 1, 69, 0
1, 170310, Note_on_c, 1, 77, 127
1, 170310, Note_on_c, 1, 68, 127
1, 170339, Note_off_c, 1, 77, 0
1, 170339, Note_off_c, 1, 68, 0
1, 170340, Note_on_c, 1, 76, 127
1, 170340, Note_on_c, 1, 69, 127
1, 170340, Note_on_c, 1, 53, 127
1, 170369, Note_off_c, 1, 76, 0
1, 170370, Note_on_c, 1, 74, 127
1, 170399, Note_off_c, 1, 69, 0
1, 170399, Note_off_c, 1, 53, 0
1, 170399, Note_off_c, 1, 74, 0
1, 170400, Note_on_c, 1, 72, 127
1, 170400, Note_on_c, 1, 69, 127
1, 170429, Note_off_c, 1, 72, 0
1, 170430, Note_on_c, 1, 76, 127
1, 170459, Note_off_c, 1, 76, 0
1, 170460, Note_on_c, 1, 74, 127
1, 170460, Note_on_c, 1, 47, 127
1, 170489, Note_off_c, 1, 74, 0
1, 170519, Note_off_c, 1, 69, 0
1, 170519, Note_off_c, 1, 47, 0
1, 170520, Note_on_c, 1, 74, 127
1, 170520, Note_on_c, 1, 68, 127
1, 170549, Note_off_c, 1, 74, 0
1, 170549, Note_off_c, 1, 68, 0
1, 170550, Note_on_c, 1, 76, 127
1, 170550, Note_on_c, 1, 66, 127
1, 170579, Note_off_c, 1, 76, 0
1, 170579, Note_off_c, 1, 66, 0
1, 170580, Note_on_c, 1, 74, 127
1, 170580, Note_on_c, 1, 68, 127
1, 170580, Note_on_c, 1, 52, 127
1, 170599, Note_off_c, 1, 68, 0
1, 170600, Note_on_c, 1, 69, 127
1, 170609, Note_off_c, 1, 74, 0
1, 170610, Note_on_c, 1, 72, 127
1, 170619, Note_off_c, 1, 69, 0
1, 170639, Note_off_c, 1, 52, 0
1, 170639, Note_off_c, 1, 72, 0
1, 170640, Note_on_c, 1, 71, 127
1, 170640, Note_on_c, 1, 69, 127
1, 170654, Note_off_c, 1, 69, 0
1, 170655, Note_on_c, 1, 68, 127
1, 170669, Note_off_c, 1, 71, 0
1, 170669, Note_off_c, 1, 68, 0
1, 170670, Note_on_c, 1, 74, 127
1, 170670, Note_on_c, 1, 69, 127
1, 170684, Note_off_c, 1, 69, 0
1, 170685, Note_on_c, 1, 68, 127
1, 170699, Note_off_c, 1, 74, 0
1, 170699, Note_off_c, 1, 68, 0
1, 170700, Note_on_c, 1, 72, 127
1, 170700, Note_on_c, 1, 69, 127
1, 170700, Note_on_c, 1, 45, 127
1, 170729, Note_off_c, 1, 72, 0
1, 170730, Note_on_c, 1, 71, 127
1, 170759, Note_off_c, 1, 69, 0
1, 170759, Note_off_c, 1, 45, 0
1, 170759, Note_off_c, 1, 71, 0
1, 170760, Note_on_c, 1, 69, 127
1, 170760, Note_on_c, 1, 57, 127
1, 170789, Note_off_c, 1, 69, 0
1, 170790, Note_on_c, 1, 71, 127
1, 170819, Note_off_c, 1, 57, 0
1, 170819, Note_off_c, 1, 71, 0
1, 170820, Note_on_c, 1, 73, 127
1, 170820, Note_on_c, 1, 55, 127
1, 170849, Note_off_c, 1, 73, 0
1, 170850, Note_on_c, 1, 74, 127
1, 170879, Note_off_c, 1, 55, 0
1, 170879, Note_off_c, 1, 74, 0
1, 170880, Note_on_c, 1, 76, 127
1, 170880, Note_on_c, 1, 69, 127
1, 170880, Note_on_c, 1, 53, 127
1, 170909, Note_off_c, 1, 76, 0
1, 170910, Note_on_c, 1, 77, 127
1, 170939, Note_off_c, 1, 69, 0
1, 170939, Note_off_c, 1, 53, 0
1, 170939, Note_off_c, 1, 77, 0
1, 170940, Note_on_c, 1, 79, 127
1, 170940, Note_on_c, 1, 70, 127
1, 170940, Note_on_c, 1, 52, 127
1, 170969, Note_off_c, 1, 79, 0
1, 170970, Note_on_c, 1, 77, 127
1, 170999, Note_off_c, 1, 70, 0
1, 170999, Note_off_c, 1, 52, 0
1, 170999, Note_off_c, 1, 77, 0
1, 171000, Note_on_c, 1, 79, 127
1, 171000, Note_on_c, 1, 67, 127
1, 171029, Note_off_c, 1, 79, 0
1, 171030, Note_on_c, 1, 81, 127
1, 171059, Note_off_c, 1, 67, 0
1, 171059, Note_off_c, 1, 81, 0
1, 171060, Note_on_c, 1, 79, 127
1, 171060, Note_on_c, 1, 64, 127
1, 171060, Note_on_c, 1, 57, 127
1, 171089, Note_off_c, 1, 79, 0
1, 171090, Note_on_c, 1, 77, 127
1, 171119, Note_off_c, 1, 64, 0
1, 171119, Note_off_c, 1, 57, 0
1, 171119, Note_off_c, 1, 77, 0
1, 171120, Note_on_c, 1, 76, 127
1, 171120, Note_on_c, 1, 73, 127
1, 171149, Note_off_c, 1, 76, 0
1, 171150, Note_on_c, 1, 79, 127
1, 171179, Note_off_c, 1, 73, 0
1, 171179, Note_off_c, 1, 79, 0
1, 171180, Note_on_c, 1, 77, 127
1, 171180, Note_on_c, 1, 74, 127
1, 171180, Note_on_c, 1, 50, 127
1, 171239, Note_off_c, 1, 77, 0
1, 171239, Note_off_c, 1, 74, 0
1, 171239, Note_off_c, 1, 50, 0
1, 171240, Note_on_c, 1, 74, 127
1, 171240, Note_on_c, 1, 62, 127
1, 171270, Note_on_c, 1, 64, 127
1, 171299, Note_off_c, 1, 74, 0
1, 171299, Note_off_c, 1, 62, 0
1, 171299, Note_off_c, 1, 64, 0
1, 171300, Note_on_c, 1, 66, 127
1, 171300, Note_on_c, 1, 60, 127
1, 171329, Note_off_c, 1, 66, 0
1, 171330, Note_on_c, 1, 67, 127
1, 171359, Note_off_c, 1, 60, 0
1, 171359, Note_off_c, 1, 67, 0
1, 171360, Note_on_c, 1, 74, 127
1, 171360, Note_on_c, 1, 69, 127
1, 171360, Note_on_c, 1, 59, 127
1, 171389, Note_off_c, 1, 69, 0
1, 171390, Note_on_c, 1, 70, 127
1, 171419, Note_off_c, 1, 74, 0
1, 171419, Note_off_c, 1, 59, 0
1, 171419, Note_off_c, 1, 70, 0
1, 171420, Note_on_c, 1, 75, 127
1, 171420, Note_on_c, 1, 72, 127
1, 171420, Note_on_c, 1, 57, 127
1, 171449, Note_off_c, 1, 72, 0
1, 171450, Note_on_c, 1, 70, 127
1, 171479, Note_off_c, 1, 75, 0
1, 171479, Note_off_c, 1, 57, 0
1, 171479, Note_off_c, 1, 70, 0
1, 171480, Note_on_c, 1, 72, 127
1, 171510, Note_on_c, 1, 74, 127
1, 171539, Note_off_c, 1, 72, 0
1, 171539, Note_off_c, 1, 74, 0
1, 171540, Note_on_c, 1, 69, 127
1, 171540, Note_on_c, 1, 72, 127
1, 171540, Note_on_c, 1, 50, 127
1, 171569, Note_off_c, 1, 72, 0
1, 171570, Note_on_c, 1, 70, 127
1, 171599, Note_off_c, 1, 69, 0
1, 171599, Note_off_c, 1, 50, 0
1, 171599, Note_off_c, 1, 70, 0
1, 171600, Note_on_c, 1, 78, 127
1, 171600, Note_on_c, 1, 69, 127
1, 171629, Note_off_c, 1, 69, 0
1, 171630, Note_on_c, 1, 72, 127
1, 171659, Note_off_c, 1, 78, 0
1, 171659, Note_off_c, 1, 72, 0
1, 171660, Note_on_c, 1, 79, 127
1, 171660, Note_on_c, 1, 70, 127
1, 171660, Note_on_c, 1, 43, 127
1, 171689, Note_off_c, 1, 70, 0
1, 171690, Note_on_c, 1, 69, 127
1, 171719, Note_off_c, 1, 79, 0
1, 171719, Note_off_c, 1, 43, 0
1, 171719, Note_off_c, 1, 69, 0
1, 171720, Note_on_c, 1, 67, 127
1, 171720, Note_on_c, 1, 71, 127
1, 171720, Note_on_c, 1, 55, 127
1, 171749, Note_off_c, 1, 67, 0
1, 171749, Note_off_c, 1, 71, 0
1, 171750, Note_on_c, 1, 69, 127
1, 171750, Note_on_c, 1, 73, 127
1, 171779, Note_off_c, 1, 55, 0
1, 171779, Note_off_c, 1, 69, 0
1, 171779, Note_off_c, 1, 73, 0
1, 171780, Note_on_c, 1, 71, 127
1, 171780, Note_on_c, 1, 74, 127
1, 171780, Note_on_c, 1, 53, 127
1, 171809, Note_off_c, 1, 71, 0
1, 171809, Note_off_c, 1, 74, 0
1, 171810, Note_on_c, 1, 73, 127
1, 171810, Note_on_c, 1, 76, 127
1, 171839, Note_off_c, 1, 53, 0
1, 171839, Note_off_c, 1, 73, 0
1, 171839, Note_off_c, 1, 76, 0
1, 171840, Note_on_c, 1, 74, 127
1, 171840, Note_on_c, 1, 77, 127
1, 171840, Note_on_c, 1, 52, 127
1, 171869, Note_off_c, 1, 74, 0
1, 171869, Note_off_c, 1, 77, 0
1, 171870, Note_on_c, 1, 76, 127
1, 171870, Note_on_c, 1, 79, 127
1, 171899, Note_off_c, 1, 52, 0
1, 171899, Note_off_c, 1, 76, 0
1, 171899, Note_off_c, 1, 79, 0
1, 171900, Note_on_c, 1, 77, 127
1, 171900, Note_on_c, 1, 81, 127
1, 171900, Note_on_c, 1, 50, 127
1, 171929, Note_off_c, 1, 77, 0
1, 171929, Note_off_c, 1, 81, 0
1, 171930, Note_on_c, 1, 79, 127
1, 171930, Note_on_c, 1, 82, 127
1, 171959, Note_off_c, 1, 50, 0
1, 171959, Note_off_c, 1, 79, 0
1, 171959, Note_off_c, 1, 82, 0
1, 171960, Note_on_c, 1, 76, 127
1, 171960, Note_on_c, 1, 79, 127
1, 171960, Note_on_c, 1, 38, 127
1, 171989, Note_off_c, 1, 76, 0
1, 171989, Note_off_c, 1, 79, 0
1, 171990, Note_on_c, 1, 77, 127
1, 171990, Note_on_c, 1, 81, 127
1, 172019, Note_off_c, 1, 77, 0
1, 172019, Note_off_c, 1, 81, 0
1, 172020, Note_on_c, 1, 82, 127
1, 172049, Note_off_c, 1, 38, 0
1, 172049, Note_off_c, 1, 82, 0
1, 172050, Note_on_c, 1, 77, 127
1, 172050, Note_on_c, 1, 81, 127
1, 172050, Note_on_c, 1, 40, 127
1, 172079, Note_off_c, 1, 77, 0
1, 172079, Note_off_c, 1, 81, 0
1, 172079, Note_off_c, 1, 40, 0
1, 172080, Note_on_c, 1, 76, 127
1, 172080, Note_on_c, 1, 79, 127
1, 172080, Note_on_c, 1, 41, 127
1, 172109, Note_off_c, 1, 76, 0
1, 172109, Note_off_c, 1, 79, 0
1, 172109, Note_off_c, 1, 41, 0
1, 172110, Note_on_c, 1, 74, 127
1, 172110, Note_on_c, 1, 77, 127
1, 172110, Note_on_c, 1, 43, 127
1, 172139, Note_off_c, 1, 74, 0
1, 172139, Note_off_c, 1, 77, 0
1, 172139, Note_off_c, 1, 43, 0
1, 172140, Note_on_c, 1, 73, 127
1, 172140, Note_on_c, 1, 76, 127
1, 172140, Note_on_c, 1, 45, 127
1, 172169, Note_off_c, 1, 76, 0
1, 172170, Note_on_c, 1, 74, 127
1, 172199, Note_off_c, 1, 73, 0
1, 172199, Note_off_c, 1, 45, 0
1, 172199, Note_off_c, 1, 74, 0
1, 172200, Note_on_c, 1, 69, 127
1, 172200, Note_on_c, 1, 73, 127
1, 172200, Note_on_c, 1, 45, 127
1, 172229, Note_off_c, 1, 73, 0
1, 172230, Note_on_c, 1, 71, 127
1, 172259, Note_off_c, 1, 69, 0
1, 172259, Note_off_c, 1, 45, 0
1, 172259, Note_off_c, 1, 71, 0
1, 172260, Note_on_c, 1, 69, 127
1, 172260, Note_on_c, 1, 45, 127
1, 172289, Note_off_c, 1, 69, 0
1, 172290, Note_on_c, 1, 71, 127
1, 172319, Note_off_c, 1, 45, 0
1, 172319, Note_off_c, 1, 71, 0
1, 172320, Note_on_c, 1, 81, 127
1, 172320, Note_on_c, 1, 73, 127
1, 172320, Note_on_c, 1, 45, 127
1, 172349, Note_off_c, 1, 73, 0
1, 172350, Note_on_c, 1, 69, 127
1, 172379, Note_off_c, 1, 45, 0
1, 172379, Note_off_c, 1, 69, 0
1, 172380, Note_on_c, 1, 74, 127
1, 172380, Note_on_c, 1, 46, 127
1, 172409, Note_off_c, 1, 46, 0
1, 172439, Note_off_c, 1, 81, 0
1, 172439, Note_off_c, 1, 74, 0
1, 172440, Note_on_c, 1, 79, 127
1, 172440, Note_on_c, 1, 74, 127
1, 172440, Note_on_c, 1, 46, 127
1, 172469, Note_off_c, 1, 79, 0
1, 172469, Note_off_c, 1, 46, 0
1, 172470, Note_on_c, 1, 77, 127
1, 172470, Note_on_c, 1, 48, 127
1, 172499, Note_off_c, 1, 77, 0
1, 172499, Note_off_c, 1, 48, 0
1, 172530, Note_on_c, 1, 45, 127
1, 172559, Note_off_c, 1, 74, 0
1, 172559, Note_off_c, 1, 45, 0
1, 172560, Note_on_c, 1, 79, 127
1, 172560, Note_on_c, 1, 76, 127
1, 172560, Note_on_c, 1, 43, 127
1, 172589, Note_off_c, 1, 76, 0
1, 172589, Note_off_c, 1, 43, 0
1, 172590, Note_on_c, 1, 74, 127
1, 172590, Note_on_c, 1, 46, 127
1, 172619, Note_off_c, 1, 74, 0
1, 172619, Note_off_c, 1, 46, 0
1, 172620, Note_on_c, 1, 72, 127
1, 172620, Note_on_c, 1, 45, 127
1, 172649, Note_off_c, 1, 45, 0
1, 172679, Note_off_c, 1, 79, 0
1, 172679, Note_off_c, 1, 72, 0
1, 172680, Note_on_c, 1, 77, 127
1, 172680, Note_on_c, 1, 72, 127
1, 172680, Note_on_c, 1, 45, 127
1, 172709, Note_off_c, 1, 77, 0
1, 172709, Note_off_c, 1, 45, 0
1, 172710, Note_on_c, 1, 76, 127
1, 172710, Note_on_c, 1, 46, 127
1, 172739, Note_off_c, 1, 76, 0
1, 172739, Note_off_c, 1, 46, 0
1, 172770, Note_on_c, 1, 43, 127
1, 172799, Note_off_c, 1, 72, 0
1, 172799, Note_off_c, 1, 43, 0
1, 172800, Note_on_c, 1, 77, 127
1, 172800, Note_on_c, 1, 74, 127
1, 172800, Note_on_c, 1, 41, 127
1, 172829, Note_off_c, 1, 74, 0
1, 172829, Note_off_c, 1, 41, 0
1, 172830, Note_on_c, 1, 72, 127
1, 172830, Note_on_c, 1, 45, 127
1, 172859, Note_off_c, 1, 72, 0
1, 172859, Note_off_c, 1, 45, 0
1, 172860, Note_on_c, 1, 70, 127
1, 172860, Note_on_c, 1, 43, 127
1, 172889, Note_off_c, 1, 43, 0
1, 172919, Note_off_c, 1, 77, 0
1, 172919, Note_off_c, 1, 70, 0
1, 172920, Note_on_c, 1, 76, 127
1, 172920, Note_on_c, 1, 70, 127
1, 172920, Note_on_c, 1, 43, 127
1, 172949, Note_off_c, 1, 76, 0
1, 172949, Note_off_c, 1, 43, 0
1, 172950, Note_on_c, 1, 74, 127
1, 172950, Note_on_c, 1, 45, 127
1, 172979, Note_off_c, 1, 74, 0
1, 172979, Note_off_c, 1, 45, 0
1, 173010, Note_on_c, 1, 41, 127
1, 173039, Note_off_c, 1, 70, 0
1, 173039, Note_off_c, 1, 41, 0
1, 173040, Note_on_c, 1, 76, 127
1, 173040, Note_on_c, 1, 72, 127
1, 173040, Note_on_c, 1, 40, 127
1, 173069, Note_off_c, 1, 72, 0
1, 173069, Note_off_c, 1, 40, 0
1, 173070, Note_on_c, 1, 70, 127
1, 173070, Note_on_c, 1, 43, 127
1, 173099, Note_off_c, 1, 70, 0
1, 173099, Note_off_c, 1, 43, 0
1, 173100, Note_on_c, 1, 69, 127
1, 173100, Note_on_c, 1, 41, 127
1, 173129, Note_off_c, 1, 41, 0
1, 173159, Note_off_c, 1, 76, 0
1, 173159, Note_off_c, 1, 69, 0
1, 173160, Note_on_c, 1, 74, 127
1, 173160, Note_on_c, 1, 41, 127
1, 173189, Note_off_c, 1, 74, 0
1, 173189, Note_off_c, 1, 41, 0
1, 173190, Note_on_c, 1, 73, 127
1, 173190, Note_on_c, 1, 76, 127
1, 173190, Note_on_c, 1, 43, 127
1, 173219, Note_off_c, 1, 73, 0
1, 173219, Note_off_c, 1, 76, 0
1, 173219, Note_off_c, 1, 43, 0
1, 173220, Note_on_c, 1, 74, 127
1, 173220, Note_on_c, 1, 77, 127
1, 173220, Note_on_c, 1, 45, 127
1, 173249, Note_off_c, 1, 45, 0
1, 173250, Note_on_c, 1, 47, 127
1, 173279, Note_off_c, 1, 77, 0
1, 173279, Note_off_c, 1, 47, 0
1, 173280, Note_on_c, 1, 69, 127
1, 173280, Note_on_c, 1, 49, 127
1, 173309, Note_off_c, 1, 49, 0
1, 173310, Note_on_c, 1, 50, 127
1, 173339, Note_off_c, 1, 69, 0
1, 173339, Note_off_c, 1, 50, 0
1, 173340, Note_on_c, 1, 67, 127
1, 173340, Note_on_c, 1, 52, 127
1, 173369, Note_off_c, 1, 52, 0
1, 173399, Note_off_c, 1, 74, 0
1, 173400, Note_on_c, 1, 73, 127
1, 173429, Note_off_c, 1, 73, 0
1, 173430, Note_on_c, 1, 53, 127
1, 173459, Note_off_c, 1, 53, 0
1, 173460, Note_on_c, 1, 76, 127
1, 173460, Note_on_c, 1, 55, 127
1, 173489, Note_off_c, 1, 55, 0
1, 173490, Note_on_c, 1, 57, 127
1, 173519, Note_off_c, 1, 67, 0
1, 173519, Note_off_c, 1, 76, 0
1, 173519, Note_off_c, 1, 57, 0
1, 173520, Note_on_c, 1, 69, 127
1, 173520, Note_on_c, 1, 65, 127
1, 173520, Note_on_c, 1, 59, 127
1, 173549, Note_off_c, 1, 65, 0
1, 173549, Note_off_c, 1, 59, 0
1, 173550, Note_on_c, 1, 64, 127
1, 173550, Note_on_c, 1, 61, 127
1, 173579, Note_off_c, 1, 64, 0
1, 173579, Note_off_c, 1, 61, 0
1, 173580, Note_on_c, 1, 62, 127
1, 173639, Note_off_c, 1, 69, 0
1, 173639, Note_off_c, 1, 62, 0
1, 173640, Note_on_c, 1, 67, 127
1, 173640, Note_on_c, 1, 64, 127
1, 173640, Note_on_c, 1, 55, 127
1, 173669, Note_off_c, 1, 67, 0
1, 173669, Note_off_c, 1, 64, 0
1, 173670, Note_on_c, 1, 65, 127
1, 173670, Note_on_c, 1, 62, 127
1, 173699, Note_off_c, 1, 55, 0
1, 173699, Note_off_c, 1, 65, 0
1, 173699, Note_off_c, 1, 62, 0
1, 173700, Note_on_c, 1, 64, 127
1, 173700, Note_on_c, 1, 61, 127
1, 173700, Note_on_c, 1, 57, 127
1, 173719, Note_off_c, 1, 64, 0
1, 173719, Note_off_c, 1, 61, 0
1, 173720, Note_on_c, 1, 65, 127
1, 173720, Note_on_c, 1, 62, 127
1, 173739, Note_off_c, 1, 65, 0
1, 173739, Note_off_c, 1, 62, 0
1, 173759, Note_off_c, 1, 57, 0
1, 173760, Note_on_c, 1, 65, 127
1, 173760, Note_on_c, 1, 62, 127
1, 173760, Note_on_c, 1, 45, 127
1, 173774, Note_off_c, 1, 65, 0
1, 173774, Note_off_c, 1, 62, 0
1, 173775, Note_on_c, 1, 64, 127
1, 173775, Note_on_c, 1, 61, 127
1, 173789, Note_off_c, 1, 64, 0
1, 173789, Note_off_c, 1, 61, 0
1, 173819, Note_off_c, 1, 45, 0
1, 173820, Note_on_c, 1, 62, 127
1, 173820, Note_on_c, 1, 50, 127
1, 173939, Note_off_c, 1, 62, 0
1, 173940, Note_off_c, 1, 50, 0
1, 174300, Note_on_c, 1, 53, 127
1, 174300, Note_on_c, 1, 41, 127
1, 174360, Note_on_c, 1, 72, 127
1, 174360, Note_on_c, 1, 69, 127
1, 174389, Note_off_c, 1, 72, 0
1, 174389, Note_off_c, 1, 69, 0
1, 174390, Note_on_c, 1, 70, 127
1, 174390, Note_on_c, 1, 67, 127
1, 174419, Note_off_c, 1, 53, 0
1, 174419, Note_off_c, 1, 41, 0
1, 174419, Note_off_c, 1, 70, 0
1, 174419, Note_off_c, 1, 67, 0
1, 174420, Note_on_c, 1, 72, 127
1, 174420, Note_on_c, 1, 69, 127
1, 174479, Note_off_c, 1, 72, 0
1, 174479, Note_off_c, 1, 69, 0
1, 174480, Note_on_c, 1, 74, 127
1, 174480, Note_on_c, 1, 70, 127
1, 174480, Note_on_c, 1, 65, 127
1, 174509, Note_off_c, 1, 65, 0
1, 174510, Note_on_c, 1, 64, 127
1, 174539, Note_off_c, 1, 74, 0
1, 174539, Note_off_c, 1, 70, 0
1, 174539, Note_off_c, 1, 64, 0
1, 174540, Note_on_c, 1, 74, 127
1, 174540, Note_on_c, 1, 70, 127
1, 174540, Note_on_c, 1, 65, 127
1, 174599, Note_off_c, 1, 74, 0
1, 174599, Note_off_c, 1, 70, 0
1, 174599, Note_off_c, 1, 65, 0
1, 174600, Note_on_c, 1, 70, 127
1, 174600, Note_on_c, 1, 67, 127
1, 174600, Note_on_c, 1, 65, 127
1, 174659, Note_off_c, 1, 70, 0
1, 174659, Note_off_c, 1, 67, 0
1, 174659, Note_off_c, 1, 65, 0
1, 174660, Note_on_c, 1, 72, 127
1, 174660, Note_on_c, 1, 69, 127
1, 174660, Note_on_c, 1, 65, 127
1, 174660, Note_on_c, 1, 41, 127
1, 174660, Note_on_c, 1, 53, 127
1, 174719, Note_off_c, 1, 72, 0
1, 174719, Note_off_c, 1, 69, 0
1, 174719, Note_off_c, 1, 65, 0
1, 174720, Note_on_c, 1, 60, 127
1, 174779, Note_off_c, 1, 41, 0
1, 174779, Note_off_c, 1, 53, 0
1, 174779, Note_off_c, 1, 60, 0
1, 174780, Note_on_c, 1, 69, 127
1, 174780, Note_on_c, 1, 65, 127
1, 174839, Note_off_c, 1, 69, 0
1, 174839, Note_off_c, 1, 65, 0
1, 174840, Note_on_c, 1, 70, 127
1, 174840, Note_on_c, 1, 67, 127
1, 174840, Note_on_c, 1, 60, 127
1, 174869, Note_off_c, 1, 60, 0
1, 174870, Note_on_c, 1, 58, 127
1, 174899, Note_off_c, 1, 70, 0
1, 174899, Note_off_c, 1, 67, 0
1, 174899, Note_off_c, 1, 58, 0
1, 174900, Note_on_c, 1, 70, 127
1, 174900, Note_on_c, 1, 67, 127
1, 174900, Note_on_c, 1, 60, 127
1, 174959, Note_off_c, 1, 70, 0
1, 174959, Note_off_c, 1, 67, 0
1, 174959, Note_off_c, 1, 60, 0
1, 174960, Note_on_c, 1, 67, 127
1, 174960, Note_on_c, 1, 60, 127
1, 175019, Note_off_c, 1, 67, 0
1, 175019, Note_off_c, 1, 60, 0
1, 175020, Note_on_c, 1, 69, 127
1, 175020, Note_on_c, 1, 65, 127
1, 175020, Note_on_c, 1, 60, 127
1, 175020, Note_on_c, 1, 53, 127
1, 175079, Note_off_c, 1, 65, 0
1, 175079, Note_off_c, 1, 60, 0
1, 175079, Note_off_c, 1, 53, 0
1, 175080, Note_on_c, 1, 72, 127
1, 175080, Note_on_c, 1, 77, 127
1, 175080, Note_on_c, 1, 57, 127
1, 175109, Note_off_c, 1, 72, 0
1, 175109, Note_off_c, 1, 77, 0
1, 175110, Note_on_c, 1, 70, 127
1, 175110, Note_on_c, 1, 76, 127
1, 175110, Note_on_c, 1, 55, 127
1, 175139, Note_off_c, 1, 57, 0
1, 175139, Note_off_c, 1, 70, 0
1, 175139, Note_off_c, 1, 76, 0
1, 175139, Note_off_c, 1, 55, 0
1, 175199, Note_off_c, 1, 69, 0
1, 175200, Note_on_c, 1, 77, 127
1, 175200, Note_on_c, 1, 60, 127
1, 175200, Note_on_c, 1, 81, 127
1, 175200, Note_on_c, 1, 52, 127
1, 175229, Note_off_c, 1, 77, 0
1, 175229, Note_off_c, 1, 81, 0
1, 175230, Note_on_c, 1, 76, 127
1, 175230, Note_on_c, 1, 79, 127
1, 175259, Note_off_c, 1, 60, 0
1, 175259, Note_off_c, 1, 52, 0
1, 175259, Note_off_c, 1, 76, 0
1, 175259, Note_off_c, 1, 79, 0
1, 175260, Note_on_c, 1, 77, 127
1, 175260, Note_on_c, 1, 65, 127
1, 175260, Note_on_c, 1, 81, 127
1, 175260, Note_on_c, 1, 50, 127
1, 175319, Note_off_c, 1, 77, 0
1, 175319, Note_off_c, 1, 81, 0
1, 175319, Note_off_c, 1, 50, 0
1, 175320, Note_on_c, 1, 69, 127
1, 175320, Note_on_c, 1, 74, 127
1, 175320, Note_on_c, 1, 48, 127
1, 175350, Note_on_c, 1, 76, 127
1, 175379, Note_off_c, 1, 69, 0
1, 175379, Note_off_c, 1, 74, 0
1, 175379, Note_off_c, 1, 48, 0
1, 175379, Note_off_c, 1, 76, 0
1, 175380, Note_on_c, 1, 67, 127
1, 175380, Note_on_c, 1, 46, 127
1, 175439, Note_off_c, 1, 65, 0
1, 175439, Note_off_c, 1, 46, 0
1, 175440, Note_on_c, 1, 70, 127
1, 175440, Note_on_c, 1, 79, 127
1, 175440, Note_on_c, 1, 43, 127
1, 175469, Note_off_c, 1, 70, 0
1, 175469, Note_off_c, 1, 79, 0
1, 175499, Note_off_c, 1, 43, 0
1, 175559, Note_off_c, 1, 67, 0
1, 175560, Note_on_c, 1, 72, 127
1, 175560, Note_on_c, 1, 60, 127
1, 175589, Note_off_c, 1, 72, 0
1, 175619, Note_off_c, 1, 60, 0
1, 175620, Note_on_c, 1, 72, 127
1, 175620, Note_on_c, 1, 60, 127
1, 175620, Note_on_c, 1, 76, 127
1, 175620, Note_on_c, 1, 36, 127
1, 175650, Note_on_c, 1, 70, 127
1, 175679, Note_off_c, 1, 72, 0
1, 175679, Note_off_c, 1, 60, 0
1, 175679, Note_off_c, 1, 76, 0
1, 175679, Note_off_c, 1, 70, 0
1, 175680, Note_on_c, 1, 69, 127
1, 175680, Note_on_c, 1, 77, 127
1, 175680, Note_on_c, 1, 67, 127
1, 175709, Note_off_c, 1, 69, 0
1, 175739, Note_off_c, 1, 36, 0
1, 175739, Note_off_c, 1, 77, 0
1, 175739, Note_off_c, 1, 67, 0
1, 175740, Note_on_c, 1, 65, 127
1, 175740, Note_on_c, 1, 57, 127
1, 175740, Note_on_c, 1, 77, 127
1, 175740, Note_on_c, 1, 72, 127
1, 175740, Note_on_c, 1, 69, 127
1, 175740, Note_on_c, 1, 53, 127
1, 175740, Note_on_c, 1, 41, 127
1, 175799, Note_off_c, 1, 53, 0
1, 175799, Note_off_c, 1, 41, 0
1, 175800, Note_on_c, 1, 55, 127
1, 175800, Note_on_c, 1, 43, 127
1, 175859, Note_off_c, 1, 65, 0
1, 175859, Note_off_c, 1, 57, 0
1, 175859, Note_off_c, 1, 77, 0
1, 175859, Note_off_c, 1, 72, 0
1, 175859, Note_off_c, 1, 69, 0
1, 175859, Note_off_c, 1, 55, 0
1, 175859, Note_off_c, 1, 43, 0
1, 175860, Note_on_c, 1, 70, 127
1, 175860, Note_on_c, 1, 65, 127
1, 175860, Note_on_c, 1, 60, 127
1, 175860, Note_on_c, 1, 69, 127
1, 175860, Note_on_c, 1, 57, 127
1, 175860, Note_on_c, 1, 45, 127
1, 175860, Note_on_c, 1, 72, 127
1, 175919, Note_off_c, 1, 45, 0
1, 175920, Note_on_c, 1, 43, 127
1, 175979, Note_off_c, 1, 70, 0
1, 175979, Note_off_c, 1, 57, 0
1, 175979, Note_off_c, 1, 43, 0
1, 175980, Note_on_c, 1, 53, 127
1, 176040, Note_on_c, 1, 41, 127
1, 176099, Note_off_c, 1, 69, 0
1, 176099, Note_off_c, 1, 72, 0
1, 176099, Note_off_c, 1, 53, 0
1, 176099, Note_off_c, 1, 41, 0
1, 176100, Note_on_c, 1, 67, 127
1, 176100, Note_on_c, 1, 48, 127
1, 176160, Note_on_c, 1, 46, 127
1, 176219, Note_off_c, 1, 65, 0
1, 176219, Note_off_c, 1, 46, 0
1, 176220, Note_on_c, 1, 64, 127
1, 176280, Note_off_c, 1, 60, 0
1, 176280, Note_on_c, 1, 58, 127
1, 176280, Note_on_c, 1, 36, 127
1, 176339, Note_off_c, 1, 67, 0
1, 176339, Note_off_c, 1, 48, 0
1, 176339, Note_off_c, 1, 64, 0
1, 176339, Note_off_c, 1, 58, 0
1, 176339, Note_off_c, 1, 36, 0
1, 176340, Note_on_c, 1, 65, 127
1, 176340, Note_on_c, 1, 57, 127
1, 176340, Note_on_c, 1, 50, 127
1, 176340, Note_on_c, 1, 38, 127
1, 176340, Note_on_c, 1, 69, 127
1, 176399, Note_off_c, 1, 38, 0
1, 176459, Note_off_c, 1, 65, 0
1, 176459, Note_off_c, 1, 57, 0
1, 176459, Note_off_c, 1, 50, 0
1, 176459, Note_off_c, 1, 69, 0
1, 176460, Note_on_c, 1, 70, 127
1, 176460, Note_on_c, 1, 62, 127
1, 176460, Note_on_c, 1, 58, 127
1, 176460, Note_on_c, 1, 55, 127
1, 176519, Note_off_c, 1, 55, 0
1, 176520, Note_on_c, 1, 53, 127
1, 176579, Note_off_c, 1, 62, 0
1, 176579, Note_off_c, 1, 53, 0
1, 176580, Note_on_c, 1, 72, 127
1, 176580, Note_on_c, 1, 67, 127
1, 176580, Note_on_c, 1, 51, 127
1, 176640, Note_on_c, 1, 48, 127
1, 176699, Note_off_c, 1, 70, 0
1, 176699, Note_off_c, 1, 58, 0
1, 176699, Note_off_c, 1, 67, 0
1, 176699, Note_off_c, 1, 51, 0
1, 176699, Note_off_c, 1, 48, 0
1, 176700, Note_on_c, 1, 65, 127
1, 176700, Note_on_c, 1, 57, 127
1, 176700, Note_on_c, 1, 69, 127
1, 176759, Note_off_c, 1, 72, 0
1, 176759, Note_off_c, 1, 57, 0
1, 176759, Note_off_c, 1, 69, 0
1, 176760, Note_on_c, 1, 74, 127
1, 176760, Note_on_c, 1, 41, 127
1, 176789, Note_off_c, 1, 74, 0
1, 176790, Note_on_c, 1, 75, 127
1, 176790, Note_on_c, 1, 60, 127
1, 176819, Note_off_c, 1, 65, 0
1, 176819, Note_off_c, 1, 41, 0
1, 176819, Note_off_c, 1, 75, 0
1, 176819, Note_off_c, 1, 60, 0
1, 176820, Note_on_c, 1, 74, 127
1, 176820, Note_on_c, 1, 65, 127
1, 176820, Note_on_c, 1, 60, 127
1, 176820, Note_on_c, 1, 46, 127
1, 176820, Note_on_c, 1, 72, 127
1, 176879, Note_off_c, 1, 46, 0
1, 176880, Note_on_c, 1, 48, 127
1, 176939, Note_off_c, 1, 60, 0
1, 176939, Note_off_c, 1, 72, 0
1, 176939, Note_off_c, 1, 48, 0
1, 176940, Note_on_c, 1, 58, 127
1, 176940, Note_on_c, 1, 50, 127
1, 176940, Note_on_c, 1, 70, 127
1, 176999, Note_off_c, 1, 58, 0
1, 176999, Note_off_c, 1, 70, 0
1, 177000, Note_on_c, 1, 57, 127
1, 177000, Note_on_c, 1, 69, 127
1, 177059, Note_off_c, 1, 50, 0
1, 177059, Note_off_c, 1, 57, 0
1, 177059, Note_off_c, 1, 69, 0
1, 177179, Note_off_c, 1, 74, 0
1, 177179, Note_off_c, 1, 65, 0
1, 177180, Note_on_c, 1, 72, 127
1, 177180, Note_on_c, 1, 65, 127
1, 177180, Note_on_c, 1, 57, 127
1, 177180, Note_on_c, 1, 53, 127
1, 177180, Note_on_c, 1, 69, 127
1, 177180, Note_on_c, 1, 41, 127
1, 177240, Note_on_c, 1, 81, 127
1, 177269, Note_off_c, 1, 81, 0
1, 177270, Note_on_c, 1, 79, 127
1, 177270, Note_on_c, 1, 70, 127
1, 177299, Note_off_c, 1, 41, 0
1, 177299, Note_off_c, 1, 79, 0
1, 177299, Note_off_c, 1, 70, 0
1, 177360, Note_on_c, 1, 82, 127
1, 177360, Note_on_c, 1, 74, 127
1, 177419, Note_off_c, 1, 72, 0
1, 177419, Note_off_c, 1, 65, 0
1, 177419, Note_off_c, 1, 57, 0
1, 177419, Note_off_c, 1, 53, 0
1, 177419, Note_off_c, 1, 69, 0
1, 177419, Note_off_c, 1, 82, 0
1, 177419, Note_off_c, 1, 74, 0
1, 177420, Note_on_c, 1, 65, 127
1, 177420, Note_on_c, 1, 82, 127
1, 177420, Note_on_c, 1, 74, 127
1, 177479, Note_off_c, 1, 65, 0
1, 177479, Note_off_c, 1, 82, 0
1, 177479, Note_off_c, 1, 74, 0
1, 177480, Note_on_c, 1, 65, 127
1, 177480, Note_on_c, 1, 79, 127
1, 177480, Note_on_c, 1, 70, 127
1, 177539, Note_off_c, 1, 65, 0
1, 177539, Note_off_c, 1, 79, 0
1, 177539, Note_off_c, 1, 70, 0
1, 177540, Note_on_c, 1, 65, 127
1, 177540, Note_on_c, 1, 81, 127
1, 177540, Note_on_c, 1, 72, 127
1, 177540, Note_on_c, 1, 41, 127
1, 177540, Note_on_c, 1, 53, 127
1, 177599, Note_off_c, 1, 65, 0
1, 177599, Note_off_c, 1, 81, 0
1, 177599, Note_off_c, 1, 72, 0
1, 177600, Note_on_c, 1, 60, 127
1, 177600, Note_on_c, 1, 77, 127
1, 177600, Note_on_c, 1, 69, 127
1, 177659, Note_off_c, 1, 41, 0
1, 177659, Note_off_c, 1, 53, 0
1, 177659, Note_off_c, 1, 60, 0
1, 177659, Note_off_c, 1, 77, 0
1, 177659, Note_off_c, 1, 69, 0
1, 177660, Note_on_c, 1, 77, 127
1, 177660, Note_on_c, 1, 69, 127
1, 177719, Note_off_c, 1, 77, 0
1, 177719, Note_off_c, 1, 69, 0
1, 177720, Note_on_c, 1, 60, 127
1, 177720, Note_on_c, 1, 79, 127
1, 177720, Note_on_c, 1, 70, 127
1, 177749, Note_off_c, 1, 60, 0
1, 177779, Note_off_c, 1, 79, 0
1, 177779, Note_off_c, 1, 70, 0
1, 177780, Note_on_c, 1, 60, 127
1, 177780, Note_on_c, 1, 79, 127
1, 177780, Note_on_c, 1, 70, 127
1, 177839, Note_off_c, 1, 60, 0
1, 177839, Note_off_c, 1, 79, 0
1, 177839, Note_off_c, 1, 70, 0
1, 177840, Note_on_c, 1, 60, 127
1, 177840, Note_on_c, 1, 76, 127
1, 177840, Note_on_c, 1, 67, 127
1, 177899, Note_off_c, 1, 60, 0
1, 177899, Note_off_c, 1, 76, 0
1, 177899, Note_off_c, 1, 67, 0
1, 177900, Note_on_c, 1, 60, 127
1, 177900, Note_on_c, 1, 77, 127
1, 177900, Note_on_c, 1, 69, 127
1, 177900, Note_on_c, 1, 53, 127
1, 177959, Note_off_c, 1, 60, 0
1, 177959, Note_off_c, 1, 69, 0
1, 177959, Note_off_c, 1, 53, 0
1, 177960, Note_on_c, 1, 57, 127
1, 177960, Note_on_c, 1, 72, 127
1, 177960, Note_on_c, 1, 65, 127
1, 177989, Note_off_c, 1, 72, 0
1, 177989, Note_off_c, 1, 65, 0
1, 177990, Note_on_c, 1, 70, 127
1, 177990, Note_on_c, 1, 76, 127
1, 177990, Note_on_c, 1, 67, 127
1, 177990, Note_on_c, 1, 55, 127
1, 178019, Note_off_c, 1, 77, 0
1, 178019, Note_off_c, 1, 57, 0
1, 178019, Note_off_c, 1, 70, 0
1, 178019, Note_off_c, 1, 76, 0
1, 178019, Note_off_c, 1, 67, 0
1, 178019, Note_off_c, 1, 55, 0
1, 178020, Note_on_c, 1, 69, 127
1, 178020, Note_on_c, 1, 77, 127
1, 178020, Note_on_c, 1, 53, 127
1, 178079, Note_off_c, 1, 69, 0
1, 178079, Note_off_c, 1, 77, 0
1, 178079, Note_off_c, 1, 53, 0
1, 178080, Note_on_c, 1, 77, 127
1, 178080, Note_on_c, 1, 81, 127
1, 178080, Note_on_c, 1, 72, 127
1, 178080, Note_on_c, 1, 57, 127
1, 178080, Note_on_c, 1, 52, 127
1, 178109, Note_off_c, 1, 77, 0
1, 178109, Note_off_c, 1, 81, 0
1, 178110, Note_on_c, 1, 79, 127
1, 178139, Note_off_c, 1, 72, 0
1, 178139, Note_off_c, 1, 57, 0
1, 178139, Note_off_c, 1, 52, 0
1, 178139, Note_off_c, 1, 79, 0
1, 178140, Note_on_c, 1, 77, 127
1, 178140, Note_on_c, 1, 65, 127
1, 178140, Note_on_c, 1, 81, 127
1, 178140, Note_on_c, 1, 62, 127
1, 178140, Note_on_c, 1, 50, 127
1, 178199, Note_off_c, 1, 81, 0
1, 178199, Note_off_c, 1, 62, 0
1, 178199, Note_off_c, 1, 50, 0
1, 178200, Note_on_c, 1, 69, 127
1, 178200, Note_on_c, 1, 74, 127
1, 178200, Note_on_c, 1, 48, 127
1, 178259, Note_off_c, 1, 69, 0
1, 178259, Note_off_c, 1, 74, 0
1, 178259, Note_off_c, 1, 48, 0
1, 178260, Note_on_c, 1, 67, 127
1, 178260, Note_on_c, 1, 46, 127
1, 178319, Note_off_c, 1, 77, 0
1, 178319, Note_off_c, 1, 65, 0
1, 178319, Note_off_c, 1, 46, 0
1, 178320, Note_on_c, 1, 70, 127
1, 178320, Note_on_c, 1, 79, 127
1, 178320, Note_on_c, 1, 76, 127
1, 178320, Note_on_c, 1, 43, 127
1, 178349, Note_off_c, 1, 79, 0
1, 178349, Note_off_c, 1, 76, 0
1, 178379, Note_off_c, 1, 70, 0
1, 178379, Note_off_c, 1, 43, 0
1, 178380, Note_on_c, 1, 73, 127
1, 178380, Note_on_c, 1, 64, 127
1, 178380, Note_on_c, 1, 40, 127
1, 178439, Note_off_c, 1, 67, 0
1, 178439, Note_off_c, 1, 40, 0
1, 178440, Note_on_c, 1, 57, 127
1, 178440, Note_on_c, 1, 45, 127
1, 178469, Note_off_c, 1, 45, 0
1, 178499, Note_off_c, 1, 64, 0
1, 178499, Note_off_c, 1, 57, 0
1, 178559, Note_off_c, 1, 73, 0
1, 178620, Note_on_c, 1, 65, 127
1, 178620, Note_on_c, 1, 57, 127
1, 178620, Note_on_c, 1, 77, 127
1, 178620, Note_on_c, 1, 74, 127
1, 178620, Note_on_c, 1, 69, 127
1, 178620, Note_on_c, 1, 50, 127
1, 178620, Note_on_c, 1, 38, 127
1, 178679, Note_off_c, 1, 38, 0
1, 178710, Note_on_c, 1, 72, 127
1, 178739, Note_off_c, 1, 65, 0
1, 178739, Note_off_c, 1, 57, 0
1, 178739, Note_off_c, 1, 77, 0
1, 178739, Note_off_c, 1, 74, 0
1, 178739, Note_off_c, 1, 69, 0
1, 178739, Note_off_c, 1, 50, 0
1, 178739, Note_off_c, 1, 72, 0
1, 178740, Note_on_c, 1, 70, 127
1, 178740, Note_on_c, 1, 72, 127
1, 178740, Note_on_c, 1, 67, 127
1, 178740, Note_on_c, 1, 62, 127
1, 178740, Note_on_c, 1, 55, 127
1, 178740, Note_on_c, 1, 74, 127
1, 178800, Note_on_c, 1, 57, 127
1, 178859, Note_off_c, 1, 72, 0
1, 178859, Note_off_c, 1, 55, 0
1, 178859, Note_off_c, 1, 57, 0
1, 178860, Note_on_c, 1, 53, 127
1, 178979, Note_off_c, 1, 70, 0
1, 178979, Note_off_c, 1, 62, 0
1, 178979, Note_off_c, 1, 74, 0
1, 178979, Note_off_c, 1, 53, 0
1, 178980, Note_on_c, 1, 60, 127
1, 178980, Note_on_c, 1, 52, 127
1, 179039, Note_off_c, 1, 60, 0
1, 179040, Note_on_c, 1, 58, 127
1, 179040, Note_on_c, 1, 48, 127
1, 179099, Note_off_c, 1, 67, 0
1, 179099, Note_off_c, 1, 52, 0
1, 179099, Note_off_c, 1, 58, 0
1, 179099, Note_off_c, 1, 48, 0
1, 179100, Note_on_c, 1, 65, 127
1, 179100, Note_on_c, 1, 69, 127
1, 179220, Note_on_c, 1, 50, 127
1, 179279, Note_off_c, 1, 50, 0
1, 179339, Note_off_c, 1, 69, 0
1, 179400, Note_off_c, 1, 65, 0
1, 179640, Note_on_c, 1, 41, 127
1, 179699, Note_off_c, 1, 41, 0
1, 179700, Note_on_c, 1, 64, 127
1, 179880, Note_on_c, 1, 79, 127
1, 179880, Note_on_c, 1, 76, 127
1, 179909, Note_off_c, 1, 79, 0
1, 179909, Note_off_c, 1, 76, 0
1, 179910, Note_on_c, 1, 77, 127
1, 179939, Note_off_c, 1, 77, 0
1, 180000, Note_on_c, 1, 81, 127
1, 180059, Note_off_c, 1, 64, 0
1, 180059, Note_off_c, 1, 81, 0
1, 180060, Note_on_c, 1, 69, 127
1, 180060, Note_on_c, 1, 65, 127
1, 180060, Note_on_c, 1, 81, 127
1, 180060, Note_on_c, 1, 77, 127
1, 180060, Note_on_c, 1, 60, 127
1, 180060, Note_on_c, 1, 53, 127
1, 180060, Note_on_c, 1, 72, 127
1, 180060, Note_on_c, 1, 41, 127
1, 180119, Note_off_c, 1, 69, 0
1, 180119, Note_off_c, 1, 65, 0
1, 180119, Note_off_c, 1, 81, 0
1, 180119, Note_off_c, 1, 77, 0
1, 180119, Note_off_c, 1, 60, 0
1, 180119, Note_off_c, 1, 72, 0
1, 180150, Note_on_c, 1, 70, 127
1, 180150, Note_on_c, 1, 67, 127
1, 180179, Note_off_c, 1, 53, 0
1, 180179, Note_off_c, 1, 41, 0
1, 180179, Note_off_c, 1, 70, 0
1, 180179, Note_off_c, 1, 67, 0
1, 180180, Note_on_c, 1, 72, 127
1, 180180, Note_on_c, 1, 69, 127
1, 180239, Note_off_c, 1, 72, 0
1, 180239, Note_off_c, 1, 69, 0
1, 180240, Note_on_c, 1, 74, 127
1, 180240, Note_on_c, 1, 70, 127
1, 180240, Note_on_c, 1, 65, 127
1, 180269, Note_off_c, 1, 65, 0
1, 180270, Note_on_c, 1, 64, 127
1, 180299, Note_off_c, 1, 74, 0
1, 180299, Note_off_c, 1, 70, 0
1, 180299, Note_off_c, 1, 64, 0
1, 180300, Note_on_c, 1, 74, 127
1, 180300, Note_on_c, 1, 70, 127
1, 180300, Note_on_c, 1, 65, 127
1, 180359, Note_off_c, 1, 74, 0
1, 180359, Note_off_c, 1, 70, 0
1, 180359, Note_off_c, 1, 65, 0
1, 180360, Note_on_c, 1, 70, 127
1, 180360, Note_on_c, 1, 67, 127
1, 180360, Note_on_c, 1, 65, 127
1, 180419, Note_off_c, 1, 70, 0
1, 180419, Note_off_c, 1, 67, 0
1, 180419, Note_off_c, 1, 65, 0
1, 180420, Note_on_c, 1, 72, 127
1, 180420, Note_on_c, 1, 69, 127
1, 180420, Note_on_c, 1, 65, 127
1, 180420, Note_on_c, 1, 41, 127
1, 180420, Note_on_c, 1, 53, 127
1, 180479, Note_off_c, 1, 72, 0
1, 180479, Note_off_c, 1, 69, 0
1, 180479, Note_off_c, 1, 65, 0
1, 180480, Note_on_c, 1, 60, 127
1, 180539, Note_off_c, 1, 41, 0
1, 180539, Note_off_c, 1, 53, 0
1, 180539, Note_off_c, 1, 60, 0
1, 180540, Note_on_c, 1, 69, 127
1, 180540, Note_on_c, 1, 65, 127
1, 180599, Note_off_c, 1, 69, 0
1, 180599, Note_off_c, 1, 65, 0
1, 180600, Note_on_c, 1, 70, 127
1, 180600, Note_on_c, 1, 67, 127
1, 180600, Note_on_c, 1, 60, 127
1, 180629, Note_off_c, 1, 60, 0
1, 180630, Note_on_c, 1, 58, 127
1, 180659, Note_off_c, 1, 70, 0
1, 180659, Note_off_c, 1, 67, 0
1, 180659, Note_off_c, 1, 58, 0
1, 180660, Note_on_c, 1, 70, 127
1, 180660, Note_on_c, 1, 67, 127
1, 180660, Note_on_c, 1, 60, 127
1, 180719, Note_off_c, 1, 70, 0
1, 180719, Note_off_c, 1, 67, 0
1, 180719, Note_off_c, 1, 60, 0
1, 180720, Note_on_c, 1, 67, 127
1, 180720, Note_on_c, 1, 60, 127
1, 180779, Note_off_c, 1, 67, 0
1, 180779, Note_off_c, 1, 60, 0
1, 180780, Note_on_c, 1, 69, 127
1, 180780, Note_on_c, 1, 65, 127
1, 180780, Note_on_c, 1, 60, 127
1, 180780, Note_on_c, 1, 53, 127
1, 180839, Note_off_c, 1, 65, 0
1, 180839, Note_off_c, 1, 60, 0
1, 180839, Note_off_c, 1, 53, 0
1, 180840, Note_on_c, 1, 72, 127
1, 180840, Note_on_c, 1, 77, 127
1, 180840, Note_on_c, 1, 57, 127
1, 180869, Note_off_c, 1, 72, 0
1, 180869, Note_off_c, 1, 77, 0
1, 180870, Note_on_c, 1, 70, 127
1, 180870, Note_on_c, 1, 76, 127
1, 180870, Note_on_c, 1, 55, 127
1, 180899, Note_off_c, 1, 57, 0
1, 180899, Note_off_c, 1, 70, 0
1, 180899, Note_off_c, 1, 76, 0
1, 180899, Note_off_c, 1, 55, 0
1, 180959, Note_off_c, 1, 69, 0
1, 180960, Note_on_c, 1, 77, 127
1, 180960, Note_on_c, 1, 60, 127
1, 180960, Note_on_c, 1, 81, 127
1, 180960, Note_on_c, 1, 52, 127
1, 180989, Note_off_c, 1, 77, 0
1, 180989, Note_off_c, 1, 81, 0
1, 180990, Note_on_c, 1, 76, 127
1, 180990, Note_on_c, 1, 79, 127
1, 181019, Note_off_c, 1, 60, 0
1, 181019, Note_off_c, 1, 52, 0
1, 181019, Note_off_c, 1, 76, 0
1, 181019, Note_off_c, 1, 79, 0
1, 181020, Note_on_c, 1, 77, 127
1, 181020, Note_on_c, 1, 65, 127
1, 181020, Note_on_c, 1, 81, 127
1, 181020, Note_on_c, 1, 50, 127
1, 181079, Note_off_c, 1, 77, 0
1, 181079, Note_off_c, 1, 81, 0
1, 181079, Note_off_c, 1, 50, 0
1, 181080, Note_on_c, 1, 69, 127
1, 181080, Note_on_c, 1, 74, 127
1, 181080, Note_on_c, 1, 48, 127
1, 181110, Note_on_c, 1, 76, 127
1, 181139, Note_off_c, 1, 69, 0
1, 181139, Note_off_c, 1, 74, 0
1, 181139, Note_off_c, 1, 48, 0
1, 181139, Note_off_c, 1, 76, 0
1, 181140, Note_on_c, 1, 67, 127
1, 181140, Note_on_c, 1, 46, 127
1, 181199, Note_off_c, 1, 65, 0
1, 181199, Note_off_c, 1, 46, 0
1, 181200, Note_on_c, 1, 70, 127
1, 181200, Note_on_c, 1, 79, 127
1, 181200, Note_on_c, 1, 43, 127
1, 181229, Note_off_c, 1, 70, 0
1, 181229, Note_off_c, 1, 79, 0
1, 181259, Note_off_c, 1, 43, 0
1, 181319, Note_off_c, 1, 67, 0
1, 181320, Note_on_c, 1, 72, 127
1, 181320, Note_on_c, 1, 60, 127
1, 181349, Note_off_c, 1, 72, 0
1, 181379, Note_off_c, 1, 60, 0
1, 181380, Note_on_c, 1, 72, 127
1, 181380, Note_on_c, 1, 60, 127
1, 181380, Note_on_c, 1, 76, 127
1, 181380, Note_on_c, 1, 36, 127
1, 181410, Note_on_c, 1, 70, 127
1, 181439, Note_off_c, 1, 72, 0
1, 181439, Note_off_c, 1, 60, 0
1, 181439, Note_off_c, 1, 76, 0
1, 181439, Note_off_c, 1, 70, 0
1, 181440, Note_on_c, 1, 69, 127
1, 181440, Note_on_c, 1, 77, 127
1, 181440, Note_on_c, 1, 67, 127
1, 181469, Note_off_c, 1, 69, 0
1, 181499, Note_off_c, 1, 36, 0
1, 181499, Note_off_c, 1, 77, 0
1, 181499, Note_off_c, 1, 67, 0
1, 181500, Note_on_c, 1, 65, 127
1, 181500, Note_on_c, 1, 57, 127
1, 181500, Note_on_c, 1, 77, 127
1, 181500, Note_on_c, 1, 72, 127
1, 181500, Note_on_c, 1, 69, 127
1, 181500, Note_on_c, 1, 53, 127
1, 181500, Note_on_c, 1, 41, 127
1, 181500, Note_on_c, 1, 76, 127
1, 181559, Note_off_c, 1, 77, 0
1, 181559, Note_off_c, 1, 53, 0
1, 181559, Note_off_c, 1, 41, 0
1, 181560, Note_on_c, 1, 55, 127
1, 181560, Note_on_c, 1, 43, 127
1, 181619, Note_off_c, 1, 65, 0
1, 181619, Note_off_c, 1, 57, 0
1, 181619, Note_off_c, 1, 72, 0
1, 181619, Note_off_c, 1, 69, 0
1, 181619, Note_off_c, 1, 76, 0
1, 181619, Note_off_c, 1, 55, 0
1, 181619, Note_off_c, 1, 43, 0
1, 181620, Note_on_c, 1, 70, 127
1, 181620, Note_on_c, 1, 65, 127
1, 181620, Note_on_c, 1, 60, 127
1, 181620, Note_on_c, 1, 69, 127
1, 181620, Note_on_c, 1, 57, 127
1, 181620, Note_on_c, 1, 45, 127
1, 181620, Note_on_c, 1, 72, 127
1, 181679, Note_off_c, 1, 45, 0
1, 181680, Note_on_c, 1, 43, 127
1, 181739, Note_off_c, 1, 70, 0
1, 181739, Note_off_c, 1, 57, 0
1, 181739, Note_off_c, 1, 43, 0
1, 181740, Note_on_c, 1, 53, 127
1, 181800, Note_on_c, 1, 41, 127
1, 181859, Note_off_c, 1, 69, 0
1, 181859, Note_off_c, 1, 72, 0
1, 181859, Note_off_c, 1, 53, 0
1, 181859, Note_off_c, 1, 41, 0
1, 181860, Note_on_c, 1, 67, 127
1, 181860, Note_on_c, 1, 48, 127
1, 181920, Note_on_c, 1, 46, 127
1, 181979, Note_off_c, 1, 65, 0
1, 181979, Note_off_c, 1, 46, 0
1, 181980, Note_on_c, 1, 64, 127
1, 182040, Note_off_c, 1, 60, 0
1, 182040, Note_on_c, 1, 58, 127
1, 182040, Note_on_c, 1, 36, 127
1, 182099, Note_off_c, 1, 67, 0
1, 182099, Note_off_c, 1, 48, 0
1, 182099, Note_off_c, 1, 64, 0
1, 182099, Note_off_c, 1, 58, 0
1, 182099, Note_off_c, 1, 36, 0
1, 182100, Note_on_c, 1, 65, 127
1, 182100, Note_on_c, 1, 57, 127
1, 182100, Note_on_c, 1, 50, 127
1, 182100, Note_on_c, 1, 38, 127
1, 182100, Note_on_c, 1, 69, 127
1, 182159, Note_off_c, 1, 38, 0
1, 182219, Note_off_c, 1, 65, 0
1, 182219, Note_off_c, 1, 57, 0
1, 182219, Note_off_c, 1, 50, 0
1, 182219, Note_off_c, 1, 69, 0
1, 182220, Note_on_c, 1, 70, 127
1, 182220, Note_on_c, 1, 62, 127
1, 182220, Note_on_c, 1, 58, 127
1, 182220, Note_on_c, 1, 55, 127
1, 182279, Note_off_c, 1, 55, 0
1, 182280, Note_on_c, 1, 53, 127
1, 182339, Note_off_c, 1, 62, 0
1, 182339, Note_off_c, 1, 53, 0
1, 182340, Note_on_c, 1, 72, 127
1, 182340, Note_on_c, 1, 67, 127
1, 182340, Note_on_c, 1, 51, 127
1, 182400, Note_on_c, 1, 48, 127
1, 182459, Note_off_c, 1, 70, 0
1, 182459, Note_off_c, 1, 58, 0
1, 182459, Note_off_c, 1, 67, 0
1, 182459, Note_off_c, 1, 51, 0
1, 182459, Note_off_c, 1, 48, 0
1, 182460, Note_on_c, 1, 65, 127
1, 182460, Note_on_c, 1, 57, 127
1, 182460, Note_on_c, 1, 69, 127
1, 182519, Note_off_c, 1, 72, 0
1, 182519, Note_off_c, 1, 57, 0
1, 182519, Note_off_c, 1, 69, 0
1, 182520, Note_on_c, 1, 74, 127
1, 182520, Note_on_c, 1, 41, 127
1, 182549, Note_off_c, 1, 74, 0
1, 182550, Note_on_c, 1, 75, 127
1, 182550, Note_on_c, 1, 60, 127
1, 182579, Note_off_c, 1, 65, 0
1, 182579, Note_off_c, 1, 41, 0
1, 182579, Note_off_c, 1, 75, 0
1, 182579, Note_off_c, 1, 60, 0
1, 182580, Note_on_c, 1, 74, 127
1, 182580, Note_on_c, 1, 65, 127
1, 182580, Note_on_c, 1, 60, 127
1, 182580, Note_on_c, 1, 46, 127
1, 182580, Note_on_c, 1, 72, 127
1, 182639, Note_off_c, 1, 46, 0
1, 182640, Note_on_c, 1, 48, 127
1, 182699, Note_off_c, 1, 60, 0
1, 182699, Note_off_c, 1, 72, 0
1, 182699, Note_off_c, 1, 48, 0
1, 182700, Note_on_c, 1, 58, 127
1, 182700, Note_on_c, 1, 50, 127
1, 182700, Note_on_c, 1, 70, 127
1, 182759, Note_off_c, 1, 58, 0
1, 182759, Note_off_c, 1, 70, 0
1, 182760, Note_on_c, 1, 57, 127
1, 182760, Note_on_c, 1, 69, 127
1, 182819, Note_off_c, 1, 50, 0
1, 182819, Note_off_c, 1, 57, 0
1, 182819, Note_off_c, 1, 69, 0
1, 182939, Note_off_c, 1, 74, 0
1, 182939, Note_off_c, 1, 65, 0
1, 182940, Note_on_c, 1, 72, 127
1, 182940, Note_on_c, 1, 65, 127
1, 182940, Note_on_c, 1, 57, 127
1, 182940, Note_on_c, 1, 53, 127
1, 182940, Note_on_c, 1, 69, 127
1, 182940, Note_on_c, 1, 41, 127
1, 183000, Note_on_c, 1, 81, 127
1, 183029, Note_off_c, 1, 81, 0
1, 183030, Note_on_c, 1, 79, 127
1, 183030, Note_on_c, 1, 70, 127
1, 183059, Note_off_c, 1, 41, 0
1, 183059, Note_off_c, 1, 79, 0
1, 183059, Note_off_c, 1, 70, 0
1, 183120, Note_on_c, 1, 82, 127
1, 183120, Note_on_c, 1, 74, 127
1, 183179, Note_off_c, 1, 72, 0
1, 183179, Note_off_c, 1, 65, 0
1, 183179, Note_off_c, 1, 57, 0
1, 183179, Note_off_c, 1, 53, 0
1, 183179, Note_off_c, 1, 69, 0
1, 183179, Note_off_c, 1, 82, 0
1, 183179, Note_off_c, 1, 74, 0
1, 183180, Note_on_c, 1, 65, 127
1, 183180, Note_on_c, 1, 82, 127
1, 183180, Note_on_c, 1, 74, 127
1, 183239, Note_off_c, 1, 82, 0
1, 183239, Note_off_c, 1, 74, 0
1, 183240, Note_on_c, 1, 79, 127
1, 183240, Note_on_c, 1, 70, 127
1, 183299, Note_off_c, 1, 79, 0
1, 183299, Note_off_c, 1, 70, 0
1, 183300, Note_on_c, 1, 81, 127
1, 183300, Note_on_c, 1, 72, 127
1, 183300, Note_on_c, 1, 41, 127
1, 183300, Note_on_c, 1, 53, 127
1, 183359, Note_off_c, 1, 65, 0
1, 183359, Note_off_c, 1, 81, 0
1, 183359, Note_off_c, 1, 72, 0
1, 183360, Note_on_c, 1, 60, 127
1, 183360, Note_on_c, 1, 77, 127
1, 183360, Note_on_c, 1, 69, 127
1, 183419, Note_off_c, 1, 41, 0
1, 183419, Note_off_c, 1, 53, 0
1, 183419, Note_off_c, 1, 60, 0
1, 183419, Note_off_c, 1, 77, 0
1, 183419, Note_off_c, 1, 69, 0
1, 183600, Note_on_c, 1, 76, 127
1, 183600, Note_on_c, 1, 67, 127
1, 183659, Note_off_c, 1, 76, 0
1, 183659, Note_off_c, 1, 67, 0
1, 183720, Note_on_c, 1, 57, 127
1, 183750, Note_on_c, 1, 55, 127
1, 183779, Note_off_c, 1, 57, 0
1, 183779, Note_off_c, 1, 55, 0
1, 183780, Note_on_c, 1, 69, 127
1, 183780, Note_on_c, 1, 77, 127
1, 183780, Note_on_c, 1, 53, 127
1, 183839, Note_off_c, 1, 69, 0
1, 183839, Note_off_c, 1, 77, 0
1, 183839, Note_off_c, 1, 53, 0
1, 183840, Note_on_c, 1, 77, 127
1, 183840, Note_on_c, 1, 81, 127
1, 183840, Note_on_c, 1, 72, 127
1, 183840, Note_on_c, 1, 57, 127
1, 183840, Note_on_c, 1, 52, 127
1, 183869, Note_off_c, 1, 77, 0
1, 183869, Note_off_c, 1, 81, 0
1, 183870, Note_on_c, 1, 79, 127
1, 183899, Note_off_c, 1, 72, 0
1, 183899, Note_off_c, 1, 57, 0
1, 183899, Note_off_c, 1, 52, 0
1, 183899, Note_off_c, 1, 79, 0
1, 183900, Note_on_c, 1, 77, 127
1, 183900, Note_on_c, 1, 65, 127
1, 183900, Note_on_c, 1, 81, 127
1, 183900, Note_on_c, 1, 62, 127
1, 183900, Note_on_c, 1, 50, 127
1, 183959, Note_off_c, 1, 81, 0
1, 183959, Note_off_c, 1, 62, 0
1, 183959, Note_off_c, 1, 50, 0
1, 183960, Note_on_c, 1, 69, 127
1, 183960, Note_on_c, 1, 74, 127
1, 183960, Note_on_c, 1, 48, 127
1, 184019, Note_off_c, 1, 69, 0
1, 184019, Note_off_c, 1, 74, 0
1, 184019, Note_off_c, 1, 48, 0
1, 184020, Note_on_c, 1, 67, 127
1, 184020, Note_on_c, 1, 46, 127
1, 184079, Note_off_c, 1, 77, 0
1, 184079, Note_off_c, 1, 65, 0
1, 184079, Note_off_c, 1, 46, 0
1, 184080, Note_on_c, 1, 70, 127
1, 184080, Note_on_c, 1, 79, 127
1, 184080, Note_on_c, 1, 76, 127
1, 184080, Note_on_c, 1, 43, 127
1, 184109, Note_off_c, 1, 79, 0
1, 184109, Note_off_c, 1, 76, 0
1, 184139, Note_off_c, 1, 70, 0
1, 184139, Note_off_c, 1, 43, 0
1, 184140, Note_on_c, 1, 73, 127
1, 184140, Note_on_c, 1, 64, 127
1, 184140, Note_on_c, 1, 40, 127
1, 184199, Note_off_c, 1, 67, 0
1, 184199, Note_off_c, 1, 40, 0
1, 184200, Note_on_c, 1, 57, 127
1, 184200, Note_on_c, 1, 45, 127
1, 184229, Note_off_c, 1, 45, 0
1, 184259, Note_off_c, 1, 64, 0
1, 184259, Note_off_c, 1, 57, 0
1, 184319, Note_off_c, 1, 73, 0
1, 184380, Note_on_c, 1, 65, 127
1, 184380, Note_on_c, 1, 57, 127
1, 184380, Note_on_c, 1, 77, 127
1, 184380, Note_on_c, 1, 74, 127
1, 184380, Note_on_c, 1, 69, 127
1, 184380, Note_on_c, 1, 50, 127
1, 184380, Note_on_c, 1, 38, 127
1, 184439, Note_off_c, 1, 38, 0
1, 184470, Note_on_c, 1, 72, 127
1, 184499, Note_off_c, 1, 65, 0
1, 184499, Note_off_c, 1, 57, 0
1, 184499, Note_off_c, 1, 77, 0
1, 184499, Note_off_c, 1, 74, 0
1, 184499, Note_off_c, 1, 69, 0
1, 184499, Note_off_c, 1, 50, 0
1, 184499, Note_off_c, 1, 72, 0
1, 184500, Note_on_c, 1, 70, 127
1, 184500, Note_on_c, 1, 72, 127
1, 184500, Note_on_c, 1, 67, 127
1, 184500, Note_on_c, 1, 62, 127
1, 184500, Note_on_c, 1, 55, 127
1, 184500, Note_on_c, 1, 74, 127
1, 184560, Note_on_c, 1, 57, 127
1, 184619, Note_off_c, 1, 72, 0
1, 184619, Note_off_c, 1, 55, 0
1, 184619, Note_off_c, 1, 57, 0
1, 184620, Note_on_c, 1, 53, 127
1, 184739, Note_off_c, 1, 70, 0
1, 184739, Note_off_c, 1, 62, 0
1, 184739, Note_off_c, 1, 74, 0
1, 184739, Note_off_c, 1, 53, 0
1, 184740, Note_on_c, 1, 60, 127
1, 184740, Note_on_c, 1, 52, 127
1, 184799, Note_off_c, 1, 60, 0
1, 184800, Note_on_c, 1, 58, 127
1, 184800, Note_on_c, 1, 48, 127
1, 184859, Note_off_c, 1, 67, 0
1, 184859, Note_off_c, 1, 52, 0
1, 184859, Note_off_c, 1, 58, 0
1, 184859, Note_off_c, 1, 48, 0
1, 184860, Note_on_c, 1, 65, 127
1, 184860, Note_on_c, 1, 69, 127
1, 184980, Note_on_c, 1, 50, 127
1, 185039, Note_off_c, 1, 50, 0
1, 185099, Note_off_c, 1, 69, 0
1, 185160, Note_off_c, 1, 65, 0
1, 185400, Note_on_c, 1, 41, 127
1, 185459, Note_off_c, 1, 41, 0
1, 185460, Note_on_c, 1, 64, 127
1, 185640, Note_on_c, 1, 79, 127
1, 185640, Note_on_c, 1, 76, 127
1, 185669, Note_off_c, 1, 79, 0
1, 185669, Note_off_c, 1, 76, 0
1, 185670, Note_on_c, 1, 77, 127
1, 185699, Note_off_c, 1, 77, 0
1, 185760, Note_on_c, 1, 81, 127
1, 185819, Note_off_c, 1, 64, 0
1, 185819, Note_off_c, 1, 81, 0
1, 185820, Note_on_c, 1, 69, 127
1, 185820, Note_on_c, 1, 65, 127
1, 185820, Note_on_c, 1, 81, 127
1, 185820, Note_on_c, 1, 77, 127
1, 185820, Note_on_c, 1, 60, 127
1, 185820, Note_on_c, 1, 53, 127
1, 185879, Note_off_c, 1, 69, 0
1, 185879, Note_off_c, 1, 65, 0
1, 185879, Note_off_c, 1, 81, 0
1, 185879, Note_off_c, 1, 77, 0
1, 185879, Note_off_c, 1, 60, 0
1, 185879, Note_off_c, 1, 53, 0
1, 185880, Note_on_c, 1, 69, 127
1, 185880, Note_on_c, 1, 65, 127
1, 185880, Note_on_c, 1, 57, 127
1, 185909, Note_off_c, 1, 69, 0
1, 185910, Note_on_c, 1, 67, 127
1, 185910, Note_on_c, 1, 64, 127
1, 185939, Note_off_c, 1, 65, 0
1, 185939, Note_off_c, 1, 57, 0
1, 185939, Note_off_c, 1, 67, 0
1, 185939, Note_off_c, 1, 64, 0
1, 185940, Note_on_c, 1, 69, 127
1, 185940, Note_on_c, 1, 66, 127
1, 185940, Note_on_c, 1, 50, 127
1, 185999, Note_off_c, 1, 69, 0
1, 185999, Note_off_c, 1, 66, 0
1, 185999, Note_off_c, 1, 50, 0
1, 186000, Note_on_c, 1, 72, 127
1, 186000, Note_on_c, 1, 69, 127
1, 186000, Note_on_c, 1, 66, 127
1, 186000, Note_on_c, 1, 62, 127
1, 186000, Note_on_c, 1, 57, 127
1, 186029, Note_off_c, 1, 66, 0
1, 186029, Note_off_c, 1, 62, 0
1, 186030, Note_on_c, 1, 67, 127
1, 186030, Note_on_c, 1, 64, 127
1, 186059, Note_off_c, 1, 72, 0
1, 186059, Note_off_c, 1, 69, 0
1, 186059, Note_off_c, 1, 57, 0
1, 186059, Note_off_c, 1, 67, 0
1, 186059, Note_off_c, 1, 64, 0
1, 186060, Note_on_c, 1, 72, 127
1, 186060, Note_on_c, 1, 69, 127
1, 186060, Note_on_c, 1, 66, 127
1, 186060, Note_on_c, 1, 62, 127
1, 186119, Note_off_c, 1, 72, 0
1, 186119, Note_off_c, 1, 69, 0
1, 186119, Note_off_c, 1, 66, 0
1, 186119, Note_off_c, 1, 62, 0
1, 186120, Note_on_c, 1, 71, 127
1, 186120, Note_on_c, 1, 67, 127
1, 186120, Note_on_c, 1, 62, 127
1, 186120, Note_on_c, 1, 50, 127
1, 186179, Note_off_c, 1, 71, 0
1, 186179, Note_off_c, 1, 67, 0
1, 186179, Note_off_c, 1, 62, 0
1, 186179, Note_off_c, 1, 50, 0
1, 186180, Note_on_c, 1, 71, 127
1, 186180, Note_on_c, 1, 67, 127
1, 186180, Note_on_c, 1, 62, 127
1, 186180, Note_on_c, 1, 55, 127
1, 186239, Note_off_c, 1, 71, 0
1, 186239, Note_off_c, 1, 67, 0
1, 186239, Note_off_c, 1, 62, 0
1, 186239, Note_off_c, 1, 55, 0
1, 186240, Note_on_c, 1, 74, 127
1, 186240, Note_on_c, 1, 71, 127
1, 186240, Note_on_c, 1, 67, 127
1, 186240, Note_on_c, 1, 50, 127
1, 186269, Note_off_c, 1, 74, 0
1, 186269, Note_off_c, 1, 71, 0
1, 186270, Note_on_c, 1, 72, 127
1, 186270, Note_on_c, 1, 69, 127
1, 186299, Note_off_c, 1, 67, 0
1, 186299, Note_off_c, 1, 50, 0
1, 186299, Note_off_c, 1, 72, 0
1, 186299, Note_off_c, 1, 69, 0
1, 186300, Note_on_c, 1, 74, 127
1, 186300, Note_on_c, 1, 71, 127
1, 186300, Note_on_c, 1, 43, 127
1, 186359, Note_off_c, 1, 74, 0
1, 186359, Note_off_c, 1, 71, 0
1, 186359, Note_off_c, 1, 43, 0
1, 186360, Note_on_c, 1, 67, 127
1, 186360, Note_on_c, 1, 77, 127
1, 186360, Note_on_c, 1, 74, 127
1, 186360, Note_on_c, 1, 71, 127
1, 186360, Note_on_c, 1, 62, 127
1, 186360, Note_on_c, 1, 50, 127
1, 186389, Note_off_c, 1, 67, 0
1, 186389, Note_off_c, 1, 71, 0
1, 186389, Note_off_c, 1, 62, 0
1, 186390, Note_on_c, 1, 65, 127
1, 186390, Note_on_c, 1, 69, 127
1, 186390, Note_on_c, 1, 60, 127
1, 186419, Note_off_c, 1, 77, 0
1, 186419, Note_off_c, 1, 74, 0
1, 186419, Note_off_c, 1, 50, 0
1, 186419, Note_off_c, 1, 65, 0
1, 186419, Note_off_c, 1, 69, 0
1, 186419, Note_off_c, 1, 60, 0
1, 186420, Note_on_c, 1, 67, 127
1, 186420, Note_on_c, 1, 77, 127
1, 186420, Note_on_c, 1, 74, 127
1, 186420, Note_on_c, 1, 71, 127
1, 186420, Note_on_c, 1, 62, 127
1, 186420, Note_on_c, 1, 55, 127
1, 186479, Note_off_c, 1, 67, 0
1, 186479, Note_off_c, 1, 77, 0
1, 186479, Note_off_c, 1, 74, 0
1, 186479, Note_off_c, 1, 71, 0
1, 186479, Note_off_c, 1, 62, 0
1, 186479, Note_off_c, 1, 55, 0
1, 186480, Note_on_c, 1, 67, 127
1, 186480, Note_on_c, 1, 76, 127
1, 186480, Note_on_c, 1, 72, 127
1, 186480, Note_on_c, 1, 64, 127
1, 186480, Note_on_c, 1, 43, 127
1, 186539, Note_off_c, 1, 67, 0
1, 186539, Note_off_c, 1, 76, 0
1, 186539, Note_off_c, 1, 72, 0
1, 186539, Note_off_c, 1, 64, 0
1, 186539, Note_off_c, 1, 43, 0
1, 186540, Note_on_c, 1, 67, 127
1, 186540, Note_on_c, 1, 76, 127
1, 186540, Note_on_c, 1, 72, 127
1, 186540, Note_on_c, 1, 64, 127
1, 186540, Note_on_c, 1, 48, 127
1, 186540, Note_on_c, 1, 36, 127
1, 186599, Note_off_c, 1, 67, 0
1, 186600, Note_on_c, 1, 60, 127
1, 186600, Note_on_c, 1, 79, 127
1, 186629, Note_off_c, 1, 79, 0
1, 186630, Note_on_c, 1, 77, 127
1, 186630, Note_on_c, 1, 74, 127
1, 186659, Note_off_c, 1, 76, 0
1, 186659, Note_off_c, 1, 72, 0
1, 186659, Note_off_c, 1, 64, 0
1, 186659, Note_off_c, 1, 48, 0
1, 186659, Note_off_c, 1, 36, 0
1, 186659, Note_off_c, 1, 60, 0
1, 186659, Note_off_c, 1, 77, 0
1, 186659, Note_off_c, 1, 74, 0
1, 186660, Note_on_c, 1, 60, 127
1, 186660, Note_on_c, 1, 79, 127
1, 186660, Note_on_c, 1, 76, 127
1, 186719, Note_off_c, 1, 60, 0
1, 186719, Note_off_c, 1, 79, 0
1, 186719, Note_off_c, 1, 76, 0
1, 186720, Note_on_c, 1, 60, 127
1, 186720, Note_on_c, 1, 72, 127
1, 186720, Note_on_c, 1, 81, 127
1, 186720, Note_on_c, 1, 77, 127
1, 186749, Note_off_c, 1, 72, 0
1, 186750, Note_on_c, 1, 71, 127
1, 186779, Note_off_c, 1, 60, 0
1, 186779, Note_off_c, 1, 81, 0
1, 186779, Note_off_c, 1, 77, 0
1, 186779, Note_off_c, 1, 71, 0
1, 186780, Note_on_c, 1, 60, 127
1, 186780, Note_on_c, 1, 72, 127
1, 186780, Note_on_c, 1, 81, 127
1, 186780, Note_on_c, 1, 77, 127
1, 186839, Note_off_c, 1, 60, 0
1, 186839, Note_off_c, 1, 72, 0
1, 186839, Note_off_c, 1, 81, 0
1, 186839, Note_off_c, 1, 77, 0
1, 186840, Note_on_c, 1, 60, 127
1, 186840, Note_on_c, 1, 72, 127
1, 186840, Note_on_c, 1, 77, 127
1, 186840, Note_on_c, 1, 74, 127
1, 186899, Note_off_c, 1, 60, 0
1, 186899, Note_off_c, 1, 72, 0
1, 186899, Note_off_c, 1, 77, 0
1, 186899, Note_off_c, 1, 74, 0
1, 186900, Note_on_c, 1, 60, 127
1, 186900, Note_on_c, 1, 72, 127
1, 186900, Note_on_c, 1, 79, 127
1, 186900, Note_on_c, 1, 76, 127
1, 186900, Note_on_c, 1, 67, 127
1, 186900, Note_on_c, 1, 36, 127
1, 186900, Note_on_c, 1, 48, 127
1, 186959, Note_off_c, 1, 60, 0
1, 186959, Note_off_c, 1, 72, 0
1, 186959, Note_off_c, 1, 79, 0
1, 186959, Note_off_c, 1, 76, 0
1, 187019, Note_off_c, 1, 67, 0
1, 187019, Note_off_c, 1, 36, 0
1, 187019, Note_off_c, 1, 48, 0
1, 187020, Note_on_c, 1, 60, 127
1, 187020, Note_on_c, 1, 76, 127
1, 187020, Note_on_c, 1, 72, 127
1, 187079, Note_off_c, 1, 60, 0
1, 187079, Note_off_c, 1, 76, 0
1, 187079, Note_off_c, 1, 72, 0
1, 187080, Note_on_c, 1, 60, 127
1, 187080, Note_on_c, 1, 67, 127
1, 187080, Note_on_c, 1, 77, 127
1, 187080, Note_on_c, 1, 74, 127
1, 187109, Note_off_c, 1, 67, 0
1, 187110, Note_on_c, 1, 65, 127
1, 187139, Note_off_c, 1, 60, 0
1, 187139, Note_off_c, 1, 77, 0
1, 187139, Note_off_c, 1, 74, 0
1, 187139, Note_off_c, 1, 65, 0
1, 187140, Note_on_c, 1, 60, 127
1, 187140, Note_on_c, 1, 67, 127
1, 187140, Note_on_c, 1, 77, 127
1, 187140, Note_on_c, 1, 74, 127
1, 187199, Note_off_c, 1, 60, 0
1, 187199, Note_off_c, 1, 67, 0
1, 187199, Note_off_c, 1, 77, 0
1, 187199, Note_off_c, 1, 74, 0
1, 187200, Note_on_c, 1, 60, 127
1, 187200, Note_on_c, 1, 67, 127
1, 187200, Note_on_c, 1, 74, 127
1, 187200, Note_on_c, 1, 71, 127
1, 187259, Note_off_c, 1, 60, 0
1, 187259, Note_off_c, 1, 67, 0
1, 187259, Note_off_c, 1, 74, 0
1, 187259, Note_off_c, 1, 71, 0
1, 187260, Note_on_c, 1, 60, 127
1, 187260, Note_on_c, 1, 67, 127
1, 187260, Note_on_c, 1, 76, 127
1, 187260, Note_on_c, 1, 72, 127
1, 187260, Note_on_c, 1, 48, 127
1, 187319, Note_off_c, 1, 67, 0
1, 187319, Note_off_c, 1, 48, 0
1, 187320, Note_on_c, 1, 64, 127
1, 187320, Note_on_c, 1, 65, 127
1, 187320, Note_on_c, 1, 50, 127
1, 187379, Note_off_c, 1, 76, 0
1, 187379, Note_off_c, 1, 64, 0
1, 187379, Note_off_c, 1, 65, 0
1, 187379, Note_off_c, 1, 50, 0
1, 187380, Note_on_c, 1, 52, 127
1, 187499, Note_off_c, 1, 60, 0
1, 187499, Note_off_c, 1, 52, 0
1, 187620, Note_on_c, 1, 69, 127
1, 187620, Note_on_c, 1, 53, 127
1, 187679, Note_off_c, 1, 53, 0
1, 187800, Note_on_c, 1, 41, 127
1, 187859, Note_off_c, 1, 69, 0
1, 187859, Note_off_c, 1, 41, 0
1, 187860, Note_on_c, 1, 74, 127
1, 187860, Note_on_c, 1, 58, 127
1, 187860, Note_on_c, 1, 46, 127
1, 187860, Note_on_c, 1, 70, 127
1, 187919, Note_off_c, 1, 46, 0
1, 187979, Note_off_c, 1, 74, 0
1, 187980, Note_off_c, 1, 72, 0
1, 187980, Note_on_c, 1, 73, 127
1, 188040, Note_on_c, 1, 55, 127
1, 188099, Note_off_c, 1, 58, 0
1, 188099, Note_off_c, 1, 70, 0
1, 188099, Note_off_c, 1, 73, 0
1, 188099, Note_off_c, 1, 55, 0
1, 188100, Note_on_c, 1, 57, 127
1, 188219, Note_off_c, 1, 57, 0
1, 188220, Note_on_c, 1, 62, 127
1, 188279, Note_off_c, 1, 62, 0
1, 188310, Note_on_c, 1, 77, 127
1, 188339, Note_off_c, 1, 77, 0
1, 188460, Note_on_c, 1, 49, 127
1, 188519, Note_off_c, 1, 49, 0
1, 188520, Note_on_c, 1, 47, 127
1, 188579, Note_off_c, 1, 47, 0
1, 188700, Note_on_c, 1, 69, 127
1, 188700, Note_on_c, 1, 65, 127
1, 188700, Note_on_c, 1, 62, 127
1, 188700, Note_on_c, 1, 57, 127
1, 188700, Note_on_c, 1, 50, 127
1, 188700, Note_on_c, 1, 38, 127
1, 188760, Note_on_c, 1, 81, 127
1, 188760, Note_on_c, 1, 77, 127
1, 188789, Note_off_c, 1, 81, 0
1, 188789, Note_off_c, 1, 77, 0
1, 188790, Note_on_c, 1, 79, 127
1, 188790, Note_on_c, 1, 76, 127
1, 188819, Note_off_c, 1, 62, 0
1, 188819, Note_off_c, 1, 38, 0
1, 188819, Note_off_c, 1, 79, 0
1, 188819, Note_off_c, 1, 76, 0
1, 188880, Note_on_c, 1, 82, 127
1, 188880, Note_on_c, 1, 74, 127
1, 188909, Note_off_c, 1, 74, 0
1, 188910, Note_on_c, 1, 73, 127
1, 188939, Note_off_c, 1, 69, 0
1, 188939, Note_off_c, 1, 65, 0
1, 188939, Note_off_c, 1, 57, 0
1, 188939, Note_off_c, 1, 50, 0
1, 188939, Note_off_c, 1, 82, 0
1, 188939, Note_off_c, 1, 73, 0
1, 188940, Note_on_c, 1, 82, 127
1, 188940, Note_on_c, 1, 79, 127
1, 188940, Note_on_c, 1, 74, 127
1, 188999, Note_off_c, 1, 82, 0
1, 188999, Note_off_c, 1, 79, 0
1, 188999, Note_off_c, 1, 74, 0
1, 189000, Note_on_c, 1, 79, 127
1, 189000, Note_on_c, 1, 76, 127
1, 189000, Note_on_c, 1, 74, 127
1, 189059, Note_off_c, 1, 79, 0
1, 189059, Note_off_c, 1, 76, 0
1, 189059, Note_off_c, 1, 74, 0
1, 189060, Note_on_c, 1, 81, 127
1, 189060, Note_on_c, 1, 77, 127
1, 189060, Note_on_c, 1, 74, 127
1, 189060, Note_on_c, 1, 38, 127
1, 189060, Note_on_c, 1, 62, 127
1, 189060, Note_on_c, 1, 50, 127
1, 189119, Note_off_c, 1, 81, 0
1, 189119, Note_off_c, 1, 77, 0
1, 189119, Note_off_c, 1, 74, 0
1, 189119, Note_off_c, 1, 62, 0
1, 189120, Note_on_c, 1, 65, 127
1, 189120, Note_on_c, 1, 69, 127
1, 189149, Note_off_c, 1, 65, 0
1, 189150, Note_on_c, 1, 73, 127
1, 189150, Note_on_c, 1, 64, 127
1, 189179, Note_off_c, 1, 38, 0
1, 189179, Note_off_c, 1, 50, 0
1, 189179, Note_off_c, 1, 69, 0
1, 189179, Note_off_c, 1, 73, 0
1, 189179, Note_off_c, 1, 64, 0
1, 189180, Note_on_c, 1, 74, 127
1, 189180, Note_on_c, 1, 65, 127
1, 189239, Note_off_c, 1, 74, 0
1, 189239, Note_off_c, 1, 65, 0
1, 189240, Note_on_c, 1, 57, 127
1, 189240, Note_on_c, 1, 76, 127
1, 189240, Note_on_c, 1, 73, 127
1, 189240, Note_on_c, 1, 67, 127
1, 189269, Note_off_c, 1, 57, 0
1, 189269, Note_off_c, 1, 73, 0
1, 189270, Note_on_c, 1, 74, 127
1, 189270, Note_on_c, 1, 71, 127
1, 189299, Note_off_c, 1, 76, 0
1, 189299, Note_off_c, 1, 67, 0
1, 189299, Note_off_c, 1, 74, 0
1, 189299, Note_off_c, 1, 71, 0
1, 189300, Note_on_c, 1, 57, 127
1, 189300, Note_on_c, 1, 76, 127
1, 189300, Note_on_c, 1, 73, 127
1, 189300, Note_on_c, 1, 67, 127
1, 189359, Note_off_c, 1, 57, 0
1, 189359, Note_off_c, 1, 76, 0
1, 189359, Note_off_c, 1, 73, 0
1, 189359, Note_off_c, 1, 67, 0
1, 189360, Note_on_c, 1, 57, 127
1, 189360, Note_on_c, 1, 79, 127
1, 189360, Note_on_c, 1, 76, 127
1, 189360, Note_on_c, 1, 73, 127
1, 189360, Note_on_c, 1, 64, 127
1, 189419, Note_off_c, 1, 57, 0
1, 189419, Note_off_c, 1, 79, 0
1, 189419, Note_off_c, 1, 76, 0
1, 189419, Note_off_c, 1, 73, 0
1, 189419, Note_off_c, 1, 64, 0
1, 189420, Note_on_c, 1, 57, 127
1, 189420, Note_on_c, 1, 77, 127
1, 189420, Note_on_c, 1, 74, 127
1, 189420, Note_on_c, 1, 65, 127
1, 189420, Note_on_c, 1, 50, 127
1, 189479, Note_off_c, 1, 57, 0
1, 189479, Note_off_c, 1, 77, 0
1, 189479, Note_off_c, 1, 50, 0
1, 189480, Note_on_c, 1, 53, 127
1, 189480, Note_on_c, 1, 69, 127
1, 189509, Note_off_c, 1, 69, 0
1, 189510, Note_on_c, 1, 72, 127
1, 189510, Note_on_c, 1, 67, 127
1, 189510, Note_on_c, 1, 52, 127
1, 189539, Note_off_c, 1, 74, 0
1, 189539, Note_off_c, 1, 65, 0
1, 189539, Note_off_c, 1, 53, 0
1, 189539, Note_off_c, 1, 72, 0
1, 189539, Note_off_c, 1, 67, 0
1, 189539, Note_off_c, 1, 52, 0
1, 189540, Note_on_c, 1, 74, 127
1, 189540, Note_on_c, 1, 65, 127
1, 189540, Note_on_c, 1, 50, 127
1, 189599, Note_off_c, 1, 74, 0
1, 189599, Note_off_c, 1, 65, 0
1, 189599, Note_off_c, 1, 50, 0
1, 189600, Note_on_c, 1, 77, 127
1, 189600, Note_on_c, 1, 86, 127
1, 189600, Note_on_c, 1, 62, 127
1, 189600, Note_on_c, 1, 46, 127
1, 189600, Note_on_c, 1, 74, 127
1, 189629, Note_off_c, 1, 77, 0
1, 189629, Note_off_c, 1, 86, 0
1, 189629, Note_off_c, 1, 74, 0
1, 189630, Note_on_c, 1, 75, 127
1, 189630, Note_on_c, 1, 84, 127
1, 189630, Note_on_c, 1, 72, 127
1, 189659, Note_off_c, 1, 62, 0
1, 189659, Note_off_c, 1, 46, 0
1, 189659, Note_off_c, 1, 75, 0
1, 189659, Note_off_c, 1, 84, 0
1, 189659, Note_off_c, 1, 72, 0
1, 189660, Note_on_c, 1, 77, 127
1, 189660, Note_on_c, 1, 86, 127
1, 189660, Note_on_c, 1, 58, 127
1, 189660, Note_on_c, 1, 43, 127
1, 189660, Note_on_c, 1, 74, 127
1, 189719, Note_off_c, 1, 77, 0
1, 189719, Note_off_c, 1, 86, 0
1, 189719, Note_off_c, 1, 58, 0
1, 189719, Note_off_c, 1, 43, 0
1, 189719, Note_off_c, 1, 74, 0
1, 189720, Note_on_c, 1, 70, 127
1, 189720, Note_on_c, 1, 79, 127
1, 189720, Note_on_c, 1, 75, 127
1, 189720, Note_on_c, 1, 55, 127
1, 189749, Note_off_c, 1, 75, 0
1, 189750, Note_on_c, 1, 74, 127
1, 189750, Note_on_c, 1, 69, 127
1, 189779, Note_off_c, 1, 70, 0
1, 189779, Note_off_c, 1, 79, 0
1, 189779, Note_off_c, 1, 55, 0
1, 189779, Note_off_c, 1, 74, 0
1, 189779, Note_off_c, 1, 69, 0
1, 189780, Note_on_c, 1, 70, 127
1, 189780, Note_on_c, 1, 79, 127
1, 189780, Note_on_c, 1, 75, 127
1, 189780, Note_on_c, 1, 67, 127
1, 189780, Note_on_c, 1, 48, 127
1, 189839, Note_off_c, 1, 70, 0
1, 189839, Note_off_c, 1, 79, 0
1, 189839, Note_off_c, 1, 67, 0
1, 189839, Note_off_c, 1, 48, 0
1, 189840, Note_on_c, 1, 84, 127
1, 189840, Note_on_c, 1, 55, 127
1, 189840, Note_on_c, 1, 46, 127
1, 189840, Note_on_c, 1, 72, 127
1, 189869, Note_off_c, 1, 84, 0
1, 189869, Note_off_c, 1, 72, 0
1, 189870, Note_on_c, 1, 74, 127
1, 189870, Note_on_c, 1, 82, 127
1, 189899, Note_off_c, 1, 75, 0
1, 189899, Note_off_c, 1, 55, 0
1, 189899, Note_off_c, 1, 46, 0
1, 189899, Note_off_c, 1, 74, 0
1, 189899, Note_off_c, 1, 82, 0
1, 189900, Note_on_c, 1, 75, 127
1, 189900, Note_on_c, 1, 84, 127
1, 189900, Note_on_c, 1, 53, 127
1, 189900, Note_on_c, 1, 45, 127
1, 189900, Note_on_c, 1, 72, 127
1, 189959, Note_off_c, 1, 75, 0
1, 189959, Note_off_c, 1, 84, 0
1, 189959, Note_off_c, 1, 53, 0
1, 189959, Note_off_c, 1, 45, 0
1, 189959, Note_off_c, 1, 72, 0
1, 189960, Note_on_c, 1, 53, 127
1, 189960, Note_on_c, 1, 72, 127
1, 189960, Note_on_c, 1, 81, 127
1, 189960, Note_on_c, 1, 63, 127
1, 189960, Note_on_c, 1, 48, 127
1, 189960, Note_on_c, 1, 69, 127
1, 189989, Note_off_c, 1, 53, 0
1, 189989, Note_off_c, 1, 63, 0
1, 189990, Note_on_c, 1, 62, 127
1, 190019, Note_off_c, 1, 72, 0
1, 190019, Note_off_c, 1, 81, 0
1, 190019, Note_off_c, 1, 48, 0
1, 190019, Note_off_c, 1, 69, 0
1, 190019, Note_off_c, 1, 62, 0
1, 190020, Note_on_c, 1, 53, 127
1, 190020, Note_on_c, 1, 72, 127
1, 190020, Note_on_c, 1, 81, 127
1, 190020, Note_on_c, 1, 63, 127
1, 190020, Note_on_c, 1, 41, 127
1, 190020, Note_on_c, 1, 69, 127
1, 190079, Note_off_c, 1, 53, 0
1, 190079, Note_off_c, 1, 72, 0
1, 190079, Note_off_c, 1, 81, 0
1, 190079, Note_off_c, 1, 63, 0
1, 190079, Note_off_c, 1, 41, 0
1, 190079, Note_off_c, 1, 69, 0
1, 190080, Note_on_c, 1, 53, 127
1, 190080, Note_on_c, 1, 74, 127
1, 190080, Note_on_c, 1, 82, 127
1, 190080, Note_on_c, 1, 65, 127
1, 190080, Note_on_c, 1, 70, 127
1, 190109, Note_off_c, 1, 65, 0
1, 190110, Note_on_c, 1, 72, 127
1, 190110, Note_on_c, 1, 63, 127
1, 190139, Note_off_c, 1, 53, 0
1, 190139, Note_off_c, 1, 74, 0
1, 190139, Note_off_c, 1, 82, 0
1, 190139, Note_off_c, 1, 70, 0
1, 190139, Note_off_c, 1, 72, 0
1, 190139, Note_off_c, 1, 63, 0
1, 190140, Note_on_c, 1, 53, 127
1, 190140, Note_on_c, 1, 74, 127
1, 190140, Note_on_c, 1, 82, 127
1, 190140, Note_on_c, 1, 70, 127
1, 190140, Note_on_c, 1, 62, 127
1, 190140, Note_on_c, 1, 65, 127
1, 190140, Note_on_c, 1, 58, 127
1, 190140, Note_on_c, 1, 46, 127
1, 190199, Note_off_c, 1, 46, 0
1, 190200, Note_on_c, 1, 57, 127
1, 190200, Note_on_c, 1, 45, 127
1, 190259, Note_off_c, 1, 53, 0
1, 190259, Note_off_c, 1, 74, 0
1, 190259, Note_off_c, 1, 82, 0
1, 190259, Note_off_c, 1, 62, 0
1, 190259, Note_off_c, 1, 65, 0
1, 190259, Note_off_c, 1, 57, 0
1, 190259, Note_off_c, 1, 45, 0
1, 190260, Note_on_c, 1, 76, 127
1, 190260, Note_on_c, 1, 67, 127
1, 190260, Note_on_c, 1, 55, 127
1, 190260, Note_on_c, 1, 43, 127
1, 190319, Note_off_c, 1, 58, 0
1, 190319, Note_off_c, 1, 43, 0
1, 190320, Note_on_c, 1, 48, 127
1, 190320, Note_on_c, 1, 79, 127
1, 190379, Note_off_c, 1, 70, 0
1, 190379, Note_off_c, 1, 76, 0
1, 190379, Note_off_c, 1, 67, 0
1, 190379, Note_off_c, 1, 55, 0
1, 190379, Note_off_c, 1, 48, 0
1, 190379, Note_off_c, 1, 79, 0
1, 190380, Note_on_c, 1, 77, 127
1, 190380, Note_on_c, 1, 69, 127
1, 190380, Note_on_c, 1, 60, 127
1, 190380, Note_on_c, 1, 53, 127
1, 190380, Note_on_c, 1, 45, 127
1, 190380, Note_on_c, 1, 72, 127
1, 190439, Note_off_c, 1, 45, 0
1, 190440, Note_on_c, 1, 41, 127
1, 190499, Note_off_c, 1, 77, 0
1, 190499, Note_off_c, 1, 69, 0
1, 190499, Note_off_c, 1, 60, 0
1, 190499, Note_off_c, 1, 53, 0
1, 190499, Note_off_c, 1, 72, 0
1, 190499, Note_off_c, 1, 41, 0
1, 190500, Note_on_c, 1, 79, 127
1, 190500, Note_on_c, 1, 67, 127
1, 190500, Note_on_c, 1, 60, 127
1, 190500, Note_on_c, 1, 52, 127
1, 190500, Note_on_c, 1, 40, 127
1, 190500, Note_on_c, 1, 72, 127
1, 190559, Note_off_c, 1, 67, 0
1, 190559, Note_off_c, 1, 52, 0
1, 190559, Note_off_c, 1, 40, 0
1, 190560, Note_on_c, 1, 65, 127
1, 190560, Note_on_c, 1, 50, 127
1, 190560, Note_on_c, 1, 38, 127
1, 190619, Note_off_c, 1, 79, 0
1, 190619, Note_off_c, 1, 65, 0
1, 190619, Note_off_c, 1, 50, 0
1, 190619, Note_off_c, 1, 38, 0
1, 190680, Note_on_c, 1, 36, 127
1, 190739, Note_off_c, 1, 60, 0
1, 190739, Note_off_c, 1, 72, 0
1, 190739, Note_off_c, 1, 36, 0
1, 190740, Note_on_c, 1, 70, 127
1, 190740, Note_on_c, 1, 64, 127
1, 190740, Note_on_c, 1, 55, 127
1, 190740, Note_on_c, 1, 48, 127
1, 190740, Note_on_c, 1, 67, 127
1, 190800, Note_on_c, 1, 52, 127
1, 190859, Note_off_c, 1, 70, 0
1, 190859, Note_off_c, 1, 64, 0
1, 190859, Note_off_c, 1, 55, 0
1, 190859, Note_off_c, 1, 48, 0
1, 190859, Note_off_c, 1, 67, 0
1, 190859, Note_off_c, 1, 52, 0
1, 190860, Note_on_c, 1, 69, 127
1, 190860, Note_on_c, 1, 60, 127
1, 190860, Note_on_c, 1, 53, 127
1, 190860, Note_on_c, 1, 65, 127
1, 190920, Note_on_c, 1, 41, 127
1, 190979, Note_off_c, 1, 69, 0
1, 190979, Note_off_c, 1, 60, 0
1, 190979, Note_off_c, 1, 41, 0
1, 190980, Note_on_c, 1, 74, 127
1, 190980, Note_on_c, 1, 58, 127
1, 190980, Note_on_c, 1, 46, 127
1, 191040, Note_on_c, 1, 48, 127
1, 191099, Note_off_c, 1, 53, 0
1, 191099, Note_off_c, 1, 65, 0
1, 191099, Note_off_c, 1, 74, 0
1, 191099, Note_off_c, 1, 58, 0
1, 191099, Note_off_c, 1, 48, 0
1, 191100, Note_on_c, 1, 70, 127
1, 191100, Note_on_c, 1, 62, 127
1, 191100, Note_on_c, 1, 50, 127
1, 191159, Note_off_c, 1, 50, 0
1, 191219, Note_off_c, 1, 46, 0
1, 191219, Note_off_c, 1, 70, 0
1, 191219, Note_off_c, 1, 62, 0
1, 191220, Note_on_c, 1, 67, 127
1, 191220, Note_on_c, 1, 55, 127
1, 191339, Note_off_c, 1, 55, 0
1, 191340, Note_on_c, 1, 64, 127
1, 191399, Note_off_c, 1, 64, 0
1, 191460, Note_on_c, 1, 36, 127
1, 191579, Note_off_c, 1, 67, 0
1, 191579, Note_off_c, 1, 36, 0
1, 191580, Note_on_c, 1, 57, 127
1, 191640, Note_on_c, 1, 72, 127
1, 191669, Note_off_c, 1, 72, 0
1, 191819, Note_off_c, 1, 57, 0
1, 191820, Note_on_c, 1, 74, 127
1, 191820, Note_on_c, 1, 70, 127
1, 191820, Note_on_c, 1, 65, 127
1, 191879, Note_off_c, 1, 74, 0
1, 191879, Note_off_c, 1, 70, 0
1, 191879, Note_off_c, 1, 65, 0
1, 191880, Note_on_c, 1, 70, 127
1, 191880, Note_on_c, 1, 67, 127
1, 191880, Note_on_c, 1, 65, 127
1, 191939, Note_off_c, 1, 70, 0
1, 191939, Note_off_c, 1, 67, 0
1, 191939, Note_off_c, 1, 65, 0
1, 191940, Note_on_c, 1, 72, 127
1, 191940, Note_on_c, 1, 69, 127
1, 191940, Note_on_c, 1, 65, 127
1, 191940, Note_on_c, 1, 41, 127
1, 191940, Note_on_c, 1, 53, 127
1, 191999, Note_off_c, 1, 72, 0
1, 191999, Note_off_c, 1, 69, 0
1, 191999, Note_off_c, 1, 65, 0
1, 192000, Note_on_c, 1, 60, 127
1, 192059, Note_off_c, 1, 41, 0
1, 192059, Note_off_c, 1, 53, 0
1, 192059, Note_off_c, 1, 60, 0
1, 192060, Note_on_c, 1, 69, 127
1, 192060, Note_on_c, 1, 65, 127
1, 192119, Note_off_c, 1, 69, 0
1, 192119, Note_off_c, 1, 65, 0
1, 192120, Note_on_c, 1, 70, 127
1, 192120, Note_on_c, 1, 67, 127
1, 192120, Note_on_c, 1, 60, 127
1, 192149, Note_off_c, 1, 60, 0
1, 192150, Note_on_c, 1, 58, 127
1, 192179, Note_off_c, 1, 70, 0
1, 192179, Note_off_c, 1, 67, 0
1, 192179, Note_off_c, 1, 58, 0
1, 192180, Note_on_c, 1, 70, 127
1, 192180, Note_on_c, 1, 67, 127
1, 192180, Note_on_c, 1, 60, 127
1, 192239, Note_off_c, 1, 70, 0
1, 192239, Note_off_c, 1, 67, 0
1, 192239, Note_off_c, 1, 60, 0
1, 192240, Note_on_c, 1, 67, 127
1, 192240, Note_on_c, 1, 60, 127
1, 192299, Note_off_c, 1, 67, 0
1, 192299, Note_off_c, 1, 60, 0
1, 192300, Note_on_c, 1, 69, 127
1, 192300, Note_on_c, 1, 65, 127
1, 192300, Note_on_c, 1, 60, 127
1, 192300, Note_on_c, 1, 53, 127
1, 192359, Note_off_c, 1, 65, 0
1, 192359, Note_off_c, 1, 60, 0
1, 192359, Note_off_c, 1, 53, 0
1, 192360, Note_on_c, 1, 72, 127
1, 192360, Note_on_c, 1, 77, 127
1, 192360, Note_on_c, 1, 57, 127
1, 192389, Note_off_c, 1, 72, 0
1, 192389, Note_off_c, 1, 77, 0
1, 192390, Note_on_c, 1, 70, 127
1, 192390, Note_on_c, 1, 76, 127
1, 192390, Note_on_c, 1, 55, 127
1, 192419, Note_off_c, 1, 57, 0
1, 192419, Note_off_c, 1, 70, 0
1, 192419, Note_off_c, 1, 76, 0
1, 192419, Note_off_c, 1, 55, 0
1, 192479, Note_off_c, 1, 69, 0
1, 192480, Note_on_c, 1, 77, 127
1, 192480, Note_on_c, 1, 60, 127
1, 192480, Note_on_c, 1, 81, 127
1, 192480, Note_on_c, 1, 52, 127
1, 192509, Note_off_c, 1, 77, 0
1, 192509, Note_off_c, 1, 81, 0
1, 192510, Note_on_c, 1, 76, 127
1, 192510, Note_on_c, 1, 79, 127
1, 192539, Note_off_c, 1, 60, 0
1, 192539, Note_off_c, 1, 52, 0
1, 192539, Note_off_c, 1, 76, 0
1, 192539, Note_off_c, 1, 79, 0
1, 192540, Note_on_c, 1, 77, 127
1, 192540, Note_on_c, 1, 65, 127
1, 192540, Note_on_c, 1, 81, 127
1, 192540, Note_on_c, 1, 50, 127
1, 192599, Note_off_c, 1, 77, 0
1, 192599, Note_off_c, 1, 81, 0
1, 192599, Note_off_c, 1, 50, 0
1, 192600, Note_on_c, 1, 69, 127
1, 192600, Note_on_c, 1, 74, 127
1, 192600, Note_on_c, 1, 48, 127
1, 192630, Note_on_c, 1, 76, 127
1, 192659, Note_off_c, 1, 69, 0
1, 192659, Note_off_c, 1, 74, 0
1, 192659, Note_off_c, 1, 48, 0
1, 192659, Note_off_c, 1, 76, 0
1, 192660, Note_on_c, 1, 67, 127
1, 192660, Note_on_c, 1, 46, 127
1, 192719, Note_off_c, 1, 65, 0
1, 192719, Note_off_c, 1, 46, 0
1, 192720, Note_on_c, 1, 70, 127
1, 192720, Note_on_c, 1, 79, 127
1, 192720, Note_on_c, 1, 45, 127
1, 192749, Note_off_c, 1, 70, 0
1, 192749, Note_off_c, 1, 79, 0
1, 192779, Note_off_c, 1, 45, 0
1, 192839, Note_off_c, 1, 67, 0
1, 192840, Note_on_c, 1, 72, 127
1, 192840, Note_on_c, 1, 60, 127
1, 192869, Note_off_c, 1, 72, 0
1, 192899, Note_off_c, 1, 60, 0
1, 192900, Note_on_c, 1, 72, 127
1, 192900, Note_on_c, 1, 60, 127
1, 192900, Note_on_c, 1, 76, 127
1, 192900, Note_on_c, 1, 36, 127
1, 192900, Note_on_c, 1, 48, 127
1, 192929, Note_off_c, 1, 72, 0
1, 192930, Note_on_c, 1, 70, 127
1, 192959, Note_off_c, 1, 60, 0
1, 192959, Note_off_c, 1, 76, 0
1, 192959, Note_off_c, 1, 70, 0
1, 192960, Note_on_c, 1, 69, 127
1, 192960, Note_on_c, 1, 77, 127
1, 192960, Note_on_c, 1, 67, 127
1, 193019, Note_off_c, 1, 36, 0
1, 193019, Note_off_c, 1, 48, 0
1, 193019, Note_off_c, 1, 77, 0
1, 193019, Note_off_c, 1, 67, 0
1, 193020, Note_on_c, 1, 65, 127
1, 193020, Note_on_c, 1, 57, 127
1, 193020, Note_on_c, 1, 41, 127
1, 193020, Note_on_c, 1, 53, 127
1, 193139, Note_off_c, 1, 65, 0
1, 193139, Note_off_c, 1, 57, 0
1, 193139, Note_off_c, 1, 41, 0
1, 193139, Note_off_c, 1, 53, 0
1, 193140, Note_off_c, 1, 69, 0
1, 193140, End_track
0, 0, End_of_file