0, 0, Header, 1, 1, 480
1, 0, Start_track
1, 0, Title_t, "Test"
1, 0, Tempo, 500000
1, 0, Instrument_name_t, "Church Organ"
1, 0, Note_on_c, 1, 76, 127
1, 0, Note_on_c, 1, 73, 127
1, 0, Note_on_c, 1, 69, 127
1, 0, Note_on_c, 1, 45, 127
1, 47, Note_off_c, 1, 76, 0
1, 47, Note_off_c, 1, 73, 0
1, 47, Note_off_c, 1, 69, 0
1, 47, Note_off_c, 1, 45, 0
1, 60, Note_on_c, 1, 61, 127
1, 60, Note_on_c, 1, 57, 127
1, 60, Note_on_c, 1, 73, 127
1, 60, Note_on_c, 1, 69, 127
1, 60, Note_on_c, 1, 64, 127
1, 89, Note_off_c, 1, 61, 0
1, 90, Note_on_c, 1, 62, 127
1, 90, Note_on_c, 1, 59, 127
1, 107, Note_off_c, 1, 57, 0
1, 107, Note_off_c, 1, 73, 0
1, 107, Note_off_c, 1, 69, 0
1, 107, Note_off_c, 1, 64, 0
1, 119, Note_off_c, 1, 62, 0
1, 119, Note_off_c, 1, 59, 0
1, 120, Note_on_c, 1, 64, 127
1, 120, Note_on_c, 1, 61, 127
1, 120, Note_on_c, 1, 57, 127
1, 167, Note_off_c, 1, 57, 0
1, 179, Note_off_c, 1, 64, 0
1, 179, Note_off_c, 1, 61, 0
1, 180, Note_on_c, 1, 64, 127
1, 180, Note_on_c, 1, 61, 127
1, 180, Note_on_c, 1, 57, 127
1, 227, Note_off_c, 1, 57, 0
1, 239, Note_off_c, 1, 64, 0
1, 239, Note_off_c, 1, 61, 0
1, 240, Note_on_c, 1, 66, 127
1, 240, Note_on_c, 1, 62, 127
1, 240, Note_on_c, 1, 57, 127
1, 269, Note_off_c, 1, 66, 0
1, 269, Note_off_c, 1, 62, 0
1, 270, Note_on_c, 1, 64, 127
1, 270, Note_on_c, 1, 61, 127
1, 287, Note_off_c, 1, 57, 0
1, 299, Note_off_c, 1, 64, 0
1, 299, Note_off_c, 1, 61, 0
1, 300, Note_on_c, 1, 62, 127
1, 300, Note_on_c, 1, 59, 127
1, 300, Note_on_c, 1, 57, 127
1, 329, Note_off_c, 1, 62, 0
1, 329, Note_off_c, 1, 59, 0
1, 330, Note_on_c, 1, 66, 127
1, 347, Note_off_c, 1, 57, 0
1, 359, Note_off_c, 1, 66, 0
1, 360, Note_on_c, 1, 64, 127
1, 360, Note_on_c, 1, 61, 127
1, 360, Note_on_c, 1, 57, 127
1, 390, Note_on_c, 1, 76, 127
1, 390, Note_on_c, 1, 73, 127
1, 390, Note_on_c, 1, 69, 127
1, 407, Note_off_c, 1, 57, 0
1, 413, Note_off_c, 1, 76, 0
1, 413, Note_off_c, 1, 73, 0
1, 413, Note_off_c, 1, 69, 0
1, 419, Note_off_c, 1, 64, 0
1, 419, Note_off_c, 1, 61, 0
1, 420, Note_on_c, 1, 81, 127
1, 420, Note_on_c, 1, 76, 127
1, 420, Note_on_c, 1, 73, 127
1, 420, Note_on_c, 1, 45, 127
1, 443, Note_off_c, 1, 81, 0
1, 443, Note_off_c, 1, 76, 0
1, 443, Note_off_c, 1, 73, 0
1, 450, Note_on_c, 1, 69, 127
1, 467, Note_off_c, 1, 45, 0
1, 473, Note_off_c, 1, 69, 0
1, 480, Note_on_c, 1, 69, 127
1, 480, Note_on_c, 1, 64, 127
1, 480, Note_on_c, 1, 73, 127
1, 480, Note_on_c, 1, 45, 127
1, 503, Note_off_c, 1, 73, 0
1, 509, Note_off_c, 1, 69, 0
1, 509, Note_off_c, 1, 64, 0
1, 510, Note_on_c, 1, 76, 127
1, 527, Note_off_c, 1, 45, 0
1, 533, Note_off_c, 1, 76, 0
1, 540, Note_on_c, 1, 69, 127
1, 540, Note_on_c, 1, 64, 127
1, 540, Note_on_c, 1, 61, 127
1, 540, Note_on_c, 1, 49, 127
1, 563, Note_off_c, 1, 69, 0
1, 563, Note_off_c, 1, 64, 0
1, 563, Note_off_c, 1, 61, 0
1, 570, Note_on_c, 1, 73, 127
1, 587, Note_off_c, 1, 49, 0
1, 593, Note_off_c, 1, 73, 0
1, 600, Note_on_c, 1, 71, 127
1, 600, Note_on_c, 1, 68, 127
1, 600, Note_on_c, 1, 59, 127
1, 600, Note_on_c, 1, 52, 127
1, 629, Note_off_c, 1, 71, 0
1, 629, Note_off_c, 1, 68, 0
1, 630, Note_on_c, 1, 74, 127
1, 647, Note_off_c, 1, 59, 0
1, 647, Note_off_c, 1, 52, 0
1, 653, Note_off_c, 1, 74, 0
1, 660, Note_on_c, 1, 73, 127
1, 660, Note_on_c, 1, 68, 127
1, 660, Note_on_c, 1, 64, 127
1, 660, Note_on_c, 1, 40, 127
1, 683, Note_off_c, 1, 73, 0
1, 690, Note_on_c, 1, 71, 127
1, 707, Note_off_c, 1, 68, 0
1, 707, Note_off_c, 1, 64, 0
1, 707, Note_off_c, 1, 40, 0
1, 713, Note_off_c, 1, 71, 0
1, 720, Note_on_c, 1, 73, 127
1, 720, Note_on_c, 1, 69, 127
1, 720, Note_on_c, 1, 64, 127
1, 720, Note_on_c, 1, 45, 127
1, 767, Note_off_c, 1, 64, 0
1, 767, Note_off_c, 1, 45, 0
1, 779, Note_off_c, 1, 73, 0
1, 779, Note_off_c, 1, 69, 0
1, 780, Note_on_c, 1, 69, 127
1, 780, Note_on_c, 1, 61, 127
1, 780, Note_on_c, 1, 64, 127
1, 780, Note_on_c, 1, 57, 127
1, 810, Note_on_c, 1, 71, 127
1, 810, Note_on_c, 1, 62, 127
1, 827, Note_off_c, 1, 69, 0
1, 827, Note_off_c, 1, 61, 0
1, 827, Note_off_c, 1, 64, 0
1, 827, Note_off_c, 1, 57, 0
1, 839, Note_off_c, 1, 71, 0
1, 839, Note_off_c, 1, 62, 0
1, 840, Note_on_c, 1, 73, 127
1, 840, Note_on_c, 1, 64, 127
1, 840, Note_on_c, 1, 57, 127
1, 869, Note_off_c, 1, 73, 0
1, 869, Note_off_c, 1, 64, 0
1, 870, Note_on_c, 1, 74, 127
1, 870, Note_on_c, 1, 66, 127
1, 887, Note_off_c, 1, 57, 0
1, 899, Note_off_c, 1, 74, 0
1, 899, Note_off_c, 1, 66, 0
1, 900, Note_on_c, 1, 71, 127
1, 900, Note_on_c, 1, 62, 127
1, 900, Note_on_c, 1, 57, 127
1, 929, Note_off_c, 1, 71, 0
1, 929, Note_off_c, 1, 62, 0
1, 930, Note_on_c, 1, 73, 127
1, 930, Note_on_c, 1, 64, 127
1, 947, Note_off_c, 1, 57, 0
1, 959, Note_off_c, 1, 73, 0
1, 959, Note_off_c, 1, 64, 0
1, 960, Note_on_c, 1, 74, 127
1, 960, Note_on_c, 1, 66, 127
1, 960, Note_on_c, 1, 57, 127
1, 989, Note_off_c, 1, 74, 0
1, 989, Note_off_c, 1, 66, 0
1, 990, Note_on_c, 1, 73, 127
1, 990, Note_on_c, 1, 64, 127
1, 1007, Note_off_c, 1, 57, 0
1, 1019, Note_off_c, 1, 73, 0
1, 1019, Note_off_c, 1, 64, 0
1, 1020, Note_on_c, 1, 71, 127
1, 1020, Note_on_c, 1, 62, 127
1, 1020, Note_on_c, 1, 57, 127
1, 1049, Note_off_c, 1, 71, 0
1, 1049, Note_off_c, 1, 62, 0
1, 1050, Note_on_c, 1, 74, 127
1, 1050, Note_on_c, 1, 66, 127
1, 1067, Note_off_c, 1, 57, 0
1, 1079, Note_off_c, 1, 74, 0
1, 1079, Note_off_c, 1, 66, 0
1, 1080, Note_on_c, 1, 73, 127
1, 1080, Note_on_c, 1, 64, 127
1, 1080, Note_on_c, 1, 57, 127
1, 1110, Note_on_c, 1, 69, 127
1, 1127, Note_off_c, 1, 57, 0
1, 1133, Note_off_c, 1, 69, 0
1, 1139, Note_off_c, 1, 73, 0
1, 1139, Note_off_c, 1, 64, 0
1, 1140, Note_on_c, 1, 76, 127
1, 1140, Note_on_c, 1, 73, 127
1, 1140, Note_on_c, 1, 69, 127
1, 1140, Note_on_c, 1, 45, 127
1, 1163, Note_off_c, 1, 76, 0
1, 1163, Note_off_c, 1, 73, 0
1, 1163, Note_off_c, 1, 69, 0
1, 1170, Note_on_c, 1, 64, 127
1, 1187, Note_off_c, 1, 45, 0
1, 1193, Note_off_c, 1, 64, 0
1, 1200, Note_on_c, 1, 76, 127
1, 1200, Note_on_c, 1, 69, 127
1, 1200, Note_on_c, 1, 64, 127
1, 1200, Note_on_c, 1, 61, 127
1, 1200, Note_on_c, 1, 45, 127
1, 1223, Note_off_c, 1, 64, 0
1, 1223, Note_off_c, 1, 61, 0
1, 1229, Note_off_c, 1, 76, 0
1, 1229, Note_off_c, 1, 69, 0
1, 1230, Note_on_c, 1, 73, 127
1, 1247, Note_off_c, 1, 45, 0
1, 1253, Note_off_c, 1, 73, 0
1, 1260, Note_on_c, 1, 64, 127
1, 1260, Note_on_c, 1, 61, 127
1, 1260, Note_on_c, 1, 57, 127
1, 1260, Note_on_c, 1, 49, 127
1, 1283, Note_off_c, 1, 64, 0
1, 1283, Note_off_c, 1, 61, 0
1, 1283, Note_off_c, 1, 57, 0
1, 1290, Note_on_c, 1, 69, 127
1, 1307, Note_off_c, 1, 49, 0
1, 1313, Note_off_c, 1, 69, 0
1, 1320, Note_on_c, 1, 80, 127
1, 1320, Note_on_c, 1, 71, 127
1, 1320, Note_on_c, 1, 62, 127
1, 1320, Note_on_c, 1, 59, 127
1, 1320, Note_on_c, 1, 56, 127
1, 1320, Note_on_c, 1, 52, 127
1, 1343, Note_off_c, 1, 62, 0
1, 1349, Note_off_c, 1, 80, 0
1, 1349, Note_off_c, 1, 71, 0
1, 1350, Note_on_c, 1, 66, 127
1, 1367, Note_off_c, 1, 59, 0
1, 1367, Note_off_c, 1, 56, 0
1, 1367, Note_off_c, 1, 52, 0
1, 1373, Note_off_c, 1, 66, 0
1, 1380, Note_on_c, 1, 64, 127
1, 1380, Note_on_c, 1, 59, 127
1, 1380, Note_on_c, 1, 56, 127
1, 1380, Note_on_c, 1, 40, 127
1, 1403, Note_off_c, 1, 64, 0
1, 1410, Note_on_c, 1, 62, 127
1, 1427, Note_off_c, 1, 59, 0
1, 1427, Note_off_c, 1, 56, 0
1, 1427, Note_off_c, 1, 40, 0
1, 1433, Note_off_c, 1, 62, 0
1, 1440, Note_on_c, 1, 81, 127
1, 1440, Note_on_c, 1, 73, 127
1, 1440, Note_on_c, 1, 61, 127
1, 1440, Note_on_c, 1, 57, 127
1, 1440, Note_on_c, 1, 52, 127
1, 1440, Note_on_c, 1, 45, 127
1, 1463, Note_off_c, 1, 61, 0
1, 1470, Note_on_c, 1, 64, 127
1, 1487, Note_off_c, 1, 57, 0
1, 1487, Note_off_c, 1, 52, 0
1, 1487, Note_off_c, 1, 45, 0
1, 1493, Note_off_c, 1, 64, 0
1, 1499, Note_off_c, 1, 73, 0
1, 1500, Note_on_c, 1, 69, 127
1, 1523, Note_off_c, 1, 69, 0
1, 1559, Note_off_c, 1, 81, 0
1, 1560, Note_on_c, 1, 76, 127
1, 1620, Note_on_c, 1, 49, 127
1, 1667, Note_off_c, 1, 49, 0
1, 1740, Note_on_c, 1, 67, 127
1, 1799, Note_off_c, 1, 67, 0
1, 1800, Note_on_c, 1, 66, 127
1, 1800, Note_on_c, 1, 50, 127
1, 1847, Note_off_c, 1, 50, 0
1, 1859, Note_off_c, 1, 76, 0
1, 1860, Note_on_c, 1, 74, 127
1, 1860, Note_on_c, 1, 62, 127
1, 1883, Note_off_c, 1, 74, 0
1, 1907, Note_off_c, 1, 62, 0
1, 1980, Note_on_c, 1, 54, 127
1, 2027, Note_off_c, 1, 54, 0
1, 2100, Note_on_c, 1, 78, 127
1, 2159, Note_off_c, 1, 78, 0
1, 2160, Note_on_c, 1, 71, 127
1, 2160, Note_on_c, 1, 59, 127
1, 2160, Note_on_c, 1, 51, 127
1, 2207, Note_off_c, 1, 59, 0
1, 2207, Note_off_c, 1, 51, 0
1, 2220, Note_on_c, 1, 63, 127
1, 2220, Note_on_c, 1, 75, 127
1, 2220, Note_on_c, 1, 47, 127
1, 2243, Note_off_c, 1, 75, 0
1, 2267, Note_off_c, 1, 66, 0
1, 2267, Note_off_c, 1, 47, 0
1, 2339, Note_off_c, 1, 63, 0
1, 2520, Note_on_c, 1, 68, 127
1, 2580, Note_off_c, 1, 71, 0
1, 2700, Note_on_c, 1, 56, 127
1, 2747, Note_off_c, 1, 56, 0
1, 2880, Note_on_c, 1, 40, 127
1, 2910, Note_on_c, 1, 80, 127
1, 2927, Note_off_c, 1, 40, 0
1, 2933, Note_off_c, 1, 80, 0
1, 2940, Note_on_c, 1, 83, 127
1, 2963, Note_off_c, 1, 83, 0
1, 2975, Note_off_c, 1, 68, 0
1, 3420, Note_on_c, 1, 79, 127
1, 3420, Note_on_c, 1, 76, 127
1, 3420, Note_on_c, 1, 81, 127
1, 3420, Note_on_c, 1, 73, 127
1, 3420, Note_on_c, 1, 64, 127
1, 3420, Note_on_c, 1, 57, 127
1, 3443, Note_off_c, 1, 81, 0
1, 3450, Note_on_c, 1, 85, 127
1, 3467, Note_off_c, 1, 73, 0
1, 3467, Note_off_c, 1, 64, 0
1, 3467, Note_off_c, 1, 57, 0
1, 3473, Note_off_c, 1, 85, 0
1, 3480, Note_on_c, 1, 88, 127
1, 3480, Note_on_c, 1, 69, 127
1, 3480, Note_on_c, 1, 61, 127
1, 3503, Note_off_c, 1, 88, 0
1, 3527, Note_off_c, 1, 69, 0
1, 3527, Note_off_c, 1, 61, 0
1, 3539, Note_off_c, 1, 79, 0
1, 3539, Note_off_c, 1, 76, 0
1, 3540, Note_on_c, 1, 78, 127
1, 3540, Note_on_c, 1, 74, 127
1, 3540, Note_on_c, 1, 69, 127
1, 3540, Note_on_c, 1, 57, 127
1, 3569, Note_off_c, 1, 78, 0
1, 3569, Note_off_c, 1, 74, 0
1, 3570, Note_on_c, 1, 76, 127
1, 3570, Note_on_c, 1, 73, 127
1, 3587, Note_off_c, 1, 69, 0
1, 3587, Note_off_c, 1, 57, 0
1, 3599, Note_off_c, 1, 76, 0
1, 3599, Note_off_c, 1, 73, 0
1, 3600, Note_on_c, 1, 78, 127
1, 3600, Note_on_c, 1, 74, 127
1, 3600, Note_on_c, 1, 69, 127
1, 3600, Note_on_c, 1, 66, 127
1, 3600, Note_on_c, 1, 62, 127
1, 3647, Note_off_c, 1, 69, 0
1, 3647, Note_off_c, 1, 66, 0
1, 3647, Note_off_c, 1, 62, 0
1, 3659, Note_off_c, 1, 78, 0
1, 3659, Note_off_c, 1, 74, 0
1, 3660, Note_on_c, 1, 74, 127
1, 3660, Note_on_c, 1, 69, 127
1, 3660, Note_on_c, 1, 54, 127
1, 3707, Note_off_c, 1, 54, 0
1, 3720, Note_on_c, 1, 78, 127
1, 3743, Note_off_c, 1, 78, 0
1, 3779, Note_off_c, 1, 74, 0
1, 3779, Note_off_c, 1, 69, 0
1, 3780, Note_on_c, 1, 78, 127
1, 3780, Note_on_c, 1, 74, 127
1, 3780, Note_on_c, 1, 69, 127
1, 3780, Note_on_c, 1, 66, 127
1, 3780, Note_on_c, 1, 50, 127
1, 3810, Note_on_c, 1, 81, 127
1, 3827, Note_off_c, 1, 69, 0
1, 3827, Note_off_c, 1, 66, 0
1, 3827, Note_off_c, 1, 50, 0
1, 3833, Note_off_c, 1, 81, 0
1, 3840, Note_on_c, 1, 86, 127
1, 3863, Note_off_c, 1, 86, 0
1, 3899, Note_off_c, 1, 78, 0
1, 3899, Note_off_c, 1, 74, 0
1, 3900, Note_on_c, 1, 76, 127
1, 3900, Note_on_c, 1, 73, 127
1, 3900, Note_on_c, 1, 69, 127
1, 3900, Note_on_c, 1, 57, 127
1, 3929, Note_off_c, 1, 76, 0
1, 3929, Note_off_c, 1, 73, 0
1, 3930, Note_on_c, 1, 74, 127
1, 3930, Note_on_c, 1, 71, 127
1, 3947, Note_off_c, 1, 69, 0
1, 3947, Note_off_c, 1, 57, 0
1, 3959, Note_off_c, 1, 74, 0
1, 3959, Note_off_c, 1, 71, 0
1, 3960, Note_on_c, 1, 76, 127
1, 3960, Note_on_c, 1, 73, 127
1, 3960, Note_on_c, 1, 69, 127
1, 3960, Note_on_c, 1, 61, 127
1, 3960, Note_on_c, 1, 57, 127
1, 4007, Note_off_c, 1, 69, 0
1, 4007, Note_off_c, 1, 61, 0
1, 4007, Note_off_c, 1, 57, 0
1, 4019, Note_off_c, 1, 76, 0
1, 4019, Note_off_c, 1, 73, 0
1, 4020, Note_on_c, 1, 73, 127
1, 4020, Note_on_c, 1, 69, 127
1, 4020, Note_on_c, 1, 64, 127
1, 4020, Note_on_c, 1, 45, 127
1, 4067, Note_off_c, 1, 64, 0
1, 4067, Note_off_c, 1, 45, 0
1, 4080, Note_on_c, 1, 76, 127
1, 4103, Note_off_c, 1, 76, 0
1, 4139, Note_off_c, 1, 73, 0
1, 4139, Note_off_c, 1, 69, 0
1, 4140, Note_on_c, 1, 76, 127
1, 4140, Note_on_c, 1, 73, 127
1, 4140, Note_on_c, 1, 69, 127
1, 4140, Note_on_c, 1, 42, 127
1, 4170, Note_on_c, 1, 81, 127
1, 4187, Note_off_c, 1, 69, 0
1, 4187, Note_off_c, 1, 42, 0
1, 4193, Note_off_c, 1, 81, 0
1, 4200, Note_on_c, 1, 85, 127
1, 4200, Note_on_c, 1, 66, 127
1, 4223, Note_off_c, 1, 85, 0
1, 4247, Note_off_c, 1, 66, 0
1, 4259, Note_off_c, 1, 76, 0
1, 4259, Note_off_c, 1, 73, 0
1, 4260, Note_on_c, 1, 74, 127
1, 4260, Note_on_c, 1, 71, 127
1, 4260, Note_on_c, 1, 69, 127
1, 4260, Note_on_c, 1, 66, 127
1, 4260, Note_on_c, 1, 47, 127
1, 4289, Note_off_c, 1, 74, 0
1, 4289, Note_off_c, 1, 71, 0
1, 4290, Note_on_c, 1, 73, 127
1, 4307, Note_off_c, 1, 66, 0
1, 4307, Note_off_c, 1, 47, 0
1, 4319, Note_off_c, 1, 69, 0
1, 4319, Note_off_c, 1, 73, 0
1, 4320, Note_on_c, 1, 74, 127
1, 4320, Note_on_c, 1, 71, 127
1, 4320, Note_on_c, 1, 66, 127
1, 4320, Note_on_c, 1, 62, 127
1, 4320, Note_on_c, 1, 47, 127
1, 4367, Note_off_c, 1, 66, 0
1, 4367, Note_off_c, 1, 62, 0
1, 4367, Note_off_c, 1, 47, 0
1, 4379, Note_off_c, 1, 74, 0
1, 4379, Note_off_c, 1, 71, 0
1, 4380, Note_on_c, 1, 71, 127
1, 4380, Note_on_c, 1, 68, 127
1, 4380, Note_on_c, 1, 64, 127
1, 4380, Note_on_c, 1, 52, 127
1, 4427, Note_off_c, 1, 64, 0
1, 4427, Note_off_c, 1, 52, 0
1, 4440, Note_on_c, 1, 74, 127
1, 4463, Note_off_c, 1, 74, 0
1, 4499, Note_off_c, 1, 71, 0
1, 4499, Note_off_c, 1, 68, 0
1, 4500, Note_on_c, 1, 74, 127
1, 4500, Note_on_c, 1, 71, 127
1, 4500, Note_on_c, 1, 64, 127
1, 4500, Note_on_c, 1, 59, 127
1, 4500, Note_on_c, 1, 44, 127
1, 4530, Note_on_c, 1, 80, 127
1, 4547, Note_off_c, 1, 64, 0
1, 4547, Note_off_c, 1, 59, 0
1, 4547, Note_off_c, 1, 44, 0
1, 4553, Note_off_c, 1, 80, 0
1, 4560, Note_on_c, 1, 83, 127
1, 4583, Note_off_c, 1, 83, 0
1, 4619, Note_off_c, 1, 74, 0
1, 4619, Note_off_c, 1, 71, 0
1, 4620, Note_on_c, 1, 73, 127
1, 4620, Note_on_c, 1, 69, 127
1, 4620, Note_on_c, 1, 66, 127
1, 4620, Note_on_c, 1, 64, 127
1, 4620, Note_on_c, 1, 40, 127
1, 4643, Note_off_c, 1, 66, 0
1, 4649, Note_off_c, 1, 73, 0
1, 4649, Note_off_c, 1, 69, 0
1, 4650, Note_on_c, 1, 71, 127
1, 4650, Note_on_c, 1, 68, 127
1, 4667, Note_off_c, 1, 64, 0
1, 4667, Note_off_c, 1, 40, 0
1, 4679, Note_off_c, 1, 71, 0
1, 4679, Note_off_c, 1, 68, 0
1, 4680, Note_on_c, 1, 73, 127
1, 4680, Note_on_c, 1, 69, 127
1, 4680, Note_on_c, 1, 64, 127
1, 4680, Note_on_c, 1, 45, 127
1, 4709, Note_off_c, 1, 73, 0
1, 4727, Note_off_c, 1, 64, 0
1, 4727, Note_off_c, 1, 45, 0
1, 4740, Note_on_c, 1, 71, 127
1, 4740, Note_on_c, 1, 44, 127
1, 4763, Note_off_c, 1, 71, 0
1, 4763, Note_off_c, 1, 44, 0
1, 4800, Note_on_c, 1, 74, 127
1, 4800, Note_on_c, 1, 66, 127
1, 4800, Note_on_c, 1, 62, 127
1, 4800, Note_on_c, 1, 47, 127
1, 4829, Note_off_c, 1, 74, 0
1, 4847, Note_off_c, 1, 66, 0
1, 4847, Note_off_c, 1, 62, 0
1, 4847, Note_off_c, 1, 47, 0
1, 4920, Note_on_c, 1, 76, 127
1, 4920, Note_on_c, 1, 57, 127
1, 4920, Note_on_c, 1, 49, 127
1, 4949, Note_off_c, 1, 76, 0
1, 4967, Note_off_c, 1, 57, 0
1, 4967, Note_off_c, 1, 49, 0
1, 5040, Note_on_c, 1, 78, 127
1, 5040, Note_on_c, 1, 50, 127
1, 5069, Note_off_c, 1, 78, 0
1, 5087, Note_off_c, 1, 50, 0
1, 5100, Note_off_c, 1, 69, 0
1, 5160, Note_on_c, 1, 80, 127
1, 5160, Note_on_c, 1, 68, 127
1, 5160, Note_on_c, 1, 52, 127
1, 5189, Note_off_c, 1, 80, 0
1, 5207, Note_off_c, 1, 68, 0
1, 5207, Note_off_c, 1, 52, 0
1, 5280, Note_on_c, 1, 81, 127
1, 5280, Note_on_c, 1, 61, 127
1, 5280, Note_on_c, 1, 54, 127
1, 5309, Note_off_c, 1, 81, 0
1, 5327, Note_off_c, 1, 61, 0
1, 5327, Note_off_c, 1, 54, 0
1, 5400, Note_on_c, 1, 83, 127
1, 5400, Note_on_c, 1, 59, 127
1, 5400, Note_on_c, 1, 56, 127
1, 5429, Note_off_c, 1, 83, 0
1, 5447, Note_off_c, 1, 59, 0
1, 5447, Note_off_c, 1, 56, 0
1, 5700, Note_on_c, 1, 40, 127
1, 5747, Note_off_c, 1, 40, 0
1, 6300, Note_on_c, 1, 55, 127
1, 6360, Note_off_c, 1, 55, 0
1, 7440, Note_on_c, 1, 74, 127
1, 7440, Note_on_c, 1, 66, 127
1, 7440, Note_on_c, 1, 44, 127
1, 7440, Note_on_c, 1, 56, 127
1, 7469, Note_off_c, 1, 74, 0
1, 7469, Note_off_c, 1, 66, 0
1, 7470, Note_on_c, 1, 73, 127
1, 7470, Note_on_c, 1, 64, 127
1, 7487, Note_off_c, 1, 44, 0
1, 7487, Note_off_c, 1, 56, 0
1, 7499, Note_off_c, 1, 73, 0
1, 7499, Note_off_c, 1, 64, 0
1, 7500, Note_on_c, 1, 71, 127
1, 7500, Note_on_c, 1, 62, 127
1, 7500, Note_on_c, 1, 45, 127
1, 7500, Note_on_c, 1, 57, 127
1, 7529, Note_off_c, 1, 71, 0
1, 7529, Note_off_c, 1, 62, 0
1, 7530, Note_on_c, 1, 69, 127
1, 7530, Note_on_c, 1, 61, 127
1, 7547, Note_off_c, 1, 45, 0
1, 7547, Note_off_c, 1, 57, 0
1, 7559, Note_off_c, 1, 69, 0
1, 7559, Note_off_c, 1, 61, 0
1, 7560, Note_on_c, 1, 68, 127
1, 7560, Note_on_c, 1, 59, 127
1, 7560, Note_on_c, 1, 71, 127
1, 7560, Note_on_c, 1, 52, 127
1, 7607, Note_off_c, 1, 52, 0
1, 7619, Note_off_c, 1, 59, 0
1, 7620, Note_on_c, 1, 64, 127
1, 7620, Note_on_c, 1, 56, 127
1, 7620, Note_on_c, 1, 40, 127
1, 7650, Note_off_c, 1, 64, 0
1, 7650, Note_off_c, 1, 56, 0
1, 7650, Note_on_c, 1, 66, 127
1, 7650, Note_on_c, 1, 57, 127
1, 7667, Note_off_c, 1, 40, 0
1, 7680, Note_off_c, 1, 66, 0
1, 7680, Note_off_c, 1, 57, 0
1, 7800, Note_off_c, 1, 68, 0
1, 7800, Note_off_c, 1, 71, 0
1, 7800, Note_on_c, 1, 69, 127
1, 7800, Note_on_c, 1, 61, 127
1, 7800, Note_on_c, 1, 73, 127
1, 7830, Note_off_c, 1, 61, 0
1, 7920, Note_off_c, 1, 69, 0
1, 7920, Note_off_c, 1, 73, 0
1, 8010, Note_on_c, 1, 54, 127
1, 8040, Note_off_c, 1, 54, 0
1, 8220, Note_on_c, 1, 45, 127
1, 8267, Note_off_c, 1, 45, 0
1, 8340, Note_on_c, 1, 76, 127
1, 8369, Note_off_c, 1, 76, 0
1, 8370, Note_on_c, 1, 78, 127
1, 8399, Note_off_c, 1, 78, 0
1, 8400, Note_on_c, 1, 80, 127
1, 8459, Note_off_c, 1, 80, 0
1, 8520, Note_on_c, 1, 81, 127
1, 8549, Note_off_c, 1, 81, 0
1, 8580, Note_on_c, 1, 78, 127
1, 8580, Note_on_c, 1, 69, 127
1, 8580, Note_on_c, 1, 40, 127
1, 8609, Note_off_c, 1, 78, 0
1, 8609, Note_off_c, 1, 69, 0
1, 8610, Note_on_c, 1, 81, 127
1, 8610, Note_on_c, 1, 73, 127
1, 8627, Note_off_c, 1, 40, 0
1, 8639, Note_off_c, 1, 81, 0
1, 8639, Note_off_c, 1, 73, 0
1, 8640, Note_on_c, 1, 80, 127
1, 8640, Note_on_c, 1, 71, 127
1, 8640, Note_on_c, 1, 68, 127
1, 8640, Note_on_c, 1, 64, 127
1, 8640, Note_on_c, 1, 52, 127
1, 8640, Note_on_c, 1, 40, 127
1, 8687, Note_off_c, 1, 40, 0
1, 8699, Note_off_c, 1, 80, 0
1, 8700, Note_on_c, 1, 76, 127
1, 8723, Note_off_c, 1, 76, 0
1, 8760, Note_off_c, 1, 71, 0
1, 8760, Note_on_c, 1, 83, 127
1, 8760, Note_on_c, 1, 59, 127
1, 8789, Note_off_c, 1, 64, 0
1, 8789, Note_off_c, 1, 83, 0
1, 8820, Note_off_c, 1, 52, 0
1, 8820, Note_on_c, 1, 56, 127
1, 8843, Note_off_c, 1, 59, 0
1, 8880, Note_off_c, 1, 68, 0
1, 8880, Note_off_c, 1, 56, 0
1, 8880, Note_on_c, 1, 75, 127
1, 8880, Note_on_c, 1, 66, 127
1, 8880, Note_on_c, 1, 63, 127
1, 8880, Note_on_c, 1, 54, 127
1, 8909, Note_off_c, 1, 75, 0
1, 8910, Note_on_c, 1, 69, 127
1, 8927, Note_off_c, 1, 54, 0
1, 8933, Note_off_c, 1, 69, 0
1, 8940, Note_on_c, 1, 47, 127
1, 9000, Note_off_c, 1, 66, 0
1, 9000, Note_off_c, 1, 63, 0
1, 9000, Note_off_c, 1, 47, 0
1, 9090, Note_on_c, 1, 73, 127
1, 9119, Note_off_c, 1, 73, 0
1, 9120, Note_on_c, 1, 74, 127
1, 9149, Note_off_c, 1, 74, 0
1, 9180, Note_on_c, 1, 50, 127
1, 9227, Note_off_c, 1, 50, 0
1, 9240, Note_on_c, 1, 76, 127
1, 9240, Note_on_c, 1, 73, 127
1, 9240, Note_on_c, 1, 49, 127
1, 9269, Note_off_c, 1, 76, 0
1, 9269, Note_off_c, 1, 73, 0
1, 9270, Note_on_c, 1, 74, 127
1, 9270, Note_on_c, 1, 71, 127
1, 9287, Note_off_c, 1, 49, 0
1, 9299, Note_off_c, 1, 74, 0
1, 9299, Note_off_c, 1, 71, 0
1, 9300, Note_on_c, 1, 73, 127
1, 9300, Note_on_c, 1, 69, 127
1, 9300, Note_on_c, 1, 52, 127
1, 9329, Note_off_c, 1, 73, 0
1, 9329, Note_off_c, 1, 69, 0
1, 9330, Note_on_c, 1, 71, 127
1, 9330, Note_on_c, 1, 68, 127
1, 9347, Note_off_c, 1, 52, 0
1, 9359, Note_off_c, 1, 71, 0
1, 9359, Note_off_c, 1, 68, 0
1, 9360, Note_on_c, 1, 69, 127
1, 9360, Note_on_c, 1, 66, 127
1, 9360, Note_on_c, 1, 61, 127
1, 9360, Note_on_c, 1, 54, 127
1, 9407, Note_off_c, 1, 54, 0
1, 9419, Note_off_c, 1, 69, 0
1, 9420, Note_on_c, 1, 57, 127
1, 9420, Note_on_c, 1, 42, 127
1, 9450, Note_off_c, 1, 57, 0
1, 9450, Note_on_c, 1, 59, 127
1, 9450, Note_on_c, 1, 56, 127
1, 9467, Note_off_c, 1, 42, 0
1, 9480, Note_off_c, 1, 59, 0
1, 9480, Note_off_c, 1, 56, 0
1, 9600, Note_off_c, 1, 66, 0
1, 9600, Note_off_c, 1, 61, 0
1, 9600, Note_on_c, 1, 62, 127
1, 9600, Note_on_c, 1, 52, 127
1, 9647, Note_off_c, 1, 52, 0
1, 9660, Note_on_c, 1, 50, 127
1, 9707, Note_off_c, 1, 50, 0
1, 9720, Note_off_c, 1, 62, 0
1, 9720, Note_on_c, 1, 64, 127
1, 9720, Note_on_c, 1, 49, 127
1, 9767, Note_off_c, 1, 49, 0
1, 9780, Note_on_c, 1, 73, 127
1, 9810, Note_off_c, 1, 73, 0
1, 9810, Note_on_c, 1, 74, 127
1, 9840, Note_off_c, 1, 74, 0
1, 9840, Note_on_c, 1, 76, 127
1, 9840, Note_on_c, 1, 68, 127
1, 9960, Note_off_c, 1, 64, 0
1, 9960, Note_off_c, 1, 76, 0
1, 9960, Note_off_c, 1, 68, 0
1, 9960, Note_on_c, 1, 78, 127
1, 9990, Note_off_c, 1, 78, 0
1, 10080, Note_on_c, 1, 80, 127
1, 10080, Note_on_c, 1, 71, 127
1, 10140, Note_off_c, 1, 80, 0
1, 10140, Note_off_c, 1, 71, 0
1, 10140, Note_on_c, 1, 40, 127
1, 10187, Note_off_c, 1, 40, 0
1, 10260, Note_on_c, 1, 69, 127
1, 10260, Note_on_c, 1, 61, 127
1, 10260, Note_on_c, 1, 54, 127
1, 10289, Note_off_c, 1, 69, 0
1, 10289, Note_off_c, 1, 61, 0
1, 10290, Note_on_c, 1, 71, 127
1, 10290, Note_on_c, 1, 62, 127
1, 10307, Note_off_c, 1, 54, 0
1, 10319, Note_off_c, 1, 71, 0
1, 10319, Note_off_c, 1, 62, 0
1, 10320, Note_on_c, 1, 73, 127
1, 10320, Note_on_c, 1, 64, 127
1, 10320, Note_on_c, 1, 49, 127
1, 10349, Note_off_c, 1, 73, 0
1, 10349, Note_off_c, 1, 64, 0
1, 10350, Note_on_c, 1, 71, 127
1, 10350, Note_on_c, 1, 62, 127
1, 10367, Note_off_c, 1, 49, 0
1, 10379, Note_off_c, 1, 71, 0
1, 10379, Note_off_c, 1, 62, 0
1, 10380, Note_on_c, 1, 69, 127
1, 10380, Note_on_c, 1, 61, 127
1, 10380, Note_on_c, 1, 52, 127
1, 10409, Note_off_c, 1, 69, 0
1, 10409, Note_off_c, 1, 61, 0
1, 10410, Note_on_c, 1, 68, 127
1, 10410, Note_on_c, 1, 59, 127
1, 10427, Note_off_c, 1, 52, 0
1, 10439, Note_off_c, 1, 68, 0
1, 10439, Note_off_c, 1, 59, 0
1, 10440, Note_on_c, 1, 69, 127
1, 10440, Note_on_c, 1, 61, 127
1, 10440, Note_on_c, 1, 81, 127
1, 10440, Note_on_c, 1, 73, 127
1, 10440, Note_on_c, 1, 64, 127
1, 10440, Note_on_c, 1, 57, 127
1, 10470, Note_on_c, 1, 76, 127
1, 10493, Note_off_c, 1, 76, 0
1, 10499, Note_off_c, 1, 69, 0
1, 10499, Note_off_c, 1, 61, 0
1, 10500, Note_off_c, 1, 64, 0
1, 10500, Note_on_c, 1, 45, 127
1, 10523, Note_off_c, 1, 81, 0
1, 10547, Note_off_c, 1, 45, 0
1, 10583, Note_off_c, 1, 73, 0
1, 10620, Note_off_c, 1, 57, 0
1, 10620, Note_on_c, 1, 49, 127
1, 10667, Note_off_c, 1, 49, 0
1, 10680, Note_on_c, 1, 80, 127
1, 10680, Note_on_c, 1, 71, 127
1, 10680, Note_on_c, 1, 68, 127
1, 10680, Note_on_c, 1, 59, 127
1, 10680, Note_on_c, 1, 52, 127
1, 10709, Note_off_c, 1, 80, 0
1, 10709, Note_off_c, 1, 71, 0
1, 10710, Note_on_c, 1, 74, 127
1, 10727, Note_off_c, 1, 59, 0
1, 10727, Note_off_c, 1, 52, 0
1, 10733, Note_off_c, 1, 74, 0
1, 10740, Note_on_c, 1, 40, 127
1, 10787, Note_off_c, 1, 40, 0
1, 10800, Note_off_c, 1, 68, 0
1, 10890, Note_on_c, 1, 62, 127
1, 10890, Note_on_c, 1, 56, 127
1, 10913, Note_off_c, 1, 56, 0
1, 10920, Note_off_c, 1, 62, 0
1, 11010, Note_on_c, 1, 47, 127
1, 11033, Note_off_c, 1, 47, 0
1, 11160, Note_on_c, 1, 66, 127
1, 11160, Note_on_c, 1, 50, 127
1, 11207, Note_off_c, 1, 50, 0
1, 11400, Note_off_c, 1, 66, 0
1, 11400, Note_on_c, 1, 44, 127
1, 11447, Note_off_c, 1, 44, 0
1, 11610, Note_on_c, 1, 54, 127
1, 11633, Note_off_c, 1, 54, 0
1, 12030, Note_on_c, 1, 63, 127
1, 12060, Note_off_c, 1, 63, 0
1, 12120, Note_on_c, 1, 51, 127
1, 12167, Note_off_c, 1, 51, 0
1, 12240, Note_on_c, 1, 78, 127
1, 12270, Note_off_c, 1, 78, 0
1, 12690, Note_on_c, 1, 42, 127
1, 12713, Note_off_c, 1, 42, 0
1, 13680, Note_on_c, 1, 71, 127
1, 13680, Note_on_c, 1, 80, 127
1, 13680, Note_on_c, 1, 76, 127
1, 13680, Note_on_c, 1, 59, 127
1, 13680, Note_on_c, 1, 68, 127
1, 13680, Note_on_c, 1, 64, 127
1, 13710, Note_off_c, 1, 80, 0
1, 13710, Note_off_c, 1, 76, 0
1, 13710, Note_off_c, 1, 59, 0
1, 13739, Note_off_c, 1, 71, 0
1, 13740, Note_on_c, 1, 52, 127
1, 13769, Note_off_c, 1, 52, 0
1, 13770, Note_on_c, 1, 69, 127
1, 13770, Note_on_c, 1, 54, 127
1, 13799, Note_off_c, 1, 69, 0
1, 13799, Note_off_c, 1, 54, 0
1, 13800, Note_on_c, 1, 56, 127
1, 13830, Note_on_c, 1, 73, 127
1, 13830, Note_on_c, 1, 57, 127
1, 13847, Note_off_c, 1, 56, 0
1, 13859, Note_off_c, 1, 73, 0
1, 13859, Note_off_c, 1, 57, 0
1, 13860, Note_on_c, 1, 74, 127
1, 13919, Note_off_c, 1, 74, 0
1, 14040, Note_off_c, 1, 68, 0
1, 14100, Note_on_c, 1, 66, 127
1, 14129, Note_off_c, 1, 66, 0
1, 14190, Note_on_c, 1, 75, 127
1, 14219, Note_off_c, 1, 75, 0
1, 14220, Note_on_c, 1, 61, 127
1, 14279, Note_off_c, 1, 61, 0
1, 14280, Note_off_c, 1, 64, 0
1, 14280, Note_on_c, 1, 78, 127
1, 14280, Note_on_c, 1, 51, 127
1, 14327, Note_off_c, 1, 51, 0
1, 14339, Note_off_c, 1, 78, 0
1, 14400, Note_on_c, 1, 63, 127
1, 14460, Note_on_c, 1, 83, 127
1, 14460, Note_on_c, 1, 47, 127
1, 14483, Note_off_c, 1, 83, 0
1, 14483, Note_off_c, 1, 47, 0
1, 14490, Note_on_c, 1, 49, 127
1, 14513, Note_off_c, 1, 49, 0
1, 14640, Note_off_c, 1, 63, 0
1, 14820, Note_on_c, 1, 40, 127
1, 14867, Note_off_c, 1, 40, 0
1, 14940, Note_on_c, 1, 44, 127
1, 14987, Note_off_c, 1, 44, 0
1, 15060, Note_on_c, 1, 62, 127
1, 15119, Note_off_c, 1, 62, 0
1, 15120, Note_on_c, 1, 45, 127
1, 15167, Note_off_c, 1, 45, 0
1, 15180, Note_on_c, 1, 81, 127
1, 15203, Note_off_c, 1, 81, 0
1, 15480, Note_on_c, 1, 58, 127
1, 15480, Note_on_c, 1, 46, 127
1, 15527, Note_off_c, 1, 46, 0
1, 15539, Note_off_c, 1, 58, 0
1, 15540, Note_on_c, 1, 70, 127
1, 15540, Note_on_c, 1, 82, 127
1, 15540, Note_on_c, 1, 42, 127
1, 15563, Note_off_c, 1, 82, 0
1, 15587, Note_off_c, 1, 42, 0
1, 15683, Note_off_c, 1, 70, 0
1, 17580, Note_on_c, 1, 78, 127
1, 17580, Note_on_c, 1, 69, 127
1, 17580, Note_on_c, 1, 73, 127
1, 17580, Note_on_c, 1, 64, 127
1, 17580, Note_on_c, 1, 66, 127
1, 17580, Note_on_c, 1, 61, 127
1, 17580, Note_on_c, 1, 54, 127
1, 17609, Note_off_c, 1, 78, 0
1, 17609, Note_off_c, 1, 69, 0
1, 17609, Note_off_c, 1, 66, 0
1, 17609, Note_off_c, 1, 61, 0
1, 17610, Note_on_c, 1, 76, 127
1, 17610, Note_on_c, 1, 68, 127
1, 17610, Note_on_c, 1, 59, 127
1, 17627, Note_off_c, 1, 73, 0
1, 17627, Note_off_c, 1, 54, 0
1, 17639, Note_off_c, 1, 64, 0
1, 17639, Note_off_c, 1, 76, 0
1, 17639, Note_off_c, 1, 68, 0
1, 17639, Note_off_c, 1, 59, 0
1, 17640, Note_on_c, 1, 78, 127
1, 17640, Note_on_c, 1, 69, 127
1, 17640, Note_on_c, 1, 61, 127
1, 17640, Note_on_c, 1, 66, 127
1, 17640, Note_on_c, 1, 54, 127
1, 17699, Note_off_c, 1, 78, 0
1, 17699, Note_off_c, 1, 69, 0
1, 17699, Note_off_c, 1, 61, 0
1, 17699, Note_off_c, 1, 66, 0
1, 17699, Note_off_c, 1, 54, 0
1, 17700, Note_on_c, 1, 69, 127
1, 17700, Note_on_c, 1, 66, 127
1, 17700, Note_on_c, 1, 63, 127
1, 17700, Note_on_c, 1, 71, 127
1, 17700, Note_on_c, 1, 59, 127
1, 17747, Note_off_c, 1, 71, 0
1, 17747, Note_off_c, 1, 59, 0
1, 17819, Note_off_c, 1, 69, 0
1, 17819, Note_off_c, 1, 63, 0
1, 17820, Note_on_c, 1, 78, 127
1, 17820, Note_on_c, 1, 51, 127
1, 17850, Note_on_c, 1, 75, 127
1, 17867, Note_off_c, 1, 51, 0
1, 17873, Note_off_c, 1, 75, 0
1, 17880, Note_on_c, 1, 47, 127
1, 17939, Note_off_c, 1, 66, 0
1, 17939, Note_off_c, 1, 78, 0
1, 17939, Note_off_c, 1, 47, 0
1, 17940, Note_on_c, 1, 76, 127
1, 17940, Note_on_c, 1, 68, 127
1, 17940, Note_on_c, 1, 64, 127
1, 17969, Note_off_c, 1, 76, 0
1, 17969, Note_off_c, 1, 68, 0
1, 17969, Note_off_c, 1, 64, 0
1, 18000, Note_on_c, 1, 76, 127
1, 18000, Note_on_c, 1, 68, 127
1, 18000, Note_on_c, 1, 71, 127
1, 18000, Note_on_c, 1, 69, 127
1, 18000, Note_on_c, 1, 64, 127
1, 18000, Note_on_c, 1, 59, 127
1, 18000, Note_on_c, 1, 52, 127
1, 18047, Note_off_c, 1, 71, 0
1, 18047, Note_off_c, 1, 69, 0
1, 18059, Note_off_c, 1, 68, 0
1, 18059, Note_off_c, 1, 59, 0
1, 18059, Note_off_c, 1, 52, 0
1, 18060, Note_on_c, 1, 66, 127
1, 18060, Note_on_c, 1, 51, 127
1, 18083, Note_off_c, 1, 66, 0
1, 18089, Note_off_c, 1, 51, 0
1, 18120, Note_on_c, 1, 73, 127
1, 18120, Note_on_c, 1, 57, 127
1, 18120, Note_on_c, 1, 54, 127
1, 18167, Note_off_c, 1, 73, 0
1, 18179, Note_off_c, 1, 57, 0
1, 18179, Note_off_c, 1, 54, 0
1, 18240, Note_on_c, 1, 56, 127
1, 18299, Note_off_c, 1, 56, 0
1, 18360, Note_on_c, 1, 61, 127
1, 18419, Note_off_c, 1, 76, 0
1, 18419, Note_off_c, 1, 64, 0
1, 18419, Note_off_c, 1, 61, 0
1, 18420, Note_on_c, 1, 78, 127
1, 18420, Note_on_c, 1, 69, 127
1, 18420, Note_on_c, 1, 71, 127
1, 18420, Note_on_c, 1, 66, 127
1, 18420, Note_on_c, 1, 56, 127
1, 18449, Note_off_c, 1, 71, 0
1, 18449, Note_off_c, 1, 56, 0
1, 18450, Note_on_c, 1, 73, 127
1, 18450, Note_on_c, 1, 57, 127
1, 18479, Note_off_c, 1, 78, 0
1, 18479, Note_off_c, 1, 66, 0
1, 18479, Note_off_c, 1, 73, 0
1, 18479, Note_off_c, 1, 57, 0
1, 18480, Note_on_c, 1, 75, 127
1, 18480, Note_on_c, 1, 59, 127
1, 18539, Note_off_c, 1, 69, 0
1, 18539, Note_off_c, 1, 75, 0
1, 18540, Note_on_c, 1, 68, 127
1, 18600, Note_on_c, 1, 76, 127
1, 18600, Note_on_c, 1, 61, 127
1, 18659, Note_off_c, 1, 68, 0
1, 18659, Note_off_c, 1, 76, 0
1, 18659, Note_off_c, 1, 61, 0
1, 18720, Note_on_c, 1, 63, 127
1, 18779, Note_off_c, 1, 59, 0
1, 18779, Note_off_c, 1, 63, 0
1, 18780, Note_on_c, 1, 75, 127
1, 18780, Note_on_c, 1, 69, 127
1, 18780, Note_on_c, 1, 68, 127
1, 18780, Note_on_c, 1, 71, 127
1, 18780, Note_on_c, 1, 76, 127
1, 18780, Note_on_c, 1, 66, 127
1, 18780, Note_on_c, 1, 59, 127
1, 18803, Note_off_c, 1, 68, 0
1, 18809, Note_off_c, 1, 76, 0
1, 18827, Note_off_c, 1, 71, 0
1, 18839, Note_off_c, 1, 75, 0
1, 18839, Note_off_c, 1, 69, 0
1, 18839, Note_off_c, 1, 66, 0
1, 18839, Note_off_c, 1, 59, 0
1, 18840, Note_on_c, 1, 76, 127
1, 18840, Note_on_c, 1, 68, 127
1, 18840, Note_on_c, 1, 71, 127
1, 18840, Note_on_c, 1, 64, 127
1, 18870, Note_on_c, 1, 66, 127
1, 18893, Note_off_c, 1, 71, 0
1, 18899, Note_off_c, 1, 76, 0
1, 18899, Note_off_c, 1, 68, 0
1, 18899, Note_off_c, 1, 66, 0
1, 18900, Note_on_c, 1, 59, 127
1, 18900, Note_on_c, 1, 56, 127
1, 18929, Note_off_c, 1, 56, 0
1, 18930, Note_on_c, 1, 57, 127
1, 18947, Note_off_c, 1, 59, 0
1, 18959, Note_off_c, 1, 57, 0
1, 19019, Note_off_c, 1, 64, 0
1, 19020, Note_on_c, 1, 75, 127
1, 19020, Note_on_c, 1, 69, 127
1, 19020, Note_on_c, 1, 63, 127
1, 19020, Note_on_c, 1, 47, 127
1, 19067, Note_off_c, 1, 69, 0
1, 19079, Note_off_c, 1, 75, 0
1, 19079, Note_off_c, 1, 63, 0
1, 19079, Note_off_c, 1, 47, 0
1, 19080, Note_on_c, 1, 76, 127
1, 19080, Note_on_c, 1, 64, 127
1, 19080, Note_on_c, 1, 68, 127
1, 19080, Note_on_c, 1, 59, 127
1, 19080, Note_on_c, 1, 52, 127
1, 19127, Note_off_c, 1, 68, 0
1, 19139, Note_off_c, 1, 76, 0
1, 19140, Note_on_c, 1, 71, 127
1, 19140, Note_on_c, 1, 40, 127
1, 19170, Note_on_c, 1, 69, 127
1, 19170, Note_on_c, 1, 66, 127
1, 19187, Note_off_c, 1, 71, 0
1, 19187, Note_off_c, 1, 40, 0
1, 19199, Note_off_c, 1, 64, 0
1, 19199, Note_off_c, 1, 59, 0
1, 19199, Note_off_c, 1, 52, 0
1, 19199, Note_off_c, 1, 69, 0
1, 19199, Note_off_c, 1, 66, 0
1, 19200, Note_on_c, 1, 71, 127
1, 19200, Note_on_c, 1, 68, 127
1, 19200, Note_on_c, 1, 40, 127
1, 19247, Note_off_c, 1, 40, 0
1, 19259, Note_off_c, 1, 71, 0
1, 19259, Note_off_c, 1, 68, 0
1, 19260, Note_on_c, 1, 71, 127
1, 19260, Note_on_c, 1, 68, 127
1, 19260, Note_on_c, 1, 40, 127
1, 19307, Note_off_c, 1, 40, 0
1, 19319, Note_off_c, 1, 71, 0
1, 19319, Note_off_c, 1, 68, 0
1, 19320, Note_on_c, 1, 73, 127
1, 19320, Note_on_c, 1, 69, 127
1, 19320, Note_on_c, 1, 40, 127
1, 19349, Note_off_c, 1, 73, 0
1, 19349, Note_off_c, 1, 69, 0
1, 19350, Note_on_c, 1, 71, 127
1, 19350, Note_on_c, 1, 68, 127
1, 19367, Note_off_c, 1, 40, 0
1, 19379, Note_off_c, 1, 71, 0
1, 19379, Note_off_c, 1, 68, 0
1, 19380, Note_on_c, 1, 69, 127
1, 19380, Note_on_c, 1, 66, 127
1, 19380, Note_on_c, 1, 40, 127
1, 19409, Note_off_c, 1, 69, 0
1, 19409, Note_off_c, 1, 66, 0
1, 19410, Note_on_c, 1, 73, 127
1, 19427, Note_off_c, 1, 40, 0
1, 19439, Note_off_c, 1, 73, 0
1, 19440, Note_on_c, 1, 71, 127
1, 19440, Note_on_c, 1, 68, 127
1, 19440, Note_on_c, 1, 40, 127
1, 19470, Note_on_c, 1, 83, 127
1, 19470, Note_on_c, 1, 80, 127
1, 19470, Note_on_c, 1, 64, 127
1, 19487, Note_off_c, 1, 40, 0
1, 19493, Note_off_c, 1, 83, 0
1, 19493, Note_off_c, 1, 80, 0
1, 19493, Note_off_c, 1, 64, 0
1, 19499, Note_off_c, 1, 71, 0
1, 19499, Note_off_c, 1, 68, 0
1, 19500, Note_on_c, 1, 88, 127
1, 19500, Note_on_c, 1, 83, 127
1, 19500, Note_on_c, 1, 68, 127
1, 19500, Note_on_c, 1, 52, 127
1, 19523, Note_off_c, 1, 88, 0
1, 19523, Note_off_c, 1, 83, 0
1, 19523, Note_off_c, 1, 68, 0
1, 19530, Note_on_c, 1, 80, 127
1, 19530, Note_on_c, 1, 64, 127
1, 19547, Note_off_c, 1, 52, 0
1, 19553, Note_off_c, 1, 80, 0
1, 19553, Note_off_c, 1, 64, 0
1, 19560, Note_on_c, 1, 76, 127
1, 19560, Note_on_c, 1, 71, 127
1, 19560, Note_on_c, 1, 80, 127
1, 19560, Note_on_c, 1, 59, 127
1, 19560, Note_on_c, 1, 52, 127
1, 19583, Note_off_c, 1, 80, 0
1, 19583, Note_off_c, 1, 59, 0
1, 19589, Note_off_c, 1, 71, 0
1, 19590, Note_off_c, 1, 76, 0
1, 19590, Note_on_c, 1, 83, 127
1, 19590, Note_on_c, 1, 64, 127
1, 19607, Note_off_c, 1, 52, 0
1, 19613, Note_off_c, 1, 83, 0
1, 19613, Note_off_c, 1, 64, 0
1, 19620, Note_on_c, 1, 76, 127
1, 19620, Note_on_c, 1, 71, 127
1, 19620, Note_on_c, 1, 56, 127
1, 19643, Note_off_c, 1, 76, 0
1, 19650, Note_on_c, 1, 80, 127
1, 19667, Note_off_c, 1, 71, 0
1, 19667, Note_off_c, 1, 56, 0
1, 19673, Note_off_c, 1, 80, 0
1, 19680, Note_on_c, 1, 78, 127
1, 19680, Note_on_c, 1, 75, 127
1, 19680, Note_on_c, 1, 66, 127
1, 19680, Note_on_c, 1, 71, 127
1, 19680, Note_on_c, 1, 59, 127
1, 19709, Note_off_c, 1, 75, 0
1, 19710, Note_off_c, 1, 78, 0
1, 19710, Note_on_c, 1, 81, 127
1, 19727, Note_off_c, 1, 66, 0
1, 19727, Note_off_c, 1, 71, 0
1, 19727, Note_off_c, 1, 59, 0
1, 19733, Note_off_c, 1, 81, 0
1, 19740, Note_on_c, 1, 80, 127
1, 19740, Note_on_c, 1, 75, 127
1, 19740, Note_on_c, 1, 71, 127
1, 19740, Note_on_c, 1, 47, 127
1, 19763, Note_off_c, 1, 80, 0
1, 19770, Note_on_c, 1, 78, 127
1, 19787, Note_off_c, 1, 75, 0
1, 19787, Note_off_c, 1, 71, 0
1, 19787, Note_off_c, 1, 47, 0
1, 19793, Note_off_c, 1, 78, 0
1, 19800, Note_on_c, 1, 80, 127
1, 19800, Note_on_c, 1, 76, 127
1, 19800, Note_on_c, 1, 71, 127
1, 19800, Note_on_c, 1, 52, 127
1, 19847, Note_off_c, 1, 71, 0
1, 19847, Note_off_c, 1, 52, 0
1, 19859, Note_off_c, 1, 76, 0
1, 19860, Note_off_c, 1, 80, 0
1, 19860, Note_on_c, 1, 68, 127
1, 19860, Note_on_c, 1, 40, 127
1, 19890, Note_on_c, 1, 78, 127
1, 19890, Note_on_c, 1, 69, 127
1, 19907, Note_off_c, 1, 68, 0
1, 19907, Note_off_c, 1, 40, 0
1, 19919, Note_off_c, 1, 78, 0
1, 19919, Note_off_c, 1, 69, 0
1, 19920, Note_on_c, 1, 80, 127
1, 19920, Note_on_c, 1, 71, 127
1, 19920, Note_on_c, 1, 40, 127
1, 19949, Note_off_c, 1, 80, 0
1, 19949, Note_off_c, 1, 71, 0
1, 19950, Note_on_c, 1, 81, 127
1, 19950, Note_on_c, 1, 73, 127
1, 19967, Note_off_c, 1, 40, 0
1, 19979, Note_off_c, 1, 81, 0
1, 19979, Note_off_c, 1, 73, 0
1, 19980, Note_on_c, 1, 78, 127
1, 19980, Note_on_c, 1, 69, 127
1, 19980, Note_on_c, 1, 40, 127
1, 20009, Note_off_c, 1, 78, 0
1, 20009, Note_off_c, 1, 69, 0
1, 20010, Note_on_c, 1, 80, 127
1, 20010, Note_on_c, 1, 71, 127
1, 20027, Note_off_c, 1, 40, 0
1, 20039, Note_off_c, 1, 80, 0
1, 20039, Note_off_c, 1, 71, 0
1, 20040, Note_on_c, 1, 81, 127
1, 20040, Note_on_c, 1, 73, 127
1, 20040, Note_on_c, 1, 40, 127
1, 20069, Note_off_c, 1, 81, 0
1, 20069, Note_off_c, 1, 73, 0
1, 20070, Note_on_c, 1, 80, 127
1, 20070, Note_on_c, 1, 71, 127
1, 20087, Note_off_c, 1, 40, 0
1, 20099, Note_off_c, 1, 80, 0
1, 20099, Note_off_c, 1, 71, 0
1, 20100, Note_on_c, 1, 78, 127
1, 20100, Note_on_c, 1, 69, 127
1, 20100, Note_on_c, 1, 40, 127
1, 20129, Note_off_c, 1, 78, 0
1, 20129, Note_off_c, 1, 69, 0
1, 20130, Note_on_c, 1, 81, 127
1, 20130, Note_on_c, 1, 73, 127
1, 20147, Note_off_c, 1, 40, 0
1, 20159, Note_off_c, 1, 81, 0
1, 20159, Note_off_c, 1, 73, 0
1, 20160, Note_on_c, 1, 80, 127
1, 20160, Note_on_c, 1, 71, 127
1, 20160, Note_on_c, 1, 40, 127
1, 20190, Note_on_c, 1, 76, 127
1, 20207, Note_off_c, 1, 40, 0
1, 20213, Note_off_c, 1, 76, 0
1, 20219, Note_off_c, 1, 80, 0
1, 20219, Note_off_c, 1, 71, 0
1, 20220, Note_on_c, 1, 83, 127
1, 20220, Note_on_c, 1, 80, 127
1, 20220, Note_on_c, 1, 76, 127
1, 20220, Note_on_c, 1, 52, 127
1, 20243, Note_off_c, 1, 83, 0
1, 20243, Note_off_c, 1, 80, 0
1, 20243, Note_off_c, 1, 76, 0
1, 20250, Note_on_c, 1, 71, 127
1, 20267, Note_off_c, 1, 52, 0
1, 20273, Note_off_c, 1, 71, 0
1, 20280, Note_on_c, 1, 71, 127
1, 20280, Note_on_c, 1, 76, 127
1, 20280, Note_on_c, 1, 68, 127
1, 20280, Note_on_c, 1, 52, 127
1, 20303, Note_off_c, 1, 68, 0
1, 20309, Note_off_c, 1, 71, 0
1, 20309, Note_off_c, 1, 76, 0
1, 20310, Note_on_c, 1, 80, 127
1, 20327, Note_off_c, 1, 52, 0
1, 20333, Note_off_c, 1, 80, 0
1, 20340, Note_on_c, 1, 71, 127
1, 20340, Note_on_c, 1, 68, 127
1, 20340, Note_on_c, 1, 64, 127
1, 20340, Note_on_c, 1, 56, 127
1, 20363, Note_off_c, 1, 71, 0
1, 20363, Note_off_c, 1, 68, 0
1, 20363, Note_off_c, 1, 64, 0
1, 20370, Note_on_c, 1, 76, 127
1, 20387, Note_off_c, 1, 56, 0
1, 20393, Note_off_c, 1, 76, 0
1, 20400, Note_on_c, 1, 75, 127
1, 20400, Note_on_c, 1, 78, 127
1, 20400, Note_on_c, 1, 69, 127
1, 20400, Note_on_c, 1, 66, 127
1, 20400, Note_on_c, 1, 63, 127
1, 20400, Note_on_c, 1, 59, 127
1, 20423, Note_off_c, 1, 69, 0
1, 20429, Note_off_c, 1, 75, 0
1, 20429, Note_off_c, 1, 78, 0
1, 20430, Note_on_c, 1, 73, 127
1, 20447, Note_off_c, 1, 66, 0
1, 20447, Note_off_c, 1, 63, 0
1, 20447, Note_off_c, 1, 59, 0
1, 20453, Note_off_c, 1, 73, 0
1, 20460, Note_on_c, 1, 71, 127
1, 20460, Note_on_c, 1, 66, 127
1, 20460, Note_on_c, 1, 63, 127
1, 20460, Note_on_c, 1, 47, 127
1, 20483, Note_off_c, 1, 71, 0
1, 20490, Note_on_c, 1, 69, 127
1, 20507, Note_off_c, 1, 66, 0
1, 20507, Note_off_c, 1, 63, 0
1, 20507, Note_off_c, 1, 47, 0
1, 20513, Note_off_c, 1, 69, 0
1, 20520, Note_on_c, 1, 76, 127
1, 20520, Note_on_c, 1, 80, 127
1, 20520, Note_on_c, 1, 68, 127
1, 20520, Note_on_c, 1, 64, 127
1, 20520, Note_on_c, 1, 59, 127
1, 20520, Note_on_c, 1, 52, 127
1, 20543, Note_off_c, 1, 68, 0
1, 20549, Note_off_c, 1, 76, 0
1, 20549, Note_off_c, 1, 80, 0
1, 20550, Note_on_c, 1, 71, 127
1, 20567, Note_off_c, 1, 64, 0
1, 20567, Note_off_c, 1, 59, 0
1, 20567, Note_off_c, 1, 52, 0
1, 20573, Note_off_c, 1, 71, 0
1, 20580, Note_on_c, 1, 76, 127
1, 20580, Note_on_c, 1, 59, 127
1, 20580, Note_on_c, 1, 56, 127
1, 20580, Note_on_c, 1, 68, 127
1, 20580, Note_on_c, 1, 64, 127
1, 20580, Note_on_c, 1, 40, 127
1, 20603, Note_off_c, 1, 76, 0
1, 20609, Note_off_c, 1, 68, 0
1, 20609, Note_off_c, 1, 64, 0
1, 20610, Note_on_c, 1, 71, 127
1, 20610, Note_on_c, 1, 69, 127
1, 20610, Note_on_c, 1, 66, 127
1, 20627, Note_off_c, 1, 59, 0
1, 20627, Note_off_c, 1, 56, 0
1, 20627, Note_off_c, 1, 40, 0
1, 20633, Note_off_c, 1, 71, 0
1, 20639, Note_off_c, 1, 69, 0
1, 20639, Note_off_c, 1, 66, 0
1, 20640, Note_on_c, 1, 68, 127
1, 20640, Note_on_c, 1, 71, 127
1, 20640, Note_on_c, 1, 40, 127
1, 20687, Note_off_c, 1, 40, 0
1, 20699, Note_off_c, 1, 68, 0
1, 20699, Note_off_c, 1, 71, 0
1, 20700, Note_on_c, 1, 64, 127
1, 20700, Note_on_c, 1, 73, 127
1, 20700, Note_on_c, 1, 69, 127
1, 20700, Note_on_c, 1, 52, 127
1, 20723, Note_off_c, 1, 64, 0
1, 20729, Note_off_c, 1, 73, 0
1, 20729, Note_off_c, 1, 69, 0
1, 20729, Note_off_c, 1, 52, 0
1, 20730, Note_on_c, 1, 71, 127
1, 20730, Note_on_c, 1, 69, 127
1, 20730, Note_on_c, 1, 66, 127
1, 20730, Note_on_c, 1, 74, 127
1, 20730, Note_on_c, 1, 54, 127
1, 20753, Note_off_c, 1, 71, 0
1, 20753, Note_off_c, 1, 69, 0
1, 20759, Note_off_c, 1, 66, 0
1, 20759, Note_off_c, 1, 74, 0
1, 20759, Note_off_c, 1, 54, 0
1, 20760, Note_on_c, 1, 68, 127
1, 20760, Note_on_c, 1, 71, 127
1, 20760, Note_on_c, 1, 76, 127
1, 20760, Note_on_c, 1, 52, 127
1, 20813, Note_off_c, 1, 71, 0
1, 20819, Note_off_c, 1, 68, 0
1, 20819, Note_off_c, 1, 52, 0
1, 20820, Note_on_c, 1, 64, 127
1, 20820, Note_on_c, 1, 50, 127
1, 20879, Note_off_c, 1, 64, 0
1, 20879, Note_off_c, 1, 50, 0
1, 20880, Note_on_c, 1, 69, 127
1, 20880, Note_on_c, 1, 49, 127
1, 20910, Note_on_c, 1, 73, 127
1, 20933, Note_off_c, 1, 73, 0
1, 20939, Note_off_c, 1, 69, 0
1, 20939, Note_off_c, 1, 49, 0
1, 20940, Note_on_c, 1, 61, 127
1, 20940, Note_on_c, 1, 37, 127
1, 20970, Note_on_c, 1, 62, 127
1, 20987, Note_off_c, 1, 61, 0
1, 20987, Note_off_c, 1, 37, 0
1, 20999, Note_off_c, 1, 62, 0
1, 21000, Note_on_c, 1, 57, 127
1, 21059, Note_off_c, 1, 57, 0
1, 21060, Note_on_c, 1, 66, 127
1, 21089, Note_off_c, 1, 66, 0
1, 21090, Note_on_c, 1, 59, 127
1, 21090, Note_on_c, 1, 47, 127
1, 21113, Note_off_c, 1, 47, 0
1, 21119, Note_off_c, 1, 59, 0
1, 21180, Note_on_c, 1, 45, 127
1, 21227, Note_off_c, 1, 45, 0
1, 21240, Note_on_c, 1, 56, 127
1, 21240, Note_on_c, 1, 44, 127
1, 21270, Note_on_c, 1, 74, 127
1, 21287, Note_off_c, 1, 44, 0
1, 21293, Note_off_c, 1, 74, 0
1, 21299, Note_off_c, 1, 56, 0
1, 21300, Note_on_c, 1, 40, 127
1, 21323, Note_off_c, 1, 76, 0
1, 21347, Note_off_c, 1, 40, 0
1, 21360, Note_on_c, 1, 71, 127
1, 21360, Note_on_c, 1, 74, 127
1, 21360, Note_on_c, 1, 68, 127
1, 21360, Note_on_c, 1, 64, 127
1, 21360, Note_on_c, 1, 52, 127
1, 21360, Note_on_c, 1, 40, 127
1, 21383, Note_off_c, 1, 71, 0
1, 21407, Note_off_c, 1, 40, 0
1, 21419, Note_off_c, 1, 74, 0
1, 21419, Note_off_c, 1, 68, 0
1, 21419, Note_off_c, 1, 64, 0
1, 21419, Note_off_c, 1, 52, 0
1, 21420, Note_on_c, 1, 64, 127
1, 21420, Note_on_c, 1, 71, 127
1, 21420, Note_on_c, 1, 74, 127
1, 21420, Note_on_c, 1, 56, 127
1, 21420, Note_on_c, 1, 44, 127
1, 21443, Note_off_c, 1, 44, 0
1, 21449, Note_off_c, 1, 71, 0
1, 21450, Note_on_c, 1, 69, 127
1, 21450, Note_on_c, 1, 66, 127
1, 21450, Note_on_c, 1, 42, 127
1, 21473, Note_off_c, 1, 66, 0
1, 21473, Note_off_c, 1, 42, 0
1, 21479, Note_off_c, 1, 64, 0
1, 21479, Note_off_c, 1, 74, 0
1, 21479, Note_off_c, 1, 56, 0
1, 21479, Note_off_c, 1, 69, 0
1, 21480, Note_on_c, 1, 71, 127
1, 21480, Note_on_c, 1, 64, 127
1, 21480, Note_on_c, 1, 74, 127
1, 21480, Note_on_c, 1, 56, 127
1, 21480, Note_on_c, 1, 44, 127
1, 21527, Note_off_c, 1, 44, 0
1, 21539, Note_off_c, 1, 71, 0
1, 21539, Note_off_c, 1, 64, 0
1, 21539, Note_off_c, 1, 74, 0
1, 21539, Note_off_c, 1, 56, 0
1, 21540, Note_on_c, 1, 64, 127
1, 21540, Note_on_c, 1, 68, 127
1, 21540, Note_on_c, 1, 59, 127
1, 21540, Note_on_c, 1, 74, 127
1, 21540, Note_on_c, 1, 52, 127
1, 21540, Note_on_c, 1, 40, 127
1, 21587, Note_off_c, 1, 59, 0
1, 21587, Note_off_c, 1, 40, 0
1, 21599, Note_off_c, 1, 64, 0
1, 21599, Note_off_c, 1, 68, 0
1, 21599, Note_off_c, 1, 74, 0
1, 21599, Note_off_c, 1, 52, 0
1, 21600, Note_on_c, 1, 73, 127
1, 21600, Note_on_c, 1, 64, 127
1, 21600, Note_on_c, 1, 57, 127
1, 21600, Note_on_c, 1, 69, 127
1, 21600, Note_on_c, 1, 45, 127
1, 21647, Note_off_c, 1, 45, 0
1, 21659, Note_off_c, 1, 73, 0
1, 21659, Note_off_c, 1, 64, 0
1, 21660, Note_on_c, 1, 61, 127
1, 21690, Note_on_c, 1, 74, 127
1, 21690, Note_on_c, 1, 71, 127
1, 21690, Note_on_c, 1, 62, 127
1, 21707, Note_off_c, 1, 61, 0
1, 21719, Note_off_c, 1, 57, 0
1, 21719, Note_off_c, 1, 69, 0
1, 21719, Note_off_c, 1, 62, 0
1, 21720, Note_off_c, 1, 74, 0
1, 21720, Note_off_c, 1, 71, 0
1, 21720, Note_on_c, 1, 76, 127
1, 21840, Note_off_c, 1, 76, 0
1, 21840, Note_on_c, 1, 78, 127
1, 21870, Note_off_c, 1, 78, 0
1, 22020, Note_on_c, 1, 81, 127
1, 22043, Note_off_c, 1, 81, 0
1, 22080, Note_on_c, 1, 69, 127
1, 22080, Note_on_c, 1, 64, 127
1, 22080, Note_on_c, 1, 73, 127
1, 22080, Note_on_c, 1, 45, 127
1, 22103, Note_off_c, 1, 73, 0
1, 22110, Note_off_c, 1, 64, 0
1, 22110, Note_on_c, 1, 76, 127
1, 22127, Note_off_c, 1, 45, 0
1, 22133, Note_off_c, 1, 69, 0
1, 22133, Note_off_c, 1, 76, 0
1, 22140, Note_on_c, 1, 69, 127
1, 22140, Note_on_c, 1, 64, 127
1, 22140, Note_on_c, 1, 61, 127
1, 22140, Note_on_c, 1, 49, 127
1, 22163, Note_off_c, 1, 69, 0
1, 22163, Note_off_c, 1, 64, 0
1, 22163, Note_off_c, 1, 61, 0
1, 22170, Note_on_c, 1, 73, 127
1, 22187, Note_off_c, 1, 49, 0
1, 22193, Note_off_c, 1, 73, 0
1, 22200, Note_on_c, 1, 71, 127
1, 22200, Note_on_c, 1, 68, 127
1, 22200, Note_on_c, 1, 59, 127
1, 22200, Note_on_c, 1, 52, 127
1, 22230, Note_off_c, 1, 71, 0
1, 22230, Note_off_c, 1, 68, 0
1, 22230, Note_on_c, 1, 74, 127
1, 22247, Note_off_c, 1, 59, 0
1, 22247, Note_off_c, 1, 52, 0
1, 22253, Note_off_c, 1, 74, 0
1, 22260, Note_on_c, 1, 73, 127
1, 22260, Note_on_c, 1, 68, 127
1, 22260, Note_on_c, 1, 64, 127
1, 22260, Note_on_c, 1, 40, 127
1, 22283, Note_off_c, 1, 73, 0
1, 22290, Note_on_c, 1, 71, 127
1, 22307, Note_off_c, 1, 68, 0
1, 22307, Note_off_c, 1, 64, 0
1, 22307, Note_off_c, 1, 40, 0
1, 22313, Note_off_c, 1, 71, 0
1, 22320, Note_on_c, 1, 73, 127
1, 22320, Note_on_c, 1, 69, 127
1, 22320, Note_on_c, 1, 64, 127
1, 22320, Note_on_c, 1, 45, 127
1, 22367, Note_off_c, 1, 64, 0
1, 22367, Note_off_c, 1, 45, 0
1, 22380, Note_off_c, 1, 73, 0
1, 22380, Note_on_c, 1, 61, 127
1, 22380, Note_on_c, 1, 57, 127
1, 22410, Note_on_c, 1, 71, 127
1, 22410, Note_on_c, 1, 62, 127
1, 22427, Note_off_c, 1, 69, 0
1, 22427, Note_off_c, 1, 61, 0
1, 22427, Note_off_c, 1, 57, 0
1, 22440, Note_off_c, 1, 71, 0
1, 22440, Note_off_c, 1, 62, 0
1, 22470, Note_on_c, 1, 74, 127
1, 22470, Note_on_c, 1, 66, 127
1, 22500, Note_off_c, 1, 74, 0
1, 22500, Note_off_c, 1, 66, 0
1, 22740, Note_on_c, 1, 76, 127
1, 22763, Note_off_c, 1, 76, 0
1, 22800, Note_on_c, 1, 76, 127
1, 22800, Note_on_c, 1, 69, 127
1, 22800, Note_on_c, 1, 64, 127
1, 22800, Note_on_c, 1, 61, 127
1, 22800, Note_on_c, 1, 45, 127
1, 22823, Note_off_c, 1, 64, 0
1, 22823, Note_off_c, 1, 61, 0
1, 22830, Note_off_c, 1, 76, 0
1, 22830, Note_on_c, 1, 73, 127
1, 22847, Note_off_c, 1, 45, 0
1, 22853, Note_off_c, 1, 69, 0
1, 22853, Note_off_c, 1, 73, 0
1, 22860, Note_on_c, 1, 64, 127
1, 22860, Note_on_c, 1, 61, 127
1, 22860, Note_on_c, 1, 57, 127
1, 22860, Note_on_c, 1, 49, 127
1, 22883, Note_off_c, 1, 64, 0
1, 22883, Note_off_c, 1, 61, 0
1, 22883, Note_off_c, 1, 57, 0
1, 22890, Note_on_c, 1, 69, 127
1, 22907, Note_off_c, 1, 49, 0
1, 22913, Note_off_c, 1, 69, 0
1, 22920, Note_on_c, 1, 80, 127
1, 22920, Note_on_c, 1, 71, 127
1, 22920, Note_on_c, 1, 62, 127
1, 22920, Note_on_c, 1, 59, 127
1, 22920, Note_on_c, 1, 56, 127
1, 22920, Note_on_c, 1, 52, 127
1, 22943, Note_off_c, 1, 62, 0
1, 22950, Note_off_c, 1, 80, 0
1, 22950, Note_off_c, 1, 71, 0
1, 22950, Note_on_c, 1, 66, 127
1, 22967, Note_off_c, 1, 59, 0
1, 22967, Note_off_c, 1, 56, 0
1, 22967, Note_off_c, 1, 52, 0
1, 22973, Note_off_c, 1, 66, 0
1, 22980, Note_on_c, 1, 64, 127
1, 22980, Note_on_c, 1, 59, 127
1, 22980, Note_on_c, 1, 56, 127
1, 22980, Note_on_c, 1, 40, 127
1, 23003, Note_off_c, 1, 64, 0
1, 23010, Note_on_c, 1, 62, 127
1, 23027, Note_off_c, 1, 59, 0
1, 23027, Note_off_c, 1, 56, 0
1, 23027, Note_off_c, 1, 40, 0
1, 23033, Note_off_c, 1, 62, 0
1, 23040, Note_on_c, 1, 81, 127
1, 23040, Note_on_c, 1, 73, 127
1, 23040, Note_on_c, 1, 61, 127
1, 23040, Note_on_c, 1, 57, 127
1, 23040, Note_on_c, 1, 52, 127
1, 23040, Note_on_c, 1, 45, 127
1, 23063, Note_off_c, 1, 61, 0
1, 23070, Note_off_c, 1, 81, 0
1, 23070, Note_off_c, 1, 73, 0
1, 23070, Note_on_c, 1, 64, 127
1, 23087, Note_off_c, 1, 57, 0
1, 23087, Note_off_c, 1, 52, 0
1, 23087, Note_off_c, 1, 45, 0
1, 23093, Note_off_c, 1, 64, 0
1, 23100, Note_on_c, 1, 69, 127
1, 23100, Note_on_c, 1, 64, 127
1, 23100, Note_on_c, 1, 61, 127
1, 23100, Note_on_c, 1, 57, 127
1, 23123, Note_off_c, 1, 69, 0
1, 23130, Note_on_c, 1, 62, 127
1, 23130, Note_on_c, 1, 59, 127
1, 23147, Note_off_c, 1, 61, 0
1, 23147, Note_off_c, 1, 57, 0
1, 23153, Note_off_c, 1, 64, 0
1, 23159, Note_off_c, 1, 62, 0
1, 23159, Note_off_c, 1, 59, 0
1, 23160, Note_on_c, 1, 61, 127
1, 23160, Note_on_c, 1, 64, 127
1, 23160, Note_on_c, 1, 57, 127
1, 23207, Note_off_c, 1, 57, 0
1, 23219, Note_off_c, 1, 61, 0
1, 23219, Note_off_c, 1, 64, 0
1, 23220, Note_on_c, 1, 57, 127
1, 23220, Note_on_c, 1, 66, 127
1, 23220, Note_on_c, 1, 62, 127
1, 23220, Note_on_c, 1, 45, 127
1, 23243, Note_off_c, 1, 45, 0
1, 23249, Note_off_c, 1, 57, 0
1, 23249, Note_off_c, 1, 66, 0
1, 23249, Note_off_c, 1, 62, 0
1, 23250, Note_on_c, 1, 64, 127
1, 23250, Note_on_c, 1, 62, 127
1, 23250, Note_on_c, 1, 59, 127
1, 23250, Note_on_c, 1, 68, 127
1, 23250, Note_on_c, 1, 47, 127
1, 23273, Note_off_c, 1, 64, 0
1, 23273, Note_off_c, 1, 62, 0
1, 23273, Note_off_c, 1, 47, 0
1, 23279, Note_off_c, 1, 59, 0
1, 23279, Note_off_c, 1, 68, 0
1, 23280, Note_on_c, 1, 61, 127
1, 23280, Note_on_c, 1, 64, 127
1, 23280, Note_on_c, 1, 69, 127
1, 23280, Note_on_c, 1, 57, 127
1, 23280, Note_on_c, 1, 45, 127
1, 23327, Note_off_c, 1, 45, 0
1, 23333, Note_off_c, 1, 64, 0
1, 23339, Note_off_c, 1, 61, 0
1, 23339, Note_off_c, 1, 57, 0
1, 23340, Note_on_c, 1, 55, 127
1, 23340, Note_on_c, 1, 43, 127
1, 23387, Note_off_c, 1, 43, 0
1, 23399, Note_off_c, 1, 55, 0
1, 23400, Note_on_c, 1, 62, 127
1, 23400, Note_on_c, 1, 54, 127
1, 23400, Note_on_c, 1, 42, 127
1, 23430, Note_on_c, 1, 66, 127
1, 23447, Note_off_c, 1, 42, 0
1, 23453, Note_off_c, 1, 66, 0
1, 23459, Note_off_c, 1, 62, 0
1, 23459, Note_off_c, 1, 54, 0
1, 23490, Note_on_c, 1, 67, 127
1, 23519, Note_off_c, 1, 67, 0
1, 23580, Note_on_c, 1, 74, 127
1, 23580, Note_on_c, 1, 71, 127
1, 23603, Note_off_c, 1, 74, 0
1, 23609, Note_off_c, 1, 71, 0
1, 23610, Note_on_c, 1, 73, 127
1, 23610, Note_on_c, 1, 52, 127
1, 23610, Note_on_c, 1, 40, 127
1, 23633, Note_off_c, 1, 40, 0
1, 23639, Note_off_c, 1, 73, 0
1, 23639, Note_off_c, 1, 52, 0
1, 23700, Note_on_c, 1, 50, 127
1, 23700, Note_on_c, 1, 38, 127
1, 23747, Note_off_c, 1, 38, 0
1, 23759, Note_off_c, 1, 50, 0
1, 23760, Note_on_c, 1, 76, 127
1, 23760, Note_on_c, 1, 49, 127
1, 23760, Note_on_c, 1, 37, 127
1, 23807, Note_off_c, 1, 76, 0
1, 23807, Note_off_c, 1, 37, 0
1, 23819, Note_off_c, 1, 49, 0
1, 23843, Note_off_c, 1, 69, 0
1, 23940, Note_on_c, 1, 57, 127
1, 23940, Note_on_c, 1, 76, 127
1, 23940, Note_on_c, 1, 64, 127
1, 23940, Note_on_c, 1, 67, 127
1, 23940, Note_on_c, 1, 49, 127
1, 23963, Note_off_c, 1, 57, 0
1, 23969, Note_off_c, 1, 49, 0
1, 23970, Note_on_c, 1, 74, 127
1, 23970, Note_on_c, 1, 66, 127
1, 23970, Note_on_c, 1, 47, 127
1, 23993, Note_off_c, 1, 74, 0
1, 23993, Note_off_c, 1, 66, 0
1, 23999, Note_off_c, 1, 76, 0
1, 23999, Note_off_c, 1, 47, 0
1, 24000, Note_on_c, 1, 69, 127
1, 24059, Note_off_c, 1, 64, 0
1, 24059, Note_off_c, 1, 67, 0
1, 24059, Note_off_c, 1, 69, 0
1, 24060, Note_on_c, 1, 57, 127
1, 24060, Note_on_c, 1, 73, 127
1, 24060, Note_on_c, 1, 69, 127
1, 24060, Note_on_c, 1, 67, 127
1, 24060, Note_on_c, 1, 64, 127
1, 24060, Note_on_c, 1, 45, 127
1, 24083, Note_off_c, 1, 57, 0
1, 24107, Note_off_c, 1, 69, 0
1, 24119, Note_off_c, 1, 73, 0
1, 24119, Note_off_c, 1, 67, 0
1, 24119, Note_off_c, 1, 64, 0
1, 24119, Note_off_c, 1, 45, 0
1, 24120, Note_on_c, 1, 66, 127
1, 24120, Note_on_c, 1, 74, 127
1, 24120, Note_on_c, 1, 69, 127
1, 24120, Note_on_c, 1, 62, 127
1, 24120, Note_on_c, 1, 50, 127
1, 24167, Note_off_c, 1, 69, 0
1, 24179, Note_off_c, 1, 66, 0
1, 24179, Note_off_c, 1, 74, 0
1, 24179, Note_off_c, 1, 62, 0
1, 24179, Note_off_c, 1, 50, 0
1, 24180, Note_on_c, 1, 62, 127
1, 24180, Note_on_c, 1, 69, 127
1, 24180, Note_on_c, 1, 66, 127
1, 24180, Note_on_c, 1, 74, 127
1, 24180, Note_on_c, 1, 54, 127
1, 24209, Note_off_c, 1, 74, 0
1, 24209, Note_off_c, 1, 54, 0
1, 24210, Note_on_c, 1, 76, 127
1, 24210, Note_on_c, 1, 55, 127
1, 24227, Note_off_c, 1, 62, 0
1, 24227, Note_off_c, 1, 69, 0
1, 24227, Note_off_c, 1, 66, 0
1, 24239, Note_off_c, 1, 76, 0
1, 24239, Note_off_c, 1, 55, 0
1, 24240, Note_on_c, 1, 78, 127
1, 24240, Note_on_c, 1, 57, 127
1, 24240, Note_on_c, 1, 62, 127
1, 24287, Note_off_c, 1, 62, 0
1, 24299, Note_off_c, 1, 78, 0
1, 24299, Note_off_c, 1, 57, 0
1, 24300, Note_on_c, 1, 74, 127
1, 24300, Note_on_c, 1, 66, 127
1, 24300, Note_on_c, 1, 78, 127
1, 24300, Note_on_c, 1, 57, 127
1, 24300, Note_on_c, 1, 62, 127
1, 24330, Note_off_c, 1, 74, 0
1, 24330, Note_off_c, 1, 66, 0
1, 24330, Note_on_c, 1, 76, 127
1, 24330, Note_on_c, 1, 67, 127
1, 24347, Note_off_c, 1, 62, 0
1, 24359, Note_off_c, 1, 78, 0
1, 24359, Note_off_c, 1, 57, 0
1, 24360, Note_off_c, 1, 76, 0
1, 24360, Note_off_c, 1, 67, 0
1, 24360, Note_on_c, 1, 69, 127
1, 24390, Note_on_c, 1, 56, 127
1, 24419, Note_off_c, 1, 56, 0
1, 24420, Note_off_c, 1, 69, 0
1, 24480, Note_on_c, 1, 71, 127
1, 24480, Note_on_c, 1, 64, 127
1, 24480, Note_on_c, 1, 56, 127
1, 24480, Note_on_c, 1, 50, 127
1, 24527, Note_off_c, 1, 64, 0
1, 24527, Note_off_c, 1, 50, 0
1, 24539, Note_off_c, 1, 71, 0
1, 24539, Note_off_c, 1, 56, 0
1, 24540, Note_on_c, 1, 71, 127
1, 24540, Note_on_c, 1, 64, 127
1, 24540, Note_on_c, 1, 56, 127
1, 24540, Note_on_c, 1, 52, 127
1, 24540, Note_on_c, 1, 62, 127
1, 24569, Note_off_c, 1, 64, 0
1, 24569, Note_off_c, 1, 56, 0
1, 24570, Note_on_c, 1, 66, 127
1, 24570, Note_on_c, 1, 57, 127
1, 24587, Note_off_c, 1, 62, 0
1, 24599, Note_off_c, 1, 66, 0
1, 24599, Note_off_c, 1, 57, 0
1, 24600, Note_on_c, 1, 68, 127
1, 24600, Note_on_c, 1, 59, 127
1, 24600, Note_on_c, 1, 76, 127
1, 24647, Note_off_c, 1, 76, 0
1, 24659, Note_off_c, 1, 71, 0
1, 24659, Note_off_c, 1, 52, 0
1, 24659, Note_off_c, 1, 68, 0
1, 24659, Note_off_c, 1, 59, 0
1, 24660, Note_on_c, 1, 68, 127
1, 24660, Note_on_c, 1, 64, 127
1, 24660, Note_on_c, 1, 59, 127
1, 24660, Note_on_c, 1, 50, 127
1, 24660, Note_on_c, 1, 71, 127
1, 24690, Note_off_c, 1, 64, 0
1, 24690, Note_on_c, 1, 69, 127
1, 24690, Note_on_c, 1, 66, 127
1, 24707, Note_off_c, 1, 71, 0
1, 24719, Note_off_c, 1, 68, 0
1, 24719, Note_off_c, 1, 59, 0
1, 24719, Note_off_c, 1, 50, 0
1, 24720, Note_off_c, 1, 69, 0
1, 24720, Note_off_c, 1, 66, 0
1, 24720, Note_on_c, 1, 49, 127
1, 24750, Note_on_c, 1, 57, 127
1, 24779, Note_off_c, 1, 49, 0
1, 24779, Note_off_c, 1, 57, 0
1, 24780, Note_on_c, 1, 62, 127
1, 24780, Note_on_c, 1, 47, 127
1, 24827, Note_off_c, 1, 62, 0
1, 24839, Note_off_c, 1, 47, 0
1, 24840, Note_on_c, 1, 76, 127
1, 24840, Note_on_c, 1, 69, 127
1, 24840, Note_on_c, 1, 61, 127
1, 24840, Note_on_c, 1, 52, 127
1, 24840, Note_on_c, 1, 49, 127
1, 24887, Note_off_c, 1, 61, 0
1, 24899, Note_off_c, 1, 76, 0
1, 24899, Note_off_c, 1, 69, 0
1, 24899, Note_off_c, 1, 52, 0
1, 24899, Note_off_c, 1, 49, 0
1, 24900, Note_on_c, 1, 73, 127
1, 24900, Note_on_c, 1, 57, 127
1, 24900, Note_on_c, 1, 61, 127
1, 24929, Note_off_c, 1, 73, 0
1, 24929, Note_off_c, 1, 57, 0
1, 24930, Note_on_c, 1, 74, 127
1, 24930, Note_on_c, 1, 59, 127
1, 24947, Note_off_c, 1, 61, 0
1, 24959, Note_off_c, 1, 74, 0
1, 24959, Note_off_c, 1, 59, 0
1, 24960, Note_on_c, 1, 76, 127
1, 24960, Note_on_c, 1, 61, 127
1, 24960, Note_on_c, 1, 69, 127
1, 25007, Note_off_c, 1, 69, 0
1, 25019, Note_off_c, 1, 76, 0
1, 25019, Note_off_c, 1, 61, 0
1, 25020, Note_on_c, 1, 73, 127
1, 25020, Note_on_c, 1, 69, 127
1, 25020, Note_on_c, 1, 76, 127
1, 25020, Note_on_c, 1, 61, 127
1, 25020, Note_on_c, 1, 64, 127
1, 25050, Note_off_c, 1, 69, 0
1, 25050, Note_on_c, 1, 74, 127
1, 25050, Note_on_c, 1, 71, 127
1, 25067, Note_off_c, 1, 73, 0
1, 25067, Note_off_c, 1, 64, 0
1, 25079, Note_off_c, 1, 76, 0
1, 25079, Note_off_c, 1, 61, 0
1, 25080, Note_off_c, 1, 74, 0
1, 25080, Note_off_c, 1, 71, 0
1, 25110, Note_on_c, 1, 59, 127
1, 25139, Note_off_c, 1, 59, 0
1, 25200, Note_on_c, 1, 69, 127
1, 25200, Note_on_c, 1, 66, 127
1, 25200, Note_on_c, 1, 62, 127
1, 25200, Note_on_c, 1, 54, 127
1, 25200, Note_on_c, 1, 49, 127
1, 25247, Note_off_c, 1, 66, 0
1, 25247, Note_off_c, 1, 62, 0
1, 25247, Note_off_c, 1, 49, 0
1, 25259, Note_off_c, 1, 69, 0
1, 25259, Note_off_c, 1, 54, 0
1, 25260, Note_on_c, 1, 69, 127
1, 25260, Note_on_c, 1, 66, 127
1, 25260, Note_on_c, 1, 62, 127
1, 25260, Note_on_c, 1, 50, 127
1, 25260, Note_on_c, 1, 61, 127
1, 25289, Note_off_c, 1, 66, 0
1, 25289, Note_off_c, 1, 62, 0
1, 25290, Note_on_c, 1, 68, 127
1, 25290, Note_on_c, 1, 64, 127
1, 25307, Note_off_c, 1, 61, 0
1, 25319, Note_off_c, 1, 68, 0
1, 25319, Note_off_c, 1, 64, 0
1, 25320, Note_on_c, 1, 74, 127
1, 25367, Note_off_c, 1, 74, 0
1, 25379, Note_off_c, 1, 69, 0
1, 25379, Note_off_c, 1, 50, 0
1, 25380, Note_on_c, 1, 66, 127
1, 25380, Note_on_c, 1, 62, 127
1, 25380, Note_on_c, 1, 69, 127
1, 25380, Note_on_c, 1, 49, 127
1, 25410, Note_off_c, 1, 62, 0
1, 25410, Note_on_c, 1, 68, 127
1, 25410, Note_on_c, 1, 64, 127
1, 25439, Note_off_c, 1, 66, 0
1, 25439, Note_off_c, 1, 69, 0
1, 25439, Note_off_c, 1, 49, 0
1, 25440, Note_off_c, 1, 68, 0
1, 25440, Note_off_c, 1, 64, 0
1, 25440, Note_on_c, 1, 47, 127
1, 25499, Note_off_c, 1, 47, 0
1, 25500, Note_on_c, 1, 61, 127
1, 25500, Note_on_c, 1, 45, 127
1, 25547, Note_off_c, 1, 61, 0
1, 25559, Note_off_c, 1, 45, 0
1, 25560, Note_on_c, 1, 74, 127
1, 25560, Note_on_c, 1, 66, 127
1, 25560, Note_on_c, 1, 59, 127
1, 25560, Note_on_c, 1, 62, 127
1, 25560, Note_on_c, 1, 47, 127
1, 25590, Note_on_c, 1, 78, 127
1, 25607, Note_off_c, 1, 66, 0
1, 25613, Note_off_c, 1, 78, 0
1, 25619, Note_off_c, 1, 74, 0
1, 25619, Note_off_c, 1, 59, 0
1, 25619, Note_off_c, 1, 62, 0
1, 25619, Note_off_c, 1, 47, 0
1, 25620, Note_on_c, 1, 83, 127
1, 25620, Note_on_c, 1, 62, 127
1, 25620, Note_on_c, 1, 54, 127
1, 25620, Note_on_c, 1, 78, 127
1, 25620, Note_on_c, 1, 59, 127
1, 25643, Note_off_c, 1, 83, 0
1, 25649, Note_off_c, 1, 78, 0
1, 25650, Note_on_c, 1, 76, 127
1, 25650, Note_on_c, 1, 64, 127
1, 25650, Note_on_c, 1, 61, 127
1, 25667, Note_off_c, 1, 62, 0
1, 25667, Note_off_c, 1, 54, 0
1, 25667, Note_off_c, 1, 59, 0
1, 25679, Note_off_c, 1, 76, 0
1, 25679, Note_off_c, 1, 64, 0
1, 25679, Note_off_c, 1, 61, 0
1, 25680, Note_on_c, 1, 74, 127
1, 25680, Note_on_c, 1, 71, 127
1, 25680, Note_on_c, 1, 66, 127
1, 25680, Note_on_c, 1, 59, 127
1, 25680, Note_on_c, 1, 62, 127
1, 25710, Note_on_c, 1, 78, 127
1, 25733, Note_off_c, 1, 78, 0
1, 25739, Note_off_c, 1, 66, 0
1, 25739, Note_off_c, 1, 59, 0
1, 25739, Note_off_c, 1, 62, 0
1, 25740, Note_on_c, 1, 76, 127
1, 25740, Note_on_c, 1, 54, 127
1, 25740, Note_on_c, 1, 45, 127
1, 25787, Note_off_c, 1, 76, 0
1, 25787, Note_off_c, 1, 45, 0
1, 25799, Note_off_c, 1, 54, 0
1, 25800, Note_on_c, 1, 44, 127
1, 25847, Note_off_c, 1, 44, 0
1, 25860, Note_on_c, 1, 57, 127
1, 25860, Note_on_c, 1, 42, 127
1, 25907, Note_off_c, 1, 42, 0
1, 25919, Note_off_c, 1, 57, 0
1, 25920, Note_on_c, 1, 64, 127
1, 25920, Note_on_c, 1, 56, 127
1, 25979, Note_off_c, 1, 56, 0
1, 25980, Note_on_c, 1, 83, 127
1, 25980, Note_on_c, 1, 68, 127
1, 26003, Note_off_c, 1, 83, 0
1, 26009, Note_off_c, 1, 68, 0
1, 26010, Note_on_c, 1, 73, 127
1, 26010, Note_on_c, 1, 69, 127
1, 26010, Note_on_c, 1, 61, 127
1, 26015, Note_off_c, 1, 64, 0
1, 26039, Note_off_c, 1, 73, 0
1, 26039, Note_off_c, 1, 69, 0
1, 26039, Note_off_c, 1, 61, 0
1, 26220, Note_on_c, 1, 52, 127
1, 26220, Note_on_c, 1, 40, 127
1, 26267, Note_off_c, 1, 40, 0
1, 26279, Note_off_c, 1, 52, 0
1, 26340, Note_off_c, 1, 74, 0
1, 26340, Note_off_c, 1, 71, 0
1, 26400, Note_on_c, 1, 49, 127
1, 26459, Note_off_c, 1, 49, 0
1, 26460, Note_on_c, 1, 78, 127
1, 26460, Note_on_c, 1, 68, 127
1, 26460, Note_on_c, 1, 73, 127
1, 26460, Note_on_c, 1, 62, 127
1, 26460, Note_on_c, 1, 47, 127
1, 26489, Note_off_c, 1, 78, 0
1, 26490, Note_on_c, 1, 76, 127
1, 26507, Note_off_c, 1, 73, 0
1, 26519, Note_off_c, 1, 68, 0
1, 26519, Note_off_c, 1, 62, 0
1, 26519, Note_off_c, 1, 47, 0
1, 26519, Note_off_c, 1, 76, 0
1, 26520, Note_on_c, 1, 74, 127
1, 26520, Note_on_c, 1, 69, 127
1, 26520, Note_on_c, 1, 64, 127
1, 26520, Note_on_c, 1, 49, 127
1, 26550, Note_on_c, 1, 73, 127
1, 26567, Note_off_c, 1, 74, 0
1, 26579, Note_off_c, 1, 69, 0
1, 26579, Note_off_c, 1, 64, 0
1, 26579, Note_off_c, 1, 49, 0
1, 26579, Note_off_c, 1, 73, 0
1, 26580, Note_on_c, 1, 71, 127
1, 26580, Note_on_c, 1, 69, 127
1, 26580, Note_on_c, 1, 76, 127
1, 26580, Note_on_c, 1, 66, 127
1, 26580, Note_on_c, 1, 50, 127
1, 26609, Note_off_c, 1, 71, 0
1, 26627, Note_off_c, 1, 76, 0
1, 26639, Note_off_c, 1, 69, 0
1, 26639, Note_off_c, 1, 66, 0
1, 26639, Note_off_c, 1, 50, 0
1, 26640, Note_on_c, 1, 73, 127
1, 26640, Note_on_c, 1, 69, 127
1, 26640, Note_on_c, 1, 64, 127
1, 26640, Note_on_c, 1, 52, 127
1, 26699, Note_off_c, 1, 73, 0
1, 26699, Note_off_c, 1, 69, 0
1, 26700, Note_on_c, 1, 71, 127
1, 26700, Note_on_c, 1, 68, 127
1, 26700, Note_on_c, 1, 40, 127
1, 26723, Note_off_c, 1, 40, 0
1, 26730, Note_on_c, 1, 38, 127
1, 26753, Note_off_c, 1, 38, 0
1, 26759, Note_off_c, 1, 64, 0
1, 26759, Note_off_c, 1, 52, 0
1, 26759, Note_off_c, 1, 71, 0
1, 26759, Note_off_c, 1, 68, 0
1, 26760, Note_on_c, 1, 71, 127
1, 26760, Note_on_c, 1, 68, 127
1, 26760, Note_on_c, 1, 64, 127
1, 26760, Note_on_c, 1, 52, 127
1, 26760, Note_on_c, 1, 40, 127
1, 26807, Note_off_c, 1, 40, 0
1, 26819, Note_off_c, 1, 71, 0
1, 26819, Note_off_c, 1, 68, 0
1, 26819, Note_off_c, 1, 52, 0
1, 26820, Note_off_c, 1, 64, 0
1, 26820, Note_on_c, 1, 59, 127
1, 26820, Note_on_c, 1, 44, 127
1, 26843, Note_off_c, 1, 44, 0
1, 26850, Note_on_c, 1, 42, 127
1, 26873, Note_off_c, 1, 42, 0
1, 26880, Note_on_c, 1, 74, 127
1, 26909, Note_off_c, 1, 74, 0
1, 26939, Note_off_c, 1, 59, 0
1, 26940, Note_on_c, 1, 56, 127
1, 26940, Note_on_c, 1, 40, 127
1, 26987, Note_off_c, 1, 40, 0
1, 26999, Note_off_c, 1, 56, 0
1, 27000, Note_on_c, 1, 73, 127
1, 27000, Note_on_c, 1, 69, 127
1, 27000, Note_on_c, 1, 64, 127
1, 27000, Note_on_c, 1, 52, 127
1, 27000, Note_on_c, 1, 45, 127
1, 27030, Note_off_c, 1, 73, 0
1, 27030, Note_off_c, 1, 69, 0
1, 27030, Note_off_c, 1, 64, 0
1, 27047, Note_off_c, 1, 45, 0
1, 27059, Note_off_c, 1, 52, 0
1, 27060, Note_on_c, 1, 69, 127
1, 27060, Note_on_c, 1, 64, 127
1, 27060, Note_on_c, 1, 61, 127
1, 27060, Note_on_c, 1, 54, 127
1, 27060, Note_on_c, 1, 44, 127
1, 27089, Note_off_c, 1, 54, 0
1, 27090, Note_off_c, 1, 69, 0
1, 27090, Note_off_c, 1, 64, 0
1, 27090, Note_off_c, 1, 61, 0
1, 27090, Note_on_c, 1, 56, 127
1, 27107, Note_off_c, 1, 44, 0
1, 27119, Note_off_c, 1, 56, 0
1, 27120, Note_on_c, 1, 78, 127
1, 27120, Note_on_c, 1, 73, 127
1, 27120, Note_on_c, 1, 57, 127
1, 27120, Note_on_c, 1, 42, 127
1, 27149, Note_off_c, 1, 78, 0
1, 27149, Note_off_c, 1, 73, 0
1, 27149, Note_off_c, 1, 57, 0
1, 27150, Note_on_c, 1, 59, 127
1, 27167, Note_off_c, 1, 42, 0
1, 27179, Note_off_c, 1, 59, 0
1, 27180, Note_on_c, 1, 61, 127
1, 27180, Note_on_c, 1, 44, 127
1, 27227, Note_off_c, 1, 44, 0
1, 27239, Note_off_c, 1, 61, 0
1, 27240, Note_on_c, 1, 76, 127
1, 27240, Note_on_c, 1, 69, 127
1, 27240, Note_on_c, 1, 61, 127
1, 27240, Note_on_c, 1, 45, 127
1, 27269, Note_off_c, 1, 76, 0
1, 27269, Note_off_c, 1, 69, 0
1, 27269, Note_off_c, 1, 61, 0
1, 27270, Note_on_c, 1, 59, 127
1, 27287, Note_off_c, 1, 45, 0
1, 27299, Note_off_c, 1, 59, 0
1, 27300, Note_on_c, 1, 57, 127
1, 27300, Note_on_c, 1, 49, 127
1, 27329, Note_off_c, 1, 57, 0
1, 27330, Note_on_c, 1, 56, 127
1, 27347, Note_off_c, 1, 49, 0
1, 27359, Note_off_c, 1, 56, 0
1, 27360, Note_on_c, 1, 76, 127
1, 27360, Note_on_c, 1, 69, 127
1, 27360, Note_on_c, 1, 66, 127
1, 27360, Note_on_c, 1, 57, 127
1, 27360, Note_on_c, 1, 54, 127
1, 27360, Note_on_c, 1, 50, 127
1, 27389, Note_off_c, 1, 76, 0
1, 27390, Note_off_c, 1, 69, 0
1, 27390, Note_off_c, 1, 66, 0
1, 27390, Note_off_c, 1, 57, 0
1, 27407, Note_off_c, 1, 50, 0
1, 27419, Note_off_c, 1, 54, 0
1, 27420, Note_on_c, 1, 73, 127
1, 27420, Note_on_c, 1, 69, 127
1, 27420, Note_on_c, 1, 61, 127
1, 27420, Note_on_c, 1, 52, 127
1, 27420, Note_on_c, 1, 49, 127
1, 27449, Note_off_c, 1, 52, 0
1, 27450, Note_off_c, 1, 73, 0
1, 27450, Note_off_c, 1, 69, 0
1, 27450, Note_off_c, 1, 61, 0
1, 27450, Note_on_c, 1, 54, 127
1, 27467, Note_off_c, 1, 49, 0
1, 27479, Note_off_c, 1, 54, 0
1, 27480, Note_on_c, 1, 74, 127
1, 27480, Note_on_c, 1, 71, 127
1, 27480, Note_on_c, 1, 56, 127
1, 27480, Note_on_c, 1, 47, 127
1, 27509, Note_off_c, 1, 74, 0
1, 27509, Note_off_c, 1, 71, 0
1, 27509, Note_off_c, 1, 56, 0
1, 27510, Note_on_c, 1, 57, 127
1, 27527, Note_off_c, 1, 47, 0
1, 27539, Note_off_c, 1, 57, 0
1, 27540, Note_on_c, 1, 64, 127
1, 27540, Note_on_c, 1, 59, 127
1, 27540, Note_on_c, 1, 44, 127
1, 27587, Note_off_c, 1, 44, 0
1, 27599, Note_off_c, 1, 59, 0
1, 27600, Note_on_c, 1, 73, 127
1, 27600, Note_on_c, 1, 57, 127
1, 27600, Note_on_c, 1, 49, 127
1, 27629, Note_off_c, 1, 73, 0
1, 27647, Note_off_c, 1, 49, 0
1, 27659, Note_off_c, 1, 64, 0
1, 27660, Note_on_c, 1, 61, 127
1, 27660, Note_on_c, 1, 45, 127
1, 27707, Note_off_c, 1, 45, 0
1, 27719, Note_off_c, 1, 61, 0
1, 27720, Note_on_c, 1, 66, 127
1, 27720, Note_on_c, 1, 69, 127
1, 27720, Note_on_c, 1, 54, 127
1, 27750, Note_off_c, 1, 66, 0
1, 27750, Note_off_c, 1, 69, 0
1, 27767, Note_off_c, 1, 54, 0
1, 27779, Note_off_c, 1, 57, 0
1, 27780, Note_on_c, 1, 78, 127
1, 27780, Note_on_c, 1, 74, 127
1, 27780, Note_on_c, 1, 59, 127
1, 27780, Note_on_c, 1, 54, 127
1, 27780, Note_on_c, 1, 50, 127
1, 27809, Note_off_c, 1, 54, 0
1, 27810, Note_off_c, 1, 78, 0
1, 27810, Note_off_c, 1, 74, 0
1, 27810, Note_off_c, 1, 59, 0
1, 27810, Note_on_c, 1, 61, 127
1, 27810, Note_on_c, 1, 52, 127
1, 27827, Note_off_c, 1, 50, 0
1, 27839, Note_off_c, 1, 61, 0
1, 27839, Note_off_c, 1, 52, 0
1, 27840, Note_on_c, 1, 71, 127
1, 27840, Note_on_c, 1, 66, 127
1, 27840, Note_on_c, 1, 62, 127
1, 27840, Note_on_c, 1, 54, 127
1, 27840, Note_on_c, 1, 47, 127
1, 27869, Note_off_c, 1, 71, 0
1, 27869, Note_off_c, 1, 66, 0
1, 27869, Note_off_c, 1, 62, 0
1, 27869, Note_off_c, 1, 54, 0
1, 27870, Note_on_c, 1, 64, 127
1, 27870, Note_on_c, 1, 56, 127
1, 27887, Note_off_c, 1, 47, 0
1, 27899, Note_off_c, 1, 64, 0
1, 27899, Note_off_c, 1, 56, 0
1, 27900, Note_on_c, 1, 66, 127
1, 27900, Note_on_c, 1, 57, 127
1, 27900, Note_on_c, 1, 42, 127
1, 27947, Note_off_c, 1, 42, 0
1, 27959, Note_off_c, 1, 66, 0
1, 27959, Note_off_c, 1, 57, 0
1, 27960, Note_on_c, 1, 76, 127
1, 27960, Note_on_c, 1, 64, 127
1, 27960, Note_on_c, 1, 59, 127
1, 27960, Note_on_c, 1, 44, 127
1, 27989, Note_off_c, 1, 76, 0
1, 28007, Note_off_c, 1, 44, 0
1, 28019, Note_off_c, 1, 64, 0
1, 28019, Note_off_c, 1, 59, 0
1, 28020, Note_on_c, 1, 62, 127
1, 28020, Note_on_c, 1, 57, 127
1, 28020, Note_on_c, 1, 45, 127
1, 28049, Note_off_c, 1, 62, 0
1, 28050, Note_on_c, 1, 61, 127
1, 28067, Note_off_c, 1, 45, 0
1, 28079, Note_off_c, 1, 57, 0
1, 28079, Note_off_c, 1, 61, 0
1, 28080, Note_on_c, 1, 76, 127
1, 28080, Note_on_c, 1, 68, 127
1, 28080, Note_on_c, 1, 80, 127
1, 28080, Note_on_c, 1, 59, 127
1, 28080, Note_on_c, 1, 56, 127
1, 28080, Note_on_c, 1, 40, 127
1, 28109, Note_off_c, 1, 68, 0
1, 28110, Note_off_c, 1, 76, 0
1, 28110, Note_off_c, 1, 80, 0
1, 28127, Note_off_c, 1, 40, 0
1, 28139, Note_off_c, 1, 59, 0
1, 28139, Note_off_c, 1, 56, 0
1, 28140, Note_on_c, 1, 76, 127
1, 28140, Note_on_c, 1, 71, 127
1, 28140, Note_on_c, 1, 68, 127
1, 28140, Note_on_c, 1, 56, 127
1, 28140, Note_on_c, 1, 59, 127
1, 28140, Note_on_c, 1, 52, 127
1, 28163, Note_off_c, 1, 52, 0
1, 28169, Note_off_c, 1, 56, 0
1, 28170, Note_off_c, 1, 76, 0
1, 28170, Note_off_c, 1, 71, 0
1, 28170, Note_off_c, 1, 68, 0
1, 28170, Note_on_c, 1, 57, 127
1, 28170, Note_on_c, 1, 54, 127
1, 28193, Note_off_c, 1, 54, 0
1, 28199, Note_off_c, 1, 57, 0
1, 28200, Note_on_c, 1, 74, 127
1, 28200, Note_on_c, 1, 64, 127
1, 28229, Note_off_c, 1, 74, 0
1, 28229, Note_off_c, 1, 64, 0
1, 28230, Note_on_c, 1, 61, 127
1, 28259, Note_off_c, 1, 59, 0
1, 28259, Note_off_c, 1, 61, 0
1, 28260, Note_on_c, 1, 62, 127
1, 28260, Note_on_c, 1, 56, 127
1, 28260, Note_on_c, 1, 59, 127
1, 28307, Note_off_c, 1, 59, 0
1, 28319, Note_off_c, 1, 62, 0
1, 28319, Note_off_c, 1, 56, 0
1, 28320, Note_on_c, 1, 71, 127
1, 28320, Note_on_c, 1, 64, 127
1, 28320, Note_on_c, 1, 62, 127
1, 28320, Note_on_c, 1, 52, 127
1, 28320, Note_on_c, 1, 56, 127
1, 28349, Note_off_c, 1, 71, 0
1, 28349, Note_off_c, 1, 64, 0
1, 28367, Note_off_c, 1, 56, 0
1, 28379, Note_off_c, 1, 52, 0
1, 28440, Note_on_c, 1, 69, 127
1, 28440, Note_on_c, 1, 76, 127
1, 28440, Note_on_c, 1, 57, 127
1, 28470, Note_off_c, 1, 69, 0
1, 28470, Note_off_c, 1, 76, 0
1, 28499, Note_off_c, 1, 62, 0
1, 28499, Note_off_c, 1, 57, 0
1, 28500, Note_on_c, 1, 81, 127
1, 28500, Note_on_c, 1, 73, 127
1, 28500, Note_on_c, 1, 76, 127
1, 28500, Note_on_c, 1, 61, 127
1, 28500, Note_on_c, 1, 52, 127
1, 28500, Note_on_c, 1, 45, 127
1, 28523, Note_off_c, 1, 45, 0
1, 28529, Note_off_c, 1, 61, 0
1, 28529, Note_off_c, 1, 52, 0
1, 28530, Note_off_c, 1, 81, 0
1, 28530, Note_off_c, 1, 73, 0
1, 28530, Note_off_c, 1, 76, 0
1, 28530, Note_on_c, 1, 59, 127
1, 28530, Note_on_c, 1, 50, 127
1, 28530, Note_on_c, 1, 47, 127
1, 28553, Note_off_c, 1, 47, 0
1, 28559, Note_off_c, 1, 59, 0
1, 28559, Note_off_c, 1, 50, 0
1, 28560, Note_on_c, 1, 76, 127
1, 28560, Note_on_c, 1, 69, 127
1, 28560, Note_on_c, 1, 57, 127
1, 28560, Note_on_c, 1, 52, 127
1, 28560, Note_on_c, 1, 49, 127
1, 28589, Note_off_c, 1, 76, 0
1, 28589, Note_off_c, 1, 69, 0
1, 28589, Note_off_c, 1, 57, 0
1, 28590, Note_on_c, 1, 59, 127
1, 28607, Note_off_c, 1, 49, 0
1, 28619, Note_off_c, 1, 52, 0
1, 28619, Note_off_c, 1, 59, 0
1, 28620, Note_on_c, 1, 61, 127
1, 28620, Note_on_c, 1, 45, 127
1, 28620, Note_on_c, 1, 52, 127
1, 28649, Note_off_c, 1, 61, 0
1, 28650, Note_on_c, 1, 62, 127
1, 28667, Note_off_c, 1, 52, 0
1, 28679, Note_off_c, 1, 45, 0
1, 28679, Note_off_c, 1, 62, 0
1, 28680, Note_on_c, 1, 73, 127
1, 28680, Note_on_c, 1, 69, 127
1, 28680, Note_on_c, 1, 64, 127
1, 28680, Note_on_c, 1, 55, 127
1, 28680, Note_on_c, 1, 49, 127
1, 28709, Note_off_c, 1, 73, 0
1, 28709, Note_off_c, 1, 69, 0
1, 28709, Note_off_c, 1, 55, 0
1, 28710, Note_on_c, 1, 54, 127
1, 28727, Note_off_c, 1, 49, 0
1, 28739, Note_off_c, 1, 64, 0
1, 28739, Note_off_c, 1, 54, 0
1, 28740, Note_on_c, 1, 64, 127
1, 28740, Note_on_c, 1, 55, 127
1, 28740, Note_on_c, 1, 45, 127
1, 28787, Note_off_c, 1, 45, 0
1, 28799, Note_off_c, 1, 64, 0
1, 28799, Note_off_c, 1, 55, 0
1, 28800, Note_on_c, 1, 78, 127
1, 28800, Note_on_c, 1, 69, 127
1, 28800, Note_on_c, 1, 81, 127
1, 28800, Note_on_c, 1, 74, 127
1, 28800, Note_on_c, 1, 64, 127
1, 28800, Note_on_c, 1, 54, 127
1, 28800, Note_on_c, 1, 38, 127
1, 28829, Note_off_c, 1, 69, 0
1, 28830, Note_off_c, 1, 78, 0
1, 28830, Note_off_c, 1, 81, 0
1, 28830, Note_off_c, 1, 74, 0
1, 28847, Note_off_c, 1, 38, 0
1, 28859, Note_off_c, 1, 64, 0
1, 28859, Note_off_c, 1, 54, 0
1, 28860, Note_on_c, 1, 78, 127
1, 28860, Note_on_c, 1, 69, 127
1, 28860, Note_on_c, 1, 62, 127
1, 28860, Note_on_c, 1, 57, 127
1, 28860, Note_on_c, 1, 50, 127
1, 28883, Note_off_c, 1, 50, 0
1, 28890, Note_off_c, 1, 78, 0
1, 28890, Note_off_c, 1, 69, 0
1, 28890, Note_off_c, 1, 62, 0
1, 28890, Note_on_c, 1, 61, 127
1, 28890, Note_on_c, 1, 52, 127
1, 28913, Note_off_c, 1, 52, 0
1, 28919, Note_off_c, 1, 61, 0
1, 28920, Note_on_c, 1, 74, 127
1, 28920, Note_on_c, 1, 54, 127
1, 28949, Note_off_c, 1, 74, 0
1, 28950, Note_on_c, 1, 64, 127
1, 28967, Note_off_c, 1, 54, 0
1, 28979, Note_off_c, 1, 57, 0
1, 28979, Note_off_c, 1, 64, 0
1, 28980, Note_on_c, 1, 69, 127
1, 28980, Note_on_c, 1, 66, 127
1, 28980, Note_on_c, 1, 54, 127
1, 28980, Note_on_c, 1, 57, 127
1, 29027, Note_off_c, 1, 57, 0
1, 29039, Note_off_c, 1, 66, 0
1, 29039, Note_off_c, 1, 54, 0
1, 29040, Note_on_c, 1, 72, 127
1, 29040, Note_on_c, 1, 50, 127
1, 29069, Note_off_c, 1, 72, 0
1, 29099, Note_off_c, 1, 50, 0
1, 29100, Note_off_c, 1, 69, 0
1, 29160, Note_on_c, 1, 71, 127
1, 29160, Note_on_c, 1, 62, 127
1, 29160, Note_on_c, 1, 83, 127
1, 29160, Note_on_c, 1, 79, 127
1, 29160, Note_on_c, 1, 59, 127
1, 29160, Note_on_c, 1, 55, 127
1, 29189, Note_off_c, 1, 71, 0
1, 29190, Note_off_c, 1, 83, 0
1, 29190, Note_off_c, 1, 79, 0
1, 29207, Note_off_c, 1, 55, 0
1, 29219, Note_off_c, 1, 62, 0
1, 29220, Note_on_c, 1, 64, 127
1, 29250, Note_off_c, 1, 64, 0
1, 29280, Note_on_c, 1, 76, 127
1, 29280, Note_on_c, 1, 67, 127
1, 29280, Note_on_c, 1, 61, 127
1, 29280, Note_on_c, 1, 52, 127
1, 29309, Note_off_c, 1, 59, 0
1, 29309, Note_off_c, 1, 76, 0
1, 29309, Note_off_c, 1, 67, 0
1, 29327, Note_off_c, 1, 52, 0
1, 29339, Note_off_c, 1, 61, 0
1, 29340, Note_on_c, 1, 71, 127
1, 29340, Note_on_c, 1, 62, 127
1, 29340, Note_on_c, 1, 55, 127
1, 29340, Note_on_c, 1, 50, 127
1, 29369, Note_off_c, 1, 55, 0
1, 29370, Note_on_c, 1, 54, 127
1, 29387, Note_off_c, 1, 50, 0
1, 29399, Note_off_c, 1, 71, 0
1, 29399, Note_off_c, 1, 62, 0
1, 29399, Note_off_c, 1, 54, 0
1, 29400, Note_on_c, 1, 69, 127
1, 29400, Note_on_c, 1, 64, 127
1, 29400, Note_on_c, 1, 52, 127
1, 29400, Note_on_c, 1, 49, 127
1, 29447, Note_off_c, 1, 49, 0
1, 29459, Note_off_c, 1, 69, 0
1, 29459, Note_off_c, 1, 64, 0
1, 29459, Note_off_c, 1, 52, 0
1, 29460, Note_on_c, 1, 67, 127
1, 29460, Note_on_c, 1, 62, 127
1, 29460, Note_on_c, 1, 57, 127
1, 29460, Note_on_c, 1, 50, 127
1, 29489, Note_off_c, 1, 67, 0
1, 29490, Note_on_c, 1, 66, 127
1, 29507, Note_off_c, 1, 50, 0
1, 29519, Note_off_c, 1, 62, 0
1, 29519, Note_off_c, 1, 57, 0
1, 29519, Note_off_c, 1, 66, 0
1, 29520, Note_on_c, 1, 64, 127
1, 29520, Note_on_c, 1, 79, 127
1, 29520, Note_on_c, 1, 61, 127
1, 29520, Note_on_c, 1, 57, 127
1, 29550, Note_off_c, 1, 79, 0
1, 29579, Note_off_c, 1, 64, 0
1, 29579, Note_off_c, 1, 61, 0
1, 29579, Note_off_c, 1, 57, 0
1, 29580, Note_on_c, 1, 61, 127
1, 29580, Note_on_c, 1, 76, 127
1, 29580, Note_on_c, 1, 73, 127
1, 29580, Note_on_c, 1, 69, 127
1, 29580, Note_on_c, 1, 64, 127
1, 29580, Note_on_c, 1, 45, 127
1, 29609, Note_off_c, 1, 61, 0
1, 29609, Note_off_c, 1, 45, 0
1, 29610, Note_off_c, 1, 76, 0
1, 29610, Note_off_c, 1, 73, 0
1, 29610, Note_off_c, 1, 69, 0
1, 29610, Note_on_c, 1, 62, 127
1, 29610, Note_on_c, 1, 47, 127
1, 29639, Note_off_c, 1, 62, 0
1, 29639, Note_off_c, 1, 47, 0
1, 29640, Note_on_c, 1, 49, 127
1, 29670, Note_on_c, 1, 66, 127
1, 29670, Note_on_c, 1, 50, 127
1, 29687, Note_off_c, 1, 49, 0
1, 29699, Note_off_c, 1, 64, 0
1, 29699, Note_off_c, 1, 66, 0
1, 29699, Note_off_c, 1, 50, 0
1, 29700, Note_on_c, 1, 76, 127
1, 29700, Note_on_c, 1, 67, 127
1, 29700, Note_on_c, 1, 61, 127
1, 29700, Note_on_c, 1, 52, 127
1, 29759, Note_off_c, 1, 67, 0
1, 29759, Note_off_c, 1, 61, 0
1, 29759, Note_off_c, 1, 52, 0
1, 29760, Note_on_c, 1, 57, 127
1, 29760, Note_on_c, 1, 49, 127
1, 29819, Note_off_c, 1, 57, 0
1, 29819, Note_off_c, 1, 49, 0
1, 29820, Note_off_c, 1, 76, 0
1, 29820, Note_on_c, 1, 73, 127
1, 29820, Note_on_c, 1, 45, 127
1, 29879, Note_off_c, 1, 73, 0
1, 29879, Note_off_c, 1, 45, 0
1, 29880, Note_on_c, 1, 69, 127
1, 29880, Note_on_c, 1, 62, 127
1, 29880, Note_on_c, 1, 50, 127
1, 29939, Note_off_c, 1, 69, 0
1, 29939, Note_off_c, 1, 62, 0
1, 29939, Note_off_c, 1, 50, 0
1, 29940, Note_on_c, 1, 71, 127
1, 29940, Note_on_c, 1, 66, 127
1, 29940, Note_on_c, 1, 62, 127
1, 29940, Note_on_c, 1, 54, 127
1, 29940, Note_on_c, 1, 49, 127
1, 29969, Note_off_c, 1, 71, 0
1, 29969, Note_off_c, 1, 66, 0
1, 29970, Note_on_c, 1, 73, 127
1, 29970, Note_on_c, 1, 64, 127
1, 29987, Note_off_c, 1, 49, 0
1, 29999, Note_off_c, 1, 54, 0
1, 29999, Note_off_c, 1, 73, 0
1, 29999, Note_off_c, 1, 64, 0
1, 30000, Note_on_c, 1, 74, 127
1, 30000, Note_on_c, 1, 59, 127
1, 30000, Note_on_c, 1, 47, 127
1, 30029, Note_off_c, 1, 74, 0
1, 30030, Note_on_c, 1, 76, 127
1, 30030, Note_on_c, 1, 68, 127
1, 30047, Note_off_c, 1, 47, 0
1, 30059, Note_off_c, 1, 62, 0
1, 30059, Note_off_c, 1, 59, 0
1, 30059, Note_off_c, 1, 76, 0
1, 30059, Note_off_c, 1, 68, 0
1, 30060, Note_on_c, 1, 78, 127
1, 30060, Note_on_c, 1, 69, 127
1, 30060, Note_on_c, 1, 61, 127
1, 30060, Note_on_c, 1, 57, 127
1, 30060, Note_on_c, 1, 45, 127
1, 30107, Note_off_c, 1, 45, 0
1, 30119, Note_off_c, 1, 78, 0
1, 30119, Note_off_c, 1, 69, 0
1, 30119, Note_off_c, 1, 61, 0
1, 30119, Note_off_c, 1, 57, 0
1, 30120, Note_on_c, 1, 76, 127
1, 30120, Note_on_c, 1, 71, 127
1, 30120, Note_on_c, 1, 59, 127
1, 30120, Note_on_c, 1, 56, 127
1, 30120, Note_on_c, 1, 44, 127
1, 30167, Note_off_c, 1, 44, 0
1, 30179, Note_off_c, 1, 76, 0
1, 30179, Note_off_c, 1, 71, 0
1, 30179, Note_off_c, 1, 59, 0
1, 30179, Note_off_c, 1, 56, 0
1, 30180, Note_on_c, 1, 74, 127
1, 30180, Note_on_c, 1, 69, 127
1, 30180, Note_on_c, 1, 64, 127
1, 30180, Note_on_c, 1, 57, 127
1, 30180, Note_on_c, 1, 45, 127
1, 30209, Note_off_c, 1, 74, 0
1, 30210, Note_on_c, 1, 73, 127
1, 30227, Note_off_c, 1, 45, 0
1, 30239, Note_off_c, 1, 69, 0
1, 30239, Note_off_c, 1, 64, 0
1, 30239, Note_off_c, 1, 57, 0
1, 30239, Note_off_c, 1, 73, 0
1, 30240, Note_on_c, 1, 71, 127
1, 30240, Note_on_c, 1, 68, 127
1, 30240, Note_on_c, 1, 64, 127
1, 30240, Note_on_c, 1, 52, 127
1, 30270, Note_on_c, 1, 69, 127
1, 30299, Note_off_c, 1, 71, 0
1, 30299, Note_off_c, 1, 68, 0
1, 30299, Note_off_c, 1, 52, 0
1, 30299, Note_off_c, 1, 69, 0
1, 30300, Note_on_c, 1, 76, 127
1, 30300, Note_on_c, 1, 40, 127
1, 30323, Note_off_c, 1, 76, 0
1, 30323, Note_off_c, 1, 40, 0
1, 30330, Note_on_c, 1, 54, 127
1, 30330, Note_on_c, 1, 42, 127
1, 30353, Note_off_c, 1, 42, 0
1, 30359, Note_off_c, 1, 54, 0
1, 30360, Note_on_c, 1, 56, 127
1, 30360, Note_on_c, 1, 44, 127
1, 30390, Note_on_c, 1, 73, 127
1, 30407, Note_off_c, 1, 44, 0
1, 30419, Note_off_c, 1, 56, 0
1, 30419, Note_off_c, 1, 73, 0
1, 30420, Note_on_c, 1, 74, 127
1, 30420, Note_on_c, 1, 59, 127
1, 30420, Note_on_c, 1, 47, 127
1, 30467, Note_off_c, 1, 47, 0
1, 30479, Note_off_c, 1, 74, 0
1, 30479, Note_off_c, 1, 59, 0
1, 30510, Note_on_c, 1, 62, 127
1, 30533, Note_off_c, 1, 62, 0
1, 30540, Note_on_c, 1, 61, 127
1, 30563, Note_off_c, 1, 61, 0
1, 30600, Note_on_c, 1, 57, 127
1, 30600, Note_on_c, 1, 45, 127
1, 30647, Note_off_c, 1, 45, 0
1, 30659, Note_off_c, 1, 57, 0
1, 30660, Note_off_c, 1, 64, 0
1, 30780, Note_on_c, 1, 49, 127
1, 30827, Note_off_c, 1, 49, 0
1, 30900, Note_on_c, 1, 79, 127
1, 30959, Note_off_c, 1, 79, 0
1, 30960, Note_on_c, 1, 78, 127
1, 30960, Note_on_c, 1, 66, 127
1, 30960, Note_on_c, 1, 50, 127
1, 31259, Note_off_c, 1, 50, 0
1, 31320, Note_on_c, 1, 51, 127
1, 31379, Note_off_c, 1, 78, 0
1, 31379, Note_off_c, 1, 51, 0
1, 31380, Note_on_c, 1, 75, 127
1, 31380, Note_on_c, 1, 63, 127
1, 31427, Note_off_c, 1, 66, 0
1, 31499, Note_off_c, 1, 75, 0
1, 31499, Note_off_c, 1, 63, 0
1, 31620, Note_on_c, 1, 81, 127
1, 31679, Note_off_c, 1, 81, 0
1, 31680, Note_on_c, 1, 80, 127
1, 32099, Note_off_c, 1, 80, 0
1, 32100, Note_on_c, 1, 83, 127
1, 32123, Note_off_c, 1, 83, 0
1, 32580, Note_on_c, 1, 67, 127
1, 32610, Note_on_c, 1, 85, 127
1, 32633, Note_off_c, 1, 85, 0
1, 32640, Note_on_c, 1, 88, 127
1, 32663, Note_off_c, 1, 88, 0
1, 32699, Note_off_c, 1, 67, 0
1, 33000, Note_on_c, 1, 86, 127
1, 33023, Note_off_c, 1, 86, 0
1, 35100, Note_on_c, 1, 73, 127
1, 35100, Note_on_c, 1, 69, 127
1, 35100, Note_on_c, 1, 64, 127
1, 35100, Note_on_c, 1, 57, 127
1, 35129, Note_off_c, 1, 64, 0
1, 35129, Note_off_c, 1, 57, 0
1, 35130, Note_on_c, 1, 62, 127
1, 35130, Note_on_c, 1, 59, 127
1, 35159, Note_off_c, 1, 69, 0
1, 35159, Note_off_c, 1, 62, 0
1, 35159, Note_off_c, 1, 59, 0
1, 35160, Note_on_c, 1, 61, 127
1, 35219, Note_off_c, 1, 73, 0
1, 35219, Note_off_c, 1, 61, 0
1, 35220, Note_on_c, 1, 73, 127
1, 35220, Note_on_c, 1, 65, 127
1, 35220, Note_on_c, 1, 59, 127
1, 35220, Note_on_c, 1, 56, 127
1, 35279, Note_off_c, 1, 73, 0
1, 35279, Note_off_c, 1, 65, 0
1, 35279, Note_off_c, 1, 59, 0
1, 35279, Note_off_c, 1, 56, 0
1, 35280, Note_on_c, 1, 73, 127
1, 35280, Note_on_c, 1, 66, 127
1, 35280, Note_on_c, 1, 57, 127
1, 35280, Note_on_c, 1, 54, 127
1, 35280, Note_on_c, 1, 69, 127
1, 35309, Note_off_c, 1, 73, 0
1, 35310, Note_on_c, 1, 78, 127
1, 35339, Note_off_c, 1, 57, 0
1, 35339, Note_off_c, 1, 54, 0
1, 35339, Note_off_c, 1, 78, 0
1, 35340, Note_on_c, 1, 76, 127
1, 35340, Note_on_c, 1, 71, 127
1, 35340, Note_on_c, 1, 59, 127
1, 35340, Note_on_c, 1, 56, 127
1, 35369, Note_off_c, 1, 76, 0
1, 35370, Note_on_c, 1, 74, 127
1, 35399, Note_off_c, 1, 71, 0
1, 35399, Note_off_c, 1, 59, 0
1, 35399, Note_off_c, 1, 56, 0
1, 35399, Note_off_c, 1, 74, 0
1, 35400, Note_on_c, 1, 61, 127
1, 35459, Note_off_c, 1, 61, 0
1, 35460, Note_on_c, 1, 68, 127
1, 35460, Note_on_c, 1, 62, 127
1, 35519, Note_off_c, 1, 68, 0
1, 35519, Note_off_c, 1, 62, 0
1, 35580, Note_off_c, 1, 66, 0
1, 35580, Note_off_c, 1, 69, 0
1, 35580, Note_on_c, 1, 65, 127
1, 35580, Note_on_c, 1, 49, 127
1, 35639, Note_off_c, 1, 65, 0
1, 35639, Note_off_c, 1, 49, 0
1, 35640, Note_on_c, 1, 69, 127
1, 35640, Note_on_c, 1, 66, 127
1, 35640, Note_on_c, 1, 61, 127
1, 35640, Note_on_c, 1, 54, 127
1, 35700, Note_on_c, 1, 42, 127
1, 35730, Note_on_c, 1, 71, 127
1, 35730, Note_on_c, 1, 68, 127
1, 35747, Note_off_c, 1, 42, 0
1, 35759, Note_off_c, 1, 61, 0
1, 35759, Note_off_c, 1, 54, 0
1, 35759, Note_off_c, 1, 71, 0
1, 35759, Note_off_c, 1, 68, 0
1, 35760, Note_on_c, 1, 73, 127
1, 35819, Note_off_c, 1, 73, 0
1, 35880, Note_off_c, 1, 69, 0
1, 35880, Note_off_c, 1, 66, 0
1, 35880, Note_on_c, 1, 74, 127
1, 35880, Note_on_c, 1, 62, 127
1, 35909, Note_off_c, 1, 74, 0
1, 36000, Note_off_c, 1, 62, 0
1, 36030, Note_on_c, 1, 81, 127
1, 36030, Note_on_c, 1, 78, 127
1, 36053, Note_off_c, 1, 81, 0
1, 36053, Note_off_c, 1, 78, 0
1, 36060, Note_on_c, 1, 85, 127
1, 36083, Note_off_c, 1, 85, 0
1, 36120, Note_on_c, 1, 57, 127
1, 36143, Note_off_c, 1, 57, 0
1, 36240, Note_on_c, 1, 80, 127
1, 36240, Note_on_c, 1, 77, 127
1, 36240, Note_on_c, 1, 65, 127
1, 36269, Note_off_c, 1, 80, 0
1, 36269, Note_off_c, 1, 77, 0
1, 36300, Note_on_c, 1, 49, 127
1, 36347, Note_off_c, 1, 49, 0
1, 36360, Note_off_c, 1, 65, 0
1, 36450, Note_on_c, 1, 56, 127
1, 36479, Note_off_c, 1, 56, 0
1, 36540, Note_on_c, 1, 52, 127
1, 36599, Note_off_c, 1, 52, 0
1, 36600, Note_on_c, 1, 51, 127
1, 36600, Note_on_c, 1, 63, 127
1, 36659, Note_off_c, 1, 51, 0
1, 36660, Note_on_c, 1, 47, 127
1, 36719, Note_off_c, 1, 47, 0
1, 36720, Note_off_c, 1, 63, 0
1, 36720, Note_on_c, 1, 64, 127
1, 36780, Note_off_c, 1, 64, 0
1, 36840, Note_on_c, 1, 59, 127
1, 36899, Note_off_c, 1, 59, 0
1, 36930, Note_on_c, 1, 75, 127
1, 36960, Note_off_c, 1, 75, 0
1, 36960, Note_on_c, 1, 76, 127
1, 37020, Note_off_c, 1, 76, 0
1, 37020, Note_on_c, 1, 58, 127
1, 37079, Note_off_c, 1, 58, 0
1, 37440, Note_on_c, 1, 48, 127
1, 37487, Note_off_c, 1, 48, 0
1, 37500, Note_on_c, 1, 60, 127
1, 37547, Note_off_c, 1, 60, 0
1, 37890, Note_on_c, 1, 72, 127
1, 37913, Note_off_c, 1, 72, 0
1, 38580, Note_on_c, 1, 45, 127
1, 38627, Note_off_c, 1, 45, 0
1, 38820, Note_on_c, 1, 73, 127
1, 38820, Note_on_c, 1, 66, 127
1, 38820, Note_on_c, 1, 57, 127
1, 38820, Note_on_c, 1, 51, 127
1, 38850, Note_on_c, 1, 75, 127
1, 38873, Note_off_c, 1, 75, 0
1, 38879, Note_off_c, 1, 73, 0
1, 38879, Note_off_c, 1, 66, 0
1, 38879, Note_off_c, 1, 57, 0
1, 38879, Note_off_c, 1, 51, 0
1, 38880, Note_on_c, 1, 72, 127
1, 38880, Note_on_c, 1, 63, 127
1, 38880, Note_on_c, 1, 56, 127
1, 38880, Note_on_c, 1, 66, 127
1, 38909, Note_off_c, 1, 72, 0
1, 38910, Note_on_c, 1, 73, 127
1, 38939, Note_off_c, 1, 66, 0
1, 38939, Note_off_c, 1, 73, 0
1, 38940, Note_on_c, 1, 75, 127
1, 38940, Note_on_c, 1, 64, 127
1, 38940, Note_on_c, 1, 58, 127
1, 38969, Note_off_c, 1, 75, 0
1, 38999, Note_off_c, 1, 64, 0
1, 38999, Note_off_c, 1, 58, 0
1, 39000, Note_on_c, 1, 68, 127
1, 39000, Note_on_c, 1, 60, 127
1, 39030, Note_on_c, 1, 61, 127
1, 39059, Note_off_c, 1, 63, 0
1, 39059, Note_off_c, 1, 56, 0
1, 39059, Note_off_c, 1, 68, 0
1, 39059, Note_off_c, 1, 60, 0
1, 39059, Note_off_c, 1, 61, 0
1, 39060, Note_on_c, 1, 80, 127
1, 39060, Note_on_c, 1, 63, 127
1, 39060, Note_on_c, 1, 60, 127
1, 39060, Note_on_c, 1, 56, 127
1, 39089, Note_off_c, 1, 63, 0
1, 39090, Note_on_c, 1, 64, 127
1, 39119, Note_off_c, 1, 80, 0
1, 39119, Note_off_c, 1, 60, 0
1, 39119, Note_off_c, 1, 56, 0
1, 39119, Note_off_c, 1, 64, 0
1, 39120, Note_on_c, 1, 80, 127
1, 39120, Note_on_c, 1, 66, 127
1, 39120, Note_on_c, 1, 61, 127
1, 39120, Note_on_c, 1, 78, 127
1, 39120, Note_on_c, 1, 58, 127
1, 39149, Note_off_c, 1, 80, 0
1, 39179, Note_off_c, 1, 66, 0
1, 39179, Note_off_c, 1, 61, 0
1, 39179, Note_off_c, 1, 78, 0
1, 39179, Note_off_c, 1, 58, 0
1, 39180, Note_on_c, 1, 76, 127
1, 39180, Note_on_c, 1, 68, 127
1, 39180, Note_on_c, 1, 63, 127
1, 39180, Note_on_c, 1, 75, 127
1, 39180, Note_on_c, 1, 60, 127
1, 39209, Note_off_c, 1, 76, 0
1, 39239, Note_off_c, 1, 75, 0
1, 39239, Note_off_c, 1, 60, 0
1, 39240, Note_on_c, 1, 61, 127
1, 39270, Note_on_c, 1, 80, 127
1, 39299, Note_off_c, 1, 63, 0
1, 39299, Note_off_c, 1, 61, 0
1, 39299, Note_off_c, 1, 80, 0
1, 39300, Note_off_c, 1, 68, 0
1, 39300, Note_on_c, 1, 78, 127
1, 39300, Note_on_c, 1, 73, 127
1, 39300, Note_on_c, 1, 66, 127
1, 39300, Note_on_c, 1, 57, 127
1, 39330, Note_on_c, 1, 81, 127
1, 39359, Note_off_c, 1, 78, 0
1, 39359, Note_off_c, 1, 66, 0
1, 39359, Note_off_c, 1, 57, 0
1, 39359, Note_off_c, 1, 81, 0
1, 39360, Note_on_c, 1, 64, 127
1, 39360, Note_on_c, 1, 52, 127
1, 39419, Note_off_c, 1, 73, 0
1, 39419, Note_off_c, 1, 64, 0
1, 39419, Note_off_c, 1, 52, 0
1, 39420, Note_on_c, 1, 73, 127
1, 39420, Note_on_c, 1, 69, 127
1, 39420, Note_on_c, 1, 64, 127
1, 39420, Note_on_c, 1, 61, 127
1, 39420, Note_on_c, 1, 57, 127
1, 39479, Note_off_c, 1, 73, 0
1, 39479, Note_off_c, 1, 64, 0
1, 39479, Note_off_c, 1, 61, 0
1, 39479, Note_off_c, 1, 57, 0
1, 39480, Note_on_c, 1, 76, 127
1, 39480, Note_on_c, 1, 66, 127
1, 39480, Note_on_c, 1, 54, 127
1, 39509, Note_off_c, 1, 76, 0
1, 39510, Note_on_c, 1, 75, 127
1, 39539, Note_off_c, 1, 69, 0
1, 39539, Note_off_c, 1, 66, 0
1, 39539, Note_off_c, 1, 54, 0
1, 39539, Note_off_c, 1, 75, 0
1, 39540, Note_on_c, 1, 73, 127
1, 39540, Note_on_c, 1, 68, 127
1, 39540, Note_on_c, 1, 64, 127
1, 39540, Note_on_c, 1, 56, 127
1, 39569, Note_off_c, 1, 73, 0
1, 39569, Note_off_c, 1, 64, 0
1, 39570, Note_on_c, 1, 72, 127
1, 39570, Note_on_c, 1, 66, 127
1, 39570, Note_on_c, 1, 63, 127
1, 39599, Note_off_c, 1, 56, 0
1, 39599, Note_off_c, 1, 72, 0
1, 39599, Note_off_c, 1, 66, 0
1, 39599, Note_off_c, 1, 63, 0
1, 39600, Note_on_c, 1, 49, 127
1, 39660, Note_on_c, 1, 61, 127
1, 39690, Note_on_c, 1, 75, 127
1, 39707, Note_off_c, 1, 61, 0
1, 39719, Note_off_c, 1, 68, 0
1, 39719, Note_off_c, 1, 49, 0
1, 39719, Note_off_c, 1, 75, 0
1, 39720, Note_on_c, 1, 76, 127
1, 39720, Note_on_c, 1, 68, 127
1, 39720, Note_on_c, 1, 61, 127
1, 39767, Note_off_c, 1, 61, 0
1, 39779, Note_off_c, 1, 76, 0
1, 39779, Note_off_c, 1, 68, 0
1, 39780, Note_on_c, 1, 76, 127
1, 39780, Note_on_c, 1, 68, 127
1, 39780, Note_on_c, 1, 61, 127
1, 39827, Note_off_c, 1, 61, 0
1, 39839, Note_off_c, 1, 76, 0
1, 39839, Note_off_c, 1, 68, 0
1, 39840, Note_on_c, 1, 78, 127
1, 39840, Note_on_c, 1, 69, 127
1, 39840, Note_on_c, 1, 61, 127
1, 39869, Note_off_c, 1, 78, 0
1, 39869, Note_off_c, 1, 69, 0
1, 39870, Note_on_c, 1, 76, 127
1, 39870, Note_on_c, 1, 68, 127
1, 39887, Note_off_c, 1, 61, 0
1, 39899, Note_off_c, 1, 76, 0
1, 39899, Note_off_c, 1, 68, 0
1, 39900, Note_on_c, 1, 75, 127
1, 39900, Note_on_c, 1, 66, 127
1, 39900, Note_on_c, 1, 61, 127
1, 39929, Note_off_c, 1, 75, 0
1, 39929, Note_off_c, 1, 66, 0
1, 39930, Note_on_c, 1, 78, 127
1, 39930, Note_on_c, 1, 69, 127
1, 39947, Note_off_c, 1, 61, 0
1, 39959, Note_off_c, 1, 78, 0
1, 39959, Note_off_c, 1, 69, 0
1, 39960, Note_on_c, 1, 76, 127
1, 39960, Note_on_c, 1, 68, 127
1, 39960, Note_on_c, 1, 61, 127
1, 39990, Note_on_c, 1, 80, 127
1, 39990, Note_on_c, 1, 73, 127
1, 40007, Note_off_c, 1, 61, 0
1, 40013, Note_off_c, 1, 80, 0
1, 40013, Note_off_c, 1, 73, 0
1, 40019, Note_off_c, 1, 76, 0
1, 40019, Note_off_c, 1, 68, 0
1, 40020, Note_on_c, 1, 85, 127
1, 40020, Note_on_c, 1, 80, 127
1, 40020, Note_on_c, 1, 76, 127
1, 40020, Note_on_c, 1, 49, 127
1, 40043, Note_off_c, 1, 85, 0
1, 40043, Note_off_c, 1, 80, 0
1, 40043, Note_off_c, 1, 76, 0
1, 40050, Note_on_c, 1, 73, 127
1, 40067, Note_off_c, 1, 49, 0
1, 40073, Note_off_c, 1, 73, 0
1, 40080, Note_on_c, 1, 80, 127
1, 40080, Note_on_c, 1, 73, 127
1, 40080, Note_on_c, 1, 76, 127
1, 40080, Note_on_c, 1, 68, 127
1, 40080, Note_on_c, 1, 49, 127
1, 40103, Note_off_c, 1, 76, 0
1, 40103, Note_off_c, 1, 68, 0
1, 40109, Note_off_c, 1, 80, 0
1, 40109, Note_off_c, 1, 73, 0
1, 40127, Note_off_c, 1, 49, 0
1, 40140, Note_on_c, 1, 73, 127
1, 40140, Note_on_c, 1, 68, 127
1, 40140, Note_on_c, 1, 64, 127
1, 40140, Note_on_c, 1, 52, 127
1, 40163, Note_off_c, 1, 73, 0
1, 40163, Note_off_c, 1, 68, 0
1, 40163, Note_off_c, 1, 64, 0
1, 40170, Note_on_c, 1, 76, 127
1, 40187, Note_off_c, 1, 52, 0
1, 40193, Note_off_c, 1, 76, 0
1, 40200, Note_on_c, 1, 72, 127
1, 40200, Note_on_c, 1, 75, 127
1, 40200, Note_on_c, 1, 68, 127
1, 40200, Note_on_c, 1, 63, 127
1, 40200, Note_on_c, 1, 56, 127
1, 40229, Note_off_c, 1, 72, 0
1, 40229, Note_off_c, 1, 75, 0
1, 40230, Note_on_c, 1, 78, 127
1, 40247, Note_off_c, 1, 68, 0
1, 40247, Note_off_c, 1, 63, 0
1, 40247, Note_off_c, 1, 56, 0
1, 40253, Note_off_c, 1, 78, 0
1, 40260, Note_on_c, 1, 76, 127
1, 40260, Note_on_c, 1, 72, 127
1, 40260, Note_on_c, 1, 68, 127
1, 40260, Note_on_c, 1, 44, 127
1, 40283, Note_off_c, 1, 76, 0
1, 40290, Note_on_c, 1, 75, 127
1, 40307, Note_off_c, 1, 72, 0
1, 40307, Note_off_c, 1, 68, 0
1, 40307, Note_off_c, 1, 44, 0
1, 40313, Note_off_c, 1, 75, 0
1, 40320, Note_on_c, 1, 73, 127
1, 40320, Note_on_c, 1, 76, 127
1, 40320, Note_on_c, 1, 68, 127
1, 40320, Note_on_c, 1, 49, 127
1, 40367, Note_off_c, 1, 73, 0
1, 40367, Note_off_c, 1, 76, 0
1, 40367, Note_off_c, 1, 68, 0
1, 40367, Note_off_c, 1, 49, 0
1, 40380, Note_on_c, 1, 73, 127
1, 40380, Note_on_c, 1, 68, 127
1, 40380, Note_on_c, 1, 64, 127
1, 40380, Note_on_c, 1, 61, 127
1, 40427, Note_off_c, 1, 73, 0
1, 40427, Note_off_c, 1, 61, 0
1, 40440, Note_on_c, 1, 59, 127
1, 40487, Note_off_c, 1, 59, 0
1, 40499, Note_off_c, 1, 68, 0
1, 40499, Note_off_c, 1, 64, 0
1, 40500, Note_on_c, 1, 69, 127
1, 40500, Note_on_c, 1, 66, 127
1, 40500, Note_on_c, 1, 57, 127
1, 40547, Note_off_c, 1, 57, 0
1, 40559, Note_off_c, 1, 69, 0
1, 40559, Note_off_c, 1, 66, 0
1, 40560, Note_on_c, 1, 71, 127
1, 40560, Note_on_c, 1, 68, 127
1, 40560, Note_on_c, 1, 56, 127
1, 40560, Note_on_c, 1, 52, 127
1, 40560, Note_on_c, 1, 64, 127
1, 40607, Note_off_c, 1, 64, 0
1, 40619, Note_off_c, 1, 56, 0
1, 40619, Note_off_c, 1, 52, 0
1, 40620, Note_on_c, 1, 57, 127
1, 40620, Note_on_c, 1, 54, 127
1, 40620, Note_on_c, 1, 66, 127
1, 40667, Note_off_c, 1, 66, 0
1, 40679, Note_off_c, 1, 57, 0
1, 40679, Note_off_c, 1, 54, 0
1, 40680, Note_on_c, 1, 59, 127
1, 40739, Note_off_c, 1, 71, 0
1, 40740, Note_on_c, 1, 73, 127
1, 40740, Note_on_c, 1, 70, 127
1, 40740, Note_on_c, 1, 50, 127
1, 40769, Note_off_c, 1, 73, 0
1, 40769, Note_off_c, 1, 70, 0
1, 40770, Note_on_c, 1, 74, 127
1, 40787, Note_off_c, 1, 50, 0
1, 40799, Note_off_c, 1, 74, 0
1, 40800, Note_on_c, 1, 76, 127
1, 40800, Note_on_c, 1, 49, 127
1, 40829, Note_off_c, 1, 76, 0
1, 40830, Note_off_c, 1, 68, 0
1, 40830, Note_on_c, 1, 78, 127
1, 40830, Note_on_c, 1, 58, 127
1, 40847, Note_off_c, 1, 49, 0
1, 40859, Note_off_c, 1, 59, 0
1, 40859, Note_off_c, 1, 78, 0
1, 40859, Note_off_c, 1, 58, 0
1, 40860, Note_on_c, 1, 79, 127
1, 40860, Note_on_c, 1, 67, 127
1, 40860, Note_on_c, 1, 47, 127
1, 40907, Note_off_c, 1, 47, 0
1, 40919, Note_off_c, 1, 79, 0
1, 40920, Note_off_c, 1, 67, 0
1, 40920, Note_on_c, 1, 61, 127
1, 40920, Note_on_c, 1, 46, 127
1, 40967, Note_off_c, 1, 46, 0
1, 40979, Note_off_c, 1, 61, 0
1, 40980, Note_on_c, 1, 42, 127
1, 41027, Note_off_c, 1, 42, 0
1, 41040, Note_on_c, 1, 62, 127
1, 41280, Note_off_c, 1, 62, 0
1, 41340, Note_on_c, 1, 76, 127
1, 41340, Note_on_c, 1, 73, 127
1, 41340, Note_on_c, 1, 59, 127
1, 41369, Note_off_c, 1, 76, 0
1, 41369, Note_off_c, 1, 73, 0
1, 41370, Note_on_c, 1, 79, 127
1, 41387, Note_off_c, 1, 59, 0
1, 41399, Note_off_c, 1, 79, 0
1, 41400, Note_on_c, 1, 78, 127
1, 41400, Note_on_c, 1, 74, 127
1, 41400, Note_on_c, 1, 59, 127
1, 41430, Note_on_c, 1, 71, 127
1, 41447, Note_off_c, 1, 59, 0
1, 41453, Note_off_c, 1, 71, 0
1, 41459, Note_off_c, 1, 78, 0
1, 41459, Note_off_c, 1, 74, 0
1, 41460, Note_on_c, 1, 83, 127
1, 41460, Note_on_c, 1, 78, 127
1, 41460, Note_on_c, 1, 74, 127
1, 41460, Note_on_c, 1, 47, 127
1, 41483, Note_off_c, 1, 83, 0
1, 41483, Note_off_c, 1, 78, 0
1, 41483, Note_off_c, 1, 74, 0
1, 41490, Note_on_c, 1, 71, 127
1, 41507, Note_off_c, 1, 47, 0
1, 41513, Note_off_c, 1, 71, 0
1, 41520, Note_on_c, 1, 71, 127
1, 41520, Note_on_c, 1, 78, 127
1, 41520, Note_on_c, 1, 74, 127
1, 41520, Note_on_c, 1, 66, 127
1, 41520, Note_on_c, 1, 47, 127
1, 41543, Note_off_c, 1, 74, 0
1, 41543, Note_off_c, 1, 66, 0
1, 41549, Note_off_c, 1, 71, 0
1, 41549, Note_off_c, 1, 78, 0
1, 41567, Note_off_c, 1, 47, 0
1, 41580, Note_on_c, 1, 71, 127
1, 41580, Note_on_c, 1, 66, 127
1, 41580, Note_on_c, 1, 62, 127
1, 41580, Note_on_c, 1, 50, 127
1, 41603, Note_off_c, 1, 71, 0
1, 41603, Note_off_c, 1, 66, 0
1, 41603, Note_off_c, 1, 62, 0
1, 41610, Note_on_c, 1, 74, 127
1, 41627, Note_off_c, 1, 50, 0
1, 41633, Note_off_c, 1, 74, 0
1, 41640, Note_on_c, 1, 73, 127
1, 41640, Note_on_c, 1, 70, 127
1, 41640, Note_on_c, 1, 66, 127
1, 41640, Note_on_c, 1, 61, 127
1, 41640, Note_on_c, 1, 54, 127
1, 41669, Note_off_c, 1, 73, 0
1, 41669, Note_off_c, 1, 70, 0
1, 41670, Note_on_c, 1, 76, 127
1, 41687, Note_off_c, 1, 66, 0
1, 41687, Note_off_c, 1, 61, 0
1, 41687, Note_off_c, 1, 54, 0
1, 41693, Note_off_c, 1, 76, 0
1, 41700, Note_on_c, 1, 74, 127
1, 41700, Note_on_c, 1, 70, 127
1, 41700, Note_on_c, 1, 66, 127
1, 41700, Note_on_c, 1, 42, 127
1, 41723, Note_off_c, 1, 74, 0
1, 41730, Note_on_c, 1, 73, 127
1, 41747, Note_off_c, 1, 70, 0
1, 41747, Note_off_c, 1, 66, 0
1, 41747, Note_off_c, 1, 42, 0
1, 41753, Note_off_c, 1, 73, 0
1, 41760, Note_on_c, 1, 74, 127
1, 41760, Note_on_c, 1, 71, 127
1, 41760, Note_on_c, 1, 66, 127
1, 41760, Note_on_c, 1, 62, 127
1, 41760, Note_on_c, 1, 47, 127
1, 41807, Note_off_c, 1, 74, 0
1, 41807, Note_off_c, 1, 47, 0
1, 41820, Note_on_c, 1, 59, 127
1, 41867, Note_off_c, 1, 59, 0
1, 41940, Note_off_c, 1, 71, 0
1, 41940, Note_off_c, 1, 66, 0
1, 41940, Note_off_c, 1, 62, 0
1, 41940, Note_on_c, 1, 69, 127
1, 41940, Note_on_c, 1, 61, 127
1, 41940, Note_on_c, 1, 64, 127
1, 41940, Note_on_c, 1, 49, 127
1, 41963, Note_off_c, 1, 49, 0
1, 41970, Note_on_c, 1, 50, 127
1, 41993, Note_off_c, 1, 50, 0
1, 42000, Note_on_c, 1, 68, 127
1, 42000, Note_on_c, 1, 52, 127
1, 42059, Note_off_c, 1, 52, 0
1, 42120, Note_off_c, 1, 69, 0
1, 42120, Note_off_c, 1, 61, 0
1, 42179, Note_off_c, 1, 68, 0
1, 42180, Note_on_c, 1, 57, 127
1, 42180, Note_on_c, 1, 37, 127
1, 42209, Note_off_c, 1, 57, 0
1, 42210, Note_on_c, 1, 56, 127
1, 42227, Note_off_c, 1, 37, 0
1, 42239, Note_off_c, 1, 56, 0
1, 42240, Note_on_c, 1, 73, 127
1, 42269, Note_off_c, 1, 73, 0
1, 42299, Note_off_c, 1, 64, 0
1, 42300, Note_on_c, 1, 76, 127
1, 42300, Note_on_c, 1, 69, 127
1, 42300, Note_on_c, 1, 61, 127
1, 42300, Note_on_c, 1, 45, 127
1, 42300, Note_on_c, 1, 57, 127
1, 42347, Note_off_c, 1, 57, 0
1, 42359, Note_off_c, 1, 69, 0
1, 42359, Note_off_c, 1, 45, 0
1, 42360, Note_on_c, 1, 52, 127
1, 42360, Note_on_c, 1, 64, 127
1, 42389, Note_off_c, 1, 76, 0
1, 42389, Note_off_c, 1, 61, 0
1, 42390, Note_on_c, 1, 73, 127
1, 42407, Note_off_c, 1, 64, 0
1, 42419, Note_off_c, 1, 52, 0
1, 42419, Note_off_c, 1, 73, 0
1, 42420, Note_on_c, 1, 74, 127
1, 42420, Note_on_c, 1, 68, 127
1, 42420, Note_on_c, 1, 59, 127
1, 42420, Note_on_c, 1, 52, 127
1, 42420, Note_on_c, 1, 40, 127
1, 42467, Note_off_c, 1, 40, 0
1, 42479, Note_off_c, 1, 74, 0
1, 42479, Note_off_c, 1, 68, 0
1, 42479, Note_off_c, 1, 59, 0
1, 42479, Note_off_c, 1, 52, 0
1, 42480, Note_on_c, 1, 73, 127
1, 42480, Note_on_c, 1, 64, 127
1, 42480, Note_on_c, 1, 57, 127
1, 42480, Note_on_c, 1, 45, 127
1, 42540, Note_on_c, 1, 69, 127
1, 42540, Note_on_c, 1, 61, 127
1, 42569, Note_off_c, 1, 69, 0
1, 42569, Note_off_c, 1, 61, 0
1, 42570, Note_on_c, 1, 71, 127
1, 42570, Note_on_c, 1, 62, 127
1, 42599, Note_off_c, 1, 73, 0
1, 42599, Note_off_c, 1, 64, 0
1, 42599, Note_off_c, 1, 57, 0
1, 42599, Note_off_c, 1, 45, 0
1, 42599, Note_off_c, 1, 71, 0
1, 42599, Note_off_c, 1, 62, 0
1, 42600, Note_on_c, 1, 73, 127
1, 42600, Note_on_c, 1, 64, 127
1, 42600, Note_on_c, 1, 57, 127
1, 42629, Note_off_c, 1, 73, 0
1, 42629, Note_off_c, 1, 64, 0
1, 42630, Note_on_c, 1, 74, 127
1, 42630, Note_on_c, 1, 66, 127
1, 42647, Note_off_c, 1, 57, 0
1, 42659, Note_off_c, 1, 74, 0
1, 42659, Note_off_c, 1, 66, 0
1, 42660, Note_on_c, 1, 71, 127
1, 42660, Note_on_c, 1, 62, 127
1, 42660, Note_on_c, 1, 57, 127
1, 42689, Note_off_c, 1, 71, 0
1, 42689, Note_off_c, 1, 62, 0
1, 42690, Note_on_c, 1, 73, 127
1, 42690, Note_on_c, 1, 64, 127
1, 42707, Note_off_c, 1, 57, 0
1, 42719, Note_off_c, 1, 73, 0
1, 42719, Note_off_c, 1, 64, 0
1, 42720, Note_on_c, 1, 74, 127
1, 42720, Note_on_c, 1, 66, 127
1, 42720, Note_on_c, 1, 57, 127
1, 42749, Note_off_c, 1, 74, 0
1, 42749, Note_off_c, 1, 66, 0
1, 42750, Note_on_c, 1, 73, 127
1, 42750, Note_on_c, 1, 64, 127
1, 42767, Note_off_c, 1, 57, 0
1, 42779, Note_off_c, 1, 73, 0
1, 42779, Note_off_c, 1, 64, 0
1, 42780, Note_on_c, 1, 71, 127
1, 42780, Note_on_c, 1, 62, 127
1, 42780, Note_on_c, 1, 57, 127
1, 42809, Note_off_c, 1, 71, 0
1, 42809, Note_off_c, 1, 62, 0
1, 42810, Note_on_c, 1, 74, 127
1, 42810, Note_on_c, 1, 66, 127
1, 42827, Note_off_c, 1, 57, 0
1, 42839, Note_off_c, 1, 74, 0
1, 42839, Note_off_c, 1, 66, 0
1, 42840, Note_on_c, 1, 73, 127
1, 42840, Note_on_c, 1, 64, 127
1, 42840, Note_on_c, 1, 58, 127
1, 42887, Note_off_c, 1, 58, 0
1, 42900, Note_on_c, 1, 67, 127
1, 42900, Note_on_c, 1, 46, 127
1, 42923, Note_off_c, 1, 67, 0
1, 42930, Note_on_c, 1, 74, 127
1, 42930, Note_on_c, 1, 66, 127
1, 42947, Note_off_c, 1, 46, 0
1, 42953, Note_off_c, 1, 74, 0
1, 42953, Note_off_c, 1, 66, 0
1, 42960, Note_on_c, 1, 76, 127
1, 42983, Note_off_c, 1, 76, 0
1, 42990, Note_on_c, 1, 78, 127
1, 43013, Note_off_c, 1, 78, 0
1, 43020, Note_on_c, 1, 61, 127
1, 43067, Note_off_c, 1, 61, 0
1, 43140, Note_on_c, 1, 54, 127
1, 43187, Note_off_c, 1, 54, 0
1, 43199, Note_off_c, 1, 73, 0
1, 43199, Note_off_c, 1, 64, 0
1, 43200, Note_on_c, 1, 71, 127
1, 43200, Note_on_c, 1, 62, 127
1, 43200, Note_on_c, 1, 74, 127
1, 43200, Note_on_c, 1, 66, 127
1, 43200, Note_on_c, 1, 59, 127
1, 43200, Note_on_c, 1, 47, 127
1, 43223, Note_off_c, 1, 74, 0
1, 43230, Note_on_c, 1, 76, 127
1, 43247, Note_off_c, 1, 47, 0
1, 43253, Note_off_c, 1, 76, 0
1, 43259, Note_off_c, 1, 71, 0
1, 43259, Note_off_c, 1, 62, 0
1, 43260, Note_on_c, 1, 78, 127
1, 43260, Note_on_c, 1, 61, 127
1, 43260, Note_on_c, 1, 46, 127
1, 43289, Note_off_c, 1, 78, 0
1, 43307, Note_off_c, 1, 46, 0
1, 43319, Note_off_c, 1, 61, 0
1, 43343, Note_off_c, 1, 66, 0
1, 43379, Note_off_c, 1, 59, 0
1, 43380, Note_on_c, 1, 73, 127
1, 43380, Note_on_c, 1, 66, 127
1, 43380, Note_on_c, 1, 70, 127
1, 43380, Note_on_c, 1, 64, 127
1, 43380, Note_on_c, 1, 49, 127
1, 43410, Note_on_c, 1, 74, 127
1, 43427, Note_off_c, 1, 70, 0
1, 43427, Note_off_c, 1, 64, 0
1, 43439, Note_off_c, 1, 73, 0
1, 43439, Note_off_c, 1, 66, 0
1, 43439, Note_off_c, 1, 49, 0
1, 43439, Note_off_c, 1, 74, 0
1, 43440, Note_on_c, 1, 71, 127
1, 43440, Note_on_c, 1, 66, 127
1, 43440, Note_on_c, 1, 50, 127
1, 43500, Note_on_c, 1, 69, 127
1, 43500, Note_on_c, 1, 62, 127
1, 43500, Note_on_c, 1, 47, 127
1, 43547, Note_off_c, 1, 47, 0
1, 43559, Note_off_c, 1, 69, 0
1, 43559, Note_off_c, 1, 62, 0
1, 43560, Note_on_c, 1, 68, 127
1, 43560, Note_on_c, 1, 59, 127
1, 43560, Note_on_c, 1, 52, 127
1, 43583, Note_off_c, 1, 66, 0
1, 43607, Note_off_c, 1, 52, 0
1, 43619, Note_off_c, 1, 71, 0
1, 43619, Note_off_c, 1, 50, 0
1, 43619, Note_off_c, 1, 59, 0
1, 43620, Note_on_c, 1, 73, 127
1, 43620, Note_on_c, 1, 64, 127
1, 43620, Note_on_c, 1, 40, 127
1, 43649, Note_off_c, 1, 73, 0
1, 43650, Note_on_c, 1, 74, 127
1, 43650, Note_on_c, 1, 54, 127
1, 43667, Note_off_c, 1, 40, 0
1, 43679, Note_off_c, 1, 74, 0
1, 43679, Note_off_c, 1, 54, 0
1, 43739, Note_off_c, 1, 68, 0
1, 43800, Note_on_c, 1, 76, 127
1, 43800, Note_on_c, 1, 49, 127
1, 43829, Note_off_c, 1, 76, 0
1, 43860, Note_on_c, 1, 57, 127
1, 43860, Note_on_c, 1, 45, 127
1, 43907, Note_off_c, 1, 45, 0
1, 43919, Note_off_c, 1, 64, 0
1, 43919, Note_off_c, 1, 57, 0
1, 43979, Note_off_c, 1, 49, 0
1, 43980, Note_on_c, 1, 38, 127
1, 44010, Note_on_c, 1, 61, 127
1, 44027, Note_off_c, 1, 38, 0
1, 44033, Note_off_c, 1, 61, 0
1, 44220, Note_on_c, 1, 44, 127
1, 44279, Note_off_c, 1, 44, 0
1, 44280, Note_on_c, 1, 65, 127
1, 44280, Note_on_c, 1, 56, 127
1, 44339, Note_off_c, 1, 65, 0
1, 44340, Note_on_c, 1, 51, 127
1, 44399, Note_off_c, 1, 51, 0
1, 44400, Note_on_c, 1, 53, 127
1, 44459, Note_off_c, 1, 56, 0
1, 44459, Note_off_c, 1, 53, 0
1, 44460, Note_on_c, 1, 71, 127
1, 44460, Note_on_c, 1, 65, 127
1, 44460, Note_on_c, 1, 61, 127
1, 44460, Note_on_c, 1, 49, 127
1, 44489, Note_off_c, 1, 71, 0
1, 44490, Note_on_c, 1, 69, 127
1, 44519, Note_off_c, 1, 65, 0
1, 44519, Note_off_c, 1, 61, 0
1, 44519, Note_off_c, 1, 49, 0
1, 44519, Note_off_c, 1, 69, 0
1, 44520, Note_on_c, 1, 71, 127
1, 44520, Note_on_c, 1, 66, 127
1, 44520, Note_on_c, 1, 54, 127
1, 44520, Note_on_c, 1, 51, 127
1, 44550, Note_on_c, 1, 69, 127
1, 44579, Note_off_c, 1, 71, 0
1, 44579, Note_off_c, 1, 66, 0
1, 44579, Note_off_c, 1, 54, 0
1, 44579, Note_off_c, 1, 51, 0
1, 44579, Note_off_c, 1, 69, 0
1, 44580, Note_on_c, 1, 68, 127
1, 44580, Note_on_c, 1, 61, 127
1, 44580, Note_on_c, 1, 53, 127
1, 44610, Note_on_c, 1, 71, 127
1, 44639, Note_off_c, 1, 53, 0
1, 44639, Note_off_c, 1, 71, 0
1, 44640, Note_on_c, 1, 69, 127
1, 44640, Note_on_c, 1, 54, 127
1, 44670, Note_on_c, 1, 73, 127
1, 44699, Note_off_c, 1, 68, 0
1, 44699, Note_off_c, 1, 61, 0
1, 44699, Note_off_c, 1, 69, 0
1, 44699, Note_off_c, 1, 54, 0
1, 44699, Note_off_c, 1, 73, 0
1, 44700, Note_on_c, 1, 71, 127
1, 44700, Note_on_c, 1, 66, 127
1, 44700, Note_on_c, 1, 54, 127
1, 44700, Note_on_c, 1, 50, 127
1, 44729, Note_off_c, 1, 66, 0
1, 44729, Note_off_c, 1, 54, 0
1, 44730, Note_on_c, 1, 74, 127
1, 44730, Note_on_c, 1, 65, 127
1, 44730, Note_on_c, 1, 56, 127
1, 44759, Note_off_c, 1, 71, 0
1, 44759, Note_off_c, 1, 50, 0
1, 44759, Note_off_c, 1, 74, 0
1, 44759, Note_off_c, 1, 65, 0
1, 44759, Note_off_c, 1, 56, 0
1, 44760, Note_on_c, 1, 73, 127
1, 44760, Note_on_c, 1, 66, 127
1, 44760, Note_on_c, 1, 57, 127
1, 44760, Note_on_c, 1, 45, 127
1, 44819, Note_off_c, 1, 73, 0
1, 44819, Note_off_c, 1, 66, 0
1, 44819, Note_off_c, 1, 57, 0
1, 44819, Note_off_c, 1, 45, 0
1, 44820, Note_on_c, 1, 66, 127
1, 44820, Note_on_c, 1, 57, 127
1, 44820, Note_on_c, 1, 50, 127
1, 44879, Note_off_c, 1, 66, 0
1, 44879, Note_off_c, 1, 57, 0
1, 44879, Note_off_c, 1, 50, 0
1, 44880, Note_on_c, 1, 69, 127
1, 44880, Note_on_c, 1, 62, 127
1, 44880, Note_on_c, 1, 59, 127
1, 44880, Note_on_c, 1, 47, 127
1, 44909, Note_off_c, 1, 69, 0
1, 44910, Note_on_c, 1, 68, 127
1, 44939, Note_off_c, 1, 62, 0
1, 44939, Note_off_c, 1, 59, 0
1, 44939, Note_off_c, 1, 47, 0
1, 44939, Note_off_c, 1, 68, 0
1, 44940, Note_on_c, 1, 66, 127
1, 44940, Note_on_c, 1, 61, 127
1, 44940, Note_on_c, 1, 57, 127
1, 44940, Note_on_c, 1, 49, 127
1, 44969, Note_off_c, 1, 66, 0
1, 44969, Note_off_c, 1, 57, 0
1, 44970, Note_on_c, 1, 65, 127
1, 44970, Note_on_c, 1, 59, 127
1, 44970, Note_on_c, 1, 56, 127
1, 44999, Note_off_c, 1, 61, 0
1, 44999, Note_off_c, 1, 49, 0
1, 44999, Note_off_c, 1, 65, 0
1, 44999, Note_off_c, 1, 59, 0
1, 44999, Note_off_c, 1, 56, 0
1, 45000, Note_on_c, 1, 66, 127
1, 45000, Note_on_c, 1, 57, 127
1, 45000, Note_on_c, 1, 61, 127
1, 45000, Note_on_c, 1, 42, 127
1, 45119, Note_off_c, 1, 66, 0
1, 45119, Note_off_c, 1, 57, 0
1, 45119, Note_off_c, 1, 61, 0
1, 45119, Note_off_c, 1, 42, 0
1, 45360, Note_on_c, 1, 76, 127
1, 45360, Note_on_c, 1, 73, 127
1, 45360, Note_on_c, 1, 69, 127
1, 45360, Note_on_c, 1, 45, 127
1, 45407, Note_off_c, 1, 76, 0
1, 45407, Note_off_c, 1, 73, 0
1, 45407, Note_off_c, 1, 69, 0
1, 45407, Note_off_c, 1, 45, 0
1, 45420, Note_on_c, 1, 61, 127
1, 45420, Note_on_c, 1, 57, 127
1, 45420, Note_on_c, 1, 73, 127
1, 45420, Note_on_c, 1, 69, 127
1, 45420, Note_on_c, 1, 64, 127
1, 45449, Note_off_c, 1, 61, 0
1, 45450, Note_on_c, 1, 62, 127
1, 45450, Note_on_c, 1, 59, 127
1, 45467, Note_off_c, 1, 57, 0
1, 45467, Note_off_c, 1, 73, 0
1, 45467, Note_off_c, 1, 69, 0
1, 45467, Note_off_c, 1, 64, 0
1, 45479, Note_off_c, 1, 62, 0
1, 45479, Note_off_c, 1, 59, 0
1, 45480, Note_on_c, 1, 64, 127
1, 45480, Note_on_c, 1, 61, 127
1, 45480, Note_on_c, 1, 57, 127
1, 45527, Note_off_c, 1, 57, 0
1, 45539, Note_off_c, 1, 64, 0
1, 45539, Note_off_c, 1, 61, 0
1, 45540, Note_on_c, 1, 64, 127
1, 45540, Note_on_c, 1, 61, 127
1, 45540, Note_on_c, 1, 57, 127
1, 45587, Note_off_c, 1, 57, 0
1, 45599, Note_off_c, 1, 64, 0
1, 45599, Note_off_c, 1, 61, 0
1, 45600, Note_on_c, 1, 66, 127
1, 45600, Note_on_c, 1, 62, 127
1, 45600, Note_on_c, 1, 57, 127
1, 45629, Note_off_c, 1, 66, 0
1, 45629, Note_off_c, 1, 62, 0
1, 45630, Note_on_c, 1, 64, 127
1, 45630, Note_on_c, 1, 61, 127
1, 45647, Note_off_c, 1, 57, 0
1, 45659, Note_off_c, 1, 64, 0
1, 45659, Note_off_c, 1, 61, 0
1, 45660, Note_on_c, 1, 62, 127
1, 45660, Note_on_c, 1, 59, 127
1, 45660, Note_on_c, 1, 57, 127
1, 45689, Note_off_c, 1, 62, 0
1, 45689, Note_off_c, 1, 59, 0
1, 45690, Note_on_c, 1, 66, 127
1, 45707, Note_off_c, 1, 57, 0
1, 45719, Note_off_c, 1, 66, 0
1, 45720, Note_on_c, 1, 64, 127
1, 45720, Note_on_c, 1, 61, 127
1, 45720, Note_on_c, 1, 57, 127
1, 45750, Note_on_c, 1, 76, 127
1, 45750, Note_on_c, 1, 73, 127
1, 45750, Note_on_c, 1, 69, 127
1, 45767, Note_off_c, 1, 57, 0
1, 45773, Note_off_c, 1, 76, 0
1, 45773, Note_off_c, 1, 73, 0
1, 45773, Note_off_c, 1, 69, 0
1, 45779, Note_off_c, 1, 64, 0
1, 45779, Note_off_c, 1, 61, 0
1, 45780, Note_on_c, 1, 81, 127
1, 45780, Note_on_c, 1, 76, 127
1, 45780, Note_on_c, 1, 73, 127
1, 45780, Note_on_c, 1, 45, 127
1, 45803, Note_off_c, 1, 81, 0
1, 45803, Note_off_c, 1, 76, 0
1, 45803, Note_off_c, 1, 73, 0
1, 45810, Note_on_c, 1, 69, 127
1, 45827, Note_off_c, 1, 45, 0
1, 45833, Note_off_c, 1, 69, 0
1, 45840, Note_on_c, 1, 69, 127
1, 45840, Note_on_c, 1, 64, 127
1, 45840, Note_on_c, 1, 73, 127
1, 45840, Note_on_c, 1, 45, 127
1, 45863, Note_off_c, 1, 73, 0
1, 45869, Note_off_c, 1, 69, 0
1, 45869, Note_off_c, 1, 64, 0
1, 45870, Note_on_c, 1, 76, 127
1, 45887, Note_off_c, 1, 45, 0
1, 45893, Note_off_c, 1, 76, 0
1, 45900, Note_on_c, 1, 69, 127
1, 45900, Note_on_c, 1, 64, 127
1, 45900, Note_on_c, 1, 61, 127
1, 45900, Note_on_c, 1, 49, 127
1, 45923, Note_off_c, 1, 69, 0
1, 45923, Note_off_c, 1, 64, 0
1, 45923, Note_off_c, 1, 61, 0
1, 45930, Note_on_c, 1, 73, 127
1, 45947, Note_off_c, 1, 49, 0
1, 45953, Note_off_c, 1, 73, 0
1, 45960, Note_on_c, 1, 71, 127
1, 45960, Note_on_c, 1, 68, 127
1, 45960, Note_on_c, 1, 59, 127
1, 45960, Note_on_c, 1, 52, 127
1, 45989, Note_off_c, 1, 71, 0
1, 45989, Note_off_c, 1, 68, 0
1, 45990, Note_on_c, 1, 74, 127
1, 46007, Note_off_c, 1, 59, 0
1, 46007, Note_off_c, 1, 52, 0
1, 46013, Note_off_c, 1, 74, 0
1, 46020, Note_on_c, 1, 73, 127
1, 46020, Note_on_c, 1, 68, 127
1, 46020, Note_on_c, 1, 64, 127
1, 46020, Note_on_c, 1, 40, 127
1, 46043, Note_off_c, 1, 73, 0
1, 46050, Note_on_c, 1, 71, 127
1, 46067, Note_off_c, 1, 68, 0
1, 46067, Note_off_c, 1, 64, 0
1, 46067, Note_off_c, 1, 40, 0
1, 46073, Note_off_c, 1, 71, 0
1, 46080, Note_on_c, 1, 73, 127
1, 46080, Note_on_c, 1, 69, 127
1, 46080, Note_on_c, 1, 64, 127
1, 46080, Note_on_c, 1, 45, 127
1, 46127, Note_off_c, 1, 64, 0
1, 46127, Note_off_c, 1, 45, 0
1, 46139, Note_off_c, 1, 73, 0
1, 46139, Note_off_c, 1, 69, 0
1, 46140, Note_on_c, 1, 69, 127
1, 46140, Note_on_c, 1, 61, 127
1, 46140, Note_on_c, 1, 64, 127
1, 46140, Note_on_c, 1, 57, 127
1, 46170, Note_on_c, 1, 71, 127
1, 46170, Note_on_c, 1, 62, 127
1, 46187, Note_off_c, 1, 69, 0
1, 46187, Note_off_c, 1, 61, 0
1, 46187, Note_off_c, 1, 64, 0
1, 46187, Note_off_c, 1, 57, 0
1, 46199, Note_off_c, 1, 71, 0
1, 46199, Note_off_c, 1, 62, 0
1, 46200, Note_on_c, 1, 73, 127
1, 46200, Note_on_c, 1, 64, 127
1, 46200, Note_on_c, 1, 57, 127
1, 46229, Note_off_c, 1, 73, 0
1, 46229, Note_off_c, 1, 64, 0
1, 46230, Note_on_c, 1, 74, 127
1, 46230, Note_on_c, 1, 66, 127
1, 46247, Note_off_c, 1, 57, 0
1, 46259, Note_off_c, 1, 74, 0
1, 46259, Note_off_c, 1, 66, 0
1, 46260, Note_on_c, 1, 71, 127
1, 46260, Note_on_c, 1, 62, 127
1, 46260, Note_on_c, 1, 57, 127
1, 46289, Note_off_c, 1, 71, 0
1, 46289, Note_off_c, 1, 62, 0
1, 46290, Note_on_c, 1, 73, 127
1, 46290, Note_on_c, 1, 64, 127
1, 46307, Note_off_c, 1, 57, 0
1, 46319, Note_off_c, 1, 73, 0
1, 46319, Note_off_c, 1, 64, 0
1, 46320, Note_on_c, 1, 74, 127
1, 46320, Note_on_c, 1, 66, 127
1, 46320, Note_on_c, 1, 57, 127
1, 46349, Note_off_c, 1, 74, 0
1, 46349, Note_off_c, 1, 66, 0
1, 46350, Note_on_c, 1, 73, 127
1, 46350, Note_on_c, 1, 64, 127
1, 46367, Note_off_c, 1, 57, 0
1, 46379, Note_off_c, 1, 73, 0
1, 46379, Note_off_c, 1, 64, 0
1, 46380, Note_on_c, 1, 71, 127
1, 46380, Note_on_c, 1, 62, 127
1, 46380, Note_on_c, 1, 57, 127
1, 46409, Note_off_c, 1, 71, 0
1, 46409, Note_off_c, 1, 62, 0
1, 46410, Note_on_c, 1, 74, 127
1, 46410, Note_on_c, 1, 66, 127
1, 46427, Note_off_c, 1, 57, 0
1, 46439, Note_off_c, 1, 74, 0
1, 46439, Note_off_c, 1, 66, 0
1, 46440, Note_on_c, 1, 73, 127
1, 46440, Note_on_c, 1, 64, 127
1, 46440, Note_on_c, 1, 57, 127
1, 46470, Note_on_c, 1, 69, 127
1, 46487, Note_off_c, 1, 57, 0
1, 46493, Note_off_c, 1, 69, 0
1, 46499, Note_off_c, 1, 73, 0
1, 46499, Note_off_c, 1, 64, 0
1, 46500, Note_on_c, 1, 76, 127
1, 46500, Note_on_c, 1, 73, 127
1, 46500, Note_on_c, 1, 69, 127
1, 46500, Note_on_c, 1, 45, 127
1, 46523, Note_off_c, 1, 76, 0
1, 46523, Note_off_c, 1, 73, 0
1, 46523, Note_off_c, 1, 69, 0
1, 46530, Note_on_c, 1, 64, 127
1, 46547, Note_off_c, 1, 45, 0
1, 46553, Note_off_c, 1, 64, 0
1, 46560, Note_on_c, 1, 76, 127
1, 46560, Note_on_c, 1, 69, 127
1, 46560, Note_on_c, 1, 64, 127
1, 46560, Note_on_c, 1, 61, 127
1, 46560, Note_on_c, 1, 45, 127
1, 46583, Note_off_c, 1, 64, 0
1, 46583, Note_off_c, 1, 61, 0
1, 46589, Note_off_c, 1, 76, 0
1, 46589, Note_off_c, 1, 69, 0
1, 46590, Note_on_c, 1, 73, 127
1, 46607, Note_off_c, 1, 45, 0
1, 46613, Note_off_c, 1, 73, 0
1, 46620, Note_on_c, 1, 64, 127
1, 46620, Note_on_c, 1, 61, 127
1, 46620, Note_on_c, 1, 57, 127
1, 46620, Note_on_c, 1, 49, 127
1, 46643, Note_off_c, 1, 64, 0
1, 46643, Note_off_c, 1, 61, 0
1, 46643, Note_off_c, 1, 57, 0
1, 46650, Note_on_c, 1, 69, 127
1, 46667, Note_off_c, 1, 49, 0
1, 46673, Note_off_c, 1, 69, 0
1, 46680, Note_on_c, 1, 80, 127
1, 46680, Note_on_c, 1, 71, 127
1, 46680, Note_on_c, 1, 62, 127
1, 46680, Note_on_c, 1, 59, 127
1, 46680, Note_on_c, 1, 56, 127
1, 46680, Note_on_c, 1, 52, 127
1, 46703, Note_off_c, 1, 62, 0
1, 46709, Note_off_c, 1, 80, 0
1, 46709, Note_off_c, 1, 71, 0
1, 46710, Note_on_c, 1, 66, 127
1, 46727, Note_off_c, 1, 59, 0
1, 46727, Note_off_c, 1, 56, 0
1, 46727, Note_off_c, 1, 52, 0
1, 46733, Note_off_c, 1, 66, 0
1, 46740, Note_on_c, 1, 64, 127
1, 46740, Note_on_c, 1, 59, 127
1, 46740, Note_on_c, 1, 56, 127
1, 46740, Note_on_c, 1, 40, 127
1, 46763, Note_off_c, 1, 64, 0
1, 46770, Note_on_c, 1, 62, 127
1, 46787, Note_off_c, 1, 59, 0
1, 46787, Note_off_c, 1, 56, 0
1, 46787, Note_off_c, 1, 40, 0
1, 46793, Note_off_c, 1, 62, 0
1, 46800, Note_on_c, 1, 81, 127
1, 46800, Note_on_c, 1, 73, 127
1, 46800, Note_on_c, 1, 61, 127
1, 46800, Note_on_c, 1, 57, 127
1, 46800, Note_on_c, 1, 52, 127
1, 46800, Note_on_c, 1, 45, 127
1, 46823, Note_off_c, 1, 61, 0
1, 46830, Note_on_c, 1, 64, 127
1, 46847, Note_off_c, 1, 57, 0
1, 46847, Note_off_c, 1, 52, 0
1, 46847, Note_off_c, 1, 45, 0
1, 46853, Note_off_c, 1, 64, 0
1, 46859, Note_off_c, 1, 73, 0
1, 46860, Note_on_c, 1, 69, 127
1, 46883, Note_off_c, 1, 69, 0
1, 46919, Note_off_c, 1, 81, 0
1, 46920, Note_on_c, 1, 76, 127
1, 46980, Note_on_c, 1, 49, 127
1, 47027, Note_off_c, 1, 49, 0
1, 47100, Note_on_c, 1, 67, 127
1, 47159, Note_off_c, 1, 67, 0
1, 47160, Note_on_c, 1, 66, 127
1, 47160, Note_on_c, 1, 50, 127
1, 47207, Note_off_c, 1, 50, 0
1, 47219, Note_off_c, 1, 76, 0
1, 47220, Note_on_c, 1, 74, 127
1, 47220, Note_on_c, 1, 62, 127
1, 47243, Note_off_c, 1, 74, 0
1, 47267, Note_off_c, 1, 62, 0
1, 47340, Note_on_c, 1, 54, 127
1, 47387, Note_off_c, 1, 54, 0
1, 47460, Note_on_c, 1, 78, 127
1, 47519, Note_off_c, 1, 78, 0
1, 47520, Note_on_c, 1, 71, 127
1, 47520, Note_on_c, 1, 59, 127
1, 47520, Note_on_c, 1, 51, 127
1, 47567, Note_off_c, 1, 59, 0
1, 47567, Note_off_c, 1, 51, 0
1, 47580, Note_on_c, 1, 63, 127
1, 47580, Note_on_c, 1, 75, 127
1, 47580, Note_on_c, 1, 47, 127
1, 47603, Note_off_c, 1, 75, 0
1, 47627, Note_off_c, 1, 66, 0
1, 47627, Note_off_c, 1, 47, 0
1, 47699, Note_off_c, 1, 63, 0
1, 47880, Note_on_c, 1, 68, 127
1, 47940, Note_off_c, 1, 71, 0
1, 48060, Note_on_c, 1, 56, 127
1, 48107, Note_off_c, 1, 56, 0
1, 48240, Note_on_c, 1, 40, 127
1, 48270, Note_on_c, 1, 80, 127
1, 48287, Note_off_c, 1, 40, 0
1, 48293, Note_off_c, 1, 80, 0
1, 48300, Note_on_c, 1, 83, 127
1, 48323, Note_off_c, 1, 83, 0
1, 48335, Note_off_c, 1, 68, 0
1, 48780, Note_on_c, 1, 79, 127
1, 48780, Note_on_c, 1, 76, 127
1, 48780, Note_on_c, 1, 81, 127
1, 48780, Note_on_c, 1, 73, 127
1, 48780, Note_on_c, 1, 64, 127
1, 48780, Note_on_c, 1, 57, 127
1, 48803, Note_off_c, 1, 81, 0
1, 48810, Note_on_c, 1, 85, 127
1, 48827, Note_off_c, 1, 73, 0
1, 48827, Note_off_c, 1, 64, 0
1, 48827, Note_off_c, 1, 57, 0
1, 48833, Note_off_c, 1, 85, 0
1, 48840, Note_on_c, 1, 88, 127
1, 48840, Note_on_c, 1, 69, 127
1, 48840, Note_on_c, 1, 61, 127
1, 48863, Note_off_c, 1, 88, 0
1, 48887, Note_off_c, 1, 69, 0
1, 48887, Note_off_c, 1, 61, 0
1, 48899, Note_off_c, 1, 79, 0
1, 48899, Note_off_c, 1, 76, 0
1, 48900, Note_on_c, 1, 78, 127
1, 48900, Note_on_c, 1, 74, 127
1, 48900, Note_on_c, 1, 69, 127
1, 48900, Note_on_c, 1, 57, 127
1, 48929, Note_off_c, 1, 78, 0
1, 48929, Note_off_c, 1, 74, 0
1, 48930, Note_on_c, 1, 76, 127
1, 48930, Note_on_c, 1, 73, 127
1, 48947, Note_off_c, 1, 69, 0
1, 48947, Note_off_c, 1, 57, 0
1, 48959, Note_off_c, 1, 76, 0
1, 48959, Note_off_c, 1, 73, 0
1, 48960, Note_on_c, 1, 78, 127
1, 48960, Note_on_c, 1, 74, 127
1, 48960, Note_on_c, 1, 69, 127
1, 48960, Note_on_c, 1, 66, 127
1, 48960, Note_on_c, 1, 62, 127
1, 49007, Note_off_c, 1, 69, 0
1, 49007, Note_off_c, 1, 66, 0
1, 49007, Note_off_c, 1, 62, 0
1, 49019, Note_off_c, 1, 78, 0
1, 49019, Note_off_c, 1, 74, 0
1, 49020, Note_on_c, 1, 74, 127
1, 49020, Note_on_c, 1, 69, 127
1, 49020, Note_on_c, 1, 54, 127
1, 49067, Note_off_c, 1, 54, 0
1, 49080, Note_on_c, 1, 78, 127
1, 49103, Note_off_c, 1, 78, 0
1, 49139, Note_off_c, 1, 74, 0
1, 49139, Note_off_c, 1, 69, 0
1, 49140, Note_on_c, 1, 78, 127
1, 49140, Note_on_c, 1, 74, 127
1, 49140, Note_on_c, 1, 69, 127
1, 49140, Note_on_c, 1, 66, 127
1, 49140, Note_on_c, 1, 50, 127
1, 49170, Note_on_c, 1, 81, 127
1, 49187, Note_off_c, 1, 69, 0
1, 49187, Note_off_c, 1, 66, 0
1, 49187, Note_off_c, 1, 50, 0
1, 49193, Note_off_c, 1, 81, 0
1, 49200, Note_on_c, 1, 86, 127
1, 49223, Note_off_c, 1, 86, 0
1, 49259, Note_off_c, 1, 78, 0
1, 49259, Note_off_c, 1, 74, 0
1, 49260, Note_on_c, 1, 76, 127
1, 49260, Note_on_c, 1, 73, 127
1, 49260, Note_on_c, 1, 69, 127
1, 49260, Note_on_c, 1, 57, 127
1, 49289, Note_off_c, 1, 76, 0
1, 49289, Note_off_c, 1, 73, 0
1, 49290, Note_on_c, 1, 74, 127
1, 49290, Note_on_c, 1, 71, 127
1, 49307, Note_off_c, 1, 69, 0
1, 49307, Note_off_c, 1, 57, 0
1, 49319, Note_off_c, 1, 74, 0
1, 49319, Note_off_c, 1, 71, 0
1, 49320, Note_on_c, 1, 76, 127
1, 49320, Note_on_c, 1, 73, 127
1, 49320, Note_on_c, 1, 69, 127
1, 49320, Note_on_c, 1, 61, 127
1, 49320, Note_on_c, 1, 57, 127
1, 49367, Note_off_c, 1, 69, 0
1, 49367, Note_off_c, 1, 61, 0
1, 49367, Note_off_c, 1, 57, 0
1, 49379, Note_off_c, 1, 76, 0
1, 49379, Note_off_c, 1, 73, 0
1, 49380, Note_on_c, 1, 73, 127
1, 49380, Note_on_c, 1, 69, 127
1, 49380, Note_on_c, 1, 64, 127
1, 49380, Note_on_c, 1, 45, 127
1, 49427, Note_off_c, 1, 64, 0
1, 49427, Note_off_c, 1, 45, 0
1, 49440, Note_on_c, 1, 76, 127
1, 49463, Note_off_c, 1, 76, 0
1, 49499, Note_off_c, 1, 73, 0
1, 49499, Note_off_c, 1, 69, 0
1, 49500, Note_on_c, 1, 76, 127
1, 49500, Note_on_c, 1, 73, 127
1, 49500, Note_on_c, 1, 69, 127
1, 49500, Note_on_c, 1, 42, 127
1, 49530, Note_on_c, 1, 81, 127
1, 49547, Note_off_c, 1, 69, 0
1, 49547, Note_off_c, 1, 42, 0
1, 49553, Note_off_c, 1, 81, 0
1, 49560, Note_on_c, 1, 85, 127
1, 49560, Note_on_c, 1, 66, 127
1, 49583, Note_off_c, 1, 85, 0
1, 49607, Note_off_c, 1, 66, 0
1, 49619, Note_off_c, 1, 76, 0
1, 49619, Note_off_c, 1, 73, 0
1, 49620, Note_on_c, 1, 74, 127
1, 49620, Note_on_c, 1, 71, 127
1, 49620, Note_on_c, 1, 69, 127
1, 49620, Note_on_c, 1, 66, 127
1, 49620, Note_on_c, 1, 47, 127
1, 49649, Note_off_c, 1, 74, 0
1, 49649, Note_off_c, 1, 71, 0
1, 49650, Note_on_c, 1, 73, 127
1, 49667, Note_off_c, 1, 66, 0
1, 49667, Note_off_c, 1, 47, 0
1, 49679, Note_off_c, 1, 69, 0
1, 49679, Note_off_c, 1, 73, 0
1, 49680, Note_on_c, 1, 74, 127
1, 49680, Note_on_c, 1, 71, 127
1, 49680, Note_on_c, 1, 66, 127
1, 49680, Note_on_c, 1, 62, 127
1, 49680, Note_on_c, 1, 47, 127
1, 49727, Note_off_c, 1, 66, 0
1, 49727, Note_off_c, 1, 62, 0
1, 49727, Note_off_c, 1, 47, 0
1, 49739, Note_off_c, 1, 74, 0
1, 49739, Note_off_c, 1, 71, 0
1, 49740, Note_on_c, 1, 71, 127
1, 49740, Note_on_c, 1, 68, 127
1, 49740, Note_on_c, 1, 64, 127
1, 49740, Note_on_c, 1, 52, 127
1, 49787, Note_off_c, 1, 64, 0
1, 49787, Note_off_c, 1, 52, 0
1, 49800, Note_on_c, 1, 74, 127
1, 49823, Note_off_c, 1, 74, 0
1, 49859, Note_off_c, 1, 71, 0
1, 49859, Note_off_c, 1, 68, 0
1, 49860, Note_on_c, 1, 74, 127
1, 49860, Note_on_c, 1, 71, 127
1, 49860, Note_on_c, 1, 64, 127
1, 49860, Note_on_c, 1, 59, 127
1, 49860, Note_on_c, 1, 44, 127
1, 49890, Note_on_c, 1, 80, 127
1, 49907, Note_off_c, 1, 64, 0
1, 49907, Note_off_c, 1, 59, 0
1, 49907, Note_off_c, 1, 44, 0
1, 49913, Note_off_c, 1, 80, 0
1, 49920, Note_on_c, 1, 83, 127
1, 49943, Note_off_c, 1, 83, 0
1, 49979, Note_off_c, 1, 74, 0
1, 49979, Note_off_c, 1, 71, 0
1, 49980, Note_on_c, 1, 73, 127
1, 49980, Note_on_c, 1, 69, 127
1, 49980, Note_on_c, 1, 66, 127
1, 49980, Note_on_c, 1, 64, 127
1, 49980, Note_on_c, 1, 40, 127
1, 50003, Note_off_c, 1, 66, 0
1, 50009, Note_off_c, 1, 73, 0
1, 50009, Note_off_c, 1, 69, 0
1, 50010, Note_on_c, 1, 71, 127
1, 50010, Note_on_c, 1, 68, 127
1, 50027, Note_off_c, 1, 64, 0
1, 50027, Note_off_c, 1, 40, 0
1, 50039, Note_off_c, 1, 71, 0
1, 50039, Note_off_c, 1, 68, 0
1, 50040, Note_on_c, 1, 73, 127
1, 50040, Note_on_c, 1, 69, 127
1, 50040, Note_on_c, 1, 64, 127
1, 50040, Note_on_c, 1, 45, 127
1, 50069, Note_off_c, 1, 73, 0
1, 50087, Note_off_c, 1, 64, 0
1, 50087, Note_off_c, 1, 45, 0
1, 50100, Note_on_c, 1, 71, 127
1, 50100, Note_on_c, 1, 44, 127
1, 50123, Note_off_c, 1, 71, 0
1, 50123, Note_off_c, 1, 44, 0
1, 50160, Note_on_c, 1, 74, 127
1, 50160, Note_on_c, 1, 66, 127
1, 50160, Note_on_c, 1, 62, 127
1, 50160, Note_on_c, 1, 47, 127
1, 50189, Note_off_c, 1, 74, 0
1, 50207, Note_off_c, 1, 66, 0
1, 50207, Note_off_c, 1, 62, 0
1, 50207, Note_off_c, 1, 47, 0
1, 50280, Note_on_c, 1, 76, 127
1, 50280, Note_on_c, 1, 57, 127
1, 50280, Note_on_c, 1, 49, 127
1, 50309, Note_off_c, 1, 76, 0
1, 50327, Note_off_c, 1, 57, 0
1, 50327, Note_off_c, 1, 49, 0
1, 50400, Note_on_c, 1, 78, 127
1, 50400, Note_on_c, 1, 50, 127
1, 50429, Note_off_c, 1, 78, 0
1, 50447, Note_off_c, 1, 50, 0
1, 50460, Note_off_c, 1, 69, 0
1, 50520, Note_on_c, 1, 80, 127
1, 50520, Note_on_c, 1, 68, 127
1, 50520, Note_on_c, 1, 52, 127
1, 50549, Note_off_c, 1, 80, 0
1, 50567, Note_off_c, 1, 68, 0
1, 50567, Note_off_c, 1, 52, 0
1, 50640, Note_on_c, 1, 81, 127
1, 50640, Note_on_c, 1, 61, 127
1, 50640, Note_on_c, 1, 54, 127
1, 50669, Note_off_c, 1, 81, 0
1, 50687, Note_off_c, 1, 61, 0
1, 50687, Note_off_c, 1, 54, 0
1, 50760, Note_on_c, 1, 83, 127
1, 50760, Note_on_c, 1, 59, 127
1, 50760, Note_on_c, 1, 56, 127
1, 50789, Note_off_c, 1, 83, 0
1, 50807, Note_off_c, 1, 59, 0
1, 50807, Note_off_c, 1, 56, 0
1, 51060, Note_on_c, 1, 40, 127
1, 51107, Note_off_c, 1, 40, 0
1, 51660, Note_on_c, 1, 55, 127
1, 51720, Note_off_c, 1, 55, 0
1, 52800, Note_on_c, 1, 74, 127
1, 52800, Note_on_c, 1, 66, 127
1, 52800, Note_on_c, 1, 44, 127
1, 52800, Note_on_c, 1, 56, 127
1, 52829, Note_off_c, 1, 74, 0
1, 52829, Note_off_c, 1, 66, 0
1, 52830, Note_on_c, 1, 73, 127
1, 52830, Note_on_c, 1, 64, 127
1, 52847, Note_off_c, 1, 44, 0
1, 52847, Note_off_c, 1, 56, 0
1, 52859, Note_off_c, 1, 73, 0
1, 52859, Note_off_c, 1, 64, 0
1, 52860, Note_on_c, 1, 71, 127
1, 52860, Note_on_c, 1, 62, 127
1, 52860, Note_on_c, 1, 45, 127
1, 52860, Note_on_c, 1, 57, 127
1, 52889, Note_off_c, 1, 71, 0
1, 52889, Note_off_c, 1, 62, 0
1, 52890, Note_on_c, 1, 69, 127
1, 52890, Note_on_c, 1, 61, 127
1, 52907, Note_off_c, 1, 45, 0
1, 52907, Note_off_c, 1, 57, 0
1, 52919, Note_off_c, 1, 69, 0
1, 52919, Note_off_c, 1, 61, 0
1, 52920, Note_on_c, 1, 68, 127
1, 52920, Note_on_c, 1, 59, 127
1, 52920, Note_on_c, 1, 71, 127
1, 52920, Note_on_c, 1, 52, 127
1, 52967, Note_off_c, 1, 52, 0
1, 52979, Note_off_c, 1, 59, 0
1, 52980, Note_on_c, 1, 64, 127
1, 52980, Note_on_c, 1, 56, 127
1, 52980, Note_on_c, 1, 40, 127
1, 53010, Note_off_c, 1, 64, 0
1, 53010, Note_off_c, 1, 56, 0
1, 53010, Note_on_c, 1, 66, 127
1, 53010, Note_on_c, 1, 57, 127
1, 53027, Note_off_c, 1, 40, 0
1, 53040, Note_off_c, 1, 66, 0
1, 53040, Note_off_c, 1, 57, 0
1, 53160, Note_off_c, 1, 68, 0
1, 53160, Note_off_c, 1, 71, 0
1, 53160, Note_on_c, 1, 69, 127
1, 53160, Note_on_c, 1, 61, 127
1, 53160, Note_on_c, 1, 73, 127
1, 53190, Note_off_c, 1, 61, 0
1, 53280, Note_off_c, 1, 69, 0
1, 53280, Note_off_c, 1, 73, 0
1, 53370, Note_on_c, 1, 54, 127
1, 53400, Note_off_c, 1, 54, 0
1, 53580, Note_on_c, 1, 45, 127
1, 53627, Note_off_c, 1, 45, 0
1, 53700, Note_on_c, 1, 76, 127
1, 53729, Note_off_c, 1, 76, 0
1, 53730, Note_on_c, 1, 78, 127
1, 53759, Note_off_c, 1, 78, 0
1, 53760, Note_on_c, 1, 80, 127
1, 53819, Note_off_c, 1, 80, 0
1, 53880, Note_on_c, 1, 81, 127
1, 53909, Note_off_c, 1, 81, 0
1, 53940, Note_on_c, 1, 78, 127
1, 53940, Note_on_c, 1, 69, 127
1, 53940, Note_on_c, 1, 40, 127
1, 53969, Note_off_c, 1, 78, 0
1, 53969, Note_off_c, 1, 69, 0
1, 53970, Note_on_c, 1, 81, 127
1, 53970, Note_on_c, 1, 73, 127
1, 53987, Note_off_c, 1, 40, 0
1, 53999, Note_off_c, 1, 81, 0
1, 53999, Note_off_c, 1, 73, 0
1, 54000, Note_on_c, 1, 80, 127
1, 54000, Note_on_c, 1, 71, 127
1, 54000, Note_on_c, 1, 68, 127
1, 54000, Note_on_c, 1, 64, 127
1, 54000, Note_on_c, 1, 52, 127
1, 54000, Note_on_c, 1, 40, 127
1, 54047, Note_off_c, 1, 40, 0
1, 54059, Note_off_c, 1, 80, 0
1, 54060, Note_on_c, 1, 76, 127
1, 54083, Note_off_c, 1, 76, 0
1, 54120, Note_off_c, 1, 71, 0
1, 54120, Note_on_c, 1, 83, 127
1, 54120, Note_on_c, 1, 59, 127
1, 54149, Note_off_c, 1, 64, 0
1, 54149, Note_off_c, 1, 83, 0
1, 54180, Note_off_c, 1, 52, 0
1, 54180, Note_on_c, 1, 56, 127
1, 54203, Note_off_c, 1, 59, 0
1, 54240, Note_off_c, 1, 68, 0
1, 54240, Note_off_c, 1, 56, 0
1, 54240, Note_on_c, 1, 75, 127
1, 54240, Note_on_c, 1, 66, 127
1, 54240, Note_on_c, 1, 63, 127
1, 54240, Note_on_c, 1, 54, 127
1, 54269, Note_off_c, 1, 75, 0
1, 54270, Note_on_c, 1, 69, 127
1, 54287, Note_off_c, 1, 54, 0
1, 54293, Note_off_c, 1, 69, 0
1, 54300, Note_on_c, 1, 47, 127
1, 54360, Note_off_c, 1, 66, 0
1, 54360, Note_off_c, 1, 63, 0
1, 54360, Note_off_c, 1, 47, 0
1, 54450, Note_on_c, 1, 73, 127
1, 54479, Note_off_c, 1, 73, 0
1, 54480, Note_on_c, 1, 74, 127
1, 54509, Note_off_c, 1, 74, 0
1, 54540, Note_on_c, 1, 50, 127
1, 54587, Note_off_c, 1, 50, 0
1, 54600, Note_on_c, 1, 76, 127
1, 54600, Note_on_c, 1, 73, 127
1, 54600, Note_on_c, 1, 49, 127
1, 54629, Note_off_c, 1, 76, 0
1, 54629, Note_off_c, 1, 73, 0
1, 54630, Note_on_c, 1, 74, 127
1, 54630, Note_on_c, 1, 71, 127
1, 54647, Note_off_c, 1, 49, 0
1, 54659, Note_off_c, 1, 74, 0
1, 54659, Note_off_c, 1, 71, 0
1, 54660, Note_on_c, 1, 73, 127
1, 54660, Note_on_c, 1, 69, 127
1, 54660, Note_on_c, 1, 52, 127
1, 54689, Note_off_c, 1, 73, 0
1, 54689, Note_off_c, 1, 69, 0
1, 54690, Note_on_c, 1, 71, 127
1, 54690, Note_on_c, 1, 68, 127
1, 54707, Note_off_c, 1, 52, 0
1, 54719, Note_off_c, 1, 71, 0
1, 54719, Note_off_c, 1, 68, 0
1, 54720, Note_on_c, 1, 69, 127
1, 54720, Note_on_c, 1, 66, 127
1, 54720, Note_on_c, 1, 61, 127
1, 54720, Note_on_c, 1, 54, 127
1, 54767, Note_off_c, 1, 54, 0
1, 54779, Note_off_c, 1, 69, 0
1, 54780, Note_on_c, 1, 57, 127
1, 54780, Note_on_c, 1, 42, 127
1, 54810, Note_off_c, 1, 57, 0
1, 54810, Note_on_c, 1, 59, 127
1, 54810, Note_on_c, 1, 56, 127
1, 54827, Note_off_c, 1, 42, 0
1, 54840, Note_off_c, 1, 59, 0
1, 54840, Note_off_c, 1, 56, 0
1, 54960, Note_off_c, 1, 66, 0
1, 54960, Note_off_c, 1, 61, 0
1, 54960, Note_on_c, 1, 62, 127
1, 54960, Note_on_c, 1, 52, 127
1, 55007, Note_off_c, 1, 52, 0
1, 55020, Note_on_c, 1, 50, 127
1, 55067, Note_off_c, 1, 50, 0
1, 55080, Note_off_c, 1, 62, 0
1, 55080, Note_on_c, 1, 64, 127
1, 55080, Note_on_c, 1, 49, 127
1, 55127, Note_off_c, 1, 49, 0
1, 55140, Note_on_c, 1, 73, 127
1, 55170, Note_off_c, 1, 73, 0
1, 55170, Note_on_c, 1, 74, 127
1, 55200, Note_off_c, 1, 74, 0
1, 55200, Note_on_c, 1, 76, 127
1, 55200, Note_on_c, 1, 68, 127
1, 55320, Note_off_c, 1, 64, 0
1, 55320, Note_off_c, 1, 76, 0
1, 55320, Note_off_c, 1, 68, 0
1, 55320, Note_on_c, 1, 78, 127
1, 55350, Note_off_c, 1, 78, 0
1, 55440, Note_on_c, 1, 80, 127
1, 55440, Note_on_c, 1, 71, 127
1, 55500, Note_off_c, 1, 80, 0
1, 55500, Note_off_c, 1, 71, 0
1, 55500, Note_on_c, 1, 40, 127
1, 55547, Note_off_c, 1, 40, 0
1, 55620, Note_on_c, 1, 69, 127
1, 55620, Note_on_c, 1, 61, 127
1, 55620, Note_on_c, 1, 54, 127
1, 55649, Note_off_c, 1, 69, 0
1, 55649, Note_off_c, 1, 61, 0
1, 55650, Note_on_c, 1, 71, 127
1, 55650, Note_on_c, 1, 62, 127
1, 55667, Note_off_c, 1, 54, 0
1, 55679, Note_off_c, 1, 71, 0
1, 55679, Note_off_c, 1, 62, 0
1, 55680, Note_on_c, 1, 73, 127
1, 55680, Note_on_c, 1, 64, 127
1, 55680, Note_on_c, 1, 49, 127
1, 55709, Note_off_c, 1, 73, 0
1, 55709, Note_off_c, 1, 64, 0
1, 55710, Note_on_c, 1, 71, 127
1, 55710, Note_on_c, 1, 62, 127
1, 55727, Note_off_c, 1, 49, 0
1, 55739, Note_off_c, 1, 71, 0
1, 55739, Note_off_c, 1, 62, 0
1, 55740, Note_on_c, 1, 69, 127
1, 55740, Note_on_c, 1, 61, 127
1, 55740, Note_on_c, 1, 52, 127
1, 55769, Note_off_c, 1, 69, 0
1, 55769, Note_off_c, 1, 61, 0
1, 55770, Note_on_c, 1, 68, 127
1, 55770, Note_on_c, 1, 59, 127
1, 55787, Note_off_c, 1, 52, 0
1, 55799, Note_off_c, 1, 68, 0
1, 55799, Note_off_c, 1, 59, 0
1, 55800, Note_on_c, 1, 69, 127
1, 55800, Note_on_c, 1, 61, 127
1, 55800, Note_on_c, 1, 81, 127
1, 55800, Note_on_c, 1, 73, 127
1, 55800, Note_on_c, 1, 64, 127
1, 55800, Note_on_c, 1, 57, 127
1, 55830, Note_on_c, 1, 76, 127
1, 55853, Note_off_c, 1, 76, 0
1, 55859, Note_off_c, 1, 69, 0
1, 55859, Note_off_c, 1, 61, 0
1, 55860, Note_off_c, 1, 64, 0
1, 55860, Note_on_c, 1, 45, 127
1, 55883, Note_off_c, 1, 81, 0
1, 55907, Note_off_c, 1, 45, 0
1, 55943, Note_off_c, 1, 73, 0
1, 55980, Note_off_c, 1, 57, 0
1, 55980, Note_on_c, 1, 49, 127
1, 56027, Note_off_c, 1, 49, 0
1, 56040, Note_on_c, 1, 80, 127
1, 56040, Note_on_c, 1, 71, 127
1, 56040, Note_on_c, 1, 68, 127
1, 56040, Note_on_c, 1, 59, 127
1, 56040, Note_on_c, 1, 52, 127
1, 56069, Note_off_c, 1, 80, 0
1, 56069, Note_off_c, 1, 71, 0
1, 56070, Note_on_c, 1, 74, 127
1, 56087, Note_off_c, 1, 59, 0
1, 56087, Note_off_c, 1, 52, 0
1, 56093, Note_off_c, 1, 74, 0
1, 56100, Note_on_c, 1, 40, 127
1, 56147, Note_off_c, 1, 40, 0
1, 56160, Note_off_c, 1, 68, 0
1, 56250, Note_on_c, 1, 62, 127
1, 56250, Note_on_c, 1, 56, 127
1, 56273, Note_off_c, 1, 56, 0
1, 56280, Note_off_c, 1, 62, 0
1, 56370, Note_on_c, 1, 47, 127
1, 56393, Note_off_c, 1, 47, 0
1, 56520, Note_on_c, 1, 66, 127
1, 56520, Note_on_c, 1, 50, 127
1, 56567, Note_off_c, 1, 50, 0
1, 56760, Note_off_c, 1, 66, 0
1, 56760, Note_on_c, 1, 44, 127
1, 56807, Note_off_c, 1, 44, 0
1, 56970, Note_on_c, 1, 54, 127
1, 56993, Note_off_c, 1, 54, 0
1, 57390, Note_on_c, 1, 63, 127
1, 57420, Note_off_c, 1, 63, 0
1, 57480, Note_on_c, 1, 51, 127
1, 57527, Note_off_c, 1, 51, 0
1, 57600, Note_on_c, 1, 78, 127
1, 57630, Note_off_c, 1, 78, 0
1, 58050, Note_on_c, 1, 42, 127
1, 58073, Note_off_c, 1, 42, 0
1, 59040, Note_on_c, 1, 71, 127
1, 59040, Note_on_c, 1, 80, 127
1, 59040, Note_on_c, 1, 76, 127
1, 59040, Note_on_c, 1, 59, 127
1, 59040, Note_on_c, 1, 68, 127
1, 59040, Note_on_c, 1, 64, 127
1, 59070, Note_off_c, 1, 80, 0
1, 59070, Note_off_c, 1, 76, 0
1, 59070, Note_off_c, 1, 59, 0
1, 59099, Note_off_c, 1, 71, 0
1, 59100, Note_on_c, 1, 52, 127
1, 59129, Note_off_c, 1, 52, 0
1, 59130, Note_on_c, 1, 69, 127
1, 59130, Note_on_c, 1, 54, 127
1, 59159, Note_off_c, 1, 69, 0
1, 59159, Note_off_c, 1, 54, 0
1, 59160, Note_on_c, 1, 56, 127
1, 59190, Note_on_c, 1, 73, 127
1, 59190, Note_on_c, 1, 57, 127
1, 59207, Note_off_c, 1, 56, 0
1, 59219, Note_off_c, 1, 73, 0
1, 59219, Note_off_c, 1, 57, 0
1, 59220, Note_on_c, 1, 74, 127
1, 59279, Note_off_c, 1, 74, 0
1, 59400, Note_off_c, 1, 68, 0
1, 59460, Note_on_c, 1, 66, 127
1, 59489, Note_off_c, 1, 66, 0
1, 59550, Note_on_c, 1, 75, 127
1, 59579, Note_off_c, 1, 75, 0
1, 59580, Note_on_c, 1, 61, 127
1, 59639, Note_off_c, 1, 61, 0
1, 59640, Note_off_c, 1, 64, 0
1, 59640, Note_on_c, 1, 78, 127
1, 59640, Note_on_c, 1, 51, 127
1, 59687, Note_off_c, 1, 51, 0
1, 59699, Note_off_c, 1, 78, 0
1, 59760, Note_on_c, 1, 63, 127
1, 59820, Note_on_c, 1, 83, 127
1, 59820, Note_on_c, 1, 47, 127
1, 59843, Note_off_c, 1, 83, 0
1, 59843, Note_off_c, 1, 47, 0
1, 59850, Note_on_c, 1, 49, 127
1, 59873, Note_off_c, 1, 49, 0
1, 60000, Note_off_c, 1, 63, 0
1, 60180, Note_on_c, 1, 40, 127
1, 60227, Note_off_c, 1, 40, 0
1, 60300, Note_on_c, 1, 44, 127
1, 60347, Note_off_c, 1, 44, 0
1, 60420, Note_on_c, 1, 62, 127
1, 60479, Note_off_c, 1, 62, 0
1, 60480, Note_on_c, 1, 45, 127
1, 60527, Note_off_c, 1, 45, 0
1, 60540, Note_on_c, 1, 81, 127
1, 60563, Note_off_c, 1, 81, 0
1, 60840, Note_on_c, 1, 58, 127
1, 60840, Note_on_c, 1, 46, 127
1, 60887, Note_off_c, 1, 46, 0
1, 60899, Note_off_c, 1, 58, 0
1, 60900, Note_on_c, 1, 70, 127
1, 60900, Note_on_c, 1, 82, 127
1, 60900, Note_on_c, 1, 42, 127
1, 60923, Note_off_c, 1, 82, 0
1, 60947, Note_off_c, 1, 42, 0
1, 61043, Note_off_c, 1, 70, 0
1, 62940, Note_on_c, 1, 78, 127
1, 62940, Note_on_c, 1, 69, 127
1, 62940, Note_on_c, 1, 73, 127
1, 62940, Note_on_c, 1, 64, 127
1, 62940, Note_on_c, 1, 66, 127
1, 62940, Note_on_c, 1, 61, 127
1, 62940, Note_on_c, 1, 54, 127
1, 62969, Note_off_c, 1, 78, 0
1, 62969, Note_off_c, 1, 69, 0
1, 62969, Note_off_c, 1, 66, 0
1, 62969, Note_off_c, 1, 61, 0
1, 62970, Note_on_c, 1, 76, 127
1, 62970, Note_on_c, 1, 68, 127
1, 62970, Note_on_c, 1, 59, 127
1, 62987, Note_off_c, 1, 73, 0
1, 62987, Note_off_c, 1, 54, 0
1, 62999, Note_off_c, 1, 64, 0
1, 62999, Note_off_c, 1, 76, 0
1, 62999, Note_off_c, 1, 68, 0
1, 62999, Note_off_c, 1, 59, 0
1, 63000, Note_on_c, 1, 78, 127
1, 63000, Note_on_c, 1, 69, 127
1, 63000, Note_on_c, 1, 61, 127
1, 63000, Note_on_c, 1, 66, 127
1, 63000, Note_on_c, 1, 54, 127
1, 63059, Note_off_c, 1, 78, 0
1, 63059, Note_off_c, 1, 69, 0
1, 63059, Note_off_c, 1, 61, 0
1, 63059, Note_off_c, 1, 66, 0
1, 63059, Note_off_c, 1, 54, 0
1, 63060, Note_on_c, 1, 69, 127
1, 63060, Note_on_c, 1, 66, 127
1, 63060, Note_on_c, 1, 63, 127
1, 63060, Note_on_c, 1, 71, 127
1, 63060, Note_on_c, 1, 59, 127
1, 63107, Note_off_c, 1, 71, 0
1, 63107, Note_off_c, 1, 59, 0
1, 63179, Note_off_c, 1, 69, 0
1, 63179, Note_off_c, 1, 63, 0
1, 63180, Note_on_c, 1, 78, 127
1, 63180, Note_on_c, 1, 51, 127
1, 63210, Note_on_c, 1, 75, 127
1, 63227, Note_off_c, 1, 51, 0
1, 63233, Note_off_c, 1, 75, 0
1, 63240, Note_on_c, 1, 47, 127
1, 63299, Note_off_c, 1, 66, 0
1, 63299, Note_off_c, 1, 78, 0
1, 63299, Note_off_c, 1, 47, 0
1, 63300, Note_on_c, 1, 76, 127
1, 63300, Note_on_c, 1, 68, 127
1, 63300, Note_on_c, 1, 64, 127
1, 63329, Note_off_c, 1, 76, 0
1, 63329, Note_off_c, 1, 68, 0
1, 63329, Note_off_c, 1, 64, 0
1, 63360, Note_on_c, 1, 76, 127
1, 63360, Note_on_c, 1, 68, 127
1, 63360, Note_on_c, 1, 71, 127
1, 63360, Note_on_c, 1, 69, 127
1, 63360, Note_on_c, 1, 64, 127
1, 63360, Note_on_c, 1, 59, 127
1, 63360, Note_on_c, 1, 52, 127
1, 63407, Note_off_c, 1, 71, 0
1, 63407, Note_off_c, 1, 69, 0
1, 63419, Note_off_c, 1, 68, 0
1, 63419, Note_off_c, 1, 59, 0
1, 63419, Note_off_c, 1, 52, 0
1, 63420, Note_on_c, 1, 66, 127
1, 63420, Note_on_c, 1, 51, 127
1, 63443, Note_off_c, 1, 66, 0
1, 63449, Note_off_c, 1, 51, 0
1, 63480, Note_on_c, 1, 73, 127
1, 63480, Note_on_c, 1, 57, 127
1, 63480, Note_on_c, 1, 54, 127
1, 63527, Note_off_c, 1, 73, 0
1, 63539, Note_off_c, 1, 57, 0
1, 63539, Note_off_c, 1, 54, 0
1, 63600, Note_on_c, 1, 56, 127
1, 63659, Note_off_c, 1, 56, 0
1, 63720, Note_on_c, 1, 61, 127
1, 63779, Note_off_c, 1, 76, 0
1, 63779, Note_off_c, 1, 64, 0
1, 63779, Note_off_c, 1, 61, 0
1, 63780, Note_on_c, 1, 78, 127
1, 63780, Note_on_c, 1, 69, 127
1, 63780, Note_on_c, 1, 71, 127
1, 63780, Note_on_c, 1, 66, 127
1, 63780, Note_on_c, 1, 56, 127
1, 63809, Note_off_c, 1, 71, 0
1, 63809, Note_off_c, 1, 56, 0
1, 63810, Note_on_c, 1, 73, 127
1, 63810, Note_on_c, 1, 57, 127
1, 63839, Note_off_c, 1, 78, 0
1, 63839, Note_off_c, 1, 66, 0
1, 63839, Note_off_c, 1, 73, 0
1, 63839, Note_off_c, 1, 57, 0
1, 63840, Note_on_c, 1, 75, 127
1, 63840, Note_on_c, 1, 59, 127
1, 63899, Note_off_c, 1, 69, 0
1, 63899, Note_off_c, 1, 75, 0
1, 63900, Note_on_c, 1, 68, 127
1, 63960, Note_on_c, 1, 76, 127
1, 63960, Note_on_c, 1, 61, 127
1, 64019, Note_off_c, 1, 68, 0
1, 64019, Note_off_c, 1, 76, 0
1, 64019, Note_off_c, 1, 61, 0
1, 64080, Note_on_c, 1, 63, 127
1, 64139, Note_off_c, 1, 59, 0
1, 64139, Note_off_c, 1, 63, 0
1, 64140, Note_on_c, 1, 75, 127
1, 64140, Note_on_c, 1, 69, 127
1, 64140, Note_on_c, 1, 68, 127
1, 64140, Note_on_c, 1, 71, 127
1, 64140, Note_on_c, 1, 76, 127
1, 64140, Note_on_c, 1, 66, 127
1, 64140, Note_on_c, 1, 59, 127
1, 64163, Note_off_c, 1, 68, 0
1, 64169, Note_off_c, 1, 76, 0
1, 64187, Note_off_c, 1, 71, 0
1, 64199, Note_off_c, 1, 75, 0
1, 64199, Note_off_c, 1, 69, 0
1, 64199, Note_off_c, 1, 66, 0
1, 64199, Note_off_c, 1, 59, 0
1, 64200, Note_on_c, 1, 76, 127
1, 64200, Note_on_c, 1, 68, 127
1, 64200, Note_on_c, 1, 71, 127
1, 64200, Note_on_c, 1, 64, 127
1, 64230, Note_on_c, 1, 66, 127
1, 64253, Note_off_c, 1, 71, 0
1, 64259, Note_off_c, 1, 76, 0
1, 64259, Note_off_c, 1, 68, 0
1, 64259, Note_off_c, 1, 66, 0
1, 64260, Note_on_c, 1, 59, 127
1, 64260, Note_on_c, 1, 56, 127
1, 64289, Note_off_c, 1, 56, 0
1, 64290, Note_on_c, 1, 57, 127
1, 64307, Note_off_c, 1, 59, 0
1, 64319, Note_off_c, 1, 57, 0
1, 64379, Note_off_c, 1, 64, 0
1, 64380, Note_on_c, 1, 75, 127
1, 64380, Note_on_c, 1, 69, 127
1, 64380, Note_on_c, 1, 63, 127
1, 64380, Note_on_c, 1, 47, 127
1, 64427, Note_off_c, 1, 69, 0
1, 64439, Note_off_c, 1, 75, 0
1, 64439, Note_off_c, 1, 63, 0
1, 64439, Note_off_c, 1, 47, 0
1, 64440, Note_on_c, 1, 76, 127
1, 64440, Note_on_c, 1, 64, 127
1, 64440, Note_on_c, 1, 68, 127
1, 64440, Note_on_c, 1, 59, 127
1, 64440, Note_on_c, 1, 52, 127
1, 64487, Note_off_c, 1, 68, 0
1, 64499, Note_off_c, 1, 76, 0
1, 64500, Note_on_c, 1, 71, 127
1, 64500, Note_on_c, 1, 40, 127
1, 64530, Note_on_c, 1, 69, 127
1, 64530, Note_on_c, 1, 66, 127
1, 64547, Note_off_c, 1, 71, 0
1, 64547, Note_off_c, 1, 40, 0
1, 64559, Note_off_c, 1, 64, 0
1, 64559, Note_off_c, 1, 59, 0
1, 64559, Note_off_c, 1, 52, 0
1, 64559, Note_off_c, 1, 69, 0
1, 64559, Note_off_c, 1, 66, 0
1, 64560, Note_on_c, 1, 71, 127
1, 64560, Note_on_c, 1, 68, 127
1, 64560, Note_on_c, 1, 40, 127
1, 64607, Note_off_c, 1, 40, 0
1, 64619, Note_off_c, 1, 71, 0
1, 64619, Note_off_c, 1, 68, 0
1, 64620, Note_on_c, 1, 71, 127
1, 64620, Note_on_c, 1, 68, 127
1, 64620, Note_on_c, 1, 40, 127
1, 64667, Note_off_c, 1, 40, 0
1, 64679, Note_off_c, 1, 71, 0
1, 64679, Note_off_c, 1, 68, 0
1, 64680, Note_on_c, 1, 73, 127
1, 64680, Note_on_c, 1, 69, 127
1, 64680, Note_on_c, 1, 40, 127
1, 64709, Note_off_c, 1, 73, 0
1, 64709, Note_off_c, 1, 69, 0
1, 64710, Note_on_c, 1, 71, 127
1, 64710, Note_on_c, 1, 68, 127
1, 64727, Note_off_c, 1, 40, 0
1, 64739, Note_off_c, 1, 71, 0
1, 64739, Note_off_c, 1, 68, 0
1, 64740, Note_on_c, 1, 69, 127
1, 64740, Note_on_c, 1, 66, 127
1, 64740, Note_on_c, 1, 40, 127
1, 64769, Note_off_c, 1, 69, 0
1, 64769, Note_off_c, 1, 66, 0
1, 64770, Note_on_c, 1, 73, 127
1, 64787, Note_off_c, 1, 40, 0
1, 64799, Note_off_c, 1, 73, 0
1, 64800, Note_on_c, 1, 71, 127
1, 64800, Note_on_c, 1, 68, 127
1, 64800, Note_on_c, 1, 40, 127
1, 64830, Note_on_c, 1, 83, 127
1, 64830, Note_on_c, 1, 80, 127
1, 64830, Note_on_c, 1, 64, 127
1, 64847, Note_off_c, 1, 40, 0
1, 64853, Note_off_c, 1, 83, 0
1, 64853, Note_off_c, 1, 80, 0
1, 64853, Note_off_c, 1, 64, 0
1, 64859, Note_off_c, 1, 71, 0
1, 64859, Note_off_c, 1, 68, 0
1, 64860, Note_on_c, 1, 88, 127
1, 64860, Note_on_c, 1, 83, 127
1, 64860, Note_on_c, 1, 68, 127
1, 64860, Note_on_c, 1, 52, 127
1, 64883, Note_off_c, 1, 88, 0
1, 64883, Note_off_c, 1, 83, 0
1, 64883, Note_off_c, 1, 68, 0
1, 64890, Note_on_c, 1, 80, 127
1, 64890, Note_on_c, 1, 64, 127
1, 64907, Note_off_c, 1, 52, 0
1, 64913, Note_off_c, 1, 80, 0
1, 64913, Note_off_c, 1, 64, 0
1, 64920, Note_on_c, 1, 76, 127
1, 64920, Note_on_c, 1, 71, 127
1, 64920, Note_on_c, 1, 80, 127
1, 64920, Note_on_c, 1, 59, 127
1, 64920, Note_on_c, 1, 52, 127
1, 64943, Note_off_c, 1, 80, 0
1, 64943, Note_off_c, 1, 59, 0
1, 64949, Note_off_c, 1, 71, 0
1, 64950, Note_off_c, 1, 76, 0
1, 64950, Note_on_c, 1, 83, 127
1, 64950, Note_on_c, 1, 64, 127
1, 64967, Note_off_c, 1, 52, 0
1, 64973, Note_off_c, 1, 83, 0
1, 64973, Note_off_c, 1, 64, 0
1, 64980, Note_on_c, 1, 76, 127
1, 64980, Note_on_c, 1, 71, 127
1, 64980, Note_on_c, 1, 56, 127
1, 65003, Note_off_c, 1, 76, 0
1, 65010, Note_on_c, 1, 80, 127
1, 65027, Note_off_c, 1, 71, 0
1, 65027, Note_off_c, 1, 56, 0
1, 65033, Note_off_c, 1, 80, 0
1, 65040, Note_on_c, 1, 78, 127
1, 65040, Note_on_c, 1, 75, 127
1, 65040, Note_on_c, 1, 66, 127
1, 65040, Note_on_c, 1, 71, 127
1, 65040, Note_on_c, 1, 59, 127
1, 65069, Note_off_c, 1, 75, 0
1, 65070, Note_off_c, 1, 78, 0
1, 65070, Note_on_c, 1, 81, 127
1, 65087, Note_off_c, 1, 66, 0
1, 65087, Note_off_c, 1, 71, 0
1, 65087, Note_off_c, 1, 59, 0
1, 65093, Note_off_c, 1, 81, 0
1, 65100, Note_on_c, 1, 80, 127
1, 65100, Note_on_c, 1, 75, 127
1, 65100, Note_on_c, 1, 71, 127
1, 65100, Note_on_c, 1, 47, 127
1, 65123, Note_off_c, 1, 80, 0
1, 65130, Note_on_c, 1, 78, 127
1, 65147, Note_off_c, 1, 75, 0
1, 65147, Note_off_c, 1, 71, 0
1, 65147, Note_off_c, 1, 47, 0
1, 65153, Note_off_c, 1, 78, 0
1, 65160, Note_on_c, 1, 80, 127
1, 65160, Note_on_c, 1, 76, 127
1, 65160, Note_on_c, 1, 71, 127
1, 65160, Note_on_c, 1, 52, 127
1, 65207, Note_off_c, 1, 71, 0
1, 65207, Note_off_c, 1, 52, 0
1, 65219, Note_off_c, 1, 76, 0
1, 65220, Note_off_c, 1, 80, 0
1, 65220, Note_on_c, 1, 68, 127
1, 65220, Note_on_c, 1, 40, 127
1, 65250, Note_on_c, 1, 78, 127
1, 65250, Note_on_c, 1, 69, 127
1, 65267, Note_off_c, 1, 68, 0
1, 65267, Note_off_c, 1, 40, 0
1, 65279, Note_off_c, 1, 78, 0
1, 65279, Note_off_c, 1, 69, 0
1, 65280, Note_on_c, 1, 80, 127
1, 65280, Note_on_c, 1, 71, 127
1, 65280, Note_on_c, 1, 40, 127
1, 65309, Note_off_c, 1, 80, 0
1, 65309, Note_off_c, 1, 71, 0
1, 65310, Note_on_c, 1, 81, 127
1, 65310, Note_on_c, 1, 73, 127
1, 65327, Note_off_c, 1, 40, 0
1, 65339, Note_off_c, 1, 81, 0
1, 65339, Note_off_c, 1, 73, 0
1, 65340, Note_on_c, 1, 78, 127
1, 65340, Note_on_c, 1, 69, 127
1, 65340, Note_on_c, 1, 40, 127
1, 65369, Note_off_c, 1, 78, 0
1, 65369, Note_off_c, 1, 69, 0
1, 65370, Note_on_c, 1, 80, 127
1, 65370, Note_on_c, 1, 71, 127
1, 65387, Note_off_c, 1, 40, 0
1, 65399, Note_off_c, 1, 80, 0
1, 65399, Note_off_c, 1, 71, 0
1, 65400, Note_on_c, 1, 81, 127
1, 65400, Note_on_c, 1, 73, 127
1, 65400, Note_on_c, 1, 40, 127
1, 65429, Note_off_c, 1, 81, 0
1, 65429, Note_off_c, 1, 73, 0
1, 65430, Note_on_c, 1, 80, 127
1, 65430, Note_on_c, 1, 71, 127
1, 65447, Note_off_c, 1, 40, 0
1, 65459, Note_off_c, 1, 80, 0
1, 65459, Note_off_c, 1, 71, 0
1, 65460, Note_on_c, 1, 78, 127
1, 65460, Note_on_c, 1, 69, 127
1, 65460, Note_on_c, 1, 40, 127
1, 65489, Note_off_c, 1, 78, 0
1, 65489, Note_off_c, 1, 69, 0
1, 65490, Note_on_c, 1, 81, 127
1, 65490, Note_on_c, 1, 73, 127
1, 65507, Note_off_c, 1, 40, 0
1, 65519, Note_off_c, 1, 81, 0
1, 65519, Note_off_c, 1, 73, 0
1, 65520, Note_on_c, 1, 80, 127
1, 65520, Note_on_c, 1, 71, 127
1, 65520, Note_on_c, 1, 40, 127
1, 65550, Note_on_c, 1, 76, 127
1, 65567, Note_off_c, 1, 40, 0
1, 65573, Note_off_c, 1, 76, 0
1, 65579, Note_off_c, 1, 80, 0
1, 65579, Note_off_c, 1, 71, 0
1, 65580, Note_on_c, 1, 83, 127
1, 65580, Note_on_c, 1, 80, 127
1, 65580, Note_on_c, 1, 76, 127
1, 65580, Note_on_c, 1, 52, 127
1, 65603, Note_off_c, 1, 83, 0
1, 65603, Note_off_c, 1, 80, 0
1, 65603, Note_off_c, 1, 76, 0
1, 65610, Note_on_c, 1, 71, 127
1, 65627, Note_off_c, 1, 52, 0
1, 65633, Note_off_c, 1, 71, 0
1, 65640, Note_on_c, 1, 71, 127
1, 65640, Note_on_c, 1, 76, 127
1, 65640, Note_on_c, 1, 68, 127
1, 65640, Note_on_c, 1, 52, 127
1, 65663, Note_off_c, 1, 68, 0
1, 65669, Note_off_c, 1, 71, 0
1, 65669, Note_off_c, 1, 76, 0
1, 65670, Note_on_c, 1, 80, 127
1, 65687, Note_off_c, 1, 52, 0
1, 65693, Note_off_c, 1, 80, 0
1, 65700, Note_on_c, 1, 71, 127
1, 65700, Note_on_c, 1, 68, 127
1, 65700, Note_on_c, 1, 64, 127
1, 65700, Note_on_c, 1, 56, 127
1, 65723, Note_off_c, 1, 71, 0
1, 65723, Note_off_c, 1, 68, 0
1, 65723, Note_off_c, 1, 64, 0
1, 65730, Note_on_c, 1, 76, 127
1, 65747, Note_off_c, 1, 56, 0
1, 65753, Note_off_c, 1, 76, 0
1, 65760, Note_on_c, 1, 75, 127
1, 65760, Note_on_c, 1, 78, 127
1, 65760, Note_on_c, 1, 69, 127
1, 65760, Note_on_c, 1, 66, 127
1, 65760, Note_on_c, 1, 63, 127
1, 65760, Note_on_c, 1, 59, 127
1, 65783, Note_off_c, 1, 69, 0
1, 65789, Note_off_c, 1, 75, 0
1, 65789, Note_off_c, 1, 78, 0
1, 65790, Note_on_c, 1, 73, 127
1, 65807, Note_off_c, 1, 66, 0
1, 65807, Note_off_c, 1, 63, 0
1, 65807, Note_off_c, 1, 59, 0
1, 65813, Note_off_c, 1, 73, 0
1, 65820, Note_on_c, 1, 71, 127
1, 65820, Note_on_c, 1, 66, 127
1, 65820, Note_on_c, 1, 63, 127
1, 65820, Note_on_c, 1, 47, 127
1, 65843, Note_off_c, 1, 71, 0
1, 65850, Note_on_c, 1, 69, 127
1, 65867, Note_off_c, 1, 66, 0
1, 65867, Note_off_c, 1, 63, 0
1, 65867, Note_off_c, 1, 47, 0
1, 65873, Note_off_c, 1, 69, 0
1, 65880, Note_on_c, 1, 76, 127
1, 65880, Note_on_c, 1, 80, 127
1, 65880, Note_on_c, 1, 68, 127
1, 65880, Note_on_c, 1, 64, 127
1, 65880, Note_on_c, 1, 59, 127
1, 65880, Note_on_c, 1, 52, 127
1, 65903, Note_off_c, 1, 68, 0
1, 65909, Note_off_c, 1, 76, 0
1, 65909, Note_off_c, 1, 80, 0
1, 65910, Note_on_c, 1, 71, 127
1, 65927, Note_off_c, 1, 64, 0
1, 65927, Note_off_c, 1, 59, 0
1, 65927, Note_off_c, 1, 52, 0
1, 65933, Note_off_c, 1, 71, 0
1, 65940, Note_on_c, 1, 76, 127
1, 65940, Note_on_c, 1, 59, 127
1, 65940, Note_on_c, 1, 56, 127
1, 65940, Note_on_c, 1, 68, 127
1, 65940, Note_on_c, 1, 64, 127
1, 65940, Note_on_c, 1, 40, 127
1, 65963, Note_off_c, 1, 76, 0
1, 65969, Note_off_c, 1, 68, 0
1, 65969, Note_off_c, 1, 64, 0
1, 65970, Note_on_c, 1, 71, 127
1, 65970, Note_on_c, 1, 69, 127
1, 65970, Note_on_c, 1, 66, 127
1, 65987, Note_off_c, 1, 59, 0
1, 65987, Note_off_c, 1, 56, 0
1, 65987, Note_off_c, 1, 40, 0
1, 65993, Note_off_c, 1, 71, 0
1, 65999, Note_off_c, 1, 69, 0
1, 65999, Note_off_c, 1, 66, 0
1, 66000, Note_on_c, 1, 68, 127
1, 66000, Note_on_c, 1, 71, 127
1, 66000, Note_on_c, 1, 40, 127
1, 66047, Note_off_c, 1, 40, 0
1, 66059, Note_off_c, 1, 68, 0
1, 66059, Note_off_c, 1, 71, 0
1, 66060, Note_on_c, 1, 64, 127
1, 66060, Note_on_c, 1, 73, 127
1, 66060, Note_on_c, 1, 69, 127
1, 66060, Note_on_c, 1, 52, 127
1, 66083, Note_off_c, 1, 64, 0
1, 66089, Note_off_c, 1, 73, 0
1, 66089, Note_off_c, 1, 69, 0
1, 66089, Note_off_c, 1, 52, 0
1, 66090, Note_on_c, 1, 71, 127
1, 66090, Note_on_c, 1, 69, 127
1, 66090, Note_on_c, 1, 66, 127
1, 66090, Note_on_c, 1, 74, 127
1, 66090, Note_on_c, 1, 54, 127
1, 66113, Note_off_c, 1, 71, 0
1, 66113, Note_off_c, 1, 69, 0
1, 66119, Note_off_c, 1, 66, 0
1, 66119, Note_off_c, 1, 74, 0
1, 66119, Note_off_c, 1, 54, 0
1, 66120, Note_on_c, 1, 68, 127
1, 66120, Note_on_c, 1, 71, 127
1, 66120, Note_on_c, 1, 76, 127
1, 66120, Note_on_c, 1, 52, 127
1, 66173, Note_off_c, 1, 71, 0
1, 66179, Note_off_c, 1, 68, 0
1, 66179, Note_off_c, 1, 52, 0
1, 66180, Note_on_c, 1, 64, 127
1, 66180, Note_on_c, 1, 50, 127
1, 66239, Note_off_c, 1, 64, 0
1, 66239, Note_off_c, 1, 50, 0
1, 66240, Note_on_c, 1, 69, 127
1, 66240, Note_on_c, 1, 49, 127
1, 66270, Note_on_c, 1, 73, 127
1, 66293, Note_off_c, 1, 73, 0
1, 66299, Note_off_c, 1, 69, 0
1, 66299, Note_off_c, 1, 49, 0
1, 66300, Note_on_c, 1, 61, 127
1, 66300, Note_on_c, 1, 37, 127
1, 66330, Note_on_c, 1, 62, 127
1, 66347, Note_off_c, 1, 61, 0
1, 66347, Note_off_c, 1, 37, 0
1, 66359, Note_off_c, 1, 62, 0
1, 66360, Note_on_c, 1, 57, 127
1, 66419, Note_off_c, 1, 57, 0
1, 66420, Note_on_c, 1, 66, 127
1, 66449, Note_off_c, 1, 66, 0
1, 66450, Note_on_c, 1, 59, 127
1, 66450, Note_on_c, 1, 47, 127
1, 66473, Note_off_c, 1, 47, 0
1, 66479, Note_off_c, 1, 59, 0
1, 66540, Note_on_c, 1, 45, 127
1, 66587, Note_off_c, 1, 45, 0
1, 66600, Note_on_c, 1, 56, 127
1, 66600, Note_on_c, 1, 44, 127
1, 66630, Note_on_c, 1, 74, 127
1, 66647, Note_off_c, 1, 44, 0
1, 66653, Note_off_c, 1, 74, 0
1, 66659, Note_off_c, 1, 56, 0
1, 66660, Note_on_c, 1, 40, 127
1, 66683, Note_off_c, 1, 76, 0
1, 66707, Note_off_c, 1, 40, 0
1, 66720, Note_on_c, 1, 71, 127
1, 66720, Note_on_c, 1, 74, 127
1, 66720, Note_on_c, 1, 68, 127
1, 66720, Note_on_c, 1, 64, 127
1, 66720, Note_on_c, 1, 52, 127
1, 66720, Note_on_c, 1, 40, 127
1, 66743, Note_off_c, 1, 71, 0
1, 66767, Note_off_c, 1, 40, 0
1, 66779, Note_off_c, 1, 74, 0
1, 66779, Note_off_c, 1, 68, 0
1, 66779, Note_off_c, 1, 64, 0
1, 66779, Note_off_c, 1, 52, 0
1, 66780, Note_on_c, 1, 64, 127
1, 66780, Note_on_c, 1, 71, 127
1, 66780, Note_on_c, 1, 74, 127
1, 66780, Note_on_c, 1, 56, 127
1, 66780, Note_on_c, 1, 44, 127
1, 66803, Note_off_c, 1, 44, 0
1, 66809, Note_off_c, 1, 71, 0
1, 66810, Note_on_c, 1, 69, 127
1, 66810, Note_on_c, 1, 66, 127
1, 66810, Note_on_c, 1, 42, 127
1, 66833, Note_off_c, 1, 66, 0
1, 66833, Note_off_c, 1, 42, 0
1, 66839, Note_off_c, 1, 64, 0
1, 66839, Note_off_c, 1, 74, 0
1, 66839, Note_off_c, 1, 56, 0
1, 66839, Note_off_c, 1, 69, 0
1, 66840, Note_on_c, 1, 71, 127
1, 66840, Note_on_c, 1, 64, 127
1, 66840, Note_on_c, 1, 74, 127
1, 66840, Note_on_c, 1, 56, 127
1, 66840, Note_on_c, 1, 44, 127
1, 66887, Note_off_c, 1, 44, 0
1, 66899, Note_off_c, 1, 71, 0
1, 66899, Note_off_c, 1, 64, 0
1, 66899, Note_off_c, 1, 74, 0
1, 66899, Note_off_c, 1, 56, 0
1, 66900, Note_on_c, 1, 64, 127
1, 66900, Note_on_c, 1, 68, 127
1, 66900, Note_on_c, 1, 59, 127
1, 66900, Note_on_c, 1, 74, 127
1, 66900, Note_on_c, 1, 52, 127
1, 66900, Note_on_c, 1, 40, 127
1, 66947, Note_off_c, 1, 59, 0
1, 66947, Note_off_c, 1, 40, 0
1, 66959, Note_off_c, 1, 64, 0
1, 66959, Note_off_c, 1, 68, 0
1, 66959, Note_off_c, 1, 74, 0
1, 66959, Note_off_c, 1, 52, 0
1, 66960, Note_on_c, 1, 73, 127
1, 66960, Note_on_c, 1, 64, 127
1, 66960, Note_on_c, 1, 57, 127
1, 66960, Note_on_c, 1, 69, 127
1, 66960, Note_on_c, 1, 45, 127
1, 67007, Note_off_c, 1, 45, 0
1, 67019, Note_off_c, 1, 73, 0
1, 67019, Note_off_c, 1, 64, 0
1, 67020, Note_on_c, 1, 61, 127
1, 67050, Note_on_c, 1, 74, 127
1, 67050, Note_on_c, 1, 71, 127
1, 67050, Note_on_c, 1, 62, 127
1, 67067, Note_off_c, 1, 61, 0
1, 67079, Note_off_c, 1, 57, 0
1, 67079, Note_off_c, 1, 69, 0
1, 67079, Note_off_c, 1, 62, 0
1, 67080, Note_off_c, 1, 74, 0
1, 67080, Note_off_c, 1, 71, 0
1, 67080, Note_on_c, 1, 76, 127
1, 67200, Note_off_c, 1, 76, 0
1, 67200, Note_on_c, 1, 78, 127
1, 67230, Note_off_c, 1, 78, 0
1, 67380, Note_on_c, 1, 81, 127
1, 67403, Note_off_c, 1, 81, 0
1, 67440, Note_on_c, 1, 69, 127
1, 67440, Note_on_c, 1, 64, 127
1, 67440, Note_on_c, 1, 73, 127
1, 67440, Note_on_c, 1, 45, 127
1, 67463, Note_off_c, 1, 73, 0
1, 67470, Note_off_c, 1, 64, 0
1, 67470, Note_on_c, 1, 76, 127
1, 67487, Note_off_c, 1, 45, 0
1, 67493, Note_off_c, 1, 69, 0
1, 67493, Note_off_c, 1, 76, 0
1, 67500, Note_on_c, 1, 69, 127
1, 67500, Note_on_c, 1, 64, 127
1, 67500, Note_on_c, 1, 61, 127
1, 67500, Note_on_c, 1, 49, 127
1, 67523, Note_off_c, 1, 69, 0
1, 67523, Note_off_c, 1, 64, 0
1, 67523, Note_off_c, 1, 61, 0
1, 67530, Note_on_c, 1, 73, 127
1, 67547, Note_off_c, 1, 49, 0
1, 67553, Note_off_c, 1, 73, 0
1, 67560, Note_on_c, 1, 71, 127
1, 67560, Note_on_c, 1, 68, 127
1, 67560, Note_on_c, 1, 59, 127
1, 67560, Note_on_c, 1, 52, 127
1, 67590, Note_off_c, 1, 71, 0
1, 67590, Note_off_c, 1, 68, 0
1, 67590, Note_on_c, 1, 74, 127
1, 67607, Note_off_c, 1, 59, 0
1, 67607, Note_off_c, 1, 52, 0
1, 67613, Note_off_c, 1, 74, 0
1, 67620, Note_on_c, 1, 73, 127
1, 67620, Note_on_c, 1, 68, 127
1, 67620, Note_on_c, 1, 64, 127
1, 67620, Note_on_c, 1, 40, 127
1, 67643, Note_off_c, 1, 73, 0
1, 67650, Note_on_c, 1, 71, 127
1, 67667, Note_off_c, 1, 68, 0
1, 67667, Note_off_c, 1, 64, 0
1, 67667, Note_off_c, 1, 40, 0
1, 67673, Note_off_c, 1, 71, 0
1, 67680, Note_on_c, 1, 73, 127
1, 67680, Note_on_c, 1, 69, 127
1, 67680, Note_on_c, 1, 64, 127
1, 67680, Note_on_c, 1, 45, 127
1, 67727, Note_off_c, 1, 64, 0
1, 67727, Note_off_c, 1, 45, 0
1, 67740, Note_off_c, 1, 73, 0
1, 67740, Note_on_c, 1, 61, 127
1, 67740, Note_on_c, 1, 57, 127
1, 67770, Note_on_c, 1, 71, 127
1, 67770, Note_on_c, 1, 62, 127
1, 67787, Note_off_c, 1, 69, 0
1, 67787, Note_off_c, 1, 61, 0
1, 67787, Note_off_c, 1, 57, 0
1, 67800, Note_off_c, 1, 71, 0
1, 67800, Note_off_c, 1, 62, 0
1, 67830, Note_on_c, 1, 74, 127
1, 67830, Note_on_c, 1, 66, 127
1, 67860, Note_off_c, 1, 74, 0
1, 67860, Note_off_c, 1, 66, 0
1, 68100, Note_on_c, 1, 76, 127
1, 68123, Note_off_c, 1, 76, 0
1, 68160, Note_on_c, 1, 76, 127
1, 68160, Note_on_c, 1, 69, 127
1, 68160, Note_on_c, 1, 64, 127
1, 68160, Note_on_c, 1, 61, 127
1, 68160, Note_on_c, 1, 45, 127
1, 68183, Note_off_c, 1, 64, 0
1, 68183, Note_off_c, 1, 61, 0
1, 68190, Note_off_c, 1, 76, 0
1, 68190, Note_on_c, 1, 73, 127
1, 68207, Note_off_c, 1, 45, 0
1, 68213, Note_off_c, 1, 69, 0
1, 68213, Note_off_c, 1, 73, 0
1, 68220, Note_on_c, 1, 64, 127
1, 68220, Note_on_c, 1, 61, 127
1, 68220, Note_on_c, 1, 57, 127
1, 68220, Note_on_c, 1, 49, 127
1, 68243, Note_off_c, 1, 64, 0
1, 68243, Note_off_c, 1, 61, 0
1, 68243, Note_off_c, 1, 57, 0
1, 68250, Note_on_c, 1, 69, 127
1, 68267, Note_off_c, 1, 49, 0
1, 68273, Note_off_c, 1, 69, 0
1, 68280, Note_on_c, 1, 80, 127
1, 68280, Note_on_c, 1, 71, 127
1, 68280, Note_on_c, 1, 62, 127
1, 68280, Note_on_c, 1, 59, 127
1, 68280, Note_on_c, 1, 56, 127
1, 68280, Note_on_c, 1, 52, 127
1, 68303, Note_off_c, 1, 62, 0
1, 68310, Note_off_c, 1, 80, 0
1, 68310, Note_off_c, 1, 71, 0
1, 68310, Note_on_c, 1, 66, 127
1, 68327, Note_off_c, 1, 59, 0
1, 68327, Note_off_c, 1, 56, 0
1, 68327, Note_off_c, 1, 52, 0
1, 68333, Note_off_c, 1, 66, 0
1, 68340, Note_on_c, 1, 64, 127
1, 68340, Note_on_c, 1, 59, 127
1, 68340, Note_on_c, 1, 56, 127
1, 68340, Note_on_c, 1, 40, 127
1, 68363, Note_off_c, 1, 64, 0
1, 68370, Note_on_c, 1, 62, 127
1, 68387, Note_off_c, 1, 59, 0
1, 68387, Note_off_c, 1, 56, 0
1, 68387, Note_off_c, 1, 40, 0
1, 68393, Note_off_c, 1, 62, 0
1, 68400, Note_on_c, 1, 81, 127
1, 68400, Note_on_c, 1, 73, 127
1, 68400, Note_on_c, 1, 61, 127
1, 68400, Note_on_c, 1, 57, 127
1, 68400, Note_on_c, 1, 52, 127
1, 68400, Note_on_c, 1, 45, 127
1, 68423, Note_off_c, 1, 61, 0
1, 68430, Note_off_c, 1, 81, 0
1, 68430, Note_off_c, 1, 73, 0
1, 68430, Note_on_c, 1, 64, 127
1, 68447, Note_off_c, 1, 57, 0
1, 68447, Note_off_c, 1, 52, 0
1, 68447, Note_off_c, 1, 45, 0
1, 68453, Note_off_c, 1, 64, 0
1, 68460, Note_on_c, 1, 69, 127
1, 68460, Note_on_c, 1, 64, 127
1, 68460, Note_on_c, 1, 61, 127
1, 68460, Note_on_c, 1, 57, 127
1, 68483, Note_off_c, 1, 69, 0
1, 68490, Note_on_c, 1, 62, 127
1, 68490, Note_on_c, 1, 59, 127
1, 68507, Note_off_c, 1, 61, 0
1, 68507, Note_off_c, 1, 57, 0
1, 68513, Note_off_c, 1, 64, 0
1, 68519, Note_off_c, 1, 62, 0
1, 68519, Note_off_c, 1, 59, 0
1, 68520, Note_on_c, 1, 61, 127
1, 68520, Note_on_c, 1, 64, 127
1, 68520, Note_on_c, 1, 57, 127
1, 68567, Note_off_c, 1, 57, 0
1, 68579, Note_off_c, 1, 61, 0
1, 68579, Note_off_c, 1, 64, 0
1, 68580, Note_on_c, 1, 57, 127
1, 68580, Note_on_c, 1, 66, 127
1, 68580, Note_on_c, 1, 62, 127
1, 68580, Note_on_c, 1, 45, 127
1, 68603, Note_off_c, 1, 45, 0
1, 68609, Note_off_c, 1, 57, 0
1, 68609, Note_off_c, 1, 66, 0
1, 68609, Note_off_c, 1, 62, 0
1, 68610, Note_on_c, 1, 64, 127
1, 68610, Note_on_c, 1, 62, 127
1, 68610, Note_on_c, 1, 59, 127
1, 68610, Note_on_c, 1, 68, 127
1, 68610, Note_on_c, 1, 47, 127
1, 68633, Note_off_c, 1, 64, 0
1, 68633, Note_off_c, 1, 62, 0
1, 68633, Note_off_c, 1, 47, 0
1, 68639, Note_off_c, 1, 59, 0
1, 68639, Note_off_c, 1, 68, 0
1, 68640, Note_on_c, 1, 61, 127
1, 68640, Note_on_c, 1, 64, 127
1, 68640, Note_on_c, 1, 69, 127
1, 68640, Note_on_c, 1, 57, 127
1, 68640, Note_on_c, 1, 45, 127
1, 68687, Note_off_c, 1, 45, 0
1, 68693, Note_off_c, 1, 64, 0
1, 68699, Note_off_c, 1, 61, 0
1, 68699, Note_off_c, 1, 57, 0
1, 68700, Note_on_c, 1, 55, 127
1, 68700, Note_on_c, 1, 43, 127
1, 68747, Note_off_c, 1, 43, 0
1, 68759, Note_off_c, 1, 55, 0
1, 68760, Note_on_c, 1, 62, 127
1, 68760, Note_on_c, 1, 54, 127
1, 68760, Note_on_c, 1, 42, 127
1, 68790, Note_on_c, 1, 66, 127
1, 68807, Note_off_c, 1, 42, 0
1, 68813, Note_off_c, 1, 66, 0
1, 68819, Note_off_c, 1, 62, 0
1, 68819, Note_off_c, 1, 54, 0
1, 68850, Note_on_c, 1, 67, 127
1, 68879, Note_off_c, 1, 67, 0
1, 68940, Note_on_c, 1, 74, 127
1, 68940, Note_on_c, 1, 71, 127
1, 68963, Note_off_c, 1, 74, 0
1, 68969, Note_off_c, 1, 71, 0
1, 68970, Note_on_c, 1, 73, 127
1, 68970, Note_on_c, 1, 52, 127
1, 68970, Note_on_c, 1, 40, 127
1, 68993, Note_off_c, 1, 40, 0
1, 68999, Note_off_c, 1, 73, 0
1, 68999, Note_off_c, 1, 52, 0
1, 69060, Note_on_c, 1, 50, 127
1, 69060, Note_on_c, 1, 38, 127
1, 69107, Note_off_c, 1, 38, 0
1, 69119, Note_off_c, 1, 50, 0
1, 69120, Note_on_c, 1, 76, 127
1, 69120, Note_on_c, 1, 49, 127
1, 69120, Note_on_c, 1, 37, 127
1, 69167, Note_off_c, 1, 76, 0
1, 69167, Note_off_c, 1, 37, 0
1, 69179, Note_off_c, 1, 49, 0
1, 69203, Note_off_c, 1, 69, 0
1, 69300, Note_on_c, 1, 57, 127
1, 69300, Note_on_c, 1, 76, 127
1, 69300, Note_on_c, 1, 64, 127
1, 69300, Note_on_c, 1, 67, 127
1, 69300, Note_on_c, 1, 49, 127
1, 69323, Note_off_c, 1, 57, 0
1, 69329, Note_off_c, 1, 49, 0
1, 69330, Note_on_c, 1, 74, 127
1, 69330, Note_on_c, 1, 66, 127
1, 69330, Note_on_c, 1, 47, 127
1, 69353, Note_off_c, 1, 74, 0
1, 69353, Note_off_c, 1, 66, 0
1, 69359, Note_off_c, 1, 76, 0
1, 69359, Note_off_c, 1, 47, 0
1, 69360, Note_on_c, 1, 69, 127
1, 69419, Note_off_c, 1, 64, 0
1, 69419, Note_off_c, 1, 67, 0
1, 69419, Note_off_c, 1, 69, 0
1, 69420, Note_on_c, 1, 57, 127
1, 69420, Note_on_c, 1, 73, 127
1, 69420, Note_on_c, 1, 69, 127
1, 69420, Note_on_c, 1, 67, 127
1, 69420, Note_on_c, 1, 64, 127
1, 69420, Note_on_c, 1, 45, 127
1, 69443, Note_off_c, 1, 57, 0
1, 69467, Note_off_c, 1, 69, 0
1, 69479, Note_off_c, 1, 73, 0
1, 69479, Note_off_c, 1, 67, 0
1, 69479, Note_off_c, 1, 64, 0
1, 69479, Note_off_c, 1, 45, 0
1, 69480, Note_on_c, 1, 66, 127
1, 69480, Note_on_c, 1, 74, 127
1, 69480, Note_on_c, 1, 69, 127
1, 69480, Note_on_c, 1, 62, 127
1, 69480, Note_on_c, 1, 50, 127
1, 69527, Note_off_c, 1, 69, 0
1, 69539, Note_off_c, 1, 66, 0
1, 69539, Note_off_c, 1, 74, 0
1, 69539, Note_off_c, 1, 62, 0
1, 69539, Note_off_c, 1, 50, 0
1, 69540, Note_on_c, 1, 62, 127
1, 69540, Note_on_c, 1, 69, 127
1, 69540, Note_on_c, 1, 66, 127
1, 69540, Note_on_c, 1, 74, 127
1, 69540, Note_on_c, 1, 54, 127
1, 69569, Note_off_c, 1, 74, 0
1, 69569, Note_off_c, 1, 54, 0
1, 69570, Note_on_c, 1, 76, 127
1, 69570, Note_on_c, 1, 55, 127
1, 69587, Note_off_c, 1, 62, 0
1, 69587, Note_off_c, 1, 69, 0
1, 69587, Note_off_c, 1, 66, 0
1, 69599, Note_off_c, 1, 76, 0
1, 69599, Note_off_c, 1, 55, 0
1, 69600, Note_on_c, 1, 78, 127
1, 69600, Note_on_c, 1, 57, 127
1, 69600, Note_on_c, 1, 62, 127
1, 69647, Note_off_c, 1, 62, 0
1, 69659, Note_off_c, 1, 78, 0
1, 69659, Note_off_c, 1, 57, 0
1, 69660, Note_on_c, 1, 74, 127
1, 69660, Note_on_c, 1, 66, 127
1, 69660, Note_on_c, 1, 78, 127
1, 69660, Note_on_c, 1, 57, 127
1, 69660, Note_on_c, 1, 62, 127
1, 69690, Note_off_c, 1, 74, 0
1, 69690, Note_off_c, 1, 66, 0
1, 69690, Note_on_c, 1, 76, 127
1, 69690, Note_on_c, 1, 67, 127
1, 69707, Note_off_c, 1, 62, 0
1, 69719, Note_off_c, 1, 78, 0
1, 69719, Note_off_c, 1, 57, 0
1, 69720, Note_off_c, 1, 76, 0
1, 69720, Note_off_c, 1, 67, 0
1, 69720, Note_on_c, 1, 69, 127
1, 69750, Note_on_c, 1, 56, 127
1, 69779, Note_off_c, 1, 56, 0
1, 69780, Note_off_c, 1, 69, 0
1, 69840, Note_on_c, 1, 71, 127
1, 69840, Note_on_c, 1, 64, 127
1, 69840, Note_on_c, 1, 56, 127
1, 69840, Note_on_c, 1, 50, 127
1, 69887, Note_off_c, 1, 64, 0
1, 69887, Note_off_c, 1, 50, 0
1, 69899, Note_off_c, 1, 71, 0
1, 69899, Note_off_c, 1, 56, 0
1, 69900, Note_on_c, 1, 71, 127
1, 69900, Note_on_c, 1, 64, 127
1, 69900, Note_on_c, 1, 56, 127
1, 69900, Note_on_c, 1, 52, 127
1, 69900, Note_on_c, 1, 62, 127
1, 69929, Note_off_c, 1, 64, 0
1, 69929, Note_off_c, 1, 56, 0
1, 69930, Note_on_c, 1, 66, 127
1, 69930, Note_on_c, 1, 57, 127
1, 69947, Note_off_c, 1, 62, 0
1, 69959, Note_off_c, 1, 66, 0
1, 69959, Note_off_c, 1, 57, 0
1, 69960, Note_on_c, 1, 68, 127
1, 69960, Note_on_c, 1, 59, 127
1, 69960, Note_on_c, 1, 76, 127
1, 70007, Note_off_c, 1, 76, 0
1, 70019, Note_off_c, 1, 71, 0
1, 70019, Note_off_c, 1, 52, 0
1, 70019, Note_off_c, 1, 68, 0
1, 70019, Note_off_c, 1, 59, 0
1, 70020, Note_on_c, 1, 68, 127
1, 70020, Note_on_c, 1, 64, 127
1, 70020, Note_on_c, 1, 59, 127
1, 70020, Note_on_c, 1, 50, 127
1, 70020, Note_on_c, 1, 71, 127
1, 70050, Note_off_c, 1, 64, 0
1, 70050, Note_on_c, 1, 69, 127
1, 70050, Note_on_c, 1, 66, 127
1, 70067, Note_off_c, 1, 71, 0
1, 70079, Note_off_c, 1, 68, 0
1, 70079, Note_off_c, 1, 59, 0
1, 70079, Note_off_c, 1, 50, 0
1, 70080, Note_off_c, 1, 69, 0
1, 70080, Note_off_c, 1, 66, 0
1, 70080, Note_on_c, 1, 49, 127
1, 70110, Note_on_c, 1, 57, 127
1, 70139, Note_off_c, 1, 49, 0
1, 70139, Note_off_c, 1, 57, 0
1, 70140, Note_on_c, 1, 62, 127
1, 70140, Note_on_c, 1, 47, 127
1, 70187, Note_off_c, 1, 62, 0
1, 70199, Note_off_c, 1, 47, 0
1, 70200, Note_on_c, 1, 76, 127
1, 70200, Note_on_c, 1, 69, 127
1, 70200, Note_on_c, 1, 61, 127
1, 70200, Note_on_c, 1, 52, 127
1, 70200, Note_on_c, 1, 49, 127
1, 70247, Note_off_c, 1, 61, 0
1, 70259, Note_off_c, 1, 76, 0
1, 70259, Note_off_c, 1, 69, 0
1, 70259, Note_off_c, 1, 52, 0
1, 70259, Note_off_c, 1, 49, 0
1, 70260, Note_on_c, 1, 73, 127
1, 70260, Note_on_c, 1, 57, 127
1, 70260, Note_on_c, 1, 61, 127
1, 70289, Note_off_c, 1, 73, 0
1, 70289, Note_off_c, 1, 57, 0
1, 70290, Note_on_c, 1, 74, 127
1, 70290, Note_on_c, 1, 59, 127
1, 70307, Note_off_c, 1, 61, 0
1, 70319, Note_off_c, 1, 74, 0
1, 70319, Note_off_c, 1, 59, 0
1, 70320, Note_on_c, 1, 76, 127
1, 70320, Note_on_c, 1, 61, 127
1, 70320, Note_on_c, 1, 69, 127
1, 70367, Note_off_c, 1, 69, 0
1, 70379, Note_off_c, 1, 76, 0
1, 70379, Note_off_c, 1, 61, 0
1, 70380, Note_on_c, 1, 73, 127
1, 70380, Note_on_c, 1, 69, 127
1, 70380, Note_on_c, 1, 76, 127
1, 70380, Note_on_c, 1, 61, 127
1, 70380, Note_on_c, 1, 64, 127
1, 70410, Note_off_c, 1, 69, 0
1, 70410, Note_on_c, 1, 74, 127
1, 70410, Note_on_c, 1, 71, 127
1, 70427, Note_off_c, 1, 73, 0
1, 70427, Note_off_c, 1, 64, 0
1, 70439, Note_off_c, 1, 76, 0
1, 70439, Note_off_c, 1, 61, 0
1, 70440, Note_off_c, 1, 74, 0
1, 70440, Note_off_c, 1, 71, 0
1, 70470, Note_on_c, 1, 59, 127
1, 70499, Note_off_c, 1, 59, 0
1, 70560, Note_on_c, 1, 69, 127
1, 70560, Note_on_c, 1, 66, 127
1, 70560, Note_on_c, 1, 62, 127
1, 70560, Note_on_c, 1, 54, 127
1, 70560, Note_on_c, 1, 49, 127
1, 70607, Note_off_c, 1, 66, 0
1, 70607, Note_off_c, 1, 62, 0
1, 70607, Note_off_c, 1, 49, 0
1, 70619, Note_off_c, 1, 69, 0
1, 70619, Note_off_c, 1, 54, 0
1, 70620, Note_on_c, 1, 69, 127
1, 70620, Note_on_c, 1, 66, 127
1, 70620, Note_on_c, 1, 62, 127
1, 70620, Note_on_c, 1, 50, 127
1, 70620, Note_on_c, 1, 61, 127
1, 70649, Note_off_c, 1, 66, 0
1, 70649, Note_off_c, 1, 62, 0
1, 70650, Note_on_c, 1, 68, 127
1, 70650, Note_on_c, 1, 64, 127
1, 70667, Note_off_c, 1, 61, 0
1, 70679, Note_off_c, 1, 68, 0
1, 70679, Note_off_c, 1, 64, 0
1, 70680, Note_on_c, 1, 74, 127
1, 70727, Note_off_c, 1, 74, 0
1, 70739, Note_off_c, 1, 69, 0
1, 70739, Note_off_c, 1, 50, 0
1, 70740, Note_on_c, 1, 66, 127
1, 70740, Note_on_c, 1, 62, 127
1, 70740, Note_on_c, 1, 69, 127
1, 70740, Note_on_c, 1, 49, 127
1, 70770, Note_off_c, 1, 62, 0
1, 70770, Note_on_c, 1, 68, 127
1, 70770, Note_on_c, 1, 64, 127
1, 70799, Note_off_c, 1, 66, 0
1, 70799, Note_off_c, 1, 69, 0
1, 70799, Note_off_c, 1, 49, 0
1, 70800, Note_off_c, 1, 68, 0
1, 70800, Note_off_c, 1, 64, 0
1, 70800, Note_on_c, 1, 47, 127
1, 70859, Note_off_c, 1, 47, 0
1, 70860, Note_on_c, 1, 61, 127
1, 70860, Note_on_c, 1, 45, 127
1, 70907, Note_off_c, 1, 61, 0
1, 70919, Note_off_c, 1, 45, 0
1, 70920, Note_on_c, 1, 74, 127
1, 70920, Note_on_c, 1, 66, 127
1, 70920, Note_on_c, 1, 59, 127
1, 70920, Note_on_c, 1, 62, 127
1, 70920, Note_on_c, 1, 47, 127
1, 70950, Note_on_c, 1, 78, 127
1, 70967, Note_off_c, 1, 66, 0
1, 70973, Note_off_c, 1, 78, 0
1, 70979, Note_off_c, 1, 74, 0
1, 70979, Note_off_c, 1, 59, 0
1, 70979, Note_off_c, 1, 62, 0
1, 70979, Note_off_c, 1, 47, 0
1, 70980, Note_on_c, 1, 83, 127
1, 70980, Note_on_c, 1, 62, 127
1, 70980, Note_on_c, 1, 54, 127
1, 70980, Note_on_c, 1, 78, 127
1, 70980, Note_on_c, 1, 59, 127
1, 71003, Note_off_c, 1, 83, 0
1, 71009, Note_off_c, 1, 78, 0
1, 71010, Note_on_c, 1, 76, 127
1, 71010, Note_on_c, 1, 64, 127
1, 71010, Note_on_c, 1, 61, 127
1, 71027, Note_off_c, 1, 62, 0
1, 71027, Note_off_c, 1, 54, 0
1, 71027, Note_off_c, 1, 59, 0
1, 71039, Note_off_c, 1, 76, 0
1, 71039, Note_off_c, 1, 64, 0
1, 71039, Note_off_c, 1, 61, 0
1, 71040, Note_on_c, 1, 74, 127
1, 71040, Note_on_c, 1, 71, 127
1, 71040, Note_on_c, 1, 66, 127
1, 71040, Note_on_c, 1, 59, 127
1, 71040, Note_on_c, 1, 62, 127
1, 71070, Note_on_c, 1, 78, 127
1, 71093, Note_off_c, 1, 78, 0
1, 71099, Note_off_c, 1, 66, 0
1, 71099, Note_off_c, 1, 59, 0
1, 71099, Note_off_c, 1, 62, 0
1, 71100, Note_on_c, 1, 76, 127
1, 71100, Note_on_c, 1, 54, 127
1, 71100, Note_on_c, 1, 45, 127
1, 71147, Note_off_c, 1, 76, 0
1, 71147, Note_off_c, 1, 45, 0
1, 71159, Note_off_c, 1, 54, 0
1, 71160, Note_on_c, 1, 44, 127
1, 71207, Note_off_c, 1, 44, 0
1, 71220, Note_on_c, 1, 57, 127
1, 71220, Note_on_c, 1, 42, 127
1, 71267, Note_off_c, 1, 42, 0
1, 71279, Note_off_c, 1, 57, 0
1, 71280, Note_on_c, 1, 64, 127
1, 71280, Note_on_c, 1, 56, 127
1, 71339, Note_off_c, 1, 56, 0
1, 71340, Note_on_c, 1, 83, 127
1, 71340, Note_on_c, 1, 68, 127
1, 71363, Note_off_c, 1, 83, 0
1, 71369, Note_off_c, 1, 68, 0
1, 71370, Note_on_c, 1, 73, 127
1, 71370, Note_on_c, 1, 69, 127
1, 71370, Note_on_c, 1, 61, 127
1, 71375, Note_off_c, 1, 64, 0
1, 71399, Note_off_c, 1, 73, 0
1, 71399, Note_off_c, 1, 69, 0
1, 71399, Note_off_c, 1, 61, 0
1, 71580, Note_on_c, 1, 52, 127
1, 71580, Note_on_c, 1, 40, 127
1, 71627, Note_off_c, 1, 40, 0
1, 71639, Note_off_c, 1, 52, 0
1, 71700, Note_off_c, 1, 74, 0
1, 71700, Note_off_c, 1, 71, 0
1, 71760, Note_on_c, 1, 49, 127
1, 71819, Note_off_c, 1, 49, 0
1, 71820, Note_on_c, 1, 78, 127
1, 71820, Note_on_c, 1, 68, 127
1, 71820, Note_on_c, 1, 73, 127
1, 71820, Note_on_c, 1, 62, 127
1, 71820, Note_on_c, 1, 47, 127
1, 71849, Note_off_c, 1, 78, 0
1, 71850, Note_on_c, 1, 76, 127
1, 71867, Note_off_c, 1, 73, 0
1, 71879, Note_off_c, 1, 68, 0
1, 71879, Note_off_c, 1, 62, 0
1, 71879, Note_off_c, 1, 47, 0
1, 71879, Note_off_c, 1, 76, 0
1, 71880, Note_on_c, 1, 74, 127
1, 71880, Note_on_c, 1, 69, 127
1, 71880, Note_on_c, 1, 64, 127
1, 71880, Note_on_c, 1, 49, 127
1, 71910, Note_on_c, 1, 73, 127
1, 71927, Note_off_c, 1, 74, 0
1, 71939, Note_off_c, 1, 69, 0
1, 71939, Note_off_c, 1, 64, 0
1, 71939, Note_off_c, 1, 49, 0
1, 71939, Note_off_c, 1, 73, 0
1, 71940, Note_on_c, 1, 71, 127
1, 71940, Note_on_c, 1, 69, 127
1, 71940, Note_on_c, 1, 76, 127
1, 71940, Note_on_c, 1, 66, 127
1, 71940, Note_on_c, 1, 50, 127
1, 71969, Note_off_c, 1, 71, 0
1, 71987, Note_off_c, 1, 76, 0
1, 71999, Note_off_c, 1, 69, 0
1, 71999, Note_off_c, 1, 66, 0
1, 71999, Note_off_c, 1, 50, 0
1, 72000, Note_on_c, 1, 73, 127
1, 72000, Note_on_c, 1, 69, 127
1, 72000, Note_on_c, 1, 64, 127
1, 72000, Note_on_c, 1, 52, 127
1, 72059, Note_off_c, 1, 73, 0
1, 72059, Note_off_c, 1, 69, 0
1, 72060, Note_on_c, 1, 71, 127
1, 72060, Note_on_c, 1, 68, 127
1, 72060, Note_on_c, 1, 40, 127
1, 72083, Note_off_c, 1, 40, 0
1, 72090, Note_on_c, 1, 38, 127
1, 72113, Note_off_c, 1, 38, 0
1, 72119, Note_off_c, 1, 64, 0
1, 72119, Note_off_c, 1, 52, 0
1, 72119, Note_off_c, 1, 71, 0
1, 72119, Note_off_c, 1, 68, 0
1, 72120, Note_on_c, 1, 71, 127
1, 72120, Note_on_c, 1, 68, 127
1, 72120, Note_on_c, 1, 64, 127
1, 72120, Note_on_c, 1, 52, 127
1, 72120, Note_on_c, 1, 40, 127
1, 72167, Note_off_c, 1, 40, 0
1, 72179, Note_off_c, 1, 71, 0
1, 72179, Note_off_c, 1, 68, 0
1, 72179, Note_off_c, 1, 52, 0
1, 72180, Note_off_c, 1, 64, 0
1, 72180, Note_on_c, 1, 59, 127
1, 72180, Note_on_c, 1, 44, 127
1, 72203, Note_off_c, 1, 44, 0
1, 72210, Note_on_c, 1, 42, 127
1, 72233, Note_off_c, 1, 42, 0
1, 72240, Note_on_c, 1, 74, 127
1, 72269, Note_off_c, 1, 74, 0
1, 72299, Note_off_c, 1, 59, 0
1, 72300, Note_on_c, 1, 56, 127
1, 72300, Note_on_c, 1, 40, 127
1, 72347, Note_off_c, 1, 40, 0
1, 72359, Note_off_c, 1, 56, 0
1, 72360, Note_on_c, 1, 73, 127
1, 72360, Note_on_c, 1, 69, 127
1, 72360, Note_on_c, 1, 64, 127
1, 72360, Note_on_c, 1, 52, 127
1, 72360, Note_on_c, 1, 45, 127
1, 72390, Note_off_c, 1, 73, 0
1, 72390, Note_off_c, 1, 69, 0
1, 72390, Note_off_c, 1, 64, 0
1, 72407, Note_off_c, 1, 45, 0
1, 72419, Note_off_c, 1, 52, 0
1, 72420, Note_on_c, 1, 69, 127
1, 72420, Note_on_c, 1, 64, 127
1, 72420, Note_on_c, 1, 61, 127
1, 72420, Note_on_c, 1, 54, 127
1, 72420, Note_on_c, 1, 44, 127
1, 72449, Note_off_c, 1, 54, 0
1, 72450, Note_off_c, 1, 69, 0
1, 72450, Note_off_c, 1, 64, 0
1, 72450, Note_off_c, 1, 61, 0
1, 72450, Note_on_c, 1, 56, 127
1, 72467, Note_off_c, 1, 44, 0
1, 72479, Note_off_c, 1, 56, 0
1, 72480, Note_on_c, 1, 78, 127
1, 72480, Note_on_c, 1, 73, 127
1, 72480, Note_on_c, 1, 57, 127
1, 72480, Note_on_c, 1, 42, 127
1, 72509, Note_off_c, 1, 78, 0
1, 72509, Note_off_c, 1, 73, 0
1, 72509, Note_off_c, 1, 57, 0
1, 72510, Note_on_c, 1, 59, 127
1, 72527, Note_off_c, 1, 42, 0
1, 72539, Note_off_c, 1, 59, 0
1, 72540, Note_on_c, 1, 61, 127
1, 72540, Note_on_c, 1, 44, 127
1, 72587, Note_off_c, 1, 44, 0
1, 72599, Note_off_c, 1, 61, 0
1, 72600, Note_on_c, 1, 76, 127
1, 72600, Note_on_c, 1, 69, 127
1, 72600, Note_on_c, 1, 61, 127
1, 72600, Note_on_c, 1, 45, 127
1, 72629, Note_off_c, 1, 76, 0
1, 72629, Note_off_c, 1, 69, 0
1, 72629, Note_off_c, 1, 61, 0
1, 72630, Note_on_c, 1, 59, 127
1, 72647, Note_off_c, 1, 45, 0
1, 72659, Note_off_c, 1, 59, 0
1, 72660, Note_on_c, 1, 57, 127
1, 72660, Note_on_c, 1, 49, 127
1, 72689, Note_off_c, 1, 57, 0
1, 72690, Note_on_c, 1, 56, 127
1, 72707, Note_off_c, 1, 49, 0
1, 72719, Note_off_c, 1, 56, 0
1, 72720, Note_on_c, 1, 76, 127
1, 72720, Note_on_c, 1, 69, 127
1, 72720, Note_on_c, 1, 66, 127
1, 72720, Note_on_c, 1, 57, 127
1, 72720, Note_on_c, 1, 54, 127
1, 72720, Note_on_c, 1, 50, 127
1, 72749, Note_off_c, 1, 76, 0
1, 72750, Note_off_c, 1, 69, 0
1, 72750, Note_off_c, 1, 66, 0
1, 72750, Note_off_c, 1, 57, 0
1, 72767, Note_off_c, 1, 50, 0
1, 72779, Note_off_c, 1, 54, 0
1, 72780, Note_on_c, 1, 73, 127
1, 72780, Note_on_c, 1, 69, 127
1, 72780, Note_on_c, 1, 61, 127
1, 72780, Note_on_c, 1, 52, 127
1, 72780, Note_on_c, 1, 49, 127
1, 72809, Note_off_c, 1, 52, 0
1, 72810, Note_off_c, 1, 73, 0
1, 72810, Note_off_c, 1, 69, 0
1, 72810, Note_off_c, 1, 61, 0
1, 72810, Note_on_c, 1, 54, 127
1, 72827, Note_off_c, 1, 49, 0
1, 72839, Note_off_c, 1, 54, 0
1, 72840, Note_on_c, 1, 74, 127
1, 72840, Note_on_c, 1, 71, 127
1, 72840, Note_on_c, 1, 56, 127
1, 72840, Note_on_c, 1, 47, 127
1, 72869, Note_off_c, 1, 74, 0
1, 72869, Note_off_c, 1, 71, 0
1, 72869, Note_off_c, 1, 56, 0
1, 72870, Note_on_c, 1, 57, 127
1, 72887, Note_off_c, 1, 47, 0
1, 72899, Note_off_c, 1, 57, 0
1, 72900, Note_on_c, 1, 64, 127
1, 72900, Note_on_c, 1, 59, 127
1, 72900, Note_on_c, 1, 44, 127
1, 72947, Note_off_c, 1, 44, 0
1, 72959, Note_off_c, 1, 59, 0
1, 72960, Note_on_c, 1, 73, 127
1, 72960, Note_on_c, 1, 57, 127
1, 72960, Note_on_c, 1, 49, 127
1, 72989, Note_off_c, 1, 73, 0
1, 73007, Note_off_c, 1, 49, 0
1, 73019, Note_off_c, 1, 64, 0
1, 73020, Note_on_c, 1, 61, 127
1, 73020, Note_on_c, 1, 45, 127
1, 73067, Note_off_c, 1, 45, 0
1, 73079, Note_off_c, 1, 61, 0
1, 73080, Note_on_c, 1, 66, 127
1, 73080, Note_on_c, 1, 69, 127
1, 73080, Note_on_c, 1, 54, 127
1, 73110, Note_off_c, 1, 66, 0
1, 73110, Note_off_c, 1, 69, 0
1, 73127, Note_off_c, 1, 54, 0
1, 73139, Note_off_c, 1, 57, 0
1, 73140, Note_on_c, 1, 78, 127
1, 73140, Note_on_c, 1, 74, 127
1, 73140, Note_on_c, 1, 59, 127
1, 73140, Note_on_c, 1, 54, 127
1, 73140, Note_on_c, 1, 50, 127
1, 73169, Note_off_c, 1, 54, 0
1, 73170, Note_off_c, 1, 78, 0
1, 73170, Note_off_c, 1, 74, 0
1, 73170, Note_off_c, 1, 59, 0
1, 73170, Note_on_c, 1, 61, 127
1, 73170, Note_on_c, 1, 52, 127
1, 73187, Note_off_c, 1, 50, 0
1, 73199, Note_off_c, 1, 61, 0
1, 73199, Note_off_c, 1, 52, 0
1, 73200, Note_on_c, 1, 71, 127
1, 73200, Note_on_c, 1, 66, 127
1, 73200, Note_on_c, 1, 62, 127
1, 73200, Note_on_c, 1, 54, 127
1, 73200, Note_on_c, 1, 47, 127
1, 73229, Note_off_c, 1, 71, 0
1, 73229, Note_off_c, 1, 66, 0
1, 73229, Note_off_c, 1, 62, 0
1, 73229, Note_off_c, 1, 54, 0
1, 73230, Note_on_c, 1, 64, 127
1, 73230, Note_on_c, 1, 56, 127
1, 73247, Note_off_c, 1, 47, 0
1, 73259, Note_off_c, 1, 64, 0
1, 73259, Note_off_c, 1, 56, 0
1, 73260, Note_on_c, 1, 66, 127
1, 73260, Note_on_c, 1, 57, 127
1, 73260, Note_on_c, 1, 42, 127
1, 73307, Note_off_c, 1, 42, 0
1, 73319, Note_off_c, 1, 66, 0
1, 73319, Note_off_c, 1, 57, 0
1, 73320, Note_on_c, 1, 76, 127
1, 73320, Note_on_c, 1, 64, 127
1, 73320, Note_on_c, 1, 59, 127
1, 73320, Note_on_c, 1, 44, 127
1, 73349, Note_off_c, 1, 76, 0
1, 73367, Note_off_c, 1, 44, 0
1, 73379, Note_off_c, 1, 64, 0
1, 73379, Note_off_c, 1, 59, 0
1, 73380, Note_on_c, 1, 62, 127
1, 73380, Note_on_c, 1, 57, 127
1, 73380, Note_on_c, 1, 45, 127
1, 73409, Note_off_c, 1, 62, 0
1, 73410, Note_on_c, 1, 61, 127
1, 73427, Note_off_c, 1, 45, 0
1, 73439, Note_off_c, 1, 57, 0
1, 73439, Note_off_c, 1, 61, 0
1, 73440, Note_on_c, 1, 76, 127
1, 73440, Note_on_c, 1, 68, 127
1, 73440, Note_on_c, 1, 80, 127
1, 73440, Note_on_c, 1, 59, 127
1, 73440, Note_on_c, 1, 56, 127
1, 73440, Note_on_c, 1, 40, 127
1, 73469, Note_off_c, 1, 68, 0
1, 73470, Note_off_c, 1, 76, 0
1, 73470, Note_off_c, 1, 80, 0
1, 73487, Note_off_c, 1, 40, 0
1, 73499, Note_off_c, 1, 59, 0
1, 73499, Note_off_c, 1, 56, 0
1, 73500, Note_on_c, 1, 76, 127
1, 73500, Note_on_c, 1, 71, 127
1, 73500, Note_on_c, 1, 68, 127
1, 73500, Note_on_c, 1, 56, 127
1, 73500, Note_on_c, 1, 59, 127
1, 73500, Note_on_c, 1, 52, 127
1, 73523, Note_off_c, 1, 52, 0
1, 73529, Note_off_c, 1, 56, 0
1, 73530, Note_off_c, 1, 76, 0
1, 73530, Note_off_c, 1, 71, 0
1, 73530, Note_off_c, 1, 68, 0
1, 73530, Note_on_c, 1, 57, 127
1, 73530, Note_on_c, 1, 54, 127
1, 73553, Note_off_c, 1, 54, 0
1, 73559, Note_off_c, 1, 57, 0
1, 73560, Note_on_c, 1, 74, 127
1, 73560, Note_on_c, 1, 64, 127
1, 73589, Note_off_c, 1, 74, 0
1, 73589, Note_off_c, 1, 64, 0
1, 73590, Note_on_c, 1, 61, 127
1, 73619, Note_off_c, 1, 59, 0
1, 73619, Note_off_c, 1, 61, 0
1, 73620, Note_on_c, 1, 62, 127
1, 73620, Note_on_c, 1, 56, 127
1, 73620, Note_on_c, 1, 59, 127
1, 73667, Note_off_c, 1, 59, 0
1, 73679, Note_off_c, 1, 62, 0
1, 73679, Note_off_c, 1, 56, 0
1, 73680, Note_on_c, 1, 71, 127
1, 73680, Note_on_c, 1, 64, 127
1, 73680, Note_on_c, 1, 62, 127
1, 73680, Note_on_c, 1, 52, 127
1, 73680, Note_on_c, 1, 56, 127
1, 73709, Note_off_c, 1, 71, 0
1, 73709, Note_off_c, 1, 64, 0
1, 73727, Note_off_c, 1, 56, 0
1, 73739, Note_off_c, 1, 52, 0
1, 73800, Note_on_c, 1, 69, 127
1, 73800, Note_on_c, 1, 76, 127
1, 73800, Note_on_c, 1, 57, 127
1, 73830, Note_off_c, 1, 69, 0
1, 73830, Note_off_c, 1, 76, 0
1, 73859, Note_off_c, 1, 62, 0
1, 73859, Note_off_c, 1, 57, 0
1, 73860, Note_on_c, 1, 81, 127
1, 73860, Note_on_c, 1, 73, 127
1, 73860, Note_on_c, 1, 76, 127
1, 73860, Note_on_c, 1, 61, 127
1, 73860, Note_on_c, 1, 52, 127
1, 73860, Note_on_c, 1, 45, 127
1, 73883, Note_off_c, 1, 45, 0
1, 73889, Note_off_c, 1, 61, 0
1, 73889, Note_off_c, 1, 52, 0
1, 73890, Note_off_c, 1, 81, 0
1, 73890, Note_off_c, 1, 73, 0
1, 73890, Note_off_c, 1, 76, 0
1, 73890, Note_on_c, 1, 59, 127
1, 73890, Note_on_c, 1, 50, 127
1, 73890, Note_on_c, 1, 47, 127
1, 73913, Note_off_c, 1, 47, 0
1, 73919, Note_off_c, 1, 59, 0
1, 73919, Note_off_c, 1, 50, 0
1, 73920, Note_on_c, 1, 76, 127
1, 73920, Note_on_c, 1, 69, 127
1, 73920, Note_on_c, 1, 57, 127
1, 73920, Note_on_c, 1, 52, 127
1, 73920, Note_on_c, 1, 49, 127
1, 73949, Note_off_c, 1, 76, 0
1, 73949, Note_off_c, 1, 69, 0
1, 73949, Note_off_c, 1, 57, 0
1, 73950, Note_on_c, 1, 59, 127
1, 73967, Note_off_c, 1, 49, 0
1, 73979, Note_off_c, 1, 52, 0
1, 73979, Note_off_c, 1, 59, 0
1, 73980, Note_on_c, 1, 61, 127
1, 73980, Note_on_c, 1, 45, 127
1, 73980, Note_on_c, 1, 52, 127
1, 74009, Note_off_c, 1, 61, 0
1, 74010, Note_on_c, 1, 62, 127
1, 74027, Note_off_c, 1, 52, 0
1, 74039, Note_off_c, 1, 45, 0
1, 74039, Note_off_c, 1, 62, 0
1, 74040, Note_on_c, 1, 73, 127
1, 74040, Note_on_c, 1, 69, 127
1, 74040, Note_on_c, 1, 64, 127
1, 74040, Note_on_c, 1, 55, 127
1, 74040, Note_on_c, 1, 49, 127
1, 74069, Note_off_c, 1, 73, 0
1, 74069, Note_off_c, 1, 69, 0
1, 74069, Note_off_c, 1, 55, 0
1, 74070, Note_on_c, 1, 54, 127
1, 74087, Note_off_c, 1, 49, 0
1, 74099, Note_off_c, 1, 64, 0
1, 74099, Note_off_c, 1, 54, 0
1, 74100, Note_on_c, 1, 64, 127
1, 74100, Note_on_c, 1, 55, 127
1, 74100, Note_on_c, 1, 45, 127
1, 74147, Note_off_c, 1, 45, 0
1, 74159, Note_off_c, 1, 64, 0
1, 74159, Note_off_c, 1, 55, 0
1, 74160, Note_on_c, 1, 78, 127
1, 74160, Note_on_c, 1, 69, 127
1, 74160, Note_on_c, 1, 81, 127
1, 74160, Note_on_c, 1, 74, 127
1, 74160, Note_on_c, 1, 64, 127
1, 74160, Note_on_c, 1, 54, 127
1, 74160, Note_on_c, 1, 38, 127
1, 74189, Note_off_c, 1, 69, 0
1, 74190, Note_off_c, 1, 78, 0
1, 74190, Note_off_c, 1, 81, 0
1, 74190, Note_off_c, 1, 74, 0
1, 74207, Note_off_c, 1, 38, 0
1, 74219, Note_off_c, 1, 64, 0
1, 74219, Note_off_c, 1, 54, 0
1, 74220, Note_on_c, 1, 78, 127
1, 74220, Note_on_c, 1, 69, 127
1, 74220, Note_on_c, 1, 62, 127
1, 74220, Note_on_c, 1, 57, 127
1, 74220, Note_on_c, 1, 50, 127
1, 74243, Note_off_c, 1, 50, 0
1, 74250, Note_off_c, 1, 78, 0
1, 74250, Note_off_c, 1, 69, 0
1, 74250, Note_off_c, 1, 62, 0
1, 74250, Note_on_c, 1, 61, 127
1, 74250, Note_on_c, 1, 52, 127
1, 74273, Note_off_c, 1, 52, 0
1, 74279, Note_off_c, 1, 61, 0
1, 74280, Note_on_c, 1, 74, 127
1, 74280, Note_on_c, 1, 54, 127
1, 74309, Note_off_c, 1, 74, 0
1, 74310, Note_on_c, 1, 64, 127
1, 74327, Note_off_c, 1, 54, 0
1, 74339, Note_off_c, 1, 57, 0
1, 74339, Note_off_c, 1, 64, 0
1, 74340, Note_on_c, 1, 69, 127
1, 74340, Note_on_c, 1, 66, 127
1, 74340, Note_on_c, 1, 54, 127
1, 74340, Note_on_c, 1, 57, 127
1, 74387, Note_off_c, 1, 57, 0
1, 74399, Note_off_c, 1, 66, 0
1, 74399, Note_off_c, 1, 54, 0
1, 74400, Note_on_c, 1, 72, 127
1, 74400, Note_on_c, 1, 50, 127
1, 74429, Note_off_c, 1, 72, 0
1, 74459, Note_off_c, 1, 50, 0
1, 74460, Note_off_c, 1, 69, 0
1, 74520, Note_on_c, 1, 71, 127
1, 74520, Note_on_c, 1, 62, 127
1, 74520, Note_on_c, 1, 83, 127
1, 74520, Note_on_c, 1, 79, 127
1, 74520, Note_on_c, 1, 59, 127
1, 74520, Note_on_c, 1, 55, 127
1, 74549, Note_off_c, 1, 71, 0
1, 74550, Note_off_c, 1, 83, 0
1, 74550, Note_off_c, 1, 79, 0
1, 74567, Note_off_c, 1, 55, 0
1, 74579, Note_off_c, 1, 62, 0
1, 74580, Note_on_c, 1, 64, 127
1, 74610, Note_off_c, 1, 64, 0
1, 74640, Note_on_c, 1, 76, 127
1, 74640, Note_on_c, 1, 67, 127
1, 74640, Note_on_c, 1, 61, 127
1, 74640, Note_on_c, 1, 52, 127
1, 74669, Note_off_c, 1, 59, 0
1, 74669, Note_off_c, 1, 76, 0
1, 74669, Note_off_c, 1, 67, 0
1, 74687, Note_off_c, 1, 52, 0
1, 74699, Note_off_c, 1, 61, 0
1, 74700, Note_on_c, 1, 71, 127
1, 74700, Note_on_c, 1, 62, 127
1, 74700, Note_on_c, 1, 55, 127
1, 74700, Note_on_c, 1, 50, 127
1, 74729, Note_off_c, 1, 55, 0
1, 74730, Note_on_c, 1, 54, 127
1, 74747, Note_off_c, 1, 50, 0
1, 74759, Note_off_c, 1, 71, 0
1, 74759, Note_off_c, 1, 62, 0
1, 74759, Note_off_c, 1, 54, 0
1, 74760, Note_on_c, 1, 69, 127
1, 74760, Note_on_c, 1, 64, 127
1, 74760, Note_on_c, 1, 52, 127
1, 74760, Note_on_c, 1, 49, 127
1, 74807, Note_off_c, 1, 49, 0
1, 74819, Note_off_c, 1, 69, 0
1, 74819, Note_off_c, 1, 64, 0
1, 74819, Note_off_c, 1, 52, 0
1, 74820, Note_on_c, 1, 67, 127
1, 74820, Note_on_c, 1, 62, 127
1, 74820, Note_on_c, 1, 57, 127
1, 74820, Note_on_c, 1, 50, 127
1, 74849, Note_off_c, 1, 67, 0
1, 74850, Note_on_c, 1, 66, 127
1, 74867, Note_off_c, 1, 50, 0
1, 74879, Note_off_c, 1, 62, 0
1, 74879, Note_off_c, 1, 57, 0
1, 74879, Note_off_c, 1, 66, 0
1, 74880, Note_on_c, 1, 64, 127
1, 74880, Note_on_c, 1, 79, 127
1, 74880, Note_on_c, 1, 61, 127
1, 74880, Note_on_c, 1, 57, 127
1, 74910, Note_off_c, 1, 79, 0
1, 74939, Note_off_c, 1, 64, 0
1, 74939, Note_off_c, 1, 61, 0
1, 74939, Note_off_c, 1, 57, 0
1, 74940, Note_on_c, 1, 61, 127
1, 74940, Note_on_c, 1, 76, 127
1, 74940, Note_on_c, 1, 73, 127
1, 74940, Note_on_c, 1, 69, 127
1, 74940, Note_on_c, 1, 64, 127
1, 74940, Note_on_c, 1, 45, 127
1, 74969, Note_off_c, 1, 61, 0
1, 74969, Note_off_c, 1, 45, 0
1, 74970, Note_off_c, 1, 76, 0
1, 74970, Note_off_c, 1, 73, 0
1, 74970, Note_off_c, 1, 69, 0
1, 74970, Note_on_c, 1, 62, 127
1, 74970, Note_on_c, 1, 47, 127
1, 74999, Note_off_c, 1, 62, 0
1, 74999, Note_off_c, 1, 47, 0
1, 75000, Note_on_c, 1, 49, 127
1, 75030, Note_on_c, 1, 66, 127
1, 75030, Note_on_c, 1, 50, 127
1, 75047, Note_off_c, 1, 49, 0
1, 75059, Note_off_c, 1, 64, 0
1, 75059, Note_off_c, 1, 66, 0
1, 75059, Note_off_c, 1, 50, 0
1, 75060, Note_on_c, 1, 76, 127
1, 75060, Note_on_c, 1, 67, 127
1, 75060, Note_on_c, 1, 61, 127
1, 75060, Note_on_c, 1, 52, 127
1, 75119, Note_off_c, 1, 67, 0
1, 75119, Note_off_c, 1, 61, 0
1, 75119, Note_off_c, 1, 52, 0
1, 75120, Note_on_c, 1, 57, 127
1, 75120, Note_on_c, 1, 49, 127
1, 75179, Note_off_c, 1, 57, 0
1, 75179, Note_off_c, 1, 49, 0
1, 75180, Note_off_c, 1, 76, 0
1, 75180, Note_on_c, 1, 73, 127
1, 75180, Note_on_c, 1, 45, 127
1, 75239, Note_off_c, 1, 73, 0
1, 75239, Note_off_c, 1, 45, 0
1, 75240, Note_on_c, 1, 69, 127
1, 75240, Note_on_c, 1, 62, 127
1, 75240, Note_on_c, 1, 50, 127
1, 75299, Note_off_c, 1, 69, 0
1, 75299, Note_off_c, 1, 62, 0
1, 75299, Note_off_c, 1, 50, 0
1, 75300, Note_on_c, 1, 71, 127
1, 75300, Note_on_c, 1, 66, 127
1, 75300, Note_on_c, 1, 62, 127
1, 75300, Note_on_c, 1, 54, 127
1, 75300, Note_on_c, 1, 49, 127
1, 75329, Note_off_c, 1, 71, 0
1, 75329, Note_off_c, 1, 66, 0
1, 75330, Note_on_c, 1, 73, 127
1, 75330, Note_on_c, 1, 64, 127
1, 75347, Note_off_c, 1, 49, 0
1, 75359, Note_off_c, 1, 54, 0
1, 75359, Note_off_c, 1, 73, 0
1, 75359, Note_off_c, 1, 64, 0
1, 75360, Note_on_c, 1, 74, 127
1, 75360, Note_on_c, 1, 59, 127
1, 75360, Note_on_c, 1, 47, 127
1, 75389, Note_off_c, 1, 74, 0
1, 75390, Note_on_c, 1, 76, 127
1, 75390, Note_on_c, 1, 68, 127
1, 75407, Note_off_c, 1, 47, 0
1, 75419, Note_off_c, 1, 62, 0
1, 75419, Note_off_c, 1, 59, 0
1, 75419, Note_off_c, 1, 76, 0
1, 75419, Note_off_c, 1, 68, 0
1, 75420, Note_on_c, 1, 78, 127
1, 75420, Note_on_c, 1, 69, 127
1, 75420, Note_on_c, 1, 61, 127
1, 75420, Note_on_c, 1, 57, 127
1, 75420, Note_on_c, 1, 45, 127
1, 75467, Note_off_c, 1, 45, 0
1, 75479, Note_off_c, 1, 78, 0
1, 75479, Note_off_c, 1, 69, 0
1, 75479, Note_off_c, 1, 61, 0
1, 75479, Note_off_c, 1, 57, 0
1, 75480, Note_on_c, 1, 76, 127
1, 75480, Note_on_c, 1, 71, 127
1, 75480, Note_on_c, 1, 59, 127
1, 75480, Note_on_c, 1, 56, 127
1, 75480, Note_on_c, 1, 44, 127
1, 75527, Note_off_c, 1, 44, 0
1, 75539, Note_off_c, 1, 76, 0
1, 75539, Note_off_c, 1, 71, 0
1, 75539, Note_off_c, 1, 59, 0
1, 75539, Note_off_c, 1, 56, 0
1, 75540, Note_on_c, 1, 74, 127
1, 75540, Note_on_c, 1, 69, 127
1, 75540, Note_on_c, 1, 64, 127
1, 75540, Note_on_c, 1, 57, 127
1, 75540, Note_on_c, 1, 45, 127
1, 75569, Note_off_c, 1, 74, 0
1, 75570, Note_on_c, 1, 73, 127
1, 75587, Note_off_c, 1, 45, 0
1, 75599, Note_off_c, 1, 69, 0
1, 75599, Note_off_c, 1, 64, 0
1, 75599, Note_off_c, 1, 57, 0
1, 75599, Note_off_c, 1, 73, 0
1, 75600, Note_on_c, 1, 71, 127
1, 75600, Note_on_c, 1, 68, 127
1, 75600, Note_on_c, 1, 64, 127
1, 75600, Note_on_c, 1, 52, 127
1, 75630, Note_on_c, 1, 69, 127
1, 75659, Note_off_c, 1, 71, 0
1, 75659, Note_off_c, 1, 68, 0
1, 75659, Note_off_c, 1, 52, 0
1, 75659, Note_off_c, 1, 69, 0
1, 75660, Note_on_c, 1, 76, 127
1, 75660, Note_on_c, 1, 40, 127
1, 75683, Note_off_c, 1, 76, 0
1, 75683, Note_off_c, 1, 40, 0
1, 75690, Note_on_c, 1, 54, 127
1, 75690, Note_on_c, 1, 42, 127
1, 75713, Note_off_c, 1, 42, 0
1, 75719, Note_off_c, 1, 54, 0
1, 75720, Note_on_c, 1, 56, 127
1, 75720, Note_on_c, 1, 44, 127
1, 75750, Note_on_c, 1, 73, 127
1, 75767, Note_off_c, 1, 44, 0
1, 75779, Note_off_c, 1, 56, 0
1, 75779, Note_off_c, 1, 73, 0
1, 75780, Note_on_c, 1, 74, 127
1, 75780, Note_on_c, 1, 59, 127
1, 75780, Note_on_c, 1, 47, 127
1, 75827, Note_off_c, 1, 47, 0
1, 75839, Note_off_c, 1, 74, 0
1, 75839, Note_off_c, 1, 59, 0
1, 75870, Note_on_c, 1, 62, 127
1, 75893, Note_off_c, 1, 62, 0
1, 75900, Note_on_c, 1, 61, 127
1, 75923, Note_off_c, 1, 61, 0
1, 75960, Note_on_c, 1, 57, 127
1, 75960, Note_on_c, 1, 45, 127
1, 76007, Note_off_c, 1, 45, 0
1, 76019, Note_off_c, 1, 57, 0
1, 76020, Note_off_c, 1, 64, 0
1, 76140, Note_on_c, 1, 49, 127
1, 76187, Note_off_c, 1, 49, 0
1, 76260, Note_on_c, 1, 79, 127
1, 76319, Note_off_c, 1, 79, 0
1, 76320, Note_on_c, 1, 78, 127
1, 76320, Note_on_c, 1, 66, 127
1, 76320, Note_on_c, 1, 50, 127
1, 76619, Note_off_c, 1, 50, 0
1, 76680, Note_on_c, 1, 51, 127
1, 76739, Note_off_c, 1, 78, 0
1, 76739, Note_off_c, 1, 51, 0
1, 76740, Note_on_c, 1, 75, 127
1, 76740, Note_on_c, 1, 63, 127
1, 76787, Note_off_c, 1, 66, 0
1, 76859, Note_off_c, 1, 75, 0
1, 76859, Note_off_c, 1, 63, 0
1, 76980, Note_on_c, 1, 81, 127
1, 77039, Note_off_c, 1, 81, 0
1, 77040, Note_on_c, 1, 80, 127
1, 77459, Note_off_c, 1, 80, 0
1, 77460, Note_on_c, 1, 83, 127
1, 77483, Note_off_c, 1, 83, 0
1, 77940, Note_on_c, 1, 67, 127
1, 77970, Note_on_c, 1, 85, 127
1, 77993, Note_off_c, 1, 85, 0
1, 78000, Note_on_c, 1, 88, 127
1, 78023, Note_off_c, 1, 88, 0
1, 78059, Note_off_c, 1, 67, 0
1, 78360, Note_on_c, 1, 86, 127
1, 78383, Note_off_c, 1, 86, 0
1, 80640, Note_on_c, 1, 61, 127
1, 80640, Note_on_c, 1, 66, 127
1, 80640, Note_on_c, 1, 57, 127
1, 80640, Note_on_c, 1, 42, 127
1, 80700, Note_on_c, 1, 73, 127
1, 80759, Note_off_c, 1, 73, 0
1, 80760, Note_on_c, 1, 78, 127
1, 80819, Note_off_c, 1, 78, 0
1, 80880, Note_on_c, 1, 69, 127
1, 80939, Note_off_c, 1, 69, 0
1, 81060, Note_on_c, 1, 71, 127
1, 81119, Note_off_c, 1, 71, 0
1, 81360, Note_off_c, 1, 61, 0
1, 81360, Note_on_c, 1, 63, 127
1, 81480, Note_on_c, 1, 75, 127
1, 81539, Note_off_c, 1, 75, 0
1, 81570, Note_on_c, 1, 76, 127
1, 81599, Note_off_c, 1, 76, 0
1, 81600, Note_off_c, 1, 66, 0
1, 81600, Note_off_c, 1, 57, 0
1, 81600, Note_off_c, 1, 42, 0
1, 81600, Note_off_c, 1, 63, 0
1, 81600, Note_on_c, 1, 64, 127
1, 81600, Note_on_c, 1, 59, 127
1, 81600, Note_on_c, 1, 44, 127
1, 81840, Note_on_c, 1, 68, 127
1, 81899, Note_off_c, 1, 68, 0
1, 81960, Note_off_c, 1, 64, 0
1, 81960, Note_on_c, 1, 74, 127
1, 81960, Note_on_c, 1, 62, 127
1, 81989, Note_off_c, 1, 74, 0
1, 82080, Note_off_c, 1, 59, 0
1, 82080, Note_off_c, 1, 44, 0
1, 82080, Note_off_c, 1, 62, 0
1, 82080, Note_on_c, 1, 46, 127
1, 82320, Note_on_c, 1, 79, 127
1, 82320, Note_on_c, 1, 67, 127
1, 82379, Note_off_c, 1, 79, 0
1, 82560, Note_off_c, 1, 67, 0
1, 82680, Note_on_c, 1, 70, 127
1, 82739, Note_off_c, 1, 70, 0
1, 83280, Note_off_c, 1, 46, 0
1, 83280, Note_on_c, 1, 47, 127
1, 83400, Note_off_c, 1, 47, 0
1, 83400, Note_on_c, 1, 50, 127
1, 83520, Note_off_c, 1, 50, 0
1, 83580, Note_on_c, 1, 66, 127
1, 83639, Note_off_c, 1, 66, 0
1, 83640, Note_on_c, 1, 54, 127
1, 83759, Note_off_c, 1, 54, 0
1, 83760, Note_on_c, 1, 71, 127
1, 83760, Note_on_c, 1, 66, 127
1, 83760, Note_on_c, 1, 62, 127
1, 83760, Note_on_c, 1, 59, 127
1, 83760, Note_on_c, 1, 47, 127
1, 83879, Note_off_c, 1, 71, 0
1, 83879, Note_off_c, 1, 66, 0
1, 83879, Note_off_c, 1, 62, 0
1, 83879, Note_off_c, 1, 59, 0
1, 83879, Note_off_c, 1, 47, 0
1, 83880, Note_on_c, 1, 74, 127
1, 83880, Note_on_c, 1, 71, 127
1, 83880, Note_on_c, 1, 66, 127
1, 83975, Note_off_c, 1, 74, 0
1, 83975, Note_off_c, 1, 71, 0
1, 83975, Note_off_c, 1, 66, 0
1, 84000, Note_on_c, 1, 73, 127
1, 84000, Note_on_c, 1, 66, 127
1, 84000, Note_on_c, 1, 61, 127
1, 84000, Note_on_c, 1, 58, 127
1, 84000, Note_on_c, 1, 46, 127
1, 84119, Note_off_c, 1, 73, 0
1, 84119, Note_off_c, 1, 66, 0
1, 84119, Note_off_c, 1, 61, 0
1, 84119, Note_off_c, 1, 58, 0
1, 84119, Note_off_c, 1, 46, 0
1, 84120, Note_on_c, 1, 78, 127
1, 84120, Note_on_c, 1, 73, 127
1, 84120, Note_on_c, 1, 66, 127
1, 84180, Note_on_c, 1, 58, 127
1, 84180, Note_on_c, 1, 54, 127
1, 84180, Note_on_c, 1, 42, 127
1, 84215, Note_off_c, 1, 73, 0
1, 84239, Note_off_c, 1, 78, 0
1, 84239, Note_off_c, 1, 66, 0
1, 84239, Note_off_c, 1, 58, 0
1, 84239, Note_off_c, 1, 54, 0
1, 84239, Note_off_c, 1, 42, 0
1, 84240, Note_on_c, 1, 74, 127
1, 84240, Note_on_c, 1, 66, 127
1, 84240, Note_on_c, 1, 59, 127
1, 84240, Note_on_c, 1, 47, 127
1, 84299, Note_off_c, 1, 74, 0
1, 84300, Note_on_c, 1, 71, 127
1, 84347, Note_off_c, 1, 71, 0
1, 84359, Note_off_c, 1, 66, 0
1, 84359, Note_off_c, 1, 59, 0
1, 84359, Note_off_c, 1, 47, 0
1, 84360, Note_on_c, 1, 78, 127
1, 84360, Note_on_c, 1, 74, 127
1, 84360, Note_on_c, 1, 71, 127
1, 84407, Note_off_c, 1, 74, 0
1, 84407, Note_off_c, 1, 71, 0
1, 84419, Note_off_c, 1, 78, 0
1, 84420, Note_on_c, 1, 74, 127
1, 84420, Note_on_c, 1, 71, 127
1, 84420, Note_on_c, 1, 66, 127
1, 84420, Note_on_c, 1, 59, 127
1, 84467, Note_off_c, 1, 71, 0
1, 84479, Note_off_c, 1, 74, 0
1, 84479, Note_off_c, 1, 66, 0
1, 84479, Note_off_c, 1, 59, 0
1, 84480, Note_on_c, 1, 71, 127
1, 84480, Note_on_c, 1, 67, 127
1, 84480, Note_on_c, 1, 64, 127
1, 84480, Note_on_c, 1, 55, 127
1, 84539, Note_off_c, 1, 71, 0
1, 84539, Note_off_c, 1, 67, 0
1, 84539, Note_off_c, 1, 64, 0
1, 84539, Note_off_c, 1, 55, 0
1, 84540, Note_on_c, 1, 71, 127
1, 84540, Note_on_c, 1, 67, 127
1, 84540, Note_on_c, 1, 64, 127
1, 84540, Note_on_c, 1, 55, 127
1, 84599, Note_off_c, 1, 71, 0
1, 84599, Note_off_c, 1, 67, 0
1, 84599, Note_off_c, 1, 64, 0
1, 84599, Note_off_c, 1, 55, 0
1, 84600, Note_on_c, 1, 71, 127
1, 84600, Note_on_c, 1, 66, 127
1, 84600, Note_on_c, 1, 63, 127
1, 84600, Note_on_c, 1, 59, 127
1, 84659, Note_off_c, 1, 71, 0
1, 84659, Note_off_c, 1, 66, 0
1, 84659, Note_off_c, 1, 63, 0
1, 84659, Note_off_c, 1, 59, 0
1, 84660, Note_on_c, 1, 73, 127
1, 84660, Note_on_c, 1, 67, 127
1, 84660, Note_on_c, 1, 64, 127
1, 84660, Note_on_c, 1, 55, 127
1, 84689, Note_off_c, 1, 73, 0
1, 84689, Note_off_c, 1, 67, 0
1, 84689, Note_off_c, 1, 64, 0
1, 84690, Note_on_c, 1, 75, 127
1, 84690, Note_on_c, 1, 69, 127
1, 84690, Note_on_c, 1, 66, 127
1, 84719, Note_off_c, 1, 55, 0
1, 84719, Note_off_c, 1, 75, 0
1, 84719, Note_off_c, 1, 69, 0
1, 84719, Note_off_c, 1, 66, 0
1, 84720, Note_on_c, 1, 76, 127
1, 84720, Note_on_c, 1, 71, 127
1, 84720, Note_on_c, 1, 67, 127
1, 84720, Note_on_c, 1, 52, 127
1, 84779, Note_off_c, 1, 76, 0
1, 84779, Note_off_c, 1, 71, 0
1, 84779, Note_off_c, 1, 67, 0
1, 84779, Note_off_c, 1, 52, 0
1, 84780, Note_on_c, 1, 71, 127
1, 84780, Note_on_c, 1, 67, 127
1, 84780, Note_on_c, 1, 64, 127
1, 84780, Note_on_c, 1, 76, 127
1, 84780, Note_on_c, 1, 52, 127
1, 84827, Note_off_c, 1, 64, 0
1, 84839, Note_off_c, 1, 71, 0
1, 84839, Note_off_c, 1, 67, 0
1, 84839, Note_off_c, 1, 76, 0
1, 84839, Note_off_c, 1, 52, 0
1, 84840, Note_on_c, 1, 83, 127
1, 84840, Note_on_c, 1, 76, 127
1, 84840, Note_on_c, 1, 67, 127
1, 84840, Note_on_c, 1, 64, 127
1, 84840, Note_on_c, 1, 52, 127
1, 84840, Note_on_c, 1, 71, 127
1, 84899, Note_off_c, 1, 64, 0
1, 84899, Note_off_c, 1, 52, 0
1, 84900, Note_on_c, 1, 69, 127
1, 84900, Note_on_c, 1, 54, 127
1, 84929, Note_off_c, 1, 69, 0
1, 84929, Note_off_c, 1, 54, 0
1, 84930, Note_on_c, 1, 55, 127
1, 84935, Note_off_c, 1, 83, 0
1, 84935, Note_off_c, 1, 67, 0
1, 84959, Note_off_c, 1, 76, 0
1, 84959, Note_off_c, 1, 71, 0
1, 84959, Note_off_c, 1, 55, 0
1, 84960, Note_on_c, 1, 73, 127
1, 84960, Note_on_c, 1, 69, 127
1, 84960, Note_on_c, 1, 64, 127
1, 84960, Note_on_c, 1, 57, 127
1, 85019, Note_off_c, 1, 73, 0
1, 85019, Note_off_c, 1, 69, 0
1, 85019, Note_off_c, 1, 64, 0
1, 85019, Note_off_c, 1, 57, 0
1, 85020, Note_on_c, 1, 73, 127
1, 85020, Note_on_c, 1, 69, 127
1, 85020, Note_on_c, 1, 64, 127
1, 85020, Note_on_c, 1, 57, 127
1, 85020, Note_on_c, 1, 45, 127
1, 85079, Note_off_c, 1, 73, 0
1, 85079, Note_off_c, 1, 69, 0
1, 85079, Note_off_c, 1, 64, 0
1, 85079, Note_off_c, 1, 57, 0
1, 85079, Note_off_c, 1, 45, 0
1, 85080, Note_on_c, 1, 76, 127
1, 85080, Note_on_c, 1, 73, 127
1, 85080, Note_on_c, 1, 69, 127
1, 85127, Note_off_c, 1, 73, 0
1, 85127, Note_off_c, 1, 69, 0
1, 85139, Note_off_c, 1, 76, 0
1, 85140, Note_on_c, 1, 73, 127
1, 85140, Note_on_c, 1, 69, 127
1, 85140, Note_on_c, 1, 64, 127
1, 85140, Note_on_c, 1, 57, 127
1, 85187, Note_off_c, 1, 69, 0
1, 85199, Note_off_c, 1, 73, 0
1, 85199, Note_off_c, 1, 64, 0
1, 85199, Note_off_c, 1, 57, 0
1, 85200, Note_on_c, 1, 69, 127
1, 85200, Note_on_c, 1, 66, 127
1, 85200, Note_on_c, 1, 62, 127
1, 85200, Note_on_c, 1, 54, 127
1, 85259, Note_off_c, 1, 69, 0
1, 85259, Note_off_c, 1, 66, 0
1, 85259, Note_off_c, 1, 62, 0
1, 85259, Note_off_c, 1, 54, 0
1, 85260, Note_on_c, 1, 69, 127
1, 85260, Note_on_c, 1, 66, 127
1, 85260, Note_on_c, 1, 62, 127
1, 85260, Note_on_c, 1, 54, 127
1, 85319, Note_off_c, 1, 69, 0
1, 85319, Note_off_c, 1, 66, 0
1, 85319, Note_off_c, 1, 62, 0
1, 85319, Note_off_c, 1, 54, 0
1, 85320, Note_on_c, 1, 69, 127
1, 85320, Note_on_c, 1, 64, 127
1, 85320, Note_on_c, 1, 59, 127
1, 85320, Note_on_c, 1, 61, 127
1, 85320, Note_on_c, 1, 57, 127
1, 85367, Note_off_c, 1, 59, 0
1, 85379, Note_off_c, 1, 69, 0
1, 85379, Note_off_c, 1, 64, 0
1, 85379, Note_off_c, 1, 61, 0
1, 85379, Note_off_c, 1, 57, 0
1, 85380, Note_on_c, 1, 71, 127
1, 85380, Note_on_c, 1, 66, 127
1, 85380, Note_on_c, 1, 62, 127
1, 85380, Note_on_c, 1, 54, 127
1, 85409, Note_off_c, 1, 71, 0
1, 85409, Note_off_c, 1, 66, 0
1, 85409, Note_off_c, 1, 62, 0
1, 85410, Note_on_c, 1, 73, 127
1, 85410, Note_on_c, 1, 67, 127
1, 85410, Note_on_c, 1, 64, 127
1, 85439, Note_off_c, 1, 54, 0
1, 85439, Note_off_c, 1, 73, 0
1, 85439, Note_off_c, 1, 67, 0
1, 85439, Note_off_c, 1, 64, 0
1, 85440, Note_on_c, 1, 74, 127
1, 85440, Note_on_c, 1, 69, 127
1, 85440, Note_on_c, 1, 66, 127
1, 85440, Note_on_c, 1, 50, 127
1, 85499, Note_off_c, 1, 74, 0
1, 85499, Note_off_c, 1, 69, 0
1, 85499, Note_off_c, 1, 66, 0
1, 85499, Note_off_c, 1, 50, 0
1, 85500, Note_on_c, 1, 69, 127
1, 85500, Note_on_c, 1, 66, 127
1, 85500, Note_on_c, 1, 62, 127
1, 85500, Note_on_c, 1, 74, 127
1, 85500, Note_on_c, 1, 50, 127
1, 85547, Note_off_c, 1, 62, 0
1, 85559, Note_off_c, 1, 69, 0
1, 85559, Note_off_c, 1, 66, 0
1, 85559, Note_off_c, 1, 74, 0
1, 85559, Note_off_c, 1, 50, 0
1, 85560, Note_on_c, 1, 81, 127
1, 85560, Note_on_c, 1, 74, 127
1, 85560, Note_on_c, 1, 66, 127
1, 85560, Note_on_c, 1, 62, 127
1, 85560, Note_on_c, 1, 50, 127
1, 85560, Note_on_c, 1, 69, 127
1, 85619, Note_off_c, 1, 62, 0
1, 85619, Note_off_c, 1, 50, 0
1, 85620, Note_on_c, 1, 67, 127
1, 85620, Note_on_c, 1, 52, 127
1, 85649, Note_off_c, 1, 67, 0
1, 85649, Note_off_c, 1, 52, 0
1, 85650, Note_on_c, 1, 54, 127
1, 85655, Note_off_c, 1, 81, 0
1, 85655, Note_off_c, 1, 66, 0
1, 85679, Note_off_c, 1, 74, 0
1, 85679, Note_off_c, 1, 69, 0
1, 85679, Note_off_c, 1, 54, 0
1, 85680, Note_on_c, 1, 71, 127
1, 85680, Note_on_c, 1, 67, 127
1, 85680, Note_on_c, 1, 62, 127
1, 85680, Note_on_c, 1, 55, 127
1, 85739, Note_off_c, 1, 67, 0
1, 85739, Note_off_c, 1, 62, 0
1, 85739, Note_off_c, 1, 55, 0
1, 85740, Note_on_c, 1, 79, 127
1, 85740, Note_on_c, 1, 43, 127
1, 85787, Note_off_c, 1, 79, 0
1, 85799, Note_off_c, 1, 71, 0
1, 85799, Note_off_c, 1, 43, 0
1, 85800, Note_on_c, 1, 76, 127
1, 85800, Note_on_c, 1, 69, 127
1, 85800, Note_on_c, 1, 64, 127
1, 85800, Note_on_c, 1, 60, 127
1, 85847, Note_off_c, 1, 76, 0
1, 85859, Note_off_c, 1, 69, 0
1, 85859, Note_off_c, 1, 64, 0
1, 85859, Note_off_c, 1, 60, 0
1, 85860, Note_on_c, 1, 81, 127
1, 85860, Note_on_c, 1, 72, 127
1, 85860, Note_on_c, 1, 64, 127
1, 85860, Note_on_c, 1, 69, 127
1, 85860, Note_on_c, 1, 60, 127
1, 85907, Note_off_c, 1, 81, 0
1, 85907, Note_off_c, 1, 72, 0
1, 85907, Note_off_c, 1, 64, 0
1, 85919, Note_off_c, 1, 69, 0
1, 85919, Note_off_c, 1, 60, 0
1, 85920, Note_on_c, 1, 81, 127
1, 85920, Note_on_c, 1, 71, 127
1, 85920, Note_on_c, 1, 66, 127
1, 85920, Note_on_c, 1, 78, 127
1, 85920, Note_on_c, 1, 51, 127
1, 85920, Note_on_c, 1, 69, 127
1, 86039, Note_off_c, 1, 78, 0
1, 86250, Note_on_c, 1, 67, 127
1, 86279, Note_off_c, 1, 51, 0
1, 86279, Note_off_c, 1, 69, 0
1, 86279, Note_off_c, 1, 67, 0
1, 86280, Note_off_c, 1, 81, 0
1, 86280, Note_on_c, 1, 75, 127
1, 86280, Note_on_c, 1, 63, 127
1, 86280, Note_on_c, 1, 47, 127
1, 86399, Note_off_c, 1, 66, 0
1, 86399, Note_off_c, 1, 63, 0
1, 86399, Note_off_c, 1, 47, 0
1, 86400, Note_off_c, 1, 75, 0
1, 86400, Note_on_c, 1, 76, 127
1, 86400, Note_on_c, 1, 64, 127
1, 86400, Note_on_c, 1, 52, 127
1, 86639, Note_off_c, 1, 64, 0
1, 86639, Note_off_c, 1, 52, 0
1, 86640, Note_off_c, 1, 71, 0
1, 86640, Note_on_c, 1, 72, 127
1, 86640, Note_on_c, 1, 60, 127
1, 86640, Note_on_c, 1, 45, 127
1, 86879, Note_off_c, 1, 60, 0
1, 86879, Note_off_c, 1, 45, 0
1, 86880, Note_off_c, 1, 76, 0
1, 86880, Note_off_c, 1, 72, 0
1, 86880, Note_on_c, 1, 48, 127
1, 87119, Note_off_c, 1, 48, 0
1, 87120, Note_on_c, 1, 66, 127
1, 87179, Note_off_c, 1, 66, 0
1, 87180, Note_on_c, 1, 64, 127
1, 87239, Note_off_c, 1, 64, 0
1, 87240, Note_on_c, 1, 81, 127
1, 87240, Note_on_c, 1, 72, 127
1, 87240, Note_on_c, 1, 63, 127
1, 87240, Note_on_c, 1, 69, 127
1, 87240, Note_on_c, 1, 66, 127
1, 87240, Note_on_c, 1, 47, 127
1, 87300, Note_off_c, 1, 81, 0
1, 87300, Note_off_c, 1, 72, 0
1, 87300, Note_on_c, 1, 79, 127
1, 87300, Note_on_c, 1, 71, 127
1, 87359, Note_off_c, 1, 63, 0
1, 87359, Note_off_c, 1, 69, 0
1, 87359, Note_off_c, 1, 66, 0
1, 87359, Note_off_c, 1, 47, 0
1, 87360, Note_off_c, 1, 79, 0
1, 87360, Note_off_c, 1, 71, 0
1, 87360, Note_on_c, 1, 78, 127
1, 87360, Note_on_c, 1, 59, 127
1, 87360, Note_on_c, 1, 76, 127
1, 87360, Note_on_c, 1, 67, 127
1, 87360, Note_on_c, 1, 40, 127
1, 87419, Note_off_c, 1, 40, 0
1, 87420, Note_off_c, 1, 78, 0
1, 87420, Note_on_c, 1, 52, 127
1, 87479, Note_off_c, 1, 59, 0
1, 87479, Note_off_c, 1, 52, 0
1, 87540, Note_on_c, 1, 54, 127
1, 87599, Note_off_c, 1, 54, 0
1, 87600, Note_on_c, 1, 55, 127
1, 87659, Note_off_c, 1, 55, 0
1, 87780, Note_on_c, 1, 61, 127
1, 87780, Note_on_c, 1, 57, 127
1, 87839, Note_off_c, 1, 61, 0
1, 87839, Note_off_c, 1, 57, 0
1, 87840, Note_off_c, 1, 76, 0
1, 87840, Note_off_c, 1, 67, 0
1, 87840, Note_on_c, 1, 62, 127
1, 87840, Note_on_c, 1, 74, 127
1, 87899, Note_off_c, 1, 62, 0
1, 87960, Note_on_c, 1, 45, 127
1, 88019, Note_off_c, 1, 45, 0
1, 88020, Note_on_c, 1, 64, 127
1, 88020, Note_on_c, 1, 43, 127
1, 88079, Note_off_c, 1, 64, 0
1, 88079, Note_off_c, 1, 43, 0
1, 88080, Note_off_c, 1, 74, 0
1, 88080, Note_on_c, 1, 73, 127
1, 88080, Note_on_c, 1, 42, 127
1, 88139, Note_off_c, 1, 42, 0
1, 88260, Note_on_c, 1, 50, 127
1, 88319, Note_off_c, 1, 50, 0
1, 88500, Note_on_c, 1, 75, 127
1, 88547, Note_off_c, 1, 75, 0
1, 88560, Note_off_c, 1, 73, 0
1, 88740, Note_on_c, 1, 49, 127
1, 88799, Note_off_c, 1, 49, 0
1, 88980, Note_on_c, 1, 68, 127
1, 89039, Note_off_c, 1, 68, 0
1, 89100, Note_on_c, 1, 76, 127
1, 89100, Note_on_c, 1, 69, 127
1, 89100, Note_on_c, 1, 64, 127
1, 89100, Note_on_c, 1, 61, 127
1, 89100, Note_on_c, 1, 49, 127
1, 89147, Note_off_c, 1, 76, 0
1, 89159, Note_off_c, 1, 69, 0
1, 89159, Note_off_c, 1, 64, 0
1, 89159, Note_off_c, 1, 61, 0
1, 89159, Note_off_c, 1, 49, 0
1, 89160, Note_on_c, 1, 76, 127
1, 89160, Note_on_c, 1, 69, 127
1, 89160, Note_on_c, 1, 67, 127
1, 89160, Note_on_c, 1, 64, 127
1, 89160, Note_on_c, 1, 49, 127
1, 89207, Note_off_c, 1, 76, 0
1, 89207, Note_off_c, 1, 69, 0
1, 89219, Note_off_c, 1, 67, 0
1, 89219, Note_off_c, 1, 64, 0
1, 89219, Note_off_c, 1, 49, 0
1, 89220, Note_on_c, 1, 78, 127
1, 89220, Note_on_c, 1, 69, 127
1, 89220, Note_on_c, 1, 66, 127
1, 89220, Note_on_c, 1, 63, 127
1, 89220, Note_on_c, 1, 51, 127
1, 89267, Note_off_c, 1, 78, 0
1, 89267, Note_off_c, 1, 69, 0
1, 89279, Note_off_c, 1, 66, 0
1, 89279, Note_off_c, 1, 63, 0
1, 89279, Note_off_c, 1, 51, 0
1, 89280, Note_on_c, 1, 71, 127
1, 89280, Note_on_c, 1, 67, 127
1, 89280, Note_on_c, 1, 64, 127
1, 89280, Note_on_c, 1, 59, 127
1, 89280, Note_on_c, 1, 52, 127
1, 89327, Note_off_c, 1, 71, 0
1, 89339, Note_off_c, 1, 67, 0
1, 89339, Note_off_c, 1, 64, 0
1, 89339, Note_off_c, 1, 59, 0
1, 89339, Note_off_c, 1, 52, 0
1, 89340, Note_on_c, 1, 71, 127
1, 89340, Note_on_c, 1, 67, 127
1, 89340, Note_on_c, 1, 64, 127
1, 89340, Note_on_c, 1, 59, 127
1, 89340, Note_on_c, 1, 62, 127
1, 89340, Note_on_c, 1, 50, 127
1, 89387, Note_off_c, 1, 64, 0
1, 89399, Note_off_c, 1, 71, 0
1, 89399, Note_off_c, 1, 67, 0
1, 89399, Note_off_c, 1, 59, 0
1, 89399, Note_off_c, 1, 62, 0
1, 89399, Note_off_c, 1, 50, 0
1, 89400, Note_on_c, 1, 71, 127
1, 89400, Note_on_c, 1, 68, 127
1, 89400, Note_on_c, 1, 64, 127
1, 89400, Note_on_c, 1, 61, 127
1, 89400, Note_on_c, 1, 49, 127
1, 89447, Note_off_c, 1, 68, 0
1, 89447, Note_off_c, 1, 64, 0
1, 89459, Note_off_c, 1, 71, 0
1, 89460, Note_on_c, 1, 73, 127
1, 89460, Note_on_c, 1, 70, 127
1, 89507, Note_off_c, 1, 70, 0
1, 89519, Note_off_c, 1, 61, 0
1, 89519, Note_off_c, 1, 49, 0
1, 89519, Note_off_c, 1, 73, 0
1, 89520, Note_on_c, 1, 74, 127
1, 89520, Note_on_c, 1, 71, 127
1, 89520, Note_on_c, 1, 66, 127
1, 89520, Note_on_c, 1, 59, 127
1, 89520, Note_on_c, 1, 47, 127
1, 89567, Note_off_c, 1, 71, 0
1, 89579, Note_off_c, 1, 74, 0
1, 89579, Note_off_c, 1, 66, 0
1, 89579, Note_off_c, 1, 59, 0
1, 89579, Note_off_c, 1, 47, 0
1, 89580, Note_on_c, 1, 74, 127
1, 89580, Note_on_c, 1, 66, 127
1, 89580, Note_on_c, 1, 59, 127
1, 89639, Note_off_c, 1, 74, 0
1, 89639, Note_off_c, 1, 66, 0
1, 89639, Note_off_c, 1, 59, 0
1, 89640, Note_on_c, 1, 73, 127
1, 89640, Note_on_c, 1, 66, 127
1, 89640, Note_on_c, 1, 61, 127
1, 89640, Note_on_c, 1, 57, 127
1, 89699, Note_off_c, 1, 73, 0
1, 89699, Note_off_c, 1, 66, 0
1, 89699, Note_off_c, 1, 61, 0
1, 89699, Note_off_c, 1, 57, 0
1, 89700, Note_on_c, 1, 71, 127
1, 89700, Note_on_c, 1, 68, 127
1, 89700, Note_on_c, 1, 65, 127
1, 89700, Note_on_c, 1, 56, 127
1, 89759, Note_off_c, 1, 71, 0
1, 89759, Note_off_c, 1, 68, 0
1, 89759, Note_off_c, 1, 65, 0
1, 89759, Note_off_c, 1, 56, 0
1, 89760, Note_on_c, 1, 73, 127
1, 89760, Note_on_c, 1, 69, 127
1, 89760, Note_on_c, 1, 61, 127
1, 89760, Note_on_c, 1, 54, 127
1, 89819, Note_off_c, 1, 73, 0
1, 89819, Note_off_c, 1, 69, 0
1, 89819, Note_off_c, 1, 54, 0
1, 89820, Note_on_c, 1, 76, 127
1, 89820, Note_on_c, 1, 42, 127
1, 89879, Note_off_c, 1, 61, 0
1, 89879, Note_off_c, 1, 42, 0
1, 89880, Note_on_c, 1, 67, 127
1, 89880, Note_on_c, 1, 59, 127
1, 89880, Note_on_c, 1, 47, 127
1, 89915, Note_off_c, 1, 76, 0
1, 89939, Note_off_c, 1, 67, 0
1, 89939, Note_off_c, 1, 59, 0
1, 89939, Note_off_c, 1, 47, 0
1, 89940, Note_on_c, 1, 75, 127
1, 89940, Note_on_c, 1, 66, 127
1, 89940, Note_on_c, 1, 59, 127
1, 89940, Note_on_c, 1, 45, 127
1, 89999, Note_off_c, 1, 75, 0
1, 89999, Note_off_c, 1, 66, 0
1, 89999, Note_off_c, 1, 45, 0
1, 90000, Note_on_c, 1, 76, 127
1, 90000, Note_on_c, 1, 67, 127
1, 90000, Note_on_c, 1, 52, 127
1, 90000, Note_on_c, 1, 43, 127
1, 90059, Note_off_c, 1, 59, 0
1, 90059, Note_off_c, 1, 76, 0
1, 90059, Note_off_c, 1, 67, 0
1, 90059, Note_off_c, 1, 52, 0
1, 90059, Note_off_c, 1, 43, 0
1, 90060, Note_on_c, 1, 74, 127
1, 90060, Note_on_c, 1, 71, 127
1, 90060, Note_on_c, 1, 62, 127
1, 90060, Note_on_c, 1, 67, 127
1, 90060, Note_on_c, 1, 52, 127
1, 90060, Note_on_c, 1, 42, 127
1, 90119, Note_off_c, 1, 74, 0
1, 90119, Note_off_c, 1, 62, 0
1, 90119, Note_off_c, 1, 67, 0
1, 90119, Note_off_c, 1, 52, 0
1, 90119, Note_off_c, 1, 42, 0
1, 90120, Note_on_c, 1, 73, 127
1, 90120, Note_on_c, 1, 40, 127
1, 90155, Note_off_c, 1, 71, 0
1, 90179, Note_off_c, 1, 40, 0
1, 90180, Note_on_c, 1, 78, 127
1, 90180, Note_on_c, 1, 70, 127
1, 90180, Note_on_c, 1, 66, 127
1, 90180, Note_on_c, 1, 64, 127
1, 90227, Note_off_c, 1, 78, 0
1, 90239, Note_off_c, 1, 73, 0
1, 90239, Note_off_c, 1, 70, 0
1, 90239, Note_off_c, 1, 66, 0
1, 90239, Note_off_c, 1, 64, 0
1, 90240, Note_on_c, 1, 71, 127
1, 90240, Note_on_c, 1, 66, 127
1, 90240, Note_on_c, 1, 62, 127
1, 90240, Note_on_c, 1, 50, 127
1, 90299, Note_off_c, 1, 71, 0
1, 90299, Note_off_c, 1, 62, 0
1, 90299, Note_off_c, 1, 50, 0
1, 90300, Note_on_c, 1, 78, 127
1, 90300, Note_on_c, 1, 69, 127
1, 90300, Note_on_c, 1, 61, 127
1, 90300, Note_on_c, 1, 49, 127
1, 90329, Note_off_c, 1, 66, 0
1, 90330, Note_on_c, 1, 64, 127
1, 90359, Note_off_c, 1, 69, 0
1, 90359, Note_off_c, 1, 61, 0
1, 90359, Note_off_c, 1, 49, 0
1, 90359, Note_off_c, 1, 64, 0
1, 90360, Note_on_c, 1, 68, 127
1, 90360, Note_on_c, 1, 59, 127
1, 90360, Note_on_c, 1, 47, 127
1, 90419, Note_off_c, 1, 78, 0
1, 90419, Note_off_c, 1, 59, 0
1, 90419, Note_off_c, 1, 47, 0
1, 90420, Note_on_c, 1, 77, 127
1, 90479, Note_off_c, 1, 68, 0
1, 90479, Note_off_c, 1, 77, 0
1, 90480, Note_on_c, 1, 78, 127
1, 90480, Note_on_c, 1, 69, 127
1, 90480, Note_on_c, 1, 61, 127
1, 90480, Note_on_c, 1, 66, 127
1, 90480, Note_on_c, 1, 54, 127
1, 90480, Note_on_c, 1, 42, 127
1, 90527, Note_off_c, 1, 69, 0
1, 90539, Note_off_c, 1, 78, 0
1, 90539, Note_off_c, 1, 61, 0
1, 90540, Note_on_c, 1, 73, 127
1, 90540, Note_on_c, 1, 57, 127
1, 90599, Note_off_c, 1, 66, 0
1, 90599, Note_off_c, 1, 54, 0
1, 90599, Note_off_c, 1, 42, 0
1, 90599, Note_off_c, 1, 73, 0
1, 90599, Note_off_c, 1, 57, 0
1, 90600, Note_on_c, 1, 73, 127
1, 90600, Note_on_c, 1, 69, 127
1, 90659, Note_off_c, 1, 73, 0
1, 90659, Note_off_c, 1, 69, 0
1, 90660, Note_on_c, 1, 71, 127
1, 90660, Note_on_c, 1, 68, 127
1, 90719, Note_off_c, 1, 71, 0
1, 90719, Note_off_c, 1, 68, 0
1, 90720, Note_on_c, 1, 69, 127
1, 90720, Note_on_c, 1, 66, 127
1, 90720, Note_on_c, 1, 61, 127
1, 90720, Note_on_c, 1, 57, 127
1, 90720, Note_on_c, 1, 54, 127
1, 90767, Note_off_c, 1, 61, 0
1, 90779, Note_off_c, 1, 57, 0
1, 90779, Note_off_c, 1, 54, 0
1, 90780, Note_on_c, 1, 55, 127
1, 90780, Note_on_c, 1, 52, 127
1, 90839, Note_off_c, 1, 55, 0
1, 90839, Note_off_c, 1, 52, 0
1, 90840, Note_on_c, 1, 62, 127
1, 90840, Note_on_c, 1, 50, 127
1, 90887, Note_off_c, 1, 62, 0
1, 90899, Note_off_c, 1, 69, 0
1, 90899, Note_off_c, 1, 66, 0
1, 90900, Note_on_c, 1, 67, 127
1, 90900, Note_on_c, 1, 64, 127
1, 90959, Note_off_c, 1, 67, 0
1, 90959, Note_off_c, 1, 64, 0
1, 91019, Note_off_c, 1, 50, 0
1, 91020, Note_on_c, 1, 69, 127
1, 91020, Note_on_c, 1, 64, 127
1, 91020, Note_on_c, 1, 57, 127
1, 91020, Note_on_c, 1, 49, 127
1, 91079, Note_off_c, 1, 69, 0
1, 91079, Note_off_c, 1, 64, 0
1, 91079, Note_off_c, 1, 49, 0
1, 91080, Note_on_c, 1, 74, 127
1, 91080, Note_on_c, 1, 66, 127
1, 91080, Note_on_c, 1, 47, 127
1, 91139, Note_off_c, 1, 57, 0
1, 91139, Note_off_c, 1, 66, 0
1, 91139, Note_off_c, 1, 47, 0
1, 91140, Note_on_c, 1, 56, 127
1, 91140, Note_on_c, 1, 52, 127
1, 91199, Note_off_c, 1, 56, 0
1, 91199, Note_off_c, 1, 52, 0
1, 91259, Note_off_c, 1, 74, 0
1, 91260, Note_on_c, 1, 73, 127
1, 91260, Note_on_c, 1, 45, 127
1, 91319, Note_off_c, 1, 73, 0
1, 91319, Note_off_c, 1, 45, 0
1, 91320, Note_on_c, 1, 73, 127
1, 91320, Note_on_c, 1, 64, 127
1, 91320, Note_on_c, 1, 57, 127
1, 91320, Note_on_c, 1, 45, 127
1, 91379, Note_off_c, 1, 73, 0
1, 91379, Note_off_c, 1, 64, 0
1, 91379, Note_off_c, 1, 57, 0
1, 91379, Note_off_c, 1, 45, 0
1, 91380, Note_on_c, 1, 69, 127
1, 91380, Note_on_c, 1, 64, 127
1, 91380, Note_on_c, 1, 61, 127
1, 91380, Note_on_c, 1, 55, 127
1, 91439, Note_off_c, 1, 69, 0
1, 91439, Note_off_c, 1, 64, 0
1, 91439, Note_off_c, 1, 61, 0
1, 91439, Note_off_c, 1, 55, 0
1, 91440, Note_on_c, 1, 74, 127
1, 91440, Note_on_c, 1, 66, 127
1, 91440, Note_on_c, 1, 62, 127
1, 91440, Note_on_c, 1, 54, 127
1, 91499, Note_off_c, 1, 74, 0
1, 91499, Note_off_c, 1, 66, 0
1, 91499, Note_off_c, 1, 54, 0
1, 91500, Note_on_c, 1, 76, 127
1, 91500, Note_on_c, 1, 67, 127
1, 91500, Note_on_c, 1, 57, 127
1, 91500, Note_on_c, 1, 52, 127
1, 91559, Note_off_c, 1, 76, 0
1, 91559, Note_off_c, 1, 67, 0
1, 91559, Note_off_c, 1, 57, 0
1, 91559, Note_off_c, 1, 52, 0
1, 91560, Note_on_c, 1, 78, 127
1, 91560, Note_on_c, 1, 69, 127
1, 91560, Note_on_c, 1, 50, 127
1, 91619, Note_off_c, 1, 69, 0
1, 91619, Note_off_c, 1, 50, 0
1, 91680, Note_on_c, 1, 71, 127
1, 91680, Note_on_c, 1, 55, 127
1, 91739, Note_off_c, 1, 62, 0
1, 91739, Note_off_c, 1, 78, 0
1, 91739, Note_off_c, 1, 55, 0
1, 91740, Note_on_c, 1, 75, 127
1, 91799, Note_off_c, 1, 75, 0
1, 91800, Note_on_c, 1, 64, 127
1, 91859, Note_off_c, 1, 64, 0
1, 91860, Note_on_c, 1, 63, 127
1, 91919, Note_off_c, 1, 63, 0
1, 91920, Note_on_c, 1, 79, 127
1, 91979, Note_off_c, 1, 71, 0
1, 91979, Note_off_c, 1, 79, 0
1, 91980, Note_on_c, 1, 70, 127
1, 91980, Note_on_c, 1, 61, 127
1, 92039, Note_off_c, 1, 70, 0
1, 92039, Note_off_c, 1, 61, 0
1, 92040, Note_on_c, 1, 78, 127
1, 92040, Note_on_c, 1, 71, 127
1, 92040, Note_on_c, 1, 62, 127
1, 92040, Note_on_c, 1, 50, 127
1, 92099, Note_off_c, 1, 71, 0
1, 92099, Note_off_c, 1, 62, 0
1, 92099, Note_off_c, 1, 50, 0
1, 92100, Note_on_c, 1, 74, 127
1, 92100, Note_on_c, 1, 66, 127
1, 92100, Note_on_c, 1, 47, 127
1, 92159, Note_off_c, 1, 66, 0
1, 92159, Note_off_c, 1, 47, 0
1, 92160, Note_on_c, 1, 59, 127
1, 92160, Note_on_c, 1, 43, 127
1, 92195, Note_off_c, 1, 74, 0
1, 92219, Note_off_c, 1, 78, 0
1, 92220, Note_on_c, 1, 76, 127
1, 92220, Note_on_c, 1, 73, 127
1, 92220, Note_on_c, 1, 64, 127
1, 92243, Note_off_c, 1, 73, 0
1, 92249, Note_off_c, 1, 76, 0
1, 92279, Note_off_c, 1, 64, 0
1, 92280, Note_on_c, 1, 67, 127
1, 92310, Note_on_c, 1, 70, 127
1, 92333, Note_off_c, 1, 70, 0
1, 92340, Note_on_c, 1, 77, 127
1, 92340, Note_on_c, 1, 65, 127
1, 92375, Note_off_c, 1, 67, 0
1, 92387, Note_off_c, 1, 77, 0
1, 92399, Note_off_c, 1, 59, 0
1, 92399, Note_off_c, 1, 43, 0
1, 92399, Note_off_c, 1, 65, 0
1, 92400, Note_on_c, 1, 78, 127
1, 92400, Note_on_c, 1, 70, 127
1, 92400, Note_on_c, 1, 61, 127
1, 92400, Note_on_c, 1, 66, 127
1, 92400, Note_on_c, 1, 42, 127
1, 92519, Note_off_c, 1, 61, 0
1, 92519, Note_off_c, 1, 42, 0
1, 92520, Note_off_c, 1, 70, 0
1, 92520, Note_on_c, 1, 73, 127
1, 92520, Note_on_c, 1, 46, 127
1, 93000, Note_off_c, 1, 66, 0
1, 93000, Note_on_c, 1, 76, 127
1, 93000, Note_on_c, 1, 64, 127
1, 93059, Note_off_c, 1, 76, 0
1, 93060, Note_on_c, 1, 74, 127
1, 93119, Note_off_c, 1, 74, 0
1, 93120, Note_off_c, 1, 73, 0
1, 93120, Note_off_c, 1, 46, 0
1, 93120, Note_off_c, 1, 64, 0
1, 93120, Note_on_c, 1, 71, 127
1, 93120, Note_on_c, 1, 62, 127
1, 93120, Note_on_c, 1, 47, 127
1, 93240, Note_off_c, 1, 78, 0
1, 93359, Note_off_c, 1, 62, 0
1, 93359, Note_off_c, 1, 47, 0
1, 93360, Note_on_c, 1, 67, 127
1, 93360, Note_on_c, 1, 52, 127
1, 93479, Note_off_c, 1, 71, 0
1, 93479, Note_off_c, 1, 67, 0
1, 93479, Note_off_c, 1, 52, 0
1, 93480, Note_on_c, 1, 69, 127
1, 93480, Note_on_c, 1, 45, 127
1, 93599, Note_off_c, 1, 69, 0
1, 93599, Note_off_c, 1, 45, 0
1, 93600, Note_on_c, 1, 74, 127
1, 93600, Note_on_c, 1, 69, 127
1, 93600, Note_on_c, 1, 66, 127
1, 93600, Note_on_c, 1, 50, 127
1, 94170, Note_on_c, 1, 62, 127
1, 94199, Note_off_c, 1, 62, 0
1, 94200, Note_on_c, 1, 72, 127
1, 94200, Note_on_c, 1, 60, 127
1, 94259, Note_off_c, 1, 72, 0
1, 94260, Note_on_c, 1, 71, 127
1, 94319, Note_off_c, 1, 74, 0
1, 94319, Note_off_c, 1, 71, 0
1, 94320, Note_off_c, 1, 69, 0
1, 94320, Note_off_c, 1, 50, 0
1, 94320, Note_off_c, 1, 60, 0
1, 94320, Note_on_c, 1, 78, 127
1, 94320, Note_on_c, 1, 59, 127
1, 94320, Note_on_c, 1, 51, 127
1, 94470, Note_on_c, 1, 63, 127
1, 94499, Note_off_c, 1, 63, 0
1, 94530, Note_on_c, 1, 64, 127
1, 94559, Note_off_c, 1, 64, 0
1, 94679, Note_off_c, 1, 78, 0
1, 94679, Note_off_c, 1, 51, 0
1, 94680, Note_on_c, 1, 75, 127
1, 94680, Note_on_c, 1, 47, 127
1, 94740, Note_on_c, 1, 67, 127
1, 94799, Note_off_c, 1, 66, 0
1, 94799, Note_off_c, 1, 75, 0
1, 94799, Note_off_c, 1, 47, 0
1, 94799, Note_off_c, 1, 67, 0
1, 94800, Note_on_c, 1, 76, 127
1, 94800, Note_on_c, 1, 52, 127
1, 95039, Note_off_c, 1, 52, 0
1, 95279, Note_off_c, 1, 59, 0
1, 95280, Note_on_c, 1, 61, 127
1, 95280, Note_on_c, 1, 70, 127
1, 95280, Note_on_c, 1, 68, 127
1, 95280, Note_on_c, 1, 49, 127
1, 95340, Note_on_c, 1, 73, 127
1, 95399, Note_off_c, 1, 73, 0
1, 95459, Note_off_c, 1, 76, 0
1, 95519, Note_off_c, 1, 61, 0
1, 95519, Note_off_c, 1, 68, 0
1, 95519, Note_off_c, 1, 49, 0
1, 95520, Note_off_c, 1, 70, 0
1, 95520, Note_on_c, 1, 54, 127
1, 95759, Note_off_c, 1, 54, 0
1, 95760, Note_on_c, 1, 56, 127
1, 95999, Note_off_c, 1, 56, 0
1, 96000, Note_on_c, 1, 65, 127
1, 96240, Note_off_c, 1, 65, 0
1, 96240, Note_on_c, 1, 45, 127
1, 96479, Note_off_c, 1, 45, 0
1, 96480, Note_on_c, 1, 44, 127
1, 96599, Note_off_c, 1, 44, 0
1, 96600, Note_on_c, 1, 80, 127
1, 96600, Note_on_c, 1, 42, 127
1, 96719, Note_off_c, 1, 42, 0
1, 96720, Note_on_c, 1, 41, 127
1, 96839, Note_off_c, 1, 80, 0
1, 96839, Note_off_c, 1, 41, 0
1, 96840, Note_on_c, 1, 81, 127
1, 96960, Note_on_c, 1, 38, 127
1, 97020, Note_on_c, 1, 57, 127
1, 97079, Note_off_c, 1, 81, 0
1, 97079, Note_off_c, 1, 38, 0
1, 97079, Note_off_c, 1, 57, 0
1, 97080, Note_on_c, 1, 80, 127
1, 97080, Note_on_c, 1, 71, 127
1, 97080, Note_on_c, 1, 62, 127
1, 97080, Note_on_c, 1, 59, 127
1, 97080, Note_on_c, 1, 50, 127
1, 97095, Note_on_c, 1, 73, 127
1, 97109, Note_off_c, 1, 73, 0
1, 97110, Note_on_c, 1, 74, 127
1, 97139, Note_off_c, 1, 80, 0
1, 97139, Note_off_c, 1, 74, 0
1, 97140, Note_on_c, 1, 78, 127
1, 97140, Note_on_c, 1, 66, 127
1, 97199, Note_off_c, 1, 71, 0
1, 97199, Note_off_c, 1, 62, 0
1, 97199, Note_off_c, 1, 59, 0
1, 97199, Note_off_c, 1, 50, 0
1, 97199, Note_off_c, 1, 78, 0
1, 97199, Note_off_c, 1, 66, 0
1, 97200, Note_on_c, 1, 77, 127
1, 97200, Note_on_c, 1, 73, 127
1, 97200, Note_on_c, 1, 56, 127
1, 97200, Note_on_c, 1, 68, 127
1, 97200, Note_on_c, 1, 65, 127
1, 97200, Note_on_c, 1, 61, 127
1, 97200, Note_on_c, 1, 49, 127
1, 97439, Note_off_c, 1, 77, 0
1, 97439, Note_off_c, 1, 73, 0
1, 97439, Note_off_c, 1, 56, 0
1, 97439, Note_off_c, 1, 68, 0
1, 97439, Note_off_c, 1, 65, 0
1, 97439, Note_off_c, 1, 61, 0
1, 97439, Note_off_c, 1, 49, 0
1, 97800, Note_on_c, 1, 69, 127
1, 97800, Note_on_c, 1, 66, 127
1, 97800, Note_on_c, 1, 61, 127
1, 97800, Note_on_c, 1, 54, 127
1, 97859, Note_off_c, 1, 61, 0
1, 97860, Note_on_c, 1, 62, 127
1, 97919, Note_off_c, 1, 69, 0
1, 97919, Note_off_c, 1, 66, 0
1, 97919, Note_off_c, 1, 54, 0
1, 97919, Note_off_c, 1, 62, 0
1, 97920, Note_on_c, 1, 69, 127
1, 97920, Note_on_c, 1, 64, 127
1, 97920, Note_on_c, 1, 61, 127
1, 97980, Note_on_c, 1, 66, 127
1, 98039, Note_off_c, 1, 69, 0
1, 98039, Note_off_c, 1, 64, 0
1, 98039, Note_off_c, 1, 61, 0
1, 98039, Note_off_c, 1, 66, 0
1, 98040, Note_on_c, 1, 76, 127
1, 98040, Note_on_c, 1, 68, 127
1, 98040, Note_on_c, 1, 62, 127
1, 98040, Note_on_c, 1, 59, 127
1, 98099, Note_off_c, 1, 68, 0
1, 98099, Note_off_c, 1, 62, 0
1, 98099, Note_off_c, 1, 59, 0
1, 98100, Note_on_c, 1, 69, 127
1, 98100, Note_on_c, 1, 61, 127
1, 98100, Note_on_c, 1, 57, 127
1, 98159, Note_off_c, 1, 76, 0
1, 98159, Note_off_c, 1, 69, 0
1, 98159, Note_off_c, 1, 61, 0
1, 98159, Note_off_c, 1, 57, 0
1, 98160, Note_on_c, 1, 76, 127
1, 98160, Note_on_c, 1, 71, 127
1, 98160, Note_on_c, 1, 59, 127
1, 98160, Note_on_c, 1, 56, 127
1, 98279, Note_off_c, 1, 76, 0
1, 98279, Note_off_c, 1, 71, 0
1, 98279, Note_off_c, 1, 59, 0
1, 98279, Note_off_c, 1, 56, 0
1, 98280, Note_on_c, 1, 74, 127
1, 98280, Note_on_c, 1, 64, 127
1, 98280, Note_on_c, 1, 57, 127
1, 98339, Note_off_c, 1, 74, 0
1, 98340, Note_on_c, 1, 73, 127
1, 98399, Note_off_c, 1, 64, 0
1, 98399, Note_off_c, 1, 73, 0
1, 98400, Note_on_c, 1, 71, 127
1, 98400, Note_on_c, 1, 63, 127
1, 98400, Note_on_c, 1, 59, 127
1, 98459, Note_off_c, 1, 57, 0
1, 98460, Note_on_c, 1, 55, 127
1, 98519, Note_off_c, 1, 71, 0
1, 98519, Note_off_c, 1, 63, 0
1, 98519, Note_off_c, 1, 59, 0
1, 98519, Note_off_c, 1, 55, 0
1, 98520, Note_on_c, 1, 73, 127
1, 98520, Note_on_c, 1, 64, 127
1, 98520, Note_on_c, 1, 57, 127
1, 98520, Note_on_c, 1, 54, 127
1, 98579, Note_off_c, 1, 57, 0
1, 98579, Note_off_c, 1, 54, 0
1, 98580, Note_on_c, 1, 55, 127
1, 98580, Note_on_c, 1, 52, 127
1, 98639, Note_off_c, 1, 73, 0
1, 98639, Note_off_c, 1, 64, 0
1, 98639, Note_off_c, 1, 55, 0
1, 98639, Note_off_c, 1, 52, 0
1, 98640, Note_on_c, 1, 74, 127
1, 98640, Note_on_c, 1, 62, 127
1, 98640, Note_on_c, 1, 57, 127
1, 98640, Note_on_c, 1, 54, 127
1, 98699, Note_off_c, 1, 74, 0
1, 98699, Note_off_c, 1, 62, 0
1, 98699, Note_off_c, 1, 54, 0
1, 98700, Note_on_c, 1, 73, 127
1, 98700, Note_on_c, 1, 69, 127
1, 98700, Note_on_c, 1, 50, 127
1, 98759, Note_off_c, 1, 57, 0
1, 98759, Note_off_c, 1, 73, 0
1, 98759, Note_off_c, 1, 69, 0
1, 98759, Note_off_c, 1, 50, 0
1, 98760, Note_on_c, 1, 71, 127
1, 98760, Note_on_c, 1, 68, 127
1, 98760, Note_on_c, 1, 64, 127
1, 98760, Note_on_c, 1, 52, 127
1, 98819, Note_off_c, 1, 64, 0
1, 98820, Note_on_c, 1, 62, 127
1, 98820, Note_on_c, 1, 40, 127
1, 98879, Note_off_c, 1, 71, 0
1, 98879, Note_off_c, 1, 52, 0
1, 98879, Note_off_c, 1, 62, 0
1, 98879, Note_off_c, 1, 40, 0
1, 98880, Note_off_c, 1, 68, 0
1, 98880, Note_on_c, 1, 69, 127
1, 98880, Note_on_c, 1, 61, 127
1, 98880, Note_on_c, 1, 45, 127
1, 99119, Note_off_c, 1, 69, 0
1, 99119, Note_off_c, 1, 61, 0
1, 99119, Note_off_c, 1, 45, 0
1, 99240, Note_on_c, 1, 69, 127
1, 99240, Note_on_c, 1, 66, 127
1, 99240, Note_on_c, 1, 57, 127
1, 99240, Note_on_c, 1, 50, 127
1, 99359, Note_off_c, 1, 69, 0
1, 99359, Note_off_c, 1, 66, 0
1, 99359, Note_off_c, 1, 57, 0
1, 99359, Note_off_c, 1, 50, 0
1, 99360, Note_on_c, 1, 71, 127
1, 99360, Note_on_c, 1, 66, 127
1, 99360, Note_on_c, 1, 57, 127
1, 99360, Note_on_c, 1, 51, 127
1, 99419, Note_off_c, 1, 51, 0
1, 99420, Note_on_c, 1, 52, 127
1, 99479, Note_off_c, 1, 71, 0
1, 99479, Note_off_c, 1, 66, 0
1, 99479, Note_off_c, 1, 57, 0
1, 99480, Note_on_c, 1, 73, 127
1, 99480, Note_on_c, 1, 64, 127
1, 99480, Note_on_c, 1, 56, 127
1, 99539, Note_off_c, 1, 52, 0
1, 99539, Note_off_c, 1, 64, 0
1, 99540, Note_on_c, 1, 61, 127
1, 99540, Note_on_c, 1, 53, 127
1, 99599, Note_off_c, 1, 73, 0
1, 99599, Note_off_c, 1, 56, 0
1, 99599, Note_off_c, 1, 61, 0
1, 99600, Note_on_c, 1, 74, 127
1, 99600, Note_on_c, 1, 68, 127
1, 99600, Note_on_c, 1, 59, 127
1, 99659, Note_off_c, 1, 53, 0
1, 99659, Note_off_c, 1, 68, 0
1, 99659, Note_off_c, 1, 59, 0
1, 99660, Note_on_c, 1, 54, 127
1, 99719, Note_off_c, 1, 74, 0
1, 99719, Note_off_c, 1, 54, 0
1, 99720, Note_on_c, 1, 71, 127
1, 99720, Note_on_c, 1, 64, 127
1, 99720, Note_on_c, 1, 59, 127
1, 99720, Note_on_c, 1, 56, 127
1, 99779, Note_off_c, 1, 64, 0
1, 99779, Note_off_c, 1, 56, 0
1, 99780, Note_on_c, 1, 63, 127
1, 99780, Note_on_c, 1, 57, 127
1, 99839, Note_off_c, 1, 71, 0
1, 99839, Note_off_c, 1, 59, 0
1, 99839, Note_off_c, 1, 63, 0
1, 99839, Note_off_c, 1, 57, 0
1, 99840, Note_on_c, 1, 76, 127
1, 99840, Note_on_c, 1, 64, 127
1, 99840, Note_on_c, 1, 59, 127
1, 99840, Note_on_c, 1, 56, 127
1, 99899, Note_off_c, 1, 64, 0
1, 99899, Note_off_c, 1, 59, 0
1, 99899, Note_off_c, 1, 56, 0
1, 99900, Note_on_c, 1, 66, 127
1, 99900, Note_on_c, 1, 52, 127
1, 99929, Note_off_c, 1, 66, 0
1, 99930, Note_on_c, 1, 68, 127
1, 99959, Note_off_c, 1, 76, 0
1, 99959, Note_off_c, 1, 52, 0
1, 99959, Note_off_c, 1, 68, 0
1, 99960, Note_on_c, 1, 78, 127
1, 99960, Note_on_c, 1, 69, 127
1, 100019, Note_off_c, 1, 69, 0
1, 100020, Note_on_c, 1, 63, 127
1, 100020, Note_on_c, 1, 47, 127
1, 100079, Note_off_c, 1, 78, 0
1, 100079, Note_off_c, 1, 63, 0
1, 100079, Note_off_c, 1, 47, 0
1, 100080, Note_on_c, 1, 76, 127
1, 100080, Note_on_c, 1, 68, 127
1, 100080, Note_on_c, 1, 64, 127
1, 100080, Note_on_c, 1, 52, 127
1, 100175, Note_off_c, 1, 76, 0
1, 100175, Note_off_c, 1, 68, 0
1, 100175, Note_off_c, 1, 64, 0
1, 100175, Note_off_c, 1, 52, 0
1, 100200, Note_on_c, 1, 73, 127
1, 100200, Note_on_c, 1, 69, 127
1, 100200, Note_on_c, 1, 64, 127
1, 100200, Note_on_c, 1, 57, 127
1, 100259, Note_off_c, 1, 57, 0
1, 100260, Note_on_c, 1, 56, 127
1, 100319, Note_off_c, 1, 73, 0
1, 100319, Note_off_c, 1, 69, 0
1, 100319, Note_off_c, 1, 64, 0
1, 100319, Note_off_c, 1, 56, 0
1, 100320, Note_on_c, 1, 73, 127
1, 100320, Note_on_c, 1, 69, 127
1, 100320, Note_on_c, 1, 66, 127
1, 100320, Note_on_c, 1, 54, 127
1, 100379, Note_off_c, 1, 73, 0
1, 100379, Note_off_c, 1, 54, 0
1, 100380, Note_on_c, 1, 74, 127
1, 100380, Note_on_c, 1, 52, 127
1, 100439, Note_off_c, 1, 69, 0
1, 100439, Note_off_c, 1, 66, 0
1, 100439, Note_off_c, 1, 74, 0
1, 100439, Note_off_c, 1, 52, 0
1, 100440, Note_on_c, 1, 76, 127
1, 100440, Note_on_c, 1, 70, 127
1, 100440, Note_on_c, 1, 66, 127
1, 100440, Note_on_c, 1, 50, 127
1, 100499, Note_off_c, 1, 50, 0
1, 100500, Note_on_c, 1, 49, 127
1, 100559, Note_off_c, 1, 76, 0
1, 100559, Note_off_c, 1, 70, 0
1, 100559, Note_off_c, 1, 66, 0
1, 100559, Note_off_c, 1, 49, 0
1, 100560, Note_on_c, 1, 74, 127
1, 100560, Note_on_c, 1, 71, 127
1, 100560, Note_on_c, 1, 66, 127
1, 100560, Note_on_c, 1, 47, 127
1, 100619, Note_off_c, 1, 71, 0
1, 100620, Note_on_c, 1, 69, 127
1, 100679, Note_off_c, 1, 74, 0
1, 100679, Note_off_c, 1, 66, 0
1, 100679, Note_off_c, 1, 47, 0
1, 100679, Note_off_c, 1, 69, 0
1, 100680, Note_on_c, 1, 73, 127
1, 100680, Note_on_c, 1, 68, 127
1, 100680, Note_on_c, 1, 64, 127
1, 100680, Note_on_c, 1, 52, 127
1, 100739, Note_off_c, 1, 73, 0
1, 100739, Note_off_c, 1, 68, 0
1, 100739, Note_off_c, 1, 52, 0
1, 100740, Note_on_c, 1, 71, 127
1, 100740, Note_on_c, 1, 66, 127
1, 100740, Note_on_c, 1, 50, 127
1, 100799, Note_off_c, 1, 64, 0
1, 100799, Note_off_c, 1, 71, 0
1, 100799, Note_off_c, 1, 66, 0
1, 100799, Note_off_c, 1, 50, 0
1, 100800, Note_on_c, 1, 69, 127
1, 100800, Note_on_c, 1, 64, 127
1, 100800, Note_on_c, 1, 49, 127
1, 100859, Note_off_c, 1, 69, 0
1, 100859, Note_off_c, 1, 64, 0
1, 100859, Note_off_c, 1, 49, 0
1, 100860, Note_on_c, 1, 71, 127
1, 100860, Note_on_c, 1, 66, 127
1, 100860, Note_on_c, 1, 62, 127
1, 100860, Note_on_c, 1, 47, 127
1, 100889, Note_off_c, 1, 66, 0
1, 100890, Note_on_c, 1, 68, 127
1, 100919, Note_off_c, 1, 71, 0
1, 100919, Note_off_c, 1, 62, 0
1, 100919, Note_off_c, 1, 47, 0
1, 100919, Note_off_c, 1, 68, 0
1, 100920, Note_on_c, 1, 73, 127
1, 100920, Note_on_c, 1, 69, 127
1, 100920, Note_on_c, 1, 61, 127
1, 100920, Note_on_c, 1, 45, 127
1, 100979, Note_off_c, 1, 69, 0
1, 100979, Note_off_c, 1, 61, 0
1, 100980, Note_on_c, 1, 66, 127
1, 100980, Note_on_c, 1, 63, 127
1, 101039, Note_off_c, 1, 73, 0
1, 101039, Note_off_c, 1, 45, 0
1, 101039, Note_off_c, 1, 66, 0
1, 101039, Note_off_c, 1, 63, 0
1, 101040, Note_on_c, 1, 71, 127
1, 101040, Note_on_c, 1, 68, 127
1, 101040, Note_on_c, 1, 64, 127
1, 101040, Note_on_c, 1, 52, 127
1, 101135, Note_off_c, 1, 71, 0
1, 101135, Note_off_c, 1, 68, 0
1, 101135, Note_off_c, 1, 64, 0
1, 101135, Note_off_c, 1, 52, 0
1, 101160, Note_on_c, 1, 73, 127
1, 101160, Note_on_c, 1, 69, 127
1, 101160, Note_on_c, 1, 64, 127
1, 101160, Note_on_c, 1, 45, 127
1, 101219, Note_off_c, 1, 69, 0
1, 101220, Note_on_c, 1, 68, 127
1, 101279, Note_off_c, 1, 73, 0
1, 101279, Note_off_c, 1, 64, 0
1, 101279, Note_off_c, 1, 45, 0
1, 101279, Note_off_c, 1, 68, 0
1, 101280, Note_on_c, 1, 69, 127
1, 101280, Note_on_c, 1, 66, 127
1, 101280, Note_on_c, 1, 62, 127
1, 101280, Note_on_c, 1, 50, 127
1, 101339, Note_off_c, 1, 62, 0
1, 101339, Note_off_c, 1, 50, 0
1, 101340, Note_on_c, 1, 61, 127
1, 101340, Note_on_c, 1, 52, 127
1, 101399, Note_off_c, 1, 69, 0
1, 101399, Note_off_c, 1, 61, 0
1, 101399, Note_off_c, 1, 52, 0
1, 101400, Note_on_c, 1, 71, 127
1, 101459, Note_off_c, 1, 66, 0
1, 101459, Note_off_c, 1, 71, 0
1, 101460, Note_on_c, 1, 73, 127
1, 101460, Note_on_c, 1, 68, 127
1, 101460, Note_on_c, 1, 64, 127
1, 101460, Note_on_c, 1, 49, 127
1, 101489, Note_off_c, 1, 68, 0
1, 101490, Note_on_c, 1, 70, 127
1, 101519, Note_off_c, 1, 73, 0
1, 101519, Note_off_c, 1, 64, 0
1, 101519, Note_off_c, 1, 49, 0
1, 101519, Note_off_c, 1, 70, 0
1, 101520, Note_on_c, 1, 74, 127
1, 101520, Note_on_c, 1, 71, 127
1, 101520, Note_on_c, 1, 66, 127
1, 101520, Note_on_c, 1, 47, 127
1, 101615, Note_off_c, 1, 74, 0
1, 101615, Note_off_c, 1, 71, 0
1, 101615, Note_off_c, 1, 66, 0
1, 101615, Note_off_c, 1, 47, 0
1, 101640, Note_on_c, 1, 73, 127
1, 101640, Note_on_c, 1, 70, 127
1, 101640, Note_on_c, 1, 66, 127
1, 101640, Note_on_c, 1, 54, 127
1, 101699, Note_off_c, 1, 66, 0
1, 101700, Note_on_c, 1, 64, 127
1, 101759, Note_off_c, 1, 73, 0
1, 101759, Note_off_c, 1, 70, 0
1, 101759, Note_off_c, 1, 54, 0
1, 101759, Note_off_c, 1, 64, 0
1, 101760, Note_on_c, 1, 71, 127
1, 101760, Note_on_c, 1, 62, 127
1, 101760, Note_on_c, 1, 55, 127
1, 101819, Note_off_c, 1, 55, 0
1, 101820, Note_on_c, 1, 69, 127
1, 101820, Note_on_c, 1, 54, 127
1, 101879, Note_off_c, 1, 71, 0
1, 101879, Note_off_c, 1, 62, 0
1, 101879, Note_off_c, 1, 69, 0
1, 101879, Note_off_c, 1, 54, 0
1, 101880, Note_on_c, 1, 73, 127
1, 101880, Note_on_c, 1, 67, 127
1, 101880, Note_on_c, 1, 64, 127
1, 101880, Note_on_c, 1, 52, 127
1, 101999, Note_off_c, 1, 73, 0
1, 101999, Note_off_c, 1, 67, 0
1, 101999, Note_off_c, 1, 64, 0
1, 101999, Note_off_c, 1, 52, 0
1, 102000, Note_on_c, 1, 74, 127
1, 102000, Note_on_c, 1, 66, 127
1, 102000, Note_on_c, 1, 57, 127
1, 102000, Note_on_c, 1, 50, 127
1, 102095, Note_off_c, 1, 74, 0
1, 102095, Note_off_c, 1, 66, 0
1, 102095, Note_off_c, 1, 57, 0
1, 102095, Note_off_c, 1, 50, 0
1, 102120, Note_on_c, 1, 73, 127
1, 102120, Note_on_c, 1, 64, 127
1, 102120, Note_on_c, 1, 57, 127
1, 102120, Note_on_c, 1, 45, 127
1, 102179, Note_off_c, 1, 64, 0
1, 102180, Note_on_c, 1, 69, 127
1, 102239, Note_off_c, 1, 73, 0
1, 102239, Note_off_c, 1, 57, 0
1, 102239, Note_off_c, 1, 45, 0
1, 102240, Note_on_c, 1, 71, 127
1, 102240, Note_on_c, 1, 59, 127
1, 102240, Note_on_c, 1, 52, 127
1, 102299, Note_off_c, 1, 69, 0
1, 102300, Note_on_c, 1, 68, 127
1, 102359, Note_off_c, 1, 71, 0
1, 102359, Note_off_c, 1, 59, 0
1, 102360, Note_on_c, 1, 61, 127
1, 102419, Note_off_c, 1, 68, 0
1, 102419, Note_off_c, 1, 61, 0
1, 102420, Note_on_c, 1, 66, 127
1, 102420, Note_on_c, 1, 63, 127
1, 102479, Note_off_c, 1, 66, 0
1, 102479, Note_off_c, 1, 63, 0
1, 102480, Note_on_c, 1, 76, 127
1, 102539, Note_off_c, 1, 52, 0
1, 102540, Note_on_c, 1, 54, 127
1, 102599, Note_off_c, 1, 54, 0
1, 102600, Note_on_c, 1, 56, 127
1, 102659, Note_off_c, 1, 76, 0
1, 102659, Note_off_c, 1, 56, 0
1, 102660, Note_on_c, 1, 74, 127
1, 102719, Note_off_c, 1, 74, 0
1, 102840, Note_on_c, 1, 74, 127
1, 102840, Note_on_c, 1, 69, 127
1, 102840, Note_on_c, 1, 57, 127
1, 102840, Note_on_c, 1, 54, 127
1, 102899, Note_off_c, 1, 74, 0
1, 102899, Note_off_c, 1, 57, 0
1, 102899, Note_off_c, 1, 54, 0
1, 102900, Note_on_c, 1, 73, 127
1, 102900, Note_on_c, 1, 61, 127
1, 102900, Note_on_c, 1, 52, 127
1, 102959, Note_off_c, 1, 69, 0
1, 102959, Note_off_c, 1, 73, 0
1, 102959, Note_off_c, 1, 61, 0
1, 102959, Note_off_c, 1, 52, 0
1, 102960, Note_on_c, 1, 71, 127
1, 102960, Note_on_c, 1, 69, 127
1, 102960, Note_on_c, 1, 66, 127
1, 102960, Note_on_c, 1, 50, 127
1, 103019, Note_off_c, 1, 66, 0
1, 103019, Note_off_c, 1, 50, 0
1, 103020, Note_on_c, 1, 62, 127
1, 103020, Note_on_c, 1, 47, 127
1, 103079, Note_off_c, 1, 69, 0
1, 103079, Note_off_c, 1, 62, 0
1, 103079, Note_off_c, 1, 47, 0
1, 103080, Note_on_c, 1, 68, 127
1, 103080, Note_on_c, 1, 59, 127
1, 103080, Note_on_c, 1, 52, 127
1, 103139, Note_off_c, 1, 59, 0
1, 103140, Note_on_c, 1, 64, 127
1, 103199, Note_off_c, 1, 71, 0
1, 103199, Note_off_c, 1, 68, 0
1, 103199, Note_off_c, 1, 52, 0
1, 103199, Note_off_c, 1, 64, 0
1, 103200, Note_on_c, 1, 69, 127
1, 103200, Note_on_c, 1, 64, 127
1, 103200, Note_on_c, 1, 61, 127
1, 103200, Note_on_c, 1, 45, 127
1, 103559, Note_off_c, 1, 69, 0
1, 103559, Note_off_c, 1, 64, 0
1, 103559, Note_off_c, 1, 61, 0
1, 103560, Note_off_c, 1, 45, 0
1, 103860, Note_on_c, 1, 61, 127
1, 103860, Note_on_c, 1, 66, 127
1, 103860, Note_on_c, 1, 57, 127
1, 103860, Note_on_c, 1, 54, 127
1, 103889, Note_off_c, 1, 66, 0
1, 103889, Note_off_c, 1, 57, 0
1, 103889, Note_off_c, 1, 54, 0
1, 103890, Note_on_c, 1, 68, 127
1, 103890, Note_on_c, 1, 59, 127
1, 103890, Note_on_c, 1, 56, 127
1, 103919, Note_off_c, 1, 61, 0
1, 103919, Note_off_c, 1, 68, 0
1, 103919, Note_off_c, 1, 59, 0
1, 103919, Note_off_c, 1, 56, 0
1, 103920, Note_on_c, 1, 66, 127
1, 103920, Note_on_c, 1, 61, 127
1, 103920, Note_on_c, 1, 69, 127
1, 103920, Note_on_c, 1, 57, 127
1, 103979, Note_off_c, 1, 57, 0
1, 103980, Note_on_c, 1, 56, 127
1, 104039, Note_off_c, 1, 66, 0
1, 104039, Note_off_c, 1, 56, 0
1, 104040, Note_off_c, 1, 61, 0
1, 104100, Note_on_c, 1, 54, 127
1, 104130, Note_on_c, 1, 68, 127
1, 104144, Note_off_c, 1, 68, 0
1, 104159, Note_off_c, 1, 54, 0
1, 104160, Note_off_c, 1, 69, 0
1, 104160, Note_on_c, 1, 65, 127
1, 104339, Note_off_c, 1, 65, 0
1, 104340, Note_on_c, 1, 66, 127
1, 104340, Note_on_c, 1, 57, 127
1, 104399, Note_off_c, 1, 66, 0
1, 104399, Note_off_c, 1, 57, 0
1, 104400, Note_on_c, 1, 71, 127
1, 104400, Note_on_c, 1, 66, 127
1, 104400, Note_on_c, 1, 62, 127
1, 104459, Note_off_c, 1, 62, 0
1, 104460, Note_on_c, 1, 59, 127
1, 104490, Note_on_c, 1, 73, 127
1, 104504, Note_off_c, 1, 73, 0
1, 104505, Note_on_c, 1, 74, 127
1, 104519, Note_off_c, 1, 59, 0
1, 104519, Note_off_c, 1, 74, 0
1, 104520, Note_off_c, 1, 71, 0
1, 104520, Note_on_c, 1, 69, 127
1, 104520, Note_on_c, 1, 57, 127
1, 104579, Note_off_c, 1, 69, 0
1, 104579, Note_off_c, 1, 57, 0
1, 104580, Note_on_c, 1, 68, 127
1, 104580, Note_on_c, 1, 56, 127
1, 104639, Note_off_c, 1, 68, 0
1, 104639, Note_off_c, 1, 56, 0
1, 104700, Note_on_c, 1, 61, 127
1, 104759, Note_off_c, 1, 61, 0
1, 104820, Note_on_c, 1, 54, 127
1, 104879, Note_off_c, 1, 54, 0
1, 105120, Note_on_c, 1, 65, 127
1, 105128, Note_off_c, 1, 66, 0
1, 105240, Note_off_c, 1, 65, 0
1, 105480, Note_on_c, 1, 53, 127
1, 105539, Note_off_c, 1, 53, 0
1, 105600, Note_on_c, 1, 49, 127
1, 105659, Note_off_c, 1, 49, 0
1, 105660, Note_on_c, 1, 51, 127
1, 105690, Note_on_c, 1, 63, 127
1, 105719, Note_off_c, 1, 51, 0
1, 105719, Note_off_c, 1, 63, 0
1, 105900, Note_on_c, 1, 42, 127
1, 105959, Note_off_c, 1, 42, 0
1, 105990, Note_on_c, 1, 73, 127
1, 106019, Note_off_c, 1, 73, 0
1, 106020, Note_on_c, 1, 71, 127
1, 106020, Note_on_c, 1, 66, 127
1, 106020, Note_on_c, 1, 69, 127
1, 106020, Note_on_c, 1, 54, 127
1, 106049, Note_off_c, 1, 71, 0
1, 106079, Note_off_c, 1, 66, 0
1, 106079, Note_off_c, 1, 69, 0
1, 106079, Note_off_c, 1, 54, 0
1, 106080, Note_on_c, 1, 71, 127
1, 106080, Note_on_c, 1, 64, 127
1, 106080, Note_on_c, 1, 68, 127
1, 106080, Note_on_c, 1, 56, 127
1, 106109, Note_off_c, 1, 71, 0
1, 106110, Note_on_c, 1, 69, 127
1, 106139, Note_off_c, 1, 56, 0
1, 106139, Note_off_c, 1, 69, 0
1, 106140, Note_on_c, 1, 59, 127
1, 106170, Note_on_c, 1, 66, 127
1, 106199, Note_off_c, 1, 59, 0
1, 106199, Note_off_c, 1, 66, 0
1, 106260, Note_off_c, 1, 64, 0
1, 106260, Note_on_c, 1, 62, 127
1, 106260, Note_on_c, 1, 52, 127
1, 106319, Note_off_c, 1, 62, 0
1, 106319, Note_off_c, 1, 52, 0
1, 106320, Note_off_c, 1, 68, 0
1, 106320, Note_on_c, 1, 61, 127
1, 106320, Note_on_c, 1, 57, 127
1, 106379, Note_off_c, 1, 57, 0
1, 106380, Note_on_c, 1, 54, 127
1, 106439, Note_off_c, 1, 54, 0
1, 106440, Note_off_c, 1, 61, 0
1, 106440, Note_on_c, 1, 50, 127
1, 106499, Note_off_c, 1, 50, 0
1, 106560, Note_on_c, 1, 45, 127
1, 106619, Note_off_c, 1, 45, 0
1, 106710, Note_on_c, 1, 76, 127
1, 106739, Note_off_c, 1, 76, 0
1, 106740, Note_on_c, 1, 73, 127
1, 106740, Note_on_c, 1, 64, 127
1, 106740, Note_on_c, 1, 61, 127
1, 106740, Note_on_c, 1, 57, 127
1, 106769, Note_off_c, 1, 73, 0
1, 106770, Note_on_c, 1, 69, 127
1, 106799, Note_off_c, 1, 64, 0
1, 106799, Note_off_c, 1, 61, 0
1, 106799, Note_off_c, 1, 57, 0
1, 106799, Note_off_c, 1, 69, 0
1, 106800, Note_on_c, 1, 64, 127
1, 106800, Note_on_c, 1, 71, 127
1, 106800, Note_on_c, 1, 68, 127
1, 106800, Note_on_c, 1, 56, 127
1, 106829, Note_off_c, 1, 64, 0
1, 106829, Note_off_c, 1, 56, 0
1, 106860, Note_on_c, 1, 62, 127
1, 106889, Note_off_c, 1, 62, 0
1, 106890, Note_on_c, 1, 59, 127
1, 106919, Note_off_c, 1, 59, 0
1, 106920, Note_off_c, 1, 71, 0
1, 106920, Note_off_c, 1, 68, 0
1, 106920, Note_on_c, 1, 73, 127
1, 106920, Note_on_c, 1, 69, 127
1, 106920, Note_on_c, 1, 57, 127
1, 106949, Note_off_c, 1, 57, 0
1, 106980, Note_on_c, 1, 61, 127
1, 107009, Note_off_c, 1, 61, 0
1, 107040, Note_off_c, 1, 73, 0
1, 107040, Note_off_c, 1, 69, 0
1, 107160, Note_on_c, 1, 52, 127
1, 107190, Note_on_c, 1, 76, 127
1, 107219, Note_off_c, 1, 76, 0
1, 107250, Note_on_c, 1, 70, 127
1, 107279, Note_off_c, 1, 70, 0
1, 107280, Note_on_c, 1, 66, 127
1, 107309, Note_off_c, 1, 52, 0
1, 107400, Note_on_c, 1, 58, 127
1, 107429, Note_off_c, 1, 58, 0
1, 107520, Note_on_c, 1, 54, 127
1, 107549, Note_off_c, 1, 54, 0
1, 107655, Note_on_c, 1, 74, 127
1, 107669, Note_off_c, 1, 74, 0
1, 107760, Note_on_c, 1, 50, 127
1, 107790, Note_on_c, 1, 79, 127
1, 107819, Note_off_c, 1, 66, 0
1, 107819, Note_off_c, 1, 50, 0
1, 107819, Note_off_c, 1, 79, 0
1, 107820, Note_on_c, 1, 78, 127
1, 107820, Note_on_c, 1, 67, 127
1, 107820, Note_on_c, 1, 62, 127
1, 107820, Note_on_c, 1, 55, 127
1, 107849, Note_off_c, 1, 78, 0
1, 107850, Note_on_c, 1, 76, 127
1, 107879, Note_off_c, 1, 67, 0
1, 107879, Note_off_c, 1, 62, 0
1, 107879, Note_off_c, 1, 55, 0
1, 107879, Note_off_c, 1, 76, 0
1, 107880, Note_on_c, 1, 78, 127
1, 107880, Note_on_c, 1, 71, 127
1, 107880, Note_on_c, 1, 61, 127
1, 107880, Note_on_c, 1, 52, 127
1, 107909, Note_off_c, 1, 78, 0
1, 107910, Note_on_c, 1, 76, 127
1, 107939, Note_off_c, 1, 71, 0
1, 107939, Note_off_c, 1, 61, 0
1, 107939, Note_off_c, 1, 52, 0
1, 107939, Note_off_c, 1, 76, 0
1, 107940, Note_on_c, 1, 74, 127
1, 107940, Note_on_c, 1, 70, 127
1, 107940, Note_on_c, 1, 61, 127
1, 107940, Note_on_c, 1, 54, 127
1, 107969, Note_off_c, 1, 74, 0
1, 107970, Note_on_c, 1, 73, 127
1, 107999, Note_off_c, 1, 70, 0
1, 107999, Note_off_c, 1, 61, 0
1, 107999, Note_off_c, 1, 54, 0
1, 107999, Note_off_c, 1, 73, 0
1, 108000, Note_on_c, 1, 74, 127
1, 108000, Note_on_c, 1, 71, 127
1, 108000, Note_on_c, 1, 66, 127
1, 108000, Note_on_c, 1, 62, 127
1, 108000, Note_on_c, 1, 47, 127
1, 108014, Note_off_c, 1, 74, 0
1, 108015, Note_on_c, 1, 73, 127
1, 108029, Note_off_c, 1, 73, 0
1, 108059, Note_off_c, 1, 47, 0
1, 108060, Note_on_c, 1, 50, 127
1, 108119, Note_off_c, 1, 50, 0
1, 108120, Note_off_c, 1, 66, 0
1, 108120, Note_off_c, 1, 62, 0
1, 108120, Note_on_c, 1, 49, 127
1, 108149, Note_off_c, 1, 71, 0
1, 108150, Note_on_c, 1, 70, 127
1, 108179, Note_off_c, 1, 49, 0
1, 108179, Note_off_c, 1, 70, 0
1, 108180, Note_on_c, 1, 73, 127
1, 108180, Note_on_c, 1, 46, 127
1, 108209, Note_off_c, 1, 73, 0
1, 108210, Note_on_c, 1, 76, 127
1, 108239, Note_off_c, 1, 46, 0
1, 108239, Note_off_c, 1, 76, 0
1, 108240, Note_on_c, 1, 74, 127
1, 108240, Note_on_c, 1, 66, 127
1, 108240, Note_on_c, 1, 62, 127
1, 108240, Note_on_c, 1, 47, 127
1, 108269, Note_off_c, 1, 74, 0
1, 108270, Note_on_c, 1, 71, 127
1, 108299, Note_off_c, 1, 47, 0
1, 108299, Note_off_c, 1, 71, 0
1, 108300, Note_on_c, 1, 42, 127
1, 108330, Note_on_c, 1, 78, 127
1, 108359, Note_off_c, 1, 42, 0
1, 108359, Note_off_c, 1, 78, 0
1, 108360, Note_off_c, 1, 62, 0
1, 108360, Note_on_c, 1, 73, 127
1, 108360, Note_on_c, 1, 70, 127
1, 108360, Note_on_c, 1, 46, 127
1, 108389, Note_off_c, 1, 73, 0
1, 108419, Note_off_c, 1, 46, 0
1, 108450, Note_on_c, 1, 76, 127
1, 108479, Note_off_c, 1, 76, 0
1, 108480, Note_off_c, 1, 66, 0
1, 108480, Note_off_c, 1, 70, 0
1, 108540, Note_on_c, 1, 50, 127
1, 108569, Note_off_c, 1, 50, 0
1, 108570, Note_on_c, 1, 49, 127
1, 108599, Note_off_c, 1, 49, 0
1, 108660, Note_on_c, 1, 71, 127
1, 108660, Note_on_c, 1, 45, 127
1, 108689, Note_off_c, 1, 71, 0
1, 108690, Note_on_c, 1, 73, 127
1, 108719, Note_off_c, 1, 45, 0
1, 108719, Note_off_c, 1, 73, 0
1, 108720, Note_on_c, 1, 74, 127
1, 108720, Note_on_c, 1, 66, 127
1, 108720, Note_on_c, 1, 44, 127
1, 108749, Note_off_c, 1, 74, 0
1, 108750, Note_on_c, 1, 73, 127
1, 108779, Note_off_c, 1, 44, 0
1, 108779, Note_off_c, 1, 73, 0
1, 108780, Note_on_c, 1, 71, 127
1, 108780, Note_on_c, 1, 45, 127
1, 108809, Note_off_c, 1, 71, 0
1, 108810, Note_on_c, 1, 69, 127
1, 108839, Note_off_c, 1, 45, 0
1, 108839, Note_off_c, 1, 69, 0
1, 108840, Note_on_c, 1, 68, 127
1, 108840, Note_on_c, 1, 47, 127
1, 108899, Note_off_c, 1, 47, 0
1, 108900, Note_on_c, 1, 78, 127
1, 108960, Note_off_c, 1, 66, 0
1, 108960, Note_off_c, 1, 68, 0
1, 108960, Note_on_c, 1, 65, 127
1, 108960, Note_on_c, 1, 49, 127
1, 108989, Note_off_c, 1, 78, 0
1, 108990, Note_on_c, 1, 77, 127
1, 109019, Note_off_c, 1, 49, 0
1, 109019, Note_off_c, 1, 77, 0
1, 109020, Note_on_c, 1, 51, 127
1, 109050, Note_on_c, 1, 80, 127
1, 109079, Note_off_c, 1, 51, 0
1, 109079, Note_off_c, 1, 80, 0
1, 109080, Note_off_c, 1, 65, 0
1, 109080, Note_on_c, 1, 59, 127
1, 109080, Note_on_c, 1, 53, 127
1, 109139, Note_off_c, 1, 53, 0
1, 109200, Note_off_c, 1, 59, 0
1, 109200, Note_on_c, 1, 54, 127
1, 109259, Note_off_c, 1, 54, 0
1, 109440, Note_on_c, 1, 42, 127
1, 109499, Note_off_c, 1, 42, 0
1, 109680, Note_on_c, 1, 61, 127
1, 109709, Note_off_c, 1, 61, 0
1, 109800, Note_on_c, 1, 61, 127
1, 109800, Note_on_c, 1, 54, 127
1, 109800, Note_on_c, 1, 45, 127
1, 109829, Note_off_c, 1, 61, 0
1, 109859, Note_off_c, 1, 45, 0
1, 109860, Note_on_c, 1, 42, 127
1, 109889, Note_off_c, 1, 54, 0
1, 109890, Note_on_c, 1, 56, 127
1, 109904, Note_off_c, 1, 56, 0
1, 109905, Note_on_c, 1, 57, 127
1, 109919, Note_off_c, 1, 42, 0
1, 109919, Note_off_c, 1, 57, 0
1, 109920, Note_on_c, 1, 61, 127
1, 109920, Note_on_c, 1, 56, 127
1, 109920, Note_on_c, 1, 47, 127
1, 109979, Note_off_c, 1, 56, 0
1, 109979, Note_off_c, 1, 47, 0
1, 109980, Note_on_c, 1, 54, 127
1, 109980, Note_on_c, 1, 45, 127
1, 110039, Note_off_c, 1, 54, 0
1, 110039, Note_off_c, 1, 45, 0
1, 110040, Note_on_c, 1, 53, 127
1, 110040, Note_on_c, 1, 44, 127
1, 110069, Note_off_c, 1, 61, 0
1, 110070, Note_on_c, 1, 73, 127
1, 110099, Note_off_c, 1, 53, 0
1, 110099, Note_off_c, 1, 44, 0
1, 110099, Note_off_c, 1, 73, 0
1, 110100, Note_on_c, 1, 69, 127
1, 110100, Note_on_c, 1, 54, 127
1, 110100, Note_on_c, 1, 45, 127
1, 110129, Note_off_c, 1, 69, 0
1, 110130, Note_on_c, 1, 66, 127
1, 110159, Note_off_c, 1, 54, 0
1, 110159, Note_off_c, 1, 45, 0
1, 110159, Note_off_c, 1, 66, 0
1, 110160, Note_on_c, 1, 65, 127
1, 110160, Note_on_c, 1, 59, 127
1, 110160, Note_on_c, 1, 50, 127
1, 110174, Note_off_c, 1, 65, 0
1, 110175, Note_on_c, 1, 66, 127
1, 110189, Note_off_c, 1, 66, 0
1, 110190, Note_on_c, 1, 68, 127
1, 110219, Note_off_c, 1, 50, 0
1, 110220, Note_on_c, 1, 42, 127
1, 110249, Note_off_c, 1, 59, 0
1, 110250, Note_on_c, 1, 61, 127
1, 110264, Note_off_c, 1, 61, 0
1, 110265, Note_on_c, 1, 62, 127
1, 110279, Note_off_c, 1, 68, 0
1, 110279, Note_off_c, 1, 42, 0
1, 110279, Note_off_c, 1, 62, 0
1, 110280, Note_on_c, 1, 68, 127
1, 110280, Note_on_c, 1, 61, 127
1, 110280, Note_on_c, 1, 41, 127
1, 110294, Note_off_c, 1, 68, 0
1, 110295, Note_on_c, 1, 69, 127
1, 110309, Note_off_c, 1, 69, 0
1, 110310, Note_on_c, 1, 71, 127
1, 110339, Note_off_c, 1, 61, 0
1, 110339, Note_off_c, 1, 41, 0
1, 110340, Note_on_c, 1, 59, 127
1, 110340, Note_on_c, 1, 44, 127
1, 110399, Note_off_c, 1, 59, 0
1, 110399, Note_off_c, 1, 44, 0
1, 110400, Note_on_c, 1, 42, 127
1, 110429, Note_off_c, 1, 71, 0
1, 110430, Note_on_c, 1, 74, 127
1, 110459, Note_off_c, 1, 42, 0
1, 110459, Note_off_c, 1, 74, 0
1, 110460, Note_on_c, 1, 73, 127
1, 110460, Note_on_c, 1, 57, 127
1, 110460, Note_on_c, 1, 44, 127
1, 110489, Note_off_c, 1, 73, 0
1, 110490, Note_on_c, 1, 71, 127
1, 110519, Note_off_c, 1, 57, 0
1, 110519, Note_off_c, 1, 44, 0
1, 110519, Note_off_c, 1, 71, 0
1, 110520, Note_on_c, 1, 73, 127
1, 110520, Note_on_c, 1, 54, 127
1, 110520, Note_on_c, 1, 45, 127
1, 110549, Note_off_c, 1, 73, 0
1, 110550, Note_on_c, 1, 71, 127
1, 110579, Note_off_c, 1, 54, 0
1, 110579, Note_off_c, 1, 45, 0
1, 110579, Note_off_c, 1, 71, 0
1, 110580, Note_on_c, 1, 69, 127
1, 110580, Note_on_c, 1, 57, 127
1, 110580, Note_on_c, 1, 42, 127
1, 110609, Note_off_c, 1, 69, 0
1, 110610, Note_on_c, 1, 68, 127
1, 110639, Note_off_c, 1, 57, 0
1, 110639, Note_off_c, 1, 42, 0
1, 110639, Note_off_c, 1, 68, 0
1, 110640, Note_on_c, 1, 66, 127
1, 110640, Note_on_c, 1, 57, 127
1, 110640, Note_on_c, 1, 49, 127
1, 110669, Note_off_c, 1, 66, 0
1, 110670, Note_on_c, 1, 63, 127
1, 110699, Note_off_c, 1, 57, 0
1, 110699, Note_off_c, 1, 49, 0
1, 110699, Note_off_c, 1, 63, 0
1, 110700, Note_on_c, 1, 65, 127
1, 110700, Note_on_c, 1, 56, 127
1, 110700, Note_on_c, 1, 47, 127
1, 110729, Note_off_c, 1, 65, 0
1, 110729, Note_off_c, 1, 47, 0
1, 110730, Note_on_c, 1, 66, 127
1, 110730, Note_on_c, 1, 49, 127
1, 110759, Note_off_c, 1, 66, 0
1, 110759, Note_off_c, 1, 49, 0
1, 110760, Note_on_c, 1, 71, 127
1, 110760, Note_on_c, 1, 50, 127
1, 110789, Note_off_c, 1, 71, 0
1, 110790, Note_on_c, 1, 68, 127
1, 110819, Note_off_c, 1, 56, 0
1, 110819, Note_off_c, 1, 50, 0
1, 110819, Note_off_c, 1, 68, 0
1, 110820, Note_on_c, 1, 69, 127
1, 110820, Note_on_c, 1, 54, 127
1, 110820, Note_on_c, 1, 49, 127
1, 110849, Note_off_c, 1, 69, 0
1, 110850, Note_on_c, 1, 66, 127
1, 110879, Note_off_c, 1, 54, 0
1, 110879, Note_off_c, 1, 49, 0
1, 110879, Note_off_c, 1, 66, 0
1, 110880, Note_on_c, 1, 66, 127
1, 110880, Note_on_c, 1, 62, 127
1, 110880, Note_on_c, 1, 47, 127
1, 110909, Note_off_c, 1, 66, 0
1, 110910, Note_on_c, 1, 63, 127
1, 110939, Note_off_c, 1, 62, 0
1, 110939, Note_off_c, 1, 47, 0
1, 110939, Note_off_c, 1, 63, 0
1, 110940, Note_on_c, 1, 65, 127
1, 110940, Note_on_c, 1, 61, 127
1, 110940, Note_on_c, 1, 44, 127
1, 110969, Note_off_c, 1, 65, 0
1, 110970, Note_on_c, 1, 68, 127
1, 110999, Note_off_c, 1, 44, 0
1, 110999, Note_off_c, 1, 68, 0
1, 111000, Note_on_c, 1, 71, 127
1, 111000, Note_on_c, 1, 41, 127
1, 111029, Note_off_c, 1, 71, 0
1, 111030, Note_on_c, 1, 74, 127
1, 111059, Note_off_c, 1, 61, 0
1, 111059, Note_off_c, 1, 41, 0
1, 111059, Note_off_c, 1, 74, 0
1, 111060, Note_on_c, 1, 73, 127
1, 111060, Note_on_c, 1, 53, 127
1, 111060, Note_on_c, 1, 47, 127
1, 111089, Note_off_c, 1, 73, 0
1, 111090, Note_on_c, 1, 71, 127
1, 111119, Note_off_c, 1, 53, 0
1, 111119, Note_off_c, 1, 47, 0
1, 111119, Note_off_c, 1, 71, 0
1, 111120, Note_on_c, 1, 73, 127
1, 111120, Note_on_c, 1, 54, 127
1, 111120, Note_on_c, 1, 45, 127
1, 111149, Note_off_c, 1, 45, 0
1, 111150, Note_on_c, 1, 49, 127
1, 111179, Note_off_c, 1, 49, 0
1, 111209, Note_off_c, 1, 54, 0
1, 111210, Note_on_c, 1, 56, 127
1, 111210, Note_on_c, 1, 42, 127
1, 111224, Note_off_c, 1, 56, 0
1, 111225, Note_on_c, 1, 57, 127
1, 111239, Note_off_c, 1, 42, 0
1, 111239, Note_off_c, 1, 57, 0
1, 111240, Note_on_c, 1, 41, 127
1, 111269, Note_off_c, 1, 41, 0
1, 111270, Note_on_c, 1, 47, 127
1, 111299, Note_off_c, 1, 47, 0
1, 111390, Note_off_c, 1, 73, 0
1, 111390, Note_on_c, 1, 68, 127
1, 111419, Note_off_c, 1, 68, 0
1, 111420, Note_on_c, 1, 73, 127
1, 111420, Note_on_c, 1, 53, 127
1, 111420, Note_on_c, 1, 49, 127
1, 111449, Note_off_c, 1, 73, 0
1, 111449, Note_off_c, 1, 49, 0
1, 111450, Note_on_c, 1, 77, 127
1, 111479, Note_off_c, 1, 53, 0
1, 111479, Note_off_c, 1, 77, 0
1, 111480, Note_on_c, 1, 80, 127
1, 111480, Note_on_c, 1, 49, 127
1, 111509, Note_off_c, 1, 80, 0
1, 111510, Note_on_c, 1, 77, 127
1, 111539, Note_off_c, 1, 49, 0
1, 111539, Note_off_c, 1, 77, 0
1, 111540, Note_on_c, 1, 78, 127
1, 111540, Note_on_c, 1, 60, 127
1, 111540, Note_on_c, 1, 49, 127
1, 111599, Note_off_c, 1, 60, 0
1, 111629, Note_off_c, 1, 78, 0
1, 111630, Note_on_c, 1, 68, 127
1, 111659, Note_off_c, 1, 49, 0
1, 111659, Note_off_c, 1, 68, 0
1, 111660, Note_on_c, 1, 69, 127
1, 111660, Note_on_c, 1, 61, 127
1, 111660, Note_on_c, 1, 49, 127
1, 111689, Note_off_c, 1, 69, 0
1, 111690, Note_on_c, 1, 73, 127
1, 111719, Note_off_c, 1, 61, 0
1, 111719, Note_off_c, 1, 49, 0
1, 111719, Note_off_c, 1, 73, 0
1, 111720, Note_on_c, 1, 78, 127
1, 111720, Note_on_c, 1, 59, 127
1, 111720, Note_on_c, 1, 50, 127
1, 111749, Note_off_c, 1, 59, 0
1, 111750, Note_on_c, 1, 57, 127
1, 111779, Note_off_c, 1, 78, 0
1, 111779, Note_off_c, 1, 50, 0
1, 111779, Note_off_c, 1, 57, 0
1, 111780, Note_on_c, 1, 72, 127
1, 111780, Note_on_c, 1, 56, 127
1, 111780, Note_on_c, 1, 50, 127
1, 111809, Note_off_c, 1, 56, 0
1, 111810, Note_on_c, 1, 54, 127
1, 111839, Note_off_c, 1, 50, 0
1, 111839, Note_off_c, 1, 54, 0
1, 111840, Note_on_c, 1, 49, 127
1, 111869, Note_off_c, 1, 49, 0
1, 111899, Note_off_c, 1, 72, 0
1, 111900, Note_on_c, 1, 73, 127
1, 111900, Note_on_c, 1, 53, 127
1, 111900, Note_on_c, 1, 49, 127
1, 111929, Note_off_c, 1, 49, 0
1, 111930, Note_on_c, 1, 47, 127
1, 111959, Note_off_c, 1, 73, 0
1, 111959, Note_off_c, 1, 53, 0
1, 111959, Note_off_c, 1, 47, 0
1, 111960, Note_on_c, 1, 49, 127
1, 111960, Note_on_c, 1, 66, 127
1, 111960, Note_on_c, 1, 61, 127
1, 111960, Note_on_c, 1, 45, 127
1, 111989, Note_off_c, 1, 45, 0
1, 111990, Note_on_c, 1, 44, 127
1, 112019, Note_off_c, 1, 49, 0
1, 112019, Note_off_c, 1, 44, 0
1, 112020, Note_off_c, 1, 66, 0
1, 112020, Note_on_c, 1, 56, 127
1, 112020, Note_on_c, 1, 68, 127
1, 112020, Note_on_c, 1, 71, 127
1, 112020, Note_on_c, 1, 42, 127
1, 112049, Note_off_c, 1, 42, 0
1, 112050, Note_on_c, 1, 41, 127
1, 112079, Note_off_c, 1, 56, 0
1, 112079, Note_off_c, 1, 41, 0
1, 112080, Note_off_c, 1, 68, 0
1, 112080, Note_off_c, 1, 71, 0
1, 112080, Note_on_c, 1, 57, 127
1, 112080, Note_on_c, 1, 69, 127
1, 112139, Note_off_c, 1, 57, 0
1, 112140, Note_on_c, 1, 59, 127
1, 112169, Note_off_c, 1, 59, 0
1, 112200, Note_off_c, 1, 61, 0
1, 112200, Note_off_c, 1, 69, 0
1, 112200, Note_on_c, 1, 47, 127
1, 112259, Note_off_c, 1, 47, 0
1, 112260, Note_on_c, 1, 54, 127
1, 112289, Note_off_c, 1, 54, 0
1, 112320, Note_on_c, 1, 52, 127
1, 112320, Note_on_c, 1, 64, 127
1, 112350, Note_on_c, 1, 74, 127
1, 112379, Note_off_c, 1, 52, 0
1, 112379, Note_off_c, 1, 74, 0
1, 112380, Note_off_c, 1, 64, 0
1, 112440, Note_on_c, 1, 64, 127
1, 112440, Note_on_c, 1, 59, 127
1, 112440, Note_on_c, 1, 45, 127
1, 112469, Note_off_c, 1, 64, 0
1, 112469, Note_off_c, 1, 45, 0
1, 112470, Note_on_c, 1, 44, 127
1, 112499, Note_off_c, 1, 59, 0
1, 112499, Note_off_c, 1, 44, 0
1, 112500, Note_on_c, 1, 64, 127
1, 112500, Note_on_c, 1, 62, 127
1, 112500, Note_on_c, 1, 42, 127
1, 112529, Note_off_c, 1, 64, 0
1, 112529, Note_off_c, 1, 42, 0
1, 112530, Note_on_c, 1, 40, 127
1, 112559, Note_off_c, 1, 40, 0
1, 112560, Note_on_c, 1, 45, 127
1, 112589, Note_off_c, 1, 62, 0
1, 112590, Note_on_c, 1, 76, 127
1, 112590, Note_on_c, 1, 61, 127
1, 112619, Note_off_c, 1, 45, 0
1, 112619, Note_off_c, 1, 76, 0
1, 112619, Note_off_c, 1, 61, 0
1, 112620, Note_on_c, 1, 74, 127
1, 112620, Note_on_c, 1, 59, 127
1, 112620, Note_on_c, 1, 54, 127
1, 112649, Note_off_c, 1, 74, 0
1, 112649, Note_off_c, 1, 59, 0
1, 112650, Note_on_c, 1, 73, 127
1, 112650, Note_on_c, 1, 57, 127
1, 112679, Note_off_c, 1, 54, 0
1, 112679, Note_off_c, 1, 73, 0
1, 112679, Note_off_c, 1, 57, 0
1, 112680, Note_on_c, 1, 76, 127
1, 112680, Note_on_c, 1, 59, 127
1, 112680, Note_on_c, 1, 50, 127
1, 112709, Note_off_c, 1, 76, 0
1, 112710, Note_on_c, 1, 74, 127
1, 112739, Note_off_c, 1, 59, 0
1, 112739, Note_off_c, 1, 50, 0
1, 112739, Note_off_c, 1, 74, 0
1, 112740, Note_on_c, 1, 73, 127
1, 112740, Note_on_c, 1, 56, 127
1, 112740, Note_on_c, 1, 52, 127
1, 112769, Note_off_c, 1, 73, 0
1, 112770, Note_on_c, 1, 71, 127
1, 112799, Note_off_c, 1, 56, 0
1, 112799, Note_off_c, 1, 52, 0
1, 112799, Note_off_c, 1, 71, 0
1, 112800, Note_on_c, 1, 69, 127
1, 112800, Note_on_c, 1, 57, 127
1, 112800, Note_on_c, 1, 45, 127
1, 112829, Note_off_c, 1, 69, 0
1, 112830, Note_on_c, 1, 64, 127
1, 112859, Note_off_c, 1, 45, 0
1, 112859, Note_off_c, 1, 64, 0
1, 112860, Note_on_c, 1, 61, 127
1, 112860, Note_on_c, 1, 47, 127
1, 112889, Note_off_c, 1, 61, 0
1, 112919, Note_off_c, 1, 57, 0
1, 112919, Note_off_c, 1, 47, 0
1, 112920, Note_on_c, 1, 57, 127
1, 112920, Note_on_c, 1, 49, 127
1, 112949, Note_off_c, 1, 57, 0
1, 112950, Note_on_c, 1, 61, 127
1, 112979, Note_off_c, 1, 49, 0
1, 112979, Note_off_c, 1, 61, 0
1, 112980, Note_on_c, 1, 64, 127
1, 112980, Note_on_c, 1, 50, 127
1, 113009, Note_off_c, 1, 64, 0
1, 113010, Note_on_c, 1, 68, 127
1, 113039, Note_off_c, 1, 50, 0
1, 113039, Note_off_c, 1, 68, 0
1, 113040, Note_on_c, 1, 69, 127
1, 113040, Note_on_c, 1, 49, 127
1, 113099, Note_off_c, 1, 49, 0
1, 113100, Note_on_c, 1, 52, 127
1, 113100, Note_on_c, 1, 47, 127
1, 113159, Note_off_c, 1, 69, 0
1, 113159, Note_off_c, 1, 52, 0
1, 113159, Note_off_c, 1, 47, 0
1, 113160, Note_on_c, 1, 69, 127
1, 113160, Note_on_c, 1, 57, 127
1, 113160, Note_on_c, 1, 49, 127
1, 113219, Note_off_c, 1, 49, 0
1, 113220, Note_on_c, 1, 45, 127
1, 113249, Note_off_c, 1, 69, 0
1, 113250, Note_on_c, 1, 71, 127
1, 113264, Note_off_c, 1, 71, 0
1, 113265, Note_on_c, 1, 73, 127
1, 113279, Note_off_c, 1, 45, 0
1, 113279, Note_off_c, 1, 73, 0
1, 113280, Note_on_c, 1, 52, 127
1, 113309, Note_off_c, 1, 57, 0
1, 113310, Note_on_c, 1, 56, 127
1, 113339, Note_off_c, 1, 56, 0
1, 113340, Note_on_c, 1, 54, 127
1, 113369, Note_off_c, 1, 54, 0
1, 113399, Note_off_c, 1, 52, 0
1, 113400, Note_on_c, 1, 68, 127
1, 113400, Note_on_c, 1, 62, 127
1, 113459, Note_off_c, 1, 68, 0
1, 113459, Note_off_c, 1, 62, 0
1, 113460, Note_on_c, 1, 69, 127
1, 113460, Note_on_c, 1, 61, 127
1, 113460, Note_on_c, 1, 54, 127
1, 113489, Note_off_c, 1, 69, 0
1, 113519, Note_off_c, 1, 61, 0
1, 113519, Note_off_c, 1, 54, 0
1, 113520, Note_on_c, 1, 74, 127
1, 113520, Note_on_c, 1, 61, 127
1, 113520, Note_on_c, 1, 59, 127
1, 113549, Note_off_c, 1, 74, 0
1, 113549, Note_off_c, 1, 59, 0
1, 113550, Note_on_c, 1, 62, 127
1, 113579, Note_off_c, 1, 61, 0
1, 113579, Note_off_c, 1, 62, 0
1, 113580, Note_on_c, 1, 74, 127
1, 113580, Note_on_c, 1, 54, 127
1, 113580, Note_on_c, 1, 59, 127
1, 113609, Note_off_c, 1, 74, 0
1, 113609, Note_off_c, 1, 59, 0
1, 113610, Note_on_c, 1, 76, 127
1, 113624, Note_off_c, 1, 76, 0
1, 113625, Note_on_c, 1, 78, 127
1, 113639, Note_off_c, 1, 54, 0
1, 113639, Note_off_c, 1, 78, 0
1, 113640, Note_on_c, 1, 76, 127
1, 113640, Note_on_c, 1, 59, 127
1, 113640, Note_on_c, 1, 56, 127
1, 113669, Note_off_c, 1, 56, 0
1, 113699, Note_off_c, 1, 76, 0
1, 113700, Note_on_c, 1, 74, 127
1, 113729, Note_off_c, 1, 74, 0
1, 113730, Note_on_c, 1, 52, 127
1, 113759, Note_off_c, 1, 52, 0
1, 113760, Note_on_c, 1, 49, 127
1, 113819, Note_off_c, 1, 59, 0
1, 113819, Note_off_c, 1, 49, 0
1, 113820, Note_on_c, 1, 73, 127
1, 113820, Note_on_c, 1, 57, 127
1, 113820, Note_on_c, 1, 52, 127
1, 113849, Note_off_c, 1, 73, 0
1, 113849, Note_off_c, 1, 57, 0
1, 113850, Note_on_c, 1, 71, 127
1, 113850, Note_on_c, 1, 56, 127
1, 113879, Note_off_c, 1, 52, 0
1, 113879, Note_off_c, 1, 71, 0
1, 113879, Note_off_c, 1, 56, 0
1, 113880, Note_on_c, 1, 69, 127
1, 113880, Note_on_c, 1, 64, 127
1, 113880, Note_on_c, 1, 49, 127
1, 113909, Note_off_c, 1, 69, 0
1, 113910, Note_on_c, 1, 73, 127
1, 113939, Note_off_c, 1, 64, 0
1, 113939, Note_off_c, 1, 49, 0
1, 113939, Note_off_c, 1, 73, 0
1, 113940, Note_on_c, 1, 71, 127
1, 113940, Note_on_c, 1, 62, 127
1, 113940, Note_on_c, 1, 45, 127
1, 113969, Note_off_c, 1, 71, 0
1, 113969, Note_off_c, 1, 62, 0
1, 113970, Note_on_c, 1, 69, 127
1, 113970, Note_on_c, 1, 61, 127
1, 113999, Note_off_c, 1, 45, 0
1, 113999, Note_off_c, 1, 69, 0
1, 113999, Note_off_c, 1, 61, 0
1, 114000, Note_on_c, 1, 71, 127
1, 114000, Note_on_c, 1, 62, 127
1, 114000, Note_on_c, 1, 44, 127
1, 114029, Note_off_c, 1, 71, 0
1, 114029, Note_off_c, 1, 62, 0
1, 114030, Note_on_c, 1, 69, 127
1, 114030, Note_on_c, 1, 61, 127
1, 114059, Note_off_c, 1, 44, 0
1, 114059, Note_off_c, 1, 69, 0
1, 114059, Note_off_c, 1, 61, 0
1, 114060, Note_on_c, 1, 68, 127
1, 114060, Note_on_c, 1, 59, 127
1, 114060, Note_on_c, 1, 52, 127
1, 114089, Note_off_c, 1, 68, 0
1, 114089, Note_off_c, 1, 59, 0
1, 114090, Note_on_c, 1, 71, 127
1, 114090, Note_on_c, 1, 62, 127
1, 114119, Note_off_c, 1, 52, 0
1, 114119, Note_off_c, 1, 71, 0
1, 114119, Note_off_c, 1, 62, 0
1, 114120, Note_on_c, 1, 69, 127
1, 114120, Note_on_c, 1, 61, 127
1, 114120, Note_on_c, 1, 45, 127
1, 114149, Note_off_c, 1, 69, 0
1, 114149, Note_off_c, 1, 61, 0
1, 114150, Note_on_c, 1, 68, 127
1, 114150, Note_on_c, 1, 59, 127
1, 114179, Note_off_c, 1, 45, 0
1, 114179, Note_off_c, 1, 68, 0
1, 114179, Note_off_c, 1, 59, 0
1, 114180, Note_on_c, 1, 66, 127
1, 114180, Note_on_c, 1, 57, 127
1, 114180, Note_on_c, 1, 52, 127
1, 114209, Note_off_c, 1, 66, 0
1, 114209, Note_off_c, 1, 57, 0
1, 114210, Note_on_c, 1, 69, 127
1, 114210, Note_on_c, 1, 61, 127
1, 114239, Note_off_c, 1, 52, 0
1, 114239, Note_off_c, 1, 69, 0
1, 114239, Note_off_c, 1, 61, 0
1, 114240, Note_on_c, 1, 68, 127
1, 114240, Note_on_c, 1, 59, 127
1, 114240, Note_on_c, 1, 40, 127
1, 114269, Note_off_c, 1, 59, 0
1, 114270, Note_on_c, 1, 52, 127
1, 114299, Note_off_c, 1, 68, 0
1, 114299, Note_off_c, 1, 40, 0
1, 114299, Note_off_c, 1, 52, 0
1, 114300, Note_on_c, 1, 64, 127
1, 114300, Note_on_c, 1, 56, 127
1, 114300, Note_on_c, 1, 47, 127
1, 114329, Note_off_c, 1, 56, 0
1, 114330, Note_on_c, 1, 59, 127
1, 114359, Note_off_c, 1, 64, 0
1, 114359, Note_off_c, 1, 47, 0
1, 114359, Note_off_c, 1, 59, 0
1, 114360, Note_on_c, 1, 62, 127
1, 114360, Note_on_c, 1, 52, 127
1, 114389, Note_off_c, 1, 62, 0
1, 114390, Note_on_c, 1, 61, 127
1, 114419, Note_off_c, 1, 52, 0
1, 114419, Note_off_c, 1, 61, 0
1, 114420, Note_on_c, 1, 80, 127
1, 114420, Note_on_c, 1, 59, 127
1, 114420, Note_on_c, 1, 40, 127
1, 114449, Note_off_c, 1, 59, 0
1, 114450, Note_on_c, 1, 62, 127
1, 114479, Note_off_c, 1, 40, 0
1, 114479, Note_off_c, 1, 62, 0
1, 114480, Note_on_c, 1, 61, 127
1, 114480, Note_on_c, 1, 45, 127
1, 114509, Note_off_c, 1, 61, 0
1, 114539, Note_off_c, 1, 80, 0
1, 114539, Note_off_c, 1, 45, 0
1, 114540, Note_on_c, 1, 78, 127
1, 114540, Note_on_c, 1, 57, 127
1, 114540, Note_on_c, 1, 50, 127
1, 114569, Note_off_c, 1, 57, 0
1, 114570, Note_on_c, 1, 61, 127
1, 114599, Note_off_c, 1, 50, 0
1, 114599, Note_off_c, 1, 61, 0
1, 114600, Note_on_c, 1, 59, 127
1, 114600, Note_on_c, 1, 44, 127
1, 114629, Note_off_c, 1, 59, 0
1, 114659, Note_off_c, 1, 78, 0
1, 114659, Note_off_c, 1, 44, 0
1, 114660, Note_on_c, 1, 77, 127
1, 114660, Note_on_c, 1, 56, 127
1, 114660, Note_on_c, 1, 49, 127
1, 114689, Note_off_c, 1, 56, 0
1, 114690, Note_on_c, 1, 59, 127
1, 114719, Note_off_c, 1, 77, 0
1, 114719, Note_off_c, 1, 49, 0
1, 114719, Note_off_c, 1, 59, 0
1, 114720, Note_on_c, 1, 78, 127
1, 114720, Note_on_c, 1, 57, 127
1, 114720, Note_on_c, 1, 42, 127
1, 114749, Note_off_c, 1, 78, 0
1, 114750, Note_on_c, 1, 66, 127
1, 114779, Note_off_c, 1, 57, 0
1, 114779, Note_off_c, 1, 42, 0
1, 114779, Note_off_c, 1, 66, 0
1, 114780, Note_on_c, 1, 69, 127
1, 114780, Note_on_c, 1, 54, 127
1, 114809, Note_off_c, 1, 69, 0
1, 114810, Note_on_c, 1, 73, 127
1, 114839, Note_off_c, 1, 54, 0
1, 114839, Note_off_c, 1, 73, 0
1, 114840, Note_on_c, 1, 78, 127
1, 114840, Note_on_c, 1, 48, 127
1, 114869, Note_off_c, 1, 78, 0
1, 114870, Note_on_c, 1, 76, 127
1, 114899, Note_off_c, 1, 48, 0
1, 114899, Note_off_c, 1, 76, 0
1, 114900, Note_on_c, 1, 75, 127
1, 114900, Note_on_c, 1, 57, 127
1, 114900, Note_on_c, 1, 48, 127
1, 114929, Note_off_c, 1, 75, 0
1, 114930, Note_on_c, 1, 78, 127
1, 114959, Note_off_c, 1, 57, 0
1, 114959, Note_off_c, 1, 48, 0
1, 114959, Note_off_c, 1, 78, 0
1, 114960, Note_on_c, 1, 76, 127
1, 114960, Note_on_c, 1, 56, 127
1, 114960, Note_on_c, 1, 49, 127
1, 114989, Note_off_c, 1, 76, 0
1, 114990, Note_on_c, 1, 75, 127
1, 115019, Note_off_c, 1, 56, 0
1, 115019, Note_off_c, 1, 49, 0
1, 115019, Note_off_c, 1, 75, 0
1, 115020, Note_on_c, 1, 73, 127
1, 115020, Note_on_c, 1, 61, 127
1, 115020, Note_on_c, 1, 47, 127
1, 115049, Note_off_c, 1, 73, 0
1, 115050, Note_on_c, 1, 76, 127
1, 115079, Note_off_c, 1, 61, 0
1, 115079, Note_off_c, 1, 47, 0
1, 115079, Note_off_c, 1, 76, 0
1, 115080, Note_on_c, 1, 75, 127
1, 115080, Note_on_c, 1, 60, 127
1, 115080, Note_on_c, 1, 42, 127
1, 115109, Note_off_c, 1, 75, 0
1, 115110, Note_on_c, 1, 73, 127
1, 115139, Note_off_c, 1, 60, 0
1, 115139, Note_off_c, 1, 42, 0
1, 115139, Note_off_c, 1, 73, 0
1, 115140, Note_on_c, 1, 72, 127
1, 115140, Note_on_c, 1, 54, 127
1, 115140, Note_on_c, 1, 44, 127
1, 115169, Note_off_c, 1, 72, 0
1, 115170, Note_on_c, 1, 75, 127
1, 115199, Note_off_c, 1, 54, 0
1, 115199, Note_off_c, 1, 44, 0
1, 115199, Note_off_c, 1, 75, 0
1, 115200, Note_on_c, 1, 73, 127
1, 115200, Note_on_c, 1, 52, 127
1, 115200, Note_on_c, 1, 49, 127
1, 115214, Note_off_c, 1, 73, 0
1, 115215, Note_on_c, 1, 75, 127
1, 115229, Note_off_c, 1, 75, 0
1, 115230, Note_on_c, 1, 76, 127
1, 115259, Note_off_c, 1, 52, 0
1, 115259, Note_off_c, 1, 49, 0
1, 115260, Note_on_c, 1, 57, 127
1, 115319, Note_off_c, 1, 76, 0
1, 115319, Note_off_c, 1, 57, 0
1, 115320, Note_on_c, 1, 76, 127
1, 115320, Note_on_c, 1, 56, 127
1, 115320, Note_on_c, 1, 47, 127
1, 115334, Note_off_c, 1, 76, 0
1, 115335, Note_on_c, 1, 78, 127
1, 115349, Note_off_c, 1, 78, 0
1, 115350, Note_on_c, 1, 80, 127
1, 115379, Note_off_c, 1, 56, 0
1, 115379, Note_off_c, 1, 47, 0
1, 115380, Note_on_c, 1, 51, 127
1, 115439, Note_off_c, 1, 51, 0
1, 115440, Note_on_c, 1, 49, 127
1, 115440, Note_on_c, 1, 45, 127
1, 115469, Note_off_c, 1, 80, 0
1, 115470, Note_on_c, 1, 73, 127
1, 115499, Note_off_c, 1, 49, 0
1, 115499, Note_off_c, 1, 45, 0
1, 115499, Note_off_c, 1, 73, 0
1, 115500, Note_on_c, 1, 72, 127
1, 115500, Note_on_c, 1, 54, 127
1, 115500, Note_on_c, 1, 39, 127
1, 115529, Note_off_c, 1, 72, 0
1, 115529, Note_off_c, 1, 54, 0
1, 115530, Note_on_c, 1, 73, 127
1, 115530, Note_on_c, 1, 52, 127
1, 115559, Note_off_c, 1, 39, 0
1, 115559, Note_off_c, 1, 73, 0
1, 115559, Note_off_c, 1, 52, 0
1, 115560, Note_on_c, 1, 78, 127
1, 115560, Note_on_c, 1, 51, 127
1, 115560, Note_on_c, 1, 48, 127
1, 115589, Note_off_c, 1, 78, 0
1, 115590, Note_on_c, 1, 75, 127
1, 115619, Note_off_c, 1, 51, 0
1, 115619, Note_off_c, 1, 48, 0
1, 115619, Note_off_c, 1, 75, 0
1, 115620, Note_on_c, 1, 76, 127
1, 115620, Note_on_c, 1, 49, 127
1, 115649, Note_off_c, 1, 76, 0
1, 115650, Note_on_c, 1, 73, 127
1, 115679, Note_off_c, 1, 49, 0
1, 115679, Note_off_c, 1, 73, 0
1, 115680, Note_on_c, 1, 75, 127
1, 115680, Note_on_c, 1, 48, 127
1, 115680, Note_on_c, 1, 44, 127
1, 115709, Note_off_c, 1, 75, 0
1, 115710, Note_on_c, 1, 73, 127
1, 115739, Note_off_c, 1, 48, 0
1, 115739, Note_off_c, 1, 44, 0
1, 115739, Note_off_c, 1, 73, 0
1, 115740, Note_on_c, 1, 72, 127
1, 115740, Note_on_c, 1, 51, 127
1, 115740, Note_on_c, 1, 44, 127
1, 115769, Note_off_c, 1, 72, 0
1, 115770, Note_on_c, 1, 73, 127
1, 115799, Note_off_c, 1, 51, 0
1, 115799, Note_off_c, 1, 44, 0
1, 115799, Note_off_c, 1, 73, 0
1, 115800, Note_on_c, 1, 75, 127
1, 115800, Note_on_c, 1, 56, 127
1, 115800, Note_on_c, 1, 42, 127
1, 115859, Note_off_c, 1, 75, 0
1, 115859, Note_off_c, 1, 42, 0
1, 115860, Note_on_c, 1, 68, 127
1, 115889, Note_off_c, 1, 68, 0
1, 115920, Note_on_c, 1, 73, 127
1, 115920, Note_on_c, 1, 40, 127
1, 115949, Note_off_c, 1, 40, 0
1, 115950, Note_on_c, 1, 52, 127
1, 115979, Note_off_c, 1, 56, 0
1, 115979, Note_off_c, 1, 52, 0
1, 115980, Note_on_c, 1, 49, 127
1, 116009, Note_off_c, 1, 49, 0
1, 116010, Note_on_c, 1, 44, 127
1, 116039, Note_off_c, 1, 73, 0
1, 116039, Note_off_c, 1, 44, 0
1, 116040, Note_on_c, 1, 73, 127
1, 116040, Note_on_c, 1, 56, 127
1, 116040, Note_on_c, 1, 40, 127
1, 116069, Note_off_c, 1, 40, 0
1, 116100, Note_on_c, 1, 52, 127
1, 116129, Note_off_c, 1, 73, 0
1, 116129, Note_off_c, 1, 52, 0
1, 116130, Note_on_c, 1, 75, 127
1, 116130, Note_on_c, 1, 49, 127
1, 116144, Note_off_c, 1, 75, 0
1, 116145, Note_on_c, 1, 76, 127
1, 116159, Note_off_c, 1, 49, 0
1, 116159, Note_off_c, 1, 76, 0
1, 116160, Note_on_c, 1, 48, 127
1, 116189, Note_off_c, 1, 48, 0
1, 116219, Note_off_c, 1, 56, 0
1, 116220, Note_on_c, 1, 73, 127
1, 116220, Note_on_c, 1, 64, 127
1, 116220, Note_on_c, 1, 51, 127
1, 116249, Note_off_c, 1, 51, 0
1, 116250, Note_on_c, 1, 52, 127
1, 116279, Note_off_c, 1, 73, 0
1, 116279, Note_off_c, 1, 64, 0
1, 116279, Note_off_c, 1, 52, 0
1, 116280, Note_on_c, 1, 72, 127
1, 116280, Note_on_c, 1, 63, 127
1, 116280, Note_on_c, 1, 54, 127
1, 116309, Note_off_c, 1, 54, 0
1, 116310, Note_on_c, 1, 56, 127
1, 116339, Note_off_c, 1, 72, 0
1, 116339, Note_off_c, 1, 63, 0
1, 116339, Note_off_c, 1, 56, 0
1, 116340, Note_on_c, 1, 75, 127
1, 116340, Note_on_c, 1, 61, 127
1, 116340, Note_on_c, 1, 57, 127
1, 116369, Note_off_c, 1, 75, 0
1, 116399, Note_off_c, 1, 61, 0
1, 116399, Note_off_c, 1, 57, 0
1, 116400, Note_on_c, 1, 78, 127
1, 116400, Note_on_c, 1, 63, 127
1, 116400, Note_on_c, 1, 44, 127
1, 116429, Note_off_c, 1, 78, 0
1, 116429, Note_off_c, 1, 44, 0
1, 116459, Note_off_c, 1, 63, 0
1, 116460, Note_on_c, 1, 78, 127
1, 116460, Note_on_c, 1, 54, 127
1, 116460, Note_on_c, 1, 44, 127
1, 116489, Note_off_c, 1, 78, 0
1, 116489, Note_off_c, 1, 44, 0
1, 116490, Note_on_c, 1, 80, 127
1, 116504, Note_off_c, 1, 80, 0
1, 116505, Note_on_c, 1, 81, 127
1, 116519, Note_off_c, 1, 54, 0
1, 116519, Note_off_c, 1, 81, 0
1, 116520, Note_on_c, 1, 80, 127
1, 116520, Note_on_c, 1, 52, 127
1, 116520, Note_on_c, 1, 44, 127
1, 116549, Note_off_c, 1, 44, 0
1, 116579, Note_off_c, 1, 80, 0
1, 116579, Note_off_c, 1, 52, 0
1, 116580, Note_on_c, 1, 78, 127
1, 116580, Note_on_c, 1, 51, 127
1, 116580, Note_on_c, 1, 44, 127
1, 116609, Note_off_c, 1, 78, 0
1, 116609, Note_off_c, 1, 44, 0
1, 116639, Note_off_c, 1, 51, 0
1, 116640, Note_on_c, 1, 80, 127
1, 116640, Note_on_c, 1, 52, 127
1, 116640, Note_on_c, 1, 44, 127
1, 116669, Note_off_c, 1, 52, 0
1, 116669, Note_off_c, 1, 44, 0
1, 116670, Note_on_c, 1, 54, 127
1, 116699, Note_off_c, 1, 80, 0
1, 116699, Note_off_c, 1, 54, 0
1, 116700, Note_on_c, 1, 76, 127
1, 116700, Note_on_c, 1, 56, 127
1, 116700, Note_on_c, 1, 49, 127
1, 116729, Note_off_c, 1, 49, 0
1, 116730, Note_on_c, 1, 44, 127
1, 116759, Note_off_c, 1, 76, 0
1, 116759, Note_off_c, 1, 56, 0
1, 116759, Note_off_c, 1, 44, 0
1, 116760, Note_on_c, 1, 73, 127
1, 116760, Note_on_c, 1, 56, 127
1, 116760, Note_on_c, 1, 40, 127
1, 116789, Note_off_c, 1, 40, 0
1, 116790, Note_on_c, 1, 44, 127
1, 116819, Note_off_c, 1, 73, 0
1, 116819, Note_off_c, 1, 56, 0
1, 116819, Note_off_c, 1, 44, 0
1, 116820, Note_on_c, 1, 79, 127
1, 116820, Note_on_c, 1, 52, 127
1, 116820, Note_on_c, 1, 49, 127
1, 116849, Note_off_c, 1, 49, 0
1, 116879, Note_off_c, 1, 52, 0
1, 116880, Note_on_c, 1, 51, 127
1, 116880, Note_on_c, 1, 44, 127
1, 116909, Note_off_c, 1, 44, 0
1, 116939, Note_off_c, 1, 79, 0
1, 116939, Note_off_c, 1, 51, 0
1, 116940, Note_on_c, 1, 80, 127
1, 116940, Note_on_c, 1, 48, 127
1, 116940, Note_on_c, 1, 44, 127
1, 116969, Note_off_c, 1, 44, 0
1, 116999, Note_off_c, 1, 80, 0
1, 116999, Note_off_c, 1, 48, 0
1, 117000, Note_on_c, 1, 78, 127
1, 117000, Note_on_c, 1, 49, 127
1, 117000, Note_on_c, 1, 44, 127
1, 117029, Note_off_c, 1, 78, 0
1, 117029, Note_off_c, 1, 44, 0
1, 117030, Note_on_c, 1, 76, 127
1, 117059, Note_off_c, 1, 49, 0
1, 117059, Note_off_c, 1, 76, 0
1, 117060, Note_on_c, 1, 75, 127
1, 117060, Note_on_c, 1, 61, 127
1, 117060, Note_on_c, 1, 44, 127
1, 117089, Note_off_c, 1, 75, 0
1, 117089, Note_off_c, 1, 44, 0
1, 117090, Note_on_c, 1, 73, 127
1, 117119, Note_off_c, 1, 61, 0
1, 117119, Note_off_c, 1, 73, 0
1, 117120, Note_on_c, 1, 75, 127
1, 117120, Note_on_c, 1, 60, 127
1, 117120, Note_on_c, 1, 44, 127
1, 117149, Note_off_c, 1, 60, 0
1, 117149, Note_off_c, 1, 44, 0
1, 117150, Note_on_c, 1, 61, 127
1, 117150, Note_on_c, 1, 57, 127
1, 117179, Note_off_c, 1, 75, 0
1, 117179, Note_off_c, 1, 61, 0
1, 117179, Note_off_c, 1, 57, 0
1, 117180, Note_on_c, 1, 72, 127
1, 117180, Note_on_c, 1, 63, 127
1, 117180, Note_on_c, 1, 54, 127
1, 117209, Note_off_c, 1, 54, 0
1, 117210, Note_on_c, 1, 51, 127
1, 117239, Note_off_c, 1, 72, 0
1, 117239, Note_off_c, 1, 63, 0
1, 117239, Note_off_c, 1, 51, 0
1, 117240, Note_on_c, 1, 68, 127
1, 117240, Note_on_c, 1, 63, 127
1, 117240, Note_on_c, 1, 48, 127
1, 117269, Note_off_c, 1, 48, 0
1, 117270, Note_on_c, 1, 51, 127
1, 117299, Note_off_c, 1, 68, 0
1, 117299, Note_off_c, 1, 63, 0
1, 117299, Note_off_c, 1, 51, 0
1, 117300, Note_on_c, 1, 56, 127
1, 117300, Note_on_c, 1, 48, 127
1, 117329, Note_off_c, 1, 48, 0
1, 117330, Note_on_c, 1, 44, 127
1, 117359, Note_off_c, 1, 56, 0
1, 117359, Note_off_c, 1, 44, 0
1, 117360, Note_on_c, 1, 61, 127
1, 117360, Note_on_c, 1, 40, 127
1, 117419, Note_off_c, 1, 61, 0
1, 117419, Note_off_c, 1, 40, 0
1, 117420, Note_on_c, 1, 59, 127
1, 117420, Note_on_c, 1, 49, 127
1, 117449, Note_off_c, 1, 59, 0
1, 117450, Note_on_c, 1, 57, 127
1, 117479, Note_off_c, 1, 49, 0
1, 117479, Note_off_c, 1, 57, 0
1, 117480, Note_on_c, 1, 59, 127
1, 117480, Note_on_c, 1, 41, 127
1, 117539, Note_off_c, 1, 59, 0
1, 117539, Note_off_c, 1, 41, 0
1, 117540, Note_on_c, 1, 56, 127
1, 117540, Note_on_c, 1, 49, 127
1, 117599, Note_off_c, 1, 56, 0
1, 117599, Note_off_c, 1, 49, 0
1, 117600, Note_on_c, 1, 57, 127
1, 117600, Note_on_c, 1, 42, 127
1, 117659, Note_off_c, 1, 57, 0
1, 117659, Note_off_c, 1, 42, 0
1, 117660, Note_on_c, 1, 60, 127
1, 117660, Note_on_c, 1, 51, 127
1, 117719, Note_off_c, 1, 60, 0
1, 117719, Note_off_c, 1, 51, 0
1, 117720, Note_on_c, 1, 61, 127
1, 117720, Note_on_c, 1, 52, 127
1, 117779, Note_off_c, 1, 61, 0
1, 117779, Note_off_c, 1, 52, 0
1, 117780, Note_on_c, 1, 54, 127
1, 117780, Note_on_c, 1, 48, 127
1, 117839, Note_off_c, 1, 54, 0
1, 117839, Note_off_c, 1, 48, 0
1, 117840, Note_on_c, 1, 52, 127
1, 117840, Note_on_c, 1, 49, 127
1, 117899, Note_off_c, 1, 52, 0
1, 117899, Note_off_c, 1, 49, 0
1, 117900, Note_on_c, 1, 56, 127
1, 117900, Note_on_c, 1, 40, 127
1, 117929, Note_off_c, 1, 56, 0
1, 117930, Note_on_c, 1, 54, 127
1, 117959, Note_off_c, 1, 40, 0
1, 117959, Note_off_c, 1, 54, 0
1, 117960, Note_on_c, 1, 52, 127
1, 117960, Note_on_c, 1, 42, 127
1, 118019, Note_off_c, 1, 52, 0
1, 118019, Note_off_c, 1, 42, 0
1, 118020, Note_on_c, 1, 51, 127
1, 118020, Note_on_c, 1, 44, 127
1, 118079, Note_off_c, 1, 51, 0
1, 118079, Note_off_c, 1, 44, 0
1, 118080, Note_on_c, 1, 49, 127
1, 118140, Note_on_c, 1, 51, 127
1, 118199, Note_off_c, 1, 49, 0
1, 118199, Note_off_c, 1, 51, 0
1, 118200, Note_on_c, 1, 52, 127
1, 118230, Note_on_c, 1, 80, 127
1, 118259, Note_off_c, 1, 52, 0
1, 118259, Note_off_c, 1, 80, 0
1, 118260, Note_on_c, 1, 76, 127
1, 118260, Note_on_c, 1, 49, 127
1, 118289, Note_off_c, 1, 76, 0
1, 118290, Note_on_c, 1, 73, 127
1, 118319, Note_off_c, 1, 49, 0
1, 118319, Note_off_c, 1, 73, 0
1, 118320, Note_on_c, 1, 68, 127
1, 118320, Note_on_c, 1, 48, 127
1, 118349, Note_off_c, 1, 68, 0
1, 118349, Note_off_c, 1, 48, 0
1, 118350, Note_on_c, 1, 56, 127
1, 118379, Note_off_c, 1, 56, 0
1, 118380, Note_on_c, 1, 68, 127
1, 118380, Note_on_c, 1, 54, 127
1, 118409, Note_off_c, 1, 68, 0
1, 118409, Note_off_c, 1, 54, 0
1, 118410, Note_on_c, 1, 51, 127
1, 118439, Note_off_c, 1, 51, 0
1, 118440, Note_on_c, 1, 68, 127
1, 118440, Note_on_c, 1, 49, 127
1, 118469, Note_off_c, 1, 68, 0
1, 118469, Note_off_c, 1, 49, 0
1, 118470, Note_on_c, 1, 56, 127
1, 118499, Note_off_c, 1, 56, 0
1, 118500, Note_on_c, 1, 68, 127
1, 118500, Note_on_c, 1, 52, 127
1, 118529, Note_off_c, 1, 68, 0
1, 118529, Note_off_c, 1, 52, 0
1, 118530, Note_on_c, 1, 49, 127
1, 118559, Note_off_c, 1, 49, 0
1, 118560, Note_on_c, 1, 68, 127
1, 118560, Note_on_c, 1, 48, 127
1, 118589, Note_off_c, 1, 48, 0
1, 118590, Note_on_c, 1, 56, 127
1, 118619, Note_off_c, 1, 56, 0
1, 118620, Note_on_c, 1, 51, 127
1, 118649, Note_off_c, 1, 51, 0
1, 118650, Note_on_c, 1, 47, 127
1, 118679, Note_off_c, 1, 47, 0
1, 118680, Note_on_c, 1, 44, 127
1, 118709, Note_off_c, 1, 68, 0
1, 118710, Note_on_c, 1, 71, 127
1, 118739, Note_off_c, 1, 44, 0
1, 118739, Note_off_c, 1, 71, 0
1, 118740, Note_on_c, 1, 68, 127
1, 118740, Note_on_c, 1, 54, 127
1, 118769, Note_off_c, 1, 68, 0
1, 118770, Note_on_c, 1, 65, 127
1, 118799, Note_off_c, 1, 54, 0
1, 118799, Note_off_c, 1, 65, 0
1, 118800, Note_on_c, 1, 61, 127
1, 118800, Note_on_c, 1, 53, 127
1, 118829, Note_off_c, 1, 61, 0
1, 118829, Note_off_c, 1, 53, 0
1, 118830, Note_on_c, 1, 59, 127
1, 118859, Note_off_c, 1, 59, 0
1, 118860, Note_on_c, 1, 61, 127
1, 118860, Note_on_c, 1, 56, 127
1, 118889, Note_off_c, 1, 61, 0
1, 118889, Note_off_c, 1, 56, 0
1, 118890, Note_on_c, 1, 54, 127
1, 118919, Note_off_c, 1, 54, 0
1, 118920, Note_on_c, 1, 61, 127
1, 118920, Note_on_c, 1, 53, 127
1, 118934, Note_off_c, 1, 61, 0
1, 118935, Note_on_c, 1, 63, 127
1, 118949, Note_off_c, 1, 53, 0
1, 118949, Note_off_c, 1, 63, 0
1, 118950, Note_on_c, 1, 65, 127
1, 118950, Note_on_c, 1, 62, 127
1, 118979, Note_off_c, 1, 62, 0
1, 118980, Note_on_c, 1, 59, 127
1, 119009, Note_off_c, 1, 59, 0
1, 119010, Note_on_c, 1, 56, 127
1, 119039, Note_off_c, 1, 65, 0
1, 119039, Note_off_c, 1, 56, 0
1, 119040, Note_on_c, 1, 65, 127
1, 119040, Note_on_c, 1, 53, 127
1, 119054, Note_off_c, 1, 65, 0
1, 119055, Note_on_c, 1, 66, 127
1, 119069, Note_off_c, 1, 53, 0
1, 119069, Note_off_c, 1, 66, 0
1, 119070, Note_on_c, 1, 68, 127
1, 119070, Note_on_c, 1, 59, 127
1, 119099, Note_off_c, 1, 59, 0
1, 119100, Note_on_c, 1, 56, 127
1, 119129, Note_off_c, 1, 56, 0
1, 119130, Note_on_c, 1, 53, 127
1, 119159, Note_off_c, 1, 68, 0
1, 119159, Note_off_c, 1, 53, 0
1, 119160, Note_on_c, 1, 68, 127
1, 119160, Note_on_c, 1, 49, 127
1, 119174, Note_off_c, 1, 68, 0
1, 119175, Note_on_c, 1, 69, 127
1, 119189, Note_off_c, 1, 49, 0
1, 119189, Note_off_c, 1, 69, 0
1, 119190, Note_on_c, 1, 71, 127
1, 119190, Note_on_c, 1, 56, 127
1, 119219, Note_off_c, 1, 56, 0
1, 119220, Note_on_c, 1, 53, 127
1, 119249, Note_off_c, 1, 53, 0
1, 119250, Note_on_c, 1, 49, 127
1, 119279, Note_off_c, 1, 49, 0
1, 119280, Note_on_c, 1, 45, 127
1, 119309, Note_off_c, 1, 71, 0
1, 119310, Note_on_c, 1, 74, 127
1, 119339, Note_off_c, 1, 45, 0
1, 119339, Note_off_c, 1, 74, 0
1, 119340, Note_on_c, 1, 73, 127
1, 119340, Note_on_c, 1, 50, 127
1, 119369, Note_off_c, 1, 73, 0
1, 119370, Note_on_c, 1, 71, 127
1, 119399, Note_off_c, 1, 50, 0
1, 119399, Note_off_c, 1, 71, 0
1, 119400, Note_on_c, 1, 73, 127
1, 119400, Note_on_c, 1, 47, 127
1, 119429, Note_off_c, 1, 73, 0
1, 119430, Note_on_c, 1, 71, 127
1, 119459, Note_off_c, 1, 47, 0
1, 119459, Note_off_c, 1, 71, 0
1, 119460, Note_on_c, 1, 69, 127
1, 119460, Note_on_c, 1, 49, 127
1, 119489, Note_off_c, 1, 69, 0
1, 119490, Note_on_c, 1, 68, 127
1, 119519, Note_off_c, 1, 49, 0
1, 119519, Note_off_c, 1, 68, 0
1, 119520, Note_on_c, 1, 69, 127
1, 119520, Note_on_c, 1, 42, 127
1, 119534, Note_off_c, 1, 69, 0
1, 119535, Note_on_c, 1, 68, 127
1, 119549, Note_off_c, 1, 68, 0
1, 119550, Note_on_c, 1, 66, 127
1, 119579, Note_off_c, 1, 42, 0
1, 119580, Note_on_c, 1, 45, 127
1, 119639, Note_off_c, 1, 45, 0
1, 119640, Note_on_c, 1, 49, 127
1, 119669, Note_off_c, 1, 66, 0
1, 119670, Note_on_c, 1, 65, 127
1, 119699, Note_off_c, 1, 49, 0
1, 119699, Note_off_c, 1, 65, 0
1, 119700, Note_on_c, 1, 68, 127
1, 119700, Note_on_c, 1, 53, 127
1, 119729, Note_off_c, 1, 68, 0
1, 119730, Note_on_c, 1, 71, 127
1, 119759, Note_off_c, 1, 53, 0
1, 119759, Note_off_c, 1, 71, 0
1, 119760, Note_on_c, 1, 69, 127
1, 119760, Note_on_c, 1, 54, 127
1, 119789, Note_off_c, 1, 69, 0
1, 119790, Note_on_c, 1, 66, 127
1, 119819, Note_off_c, 1, 54, 0
1, 119819, Note_off_c, 1, 66, 0
1, 119820, Note_on_c, 1, 69, 127
1, 119820, Note_on_c, 1, 49, 127
1, 119849, Note_off_c, 1, 69, 0
1, 119850, Note_on_c, 1, 73, 127
1, 119879, Note_off_c, 1, 49, 0
1, 119879, Note_off_c, 1, 73, 0
1, 119880, Note_on_c, 1, 68, 127
1, 119880, Note_on_c, 1, 53, 127
1, 119909, Note_off_c, 1, 68, 0
1, 119910, Note_on_c, 1, 65, 127
1, 119939, Note_off_c, 1, 53, 0
1, 119939, Note_off_c, 1, 65, 0
1, 119940, Note_on_c, 1, 68, 127
1, 119940, Note_on_c, 1, 49, 127
1, 119969, Note_off_c, 1, 68, 0
1, 119970, Note_on_c, 1, 71, 127
1, 119999, Note_off_c, 1, 49, 0
1, 119999, Note_off_c, 1, 71, 0
1, 120000, Note_on_c, 1, 69, 127
1, 120000, Note_on_c, 1, 54, 127
1, 120014, Note_off_c, 1, 69, 0
1, 120015, Note_on_c, 1, 68, 127
1, 120029, Note_off_c, 1, 68, 0
1, 120030, Note_on_c, 1, 66, 127
1, 120059, Note_off_c, 1, 54, 0
1, 120060, Note_on_c, 1, 57, 127
1, 120089, Note_off_c, 1, 57, 0
1, 120090, Note_on_c, 1, 56, 127
1, 120119, Note_off_c, 1, 56, 0
1, 120149, Note_off_c, 1, 66, 0
1, 120150, Note_on_c, 1, 61, 127
1, 120179, Note_off_c, 1, 61, 0
1, 120180, Note_on_c, 1, 66, 127
1, 120180, Note_on_c, 1, 52, 127
1, 120209, Note_off_c, 1, 66, 0
1, 120210, Note_on_c, 1, 68, 127
1, 120239, Note_off_c, 1, 52, 0
1, 120239, Note_off_c, 1, 68, 0
1, 120240, Note_on_c, 1, 69, 127
1, 120240, Note_on_c, 1, 51, 127
1, 120269, Note_off_c, 1, 69, 0
1, 120270, Note_on_c, 1, 68, 127
1, 120299, Note_off_c, 1, 51, 0
1, 120299, Note_off_c, 1, 68, 0
1, 120300, Note_on_c, 1, 66, 127
1, 120300, Note_on_c, 1, 52, 127
1, 120329, Note_off_c, 1, 66, 0
1, 120330, Note_on_c, 1, 64, 127
1, 120359, Note_off_c, 1, 52, 0
1, 120359, Note_off_c, 1, 64, 0
1, 120360, Note_on_c, 1, 63, 127
1, 120360, Note_on_c, 1, 54, 127
1, 120419, Note_off_c, 1, 63, 0
1, 120419, Note_off_c, 1, 54, 0
1, 120420, Note_on_c, 1, 73, 127
1, 120420, Note_on_c, 1, 51, 127
1, 120479, Note_off_c, 1, 51, 0
1, 120480, Note_on_c, 1, 56, 127
1, 120509, Note_off_c, 1, 73, 0
1, 120510, Note_on_c, 1, 72, 127
1, 120539, Note_off_c, 1, 56, 0
1, 120539, Note_off_c, 1, 72, 0
1, 120540, Note_on_c, 1, 73, 127
1, 120540, Note_on_c, 1, 58, 127
1, 120569, Note_off_c, 1, 73, 0
1, 120570, Note_on_c, 1, 75, 127
1, 120599, Note_off_c, 1, 58, 0
1, 120599, Note_off_c, 1, 75, 0
1, 120600, Note_on_c, 1, 66, 127
1, 120600, Note_on_c, 1, 60, 127
1, 120629, Note_off_c, 1, 66, 0
1, 120630, Note_on_c, 1, 69, 127
1, 120659, Note_off_c, 1, 60, 0
1, 120659, Note_off_c, 1, 69, 0
1, 120660, Note_on_c, 1, 68, 127
1, 120660, Note_on_c, 1, 56, 127
1, 120689, Note_off_c, 1, 68, 0
1, 120690, Note_on_c, 1, 66, 127
1, 120719, Note_off_c, 1, 56, 0
1, 120719, Note_off_c, 1, 66, 0
1, 120720, Note_on_c, 1, 64, 127
1, 120720, Note_on_c, 1, 61, 127
1, 120749, Note_off_c, 1, 64, 0
1, 120750, Note_on_c, 1, 66, 127
1, 120779, Note_off_c, 1, 61, 0
1, 120779, Note_off_c, 1, 66, 0
1, 120780, Note_on_c, 1, 68, 127
1, 120780, Note_on_c, 1, 52, 127
1, 120809, Note_off_c, 1, 68, 0
1, 120810, Note_on_c, 1, 61, 127
1, 120839, Note_off_c, 1, 52, 0
1, 120839, Note_off_c, 1, 61, 0
1, 120840, Note_on_c, 1, 64, 127
1, 120840, Note_on_c, 1, 54, 127
1, 120869, Note_off_c, 1, 64, 0
1, 120870, Note_on_c, 1, 63, 127
1, 120899, Note_off_c, 1, 54, 0
1, 120899, Note_off_c, 1, 63, 0
1, 120900, Note_on_c, 1, 61, 127
1, 120900, Note_on_c, 1, 56, 127
1, 120929, Note_off_c, 1, 61, 0
1, 120930, Note_on_c, 1, 60, 127
1, 120959, Note_off_c, 1, 56, 0
1, 120959, Note_off_c, 1, 60, 0
1, 120960, Note_on_c, 1, 61, 127
1, 120960, Note_on_c, 1, 49, 127
1, 120989, Note_off_c, 1, 49, 0
1, 120990, Note_on_c, 1, 56, 127
1, 121019, Note_off_c, 1, 56, 0
1, 121020, Note_on_c, 1, 52, 127
1, 121049, Note_off_c, 1, 52, 0
1, 121079, Note_off_c, 1, 61, 0
1, 121080, Note_on_c, 1, 48, 127
1, 121109, Note_off_c, 1, 48, 0
1, 121110, Note_on_c, 1, 54, 127
1, 121139, Note_off_c, 1, 54, 0
1, 121140, Note_on_c, 1, 56, 127
1, 121140, Note_on_c, 1, 51, 127
1, 121169, Note_off_c, 1, 51, 0
1, 121170, Note_on_c, 1, 48, 127
1, 121199, Note_off_c, 1, 56, 0
1, 121199, Note_off_c, 1, 48, 0
1, 121200, Note_on_c, 1, 52, 127
1, 121200, Note_on_c, 1, 49, 127
1, 121229, Note_off_c, 1, 49, 0
1, 121230, Note_on_c, 1, 57, 127
1, 121259, Note_off_c, 1, 57, 0
1, 121319, Note_off_c, 1, 52, 0
1, 121320, Note_on_c, 1, 54, 127
1, 121320, Note_on_c, 1, 51, 127
1, 121349, Note_off_c, 1, 51, 0
1, 121350, Note_on_c, 1, 59, 127
1, 121379, Note_off_c, 1, 59, 0
1, 121409, Note_off_c, 1, 54, 0
1, 121410, Note_on_c, 1, 56, 127
1, 121410, Note_on_c, 1, 51, 127
1, 121424, Note_off_c, 1, 56, 0
1, 121425, Note_on_c, 1, 57, 127
1, 121439, Note_off_c, 1, 51, 0
1, 121439, Note_off_c, 1, 57, 0
1, 121440, Note_on_c, 1, 56, 127
1, 121440, Note_on_c, 1, 52, 127
1, 121499, Note_off_c, 1, 56, 0
1, 121499, Note_off_c, 1, 52, 0
1, 121500, Note_on_c, 1, 59, 127
1, 121500, Note_on_c, 1, 56, 127
1, 121559, Note_off_c, 1, 59, 0
1, 121559, Note_off_c, 1, 56, 0
1, 121560, Note_on_c, 1, 64, 127
1, 121560, Note_on_c, 1, 61, 127
1, 121590, Note_on_c, 1, 76, 127
1, 121619, Note_off_c, 1, 61, 0
1, 121619, Note_off_c, 1, 76, 0
1, 121620, Note_on_c, 1, 73, 127
1, 121620, Note_on_c, 1, 59, 127
1, 121649, Note_off_c, 1, 73, 0
1, 121650, Note_on_c, 1, 69, 127
1, 121679, Note_off_c, 1, 59, 0
1, 121679, Note_off_c, 1, 69, 0
1, 121680, Note_on_c, 1, 66, 127
1, 121680, Note_on_c, 1, 57, 127
1, 121709, Note_off_c, 1, 66, 0
1, 121739, Note_off_c, 1, 64, 0
1, 121739, Note_off_c, 1, 57, 0
1, 121740, Note_on_c, 1, 66, 127
1, 121740, Note_on_c, 1, 63, 127
1, 121740, Note_on_c, 1, 54, 127
1, 121769, Note_off_c, 1, 66, 0
1, 121769, Note_off_c, 1, 63, 0
1, 121770, Note_on_c, 1, 61, 127
1, 121799, Note_off_c, 1, 54, 0
1, 121799, Note_off_c, 1, 61, 0
1, 121800, Note_on_c, 1, 66, 127
1, 121800, Note_on_c, 1, 59, 127
1, 121829, Note_off_c, 1, 66, 0
1, 121859, Note_off_c, 1, 59, 0
1, 121860, Note_on_c, 1, 66, 127
1, 121860, Note_on_c, 1, 57, 127
1, 121860, Note_on_c, 1, 47, 127
1, 121919, Note_off_c, 1, 57, 0
1, 121919, Note_off_c, 1, 47, 0
1, 121920, Note_on_c, 1, 56, 127
1, 121920, Note_on_c, 1, 52, 127
1, 121949, Note_off_c, 1, 66, 0
1, 121950, Note_on_c, 1, 76, 127
1, 121979, Note_off_c, 1, 56, 0
1, 121979, Note_off_c, 1, 52, 0
1, 121979, Note_off_c, 1, 76, 0
1, 121980, Note_on_c, 1, 71, 127
1, 121980, Note_on_c, 1, 57, 127
1, 121980, Note_on_c, 1, 54, 127
1, 122009, Note_off_c, 1, 71, 0
1, 122010, Note_on_c, 1, 68, 127
1, 122039, Note_off_c, 1, 57, 0
1, 122039, Note_off_c, 1, 54, 0
1, 122039, Note_off_c, 1, 68, 0
1, 122040, Note_on_c, 1, 64, 127
1, 122040, Note_on_c, 1, 59, 127
1, 122040, Note_on_c, 1, 56, 127
1, 122069, Note_off_c, 1, 56, 0
1, 122070, Note_on_c, 1, 54, 127
1, 122099, Note_off_c, 1, 64, 0
1, 122099, Note_off_c, 1, 59, 0
1, 122099, Note_off_c, 1, 54, 0
1, 122100, Note_on_c, 1, 56, 127
1, 122100, Note_on_c, 1, 52, 127
1, 122129, Note_off_c, 1, 52, 0
1, 122130, Note_on_c, 1, 50, 127
1, 122159, Note_off_c, 1, 56, 0
1, 122159, Note_off_c, 1, 50, 0
1, 122160, Note_on_c, 1, 58, 127
1, 122160, Note_on_c, 1, 49, 127
1, 122189, Note_off_c, 1, 58, 0
1, 122190, Note_on_c, 1, 76, 127
1, 122190, Note_on_c, 1, 56, 127
1, 122219, Note_off_c, 1, 49, 0
1, 122219, Note_off_c, 1, 76, 0
1, 122219, Note_off_c, 1, 56, 0
1, 122220, Note_on_c, 1, 73, 127
1, 122220, Note_on_c, 1, 58, 127
1, 122220, Note_on_c, 1, 47, 127
1, 122249, Note_off_c, 1, 73, 0
1, 122250, Note_on_c, 1, 70, 127
1, 122279, Note_off_c, 1, 47, 0
1, 122279, Note_off_c, 1, 70, 0
1, 122280, Note_on_c, 1, 66, 127
1, 122280, Note_on_c, 1, 49, 127
1, 122309, Note_off_c, 1, 58, 0
1, 122309, Note_off_c, 1, 66, 0
1, 122310, Note_on_c, 1, 61, 127
1, 122339, Note_off_c, 1, 49, 0
1, 122339, Note_off_c, 1, 61, 0
1, 122340, Note_on_c, 1, 66, 127
1, 122340, Note_on_c, 1, 59, 127
1, 122340, Note_on_c, 1, 50, 127
1, 122369, Note_off_c, 1, 66, 0
1, 122369, Note_off_c, 1, 59, 0
1, 122370, Note_on_c, 1, 62, 127
1, 122399, Note_off_c, 1, 50, 0
1, 122399, Note_off_c, 1, 62, 0
1, 122400, Note_on_c, 1, 66, 127
1, 122400, Note_on_c, 1, 61, 127
1, 122400, Note_on_c, 1, 46, 127
1, 122429, Note_off_c, 1, 66, 0
1, 122429, Note_off_c, 1, 61, 0
1, 122430, Note_on_c, 1, 59, 127
1, 122459, Note_off_c, 1, 46, 0
1, 122459, Note_off_c, 1, 59, 0
1, 122460, Note_on_c, 1, 66, 127
1, 122460, Note_on_c, 1, 61, 127
1, 122460, Note_on_c, 1, 42, 127
1, 122489, Note_off_c, 1, 66, 0
1, 122489, Note_off_c, 1, 61, 0
1, 122490, Note_on_c, 1, 62, 127
1, 122519, Note_off_c, 1, 42, 0
1, 122519, Note_off_c, 1, 62, 0
1, 122520, Note_on_c, 1, 66, 127
1, 122520, Note_on_c, 1, 64, 127
1, 122520, Note_on_c, 1, 47, 127
1, 122549, Note_off_c, 1, 64, 0
1, 122550, Note_on_c, 1, 62, 127
1, 122579, Note_off_c, 1, 47, 0
1, 122579, Note_off_c, 1, 62, 0
1, 122580, Note_on_c, 1, 61, 127
1, 122580, Note_on_c, 1, 42, 127
1, 122609, Note_off_c, 1, 61, 0
1, 122610, Note_on_c, 1, 59, 127
1, 122639, Note_off_c, 1, 42, 0
1, 122639, Note_off_c, 1, 59, 0
1, 122640, Note_on_c, 1, 46, 127
1, 122669, Note_off_c, 1, 66, 0
1, 122670, Note_on_c, 1, 78, 127
1, 122670, Note_on_c, 1, 54, 127
1, 122699, Note_off_c, 1, 46, 0
1, 122699, Note_off_c, 1, 78, 0
1, 122699, Note_off_c, 1, 54, 0
1, 122700, Note_on_c, 1, 73, 127
1, 122700, Note_on_c, 1, 58, 127
1, 122700, Note_on_c, 1, 42, 127
1, 122729, Note_off_c, 1, 73, 0
1, 122729, Note_off_c, 1, 58, 0
1, 122730, Note_on_c, 1, 70, 127
1, 122730, Note_on_c, 1, 61, 127
1, 122759, Note_off_c, 1, 42, 0
1, 122759, Note_off_c, 1, 70, 0
1, 122759, Note_off_c, 1, 61, 0
1, 122760, Note_on_c, 1, 66, 127
1, 122760, Note_on_c, 1, 64, 127
1, 122760, Note_on_c, 1, 47, 127
1, 122789, Note_off_c, 1, 66, 0
1, 122789, Note_off_c, 1, 64, 0
1, 122790, Note_on_c, 1, 62, 127
1, 122819, Note_off_c, 1, 47, 0
1, 122819, Note_off_c, 1, 62, 0
1, 122820, Note_on_c, 1, 66, 127
1, 122820, Note_on_c, 1, 61, 127
1, 122820, Note_on_c, 1, 50, 127
1, 122849, Note_off_c, 1, 66, 0
1, 122849, Note_off_c, 1, 61, 0
1, 122850, Note_on_c, 1, 59, 127
1, 122879, Note_off_c, 1, 50, 0
1, 122879, Note_off_c, 1, 59, 0
1, 122880, Note_on_c, 1, 66, 127
1, 122880, Note_on_c, 1, 61, 127
1, 122880, Note_on_c, 1, 54, 127
1, 122909, Note_off_c, 1, 66, 0
1, 122909, Note_off_c, 1, 61, 0
1, 122910, Note_on_c, 1, 59, 127
1, 122939, Note_off_c, 1, 59, 0
1, 122940, Note_on_c, 1, 58, 127
1, 122969, Note_off_c, 1, 54, 0
1, 122969, Note_off_c, 1, 58, 0
1, 122970, Note_on_c, 1, 56, 127
1, 122970, Note_on_c, 1, 52, 127
1, 122999, Note_off_c, 1, 56, 0
1, 122999, Note_off_c, 1, 52, 0
1, 123000, Note_on_c, 1, 66, 127
1, 123000, Note_on_c, 1, 54, 127
1, 123000, Note_on_c, 1, 50, 127
1, 123029, Note_off_c, 1, 54, 0
1, 123029, Note_off_c, 1, 50, 0
1, 123030, Note_on_c, 1, 52, 127
1, 123030, Note_on_c, 1, 49, 127
1, 123059, Note_off_c, 1, 52, 0
1, 123059, Note_off_c, 1, 49, 0
1, 123060, Note_on_c, 1, 47, 127
1, 123089, Note_off_c, 1, 47, 0
1, 123090, Note_on_c, 1, 46, 127
1, 123119, Note_off_c, 1, 46, 0
1, 123149, Note_off_c, 1, 66, 0
1, 123150, Note_on_c, 1, 78, 127
1, 123179, Note_off_c, 1, 78, 0
1, 123180, Note_on_c, 1, 73, 127
1, 123180, Note_on_c, 1, 58, 127
1, 123180, Note_on_c, 1, 49, 127
1, 123209, Note_off_c, 1, 73, 0
1, 123210, Note_on_c, 1, 70, 127
1, 123239, Note_off_c, 1, 49, 0
1, 123239, Note_off_c, 1, 70, 0
1, 123240, Note_on_c, 1, 66, 127
1, 123240, Note_on_c, 1, 50, 127
1, 123269, Note_off_c, 1, 58, 0
1, 123270, Note_on_c, 1, 59, 127
1, 123299, Note_off_c, 1, 66, 0
1, 123299, Note_off_c, 1, 50, 0
1, 123299, Note_off_c, 1, 59, 0
1, 123300, Note_on_c, 1, 55, 127
1, 123300, Note_on_c, 1, 47, 127
1, 123359, Note_off_c, 1, 55, 0
1, 123359, Note_off_c, 1, 47, 0
1, 123360, Note_on_c, 1, 54, 127
1, 123360, Note_on_c, 1, 44, 127
1, 123389, Note_off_c, 1, 54, 0
1, 123389, Note_off_c, 1, 44, 0
1, 123390, Note_on_c, 1, 53, 127
1, 123390, Note_on_c, 1, 62, 127
1, 123419, Note_off_c, 1, 53, 0
1, 123419, Note_off_c, 1, 62, 0
1, 123420, Note_on_c, 1, 62, 127
1, 123420, Note_on_c, 1, 59, 127
1, 123449, Note_off_c, 1, 59, 0
1, 123450, Note_on_c, 1, 56, 127
1, 123479, Note_off_c, 1, 56, 0
1, 123480, Note_on_c, 1, 53, 127
1, 123509, Note_off_c, 1, 53, 0
1, 123539, Note_off_c, 1, 62, 0
1, 123540, Note_on_c, 1, 61, 127
1, 123540, Note_on_c, 1, 56, 127
1, 123569, Note_off_c, 1, 56, 0
1, 123570, Note_on_c, 1, 53, 127
1, 123599, Note_off_c, 1, 61, 0
1, 123599, Note_off_c, 1, 53, 0
1, 123600, Note_on_c, 1, 59, 127
1, 123600, Note_on_c, 1, 54, 127
1, 123629, Note_off_c, 1, 54, 0
1, 123630, Note_on_c, 1, 50, 127
1, 123659, Note_off_c, 1, 50, 0
1, 123660, Note_on_c, 1, 47, 127
1, 123689, Note_off_c, 1, 47, 0
1, 123690, Note_on_c, 1, 41, 127
1, 123719, Note_off_c, 1, 59, 0
1, 123719, Note_off_c, 1, 41, 0
1, 123720, Note_on_c, 1, 58, 127
1, 123720, Note_on_c, 1, 42, 127
1, 123779, Note_off_c, 1, 42, 0
1, 123780, Note_on_c, 1, 54, 127
1, 123809, Note_off_c, 1, 58, 0
1, 123810, Note_on_c, 1, 59, 127
1, 123839, Note_off_c, 1, 54, 0
1, 123839, Note_off_c, 1, 59, 0
1, 123840, Note_on_c, 1, 59, 127
1, 123840, Note_on_c, 1, 47, 127
1, 123869, Note_off_c, 1, 47, 0
1, 123900, Note_on_c, 1, 54, 127
1, 123929, Note_off_c, 1, 54, 0
1, 123930, Note_on_c, 1, 50, 127
1, 123959, Note_off_c, 1, 59, 0
1, 123959, Note_off_c, 1, 50, 0
1, 123960, Note_on_c, 1, 47, 127
1, 123989, Note_off_c, 1, 47, 0
1, 123990, Note_on_c, 1, 54, 127
1, 124019, Note_off_c, 1, 54, 0
1, 124020, Note_on_c, 1, 66, 127
1, 124020, Note_on_c, 1, 50, 127
1, 124049, Note_off_c, 1, 50, 0
1, 124050, Note_on_c, 1, 47, 127
1, 124079, Note_off_c, 1, 66, 0
1, 124079, Note_off_c, 1, 47, 0
1, 124080, Note_on_c, 1, 71, 127
1, 124080, Note_on_c, 1, 43, 127
1, 124139, Note_off_c, 1, 43, 0
1, 124140, Note_on_c, 1, 52, 127
1, 124199, Note_off_c, 1, 71, 0
1, 124199, Note_off_c, 1, 52, 0
1, 124200, Note_on_c, 1, 71, 127
1, 124200, Note_on_c, 1, 42, 127
1, 124259, Note_off_c, 1, 42, 0
1, 124260, Note_on_c, 1, 50, 127
1, 124289, Note_off_c, 1, 71, 0
1, 124290, Note_on_c, 1, 73, 127
1, 124304, Note_off_c, 1, 73, 0
1, 124305, Note_on_c, 1, 74, 127
1, 124319, Note_off_c, 1, 50, 0
1, 124319, Note_off_c, 1, 74, 0
1, 124320, Note_on_c, 1, 73, 127
1, 124320, Note_on_c, 1, 40, 127
1, 124379, Note_off_c, 1, 73, 0
1, 124379, Note_off_c, 1, 40, 0
1, 124380, Note_on_c, 1, 71, 127
1, 124380, Note_on_c, 1, 49, 127
1, 124439, Note_off_c, 1, 71, 0
1, 124439, Note_off_c, 1, 49, 0
1, 124440, Note_on_c, 1, 70, 127
1, 124440, Note_on_c, 1, 42, 127
1, 124499, Note_off_c, 1, 70, 0
1, 124499, Note_off_c, 1, 42, 0
1, 124500, Note_on_c, 1, 71, 127
1, 124500, Note_on_c, 1, 50, 127
1, 124529, Note_off_c, 1, 71, 0
1, 124559, Note_off_c, 1, 50, 0
1, 124560, Note_on_c, 1, 76, 127
1, 124560, Note_on_c, 1, 49, 127
1, 124589, Note_off_c, 1, 76, 0
1, 124619, Note_off_c, 1, 49, 0
1, 124620, Note_on_c, 1, 76, 127
1, 124620, Note_on_c, 1, 47, 127
1, 124634, Note_off_c, 1, 76, 0
1, 124635, Note_on_c, 1, 78, 127
1, 124649, Note_off_c, 1, 78, 0
1, 124650, Note_on_c, 1, 79, 127
1, 124679, Note_off_c, 1, 47, 0
1, 124680, Note_off_c, 1, 79, 0
1, 124680, Note_on_c, 1, 46, 127
1, 124739, Note_off_c, 1, 46, 0
1, 124740, Note_on_c, 1, 76, 127
1, 124740, Note_on_c, 1, 49, 127
1, 124770, Note_off_c, 1, 76, 0
1, 124799, Note_off_c, 1, 49, 0
1, 124800, Note_on_c, 1, 78, 127
1, 124800, Note_on_c, 1, 50, 127
1, 124829, Note_off_c, 1, 78, 0
1, 124830, Note_on_c, 1, 76, 127
1, 124859, Note_off_c, 1, 50, 0
1, 124859, Note_off_c, 1, 76, 0
1, 124860, Note_on_c, 1, 74, 127
1, 124860, Note_on_c, 1, 54, 127
1, 124889, Note_off_c, 1, 74, 0
1, 124890, Note_on_c, 1, 73, 127
1, 124919, Note_off_c, 1, 54, 0
1, 124919, Note_off_c, 1, 73, 0
1, 124920, Note_on_c, 1, 71, 127
1, 124920, Note_on_c, 1, 50, 127
1, 124979, Note_off_c, 1, 71, 0
1, 124979, Note_off_c, 1, 50, 0
1, 124980, Note_on_c, 1, 74, 127
1, 124980, Note_on_c, 1, 47, 127
1, 125009, Note_off_c, 1, 74, 0
1, 125039, Note_off_c, 1, 47, 0
1, 125040, Note_on_c, 1, 73, 127
1, 125040, Note_on_c, 1, 54, 127
1, 125040, Note_on_c, 1, 46, 127
1, 125069, Note_off_c, 1, 73, 0
1, 125070, Note_on_c, 1, 74, 127
1, 125099, Note_off_c, 1, 54, 0
1, 125099, Note_off_c, 1, 46, 0
1, 125099, Note_off_c, 1, 74, 0
1, 125100, Note_on_c, 1, 76, 127
1, 125100, Note_on_c, 1, 54, 127
1, 125100, Note_on_c, 1, 42, 127
1, 125129, Note_off_c, 1, 76, 0
1, 125130, Note_on_c, 1, 74, 127
1, 125159, Note_off_c, 1, 42, 0
1, 125159, Note_off_c, 1, 74, 0
1, 125160, Note_on_c, 1, 73, 127
1, 125160, Note_on_c, 1, 47, 127
1, 125174, Note_off_c, 1, 47, 0
1, 125175, Note_on_c, 1, 49, 127
1, 125189, Note_off_c, 1, 49, 0
1, 125190, Note_on_c, 1, 50, 127
1, 125219, Note_off_c, 1, 54, 0
1, 125219, Note_off_c, 1, 73, 0
1, 125220, Note_on_c, 1, 71, 127
1, 125220, Note_on_c, 1, 59, 127
1, 125249, Note_off_c, 1, 71, 0
1, 125279, Note_off_c, 1, 50, 0
1, 125279, Note_off_c, 1, 59, 0
1, 125280, Note_on_c, 1, 71, 127
1, 125280, Note_on_c, 1, 55, 127
1, 125280, Note_on_c, 1, 49, 127
1, 125294, Note_off_c, 1, 49, 0
1, 125295, Note_on_c, 1, 50, 127
1, 125309, Note_off_c, 1, 50, 0
1, 125310, Note_on_c, 1, 52, 127
1, 125339, Note_off_c, 1, 71, 0
1, 125339, Note_off_c, 1, 55, 0
1, 125340, Note_on_c, 1, 70, 127
1, 125340, Note_on_c, 1, 54, 127
1, 125399, Note_off_c, 1, 70, 0
1, 125400, Note_on_c, 1, 78, 127
1, 125429, Note_off_c, 1, 52, 0
1, 125459, Note_off_c, 1, 54, 0
1, 125459, Note_off_c, 1, 78, 0
1, 125460, Note_on_c, 1, 79, 127
1, 125460, Note_on_c, 1, 59, 127
1, 125460, Note_on_c, 1, 49, 127
1, 125489, Note_off_c, 1, 49, 0
1, 125490, Note_on_c, 1, 47, 127
1, 125519, Note_off_c, 1, 79, 0
1, 125519, Note_off_c, 1, 59, 0
1, 125519, Note_off_c, 1, 47, 0
1, 125520, Note_on_c, 1, 70, 127
1, 125520, Note_on_c, 1, 64, 127
1, 125520, Note_on_c, 1, 49, 127
1, 125549, Note_off_c, 1, 70, 0
1, 125550, Note_on_c, 1, 71, 127
1, 125579, Note_off_c, 1, 64, 0
1, 125579, Note_off_c, 1, 49, 0
1, 125579, Note_off_c, 1, 71, 0
1, 125580, Note_on_c, 1, 73, 127
1, 125580, Note_on_c, 1, 64, 127
1, 125580, Note_on_c, 1, 47, 127
1, 125609, Note_off_c, 1, 73, 0
1, 125609, Note_off_c, 1, 64, 0
1, 125610, Note_on_c, 1, 74, 127
1, 125610, Note_on_c, 1, 62, 127
1, 125639, Note_off_c, 1, 47, 0
1, 125639, Note_off_c, 1, 74, 0
1, 125639, Note_off_c, 1, 62, 0
1, 125640, Note_on_c, 1, 76, 127
1, 125640, Note_on_c, 1, 61, 127
1, 125640, Note_on_c, 1, 46, 127
1, 125669, Note_off_c, 1, 76, 0
1, 125670, Note_on_c, 1, 73, 127
1, 125699, Note_off_c, 1, 61, 0
1, 125699, Note_off_c, 1, 46, 0
1, 125699, Note_off_c, 1, 73, 0
1, 125700, Note_on_c, 1, 74, 127
1, 125700, Note_on_c, 1, 59, 127
1, 125700, Note_on_c, 1, 47, 127
1, 125729, Note_off_c, 1, 74, 0
1, 125730, Note_on_c, 1, 71, 127
1, 125759, Note_off_c, 1, 59, 0
1, 125759, Note_off_c, 1, 47, 0
1, 125759, Note_off_c, 1, 71, 0
1, 125760, Note_on_c, 1, 73, 127
1, 125760, Note_on_c, 1, 58, 127
1, 125760, Note_on_c, 1, 42, 127
1, 125789, Note_off_c, 1, 73, 0
1, 125789, Note_off_c, 1, 58, 0
1, 125790, Note_on_c, 1, 71, 127
1, 125790, Note_on_c, 1, 59, 127
1, 125819, Note_off_c, 1, 42, 0
1, 125819, Note_off_c, 1, 71, 0
1, 125819, Note_off_c, 1, 59, 0
1, 125820, Note_on_c, 1, 70, 127
1, 125820, Note_on_c, 1, 61, 127
1, 125820, Note_on_c, 1, 44, 127
1, 125849, Note_off_c, 1, 70, 0
1, 125850, Note_on_c, 1, 68, 127
1, 125879, Note_off_c, 1, 61, 0
1, 125879, Note_off_c, 1, 44, 0
1, 125879, Note_off_c, 1, 68, 0
1, 125880, Note_on_c, 1, 66, 127
1, 125880, Note_on_c, 1, 61, 127
1, 125880, Note_on_c, 1, 46, 127
1, 125909, Note_off_c, 1, 46, 0
1, 125910, Note_on_c, 1, 54, 127
1, 125939, Note_off_c, 1, 66, 0
1, 125939, Note_off_c, 1, 61, 0
1, 125939, Note_off_c, 1, 54, 0
1, 125940, Note_on_c, 1, 54, 127
1, 125940, Note_on_c, 1, 52, 127
1, 125969, Note_off_c, 1, 52, 0
1, 125970, Note_on_c, 1, 49, 127
1, 125999, Note_off_c, 1, 54, 0
1, 125999, Note_off_c, 1, 49, 0
1, 126000, Note_on_c, 1, 59, 127
1, 126000, Note_on_c, 1, 50, 127
1, 126029, Note_off_c, 1, 59, 0
1, 126029, Note_off_c, 1, 50, 0
1, 126030, Note_on_c, 1, 58, 127
1, 126030, Note_on_c, 1, 54, 127
1, 126059, Note_off_c, 1, 58, 0
1, 126059, Note_off_c, 1, 54, 0
1, 126060, Note_on_c, 1, 59, 127
1, 126060, Note_on_c, 1, 50, 127
1, 126089, Note_off_c, 1, 59, 0
1, 126089, Note_off_c, 1, 50, 0
1, 126090, Note_on_c, 1, 62, 127
1, 126090, Note_on_c, 1, 47, 127
1, 126119, Note_off_c, 1, 62, 0
1, 126119, Note_off_c, 1, 47, 0
1, 126120, Note_on_c, 1, 61, 127
1, 126120, Note_on_c, 1, 46, 127
1, 126149, Note_off_c, 1, 61, 0
1, 126149, Note_off_c, 1, 46, 0
1, 126150, Note_on_c, 1, 59, 127
1, 126150, Note_on_c, 1, 49, 127
1, 126179, Note_off_c, 1, 59, 0
1, 126179, Note_off_c, 1, 49, 0
1, 126180, Note_on_c, 1, 61, 127
1, 126180, Note_on_c, 1, 46, 127
1, 126209, Note_off_c, 1, 61, 0
1, 126209, Note_off_c, 1, 46, 0
1, 126210, Note_on_c, 1, 64, 127
1, 126210, Note_on_c, 1, 42, 127
1, 126239, Note_off_c, 1, 64, 0
1, 126239, Note_off_c, 1, 42, 0
1, 126240, Note_on_c, 1, 62, 127
1, 126240, Note_on_c, 1, 47, 127
1, 126269, Note_off_c, 1, 62, 0
1, 126270, Note_on_c, 1, 61, 127
1, 126299, Note_off_c, 1, 47, 0
1, 126299, Note_off_c, 1, 61, 0
1, 126300, Note_on_c, 1, 59, 127
1, 126300, Note_on_c, 1, 47, 127
1, 126329, Note_off_c, 1, 59, 0
1, 126330, Note_on_c, 1, 61, 127
1, 126359, Note_off_c, 1, 47, 0
1, 126359, Note_off_c, 1, 61, 0
1, 126360, Note_on_c, 1, 62, 127
1, 126360, Note_on_c, 1, 47, 127
1, 126390, Note_on_c, 1, 78, 127
1, 126419, Note_off_c, 1, 62, 0
1, 126419, Note_off_c, 1, 47, 0
1, 126419, Note_off_c, 1, 78, 0
1, 126420, Note_on_c, 1, 74, 127
1, 126420, Note_on_c, 1, 59, 127
1, 126420, Note_on_c, 1, 47, 127
1, 126449, Note_off_c, 1, 74, 0
1, 126450, Note_on_c, 1, 73, 127
1, 126479, Note_off_c, 1, 59, 0
1, 126479, Note_off_c, 1, 47, 0
1, 126479, Note_off_c, 1, 73, 0
1, 126480, Note_on_c, 1, 74, 127
1, 126480, Note_on_c, 1, 56, 127
1, 126480, Note_on_c, 1, 52, 127
1, 126509, Note_off_c, 1, 74, 0
1, 126509, Note_off_c, 1, 56, 0
1, 126510, Note_on_c, 1, 83, 127
1, 126510, Note_on_c, 1, 54, 127
1, 126539, Note_off_c, 1, 52, 0
1, 126539, Note_off_c, 1, 83, 0
1, 126539, Note_off_c, 1, 54, 0
1, 126540, Note_on_c, 1, 80, 127
1, 126540, Note_on_c, 1, 52, 127
1, 126569, Note_off_c, 1, 80, 0
1, 126570, Note_on_c, 1, 74, 127
1, 126599, Note_off_c, 1, 74, 0
1, 126600, Note_on_c, 1, 64, 127
1, 126630, Note_on_c, 1, 56, 127
1, 126659, Note_off_c, 1, 52, 0
1, 126659, Note_off_c, 1, 64, 0
1, 126659, Note_off_c, 1, 56, 0
1, 126660, Note_on_c, 1, 59, 127
1, 126660, Note_on_c, 1, 52, 127
1, 126689, Note_off_c, 1, 59, 0
1, 126690, Note_on_c, 1, 62, 127
1, 126719, Note_off_c, 1, 52, 0
1, 126719, Note_off_c, 1, 62, 0
1, 126720, Note_on_c, 1, 61, 127
1, 126720, Note_on_c, 1, 45, 127
1, 126749, Note_off_c, 1, 61, 0
1, 126750, Note_on_c, 1, 59, 127
1, 126779, Note_off_c, 1, 45, 0
1, 126779, Note_off_c, 1, 59, 0
1, 126780, Note_on_c, 1, 57, 127
1, 126780, Note_on_c, 1, 45, 127
1, 126809, Note_off_c, 1, 57, 0
1, 126810, Note_on_c, 1, 59, 127
1, 126839, Note_off_c, 1, 45, 0
1, 126839, Note_off_c, 1, 59, 0
1, 126840, Note_on_c, 1, 61, 127
1, 126840, Note_on_c, 1, 45, 127
1, 126870, Note_on_c, 1, 76, 127
1, 126899, Note_off_c, 1, 61, 0
1, 126899, Note_off_c, 1, 45, 0
1, 126899, Note_off_c, 1, 76, 0
1, 126900, Note_on_c, 1, 73, 127
1, 126900, Note_on_c, 1, 57, 127
1, 126900, Note_on_c, 1, 45, 127
1, 126929, Note_off_c, 1, 73, 0
1, 126930, Note_on_c, 1, 71, 127
1, 126959, Note_off_c, 1, 57, 0
1, 126959, Note_off_c, 1, 45, 0
1, 126959, Note_off_c, 1, 71, 0
1, 126960, Note_on_c, 1, 73, 127
1, 126960, Note_on_c, 1, 54, 127
1, 126960, Note_on_c, 1, 50, 127
1, 126989, Note_off_c, 1, 73, 0
1, 126989, Note_off_c, 1, 54, 0
1, 126990, Note_on_c, 1, 81, 127
1, 126990, Note_on_c, 1, 53, 127
1, 127019, Note_off_c, 1, 50, 0
1, 127019, Note_off_c, 1, 81, 0
1, 127019, Note_off_c, 1, 53, 0
1, 127020, Note_on_c, 1, 78, 127
1, 127020, Note_on_c, 1, 54, 127
1, 127020, Note_on_c, 1, 50, 127
1, 127049, Note_off_c, 1, 78, 0
1, 127050, Note_on_c, 1, 73, 127
1, 127079, Note_off_c, 1, 50, 0
1, 127079, Note_off_c, 1, 73, 0
1, 127080, Note_on_c, 1, 62, 127
1, 127139, Note_off_c, 1, 54, 0
1, 127139, Note_off_c, 1, 62, 0
1, 127140, Note_on_c, 1, 57, 127
1, 127140, Note_on_c, 1, 49, 127
1, 127199, Note_off_c, 1, 57, 0
1, 127199, Note_off_c, 1, 49, 0
1, 127200, Note_on_c, 1, 56, 127
1, 127200, Note_on_c, 1, 47, 127
1, 127229, Note_off_c, 1, 56, 0
1, 127230, Note_on_c, 1, 57, 127
1, 127259, Note_off_c, 1, 47, 0
1, 127259, Note_off_c, 1, 57, 0
1, 127260, Note_on_c, 1, 59, 127
1, 127260, Note_on_c, 1, 44, 127
1, 127289, Note_off_c, 1, 59, 0
1, 127290, Note_on_c, 1, 62, 127
1, 127319, Note_off_c, 1, 44, 0
1, 127319, Note_off_c, 1, 62, 0
1, 127320, Note_on_c, 1, 61, 127
1, 127320, Note_on_c, 1, 45, 127
1, 127349, Note_off_c, 1, 61, 0
1, 127350, Note_on_c, 1, 59, 127
1, 127379, Note_off_c, 1, 45, 0
1, 127379, Note_off_c, 1, 59, 0
1, 127380, Note_on_c, 1, 57, 127
1, 127380, Note_on_c, 1, 47, 127
1, 127409, Note_off_c, 1, 57, 0
1, 127410, Note_on_c, 1, 56, 127
1, 127439, Note_off_c, 1, 47, 0
1, 127439, Note_off_c, 1, 56, 0
1, 127440, Note_on_c, 1, 54, 127
1, 127440, Note_on_c, 1, 49, 127
1, 127469, Note_off_c, 1, 54, 0
1, 127470, Note_on_c, 1, 53, 127
1, 127499, Note_off_c, 1, 49, 0
1, 127499, Note_off_c, 1, 53, 0
1, 127500, Note_on_c, 1, 54, 127
1, 127500, Note_on_c, 1, 51, 127
1, 127529, Note_off_c, 1, 54, 0
1, 127530, Note_on_c, 1, 56, 127
1, 127559, Note_off_c, 1, 51, 0
1, 127559, Note_off_c, 1, 56, 0
1, 127560, Note_on_c, 1, 49, 127
1, 127560, Note_on_c, 1, 53, 127
1, 127590, Note_on_c, 1, 73, 127
1, 127619, Note_off_c, 1, 49, 0
1, 127619, Note_off_c, 1, 53, 0
1, 127619, Note_off_c, 1, 73, 0
1, 127620, Note_on_c, 1, 68, 127
1, 127620, Note_on_c, 1, 59, 127
1, 127620, Note_on_c, 1, 49, 127
1, 127649, Note_off_c, 1, 68, 0
1, 127650, Note_on_c, 1, 65, 127
1, 127679, Note_off_c, 1, 59, 0
1, 127679, Note_off_c, 1, 49, 0
1, 127679, Note_off_c, 1, 65, 0
1, 127680, Note_on_c, 1, 61, 127
1, 127680, Note_on_c, 1, 57, 127
1, 127680, Note_on_c, 1, 54, 127
1, 127709, Note_off_c, 1, 61, 0
1, 127739, Note_off_c, 1, 57, 0
1, 127739, Note_off_c, 1, 54, 0
1, 127740, Note_on_c, 1, 61, 127
1, 127740, Note_on_c, 1, 56, 127
1, 127740, Note_on_c, 1, 45, 127
1, 127769, Note_off_c, 1, 61, 0
1, 127769, Note_off_c, 1, 56, 0
1, 127770, Note_on_c, 1, 54, 127
1, 127799, Note_off_c, 1, 45, 0
1, 127799, Note_off_c, 1, 54, 0
1, 127800, Note_on_c, 1, 61, 127
1, 127800, Note_on_c, 1, 53, 127
1, 127800, Note_on_c, 1, 44, 127
1, 127829, Note_off_c, 1, 61, 0
1, 127829, Note_off_c, 1, 53, 0
1, 127830, Note_on_c, 1, 54, 127
1, 127859, Note_off_c, 1, 44, 0
1, 127859, Note_off_c, 1, 54, 0
1, 127860, Note_on_c, 1, 61, 127
1, 127860, Note_on_c, 1, 57, 127
1, 127860, Note_on_c, 1, 42, 127
1, 127889, Note_off_c, 1, 57, 0
1, 127919, Note_off_c, 1, 42, 0
1, 127920, Note_on_c, 1, 64, 127
1, 127920, Note_on_c, 1, 47, 127
1, 127949, Note_off_c, 1, 61, 0
1, 127949, Note_off_c, 1, 64, 0
1, 127950, Note_on_c, 1, 71, 127
1, 127950, Note_on_c, 1, 62, 127
1, 127979, Note_off_c, 1, 47, 0
1, 127979, Note_off_c, 1, 71, 0
1, 127979, Note_off_c, 1, 62, 0
1, 127980, Note_on_c, 1, 70, 127
1, 127980, Note_on_c, 1, 61, 127
1, 127980, Note_on_c, 1, 59, 127
1, 128009, Note_off_c, 1, 70, 0
1, 128009, Note_off_c, 1, 61, 0
1, 128010, Note_on_c, 1, 71, 127
1, 128039, Note_off_c, 1, 71, 0
1, 128040, Note_on_c, 1, 65, 127
1, 128069, Note_off_c, 1, 59, 0
1, 128070, Note_on_c, 1, 56, 127
1, 128099, Note_off_c, 1, 65, 0
1, 128099, Note_off_c, 1, 56, 0
1, 128100, Note_on_c, 1, 59, 127
1, 128100, Note_on_c, 1, 53, 127
1, 128129, Note_off_c, 1, 53, 0
1, 128130, Note_on_c, 1, 49, 127
1, 128159, Note_off_c, 1, 59, 0
1, 128159, Note_off_c, 1, 49, 0
1, 128160, Note_on_c, 1, 59, 127
1, 128160, Note_on_c, 1, 54, 127
1, 128189, Note_off_c, 1, 59, 0
1, 128190, Note_on_c, 1, 57, 127
1, 128219, Note_off_c, 1, 54, 0
1, 128219, Note_off_c, 1, 57, 0
1, 128220, Note_on_c, 1, 56, 127
1, 128220, Note_on_c, 1, 50, 127
1, 128249, Note_off_c, 1, 56, 0
1, 128250, Note_on_c, 1, 54, 127
1, 128279, Note_off_c, 1, 50, 0
1, 128279, Note_off_c, 1, 54, 0
1, 128280, Note_on_c, 1, 56, 127
1, 128280, Note_on_c, 1, 47, 127
1, 128339, Note_off_c, 1, 56, 0
1, 128339, Note_off_c, 1, 47, 0
1, 128340, Note_on_c, 1, 53, 127
1, 128340, Note_on_c, 1, 49, 127
1, 128399, Note_off_c, 1, 53, 0
1, 128399, Note_off_c, 1, 49, 0
1, 128400, Note_on_c, 1, 54, 127
1, 128400, Note_on_c, 1, 42, 127
1, 128430, Note_on_c, 1, 78, 127
1, 128459, Note_off_c, 1, 42, 0
1, 128459, Note_off_c, 1, 78, 0
1, 128460, Note_on_c, 1, 73, 127
1, 128460, Note_on_c, 1, 44, 127
1, 128489, Note_off_c, 1, 73, 0
1, 128490, Note_on_c, 1, 69, 127
1, 128519, Note_off_c, 1, 54, 0
1, 128519, Note_off_c, 1, 44, 0
1, 128519, Note_off_c, 1, 69, 0
1, 128520, Note_on_c, 1, 66, 127
1, 128520, Note_on_c, 1, 45, 127
1, 128549, Note_off_c, 1, 66, 0
1, 128549, Note_off_c, 1, 45, 0
1, 128550, Note_on_c, 1, 73, 127
1, 128550, Note_on_c, 1, 54, 127
1, 128579, Note_off_c, 1, 73, 0
1, 128579, Note_off_c, 1, 54, 0
1, 128580, Note_on_c, 1, 69, 127
1, 128580, Note_on_c, 1, 54, 127
1, 128580, Note_on_c, 1, 49, 127
1, 128609, Note_off_c, 1, 69, 0
1, 128609, Note_off_c, 1, 49, 0
1, 128610, Note_on_c, 1, 66, 127
1, 128610, Note_on_c, 1, 47, 127
1, 128639, Note_off_c, 1, 54, 0
1, 128639, Note_off_c, 1, 66, 0
1, 128639, Note_off_c, 1, 47, 0
1, 128640, Note_on_c, 1, 61, 127
1, 128640, Note_on_c, 1, 55, 127
1, 128640, Note_on_c, 1, 46, 127
1, 128654, Note_off_c, 1, 55, 0
1, 128655, Note_on_c, 1, 54, 127
1, 128669, Note_off_c, 1, 61, 0
1, 128669, Note_off_c, 1, 46, 0
1, 128669, Note_off_c, 1, 54, 0
1, 128670, Note_on_c, 1, 52, 127
1, 128670, Note_on_c, 1, 55, 127
1, 128699, Note_off_c, 1, 55, 0
1, 128700, Note_on_c, 1, 61, 127
1, 128729, Note_off_c, 1, 61, 0
1, 128730, Note_on_c, 1, 50, 127
1, 128759, Note_off_c, 1, 50, 0
1, 128760, Note_on_c, 1, 49, 127
1, 128775, Note_off_c, 1, 52, 0
1, 128789, Note_off_c, 1, 49, 0
1, 128790, Note_on_c, 1, 49, 127
1, 128790, Note_on_c, 1, 55, 127
1, 128819, Note_off_c, 1, 55, 0
1, 128820, Note_on_c, 1, 61, 127
1, 128820, Note_on_c, 1, 52, 127
1, 128849, Note_off_c, 1, 61, 0
1, 128849, Note_off_c, 1, 52, 0
1, 128880, Note_on_c, 1, 46, 127
1, 128909, Note_off_c, 1, 46, 0
1, 128940, Note_on_c, 1, 59, 127
1, 128969, Note_off_c, 1, 49, 0
1, 128999, Note_off_c, 1, 59, 0
1, 129000, Note_on_c, 1, 58, 127
1, 129000, Note_on_c, 1, 42, 127
1, 129030, Note_on_c, 1, 76, 127
1, 129059, Note_off_c, 1, 58, 0
1, 129059, Note_off_c, 1, 42, 0
1, 129059, Note_off_c, 1, 76, 0
1, 129060, Note_on_c, 1, 73, 127
1, 129060, Note_on_c, 1, 64, 127
1, 129060, Note_on_c, 1, 46, 127
1, 129089, Note_off_c, 1, 73, 0
1, 129090, Note_on_c, 1, 70, 127
1, 129119, Note_off_c, 1, 64, 0
1, 129119, Note_off_c, 1, 46, 0
1, 129119, Note_off_c, 1, 70, 0
1, 129120, Note_on_c, 1, 66, 127
1, 129120, Note_on_c, 1, 62, 127
1, 129120, Note_on_c, 1, 47, 127
1, 129149, Note_off_c, 1, 66, 0
1, 129179, Note_off_c, 1, 62, 0
1, 129179, Note_off_c, 1, 47, 0
1, 129180, Note_on_c, 1, 66, 127
1, 129180, Note_on_c, 1, 61, 127
1, 129180, Note_on_c, 1, 49, 127
1, 129209, Note_off_c, 1, 66, 0
1, 129239, Note_off_c, 1, 61, 0
1, 129239, Note_off_c, 1, 49, 0
1, 129240, Note_on_c, 1, 66, 127
1, 129240, Note_on_c, 1, 59, 127
1, 129240, Note_on_c, 1, 50, 127
1, 129254, Note_off_c, 1, 66, 0
1, 129255, Note_on_c, 1, 68, 127
1, 129269, Note_off_c, 1, 68, 0
1, 129270, Note_on_c, 1, 70, 127
1, 129299, Note_off_c, 1, 59, 0
1, 129299, Note_off_c, 1, 50, 0
1, 129300, Note_on_c, 1, 62, 127
1, 129300, Note_on_c, 1, 47, 127
1, 129359, Note_off_c, 1, 70, 0
1, 129359, Note_off_c, 1, 62, 0
1, 129359, Note_off_c, 1, 47, 0
1, 129360, Note_on_c, 1, 70, 127
1, 129360, Note_on_c, 1, 61, 127
1, 129360, Note_on_c, 1, 42, 127
1, 129374, Note_off_c, 1, 70, 0
1, 129375, Note_on_c, 1, 71, 127
1, 129389, Note_off_c, 1, 42, 0
1, 129389, Note_off_c, 1, 71, 0
1, 129390, Note_on_c, 1, 73, 127
1, 129390, Note_on_c, 1, 55, 127
1, 129419, Note_off_c, 1, 61, 0
1, 129419, Note_off_c, 1, 55, 0
1, 129420, Note_on_c, 1, 58, 127
1, 129420, Note_on_c, 1, 52, 127
1, 129449, Note_off_c, 1, 52, 0
1, 129450, Note_on_c, 1, 49, 127
1, 129479, Note_off_c, 1, 73, 0
1, 129479, Note_off_c, 1, 58, 0
1, 129479, Note_off_c, 1, 49, 0
1, 129480, Note_on_c, 1, 73, 127
1, 129480, Note_on_c, 1, 54, 127
1, 129480, Note_on_c, 1, 46, 127
1, 129494, Note_off_c, 1, 73, 0
1, 129495, Note_on_c, 1, 74, 127
1, 129509, Note_off_c, 1, 46, 0
1, 129509, Note_off_c, 1, 74, 0
1, 129510, Note_on_c, 1, 76, 127
1, 129510, Note_on_c, 1, 52, 127
1, 129539, Note_off_c, 1, 54, 0
1, 129539, Note_off_c, 1, 52, 0
1, 129540, Note_on_c, 1, 56, 127
1, 129540, Note_on_c, 1, 49, 127
1, 129569, Note_off_c, 1, 49, 0
1, 129599, Note_off_c, 1, 56, 0
1, 129600, Note_on_c, 1, 58, 127
1, 129600, Note_on_c, 1, 42, 127
1, 129629, Note_off_c, 1, 76, 0
1, 129630, Note_on_c, 1, 79, 127
1, 129659, Note_off_c, 1, 58, 0
1, 129659, Note_off_c, 1, 42, 0
1, 129659, Note_off_c, 1, 79, 0
1, 129660, Note_on_c, 1, 78, 127
1, 129660, Note_on_c, 1, 59, 127
1, 129660, Note_on_c, 1, 43, 127
1, 129689, Note_off_c, 1, 78, 0
1, 129690, Note_on_c, 1, 76, 127
1, 129719, Note_off_c, 1, 59, 0
1, 129719, Note_off_c, 1, 43, 0
1, 129719, Note_off_c, 1, 76, 0
1, 129720, Note_on_c, 1, 78, 127
1, 129720, Note_on_c, 1, 61, 127
1, 129720, Note_on_c, 1, 40, 127
1, 129749, Note_off_c, 1, 78, 0
1, 129750, Note_on_c, 1, 76, 127
1, 129779, Note_off_c, 1, 61, 0
1, 129779, Note_off_c, 1, 40, 0
1, 129779, Note_off_c, 1, 76, 0
1, 129780, Note_on_c, 1, 74, 127
1, 129780, Note_on_c, 1, 58, 127
1, 129780, Note_on_c, 1, 42, 127
1, 129809, Note_off_c, 1, 74, 0
1, 129810, Note_on_c, 1, 73, 127
1, 129839, Note_off_c, 1, 58, 0
1, 129839, Note_off_c, 1, 42, 0
1, 129839, Note_off_c, 1, 73, 0
1, 129840, Note_on_c, 1, 74, 127
1, 129840, Note_on_c, 1, 59, 127
1, 129840, Note_on_c, 1, 47, 127
1, 129854, Note_off_c, 1, 74, 0
1, 129854, Note_off_c, 1, 59, 0
1, 129855, Note_on_c, 1, 73, 127
1, 129855, Note_on_c, 1, 61, 127
1, 129869, Note_off_c, 1, 73, 0
1, 129869, Note_off_c, 1, 61, 0
1, 129870, Note_on_c, 1, 71, 127
1, 129870, Note_on_c, 1, 62, 127
1, 129899, Note_off_c, 1, 47, 0
1, 129900, Note_on_c, 1, 42, 127
1, 129959, Note_off_c, 1, 62, 0
1, 129959, Note_off_c, 1, 42, 0
1, 129960, Note_on_c, 1, 54, 127
1, 129989, Note_off_c, 1, 71, 0
1, 129990, Note_on_c, 1, 70, 127
1, 129990, Note_on_c, 1, 58, 127
1, 130019, Note_off_c, 1, 54, 0
1, 130019, Note_off_c, 1, 70, 0
1, 130050, Note_on_c, 1, 76, 127
1, 130079, Note_off_c, 1, 58, 0
1, 130079, Note_off_c, 1, 76, 0
1, 130080, Note_on_c, 1, 74, 127
1, 130080, Note_on_c, 1, 59, 127
1, 130080, Note_on_c, 1, 47, 127
1, 130109, Note_off_c, 1, 74, 0
1, 130110, Note_on_c, 1, 71, 127
1, 130139, Note_off_c, 1, 59, 0
1, 130139, Note_off_c, 1, 47, 0
1, 130139, Note_off_c, 1, 71, 0
1, 130140, Note_on_c, 1, 74, 127
1, 130140, Note_on_c, 1, 47, 127
1, 130140, Note_on_c, 1, 42, 127
1, 130169, Note_off_c, 1, 74, 0
1, 130170, Note_on_c, 1, 78, 127
1, 130199, Note_off_c, 1, 47, 0
1, 130199, Note_off_c, 1, 42, 0
1, 130199, Note_off_c, 1, 78, 0
1, 130200, Note_on_c, 1, 73, 127
1, 130200, Note_on_c, 1, 46, 127
1, 130229, Note_off_c, 1, 73, 0
1, 130230, Note_on_c, 1, 70, 127
1, 130259, Note_off_c, 1, 46, 0
1, 130259, Note_off_c, 1, 70, 0
1, 130260, Note_on_c, 1, 73, 127
1, 130260, Note_on_c, 1, 58, 127
1, 130260, Note_on_c, 1, 42, 127
1, 130289, Note_off_c, 1, 73, 0
1, 130290, Note_on_c, 1, 76, 127
1, 130319, Note_off_c, 1, 58, 0
1, 130319, Note_off_c, 1, 42, 0
1, 130319, Note_off_c, 1, 76, 0
1, 130320, Note_on_c, 1, 74, 127
1, 130320, Note_on_c, 1, 59, 127
1, 130320, Note_on_c, 1, 47, 127
1, 130334, Note_off_c, 1, 74, 0
1, 130335, Note_on_c, 1, 73, 127
1, 130349, Note_off_c, 1, 59, 0
1, 130349, Note_off_c, 1, 73, 0
1, 130350, Note_on_c, 1, 71, 127
1, 130350, Note_on_c, 1, 54, 127
1, 130379, Note_off_c, 1, 47, 0
1, 130379, Note_off_c, 1, 54, 0
1, 130380, Note_on_c, 1, 56, 127
1, 130380, Note_on_c, 1, 50, 127
1, 130409, Note_off_c, 1, 56, 0
1, 130410, Note_on_c, 1, 57, 127
1, 130439, Note_off_c, 1, 50, 0
1, 130439, Note_off_c, 1, 57, 0
1, 130440, Note_on_c, 1, 52, 127
1, 130469, Note_off_c, 1, 71, 0
1, 130470, Note_on_c, 1, 68, 127
1, 130499, Note_off_c, 1, 52, 0
1, 130499, Note_off_c, 1, 68, 0
1, 130500, Note_on_c, 1, 71, 127
1, 130500, Note_on_c, 1, 56, 127
1, 130500, Note_on_c, 1, 44, 127
1, 130529, Note_off_c, 1, 71, 0
1, 130529, Note_off_c, 1, 56, 0
1, 130530, Note_on_c, 1, 74, 127
1, 130530, Note_on_c, 1, 59, 127
1, 130559, Note_off_c, 1, 44, 0
1, 130559, Note_off_c, 1, 74, 0
1, 130559, Note_off_c, 1, 59, 0
1, 130560, Note_on_c, 1, 73, 127
1, 130560, Note_on_c, 1, 64, 127
1, 130560, Note_on_c, 1, 45, 127
1, 130589, Note_off_c, 1, 73, 0
1, 130589, Note_off_c, 1, 64, 0
1, 130590, Note_on_c, 1, 69, 127
1, 130590, Note_on_c, 1, 61, 127
1, 130619, Note_off_c, 1, 45, 0
1, 130619, Note_off_c, 1, 69, 0
1, 130619, Note_off_c, 1, 61, 0
1, 130620, Note_on_c, 1, 73, 127
1, 130620, Note_on_c, 1, 57, 127
1, 130620, Note_on_c, 1, 40, 127
1, 130649, Note_off_c, 1, 73, 0
1, 130650, Note_on_c, 1, 76, 127
1, 130679, Note_off_c, 1, 40, 0
1, 130679, Note_off_c, 1, 76, 0
1, 130680, Note_on_c, 1, 71, 127
1, 130680, Note_on_c, 1, 52, 127
1, 130709, Note_off_c, 1, 57, 0
1, 130709, Note_off_c, 1, 71, 0
1, 130710, Note_on_c, 1, 68, 127
1, 130710, Note_on_c, 1, 59, 127
1, 130739, Note_off_c, 1, 52, 0
1, 130739, Note_off_c, 1, 68, 0
1, 130739, Note_off_c, 1, 59, 0
1, 130740, Note_on_c, 1, 71, 127
1, 130740, Note_on_c, 1, 56, 127
1, 130740, Note_on_c, 1, 40, 127
1, 130769, Note_off_c, 1, 71, 0
1, 130770, Note_on_c, 1, 74, 127
1, 130799, Note_off_c, 1, 56, 0
1, 130799, Note_off_c, 1, 40, 0
1, 130799, Note_off_c, 1, 74, 0
1, 130800, Note_on_c, 1, 73, 127
1, 130800, Note_on_c, 1, 57, 127
1, 130800, Note_on_c, 1, 45, 127
1, 130814, Note_off_c, 1, 73, 0
1, 130815, Note_on_c, 1, 71, 127
1, 130829, Note_off_c, 1, 71, 0
1, 130830, Note_on_c, 1, 69, 127
1, 130889, Note_off_c, 1, 57, 0
1, 130890, Note_on_c, 1, 56, 127
1, 130919, Note_off_c, 1, 45, 0
1, 130919, Note_off_c, 1, 56, 0
1, 130920, Note_on_c, 1, 54, 127
1, 130949, Note_off_c, 1, 54, 0
1, 130950, Note_on_c, 1, 52, 127
1, 130979, Note_off_c, 1, 52, 0
1, 130980, Note_off_c, 1, 69, 0
1, 130980, Note_on_c, 1, 50, 127
1, 130980, Note_on_c, 1, 42, 127
1, 131009, Note_off_c, 1, 50, 0
1, 131010, Note_on_c, 1, 49, 127
1, 131039, Note_off_c, 1, 42, 0
1, 131039, Note_off_c, 1, 49, 0
1, 131040, Note_on_c, 1, 74, 127
1, 131040, Note_on_c, 1, 47, 127
1, 131069, Note_off_c, 1, 74, 0
1, 131070, Note_on_c, 1, 73, 127
1, 131070, Note_on_c, 1, 54, 127
1, 131099, Note_off_c, 1, 73, 0
1, 131099, Note_off_c, 1, 54, 0
1, 131100, Note_on_c, 1, 71, 127
1, 131100, Note_on_c, 1, 56, 127
1, 131129, Note_off_c, 1, 71, 0
1, 131129, Note_off_c, 1, 56, 0
1, 131130, Note_on_c, 1, 69, 127
1, 131130, Note_on_c, 1, 57, 127
1, 131159, Note_off_c, 1, 47, 0
1, 131159, Note_off_c, 1, 69, 0
1, 131159, Note_off_c, 1, 57, 0
1, 131160, Note_on_c, 1, 68, 127
1, 131160, Note_on_c, 1, 59, 127
1, 131189, Note_off_c, 1, 59, 0
1, 131190, Note_on_c, 1, 61, 127
1, 131219, Note_off_c, 1, 68, 0
1, 131219, Note_off_c, 1, 61, 0
1, 131220, Note_on_c, 1, 78, 127
1, 131220, Note_on_c, 1, 62, 127
1, 131220, Note_on_c, 1, 44, 127
1, 131279, Note_off_c, 1, 44, 0
1, 131280, Note_on_c, 1, 49, 127
1, 131309, Note_off_c, 1, 78, 0
1, 131310, Note_on_c, 1, 77, 127
1, 131339, Note_off_c, 1, 62, 0
1, 131339, Note_off_c, 1, 77, 0
1, 131340, Note_on_c, 1, 61, 127
1, 131369, Note_off_c, 1, 61, 0
1, 131370, Note_on_c, 1, 80, 127
1, 131370, Note_on_c, 1, 59, 127
1, 131399, Note_off_c, 1, 49, 0
1, 131399, Note_off_c, 1, 80, 0
1, 131399, Note_off_c, 1, 59, 0
1, 131400, Note_on_c, 1, 73, 127
1, 131400, Note_on_c, 1, 57, 127
1, 131429, Note_off_c, 1, 73, 0
1, 131429, Note_off_c, 1, 57, 0
1, 131430, Note_on_c, 1, 71, 127
1, 131430, Note_on_c, 1, 56, 127
1, 131459, Note_off_c, 1, 71, 0
1, 131459, Note_off_c, 1, 56, 0
1, 131460, Note_on_c, 1, 69, 127
1, 131460, Note_on_c, 1, 54, 127
1, 131460, Note_on_c, 1, 50, 127
1, 131489, Note_off_c, 1, 69, 0
1, 131489, Note_off_c, 1, 54, 0
1, 131490, Note_on_c, 1, 68, 127
1, 131490, Note_on_c, 1, 53, 127
1, 131519, Note_off_c, 1, 50, 0
1, 131519, Note_off_c, 1, 68, 0
1, 131519, Note_off_c, 1, 53, 0
1, 131520, Note_on_c, 1, 69, 127
1, 131520, Note_on_c, 1, 54, 127
1, 131520, Note_on_c, 1, 49, 127
1, 131549, Note_off_c, 1, 69, 0
1, 131550, Note_on_c, 1, 71, 127
1, 131579, Note_off_c, 1, 49, 0
1, 131579, Note_off_c, 1, 71, 0
1, 131580, Note_on_c, 1, 73, 127
1, 131580, Note_on_c, 1, 45, 127
1, 131609, Note_off_c, 1, 54, 0
1, 131609, Note_off_c, 1, 73, 0
1, 131610, Note_on_c, 1, 66, 127
1, 131610, Note_on_c, 1, 56, 127
1, 131639, Note_off_c, 1, 45, 0
1, 131639, Note_off_c, 1, 66, 0
1, 131639, Note_off_c, 1, 56, 0
1, 131640, Note_on_c, 1, 69, 127
1, 131640, Note_on_c, 1, 49, 127
1, 131640, Note_on_c, 1, 47, 127
1, 131669, Note_off_c, 1, 69, 0
1, 131669, Note_off_c, 1, 49, 0
1, 131670, Note_on_c, 1, 68, 127
1, 131670, Note_on_c, 1, 59, 127
1, 131699, Note_off_c, 1, 47, 0
1, 131699, Note_off_c, 1, 68, 0
1, 131699, Note_off_c, 1, 59, 0
1, 131700, Note_on_c, 1, 66, 127
1, 131700, Note_on_c, 1, 57, 127
1, 131700, Note_on_c, 1, 49, 127
1, 131729, Note_off_c, 1, 66, 0
1, 131729, Note_off_c, 1, 57, 0
1, 131730, Note_on_c, 1, 65, 127
1, 131730, Note_on_c, 1, 56, 127
1, 131759, Note_off_c, 1, 49, 0
1, 131759, Note_off_c, 1, 65, 0
1, 131759, Note_off_c, 1, 56, 0
1, 131760, Note_on_c, 1, 66, 127
1, 131760, Note_on_c, 1, 54, 127
1, 131760, Note_on_c, 1, 38, 127
1, 131819, Note_off_c, 1, 54, 0
1, 131820, Note_on_c, 1, 52, 127
1, 131879, Note_off_c, 1, 66, 0
1, 131879, Note_off_c, 1, 38, 0
1, 131879, Note_off_c, 1, 52, 0
1, 131880, Note_on_c, 1, 50, 127
1, 131939, Note_off_c, 1, 50, 0
1, 131940, Note_on_c, 1, 49, 127
1, 131999, Note_off_c, 1, 49, 0
1, 132000, Note_on_c, 1, 49, 127
1, 132029, Note_off_c, 1, 49, 0
1, 132030, Note_on_c, 1, 48, 127
1, 132059, Note_off_c, 1, 48, 0
1, 132060, Note_on_c, 1, 57, 127
1, 132060, Note_on_c, 1, 51, 127
1, 132119, Note_off_c, 1, 51, 0
1, 132120, Note_on_c, 1, 49, 127
1, 132179, Note_off_c, 1, 57, 0
1, 132179, Note_off_c, 1, 49, 0
1, 132180, Note_on_c, 1, 56, 127
1, 132180, Note_on_c, 1, 48, 127
1, 132239, Note_off_c, 1, 56, 0
1, 132239, Note_off_c, 1, 48, 0
1, 132240, Note_on_c, 1, 54, 127
1, 132240, Note_on_c, 1, 49, 127
1, 132359, Note_off_c, 1, 54, 0
1, 132359, Note_off_c, 1, 49, 0
1, 132360, Note_on_c, 1, 53, 127
1, 132360, Note_on_c, 1, 37, 127
1, 132449, Note_off_c, 1, 53, 0
1, 132450, Note_on_c, 1, 54, 127
1, 132479, Note_off_c, 1, 37, 0
1, 132479, Note_off_c, 1, 54, 0
1, 132480, Note_on_c, 1, 54, 127
1, 132480, Note_on_c, 1, 42, 127
1, 132509, Note_off_c, 1, 42, 0
1, 132540, Note_on_c, 1, 49, 127
1, 132569, Note_off_c, 1, 49, 0
1, 132570, Note_on_c, 1, 45, 127
1, 132599, Note_off_c, 1, 54, 0
1, 132599, Note_off_c, 1, 45, 0
1, 132600, Note_on_c, 1, 42, 127
1, 132629, Note_off_c, 1, 42, 0
1, 132630, Note_on_c, 1, 41, 127
1, 132659, Note_off_c, 1, 41, 0
1, 132660, Note_on_c, 1, 61, 127
1, 132660, Note_on_c, 1, 66, 127
1, 132660, Note_on_c, 1, 57, 127
1, 132660, Note_on_c, 1, 42, 127
1, 132689, Note_off_c, 1, 66, 0
1, 132689, Note_off_c, 1, 57, 0
1, 132689, Note_off_c, 1, 42, 0
1, 132690, Note_on_c, 1, 68, 127
1, 132690, Note_on_c, 1, 59, 127
1, 132690, Note_on_c, 1, 44, 127
1, 132719, Note_off_c, 1, 61, 0
1, 132719, Note_off_c, 1, 68, 0
1, 132719, Note_off_c, 1, 59, 0
1, 132719, Note_off_c, 1, 44, 0
1, 132720, Note_on_c, 1, 66, 127
1, 132720, Note_on_c, 1, 61, 127
1, 132720, Note_on_c, 1, 69, 127
1, 132720, Note_on_c, 1, 45, 127
1, 132779, Note_off_c, 1, 45, 0
1, 132780, Note_on_c, 1, 44, 127
1, 132839, Note_off_c, 1, 66, 0
1, 132839, Note_off_c, 1, 44, 0
1, 132840, Note_off_c, 1, 61, 0
1, 132900, Note_on_c, 1, 42, 127
1, 132930, Note_on_c, 1, 68, 127
1, 132944, Note_off_c, 1, 68, 0
1, 132959, Note_off_c, 1, 42, 0
1, 132960, Note_off_c, 1, 69, 0
1, 132960, Note_on_c, 1, 65, 127
1, 132960, Note_on_c, 1, 49, 127
1, 133079, Note_off_c, 1, 49, 0
1, 133139, Note_off_c, 1, 65, 0
1, 133140, Note_on_c, 1, 66, 127
1, 133140, Note_on_c, 1, 45, 127
1, 133199, Note_off_c, 1, 66, 0
1, 133199, Note_off_c, 1, 45, 0
1, 133200, Note_on_c, 1, 71, 127
1, 133200, Note_on_c, 1, 66, 127
1, 133200, Note_on_c, 1, 50, 127
1, 133259, Note_off_c, 1, 50, 0
1, 133260, Note_on_c, 1, 47, 127
1, 133290, Note_on_c, 1, 73, 127
1, 133304, Note_off_c, 1, 73, 0
1, 133305, Note_on_c, 1, 74, 127
1, 133319, Note_off_c, 1, 47, 0
1, 133319, Note_off_c, 1, 74, 0
1, 133320, Note_off_c, 1, 71, 0
1, 133320, Note_on_c, 1, 69, 127
1, 133320, Note_on_c, 1, 45, 127
1, 133379, Note_off_c, 1, 69, 0
1, 133379, Note_off_c, 1, 45, 0
1, 133380, Note_on_c, 1, 68, 127
1, 133380, Note_on_c, 1, 44, 127
1, 133439, Note_off_c, 1, 68, 0
1, 133439, Note_off_c, 1, 44, 0
1, 133500, Note_on_c, 1, 49, 127
1, 133559, Note_off_c, 1, 49, 0
1, 133560, Note_on_c, 1, 61, 127
1, 133620, Note_on_c, 1, 42, 127
1, 133679, Note_off_c, 1, 42, 0
1, 133680, Note_off_c, 1, 61, 0
1, 133920, Note_on_c, 1, 65, 127
1, 133979, Note_off_c, 1, 66, 0
1, 134040, Note_off_c, 1, 65, 0
1, 134280, Note_on_c, 1, 59, 127
1, 134280, Note_on_c, 1, 41, 127
1, 134339, Note_off_c, 1, 41, 0
1, 134400, Note_off_c, 1, 59, 0
1, 134460, Note_on_c, 1, 51, 127
1, 134490, Note_on_c, 1, 63, 127
1, 134519, Note_off_c, 1, 51, 0
1, 134519, Note_off_c, 1, 63, 0
1, 134520, Note_on_c, 1, 53, 127
1, 134579, Note_off_c, 1, 53, 0
1, 134640, Note_on_c, 1, 54, 127
1, 134699, Note_off_c, 1, 54, 0
1, 134790, Note_on_c, 1, 73, 127
1, 134819, Note_off_c, 1, 73, 0
1, 134820, Note_on_c, 1, 71, 127
1, 134820, Note_on_c, 1, 66, 127
1, 134820, Note_on_c, 1, 69, 127
1, 134820, Note_on_c, 1, 54, 127
1, 134849, Note_off_c, 1, 71, 0
1, 134879, Note_off_c, 1, 66, 0
1, 134879, Note_off_c, 1, 69, 0
1, 134879, Note_off_c, 1, 54, 0
1, 134880, Note_on_c, 1, 71, 127
1, 134880, Note_on_c, 1, 64, 127
1, 134880, Note_on_c, 1, 68, 127
1, 134880, Note_on_c, 1, 56, 127
1, 134909, Note_off_c, 1, 71, 0
1, 134910, Note_on_c, 1, 69, 127
1, 134939, Note_off_c, 1, 56, 0
1, 134939, Note_off_c, 1, 69, 0
1, 134940, Note_on_c, 1, 59, 127
1, 134970, Note_on_c, 1, 66, 127
1, 134999, Note_off_c, 1, 59, 0
1, 134999, Note_off_c, 1, 66, 0
1, 135060, Note_off_c, 1, 64, 0
1, 135060, Note_on_c, 1, 62, 127
1, 135060, Note_on_c, 1, 52, 127
1, 135119, Note_off_c, 1, 62, 0
1, 135119, Note_off_c, 1, 52, 0
1, 135120, Note_off_c, 1, 68, 0
1, 135120, Note_on_c, 1, 61, 127
1, 135120, Note_on_c, 1, 57, 127
1, 135179, Note_off_c, 1, 57, 0
1, 135180, Note_on_c, 1, 54, 127
1, 135239, Note_off_c, 1, 54, 0
1, 135240, Note_off_c, 1, 61, 0
1, 135240, Note_on_c, 1, 50, 127
1, 135299, Note_off_c, 1, 50, 0
1, 135360, Note_on_c, 1, 45, 127
1, 135419, Note_off_c, 1, 45, 0
1, 135510, Note_on_c, 1, 76, 127
1, 135539, Note_off_c, 1, 76, 0
1, 135540, Note_on_c, 1, 73, 127
1, 135540, Note_on_c, 1, 64, 127
1, 135540, Note_on_c, 1, 61, 127
1, 135540, Note_on_c, 1, 57, 127
1, 135569, Note_off_c, 1, 73, 0
1, 135570, Note_on_c, 1, 69, 127
1, 135599, Note_off_c, 1, 64, 0
1, 135599, Note_off_c, 1, 61, 0
1, 135599, Note_off_c, 1, 57, 0
1, 135599, Note_off_c, 1, 69, 0
1, 135600, Note_on_c, 1, 64, 127
1, 135600, Note_on_c, 1, 71, 127
1, 135600, Note_on_c, 1, 68, 127
1, 135600, Note_on_c, 1, 56, 127
1, 135629, Note_off_c, 1, 64, 0
1, 135629, Note_off_c, 1, 56, 0
1, 135660, Note_on_c, 1, 62, 127
1, 135689, Note_off_c, 1, 62, 0
1, 135690, Note_on_c, 1, 59, 127
1, 135719, Note_off_c, 1, 59, 0
1, 135720, Note_off_c, 1, 71, 0
1, 135720, Note_off_c, 1, 68, 0
1, 135720, Note_on_c, 1, 73, 127
1, 135720, Note_on_c, 1, 69, 127
1, 135720, Note_on_c, 1, 57, 127
1, 135749, Note_off_c, 1, 57, 0
1, 135780, Note_on_c, 1, 61, 127
1, 135809, Note_off_c, 1, 61, 0
1, 135840, Note_off_c, 1, 73, 0
1, 135840, Note_off_c, 1, 69, 0
1, 135960, Note_on_c, 1, 52, 127
1, 135990, Note_on_c, 1, 76, 127
1, 136019, Note_off_c, 1, 76, 0
1, 136050, Note_on_c, 1, 70, 127
1, 136079, Note_off_c, 1, 70, 0
1, 136080, Note_on_c, 1, 66, 127
1, 136109, Note_off_c, 1, 52, 0
1, 136200, Note_on_c, 1, 58, 127
1, 136229, Note_off_c, 1, 58, 0
1, 136320, Note_on_c, 1, 54, 127
1, 136349, Note_off_c, 1, 54, 0
1, 136455, Note_on_c, 1, 74, 127
1, 136469, Note_off_c, 1, 74, 0
1, 136560, Note_on_c, 1, 50, 127
1, 136590, Note_on_c, 1, 79, 127
1, 136619, Note_off_c, 1, 66, 0
1, 136619, Note_off_c, 1, 50, 0
1, 136619, Note_off_c, 1, 79, 0
1, 136620, Note_on_c, 1, 78, 127
1, 136620, Note_on_c, 1, 67, 127
1, 136620, Note_on_c, 1, 62, 127
1, 136620, Note_on_c, 1, 55, 127
1, 136649, Note_off_c, 1, 78, 0
1, 136650, Note_on_c, 1, 76, 127
1, 136679, Note_off_c, 1, 67, 0
1, 136679, Note_off_c, 1, 62, 0
1, 136679, Note_off_c, 1, 55, 0
1, 136679, Note_off_c, 1, 76, 0
1, 136680, Note_on_c, 1, 78, 127
1, 136680, Note_on_c, 1, 71, 127
1, 136680, Note_on_c, 1, 61, 127
1, 136680, Note_on_c, 1, 52, 127
1, 136709, Note_off_c, 1, 78, 0
1, 136710, Note_on_c, 1, 76, 127
1, 136739, Note_off_c, 1, 71, 0
1, 136739, Note_off_c, 1, 61, 0
1, 136739, Note_off_c, 1, 52, 0
1, 136739, Note_off_c, 1, 76, 0
1, 136740, Note_on_c, 1, 74, 127
1, 136740, Note_on_c, 1, 70, 127
1, 136740, Note_on_c, 1, 61, 127
1, 136740, Note_on_c, 1, 54, 127
1, 136769, Note_off_c, 1, 74, 0
1, 136770, Note_on_c, 1, 73, 127
1, 136799, Note_off_c, 1, 70, 0
1, 136799, Note_off_c, 1, 61, 0
1, 136799, Note_off_c, 1, 54, 0
1, 136799, Note_off_c, 1, 73, 0
1, 136800, Note_on_c, 1, 74, 127
1, 136800, Note_on_c, 1, 71, 127
1, 136800, Note_on_c, 1, 66, 127
1, 136800, Note_on_c, 1, 62, 127
1, 136800, Note_on_c, 1, 47, 127
1, 136814, Note_off_c, 1, 74, 0
1, 136815, Note_on_c, 1, 73, 127
1, 136829, Note_off_c, 1, 73, 0
1, 136859, Note_off_c, 1, 47, 0
1, 136860, Note_on_c, 1, 50, 127
1, 136919, Note_off_c, 1, 50, 0
1, 136920, Note_off_c, 1, 66, 0
1, 136920, Note_off_c, 1, 62, 0
1, 136920, Note_on_c, 1, 49, 127
1, 136949, Note_off_c, 1, 71, 0
1, 136950, Note_on_c, 1, 70, 127
1, 136979, Note_off_c, 1, 49, 0
1, 136979, Note_off_c, 1, 70, 0
1, 136980, Note_on_c, 1, 73, 127
1, 136980, Note_on_c, 1, 46, 127
1, 137009, Note_off_c, 1, 73, 0
1, 137010, Note_on_c, 1, 76, 127
1, 137039, Note_off_c, 1, 46, 0
1, 137039, Note_off_c, 1, 76, 0
1, 137040, Note_on_c, 1, 74, 127
1, 137040, Note_on_c, 1, 66, 127
1, 137040, Note_on_c, 1, 62, 127
1, 137040, Note_on_c, 1, 47, 127
1, 137069, Note_off_c, 1, 74, 0
1, 137070, Note_on_c, 1, 71, 127
1, 137099, Note_off_c, 1, 47, 0
1, 137099, Note_off_c, 1, 71, 0
1, 137100, Note_on_c, 1, 42, 127
1, 137130, Note_on_c, 1, 78, 127
1, 137159, Note_off_c, 1, 42, 0
1, 137159, Note_off_c, 1, 78, 0
1, 137160, Note_off_c, 1, 62, 0
1, 137160, Note_on_c, 1, 73, 127
1, 137160, Note_on_c, 1, 70, 127
1, 137160, Note_on_c, 1, 46, 127
1, 137189, Note_off_c, 1, 73, 0
1, 137219, Note_off_c, 1, 46, 0
1, 137250, Note_on_c, 1, 76, 127
1, 137279, Note_off_c, 1, 76, 0
1, 137280, Note_off_c, 1, 66, 0
1, 137280, Note_off_c, 1, 70, 0
1, 137340, Note_on_c, 1, 50, 127
1, 137369, Note_off_c, 1, 50, 0
1, 137370, Note_on_c, 1, 49, 127
1, 137399, Note_off_c, 1, 49, 0
1, 137460, Note_on_c, 1, 71, 127
1, 137460, Note_on_c, 1, 45, 127
1, 137489, Note_off_c, 1, 71, 0
1, 137490, Note_on_c, 1, 73, 127
1, 137519, Note_off_c, 1, 45, 0
1, 137519, Note_off_c, 1, 73, 0
1, 137520, Note_on_c, 1, 74, 127
1, 137520, Note_on_c, 1, 66, 127
1, 137520, Note_on_c, 1, 44, 127
1, 137549, Note_off_c, 1, 74, 0
1, 137550, Note_on_c, 1, 73, 127
1, 137579, Note_off_c, 1, 44, 0
1, 137579, Note_off_c, 1, 73, 0
1, 137580, Note_on_c, 1, 71, 127
1, 137580, Note_on_c, 1, 45, 127
1, 137609, Note_off_c, 1, 71, 0
1, 137610, Note_on_c, 1, 69, 127
1, 137639, Note_off_c, 1, 45, 0
1, 137639, Note_off_c, 1, 69, 0
1, 137640, Note_on_c, 1, 68, 127
1, 137640, Note_on_c, 1, 47, 127
1, 137699, Note_off_c, 1, 47, 0
1, 137700, Note_on_c, 1, 78, 127
1, 137760, Note_off_c, 1, 66, 0
1, 137760, Note_off_c, 1, 68, 0
1, 137760, Note_on_c, 1, 65, 127
1, 137760, Note_on_c, 1, 49, 127
1, 137789, Note_off_c, 1, 78, 0
1, 137790, Note_on_c, 1, 77, 127
1, 137819, Note_off_c, 1, 49, 0
1, 137819, Note_off_c, 1, 77, 0
1, 137820, Note_on_c, 1, 51, 127
1, 137850, Note_on_c, 1, 80, 127
1, 137879, Note_off_c, 1, 51, 0
1, 137879, Note_off_c, 1, 80, 0
1, 137880, Note_off_c, 1, 65, 0
1, 137880, Note_on_c, 1, 59, 127
1, 137880, Note_on_c, 1, 53, 127
1, 137939, Note_off_c, 1, 53, 0
1, 138000, Note_off_c, 1, 59, 0
1, 138000, Note_on_c, 1, 54, 127
1, 138059, Note_off_c, 1, 54, 0
1, 138240, Note_on_c, 1, 61, 127
1, 138240, Note_on_c, 1, 42, 127
1, 138479, Note_off_c, 1, 61, 0
1, 138479, Note_off_c, 1, 42, 0
1, 138720, Note_on_c, 1, 68, 127
1, 138720, Note_on_c, 1, 59, 127
1, 138720, Note_on_c, 1, 64, 127
1, 138720, Note_on_c, 1, 44, 127
1, 138900, Note_on_c, 1, 69, 127
1, 138959, Note_off_c, 1, 69, 0
1, 138960, Note_on_c, 1, 71, 127
1, 139019, Note_off_c, 1, 71, 0
1, 139080, Note_on_c, 1, 76, 127
1, 139139, Note_off_c, 1, 76, 0
1, 139199, Note_off_c, 1, 68, 0
1, 139199, Note_off_c, 1, 59, 0
1, 139199, Note_off_c, 1, 44, 0
1, 139200, Note_on_c, 1, 73, 127
1, 139200, Note_on_c, 1, 61, 127
1, 139200, Note_on_c, 1, 45, 127
1, 139259, Note_off_c, 1, 73, 0
1, 139439, Note_off_c, 1, 45, 0
1, 139440, Note_off_c, 1, 64, 0
1, 139440, Note_off_c, 1, 61, 0
1, 139440, Note_on_c, 1, 81, 127
1, 139440, Note_on_c, 1, 66, 127
1, 139440, Note_on_c, 1, 48, 127
1, 139499, Note_off_c, 1, 81, 0
1, 139500, Note_on_c, 1, 80, 127
1, 139559, Note_off_c, 1, 80, 0
1, 139620, Note_on_c, 1, 75, 127
1, 139649, Note_off_c, 1, 75, 0
1, 139679, Note_off_c, 1, 48, 0
1, 139680, Note_off_c, 1, 66, 0
1, 139680, Note_on_c, 1, 49, 127
1, 139799, Note_off_c, 1, 49, 0
1, 139800, Note_on_c, 1, 54, 127
1, 139919, Note_off_c, 1, 54, 0
1, 139920, Note_on_c, 1, 72, 127
1, 139920, Note_on_c, 1, 63, 127
1, 139920, Note_on_c, 1, 66, 127
1, 139920, Note_on_c, 1, 45, 127
1, 140010, Note_on_c, 1, 76, 127
1, 140039, Note_off_c, 1, 72, 0
1, 140039, Note_off_c, 1, 63, 0
1, 140039, Note_off_c, 1, 66, 0
1, 140039, Note_off_c, 1, 45, 0
1, 140039, Note_off_c, 1, 76, 0
1, 140040, Note_on_c, 1, 73, 127
1, 140040, Note_on_c, 1, 64, 127
1, 140040, Note_on_c, 1, 61, 127
1, 140040, Note_on_c, 1, 44, 127
1, 140100, Note_off_c, 1, 64, 0
1, 140100, Note_off_c, 1, 61, 0
1, 140100, Note_on_c, 1, 63, 127
1, 140100, Note_on_c, 1, 60, 127
1, 140159, Note_off_c, 1, 44, 0
1, 140160, Note_off_c, 1, 73, 0
1, 140160, Note_off_c, 1, 63, 0
1, 140160, Note_off_c, 1, 60, 0
1, 140160, Note_on_c, 1, 68, 127
1, 140160, Note_on_c, 1, 49, 127
1, 140640, Note_off_c, 1, 68, 0
1, 140640, Note_off_c, 1, 49, 0
1, 140640, Note_on_c, 1, 70, 127
1, 140640, Note_on_c, 1, 66, 127
1, 140640, Note_on_c, 1, 52, 127
1, 140715, Note_on_c, 1, 78, 127
1, 140727, Note_off_c, 1, 78, 0
1, 141600, Note_off_c, 1, 70, 0
1, 141600, Note_off_c, 1, 52, 0
1, 141600, Note_on_c, 1, 71, 127
1, 141600, Note_on_c, 1, 51, 127
1, 141675, Note_on_c, 1, 75, 127
1, 141687, Note_off_c, 1, 75, 0
1, 141840, Note_off_c, 1, 71, 0
1, 141840, Note_on_c, 1, 69, 127
1, 141915, Note_on_c, 1, 83, 127
1, 141927, Note_off_c, 1, 83, 0
1, 142080, Note_off_c, 1, 69, 0
1, 142290, Note_on_c, 1, 59, 127
1, 142319, Note_off_c, 1, 59, 0
1, 142560, Note_off_c, 1, 66, 0
1, 142560, Note_off_c, 1, 51, 0
1, 142590, Note_on_c, 1, 80, 127
1, 142590, Note_on_c, 1, 76, 127
1, 142614, Note_off_c, 1, 80, 0
1, 142614, Note_off_c, 1, 76, 0
1, 142635, Note_on_c, 1, 81, 127
1, 142650, Note_off_c, 1, 81, 0
1, 142980, Note_on_c, 1, 74, 127
1, 143039, Note_off_c, 1, 74, 0
1, 143040, Note_on_c, 1, 45, 127
1, 143400, Note_off_c, 1, 45, 0
1, 143580, Note_on_c, 1, 80, 127
1, 143580, Note_on_c, 1, 76, 127
1, 143580, Note_on_c, 1, 71, 127
1, 143580, Note_on_c, 1, 64, 127
1, 143595, Note_off_c, 1, 80, 0
1, 143595, Note_off_c, 1, 76, 0
1, 143595, Note_off_c, 1, 71, 0
1, 143595, Note_on_c, 1, 78, 127
1, 143595, Note_on_c, 1, 75, 127
1, 143595, Note_on_c, 1, 69, 127
1, 143610, Note_off_c, 1, 78, 0
1, 143610, Note_off_c, 1, 75, 0
1, 143610, Note_off_c, 1, 69, 0
1, 143639, Note_off_c, 1, 64, 0
1, 143640, Note_on_c, 1, 81, 127
1, 143640, Note_on_c, 1, 78, 127
1, 143640, Note_on_c, 1, 63, 127
1, 143640, Note_on_c, 1, 69, 127
1, 143640, Note_on_c, 1, 66, 127
1, 143640, Note_on_c, 1, 47, 127
1, 143664, Note_off_c, 1, 81, 0
1, 143664, Note_off_c, 1, 78, 0
1, 143670, Note_on_c, 1, 75, 127
1, 143670, Note_on_c, 1, 71, 127
1, 143694, Note_off_c, 1, 75, 0
1, 143694, Note_off_c, 1, 71, 0
1, 143715, Note_on_c, 1, 73, 127
1, 143715, Note_on_c, 1, 64, 127
1, 143730, Note_off_c, 1, 73, 0
1, 143730, Note_off_c, 1, 64, 0
1, 143760, Note_off_c, 1, 63, 0
1, 143760, Note_off_c, 1, 69, 0
1, 143760, Note_off_c, 1, 66, 0
1, 143760, Note_off_c, 1, 47, 0
1, 143760, Note_on_c, 1, 76, 127
1, 143760, Note_on_c, 1, 68, 127
1, 143760, Note_on_c, 1, 40, 127
1, 143880, Note_off_c, 1, 76, 0
1, 144239, Note_off_c, 1, 68, 0
1, 144239, Note_off_c, 1, 40, 0
1, 144240, Note_on_c, 1, 74, 127
1, 144240, Note_on_c, 1, 62, 127
1, 144240, Note_on_c, 1, 66, 127
1, 144240, Note_on_c, 1, 42, 127
1, 144299, Note_off_c, 1, 74, 0
1, 144360, Note_on_c, 1, 78, 127
1, 144419, Note_off_c, 1, 78, 0
1, 144479, Note_off_c, 1, 62, 0
1, 144479, Note_off_c, 1, 66, 0
1, 144479, Note_off_c, 1, 42, 0
1, 144480, Note_on_c, 1, 71, 127
1, 144480, Note_on_c, 1, 64, 127
1, 144480, Note_on_c, 1, 59, 127
1, 144480, Note_on_c, 1, 68, 127
1, 144480, Note_on_c, 1, 44, 127
1, 144539, Note_off_c, 1, 71, 0
1, 144600, Note_on_c, 1, 76, 127
1, 144659, Note_off_c, 1, 76, 0
1, 144840, Note_off_c, 1, 64, 0
1, 144840, Note_on_c, 1, 74, 127
1, 144840, Note_on_c, 1, 62, 127
1, 144899, Note_off_c, 1, 74, 0
1, 144930, Note_on_c, 1, 73, 127
1, 144959, Note_off_c, 1, 59, 0
1, 144959, Note_off_c, 1, 68, 0
1, 144959, Note_off_c, 1, 44, 0
1, 144959, Note_off_c, 1, 73, 0
1, 144960, Note_off_c, 1, 62, 0
1, 144960, Note_on_c, 1, 61, 127
1, 144960, Note_on_c, 1, 45, 127
1, 145140, Note_on_c, 1, 69, 127
1, 145169, Note_off_c, 1, 69, 0
1, 145679, Note_off_c, 1, 61, 0
1, 145679, Note_off_c, 1, 45, 0
1, 145680, Note_on_c, 1, 79, 127
1, 145680, Note_on_c, 1, 62, 127
1, 145680, Note_on_c, 1, 67, 127
1, 145680, Note_on_c, 1, 47, 127
1, 145799, Note_off_c, 1, 79, 0
1, 145919, Note_off_c, 1, 62, 0
1, 145919, Note_off_c, 1, 47, 0
1, 145920, Note_on_c, 1, 76, 127
1, 145920, Note_on_c, 1, 69, 127
1, 145920, Note_on_c, 1, 61, 127
1, 145920, Note_on_c, 1, 49, 127
1, 145979, Note_off_c, 1, 76, 0
1, 146040, Note_on_c, 1, 81, 127
1, 146099, Note_off_c, 1, 81, 0
1, 146159, Note_off_c, 1, 69, 0
1, 146159, Note_off_c, 1, 61, 0
1, 146159, Note_off_c, 1, 49, 0
1, 146160, Note_off_c, 1, 67, 0
1, 146160, Note_on_c, 1, 78, 127
1, 146160, Note_on_c, 1, 66, 127
1, 146160, Note_on_c, 1, 50, 127
1, 146219, Note_off_c, 1, 78, 0
1, 146340, Note_on_c, 1, 74, 127
1, 146369, Note_off_c, 1, 74, 0
1, 146639, Note_off_c, 1, 66, 0
1, 146639, Note_off_c, 1, 50, 0
1, 146640, Note_on_c, 1, 72, 127
1, 146640, Note_on_c, 1, 67, 127
1, 146640, Note_on_c, 1, 60, 127
1, 146640, Note_on_c, 1, 52, 127
1, 146699, Note_off_c, 1, 72, 0
1, 147000, Note_on_c, 1, 76, 127
1, 147059, Note_off_c, 1, 76, 0
1, 147119, Note_off_c, 1, 67, 0
1, 147119, Note_off_c, 1, 60, 0
1, 147119, Note_off_c, 1, 52, 0
1, 147120, Note_on_c, 1, 69, 127
1, 147120, Note_on_c, 1, 64, 127
1, 147120, Note_on_c, 1, 60, 127
1, 147120, Note_on_c, 1, 54, 127
1, 147179, Note_off_c, 1, 69, 0
1, 147360, Note_off_c, 1, 64, 0
1, 147360, Note_on_c, 1, 75, 127
1, 147360, Note_on_c, 1, 63, 127
1, 147419, Note_off_c, 1, 75, 0
1, 147570, Note_on_c, 1, 76, 127
1, 147599, Note_off_c, 1, 60, 0
1, 147599, Note_off_c, 1, 54, 0
1, 147599, Note_off_c, 1, 76, 0
1, 147600, Note_off_c, 1, 63, 0
1, 147600, Note_on_c, 1, 78, 127
1, 147600, Note_on_c, 1, 59, 127
1, 147600, Note_on_c, 1, 51, 127
1, 147659, Note_off_c, 1, 78, 0
1, 147780, Note_on_c, 1, 71, 127
1, 147839, Note_off_c, 1, 51, 0
1, 147839, Note_off_c, 1, 71, 0
1, 147840, Note_off_c, 1, 59, 0
1, 147840, Note_on_c, 1, 79, 127
1, 147840, Note_on_c, 1, 67, 127
1, 147840, Note_on_c, 1, 52, 127
1, 147899, Note_off_c, 1, 79, 0
1, 147899, Note_off_c, 1, 52, 0
1, 148080, Note_on_c, 1, 55, 127
1, 148139, Note_off_c, 1, 55, 0
1, 148260, Note_on_c, 1, 57, 127
1, 148319, Note_off_c, 1, 57, 0
1, 148320, Note_off_c, 1, 67, 0
1, 148380, Note_on_c, 1, 62, 127
1, 148380, Note_on_c, 1, 47, 127
1, 148410, Note_on_c, 1, 74, 127
1, 148439, Note_off_c, 1, 62, 0
1, 148439, Note_off_c, 1, 47, 0
1, 148439, Note_off_c, 1, 74, 0
1, 148440, Note_on_c, 1, 48, 127
1, 148499, Note_off_c, 1, 48, 0
1, 148500, Note_on_c, 1, 66, 127
1, 148500, Note_on_c, 1, 50, 127
1, 148559, Note_off_c, 1, 66, 0
1, 148559, Note_off_c, 1, 50, 0
1, 148680, Note_on_c, 1, 72, 127
1, 148739, Note_off_c, 1, 72, 0
1, 148860, Note_on_c, 1, 43, 127
1, 148919, Note_off_c, 1, 43, 0
1, 148920, Note_on_c, 1, 45, 127
1, 148979, Note_off_c, 1, 45, 0
1, 149760, Note_on_c, 1, 58, 127
1, 149819, Note_off_c, 1, 58, 0
1, 149850, Note_on_c, 1, 73, 127
1, 149879, Note_off_c, 1, 73, 0
1, 150120, Note_on_c, 1, 61, 127
1, 150300, Note_on_c, 1, 49, 127
1, 150359, Note_off_c, 1, 49, 0
1, 150360, Note_off_c, 1, 61, 0
1, 150480, Note_on_c, 1, 68, 127
1, 150509, Note_off_c, 1, 68, 0
1, 150720, Note_on_c, 1, 70, 127
1, 150899, Note_off_c, 1, 70, 0
1, 150960, Note_on_c, 1, 71, 127
1, 150960, Note_on_c, 1, 62, 127
1, 150960, Note_on_c, 1, 55, 127
1, 151019, Note_off_c, 1, 71, 0
1, 151019, Note_off_c, 1, 55, 0
1, 151020, Note_on_c, 1, 70, 127
1, 151020, Note_on_c, 1, 54, 127
1, 151079, Note_off_c, 1, 70, 0
1, 151079, Note_off_c, 1, 54, 0
1, 151080, Note_off_c, 1, 62, 0
1, 151080, Note_on_c, 1, 67, 127
1, 151080, Note_on_c, 1, 64, 127
1, 151080, Note_on_c, 1, 52, 127
1, 151110, Note_off_c, 1, 67, 0
1, 151110, Note_on_c, 1, 66, 127
1, 151139, Note_off_c, 1, 52, 0
1, 151140, Note_off_c, 1, 66, 0
1, 151140, Note_on_c, 1, 50, 127
1, 151170, Note_on_c, 1, 69, 127
1, 151199, Note_off_c, 1, 50, 0
1, 151200, Note_off_c, 1, 69, 0
1, 151200, Note_on_c, 1, 49, 127
1, 151259, Note_off_c, 1, 49, 0
1, 151320, Note_off_c, 1, 64, 0
1, 151320, Note_on_c, 1, 76, 127
1, 151379, Note_off_c, 1, 76, 0
1, 151380, Note_on_c, 1, 78, 127
1, 151380, Note_on_c, 1, 47, 127
1, 151439, Note_off_c, 1, 78, 0
1, 151439, Note_off_c, 1, 47, 0
1, 151440, Note_on_c, 1, 79, 127
1, 151440, Note_on_c, 1, 46, 127
1, 151499, Note_off_c, 1, 79, 0
1, 151619, Note_off_c, 1, 46, 0
1, 151680, Note_on_c, 1, 42, 127
1, 151739, Note_off_c, 1, 42, 0
1, 151740, Note_on_c, 1, 74, 127
1, 151740, Note_on_c, 1, 61, 127
1, 151769, Note_off_c, 1, 74, 0
1, 151770, Note_on_c, 1, 73, 127
1, 151799, Note_off_c, 1, 61, 0
1, 151799, Note_off_c, 1, 73, 0
1, 152220, Note_on_c, 1, 59, 127
1, 152279, Note_off_c, 1, 59, 0
1, 152280, Note_on_c, 1, 57, 127
1, 152339, Note_off_c, 1, 57, 0
1, 152400, Note_on_c, 1, 43, 127
1, 152459, Note_off_c, 1, 43, 0
1, 152760, Note_on_c, 1, 58, 127
1, 152880, Note_off_c, 1, 58, 0
1, 153240, Note_on_c, 1, 74, 127
1, 153240, Note_on_c, 1, 62, 127
1, 153240, Note_on_c, 1, 66, 127
1, 153240, Note_on_c, 1, 71, 127
1, 153240, Note_on_c, 1, 47, 127
1, 153299, Note_off_c, 1, 74, 0
1, 153299, Note_off_c, 1, 62, 0
1, 153299, Note_off_c, 1, 66, 0
1, 153299, Note_off_c, 1, 71, 0
1, 153299, Note_off_c, 1, 47, 0
1, 153300, Note_on_c, 1, 73, 127
1, 153360, Note_on_c, 1, 70, 127
1, 153360, Note_on_c, 1, 64, 127
1, 153360, Note_on_c, 1, 49, 127
1, 153419, Note_off_c, 1, 73, 0
1, 153419, Note_off_c, 1, 70, 0
1, 153419, Note_off_c, 1, 64, 0
1, 153419, Note_off_c, 1, 49, 0
1, 153420, Note_on_c, 1, 71, 127
1, 153479, Note_off_c, 1, 71, 0
1, 153480, Note_on_c, 1, 78, 127
1, 153480, Note_on_c, 1, 71, 127
1, 153480, Note_on_c, 1, 66, 127
1, 153480, Note_on_c, 1, 62, 127
1, 153480, Note_on_c, 1, 50, 127
1, 153539, Note_off_c, 1, 78, 0
1, 153539, Note_off_c, 1, 71, 0
1, 153539, Note_off_c, 1, 66, 0
1, 153539, Note_off_c, 1, 62, 0
1, 153539, Note_off_c, 1, 50, 0
1, 153540, Note_on_c, 1, 79, 127
1, 153600, Note_on_c, 1, 71, 127
1, 153600, Note_on_c, 1, 62, 127
1, 153600, Note_on_c, 1, 67, 127
1, 153600, Note_on_c, 1, 52, 127
1, 153659, Note_off_c, 1, 79, 0
1, 153659, Note_off_c, 1, 71, 0
1, 153659, Note_off_c, 1, 62, 0
1, 153659, Note_off_c, 1, 67, 0
1, 153659, Note_off_c, 1, 52, 0
1, 153660, Note_on_c, 1, 71, 127
1, 153719, Note_off_c, 1, 71, 0
1, 153720, Note_on_c, 1, 70, 127
1, 153720, Note_on_c, 1, 73, 127
1, 153720, Note_on_c, 1, 66, 127
1, 153720, Note_on_c, 1, 54, 127
1, 153750, Note_on_c, 1, 71, 127
1, 153779, Note_off_c, 1, 70, 0
1, 153779, Note_off_c, 1, 73, 0
1, 153779, Note_off_c, 1, 66, 0
1, 153779, Note_off_c, 1, 54, 0
1, 153779, Note_off_c, 1, 71, 0
1, 153780, Note_on_c, 1, 73, 127
1, 153780, Note_on_c, 1, 76, 127
1, 153780, Note_on_c, 1, 47, 127
1, 153809, Note_off_c, 1, 73, 0
1, 153810, Note_off_c, 1, 76, 0
1, 153810, Note_on_c, 1, 74, 127
1, 153839, Note_off_c, 1, 47, 0
1, 153840, Note_off_c, 1, 74, 0
1, 153840, Note_on_c, 1, 66, 127
1, 153840, Note_on_c, 1, 70, 127
1, 153840, Note_on_c, 1, 64, 127
1, 153840, Note_on_c, 1, 46, 127
1, 153899, Note_off_c, 1, 66, 0
1, 153899, Note_off_c, 1, 70, 0
1, 153899, Note_off_c, 1, 64, 0
1, 153899, Note_off_c, 1, 46, 0
1, 153900, Note_on_c, 1, 74, 127
1, 153900, Note_on_c, 1, 62, 127
1, 153900, Note_on_c, 1, 66, 127
1, 153900, Note_on_c, 1, 71, 127
1, 153900, Note_on_c, 1, 47, 127
1, 153929, Note_off_c, 1, 74, 0
1, 153959, Note_off_c, 1, 62, 0
1, 153959, Note_off_c, 1, 66, 0
1, 153959, Note_off_c, 1, 71, 0
1, 153959, Note_off_c, 1, 47, 0
1, 153960, Note_on_c, 1, 76, 127
1, 153960, Note_on_c, 1, 62, 127
1, 153960, Note_on_c, 1, 59, 127
1, 153960, Note_on_c, 1, 71, 127
1, 153960, Note_on_c, 1, 42, 127
1, 153969, Note_off_c, 1, 76, 0
1, 153970, Note_on_c, 1, 74, 127
1, 153979, Note_off_c, 1, 74, 0
1, 154019, Note_off_c, 1, 62, 0
1, 154019, Note_off_c, 1, 59, 0
1, 154019, Note_off_c, 1, 71, 0
1, 154019, Note_off_c, 1, 42, 0
1, 154020, Note_on_c, 1, 73, 127
1, 154020, Note_on_c, 1, 61, 127
1, 154020, Note_on_c, 1, 70, 127
1, 154020, Note_on_c, 1, 54, 127
1, 154049, Note_off_c, 1, 54, 0
1, 154050, Note_on_c, 1, 56, 127
1, 154079, Note_off_c, 1, 61, 0
1, 154079, Note_off_c, 1, 70, 0
1, 154079, Note_off_c, 1, 56, 0
1, 154080, Note_on_c, 1, 66, 127
1, 154080, Note_on_c, 1, 58, 127
1, 154109, Note_off_c, 1, 73, 0
1, 154110, Note_on_c, 1, 76, 127
1, 154139, Note_off_c, 1, 66, 0
1, 154139, Note_off_c, 1, 58, 0
1, 154139, Note_off_c, 1, 76, 0
1, 154140, Note_on_c, 1, 74, 127
1, 154140, Note_on_c, 1, 70, 127
1, 154140, Note_on_c, 1, 64, 127
1, 154140, Note_on_c, 1, 54, 127
1, 154169, Note_off_c, 1, 74, 0
1, 154170, Note_on_c, 1, 73, 127
1, 154199, Note_off_c, 1, 70, 0
1, 154199, Note_off_c, 1, 64, 0
1, 154199, Note_off_c, 1, 54, 0
1, 154199, Note_off_c, 1, 73, 0
1, 154200, Note_on_c, 1, 74, 127
1, 154200, Note_on_c, 1, 62, 127
1, 154200, Note_on_c, 1, 59, 127
1, 154200, Note_on_c, 1, 66, 127
1, 154229, Note_off_c, 1, 74, 0
1, 154259, Note_off_c, 1, 62, 0
1, 154260, Note_on_c, 1, 64, 127
1, 154260, Note_on_c, 1, 61, 127
1, 154319, Note_off_c, 1, 64, 0
1, 154319, Note_off_c, 1, 61, 0
1, 154320, Note_on_c, 1, 71, 127
1, 154349, Note_off_c, 1, 59, 0
1, 154379, Note_off_c, 1, 66, 0
1, 154500, Note_off_c, 1, 71, 0
1, 154500, Note_on_c, 1, 69, 127
1, 154530, Note_off_c, 1, 69, 0
1, 154530, Note_on_c, 1, 67, 127
1, 154560, Note_off_c, 1, 67, 0
1, 154620, Note_on_c, 1, 57, 127
1, 154679, Note_off_c, 1, 57, 0
1, 154680, Note_on_c, 1, 56, 127
1, 154710, Note_on_c, 1, 68, 127
1, 154739, Note_off_c, 1, 56, 0
1, 154739, Note_off_c, 1, 68, 0
1, 154740, Note_on_c, 1, 71, 127
1, 154769, Note_off_c, 1, 71, 0
1, 154770, Note_on_c, 1, 74, 127
1, 154799, Note_off_c, 1, 74, 0
1, 154800, Note_on_c, 1, 80, 127
1, 154800, Note_on_c, 1, 68, 127
1, 154800, Note_on_c, 1, 62, 127
1, 154800, Note_on_c, 1, 59, 127
1, 154829, Note_off_c, 1, 80, 0
1, 154830, Note_on_c, 1, 83, 127
1, 154859, Note_off_c, 1, 68, 0
1, 154859, Note_off_c, 1, 62, 0
1, 154859, Note_off_c, 1, 59, 0
1, 154859, Note_off_c, 1, 83, 0
1, 154860, Note_on_c, 1, 80, 127
1, 154889, Note_off_c, 1, 80, 0
1, 154890, Note_on_c, 1, 74, 127
1, 154919, Note_off_c, 1, 74, 0
1, 154920, Note_on_c, 1, 71, 127
1, 154920, Note_on_c, 1, 64, 127
1, 154920, Note_on_c, 1, 68, 127
1, 154920, Note_on_c, 1, 74, 127
1, 154920, Note_on_c, 1, 56, 127
1, 154949, Note_off_c, 1, 71, 0
1, 154979, Note_off_c, 1, 64, 0
1, 154979, Note_off_c, 1, 68, 0
1, 154979, Note_off_c, 1, 74, 0
1, 154979, Note_off_c, 1, 56, 0
1, 154980, Note_on_c, 1, 64, 127
1, 155009, Note_off_c, 1, 64, 0
1, 155010, Note_on_c, 1, 68, 127
1, 155039, Note_off_c, 1, 68, 0
1, 155040, Note_on_c, 1, 71, 127
1, 155040, Note_on_c, 1, 68, 127
1, 155040, Note_on_c, 1, 62, 127
1, 155040, Note_on_c, 1, 52, 127
1, 155069, Note_off_c, 1, 71, 0
1, 155070, Note_on_c, 1, 74, 127
1, 155099, Note_off_c, 1, 68, 0
1, 155099, Note_off_c, 1, 62, 0
1, 155099, Note_off_c, 1, 52, 0
1, 155099, Note_off_c, 1, 74, 0
1, 155100, Note_on_c, 1, 73, 127
1, 155129, Note_off_c, 1, 73, 0
1, 155130, Note_on_c, 1, 71, 127
1, 155159, Note_off_c, 1, 71, 0
1, 155160, Note_on_c, 1, 73, 127
1, 155160, Note_on_c, 1, 61, 127
1, 155160, Note_on_c, 1, 57, 127
1, 155190, Note_on_c, 1, 64, 127
1, 155219, Note_off_c, 1, 73, 0
1, 155219, Note_off_c, 1, 61, 0
1, 155219, Note_off_c, 1, 57, 0
1, 155219, Note_off_c, 1, 64, 0
1, 155220, Note_on_c, 1, 62, 127
1, 155220, Note_on_c, 1, 71, 127
1, 155220, Note_on_c, 1, 59, 127
1, 155250, Note_on_c, 1, 64, 127
1, 155279, Note_off_c, 1, 62, 0
1, 155279, Note_off_c, 1, 71, 0
1, 155279, Note_off_c, 1, 59, 0
1, 155279, Note_off_c, 1, 64, 0
1, 155280, Note_on_c, 1, 57, 127
1, 155280, Note_on_c, 1, 69, 127
1, 155280, Note_on_c, 1, 64, 127
1, 155280, Note_on_c, 1, 61, 127
1, 155309, Note_off_c, 1, 57, 0
1, 155339, Note_off_c, 1, 69, 0
1, 155339, Note_off_c, 1, 64, 0
1, 155339, Note_off_c, 1, 61, 0
1, 155340, Note_on_c, 1, 73, 127
1, 155340, Note_on_c, 1, 71, 127
1, 155340, Note_on_c, 1, 62, 127
1, 155340, Note_on_c, 1, 59, 127
1, 155369, Note_off_c, 1, 73, 0
1, 155370, Note_on_c, 1, 64, 127
1, 155399, Note_off_c, 1, 71, 0
1, 155399, Note_off_c, 1, 62, 0
1, 155399, Note_off_c, 1, 59, 0
1, 155399, Note_off_c, 1, 64, 0
1, 155400, Note_on_c, 1, 73, 127
1, 155400, Note_on_c, 1, 61, 127
1, 155400, Note_on_c, 1, 57, 127
1, 155430, Note_on_c, 1, 64, 127
1, 155459, Note_off_c, 1, 73, 0
1, 155459, Note_off_c, 1, 61, 0
1, 155459, Note_off_c, 1, 57, 0
1, 155459, Note_off_c, 1, 64, 0
1, 155460, Note_on_c, 1, 62, 127
1, 155460, Note_on_c, 1, 71, 127
1, 155460, Note_on_c, 1, 59, 127
1, 155490, Note_on_c, 1, 64, 127
1, 155519, Note_off_c, 1, 62, 0
1, 155519, Note_off_c, 1, 71, 0
1, 155519, Note_off_c, 1, 59, 0
1, 155519, Note_off_c, 1, 64, 0
1, 155520, Note_on_c, 1, 57, 127
1, 155520, Note_on_c, 1, 73, 127
1, 155520, Note_on_c, 1, 64, 127
1, 155579, Note_off_c, 1, 57, 0
1, 155579, Note_off_c, 1, 73, 0
1, 155579, Note_off_c, 1, 64, 0
1, 155580, Note_on_c, 1, 73, 127
1, 155580, Note_on_c, 1, 74, 127
1, 155580, Note_on_c, 1, 62, 127
1, 155580, Note_on_c, 1, 55, 127
1, 155609, Note_off_c, 1, 73, 0
1, 155610, Note_on_c, 1, 64, 127
1, 155639, Note_off_c, 1, 74, 0
1, 155639, Note_off_c, 1, 62, 0
1, 155639, Note_off_c, 1, 55, 0
1, 155639, Note_off_c, 1, 64, 0
1, 155640, Note_on_c, 1, 62, 127
1, 155640, Note_on_c, 1, 72, 127
1, 155640, Note_on_c, 1, 54, 127
1, 155670, Note_on_c, 1, 66, 127
1, 155699, Note_off_c, 1, 62, 0
1, 155699, Note_off_c, 1, 72, 0
1, 155699, Note_off_c, 1, 54, 0
1, 155699, Note_off_c, 1, 66, 0
1, 155700, Note_on_c, 1, 69, 127
1, 155729, Note_off_c, 1, 69, 0
1, 155730, Note_on_c, 1, 72, 127
1, 155759, Note_off_c, 1, 72, 0
1, 155760, Note_on_c, 1, 78, 127
1, 155760, Note_on_c, 1, 60, 127
1, 155760, Note_on_c, 1, 66, 127
1, 155760, Note_on_c, 1, 57, 127
1, 155789, Note_off_c, 1, 78, 0
1, 155790, Note_on_c, 1, 81, 127
1, 155819, Note_off_c, 1, 60, 0
1, 155819, Note_off_c, 1, 66, 0
1, 155819, Note_off_c, 1, 57, 0
1, 155819, Note_off_c, 1, 81, 0
1, 155820, Note_on_c, 1, 78, 127
1, 155849, Note_off_c, 1, 78, 0
1, 155850, Note_on_c, 1, 72, 127
1, 155879, Note_off_c, 1, 72, 0
1, 155880, Note_on_c, 1, 69, 127
1, 155880, Note_on_c, 1, 62, 127
1, 155880, Note_on_c, 1, 60, 127
1, 155880, Note_on_c, 1, 54, 127
1, 155909, Note_off_c, 1, 69, 0
1, 155910, Note_on_c, 1, 66, 127
1, 155939, Note_off_c, 1, 62, 0
1, 155939, Note_off_c, 1, 60, 0
1, 155939, Note_off_c, 1, 54, 0
1, 155939, Note_off_c, 1, 66, 0
1, 155940, Note_on_c, 1, 62, 127
1, 155969, Note_off_c, 1, 62, 0
1, 155970, Note_on_c, 1, 66, 127
1, 155999, Note_off_c, 1, 66, 0
1, 156000, Note_on_c, 1, 69, 127
1, 156000, Note_on_c, 1, 72, 127
1, 156000, Note_on_c, 1, 66, 127
1, 156000, Note_on_c, 1, 50, 127
1, 156029, Note_off_c, 1, 69, 0
1, 156059, Note_off_c, 1, 72, 0
1, 156059, Note_off_c, 1, 66, 0
1, 156059, Note_off_c, 1, 50, 0
1, 156060, Note_on_c, 1, 71, 127
1, 156089, Note_off_c, 1, 71, 0
1, 156090, Note_on_c, 1, 69, 127
1, 156119, Note_off_c, 1, 69, 0
1, 156120, Note_on_c, 1, 71, 127
1, 156120, Note_on_c, 1, 67, 127
1, 156120, Note_on_c, 1, 62, 127
1, 156120, Note_on_c, 1, 55, 127
1, 156135, Note_on_c, 1, 69, 127
1, 156149, Note_off_c, 1, 69, 0
1, 156179, Note_off_c, 1, 71, 0
1, 156179, Note_off_c, 1, 67, 0
1, 156179, Note_off_c, 1, 62, 0
1, 156179, Note_off_c, 1, 55, 0
1, 156180, Note_on_c, 1, 75, 127
1, 156180, Note_on_c, 1, 71, 127
1, 156180, Note_on_c, 1, 64, 127
1, 156180, Note_on_c, 1, 57, 127
1, 156239, Note_off_c, 1, 71, 0
1, 156239, Note_off_c, 1, 64, 0
1, 156239, Note_off_c, 1, 57, 0
1, 156240, Note_on_c, 1, 62, 127
1, 156240, Note_on_c, 1, 67, 127
1, 156240, Note_on_c, 1, 66, 127
1, 156240, Note_on_c, 1, 55, 127
1, 156299, Note_off_c, 1, 75, 0
1, 156299, Note_off_c, 1, 62, 0
1, 156299, Note_off_c, 1, 67, 0
1, 156299, Note_off_c, 1, 66, 0
1, 156299, Note_off_c, 1, 55, 0
1, 156300, Note_on_c, 1, 76, 127
1, 156300, Note_on_c, 1, 66, 127
1, 156300, Note_on_c, 1, 69, 127
1, 156300, Note_on_c, 1, 61, 127
1, 156300, Note_on_c, 1, 54, 127
1, 156329, Note_off_c, 1, 76, 0
1, 156330, Note_on_c, 1, 78, 127
1, 156359, Note_off_c, 1, 66, 0
1, 156359, Note_off_c, 1, 69, 0
1, 156359, Note_off_c, 1, 61, 0
1, 156359, Note_off_c, 1, 54, 0
1, 156359, Note_off_c, 1, 78, 0
1, 156360, Note_on_c, 1, 79, 127
1, 156360, Note_on_c, 1, 67, 127
1, 156360, Note_on_c, 1, 64, 127
1, 156360, Note_on_c, 1, 59, 127
1, 156360, Note_on_c, 1, 52, 127
1, 156389, Note_off_c, 1, 79, 0
1, 156390, Note_on_c, 1, 78, 127
1, 156419, Note_off_c, 1, 67, 0
1, 156419, Note_off_c, 1, 64, 0
1, 156419, Note_off_c, 1, 59, 0
1, 156419, Note_off_c, 1, 52, 0
1, 156419, Note_off_c, 1, 78, 0
1, 156420, Note_on_c, 1, 76, 127
1, 156420, Note_on_c, 1, 54, 127
1, 156479, Note_off_c, 1, 54, 0
1, 156480, Note_on_c, 1, 64, 127
1, 156480, Note_on_c, 1, 71, 127
1, 156480, Note_on_c, 1, 67, 127
1, 156480, Note_on_c, 1, 55, 127
1, 156509, Note_off_c, 1, 76, 0
1, 156510, Note_on_c, 1, 74, 127
1, 156539, Note_off_c, 1, 64, 0
1, 156539, Note_off_c, 1, 71, 0
1, 156539, Note_off_c, 1, 67, 0
1, 156539, Note_off_c, 1, 55, 0
1, 156539, Note_off_c, 1, 74, 0
1, 156540, Note_on_c, 1, 73, 127
1, 156540, Note_on_c, 1, 52, 127
1, 156569, Note_off_c, 1, 73, 0
1, 156570, Note_on_c, 1, 71, 127
1, 156599, Note_off_c, 1, 52, 0
1, 156599, Note_off_c, 1, 71, 0
1, 156600, Note_on_c, 1, 69, 127
1, 156600, Note_on_c, 1, 66, 127
1, 156600, Note_on_c, 1, 54, 127
1, 156615, Note_on_c, 1, 67, 127
1, 156629, Note_off_c, 1, 67, 0
1, 156659, Note_off_c, 1, 69, 0
1, 156659, Note_off_c, 1, 66, 0
1, 156659, Note_off_c, 1, 54, 0
1, 156660, Note_on_c, 1, 73, 127
1, 156660, Note_on_c, 1, 69, 127
1, 156660, Note_on_c, 1, 55, 127
1, 156719, Note_off_c, 1, 69, 0
1, 156719, Note_off_c, 1, 55, 0
1, 156720, Note_on_c, 1, 61, 127
1, 156720, Note_on_c, 1, 76, 127
1, 156720, Note_on_c, 1, 54, 127
1, 156779, Note_off_c, 1, 73, 0
1, 156779, Note_off_c, 1, 61, 0
1, 156779, Note_off_c, 1, 76, 0
1, 156779, Note_off_c, 1, 54, 0
1, 156780, Note_on_c, 1, 74, 127
1, 156780, Note_on_c, 1, 64, 127
1, 156780, Note_on_c, 1, 71, 127
1, 156780, Note_on_c, 1, 67, 127
1, 156780, Note_on_c, 1, 52, 127
1, 156809, Note_off_c, 1, 74, 0
1, 156810, Note_on_c, 1, 76, 127
1, 156839, Note_off_c, 1, 52, 0
1, 156839, Note_off_c, 1, 76, 0
1, 156840, Note_off_c, 1, 64, 0
1, 156840, Note_off_c, 1, 71, 0
1, 156840, Note_off_c, 1, 67, 0
1, 156840, Note_on_c, 1, 78, 127
1, 156840, Note_on_c, 1, 66, 127
1, 156840, Note_on_c, 1, 69, 127
1, 156840, Note_on_c, 1, 62, 127
1, 156840, Note_on_c, 1, 50, 127
1, 156869, Note_off_c, 1, 78, 0
1, 156899, Note_off_c, 1, 50, 0
1, 156900, Note_off_c, 1, 66, 0
1, 156900, Note_off_c, 1, 69, 0
1, 156900, Note_off_c, 1, 62, 0
1, 156960, Note_on_c, 1, 61, 127
1, 156960, Note_on_c, 1, 54, 127
1, 157019, Note_off_c, 1, 54, 0
1, 157020, Note_on_c, 1, 59, 127
1, 157049, Note_off_c, 1, 61, 0
1, 157080, Note_off_c, 1, 59, 0
1, 157080, Note_on_c, 1, 58, 127
1, 157080, Note_on_c, 1, 73, 127
1, 157080, Note_on_c, 1, 70, 127
1, 157095, Note_off_c, 1, 58, 0
1, 157140, Note_off_c, 1, 73, 0
1, 157140, Note_off_c, 1, 70, 0
1, 157200, Note_on_c, 1, 62, 127
1, 157200, Note_on_c, 1, 70, 127
1, 157200, Note_on_c, 1, 67, 127
1, 157200, Note_on_c, 1, 49, 127
1, 157215, Note_off_c, 1, 62, 0
1, 157230, Note_on_c, 1, 73, 127
1, 157259, Note_off_c, 1, 49, 0
1, 157259, Note_off_c, 1, 73, 0
1, 157260, Note_off_c, 1, 70, 0
1, 157260, Note_off_c, 1, 67, 0
1, 157260, Note_on_c, 1, 71, 127
1, 157260, Note_on_c, 1, 50, 127
1, 157289, Note_off_c, 1, 71, 0
1, 157319, Note_off_c, 1, 50, 0
1, 157320, Note_on_c, 1, 70, 127
1, 157320, Note_on_c, 1, 73, 127
1, 157320, Note_on_c, 1, 66, 127
1, 157320, Note_on_c, 1, 52, 127
1, 157350, Note_on_c, 1, 79, 127
1, 157379, Note_off_c, 1, 52, 0
1, 157379, Note_off_c, 1, 79, 0
1, 157380, Note_off_c, 1, 70, 0
1, 157380, Note_off_c, 1, 73, 0
1, 157380, Note_off_c, 1, 66, 0
1, 157380, Note_on_c, 1, 78, 127
1, 157380, Note_on_c, 1, 49, 127
1, 157409, Note_off_c, 1, 78, 0
1, 157410, Note_on_c, 1, 76, 127
1, 157439, Note_off_c, 1, 49, 0
1, 157439, Note_off_c, 1, 76, 0
1, 157440, Note_on_c, 1, 76, 127
1, 157440, Note_on_c, 1, 64, 127
1, 157440, Note_on_c, 1, 66, 127
1, 157440, Note_on_c, 1, 46, 127
1, 157455, Note_off_c, 1, 76, 0
1, 157470, Note_on_c, 1, 82, 127
1, 157499, Note_off_c, 1, 46, 0
1, 157499, Note_off_c, 1, 82, 0
1, 157500, Note_off_c, 1, 64, 0
1, 157500, Note_off_c, 1, 66, 0
1, 157500, Note_on_c, 1, 83, 127
1, 157500, Note_on_c, 1, 67, 127
1, 157500, Note_on_c, 1, 42, 127
1, 157529, Note_off_c, 1, 83, 0
1, 157530, Note_on_c, 1, 85, 127
1, 157559, Note_off_c, 1, 42, 0
1, 157559, Note_off_c, 1, 85, 0
1, 157560, Note_off_c, 1, 67, 0
1, 157560, Note_on_c, 1, 62, 127
1, 157560, Note_on_c, 1, 59, 127
1, 157560, Note_on_c, 1, 47, 127
1, 157619, Note_off_c, 1, 47, 0
1, 157620, Note_off_c, 1, 62, 0
1, 157620, Note_off_c, 1, 59, 0
1, 157620, Note_on_c, 1, 78, 127
1, 157620, Note_on_c, 1, 71, 127
1, 157620, Note_on_c, 1, 50, 127
1, 157679, Note_off_c, 1, 78, 0
1, 157679, Note_off_c, 1, 50, 0
1, 157680, Note_on_c, 1, 54, 127
1, 157695, Note_on_c, 1, 74, 127
1, 157709, Note_off_c, 1, 74, 0
1, 157739, Note_off_c, 1, 54, 0
1, 157740, Note_off_c, 1, 71, 0
1, 157740, Note_on_c, 1, 73, 127
1, 157740, Note_on_c, 1, 61, 127
1, 157740, Note_on_c, 1, 70, 127
1, 157769, Note_off_c, 1, 73, 0
1, 157800, Note_off_c, 1, 61, 0
1, 157800, Note_off_c, 1, 70, 0
1, 157815, Note_on_c, 1, 69, 127
1, 157829, Note_off_c, 1, 69, 0
1, 157920, Note_on_c, 1, 58, 127
1, 157950, Note_on_c, 1, 79, 127
1, 157979, Note_off_c, 1, 58, 0
1, 157979, Note_off_c, 1, 79, 0
1, 157980, Note_on_c, 1, 78, 127
1, 157980, Note_on_c, 1, 64, 127
1, 157980, Note_on_c, 1, 58, 127
1, 157980, Note_on_c, 1, 66, 127
1, 157980, Note_on_c, 1, 54, 127
1, 158009, Note_off_c, 1, 78, 0
1, 158010, Note_on_c, 1, 76, 127
1, 158039, Note_off_c, 1, 64, 0
1, 158039, Note_off_c, 1, 58, 0
1, 158039, Note_off_c, 1, 66, 0
1, 158039, Note_off_c, 1, 54, 0
1, 158039, Note_off_c, 1, 76, 0
1, 158040, Note_on_c, 1, 74, 127
1, 158040, Note_on_c, 1, 66, 127
1, 158040, Note_on_c, 1, 59, 127
1, 158040, Note_on_c, 1, 62, 127
1, 158040, Note_on_c, 1, 47, 127
1, 158055, Note_on_c, 1, 73, 127
1, 158069, Note_off_c, 1, 73, 0
1, 158070, Note_on_c, 1, 71, 127
1, 158099, Note_off_c, 1, 74, 0
1, 158099, Note_off_c, 1, 66, 0
1, 158099, Note_off_c, 1, 59, 0
1, 158099, Note_off_c, 1, 62, 0
1, 158099, Note_off_c, 1, 47, 0
1, 158099, Note_off_c, 1, 71, 0
1, 158100, Note_on_c, 1, 70, 127
1, 158100, Note_on_c, 1, 73, 127
1, 158160, Note_on_c, 1, 49, 127
1, 158189, Note_off_c, 1, 70, 0
1, 158190, Note_on_c, 1, 76, 127
1, 158219, Note_off_c, 1, 73, 0
1, 158219, Note_off_c, 1, 49, 0
1, 158219, Note_off_c, 1, 76, 0
1, 158220, Note_on_c, 1, 74, 127
1, 158220, Note_on_c, 1, 71, 127
1, 158249, Note_off_c, 1, 74, 0
1, 158250, Note_on_c, 1, 73, 127
1, 158279, Note_off_c, 1, 71, 0
1, 158279, Note_off_c, 1, 73, 0
1, 158280, Note_on_c, 1, 71, 127
1, 158280, Note_on_c, 1, 78, 127
1, 158280, Note_on_c, 1, 50, 127
1, 158309, Note_off_c, 1, 71, 0
1, 158310, Note_on_c, 1, 66, 127
1, 158339, Note_off_c, 1, 78, 0
1, 158339, Note_off_c, 1, 50, 0
1, 158339, Note_off_c, 1, 66, 0
1, 158340, Note_on_c, 1, 59, 127
1, 158340, Note_on_c, 1, 79, 127
1, 158399, Note_off_c, 1, 59, 0
1, 158400, Note_on_c, 1, 52, 127
1, 158459, Note_off_c, 1, 79, 0
1, 158459, Note_off_c, 1, 52, 0
1, 158460, Note_on_c, 1, 71, 127
1, 158519, Note_off_c, 1, 71, 0
1, 158520, Note_on_c, 1, 70, 127
1, 158520, Note_on_c, 1, 54, 127
1, 158549, Note_off_c, 1, 70, 0
1, 158550, Note_on_c, 1, 71, 127
1, 158579, Note_off_c, 1, 54, 0
1, 158579, Note_off_c, 1, 71, 0
1, 158580, Note_on_c, 1, 73, 127
1, 158580, Note_on_c, 1, 47, 127
1, 158609, Note_off_c, 1, 73, 0
1, 158610, Note_on_c, 1, 74, 127
1, 158639, Note_off_c, 1, 47, 0
1, 158639, Note_off_c, 1, 74, 0
1, 158640, Note_on_c, 1, 76, 127
1, 158640, Note_on_c, 1, 46, 127
1, 158699, Note_off_c, 1, 76, 0
1, 158699, Note_off_c, 1, 46, 0
1, 158700, Note_on_c, 1, 83, 127
1, 158700, Note_on_c, 1, 74, 127
1, 158700, Note_on_c, 1, 47, 127
1, 158759, Note_off_c, 1, 74, 0
1, 158759, Note_off_c, 1, 47, 0
1, 158760, Note_on_c, 1, 76, 127
1, 158760, Note_on_c, 1, 42, 127
1, 158775, Note_off_c, 1, 83, 0
1, 158775, Note_on_c, 1, 82, 127
1, 158789, Note_off_c, 1, 76, 0
1, 158789, Note_off_c, 1, 82, 0
1, 158790, Note_on_c, 1, 80, 127
1, 158819, Note_off_c, 1, 42, 0
1, 158819, Note_off_c, 1, 80, 0
1, 158820, Note_on_c, 1, 82, 127
1, 158820, Note_on_c, 1, 73, 127
1, 158820, Note_on_c, 1, 54, 127
1, 158849, Note_off_c, 1, 82, 0
1, 158849, Note_off_c, 1, 54, 0
1, 158850, Note_on_c, 1, 85, 127
1, 158850, Note_on_c, 1, 56, 127
1, 158879, Note_off_c, 1, 73, 0
1, 158879, Note_off_c, 1, 85, 0
1, 158879, Note_off_c, 1, 56, 0
1, 158880, Note_on_c, 1, 78, 127
1, 158880, Note_on_c, 1, 58, 127
1, 158910, Note_on_c, 1, 76, 127
1, 158939, Note_off_c, 1, 78, 0
1, 158939, Note_off_c, 1, 58, 0
1, 158939, Note_off_c, 1, 76, 0
1, 158940, Note_on_c, 1, 74, 127
1, 158940, Note_on_c, 1, 54, 127
1, 158969, Note_off_c, 1, 74, 0
1, 158970, Note_on_c, 1, 73, 127
1, 158999, Note_off_c, 1, 54, 0
1, 158999, Note_off_c, 1, 73, 0
1, 159000, Note_on_c, 1, 74, 127
1, 159000, Note_on_c, 1, 59, 127
1, 159015, Note_on_c, 1, 73, 127
1, 159029, Note_off_c, 1, 73, 0
1, 159030, Note_on_c, 1, 71, 127
1, 159059, Note_off_c, 1, 74, 0
1, 159059, Note_off_c, 1, 59, 0
1, 159059, Note_off_c, 1, 71, 0
1, 159060, Note_on_c, 1, 70, 127
1, 159060, Note_on_c, 1, 76, 127
1, 159060, Note_on_c, 1, 73, 127
1, 159119, Note_off_c, 1, 70, 0
1, 159120, Note_on_c, 1, 49, 127
1, 159150, Note_on_c, 1, 64, 127
1, 159179, Note_off_c, 1, 76, 0
1, 159179, Note_off_c, 1, 73, 0
1, 159179, Note_off_c, 1, 49, 0
1, 159179, Note_off_c, 1, 64, 0
1, 159180, Note_on_c, 1, 62, 127
1, 159180, Note_on_c, 1, 78, 127
1, 159180, Note_on_c, 1, 71, 127
1, 159209, Note_off_c, 1, 62, 0
1, 159210, Note_on_c, 1, 61, 127
1, 159239, Note_off_c, 1, 78, 0
1, 159239, Note_off_c, 1, 71, 0
1, 159239, Note_off_c, 1, 61, 0
1, 159240, Note_on_c, 1, 59, 127
1, 159240, Note_on_c, 1, 76, 127
1, 159240, Note_on_c, 1, 78, 127
1, 159240, Note_on_c, 1, 50, 127
1, 159269, Note_off_c, 1, 59, 0
1, 159269, Note_off_c, 1, 76, 0
1, 159270, Note_on_c, 1, 66, 127
1, 159270, Note_on_c, 1, 74, 127
1, 159299, Note_off_c, 1, 78, 0
1, 159299, Note_off_c, 1, 50, 0
1, 159299, Note_off_c, 1, 66, 0
1, 159299, Note_off_c, 1, 74, 0
1, 159300, Note_on_c, 1, 71, 127
1, 159300, Note_on_c, 1, 73, 127
1, 159300, Note_on_c, 1, 79, 127
1, 159329, Note_off_c, 1, 73, 0
1, 159359, Note_off_c, 1, 71, 0
1, 159360, Note_on_c, 1, 52, 127
1, 159419, Note_off_c, 1, 79, 0
1, 159419, Note_off_c, 1, 52, 0
1, 159420, Note_on_c, 1, 79, 127
1, 159420, Note_on_c, 1, 71, 127
1, 159479, Note_off_c, 1, 79, 0
1, 159479, Note_off_c, 1, 71, 0
1, 159480, Note_on_c, 1, 79, 127
1, 159480, Note_on_c, 1, 70, 127
1, 159480, Note_on_c, 1, 52, 127
1, 159509, Note_off_c, 1, 70, 0
1, 159510, Note_on_c, 1, 71, 127
1, 159539, Note_off_c, 1, 79, 0
1, 159539, Note_off_c, 1, 52, 0
1, 159539, Note_off_c, 1, 71, 0
1, 159540, Note_on_c, 1, 78, 127
1, 159540, Note_on_c, 1, 73, 127
1, 159540, Note_on_c, 1, 50, 127
1, 159569, Note_off_c, 1, 73, 0
1, 159570, Note_on_c, 1, 74, 127
1, 159599, Note_off_c, 1, 50, 0
1, 159599, Note_off_c, 1, 74, 0
1, 159600, Note_on_c, 1, 76, 127
1, 159600, Note_on_c, 1, 46, 127
1, 159659, Note_off_c, 1, 78, 0
1, 159659, Note_off_c, 1, 76, 0
1, 159659, Note_off_c, 1, 46, 0
1, 159660, Note_on_c, 1, 78, 127
1, 159660, Note_on_c, 1, 71, 127
1, 159660, Note_on_c, 1, 74, 127
1, 159660, Note_on_c, 1, 47, 127
1, 159719, Note_off_c, 1, 71, 0
1, 159719, Note_off_c, 1, 74, 0
1, 159719, Note_off_c, 1, 47, 0
1, 159720, Note_on_c, 1, 76, 127
1, 159720, Note_on_c, 1, 42, 127
1, 159735, Note_off_c, 1, 78, 0
1, 159749, Note_off_c, 1, 76, 0
1, 159779, Note_off_c, 1, 42, 0
1, 159780, Note_on_c, 1, 76, 127
1, 159780, Note_on_c, 1, 70, 127
1, 159780, Note_on_c, 1, 73, 127
1, 159780, Note_on_c, 1, 54, 127
1, 159839, Note_off_c, 1, 70, 0
1, 159839, Note_off_c, 1, 73, 0
1, 159839, Note_off_c, 1, 54, 0
1, 159840, Note_on_c, 1, 46, 127
1, 159870, Note_on_c, 1, 79, 127
1, 159899, Note_off_c, 1, 76, 0
1, 159899, Note_off_c, 1, 46, 0
1, 159899, Note_off_c, 1, 79, 0
1, 159900, Note_on_c, 1, 78, 127
1, 159900, Note_on_c, 1, 42, 127
1, 159929, Note_off_c, 1, 78, 0
1, 159930, Note_on_c, 1, 76, 127
1, 159959, Note_off_c, 1, 42, 0
1, 159959, Note_off_c, 1, 76, 0
1, 159960, Note_on_c, 1, 74, 127
1, 159960, Note_on_c, 1, 66, 127
1, 159960, Note_on_c, 1, 47, 127
1, 159989, Note_off_c, 1, 74, 0
1, 160019, Note_off_c, 1, 66, 0
1, 160019, Note_off_c, 1, 47, 0
1, 160020, Note_on_c, 1, 64, 127
1, 160020, Note_on_c, 1, 49, 127
1, 160049, Note_off_c, 1, 64, 0
1, 160050, Note_on_c, 1, 66, 127
1, 160079, Note_off_c, 1, 49, 0
1, 160079, Note_off_c, 1, 66, 0
1, 160080, Note_on_c, 1, 59, 127
1, 160080, Note_on_c, 1, 71, 127
1, 160080, Note_on_c, 1, 50, 127
1, 160109, Note_off_c, 1, 59, 0
1, 160110, Note_on_c, 1, 66, 127
1, 160139, Note_off_c, 1, 71, 0
1, 160139, Note_off_c, 1, 50, 0
1, 160139, Note_off_c, 1, 66, 0
1, 160140, Note_on_c, 1, 74, 127
1, 160140, Note_on_c, 1, 70, 127
1, 160140, Note_on_c, 1, 49, 127
1, 160169, Note_off_c, 1, 74, 0
1, 160170, Note_on_c, 1, 66, 127
1, 160199, Note_off_c, 1, 70, 0
1, 160199, Note_off_c, 1, 49, 0
1, 160199, Note_off_c, 1, 66, 0
1, 160200, Note_on_c, 1, 74, 127
1, 160200, Note_on_c, 1, 71, 127
1, 160200, Note_on_c, 1, 47, 127
1, 160229, Note_off_c, 1, 74, 0
1, 160230, Note_on_c, 1, 66, 127
1, 160259, Note_off_c, 1, 71, 0
1, 160259, Note_off_c, 1, 47, 0
1, 160259, Note_off_c, 1, 66, 0
1, 160260, Note_on_c, 1, 64, 127
1, 160260, Note_on_c, 1, 70, 127
1, 160260, Note_on_c, 1, 73, 127
1, 160260, Note_on_c, 1, 49, 127
1, 160289, Note_off_c, 1, 64, 0
1, 160290, Note_on_c, 1, 66, 127
1, 160319, Note_off_c, 1, 70, 0
1, 160319, Note_off_c, 1, 73, 0
1, 160319, Note_off_c, 1, 49, 0
1, 160319, Note_off_c, 1, 66, 0
1, 160320, Note_on_c, 1, 59, 127
1, 160320, Note_on_c, 1, 74, 127
1, 160320, Note_on_c, 1, 47, 127
1, 160349, Note_off_c, 1, 59, 0
1, 160349, Note_off_c, 1, 74, 0
1, 160350, Note_on_c, 1, 66, 127
1, 160350, Note_on_c, 1, 73, 127
1, 160379, Note_off_c, 1, 47, 0
1, 160379, Note_off_c, 1, 66, 0
1, 160379, Note_off_c, 1, 73, 0
1, 160380, Note_on_c, 1, 74, 127
1, 160380, Note_on_c, 1, 66, 127
1, 160380, Note_on_c, 1, 45, 127
1, 160439, Note_off_c, 1, 74, 0
1, 160439, Note_off_c, 1, 66, 0
1, 160439, Note_off_c, 1, 45, 0
1, 160440, Note_on_c, 1, 64, 127
1, 160440, Note_on_c, 1, 71, 127
1, 160440, Note_on_c, 1, 74, 127
1, 160440, Note_on_c, 1, 44, 127
1, 160469, Note_off_c, 1, 64, 0
1, 160470, Note_on_c, 1, 68, 127
1, 160499, Note_off_c, 1, 71, 0
1, 160499, Note_off_c, 1, 44, 0
1, 160499, Note_off_c, 1, 68, 0
1, 160560, Note_on_c, 1, 80, 127
1, 160560, Note_on_c, 1, 47, 127
1, 160589, Note_off_c, 1, 80, 0
1, 160590, Note_on_c, 1, 83, 127
1, 160619, Note_off_c, 1, 47, 0
1, 160619, Note_off_c, 1, 83, 0
1, 160680, Note_on_c, 1, 76, 127
1, 160739, Note_off_c, 1, 74, 0
1, 160739, Note_off_c, 1, 76, 0
1, 160740, Note_on_c, 1, 64, 127
1, 160740, Note_on_c, 1, 71, 127
1, 160770, Note_on_c, 1, 68, 127
1, 160799, Note_off_c, 1, 64, 0
1, 160799, Note_off_c, 1, 71, 0
1, 160799, Note_off_c, 1, 68, 0
1, 160800, Note_on_c, 1, 71, 127
1, 160800, Note_on_c, 1, 74, 127
1, 160800, Note_on_c, 1, 80, 127
1, 160800, Note_on_c, 1, 40, 127
1, 160829, Note_off_c, 1, 71, 0
1, 160859, Note_off_c, 1, 74, 0
1, 160859, Note_off_c, 1, 80, 0
1, 160859, Note_off_c, 1, 40, 0
1, 160860, Note_on_c, 1, 73, 127
1, 160860, Note_on_c, 1, 76, 127
1, 160889, Note_off_c, 1, 73, 0
1, 160890, Note_on_c, 1, 71, 127
1, 160919, Note_off_c, 1, 76, 0
1, 160919, Note_off_c, 1, 71, 0
1, 160920, Note_on_c, 1, 73, 127
1, 160920, Note_on_c, 1, 45, 127
1, 160950, Note_on_c, 1, 64, 127
1, 160979, Note_off_c, 1, 73, 0
1, 160979, Note_off_c, 1, 45, 0
1, 160979, Note_off_c, 1, 64, 0
1, 160980, Note_on_c, 1, 62, 127
1, 160980, Note_on_c, 1, 71, 127
1, 160980, Note_on_c, 1, 47, 127
1, 161009, Note_off_c, 1, 62, 0
1, 161010, Note_on_c, 1, 64, 127
1, 161039, Note_off_c, 1, 71, 0
1, 161039, Note_off_c, 1, 47, 0
1, 161039, Note_off_c, 1, 64, 0
1, 161040, Note_on_c, 1, 57, 127
1, 161040, Note_on_c, 1, 69, 127
1, 161040, Note_on_c, 1, 49, 127
1, 161069, Note_off_c, 1, 57, 0
1, 161070, Note_on_c, 1, 64, 127
1, 161099, Note_off_c, 1, 69, 0
1, 161099, Note_off_c, 1, 49, 0
1, 161099, Note_off_c, 1, 64, 0
1, 161100, Note_on_c, 1, 73, 127
1, 161100, Note_on_c, 1, 68, 127
1, 161100, Note_on_c, 1, 47, 127
1, 161129, Note_off_c, 1, 73, 0
1, 161130, Note_on_c, 1, 64, 127
1, 161159, Note_off_c, 1, 68, 0
1, 161159, Note_off_c, 1, 47, 0
1, 161159, Note_off_c, 1, 64, 0
1, 161160, Note_on_c, 1, 73, 127
1, 161160, Note_on_c, 1, 69, 127
1, 161160, Note_on_c, 1, 45, 127
1, 161189, Note_off_c, 1, 73, 0
1, 161190, Note_on_c, 1, 64, 127
1, 161219, Note_off_c, 1, 69, 0
1, 161219, Note_off_c, 1, 45, 0
1, 161219, Note_off_c, 1, 64, 0
1, 161220, Note_on_c, 1, 62, 127
1, 161220, Note_on_c, 1, 71, 127
1, 161220, Note_on_c, 1, 68, 127
1, 161220, Note_on_c, 1, 47, 127
1, 161249, Note_off_c, 1, 62, 0
1, 161250, Note_on_c, 1, 64, 127
1, 161279, Note_off_c, 1, 71, 0
1, 161279, Note_off_c, 1, 68, 0
1, 161279, Note_off_c, 1, 47, 0
1, 161279, Note_off_c, 1, 64, 0
1, 161280, Note_on_c, 1, 57, 127
1, 161280, Note_on_c, 1, 72, 127
1, 161280, Note_on_c, 1, 45, 127
1, 161309, Note_off_c, 1, 57, 0
1, 161309, Note_off_c, 1, 72, 0
1, 161310, Note_on_c, 1, 64, 127
1, 161310, Note_on_c, 1, 71, 127
1, 161339, Note_off_c, 1, 45, 0
1, 161339, Note_off_c, 1, 64, 0
1, 161339, Note_off_c, 1, 71, 0
1, 161340, Note_on_c, 1, 72, 127
1, 161340, Note_on_c, 1, 64, 127
1, 161340, Note_on_c, 1, 43, 127
1, 161399, Note_off_c, 1, 72, 0
1, 161399, Note_off_c, 1, 64, 0
1, 161399, Note_off_c, 1, 43, 0
1, 161400, Note_on_c, 1, 62, 127
1, 161400, Note_on_c, 1, 72, 127
1, 161400, Note_on_c, 1, 69, 127
1, 161400, Note_on_c, 1, 42, 127
1, 161429, Note_off_c, 1, 62, 0
1, 161430, Note_on_c, 1, 66, 127
1, 161459, Note_off_c, 1, 69, 0
1, 161459, Note_off_c, 1, 42, 0
1, 161459, Note_off_c, 1, 66, 0
1, 161520, Note_on_c, 1, 78, 127
1, 161520, Note_on_c, 1, 45, 127
1, 161549, Note_off_c, 1, 78, 0
1, 161550, Note_on_c, 1, 81, 127
1, 161579, Note_off_c, 1, 45, 0
1, 161579, Note_off_c, 1, 81, 0
1, 161640, Note_on_c, 1, 74, 127
1, 161699, Note_off_c, 1, 72, 0
1, 161699, Note_off_c, 1, 74, 0
1, 161700, Note_on_c, 1, 62, 127
1, 161700, Note_on_c, 1, 69, 127
1, 161730, Note_on_c, 1, 66, 127
1, 161759, Note_off_c, 1, 62, 0
1, 161759, Note_off_c, 1, 69, 0
1, 161759, Note_off_c, 1, 66, 0
1, 161760, Note_on_c, 1, 67, 127
1, 161760, Note_on_c, 1, 78, 127
1, 161760, Note_on_c, 1, 72, 127
1, 161760, Note_on_c, 1, 38, 127
1, 161789, Note_off_c, 1, 67, 0
1, 161819, Note_off_c, 1, 78, 0
1, 161819, Note_off_c, 1, 72, 0
1, 161819, Note_off_c, 1, 38, 0
1, 161820, Note_on_c, 1, 71, 127
1, 161820, Note_on_c, 1, 74, 127
1, 161849, Note_off_c, 1, 71, 0
1, 161850, Note_on_c, 1, 69, 127
1, 161879, Note_off_c, 1, 74, 0
1, 161879, Note_off_c, 1, 69, 0
1, 161880, Note_on_c, 1, 71, 127
1, 161880, Note_on_c, 1, 55, 127
1, 161895, Note_on_c, 1, 69, 127
1, 161909, Note_off_c, 1, 69, 0
1, 161910, Note_on_c, 1, 67, 127
1, 161939, Note_off_c, 1, 71, 0
1, 161939, Note_off_c, 1, 55, 0
1, 161939, Note_off_c, 1, 67, 0
1, 161940, Note_on_c, 1, 73, 127
1, 161940, Note_on_c, 1, 69, 127
1, 161940, Note_on_c, 1, 54, 127
1, 161999, Note_off_c, 1, 69, 0
1, 161999, Note_off_c, 1, 54, 0
1, 162000, Note_on_c, 1, 67, 127
1, 162000, Note_on_c, 1, 71, 127
1, 162000, Note_on_c, 1, 79, 127
1, 162000, Note_on_c, 1, 52, 127
1, 162029, Note_off_c, 1, 73, 0
1, 162029, Note_off_c, 1, 79, 0
1, 162030, Note_on_c, 1, 74, 127
1, 162030, Note_on_c, 1, 78, 127
1, 162059, Note_off_c, 1, 67, 0
1, 162059, Note_off_c, 1, 52, 0
1, 162059, Note_off_c, 1, 74, 0
1, 162059, Note_off_c, 1, 78, 0
1, 162060, Note_on_c, 1, 76, 127
1, 162060, Note_on_c, 1, 50, 127
1, 162089, Note_off_c, 1, 76, 0
1, 162119, Note_off_c, 1, 50, 0
1, 162120, Note_off_c, 1, 71, 0
1, 162120, Note_on_c, 1, 49, 127
1, 162179, Note_off_c, 1, 49, 0
1, 162180, Note_on_c, 1, 74, 127
1, 162180, Note_on_c, 1, 76, 127
1, 162180, Note_on_c, 1, 47, 127
1, 162209, Note_off_c, 1, 74, 0
1, 162209, Note_off_c, 1, 47, 0
1, 162210, Note_on_c, 1, 73, 127
1, 162210, Note_on_c, 1, 45, 127
1, 162239, Note_off_c, 1, 73, 0
1, 162239, Note_off_c, 1, 45, 0
1, 162240, Note_on_c, 1, 71, 127
1, 162269, Note_off_c, 1, 71, 0
1, 162270, Note_on_c, 1, 69, 127
1, 162299, Note_off_c, 1, 69, 0
1, 162300, Note_off_c, 1, 76, 0
1, 162300, Note_on_c, 1, 67, 127
1, 162300, Note_on_c, 1, 49, 127
1, 162359, Note_off_c, 1, 49, 0
1, 162360, Note_off_c, 1, 67, 0
1, 162360, Note_on_c, 1, 66, 127
1, 162360, Note_on_c, 1, 50, 127
1, 162419, Note_off_c, 1, 50, 0
1, 162420, Note_off_c, 1, 66, 0
1, 162420, Note_on_c, 1, 42, 127
1, 162479, Note_off_c, 1, 42, 0
1, 162480, Note_on_c, 1, 43, 127
1, 162510, Note_on_c, 1, 62, 127
1, 162539, Note_off_c, 1, 43, 0
1, 162539, Note_off_c, 1, 62, 0
1, 162540, Note_on_c, 1, 61, 127
1, 162540, Note_on_c, 1, 64, 127
1, 162569, Note_off_c, 1, 61, 0
1, 162570, Note_off_c, 1, 64, 0
1, 162570, Note_on_c, 1, 59, 127
1, 162599, Note_off_c, 1, 59, 0
1, 162600, Note_on_c, 1, 57, 127
1, 162600, Note_on_c, 1, 78, 127
1, 162600, Note_on_c, 1, 38, 127
1, 162615, Note_off_c, 1, 57, 0
1, 162659, Note_off_c, 1, 38, 0
1, 162660, Note_on_c, 1, 40, 127
1, 162719, Note_off_c, 1, 78, 0
1, 162719, Note_off_c, 1, 40, 0
1, 162900, Note_on_c, 1, 76, 127
1, 162900, Note_on_c, 1, 73, 127
1, 162900, Note_on_c, 1, 47, 127
1, 162959, Note_off_c, 1, 76, 0
1, 162959, Note_off_c, 1, 73, 0
1, 162959, Note_off_c, 1, 47, 0
1, 162960, Note_on_c, 1, 69, 127
1, 162960, Note_on_c, 1, 49, 127
1, 162990, Note_on_c, 1, 62, 127
1, 163019, Note_off_c, 1, 49, 0
1, 163019, Note_off_c, 1, 62, 0
1, 163020, Note_on_c, 1, 61, 127
1, 163020, Note_on_c, 1, 76, 127
1, 163020, Note_on_c, 1, 45, 127
1, 163049, Note_off_c, 1, 61, 0
1, 163050, Note_on_c, 1, 59, 127
1, 163079, Note_off_c, 1, 76, 0
1, 163079, Note_off_c, 1, 45, 0
1, 163079, Note_off_c, 1, 59, 0
1, 163080, Note_off_c, 1, 69, 0
1, 163080, Note_on_c, 1, 57, 127
1, 163080, Note_on_c, 1, 78, 127
1, 163080, Note_on_c, 1, 50, 127
1, 163095, Note_off_c, 1, 57, 0
1, 163110, Note_on_c, 1, 66, 127
1, 163139, Note_off_c, 1, 50, 0
1, 163139, Note_off_c, 1, 66, 0
1, 163140, Note_on_c, 1, 64, 127
1, 163140, Note_on_c, 1, 52, 127
1, 163169, Note_off_c, 1, 64, 0
1, 163199, Note_off_c, 1, 52, 0
1, 163200, Note_on_c, 1, 74, 127
1, 163200, Note_on_c, 1, 54, 127
1, 163230, Note_on_c, 1, 73, 127
1, 163259, Note_off_c, 1, 78, 0
1, 163259, Note_off_c, 1, 74, 0
1, 163259, Note_off_c, 1, 54, 0
1, 163259, Note_off_c, 1, 73, 0
1, 163260, Note_on_c, 1, 71, 127
1, 163260, Note_on_c, 1, 55, 127
1, 163289, Note_off_c, 1, 71, 0
1, 163319, Note_off_c, 1, 55, 0
1, 163380, Note_on_c, 1, 73, 127
1, 163380, Note_on_c, 1, 76, 127
1, 163380, Note_on_c, 1, 59, 127
1, 163439, Note_off_c, 1, 73, 0
1, 163439, Note_off_c, 1, 76, 0
1, 163439, Note_off_c, 1, 59, 0
1, 163440, Note_on_c, 1, 69, 127
1, 163440, Note_on_c, 1, 61, 127
1, 163499, Note_off_c, 1, 69, 0
1, 163499, Note_off_c, 1, 61, 0
1, 163500, Note_on_c, 1, 67, 127
1, 163500, Note_on_c, 1, 73, 127
1, 163500, Note_on_c, 1, 59, 127
1, 163529, Note_off_c, 1, 67, 0
1, 163530, Note_on_c, 1, 66, 127
1, 163559, Note_off_c, 1, 73, 0
1, 163559, Note_off_c, 1, 59, 0
1, 163559, Note_off_c, 1, 66, 0
1, 163560, Note_on_c, 1, 66, 127
1, 163560, Note_on_c, 1, 73, 127
1, 163560, Note_on_c, 1, 58, 127
1, 163575, Note_off_c, 1, 66, 0
1, 163590, Note_on_c, 1, 76, 127
1, 163619, Note_off_c, 1, 73, 0
1, 163619, Note_off_c, 1, 58, 0
1, 163619, Note_off_c, 1, 76, 0
1, 163620, Note_on_c, 1, 74, 127
1, 163620, Note_on_c, 1, 66, 127
1, 163620, Note_on_c, 1, 56, 127
1, 163649, Note_off_c, 1, 74, 0
1, 163650, Note_on_c, 1, 73, 127
1, 163679, Note_off_c, 1, 66, 0
1, 163679, Note_off_c, 1, 56, 0
1, 163679, Note_off_c, 1, 73, 0
1, 163680, Note_on_c, 1, 73, 127
1, 163680, Note_on_c, 1, 66, 127
1, 163680, Note_on_c, 1, 58, 127
1, 163695, Note_off_c, 1, 73, 0
1, 163710, Note_on_c, 1, 85, 127
1, 163739, Note_off_c, 1, 66, 0
1, 163739, Note_off_c, 1, 58, 0
1, 163739, Note_off_c, 1, 85, 0
1, 163740, Note_on_c, 1, 83, 127
1, 163740, Note_on_c, 1, 66, 127
1, 163740, Note_on_c, 1, 54, 127
1, 163769, Note_off_c, 1, 83, 0
1, 163770, Note_on_c, 1, 82, 127
1, 163799, Note_off_c, 1, 66, 0
1, 163799, Note_off_c, 1, 54, 0
1, 163799, Note_off_c, 1, 82, 0
1, 163800, Note_on_c, 1, 83, 127
1, 163800, Note_on_c, 1, 66, 127
1, 163800, Note_on_c, 1, 74, 127
1, 163800, Note_on_c, 1, 71, 127
1, 163800, Note_on_c, 1, 47, 127
1, 163815, Note_off_c, 1, 83, 0
1, 163859, Note_off_c, 1, 47, 0
1, 163860, Note_on_c, 1, 73, 127
1, 163860, Note_on_c, 1, 49, 127
1, 163889, Note_off_c, 1, 73, 0
1, 163919, Note_off_c, 1, 66, 0
1, 163919, Note_off_c, 1, 74, 0
1, 163919, Note_off_c, 1, 71, 0
1, 163919, Note_off_c, 1, 49, 0
1, 163920, Note_on_c, 1, 71, 127
1, 163920, Note_on_c, 1, 66, 127
1, 163920, Note_on_c, 1, 50, 127
1, 163935, Note_off_c, 1, 71, 0
1, 163950, Note_on_c, 1, 69, 127
1, 163979, Note_off_c, 1, 50, 0
1, 163979, Note_off_c, 1, 69, 0
1, 163980, Note_on_c, 1, 67, 127
1, 163980, Note_on_c, 1, 74, 127
1, 163980, Note_on_c, 1, 52, 127
1, 164009, Note_off_c, 1, 67, 0
1, 164039, Note_off_c, 1, 66, 0
1, 164039, Note_off_c, 1, 74, 0
1, 164039, Note_off_c, 1, 52, 0
1, 164040, Note_on_c, 1, 66, 127
1, 164040, Note_on_c, 1, 74, 127
1, 164040, Note_on_c, 1, 71, 127
1, 164040, Note_on_c, 1, 54, 127
1, 164055, Note_off_c, 1, 66, 0
1, 164070, Note_on_c, 1, 67, 127
1, 164099, Note_off_c, 1, 74, 0
1, 164099, Note_off_c, 1, 71, 0
1, 164099, Note_off_c, 1, 54, 0
1, 164099, Note_off_c, 1, 67, 0
1, 164100, Note_on_c, 1, 66, 127
1, 164100, Note_on_c, 1, 73, 127
1, 164100, Note_on_c, 1, 70, 127
1, 164100, Note_on_c, 1, 56, 127
1, 164129, Note_off_c, 1, 66, 0
1, 164130, Note_on_c, 1, 64, 127
1, 164159, Note_off_c, 1, 73, 0
1, 164159, Note_off_c, 1, 70, 0
1, 164159, Note_off_c, 1, 56, 0
1, 164159, Note_off_c, 1, 64, 0
1, 164160, Note_on_c, 1, 64, 127
1, 164160, Note_on_c, 1, 66, 127
1, 164160, Note_on_c, 1, 57, 127
1, 164175, Note_off_c, 1, 64, 0
1, 164219, Note_off_c, 1, 57, 0
1, 164220, Note_on_c, 1, 73, 127
1, 164220, Note_on_c, 1, 54, 127
1, 164250, Note_on_c, 1, 62, 127
1, 164279, Note_off_c, 1, 66, 0
1, 164279, Note_off_c, 1, 73, 0
1, 164279, Note_off_c, 1, 54, 0
1, 164279, Note_off_c, 1, 62, 0
1, 164280, Note_on_c, 1, 62, 127
1, 164280, Note_on_c, 1, 74, 127
1, 164280, Note_on_c, 1, 47, 127
1, 164295, Note_off_c, 1, 62, 0
1, 164339, Note_off_c, 1, 47, 0
1, 164340, Note_on_c, 1, 73, 127
1, 164340, Note_on_c, 1, 66, 127
1, 164340, Note_on_c, 1, 49, 127
1, 164369, Note_off_c, 1, 73, 0
1, 164370, Note_on_c, 1, 71, 127
1, 164399, Note_off_c, 1, 66, 0
1, 164399, Note_off_c, 1, 49, 0
1, 164399, Note_off_c, 1, 71, 0
1, 164400, Note_on_c, 1, 50, 127
1, 164430, Note_on_c, 1, 81, 127
1, 164459, Note_off_c, 1, 74, 0
1, 164459, Note_off_c, 1, 50, 0
1, 164459, Note_off_c, 1, 81, 0
1, 164460, Note_on_c, 1, 79, 127
1, 164460, Note_on_c, 1, 52, 127
1, 164489, Note_off_c, 1, 79, 0
1, 164490, Note_on_c, 1, 78, 127
1, 164519, Note_off_c, 1, 52, 0
1, 164519, Note_off_c, 1, 78, 0
1, 164520, Note_on_c, 1, 78, 127
1, 164520, Note_on_c, 1, 71, 127
1, 164520, Note_on_c, 1, 74, 127
1, 164520, Note_on_c, 1, 54, 127
1, 164535, Note_off_c, 1, 78, 0
1, 164550, Note_on_c, 1, 67, 127
1, 164579, Note_off_c, 1, 71, 0
1, 164579, Note_off_c, 1, 74, 0
1, 164579, Note_off_c, 1, 54, 0
1, 164579, Note_off_c, 1, 67, 0
1, 164580, Note_on_c, 1, 66, 127
1, 164580, Note_on_c, 1, 70, 127
1, 164580, Note_on_c, 1, 73, 127
1, 164580, Note_on_c, 1, 56, 127
1, 164609, Note_off_c, 1, 66, 0
1, 164610, Note_on_c, 1, 64, 127
1, 164639, Note_off_c, 1, 70, 0
1, 164639, Note_off_c, 1, 73, 0
1, 164639, Note_off_c, 1, 56, 0
1, 164639, Note_off_c, 1, 64, 0
1, 164640, Note_on_c, 1, 64, 127
1, 164640, Note_on_c, 1, 66, 127
1, 164640, Note_on_c, 1, 57, 127
1, 164655, Note_off_c, 1, 64, 0
1, 164670, Note_on_c, 1, 74, 127
1, 164699, Note_off_c, 1, 66, 0
1, 164699, Note_off_c, 1, 57, 0
1, 164699, Note_off_c, 1, 74, 0
1, 164700, Note_on_c, 1, 73, 127
1, 164700, Note_on_c, 1, 64, 127
1, 164700, Note_on_c, 1, 54, 127
1, 164729, Note_off_c, 1, 73, 0
1, 164730, Note_on_c, 1, 71, 127
1, 164759, Note_off_c, 1, 64, 0
1, 164759, Note_off_c, 1, 54, 0
1, 164759, Note_off_c, 1, 71, 0
1, 164760, Note_on_c, 1, 71, 127
1, 164760, Note_on_c, 1, 62, 127
1, 164760, Note_on_c, 1, 59, 127
1, 164819, Note_off_c, 1, 62, 0
1, 164819, Note_off_c, 1, 59, 0
1, 164820, Note_on_c, 1, 66, 127
1, 164820, Note_on_c, 1, 61, 127
1, 164879, Note_off_c, 1, 66, 0
1, 164879, Note_off_c, 1, 61, 0
1, 164940, Note_on_c, 1, 68, 127
1, 164999, Note_off_c, 1, 68, 0
1, 165000, Note_on_c, 1, 65, 127
1, 165030, Note_off_c, 1, 71, 0
1, 165030, Note_on_c, 1, 73, 127
1, 165059, Note_off_c, 1, 65, 0
1, 165060, Note_off_c, 1, 73, 0
1, 165060, Note_on_c, 1, 77, 127
1, 165060, Note_on_c, 1, 74, 127
1, 165090, Note_off_c, 1, 77, 0
1, 165090, Note_on_c, 1, 80, 127
1, 165119, Note_off_c, 1, 74, 0
1, 165120, Note_off_c, 1, 80, 0
1, 165120, Note_on_c, 1, 78, 127
1, 165120, Note_on_c, 1, 57, 127
1, 165179, Note_off_c, 1, 57, 0
1, 165180, Note_off_c, 1, 78, 0
1, 165240, Note_on_c, 1, 69, 127
1, 165240, Note_on_c, 1, 61, 127
1, 165299, Note_off_c, 1, 61, 0
1, 165300, Note_on_c, 1, 59, 127
1, 165359, Note_off_c, 1, 69, 0
1, 165359, Note_off_c, 1, 59, 0
1, 165360, Note_on_c, 1, 68, 127
1, 165360, Note_on_c, 1, 61, 127
1, 165419, Note_off_c, 1, 61, 0
1, 165420, Note_on_c, 1, 49, 127
1, 165479, Note_off_c, 1, 68, 0
1, 165479, Note_off_c, 1, 49, 0
1, 165480, Note_on_c, 1, 81, 127
1, 165480, Note_on_c, 1, 66, 127
1, 165480, Note_on_c, 1, 73, 127
1, 165480, Note_on_c, 1, 42, 127
1, 165539, Note_off_c, 1, 42, 0
1, 165540, Note_off_c, 1, 81, 0
1, 165540, Note_on_c, 1, 80, 127
1, 165540, Note_on_c, 1, 44, 127
1, 165599, Note_off_c, 1, 66, 0
1, 165599, Note_off_c, 1, 73, 0
1, 165599, Note_off_c, 1, 44, 0
1, 165600, Note_on_c, 1, 45, 127
1, 165659, Note_off_c, 1, 80, 0
1, 165659, Note_off_c, 1, 45, 0
1, 165660, Note_on_c, 1, 78, 127
1, 165660, Note_on_c, 1, 47, 127
1, 165719, Note_off_c, 1, 47, 0
1, 165720, Note_off_c, 1, 78, 0
1, 165720, Note_on_c, 1, 85, 127
1, 165720, Note_on_c, 1, 49, 127
1, 165779, Note_off_c, 1, 49, 0
1, 165780, Note_off_c, 1, 85, 0
1, 165780, Note_on_c, 1, 86, 127
1, 165780, Note_on_c, 1, 65, 127
1, 165780, Note_on_c, 1, 68, 127
1, 165839, Note_off_c, 1, 65, 0
1, 165839, Note_off_c, 1, 68, 0
1, 165840, Note_off_c, 1, 86, 0
1, 165840, Note_on_c, 1, 75, 127
1, 165899, Note_off_c, 1, 75, 0
1, 165900, Note_on_c, 1, 73, 127
1, 165900, Note_on_c, 1, 71, 127
1, 165900, Note_on_c, 1, 44, 127
1, 165959, Note_off_c, 1, 73, 0
1, 165959, Note_off_c, 1, 71, 0
1, 165959, Note_off_c, 1, 44, 0
1, 165960, Note_on_c, 1, 78, 127
1, 165960, Note_on_c, 1, 69, 127
1, 165960, Note_on_c, 1, 42, 127
1, 166019, Note_off_c, 1, 78, 0
1, 166019, Note_off_c, 1, 69, 0
1, 166019, Note_off_c, 1, 42, 0
1, 166020, Note_on_c, 1, 76, 127
1, 166020, Note_on_c, 1, 70, 127
1, 166020, Note_on_c, 1, 49, 127
1, 166079, Note_off_c, 1, 76, 0
1, 166079, Note_off_c, 1, 49, 0
1, 166080, Note_on_c, 1, 74, 127
1, 166080, Note_on_c, 1, 54, 127
1, 166139, Note_off_c, 1, 70, 0
1, 166139, Note_off_c, 1, 74, 0
1, 166139, Note_off_c, 1, 54, 0
1, 166140, Note_on_c, 1, 73, 127
1, 166140, Note_on_c, 1, 70, 127
1, 166140, Note_on_c, 1, 42, 127
1, 166199, Note_off_c, 1, 73, 0
1, 166199, Note_off_c, 1, 70, 0
1, 166199, Note_off_c, 1, 42, 0
1, 166200, Note_on_c, 1, 74, 127
1, 166200, Note_on_c, 1, 71, 127
1, 166200, Note_on_c, 1, 47, 127
1, 166229, Note_off_c, 1, 74, 0
1, 166229, Note_off_c, 1, 71, 0
1, 166230, Note_on_c, 1, 73, 127
1, 166230, Note_on_c, 1, 70, 127
1, 166259, Note_off_c, 1, 47, 0
1, 166259, Note_off_c, 1, 73, 0
1, 166259, Note_off_c, 1, 70, 0
1, 166260, Note_on_c, 1, 74, 127
1, 166260, Note_on_c, 1, 71, 127
1, 166320, Note_on_c, 1, 69, 127
1, 166320, Note_on_c, 1, 52, 127
1, 166349, Note_off_c, 1, 74, 0
1, 166349, Note_off_c, 1, 71, 0
1, 166350, Note_on_c, 1, 78, 127
1, 166379, Note_off_c, 1, 69, 0
1, 166379, Note_off_c, 1, 52, 0
1, 166379, Note_off_c, 1, 78, 0
1, 166380, Note_on_c, 1, 76, 127
1, 166380, Note_on_c, 1, 68, 127
1, 166380, Note_on_c, 1, 73, 127
1, 166409, Note_off_c, 1, 76, 0
1, 166409, Note_off_c, 1, 73, 0
1, 166410, Note_on_c, 1, 74, 127
1, 166410, Note_on_c, 1, 71, 127
1, 166439, Note_off_c, 1, 74, 0
1, 166439, Note_off_c, 1, 71, 0
1, 166440, Note_on_c, 1, 69, 127
1, 166440, Note_on_c, 1, 45, 127
1, 166469, Note_off_c, 1, 69, 0
1, 166499, Note_off_c, 1, 68, 0
1, 166499, Note_off_c, 1, 45, 0
1, 166500, Note_on_c, 1, 73, 127
1, 166500, Note_on_c, 1, 61, 127
1, 166500, Note_on_c, 1, 69, 127
1, 166529, Note_off_c, 1, 73, 0
1, 166529, Note_off_c, 1, 69, 0
1, 166530, Note_on_c, 1, 74, 127
1, 166530, Note_on_c, 1, 71, 127
1, 166559, Note_off_c, 1, 61, 0
1, 166559, Note_off_c, 1, 74, 0
1, 166559, Note_off_c, 1, 71, 0
1, 166560, Note_on_c, 1, 73, 127
1, 166560, Note_on_c, 1, 66, 127
1, 166560, Note_on_c, 1, 69, 127
1, 166560, Note_on_c, 1, 50, 127
1, 166589, Note_off_c, 1, 73, 0
1, 166589, Note_off_c, 1, 69, 0
1, 166590, Note_on_c, 1, 76, 127
1, 166619, Note_off_c, 1, 50, 0
1, 166619, Note_off_c, 1, 76, 0
1, 166620, Note_on_c, 1, 74, 127
1, 166620, Note_on_c, 1, 71, 127
1, 166649, Note_off_c, 1, 74, 0
1, 166649, Note_off_c, 1, 71, 0
1, 166680, Note_on_c, 1, 68, 127
1, 166680, Note_on_c, 1, 44, 127
1, 166709, Note_off_c, 1, 68, 0
1, 166739, Note_off_c, 1, 66, 0
1, 166739, Note_off_c, 1, 44, 0
1, 166740, Note_on_c, 1, 71, 127
1, 166740, Note_on_c, 1, 68, 127
1, 166800, Note_on_c, 1, 66, 127
1, 166800, Note_on_c, 1, 49, 127
1, 166829, Note_off_c, 1, 71, 0
1, 166829, Note_off_c, 1, 68, 0
1, 166830, Note_on_c, 1, 74, 127
1, 166859, Note_off_c, 1, 66, 0
1, 166859, Note_off_c, 1, 49, 0
1, 166859, Note_off_c, 1, 74, 0
1, 166860, Note_on_c, 1, 73, 127
1, 166860, Note_on_c, 1, 65, 127
1, 166860, Note_on_c, 1, 69, 127
1, 166889, Note_off_c, 1, 73, 0
1, 166889, Note_off_c, 1, 69, 0
1, 166890, Note_on_c, 1, 71, 127
1, 166890, Note_on_c, 1, 68, 127
1, 166919, Note_off_c, 1, 65, 0
1, 166919, Note_off_c, 1, 71, 0
1, 166919, Note_off_c, 1, 68, 0
1, 166920, Note_on_c, 1, 69, 127
1, 166920, Note_on_c, 1, 66, 127
1, 166920, Note_on_c, 1, 42, 127
1, 166949, Note_off_c, 1, 69, 0
1, 166949, Note_off_c, 1, 66, 0
1, 166950, Note_on_c, 1, 68, 127
1, 166950, Note_on_c, 1, 65, 127
1, 166979, Note_off_c, 1, 42, 0
1, 166979, Note_off_c, 1, 68, 0
1, 166979, Note_off_c, 1, 65, 0
1, 166980, Note_on_c, 1, 69, 127
1, 166980, Note_on_c, 1, 66, 127
1, 166980, Note_on_c, 1, 54, 127
1, 167009, Note_off_c, 1, 69, 0
1, 167009, Note_off_c, 1, 66, 0
1, 167010, Note_on_c, 1, 71, 127
1, 167010, Note_on_c, 1, 68, 127
1, 167039, Note_off_c, 1, 54, 0
1, 167039, Note_off_c, 1, 71, 0
1, 167039, Note_off_c, 1, 68, 0
1, 167040, Note_on_c, 1, 73, 127
1, 167040, Note_on_c, 1, 69, 127
1, 167040, Note_on_c, 1, 52, 127
1, 167069, Note_off_c, 1, 69, 0
1, 167070, Note_on_c, 1, 75, 127
1, 167070, Note_on_c, 1, 71, 127
1, 167099, Note_off_c, 1, 52, 0
1, 167099, Note_off_c, 1, 75, 0
1, 167099, Note_off_c, 1, 71, 0
1, 167100, Note_on_c, 1, 77, 127
1, 167100, Note_on_c, 1, 50, 127
1, 167129, Note_off_c, 1, 77, 0
1, 167130, Note_on_c, 1, 78, 127
1, 167130, Note_on_c, 1, 74, 127
1, 167159, Note_off_c, 1, 73, 0
1, 167159, Note_off_c, 1, 50, 0
1, 167159, Note_off_c, 1, 78, 0
1, 167159, Note_off_c, 1, 74, 0
1, 167160, Note_on_c, 1, 77, 127
1, 167160, Note_on_c, 1, 68, 127
1, 167160, Note_on_c, 1, 49, 127
1, 167189, Note_off_c, 1, 68, 0
1, 167190, Note_on_c, 1, 69, 127
1, 167219, Note_off_c, 1, 77, 0
1, 167219, Note_off_c, 1, 69, 0
1, 167220, Note_on_c, 1, 75, 127
1, 167220, Note_on_c, 1, 71, 127
1, 167249, Note_off_c, 1, 75, 0
1, 167279, Note_off_c, 1, 49, 0
1, 167279, Note_off_c, 1, 71, 0
1, 167280, Note_on_c, 1, 73, 127
1, 167280, Note_on_c, 1, 65, 127
1, 167280, Note_on_c, 1, 71, 127
1, 167339, Note_off_c, 1, 73, 0
1, 167339, Note_off_c, 1, 65, 0
1, 167339, Note_off_c, 1, 71, 0
1, 167340, Note_on_c, 1, 61, 127
1, 167399, Note_off_c, 1, 61, 0
1, 167400, Note_on_c, 1, 66, 127
1, 167400, Note_on_c, 1, 62, 127
1, 167459, Note_off_c, 1, 62, 0
1, 167460, Note_on_c, 1, 59, 127
1, 167489, Note_off_c, 1, 66, 0
1, 167490, Note_on_c, 1, 71, 127
1, 167519, Note_off_c, 1, 59, 0
1, 167519, Note_off_c, 1, 71, 0
1, 167520, Note_on_c, 1, 68, 127
1, 167520, Note_on_c, 1, 61, 127
1, 167579, Note_off_c, 1, 61, 0
1, 167580, Note_on_c, 1, 49, 127
1, 167609, Note_off_c, 1, 68, 0
1, 167610, Note_on_c, 1, 66, 127
1, 167639, Note_off_c, 1, 49, 0
1, 167639, Note_off_c, 1, 66, 0
1, 167640, Note_on_c, 1, 69, 127
1, 167640, Note_on_c, 1, 66, 127
1, 167640, Note_on_c, 1, 54, 127
1, 167699, Note_off_c, 1, 69, 0
1, 167699, Note_off_c, 1, 54, 0
1, 167700, Note_on_c, 1, 68, 127
1, 167759, Note_off_c, 1, 66, 0
1, 167760, Note_on_c, 1, 56, 127
1, 167819, Note_off_c, 1, 68, 0
1, 167819, Note_off_c, 1, 56, 0
1, 167820, Note_on_c, 1, 66, 127
1, 167879, Note_off_c, 1, 66, 0
1, 167880, Note_on_c, 1, 73, 127
1, 167880, Note_on_c, 1, 57, 127
1, 167939, Note_off_c, 1, 73, 0
1, 167939, Note_off_c, 1, 57, 0
1, 167940, Note_on_c, 1, 74, 127
1, 168000, Note_on_c, 1, 59, 127
1, 168059, Note_off_c, 1, 74, 0
1, 168059, Note_off_c, 1, 59, 0
1, 168060, Note_on_c, 1, 66, 127
1, 168119, Note_off_c, 1, 66, 0
1, 168120, Note_on_c, 1, 65, 127
1, 168120, Note_on_c, 1, 61, 127
1, 168149, Note_off_c, 1, 65, 0
1, 168150, Note_on_c, 1, 66, 127
1, 168179, Note_off_c, 1, 61, 0
1, 168179, Note_off_c, 1, 66, 0
1, 168180, Note_on_c, 1, 68, 127
1, 168180, Note_on_c, 1, 54, 127
1, 168209, Note_off_c, 1, 68, 0
1, 168210, Note_on_c, 1, 69, 127
1, 168239, Note_off_c, 1, 54, 0
1, 168239, Note_off_c, 1, 69, 0
1, 168240, Note_on_c, 1, 71, 127
1, 168240, Note_on_c, 1, 53, 127
1, 168299, Note_off_c, 1, 71, 0
1, 168299, Note_off_c, 1, 53, 0
1, 168300, Note_on_c, 1, 69, 127
1, 168300, Note_on_c, 1, 54, 127
1, 168329, Note_off_c, 1, 69, 0
1, 168359, Note_off_c, 1, 54, 0
1, 168360, Note_on_c, 1, 71, 127
1, 168360, Note_on_c, 1, 61, 127
1, 168375, Note_off_c, 1, 71, 0
1, 168375, Note_on_c, 1, 69, 127
1, 168390, Note_off_c, 1, 69, 0
1, 168419, Note_off_c, 1, 61, 0
1, 168420, Note_on_c, 1, 68, 127
1, 168420, Note_on_c, 1, 49, 127
1, 168449, Note_off_c, 1, 49, 0
1, 168450, Note_on_c, 1, 51, 127
1, 168479, Note_off_c, 1, 51, 0
1, 168480, Note_on_c, 1, 53, 127
1, 168509, Note_off_c, 1, 68, 0
1, 168539, Note_off_c, 1, 53, 0
1, 168540, Note_on_c, 1, 69, 127
1, 168540, Note_on_c, 1, 49, 127
1, 168569, Note_off_c, 1, 69, 0
1, 168570, Note_on_c, 1, 68, 127
1, 168599, Note_off_c, 1, 49, 0
1, 168599, Note_off_c, 1, 68, 0
1, 168600, Note_on_c, 1, 69, 127
1, 168600, Note_on_c, 1, 54, 127
1, 168629, Note_off_c, 1, 69, 0
1, 168630, Note_on_c, 1, 66, 127
1, 168659, Note_off_c, 1, 54, 0
1, 168659, Note_off_c, 1, 66, 0
1, 168660, Note_on_c, 1, 65, 127
1, 168660, Note_on_c, 1, 56, 127
1, 168689, Note_off_c, 1, 65, 0
1, 168690, Note_on_c, 1, 66, 127
1, 168719, Note_off_c, 1, 56, 0
1, 168719, Note_off_c, 1, 66, 0
1, 168720, Note_on_c, 1, 61, 127
1, 168720, Note_on_c, 1, 57, 127
1, 168749, Note_off_c, 1, 61, 0
1, 168750, Note_on_c, 1, 66, 127
1, 168779, Note_off_c, 1, 57, 0
1, 168779, Note_off_c, 1, 66, 0
1, 168780, Note_on_c, 1, 69, 127
1, 168780, Note_on_c, 1, 56, 127
1, 168809, Note_off_c, 1, 69, 0
1, 168810, Note_on_c, 1, 68, 127
1, 168839, Note_off_c, 1, 56, 0
1, 168839, Note_off_c, 1, 68, 0
1, 168840, Note_on_c, 1, 69, 127
1, 168840, Note_on_c, 1, 54, 127
1, 168869, Note_off_c, 1, 69, 0
1, 168870, Note_on_c, 1, 66, 127
1, 168899, Note_off_c, 1, 54, 0
1, 168899, Note_off_c, 1, 66, 0
1, 168900, Note_on_c, 1, 65, 127
1, 168900, Note_on_c, 1, 56, 127
1, 168929, Note_off_c, 1, 65, 0
1, 168930, Note_on_c, 1, 66, 127
1, 168959, Note_off_c, 1, 56, 0
1, 168959, Note_off_c, 1, 66, 0
1, 168960, Note_on_c, 1, 61, 127
1, 168960, Note_on_c, 1, 54, 127
1, 168989, Note_off_c, 1, 61, 0
1, 168990, Note_on_c, 1, 66, 127
1, 169019, Note_off_c, 1, 54, 0
1, 169019, Note_off_c, 1, 66, 0
1, 169020, Note_on_c, 1, 69, 127
1, 169020, Note_on_c, 1, 52, 127
1, 169049, Note_off_c, 1, 69, 0
1, 169050, Note_on_c, 1, 66, 127
1, 169079, Note_off_c, 1, 52, 0
1, 169079, Note_off_c, 1, 66, 0
1, 169080, Note_on_c, 1, 59, 127
1, 169080, Note_on_c, 1, 51, 127
1, 169109, Note_off_c, 1, 59, 0
1, 169110, Note_on_c, 1, 63, 127
1, 169139, Note_off_c, 1, 51, 0
1, 169139, Note_off_c, 1, 63, 0
1, 169140, Note_on_c, 1, 66, 127
1, 169169, Note_off_c, 1, 66, 0
1, 169170, Note_on_c, 1, 69, 127
1, 169199, Note_off_c, 1, 69, 0
1, 169200, Note_on_c, 1, 75, 127
1, 169200, Note_on_c, 1, 54, 127
1, 169229, Note_off_c, 1, 75, 0
1, 169230, Note_on_c, 1, 78, 127
1, 169259, Note_off_c, 1, 54, 0
1, 169259, Note_off_c, 1, 78, 0
1, 169260, Note_on_c, 1, 75, 127
1, 169289, Note_off_c, 1, 75, 0
1, 169290, Note_on_c, 1, 69, 127
1, 169319, Note_off_c, 1, 69, 0
1, 169320, Note_on_c, 1, 66, 127
1, 169320, Note_on_c, 1, 51, 127
1, 169349, Note_off_c, 1, 66, 0
1, 169350, Note_on_c, 1, 63, 127
1, 169379, Note_off_c, 1, 51, 0
1, 169379, Note_off_c, 1, 63, 0
1, 169380, Note_on_c, 1, 59, 127
1, 169409, Note_off_c, 1, 59, 0
1, 169410, Note_on_c, 1, 63, 127
1, 169439, Note_off_c, 1, 63, 0
1, 169440, Note_on_c, 1, 66, 127
1, 169440, Note_on_c, 1, 47, 127
1, 169469, Note_off_c, 1, 66, 0
1, 169470, Note_on_c, 1, 69, 127
1, 169499, Note_off_c, 1, 47, 0
1, 169499, Note_off_c, 1, 69, 0
1, 169500, Note_on_c, 1, 68, 127
1, 169529, Note_off_c, 1, 68, 0
1, 169530, Note_on_c, 1, 66, 127
1, 169559, Note_off_c, 1, 66, 0
1, 169560, Note_on_c, 1, 68, 127
1, 169560, Note_on_c, 1, 52, 127
1, 169589, Note_off_c, 1, 68, 0
1, 169590, Note_on_c, 1, 64, 127
1, 169619, Note_off_c, 1, 52, 0
1, 169619, Note_off_c, 1, 64, 0
1, 169620, Note_on_c, 1, 63, 127
1, 169620, Note_on_c, 1, 54, 127
1, 169649, Note_off_c, 1, 63, 0
1, 169650, Note_on_c, 1, 64, 127
1, 169679, Note_off_c, 1, 54, 0
1, 169679, Note_off_c, 1, 64, 0
1, 169680, Note_on_c, 1, 59, 127
1, 169680, Note_on_c, 1, 56, 127
1, 169709, Note_off_c, 1, 59, 0
1, 169710, Note_on_c, 1, 64, 127
1, 169739, Note_off_c, 1, 56, 0
1, 169739, Note_off_c, 1, 64, 0
1, 169740, Note_on_c, 1, 68, 127
1, 169740, Note_on_c, 1, 54, 127
1, 169769, Note_off_c, 1, 68, 0
1, 169770, Note_on_c, 1, 66, 127
1, 169799, Note_off_c, 1, 54, 0
1, 169799, Note_off_c, 1, 66, 0
1, 169800, Note_on_c, 1, 68, 127
1, 169800, Note_on_c, 1, 52, 127
1, 169829, Note_off_c, 1, 68, 0
1, 169830, Note_on_c, 1, 64, 127
1, 169859, Note_off_c, 1, 52, 0
1, 169859, Note_off_c, 1, 64, 0
1, 169860, Note_on_c, 1, 63, 127
1, 169860, Note_on_c, 1, 54, 127
1, 169889, Note_off_c, 1, 63, 0
1, 169890, Note_on_c, 1, 64, 127
1, 169919, Note_off_c, 1, 54, 0
1, 169919, Note_off_c, 1, 64, 0
1, 169920, Note_on_c, 1, 59, 127
1, 169920, Note_on_c, 1, 52, 127
1, 169949, Note_off_c, 1, 59, 0
1, 169950, Note_on_c, 1, 64, 127
1, 169979, Note_off_c, 1, 52, 0
1, 169979, Note_off_c, 1, 64, 0
1, 169980, Note_on_c, 1, 68, 127
1, 169980, Note_on_c, 1, 50, 127
1, 170009, Note_off_c, 1, 68, 0
1, 170010, Note_on_c, 1, 64, 127
1, 170039, Note_off_c, 1, 50, 0
1, 170039, Note_off_c, 1, 64, 0
1, 170040, Note_on_c, 1, 57, 127
1, 170040, Note_on_c, 1, 49, 127
1, 170069, Note_off_c, 1, 57, 0
1, 170070, Note_on_c, 1, 61, 127
1, 170099, Note_off_c, 1, 49, 0
1, 170099, Note_off_c, 1, 61, 0
1, 170100, Note_on_c, 1, 64, 127
1, 170129, Note_off_c, 1, 64, 0
1, 170130, Note_on_c, 1, 67, 127
1, 170159, Note_off_c, 1, 67, 0
1, 170160, Note_on_c, 1, 73, 127
1, 170160, Note_on_c, 1, 52, 127
1, 170189, Note_off_c, 1, 73, 0
1, 170190, Note_on_c, 1, 76, 127
1, 170219, Note_off_c, 1, 52, 0
1, 170219, Note_off_c, 1, 76, 0
1, 170220, Note_on_c, 1, 73, 127
1, 170249, Note_off_c, 1, 73, 0
1, 170250, Note_on_c, 1, 67, 127
1, 170279, Note_off_c, 1, 67, 0
1, 170280, Note_on_c, 1, 64, 127
1, 170280, Note_on_c, 1, 49, 127
1, 170309, Note_off_c, 1, 64, 0
1, 170310, Note_on_c, 1, 61, 127
1, 170339, Note_off_c, 1, 49, 0
1, 170339, Note_off_c, 1, 61, 0
1, 170340, Note_on_c, 1, 57, 127
1, 170369, Note_off_c, 1, 57, 0
1, 170370, Note_on_c, 1, 61, 127
1, 170399, Note_off_c, 1, 61, 0
1, 170400, Note_on_c, 1, 64, 127
1, 170400, Note_on_c, 1, 45, 127
1, 170429, Note_off_c, 1, 64, 0
1, 170430, Note_on_c, 1, 67, 127
1, 170459, Note_off_c, 1, 45, 0
1, 170459, Note_off_c, 1, 67, 0
1, 170460, Note_on_c, 1, 66, 127
1, 170489, Note_off_c, 1, 66, 0
1, 170490, Note_on_c, 1, 64, 127
1, 170519, Note_off_c, 1, 64, 0
1, 170520, Note_on_c, 1, 66, 127
1, 170520, Note_on_c, 1, 50, 127
1, 170534, Note_off_c, 1, 66, 0
1, 170535, Note_on_c, 1, 64, 127
1, 170549, Note_off_c, 1, 64, 0
1, 170550, Note_on_c, 1, 62, 127
1, 170579, Note_off_c, 1, 50, 0
1, 170579, Note_off_c, 1, 62, 0
1, 170580, Note_on_c, 1, 70, 127
1, 170580, Note_on_c, 1, 52, 127
1, 170639, Note_off_c, 1, 52, 0
1, 170640, Note_on_c, 1, 50, 127
1, 170699, Note_off_c, 1, 70, 0
1, 170699, Note_off_c, 1, 50, 0
1, 170700, Note_on_c, 1, 71, 127
1, 170700, Note_on_c, 1, 49, 127
1, 170729, Note_off_c, 1, 71, 0
1, 170730, Note_on_c, 1, 73, 127
1, 170759, Note_off_c, 1, 49, 0
1, 170759, Note_off_c, 1, 73, 0
1, 170760, Note_on_c, 1, 74, 127
1, 170760, Note_on_c, 1, 47, 127
1, 170789, Note_off_c, 1, 74, 0
1, 170790, Note_on_c, 1, 73, 127
1, 170819, Note_off_c, 1, 47, 0
1, 170819, Note_off_c, 1, 73, 0
1, 170820, Note_on_c, 1, 71, 127
1, 170820, Note_on_c, 1, 49, 127
1, 170879, Note_off_c, 1, 49, 0
1, 170880, Note_on_c, 1, 50, 127
1, 170909, Note_off_c, 1, 71, 0
1, 170910, Note_on_c, 1, 69, 127
1, 170939, Note_off_c, 1, 50, 0
1, 170939, Note_off_c, 1, 69, 0
1, 170940, Note_on_c, 1, 68, 127
1, 170940, Note_on_c, 1, 47, 127
1, 170969, Note_off_c, 1, 68, 0
1, 170970, Note_on_c, 1, 66, 127
1, 170999, Note_off_c, 1, 47, 0
1, 170999, Note_off_c, 1, 66, 0
1, 171000, Note_on_c, 1, 64, 127
1, 171000, Note_on_c, 1, 49, 127
1, 171014, Note_off_c, 1, 64, 0
1, 171015, Note_on_c, 1, 62, 127
1, 171029, Note_off_c, 1, 62, 0
1, 171030, Note_on_c, 1, 61, 127
1, 171059, Note_off_c, 1, 49, 0
1, 171059, Note_off_c, 1, 61, 0
1, 171060, Note_on_c, 1, 68, 127
1, 171060, Note_on_c, 1, 50, 127
1, 171119, Note_off_c, 1, 50, 0
1, 171120, Note_on_c, 1, 49, 127
1, 171179, Note_off_c, 1, 68, 0
1, 171179, Note_off_c, 1, 49, 0
1, 171180, Note_on_c, 1, 69, 127
1, 171180, Note_on_c, 1, 47, 127
1, 171209, Note_off_c, 1, 69, 0
1, 171210, Note_on_c, 1, 71, 127
1, 171239, Note_off_c, 1, 47, 0
1, 171239, Note_off_c, 1, 71, 0
1, 171240, Note_on_c, 1, 73, 127
1, 171240, Note_on_c, 1, 45, 127
1, 171269, Note_off_c, 1, 73, 0
1, 171270, Note_on_c, 1, 71, 127
1, 171299, Note_off_c, 1, 45, 0
1, 171299, Note_off_c, 1, 71, 0
1, 171300, Note_on_c, 1, 69, 127
1, 171300, Note_on_c, 1, 47, 127
1, 171359, Note_off_c, 1, 47, 0
1, 171360, Note_on_c, 1, 49, 127
1, 171389, Note_off_c, 1, 69, 0
1, 171419, Note_off_c, 1, 49, 0
1, 171420, Note_on_c, 1, 68, 127
1, 171420, Note_on_c, 1, 45, 127
1, 171449, Note_off_c, 1, 68, 0
1, 171450, Note_on_c, 1, 66, 127
1, 171479, Note_off_c, 1, 45, 0
1, 171479, Note_off_c, 1, 66, 0
1, 171480, Note_on_c, 1, 65, 127
1, 171480, Note_on_c, 1, 47, 127
1, 171495, Note_off_c, 1, 65, 0
1, 171510, Note_on_c, 1, 74, 127
1, 171539, Note_off_c, 1, 47, 0
1, 171539, Note_off_c, 1, 74, 0
1, 171540, Note_on_c, 1, 73, 127
1, 171540, Note_on_c, 1, 45, 127
1, 171569, Note_off_c, 1, 73, 0
1, 171570, Note_on_c, 1, 71, 127
1, 171599, Note_off_c, 1, 45, 0
1, 171599, Note_off_c, 1, 71, 0
1, 171600, Note_on_c, 1, 71, 127
1, 171600, Note_on_c, 1, 44, 127
1, 171615, Note_off_c, 1, 71, 0
1, 171630, Note_on_c, 1, 80, 127
1, 171659, Note_off_c, 1, 44, 0
1, 171659, Note_off_c, 1, 80, 0
1, 171660, Note_on_c, 1, 78, 127
1, 171660, Note_on_c, 1, 45, 127
1, 171689, Note_off_c, 1, 78, 0
1, 171690, Note_on_c, 1, 77, 127
1, 171719, Note_off_c, 1, 45, 0
1, 171719, Note_off_c, 1, 77, 0
1, 171720, Note_on_c, 1, 77, 127
1, 171720, Note_on_c, 1, 47, 127
1, 171735, Note_off_c, 1, 77, 0
1, 171750, Note_on_c, 1, 86, 127
1, 171779, Note_off_c, 1, 47, 0
1, 171779, Note_off_c, 1, 86, 0
1, 171780, Note_on_c, 1, 85, 127
1, 171780, Note_on_c, 1, 56, 127
1, 171809, Note_off_c, 1, 85, 0
1, 171810, Note_on_c, 1, 83, 127
1, 171839, Note_off_c, 1, 56, 0
1, 171839, Note_off_c, 1, 83, 0
1, 171840, Note_on_c, 1, 83, 127
1, 171840, Note_on_c, 1, 53, 127
1, 171855, Note_off_c, 1, 83, 0
1, 171870, Note_on_c, 1, 77, 127
1, 171899, Note_off_c, 1, 53, 0
1, 171899, Note_off_c, 1, 77, 0
1, 171900, Note_on_c, 1, 78, 127
1, 171900, Note_on_c, 1, 49, 127
1, 171929, Note_off_c, 1, 78, 0
1, 171930, Note_on_c, 1, 80, 127
1, 171959, Note_off_c, 1, 49, 0
1, 171959, Note_off_c, 1, 80, 0
1, 171960, Note_on_c, 1, 69, 127
1, 171960, Note_on_c, 1, 54, 127
1, 172019, Note_off_c, 1, 69, 0
1, 172019, Note_off_c, 1, 54, 0
1, 172020, Note_on_c, 1, 85, 127
1, 172020, Note_on_c, 1, 57, 127
1, 172079, Note_off_c, 1, 85, 0
1, 172079, Note_off_c, 1, 57, 0
1, 172080, Note_on_c, 1, 81, 127
1, 172080, Note_on_c, 1, 61, 127
1, 172139, Note_off_c, 1, 81, 0
1, 172139, Note_off_c, 1, 61, 0
1, 172140, Note_on_c, 1, 80, 127
1, 172140, Note_on_c, 1, 49, 127
1, 172149, Note_off_c, 1, 80, 0
1, 172150, Note_on_c, 1, 81, 127
1, 172159, Note_off_c, 1, 81, 0
1, 172170, Note_on_c, 1, 78, 127
1, 172199, Note_off_c, 1, 49, 0
1, 172199, Note_off_c, 1, 78, 0
1, 172200, Note_on_c, 1, 78, 127
1, 172200, Note_on_c, 1, 73, 127
1, 172200, Note_on_c, 1, 54, 127
1, 172259, Note_off_c, 1, 54, 0
1, 172260, Note_on_c, 1, 56, 127
1, 172319, Note_off_c, 1, 78, 0
1, 172319, Note_off_c, 1, 73, 0
1, 172319, Note_off_c, 1, 56, 0
1, 172320, Note_on_c, 1, 78, 127
1, 172320, Note_on_c, 1, 57, 127
1, 172379, Note_off_c, 1, 57, 0
1, 172380, Note_on_c, 1, 54, 127
1, 172439, Note_off_c, 1, 54, 0
1, 172440, Note_on_c, 1, 56, 127
1, 172499, Note_off_c, 1, 78, 0
1, 172499, Note_off_c, 1, 56, 0
1, 172500, Note_on_c, 1, 76, 127
1, 172500, Note_on_c, 1, 54, 127
1, 172529, Note_off_c, 1, 76, 0
1, 172530, Note_on_c, 1, 74, 127
1, 172559, Note_off_c, 1, 54, 0
1, 172559, Note_off_c, 1, 74, 0
1, 172560, Note_on_c, 1, 76, 127
1, 172560, Note_on_c, 1, 56, 127
1, 172619, Note_off_c, 1, 76, 0
1, 172619, Note_off_c, 1, 56, 0
1, 172620, Note_on_c, 1, 73, 127
1, 172620, Note_on_c, 1, 58, 127
1, 172679, Note_off_c, 1, 73, 0
1, 172679, Note_off_c, 1, 58, 0
1, 172680, Note_on_c, 1, 66, 127
1, 172680, Note_on_c, 1, 74, 127
1, 172680, Note_on_c, 1, 59, 127
1, 172709, Note_off_c, 1, 74, 0
1, 172710, Note_on_c, 1, 73, 127
1, 172739, Note_off_c, 1, 59, 0
1, 172739, Note_off_c, 1, 73, 0
1, 172740, Note_on_c, 1, 83, 127
1, 172770, Note_on_c, 1, 76, 127
1, 172799, Note_off_c, 1, 66, 0
1, 172799, Note_off_c, 1, 83, 0
1, 172799, Note_off_c, 1, 76, 0
1, 172800, Note_on_c, 1, 78, 127
1, 172800, Note_on_c, 1, 71, 127
1, 172800, Note_on_c, 1, 74, 127
1, 172829, Note_off_c, 1, 74, 0
1, 172830, Note_on_c, 1, 73, 127
1, 172859, Note_off_c, 1, 78, 0
1, 172859, Note_off_c, 1, 73, 0
1, 172860, Note_on_c, 1, 47, 127
1, 172919, Note_off_c, 1, 47, 0
1, 172920, Note_on_c, 1, 54, 127
1, 172979, Note_off_c, 1, 71, 0
1, 172979, Note_off_c, 1, 54, 0
1, 172980, Note_on_c, 1, 69, 127
1, 172980, Note_on_c, 1, 73, 127
1, 172980, Note_on_c, 1, 52, 127
1, 173009, Note_off_c, 1, 69, 0
1, 173009, Note_off_c, 1, 73, 0
1, 173010, Note_on_c, 1, 67, 127
1, 173010, Note_on_c, 1, 74, 127
1, 173039, Note_off_c, 1, 52, 0
1, 173039, Note_off_c, 1, 67, 0
1, 173039, Note_off_c, 1, 74, 0
1, 173040, Note_on_c, 1, 69, 127
1, 173040, Note_on_c, 1, 73, 127
1, 173040, Note_on_c, 1, 54, 127
1, 173069, Note_off_c, 1, 73, 0
1, 173070, Note_on_c, 1, 76, 127
1, 173099, Note_off_c, 1, 69, 0
1, 173099, Note_off_c, 1, 54, 0
1, 173099, Note_off_c, 1, 76, 0
1, 173100, Note_on_c, 1, 66, 127
1, 173100, Note_on_c, 1, 75, 127
1, 173100, Note_on_c, 1, 47, 127
1, 173129, Note_off_c, 1, 75, 0
1, 173130, Note_on_c, 1, 78, 127
1, 173159, Note_off_c, 1, 66, 0
1, 173159, Note_off_c, 1, 47, 0
1, 173159, Note_off_c, 1, 78, 0
1, 173160, Note_on_c, 1, 67, 127
1, 173160, Note_on_c, 1, 76, 127
1, 173160, Note_on_c, 1, 52, 127
1, 173189, Note_off_c, 1, 67, 0
1, 173190, Note_on_c, 1, 66, 127
1, 173219, Note_off_c, 1, 76, 0
1, 173219, Note_off_c, 1, 52, 0
1, 173219, Note_off_c, 1, 66, 0
1, 173220, Note_on_c, 1, 76, 127
1, 173220, Note_on_c, 1, 67, 127
1, 173220, Note_on_c, 1, 71, 127
1, 173249, Note_off_c, 1, 76, 0
1, 173249, Note_off_c, 1, 67, 0
1, 173250, Note_on_c, 1, 75, 127
1, 173250, Note_on_c, 1, 69, 127
1, 173279, Note_off_c, 1, 71, 0
1, 173279, Note_off_c, 1, 75, 0
1, 173279, Note_off_c, 1, 69, 0
1, 173280, Note_on_c, 1, 76, 127
1, 173280, Note_on_c, 1, 67, 127
1, 173280, Note_on_c, 1, 71, 127
1, 173309, Note_off_c, 1, 67, 0
1, 173310, Note_on_c, 1, 66, 127
1, 173339, Note_off_c, 1, 76, 0
1, 173339, Note_off_c, 1, 71, 0
1, 173339, Note_off_c, 1, 66, 0
1, 173340, Note_on_c, 1, 79, 127
1, 173340, Note_on_c, 1, 64, 127
1, 173340, Note_on_c, 1, 76, 127
1, 173340, Note_on_c, 1, 40, 127
1, 173369, Note_off_c, 1, 64, 0
1, 173370, Note_on_c, 1, 67, 127
1, 173399, Note_off_c, 1, 79, 0
1, 173399, Note_off_c, 1, 40, 0
1, 173399, Note_off_c, 1, 67, 0
1, 173400, Note_on_c, 1, 66, 127
1, 173400, Note_on_c, 1, 47, 127
1, 173429, Note_off_c, 1, 66, 0
1, 173459, Note_off_c, 1, 76, 0
1, 173459, Note_off_c, 1, 47, 0
1, 173460, Note_on_c, 1, 66, 127
1, 173460, Note_on_c, 1, 74, 127
1, 173460, Note_on_c, 1, 45, 127
1, 173489, Note_off_c, 1, 66, 0
1, 173489, Note_off_c, 1, 74, 0
1, 173490, Note_on_c, 1, 67, 127
1, 173490, Note_on_c, 1, 73, 127
1, 173519, Note_off_c, 1, 45, 0
1, 173519, Note_off_c, 1, 67, 0
1, 173519, Note_off_c, 1, 73, 0
1, 173520, Note_on_c, 1, 66, 127
1, 173520, Note_on_c, 1, 74, 127
1, 173520, Note_on_c, 1, 47, 127
1, 173549, Note_off_c, 1, 66, 0
1, 173550, Note_on_c, 1, 69, 127
1, 173579, Note_off_c, 1, 74, 0
1, 173579, Note_off_c, 1, 47, 0
1, 173579, Note_off_c, 1, 69, 0
1, 173580, Note_on_c, 1, 68, 127
1, 173580, Note_on_c, 1, 71, 127
1, 173580, Note_on_c, 1, 40, 127
1, 173609, Note_off_c, 1, 68, 0
1, 173639, Note_off_c, 1, 71, 0
1, 173639, Note_off_c, 1, 40, 0
1, 173640, Note_on_c, 1, 69, 127
1, 173640, Note_on_c, 1, 73, 127
1, 173640, Note_on_c, 1, 45, 127
1, 173669, Note_off_c, 1, 73, 0
1, 173670, Note_on_c, 1, 71, 127
1, 173699, Note_off_c, 1, 69, 0
1, 173699, Note_off_c, 1, 45, 0
1, 173699, Note_off_c, 1, 71, 0
1, 173700, Note_on_c, 1, 81, 127
1, 173700, Note_on_c, 1, 64, 127
1, 173700, Note_on_c, 1, 73, 127
1, 173729, Note_off_c, 1, 73, 0
1, 173730, Note_on_c, 1, 74, 127
1, 173759, Note_off_c, 1, 81, 0
1, 173759, Note_off_c, 1, 64, 0
1, 173759, Note_off_c, 1, 74, 0
1, 173760, Note_on_c, 1, 76, 127
1, 173760, Note_on_c, 1, 64, 127
1, 173760, Note_on_c, 1, 73, 127
1, 173789, Note_off_c, 1, 73, 0
1, 173790, Note_on_c, 1, 71, 127
1, 173819, Note_off_c, 1, 76, 0
1, 173819, Note_off_c, 1, 64, 0
1, 173819, Note_off_c, 1, 71, 0
1, 173820, Note_on_c, 1, 73, 127
1, 173820, Note_on_c, 1, 69, 127
1, 173820, Note_on_c, 1, 45, 127
1, 173879, Note_off_c, 1, 73, 0
1, 173879, Note_off_c, 1, 45, 0
1, 173880, Note_on_c, 1, 71, 127
1, 173880, Note_on_c, 1, 52, 127
1, 173909, Note_off_c, 1, 71, 0
1, 173939, Note_off_c, 1, 69, 0
1, 173939, Note_off_c, 1, 52, 0
1, 173940, Note_on_c, 1, 67, 127
1, 173940, Note_on_c, 1, 71, 127
1, 173940, Note_on_c, 1, 50, 127
1, 173969, Note_off_c, 1, 67, 0
1, 173969, Note_off_c, 1, 71, 0
1, 173970, Note_on_c, 1, 66, 127
1, 173970, Note_on_c, 1, 73, 127
1, 173999, Note_off_c, 1, 50, 0
1, 173999, Note_off_c, 1, 66, 0
1, 173999, Note_off_c, 1, 73, 0
1, 174000, Note_on_c, 1, 67, 127
1, 174000, Note_on_c, 1, 71, 127
1, 174000, Note_on_c, 1, 52, 127
1, 174029, Note_off_c, 1, 71, 0
1, 174030, Note_on_c, 1, 74, 127
1, 174059, Note_off_c, 1, 67, 0
1, 174059, Note_off_c, 1, 52, 0
1, 174059, Note_off_c, 1, 74, 0
1, 174060, Note_on_c, 1, 61, 127
1, 174060, Note_on_c, 1, 64, 127
1, 174060, Note_on_c, 1, 73, 127
1, 174060, Note_on_c, 1, 45, 127
1, 174089, Note_off_c, 1, 73, 0
1, 174090, Note_on_c, 1, 76, 127
1, 174119, Note_off_c, 1, 61, 0
1, 174119, Note_off_c, 1, 64, 0
1, 174119, Note_off_c, 1, 45, 0
1, 174119, Note_off_c, 1, 76, 0
1, 174120, Note_on_c, 1, 57, 127
1, 174120, Note_on_c, 1, 66, 127
1, 174120, Note_on_c, 1, 74, 127
1, 174120, Note_on_c, 1, 38, 127
1, 174149, Note_off_c, 1, 66, 0
1, 174150, Note_on_c, 1, 64, 127
1, 174179, Note_off_c, 1, 57, 0
1, 174179, Note_off_c, 1, 74, 0
1, 174179, Note_off_c, 1, 38, 0
1, 174179, Note_off_c, 1, 64, 0
1, 174180, Note_on_c, 1, 74, 127
1, 174180, Note_on_c, 1, 66, 127
1, 174180, Note_on_c, 1, 69, 127
1, 174180, Note_on_c, 1, 50, 127
1, 174209, Note_off_c, 1, 74, 0
1, 174209, Note_off_c, 1, 66, 0
1, 174209, Note_off_c, 1, 50, 0
1, 174210, Note_on_c, 1, 76, 127
1, 174210, Note_on_c, 1, 67, 127
1, 174210, Note_on_c, 1, 49, 127
1, 174239, Note_off_c, 1, 69, 0
1, 174239, Note_off_c, 1, 76, 0
1, 174239, Note_off_c, 1, 67, 0
1, 174239, Note_off_c, 1, 49, 0
1, 174240, Note_on_c, 1, 78, 127
1, 174240, Note_on_c, 1, 66, 127
1, 174240, Note_on_c, 1, 74, 127
1, 174240, Note_on_c, 1, 50, 127
1, 174269, Note_off_c, 1, 66, 0
1, 174270, Note_on_c, 1, 64, 127
1, 174299, Note_off_c, 1, 78, 0
1, 174299, Note_off_c, 1, 50, 0
1, 174299, Note_off_c, 1, 64, 0
1, 174300, Note_on_c, 1, 83, 127
1, 174300, Note_on_c, 1, 62, 127
1, 174300, Note_on_c, 1, 47, 127
1, 174329, Note_off_c, 1, 62, 0
1, 174359, Note_off_c, 1, 83, 0
1, 174359, Note_off_c, 1, 47, 0
1, 174360, Note_on_c, 1, 44, 127
1, 174419, Note_off_c, 1, 74, 0
1, 174419, Note_off_c, 1, 44, 0
1, 174420, Note_on_c, 1, 64, 127
1, 174420, Note_on_c, 1, 73, 127
1, 174420, Note_on_c, 1, 40, 127
1, 174449, Note_off_c, 1, 64, 0
1, 174449, Note_off_c, 1, 73, 0
1, 174450, Note_on_c, 1, 66, 127
1, 174450, Note_on_c, 1, 71, 127
1, 174479, Note_off_c, 1, 40, 0
1, 174479, Note_off_c, 1, 66, 0
1, 174479, Note_off_c, 1, 71, 0
1, 174480, Note_on_c, 1, 64, 127
1, 174480, Note_on_c, 1, 73, 127
1, 174480, Note_on_c, 1, 45, 127
1, 174509, Note_off_c, 1, 64, 0
1, 174510, Note_on_c, 1, 67, 127
1, 174539, Note_off_c, 1, 73, 0
1, 174539, Note_off_c, 1, 45, 0
1, 174539, Note_off_c, 1, 67, 0
1, 174540, Note_on_c, 1, 71, 127
1, 174540, Note_on_c, 1, 66, 127
1, 174540, Note_on_c, 1, 75, 127
1, 174569, Note_off_c, 1, 66, 0
1, 174570, Note_on_c, 1, 69, 127
1, 174599, Note_off_c, 1, 71, 0
1, 174599, Note_off_c, 1, 75, 0
1, 174599, Note_off_c, 1, 69, 0
1, 174600, Note_on_c, 1, 59, 127
1, 174600, Note_on_c, 1, 67, 127
1, 174600, Note_on_c, 1, 76, 127
1, 174629, Note_off_c, 1, 67, 0
1, 174630, Note_on_c, 1, 66, 127
1, 174659, Note_off_c, 1, 59, 0
1, 174659, Note_off_c, 1, 76, 0
1, 174659, Note_off_c, 1, 66, 0
1, 174660, Note_on_c, 1, 64, 127
1, 174660, Note_on_c, 1, 67, 127
1, 174660, Note_on_c, 1, 71, 127
1, 174660, Note_on_c, 1, 52, 127
1, 174689, Note_off_c, 1, 64, 0
1, 174689, Note_off_c, 1, 67, 0
1, 174689, Note_off_c, 1, 52, 0
1, 174690, Note_on_c, 1, 66, 127
1, 174690, Note_on_c, 1, 69, 127
1, 174690, Note_on_c, 1, 51, 127
1, 174719, Note_off_c, 1, 71, 0
1, 174719, Note_off_c, 1, 66, 0
1, 174719, Note_off_c, 1, 69, 0
1, 174719, Note_off_c, 1, 51, 0
1, 174720, Note_on_c, 1, 67, 127
1, 174720, Note_on_c, 1, 76, 127
1, 174720, Note_on_c, 1, 52, 127
1, 174750, Note_on_c, 1, 66, 127
1, 174779, Note_off_c, 1, 67, 0
1, 174779, Note_off_c, 1, 52, 0
1, 174779, Note_off_c, 1, 66, 0
1, 174780, Note_on_c, 1, 64, 127
1, 174780, Note_on_c, 1, 49, 127
1, 174809, Note_off_c, 1, 64, 0
1, 174839, Note_off_c, 1, 49, 0
1, 174840, Note_on_c, 1, 46, 127
1, 174899, Note_off_c, 1, 76, 0
1, 174899, Note_off_c, 1, 46, 0
1, 174900, Note_on_c, 1, 66, 127
1, 174900, Note_on_c, 1, 74, 127
1, 174900, Note_on_c, 1, 42, 127
1, 174929, Note_off_c, 1, 66, 0
1, 174929, Note_off_c, 1, 74, 0
1, 174930, Note_on_c, 1, 67, 127
1, 174930, Note_on_c, 1, 73, 127
1, 174959, Note_off_c, 1, 42, 0
1, 174959, Note_off_c, 1, 67, 0
1, 174959, Note_off_c, 1, 73, 0
1, 174960, Note_on_c, 1, 66, 127
1, 174960, Note_on_c, 1, 74, 127
1, 174960, Note_on_c, 1, 47, 127
1, 174989, Note_off_c, 1, 66, 0
1, 174990, Note_on_c, 1, 69, 127
1, 175019, Note_off_c, 1, 74, 0
1, 175019, Note_off_c, 1, 47, 0
1, 175019, Note_off_c, 1, 69, 0
1, 175020, Note_on_c, 1, 77, 127
1, 175020, Note_on_c, 1, 68, 127
1, 175020, Note_on_c, 1, 71, 127
1, 175049, Note_off_c, 1, 68, 0
1, 175079, Note_off_c, 1, 77, 0
1, 175079, Note_off_c, 1, 71, 0
1, 175080, Note_on_c, 1, 78, 127
1, 175080, Note_on_c, 1, 69, 127
1, 175080, Note_on_c, 1, 73, 127
1, 175109, Note_off_c, 1, 69, 0
1, 175109, Note_off_c, 1, 73, 0
1, 175110, Note_on_c, 1, 68, 127
1, 175110, Note_on_c, 1, 71, 127
1, 175139, Note_off_c, 1, 78, 0
1, 175139, Note_off_c, 1, 68, 0
1, 175139, Note_off_c, 1, 71, 0
1, 175140, Note_on_c, 1, 73, 127
1, 175140, Note_on_c, 1, 69, 127
1, 175140, Note_on_c, 1, 54, 127
1, 175169, Note_off_c, 1, 69, 0
1, 175169, Note_off_c, 1, 54, 0
1, 175170, Note_on_c, 1, 71, 127
1, 175170, Note_on_c, 1, 74, 127
1, 175170, Note_on_c, 1, 53, 127
1, 175199, Note_off_c, 1, 71, 0
1, 175199, Note_off_c, 1, 74, 0
1, 175199, Note_off_c, 1, 53, 0
1, 175230, Note_on_c, 1, 68, 127
1, 175259, Note_off_c, 1, 73, 0
1, 175259, Note_off_c, 1, 68, 0
1, 175260, Note_on_c, 1, 74, 127
1, 175260, Note_on_c, 1, 66, 127
1, 175260, Note_on_c, 1, 69, 127
1, 175260, Note_on_c, 1, 42, 127
1, 175289, Note_off_c, 1, 66, 0
1, 175289, Note_off_c, 1, 69, 0
1, 175290, Note_on_c, 1, 73, 127
1, 175319, Note_off_c, 1, 74, 0
1, 175319, Note_off_c, 1, 42, 0
1, 175319, Note_off_c, 1, 73, 0
1, 175320, Note_on_c, 1, 66, 127
1, 175320, Note_on_c, 1, 68, 127
1, 175320, Note_on_c, 1, 71, 127
1, 175349, Note_off_c, 1, 68, 0
1, 175349, Note_off_c, 1, 71, 0
1, 175350, Note_on_c, 1, 69, 127
1, 175379, Note_off_c, 1, 66, 0
1, 175379, Note_off_c, 1, 69, 0
1, 175380, Note_on_c, 1, 65, 127
1, 175380, Note_on_c, 1, 68, 127
1, 175380, Note_on_c, 1, 71, 127
1, 175380, Note_on_c, 1, 61, 127
1, 175409, Note_off_c, 1, 68, 0
1, 175409, Note_off_c, 1, 71, 0
1, 175409, Note_off_c, 1, 61, 0
1, 175410, Note_on_c, 1, 69, 127
1, 175410, Note_on_c, 1, 73, 127
1, 175410, Note_on_c, 1, 59, 127
1, 175439, Note_off_c, 1, 65, 0
1, 175439, Note_off_c, 1, 69, 0
1, 175439, Note_off_c, 1, 73, 0
1, 175439, Note_off_c, 1, 59, 0
1, 175440, Note_on_c, 1, 68, 127
1, 175440, Note_on_c, 1, 71, 127
1, 175440, Note_on_c, 1, 61, 127
1, 175469, Note_off_c, 1, 68, 0
1, 175469, Note_off_c, 1, 71, 0
1, 175470, Note_on_c, 1, 66, 127
1, 175470, Note_on_c, 1, 69, 127
1, 175499, Note_off_c, 1, 61, 0
1, 175499, Note_off_c, 1, 66, 0
1, 175499, Note_off_c, 1, 69, 0
1, 175500, Note_on_c, 1, 61, 127
1, 175500, Note_on_c, 1, 65, 127
1, 175500, Note_on_c, 1, 68, 127
1, 175500, Note_on_c, 1, 49, 127
1, 175529, Note_off_c, 1, 65, 0
1, 175529, Note_off_c, 1, 68, 0
1, 175530, Note_on_c, 1, 71, 127
1, 175559, Note_off_c, 1, 61, 0
1, 175559, Note_off_c, 1, 49, 0
1, 175559, Note_off_c, 1, 71, 0
1, 175560, Note_on_c, 1, 73, 127
1, 175560, Note_on_c, 1, 66, 127
1, 175560, Note_on_c, 1, 69, 127
1, 175589, Note_off_c, 1, 66, 0
1, 175590, Note_on_c, 1, 68, 127
1, 175619, Note_off_c, 1, 68, 0
1, 175620, Note_on_c, 1, 54, 127
1, 175649, Note_off_c, 1, 54, 0
1, 175650, Note_on_c, 1, 71, 127
1, 175650, Note_on_c, 1, 56, 127
1, 175679, Note_off_c, 1, 71, 0
1, 175679, Note_off_c, 1, 56, 0
1, 175680, Note_on_c, 1, 57, 127
1, 175710, Note_off_c, 1, 73, 0
1, 175710, Note_on_c, 1, 74, 127
1, 175739, Note_off_c, 1, 57, 0
1, 175739, Note_off_c, 1, 74, 0
1, 175740, Note_on_c, 1, 76, 127
1, 175799, Note_off_c, 1, 76, 0
1, 175800, Note_on_c, 1, 59, 127
1, 175829, Note_off_c, 1, 69, 0
1, 175859, Note_off_c, 1, 59, 0
1, 175860, Note_on_c, 1, 74, 127
1, 175860, Note_on_c, 1, 68, 127
1, 175860, Note_on_c, 1, 57, 127
1, 175889, Note_off_c, 1, 68, 0
1, 175890, Note_on_c, 1, 69, 127
1, 175919, Note_off_c, 1, 57, 0
1, 175919, Note_off_c, 1, 69, 0
1, 175920, Note_on_c, 1, 71, 127
1, 175920, Note_on_c, 1, 56, 127
1, 175949, Note_off_c, 1, 71, 0
1, 175950, Note_on_c, 1, 73, 127
1, 175979, Note_off_c, 1, 74, 0
1, 175979, Note_off_c, 1, 56, 0
1, 175979, Note_off_c, 1, 73, 0
1, 175980, Note_on_c, 1, 71, 127
1, 175980, Note_on_c, 1, 73, 127
1, 175980, Note_on_c, 1, 74, 127
1, 175980, Note_on_c, 1, 59, 127
1, 176009, Note_off_c, 1, 73, 0
1, 176039, Note_off_c, 1, 71, 0
1, 176039, Note_off_c, 1, 74, 0
1, 176039, Note_off_c, 1, 59, 0
1, 176040, Note_on_c, 1, 83, 127
1, 176040, Note_on_c, 1, 69, 127
1, 176040, Note_on_c, 1, 74, 127
1, 176040, Note_on_c, 1, 52, 127
1, 176099, Note_off_c, 1, 69, 0
1, 176099, Note_off_c, 1, 74, 0
1, 176100, Note_on_c, 1, 68, 127
1, 176100, Note_on_c, 1, 71, 127
1, 176159, Note_off_c, 1, 52, 0
1, 176159, Note_off_c, 1, 68, 0
1, 176159, Note_off_c, 1, 71, 0
1, 176160, Note_on_c, 1, 78, 127
1, 176190, Note_off_c, 1, 83, 0
1, 176219, Note_off_c, 1, 78, 0
1, 176220, Note_on_c, 1, 73, 127
1, 176220, Note_on_c, 1, 76, 127
1, 176220, Note_on_c, 1, 68, 127
1, 176220, Note_on_c, 1, 50, 127
1, 176249, Note_off_c, 1, 73, 0
1, 176250, Note_on_c, 1, 71, 127
1, 176279, Note_off_c, 1, 76, 0
1, 176279, Note_off_c, 1, 68, 0
1, 176279, Note_off_c, 1, 50, 0
1, 176279, Note_off_c, 1, 71, 0
1, 176280, Note_on_c, 1, 69, 127
1, 176280, Note_on_c, 1, 76, 127
1, 176280, Note_on_c, 1, 49, 127
1, 176339, Note_off_c, 1, 69, 0
1, 176339, Note_off_c, 1, 76, 0
1, 176339, Note_off_c, 1, 49, 0
1, 176340, Note_on_c, 1, 69, 127
1, 176340, Note_on_c, 1, 74, 127
1, 176340, Note_on_c, 1, 54, 127
1, 176369, Note_off_c, 1, 74, 0
1, 176370, Note_on_c, 1, 73, 127
1, 176399, Note_off_c, 1, 69, 0
1, 176399, Note_off_c, 1, 54, 0
1, 176399, Note_off_c, 1, 73, 0
1, 176400, Note_on_c, 1, 71, 127
1, 176400, Note_on_c, 1, 74, 127
1, 176400, Note_on_c, 1, 50, 127
1, 176459, Note_off_c, 1, 71, 0
1, 176459, Note_off_c, 1, 74, 0
1, 176459, Note_off_c, 1, 50, 0
1, 176460, Note_on_c, 1, 68, 127
1, 176460, Note_on_c, 1, 71, 127
1, 176460, Note_on_c, 1, 52, 127
1, 176519, Note_off_c, 1, 68, 0
1, 176519, Note_off_c, 1, 71, 0
1, 176519, Note_off_c, 1, 52, 0
1, 176520, Note_on_c, 1, 73, 127
1, 176520, Note_on_c, 1, 69, 127
1, 176520, Note_on_c, 1, 45, 127
1, 176579, Note_off_c, 1, 73, 0
1, 176579, Note_off_c, 1, 45, 0
1, 176580, Note_on_c, 1, 71, 127
1, 176639, Note_off_c, 1, 69, 0
1, 176640, Note_on_c, 1, 47, 127
1, 176699, Note_off_c, 1, 71, 0
1, 176699, Note_off_c, 1, 47, 0
1, 176700, Note_on_c, 1, 69, 127
1, 176759, Note_off_c, 1, 69, 0
1, 176760, Note_on_c, 1, 76, 127
1, 176760, Note_on_c, 1, 49, 127
1, 176819, Note_off_c, 1, 76, 0
1, 176819, Note_off_c, 1, 49, 0
1, 176820, Note_on_c, 1, 78, 127
1, 176880, Note_on_c, 1, 50, 127
1, 176939, Note_off_c, 1, 78, 0
1, 176939, Note_off_c, 1, 50, 0
1, 176940, Note_on_c, 1, 69, 127
1, 177000, Note_off_c, 1, 69, 0
1, 177000, Note_on_c, 1, 68, 127
1, 177000, Note_on_c, 1, 52, 127
1, 177029, Note_off_c, 1, 68, 0
1, 177059, Note_off_c, 1, 52, 0
1, 177060, Note_on_c, 1, 71, 127
1, 177060, Note_on_c, 1, 45, 127
1, 177089, Note_off_c, 1, 71, 0
1, 177090, Note_on_c, 1, 73, 127
1, 177119, Note_off_c, 1, 45, 0
1, 177119, Note_off_c, 1, 73, 0
1, 177120, Note_on_c, 1, 74, 127
1, 177120, Note_on_c, 1, 44, 127
1, 177179, Note_off_c, 1, 74, 0
1, 177179, Note_off_c, 1, 44, 0
1, 177180, Note_on_c, 1, 73, 127
1, 177180, Note_on_c, 1, 69, 127
1, 177180, Note_on_c, 1, 45, 127
1, 177209, Note_off_c, 1, 73, 0
1, 177239, Note_off_c, 1, 45, 0
1, 177240, Note_on_c, 1, 74, 127
1, 177240, Note_on_c, 1, 40, 127
1, 177254, Note_off_c, 1, 74, 0
1, 177299, Note_off_c, 1, 69, 0
1, 177299, Note_off_c, 1, 40, 0
1, 177300, Note_on_c, 1, 71, 127
1, 177300, Note_on_c, 1, 68, 127
1, 177300, Note_on_c, 1, 52, 127
1, 177329, Note_off_c, 1, 52, 0
1, 177330, Note_on_c, 1, 50, 127
1, 177359, Note_off_c, 1, 71, 0
1, 177359, Note_off_c, 1, 68, 0
1, 177359, Note_off_c, 1, 50, 0
1, 177360, Note_on_c, 1, 82, 127
1, 177360, Note_on_c, 1, 76, 127
1, 177360, Note_on_c, 1, 49, 127
1, 177419, Note_off_c, 1, 82, 0
1, 177419, Note_off_c, 1, 76, 0
1, 177419, Note_off_c, 1, 49, 0
1, 177420, Note_on_c, 1, 83, 127
1, 177420, Note_on_c, 1, 74, 127
1, 177420, Note_on_c, 1, 71, 127
1, 177420, Note_on_c, 1, 47, 127
1, 177479, Note_off_c, 1, 83, 0
1, 177479, Note_off_c, 1, 74, 0
1, 177479, Note_off_c, 1, 47, 0
1, 177480, Note_on_c, 1, 54, 127
1, 177509, Note_off_c, 1, 54, 0
1, 177510, Note_on_c, 1, 52, 127
1, 177539, Note_off_c, 1, 71, 0
1, 177539, Note_off_c, 1, 52, 0
1, 177540, Note_on_c, 1, 76, 127
1, 177540, Note_on_c, 1, 73, 127
1, 177540, Note_on_c, 1, 70, 127
1, 177540, Note_on_c, 1, 54, 127
1, 177569, Note_off_c, 1, 54, 0
1, 177570, Note_on_c, 1, 55, 127
1, 177599, Note_off_c, 1, 73, 0
1, 177599, Note_off_c, 1, 70, 0
1, 177599, Note_off_c, 1, 55, 0
1, 177600, Note_on_c, 1, 78, 127
1, 177630, Note_on_c, 1, 52, 127
1, 177659, Note_off_c, 1, 76, 0
1, 177659, Note_off_c, 1, 78, 0
1, 177659, Note_off_c, 1, 52, 0
1, 177660, Note_on_c, 1, 70, 127
1, 177660, Note_on_c, 1, 76, 127
1, 177660, Note_on_c, 1, 50, 127
1, 177689, Note_off_c, 1, 50, 0
1, 177690, Note_on_c, 1, 49, 127
1, 177719, Note_off_c, 1, 70, 0
1, 177719, Note_off_c, 1, 76, 0
1, 177719, Note_off_c, 1, 49, 0
1, 177720, Note_on_c, 1, 71, 127
1, 177720, Note_on_c, 1, 66, 127
1, 177720, Note_on_c, 1, 74, 127
1, 177720, Note_on_c, 1, 47, 127
1, 177749, Note_off_c, 1, 71, 0
1, 177750, Note_on_c, 1, 83, 127
1, 177779, Note_off_c, 1, 47, 0
1, 177779, Note_off_c, 1, 83, 0
1, 177780, Note_on_c, 1, 81, 127
1, 177780, Note_on_c, 1, 49, 127
1, 177809, Note_off_c, 1, 81, 0
1, 177810, Note_on_c, 1, 79, 127
1, 177839, Note_off_c, 1, 66, 0
1, 177839, Note_off_c, 1, 74, 0
1, 177839, Note_off_c, 1, 49, 0
1, 177839, Note_off_c, 1, 79, 0
1, 177840, Note_on_c, 1, 78, 127
1, 177840, Note_on_c, 1, 71, 127
1, 177840, Note_on_c, 1, 50, 127
1, 177899, Note_off_c, 1, 78, 0
1, 177899, Note_off_c, 1, 50, 0
1, 177900, Note_on_c, 1, 47, 127
1, 177959, Note_off_c, 1, 47, 0
1, 177960, Note_on_c, 1, 49, 127
1, 178019, Note_off_c, 1, 71, 0
1, 178019, Note_off_c, 1, 49, 0
1, 178020, Note_on_c, 1, 69, 127
1, 178020, Note_on_c, 1, 47, 127
1, 178049, Note_off_c, 1, 69, 0
1, 178050, Note_on_c, 1, 67, 127
1, 178079, Note_off_c, 1, 47, 0
1, 178079, Note_off_c, 1, 67, 0
1, 178080, Note_on_c, 1, 69, 127
1, 178080, Note_on_c, 1, 49, 127
1, 178139, Note_off_c, 1, 69, 0
1, 178139, Note_off_c, 1, 49, 0
1, 178140, Note_on_c, 1, 66, 127
1, 178140, Note_on_c, 1, 51, 127
1, 178199, Note_off_c, 1, 66, 0
1, 178199, Note_off_c, 1, 51, 0
1, 178200, Note_on_c, 1, 67, 127
1, 178200, Note_on_c, 1, 71, 127
1, 178200, Note_on_c, 1, 52, 127
1, 178229, Note_off_c, 1, 67, 0
1, 178230, Note_on_c, 1, 66, 127
1, 178259, Note_off_c, 1, 52, 0
1, 178259, Note_off_c, 1, 66, 0
1, 178260, Note_on_c, 1, 76, 127
1, 178290, Note_on_c, 1, 69, 127
1, 178319, Note_off_c, 1, 71, 0
1, 178319, Note_off_c, 1, 76, 0
1, 178319, Note_off_c, 1, 69, 0
1, 178320, Note_on_c, 1, 71, 127
1, 178320, Note_on_c, 1, 67, 127
1, 178320, Note_on_c, 1, 76, 127
1, 178349, Note_off_c, 1, 67, 0
1, 178350, Note_on_c, 1, 66, 127
1, 178379, Note_off_c, 1, 71, 0
1, 178379, Note_off_c, 1, 66, 0
1, 178380, Note_on_c, 1, 64, 127
1, 178380, Note_on_c, 1, 40, 127
1, 178409, Note_off_c, 1, 64, 0
1, 178439, Note_off_c, 1, 40, 0
1, 178440, Note_on_c, 1, 47, 127
1, 178499, Note_off_c, 1, 76, 0
1, 178499, Note_off_c, 1, 47, 0
1, 178500, Note_on_c, 1, 66, 127
1, 178500, Note_on_c, 1, 74, 127
1, 178500, Note_on_c, 1, 45, 127
1, 178529, Note_off_c, 1, 66, 0
1, 178529, Note_off_c, 1, 74, 0
1, 178530, Note_on_c, 1, 67, 127
1, 178530, Note_on_c, 1, 73, 127
1, 178559, Note_off_c, 1, 45, 0
1, 178559, Note_off_c, 1, 67, 0
1, 178559, Note_off_c, 1, 73, 0
1, 178560, Note_on_c, 1, 66, 127
1, 178560, Note_on_c, 1, 74, 127
1, 178560, Note_on_c, 1, 47, 127
1, 178589, Note_off_c, 1, 66, 0
1, 178590, Note_on_c, 1, 69, 127
1, 178619, Note_off_c, 1, 74, 0
1, 178619, Note_off_c, 1, 47, 0
1, 178619, Note_off_c, 1, 69, 0
1, 178620, Note_on_c, 1, 68, 127
1, 178620, Note_on_c, 1, 71, 127
1, 178620, Note_on_c, 1, 40, 127
1, 178649, Note_off_c, 1, 68, 0
1, 178679, Note_off_c, 1, 71, 0
1, 178679, Note_off_c, 1, 40, 0
1, 178680, Note_on_c, 1, 69, 127
1, 178680, Note_on_c, 1, 73, 127
1, 178680, Note_on_c, 1, 45, 127
1, 178709, Note_off_c, 1, 73, 0
1, 178710, Note_on_c, 1, 71, 127
1, 178739, Note_off_c, 1, 69, 0
1, 178739, Note_off_c, 1, 45, 0
1, 178739, Note_off_c, 1, 71, 0
1, 178740, Note_on_c, 1, 81, 127
1, 178740, Note_on_c, 1, 64, 127
1, 178740, Note_on_c, 1, 73, 127
1, 178769, Note_off_c, 1, 81, 0
1, 178769, Note_off_c, 1, 73, 0
1, 178770, Note_on_c, 1, 80, 127
1, 178770, Note_on_c, 1, 74, 127
1, 178799, Note_off_c, 1, 64, 0
1, 178799, Note_off_c, 1, 80, 0
1, 178799, Note_off_c, 1, 74, 0
1, 178800, Note_on_c, 1, 81, 127
1, 178800, Note_on_c, 1, 64, 127
1, 178800, Note_on_c, 1, 73, 127
1, 178829, Note_off_c, 1, 73, 0
1, 178830, Note_on_c, 1, 71, 127
1, 178859, Note_off_c, 1, 81, 0
1, 178859, Note_off_c, 1, 64, 0
1, 178859, Note_off_c, 1, 71, 0
1, 178860, Note_on_c, 1, 69, 127
1, 178860, Note_on_c, 1, 45, 127
1, 178890, Note_on_c, 1, 73, 127
1, 178919, Note_off_c, 1, 45, 0
1, 178919, Note_off_c, 1, 73, 0
1, 178920, Note_on_c, 1, 71, 127
1, 178920, Note_on_c, 1, 52, 127
1, 178949, Note_off_c, 1, 71, 0
1, 178979, Note_off_c, 1, 69, 0
1, 178979, Note_off_c, 1, 52, 0
1, 178980, Note_on_c, 1, 67, 127
1, 178980, Note_on_c, 1, 71, 127
1, 178980, Note_on_c, 1, 50, 127
1, 179009, Note_off_c, 1, 67, 0
1, 179009, Note_off_c, 1, 71, 0
1, 179010, Note_on_c, 1, 66, 127
1, 179010, Note_on_c, 1, 73, 127
1, 179039, Note_off_c, 1, 50, 0
1, 179039, Note_off_c, 1, 66, 0
1, 179039, Note_off_c, 1, 73, 0
1, 179040, Note_on_c, 1, 67, 127
1, 179040, Note_on_c, 1, 71, 127
1, 179040, Note_on_c, 1, 52, 127
1, 179069, Note_off_c, 1, 71, 0
1, 179070, Note_on_c, 1, 74, 127
1, 179099, Note_off_c, 1, 67, 0
1, 179099, Note_off_c, 1, 52, 0
1, 179099, Note_off_c, 1, 74, 0
1, 179100, Note_on_c, 1, 64, 127
1, 179100, Note_on_c, 1, 73, 127
1, 179100, Note_on_c, 1, 45, 127
1, 179129, Note_off_c, 1, 73, 0
1, 179130, Note_on_c, 1, 76, 127
1, 179159, Note_off_c, 1, 64, 0
1, 179159, Note_off_c, 1, 45, 0
1, 179159, Note_off_c, 1, 76, 0
1, 179160, Note_on_c, 1, 66, 127
1, 179160, Note_on_c, 1, 74, 127
1, 179160, Note_on_c, 1, 50, 127
1, 179189, Note_off_c, 1, 66, 0
1, 179190, Note_on_c, 1, 64, 127
1, 179219, Note_off_c, 1, 74, 0
1, 179219, Note_off_c, 1, 50, 0
1, 179219, Note_off_c, 1, 64, 0
1, 179220, Note_on_c, 1, 74, 127
1, 179220, Note_on_c, 1, 66, 127
1, 179220, Note_on_c, 1, 69, 127
1, 179249, Note_off_c, 1, 66, 0
1, 179250, Note_on_c, 1, 67, 127
1, 179279, Note_off_c, 1, 74, 0
1, 179279, Note_off_c, 1, 69, 0
1, 179279, Note_off_c, 1, 67, 0
1, 179280, Note_on_c, 1, 69, 127
1, 179280, Note_on_c, 1, 66, 127
1, 179309, Note_off_c, 1, 66, 0
1, 179310, Note_on_c, 1, 64, 127
1, 179339, Note_off_c, 1, 69, 0
1, 179339, Note_off_c, 1, 64, 0
1, 179340, Note_on_c, 1, 66, 127
1, 179340, Note_on_c, 1, 62, 127
1, 179340, Note_on_c, 1, 74, 127
1, 179340, Note_on_c, 1, 38, 127
1, 179369, Note_off_c, 1, 62, 0
1, 179399, Note_off_c, 1, 66, 0
1, 179399, Note_off_c, 1, 38, 0
1, 179400, Note_on_c, 1, 64, 127
1, 179400, Note_on_c, 1, 45, 127
1, 179429, Note_off_c, 1, 64, 0
1, 179459, Note_off_c, 1, 74, 0
1, 179459, Note_off_c, 1, 45, 0
1, 179460, Note_on_c, 1, 64, 127
1, 179460, Note_on_c, 1, 72, 127
1, 179460, Note_on_c, 1, 43, 127
1, 179489, Note_off_c, 1, 64, 0
1, 179489, Note_off_c, 1, 72, 0
1, 179490, Note_on_c, 1, 66, 127
1, 179490, Note_on_c, 1, 71, 127
1, 179519, Note_off_c, 1, 43, 0
1, 179519, Note_off_c, 1, 66, 0
1, 179519, Note_off_c, 1, 71, 0
1, 179520, Note_on_c, 1, 64, 127
1, 179520, Note_on_c, 1, 72, 127
1, 179520, Note_on_c, 1, 45, 127
1, 179549, Note_off_c, 1, 64, 0
1, 179550, Note_on_c, 1, 67, 127
1, 179579, Note_off_c, 1, 72, 0
1, 179579, Note_off_c, 1, 45, 0
1, 179579, Note_off_c, 1, 67, 0
1, 179580, Note_on_c, 1, 66, 127
1, 179580, Note_on_c, 1, 69, 127
1, 179580, Note_on_c, 1, 38, 127
1, 179639, Note_off_c, 1, 66, 0
1, 179639, Note_off_c, 1, 69, 0
1, 179639, Note_off_c, 1, 38, 0
1, 179640, Note_on_c, 1, 62, 127
1, 179640, Note_on_c, 1, 67, 127
1, 179640, Note_on_c, 1, 71, 127
1, 179640, Note_on_c, 1, 43, 127
1, 179669, Note_off_c, 1, 71, 0
1, 179670, Note_on_c, 1, 69, 127
1, 179699, Note_off_c, 1, 62, 0
1, 179699, Note_off_c, 1, 67, 0
1, 179699, Note_off_c, 1, 43, 0
1, 179699, Note_off_c, 1, 69, 0
1, 179700, Note_on_c, 1, 67, 127
1, 179700, Note_on_c, 1, 62, 127
1, 179700, Note_on_c, 1, 71, 127
1, 179700, Note_on_c, 1, 55, 127
1, 179729, Note_off_c, 1, 67, 0
1, 179729, Note_off_c, 1, 71, 0
1, 179729, Note_off_c, 1, 55, 0
1, 179730, Note_on_c, 1, 69, 127
1, 179730, Note_on_c, 1, 72, 127
1, 179730, Note_on_c, 1, 54, 127
1, 179759, Note_off_c, 1, 62, 0
1, 179759, Note_off_c, 1, 69, 0
1, 179759, Note_off_c, 1, 72, 0
1, 179759, Note_off_c, 1, 54, 0
1, 179760, Note_on_c, 1, 71, 127
1, 179760, Note_on_c, 1, 67, 127
1, 179760, Note_on_c, 1, 55, 127
1, 179790, Note_on_c, 1, 69, 127
1, 179819, Note_off_c, 1, 71, 0
1, 179819, Note_off_c, 1, 55, 0
1, 179819, Note_off_c, 1, 69, 0
1, 179820, Note_on_c, 1, 76, 127
1, 179820, Note_on_c, 1, 52, 127
1, 179879, Note_off_c, 1, 76, 0
1, 179879, Note_off_c, 1, 52, 0
1, 179880, Note_on_c, 1, 49, 127
1, 179939, Note_off_c, 1, 67, 0
1, 179939, Note_off_c, 1, 49, 0
1, 179940, Note_on_c, 1, 66, 127
1, 179940, Note_on_c, 1, 69, 127
1, 179940, Note_on_c, 1, 45, 127
1, 179969, Note_off_c, 1, 66, 0
1, 179969, Note_off_c, 1, 69, 0
1, 179970, Note_on_c, 1, 64, 127
1, 179970, Note_on_c, 1, 71, 127
1, 179999, Note_off_c, 1, 45, 0
1, 179999, Note_off_c, 1, 64, 0
1, 179999, Note_off_c, 1, 71, 0
1, 180000, Note_on_c, 1, 66, 127
1, 180000, Note_on_c, 1, 69, 127
1, 180000, Note_on_c, 1, 50, 127
1, 180029, Note_off_c, 1, 69, 0
1, 180030, Note_on_c, 1, 72, 127
1, 180059, Note_off_c, 1, 66, 0
1, 180059, Note_off_c, 1, 50, 0
1, 180059, Note_off_c, 1, 72, 0
1, 180060, Note_on_c, 1, 76, 127
1, 180060, Note_on_c, 1, 68, 127
1, 180060, Note_on_c, 1, 71, 127
1, 180089, Note_off_c, 1, 71, 0
1, 180090, Note_on_c, 1, 74, 127
1, 180119, Note_off_c, 1, 76, 0
1, 180119, Note_off_c, 1, 68, 0
1, 180119, Note_off_c, 1, 74, 0
1, 180120, Note_on_c, 1, 64, 127
1, 180120, Note_on_c, 1, 69, 127
1, 180120, Note_on_c, 1, 72, 127
1, 180149, Note_off_c, 1, 72, 0
1, 180150, Note_on_c, 1, 71, 127
1, 180179, Note_off_c, 1, 64, 0
1, 180179, Note_off_c, 1, 69, 0
1, 180179, Note_off_c, 1, 71, 0
1, 180180, Note_on_c, 1, 69, 127
1, 180180, Note_on_c, 1, 64, 127
1, 180180, Note_on_c, 1, 72, 127
1, 180180, Note_on_c, 1, 57, 127
1, 180209, Note_off_c, 1, 69, 0
1, 180209, Note_off_c, 1, 72, 0
1, 180209, Note_off_c, 1, 57, 0
1, 180210, Note_on_c, 1, 71, 127
1, 180210, Note_on_c, 1, 74, 127
1, 180210, Note_on_c, 1, 56, 127
1, 180239, Note_off_c, 1, 64, 0
1, 180239, Note_off_c, 1, 71, 0
1, 180239, Note_off_c, 1, 74, 0
1, 180239, Note_off_c, 1, 56, 0
1, 180240, Note_on_c, 1, 72, 127
1, 180240, Note_on_c, 1, 69, 127
1, 180240, Note_on_c, 1, 57, 127
1, 180270, Note_on_c, 1, 71, 127
1, 180299, Note_off_c, 1, 72, 0
1, 180299, Note_off_c, 1, 57, 0
1, 180299, Note_off_c, 1, 71, 0
1, 180300, Note_on_c, 1, 81, 127
1, 180300, Note_on_c, 1, 54, 127
1, 180359, Note_off_c, 1, 81, 0
1, 180359, Note_off_c, 1, 54, 0
1, 180360, Note_on_c, 1, 51, 127
1, 180419, Note_off_c, 1, 69, 0
1, 180419, Note_off_c, 1, 51, 0
1, 180420, Note_on_c, 1, 67, 127
1, 180420, Note_on_c, 1, 71, 127
1, 180420, Note_on_c, 1, 47, 127
1, 180449, Note_off_c, 1, 67, 0
1, 180449, Note_off_c, 1, 71, 0
1, 180450, Note_on_c, 1, 66, 127
1, 180450, Note_on_c, 1, 72, 127
1, 180479, Note_off_c, 1, 47, 0
1, 180479, Note_off_c, 1, 66, 0
1, 180479, Note_off_c, 1, 72, 0
1, 180480, Note_on_c, 1, 67, 127
1, 180480, Note_on_c, 1, 71, 127
1, 180480, Note_on_c, 1, 52, 127
1, 180509, Note_off_c, 1, 71, 0
1, 180510, Note_on_c, 1, 74, 127
1, 180539, Note_off_c, 1, 67, 0
1, 180539, Note_off_c, 1, 52, 0
1, 180539, Note_off_c, 1, 74, 0
1, 180540, Note_on_c, 1, 70, 127
1, 180540, Note_on_c, 1, 79, 127
1, 180540, Note_on_c, 1, 73, 127
1, 180569, Note_off_c, 1, 73, 0
1, 180570, Note_on_c, 1, 76, 127
1, 180599, Note_off_c, 1, 70, 0
1, 180599, Note_off_c, 1, 79, 0
1, 180599, Note_off_c, 1, 76, 0
1, 180600, Note_on_c, 1, 71, 127
1, 180600, Note_on_c, 1, 78, 127
1, 180600, Note_on_c, 1, 74, 127
1, 180629, Note_off_c, 1, 78, 0
1, 180629, Note_off_c, 1, 74, 0
1, 180630, Note_on_c, 1, 76, 127
1, 180630, Note_on_c, 1, 73, 127
1, 180659, Note_off_c, 1, 71, 0
1, 180659, Note_off_c, 1, 76, 0
1, 180659, Note_off_c, 1, 73, 0
1, 180660, Note_on_c, 1, 78, 127
1, 180660, Note_on_c, 1, 74, 127
1, 180660, Note_on_c, 1, 59, 127
1, 180689, Note_off_c, 1, 74, 0
1, 180689, Note_off_c, 1, 59, 0
1, 180690, Note_on_c, 1, 79, 127
1, 180690, Note_on_c, 1, 76, 127
1, 180690, Note_on_c, 1, 58, 127
1, 180719, Note_off_c, 1, 79, 0
1, 180719, Note_off_c, 1, 76, 0
1, 180719, Note_off_c, 1, 58, 0
1, 180750, Note_on_c, 1, 73, 127
1, 180779, Note_off_c, 1, 78, 0
1, 180779, Note_off_c, 1, 73, 0
1, 180780, Note_on_c, 1, 79, 127
1, 180780, Note_on_c, 1, 74, 127
1, 180780, Note_on_c, 1, 71, 127
1, 180780, Note_on_c, 1, 47, 127
1, 180809, Note_off_c, 1, 74, 0
1, 180809, Note_off_c, 1, 71, 0
1, 180810, Note_on_c, 1, 78, 127
1, 180839, Note_off_c, 1, 79, 0
1, 180839, Note_off_c, 1, 47, 0
1, 180839, Note_off_c, 1, 78, 0
1, 180840, Note_on_c, 1, 71, 127
1, 180840, Note_on_c, 1, 76, 127
1, 180840, Note_on_c, 1, 73, 127
1, 180869, Note_off_c, 1, 76, 0
1, 180869, Note_off_c, 1, 73, 0
1, 180870, Note_on_c, 1, 74, 127
1, 180899, Note_off_c, 1, 71, 0
1, 180899, Note_off_c, 1, 74, 0
1, 180900, Note_on_c, 1, 70, 127
1, 180900, Note_on_c, 1, 76, 127
1, 180900, Note_on_c, 1, 73, 127
1, 180900, Note_on_c, 1, 54, 127
1, 180929, Note_off_c, 1, 76, 0
1, 180929, Note_off_c, 1, 73, 0
1, 180929, Note_off_c, 1, 54, 0
1, 180930, Note_on_c, 1, 78, 127
1, 180930, Note_on_c, 1, 74, 127
1, 180930, Note_on_c, 1, 52, 127
1, 180959, Note_off_c, 1, 70, 0
1, 180959, Note_off_c, 1, 78, 0
1, 180959, Note_off_c, 1, 74, 0
1, 180959, Note_off_c, 1, 52, 0
1, 180960, Note_on_c, 1, 76, 127
1, 180960, Note_on_c, 1, 73, 127
1, 180960, Note_on_c, 1, 54, 127
1, 180989, Note_off_c, 1, 76, 0
1, 180989, Note_off_c, 1, 73, 0
1, 180990, Note_on_c, 1, 74, 127
1, 180990, Note_on_c, 1, 71, 127
1, 181019, Note_off_c, 1, 54, 0
1, 181019, Note_off_c, 1, 74, 0
1, 181019, Note_off_c, 1, 71, 0
1, 181020, Note_on_c, 1, 66, 127
1, 181020, Note_on_c, 1, 73, 127
1, 181020, Note_on_c, 1, 70, 127
1, 181020, Note_on_c, 1, 42, 127
1, 181049, Note_off_c, 1, 73, 0
1, 181049, Note_off_c, 1, 70, 0
1, 181050, Note_on_c, 1, 76, 127
1, 181079, Note_off_c, 1, 66, 0
1, 181079, Note_off_c, 1, 42, 0
1, 181079, Note_off_c, 1, 76, 0
1, 181080, Note_on_c, 1, 78, 127
1, 181080, Note_on_c, 1, 74, 127
1, 181080, Note_on_c, 1, 71, 127
1, 181109, Note_off_c, 1, 71, 0
1, 181110, Note_on_c, 1, 73, 127
1, 181139, Note_off_c, 1, 73, 0
1, 181140, Note_on_c, 1, 47, 127
1, 181169, Note_off_c, 1, 47, 0
1, 181170, Note_on_c, 1, 76, 127
1, 181170, Note_on_c, 1, 49, 127
1, 181199, Note_off_c, 1, 76, 0
1, 181199, Note_off_c, 1, 49, 0
1, 181200, Note_on_c, 1, 50, 127
1, 181230, Note_off_c, 1, 78, 0
1, 181230, Note_on_c, 1, 79, 127
1, 181259, Note_off_c, 1, 50, 0
1, 181259, Note_off_c, 1, 79, 0
1, 181260, Note_on_c, 1, 81, 127
1, 181319, Note_off_c, 1, 81, 0
1, 181320, Note_on_c, 1, 52, 127
1, 181350, Note_off_c, 1, 74, 0
1, 181379, Note_off_c, 1, 52, 0
1, 181380, Note_on_c, 1, 73, 127
1, 181380, Note_on_c, 1, 79, 127
1, 181380, Note_on_c, 1, 50, 127
1, 181409, Note_off_c, 1, 73, 0
1, 181410, Note_on_c, 1, 74, 127
1, 181439, Note_off_c, 1, 50, 0
1, 181439, Note_off_c, 1, 74, 0
1, 181440, Note_on_c, 1, 76, 127
1, 181440, Note_on_c, 1, 49, 127
1, 181469, Note_off_c, 1, 76, 0
1, 181470, Note_on_c, 1, 78, 127
1, 181499, Note_off_c, 1, 79, 0
1, 181499, Note_off_c, 1, 49, 0
1, 181499, Note_off_c, 1, 78, 0
1, 181500, Note_on_c, 1, 64, 127
1, 181500, Note_on_c, 1, 79, 127
1, 181500, Note_on_c, 1, 78, 127
1, 181500, Note_on_c, 1, 52, 127
1, 181529, Note_off_c, 1, 78, 0
1, 181530, Note_on_c, 1, 76, 127
1, 181559, Note_off_c, 1, 64, 0
1, 181559, Note_off_c, 1, 79, 0
1, 181559, Note_off_c, 1, 52, 0
1, 181559, Note_off_c, 1, 76, 0
1, 181560, Note_on_c, 1, 76, 127
1, 181560, Note_on_c, 1, 79, 127
1, 181560, Note_on_c, 1, 74, 127
1, 181560, Note_on_c, 1, 45, 127
1, 181619, Note_off_c, 1, 79, 0
1, 181619, Note_off_c, 1, 74, 0
1, 181620, Note_on_c, 1, 73, 127
1, 181679, Note_off_c, 1, 45, 0
1, 181679, Note_off_c, 1, 73, 0
1, 181680, Note_on_c, 1, 71, 127
1, 181710, Note_off_c, 1, 76, 0
1, 181739, Note_off_c, 1, 71, 0
1, 181740, Note_on_c, 1, 78, 127
1, 181740, Note_on_c, 1, 73, 127
1, 181740, Note_on_c, 1, 69, 127
1, 181740, Note_on_c, 1, 43, 127
1, 181769, Note_off_c, 1, 78, 0
1, 181770, Note_on_c, 1, 76, 127
1, 181799, Note_off_c, 1, 73, 0
1, 181799, Note_off_c, 1, 69, 0
1, 181799, Note_off_c, 1, 43, 0
1, 181799, Note_off_c, 1, 76, 0
1, 181800, Note_on_c, 1, 74, 127
1, 181800, Note_on_c, 1, 71, 127
1, 181800, Note_on_c, 1, 42, 127
1, 181829, Note_off_c, 1, 71, 0
1, 181830, Note_on_c, 1, 69, 127
1, 181859, Note_off_c, 1, 74, 0
1, 181859, Note_off_c, 1, 42, 0
1, 181859, Note_off_c, 1, 69, 0
1, 181860, Note_on_c, 1, 74, 127
1, 181860, Note_on_c, 1, 79, 127
1, 181860, Note_on_c, 1, 47, 127
1, 181889, Note_off_c, 1, 79, 0
1, 181890, Note_on_c, 1, 78, 127
1, 181919, Note_off_c, 1, 47, 0
1, 181919, Note_off_c, 1, 78, 0
1, 181920, Note_on_c, 1, 43, 127
1, 181949, Note_off_c, 1, 74, 0
1, 181950, Note_on_c, 1, 76, 127
1, 181979, Note_off_c, 1, 43, 0
1, 181979, Note_off_c, 1, 76, 0
1, 181980, Note_on_c, 1, 73, 127
1, 181980, Note_on_c, 1, 76, 127
1, 181980, Note_on_c, 1, 45, 127
1, 182039, Note_off_c, 1, 73, 0
1, 182039, Note_off_c, 1, 76, 0
1, 182039, Note_off_c, 1, 45, 0
1, 182040, Note_on_c, 1, 78, 127
1, 182040, Note_on_c, 1, 74, 127
1, 182040, Note_on_c, 1, 50, 127
1, 182099, Note_off_c, 1, 78, 0
1, 182099, Note_off_c, 1, 50, 0
1, 182100, Note_on_c, 1, 76, 127
1, 182159, Note_off_c, 1, 74, 0
1, 182160, Note_on_c, 1, 52, 127
1, 182219, Note_off_c, 1, 76, 0
1, 182219, Note_off_c, 1, 52, 0
1, 182220, Note_on_c, 1, 74, 127
1, 182279, Note_off_c, 1, 74, 0
1, 182280, Note_on_c, 1, 81, 127
1, 182280, Note_on_c, 1, 54, 127
1, 182339, Note_off_c, 1, 81, 0
1, 182339, Note_off_c, 1, 54, 0
1, 182340, Note_on_c, 1, 83, 127
1, 182400, Note_on_c, 1, 55, 127
1, 182459, Note_off_c, 1, 83, 0
1, 182459, Note_off_c, 1, 55, 0
1, 182460, Note_on_c, 1, 74, 127
1, 182519, Note_off_c, 1, 74, 0
1, 182520, Note_on_c, 1, 73, 127
1, 182520, Note_on_c, 1, 57, 127
1, 182549, Note_off_c, 1, 73, 0
1, 182550, Note_on_c, 1, 74, 127
1, 182579, Note_off_c, 1, 57, 0
1, 182579, Note_off_c, 1, 74, 0
1, 182580, Note_on_c, 1, 76, 127
1, 182580, Note_on_c, 1, 50, 127
1, 182609, Note_off_c, 1, 76, 0
1, 182610, Note_on_c, 1, 78, 127
1, 182639, Note_off_c, 1, 50, 0
1, 182639, Note_off_c, 1, 78, 0
1, 182640, Note_on_c, 1, 79, 127
1, 182640, Note_on_c, 1, 49, 127
1, 182699, Note_off_c, 1, 79, 0
1, 182699, Note_off_c, 1, 49, 0
1, 182700, Note_on_c, 1, 78, 127
1, 182700, Note_on_c, 1, 74, 127
1, 182700, Note_on_c, 1, 50, 127
1, 182729, Note_off_c, 1, 78, 0
1, 182759, Note_off_c, 1, 50, 0
1, 182760, Note_on_c, 1, 79, 127
1, 182760, Note_on_c, 1, 45, 127
1, 182774, Note_off_c, 1, 79, 0
1, 182819, Note_off_c, 1, 74, 0
1, 182819, Note_off_c, 1, 45, 0
1, 182820, Note_on_c, 1, 76, 127
1, 182820, Note_on_c, 1, 73, 127
1, 182820, Note_on_c, 1, 57, 127
1, 182849, Note_off_c, 1, 57, 0
1, 182850, Note_on_c, 1, 55, 127
1, 182879, Note_off_c, 1, 76, 0
1, 182879, Note_off_c, 1, 73, 0
1, 182879, Note_off_c, 1, 55, 0
1, 182880, Note_on_c, 1, 87, 127
1, 182880, Note_on_c, 1, 81, 127
1, 182880, Note_on_c, 1, 54, 127
1, 182939, Note_off_c, 1, 87, 0
1, 182939, Note_off_c, 1, 81, 0
1, 182939, Note_off_c, 1, 54, 0
1, 182940, Note_on_c, 1, 88, 127
1, 182940, Note_on_c, 1, 76, 127
1, 182940, Note_on_c, 1, 79, 127
1, 182940, Note_on_c, 1, 52, 127
1, 182999, Note_off_c, 1, 88, 0
1, 182999, Note_off_c, 1, 79, 0
1, 182999, Note_off_c, 1, 52, 0
1, 183000, Note_on_c, 1, 59, 127
1, 183029, Note_off_c, 1, 59, 0
1, 183030, Note_on_c, 1, 60, 127
1, 183059, Note_off_c, 1, 76, 0
1, 183059, Note_off_c, 1, 60, 0
1, 183060, Note_on_c, 1, 83, 127
1, 183060, Note_on_c, 1, 75, 127
1, 183060, Note_on_c, 1, 78, 127
1, 183060, Note_on_c, 1, 59, 127
1, 183089, Note_off_c, 1, 75, 0
1, 183089, Note_off_c, 1, 59, 0
1, 183090, Note_on_c, 1, 76, 127
1, 183090, Note_on_c, 1, 57, 127
1, 183104, Note_off_c, 1, 76, 0
1, 183119, Note_off_c, 1, 83, 0
1, 183119, Note_off_c, 1, 78, 0
1, 183119, Note_off_c, 1, 57, 0
1, 183120, Note_on_c, 1, 76, 127
1, 183120, Note_on_c, 1, 71, 127
1, 183120, Note_on_c, 1, 55, 127
1, 183149, Note_off_c, 1, 55, 0
1, 183150, Note_on_c, 1, 54, 127
1, 183179, Note_off_c, 1, 76, 0
1, 183179, Note_off_c, 1, 71, 0
1, 183179, Note_off_c, 1, 54, 0
1, 183180, Note_on_c, 1, 78, 127
1, 183180, Note_on_c, 1, 69, 127
1, 183180, Note_on_c, 1, 52, 127
1, 183209, Note_off_c, 1, 52, 0
1, 183210, Note_on_c, 1, 51, 127
1, 183239, Note_off_c, 1, 78, 0
1, 183239, Note_off_c, 1, 69, 0
1, 183239, Note_off_c, 1, 51, 0
1, 183240, Note_on_c, 1, 71, 127
1, 183240, Note_on_c, 1, 67, 127
1, 183240, Note_on_c, 1, 52, 127
1, 183299, Note_off_c, 1, 71, 0
1, 183299, Note_off_c, 1, 52, 0
1, 183300, Note_on_c, 1, 72, 127
1, 183359, Note_off_c, 1, 67, 0
1, 183360, Note_on_c, 1, 50, 127
1, 183419, Note_off_c, 1, 72, 0
1, 183419, Note_off_c, 1, 50, 0
1, 183420, Note_on_c, 1, 71, 127
1, 183480, Note_off_c, 1, 71, 0
1, 183480, Note_on_c, 1, 75, 127
1, 183480, Note_on_c, 1, 48, 127
1, 183539, Note_off_c, 1, 75, 0
1, 183539, Note_off_c, 1, 48, 0
1, 183540, Note_on_c, 1, 76, 127
1, 183600, Note_on_c, 1, 47, 127
1, 183629, Note_off_c, 1, 76, 0
1, 183630, Note_on_c, 1, 79, 127
1, 183659, Note_off_c, 1, 47, 0
1, 183659, Note_off_c, 1, 79, 0
1, 183660, Note_on_c, 1, 78, 127
1, 183689, Note_off_c, 1, 78, 0
1, 183690, Note_on_c, 1, 76, 127
1, 183719, Note_off_c, 1, 76, 0
1, 183720, Note_on_c, 1, 84, 127
1, 183720, Note_on_c, 1, 45, 127
1, 183749, Note_off_c, 1, 84, 0
1, 183750, Note_on_c, 1, 83, 127
1, 183779, Note_off_c, 1, 45, 0
1, 183779, Note_off_c, 1, 83, 0
1, 183780, Note_on_c, 1, 81, 127
1, 183780, Note_on_c, 1, 54, 127
1, 183809, Note_off_c, 1, 81, 0
1, 183810, Note_on_c, 1, 79, 127
1, 183839, Note_off_c, 1, 54, 0
1, 183839, Note_off_c, 1, 79, 0
1, 183840, Note_on_c, 1, 78, 127
1, 183840, Note_on_c, 1, 55, 127
1, 183899, Note_off_c, 1, 78, 0
1, 183899, Note_off_c, 1, 55, 0
1, 183900, Note_on_c, 1, 76, 127
1, 183900, Note_on_c, 1, 57, 127
1, 183959, Note_off_c, 1, 76, 0
1, 183959, Note_off_c, 1, 57, 0
1, 183960, Note_on_c, 1, 76, 127
1, 183960, Note_on_c, 1, 59, 127
1, 183989, Note_off_c, 1, 76, 0
1, 183990, Note_on_c, 1, 75, 127
1, 184019, Note_off_c, 1, 59, 0
1, 184019, Note_off_c, 1, 75, 0
1, 184020, Note_on_c, 1, 76, 127
1, 184020, Note_on_c, 1, 47, 127
1, 184049, Note_off_c, 1, 76, 0
1, 184050, Note_on_c, 1, 78, 127
1, 184079, Note_off_c, 1, 47, 0
1, 184079, Note_off_c, 1, 78, 0
1, 184080, Note_on_c, 1, 78, 127
1, 184080, Note_on_c, 1, 51, 127
1, 184109, Note_off_c, 1, 78, 0
1, 184110, Note_on_c, 1, 72, 127
1, 184139, Note_off_c, 1, 51, 0
1, 184139, Note_off_c, 1, 72, 0
1, 184140, Note_on_c, 1, 71, 127
1, 184140, Note_on_c, 1, 47, 127
1, 184169, Note_off_c, 1, 71, 0
1, 184170, Note_on_c, 1, 69, 127
1, 184199, Note_off_c, 1, 47, 0
1, 184199, Note_off_c, 1, 69, 0
1, 184200, Note_on_c, 1, 67, 127
1, 184200, Note_on_c, 1, 52, 127
1, 184215, Note_on_c, 1, 66, 127
1, 184229, Note_off_c, 1, 66, 0
1, 184230, Note_on_c, 1, 64, 127
1, 184259, Note_off_c, 1, 67, 0
1, 184259, Note_off_c, 1, 52, 0
1, 184259, Note_off_c, 1, 64, 0
1, 184260, Note_on_c, 1, 63, 127
1, 184260, Note_on_c, 1, 66, 127
1, 184320, Note_on_c, 1, 54, 127
1, 184349, Note_off_c, 1, 63, 0
1, 184350, Note_on_c, 1, 69, 127
1, 184379, Note_off_c, 1, 66, 0
1, 184379, Note_off_c, 1, 54, 0
1, 184379, Note_off_c, 1, 69, 0
1, 184380, Note_on_c, 1, 67, 127
1, 184380, Note_on_c, 1, 64, 127
1, 184409, Note_off_c, 1, 67, 0
1, 184410, Note_on_c, 1, 66, 127
1, 184439, Note_off_c, 1, 64, 0
1, 184439, Note_off_c, 1, 66, 0
1, 184440, Note_on_c, 1, 64, 127
1, 184440, Note_on_c, 1, 71, 127
1, 184440, Note_on_c, 1, 55, 127
1, 184469, Note_off_c, 1, 64, 0
1, 184470, Note_on_c, 1, 59, 127
1, 184499, Note_off_c, 1, 71, 0
1, 184499, Note_off_c, 1, 55, 0
1, 184499, Note_off_c, 1, 59, 0
1, 184500, Note_on_c, 1, 55, 127
1, 184500, Note_on_c, 1, 72, 127
1, 184559, Note_off_c, 1, 55, 0
1, 184560, Note_on_c, 1, 57, 127
1, 184619, Note_off_c, 1, 72, 0
1, 184619, Note_off_c, 1, 57, 0
1, 184620, Note_on_c, 1, 64, 127
1, 184679, Note_off_c, 1, 64, 0
1, 184680, Note_on_c, 1, 63, 127
1, 184680, Note_on_c, 1, 59, 127
1, 184709, Note_off_c, 1, 63, 0
1, 184710, Note_on_c, 1, 64, 127
1, 184739, Note_off_c, 1, 59, 0
1, 184739, Note_off_c, 1, 64, 0
1, 184740, Note_on_c, 1, 66, 127
1, 184740, Note_on_c, 1, 52, 127
1, 184769, Note_off_c, 1, 66, 0
1, 184770, Note_on_c, 1, 67, 127
1, 184799, Note_off_c, 1, 52, 0
1, 184799, Note_off_c, 1, 67, 0
1, 184800, Note_on_c, 1, 69, 127
1, 184800, Note_on_c, 1, 51, 127
1, 184859, Note_off_c, 1, 69, 0
1, 184859, Note_off_c, 1, 51, 0
1, 184860, Note_on_c, 1, 76, 127
1, 184860, Note_on_c, 1, 67, 127
1, 184860, Note_on_c, 1, 52, 127
1, 184919, Note_off_c, 1, 67, 0
1, 184919, Note_off_c, 1, 52, 0
1, 184920, Note_on_c, 1, 59, 127
1, 184935, Note_off_c, 1, 76, 0
1, 184935, Note_on_c, 1, 75, 127
1, 184949, Note_off_c, 1, 75, 0
1, 184950, Note_on_c, 1, 73, 127
1, 184979, Note_off_c, 1, 59, 0
1, 184979, Note_off_c, 1, 73, 0
1, 184980, Note_on_c, 1, 75, 127
1, 184980, Note_on_c, 1, 66, 127
1, 184980, Note_on_c, 1, 47, 127
1, 185009, Note_off_c, 1, 75, 0
1, 185010, Note_off_c, 1, 47, 0
1, 185010, Note_on_c, 1, 76, 127
1, 185010, Note_on_c, 1, 49, 127
1, 185039, Note_off_c, 1, 66, 0
1, 185039, Note_off_c, 1, 76, 0
1, 185040, Note_off_c, 1, 49, 0
1, 185040, Note_on_c, 1, 78, 127
1, 185040, Note_on_c, 1, 71, 127
1, 185040, Note_on_c, 1, 51, 127
1, 185069, Note_off_c, 1, 78, 0
1, 185099, Note_off_c, 1, 71, 0
1, 185100, Note_off_c, 1, 51, 0
1, 185100, Note_on_c, 1, 81, 127
1, 185129, Note_off_c, 1, 81, 0
1, 185130, Note_on_c, 1, 79, 127
1, 185159, Note_off_c, 1, 79, 0
1, 185160, Note_on_c, 1, 67, 127
1, 185160, Note_on_c, 1, 40, 127
1, 185219, Note_off_c, 1, 67, 0
1, 185220, Note_off_c, 1, 40, 0
1, 185280, Note_on_c, 1, 42, 127
1, 185310, Note_on_c, 1, 69, 127
1, 185339, Note_off_c, 1, 69, 0
1, 185340, Note_off_c, 1, 42, 0
1, 185340, Note_on_c, 1, 64, 127
1, 185399, Note_off_c, 1, 64, 0
1, 185400, Note_on_c, 1, 64, 127
1, 185400, Note_on_c, 1, 71, 127
1, 185400, Note_on_c, 1, 76, 127
1, 185400, Note_on_c, 1, 43, 127
1, 185429, Note_off_c, 1, 64, 0
1, 185429, Note_off_c, 1, 76, 0
1, 185430, Note_on_c, 1, 74, 127
1, 185459, Note_off_c, 1, 71, 0
1, 185459, Note_off_c, 1, 74, 0
1, 185460, Note_off_c, 1, 43, 0
1, 185460, Note_on_c, 1, 72, 127
1, 185520, Note_on_c, 1, 69, 127
1, 185520, Note_on_c, 1, 45, 127
1, 185579, Note_off_c, 1, 72, 0
1, 185579, Note_off_c, 1, 69, 0
1, 185580, Note_off_c, 1, 45, 0
1, 185640, Note_on_c, 1, 63, 127
1, 185640, Note_on_c, 1, 72, 127
1, 185640, Note_on_c, 1, 45, 127
1, 185669, Note_off_c, 1, 63, 0
1, 185670, Note_on_c, 1, 64, 127
1, 185699, Note_off_c, 1, 72, 0
1, 185699, Note_off_c, 1, 64, 0
1, 185700, Note_off_c, 1, 45, 0
1, 185700, Note_on_c, 1, 66, 127
1, 185700, Note_on_c, 1, 71, 127
1, 185700, Note_on_c, 1, 43, 127
1, 185729, Note_off_c, 1, 66, 0
1, 185730, Note_on_c, 1, 67, 127
1, 185759, Note_off_c, 1, 67, 0
1, 185760, Note_off_c, 1, 43, 0
1, 185760, Note_on_c, 1, 69, 127
1, 185760, Note_on_c, 1, 39, 127
1, 185819, Note_off_c, 1, 71, 0
1, 185819, Note_off_c, 1, 69, 0
1, 185820, Note_off_c, 1, 39, 0
1, 185820, Note_on_c, 1, 83, 127
1, 185820, Note_on_c, 1, 76, 127
1, 185820, Note_on_c, 1, 40, 127
1, 185879, Note_off_c, 1, 76, 0
1, 185880, Note_off_c, 1, 40, 0
1, 185880, Note_on_c, 1, 47, 127
1, 185895, Note_off_c, 1, 83, 0
1, 185895, Note_on_c, 1, 81, 127
1, 185909, Note_off_c, 1, 81, 0
1, 185910, Note_on_c, 1, 79, 127
1, 185939, Note_off_c, 1, 79, 0
1, 185940, Note_off_c, 1, 47, 0
1, 185940, Note_on_c, 1, 75, 127
1, 185940, Note_on_c, 1, 59, 127
1, 185999, Note_off_c, 1, 75, 0
1, 186000, Note_off_c, 1, 59, 0
1, 186000, Note_on_c, 1, 51, 127
1, 186030, Note_on_c, 1, 84, 127
1, 186059, Note_off_c, 1, 84, 0
1, 186060, Note_off_c, 1, 51, 0
1, 186120, Note_on_c, 1, 52, 127
1, 186180, Note_off_c, 1, 52, 0
1, 186180, Note_on_c, 1, 54, 127
1, 186240, Note_off_c, 1, 54, 0
1, 186240, Note_on_c, 1, 55, 127
1, 186300, Note_off_c, 1, 55, 0
1, 186540, Note_on_c, 1, 50, 127
1, 186600, Note_off_c, 1, 50, 0
1, 186600, Note_on_c, 1, 49, 127
1, 186630, Note_on_c, 1, 73, 127
1, 186659, Note_off_c, 1, 73, 0
1, 186660, Note_off_c, 1, 49, 0
1, 186720, Note_on_c, 1, 85, 127
1, 186749, Note_off_c, 1, 85, 0
1, 186750, Note_on_c, 1, 88, 127
1, 186779, Note_off_c, 1, 88, 0
1, 186960, Note_on_c, 1, 76, 127
1, 186960, Note_on_c, 1, 73, 127
1, 186960, Note_on_c, 1, 79, 127
1, 186960, Note_on_c, 1, 45, 127
1, 186989, Note_off_c, 1, 76, 0
1, 187019, Note_off_c, 1, 73, 0
1, 187019, Note_off_c, 1, 79, 0
1, 187020, Note_off_c, 1, 45, 0
1, 187020, Note_on_c, 1, 78, 127
1, 187020, Note_on_c, 1, 69, 127
1, 187049, Note_off_c, 1, 78, 0
1, 187079, Note_off_c, 1, 69, 0
1, 187080, Note_on_c, 1, 78, 127
1, 187080, Note_on_c, 1, 50, 127
1, 187110, Note_on_c, 1, 69, 127
1, 187139, Note_off_c, 1, 78, 0
1, 187139, Note_off_c, 1, 69, 0
1, 187140, Note_off_c, 1, 50, 0
1, 187140, Note_on_c, 1, 67, 127
1, 187140, Note_on_c, 1, 76, 127
1, 187140, Note_on_c, 1, 52, 127
1, 187169, Note_off_c, 1, 67, 0
1, 187199, Note_off_c, 1, 76, 0
1, 187200, Note_off_c, 1, 52, 0
1, 187200, Note_on_c, 1, 62, 127
1, 187200, Note_on_c, 1, 74, 127
1, 187200, Note_on_c, 1, 54, 127
1, 187229, Note_off_c, 1, 62, 0
1, 187259, Note_off_c, 1, 74, 0
1, 187260, Note_off_c, 1, 54, 0
1, 187260, Note_on_c, 1, 73, 127
1, 187319, Note_off_c, 1, 73, 0
1, 187380, Note_on_c, 1, 64, 127
1, 187439, Note_off_c, 1, 64, 0
1, 187440, Note_on_c, 1, 65, 127
1, 187469, Note_off_c, 1, 65, 0
1, 187500, Note_on_c, 1, 77, 127
1, 187500, Note_on_c, 1, 48, 127
1, 187529, Note_off_c, 1, 77, 0
1, 187560, Note_off_c, 1, 48, 0
1, 187560, Note_on_c, 1, 47, 127
1, 187590, Note_on_c, 1, 71, 127
1, 187619, Note_off_c, 1, 71, 0
1, 187620, Note_off_c, 1, 47, 0
1, 187680, Note_on_c, 1, 83, 127
1, 187709, Note_off_c, 1, 83, 0
1, 187710, Note_on_c, 1, 86, 127
1, 187739, Note_off_c, 1, 86, 0
1, 187800, Note_on_c, 1, 79, 127
1, 187859, Note_off_c, 1, 79, 0
1, 187920, Note_on_c, 1, 74, 127
1, 187920, Note_on_c, 1, 77, 127
1, 187920, Note_on_c, 1, 71, 127
1, 187920, Note_on_c, 1, 43, 127
1, 187949, Note_off_c, 1, 74, 0
1, 187979, Note_off_c, 1, 77, 0
1, 187979, Note_off_c, 1, 71, 0
1, 187980, Note_off_c, 1, 43, 0
1, 187980, Note_on_c, 1, 76, 127
1, 187980, Note_on_c, 1, 67, 127
1, 188009, Note_off_c, 1, 76, 0
1, 188039, Note_off_c, 1, 67, 0
1, 188040, Note_on_c, 1, 76, 127
1, 188040, Note_on_c, 1, 48, 127
1, 188055, Note_on_c, 1, 74, 127
1, 188069, Note_off_c, 1, 74, 0
1, 188070, Note_on_c, 1, 72, 127
1, 188099, Note_off_c, 1, 76, 0
1, 188099, Note_off_c, 1, 72, 0
1, 188100, Note_off_c, 1, 48, 0
1, 188100, Note_on_c, 1, 78, 127
1, 188100, Note_on_c, 1, 47, 127
1, 188160, Note_off_c, 1, 47, 0
1, 188160, Note_on_c, 1, 45, 127
1, 188189, Note_off_c, 1, 78, 0
1, 188190, Note_on_c, 1, 79, 127
1, 188190, Note_on_c, 1, 71, 127
1, 188219, Note_off_c, 1, 79, 0
1, 188219, Note_off_c, 1, 71, 0
1, 188220, Note_off_c, 1, 45, 0
1, 188220, Note_on_c, 1, 81, 127
1, 188220, Note_on_c, 1, 43, 127
1, 188249, Note_off_c, 1, 81, 0
1, 188250, Note_on_c, 1, 83, 127
1, 188279, Note_off_c, 1, 83, 0
1, 188280, Note_off_c, 1, 43, 0
1, 188280, Note_on_c, 1, 84, 127
1, 188280, Note_on_c, 1, 62, 127
1, 188280, Note_on_c, 1, 42, 127
1, 188294, Note_off_c, 1, 84, 0
1, 188339, Note_off_c, 1, 62, 0
1, 188340, Note_off_c, 1, 42, 0
1, 188340, Note_on_c, 1, 69, 127
1, 188340, Note_on_c, 1, 40, 127
1, 188370, Note_off_c, 1, 40, 0
1, 188370, Note_on_c, 1, 38, 127
1, 188400, Note_off_c, 1, 38, 0
1, 188460, Note_off_c, 1, 69, 0
1, 188670, Note_on_c, 1, 67, 127
1, 188699, Note_off_c, 1, 67, 0
1, 188700, Note_on_c, 1, 66, 127
1, 188700, Note_on_c, 1, 50, 127
1, 188729, Note_off_c, 1, 66, 0
1, 188730, Note_on_c, 1, 64, 127
1, 188759, Note_off_c, 1, 64, 0
1, 188760, Note_off_c, 1, 50, 0
1, 189060, Note_on_c, 1, 52, 127
1, 189120, Note_off_c, 1, 52, 0
1, 189120, Note_on_c, 1, 54, 127
1, 189180, Note_off_c, 1, 54, 0
1, 189660, Note_on_c, 1, 60, 127
1, 189689, Note_off_c, 1, 60, 0
1, 189690, Note_on_c, 1, 59, 127
1, 189719, Note_off_c, 1, 59, 0
1, 189720, Note_on_c, 1, 51, 127
1, 189780, Note_off_c, 1, 51, 0
1, 189780, Note_on_c, 1, 49, 127
1, 189840, Note_off_c, 1, 49, 0
1, 189930, Note_on_c, 1, 75, 127
1, 189959, Note_off_c, 1, 75, 0
1, 190290, Note_on_c, 1, 57, 127
1, 190319, Note_off_c, 1, 57, 0
1, 190410, Note_on_c, 1, 55, 127
1, 190439, Note_off_c, 1, 55, 0
1, 191040, Note_on_c, 1, 73, 127
1, 191069, Note_off_c, 1, 73, 0
1, 191190, Note_on_c, 1, 70, 127
1, 191219, Note_off_c, 1, 70, 0
1, 191520, Note_on_c, 1, 61, 127
1, 191639, Note_off_c, 1, 61, 0
1, 192720, Note_on_c, 1, 74, 127
1, 192720, Note_on_c, 1, 71, 127
1, 192720, Note_on_c, 1, 66, 127
1, 192720, Note_on_c, 1, 43, 127
1, 192749, Note_off_c, 1, 74, 0
1, 192749, Note_off_c, 1, 66, 0
1, 192750, Note_on_c, 1, 78, 127
1, 192750, Note_on_c, 1, 69, 127
1, 192779, Note_off_c, 1, 78, 0
1, 192779, Note_off_c, 1, 69, 0
1, 192780, Note_off_c, 1, 43, 0
1, 192780, Note_on_c, 1, 76, 127
1, 192780, Note_on_c, 1, 67, 127
1, 192809, Note_off_c, 1, 76, 0
1, 192809, Note_off_c, 1, 67, 0
1, 192840, Note_on_c, 1, 73, 127
1, 192840, Note_on_c, 1, 64, 127
1, 192840, Note_on_c, 1, 49, 127
1, 192869, Note_off_c, 1, 73, 0
1, 192869, Note_off_c, 1, 64, 0
1, 192870, Note_on_c, 1, 62, 127
1, 192899, Note_off_c, 1, 71, 0
1, 192899, Note_off_c, 1, 62, 0
1, 192900, Note_off_c, 1, 49, 0
1, 192900, Note_on_c, 1, 70, 127
1, 192929, Note_off_c, 1, 70, 0
1, 192930, Note_on_c, 1, 68, 127
1, 192959, Note_off_c, 1, 68, 0
1, 192960, Note_on_c, 1, 42, 127
1, 193020, Note_off_c, 1, 42, 0
1, 193080, Note_on_c, 1, 71, 127
1, 193080, Note_on_c, 1, 62, 127
1, 193080, Note_on_c, 1, 47, 127
1, 193109, Note_off_c, 1, 71, 0
1, 193109, Note_off_c, 1, 62, 0
1, 193110, Note_on_c, 1, 70, 127
1, 193110, Note_on_c, 1, 61, 127
1, 193139, Note_off_c, 1, 70, 0
1, 193139, Note_off_c, 1, 61, 0
1, 193140, Note_off_c, 1, 47, 0
1, 193140, Note_on_c, 1, 59, 127
1, 193170, Note_on_c, 1, 73, 127
1, 193170, Note_on_c, 1, 64, 127
1, 193199, Note_off_c, 1, 73, 0
1, 193199, Note_off_c, 1, 64, 0
1, 193200, Note_off_c, 1, 59, 0
1, 193200, Note_on_c, 1, 74, 127
1, 193200, Note_on_c, 1, 66, 127
1, 193200, Note_on_c, 1, 57, 127
1, 193229, Note_off_c, 1, 74, 0
1, 193230, Note_on_c, 1, 76, 127
1, 193230, Note_on_c, 1, 68, 127
1, 193259, Note_off_c, 1, 76, 0
1, 193259, Note_off_c, 1, 68, 0
1, 193260, Note_off_c, 1, 57, 0
1, 193260, Note_on_c, 1, 78, 127
1, 193260, Note_on_c, 1, 55, 127
1, 193289, Note_off_c, 1, 78, 0
1, 193290, Note_on_c, 1, 79, 127
1, 193319, Note_off_c, 1, 66, 0
1, 193319, Note_off_c, 1, 79, 0
1, 193320, Note_off_c, 1, 55, 0
1, 193320, Note_on_c, 1, 54, 127
1, 193440, Note_off_c, 1, 54, 0
1, 193500, Note_on_c, 1, 66, 127
1, 193500, Note_on_c, 1, 52, 127
1, 193559, Note_off_c, 1, 66, 0
1, 193560, Note_off_c, 1, 52, 0
1, 193560, Note_on_c, 1, 71, 127
1, 193560, Note_on_c, 1, 50, 127
1, 193619, Note_off_c, 1, 71, 0
1, 193620, Note_off_c, 1, 50, 0
1, 193620, Note_on_c, 1, 47, 127
1, 193680, Note_off_c, 1, 47, 0
1, 193680, Note_on_c, 1, 64, 127
1, 193680, Note_on_c, 1, 54, 127
1, 193709, Note_off_c, 1, 64, 0
1, 193710, Note_on_c, 1, 62, 127
1, 193739, Note_off_c, 1, 62, 0
1, 193740, Note_off_c, 1, 54, 0
1, 193740, Note_on_c, 1, 61, 127
1, 193740, Note_on_c, 1, 42, 127
1, 193769, Note_off_c, 1, 61, 0
1, 193770, Note_on_c, 1, 59, 127
1, 193799, Note_off_c, 1, 59, 0
1, 193800, Note_off_c, 1, 42, 0
1, 193800, Note_on_c, 1, 74, 127
1, 193859, Note_off_c, 1, 74, 0
1, 193860, Note_on_c, 1, 73, 127
1, 193920, Note_on_c, 1, 70, 127
1, 193920, Note_on_c, 1, 49, 127
1, 193979, Note_off_c, 1, 73, 0
1, 193979, Note_off_c, 1, 70, 0
1, 193980, Note_off_c, 1, 49, 0
1, 194040, Note_on_c, 1, 78, 127
1, 194040, Note_on_c, 1, 71, 127
1, 194040, Note_on_c, 1, 66, 127
1, 194040, Note_on_c, 1, 62, 127
1, 194040, Note_on_c, 1, 50, 127
1, 194099, Note_off_c, 1, 78, 0
1, 194099, Note_off_c, 1, 71, 0
1, 194099, Note_off_c, 1, 66, 0
1, 194099, Note_off_c, 1, 62, 0
1, 194100, Note_off_c, 1, 50, 0
1, 194100, Note_on_c, 1, 79, 127
1, 194160, Note_on_c, 1, 67, 127
1, 194160, Note_on_c, 1, 52, 127
1, 194219, Note_off_c, 1, 79, 0
1, 194219, Note_off_c, 1, 67, 0
1, 194220, Note_off_c, 1, 52, 0
1, 194280, Note_on_c, 1, 70, 127
1, 194280, Note_on_c, 1, 73, 127
1, 194280, Note_on_c, 1, 66, 127
1, 194280, Note_on_c, 1, 54, 127
1, 194310, Note_on_c, 1, 71, 127
1, 194339, Note_off_c, 1, 70, 0
1, 194339, Note_off_c, 1, 73, 0
1, 194339, Note_off_c, 1, 66, 0
1, 194339, Note_off_c, 1, 71, 0
1, 194340, Note_off_c, 1, 54, 0
1, 194340, Note_on_c, 1, 76, 127
1, 194340, Note_on_c, 1, 47, 127
1, 194370, Note_off_c, 1, 76, 0
1, 194370, Note_on_c, 1, 74, 127
1, 194400, Note_off_c, 1, 47, 0
1, 194400, Note_off_c, 1, 74, 0
1, 194400, Note_on_c, 1, 64, 127
1, 194400, Note_on_c, 1, 46, 127
1, 194459, Note_off_c, 1, 64, 0
1, 194460, Note_off_c, 1, 46, 0
1, 194460, Note_on_c, 1, 62, 127
1, 194519, Note_off_c, 1, 62, 0
1, 194520, Note_on_c, 1, 59, 127
1, 194520, Note_on_c, 1, 42, 127
1, 194579, Note_off_c, 1, 59, 0
1, 194580, Note_off_c, 1, 42, 0
1, 194580, Note_on_c, 1, 61, 127
1, 194610, Note_on_c, 1, 56, 127
1, 194639, Note_off_c, 1, 61, 0
1, 194640, Note_off_c, 1, 56, 0
1, 194640, Note_on_c, 1, 58, 127
1, 194700, Note_off_c, 1, 58, 0
1, 195060, Note_on_c, 1, 69, 127
1, 195090, Note_off_c, 1, 69, 0
1, 195090, Note_on_c, 1, 67, 127
1, 195120, Note_off_c, 1, 67, 0
1, 195180, Note_on_c, 1, 57, 127
1, 195240, Note_off_c, 1, 57, 0
1, 195270, Note_on_c, 1, 68, 127
1, 195299, Note_off_c, 1, 68, 0
1, 195330, Note_on_c, 1, 74, 127
1, 195359, Note_off_c, 1, 74, 0
1, 195360, Note_on_c, 1, 80, 127
1, 195360, Note_on_c, 1, 68, 127
1, 195360, Note_on_c, 1, 62, 127
1, 195360, Note_on_c, 1, 59, 127
1, 195389, Note_off_c, 1, 80, 0
1, 195390, Note_on_c, 1, 83, 127
1, 195419, Note_off_c, 1, 68, 0
1, 195419, Note_off_c, 1, 62, 0
1, 195419, Note_off_c, 1, 83, 0
1, 195420, Note_off_c, 1, 59, 0
1, 195450, Note_on_c, 1, 74, 127
1, 195479, Note_off_c, 1, 74, 0
1, 195480, Note_on_c, 1, 71, 127
1, 195480, Note_on_c, 1, 64, 127
1, 195480, Note_on_c, 1, 68, 127
1, 195480, Note_on_c, 1, 74, 127
1, 195480, Note_on_c, 1, 56, 127
1, 195509, Note_off_c, 1, 71, 0
1, 195539, Note_off_c, 1, 64, 0
1, 195539, Note_off_c, 1, 68, 0
1, 195539, Note_off_c, 1, 74, 0
1, 195540, Note_off_c, 1, 56, 0
1, 195570, Note_on_c, 1, 68, 127
1, 195599, Note_off_c, 1, 68, 0
1, 195600, Note_on_c, 1, 71, 127
1, 195600, Note_on_c, 1, 68, 127
1, 195600, Note_on_c, 1, 62, 127
1, 195600, Note_on_c, 1, 52, 127
1, 195629, Note_off_c, 1, 71, 0
1, 195630, Note_on_c, 1, 74, 127
1, 195659, Note_off_c, 1, 68, 0
1, 195659, Note_off_c, 1, 62, 0
1, 195659, Note_off_c, 1, 74, 0
1, 195660, Note_off_c, 1, 52, 0
1, 195660, Note_on_c, 1, 73, 127
1, 195689, Note_off_c, 1, 73, 0
1, 195690, Note_on_c, 1, 71, 127
1, 195719, Note_off_c, 1, 71, 0
1, 195720, Note_on_c, 1, 73, 127
1, 195720, Note_on_c, 1, 61, 127
1, 195720, Note_on_c, 1, 57, 127
1, 195750, Note_on_c, 1, 64, 127
1, 195779, Note_off_c, 1, 73, 0
1, 195779, Note_off_c, 1, 61, 0
1, 195779, Note_off_c, 1, 64, 0
1, 195780, Note_off_c, 1, 57, 0
1, 195780, Note_on_c, 1, 62, 127
1, 195780, Note_on_c, 1, 71, 127
1, 195780, Note_on_c, 1, 59, 127
1, 195839, Note_off_c, 1, 62, 0
1, 195839, Note_off_c, 1, 71, 0
1, 195840, Note_off_c, 1, 59, 0
1, 195840, Note_on_c, 1, 69, 127
1, 195899, Note_off_c, 1, 69, 0
1, 196140, Note_on_c, 1, 74, 127
1, 196140, Note_on_c, 1, 55, 127
1, 196199, Note_off_c, 1, 74, 0
1, 196200, Note_off_c, 1, 55, 0
1, 196200, Note_on_c, 1, 72, 127
1, 196200, Note_on_c, 1, 54, 127
1, 196230, Note_on_c, 1, 66, 127
1, 196259, Note_off_c, 1, 72, 0
1, 196259, Note_off_c, 1, 66, 0
1, 196260, Note_off_c, 1, 54, 0
1, 196290, Note_on_c, 1, 72, 127
1, 196319, Note_off_c, 1, 72, 0
1, 196320, Note_on_c, 1, 78, 127
1, 196320, Note_on_c, 1, 60, 127
1, 196320, Note_on_c, 1, 66, 127
1, 196320, Note_on_c, 1, 57, 127
1, 196349, Note_off_c, 1, 78, 0
1, 196350, Note_on_c, 1, 81, 127
1, 196379, Note_off_c, 1, 60, 0
1, 196379, Note_off_c, 1, 66, 0
1, 196379, Note_off_c, 1, 81, 0
1, 196380, Note_off_c, 1, 57, 0
1, 196410, Note_on_c, 1, 72, 127
1, 196439, Note_off_c, 1, 72, 0
1, 196440, Note_on_c, 1, 69, 127
1, 196440, Note_on_c, 1, 62, 127
1, 196440, Note_on_c, 1, 60, 127
1, 196440, Note_on_c, 1, 54, 127
1, 196469, Note_off_c, 1, 69, 0
1, 196470, Note_on_c, 1, 66, 127
1, 196499, Note_off_c, 1, 62, 0
1, 196499, Note_off_c, 1, 60, 0
1, 196499, Note_off_c, 1, 66, 0
1, 196500, Note_off_c, 1, 54, 0
1, 196530, Note_on_c, 1, 66, 127
1, 196559, Note_off_c, 1, 66, 0
1, 196560, Note_on_c, 1, 69, 127
1, 196560, Note_on_c, 1, 72, 127
1, 196560, Note_on_c, 1, 66, 127
1, 196560, Note_on_c, 1, 50, 127
1, 196589, Note_off_c, 1, 69, 0
1, 196619, Note_off_c, 1, 72, 0
1, 196619, Note_off_c, 1, 66, 0
1, 196620, Note_off_c, 1, 50, 0
1, 196620, Note_on_c, 1, 71, 127
1, 196649, Note_off_c, 1, 71, 0
1, 196650, Note_on_c, 1, 69, 127
1, 196679, Note_off_c, 1, 69, 0
1, 196680, Note_on_c, 1, 71, 127
1, 196680, Note_on_c, 1, 67, 127
1, 196680, Note_on_c, 1, 62, 127
1, 196680, Note_on_c, 1, 55, 127
1, 196695, Note_on_c, 1, 69, 127
1, 196709, Note_off_c, 1, 69, 0
1, 196739, Note_off_c, 1, 71, 0
1, 196739, Note_off_c, 1, 67, 0
1, 196739, Note_off_c, 1, 62, 0
1, 196740, Note_off_c, 1, 55, 0
1, 196740, Note_on_c, 1, 75, 127
1, 196740, Note_on_c, 1, 64, 127
1, 196740, Note_on_c, 1, 57, 127
1, 196799, Note_off_c, 1, 64, 0
1, 196800, Note_off_c, 1, 57, 0
1, 196800, Note_on_c, 1, 66, 127
1, 196859, Note_off_c, 1, 75, 0
1, 196859, Note_off_c, 1, 66, 0
1, 196860, Note_on_c, 1, 76, 127
1, 196860, Note_on_c, 1, 61, 127
1, 196860, Note_on_c, 1, 54, 127
1, 196889, Note_off_c, 1, 76, 0
1, 196890, Note_on_c, 1, 78, 127
1, 196919, Note_off_c, 1, 61, 0
1, 196919, Note_off_c, 1, 78, 0
1, 196920, Note_off_c, 1, 54, 0
1, 196920, Note_on_c, 1, 79, 127
1, 196920, Note_on_c, 1, 59, 127
1, 196920, Note_on_c, 1, 52, 127
1, 196949, Note_off_c, 1, 79, 0
1, 196979, Note_off_c, 1, 59, 0
1, 196980, Note_off_c, 1, 52, 0
1, 197070, Note_on_c, 1, 74, 127
1, 197099, Note_off_c, 1, 74, 0
1, 197100, Note_on_c, 1, 73, 127
1, 197129, Note_off_c, 1, 73, 0
1, 197400, Note_on_c, 1, 50, 127
1, 197460, Note_off_c, 1, 50, 0
1, 197640, Note_on_c, 1, 58, 127
1, 197640, Note_on_c, 1, 70, 127
1, 197655, Note_off_c, 1, 58, 0
1, 197700, Note_off_c, 1, 70, 0
1, 197760, Note_on_c, 1, 49, 127
1, 197820, Note_off_c, 1, 49, 0
1, 198000, Note_on_c, 1, 46, 127
1, 198030, Note_on_c, 1, 82, 127
1, 198059, Note_off_c, 1, 82, 0
1, 198060, Note_off_c, 1, 46, 0
1, 198060, Note_on_c, 1, 83, 127
1, 198060, Note_on_c, 1, 42, 127
1, 198089, Note_off_c, 1, 83, 0
1, 198090, Note_on_c, 1, 85, 127
1, 198119, Note_off_c, 1, 85, 0
1, 198120, Note_off_c, 1, 42, 0
1, 198120, Note_on_c, 1, 47, 127
1, 198180, Note_off_c, 1, 47, 0
1, 198720, Note_on_c, 1, 73, 127
1, 198720, Note_on_c, 1, 68, 127
1, 198720, Note_on_c, 1, 61, 127
1, 198720, Note_on_c, 1, 65, 127
1, 198720, Note_on_c, 1, 41, 127
1, 199199, Note_off_c, 1, 68, 0
1, 199199, Note_off_c, 1, 61, 0
1, 199199, Note_off_c, 1, 65, 0
1, 199199, Note_off_c, 1, 41, 0
1, 199200, Note_on_c, 1, 66, 127
1, 199200, Note_on_c, 1, 69, 127
1, 199200, Note_on_c, 1, 42, 127
1, 199439, Note_off_c, 1, 73, 0
1, 199440, Note_on_c, 1, 75, 127
1, 199440, Note_on_c, 1, 63, 127
1, 199679, Note_off_c, 1, 66, 0
1, 199679, Note_off_c, 1, 69, 0
1, 199679, Note_off_c, 1, 42, 0
1, 199679, Note_off_c, 1, 75, 0
1, 199680, Note_off_c, 1, 63, 0
1, 199680, Note_on_c, 1, 76, 127
1, 199680, Note_on_c, 1, 71, 127
1, 199680, Note_on_c, 1, 64, 127
1, 199680, Note_on_c, 1, 44, 127
1, 199739, Note_off_c, 1, 71, 0
1, 200040, Note_off_c, 1, 64, 0
1, 200040, Note_on_c, 1, 74, 127
1, 200040, Note_on_c, 1, 62, 127
1, 200099, Note_off_c, 1, 74, 0
1, 200159, Note_off_c, 1, 44, 0
1, 200160, Note_off_c, 1, 62, 0
1, 200160, Note_on_c, 1, 45, 127
1, 200279, Note_off_c, 1, 45, 0
1, 200280, Note_on_c, 1, 49, 127
1, 200399, Note_off_c, 1, 49, 0
1, 200400, Note_on_c, 1, 50, 127
1, 200519, Note_off_c, 1, 50, 0
1, 200520, Note_off_c, 1, 76, 0
1, 200520, Note_on_c, 1, 54, 127
1, 200639, Note_off_c, 1, 54, 0
1, 200700, Note_on_c, 1, 69, 127
1, 200759, Note_off_c, 1, 69, 0
1, 200760, Note_on_c, 1, 73, 127
1, 200760, Note_on_c, 1, 64, 127
1, 200760, Note_on_c, 1, 69, 127
1, 200760, Note_on_c, 1, 52, 127
1, 200789, Note_off_c, 1, 64, 0
1, 200790, Note_on_c, 1, 61, 127
1, 200819, Note_off_c, 1, 61, 0
1, 200820, Note_off_c, 1, 73, 0
1, 200820, Note_off_c, 1, 69, 0
1, 200820, Note_on_c, 1, 71, 127
1, 200820, Note_on_c, 1, 62, 127
1, 200820, Note_on_c, 1, 68, 127
1, 200879, Note_off_c, 1, 52, 0
1, 200879, Note_off_c, 1, 62, 0
1, 200880, Note_off_c, 1, 71, 0
1, 200880, Note_off_c, 1, 68, 0
1, 200880, Note_on_c, 1, 45, 127
1, 201119, Note_off_c, 1, 45, 0
1, 201240, Note_on_c, 1, 69, 127
1, 201240, Note_on_c, 1, 64, 127
1, 201240, Note_on_c, 1, 61, 127
1, 201240, Note_on_c, 1, 57, 127
1, 201359, Note_off_c, 1, 69, 0
1, 201359, Note_off_c, 1, 64, 0
1, 201359, Note_off_c, 1, 61, 0
1, 201359, Note_off_c, 1, 57, 0
1, 201360, Note_on_c, 1, 71, 127
1, 201360, Note_on_c, 1, 64, 127
1, 201360, Note_on_c, 1, 59, 127
1, 201360, Note_on_c, 1, 56, 127
1, 201479, Note_off_c, 1, 71, 0
1, 201479, Note_off_c, 1, 64, 0
1, 201479, Note_off_c, 1, 59, 0
1, 201479, Note_off_c, 1, 56, 0
1, 201480, Note_on_c, 1, 73, 127
1, 201480, Note_on_c, 1, 69, 127
1, 201480, Note_on_c, 1, 57, 127
1, 201480, Note_on_c, 1, 54, 127
1, 201539, Note_off_c, 1, 73, 0
1, 201539, Note_off_c, 1, 57, 0
1, 201540, Note_on_c, 1, 74, 127
1, 201540, Note_on_c, 1, 59, 127
1, 201599, Note_off_c, 1, 69, 0
1, 201599, Note_off_c, 1, 54, 0
1, 201599, Note_off_c, 1, 74, 0
1, 201599, Note_off_c, 1, 59, 0
1, 201600, Note_on_c, 1, 76, 127
1, 201600, Note_on_c, 1, 69, 127
1, 201600, Note_on_c, 1, 61, 127
1, 201600, Note_on_c, 1, 49, 127
1, 201659, Note_off_c, 1, 69, 0
1, 201659, Note_off_c, 1, 61, 0
1, 201659, Note_off_c, 1, 49, 0
1, 201660, Note_on_c, 1, 68, 127
1, 201660, Note_on_c, 1, 62, 127
1, 201660, Note_on_c, 1, 47, 127
1, 201719, Note_off_c, 1, 76, 0
1, 201719, Note_off_c, 1, 62, 0
1, 201719, Note_off_c, 1, 47, 0
1, 201720, Note_on_c, 1, 64, 127
1, 201779, Note_off_c, 1, 68, 0
1, 201779, Note_off_c, 1, 64, 0
1, 201780, Note_on_c, 1, 66, 127
1, 201780, Note_on_c, 1, 59, 127
1, 201780, Note_on_c, 1, 51, 127
1, 201839, Note_off_c, 1, 59, 0
1, 201839, Note_off_c, 1, 51, 0
1, 201840, Note_on_c, 1, 52, 127
1, 201899, Note_off_c, 1, 66, 0
1, 201959, Note_off_c, 1, 52, 0
1, 202020, Note_on_c, 1, 63, 127
1, 202050, Note_on_c, 1, 57, 127
1, 202079, Note_off_c, 1, 63, 0
1, 202079, Note_off_c, 1, 57, 0
1, 202080, Note_on_c, 1, 64, 127
1, 202080, Note_on_c, 1, 59, 127
1, 202080, Note_on_c, 1, 56, 127
1, 202080, Note_on_c, 1, 52, 127
1, 202175, Note_off_c, 1, 64, 0
1, 202175, Note_off_c, 1, 59, 0
1, 202175, Note_off_c, 1, 56, 0
1, 202175, Note_off_c, 1, 52, 0
1, 202200, Note_on_c, 1, 66, 127
1, 202200, Note_on_c, 1, 62, 127
1, 202200, Note_on_c, 1, 59, 127
1, 202200, Note_on_c, 1, 47, 127
1, 202259, Note_off_c, 1, 62, 0
1, 202259, Note_off_c, 1, 59, 0
1, 202260, Note_on_c, 1, 61, 127
1, 202319, Note_off_c, 1, 66, 0
1, 202319, Note_off_c, 1, 61, 0
1, 202320, Note_on_c, 1, 68, 127
1, 202379, Note_off_c, 1, 47, 0
1, 202380, Note_on_c, 1, 64, 127
1, 202380, Note_on_c, 1, 50, 127
1, 202439, Note_off_c, 1, 68, 0
1, 202439, Note_off_c, 1, 64, 0
1, 202439, Note_off_c, 1, 50, 0
1, 202440, Note_on_c, 1, 69, 127
1, 202440, Note_on_c, 1, 64, 127
1, 202440, Note_on_c, 1, 57, 127
1, 202440, Note_on_c, 1, 61, 127
1, 202440, Note_on_c, 1, 49, 127
1, 202499, Note_off_c, 1, 61, 0
1, 202499, Note_off_c, 1, 49, 0
1, 202500, Note_on_c, 1, 59, 127
1, 202500, Note_on_c, 1, 47, 127
1, 202559, Note_off_c, 1, 69, 0
1, 202559, Note_off_c, 1, 64, 0
1, 202559, Note_off_c, 1, 57, 0
1, 202559, Note_off_c, 1, 59, 0
1, 202559, Note_off_c, 1, 47, 0
1, 202560, Note_on_c, 1, 71, 127
1, 202560, Note_on_c, 1, 64, 127
1, 202560, Note_on_c, 1, 52, 127
1, 202560, Note_on_c, 1, 57, 127
1, 202560, Note_on_c, 1, 45, 127
1, 202619, Note_off_c, 1, 57, 0
1, 202619, Note_off_c, 1, 45, 0
1, 202620, Note_on_c, 1, 56, 127
1, 202620, Note_on_c, 1, 44, 127
1, 202679, Note_off_c, 1, 71, 0
1, 202679, Note_off_c, 1, 64, 0
1, 202679, Note_off_c, 1, 52, 0
1, 202679, Note_off_c, 1, 56, 0
1, 202679, Note_off_c, 1, 44, 0
1, 202680, Note_on_c, 1, 73, 127
1, 202680, Note_on_c, 1, 64, 127
1, 202680, Note_on_c, 1, 57, 127
1, 202680, Note_on_c, 1, 45, 127
1, 202739, Note_off_c, 1, 73, 0
1, 202739, Note_off_c, 1, 64, 0
1, 202739, Note_off_c, 1, 45, 0
1, 202740, Note_on_c, 1, 74, 127
1, 202740, Note_on_c, 1, 66, 127
1, 202740, Note_on_c, 1, 50, 127
1, 202799, Note_off_c, 1, 74, 0
1, 202799, Note_off_c, 1, 66, 0
1, 202799, Note_off_c, 1, 50, 0
1, 202800, Note_on_c, 1, 71, 127
1, 202800, Note_on_c, 1, 52, 127
1, 202859, Note_off_c, 1, 57, 0
1, 202860, Note_on_c, 1, 56, 127
1, 202860, Note_on_c, 1, 40, 127
1, 202919, Note_off_c, 1, 71, 0
1, 202919, Note_off_c, 1, 52, 0
1, 202919, Note_off_c, 1, 56, 0
1, 202919, Note_off_c, 1, 40, 0
1, 202920, Note_on_c, 1, 69, 127
1, 202920, Note_on_c, 1, 64, 127
1, 202920, Note_on_c, 1, 61, 127
1, 202920, Note_on_c, 1, 45, 127
1, 203135, Note_off_c, 1, 69, 0
1, 203135, Note_off_c, 1, 64, 0
1, 203135, Note_off_c, 1, 61, 0
1, 203135, Note_off_c, 1, 45, 0
1, 203160, Note_on_c, 1, 69, 127
1, 203160, Note_on_c, 1, 64, 127
1, 203160, Note_on_c, 1, 61, 127
1, 203160, Note_on_c, 1, 57, 127
1, 203279, Note_off_c, 1, 69, 0
1, 203279, Note_off_c, 1, 64, 0
1, 203279, Note_off_c, 1, 61, 0
1, 203279, Note_off_c, 1, 57, 0
1, 203280, Note_on_c, 1, 71, 127
1, 203280, Note_on_c, 1, 64, 127
1, 203280, Note_on_c, 1, 59, 127
1, 203280, Note_on_c, 1, 56, 127
1, 203399, Note_off_c, 1, 71, 0
1, 203399, Note_off_c, 1, 64, 0
1, 203399, Note_off_c, 1, 59, 0
1, 203399, Note_off_c, 1, 56, 0
1, 203400, Note_on_c, 1, 73, 127
1, 203400, Note_on_c, 1, 69, 127
1, 203400, Note_on_c, 1, 57, 127
1, 203400, Note_on_c, 1, 54, 127
1, 203459, Note_off_c, 1, 73, 0
1, 203459, Note_off_c, 1, 57, 0
1, 203460, Note_on_c, 1, 74, 127
1, 203460, Note_on_c, 1, 59, 127
1, 203519, Note_off_c, 1, 69, 0
1, 203519, Note_off_c, 1, 54, 0
1, 203519, Note_off_c, 1, 74, 0
1, 203519, Note_off_c, 1, 59, 0
1, 203520, Note_on_c, 1, 76, 127
1, 203520, Note_on_c, 1, 69, 127
1, 203520, Note_on_c, 1, 61, 127
1, 203520, Note_on_c, 1, 49, 127
1, 203579, Note_off_c, 1, 69, 0
1, 203579, Note_off_c, 1, 61, 0
1, 203579, Note_off_c, 1, 49, 0
1, 203580, Note_on_c, 1, 68, 127
1, 203580, Note_on_c, 1, 62, 127
1, 203580, Note_on_c, 1, 47, 127
1, 203639, Note_off_c, 1, 76, 0
1, 203639, Note_off_c, 1, 62, 0
1, 203639, Note_off_c, 1, 47, 0
1, 203640, Note_on_c, 1, 64, 127
1, 203699, Note_off_c, 1, 68, 0
1, 203699, Note_off_c, 1, 64, 0
1, 203700, Note_on_c, 1, 66, 127
1, 203700, Note_on_c, 1, 59, 127
1, 203700, Note_on_c, 1, 51, 127
1, 203759, Note_off_c, 1, 59, 0
1, 203759, Note_off_c, 1, 51, 0
1, 203760, Note_on_c, 1, 52, 127
1, 203819, Note_off_c, 1, 66, 0
1, 203879, Note_off_c, 1, 52, 0
1, 203940, Note_on_c, 1, 63, 127
1, 203970, Note_on_c, 1, 57, 127
1, 203999, Note_off_c, 1, 63, 0
1, 203999, Note_off_c, 1, 57, 0
1, 204000, Note_on_c, 1, 64, 127
1, 204000, Note_on_c, 1, 59, 127
1, 204000, Note_on_c, 1, 56, 127
1, 204000, Note_on_c, 1, 52, 127
1, 204095, Note_off_c, 1, 64, 0
1, 204095, Note_off_c, 1, 59, 0
1, 204095, Note_off_c, 1, 56, 0
1, 204095, Note_off_c, 1, 52, 0
1, 204120, Note_on_c, 1, 66, 127
1, 204120, Note_on_c, 1, 62, 127
1, 204120, Note_on_c, 1, 59, 127
1, 204120, Note_on_c, 1, 47, 127
1, 204179, Note_off_c, 1, 62, 0
1, 204179, Note_off_c, 1, 59, 0
1, 204180, Note_on_c, 1, 61, 127
1, 204239, Note_off_c, 1, 66, 0
1, 204239, Note_off_c, 1, 61, 0
1, 204240, Note_on_c, 1, 68, 127
1, 204299, Note_off_c, 1, 47, 0
1, 204300, Note_on_c, 1, 64, 127
1, 204300, Note_on_c, 1, 50, 127
1, 204359, Note_off_c, 1, 68, 0
1, 204359, Note_off_c, 1, 64, 0
1, 204359, Note_off_c, 1, 50, 0
1, 204360, Note_on_c, 1, 69, 127
1, 204360, Note_on_c, 1, 64, 127
1, 204360, Note_on_c, 1, 57, 127
1, 204360, Note_on_c, 1, 61, 127
1, 204360, Note_on_c, 1, 49, 127
1, 204419, Note_off_c, 1, 61, 0
1, 204419, Note_off_c, 1, 49, 0
1, 204420, Note_on_c, 1, 59, 127
1, 204420, Note_on_c, 1, 47, 127
1, 204479, Note_off_c, 1, 69, 0
1, 204479, Note_off_c, 1, 64, 0
1, 204479, Note_off_c, 1, 57, 0
1, 204479, Note_off_c, 1, 59, 0
1, 204479, Note_off_c, 1, 47, 0
1, 204480, Note_on_c, 1, 71, 127
1, 204480, Note_on_c, 1, 64, 127
1, 204480, Note_on_c, 1, 52, 127
1, 204480, Note_on_c, 1, 57, 127
1, 204480, Note_on_c, 1, 45, 127
1, 204539, Note_off_c, 1, 57, 0
1, 204539, Note_off_c, 1, 45, 0
1, 204540, Note_on_c, 1, 56, 127
1, 204540, Note_on_c, 1, 44, 127
1, 204599, Note_off_c, 1, 71, 0
1, 204599, Note_off_c, 1, 64, 0
1, 204599, Note_off_c, 1, 52, 0
1, 204599, Note_off_c, 1, 56, 0
1, 204599, Note_off_c, 1, 44, 0
1, 204600, Note_on_c, 1, 73, 127
1, 204600, Note_on_c, 1, 64, 127
1, 204600, Note_on_c, 1, 57, 127
1, 204600, Note_on_c, 1, 45, 127
1, 204659, Note_off_c, 1, 73, 0
1, 204659, Note_off_c, 1, 64, 0
1, 204659, Note_off_c, 1, 45, 0
1, 204660, Note_on_c, 1, 74, 127
1, 204660, Note_on_c, 1, 66, 127
1, 204660, Note_on_c, 1, 50, 127
1, 204719, Note_off_c, 1, 74, 0
1, 204719, Note_off_c, 1, 66, 0
1, 204719, Note_off_c, 1, 50, 0
1, 204720, Note_on_c, 1, 71, 127
1, 204720, Note_on_c, 1, 52, 127
1, 204779, Note_off_c, 1, 57, 0
1, 204780, Note_on_c, 1, 56, 127
1, 204780, Note_on_c, 1, 40, 127
1, 204839, Note_off_c, 1, 71, 0
1, 204839, Note_off_c, 1, 52, 0
1, 204839, Note_off_c, 1, 56, 0
1, 204839, Note_off_c, 1, 40, 0
1, 204840, Note_on_c, 1, 69, 127
1, 204840, Note_on_c, 1, 64, 127
1, 204840, Note_on_c, 1, 61, 127
1, 204840, Note_on_c, 1, 45, 127
1, 205055, Note_off_c, 1, 69, 0
1, 205055, Note_off_c, 1, 64, 0
1, 205055, Note_off_c, 1, 61, 0
1, 205055, Note_off_c, 1, 45, 0
1, 205080, Note_on_c, 1, 73, 127
1, 205080, Note_on_c, 1, 69, 127
1, 205080, Note_on_c, 1, 64, 127
1, 205080, Note_on_c, 1, 57, 127
1, 205139, Note_off_c, 1, 57, 0
1, 205140, Note_on_c, 1, 56, 127
1, 205199, Note_off_c, 1, 73, 0
1, 205199, Note_off_c, 1, 69, 0
1, 205199, Note_off_c, 1, 64, 0
1, 205199, Note_off_c, 1, 56, 0
1, 205200, Note_on_c, 1, 73, 127
1, 205200, Note_on_c, 1, 69, 127
1, 205200, Note_on_c, 1, 64, 127
1, 205200, Note_on_c, 1, 54, 127
1, 205259, Note_off_c, 1, 64, 0
1, 205260, Note_on_c, 1, 63, 127
1, 205319, Note_off_c, 1, 73, 0
1, 205319, Note_off_c, 1, 69, 0
1, 205319, Note_off_c, 1, 54, 0
1, 205319, Note_off_c, 1, 63, 0
1, 205320, Note_on_c, 1, 71, 127
1, 205320, Note_on_c, 1, 64, 127
1, 205320, Note_on_c, 1, 56, 127
1, 205379, Note_off_c, 1, 64, 0
1, 205379, Note_off_c, 1, 56, 0
1, 205380, Note_on_c, 1, 66, 127
1, 205380, Note_on_c, 1, 62, 127
1, 205380, Note_on_c, 1, 54, 127
1, 205439, Note_off_c, 1, 71, 0
1, 205439, Note_off_c, 1, 66, 0
1, 205439, Note_off_c, 1, 62, 0
1, 205439, Note_off_c, 1, 54, 0
1, 205440, Note_on_c, 1, 73, 127
1, 205440, Note_on_c, 1, 68, 127
1, 205440, Note_on_c, 1, 61, 127
1, 205440, Note_on_c, 1, 52, 127
1, 205499, Note_off_c, 1, 61, 0
1, 205500, Note_on_c, 1, 59, 127
1, 205559, Note_off_c, 1, 73, 0
1, 205559, Note_off_c, 1, 68, 0
1, 205559, Note_off_c, 1, 52, 0
1, 205559, Note_off_c, 1, 59, 0
1, 205560, Note_on_c, 1, 74, 127
1, 205560, Note_on_c, 1, 66, 127
1, 205560, Note_on_c, 1, 57, 127
1, 205560, Note_on_c, 1, 54, 127
1, 205619, Note_off_c, 1, 57, 0
1, 205619, Note_off_c, 1, 54, 0
1, 205620, Note_on_c, 1, 59, 127
1, 205620, Note_on_c, 1, 56, 127
1, 205679, Note_off_c, 1, 74, 0
1, 205679, Note_off_c, 1, 66, 0
1, 205679, Note_off_c, 1, 59, 0
1, 205679, Note_off_c, 1, 56, 0
1, 205680, Note_on_c, 1, 73, 127
1, 205680, Note_on_c, 1, 64, 127
1, 205680, Note_on_c, 1, 61, 127
1, 205680, Note_on_c, 1, 57, 127
1, 205739, Note_off_c, 1, 73, 0
1, 205739, Note_off_c, 1, 64, 0
1, 205739, Note_off_c, 1, 61, 0
1, 205740, Note_on_c, 1, 71, 127
1, 205740, Note_on_c, 1, 66, 127
1, 205740, Note_on_c, 1, 63, 127
1, 205799, Note_off_c, 1, 57, 0
1, 205799, Note_off_c, 1, 71, 0
1, 205799, Note_off_c, 1, 66, 0
1, 205799, Note_off_c, 1, 63, 0
1, 205800, Note_on_c, 1, 71, 127
1, 205800, Note_on_c, 1, 68, 127
1, 205800, Note_on_c, 1, 64, 127
1, 205800, Note_on_c, 1, 52, 127
1, 205859, Note_off_c, 1, 71, 0
1, 205859, Note_off_c, 1, 68, 0
1, 205860, Note_on_c, 1, 69, 127
1, 205860, Note_on_c, 1, 66, 127
1, 205919, Note_off_c, 1, 64, 0
1, 205919, Note_off_c, 1, 52, 0
1, 205919, Note_off_c, 1, 69, 0
1, 205919, Note_off_c, 1, 66, 0
1, 205920, Note_on_c, 1, 71, 127
1, 205920, Note_on_c, 1, 68, 127
1, 205920, Note_on_c, 1, 64, 127
1, 205920, Note_on_c, 1, 52, 127
1, 205920, Note_on_c, 1, 40, 127
1, 206015, Note_off_c, 1, 71, 0
1, 206015, Note_off_c, 1, 68, 0
1, 206015, Note_off_c, 1, 64, 0
1, 206015, Note_off_c, 1, 52, 0
1, 206015, Note_off_c, 1, 40, 0
1, 206040, Note_on_c, 1, 66, 127
1, 206040, Note_on_c, 1, 61, 127
1, 206040, Note_on_c, 1, 58, 127
1, 206040, Note_on_c, 1, 52, 127
1, 206099, Note_off_c, 1, 61, 0
1, 206099, Note_off_c, 1, 58, 0
1, 206099, Note_off_c, 1, 52, 0
1, 206100, Note_on_c, 1, 62, 127
1, 206100, Note_on_c, 1, 59, 127
1, 206100, Note_on_c, 1, 50, 127
1, 206159, Note_off_c, 1, 66, 0
1, 206159, Note_off_c, 1, 62, 0
1, 206159, Note_off_c, 1, 59, 0
1, 206159, Note_off_c, 1, 50, 0
1, 206160, Note_on_c, 1, 68, 127
1, 206160, Note_on_c, 1, 64, 127
1, 206160, Note_on_c, 1, 59, 127
1, 206160, Note_on_c, 1, 49, 127
1, 206219, Note_off_c, 1, 49, 0
1, 206220, Note_on_c, 1, 47, 127
1, 206279, Note_off_c, 1, 68, 0
1, 206279, Note_off_c, 1, 59, 0
1, 206279, Note_off_c, 1, 47, 0
1, 206280, Note_on_c, 1, 69, 127
1, 206280, Note_on_c, 1, 57, 127
1, 206339, Note_off_c, 1, 64, 0
1, 206340, Note_on_c, 1, 62, 127
1, 206340, Note_on_c, 1, 54, 127
1, 206369, Note_off_c, 1, 62, 0
1, 206370, Note_on_c, 1, 61, 127
1, 206399, Note_off_c, 1, 69, 0
1, 206399, Note_off_c, 1, 57, 0
1, 206399, Note_off_c, 1, 54, 0
1, 206399, Note_off_c, 1, 61, 0
1, 206400, Note_on_c, 1, 71, 127
1, 206400, Note_on_c, 1, 66, 127
1, 206400, Note_on_c, 1, 57, 127
1, 206400, Note_on_c, 1, 52, 127
1, 206459, Note_off_c, 1, 52, 0
1, 206460, Note_on_c, 1, 50, 127
1, 206519, Note_off_c, 1, 71, 0
1, 206519, Note_off_c, 1, 66, 0
1, 206519, Note_off_c, 1, 57, 0
1, 206519, Note_off_c, 1, 50, 0
1, 206520, Note_on_c, 1, 73, 127
1, 206520, Note_on_c, 1, 64, 127
1, 206520, Note_on_c, 1, 57, 127
1, 206520, Note_on_c, 1, 52, 127
1, 206579, Note_off_c, 1, 73, 0
1, 206579, Note_off_c, 1, 57, 0
1, 206580, Note_on_c, 1, 74, 127
1, 206580, Note_on_c, 1, 59, 127
1, 206639, Note_off_c, 1, 64, 0
1, 206639, Note_off_c, 1, 52, 0
1, 206639, Note_off_c, 1, 74, 0
1, 206639, Note_off_c, 1, 59, 0
1, 206640, Note_on_c, 1, 71, 127
1, 206640, Note_on_c, 1, 64, 127
1, 206640, Note_on_c, 1, 56, 127
1, 206640, Note_on_c, 1, 52, 127
1, 206640, Note_on_c, 1, 40, 127
1, 206699, Note_off_c, 1, 56, 0
1, 206700, Note_on_c, 1, 62, 127
1, 206759, Note_off_c, 1, 71, 0
1, 206759, Note_off_c, 1, 64, 0
1, 206759, Note_off_c, 1, 52, 0
1, 206759, Note_off_c, 1, 40, 0
1, 206759, Note_off_c, 1, 62, 0
1, 206760, Note_on_c, 1, 69, 127
1, 206760, Note_on_c, 1, 64, 127
1, 206760, Note_on_c, 1, 61, 127
1, 206760, Note_on_c, 1, 45, 127
1, 206819, Note_off_c, 1, 69, 0
1, 206819, Note_off_c, 1, 64, 0
1, 206819, Note_off_c, 1, 61, 0
1, 206820, Note_on_c, 1, 68, 127
1, 206820, Note_on_c, 1, 62, 127
1, 206820, Note_on_c, 1, 59, 127
1, 206879, Note_off_c, 1, 45, 0
1, 206879, Note_off_c, 1, 68, 0
1, 206879, Note_off_c, 1, 62, 0
1, 206879, Note_off_c, 1, 59, 0
1, 206880, Note_on_c, 1, 69, 127
1, 206880, Note_on_c, 1, 64, 127
1, 206880, Note_on_c, 1, 61, 127
1, 206880, Note_on_c, 1, 45, 127
1, 206999, Note_off_c, 1, 69, 0
1, 206999, Note_off_c, 1, 64, 0
1, 206999, Note_off_c, 1, 61, 0
1, 206999, Note_off_c, 1, 45, 0
1, 206999, End_track
0, 0, End_of_file