0, 0, Header, 1, 1, 480
1, 0, Start_track
1, 0, Title_t, "Test"
1, 0, Tempo, 500000
1, 0, Instrument_name_t, "Church Organ"
1, 7, Note_on_c, 1, 67, 127
1, 7, Note_on_c, 1, 64, 127
1, 7, Note_on_c, 1, 60, 127
1, 103, Note_off_c, 1, 67, 0
1, 192, Note_on_c, 1, 48, 127
1, 192, Note_on_c, 1, 36, 127
1, 199, Note_off_c, 1, 64, 0
1, 199, Note_off_c, 1, 60, 0
1, 384, Note_on_c, 1, 70, 127
1, 384, Note_on_c, 1, 55, 127
1, 576, Note_off_c, 1, 48, 0
1, 576, Note_off_c, 1, 36, 0
1, 576, Note_off_c, 1, 70, 0
1, 576, Note_off_c, 1, 55, 0
1, 576, Note_on_c, 1, 52, 127
1, 576, Note_on_c, 1, 40, 127
1, 672, Note_off_c, 1, 52, 0
1, 672, Note_off_c, 1, 40, 0
1, 672, Note_on_c, 1, 53, 127
1, 672, Note_on_c, 1, 41, 127
1, 720, Note_off_c, 1, 53, 0
1, 720, Note_off_c, 1, 41, 0
1, 720, Note_on_c, 1, 43, 127
1, 768, Note_off_c, 1, 43, 0
1, 768, Note_on_c, 1, 65, 127
1, 960, Note_off_c, 1, 65, 0
1, 1152, Note_on_c, 1, 69, 127
1, 1344, Note_off_c, 1, 69, 0
1, 1488, Note_on_c, 1, 57, 127
1, 1488, Note_on_c, 1, 45, 127
1, 1536, Note_off_c, 1, 45, 0
1, 1536, Note_on_c, 1, 74, 127
1, 1728, Note_off_c, 1, 57, 0
1, 1728, Note_off_c, 1, 74, 0
1, 1920, Note_on_c, 1, 62, 127
1, 1920, Note_on_c, 1, 59, 127
1, 2112, Note_off_c, 1, 62, 0
1, 2112, Note_on_c, 1, 47, 127
1, 2208, Note_off_c, 1, 59, 0
1, 2208, Note_off_c, 1, 47, 0
1, 2256, Note_on_c, 1, 50, 127
1, 2304, Note_off_c, 1, 50, 0
1, 3072, Note_on_c, 1, 76, 127
1, 3264, Note_off_c, 1, 76, 0
1, 3648, Note_on_c, 1, 54, 127
1, 3648, Note_on_c, 1, 42, 127
1, 3744, Note_off_c, 1, 54, 0
1, 3744, Note_off_c, 1, 42, 0
1, 3840, Note_on_c, 1, 35, 127
1, 4416, Note_off_c, 1, 35, 0
1, 4608, Note_on_c, 1, 72, 127
1, 4608, Note_on_c, 1, 33, 127
1, 4800, Note_off_c, 1, 72, 0
1, 4992, Note_on_c, 1, 66, 127
1, 5184, Note_off_c, 1, 33, 0
1, 5184, Note_off_c, 1, 66, 0
1, 5184, Note_on_c, 1, 38, 127
1, 5280, Note_off_c, 1, 38, 0
1, 5376, Note_on_c, 1, 31, 127
1, 5568, Note_on_c, 1, 71, 127
1, 5760, Note_off_c, 1, 31, 0
1, 5760, Note_off_c, 1, 71, 0
1, 6144, Note_on_c, 1, 79, 127
1, 6144, Note_on_c, 1, 64, 127
1, 6144, Note_on_c, 1, 60, 127
1, 6336, Note_off_c, 1, 64, 0
1, 6528, Note_on_c, 1, 67, 127
1, 6576, Note_off_c, 1, 79, 0
1, 6576, Note_on_c, 1, 77, 127
1, 6624, Note_off_c, 1, 77, 0
1, 6624, Note_on_c, 1, 76, 127
1, 6672, Note_off_c, 1, 76, 0
1, 6672, Note_on_c, 1, 74, 127
1, 6720, Note_off_c, 1, 67, 0
1, 6720, Note_off_c, 1, 74, 0
1, 6720, Note_on_c, 1, 72, 127
1, 6816, Note_off_c, 1, 72, 0
1, 6816, Note_on_c, 1, 71, 127
1, 6912, Note_off_c, 1, 71, 0
1, 6912, Note_on_c, 1, 70, 127
1, 7104, Note_off_c, 1, 70, 0
1, 7680, Note_on_c, 1, 69, 127
1, 7744, Note_on_c, 1, 82, 127
1, 7808, Note_off_c, 1, 82, 0
1, 7808, Note_on_c, 1, 81, 127
1, 7872, Note_off_c, 1, 69, 0
1, 7872, Note_off_c, 1, 81, 0
1, 8064, Note_on_c, 1, 65, 127
1, 8256, Note_off_c, 1, 65, 0
1, 8448, Note_off_c, 1, 60, 0
1, 8448, Note_on_c, 1, 55, 127
1, 8512, Note_on_c, 1, 78, 127
1, 8576, Note_off_c, 1, 78, 0
1, 8640, Note_off_c, 1, 55, 0
1, 8640, Note_on_c, 1, 62, 127
1, 8832, Note_on_c, 1, 59, 127
1, 9024, Note_off_c, 1, 62, 0
1, 9024, Note_off_c, 1, 59, 0
1, 9216, Note_on_c, 1, 48, 127
1, 9216, Note_on_c, 1, 36, 127
1, 9792, Note_off_c, 1, 48, 0
1, 9792, Note_off_c, 1, 36, 0
1, 9792, Note_on_c, 1, 52, 127
1, 9792, Note_on_c, 1, 40, 127
1, 9888, Note_off_c, 1, 52, 0
1, 9888, Note_off_c, 1, 40, 0
1, 9888, Note_on_c, 1, 53, 127
1, 9888, Note_on_c, 1, 41, 127
1, 9936, Note_off_c, 1, 53, 0
1, 9936, Note_off_c, 1, 41, 0
1, 9936, Note_on_c, 1, 43, 127
1, 9984, Note_off_c, 1, 43, 0
1, 10704, Note_on_c, 1, 57, 127
1, 10704, Note_on_c, 1, 45, 127
1, 10752, Note_off_c, 1, 45, 0
1, 10944, Note_off_c, 1, 57, 0
1, 11328, Note_on_c, 1, 47, 127
1, 11424, Note_off_c, 1, 47, 0
1, 11472, Note_on_c, 1, 50, 127
1, 11520, Note_off_c, 1, 50, 0
1, 13056, Note_on_c, 1, 66, 127
1, 13248, Note_off_c, 1, 66, 0
1, 14144, Note_on_c, 1, 84, 127
1, 14272, Note_off_c, 1, 84, 0
1, 14272, Note_on_c, 1, 83, 127
1, 14336, Note_off_c, 1, 83, 0
1, 14592, Note_on_c, 1, 54, 127
1, 14976, Note_off_c, 1, 54, 0
1, 15360, Note_on_c, 1, 31, 127
1, 15424, Note_on_c, 1, 86, 127
1, 15488, Note_off_c, 1, 86, 0
1, 15936, Note_off_c, 1, 31, 0
1, 15936, Note_on_c, 1, 35, 127
1, 16032, Note_off_c, 1, 35, 0
1, 16080, Note_on_c, 1, 38, 127
1, 16128, Note_off_c, 1, 38, 0
1, 17472, Note_on_c, 1, 42, 127
1, 17568, Note_off_c, 1, 42, 0
1, 18432, Note_on_c, 1, 61, 127
1, 18816, Note_off_c, 1, 61, 0
1, 18816, Note_on_c, 1, 75, 127
1, 19008, Note_off_c, 1, 75, 0
1, 19008, Note_on_c, 1, 80, 127
1, 19264, Note_off_c, 1, 80, 0
1, 19584, Note_on_c, 1, 58, 127
1, 19840, Note_on_c, 1, 73, 127
1, 19904, Note_off_c, 1, 73, 0
1, 19968, Note_off_c, 1, 58, 0
1, 21504, Note_on_c, 1, 91, 127
1, 21888, Note_off_c, 1, 91, 0
1, 25296, Note_on_c, 1, 46, 127
1, 25344, Note_off_c, 1, 46, 0
1, 25344, Note_on_c, 1, 49, 127
1, 25344, Note_on_c, 1, 37, 127
1, 25920, Note_off_c, 1, 49, 0
1, 25920, Note_off_c, 1, 37, 0
1, 26112, Note_on_c, 1, 33, 127
1, 26688, Note_off_c, 1, 33, 0
1, 26880, Note_on_c, 1, 26, 127
1, 27264, Note_off_c, 1, 26, 0
1, 36096, Note_on_c, 1, 56, 127
1, 36480, Note_off_c, 1, 56, 0
1, 36928, Note_on_c, 1, 88, 127
1, 36992, Note_off_c, 1, 88, 0
1, 38400, Note_on_c, 1, 68, 127
1, 38592, Note_off_c, 1, 68, 0
1, 38976, Note_on_c, 1, 44, 127
1, 39072, Note_off_c, 1, 44, 0
1, 39936, Note_on_c, 1, 63, 127
1, 40320, Note_off_c, 1, 63, 0
1, 50592, Note_on_c, 1, 51, 127
1, 50592, Note_on_c, 1, 39, 127
1, 50640, Note_off_c, 1, 51, 0
1, 50640, Note_off_c, 1, 39, 0
1, 51456, Note_on_c, 1, 24, 127
1, 51840, Note_off_c, 1, 24, 0
1, 51840, End_track
0, 0, End_of_file