0, 0, Header, 1, 1, 480
1, 0, Start_track
1, 0, Title_t, "Test"
1, 0, Tempo, 500000
1, 0, Instrument_name_t, "Church Organ"
1, 60, Note_on_c, 1, 62, 127
1, 60, Note_on_c, 1, 50, 127
1, 120, Note_off_c, 1, 62, 0
1, 120, Note_off_c, 1, 50, 0
1, 120, Note_on_c, 1, 64, 127
1, 120, Note_on_c, 1, 52, 127
1, 180, Note_off_c, 1, 64, 0
1, 180, Note_off_c, 1, 52, 0
1, 180, Note_on_c, 1, 65, 127
1, 180, Note_on_c, 1, 53, 127
1, 300, Note_off_c, 1, 65, 0
1, 300, Note_off_c, 1, 53, 0
1, 300, Note_on_c, 1, 67, 127
1, 300, Note_on_c, 1, 55, 127
1, 360, Note_off_c, 1, 67, 0
1, 360, Note_off_c, 1, 55, 0
1, 360, Note_on_c, 1, 69, 127
1, 360, Note_on_c, 1, 57, 127
1, 480, Note_off_c, 1, 69, 0
1, 480, Note_off_c, 1, 57, 0
1, 480, Note_on_c, 1, 70, 127
1, 480, Note_on_c, 1, 58, 127
1, 540, Note_off_c, 1, 70, 0
1, 540, Note_off_c, 1, 58, 0
1, 720, Note_on_c, 1, 61, 127
1, 720, Note_on_c, 1, 49, 127
1, 780, Note_off_c, 1, 61, 0
1, 780, Note_off_c, 1, 49, 0
1, 780, Note_on_c, 1, 45, 127
1, 810, Note_off_c, 1, 45, 0
1, 810, Note_on_c, 1, 59, 127
1, 810, Note_on_c, 1, 47, 127
1, 840, Note_off_c, 1, 59, 0
1, 840, Note_off_c, 1, 47, 0
1, 2370, Note_on_c, 1, 55, 127
1, 2370, Note_on_c, 1, 43, 127
1, 2400, Note_off_c, 1, 55, 0
1, 2400, Note_off_c, 1, 43, 0
1, 2400, Note_on_c, 1, 57, 127
1, 2400, Note_on_c, 1, 45, 127
1, 2520, Note_off_c, 1, 57, 0
1, 2520, Note_off_c, 1, 45, 0
1, 2520, Note_on_c, 1, 62, 127
1, 2520, Note_on_c, 1, 38, 127
1, 2520, Note_on_c, 1, 50, 127
1, 2580, Note_off_c, 1, 62, 0
1, 2580, Note_off_c, 1, 38, 0
1, 2580, Note_off_c, 1, 50, 0
1, 2580, Note_on_c, 1, 74, 127
1, 2580, Note_on_c, 1, 65, 127
1, 2610, Note_off_c, 1, 65, 0
1, 2610, Note_on_c, 1, 69, 127
1, 2640, Note_off_c, 1, 69, 0
1, 2640, Note_on_c, 1, 76, 127
1, 2640, Note_on_c, 1, 77, 127
1, 2655, Note_off_c, 1, 77, 0
1, 2670, Note_on_c, 1, 73, 127
1, 2685, Note_off_c, 1, 74, 0
1, 2700, Note_off_c, 1, 76, 0
1, 2700, Note_off_c, 1, 73, 0
1, 2820, Note_on_c, 1, 79, 127
1, 2820, Note_on_c, 1, 64, 127
1, 2820, Note_on_c, 1, 52, 127
1, 2820, Note_on_c, 1, 81, 127
1, 2820, Note_on_c, 1, 67, 127
1, 2835, Note_off_c, 1, 81, 0
1, 2880, Note_off_c, 1, 79, 0
1, 2880, Note_off_c, 1, 64, 0
1, 2880, Note_off_c, 1, 52, 0
1, 2880, Note_off_c, 1, 67, 0
1, 2880, Note_on_c, 1, 53, 127
1, 2910, Note_on_c, 1, 72, 127
1, 2940, Note_off_c, 1, 72, 0
1, 2940, Note_on_c, 1, 70, 127
1, 2970, Note_off_c, 1, 70, 0
1, 3000, Note_off_c, 1, 53, 0
1, 3000, Note_on_c, 1, 82, 127
1, 3060, Note_off_c, 1, 82, 0
1, 3060, Note_on_c, 1, 61, 127
1, 3090, Note_on_c, 1, 59, 127
1, 3120, Note_off_c, 1, 59, 0
1, 3180, Note_on_c, 1, 58, 127
1, 3210, Note_off_c, 1, 61, 0
1, 3240, Note_off_c, 1, 58, 0
1, 3270, Note_on_c, 1, 71, 127
1, 3300, Note_off_c, 1, 71, 0
1, 3420, Note_on_c, 1, 49, 127
1, 3480, Note_off_c, 1, 49, 0
1, 4110, Note_on_c, 1, 80, 127
1, 4140, Note_off_c, 1, 80, 0
1, 4260, Note_on_c, 1, 47, 127
1, 4320, Note_off_c, 1, 47, 0
1, 4320, Note_on_c, 1, 48, 127
1, 4320, Note_on_c, 1, 60, 127
1, 4440, Note_off_c, 1, 48, 0
1, 4440, Note_off_c, 1, 60, 0
1, 4500, Note_on_c, 1, 68, 127
1, 4530, Note_on_c, 1, 66, 127
1, 4560, Note_off_c, 1, 66, 0
1, 4650, Note_off_c, 1, 68, 0
1, 4860, Note_on_c, 1, 44, 127
1, 4860, Note_on_c, 1, 56, 127
1, 4920, Note_off_c, 1, 44, 0
1, 4920, Note_off_c, 1, 56, 0
1, 4920, Note_on_c, 1, 40, 127
1, 4980, Note_off_c, 1, 40, 0
1, 4980, Note_on_c, 1, 83, 127
1, 4995, Note_off_c, 1, 83, 0
1, 5460, Note_on_c, 1, 74, 127
1, 5460, Note_on_c, 1, 66, 127
1, 5460, Note_on_c, 1, 69, 127
1, 5460, Note_on_c, 1, 50, 127
1, 5460, Note_on_c, 1, 78, 127
1, 5460, Note_on_c, 1, 62, 127
1, 5460, Note_on_c, 1, 57, 127
1, 5474, Note_off_c, 1, 78, 0
1, 5475, Note_on_c, 1, 79, 127
1, 5489, Note_off_c, 1, 79, 0
1, 5490, Note_on_c, 1, 60, 127
1, 5519, Note_off_c, 1, 74, 0
1, 5519, Note_off_c, 1, 66, 0
1, 5519, Note_off_c, 1, 69, 0
1, 5519, Note_off_c, 1, 50, 0
1, 5519, Note_off_c, 1, 62, 0
1, 5519, Note_off_c, 1, 57, 0
1, 5519, Note_off_c, 1, 60, 0
1, 5520, Note_on_c, 1, 38, 127
1, 5520, Note_on_c, 1, 78, 127
1, 5520, Note_on_c, 1, 50, 127
1, 5520, Note_on_c, 1, 69, 127
1, 5520, Note_on_c, 1, 74, 127
1, 5520, Note_on_c, 1, 62, 127
1, 5520, Note_on_c, 1, 59, 127
1, 5520, Note_on_c, 1, 54, 127
1, 5534, Note_off_c, 1, 78, 0
1, 5535, Note_on_c, 1, 79, 127
1, 5549, Note_off_c, 1, 59, 0
1, 5549, Note_off_c, 1, 79, 0
1, 5550, Note_on_c, 1, 76, 127
1, 5550, Note_on_c, 1, 57, 127
1, 5550, Note_on_c, 1, 72, 127
1, 5564, Note_off_c, 1, 76, 0
1, 5579, Note_off_c, 1, 38, 0
1, 5579, Note_off_c, 1, 50, 0
1, 5579, Note_off_c, 1, 69, 0
1, 5579, Note_off_c, 1, 74, 0
1, 5579, Note_off_c, 1, 62, 0
1, 5579, Note_off_c, 1, 54, 0
1, 5579, Note_off_c, 1, 57, 0
1, 5579, Note_off_c, 1, 72, 0
1, 5580, Note_on_c, 1, 74, 127
1, 5580, Note_on_c, 1, 67, 127
1, 5580, Note_on_c, 1, 58, 127
1, 5580, Note_on_c, 1, 43, 127
1, 5580, Note_on_c, 1, 79, 127
1, 5580, Note_on_c, 1, 70, 127
1, 5580, Note_on_c, 1, 62, 127
1, 5580, Note_on_c, 1, 55, 127
1, 5580, Note_on_c, 1, 50, 127
1, 5609, Note_off_c, 1, 62, 0
1, 5610, Note_on_c, 1, 69, 127
1, 5639, Note_off_c, 1, 74, 0
1, 5639, Note_off_c, 1, 67, 0
1, 5639, Note_off_c, 1, 58, 0
1, 5639, Note_off_c, 1, 43, 0
1, 5639, Note_off_c, 1, 79, 0
1, 5639, Note_off_c, 1, 70, 0
1, 5639, Note_off_c, 1, 55, 0
1, 5639, Note_off_c, 1, 50, 0
1, 5639, Note_off_c, 1, 69, 0
1, 5640, Note_on_c, 1, 71, 127
1, 5640, Note_on_c, 1, 62, 127
1, 5640, Note_on_c, 1, 55, 127
1, 5640, Note_on_c, 1, 79, 127
1, 5640, Note_on_c, 1, 74, 127
1, 5640, Note_on_c, 1, 67, 127
1, 5640, Note_on_c, 1, 72, 127
1, 5654, Note_off_c, 1, 72, 0
1, 5669, Note_off_c, 1, 67, 0
1, 5670, Note_on_c, 1, 65, 127
1, 5699, Note_off_c, 1, 71, 0
1, 5699, Note_off_c, 1, 62, 0
1, 5699, Note_off_c, 1, 55, 0
1, 5699, Note_off_c, 1, 79, 0
1, 5699, Note_off_c, 1, 74, 0
1, 5699, Note_off_c, 1, 65, 0
1, 5700, Note_on_c, 1, 43, 127
1, 5700, Note_on_c, 1, 67, 127
1, 5700, Note_on_c, 1, 79, 127
1, 5700, Note_on_c, 1, 74, 127
1, 5700, Note_on_c, 1, 64, 127
1, 5700, Note_on_c, 1, 59, 127
1, 5700, Note_on_c, 1, 72, 127
1, 5714, Note_off_c, 1, 72, 0
1, 5715, Note_on_c, 1, 71, 127
1, 5729, Note_off_c, 1, 64, 0
1, 5729, Note_off_c, 1, 71, 0
1, 5730, Note_on_c, 1, 62, 127
1, 5730, Note_on_c, 1, 77, 127
1, 5730, Note_on_c, 1, 69, 127
1, 5744, Note_off_c, 1, 69, 0
1, 5759, Note_off_c, 1, 43, 0
1, 5759, Note_off_c, 1, 67, 0
1, 5759, Note_off_c, 1, 79, 0
1, 5759, Note_off_c, 1, 74, 0
1, 5759, Note_off_c, 1, 59, 0
1, 5759, Note_off_c, 1, 62, 0
1, 5759, Note_off_c, 1, 77, 0
1, 5760, Note_on_c, 1, 79, 127
1, 5760, Note_on_c, 1, 72, 127
1, 5760, Note_on_c, 1, 64, 127
1, 5760, Note_on_c, 1, 48, 127
1, 5760, Note_on_c, 1, 67, 127
1, 5760, Note_on_c, 1, 76, 127
1, 5760, Note_on_c, 1, 60, 127
1, 5760, Note_on_c, 1, 55, 127
1, 5789, Note_off_c, 1, 67, 0
1, 5790, Note_on_c, 1, 62, 127
1, 5819, Note_off_c, 1, 79, 0
1, 5819, Note_off_c, 1, 72, 0
1, 5819, Note_off_c, 1, 64, 0
1, 5819, Note_off_c, 1, 48, 0
1, 5819, Note_off_c, 1, 76, 0
1, 5819, Note_off_c, 1, 60, 0
1, 5819, Note_off_c, 1, 55, 0
1, 5819, Note_off_c, 1, 62, 0
1, 5820, Note_on_c, 1, 72, 127
1, 5820, Note_on_c, 1, 64, 127
1, 5820, Note_on_c, 1, 67, 127
1, 5820, Note_on_c, 1, 60, 127
1, 5820, Note_on_c, 1, 76, 127
1, 5820, Note_on_c, 1, 77, 127
1, 5834, Note_off_c, 1, 77, 0
1, 5849, Note_off_c, 1, 76, 0
1, 5850, Note_on_c, 1, 79, 127
1, 5850, Note_on_c, 1, 58, 127
1, 5879, Note_off_c, 1, 72, 0
1, 5879, Note_off_c, 1, 64, 0
1, 5879, Note_off_c, 1, 67, 0
1, 5879, Note_off_c, 1, 60, 0
1, 5879, Note_off_c, 1, 79, 0
1, 5879, Note_off_c, 1, 58, 0
1, 5880, Note_on_c, 1, 48, 127
1, 5880, Note_on_c, 1, 84, 127
1, 5880, Note_on_c, 1, 64, 127
1, 5880, Note_on_c, 1, 77, 127
1, 5880, Note_on_c, 1, 72, 127
1, 5880, Note_on_c, 1, 67, 127
1, 5880, Note_on_c, 1, 60, 127
1, 5880, Note_on_c, 1, 57, 127
1, 5894, Note_off_c, 1, 77, 0
1, 5895, Note_on_c, 1, 76, 127
1, 5909, Note_off_c, 1, 84, 0
1, 5909, Note_off_c, 1, 57, 0
1, 5909, Note_off_c, 1, 76, 0
1, 5910, Note_on_c, 1, 83, 127
1, 5910, Note_on_c, 1, 74, 127
1, 5910, Note_on_c, 1, 55, 127
1, 5924, Note_off_c, 1, 74, 0
1, 5939, Note_off_c, 1, 48, 0
1, 5939, Note_off_c, 1, 64, 0
1, 5939, Note_off_c, 1, 72, 0
1, 5939, Note_off_c, 1, 67, 0
1, 5939, Note_off_c, 1, 60, 0
1, 5939, Note_off_c, 1, 83, 0
1, 5939, Note_off_c, 1, 55, 0
1, 5940, Note_on_c, 1, 81, 127
1, 5940, Note_on_c, 1, 72, 127
1, 5940, Note_on_c, 1, 65, 127
1, 5940, Note_on_c, 1, 53, 127
1, 5940, Note_on_c, 1, 60, 127
1, 5940, Note_on_c, 1, 77, 127
1, 5940, Note_on_c, 1, 69, 127
1, 5969, Note_off_c, 1, 81, 0
1, 5969, Note_off_c, 1, 69, 0
1, 5970, Note_on_c, 1, 80, 127
1, 5970, Note_on_c, 1, 71, 127
1, 5999, Note_off_c, 1, 72, 0
1, 5999, Note_off_c, 1, 65, 0
1, 5999, Note_off_c, 1, 53, 0
1, 5999, Note_off_c, 1, 60, 0
1, 5999, Note_off_c, 1, 77, 0
1, 5999, Note_off_c, 1, 80, 0
1, 5999, Note_off_c, 1, 71, 0
1, 6000, Note_on_c, 1, 81, 127
1, 6000, Note_on_c, 1, 72, 127
1, 6000, Note_on_c, 1, 65, 127
1, 6000, Note_on_c, 1, 52, 127
1, 6000, Note_on_c, 1, 57, 127
1, 6000, Note_on_c, 1, 77, 127
1, 6000, Note_on_c, 1, 69, 127
1, 6029, Note_off_c, 1, 81, 0
1, 6030, Note_on_c, 1, 84, 127
1, 6059, Note_off_c, 1, 72, 0
1, 6059, Note_off_c, 1, 65, 0
1, 6059, Note_off_c, 1, 52, 0
1, 6059, Note_off_c, 1, 57, 0
1, 6059, Note_off_c, 1, 77, 0
1, 6059, Note_off_c, 1, 69, 0
1, 6059, Note_off_c, 1, 84, 0
1, 6060, Note_on_c, 1, 83, 127
1, 6060, Note_on_c, 1, 77, 127
1, 6060, Note_on_c, 1, 65, 127
1, 6060, Note_on_c, 1, 50, 127
1, 6060, Note_on_c, 1, 62, 127
1, 6060, Note_on_c, 1, 74, 127
1, 6060, Note_on_c, 1, 71, 127
1, 6089, Note_off_c, 1, 83, 0
1, 6090, Note_on_c, 1, 81, 127
1, 6119, Note_off_c, 1, 77, 0
1, 6119, Note_off_c, 1, 65, 0
1, 6119, Note_off_c, 1, 50, 0
1, 6119, Note_off_c, 1, 62, 0
1, 6119, Note_off_c, 1, 74, 0
1, 6119, Note_off_c, 1, 71, 0
1, 6119, Note_off_c, 1, 81, 0
1, 6120, Note_on_c, 1, 80, 127
1, 6120, Note_on_c, 1, 76, 127
1, 6120, Note_on_c, 1, 59, 127
1, 6120, Note_on_c, 1, 52, 127
1, 6120, Note_on_c, 1, 64, 127
1, 6120, Note_on_c, 1, 71, 127
1, 6120, Note_on_c, 1, 68, 127
1, 6149, Note_off_c, 1, 80, 0
1, 6150, Note_on_c, 1, 78, 127
1, 6150, Note_on_c, 1, 72, 127
1, 6178, Note_off_c, 1, 71, 0
1, 6178, Note_off_c, 1, 68, 0
1, 6179, Note_off_c, 1, 76, 0
1, 6179, Note_off_c, 1, 59, 0
1, 6179, Note_off_c, 1, 52, 0
1, 6179, Note_off_c, 1, 64, 0
1, 6179, Note_off_c, 1, 78, 0
1, 6179, Note_off_c, 1, 72, 0
1, 6180, Note_on_c, 1, 76, 127
1, 6180, Note_on_c, 1, 71, 127
1, 6180, Note_on_c, 1, 68, 127
1, 6180, Note_on_c, 1, 50, 127
1, 6180, Note_on_c, 1, 62, 127
1, 6209, Note_off_c, 1, 76, 0
1, 6209, Note_off_c, 1, 50, 0
1, 6209, Note_off_c, 1, 62, 0
1, 6210, Note_on_c, 1, 78, 127
1, 6210, Note_on_c, 1, 48, 127
1, 6210, Note_on_c, 1, 60, 127
1, 6210, Note_on_c, 1, 69, 127
1, 6239, Note_off_c, 1, 71, 0
1, 6239, Note_off_c, 1, 68, 0
1, 6239, Note_off_c, 1, 78, 0
1, 6239, Note_off_c, 1, 48, 0
1, 6239, Note_off_c, 1, 60, 0
1, 6239, Note_off_c, 1, 69, 0
1, 6240, Note_on_c, 1, 80, 127
1, 6240, Note_on_c, 1, 76, 127
1, 6240, Note_on_c, 1, 71, 127
1, 6240, Note_on_c, 1, 47, 127
1, 6240, Note_on_c, 1, 59, 127
1, 6240, Note_on_c, 1, 68, 127
1, 6269, Note_off_c, 1, 80, 0
1, 6269, Note_off_c, 1, 47, 0
1, 6269, Note_off_c, 1, 59, 0
1, 6269, Note_off_c, 1, 68, 0
1, 6270, Note_on_c, 1, 81, 127
1, 6270, Note_on_c, 1, 45, 127
1, 6270, Note_on_c, 1, 57, 127
1, 6270, Note_on_c, 1, 72, 127
1, 6270, Note_on_c, 1, 66, 127
1, 6299, Note_off_c, 1, 76, 0
1, 6299, Note_off_c, 1, 71, 0
1, 6299, Note_off_c, 1, 81, 0
1, 6299, Note_off_c, 1, 45, 0
1, 6299, Note_off_c, 1, 57, 0
1, 6299, Note_off_c, 1, 72, 0
1, 6299, Note_off_c, 1, 66, 0
1, 6300, Note_on_c, 1, 83, 127
1, 6300, Note_on_c, 1, 76, 127
1, 6300, Note_on_c, 1, 74, 127
1, 6300, Note_on_c, 1, 44, 127
1, 6300, Note_on_c, 1, 56, 127
1, 6300, Note_on_c, 1, 64, 127
1, 6359, Note_off_c, 1, 83, 0
1, 6359, Note_off_c, 1, 76, 0
1, 6359, Note_off_c, 1, 74, 0
1, 6359, Note_off_c, 1, 44, 0
1, 6359, Note_off_c, 1, 56, 0
1, 6359, Note_off_c, 1, 64, 0
1, 6360, Note_on_c, 1, 83, 127
1, 6360, Note_on_c, 1, 76, 127
1, 6360, Note_on_c, 1, 68, 127
1, 6360, Note_on_c, 1, 40, 127
1, 6360, Note_on_c, 1, 80, 127
1, 6360, Note_on_c, 1, 52, 127
1, 6360, Note_on_c, 1, 74, 127
1, 6390, Note_on_c, 1, 72, 127
1, 6419, Note_off_c, 1, 83, 0
1, 6419, Note_off_c, 1, 76, 0
1, 6419, Note_off_c, 1, 68, 0
1, 6419, Note_off_c, 1, 40, 0
1, 6419, Note_off_c, 1, 80, 0
1, 6419, Note_off_c, 1, 52, 0
1, 6419, Note_off_c, 1, 74, 0
1, 6419, Note_off_c, 1, 72, 0
1, 6420, Note_on_c, 1, 84, 127
1, 6420, Note_on_c, 1, 76, 127
1, 6420, Note_on_c, 1, 64, 127
1, 6420, Note_on_c, 1, 45, 127
1, 6420, Note_on_c, 1, 81, 127
1, 6420, Note_on_c, 1, 57, 127
1, 6420, Note_on_c, 1, 71, 127
1, 6420, Note_on_c, 1, 72, 127
1, 6449, Note_off_c, 1, 71, 0
1, 6450, Note_on_c, 1, 69, 127
1, 6479, Note_off_c, 1, 84, 0
1, 6479, Note_off_c, 1, 76, 0
1, 6479, Note_off_c, 1, 64, 0
1, 6479, Note_off_c, 1, 45, 0
1, 6479, Note_off_c, 1, 81, 0
1, 6479, Note_off_c, 1, 57, 0
1, 6479, Note_off_c, 1, 72, 0
1, 6479, Note_off_c, 1, 69, 0
1, 6480, Note_on_c, 1, 83, 127
1, 6480, Note_on_c, 1, 76, 127
1, 6480, Note_on_c, 1, 68, 127
1, 6480, Note_on_c, 1, 40, 127
1, 6480, Note_on_c, 1, 64, 127
1, 6480, Note_on_c, 1, 80, 127
1, 6480, Note_on_c, 1, 52, 127
1, 6539, Note_off_c, 1, 83, 0
1, 6539, Note_off_c, 1, 76, 0
1, 6539, Note_off_c, 1, 68, 0
1, 6539, Note_off_c, 1, 40, 0
1, 6539, Note_off_c, 1, 64, 0
1, 6539, Note_off_c, 1, 80, 0
1, 6539, Note_off_c, 1, 52, 0
1, 6540, Note_on_c, 1, 86, 127
1, 6540, Note_on_c, 1, 40, 127
1, 6540, Note_on_c, 1, 52, 127
1, 6569, Note_off_c, 1, 40, 0
1, 6569, Note_off_c, 1, 52, 0
1, 6570, Note_on_c, 1, 42, 127
1, 6570, Note_on_c, 1, 54, 127
1, 6599, Note_off_c, 1, 86, 0
1, 6599, Note_off_c, 1, 42, 0
1, 6599, Note_off_c, 1, 54, 0
1, 6600, Note_on_c, 1, 86, 127
1, 6600, Note_on_c, 1, 44, 127
1, 6600, Note_on_c, 1, 56, 127
1, 6629, Note_off_c, 1, 44, 0
1, 6629, Note_off_c, 1, 56, 0
1, 6630, Note_on_c, 1, 45, 127
1, 6630, Note_on_c, 1, 57, 127
1, 6659, Note_off_c, 1, 86, 0
1, 6659, Note_off_c, 1, 45, 0
1, 6659, Note_off_c, 1, 57, 0
1, 6660, Note_on_c, 1, 80, 127
1, 6660, Note_on_c, 1, 47, 127
1, 6660, Note_on_c, 1, 59, 127
1, 6689, Note_off_c, 1, 47, 0
1, 6689, Note_off_c, 1, 59, 0
1, 6690, Note_on_c, 1, 45, 127
1, 6690, Note_on_c, 1, 57, 127
1, 6719, Note_off_c, 1, 80, 0
1, 6719, Note_off_c, 1, 45, 0
1, 6719, Note_off_c, 1, 57, 0
1, 6720, Note_on_c, 1, 83, 127
1, 6720, Note_on_c, 1, 74, 127
1, 6720, Note_on_c, 1, 44, 127
1, 6720, Note_on_c, 1, 56, 127
1, 6749, Note_off_c, 1, 44, 0
1, 6749, Note_off_c, 1, 56, 0
1, 6750, Note_on_c, 1, 45, 127
1, 6750, Note_on_c, 1, 57, 127
1, 6779, Note_off_c, 1, 83, 0
1, 6779, Note_off_c, 1, 74, 0
1, 6779, Note_off_c, 1, 45, 0
1, 6779, Note_off_c, 1, 57, 0
1, 6780, Note_on_c, 1, 83, 127
1, 6780, Note_on_c, 1, 74, 127
1, 6780, Note_on_c, 1, 47, 127
1, 6780, Note_on_c, 1, 59, 127
1, 6809, Note_off_c, 1, 47, 0
1, 6809, Note_off_c, 1, 59, 0
1, 6810, Note_on_c, 1, 48, 127
1, 6810, Note_on_c, 1, 60, 127
1, 6839, Note_off_c, 1, 83, 0
1, 6839, Note_off_c, 1, 74, 0
1, 6839, Note_off_c, 1, 48, 0
1, 6839, Note_off_c, 1, 60, 0
1, 6840, Note_on_c, 1, 76, 127
1, 6840, Note_on_c, 1, 68, 127
1, 6840, Note_on_c, 1, 50, 127
1, 6840, Note_on_c, 1, 62, 127
1, 6869, Note_off_c, 1, 50, 0
1, 6869, Note_off_c, 1, 62, 0
1, 6870, Note_on_c, 1, 48, 127
1, 6870, Note_on_c, 1, 60, 127
1, 6899, Note_off_c, 1, 76, 0
1, 6899, Note_off_c, 1, 68, 0
1, 6899, Note_off_c, 1, 48, 0
1, 6899, Note_off_c, 1, 60, 0
1, 6900, Note_on_c, 1, 80, 127
1, 6900, Note_on_c, 1, 74, 127
1, 6900, Note_on_c, 1, 71, 127
1, 6900, Note_on_c, 1, 47, 127
1, 6900, Note_on_c, 1, 59, 127
1, 6929, Note_off_c, 1, 47, 0
1, 6929, Note_off_c, 1, 59, 0
1, 6930, Note_on_c, 1, 48, 127
1, 6930, Note_on_c, 1, 60, 127
1, 6959, Note_off_c, 1, 80, 0
1, 6959, Note_off_c, 1, 74, 0
1, 6959, Note_off_c, 1, 71, 0
1, 6959, Note_off_c, 1, 48, 0
1, 6959, Note_off_c, 1, 60, 0
1, 6960, Note_on_c, 1, 80, 127
1, 6960, Note_on_c, 1, 74, 127
1, 6960, Note_on_c, 1, 71, 127
1, 6960, Note_on_c, 1, 50, 127
1, 6960, Note_on_c, 1, 62, 127
1, 6989, Note_off_c, 1, 50, 0
1, 6989, Note_off_c, 1, 62, 0
1, 6990, Note_on_c, 1, 52, 127
1, 6990, Note_on_c, 1, 64, 127
1, 7019, Note_off_c, 1, 80, 0
1, 7019, Note_off_c, 1, 74, 0
1, 7019, Note_off_c, 1, 71, 0
1, 7019, Note_off_c, 1, 52, 0
1, 7019, Note_off_c, 1, 64, 0
1, 7020, Note_on_c, 1, 71, 127
1, 7020, Note_on_c, 1, 68, 127
1, 7020, Note_on_c, 1, 62, 127
1, 7020, Note_on_c, 1, 53, 127
1, 7020, Note_on_c, 1, 65, 127
1, 7049, Note_off_c, 1, 53, 0
1, 7049, Note_off_c, 1, 65, 0
1, 7050, Note_on_c, 1, 52, 127
1, 7050, Note_on_c, 1, 64, 127
1, 7079, Note_off_c, 1, 71, 0
1, 7079, Note_off_c, 1, 68, 0
1, 7079, Note_off_c, 1, 62, 0
1, 7079, Note_off_c, 1, 52, 0
1, 7079, Note_off_c, 1, 64, 0
1, 7080, Note_on_c, 1, 74, 127
1, 7080, Note_on_c, 1, 71, 127
1, 7080, Note_on_c, 1, 65, 127
1, 7080, Note_on_c, 1, 50, 127
1, 7080, Note_on_c, 1, 62, 127
1, 7109, Note_off_c, 1, 50, 0
1, 7109, Note_off_c, 1, 62, 0
1, 7110, Note_on_c, 1, 48, 127
1, 7110, Note_on_c, 1, 60, 127
1, 7139, Note_off_c, 1, 74, 0
1, 7139, Note_off_c, 1, 71, 0
1, 7139, Note_off_c, 1, 65, 0
1, 7139, Note_off_c, 1, 48, 0
1, 7139, Note_off_c, 1, 60, 0
1, 7140, Note_on_c, 1, 74, 127
1, 7140, Note_on_c, 1, 71, 127
1, 7140, Note_on_c, 1, 65, 127
1, 7140, Note_on_c, 1, 47, 127
1, 7140, Note_on_c, 1, 59, 127
1, 7169, Note_off_c, 1, 47, 0
1, 7169, Note_off_c, 1, 59, 0
1, 7170, Note_on_c, 1, 45, 127
1, 7170, Note_on_c, 1, 57, 127
1, 7199, Note_off_c, 1, 74, 0
1, 7199, Note_off_c, 1, 71, 0
1, 7199, Note_off_c, 1, 65, 0
1, 7199, Note_off_c, 1, 45, 0
1, 7199, Note_off_c, 1, 57, 0
1, 7200, Note_on_c, 1, 64, 127
1, 7200, Note_on_c, 1, 71, 127
1, 7200, Note_on_c, 1, 59, 127
1, 7200, Note_on_c, 1, 44, 127
1, 7200, Note_on_c, 1, 56, 127
1, 7229, Note_off_c, 1, 64, 0
1, 7229, Note_off_c, 1, 44, 0
1, 7229, Note_off_c, 1, 56, 0
1, 7230, Note_on_c, 1, 68, 127
1, 7230, Note_on_c, 1, 47, 127
1, 7259, Note_off_c, 1, 71, 0
1, 7259, Note_off_c, 1, 59, 0
1, 7259, Note_off_c, 1, 68, 0
1, 7259, Note_off_c, 1, 47, 0
1, 7260, Note_on_c, 1, 71, 127
1, 7260, Note_on_c, 1, 68, 127
1, 7260, Note_on_c, 1, 40, 127
1, 7260, Note_on_c, 1, 64, 127
1, 7260, Note_on_c, 1, 52, 127
1, 7289, Note_off_c, 1, 40, 0
1, 7289, Note_off_c, 1, 64, 0
1, 7289, Note_off_c, 1, 52, 0
1, 7290, Note_on_c, 1, 74, 127
1, 7290, Note_on_c, 1, 44, 127
1, 7290, Note_on_c, 1, 56, 127
1, 7319, Note_off_c, 1, 71, 0
1, 7319, Note_off_c, 1, 68, 0
1, 7319, Note_off_c, 1, 74, 0
1, 7319, Note_off_c, 1, 44, 0
1, 7319, Note_off_c, 1, 56, 0
1, 7320, Note_on_c, 1, 72, 127
1, 7320, Note_on_c, 1, 69, 127
1, 7320, Note_on_c, 1, 64, 127
1, 7320, Note_on_c, 1, 45, 127
1, 7320, Note_on_c, 1, 57, 127
1, 7320, Note_on_c, 1, 76, 127
1, 7379, Note_off_c, 1, 72, 0
1, 7379, Note_off_c, 1, 69, 0
1, 7379, Note_off_c, 1, 64, 0
1, 7379, Note_off_c, 1, 45, 0
1, 7379, Note_off_c, 1, 57, 0
1, 7379, Note_off_c, 1, 76, 0
1, 7410, Note_on_c, 1, 71, 127
1, 7410, Note_on_c, 1, 81, 127
1, 7410, Note_on_c, 1, 65, 127
1, 7410, Note_on_c, 1, 38, 127
1, 7410, Note_on_c, 1, 50, 127
1, 7439, Note_off_c, 1, 71, 0
1, 7439, Note_off_c, 1, 81, 0
1, 7439, Note_off_c, 1, 65, 0
1, 7439, Note_off_c, 1, 38, 0
1, 7439, Note_off_c, 1, 50, 0
1, 7440, Note_on_c, 1, 71, 127
1, 7440, Note_on_c, 1, 80, 127
1, 7440, Note_on_c, 1, 64, 127
1, 7440, Note_on_c, 1, 40, 127
1, 7440, Note_on_c, 1, 52, 127
1, 7499, Note_off_c, 1, 64, 0
1, 7499, Note_off_c, 1, 40, 0
1, 7499, Note_off_c, 1, 52, 0
1, 7500, Note_on_c, 1, 62, 127
1, 7529, Note_off_c, 1, 71, 0
1, 7529, Note_off_c, 1, 80, 0
1, 7530, Note_on_c, 1, 69, 127
1, 7530, Note_on_c, 1, 81, 127
1, 7559, Note_off_c, 1, 62, 0
1, 7559, Note_off_c, 1, 69, 0
1, 7559, Note_off_c, 1, 81, 0
1, 7560, Note_on_c, 1, 69, 127
1, 7560, Note_on_c, 1, 81, 127
1, 7560, Note_on_c, 1, 60, 127
1, 7560, Note_on_c, 1, 45, 127
1, 7590, Note_on_c, 1, 57, 127
1, 7619, Note_off_c, 1, 69, 0
1, 7619, Note_off_c, 1, 81, 0
1, 7619, Note_off_c, 1, 60, 0
1, 7619, Note_off_c, 1, 57, 0
1, 7620, Note_on_c, 1, 52, 127
1, 7649, Note_off_c, 1, 52, 0
1, 7650, Note_on_c, 1, 64, 127
1, 7679, Note_off_c, 1, 45, 0
1, 7679, Note_off_c, 1, 64, 0
1, 7680, Note_on_c, 1, 64, 127
1, 7680, Note_on_c, 1, 48, 127
1, 7680, Note_on_c, 1, 60, 127
1, 7709, Note_off_c, 1, 48, 0
1, 7709, Note_off_c, 1, 60, 0
1, 7710, Note_on_c, 1, 52, 127
1, 7710, Note_on_c, 1, 57, 127
1, 7739, Note_off_c, 1, 64, 0
1, 7739, Note_off_c, 1, 52, 0
1, 7739, Note_off_c, 1, 57, 0
1, 7740, Note_on_c, 1, 64, 127
1, 7740, Note_on_c, 1, 60, 127
1, 7740, Note_on_c, 1, 57, 127
1, 7740, Note_on_c, 1, 45, 127
1, 7799, Note_off_c, 1, 64, 0
1, 7799, Note_off_c, 1, 60, 0
1, 7799, Note_off_c, 1, 57, 0
1, 7830, Note_on_c, 1, 59, 127
1, 7830, Note_on_c, 1, 69, 127
1, 7859, Note_off_c, 1, 45, 0
1, 7859, Note_off_c, 1, 59, 0
1, 7859, Note_off_c, 1, 69, 0
1, 7860, Note_on_c, 1, 60, 127
1, 7860, Note_on_c, 1, 64, 127
1, 7889, Note_off_c, 1, 60, 0
1, 7889, Note_off_c, 1, 64, 0
1, 7890, Note_on_c, 1, 62, 127
1, 7890, Note_on_c, 1, 57, 127
1, 7890, Note_on_c, 1, 60, 127
1, 7919, Note_off_c, 1, 62, 0
1, 7919, Note_off_c, 1, 57, 0
1, 7919, Note_off_c, 1, 60, 0
1, 7920, Note_on_c, 1, 60, 127
1, 7920, Note_on_c, 1, 57, 127
1, 7920, Note_on_c, 1, 52, 127
1, 7920, Note_on_c, 1, 64, 127
1, 7920, Note_on_c, 1, 69, 127
1, 7949, Note_off_c, 1, 69, 0
1, 7979, Note_off_c, 1, 60, 0
1, 7979, Note_off_c, 1, 57, 0
1, 7979, Note_off_c, 1, 52, 0
1, 7979, Note_off_c, 1, 64, 0
1, 7980, Note_on_c, 1, 57, 127
1, 7980, Note_on_c, 1, 72, 127
1, 7980, Note_on_c, 1, 64, 127
1, 7980, Note_on_c, 1, 69, 127
1, 8009, Note_off_c, 1, 72, 0
1, 8009, Note_off_c, 1, 64, 0
1, 8009, Note_off_c, 1, 69, 0
1, 8010, Note_on_c, 1, 76, 127
1, 8039, Note_off_c, 1, 57, 0
1, 8039, Note_off_c, 1, 76, 0
1, 8040, Note_on_c, 1, 55, 127
1, 8040, Note_on_c, 1, 72, 127
1, 8040, Note_on_c, 1, 64, 127
1, 8040, Note_on_c, 1, 69, 127
1, 8069, Note_off_c, 1, 72, 0
1, 8069, Note_off_c, 1, 64, 0
1, 8069, Note_off_c, 1, 69, 0
1, 8070, Note_on_c, 1, 60, 127
1, 8099, Note_off_c, 1, 55, 0
1, 8099, Note_off_c, 1, 60, 0
1, 8100, Note_on_c, 1, 53, 127
1, 8100, Note_on_c, 1, 81, 127
1, 8100, Note_on_c, 1, 72, 127
1, 8100, Note_on_c, 1, 69, 127
1, 8129, Note_off_c, 1, 72, 0
1, 8129, Note_off_c, 1, 69, 0
1, 8130, Note_on_c, 1, 79, 127
1, 8130, Note_on_c, 1, 61, 127
1, 8159, Note_off_c, 1, 53, 0
1, 8159, Note_off_c, 1, 79, 0
1, 8159, Note_off_c, 1, 61, 0
1, 8160, Note_on_c, 1, 74, 127
1, 8160, Note_on_c, 1, 65, 127
1, 8160, Note_on_c, 1, 77, 127
1, 8160, Note_on_c, 1, 71, 127
1, 8160, Note_on_c, 1, 62, 127
1, 8189, Note_off_c, 1, 77, 0
1, 8189, Note_off_c, 1, 71, 0
1, 8189, Note_off_c, 1, 62, 0
1, 8190, Note_on_c, 1, 76, 127
1, 8190, Note_on_c, 1, 73, 127
1, 8190, Note_on_c, 1, 64, 127
1, 8219, Note_off_c, 1, 74, 0
1, 8219, Note_off_c, 1, 65, 0
1, 8219, Note_off_c, 1, 76, 0
1, 8219, Note_off_c, 1, 73, 0
1, 8219, Note_off_c, 1, 64, 0
1, 8220, Note_off_c, 1, 81, 0
1, 8220, Note_on_c, 1, 67, 127
1, 8220, Note_on_c, 1, 52, 127
1, 8279, Note_off_c, 1, 67, 0
1, 8279, Note_off_c, 1, 52, 0
1, 8280, Note_on_c, 1, 50, 127
1, 8340, Note_on_c, 1, 57, 127
1, 8369, Note_off_c, 1, 57, 0
1, 8399, Note_off_c, 1, 50, 0
1, 8400, Note_on_c, 1, 65, 127
1, 8400, Note_on_c, 1, 57, 127
1, 8400, Note_on_c, 1, 53, 127
1, 8429, Note_off_c, 1, 65, 0
1, 8429, Note_off_c, 1, 53, 0
1, 8430, Note_on_c, 1, 62, 127
1, 8459, Note_off_c, 1, 57, 0
1, 8459, Note_off_c, 1, 62, 0
1, 8460, Note_on_c, 1, 74, 127
1, 8460, Note_on_c, 1, 69, 127
1, 8460, Note_on_c, 1, 65, 127
1, 8460, Note_on_c, 1, 50, 127
1, 8460, Note_on_c, 1, 53, 127
1, 8489, Note_off_c, 1, 53, 0
1, 8490, Note_on_c, 1, 57, 127
1, 8490, Note_on_c, 1, 62, 127
1, 8519, Note_off_c, 1, 74, 0
1, 8519, Note_off_c, 1, 69, 0
1, 8519, Note_off_c, 1, 65, 0
1, 8519, Note_off_c, 1, 57, 0
1, 8519, Note_off_c, 1, 62, 0
1, 8550, Note_on_c, 1, 52, 127
1, 8579, Note_off_c, 1, 50, 0
1, 8579, Note_off_c, 1, 52, 0
1, 8580, Note_on_c, 1, 69, 127
1, 8580, Note_on_c, 1, 53, 127
1, 8580, Note_on_c, 1, 65, 127
1, 8609, Note_off_c, 1, 69, 0
1, 8609, Note_off_c, 1, 53, 0
1, 8609, Note_off_c, 1, 65, 0
1, 8610, Note_on_c, 1, 65, 127
1, 8610, Note_on_c, 1, 55, 127
1, 8610, Note_on_c, 1, 62, 127
1, 8639, Note_off_c, 1, 65, 0
1, 8639, Note_off_c, 1, 55, 0
1, 8639, Note_off_c, 1, 62, 0
1, 8640, Note_on_c, 1, 69, 127
1, 8640, Note_on_c, 1, 65, 127
1, 8640, Note_on_c, 1, 62, 127
1, 8640, Note_on_c, 1, 74, 127
1, 8640, Note_on_c, 1, 57, 127
1, 8669, Note_off_c, 1, 74, 0
1, 8699, Note_off_c, 1, 69, 0
1, 8699, Note_off_c, 1, 65, 0
1, 8699, Note_off_c, 1, 62, 0
1, 8699, Note_off_c, 1, 57, 0
1, 8700, Note_on_c, 1, 50, 127
1, 8700, Note_on_c, 1, 74, 127
1, 8700, Note_on_c, 1, 62, 127
1, 8700, Note_on_c, 1, 77, 127
1, 8700, Note_on_c, 1, 69, 127
1, 8729, Note_off_c, 1, 74, 0
1, 8729, Note_off_c, 1, 77, 0
1, 8729, Note_off_c, 1, 69, 0
1, 8730, Note_on_c, 1, 81, 127
1, 8759, Note_off_c, 1, 50, 0
1, 8759, Note_off_c, 1, 62, 0
1, 8759, Note_off_c, 1, 81, 0
1, 8760, Note_on_c, 1, 48, 127
1, 8760, Note_on_c, 1, 74, 127
1, 8760, Note_on_c, 1, 60, 127
1, 8760, Note_on_c, 1, 77, 127
1, 8760, Note_on_c, 1, 69, 127
1, 8789, Note_off_c, 1, 74, 0
1, 8789, Note_off_c, 1, 77, 0
1, 8789, Note_off_c, 1, 69, 0
1, 8790, Note_on_c, 1, 65, 127
1, 8819, Note_off_c, 1, 48, 0
1, 8819, Note_off_c, 1, 60, 0
1, 8819, Note_off_c, 1, 65, 0
1, 8820, Note_on_c, 1, 46, 127
1, 8820, Note_on_c, 1, 74, 127
1, 8820, Note_on_c, 1, 58, 127
1, 8820, Note_on_c, 1, 86, 127
1, 8820, Note_on_c, 1, 77, 127
1, 8849, Note_off_c, 1, 74, 0
1, 8849, Note_off_c, 1, 77, 0
1, 8850, Note_on_c, 1, 66, 127
1, 8850, Note_on_c, 1, 84, 127
1, 8879, Note_off_c, 1, 46, 0
1, 8879, Note_off_c, 1, 58, 0
1, 8879, Note_off_c, 1, 66, 0
1, 8879, Note_off_c, 1, 84, 0
1, 8880, Note_on_c, 1, 79, 127
1, 8880, Note_on_c, 1, 70, 127
1, 8880, Note_on_c, 1, 67, 127
1, 8880, Note_on_c, 1, 82, 127
1, 8880, Note_on_c, 1, 76, 127
1, 8909, Note_off_c, 1, 67, 0
1, 8909, Note_off_c, 1, 82, 0
1, 8909, Note_off_c, 1, 76, 0
1, 8910, Note_on_c, 1, 69, 127
1, 8910, Note_on_c, 1, 81, 127
1, 8910, Note_on_c, 1, 78, 127
1, 8939, Note_off_c, 1, 79, 0
1, 8939, Note_off_c, 1, 70, 0
1, 8939, Note_off_c, 1, 69, 0
1, 8939, Note_off_c, 1, 81, 0
1, 8939, Note_off_c, 1, 78, 0
1, 8940, Note_off_c, 1, 86, 0
1, 8940, Note_on_c, 1, 72, 127
1, 8940, Note_on_c, 1, 45, 127
1, 8940, Note_on_c, 1, 57, 127
1, 8999, Note_off_c, 1, 72, 0
1, 8999, Note_off_c, 1, 45, 0
1, 8999, Note_off_c, 1, 57, 0
1, 9000, Note_on_c, 1, 43, 127
1, 9000, Note_on_c, 1, 55, 127
1, 9059, Note_off_c, 1, 43, 0
1, 9090, Note_on_c, 1, 62, 127
1, 9119, Note_off_c, 1, 62, 0
1, 9180, Note_on_c, 1, 48, 127
1, 9180, Note_on_c, 1, 60, 127
1, 9210, Note_off_c, 1, 55, 0
1, 9225, Note_on_c, 1, 64, 127
1, 9239, Note_off_c, 1, 48, 0
1, 9239, Note_off_c, 1, 64, 0
1, 9240, Note_on_c, 1, 65, 127
1, 9240, Note_on_c, 1, 52, 127
1, 9254, Note_off_c, 1, 65, 0
1, 9269, Note_off_c, 1, 52, 0
1, 9360, Note_on_c, 1, 41, 127
1, 9360, Note_on_c, 1, 53, 127
1, 9390, Note_off_c, 1, 60, 0
1, 9419, Note_off_c, 1, 41, 0
1, 9570, Note_off_c, 1, 53, 0
1, 9600, Note_on_c, 1, 50, 127
1, 9629, Note_off_c, 1, 50, 0
1, 9720, Note_on_c, 1, 40, 127
1, 9750, Note_on_c, 1, 73, 127
1, 9764, Note_off_c, 1, 73, 0
1, 9765, Note_on_c, 1, 71, 127
1, 9779, Note_off_c, 1, 40, 0
1, 9779, Note_off_c, 1, 71, 0
1, 9930, Note_on_c, 1, 59, 127
1, 9944, Note_off_c, 1, 59, 0
1, 9945, Note_on_c, 1, 61, 127
1, 9959, Note_off_c, 1, 61, 0
1, 9960, Note_on_c, 1, 49, 127
1, 9989, Note_off_c, 1, 49, 0
1, 10200, Note_on_c, 1, 64, 127
1, 10200, Note_on_c, 1, 45, 127
1, 10200, Note_on_c, 1, 74, 127
1, 10200, Note_on_c, 1, 57, 127
1, 10229, Note_off_c, 1, 74, 0
1, 10230, Note_on_c, 1, 73, 127
1, 10259, Note_off_c, 1, 64, 0
1, 10259, Note_off_c, 1, 45, 0
1, 10259, Note_off_c, 1, 57, 0
1, 10259, Note_off_c, 1, 73, 0
1, 10260, Note_on_c, 1, 65, 127
1, 10260, Note_on_c, 1, 38, 127
1, 10260, Note_on_c, 1, 74, 127
1, 10260, Note_on_c, 1, 53, 127
1, 10290, Note_on_c, 1, 62, 127
1, 10319, Note_off_c, 1, 65, 0
1, 10319, Note_off_c, 1, 38, 0
1, 10319, Note_off_c, 1, 74, 0
1, 10319, Note_off_c, 1, 53, 0
1, 10319, Note_off_c, 1, 62, 0
1, 10320, Note_on_c, 1, 81, 127
1, 10320, Note_on_c, 1, 74, 127
1, 10320, Note_on_c, 1, 65, 127
1, 10320, Note_on_c, 1, 50, 127
1, 10320, Note_on_c, 1, 77, 127
1, 10350, Note_on_c, 1, 69, 127
1, 10379, Note_off_c, 1, 81, 0
1, 10379, Note_off_c, 1, 74, 0
1, 10379, Note_off_c, 1, 65, 0
1, 10379, Note_off_c, 1, 50, 0
1, 10379, Note_off_c, 1, 77, 0
1, 10379, Note_off_c, 1, 69, 0
1, 10380, Note_on_c, 1, 81, 127
1, 10380, Note_on_c, 1, 73, 127
1, 10380, Note_on_c, 1, 67, 127
1, 10380, Note_on_c, 1, 52, 127
1, 10380, Note_on_c, 1, 79, 127
1, 10380, Note_on_c, 1, 76, 127
1, 10380, Note_on_c, 1, 74, 127
1, 10409, Note_off_c, 1, 74, 0
1, 10439, Note_off_c, 1, 81, 0
1, 10439, Note_off_c, 1, 73, 0
1, 10439, Note_off_c, 1, 67, 0
1, 10439, Note_off_c, 1, 52, 0
1, 10439, Note_off_c, 1, 79, 0
1, 10439, Note_off_c, 1, 76, 0
1, 10440, Note_on_c, 1, 81, 127
1, 10440, Note_on_c, 1, 74, 127
1, 10440, Note_on_c, 1, 69, 127
1, 10440, Note_on_c, 1, 53, 127
1, 10440, Note_on_c, 1, 77, 127
1, 10469, Note_off_c, 1, 77, 0
1, 10470, Note_on_c, 1, 72, 127
1, 10499, Note_off_c, 1, 81, 0
1, 10499, Note_off_c, 1, 74, 0
1, 10499, Note_off_c, 1, 69, 0
1, 10499, Note_off_c, 1, 53, 0
1, 10499, Note_off_c, 1, 72, 0
1, 10500, Note_on_c, 1, 79, 127
1, 10500, Note_on_c, 1, 62, 127
1, 10500, Note_on_c, 1, 69, 127
1, 10500, Note_on_c, 1, 53, 127
1, 10500, Note_on_c, 1, 70, 127
1, 10529, Note_off_c, 1, 79, 0
1, 10529, Note_off_c, 1, 70, 0
1, 10530, Note_on_c, 1, 77, 127
1, 10559, Note_off_c, 1, 62, 0
1, 10559, Note_off_c, 1, 69, 0
1, 10559, Note_off_c, 1, 53, 0
1, 10559, Note_off_c, 1, 77, 0
1, 10560, Note_on_c, 1, 76, 127
1, 10560, Note_on_c, 1, 67, 127
1, 10560, Note_on_c, 1, 70, 127
1, 10560, Note_on_c, 1, 55, 127
1, 10589, Note_off_c, 1, 76, 0
1, 10590, Note_on_c, 1, 74, 127
1, 10590, Note_on_c, 1, 65, 127
1, 10619, Note_off_c, 1, 67, 0
1, 10619, Note_off_c, 1, 70, 0
1, 10619, Note_off_c, 1, 55, 0
1, 10619, Note_off_c, 1, 74, 0
1, 10619, Note_off_c, 1, 65, 0
1, 10620, Note_on_c, 1, 73, 127
1, 10620, Note_on_c, 1, 64, 127
1, 10620, Note_on_c, 1, 69, 127
1, 10620, Note_on_c, 1, 57, 127
1, 10650, Note_on_c, 1, 71, 127
1, 10679, Note_off_c, 1, 73, 0
1, 10679, Note_off_c, 1, 64, 0
1, 10679, Note_off_c, 1, 69, 0
1, 10679, Note_off_c, 1, 57, 0
1, 10679, Note_off_c, 1, 71, 0
1, 10680, Note_on_c, 1, 73, 127
1, 10680, Note_on_c, 1, 81, 127
1, 10680, Note_on_c, 1, 67, 127
1, 10680, Note_on_c, 1, 57, 127
1, 10709, Note_off_c, 1, 67, 0
1, 10710, Note_on_c, 1, 65, 127
1, 10710, Note_on_c, 1, 74, 127
1, 10739, Note_off_c, 1, 73, 0
1, 10739, Note_off_c, 1, 81, 0
1, 10739, Note_off_c, 1, 57, 0
1, 10739, Note_off_c, 1, 65, 0
1, 10739, Note_off_c, 1, 74, 0
1, 10740, Note_on_c, 1, 74, 127
1, 10740, Note_on_c, 1, 79, 127
1, 10740, Note_on_c, 1, 64, 127
1, 10740, Note_on_c, 1, 58, 127
1, 10740, Note_on_c, 1, 73, 127
1, 10755, Note_on_c, 1, 81, 127
1, 10769, Note_off_c, 1, 64, 0
1, 10769, Note_off_c, 1, 73, 0
1, 10770, Note_off_c, 1, 81, 0
1, 10770, Note_on_c, 1, 62, 127
1, 10799, Note_off_c, 1, 74, 0
1, 10799, Note_off_c, 1, 58, 0
1, 10799, Note_off_c, 1, 62, 0
1, 10800, Note_off_c, 1, 79, 0
1, 10800, Note_on_c, 1, 76, 127
1, 10800, Note_on_c, 1, 61, 127
1, 10800, Note_on_c, 1, 57, 127
1, 10829, Note_off_c, 1, 61, 0
1, 10830, Note_on_c, 1, 59, 127
1, 10830, Note_on_c, 1, 77, 127
1, 10859, Note_off_c, 1, 57, 0
1, 10859, Note_off_c, 1, 59, 0
1, 10859, Note_off_c, 1, 77, 0
1, 10860, Note_on_c, 1, 55, 127
1, 10889, Note_off_c, 1, 55, 0
1, 10890, Note_on_c, 1, 53, 127
1, 10919, Note_off_c, 1, 53, 0
1, 10920, Note_on_c, 1, 52, 127
1, 10949, Note_off_c, 1, 52, 0
1, 10950, Note_on_c, 1, 50, 127
1, 10950, Note_on_c, 1, 71, 127
1, 10979, Note_off_c, 1, 50, 0
1, 10979, Note_off_c, 1, 71, 0
1, 10980, Note_on_c, 1, 49, 127
1, 10980, Note_on_c, 1, 69, 127
1, 11009, Note_off_c, 1, 69, 0
1, 11039, Note_off_c, 1, 76, 0
1, 11039, Note_off_c, 1, 49, 0
1, 11040, Note_on_c, 1, 73, 127
1, 11040, Note_on_c, 1, 69, 127
1, 11040, Note_on_c, 1, 64, 127
1, 11040, Note_on_c, 1, 45, 127
1, 11040, Note_on_c, 1, 79, 127
1, 11069, Note_off_c, 1, 79, 0
1, 11070, Note_on_c, 1, 71, 127
1, 11070, Note_on_c, 1, 77, 127
1, 11099, Note_off_c, 1, 73, 0
1, 11099, Note_off_c, 1, 69, 0
1, 11099, Note_off_c, 1, 64, 0
1, 11099, Note_off_c, 1, 45, 0
1, 11099, Note_off_c, 1, 71, 0
1, 11099, Note_off_c, 1, 77, 0
1, 11100, Note_on_c, 1, 74, 127
1, 11100, Note_on_c, 1, 69, 127
1, 11100, Note_on_c, 1, 65, 127
1, 11100, Note_on_c, 1, 50, 127
1, 11100, Note_on_c, 1, 76, 127
1, 11129, Note_off_c, 1, 76, 0
1, 11130, Note_on_c, 1, 71, 127
1, 11159, Note_off_c, 1, 74, 0
1, 11159, Note_off_c, 1, 69, 0
1, 11159, Note_off_c, 1, 65, 0
1, 11159, Note_off_c, 1, 50, 0
1, 11159, Note_off_c, 1, 71, 0
1, 11160, Note_on_c, 1, 73, 127
1, 11160, Note_on_c, 1, 69, 127
1, 11160, Note_on_c, 1, 64, 127
1, 11160, Note_on_c, 1, 45, 127
1, 11160, Note_on_c, 1, 65, 127
1, 11189, Note_off_c, 1, 65, 0
1, 11190, Note_on_c, 1, 74, 127
1, 11219, Note_off_c, 1, 73, 0
1, 11219, Note_off_c, 1, 74, 0
1, 11250, Note_on_c, 1, 71, 127
1, 11250, Note_on_c, 1, 62, 127
1, 11279, Note_off_c, 1, 69, 0
1, 11279, Note_off_c, 1, 64, 0
1, 11279, Note_off_c, 1, 71, 0
1, 11279, Note_off_c, 1, 62, 0
1, 11280, Note_on_c, 1, 61, 127
1, 11309, Note_off_c, 1, 61, 0
1, 11310, Note_on_c, 1, 59, 127
1, 11339, Note_off_c, 1, 59, 0
1, 11340, Note_on_c, 1, 76, 127
1, 11340, Note_on_c, 1, 57, 127
1, 11369, Note_off_c, 1, 57, 0
1, 11399, Note_off_c, 1, 76, 0
1, 11460, Note_on_c, 1, 77, 127
1, 11460, Note_on_c, 1, 79, 127
1, 11474, Note_off_c, 1, 79, 0
1, 11519, Note_off_c, 1, 77, 0
1, 11520, Note_on_c, 1, 81, 127
1, 11539, Note_off_c, 1, 81, 0
1, 11550, Note_on_c, 1, 47, 127
1, 11579, Note_off_c, 1, 47, 0
1, 11580, Note_on_c, 1, 67, 127
1, 11580, Note_on_c, 1, 49, 127
1, 11609, Note_off_c, 1, 45, 0
1, 11609, Note_off_c, 1, 49, 0
1, 11610, Note_on_c, 1, 50, 127
1, 11639, Note_off_c, 1, 67, 0
1, 11639, Note_off_c, 1, 50, 0
1, 11640, Note_on_c, 1, 49, 127
1, 11640, Note_on_c, 1, 79, 127
1, 11640, Note_on_c, 1, 67, 127
1, 11640, Note_on_c, 1, 76, 127
1, 11640, Note_on_c, 1, 52, 127
1, 11640, Note_on_c, 1, 73, 127
1, 11649, Note_off_c, 1, 76, 0
1, 11649, Note_off_c, 1, 73, 0
1, 11650, Note_on_c, 1, 77, 127
1, 11650, Note_on_c, 1, 74, 127
1, 11654, Note_off_c, 1, 79, 0
1, 11655, Note_on_c, 1, 81, 127
1, 11659, Note_off_c, 1, 77, 0
1, 11659, Note_off_c, 1, 74, 0
1, 11669, Note_off_c, 1, 49, 0
1, 11669, Note_off_c, 1, 52, 0
1, 11669, Note_off_c, 1, 81, 0
1, 11670, Note_on_c, 1, 50, 127
1, 11670, Note_on_c, 1, 53, 127
1, 11699, Note_off_c, 1, 67, 0
1, 11699, Note_off_c, 1, 50, 0
1, 11699, Note_off_c, 1, 53, 0
1, 11700, Note_on_c, 1, 76, 127
1, 11700, Note_on_c, 1, 73, 127
1, 11700, Note_on_c, 1, 69, 127
1, 11700, Note_on_c, 1, 52, 127
1, 11700, Note_on_c, 1, 79, 127
1, 11700, Note_on_c, 1, 61, 127
1, 11700, Note_on_c, 1, 55, 127
1, 11709, Note_off_c, 1, 79, 0
1, 11710, Note_on_c, 1, 81, 127
1, 11710, Note_on_c, 1, 77, 127
1, 11710, Note_on_c, 1, 74, 127
1, 11719, Note_off_c, 1, 81, 0
1, 11719, Note_off_c, 1, 77, 0
1, 11719, Note_off_c, 1, 74, 0
1, 11729, Note_off_c, 1, 52, 0
1, 11730, Note_on_c, 1, 50, 127
1, 11759, Note_off_c, 1, 76, 0
1, 11759, Note_off_c, 1, 73, 0
1, 11759, Note_off_c, 1, 69, 0
1, 11759, Note_off_c, 1, 61, 0
1, 11759, Note_off_c, 1, 55, 0
1, 11759, Note_off_c, 1, 50, 0
1, 11760, Note_on_c, 1, 49, 127
1, 11760, Note_on_c, 1, 79, 127
1, 11760, Note_on_c, 1, 64, 127
1, 11760, Note_on_c, 1, 76, 127
1, 11760, Note_on_c, 1, 67, 127
1, 11760, Note_on_c, 1, 73, 127
1, 11769, Note_off_c, 1, 79, 0
1, 11769, Note_off_c, 1, 76, 0
1, 11769, Note_off_c, 1, 73, 0
1, 11770, Note_on_c, 1, 81, 127
1, 11770, Note_on_c, 1, 77, 127
1, 11770, Note_on_c, 1, 74, 127
1, 11779, Note_off_c, 1, 81, 0
1, 11779, Note_off_c, 1, 77, 0
1, 11779, Note_off_c, 1, 74, 0
1, 11789, Note_off_c, 1, 49, 0
1, 11790, Note_on_c, 1, 50, 127
1, 11819, Note_off_c, 1, 64, 0
1, 11819, Note_off_c, 1, 67, 0
1, 11819, Note_off_c, 1, 50, 0
1, 11820, Note_on_c, 1, 52, 127
1, 11820, Note_on_c, 1, 79, 127
1, 11820, Note_on_c, 1, 64, 127
1, 11820, Note_on_c, 1, 76, 127
1, 11820, Note_on_c, 1, 67, 127
1, 11820, Note_on_c, 1, 73, 127
1, 11829, Note_off_c, 1, 79, 0
1, 11829, Note_off_c, 1, 76, 0
1, 11829, Note_off_c, 1, 73, 0
1, 11830, Note_on_c, 1, 81, 127
1, 11830, Note_on_c, 1, 77, 127
1, 11830, Note_on_c, 1, 74, 127
1, 11839, Note_off_c, 1, 81, 0
1, 11839, Note_off_c, 1, 77, 0
1, 11839, Note_off_c, 1, 74, 0
1, 11849, Note_off_c, 1, 52, 0
1, 11850, Note_on_c, 1, 53, 127
1, 11879, Note_off_c, 1, 64, 0
1, 11879, Note_off_c, 1, 67, 0
1, 11879, Note_off_c, 1, 53, 0
1, 11880, Note_on_c, 1, 73, 127
1, 11880, Note_on_c, 1, 69, 127
1, 11880, Note_on_c, 1, 64, 127
1, 11880, Note_on_c, 1, 55, 127
1, 11880, Note_on_c, 1, 79, 127
1, 11880, Note_on_c, 1, 57, 127
1, 11880, Note_on_c, 1, 76, 127
1, 11880, Note_on_c, 1, 61, 127
1, 11889, Note_off_c, 1, 79, 0
1, 11889, Note_off_c, 1, 76, 0
1, 11890, Note_on_c, 1, 81, 127
1, 11890, Note_on_c, 1, 77, 127
1, 11890, Note_on_c, 1, 74, 127
1, 11899, Note_off_c, 1, 81, 0
1, 11899, Note_off_c, 1, 77, 0
1, 11899, Note_off_c, 1, 74, 0
1, 11910, Note_on_c, 1, 53, 127
1, 11939, Note_off_c, 1, 73, 0
1, 11939, Note_off_c, 1, 69, 0
1, 11939, Note_off_c, 1, 64, 0
1, 11939, Note_off_c, 1, 55, 0
1, 11939, Note_off_c, 1, 57, 0
1, 11939, Note_off_c, 1, 61, 0
1, 11939, Note_off_c, 1, 53, 0
1, 11940, Note_on_c, 1, 52, 127
1, 11940, Note_on_c, 1, 79, 127
1, 11940, Note_on_c, 1, 61, 127
1, 11940, Note_on_c, 1, 76, 127
1, 11940, Note_on_c, 1, 64, 127
1, 11940, Note_on_c, 1, 73, 127
1, 11940, Note_on_c, 1, 67, 127
1, 11949, Note_off_c, 1, 79, 0
1, 11949, Note_off_c, 1, 76, 0
1, 11949, Note_off_c, 1, 73, 0
1, 11950, Note_on_c, 1, 81, 127
1, 11950, Note_on_c, 1, 77, 127
1, 11950, Note_on_c, 1, 74, 127
1, 11959, Note_off_c, 1, 81, 0
1, 11959, Note_off_c, 1, 77, 0
1, 11959, Note_off_c, 1, 74, 0
1, 11969, Note_off_c, 1, 52, 0
1, 11970, Note_on_c, 1, 53, 127
1, 11999, Note_off_c, 1, 61, 0
1, 11999, Note_off_c, 1, 64, 0
1, 11999, Note_off_c, 1, 67, 0
1, 11999, Note_off_c, 1, 53, 0
1, 12000, Note_on_c, 1, 55, 127
1, 12000, Note_on_c, 1, 79, 127
1, 12000, Note_on_c, 1, 61, 127
1, 12000, Note_on_c, 1, 76, 127
1, 12000, Note_on_c, 1, 64, 127
1, 12000, Note_on_c, 1, 73, 127
1, 12000, Note_on_c, 1, 67, 127
1, 12009, Note_off_c, 1, 79, 0
1, 12009, Note_off_c, 1, 76, 0
1, 12009, Note_off_c, 1, 73, 0
1, 12010, Note_on_c, 1, 81, 127
1, 12010, Note_on_c, 1, 77, 127
1, 12010, Note_on_c, 1, 74, 127
1, 12019, Note_off_c, 1, 81, 0
1, 12019, Note_off_c, 1, 77, 0
1, 12019, Note_off_c, 1, 74, 0
1, 12029, Note_off_c, 1, 55, 0
1, 12030, Note_on_c, 1, 57, 127
1, 12059, Note_off_c, 1, 61, 0
1, 12059, Note_off_c, 1, 64, 0
1, 12059, Note_off_c, 1, 67, 0
1, 12059, Note_off_c, 1, 57, 0
1, 12060, Note_on_c, 1, 76, 127
1, 12060, Note_on_c, 1, 73, 127
1, 12060, Note_on_c, 1, 67, 127
1, 12060, Note_on_c, 1, 58, 127
1, 12060, Note_on_c, 1, 79, 127
1, 12060, Note_on_c, 1, 52, 127
1, 12060, Note_on_c, 1, 55, 127
1, 12060, Note_on_c, 1, 61, 127
1, 12069, Note_off_c, 1, 79, 0
1, 12070, Note_on_c, 1, 81, 127
1, 12070, Note_on_c, 1, 77, 127
1, 12070, Note_on_c, 1, 74, 127
1, 12079, Note_off_c, 1, 81, 0
1, 12079, Note_off_c, 1, 77, 0
1, 12079, Note_off_c, 1, 74, 0
1, 12089, Note_off_c, 1, 58, 0
1, 12090, Note_on_c, 1, 57, 127
1, 12119, Note_off_c, 1, 76, 0
1, 12119, Note_off_c, 1, 73, 0
1, 12119, Note_off_c, 1, 67, 0
1, 12119, Note_off_c, 1, 52, 0
1, 12119, Note_off_c, 1, 55, 0
1, 12119, Note_off_c, 1, 61, 0
1, 12119, Note_off_c, 1, 57, 0
1, 12120, Note_on_c, 1, 55, 127
1, 12120, Note_on_c, 1, 79, 127
1, 12120, Note_on_c, 1, 76, 127
1, 12120, Note_on_c, 1, 58, 127
1, 12120, Note_on_c, 1, 73, 127
1, 12120, Note_on_c, 1, 64, 127
1, 12129, Note_off_c, 1, 79, 0
1, 12129, Note_off_c, 1, 76, 0
1, 12129, Note_off_c, 1, 73, 0
1, 12130, Note_on_c, 1, 81, 127
1, 12130, Note_on_c, 1, 77, 127
1, 12130, Note_on_c, 1, 74, 127
1, 12139, Note_off_c, 1, 81, 0
1, 12139, Note_off_c, 1, 77, 0
1, 12139, Note_off_c, 1, 74, 0
1, 12150, Note_on_c, 1, 53, 127
1, 12179, Note_off_c, 1, 55, 0
1, 12179, Note_off_c, 1, 58, 0
1, 12179, Note_off_c, 1, 64, 0
1, 12179, Note_off_c, 1, 53, 0
1, 12180, Note_on_c, 1, 52, 127
1, 12180, Note_on_c, 1, 79, 127
1, 12180, Note_on_c, 1, 55, 127
1, 12180, Note_on_c, 1, 76, 127
1, 12180, Note_on_c, 1, 58, 127
1, 12180, Note_on_c, 1, 73, 127
1, 12180, Note_on_c, 1, 64, 127
1, 12189, Note_off_c, 1, 79, 0
1, 12189, Note_off_c, 1, 76, 0
1, 12189, Note_off_c, 1, 73, 0
1, 12190, Note_on_c, 1, 81, 127
1, 12190, Note_on_c, 1, 77, 127
1, 12190, Note_on_c, 1, 74, 127
1, 12199, Note_off_c, 1, 81, 0
1, 12199, Note_off_c, 1, 77, 0
1, 12199, Note_off_c, 1, 74, 0
1, 12209, Note_off_c, 1, 52, 0
1, 12210, Note_on_c, 1, 50, 127
1, 12239, Note_off_c, 1, 55, 0
1, 12239, Note_off_c, 1, 58, 0
1, 12239, Note_off_c, 1, 64, 0
1, 12239, Note_off_c, 1, 50, 0
1, 12240, Note_on_c, 1, 79, 127
1, 12240, Note_on_c, 1, 76, 127
1, 12240, Note_on_c, 1, 69, 127
1, 12240, Note_on_c, 1, 49, 127
1, 12240, Note_on_c, 1, 45, 127
1, 12240, Note_on_c, 1, 73, 127
1, 12240, Note_on_c, 1, 57, 127
1, 12269, Note_off_c, 1, 45, 0
1, 12269, Note_off_c, 1, 57, 0
1, 12270, Note_on_c, 1, 52, 127
1, 12299, Note_off_c, 1, 49, 0
1, 12300, Note_on_c, 1, 55, 127
1, 12329, Note_off_c, 1, 79, 0
1, 12329, Note_off_c, 1, 76, 0
1, 12329, Note_off_c, 1, 69, 0
1, 12329, Note_off_c, 1, 73, 0
1, 12329, Note_off_c, 1, 52, 0
1, 12330, Note_on_c, 1, 82, 127
1, 12330, Note_on_c, 1, 64, 127
1, 12330, Note_on_c, 1, 43, 127
1, 12359, Note_off_c, 1, 55, 0
1, 12359, Note_off_c, 1, 82, 0
1, 12359, Note_off_c, 1, 64, 0
1, 12359, Note_off_c, 1, 43, 0
1, 12360, Note_on_c, 1, 81, 127
1, 12360, Note_on_c, 1, 74, 127
1, 12360, Note_on_c, 1, 65, 127
1, 12360, Note_on_c, 1, 41, 127
1, 12360, Note_on_c, 1, 53, 127
1, 12419, Note_off_c, 1, 81, 0
1, 12419, Note_off_c, 1, 74, 0
1, 12419, Note_off_c, 1, 65, 0
1, 12419, Note_off_c, 1, 41, 0
1, 12420, Note_off_c, 1, 53, 0
1, 12450, Note_on_c, 1, 74, 127
1, 12450, Note_on_c, 1, 76, 127
1, 12450, Note_on_c, 1, 70, 127
1, 12450, Note_on_c, 1, 43, 127
1, 12450, Note_on_c, 1, 55, 127
1, 12479, Note_off_c, 1, 74, 0
1, 12479, Note_off_c, 1, 76, 0
1, 12479, Note_off_c, 1, 70, 0
1, 12479, Note_off_c, 1, 43, 0
1, 12479, Note_off_c, 1, 55, 0
1, 12480, Note_on_c, 1, 73, 127
1, 12480, Note_on_c, 1, 76, 127
1, 12480, Note_on_c, 1, 69, 127
1, 12480, Note_on_c, 1, 45, 127
1, 12480, Note_on_c, 1, 57, 127
1, 12510, Note_on_c, 1, 64, 127
1, 12539, Note_off_c, 1, 69, 0
1, 12539, Note_off_c, 1, 45, 0
1, 12539, Note_off_c, 1, 57, 0
1, 12539, Note_off_c, 1, 64, 0
1, 12540, Note_on_c, 1, 43, 127
1, 12540, Note_on_c, 1, 52, 127
1, 12540, Note_on_c, 1, 61, 127
1, 12540, Note_on_c, 1, 55, 127
1, 12569, Note_off_c, 1, 73, 0
1, 12569, Note_off_c, 1, 76, 0
1, 12569, Note_off_c, 1, 61, 0
1, 12570, Note_on_c, 1, 74, 127
1, 12599, Note_off_c, 1, 43, 0
1, 12599, Note_off_c, 1, 52, 0
1, 12599, Note_off_c, 1, 55, 0
1, 12599, Note_off_c, 1, 74, 0
1, 12600, Note_on_c, 1, 74, 127
1, 12600, Note_on_c, 1, 72, 127
1, 12600, Note_on_c, 1, 42, 127
1, 12600, Note_on_c, 1, 54, 127
1, 12600, Note_on_c, 1, 69, 127
1, 12629, Note_off_c, 1, 69, 0
1, 12630, Note_on_c, 1, 57, 127
1, 12630, Note_on_c, 1, 62, 127
1, 12659, Note_off_c, 1, 57, 0
1, 12659, Note_off_c, 1, 62, 0
1, 12660, Note_on_c, 1, 45, 127
1, 12660, Note_on_c, 1, 66, 127
1, 12689, Note_off_c, 1, 66, 0
1, 12719, Note_off_c, 1, 54, 0
1, 12719, Note_off_c, 1, 45, 0
1, 12720, Note_off_c, 1, 42, 0
1, 12720, Note_on_c, 1, 50, 127
1, 12779, Note_off_c, 1, 72, 0
1, 12779, Note_off_c, 1, 50, 0
1, 12780, Note_on_c, 1, 70, 127
1, 12780, Note_on_c, 1, 43, 127
1, 12780, Note_on_c, 1, 67, 127
1, 12780, Note_on_c, 1, 58, 127
1, 12839, Note_off_c, 1, 67, 0
1, 12840, Note_on_c, 1, 55, 127
1, 12869, Note_off_c, 1, 55, 0
1, 12899, Note_off_c, 1, 58, 0
1, 12900, Note_off_c, 1, 43, 0
1, 12959, Note_off_c, 1, 70, 0
1, 12960, Note_on_c, 1, 76, 127
1, 12960, Note_on_c, 1, 71, 127
1, 12960, Note_on_c, 1, 44, 127
1, 12960, Note_on_c, 1, 64, 127
1, 12960, Note_on_c, 1, 56, 127
1, 12990, Note_on_c, 1, 52, 127
1, 12990, Note_on_c, 1, 68, 127
1, 13019, Note_off_c, 1, 52, 0
1, 13019, Note_off_c, 1, 68, 0
1, 13020, Note_on_c, 1, 47, 127
1, 13050, Note_on_c, 1, 59, 127
1, 13079, Note_off_c, 1, 64, 0
1, 13079, Note_off_c, 1, 56, 0
1, 13079, Note_off_c, 1, 47, 0
1, 13079, Note_off_c, 1, 59, 0
1, 13080, Note_off_c, 1, 44, 0
1, 13139, Note_off_c, 1, 76, 0
1, 13139, Note_off_c, 1, 71, 0
1, 13140, Note_on_c, 1, 77, 127
1, 13170, Note_on_c, 1, 65, 127
1, 13199, Note_off_c, 1, 65, 0
1, 13200, Note_on_c, 1, 53, 127
1, 13229, Note_off_c, 1, 53, 0
1, 13319, Note_off_c, 1, 77, 0
1, 13320, Note_on_c, 1, 79, 127
1, 13320, Note_on_c, 1, 46, 127
1, 13440, Note_off_c, 1, 46, 0
1, 13499, Note_off_c, 1, 79, 0
1, 13500, Note_on_c, 1, 80, 127
1, 13590, Note_on_c, 1, 83, 127
1, 13619, Note_off_c, 1, 83, 0
1, 13679, Note_off_c, 1, 80, 0
1, 13680, Note_off_c, 1, 74, 0
1, 13680, Note_on_c, 1, 81, 127
1, 13680, Note_on_c, 1, 49, 127
1, 13709, Note_off_c, 1, 81, 0
1, 13709, Note_off_c, 1, 49, 0
1, 13710, Note_on_c, 1, 73, 127
1, 13739, Note_off_c, 1, 73, 0
1, 13740, Note_on_c, 1, 77, 127
1, 13740, Note_on_c, 1, 57, 127
1, 13740, Note_on_c, 1, 53, 127
1, 13740, Note_on_c, 1, 74, 127
1, 13769, Note_off_c, 1, 77, 0
1, 13769, Note_off_c, 1, 57, 0
1, 13769, Note_off_c, 1, 53, 0
1, 13769, Note_off_c, 1, 74, 0
1, 13770, Note_on_c, 1, 73, 127
1, 13770, Note_on_c, 1, 82, 127
1, 13770, Note_on_c, 1, 55, 127
1, 13770, Note_on_c, 1, 52, 127
1, 13770, Note_on_c, 1, 76, 127
1, 13799, Note_off_c, 1, 73, 0
1, 13799, Note_off_c, 1, 82, 0
1, 13799, Note_off_c, 1, 55, 0
1, 13799, Note_off_c, 1, 52, 0
1, 13799, Note_off_c, 1, 76, 0
1, 13800, Note_on_c, 1, 74, 127
1, 13800, Note_on_c, 1, 81, 127
1, 13800, Note_on_c, 1, 53, 127
1, 13800, Note_on_c, 1, 69, 127
1, 13829, Note_off_c, 1, 53, 0
1, 13830, Note_on_c, 1, 77, 127
1, 13830, Note_on_c, 1, 62, 127
1, 13830, Note_on_c, 1, 57, 127
1, 13830, Note_on_c, 1, 50, 127
1, 13859, Note_off_c, 1, 74, 0
1, 13859, Note_off_c, 1, 81, 0
1, 13859, Note_off_c, 1, 69, 0
1, 13859, Note_off_c, 1, 77, 0
1, 13859, Note_off_c, 1, 62, 0
1, 13859, Note_off_c, 1, 57, 0
1, 13859, Note_off_c, 1, 50, 0
1, 13860, Note_on_c, 1, 74, 127
1, 13860, Note_on_c, 1, 65, 127
1, 13860, Note_on_c, 1, 58, 127
1, 13860, Note_on_c, 1, 50, 127
1, 13889, Note_off_c, 1, 74, 0
1, 13889, Note_off_c, 1, 65, 0
1, 13889, Note_off_c, 1, 58, 0
1, 13889, Note_off_c, 1, 50, 0
1, 13890, Note_on_c, 1, 76, 127
1, 13890, Note_on_c, 1, 70, 127
1, 13890, Note_on_c, 1, 55, 127
1, 13890, Note_on_c, 1, 74, 127
1, 13919, Note_off_c, 1, 76, 0
1, 13919, Note_off_c, 1, 70, 0
1, 13919, Note_off_c, 1, 55, 0
1, 13919, Note_off_c, 1, 74, 0
1, 13920, Note_on_c, 1, 76, 127
1, 13920, Note_on_c, 1, 73, 127
1, 13920, Note_on_c, 1, 69, 127
1, 13920, Note_on_c, 1, 57, 127
1, 13979, Note_off_c, 1, 69, 0
1, 13979, Note_off_c, 1, 57, 0
1, 13980, Note_on_c, 1, 67, 127
1, 13980, Note_on_c, 1, 45, 127
1, 13980, Note_on_c, 1, 64, 127
1, 13980, Note_on_c, 1, 61, 127
1, 14009, Note_off_c, 1, 76, 0
1, 14009, Note_off_c, 1, 73, 0
1, 14010, Note_on_c, 1, 74, 127
1, 14039, Note_off_c, 1, 67, 0
1, 14039, Note_off_c, 1, 45, 0
1, 14039, Note_off_c, 1, 64, 0
1, 14039, Note_off_c, 1, 61, 0
1, 14040, Note_on_c, 1, 65, 127
1, 14040, Note_on_c, 1, 38, 127
1, 14040, Note_on_c, 1, 50, 127
1, 14040, Note_on_c, 1, 62, 127
1, 14100, Note_on_c, 1, 77, 127
1, 14159, Note_off_c, 1, 65, 0
1, 14159, Note_off_c, 1, 38, 0
1, 14159, Note_off_c, 1, 50, 0
1, 14159, Note_off_c, 1, 62, 0
1, 14159, Note_off_c, 1, 77, 0
1, 14160, Note_on_c, 1, 81, 127
1, 14189, Note_off_c, 1, 74, 0
1, 14219, Note_off_c, 1, 81, 0
1, 14220, Note_on_c, 1, 69, 127
1, 14220, Note_on_c, 1, 67, 127
1, 14220, Note_on_c, 1, 61, 127
1, 14220, Note_on_c, 1, 52, 127
1, 14250, Note_on_c, 1, 64, 127
1, 14250, Note_on_c, 1, 58, 127
1, 14279, Note_off_c, 1, 69, 0
1, 14279, Note_off_c, 1, 67, 0
1, 14279, Note_off_c, 1, 61, 0
1, 14279, Note_off_c, 1, 52, 0
1, 14279, Note_off_c, 1, 64, 0
1, 14279, Note_off_c, 1, 58, 0
1, 14280, Note_on_c, 1, 49, 127
1, 14280, Note_on_c, 1, 67, 127
1, 14280, Note_on_c, 1, 57, 127
1, 14309, Note_off_c, 1, 67, 0
1, 14309, Note_off_c, 1, 57, 0
1, 14310, Note_on_c, 1, 70, 127
1, 14310, Note_on_c, 1, 55, 127
1, 14339, Note_off_c, 1, 49, 0
1, 14339, Note_off_c, 1, 70, 0
1, 14339, Note_off_c, 1, 55, 0
1, 14340, Note_on_c, 1, 45, 127
1, 14340, Note_on_c, 1, 69, 127
1, 14340, Note_on_c, 1, 53, 127
1, 14369, Note_off_c, 1, 69, 0
1, 14369, Note_off_c, 1, 53, 0
1, 14370, Note_on_c, 1, 67, 127
1, 14370, Note_on_c, 1, 52, 127
1, 14399, Note_off_c, 1, 45, 0
1, 14399, Note_off_c, 1, 67, 0
1, 14399, Note_off_c, 1, 52, 0
1, 14400, Note_on_c, 1, 69, 127
1, 14400, Note_on_c, 1, 65, 127
1, 14400, Note_on_c, 1, 62, 127
1, 14400, Note_on_c, 1, 50, 127
1, 14459, Note_off_c, 1, 69, 0
1, 14459, Note_off_c, 1, 65, 0
1, 14459, Note_off_c, 1, 62, 0
1, 14460, Note_on_c, 1, 74, 127
1, 14460, Note_on_c, 1, 67, 127
1, 14489, Note_off_c, 1, 67, 0
1, 14519, Note_off_c, 1, 50, 0
1, 14519, Note_off_c, 1, 74, 0
1, 14520, Note_on_c, 1, 77, 127
1, 14520, Note_on_c, 1, 74, 127
1, 14520, Note_on_c, 1, 69, 127
1, 14520, Note_on_c, 1, 64, 127
1, 14549, Note_off_c, 1, 64, 0
1, 14550, Note_on_c, 1, 62, 127
1, 14579, Note_off_c, 1, 77, 0
1, 14579, Note_off_c, 1, 74, 0
1, 14579, Note_off_c, 1, 69, 0
1, 14579, Note_off_c, 1, 62, 0
1, 14580, Note_on_c, 1, 68, 127
1, 14580, Note_on_c, 1, 77, 127
1, 14580, Note_on_c, 1, 74, 127
1, 14580, Note_on_c, 1, 59, 127
1, 14610, Note_on_c, 1, 71, 127
1, 14610, Note_on_c, 1, 65, 127
1, 14639, Note_off_c, 1, 68, 0
1, 14639, Note_off_c, 1, 77, 0
1, 14639, Note_off_c, 1, 74, 0
1, 14639, Note_off_c, 1, 59, 0
1, 14639, Note_off_c, 1, 71, 0
1, 14639, Note_off_c, 1, 65, 0
1, 14640, Note_on_c, 1, 56, 127
1, 14640, Note_on_c, 1, 74, 127
1, 14640, Note_on_c, 1, 64, 127
1, 14669, Note_off_c, 1, 74, 0
1, 14669, Note_off_c, 1, 64, 0
1, 14670, Note_on_c, 1, 77, 127
1, 14670, Note_on_c, 1, 62, 127
1, 14699, Note_off_c, 1, 56, 0
1, 14699, Note_off_c, 1, 77, 0
1, 14699, Note_off_c, 1, 62, 0
1, 14700, Note_on_c, 1, 52, 127
1, 14700, Note_on_c, 1, 76, 127
1, 14700, Note_on_c, 1, 60, 127
1, 14729, Note_off_c, 1, 76, 0
1, 14729, Note_off_c, 1, 60, 0
1, 14730, Note_on_c, 1, 74, 127
1, 14730, Note_on_c, 1, 59, 127
1, 14759, Note_off_c, 1, 52, 0
1, 14759, Note_off_c, 1, 74, 0
1, 14759, Note_off_c, 1, 59, 0
1, 14760, Note_on_c, 1, 76, 127
1, 14760, Note_on_c, 1, 69, 127
1, 14760, Note_on_c, 1, 60, 127
1, 14760, Note_on_c, 1, 57, 127
1, 14760, Note_on_c, 1, 72, 127
1, 14789, Note_off_c, 1, 72, 0
1, 14819, Note_off_c, 1, 76, 0
1, 14819, Note_off_c, 1, 69, 0
1, 14819, Note_off_c, 1, 60, 0
1, 14820, Note_on_c, 1, 81, 127
1, 14820, Note_on_c, 1, 64, 127
1, 14820, Note_on_c, 1, 74, 127
1, 14849, Note_off_c, 1, 74, 0
1, 14879, Note_off_c, 1, 57, 0
1, 14879, Note_off_c, 1, 81, 0
1, 14879, Note_off_c, 1, 64, 0
1, 14880, Note_on_c, 1, 84, 127
1, 14880, Note_on_c, 1, 76, 127
1, 14880, Note_on_c, 1, 69, 127
1, 14880, Note_on_c, 1, 71, 127
1, 14909, Note_off_c, 1, 71, 0
1, 14939, Note_off_c, 1, 84, 0
1, 14939, Note_off_c, 1, 76, 0
1, 14939, Note_off_c, 1, 69, 0
1, 14940, Note_on_c, 1, 75, 127
1, 14940, Note_on_c, 1, 81, 127
1, 14940, Note_on_c, 1, 72, 127
1, 14940, Note_on_c, 1, 54, 127
1, 14970, Note_on_c, 1, 78, 127
1, 14999, Note_off_c, 1, 75, 0
1, 14999, Note_off_c, 1, 81, 0
1, 14999, Note_off_c, 1, 72, 0
1, 14999, Note_off_c, 1, 54, 0
1, 14999, Note_off_c, 1, 78, 0
1, 15000, Note_on_c, 1, 51, 127
1, 15000, Note_on_c, 1, 81, 127
1, 15000, Note_on_c, 1, 71, 127
1, 15029, Note_off_c, 1, 81, 0
1, 15029, Note_off_c, 1, 71, 0
1, 15030, Note_on_c, 1, 84, 127
1, 15030, Note_on_c, 1, 69, 127
1, 15059, Note_off_c, 1, 51, 0
1, 15059, Note_off_c, 1, 84, 0
1, 15059, Note_off_c, 1, 69, 0
1, 15060, Note_on_c, 1, 47, 127
1, 15060, Note_on_c, 1, 83, 127
1, 15060, Note_on_c, 1, 68, 127
1, 15089, Note_off_c, 1, 83, 0
1, 15089, Note_off_c, 1, 68, 0
1, 15090, Note_on_c, 1, 81, 127
1, 15090, Note_on_c, 1, 66, 127
1, 15119, Note_off_c, 1, 47, 0
1, 15119, Note_off_c, 1, 81, 0
1, 15119, Note_off_c, 1, 66, 0
1, 15120, Note_on_c, 1, 76, 127
1, 15120, Note_on_c, 1, 80, 127
1, 15120, Note_on_c, 1, 71, 127
1, 15120, Note_on_c, 1, 52, 127
1, 15120, Note_on_c, 1, 64, 127
1, 15179, Note_off_c, 1, 76, 0
1, 15179, Note_off_c, 1, 80, 0
1, 15179, Note_off_c, 1, 71, 0
1, 15179, Note_off_c, 1, 64, 0
1, 15180, Note_on_c, 1, 74, 127
1, 15180, Note_on_c, 1, 83, 127
1, 15180, Note_on_c, 1, 68, 127
1, 15210, Note_on_c, 1, 77, 127
1, 15239, Note_off_c, 1, 52, 0
1, 15239, Note_off_c, 1, 74, 0
1, 15239, Note_off_c, 1, 83, 0
1, 15239, Note_off_c, 1, 68, 0
1, 15239, Note_off_c, 1, 77, 0
1, 15240, Note_on_c, 1, 76, 127
1, 15240, Note_on_c, 1, 71, 127
1, 15269, Note_off_c, 1, 76, 0
1, 15270, Note_on_c, 1, 74, 127
1, 15299, Note_off_c, 1, 71, 0
1, 15299, Note_off_c, 1, 74, 0
1, 15300, Note_on_c, 1, 72, 127
1, 15300, Note_on_c, 1, 76, 127
1, 15300, Note_on_c, 1, 69, 127
1, 15300, Note_on_c, 1, 52, 127
1, 15359, Note_off_c, 1, 72, 0
1, 15359, Note_off_c, 1, 76, 0
1, 15359, Note_off_c, 1, 69, 0
1, 15360, Note_on_c, 1, 81, 127
1, 15360, Note_on_c, 1, 64, 127
1, 15360, Note_on_c, 1, 60, 127
1, 15419, Note_off_c, 1, 52, 0
1, 15419, Note_off_c, 1, 81, 0
1, 15419, Note_off_c, 1, 64, 0
1, 15419, Note_off_c, 1, 60, 0
1, 15420, Note_on_c, 1, 74, 127
1, 15420, Note_on_c, 1, 57, 127
1, 15449, Note_off_c, 1, 74, 0
1, 15450, Note_on_c, 1, 72, 127
1, 15479, Note_off_c, 1, 57, 0
1, 15479, Note_off_c, 1, 72, 0
1, 15480, Note_on_c, 1, 81, 127
1, 15480, Note_on_c, 1, 64, 127
1, 15480, Note_on_c, 1, 71, 127
1, 15480, Note_on_c, 1, 52, 127
1, 15510, Note_on_c, 1, 65, 127
1, 15539, Note_off_c, 1, 81, 0
1, 15539, Note_off_c, 1, 64, 0
1, 15539, Note_off_c, 1, 71, 0
1, 15539, Note_off_c, 1, 52, 0
1, 15539, Note_off_c, 1, 65, 0
1, 15540, Note_on_c, 1, 80, 127
1, 15540, Note_on_c, 1, 71, 127
1, 15540, Note_on_c, 1, 64, 127
1, 15570, Note_on_c, 1, 83, 127
1, 15570, Note_on_c, 1, 62, 127
1, 15599, Note_off_c, 1, 80, 0
1, 15599, Note_off_c, 1, 71, 0
1, 15599, Note_off_c, 1, 64, 0
1, 15599, Note_off_c, 1, 83, 0
1, 15599, Note_off_c, 1, 62, 0
1, 15600, Note_on_c, 1, 56, 127
1, 15600, Note_on_c, 1, 76, 127
1, 15600, Note_on_c, 1, 60, 127
1, 15629, Note_off_c, 1, 76, 0
1, 15629, Note_off_c, 1, 60, 0
1, 15630, Note_on_c, 1, 74, 127
1, 15630, Note_on_c, 1, 59, 127
1, 15659, Note_off_c, 1, 56, 0
1, 15659, Note_off_c, 1, 74, 0
1, 15659, Note_off_c, 1, 59, 0
1, 15660, Note_on_c, 1, 81, 127
1, 15660, Note_on_c, 1, 72, 127
1, 15660, Note_on_c, 1, 64, 127
1, 15660, Note_on_c, 1, 57, 127
1, 15719, Note_off_c, 1, 81, 0
1, 15719, Note_off_c, 1, 72, 0
1, 15719, Note_off_c, 1, 64, 0
1, 15719, Note_off_c, 1, 57, 0
1, 15720, Note_on_c, 1, 81, 127
1, 15720, Note_on_c, 1, 71, 127
1, 15720, Note_on_c, 1, 65, 127
1, 15720, Note_on_c, 1, 50, 127
1, 15720, Note_on_c, 1, 62, 127
1, 15749, Note_off_c, 1, 62, 0
1, 15750, Note_on_c, 1, 60, 127
1, 15779, Note_off_c, 1, 81, 0
1, 15779, Note_off_c, 1, 71, 0
1, 15779, Note_off_c, 1, 65, 0
1, 15779, Note_off_c, 1, 50, 0
1, 15779, Note_off_c, 1, 60, 0
1, 15780, Note_on_c, 1, 79, 127
1, 15780, Note_on_c, 1, 71, 127
1, 15780, Note_on_c, 1, 64, 127
1, 15780, Note_on_c, 1, 52, 127
1, 15780, Note_on_c, 1, 59, 127
1, 15809, Note_off_c, 1, 59, 0
1, 15839, Note_off_c, 1, 79, 0
1, 15839, Note_off_c, 1, 71, 0
1, 15839, Note_off_c, 1, 64, 0
1, 15839, Note_off_c, 1, 52, 0
1, 15840, Note_on_c, 1, 73, 127
1, 15840, Note_on_c, 1, 69, 127
1, 15840, Note_on_c, 1, 64, 127
1, 15840, Note_on_c, 1, 45, 127
1, 15840, Note_on_c, 1, 67, 127
1, 15899, Note_off_c, 1, 73, 0
1, 15899, Note_off_c, 1, 69, 0
1, 15899, Note_off_c, 1, 64, 0
1, 15899, Note_off_c, 1, 67, 0
1, 15900, Note_on_c, 1, 76, 127
1, 15900, Note_on_c, 1, 61, 127
1, 15900, Note_on_c, 1, 57, 127
1, 15930, Note_on_c, 1, 70, 127
1, 15959, Note_off_c, 1, 45, 0
1, 15959, Note_off_c, 1, 76, 0
1, 15959, Note_off_c, 1, 61, 0
1, 15959, Note_off_c, 1, 57, 0
1, 15959, Note_off_c, 1, 70, 0
1, 15960, Note_on_c, 1, 69, 127
1, 15960, Note_on_c, 1, 61, 127
1, 15989, Note_off_c, 1, 69, 0
1, 15990, Note_on_c, 1, 67, 127
1, 16019, Note_off_c, 1, 61, 0
1, 16019, Note_off_c, 1, 67, 0
1, 16020, Note_on_c, 1, 69, 127
1, 16020, Note_on_c, 1, 65, 127
1, 16020, Note_on_c, 1, 62, 127
1, 16020, Note_on_c, 1, 45, 127
1, 16079, Note_off_c, 1, 69, 0
1, 16079, Note_off_c, 1, 65, 0
1, 16079, Note_off_c, 1, 62, 0
1, 16080, Note_on_c, 1, 57, 127
1, 16080, Note_on_c, 1, 74, 127
1, 16080, Note_on_c, 1, 53, 127
1, 16139, Note_off_c, 1, 45, 0
1, 16139, Note_off_c, 1, 57, 0
1, 16139, Note_off_c, 1, 74, 0
1, 16139, Note_off_c, 1, 53, 0
1, 16140, Note_on_c, 1, 67, 127
1, 16140, Note_on_c, 1, 50, 127
1, 16169, Note_off_c, 1, 67, 0
1, 16170, Note_on_c, 1, 65, 127
1, 16199, Note_off_c, 1, 50, 0
1, 16199, Note_off_c, 1, 65, 0
1, 16200, Note_on_c, 1, 57, 127
1, 16200, Note_on_c, 1, 74, 127
1, 16200, Note_on_c, 1, 64, 127
1, 16200, Note_on_c, 1, 45, 127
1, 16230, Note_on_c, 1, 58, 127
1, 16259, Note_off_c, 1, 57, 0
1, 16259, Note_off_c, 1, 74, 0
1, 16259, Note_off_c, 1, 64, 0
1, 16259, Note_off_c, 1, 45, 0
1, 16259, Note_off_c, 1, 58, 0
1, 16260, Note_on_c, 1, 64, 127
1, 16260, Note_on_c, 1, 73, 127
1, 16260, Note_on_c, 1, 57, 127
1, 16290, Note_on_c, 1, 76, 127
1, 16290, Note_on_c, 1, 55, 127
1, 16319, Note_off_c, 1, 64, 0
1, 16319, Note_off_c, 1, 73, 0
1, 16319, Note_off_c, 1, 57, 0
1, 16319, Note_off_c, 1, 76, 0
1, 16319, Note_off_c, 1, 55, 0
1, 16320, Note_on_c, 1, 49, 127
1, 16320, Note_on_c, 1, 69, 127
1, 16320, Note_on_c, 1, 53, 127
1, 16349, Note_off_c, 1, 69, 0
1, 16349, Note_off_c, 1, 53, 0
1, 16350, Note_on_c, 1, 67, 127
1, 16350, Note_on_c, 1, 52, 127
1, 16379, Note_off_c, 1, 49, 0
1, 16379, Note_off_c, 1, 67, 0
1, 16379, Note_off_c, 1, 52, 0
1, 16380, Note_on_c, 1, 65, 127
1, 16380, Note_on_c, 1, 74, 127
1, 16380, Note_on_c, 1, 57, 127
1, 16380, Note_on_c, 1, 50, 127
1, 16439, Note_off_c, 1, 65, 0
1, 16439, Note_off_c, 1, 74, 0
1, 16439, Note_off_c, 1, 57, 0
1, 16439, Note_off_c, 1, 50, 0
1, 16440, Note_on_c, 1, 64, 127
1, 16440, Note_on_c, 1, 74, 127
1, 16440, Note_on_c, 1, 58, 127
1, 16440, Note_on_c, 1, 43, 127
1, 16440, Note_on_c, 1, 55, 127
1, 16469, Note_off_c, 1, 55, 0
1, 16470, Note_on_c, 1, 53, 127
1, 16499, Note_off_c, 1, 64, 0
1, 16499, Note_off_c, 1, 74, 0
1, 16499, Note_off_c, 1, 58, 0
1, 16499, Note_off_c, 1, 43, 0
1, 16499, Note_off_c, 1, 53, 0
1, 16500, Note_on_c, 1, 64, 127
1, 16500, Note_on_c, 1, 72, 127
1, 16500, Note_on_c, 1, 57, 127
1, 16500, Note_on_c, 1, 45, 127
1, 16500, Note_on_c, 1, 52, 127
1, 16529, Note_off_c, 1, 52, 0
1, 16559, Note_off_c, 1, 64, 0
1, 16559, Note_off_c, 1, 72, 0
1, 16559, Note_off_c, 1, 57, 0
1, 16559, Note_off_c, 1, 45, 0
1, 16560, Note_on_c, 1, 62, 127
1, 16560, Note_on_c, 1, 66, 127
1, 16560, Note_on_c, 1, 57, 127
1, 16560, Note_on_c, 1, 50, 127
1, 16560, Note_on_c, 1, 60, 127
1, 16589, Note_off_c, 1, 60, 0
1, 16590, Note_on_c, 1, 69, 127
1, 16590, Note_on_c, 1, 63, 127
1, 16619, Note_off_c, 1, 62, 0
1, 16619, Note_off_c, 1, 66, 0
1, 16619, Note_off_c, 1, 57, 0
1, 16619, Note_off_c, 1, 50, 0
1, 16619, Note_off_c, 1, 69, 0
1, 16619, Note_off_c, 1, 63, 0
1, 16620, Note_on_c, 1, 72, 127
1, 16620, Note_on_c, 1, 62, 127
1, 16620, Note_on_c, 1, 69, 127
1, 16620, Note_on_c, 1, 54, 127
1, 16650, Note_on_c, 1, 75, 127
1, 16650, Note_on_c, 1, 60, 127
1, 16679, Note_off_c, 1, 72, 0
1, 16679, Note_off_c, 1, 62, 0
1, 16679, Note_off_c, 1, 69, 0
1, 16679, Note_off_c, 1, 54, 0
1, 16679, Note_off_c, 1, 75, 0
1, 16679, Note_off_c, 1, 60, 0
1, 16680, Note_on_c, 1, 50, 127
1, 16680, Note_on_c, 1, 74, 127
1, 16680, Note_on_c, 1, 58, 127
1, 16709, Note_off_c, 1, 74, 0
1, 16709, Note_off_c, 1, 58, 0
1, 16710, Note_on_c, 1, 72, 127
1, 16710, Note_on_c, 1, 57, 127
1, 16739, Note_off_c, 1, 50, 0
1, 16739, Note_off_c, 1, 72, 0
1, 16739, Note_off_c, 1, 57, 0
1, 16740, Note_on_c, 1, 70, 127
1, 16740, Note_on_c, 1, 74, 127
1, 16740, Note_on_c, 1, 67, 127
1, 16740, Note_on_c, 1, 55, 127
1, 16799, Note_off_c, 1, 70, 0
1, 16799, Note_off_c, 1, 74, 0
1, 16799, Note_off_c, 1, 67, 0
1, 16799, Note_off_c, 1, 55, 0
1, 16800, Note_on_c, 1, 67, 127
1, 16800, Note_on_c, 1, 79, 127
1, 16800, Note_on_c, 1, 62, 127
1, 16800, Note_on_c, 1, 58, 127
1, 16830, Note_on_c, 1, 81, 127
1, 16859, Note_off_c, 1, 67, 0
1, 16859, Note_off_c, 1, 79, 0
1, 16859, Note_off_c, 1, 62, 0
1, 16859, Note_off_c, 1, 58, 0
1, 16859, Note_off_c, 1, 81, 0
1, 16860, Note_on_c, 1, 55, 127
1, 16860, Note_on_c, 1, 82, 127
1, 16860, Note_on_c, 1, 67, 127
1, 16889, Note_off_c, 1, 82, 0
1, 16890, Note_on_c, 1, 77, 127
1, 16919, Note_off_c, 1, 55, 0
1, 16919, Note_off_c, 1, 77, 0
1, 16920, Note_on_c, 1, 75, 127
1, 16920, Note_on_c, 1, 60, 127
1, 16920, Note_on_c, 1, 48, 127
1, 16950, Note_on_c, 1, 79, 127
1, 16979, Note_off_c, 1, 67, 0
1, 16979, Note_off_c, 1, 75, 0
1, 16979, Note_off_c, 1, 60, 0
1, 16979, Note_off_c, 1, 48, 0
1, 16979, Note_off_c, 1, 79, 0
1, 16980, Note_on_c, 1, 72, 127
1, 16980, Note_on_c, 1, 67, 127
1, 16980, Note_on_c, 1, 51, 127
1, 16980, Note_on_c, 1, 69, 127
1, 17009, Note_off_c, 1, 69, 0
1, 17010, Note_on_c, 1, 82, 127
1, 17010, Note_on_c, 1, 70, 127
1, 17039, Note_off_c, 1, 72, 0
1, 17039, Note_off_c, 1, 67, 0
1, 17039, Note_off_c, 1, 51, 0
1, 17039, Note_off_c, 1, 82, 0
1, 17039, Note_off_c, 1, 70, 0
1, 17040, Note_on_c, 1, 81, 127
1, 17040, Note_on_c, 1, 75, 127
1, 17040, Note_on_c, 1, 63, 127
1, 17040, Note_on_c, 1, 48, 127
1, 17040, Note_on_c, 1, 72, 127
1, 17070, Note_on_c, 1, 79, 127
1, 17099, Note_off_c, 1, 81, 0
1, 17099, Note_off_c, 1, 75, 0
1, 17099, Note_off_c, 1, 63, 0
1, 17099, Note_off_c, 1, 48, 0
1, 17099, Note_off_c, 1, 79, 0
1, 17100, Note_on_c, 1, 78, 127
1, 17100, Note_on_c, 1, 74, 127
1, 17100, Note_on_c, 1, 57, 127
1, 17100, Note_on_c, 1, 50, 127
1, 17159, Note_off_c, 1, 72, 0
1, 17159, Note_off_c, 1, 78, 0
1, 17159, Note_off_c, 1, 74, 0
1, 17159, Note_off_c, 1, 57, 0
1, 17160, Note_on_c, 1, 66, 127
1, 17160, Note_on_c, 1, 62, 127
1, 17219, Note_off_c, 1, 66, 0
1, 17219, Note_off_c, 1, 62, 0
1, 17220, Note_off_c, 1, 50, 0
1, 17280, Note_on_c, 1, 74, 127
1, 17280, Note_on_c, 1, 70, 127
1, 17280, Note_on_c, 1, 67, 127
1, 17280, Note_on_c, 1, 50, 127
1, 17339, Note_off_c, 1, 74, 0
1, 17339, Note_off_c, 1, 70, 0
1, 17339, Note_off_c, 1, 67, 0
1, 17340, Note_on_c, 1, 79, 127
1, 17340, Note_on_c, 1, 58, 127
1, 17399, Note_off_c, 1, 79, 0
1, 17399, Note_off_c, 1, 58, 0
1, 17400, Note_off_c, 1, 50, 0
1, 17400, Note_on_c, 1, 72, 127
1, 17400, Note_on_c, 1, 55, 127
1, 17429, Note_off_c, 1, 72, 0
1, 17459, Note_off_c, 1, 55, 0
1, 17460, Note_on_c, 1, 79, 127
1, 17460, Note_on_c, 1, 74, 127
1, 17460, Note_on_c, 1, 57, 127
1, 17460, Note_on_c, 1, 50, 127
1, 17460, Note_on_c, 1, 69, 127
1, 17460, Note_on_c, 1, 62, 127
1, 17489, Note_off_c, 1, 69, 0
1, 17489, Note_off_c, 1, 62, 0
1, 17490, Note_on_c, 1, 63, 127
1, 17519, Note_off_c, 1, 79, 0
1, 17519, Note_off_c, 1, 74, 0
1, 17519, Note_off_c, 1, 57, 0
1, 17519, Note_off_c, 1, 50, 0
1, 17519, Note_off_c, 1, 63, 0
1, 17520, Note_on_c, 1, 78, 127
1, 17520, Note_on_c, 1, 69, 127
1, 17520, Note_on_c, 1, 62, 127
1, 17550, Note_on_c, 1, 81, 127
1, 17550, Note_on_c, 1, 60, 127
1, 17579, Note_off_c, 1, 78, 0
1, 17579, Note_off_c, 1, 69, 0
1, 17579, Note_off_c, 1, 62, 0
1, 17579, Note_off_c, 1, 81, 0
1, 17579, Note_off_c, 1, 60, 0
1, 17580, Note_on_c, 1, 54, 127
1, 17580, Note_on_c, 1, 74, 127
1, 17580, Note_on_c, 1, 58, 127
1, 17609, Note_off_c, 1, 74, 0
1, 17609, Note_off_c, 1, 58, 0
1, 17610, Note_on_c, 1, 72, 127
1, 17610, Note_on_c, 1, 57, 127
1, 17639, Note_off_c, 1, 54, 0
1, 17639, Note_off_c, 1, 72, 0
1, 17639, Note_off_c, 1, 57, 0
1, 17640, Note_on_c, 1, 79, 127
1, 17640, Note_on_c, 1, 70, 127
1, 17640, Note_on_c, 1, 62, 127
1, 17640, Note_on_c, 1, 55, 127
1, 17670, Note_on_c, 1, 58, 127
1, 17699, Note_off_c, 1, 79, 0
1, 17699, Note_off_c, 1, 70, 0
1, 17699, Note_off_c, 1, 62, 0
1, 17699, Note_off_c, 1, 55, 0
1, 17699, Note_off_c, 1, 58, 0
1, 17700, Note_on_c, 1, 79, 127
1, 17700, Note_on_c, 1, 69, 127
1, 17700, Note_on_c, 1, 63, 127
1, 17700, Note_on_c, 1, 48, 127
1, 17700, Note_on_c, 1, 60, 127
1, 17729, Note_off_c, 1, 60, 0
1, 17730, Note_on_c, 1, 58, 127
1, 17759, Note_off_c, 1, 79, 0
1, 17759, Note_off_c, 1, 69, 0
1, 17759, Note_off_c, 1, 63, 0
1, 17759, Note_off_c, 1, 48, 0
1, 17759, Note_off_c, 1, 58, 0
1, 17760, Note_on_c, 1, 78, 127
1, 17760, Note_on_c, 1, 69, 127
1, 17760, Note_on_c, 1, 62, 127
1, 17760, Note_on_c, 1, 50, 127
1, 17760, Note_on_c, 1, 57, 127
1, 17789, Note_off_c, 1, 57, 0
1, 17790, Note_on_c, 1, 72, 127
1, 17819, Note_off_c, 1, 78, 0
1, 17819, Note_off_c, 1, 69, 0
1, 17819, Note_off_c, 1, 62, 0
1, 17819, Note_off_c, 1, 50, 0
1, 17819, Note_off_c, 1, 72, 0
1, 17820, Note_on_c, 1, 77, 127
1, 17820, Note_on_c, 1, 71, 127
1, 17820, Note_on_c, 1, 62, 127
1, 17820, Note_on_c, 1, 55, 127
1, 17879, Note_off_c, 1, 77, 0
1, 17879, Note_off_c, 1, 71, 0
1, 17879, Note_off_c, 1, 62, 0
1, 17879, Note_off_c, 1, 55, 0
1, 17880, Note_on_c, 1, 76, 127
1, 17880, Note_on_c, 1, 72, 127
1, 17880, Note_on_c, 1, 60, 127
1, 17880, Note_on_c, 1, 64, 127
1, 17909, Note_off_c, 1, 64, 0
1, 17910, Note_on_c, 1, 77, 127
1, 17910, Note_on_c, 1, 59, 127
1, 17939, Note_off_c, 1, 76, 0
1, 17939, Note_off_c, 1, 72, 0
1, 17939, Note_off_c, 1, 60, 0
1, 17939, Note_off_c, 1, 77, 0
1, 17939, Note_off_c, 1, 59, 0
1, 17940, Note_on_c, 1, 48, 127
1, 17940, Note_on_c, 1, 76, 127
1, 17940, Note_on_c, 1, 60, 127
1, 17969, Note_off_c, 1, 76, 0
1, 17969, Note_off_c, 1, 60, 0
1, 17970, Note_on_c, 1, 67, 127
1, 17970, Note_on_c, 1, 70, 127
1, 17970, Note_on_c, 1, 52, 127
1, 17999, Note_off_c, 1, 48, 0
1, 17999, Note_off_c, 1, 67, 0
1, 17999, Note_off_c, 1, 70, 0
1, 17999, Note_off_c, 1, 52, 0
1, 18000, Note_on_c, 1, 75, 127
1, 18000, Note_on_c, 1, 69, 127
1, 18000, Note_on_c, 1, 60, 127
1, 18000, Note_on_c, 1, 53, 127
1, 18059, Note_off_c, 1, 75, 0
1, 18059, Note_off_c, 1, 69, 0
1, 18059, Note_off_c, 1, 60, 0
1, 18059, Note_off_c, 1, 53, 0
1, 18060, Note_on_c, 1, 74, 127
1, 18060, Note_on_c, 1, 70, 127
1, 18060, Note_on_c, 1, 58, 127
1, 18060, Note_on_c, 1, 62, 127
1, 18089, Note_off_c, 1, 62, 0
1, 18090, Note_on_c, 1, 75, 127
1, 18090, Note_on_c, 1, 57, 127
1, 18119, Note_off_c, 1, 74, 0
1, 18119, Note_off_c, 1, 70, 0
1, 18119, Note_off_c, 1, 58, 0
1, 18119, Note_off_c, 1, 75, 0
1, 18119, Note_off_c, 1, 57, 0
1, 18120, Note_on_c, 1, 46, 127
1, 18120, Note_on_c, 1, 74, 127
1, 18120, Note_on_c, 1, 58, 127
1, 18149, Note_off_c, 1, 74, 0
1, 18149, Note_off_c, 1, 58, 0
1, 18150, Note_on_c, 1, 65, 127
1, 18150, Note_on_c, 1, 50, 127
1, 18179, Note_off_c, 1, 46, 0
1, 18179, Note_off_c, 1, 65, 0
1, 18179, Note_off_c, 1, 50, 0
1, 18180, Note_on_c, 1, 74, 127
1, 18180, Note_on_c, 1, 67, 127
1, 18180, Note_on_c, 1, 58, 127
1, 18180, Note_on_c, 1, 52, 127
1, 18239, Note_off_c, 1, 74, 0
1, 18239, Note_off_c, 1, 67, 0
1, 18239, Note_off_c, 1, 58, 0
1, 18239, Note_off_c, 1, 52, 0
1, 18240, Note_on_c, 1, 73, 127
1, 18240, Note_on_c, 1, 69, 127
1, 18240, Note_on_c, 1, 57, 127
1, 18270, Note_on_c, 1, 74, 127
1, 18270, Note_on_c, 1, 55, 127
1, 18299, Note_off_c, 1, 73, 0
1, 18299, Note_off_c, 1, 69, 0
1, 18299, Note_off_c, 1, 57, 0
1, 18299, Note_off_c, 1, 74, 0
1, 18299, Note_off_c, 1, 55, 0
1, 18300, Note_on_c, 1, 45, 127
1, 18300, Note_on_c, 1, 73, 127
1, 18300, Note_on_c, 1, 57, 127
1, 18329, Note_off_c, 1, 73, 0
1, 18329, Note_off_c, 1, 57, 0
1, 18330, Note_on_c, 1, 64, 127
1, 18330, Note_on_c, 1, 49, 127
1, 18359, Note_off_c, 1, 45, 0
1, 18359, Note_off_c, 1, 64, 0
1, 18359, Note_off_c, 1, 49, 0
1, 18360, Note_on_c, 1, 72, 127
1, 18360, Note_on_c, 1, 66, 127
1, 18360, Note_on_c, 1, 57, 127
1, 18360, Note_on_c, 1, 50, 127
1, 18419, Note_off_c, 1, 72, 0
1, 18419, Note_off_c, 1, 66, 0
1, 18419, Note_off_c, 1, 57, 0
1, 18419, Note_off_c, 1, 50, 0
1, 18420, Note_on_c, 1, 70, 127
1, 18420, Note_on_c, 1, 67, 127
1, 18420, Note_on_c, 1, 55, 127
1, 18450, Note_on_c, 1, 74, 127
1, 18450, Note_on_c, 1, 50, 127
1, 18479, Note_off_c, 1, 70, 0
1, 18479, Note_off_c, 1, 67, 0
1, 18479, Note_off_c, 1, 55, 0
1, 18479, Note_off_c, 1, 74, 0
1, 18479, Note_off_c, 1, 50, 0
1, 18480, Note_on_c, 1, 43, 127
1, 18480, Note_on_c, 1, 79, 127
1, 18480, Note_on_c, 1, 46, 127
1, 18509, Note_off_c, 1, 79, 0
1, 18509, Note_off_c, 1, 46, 0
1, 18510, Note_on_c, 1, 82, 127
1, 18539, Note_off_c, 1, 43, 0
1, 18539, Note_off_c, 1, 82, 0
1, 18540, Note_on_c, 1, 76, 127
1, 18540, Note_on_c, 1, 67, 127
1, 18540, Note_on_c, 1, 60, 127
1, 18540, Note_on_c, 1, 48, 127
1, 18570, Note_on_c, 1, 72, 127
1, 18570, Note_on_c, 1, 55, 127
1, 18599, Note_off_c, 1, 76, 0
1, 18599, Note_off_c, 1, 67, 0
1, 18599, Note_off_c, 1, 60, 0
1, 18599, Note_off_c, 1, 48, 0
1, 18599, Note_off_c, 1, 72, 0
1, 18599, Note_off_c, 1, 55, 0
1, 18600, Note_on_c, 1, 79, 127
1, 18600, Note_on_c, 1, 60, 127
1, 18600, Note_on_c, 1, 55, 127
1, 18600, Note_on_c, 1, 52, 127
1, 18630, Note_on_c, 1, 70, 127
1, 18630, Note_on_c, 1, 48, 127
1, 18659, Note_off_c, 1, 79, 0
1, 18659, Note_off_c, 1, 60, 0
1, 18659, Note_off_c, 1, 55, 0
1, 18659, Note_off_c, 1, 52, 0
1, 18659, Note_off_c, 1, 70, 0
1, 18659, Note_off_c, 1, 48, 0
1, 18660, Note_on_c, 1, 69, 127
1, 18660, Note_on_c, 1, 60, 127
1, 18689, Note_off_c, 1, 69, 0
1, 18689, Note_off_c, 1, 60, 0
1, 18690, Note_on_c, 1, 67, 127
1, 18690, Note_on_c, 1, 52, 127
1, 18719, Note_off_c, 1, 67, 0
1, 18719, Note_off_c, 1, 52, 0
1, 18720, Note_on_c, 1, 77, 127
1, 18720, Note_on_c, 1, 68, 127
1, 18720, Note_on_c, 1, 60, 127
1, 18720, Note_on_c, 1, 53, 127
1, 18750, Note_on_c, 1, 56, 127
1, 18779, Note_off_c, 1, 77, 0
1, 18779, Note_off_c, 1, 68, 0
1, 18779, Note_off_c, 1, 60, 0
1, 18779, Note_off_c, 1, 53, 0
1, 18779, Note_off_c, 1, 56, 0
1, 18780, Note_on_c, 1, 77, 127
1, 18780, Note_on_c, 1, 67, 127
1, 18780, Note_on_c, 1, 60, 127
1, 18810, Note_on_c, 1, 59, 127
1, 18839, Note_off_c, 1, 77, 0
1, 18839, Note_off_c, 1, 67, 0
1, 18839, Note_off_c, 1, 60, 0
1, 18839, Note_off_c, 1, 59, 0
1, 18840, Note_on_c, 1, 76, 127
1, 18840, Note_on_c, 1, 67, 127
1, 18840, Note_on_c, 1, 60, 127
1, 18840, Note_on_c, 1, 48, 127
1, 18870, Note_on_c, 1, 73, 127
1, 18899, Note_off_c, 1, 76, 0
1, 18899, Note_off_c, 1, 67, 0
1, 18899, Note_off_c, 1, 48, 0
1, 18899, Note_off_c, 1, 73, 0
1, 18900, Note_on_c, 1, 79, 127
1, 18900, Note_on_c, 1, 40, 127
1, 18900, Note_on_c, 1, 70, 127
1, 18929, Note_off_c, 1, 70, 0
1, 18959, Note_off_c, 1, 60, 0
1, 18959, Note_off_c, 1, 79, 0
1, 18959, Note_off_c, 1, 40, 0
1, 18960, Note_on_c, 1, 70, 127
1, 18960, Note_on_c, 1, 67, 127
1, 18960, Note_on_c, 1, 60, 127
1, 18960, Note_on_c, 1, 40, 127
1, 18960, Note_on_c, 1, 64, 127
1, 18960, Note_on_c, 1, 48, 127
1, 18989, Note_off_c, 1, 64, 0
1, 19019, Note_off_c, 1, 70, 0
1, 19019, Note_off_c, 1, 67, 0
1, 19019, Note_off_c, 1, 60, 0
1, 19019, Note_off_c, 1, 40, 0
1, 19019, Note_off_c, 1, 48, 0
1, 19020, Note_on_c, 1, 40, 127
1, 19020, Note_on_c, 1, 60, 127
1, 19049, Note_off_c, 1, 60, 0
1, 19050, Note_on_c, 1, 58, 127
1, 19079, Note_off_c, 1, 40, 0
1, 19079, Note_off_c, 1, 58, 0
1, 19080, Note_on_c, 1, 41, 127
1, 19080, Note_on_c, 1, 57, 127
1, 19109, Note_off_c, 1, 57, 0
1, 19110, Note_on_c, 1, 60, 127
1, 19139, Note_off_c, 1, 41, 0
1, 19139, Note_off_c, 1, 60, 0
1, 19140, Note_on_c, 1, 50, 127
1, 19140, Note_on_c, 1, 65, 127
1, 19169, Note_off_c, 1, 65, 0
1, 19170, Note_on_c, 1, 69, 127
1, 19199, Note_off_c, 1, 50, 0
1, 19199, Note_off_c, 1, 69, 0
1, 19200, Note_on_c, 1, 45, 127
1, 19200, Note_on_c, 1, 72, 127
1, 19229, Note_off_c, 1, 72, 0
1, 19230, Note_on_c, 1, 76, 127
1, 19259, Note_off_c, 1, 45, 0
1, 19259, Note_off_c, 1, 76, 0
1, 19260, Note_on_c, 1, 77, 127
1, 19289, Note_off_c, 1, 77, 0
1, 19290, Note_on_c, 1, 46, 127
1, 19290, Note_on_c, 1, 70, 127
1, 19290, Note_on_c, 1, 58, 127
1, 19319, Note_off_c, 1, 46, 0
1, 19319, Note_off_c, 1, 70, 0
1, 19319, Note_off_c, 1, 58, 0
1, 19320, Note_on_c, 1, 48, 127
1, 19320, Note_on_c, 1, 67, 127
1, 19320, Note_on_c, 1, 64, 127
1, 19320, Note_on_c, 1, 60, 127
1, 19379, Note_off_c, 1, 48, 0
1, 19379, Note_off_c, 1, 60, 0
1, 19380, Note_on_c, 1, 36, 127
1, 19409, Note_off_c, 1, 67, 0
1, 19409, Note_off_c, 1, 64, 0
1, 19410, Note_on_c, 1, 65, 127
1, 19439, Note_off_c, 1, 36, 0
1, 19439, Note_off_c, 1, 65, 0
1, 19440, Note_on_c, 1, 41, 127
1, 19440, Note_on_c, 1, 65, 127
1, 19470, Note_on_c, 1, 53, 127
1, 19499, Note_off_c, 1, 65, 0
1, 19499, Note_off_c, 1, 53, 0
1, 19500, Note_on_c, 1, 77, 127
1, 19500, Note_on_c, 1, 57, 127
1, 19529, Note_off_c, 1, 57, 0
1, 19530, Note_on_c, 1, 60, 127
1, 19559, Note_off_c, 1, 41, 0
1, 19559, Note_off_c, 1, 77, 0
1, 19559, Note_off_c, 1, 60, 0
1, 19560, Note_on_c, 1, 79, 127
1, 19560, Note_on_c, 1, 81, 127
1, 19560, Note_on_c, 1, 65, 127
1, 19574, Note_off_c, 1, 81, 0
1, 19589, Note_off_c, 1, 65, 0
1, 19590, Note_on_c, 1, 77, 127
1, 19590, Note_on_c, 1, 64, 127
1, 19604, Note_off_c, 1, 77, 0
1, 19619, Note_off_c, 1, 79, 0
1, 19619, Note_off_c, 1, 64, 0
1, 19620, Note_on_c, 1, 81, 127
1, 19620, Note_on_c, 1, 65, 127
1, 19650, Note_on_c, 1, 53, 127
1, 19679, Note_off_c, 1, 81, 0
1, 19679, Note_off_c, 1, 65, 0
1, 19679, Note_off_c, 1, 53, 0
1, 19680, Note_on_c, 1, 81, 127
1, 19680, Note_on_c, 1, 72, 127
1, 19680, Note_on_c, 1, 65, 127
1, 19680, Note_on_c, 1, 41, 127
1, 19680, Note_on_c, 1, 60, 127
1, 19680, Note_on_c, 1, 57, 127
1, 19680, Note_on_c, 1, 53, 127
1, 19709, Note_off_c, 1, 53, 0
1, 19710, Note_on_c, 1, 52, 127
1, 19739, Note_off_c, 1, 81, 0
1, 19739, Note_off_c, 1, 72, 0
1, 19739, Note_off_c, 1, 65, 0
1, 19739, Note_off_c, 1, 41, 0
1, 19739, Note_off_c, 1, 60, 0
1, 19739, Note_off_c, 1, 57, 0
1, 19739, Note_off_c, 1, 52, 0
1, 19740, Note_on_c, 1, 82, 127
1, 19740, Note_on_c, 1, 67, 127
1, 19740, Note_on_c, 1, 64, 127
1, 19740, Note_on_c, 1, 43, 127
1, 19740, Note_on_c, 1, 84, 127
1, 19740, Note_on_c, 1, 55, 127
1, 19740, Note_on_c, 1, 58, 127
1, 19740, Note_on_c, 1, 65, 127
1, 19740, Note_on_c, 1, 53, 127
1, 19754, Note_off_c, 1, 84, 0
1, 19769, Note_off_c, 1, 65, 0
1, 19769, Note_off_c, 1, 53, 0
1, 19770, Note_on_c, 1, 81, 127
1, 19784, Note_off_c, 1, 81, 0
1, 19799, Note_off_c, 1, 82, 0
1, 19799, Note_off_c, 1, 67, 0
1, 19799, Note_off_c, 1, 64, 0
1, 19799, Note_off_c, 1, 43, 0
1, 19799, Note_off_c, 1, 55, 0
1, 19799, Note_off_c, 1, 58, 0
1, 19800, Note_on_c, 1, 84, 127
1, 19800, Note_on_c, 1, 60, 127
1, 19800, Note_on_c, 1, 65, 127
1, 19800, Note_on_c, 1, 45, 127
1, 19800, Note_on_c, 1, 57, 127
1, 19800, Note_on_c, 1, 53, 127
1, 19829, Note_off_c, 1, 57, 0
1, 19829, Note_off_c, 1, 53, 0
1, 19830, Note_on_c, 1, 64, 127
1, 19830, Note_on_c, 1, 55, 127
1, 19859, Note_off_c, 1, 84, 0
1, 19859, Note_off_c, 1, 60, 0
1, 19859, Note_off_c, 1, 65, 0
1, 19859, Note_off_c, 1, 45, 0
1, 19859, Note_off_c, 1, 64, 0
1, 19859, Note_off_c, 1, 55, 0
1, 19860, Note_on_c, 1, 84, 127
1, 19860, Note_on_c, 1, 65, 127
1, 19860, Note_on_c, 1, 69, 127
1, 19860, Note_on_c, 1, 45, 127
1, 19860, Note_on_c, 1, 58, 127
1, 19860, Note_on_c, 1, 62, 127
1, 19860, Note_on_c, 1, 53, 127
1, 19889, Note_off_c, 1, 58, 0
1, 19889, Note_off_c, 1, 62, 0
1, 19889, Note_off_c, 1, 53, 0
1, 19890, Note_on_c, 1, 57, 127
1, 19890, Note_on_c, 1, 60, 127
1, 19890, Note_on_c, 1, 55, 127
1, 19919, Note_off_c, 1, 84, 0
1, 19919, Note_off_c, 1, 65, 0
1, 19919, Note_off_c, 1, 69, 0
1, 19919, Note_off_c, 1, 45, 0
1, 19919, Note_off_c, 1, 57, 0
1, 19919, Note_off_c, 1, 60, 0
1, 19919, Note_off_c, 1, 55, 0
1, 19920, Note_on_c, 1, 86, 127
1, 19920, Note_on_c, 1, 65, 127
1, 19920, Note_on_c, 1, 62, 127
1, 19920, Note_on_c, 1, 46, 127
1, 19920, Note_on_c, 1, 55, 127
1, 19920, Note_on_c, 1, 58, 127
1, 19920, Note_on_c, 1, 57, 127
1, 19949, Note_off_c, 1, 55, 0
1, 19949, Note_off_c, 1, 58, 0
1, 19949, Note_off_c, 1, 57, 0
1, 19950, Note_on_c, 1, 53, 127
1, 19979, Note_off_c, 1, 86, 0
1, 19979, Note_off_c, 1, 65, 0
1, 19979, Note_off_c, 1, 62, 0
1, 19979, Note_off_c, 1, 46, 0
1, 19979, Note_off_c, 1, 53, 0
1, 19980, Note_on_c, 1, 84, 127
1, 19980, Note_on_c, 1, 72, 127
1, 19980, Note_on_c, 1, 64, 127
1, 19980, Note_on_c, 1, 48, 127
1, 19980, Note_on_c, 1, 52, 127
1, 19980, Note_on_c, 1, 55, 127
1, 19980, Note_on_c, 1, 60, 127
1, 20009, Note_off_c, 1, 52, 0
1, 20009, Note_off_c, 1, 55, 0
1, 20010, Note_on_c, 1, 50, 127
1, 20010, Note_on_c, 1, 57, 127
1, 20039, Note_off_c, 1, 84, 0
1, 20039, Note_off_c, 1, 72, 0
1, 20039, Note_off_c, 1, 64, 0
1, 20039, Note_off_c, 1, 48, 0
1, 20039, Note_off_c, 1, 60, 0
1, 20039, Note_off_c, 1, 50, 0
1, 20039, Note_off_c, 1, 57, 0
1, 20040, Note_on_c, 1, 82, 127
1, 20040, Note_on_c, 1, 72, 127
1, 20040, Note_on_c, 1, 64, 127
1, 20040, Note_on_c, 1, 48, 127
1, 20040, Note_on_c, 1, 52, 127
1, 20040, Note_on_c, 1, 55, 127
1, 20040, Note_on_c, 1, 60, 127
1, 20069, Note_off_c, 1, 82, 0
1, 20069, Note_off_c, 1, 52, 0
1, 20069, Note_off_c, 1, 55, 0
1, 20070, Note_on_c, 1, 81, 127
1, 20070, Note_on_c, 1, 53, 127
1, 20099, Note_off_c, 1, 72, 0
1, 20099, Note_off_c, 1, 64, 0
1, 20099, Note_off_c, 1, 48, 0
1, 20099, Note_off_c, 1, 60, 0
1, 20099, Note_off_c, 1, 81, 0
1, 20099, Note_off_c, 1, 53, 0
1, 20100, Note_on_c, 1, 79, 127
1, 20100, Note_on_c, 1, 70, 127
1, 20100, Note_on_c, 1, 62, 127
1, 20100, Note_on_c, 1, 50, 127
1, 20100, Note_on_c, 1, 52, 127
1, 20100, Note_on_c, 1, 55, 127
1, 20129, Note_off_c, 1, 79, 0
1, 20129, Note_off_c, 1, 52, 0
1, 20129, Note_off_c, 1, 55, 0
1, 20130, Note_on_c, 1, 77, 127
1, 20130, Note_on_c, 1, 53, 127
1, 20130, Note_on_c, 1, 57, 127
1, 20159, Note_off_c, 1, 70, 0
1, 20159, Note_off_c, 1, 62, 0
1, 20159, Note_off_c, 1, 50, 0
1, 20159, Note_off_c, 1, 77, 0
1, 20159, Note_off_c, 1, 53, 0
1, 20159, Note_off_c, 1, 57, 0
1, 20160, Note_on_c, 1, 76, 127
1, 20160, Note_on_c, 1, 72, 127
1, 20160, Note_on_c, 1, 55, 127
1, 20160, Note_on_c, 1, 48, 127
1, 20160, Note_on_c, 1, 58, 127
1, 20160, Note_on_c, 1, 60, 127
1, 20189, Note_off_c, 1, 76, 0
1, 20189, Note_off_c, 1, 58, 0
1, 20190, Note_on_c, 1, 74, 127
1, 20190, Note_on_c, 1, 65, 127
1, 20219, Note_off_c, 1, 72, 0
1, 20219, Note_off_c, 1, 55, 0
1, 20219, Note_off_c, 1, 48, 0
1, 20219, Note_off_c, 1, 60, 0
1, 20219, Note_off_c, 1, 74, 0
1, 20219, Note_off_c, 1, 65, 0
1, 20220, Note_on_c, 1, 72, 127
1, 20220, Note_on_c, 1, 67, 127
1, 20220, Note_on_c, 1, 46, 127
1, 20220, Note_on_c, 1, 64, 127
1, 20220, Note_on_c, 1, 58, 127
1, 20249, Note_off_c, 1, 46, 0
1, 20249, Note_off_c, 1, 64, 0
1, 20249, Note_off_c, 1, 58, 0
1, 20250, Note_on_c, 1, 74, 127
1, 20250, Note_on_c, 1, 45, 127
1, 20250, Note_on_c, 1, 65, 127
1, 20250, Note_on_c, 1, 62, 127
1, 20250, Note_on_c, 1, 57, 127
1, 20279, Note_off_c, 1, 72, 0
1, 20279, Note_off_c, 1, 67, 0
1, 20279, Note_off_c, 1, 74, 0
1, 20279, Note_off_c, 1, 45, 0
1, 20279, Note_off_c, 1, 65, 0
1, 20279, Note_off_c, 1, 62, 0
1, 20279, Note_off_c, 1, 57, 0
1, 20280, Note_on_c, 1, 76, 127
1, 20280, Note_on_c, 1, 72, 127
1, 20280, Note_on_c, 1, 67, 127
1, 20280, Note_on_c, 1, 43, 127
1, 20280, Note_on_c, 1, 64, 127
1, 20280, Note_on_c, 1, 60, 127
1, 20280, Note_on_c, 1, 55, 127
1, 20309, Note_off_c, 1, 76, 0
1, 20309, Note_off_c, 1, 43, 0
1, 20309, Note_off_c, 1, 64, 0
1, 20309, Note_off_c, 1, 60, 0
1, 20309, Note_off_c, 1, 55, 0
1, 20310, Note_on_c, 1, 77, 127
1, 20310, Note_on_c, 1, 41, 127
1, 20310, Note_on_c, 1, 62, 127
1, 20310, Note_on_c, 1, 53, 127
1, 20339, Note_off_c, 1, 72, 0
1, 20339, Note_off_c, 1, 67, 0
1, 20339, Note_off_c, 1, 77, 0
1, 20339, Note_off_c, 1, 41, 0
1, 20339, Note_off_c, 1, 62, 0
1, 20339, Note_off_c, 1, 53, 0
1, 20340, Note_on_c, 1, 79, 127
1, 20340, Note_on_c, 1, 72, 127
1, 20340, Note_on_c, 1, 67, 127
1, 20340, Note_on_c, 1, 40, 127
1, 20340, Note_on_c, 1, 60, 127
1, 20340, Note_on_c, 1, 64, 127
1, 20340, Note_on_c, 1, 52, 127
1, 20369, Note_off_c, 1, 60, 0
1, 20369, Note_off_c, 1, 64, 0
1, 20370, Note_on_c, 1, 62, 127
1, 20370, Note_on_c, 1, 65, 127
1, 20399, Note_off_c, 1, 79, 0
1, 20399, Note_off_c, 1, 72, 0
1, 20399, Note_off_c, 1, 67, 0
1, 20399, Note_off_c, 1, 40, 0
1, 20399, Note_off_c, 1, 52, 0
1, 20399, Note_off_c, 1, 62, 0
1, 20399, Note_off_c, 1, 65, 0
1, 20400, Note_on_c, 1, 79, 127
1, 20400, Note_on_c, 1, 76, 127
1, 20400, Note_on_c, 1, 72, 127
1, 20400, Note_on_c, 1, 36, 127
1, 20400, Note_on_c, 1, 60, 127
1, 20400, Note_on_c, 1, 64, 127
1, 20400, Note_on_c, 1, 48, 127
1, 20429, Note_off_c, 1, 60, 0
1, 20429, Note_off_c, 1, 64, 0
1, 20430, Note_on_c, 1, 58, 127
1, 20430, Note_on_c, 1, 62, 127
1, 20459, Note_off_c, 1, 79, 0
1, 20459, Note_off_c, 1, 76, 0
1, 20459, Note_off_c, 1, 72, 0
1, 20459, Note_off_c, 1, 36, 0
1, 20459, Note_off_c, 1, 48, 0
1, 20459, Note_off_c, 1, 58, 0
1, 20459, Note_off_c, 1, 62, 0
1, 20460, Note_on_c, 1, 81, 127
1, 20460, Note_on_c, 1, 77, 127
1, 20460, Note_on_c, 1, 72, 127
1, 20460, Note_on_c, 1, 41, 127
1, 20460, Note_on_c, 1, 57, 127
1, 20460, Note_on_c, 1, 60, 127
1, 20460, Note_on_c, 1, 53, 127
1, 20489, Note_off_c, 1, 57, 0
1, 20489, Note_off_c, 1, 60, 0
1, 20490, Note_on_c, 1, 58, 127
1, 20490, Note_on_c, 1, 62, 127
1, 20519, Note_off_c, 1, 81, 0
1, 20519, Note_off_c, 1, 77, 0
1, 20519, Note_off_c, 1, 72, 0
1, 20519, Note_off_c, 1, 41, 0
1, 20519, Note_off_c, 1, 53, 0
1, 20519, Note_off_c, 1, 58, 0
1, 20519, Note_off_c, 1, 62, 0
1, 20520, Note_on_c, 1, 79, 127
1, 20520, Note_on_c, 1, 76, 127
1, 20520, Note_on_c, 1, 72, 127
1, 20520, Note_on_c, 1, 48, 127
1, 20520, Note_on_c, 1, 60, 127
1, 20520, Note_on_c, 1, 64, 127
1, 20579, Note_off_c, 1, 79, 0
1, 20579, Note_off_c, 1, 76, 0
1, 20579, Note_off_c, 1, 72, 0
1, 20579, Note_off_c, 1, 48, 0
1, 20579, Note_off_c, 1, 60, 0
1, 20579, Note_off_c, 1, 64, 0
1, 20580, Note_on_c, 1, 60, 127
1, 20580, Note_on_c, 1, 52, 127
1, 20609, Note_off_c, 1, 60, 0
1, 20610, Note_on_c, 1, 62, 127
1, 20639, Note_off_c, 1, 52, 0
1, 20639, Note_off_c, 1, 62, 0
1, 20640, Note_on_c, 1, 64, 127
1, 20640, Note_on_c, 1, 55, 127
1, 20669, Note_off_c, 1, 64, 0
1, 20670, Note_on_c, 1, 65, 127
1, 20699, Note_off_c, 1, 55, 0
1, 20699, Note_off_c, 1, 65, 0
1, 20700, Note_on_c, 1, 67, 127
1, 20700, Note_on_c, 1, 60, 127
1, 20759, Note_off_c, 1, 67, 0
1, 20759, Note_off_c, 1, 60, 0
1, 20760, Note_on_c, 1, 67, 127
1, 20760, Note_on_c, 1, 64, 127
1, 20760, Note_on_c, 1, 60, 127
1, 20760, Note_on_c, 1, 58, 127
1, 20789, Note_off_c, 1, 58, 0
1, 20790, Note_on_c, 1, 57, 127
1, 20819, Note_off_c, 1, 67, 0
1, 20819, Note_off_c, 1, 64, 0
1, 20819, Note_off_c, 1, 60, 0
1, 20819, Note_off_c, 1, 57, 0
1, 20820, Note_on_c, 1, 69, 127
1, 20820, Note_on_c, 1, 65, 127
1, 20820, Note_on_c, 1, 60, 127
1, 20820, Note_on_c, 1, 55, 127
1, 20849, Note_off_c, 1, 55, 0
1, 20850, Note_on_c, 1, 53, 127
1, 20879, Note_off_c, 1, 69, 0
1, 20879, Note_off_c, 1, 65, 0
1, 20879, Note_off_c, 1, 60, 0
1, 20879, Note_off_c, 1, 53, 0
1, 20880, Note_on_c, 1, 67, 127
1, 20880, Note_on_c, 1, 60, 127
1, 20880, Note_on_c, 1, 64, 127
1, 20910, Note_on_c, 1, 72, 127
1, 20939, Note_off_c, 1, 67, 0
1, 20939, Note_off_c, 1, 60, 0
1, 20939, Note_off_c, 1, 64, 0
1, 20939, Note_off_c, 1, 72, 0
1, 20940, Note_on_c, 1, 84, 127
1, 20940, Note_on_c, 1, 60, 127
1, 20940, Note_on_c, 1, 76, 127
1, 20969, Note_off_c, 1, 76, 0
1, 20970, Note_on_c, 1, 79, 127
1, 20999, Note_off_c, 1, 84, 0
1, 20999, Note_off_c, 1, 60, 0
1, 20999, Note_off_c, 1, 79, 0
1, 21000, Note_on_c, 1, 83, 127
1, 21000, Note_on_c, 1, 62, 127
1, 21000, Note_on_c, 1, 84, 127
1, 21015, Note_on_c, 1, 64, 127
1, 21029, Note_off_c, 1, 84, 0
1, 21030, Note_off_c, 1, 64, 0
1, 21059, Note_off_c, 1, 83, 0
1, 21059, Note_off_c, 1, 62, 0
1, 21060, Note_on_c, 1, 84, 127
1, 21060, Note_on_c, 1, 64, 127
1, 21090, Note_on_c, 1, 72, 127
1, 21119, Note_off_c, 1, 84, 0
1, 21119, Note_off_c, 1, 64, 0
1, 21119, Note_off_c, 1, 72, 0
1, 21120, Note_on_c, 1, 79, 127
1, 21120, Note_on_c, 1, 84, 127
1, 21120, Note_on_c, 1, 64, 127
1, 21120, Note_on_c, 1, 48, 127
1, 21120, Note_on_c, 1, 76, 127
1, 21120, Note_on_c, 1, 60, 127
1, 21149, Note_off_c, 1, 76, 0
1, 21179, Note_off_c, 1, 79, 0
1, 21179, Note_off_c, 1, 84, 0
1, 21179, Note_off_c, 1, 64, 0
1, 21179, Note_off_c, 1, 48, 0
1, 21179, Note_off_c, 1, 60, 0
1, 21180, Note_on_c, 1, 77, 127
1, 21180, Note_on_c, 1, 83, 127
1, 21180, Note_on_c, 1, 65, 127
1, 21180, Note_on_c, 1, 50, 127
1, 21180, Note_on_c, 1, 67, 127
1, 21180, Note_on_c, 1, 84, 127
1, 21180, Note_on_c, 1, 62, 127
1, 21194, Note_off_c, 1, 67, 0
1, 21209, Note_off_c, 1, 84, 0
1, 21210, Note_on_c, 1, 64, 127
1, 21224, Note_off_c, 1, 64, 0
1, 21239, Note_off_c, 1, 77, 0
1, 21239, Note_off_c, 1, 83, 0
1, 21239, Note_off_c, 1, 65, 0
1, 21239, Note_off_c, 1, 50, 0
1, 21239, Note_off_c, 1, 62, 0
1, 21240, Note_on_c, 1, 76, 127
1, 21240, Note_on_c, 1, 84, 127
1, 21240, Note_on_c, 1, 67, 127
1, 21240, Note_on_c, 1, 52, 127
1, 21240, Note_on_c, 1, 64, 127
1, 21269, Note_off_c, 1, 76, 0
1, 21269, Note_off_c, 1, 84, 0
1, 21270, Note_on_c, 1, 79, 127
1, 21270, Note_on_c, 1, 82, 127
1, 21299, Note_off_c, 1, 67, 0
1, 21299, Note_off_c, 1, 52, 0
1, 21299, Note_off_c, 1, 64, 0
1, 21299, Note_off_c, 1, 79, 0
1, 21299, Note_off_c, 1, 82, 0
1, 21300, Note_on_c, 1, 77, 127
1, 21300, Note_on_c, 1, 81, 127
1, 21300, Note_on_c, 1, 67, 127
1, 21300, Note_on_c, 1, 52, 127
1, 21300, Note_on_c, 1, 64, 127
1, 21329, Note_off_c, 1, 77, 0
1, 21329, Note_off_c, 1, 81, 0
1, 21330, Note_on_c, 1, 76, 127
1, 21330, Note_on_c, 1, 79, 127
1, 21359, Note_off_c, 1, 67, 0
1, 21359, Note_off_c, 1, 52, 0
1, 21359, Note_off_c, 1, 64, 0
1, 21359, Note_off_c, 1, 76, 0
1, 21359, Note_off_c, 1, 79, 0
1, 21360, Note_on_c, 1, 74, 127
1, 21360, Note_on_c, 1, 77, 127
1, 21360, Note_on_c, 1, 69, 127
1, 21360, Note_on_c, 1, 53, 127
1, 21360, Note_on_c, 1, 65, 127
1, 21389, Note_off_c, 1, 74, 0
1, 21390, Note_on_c, 1, 72, 127
1, 21390, Note_on_c, 1, 76, 127
1, 21419, Note_off_c, 1, 69, 0
1, 21419, Note_off_c, 1, 53, 0
1, 21419, Note_off_c, 1, 65, 0
1, 21419, Note_off_c, 1, 72, 0
1, 21419, Note_off_c, 1, 76, 0
1, 21420, Note_on_c, 1, 71, 127
1, 21420, Note_on_c, 1, 67, 127
1, 21420, Note_on_c, 1, 55, 127
1, 21449, Note_off_c, 1, 77, 0
1, 21449, Note_off_c, 1, 71, 0
1, 21479, Note_off_c, 1, 67, 0
1, 21479, Note_off_c, 1, 55, 0
1, 21480, Note_on_c, 1, 74, 127
1, 21480, Note_on_c, 1, 65, 127
1, 21480, Note_on_c, 1, 55, 127
1, 21480, Note_on_c, 1, 71, 127
1, 21509, Note_off_c, 1, 74, 0
1, 21509, Note_off_c, 1, 65, 0
1, 21509, Note_off_c, 1, 71, 0
1, 21510, Note_on_c, 1, 76, 127
1, 21510, Note_on_c, 1, 72, 127
1, 21510, Note_on_c, 1, 64, 127
1, 21539, Note_off_c, 1, 55, 0
1, 21539, Note_off_c, 1, 76, 0
1, 21539, Note_off_c, 1, 72, 0
1, 21539, Note_off_c, 1, 64, 0
1, 21540, Note_on_c, 1, 77, 127
1, 21540, Note_on_c, 1, 71, 127
1, 21540, Note_on_c, 1, 62, 127
1, 21540, Note_on_c, 1, 57, 127
1, 21540, Note_on_c, 1, 74, 127
1, 21569, Note_off_c, 1, 71, 0
1, 21569, Note_off_c, 1, 62, 0
1, 21569, Note_off_c, 1, 74, 0
1, 21570, Note_on_c, 1, 72, 127
1, 21570, Note_on_c, 1, 60, 127
1, 21599, Note_off_c, 1, 77, 0
1, 21599, Note_off_c, 1, 57, 0
1, 21599, Note_off_c, 1, 72, 0
1, 21599, Note_off_c, 1, 60, 0
1, 21600, Note_on_c, 1, 67, 127
1, 21600, Note_on_c, 1, 74, 127
1, 21600, Note_on_c, 1, 59, 127
1, 21600, Note_on_c, 1, 55, 127
1, 21629, Note_off_c, 1, 67, 0
1, 21629, Note_off_c, 1, 74, 0
1, 21629, Note_off_c, 1, 59, 0
1, 21630, Note_on_c, 1, 69, 127
1, 21630, Note_on_c, 1, 72, 127
1, 21630, Note_on_c, 1, 57, 127
1, 21659, Note_off_c, 1, 55, 0
1, 21659, Note_off_c, 1, 69, 0
1, 21659, Note_off_c, 1, 72, 0
1, 21659, Note_off_c, 1, 57, 0
1, 21660, Note_on_c, 1, 71, 127
1, 21660, Note_on_c, 1, 55, 127
1, 21660, Note_on_c, 1, 53, 127
1, 21689, Note_off_c, 1, 71, 0
1, 21689, Note_off_c, 1, 55, 0
1, 21689, Note_off_c, 1, 53, 0
1, 21690, Note_on_c, 1, 72, 127
1, 21690, Note_on_c, 1, 69, 127
1, 21690, Note_on_c, 1, 57, 127
1, 21690, Note_on_c, 1, 52, 127
1, 21719, Note_off_c, 1, 72, 0
1, 21719, Note_off_c, 1, 69, 0
1, 21719, Note_off_c, 1, 57, 0
1, 21719, Note_off_c, 1, 52, 0
1, 21720, Note_on_c, 1, 74, 127
1, 21720, Note_on_c, 1, 67, 127
1, 21720, Note_on_c, 1, 59, 127
1, 21720, Note_on_c, 1, 50, 127
1, 21749, Note_off_c, 1, 59, 0
1, 21749, Note_off_c, 1, 50, 0
1, 21750, Note_on_c, 1, 60, 127
1, 21750, Note_on_c, 1, 48, 127
1, 21750, Note_on_c, 1, 69, 127
1, 21750, Note_on_c, 1, 76, 127
1, 21779, Note_off_c, 1, 74, 0
1, 21779, Note_off_c, 1, 60, 0
1, 21779, Note_off_c, 1, 48, 0
1, 21779, Note_off_c, 1, 69, 0
1, 21779, Note_off_c, 1, 76, 0
1, 21780, Note_on_c, 1, 62, 127
1, 21780, Note_on_c, 1, 47, 127
1, 21780, Note_on_c, 1, 71, 127
1, 21780, Note_on_c, 1, 77, 127
1, 21809, Note_off_c, 1, 71, 0
1, 21809, Note_off_c, 1, 77, 0
1, 21810, Note_on_c, 1, 72, 127
1, 21810, Note_on_c, 1, 81, 127
1, 21839, Note_off_c, 1, 67, 0
1, 21839, Note_off_c, 1, 62, 0
1, 21839, Note_off_c, 1, 47, 0
1, 21839, Note_off_c, 1, 72, 0
1, 21839, Note_off_c, 1, 81, 0
1, 21840, Note_on_c, 1, 74, 127
1, 21840, Note_on_c, 1, 67, 127
1, 21840, Note_on_c, 1, 62, 127
1, 21840, Note_on_c, 1, 43, 127
1, 21840, Note_on_c, 1, 71, 127
1, 21840, Note_on_c, 1, 79, 127
1, 21840, Note_on_c, 1, 59, 127
1, 21869, Note_off_c, 1, 71, 0
1, 21869, Note_off_c, 1, 79, 0
1, 21870, Note_on_c, 1, 69, 127
1, 21870, Note_on_c, 1, 77, 127
1, 21899, Note_off_c, 1, 74, 0
1, 21899, Note_off_c, 1, 67, 0
1, 21899, Note_off_c, 1, 62, 0
1, 21899, Note_off_c, 1, 43, 0
1, 21899, Note_off_c, 1, 59, 0
1, 21899, Note_off_c, 1, 69, 0
1, 21899, Note_off_c, 1, 77, 0
1, 21900, Note_on_c, 1, 72, 127
1, 21900, Note_on_c, 1, 67, 127
1, 21900, Note_on_c, 1, 64, 127
1, 21900, Note_on_c, 1, 48, 127
1, 21900, Note_on_c, 1, 76, 127
1, 21900, Note_on_c, 1, 60, 127
1, 21929, Note_off_c, 1, 76, 0
1, 21930, Note_on_c, 1, 69, 127
1, 21930, Note_on_c, 1, 77, 127
1, 21959, Note_off_c, 1, 72, 0
1, 21959, Note_off_c, 1, 67, 0
1, 21959, Note_off_c, 1, 64, 0
1, 21959, Note_off_c, 1, 48, 0
1, 21959, Note_off_c, 1, 60, 0
1, 21959, Note_off_c, 1, 69, 0
1, 21959, Note_off_c, 1, 77, 0
1, 21960, Note_on_c, 1, 71, 127
1, 21960, Note_on_c, 1, 67, 127
1, 21960, Note_on_c, 1, 62, 127
1, 21960, Note_on_c, 1, 43, 127
1, 21960, Note_on_c, 1, 55, 127
1, 21960, Note_on_c, 1, 79, 127
1, 21990, Note_on_c, 1, 57, 127
1, 22019, Note_off_c, 1, 71, 0
1, 22019, Note_off_c, 1, 67, 0
1, 22019, Note_off_c, 1, 62, 0
1, 22019, Note_off_c, 1, 43, 0
1, 22019, Note_off_c, 1, 55, 0
1, 22019, Note_off_c, 1, 79, 0
1, 22019, Note_off_c, 1, 57, 0
1, 22020, Note_on_c, 1, 67, 127
1, 22020, Note_on_c, 1, 62, 127
1, 22020, Note_on_c, 1, 59, 127
1, 22020, Note_on_c, 1, 55, 127
1, 22020, Note_on_c, 1, 71, 127
1, 22020, Note_on_c, 1, 72, 127
1, 22034, Note_off_c, 1, 72, 0
1, 22049, Note_off_c, 1, 71, 0
1, 22050, Note_on_c, 1, 74, 127
1, 22050, Note_on_c, 1, 53, 127
1, 22079, Note_off_c, 1, 67, 0
1, 22079, Note_off_c, 1, 62, 0
1, 22079, Note_off_c, 1, 59, 0
1, 22079, Note_off_c, 1, 55, 0
1, 22079, Note_off_c, 1, 74, 0
1, 22079, Note_off_c, 1, 53, 0
1, 22080, Note_on_c, 1, 43, 127
1, 22080, Note_on_c, 1, 79, 127
1, 22080, Note_on_c, 1, 59, 127
1, 22080, Note_on_c, 1, 55, 127
1, 22080, Note_on_c, 1, 67, 127
1, 22080, Note_on_c, 1, 62, 127
1, 22080, Note_on_c, 1, 52, 127
1, 22080, Note_on_c, 1, 72, 127
1, 22094, Note_off_c, 1, 72, 0
1, 22095, Note_on_c, 1, 71, 127
1, 22109, Note_off_c, 1, 79, 0
1, 22109, Note_off_c, 1, 52, 0
1, 22109, Note_off_c, 1, 71, 0
1, 22110, Note_on_c, 1, 77, 127
1, 22110, Note_on_c, 1, 50, 127
1, 22110, Note_on_c, 1, 69, 127
1, 22124, Note_off_c, 1, 69, 0
1, 22139, Note_off_c, 1, 43, 0
1, 22139, Note_off_c, 1, 59, 0
1, 22139, Note_off_c, 1, 55, 0
1, 22139, Note_off_c, 1, 67, 0
1, 22139, Note_off_c, 1, 62, 0
1, 22139, Note_off_c, 1, 77, 0
1, 22139, Note_off_c, 1, 50, 0
1, 22140, Note_on_c, 1, 79, 127
1, 22140, Note_on_c, 1, 64, 127
1, 22140, Note_on_c, 1, 60, 127
1, 22140, Note_on_c, 1, 48, 127
1, 22140, Note_on_c, 1, 76, 127
1, 22140, Note_on_c, 1, 55, 127
1, 22140, Note_on_c, 1, 67, 127
1, 22140, Note_on_c, 1, 72, 127
1, 22169, Note_off_c, 1, 67, 0
1, 22170, Note_on_c, 1, 62, 127
1, 22199, Note_off_c, 1, 79, 0
1, 22199, Note_off_c, 1, 64, 0
1, 22199, Note_off_c, 1, 60, 0
1, 22199, Note_off_c, 1, 48, 0
1, 22199, Note_off_c, 1, 76, 0
1, 22199, Note_off_c, 1, 55, 0
1, 22199, Note_off_c, 1, 72, 0
1, 22199, Note_off_c, 1, 62, 0
1, 22200, Note_on_c, 1, 76, 127
1, 22200, Note_on_c, 1, 72, 127
1, 22200, Note_on_c, 1, 67, 127
1, 22200, Note_on_c, 1, 60, 127
1, 22200, Note_on_c, 1, 77, 127
1, 22200, Note_on_c, 1, 64, 127
1, 22200, Note_on_c, 1, 55, 127
1, 22214, Note_off_c, 1, 77, 0
1, 22230, Note_on_c, 1, 58, 127
1, 22259, Note_off_c, 1, 76, 0
1, 22259, Note_off_c, 1, 72, 0
1, 22259, Note_off_c, 1, 67, 0
1, 22259, Note_off_c, 1, 60, 0
1, 22259, Note_off_c, 1, 64, 0
1, 22259, Note_off_c, 1, 55, 0
1, 22259, Note_off_c, 1, 58, 0
1, 22260, Note_on_c, 1, 48, 127
1, 22260, Note_on_c, 1, 77, 127
1, 22260, Note_on_c, 1, 72, 127
1, 22260, Note_on_c, 1, 52, 127
1, 22260, Note_on_c, 1, 67, 127
1, 22260, Note_on_c, 1, 60, 127
1, 22260, Note_on_c, 1, 57, 127
1, 22274, Note_off_c, 1, 77, 0
1, 22275, Note_on_c, 1, 76, 127
1, 22289, Note_off_c, 1, 57, 0
1, 22289, Note_off_c, 1, 76, 0
1, 22290, Note_on_c, 1, 74, 127
1, 22290, Note_on_c, 1, 70, 127
1, 22290, Note_on_c, 1, 55, 127
1, 22304, Note_off_c, 1, 74, 0
1, 22319, Note_off_c, 1, 48, 0
1, 22319, Note_off_c, 1, 72, 0
1, 22319, Note_off_c, 1, 52, 0
1, 22319, Note_off_c, 1, 67, 0
1, 22319, Note_off_c, 1, 60, 0
1, 22319, Note_off_c, 1, 70, 0
1, 22319, Note_off_c, 1, 55, 0
1, 22320, Note_on_c, 1, 77, 127
1, 22320, Note_on_c, 1, 72, 127
1, 22320, Note_on_c, 1, 69, 127
1, 22320, Note_on_c, 1, 41, 127
1, 22320, Note_on_c, 1, 65, 127
1, 22320, Note_on_c, 1, 48, 127
1, 22320, Note_on_c, 1, 60, 127
1, 22320, Note_on_c, 1, 53, 127
1, 22349, Note_off_c, 1, 65, 0
1, 22349, Note_off_c, 1, 60, 0
1, 22350, Note_on_c, 1, 67, 127
1, 22379, Note_off_c, 1, 77, 0
1, 22379, Note_off_c, 1, 72, 0
1, 22379, Note_off_c, 1, 69, 0
1, 22379, Note_off_c, 1, 41, 0
1, 22379, Note_off_c, 1, 48, 0
1, 22379, Note_off_c, 1, 53, 0
1, 22379, Note_off_c, 1, 67, 0
1, 22380, Note_on_c, 1, 72, 127
1, 22380, Note_on_c, 1, 69, 127
1, 22380, Note_on_c, 1, 65, 127
1, 22380, Note_on_c, 1, 53, 127
1, 22380, Note_on_c, 1, 77, 127
1, 22380, Note_on_c, 1, 70, 127
1, 22380, Note_on_c, 1, 60, 127
1, 22394, Note_off_c, 1, 70, 0
1, 22410, Note_on_c, 1, 63, 127
1, 22439, Note_off_c, 1, 72, 0
1, 22439, Note_off_c, 1, 69, 0
1, 22439, Note_off_c, 1, 65, 0
1, 22439, Note_off_c, 1, 53, 0
1, 22439, Note_off_c, 1, 77, 0
1, 22439, Note_off_c, 1, 60, 0
1, 22439, Note_off_c, 1, 63, 0
1, 22440, Note_on_c, 1, 41, 127
1, 22440, Note_on_c, 1, 77, 127
1, 22440, Note_on_c, 1, 72, 127
1, 22440, Note_on_c, 1, 65, 127
1, 22440, Note_on_c, 1, 62, 127
1, 22440, Note_on_c, 1, 70, 127
1, 22440, Note_on_c, 1, 57, 127
1, 22454, Note_off_c, 1, 70, 0
1, 22455, Note_on_c, 1, 69, 127
1, 22469, Note_off_c, 1, 62, 0
1, 22469, Note_off_c, 1, 69, 0
1, 22470, Note_on_c, 1, 60, 127
1, 22470, Note_on_c, 1, 67, 127
1, 22470, Note_on_c, 1, 75, 127
1, 22484, Note_off_c, 1, 67, 0
1, 22499, Note_off_c, 1, 41, 0
1, 22499, Note_off_c, 1, 77, 0
1, 22499, Note_off_c, 1, 72, 0
1, 22499, Note_off_c, 1, 65, 0
1, 22499, Note_off_c, 1, 57, 0
1, 22499, Note_off_c, 1, 60, 0
1, 22499, Note_off_c, 1, 75, 0
1, 22500, Note_on_c, 1, 74, 127
1, 22500, Note_on_c, 1, 70, 127
1, 22500, Note_on_c, 1, 65, 127
1, 22500, Note_on_c, 1, 46, 127
1, 22500, Note_on_c, 1, 77, 127
1, 22500, Note_on_c, 1, 58, 127
1, 22500, Note_on_c, 1, 53, 127
1, 22529, Note_off_c, 1, 77, 0
1, 22530, Note_on_c, 1, 60, 127
1, 22559, Note_off_c, 1, 74, 0
1, 22559, Note_off_c, 1, 70, 0
1, 22559, Note_off_c, 1, 65, 0
1, 22559, Note_off_c, 1, 46, 0
1, 22559, Note_off_c, 1, 58, 0
1, 22559, Note_off_c, 1, 53, 0
1, 22559, Note_off_c, 1, 60, 0
1, 22560, Note_on_c, 1, 70, 127
1, 22560, Note_on_c, 1, 65, 127
1, 22560, Note_on_c, 1, 62, 127
1, 22560, Note_on_c, 1, 58, 127
1, 22560, Note_on_c, 1, 74, 127
1, 22560, Note_on_c, 1, 76, 127
1, 22574, Note_off_c, 1, 76, 0
1, 22589, Note_off_c, 1, 74, 0
1, 22590, Note_on_c, 1, 77, 127
1, 22590, Note_on_c, 1, 57, 127
1, 22619, Note_off_c, 1, 70, 0
1, 22619, Note_off_c, 1, 65, 0
1, 22619, Note_off_c, 1, 62, 0
1, 22619, Note_off_c, 1, 58, 0
1, 22619, Note_off_c, 1, 77, 0
1, 22619, Note_off_c, 1, 57, 0
1, 22620, Note_on_c, 1, 79, 127
1, 22620, Note_on_c, 1, 74, 127
1, 22620, Note_on_c, 1, 58, 127
1, 22620, Note_on_c, 1, 46, 127
1, 22620, Note_on_c, 1, 82, 127
1, 22620, Note_on_c, 1, 62, 127
1, 22620, Note_on_c, 1, 70, 127
1, 22620, Note_on_c, 1, 76, 127
1, 22634, Note_off_c, 1, 76, 0
1, 22649, Note_off_c, 1, 79, 0
1, 22649, Note_off_c, 1, 82, 0
1, 22650, Note_on_c, 1, 72, 127
1, 22664, Note_off_c, 1, 72, 0
1, 22679, Note_off_c, 1, 74, 0
1, 22679, Note_off_c, 1, 58, 0
1, 22679, Note_off_c, 1, 46, 0
1, 22679, Note_off_c, 1, 62, 0
1, 22679, Note_off_c, 1, 70, 0
1, 22680, Note_on_c, 1, 76, 127
1, 22680, Note_on_c, 1, 72, 127
1, 22680, Note_on_c, 1, 55, 127
1, 22680, Note_on_c, 1, 58, 127
1, 22680, Note_on_c, 1, 79, 127
1, 22680, Note_on_c, 1, 60, 127
1, 22739, Note_off_c, 1, 72, 0
1, 22739, Note_off_c, 1, 55, 0
1, 22740, Note_on_c, 1, 84, 127
1, 22740, Note_on_c, 1, 67, 127
1, 22769, Note_off_c, 1, 76, 0
1, 22769, Note_off_c, 1, 58, 0
1, 22769, Note_off_c, 1, 79, 0
1, 22769, Note_off_c, 1, 60, 0
1, 22769, Note_off_c, 1, 84, 0
1, 22770, Note_on_c, 1, 70, 127
1, 22799, Note_off_c, 1, 67, 0
1, 22799, Note_off_c, 1, 70, 0
1, 22800, Note_on_c, 1, 77, 127
1, 22800, Note_on_c, 1, 72, 127
1, 22800, Note_on_c, 1, 65, 127
1, 22800, Note_on_c, 1, 57, 127
1, 22800, Note_on_c, 1, 69, 127
1, 22859, Note_off_c, 1, 77, 0
1, 22859, Note_off_c, 1, 72, 0
1, 22859, Note_off_c, 1, 65, 0
1, 22859, Note_off_c, 1, 57, 0
1, 22859, Note_off_c, 1, 69, 0
1, 22890, Note_on_c, 1, 82, 127
1, 22890, Note_on_c, 1, 74, 127
1, 22890, Note_on_c, 1, 65, 127
1, 22890, Note_on_c, 1, 58, 127
1, 22890, Note_on_c, 1, 77, 127
1, 22919, Note_off_c, 1, 82, 0
1, 22919, Note_off_c, 1, 74, 0
1, 22919, Note_off_c, 1, 65, 0
1, 22919, Note_off_c, 1, 58, 0
1, 22919, Note_off_c, 1, 77, 0
1, 22920, Note_on_c, 1, 79, 127
1, 22920, Note_on_c, 1, 76, 127
1, 22920, Note_on_c, 1, 72, 127
1, 22920, Note_on_c, 1, 60, 127
1, 22979, Note_off_c, 1, 72, 0
1, 22979, Note_off_c, 1, 60, 0
1, 22980, Note_on_c, 1, 70, 127
1, 22980, Note_on_c, 1, 48, 127
1, 22980, Note_on_c, 1, 67, 127
1, 22980, Note_on_c, 1, 64, 127
1, 23009, Note_off_c, 1, 79, 0
1, 23009, Note_off_c, 1, 76, 0
1, 23010, Note_on_c, 1, 77, 127
1, 23039, Note_off_c, 1, 70, 0
1, 23039, Note_off_c, 1, 48, 0
1, 23039, Note_off_c, 1, 67, 0
1, 23039, Note_off_c, 1, 64, 0
1, 23039, Note_off_c, 1, 77, 0
1, 23040, Note_on_c, 1, 77, 127
1, 23040, Note_on_c, 1, 69, 127
1, 23040, Note_on_c, 1, 53, 127
1, 23040, Note_on_c, 1, 41, 127
1, 23040, Note_on_c, 1, 65, 127
1, 23040, Note_on_c, 1, 60, 127
1, 23099, Note_off_c, 1, 53, 0
1, 23099, Note_off_c, 1, 41, 0
1, 23130, Note_on_c, 1, 72, 127
1, 23130, Note_on_c, 1, 58, 127
1, 23159, Note_off_c, 1, 77, 0
1, 23159, Note_off_c, 1, 69, 0
1, 23159, Note_off_c, 1, 65, 0
1, 23159, Note_off_c, 1, 60, 0
1, 23159, Note_off_c, 1, 72, 0
1, 23159, Note_off_c, 1, 58, 0
1, 23160, Note_on_c, 1, 43, 127
1, 23160, Note_on_c, 1, 77, 127
1, 23160, Note_on_c, 1, 57, 127
1, 23160, Note_on_c, 1, 55, 127
1, 23189, Note_off_c, 1, 77, 0
1, 23189, Note_off_c, 1, 57, 0
1, 23190, Note_on_c, 1, 76, 127
1, 23190, Note_on_c, 1, 58, 127
1, 23190, Note_on_c, 1, 60, 127
1, 23219, Note_off_c, 1, 43, 0
1, 23219, Note_off_c, 1, 55, 0
1, 23219, Note_off_c, 1, 76, 0
1, 23219, Note_off_c, 1, 58, 0
1, 23219, Note_off_c, 1, 60, 0
1, 23220, Note_on_c, 1, 77, 127
1, 23220, Note_on_c, 1, 72, 127
1, 23220, Note_on_c, 1, 69, 127
1, 23220, Note_on_c, 1, 45, 127
1, 23220, Note_on_c, 1, 57, 127
1, 23220, Note_on_c, 1, 53, 127
1, 23249, Note_off_c, 1, 53, 0
1, 23250, Note_on_c, 1, 60, 127
1, 23250, Note_on_c, 1, 65, 127
1, 23279, Note_off_c, 1, 77, 0
1, 23279, Note_off_c, 1, 72, 0
1, 23279, Note_off_c, 1, 69, 0
1, 23279, Note_off_c, 1, 45, 0
1, 23279, Note_off_c, 1, 57, 0
1, 23279, Note_off_c, 1, 60, 0
1, 23279, Note_off_c, 1, 65, 0
1, 23280, Note_on_c, 1, 45, 127
1, 23280, Note_on_c, 1, 72, 127
1, 23280, Note_on_c, 1, 65, 127
1, 23280, Note_on_c, 1, 69, 127
1, 23280, Note_on_c, 1, 57, 127
1, 23309, Note_off_c, 1, 65, 0
1, 23309, Note_off_c, 1, 69, 0
1, 23310, Note_on_c, 1, 53, 127
1, 23339, Note_off_c, 1, 45, 0
1, 23339, Note_off_c, 1, 72, 0
1, 23339, Note_off_c, 1, 57, 0
1, 23339, Note_off_c, 1, 53, 0
1, 23340, Note_on_c, 1, 46, 127
1, 23340, Note_on_c, 1, 67, 127
1, 23340, Note_on_c, 1, 77, 127
1, 23340, Note_on_c, 1, 58, 127
1, 23340, Note_on_c, 1, 70, 127
1, 23340, Note_on_c, 1, 50, 127
1, 23369, Note_off_c, 1, 67, 0
1, 23369, Note_off_c, 1, 77, 0
1, 23369, Note_off_c, 1, 70, 0
1, 23369, Note_off_c, 1, 50, 0
1, 23370, Note_on_c, 1, 65, 127
1, 23370, Note_on_c, 1, 74, 127
1, 23370, Note_on_c, 1, 69, 127
1, 23370, Note_on_c, 1, 53, 127
1, 23399, Note_off_c, 1, 46, 0
1, 23399, Note_off_c, 1, 58, 0
1, 23399, Note_off_c, 1, 65, 0
1, 23399, Note_off_c, 1, 74, 0
1, 23399, Note_off_c, 1, 69, 0
1, 23399, Note_off_c, 1, 53, 0
1, 23400, Note_on_c, 1, 76, 127
1, 23400, Note_on_c, 1, 72, 127
1, 23400, Note_on_c, 1, 67, 127
1, 23400, Note_on_c, 1, 48, 127
1, 23400, Note_on_c, 1, 64, 127
1, 23400, Note_on_c, 1, 60, 127
1, 23429, Note_off_c, 1, 60, 0
1, 23459, Note_off_c, 1, 72, 0
1, 23459, Note_off_c, 1, 67, 0
1, 23459, Note_off_c, 1, 64, 0
1, 23460, Note_on_c, 1, 55, 127
1, 23489, Note_off_c, 1, 55, 0
1, 23519, Note_off_c, 1, 76, 0
1, 23520, Note_off_c, 1, 48, 0
1, 23520, Note_on_c, 1, 79, 127
1, 23520, Note_on_c, 1, 52, 127
1, 23549, Note_off_c, 1, 52, 0
1, 23579, Note_off_c, 1, 79, 0
1, 23580, Note_on_c, 1, 64, 127
1, 23580, Note_on_c, 1, 36, 127
1, 23580, Note_on_c, 1, 84, 127
1, 23580, Note_on_c, 1, 48, 127
1, 23580, Note_on_c, 1, 67, 127
1, 23609, Note_off_c, 1, 67, 0
1, 23610, Note_on_c, 1, 60, 127
1, 23639, Note_off_c, 1, 64, 0
1, 23639, Note_off_c, 1, 84, 0
1, 23639, Note_off_c, 1, 60, 0
1, 23670, Note_on_c, 1, 62, 127
1, 23670, Note_on_c, 1, 72, 127
1, 23699, Note_off_c, 1, 48, 0
1, 23699, Note_off_c, 1, 62, 0
1, 23699, Note_off_c, 1, 72, 0
1, 23700, Note_off_c, 1, 36, 0
1, 23730, Note_on_c, 1, 65, 127
1, 23730, Note_on_c, 1, 60, 127
1, 23730, Note_on_c, 1, 64, 127
1, 23759, Note_off_c, 1, 65, 0
1, 23759, Note_off_c, 1, 60, 0
1, 23759, Note_off_c, 1, 64, 0
1, 23760, Note_on_c, 1, 67, 127
1, 23760, Note_on_c, 1, 64, 127
1, 23760, Note_on_c, 1, 72, 127
1, 23779, Note_off_c, 1, 72, 0
1, 23780, Note_on_c, 1, 70, 127
1, 23799, Note_off_c, 1, 70, 0
1, 23819, Note_off_c, 1, 67, 0
1, 23819, Note_off_c, 1, 64, 0
1, 23820, Note_on_c, 1, 79, 127
1, 23820, Note_on_c, 1, 70, 127
1, 23820, Note_on_c, 1, 64, 127
1, 23820, Note_on_c, 1, 52, 127
1, 23820, Note_on_c, 1, 76, 127
1, 23820, Note_on_c, 1, 73, 127
1, 23835, Note_on_c, 1, 72, 127
1, 23849, Note_off_c, 1, 76, 0
1, 23849, Note_off_c, 1, 73, 0
1, 23849, Note_off_c, 1, 72, 0
1, 23850, Note_on_c, 1, 77, 127
1, 23850, Note_on_c, 1, 74, 127
1, 23879, Note_off_c, 1, 52, 0
1, 23879, Note_off_c, 1, 77, 0
1, 23879, Note_off_c, 1, 74, 0
1, 23880, Note_on_c, 1, 50, 127
1, 23880, Note_on_c, 1, 62, 127
1, 23939, Note_off_c, 1, 79, 0
1, 23939, Note_off_c, 1, 70, 0
1, 23939, Note_off_c, 1, 50, 0
1, 23939, Note_off_c, 1, 62, 0
1, 23940, Note_on_c, 1, 49, 127
1, 23940, Note_on_c, 1, 61, 127
1, 23970, Note_on_c, 1, 69, 127
1, 23999, Note_off_c, 1, 64, 0
1, 23999, Note_off_c, 1, 49, 0
1, 23999, Note_off_c, 1, 61, 0
1, 23999, Note_off_c, 1, 69, 0
1, 24000, Note_on_c, 1, 73, 127
1, 24000, Note_on_c, 1, 79, 127
1, 24000, Note_on_c, 1, 64, 127
1, 24000, Note_on_c, 1, 47, 127
1, 24000, Note_on_c, 1, 76, 127
1, 24000, Note_on_c, 1, 59, 127
1, 24029, Note_off_c, 1, 73, 0
1, 24029, Note_off_c, 1, 76, 0
1, 24030, Note_on_c, 1, 74, 127
1, 24059, Note_off_c, 1, 79, 0
1, 24059, Note_off_c, 1, 64, 0
1, 24059, Note_off_c, 1, 47, 0
1, 24059, Note_off_c, 1, 59, 0
1, 24059, Note_off_c, 1, 74, 0
1, 24060, Note_on_c, 1, 81, 127
1, 24060, Note_on_c, 1, 73, 127
1, 24060, Note_on_c, 1, 64, 127
1, 24060, Note_on_c, 1, 45, 127
1, 24060, Note_on_c, 1, 57, 127
1, 24060, Note_on_c, 1, 76, 127
1, 24089, Note_off_c, 1, 81, 0
1, 24089, Note_off_c, 1, 76, 0
1, 24090, Note_on_c, 1, 79, 127
1, 24119, Note_off_c, 1, 73, 0
1, 24119, Note_off_c, 1, 64, 0
1, 24119, Note_off_c, 1, 45, 0
1, 24119, Note_off_c, 1, 57, 0
1, 24119, Note_off_c, 1, 79, 0
1, 24120, Note_on_c, 1, 77, 127
1, 24120, Note_on_c, 1, 74, 127
1, 24120, Note_on_c, 1, 62, 127
1, 24120, Note_on_c, 1, 50, 127
1, 24120, Note_on_c, 1, 69, 127
1, 24149, Note_off_c, 1, 69, 0
1, 24179, Note_off_c, 1, 77, 0
1, 24179, Note_off_c, 1, 62, 0
1, 24179, Note_off_c, 1, 50, 0
1, 24180, Note_on_c, 1, 38, 127
1, 24180, Note_on_c, 1, 65, 127
1, 24180, Note_on_c, 1, 57, 127
1, 24209, Note_off_c, 1, 65, 0
1, 24209, Note_off_c, 1, 57, 0
1, 24210, Note_on_c, 1, 55, 127
1, 24239, Note_off_c, 1, 74, 0
1, 24239, Note_off_c, 1, 38, 0
1, 24239, Note_off_c, 1, 55, 0
1, 24240, Note_on_c, 1, 40, 127
1, 24240, Note_on_c, 1, 65, 127
1, 24240, Note_on_c, 1, 74, 127
1, 24240, Note_on_c, 1, 53, 127
1, 24240, Note_on_c, 1, 52, 127
1, 24269, Note_off_c, 1, 65, 0
1, 24269, Note_off_c, 1, 74, 0
1, 24269, Note_off_c, 1, 53, 0
1, 24270, Note_on_c, 1, 69, 127
1, 24270, Note_on_c, 1, 73, 127
1, 24270, Note_on_c, 1, 55, 127
1, 24299, Note_off_c, 1, 40, 0
1, 24299, Note_off_c, 1, 52, 0
1, 24299, Note_off_c, 1, 69, 0
1, 24299, Note_off_c, 1, 73, 0
1, 24299, Note_off_c, 1, 55, 0
1, 24300, Note_on_c, 1, 77, 127
1, 24300, Note_on_c, 1, 74, 127
1, 24300, Note_on_c, 1, 69, 127
1, 24300, Note_on_c, 1, 41, 127
1, 24300, Note_on_c, 1, 62, 127
1, 24300, Note_on_c, 1, 53, 127
1, 24329, Note_off_c, 1, 62, 0
1, 24330, Note_on_c, 1, 57, 127
1, 24359, Note_off_c, 1, 77, 0
1, 24359, Note_off_c, 1, 74, 0
1, 24359, Note_off_c, 1, 69, 0
1, 24359, Note_off_c, 1, 41, 0
1, 24359, Note_off_c, 1, 53, 0
1, 24359, Note_off_c, 1, 57, 0
1, 24360, Note_on_c, 1, 41, 127
1, 24360, Note_on_c, 1, 81, 127
1, 24360, Note_on_c, 1, 65, 127
1, 24360, Note_on_c, 1, 62, 127
1, 24360, Note_on_c, 1, 53, 127
1, 24389, Note_off_c, 1, 65, 0
1, 24389, Note_off_c, 1, 62, 0
1, 24390, Note_on_c, 1, 69, 127
1, 24419, Note_off_c, 1, 41, 0
1, 24419, Note_off_c, 1, 81, 0
1, 24419, Note_off_c, 1, 53, 0
1, 24419, Note_off_c, 1, 69, 0
1, 24420, Note_on_c, 1, 43, 127
1, 24420, Note_on_c, 1, 79, 127
1, 24420, Note_on_c, 1, 58, 127
1, 24420, Note_on_c, 1, 82, 127
1, 24420, Note_on_c, 1, 64, 127
1, 24420, Note_on_c, 1, 74, 127
1, 24420, Note_on_c, 1, 55, 127
1, 24449, Note_off_c, 1, 79, 0
1, 24449, Note_off_c, 1, 58, 0
1, 24449, Note_off_c, 1, 64, 0
1, 24449, Note_off_c, 1, 74, 0
1, 24450, Note_on_c, 1, 77, 127
1, 24450, Note_on_c, 1, 62, 127
1, 24450, Note_on_c, 1, 76, 127
1, 24479, Note_off_c, 1, 43, 0
1, 24479, Note_off_c, 1, 55, 0
1, 24479, Note_off_c, 1, 77, 0
1, 24479, Note_off_c, 1, 62, 0
1, 24479, Note_off_c, 1, 76, 0
1, 24480, Note_on_c, 1, 73, 127
1, 24480, Note_on_c, 1, 69, 127
1, 24480, Note_on_c, 1, 45, 127
1, 24480, Note_on_c, 1, 57, 127
1, 24509, Note_off_c, 1, 82, 0
1, 24510, Note_on_c, 1, 81, 127
1, 24539, Note_off_c, 1, 69, 0
1, 24539, Note_off_c, 1, 81, 0
1, 24599, Note_off_c, 1, 73, 0
1, 24599, Note_off_c, 1, 45, 0
1, 24599, Note_off_c, 1, 57, 0
1, 24600, Note_on_c, 1, 64, 127
1, 24600, Note_on_c, 1, 73, 127
1, 24600, Note_on_c, 1, 76, 127
1, 24600, Note_on_c, 1, 61, 127
1, 24629, Note_off_c, 1, 73, 0
1, 24629, Note_off_c, 1, 61, 0
1, 24630, Note_on_c, 1, 69, 127
1, 24659, Note_off_c, 1, 64, 0
1, 24659, Note_off_c, 1, 76, 0
1, 24659, Note_off_c, 1, 69, 0
1, 24660, Note_on_c, 1, 61, 127
1, 24660, Note_on_c, 1, 57, 127
1, 24660, Note_on_c, 1, 76, 127
1, 24660, Note_on_c, 1, 81, 127
1, 24689, Note_off_c, 1, 76, 0
1, 24690, Note_on_c, 1, 73, 127
1, 24690, Note_on_c, 1, 64, 127
1, 24690, Note_on_c, 1, 69, 127
1, 24719, Note_off_c, 1, 61, 0
1, 24719, Note_off_c, 1, 73, 0
1, 24719, Note_off_c, 1, 69, 0
1, 24720, Note_off_c, 1, 64, 0
1, 24750, Note_on_c, 1, 59, 127
1, 24750, Note_on_c, 1, 79, 127
1, 24779, Note_off_c, 1, 57, 0
1, 24779, Note_off_c, 1, 81, 0
1, 24779, Note_off_c, 1, 79, 0
1, 24780, Note_off_c, 1, 59, 0
1, 24810, Note_on_c, 1, 62, 127
1, 24840, Note_off_c, 1, 62, 0
1, 24900, Note_on_c, 1, 81, 127
1, 24900, Note_on_c, 1, 75, 127
1, 24900, Note_on_c, 1, 72, 127
1, 24900, Note_on_c, 1, 45, 127
1, 24900, Note_on_c, 1, 78, 127
1, 24900, Note_on_c, 1, 57, 127
1, 24900, Note_on_c, 1, 69, 127
1, 24920, Note_on_c, 1, 77, 127
1, 24929, Note_off_c, 1, 78, 0
1, 24929, Note_off_c, 1, 69, 0
1, 24930, Note_on_c, 1, 79, 127
1, 24930, Note_on_c, 1, 70, 127
1, 24939, Note_off_c, 1, 77, 0
1, 24959, Note_off_c, 1, 45, 0
1, 24959, Note_off_c, 1, 57, 0
1, 24959, Note_off_c, 1, 79, 0
1, 24959, Note_off_c, 1, 70, 0
1, 24960, Note_on_c, 1, 43, 127
1, 24960, Note_on_c, 1, 55, 127
1, 25019, Note_off_c, 1, 81, 0
1, 25019, Note_off_c, 1, 75, 0
1, 25019, Note_off_c, 1, 43, 0
1, 25019, Note_off_c, 1, 55, 0
1, 25020, Note_on_c, 1, 42, 127
1, 25020, Note_on_c, 1, 54, 127
1, 25050, Note_on_c, 1, 82, 127
1, 25050, Note_on_c, 1, 74, 127
1, 25050, Note_on_c, 1, 62, 127
1, 25079, Note_off_c, 1, 72, 0
1, 25079, Note_off_c, 1, 42, 0
1, 25079, Note_off_c, 1, 54, 0
1, 25079, Note_off_c, 1, 82, 0
1, 25079, Note_off_c, 1, 74, 0
1, 25079, Note_off_c, 1, 62, 0
1, 25080, Note_on_c, 1, 81, 127
1, 25080, Note_on_c, 1, 84, 127
1, 25080, Note_on_c, 1, 69, 127
1, 25080, Note_on_c, 1, 40, 127
1, 25080, Note_on_c, 1, 52, 127
1, 25080, Note_on_c, 1, 66, 127
1, 25080, Note_on_c, 1, 57, 127
1, 25109, Note_off_c, 1, 81, 0
1, 25109, Note_off_c, 1, 66, 0
1, 25110, Note_on_c, 1, 79, 127
1, 25139, Note_off_c, 1, 84, 0
1, 25139, Note_off_c, 1, 69, 0
1, 25139, Note_off_c, 1, 40, 0
1, 25139, Note_off_c, 1, 52, 0
1, 25139, Note_off_c, 1, 57, 0
1, 25139, Note_off_c, 1, 79, 0
1, 25140, Note_on_c, 1, 81, 127
1, 25140, Note_on_c, 1, 78, 127
1, 25140, Note_on_c, 1, 74, 127
1, 25140, Note_on_c, 1, 38, 127
1, 25140, Note_on_c, 1, 50, 127
1, 25169, Note_off_c, 1, 81, 0
1, 25170, Note_on_c, 1, 72, 127
1, 25199, Note_off_c, 1, 78, 0
1, 25199, Note_off_c, 1, 74, 0
1, 25199, Note_off_c, 1, 38, 0
1, 25199, Note_off_c, 1, 50, 0
1, 25199, Note_off_c, 1, 72, 0
1, 25200, Note_on_c, 1, 82, 127
1, 25200, Note_on_c, 1, 79, 127
1, 25200, Note_on_c, 1, 74, 127
1, 25200, Note_on_c, 1, 43, 127
1, 25200, Note_on_c, 1, 55, 127
1, 25200, Note_on_c, 1, 70, 127
1, 25229, Note_off_c, 1, 70, 0
1, 25259, Note_off_c, 1, 82, 0
1, 25259, Note_off_c, 1, 79, 0
1, 25259, Note_off_c, 1, 74, 0
1, 25259, Note_off_c, 1, 43, 0
1, 25259, Note_off_c, 1, 55, 0
1, 25260, Note_on_c, 1, 55, 127
1, 25260, Note_on_c, 1, 82, 127
1, 25260, Note_on_c, 1, 62, 127
1, 25260, Note_on_c, 1, 67, 127
1, 25260, Note_on_c, 1, 70, 127
1, 25289, Note_off_c, 1, 67, 0
1, 25319, Note_off_c, 1, 55, 0
1, 25319, Note_off_c, 1, 62, 0
1, 25319, Note_off_c, 1, 70, 0
1, 25320, Note_on_c, 1, 53, 127
1, 25320, Note_on_c, 1, 74, 127
1, 25320, Note_on_c, 1, 69, 127
1, 25349, Note_off_c, 1, 74, 0
1, 25379, Note_off_c, 1, 53, 0
1, 25379, Note_off_c, 1, 69, 0
1, 25380, Note_on_c, 1, 72, 127
1, 25380, Note_on_c, 1, 51, 127
1, 25380, Note_on_c, 1, 60, 127
1, 25395, Note_on_c, 1, 81, 127
1, 25409, Note_off_c, 1, 81, 0
1, 25410, Note_on_c, 1, 79, 127
1, 25410, Note_on_c, 1, 75, 127
1, 25424, Note_off_c, 1, 79, 0
1, 25425, Note_on_c, 1, 77, 127
1, 25439, Note_off_c, 1, 82, 0
1, 25439, Note_off_c, 1, 72, 0
1, 25439, Note_off_c, 1, 51, 0
1, 25439, Note_off_c, 1, 60, 0
1, 25439, Note_off_c, 1, 75, 0
1, 25439, Note_off_c, 1, 77, 0
1, 25440, Note_on_c, 1, 48, 127
1, 25440, Note_on_c, 1, 75, 127
1, 25440, Note_on_c, 1, 63, 127
1, 25440, Note_on_c, 1, 67, 127
1, 25440, Note_on_c, 1, 55, 127
1, 25440, Note_on_c, 1, 79, 127
1, 25454, Note_off_c, 1, 75, 0
1, 25455, Note_on_c, 1, 74, 127
1, 25469, Note_off_c, 1, 67, 0
1, 25469, Note_off_c, 1, 74, 0
1, 25470, Note_on_c, 1, 72, 127
1, 25470, Note_on_c, 1, 65, 127
1, 25499, Note_off_c, 1, 48, 0
1, 25499, Note_off_c, 1, 63, 0
1, 25499, Note_off_c, 1, 55, 0
1, 25499, Note_off_c, 1, 72, 0
1, 25499, Note_off_c, 1, 65, 0
1, 25500, Note_on_c, 1, 84, 127
1, 25529, Note_off_c, 1, 84, 0
1, 25530, Note_on_c, 1, 82, 127
1, 25530, Note_on_c, 1, 62, 127
1, 25559, Note_off_c, 1, 82, 0
1, 25559, Note_off_c, 1, 62, 0
1, 25560, Note_on_c, 1, 81, 127
1, 25560, Note_on_c, 1, 60, 127
1, 25590, Note_off_c, 1, 79, 0
1, 25619, Note_off_c, 1, 60, 0
1, 25620, Note_on_c, 1, 53, 127
1, 25620, Note_on_c, 1, 69, 127
1, 25620, Note_on_c, 1, 57, 127
1, 25649, Note_off_c, 1, 69, 0
1, 25679, Note_off_c, 1, 53, 0
1, 25679, Note_off_c, 1, 57, 0
1, 25680, Note_on_c, 1, 51, 127
1, 25680, Note_on_c, 1, 77, 127
1, 25709, Note_off_c, 1, 77, 0
1, 25739, Note_off_c, 1, 51, 0
1, 25740, Note_on_c, 1, 70, 127
1, 25740, Note_on_c, 1, 50, 127
1, 25740, Note_on_c, 1, 58, 127
1, 25799, Note_off_c, 1, 81, 0
1, 25799, Note_off_c, 1, 70, 0
1, 25799, Note_off_c, 1, 50, 0
1, 25799, Note_off_c, 1, 58, 0
1, 25800, Note_on_c, 1, 46, 127
1, 25859, Note_off_c, 1, 46, 0
1, 26160, Note_on_c, 1, 45, 127
1, 26160, Note_on_c, 1, 66, 127
1, 26189, Note_off_c, 1, 66, 0
1, 26219, Note_off_c, 1, 45, 0
1, 26280, Note_on_c, 1, 78, 127
1, 26399, Note_off_c, 1, 78, 0
1, 26400, Note_on_c, 1, 48, 127
1, 26400, Note_on_c, 1, 77, 127
1, 26400, Note_on_c, 1, 65, 127
1, 26400, Note_on_c, 1, 74, 127
1, 26400, Note_on_c, 1, 69, 127
1, 26400, Note_on_c, 1, 62, 127
1, 26429, Note_off_c, 1, 74, 0
1, 26429, Note_off_c, 1, 69, 0
1, 26430, Note_on_c, 1, 72, 127
1, 26459, Note_off_c, 1, 48, 0
1, 26459, Note_off_c, 1, 65, 0
1, 26459, Note_off_c, 1, 72, 0
1, 26460, Note_on_c, 1, 67, 127
1, 26460, Note_on_c, 1, 47, 127
1, 26460, Note_on_c, 1, 55, 127
1, 26475, Note_on_c, 1, 75, 127
1, 26489, Note_off_c, 1, 75, 0
1, 26490, Note_on_c, 1, 71, 127
1, 26519, Note_off_c, 1, 77, 0
1, 26519, Note_off_c, 1, 62, 0
1, 26519, Note_off_c, 1, 67, 0
1, 26519, Note_off_c, 1, 47, 0
1, 26519, Note_off_c, 1, 55, 0
1, 26519, Note_off_c, 1, 71, 0
1, 26520, Note_on_c, 1, 43, 127
1, 26520, Note_on_c, 1, 59, 127
1, 26520, Note_on_c, 1, 50, 127
1, 26550, Note_on_c, 1, 60, 127
1, 26579, Note_off_c, 1, 43, 0
1, 26579, Note_off_c, 1, 59, 0
1, 26579, Note_off_c, 1, 50, 0
1, 26579, Note_off_c, 1, 60, 0
1, 26580, Note_on_c, 1, 79, 127
1, 26609, Note_off_c, 1, 79, 0
1, 26640, Note_on_c, 1, 75, 127
1, 26640, Note_on_c, 1, 67, 127
1, 26640, Note_on_c, 1, 60, 127
1, 26640, Note_on_c, 1, 48, 127
1, 26640, Note_on_c, 1, 72, 127
1, 26670, Note_on_c, 1, 55, 127
1, 26699, Note_off_c, 1, 72, 0
1, 26699, Note_off_c, 1, 55, 0
1, 26730, Note_on_c, 1, 63, 127
1, 26759, Note_off_c, 1, 48, 0
1, 26759, Note_off_c, 1, 63, 0
1, 26760, Note_on_c, 1, 79, 127
1, 26790, Note_on_c, 1, 59, 127
1, 26819, Note_off_c, 1, 79, 0
1, 26819, Note_off_c, 1, 59, 0
1, 26999, Note_off_c, 1, 75, 0
1, 26999, Note_off_c, 1, 67, 0
1, 27000, Note_on_c, 1, 80, 127
1, 27030, Note_on_c, 1, 56, 127
1, 27059, Note_off_c, 1, 56, 0
1, 27060, Note_on_c, 1, 68, 127
1, 27089, Note_off_c, 1, 68, 0
1, 27359, Note_off_c, 1, 80, 0
1, 27360, Note_on_c, 1, 78, 127
1, 27360, Note_on_c, 1, 69, 127
1, 27390, Note_on_c, 1, 57, 127
1, 27419, Note_off_c, 1, 57, 0
1, 27719, Note_off_c, 1, 78, 0
1, 27719, Note_off_c, 1, 69, 0
1, 27720, Note_off_c, 1, 60, 0
1, 27720, Note_on_c, 1, 70, 127
1, 27720, Note_on_c, 1, 61, 127
1, 27720, Note_on_c, 1, 49, 127
1, 27720, Note_on_c, 1, 76, 127
1, 27720, Note_on_c, 1, 58, 127
1, 27749, Note_off_c, 1, 76, 0
1, 27750, Note_on_c, 1, 73, 127
1, 27779, Note_off_c, 1, 49, 0
1, 27779, Note_off_c, 1, 58, 0
1, 27779, Note_off_c, 1, 73, 0
1, 27810, Note_on_c, 1, 64, 127
1, 27839, Note_off_c, 1, 64, 0
1, 28079, Note_off_c, 1, 70, 0
1, 28079, Note_off_c, 1, 61, 0
1, 28080, Note_on_c, 1, 78, 127
1, 28080, Note_on_c, 1, 69, 127
1, 28080, Note_on_c, 1, 62, 127
1, 28080, Note_on_c, 1, 50, 127
1, 28080, Note_on_c, 1, 72, 127
1, 28080, Note_on_c, 1, 81, 127
1, 28110, Note_on_c, 1, 75, 127
1, 28110, Note_on_c, 1, 60, 127
1, 28139, Note_off_c, 1, 50, 0
1, 28139, Note_off_c, 1, 72, 0
1, 28139, Note_off_c, 1, 81, 0
1, 28139, Note_off_c, 1, 75, 0
1, 28139, Note_off_c, 1, 60, 0
1, 28170, Note_on_c, 1, 66, 127
1, 28199, Note_off_c, 1, 66, 0
1, 28230, Note_on_c, 1, 61, 127
1, 28259, Note_off_c, 1, 61, 0
1, 28439, Note_off_c, 1, 78, 0
1, 28439, Note_off_c, 1, 69, 0
1, 28439, Note_off_c, 1, 62, 0
1, 28440, Note_on_c, 1, 82, 127
1, 28440, Note_on_c, 1, 67, 127
1, 28440, Note_on_c, 1, 55, 127
1, 28440, Note_on_c, 1, 50, 127
1, 28440, Note_on_c, 1, 79, 127
1, 28440, Note_on_c, 1, 64, 127
1, 28440, Note_on_c, 1, 73, 127
1, 28469, Note_off_c, 1, 79, 0
1, 28470, Note_on_c, 1, 76, 127
1, 28470, Note_on_c, 1, 61, 127
1, 28499, Note_off_c, 1, 50, 0
1, 28499, Note_off_c, 1, 73, 0
1, 28499, Note_off_c, 1, 76, 0
1, 28499, Note_off_c, 1, 61, 0
1, 28500, Note_on_c, 1, 62, 127
1, 28559, Note_off_c, 1, 64, 0
1, 28559, Note_off_c, 1, 62, 0
1, 28590, Note_on_c, 1, 63, 127
1, 28619, Note_off_c, 1, 67, 0
1, 28619, Note_off_c, 1, 63, 0
1, 28680, Note_on_c, 1, 52, 127
1, 28739, Note_off_c, 1, 52, 0
1, 28799, Note_off_c, 1, 82, 0
1, 28799, Note_off_c, 1, 55, 0
1, 28800, Note_on_c, 1, 81, 127
1, 28800, Note_on_c, 1, 78, 127
1, 28800, Note_on_c, 1, 62, 127
1, 28800, Note_on_c, 1, 50, 127
1, 28800, Note_on_c, 1, 66, 127
1, 28829, Note_off_c, 1, 66, 0
1, 28859, Note_off_c, 1, 50, 0
1, 28860, Note_on_c, 1, 75, 127
1, 28889, Note_off_c, 1, 75, 0
1, 28890, Note_on_c, 1, 69, 127
1, 28919, Note_off_c, 1, 69, 0
1, 28920, Note_on_c, 1, 84, 127
1, 28920, Note_on_c, 1, 74, 127
1, 28950, Note_on_c, 1, 65, 127
1, 28979, Note_off_c, 1, 84, 0
1, 28979, Note_off_c, 1, 74, 0
1, 28979, Note_off_c, 1, 65, 0
1, 28980, Note_on_c, 1, 72, 127
1, 29039, Note_off_c, 1, 72, 0
1, 29159, Note_off_c, 1, 81, 0
1, 29159, Note_off_c, 1, 78, 0
1, 29159, Note_off_c, 1, 62, 0
1, 29160, Note_on_c, 1, 82, 127
1, 29160, Note_on_c, 1, 79, 127
1, 29160, Note_on_c, 1, 62, 127
1, 29160, Note_on_c, 1, 67, 127
1, 29160, Note_on_c, 1, 74, 127
1, 29190, Note_on_c, 1, 78, 127
1, 29219, Note_off_c, 1, 82, 0
1, 29219, Note_off_c, 1, 79, 0
1, 29219, Note_off_c, 1, 62, 0
1, 29219, Note_off_c, 1, 67, 0
1, 29219, Note_off_c, 1, 74, 0
1, 29219, Note_off_c, 1, 78, 0
1, 29220, Note_on_c, 1, 43, 127
1, 29220, Note_on_c, 1, 79, 127
1, 29220, Note_on_c, 1, 55, 127
1, 29220, Note_on_c, 1, 82, 127
1, 29220, Note_on_c, 1, 74, 127
1, 29250, Note_on_c, 1, 77, 127
1, 29264, Note_off_c, 1, 77, 0
1, 29265, Note_on_c, 1, 75, 127
1, 29279, Note_off_c, 1, 43, 0
1, 29279, Note_off_c, 1, 79, 0
1, 29279, Note_off_c, 1, 55, 0
1, 29279, Note_off_c, 1, 82, 0
1, 29279, Note_off_c, 1, 74, 0
1, 29279, Note_off_c, 1, 75, 0
1, 29280, Note_on_c, 1, 81, 127
1, 29280, Note_on_c, 1, 78, 127
1, 29280, Note_on_c, 1, 72, 127
1, 29280, Note_on_c, 1, 45, 127
1, 29280, Note_on_c, 1, 74, 127
1, 29280, Note_on_c, 1, 57, 127
1, 29294, Note_off_c, 1, 74, 0
1, 29310, Note_on_c, 1, 70, 127
1, 29324, Note_off_c, 1, 70, 0
1, 29325, Note_on_c, 1, 69, 127
1, 29339, Note_off_c, 1, 81, 0
1, 29339, Note_off_c, 1, 78, 0
1, 29339, Note_off_c, 1, 72, 0
1, 29339, Note_off_c, 1, 45, 0
1, 29339, Note_off_c, 1, 57, 0
1, 29339, Note_off_c, 1, 69, 0
1, 29340, Note_on_c, 1, 46, 127
1, 29340, Note_on_c, 1, 67, 127
1, 29340, Note_on_c, 1, 58, 127
1, 29340, Note_on_c, 1, 79, 127
1, 29340, Note_on_c, 1, 74, 127
1, 29340, Note_on_c, 1, 82, 127
1, 29369, Note_off_c, 1, 67, 0
1, 29370, Note_on_c, 1, 70, 127
1, 29399, Note_off_c, 1, 46, 0
1, 29399, Note_off_c, 1, 58, 0
1, 29399, Note_off_c, 1, 79, 0
1, 29399, Note_off_c, 1, 74, 0
1, 29399, Note_off_c, 1, 82, 0
1, 29399, Note_off_c, 1, 70, 0
1, 29400, Note_on_c, 1, 46, 127
1, 29400, Note_on_c, 1, 74, 127
1, 29400, Note_on_c, 1, 58, 127
1, 29400, Note_on_c, 1, 79, 127
1, 29400, Note_on_c, 1, 70, 127
1, 29459, Note_off_c, 1, 46, 0
1, 29459, Note_off_c, 1, 74, 0
1, 29459, Note_off_c, 1, 58, 0
1, 29459, Note_off_c, 1, 79, 0
1, 29459, Note_off_c, 1, 70, 0
1, 29460, Note_on_c, 1, 79, 127
1, 29460, Note_on_c, 1, 75, 127
1, 29460, Note_on_c, 1, 69, 127
1, 29460, Note_on_c, 1, 48, 127
1, 29460, Note_on_c, 1, 60, 127
1, 29519, Note_off_c, 1, 79, 0
1, 29519, Note_off_c, 1, 75, 0
1, 29519, Note_off_c, 1, 69, 0
1, 29519, Note_off_c, 1, 48, 0
1, 29519, Note_off_c, 1, 60, 0
1, 29520, Note_on_c, 1, 50, 127
1, 29520, Note_on_c, 1, 78, 127
1, 29520, Note_on_c, 1, 62, 127
1, 29520, Note_on_c, 1, 69, 127
1, 29520, Note_on_c, 1, 74, 127
1, 29579, Note_off_c, 1, 50, 0
1, 29579, Note_off_c, 1, 78, 0
1, 29579, Note_off_c, 1, 62, 0
1, 29579, Note_off_c, 1, 69, 0
1, 29579, Note_off_c, 1, 74, 0
1, 29580, Note_on_c, 1, 50, 127
1, 29580, Note_on_c, 1, 72, 127
1, 29580, Note_on_c, 1, 62, 127
1, 29580, Note_on_c, 1, 74, 127
1, 29580, Note_on_c, 1, 78, 127
1, 29580, Note_on_c, 1, 69, 127
1, 29609, Note_off_c, 1, 72, 0
1, 29610, Note_on_c, 1, 70, 127
1, 29639, Note_off_c, 1, 50, 0
1, 29639, Note_off_c, 1, 62, 0
1, 29639, Note_off_c, 1, 74, 0
1, 29639, Note_off_c, 1, 78, 0
1, 29639, Note_off_c, 1, 69, 0
1, 29639, Note_off_c, 1, 70, 0
1, 29640, Note_on_c, 1, 79, 127
1, 29640, Note_on_c, 1, 72, 127
1, 29640, Note_on_c, 1, 67, 127
1, 29640, Note_on_c, 1, 51, 127
1, 29640, Note_on_c, 1, 63, 127
1, 29699, Note_off_c, 1, 79, 0
1, 29699, Note_off_c, 1, 72, 0
1, 29699, Note_off_c, 1, 67, 0
1, 29699, Note_off_c, 1, 51, 0
1, 29699, Note_off_c, 1, 63, 0
1, 29700, Note_on_c, 1, 50, 127
1, 29700, Note_on_c, 1, 66, 127
1, 29700, Note_on_c, 1, 62, 127
1, 29700, Note_on_c, 1, 69, 127
1, 29700, Note_on_c, 1, 74, 127
1, 29700, Note_on_c, 1, 78, 127
1, 29729, Note_off_c, 1, 66, 0
1, 29759, Note_off_c, 1, 50, 0
1, 29759, Note_off_c, 1, 62, 0
1, 29759, Note_off_c, 1, 69, 0
1, 29759, Note_off_c, 1, 74, 0
1, 29759, Note_off_c, 1, 78, 0
1, 29760, Note_on_c, 1, 48, 127
1, 29760, Note_on_c, 1, 72, 127
1, 29760, Note_on_c, 1, 60, 127
1, 29760, Note_on_c, 1, 74, 127
1, 29760, Note_on_c, 1, 69, 127
1, 29760, Note_on_c, 1, 78, 127
1, 29789, Note_off_c, 1, 48, 0
1, 29789, Note_off_c, 1, 72, 0
1, 29789, Note_off_c, 1, 60, 0
1, 29790, Note_on_c, 1, 46, 127
1, 29790, Note_on_c, 1, 75, 127
1, 29790, Note_on_c, 1, 58, 127
1, 29819, Note_off_c, 1, 74, 0
1, 29819, Note_off_c, 1, 69, 0
1, 29819, Note_off_c, 1, 78, 0
1, 29819, Note_off_c, 1, 46, 0
1, 29819, Note_off_c, 1, 75, 0
1, 29819, Note_off_c, 1, 58, 0
1, 29820, Note_on_c, 1, 79, 127
1, 29820, Note_on_c, 1, 75, 127
1, 29820, Note_on_c, 1, 72, 127
1, 29820, Note_on_c, 1, 45, 127
1, 29820, Note_on_c, 1, 57, 127
1, 29849, Note_off_c, 1, 45, 0
1, 29849, Note_off_c, 1, 57, 0
1, 29850, Note_on_c, 1, 43, 127
1, 29850, Note_on_c, 1, 69, 127
1, 29850, Note_on_c, 1, 55, 127
1, 29879, Note_off_c, 1, 79, 0
1, 29879, Note_off_c, 1, 75, 0
1, 29879, Note_off_c, 1, 72, 0
1, 29879, Note_off_c, 1, 43, 0
1, 29879, Note_off_c, 1, 69, 0
1, 29879, Note_off_c, 1, 55, 0
1, 29880, Note_on_c, 1, 42, 127
1, 29880, Note_on_c, 1, 63, 127
1, 29880, Note_on_c, 1, 54, 127
1, 29880, Note_on_c, 1, 72, 127
1, 29880, Note_on_c, 1, 81, 127
1, 29880, Note_on_c, 1, 75, 127
1, 29909, Note_off_c, 1, 63, 0
1, 29910, Note_on_c, 1, 66, 127
1, 29939, Note_off_c, 1, 42, 0
1, 29939, Note_off_c, 1, 54, 0
1, 29939, Note_off_c, 1, 72, 0
1, 29939, Note_off_c, 1, 81, 0
1, 29939, Note_off_c, 1, 75, 0
1, 29939, Note_off_c, 1, 66, 0
1, 29940, Note_on_c, 1, 38, 127
1, 29940, Note_on_c, 1, 69, 127
1, 29940, Note_on_c, 1, 50, 127
1, 29940, Note_on_c, 1, 81, 127
1, 29940, Note_on_c, 1, 78, 127
1, 29940, Note_on_c, 1, 74, 127
1, 29969, Note_off_c, 1, 38, 0
1, 29969, Note_off_c, 1, 69, 0
1, 29969, Note_off_c, 1, 50, 0
1, 29970, Note_on_c, 1, 40, 127
1, 29970, Note_on_c, 1, 72, 127
1, 29970, Note_on_c, 1, 52, 127
1, 29999, Note_off_c, 1, 81, 0
1, 29999, Note_off_c, 1, 78, 0
1, 29999, Note_off_c, 1, 74, 0
1, 29999, Note_off_c, 1, 40, 0
1, 29999, Note_off_c, 1, 72, 0
1, 29999, Note_off_c, 1, 52, 0
1, 30000, Note_on_c, 1, 81, 127
1, 30000, Note_on_c, 1, 74, 127
1, 30000, Note_on_c, 1, 72, 127
1, 30000, Note_on_c, 1, 42, 127
1, 30000, Note_on_c, 1, 69, 127
1, 30000, Note_on_c, 1, 54, 127
1, 30029, Note_off_c, 1, 42, 0
1, 30029, Note_off_c, 1, 69, 0
1, 30029, Note_off_c, 1, 54, 0
1, 30030, Note_on_c, 1, 43, 127
1, 30030, Note_on_c, 1, 66, 127
1, 30030, Note_on_c, 1, 55, 127
1, 30059, Note_off_c, 1, 81, 0
1, 30059, Note_off_c, 1, 74, 0
1, 30059, Note_off_c, 1, 72, 0
1, 30059, Note_off_c, 1, 43, 0
1, 30059, Note_off_c, 1, 66, 0
1, 30059, Note_off_c, 1, 55, 0
1, 30060, Note_on_c, 1, 45, 127
1, 30060, Note_on_c, 1, 63, 127
1, 30060, Note_on_c, 1, 57, 127
1, 30060, Note_on_c, 1, 72, 127
1, 30060, Note_on_c, 1, 69, 127
1, 30060, Note_on_c, 1, 78, 127
1, 30089, Note_off_c, 1, 63, 0
1, 30090, Note_on_c, 1, 66, 127
1, 30119, Note_off_c, 1, 45, 0
1, 30119, Note_off_c, 1, 57, 0
1, 30119, Note_off_c, 1, 72, 0
1, 30119, Note_off_c, 1, 69, 0
1, 30119, Note_off_c, 1, 78, 0
1, 30119, Note_off_c, 1, 66, 0
1, 30120, Note_on_c, 1, 45, 127
1, 30120, Note_on_c, 1, 69, 127
1, 30120, Note_on_c, 1, 57, 127
1, 30120, Note_on_c, 1, 78, 127
1, 30120, Note_on_c, 1, 72, 127
1, 30179, Note_off_c, 1, 45, 0
1, 30179, Note_off_c, 1, 69, 0
1, 30179, Note_off_c, 1, 57, 0
1, 30179, Note_off_c, 1, 78, 0
1, 30179, Note_off_c, 1, 72, 0
1, 30180, Note_on_c, 1, 79, 127
1, 30180, Note_on_c, 1, 74, 127
1, 30180, Note_on_c, 1, 70, 127
1, 30180, Note_on_c, 1, 46, 127
1, 30180, Note_on_c, 1, 67, 127
1, 30180, Note_on_c, 1, 58, 127
1, 30209, Note_off_c, 1, 67, 0
1, 30239, Note_off_c, 1, 79, 0
1, 30239, Note_off_c, 1, 74, 0
1, 30239, Note_off_c, 1, 70, 0
1, 30239, Note_off_c, 1, 46, 0
1, 30239, Note_off_c, 1, 58, 0
1, 30240, Note_on_c, 1, 45, 127
1, 30240, Note_on_c, 1, 60, 127
1, 30240, Note_on_c, 1, 57, 127
1, 30240, Note_on_c, 1, 72, 127
1, 30240, Note_on_c, 1, 69, 127
1, 30240, Note_on_c, 1, 78, 127
1, 30269, Note_off_c, 1, 60, 0
1, 30270, Note_on_c, 1, 63, 127
1, 30299, Note_off_c, 1, 45, 0
1, 30299, Note_off_c, 1, 57, 0
1, 30299, Note_off_c, 1, 72, 0
1, 30299, Note_off_c, 1, 69, 0
1, 30299, Note_off_c, 1, 78, 0
1, 30299, Note_off_c, 1, 63, 0
1, 30300, Note_on_c, 1, 38, 127
1, 30300, Note_on_c, 1, 66, 127
1, 30300, Note_on_c, 1, 50, 127
1, 30300, Note_on_c, 1, 78, 127
1, 30300, Note_on_c, 1, 72, 127
1, 30300, Note_on_c, 1, 69, 127
1, 30329, Note_off_c, 1, 38, 0
1, 30329, Note_off_c, 1, 66, 0
1, 30329, Note_off_c, 1, 50, 0
1, 30330, Note_on_c, 1, 40, 127
1, 30330, Note_on_c, 1, 52, 127
1, 30359, Note_off_c, 1, 78, 0
1, 30359, Note_off_c, 1, 72, 0
1, 30359, Note_off_c, 1, 69, 0
1, 30359, Note_off_c, 1, 40, 0
1, 30359, Note_off_c, 1, 52, 0
1, 30360, Note_on_c, 1, 81, 127
1, 30360, Note_on_c, 1, 75, 127
1, 30360, Note_on_c, 1, 72, 127
1, 30360, Note_on_c, 1, 42, 127
1, 30360, Note_on_c, 1, 66, 127
1, 30360, Note_on_c, 1, 54, 127
1, 30389, Note_off_c, 1, 42, 0
1, 30389, Note_off_c, 1, 66, 0
1, 30389, Note_off_c, 1, 54, 0
1, 30390, Note_on_c, 1, 43, 127
1, 30390, Note_on_c, 1, 63, 127
1, 30390, Note_on_c, 1, 55, 127
1, 30419, Note_off_c, 1, 81, 0
1, 30419, Note_off_c, 1, 75, 0
1, 30419, Note_off_c, 1, 72, 0
1, 30419, Note_off_c, 1, 43, 0
1, 30419, Note_off_c, 1, 63, 0
1, 30419, Note_off_c, 1, 55, 0
1, 30420, Note_on_c, 1, 45, 127
1, 30420, Note_on_c, 1, 60, 127
1, 30420, Note_on_c, 1, 57, 127
1, 30420, Note_on_c, 1, 72, 127
1, 30420, Note_on_c, 1, 69, 127
1, 30420, Note_on_c, 1, 78, 127
1, 30449, Note_off_c, 1, 60, 0
1, 30450, Note_on_c, 1, 63, 127
1, 30479, Note_off_c, 1, 45, 0
1, 30479, Note_off_c, 1, 57, 0
1, 30479, Note_off_c, 1, 72, 0
1, 30479, Note_off_c, 1, 69, 0
1, 30479, Note_off_c, 1, 78, 0
1, 30479, Note_off_c, 1, 63, 0
1, 30480, Note_on_c, 1, 45, 127
1, 30480, Note_on_c, 1, 66, 127
1, 30480, Note_on_c, 1, 57, 127
1, 30480, Note_on_c, 1, 78, 127
1, 30480, Note_on_c, 1, 72, 127
1, 30480, Note_on_c, 1, 69, 127
1, 30509, Note_off_c, 1, 66, 0
1, 30539, Note_off_c, 1, 45, 0
1, 30539, Note_off_c, 1, 57, 0
1, 30539, Note_off_c, 1, 78, 0
1, 30539, Note_off_c, 1, 72, 0
1, 30539, Note_off_c, 1, 69, 0
1, 30540, Note_on_c, 1, 79, 127
1, 30540, Note_on_c, 1, 74, 127
1, 30540, Note_on_c, 1, 70, 127
1, 30540, Note_on_c, 1, 46, 127
1, 30540, Note_on_c, 1, 62, 127
1, 30540, Note_on_c, 1, 58, 127
1, 30569, Note_off_c, 1, 62, 0
1, 30570, Note_on_c, 1, 67, 127
1, 30599, Note_off_c, 1, 79, 0
1, 30599, Note_off_c, 1, 74, 0
1, 30599, Note_off_c, 1, 70, 0
1, 30599, Note_off_c, 1, 46, 0
1, 30599, Note_off_c, 1, 58, 0
1, 30599, Note_off_c, 1, 67, 0
1, 30600, Note_on_c, 1, 45, 127
1, 30600, Note_on_c, 1, 63, 127
1, 30600, Note_on_c, 1, 57, 127
1, 30600, Note_on_c, 1, 69, 127
1, 30600, Note_on_c, 1, 72, 127
1, 30600, Note_on_c, 1, 78, 127
1, 30629, Note_off_c, 1, 63, 0
1, 30629, Note_off_c, 1, 78, 0
1, 30630, Note_on_c, 1, 60, 127
1, 30630, Note_on_c, 1, 79, 127
1, 30659, Note_off_c, 1, 45, 0
1, 30659, Note_off_c, 1, 57, 0
1, 30659, Note_off_c, 1, 69, 0
1, 30659, Note_off_c, 1, 60, 0
1, 30659, Note_off_c, 1, 79, 0
1, 30660, Note_on_c, 1, 74, 127
1, 30660, Note_on_c, 1, 62, 127
1, 30660, Note_on_c, 1, 42, 127
1, 30660, Note_on_c, 1, 81, 127
1, 30660, Note_on_c, 1, 54, 127
1, 30689, Note_off_c, 1, 74, 0
1, 30719, Note_off_c, 1, 62, 0
1, 30719, Note_off_c, 1, 42, 0
1, 30719, Note_off_c, 1, 81, 0
1, 30719, Note_off_c, 1, 54, 0
1, 30720, Note_on_c, 1, 38, 127
1, 30720, Note_on_c, 1, 50, 127
1, 30720, Note_on_c, 1, 66, 127
1, 30779, Note_off_c, 1, 72, 0
1, 30779, Note_off_c, 1, 38, 0
1, 30779, Note_off_c, 1, 50, 0
1, 30779, Note_off_c, 1, 66, 0
1, 30780, Note_on_c, 1, 43, 127
1, 30780, Note_on_c, 1, 58, 127
1, 30780, Note_on_c, 1, 55, 127
1, 30780, Note_on_c, 1, 70, 127
1, 30780, Note_on_c, 1, 62, 127
1, 30780, Note_on_c, 1, 79, 127
1, 30809, Note_off_c, 1, 58, 0
1, 30809, Note_off_c, 1, 79, 0
1, 30810, Note_on_c, 1, 78, 127
1, 30839, Note_off_c, 1, 43, 0
1, 30839, Note_off_c, 1, 55, 0
1, 30839, Note_off_c, 1, 62, 0
1, 30839, Note_off_c, 1, 78, 0
1, 30840, Note_on_c, 1, 75, 127
1, 30840, Note_on_c, 1, 67, 127
1, 30840, Note_on_c, 1, 39, 127
1, 30840, Note_on_c, 1, 51, 127
1, 30869, Note_off_c, 1, 75, 0
1, 30870, Note_on_c, 1, 74, 127
1, 30899, Note_off_c, 1, 67, 0
1, 30899, Note_off_c, 1, 39, 0
1, 30899, Note_off_c, 1, 51, 0
1, 30899, Note_off_c, 1, 74, 0
1, 30900, Note_on_c, 1, 36, 127
1, 30900, Note_on_c, 1, 60, 127
1, 30900, Note_on_c, 1, 48, 127
1, 30929, Note_off_c, 1, 60, 0
1, 30930, Note_on_c, 1, 63, 127
1, 30959, Note_off_c, 1, 70, 0
1, 30959, Note_off_c, 1, 36, 0
1, 30959, Note_off_c, 1, 48, 0
1, 30959, Note_off_c, 1, 63, 0
1, 30960, Note_on_c, 1, 41, 127
1, 30960, Note_on_c, 1, 57, 127
1, 30960, Note_on_c, 1, 53, 127
1, 30960, Note_on_c, 1, 72, 127
1, 30960, Note_on_c, 1, 69, 127
1, 30960, Note_on_c, 1, 77, 127
1, 30989, Note_off_c, 1, 57, 0
1, 30989, Note_off_c, 1, 77, 0
1, 30990, Note_on_c, 1, 60, 127
1, 30990, Note_on_c, 1, 76, 127
1, 31019, Note_off_c, 1, 41, 0
1, 31019, Note_off_c, 1, 53, 0
1, 31019, Note_off_c, 1, 72, 0
1, 31019, Note_off_c, 1, 60, 0
1, 31019, Note_off_c, 1, 76, 0
1, 31020, Note_on_c, 1, 65, 127
1, 31050, Note_on_c, 1, 75, 127
1, 31050, Note_on_c, 1, 55, 127
1, 31079, Note_off_c, 1, 65, 0
1, 31079, Note_off_c, 1, 75, 0
1, 31079, Note_off_c, 1, 55, 0
1, 31080, Note_off_c, 1, 69, 0
1, 31080, Note_on_c, 1, 68, 127
1, 31080, Note_on_c, 1, 51, 127
1, 31080, Note_on_c, 1, 62, 127
1, 31109, Note_off_c, 1, 62, 0
1, 31110, Note_on_c, 1, 63, 127
1, 31139, Note_off_c, 1, 68, 0
1, 31139, Note_off_c, 1, 51, 0
1, 31139, Note_off_c, 1, 63, 0
1, 31140, Note_on_c, 1, 50, 127
1, 31140, Note_on_c, 1, 65, 127
1, 31140, Note_on_c, 1, 71, 127
1, 31140, Note_on_c, 1, 68, 127
1, 31170, Note_on_c, 1, 62, 127
1, 31170, Note_on_c, 1, 72, 127
1, 31199, Note_off_c, 1, 50, 0
1, 31199, Note_off_c, 1, 71, 0
1, 31199, Note_off_c, 1, 68, 0
1, 31199, Note_off_c, 1, 62, 0
1, 31199, Note_off_c, 1, 72, 0
1, 31200, Note_on_c, 1, 79, 127
1, 31200, Note_on_c, 1, 67, 127
1, 31200, Note_on_c, 1, 59, 127
1, 31200, Note_on_c, 1, 55, 127
1, 31200, Note_on_c, 1, 74, 127
1, 31229, Note_off_c, 1, 79, 0
1, 31230, Note_on_c, 1, 77, 127
1, 31259, Note_off_c, 1, 67, 0
1, 31259, Note_off_c, 1, 59, 0
1, 31259, Note_off_c, 1, 55, 0
1, 31259, Note_off_c, 1, 74, 0
1, 31259, Note_off_c, 1, 77, 0
1, 31260, Note_off_c, 1, 65, 0
1, 31260, Note_on_c, 1, 43, 127
1, 31260, Note_on_c, 1, 47, 127
1, 31289, Note_off_c, 1, 47, 0
1, 31319, Note_off_c, 1, 43, 0
1, 31320, Note_on_c, 1, 48, 127
1, 31320, Note_on_c, 1, 63, 127
1, 31320, Note_on_c, 1, 72, 127
1, 31320, Note_on_c, 1, 67, 127
1, 31350, Note_on_c, 1, 71, 127
1, 31379, Note_off_c, 1, 48, 0
1, 31379, Note_off_c, 1, 72, 0
1, 31379, Note_off_c, 1, 67, 0
1, 31379, Note_off_c, 1, 71, 0
1, 31380, Note_on_c, 1, 75, 127
1, 31380, Note_on_c, 1, 60, 127
1, 31380, Note_on_c, 1, 36, 127
1, 31409, Note_off_c, 1, 75, 0
1, 31410, Note_on_c, 1, 74, 127
1, 31410, Note_on_c, 1, 50, 127
1, 31439, Note_off_c, 1, 60, 0
1, 31439, Note_off_c, 1, 36, 0
1, 31439, Note_off_c, 1, 74, 0
1, 31439, Note_off_c, 1, 50, 0
1, 31440, Note_off_c, 1, 63, 0
1, 31440, Note_on_c, 1, 55, 127
1, 31440, Note_on_c, 1, 58, 127
1, 31440, Note_on_c, 1, 69, 127
1, 31440, Note_on_c, 1, 46, 127
1, 31469, Note_off_c, 1, 69, 0
1, 31470, Note_on_c, 1, 70, 127
1, 31499, Note_off_c, 1, 55, 0
1, 31499, Note_off_c, 1, 58, 0
1, 31499, Note_off_c, 1, 46, 0
1, 31499, Note_off_c, 1, 70, 0
1, 31500, Note_on_c, 1, 57, 127
1, 31500, Note_on_c, 1, 72, 127
1, 31500, Note_on_c, 1, 45, 127
1, 31500, Note_on_c, 1, 66, 127
1, 31500, Note_on_c, 1, 75, 127
1, 31500, Note_on_c, 1, 78, 127
1, 31529, Note_off_c, 1, 78, 0
1, 31530, Note_on_c, 1, 69, 127
1, 31530, Note_on_c, 1, 79, 127
1, 31559, Note_off_c, 1, 57, 0
1, 31559, Note_off_c, 1, 45, 0
1, 31559, Note_off_c, 1, 66, 0
1, 31559, Note_off_c, 1, 75, 0
1, 31559, Note_off_c, 1, 69, 0
1, 31559, Note_off_c, 1, 79, 0
1, 31560, Note_on_c, 1, 74, 127
1, 31560, Note_on_c, 1, 62, 127
1, 31560, Note_on_c, 1, 81, 127
1, 31560, Note_on_c, 1, 50, 127
1, 31589, Note_off_c, 1, 74, 0
1, 31619, Note_off_c, 1, 62, 0
1, 31619, Note_off_c, 1, 81, 0
1, 31619, Note_off_c, 1, 50, 0
1, 31620, Note_on_c, 1, 42, 127
1, 31620, Note_on_c, 1, 38, 127
1, 31649, Note_off_c, 1, 42, 0
1, 31679, Note_off_c, 1, 72, 0
1, 31679, Note_off_c, 1, 38, 0
1, 31680, Note_on_c, 1, 43, 127
1, 31680, Note_on_c, 1, 70, 127
1, 31680, Note_on_c, 1, 74, 127
1, 31680, Note_on_c, 1, 79, 127
1, 31709, Note_off_c, 1, 79, 0
1, 31710, Note_on_c, 1, 78, 127
1, 31739, Note_off_c, 1, 43, 0
1, 31739, Note_off_c, 1, 74, 0
1, 31739, Note_off_c, 1, 78, 0
1, 31740, Note_on_c, 1, 67, 127
1, 31740, Note_on_c, 1, 62, 127
1, 31740, Note_on_c, 1, 55, 127
1, 31769, Note_off_c, 1, 67, 0
1, 31770, Note_on_c, 1, 69, 127
1, 31770, Note_on_c, 1, 66, 127
1, 31799, Note_off_c, 1, 62, 0
1, 31799, Note_off_c, 1, 55, 0
1, 31799, Note_off_c, 1, 69, 0
1, 31799, Note_off_c, 1, 66, 0
1, 31800, Note_on_c, 1, 53, 127
1, 31800, Note_on_c, 1, 76, 127
1, 31829, Note_off_c, 1, 76, 0
1, 31830, Note_on_c, 1, 77, 127
1, 31830, Note_on_c, 1, 65, 127
1, 31859, Note_off_c, 1, 70, 0
1, 31859, Note_off_c, 1, 53, 0
1, 31859, Note_off_c, 1, 77, 0
1, 31859, Note_off_c, 1, 65, 0
1, 31860, Note_on_c, 1, 52, 127
1, 31860, Note_on_c, 1, 79, 127
1, 31860, Note_on_c, 1, 64, 127
1, 31860, Note_on_c, 1, 73, 127
1, 31860, Note_on_c, 1, 70, 127
1, 31860, Note_on_c, 1, 67, 127
1, 31889, Note_off_c, 1, 79, 0
1, 31889, Note_off_c, 1, 64, 0
1, 31890, Note_on_c, 1, 76, 127
1, 31890, Note_on_c, 1, 74, 127
1, 31919, Note_off_c, 1, 52, 0
1, 31919, Note_off_c, 1, 73, 0
1, 31919, Note_off_c, 1, 70, 0
1, 31919, Note_off_c, 1, 76, 0
1, 31919, Note_off_c, 1, 74, 0
1, 31920, Note_on_c, 1, 69, 127
1, 31920, Note_on_c, 1, 57, 127
1, 31949, Note_off_c, 1, 69, 0
1, 31979, Note_off_c, 1, 57, 0
1, 31980, Note_on_c, 1, 61, 127
1, 31980, Note_on_c, 1, 45, 127
1, 32039, Note_off_c, 1, 67, 0
1, 32039, Note_off_c, 1, 61, 0
1, 32039, Note_off_c, 1, 45, 0
1, 32040, Note_on_c, 1, 50, 127
1, 32040, Note_on_c, 1, 77, 127
1, 32040, Note_on_c, 1, 62, 127
1, 32040, Note_on_c, 1, 69, 127
1, 32040, Note_on_c, 1, 74, 127
1, 32040, Note_on_c, 1, 65, 127
1, 32069, Note_off_c, 1, 62, 0
1, 32069, Note_off_c, 1, 74, 0
1, 32070, Note_on_c, 1, 81, 127
1, 32070, Note_on_c, 1, 73, 127
1, 32099, Note_off_c, 1, 50, 0
1, 32099, Note_off_c, 1, 77, 0
1, 32099, Note_off_c, 1, 69, 0
1, 32099, Note_off_c, 1, 81, 0
1, 32099, Note_off_c, 1, 73, 0
1, 32100, Note_on_c, 1, 57, 127
1, 32100, Note_on_c, 1, 53, 127
1, 32159, Note_off_c, 1, 65, 0
1, 32159, Note_off_c, 1, 57, 0
1, 32159, Note_off_c, 1, 53, 0
1, 32160, Note_on_c, 1, 74, 127
1, 32160, Note_on_c, 1, 65, 127
1, 32160, Note_on_c, 1, 53, 127
1, 32160, Note_on_c, 1, 50, 127
1, 32160, Note_on_c, 1, 78, 127
1, 32160, Note_on_c, 1, 77, 127
1, 32160, Note_on_c, 1, 72, 127
1, 32189, Note_off_c, 1, 78, 0
1, 32190, Note_on_c, 1, 63, 127
1, 32219, Note_off_c, 1, 74, 0
1, 32219, Note_off_c, 1, 65, 0
1, 32219, Note_off_c, 1, 53, 0
1, 32219, Note_off_c, 1, 50, 0
1, 32219, Note_off_c, 1, 77, 0
1, 32219, Note_off_c, 1, 72, 0
1, 32219, Note_off_c, 1, 63, 0
1, 32220, Note_on_c, 1, 55, 127
1, 32220, Note_on_c, 1, 71, 127
1, 32220, Note_on_c, 1, 62, 127
1, 32220, Note_on_c, 1, 77, 127
1, 32220, Note_on_c, 1, 67, 127
1, 32220, Note_on_c, 1, 74, 127
1, 32249, Note_off_c, 1, 62, 0
1, 32249, Note_off_c, 1, 67, 0
1, 32250, Note_on_c, 1, 65, 127
1, 32250, Note_on_c, 1, 68, 127
1, 32279, Note_off_c, 1, 55, 0
1, 32279, Note_off_c, 1, 71, 0
1, 32279, Note_off_c, 1, 77, 0
1, 32279, Note_off_c, 1, 65, 0
1, 32279, Note_off_c, 1, 68, 0
1, 32280, Note_on_c, 1, 43, 127
1, 32280, Note_on_c, 1, 47, 127
1, 32310, Note_on_c, 1, 69, 127
1, 32339, Note_off_c, 1, 43, 0
1, 32339, Note_off_c, 1, 47, 0
1, 32339, Note_off_c, 1, 69, 0
1, 32340, Note_on_c, 1, 59, 127
1, 32340, Note_on_c, 1, 79, 127
1, 32369, Note_off_c, 1, 79, 0
1, 32399, Note_off_c, 1, 74, 0
1, 32399, Note_off_c, 1, 59, 0
1, 32400, Note_on_c, 1, 48, 127
1, 32400, Note_on_c, 1, 75, 127
1, 32400, Note_on_c, 1, 60, 127
1, 32400, Note_on_c, 1, 67, 127
1, 32400, Note_on_c, 1, 72, 127
1, 32400, Note_on_c, 1, 63, 127
1, 32429, Note_off_c, 1, 60, 0
1, 32429, Note_off_c, 1, 72, 0
1, 32430, Note_on_c, 1, 79, 127
1, 32430, Note_on_c, 1, 71, 127
1, 32459, Note_off_c, 1, 48, 0
1, 32459, Note_off_c, 1, 75, 0
1, 32459, Note_off_c, 1, 67, 0
1, 32459, Note_off_c, 1, 79, 0
1, 32459, Note_off_c, 1, 71, 0
1, 32460, Note_on_c, 1, 55, 127
1, 32460, Note_on_c, 1, 51, 127
1, 32519, Note_off_c, 1, 55, 0
1, 32519, Note_off_c, 1, 51, 0
1, 32520, Note_on_c, 1, 76, 127
1, 32520, Note_on_c, 1, 70, 127
1, 32550, Note_on_c, 1, 62, 127
1, 32579, Note_off_c, 1, 63, 0
1, 32579, Note_off_c, 1, 76, 0
1, 32579, Note_off_c, 1, 70, 0
1, 32579, Note_off_c, 1, 62, 0
1, 32580, Note_on_c, 1, 53, 127
1, 32580, Note_on_c, 1, 69, 127
1, 32580, Note_on_c, 1, 60, 127
1, 32580, Note_on_c, 1, 75, 127
1, 32580, Note_on_c, 1, 65, 127
1, 32580, Note_on_c, 1, 72, 127
1, 32609, Note_off_c, 1, 60, 0
1, 32609, Note_off_c, 1, 65, 0
1, 32610, Note_on_c, 1, 63, 127
1, 32610, Note_on_c, 1, 67, 127
1, 32639, Note_off_c, 1, 53, 0
1, 32639, Note_off_c, 1, 69, 0
1, 32639, Note_off_c, 1, 75, 0
1, 32639, Note_off_c, 1, 63, 0
1, 32639, Note_off_c, 1, 67, 0
1, 32640, Note_on_c, 1, 41, 127
1, 32640, Note_on_c, 1, 45, 127
1, 32699, Note_off_c, 1, 41, 0
1, 32699, Note_off_c, 1, 45, 0
1, 32700, Note_on_c, 1, 57, 127
1, 32700, Note_on_c, 1, 77, 127
1, 32729, Note_off_c, 1, 77, 0
1, 32759, Note_off_c, 1, 72, 0
1, 32759, Note_off_c, 1, 57, 0
1, 32760, Note_on_c, 1, 46, 127
1, 32760, Note_on_c, 1, 74, 127
1, 32760, Note_on_c, 1, 58, 127
1, 32760, Note_on_c, 1, 65, 127
1, 32760, Note_on_c, 1, 70, 127
1, 32760, Note_on_c, 1, 62, 127
1, 32789, Note_off_c, 1, 58, 0
1, 32789, Note_off_c, 1, 70, 0
1, 32790, Note_on_c, 1, 77, 127
1, 32790, Note_on_c, 1, 69, 127
1, 32819, Note_off_c, 1, 46, 0
1, 32819, Note_off_c, 1, 74, 0
1, 32819, Note_off_c, 1, 65, 0
1, 32819, Note_off_c, 1, 77, 0
1, 32819, Note_off_c, 1, 69, 0
1, 32820, Note_on_c, 1, 50, 127
1, 32820, Note_on_c, 1, 53, 127
1, 32849, Note_off_c, 1, 53, 0
1, 32879, Note_off_c, 1, 62, 0
1, 32879, Note_off_c, 1, 50, 0
1, 32880, Note_on_c, 1, 70, 127
1, 32880, Note_on_c, 1, 62, 127
1, 32880, Note_on_c, 1, 53, 127
1, 32880, Note_on_c, 1, 46, 127
1, 32880, Note_on_c, 1, 77, 127
1, 32880, Note_on_c, 1, 74, 127
1, 32880, Note_on_c, 1, 65, 127
1, 32909, Note_off_c, 1, 77, 0
1, 32910, Note_on_c, 1, 68, 127
1, 32910, Note_on_c, 1, 60, 127
1, 32939, Note_off_c, 1, 70, 0
1, 32939, Note_off_c, 1, 62, 0
1, 32939, Note_off_c, 1, 53, 0
1, 32939, Note_off_c, 1, 46, 0
1, 32939, Note_off_c, 1, 74, 0
1, 32939, Note_off_c, 1, 65, 0
1, 32939, Note_off_c, 1, 68, 0
1, 32939, Note_off_c, 1, 60, 0
1, 32940, Note_on_c, 1, 51, 127
1, 32940, Note_on_c, 1, 67, 127
1, 32940, Note_on_c, 1, 58, 127
1, 32940, Note_on_c, 1, 73, 127
1, 32940, Note_on_c, 1, 70, 127
1, 32970, Note_on_c, 1, 66, 127
1, 32999, Note_off_c, 1, 51, 0
1, 32999, Note_off_c, 1, 67, 0
1, 32999, Note_off_c, 1, 58, 0
1, 32999, Note_off_c, 1, 73, 0
1, 32999, Note_off_c, 1, 66, 0
1, 33000, Note_on_c, 1, 63, 127
1, 33000, Note_on_c, 1, 55, 127
1, 33000, Note_on_c, 1, 43, 127
1, 33059, Note_off_c, 1, 63, 0
1, 33059, Note_off_c, 1, 55, 0
1, 33059, Note_off_c, 1, 43, 0
1, 33060, Note_on_c, 1, 74, 127
1, 33060, Note_on_c, 1, 62, 127
1, 33060, Note_on_c, 1, 53, 127
1, 33060, Note_on_c, 1, 50, 127
1, 33119, Note_off_c, 1, 70, 0
1, 33119, Note_off_c, 1, 74, 0
1, 33119, Note_off_c, 1, 62, 0
1, 33119, Note_off_c, 1, 53, 0
1, 33119, Note_off_c, 1, 50, 0
1, 33120, Note_on_c, 1, 52, 127
1, 33120, Note_on_c, 1, 61, 127
1, 33120, Note_on_c, 1, 55, 127
1, 33120, Note_on_c, 1, 76, 127
1, 33120, Note_on_c, 1, 70, 127
1, 33120, Note_on_c, 1, 64, 127
1, 33120, Note_on_c, 1, 67, 127
1, 33120, Note_on_c, 1, 58, 127
1, 33149, Note_off_c, 1, 61, 0
1, 33149, Note_off_c, 1, 64, 0
1, 33150, Note_on_c, 1, 62, 127
1, 33179, Note_off_c, 1, 52, 0
1, 33179, Note_off_c, 1, 55, 0
1, 33179, Note_off_c, 1, 76, 0
1, 33179, Note_off_c, 1, 70, 0
1, 33179, Note_off_c, 1, 58, 0
1, 33179, Note_off_c, 1, 62, 0
1, 33180, Note_on_c, 1, 69, 127
1, 33180, Note_on_c, 1, 49, 127
1, 33180, Note_on_c, 1, 57, 127
1, 33209, Note_off_c, 1, 57, 0
1, 33239, Note_off_c, 1, 69, 0
1, 33239, Note_off_c, 1, 49, 0
1, 33240, Note_off_c, 1, 67, 0
1, 33240, Note_on_c, 1, 81, 127
1, 33240, Note_on_c, 1, 73, 127
1, 33240, Note_on_c, 1, 45, 127
1, 33240, Note_on_c, 1, 54, 127
1, 33269, Note_off_c, 1, 54, 0
1, 33299, Note_off_c, 1, 81, 0
1, 33299, Note_off_c, 1, 73, 0
1, 33299, Note_off_c, 1, 45, 0
1, 33300, Note_on_c, 1, 50, 127
1, 33300, Note_on_c, 1, 66, 127
1, 33300, Note_on_c, 1, 69, 127
1, 33300, Note_on_c, 1, 75, 127
1, 33300, Note_on_c, 1, 54, 127
1, 33300, Note_on_c, 1, 62, 127
1, 33330, Note_on_c, 1, 51, 127
1, 33359, Note_off_c, 1, 50, 0
1, 33359, Note_off_c, 1, 66, 0
1, 33359, Note_off_c, 1, 69, 0
1, 33359, Note_off_c, 1, 75, 0
1, 33359, Note_off_c, 1, 54, 0
1, 33359, Note_off_c, 1, 62, 0
1, 33359, Note_off_c, 1, 51, 0
1, 33360, Note_on_c, 1, 81, 127
1, 33360, Note_on_c, 1, 74, 127
1, 33360, Note_on_c, 1, 62, 127
1, 33360, Note_on_c, 1, 42, 127
1, 33360, Note_on_c, 1, 72, 127
1, 33360, Note_on_c, 1, 50, 127
1, 33360, Note_on_c, 1, 57, 127
1, 33389, Note_off_c, 1, 72, 0
1, 33389, Note_off_c, 1, 50, 0
1, 33390, Note_on_c, 1, 75, 127
1, 33390, Note_on_c, 1, 48, 127
1, 33419, Note_off_c, 1, 81, 0
1, 33419, Note_off_c, 1, 74, 0
1, 33419, Note_off_c, 1, 62, 0
1, 33419, Note_off_c, 1, 42, 0
1, 33419, Note_off_c, 1, 57, 0
1, 33419, Note_off_c, 1, 75, 0
1, 33419, Note_off_c, 1, 48, 0
1, 33420, Note_on_c, 1, 72, 127
1, 33420, Note_on_c, 1, 74, 127
1, 33420, Note_on_c, 1, 57, 127
1, 33420, Note_on_c, 1, 38, 127
1, 33420, Note_on_c, 1, 46, 127
1, 33420, Note_on_c, 1, 50, 127
1, 33420, Note_on_c, 1, 66, 127
1, 33420, Note_on_c, 1, 62, 127
1, 33449, Note_off_c, 1, 46, 0
1, 33450, Note_on_c, 1, 45, 127
1, 33479, Note_off_c, 1, 72, 0
1, 33479, Note_off_c, 1, 74, 0
1, 33479, Note_off_c, 1, 57, 0
1, 33479, Note_off_c, 1, 38, 0
1, 33479, Note_off_c, 1, 50, 0
1, 33479, Note_off_c, 1, 66, 0
1, 33479, Note_off_c, 1, 62, 0
1, 33479, Note_off_c, 1, 45, 0
1, 33480, Note_on_c, 1, 70, 127
1, 33480, Note_on_c, 1, 62, 127
1, 33480, Note_on_c, 1, 58, 127
1, 33480, Note_on_c, 1, 43, 127
1, 33480, Note_on_c, 1, 74, 127
1, 33480, Note_on_c, 1, 55, 127
1, 33480, Note_on_c, 1, 67, 127
1, 33510, Note_on_c, 1, 66, 127
1, 33539, Note_off_c, 1, 70, 0
1, 33539, Note_off_c, 1, 62, 0
1, 33539, Note_off_c, 1, 58, 0
1, 33539, Note_off_c, 1, 43, 0
1, 33539, Note_off_c, 1, 74, 0
1, 33539, Note_off_c, 1, 55, 0
1, 33539, Note_off_c, 1, 67, 0
1, 33539, Note_off_c, 1, 66, 0
1, 33540, Note_on_c, 1, 46, 127
1, 33540, Note_on_c, 1, 67, 127
1, 33569, Note_off_c, 1, 67, 0
1, 33570, Note_on_c, 1, 62, 127
1, 33599, Note_off_c, 1, 46, 0
1, 33599, Note_off_c, 1, 62, 0
1, 33600, Note_on_c, 1, 51, 127
1, 33600, Note_on_c, 1, 60, 127
1, 33629, Note_off_c, 1, 60, 0
1, 33630, Note_on_c, 1, 58, 127
1, 33659, Note_off_c, 1, 51, 0
1, 33659, Note_off_c, 1, 58, 0
1, 33660, Note_on_c, 1, 48, 127
1, 33660, Note_on_c, 1, 57, 127
1, 33689, Note_off_c, 1, 57, 0
1, 33690, Note_on_c, 1, 55, 127
1, 33719, Note_off_c, 1, 48, 0
1, 33719, Note_off_c, 1, 55, 0
1, 33720, Note_on_c, 1, 50, 127
1, 33750, Note_on_c, 1, 55, 127
1, 33779, Note_off_c, 1, 50, 0
1, 33779, Note_off_c, 1, 55, 0
1, 33780, Note_on_c, 1, 38, 127
1, 33780, Note_on_c, 1, 67, 127
1, 33809, Note_off_c, 1, 67, 0
1, 33810, Note_on_c, 1, 66, 127
1, 33839, Note_off_c, 1, 38, 0
1, 33839, Note_off_c, 1, 66, 0
1, 33840, Note_on_c, 1, 43, 127
1, 33840, Note_on_c, 1, 67, 127
1, 33869, Note_off_c, 1, 67, 0
1, 33900, Note_on_c, 1, 79, 127
1, 33900, Note_on_c, 1, 55, 127
1, 33900, Note_on_c, 1, 70, 127
1, 33929, Note_off_c, 1, 70, 0
1, 33930, Note_on_c, 1, 74, 127
1, 33959, Note_off_c, 1, 43, 0
1, 33959, Note_off_c, 1, 79, 0
1, 33959, Note_off_c, 1, 55, 0
1, 33959, Note_off_c, 1, 74, 0
1, 33960, Note_on_c, 1, 78, 127
1, 33960, Note_on_c, 1, 57, 127
1, 33960, Note_on_c, 1, 79, 127
1, 33989, Note_off_c, 1, 79, 0
1, 34019, Note_off_c, 1, 78, 0
1, 34019, Note_off_c, 1, 57, 0
1, 34020, Note_on_c, 1, 79, 127
1, 34020, Note_on_c, 1, 58, 127
1, 34050, Note_on_c, 1, 67, 127
1, 34079, Note_off_c, 1, 79, 0
1, 34079, Note_off_c, 1, 58, 0
1, 34079, Note_off_c, 1, 67, 0
1, 34080, Note_on_c, 1, 82, 127
1, 34080, Note_on_c, 1, 79, 127
1, 34080, Note_on_c, 1, 58, 127
1, 34080, Note_on_c, 1, 43, 127
1, 34080, Note_on_c, 1, 86, 127
1, 34080, Note_on_c, 1, 70, 127
1, 34080, Note_on_c, 1, 55, 127
1, 34109, Note_off_c, 1, 70, 0
1, 34110, Note_on_c, 1, 74, 127
1, 34139, Note_off_c, 1, 82, 0
1, 34139, Note_off_c, 1, 79, 0
1, 34139, Note_off_c, 1, 58, 0
1, 34139, Note_off_c, 1, 43, 0
1, 34139, Note_off_c, 1, 86, 0
1, 34139, Note_off_c, 1, 55, 0
1, 34139, Note_off_c, 1, 74, 0
1, 34140, Note_on_c, 1, 81, 127
1, 34140, Note_on_c, 1, 78, 127
1, 34140, Note_on_c, 1, 60, 127
1, 34140, Note_on_c, 1, 45, 127
1, 34140, Note_on_c, 1, 84, 127
1, 34140, Note_on_c, 1, 79, 127
1, 34140, Note_on_c, 1, 57, 127
1, 34169, Note_off_c, 1, 79, 0
1, 34199, Note_off_c, 1, 81, 0
1, 34199, Note_off_c, 1, 78, 0
1, 34199, Note_off_c, 1, 60, 0
1, 34199, Note_off_c, 1, 45, 0
1, 34199, Note_off_c, 1, 84, 0
1, 34199, Note_off_c, 1, 57, 0
1, 34200, Note_on_c, 1, 74, 127
1, 34200, Note_on_c, 1, 79, 127
1, 34200, Note_on_c, 1, 62, 127
1, 34200, Note_on_c, 1, 46, 127
1, 34200, Note_on_c, 1, 82, 127
1, 34200, Note_on_c, 1, 58, 127
1, 34229, Note_off_c, 1, 79, 0
1, 34229, Note_off_c, 1, 82, 0
1, 34230, Note_off_c, 1, 74, 0
1, 34230, Note_on_c, 1, 86, 127
1, 34230, Note_on_c, 1, 77, 127
1, 34259, Note_off_c, 1, 62, 0
1, 34259, Note_off_c, 1, 46, 0
1, 34259, Note_off_c, 1, 58, 0
1, 34259, Note_off_c, 1, 77, 0
1, 34260, Note_off_c, 1, 86, 0
1, 34260, Note_on_c, 1, 84, 127
1, 34260, Note_on_c, 1, 75, 127
1, 34289, Note_off_c, 1, 75, 0
1, 34290, Note_off_c, 1, 84, 0
1, 34320, Note_on_c, 1, 81, 127
1, 34320, Note_on_c, 1, 72, 127
1, 34320, Note_on_c, 1, 63, 127
1, 34320, Note_on_c, 1, 48, 127
1, 34320, Note_on_c, 1, 60, 127
1, 34350, Note_off_c, 1, 81, 0
1, 34350, Note_on_c, 1, 70, 127
1, 34379, Note_off_c, 1, 63, 0
1, 34379, Note_off_c, 1, 48, 0
1, 34379, Note_off_c, 1, 60, 0
1, 34379, Note_off_c, 1, 70, 0
1, 34380, Note_on_c, 1, 78, 127
1, 34380, Note_on_c, 1, 50, 127
1, 34409, Note_off_c, 1, 72, 0
1, 34410, Note_off_c, 1, 78, 0
1, 34410, Note_on_c, 1, 76, 127
1, 34439, Note_off_c, 1, 50, 0
1, 34439, Note_off_c, 1, 76, 0
1, 34440, Note_on_c, 1, 69, 127
1, 34469, Note_off_c, 1, 69, 0
1, 34470, Note_on_c, 1, 67, 127
1, 34499, Note_off_c, 1, 67, 0
1, 34500, Note_on_c, 1, 57, 127
1, 34500, Note_on_c, 1, 51, 127
1, 34529, Note_off_c, 1, 57, 0
1, 34530, Note_on_c, 1, 55, 127
1, 34559, Note_off_c, 1, 51, 0
1, 34559, Note_off_c, 1, 55, 0
1, 34560, Note_on_c, 1, 72, 127
1, 34560, Note_on_c, 1, 54, 127
1, 34560, Note_on_c, 1, 50, 127
1, 34560, Note_on_c, 1, 81, 127
1, 34589, Note_off_c, 1, 81, 0
1, 34590, Note_on_c, 1, 82, 127
1, 34590, Note_on_c, 1, 79, 127
1, 34590, Note_on_c, 1, 75, 127
1, 34619, Note_off_c, 1, 54, 0
1, 34619, Note_off_c, 1, 50, 0
1, 34619, Note_off_c, 1, 82, 0
1, 34619, Note_off_c, 1, 79, 0
1, 34619, Note_off_c, 1, 75, 0
1, 34620, Note_on_c, 1, 48, 127
1, 34620, Note_on_c, 1, 78, 127
1, 34620, Note_on_c, 1, 66, 127
1, 34649, Note_off_c, 1, 48, 0
1, 34649, Note_off_c, 1, 78, 0
1, 34649, Note_off_c, 1, 66, 0
1, 34650, Note_on_c, 1, 52, 127
1, 34650, Note_on_c, 1, 46, 127
1, 34650, Note_on_c, 1, 76, 127
1, 34650, Note_on_c, 1, 67, 127
1, 34679, Note_off_c, 1, 52, 0
1, 34679, Note_off_c, 1, 46, 0
1, 34679, Note_off_c, 1, 76, 0
1, 34679, Note_off_c, 1, 67, 0
1, 34680, Note_on_c, 1, 45, 127
1, 34680, Note_on_c, 1, 74, 127
1, 34680, Note_on_c, 1, 69, 127
1, 34709, Note_off_c, 1, 45, 0
1, 34709, Note_off_c, 1, 74, 0
1, 34709, Note_off_c, 1, 69, 0
1, 34710, Note_on_c, 1, 55, 127
1, 34710, Note_on_c, 1, 43, 127
1, 34710, Note_on_c, 1, 70, 127
1, 34739, Note_off_c, 1, 72, 0
1, 34739, Note_off_c, 1, 55, 0
1, 34739, Note_off_c, 1, 43, 0
1, 34739, Note_off_c, 1, 70, 0
1, 34740, Note_on_c, 1, 74, 127
1, 34740, Note_on_c, 1, 57, 127
1, 34740, Note_on_c, 1, 42, 127
1, 34740, Note_on_c, 1, 78, 127
1, 34740, Note_on_c, 1, 72, 127
1, 34769, Note_off_c, 1, 78, 0
1, 34769, Note_off_c, 1, 72, 0
1, 34770, Note_on_c, 1, 70, 127
1, 34770, Note_on_c, 1, 79, 127
1, 34770, Note_on_c, 1, 75, 127
1, 34799, Note_off_c, 1, 57, 0
1, 34799, Note_off_c, 1, 42, 0
1, 34799, Note_off_c, 1, 70, 0
1, 34799, Note_off_c, 1, 79, 0
1, 34799, Note_off_c, 1, 75, 0
1, 34800, Note_on_c, 1, 69, 127
1, 34800, Note_on_c, 1, 38, 127
1, 34829, Note_off_c, 1, 69, 0
1, 34830, Note_on_c, 1, 67, 127
1, 34830, Note_on_c, 1, 76, 127
1, 34859, Note_off_c, 1, 38, 0
1, 34859, Note_off_c, 1, 67, 0
1, 34859, Note_off_c, 1, 76, 0
1, 34860, Note_on_c, 1, 66, 127
1, 34860, Note_on_c, 1, 58, 127
1, 34860, Note_on_c, 1, 43, 127
1, 34889, Note_off_c, 1, 66, 0
1, 34919, Note_off_c, 1, 58, 0
1, 34919, Note_off_c, 1, 43, 0
1, 34920, Note_on_c, 1, 50, 127
1, 34950, Note_on_c, 1, 81, 127
1, 34979, Note_off_c, 1, 74, 0
1, 34979, Note_off_c, 1, 50, 0
1, 34979, Note_off_c, 1, 81, 0
1, 34980, Note_on_c, 1, 62, 127
1, 34980, Note_on_c, 1, 50, 127
1, 34980, Note_on_c, 1, 38, 127
1, 34980, Note_on_c, 1, 74, 127
1, 34980, Note_on_c, 1, 70, 127
1, 35009, Note_off_c, 1, 62, 0
1, 35009, Note_off_c, 1, 50, 0
1, 35009, Note_off_c, 1, 38, 0
1, 35009, Note_off_c, 1, 74, 0
1, 35009, Note_off_c, 1, 70, 0
1, 35010, Note_on_c, 1, 64, 127
1, 35010, Note_on_c, 1, 52, 127
1, 35010, Note_on_c, 1, 40, 127
1, 35010, Note_on_c, 1, 76, 127
1, 35010, Note_on_c, 1, 72, 127
1, 35039, Note_off_c, 1, 64, 0
1, 35039, Note_off_c, 1, 52, 0
1, 35039, Note_off_c, 1, 40, 0
1, 35039, Note_off_c, 1, 76, 0
1, 35039, Note_off_c, 1, 72, 0
1, 35040, Note_on_c, 1, 66, 127
1, 35040, Note_on_c, 1, 54, 127
1, 35040, Note_on_c, 1, 42, 127
1, 35040, Note_on_c, 1, 78, 127
1, 35040, Note_on_c, 1, 73, 127
1, 35069, Note_off_c, 1, 66, 0
1, 35069, Note_off_c, 1, 54, 0
1, 35069, Note_off_c, 1, 42, 0
1, 35069, Note_off_c, 1, 78, 0
1, 35069, Note_off_c, 1, 73, 0
1, 35070, Note_on_c, 1, 67, 127
1, 35070, Note_on_c, 1, 55, 127
1, 35070, Note_on_c, 1, 43, 127
1, 35070, Note_on_c, 1, 79, 127
1, 35070, Note_on_c, 1, 76, 127
1, 35099, Note_off_c, 1, 67, 0
1, 35099, Note_off_c, 1, 55, 0
1, 35099, Note_off_c, 1, 43, 0
1, 35099, Note_off_c, 1, 79, 0
1, 35099, Note_off_c, 1, 76, 0
1, 35100, Note_on_c, 1, 69, 127
1, 35100, Note_on_c, 1, 57, 127
1, 35100, Note_on_c, 1, 45, 127
1, 35100, Note_on_c, 1, 81, 127
1, 35159, Note_off_c, 1, 69, 0
1, 35159, Note_off_c, 1, 57, 0
1, 35159, Note_off_c, 1, 45, 0
1, 35159, Note_off_c, 1, 81, 0
1, 35160, Note_on_c, 1, 69, 127
1, 35160, Note_on_c, 1, 57, 127
1, 35160, Note_on_c, 1, 45, 127
1, 35160, Note_on_c, 1, 81, 127
1, 35189, Note_off_c, 1, 81, 0
1, 35190, Note_on_c, 1, 82, 127
1, 35219, Note_off_c, 1, 69, 0
1, 35219, Note_off_c, 1, 57, 0
1, 35219, Note_off_c, 1, 45, 0
1, 35219, Note_off_c, 1, 82, 0
1, 35220, Note_on_c, 1, 70, 127
1, 35220, Note_on_c, 1, 58, 127
1, 35220, Note_on_c, 1, 46, 127
1, 35220, Note_on_c, 1, 82, 127
1, 35229, Note_off_c, 1, 82, 0
1, 35230, Note_on_c, 1, 84, 127
1, 35239, Note_off_c, 1, 84, 0
1, 35250, Note_on_c, 1, 81, 127
1, 35264, Note_off_c, 1, 81, 0
1, 35279, Note_off_c, 1, 70, 0
1, 35279, Note_off_c, 1, 58, 0
1, 35279, Note_off_c, 1, 46, 0
1, 35280, Note_on_c, 1, 69, 127
1, 35280, Note_on_c, 1, 57, 127
1, 35280, Note_on_c, 1, 42, 127
1, 35280, Note_on_c, 1, 84, 127
1, 35280, Note_on_c, 1, 74, 127
1, 35280, Note_on_c, 1, 58, 127
1, 35280, Note_on_c, 1, 65, 127
1, 35299, Note_off_c, 1, 74, 0
1, 35299, Note_off_c, 1, 58, 0
1, 35299, Note_off_c, 1, 65, 0
1, 35300, Note_on_c, 1, 72, 127
1, 35300, Note_on_c, 1, 63, 127
1, 35309, Note_off_c, 1, 84, 0
1, 35310, Note_on_c, 1, 81, 127
1, 35319, Note_off_c, 1, 72, 0
1, 35319, Note_off_c, 1, 63, 0
1, 35339, Note_off_c, 1, 69, 0
1, 35339, Note_off_c, 1, 57, 0
1, 35339, Note_off_c, 1, 42, 0
1, 35339, Note_off_c, 1, 81, 0
1, 35340, Note_on_c, 1, 42, 127
1, 35340, Note_on_c, 1, 78, 127
1, 35340, Note_on_c, 1, 57, 127
1, 35340, Note_on_c, 1, 72, 127
1, 35340, Note_on_c, 1, 63, 127
1, 35354, Note_off_c, 1, 72, 0
1, 35354, Note_off_c, 1, 63, 0
1, 35355, Note_on_c, 1, 74, 127
1, 35355, Note_on_c, 1, 58, 127
1, 35355, Note_on_c, 1, 65, 127
1, 35369, Note_off_c, 1, 78, 0
1, 35369, Note_off_c, 1, 74, 0
1, 35369, Note_off_c, 1, 58, 0
1, 35369, Note_off_c, 1, 65, 0
1, 35370, Note_on_c, 1, 79, 127
1, 35399, Note_off_c, 1, 42, 0
1, 35399, Note_off_c, 1, 57, 0
1, 35399, Note_off_c, 1, 79, 0
1, 35400, Note_on_c, 1, 42, 127
1, 35400, Note_on_c, 1, 81, 127
1, 35400, Note_on_c, 1, 57, 127
1, 35400, Note_on_c, 1, 72, 127
1, 35400, Note_on_c, 1, 63, 127
1, 35409, Note_off_c, 1, 72, 0
1, 35409, Note_off_c, 1, 63, 0
1, 35410, Note_on_c, 1, 74, 127
1, 35410, Note_on_c, 1, 58, 127
1, 35410, Note_on_c, 1, 65, 127
1, 35419, Note_off_c, 1, 74, 0
1, 35419, Note_off_c, 1, 58, 0
1, 35419, Note_off_c, 1, 65, 0
1, 35429, Note_off_c, 1, 81, 0
1, 35430, Note_on_c, 1, 75, 127
1, 35459, Note_off_c, 1, 42, 0
1, 35459, Note_off_c, 1, 57, 0
1, 35459, Note_off_c, 1, 75, 0
1, 35460, Note_on_c, 1, 72, 127
1, 35460, Note_on_c, 1, 69, 127
1, 35460, Note_on_c, 1, 63, 127
1, 35460, Note_on_c, 1, 42, 127
1, 35460, Note_on_c, 1, 57, 127
1, 35470, Note_on_c, 1, 74, 127
1, 35470, Note_on_c, 1, 58, 127
1, 35470, Note_on_c, 1, 65, 127
1, 35479, Note_off_c, 1, 74, 0
1, 35479, Note_off_c, 1, 58, 0
1, 35479, Note_off_c, 1, 65, 0
1, 35519, Note_off_c, 1, 72, 0
1, 35519, Note_off_c, 1, 69, 0
1, 35519, Note_off_c, 1, 63, 0
1, 35519, Note_off_c, 1, 42, 0
1, 35519, Note_off_c, 1, 57, 0
1, 35520, Note_on_c, 1, 42, 127
1, 35520, Note_on_c, 1, 75, 127
1, 35520, Note_on_c, 1, 57, 127
1, 35520, Note_on_c, 1, 72, 127
1, 35520, Note_on_c, 1, 63, 127
1, 35529, Note_off_c, 1, 72, 0
1, 35529, Note_off_c, 1, 63, 0
1, 35530, Note_on_c, 1, 74, 127
1, 35530, Note_on_c, 1, 58, 127
1, 35530, Note_on_c, 1, 65, 127
1, 35539, Note_off_c, 1, 74, 0
1, 35539, Note_off_c, 1, 58, 0
1, 35539, Note_off_c, 1, 65, 0
1, 35549, Note_off_c, 1, 75, 0
1, 35579, Note_off_c, 1, 42, 0
1, 35579, Note_off_c, 1, 57, 0
1, 35580, Note_on_c, 1, 42, 127
1, 35580, Note_on_c, 1, 69, 127
1, 35580, Note_on_c, 1, 57, 127
1, 35580, Note_on_c, 1, 72, 127
1, 35580, Note_on_c, 1, 63, 127
1, 35589, Note_off_c, 1, 72, 0
1, 35589, Note_off_c, 1, 63, 0
1, 35590, Note_on_c, 1, 74, 127
1, 35590, Note_on_c, 1, 58, 127
1, 35590, Note_on_c, 1, 65, 127
1, 35599, Note_off_c, 1, 74, 0
1, 35599, Note_off_c, 1, 58, 0
1, 35599, Note_off_c, 1, 65, 0
1, 35609, Note_off_c, 1, 69, 0
1, 35610, Note_on_c, 1, 70, 127
1, 35639, Note_off_c, 1, 42, 0
1, 35639, Note_off_c, 1, 57, 0
1, 35639, Note_off_c, 1, 70, 0
1, 35640, Note_on_c, 1, 75, 127
1, 35640, Note_on_c, 1, 72, 127
1, 35640, Note_on_c, 1, 57, 127
1, 35640, Note_on_c, 1, 42, 127
1, 35640, Note_on_c, 1, 63, 127
1, 35649, Note_off_c, 1, 63, 0
1, 35650, Note_on_c, 1, 74, 127
1, 35650, Note_on_c, 1, 58, 127
1, 35650, Note_on_c, 1, 65, 127
1, 35659, Note_off_c, 1, 74, 0
1, 35659, Note_off_c, 1, 58, 0
1, 35659, Note_off_c, 1, 65, 0
1, 35670, Note_on_c, 1, 69, 127
1, 35699, Note_off_c, 1, 75, 0
1, 35699, Note_off_c, 1, 72, 0
1, 35699, Note_off_c, 1, 57, 0
1, 35699, Note_off_c, 1, 42, 0
1, 35699, Note_off_c, 1, 69, 0
1, 35700, Note_on_c, 1, 42, 127
1, 35700, Note_on_c, 1, 66, 127
1, 35700, Note_on_c, 1, 57, 127
1, 35700, Note_on_c, 1, 72, 127
1, 35700, Note_on_c, 1, 63, 127
1, 35709, Note_off_c, 1, 72, 0
1, 35709, Note_off_c, 1, 63, 0
1, 35710, Note_on_c, 1, 74, 127
1, 35710, Note_on_c, 1, 58, 127
1, 35710, Note_on_c, 1, 65, 127
1, 35719, Note_off_c, 1, 74, 0
1, 35719, Note_off_c, 1, 58, 0
1, 35719, Note_off_c, 1, 65, 0
1, 35729, Note_off_c, 1, 66, 0
1, 35730, Note_on_c, 1, 67, 127
1, 35759, Note_off_c, 1, 42, 0
1, 35759, Note_off_c, 1, 57, 0
1, 35759, Note_off_c, 1, 67, 0
1, 35760, Note_on_c, 1, 42, 127
1, 35760, Note_on_c, 1, 69, 127
1, 35760, Note_on_c, 1, 57, 127
1, 35760, Note_on_c, 1, 72, 127
1, 35760, Note_on_c, 1, 63, 127
1, 35769, Note_off_c, 1, 72, 0
1, 35770, Note_on_c, 1, 74, 127
1, 35775, Note_on_c, 1, 58, 127
1, 35779, Note_off_c, 1, 74, 0
1, 35789, Note_off_c, 1, 69, 0
1, 35789, Note_off_c, 1, 63, 0
1, 35789, Note_off_c, 1, 58, 0
1, 35790, Note_on_c, 1, 66, 127
1, 35790, Note_on_c, 1, 70, 127
1, 35790, Note_on_c, 1, 55, 127
1, 35790, Note_on_c, 1, 62, 127
1, 35804, Note_off_c, 1, 55, 0
1, 35804, Note_off_c, 1, 62, 0
1, 35805, Note_off_c, 1, 70, 0
1, 35819, Note_off_c, 1, 42, 0
1, 35819, Note_off_c, 1, 57, 0
1, 35819, Note_off_c, 1, 66, 0
1, 35820, Note_on_c, 1, 67, 127
1, 35820, Note_on_c, 1, 46, 127
1, 35850, Note_on_c, 1, 64, 127
1, 35864, Note_off_c, 1, 64, 0
1, 35879, Note_off_c, 1, 67, 0
1, 35879, Note_off_c, 1, 46, 0
1, 35880, Note_on_c, 1, 67, 127
1, 35880, Note_on_c, 1, 58, 127
1, 35880, Note_on_c, 1, 62, 127
1, 35894, Note_off_c, 1, 67, 0
1, 35895, Note_on_c, 1, 66, 127
1, 35909, Note_off_c, 1, 66, 0
1, 35910, Note_on_c, 1, 64, 127
1, 35924, Note_off_c, 1, 64, 0
1, 35925, Note_on_c, 1, 69, 127
1, 35939, Note_off_c, 1, 58, 0
1, 35939, Note_off_c, 1, 62, 0
1, 35939, Note_off_c, 1, 69, 0
1, 35940, Note_on_c, 1, 70, 127
1, 35940, Note_on_c, 1, 60, 127
1, 35940, Note_on_c, 1, 57, 127
1, 35940, Note_on_c, 1, 67, 127
1, 35954, Note_off_c, 1, 70, 0
1, 35954, Note_off_c, 1, 67, 0
1, 35955, Note_on_c, 1, 69, 127
1, 35955, Note_on_c, 1, 66, 127
1, 35969, Note_off_c, 1, 69, 0
1, 35969, Note_off_c, 1, 66, 0
1, 35985, Note_on_c, 1, 72, 127
1, 35999, Note_off_c, 1, 60, 0
1, 35999, Note_off_c, 1, 57, 0
1, 35999, Note_off_c, 1, 72, 0
1, 36000, Note_on_c, 1, 74, 127
1, 36000, Note_on_c, 1, 55, 127
1, 36000, Note_on_c, 1, 58, 127
1, 36000, Note_on_c, 1, 70, 127
1, 36014, Note_off_c, 1, 74, 0
1, 36015, Note_on_c, 1, 67, 127
1, 36029, Note_off_c, 1, 70, 0
1, 36029, Note_off_c, 1, 67, 0
1, 36030, Note_on_c, 1, 69, 127
1, 36044, Note_off_c, 1, 69, 0
1, 36059, Note_off_c, 1, 55, 0
1, 36059, Note_off_c, 1, 58, 0
1, 36060, Note_on_c, 1, 72, 127
1, 36060, Note_on_c, 1, 50, 127
1, 36060, Note_on_c, 1, 58, 127
1, 36060, Note_on_c, 1, 67, 127
1, 36074, Note_off_c, 1, 72, 0
1, 36075, Note_on_c, 1, 74, 127
1, 36075, Note_on_c, 1, 66, 127
1, 36089, Note_off_c, 1, 67, 0
1, 36089, Note_off_c, 1, 74, 0
1, 36089, Note_off_c, 1, 66, 0
1, 36090, Note_on_c, 1, 76, 127
1, 36090, Note_on_c, 1, 70, 127
1, 36104, Note_off_c, 1, 76, 0
1, 36105, Note_on_c, 1, 78, 127
1, 36105, Note_on_c, 1, 69, 127
1, 36119, Note_off_c, 1, 50, 0
1, 36119, Note_off_c, 1, 58, 0
1, 36119, Note_off_c, 1, 70, 0
1, 36119, Note_off_c, 1, 78, 0
1, 36119, Note_off_c, 1, 69, 0
1, 36120, Note_on_c, 1, 79, 127
1, 36120, Note_on_c, 1, 57, 127
1, 36120, Note_on_c, 1, 48, 127
1, 36120, Note_on_c, 1, 74, 127
1, 36120, Note_on_c, 1, 70, 127
1, 36134, Note_off_c, 1, 79, 0
1, 36134, Note_off_c, 1, 70, 0
1, 36135, Note_on_c, 1, 78, 127
1, 36135, Note_on_c, 1, 69, 127
1, 36149, Note_off_c, 1, 74, 0
1, 36149, Note_off_c, 1, 78, 0
1, 36149, Note_off_c, 1, 69, 0
1, 36165, Note_on_c, 1, 81, 127
1, 36165, Note_on_c, 1, 72, 127
1, 36179, Note_off_c, 1, 57, 0
1, 36179, Note_off_c, 1, 48, 0
1, 36179, Note_off_c, 1, 81, 0
1, 36179, Note_off_c, 1, 72, 0
1, 36180, Note_on_c, 1, 82, 127
1, 36180, Note_on_c, 1, 55, 127
1, 36180, Note_on_c, 1, 50, 127
1, 36180, Note_on_c, 1, 46, 127
1, 36180, Note_on_c, 1, 79, 127
1, 36180, Note_on_c, 1, 74, 127
1, 36209, Note_off_c, 1, 82, 0
1, 36209, Note_off_c, 1, 55, 0
1, 36209, Note_off_c, 1, 50, 0
1, 36209, Note_off_c, 1, 46, 0
1, 36210, Note_on_c, 1, 48, 127
1, 36239, Note_off_c, 1, 79, 0
1, 36239, Note_off_c, 1, 74, 0
1, 36239, Note_off_c, 1, 48, 0
1, 36240, Note_on_c, 1, 74, 127
1, 36240, Note_on_c, 1, 69, 127
1, 36240, Note_on_c, 1, 50, 127
1, 36240, Note_on_c, 1, 62, 127
1, 36240, Note_on_c, 1, 67, 127
1, 36270, Note_on_c, 1, 79, 127
1, 36270, Note_on_c, 1, 75, 127
1, 36299, Note_off_c, 1, 74, 0
1, 36299, Note_off_c, 1, 69, 0
1, 36299, Note_off_c, 1, 50, 0
1, 36299, Note_off_c, 1, 62, 0
1, 36299, Note_off_c, 1, 67, 0
1, 36299, Note_off_c, 1, 79, 0
1, 36299, Note_off_c, 1, 75, 0
1, 36300, Note_on_c, 1, 78, 127
1, 36300, Note_on_c, 1, 74, 127
1, 36300, Note_on_c, 1, 72, 127
1, 36300, Note_on_c, 1, 38, 127
1, 36300, Note_on_c, 1, 69, 127
1, 36300, Note_on_c, 1, 50, 127
1, 36300, Note_on_c, 1, 66, 127
1, 36300, Note_on_c, 1, 57, 127
1, 36359, Note_off_c, 1, 78, 0
1, 36359, Note_off_c, 1, 74, 0
1, 36359, Note_off_c, 1, 72, 0
1, 36359, Note_off_c, 1, 38, 0
1, 36359, Note_off_c, 1, 69, 0
1, 36359, Note_off_c, 1, 50, 0
1, 36359, Note_off_c, 1, 66, 0
1, 36359, Note_off_c, 1, 57, 0
1, 36360, Note_on_c, 1, 79, 127
1, 36360, Note_on_c, 1, 74, 127
1, 36360, Note_on_c, 1, 70, 127
1, 36360, Note_on_c, 1, 43, 127
1, 36360, Note_on_c, 1, 55, 127
1, 36360, Note_on_c, 1, 67, 127
1, 36360, Note_on_c, 1, 62, 127
1, 36360, Note_on_c, 1, 58, 127
1, 36380, Note_on_c, 1, 72, 127
1, 36389, Note_off_c, 1, 67, 0
1, 36389, Note_off_c, 1, 62, 0
1, 36389, Note_off_c, 1, 58, 0
1, 36399, Note_off_c, 1, 72, 0
1, 36419, Note_off_c, 1, 43, 0
1, 36419, Note_off_c, 1, 55, 0
1, 36480, Note_on_c, 1, 53, 127
1, 36480, Note_on_c, 1, 65, 127
1, 36539, Note_off_c, 1, 74, 0
1, 36539, Note_off_c, 1, 53, 0
1, 36539, Note_off_c, 1, 65, 0
1, 36540, Note_on_c, 1, 73, 127
1, 36540, Note_on_c, 1, 52, 127
1, 36540, Note_on_c, 1, 64, 127
1, 36570, Note_on_c, 1, 61, 127
1, 36599, Note_off_c, 1, 52, 0
1, 36599, Note_off_c, 1, 64, 0
1, 36599, Note_off_c, 1, 61, 0
1, 36659, Note_off_c, 1, 73, 0
1, 36660, Note_on_c, 1, 50, 127
1, 36719, Note_off_c, 1, 50, 0
1, 36720, Note_on_c, 1, 76, 127
1, 36720, Note_on_c, 1, 49, 127
1, 36750, Note_off_c, 1, 79, 0
1, 36750, Note_on_c, 1, 69, 127
1, 36779, Note_off_c, 1, 76, 0
1, 36779, Note_off_c, 1, 49, 0
1, 36779, Note_off_c, 1, 69, 0
1, 36780, Note_off_c, 1, 70, 0
1, 36780, Note_on_c, 1, 57, 127
1, 36839, Note_off_c, 1, 57, 0
1, 36840, Note_on_c, 1, 73, 127
1, 36840, Note_on_c, 1, 55, 127
1, 36840, Note_on_c, 1, 64, 127
1, 36840, Note_on_c, 1, 69, 127
1, 36869, Note_off_c, 1, 73, 0
1, 36869, Note_off_c, 1, 64, 0
1, 36869, Note_off_c, 1, 69, 0
1, 36870, Note_on_c, 1, 61, 127
1, 36899, Note_off_c, 1, 55, 0
1, 36899, Note_off_c, 1, 61, 0
1, 36900, Note_on_c, 1, 81, 127
1, 36900, Note_on_c, 1, 53, 127
1, 36900, Note_on_c, 1, 62, 127
1, 36900, Note_on_c, 1, 69, 127
1, 36929, Note_off_c, 1, 62, 0
1, 36929, Note_off_c, 1, 69, 0
1, 36930, Note_on_c, 1, 65, 127
1, 36930, Note_on_c, 1, 57, 127
1, 36959, Note_off_c, 1, 81, 0
1, 36959, Note_off_c, 1, 53, 0
1, 36959, Note_off_c, 1, 65, 0
1, 36959, Note_off_c, 1, 57, 0
1, 36960, Note_on_c, 1, 81, 127
1, 36960, Note_on_c, 1, 69, 127
1, 36960, Note_on_c, 1, 65, 127
1, 36960, Note_on_c, 1, 53, 127
1, 36960, Note_on_c, 1, 61, 127
1, 36989, Note_off_c, 1, 61, 0
1, 36990, Note_on_c, 1, 64, 127
1, 37019, Note_off_c, 1, 81, 0
1, 37019, Note_off_c, 1, 69, 0
1, 37019, Note_off_c, 1, 65, 0
1, 37019, Note_off_c, 1, 53, 0
1, 37019, Note_off_c, 1, 64, 0
1, 37020, Note_on_c, 1, 79, 127
1, 37020, Note_on_c, 1, 73, 127
1, 37020, Note_on_c, 1, 67, 127
1, 37020, Note_on_c, 1, 52, 127
1, 37020, Note_on_c, 1, 64, 127
1, 37020, Note_on_c, 1, 61, 127
1, 37049, Note_off_c, 1, 64, 0
1, 37049, Note_off_c, 1, 61, 0
1, 37050, Note_on_c, 1, 69, 127
1, 37050, Note_on_c, 1, 57, 127
1, 37079, Note_off_c, 1, 79, 0
1, 37079, Note_off_c, 1, 73, 0
1, 37079, Note_off_c, 1, 67, 0
1, 37079, Note_off_c, 1, 52, 0
1, 37079, Note_off_c, 1, 69, 0
1, 37079, Note_off_c, 1, 57, 0
1, 37080, Note_on_c, 1, 77, 127
1, 37080, Note_on_c, 1, 74, 127
1, 37080, Note_on_c, 1, 69, 127
1, 37080, Note_on_c, 1, 50, 127
1, 37080, Note_on_c, 1, 57, 127
1, 37100, Note_on_c, 1, 79, 127
1, 37109, Note_off_c, 1, 57, 0
1, 37110, Note_on_c, 1, 62, 127
1, 37120, Note_off_c, 1, 79, 0
1, 37139, Note_off_c, 1, 62, 0
1, 37140, Note_on_c, 1, 65, 127
1, 37169, Note_off_c, 1, 65, 0
1, 37199, Note_off_c, 1, 50, 0
1, 37200, Note_on_c, 1, 48, 127
1, 37200, Note_on_c, 1, 60, 127
1, 37259, Note_off_c, 1, 69, 0
1, 37259, Note_off_c, 1, 48, 0
1, 37259, Note_off_c, 1, 60, 0
1, 37260, Note_on_c, 1, 68, 127
1, 37260, Note_on_c, 1, 47, 127
1, 37260, Note_on_c, 1, 59, 127
1, 37290, Note_on_c, 1, 56, 127
1, 37319, Note_off_c, 1, 47, 0
1, 37319, Note_off_c, 1, 59, 0
1, 37319, Note_off_c, 1, 56, 0
1, 37320, Note_on_c, 1, 53, 127
1, 37349, Note_off_c, 1, 53, 0
1, 37379, Note_off_c, 1, 68, 0
1, 37380, Note_on_c, 1, 45, 127
1, 37439, Note_off_c, 1, 77, 0
1, 37439, Note_off_c, 1, 45, 0
1, 37440, Note_on_c, 1, 71, 127
1, 37440, Note_on_c, 1, 42, 127
1, 37470, Note_on_c, 1, 64, 127
1, 37499, Note_off_c, 1, 71, 0
1, 37499, Note_off_c, 1, 42, 0
1, 37499, Note_off_c, 1, 64, 0
1, 37500, Note_off_c, 1, 74, 0
1, 37500, Note_on_c, 1, 52, 127
1, 37559, Note_off_c, 1, 52, 0
1, 37560, Note_on_c, 1, 68, 127
1, 37560, Note_on_c, 1, 50, 127
1, 37560, Note_on_c, 1, 71, 127
1, 37560, Note_on_c, 1, 64, 127
1, 37589, Note_off_c, 1, 68, 0
1, 37589, Note_off_c, 1, 71, 0
1, 37589, Note_off_c, 1, 64, 0
1, 37590, Note_on_c, 1, 59, 127
1, 37619, Note_off_c, 1, 50, 0
1, 37619, Note_off_c, 1, 59, 0
1, 37620, Note_on_c, 1, 76, 127
1, 37620, Note_on_c, 1, 49, 127
1, 37620, Note_on_c, 1, 69, 127
1, 37620, Note_on_c, 1, 64, 127
1, 37649, Note_off_c, 1, 69, 0
1, 37649, Note_off_c, 1, 64, 0
1, 37650, Note_on_c, 1, 73, 127
1, 37679, Note_off_c, 1, 76, 0
1, 37679, Note_off_c, 1, 49, 0
1, 37679, Note_off_c, 1, 73, 0
1, 37680, Note_on_c, 1, 76, 127
1, 37680, Note_on_c, 1, 64, 127
1, 37680, Note_on_c, 1, 61, 127
1, 37680, Note_on_c, 1, 49, 127
1, 37680, Note_on_c, 1, 68, 127
1, 37709, Note_off_c, 1, 68, 0
1, 37710, Note_on_c, 1, 71, 127
1, 37739, Note_off_c, 1, 76, 0
1, 37739, Note_off_c, 1, 64, 0
1, 37739, Note_off_c, 1, 61, 0
1, 37739, Note_off_c, 1, 49, 0
1, 37739, Note_off_c, 1, 71, 0
1, 37740, Note_on_c, 1, 74, 127
1, 37740, Note_on_c, 1, 68, 127
1, 37740, Note_on_c, 1, 62, 127
1, 37740, Note_on_c, 1, 47, 127
1, 37740, Note_on_c, 1, 71, 127
1, 37769, Note_off_c, 1, 71, 0
1, 37770, Note_on_c, 1, 76, 127
1, 37770, Note_on_c, 1, 64, 127
1, 37799, Note_off_c, 1, 74, 0
1, 37799, Note_off_c, 1, 68, 0
1, 37799, Note_off_c, 1, 62, 0
1, 37799, Note_off_c, 1, 47, 0
1, 37799, Note_off_c, 1, 76, 0
1, 37799, Note_off_c, 1, 64, 0
1, 37800, Note_on_c, 1, 73, 127
1, 37800, Note_on_c, 1, 69, 127
1, 37800, Note_on_c, 1, 64, 127
1, 37800, Note_on_c, 1, 45, 127
1, 37800, Note_on_c, 1, 76, 127
1, 37829, Note_off_c, 1, 76, 0
1, 37859, Note_off_c, 1, 73, 0
1, 37859, Note_off_c, 1, 69, 0
1, 37859, Note_off_c, 1, 64, 0
1, 37859, Note_off_c, 1, 45, 0
1, 37860, Note_on_c, 1, 57, 127
1, 37860, Note_on_c, 1, 72, 127
1, 37860, Note_on_c, 1, 64, 127
1, 37860, Note_on_c, 1, 69, 127
1, 37889, Note_off_c, 1, 69, 0
1, 37890, Note_on_c, 1, 76, 127
1, 37919, Note_off_c, 1, 57, 0
1, 37919, Note_off_c, 1, 64, 0
1, 37919, Note_off_c, 1, 76, 0
1, 37920, Note_on_c, 1, 55, 127
1, 37920, Note_on_c, 1, 81, 127
1, 37920, Note_on_c, 1, 62, 127
1, 37949, Note_off_c, 1, 81, 0
1, 37950, Note_on_c, 1, 79, 127
1, 37979, Note_off_c, 1, 72, 0
1, 37979, Note_off_c, 1, 55, 0
1, 37979, Note_off_c, 1, 62, 0
1, 37979, Note_off_c, 1, 79, 0
1, 37980, Note_on_c, 1, 72, 127
1, 37980, Note_on_c, 1, 69, 127
1, 37980, Note_on_c, 1, 62, 127
1, 37980, Note_on_c, 1, 54, 127
1, 37980, Note_on_c, 1, 50, 127
1, 37980, Note_on_c, 1, 81, 127
1, 37980, Note_on_c, 1, 57, 127
1, 37995, Note_on_c, 1, 70, 127
1, 38009, Note_off_c, 1, 70, 0
1, 38010, Note_off_c, 1, 57, 0
1, 38010, Note_on_c, 1, 60, 127
1, 38010, Note_on_c, 1, 78, 127
1, 38025, Note_on_c, 1, 67, 127
1, 38039, Note_off_c, 1, 72, 0
1, 38039, Note_off_c, 1, 69, 0
1, 38039, Note_off_c, 1, 62, 0
1, 38039, Note_off_c, 1, 54, 0
1, 38039, Note_off_c, 1, 50, 0
1, 38039, Note_off_c, 1, 78, 0
1, 38039, Note_off_c, 1, 67, 0
1, 38040, Note_off_c, 1, 60, 0
1, 38040, Note_on_c, 1, 66, 127
1, 38054, Note_off_c, 1, 66, 0
1, 38055, Note_on_c, 1, 64, 127
1, 38069, Note_off_c, 1, 64, 0
1, 38100, Note_on_c, 1, 74, 127
1, 38129, Note_off_c, 1, 74, 0
1, 38160, Note_on_c, 1, 71, 127
1, 38160, Note_on_c, 1, 55, 127
1, 38160, Note_on_c, 1, 43, 127
1, 38190, Note_off_c, 1, 81, 0
1, 38219, Note_off_c, 1, 71, 0
1, 38219, Note_off_c, 1, 55, 0
1, 38219, Note_off_c, 1, 43, 0
1, 38220, Note_on_c, 1, 55, 127
1, 38220, Note_on_c, 1, 70, 127
1, 38220, Note_on_c, 1, 62, 127
1, 38220, Note_on_c, 1, 67, 127
1, 38249, Note_off_c, 1, 67, 0
1, 38250, Note_on_c, 1, 74, 127
1, 38279, Note_off_c, 1, 55, 0
1, 38279, Note_off_c, 1, 62, 0
1, 38279, Note_off_c, 1, 74, 0
1, 38280, Note_on_c, 1, 53, 127
1, 38280, Note_on_c, 1, 58, 127
1, 38280, Note_on_c, 1, 79, 127
1, 38309, Note_off_c, 1, 79, 0
1, 38310, Note_on_c, 1, 77, 127
1, 38339, Note_off_c, 1, 53, 0
1, 38339, Note_off_c, 1, 58, 0
1, 38339, Note_off_c, 1, 77, 0
1, 38340, Note_on_c, 1, 60, 127
1, 38340, Note_on_c, 1, 52, 127
1, 38340, Note_on_c, 1, 48, 127
1, 38355, Note_on_c, 1, 69, 127
1, 38369, Note_off_c, 1, 69, 0
1, 38370, Note_on_c, 1, 76, 127
1, 38385, Note_on_c, 1, 65, 127
1, 38399, Note_off_c, 1, 70, 0
1, 38399, Note_off_c, 1, 60, 0
1, 38399, Note_off_c, 1, 52, 0
1, 38399, Note_off_c, 1, 48, 0
1, 38399, Note_off_c, 1, 76, 0
1, 38399, Note_off_c, 1, 65, 0
1, 38400, Note_on_c, 1, 64, 127
1, 38414, Note_off_c, 1, 64, 0
1, 38460, Note_on_c, 1, 72, 127
1, 38489, Note_off_c, 1, 72, 0
1, 38520, Note_on_c, 1, 41, 127
1, 38579, Note_off_c, 1, 41, 0
1, 38580, Note_on_c, 1, 53, 127
1, 38580, Note_on_c, 1, 81, 127
1, 38580, Note_on_c, 1, 69, 127
1, 38580, Note_on_c, 1, 60, 127
1, 38580, Note_on_c, 1, 65, 127
1, 38609, Note_off_c, 1, 69, 0
1, 38609, Note_off_c, 1, 65, 0
1, 38610, Note_on_c, 1, 72, 127
1, 38639, Note_off_c, 1, 53, 0
1, 38639, Note_off_c, 1, 60, 0
1, 38639, Note_off_c, 1, 72, 0
1, 38640, Note_on_c, 1, 52, 127
1, 38640, Note_on_c, 1, 57, 127
1, 38640, Note_on_c, 1, 77, 127
1, 38669, Note_off_c, 1, 77, 0
1, 38670, Note_on_c, 1, 76, 127
1, 38699, Note_off_c, 1, 52, 0
1, 38699, Note_off_c, 1, 57, 0
1, 38699, Note_off_c, 1, 76, 0
1, 38700, Note_on_c, 1, 62, 127
1, 38700, Note_on_c, 1, 50, 127
1, 38700, Note_on_c, 1, 46, 127
1, 38715, Note_on_c, 1, 79, 127
1, 38729, Note_off_c, 1, 79, 0
1, 38730, Note_on_c, 1, 74, 127
1, 38759, Note_off_c, 1, 81, 0
1, 38759, Note_off_c, 1, 62, 0
1, 38759, Note_off_c, 1, 50, 0
1, 38759, Note_off_c, 1, 46, 0
1, 38759, Note_off_c, 1, 74, 0
1, 38790, Note_on_c, 1, 70, 127
1, 38819, Note_off_c, 1, 70, 0
1, 38820, Note_on_c, 1, 82, 127
1, 38849, Note_off_c, 1, 82, 0
1, 38880, Note_on_c, 1, 67, 127
1, 38880, Note_on_c, 1, 40, 127
1, 38910, Note_on_c, 1, 64, 127
1, 38939, Note_off_c, 1, 67, 0
1, 38939, Note_off_c, 1, 40, 0
1, 38939, Note_off_c, 1, 64, 0
1, 38940, Note_on_c, 1, 58, 127
1, 38999, Note_off_c, 1, 58, 0
1, 39000, Note_on_c, 1, 55, 127
1, 39059, Note_off_c, 1, 55, 0
1, 39060, Note_on_c, 1, 49, 127
1, 39060, Note_on_c, 1, 45, 127
1, 39090, Note_on_c, 1, 73, 127
1, 39119, Note_off_c, 1, 49, 0
1, 39119, Note_off_c, 1, 45, 0
1, 39119, Note_off_c, 1, 73, 0
1, 39120, Note_on_c, 1, 45, 127
1, 39120, Note_on_c, 1, 73, 127
1, 39120, Note_on_c, 1, 49, 127
1, 39120, Note_on_c, 1, 76, 127
1, 39120, Note_on_c, 1, 55, 127
1, 39120, Note_on_c, 1, 64, 127
1, 39120, Note_on_c, 1, 52, 127
1, 39134, Note_off_c, 1, 73, 0
1, 39135, Note_on_c, 1, 71, 127
1, 39149, Note_off_c, 1, 76, 0
1, 39149, Note_off_c, 1, 64, 0
1, 39149, Note_off_c, 1, 71, 0
1, 39150, Note_on_c, 1, 69, 127
1, 39150, Note_on_c, 1, 67, 127
1, 39179, Note_off_c, 1, 45, 0
1, 39179, Note_off_c, 1, 49, 0
1, 39179, Note_off_c, 1, 55, 0
1, 39179, Note_off_c, 1, 52, 0
1, 39179, Note_off_c, 1, 69, 0
1, 39179, Note_off_c, 1, 67, 0
1, 39180, Note_on_c, 1, 81, 127
1, 39180, Note_on_c, 1, 52, 127
1, 39180, Note_on_c, 1, 69, 127
1, 39180, Note_on_c, 1, 57, 127
1, 39180, Note_on_c, 1, 73, 127
1, 39180, Note_on_c, 1, 45, 127
1, 39209, Note_off_c, 1, 81, 0
1, 39209, Note_off_c, 1, 69, 0
1, 39209, Note_off_c, 1, 73, 0
1, 39210, Note_on_c, 1, 79, 127
1, 39210, Note_on_c, 1, 76, 127
1, 39239, Note_off_c, 1, 52, 0
1, 39239, Note_off_c, 1, 57, 0
1, 39239, Note_off_c, 1, 45, 0
1, 39239, Note_off_c, 1, 79, 0
1, 39239, Note_off_c, 1, 76, 0
1, 39240, Note_on_c, 1, 77, 127
1, 39240, Note_on_c, 1, 74, 127
1, 39240, Note_on_c, 1, 69, 127
1, 39240, Note_on_c, 1, 38, 127
1, 39240, Note_on_c, 1, 50, 127
1, 39299, Note_off_c, 1, 77, 0
1, 39299, Note_off_c, 1, 74, 0
1, 39299, Note_off_c, 1, 69, 0
1, 39299, Note_off_c, 1, 50, 0
1, 39300, Note_on_c, 1, 73, 127
1, 39329, Note_off_c, 1, 73, 0
1, 39360, Note_on_c, 1, 79, 127
1, 39360, Note_on_c, 1, 52, 127
1, 39389, Note_off_c, 1, 79, 0
1, 39419, Note_off_c, 1, 52, 0
1, 39420, Note_on_c, 1, 81, 127
1, 39420, Note_on_c, 1, 53, 127
1, 39420, Note_on_c, 1, 65, 127
1, 39449, Note_off_c, 1, 81, 0
1, 39479, Note_off_c, 1, 53, 0
1, 39479, Note_off_c, 1, 65, 0
1, 39480, Note_on_c, 1, 67, 127
1, 39480, Note_on_c, 1, 76, 127
1, 39539, Note_off_c, 1, 67, 0
1, 39539, Note_off_c, 1, 76, 0
1, 39780, Note_on_c, 1, 82, 127
1, 39780, Note_on_c, 1, 55, 127
1, 39809, Note_off_c, 1, 82, 0
1, 39839, Note_off_c, 1, 55, 0
1, 39900, Note_on_c, 1, 70, 127
1, 39959, Note_off_c, 1, 70, 0
1, 40140, Note_on_c, 1, 84, 127
1, 40140, Note_on_c, 1, 57, 127
1, 40140, Note_on_c, 1, 78, 127
1, 40140, Note_on_c, 1, 66, 127
1, 40169, Note_off_c, 1, 84, 0
1, 40199, Note_off_c, 1, 57, 0
1, 40199, Note_off_c, 1, 78, 0
1, 40199, Note_off_c, 1, 66, 0
1, 40260, Note_on_c, 1, 54, 127
1, 40260, Note_on_c, 1, 72, 127
1, 40319, Note_off_c, 1, 54, 0
1, 40319, Note_off_c, 1, 72, 0
1, 40320, Note_off_c, 1, 38, 0
1, 40320, Note_on_c, 1, 43, 127
1, 40379, Note_off_c, 1, 43, 0
1, 40380, Note_on_c, 1, 74, 127
1, 40380, Note_on_c, 1, 70, 127
1, 40380, Note_on_c, 1, 67, 127
1, 40380, Note_on_c, 1, 55, 127
1, 40425, Note_on_c, 1, 79, 127
1, 40439, Note_off_c, 1, 74, 0
1, 40439, Note_off_c, 1, 70, 0
1, 40439, Note_off_c, 1, 67, 0
1, 40439, Note_off_c, 1, 55, 0
1, 40439, Note_off_c, 1, 79, 0
1, 40440, Note_on_c, 1, 74, 127
1, 40440, Note_on_c, 1, 70, 127
1, 40440, Note_on_c, 1, 67, 127
1, 40440, Note_on_c, 1, 82, 127
1, 40454, Note_off_c, 1, 82, 0
1, 40455, Note_on_c, 1, 86, 127
1, 40469, Note_off_c, 1, 86, 0
1, 40485, Note_on_c, 1, 79, 127
1, 40499, Note_off_c, 1, 74, 0
1, 40499, Note_off_c, 1, 70, 0
1, 40499, Note_off_c, 1, 67, 0
1, 40499, Note_off_c, 1, 79, 0
1, 40500, Note_on_c, 1, 74, 127
1, 40500, Note_on_c, 1, 69, 127
1, 40500, Note_on_c, 1, 62, 127
1, 40500, Note_on_c, 1, 41, 127
1, 40500, Note_on_c, 1, 81, 127
1, 40514, Note_off_c, 1, 81, 0
1, 40515, Note_on_c, 1, 77, 127
1, 40529, Note_off_c, 1, 77, 0
1, 40559, Note_off_c, 1, 74, 0
1, 40559, Note_off_c, 1, 69, 0
1, 40559, Note_off_c, 1, 62, 0
1, 40559, Note_off_c, 1, 41, 0
1, 40560, Note_on_c, 1, 74, 127
1, 40560, Note_on_c, 1, 69, 127
1, 40560, Note_on_c, 1, 62, 127
1, 40560, Note_on_c, 1, 53, 127
1, 40560, Note_on_c, 1, 65, 127
1, 40574, Note_off_c, 1, 65, 0
1, 40605, Note_on_c, 1, 77, 127
1, 40619, Note_off_c, 1, 74, 0
1, 40619, Note_off_c, 1, 69, 0
1, 40619, Note_off_c, 1, 62, 0
1, 40619, Note_off_c, 1, 53, 0
1, 40619, Note_off_c, 1, 77, 0
1, 40620, Note_on_c, 1, 74, 127
1, 40620, Note_on_c, 1, 69, 127
1, 40620, Note_on_c, 1, 62, 127
1, 40620, Note_on_c, 1, 81, 127
1, 40634, Note_off_c, 1, 81, 0
1, 40635, Note_on_c, 1, 86, 127
1, 40649, Note_off_c, 1, 86, 0
1, 40665, Note_on_c, 1, 77, 127
1, 40679, Note_off_c, 1, 74, 0
1, 40679, Note_off_c, 1, 69, 0
1, 40679, Note_off_c, 1, 62, 0
1, 40679, Note_off_c, 1, 77, 0
1, 40680, Note_on_c, 1, 73, 127
1, 40680, Note_on_c, 1, 67, 127
1, 40680, Note_on_c, 1, 64, 127
1, 40680, Note_on_c, 1, 40, 127
1, 40680, Note_on_c, 1, 79, 127
1, 40694, Note_off_c, 1, 79, 0
1, 40695, Note_on_c, 1, 76, 127
1, 40709, Note_off_c, 1, 76, 0
1, 40725, Note_on_c, 1, 69, 127
1, 40739, Note_off_c, 1, 73, 0
1, 40739, Note_off_c, 1, 67, 0
1, 40739, Note_off_c, 1, 64, 0
1, 40739, Note_off_c, 1, 40, 0
1, 40739, Note_off_c, 1, 69, 0
1, 40740, Note_on_c, 1, 73, 127
1, 40740, Note_on_c, 1, 67, 127
1, 40740, Note_on_c, 1, 64, 127
1, 40740, Note_on_c, 1, 52, 127
1, 40755, Note_on_c, 1, 69, 127
1, 40769, Note_off_c, 1, 69, 0
1, 40785, Note_on_c, 1, 76, 127
1, 40799, Note_off_c, 1, 73, 0
1, 40799, Note_off_c, 1, 67, 0
1, 40799, Note_off_c, 1, 64, 0
1, 40799, Note_off_c, 1, 52, 0
1, 40799, Note_off_c, 1, 76, 0
1, 40800, Note_on_c, 1, 73, 127
1, 40800, Note_on_c, 1, 67, 127
1, 40800, Note_on_c, 1, 64, 127
1, 40800, Note_on_c, 1, 79, 127
1, 40814, Note_off_c, 1, 79, 0
1, 40815, Note_on_c, 1, 82, 127
1, 40829, Note_off_c, 1, 82, 0
1, 40845, Note_on_c, 1, 76, 127
1, 40859, Note_off_c, 1, 73, 0
1, 40859, Note_off_c, 1, 67, 0
1, 40859, Note_off_c, 1, 64, 0
1, 40859, Note_off_c, 1, 76, 0
1, 40860, Note_on_c, 1, 74, 127
1, 40860, Note_on_c, 1, 65, 127
1, 40860, Note_on_c, 1, 57, 127
1, 40860, Note_on_c, 1, 38, 127
1, 40860, Note_on_c, 1, 77, 127
1, 40874, Note_off_c, 1, 77, 0
1, 40875, Note_on_c, 1, 81, 127
1, 40889, Note_off_c, 1, 81, 0
1, 40919, Note_off_c, 1, 74, 0
1, 40919, Note_off_c, 1, 65, 0
1, 40919, Note_off_c, 1, 57, 0
1, 40919, Note_off_c, 1, 38, 0
1, 40920, Note_on_c, 1, 50, 127
1, 40920, Note_on_c, 1, 76, 127
1, 40934, Note_off_c, 1, 76, 0
1, 40935, Note_on_c, 1, 79, 127
1, 40949, Note_off_c, 1, 79, 0
1, 40965, Note_on_c, 1, 73, 127
1, 40979, Note_off_c, 1, 50, 0
1, 40979, Note_off_c, 1, 73, 0
1, 40980, Note_on_c, 1, 74, 127
1, 40994, Note_off_c, 1, 74, 0
1, 40995, Note_on_c, 1, 77, 127
1, 41009, Note_off_c, 1, 77, 0
1, 41010, Note_on_c, 1, 74, 127
1, 41024, Note_off_c, 1, 74, 0
1, 41025, Note_on_c, 1, 69, 127
1, 41039, Note_off_c, 1, 69, 0
1, 41040, Note_on_c, 1, 70, 127
1, 41054, Note_off_c, 1, 70, 0
1, 41055, Note_on_c, 1, 67, 127
1, 41069, Note_off_c, 1, 67, 0
1, 41070, Note_on_c, 1, 65, 127
1, 41084, Note_off_c, 1, 65, 0
1, 41085, Note_on_c, 1, 64, 127
1, 41099, Note_off_c, 1, 64, 0
1, 41100, Note_on_c, 1, 69, 127
1, 41114, Note_off_c, 1, 69, 0
1, 41115, Note_on_c, 1, 65, 127
1, 41129, Note_off_c, 1, 65, 0
1, 41130, Note_on_c, 1, 64, 127
1, 41144, Note_off_c, 1, 64, 0
1, 41145, Note_on_c, 1, 62, 127
1, 41159, Note_off_c, 1, 62, 0
1, 41160, Note_on_c, 1, 67, 127
1, 41174, Note_off_c, 1, 67, 0
1, 41175, Note_on_c, 1, 64, 127
1, 41189, Note_off_c, 1, 64, 0
1, 41190, Note_on_c, 1, 62, 127
1, 41204, Note_off_c, 1, 62, 0
1, 41205, Note_on_c, 1, 61, 127
1, 41219, Note_off_c, 1, 61, 0
1, 41220, Note_on_c, 1, 65, 127
1, 41234, Note_off_c, 1, 65, 0
1, 41235, Note_on_c, 1, 62, 127
1, 41249, Note_off_c, 1, 62, 0
1, 41250, Note_on_c, 1, 60, 127
1, 41264, Note_off_c, 1, 60, 0
1, 41265, Note_on_c, 1, 58, 127
1, 41279, Note_off_c, 1, 58, 0
1, 41280, Note_on_c, 1, 57, 127
1, 41294, Note_off_c, 1, 57, 0
1, 41295, Note_on_c, 1, 55, 127
1, 41309, Note_off_c, 1, 55, 0
1, 41310, Note_on_c, 1, 53, 127
1, 41324, Note_off_c, 1, 53, 0
1, 41325, Note_on_c, 1, 52, 127
1, 41339, Note_off_c, 1, 52, 0
1, 41340, Note_on_c, 1, 50, 127
1, 41354, Note_off_c, 1, 50, 0
1, 41355, Note_on_c, 1, 48, 127
1, 41369, Note_off_c, 1, 48, 0
1, 41370, Note_on_c, 1, 47, 127
1, 41384, Note_off_c, 1, 47, 0
1, 41385, Note_on_c, 1, 45, 127
1, 41399, Note_off_c, 1, 45, 0
1, 41400, Note_on_c, 1, 74, 127
1, 41400, Note_on_c, 1, 65, 127
1, 41400, Note_on_c, 1, 44, 127
1, 41415, Note_on_c, 1, 47, 127
1, 41429, Note_off_c, 1, 47, 0
1, 41430, Note_on_c, 1, 50, 127
1, 41444, Note_off_c, 1, 50, 0
1, 41445, Note_on_c, 1, 53, 127
1, 41459, Note_off_c, 1, 53, 0
1, 41460, Note_on_c, 1, 59, 127
1, 41474, Note_off_c, 1, 59, 0
1, 41475, Note_on_c, 1, 62, 127
1, 41489, Note_off_c, 1, 62, 0
1, 41505, Note_on_c, 1, 68, 127
1, 41519, Note_off_c, 1, 68, 0
1, 41580, Note_on_c, 1, 56, 127
1, 41594, Note_off_c, 1, 56, 0
1, 41655, Note_on_c, 1, 71, 127
1, 41669, Note_off_c, 1, 71, 0
1, 41685, Note_on_c, 1, 77, 127
1, 41699, Note_off_c, 1, 77, 0
1, 41700, Note_on_c, 1, 83, 127
1, 41714, Note_off_c, 1, 83, 0
1, 41730, Note_on_c, 1, 76, 127
1, 41744, Note_off_c, 1, 76, 0
1, 41759, Note_off_c, 1, 74, 0
1, 41759, Note_off_c, 1, 44, 0
1, 41760, Note_off_c, 1, 65, 0
1, 41760, Note_on_c, 1, 73, 127
1, 41760, Note_on_c, 1, 69, 127
1, 41760, Note_on_c, 1, 64, 127
1, 41760, Note_on_c, 1, 45, 127
1, 41760, Note_on_c, 1, 57, 127
1, 41819, Note_off_c, 1, 73, 0
1, 41819, Note_off_c, 1, 69, 0
1, 41819, Note_off_c, 1, 64, 0
1, 41819, Note_off_c, 1, 57, 0
1, 41940, Note_on_c, 1, 61, 127
1, 41940, Note_on_c, 1, 67, 127
1, 41999, Note_off_c, 1, 61, 0
1, 41999, Note_off_c, 1, 67, 0
1, 42060, Note_on_c, 1, 79, 127
1, 42060, Note_on_c, 1, 70, 127
1, 42119, Note_off_c, 1, 79, 0
1, 42119, Note_off_c, 1, 70, 0
1, 42899, Note_off_c, 1, 45, 0
1, 42900, Note_on_c, 1, 45, 127
1, 42900, Note_on_c, 1, 81, 127
1, 42900, Note_on_c, 1, 65, 127
1, 42900, Note_on_c, 1, 69, 127
1, 42900, Note_on_c, 1, 74, 127
1, 42900, Note_on_c, 1, 57, 127
1, 42914, Note_off_c, 1, 81, 0
1, 42915, Note_on_c, 1, 73, 127
1, 42929, Note_off_c, 1, 73, 0
1, 42959, Note_off_c, 1, 45, 0
1, 42959, Note_off_c, 1, 65, 0
1, 42959, Note_off_c, 1, 69, 0
1, 42959, Note_off_c, 1, 74, 0
1, 42959, Note_off_c, 1, 57, 0
1, 42960, Note_on_c, 1, 45, 127
1, 42960, Note_on_c, 1, 77, 127
1, 42960, Note_on_c, 1, 62, 127
1, 42960, Note_on_c, 1, 69, 127
1, 42960, Note_on_c, 1, 65, 127
1, 42974, Note_off_c, 1, 77, 0
1, 42975, Note_on_c, 1, 73, 127
1, 42989, Note_off_c, 1, 73, 0
1, 42990, Note_on_c, 1, 74, 127
1, 43019, Note_off_c, 1, 45, 0
1, 43019, Note_off_c, 1, 62, 0
1, 43019, Note_off_c, 1, 69, 0
1, 43019, Note_off_c, 1, 65, 0
1, 43019, Note_off_c, 1, 74, 0
1, 43020, Note_on_c, 1, 76, 127
1, 43020, Note_on_c, 1, 73, 127
1, 43020, Note_on_c, 1, 67, 127
1, 43020, Note_on_c, 1, 45, 127
1, 43035, Note_on_c, 1, 70, 127
1, 43049, Note_off_c, 1, 70, 0
1, 43065, Note_on_c, 1, 69, 127
1, 43079, Note_off_c, 1, 76, 0
1, 43079, Note_off_c, 1, 73, 0
1, 43079, Note_off_c, 1, 67, 0
1, 43079, Note_off_c, 1, 45, 0
1, 43079, Note_off_c, 1, 69, 0
1, 43080, Note_on_c, 1, 45, 127
1, 43080, Note_on_c, 1, 79, 127
1, 43080, Note_on_c, 1, 64, 127
1, 43080, Note_on_c, 1, 73, 127
1, 43080, Note_on_c, 1, 69, 127
1, 43080, Note_on_c, 1, 57, 127
1, 43094, Note_off_c, 1, 79, 0
1, 43095, Note_on_c, 1, 70, 127
1, 43109, Note_off_c, 1, 70, 0
1, 43139, Note_off_c, 1, 45, 0
1, 43139, Note_off_c, 1, 64, 0
1, 43139, Note_off_c, 1, 73, 0
1, 43139, Note_off_c, 1, 69, 0
1, 43139, Note_off_c, 1, 57, 0
1, 43140, Note_on_c, 1, 45, 127
1, 43140, Note_on_c, 1, 76, 127
1, 43140, Note_on_c, 1, 67, 127
1, 43140, Note_on_c, 1, 64, 127
1, 43140, Note_on_c, 1, 61, 127
1, 43154, Note_off_c, 1, 76, 0
1, 43155, Note_on_c, 1, 70, 127
1, 43169, Note_off_c, 1, 70, 0
1, 43170, Note_on_c, 1, 73, 127
1, 43185, Note_on_c, 1, 69, 127
1, 43199, Note_off_c, 1, 45, 0
1, 43199, Note_off_c, 1, 67, 0
1, 43199, Note_off_c, 1, 64, 0
1, 43199, Note_off_c, 1, 61, 0
1, 43199, Note_off_c, 1, 73, 0
1, 43199, Note_off_c, 1, 69, 0
1, 43200, Note_on_c, 1, 74, 127
1, 43200, Note_on_c, 1, 71, 127
1, 43200, Note_on_c, 1, 65, 127
1, 43200, Note_on_c, 1, 45, 127
1, 43215, Note_on_c, 1, 69, 127
1, 43229, Note_off_c, 1, 69, 0
1, 43245, Note_on_c, 1, 68, 127
1, 43259, Note_off_c, 1, 74, 0
1, 43259, Note_off_c, 1, 71, 0
1, 43259, Note_off_c, 1, 65, 0
1, 43259, Note_off_c, 1, 45, 0
1, 43259, Note_off_c, 1, 68, 0
1, 43260, Note_on_c, 1, 45, 127
1, 43260, Note_on_c, 1, 77, 127
1, 43260, Note_on_c, 1, 62, 127
1, 43260, Note_on_c, 1, 71, 127
1, 43260, Note_on_c, 1, 68, 127
1, 43260, Note_on_c, 1, 57, 127
1, 43274, Note_off_c, 1, 77, 0
1, 43275, Note_on_c, 1, 69, 127
1, 43289, Note_off_c, 1, 69, 0
1, 43319, Note_off_c, 1, 45, 0
1, 43319, Note_off_c, 1, 62, 0
1, 43319, Note_off_c, 1, 71, 0
1, 43319, Note_off_c, 1, 68, 0
1, 43319, Note_off_c, 1, 57, 0
1, 43320, Note_on_c, 1, 45, 127
1, 43320, Note_on_c, 1, 74, 127
1, 43320, Note_on_c, 1, 65, 127
1, 43320, Note_on_c, 1, 62, 127
1, 43320, Note_on_c, 1, 57, 127
1, 43334, Note_off_c, 1, 74, 0
1, 43335, Note_on_c, 1, 69, 127
1, 43349, Note_off_c, 1, 69, 0
1, 43350, Note_on_c, 1, 71, 127
1, 43365, Note_on_c, 1, 68, 127
1, 43379, Note_off_c, 1, 45, 0
1, 43379, Note_off_c, 1, 65, 0
1, 43379, Note_off_c, 1, 62, 0
1, 43379, Note_off_c, 1, 57, 0
1, 43379, Note_off_c, 1, 71, 0
1, 43379, Note_off_c, 1, 68, 0
1, 43380, Note_on_c, 1, 73, 127
1, 43380, Note_on_c, 1, 69, 127
1, 43380, Note_on_c, 1, 64, 127
1, 43380, Note_on_c, 1, 45, 127
1, 43395, Note_on_c, 1, 68, 127
1, 43409, Note_off_c, 1, 68, 0
1, 43425, Note_on_c, 1, 67, 127
1, 43439, Note_off_c, 1, 73, 0
1, 43439, Note_off_c, 1, 69, 0
1, 43439, Note_off_c, 1, 64, 0
1, 43439, Note_off_c, 1, 45, 0
1, 43439, Note_off_c, 1, 67, 0
1, 43440, Note_on_c, 1, 45, 127
1, 43440, Note_on_c, 1, 76, 127
1, 43440, Note_on_c, 1, 61, 127
1, 43440, Note_on_c, 1, 69, 127
1, 43440, Note_on_c, 1, 64, 127
1, 43440, Note_on_c, 1, 57, 127
1, 43454, Note_off_c, 1, 76, 0
1, 43455, Note_on_c, 1, 68, 127
1, 43469, Note_off_c, 1, 68, 0
1, 43485, Note_on_c, 1, 67, 127
1, 43499, Note_off_c, 1, 45, 0
1, 43499, Note_off_c, 1, 61, 0
1, 43499, Note_off_c, 1, 69, 0
1, 43499, Note_off_c, 1, 64, 0
1, 43499, Note_off_c, 1, 57, 0
1, 43499, Note_off_c, 1, 67, 0
1, 43500, Note_on_c, 1, 45, 127
1, 43500, Note_on_c, 1, 73, 127
1, 43500, Note_on_c, 1, 64, 127
1, 43500, Note_on_c, 1, 61, 127
1, 43500, Note_on_c, 1, 57, 127
1, 43514, Note_off_c, 1, 73, 0
1, 43515, Note_on_c, 1, 68, 127
1, 43529, Note_off_c, 1, 68, 0
1, 43530, Note_on_c, 1, 69, 127
1, 43545, Note_on_c, 1, 67, 127
1, 43559, Note_off_c, 1, 45, 0
1, 43559, Note_off_c, 1, 64, 0
1, 43559, Note_off_c, 1, 61, 0
1, 43559, Note_off_c, 1, 57, 0
1, 43559, Note_off_c, 1, 69, 0
1, 43559, Note_off_c, 1, 67, 0
1, 43560, Note_on_c, 1, 72, 127
1, 43560, Note_on_c, 1, 68, 127
1, 43560, Note_on_c, 1, 62, 127
1, 43560, Note_on_c, 1, 45, 127
1, 43560, Note_on_c, 1, 71, 127
1, 43574, Note_off_c, 1, 71, 0
1, 43590, Note_on_c, 1, 69, 127
1, 43605, Note_on_c, 1, 65, 127
1, 43619, Note_off_c, 1, 72, 0
1, 43619, Note_off_c, 1, 68, 0
1, 43619, Note_off_c, 1, 62, 0
1, 43619, Note_off_c, 1, 45, 0
1, 43619, Note_off_c, 1, 69, 0
1, 43619, Note_off_c, 1, 65, 0
1, 43620, Note_on_c, 1, 45, 127
1, 43620, Note_on_c, 1, 74, 127
1, 43620, Note_on_c, 1, 59, 127
1, 43620, Note_on_c, 1, 68, 127
1, 43620, Note_on_c, 1, 64, 127
1, 43620, Note_on_c, 1, 57, 127
1, 43634, Note_off_c, 1, 74, 0
1, 43650, Note_on_c, 1, 69, 127
1, 43665, Note_on_c, 1, 65, 127
1, 43679, Note_off_c, 1, 45, 0
1, 43679, Note_off_c, 1, 59, 0
1, 43679, Note_off_c, 1, 68, 0
1, 43679, Note_off_c, 1, 64, 0
1, 43679, Note_off_c, 1, 57, 0
1, 43679, Note_off_c, 1, 69, 0
1, 43679, Note_off_c, 1, 65, 0
1, 43680, Note_on_c, 1, 45, 127
1, 43680, Note_on_c, 1, 72, 127
1, 43680, Note_on_c, 1, 62, 127
1, 43680, Note_on_c, 1, 59, 127
1, 43680, Note_on_c, 1, 56, 127
1, 43694, Note_off_c, 1, 72, 0
1, 43695, Note_on_c, 1, 68, 127
1, 43709, Note_off_c, 1, 68, 0
1, 43710, Note_on_c, 1, 69, 127
1, 43725, Note_on_c, 1, 65, 127
1, 43739, Note_off_c, 1, 45, 0
1, 43739, Note_off_c, 1, 62, 0
1, 43739, Note_off_c, 1, 59, 0
1, 43739, Note_off_c, 1, 56, 0
1, 43739, Note_off_c, 1, 69, 0
1, 43739, Note_off_c, 1, 65, 0
1, 43740, Note_on_c, 1, 73, 127
1, 43740, Note_on_c, 1, 67, 127
1, 43740, Note_on_c, 1, 64, 127
1, 43740, Note_on_c, 1, 45, 127
1, 43755, Note_on_c, 1, 69, 127
1, 43769, Note_off_c, 1, 69, 0
1, 43770, Note_on_c, 1, 70, 127
1, 43799, Note_off_c, 1, 73, 0
1, 43799, Note_off_c, 1, 67, 0
1, 43799, Note_off_c, 1, 64, 0
1, 43799, Note_off_c, 1, 45, 0
1, 43799, Note_off_c, 1, 70, 0
1, 43800, Note_on_c, 1, 45, 127
1, 43800, Note_on_c, 1, 76, 127
1, 43800, Note_on_c, 1, 61, 127
1, 43800, Note_on_c, 1, 67, 127
1, 43800, Note_on_c, 1, 64, 127
1, 43800, Note_on_c, 1, 57, 127
1, 43814, Note_off_c, 1, 76, 0
1, 43815, Note_on_c, 1, 69, 127
1, 43829, Note_off_c, 1, 69, 0
1, 43830, Note_on_c, 1, 70, 127
1, 43859, Note_off_c, 1, 45, 0
1, 43859, Note_off_c, 1, 61, 0
1, 43859, Note_off_c, 1, 67, 0
1, 43859, Note_off_c, 1, 64, 0
1, 43859, Note_off_c, 1, 57, 0
1, 43859, Note_off_c, 1, 70, 0
1, 43860, Note_on_c, 1, 45, 127
1, 43860, Note_on_c, 1, 73, 127
1, 43860, Note_on_c, 1, 57, 127
1, 43860, Note_on_c, 1, 64, 127
1, 43860, Note_on_c, 1, 55, 127
1, 43860, Note_on_c, 1, 61, 127
1, 43874, Note_off_c, 1, 73, 0
1, 43875, Note_on_c, 1, 69, 127
1, 43889, Note_off_c, 1, 69, 0
1, 43890, Note_on_c, 1, 70, 127
1, 43905, Note_off_c, 1, 57, 0
1, 43905, Note_on_c, 1, 67, 127
1, 43919, Note_off_c, 1, 45, 0
1, 43919, Note_off_c, 1, 64, 0
1, 43919, Note_off_c, 1, 55, 0
1, 43919, Note_off_c, 1, 61, 0
1, 43919, Note_off_c, 1, 70, 0
1, 43919, Note_off_c, 1, 67, 0
1, 43920, Note_on_c, 1, 74, 127
1, 43920, Note_on_c, 1, 65, 127
1, 43920, Note_on_c, 1, 62, 127
1, 43920, Note_on_c, 1, 46, 127
1, 43920, Note_on_c, 1, 58, 127
1, 43935, Note_on_c, 1, 72, 127
1, 43949, Note_off_c, 1, 72, 0
1, 43950, Note_on_c, 1, 70, 127
1, 43964, Note_off_c, 1, 70, 0
1, 43965, Note_on_c, 1, 69, 127
1, 43979, Note_off_c, 1, 46, 0
1, 43979, Note_off_c, 1, 69, 0
1, 43980, Note_on_c, 1, 67, 127
1, 43994, Note_off_c, 1, 67, 0
1, 44010, Note_on_c, 1, 64, 127
1, 44024, Note_off_c, 1, 64, 0
1, 44039, Note_off_c, 1, 58, 0
1, 44040, Note_on_c, 1, 60, 127
1, 44040, Note_on_c, 1, 77, 127
1, 44054, Note_off_c, 1, 60, 0
1, 44070, Note_on_c, 1, 57, 127
1, 44084, Note_off_c, 1, 57, 0
1, 44085, Note_on_c, 1, 55, 127
1, 44099, Note_off_c, 1, 65, 0
1, 44099, Note_off_c, 1, 62, 0
1, 44099, Note_off_c, 1, 77, 0
1, 44099, Note_off_c, 1, 55, 0
1, 44100, Note_on_c, 1, 80, 127
1, 44100, Note_on_c, 1, 59, 127
1, 44100, Note_on_c, 1, 47, 127
1, 44100, Note_on_c, 1, 53, 127
1, 44100, Note_on_c, 1, 68, 127
1, 44114, Note_off_c, 1, 53, 0
1, 44115, Note_on_c, 1, 52, 127
1, 44129, Note_off_c, 1, 52, 0
1, 44130, Note_on_c, 1, 50, 127
1, 44144, Note_off_c, 1, 50, 0
1, 44145, Note_on_c, 1, 48, 127
1, 44159, Note_off_c, 1, 47, 0
1, 44159, Note_off_c, 1, 68, 0
1, 44159, Note_off_c, 1, 48, 0
1, 44175, Note_on_c, 1, 45, 127
1, 44189, Note_off_c, 1, 45, 0
1, 44190, Note_on_c, 1, 44, 127
1, 44204, Note_off_c, 1, 44, 0
1, 44205, Note_on_c, 1, 42, 127
1, 44219, Note_off_c, 1, 42, 0
1, 44220, Note_on_c, 1, 40, 127
1, 44220, Note_on_c, 1, 83, 127
1, 44234, Note_off_c, 1, 40, 0
1, 44279, Note_off_c, 1, 74, 0
1, 44279, Note_off_c, 1, 59, 0
1, 44279, Note_off_c, 1, 83, 0
1, 44280, Note_off_c, 1, 80, 0
1, 44280, Note_on_c, 1, 81, 127
1, 44280, Note_on_c, 1, 76, 127
1, 44280, Note_on_c, 1, 61, 127
1, 44280, Note_on_c, 1, 49, 127
1, 44280, Note_on_c, 1, 73, 127
1, 44294, Note_off_c, 1, 49, 0
1, 44339, Note_off_c, 1, 81, 0
1, 44339, Note_off_c, 1, 76, 0
1, 44339, Note_off_c, 1, 61, 0
1, 44339, Note_off_c, 1, 73, 0
1, 44340, Note_on_c, 1, 69, 127
1, 44340, Note_on_c, 1, 57, 127
1, 44340, Note_on_c, 1, 49, 127
1, 44340, Note_on_c, 1, 64, 127
1, 44340, Note_on_c, 1, 73, 127
1, 44340, Note_on_c, 1, 45, 127
1, 44354, Note_off_c, 1, 49, 0
1, 44355, Note_on_c, 1, 50, 127
1, 44369, Note_off_c, 1, 50, 0
1, 44370, Note_on_c, 1, 52, 127
1, 44384, Note_off_c, 1, 52, 0
1, 44385, Note_on_c, 1, 53, 127
1, 44399, Note_off_c, 1, 69, 0
1, 44399, Note_off_c, 1, 57, 0
1, 44399, Note_off_c, 1, 64, 0
1, 44399, Note_off_c, 1, 73, 0
1, 44399, Note_off_c, 1, 45, 0
1, 44399, Note_off_c, 1, 53, 0
1, 44400, Note_on_c, 1, 67, 127
1, 44400, Note_on_c, 1, 55, 127
1, 44400, Note_on_c, 1, 76, 127
1, 44400, Note_on_c, 1, 73, 127
1, 44400, Note_on_c, 1, 69, 127
1, 44400, Note_on_c, 1, 64, 127
1, 44400, Note_on_c, 1, 43, 127
1, 44415, Note_on_c, 1, 57, 127
1, 44429, Note_off_c, 1, 57, 0
1, 44430, Note_on_c, 1, 59, 127
1, 44444, Note_off_c, 1, 59, 0
1, 44445, Note_on_c, 1, 61, 127
1, 44459, Note_off_c, 1, 67, 0
1, 44459, Note_off_c, 1, 55, 0
1, 44459, Note_off_c, 1, 76, 0
1, 44459, Note_off_c, 1, 73, 0
1, 44459, Note_off_c, 1, 69, 0
1, 44459, Note_off_c, 1, 64, 0
1, 44459, Note_off_c, 1, 43, 0
1, 44459, Note_off_c, 1, 61, 0
1, 44460, Note_on_c, 1, 65, 127
1, 44460, Note_on_c, 1, 53, 127
1, 44460, Note_on_c, 1, 62, 127
1, 44460, Note_on_c, 1, 69, 127
1, 44460, Note_on_c, 1, 41, 127
1, 44475, Note_on_c, 1, 64, 127
1, 44489, Note_off_c, 1, 64, 0
1, 44505, Note_on_c, 1, 67, 127
1, 44519, Note_off_c, 1, 65, 0
1, 44519, Note_off_c, 1, 53, 0
1, 44519, Note_off_c, 1, 62, 0
1, 44519, Note_off_c, 1, 69, 0
1, 44519, Note_off_c, 1, 41, 0
1, 44519, Note_off_c, 1, 67, 0
1, 44520, Note_on_c, 1, 65, 127
1, 44520, Note_on_c, 1, 53, 127
1, 44520, Note_on_c, 1, 69, 127
1, 44520, Note_on_c, 1, 74, 127
1, 44520, Note_on_c, 1, 41, 127
1, 44535, Note_on_c, 1, 71, 127
1, 44549, Note_off_c, 1, 71, 0
1, 44550, Note_on_c, 1, 73, 127
1, 44564, Note_off_c, 1, 73, 0
1, 44579, Note_off_c, 1, 65, 0
1, 44579, Note_off_c, 1, 53, 0
1, 44579, Note_off_c, 1, 69, 0
1, 44579, Note_off_c, 1, 74, 0
1, 44579, Note_off_c, 1, 41, 0
1, 44580, Note_on_c, 1, 64, 127
1, 44580, Note_on_c, 1, 52, 127
1, 44580, Note_on_c, 1, 76, 127
1, 44580, Note_on_c, 1, 79, 127
1, 44580, Note_on_c, 1, 73, 127
1, 44580, Note_on_c, 1, 69, 127
1, 44580, Note_on_c, 1, 67, 127
1, 44580, Note_on_c, 1, 40, 127
1, 44594, Note_off_c, 1, 76, 0
1, 44610, Note_on_c, 1, 77, 127
1, 44624, Note_off_c, 1, 77, 0
1, 44639, Note_off_c, 1, 64, 0
1, 44639, Note_off_c, 1, 52, 0
1, 44639, Note_off_c, 1, 79, 0
1, 44639, Note_off_c, 1, 73, 0
1, 44639, Note_off_c, 1, 69, 0
1, 44639, Note_off_c, 1, 67, 0
1, 44639, Note_off_c, 1, 40, 0
1, 44640, Note_on_c, 1, 62, 127
1, 44640, Note_on_c, 1, 50, 127
1, 44640, Note_on_c, 1, 77, 127
1, 44640, Note_on_c, 1, 69, 127
1, 44640, Note_on_c, 1, 74, 127
1, 44640, Note_on_c, 1, 65, 127
1, 44640, Note_on_c, 1, 38, 127
1, 44685, Note_on_c, 1, 81, 127
1, 44699, Note_off_c, 1, 62, 0
1, 44699, Note_off_c, 1, 50, 0
1, 44699, Note_off_c, 1, 77, 0
1, 44699, Note_off_c, 1, 69, 0
1, 44699, Note_off_c, 1, 74, 0
1, 44699, Note_off_c, 1, 65, 0
1, 44699, Note_off_c, 1, 38, 0
1, 44699, Note_off_c, 1, 81, 0
1, 44700, Note_on_c, 1, 86, 127
1, 44714, Note_off_c, 1, 86, 0
1, 44715, Note_on_c, 1, 82, 127
1, 44729, Note_off_c, 1, 82, 0
1, 44730, Note_on_c, 1, 53, 127
1, 44730, Note_on_c, 1, 80, 127
1, 44744, Note_off_c, 1, 80, 0
1, 44745, Note_on_c, 1, 77, 127
1, 44759, Note_off_c, 1, 53, 0
1, 44759, Note_off_c, 1, 77, 0
1, 44760, Note_on_c, 1, 58, 127
1, 44760, Note_on_c, 1, 74, 127
1, 44774, Note_off_c, 1, 74, 0
1, 44775, Note_on_c, 1, 70, 127
1, 44789, Note_off_c, 1, 70, 0
1, 44790, Note_on_c, 1, 68, 127
1, 44804, Note_off_c, 1, 68, 0
1, 44805, Note_on_c, 1, 65, 127
1, 44819, Note_off_c, 1, 58, 0
1, 44819, Note_off_c, 1, 65, 0
1, 44820, Note_on_c, 1, 62, 127
1, 44849, Note_off_c, 1, 62, 0
1, 44850, Note_on_c, 1, 56, 127
1, 44850, Note_on_c, 1, 74, 127
1, 44850, Note_on_c, 1, 65, 127
1, 44879, Note_off_c, 1, 56, 0
1, 44879, Note_off_c, 1, 74, 0
1, 44879, Note_off_c, 1, 65, 0
1, 44880, Note_on_c, 1, 57, 127
1, 44880, Note_on_c, 1, 73, 127
1, 44880, Note_on_c, 1, 64, 127
1, 44940, Note_on_c, 1, 45, 127
1, 44969, Note_off_c, 1, 73, 0
1, 44969, Note_off_c, 1, 64, 0
1, 44970, Note_on_c, 1, 74, 127
1, 44970, Note_on_c, 1, 65, 127
1, 44999, Note_off_c, 1, 57, 0
1, 44999, Note_off_c, 1, 45, 0
1, 44999, Note_off_c, 1, 74, 0
1, 44999, Note_off_c, 1, 65, 0
1, 45000, Note_on_c, 1, 50, 127
1, 45000, Note_on_c, 1, 65, 127
1, 45000, Note_on_c, 1, 74, 127
1, 45000, Note_on_c, 1, 62, 127
1, 45014, Note_off_c, 1, 65, 0
1, 45014, Note_off_c, 1, 74, 0
1, 45015, Note_on_c, 1, 86, 127
1, 45029, Note_off_c, 1, 86, 0
1, 45030, Note_on_c, 1, 85, 127
1, 45044, Note_off_c, 1, 85, 0
1, 45045, Note_on_c, 1, 83, 127
1, 45059, Note_off_c, 1, 50, 0
1, 45059, Note_off_c, 1, 62, 0
1, 45059, Note_off_c, 1, 83, 0
1, 45060, Note_on_c, 1, 74, 127
1, 45060, Note_on_c, 1, 41, 127
1, 45060, Note_on_c, 1, 81, 127
1, 45060, Note_on_c, 1, 65, 127
1, 45074, Note_off_c, 1, 81, 0
1, 45075, Note_on_c, 1, 86, 127
1, 45089, Note_off_c, 1, 65, 0
1, 45089, Note_off_c, 1, 86, 0
1, 45090, Note_on_c, 1, 85, 127
1, 45090, Note_on_c, 1, 69, 127
1, 45104, Note_off_c, 1, 85, 0
1, 45105, Note_on_c, 1, 83, 127
1, 45119, Note_off_c, 1, 41, 0
1, 45119, Note_off_c, 1, 69, 0
1, 45119, Note_off_c, 1, 83, 0
1, 45120, Note_on_c, 1, 76, 127
1, 45120, Note_on_c, 1, 45, 127
1, 45135, Note_on_c, 1, 79, 127
1, 45149, Note_off_c, 1, 74, 0
1, 45149, Note_off_c, 1, 79, 0
1, 45150, Note_on_c, 1, 77, 127
1, 45150, Note_on_c, 1, 73, 127
1, 45164, Note_off_c, 1, 77, 0
1, 45179, Note_off_c, 1, 45, 0
1, 45179, Note_off_c, 1, 73, 0
1, 45180, Note_off_c, 1, 76, 0
1, 45180, Note_on_c, 1, 38, 127
1, 45210, Note_on_c, 1, 62, 127
1, 45225, Note_on_c, 1, 71, 127
1, 45239, Note_off_c, 1, 38, 0
1, 45239, Note_off_c, 1, 62, 0
1, 45239, Note_off_c, 1, 71, 0
1, 45240, Note_on_c, 1, 77, 127
1, 45240, Note_on_c, 1, 74, 127
1, 45240, Note_on_c, 1, 69, 127
1, 45240, Note_on_c, 1, 50, 127
1, 45240, Note_on_c, 1, 65, 127
1, 45270, Note_on_c, 1, 73, 127
1, 45284, Note_off_c, 1, 73, 0
1, 45285, Note_on_c, 1, 71, 127
1, 45299, Note_off_c, 1, 77, 0
1, 45299, Note_off_c, 1, 74, 0
1, 45299, Note_off_c, 1, 69, 0
1, 45299, Note_off_c, 1, 50, 0
1, 45299, Note_off_c, 1, 65, 0
1, 45299, Note_off_c, 1, 71, 0
1, 45300, Note_on_c, 1, 79, 127
1, 45300, Note_on_c, 1, 73, 127
1, 45300, Note_on_c, 1, 64, 127
1, 45300, Note_on_c, 1, 52, 127
1, 45300, Note_on_c, 1, 69, 127
1, 45300, Note_on_c, 1, 67, 127
1, 45300, Note_on_c, 1, 76, 127
1, 45300, Note_on_c, 1, 74, 127
1, 45314, Note_off_c, 1, 69, 0
1, 45329, Note_off_c, 1, 74, 0
1, 45330, Note_on_c, 1, 65, 127
1, 45344, Note_off_c, 1, 65, 0
1, 45359, Note_off_c, 1, 79, 0
1, 45359, Note_off_c, 1, 73, 0
1, 45359, Note_off_c, 1, 64, 0
1, 45359, Note_off_c, 1, 52, 0
1, 45359, Note_off_c, 1, 67, 0
1, 45359, Note_off_c, 1, 76, 0
1, 45360, Note_on_c, 1, 81, 127
1, 45360, Note_on_c, 1, 74, 127
1, 45360, Note_on_c, 1, 62, 127
1, 45360, Note_on_c, 1, 53, 127
1, 45360, Note_on_c, 1, 65, 127
1, 45360, Note_on_c, 1, 77, 127
1, 45389, Note_off_c, 1, 65, 0
1, 45390, Note_on_c, 1, 69, 127
1, 45390, Note_on_c, 1, 72, 127
1, 45419, Note_off_c, 1, 81, 0
1, 45419, Note_off_c, 1, 74, 0
1, 45419, Note_off_c, 1, 62, 0
1, 45419, Note_off_c, 1, 53, 0
1, 45419, Note_off_c, 1, 77, 0
1, 45419, Note_off_c, 1, 69, 0
1, 45419, Note_off_c, 1, 72, 0
1, 45420, Note_on_c, 1, 81, 127
1, 45420, Note_on_c, 1, 62, 127
1, 45420, Note_on_c, 1, 74, 127
1, 45420, Note_on_c, 1, 53, 127
1, 45420, Note_on_c, 1, 67, 127
1, 45420, Note_on_c, 1, 70, 127
1, 45449, Note_off_c, 1, 67, 0
1, 45449, Note_off_c, 1, 70, 0
1, 45450, Note_on_c, 1, 65, 127
1, 45450, Note_on_c, 1, 69, 127
1, 45479, Note_off_c, 1, 81, 0
1, 45479, Note_off_c, 1, 62, 0
1, 45479, Note_off_c, 1, 74, 0
1, 45479, Note_off_c, 1, 53, 0
1, 45479, Note_off_c, 1, 65, 0
1, 45479, Note_off_c, 1, 69, 0
1, 45480, Note_on_c, 1, 82, 127
1, 45480, Note_on_c, 1, 67, 127
1, 45480, Note_on_c, 1, 62, 127
1, 45480, Note_on_c, 1, 55, 127
1, 45480, Note_on_c, 1, 64, 127
1, 45509, Note_off_c, 1, 64, 0
1, 45510, Note_on_c, 1, 65, 127
1, 45539, Note_off_c, 1, 82, 0
1, 45539, Note_off_c, 1, 67, 0
1, 45539, Note_off_c, 1, 62, 0
1, 45539, Note_off_c, 1, 55, 0
1, 45539, Note_off_c, 1, 65, 0
1, 45540, Note_on_c, 1, 81, 127
1, 45540, Note_on_c, 1, 64, 127
1, 45540, Note_on_c, 1, 61, 127
1, 45540, Note_on_c, 1, 57, 127
1, 45540, Note_on_c, 1, 69, 127
1, 45540, Note_on_c, 1, 67, 127
1, 45569, Note_off_c, 1, 67, 0
1, 45570, Note_on_c, 1, 59, 127
1, 45570, Note_on_c, 1, 65, 127
1, 45599, Note_off_c, 1, 81, 0
1, 45599, Note_off_c, 1, 64, 0
1, 45599, Note_off_c, 1, 61, 0
1, 45599, Note_off_c, 1, 57, 0
1, 45599, Note_off_c, 1, 69, 0
1, 45599, Note_off_c, 1, 59, 0
1, 45599, Note_off_c, 1, 65, 0
1, 45600, Note_on_c, 1, 79, 127
1, 45600, Note_on_c, 1, 69, 127
1, 45600, Note_on_c, 1, 61, 127
1, 45600, Note_on_c, 1, 57, 127
1, 45600, Note_on_c, 1, 64, 127
1, 45629, Note_off_c, 1, 79, 0
1, 45629, Note_off_c, 1, 64, 0
1, 45630, Note_on_c, 1, 77, 127
1, 45630, Note_on_c, 1, 62, 127
1, 45659, Note_off_c, 1, 69, 0
1, 45659, Note_off_c, 1, 61, 0
1, 45659, Note_off_c, 1, 57, 0
1, 45659, Note_off_c, 1, 77, 0
1, 45659, Note_off_c, 1, 62, 0
1, 45660, Note_on_c, 1, 76, 127
1, 45660, Note_on_c, 1, 67, 127
1, 45660, Note_on_c, 1, 62, 127
1, 45660, Note_on_c, 1, 58, 127
1, 45660, Note_on_c, 1, 61, 127
1, 45660, Note_on_c, 1, 64, 127
1, 45689, Note_off_c, 1, 76, 0
1, 45689, Note_off_c, 1, 61, 0
1, 45689, Note_off_c, 1, 64, 0
1, 45690, Note_on_c, 1, 74, 127
1, 45690, Note_on_c, 1, 65, 127
1, 45719, Note_off_c, 1, 67, 0
1, 45719, Note_off_c, 1, 62, 0
1, 45719, Note_off_c, 1, 58, 0
1, 45719, Note_off_c, 1, 74, 0
1, 45719, Note_off_c, 1, 65, 0
1, 45720, Note_on_c, 1, 73, 127
1, 45720, Note_on_c, 1, 69, 127
1, 45720, Note_on_c, 1, 64, 127
1, 45720, Note_on_c, 1, 57, 127
1, 45720, Note_on_c, 1, 67, 127
1, 45750, Note_on_c, 1, 71, 127
1, 45779, Note_off_c, 1, 73, 0
1, 45779, Note_off_c, 1, 69, 0
1, 45779, Note_off_c, 1, 57, 0
1, 45779, Note_off_c, 1, 67, 0
1, 45779, Note_off_c, 1, 71, 0
1, 45780, Note_on_c, 1, 55, 127
1, 45780, Note_on_c, 1, 61, 127
1, 45809, Note_off_c, 1, 55, 0
1, 45809, Note_off_c, 1, 61, 0
1, 45810, Note_on_c, 1, 53, 127
1, 45810, Note_on_c, 1, 62, 127
1, 45839, Note_off_c, 1, 64, 0
1, 45839, Note_off_c, 1, 53, 0
1, 45839, Note_off_c, 1, 62, 0
1, 45840, Note_on_c, 1, 73, 127
1, 45840, Note_on_c, 1, 69, 127
1, 45840, Note_on_c, 1, 64, 127
1, 45840, Note_on_c, 1, 52, 127
1, 45840, Note_on_c, 1, 61, 127
1, 45869, Note_off_c, 1, 73, 0
1, 45869, Note_off_c, 1, 52, 0
1, 45869, Note_off_c, 1, 61, 0
1, 45870, Note_on_c, 1, 74, 127
1, 45870, Note_on_c, 1, 50, 127
1, 45870, Note_on_c, 1, 59, 127
1, 45870, Note_on_c, 1, 65, 127
1, 45899, Note_off_c, 1, 69, 0
1, 45899, Note_off_c, 1, 64, 0
1, 45899, Note_off_c, 1, 74, 0
1, 45899, Note_off_c, 1, 50, 0
1, 45899, Note_off_c, 1, 59, 0
1, 45899, Note_off_c, 1, 65, 0
1, 45900, Note_on_c, 1, 76, 127
1, 45900, Note_on_c, 1, 69, 127
1, 45900, Note_on_c, 1, 64, 127
1, 45900, Note_on_c, 1, 49, 127
1, 45900, Note_on_c, 1, 73, 127
1, 45900, Note_on_c, 1, 57, 127
1, 45900, Note_on_c, 1, 67, 127
1, 45929, Note_off_c, 1, 57, 0
1, 45929, Note_off_c, 1, 67, 0
1, 45930, Note_on_c, 1, 55, 127
1, 45930, Note_on_c, 1, 70, 127
1, 45959, Note_off_c, 1, 76, 0
1, 45959, Note_off_c, 1, 69, 0
1, 45959, Note_off_c, 1, 64, 0
1, 45959, Note_off_c, 1, 49, 0
1, 45959, Note_off_c, 1, 73, 0
1, 45959, Note_off_c, 1, 55, 0
1, 45959, Note_off_c, 1, 70, 0
1, 45960, Note_on_c, 1, 76, 127
1, 45960, Note_on_c, 1, 73, 127
1, 45960, Note_on_c, 1, 69, 127
1, 45960, Note_on_c, 1, 45, 127
1, 45960, Note_on_c, 1, 57, 127
1, 45989, Note_off_c, 1, 57, 0
1, 45990, Note_on_c, 1, 58, 127
1, 45990, Note_on_c, 1, 67, 127
1, 46019, Note_off_c, 1, 76, 0
1, 46019, Note_off_c, 1, 73, 0
1, 46019, Note_off_c, 1, 69, 0
1, 46019, Note_off_c, 1, 45, 0
1, 46019, Note_off_c, 1, 58, 0
1, 46019, Note_off_c, 1, 67, 0
1, 46020, Note_on_c, 1, 77, 127
1, 46020, Note_on_c, 1, 74, 127
1, 46020, Note_on_c, 1, 69, 127
1, 46020, Note_on_c, 1, 50, 127
1, 46020, Note_on_c, 1, 57, 127
1, 46020, Note_on_c, 1, 65, 127
1, 46049, Note_off_c, 1, 57, 0
1, 46049, Note_off_c, 1, 65, 0
1, 46050, Note_on_c, 1, 59, 127
1, 46050, Note_on_c, 1, 67, 127
1, 46079, Note_off_c, 1, 77, 0
1, 46079, Note_off_c, 1, 74, 0
1, 46079, Note_off_c, 1, 69, 0
1, 46079, Note_off_c, 1, 50, 0
1, 46079, Note_off_c, 1, 59, 0
1, 46079, Note_off_c, 1, 67, 0
1, 46080, Note_on_c, 1, 76, 127
1, 46080, Note_on_c, 1, 73, 127
1, 46080, Note_on_c, 1, 69, 127
1, 46080, Note_on_c, 1, 45, 127
1, 46080, Note_on_c, 1, 81, 127
1, 46080, Note_on_c, 1, 57, 127
1, 46080, Note_on_c, 1, 61, 127
1, 46094, Note_off_c, 1, 57, 0
1, 46110, Note_on_c, 1, 47, 127
1, 46124, Note_off_c, 1, 47, 0
1, 46125, Note_on_c, 1, 49, 127
1, 46139, Note_off_c, 1, 76, 0
1, 46139, Note_off_c, 1, 73, 0
1, 46139, Note_off_c, 1, 69, 0
1, 46139, Note_off_c, 1, 45, 0
1, 46139, Note_off_c, 1, 81, 0
1, 46139, Note_off_c, 1, 61, 0
1, 46139, Note_off_c, 1, 49, 0
1, 46140, Note_on_c, 1, 50, 127
1, 46140, Note_on_c, 1, 57, 127
1, 46140, Note_on_c, 1, 45, 127
1, 46154, Note_off_c, 1, 50, 0
1, 46155, Note_on_c, 1, 52, 127
1, 46169, Note_off_c, 1, 57, 0
1, 46169, Note_off_c, 1, 45, 0
1, 46169, Note_off_c, 1, 52, 0
1, 46170, Note_on_c, 1, 53, 127
1, 46170, Note_on_c, 1, 59, 127
1, 46170, Note_on_c, 1, 47, 127
1, 46184, Note_off_c, 1, 53, 0
1, 46185, Note_on_c, 1, 55, 127
1, 46199, Note_off_c, 1, 59, 0
1, 46199, Note_off_c, 1, 47, 0
1, 46199, Note_off_c, 1, 55, 0
1, 46200, Note_on_c, 1, 57, 127
1, 46200, Note_on_c, 1, 61, 127
1, 46200, Note_on_c, 1, 49, 127
1, 46214, Note_off_c, 1, 57, 0
1, 46215, Note_on_c, 1, 59, 127
1, 46229, Note_off_c, 1, 61, 0
1, 46229, Note_off_c, 1, 49, 0
1, 46229, Note_off_c, 1, 59, 0
1, 46230, Note_on_c, 1, 61, 127
1, 46230, Note_on_c, 1, 62, 127
1, 46230, Note_on_c, 1, 50, 127
1, 46244, Note_off_c, 1, 61, 0
1, 46259, Note_off_c, 1, 62, 0
1, 46259, Note_off_c, 1, 50, 0
1, 46260, Note_on_c, 1, 69, 127
1, 46260, Note_on_c, 1, 45, 127
1, 46260, Note_on_c, 1, 64, 127
1, 46260, Note_on_c, 1, 52, 127
1, 46275, Note_on_c, 1, 57, 127
1, 46289, Note_off_c, 1, 57, 0
1, 46290, Note_on_c, 1, 59, 127
1, 46304, Note_off_c, 1, 59, 0
1, 46305, Note_on_c, 1, 61, 127
1, 46319, Note_off_c, 1, 69, 0
1, 46319, Note_off_c, 1, 45, 0
1, 46319, Note_off_c, 1, 64, 0
1, 46319, Note_off_c, 1, 52, 0
1, 46319, Note_off_c, 1, 61, 0
1, 46320, Note_on_c, 1, 62, 127
1, 46320, Note_on_c, 1, 64, 127
1, 46320, Note_on_c, 1, 52, 127
1, 46334, Note_off_c, 1, 62, 0
1, 46350, Note_on_c, 1, 65, 127
1, 46364, Note_off_c, 1, 65, 0
1, 46365, Note_on_c, 1, 67, 127
1, 46379, Note_off_c, 1, 64, 0
1, 46379, Note_off_c, 1, 52, 0
1, 46379, Note_off_c, 1, 67, 0
1, 46380, Note_on_c, 1, 69, 127
1, 46380, Note_on_c, 1, 65, 127
1, 46380, Note_on_c, 1, 53, 127
1, 46394, Note_off_c, 1, 69, 0
1, 46395, Note_on_c, 1, 71, 127
1, 46409, Note_off_c, 1, 71, 0
1, 46410, Note_on_c, 1, 73, 127
1, 46424, Note_off_c, 1, 73, 0
1, 46425, Note_on_c, 1, 74, 127
1, 46439, Note_off_c, 1, 65, 0
1, 46439, Note_off_c, 1, 53, 0
1, 46439, Note_off_c, 1, 74, 0
1, 46440, Note_on_c, 1, 76, 127
1, 46440, Note_on_c, 1, 73, 127
1, 46440, Note_on_c, 1, 45, 127
1, 46440, Note_on_c, 1, 64, 127
1, 46440, Note_on_c, 1, 52, 127
1, 46455, Note_on_c, 1, 69, 127
1, 46469, Note_off_c, 1, 69, 0
1, 46470, Note_on_c, 1, 71, 127
1, 46484, Note_off_c, 1, 71, 0
1, 46499, Note_off_c, 1, 76, 0
1, 46499, Note_off_c, 1, 73, 0
1, 46499, Note_off_c, 1, 45, 0
1, 46500, Note_on_c, 1, 57, 127
1, 46500, Note_on_c, 1, 74, 127
1, 46514, Note_off_c, 1, 74, 0
1, 46530, Note_on_c, 1, 77, 127
1, 46544, Note_off_c, 1, 77, 0
1, 46545, Note_on_c, 1, 79, 127
1, 46559, Note_off_c, 1, 64, 0
1, 46559, Note_off_c, 1, 52, 0
1, 46559, Note_off_c, 1, 57, 0
1, 46559, Note_off_c, 1, 79, 0
1, 46560, Note_on_c, 1, 45, 127
1, 46560, Note_on_c, 1, 81, 127
1, 46560, Note_on_c, 1, 61, 127
1, 46575, Note_on_c, 1, 79, 127
1, 46589, Note_off_c, 1, 81, 0
1, 46589, Note_off_c, 1, 79, 0
1, 46590, Note_on_c, 1, 77, 127
1, 46604, Note_off_c, 1, 77, 0
1, 46605, Note_on_c, 1, 76, 127
1, 46619, Note_off_c, 1, 45, 0
1, 46619, Note_off_c, 1, 61, 0
1, 46619, Note_off_c, 1, 76, 0
1, 46620, Note_on_c, 1, 81, 127
1, 46620, Note_on_c, 1, 77, 127
1, 46620, Note_on_c, 1, 74, 127
1, 46620, Note_on_c, 1, 50, 127
1, 46620, Note_on_c, 1, 57, 127
1, 46640, Note_on_c, 1, 79, 127
1, 46650, Note_on_c, 1, 76, 127
1, 46659, Note_off_c, 1, 79, 0
1, 46664, Note_off_c, 1, 76, 0
1, 46679, Note_off_c, 1, 81, 0
1, 46679, Note_off_c, 1, 77, 0
1, 46679, Note_off_c, 1, 74, 0
1, 46679, Note_off_c, 1, 50, 0
1, 46679, Note_off_c, 1, 57, 0
1, 46680, Note_on_c, 1, 62, 127
1, 46680, Note_on_c, 1, 79, 127
1, 46680, Note_on_c, 1, 77, 127
1, 46680, Note_on_c, 1, 69, 127
1, 46680, Note_on_c, 1, 53, 127
1, 46694, Note_off_c, 1, 79, 0
1, 46695, Note_on_c, 1, 81, 127
1, 46709, Note_off_c, 1, 77, 0
1, 46709, Note_off_c, 1, 81, 0
1, 46710, Note_on_c, 1, 83, 127
1, 46724, Note_off_c, 1, 83, 0
1, 46725, Note_on_c, 1, 85, 127
1, 46739, Note_off_c, 1, 62, 0
1, 46739, Note_off_c, 1, 69, 0
1, 46739, Note_off_c, 1, 53, 0
1, 46739, Note_off_c, 1, 85, 0
1, 46740, Note_on_c, 1, 50, 127
1, 46740, Note_on_c, 1, 86, 127
1, 46740, Note_on_c, 1, 65, 127
1, 46740, Note_on_c, 1, 79, 127
1, 46749, Note_off_c, 1, 79, 0
1, 46750, Note_on_c, 1, 77, 127
1, 46755, Note_on_c, 1, 84, 127
1, 46759, Note_off_c, 1, 77, 0
1, 46769, Note_off_c, 1, 86, 0
1, 46769, Note_off_c, 1, 84, 0
1, 46770, Note_on_c, 1, 82, 127
1, 46784, Note_off_c, 1, 82, 0
1, 46785, Note_on_c, 1, 81, 127
1, 46799, Note_off_c, 1, 50, 0
1, 46799, Note_off_c, 1, 65, 0
1, 46799, Note_off_c, 1, 81, 0
1, 46800, Note_on_c, 1, 82, 127
1, 46800, Note_on_c, 1, 77, 127
1, 46800, Note_on_c, 1, 74, 127
1, 46800, Note_on_c, 1, 43, 127
1, 46800, Note_on_c, 1, 62, 127
1, 46800, Note_on_c, 1, 79, 127
1, 46800, Note_on_c, 1, 55, 127
1, 46814, Note_off_c, 1, 79, 0
1, 46815, Note_on_c, 1, 67, 127
1, 46820, Note_on_c, 1, 84, 127
1, 46829, Note_off_c, 1, 62, 0
1, 46829, Note_off_c, 1, 67, 0
1, 46830, Note_on_c, 1, 69, 127
1, 46830, Note_on_c, 1, 76, 127
1, 46839, Note_off_c, 1, 84, 0
1, 46844, Note_off_c, 1, 69, 0
1, 46844, Note_off_c, 1, 76, 0
1, 46845, Note_on_c, 1, 70, 127
1, 46859, Note_off_c, 1, 82, 0
1, 46859, Note_off_c, 1, 77, 0
1, 46859, Note_off_c, 1, 74, 0
1, 46859, Note_off_c, 1, 43, 0
1, 46859, Note_off_c, 1, 70, 0
1, 46860, Note_on_c, 1, 72, 127
1, 46860, Note_on_c, 1, 58, 127
1, 46874, Note_off_c, 1, 72, 0
1, 46889, Note_off_c, 1, 58, 0
1, 46980, Note_on_c, 1, 48, 127
1, 46980, Note_on_c, 1, 60, 127
1, 47010, Note_off_c, 1, 55, 0
1, 47010, Note_on_c, 1, 81, 127
1, 47024, Note_off_c, 1, 81, 0
1, 47025, Note_on_c, 1, 64, 127
1, 47039, Note_off_c, 1, 48, 0
1, 47039, Note_off_c, 1, 64, 0
1, 47040, Note_on_c, 1, 65, 127
1, 47040, Note_on_c, 1, 52, 127
1, 47054, Note_off_c, 1, 65, 0
1, 47069, Note_off_c, 1, 52, 0
1, 47160, Note_on_c, 1, 41, 127
1, 47160, Note_on_c, 1, 53, 127
1, 47190, Note_off_c, 1, 60, 0
1, 47205, Note_on_c, 1, 57, 127
1, 47219, Note_off_c, 1, 41, 0
1, 47219, Note_off_c, 1, 57, 0
1, 47340, Note_on_c, 1, 46, 127
1, 47370, Note_off_c, 1, 53, 0
1, 47385, Note_on_c, 1, 50, 127
1, 47399, Note_off_c, 1, 46, 0
1, 47399, Note_off_c, 1, 50, 0
1, 47520, Note_on_c, 1, 40, 127
1, 47550, Note_on_c, 1, 73, 127
1, 47564, Note_off_c, 1, 73, 0
1, 47565, Note_on_c, 1, 71, 127
1, 47579, Note_off_c, 1, 40, 0
1, 47579, Note_off_c, 1, 71, 0
1, 47580, Note_on_c, 1, 45, 127
1, 47594, Note_off_c, 1, 45, 0
1, 47595, Note_on_c, 1, 47, 127
1, 47609, Note_off_c, 1, 47, 0
1, 47610, Note_on_c, 1, 49, 127
1, 47624, Note_off_c, 1, 49, 0
1, 47880, Note_on_c, 1, 38, 127
1, 47939, Note_off_c, 1, 38, 0
1, 47940, Note_on_c, 1, 86, 127
1, 47940, Note_on_c, 1, 70, 127
1, 47940, Note_on_c, 1, 62, 127
1, 47940, Note_on_c, 1, 50, 127
1, 47940, Note_on_c, 1, 55, 127
1, 47940, Note_on_c, 1, 58, 127
1, 47940, Note_on_c, 1, 53, 127
1, 47954, Note_off_c, 1, 55, 0
1, 47955, Note_on_c, 1, 57, 127
1, 47969, Note_off_c, 1, 57, 0
1, 47970, Note_on_c, 1, 59, 127
1, 47984, Note_off_c, 1, 59, 0
1, 47985, Note_on_c, 1, 61, 127
1, 47999, Note_off_c, 1, 86, 0
1, 47999, Note_off_c, 1, 70, 0
1, 47999, Note_off_c, 1, 62, 0
1, 47999, Note_off_c, 1, 50, 0
1, 47999, Note_off_c, 1, 58, 0
1, 47999, Note_off_c, 1, 53, 0
1, 47999, Note_off_c, 1, 61, 0
1, 48000, Note_on_c, 1, 84, 127
1, 48000, Note_on_c, 1, 65, 127
1, 48000, Note_on_c, 1, 62, 127
1, 48000, Note_on_c, 1, 38, 127
1, 48000, Note_on_c, 1, 57, 127
1, 48015, Note_on_c, 1, 64, 127
1, 48029, Note_off_c, 1, 64, 0
1, 48059, Note_off_c, 1, 84, 0
1, 48059, Note_off_c, 1, 65, 0
1, 48059, Note_off_c, 1, 62, 0
1, 48059, Note_off_c, 1, 38, 0
1, 48059, Note_off_c, 1, 57, 0
1, 48060, Note_on_c, 1, 82, 127
1, 48060, Note_on_c, 1, 67, 127
1, 48060, Note_on_c, 1, 63, 127
1, 48060, Note_on_c, 1, 43, 127
1, 48060, Note_on_c, 1, 55, 127
1, 48060, Note_on_c, 1, 58, 127
1, 48075, Note_on_c, 1, 62, 127
1, 48089, Note_off_c, 1, 62, 0
1, 48119, Note_off_c, 1, 82, 0
1, 48119, Note_off_c, 1, 67, 0
1, 48119, Note_off_c, 1, 63, 0
1, 48119, Note_off_c, 1, 43, 0
1, 48119, Note_off_c, 1, 55, 0
1, 48119, Note_off_c, 1, 58, 0
1, 48120, Note_on_c, 1, 81, 127
1, 48120, Note_on_c, 1, 72, 127
1, 48120, Note_on_c, 1, 63, 127
1, 48120, Note_on_c, 1, 45, 127
1, 48120, Note_on_c, 1, 57, 127
1, 48120, Note_on_c, 1, 60, 127
1, 48135, Note_on_c, 1, 62, 127
1, 48149, Note_off_c, 1, 62, 0
1, 48165, Note_on_c, 1, 67, 127
1, 48179, Note_off_c, 1, 81, 0
1, 48179, Note_off_c, 1, 72, 0
1, 48179, Note_off_c, 1, 63, 0
1, 48179, Note_off_c, 1, 45, 0
1, 48179, Note_off_c, 1, 57, 0
1, 48179, Note_off_c, 1, 60, 0
1, 48179, Note_off_c, 1, 67, 0
1, 48180, Note_on_c, 1, 79, 127
1, 48180, Note_on_c, 1, 74, 127
1, 48180, Note_on_c, 1, 62, 127
1, 48180, Note_on_c, 1, 46, 127
1, 48180, Note_on_c, 1, 58, 127
1, 48195, Note_on_c, 1, 61, 127
1, 48209, Note_off_c, 1, 61, 0
1, 48225, Note_on_c, 1, 67, 127
1, 48239, Note_off_c, 1, 79, 0
1, 48239, Note_off_c, 1, 74, 0
1, 48239, Note_off_c, 1, 62, 0
1, 48239, Note_off_c, 1, 46, 0
1, 48239, Note_off_c, 1, 58, 0
1, 48239, Note_off_c, 1, 67, 0
1, 48240, Note_on_c, 1, 79, 127
1, 48240, Note_on_c, 1, 76, 127
1, 48240, Note_on_c, 1, 69, 127
1, 48240, Note_on_c, 1, 62, 127
1, 48240, Note_on_c, 1, 57, 127
1, 48240, Note_on_c, 1, 53, 127
1, 48240, Note_on_c, 1, 58, 127
1, 48259, Note_off_c, 1, 62, 0
1, 48259, Note_off_c, 1, 53, 0
1, 48259, Note_off_c, 1, 58, 0
1, 48260, Note_on_c, 1, 61, 127
1, 48260, Note_on_c, 1, 52, 127
1, 48279, Note_off_c, 1, 61, 0
1, 48279, Note_off_c, 1, 52, 0
1, 48299, Note_off_c, 1, 76, 0
1, 48299, Note_off_c, 1, 69, 0
1, 48300, Note_on_c, 1, 45, 127
1, 48314, Note_off_c, 1, 57, 0
1, 48329, Note_off_c, 1, 45, 0
1, 48330, Note_on_c, 1, 47, 127
1, 48359, Note_off_c, 1, 79, 0
1, 48359, Note_off_c, 1, 47, 0
1, 48360, Note_on_c, 1, 49, 127
1, 48360, Note_on_c, 1, 79, 127
1, 48360, Note_on_c, 1, 61, 127
1, 48360, Note_on_c, 1, 52, 127
1, 48360, Note_on_c, 1, 57, 127
1, 48369, Note_off_c, 1, 52, 0
1, 48369, Note_off_c, 1, 57, 0
1, 48370, Note_on_c, 1, 53, 127
1, 48370, Note_on_c, 1, 58, 127
1, 48374, Note_off_c, 1, 61, 0
1, 48375, Note_on_c, 1, 62, 127
1, 48379, Note_off_c, 1, 53, 0
1, 48379, Note_off_c, 1, 58, 0
1, 48389, Note_off_c, 1, 49, 0
1, 48389, Note_off_c, 1, 62, 0
1, 48390, Note_on_c, 1, 50, 127
1, 48419, Note_off_c, 1, 79, 0
1, 48419, Note_off_c, 1, 50, 0
1, 48420, Note_on_c, 1, 76, 127
1, 48420, Note_on_c, 1, 73, 127
1, 48420, Note_on_c, 1, 69, 127
1, 48420, Note_on_c, 1, 52, 127
1, 48420, Note_on_c, 1, 61, 127
1, 48420, Note_on_c, 1, 57, 127
1, 48429, Note_off_c, 1, 61, 0
1, 48429, Note_off_c, 1, 57, 0
1, 48430, Note_on_c, 1, 62, 127
1, 48430, Note_on_c, 1, 53, 127
1, 48430, Note_on_c, 1, 58, 127
1, 48439, Note_off_c, 1, 62, 0
1, 48439, Note_off_c, 1, 53, 0
1, 48439, Note_off_c, 1, 58, 0
1, 48449, Note_off_c, 1, 52, 0
1, 48450, Note_on_c, 1, 50, 127
1, 48479, Note_off_c, 1, 76, 0
1, 48479, Note_off_c, 1, 73, 0
1, 48479, Note_off_c, 1, 69, 0
1, 48479, Note_off_c, 1, 50, 0
1, 48480, Note_on_c, 1, 49, 127
1, 48480, Note_on_c, 1, 76, 127
1, 48480, Note_on_c, 1, 61, 127
1, 48480, Note_on_c, 1, 79, 127
1, 48480, Note_on_c, 1, 52, 127
1, 48480, Note_on_c, 1, 57, 127
1, 48489, Note_off_c, 1, 61, 0
1, 48489, Note_off_c, 1, 52, 0
1, 48489, Note_off_c, 1, 57, 0
1, 48490, Note_on_c, 1, 62, 127
1, 48490, Note_on_c, 1, 53, 127
1, 48490, Note_on_c, 1, 58, 127
1, 48499, Note_off_c, 1, 62, 0
1, 48499, Note_off_c, 1, 53, 0
1, 48499, Note_off_c, 1, 58, 0
1, 48509, Note_off_c, 1, 49, 0
1, 48510, Note_on_c, 1, 50, 127
1, 48539, Note_off_c, 1, 76, 0
1, 48539, Note_off_c, 1, 79, 0
1, 48539, Note_off_c, 1, 50, 0
1, 48540, Note_on_c, 1, 52, 127
1, 48540, Note_on_c, 1, 76, 127
1, 48540, Note_on_c, 1, 61, 127
1, 48540, Note_on_c, 1, 79, 127
1, 48540, Note_on_c, 1, 57, 127
1, 48549, Note_off_c, 1, 61, 0
1, 48549, Note_off_c, 1, 57, 0
1, 48550, Note_on_c, 1, 62, 127
1, 48550, Note_on_c, 1, 53, 127
1, 48550, Note_on_c, 1, 58, 127
1, 48559, Note_off_c, 1, 62, 0
1, 48559, Note_off_c, 1, 53, 0
1, 48559, Note_off_c, 1, 58, 0
1, 48569, Note_off_c, 1, 52, 0
1, 48599, Note_off_c, 1, 76, 0
1, 48599, Note_off_c, 1, 79, 0
1, 48600, Note_on_c, 1, 73, 127
1, 48600, Note_on_c, 1, 69, 127
1, 48600, Note_on_c, 1, 64, 127
1, 48600, Note_on_c, 1, 55, 127
1, 48600, Note_on_c, 1, 67, 127
1, 48600, Note_on_c, 1, 61, 127
1, 48600, Note_on_c, 1, 52, 127
1, 48600, Note_on_c, 1, 57, 127
1, 48609, Note_off_c, 1, 61, 0
1, 48609, Note_off_c, 1, 52, 0
1, 48609, Note_off_c, 1, 57, 0
1, 48610, Note_on_c, 1, 62, 127
1, 48610, Note_on_c, 1, 53, 127
1, 48610, Note_on_c, 1, 58, 127
1, 48619, Note_off_c, 1, 62, 0
1, 48619, Note_off_c, 1, 53, 0
1, 48619, Note_off_c, 1, 58, 0
1, 48629, Note_off_c, 1, 55, 0
1, 48659, Note_off_c, 1, 73, 0
1, 48659, Note_off_c, 1, 69, 0
1, 48659, Note_off_c, 1, 64, 0
1, 48659, Note_off_c, 1, 67, 0
1, 48660, Note_on_c, 1, 52, 127
1, 48660, Note_on_c, 1, 70, 127
1, 48660, Note_on_c, 1, 61, 127
1, 48660, Note_on_c, 1, 76, 127
1, 48660, Note_on_c, 1, 79, 127
1, 48660, Note_on_c, 1, 57, 127
1, 48669, Note_off_c, 1, 61, 0
1, 48669, Note_off_c, 1, 57, 0
1, 48670, Note_on_c, 1, 62, 127
1, 48670, Note_on_c, 1, 53, 127
1, 48670, Note_on_c, 1, 58, 127
1, 48679, Note_off_c, 1, 62, 0
1, 48679, Note_off_c, 1, 53, 0
1, 48679, Note_off_c, 1, 58, 0
1, 48689, Note_off_c, 1, 52, 0
1, 48719, Note_off_c, 1, 70, 0
1, 48719, Note_off_c, 1, 76, 0
1, 48719, Note_off_c, 1, 79, 0
1, 48720, Note_on_c, 1, 55, 127
1, 48720, Note_on_c, 1, 70, 127
1, 48720, Note_on_c, 1, 61, 127
1, 48720, Note_on_c, 1, 76, 127
1, 48720, Note_on_c, 1, 52, 127
1, 48720, Note_on_c, 1, 79, 127
1, 48720, Note_on_c, 1, 57, 127
1, 48729, Note_off_c, 1, 61, 0
1, 48729, Note_off_c, 1, 52, 0
1, 48730, Note_on_c, 1, 62, 127
1, 48730, Note_on_c, 1, 53, 127
1, 48739, Note_off_c, 1, 62, 0
1, 48739, Note_off_c, 1, 53, 0
1, 48749, Note_off_c, 1, 55, 0
1, 48749, Note_off_c, 1, 57, 0
1, 48779, Note_off_c, 1, 70, 0
1, 48779, Note_off_c, 1, 76, 0
1, 48779, Note_off_c, 1, 79, 0
1, 48780, Note_on_c, 1, 76, 127
1, 48780, Note_on_c, 1, 73, 127
1, 48780, Note_on_c, 1, 67, 127
1, 48780, Note_on_c, 1, 58, 127
1, 48780, Note_on_c, 1, 64, 127
1, 48780, Note_on_c, 1, 61, 127
1, 48780, Note_on_c, 1, 52, 127
1, 48789, Note_off_c, 1, 61, 0
1, 48789, Note_off_c, 1, 52, 0
1, 48790, Note_on_c, 1, 62, 127
1, 48790, Note_on_c, 1, 53, 127
1, 48790, Note_on_c, 1, 60, 127
1, 48799, Note_off_c, 1, 62, 0
1, 48799, Note_off_c, 1, 53, 0
1, 48799, Note_off_c, 1, 60, 0
1, 48809, Note_off_c, 1, 58, 0
1, 48810, Note_on_c, 1, 57, 127
1, 48839, Note_off_c, 1, 76, 0
1, 48839, Note_off_c, 1, 73, 0
1, 48839, Note_off_c, 1, 67, 0
1, 48839, Note_off_c, 1, 64, 0
1, 48839, Note_off_c, 1, 57, 0
1, 48840, Note_on_c, 1, 55, 127
1, 48840, Note_on_c, 1, 67, 127
1, 48840, Note_on_c, 1, 61, 127
1, 48840, Note_on_c, 1, 70, 127
1, 48840, Note_on_c, 1, 52, 127
1, 48840, Note_on_c, 1, 76, 127
1, 48840, Note_on_c, 1, 58, 127
1, 48849, Note_off_c, 1, 61, 0
1, 48849, Note_off_c, 1, 52, 0
1, 48849, Note_off_c, 1, 58, 0
1, 48850, Note_on_c, 1, 62, 127
1, 48850, Note_on_c, 1, 53, 127
1, 48850, Note_on_c, 1, 60, 127
1, 48859, Note_off_c, 1, 62, 0
1, 48859, Note_off_c, 1, 53, 0
1, 48859, Note_off_c, 1, 60, 0
1, 48869, Note_off_c, 1, 55, 0
1, 48899, Note_off_c, 1, 67, 0
1, 48899, Note_off_c, 1, 70, 0
1, 48899, Note_off_c, 1, 76, 0
1, 48900, Note_on_c, 1, 52, 127
1, 48900, Note_on_c, 1, 67, 127
1, 48900, Note_on_c, 1, 61, 127
1, 48900, Note_on_c, 1, 70, 127
1, 48900, Note_on_c, 1, 76, 127
1, 48900, Note_on_c, 1, 58, 127
1, 48909, Note_off_c, 1, 61, 0
1, 48910, Note_on_c, 1, 62, 127
1, 48910, Note_on_c, 1, 53, 127
1, 48919, Note_off_c, 1, 62, 0
1, 48919, Note_off_c, 1, 53, 0
1, 48929, Note_off_c, 1, 52, 0
1, 48929, Note_off_c, 1, 58, 0
1, 48930, Note_on_c, 1, 50, 127
1, 48930, Note_on_c, 1, 57, 127
1, 48944, Note_off_c, 1, 57, 0
1, 48945, Note_on_c, 1, 55, 127
1, 48959, Note_off_c, 1, 67, 0
1, 48959, Note_off_c, 1, 70, 0
1, 48959, Note_off_c, 1, 76, 0
1, 48959, Note_off_c, 1, 50, 0
1, 48959, Note_off_c, 1, 55, 0
1, 48960, Note_on_c, 1, 79, 127
1, 48960, Note_on_c, 1, 76, 127
1, 48960, Note_on_c, 1, 69, 127
1, 48960, Note_on_c, 1, 49, 127
1, 48960, Note_on_c, 1, 57, 127
1, 48960, Note_on_c, 1, 61, 127
1, 48960, Note_on_c, 1, 64, 127
1, 48960, Note_on_c, 1, 52, 127
1, 48989, Note_off_c, 1, 49, 0
1, 48989, Note_off_c, 1, 61, 0
1, 48989, Note_off_c, 1, 64, 0
1, 48989, Note_off_c, 1, 52, 0
1, 49019, Note_off_c, 1, 57, 0
1, 49020, Note_on_c, 1, 45, 127
1, 49020, Note_on_c, 1, 73, 127
1, 49049, Note_off_c, 1, 79, 0
1, 49049, Note_off_c, 1, 76, 0
1, 49049, Note_off_c, 1, 69, 0
1, 49049, Note_off_c, 1, 45, 0
1, 49049, Note_off_c, 1, 73, 0
1, 49050, Note_on_c, 1, 76, 127
1, 49050, Note_on_c, 1, 69, 127
1, 49050, Note_on_c, 1, 49, 127
1, 49050, Note_on_c, 1, 79, 127
1, 49050, Note_on_c, 1, 61, 127
1, 49079, Note_off_c, 1, 76, 0
1, 49079, Note_off_c, 1, 69, 0
1, 49079, Note_off_c, 1, 49, 0
1, 49079, Note_off_c, 1, 79, 0
1, 49079, Note_off_c, 1, 61, 0
1, 49080, Note_on_c, 1, 77, 127
1, 49080, Note_on_c, 1, 74, 127
1, 49080, Note_on_c, 1, 69, 127
1, 49080, Note_on_c, 1, 50, 127
1, 49080, Note_on_c, 1, 62, 127
1, 49080, Note_on_c, 1, 81, 127
1, 49139, Note_off_c, 1, 77, 0
1, 49139, Note_off_c, 1, 74, 0
1, 49139, Note_off_c, 1, 69, 0
1, 49139, Note_off_c, 1, 50, 0
1, 49139, Note_off_c, 1, 62, 0
1, 49139, Note_off_c, 1, 81, 0
1, 49170, Note_on_c, 1, 79, 127
1, 49170, Note_on_c, 1, 76, 127
1, 49170, Note_on_c, 1, 74, 127
1, 49170, Note_on_c, 1, 55, 127
1, 49170, Note_on_c, 1, 70, 127
1, 49199, Note_off_c, 1, 79, 0
1, 49199, Note_off_c, 1, 76, 0
1, 49199, Note_off_c, 1, 74, 0
1, 49199, Note_off_c, 1, 55, 0
1, 49199, Note_off_c, 1, 70, 0
1, 49200, Note_on_c, 1, 76, 127
1, 49200, Note_on_c, 1, 73, 127
1, 49200, Note_on_c, 1, 69, 127
1, 49200, Note_on_c, 1, 57, 127
1, 49259, Note_off_c, 1, 69, 0
1, 49259, Note_off_c, 1, 57, 0
1, 49260, Note_on_c, 1, 67, 127
1, 49260, Note_on_c, 1, 45, 127
1, 49260, Note_on_c, 1, 61, 127
1, 49289, Note_off_c, 1, 76, 0
1, 49289, Note_off_c, 1, 73, 0
1, 49290, Note_on_c, 1, 74, 127
1, 49319, Note_off_c, 1, 67, 0
1, 49319, Note_off_c, 1, 45, 0
1, 49319, Note_off_c, 1, 61, 0
1, 49319, Note_off_c, 1, 74, 0
1, 49320, Note_on_c, 1, 74, 127
1, 49320, Note_on_c, 1, 65, 127
1, 49320, Note_on_c, 1, 38, 127
1, 49320, Note_on_c, 1, 57, 127
1, 49379, Note_off_c, 1, 74, 0
1, 49379, Note_off_c, 1, 65, 0
1, 49379, Note_off_c, 1, 38, 0
1, 49379, Note_off_c, 1, 57, 0
1, 49380, Note_on_c, 1, 62, 127
1, 49380, Note_on_c, 1, 50, 127
1, 49439, Note_off_c, 1, 62, 0
1, 49439, Note_off_c, 1, 50, 0
1, 49440, Note_on_c, 1, 64, 127
1, 49440, Note_on_c, 1, 52, 127
1, 49499, Note_off_c, 1, 64, 0
1, 49499, Note_off_c, 1, 52, 0
1, 49500, Note_on_c, 1, 65, 127
1, 49500, Note_on_c, 1, 53, 127
1, 49559, Note_off_c, 1, 65, 0
1, 49559, Note_off_c, 1, 53, 0
1, 49560, Note_on_c, 1, 65, 127
1, 49560, Note_on_c, 1, 53, 127
1, 49619, Note_off_c, 1, 65, 0
1, 49619, Note_off_c, 1, 53, 0
1, 49620, Note_on_c, 1, 67, 127
1, 49620, Note_on_c, 1, 55, 127
1, 49679, Note_off_c, 1, 67, 0
1, 49679, Note_off_c, 1, 55, 0
1, 49680, Note_on_c, 1, 69, 127
1, 49680, Note_on_c, 1, 57, 127
1, 49739, Note_off_c, 1, 69, 0
1, 49739, Note_off_c, 1, 57, 0
1, 49740, Note_on_c, 1, 69, 127
1, 49740, Note_on_c, 1, 57, 127
1, 49799, Note_off_c, 1, 69, 0
1, 49799, Note_off_c, 1, 57, 0
1, 49800, Note_on_c, 1, 70, 127
1, 49800, Note_on_c, 1, 58, 127
1, 49859, Note_off_c, 1, 70, 0
1, 49859, Note_off_c, 1, 58, 0
1, 49860, Note_on_c, 1, 69, 127
1, 49860, Note_on_c, 1, 57, 127
1, 49919, Note_off_c, 1, 69, 0
1, 49919, Note_off_c, 1, 57, 0
1, 49920, Note_on_c, 1, 67, 127
1, 49920, Note_on_c, 1, 55, 127
1, 49949, Note_off_c, 1, 67, 0
1, 49949, Note_off_c, 1, 55, 0
1, 49950, Note_on_c, 1, 65, 127
1, 49950, Note_on_c, 1, 53, 127
1, 49979, Note_off_c, 1, 65, 0
1, 49979, Note_off_c, 1, 53, 0
1, 49980, Note_on_c, 1, 64, 127
1, 49980, Note_on_c, 1, 52, 127
1, 50009, Note_off_c, 1, 64, 0
1, 50009, Note_off_c, 1, 52, 0
1, 50010, Note_on_c, 1, 62, 127
1, 50010, Note_on_c, 1, 50, 127
1, 50039, Note_off_c, 1, 62, 0
1, 50039, Note_off_c, 1, 50, 0
1, 50040, Note_on_c, 1, 61, 127
1, 50040, Note_on_c, 1, 49, 127
1, 50099, Note_off_c, 1, 61, 0
1, 50099, Note_off_c, 1, 49, 0
1, 50100, Note_on_c, 1, 57, 127
1, 50100, Note_on_c, 1, 45, 127
1, 50129, Note_off_c, 1, 45, 0
1, 50130, Note_off_c, 1, 57, 0
1, 50130, Note_on_c, 1, 59, 127
1, 50130, Note_on_c, 1, 47, 127
1, 50159, Note_off_c, 1, 47, 0
1, 50160, Note_off_c, 1, 59, 0
1, 50160, Note_on_c, 1, 61, 127
1, 50160, Note_on_c, 1, 49, 127
1, 50189, Note_off_c, 1, 49, 0
1, 50190, Note_off_c, 1, 61, 0
1, 50190, Note_on_c, 1, 62, 127
1, 50190, Note_on_c, 1, 50, 127
1, 50219, Note_off_c, 1, 50, 0
1, 50220, Note_off_c, 1, 62, 0
1, 50220, Note_on_c, 1, 64, 127
1, 50220, Note_on_c, 1, 52, 127
1, 50279, Note_off_c, 1, 64, 0
1, 50279, Note_off_c, 1, 52, 0
1, 50280, Note_on_c, 1, 64, 127
1, 50280, Note_on_c, 1, 52, 127
1, 50339, Note_off_c, 1, 64, 0
1, 50339, Note_off_c, 1, 52, 0
1, 50340, Note_on_c, 1, 65, 127
1, 50340, Note_on_c, 1, 53, 127
1, 50399, Note_off_c, 1, 65, 0
1, 50399, Note_off_c, 1, 53, 0
1, 50400, Note_on_c, 1, 64, 127
1, 50400, Note_on_c, 1, 52, 127
1, 50459, Note_off_c, 1, 64, 0
1, 50459, Note_off_c, 1, 52, 0
1, 50460, Note_on_c, 1, 57, 127
1, 50460, Note_on_c, 1, 45, 127
1, 50489, Note_off_c, 1, 57, 0
1, 50489, Note_off_c, 1, 45, 0
1, 50490, Note_on_c, 1, 59, 127
1, 50490, Note_on_c, 1, 47, 127
1, 50519, Note_off_c, 1, 59, 0
1, 50519, Note_off_c, 1, 47, 0
1, 50520, Note_on_c, 1, 61, 127
1, 50520, Note_on_c, 1, 49, 127
1, 50549, Note_off_c, 1, 61, 0
1, 50549, Note_off_c, 1, 49, 0
1, 50550, Note_on_c, 1, 62, 127
1, 50550, Note_on_c, 1, 50, 127
1, 50579, Note_off_c, 1, 62, 0
1, 50579, Note_off_c, 1, 50, 0
1, 50580, Note_on_c, 1, 64, 127
1, 50580, Note_on_c, 1, 52, 127
1, 50639, Note_off_c, 1, 64, 0
1, 50639, Note_off_c, 1, 52, 0
1, 50640, Note_on_c, 1, 64, 127
1, 50640, Note_on_c, 1, 52, 127
1, 50699, Note_off_c, 1, 64, 0
1, 50699, Note_off_c, 1, 52, 0
1, 50700, Note_on_c, 1, 65, 127
1, 50700, Note_on_c, 1, 53, 127
1, 50759, Note_off_c, 1, 65, 0
1, 50759, Note_off_c, 1, 53, 0
1, 50760, Note_on_c, 1, 64, 127
1, 50760, Note_on_c, 1, 52, 127
1, 50819, Note_off_c, 1, 64, 0
1, 50819, Note_off_c, 1, 52, 0
1, 50820, Note_on_c, 1, 57, 127
1, 50820, Note_on_c, 1, 45, 127
1, 50849, Note_off_c, 1, 57, 0
1, 50849, Note_off_c, 1, 45, 0
1, 50850, Note_on_c, 1, 59, 127
1, 50850, Note_on_c, 1, 47, 127
1, 50879, Note_off_c, 1, 59, 0
1, 50879, Note_off_c, 1, 47, 0
1, 50880, Note_on_c, 1, 61, 127
1, 50880, Note_on_c, 1, 49, 127
1, 50909, Note_off_c, 1, 61, 0
1, 50909, Note_off_c, 1, 49, 0
1, 50910, Note_on_c, 1, 62, 127
1, 50910, Note_on_c, 1, 50, 127
1, 50939, Note_off_c, 1, 62, 0
1, 50939, Note_off_c, 1, 50, 0
1, 50940, Note_on_c, 1, 64, 127
1, 50940, Note_on_c, 1, 52, 127
1, 50969, Note_off_c, 1, 64, 0
1, 50969, Note_off_c, 1, 52, 0
1, 50970, Note_on_c, 1, 62, 127
1, 50970, Note_on_c, 1, 50, 127
1, 50999, Note_off_c, 1, 62, 0
1, 50999, Note_off_c, 1, 50, 0
1, 51000, Note_on_c, 1, 61, 127
1, 51000, Note_on_c, 1, 49, 127
1, 51029, Note_off_c, 1, 61, 0
1, 51029, Note_off_c, 1, 49, 0
1, 51030, Note_on_c, 1, 62, 127
1, 51030, Note_on_c, 1, 50, 127
1, 51059, Note_off_c, 1, 62, 0
1, 51059, Note_off_c, 1, 50, 0
1, 51060, Note_on_c, 1, 64, 127
1, 51060, Note_on_c, 1, 52, 127
1, 51089, Note_off_c, 1, 64, 0
1, 51089, Note_off_c, 1, 52, 0
1, 51090, Note_on_c, 1, 65, 127
1, 51090, Note_on_c, 1, 53, 127
1, 51119, Note_off_c, 1, 65, 0
1, 51119, Note_off_c, 1, 53, 0
1, 51120, Note_on_c, 1, 67, 127
1, 51120, Note_on_c, 1, 55, 127
1, 51149, Note_off_c, 1, 67, 0
1, 51149, Note_off_c, 1, 55, 0
1, 51150, Note_on_c, 1, 65, 127
1, 51150, Note_on_c, 1, 53, 127
1, 51179, Note_off_c, 1, 65, 0
1, 51179, Note_off_c, 1, 53, 0
1, 51180, Note_on_c, 1, 64, 127
1, 51180, Note_on_c, 1, 52, 127
1, 51209, Note_off_c, 1, 64, 0
1, 51209, Note_off_c, 1, 52, 0
1, 51210, Note_on_c, 1, 65, 127
1, 51210, Note_on_c, 1, 53, 127
1, 51239, Note_off_c, 1, 65, 0
1, 51239, Note_off_c, 1, 53, 0
1, 51240, Note_on_c, 1, 67, 127
1, 51240, Note_on_c, 1, 55, 127
1, 51269, Note_off_c, 1, 67, 0
1, 51269, Note_off_c, 1, 55, 0
1, 51270, Note_on_c, 1, 69, 127
1, 51270, Note_on_c, 1, 57, 127
1, 51299, Note_off_c, 1, 69, 0
1, 51299, Note_off_c, 1, 57, 0
1, 51300, Note_on_c, 1, 70, 127
1, 51300, Note_on_c, 1, 58, 127
1, 51329, Note_off_c, 1, 70, 0
1, 51329, Note_off_c, 1, 58, 0
1, 51330, Note_on_c, 1, 69, 127
1, 51330, Note_on_c, 1, 57, 127
1, 51359, Note_off_c, 1, 69, 0
1, 51359, Note_off_c, 1, 57, 0
1, 51360, Note_on_c, 1, 67, 127
1, 51360, Note_on_c, 1, 55, 127
1, 51389, Note_off_c, 1, 67, 0
1, 51389, Note_off_c, 1, 55, 0
1, 51390, Note_on_c, 1, 65, 127
1, 51390, Note_on_c, 1, 53, 127
1, 51419, Note_off_c, 1, 65, 0
1, 51419, Note_off_c, 1, 53, 0
1, 51420, Note_on_c, 1, 64, 127
1, 51420, Note_on_c, 1, 52, 127
1, 51449, Note_off_c, 1, 64, 0
1, 51449, Note_off_c, 1, 52, 0
1, 51450, Note_on_c, 1, 62, 127
1, 51450, Note_on_c, 1, 50, 127
1, 51479, Note_off_c, 1, 62, 0
1, 51479, Note_off_c, 1, 50, 0
1, 51480, Note_on_c, 1, 61, 127
1, 51480, Note_on_c, 1, 49, 127
1, 51509, Note_off_c, 1, 61, 0
1, 51509, Note_off_c, 1, 49, 0
1, 51510, Note_on_c, 1, 64, 127
1, 51510, Note_on_c, 1, 52, 127
1, 51539, Note_off_c, 1, 64, 0
1, 51539, Note_off_c, 1, 52, 0
1, 51540, Note_on_c, 1, 57, 127
1, 51540, Note_on_c, 1, 45, 127
1, 51569, Note_off_c, 1, 57, 0
1, 51569, Note_off_c, 1, 45, 0
1, 51570, Note_on_c, 1, 61, 127
1, 51570, Note_on_c, 1, 49, 127
1, 51599, Note_off_c, 1, 61, 0
1, 51599, Note_off_c, 1, 49, 0
1, 51600, Note_on_c, 1, 62, 127
1, 51600, Note_on_c, 1, 50, 127
1, 51659, Note_off_c, 1, 62, 0
1, 51659, Note_off_c, 1, 50, 0
1, 51690, Note_on_c, 1, 55, 127
1, 51690, Note_on_c, 1, 43, 127
1, 51719, Note_off_c, 1, 55, 0
1, 51719, Note_off_c, 1, 43, 0
1, 51720, Note_on_c, 1, 57, 127
1, 51720, Note_on_c, 1, 45, 127
1, 51779, Note_off_c, 1, 57, 0
1, 51779, Note_off_c, 1, 45, 0
1, 51780, Note_on_c, 1, 57, 127
1, 51780, Note_on_c, 1, 45, 127
1, 51839, Note_off_c, 1, 57, 0
1, 51839, Note_off_c, 1, 45, 0
1, 51840, Note_on_c, 1, 62, 127
1, 51840, Note_on_c, 1, 50, 127
1, 51840, Note_on_c, 1, 38, 127
1, 52019, Note_off_c, 1, 62, 0
1, 52019, Note_off_c, 1, 50, 0
1, 52019, Note_off_c, 1, 38, 0
1, 52200, Note_on_c, 1, 77, 127
1, 52200, Note_on_c, 1, 53, 127
1, 52200, Note_on_c, 1, 57, 127
1, 52200, Note_on_c, 1, 60, 127
1, 52215, Note_on_c, 1, 76, 127
1, 52230, Note_off_c, 1, 76, 0
1, 52259, Note_off_c, 1, 53, 0
1, 52259, Note_off_c, 1, 57, 0
1, 52259, Note_off_c, 1, 60, 0
1, 52260, Note_on_c, 1, 69, 127
1, 52260, Note_on_c, 1, 65, 127
1, 52289, Note_off_c, 1, 77, 0
1, 52290, Note_off_c, 1, 69, 0
1, 52290, Note_off_c, 1, 65, 0
1, 52290, Note_on_c, 1, 72, 127
1, 52319, Note_off_c, 1, 72, 0
1, 52320, Note_on_c, 1, 72, 127
1, 52320, Note_on_c, 1, 70, 127
1, 52320, Note_on_c, 1, 65, 127
1, 52320, Note_on_c, 1, 53, 127
1, 52349, Note_off_c, 1, 72, 0
1, 52350, Note_off_c, 1, 70, 0
1, 52350, Note_off_c, 1, 65, 0
1, 52350, Note_off_c, 1, 53, 0
1, 52350, Note_on_c, 1, 74, 127
1, 52380, Note_on_c, 1, 64, 127
1, 52380, Note_on_c, 1, 55, 127
1, 52380, Note_on_c, 1, 58, 127
1, 52439, Note_off_c, 1, 74, 0
1, 52439, Note_off_c, 1, 64, 0
1, 52439, Note_off_c, 1, 55, 0
1, 52439, Note_off_c, 1, 58, 0
1, 52440, Note_on_c, 1, 72, 127
1, 52440, Note_on_c, 1, 67, 127
1, 52440, Note_on_c, 1, 64, 127
1, 52440, Note_on_c, 1, 53, 127
1, 52450, Note_on_c, 1, 74, 127
1, 52460, Note_off_c, 1, 74, 0
1, 52470, Note_off_c, 1, 72, 0
1, 52470, Note_off_c, 1, 67, 0
1, 52470, Note_off_c, 1, 64, 0
1, 52470, Note_off_c, 1, 53, 0
1, 52470, Note_on_c, 1, 70, 127
1, 52499, Note_off_c, 1, 70, 0
1, 52500, Note_on_c, 1, 69, 127
1, 52500, Note_on_c, 1, 64, 127
1, 52500, Note_on_c, 1, 60, 127
1, 52500, Note_on_c, 1, 53, 127
1, 52529, Note_off_c, 1, 69, 0
1, 52530, Note_off_c, 1, 64, 0
1, 52530, Note_off_c, 1, 60, 0
1, 52530, Note_off_c, 1, 53, 0
1, 52530, Note_on_c, 1, 70, 127
1, 52559, Note_off_c, 1, 70, 0
1, 52560, Note_on_c, 1, 70, 127
1, 52560, Note_on_c, 1, 53, 127
1, 52560, Note_on_c, 1, 65, 127
1, 52560, Note_on_c, 1, 60, 127
1, 52589, Note_off_c, 1, 70, 0
1, 52590, Note_on_c, 1, 69, 127
1, 52619, Note_off_c, 1, 53, 0
1, 52619, Note_off_c, 1, 65, 0
1, 52619, Note_off_c, 1, 60, 0
1, 52650, Note_off_c, 1, 69, 0
1, 52680, Note_on_c, 1, 72, 127
1, 52680, Note_on_c, 1, 69, 127
1, 52680, Note_on_c, 1, 65, 127
1, 52680, Note_on_c, 1, 53, 127
1, 52710, Note_off_c, 1, 69, 0
1, 52710, Note_off_c, 1, 65, 0
1, 52710, Note_off_c, 1, 53, 0
1, 52739, Note_off_c, 1, 72, 0
1, 52740, Note_on_c, 1, 65, 127
1, 52740, Note_on_c, 1, 53, 127
1, 52740, Note_on_c, 1, 60, 127
1, 52740, Note_on_c, 1, 57, 127
1, 52769, Note_off_c, 1, 65, 0
1, 52799, Note_off_c, 1, 53, 0
1, 52799, Note_off_c, 1, 60, 0
1, 52799, Note_off_c, 1, 57, 0
1, 52800, Note_on_c, 1, 69, 127
1, 52800, Note_on_c, 1, 72, 127
1, 52800, Note_on_c, 1, 65, 127
1, 52800, Note_on_c, 1, 53, 127
1, 52829, Note_off_c, 1, 69, 0
1, 52830, Note_off_c, 1, 72, 0
1, 52830, Note_off_c, 1, 65, 0
1, 52830, Note_off_c, 1, 53, 0
1, 52860, Note_on_c, 1, 72, 127
1, 52860, Note_on_c, 1, 77, 127
1, 52860, Note_on_c, 1, 69, 127
1, 52860, Note_on_c, 1, 53, 127
1, 52889, Note_off_c, 1, 72, 0
1, 52890, Note_off_c, 1, 77, 0
1, 52890, Note_off_c, 1, 69, 0
1, 52890, Note_off_c, 1, 53, 0
1, 52920, Note_on_c, 1, 79, 127
1, 52920, Note_on_c, 1, 53, 127
1, 52920, Note_on_c, 1, 59, 127
1, 52920, Note_on_c, 1, 62, 127
1, 52927, Note_on_c, 1, 77, 127
1, 52935, Note_off_c, 1, 77, 0
1, 52979, Note_off_c, 1, 53, 0
1, 52979, Note_off_c, 1, 59, 0
1, 52979, Note_off_c, 1, 62, 0
1, 52980, Note_on_c, 1, 71, 127
1, 53010, Note_off_c, 1, 79, 0
1, 53010, Note_off_c, 1, 71, 0
1, 53010, Note_on_c, 1, 74, 127
1, 53039, Note_off_c, 1, 74, 0
1, 53040, Note_on_c, 1, 74, 127
1, 53040, Note_on_c, 1, 72, 127
1, 53040, Note_on_c, 1, 60, 127
1, 53040, Note_on_c, 1, 53, 127
1, 53069, Note_off_c, 1, 74, 0
1, 53070, Note_off_c, 1, 72, 0
1, 53070, Note_off_c, 1, 60, 0
1, 53070, Note_off_c, 1, 53, 0
1, 53070, Note_on_c, 1, 75, 127
1, 53100, Note_on_c, 1, 54, 127
1, 53100, Note_on_c, 1, 57, 127
1, 53159, Note_off_c, 1, 75, 0
1, 53159, Note_off_c, 1, 54, 0
1, 53159, Note_off_c, 1, 57, 0
1, 53160, Note_on_c, 1, 74, 127
1, 53160, Note_on_c, 1, 69, 127
1, 53160, Note_on_c, 1, 62, 127
1, 53160, Note_on_c, 1, 54, 127
1, 53189, Note_off_c, 1, 74, 0
1, 53190, Note_off_c, 1, 69, 0
1, 53190, Note_off_c, 1, 62, 0
1, 53190, Note_off_c, 1, 54, 0
1, 53190, Note_on_c, 1, 72, 127
1, 53219, Note_off_c, 1, 72, 0
1, 53220, Note_on_c, 1, 71, 127
1, 53220, Note_on_c, 1, 69, 127
1, 53220, Note_on_c, 1, 62, 127
1, 53220, Note_on_c, 1, 54, 127
1, 53249, Note_off_c, 1, 71, 0
1, 53250, Note_off_c, 1, 69, 0
1, 53250, Note_off_c, 1, 62, 0
1, 53250, Note_off_c, 1, 54, 0
1, 53250, Note_on_c, 1, 72, 127
1, 53279, Note_off_c, 1, 72, 0
1, 53280, Note_on_c, 1, 72, 127
1, 53280, Note_on_c, 1, 55, 127
1, 53280, Note_on_c, 1, 67, 127
1, 53280, Note_on_c, 1, 62, 127
1, 53309, Note_off_c, 1, 72, 0
1, 53310, Note_on_c, 1, 71, 127
1, 53339, Note_off_c, 1, 55, 0
1, 53339, Note_off_c, 1, 67, 0
1, 53339, Note_off_c, 1, 62, 0
1, 53370, Note_off_c, 1, 71, 0
1, 53400, Note_on_c, 1, 74, 127
1, 53400, Note_on_c, 1, 71, 127
1, 53400, Note_on_c, 1, 67, 127
1, 53400, Note_on_c, 1, 55, 127
1, 53430, Note_off_c, 1, 71, 0
1, 53430, Note_off_c, 1, 67, 0
1, 53430, Note_off_c, 1, 55, 0
1, 53459, Note_off_c, 1, 74, 0
1, 53460, Note_on_c, 1, 67, 127
1, 53460, Note_on_c, 1, 55, 127
1, 53460, Note_on_c, 1, 62, 127
1, 53460, Note_on_c, 1, 59, 127
1, 53489, Note_off_c, 1, 67, 0
1, 53519, Note_off_c, 1, 55, 0
1, 53519, Note_off_c, 1, 62, 0
1, 53519, Note_off_c, 1, 59, 0
1, 53520, Note_on_c, 1, 71, 127
1, 53520, Note_on_c, 1, 74, 127
1, 53520, Note_on_c, 1, 67, 127
1, 53520, Note_on_c, 1, 55, 127
1, 53549, Note_off_c, 1, 71, 0
1, 53550, Note_off_c, 1, 74, 0
1, 53550, Note_off_c, 1, 67, 0
1, 53550, Note_off_c, 1, 55, 0
1, 53580, Note_on_c, 1, 74, 127
1, 53580, Note_on_c, 1, 79, 127
1, 53580, Note_on_c, 1, 71, 127
1, 53580, Note_on_c, 1, 55, 127
1, 53609, Note_off_c, 1, 74, 0
1, 53610, Note_off_c, 1, 79, 0
1, 53610, Note_off_c, 1, 71, 0
1, 53610, Note_off_c, 1, 55, 0
1, 53640, Note_on_c, 1, 83, 127
1, 53640, Note_on_c, 1, 56, 127
1, 53640, Note_on_c, 1, 62, 127
1, 53640, Note_on_c, 1, 59, 127
1, 53669, Note_off_c, 1, 83, 0
1, 53670, Note_on_c, 1, 84, 127
1, 53699, Note_off_c, 1, 56, 0
1, 53699, Note_off_c, 1, 62, 0
1, 53699, Note_off_c, 1, 59, 0
1, 53699, Note_off_c, 1, 84, 0
1, 53700, Note_on_c, 1, 86, 127
1, 53700, Note_on_c, 1, 76, 127
1, 53700, Note_on_c, 1, 71, 127
1, 53700, Note_on_c, 1, 56, 127
1, 53729, Note_off_c, 1, 86, 0
1, 53730, Note_off_c, 1, 71, 0
1, 53730, Note_off_c, 1, 56, 0
1, 53759, Note_off_c, 1, 76, 0
1, 53760, Note_on_c, 1, 76, 127
1, 53760, Note_on_c, 1, 74, 127
1, 53760, Note_on_c, 1, 59, 127
1, 53760, Note_on_c, 1, 56, 127
1, 53789, Note_off_c, 1, 76, 0
1, 53790, Note_off_c, 1, 74, 0
1, 53790, Note_off_c, 1, 59, 0
1, 53790, Note_off_c, 1, 56, 0
1, 53790, Note_on_c, 1, 77, 127
1, 53820, Note_on_c, 1, 57, 127
1, 53820, Note_on_c, 1, 60, 127
1, 53820, Note_on_c, 1, 69, 127
1, 53879, Note_off_c, 1, 77, 0
1, 53879, Note_off_c, 1, 57, 0
1, 53879, Note_off_c, 1, 60, 0
1, 53879, Note_off_c, 1, 69, 0
1, 53880, Note_on_c, 1, 76, 127
1, 53880, Note_on_c, 1, 72, 127
1, 53880, Note_on_c, 1, 64, 127
1, 53880, Note_on_c, 1, 57, 127
1, 53887, Note_on_c, 1, 77, 127
1, 53895, Note_off_c, 1, 77, 0
1, 53910, Note_off_c, 1, 76, 0
1, 53910, Note_off_c, 1, 72, 0
1, 53910, Note_off_c, 1, 64, 0
1, 53910, Note_off_c, 1, 57, 0
1, 53910, Note_on_c, 1, 74, 127
1, 53939, Note_off_c, 1, 74, 0
1, 53940, Note_on_c, 1, 76, 127
1, 53940, Note_on_c, 1, 72, 127
1, 53940, Note_on_c, 1, 69, 127
1, 53940, Note_on_c, 1, 57, 127
1, 53969, Note_off_c, 1, 76, 0
1, 53970, Note_off_c, 1, 72, 0
1, 53970, Note_off_c, 1, 69, 0
1, 53970, Note_off_c, 1, 57, 0
1, 53970, Note_on_c, 1, 77, 127
1, 53999, Note_off_c, 1, 77, 0
1, 54000, Note_on_c, 1, 79, 127
1, 54000, Note_on_c, 1, 52, 127
1, 54000, Note_on_c, 1, 55, 127
1, 54000, Note_on_c, 1, 60, 127
1, 54029, Note_off_c, 1, 79, 0
1, 54030, Note_on_c, 1, 71, 127
1, 54059, Note_off_c, 1, 52, 0
1, 54059, Note_off_c, 1, 55, 0
1, 54059, Note_off_c, 1, 60, 0
1, 54059, Note_off_c, 1, 71, 0
1, 54060, Note_on_c, 1, 72, 127
1, 54060, Note_on_c, 1, 67, 127
1, 54060, Note_on_c, 1, 60, 127
1, 54060, Note_on_c, 1, 52, 127
1, 54089, Note_off_c, 1, 72, 0
1, 54090, Note_off_c, 1, 60, 0
1, 54090, Note_off_c, 1, 52, 0
1, 54119, Note_off_c, 1, 67, 0
1, 54120, Note_on_c, 1, 70, 127
1, 54120, Note_on_c, 1, 67, 127
1, 54120, Note_on_c, 1, 60, 127
1, 54120, Note_on_c, 1, 52, 127
1, 54150, Note_off_c, 1, 67, 0
1, 54150, Note_off_c, 1, 60, 0
1, 54150, Note_off_c, 1, 52, 0
1, 54180, Note_on_c, 1, 54, 127
1, 54180, Note_on_c, 1, 63, 127
1, 54239, Note_off_c, 1, 70, 0
1, 54239, Note_off_c, 1, 54, 0
1, 54239, Note_off_c, 1, 63, 0
1, 54240, Note_on_c, 1, 69, 127
1, 54240, Note_on_c, 1, 72, 127
1, 54240, Note_on_c, 1, 63, 127
1, 54240, Note_on_c, 1, 54, 127
1, 54269, Note_off_c, 1, 69, 0
1, 54270, Note_off_c, 1, 72, 0
1, 54270, Note_off_c, 1, 63, 0
1, 54270, Note_off_c, 1, 54, 0
1, 54270, Note_on_c, 1, 71, 127
1, 54299, Note_off_c, 1, 71, 0
1, 54300, Note_on_c, 1, 72, 127
1, 54300, Note_on_c, 1, 69, 127
1, 54300, Note_on_c, 1, 63, 127
1, 54300, Note_on_c, 1, 54, 127
1, 54329, Note_off_c, 1, 72, 0
1, 54330, Note_off_c, 1, 69, 0
1, 54330, Note_off_c, 1, 63, 0
1, 54330, Note_off_c, 1, 54, 0
1, 54330, Note_on_c, 1, 74, 127
1, 54359, Note_off_c, 1, 74, 0
1, 54360, Note_on_c, 1, 74, 127
1, 54360, Note_on_c, 1, 55, 127
1, 54360, Note_on_c, 1, 60, 127
1, 54360, Note_on_c, 1, 63, 127
1, 54389, Note_off_c, 1, 74, 0
1, 54390, Note_on_c, 1, 75, 127
1, 54419, Note_off_c, 1, 55, 0
1, 54419, Note_off_c, 1, 60, 0
1, 54419, Note_off_c, 1, 63, 0
1, 54420, Note_on_c, 1, 71, 127
1, 54420, Note_on_c, 1, 62, 127
1, 54449, Note_off_c, 1, 75, 0
1, 54450, Note_off_c, 1, 71, 0
1, 54450, Note_off_c, 1, 62, 0
1, 54450, Note_on_c, 1, 80, 127
1, 54479, Note_off_c, 1, 80, 0
1, 54480, Note_on_c, 1, 79, 127
1, 54480, Note_on_c, 1, 72, 127
1, 54480, Note_on_c, 1, 63, 127
1, 54480, Note_on_c, 1, 55, 127
1, 54510, Note_off_c, 1, 72, 0
1, 54510, Note_off_c, 1, 63, 0
1, 54510, Note_off_c, 1, 55, 0
1, 54540, Note_on_c, 1, 43, 127
1, 54540, Note_on_c, 1, 62, 127
1, 54540, Note_on_c, 1, 65, 127
1, 54570, Note_off_c, 1, 43, 0
1, 54599, Note_off_c, 1, 79, 0
1, 54599, Note_off_c, 1, 62, 0
1, 54599, Note_off_c, 1, 65, 0
1, 54600, Note_on_c, 1, 72, 127
1, 54600, Note_on_c, 1, 67, 127
1, 54600, Note_on_c, 1, 62, 127
1, 54600, Note_on_c, 1, 43, 127
1, 54629, Note_off_c, 1, 72, 0
1, 54630, Note_off_c, 1, 67, 0
1, 54630, Note_off_c, 1, 62, 0
1, 54630, Note_off_c, 1, 43, 0
1, 54630, Note_on_c, 1, 71, 127
1, 54660, Note_on_c, 1, 65, 127
1, 54689, Note_off_c, 1, 71, 0
1, 54690, Note_off_c, 1, 65, 0
1, 54720, Note_on_c, 1, 72, 127
1, 54720, Note_on_c, 1, 64, 127
1, 54720, Note_on_c, 1, 60, 127
1, 54720, Note_on_c, 1, 48, 127
1, 54779, Note_off_c, 1, 64, 0
1, 54779, Note_off_c, 1, 60, 0
1, 54780, Note_on_c, 1, 55, 127
1, 54809, Note_off_c, 1, 72, 0
1, 54810, Note_off_c, 1, 55, 0
1, 54825, Note_off_c, 1, 48, 0
1, 54840, Note_on_c, 1, 67, 127
1, 54840, Note_on_c, 1, 59, 127
1, 54840, Note_on_c, 1, 53, 127
1, 54870, Note_off_c, 1, 59, 0
1, 54870, Note_off_c, 1, 53, 0
1, 54899, Note_off_c, 1, 67, 0
1, 54900, Note_on_c, 1, 60, 127
1, 54900, Note_on_c, 1, 55, 127
1, 54900, Note_on_c, 1, 52, 127
1, 54930, Note_on_c, 1, 50, 127
1, 54930, Note_on_c, 1, 62, 127
1, 54945, Note_off_c, 1, 50, 0
1, 54959, Note_off_c, 1, 62, 0
1, 54960, Note_off_c, 1, 52, 0
1, 54960, Note_on_c, 1, 48, 127
1, 54975, Note_off_c, 1, 48, 0
1, 54990, Note_on_c, 1, 46, 127
1, 54990, Note_on_c, 1, 58, 127
1, 55005, Note_off_c, 1, 46, 0
1, 55019, Note_off_c, 1, 60, 0
1, 55019, Note_off_c, 1, 55, 0
1, 55019, Note_off_c, 1, 58, 0
1, 55020, Note_on_c, 1, 45, 127
1, 55020, Note_on_c, 1, 57, 127
1, 55035, Note_off_c, 1, 45, 0
1, 55049, Note_off_c, 1, 57, 0
1, 55050, Note_on_c, 1, 43, 127
1, 55050, Note_on_c, 1, 55, 127
1, 55065, Note_off_c, 1, 43, 0
1, 55079, Note_off_c, 1, 55, 0
1, 55080, Note_on_c, 1, 41, 127
1, 55080, Note_on_c, 1, 77, 127
1, 55080, Note_on_c, 1, 53, 127
1, 55080, Note_on_c, 1, 72, 127
1, 55080, Note_on_c, 1, 69, 127
1, 55109, Note_off_c, 1, 77, 0
1, 55110, Note_off_c, 1, 72, 0
1, 55110, Note_off_c, 1, 69, 0
1, 55110, Note_on_c, 1, 76, 127
1, 55139, Note_off_c, 1, 53, 0
1, 55139, Note_off_c, 1, 76, 0
1, 55170, Note_off_c, 1, 41, 0
1, 55200, Note_on_c, 1, 74, 127
1, 55200, Note_on_c, 1, 53, 127
1, 55200, Note_on_c, 1, 70, 127
1, 55200, Note_on_c, 1, 67, 127
1, 55229, Note_off_c, 1, 74, 0
1, 55230, Note_off_c, 1, 70, 0
1, 55230, Note_off_c, 1, 67, 0
1, 55230, Note_on_c, 1, 76, 127
1, 55259, Note_off_c, 1, 53, 0
1, 55259, Note_off_c, 1, 76, 0
1, 55260, Note_on_c, 1, 77, 127
1, 55260, Note_on_c, 1, 53, 127
1, 55260, Note_on_c, 1, 69, 127
1, 55260, Note_on_c, 1, 60, 127
1, 55260, Note_on_c, 1, 41, 127
1, 55289, Note_off_c, 1, 77, 0
1, 55290, Note_off_c, 1, 69, 0
1, 55290, Note_off_c, 1, 60, 0
1, 55290, Note_off_c, 1, 41, 0
1, 55290, Note_on_c, 1, 74, 127
1, 55319, Note_off_c, 1, 53, 0
1, 55319, Note_off_c, 1, 74, 0
1, 55320, Note_on_c, 1, 72, 127
1, 55320, Note_on_c, 1, 53, 127
1, 55320, Note_on_c, 1, 69, 127
1, 55320, Note_on_c, 1, 41, 127
1, 55350, Note_off_c, 1, 72, 0
1, 55350, Note_off_c, 1, 69, 0
1, 55350, Note_off_c, 1, 41, 0
1, 55350, Note_on_c, 1, 70, 127
1, 55379, Note_off_c, 1, 53, 0
1, 55379, Note_off_c, 1, 70, 0
1, 55380, Note_on_c, 1, 69, 127
1, 55380, Note_on_c, 1, 53, 127
1, 55380, Note_on_c, 1, 67, 127
1, 55380, Note_on_c, 1, 76, 127
1, 55409, Note_off_c, 1, 69, 0
1, 55410, Note_off_c, 1, 67, 0
1, 55410, Note_off_c, 1, 76, 0
1, 55410, Note_on_c, 1, 70, 127
1, 55439, Note_off_c, 1, 53, 0
1, 55439, Note_off_c, 1, 70, 0
1, 55440, Note_on_c, 1, 41, 127
1, 55440, Note_on_c, 1, 69, 127
1, 55440, Note_on_c, 1, 53, 127
1, 55440, Note_on_c, 1, 77, 127
1, 55440, Note_on_c, 1, 72, 127
1, 55469, Note_off_c, 1, 69, 0
1, 55470, Note_off_c, 1, 77, 0
1, 55470, Note_off_c, 1, 72, 0
1, 55470, Note_on_c, 1, 70, 127
1, 55499, Note_off_c, 1, 53, 0
1, 55499, Note_off_c, 1, 70, 0
1, 55530, Note_off_c, 1, 41, 0
1, 55560, Note_on_c, 1, 69, 127
1, 55560, Note_on_c, 1, 53, 127
1, 55560, Note_on_c, 1, 65, 127
1, 55560, Note_on_c, 1, 72, 127
1, 55589, Note_off_c, 1, 69, 0
1, 55590, Note_off_c, 1, 65, 0
1, 55590, Note_off_c, 1, 72, 0
1, 55590, Note_on_c, 1, 67, 127
1, 55619, Note_off_c, 1, 53, 0
1, 55619, Note_off_c, 1, 67, 0
1, 55620, Note_on_c, 1, 65, 127
1, 55620, Note_on_c, 1, 53, 127
1, 55620, Note_on_c, 1, 60, 127
1, 55620, Note_on_c, 1, 69, 127
1, 55620, Note_on_c, 1, 41, 127
1, 55649, Note_off_c, 1, 65, 0
1, 55650, Note_off_c, 1, 60, 0
1, 55650, Note_off_c, 1, 69, 0
1, 55650, Note_off_c, 1, 41, 0
1, 55650, Note_on_c, 1, 67, 127
1, 55679, Note_off_c, 1, 53, 0
1, 55679, Note_off_c, 1, 67, 0
1, 55680, Note_on_c, 1, 69, 127
1, 55680, Note_on_c, 1, 53, 127
1, 55680, Note_on_c, 1, 65, 127
1, 55680, Note_on_c, 1, 72, 127
1, 55680, Note_on_c, 1, 41, 127
1, 55709, Note_off_c, 1, 69, 0
1, 55710, Note_off_c, 1, 65, 0
1, 55710, Note_off_c, 1, 72, 0
1, 55710, Note_off_c, 1, 41, 0
1, 55710, Note_on_c, 1, 70, 127
1, 55739, Note_off_c, 1, 53, 0
1, 55739, Note_off_c, 1, 70, 0
1, 55740, Note_on_c, 1, 72, 127
1, 55740, Note_on_c, 1, 53, 127
1, 55740, Note_on_c, 1, 60, 127
1, 55740, Note_on_c, 1, 69, 127
1, 55740, Note_on_c, 1, 65, 127
1, 55769, Note_off_c, 1, 72, 0
1, 55770, Note_off_c, 1, 60, 0
1, 55770, Note_off_c, 1, 69, 0
1, 55770, Note_off_c, 1, 65, 0
1, 55770, Note_on_c, 1, 74, 127
1, 55799, Note_off_c, 1, 53, 0
1, 55799, Note_off_c, 1, 74, 0
1, 55800, Note_on_c, 1, 41, 127
1, 55800, Note_on_c, 1, 79, 127
1, 55800, Note_on_c, 1, 53, 127
1, 55800, Note_on_c, 1, 62, 127
1, 55800, Note_on_c, 1, 71, 127
1, 55829, Note_off_c, 1, 79, 0
1, 55830, Note_off_c, 1, 62, 0
1, 55830, Note_off_c, 1, 71, 0
1, 55830, Note_on_c, 1, 77, 127
1, 55859, Note_off_c, 1, 53, 0
1, 55859, Note_off_c, 1, 77, 0
1, 55860, Note_on_c, 1, 74, 127
1, 55890, Note_off_c, 1, 41, 0
1, 55890, Note_off_c, 1, 74, 0
1, 55920, Note_on_c, 1, 72, 127
1, 55920, Note_on_c, 1, 53, 127
1, 55920, Note_on_c, 1, 79, 127
1, 55920, Note_on_c, 1, 67, 127
1, 55920, Note_on_c, 1, 71, 127
1, 55949, Note_off_c, 1, 72, 0
1, 55950, Note_off_c, 1, 79, 0
1, 55950, Note_off_c, 1, 67, 0
1, 55950, Note_off_c, 1, 71, 0
1, 55950, Note_on_c, 1, 74, 127
1, 55979, Note_off_c, 1, 53, 0
1, 55979, Note_off_c, 1, 74, 0
1, 55980, Note_on_c, 1, 42, 127
1, 55980, Note_on_c, 1, 75, 127
1, 55980, Note_on_c, 1, 54, 127
1, 55980, Note_on_c, 1, 72, 127
1, 55980, Note_on_c, 1, 76, 127
1, 56009, Note_off_c, 1, 75, 0
1, 56010, Note_off_c, 1, 72, 0
1, 56010, Note_off_c, 1, 76, 0
1, 56010, Note_on_c, 1, 81, 127
1, 56039, Note_off_c, 1, 54, 0
1, 56039, Note_off_c, 1, 81, 0
1, 56040, Note_on_c, 1, 69, 127
1, 56070, Note_off_c, 1, 42, 0
1, 56070, Note_off_c, 1, 69, 0
1, 56070, Note_on_c, 1, 74, 127
1, 56099, Note_off_c, 1, 74, 0
1, 56100, Note_on_c, 1, 72, 127
1, 56100, Note_on_c, 1, 54, 127
1, 56100, Note_on_c, 1, 69, 127
1, 56100, Note_on_c, 1, 62, 127
1, 56129, Note_off_c, 1, 72, 0
1, 56130, Note_off_c, 1, 69, 0
1, 56130, Note_off_c, 1, 62, 0
1, 56130, Note_on_c, 1, 74, 127
1, 56159, Note_off_c, 1, 54, 0
1, 56159, Note_off_c, 1, 74, 0
1, 56160, Note_on_c, 1, 43, 127
1, 56160, Note_on_c, 1, 71, 127
1, 56160, Note_on_c, 1, 55, 127
1, 56160, Note_on_c, 1, 67, 127
1, 56160, Note_on_c, 1, 62, 127
1, 56189, Note_off_c, 1, 71, 0
1, 56190, Note_off_c, 1, 67, 0
1, 56190, Note_off_c, 1, 62, 0
1, 56190, Note_on_c, 1, 72, 127
1, 56219, Note_off_c, 1, 55, 0
1, 56219, Note_off_c, 1, 72, 0
1, 56220, Note_on_c, 1, 74, 127
1, 56249, Note_off_c, 1, 74, 0
1, 56250, Note_off_c, 1, 43, 0
1, 56250, Note_on_c, 1, 79, 127
1, 56279, Note_off_c, 1, 79, 0
1, 56280, Note_on_c, 1, 71, 127
1, 56280, Note_on_c, 1, 55, 127
1, 56280, Note_on_c, 1, 74, 127
1, 56280, Note_on_c, 1, 67, 127
1, 56309, Note_off_c, 1, 71, 0
1, 56310, Note_off_c, 1, 74, 0
1, 56310, Note_off_c, 1, 67, 0
1, 56310, Note_on_c, 1, 69, 127
1, 56339, Note_off_c, 1, 55, 0
1, 56339, Note_off_c, 1, 69, 0
1, 56340, Note_on_c, 1, 67, 127
1, 56340, Note_on_c, 1, 55, 127
1, 56340, Note_on_c, 1, 79, 127
1, 56340, Note_on_c, 1, 71, 127
1, 56340, Note_on_c, 1, 43, 127
1, 56369, Note_off_c, 1, 67, 0
1, 56370, Note_off_c, 1, 79, 0
1, 56370, Note_off_c, 1, 71, 0
1, 56370, Note_off_c, 1, 43, 0
1, 56370, Note_on_c, 1, 69, 127
1, 56399, Note_off_c, 1, 55, 0
1, 56399, Note_off_c, 1, 69, 0
1, 56400, Note_on_c, 1, 71, 127
1, 56400, Note_on_c, 1, 55, 127
1, 56400, Note_on_c, 1, 67, 127
1, 56400, Note_on_c, 1, 74, 127
1, 56400, Note_on_c, 1, 43, 127
1, 56429, Note_off_c, 1, 71, 0
1, 56430, Note_off_c, 1, 67, 0
1, 56430, Note_off_c, 1, 74, 0
1, 56430, Note_off_c, 1, 43, 0
1, 56430, Note_on_c, 1, 72, 127
1, 56459, Note_off_c, 1, 55, 0
1, 56459, Note_off_c, 1, 72, 0
1, 56460, Note_on_c, 1, 74, 127
1, 56460, Note_on_c, 1, 55, 127
1, 56460, Note_on_c, 1, 71, 127
1, 56460, Note_on_c, 1, 62, 127
1, 56460, Note_on_c, 1, 67, 127
1, 56489, Note_off_c, 1, 74, 0
1, 56490, Note_off_c, 1, 71, 0
1, 56490, Note_off_c, 1, 62, 0
1, 56490, Note_off_c, 1, 67, 0
1, 56490, Note_on_c, 1, 76, 127
1, 56519, Note_off_c, 1, 55, 0
1, 56519, Note_off_c, 1, 76, 0
1, 56520, Note_on_c, 1, 44, 127
1, 56520, Note_on_c, 1, 77, 127
1, 56520, Note_on_c, 1, 56, 127
1, 56520, Note_on_c, 1, 71, 127
1, 56520, Note_on_c, 1, 74, 127
1, 56549, Note_off_c, 1, 77, 0
1, 56550, Note_off_c, 1, 71, 0
1, 56550, Note_off_c, 1, 74, 0
1, 56550, Note_on_c, 1, 83, 127
1, 56579, Note_off_c, 1, 56, 0
1, 56579, Note_off_c, 1, 83, 0
1, 56580, Note_on_c, 1, 84, 127
1, 56580, Note_on_c, 1, 76, 127
1, 56609, Note_off_c, 1, 84, 0
1, 56610, Note_off_c, 1, 44, 0
1, 56610, Note_off_c, 1, 76, 0
1, 56610, Note_on_c, 1, 86, 127
1, 56639, Note_off_c, 1, 86, 0
1, 56640, Note_on_c, 1, 76, 127
1, 56640, Note_on_c, 1, 56, 127
1, 56640, Note_on_c, 1, 71, 127
1, 56640, Note_on_c, 1, 74, 127
1, 56640, Note_on_c, 1, 64, 127
1, 56669, Note_off_c, 1, 76, 0
1, 56670, Note_off_c, 1, 71, 0
1, 56670, Note_off_c, 1, 64, 0
1, 56699, Note_off_c, 1, 56, 0
1, 56699, Note_off_c, 1, 74, 0
1, 56700, Note_on_c, 1, 45, 127
1, 56700, Note_on_c, 1, 72, 127
1, 56700, Note_on_c, 1, 57, 127
1, 56700, Note_on_c, 1, 64, 127
1, 56700, Note_on_c, 1, 69, 127
1, 56729, Note_off_c, 1, 72, 0
1, 56730, Note_off_c, 1, 64, 0
1, 56730, Note_off_c, 1, 69, 0
1, 56730, Note_on_c, 1, 74, 127
1, 56759, Note_off_c, 1, 57, 0
1, 56759, Note_off_c, 1, 74, 0
1, 56760, Note_on_c, 1, 76, 127
1, 56789, Note_off_c, 1, 76, 0
1, 56790, Note_off_c, 1, 45, 0
1, 56790, Note_on_c, 1, 71, 127
1, 56819, Note_off_c, 1, 71, 0
1, 56820, Note_on_c, 1, 72, 127
1, 56820, Note_on_c, 1, 57, 127
1, 56820, Note_on_c, 1, 77, 127
1, 56820, Note_on_c, 1, 69, 127
1, 56850, Note_off_c, 1, 72, 0
1, 56850, Note_off_c, 1, 77, 0
1, 56850, Note_off_c, 1, 69, 0
1, 56850, Note_on_c, 1, 76, 127
1, 56879, Note_off_c, 1, 57, 0
1, 56879, Note_off_c, 1, 76, 0
1, 56880, Note_on_c, 1, 40, 127
1, 56880, Note_on_c, 1, 79, 127
1, 56880, Note_on_c, 1, 52, 127
1, 56880, Note_on_c, 1, 72, 127
1, 56880, Note_on_c, 1, 70, 127
1, 56909, Note_off_c, 1, 79, 0
1, 56910, Note_off_c, 1, 72, 0
1, 56910, Note_off_c, 1, 70, 0
1, 56910, Note_on_c, 1, 69, 127
1, 56939, Note_off_c, 1, 52, 0
1, 56939, Note_off_c, 1, 69, 0
1, 56970, Note_off_c, 1, 40, 0
1, 56970, Note_on_c, 1, 67, 127
1, 56999, Note_off_c, 1, 67, 0
1, 57000, Note_on_c, 1, 65, 127
1, 57000, Note_on_c, 1, 52, 127
1, 57000, Note_on_c, 1, 67, 127
1, 57000, Note_on_c, 1, 70, 127
1, 57029, Note_off_c, 1, 65, 0
1, 57030, Note_off_c, 1, 67, 0
1, 57030, Note_off_c, 1, 70, 0
1, 57030, Note_on_c, 1, 64, 127
1, 57059, Note_off_c, 1, 52, 0
1, 57059, Note_off_c, 1, 64, 0
1, 57060, Note_on_c, 1, 42, 127
1, 57060, Note_on_c, 1, 69, 127
1, 57060, Note_on_c, 1, 54, 127
1, 57060, Note_on_c, 1, 62, 127
1, 57090, Note_off_c, 1, 69, 0
1, 57119, Note_off_c, 1, 54, 0
1, 57119, Note_off_c, 1, 62, 0
1, 57120, Note_on_c, 1, 63, 127
1, 57120, Note_on_c, 1, 60, 127
1, 57149, Note_off_c, 1, 63, 0
1, 57150, Note_off_c, 1, 42, 0
1, 57150, Note_off_c, 1, 60, 0
1, 57150, Note_on_c, 1, 66, 127
1, 57179, Note_off_c, 1, 66, 0
1, 57180, Note_on_c, 1, 69, 127
1, 57180, Note_on_c, 1, 54, 127
1, 57180, Note_on_c, 1, 72, 127
1, 57180, Note_on_c, 1, 63, 127
1, 57180, Note_on_c, 1, 75, 127
1, 57209, Note_off_c, 1, 69, 0
1, 57210, Note_off_c, 1, 63, 0
1, 57210, Note_off_c, 1, 75, 0
1, 57239, Note_off_c, 1, 54, 0
1, 57239, Note_off_c, 1, 72, 0
1, 57240, Note_on_c, 1, 43, 127
1, 57240, Note_on_c, 1, 66, 127
1, 57240, Note_on_c, 1, 55, 127
1, 57240, Note_on_c, 1, 75, 127
1, 57240, Note_on_c, 1, 72, 127
1, 57269, Note_off_c, 1, 66, 0
1, 57270, Note_off_c, 1, 75, 0
1, 57270, Note_off_c, 1, 72, 0
1, 57270, Note_on_c, 1, 67, 127
1, 57299, Note_off_c, 1, 55, 0
1, 57299, Note_off_c, 1, 67, 0
1, 57300, Note_on_c, 1, 62, 127
1, 57300, Note_on_c, 1, 71, 127
1, 57329, Note_off_c, 1, 62, 0
1, 57330, Note_off_c, 1, 43, 0
1, 57330, Note_off_c, 1, 71, 0
1, 57330, Note_on_c, 1, 63, 127
1, 57359, Note_off_c, 1, 63, 0
1, 57360, Note_on_c, 1, 59, 127
1, 57360, Note_on_c, 1, 55, 127
1, 57360, Note_on_c, 1, 75, 127
1, 57360, Note_on_c, 1, 66, 127
1, 57360, Note_on_c, 1, 72, 127
1, 57360, Note_on_c, 1, 69, 127
1, 57389, Note_off_c, 1, 59, 0
1, 57390, Note_off_c, 1, 75, 0
1, 57390, Note_off_c, 1, 66, 0
1, 57390, Note_off_c, 1, 72, 0
1, 57390, Note_off_c, 1, 69, 0
1, 57390, Note_on_c, 1, 60, 127
1, 57419, Note_off_c, 1, 55, 0
1, 57419, Note_off_c, 1, 60, 0
1, 57420, Note_on_c, 1, 43, 127
1, 57420, Note_on_c, 1, 55, 127
1, 57420, Note_on_c, 1, 71, 127
1, 57420, Note_on_c, 1, 62, 127
1, 57450, Note_off_c, 1, 55, 0
1, 57450, Note_off_c, 1, 71, 0
1, 57479, Note_off_c, 1, 62, 0
1, 57480, Note_on_c, 1, 65, 127
1, 57480, Note_on_c, 1, 74, 127
1, 57509, Note_off_c, 1, 65, 0
1, 57510, Note_off_c, 1, 74, 0
1, 57510, Note_on_c, 1, 67, 127
1, 57539, Note_off_c, 1, 43, 0
1, 57539, Note_off_c, 1, 67, 0
1, 57540, Note_on_c, 1, 72, 127
1, 57540, Note_on_c, 1, 43, 127
1, 57540, Note_on_c, 1, 77, 127
1, 57540, Note_on_c, 1, 74, 127
1, 57540, Note_on_c, 1, 67, 127
1, 57540, Note_on_c, 1, 62, 127
1, 57540, Note_on_c, 1, 55, 127
1, 57569, Note_off_c, 1, 72, 0
1, 57570, Note_off_c, 1, 77, 0
1, 57570, Note_off_c, 1, 74, 0
1, 57570, Note_off_c, 1, 67, 0
1, 57570, Note_off_c, 1, 62, 0
1, 57570, Note_off_c, 1, 55, 0
1, 57570, Note_on_c, 1, 71, 127
1, 57599, Note_off_c, 1, 43, 0
1, 57599, Note_off_c, 1, 71, 0
1, 57600, Note_on_c, 1, 36, 127
1, 57600, Note_on_c, 1, 72, 127
1, 57600, Note_on_c, 1, 43, 127
1, 57600, Note_on_c, 1, 48, 127
1, 57600, Note_on_c, 1, 64, 127
1, 57600, Note_on_c, 1, 60, 127
1, 57629, Note_off_c, 1, 72, 0
1, 57630, Note_off_c, 1, 64, 0
1, 57630, Note_off_c, 1, 60, 0
1, 57630, Note_on_c, 1, 69, 127
1, 57659, Note_off_c, 1, 69, 0
1, 57660, Note_off_c, 1, 36, 0
1, 57660, Note_off_c, 1, 48, 0
1, 57660, Note_on_c, 1, 67, 127
1, 57660, Note_on_c, 1, 76, 127
1, 57689, Note_off_c, 1, 67, 0
1, 57690, Note_off_c, 1, 76, 0
1, 57690, Note_on_c, 1, 65, 127
1, 57719, Note_off_c, 1, 43, 0
1, 57719, Note_off_c, 1, 65, 0
1, 57720, Note_on_c, 1, 64, 127
1, 57720, Note_on_c, 1, 67, 127
1, 57720, Note_on_c, 1, 72, 127
1, 57720, Note_on_c, 1, 60, 127
1, 57749, Note_off_c, 1, 64, 0
1, 57750, Note_off_c, 1, 67, 0
1, 57750, Note_off_c, 1, 72, 0
1, 57750, Note_off_c, 1, 60, 0
1, 57750, Note_on_c, 1, 62, 127
1, 57779, Note_off_c, 1, 62, 0
1, 57780, Note_on_c, 1, 60, 127
1, 57780, Note_on_c, 1, 67, 127
1, 57780, Note_on_c, 1, 64, 127
1, 57780, Note_on_c, 1, 72, 127
1, 57810, Note_on_c, 1, 62, 127
1, 57839, Note_off_c, 1, 60, 0
1, 57839, Note_off_c, 1, 62, 0
1, 57840, Note_on_c, 1, 48, 127
1, 57870, Note_off_c, 1, 48, 0
1, 57870, Note_on_c, 1, 58, 127
1, 57899, Note_off_c, 1, 67, 0
1, 57899, Note_off_c, 1, 64, 0
1, 57899, Note_off_c, 1, 72, 0
1, 57899, Note_off_c, 1, 58, 0
1, 57900, Note_on_c, 1, 46, 127
1, 57900, Note_on_c, 1, 57, 127
1, 57929, Note_off_c, 1, 57, 0
1, 57930, Note_off_c, 1, 46, 0
1, 57930, Note_on_c, 1, 55, 127
1, 57959, Note_off_c, 1, 55, 0
1, 57960, Note_on_c, 1, 65, 127
1, 57960, Note_on_c, 1, 45, 127
1, 57960, Note_on_c, 1, 60, 127
1, 57960, Note_on_c, 1, 57, 127
1, 57990, Note_off_c, 1, 45, 0
1, 58019, Note_off_c, 1, 60, 0
1, 58019, Note_off_c, 1, 57, 0
1, 58050, Note_off_c, 1, 65, 0
1, 58050, Note_on_c, 1, 69, 127
1, 58080, Note_on_c, 1, 72, 127
1, 58110, Note_off_c, 1, 69, 0
1, 58140, Note_on_c, 1, 43, 127
1, 58140, Note_on_c, 1, 67, 127
1, 58140, Note_on_c, 1, 63, 127
1, 58140, Note_on_c, 1, 55, 127
1, 58170, Note_off_c, 1, 43, 0
1, 58199, Note_off_c, 1, 67, 0
1, 58199, Note_off_c, 1, 63, 0
1, 58199, Note_off_c, 1, 55, 0
1, 58200, Note_off_c, 1, 72, 0
1, 58200, Note_on_c, 1, 75, 127
1, 58200, Note_on_c, 1, 70, 127
1, 58230, Note_off_c, 1, 70, 0
1, 58260, Note_off_c, 1, 75, 0
1, 58260, Note_on_c, 1, 74, 127
1, 58260, Note_on_c, 1, 58, 127
1, 58290, Note_off_c, 1, 74, 0
1, 58290, Note_off_c, 1, 58, 0
1, 58320, Note_on_c, 1, 42, 127
1, 58320, Note_on_c, 1, 62, 127
1, 58320, Note_on_c, 1, 54, 127
1, 58350, Note_off_c, 1, 42, 0
1, 58379, Note_off_c, 1, 62, 0
1, 58379, Note_off_c, 1, 54, 0
1, 58410, Note_on_c, 1, 78, 127
1, 58440, Note_off_c, 1, 78, 0
1, 58440, Note_on_c, 1, 81, 127
1, 58500, Note_on_c, 1, 38, 127
1, 58500, Note_on_c, 1, 50, 127
1, 58530, Note_off_c, 1, 38, 0
1, 58559, Note_off_c, 1, 50, 0
1, 58560, Note_off_c, 1, 81, 0
1, 58560, Note_on_c, 1, 82, 127
1, 58560, Note_on_c, 1, 66, 127
1, 58590, Note_off_c, 1, 82, 0
1, 58590, Note_off_c, 1, 66, 0
1, 58620, Note_on_c, 1, 79, 127
1, 58650, Note_off_c, 1, 79, 0
1, 58800, Note_on_c, 1, 77, 127
1, 58830, Note_off_c, 1, 77, 0
1, 58860, Note_on_c, 1, 77, 127
1, 58860, Note_on_c, 1, 48, 127
1, 58860, Note_on_c, 1, 60, 127
1, 58860, Note_on_c, 1, 55, 127
1, 58890, Note_off_c, 1, 77, 0
1, 58890, Note_on_c, 1, 75, 127
1, 58919, Note_off_c, 1, 48, 0
1, 58919, Note_off_c, 1, 60, 0
1, 58919, Note_off_c, 1, 55, 0
1, 58920, Note_off_c, 1, 75, 0
1, 58920, Note_on_c, 1, 81, 127
1, 58920, Note_on_c, 1, 72, 127
1, 58920, Note_on_c, 1, 63, 127
1, 58950, Note_off_c, 1, 81, 0
1, 58950, Note_off_c, 1, 72, 0
1, 58950, Note_off_c, 1, 63, 0
1, 58950, Note_on_c, 1, 82, 127
1, 58965, Note_off_c, 1, 82, 0
1, 58965, Note_on_c, 1, 84, 127
1, 58980, Note_off_c, 1, 84, 0
1, 59040, Note_on_c, 1, 79, 127
1, 59040, Note_on_c, 1, 50, 127
1, 59040, Note_on_c, 1, 57, 127
1, 59040, Note_on_c, 1, 54, 127
1, 59070, Note_off_c, 1, 79, 0
1, 59070, Note_on_c, 1, 78, 127
1, 59099, Note_off_c, 1, 50, 0
1, 59099, Note_off_c, 1, 57, 0
1, 59099, Note_off_c, 1, 54, 0
1, 59100, Note_on_c, 1, 74, 127
1, 59100, Note_on_c, 1, 69, 127
1, 59130, Note_off_c, 1, 78, 0
1, 59130, Note_off_c, 1, 74, 0
1, 59130, Note_off_c, 1, 69, 0
1, 59160, Note_on_c, 1, 66, 127
1, 59190, Note_off_c, 1, 66, 0
1, 59340, Note_on_c, 1, 70, 127
1, 59340, Note_on_c, 1, 62, 127
1, 59370, Note_off_c, 1, 70, 0
1, 59370, Note_off_c, 1, 62, 0
1, 59400, Note_on_c, 1, 67, 127
1, 59459, Note_off_c, 1, 67, 0
1, 59520, Note_on_c, 1, 58, 127
1, 59550, Note_off_c, 1, 58, 0
1, 59610, Note_on_c, 1, 76, 127
1, 59640, Note_off_c, 1, 76, 0
1, 59760, Note_on_c, 1, 64, 127
1, 59790, Note_on_c, 1, 73, 127
1, 59819, Note_off_c, 1, 64, 0
1, 59850, Note_off_c, 1, 73, 0
1, 59880, Note_on_c, 1, 61, 127
1, 59910, Note_off_c, 1, 61, 0
1, 59940, Note_on_c, 1, 49, 127
1, 59940, Note_on_c, 1, 52, 127
1, 59999, Note_off_c, 1, 49, 0
1, 59999, Note_off_c, 1, 52, 0
1, 60060, Note_on_c, 1, 65, 127
1, 60090, Note_off_c, 1, 65, 0
1, 60120, Note_on_c, 1, 53, 127
1, 60179, Note_off_c, 1, 53, 0
1, 60300, Note_on_c, 1, 45, 127
1, 60359, Note_off_c, 1, 45, 0
1, 60480, Note_on_c, 1, 38, 127
1, 60510, Note_off_c, 1, 38, 0
1, 60575, Note_on_c, 1, 65, 127
1, 60600, Note_on_c, 1, 61, 127
1, 60600, Note_on_c, 1, 55, 127
1, 60600, Note_on_c, 1, 38, 127
1, 60605, Note_off_c, 1, 65, 0
1, 60605, Note_on_c, 1, 69, 127
1, 60630, Note_off_c, 1, 61, 0
1, 60630, Note_off_c, 1, 55, 0
1, 60630, Note_off_c, 1, 38, 0
1, 60660, Note_on_c, 1, 57, 127
1, 60660, Note_on_c, 1, 53, 127
1, 60665, Note_off_c, 1, 69, 0
1, 60665, Note_on_c, 1, 62, 127
1, 60720, Note_off_c, 1, 57, 0
1, 60720, Note_off_c, 1, 53, 0
1, 60750, Note_off_c, 1, 62, 0
1, 60780, Note_on_c, 1, 60, 127
1, 60780, Note_on_c, 1, 62, 127
1, 60809, Note_off_c, 1, 62, 0
1, 60810, Note_off_c, 1, 60, 0
1, 60810, Note_on_c, 1, 57, 127
1, 60839, Note_off_c, 1, 57, 0
1, 60840, Note_on_c, 1, 67, 127
1, 60840, Note_on_c, 1, 59, 127
1, 60840, Note_on_c, 1, 62, 127
1, 60847, Note_on_c, 1, 65, 127
1, 60855, Note_off_c, 1, 65, 0
1, 60899, Note_off_c, 1, 59, 0
1, 60899, Note_off_c, 1, 62, 0
1, 60930, Note_off_c, 1, 67, 0
1, 60930, Note_on_c, 1, 71, 127
1, 60959, Note_off_c, 1, 71, 0
1, 60960, Note_on_c, 1, 74, 127
1, 60960, Note_on_c, 1, 71, 127
1, 60960, Note_on_c, 1, 67, 127
1, 60960, Note_on_c, 1, 59, 127
1, 60990, Note_off_c, 1, 71, 0
1, 60990, Note_off_c, 1, 67, 0
1, 60990, Note_off_c, 1, 59, 0
1, 61020, Note_on_c, 1, 62, 127
1, 61079, Note_off_c, 1, 74, 0
1, 61079, Note_off_c, 1, 62, 0
1, 61080, Note_on_c, 1, 77, 127
1, 61080, Note_on_c, 1, 74, 127
1, 61080, Note_on_c, 1, 67, 127
1, 61080, Note_on_c, 1, 59, 127
1, 61110, Note_off_c, 1, 74, 0
1, 61110, Note_off_c, 1, 67, 0
1, 61110, Note_off_c, 1, 59, 0
1, 61139, Note_off_c, 1, 77, 0
1, 61140, Note_on_c, 1, 76, 127
1, 61140, Note_on_c, 1, 67, 127
1, 61140, Note_on_c, 1, 62, 127
1, 61140, Note_on_c, 1, 59, 127
1, 61147, Note_on_c, 1, 77, 127
1, 61155, Note_off_c, 1, 77, 0
1, 61170, Note_off_c, 1, 76, 0
1, 61170, Note_off_c, 1, 67, 0
1, 61170, Note_off_c, 1, 62, 0
1, 61170, Note_off_c, 1, 59, 0
1, 61200, Note_on_c, 1, 77, 127
1, 61200, Note_on_c, 1, 58, 127
1, 61200, Note_on_c, 1, 67, 127
1, 61200, Note_on_c, 1, 60, 127
1, 61229, Note_off_c, 1, 77, 0
1, 61230, Note_on_c, 1, 76, 127
1, 61259, Note_off_c, 1, 58, 0
1, 61259, Note_off_c, 1, 67, 0
1, 61259, Note_off_c, 1, 60, 0
1, 61260, Note_on_c, 1, 72, 127
1, 61289, Note_off_c, 1, 76, 0
1, 61290, Note_off_c, 1, 72, 0
1, 61290, Note_on_c, 1, 79, 127
1, 61319, Note_off_c, 1, 79, 0
1, 61320, Note_on_c, 1, 84, 127
1, 61320, Note_on_c, 1, 76, 127
1, 61320, Note_on_c, 1, 67, 127
1, 61320, Note_on_c, 1, 58, 127
1, 61350, Note_off_c, 1, 76, 0
1, 61350, Note_off_c, 1, 67, 0
1, 61350, Note_off_c, 1, 58, 0
1, 61379, Note_off_c, 1, 84, 0
1, 61380, Note_on_c, 1, 72, 127
1, 61380, Note_on_c, 1, 58, 127
1, 61380, Note_on_c, 1, 67, 127
1, 61380, Note_on_c, 1, 64, 127
1, 61409, Note_off_c, 1, 72, 0
1, 61410, Note_on_c, 1, 74, 127
1, 61439, Note_off_c, 1, 58, 0
1, 61439, Note_off_c, 1, 67, 0
1, 61439, Note_off_c, 1, 64, 0
1, 61439, Note_off_c, 1, 74, 0
1, 61440, Note_on_c, 1, 76, 127
1, 61440, Note_on_c, 1, 72, 127
1, 61440, Note_on_c, 1, 67, 127
1, 61440, Note_on_c, 1, 58, 127
1, 61450, Note_off_c, 1, 76, 0
1, 61450, Note_on_c, 1, 74, 127
1, 61460, Note_off_c, 1, 74, 0
1, 61470, Note_off_c, 1, 72, 0
1, 61470, Note_off_c, 1, 67, 0
1, 61470, Note_off_c, 1, 58, 0
1, 61500, Note_on_c, 1, 64, 127
1, 61530, Note_off_c, 1, 64, 0
1, 61545, Note_on_c, 1, 74, 127
1, 61559, Note_off_c, 1, 74, 0
1, 61560, Note_on_c, 1, 74, 127
1, 61560, Note_on_c, 1, 57, 127
1, 61560, Note_on_c, 1, 65, 127
1, 61560, Note_on_c, 1, 60, 127
1, 61589, Note_off_c, 1, 74, 0
1, 61590, Note_on_c, 1, 75, 127
1, 61619, Note_off_c, 1, 57, 0
1, 61619, Note_off_c, 1, 65, 0
1, 61619, Note_off_c, 1, 60, 0
1, 61649, Note_off_c, 1, 75, 0
1, 61650, Note_on_c, 1, 79, 127
1, 61679, Note_off_c, 1, 79, 0
1, 61680, Note_on_c, 1, 77, 127
1, 61680, Note_on_c, 1, 72, 127
1, 61680, Note_on_c, 1, 65, 127
1, 61680, Note_on_c, 1, 57, 127
1, 61710, Note_off_c, 1, 72, 0
1, 61710, Note_off_c, 1, 65, 0
1, 61710, Note_off_c, 1, 57, 0
1, 61740, Note_on_c, 1, 60, 127
1, 61799, Note_off_c, 1, 77, 0
1, 61799, Note_off_c, 1, 60, 0
1, 61800, Note_on_c, 1, 72, 127
1, 61800, Note_on_c, 1, 65, 127
1, 61800, Note_on_c, 1, 57, 127
1, 61830, Note_off_c, 1, 72, 0
1, 61830, Note_off_c, 1, 65, 0
1, 61830, Note_off_c, 1, 57, 0
1, 61830, Note_on_c, 1, 75, 127
1, 61859, Note_off_c, 1, 75, 0
1, 61860, Note_on_c, 1, 74, 127
1, 61860, Note_on_c, 1, 65, 127
1, 61860, Note_on_c, 1, 60, 127
1, 61860, Note_on_c, 1, 57, 127
1, 61889, Note_off_c, 1, 74, 0
1, 61890, Note_off_c, 1, 65, 0
1, 61890, Note_off_c, 1, 60, 0
1, 61890, Note_off_c, 1, 57, 0
1, 61890, Note_on_c, 1, 75, 127
1, 61919, Note_off_c, 1, 75, 0
1, 61920, Note_on_c, 1, 75, 127
1, 61920, Note_on_c, 1, 58, 127
1, 61920, Note_on_c, 1, 65, 127
1, 61920, Note_on_c, 1, 62, 127
1, 61949, Note_off_c, 1, 75, 0
1, 61950, Note_on_c, 1, 74, 127
1, 61957, Note_on_c, 1, 72, 127
1, 61965, Note_off_c, 1, 72, 0
1, 61979, Note_off_c, 1, 58, 0
1, 61979, Note_off_c, 1, 65, 0
1, 61979, Note_off_c, 1, 62, 0
1, 62010, Note_off_c, 1, 74, 0
1, 62040, Note_on_c, 1, 77, 127
1, 62040, Note_on_c, 1, 70, 127
1, 62040, Note_on_c, 1, 62, 127
1, 62040, Note_on_c, 1, 58, 127
1, 62070, Note_off_c, 1, 70, 0
1, 62070, Note_off_c, 1, 62, 0
1, 62070, Note_off_c, 1, 58, 0
1, 62099, Note_off_c, 1, 77, 0
1, 62100, Note_on_c, 1, 75, 127
1, 62100, Note_on_c, 1, 58, 127
1, 62100, Note_on_c, 1, 65, 127
1, 62129, Note_off_c, 1, 75, 0
1, 62130, Note_on_c, 1, 74, 127
1, 62159, Note_off_c, 1, 58, 0
1, 62159, Note_off_c, 1, 65, 0
1, 62159, Note_off_c, 1, 74, 0
1, 62160, Note_on_c, 1, 72, 127
1, 62160, Note_on_c, 1, 65, 127
1, 62160, Note_on_c, 1, 62, 127
1, 62160, Note_on_c, 1, 58, 127
1, 62189, Note_off_c, 1, 72, 0
1, 62190, Note_off_c, 1, 65, 0
1, 62190, Note_off_c, 1, 62, 0
1, 62190, Note_off_c, 1, 58, 0
1, 62190, Note_on_c, 1, 70, 127
1, 62219, Note_off_c, 1, 70, 0
1, 62220, Note_on_c, 1, 69, 127
1, 62220, Note_on_c, 1, 62, 127
1, 62220, Note_on_c, 1, 58, 127
1, 62249, Note_off_c, 1, 69, 0
1, 62250, Note_off_c, 1, 62, 0
1, 62250, Note_off_c, 1, 58, 0
1, 62250, Note_on_c, 1, 67, 127
1, 62279, Note_off_c, 1, 67, 0
1, 62280, Note_on_c, 1, 69, 127
1, 62280, Note_on_c, 1, 52, 127
1, 62280, Note_on_c, 1, 60, 127
1, 62280, Note_on_c, 1, 55, 127
1, 62309, Note_off_c, 1, 69, 0
1, 62310, Note_on_c, 1, 70, 127
1, 62339, Note_off_c, 1, 52, 0
1, 62339, Note_off_c, 1, 60, 0
1, 62339, Note_off_c, 1, 55, 0
1, 62369, Note_off_c, 1, 70, 0
1, 62370, Note_on_c, 1, 72, 127
1, 62399, Note_off_c, 1, 72, 0
1, 62400, Note_on_c, 1, 70, 127
1, 62400, Note_on_c, 1, 67, 127
1, 62400, Note_on_c, 1, 60, 127
1, 62400, Note_on_c, 1, 52, 127
1, 62430, Note_off_c, 1, 67, 0
1, 62430, Note_off_c, 1, 60, 0
1, 62430, Note_off_c, 1, 52, 0
1, 62460, Note_on_c, 1, 55, 127
1, 62489, Note_off_c, 1, 70, 0
1, 62490, Note_on_c, 1, 79, 127
1, 62519, Note_off_c, 1, 55, 0
1, 62519, Note_off_c, 1, 79, 0
1, 62520, Note_on_c, 1, 77, 127
1, 62520, Note_on_c, 1, 72, 127
1, 62520, Note_on_c, 1, 67, 127
1, 62520, Note_on_c, 1, 52, 127
1, 62549, Note_off_c, 1, 77, 0
1, 62550, Note_off_c, 1, 72, 0
1, 62550, Note_off_c, 1, 67, 0
1, 62550, Note_off_c, 1, 52, 0
1, 62550, Note_on_c, 1, 76, 127
1, 62579, Note_off_c, 1, 76, 0
1, 62580, Note_on_c, 1, 74, 127
1, 62580, Note_on_c, 1, 67, 127
1, 62580, Note_on_c, 1, 60, 127
1, 62580, Note_on_c, 1, 52, 127
1, 62609, Note_off_c, 1, 74, 0
1, 62610, Note_off_c, 1, 67, 0
1, 62610, Note_off_c, 1, 60, 0
1, 62610, Note_off_c, 1, 52, 0
1, 62610, Note_on_c, 1, 72, 127
1, 62639, Note_off_c, 1, 72, 0
1, 62640, Note_on_c, 1, 70, 127
1, 62640, Note_on_c, 1, 53, 127
1, 62640, Note_on_c, 1, 60, 127
1, 62640, Note_on_c, 1, 57, 127
1, 62669, Note_off_c, 1, 70, 0
1, 62670, Note_on_c, 1, 69, 127
1, 62699, Note_off_c, 1, 53, 0
1, 62699, Note_off_c, 1, 60, 0
1, 62699, Note_off_c, 1, 57, 0
1, 62730, Note_off_c, 1, 69, 0
1, 62730, Note_on_c, 1, 72, 127
1, 62759, Note_off_c, 1, 72, 0
1, 62760, Note_on_c, 1, 77, 127
1, 62760, Note_on_c, 1, 72, 127
1, 62760, Note_on_c, 1, 69, 127
1, 62760, Note_on_c, 1, 53, 127
1, 62790, Note_off_c, 1, 72, 0
1, 62790, Note_off_c, 1, 69, 0
1, 62790, Note_off_c, 1, 53, 0
1, 62820, Note_on_c, 1, 57, 127
1, 62820, Note_on_c, 1, 60, 127
1, 62849, Note_off_c, 1, 77, 0
1, 62850, Note_on_c, 1, 79, 127
1, 62879, Note_off_c, 1, 57, 0
1, 62879, Note_off_c, 1, 60, 0
1, 62879, Note_off_c, 1, 79, 0
1, 62880, Note_on_c, 1, 79, 127
1, 62880, Note_on_c, 1, 76, 127
1, 62880, Note_on_c, 1, 70, 127
1, 62880, Note_on_c, 1, 53, 127
1, 62880, Note_on_c, 1, 81, 127
1, 62888, Note_off_c, 1, 81, 0
1, 62910, Note_off_c, 1, 79, 0
1, 62910, Note_off_c, 1, 76, 0
1, 62910, Note_off_c, 1, 70, 0
1, 62910, Note_off_c, 1, 53, 0
1, 62910, Note_on_c, 1, 77, 127
1, 62924, Note_off_c, 1, 77, 0
1, 62925, Note_on_c, 1, 79, 127
1, 62939, Note_off_c, 1, 79, 0
1, 62940, Note_on_c, 1, 81, 127
1, 62940, Note_on_c, 1, 77, 127
1, 62940, Note_on_c, 1, 72, 127
1, 62940, Note_on_c, 1, 53, 127
1, 62970, Note_off_c, 1, 77, 0
1, 62970, Note_off_c, 1, 72, 0
1, 62970, Note_off_c, 1, 53, 0
1, 63000, Note_on_c, 1, 47, 127
1, 63000, Note_on_c, 1, 50, 127
1, 63000, Note_on_c, 1, 59, 127
1, 63029, Note_off_c, 1, 81, 0
1, 63030, Note_off_c, 1, 47, 0
1, 63030, Note_on_c, 1, 79, 127
1, 63059, Note_off_c, 1, 50, 0
1, 63059, Note_off_c, 1, 59, 0
1, 63059, Note_off_c, 1, 79, 0
1, 63060, Note_on_c, 1, 77, 127
1, 63060, Note_on_c, 1, 74, 127
1, 63060, Note_on_c, 1, 69, 127
1, 63060, Note_on_c, 1, 47, 127
1, 63089, Note_off_c, 1, 77, 0
1, 63090, Note_off_c, 1, 74, 0
1, 63090, Note_off_c, 1, 69, 0
1, 63090, Note_off_c, 1, 47, 0
1, 63090, Note_on_c, 1, 76, 127
1, 63119, Note_off_c, 1, 76, 0
1, 63120, Note_on_c, 1, 77, 127
1, 63120, Note_on_c, 1, 69, 127
1, 63120, Note_on_c, 1, 62, 127
1, 63120, Note_on_c, 1, 47, 127
1, 63149, Note_off_c, 1, 77, 0
1, 63150, Note_off_c, 1, 69, 0
1, 63150, Note_off_c, 1, 62, 0
1, 63150, Note_off_c, 1, 47, 0
1, 63150, Note_on_c, 1, 74, 127
1, 63179, Note_off_c, 1, 74, 0
1, 63180, Note_on_c, 1, 67, 127
1, 63180, Note_on_c, 1, 47, 127
1, 63180, Note_on_c, 1, 50, 127
1, 63180, Note_on_c, 1, 55, 127
1, 63239, Note_off_c, 1, 47, 0
1, 63239, Note_off_c, 1, 50, 0
1, 63239, Note_off_c, 1, 55, 0
1, 63240, Note_on_c, 1, 62, 127
1, 63270, Note_off_c, 1, 67, 0
1, 63270, Note_off_c, 1, 62, 0
1, 63270, Note_on_c, 1, 81, 127
1, 63299, Note_off_c, 1, 81, 0
1, 63300, Note_on_c, 1, 79, 127
1, 63300, Note_on_c, 1, 74, 127
1, 63300, Note_on_c, 1, 67, 127
1, 63300, Note_on_c, 1, 47, 127
1, 63330, Note_off_c, 1, 74, 0
1, 63330, Note_off_c, 1, 67, 0
1, 63330, Note_off_c, 1, 47, 0
1, 63359, Note_off_c, 1, 79, 0
1, 63360, Note_on_c, 1, 77, 127
1, 63360, Note_on_c, 1, 48, 127
1, 63360, Note_on_c, 1, 60, 127
1, 63360, Note_on_c, 1, 55, 127
1, 63389, Note_off_c, 1, 77, 0
1, 63390, Note_on_c, 1, 76, 127
1, 63419, Note_off_c, 1, 48, 0
1, 63419, Note_off_c, 1, 60, 0
1, 63419, Note_off_c, 1, 55, 0
1, 63420, Note_on_c, 1, 72, 127
1, 63420, Note_on_c, 1, 67, 127
1, 63449, Note_off_c, 1, 76, 0
1, 63450, Note_off_c, 1, 72, 0
1, 63450, Note_off_c, 1, 67, 0
1, 63450, Note_on_c, 1, 74, 127
1, 63479, Note_off_c, 1, 74, 0
1, 63480, Note_on_c, 1, 72, 127
1, 63480, Note_on_c, 1, 67, 127
1, 63480, Note_on_c, 1, 64, 127
1, 63480, Note_on_c, 1, 48, 127
1, 63510, Note_off_c, 1, 67, 0
1, 63510, Note_off_c, 1, 64, 0
1, 63510, Note_off_c, 1, 48, 0
1, 63540, Note_on_c, 1, 55, 127
1, 63540, Note_on_c, 1, 52, 127
1, 63569, Note_off_c, 1, 72, 0
1, 63570, Note_on_c, 1, 74, 127
1, 63599, Note_off_c, 1, 55, 0
1, 63599, Note_off_c, 1, 52, 0
1, 63599, Note_off_c, 1, 74, 0
1, 63600, Note_on_c, 1, 76, 127
1, 63600, Note_on_c, 1, 72, 127
1, 63600, Note_on_c, 1, 67, 127
1, 63600, Note_on_c, 1, 48, 127
1, 63629, Note_off_c, 1, 76, 0
1, 63630, Note_off_c, 1, 72, 0
1, 63630, Note_off_c, 1, 67, 0
1, 63630, Note_off_c, 1, 48, 0
1, 63630, Note_on_c, 1, 77, 127
1, 63659, Note_off_c, 1, 77, 0
1, 63660, Note_on_c, 1, 79, 127
1, 63660, Note_on_c, 1, 76, 127
1, 63660, Note_on_c, 1, 60, 127
1, 63660, Note_on_c, 1, 48, 127
1, 63689, Note_off_c, 1, 79, 0
1, 63690, Note_off_c, 1, 76, 0
1, 63690, Note_off_c, 1, 60, 0
1, 63690, Note_off_c, 1, 48, 0
1, 63690, Note_on_c, 1, 81, 127
1, 63719, Note_off_c, 1, 81, 0
1, 63720, Note_on_c, 1, 81, 127
1, 63720, Note_on_c, 1, 48, 127
1, 63720, Note_on_c, 1, 55, 127
1, 63720, Note_on_c, 1, 52, 127
1, 63749, Note_off_c, 1, 81, 0
1, 63750, Note_on_c, 1, 82, 127
1, 63779, Note_off_c, 1, 48, 0
1, 63779, Note_off_c, 1, 55, 0
1, 63779, Note_off_c, 1, 52, 0
1, 63780, Note_on_c, 1, 76, 127
1, 63780, Note_on_c, 1, 60, 127
1, 63809, Note_off_c, 1, 82, 0
1, 63810, Note_off_c, 1, 76, 0
1, 63810, Note_off_c, 1, 60, 0
1, 63810, Note_on_c, 1, 79, 127
1, 63839, Note_off_c, 1, 79, 0
1, 63840, Note_on_c, 1, 79, 127
1, 63840, Note_on_c, 1, 77, 127
1, 63840, Note_on_c, 1, 60, 127
1, 63840, Note_on_c, 1, 48, 127
1, 63869, Note_off_c, 1, 79, 0
1, 63870, Note_off_c, 1, 77, 0
1, 63870, Note_off_c, 1, 60, 0
1, 63870, Note_off_c, 1, 48, 0
1, 63870, Note_on_c, 1, 81, 127
1, 63900, Note_on_c, 1, 59, 127
1, 63900, Note_on_c, 1, 53, 127
1, 63900, Note_on_c, 1, 50, 127
1, 63959, Note_off_c, 1, 81, 0
1, 63959, Note_off_c, 1, 59, 0
1, 63959, Note_off_c, 1, 53, 0
1, 63959, Note_off_c, 1, 50, 0
1, 63960, Note_on_c, 1, 79, 127
1, 63960, Note_on_c, 1, 74, 127
1, 63960, Note_on_c, 1, 59, 127
1, 63960, Note_on_c, 1, 48, 127
1, 63967, Note_on_c, 1, 81, 127
1, 63975, Note_off_c, 1, 81, 0
1, 63990, Note_off_c, 1, 79, 0
1, 63990, Note_off_c, 1, 74, 0
1, 63990, Note_off_c, 1, 59, 0
1, 63990, Note_off_c, 1, 48, 0
1, 63990, Note_on_c, 1, 77, 127
1, 64019, Note_off_c, 1, 77, 0
1, 64020, Note_on_c, 1, 76, 127
1, 64020, Note_on_c, 1, 67, 127
1, 64020, Note_on_c, 1, 62, 127
1, 64020, Note_on_c, 1, 48, 127
1, 64049, Note_off_c, 1, 76, 0
1, 64050, Note_off_c, 1, 67, 0
1, 64050, Note_off_c, 1, 62, 0
1, 64050, Note_off_c, 1, 48, 0
1, 64050, Note_on_c, 1, 77, 127
1, 64079, Note_off_c, 1, 77, 0
1, 64080, Note_on_c, 1, 77, 127
1, 64080, Note_on_c, 1, 48, 127
1, 64080, Note_on_c, 1, 55, 127
1, 64080, Note_on_c, 1, 60, 127
1, 64109, Note_off_c, 1, 77, 0
1, 64110, Note_on_c, 1, 76, 127
1, 64139, Note_off_c, 1, 48, 0
1, 64139, Note_off_c, 1, 55, 0
1, 64139, Note_off_c, 1, 60, 0
1, 64140, Note_on_c, 1, 67, 127
1, 64169, Note_off_c, 1, 76, 0
1, 64170, Note_off_c, 1, 67, 0
1, 64200, Note_on_c, 1, 79, 127
1, 64200, Note_on_c, 1, 72, 127
1, 64200, Note_on_c, 1, 64, 127
1, 64200, Note_on_c, 1, 48, 127
1, 64230, Note_off_c, 1, 72, 0
1, 64230, Note_off_c, 1, 64, 0
1, 64230, Note_off_c, 1, 48, 0
1, 64259, Note_off_c, 1, 79, 0
1, 64260, Note_on_c, 1, 72, 127
1, 64260, Note_on_c, 1, 48, 127
1, 64260, Note_on_c, 1, 52, 127
1, 64260, Note_on_c, 1, 55, 127
1, 64289, Note_off_c, 1, 72, 0
1, 64319, Note_off_c, 1, 48, 0
1, 64319, Note_off_c, 1, 52, 0
1, 64319, Note_off_c, 1, 55, 0
1, 64320, Note_on_c, 1, 76, 127
1, 64320, Note_on_c, 1, 72, 127
1, 64320, Note_on_c, 1, 67, 127
1, 64320, Note_on_c, 1, 48, 127
1, 64349, Note_off_c, 1, 76, 0
1, 64350, Note_off_c, 1, 72, 0
1, 64350, Note_off_c, 1, 67, 0
1, 64350, Note_off_c, 1, 48, 0
1, 64380, Note_on_c, 1, 79, 127
1, 64380, Note_on_c, 1, 76, 127
1, 64380, Note_on_c, 1, 72, 127
1, 64380, Note_on_c, 1, 48, 127
1, 64409, Note_off_c, 1, 79, 0
1, 64410, Note_off_c, 1, 76, 0
1, 64410, Note_off_c, 1, 72, 0
1, 64410, Note_off_c, 1, 48, 0
1, 64440, Note_on_c, 1, 84, 127
1, 64440, Note_on_c, 1, 48, 127
1, 64440, Note_on_c, 1, 53, 127
1, 64440, Note_on_c, 1, 57, 127
1, 64499, Note_off_c, 1, 48, 0
1, 64499, Note_off_c, 1, 53, 0
1, 64499, Note_off_c, 1, 57, 0
1, 64500, Note_on_c, 1, 77, 127
1, 64500, Note_on_c, 1, 71, 127
1, 64529, Note_off_c, 1, 84, 0
1, 64530, Note_off_c, 1, 77, 0
1, 64530, Note_off_c, 1, 71, 0
1, 64530, Note_on_c, 1, 81, 127
1, 64559, Note_off_c, 1, 81, 0
1, 64560, Note_on_c, 1, 81, 127
1, 64560, Note_on_c, 1, 76, 127
1, 64560, Note_on_c, 1, 69, 127
1, 64560, Note_on_c, 1, 48, 127
1, 64589, Note_off_c, 1, 81, 0
1, 64590, Note_off_c, 1, 76, 0
1, 64590, Note_off_c, 1, 69, 0
1, 64590, Note_off_c, 1, 48, 0
1, 64590, Note_on_c, 1, 82, 127
1, 64620, Note_on_c, 1, 52, 127
1, 64620, Note_on_c, 1, 55, 127
1, 64650, Note_off_c, 1, 82, 0
1, 64650, Note_on_c, 1, 79, 127
1, 64679, Note_off_c, 1, 52, 0
1, 64679, Note_off_c, 1, 55, 0
1, 64679, Note_off_c, 1, 79, 0
1, 64680, Note_on_c, 1, 80, 127
1, 64680, Note_on_c, 1, 77, 127
1, 64680, Note_on_c, 1, 72, 127
1, 64680, Note_on_c, 1, 48, 127
1, 64709, Note_off_c, 1, 80, 0
1, 64710, Note_off_c, 1, 72, 0
1, 64710, Note_off_c, 1, 48, 0
1, 64739, Note_off_c, 1, 77, 0
1, 64740, Note_on_c, 1, 77, 127
1, 64740, Note_on_c, 1, 76, 127
1, 64740, Note_on_c, 1, 72, 127
1, 64740, Note_on_c, 1, 48, 127
1, 64769, Note_off_c, 1, 77, 0
1, 64770, Note_off_c, 1, 76, 0
1, 64770, Note_off_c, 1, 72, 0
1, 64770, Note_off_c, 1, 48, 0
1, 64770, Note_on_c, 1, 79, 127
1, 64800, Note_on_c, 1, 52, 127
1, 64800, Note_on_c, 1, 58, 127
1, 64829, Note_off_c, 1, 79, 0
1, 64859, Note_off_c, 1, 52, 0
1, 64859, Note_off_c, 1, 58, 0
1, 64860, Note_on_c, 1, 77, 127
1, 64860, Note_on_c, 1, 72, 127
1, 64860, Note_on_c, 1, 68, 127
1, 64860, Note_on_c, 1, 48, 127
1, 64889, Note_off_c, 1, 77, 0
1, 64890, Note_off_c, 1, 68, 0
1, 64890, Note_off_c, 1, 48, 0
1, 64919, Note_off_c, 1, 72, 0
1, 64920, Note_on_c, 1, 73, 127
1, 64920, Note_on_c, 1, 68, 127
1, 64920, Note_on_c, 1, 65, 127
1, 64920, Note_on_c, 1, 48, 127
1, 64949, Note_off_c, 1, 73, 0
1, 64950, Note_off_c, 1, 68, 0
1, 64950, Note_off_c, 1, 65, 0
1, 64950, Note_off_c, 1, 48, 0
1, 64950, Note_on_c, 1, 71, 127
1, 64979, Note_off_c, 1, 71, 0
1, 64980, Note_on_c, 1, 72, 127
1, 64980, Note_on_c, 1, 48, 127
1, 64980, Note_on_c, 1, 53, 127
1, 64980, Note_on_c, 1, 56, 127
1, 65009, Note_off_c, 1, 72, 0
1, 65010, Note_on_c, 1, 68, 127
1, 65039, Note_off_c, 1, 48, 0
1, 65039, Note_off_c, 1, 53, 0
1, 65039, Note_off_c, 1, 56, 0
1, 65039, Note_off_c, 1, 68, 0
1, 65040, Note_on_c, 1, 70, 127
1, 65040, Note_on_c, 1, 67, 127
1, 65040, Note_on_c, 1, 64, 127
1, 65040, Note_on_c, 1, 48, 127
1, 65069, Note_off_c, 1, 70, 0
1, 65070, Note_off_c, 1, 64, 0
1, 65070, Note_off_c, 1, 48, 0
1, 65099, Note_off_c, 1, 67, 0
1, 65100, Note_on_c, 1, 68, 127
1, 65100, Note_on_c, 1, 65, 127
1, 65100, Note_on_c, 1, 48, 127
1, 65129, Note_off_c, 1, 68, 0
1, 65130, Note_off_c, 1, 48, 0
1, 65159, Note_off_c, 1, 65, 0
1, 65160, Note_on_c, 1, 66, 127
1, 65160, Note_on_c, 1, 48, 127
1, 65160, Note_on_c, 1, 58, 127
1, 65189, Note_off_c, 1, 66, 0
1, 65190, Note_on_c, 1, 64, 127
1, 65219, Note_off_c, 1, 48, 0
1, 65219, Note_off_c, 1, 58, 0
1, 65219, Note_off_c, 1, 64, 0
1, 65220, Note_on_c, 1, 65, 127
1, 65220, Note_on_c, 1, 68, 127
1, 65220, Note_on_c, 1, 48, 127
1, 65250, Note_off_c, 1, 65, 0
1, 65250, Note_off_c, 1, 68, 0
1, 65250, Note_off_c, 1, 48, 0
1, 65250, Note_on_c, 1, 61, 127
1, 65279, Note_off_c, 1, 61, 0
1, 65280, Note_on_c, 1, 60, 127
1, 65280, Note_on_c, 1, 68, 127
1, 65280, Note_on_c, 1, 65, 127
1, 65280, Note_on_c, 1, 48, 127
1, 65309, Note_off_c, 1, 60, 0
1, 65310, Note_off_c, 1, 68, 0
1, 65310, Note_off_c, 1, 65, 0
1, 65310, Note_off_c, 1, 48, 0
1, 65310, Note_on_c, 1, 59, 127
1, 65339, Note_off_c, 1, 59, 0
1, 65340, Note_on_c, 1, 60, 127
1, 65340, Note_on_c, 1, 48, 127
1, 65340, Note_on_c, 1, 55, 127
1, 65340, Note_on_c, 1, 52, 127
1, 65369, Note_off_c, 1, 60, 0
1, 65370, Note_on_c, 1, 80, 127
1, 65399, Note_off_c, 1, 48, 0
1, 65399, Note_off_c, 1, 55, 0
1, 65399, Note_off_c, 1, 52, 0
1, 65399, Note_off_c, 1, 80, 0
1, 65400, Note_on_c, 1, 77, 127
1, 65400, Note_on_c, 1, 72, 127
1, 65400, Note_on_c, 1, 67, 127
1, 65400, Note_on_c, 1, 48, 127
1, 65429, Note_off_c, 1, 77, 0
1, 65430, Note_off_c, 1, 72, 0
1, 65430, Note_off_c, 1, 67, 0
1, 65430, Note_off_c, 1, 48, 0
1, 65430, Note_on_c, 1, 76, 127
1, 65460, Note_on_c, 1, 70, 127
1, 65489, Note_off_c, 1, 76, 0
1, 65490, Note_off_c, 1, 70, 0
1, 65520, Note_on_c, 1, 77, 127
1, 65520, Note_on_c, 1, 49, 127
1, 65520, Note_on_c, 1, 56, 127
1, 65520, Note_on_c, 1, 60, 127
1, 65549, Note_off_c, 1, 77, 0
1, 65550, Note_on_c, 1, 76, 127
1, 65579, Note_off_c, 1, 49, 0
1, 65579, Note_off_c, 1, 56, 0
1, 65579, Note_off_c, 1, 60, 0
1, 65579, Note_off_c, 1, 76, 0
1, 65580, Note_on_c, 1, 77, 127
1, 65580, Note_on_c, 1, 68, 127
1, 65580, Note_on_c, 1, 65, 127
1, 65580, Note_on_c, 1, 49, 127
1, 65609, Note_off_c, 1, 77, 0
1, 65610, Note_off_c, 1, 68, 0
1, 65610, Note_off_c, 1, 65, 0
1, 65610, Note_off_c, 1, 49, 0
1, 65610, Note_on_c, 1, 80, 127
1, 65639, Note_off_c, 1, 80, 0
1, 65640, Note_on_c, 1, 79, 127
1, 65640, Note_on_c, 1, 70, 127
1, 65640, Note_on_c, 1, 61, 127
1, 65640, Note_on_c, 1, 49, 127
1, 65669, Note_off_c, 1, 79, 0
1, 65670, Note_off_c, 1, 70, 0
1, 65670, Note_off_c, 1, 61, 0
1, 65670, Note_off_c, 1, 49, 0
1, 65670, Note_on_c, 1, 76, 127
1, 65699, Note_off_c, 1, 76, 0
1, 65700, Note_on_c, 1, 77, 127
1, 65700, Note_on_c, 1, 50, 127
1, 65700, Note_on_c, 1, 53, 127
1, 65700, Note_on_c, 1, 59, 127
1, 65729, Note_off_c, 1, 77, 0
1, 65730, Note_on_c, 1, 74, 127
1, 65759, Note_off_c, 1, 50, 0
1, 65759, Note_off_c, 1, 53, 0
1, 65759, Note_off_c, 1, 59, 0
1, 65759, Note_off_c, 1, 74, 0
1, 65760, Note_on_c, 1, 72, 127
1, 65760, Note_on_c, 1, 68, 127
1, 65760, Note_on_c, 1, 65, 127
1, 65760, Note_on_c, 1, 50, 127
1, 65789, Note_off_c, 1, 72, 0
1, 65790, Note_off_c, 1, 68, 0
1, 65790, Note_off_c, 1, 65, 0
1, 65790, Note_off_c, 1, 50, 0
1, 65790, Note_on_c, 1, 71, 127
1, 65820, Note_on_c, 1, 62, 127
1, 65849, Note_off_c, 1, 71, 0
1, 65850, Note_off_c, 1, 62, 0
1, 65880, Note_on_c, 1, 82, 127
1, 65880, Note_on_c, 1, 52, 127
1, 65880, Note_on_c, 1, 55, 127
1, 65880, Note_on_c, 1, 60, 127
1, 65939, Note_off_c, 1, 52, 0
1, 65939, Note_off_c, 1, 55, 0
1, 65939, Note_off_c, 1, 60, 0
1, 65940, Note_on_c, 1, 72, 127
1, 65940, Note_on_c, 1, 67, 127
1, 65969, Note_off_c, 1, 82, 0
1, 65970, Note_off_c, 1, 72, 0
1, 65970, Note_off_c, 1, 67, 0
1, 65970, Note_on_c, 1, 79, 127
1, 65999, Note_off_c, 1, 79, 0
1, 66000, Note_on_c, 1, 81, 127
1, 66000, Note_on_c, 1, 72, 127
1, 66000, Note_on_c, 1, 65, 127
1, 66000, Note_on_c, 1, 53, 127
1, 66000, Note_on_c, 1, 60, 127
1, 66030, Note_off_c, 1, 72, 0
1, 66030, Note_off_c, 1, 65, 0
1, 66059, Note_off_c, 1, 53, 0
1, 66059, Note_off_c, 1, 60, 0
1, 66060, Note_on_c, 1, 58, 127
1, 66060, Note_on_c, 1, 62, 127
1, 66089, Note_off_c, 1, 81, 0
1, 66090, Note_on_c, 1, 79, 127
1, 66119, Note_off_c, 1, 58, 0
1, 66119, Note_off_c, 1, 62, 0
1, 66119, Note_off_c, 1, 79, 0
1, 66120, Note_on_c, 1, 76, 127
1, 66120, Note_on_c, 1, 72, 127
1, 66120, Note_on_c, 1, 67, 127
1, 66120, Note_on_c, 1, 60, 127
1, 66120, Note_on_c, 1, 77, 127
1, 66130, Note_off_c, 1, 77, 0
1, 66150, Note_off_c, 1, 72, 0
1, 66150, Note_off_c, 1, 67, 0
1, 66179, Note_off_c, 1, 60, 0
1, 66180, Note_on_c, 1, 70, 127
1, 66180, Note_on_c, 1, 48, 127
1, 66180, Note_on_c, 1, 58, 127
1, 66210, Note_off_c, 1, 76, 0
1, 66210, Note_off_c, 1, 70, 0
1, 66239, Note_off_c, 1, 48, 0
1, 66239, Note_off_c, 1, 58, 0
1, 66240, Note_on_c, 1, 77, 127
1, 66240, Note_on_c, 1, 69, 127
1, 66240, Note_on_c, 1, 65, 127
1, 66240, Note_on_c, 1, 53, 127
1, 66240, Note_on_c, 1, 57, 127
1, 66247, Note_on_c, 1, 76, 127
1, 66255, Note_off_c, 1, 76, 0
1, 66270, Note_off_c, 1, 69, 0
1, 66270, Note_off_c, 1, 65, 0
1, 66299, Note_off_c, 1, 57, 0
1, 66300, Note_on_c, 1, 60, 127
1, 66330, Note_off_c, 1, 77, 0
1, 66330, Note_off_c, 1, 60, 0
1, 66360, Note_off_c, 1, 53, 0
1, 66360, Note_on_c, 1, 72, 127
1, 66360, Note_on_c, 1, 64, 127
1, 66360, Note_on_c, 1, 58, 127
1, 66390, Note_off_c, 1, 64, 0
1, 66390, Note_off_c, 1, 58, 0
1, 66419, Note_off_c, 1, 72, 0
1, 66420, Note_on_c, 1, 65, 127
1, 66420, Note_on_c, 1, 60, 127
1, 66420, Note_on_c, 1, 57, 127
1, 66480, Note_off_c, 1, 60, 0
1, 66480, Note_off_c, 1, 57, 0
1, 66480, Note_on_c, 1, 52, 127
1, 66480, Note_on_c, 1, 64, 127
1, 66509, Note_off_c, 1, 64, 0
1, 66510, Note_off_c, 1, 52, 0
1, 66510, Note_on_c, 1, 50, 127
1, 66510, Note_on_c, 1, 62, 127
1, 66539, Note_off_c, 1, 65, 0
1, 66539, Note_off_c, 1, 62, 0
1, 66540, Note_off_c, 1, 50, 0
1, 66540, Note_on_c, 1, 48, 127
1, 66570, Note_off_c, 1, 48, 0
1, 66570, Note_on_c, 1, 46, 127
1, 66570, Note_on_c, 1, 58, 127
1, 66599, Note_off_c, 1, 58, 0
1, 66600, Note_off_c, 1, 46, 0
1, 66600, Note_on_c, 1, 45, 127
1, 66630, Note_on_c, 1, 67, 127
1, 66659, Note_off_c, 1, 67, 0
1, 66660, Note_on_c, 1, 69, 127
1, 66689, Note_off_c, 1, 69, 0
1, 66690, Note_on_c, 1, 70, 127
1, 66719, Note_off_c, 1, 45, 0
1, 66719, Note_off_c, 1, 70, 0
1, 66720, Note_on_c, 1, 72, 127
1, 66720, Note_on_c, 1, 57, 127
1, 66720, Note_on_c, 1, 69, 127
1, 66720, Note_on_c, 1, 65, 127
1, 66720, Note_on_c, 1, 60, 127
1, 66749, Note_off_c, 1, 72, 0
1, 66750, Note_on_c, 1, 74, 127
1, 66779, Note_off_c, 1, 57, 0
1, 66779, Note_off_c, 1, 69, 0
1, 66779, Note_off_c, 1, 65, 0
1, 66779, Note_off_c, 1, 60, 0
1, 66779, Note_off_c, 1, 74, 0
1, 66780, Note_on_c, 1, 43, 127
1, 66780, Note_on_c, 1, 75, 127
1, 66780, Note_on_c, 1, 55, 127
1, 66780, Note_on_c, 1, 70, 127
1, 66780, Note_on_c, 1, 67, 127
1, 66809, Note_off_c, 1, 75, 0
1, 66810, Note_on_c, 1, 74, 127
1, 66839, Note_off_c, 1, 55, 0
1, 66839, Note_off_c, 1, 70, 0
1, 66839, Note_off_c, 1, 67, 0
1, 66839, Note_off_c, 1, 74, 0
1, 66870, Note_on_c, 1, 79, 127
1, 66899, Note_off_c, 1, 43, 0
1, 66899, Note_off_c, 1, 79, 0
1, 66900, Note_on_c, 1, 77, 127
1, 66900, Note_on_c, 1, 55, 127
1, 66900, Note_on_c, 1, 72, 127
1, 66900, Note_on_c, 1, 69, 127
1, 66900, Note_on_c, 1, 60, 127
1, 66929, Note_off_c, 1, 77, 0
1, 66930, Note_on_c, 1, 75, 127
1, 66959, Note_off_c, 1, 55, 0
1, 66959, Note_off_c, 1, 72, 0
1, 66959, Note_off_c, 1, 69, 0
1, 66959, Note_off_c, 1, 60, 0
1, 66959, Note_off_c, 1, 75, 0
1, 66960, Note_on_c, 1, 42, 127
1, 66960, Note_on_c, 1, 74, 127
1, 66960, Note_on_c, 1, 54, 127
1, 66960, Note_on_c, 1, 62, 127
1, 66960, Note_on_c, 1, 69, 127
1, 66989, Note_off_c, 1, 74, 0
1, 66990, Note_on_c, 1, 76, 127
1, 67019, Note_off_c, 1, 54, 0
1, 67019, Note_off_c, 1, 62, 0
1, 67019, Note_off_c, 1, 69, 0
1, 67019, Note_off_c, 1, 76, 0
1, 67020, Note_on_c, 1, 78, 127
1, 67049, Note_off_c, 1, 78, 0
1, 67050, Note_on_c, 1, 79, 127
1, 67079, Note_off_c, 1, 42, 0
1, 67079, Note_off_c, 1, 79, 0
1, 67080, Note_on_c, 1, 81, 127
1, 67080, Note_on_c, 1, 54, 127
1, 67080, Note_on_c, 1, 72, 127
1, 67080, Note_on_c, 1, 62, 127
1, 67080, Note_on_c, 1, 69, 127
1, 67109, Note_off_c, 1, 81, 0
1, 67110, Note_on_c, 1, 82, 127
1, 67139, Note_off_c, 1, 54, 0
1, 67139, Note_off_c, 1, 72, 0
1, 67139, Note_off_c, 1, 62, 0
1, 67139, Note_off_c, 1, 69, 0
1, 67139, Note_off_c, 1, 82, 0
1, 67140, Note_on_c, 1, 38, 127
1, 67140, Note_on_c, 1, 72, 127
1, 67140, Note_on_c, 1, 50, 127
1, 67140, Note_on_c, 1, 57, 127
1, 67140, Note_on_c, 1, 66, 127
1, 67169, Note_off_c, 1, 72, 0
1, 67170, Note_on_c, 1, 70, 127
1, 67199, Note_off_c, 1, 50, 0
1, 67199, Note_off_c, 1, 57, 0
1, 67199, Note_off_c, 1, 66, 0
1, 67199, Note_off_c, 1, 70, 0
1, 67200, Note_on_c, 1, 69, 127
1, 67230, Note_on_c, 1, 81, 127
1, 67259, Note_off_c, 1, 38, 0
1, 67259, Note_off_c, 1, 69, 0
1, 67259, Note_off_c, 1, 81, 0
1, 67260, Note_on_c, 1, 82, 127
1, 67260, Note_on_c, 1, 50, 127
1, 67260, Note_on_c, 1, 62, 127
1, 67260, Note_on_c, 1, 66, 127
1, 67260, Note_on_c, 1, 65, 127
1, 67289, Note_off_c, 1, 82, 0
1, 67290, Note_on_c, 1, 84, 127
1, 67319, Note_off_c, 1, 50, 0
1, 67319, Note_off_c, 1, 62, 0
1, 67319, Note_off_c, 1, 66, 0
1, 67319, Note_off_c, 1, 65, 0
1, 67319, Note_off_c, 1, 84, 0
1, 67320, Note_on_c, 1, 43, 127
1, 67320, Note_on_c, 1, 82, 127
1, 67320, Note_on_c, 1, 55, 127
1, 67320, Note_on_c, 1, 62, 127
1, 67320, Note_on_c, 1, 67, 127
1, 67349, Note_off_c, 1, 82, 0
1, 67350, Note_on_c, 1, 81, 127
1, 67379, Note_off_c, 1, 55, 0
1, 67379, Note_off_c, 1, 62, 0
1, 67379, Note_off_c, 1, 67, 0
1, 67379, Note_off_c, 1, 81, 0
1, 67380, Note_on_c, 1, 79, 127
1, 67380, Note_on_c, 1, 70, 127
1, 67409, Note_off_c, 1, 79, 0
1, 67439, Note_off_c, 1, 43, 0
1, 67439, Note_off_c, 1, 70, 0
1, 67440, Note_on_c, 1, 82, 127
1, 67440, Note_on_c, 1, 55, 127
1, 67440, Note_on_c, 1, 67, 127
1, 67440, Note_on_c, 1, 74, 127
1, 67440, Note_on_c, 1, 70, 127
1, 67440, Note_on_c, 1, 62, 127
1, 67469, Note_off_c, 1, 82, 0
1, 67470, Note_on_c, 1, 77, 127
1, 67499, Note_off_c, 1, 55, 0
1, 67499, Note_off_c, 1, 67, 0
1, 67499, Note_off_c, 1, 74, 0
1, 67499, Note_off_c, 1, 70, 0
1, 67499, Note_off_c, 1, 62, 0
1, 67499, Note_off_c, 1, 77, 0
1, 67500, Note_on_c, 1, 48, 127
1, 67500, Note_on_c, 1, 75, 127
1, 67500, Note_on_c, 1, 67, 127
1, 67500, Note_on_c, 1, 60, 127
1, 67500, Note_on_c, 1, 36, 127
1, 67529, Note_off_c, 1, 75, 0
1, 67530, Note_on_c, 1, 74, 127
1, 67559, Note_off_c, 1, 67, 0
1, 67559, Note_off_c, 1, 60, 0
1, 67559, Note_off_c, 1, 36, 0
1, 67559, Note_off_c, 1, 74, 0
1, 67560, Note_on_c, 1, 72, 127
1, 67590, Note_on_c, 1, 84, 127
1, 67619, Note_off_c, 1, 48, 0
1, 67619, Note_off_c, 1, 72, 0
1, 67619, Note_off_c, 1, 84, 0
1, 67620, Note_on_c, 1, 81, 127
1, 67620, Note_on_c, 1, 48, 127
1, 67620, Note_on_c, 1, 72, 127
1, 67620, Note_on_c, 1, 75, 127
1, 67620, Note_on_c, 1, 63, 127
1, 67649, Note_off_c, 1, 81, 0
1, 67650, Note_on_c, 1, 82, 127
1, 67679, Note_off_c, 1, 48, 0
1, 67679, Note_off_c, 1, 72, 0
1, 67679, Note_off_c, 1, 75, 0
1, 67679, Note_off_c, 1, 63, 0
1, 67679, Note_off_c, 1, 82, 0
1, 67680, Note_on_c, 1, 50, 127
1, 67680, Note_on_c, 1, 78, 127
1, 67680, Note_on_c, 1, 69, 127
1, 67680, Note_on_c, 1, 62, 127
1, 67680, Note_on_c, 1, 38, 127
1, 67709, Note_off_c, 1, 78, 0
1, 67710, Note_on_c, 1, 79, 127
1, 67739, Note_off_c, 1, 69, 0
1, 67739, Note_off_c, 1, 62, 0
1, 67739, Note_off_c, 1, 38, 0
1, 67739, Note_off_c, 1, 79, 0
1, 67740, Note_on_c, 1, 81, 127
1, 67740, Note_on_c, 1, 74, 127
1, 67740, Note_on_c, 1, 66, 127
1, 67769, Note_off_c, 1, 81, 0
1, 67770, Note_on_c, 1, 72, 127
1, 67799, Note_off_c, 1, 50, 0
1, 67799, Note_off_c, 1, 74, 0
1, 67799, Note_off_c, 1, 66, 0
1, 67799, Note_off_c, 1, 72, 0
1, 67800, Note_on_c, 1, 74, 127
1, 67800, Note_on_c, 1, 50, 127
1, 67800, Note_on_c, 1, 69, 127
1, 67800, Note_on_c, 1, 78, 127
1, 67800, Note_on_c, 1, 66, 127
1, 67829, Note_off_c, 1, 74, 0
1, 67830, Note_on_c, 1, 75, 127
1, 67859, Note_off_c, 1, 50, 0
1, 67859, Note_off_c, 1, 69, 0
1, 67859, Note_off_c, 1, 78, 0
1, 67859, Note_off_c, 1, 66, 0
1, 67859, Note_off_c, 1, 75, 0
1, 67860, Note_on_c, 1, 54, 127
1, 67860, Note_on_c, 1, 69, 127
1, 67860, Note_on_c, 1, 74, 127
1, 67860, Note_on_c, 1, 42, 127
1, 67890, Note_on_c, 1, 70, 127
1, 67919, Note_off_c, 1, 69, 0
1, 67919, Note_off_c, 1, 74, 0
1, 67919, Note_off_c, 1, 42, 0
1, 67919, Note_off_c, 1, 70, 0
1, 67920, Note_on_c, 1, 72, 127
1, 67920, Note_on_c, 1, 81, 127
1, 67949, Note_off_c, 1, 72, 0
1, 67950, Note_on_c, 1, 75, 127
1, 67979, Note_off_c, 1, 54, 0
1, 67979, Note_off_c, 1, 81, 0
1, 67979, Note_off_c, 1, 75, 0
1, 67980, Note_on_c, 1, 74, 127
1, 67980, Note_on_c, 1, 54, 127
1, 67980, Note_on_c, 1, 69, 127
1, 67980, Note_on_c, 1, 62, 127
1, 68010, Note_on_c, 1, 72, 127
1, 68039, Note_off_c, 1, 74, 0
1, 68039, Note_off_c, 1, 54, 0
1, 68039, Note_off_c, 1, 69, 0
1, 68039, Note_off_c, 1, 62, 0
1, 68039, Note_off_c, 1, 72, 0
1, 68040, Note_on_c, 1, 55, 127
1, 68040, Note_on_c, 1, 70, 127
1, 68040, Note_on_c, 1, 67, 127
1, 68040, Note_on_c, 1, 62, 127
1, 68040, Note_on_c, 1, 43, 127
1, 68069, Note_off_c, 1, 70, 0
1, 68070, Note_on_c, 1, 69, 127
1, 68099, Note_off_c, 1, 67, 0
1, 68099, Note_off_c, 1, 62, 0
1, 68099, Note_off_c, 1, 43, 0
1, 68099, Note_off_c, 1, 69, 0
1, 68100, Note_on_c, 1, 74, 127
1, 68159, Note_off_c, 1, 55, 0
1, 68159, Note_off_c, 1, 74, 0
1, 68160, Note_on_c, 1, 76, 127
1, 68160, Note_on_c, 1, 55, 127
1, 68160, Note_on_c, 1, 67, 127
1, 68160, Note_on_c, 1, 70, 127
1, 68189, Note_off_c, 1, 76, 0
1, 68190, Note_on_c, 1, 77, 127
1, 68219, Note_off_c, 1, 55, 0
1, 68219, Note_off_c, 1, 67, 0
1, 68219, Note_off_c, 1, 70, 0
1, 68219, Note_off_c, 1, 77, 0
1, 68220, Note_on_c, 1, 58, 127
1, 68220, Note_on_c, 1, 79, 127
1, 68220, Note_on_c, 1, 74, 127
1, 68220, Note_on_c, 1, 67, 127
1, 68220, Note_on_c, 1, 46, 127
1, 68249, Note_off_c, 1, 79, 0
1, 68250, Note_on_c, 1, 76, 127
1, 68279, Note_off_c, 1, 74, 0
1, 68279, Note_off_c, 1, 67, 0
1, 68279, Note_off_c, 1, 46, 0
1, 68279, Note_off_c, 1, 76, 0
1, 68280, Note_on_c, 1, 77, 127
1, 68309, Note_off_c, 1, 77, 0
1, 68339, Note_off_c, 1, 58, 0
1, 68340, Note_on_c, 1, 81, 127
1, 68340, Note_on_c, 1, 58, 127
1, 68340, Note_on_c, 1, 74, 127
1, 68340, Note_on_c, 1, 79, 127
1, 68340, Note_on_c, 1, 62, 127
1, 68340, Note_on_c, 1, 67, 127
1, 68369, Note_off_c, 1, 81, 0
1, 68370, Note_on_c, 1, 82, 127
1, 68399, Note_off_c, 1, 58, 0
1, 68399, Note_off_c, 1, 74, 0
1, 68399, Note_off_c, 1, 79, 0
1, 68399, Note_off_c, 1, 62, 0
1, 68399, Note_off_c, 1, 67, 0
1, 68399, Note_off_c, 1, 82, 0
1, 68400, Note_on_c, 1, 57, 127
1, 68400, Note_on_c, 1, 73, 127
1, 68400, Note_on_c, 1, 69, 127
1, 68400, Note_on_c, 1, 64, 127
1, 68400, Note_on_c, 1, 45, 127
1, 68429, Note_off_c, 1, 73, 0
1, 68430, Note_on_c, 1, 76, 127
1, 68459, Note_off_c, 1, 69, 0
1, 68459, Note_off_c, 1, 64, 0
1, 68459, Note_off_c, 1, 45, 0
1, 68459, Note_off_c, 1, 76, 0
1, 68460, Note_on_c, 1, 74, 127
1, 68460, Note_on_c, 1, 81, 127
1, 68489, Note_off_c, 1, 74, 0
1, 68519, Note_off_c, 1, 57, 0
1, 68519, Note_off_c, 1, 81, 0
1, 68520, Note_on_c, 1, 71, 127
1, 68520, Note_on_c, 1, 57, 127
1, 68520, Note_on_c, 1, 73, 127
1, 68520, Note_on_c, 1, 76, 127
1, 68520, Note_on_c, 1, 64, 127
1, 68549, Note_off_c, 1, 71, 0
1, 68550, Note_on_c, 1, 69, 127
1, 68579, Note_off_c, 1, 57, 0
1, 68579, Note_off_c, 1, 73, 0
1, 68579, Note_off_c, 1, 76, 0
1, 68579, Note_off_c, 1, 64, 0
1, 68579, Note_off_c, 1, 69, 0
1, 68580, Note_on_c, 1, 49, 127
1, 68580, Note_on_c, 1, 76, 127
1, 68580, Note_on_c, 1, 61, 127
1, 68580, Note_on_c, 1, 69, 127
1, 68580, Note_on_c, 1, 64, 127
1, 68609, Note_off_c, 1, 76, 0
1, 68610, Note_on_c, 1, 70, 127
1, 68639, Note_off_c, 1, 61, 0
1, 68639, Note_off_c, 1, 69, 0
1, 68639, Note_off_c, 1, 64, 0
1, 68639, Note_off_c, 1, 70, 0
1, 68670, Note_on_c, 1, 67, 127
1, 68699, Note_off_c, 1, 49, 0
1, 68699, Note_off_c, 1, 67, 0
1, 68700, Note_on_c, 1, 65, 127
1, 68700, Note_on_c, 1, 49, 127
1, 68700, Note_on_c, 1, 79, 127
1, 68700, Note_on_c, 1, 70, 127
1, 68700, Note_on_c, 1, 76, 127
1, 68700, Note_on_c, 1, 61, 127
1, 68729, Note_off_c, 1, 65, 0
1, 68730, Note_on_c, 1, 64, 127
1, 68759, Note_off_c, 1, 49, 0
1, 68759, Note_off_c, 1, 79, 0
1, 68759, Note_off_c, 1, 70, 0
1, 68759, Note_off_c, 1, 76, 0
1, 68759, Note_off_c, 1, 61, 0
1, 68759, Note_off_c, 1, 64, 0
1, 68760, Note_on_c, 1, 50, 127
1, 68760, Note_on_c, 1, 65, 127
1, 68760, Note_on_c, 1, 62, 127
1, 68760, Note_on_c, 1, 69, 127
1, 68760, Note_on_c, 1, 74, 127
1, 68789, Note_off_c, 1, 65, 0
1, 68790, Note_on_c, 1, 64, 127
1, 68819, Note_off_c, 1, 62, 0
1, 68819, Note_off_c, 1, 69, 0
1, 68819, Note_off_c, 1, 74, 0
1, 68819, Note_off_c, 1, 64, 0
1, 68820, Note_on_c, 1, 77, 127
1, 68879, Note_off_c, 1, 50, 0
1, 68879, Note_off_c, 1, 77, 0
1, 68880, Note_on_c, 1, 74, 127
1, 68880, Note_on_c, 1, 50, 127
1, 68880, Note_on_c, 1, 69, 127
1, 68880, Note_on_c, 1, 65, 127
1, 68880, Note_on_c, 1, 77, 127
1, 68880, Note_on_c, 1, 62, 127
1, 68909, Note_off_c, 1, 74, 0
1, 68910, Note_on_c, 1, 73, 127
1, 68939, Note_off_c, 1, 50, 0
1, 68939, Note_off_c, 1, 69, 0
1, 68939, Note_off_c, 1, 65, 0
1, 68939, Note_off_c, 1, 77, 0
1, 68939, Note_off_c, 1, 62, 0
1, 68939, Note_off_c, 1, 73, 0
1, 68940, Note_on_c, 1, 45, 127
1, 68940, Note_on_c, 1, 74, 127
1, 68940, Note_on_c, 1, 57, 127
1, 68940, Note_on_c, 1, 76, 127
1, 68940, Note_on_c, 1, 69, 127
1, 68969, Note_off_c, 1, 74, 0
1, 68999, Note_off_c, 1, 57, 0
1, 68999, Note_off_c, 1, 76, 0
1, 68999, Note_off_c, 1, 69, 0
1, 69000, Note_on_c, 1, 77, 127
1, 69000, Note_on_c, 1, 62, 127
1, 69029, Note_off_c, 1, 77, 0
1, 69030, Note_on_c, 1, 79, 127
1, 69059, Note_off_c, 1, 45, 0
1, 69059, Note_off_c, 1, 62, 0
1, 69059, Note_off_c, 1, 79, 0
1, 69060, Note_on_c, 1, 81, 127
1, 69060, Note_on_c, 1, 45, 127
1, 69060, Note_on_c, 1, 64, 127
1, 69060, Note_on_c, 1, 73, 127
1, 69060, Note_on_c, 1, 69, 127
1, 69060, Note_on_c, 1, 79, 127
1, 69060, Note_on_c, 1, 57, 127
1, 69089, Note_off_c, 1, 81, 0
1, 69119, Note_off_c, 1, 45, 0
1, 69119, Note_off_c, 1, 64, 0
1, 69119, Note_off_c, 1, 69, 0
1, 69119, Note_off_c, 1, 79, 0
1, 69119, Note_off_c, 1, 57, 0
1, 69120, Note_on_c, 1, 38, 127
1, 69120, Note_on_c, 1, 50, 127
1, 69120, Note_on_c, 1, 77, 127
1, 69149, Note_off_c, 1, 73, 0
1, 69150, Note_on_c, 1, 74, 127
1, 69179, Note_off_c, 1, 77, 0
1, 69179, Note_off_c, 1, 74, 0
1, 69180, Note_on_c, 1, 65, 127
1, 69210, Note_on_c, 1, 67, 127
1, 69239, Note_off_c, 1, 65, 0
1, 69239, Note_off_c, 1, 67, 0
1, 69240, Note_off_c, 1, 38, 0
1, 69240, Note_on_c, 1, 62, 127
1, 69299, Note_off_c, 1, 62, 0
1, 69300, Note_on_c, 1, 86, 127
1, 69330, Note_off_c, 1, 50, 0
1, 69330, Note_on_c, 1, 53, 127
1, 69359, Note_off_c, 1, 53, 0
1, 69360, Note_on_c, 1, 60, 127
1, 69389, Note_off_c, 1, 60, 0
1, 69390, Note_on_c, 1, 55, 127
1, 69390, Note_on_c, 1, 59, 127
1, 69419, Note_off_c, 1, 86, 0
1, 69419, Note_off_c, 1, 55, 0
1, 69419, Note_off_c, 1, 59, 0
1, 69420, Note_on_c, 1, 48, 127
1, 69420, Note_on_c, 1, 57, 127
1, 69420, Note_on_c, 1, 53, 127
1, 69449, Note_off_c, 1, 57, 0
1, 69449, Note_off_c, 1, 53, 0
1, 69450, Note_off_c, 1, 48, 0
1, 69450, Note_on_c, 1, 60, 127
1, 69479, Note_off_c, 1, 60, 0
1, 69480, Note_on_c, 1, 47, 127
1, 69480, Note_on_c, 1, 67, 127
1, 69480, Note_on_c, 1, 59, 127
1, 69480, Note_on_c, 1, 79, 127
1, 69480, Note_on_c, 1, 74, 127
1, 69509, Note_off_c, 1, 67, 0
1, 69510, Note_on_c, 1, 69, 127
1, 69539, Note_off_c, 1, 59, 0
1, 69539, Note_off_c, 1, 79, 0
1, 69539, Note_off_c, 1, 74, 0
1, 69539, Note_off_c, 1, 69, 0
1, 69540, Note_on_c, 1, 71, 127
1, 69540, Note_on_c, 1, 62, 127
1, 69569, Note_off_c, 1, 71, 0
1, 69570, Note_on_c, 1, 72, 127
1, 69599, Note_off_c, 1, 47, 0
1, 69599, Note_off_c, 1, 62, 0
1, 69599, Note_off_c, 1, 72, 0
1, 69600, Note_on_c, 1, 74, 127
1, 69600, Note_on_c, 1, 47, 127
1, 69600, Note_on_c, 1, 67, 127
1, 69600, Note_on_c, 1, 71, 127
1, 69600, Note_on_c, 1, 59, 127
1, 69630, Note_on_c, 1, 76, 127
1, 69659, Note_off_c, 1, 74, 0
1, 69659, Note_off_c, 1, 47, 0
1, 69659, Note_off_c, 1, 67, 0
1, 69659, Note_off_c, 1, 71, 0
1, 69659, Note_off_c, 1, 59, 0
1, 69659, Note_off_c, 1, 76, 0
1, 69660, Note_on_c, 1, 77, 127
1, 69660, Note_on_c, 1, 47, 127
1, 69660, Note_on_c, 1, 59, 127
1, 69660, Note_on_c, 1, 67, 127
1, 69660, Note_on_c, 1, 62, 127
1, 69689, Note_off_c, 1, 77, 0
1, 69690, Note_on_c, 1, 76, 127
1, 69719, Note_off_c, 1, 47, 0
1, 69719, Note_off_c, 1, 59, 0
1, 69719, Note_off_c, 1, 67, 0
1, 69719, Note_off_c, 1, 62, 0
1, 69719, Note_off_c, 1, 76, 0
1, 69720, Note_on_c, 1, 77, 127
1, 69720, Note_on_c, 1, 47, 127
1, 69720, Note_on_c, 1, 67, 127
1, 69720, Note_on_c, 1, 74, 127
1, 69749, Note_off_c, 1, 77, 0
1, 69750, Note_on_c, 1, 81, 127
1, 69779, Note_off_c, 1, 47, 0
1, 69779, Note_off_c, 1, 67, 0
1, 69779, Note_off_c, 1, 74, 0
1, 69779, Note_off_c, 1, 81, 0
1, 69780, Note_on_c, 1, 79, 127
1, 69780, Note_on_c, 1, 47, 127
1, 69780, Note_on_c, 1, 74, 127
1, 69780, Note_on_c, 1, 67, 127
1, 69780, Note_on_c, 1, 59, 127
1, 69810, Note_on_c, 1, 77, 127
1, 69839, Note_off_c, 1, 79, 0
1, 69839, Note_off_c, 1, 47, 0
1, 69839, Note_off_c, 1, 74, 0
1, 69839, Note_off_c, 1, 67, 0
1, 69839, Note_off_c, 1, 59, 0
1, 69839, Note_off_c, 1, 77, 0
1, 69840, Note_on_c, 1, 46, 127
1, 69840, Note_on_c, 1, 76, 127
1, 69840, Note_on_c, 1, 58, 127
1, 69840, Note_on_c, 1, 72, 127
1, 69840, Note_on_c, 1, 67, 127
1, 69869, Note_off_c, 1, 76, 0
1, 69870, Note_on_c, 1, 77, 127
1, 69899, Note_off_c, 1, 58, 0
1, 69899, Note_off_c, 1, 72, 0
1, 69899, Note_off_c, 1, 67, 0
1, 69899, Note_off_c, 1, 77, 0
1, 69900, Note_on_c, 1, 79, 127
1, 69929, Note_off_c, 1, 79, 0
1, 69930, Note_on_c, 1, 81, 127
1, 69959, Note_off_c, 1, 46, 0
1, 69959, Note_off_c, 1, 81, 0
1, 69960, Note_on_c, 1, 82, 127
1, 69960, Note_on_c, 1, 46, 127
1, 69960, Note_on_c, 1, 67, 127
1, 69960, Note_on_c, 1, 72, 127
1, 69960, Note_on_c, 1, 76, 127
1, 69960, Note_on_c, 1, 58, 127
1, 69989, Note_off_c, 1, 82, 0
1, 69990, Note_on_c, 1, 84, 127
1, 70019, Note_off_c, 1, 46, 0
1, 70019, Note_off_c, 1, 67, 0
1, 70019, Note_off_c, 1, 72, 0
1, 70019, Note_off_c, 1, 76, 0
1, 70019, Note_off_c, 1, 58, 0
1, 70019, Note_off_c, 1, 84, 0
1, 70020, Note_on_c, 1, 77, 127
1, 70020, Note_on_c, 1, 46, 127
1, 70020, Note_on_c, 1, 58, 127
1, 70020, Note_on_c, 1, 79, 127
1, 70020, Note_on_c, 1, 72, 127
1, 70049, Note_off_c, 1, 77, 0
1, 70050, Note_on_c, 1, 76, 127
1, 70079, Note_off_c, 1, 46, 0
1, 70079, Note_off_c, 1, 58, 0
1, 70079, Note_off_c, 1, 79, 0
1, 70079, Note_off_c, 1, 72, 0
1, 70079, Note_off_c, 1, 76, 0
1, 70080, Note_on_c, 1, 74, 127
1, 70080, Note_on_c, 1, 46, 127
1, 70080, Note_on_c, 1, 64, 127
1, 70080, Note_on_c, 1, 67, 127
1, 70109, Note_off_c, 1, 74, 0
1, 70110, Note_on_c, 1, 72, 127
1, 70139, Note_off_c, 1, 46, 0
1, 70139, Note_off_c, 1, 64, 0
1, 70139, Note_off_c, 1, 67, 0
1, 70139, Note_off_c, 1, 72, 0
1, 70140, Note_on_c, 1, 75, 127
1, 70140, Note_on_c, 1, 46, 127
1, 70140, Note_on_c, 1, 72, 127
1, 70140, Note_on_c, 1, 67, 127
1, 70140, Note_on_c, 1, 79, 127
1, 70140, Note_on_c, 1, 58, 127
1, 70169, Note_off_c, 1, 75, 0
1, 70170, Note_on_c, 1, 74, 127
1, 70199, Note_off_c, 1, 46, 0
1, 70199, Note_off_c, 1, 72, 0
1, 70199, Note_off_c, 1, 67, 0
1, 70199, Note_off_c, 1, 79, 0
1, 70199, Note_off_c, 1, 58, 0
1, 70199, Note_off_c, 1, 74, 0
1, 70200, Note_on_c, 1, 45, 127
1, 70200, Note_on_c, 1, 75, 127
1, 70200, Note_on_c, 1, 57, 127
1, 70200, Note_on_c, 1, 72, 127
1, 70200, Note_on_c, 1, 77, 127
1, 70229, Note_off_c, 1, 75, 0
1, 70230, Note_on_c, 1, 74, 127
1, 70259, Note_off_c, 1, 57, 0
1, 70259, Note_off_c, 1, 72, 0
1, 70259, Note_off_c, 1, 77, 0
1, 70259, Note_off_c, 1, 74, 0
1, 70260, Note_on_c, 1, 65, 127
1, 70290, Note_on_c, 1, 81, 127
1, 70319, Note_off_c, 1, 45, 0
1, 70319, Note_off_c, 1, 65, 0
1, 70319, Note_off_c, 1, 81, 0
1, 70320, Note_on_c, 1, 82, 127
1, 70320, Note_on_c, 1, 45, 127
1, 70320, Note_on_c, 1, 65, 127
1, 70320, Note_on_c, 1, 75, 127
1, 70320, Note_on_c, 1, 72, 127
1, 70320, Note_on_c, 1, 57, 127
1, 70349, Note_off_c, 1, 82, 0
1, 70350, Note_on_c, 1, 84, 127
1, 70379, Note_off_c, 1, 45, 0
1, 70379, Note_off_c, 1, 65, 0
1, 70379, Note_off_c, 1, 75, 0
1, 70379, Note_off_c, 1, 72, 0
1, 70379, Note_off_c, 1, 57, 0
1, 70379, Note_off_c, 1, 84, 0
1, 70380, Note_on_c, 1, 41, 127
1, 70380, Note_on_c, 1, 82, 127
1, 70380, Note_on_c, 1, 53, 127
1, 70380, Note_on_c, 1, 75, 127
1, 70380, Note_on_c, 1, 72, 127
1, 70409, Note_off_c, 1, 82, 0
1, 70410, Note_on_c, 1, 81, 127
1, 70439, Note_off_c, 1, 53, 0
1, 70439, Note_off_c, 1, 75, 0
1, 70439, Note_off_c, 1, 72, 0
1, 70439, Note_off_c, 1, 81, 0
1, 70440, Note_on_c, 1, 79, 127
1, 70440, Note_on_c, 1, 69, 127
1, 70469, Note_off_c, 1, 79, 0
1, 70470, Note_on_c, 1, 77, 127
1, 70499, Note_off_c, 1, 41, 0
1, 70499, Note_off_c, 1, 69, 0
1, 70499, Note_off_c, 1, 77, 0
1, 70500, Note_on_c, 1, 84, 127
1, 70500, Note_on_c, 1, 41, 127
1, 70500, Note_on_c, 1, 69, 127
1, 70500, Note_on_c, 1, 65, 127
1, 70500, Note_on_c, 1, 77, 127
1, 70500, Note_on_c, 1, 53, 127
1, 70529, Note_off_c, 1, 84, 0
1, 70530, Note_on_c, 1, 75, 127
1, 70559, Note_off_c, 1, 41, 0
1, 70559, Note_off_c, 1, 69, 0
1, 70559, Note_off_c, 1, 65, 0
1, 70559, Note_off_c, 1, 77, 0
1, 70559, Note_off_c, 1, 53, 0
1, 70559, Note_off_c, 1, 75, 0
1, 70560, Note_on_c, 1, 50, 127
1, 70560, Note_on_c, 1, 74, 127
1, 70560, Note_on_c, 1, 46, 127
1, 70560, Note_on_c, 1, 58, 127
1, 70560, Note_on_c, 1, 77, 127
1, 70560, Note_on_c, 1, 70, 127
1, 70589, Note_off_c, 1, 74, 0
1, 70590, Note_on_c, 1, 75, 127
1, 70619, Note_off_c, 1, 46, 0
1, 70619, Note_off_c, 1, 58, 0
1, 70619, Note_off_c, 1, 77, 0
1, 70619, Note_off_c, 1, 70, 0
1, 70619, Note_off_c, 1, 75, 0
1, 70620, Note_off_c, 1, 50, 0
1, 70620, Note_on_c, 1, 62, 127
1, 70650, Note_on_c, 1, 82, 127
1, 70679, Note_off_c, 1, 62, 0
1, 70679, Note_off_c, 1, 82, 0
1, 70680, Note_on_c, 1, 74, 127
1, 70680, Note_on_c, 1, 46, 127
1, 70680, Note_on_c, 1, 65, 127
1, 70680, Note_on_c, 1, 77, 127
1, 70680, Note_on_c, 1, 70, 127
1, 70680, Note_on_c, 1, 58, 127
1, 70710, Note_on_c, 1, 72, 127
1, 70739, Note_off_c, 1, 74, 0
1, 70739, Note_off_c, 1, 46, 0
1, 70739, Note_off_c, 1, 65, 0
1, 70739, Note_off_c, 1, 77, 0
1, 70739, Note_off_c, 1, 70, 0
1, 70739, Note_off_c, 1, 58, 0
1, 70739, Note_off_c, 1, 72, 0
1, 70740, Note_on_c, 1, 38, 127
1, 70740, Note_on_c, 1, 70, 127
1, 70740, Note_on_c, 1, 50, 127
1, 70740, Note_on_c, 1, 77, 127
1, 70740, Note_on_c, 1, 82, 127
1, 70769, Note_off_c, 1, 70, 0
1, 70770, Note_on_c, 1, 74, 127
1, 70799, Note_off_c, 1, 50, 0
1, 70799, Note_off_c, 1, 77, 0
1, 70799, Note_off_c, 1, 82, 0
1, 70799, Note_off_c, 1, 74, 0
1, 70800, Note_on_c, 1, 72, 127
1, 70829, Note_off_c, 1, 72, 0
1, 70859, Note_off_c, 1, 38, 0
1, 70860, Note_on_c, 1, 69, 127
1, 70860, Note_on_c, 1, 50, 127
1, 70860, Note_on_c, 1, 82, 127
1, 70860, Note_on_c, 1, 77, 127
1, 70860, Note_on_c, 1, 65, 127
1, 70860, Note_on_c, 1, 74, 127
1, 70860, Note_on_c, 1, 62, 127
1, 70889, Note_off_c, 1, 69, 0
1, 70890, Note_on_c, 1, 67, 127
1, 70919, Note_off_c, 1, 50, 0
1, 70919, Note_off_c, 1, 82, 0
1, 70919, Note_off_c, 1, 77, 0
1, 70919, Note_off_c, 1, 65, 0
1, 70919, Note_off_c, 1, 74, 0
1, 70919, Note_off_c, 1, 62, 0
1, 70919, Note_off_c, 1, 67, 0
1, 70920, Note_on_c, 1, 40, 127
1, 70920, Note_on_c, 1, 70, 127
1, 70920, Note_on_c, 1, 52, 127
1, 70920, Note_on_c, 1, 67, 127
1, 70920, Note_on_c, 1, 72, 127
1, 70949, Note_off_c, 1, 70, 0
1, 70950, Note_on_c, 1, 69, 127
1, 70979, Note_off_c, 1, 52, 0
1, 70979, Note_off_c, 1, 67, 0
1, 70979, Note_off_c, 1, 72, 0
1, 70979, Note_off_c, 1, 69, 0
1, 70980, Note_on_c, 1, 79, 127
1, 71010, Note_on_c, 1, 76, 127
1, 71039, Note_off_c, 1, 40, 0
1, 71039, Note_off_c, 1, 79, 0
1, 71039, Note_off_c, 1, 76, 0
1, 71040, Note_on_c, 1, 77, 127
1, 71040, Note_on_c, 1, 52, 127
1, 71040, Note_on_c, 1, 72, 127
1, 71040, Note_on_c, 1, 70, 127
1, 71040, Note_on_c, 1, 67, 127
1, 71040, Note_on_c, 1, 60, 127
1, 71069, Note_off_c, 1, 77, 0
1, 71070, Note_on_c, 1, 79, 127
1, 71099, Note_off_c, 1, 52, 0
1, 71099, Note_off_c, 1, 72, 0
1, 71099, Note_off_c, 1, 70, 0
1, 71099, Note_off_c, 1, 67, 0
1, 71099, Note_off_c, 1, 60, 0
1, 71099, Note_off_c, 1, 79, 0
1, 71100, Note_on_c, 1, 36, 127
1, 71100, Note_on_c, 1, 77, 127
1, 71100, Note_on_c, 1, 48, 127
1, 71100, Note_on_c, 1, 72, 127
1, 71100, Note_on_c, 1, 67, 127
1, 71129, Note_off_c, 1, 77, 0
1, 71130, Note_on_c, 1, 76, 127
1, 71159, Note_off_c, 1, 48, 0
1, 71159, Note_off_c, 1, 72, 0
1, 71159, Note_off_c, 1, 67, 0
1, 71159, Note_off_c, 1, 76, 0
1, 71160, Note_on_c, 1, 74, 127
1, 71160, Note_on_c, 1, 64, 127
1, 71160, Note_on_c, 1, 70, 127
1, 71189, Note_off_c, 1, 74, 0
1, 71219, Note_off_c, 1, 36, 0
1, 71219, Note_off_c, 1, 64, 0
1, 71219, Note_off_c, 1, 70, 0
1, 71220, Note_on_c, 1, 79, 127
1, 71220, Note_on_c, 1, 48, 127
1, 71220, Note_on_c, 1, 76, 127
1, 71220, Note_on_c, 1, 70, 127
1, 71220, Note_on_c, 1, 64, 127
1, 71220, Note_on_c, 1, 72, 127
1, 71249, Note_off_c, 1, 79, 0
1, 71279, Note_off_c, 1, 48, 0
1, 71279, Note_off_c, 1, 76, 0
1, 71279, Note_off_c, 1, 70, 0
1, 71279, Note_off_c, 1, 64, 0
1, 71279, Note_off_c, 1, 72, 0
1, 71280, Note_on_c, 1, 41, 127
1, 71280, Note_on_c, 1, 69, 127
1, 71280, Note_on_c, 1, 53, 127
1, 71280, Note_on_c, 1, 72, 127
1, 71280, Note_on_c, 1, 65, 127
1, 71309, Note_off_c, 1, 69, 0
1, 71310, Note_on_c, 1, 70, 127
1, 71339, Note_off_c, 1, 53, 0
1, 71339, Note_off_c, 1, 72, 0
1, 71339, Note_off_c, 1, 65, 0
1, 71339, Note_off_c, 1, 70, 0
1, 71340, Note_on_c, 1, 77, 127
1, 71399, Note_off_c, 1, 41, 0
1, 71399, Note_off_c, 1, 77, 0
1, 71400, Note_on_c, 1, 69, 127
1, 71400, Note_on_c, 1, 53, 127
1, 71400, Note_on_c, 1, 65, 127
1, 71400, Note_on_c, 1, 72, 127
1, 71429, Note_off_c, 1, 69, 0
1, 71430, Note_on_c, 1, 67, 127
1, 71459, Note_off_c, 1, 53, 0
1, 71459, Note_off_c, 1, 65, 0
1, 71459, Note_off_c, 1, 72, 0
1, 71459, Note_off_c, 1, 67, 0
1, 71460, Note_on_c, 1, 45, 127
1, 71460, Note_on_c, 1, 65, 127
1, 71460, Note_on_c, 1, 57, 127
1, 71460, Note_on_c, 1, 77, 127
1, 71460, Note_on_c, 1, 72, 127
1, 71489, Note_off_c, 1, 65, 0
1, 71490, Note_on_c, 1, 69, 127
1, 71519, Note_off_c, 1, 57, 0
1, 71519, Note_off_c, 1, 77, 0
1, 71519, Note_off_c, 1, 72, 0
1, 71519, Note_off_c, 1, 69, 0
1, 71550, Note_on_c, 1, 76, 127
1, 71579, Note_off_c, 1, 45, 0
1, 71579, Note_off_c, 1, 76, 0
1, 71580, Note_on_c, 1, 77, 127
1, 71580, Note_on_c, 1, 57, 127
1, 71580, Note_on_c, 1, 65, 127
1, 71580, Note_on_c, 1, 60, 127
1, 71580, Note_on_c, 1, 76, 127
1, 71580, Note_on_c, 1, 72, 127
1, 71609, Note_off_c, 1, 77, 0
1, 71610, Note_on_c, 1, 79, 127
1, 71639, Note_off_c, 1, 57, 0
1, 71639, Note_off_c, 1, 65, 0
1, 71639, Note_off_c, 1, 60, 0
1, 71639, Note_off_c, 1, 76, 0
1, 71639, Note_off_c, 1, 72, 0
1, 71639, Note_off_c, 1, 79, 0
1, 71640, Note_on_c, 1, 47, 127
1, 71640, Note_on_c, 1, 77, 127
1, 71640, Note_on_c, 1, 59, 127
1, 71640, Note_on_c, 1, 74, 127
1, 71640, Note_on_c, 1, 67, 127
1, 71669, Note_off_c, 1, 77, 0
1, 71670, Note_on_c, 1, 76, 127
1, 71699, Note_off_c, 1, 59, 0
1, 71699, Note_off_c, 1, 74, 0
1, 71699, Note_off_c, 1, 67, 0
1, 71699, Note_off_c, 1, 76, 0
1, 71700, Note_on_c, 1, 62, 127
1, 71730, Note_on_c, 1, 81, 127
1, 71759, Note_off_c, 1, 47, 0
1, 71759, Note_off_c, 1, 62, 0
1, 71759, Note_off_c, 1, 81, 0
1, 71760, Note_on_c, 1, 74, 127
1, 71760, Note_on_c, 1, 47, 127
1, 71760, Note_on_c, 1, 71, 127
1, 71760, Note_on_c, 1, 67, 127
1, 71760, Note_on_c, 1, 59, 127
1, 71790, Note_on_c, 1, 77, 127
1, 71819, Note_off_c, 1, 74, 0
1, 71819, Note_off_c, 1, 47, 0
1, 71819, Note_off_c, 1, 71, 0
1, 71819, Note_off_c, 1, 67, 0
1, 71819, Note_off_c, 1, 59, 0
1, 71819, Note_off_c, 1, 77, 0
1, 71820, Note_on_c, 1, 43, 127
1, 71820, Note_on_c, 1, 71, 127
1, 71820, Note_on_c, 1, 55, 127
1, 71820, Note_on_c, 1, 74, 127
1, 71820, Note_on_c, 1, 79, 127
1, 71849, Note_off_c, 1, 71, 0
1, 71879, Note_off_c, 1, 55, 0
1, 71879, Note_off_c, 1, 74, 0
1, 71879, Note_off_c, 1, 79, 0
1, 71880, Note_on_c, 1, 77, 127
1, 71880, Note_on_c, 1, 67, 127
1, 71909, Note_off_c, 1, 77, 0
1, 71910, Note_on_c, 1, 81, 127
1, 71939, Note_off_c, 1, 43, 0
1, 71939, Note_off_c, 1, 67, 0
1, 71939, Note_off_c, 1, 81, 0
1, 71940, Note_on_c, 1, 79, 127
1, 71940, Note_on_c, 1, 43, 127
1, 71940, Note_on_c, 1, 74, 127
1, 71940, Note_on_c, 1, 71, 127
1, 71940, Note_on_c, 1, 67, 127
1, 71940, Note_on_c, 1, 55, 127
1, 71969, Note_off_c, 1, 79, 0
1, 71970, Note_on_c, 1, 77, 127
1, 71999, Note_off_c, 1, 43, 0
1, 71999, Note_off_c, 1, 74, 0
1, 71999, Note_off_c, 1, 71, 0
1, 71999, Note_off_c, 1, 67, 0
1, 71999, Note_off_c, 1, 55, 0
1, 71999, Note_off_c, 1, 77, 0
1, 72000, Note_on_c, 1, 48, 127
1, 72000, Note_on_c, 1, 76, 127
1, 72000, Note_on_c, 1, 67, 127
1, 72000, Note_on_c, 1, 72, 127
1, 72029, Note_off_c, 1, 76, 0
1, 72030, Note_on_c, 1, 77, 127
1, 72059, Note_off_c, 1, 67, 0
1, 72059, Note_off_c, 1, 72, 0
1, 72059, Note_off_c, 1, 77, 0
1, 72060, Note_on_c, 1, 79, 127
1, 72060, Note_on_c, 1, 36, 127
1, 72089, Note_off_c, 1, 79, 0
1, 72090, Note_on_c, 1, 84, 127
1, 72119, Note_off_c, 1, 48, 0
1, 72119, Note_off_c, 1, 36, 0
1, 72119, Note_off_c, 1, 84, 0
1, 72120, Note_on_c, 1, 76, 127
1, 72120, Note_on_c, 1, 48, 127
1, 72120, Note_on_c, 1, 79, 127
1, 72120, Note_on_c, 1, 72, 127
1, 72120, Note_on_c, 1, 60, 127
1, 72149, Note_off_c, 1, 76, 0
1, 72150, Note_on_c, 1, 74, 127
1, 72179, Note_off_c, 1, 48, 0
1, 72179, Note_off_c, 1, 79, 0
1, 72179, Note_off_c, 1, 72, 0
1, 72179, Note_off_c, 1, 60, 0
1, 72179, Note_off_c, 1, 74, 0
1, 72180, Note_on_c, 1, 72, 127
1, 72180, Note_on_c, 1, 48, 127
1, 72180, Note_on_c, 1, 84, 127
1, 72180, Note_on_c, 1, 76, 127
1, 72209, Note_off_c, 1, 72, 0
1, 72210, Note_on_c, 1, 74, 127
1, 72239, Note_off_c, 1, 48, 0
1, 72239, Note_off_c, 1, 84, 0
1, 72239, Note_off_c, 1, 76, 0
1, 72239, Note_off_c, 1, 74, 0
1, 72240, Note_on_c, 1, 76, 127
1, 72240, Note_on_c, 1, 48, 127
1, 72240, Note_on_c, 1, 67, 127
1, 72240, Note_on_c, 1, 36, 127
1, 72270, Note_on_c, 1, 77, 127
1, 72299, Note_off_c, 1, 76, 0
1, 72299, Note_off_c, 1, 48, 0
1, 72299, Note_off_c, 1, 67, 0
1, 72299, Note_off_c, 1, 36, 0
1, 72299, Note_off_c, 1, 77, 0
1, 72300, Note_on_c, 1, 79, 127
1, 72300, Note_on_c, 1, 48, 127
1, 72300, Note_on_c, 1, 64, 127
1, 72300, Note_on_c, 1, 72, 127
1, 72300, Note_on_c, 1, 76, 127
1, 72329, Note_off_c, 1, 79, 0
1, 72330, Note_on_c, 1, 81, 127
1, 72359, Note_off_c, 1, 48, 0
1, 72359, Note_off_c, 1, 64, 0
1, 72359, Note_off_c, 1, 72, 0
1, 72359, Note_off_c, 1, 76, 0
1, 72359, Note_off_c, 1, 81, 0
1, 72360, Note_on_c, 1, 48, 127
1, 72360, Note_on_c, 1, 82, 127
1, 72360, Note_on_c, 1, 76, 127
1, 72360, Note_on_c, 1, 67, 127
1, 72360, Note_on_c, 1, 36, 127
1, 72389, Note_off_c, 1, 82, 0
1, 72390, Note_on_c, 1, 81, 127
1, 72419, Note_off_c, 1, 76, 0
1, 72419, Note_off_c, 1, 67, 0
1, 72419, Note_off_c, 1, 36, 0
1, 72419, Note_off_c, 1, 81, 0
1, 72450, Note_on_c, 1, 79, 127
1, 72479, Note_off_c, 1, 48, 0
1, 72479, Note_off_c, 1, 79, 0
1, 72480, Note_on_c, 1, 81, 127
1, 72480, Note_on_c, 1, 48, 127
1, 72480, Note_on_c, 1, 72, 127
1, 72480, Note_on_c, 1, 77, 127
1, 72480, Note_on_c, 1, 65, 127
1, 72509, Note_off_c, 1, 81, 0
1, 72510, Note_on_c, 1, 79, 127
1, 72539, Note_off_c, 1, 48, 0
1, 72539, Note_off_c, 1, 72, 0
1, 72539, Note_off_c, 1, 77, 0
1, 72539, Note_off_c, 1, 65, 0
1, 72539, Note_off_c, 1, 79, 0
1, 72540, Note_on_c, 1, 81, 127
1, 72540, Note_on_c, 1, 48, 127
1, 72540, Note_on_c, 1, 72, 127
1, 72540, Note_on_c, 1, 65, 127
1, 72540, Note_on_c, 1, 36, 127
1, 72569, Note_off_c, 1, 81, 0
1, 72570, Note_on_c, 1, 77, 127
1, 72599, Note_off_c, 1, 48, 0
1, 72599, Note_off_c, 1, 72, 0
1, 72599, Note_off_c, 1, 65, 0
1, 72599, Note_off_c, 1, 36, 0
1, 72599, Note_off_c, 1, 77, 0
1, 72600, Note_on_c, 1, 79, 127
1, 72600, Note_on_c, 1, 48, 127
1, 72600, Note_on_c, 1, 76, 127
1, 72600, Note_on_c, 1, 72, 127
1, 72600, Note_on_c, 1, 36, 127
1, 72629, Note_off_c, 1, 79, 0
1, 72659, Note_off_c, 1, 48, 0
1, 72659, Note_off_c, 1, 76, 0
1, 72659, Note_off_c, 1, 72, 0
1, 72659, Note_off_c, 1, 36, 0
1, 72660, Note_on_c, 1, 77, 127
1, 72660, Note_on_c, 1, 48, 127
1, 72660, Note_on_c, 1, 74, 127
1, 72660, Note_on_c, 1, 71, 127
1, 72660, Note_on_c, 1, 65, 127
1, 72660, Note_on_c, 1, 68, 127
1, 72689, Note_off_c, 1, 77, 0
1, 72719, Note_off_c, 1, 48, 0
1, 72719, Note_off_c, 1, 74, 0
1, 72719, Note_off_c, 1, 71, 0
1, 72719, Note_off_c, 1, 65, 0
1, 72719, Note_off_c, 1, 68, 0
1, 72720, Note_on_c, 1, 48, 127
1, 72720, Note_on_c, 1, 76, 127
1, 72720, Note_on_c, 1, 67, 127
1, 72720, Note_on_c, 1, 60, 127
1, 72720, Note_on_c, 1, 36, 127
1, 72749, Note_off_c, 1, 76, 0
1, 72750, Note_on_c, 1, 74, 127
1, 72779, Note_off_c, 1, 67, 0
1, 72779, Note_off_c, 1, 60, 0
1, 72779, Note_off_c, 1, 36, 0
1, 72779, Note_off_c, 1, 74, 0
1, 72780, Note_on_c, 1, 72, 127
1, 72839, Note_off_c, 1, 48, 0
1, 72839, Note_off_c, 1, 72, 0
1, 72840, Note_on_c, 1, 74, 127
1, 72840, Note_on_c, 1, 48, 127
1, 72840, Note_on_c, 1, 65, 127
1, 72840, Note_on_c, 1, 71, 127
1, 72899, Note_off_c, 1, 74, 0
1, 72899, Note_off_c, 1, 48, 0
1, 72899, Note_off_c, 1, 65, 0
1, 72899, Note_off_c, 1, 71, 0
1, 72900, Note_on_c, 1, 72, 127
1, 72900, Note_on_c, 1, 48, 127
1, 72900, Note_on_c, 1, 76, 127
1, 72900, Note_on_c, 1, 67, 127
1, 72900, Note_on_c, 1, 36, 127
1, 72929, Note_off_c, 1, 72, 0
1, 72959, Note_off_c, 1, 48, 0
1, 72959, Note_off_c, 1, 76, 0
1, 72959, Note_off_c, 1, 67, 0
1, 72959, Note_off_c, 1, 36, 0
1, 72960, Note_on_c, 1, 79, 127
1, 72960, Note_on_c, 1, 48, 127
1, 72960, Note_on_c, 1, 72, 127
1, 72960, Note_on_c, 1, 64, 127
1, 72960, Note_on_c, 1, 36, 127
1, 72989, Note_off_c, 1, 79, 0
1, 73019, Note_off_c, 1, 48, 0
1, 73019, Note_off_c, 1, 72, 0
1, 73019, Note_off_c, 1, 64, 0
1, 73019, Note_off_c, 1, 36, 0
1, 73020, Note_on_c, 1, 76, 127
1, 73020, Note_on_c, 1, 48, 127
1, 73020, Note_on_c, 1, 67, 127
1, 73020, Note_on_c, 1, 60, 127
1, 73020, Note_on_c, 1, 79, 127
1, 73020, Note_on_c, 1, 70, 127
1, 73049, Note_off_c, 1, 76, 0
1, 73079, Note_off_c, 1, 48, 0
1, 73079, Note_off_c, 1, 67, 0
1, 73079, Note_off_c, 1, 60, 0
1, 73079, Note_off_c, 1, 79, 0
1, 73079, Note_off_c, 1, 70, 0
1, 73080, Note_on_c, 1, 48, 127
1, 73080, Note_on_c, 1, 84, 127
1, 73080, Note_on_c, 1, 77, 127
1, 73080, Note_on_c, 1, 69, 127
1, 73080, Note_on_c, 1, 36, 127
1, 73109, Note_off_c, 1, 84, 0
1, 73110, Note_on_c, 1, 82, 127
1, 73139, Note_off_c, 1, 77, 0
1, 73139, Note_off_c, 1, 69, 0
1, 73139, Note_off_c, 1, 36, 0
1, 73139, Note_off_c, 1, 82, 0
1, 73140, Note_on_c, 1, 65, 127
1, 73170, Note_on_c, 1, 81, 127
1, 73199, Note_off_c, 1, 48, 0
1, 73199, Note_off_c, 1, 65, 0
1, 73199, Note_off_c, 1, 81, 0
1, 73200, Note_on_c, 1, 82, 127
1, 73200, Note_on_c, 1, 48, 127
1, 73200, Note_on_c, 1, 72, 127
1, 73200, Note_on_c, 1, 64, 127
1, 73200, Note_on_c, 1, 76, 127
1, 73229, Note_off_c, 1, 82, 0
1, 73230, Note_on_c, 1, 81, 127
1, 73259, Note_off_c, 1, 48, 0
1, 73259, Note_off_c, 1, 72, 0
1, 73259, Note_off_c, 1, 64, 0
1, 73259, Note_off_c, 1, 76, 0
1, 73259, Note_off_c, 1, 81, 0
1, 73260, Note_on_c, 1, 82, 127
1, 73260, Note_on_c, 1, 48, 127
1, 73260, Note_on_c, 1, 67, 127
1, 73260, Note_on_c, 1, 76, 127
1, 73260, Note_on_c, 1, 36, 127
1, 73289, Note_off_c, 1, 82, 0
1, 73290, Note_on_c, 1, 79, 127
1, 73319, Note_off_c, 1, 48, 0
1, 73319, Note_off_c, 1, 67, 0
1, 73319, Note_off_c, 1, 76, 0
1, 73319, Note_off_c, 1, 36, 0
1, 73319, Note_off_c, 1, 79, 0
1, 73320, Note_on_c, 1, 80, 127
1, 73320, Note_on_c, 1, 48, 127
1, 73320, Note_on_c, 1, 72, 127
1, 73320, Note_on_c, 1, 65, 127
1, 73320, Note_on_c, 1, 36, 127
1, 73349, Note_off_c, 1, 80, 0
1, 73350, Note_on_c, 1, 77, 127
1, 73379, Note_off_c, 1, 48, 0
1, 73379, Note_off_c, 1, 72, 0
1, 73379, Note_off_c, 1, 65, 0
1, 73379, Note_off_c, 1, 36, 0
1, 73379, Note_off_c, 1, 77, 0
1, 73380, Note_on_c, 1, 79, 127
1, 73380, Note_on_c, 1, 48, 127
1, 73380, Note_on_c, 1, 76, 127
1, 73380, Note_on_c, 1, 70, 127
1, 73380, Note_on_c, 1, 64, 127
1, 73380, Note_on_c, 1, 72, 127
1, 73409, Note_off_c, 1, 79, 0
1, 73410, Note_on_c, 1, 77, 127
1, 73439, Note_off_c, 1, 48, 0
1, 73439, Note_off_c, 1, 76, 0
1, 73439, Note_off_c, 1, 70, 0
1, 73439, Note_off_c, 1, 64, 0
1, 73439, Note_off_c, 1, 72, 0
1, 73439, Note_off_c, 1, 77, 0
1, 73440, Note_on_c, 1, 48, 127
1, 73440, Note_on_c, 1, 79, 127
1, 73440, Note_on_c, 1, 72, 127
1, 73440, Note_on_c, 1, 64, 127
1, 73440, Note_on_c, 1, 36, 127
1, 73469, Note_off_c, 1, 79, 0
1, 73470, Note_on_c, 1, 76, 127
1, 73499, Note_off_c, 1, 72, 0
1, 73499, Note_off_c, 1, 64, 0
1, 73499, Note_off_c, 1, 36, 0
1, 73499, Note_off_c, 1, 76, 0
1, 73500, Note_on_c, 1, 77, 127
1, 73500, Note_on_c, 1, 68, 127
1, 73529, Note_off_c, 1, 77, 0
1, 73559, Note_off_c, 1, 48, 0
1, 73559, Note_off_c, 1, 68, 0
1, 73560, Note_on_c, 1, 73, 127
1, 73560, Note_on_c, 1, 48, 127
1, 73560, Note_on_c, 1, 68, 127
1, 73560, Note_on_c, 1, 65, 127
1, 73560, Note_on_c, 1, 77, 127
1, 73589, Note_off_c, 1, 73, 0
1, 73590, Note_on_c, 1, 71, 127
1, 73619, Note_off_c, 1, 48, 0
1, 73619, Note_off_c, 1, 68, 0
1, 73619, Note_off_c, 1, 65, 0
1, 73619, Note_off_c, 1, 77, 0
1, 73619, Note_off_c, 1, 71, 0
1, 73620, Note_on_c, 1, 72, 127
1, 73620, Note_on_c, 1, 48, 127
1, 73620, Note_on_c, 1, 77, 127
1, 73620, Note_on_c, 1, 68, 127
1, 73620, Note_on_c, 1, 36, 127
1, 73649, Note_off_c, 1, 72, 0
1, 73650, Note_on_c, 1, 80, 127
1, 73679, Note_off_c, 1, 48, 0
1, 73679, Note_off_c, 1, 77, 0
1, 73679, Note_off_c, 1, 68, 0
1, 73679, Note_off_c, 1, 36, 0
1, 73679, Note_off_c, 1, 80, 0
1, 73680, Note_on_c, 1, 70, 127
1, 73680, Note_on_c, 1, 48, 127
1, 73680, Note_on_c, 1, 76, 127
1, 73680, Note_on_c, 1, 67, 127
1, 73680, Note_on_c, 1, 36, 127
1, 73709, Note_off_c, 1, 70, 0
1, 73710, Note_on_c, 1, 79, 127
1, 73739, Note_off_c, 1, 48, 0
1, 73739, Note_off_c, 1, 76, 0
1, 73739, Note_off_c, 1, 67, 0
1, 73739, Note_off_c, 1, 36, 0
1, 73739, Note_off_c, 1, 79, 0
1, 73740, Note_on_c, 1, 68, 127
1, 73740, Note_on_c, 1, 48, 127
1, 73740, Note_on_c, 1, 72, 127
1, 73740, Note_on_c, 1, 77, 127
1, 73740, Note_on_c, 1, 65, 127
1, 73769, Note_off_c, 1, 68, 0
1, 73799, Note_off_c, 1, 48, 0
1, 73799, Note_off_c, 1, 72, 0
1, 73799, Note_off_c, 1, 77, 0
1, 73799, Note_off_c, 1, 65, 0
1, 73800, Note_on_c, 1, 48, 127
1, 73800, Note_on_c, 1, 66, 127
1, 73800, Note_on_c, 1, 70, 127
1, 73800, Note_on_c, 1, 73, 127
1, 73800, Note_on_c, 1, 36, 127
1, 73829, Note_off_c, 1, 66, 0
1, 73859, Note_off_c, 1, 70, 0
1, 73859, Note_off_c, 1, 73, 0
1, 73859, Note_off_c, 1, 36, 0
1, 73860, Note_on_c, 1, 64, 127
1, 73860, Note_on_c, 1, 79, 127
1, 73889, Note_off_c, 1, 64, 0
1, 73890, Note_on_c, 1, 65, 127
1, 73919, Note_off_c, 1, 48, 0
1, 73919, Note_off_c, 1, 79, 0
1, 73919, Note_off_c, 1, 65, 0
1, 73920, Note_on_c, 1, 59, 127
1, 73920, Note_on_c, 1, 48, 127
1, 73920, Note_on_c, 1, 77, 127
1, 73920, Note_on_c, 1, 68, 127
1, 73920, Note_on_c, 1, 74, 127
1, 73949, Note_off_c, 1, 59, 0
1, 73950, Note_on_c, 1, 60, 127
1, 73979, Note_off_c, 1, 48, 0
1, 73979, Note_off_c, 1, 77, 0
1, 73979, Note_off_c, 1, 68, 0
1, 73979, Note_off_c, 1, 74, 0
1, 73979, Note_off_c, 1, 60, 0
1, 73980, Note_on_c, 1, 48, 127
1, 73980, Note_on_c, 1, 76, 127
1, 73980, Note_on_c, 1, 67, 127
1, 73980, Note_on_c, 1, 36, 127
1, 74010, Note_on_c, 1, 80, 127
1, 74039, Note_off_c, 1, 48, 0
1, 74039, Note_off_c, 1, 76, 0
1, 74039, Note_off_c, 1, 67, 0
1, 74039, Note_off_c, 1, 36, 0
1, 74039, Note_off_c, 1, 80, 0
1, 74040, Note_on_c, 1, 79, 127
1, 74040, Note_on_c, 1, 48, 127
1, 74040, Note_on_c, 1, 76, 127
1, 74040, Note_on_c, 1, 72, 127
1, 74040, Note_on_c, 1, 36, 127
1, 74069, Note_off_c, 1, 79, 0
1, 74070, Note_on_c, 1, 82, 127
1, 74099, Note_off_c, 1, 48, 0
1, 74099, Note_off_c, 1, 76, 0
1, 74099, Note_off_c, 1, 72, 0
1, 74099, Note_off_c, 1, 36, 0
1, 74099, Note_off_c, 1, 82, 0
1, 74100, Note_on_c, 1, 76, 127
1, 74100, Note_on_c, 1, 48, 127
1, 74100, Note_on_c, 1, 72, 127
1, 74100, Note_on_c, 1, 67, 127
1, 74100, Note_on_c, 1, 79, 127
1, 74100, Note_on_c, 1, 70, 127
1, 74129, Note_off_c, 1, 76, 0
1, 74130, Note_on_c, 1, 77, 127
1, 74159, Note_off_c, 1, 48, 0
1, 74159, Note_off_c, 1, 72, 0
1, 74159, Note_off_c, 1, 67, 0
1, 74159, Note_off_c, 1, 79, 0
1, 74159, Note_off_c, 1, 70, 0
1, 74159, Note_off_c, 1, 77, 0
1, 74160, Note_on_c, 1, 49, 127
1, 74160, Note_on_c, 1, 65, 127
1, 74160, Note_on_c, 1, 77, 127
1, 74160, Note_on_c, 1, 68, 127
1, 74160, Note_on_c, 1, 37, 127
1, 74189, Note_off_c, 1, 65, 0
1, 74219, Note_off_c, 1, 77, 0
1, 74219, Note_off_c, 1, 68, 0
1, 74219, Note_off_c, 1, 37, 0
1, 74220, Note_on_c, 1, 80, 127
1, 74220, Note_on_c, 1, 72, 127
1, 74249, Note_off_c, 1, 80, 0
1, 74279, Note_off_c, 1, 49, 0
1, 74279, Note_off_c, 1, 72, 0
1, 74280, Note_on_c, 1, 76, 127
1, 74280, Note_on_c, 1, 49, 127
1, 74280, Note_on_c, 1, 72, 127
1, 74280, Note_on_c, 1, 68, 127
1, 74280, Note_on_c, 1, 65, 127
1, 74309, Note_off_c, 1, 76, 0
1, 74310, Note_on_c, 1, 77, 127
1, 74339, Note_off_c, 1, 49, 0
1, 74339, Note_off_c, 1, 72, 0
1, 74339, Note_off_c, 1, 68, 0
1, 74339, Note_off_c, 1, 65, 0
1, 74339, Note_off_c, 1, 77, 0
1, 74340, Note_on_c, 1, 50, 127
1, 74340, Note_on_c, 1, 71, 127
1, 74340, Note_on_c, 1, 62, 127
1, 74340, Note_on_c, 1, 65, 127
1, 74340, Note_on_c, 1, 38, 127
1, 74369, Note_off_c, 1, 71, 0
1, 74370, Note_on_c, 1, 74, 127
1, 74399, Note_off_c, 1, 62, 0
1, 74399, Note_off_c, 1, 65, 0
1, 74399, Note_off_c, 1, 38, 0
1, 74399, Note_off_c, 1, 74, 0
1, 74400, Note_on_c, 1, 77, 127
1, 74400, Note_on_c, 1, 68, 127
1, 74429, Note_off_c, 1, 77, 0
1, 74430, Note_on_c, 1, 80, 127
1, 74459, Note_off_c, 1, 50, 0
1, 74459, Note_off_c, 1, 68, 0
1, 74459, Note_off_c, 1, 80, 0
1, 74460, Note_on_c, 1, 79, 127
1, 74460, Note_on_c, 1, 50, 127
1, 74460, Note_on_c, 1, 68, 127
1, 74460, Note_on_c, 1, 71, 127
1, 74460, Note_on_c, 1, 65, 127
1, 74460, Note_on_c, 1, 62, 127
1, 74489, Note_off_c, 1, 79, 0
1, 74490, Note_on_c, 1, 77, 127
1, 74519, Note_off_c, 1, 50, 0
1, 74519, Note_off_c, 1, 68, 0
1, 74519, Note_off_c, 1, 71, 0
1, 74519, Note_off_c, 1, 65, 0
1, 74519, Note_off_c, 1, 62, 0
1, 74519, Note_off_c, 1, 77, 0
1, 74520, Note_on_c, 1, 52, 127
1, 74520, Note_on_c, 1, 82, 127
1, 74520, Note_on_c, 1, 67, 127
1, 74520, Note_on_c, 1, 60, 127
1, 74520, Note_on_c, 1, 40, 127
1, 74549, Note_off_c, 1, 82, 0
1, 74550, Note_on_c, 1, 79, 127
1, 74579, Note_off_c, 1, 67, 0
1, 74579, Note_off_c, 1, 60, 0
1, 74579, Note_off_c, 1, 40, 0
1, 74579, Note_off_c, 1, 79, 0
1, 74580, Note_on_c, 1, 76, 127
1, 74580, Note_on_c, 1, 72, 127
1, 74609, Note_off_c, 1, 76, 0
1, 74639, Note_off_c, 1, 52, 0
1, 74639, Note_off_c, 1, 72, 0
1, 74640, Note_on_c, 1, 53, 127
1, 74640, Note_on_c, 1, 81, 127
1, 74640, Note_on_c, 1, 65, 127
1, 74640, Note_on_c, 1, 72, 127
1, 74640, Note_on_c, 1, 41, 127
1, 74640, Note_on_c, 1, 60, 127
1, 74640, Note_on_c, 1, 69, 127
1, 74669, Note_off_c, 1, 81, 0
1, 74670, Note_on_c, 1, 77, 127
1, 74699, Note_off_c, 1, 53, 0
1, 74699, Note_off_c, 1, 65, 0
1, 74699, Note_off_c, 1, 72, 0
1, 74699, Note_off_c, 1, 41, 0
1, 74699, Note_off_c, 1, 60, 0
1, 74699, Note_off_c, 1, 69, 0
1, 74699, Note_off_c, 1, 77, 0
1, 74700, Note_on_c, 1, 46, 127
1, 74700, Note_on_c, 1, 74, 127
1, 74700, Note_on_c, 1, 58, 127
1, 74700, Note_on_c, 1, 67, 127
1, 74700, Note_on_c, 1, 62, 127
1, 74729, Note_off_c, 1, 74, 0
1, 74730, Note_on_c, 1, 79, 127
1, 74759, Note_off_c, 1, 46, 0
1, 74759, Note_off_c, 1, 58, 0
1, 74759, Note_off_c, 1, 67, 0
1, 74759, Note_off_c, 1, 62, 0
1, 74759, Note_off_c, 1, 79, 0
1, 74760, Note_on_c, 1, 48, 127
1, 74760, Note_on_c, 1, 77, 127
1, 74760, Note_on_c, 1, 60, 127
1, 74760, Note_on_c, 1, 69, 127
1, 74760, Note_on_c, 1, 72, 127
1, 74789, Note_off_c, 1, 77, 0
1, 74790, Note_on_c, 1, 76, 127
1, 74819, Note_off_c, 1, 48, 0
1, 74819, Note_off_c, 1, 60, 0
1, 74819, Note_off_c, 1, 69, 0
1, 74819, Note_off_c, 1, 72, 0
1, 74819, Note_off_c, 1, 76, 0
1, 74820, Note_on_c, 1, 36, 127
1, 74820, Note_on_c, 1, 77, 127
1, 74820, Note_on_c, 1, 48, 127
1, 74820, Note_on_c, 1, 67, 127
1, 74820, Note_on_c, 1, 70, 127
1, 74820, Note_on_c, 1, 60, 127
1, 74849, Note_off_c, 1, 77, 0
1, 74850, Note_on_c, 1, 76, 127
1, 74879, Note_off_c, 1, 36, 0
1, 74879, Note_off_c, 1, 48, 0
1, 74879, Note_off_c, 1, 67, 0
1, 74879, Note_off_c, 1, 70, 0
1, 74879, Note_off_c, 1, 60, 0
1, 74880, Note_on_c, 1, 41, 127
1, 74880, Note_on_c, 1, 53, 127
1, 74880, Note_on_c, 1, 69, 127
1, 74909, Note_off_c, 1, 76, 0
1, 74939, Note_off_c, 1, 69, 0
1, 74940, Note_on_c, 1, 64, 127
1, 74999, Note_off_c, 1, 64, 0
1, 75000, Note_on_c, 1, 72, 127
1, 75000, Note_on_c, 1, 65, 127
1, 75059, Note_off_c, 1, 72, 0
1, 75059, Note_off_c, 1, 65, 0
1, 75060, Note_on_c, 1, 57, 127
1, 75120, Note_on_c, 1, 45, 127
1, 75149, Note_off_c, 1, 45, 0
1, 75179, Note_off_c, 1, 57, 0
1, 75180, Note_off_c, 1, 53, 0
1, 75239, Note_off_c, 1, 41, 0
1, 75250, Note_on_c, 1, 70, 127
1, 75259, Note_off_c, 1, 70, 0
1, 75260, Note_on_c, 1, 72, 127
1, 75269, Note_off_c, 1, 72, 0
1, 75270, Note_on_c, 1, 69, 127
1, 75279, Note_off_c, 1, 69, 0
1, 75280, Note_on_c, 1, 70, 127
1, 75289, Note_off_c, 1, 70, 0
1, 75290, Note_on_c, 1, 72, 127
1, 75299, Note_off_c, 1, 72, 0
1, 75300, Note_on_c, 1, 74, 127
1, 75309, Note_off_c, 1, 74, 0
1, 75310, Note_on_c, 1, 76, 127
1, 75319, Note_off_c, 1, 76, 0
1, 75320, Note_on_c, 1, 77, 127
1, 75329, Note_off_c, 1, 77, 0
1, 75330, Note_on_c, 1, 72, 127
1, 75339, Note_off_c, 1, 72, 0
1, 75340, Note_on_c, 1, 74, 127
1, 75349, Note_off_c, 1, 74, 0
1, 75350, Note_on_c, 1, 76, 127
1, 75359, Note_off_c, 1, 76, 0
1, 75360, Note_on_c, 1, 77, 127
1, 75369, Note_off_c, 1, 77, 0
1, 75370, Note_on_c, 1, 79, 127
1, 75379, Note_off_c, 1, 79, 0
1, 75380, Note_on_c, 1, 81, 127
1, 75389, Note_off_c, 1, 81, 0
1, 75390, Note_on_c, 1, 76, 127
1, 75399, Note_off_c, 1, 76, 0
1, 75400, Note_on_c, 1, 77, 127
1, 75409, Note_off_c, 1, 77, 0
1, 75410, Note_on_c, 1, 79, 127
1, 75419, Note_off_c, 1, 79, 0
1, 75420, Note_on_c, 1, 81, 127
1, 75429, Note_off_c, 1, 81, 0
1, 75430, Note_on_c, 1, 82, 127
1, 75439, Note_off_c, 1, 82, 0
1, 75440, Note_on_c, 1, 84, 127
1, 75449, Note_off_c, 1, 84, 0
1, 75450, Note_on_c, 1, 86, 127
1, 75459, Note_off_c, 1, 86, 0
1, 75460, Note_on_c, 1, 84, 127
1, 75469, Note_off_c, 1, 84, 0
1, 75470, Note_on_c, 1, 82, 127
1, 75479, Note_off_c, 1, 82, 0
1, 75480, Note_on_c, 1, 81, 127
1, 75489, Note_off_c, 1, 81, 0
1, 75490, Note_on_c, 1, 82, 127
1, 75499, Note_off_c, 1, 82, 0
1, 75500, Note_on_c, 1, 81, 127
1, 75509, Note_off_c, 1, 81, 0
1, 75510, Note_on_c, 1, 79, 127
1, 75519, Note_off_c, 1, 79, 0
1, 75520, Note_on_c, 1, 77, 127
1, 75529, Note_off_c, 1, 77, 0
1, 75530, Note_on_c, 1, 76, 127
1, 75539, Note_off_c, 1, 76, 0
1, 75540, Note_on_c, 1, 77, 127
1, 75549, Note_off_c, 1, 77, 0
1, 75550, Note_on_c, 1, 79, 127
1, 75559, Note_off_c, 1, 79, 0
1, 75560, Note_on_c, 1, 77, 127
1, 75569, Note_off_c, 1, 77, 0
1, 75570, Note_on_c, 1, 76, 127
1, 75579, Note_off_c, 1, 76, 0
1, 75580, Note_on_c, 1, 74, 127
1, 75589, Note_off_c, 1, 74, 0
1, 75590, Note_on_c, 1, 73, 127
1, 75599, Note_off_c, 1, 73, 0
1, 75600, Note_on_c, 1, 74, 127
1, 75609, Note_off_c, 1, 74, 0
1, 75610, Note_on_c, 1, 70, 127
1, 75619, Note_off_c, 1, 70, 0
1, 75620, Note_on_c, 1, 69, 127
1, 75629, Note_off_c, 1, 69, 0
1, 75630, Note_on_c, 1, 67, 127
1, 75639, Note_off_c, 1, 67, 0
1, 75640, Note_on_c, 1, 65, 127
1, 75649, Note_off_c, 1, 65, 0
1, 75650, Note_on_c, 1, 64, 127
1, 75659, Note_off_c, 1, 64, 0
1, 75660, Note_on_c, 1, 65, 127
1, 75669, Note_off_c, 1, 65, 0
1, 75670, Note_on_c, 1, 67, 127
1, 75679, Note_off_c, 1, 67, 0
1, 75680, Note_on_c, 1, 65, 127
1, 75689, Note_off_c, 1, 65, 0
1, 75690, Note_on_c, 1, 64, 127
1, 75699, Note_off_c, 1, 64, 0
1, 75700, Note_on_c, 1, 62, 127
1, 75709, Note_off_c, 1, 62, 0
1, 75710, Note_on_c, 1, 61, 127
1, 75719, Note_off_c, 1, 61, 0
1, 75720, Note_on_c, 1, 62, 127
1, 75729, Note_off_c, 1, 62, 0
1, 75730, Note_on_c, 1, 65, 127
1, 75739, Note_off_c, 1, 65, 0
1, 75740, Note_on_c, 1, 64, 127
1, 75749, Note_off_c, 1, 64, 0
1, 75750, Note_on_c, 1, 62, 127
1, 75759, Note_off_c, 1, 62, 0
1, 75760, Note_on_c, 1, 61, 127
1, 75769, Note_off_c, 1, 61, 0
1, 75770, Note_on_c, 1, 62, 127
1, 75779, Note_off_c, 1, 62, 0
1, 75780, Note_on_c, 1, 57, 127
1, 75789, Note_off_c, 1, 57, 0
1, 75790, Note_on_c, 1, 62, 127
1, 75799, Note_off_c, 1, 62, 0
1, 75800, Note_on_c, 1, 60, 127
1, 75809, Note_off_c, 1, 60, 0
1, 75810, Note_on_c, 1, 58, 127
1, 75819, Note_off_c, 1, 58, 0
1, 75820, Note_on_c, 1, 57, 127
1, 75829, Note_off_c, 1, 57, 0
1, 75830, Note_on_c, 1, 55, 127
1, 75839, Note_off_c, 1, 55, 0
1, 75840, Note_on_c, 1, 53, 127
1, 75849, Note_off_c, 1, 53, 0
1, 75850, Note_on_c, 1, 58, 127
1, 75859, Note_off_c, 1, 58, 0
1, 75860, Note_on_c, 1, 57, 127
1, 75869, Note_off_c, 1, 57, 0
1, 75870, Note_on_c, 1, 55, 127
1, 75879, Note_off_c, 1, 55, 0
1, 75880, Note_on_c, 1, 53, 127
1, 75889, Note_off_c, 1, 53, 0
1, 75890, Note_on_c, 1, 52, 127
1, 75899, Note_off_c, 1, 52, 0
1, 75900, Note_on_c, 1, 50, 127
1, 75909, Note_off_c, 1, 50, 0
1, 75910, Note_on_c, 1, 53, 127
1, 75919, Note_off_c, 1, 53, 0
1, 75920, Note_on_c, 1, 52, 127
1, 75929, Note_off_c, 1, 52, 0
1, 75930, Note_on_c, 1, 50, 127
1, 75939, Note_off_c, 1, 50, 0
1, 75940, Note_on_c, 1, 49, 127
1, 75949, Note_off_c, 1, 49, 0
1, 75950, Note_on_c, 1, 50, 127
1, 75959, Note_off_c, 1, 50, 0
1, 75960, Note_on_c, 1, 46, 127
1, 76140, Note_on_c, 1, 74, 127
1, 76140, Note_on_c, 1, 65, 127
1, 76140, Note_on_c, 1, 69, 127
1, 76140, Note_on_c, 1, 62, 127
1, 76150, Note_off_c, 1, 74, 0
1, 76150, Note_on_c, 1, 76, 127
1, 76160, Note_off_c, 1, 76, 0
1, 76170, Note_on_c, 1, 67, 127
1, 76200, Note_off_c, 1, 65, 0
1, 76200, Note_on_c, 1, 64, 127
1, 76210, Note_off_c, 1, 69, 0
1, 76290, Note_off_c, 1, 64, 0
1, 76290, Note_on_c, 1, 72, 127
1, 76305, Note_off_c, 1, 72, 0
1, 76320, Note_off_c, 1, 46, 0
1, 76320, Note_off_c, 1, 62, 0
1, 76320, Note_off_c, 1, 67, 0
1, 76320, Note_on_c, 1, 73, 127
1, 76320, Note_on_c, 1, 45, 127
1, 76320, Note_on_c, 1, 61, 127
1, 76320, Note_on_c, 1, 57, 127
1, 76680, Note_off_c, 1, 73, 0
1, 76680, Note_off_c, 1, 45, 0
1, 76680, Note_off_c, 1, 61, 0
1, 76680, Note_off_c, 1, 57, 0
1, 77040, Note_on_c, 1, 69, 127
1, 77040, Note_on_c, 1, 50, 127
1, 77099, Note_off_c, 1, 69, 0
1, 77099, Note_off_c, 1, 50, 0
1, 77100, Note_on_c, 1, 74, 127
1, 77160, Note_on_c, 1, 52, 127
1, 77219, Note_off_c, 1, 74, 0
1, 77219, Note_off_c, 1, 52, 0
1, 77220, Note_on_c, 1, 73, 127
1, 77279, Note_off_c, 1, 73, 0
1, 77280, Note_on_c, 1, 74, 127
1, 77280, Note_on_c, 1, 53, 127
1, 77339, Note_off_c, 1, 74, 0
1, 77339, Note_off_c, 1, 53, 0
1, 77340, Note_on_c, 1, 76, 127
1, 77400, Note_on_c, 1, 55, 127
1, 77459, Note_off_c, 1, 76, 0
1, 77459, Note_off_c, 1, 55, 0
1, 77460, Note_on_c, 1, 77, 127
1, 77520, Note_on_c, 1, 57, 127
1, 77579, Note_off_c, 1, 77, 0
1, 77579, Note_off_c, 1, 57, 0
1, 77580, Note_on_c, 1, 76, 127
1, 77580, Note_on_c, 1, 58, 127
1, 77609, Note_off_c, 1, 76, 0
1, 77610, Note_on_c, 1, 74, 127
1, 77639, Note_off_c, 1, 58, 0
1, 77639, Note_off_c, 1, 74, 0
1, 77640, Note_on_c, 1, 77, 127
1, 77640, Note_on_c, 1, 55, 127
1, 77669, Note_off_c, 1, 77, 0
1, 77670, Note_on_c, 1, 76, 127
1, 77699, Note_off_c, 1, 55, 0
1, 77699, Note_off_c, 1, 76, 0
1, 77700, Note_on_c, 1, 74, 127
1, 77700, Note_on_c, 1, 57, 127
1, 77729, Note_off_c, 1, 74, 0
1, 77730, Note_on_c, 1, 73, 127
1, 77759, Note_off_c, 1, 57, 0
1, 77759, Note_off_c, 1, 73, 0
1, 77760, Note_on_c, 1, 74, 127
1, 77760, Note_on_c, 1, 62, 127
1, 77819, Note_off_c, 1, 74, 0
1, 77819, Note_off_c, 1, 62, 0
1, 77820, Note_on_c, 1, 76, 127
1, 77820, Note_on_c, 1, 59, 127
1, 77849, Note_off_c, 1, 76, 0
1, 77850, Note_on_c, 1, 77, 127
1, 77879, Note_off_c, 1, 59, 0
1, 77879, Note_off_c, 1, 77, 0
1, 77880, Note_on_c, 1, 76, 127
1, 77880, Note_on_c, 1, 56, 127
1, 77909, Note_off_c, 1, 76, 0
1, 77910, Note_on_c, 1, 74, 127
1, 77939, Note_off_c, 1, 56, 0
1, 77939, Note_off_c, 1, 74, 0
1, 77940, Note_on_c, 1, 72, 127
1, 77940, Note_on_c, 1, 52, 127
1, 77969, Note_off_c, 1, 72, 0
1, 77970, Note_on_c, 1, 71, 127
1, 77999, Note_off_c, 1, 52, 0
1, 77999, Note_off_c, 1, 71, 0
1, 78000, Note_on_c, 1, 76, 127
1, 78000, Note_on_c, 1, 72, 127
1, 78000, Note_on_c, 1, 57, 127
1, 78029, Note_off_c, 1, 72, 0
1, 78030, Note_on_c, 1, 74, 127
1, 78059, Note_off_c, 1, 76, 0
1, 78059, Note_off_c, 1, 74, 0
1, 78060, Note_on_c, 1, 81, 127
1, 78060, Note_on_c, 1, 71, 127
1, 78089, Note_off_c, 1, 57, 0
1, 78089, Note_off_c, 1, 71, 0
1, 78090, Note_on_c, 1, 69, 127
1, 78119, Note_off_c, 1, 69, 0
1, 78120, Note_on_c, 1, 59, 127
1, 78120, Note_on_c, 1, 65, 127
1, 78149, Note_off_c, 1, 65, 0
1, 78150, Note_on_c, 1, 64, 127
1, 78179, Note_off_c, 1, 81, 0
1, 78179, Note_off_c, 1, 59, 0
1, 78179, Note_off_c, 1, 64, 0
1, 78180, Note_on_c, 1, 80, 127
1, 78180, Note_on_c, 1, 72, 127
1, 78180, Note_on_c, 1, 65, 127
1, 78209, Note_off_c, 1, 72, 0
1, 78209, Note_off_c, 1, 65, 0
1, 78210, Note_on_c, 1, 74, 127
1, 78210, Note_on_c, 1, 62, 127
1, 78239, Note_off_c, 1, 80, 0
1, 78239, Note_off_c, 1, 74, 0
1, 78239, Note_off_c, 1, 62, 0
1, 78240, Note_on_c, 1, 81, 127
1, 78240, Note_on_c, 1, 76, 127
1, 78240, Note_on_c, 1, 60, 127
1, 78240, Note_on_c, 1, 69, 127
1, 78269, Note_off_c, 1, 76, 0
1, 78269, Note_off_c, 1, 69, 0
1, 78270, Note_on_c, 1, 72, 127
1, 78270, Note_on_c, 1, 64, 127
1, 78299, Note_off_c, 1, 81, 0
1, 78299, Note_off_c, 1, 60, 0
1, 78299, Note_off_c, 1, 72, 0
1, 78299, Note_off_c, 1, 64, 0
1, 78300, Note_on_c, 1, 83, 127
1, 78300, Note_on_c, 1, 71, 127
1, 78300, Note_on_c, 1, 62, 127
1, 78329, Note_off_c, 1, 71, 0
1, 78329, Note_off_c, 1, 62, 0
1, 78330, Note_on_c, 1, 69, 127
1, 78330, Note_on_c, 1, 60, 127
1, 78359, Note_off_c, 1, 69, 0
1, 78359, Note_off_c, 1, 60, 0
1, 78360, Note_on_c, 1, 77, 127
1, 78360, Note_on_c, 1, 59, 127
1, 78389, Note_off_c, 1, 77, 0
1, 78389, Note_off_c, 1, 59, 0
1, 78390, Note_on_c, 1, 74, 127
1, 78390, Note_on_c, 1, 65, 127
1, 78419, Note_off_c, 1, 83, 0
1, 78419, Note_off_c, 1, 74, 0
1, 78419, Note_off_c, 1, 65, 0
1, 78420, Note_on_c, 1, 84, 127
1, 78420, Note_on_c, 1, 72, 127
1, 78420, Note_on_c, 1, 64, 127
1, 78449, Note_off_c, 1, 72, 0
1, 78449, Note_off_c, 1, 64, 0
1, 78450, Note_on_c, 1, 71, 127
1, 78450, Note_on_c, 1, 62, 127
1, 78479, Note_off_c, 1, 71, 0
1, 78479, Note_off_c, 1, 62, 0
1, 78480, Note_on_c, 1, 80, 127
1, 78480, Note_on_c, 1, 60, 127
1, 78509, Note_off_c, 1, 80, 0
1, 78509, Note_off_c, 1, 60, 0
1, 78510, Note_on_c, 1, 76, 127
1, 78539, Note_off_c, 1, 84, 0
1, 78539, Note_off_c, 1, 76, 0
1, 78540, Note_on_c, 1, 83, 127
1, 78540, Note_on_c, 1, 74, 127
1, 78540, Note_on_c, 1, 65, 127
1, 78540, Note_on_c, 1, 69, 127
1, 78569, Note_off_c, 1, 83, 0
1, 78569, Note_off_c, 1, 74, 0
1, 78570, Note_on_c, 1, 81, 127
1, 78570, Note_on_c, 1, 72, 127
1, 78599, Note_off_c, 1, 65, 0
1, 78599, Note_off_c, 1, 81, 0
1, 78599, Note_off_c, 1, 72, 0
1, 78600, Note_on_c, 1, 84, 127
1, 78600, Note_on_c, 1, 77, 127
1, 78600, Note_on_c, 1, 62, 127
1, 78629, Note_off_c, 1, 69, 0
1, 78629, Note_off_c, 1, 84, 0
1, 78629, Note_off_c, 1, 77, 0
1, 78659, Note_off_c, 1, 62, 0
1, 78660, Note_on_c, 1, 81, 127
1, 78660, Note_on_c, 1, 72, 127
1, 78660, Note_on_c, 1, 64, 127
1, 78689, Note_off_c, 1, 81, 0
1, 78689, Note_off_c, 1, 72, 0
1, 78690, Note_on_c, 1, 80, 127
1, 78690, Note_on_c, 1, 71, 127
1, 78690, Note_on_c, 1, 62, 127
1, 78719, Note_off_c, 1, 64, 0
1, 78719, Note_off_c, 1, 80, 0
1, 78719, Note_off_c, 1, 71, 0
1, 78719, Note_off_c, 1, 62, 0
1, 78720, Note_on_c, 1, 81, 127
1, 78720, Note_on_c, 1, 72, 127
1, 78720, Note_on_c, 1, 57, 127
1, 78720, Note_on_c, 1, 64, 127
1, 78749, Note_off_c, 1, 81, 0
1, 78749, Note_off_c, 1, 64, 0
1, 78750, Note_on_c, 1, 83, 127
1, 78750, Note_on_c, 1, 62, 127
1, 78779, Note_off_c, 1, 72, 0
1, 78779, Note_off_c, 1, 57, 0
1, 78779, Note_off_c, 1, 83, 0
1, 78779, Note_off_c, 1, 62, 0
1, 78780, Note_on_c, 1, 84, 127
1, 78780, Note_on_c, 1, 69, 127
1, 78780, Note_on_c, 1, 64, 127
1, 78780, Note_on_c, 1, 60, 127
1, 78809, Note_off_c, 1, 84, 0
1, 78809, Note_off_c, 1, 60, 0
1, 78810, Note_on_c, 1, 86, 127
1, 78810, Note_on_c, 1, 59, 127
1, 78839, Note_off_c, 1, 69, 0
1, 78839, Note_off_c, 1, 64, 0
1, 78839, Note_off_c, 1, 86, 0
1, 78839, Note_off_c, 1, 59, 0
1, 78840, Note_on_c, 1, 84, 127
1, 78840, Note_on_c, 1, 72, 127
1, 78840, Note_on_c, 1, 45, 127
1, 78840, Note_on_c, 1, 69, 127
1, 78840, Note_on_c, 1, 57, 127
1, 78869, Note_off_c, 1, 84, 0
1, 78869, Note_off_c, 1, 57, 0
1, 78870, Note_on_c, 1, 82, 127
1, 78870, Note_on_c, 1, 58, 127
1, 78899, Note_off_c, 1, 72, 0
1, 78899, Note_off_c, 1, 45, 0
1, 78899, Note_off_c, 1, 69, 0
1, 78899, Note_off_c, 1, 82, 0
1, 78899, Note_off_c, 1, 58, 0
1, 78900, Note_on_c, 1, 81, 127
1, 78900, Note_on_c, 1, 75, 127
1, 78900, Note_on_c, 1, 57, 127
1, 78900, Note_on_c, 1, 60, 127
1, 78929, Note_off_c, 1, 81, 0
1, 78929, Note_off_c, 1, 60, 0
1, 78930, Note_on_c, 1, 79, 127
1, 78959, Note_off_c, 1, 57, 0
1, 78959, Note_off_c, 1, 79, 0
1, 78960, Note_on_c, 1, 78, 127
1, 78960, Note_on_c, 1, 50, 127
1, 78960, Note_on_c, 1, 62, 127
1, 78960, Note_on_c, 1, 69, 127
1, 78989, Note_off_c, 1, 75, 0
1, 78989, Note_off_c, 1, 78, 0
1, 78990, Note_on_c, 1, 72, 127
1, 79019, Note_off_c, 1, 50, 0
1, 79019, Note_off_c, 1, 62, 0
1, 79019, Note_off_c, 1, 69, 0
1, 79019, Note_off_c, 1, 72, 0
1, 79020, Note_on_c, 1, 81, 127
1, 79020, Note_on_c, 1, 74, 127
1, 79020, Note_on_c, 1, 60, 127
1, 79020, Note_on_c, 1, 66, 127
1, 79049, Note_off_c, 1, 81, 0
1, 79049, Note_off_c, 1, 74, 0
1, 79050, Note_on_c, 1, 75, 127
1, 79079, Note_off_c, 1, 60, 0
1, 79079, Note_off_c, 1, 66, 0
1, 79079, Note_off_c, 1, 75, 0
1, 79080, Note_on_c, 1, 74, 127
1, 79080, Note_on_c, 1, 62, 127
1, 79080, Note_on_c, 1, 58, 127
1, 79080, Note_on_c, 1, 66, 127
1, 79109, Note_off_c, 1, 74, 0
1, 79110, Note_on_c, 1, 72, 127
1, 79139, Note_off_c, 1, 62, 0
1, 79139, Note_off_c, 1, 58, 0
1, 79139, Note_off_c, 1, 66, 0
1, 79139, Note_off_c, 1, 72, 0
1, 79140, Note_on_c, 1, 78, 127
1, 79140, Note_on_c, 1, 70, 127
1, 79140, Note_on_c, 1, 57, 127
1, 79140, Note_on_c, 1, 62, 127
1, 79169, Note_off_c, 1, 78, 0
1, 79169, Note_off_c, 1, 70, 0
1, 79170, Note_on_c, 1, 69, 127
1, 79199, Note_off_c, 1, 57, 0
1, 79199, Note_off_c, 1, 62, 0
1, 79199, Note_off_c, 1, 69, 0
1, 79200, Note_on_c, 1, 79, 127
1, 79200, Note_on_c, 1, 70, 127
1, 79200, Note_on_c, 1, 55, 127
1, 79200, Note_on_c, 1, 62, 127
1, 79229, Note_off_c, 1, 79, 0
1, 79229, Note_off_c, 1, 62, 0
1, 79230, Note_on_c, 1, 81, 127
1, 79230, Note_on_c, 1, 60, 127
1, 79259, Note_off_c, 1, 70, 0
1, 79259, Note_off_c, 1, 55, 0
1, 79259, Note_off_c, 1, 81, 0
1, 79259, Note_off_c, 1, 60, 0
1, 79260, Note_on_c, 1, 82, 127
1, 79260, Note_on_c, 1, 67, 127
1, 79260, Note_on_c, 1, 62, 127
1, 79260, Note_on_c, 1, 58, 127
1, 79289, Note_off_c, 1, 82, 0
1, 79289, Note_off_c, 1, 58, 0
1, 79290, Note_on_c, 1, 84, 127
1, 79290, Note_on_c, 1, 57, 127
1, 79319, Note_off_c, 1, 67, 0
1, 79319, Note_off_c, 1, 62, 0
1, 79319, Note_off_c, 1, 84, 0
1, 79319, Note_off_c, 1, 57, 0
1, 79320, Note_on_c, 1, 82, 127
1, 79320, Note_on_c, 1, 70, 127
1, 79320, Note_on_c, 1, 43, 127
1, 79320, Note_on_c, 1, 67, 127
1, 79320, Note_on_c, 1, 55, 127
1, 79349, Note_off_c, 1, 82, 0
1, 79349, Note_off_c, 1, 55, 0
1, 79350, Note_on_c, 1, 81, 127
1, 79350, Note_on_c, 1, 57, 127
1, 79379, Note_off_c, 1, 70, 0
1, 79379, Note_off_c, 1, 43, 0
1, 79379, Note_off_c, 1, 67, 0
1, 79379, Note_off_c, 1, 81, 0
1, 79379, Note_off_c, 1, 57, 0
1, 79380, Note_on_c, 1, 79, 127
1, 79380, Note_on_c, 1, 74, 127
1, 79380, Note_on_c, 1, 55, 127
1, 79380, Note_on_c, 1, 58, 127
1, 79409, Note_off_c, 1, 79, 0
1, 79409, Note_off_c, 1, 58, 0
1, 79410, Note_on_c, 1, 77, 127
1, 79439, Note_off_c, 1, 55, 0
1, 79439, Note_off_c, 1, 77, 0
1, 79440, Note_on_c, 1, 76, 127
1, 79440, Note_on_c, 1, 48, 127
1, 79440, Note_on_c, 1, 60, 127
1, 79440, Note_on_c, 1, 67, 127
1, 79469, Note_off_c, 1, 74, 0
1, 79469, Note_off_c, 1, 76, 0
1, 79470, Note_on_c, 1, 70, 127
1, 79499, Note_off_c, 1, 48, 0
1, 79499, Note_off_c, 1, 60, 0
1, 79499, Note_off_c, 1, 67, 0
1, 79499, Note_off_c, 1, 70, 0
1, 79500, Note_on_c, 1, 79, 127
1, 79500, Note_on_c, 1, 72, 127
1, 79500, Note_on_c, 1, 58, 127
1, 79500, Note_on_c, 1, 64, 127
1, 79529, Note_off_c, 1, 79, 0
1, 79529, Note_off_c, 1, 72, 0
1, 79530, Note_on_c, 1, 74, 127
1, 79559, Note_off_c, 1, 58, 0
1, 79559, Note_off_c, 1, 64, 0
1, 79559, Note_off_c, 1, 74, 0
1, 79560, Note_on_c, 1, 72, 127
1, 79560, Note_on_c, 1, 60, 127
1, 79560, Note_on_c, 1, 57, 127
1, 79560, Note_on_c, 1, 64, 127
1, 79589, Note_off_c, 1, 72, 0
1, 79590, Note_on_c, 1, 70, 127
1, 79619, Note_off_c, 1, 60, 0
1, 79619, Note_off_c, 1, 57, 0
1, 79619, Note_off_c, 1, 64, 0
1, 79619, Note_off_c, 1, 70, 0
1, 79620, Note_on_c, 1, 76, 127
1, 79620, Note_on_c, 1, 69, 127
1, 79620, Note_on_c, 1, 55, 127
1, 79620, Note_on_c, 1, 60, 127
1, 79649, Note_off_c, 1, 76, 0
1, 79649, Note_off_c, 1, 69, 0
1, 79650, Note_on_c, 1, 67, 127
1, 79679, Note_off_c, 1, 55, 0
1, 79679, Note_off_c, 1, 60, 0
1, 79679, Note_off_c, 1, 67, 0
1, 79680, Note_on_c, 1, 77, 127
1, 79680, Note_on_c, 1, 69, 127
1, 79680, Note_on_c, 1, 53, 127
1, 79680, Note_on_c, 1, 60, 127
1, 79709, Note_off_c, 1, 77, 0
1, 79709, Note_off_c, 1, 69, 0
1, 79710, Note_on_c, 1, 72, 127
1, 79739, Note_off_c, 1, 53, 0
1, 79739, Note_off_c, 1, 60, 0
1, 79739, Note_off_c, 1, 72, 0
1, 79740, Note_on_c, 1, 81, 127
1, 79740, Note_on_c, 1, 70, 127
1, 79740, Note_on_c, 1, 65, 127
1, 79769, Note_off_c, 1, 81, 0
1, 79769, Note_off_c, 1, 70, 0
1, 79770, Note_on_c, 1, 69, 127
1, 79799, Note_off_c, 1, 69, 0
1, 79800, Note_on_c, 1, 79, 127
1, 79800, Note_on_c, 1, 62, 127
1, 79829, Note_off_c, 1, 79, 0
1, 79859, Note_off_c, 1, 65, 0
1, 79859, Note_off_c, 1, 62, 0
1, 79860, Note_on_c, 1, 79, 127
1, 79860, Note_on_c, 1, 69, 127
1, 79860, Note_on_c, 1, 64, 127
1, 79889, Note_off_c, 1, 79, 0
1, 79889, Note_off_c, 1, 69, 0
1, 79890, Note_on_c, 1, 67, 127
1, 79919, Note_off_c, 1, 67, 0
1, 79920, Note_on_c, 1, 65, 127
1, 79920, Note_on_c, 1, 61, 127
1, 79949, Note_off_c, 1, 65, 0
1, 79979, Note_off_c, 1, 64, 0
1, 79979, Note_off_c, 1, 61, 0
1, 79980, Note_on_c, 1, 77, 127
1, 79980, Note_on_c, 1, 67, 127
1, 79980, Note_on_c, 1, 62, 127
1, 80009, Note_off_c, 1, 77, 0
1, 80009, Note_off_c, 1, 67, 0
1, 80010, Note_on_c, 1, 65, 127
1, 80039, Note_off_c, 1, 65, 0
1, 80040, Note_on_c, 1, 76, 127
1, 80040, Note_on_c, 1, 59, 127
1, 80069, Note_off_c, 1, 76, 0
1, 80099, Note_off_c, 1, 62, 0
1, 80099, Note_off_c, 1, 59, 0
1, 80100, Note_on_c, 1, 76, 127
1, 80100, Note_on_c, 1, 65, 127
1, 80100, Note_on_c, 1, 61, 127
1, 80129, Note_off_c, 1, 76, 0
1, 80129, Note_off_c, 1, 65, 0
1, 80130, Note_on_c, 1, 64, 127
1, 80159, Note_off_c, 1, 61, 0
1, 80159, Note_off_c, 1, 64, 0
1, 80160, Note_on_c, 1, 65, 127
1, 80160, Note_on_c, 1, 62, 127
1, 80189, Note_off_c, 1, 65, 0
1, 80190, Note_on_c, 1, 74, 127
1, 80219, Note_off_c, 1, 62, 0
1, 80219, Note_off_c, 1, 74, 0
1, 80220, Note_on_c, 1, 74, 127
1, 80220, Note_on_c, 1, 76, 127
1, 80220, Note_on_c, 1, 58, 127
1, 80220, Note_on_c, 1, 61, 127
1, 80249, Note_off_c, 1, 74, 0
1, 80249, Note_off_c, 1, 76, 0
1, 80249, Note_off_c, 1, 61, 0
1, 80250, Note_on_c, 1, 77, 127
1, 80250, Note_on_c, 1, 62, 127
1, 80279, Note_off_c, 1, 58, 0
1, 80279, Note_off_c, 1, 77, 0
1, 80279, Note_off_c, 1, 62, 0
1, 80280, Note_on_c, 1, 64, 127
1, 80280, Note_on_c, 1, 67, 127
1, 80280, Note_on_c, 1, 55, 127
1, 80309, Note_off_c, 1, 64, 0
1, 80309, Note_off_c, 1, 67, 0
1, 80310, Note_on_c, 1, 73, 127
1, 80310, Note_on_c, 1, 58, 127
1, 80339, Note_off_c, 1, 55, 0
1, 80339, Note_off_c, 1, 73, 0
1, 80339, Note_off_c, 1, 58, 0
1, 80340, Note_on_c, 1, 73, 127
1, 80340, Note_on_c, 1, 74, 127
1, 80340, Note_on_c, 1, 57, 127
1, 80369, Note_off_c, 1, 73, 0
1, 80369, Note_off_c, 1, 74, 0
1, 80370, Note_on_c, 1, 76, 127
1, 80370, Note_on_c, 1, 55, 127
1, 80399, Note_off_c, 1, 76, 0
1, 80399, Note_off_c, 1, 55, 0
1, 80400, Note_on_c, 1, 65, 127
1, 80400, Note_on_c, 1, 50, 127
1, 80400, Note_on_c, 1, 53, 127
1, 80429, Note_off_c, 1, 53, 0
1, 80430, Note_on_c, 1, 77, 127
1, 80430, Note_on_c, 1, 62, 127
1, 80459, Note_off_c, 1, 57, 0
1, 80459, Note_off_c, 1, 65, 0
1, 80459, Note_off_c, 1, 50, 0
1, 80459, Note_off_c, 1, 77, 0
1, 80459, Note_off_c, 1, 62, 0
1, 80460, Note_on_c, 1, 76, 127
1, 80460, Note_on_c, 1, 62, 127
1, 80460, Note_on_c, 1, 61, 127
1, 80489, Note_off_c, 1, 76, 0
1, 80489, Note_off_c, 1, 61, 0
1, 80490, Note_on_c, 1, 77, 127
1, 80519, Note_off_c, 1, 77, 0
1, 80520, Note_on_c, 1, 79, 127
1, 80520, Note_on_c, 1, 64, 127
1, 80520, Note_on_c, 1, 52, 127
1, 80520, Note_on_c, 1, 58, 127
1, 80520, Note_on_c, 1, 55, 127
1, 80549, Note_off_c, 1, 79, 0
1, 80549, Note_off_c, 1, 58, 0
1, 80550, Note_on_c, 1, 81, 127
1, 80550, Note_on_c, 1, 57, 127
1, 80579, Note_off_c, 1, 62, 0
1, 80579, Note_off_c, 1, 64, 0
1, 80579, Note_off_c, 1, 52, 0
1, 80579, Note_off_c, 1, 55, 0
1, 80579, Note_off_c, 1, 81, 0
1, 80579, Note_off_c, 1, 57, 0
1, 80580, Note_on_c, 1, 77, 127
1, 80580, Note_on_c, 1, 61, 127
1, 80580, Note_on_c, 1, 58, 127
1, 80609, Note_off_c, 1, 77, 0
1, 80609, Note_off_c, 1, 58, 0
1, 80610, Note_on_c, 1, 79, 127
1, 80610, Note_on_c, 1, 55, 127
1, 80639, Note_off_c, 1, 61, 0
1, 80639, Note_off_c, 1, 79, 0
1, 80639, Note_off_c, 1, 55, 0
1, 80640, Note_on_c, 1, 81, 127
1, 80640, Note_on_c, 1, 62, 127
1, 80640, Note_on_c, 1, 53, 127
1, 80669, Note_off_c, 1, 81, 0
1, 80670, Note_on_c, 1, 77, 127
1, 80670, Note_on_c, 1, 57, 127
1, 80699, Note_off_c, 1, 62, 0
1, 80699, Note_off_c, 1, 53, 0
1, 80699, Note_off_c, 1, 77, 0
1, 80699, Note_off_c, 1, 57, 0
1, 80700, Note_on_c, 1, 76, 127
1, 80700, Note_on_c, 1, 64, 127
1, 80700, Note_on_c, 1, 55, 127
1, 80700, Note_on_c, 1, 58, 127
1, 80729, Note_off_c, 1, 76, 0
1, 80729, Note_off_c, 1, 55, 0
1, 80730, Note_on_c, 1, 74, 127
1, 80730, Note_on_c, 1, 53, 127
1, 80730, Note_on_c, 1, 57, 127
1, 80759, Note_off_c, 1, 74, 0
1, 80759, Note_off_c, 1, 53, 0
1, 80759, Note_off_c, 1, 57, 0
1, 80760, Note_off_c, 1, 58, 0
1, 80760, Note_on_c, 1, 82, 127
1, 80760, Note_on_c, 1, 67, 127
1, 80760, Note_on_c, 1, 52, 127
1, 80789, Note_off_c, 1, 82, 0
1, 80789, Note_off_c, 1, 52, 0
1, 80790, Note_on_c, 1, 79, 127
1, 80819, Note_off_c, 1, 64, 0
1, 80819, Note_off_c, 1, 67, 0
1, 80819, Note_off_c, 1, 79, 0
1, 80820, Note_on_c, 1, 77, 127
1, 80820, Note_on_c, 1, 65, 127
1, 80820, Note_on_c, 1, 57, 127
1, 80849, Note_off_c, 1, 77, 0
1, 80849, Note_off_c, 1, 57, 0
1, 80850, Note_on_c, 1, 76, 127
1, 80850, Note_on_c, 1, 55, 127
1, 80850, Note_on_c, 1, 58, 127
1, 80879, Note_off_c, 1, 76, 0
1, 80879, Note_off_c, 1, 55, 0
1, 80879, Note_off_c, 1, 58, 0
1, 80880, Note_on_c, 1, 85, 127
1, 80880, Note_on_c, 1, 53, 127
1, 80909, Note_off_c, 1, 85, 0
1, 80909, Note_off_c, 1, 53, 0
1, 80910, Note_on_c, 1, 81, 127
1, 80939, Note_off_c, 1, 65, 0
1, 80939, Note_off_c, 1, 81, 0
1, 80940, Note_on_c, 1, 79, 127
1, 80940, Note_on_c, 1, 70, 127
1, 80940, Note_on_c, 1, 64, 127
1, 80940, Note_on_c, 1, 58, 127
1, 80940, Note_on_c, 1, 62, 127
1, 80969, Note_off_c, 1, 79, 0
1, 80969, Note_off_c, 1, 64, 0
1, 80970, Note_on_c, 1, 77, 127
1, 80970, Note_on_c, 1, 57, 127
1, 80999, Note_off_c, 1, 58, 0
1, 80999, Note_off_c, 1, 77, 0
1, 80999, Note_off_c, 1, 57, 0
1, 81000, Note_on_c, 1, 82, 127
1, 81000, Note_on_c, 1, 65, 127
1, 81000, Note_on_c, 1, 55, 127
1, 81029, Note_off_c, 1, 62, 0
1, 81029, Note_off_c, 1, 82, 0
1, 81029, Note_off_c, 1, 65, 0
1, 81059, Note_off_c, 1, 70, 0
1, 81059, Note_off_c, 1, 55, 0
1, 81060, Note_on_c, 1, 77, 127
1, 81060, Note_on_c, 1, 69, 127
1, 81060, Note_on_c, 1, 62, 127
1, 81060, Note_on_c, 1, 57, 127
1, 81089, Note_off_c, 1, 77, 0
1, 81089, Note_off_c, 1, 62, 0
1, 81090, Note_on_c, 1, 76, 127
1, 81090, Note_on_c, 1, 61, 127
1, 81090, Note_on_c, 1, 55, 127
1, 81119, Note_off_c, 1, 57, 0
1, 81119, Note_off_c, 1, 76, 0
1, 81119, Note_off_c, 1, 61, 0
1, 81119, Note_off_c, 1, 55, 0
1, 81120, Note_on_c, 1, 50, 127
1, 81150, Note_on_c, 1, 83, 127
1, 81150, Note_on_c, 1, 53, 127
1, 81179, Note_off_c, 1, 69, 0
1, 81179, Note_off_c, 1, 50, 0
1, 81179, Note_off_c, 1, 83, 0
1, 81179, Note_off_c, 1, 53, 0
1, 81180, Note_on_c, 1, 84, 127
1, 81180, Note_on_c, 1, 68, 127
1, 81180, Note_on_c, 1, 64, 127
1, 81180, Note_on_c, 1, 59, 127
1, 81180, Note_on_c, 1, 52, 127
1, 81209, Note_off_c, 1, 84, 0
1, 81209, Note_off_c, 1, 68, 0
1, 81209, Note_off_c, 1, 64, 0
1, 81209, Note_off_c, 1, 52, 0
1, 81210, Note_on_c, 1, 86, 127
1, 81210, Note_on_c, 1, 69, 127
1, 81210, Note_on_c, 1, 65, 127
1, 81210, Note_on_c, 1, 50, 127
1, 81239, Note_off_c, 1, 59, 0
1, 81239, Note_off_c, 1, 86, 0
1, 81239, Note_off_c, 1, 69, 0
1, 81239, Note_off_c, 1, 65, 0
1, 81239, Note_off_c, 1, 50, 0
1, 81240, Note_on_c, 1, 74, 127
1, 81240, Note_on_c, 1, 71, 127
1, 81240, Note_on_c, 1, 64, 127
1, 81240, Note_on_c, 1, 56, 127
1, 81240, Note_on_c, 1, 59, 127
1, 81240, Note_on_c, 1, 44, 127
1, 81269, Note_off_c, 1, 74, 0
1, 81269, Note_off_c, 1, 64, 0
1, 81269, Note_off_c, 1, 59, 0
1, 81270, Note_on_c, 1, 80, 127
1, 81270, Note_on_c, 1, 62, 127
1, 81270, Note_on_c, 1, 52, 127
1, 81299, Note_off_c, 1, 71, 0
1, 81299, Note_off_c, 1, 56, 0
1, 81299, Note_off_c, 1, 44, 0
1, 81299, Note_off_c, 1, 80, 0
1, 81299, Note_off_c, 1, 62, 0
1, 81299, Note_off_c, 1, 52, 0
1, 81300, Note_on_c, 1, 81, 127
1, 81300, Note_on_c, 1, 69, 127
1, 81300, Note_on_c, 1, 60, 127
1, 81300, Note_on_c, 1, 52, 127
1, 81300, Note_on_c, 1, 54, 127
1, 81329, Note_off_c, 1, 81, 0
1, 81329, Note_off_c, 1, 69, 0
1, 81329, Note_off_c, 1, 60, 0
1, 81329, Note_off_c, 1, 54, 0
1, 81330, Note_on_c, 1, 83, 127
1, 81330, Note_on_c, 1, 68, 127
1, 81330, Note_on_c, 1, 59, 127
1, 81330, Note_on_c, 1, 56, 127
1, 81359, Note_off_c, 1, 52, 0
1, 81359, Note_off_c, 1, 83, 0
1, 81359, Note_off_c, 1, 68, 0
1, 81359, Note_off_c, 1, 59, 0
1, 81359, Note_off_c, 1, 56, 0
1, 81360, Note_on_c, 1, 72, 127
1, 81360, Note_on_c, 1, 69, 127
1, 81360, Note_on_c, 1, 52, 127
1, 81360, Note_on_c, 1, 60, 127
1, 81360, Note_on_c, 1, 45, 127
1, 81389, Note_off_c, 1, 69, 0
1, 81390, Note_on_c, 1, 76, 127
1, 81419, Note_off_c, 1, 72, 0
1, 81419, Note_off_c, 1, 52, 0
1, 81419, Note_off_c, 1, 60, 0
1, 81419, Note_off_c, 1, 45, 0
1, 81419, Note_off_c, 1, 76, 0
1, 81420, Note_on_c, 1, 77, 127
1, 81420, Note_on_c, 1, 57, 127
1, 81420, Note_on_c, 1, 71, 127
1, 81449, Note_off_c, 1, 77, 0
1, 81449, Note_off_c, 1, 71, 0
1, 81450, Note_on_c, 1, 76, 127
1, 81450, Note_on_c, 1, 72, 127
1, 81479, Note_off_c, 1, 76, 0
1, 81479, Note_off_c, 1, 72, 0
1, 81480, Note_on_c, 1, 74, 127
1, 81480, Note_on_c, 1, 47, 127
1, 81509, Note_off_c, 1, 74, 0
1, 81539, Note_off_c, 1, 47, 0
1, 81540, Note_off_c, 1, 57, 0
1, 81540, Note_on_c, 1, 56, 127
1, 81599, Note_off_c, 1, 56, 0
1, 81600, Note_on_c, 1, 72, 127
1, 81600, Note_on_c, 1, 57, 127
1, 81600, Note_on_c, 1, 48, 127
1, 81600, Note_on_c, 1, 76, 127
1, 81629, Note_off_c, 1, 72, 0
1, 81629, Note_off_c, 1, 76, 0
1, 81630, Note_on_c, 1, 69, 127
1, 81659, Note_off_c, 1, 57, 0
1, 81659, Note_off_c, 1, 48, 0
1, 81659, Note_off_c, 1, 69, 0
1, 81660, Note_on_c, 1, 68, 127
1, 81660, Note_on_c, 1, 74, 127
1, 81660, Note_on_c, 1, 59, 127
1, 81660, Note_on_c, 1, 71, 127
1, 81689, Note_off_c, 1, 68, 0
1, 81689, Note_off_c, 1, 74, 0
1, 81689, Note_off_c, 1, 71, 0
1, 81690, Note_on_c, 1, 69, 127
1, 81690, Note_on_c, 1, 72, 127
1, 81719, Note_off_c, 1, 69, 0
1, 81719, Note_off_c, 1, 72, 0
1, 81720, Note_on_c, 1, 50, 127
1, 81720, Note_on_c, 1, 77, 127
1, 81749, Note_off_c, 1, 77, 0
1, 81779, Note_off_c, 1, 50, 0
1, 81780, Note_off_c, 1, 59, 0
1, 81780, Note_on_c, 1, 76, 127
1, 81780, Note_on_c, 1, 60, 127
1, 81809, Note_off_c, 1, 76, 0
1, 81840, Note_on_c, 1, 52, 127
1, 81840, Note_on_c, 1, 80, 127
1, 81869, Note_off_c, 1, 80, 0
1, 81900, Note_off_c, 1, 60, 0
1, 81900, Note_off_c, 1, 52, 0
1, 81900, Note_on_c, 1, 81, 127
1, 81900, Note_on_c, 1, 53, 127
1, 81930, Note_on_c, 1, 57, 127
1, 81959, Note_off_c, 1, 81, 0
1, 81960, Note_off_c, 1, 53, 0
1, 81960, Note_off_c, 1, 57, 0
1, 82050, Note_on_c, 1, 56, 127
1, 82080, Note_off_c, 1, 56, 0
1, 82080, Note_on_c, 1, 45, 127
1, 82140, Note_off_c, 1, 45, 0
1, 82200, Note_on_c, 1, 81, 127
1, 82200, Note_on_c, 1, 76, 127
1, 82200, Note_on_c, 1, 57, 127
1, 82200, Note_on_c, 1, 72, 127
1, 82229, Note_off_c, 1, 76, 0
1, 82229, Note_off_c, 1, 57, 0
1, 82230, Note_on_c, 1, 74, 127
1, 82230, Note_on_c, 1, 59, 127
1, 82259, Note_off_c, 1, 81, 0
1, 82259, Note_off_c, 1, 72, 0
1, 82259, Note_off_c, 1, 74, 0
1, 82259, Note_off_c, 1, 59, 0
1, 82260, Note_on_c, 1, 81, 127
1, 82260, Note_on_c, 1, 76, 127
1, 82260, Note_on_c, 1, 60, 127
1, 82289, Note_off_c, 1, 60, 0
1, 82290, Note_on_c, 1, 77, 127
1, 82290, Note_on_c, 1, 62, 127
1, 82319, Note_off_c, 1, 81, 0
1, 82319, Note_off_c, 1, 76, 0
1, 82319, Note_off_c, 1, 77, 0
1, 82319, Note_off_c, 1, 62, 0
1, 82320, Note_on_c, 1, 81, 127
1, 82320, Note_on_c, 1, 71, 127
1, 82320, Note_on_c, 1, 64, 127
1, 82320, Note_on_c, 1, 76, 127
1, 82349, Note_off_c, 1, 64, 0
1, 82350, Note_on_c, 1, 62, 127
1, 82379, Note_off_c, 1, 81, 0
1, 82379, Note_off_c, 1, 71, 0
1, 82379, Note_off_c, 1, 76, 0
1, 82379, Note_off_c, 1, 62, 0
1, 82380, Note_on_c, 1, 79, 127
1, 82380, Note_on_c, 1, 71, 127
1, 82380, Note_on_c, 1, 64, 127
1, 82409, Note_off_c, 1, 79, 0
1, 82409, Note_off_c, 1, 64, 0
1, 82410, Note_on_c, 1, 77, 127
1, 82410, Note_on_c, 1, 65, 127
1, 82439, Note_off_c, 1, 71, 0
1, 82439, Note_off_c, 1, 77, 0
1, 82439, Note_off_c, 1, 65, 0
1, 82440, Note_on_c, 1, 76, 127
1, 82440, Note_on_c, 1, 79, 127
1, 82440, Note_on_c, 1, 67, 127
1, 82440, Note_on_c, 1, 71, 127
1, 82469, Note_off_c, 1, 76, 0
1, 82469, Note_off_c, 1, 67, 0
1, 82470, Note_on_c, 1, 74, 127
1, 82470, Note_on_c, 1, 65, 127
1, 82499, Note_off_c, 1, 79, 0
1, 82499, Note_off_c, 1, 71, 0
1, 82499, Note_off_c, 1, 74, 0
1, 82499, Note_off_c, 1, 65, 0
1, 82500, Note_on_c, 1, 72, 127
1, 82500, Note_on_c, 1, 79, 127
1, 82500, Note_on_c, 1, 67, 127
1, 82500, Note_on_c, 1, 76, 127
1, 82529, Note_off_c, 1, 72, 0
1, 82529, Note_off_c, 1, 67, 0
1, 82530, Note_on_c, 1, 70, 127
1, 82530, Note_on_c, 1, 64, 127
1, 82559, Note_off_c, 1, 79, 0
1, 82559, Note_off_c, 1, 76, 0
1, 82559, Note_off_c, 1, 70, 0
1, 82559, Note_off_c, 1, 64, 0
1, 82560, Note_on_c, 1, 69, 127
1, 82560, Note_on_c, 1, 79, 127
1, 82560, Note_on_c, 1, 65, 127
1, 82560, Note_on_c, 1, 72, 127
1, 82589, Note_off_c, 1, 65, 0
1, 82590, Note_on_c, 1, 58, 127
1, 82619, Note_off_c, 1, 69, 0
1, 82619, Note_off_c, 1, 79, 0
1, 82619, Note_off_c, 1, 72, 0
1, 82619, Note_off_c, 1, 58, 0
1, 82620, Note_on_c, 1, 72, 127
1, 82620, Note_on_c, 1, 77, 127
1, 82620, Note_on_c, 1, 57, 127
1, 82620, Note_on_c, 1, 65, 127
1, 82649, Note_off_c, 1, 77, 0
1, 82649, Note_off_c, 1, 57, 0
1, 82650, Note_on_c, 1, 76, 127
1, 82650, Note_on_c, 1, 55, 127
1, 82679, Note_off_c, 1, 72, 0
1, 82679, Note_off_c, 1, 65, 0
1, 82679, Note_off_c, 1, 76, 0
1, 82679, Note_off_c, 1, 55, 0
1, 82680, Note_on_c, 1, 77, 127
1, 82680, Note_on_c, 1, 74, 127
1, 82680, Note_on_c, 1, 53, 127
1, 82680, Note_on_c, 1, 69, 127
1, 82709, Note_off_c, 1, 74, 0
1, 82709, Note_off_c, 1, 53, 0
1, 82710, Note_on_c, 1, 72, 127
1, 82710, Note_on_c, 1, 55, 127
1, 82739, Note_off_c, 1, 77, 0
1, 82739, Note_off_c, 1, 69, 0
1, 82739, Note_off_c, 1, 72, 0
1, 82739, Note_off_c, 1, 55, 0
1, 82740, Note_on_c, 1, 77, 127
1, 82740, Note_on_c, 1, 70, 127
1, 82740, Note_on_c, 1, 57, 127
1, 82740, Note_on_c, 1, 72, 127
1, 82769, Note_off_c, 1, 70, 0
1, 82769, Note_off_c, 1, 57, 0
1, 82770, Note_on_c, 1, 69, 127
1, 82770, Note_on_c, 1, 58, 127
1, 82799, Note_off_c, 1, 77, 0
1, 82799, Note_off_c, 1, 72, 0
1, 82799, Note_off_c, 1, 69, 0
1, 82799, Note_off_c, 1, 58, 0
1, 82800, Note_on_c, 1, 77, 127
1, 82800, Note_on_c, 1, 67, 127
1, 82800, Note_on_c, 1, 60, 127
1, 82800, Note_on_c, 1, 72, 127
1, 82829, Note_off_c, 1, 60, 0
1, 82830, Note_on_c, 1, 58, 127
1, 82859, Note_off_c, 1, 77, 0
1, 82859, Note_off_c, 1, 67, 0
1, 82859, Note_off_c, 1, 72, 0
1, 82859, Note_off_c, 1, 58, 0
1, 82860, Note_on_c, 1, 76, 127
1, 82860, Note_on_c, 1, 67, 127
1, 82860, Note_on_c, 1, 60, 127
1, 82889, Note_off_c, 1, 76, 0
1, 82889, Note_off_c, 1, 60, 0
1, 82890, Note_on_c, 1, 74, 127
1, 82890, Note_on_c, 1, 62, 127
1, 82919, Note_off_c, 1, 67, 0
1, 82919, Note_off_c, 1, 74, 0
1, 82919, Note_off_c, 1, 62, 0
1, 82920, Note_on_c, 1, 72, 127
1, 82920, Note_on_c, 1, 76, 127
1, 82920, Note_on_c, 1, 64, 127
1, 82920, Note_on_c, 1, 67, 127
1, 82949, Note_off_c, 1, 72, 0
1, 82949, Note_off_c, 1, 64, 0
1, 82950, Note_on_c, 1, 70, 127
1, 82950, Note_on_c, 1, 62, 127
1, 82979, Note_off_c, 1, 76, 0
1, 82979, Note_off_c, 1, 67, 0
1, 82979, Note_off_c, 1, 70, 0
1, 82979, Note_off_c, 1, 62, 0
1, 82980, Note_on_c, 1, 69, 127
1, 82980, Note_on_c, 1, 76, 127
1, 82980, Note_on_c, 1, 64, 127
1, 83009, Note_off_c, 1, 69, 0
1, 83009, Note_off_c, 1, 64, 0
1, 83010, Note_on_c, 1, 73, 127
1, 83010, Note_on_c, 1, 61, 127
1, 83039, Note_off_c, 1, 76, 0
1, 83039, Note_off_c, 1, 73, 0
1, 83039, Note_off_c, 1, 61, 0
1, 83040, Note_on_c, 1, 65, 127
1, 83040, Note_on_c, 1, 76, 127
1, 83040, Note_on_c, 1, 62, 127
1, 83040, Note_on_c, 1, 69, 127
1, 83069, Note_off_c, 1, 62, 0
1, 83070, Note_on_c, 1, 55, 127
1, 83099, Note_off_c, 1, 65, 0
1, 83099, Note_off_c, 1, 76, 0
1, 83099, Note_off_c, 1, 69, 0
1, 83099, Note_off_c, 1, 55, 0
1, 83100, Note_on_c, 1, 69, 127
1, 83100, Note_on_c, 1, 74, 127
1, 83100, Note_on_c, 1, 53, 127
1, 83100, Note_on_c, 1, 62, 127
1, 83129, Note_off_c, 1, 74, 0
1, 83129, Note_off_c, 1, 53, 0
1, 83130, Note_on_c, 1, 72, 127
1, 83130, Note_on_c, 1, 52, 127
1, 83159, Note_off_c, 1, 69, 0
1, 83159, Note_off_c, 1, 62, 0
1, 83159, Note_off_c, 1, 72, 0
1, 83159, Note_off_c, 1, 52, 0
1, 83160, Note_on_c, 1, 74, 127
1, 83160, Note_on_c, 1, 70, 127
1, 83160, Note_on_c, 1, 50, 127
1, 83160, Note_on_c, 1, 65, 127
1, 83189, Note_off_c, 1, 70, 0
1, 83189, Note_off_c, 1, 50, 0
1, 83190, Note_on_c, 1, 69, 127
1, 83190, Note_on_c, 1, 52, 127
1, 83219, Note_off_c, 1, 74, 0
1, 83219, Note_off_c, 1, 65, 0
1, 83219, Note_off_c, 1, 69, 0
1, 83219, Note_off_c, 1, 52, 0
1, 83220, Note_on_c, 1, 74, 127
1, 83220, Note_on_c, 1, 67, 127
1, 83220, Note_on_c, 1, 53, 127
1, 83220, Note_on_c, 1, 69, 127
1, 83249, Note_off_c, 1, 67, 0
1, 83249, Note_off_c, 1, 53, 0
1, 83250, Note_on_c, 1, 65, 127
1, 83250, Note_on_c, 1, 55, 127
1, 83279, Note_off_c, 1, 74, 0
1, 83279, Note_off_c, 1, 69, 0
1, 83279, Note_off_c, 1, 65, 0
1, 83279, Note_off_c, 1, 55, 0
1, 83280, Note_on_c, 1, 73, 127
1, 83280, Note_on_c, 1, 64, 127
1, 83280, Note_on_c, 1, 57, 127
1, 83280, Note_on_c, 1, 45, 127
1, 83280, Note_on_c, 1, 70, 127
1, 83300, Note_off_c, 1, 70, 0
1, 83300, Note_on_c, 1, 69, 127
1, 83309, Note_off_c, 1, 73, 0
1, 83309, Note_off_c, 1, 64, 0
1, 83310, Note_on_c, 1, 76, 127
1, 83310, Note_on_c, 1, 67, 127
1, 83320, Note_off_c, 1, 69, 0
1, 83339, Note_off_c, 1, 57, 0
1, 83339, Note_off_c, 1, 45, 0
1, 83339, Note_off_c, 1, 76, 0
1, 83339, Note_off_c, 1, 67, 0
1, 83340, Note_on_c, 1, 74, 127
1, 83340, Note_on_c, 1, 65, 127
1, 83340, Note_on_c, 1, 50, 127
1, 83369, Note_off_c, 1, 74, 0
1, 83369, Note_off_c, 1, 65, 0
1, 83370, Note_on_c, 1, 77, 127
1, 83399, Note_off_c, 1, 77, 0
1, 83430, Note_on_c, 1, 79, 127
1, 83459, Note_off_c, 1, 50, 0
1, 83459, Note_off_c, 1, 79, 0
1, 83460, Note_on_c, 1, 49, 127
1, 83519, Note_off_c, 1, 49, 0
1, 83580, Note_on_c, 1, 52, 127
1, 83610, Note_on_c, 1, 71, 127
1, 83639, Note_off_c, 1, 71, 0
1, 83699, Note_off_c, 1, 52, 0
1, 83700, Note_on_c, 1, 53, 127
1, 83760, Note_on_c, 1, 81, 127
1, 83789, Note_off_c, 1, 81, 0
1, 83819, Note_off_c, 1, 53, 0
1, 84060, Note_on_c, 1, 74, 127
1, 84060, Note_on_c, 1, 77, 127
1, 84060, Note_on_c, 1, 69, 127
1, 84060, Note_on_c, 1, 62, 127
1, 84060, Note_on_c, 1, 57, 127
1, 84060, Note_on_c, 1, 38, 127
1, 84089, Note_off_c, 1, 74, 0
1, 84089, Note_off_c, 1, 77, 0
1, 84089, Note_off_c, 1, 69, 0
1, 84089, Note_off_c, 1, 62, 0
1, 84090, Note_on_c, 1, 76, 127
1, 84090, Note_on_c, 1, 79, 127
1, 84090, Note_on_c, 1, 70, 127
1, 84090, Note_on_c, 1, 61, 127
1, 84119, Note_off_c, 1, 57, 0
1, 84119, Note_off_c, 1, 38, 0
1, 84119, Note_off_c, 1, 76, 0
1, 84119, Note_off_c, 1, 79, 0
1, 84119, Note_off_c, 1, 70, 0
1, 84119, Note_off_c, 1, 61, 0
1, 84120, Note_on_c, 1, 77, 127
1, 84120, Note_on_c, 1, 69, 127
1, 84120, Note_on_c, 1, 62, 127
1, 84149, Note_off_c, 1, 69, 0
1, 84150, Note_on_c, 1, 76, 127
1, 84150, Note_on_c, 1, 67, 127
1, 84179, Note_off_c, 1, 77, 0
1, 84179, Note_off_c, 1, 62, 0
1, 84179, Note_off_c, 1, 76, 0
1, 84179, Note_off_c, 1, 67, 0
1, 84180, Note_on_c, 1, 81, 127
1, 84180, Note_on_c, 1, 74, 127
1, 84180, Note_on_c, 1, 65, 127
1, 84180, Note_on_c, 1, 50, 127
1, 84180, Note_on_c, 1, 57, 127
1, 84209, Note_off_c, 1, 74, 0
1, 84210, Note_on_c, 1, 72, 127
1, 84210, Note_on_c, 1, 64, 127
1, 84239, Note_off_c, 1, 65, 0
1, 84239, Note_off_c, 1, 50, 0
1, 84239, Note_off_c, 1, 57, 0
1, 84239, Note_off_c, 1, 72, 0
1, 84239, Note_off_c, 1, 64, 0
1, 84240, Note_on_c, 1, 70, 127
1, 84240, Note_on_c, 1, 62, 127
1, 84240, Note_on_c, 1, 55, 127
1, 84240, Note_on_c, 1, 58, 127
1, 84269, Note_off_c, 1, 81, 0
1, 84270, Note_on_c, 1, 77, 127
1, 84270, Note_on_c, 1, 69, 127
1, 84299, Note_off_c, 1, 70, 0
1, 84299, Note_off_c, 1, 62, 0
1, 84299, Note_off_c, 1, 55, 0
1, 84299, Note_off_c, 1, 58, 0
1, 84299, Note_off_c, 1, 77, 0
1, 84299, Note_off_c, 1, 69, 0
1, 84300, Note_on_c, 1, 79, 127
1, 84300, Note_on_c, 1, 74, 127
1, 84300, Note_on_c, 1, 67, 127
1, 84300, Note_on_c, 1, 70, 127
1, 84300, Note_on_c, 1, 58, 127
1, 84300, Note_on_c, 1, 55, 127
1, 84329, Note_off_c, 1, 79, 0
1, 84329, Note_off_c, 1, 70, 0
1, 84330, Note_on_c, 1, 81, 127
1, 84330, Note_on_c, 1, 72, 127
1, 84359, Note_off_c, 1, 74, 0
1, 84359, Note_off_c, 1, 67, 0
1, 84359, Note_off_c, 1, 55, 0
1, 84359, Note_off_c, 1, 81, 0
1, 84359, Note_off_c, 1, 72, 0
1, 84360, Note_on_c, 1, 43, 127
1, 84360, Note_on_c, 1, 62, 127
1, 84390, Note_on_c, 1, 77, 127
1, 84419, Note_off_c, 1, 58, 0
1, 84419, Note_off_c, 1, 43, 0
1, 84419, Note_off_c, 1, 62, 0
1, 84419, Note_off_c, 1, 77, 0
1, 84420, Note_on_c, 1, 76, 127
1, 84420, Note_on_c, 1, 71, 127
1, 84420, Note_on_c, 1, 67, 127
1, 84420, Note_on_c, 1, 64, 127
1, 84420, Note_on_c, 1, 55, 127
1, 84420, Note_on_c, 1, 43, 127
1, 84449, Note_off_c, 1, 76, 0
1, 84449, Note_off_c, 1, 64, 0
1, 84450, Note_on_c, 1, 74, 127
1, 84450, Note_on_c, 1, 65, 127
1, 84479, Note_off_c, 1, 71, 0
1, 84479, Note_off_c, 1, 55, 0
1, 84479, Note_off_c, 1, 43, 0
1, 84479, Note_off_c, 1, 74, 0
1, 84479, Note_off_c, 1, 65, 0
1, 84480, Note_on_c, 1, 72, 127
1, 84480, Note_on_c, 1, 48, 127
1, 84509, Note_off_c, 1, 72, 0
1, 84539, Note_off_c, 1, 67, 0
1, 84539, Note_off_c, 1, 48, 0
1, 84540, Note_on_c, 1, 72, 127
1, 84540, Note_on_c, 1, 76, 127
1, 84540, Note_on_c, 1, 67, 127
1, 84540, Note_on_c, 1, 60, 127
1, 84540, Note_on_c, 1, 55, 127
1, 84540, Note_on_c, 1, 36, 127
1, 84569, Note_off_c, 1, 72, 0
1, 84569, Note_off_c, 1, 76, 0
1, 84569, Note_off_c, 1, 67, 0
1, 84569, Note_off_c, 1, 60, 0
1, 84570, Note_on_c, 1, 74, 127
1, 84570, Note_on_c, 1, 77, 127
1, 84570, Note_on_c, 1, 69, 127
1, 84570, Note_on_c, 1, 59, 127
1, 84599, Note_off_c, 1, 55, 0
1, 84599, Note_off_c, 1, 36, 0
1, 84599, Note_off_c, 1, 74, 0
1, 84599, Note_off_c, 1, 77, 0
1, 84599, Note_off_c, 1, 69, 0
1, 84599, Note_off_c, 1, 59, 0
1, 84600, Note_on_c, 1, 76, 127
1, 84600, Note_on_c, 1, 67, 127
1, 84600, Note_on_c, 1, 60, 127
1, 84629, Note_off_c, 1, 67, 0
1, 84630, Note_on_c, 1, 74, 127
1, 84630, Note_on_c, 1, 65, 127
1, 84659, Note_off_c, 1, 76, 0
1, 84659, Note_off_c, 1, 60, 0
1, 84659, Note_off_c, 1, 74, 0
1, 84659, Note_off_c, 1, 65, 0
1, 84660, Note_on_c, 1, 79, 127
1, 84660, Note_on_c, 1, 72, 127
1, 84660, Note_on_c, 1, 64, 127
1, 84660, Note_on_c, 1, 48, 127
1, 84660, Note_on_c, 1, 55, 127
1, 84689, Note_off_c, 1, 72, 0
1, 84690, Note_on_c, 1, 70, 127
1, 84690, Note_on_c, 1, 62, 127
1, 84719, Note_off_c, 1, 64, 0
1, 84719, Note_off_c, 1, 48, 0
1, 84719, Note_off_c, 1, 55, 0
1, 84719, Note_off_c, 1, 70, 0
1, 84719, Note_off_c, 1, 62, 0
1, 84720, Note_on_c, 1, 69, 127
1, 84720, Note_on_c, 1, 60, 127
1, 84720, Note_on_c, 1, 53, 127
1, 84720, Note_on_c, 1, 57, 127
1, 84749, Note_off_c, 1, 79, 0
1, 84750, Note_on_c, 1, 76, 127
1, 84750, Note_on_c, 1, 67, 127
1, 84779, Note_off_c, 1, 69, 0
1, 84779, Note_off_c, 1, 60, 0
1, 84779, Note_off_c, 1, 53, 0
1, 84779, Note_off_c, 1, 57, 0
1, 84779, Note_off_c, 1, 76, 0
1, 84779, Note_off_c, 1, 67, 0
1, 84780, Note_on_c, 1, 77, 127
1, 84780, Note_on_c, 1, 72, 127
1, 84780, Note_on_c, 1, 65, 127
1, 84780, Note_on_c, 1, 69, 127
1, 84780, Note_on_c, 1, 57, 127
1, 84780, Note_on_c, 1, 53, 127
1, 84809, Note_off_c, 1, 77, 0
1, 84809, Note_off_c, 1, 69, 0
1, 84810, Note_on_c, 1, 79, 127
1, 84810, Note_on_c, 1, 70, 127
1, 84839, Note_off_c, 1, 72, 0
1, 84839, Note_off_c, 1, 65, 0
1, 84839, Note_off_c, 1, 53, 0
1, 84839, Note_off_c, 1, 79, 0
1, 84839, Note_off_c, 1, 70, 0
1, 84840, Note_on_c, 1, 41, 127
1, 84840, Note_on_c, 1, 60, 127
1, 84870, Note_on_c, 1, 76, 127
1, 84870, Note_on_c, 1, 61, 127
1, 84899, Note_off_c, 1, 57, 0
1, 84899, Note_off_c, 1, 41, 0
1, 84899, Note_off_c, 1, 60, 0
1, 84899, Note_off_c, 1, 76, 0
1, 84899, Note_off_c, 1, 61, 0
1, 84900, Note_on_c, 1, 74, 127
1, 84900, Note_on_c, 1, 69, 127
1, 84900, Note_on_c, 1, 65, 127
1, 84900, Note_on_c, 1, 62, 127
1, 84900, Note_on_c, 1, 53, 127
1, 84900, Note_on_c, 1, 41, 127
1, 84929, Note_off_c, 1, 74, 0
1, 84929, Note_off_c, 1, 62, 0
1, 84930, Note_on_c, 1, 73, 127
1, 84930, Note_on_c, 1, 64, 127
1, 84959, Note_off_c, 1, 69, 0
1, 84959, Note_off_c, 1, 53, 0
1, 84959, Note_off_c, 1, 41, 0
1, 84959, Note_off_c, 1, 73, 0
1, 84959, Note_off_c, 1, 64, 0
1, 84960, Note_on_c, 1, 70, 127
1, 84960, Note_on_c, 1, 46, 127
1, 84989, Note_off_c, 1, 70, 0
1, 84990, Note_on_c, 1, 72, 127
1, 84990, Note_on_c, 1, 63, 127
1, 85019, Note_off_c, 1, 65, 0
1, 85019, Note_off_c, 1, 46, 0
1, 85019, Note_off_c, 1, 72, 0
1, 85019, Note_off_c, 1, 63, 0
1, 85020, Note_on_c, 1, 70, 127
1, 85020, Note_on_c, 1, 74, 127
1, 85020, Note_on_c, 1, 65, 127
1, 85020, Note_on_c, 1, 58, 127
1, 85020, Note_on_c, 1, 53, 127
1, 85049, Note_off_c, 1, 70, 0
1, 85049, Note_off_c, 1, 74, 0
1, 85049, Note_off_c, 1, 65, 0
1, 85050, Note_on_c, 1, 72, 127
1, 85050, Note_on_c, 1, 75, 127
1, 85050, Note_on_c, 1, 67, 127
1, 85050, Note_on_c, 1, 57, 127
1, 85079, Note_off_c, 1, 58, 0
1, 85079, Note_off_c, 1, 53, 0
1, 85079, Note_off_c, 1, 72, 0
1, 85079, Note_off_c, 1, 75, 0
1, 85079, Note_off_c, 1, 67, 0
1, 85079, Note_off_c, 1, 57, 0
1, 85080, Note_on_c, 1, 74, 127
1, 85080, Note_on_c, 1, 65, 127
1, 85080, Note_on_c, 1, 58, 127
1, 85109, Note_off_c, 1, 65, 0
1, 85110, Note_on_c, 1, 72, 127
1, 85110, Note_on_c, 1, 63, 127
1, 85139, Note_off_c, 1, 74, 0
1, 85139, Note_off_c, 1, 58, 0
1, 85139, Note_off_c, 1, 72, 0
1, 85139, Note_off_c, 1, 63, 0
1, 85140, Note_on_c, 1, 77, 127
1, 85140, Note_on_c, 1, 70, 127
1, 85140, Note_on_c, 1, 62, 127
1, 85140, Note_on_c, 1, 60, 127
1, 85140, Note_on_c, 1, 46, 127
1, 85140, Note_on_c, 1, 53, 127
1, 85169, Note_off_c, 1, 70, 0
1, 85169, Note_off_c, 1, 62, 0
1, 85170, Note_on_c, 1, 69, 127
1, 85199, Note_off_c, 1, 60, 0
1, 85199, Note_off_c, 1, 46, 0
1, 85199, Note_off_c, 1, 53, 0
1, 85199, Note_off_c, 1, 69, 0
1, 85200, Note_on_c, 1, 67, 127
1, 85200, Note_on_c, 1, 58, 127
1, 85200, Note_on_c, 1, 52, 127
1, 85200, Note_on_c, 1, 55, 127
1, 85229, Note_off_c, 1, 77, 0
1, 85230, Note_on_c, 1, 74, 127
1, 85230, Note_on_c, 1, 65, 127
1, 85259, Note_off_c, 1, 67, 0
1, 85259, Note_off_c, 1, 58, 0
1, 85259, Note_off_c, 1, 52, 0
1, 85259, Note_off_c, 1, 55, 0
1, 85259, Note_off_c, 1, 74, 0
1, 85259, Note_off_c, 1, 65, 0
1, 85260, Note_on_c, 1, 76, 127
1, 85260, Note_on_c, 1, 70, 127
1, 85260, Note_on_c, 1, 67, 127
1, 85260, Note_on_c, 1, 55, 127
1, 85260, Note_on_c, 1, 52, 127
1, 85289, Note_off_c, 1, 76, 0
1, 85290, Note_on_c, 1, 77, 127
1, 85290, Note_on_c, 1, 69, 127
1, 85319, Note_off_c, 1, 70, 0
1, 85319, Note_off_c, 1, 67, 0
1, 85319, Note_off_c, 1, 52, 0
1, 85319, Note_off_c, 1, 77, 0
1, 85319, Note_off_c, 1, 69, 0
1, 85320, Note_on_c, 1, 64, 127
1, 85320, Note_on_c, 1, 40, 127
1, 85320, Note_on_c, 1, 57, 127
1, 85350, Note_on_c, 1, 74, 127
1, 85350, Note_on_c, 1, 59, 127
1, 85379, Note_off_c, 1, 55, 0
1, 85379, Note_off_c, 1, 64, 0
1, 85379, Note_off_c, 1, 40, 0
1, 85379, Note_off_c, 1, 57, 0
1, 85379, Note_off_c, 1, 74, 0
1, 85379, Note_off_c, 1, 59, 0
1, 85380, Note_on_c, 1, 73, 127
1, 85380, Note_on_c, 1, 67, 127
1, 85380, Note_on_c, 1, 64, 127
1, 85380, Note_on_c, 1, 61, 127
1, 85380, Note_on_c, 1, 52, 127
1, 85380, Note_on_c, 1, 40, 127
1, 85409, Note_off_c, 1, 73, 0
1, 85409, Note_off_c, 1, 61, 0
1, 85410, Note_on_c, 1, 71, 127
1, 85410, Note_on_c, 1, 62, 127
1, 85439, Note_off_c, 1, 52, 0
1, 85439, Note_off_c, 1, 40, 0
1, 85439, Note_off_c, 1, 71, 0
1, 85439, Note_off_c, 1, 62, 0
1, 85440, Note_on_c, 1, 45, 127
1, 85469, Note_off_c, 1, 67, 0
1, 85470, Note_on_c, 1, 65, 127
1, 85499, Note_off_c, 1, 64, 0
1, 85499, Note_off_c, 1, 45, 0
1, 85499, Note_off_c, 1, 65, 0
1, 85500, Note_on_c, 1, 73, 127
1, 85500, Note_on_c, 1, 64, 127
1, 85500, Note_on_c, 1, 57, 127
1, 85500, Note_on_c, 1, 52, 127
1, 85529, Note_off_c, 1, 73, 0
1, 85529, Note_off_c, 1, 64, 0
1, 85530, Note_on_c, 1, 74, 127
1, 85530, Note_on_c, 1, 62, 127
1, 85530, Note_on_c, 1, 65, 127
1, 85559, Note_off_c, 1, 52, 0
1, 85559, Note_off_c, 1, 74, 0
1, 85559, Note_off_c, 1, 62, 0
1, 85559, Note_off_c, 1, 65, 0
1, 85560, Note_on_c, 1, 76, 127
1, 85560, Note_on_c, 1, 61, 127
1, 85560, Note_on_c, 1, 67, 127
1, 85560, Note_on_c, 1, 69, 127
1, 85589, Note_off_c, 1, 76, 0
1, 85589, Note_off_c, 1, 61, 0
1, 85589, Note_off_c, 1, 67, 0
1, 85589, Note_off_c, 1, 69, 0
1, 85590, Note_on_c, 1, 70, 127
1, 85590, Note_on_c, 1, 55, 127
1, 85619, Note_off_c, 1, 57, 0
1, 85619, Note_off_c, 1, 70, 0
1, 85619, Note_off_c, 1, 55, 0
1, 85620, Note_on_c, 1, 74, 127
1, 85620, Note_on_c, 1, 69, 127
1, 85620, Note_on_c, 1, 65, 127
1, 85620, Note_on_c, 1, 53, 127
1, 85620, Note_on_c, 1, 45, 127
1, 85649, Note_off_c, 1, 74, 0
1, 85649, Note_off_c, 1, 69, 0
1, 85649, Note_off_c, 1, 65, 0
1, 85649, Note_off_c, 1, 53, 0
1, 85650, Note_on_c, 1, 76, 127
1, 85650, Note_on_c, 1, 67, 127
1, 85650, Note_on_c, 1, 52, 127
1, 85650, Note_on_c, 1, 64, 127
1, 85679, Note_off_c, 1, 45, 0
1, 85679, Note_off_c, 1, 76, 0
1, 85679, Note_off_c, 1, 67, 0
1, 85679, Note_off_c, 1, 52, 0
1, 85679, Note_off_c, 1, 64, 0
1, 85680, Note_on_c, 1, 69, 127
1, 85680, Note_on_c, 1, 65, 127
1, 85680, Note_on_c, 1, 50, 127
1, 85680, Note_on_c, 1, 62, 127
1, 85680, Note_on_c, 1, 57, 127
1, 85680, Note_on_c, 1, 53, 127
1, 85709, Note_off_c, 1, 62, 0
1, 85709, Note_off_c, 1, 57, 0
1, 85709, Note_off_c, 1, 53, 0
1, 85710, Note_on_c, 1, 64, 127
1, 85710, Note_on_c, 1, 55, 127
1, 85710, Note_on_c, 1, 52, 127
1, 85739, Note_off_c, 1, 65, 0
1, 85739, Note_off_c, 1, 50, 0
1, 85739, Note_off_c, 1, 64, 0
1, 85739, Note_off_c, 1, 55, 0
1, 85739, Note_off_c, 1, 52, 0
1, 85740, Note_off_c, 1, 69, 0
1, 85740, Note_on_c, 1, 74, 127
1, 85800, Note_on_c, 1, 67, 127
1, 85800, Note_on_c, 1, 58, 127
1, 85829, Note_off_c, 1, 58, 0
1, 85859, Note_off_c, 1, 67, 0
1, 85860, Note_off_c, 1, 74, 0
1, 85860, Note_on_c, 1, 73, 127
1, 85919, Note_off_c, 1, 73, 0
1, 85920, Note_on_c, 1, 74, 127
1, 85920, Note_on_c, 1, 69, 127
1, 85920, Note_on_c, 1, 65, 127
1, 85920, Note_on_c, 1, 53, 127
1, 85920, Note_on_c, 1, 50, 127
1, 85949, Note_off_c, 1, 50, 0
1, 85979, Note_off_c, 1, 74, 0
1, 85979, Note_off_c, 1, 69, 0
1, 85979, Note_off_c, 1, 65, 0
1, 85979, Note_off_c, 1, 53, 0
1, 85980, Note_on_c, 1, 76, 127
1, 85980, Note_on_c, 1, 67, 127
1, 85980, Note_on_c, 1, 55, 127
1, 85980, Note_on_c, 1, 58, 127
1, 86009, Note_off_c, 1, 67, 0
1, 86009, Note_off_c, 1, 55, 0
1, 86009, Note_off_c, 1, 58, 0
1, 86010, Note_on_c, 1, 65, 127
1, 86010, Note_on_c, 1, 57, 127
1, 86039, Note_off_c, 1, 65, 0
1, 86039, Note_off_c, 1, 57, 0
1, 86040, Note_on_c, 1, 70, 127
1, 86040, Note_on_c, 1, 64, 127
1, 86069, Note_off_c, 1, 64, 0
1, 86070, Note_on_c, 1, 62, 127
1, 86099, Note_off_c, 1, 76, 0
1, 86099, Note_off_c, 1, 70, 0
1, 86099, Note_off_c, 1, 62, 0
1, 86100, Note_on_c, 1, 77, 127
1, 86100, Note_on_c, 1, 61, 127
1, 86100, Note_on_c, 1, 57, 127
1, 86129, Note_off_c, 1, 61, 0
1, 86129, Note_off_c, 1, 57, 0
1, 86130, Note_on_c, 1, 59, 127
1, 86130, Note_on_c, 1, 55, 127
1, 86159, Note_off_c, 1, 59, 0
1, 86159, Note_off_c, 1, 55, 0
1, 86160, Note_on_c, 1, 69, 127
1, 86160, Note_on_c, 1, 53, 127
1, 86189, Note_off_c, 1, 53, 0
1, 86190, Note_on_c, 1, 50, 127
1, 86219, Note_off_c, 1, 77, 0
1, 86219, Note_off_c, 1, 69, 0
1, 86219, Note_off_c, 1, 50, 0
1, 86220, Note_on_c, 1, 76, 127
1, 86220, Note_on_c, 1, 62, 127
1, 86220, Note_on_c, 1, 65, 127
1, 86220, Note_on_c, 1, 58, 127
1, 86249, Note_off_c, 1, 76, 0
1, 86250, Note_on_c, 1, 74, 127
1, 86279, Note_off_c, 1, 62, 0
1, 86279, Note_off_c, 1, 65, 0
1, 86279, Note_off_c, 1, 58, 0
1, 86279, Note_off_c, 1, 74, 0
1, 86280, Note_on_c, 1, 77, 127
1, 86280, Note_on_c, 1, 70, 127
1, 86280, Note_on_c, 1, 67, 127
1, 86280, Note_on_c, 1, 55, 127
1, 86309, Note_off_c, 1, 77, 0
1, 86310, Note_on_c, 1, 76, 127
1, 86339, Note_off_c, 1, 70, 0
1, 86339, Note_off_c, 1, 67, 0
1, 86339, Note_off_c, 1, 55, 0
1, 86339, Note_off_c, 1, 76, 0
1, 86340, Note_on_c, 1, 74, 127
1, 86340, Note_on_c, 1, 69, 127
1, 86340, Note_on_c, 1, 64, 127
1, 86340, Note_on_c, 1, 57, 127
1, 86369, Note_off_c, 1, 74, 0
1, 86370, Note_on_c, 1, 73, 127
1, 86399, Note_off_c, 1, 69, 0
1, 86399, Note_off_c, 1, 64, 0
1, 86399, Note_off_c, 1, 57, 0
1, 86399, Note_off_c, 1, 73, 0
1, 86400, Note_on_c, 1, 74, 127
1, 86400, Note_on_c, 1, 69, 127
1, 86400, Note_on_c, 1, 65, 127
1, 86400, Note_on_c, 1, 50, 127
1, 86400, Note_on_c, 1, 62, 127
1, 86429, Note_off_c, 1, 74, 0
1, 86519, Note_off_c, 1, 69, 0
1, 86519, Note_off_c, 1, 65, 0
1, 86519, Note_off_c, 1, 50, 0
1, 86519, Note_off_c, 1, 62, 0
1, 86520, Note_on_c, 1, 62, 127
1, 86550, Note_on_c, 1, 57, 127
1, 86550, Note_on_c, 1, 45, 127
1, 86579, Note_off_c, 1, 62, 0
1, 86579, Note_off_c, 1, 57, 0
1, 86579, Note_off_c, 1, 45, 0
1, 86580, Note_on_c, 1, 53, 127
1, 86580, Note_on_c, 1, 41, 127
1, 86609, Note_off_c, 1, 53, 0
1, 86609, Note_off_c, 1, 41, 0
1, 86610, Note_on_c, 1, 57, 127
1, 86610, Note_on_c, 1, 45, 127
1, 86639, Note_off_c, 1, 57, 0
1, 86639, Note_off_c, 1, 45, 0
1, 86640, Note_on_c, 1, 69, 127
1, 86640, Note_on_c, 1, 50, 127
1, 86640, Note_on_c, 1, 38, 127
1, 86669, Note_off_c, 1, 69, 0
1, 86669, Note_off_c, 1, 50, 0
1, 86670, Note_on_c, 1, 65, 127
1, 86670, Note_on_c, 1, 57, 127
1, 86699, Note_off_c, 1, 38, 0
1, 86699, Note_off_c, 1, 65, 0
1, 86699, Note_off_c, 1, 57, 0
1, 86700, Note_on_c, 1, 57, 127
1, 86700, Note_on_c, 1, 64, 127
1, 86700, Note_on_c, 1, 55, 127
1, 86729, Note_off_c, 1, 64, 0
1, 86729, Note_off_c, 1, 55, 0
1, 86730, Note_on_c, 1, 62, 127
1, 86759, Note_off_c, 1, 57, 0
1, 86759, Note_off_c, 1, 62, 0
1, 86760, Note_on_c, 1, 62, 127
1, 86760, Note_on_c, 1, 69, 127
1, 86760, Note_on_c, 1, 53, 127
1, 86789, Note_off_c, 1, 69, 0
1, 86789, Note_off_c, 1, 53, 0
1, 86790, Note_on_c, 1, 65, 127
1, 86790, Note_on_c, 1, 57, 127
1, 86819, Note_off_c, 1, 65, 0
1, 86819, Note_off_c, 1, 57, 0
1, 86820, Note_on_c, 1, 64, 127
1, 86820, Note_on_c, 1, 55, 127
1, 86849, Note_off_c, 1, 64, 0
1, 86849, Note_off_c, 1, 55, 0
1, 86880, Note_on_c, 1, 70, 127
1, 86880, Note_on_c, 1, 52, 127
1, 86909, Note_off_c, 1, 70, 0
1, 86909, Note_off_c, 1, 52, 0
1, 86910, Note_on_c, 1, 67, 127
1, 86939, Note_off_c, 1, 62, 0
1, 86939, Note_off_c, 1, 67, 0
1, 86940, Note_on_c, 1, 61, 127
1, 86940, Note_on_c, 1, 69, 127
1, 86940, Note_on_c, 1, 55, 127
1, 86969, Note_off_c, 1, 69, 0
1, 86969, Note_off_c, 1, 55, 0
1, 86970, Note_on_c, 1, 64, 127
1, 86970, Note_on_c, 1, 57, 127
1, 86999, Note_off_c, 1, 61, 0
1, 86999, Note_off_c, 1, 64, 0
1, 86999, Note_off_c, 1, 57, 0
1, 87000, Note_on_c, 1, 62, 127
1, 87000, Note_on_c, 1, 65, 127
1, 87000, Note_on_c, 1, 50, 127
1, 87029, Note_off_c, 1, 65, 0
1, 87059, Note_off_c, 1, 62, 0
1, 87059, Note_off_c, 1, 50, 0
1, 87060, Note_on_c, 1, 65, 127
1, 87089, Note_off_c, 1, 65, 0
1, 87090, Note_on_c, 1, 69, 127
1, 87119, Note_off_c, 1, 69, 0
1, 87120, Note_on_c, 1, 74, 127
1, 87120, Note_on_c, 1, 53, 127
1, 87149, Note_off_c, 1, 74, 0
1, 87149, Note_off_c, 1, 53, 0
1, 87150, Note_on_c, 1, 71, 127
1, 87150, Note_on_c, 1, 62, 127
1, 87179, Note_off_c, 1, 71, 0
1, 87179, Note_off_c, 1, 62, 0
1, 87180, Note_on_c, 1, 53, 127
1, 87180, Note_on_c, 1, 69, 127
1, 87180, Note_on_c, 1, 60, 127
1, 87209, Note_off_c, 1, 69, 0
1, 87209, Note_off_c, 1, 60, 0
1, 87210, Note_on_c, 1, 68, 127
1, 87210, Note_on_c, 1, 62, 127
1, 87239, Note_off_c, 1, 68, 0
1, 87239, Note_off_c, 1, 62, 0
1, 87240, Note_on_c, 1, 74, 127
1, 87240, Note_on_c, 1, 59, 127
1, 87269, Note_off_c, 1, 74, 0
1, 87269, Note_off_c, 1, 59, 0
1, 87270, Note_on_c, 1, 71, 127
1, 87299, Note_off_c, 1, 53, 0
1, 87299, Note_off_c, 1, 71, 0
1, 87300, Note_on_c, 1, 50, 127
1, 87300, Note_on_c, 1, 69, 127
1, 87300, Note_on_c, 1, 60, 127
1, 87329, Note_off_c, 1, 69, 0
1, 87329, Note_off_c, 1, 60, 0
1, 87330, Note_on_c, 1, 68, 127
1, 87330, Note_on_c, 1, 62, 127
1, 87359, Note_off_c, 1, 50, 0
1, 87359, Note_off_c, 1, 68, 0
1, 87359, Note_off_c, 1, 62, 0
1, 87360, Note_on_c, 1, 47, 127
1, 87360, Note_on_c, 1, 77, 127
1, 87360, Note_on_c, 1, 56, 127
1, 87389, Note_off_c, 1, 77, 0
1, 87389, Note_off_c, 1, 56, 0
1, 87390, Note_on_c, 1, 74, 127
1, 87390, Note_on_c, 1, 64, 127
1, 87419, Note_off_c, 1, 47, 0
1, 87419, Note_off_c, 1, 74, 0
1, 87419, Note_off_c, 1, 64, 0
1, 87420, Note_on_c, 1, 56, 127
1, 87420, Note_on_c, 1, 76, 127
1, 87420, Note_on_c, 1, 62, 127
1, 87449, Note_off_c, 1, 76, 0
1, 87449, Note_off_c, 1, 62, 0
1, 87450, Note_on_c, 1, 71, 127
1, 87450, Note_on_c, 1, 64, 127
1, 87479, Note_off_c, 1, 56, 0
1, 87479, Note_off_c, 1, 71, 0
1, 87479, Note_off_c, 1, 64, 0
1, 87480, Note_on_c, 1, 57, 127
1, 87480, Note_on_c, 1, 72, 127
1, 87509, Note_off_c, 1, 72, 0
1, 87510, Note_on_c, 1, 69, 127
1, 87539, Note_off_c, 1, 57, 0
1, 87539, Note_off_c, 1, 69, 0
1, 87540, Note_on_c, 1, 72, 127
1, 87569, Note_off_c, 1, 72, 0
1, 87570, Note_on_c, 1, 76, 127
1, 87599, Note_off_c, 1, 76, 0
1, 87600, Note_on_c, 1, 81, 127
1, 87600, Note_on_c, 1, 57, 127
1, 87629, Note_off_c, 1, 81, 0
1, 87629, Note_off_c, 1, 57, 0
1, 87630, Note_on_c, 1, 72, 127
1, 87630, Note_on_c, 1, 64, 127
1, 87659, Note_off_c, 1, 72, 0
1, 87659, Note_off_c, 1, 64, 0
1, 87660, Note_on_c, 1, 57, 127
1, 87660, Note_on_c, 1, 70, 127
1, 87660, Note_on_c, 1, 62, 127
1, 87689, Note_off_c, 1, 70, 0
1, 87689, Note_off_c, 1, 62, 0
1, 87690, Note_on_c, 1, 69, 127
1, 87690, Note_on_c, 1, 64, 127
1, 87719, Note_off_c, 1, 57, 0
1, 87719, Note_off_c, 1, 69, 0
1, 87719, Note_off_c, 1, 64, 0
1, 87720, Note_on_c, 1, 60, 127
1, 87720, Note_on_c, 1, 81, 127
1, 87720, Note_on_c, 1, 55, 127
1, 87749, Note_off_c, 1, 81, 0
1, 87749, Note_off_c, 1, 55, 0
1, 87750, Note_on_c, 1, 72, 127
1, 87750, Note_on_c, 1, 63, 127
1, 87779, Note_off_c, 1, 60, 0
1, 87779, Note_off_c, 1, 72, 0
1, 87779, Note_off_c, 1, 63, 0
1, 87780, Note_on_c, 1, 51, 127
1, 87780, Note_on_c, 1, 70, 127
1, 87780, Note_on_c, 1, 62, 127
1, 87809, Note_off_c, 1, 70, 0
1, 87809, Note_off_c, 1, 62, 0
1, 87810, Note_on_c, 1, 69, 127
1, 87810, Note_on_c, 1, 63, 127
1, 87839, Note_off_c, 1, 51, 0
1, 87839, Note_off_c, 1, 69, 0
1, 87839, Note_off_c, 1, 63, 0
1, 87840, Note_on_c, 1, 50, 127
1, 87840, Note_on_c, 1, 81, 127
1, 87840, Note_on_c, 1, 54, 127
1, 87869, Note_off_c, 1, 81, 0
1, 87869, Note_off_c, 1, 54, 0
1, 87870, Note_on_c, 1, 72, 127
1, 87870, Note_on_c, 1, 62, 127
1, 87899, Note_off_c, 1, 50, 0
1, 87899, Note_off_c, 1, 72, 0
1, 87899, Note_off_c, 1, 62, 0
1, 87900, Note_on_c, 1, 54, 127
1, 87900, Note_on_c, 1, 74, 127
1, 87900, Note_on_c, 1, 60, 127
1, 87929, Note_off_c, 1, 74, 0
1, 87929, Note_off_c, 1, 60, 0
1, 87930, Note_on_c, 1, 69, 127
1, 87930, Note_on_c, 1, 62, 127
1, 87959, Note_off_c, 1, 54, 0
1, 87959, Note_off_c, 1, 69, 0
1, 87959, Note_off_c, 1, 62, 0
1, 87960, Note_on_c, 1, 55, 127
1, 87960, Note_on_c, 1, 70, 127
1, 87989, Note_off_c, 1, 70, 0
1, 87990, Note_on_c, 1, 67, 127
1, 88019, Note_off_c, 1, 55, 0
1, 88019, Note_off_c, 1, 67, 0
1, 88020, Note_on_c, 1, 70, 127
1, 88049, Note_off_c, 1, 70, 0
1, 88050, Note_on_c, 1, 74, 127
1, 88079, Note_off_c, 1, 74, 0
1, 88080, Note_on_c, 1, 79, 127
1, 88080, Note_on_c, 1, 55, 127
1, 88109, Note_off_c, 1, 79, 0
1, 88109, Note_off_c, 1, 55, 0
1, 88110, Note_on_c, 1, 70, 127
1, 88110, Note_on_c, 1, 62, 127
1, 88139, Note_off_c, 1, 70, 0
1, 88139, Note_off_c, 1, 62, 0
1, 88140, Note_on_c, 1, 55, 127
1, 88140, Note_on_c, 1, 69, 127
1, 88140, Note_on_c, 1, 60, 127
1, 88169, Note_off_c, 1, 69, 0
1, 88169, Note_off_c, 1, 60, 0
1, 88170, Note_on_c, 1, 67, 127
1, 88170, Note_on_c, 1, 62, 127
1, 88199, Note_off_c, 1, 55, 0
1, 88199, Note_off_c, 1, 67, 0
1, 88199, Note_off_c, 1, 62, 0
1, 88200, Note_on_c, 1, 58, 127
1, 88200, Note_on_c, 1, 79, 127
1, 88200, Note_on_c, 1, 53, 127
1, 88229, Note_off_c, 1, 79, 0
1, 88229, Note_off_c, 1, 53, 0
1, 88230, Note_on_c, 1, 70, 127
1, 88230, Note_on_c, 1, 62, 127
1, 88259, Note_off_c, 1, 58, 0
1, 88259, Note_off_c, 1, 70, 0
1, 88259, Note_off_c, 1, 62, 0
1, 88260, Note_on_c, 1, 50, 127
1, 88260, Note_on_c, 1, 69, 127
1, 88260, Note_on_c, 1, 60, 127
1, 88289, Note_off_c, 1, 69, 0
1, 88289, Note_off_c, 1, 60, 0
1, 88290, Note_on_c, 1, 67, 127
1, 88290, Note_on_c, 1, 62, 127
1, 88319, Note_off_c, 1, 50, 0
1, 88319, Note_off_c, 1, 67, 0
1, 88319, Note_off_c, 1, 62, 0
1, 88320, Note_on_c, 1, 48, 127
1, 88320, Note_on_c, 1, 79, 127
1, 88320, Note_on_c, 1, 52, 127
1, 88349, Note_off_c, 1, 79, 0
1, 88349, Note_off_c, 1, 52, 0
1, 88350, Note_on_c, 1, 70, 127
1, 88350, Note_on_c, 1, 60, 127
1, 88379, Note_off_c, 1, 48, 0
1, 88379, Note_off_c, 1, 70, 0
1, 88379, Note_off_c, 1, 60, 0
1, 88380, Note_on_c, 1, 52, 127
1, 88380, Note_on_c, 1, 72, 127
1, 88380, Note_on_c, 1, 58, 127
1, 88409, Note_off_c, 1, 72, 0
1, 88409, Note_off_c, 1, 58, 0
1, 88410, Note_on_c, 1, 67, 127
1, 88410, Note_on_c, 1, 60, 127
1, 88439, Note_off_c, 1, 52, 0
1, 88439, Note_off_c, 1, 67, 0
1, 88439, Note_off_c, 1, 60, 0
1, 88440, Note_on_c, 1, 53, 127
1, 88440, Note_on_c, 1, 69, 127
1, 88469, Note_off_c, 1, 69, 0
1, 88470, Note_on_c, 1, 65, 127
1, 88499, Note_off_c, 1, 53, 0
1, 88499, Note_off_c, 1, 65, 0
1, 88500, Note_on_c, 1, 69, 127
1, 88529, Note_off_c, 1, 69, 0
1, 88530, Note_on_c, 1, 70, 127
1, 88559, Note_off_c, 1, 70, 0
1, 88560, Note_on_c, 1, 72, 127
1, 88589, Note_off_c, 1, 72, 0
1, 88590, Note_on_c, 1, 77, 127
1, 88590, Note_on_c, 1, 57, 127
1, 88619, Note_off_c, 1, 77, 0
1, 88619, Note_off_c, 1, 57, 0
1, 88620, Note_on_c, 1, 53, 127
1, 88620, Note_on_c, 1, 79, 127
1, 88620, Note_on_c, 1, 55, 127
1, 88649, Note_off_c, 1, 79, 0
1, 88649, Note_off_c, 1, 55, 0
1, 88650, Note_on_c, 1, 81, 127
1, 88679, Note_off_c, 1, 53, 0
1, 88679, Note_off_c, 1, 81, 0
1, 88680, Note_on_c, 1, 46, 127
1, 88680, Note_on_c, 1, 74, 127
1, 88680, Note_on_c, 1, 58, 127
1, 88709, Note_off_c, 1, 74, 0
1, 88709, Note_off_c, 1, 58, 0
1, 88710, Note_on_c, 1, 69, 127
1, 88710, Note_on_c, 1, 51, 127
1, 88739, Note_off_c, 1, 46, 0
1, 88739, Note_off_c, 1, 69, 0
1, 88739, Note_off_c, 1, 51, 0
1, 88740, Note_on_c, 1, 70, 127
1, 88740, Note_on_c, 1, 50, 127
1, 88769, Note_off_c, 1, 70, 0
1, 88769, Note_off_c, 1, 50, 0
1, 88770, Note_on_c, 1, 72, 127
1, 88770, Note_on_c, 1, 48, 127
1, 88799, Note_off_c, 1, 72, 0
1, 88799, Note_off_c, 1, 48, 0
1, 88800, Note_on_c, 1, 74, 127
1, 88800, Note_on_c, 1, 46, 127
1, 88829, Note_off_c, 1, 74, 0
1, 88829, Note_off_c, 1, 46, 0
1, 88830, Note_on_c, 1, 79, 127
1, 88830, Note_on_c, 1, 58, 127
1, 88859, Note_off_c, 1, 79, 0
1, 88859, Note_off_c, 1, 58, 0
1, 88860, Note_on_c, 1, 55, 127
1, 88860, Note_on_c, 1, 81, 127
1, 88860, Note_on_c, 1, 57, 127
1, 88889, Note_off_c, 1, 81, 0
1, 88889, Note_off_c, 1, 57, 0
1, 88890, Note_on_c, 1, 82, 127
1, 88919, Note_off_c, 1, 55, 0
1, 88919, Note_off_c, 1, 82, 0
1, 88920, Note_on_c, 1, 48, 127
1, 88920, Note_on_c, 1, 76, 127
1, 88920, Note_on_c, 1, 60, 127
1, 88949, Note_off_c, 1, 76, 0
1, 88949, Note_off_c, 1, 60, 0
1, 88950, Note_on_c, 1, 71, 127
1, 88950, Note_on_c, 1, 53, 127
1, 88979, Note_off_c, 1, 48, 0
1, 88979, Note_off_c, 1, 71, 0
1, 88979, Note_off_c, 1, 53, 0
1, 88980, Note_on_c, 1, 72, 127
1, 88980, Note_on_c, 1, 52, 127
1, 89009, Note_off_c, 1, 72, 0
1, 89009, Note_off_c, 1, 52, 0
1, 89010, Note_on_c, 1, 74, 127
1, 89010, Note_on_c, 1, 50, 127
1, 89039, Note_off_c, 1, 74, 0
1, 89039, Note_off_c, 1, 50, 0
1, 89040, Note_on_c, 1, 76, 127
1, 89040, Note_on_c, 1, 48, 127
1, 89069, Note_off_c, 1, 76, 0
1, 89069, Note_off_c, 1, 48, 0
1, 89070, Note_on_c, 1, 81, 127
1, 89070, Note_on_c, 1, 60, 127
1, 89099, Note_off_c, 1, 81, 0
1, 89099, Note_off_c, 1, 60, 0
1, 89100, Note_on_c, 1, 57, 127
1, 89100, Note_on_c, 1, 82, 127
1, 89100, Note_on_c, 1, 58, 127
1, 89129, Note_off_c, 1, 82, 0
1, 89129, Note_off_c, 1, 58, 0
1, 89130, Note_on_c, 1, 84, 127
1, 89159, Note_off_c, 1, 57, 0
1, 89159, Note_off_c, 1, 84, 0
1, 89160, Note_on_c, 1, 46, 127
1, 89160, Note_on_c, 1, 74, 127
1, 89160, Note_on_c, 1, 58, 127
1, 89189, Note_off_c, 1, 74, 0
1, 89189, Note_off_c, 1, 58, 0
1, 89190, Note_on_c, 1, 79, 127
1, 89190, Note_on_c, 1, 55, 127
1, 89219, Note_off_c, 1, 46, 0
1, 89219, Note_off_c, 1, 79, 0
1, 89219, Note_off_c, 1, 55, 0
1, 89220, Note_on_c, 1, 55, 127
1, 89220, Note_on_c, 1, 81, 127
1, 89220, Note_on_c, 1, 53, 127
1, 89249, Note_off_c, 1, 81, 0
1, 89249, Note_off_c, 1, 53, 0
1, 89250, Note_on_c, 1, 82, 127
1, 89250, Note_on_c, 1, 52, 127
1, 89279, Note_off_c, 1, 55, 0
1, 89279, Note_off_c, 1, 82, 0
1, 89279, Note_off_c, 1, 52, 0
1, 89280, Note_on_c, 1, 45, 127
1, 89280, Note_on_c, 1, 72, 127
1, 89280, Note_on_c, 1, 57, 127
1, 89309, Note_off_c, 1, 72, 0
1, 89309, Note_off_c, 1, 57, 0
1, 89310, Note_on_c, 1, 77, 127
1, 89310, Note_on_c, 1, 53, 127
1, 89339, Note_off_c, 1, 45, 0
1, 89339, Note_off_c, 1, 77, 0
1, 89339, Note_off_c, 1, 53, 0
1, 89340, Note_on_c, 1, 53, 127
1, 89340, Note_on_c, 1, 79, 127
1, 89340, Note_on_c, 1, 52, 127
1, 89369, Note_off_c, 1, 79, 0
1, 89369, Note_off_c, 1, 52, 0
1, 89370, Note_on_c, 1, 81, 127
1, 89370, Note_on_c, 1, 50, 127
1, 89399, Note_off_c, 1, 53, 0
1, 89399, Note_off_c, 1, 81, 0
1, 89399, Note_off_c, 1, 50, 0
1, 89400, Note_on_c, 1, 43, 127
1, 89400, Note_on_c, 1, 70, 127
1, 89400, Note_on_c, 1, 55, 127
1, 89429, Note_off_c, 1, 70, 0
1, 89429, Note_off_c, 1, 55, 0
1, 89430, Note_on_c, 1, 76, 127
1, 89430, Note_on_c, 1, 52, 127
1, 89459, Note_off_c, 1, 43, 0
1, 89459, Note_off_c, 1, 76, 0
1, 89459, Note_off_c, 1, 52, 0
1, 89460, Note_on_c, 1, 52, 127
1, 89460, Note_on_c, 1, 77, 127
1, 89460, Note_on_c, 1, 50, 127
1, 89489, Note_off_c, 1, 77, 0
1, 89489, Note_off_c, 1, 50, 0
1, 89490, Note_on_c, 1, 79, 127
1, 89490, Note_on_c, 1, 48, 127
1, 89519, Note_off_c, 1, 52, 0
1, 89519, Note_off_c, 1, 79, 0
1, 89519, Note_off_c, 1, 48, 0
1, 89520, Note_on_c, 1, 41, 127
1, 89520, Note_on_c, 1, 69, 127
1, 89520, Note_on_c, 1, 53, 127
1, 89549, Note_off_c, 1, 69, 0
1, 89549, Note_off_c, 1, 53, 0
1, 89550, Note_on_c, 1, 72, 127
1, 89550, Note_on_c, 1, 57, 127
1, 89579, Note_off_c, 1, 41, 0
1, 89579, Note_off_c, 1, 72, 0
1, 89579, Note_off_c, 1, 57, 0
1, 89580, Note_on_c, 1, 53, 127
1, 89580, Note_on_c, 1, 74, 127
1, 89580, Note_on_c, 1, 59, 127
1, 89609, Note_off_c, 1, 53, 0
1, 89609, Note_off_c, 1, 74, 0
1, 89609, Note_off_c, 1, 59, 0
1, 89610, Note_on_c, 1, 52, 127
1, 89610, Note_on_c, 1, 76, 127
1, 89610, Note_on_c, 1, 60, 127
1, 89639, Note_off_c, 1, 52, 0
1, 89639, Note_off_c, 1, 76, 0
1, 89639, Note_off_c, 1, 60, 0
1, 89640, Note_on_c, 1, 50, 127
1, 89640, Note_on_c, 1, 77, 127
1, 89640, Note_on_c, 1, 62, 127
1, 89669, Note_off_c, 1, 77, 0
1, 89669, Note_off_c, 1, 62, 0
1, 89670, Note_on_c, 1, 71, 127
1, 89670, Note_on_c, 1, 53, 127
1, 89699, Note_off_c, 1, 50, 0
1, 89699, Note_off_c, 1, 71, 0
1, 89699, Note_off_c, 1, 53, 0
1, 89700, Note_on_c, 1, 47, 127
1, 89700, Note_on_c, 1, 72, 127
1, 89700, Note_on_c, 1, 52, 127
1, 89729, Note_off_c, 1, 72, 0
1, 89729, Note_off_c, 1, 52, 0
1, 89730, Note_on_c, 1, 74, 127
1, 89730, Note_on_c, 1, 50, 127
1, 89759, Note_off_c, 1, 47, 0
1, 89759, Note_off_c, 1, 74, 0
1, 89759, Note_off_c, 1, 50, 0
1, 89760, Note_on_c, 1, 52, 127
1, 89760, Note_on_c, 1, 68, 127
1, 89789, Note_off_c, 1, 68, 0
1, 89790, Note_on_c, 1, 71, 127
1, 89819, Note_off_c, 1, 52, 0
1, 89819, Note_off_c, 1, 71, 0
1, 89820, Note_on_c, 1, 72, 127
1, 89820, Note_on_c, 1, 64, 127
1, 89849, Note_off_c, 1, 72, 0
1, 89850, Note_on_c, 1, 74, 127
1, 89879, Note_off_c, 1, 64, 0
1, 89879, Note_off_c, 1, 74, 0
1, 89880, Note_on_c, 1, 40, 127
1, 89880, Note_on_c, 1, 68, 127
1, 89880, Note_on_c, 1, 59, 127
1, 89909, Note_off_c, 1, 68, 0
1, 89910, Note_on_c, 1, 62, 127
1, 89939, Note_off_c, 1, 40, 0
1, 89939, Note_off_c, 1, 59, 0
1, 89939, Note_off_c, 1, 62, 0
1, 89940, Note_on_c, 1, 64, 127
1, 89940, Note_on_c, 1, 60, 127
1, 89969, Note_off_c, 1, 64, 0
1, 89970, Note_on_c, 1, 65, 127
1, 89999, Note_off_c, 1, 60, 0
1, 89999, Note_off_c, 1, 65, 0
1, 90000, Note_on_c, 1, 52, 127
1, 90000, Note_on_c, 1, 62, 127
1, 90000, Note_on_c, 1, 59, 127
1, 90029, Note_off_c, 1, 62, 0
1, 90030, Note_on_c, 1, 68, 127
1, 90059, Note_off_c, 1, 52, 0
1, 90059, Note_off_c, 1, 59, 0
1, 90059, Note_off_c, 1, 68, 0
1, 90060, Note_on_c, 1, 69, 127
1, 90060, Note_on_c, 1, 57, 127
1, 90089, Note_off_c, 1, 69, 0
1, 90090, Note_on_c, 1, 71, 127
1, 90119, Note_off_c, 1, 57, 0
1, 90119, Note_off_c, 1, 71, 0
1, 90120, Note_on_c, 1, 40, 127
1, 90120, Note_on_c, 1, 62, 127
1, 90120, Note_on_c, 1, 56, 127
1, 90149, Note_off_c, 1, 62, 0
1, 90150, Note_on_c, 1, 59, 127
1, 90179, Note_off_c, 1, 40, 0
1, 90179, Note_off_c, 1, 56, 0
1, 90179, Note_off_c, 1, 59, 0
1, 90180, Note_on_c, 1, 60, 127
1, 90180, Note_on_c, 1, 54, 127
1, 90209, Note_off_c, 1, 60, 0
1, 90210, Note_on_c, 1, 62, 127
1, 90239, Note_off_c, 1, 54, 0
1, 90239, Note_off_c, 1, 62, 0
1, 90240, Note_on_c, 1, 52, 127
1, 90240, Note_on_c, 1, 59, 127
1, 90240, Note_on_c, 1, 56, 127
1, 90269, Note_off_c, 1, 59, 0
1, 90270, Note_on_c, 1, 62, 127
1, 90299, Note_off_c, 1, 52, 0
1, 90299, Note_off_c, 1, 56, 0
1, 90299, Note_off_c, 1, 62, 0
1, 90300, Note_on_c, 1, 64, 127
1, 90300, Note_on_c, 1, 52, 127
1, 90329, Note_off_c, 1, 64, 0
1, 90330, Note_on_c, 1, 65, 127
1, 90359, Note_off_c, 1, 52, 0
1, 90359, Note_off_c, 1, 65, 0
1, 90360, Note_on_c, 1, 40, 127
1, 90360, Note_on_c, 1, 59, 127
1, 90360, Note_on_c, 1, 50, 127
1, 90389, Note_off_c, 1, 59, 0
1, 90390, Note_on_c, 1, 56, 127
1, 90419, Note_off_c, 1, 40, 0
1, 90419, Note_off_c, 1, 50, 0
1, 90419, Note_off_c, 1, 56, 0
1, 90420, Note_on_c, 1, 57, 127
1, 90420, Note_on_c, 1, 48, 127
1, 90449, Note_off_c, 1, 57, 0
1, 90450, Note_on_c, 1, 59, 127
1, 90479, Note_off_c, 1, 48, 0
1, 90479, Note_off_c, 1, 59, 0
1, 90480, Note_on_c, 1, 56, 127
1, 90480, Note_on_c, 1, 47, 127
1, 90509, Note_off_c, 1, 56, 0
1, 90510, Note_on_c, 1, 77, 127
1, 90539, Note_off_c, 1, 47, 0
1, 90539, Note_off_c, 1, 77, 0
1, 90540, Note_on_c, 1, 47, 127
1, 90540, Note_on_c, 1, 76, 127
1, 90540, Note_on_c, 1, 56, 127
1, 90569, Note_off_c, 1, 76, 0
1, 90570, Note_on_c, 1, 74, 127
1, 90599, Note_off_c, 1, 47, 0
1, 90599, Note_off_c, 1, 56, 0
1, 90599, Note_off_c, 1, 74, 0
1, 90600, Note_on_c, 1, 48, 127
1, 90600, Note_on_c, 1, 72, 127
1, 90600, Note_on_c, 1, 57, 127
1, 90629, Note_off_c, 1, 72, 0
1, 90629, Note_off_c, 1, 57, 0
1, 90630, Note_on_c, 1, 71, 127
1, 90630, Note_on_c, 1, 59, 127
1, 90659, Note_off_c, 1, 48, 0
1, 90659, Note_off_c, 1, 71, 0
1, 90659, Note_off_c, 1, 59, 0
1, 90660, Note_on_c, 1, 50, 127
1, 90660, Note_on_c, 1, 69, 127
1, 90660, Note_on_c, 1, 60, 127
1, 90689, Note_off_c, 1, 69, 0
1, 90689, Note_off_c, 1, 60, 0
1, 90690, Note_on_c, 1, 71, 127
1, 90690, Note_on_c, 1, 62, 127
1, 90719, Note_off_c, 1, 50, 0
1, 90719, Note_off_c, 1, 71, 0
1, 90719, Note_off_c, 1, 62, 0
1, 90720, Note_on_c, 1, 52, 127
1, 90720, Note_on_c, 1, 64, 127
1, 90720, Note_on_c, 1, 60, 127
1, 90749, Note_off_c, 1, 64, 0
1, 90749, Note_off_c, 1, 60, 0
1, 90750, Note_on_c, 1, 69, 127
1, 90750, Note_on_c, 1, 57, 127
1, 90779, Note_off_c, 1, 52, 0
1, 90779, Note_off_c, 1, 69, 0
1, 90779, Note_off_c, 1, 57, 0
1, 90780, Note_on_c, 1, 40, 127
1, 90780, Note_on_c, 1, 71, 127
1, 90780, Note_on_c, 1, 64, 127
1, 90809, Note_off_c, 1, 71, 0
1, 90809, Note_off_c, 1, 64, 0
1, 90810, Note_on_c, 1, 68, 127
1, 90810, Note_on_c, 1, 62, 127
1, 90839, Note_off_c, 1, 40, 0
1, 90839, Note_off_c, 1, 68, 0
1, 90839, Note_off_c, 1, 62, 0
1, 90840, Note_on_c, 1, 41, 127
1, 90840, Note_on_c, 1, 69, 127
1, 90840, Note_on_c, 1, 60, 127
1, 90869, Note_off_c, 1, 69, 0
1, 90869, Note_off_c, 1, 60, 0
1, 90870, Note_on_c, 1, 72, 127
1, 90870, Note_on_c, 1, 56, 127
1, 90899, Note_off_c, 1, 41, 0
1, 90899, Note_off_c, 1, 72, 0
1, 90899, Note_off_c, 1, 56, 0
1, 90900, Note_on_c, 1, 42, 127
1, 90900, Note_on_c, 1, 63, 127
1, 90900, Note_on_c, 1, 57, 127
1, 90929, Note_off_c, 1, 63, 0
1, 90930, Note_on_c, 1, 64, 127
1, 90959, Note_off_c, 1, 42, 0
1, 90959, Note_off_c, 1, 64, 0
1, 90960, Note_on_c, 1, 43, 127
1, 90960, Note_on_c, 1, 71, 127
1, 90989, Note_off_c, 1, 57, 0
1, 90989, Note_off_c, 1, 71, 0
1, 90990, Note_on_c, 1, 74, 127
1, 90990, Note_on_c, 1, 56, 127
1, 91019, Note_off_c, 1, 43, 0
1, 91019, Note_off_c, 1, 74, 0
1, 91019, Note_off_c, 1, 56, 0
1, 91020, Note_on_c, 1, 44, 127
1, 91020, Note_on_c, 1, 63, 127
1, 91020, Note_on_c, 1, 59, 127
1, 91049, Note_off_c, 1, 63, 0
1, 91050, Note_on_c, 1, 64, 127
1, 91079, Note_off_c, 1, 44, 0
1, 91079, Note_off_c, 1, 64, 0
1, 91080, Note_on_c, 1, 45, 127
1, 91080, Note_on_c, 1, 72, 127
1, 91109, Note_off_c, 1, 59, 0
1, 91109, Note_off_c, 1, 72, 0
1, 91110, Note_on_c, 1, 76, 127
1, 91110, Note_on_c, 1, 57, 127
1, 91139, Note_off_c, 1, 45, 0
1, 91139, Note_off_c, 1, 76, 0
1, 91139, Note_off_c, 1, 57, 0
1, 91140, Note_on_c, 1, 57, 127
1, 91140, Note_on_c, 1, 68, 127
1, 91140, Note_on_c, 1, 65, 127
1, 91169, Note_off_c, 1, 68, 0
1, 91170, Note_on_c, 1, 69, 127
1, 91199, Note_off_c, 1, 57, 0
1, 91199, Note_off_c, 1, 69, 0
1, 91200, Note_on_c, 1, 58, 127
1, 91200, Note_on_c, 1, 74, 127
1, 91229, Note_off_c, 1, 65, 0
1, 91229, Note_off_c, 1, 74, 0
1, 91230, Note_on_c, 1, 77, 127
1, 91230, Note_on_c, 1, 61, 127
1, 91259, Note_off_c, 1, 58, 0
1, 91259, Note_off_c, 1, 77, 0
1, 91259, Note_off_c, 1, 61, 0
1, 91260, Note_on_c, 1, 59, 127
1, 91260, Note_on_c, 1, 68, 127
1, 91260, Note_on_c, 1, 62, 127
1, 91289, Note_off_c, 1, 68, 0
1, 91290, Note_on_c, 1, 69, 127
1, 91319, Note_off_c, 1, 59, 0
1, 91319, Note_off_c, 1, 69, 0
1, 91320, Note_on_c, 1, 60, 127
1, 91320, Note_on_c, 1, 76, 127
1, 91349, Note_off_c, 1, 62, 0
1, 91349, Note_off_c, 1, 76, 0
1, 91350, Note_on_c, 1, 79, 127
1, 91350, Note_on_c, 1, 61, 127
1, 91379, Note_off_c, 1, 60, 0
1, 91379, Note_off_c, 1, 79, 0
1, 91379, Note_off_c, 1, 61, 0
1, 91380, Note_on_c, 1, 61, 127
1, 91380, Note_on_c, 1, 68, 127
1, 91380, Note_on_c, 1, 64, 127
1, 91409, Note_off_c, 1, 68, 0
1, 91410, Note_on_c, 1, 69, 127
1, 91439, Note_off_c, 1, 61, 0
1, 91439, Note_off_c, 1, 69, 0
1, 91440, Note_on_c, 1, 62, 127
1, 91440, Note_on_c, 1, 77, 127
1, 91454, Note_off_c, 1, 77, 0
1, 91455, Note_on_c, 1, 79, 127
1, 91469, Note_off_c, 1, 64, 0
1, 91469, Note_off_c, 1, 79, 0
1, 91470, Note_on_c, 1, 57, 127
1, 91499, Note_off_c, 1, 62, 0
1, 91499, Note_off_c, 1, 57, 0
1, 91500, Note_on_c, 1, 50, 127
1, 91500, Note_on_c, 1, 77, 127
1, 91500, Note_on_c, 1, 59, 127
1, 91509, Note_off_c, 1, 77, 0
1, 91510, Note_on_c, 1, 79, 127
1, 91519, Note_off_c, 1, 79, 0
1, 91529, Note_off_c, 1, 59, 0
1, 91530, Note_on_c, 1, 60, 127
1, 91559, Note_off_c, 1, 50, 0
1, 91559, Note_off_c, 1, 60, 0
1, 91560, Note_on_c, 1, 47, 127
1, 91560, Note_on_c, 1, 77, 127
1, 91560, Note_on_c, 1, 62, 127
1, 91569, Note_off_c, 1, 77, 0
1, 91570, Note_on_c, 1, 79, 127
1, 91579, Note_off_c, 1, 79, 0
1, 91589, Note_off_c, 1, 62, 0
1, 91590, Note_on_c, 1, 65, 127
1, 91619, Note_off_c, 1, 47, 0
1, 91619, Note_off_c, 1, 65, 0
1, 91620, Note_on_c, 1, 50, 127
1, 91620, Note_on_c, 1, 77, 127
1, 91620, Note_on_c, 1, 59, 127
1, 91629, Note_off_c, 1, 77, 0
1, 91630, Note_on_c, 1, 79, 127
1, 91639, Note_off_c, 1, 79, 0
1, 91649, Note_off_c, 1, 59, 0
1, 91650, Note_on_c, 1, 62, 127
1, 91679, Note_off_c, 1, 50, 0
1, 91679, Note_off_c, 1, 62, 0
1, 91680, Note_on_c, 1, 52, 127
1, 91680, Note_on_c, 1, 77, 127
1, 91680, Note_on_c, 1, 56, 127
1, 91709, Note_off_c, 1, 77, 0
1, 91709, Note_off_c, 1, 56, 0
1, 91710, Note_on_c, 1, 74, 127
1, 91710, Note_on_c, 1, 65, 127
1, 91739, Note_off_c, 1, 74, 0
1, 91739, Note_off_c, 1, 65, 0
1, 91740, Note_on_c, 1, 72, 127
1, 91740, Note_on_c, 1, 64, 127
1, 91769, Note_off_c, 1, 72, 0
1, 91769, Note_off_c, 1, 64, 0
1, 91770, Note_on_c, 1, 71, 127
1, 91770, Note_on_c, 1, 62, 127
1, 91799, Note_off_c, 1, 71, 0
1, 91799, Note_off_c, 1, 62, 0
1, 91800, Note_on_c, 1, 76, 127
1, 91800, Note_on_c, 1, 60, 127
1, 91829, Note_off_c, 1, 76, 0
1, 91829, Note_off_c, 1, 60, 0
1, 91860, Note_on_c, 1, 68, 127
1, 91889, Note_off_c, 1, 68, 0
1, 91890, Note_on_c, 1, 69, 127
1, 91919, Note_off_c, 1, 69, 0
1, 91920, Note_on_c, 1, 59, 127
1, 91949, Note_off_c, 1, 59, 0
1, 92040, Note_on_c, 1, 57, 127
1, 92069, Note_off_c, 1, 57, 0
1, 92160, Note_on_c, 1, 70, 127
1, 92160, Note_on_c, 1, 55, 127
1, 92189, Note_off_c, 1, 70, 0
1, 92189, Note_off_c, 1, 55, 0
1, 92190, Note_on_c, 1, 67, 127
1, 92190, Note_on_c, 1, 58, 127
1, 92219, Note_off_c, 1, 67, 0
1, 92219, Note_off_c, 1, 58, 0
1, 92280, Note_on_c, 1, 53, 127
1, 92309, Note_off_c, 1, 53, 0
1, 92340, Note_on_c, 1, 61, 127
1, 92369, Note_off_c, 1, 61, 0
1, 92550, Note_on_c, 1, 66, 127
1, 92579, Note_off_c, 1, 66, 0
1, 92580, Note_on_c, 1, 54, 127
1, 92639, Note_off_c, 1, 54, 0
1, 93060, Note_on_c, 1, 75, 127
1, 93089, Note_off_c, 1, 75, 0
1, 93180, Note_off_c, 1, 52, 0
1, 93180, Note_on_c, 1, 47, 127
1, 93239, Note_off_c, 1, 47, 0
1, 93240, Note_on_c, 1, 44, 127
1, 93240, Note_on_c, 1, 76, 127
1, 93240, Note_on_c, 1, 59, 127
1, 93269, Note_off_c, 1, 76, 0
1, 93270, Note_on_c, 1, 74, 127
1, 93299, Note_off_c, 1, 44, 0
1, 93299, Note_off_c, 1, 59, 0
1, 93299, Note_off_c, 1, 74, 0
1, 93300, Note_on_c, 1, 40, 127
1, 93300, Note_on_c, 1, 80, 127
1, 93300, Note_on_c, 1, 64, 127
1, 93329, Note_off_c, 1, 80, 0
1, 93330, Note_on_c, 1, 81, 127
1, 93359, Note_off_c, 1, 40, 0
1, 93359, Note_off_c, 1, 81, 0
1, 93360, Note_on_c, 1, 76, 127
1, 93360, Note_on_c, 1, 72, 127
1, 93360, Note_on_c, 1, 45, 127
1, 93360, Note_on_c, 1, 60, 127
1, 93360, Note_on_c, 1, 57, 127
1, 93389, Note_off_c, 1, 64, 0
1, 93389, Note_off_c, 1, 60, 0
1, 93389, Note_off_c, 1, 57, 0
1, 93390, Note_on_c, 1, 62, 127
1, 93390, Note_on_c, 1, 59, 127
1, 93419, Note_off_c, 1, 76, 0
1, 93419, Note_off_c, 1, 72, 0
1, 93419, Note_off_c, 1, 45, 0
1, 93419, Note_off_c, 1, 62, 0
1, 93419, Note_off_c, 1, 59, 0
1, 93420, Note_on_c, 1, 81, 127
1, 93420, Note_on_c, 1, 60, 127
1, 93420, Note_on_c, 1, 57, 127
1, 93449, Note_off_c, 1, 60, 0
1, 93449, Note_off_c, 1, 57, 0
1, 93450, Note_on_c, 1, 64, 127
1, 93479, Note_off_c, 1, 64, 0
1, 93480, Note_on_c, 1, 74, 127
1, 93480, Note_on_c, 1, 71, 127
1, 93480, Note_on_c, 1, 47, 127
1, 93480, Note_on_c, 1, 62, 127
1, 93480, Note_on_c, 1, 65, 127
1, 93480, Note_on_c, 1, 59, 127
1, 93509, Note_off_c, 1, 62, 0
1, 93509, Note_off_c, 1, 65, 0
1, 93509, Note_off_c, 1, 59, 0
1, 93539, Note_off_c, 1, 81, 0
1, 93539, Note_off_c, 1, 74, 0
1, 93539, Note_off_c, 1, 71, 0
1, 93539, Note_off_c, 1, 47, 0
1, 93540, Note_on_c, 1, 80, 127
1, 93540, Note_on_c, 1, 59, 127
1, 93540, Note_on_c, 1, 62, 127
1, 93569, Note_off_c, 1, 59, 0
1, 93569, Note_off_c, 1, 62, 0
1, 93570, Note_on_c, 1, 64, 127
1, 93599, Note_off_c, 1, 80, 0
1, 93599, Note_off_c, 1, 64, 0
1, 93600, Note_on_c, 1, 81, 127
1, 93600, Note_on_c, 1, 72, 127
1, 93600, Note_on_c, 1, 76, 127
1, 93600, Note_on_c, 1, 48, 127
1, 93600, Note_on_c, 1, 57, 127
1, 93600, Note_on_c, 1, 60, 127
1, 93629, Note_off_c, 1, 57, 0
1, 93629, Note_off_c, 1, 60, 0
1, 93630, Note_on_c, 1, 64, 127
1, 93659, Note_off_c, 1, 81, 0
1, 93659, Note_off_c, 1, 72, 0
1, 93659, Note_off_c, 1, 76, 0
1, 93659, Note_off_c, 1, 48, 0
1, 93659, Note_off_c, 1, 64, 0
1, 93660, Note_on_c, 1, 83, 127
1, 93660, Note_on_c, 1, 62, 127
1, 93660, Note_on_c, 1, 65, 127
1, 93689, Note_off_c, 1, 62, 0
1, 93689, Note_off_c, 1, 65, 0
1, 93690, Note_on_c, 1, 64, 127
1, 93690, Note_on_c, 1, 60, 127
1, 93719, Note_off_c, 1, 64, 0
1, 93719, Note_off_c, 1, 60, 0
1, 93720, Note_on_c, 1, 77, 127
1, 93720, Note_on_c, 1, 74, 127
1, 93720, Note_on_c, 1, 50, 127
1, 93720, Note_on_c, 1, 59, 127
1, 93749, Note_off_c, 1, 59, 0
1, 93750, Note_on_c, 1, 57, 127
1, 93779, Note_off_c, 1, 83, 0
1, 93779, Note_off_c, 1, 77, 0
1, 93779, Note_off_c, 1, 74, 0
1, 93779, Note_off_c, 1, 50, 0
1, 93779, Note_off_c, 1, 57, 0
1, 93780, Note_on_c, 1, 84, 127
1, 93780, Note_on_c, 1, 64, 127
1, 93780, Note_on_c, 1, 56, 127
1, 93809, Note_off_c, 1, 64, 0
1, 93809, Note_off_c, 1, 56, 0
1, 93810, Note_on_c, 1, 66, 127
1, 93810, Note_on_c, 1, 62, 127
1, 93810, Note_on_c, 1, 54, 127
1, 93839, Note_off_c, 1, 66, 0
1, 93839, Note_off_c, 1, 62, 0
1, 93839, Note_off_c, 1, 54, 0
1, 93840, Note_on_c, 1, 76, 127
1, 93840, Note_on_c, 1, 68, 127
1, 93840, Note_on_c, 1, 52, 127
1, 93840, Note_on_c, 1, 60, 127
1, 93869, Note_off_c, 1, 60, 0
1, 93870, Note_on_c, 1, 57, 127
1, 93899, Note_off_c, 1, 84, 0
1, 93899, Note_off_c, 1, 76, 0
1, 93899, Note_off_c, 1, 68, 0
1, 93899, Note_off_c, 1, 52, 0
1, 93899, Note_off_c, 1, 57, 0
1, 93900, Note_on_c, 1, 83, 127
1, 93900, Note_on_c, 1, 72, 127
1, 93900, Note_on_c, 1, 69, 127
1, 93900, Note_on_c, 1, 53, 127
1, 93900, Note_on_c, 1, 65, 127
1, 93929, Note_off_c, 1, 83, 0
1, 93930, Note_on_c, 1, 81, 127
1, 93959, Note_off_c, 1, 72, 0
1, 93959, Note_off_c, 1, 69, 0
1, 93959, Note_off_c, 1, 53, 0
1, 93959, Note_off_c, 1, 65, 0
1, 93959, Note_off_c, 1, 81, 0
1, 93960, Note_on_c, 1, 84, 127
1, 93960, Note_on_c, 1, 74, 127
1, 93960, Note_on_c, 1, 65, 127
1, 93960, Note_on_c, 1, 50, 127
1, 93960, Note_on_c, 1, 62, 127
1, 93989, Note_off_c, 1, 84, 0
1, 93990, Note_on_c, 1, 83, 127
1, 94019, Note_off_c, 1, 74, 0
1, 94019, Note_off_c, 1, 65, 0
1, 94019, Note_off_c, 1, 50, 0
1, 94019, Note_off_c, 1, 62, 0
1, 94019, Note_off_c, 1, 83, 0
1, 94020, Note_on_c, 1, 81, 127
1, 94020, Note_on_c, 1, 71, 127
1, 94020, Note_on_c, 1, 64, 127
1, 94020, Note_on_c, 1, 52, 127
1, 94049, Note_off_c, 1, 81, 0
1, 94050, Note_on_c, 1, 80, 127
1, 94079, Note_off_c, 1, 71, 0
1, 94079, Note_off_c, 1, 64, 0
1, 94079, Note_off_c, 1, 52, 0
1, 94079, Note_off_c, 1, 80, 0
1, 94080, Note_on_c, 1, 81, 127
1, 94080, Note_on_c, 1, 72, 127
1, 94080, Note_on_c, 1, 64, 127
1, 94080, Note_on_c, 1, 45, 127
1, 94080, Note_on_c, 1, 57, 127
1, 94109, Note_off_c, 1, 81, 0
1, 94110, Note_on_c, 1, 76, 127
1, 94139, Note_off_c, 1, 76, 0
1, 94199, Note_off_c, 1, 72, 0
1, 94199, Note_off_c, 1, 64, 0
1, 94199, Note_off_c, 1, 45, 0
1, 94199, Note_off_c, 1, 57, 0
1, 94200, Note_on_c, 1, 69, 127
1, 94230, Note_on_c, 1, 52, 127
1, 94259, Note_off_c, 1, 69, 0
1, 94259, Note_off_c, 1, 52, 0
1, 94260, Note_on_c, 1, 48, 127
1, 94289, Note_off_c, 1, 48, 0
1, 94290, Note_on_c, 1, 52, 127
1, 94319, Note_off_c, 1, 52, 0
1, 94320, Note_on_c, 1, 45, 127
1, 94320, Note_on_c, 1, 64, 127
1, 94349, Note_off_c, 1, 64, 0
1, 94350, Note_on_c, 1, 60, 127
1, 94350, Note_on_c, 1, 52, 127
1, 94379, Note_off_c, 1, 45, 0
1, 94379, Note_off_c, 1, 60, 0
1, 94379, Note_off_c, 1, 52, 0
1, 94380, Note_on_c, 1, 52, 127
1, 94380, Note_on_c, 1, 59, 127
1, 94380, Note_on_c, 1, 50, 127
1, 94409, Note_off_c, 1, 59, 0
1, 94409, Note_off_c, 1, 50, 0
1, 94410, Note_on_c, 1, 57, 127
1, 94439, Note_off_c, 1, 52, 0
1, 94439, Note_off_c, 1, 57, 0
1, 94440, Note_on_c, 1, 57, 127
1, 94440, Note_on_c, 1, 64, 127
1, 94440, Note_on_c, 1, 48, 127
1, 94469, Note_off_c, 1, 64, 0
1, 94469, Note_off_c, 1, 48, 0
1, 94470, Note_on_c, 1, 60, 127
1, 94470, Note_on_c, 1, 52, 127
1, 94499, Note_off_c, 1, 60, 0
1, 94499, Note_off_c, 1, 52, 0
1, 94500, Note_on_c, 1, 59, 127
1, 94500, Note_on_c, 1, 50, 127
1, 94529, Note_off_c, 1, 59, 0
1, 94529, Note_off_c, 1, 50, 0
1, 94560, Note_on_c, 1, 65, 127
1, 94560, Note_on_c, 1, 47, 127
1, 94589, Note_off_c, 1, 65, 0
1, 94589, Note_off_c, 1, 47, 0
1, 94590, Note_on_c, 1, 62, 127
1, 94619, Note_off_c, 1, 57, 0
1, 94619, Note_off_c, 1, 62, 0
1, 94620, Note_on_c, 1, 56, 127
1, 94620, Note_on_c, 1, 64, 127
1, 94620, Note_on_c, 1, 50, 127
1, 94649, Note_off_c, 1, 64, 0
1, 94649, Note_off_c, 1, 50, 0
1, 94650, Note_on_c, 1, 59, 127
1, 94650, Note_on_c, 1, 52, 127
1, 94679, Note_off_c, 1, 56, 0
1, 94679, Note_off_c, 1, 59, 0
1, 94679, Note_off_c, 1, 52, 0
1, 94680, Note_on_c, 1, 57, 127
1, 94680, Note_on_c, 1, 60, 127
1, 94680, Note_on_c, 1, 45, 127
1, 94709, Note_off_c, 1, 60, 0
1, 94739, Note_off_c, 1, 57, 0
1, 94739, Note_off_c, 1, 45, 0
1, 94740, Note_on_c, 1, 60, 127
1, 94769, Note_off_c, 1, 60, 0
1, 94770, Note_on_c, 1, 64, 127
1, 94799, Note_off_c, 1, 64, 0
1, 94800, Note_on_c, 1, 67, 127
1, 94800, Note_on_c, 1, 46, 127
1, 94829, Note_off_c, 1, 67, 0
1, 94829, Note_off_c, 1, 46, 0
1, 94830, Note_on_c, 1, 64, 127
1, 94830, Note_on_c, 1, 55, 127
1, 94859, Note_off_c, 1, 64, 0
1, 94859, Note_off_c, 1, 55, 0
1, 94860, Note_on_c, 1, 58, 127
1, 94860, Note_on_c, 1, 62, 127
1, 94860, Note_on_c, 1, 53, 127
1, 94889, Note_off_c, 1, 62, 0
1, 94889, Note_off_c, 1, 53, 0
1, 94890, Note_on_c, 1, 61, 127
1, 94890, Note_on_c, 1, 55, 127
1, 94919, Note_off_c, 1, 61, 0
1, 94919, Note_off_c, 1, 55, 0
1, 94920, Note_on_c, 1, 67, 127
1, 94920, Note_on_c, 1, 52, 127
1, 94949, Note_off_c, 1, 67, 0
1, 94949, Note_off_c, 1, 52, 0
1, 94950, Note_on_c, 1, 64, 127
1, 94979, Note_off_c, 1, 58, 0
1, 94979, Note_off_c, 1, 64, 0
1, 94980, Note_on_c, 1, 55, 127
1, 94980, Note_on_c, 1, 62, 127
1, 94980, Note_on_c, 1, 53, 127
1, 95009, Note_off_c, 1, 62, 0
1, 95009, Note_off_c, 1, 53, 0
1, 95010, Note_on_c, 1, 61, 127
1, 95039, Note_off_c, 1, 55, 0
1, 95039, Note_off_c, 1, 61, 0
1, 95040, Note_on_c, 1, 52, 127
1, 95040, Note_on_c, 1, 70, 127
1, 95040, Note_on_c, 1, 49, 127
1, 95069, Note_off_c, 1, 70, 0
1, 95069, Note_off_c, 1, 49, 0
1, 95070, Note_on_c, 1, 67, 127
1, 95070, Note_on_c, 1, 55, 127
1, 95099, Note_off_c, 1, 52, 0
1, 95099, Note_off_c, 1, 67, 0
1, 95099, Note_off_c, 1, 55, 0
1, 95100, Note_on_c, 1, 61, 127
1, 95100, Note_on_c, 1, 69, 127
1, 95100, Note_on_c, 1, 53, 127
1, 95129, Note_off_c, 1, 69, 0
1, 95129, Note_off_c, 1, 53, 0
1, 95130, Note_on_c, 1, 64, 127
1, 95130, Note_on_c, 1, 55, 127
1, 95159, Note_off_c, 1, 61, 0
1, 95159, Note_off_c, 1, 64, 0
1, 95159, Note_off_c, 1, 55, 0
1, 95160, Note_on_c, 1, 62, 127
1, 95160, Note_on_c, 1, 65, 127
1, 95160, Note_on_c, 1, 50, 127
1, 95189, Note_off_c, 1, 65, 0
1, 95219, Note_off_c, 1, 62, 0
1, 95219, Note_off_c, 1, 50, 0
1, 95220, Note_on_c, 1, 65, 127
1, 95249, Note_off_c, 1, 65, 0
1, 95250, Note_on_c, 1, 69, 127
1, 95279, Note_off_c, 1, 69, 0
1, 95280, Note_on_c, 1, 74, 127
1, 95280, Note_on_c, 1, 50, 127
1, 95309, Note_off_c, 1, 74, 0
1, 95309, Note_off_c, 1, 50, 0
1, 95310, Note_on_c, 1, 65, 127
1, 95310, Note_on_c, 1, 57, 127
1, 95339, Note_off_c, 1, 65, 0
1, 95339, Note_off_c, 1, 57, 0
1, 95340, Note_on_c, 1, 62, 127
1, 95340, Note_on_c, 1, 63, 127
1, 95340, Note_on_c, 1, 55, 127
1, 95369, Note_off_c, 1, 63, 0
1, 95369, Note_off_c, 1, 55, 0
1, 95370, Note_on_c, 1, 57, 127
1, 95399, Note_off_c, 1, 62, 0
1, 95399, Note_off_c, 1, 57, 0
1, 95400, Note_on_c, 1, 65, 127
1, 95400, Note_on_c, 1, 74, 127
1, 95400, Note_on_c, 1, 48, 127
1, 95429, Note_off_c, 1, 74, 0
1, 95429, Note_off_c, 1, 48, 0
1, 95430, Note_on_c, 1, 56, 127
1, 95459, Note_off_c, 1, 65, 0
1, 95459, Note_off_c, 1, 56, 0
1, 95460, Note_on_c, 1, 58, 127
1, 95460, Note_on_c, 1, 63, 127
1, 95460, Note_on_c, 1, 55, 127
1, 95489, Note_off_c, 1, 63, 0
1, 95489, Note_off_c, 1, 55, 0
1, 95490, Note_on_c, 1, 62, 127
1, 95490, Note_on_c, 1, 56, 127
1, 95519, Note_off_c, 1, 58, 0
1, 95519, Note_off_c, 1, 62, 0
1, 95519, Note_off_c, 1, 56, 0
1, 95520, Note_on_c, 1, 55, 127
1, 95520, Note_on_c, 1, 74, 127
1, 95520, Note_on_c, 1, 47, 127
1, 95549, Note_off_c, 1, 74, 0
1, 95549, Note_off_c, 1, 47, 0
1, 95550, Note_on_c, 1, 65, 127
1, 95579, Note_off_c, 1, 55, 0
1, 95579, Note_off_c, 1, 65, 0
1, 95580, Note_on_c, 1, 59, 127
1, 95580, Note_on_c, 1, 67, 127
1, 95580, Note_on_c, 1, 53, 127
1, 95609, Note_off_c, 1, 67, 0
1, 95609, Note_off_c, 1, 53, 0
1, 95610, Note_on_c, 1, 62, 127
1, 95610, Note_on_c, 1, 55, 127
1, 95639, Note_off_c, 1, 59, 0
1, 95639, Note_off_c, 1, 62, 0
1, 95639, Note_off_c, 1, 55, 0
1, 95640, Note_on_c, 1, 48, 127
1, 95640, Note_on_c, 1, 63, 127
1, 95669, Note_off_c, 1, 63, 0
1, 95670, Note_on_c, 1, 60, 127
1, 95699, Note_off_c, 1, 48, 0
1, 95699, Note_off_c, 1, 60, 0
1, 95700, Note_on_c, 1, 63, 127
1, 95729, Note_off_c, 1, 63, 0
1, 95730, Note_on_c, 1, 67, 127
1, 95759, Note_off_c, 1, 67, 0
1, 95760, Note_on_c, 1, 72, 127
1, 95760, Note_on_c, 1, 48, 127
1, 95789, Note_off_c, 1, 72, 0
1, 95789, Note_off_c, 1, 48, 0
1, 95790, Note_on_c, 1, 63, 127
1, 95790, Note_on_c, 1, 55, 127
1, 95819, Note_off_c, 1, 63, 0
1, 95819, Note_off_c, 1, 55, 0
1, 95820, Note_on_c, 1, 60, 127
1, 95820, Note_on_c, 1, 62, 127
1, 95820, Note_on_c, 1, 53, 127
1, 95849, Note_off_c, 1, 62, 0
1, 95849, Note_off_c, 1, 53, 0
1, 95850, Note_on_c, 1, 55, 127
1, 95879, Note_off_c, 1, 60, 0
1, 95879, Note_off_c, 1, 55, 0
1, 95880, Note_on_c, 1, 63, 127
1, 95880, Note_on_c, 1, 72, 127
1, 95880, Note_on_c, 1, 46, 127
1, 95909, Note_off_c, 1, 72, 0
1, 95909, Note_off_c, 1, 46, 0
1, 95910, Note_on_c, 1, 55, 127
1, 95939, Note_off_c, 1, 63, 0
1, 95939, Note_off_c, 1, 55, 0
1, 95940, Note_on_c, 1, 55, 127
1, 95940, Note_on_c, 1, 62, 127
1, 95940, Note_on_c, 1, 53, 127
1, 95969, Note_off_c, 1, 62, 0
1, 95969, Note_off_c, 1, 53, 0
1, 95970, Note_on_c, 1, 60, 127
1, 95999, Note_off_c, 1, 55, 0
1, 95999, Note_off_c, 1, 60, 0
1, 96000, Note_on_c, 1, 53, 127
1, 96000, Note_on_c, 1, 72, 127
1, 96000, Note_on_c, 1, 45, 127
1, 96029, Note_off_c, 1, 72, 0
1, 96029, Note_off_c, 1, 45, 0
1, 96030, Note_on_c, 1, 63, 127
1, 96059, Note_off_c, 1, 53, 0
1, 96059, Note_off_c, 1, 63, 0
1, 96060, Note_on_c, 1, 57, 127
1, 96060, Note_on_c, 1, 65, 127
1, 96060, Note_on_c, 1, 51, 127
1, 96089, Note_off_c, 1, 65, 0
1, 96089, Note_off_c, 1, 51, 0
1, 96090, Note_on_c, 1, 60, 127
1, 96090, Note_on_c, 1, 53, 127
1, 96119, Note_off_c, 1, 57, 0
1, 96119, Note_off_c, 1, 60, 0
1, 96119, Note_off_c, 1, 53, 0
1, 96120, Note_on_c, 1, 46, 127
1, 96120, Note_on_c, 1, 62, 127
1, 96149, Note_off_c, 1, 62, 0
1, 96150, Note_on_c, 1, 58, 127
1, 96179, Note_off_c, 1, 46, 0
1, 96179, Note_off_c, 1, 58, 0
1, 96180, Note_on_c, 1, 62, 127
1, 96209, Note_off_c, 1, 62, 0
1, 96210, Note_on_c, 1, 63, 127
1, 96239, Note_off_c, 1, 63, 0
1, 96240, Note_on_c, 1, 65, 127
1, 96269, Note_off_c, 1, 65, 0
1, 96270, Note_on_c, 1, 70, 127
1, 96270, Note_on_c, 1, 50, 127
1, 96299, Note_off_c, 1, 70, 0
1, 96299, Note_off_c, 1, 50, 0
1, 96300, Note_on_c, 1, 46, 127
1, 96300, Note_on_c, 1, 72, 127
1, 96300, Note_on_c, 1, 48, 127
1, 96329, Note_off_c, 1, 72, 0
1, 96329, Note_off_c, 1, 48, 0
1, 96330, Note_on_c, 1, 74, 127
1, 96359, Note_off_c, 1, 46, 0
1, 96359, Note_off_c, 1, 74, 0
1, 96360, Note_on_c, 1, 39, 127
1, 96360, Note_on_c, 1, 67, 127
1, 96360, Note_on_c, 1, 51, 127
1, 96389, Note_off_c, 1, 67, 0
1, 96389, Note_off_c, 1, 51, 0
1, 96390, Note_on_c, 1, 62, 127
1, 96390, Note_on_c, 1, 44, 127
1, 96419, Note_off_c, 1, 39, 0
1, 96419, Note_off_c, 1, 62, 0
1, 96419, Note_off_c, 1, 44, 0
1, 96420, Note_on_c, 1, 63, 127
1, 96420, Note_on_c, 1, 43, 127
1, 96449, Note_off_c, 1, 63, 0
1, 96449, Note_off_c, 1, 43, 0
1, 96450, Note_on_c, 1, 65, 127
1, 96450, Note_on_c, 1, 41, 127
1, 96479, Note_off_c, 1, 65, 0
1, 96479, Note_off_c, 1, 41, 0
1, 96480, Note_on_c, 1, 67, 127
1, 96480, Note_on_c, 1, 39, 127
1, 96509, Note_off_c, 1, 67, 0
1, 96509, Note_off_c, 1, 39, 0
1, 96510, Note_on_c, 1, 72, 127
1, 96510, Note_on_c, 1, 51, 127
1, 96539, Note_off_c, 1, 72, 0
1, 96539, Note_off_c, 1, 51, 0
1, 96540, Note_on_c, 1, 48, 127
1, 96540, Note_on_c, 1, 74, 127
1, 96540, Note_on_c, 1, 50, 127
1, 96569, Note_off_c, 1, 74, 0
1, 96569, Note_off_c, 1, 50, 0
1, 96570, Note_on_c, 1, 75, 127
1, 96599, Note_off_c, 1, 48, 0
1, 96599, Note_off_c, 1, 75, 0
1, 96600, Note_on_c, 1, 41, 127
1, 96600, Note_on_c, 1, 69, 127
1, 96600, Note_on_c, 1, 53, 127
1, 96629, Note_off_c, 1, 69, 0
1, 96629, Note_off_c, 1, 53, 0
1, 96630, Note_on_c, 1, 64, 127
1, 96630, Note_on_c, 1, 46, 127
1, 96659, Note_off_c, 1, 41, 0
1, 96659, Note_off_c, 1, 64, 0
1, 96659, Note_off_c, 1, 46, 0
1, 96660, Note_on_c, 1, 65, 127
1, 96660, Note_on_c, 1, 45, 127
1, 96689, Note_off_c, 1, 65, 0
1, 96689, Note_off_c, 1, 45, 0
1, 96690, Note_on_c, 1, 67, 127
1, 96690, Note_on_c, 1, 43, 127
1, 96719, Note_off_c, 1, 67, 0
1, 96719, Note_off_c, 1, 43, 0
1, 96720, Note_on_c, 1, 69, 127
1, 96720, Note_on_c, 1, 41, 127
1, 96749, Note_off_c, 1, 69, 0
1, 96749, Note_off_c, 1, 41, 0
1, 96750, Note_on_c, 1, 74, 127
1, 96750, Note_on_c, 1, 53, 127
1, 96779, Note_off_c, 1, 74, 0
1, 96779, Note_off_c, 1, 53, 0
1, 96780, Note_on_c, 1, 62, 127
1, 96780, Note_on_c, 1, 75, 127
1, 96780, Note_on_c, 1, 51, 127
1, 96809, Note_off_c, 1, 75, 0
1, 96809, Note_off_c, 1, 51, 0
1, 96810, Note_on_c, 1, 77, 127
1, 96810, Note_on_c, 1, 50, 127
1, 96839, Note_off_c, 1, 62, 0
1, 96839, Note_off_c, 1, 77, 0
1, 96839, Note_off_c, 1, 50, 0
1, 96840, Note_on_c, 1, 51, 127
1, 96840, Note_on_c, 1, 67, 127
1, 96869, Note_off_c, 1, 67, 0
1, 96870, Note_on_c, 1, 72, 127
1, 96870, Note_on_c, 1, 48, 127
1, 96899, Note_off_c, 1, 51, 0
1, 96899, Note_off_c, 1, 72, 0
1, 96899, Note_off_c, 1, 48, 0
1, 96900, Note_on_c, 1, 60, 127
1, 96900, Note_on_c, 1, 74, 127
1, 96900, Note_on_c, 1, 46, 127
1, 96929, Note_off_c, 1, 74, 0
1, 96929, Note_off_c, 1, 46, 0
1, 96930, Note_on_c, 1, 75, 127
1, 96930, Note_on_c, 1, 45, 127
1, 96959, Note_off_c, 1, 60, 0
1, 96959, Note_off_c, 1, 75, 0
1, 96959, Note_off_c, 1, 45, 0
1, 96960, Note_on_c, 1, 50, 127
1, 96960, Note_on_c, 1, 65, 127
1, 96989, Note_off_c, 1, 65, 0
1, 96990, Note_on_c, 1, 70, 127
1, 96990, Note_on_c, 1, 46, 127
1, 97019, Note_off_c, 1, 50, 0
1, 97019, Note_off_c, 1, 70, 0
1, 97019, Note_off_c, 1, 46, 0
1, 97020, Note_on_c, 1, 58, 127
1, 97020, Note_on_c, 1, 72, 127
1, 97020, Note_on_c, 1, 45, 127
1, 97049, Note_off_c, 1, 72, 0
1, 97049, Note_off_c, 1, 45, 0
1, 97050, Note_on_c, 1, 74, 127
1, 97050, Note_on_c, 1, 43, 127
1, 97079, Note_off_c, 1, 58, 0
1, 97079, Note_off_c, 1, 74, 0
1, 97079, Note_off_c, 1, 43, 0
1, 97080, Note_on_c, 1, 48, 127
1, 97080, Note_on_c, 1, 63, 127
1, 97109, Note_off_c, 1, 63, 0
1, 97110, Note_on_c, 1, 69, 127
1, 97110, Note_on_c, 1, 45, 127
1, 97139, Note_off_c, 1, 48, 0
1, 97139, Note_off_c, 1, 69, 0
1, 97139, Note_off_c, 1, 45, 0
1, 97140, Note_on_c, 1, 57, 127
1, 97140, Note_on_c, 1, 70, 127
1, 97140, Note_on_c, 1, 43, 127
1, 97169, Note_off_c, 1, 70, 0
1, 97169, Note_off_c, 1, 43, 0
1, 97170, Note_on_c, 1, 72, 127
1, 97170, Note_on_c, 1, 41, 127
1, 97199, Note_off_c, 1, 57, 0
1, 97199, Note_off_c, 1, 72, 0
1, 97199, Note_off_c, 1, 41, 0
1, 97200, Note_on_c, 1, 46, 127
1, 97200, Note_on_c, 1, 62, 127
1, 97229, Note_off_c, 1, 62, 0
1, 97230, Note_on_c, 1, 77, 127
1, 97230, Note_on_c, 1, 50, 127
1, 97259, Note_off_c, 1, 46, 0
1, 97259, Note_off_c, 1, 77, 0
1, 97259, Note_off_c, 1, 50, 0
1, 97260, Note_on_c, 1, 58, 127
1, 97260, Note_on_c, 1, 79, 127
1, 97260, Note_on_c, 1, 52, 127
1, 97289, Note_off_c, 1, 58, 0
1, 97289, Note_off_c, 1, 79, 0
1, 97289, Note_off_c, 1, 52, 0
1, 97290, Note_on_c, 1, 57, 127
1, 97290, Note_on_c, 1, 81, 127
1, 97290, Note_on_c, 1, 53, 127
1, 97319, Note_off_c, 1, 57, 0
1, 97319, Note_off_c, 1, 81, 0
1, 97319, Note_off_c, 1, 53, 0
1, 97320, Note_on_c, 1, 55, 127
1, 97320, Note_on_c, 1, 82, 127
1, 97349, Note_off_c, 1, 82, 0
1, 97350, Note_on_c, 1, 76, 127
1, 97350, Note_on_c, 1, 46, 127
1, 97379, Note_off_c, 1, 55, 0
1, 97379, Note_off_c, 1, 76, 0
1, 97379, Note_off_c, 1, 46, 0
1, 97380, Note_on_c, 1, 52, 127
1, 97380, Note_on_c, 1, 77, 127
1, 97380, Note_on_c, 1, 45, 127
1, 97409, Note_off_c, 1, 77, 0
1, 97409, Note_off_c, 1, 45, 0
1, 97410, Note_on_c, 1, 79, 127
1, 97410, Note_on_c, 1, 43, 127
1, 97439, Note_off_c, 1, 52, 0
1, 97439, Note_off_c, 1, 79, 0
1, 97439, Note_off_c, 1, 43, 0
1, 97440, Note_on_c, 1, 57, 127
1, 97440, Note_on_c, 1, 73, 127
1, 97440, Note_on_c, 1, 45, 127
1, 97469, Note_off_c, 1, 73, 0
1, 97470, Note_on_c, 1, 76, 127
1, 97499, Note_off_c, 1, 57, 0
1, 97499, Note_off_c, 1, 45, 0
1, 97499, Note_off_c, 1, 76, 0
1, 97500, Note_on_c, 1, 77, 127
1, 97500, Note_on_c, 1, 69, 127
1, 97529, Note_off_c, 1, 77, 0
1, 97530, Note_on_c, 1, 79, 127
1, 97559, Note_off_c, 1, 69, 0
1, 97559, Note_off_c, 1, 79, 0
1, 97560, Note_on_c, 1, 45, 127
1, 97560, Note_on_c, 1, 73, 127
1, 97560, Note_on_c, 1, 64, 127
1, 97589, Note_off_c, 1, 73, 0
1, 97590, Note_on_c, 1, 67, 127
1, 97619, Note_off_c, 1, 45, 0
1, 97619, Note_off_c, 1, 64, 0
1, 97619, Note_off_c, 1, 67, 0
1, 97620, Note_on_c, 1, 69, 127
1, 97620, Note_on_c, 1, 65, 127
1, 97649, Note_off_c, 1, 69, 0
1, 97650, Note_on_c, 1, 70, 127
1, 97679, Note_off_c, 1, 65, 0
1, 97679, Note_off_c, 1, 70, 0
1, 97680, Note_on_c, 1, 57, 127
1, 97680, Note_on_c, 1, 67, 127
1, 97680, Note_on_c, 1, 64, 127
1, 97709, Note_off_c, 1, 67, 0
1, 97710, Note_on_c, 1, 73, 127
1, 97739, Note_off_c, 1, 57, 0
1, 97739, Note_off_c, 1, 64, 0
1, 97739, Note_off_c, 1, 73, 0
1, 97740, Note_on_c, 1, 74, 127
1, 97740, Note_on_c, 1, 62, 127
1, 97769, Note_off_c, 1, 74, 0
1, 97770, Note_on_c, 1, 76, 127
1, 97799, Note_off_c, 1, 62, 0
1, 97799, Note_off_c, 1, 76, 0
1, 97800, Note_on_c, 1, 45, 127
1, 97800, Note_on_c, 1, 67, 127
1, 97800, Note_on_c, 1, 61, 127
1, 97829, Note_off_c, 1, 67, 0
1, 97830, Note_on_c, 1, 64, 127
1, 97859, Note_off_c, 1, 45, 0
1, 97859, Note_off_c, 1, 61, 0
1, 97859, Note_off_c, 1, 64, 0
1, 97860, Note_on_c, 1, 65, 127
1, 97860, Note_on_c, 1, 59, 127
1, 97889, Note_off_c, 1, 65, 0
1, 97890, Note_on_c, 1, 67, 127
1, 97919, Note_off_c, 1, 59, 0
1, 97919, Note_off_c, 1, 67, 0
1, 97920, Note_on_c, 1, 57, 127
1, 97920, Note_on_c, 1, 64, 127
1, 97920, Note_on_c, 1, 61, 127
1, 97949, Note_off_c, 1, 64, 0
1, 97950, Note_on_c, 1, 67, 127
1, 97979, Note_off_c, 1, 57, 0
1, 97979, Note_off_c, 1, 61, 0
1, 97979, Note_off_c, 1, 67, 0
1, 97980, Note_on_c, 1, 69, 127
1, 97980, Note_on_c, 1, 57, 127
1, 98009, Note_off_c, 1, 69, 0
1, 98010, Note_on_c, 1, 70, 127
1, 98039, Note_off_c, 1, 57, 0
1, 98039, Note_off_c, 1, 70, 0
1, 98040, Note_on_c, 1, 45, 127
1, 98040, Note_on_c, 1, 64, 127
1, 98040, Note_on_c, 1, 55, 127
1, 98069, Note_off_c, 1, 64, 0
1, 98070, Note_on_c, 1, 61, 127
1, 98099, Note_off_c, 1, 45, 0
1, 98099, Note_off_c, 1, 55, 0
1, 98099, Note_off_c, 1, 61, 0
1, 98100, Note_on_c, 1, 62, 127
1, 98100, Note_on_c, 1, 53, 127
1, 98129, Note_off_c, 1, 62, 0
1, 98130, Note_on_c, 1, 64, 127
1, 98159, Note_off_c, 1, 53, 0
1, 98159, Note_off_c, 1, 64, 0
1, 98160, Note_on_c, 1, 61, 127
1, 98160, Note_on_c, 1, 52, 127
1, 98189, Note_off_c, 1, 61, 0
1, 98190, Note_on_c, 1, 82, 127
1, 98219, Note_off_c, 1, 52, 0
1, 98219, Note_off_c, 1, 82, 0
1, 98220, Note_on_c, 1, 40, 127
1, 98220, Note_on_c, 1, 81, 127
1, 98220, Note_on_c, 1, 61, 127
1, 98249, Note_off_c, 1, 81, 0
1, 98250, Note_on_c, 1, 79, 127
1, 98279, Note_off_c, 1, 40, 0
1, 98279, Note_off_c, 1, 61, 0
1, 98279, Note_off_c, 1, 79, 0
1, 98280, Note_on_c, 1, 41, 127
1, 98280, Note_on_c, 1, 77, 127
1, 98280, Note_on_c, 1, 62, 127
1, 98309, Note_off_c, 1, 77, 0
1, 98309, Note_off_c, 1, 62, 0
1, 98310, Note_on_c, 1, 76, 127
1, 98310, Note_on_c, 1, 64, 127
1, 98339, Note_off_c, 1, 41, 0
1, 98339, Note_off_c, 1, 76, 0
1, 98339, Note_off_c, 1, 64, 0
1, 98340, Note_on_c, 1, 43, 127
1, 98340, Note_on_c, 1, 74, 127
1, 98340, Note_on_c, 1, 65, 127
1, 98369, Note_off_c, 1, 74, 0
1, 98369, Note_off_c, 1, 65, 0
1, 98370, Note_on_c, 1, 76, 127
1, 98370, Note_on_c, 1, 67, 127
1, 98399, Note_off_c, 1, 43, 0
1, 98399, Note_off_c, 1, 76, 0
1, 98399, Note_off_c, 1, 67, 0
1, 98400, Note_on_c, 1, 45, 127
1, 98400, Note_on_c, 1, 69, 127
1, 98400, Note_on_c, 1, 65, 127
1, 98429, Note_off_c, 1, 69, 0
1, 98429, Note_off_c, 1, 65, 0
1, 98430, Note_on_c, 1, 74, 127
1, 98430, Note_on_c, 1, 62, 127
1, 98459, Note_off_c, 1, 45, 0
1, 98459, Note_off_c, 1, 74, 0
1, 98459, Note_off_c, 1, 62, 0
1, 98460, Note_on_c, 1, 57, 127
1, 98460, Note_on_c, 1, 76, 127
1, 98460, Note_on_c, 1, 69, 127
1, 98489, Note_off_c, 1, 76, 0
1, 98489, Note_off_c, 1, 69, 0
1, 98490, Note_on_c, 1, 73, 127
1, 98490, Note_on_c, 1, 67, 127
1, 98519, Note_off_c, 1, 57, 0
1, 98519, Note_off_c, 1, 73, 0
1, 98519, Note_off_c, 1, 67, 0
1, 98520, Note_on_c, 1, 58, 127
1, 98520, Note_on_c, 1, 74, 127
1, 98520, Note_on_c, 1, 65, 127
1, 98549, Note_off_c, 1, 74, 0
1, 98549, Note_off_c, 1, 65, 0
1, 98550, Note_on_c, 1, 77, 127
1, 98550, Note_on_c, 1, 61, 127
1, 98579, Note_off_c, 1, 58, 0
1, 98579, Note_off_c, 1, 77, 0
1, 98579, Note_off_c, 1, 61, 0
1, 98580, Note_on_c, 1, 59, 127
1, 98580, Note_on_c, 1, 68, 127
1, 98580, Note_on_c, 1, 62, 127
1, 98609, Note_off_c, 1, 68, 0
1, 98610, Note_on_c, 1, 69, 127
1, 98639, Note_off_c, 1, 59, 0
1, 98639, Note_off_c, 1, 69, 0
1, 98640, Note_on_c, 1, 60, 127
1, 98640, Note_on_c, 1, 76, 127
1, 98669, Note_off_c, 1, 62, 0
1, 98669, Note_off_c, 1, 76, 0
1, 98670, Note_on_c, 1, 79, 127
1, 98670, Note_on_c, 1, 61, 127
1, 98699, Note_off_c, 1, 60, 0
1, 98699, Note_off_c, 1, 79, 0
1, 98699, Note_off_c, 1, 61, 0
1, 98700, Note_on_c, 1, 61, 127
1, 98700, Note_on_c, 1, 68, 127
1, 98700, Note_on_c, 1, 64, 127
1, 98729, Note_off_c, 1, 68, 0
1, 98730, Note_on_c, 1, 69, 127
1, 98759, Note_off_c, 1, 61, 0
1, 98759, Note_off_c, 1, 69, 0
1, 98760, Note_on_c, 1, 62, 127
1, 98760, Note_on_c, 1, 77, 127
1, 98789, Note_off_c, 1, 64, 0
1, 98789, Note_off_c, 1, 77, 0
1, 98790, Note_on_c, 1, 81, 127
1, 98819, Note_off_c, 1, 62, 0
1, 98819, Note_off_c, 1, 81, 0
1, 98820, Note_on_c, 1, 50, 127
1, 98820, Note_on_c, 1, 73, 127
1, 98820, Note_on_c, 1, 70, 127
1, 98849, Note_off_c, 1, 73, 0
1, 98850, Note_on_c, 1, 74, 127
1, 98879, Note_off_c, 1, 50, 0
1, 98879, Note_off_c, 1, 74, 0
1, 98880, Note_on_c, 1, 51, 127
1, 98880, Note_on_c, 1, 79, 127
1, 98909, Note_off_c, 1, 70, 0
1, 98909, Note_off_c, 1, 79, 0
1, 98910, Note_on_c, 1, 82, 127
1, 98910, Note_on_c, 1, 66, 127
1, 98939, Note_off_c, 1, 51, 0
1, 98939, Note_off_c, 1, 82, 0
1, 98939, Note_off_c, 1, 66, 0
1, 98940, Note_on_c, 1, 52, 127
1, 98940, Note_on_c, 1, 73, 127
1, 98940, Note_on_c, 1, 67, 127
1, 98969, Note_off_c, 1, 73, 0
1, 98970, Note_on_c, 1, 74, 127
1, 98999, Note_off_c, 1, 52, 0
1, 98999, Note_off_c, 1, 74, 0
1, 99000, Note_on_c, 1, 53, 127
1, 99000, Note_on_c, 1, 81, 127
1, 99029, Note_off_c, 1, 67, 0
1, 99029, Note_off_c, 1, 81, 0
1, 99030, Note_on_c, 1, 84, 127
1, 99030, Note_on_c, 1, 66, 127
1, 99059, Note_off_c, 1, 53, 0
1, 99059, Note_off_c, 1, 84, 0
1, 99059, Note_off_c, 1, 66, 0
1, 99060, Note_on_c, 1, 54, 127
1, 99060, Note_on_c, 1, 73, 127
1, 99060, Note_on_c, 1, 69, 127
1, 99089, Note_off_c, 1, 73, 0
1, 99090, Note_on_c, 1, 74, 127
1, 99119, Note_off_c, 1, 54, 0
1, 99119, Note_off_c, 1, 74, 0
1, 99120, Note_on_c, 1, 55, 127
1, 99120, Note_on_c, 1, 82, 127
1, 99134, Note_off_c, 1, 82, 0
1, 99135, Note_on_c, 1, 84, 127
1, 99149, Note_off_c, 1, 69, 0
1, 99149, Note_off_c, 1, 84, 0
1, 99150, Note_on_c, 1, 62, 127
1, 99179, Note_off_c, 1, 55, 0
1, 99179, Note_off_c, 1, 62, 0
1, 99180, Note_on_c, 1, 43, 127
1, 99180, Note_on_c, 1, 82, 127
1, 99180, Note_on_c, 1, 64, 127
1, 99189, Note_off_c, 1, 82, 0
1, 99190, Note_on_c, 1, 84, 127
1, 99199, Note_off_c, 1, 84, 0
1, 99209, Note_off_c, 1, 64, 0
1, 99210, Note_on_c, 1, 65, 127
1, 99239, Note_off_c, 1, 43, 0
1, 99239, Note_off_c, 1, 65, 0
1, 99240, Note_on_c, 1, 40, 127
1, 99240, Note_on_c, 1, 82, 127
1, 99240, Note_on_c, 1, 67, 127
1, 99249, Note_off_c, 1, 82, 0
1, 99250, Note_on_c, 1, 84, 127
1, 99259, Note_off_c, 1, 84, 0
1, 99269, Note_off_c, 1, 67, 0
1, 99270, Note_on_c, 1, 70, 127
1, 99299, Note_off_c, 1, 40, 0
1, 99299, Note_off_c, 1, 70, 0
1, 99300, Note_on_c, 1, 43, 127
1, 99300, Note_on_c, 1, 82, 127
1, 99300, Note_on_c, 1, 64, 127
1, 99309, Note_off_c, 1, 82, 0
1, 99310, Note_on_c, 1, 84, 127
1, 99319, Note_off_c, 1, 84, 0
1, 99329, Note_off_c, 1, 64, 0
1, 99330, Note_on_c, 1, 67, 127
1, 99359, Note_off_c, 1, 43, 0
1, 99359, Note_off_c, 1, 67, 0
1, 99360, Note_on_c, 1, 45, 127
1, 99360, Note_on_c, 1, 61, 127
1, 99389, Note_off_c, 1, 61, 0
1, 99390, Note_on_c, 1, 70, 127
1, 99395, Note_on_c, 1, 79, 127
1, 99419, Note_off_c, 1, 70, 0
1, 99420, Note_on_c, 1, 69, 127
1, 99424, Note_off_c, 1, 79, 0
1, 99425, Note_on_c, 1, 77, 127
1, 99449, Note_off_c, 1, 69, 0
1, 99454, Note_off_c, 1, 77, 0
1, 99455, Note_on_c, 1, 76, 127
1, 99480, Note_on_c, 1, 65, 127
1, 99484, Note_off_c, 1, 76, 0
1, 99485, Note_on_c, 1, 81, 127
1, 99509, Note_off_c, 1, 65, 0
1, 99514, Note_off_c, 1, 81, 0
1, 99545, Note_on_c, 1, 73, 127
1, 99574, Note_off_c, 1, 73, 0
1, 99575, Note_on_c, 1, 74, 127
1, 99604, Note_off_c, 1, 74, 0
1, 99720, Note_on_c, 1, 62, 127
1, 99749, Note_off_c, 1, 62, 0
1, 99840, Note_on_c, 1, 60, 127
1, 99845, Note_on_c, 1, 75, 127
1, 99869, Note_off_c, 1, 60, 0
1, 99870, Note_on_c, 1, 63, 127
1, 99874, Note_off_c, 1, 75, 0
1, 99875, Note_on_c, 1, 72, 127
1, 99899, Note_off_c, 1, 63, 0
1, 99904, Note_off_c, 1, 72, 0
1, 99960, Note_on_c, 1, 58, 127
1, 99989, Note_off_c, 1, 58, 0
1, 100025, Note_on_c, 1, 66, 127
1, 100054, Note_off_c, 1, 66, 0
1, 100080, Note_on_c, 1, 57, 127
1, 100139, Note_off_c, 1, 57, 0
1, 100235, Note_on_c, 1, 71, 127
1, 100260, Note_on_c, 1, 59, 127
1, 100264, Note_off_c, 1, 71, 0
1, 100265, Note_on_c, 1, 68, 127
1, 100294, Note_off_c, 1, 68, 0
1, 100319, Note_off_c, 1, 59, 0
1, 100745, Note_on_c, 1, 80, 127
1, 100774, Note_off_c, 1, 80, 0
1, 100860, Note_off_c, 1, 45, 0
1, 100860, Note_on_c, 1, 52, 127
1, 100919, Note_off_c, 1, 52, 0
1, 100920, Note_on_c, 1, 49, 127
1, 100979, Note_off_c, 1, 49, 0
1, 100985, Note_on_c, 1, 85, 127
1, 101014, Note_off_c, 1, 85, 0
1, 101015, Note_on_c, 1, 86, 127
1, 101040, Note_on_c, 1, 50, 127
1, 101044, Note_off_c, 1, 86, 0
1, 101099, Note_off_c, 1, 50, 0
1, 101100, Note_on_c, 1, 74, 127
1, 101100, Note_on_c, 1, 64, 127
1, 101129, Note_off_c, 1, 64, 0
1, 101130, Note_on_c, 1, 65, 127
1, 101159, Note_off_c, 1, 65, 0
1, 101160, Note_on_c, 1, 52, 127
1, 101160, Note_on_c, 1, 57, 127
1, 101160, Note_on_c, 1, 76, 127
1, 101160, Note_on_c, 1, 67, 127
1, 101189, Note_off_c, 1, 57, 0
1, 101219, Note_off_c, 1, 74, 0
1, 101219, Note_off_c, 1, 52, 0
1, 101219, Note_off_c, 1, 76, 0
1, 101219, Note_off_c, 1, 67, 0
1, 101220, Note_on_c, 1, 73, 127
1, 101220, Note_on_c, 1, 65, 127
1, 101249, Note_off_c, 1, 65, 0
1, 101250, Note_on_c, 1, 67, 127
1, 101279, Note_off_c, 1, 73, 0
1, 101279, Note_off_c, 1, 67, 0
1, 101280, Note_on_c, 1, 74, 127
1, 101280, Note_on_c, 1, 69, 127
1, 101280, Note_on_c, 1, 53, 127
1, 101280, Note_on_c, 1, 57, 127
1, 101309, Note_off_c, 1, 57, 0
1, 101310, Note_on_c, 1, 65, 127
1, 101310, Note_on_c, 1, 62, 127
1, 101339, Note_off_c, 1, 74, 0
1, 101339, Note_off_c, 1, 69, 0
1, 101339, Note_off_c, 1, 53, 0
1, 101339, Note_off_c, 1, 65, 0
1, 101339, Note_off_c, 1, 62, 0
1, 101340, Note_on_c, 1, 74, 127
1, 101340, Note_on_c, 1, 67, 127
1, 101340, Note_on_c, 1, 64, 127
1, 101369, Note_off_c, 1, 67, 0
1, 101369, Note_off_c, 1, 64, 0
1, 101370, Note_on_c, 1, 69, 127
1, 101370, Note_on_c, 1, 65, 127
1, 101399, Note_off_c, 1, 69, 0
1, 101399, Note_off_c, 1, 65, 0
1, 101400, Note_on_c, 1, 76, 127
1, 101400, Note_on_c, 1, 55, 127
1, 101400, Note_on_c, 1, 57, 127
1, 101429, Note_off_c, 1, 57, 0
1, 101459, Note_off_c, 1, 74, 0
1, 101459, Note_off_c, 1, 76, 0
1, 101459, Note_off_c, 1, 55, 0
1, 101460, Note_on_c, 1, 73, 127
1, 101460, Note_on_c, 1, 69, 127
1, 101460, Note_on_c, 1, 65, 127
1, 101489, Note_off_c, 1, 69, 0
1, 101489, Note_off_c, 1, 65, 0
1, 101490, Note_on_c, 1, 70, 127
1, 101490, Note_on_c, 1, 67, 127
1, 101519, Note_off_c, 1, 73, 0
1, 101519, Note_off_c, 1, 70, 0
1, 101519, Note_off_c, 1, 67, 0
1, 101520, Note_on_c, 1, 77, 127
1, 101520, Note_on_c, 1, 74, 127
1, 101520, Note_on_c, 1, 62, 127
1, 101520, Note_on_c, 1, 57, 127
1, 101549, Note_off_c, 1, 57, 0
1, 101550, Note_on_c, 1, 69, 127
1, 101550, Note_on_c, 1, 65, 127
1, 101579, Note_off_c, 1, 77, 0
1, 101579, Note_off_c, 1, 74, 0
1, 101579, Note_off_c, 1, 62, 0
1, 101579, Note_off_c, 1, 69, 0
1, 101579, Note_off_c, 1, 65, 0
1, 101580, Note_on_c, 1, 76, 127
1, 101580, Note_on_c, 1, 67, 127
1, 101609, Note_off_c, 1, 76, 0
1, 101609, Note_off_c, 1, 67, 0
1, 101610, Note_on_c, 1, 74, 127
1, 101610, Note_on_c, 1, 65, 127
1, 101610, Note_on_c, 1, 69, 127
1, 101639, Note_off_c, 1, 74, 0
1, 101639, Note_off_c, 1, 65, 0
1, 101639, Note_off_c, 1, 69, 0
1, 101640, Note_on_c, 1, 73, 127
1, 101640, Note_on_c, 1, 76, 127
1, 101640, Note_on_c, 1, 57, 127
1, 101669, Note_off_c, 1, 73, 0
1, 101670, Note_on_c, 1, 67, 127
1, 101699, Note_off_c, 1, 76, 0
1, 101699, Note_off_c, 1, 57, 0
1, 101699, Note_off_c, 1, 67, 0
1, 101700, Note_on_c, 1, 74, 127
1, 101700, Note_on_c, 1, 65, 127
1, 101700, Note_on_c, 1, 69, 127
1, 101729, Note_off_c, 1, 74, 0
1, 101729, Note_off_c, 1, 65, 0
1, 101729, Note_off_c, 1, 69, 0
1, 101730, Note_on_c, 1, 73, 127
1, 101730, Note_on_c, 1, 64, 127
1, 101730, Note_on_c, 1, 70, 127
1, 101759, Note_off_c, 1, 73, 0
1, 101759, Note_off_c, 1, 64, 0
1, 101759, Note_off_c, 1, 70, 0
1, 101760, Note_on_c, 1, 74, 127
1, 101760, Note_on_c, 1, 77, 127
1, 101760, Note_on_c, 1, 53, 127
1, 101760, Note_on_c, 1, 62, 127
1, 101760, Note_on_c, 1, 57, 127
1, 101789, Note_off_c, 1, 62, 0
1, 101789, Note_off_c, 1, 57, 0
1, 101790, Note_on_c, 1, 71, 127
1, 101790, Note_on_c, 1, 69, 127
1, 101819, Note_off_c, 1, 74, 0
1, 101819, Note_off_c, 1, 77, 0
1, 101819, Note_off_c, 1, 53, 0
1, 101819, Note_off_c, 1, 71, 0
1, 101819, Note_off_c, 1, 69, 0
1, 101820, Note_on_c, 1, 81, 127
1, 101820, Note_on_c, 1, 76, 127
1, 101820, Note_on_c, 1, 73, 127
1, 101820, Note_on_c, 1, 67, 127
1, 101849, Note_off_c, 1, 76, 0
1, 101849, Note_off_c, 1, 73, 0
1, 101849, Note_off_c, 1, 67, 0
1, 101850, Note_on_c, 1, 74, 127
1, 101850, Note_on_c, 1, 65, 127
1, 101879, Note_off_c, 1, 74, 0
1, 101879, Note_off_c, 1, 65, 0
1, 101880, Note_on_c, 1, 57, 127
1, 101880, Note_on_c, 1, 69, 127
1, 101909, Note_off_c, 1, 69, 0
1, 101939, Note_off_c, 1, 81, 0
1, 101939, Note_off_c, 1, 57, 0
1, 101940, Note_on_c, 1, 79, 127
1, 101940, Note_on_c, 1, 74, 127
1, 101940, Note_on_c, 1, 65, 127
1, 101969, Note_off_c, 1, 74, 0
1, 101969, Note_off_c, 1, 65, 0
1, 101970, Note_on_c, 1, 73, 127
1, 101970, Note_on_c, 1, 76, 127
1, 101970, Note_on_c, 1, 64, 127
1, 101999, Note_off_c, 1, 79, 0
1, 101999, Note_off_c, 1, 73, 0
1, 101999, Note_off_c, 1, 76, 0
1, 101999, Note_off_c, 1, 64, 0
1, 102000, Note_on_c, 1, 77, 127
1, 102000, Note_on_c, 1, 74, 127
1, 102000, Note_on_c, 1, 50, 127
1, 102000, Note_on_c, 1, 62, 127
1, 102029, Note_off_c, 1, 62, 0
1, 102030, Note_on_c, 1, 69, 127
1, 102030, Note_on_c, 1, 71, 127
1, 102059, Note_off_c, 1, 77, 0
1, 102059, Note_off_c, 1, 74, 0
1, 102059, Note_off_c, 1, 50, 0
1, 102059, Note_off_c, 1, 69, 0
1, 102059, Note_off_c, 1, 71, 0
1, 102060, Note_on_c, 1, 81, 127
1, 102060, Note_on_c, 1, 67, 127
1, 102060, Note_on_c, 1, 73, 127
1, 102089, Note_off_c, 1, 67, 0
1, 102089, Note_off_c, 1, 73, 0
1, 102090, Note_on_c, 1, 65, 127
1, 102090, Note_on_c, 1, 74, 127
1, 102119, Note_off_c, 1, 65, 0
1, 102119, Note_off_c, 1, 74, 0
1, 102120, Note_on_c, 1, 76, 127
1, 102120, Note_on_c, 1, 45, 127
1, 102120, Note_on_c, 1, 69, 127
1, 102149, Note_off_c, 1, 69, 0
1, 102179, Note_off_c, 1, 81, 0
1, 102179, Note_off_c, 1, 76, 0
1, 102179, Note_off_c, 1, 45, 0
1, 102180, Note_on_c, 1, 79, 127
1, 102180, Note_on_c, 1, 65, 127
1, 102180, Note_on_c, 1, 74, 127
1, 102209, Note_off_c, 1, 65, 0
1, 102209, Note_off_c, 1, 74, 0
1, 102210, Note_on_c, 1, 64, 127
1, 102210, Note_on_c, 1, 76, 127
1, 102239, Note_off_c, 1, 79, 0
1, 102239, Note_off_c, 1, 64, 0
1, 102239, Note_off_c, 1, 76, 0
1, 102240, Note_on_c, 1, 74, 127
1, 102240, Note_on_c, 1, 77, 127
1, 102240, Note_on_c, 1, 38, 127
1, 102240, Note_on_c, 1, 65, 127
1, 102269, Note_off_c, 1, 65, 0
1, 102270, Note_on_c, 1, 62, 127
1, 102270, Note_on_c, 1, 69, 127
1, 102299, Note_off_c, 1, 74, 0
1, 102299, Note_off_c, 1, 77, 0
1, 102299, Note_off_c, 1, 38, 0
1, 102299, Note_off_c, 1, 62, 0
1, 102299, Note_off_c, 1, 69, 0
1, 102300, Note_on_c, 1, 82, 127
1, 102300, Note_on_c, 1, 50, 127
1, 102300, Note_on_c, 1, 64, 127
1, 102300, Note_on_c, 1, 67, 127
1, 102329, Note_off_c, 1, 64, 0
1, 102329, Note_off_c, 1, 67, 0
1, 102330, Note_on_c, 1, 65, 127
1, 102359, Note_off_c, 1, 50, 0
1, 102359, Note_off_c, 1, 65, 0
1, 102360, Note_on_c, 1, 76, 127
1, 102360, Note_on_c, 1, 52, 127
1, 102360, Note_on_c, 1, 72, 127
1, 102389, Note_off_c, 1, 72, 0
1, 102419, Note_off_c, 1, 82, 0
1, 102419, Note_off_c, 1, 76, 0
1, 102419, Note_off_c, 1, 52, 0
1, 102420, Note_on_c, 1, 81, 127
1, 102420, Note_on_c, 1, 53, 127
1, 102420, Note_on_c, 1, 60, 127
1, 102420, Note_on_c, 1, 69, 127
1, 102449, Note_off_c, 1, 60, 0
1, 102449, Note_off_c, 1, 69, 0
1, 102450, Note_on_c, 1, 72, 127
1, 102450, Note_on_c, 1, 65, 127
1, 102479, Note_off_c, 1, 81, 0
1, 102479, Note_off_c, 1, 53, 0
1, 102479, Note_off_c, 1, 72, 0
1, 102479, Note_off_c, 1, 65, 0
1, 102480, Note_on_c, 1, 79, 127
1, 102480, Note_on_c, 1, 74, 127
1, 102480, Note_on_c, 1, 46, 127
1, 102480, Note_on_c, 1, 70, 127
1, 102509, Note_off_c, 1, 70, 0
1, 102510, Note_on_c, 1, 67, 127
1, 102539, Note_off_c, 1, 79, 0
1, 102539, Note_off_c, 1, 74, 0
1, 102539, Note_off_c, 1, 46, 0
1, 102539, Note_off_c, 1, 67, 0
1, 102540, Note_on_c, 1, 77, 127
1, 102540, Note_on_c, 1, 82, 127
1, 102540, Note_on_c, 1, 43, 127
1, 102540, Note_on_c, 1, 70, 127
1, 102540, Note_on_c, 1, 74, 127
1, 102569, Note_off_c, 1, 77, 0
1, 102569, Note_off_c, 1, 70, 0
1, 102569, Note_off_c, 1, 74, 0
1, 102570, Note_on_c, 1, 76, 127
1, 102570, Note_on_c, 1, 67, 127
1, 102599, Note_off_c, 1, 43, 0
1, 102599, Note_off_c, 1, 76, 0
1, 102599, Note_off_c, 1, 67, 0
1, 102600, Note_on_c, 1, 45, 127
1, 102600, Note_on_c, 1, 60, 127
1, 102630, Note_on_c, 1, 81, 127
1, 102630, Note_on_c, 1, 65, 127
1, 102659, Note_off_c, 1, 82, 0
1, 102659, Note_off_c, 1, 45, 0
1, 102659, Note_off_c, 1, 60, 0
1, 102659, Note_off_c, 1, 81, 0
1, 102659, Note_off_c, 1, 65, 0
1, 102660, Note_on_c, 1, 79, 127
1, 102660, Note_on_c, 1, 81, 127
1, 102660, Note_on_c, 1, 46, 127
1, 102660, Note_on_c, 1, 62, 127
1, 102660, Note_on_c, 1, 70, 127
1, 102689, Note_off_c, 1, 79, 0
1, 102690, Note_on_c, 1, 77, 127
1, 102719, Note_off_c, 1, 81, 0
1, 102719, Note_off_c, 1, 46, 0
1, 102719, Note_off_c, 1, 62, 0
1, 102719, Note_off_c, 1, 77, 0
1, 102720, Note_on_c, 1, 76, 127
1, 102720, Note_on_c, 1, 48, 127
1, 102720, Note_on_c, 1, 55, 127
1, 102749, Note_off_c, 1, 70, 0
1, 102749, Note_off_c, 1, 76, 0
1, 102750, Note_on_c, 1, 74, 127
1, 102750, Note_on_c, 1, 69, 127
1, 102779, Note_off_c, 1, 48, 0
1, 102779, Note_off_c, 1, 55, 0
1, 102779, Note_off_c, 1, 74, 0
1, 102779, Note_off_c, 1, 69, 0
1, 102780, Note_on_c, 1, 72, 127
1, 102780, Note_on_c, 1, 76, 127
1, 102780, Note_on_c, 1, 60, 127
1, 102780, Note_on_c, 1, 57, 127
1, 102780, Note_on_c, 1, 67, 127
1, 102809, Note_off_c, 1, 76, 0
1, 102809, Note_off_c, 1, 60, 0
1, 102809, Note_off_c, 1, 57, 0
1, 102810, Note_on_c, 1, 74, 127
1, 102810, Note_on_c, 1, 58, 127
1, 102839, Note_off_c, 1, 72, 0
1, 102839, Note_off_c, 1, 74, 0
1, 102839, Note_off_c, 1, 58, 0
1, 102869, Note_off_c, 1, 67, 0
1, 102870, Note_on_c, 1, 55, 127
1, 102870, Note_on_c, 1, 77, 127
1, 102899, Note_off_c, 1, 55, 0
1, 102899, Note_off_c, 1, 77, 0
1, 102900, Note_on_c, 1, 53, 127
1, 102900, Note_on_c, 1, 79, 127
1, 102900, Note_on_c, 1, 57, 127
1, 102900, Note_on_c, 1, 70, 127
1, 102900, Note_on_c, 1, 62, 127
1, 102929, Note_off_c, 1, 53, 0
1, 102929, Note_off_c, 1, 57, 0
1, 102929, Note_off_c, 1, 70, 0
1, 102929, Note_off_c, 1, 62, 0
1, 102930, Note_on_c, 1, 52, 127
1, 102930, Note_on_c, 1, 55, 127
1, 102930, Note_on_c, 1, 72, 127
1, 102930, Note_on_c, 1, 64, 127
1, 102959, Note_off_c, 1, 79, 0
1, 102959, Note_off_c, 1, 52, 0
1, 102959, Note_off_c, 1, 55, 0
1, 102959, Note_off_c, 1, 72, 0
1, 102959, Note_off_c, 1, 64, 0
1, 102960, Note_on_c, 1, 72, 127
1, 102960, Note_on_c, 1, 69, 127
1, 102960, Note_on_c, 1, 53, 127
1, 102960, Note_on_c, 1, 57, 127
1, 102960, Note_on_c, 1, 65, 127
1, 102960, Note_on_c, 1, 60, 127
1, 102989, Note_off_c, 1, 57, 0
1, 102989, Note_off_c, 1, 65, 0
1, 102989, Note_off_c, 1, 60, 0
1, 102990, Note_on_c, 1, 55, 127
1, 102990, Note_on_c, 1, 67, 127
1, 102990, Note_on_c, 1, 58, 127
1, 103019, Note_off_c, 1, 72, 0
1, 103019, Note_off_c, 1, 69, 0
1, 103019, Note_off_c, 1, 53, 0
1, 103019, Note_off_c, 1, 55, 0
1, 103019, Note_off_c, 1, 67, 0
1, 103019, Note_off_c, 1, 58, 0
1, 103020, Note_on_c, 1, 77, 127
1, 103020, Note_on_c, 1, 53, 127
1, 103020, Note_on_c, 1, 69, 127
1, 103020, Note_on_c, 1, 57, 127
1, 103049, Note_off_c, 1, 53, 0
1, 103049, Note_off_c, 1, 69, 0
1, 103049, Note_off_c, 1, 57, 0
1, 103050, Note_on_c, 1, 65, 127
1, 103050, Note_on_c, 1, 60, 127
1, 103079, Note_off_c, 1, 65, 0
1, 103079, Note_off_c, 1, 60, 0
1, 103080, Note_on_c, 1, 70, 127
1, 103080, Note_on_c, 1, 67, 127
1, 103080, Note_on_c, 1, 55, 127
1, 103080, Note_on_c, 1, 62, 127
1, 103080, Note_on_c, 1, 58, 127
1, 103109, Note_off_c, 1, 62, 0
1, 103109, Note_off_c, 1, 58, 0
1, 103139, Note_off_c, 1, 77, 0
1, 103139, Note_off_c, 1, 70, 0
1, 103139, Note_off_c, 1, 67, 0
1, 103139, Note_off_c, 1, 55, 0
1, 103140, Note_on_c, 1, 76, 127
1, 103140, Note_on_c, 1, 58, 127
1, 103140, Note_on_c, 1, 70, 127
1, 103140, Note_on_c, 1, 55, 127
1, 103169, Note_off_c, 1, 58, 0
1, 103169, Note_off_c, 1, 70, 0
1, 103169, Note_off_c, 1, 55, 0
1, 103170, Note_on_c, 1, 60, 127
1, 103170, Note_on_c, 1, 67, 127
1, 103199, Note_off_c, 1, 76, 0
1, 103199, Note_off_c, 1, 60, 0
1, 103199, Note_off_c, 1, 67, 0
1, 103200, Note_on_c, 1, 77, 127
1, 103200, Note_on_c, 1, 69, 127
1, 103200, Note_on_c, 1, 72, 127
1, 103200, Note_on_c, 1, 57, 127
1, 103200, Note_on_c, 1, 53, 127
1, 103229, Note_off_c, 1, 53, 0
1, 103259, Note_off_c, 1, 77, 0
1, 103259, Note_off_c, 1, 69, 0
1, 103259, Note_off_c, 1, 72, 0
1, 103259, Note_off_c, 1, 57, 0
1, 103260, Note_on_c, 1, 79, 127
1, 103260, Note_on_c, 1, 62, 127
1, 103260, Note_on_c, 1, 70, 127
1, 103260, Note_on_c, 1, 58, 127
1, 103289, Note_off_c, 1, 62, 0
1, 103289, Note_off_c, 1, 70, 0
1, 103289, Note_off_c, 1, 58, 0
1, 103290, Note_on_c, 1, 60, 127
1, 103290, Note_on_c, 1, 69, 127
1, 103319, Note_off_c, 1, 60, 0
1, 103319, Note_off_c, 1, 69, 0
1, 103320, Note_on_c, 1, 74, 127
1, 103320, Note_on_c, 1, 67, 127
1, 103349, Note_off_c, 1, 67, 0
1, 103350, Note_on_c, 1, 65, 127
1, 103379, Note_off_c, 1, 79, 0
1, 103379, Note_off_c, 1, 74, 0
1, 103379, Note_off_c, 1, 65, 0
1, 103380, Note_on_c, 1, 81, 127
1, 103380, Note_on_c, 1, 60, 127
1, 103380, Note_on_c, 1, 64, 127
1, 103409, Note_off_c, 1, 60, 0
1, 103409, Note_off_c, 1, 64, 0
1, 103410, Note_on_c, 1, 58, 127
1, 103410, Note_on_c, 1, 62, 127
1, 103439, Note_off_c, 1, 58, 0
1, 103439, Note_off_c, 1, 62, 0
1, 103440, Note_on_c, 1, 72, 127
1, 103440, Note_on_c, 1, 57, 127
1, 103469, Note_off_c, 1, 57, 0
1, 103470, Note_on_c, 1, 53, 127
1, 103499, Note_off_c, 1, 81, 0
1, 103499, Note_off_c, 1, 72, 0
1, 103499, Note_off_c, 1, 53, 0
1, 103500, Note_on_c, 1, 79, 127
1, 103500, Note_on_c, 1, 69, 127
1, 103500, Note_on_c, 1, 65, 127
1, 103500, Note_on_c, 1, 62, 127
1, 103529, Note_off_c, 1, 79, 0
1, 103530, Note_on_c, 1, 77, 127
1, 103559, Note_off_c, 1, 69, 0
1, 103559, Note_off_c, 1, 65, 0
1, 103559, Note_off_c, 1, 62, 0
1, 103559, Note_off_c, 1, 77, 0
1, 103560, Note_on_c, 1, 81, 127
1, 103560, Note_on_c, 1, 70, 127
1, 103560, Note_on_c, 1, 62, 127
1, 103560, Note_on_c, 1, 58, 127
1, 103589, Note_off_c, 1, 81, 0
1, 103590, Note_on_c, 1, 79, 127
1, 103619, Note_off_c, 1, 70, 0
1, 103619, Note_off_c, 1, 62, 0
1, 103619, Note_off_c, 1, 58, 0
1, 103619, Note_off_c, 1, 79, 0
1, 103620, Note_on_c, 1, 77, 127
1, 103620, Note_on_c, 1, 67, 127
1, 103620, Note_on_c, 1, 60, 127
1, 103649, Note_off_c, 1, 77, 0
1, 103650, Note_on_c, 1, 76, 127
1, 103679, Note_off_c, 1, 67, 0
1, 103679, Note_off_c, 1, 60, 0
1, 103679, Note_off_c, 1, 76, 0
1, 103680, Note_on_c, 1, 77, 127
1, 103680, Note_on_c, 1, 69, 127
1, 103680, Note_on_c, 1, 60, 127
1, 103680, Note_on_c, 1, 53, 127
1, 103710, Note_on_c, 1, 72, 127
1, 103710, Note_on_c, 1, 52, 127
1, 103739, Note_off_c, 1, 69, 0
1, 103739, Note_off_c, 1, 60, 0
1, 103739, Note_off_c, 1, 53, 0
1, 103739, Note_off_c, 1, 52, 0
1, 103740, Note_off_c, 1, 77, 0
1, 103740, Note_off_c, 1, 72, 0
1, 103740, Note_on_c, 1, 41, 127
1, 103740, Note_on_c, 1, 74, 127
1, 103770, Note_off_c, 1, 74, 0
1, 103770, Note_on_c, 1, 76, 127
1, 103770, Note_on_c, 1, 55, 127
1, 103799, Note_off_c, 1, 41, 0
1, 103799, Note_off_c, 1, 55, 0
1, 103800, Note_off_c, 1, 76, 0
1, 103800, Note_on_c, 1, 40, 127
1, 103800, Note_on_c, 1, 57, 127
1, 103829, Note_off_c, 1, 57, 0
1, 103830, Note_on_c, 1, 79, 127
1, 103830, Note_on_c, 1, 59, 127
1, 103859, Note_off_c, 1, 40, 0
1, 103859, Note_off_c, 1, 59, 0
1, 103860, Note_off_c, 1, 79, 0
1, 103860, Note_on_c, 1, 38, 127
1, 103860, Note_on_c, 1, 81, 127
1, 103890, Note_off_c, 1, 81, 0
1, 103890, Note_on_c, 1, 83, 127
1, 103890, Note_on_c, 1, 62, 127
1, 103919, Note_off_c, 1, 38, 0
1, 103919, Note_off_c, 1, 62, 0
1, 103920, Note_off_c, 1, 83, 0
1, 103920, Note_on_c, 1, 67, 127
1, 103920, Note_on_c, 1, 36, 127
1, 103920, Note_on_c, 1, 84, 127
1, 103920, Note_on_c, 1, 64, 127
1, 103920, Note_on_c, 1, 48, 127
1, 103950, Note_off_c, 1, 84, 0
1, 103979, Note_off_c, 1, 67, 0
1, 103979, Note_off_c, 1, 36, 0
1, 103979, Note_off_c, 1, 64, 0
1, 103979, Note_off_c, 1, 48, 0
1, 103980, Note_on_c, 1, 65, 127
1, 104009, Note_off_c, 1, 65, 0
1, 104100, Note_on_c, 1, 71, 127
1, 104100, Note_on_c, 1, 50, 127
1, 104159, Note_off_c, 1, 71, 0
1, 104159, Note_off_c, 1, 50, 0
1, 104400, Note_on_c, 1, 43, 127
1, 104459, Note_off_c, 1, 43, 0
1, 104460, Note_on_c, 1, 45, 127
1, 104519, Note_off_c, 1, 45, 0
1, 104715, Note_on_c, 1, 74, 127
1, 104729, Note_off_c, 1, 74, 0
1, 104730, Note_on_c, 1, 76, 127
1, 104744, Note_off_c, 1, 76, 0
1, 104745, Note_on_c, 1, 77, 127
1, 104759, Note_off_c, 1, 77, 0
1, 104760, Note_on_c, 1, 76, 127
1, 104774, Note_off_c, 1, 76, 0
1, 104775, Note_on_c, 1, 74, 127
1, 104789, Note_off_c, 1, 74, 0
1, 104790, Note_on_c, 1, 72, 127
1, 104804, Note_off_c, 1, 72, 0
1, 104805, Note_on_c, 1, 70, 127
1, 104819, Note_off_c, 1, 70, 0
1, 104820, Note_on_c, 1, 69, 127
1, 104834, Note_off_c, 1, 69, 0
1, 104835, Note_on_c, 1, 67, 127
1, 104849, Note_off_c, 1, 67, 0
1, 104850, Note_on_c, 1, 66, 127
1, 104864, Note_off_c, 1, 66, 0
1, 104865, Note_on_c, 1, 64, 127
1, 104879, Note_off_c, 1, 64, 0
1, 104880, Note_on_c, 1, 74, 127
1, 104880, Note_on_c, 1, 69, 127
1, 104880, Note_on_c, 1, 42, 127
1, 104880, Note_on_c, 1, 84, 127
1, 104880, Note_on_c, 1, 62, 127
1, 104880, Note_on_c, 1, 54, 127
1, 104909, Note_off_c, 1, 84, 0
1, 104910, Note_on_c, 1, 78, 127
1, 104939, Note_off_c, 1, 74, 0
1, 104939, Note_off_c, 1, 69, 0
1, 104939, Note_off_c, 1, 42, 0
1, 104939, Note_off_c, 1, 62, 0
1, 104939, Note_off_c, 1, 54, 0
1, 104939, Note_off_c, 1, 78, 0
1, 104940, Note_on_c, 1, 81, 127
1, 104940, Note_on_c, 1, 74, 127
1, 104940, Note_on_c, 1, 69, 127
1, 104940, Note_on_c, 1, 42, 127
1, 104940, Note_on_c, 1, 76, 127
1, 104940, Note_on_c, 1, 67, 127
1, 104940, Note_on_c, 1, 54, 127
1, 104940, Note_on_c, 1, 62, 127
1, 104969, Note_off_c, 1, 76, 0
1, 104969, Note_off_c, 1, 67, 0
1, 104970, Note_on_c, 1, 66, 127
1, 104999, Note_off_c, 1, 74, 0
1, 104999, Note_off_c, 1, 69, 0
1, 104999, Note_off_c, 1, 42, 0
1, 104999, Note_off_c, 1, 54, 0
1, 104999, Note_off_c, 1, 62, 0
1, 104999, Note_off_c, 1, 66, 0
1, 105000, Note_on_c, 1, 84, 127
1, 105029, Note_off_c, 1, 84, 0
1, 105030, Note_on_c, 1, 78, 127
1, 105059, Note_off_c, 1, 81, 0
1, 105059, Note_off_c, 1, 78, 0
1, 105060, Note_on_c, 1, 84, 127
1, 105060, Note_on_c, 1, 74, 127
1, 105060, Note_on_c, 1, 69, 127
1, 105060, Note_on_c, 1, 42, 127
1, 105060, Note_on_c, 1, 76, 127
1, 105060, Note_on_c, 1, 67, 127
1, 105060, Note_on_c, 1, 54, 127
1, 105060, Note_on_c, 1, 62, 127
1, 105089, Note_off_c, 1, 76, 0
1, 105089, Note_off_c, 1, 67, 0
1, 105090, Note_on_c, 1, 66, 127
1, 105119, Note_off_c, 1, 84, 0
1, 105119, Note_off_c, 1, 74, 0
1, 105119, Note_off_c, 1, 69, 0
1, 105119, Note_off_c, 1, 42, 0
1, 105119, Note_off_c, 1, 54, 0
1, 105119, Note_off_c, 1, 62, 0
1, 105119, Note_off_c, 1, 66, 0
1, 105120, Note_on_c, 1, 82, 127
1, 105120, Note_on_c, 1, 74, 127
1, 105120, Note_on_c, 1, 67, 127
1, 105120, Note_on_c, 1, 43, 127
1, 105120, Note_on_c, 1, 55, 127
1, 105120, Note_on_c, 1, 70, 127
1, 105135, Note_on_c, 1, 66, 127
1, 105149, Note_off_c, 1, 66, 0
1, 105165, Note_on_c, 1, 69, 127
1, 105179, Note_off_c, 1, 82, 0
1, 105179, Note_off_c, 1, 74, 0
1, 105179, Note_off_c, 1, 67, 0
1, 105179, Note_off_c, 1, 43, 0
1, 105179, Note_off_c, 1, 55, 0
1, 105179, Note_off_c, 1, 70, 0
1, 105179, Note_off_c, 1, 69, 0
1, 105180, Note_on_c, 1, 70, 127
1, 105194, Note_off_c, 1, 70, 0
1, 105195, Note_on_c, 1, 72, 127
1, 105209, Note_off_c, 1, 72, 0
1, 105210, Note_on_c, 1, 74, 127
1, 105224, Note_off_c, 1, 74, 0
1, 105225, Note_on_c, 1, 75, 127
1, 105239, Note_off_c, 1, 75, 0
1, 105240, Note_on_c, 1, 74, 127
1, 105254, Note_off_c, 1, 74, 0
1, 105255, Note_on_c, 1, 72, 127
1, 105269, Note_off_c, 1, 72, 0
1, 105270, Note_on_c, 1, 70, 127
1, 105284, Note_off_c, 1, 70, 0
1, 105285, Note_on_c, 1, 69, 127
1, 105299, Note_off_c, 1, 69, 0
1, 105300, Note_on_c, 1, 67, 127
1, 105314, Note_off_c, 1, 67, 0
1, 105315, Note_on_c, 1, 65, 127
1, 105329, Note_off_c, 1, 65, 0
1, 105330, Note_on_c, 1, 64, 127
1, 105344, Note_off_c, 1, 64, 0
1, 105345, Note_on_c, 1, 62, 127
1, 105359, Note_off_c, 1, 62, 0
1, 105360, Note_on_c, 1, 72, 127
1, 105360, Note_on_c, 1, 67, 127
1, 105360, Note_on_c, 1, 40, 127
1, 105360, Note_on_c, 1, 52, 127
1, 105360, Note_on_c, 1, 82, 127
1, 105360, Note_on_c, 1, 60, 127
1, 105389, Note_off_c, 1, 82, 0
1, 105390, Note_on_c, 1, 76, 127
1, 105419, Note_off_c, 1, 72, 0
1, 105419, Note_off_c, 1, 67, 0
1, 105419, Note_off_c, 1, 40, 0
1, 105419, Note_off_c, 1, 52, 0
1, 105419, Note_off_c, 1, 60, 0
1, 105419, Note_off_c, 1, 76, 0
1, 105420, Note_on_c, 1, 79, 127
1, 105420, Note_on_c, 1, 72, 127
1, 105420, Note_on_c, 1, 67, 127
1, 105420, Note_on_c, 1, 40, 127
1, 105420, Note_on_c, 1, 52, 127
1, 105420, Note_on_c, 1, 74, 127
1, 105420, Note_on_c, 1, 65, 127
1, 105420, Note_on_c, 1, 60, 127
1, 105449, Note_off_c, 1, 74, 0
1, 105449, Note_off_c, 1, 65, 0
1, 105450, Note_on_c, 1, 64, 127
1, 105479, Note_off_c, 1, 72, 0
1, 105479, Note_off_c, 1, 67, 0
1, 105479, Note_off_c, 1, 40, 0
1, 105479, Note_off_c, 1, 52, 0
1, 105479, Note_off_c, 1, 60, 0
1, 105479, Note_off_c, 1, 64, 0
1, 105480, Note_on_c, 1, 82, 127
1, 105509, Note_off_c, 1, 82, 0
1, 105510, Note_on_c, 1, 76, 127
1, 105539, Note_off_c, 1, 79, 0
1, 105539, Note_off_c, 1, 76, 0
1, 105540, Note_on_c, 1, 82, 127
1, 105540, Note_on_c, 1, 72, 127
1, 105540, Note_on_c, 1, 67, 127
1, 105540, Note_on_c, 1, 40, 127
1, 105540, Note_on_c, 1, 52, 127
1, 105540, Note_on_c, 1, 74, 127
1, 105540, Note_on_c, 1, 65, 127
1, 105540, Note_on_c, 1, 60, 127
1, 105569, Note_off_c, 1, 74, 0
1, 105569, Note_off_c, 1, 65, 0
1, 105570, Note_on_c, 1, 64, 127
1, 105599, Note_off_c, 1, 82, 0
1, 105599, Note_off_c, 1, 72, 0
1, 105599, Note_off_c, 1, 67, 0
1, 105599, Note_off_c, 1, 40, 0
1, 105599, Note_off_c, 1, 52, 0
1, 105599, Note_off_c, 1, 60, 0
1, 105599, Note_off_c, 1, 64, 0
1, 105600, Note_on_c, 1, 81, 127
1, 105600, Note_on_c, 1, 72, 127
1, 105600, Note_on_c, 1, 65, 127
1, 105600, Note_on_c, 1, 41, 127
1, 105600, Note_on_c, 1, 69, 127
1, 105600, Note_on_c, 1, 53, 127
1, 105615, Note_on_c, 1, 60, 127
1, 105629, Note_off_c, 1, 60, 0
1, 105630, Note_on_c, 1, 62, 127
1, 105644, Note_off_c, 1, 62, 0
1, 105645, Note_on_c, 1, 64, 127
1, 105659, Note_off_c, 1, 81, 0
1, 105659, Note_off_c, 1, 72, 0
1, 105659, Note_off_c, 1, 65, 0
1, 105659, Note_off_c, 1, 41, 0
1, 105659, Note_off_c, 1, 69, 0
1, 105659, Note_off_c, 1, 53, 0
1, 105659, Note_off_c, 1, 64, 0
1, 105660, Note_on_c, 1, 65, 127
1, 105674, Note_off_c, 1, 65, 0
1, 105675, Note_on_c, 1, 67, 127
1, 105689, Note_off_c, 1, 67, 0
1, 105690, Note_on_c, 1, 69, 127
1, 105704, Note_off_c, 1, 69, 0
1, 105705, Note_on_c, 1, 70, 127
1, 105719, Note_off_c, 1, 70, 0
1, 105720, Note_on_c, 1, 69, 127
1, 105734, Note_off_c, 1, 69, 0
1, 105735, Note_on_c, 1, 65, 127
1, 105749, Note_off_c, 1, 65, 0
1, 105750, Note_on_c, 1, 64, 127
1, 105764, Note_off_c, 1, 64, 0
1, 105765, Note_on_c, 1, 62, 127
1, 105779, Note_off_c, 1, 62, 0
1, 105780, Note_on_c, 1, 60, 127
1, 105794, Note_off_c, 1, 60, 0
1, 105795, Note_on_c, 1, 59, 127
1, 105809, Note_off_c, 1, 59, 0
1, 105810, Note_on_c, 1, 57, 127
1, 105824, Note_off_c, 1, 57, 0
1, 105825, Note_on_c, 1, 55, 127
1, 105839, Note_off_c, 1, 55, 0
1, 105840, Note_on_c, 1, 81, 127
1, 105840, Note_on_c, 1, 72, 127
1, 105840, Note_on_c, 1, 65, 127
1, 105840, Note_on_c, 1, 51, 127
1, 105840, Note_on_c, 1, 53, 127
1, 105869, Note_off_c, 1, 53, 0
1, 105870, Note_on_c, 1, 69, 127
1, 105870, Note_on_c, 1, 57, 127
1, 105899, Note_off_c, 1, 81, 0
1, 105899, Note_off_c, 1, 72, 0
1, 105899, Note_off_c, 1, 65, 0
1, 105899, Note_off_c, 1, 51, 0
1, 105899, Note_off_c, 1, 69, 0
1, 105899, Note_off_c, 1, 57, 0
1, 105900, Note_on_c, 1, 51, 127
1, 105900, Note_on_c, 1, 67, 127
1, 105900, Note_on_c, 1, 65, 127
1, 105900, Note_on_c, 1, 72, 127
1, 105900, Note_on_c, 1, 70, 127
1, 105900, Note_on_c, 1, 58, 127
1, 105929, Note_off_c, 1, 67, 0
1, 105929, Note_off_c, 1, 70, 0
1, 105929, Note_off_c, 1, 58, 0
1, 105930, Note_on_c, 1, 69, 127
1, 105930, Note_on_c, 1, 60, 127
1, 105959, Note_off_c, 1, 51, 0
1, 105959, Note_off_c, 1, 65, 0
1, 105959, Note_off_c, 1, 72, 0
1, 105959, Note_off_c, 1, 69, 0
1, 105959, Note_off_c, 1, 60, 0
1, 105960, Note_on_c, 1, 79, 127
1, 105960, Note_on_c, 1, 72, 127
1, 105960, Note_on_c, 1, 67, 127
1, 105960, Note_on_c, 1, 51, 127
1, 105990, Note_on_c, 1, 75, 127
1, 105990, Note_on_c, 1, 57, 127
1, 106019, Note_off_c, 1, 79, 0
1, 106019, Note_off_c, 1, 72, 0
1, 106019, Note_off_c, 1, 67, 0
1, 106019, Note_off_c, 1, 51, 0
1, 106019, Note_off_c, 1, 75, 0
1, 106019, Note_off_c, 1, 57, 0
1, 106020, Note_on_c, 1, 51, 127
1, 106020, Note_on_c, 1, 74, 127
1, 106020, Note_on_c, 1, 67, 127
1, 106020, Note_on_c, 1, 72, 127
1, 106020, Note_on_c, 1, 70, 127
1, 106020, Note_on_c, 1, 58, 127
1, 106049, Note_off_c, 1, 74, 0
1, 106049, Note_off_c, 1, 70, 0
1, 106049, Note_off_c, 1, 58, 0
1, 106050, Note_on_c, 1, 69, 127
1, 106050, Note_on_c, 1, 60, 127
1, 106079, Note_off_c, 1, 51, 0
1, 106079, Note_off_c, 1, 67, 0
1, 106079, Note_off_c, 1, 72, 0
1, 106079, Note_off_c, 1, 69, 0
1, 106079, Note_off_c, 1, 60, 0
1, 106080, Note_on_c, 1, 78, 127
1, 106080, Note_on_c, 1, 74, 127
1, 106080, Note_on_c, 1, 69, 127
1, 106080, Note_on_c, 1, 50, 127
1, 106080, Note_on_c, 1, 81, 127
1, 106080, Note_on_c, 1, 72, 127
1, 106110, Note_on_c, 1, 54, 127
1, 106139, Note_off_c, 1, 78, 0
1, 106139, Note_off_c, 1, 74, 0
1, 106139, Note_off_c, 1, 69, 0
1, 106139, Note_off_c, 1, 50, 0
1, 106139, Note_off_c, 1, 81, 0
1, 106139, Note_off_c, 1, 72, 0
1, 106139, Note_off_c, 1, 54, 0
1, 106140, Note_on_c, 1, 50, 127
1, 106140, Note_on_c, 1, 67, 127
1, 106140, Note_on_c, 1, 55, 127
1, 106140, Note_on_c, 1, 70, 127
1, 106169, Note_off_c, 1, 67, 0
1, 106169, Note_off_c, 1, 55, 0
1, 106169, Note_off_c, 1, 70, 0
1, 106170, Note_on_c, 1, 66, 127
1, 106170, Note_on_c, 1, 57, 127
1, 106170, Note_on_c, 1, 69, 127
1, 106199, Note_off_c, 1, 50, 0
1, 106199, Note_off_c, 1, 66, 0
1, 106199, Note_off_c, 1, 57, 0
1, 106199, Note_off_c, 1, 69, 0
1, 106200, Note_on_c, 1, 48, 127
1, 106200, Note_on_c, 1, 75, 127
1, 106200, Note_on_c, 1, 78, 127
1, 106229, Note_off_c, 1, 75, 0
1, 106229, Note_off_c, 1, 78, 0
1, 106230, Note_on_c, 1, 69, 127
1, 106230, Note_on_c, 1, 54, 127
1, 106230, Note_on_c, 1, 72, 127
1, 106259, Note_off_c, 1, 48, 0
1, 106259, Note_off_c, 1, 69, 0
1, 106259, Note_off_c, 1, 54, 0
1, 106259, Note_off_c, 1, 72, 0
1, 106260, Note_on_c, 1, 48, 127
1, 106260, Note_on_c, 1, 67, 127
1, 106260, Note_on_c, 1, 55, 127
1, 106260, Note_on_c, 1, 70, 127
1, 106289, Note_off_c, 1, 67, 0
1, 106289, Note_off_c, 1, 55, 0
1, 106289, Note_off_c, 1, 70, 0
1, 106290, Note_on_c, 1, 66, 127
1, 106290, Note_on_c, 1, 57, 127
1, 106290, Note_on_c, 1, 69, 127
1, 106319, Note_off_c, 1, 48, 0
1, 106319, Note_off_c, 1, 66, 0
1, 106319, Note_off_c, 1, 57, 0
1, 106319, Note_off_c, 1, 69, 0
1, 106320, Note_on_c, 1, 79, 127
1, 106320, Note_on_c, 1, 74, 127
1, 106320, Note_on_c, 1, 67, 127
1, 106320, Note_on_c, 1, 47, 127
1, 106320, Note_on_c, 1, 77, 127
1, 106349, Note_off_c, 1, 77, 0
1, 106350, Note_on_c, 1, 83, 127
1, 106350, Note_on_c, 1, 50, 127
1, 106350, Note_on_c, 1, 68, 127
1, 106379, Note_off_c, 1, 79, 0
1, 106379, Note_off_c, 1, 74, 0
1, 106379, Note_off_c, 1, 67, 0
1, 106379, Note_off_c, 1, 47, 0
1, 106379, Note_off_c, 1, 83, 0
1, 106379, Note_off_c, 1, 50, 0
1, 106379, Note_off_c, 1, 68, 0
1, 106380, Note_on_c, 1, 47, 127
1, 106380, Note_on_c, 1, 84, 127
1, 106380, Note_on_c, 1, 52, 127
1, 106380, Note_on_c, 1, 67, 127
1, 106380, Note_on_c, 1, 76, 127
1, 106409, Note_off_c, 1, 84, 0
1, 106409, Note_off_c, 1, 52, 0
1, 106409, Note_off_c, 1, 67, 0
1, 106409, Note_off_c, 1, 76, 0
1, 106410, Note_on_c, 1, 86, 127
1, 106410, Note_on_c, 1, 53, 127
1, 106410, Note_on_c, 1, 65, 127
1, 106410, Note_on_c, 1, 74, 127
1, 106439, Note_off_c, 1, 47, 0
1, 106439, Note_off_c, 1, 86, 0
1, 106439, Note_off_c, 1, 53, 0
1, 106439, Note_off_c, 1, 65, 0
1, 106439, Note_off_c, 1, 74, 0
1, 106440, Note_on_c, 1, 77, 127
1, 106440, Note_on_c, 1, 74, 127
1, 106440, Note_on_c, 1, 67, 127
1, 106440, Note_on_c, 1, 47, 127
1, 106440, Note_on_c, 1, 55, 127
1, 106469, Note_off_c, 1, 55, 0
1, 106470, Note_on_c, 1, 83, 127
1, 106470, Note_on_c, 1, 53, 127
1, 106470, Note_on_c, 1, 68, 127
1, 106499, Note_off_c, 1, 77, 0
1, 106499, Note_off_c, 1, 74, 0
1, 106499, Note_off_c, 1, 67, 0
1, 106499, Note_off_c, 1, 47, 0
1, 106499, Note_off_c, 1, 83, 0
1, 106499, Note_off_c, 1, 53, 0
1, 106499, Note_off_c, 1, 68, 0
1, 106500, Note_on_c, 1, 47, 127
1, 106500, Note_on_c, 1, 84, 127
1, 106500, Note_on_c, 1, 52, 127
1, 106500, Note_on_c, 1, 67, 127
1, 106500, Note_on_c, 1, 72, 127
1, 106529, Note_off_c, 1, 84, 0
1, 106529, Note_off_c, 1, 52, 0
1, 106529, Note_off_c, 1, 67, 0
1, 106529, Note_off_c, 1, 72, 0
1, 106530, Note_on_c, 1, 86, 127
1, 106530, Note_on_c, 1, 50, 127
1, 106530, Note_on_c, 1, 65, 127
1, 106530, Note_on_c, 1, 71, 127
1, 106559, Note_off_c, 1, 47, 0
1, 106559, Note_off_c, 1, 86, 0
1, 106559, Note_off_c, 1, 50, 0
1, 106559, Note_off_c, 1, 65, 0
1, 106559, Note_off_c, 1, 71, 0
1, 106560, Note_on_c, 1, 76, 127
1, 106560, Note_on_c, 1, 72, 127
1, 106560, Note_on_c, 1, 67, 127
1, 106560, Note_on_c, 1, 48, 127
1, 106560, Note_on_c, 1, 64, 127
1, 106560, Note_on_c, 1, 79, 127
1, 106575, Note_on_c, 1, 55, 127
1, 106589, Note_off_c, 1, 55, 0
1, 106590, Note_on_c, 1, 57, 127
1, 106604, Note_off_c, 1, 57, 0
1, 106605, Note_on_c, 1, 59, 127
1, 106619, Note_off_c, 1, 76, 0
1, 106619, Note_off_c, 1, 72, 0
1, 106619, Note_off_c, 1, 67, 0
1, 106619, Note_off_c, 1, 48, 0
1, 106619, Note_off_c, 1, 64, 0
1, 106619, Note_off_c, 1, 79, 0
1, 106619, Note_off_c, 1, 59, 0
1, 106620, Note_on_c, 1, 48, 127
1, 106620, Note_on_c, 1, 60, 127
1, 106634, Note_off_c, 1, 60, 0
1, 106635, Note_on_c, 1, 62, 127
1, 106649, Note_off_c, 1, 62, 0
1, 106650, Note_on_c, 1, 64, 127
1, 106664, Note_off_c, 1, 64, 0
1, 106679, Note_off_c, 1, 48, 0
1, 106680, Note_on_c, 1, 46, 127
1, 106680, Note_on_c, 1, 64, 127
1, 106694, Note_off_c, 1, 64, 0
1, 106695, Note_on_c, 1, 65, 127
1, 106709, Note_off_c, 1, 65, 0
1, 106710, Note_on_c, 1, 67, 127
1, 106724, Note_off_c, 1, 67, 0
1, 106725, Note_on_c, 1, 69, 127
1, 106739, Note_off_c, 1, 46, 0
1, 106739, Note_off_c, 1, 69, 0
1, 106740, Note_on_c, 1, 46, 127
1, 106740, Note_on_c, 1, 70, 127
1, 106754, Note_off_c, 1, 70, 0
1, 106755, Note_on_c, 1, 72, 127
1, 106769, Note_off_c, 1, 72, 0
1, 106770, Note_on_c, 1, 74, 127
1, 106784, Note_off_c, 1, 74, 0
1, 106785, Note_on_c, 1, 76, 127
1, 106799, Note_off_c, 1, 46, 0
1, 106799, Note_off_c, 1, 76, 0
1, 106800, Note_on_c, 1, 77, 127
1, 106800, Note_on_c, 1, 72, 127
1, 106800, Note_on_c, 1, 69, 127
1, 106800, Note_on_c, 1, 45, 127
1, 106800, Note_on_c, 1, 57, 127
1, 106829, Note_off_c, 1, 57, 0
1, 106830, Note_on_c, 1, 81, 127
1, 106830, Note_on_c, 1, 65, 127
1, 106859, Note_off_c, 1, 77, 0
1, 106859, Note_off_c, 1, 72, 0
1, 106859, Note_off_c, 1, 69, 0
1, 106859, Note_off_c, 1, 45, 0
1, 106859, Note_off_c, 1, 81, 0
1, 106859, Note_off_c, 1, 65, 0
1, 106860, Note_on_c, 1, 45, 127
1, 106860, Note_on_c, 1, 83, 127
1, 106860, Note_on_c, 1, 67, 127
1, 106860, Note_on_c, 1, 71, 127
1, 106889, Note_off_c, 1, 83, 0
1, 106889, Note_off_c, 1, 67, 0
1, 106889, Note_off_c, 1, 71, 0
1, 106890, Note_on_c, 1, 84, 127
1, 106890, Note_on_c, 1, 69, 127
1, 106890, Note_on_c, 1, 65, 127
1, 106919, Note_off_c, 1, 45, 0
1, 106919, Note_off_c, 1, 84, 0
1, 106919, Note_off_c, 1, 69, 0
1, 106919, Note_off_c, 1, 65, 0
1, 106920, Note_on_c, 1, 76, 127
1, 106920, Note_on_c, 1, 72, 127
1, 106920, Note_on_c, 1, 67, 127
1, 106920, Note_on_c, 1, 57, 127
1, 106950, Note_on_c, 1, 81, 127
1, 106950, Note_on_c, 1, 64, 127
1, 106979, Note_off_c, 1, 76, 0
1, 106979, Note_off_c, 1, 72, 0
1, 106979, Note_off_c, 1, 67, 0
1, 106979, Note_off_c, 1, 57, 0
1, 106979, Note_off_c, 1, 81, 0
1, 106979, Note_off_c, 1, 64, 0
1, 106980, Note_on_c, 1, 57, 127
1, 106980, Note_on_c, 1, 83, 127
1, 106980, Note_on_c, 1, 69, 127
1, 106980, Note_on_c, 1, 66, 127
1, 106980, Note_on_c, 1, 75, 127
1, 107009, Note_off_c, 1, 83, 0
1, 107009, Note_off_c, 1, 69, 0
1, 107009, Note_off_c, 1, 66, 0
1, 107009, Note_off_c, 1, 75, 0
1, 107010, Note_on_c, 1, 84, 127
1, 107010, Note_on_c, 1, 67, 127
1, 107010, Note_on_c, 1, 64, 127
1, 107010, Note_on_c, 1, 76, 127
1, 107039, Note_off_c, 1, 57, 0
1, 107039, Note_off_c, 1, 84, 0
1, 107039, Note_off_c, 1, 67, 0
1, 107039, Note_off_c, 1, 64, 0
1, 107039, Note_off_c, 1, 76, 0
1, 107040, Note_on_c, 1, 75, 127
1, 107040, Note_on_c, 1, 71, 127
1, 107040, Note_on_c, 1, 66, 127
1, 107040, Note_on_c, 1, 57, 127
1, 107040, Note_on_c, 1, 63, 127
1, 107040, Note_on_c, 1, 78, 127
1, 107055, Note_on_c, 1, 84, 127
1, 107069, Note_off_c, 1, 84, 0
1, 107070, Note_on_c, 1, 83, 127
1, 107084, Note_off_c, 1, 83, 0
1, 107085, Note_on_c, 1, 81, 127
1, 107099, Note_off_c, 1, 75, 0
1, 107099, Note_off_c, 1, 71, 0
1, 107099, Note_off_c, 1, 66, 0
1, 107099, Note_off_c, 1, 57, 0
1, 107099, Note_off_c, 1, 63, 0
1, 107099, Note_off_c, 1, 78, 0
1, 107099, Note_off_c, 1, 81, 0
1, 107100, Note_on_c, 1, 57, 127
1, 107100, Note_on_c, 1, 83, 127
1, 107100, Note_on_c, 1, 66, 127
1, 107100, Note_on_c, 1, 63, 127
1, 107159, Note_off_c, 1, 57, 0
1, 107159, Note_off_c, 1, 66, 0
1, 107159, Note_off_c, 1, 63, 0
1, 107160, Note_on_c, 1, 74, 127
1, 107160, Note_on_c, 1, 71, 127
1, 107160, Note_on_c, 1, 64, 127
1, 107160, Note_on_c, 1, 56, 127
1, 107189, Note_off_c, 1, 83, 0
1, 107190, Note_on_c, 1, 77, 127
1, 107219, Note_off_c, 1, 74, 0
1, 107219, Note_off_c, 1, 71, 0
1, 107219, Note_off_c, 1, 64, 0
1, 107219, Note_off_c, 1, 56, 0
1, 107219, Note_off_c, 1, 77, 0
1, 107220, Note_on_c, 1, 56, 127
1, 107220, Note_on_c, 1, 76, 127
1, 107220, Note_on_c, 1, 59, 127
1, 107220, Note_on_c, 1, 71, 127
1, 107220, Note_on_c, 1, 64, 127
1, 107249, Note_off_c, 1, 76, 0
1, 107250, Note_on_c, 1, 74, 127
1, 107279, Note_off_c, 1, 56, 0
1, 107279, Note_off_c, 1, 59, 0
1, 107279, Note_off_c, 1, 71, 0
1, 107279, Note_off_c, 1, 64, 0
1, 107279, Note_off_c, 1, 74, 0
1, 107280, Note_on_c, 1, 73, 127
1, 107280, Note_on_c, 1, 69, 127
1, 107280, Note_on_c, 1, 64, 127
1, 107280, Note_on_c, 1, 55, 127
1, 107280, Note_on_c, 1, 76, 127
1, 107295, Note_on_c, 1, 82, 127
1, 107309, Note_off_c, 1, 82, 0
1, 107310, Note_on_c, 1, 81, 127
1, 107324, Note_off_c, 1, 81, 0
1, 107325, Note_on_c, 1, 79, 127
1, 107339, Note_off_c, 1, 73, 0
1, 107339, Note_off_c, 1, 69, 0
1, 107339, Note_off_c, 1, 64, 0
1, 107339, Note_off_c, 1, 55, 0
1, 107339, Note_off_c, 1, 76, 0
1, 107339, Note_off_c, 1, 79, 0
1, 107340, Note_on_c, 1, 55, 127
1, 107340, Note_on_c, 1, 81, 127
1, 107340, Note_on_c, 1, 61, 127
1, 107340, Note_on_c, 1, 64, 127
1, 107399, Note_off_c, 1, 55, 0
1, 107399, Note_off_c, 1, 61, 0
1, 107399, Note_off_c, 1, 64, 0
1, 107400, Note_on_c, 1, 72, 127
1, 107400, Note_on_c, 1, 69, 127
1, 107400, Note_on_c, 1, 62, 127
1, 107400, Note_on_c, 1, 54, 127
1, 107429, Note_off_c, 1, 81, 0
1, 107430, Note_on_c, 1, 75, 127
1, 107459, Note_off_c, 1, 72, 0
1, 107459, Note_off_c, 1, 69, 0
1, 107459, Note_off_c, 1, 62, 0
1, 107459, Note_off_c, 1, 54, 0
1, 107459, Note_off_c, 1, 75, 0
1, 107460, Note_on_c, 1, 54, 127
1, 107460, Note_on_c, 1, 74, 127
1, 107460, Note_on_c, 1, 57, 127
1, 107460, Note_on_c, 1, 62, 127
1, 107460, Note_on_c, 1, 69, 127
1, 107489, Note_off_c, 1, 74, 0
1, 107490, Note_on_c, 1, 72, 127
1, 107519, Note_off_c, 1, 54, 0
1, 107519, Note_off_c, 1, 57, 0
1, 107519, Note_off_c, 1, 62, 0
1, 107519, Note_off_c, 1, 69, 0
1, 107519, Note_off_c, 1, 72, 0
1, 107520, Note_on_c, 1, 71, 127
1, 107520, Note_on_c, 1, 67, 127
1, 107520, Note_on_c, 1, 62, 127
1, 107520, Note_on_c, 1, 53, 127
1, 107520, Note_on_c, 1, 74, 127
1, 107550, Note_on_c, 1, 69, 127
1, 107564, Note_off_c, 1, 69, 0
1, 107579, Note_off_c, 1, 71, 0
1, 107579, Note_off_c, 1, 67, 0
1, 107579, Note_off_c, 1, 62, 0
1, 107579, Note_off_c, 1, 53, 0
1, 107579, Note_off_c, 1, 74, 0
1, 107580, Note_on_c, 1, 53, 127
1, 107580, Note_on_c, 1, 72, 127
1, 107580, Note_on_c, 1, 62, 127
1, 107580, Note_on_c, 1, 59, 127
1, 107594, Note_off_c, 1, 72, 0
1, 107595, Note_on_c, 1, 74, 127
1, 107609, Note_off_c, 1, 74, 0
1, 107610, Note_on_c, 1, 76, 127
1, 107624, Note_off_c, 1, 76, 0
1, 107625, Note_on_c, 1, 77, 127
1, 107639, Note_off_c, 1, 53, 0
1, 107639, Note_off_c, 1, 62, 0
1, 107639, Note_off_c, 1, 59, 0
1, 107639, Note_off_c, 1, 77, 0
1, 107640, Note_on_c, 1, 70, 127
1, 107640, Note_on_c, 1, 67, 127
1, 107640, Note_on_c, 1, 60, 127
1, 107640, Note_on_c, 1, 52, 127
1, 107640, Note_on_c, 1, 79, 127
1, 107654, Note_off_c, 1, 79, 0
1, 107655, Note_on_c, 1, 81, 127
1, 107669, Note_off_c, 1, 81, 0
1, 107685, Note_on_c, 1, 77, 127
1, 107699, Note_off_c, 1, 70, 0
1, 107699, Note_off_c, 1, 67, 0
1, 107699, Note_off_c, 1, 60, 0
1, 107699, Note_off_c, 1, 52, 0
1, 107699, Note_off_c, 1, 77, 0
1, 107700, Note_on_c, 1, 52, 127
1, 107700, Note_on_c, 1, 76, 127
1, 107700, Note_on_c, 1, 67, 127
1, 107700, Note_on_c, 1, 60, 127
1, 107714, Note_off_c, 1, 76, 0
1, 107715, Note_on_c, 1, 74, 127
1, 107729, Note_off_c, 1, 74, 0
1, 107730, Note_on_c, 1, 72, 127
1, 107744, Note_off_c, 1, 72, 0
1, 107745, Note_on_c, 1, 71, 127
1, 107759, Note_off_c, 1, 52, 0
1, 107759, Note_off_c, 1, 67, 0
1, 107759, Note_off_c, 1, 60, 0
1, 107759, Note_off_c, 1, 71, 0
1, 107760, Note_on_c, 1, 69, 127
1, 107760, Note_on_c, 1, 66, 127
1, 107760, Note_on_c, 1, 60, 127
1, 107760, Note_on_c, 1, 51, 127
1, 107760, Note_on_c, 1, 72, 127
1, 107790, Note_on_c, 1, 68, 127
1, 107804, Note_off_c, 1, 68, 0
1, 107819, Note_off_c, 1, 69, 0
1, 107819, Note_off_c, 1, 66, 0
1, 107819, Note_off_c, 1, 60, 0
1, 107819, Note_off_c, 1, 51, 0
1, 107819, Note_off_c, 1, 72, 0
1, 107820, Note_on_c, 1, 51, 127
1, 107820, Note_on_c, 1, 71, 127
1, 107820, Note_on_c, 1, 60, 127
1, 107820, Note_on_c, 1, 57, 127
1, 107834, Note_off_c, 1, 71, 0
1, 107835, Note_on_c, 1, 72, 127
1, 107849, Note_off_c, 1, 72, 0
1, 107850, Note_on_c, 1, 74, 127
1, 107864, Note_off_c, 1, 74, 0
1, 107865, Note_on_c, 1, 76, 127
1, 107879, Note_off_c, 1, 51, 0
1, 107879, Note_off_c, 1, 60, 0
1, 107879, Note_off_c, 1, 57, 0
1, 107879, Note_off_c, 1, 76, 0
1, 107880, Note_on_c, 1, 70, 127
1, 107880, Note_on_c, 1, 65, 127
1, 107880, Note_on_c, 1, 62, 127
1, 107880, Note_on_c, 1, 50, 127
1, 107880, Note_on_c, 1, 77, 127
1, 107894, Note_off_c, 1, 77, 0
1, 107895, Note_on_c, 1, 79, 127
1, 107909, Note_off_c, 1, 79, 0
1, 107925, Note_on_c, 1, 76, 127
1, 107939, Note_off_c, 1, 70, 0
1, 107939, Note_off_c, 1, 65, 0
1, 107939, Note_off_c, 1, 62, 0
1, 107939, Note_off_c, 1, 50, 0
1, 107939, Note_off_c, 1, 76, 0
1, 107940, Note_on_c, 1, 50, 127
1, 107940, Note_on_c, 1, 74, 127
1, 107940, Note_on_c, 1, 65, 127
1, 107955, Note_on_c, 1, 72, 127
1, 107969, Note_off_c, 1, 72, 0
1, 107970, Note_on_c, 1, 70, 127
1, 107984, Note_off_c, 1, 70, 0
1, 107985, Note_on_c, 1, 69, 127
1, 107999, Note_off_c, 1, 50, 0
1, 107999, Note_off_c, 1, 74, 0
1, 107999, Note_off_c, 1, 65, 0
1, 107999, Note_off_c, 1, 69, 0
1, 108000, Note_on_c, 1, 68, 127
1, 108000, Note_on_c, 1, 64, 127
1, 108000, Note_on_c, 1, 59, 127
1, 108000, Note_on_c, 1, 50, 127
1, 108000, Note_on_c, 1, 71, 127
1, 108000, Note_on_c, 1, 56, 127
1, 108000, Note_on_c, 1, 48, 127
1, 108030, Note_on_c, 1, 66, 127
1, 108044, Note_off_c, 1, 66, 0
1, 108059, Note_off_c, 1, 68, 0
1, 108059, Note_off_c, 1, 64, 0
1, 108059, Note_off_c, 1, 59, 0
1, 108059, Note_off_c, 1, 50, 0
1, 108059, Note_off_c, 1, 71, 0
1, 108059, Note_off_c, 1, 56, 0
1, 108059, Note_off_c, 1, 48, 0
1, 108060, Note_on_c, 1, 69, 127
1, 108074, Note_off_c, 1, 69, 0
1, 108075, Note_on_c, 1, 71, 127
1, 108089, Note_off_c, 1, 71, 0
1, 108090, Note_on_c, 1, 72, 127
1, 108104, Note_off_c, 1, 72, 0
1, 108105, Note_on_c, 1, 74, 127
1, 108119, Note_off_c, 1, 74, 0
1, 108120, Note_on_c, 1, 76, 127
1, 108134, Note_off_c, 1, 76, 0
1, 108135, Note_on_c, 1, 77, 127
1, 108149, Note_off_c, 1, 77, 0
1, 108150, Note_on_c, 1, 76, 127
1, 108164, Note_off_c, 1, 76, 0
1, 108165, Note_on_c, 1, 74, 127
1, 108179, Note_off_c, 1, 74, 0
1, 108180, Note_on_c, 1, 72, 127
1, 108194, Note_off_c, 1, 72, 0
1, 108195, Note_on_c, 1, 71, 127
1, 108209, Note_off_c, 1, 71, 0
1, 108210, Note_on_c, 1, 69, 127
1, 108224, Note_off_c, 1, 69, 0
1, 108225, Note_on_c, 1, 68, 127
1, 108239, Note_off_c, 1, 68, 0
1, 108240, Note_on_c, 1, 76, 127
1, 108240, Note_on_c, 1, 72, 127
1, 108240, Note_on_c, 1, 57, 127
1, 108240, Note_on_c, 1, 48, 127
1, 108240, Note_on_c, 1, 69, 127
1, 108240, Note_on_c, 1, 60, 127
1, 108270, Note_on_c, 1, 68, 127
1, 108270, Note_on_c, 1, 52, 127
1, 108299, Note_off_c, 1, 76, 0
1, 108299, Note_off_c, 1, 72, 0
1, 108299, Note_off_c, 1, 57, 0
1, 108299, Note_off_c, 1, 48, 0
1, 108299, Note_off_c, 1, 69, 0
1, 108299, Note_off_c, 1, 60, 0
1, 108299, Note_off_c, 1, 68, 0
1, 108299, Note_off_c, 1, 52, 0
1, 108300, Note_on_c, 1, 81, 127
1, 108300, Note_on_c, 1, 66, 127
1, 108300, Note_on_c, 1, 50, 127
1, 108300, Note_on_c, 1, 48, 127
1, 108300, Note_on_c, 1, 60, 127
1, 108329, Note_off_c, 1, 66, 0
1, 108329, Note_off_c, 1, 50, 0
1, 108330, Note_on_c, 1, 64, 127
1, 108359, Note_off_c, 1, 48, 0
1, 108359, Note_off_c, 1, 60, 0
1, 108359, Note_off_c, 1, 64, 0
1, 108360, Note_on_c, 1, 71, 127
1, 108360, Note_on_c, 1, 65, 127
1, 108360, Note_on_c, 1, 47, 127
1, 108360, Note_on_c, 1, 69, 127
1, 108360, Note_on_c, 1, 74, 127
1, 108360, Note_on_c, 1, 59, 127
1, 108389, Note_off_c, 1, 69, 0
1, 108419, Note_off_c, 1, 81, 0
1, 108419, Note_off_c, 1, 71, 0
1, 108419, Note_off_c, 1, 65, 0
1, 108419, Note_off_c, 1, 47, 0
1, 108419, Note_off_c, 1, 74, 0
1, 108419, Note_off_c, 1, 59, 0
1, 108420, Note_on_c, 1, 80, 127
1, 108420, Note_on_c, 1, 64, 127
1, 108420, Note_on_c, 1, 48, 127
1, 108420, Note_on_c, 1, 59, 127
1, 108420, Note_on_c, 1, 47, 127
1, 108449, Note_off_c, 1, 64, 0
1, 108449, Note_off_c, 1, 48, 0
1, 108450, Note_on_c, 1, 62, 127
1, 108479, Note_off_c, 1, 80, 0
1, 108479, Note_off_c, 1, 59, 0
1, 108479, Note_off_c, 1, 47, 0
1, 108479, Note_off_c, 1, 62, 0
1, 108480, Note_on_c, 1, 81, 127
1, 108480, Note_on_c, 1, 69, 127
1, 108480, Note_on_c, 1, 64, 127
1, 108480, Note_on_c, 1, 48, 127
1, 108480, Note_on_c, 1, 45, 127
1, 108480, Note_on_c, 1, 76, 127
1, 108480, Note_on_c, 1, 60, 127
1, 108509, Note_off_c, 1, 45, 0
1, 108539, Note_off_c, 1, 81, 0
1, 108539, Note_off_c, 1, 69, 0
1, 108539, Note_off_c, 1, 64, 0
1, 108539, Note_off_c, 1, 48, 0
1, 108539, Note_off_c, 1, 76, 0
1, 108539, Note_off_c, 1, 60, 0
1, 108540, Note_on_c, 1, 83, 127
1, 108540, Note_on_c, 1, 62, 127
1, 108540, Note_on_c, 1, 53, 127
1, 108540, Note_on_c, 1, 48, 127
1, 108540, Note_on_c, 1, 60, 127
1, 108569, Note_off_c, 1, 62, 0
1, 108569, Note_off_c, 1, 53, 0
1, 108570, Note_on_c, 1, 52, 127
1, 108599, Note_off_c, 1, 48, 0
1, 108599, Note_off_c, 1, 60, 0
1, 108599, Note_off_c, 1, 52, 0
1, 108600, Note_on_c, 1, 77, 127
1, 108600, Note_on_c, 1, 69, 127
1, 108600, Note_on_c, 1, 50, 127
1, 108630, Note_on_c, 1, 47, 127
1, 108659, Note_off_c, 1, 83, 0
1, 108659, Note_off_c, 1, 77, 0
1, 108659, Note_off_c, 1, 69, 0
1, 108659, Note_off_c, 1, 50, 0
1, 108659, Note_off_c, 1, 47, 0
1, 108660, Note_on_c, 1, 84, 127
1, 108660, Note_on_c, 1, 60, 127
1, 108660, Note_on_c, 1, 57, 127
1, 108660, Note_on_c, 1, 62, 127
1, 108660, Note_on_c, 1, 50, 127
1, 108689, Note_off_c, 1, 60, 0
1, 108689, Note_off_c, 1, 57, 0
1, 108690, Note_on_c, 1, 59, 127
1, 108690, Note_on_c, 1, 56, 127
1, 108719, Note_off_c, 1, 62, 0
1, 108719, Note_off_c, 1, 50, 0
1, 108719, Note_off_c, 1, 59, 0
1, 108719, Note_off_c, 1, 56, 0
1, 108720, Note_on_c, 1, 74, 127
1, 108720, Note_on_c, 1, 64, 127
1, 108720, Note_on_c, 1, 52, 127
1, 108720, Note_on_c, 1, 69, 127
1, 108720, Note_on_c, 1, 76, 127
1, 108749, Note_off_c, 1, 69, 0
1, 108779, Note_off_c, 1, 84, 0
1, 108779, Note_off_c, 1, 74, 0
1, 108779, Note_off_c, 1, 64, 0
1, 108779, Note_off_c, 1, 52, 0
1, 108779, Note_off_c, 1, 76, 0
1, 108780, Note_on_c, 1, 83, 127
1, 108780, Note_on_c, 1, 77, 127
1, 108780, Note_on_c, 1, 57, 127
1, 108780, Note_on_c, 1, 53, 127
1, 108780, Note_on_c, 1, 62, 127
1, 108780, Note_on_c, 1, 65, 127
1, 108809, Note_off_c, 1, 83, 0
1, 108809, Note_off_c, 1, 62, 0
1, 108810, Note_on_c, 1, 81, 127
1, 108810, Note_on_c, 1, 60, 127
1, 108839, Note_off_c, 1, 77, 0
1, 108839, Note_off_c, 1, 57, 0
1, 108839, Note_off_c, 1, 53, 0
1, 108839, Note_off_c, 1, 65, 0
1, 108839, Note_off_c, 1, 81, 0
1, 108839, Note_off_c, 1, 60, 0
1, 108840, Note_on_c, 1, 84, 127
1, 108840, Note_on_c, 1, 77, 127
1, 108840, Note_on_c, 1, 57, 127
1, 108840, Note_on_c, 1, 50, 127
1, 108840, Note_on_c, 1, 64, 127
1, 108840, Note_on_c, 1, 62, 127
1, 108869, Note_off_c, 1, 84, 0
1, 108869, Note_off_c, 1, 64, 0
1, 108870, Note_on_c, 1, 83, 127
1, 108899, Note_off_c, 1, 77, 0
1, 108899, Note_off_c, 1, 57, 0
1, 108899, Note_off_c, 1, 50, 0
1, 108899, Note_off_c, 1, 62, 0
1, 108899, Note_off_c, 1, 83, 0
1, 108900, Note_on_c, 1, 81, 127
1, 108900, Note_on_c, 1, 76, 127
1, 108900, Note_on_c, 1, 64, 127
1, 108900, Note_on_c, 1, 52, 127
1, 108900, Note_on_c, 1, 60, 127
1, 108929, Note_off_c, 1, 81, 0
1, 108929, Note_off_c, 1, 60, 0
1, 108930, Note_on_c, 1, 80, 127
1, 108930, Note_on_c, 1, 59, 127
1, 108959, Note_off_c, 1, 76, 0
1, 108959, Note_off_c, 1, 64, 0
1, 108959, Note_off_c, 1, 52, 0
1, 108959, Note_off_c, 1, 80, 0
1, 108959, Note_off_c, 1, 59, 0
1, 108960, Note_on_c, 1, 81, 127
1, 108960, Note_on_c, 1, 72, 127
1, 108960, Note_on_c, 1, 69, 127
1, 108960, Note_on_c, 1, 53, 127
1, 108960, Note_on_c, 1, 57, 127
1, 108980, Note_on_c, 1, 82, 127
1, 108989, Note_off_c, 1, 57, 0
1, 108990, Note_on_c, 1, 60, 127
1, 108990, Note_on_c, 1, 52, 127
1, 108999, Note_off_c, 1, 82, 0
1, 109019, Note_off_c, 1, 72, 0
1, 109019, Note_off_c, 1, 69, 0
1, 109019, Note_off_c, 1, 53, 0
1, 109019, Note_off_c, 1, 60, 0
1, 109019, Note_off_c, 1, 52, 0
1, 109020, Note_on_c, 1, 59, 127
1, 109020, Note_on_c, 1, 50, 127
1, 109049, Note_off_c, 1, 59, 0
1, 109049, Note_off_c, 1, 50, 0
1, 109050, Note_on_c, 1, 48, 127
1, 109079, Note_off_c, 1, 48, 0
1, 109080, Note_on_c, 1, 74, 127
1, 109080, Note_on_c, 1, 65, 127
1, 109080, Note_on_c, 1, 62, 127
1, 109139, Note_off_c, 1, 74, 0
1, 109139, Note_off_c, 1, 65, 0
1, 109139, Note_off_c, 1, 62, 0
1, 109200, Note_on_c, 1, 76, 127
1, 109200, Note_on_c, 1, 64, 127
1, 109229, Note_off_c, 1, 64, 0
1, 109259, Note_off_c, 1, 76, 0
1, 109320, Note_on_c, 1, 77, 127
1, 109320, Note_on_c, 1, 47, 127
1, 109379, Note_off_c, 1, 77, 0
1, 109379, Note_off_c, 1, 47, 0
1, 109950, Note_on_c, 1, 56, 127
1, 109979, Note_off_c, 1, 56, 0
1, 109980, Note_off_c, 1, 81, 0
1, 109980, Note_on_c, 1, 83, 127
1, 110039, Note_off_c, 1, 83, 0
1, 110040, Note_on_c, 1, 76, 127
1, 110040, Note_on_c, 1, 59, 127
1, 110040, Note_on_c, 1, 52, 127
1, 110040, Note_on_c, 1, 64, 127
1, 110040, Note_on_c, 1, 68, 127
1, 110069, Note_off_c, 1, 68, 0
1, 110070, Note_on_c, 1, 71, 127
1, 110099, Note_off_c, 1, 76, 0
1, 110099, Note_off_c, 1, 52, 0
1, 110099, Note_off_c, 1, 64, 0
1, 110099, Note_off_c, 1, 71, 0
1, 110100, Note_on_c, 1, 80, 127
1, 110100, Note_on_c, 1, 74, 127
1, 110100, Note_on_c, 1, 40, 127
1, 110129, Note_off_c, 1, 59, 0
1, 110130, Note_on_c, 1, 57, 127
1, 110159, Note_off_c, 1, 80, 0
1, 110159, Note_off_c, 1, 74, 0
1, 110159, Note_off_c, 1, 40, 0
1, 110159, Note_off_c, 1, 57, 0
1, 110160, Note_on_c, 1, 81, 127
1, 110160, Note_on_c, 1, 72, 127
1, 110160, Note_on_c, 1, 64, 127
1, 110160, Note_on_c, 1, 45, 127
1, 110160, Note_on_c, 1, 57, 127
1, 110190, Note_on_c, 1, 68, 127
1, 110219, Note_off_c, 1, 81, 0
1, 110219, Note_off_c, 1, 72, 0
1, 110219, Note_off_c, 1, 64, 0
1, 110219, Note_off_c, 1, 57, 0
1, 110219, Note_off_c, 1, 68, 0
1, 110220, Note_on_c, 1, 69, 127
1, 110220, Note_on_c, 1, 48, 127
1, 110249, Note_off_c, 1, 69, 0
1, 110279, Note_off_c, 1, 45, 0
1, 110279, Note_off_c, 1, 48, 0
1, 110280, Note_on_c, 1, 65, 127
1, 110280, Note_on_c, 1, 50, 127
1, 110309, Note_off_c, 1, 65, 0
1, 110310, Note_on_c, 1, 62, 127
1, 110339, Note_off_c, 1, 50, 0
1, 110339, Note_off_c, 1, 62, 0
1, 110340, Note_on_c, 1, 60, 127
1, 110340, Note_on_c, 1, 56, 127
1, 110369, Note_off_c, 1, 60, 0
1, 110370, Note_on_c, 1, 59, 127
1, 110399, Note_off_c, 1, 56, 0
1, 110399, Note_off_c, 1, 59, 0
1, 110400, Note_on_c, 1, 45, 127
1, 110400, Note_on_c, 1, 69, 127
1, 110400, Note_on_c, 1, 60, 127
1, 110400, Note_on_c, 1, 57, 127
1, 110429, Note_off_c, 1, 69, 0
1, 110430, Note_on_c, 1, 64, 127
1, 110459, Note_off_c, 1, 57, 0
1, 110459, Note_off_c, 1, 64, 0
1, 110460, Note_off_c, 1, 60, 0
1, 110460, Note_on_c, 1, 65, 127
1, 110489, Note_off_c, 1, 65, 0
1, 110490, Note_on_c, 1, 62, 127
1, 110490, Note_on_c, 1, 47, 127
1, 110519, Note_off_c, 1, 45, 0
1, 110519, Note_off_c, 1, 62, 0
1, 110519, Note_off_c, 1, 47, 0
1, 110520, Note_on_c, 1, 64, 127
1, 110520, Note_on_c, 1, 48, 127
1, 110549, Note_off_c, 1, 64, 0
1, 110550, Note_on_c, 1, 60, 127
1, 110579, Note_off_c, 1, 48, 0
1, 110579, Note_off_c, 1, 60, 0
1, 110580, Note_on_c, 1, 59, 127
1, 110580, Note_on_c, 1, 50, 127
1, 110609, Note_off_c, 1, 59, 0
1, 110610, Note_on_c, 1, 57, 127
1, 110639, Note_off_c, 1, 50, 0
1, 110639, Note_off_c, 1, 57, 0
1, 110640, Note_on_c, 1, 45, 127
1, 110640, Note_on_c, 1, 60, 127
1, 110640, Note_on_c, 1, 52, 127
1, 110669, Note_off_c, 1, 60, 0
1, 110669, Note_off_c, 1, 52, 0
1, 110670, Note_on_c, 1, 64, 127
1, 110670, Note_on_c, 1, 57, 127
1, 110699, Note_off_c, 1, 45, 0
1, 110699, Note_off_c, 1, 64, 0
1, 110699, Note_off_c, 1, 57, 0
1, 110700, Note_on_c, 1, 47, 127
1, 110700, Note_on_c, 1, 69, 127
1, 110700, Note_on_c, 1, 60, 127
1, 110729, Note_off_c, 1, 69, 0
1, 110729, Note_off_c, 1, 60, 0
1, 110730, Note_on_c, 1, 68, 127
1, 110730, Note_on_c, 1, 59, 127
1, 110759, Note_off_c, 1, 47, 0
1, 110759, Note_off_c, 1, 68, 0
1, 110759, Note_off_c, 1, 59, 0
1, 110760, Note_on_c, 1, 48, 127
1, 110760, Note_on_c, 1, 69, 127
1, 110760, Note_on_c, 1, 52, 127
1, 110789, Note_off_c, 1, 69, 0
1, 110789, Note_off_c, 1, 52, 0
1, 110790, Note_on_c, 1, 72, 127
1, 110790, Note_on_c, 1, 57, 127
1, 110819, Note_off_c, 1, 48, 0
1, 110819, Note_off_c, 1, 72, 0
1, 110819, Note_off_c, 1, 57, 0
1, 110820, Note_on_c, 1, 50, 127
1, 110820, Note_on_c, 1, 71, 127
1, 110820, Note_on_c, 1, 62, 127
1, 110849, Note_off_c, 1, 71, 0
1, 110849, Note_off_c, 1, 62, 0
1, 110850, Note_on_c, 1, 69, 127
1, 110850, Note_on_c, 1, 60, 127
1, 110879, Note_off_c, 1, 50, 0
1, 110879, Note_off_c, 1, 69, 0
1, 110879, Note_off_c, 1, 60, 0
1, 110880, Note_on_c, 1, 52, 127
1, 110880, Note_on_c, 1, 68, 127
1, 110880, Note_on_c, 1, 59, 127
1, 110909, Note_off_c, 1, 68, 0
1, 110910, Note_on_c, 1, 74, 127
1, 110939, Note_off_c, 1, 59, 0
1, 110939, Note_off_c, 1, 74, 0
1, 110940, Note_on_c, 1, 76, 127
1, 110940, Note_on_c, 1, 56, 127
1, 110969, Note_off_c, 1, 76, 0
1, 110970, Note_on_c, 1, 71, 127
1, 110999, Note_off_c, 1, 52, 0
1, 110999, Note_off_c, 1, 56, 0
1, 110999, Note_off_c, 1, 71, 0
1, 111000, Note_on_c, 1, 72, 127
1, 111000, Note_on_c, 1, 57, 127
1, 111029, Note_off_c, 1, 72, 0
1, 111030, Note_on_c, 1, 69, 127
1, 111059, Note_off_c, 1, 57, 0
1, 111059, Note_off_c, 1, 69, 0
1, 111060, Note_on_c, 1, 68, 127
1, 111060, Note_on_c, 1, 63, 127
1, 111089, Note_off_c, 1, 68, 0
1, 111090, Note_on_c, 1, 66, 127
1, 111119, Note_off_c, 1, 63, 0
1, 111119, Note_off_c, 1, 66, 0
1, 111120, Note_on_c, 1, 52, 127
1, 111120, Note_on_c, 1, 76, 127
1, 111120, Note_on_c, 1, 68, 127
1, 111120, Note_on_c, 1, 64, 127
1, 111149, Note_off_c, 1, 76, 0
1, 111150, Note_on_c, 1, 71, 127
1, 111179, Note_off_c, 1, 64, 0
1, 111179, Note_off_c, 1, 71, 0
1, 111180, Note_off_c, 1, 68, 0
1, 111180, Note_on_c, 1, 72, 127
1, 111209, Note_off_c, 1, 72, 0
1, 111210, Note_on_c, 1, 69, 127
1, 111210, Note_on_c, 1, 54, 127
1, 111239, Note_off_c, 1, 52, 0
1, 111239, Note_off_c, 1, 69, 0
1, 111239, Note_off_c, 1, 54, 0
1, 111240, Note_on_c, 1, 71, 127
1, 111240, Note_on_c, 1, 56, 127
1, 111269, Note_off_c, 1, 71, 0
1, 111270, Note_on_c, 1, 68, 127
1, 111299, Note_off_c, 1, 56, 0
1, 111299, Note_off_c, 1, 68, 0
1, 111300, Note_on_c, 1, 66, 127
1, 111300, Note_on_c, 1, 57, 127
1, 111329, Note_off_c, 1, 66, 0
1, 111330, Note_on_c, 1, 64, 127
1, 111359, Note_off_c, 1, 57, 0
1, 111359, Note_off_c, 1, 64, 0
1, 111360, Note_on_c, 1, 52, 127
1, 111360, Note_on_c, 1, 68, 127
1, 111360, Note_on_c, 1, 59, 127
1, 111389, Note_off_c, 1, 68, 0
1, 111389, Note_off_c, 1, 59, 0
1, 111390, Note_on_c, 1, 71, 127
1, 111390, Note_on_c, 1, 62, 127
1, 111419, Note_off_c, 1, 52, 0
1, 111419, Note_off_c, 1, 71, 0
1, 111419, Note_off_c, 1, 62, 0
1, 111420, Note_on_c, 1, 47, 127
1, 111420, Note_on_c, 1, 74, 127
1, 111420, Note_on_c, 1, 65, 127
1, 111449, Note_off_c, 1, 74, 0
1, 111449, Note_off_c, 1, 65, 0
1, 111450, Note_on_c, 1, 77, 127
1, 111450, Note_on_c, 1, 62, 127
1, 111479, Note_off_c, 1, 47, 0
1, 111479, Note_off_c, 1, 77, 0
1, 111479, Note_off_c, 1, 62, 0
1, 111480, Note_on_c, 1, 44, 127
1, 111480, Note_on_c, 1, 76, 127
1, 111480, Note_on_c, 1, 59, 127
1, 111509, Note_off_c, 1, 76, 0
1, 111509, Note_off_c, 1, 59, 0
1, 111510, Note_on_c, 1, 74, 127
1, 111510, Note_on_c, 1, 64, 127
1, 111539, Note_off_c, 1, 44, 0
1, 111539, Note_off_c, 1, 74, 0
1, 111539, Note_off_c, 1, 64, 0
1, 111540, Note_on_c, 1, 40, 127
1, 111540, Note_on_c, 1, 72, 127
1, 111540, Note_on_c, 1, 68, 127
1, 111569, Note_off_c, 1, 72, 0
1, 111569, Note_off_c, 1, 68, 0
1, 111570, Note_on_c, 1, 71, 127
1, 111570, Note_on_c, 1, 64, 127
1, 111599, Note_off_c, 1, 40, 0
1, 111599, Note_off_c, 1, 71, 0
1, 111599, Note_off_c, 1, 64, 0
1, 111600, Note_on_c, 1, 45, 127
1, 111600, Note_on_c, 1, 72, 127
1, 111600, Note_on_c, 1, 57, 127
1, 111629, Note_off_c, 1, 72, 0
1, 111630, Note_on_c, 1, 76, 127
1, 111659, Note_off_c, 1, 57, 0
1, 111659, Note_off_c, 1, 76, 0
1, 111660, Note_on_c, 1, 69, 127
1, 111660, Note_on_c, 1, 60, 127
1, 111689, Note_off_c, 1, 69, 0
1, 111690, Note_on_c, 1, 71, 127
1, 111719, Note_off_c, 1, 45, 0
1, 111719, Note_off_c, 1, 60, 0
1, 111719, Note_off_c, 1, 71, 0
1, 111720, Note_on_c, 1, 72, 127
1, 111720, Note_on_c, 1, 64, 127
1, 111749, Note_off_c, 1, 72, 0
1, 111750, Note_on_c, 1, 74, 127
1, 111779, Note_off_c, 1, 64, 0
1, 111779, Note_off_c, 1, 74, 0
1, 111780, Note_on_c, 1, 76, 127
1, 111780, Note_on_c, 1, 62, 127
1, 111809, Note_off_c, 1, 76, 0
1, 111810, Note_on_c, 1, 77, 127
1, 111839, Note_off_c, 1, 62, 0
1, 111839, Note_off_c, 1, 77, 0
1, 111840, Note_on_c, 1, 45, 127
1, 111840, Note_on_c, 1, 79, 127
1, 111840, Note_on_c, 1, 61, 127
1, 111869, Note_off_c, 1, 79, 0
1, 111870, Note_on_c, 1, 77, 127
1, 111899, Note_off_c, 1, 61, 0
1, 111899, Note_off_c, 1, 77, 0
1, 111900, Note_on_c, 1, 57, 127
1, 111930, Note_on_c, 1, 74, 127
1, 111959, Note_off_c, 1, 45, 0
1, 111959, Note_off_c, 1, 57, 0
1, 111959, Note_off_c, 1, 74, 0
1, 111960, Note_on_c, 1, 76, 127
1, 111960, Note_on_c, 1, 61, 127
1, 111989, Note_off_c, 1, 76, 0
1, 111990, Note_on_c, 1, 73, 127
1, 112019, Note_off_c, 1, 61, 0
1, 112019, Note_off_c, 1, 73, 0
1, 112020, Note_on_c, 1, 71, 127
1, 112020, Note_on_c, 1, 64, 127
1, 112049, Note_off_c, 1, 71, 0
1, 112050, Note_on_c, 1, 69, 127
1, 112079, Note_off_c, 1, 64, 0
1, 112079, Note_off_c, 1, 69, 0
1, 112080, Note_on_c, 1, 45, 127
1, 112080, Note_on_c, 1, 82, 127
1, 112080, Note_on_c, 1, 67, 127
1, 112109, Note_off_c, 1, 82, 0
1, 112110, Note_on_c, 1, 76, 127
1, 112139, Note_off_c, 1, 67, 0
1, 112139, Note_off_c, 1, 76, 0
1, 112140, Note_on_c, 1, 77, 127
1, 112140, Note_on_c, 1, 69, 127
1, 112169, Note_off_c, 1, 77, 0
1, 112170, Note_on_c, 1, 74, 127
1, 112199, Note_off_c, 1, 45, 0
1, 112199, Note_off_c, 1, 69, 0
1, 112199, Note_off_c, 1, 74, 0
1, 112200, Note_on_c, 1, 76, 127
1, 112200, Note_on_c, 1, 67, 127
1, 112229, Note_off_c, 1, 76, 0
1, 112230, Note_on_c, 1, 73, 127
1, 112259, Note_off_c, 1, 67, 0
1, 112259, Note_off_c, 1, 73, 0
1, 112260, Note_on_c, 1, 71, 127
1, 112260, Note_on_c, 1, 65, 127
1, 112289, Note_off_c, 1, 71, 0
1, 112290, Note_on_c, 1, 69, 127
1, 112319, Note_off_c, 1, 65, 0
1, 112319, Note_off_c, 1, 69, 0
1, 112320, Note_on_c, 1, 57, 127
1, 112320, Note_on_c, 1, 73, 127
1, 112320, Note_on_c, 1, 64, 127
1, 112349, Note_off_c, 1, 73, 0
1, 112349, Note_off_c, 1, 64, 0
1, 112350, Note_on_c, 1, 76, 127
1, 112350, Note_on_c, 1, 67, 127
1, 112379, Note_off_c, 1, 57, 0
1, 112379, Note_off_c, 1, 76, 0
1, 112379, Note_off_c, 1, 67, 0
1, 112380, Note_on_c, 1, 52, 127
1, 112380, Note_on_c, 1, 79, 127
1, 112380, Note_on_c, 1, 70, 127
1, 112409, Note_off_c, 1, 79, 0
1, 112409, Note_off_c, 1, 70, 0
1, 112410, Note_on_c, 1, 82, 127
1, 112410, Note_on_c, 1, 67, 127
1, 112439, Note_off_c, 1, 52, 0
1, 112439, Note_off_c, 1, 82, 0
1, 112439, Note_off_c, 1, 67, 0
1, 112440, Note_on_c, 1, 49, 127
1, 112440, Note_on_c, 1, 81, 127
1, 112440, Note_on_c, 1, 64, 127
1, 112469, Note_off_c, 1, 81, 0
1, 112469, Note_off_c, 1, 64, 0
1, 112470, Note_on_c, 1, 79, 127
1, 112470, Note_on_c, 1, 69, 127
1, 112499, Note_off_c, 1, 49, 0
1, 112499, Note_off_c, 1, 79, 0
1, 112499, Note_off_c, 1, 69, 0
1, 112500, Note_on_c, 1, 45, 127
1, 112500, Note_on_c, 1, 77, 127
1, 112500, Note_on_c, 1, 73, 127
1, 112529, Note_off_c, 1, 77, 0
1, 112529, Note_off_c, 1, 73, 0
1, 112530, Note_on_c, 1, 76, 127
1, 112530, Note_on_c, 1, 69, 127
1, 112559, Note_off_c, 1, 45, 0
1, 112559, Note_off_c, 1, 76, 0
1, 112559, Note_off_c, 1, 69, 0
1, 112560, Note_on_c, 1, 50, 127
1, 112560, Note_on_c, 1, 77, 127
1, 112560, Note_on_c, 1, 62, 127
1, 112589, Note_off_c, 1, 77, 0
1, 112590, Note_on_c, 1, 73, 127
1, 112619, Note_off_c, 1, 62, 0
1, 112619, Note_off_c, 1, 73, 0
1, 112620, Note_on_c, 1, 74, 127
1, 112620, Note_on_c, 1, 65, 127
1, 112649, Note_off_c, 1, 74, 0
1, 112650, Note_on_c, 1, 69, 127
1, 112679, Note_off_c, 1, 50, 0
1, 112679, Note_off_c, 1, 65, 0
1, 112679, Note_off_c, 1, 69, 0
1, 112680, Note_on_c, 1, 70, 127
1, 112680, Note_on_c, 1, 55, 127
1, 112709, Note_off_c, 1, 70, 0
1, 112710, Note_on_c, 1, 67, 127
1, 112739, Note_off_c, 1, 55, 0
1, 112739, Note_off_c, 1, 67, 0
1, 112740, Note_on_c, 1, 66, 127
1, 112740, Note_on_c, 1, 58, 127
1, 112769, Note_off_c, 1, 66, 0
1, 112770, Note_on_c, 1, 67, 127
1, 112799, Note_off_c, 1, 58, 0
1, 112799, Note_off_c, 1, 67, 0
1, 112800, Note_on_c, 1, 50, 127
1, 112800, Note_on_c, 1, 75, 127
1, 112800, Note_on_c, 1, 54, 127
1, 112829, Note_off_c, 1, 75, 0
1, 112830, Note_on_c, 1, 70, 127
1, 112859, Note_off_c, 1, 54, 0
1, 112859, Note_off_c, 1, 70, 0
1, 112860, Note_on_c, 1, 72, 127
1, 112860, Note_on_c, 1, 57, 127
1, 112889, Note_off_c, 1, 72, 0
1, 112890, Note_on_c, 1, 67, 127
1, 112919, Note_off_c, 1, 50, 0
1, 112919, Note_off_c, 1, 57, 0
1, 112919, Note_off_c, 1, 67, 0
1, 112920, Note_on_c, 1, 69, 127
1, 112920, Note_on_c, 1, 62, 127
1, 112949, Note_off_c, 1, 69, 0
1, 112950, Note_on_c, 1, 66, 127
1, 112979, Note_off_c, 1, 62, 0
1, 112979, Note_off_c, 1, 66, 0
1, 112980, Note_on_c, 1, 64, 127
1, 112980, Note_on_c, 1, 60, 127
1, 113009, Note_off_c, 1, 64, 0
1, 113010, Note_on_c, 1, 66, 127
1, 113039, Note_off_c, 1, 60, 0
1, 113039, Note_off_c, 1, 66, 0
1, 113040, Note_on_c, 1, 50, 127
1, 113040, Note_on_c, 1, 74, 127
1, 113040, Note_on_c, 1, 58, 127
1, 113069, Note_off_c, 1, 74, 0
1, 113070, Note_on_c, 1, 69, 127
1, 113099, Note_off_c, 1, 58, 0
1, 113099, Note_off_c, 1, 69, 0
1, 113100, Note_on_c, 1, 70, 127
1, 113100, Note_on_c, 1, 62, 127
1, 113129, Note_off_c, 1, 70, 0
1, 113130, Note_on_c, 1, 66, 127
1, 113159, Note_off_c, 1, 50, 0
1, 113159, Note_off_c, 1, 62, 0
1, 113159, Note_off_c, 1, 66, 0
1, 113160, Note_on_c, 1, 67, 127
1, 113160, Note_on_c, 1, 58, 127
1, 113189, Note_off_c, 1, 67, 0
1, 113190, Note_on_c, 1, 63, 127
1, 113219, Note_off_c, 1, 58, 0
1, 113219, Note_off_c, 1, 63, 0
1, 113220, Note_on_c, 1, 62, 127
1, 113220, Note_on_c, 1, 55, 127
1, 113249, Note_off_c, 1, 62, 0
1, 113250, Note_on_c, 1, 63, 127
1, 113279, Note_off_c, 1, 55, 0
1, 113279, Note_off_c, 1, 63, 0
1, 113280, Note_on_c, 1, 50, 127
1, 113280, Note_on_c, 1, 72, 127
1, 113280, Note_on_c, 1, 54, 127
1, 113309, Note_off_c, 1, 72, 0
1, 113310, Note_on_c, 1, 67, 127
1, 113339, Note_off_c, 1, 54, 0
1, 113339, Note_off_c, 1, 67, 0
1, 113340, Note_on_c, 1, 69, 127
1, 113340, Note_on_c, 1, 60, 127
1, 113369, Note_off_c, 1, 69, 0
1, 113370, Note_on_c, 1, 64, 127
1, 113399, Note_off_c, 1, 50, 0
1, 113399, Note_off_c, 1, 60, 0
1, 113399, Note_off_c, 1, 64, 0
1, 113400, Note_on_c, 1, 66, 127
1, 113400, Note_on_c, 1, 57, 127
1, 113429, Note_off_c, 1, 66, 0
1, 113430, Note_on_c, 1, 62, 127
1, 113459, Note_off_c, 1, 57, 0
1, 113459, Note_off_c, 1, 62, 0
1, 113460, Note_on_c, 1, 61, 127
1, 113460, Note_on_c, 1, 54, 127
1, 113489, Note_off_c, 1, 61, 0
1, 113490, Note_on_c, 1, 62, 127
1, 113519, Note_off_c, 1, 54, 0
1, 113519, Note_off_c, 1, 62, 0
1, 113520, Note_on_c, 1, 66, 127
1, 113520, Note_on_c, 1, 50, 127
1, 113549, Note_off_c, 1, 66, 0
1, 113549, Note_off_c, 1, 50, 0
1, 113550, Note_on_c, 1, 69, 127
1, 113550, Note_on_c, 1, 54, 127
1, 113579, Note_off_c, 1, 69, 0
1, 113579, Note_off_c, 1, 54, 0
1, 113580, Note_on_c, 1, 50, 127
1, 113580, Note_on_c, 1, 72, 127
1, 113580, Note_on_c, 1, 57, 127
1, 113609, Note_off_c, 1, 72, 0
1, 113609, Note_off_c, 1, 57, 0
1, 113610, Note_on_c, 1, 75, 127
1, 113610, Note_on_c, 1, 60, 127
1, 113639, Note_off_c, 1, 50, 0
1, 113639, Note_off_c, 1, 75, 0
1, 113639, Note_off_c, 1, 60, 0
1, 113640, Note_on_c, 1, 50, 127
1, 113640, Note_on_c, 1, 74, 127
1, 113640, Note_on_c, 1, 58, 127
1, 113669, Note_off_c, 1, 74, 0
1, 113669, Note_off_c, 1, 58, 0
1, 113670, Note_on_c, 1, 72, 127
1, 113670, Note_on_c, 1, 57, 127
1, 113699, Note_off_c, 1, 50, 0
1, 113699, Note_off_c, 1, 72, 0
1, 113699, Note_off_c, 1, 57, 0
1, 113700, Note_on_c, 1, 50, 127
1, 113700, Note_on_c, 1, 70, 127
1, 113700, Note_on_c, 1, 55, 127
1, 113729, Note_off_c, 1, 70, 0
1, 113729, Note_off_c, 1, 55, 0
1, 113730, Note_on_c, 1, 69, 127
1, 113730, Note_on_c, 1, 54, 127
1, 113759, Note_off_c, 1, 50, 0
1, 113759, Note_off_c, 1, 69, 0
1, 113759, Note_off_c, 1, 54, 0
1, 113760, Note_on_c, 1, 70, 127
1, 113760, Note_on_c, 1, 55, 127
1, 113789, Note_off_c, 1, 70, 0
1, 113789, Note_off_c, 1, 55, 0
1, 113790, Note_on_c, 1, 67, 127
1, 113790, Note_on_c, 1, 50, 127
1, 113819, Note_off_c, 1, 67, 0
1, 113819, Note_off_c, 1, 50, 0
1, 113820, Note_on_c, 1, 55, 127
1, 113820, Note_on_c, 1, 70, 127
1, 113849, Note_off_c, 1, 70, 0
1, 113850, Note_on_c, 1, 74, 127
1, 113850, Note_on_c, 1, 58, 127
1, 113879, Note_off_c, 1, 55, 0
1, 113879, Note_off_c, 1, 74, 0
1, 113879, Note_off_c, 1, 58, 0
1, 113880, Note_on_c, 1, 55, 127
1, 113880, Note_on_c, 1, 70, 127
1, 113880, Note_on_c, 1, 62, 127
1, 113909, Note_off_c, 1, 70, 0
1, 113909, Note_off_c, 1, 62, 0
1, 113910, Note_on_c, 1, 67, 127
1, 113910, Note_on_c, 1, 58, 127
1, 113939, Note_off_c, 1, 55, 0
1, 113939, Note_off_c, 1, 67, 0
1, 113939, Note_off_c, 1, 58, 0
1, 113940, Note_on_c, 1, 55, 127
1, 113940, Note_on_c, 1, 70, 127
1, 113969, Note_off_c, 1, 70, 0
1, 113970, Note_on_c, 1, 65, 127
1, 113970, Note_on_c, 1, 58, 127
1, 113999, Note_off_c, 1, 55, 0
1, 113999, Note_off_c, 1, 65, 0
1, 113999, Note_off_c, 1, 58, 0
1, 114000, Note_on_c, 1, 64, 127
1, 114000, Note_on_c, 1, 48, 127
1, 114029, Note_off_c, 1, 64, 0
1, 114029, Note_off_c, 1, 48, 0
1, 114030, Note_on_c, 1, 67, 127
1, 114030, Note_on_c, 1, 52, 127
1, 114059, Note_off_c, 1, 67, 0
1, 114059, Note_off_c, 1, 52, 0
1, 114060, Note_on_c, 1, 48, 127
1, 114060, Note_on_c, 1, 70, 127
1, 114060, Note_on_c, 1, 55, 127
1, 114089, Note_off_c, 1, 70, 0
1, 114089, Note_off_c, 1, 55, 0
1, 114090, Note_on_c, 1, 74, 127
1, 114090, Note_on_c, 1, 58, 127
1, 114119, Note_off_c, 1, 48, 0
1, 114119, Note_off_c, 1, 74, 0
1, 114119, Note_off_c, 1, 58, 0
1, 114120, Note_on_c, 1, 48, 127
1, 114120, Note_on_c, 1, 72, 127
1, 114120, Note_on_c, 1, 57, 127
1, 114149, Note_off_c, 1, 72, 0
1, 114149, Note_off_c, 1, 57, 0
1, 114150, Note_on_c, 1, 70, 127
1, 114150, Note_on_c, 1, 55, 127
1, 114179, Note_off_c, 1, 48, 0
1, 114179, Note_off_c, 1, 70, 0
1, 114179, Note_off_c, 1, 55, 0
1, 114180, Note_on_c, 1, 48, 127
1, 114180, Note_on_c, 1, 69, 127
1, 114180, Note_on_c, 1, 53, 127
1, 114209, Note_off_c, 1, 69, 0
1, 114209, Note_off_c, 1, 53, 0
1, 114210, Note_on_c, 1, 67, 127
1, 114210, Note_on_c, 1, 52, 127
1, 114239, Note_off_c, 1, 48, 0
1, 114239, Note_off_c, 1, 67, 0
1, 114239, Note_off_c, 1, 52, 0
1, 114240, Note_on_c, 1, 69, 127
1, 114240, Note_on_c, 1, 57, 127
1, 114269, Note_off_c, 1, 69, 0
1, 114269, Note_off_c, 1, 57, 0
1, 114270, Note_on_c, 1, 65, 127
1, 114270, Note_on_c, 1, 48, 127
1, 114299, Note_off_c, 1, 65, 0
1, 114299, Note_off_c, 1, 48, 0
1, 114300, Note_on_c, 1, 53, 127
1, 114300, Note_on_c, 1, 69, 127
1, 114329, Note_off_c, 1, 69, 0
1, 114330, Note_on_c, 1, 72, 127
1, 114330, Note_on_c, 1, 57, 127
1, 114359, Note_off_c, 1, 53, 0
1, 114359, Note_off_c, 1, 72, 0
1, 114359, Note_off_c, 1, 57, 0
1, 114360, Note_on_c, 1, 53, 127
1, 114360, Note_on_c, 1, 69, 127
1, 114360, Note_on_c, 1, 60, 127
1, 114389, Note_off_c, 1, 69, 0
1, 114389, Note_off_c, 1, 60, 0
1, 114390, Note_on_c, 1, 65, 127
1, 114390, Note_on_c, 1, 57, 127
1, 114419, Note_off_c, 1, 53, 0
1, 114419, Note_off_c, 1, 65, 0
1, 114419, Note_off_c, 1, 57, 0
1, 114420, Note_on_c, 1, 53, 127
1, 114420, Note_on_c, 1, 69, 127
1, 114449, Note_off_c, 1, 69, 0
1, 114450, Note_on_c, 1, 63, 127
1, 114450, Note_on_c, 1, 57, 127
1, 114479, Note_off_c, 1, 53, 0
1, 114479, Note_off_c, 1, 63, 0
1, 114479, Note_off_c, 1, 57, 0
1, 114480, Note_on_c, 1, 62, 127
1, 114480, Note_on_c, 1, 46, 127
1, 114509, Note_off_c, 1, 46, 0
1, 114510, Note_on_c, 1, 53, 127
1, 114539, Note_off_c, 1, 62, 0
1, 114539, Note_off_c, 1, 53, 0
1, 114540, Note_on_c, 1, 46, 127
1, 114540, Note_on_c, 1, 74, 127
1, 114540, Note_on_c, 1, 58, 127
1, 114569, Note_off_c, 1, 74, 0
1, 114569, Note_off_c, 1, 58, 0
1, 114570, Note_on_c, 1, 75, 127
1, 114570, Note_on_c, 1, 60, 127
1, 114599, Note_off_c, 1, 46, 0
1, 114599, Note_off_c, 1, 75, 0
1, 114599, Note_off_c, 1, 60, 0
1, 114600, Note_on_c, 1, 46, 127
1, 114600, Note_on_c, 1, 77, 127
1, 114600, Note_on_c, 1, 62, 127
1, 114629, Note_off_c, 1, 62, 0
1, 114630, Note_on_c, 1, 63, 127
1, 114659, Note_off_c, 1, 46, 0
1, 114659, Note_off_c, 1, 77, 0
1, 114659, Note_off_c, 1, 63, 0
1, 114660, Note_on_c, 1, 46, 127
1, 114660, Note_on_c, 1, 78, 127
1, 114660, Note_on_c, 1, 62, 127
1, 114689, Note_off_c, 1, 62, 0
1, 114690, Note_on_c, 1, 63, 127
1, 114719, Note_off_c, 1, 46, 0
1, 114719, Note_off_c, 1, 63, 0
1, 114779, Note_off_c, 1, 78, 0
1, 114780, Note_on_c, 1, 47, 127
1, 114780, Note_on_c, 1, 79, 127
1, 114780, Note_on_c, 1, 62, 127
1, 114809, Note_off_c, 1, 62, 0
1, 114810, Note_on_c, 1, 60, 127
1, 114839, Note_off_c, 1, 47, 0
1, 114839, Note_off_c, 1, 79, 0
1, 114839, Note_off_c, 1, 60, 0
1, 114840, Note_on_c, 1, 47, 127
1, 114840, Note_on_c, 1, 67, 127
1, 114840, Note_on_c, 1, 59, 127
1, 114869, Note_off_c, 1, 59, 0
1, 114870, Note_on_c, 1, 62, 127
1, 114899, Note_off_c, 1, 47, 0
1, 114899, Note_off_c, 1, 67, 0
1, 114899, Note_off_c, 1, 62, 0
1, 114900, Note_on_c, 1, 47, 127
1, 114900, Note_on_c, 1, 77, 127
1, 114900, Note_on_c, 1, 55, 127
1, 114929, Note_off_c, 1, 55, 0
1, 114930, Note_on_c, 1, 59, 127
1, 114959, Note_off_c, 1, 47, 0
1, 114959, Note_off_c, 1, 59, 0
1, 114960, Note_on_c, 1, 48, 127
1, 114989, Note_off_c, 1, 48, 0
1, 115019, Note_off_c, 1, 77, 0
1, 115020, Note_on_c, 1, 48, 127
1, 115020, Note_on_c, 1, 76, 127
1, 115020, Note_on_c, 1, 60, 127
1, 115049, Note_off_c, 1, 76, 0
1, 115049, Note_off_c, 1, 60, 0
1, 115050, Note_on_c, 1, 77, 127
1, 115050, Note_on_c, 1, 62, 127
1, 115079, Note_off_c, 1, 48, 0
1, 115079, Note_off_c, 1, 77, 0
1, 115079, Note_off_c, 1, 62, 0
1, 115080, Note_on_c, 1, 48, 127
1, 115080, Note_on_c, 1, 79, 127
1, 115080, Note_on_c, 1, 64, 127
1, 115109, Note_off_c, 1, 64, 0
1, 115110, Note_on_c, 1, 65, 127
1, 115139, Note_off_c, 1, 48, 0
1, 115139, Note_off_c, 1, 79, 0
1, 115139, Note_off_c, 1, 65, 0
1, 115140, Note_on_c, 1, 48, 127
1, 115140, Note_on_c, 1, 80, 127
1, 115140, Note_on_c, 1, 64, 127
1, 115169, Note_off_c, 1, 64, 0
1, 115170, Note_on_c, 1, 65, 127
1, 115199, Note_off_c, 1, 48, 0
1, 115199, Note_off_c, 1, 65, 0
1, 115259, Note_off_c, 1, 80, 0
1, 115260, Note_on_c, 1, 49, 127
1, 115260, Note_on_c, 1, 81, 127
1, 115260, Note_on_c, 1, 64, 127
1, 115289, Note_off_c, 1, 64, 0
1, 115290, Note_on_c, 1, 62, 127
1, 115319, Note_off_c, 1, 49, 0
1, 115319, Note_off_c, 1, 81, 0
1, 115319, Note_off_c, 1, 62, 0
1, 115320, Note_on_c, 1, 49, 127
1, 115320, Note_on_c, 1, 69, 127
1, 115320, Note_on_c, 1, 61, 127
1, 115349, Note_off_c, 1, 61, 0
1, 115350, Note_on_c, 1, 64, 127
1, 115379, Note_off_c, 1, 49, 0
1, 115379, Note_off_c, 1, 69, 0
1, 115379, Note_off_c, 1, 64, 0
1, 115380, Note_on_c, 1, 49, 127
1, 115380, Note_on_c, 1, 79, 127
1, 115380, Note_on_c, 1, 57, 127
1, 115409, Note_off_c, 1, 57, 0
1, 115410, Note_on_c, 1, 61, 127
1, 115439, Note_off_c, 1, 49, 0
1, 115439, Note_off_c, 1, 79, 0
1, 115439, Note_off_c, 1, 61, 0
1, 115440, Note_on_c, 1, 50, 127
1, 115440, Note_on_c, 1, 77, 127
1, 115469, Note_off_c, 1, 77, 0
1, 115470, Note_on_c, 1, 82, 127
1, 115470, Note_on_c, 1, 62, 127
1, 115484, Note_off_c, 1, 82, 0
1, 115485, Note_on_c, 1, 81, 127
1, 115499, Note_off_c, 1, 50, 0
1, 115499, Note_off_c, 1, 62, 0
1, 115499, Note_off_c, 1, 81, 0
1, 115500, Note_on_c, 1, 82, 127
1, 115500, Note_on_c, 1, 55, 127
1, 115529, Note_off_c, 1, 82, 0
1, 115529, Note_off_c, 1, 55, 0
1, 115530, Note_on_c, 1, 74, 127
1, 115530, Note_on_c, 1, 58, 127
1, 115559, Note_off_c, 1, 74, 0
1, 115559, Note_off_c, 1, 58, 0
1, 115560, Note_on_c, 1, 47, 127
1, 115560, Note_on_c, 1, 76, 127
1, 115560, Note_on_c, 1, 48, 127
1, 115589, Note_off_c, 1, 76, 0
1, 115589, Note_off_c, 1, 48, 0
1, 115590, Note_on_c, 1, 72, 127
1, 115590, Note_on_c, 1, 60, 127
1, 115619, Note_off_c, 1, 47, 0
1, 115619, Note_off_c, 1, 72, 0
1, 115619, Note_off_c, 1, 60, 0
1, 115620, Note_on_c, 1, 81, 127
1, 115620, Note_on_c, 1, 53, 127
1, 115649, Note_off_c, 1, 53, 0
1, 115650, Note_on_c, 1, 57, 127
1, 115679, Note_off_c, 1, 57, 0
1, 115680, Note_on_c, 1, 46, 127
1, 115709, Note_off_c, 1, 81, 0
1, 115710, Note_on_c, 1, 79, 127
1, 115710, Note_on_c, 1, 58, 127
1, 115724, Note_off_c, 1, 79, 0
1, 115725, Note_on_c, 1, 78, 127
1, 115739, Note_off_c, 1, 46, 0
1, 115739, Note_off_c, 1, 58, 0
1, 115739, Note_off_c, 1, 78, 0
1, 115740, Note_on_c, 1, 79, 127
1, 115740, Note_on_c, 1, 52, 127
1, 115769, Note_off_c, 1, 79, 0
1, 115769, Note_off_c, 1, 52, 0
1, 115770, Note_on_c, 1, 70, 127
1, 115770, Note_on_c, 1, 55, 127
1, 115799, Note_off_c, 1, 70, 0
1, 115799, Note_off_c, 1, 55, 0
1, 115800, Note_on_c, 1, 45, 127
1, 115800, Note_on_c, 1, 72, 127
1, 115829, Note_off_c, 1, 72, 0
1, 115830, Note_on_c, 1, 69, 127
1, 115830, Note_on_c, 1, 57, 127
1, 115859, Note_off_c, 1, 45, 0
1, 115859, Note_off_c, 1, 69, 0
1, 115859, Note_off_c, 1, 57, 0
1, 115860, Note_on_c, 1, 77, 127
1, 115860, Note_on_c, 1, 50, 127
1, 115889, Note_off_c, 1, 50, 0
1, 115890, Note_on_c, 1, 53, 127
1, 115919, Note_off_c, 1, 53, 0
1, 115920, Note_on_c, 1, 43, 127
1, 115949, Note_off_c, 1, 77, 0
1, 115950, Note_on_c, 1, 75, 127
1, 115950, Note_on_c, 1, 55, 127
1, 115964, Note_off_c, 1, 75, 0
1, 115965, Note_on_c, 1, 74, 127
1, 115979, Note_off_c, 1, 43, 0
1, 115979, Note_off_c, 1, 55, 0
1, 115979, Note_off_c, 1, 74, 0
1, 115980, Note_on_c, 1, 75, 127
1, 115980, Note_on_c, 1, 48, 127
1, 116009, Note_off_c, 1, 75, 0
1, 116009, Note_off_c, 1, 48, 0
1, 116010, Note_on_c, 1, 67, 127
1, 116010, Note_on_c, 1, 51, 127
1, 116039, Note_off_c, 1, 67, 0
1, 116039, Note_off_c, 1, 51, 0
1, 116040, Note_on_c, 1, 41, 127
1, 116040, Note_on_c, 1, 69, 127
1, 116069, Note_off_c, 1, 69, 0
1, 116070, Note_on_c, 1, 65, 127
1, 116070, Note_on_c, 1, 53, 127
1, 116099, Note_off_c, 1, 41, 0
1, 116099, Note_off_c, 1, 65, 0
1, 116099, Note_off_c, 1, 53, 0
1, 116100, Note_on_c, 1, 74, 127
1, 116100, Note_on_c, 1, 46, 127
1, 116129, Note_off_c, 1, 46, 0
1, 116130, Note_on_c, 1, 50, 127
1, 116159, Note_off_c, 1, 50, 0
1, 116160, Note_on_c, 1, 40, 127
1, 116189, Note_off_c, 1, 74, 0
1, 116190, Note_on_c, 1, 73, 127
1, 116190, Note_on_c, 1, 52, 127
1, 116204, Note_off_c, 1, 73, 0
1, 116205, Note_on_c, 1, 71, 127
1, 116219, Note_off_c, 1, 40, 0
1, 116219, Note_off_c, 1, 52, 0
1, 116219, Note_off_c, 1, 71, 0
1, 116220, Note_on_c, 1, 73, 127
1, 116220, Note_on_c, 1, 45, 127
1, 116249, Note_off_c, 1, 73, 0
1, 116249, Note_off_c, 1, 45, 0
1, 116250, Note_on_c, 1, 67, 127
1, 116250, Note_on_c, 1, 49, 127
1, 116279, Note_off_c, 1, 67, 0
1, 116279, Note_off_c, 1, 49, 0
1, 116280, Note_on_c, 1, 38, 127
1, 116280, Note_on_c, 1, 65, 127
1, 116309, Note_off_c, 1, 65, 0
1, 116310, Note_on_c, 1, 74, 127
1, 116310, Note_on_c, 1, 41, 127
1, 116339, Note_off_c, 1, 38, 0
1, 116339, Note_off_c, 1, 74, 0
1, 116339, Note_off_c, 1, 41, 0
1, 116340, Note_on_c, 1, 68, 127
1, 116340, Note_on_c, 1, 40, 127
1, 116369, Note_off_c, 1, 68, 0
1, 116369, Note_off_c, 1, 40, 0
1, 116370, Note_on_c, 1, 69, 127
1, 116370, Note_on_c, 1, 38, 127
1, 116399, Note_off_c, 1, 69, 0
1, 116399, Note_off_c, 1, 38, 0
1, 116400, Note_on_c, 1, 45, 127
1, 116400, Note_on_c, 1, 64, 127
1, 116429, Note_off_c, 1, 64, 0
1, 116430, Note_on_c, 1, 73, 127
1, 116459, Note_off_c, 1, 73, 0
1, 116460, Note_on_c, 1, 68, 127
1, 116460, Note_on_c, 1, 49, 127
1, 116489, Note_off_c, 1, 68, 0
1, 116490, Note_on_c, 1, 69, 127
1, 116519, Note_off_c, 1, 49, 0
1, 116519, Note_off_c, 1, 69, 0
1, 116520, Note_on_c, 1, 62, 127
1, 116520, Note_on_c, 1, 50, 127
1, 116549, Note_off_c, 1, 62, 0
1, 116550, Note_on_c, 1, 77, 127
1, 116579, Note_off_c, 1, 50, 0
1, 116579, Note_off_c, 1, 77, 0
1, 116580, Note_on_c, 1, 53, 127
1, 116639, Note_off_c, 1, 53, 0
1, 116640, Note_on_c, 1, 61, 127
1, 116640, Note_on_c, 1, 57, 127
1, 116669, Note_off_c, 1, 61, 0
1, 116670, Note_on_c, 1, 76, 127
1, 116699, Note_off_c, 1, 57, 0
1, 116699, Note_off_c, 1, 76, 0
1, 116700, Note_off_c, 1, 45, 0
1, 116700, Note_on_c, 1, 47, 127
1, 116700, Note_on_c, 1, 52, 127
1, 116759, Note_off_c, 1, 47, 0
1, 116759, Note_off_c, 1, 52, 0
1, 116760, Note_on_c, 1, 49, 127
1, 116760, Note_on_c, 1, 64, 127
1, 116789, Note_off_c, 1, 64, 0
1, 116790, Note_on_c, 1, 70, 127
1, 116819, Note_off_c, 1, 49, 0
1, 116819, Note_off_c, 1, 70, 0
1, 116820, Note_on_c, 1, 45, 127
1, 116820, Note_on_c, 1, 69, 127
1, 116849, Note_off_c, 1, 69, 0
1, 116850, Note_on_c, 1, 67, 127
1, 116879, Note_off_c, 1, 45, 0
1, 116879, Note_off_c, 1, 67, 0
1, 116880, Note_on_c, 1, 57, 127
1, 116880, Note_on_c, 1, 50, 127
1, 116880, Note_on_c, 1, 65, 127
1, 116910, Note_on_c, 1, 53, 127
1, 116939, Note_off_c, 1, 57, 0
1, 116939, Note_off_c, 1, 50, 0
1, 116939, Note_off_c, 1, 65, 0
1, 116939, Note_off_c, 1, 53, 0
1, 116940, Note_on_c, 1, 62, 127
1, 116940, Note_on_c, 1, 52, 127
1, 116940, Note_on_c, 1, 57, 127
1, 116969, Note_off_c, 1, 52, 0
1, 116970, Note_on_c, 1, 53, 127
1, 116999, Note_off_c, 1, 53, 0
1, 117000, Note_on_c, 1, 45, 127
1, 117000, Note_on_c, 1, 64, 127
1, 117029, Note_off_c, 1, 57, 0
1, 117030, Note_on_c, 1, 55, 127
1, 117059, Note_off_c, 1, 62, 0
1, 117059, Note_off_c, 1, 45, 0
1, 117059, Note_off_c, 1, 64, 0
1, 117059, Note_off_c, 1, 55, 0
1, 117060, Note_on_c, 1, 61, 127
1, 117060, Note_on_c, 1, 53, 127
1, 117089, Note_off_c, 1, 53, 0
1, 117090, Note_on_c, 1, 55, 127
1, 117090, Note_on_c, 1, 52, 127
1, 117119, Note_off_c, 1, 61, 0
1, 117119, Note_off_c, 1, 55, 0
1, 117119, Note_off_c, 1, 52, 0
1, 117120, Note_on_c, 1, 62, 127
1, 117120, Note_on_c, 1, 57, 127
1, 117120, Note_on_c, 1, 41, 127
1, 117120, Note_on_c, 1, 45, 127
1, 117120, Note_on_c, 1, 53, 127
1, 117149, Note_off_c, 1, 45, 0
1, 117149, Note_off_c, 1, 53, 0
1, 117150, Note_on_c, 1, 50, 127
1, 117179, Note_off_c, 1, 62, 0
1, 117179, Note_off_c, 1, 57, 0
1, 117179, Note_off_c, 1, 41, 0
1, 117179, Note_off_c, 1, 50, 0
1, 117180, Note_on_c, 1, 62, 127
1, 117180, Note_on_c, 1, 55, 127
1, 117180, Note_on_c, 1, 52, 127
1, 117209, Note_off_c, 1, 55, 0
1, 117209, Note_off_c, 1, 52, 0
1, 117210, Note_on_c, 1, 57, 127
1, 117210, Note_on_c, 1, 53, 127
1, 117239, Note_off_c, 1, 57, 0
1, 117239, Note_off_c, 1, 53, 0
1, 117240, Note_on_c, 1, 64, 127
1, 117240, Note_on_c, 1, 45, 127
1, 117299, Note_off_c, 1, 62, 0
1, 117299, Note_off_c, 1, 64, 0
1, 117299, Note_off_c, 1, 45, 0
1, 117300, Note_on_c, 1, 61, 127
1, 117300, Note_on_c, 1, 57, 127
1, 117300, Note_on_c, 1, 53, 127
1, 117329, Note_off_c, 1, 57, 0
1, 117329, Note_off_c, 1, 53, 0
1, 117330, Note_on_c, 1, 58, 127
1, 117330, Note_on_c, 1, 55, 127
1, 117359, Note_off_c, 1, 61, 0
1, 117359, Note_off_c, 1, 58, 0
1, 117359, Note_off_c, 1, 55, 0
1, 117360, Note_on_c, 1, 65, 127
1, 117360, Note_on_c, 1, 62, 127
1, 117360, Note_on_c, 1, 38, 127
1, 117360, Note_on_c, 1, 45, 127
1, 117389, Note_off_c, 1, 45, 0
1, 117390, Note_on_c, 1, 57, 127
1, 117390, Note_on_c, 1, 53, 127
1, 117419, Note_off_c, 1, 65, 0
1, 117419, Note_off_c, 1, 62, 0
1, 117419, Note_off_c, 1, 38, 0
1, 117419, Note_off_c, 1, 57, 0
1, 117419, Note_off_c, 1, 53, 0
1, 117420, Note_on_c, 1, 64, 127
1, 117420, Note_on_c, 1, 55, 127
1, 117449, Note_off_c, 1, 64, 0
1, 117449, Note_off_c, 1, 55, 0
1, 117450, Note_on_c, 1, 62, 127
1, 117450, Note_on_c, 1, 53, 127
1, 117450, Note_on_c, 1, 57, 127
1, 117479, Note_off_c, 1, 62, 0
1, 117479, Note_off_c, 1, 53, 0
1, 117479, Note_off_c, 1, 57, 0
1, 117480, Note_on_c, 1, 61, 127
1, 117480, Note_on_c, 1, 64, 127
1, 117480, Note_on_c, 1, 45, 127
1, 117509, Note_off_c, 1, 61, 0
1, 117510, Note_on_c, 1, 55, 127
1, 117539, Note_off_c, 1, 64, 0
1, 117539, Note_off_c, 1, 45, 0
1, 117539, Note_off_c, 1, 55, 0
1, 117540, Note_on_c, 1, 62, 127
1, 117540, Note_on_c, 1, 53, 127
1, 117540, Note_on_c, 1, 57, 127
1, 117569, Note_off_c, 1, 62, 0
1, 117569, Note_off_c, 1, 53, 0
1, 117569, Note_off_c, 1, 57, 0
1, 117570, Note_on_c, 1, 61, 127
1, 117570, Note_on_c, 1, 52, 127
1, 117570, Note_on_c, 1, 58, 127
1, 117599, Note_off_c, 1, 61, 0
1, 117599, Note_off_c, 1, 52, 0
1, 117599, Note_off_c, 1, 58, 0
1, 117600, Note_on_c, 1, 62, 127
1, 117600, Note_on_c, 1, 65, 127
1, 117600, Note_on_c, 1, 41, 127
1, 117600, Note_on_c, 1, 50, 127
1, 117600, Note_on_c, 1, 45, 127
1, 117629, Note_off_c, 1, 50, 0
1, 117629, Note_off_c, 1, 45, 0
1, 117630, Note_on_c, 1, 59, 127
1, 117630, Note_on_c, 1, 57, 127
1, 117659, Note_off_c, 1, 62, 0
1, 117659, Note_off_c, 1, 65, 0
1, 117659, Note_off_c, 1, 41, 0
1, 117659, Note_off_c, 1, 59, 0
1, 117659, Note_off_c, 1, 57, 0
1, 117660, Note_on_c, 1, 69, 127
1, 117660, Note_on_c, 1, 64, 127
1, 117660, Note_on_c, 1, 61, 127
1, 117660, Note_on_c, 1, 55, 127
1, 117689, Note_off_c, 1, 64, 0
1, 117689, Note_off_c, 1, 61, 0
1, 117689, Note_off_c, 1, 55, 0
1, 117690, Note_on_c, 1, 62, 127
1, 117690, Note_on_c, 1, 53, 127
1, 117719, Note_off_c, 1, 62, 0
1, 117719, Note_off_c, 1, 53, 0
1, 117720, Note_on_c, 1, 45, 127
1, 117720, Note_on_c, 1, 57, 127
1, 117749, Note_off_c, 1, 57, 0
1, 117779, Note_off_c, 1, 69, 0
1, 117779, Note_off_c, 1, 45, 0
1, 117780, Note_on_c, 1, 67, 127
1, 117780, Note_on_c, 1, 62, 127
1, 117780, Note_on_c, 1, 53, 127
1, 117809, Note_off_c, 1, 62, 0
1, 117809, Note_off_c, 1, 53, 0
1, 117810, Note_on_c, 1, 61, 127
1, 117810, Note_on_c, 1, 64, 127
1, 117810, Note_on_c, 1, 52, 127
1, 117839, Note_off_c, 1, 67, 0
1, 117839, Note_off_c, 1, 61, 0
1, 117839, Note_off_c, 1, 64, 0
1, 117839, Note_off_c, 1, 52, 0
1, 117840, Note_on_c, 1, 65, 127
1, 117840, Note_on_c, 1, 62, 127
1, 117840, Note_on_c, 1, 50, 127
1, 117840, Note_on_c, 1, 57, 127
1, 117869, Note_off_c, 1, 57, 0
1, 117870, Note_on_c, 1, 53, 127
1, 117870, Note_on_c, 1, 59, 127
1, 117899, Note_off_c, 1, 65, 0
1, 117899, Note_off_c, 1, 62, 0
1, 117899, Note_off_c, 1, 50, 0
1, 117899, Note_off_c, 1, 53, 0
1, 117899, Note_off_c, 1, 59, 0
1, 117900, Note_on_c, 1, 69, 127
1, 117900, Note_on_c, 1, 52, 127
1, 117900, Note_on_c, 1, 61, 127
1, 117929, Note_off_c, 1, 52, 0
1, 117929, Note_off_c, 1, 61, 0
1, 117930, Note_on_c, 1, 50, 127
1, 117930, Note_on_c, 1, 62, 127
1, 117959, Note_off_c, 1, 50, 0
1, 117959, Note_off_c, 1, 62, 0
1, 117960, Note_on_c, 1, 64, 127
1, 117960, Note_on_c, 1, 49, 127
1, 117960, Note_on_c, 1, 57, 127
1, 117989, Note_off_c, 1, 57, 0
1, 117990, Note_on_c, 1, 55, 127
1, 118019, Note_off_c, 1, 69, 0
1, 118019, Note_off_c, 1, 64, 0
1, 118019, Note_off_c, 1, 49, 0
1, 118019, Note_off_c, 1, 55, 0
1, 118020, Note_on_c, 1, 67, 127
1, 118020, Note_on_c, 1, 53, 127
1, 118020, Note_on_c, 1, 62, 127
1, 118049, Note_off_c, 1, 53, 0
1, 118049, Note_off_c, 1, 62, 0
1, 118050, Note_on_c, 1, 52, 127
1, 118050, Note_on_c, 1, 64, 127
1, 118079, Note_off_c, 1, 67, 0
1, 118079, Note_off_c, 1, 52, 0
1, 118079, Note_off_c, 1, 64, 0
1, 118080, Note_on_c, 1, 62, 127
1, 118080, Note_on_c, 1, 65, 127
1, 118080, Note_on_c, 1, 50, 127
1, 118080, Note_on_c, 1, 53, 127
1, 118080, Note_on_c, 1, 57, 127
1, 118109, Note_off_c, 1, 53, 0
1, 118109, Note_off_c, 1, 57, 0
1, 118139, Note_off_c, 1, 62, 0
1, 118139, Note_off_c, 1, 65, 0
1, 118139, Note_off_c, 1, 50, 0
1, 118140, Note_on_c, 1, 74, 127
1, 118140, Note_on_c, 1, 55, 127
1, 118140, Note_on_c, 1, 52, 127
1, 118169, Note_off_c, 1, 55, 0
1, 118169, Note_off_c, 1, 52, 0
1, 118170, Note_on_c, 1, 57, 127
1, 118170, Note_on_c, 1, 50, 127
1, 118199, Note_off_c, 1, 57, 0
1, 118199, Note_off_c, 1, 50, 0
1, 118200, Note_on_c, 1, 64, 127
1, 118200, Note_on_c, 1, 45, 127
1, 118230, Note_on_c, 1, 58, 127
1, 118259, Note_off_c, 1, 74, 0
1, 118259, Note_off_c, 1, 64, 0
1, 118259, Note_off_c, 1, 45, 0
1, 118259, Note_off_c, 1, 58, 0
1, 118260, Note_on_c, 1, 72, 127
1, 118260, Note_on_c, 1, 57, 127
1, 118290, Note_on_c, 1, 55, 127
1, 118319, Note_off_c, 1, 72, 0
1, 118319, Note_off_c, 1, 55, 0
1, 118320, Note_on_c, 1, 70, 127
1, 118320, Note_on_c, 1, 62, 127
1, 118320, Note_on_c, 1, 46, 127
1, 118320, Note_on_c, 1, 54, 127
1, 118349, Note_off_c, 1, 57, 0
1, 118349, Note_off_c, 1, 54, 0
1, 118379, Note_off_c, 1, 70, 0
1, 118379, Note_off_c, 1, 62, 0
1, 118379, Note_off_c, 1, 46, 0
1, 118380, Note_on_c, 1, 74, 127
1, 118380, Note_on_c, 1, 57, 127
1, 118380, Note_on_c, 1, 54, 127
1, 118409, Note_off_c, 1, 57, 0
1, 118409, Note_off_c, 1, 54, 0
1, 118410, Note_on_c, 1, 58, 127
1, 118410, Note_on_c, 1, 55, 127
1, 118439, Note_off_c, 1, 58, 0
1, 118439, Note_off_c, 1, 55, 0
1, 118440, Note_on_c, 1, 69, 127
1, 118440, Note_on_c, 1, 42, 127
1, 118440, Note_on_c, 1, 60, 127
1, 118469, Note_off_c, 1, 60, 0
1, 118470, Note_on_c, 1, 50, 127
1, 118499, Note_off_c, 1, 74, 0
1, 118499, Note_off_c, 1, 69, 0
1, 118499, Note_off_c, 1, 42, 0
1, 118499, Note_off_c, 1, 50, 0
1, 118500, Note_on_c, 1, 72, 127
1, 118500, Note_on_c, 1, 54, 127
1, 118500, Note_on_c, 1, 62, 127
1, 118529, Note_off_c, 1, 54, 0
1, 118530, Note_on_c, 1, 57, 127
1, 118559, Note_off_c, 1, 72, 0
1, 118559, Note_off_c, 1, 57, 0
1, 118560, Note_on_c, 1, 74, 127
1, 118560, Note_on_c, 1, 70, 127
1, 118560, Note_on_c, 1, 43, 127
1, 118560, Note_on_c, 1, 55, 127
1, 118560, Note_on_c, 1, 50, 127
1, 118589, Note_off_c, 1, 62, 0
1, 118589, Note_off_c, 1, 55, 0
1, 118589, Note_off_c, 1, 50, 0
1, 118590, Note_on_c, 1, 48, 127
1, 118619, Note_off_c, 1, 74, 0
1, 118619, Note_off_c, 1, 70, 0
1, 118619, Note_off_c, 1, 43, 0
1, 118619, Note_off_c, 1, 48, 0
1, 118620, Note_on_c, 1, 79, 127
1, 118620, Note_on_c, 1, 58, 127
1, 118620, Note_on_c, 1, 46, 127
1, 118620, Note_on_c, 1, 55, 127
1, 118649, Note_off_c, 1, 58, 0
1, 118649, Note_off_c, 1, 46, 0
1, 118649, Note_off_c, 1, 55, 0
1, 118650, Note_on_c, 1, 50, 127
1, 118679, Note_off_c, 1, 50, 0
1, 118680, Note_on_c, 1, 69, 127
1, 118680, Note_on_c, 1, 72, 127
1, 118680, Note_on_c, 1, 45, 127
1, 118680, Note_on_c, 1, 57, 127
1, 118680, Note_on_c, 1, 48, 127
1, 118680, Note_on_c, 1, 63, 127
1, 118709, Note_off_c, 1, 57, 0
1, 118709, Note_off_c, 1, 48, 0
1, 118709, Note_off_c, 1, 63, 0
1, 118710, Note_on_c, 1, 62, 127
1, 118739, Note_off_c, 1, 79, 0
1, 118739, Note_off_c, 1, 69, 0
1, 118739, Note_off_c, 1, 72, 0
1, 118739, Note_off_c, 1, 45, 0
1, 118739, Note_off_c, 1, 62, 0
1, 118740, Note_on_c, 1, 78, 127
1, 118740, Note_on_c, 1, 60, 127
1, 118740, Note_on_c, 1, 45, 127
1, 118769, Note_off_c, 1, 60, 0
1, 118769, Note_off_c, 1, 45, 0
1, 118770, Note_on_c, 1, 57, 127
1, 118770, Note_on_c, 1, 50, 127
1, 118770, Note_on_c, 1, 62, 127
1, 118799, Note_off_c, 1, 78, 0
1, 118799, Note_off_c, 1, 57, 0
1, 118799, Note_off_c, 1, 50, 0
1, 118799, Note_off_c, 1, 62, 0
1, 118800, Note_on_c, 1, 79, 127
1, 118800, Note_on_c, 1, 74, 127
1, 118800, Note_on_c, 1, 70, 127
1, 118800, Note_on_c, 1, 46, 127
1, 118800, Note_on_c, 1, 58, 127
1, 118800, Note_on_c, 1, 43, 127
1, 118829, Note_off_c, 1, 58, 0
1, 118829, Note_off_c, 1, 43, 0
1, 118830, Note_on_c, 1, 62, 127
1, 118830, Note_on_c, 1, 55, 127
1, 118859, Note_off_c, 1, 79, 0
1, 118859, Note_off_c, 1, 74, 0
1, 118859, Note_off_c, 1, 70, 0
1, 118859, Note_off_c, 1, 46, 0
1, 118859, Note_off_c, 1, 62, 0
1, 118859, Note_off_c, 1, 55, 0
1, 118860, Note_on_c, 1, 81, 127
1, 118860, Note_on_c, 1, 60, 127
1, 118860, Note_on_c, 1, 48, 127
1, 118860, Note_on_c, 1, 63, 127
1, 118889, Note_off_c, 1, 60, 0
1, 118889, Note_off_c, 1, 48, 0
1, 118889, Note_off_c, 1, 63, 0
1, 118890, Note_on_c, 1, 58, 127
1, 118890, Note_on_c, 1, 50, 127
1, 118890, Note_on_c, 1, 62, 127
1, 118919, Note_off_c, 1, 58, 0
1, 118919, Note_off_c, 1, 50, 0
1, 118919, Note_off_c, 1, 62, 0
1, 118920, Note_on_c, 1, 72, 127
1, 118920, Note_on_c, 1, 57, 127
1, 118920, Note_on_c, 1, 51, 127
1, 118949, Note_off_c, 1, 57, 0
1, 118949, Note_off_c, 1, 51, 0
1, 118950, Note_on_c, 1, 55, 127
1, 118979, Note_off_c, 1, 81, 0
1, 118979, Note_off_c, 1, 72, 0
1, 118979, Note_off_c, 1, 55, 0
1, 118980, Note_on_c, 1, 82, 127
1, 118980, Note_on_c, 1, 54, 127
1, 118980, Note_on_c, 1, 50, 127
1, 118980, Note_on_c, 1, 62, 127
1, 119009, Note_off_c, 1, 54, 0
1, 119009, Note_off_c, 1, 50, 0
1, 119009, Note_off_c, 1, 62, 0
1, 119010, Note_on_c, 1, 52, 127
1, 119010, Note_on_c, 1, 60, 127
1, 119039, Note_off_c, 1, 52, 0
1, 119039, Note_off_c, 1, 60, 0
1, 119040, Note_on_c, 1, 66, 127
1, 119040, Note_on_c, 1, 58, 127
1, 119069, Note_off_c, 1, 58, 0
1, 119070, Note_on_c, 1, 55, 127
1, 119099, Note_off_c, 1, 82, 0
1, 119099, Note_off_c, 1, 66, 0
1, 119099, Note_off_c, 1, 55, 0
1, 119100, Note_on_c, 1, 81, 127
1, 119100, Note_on_c, 1, 67, 127
1, 119100, Note_on_c, 1, 58, 127
1, 119100, Note_on_c, 1, 51, 127
1, 119100, Note_on_c, 1, 55, 127
1, 119100, Note_on_c, 1, 63, 127
1, 119129, Note_off_c, 1, 81, 0
1, 119130, Note_on_c, 1, 79, 127
1, 119159, Note_off_c, 1, 67, 0
1, 119159, Note_off_c, 1, 58, 0
1, 119159, Note_off_c, 1, 51, 0
1, 119159, Note_off_c, 1, 55, 0
1, 119159, Note_off_c, 1, 63, 0
1, 119159, Note_off_c, 1, 79, 0
1, 119160, Note_on_c, 1, 82, 127
1, 119160, Note_on_c, 1, 72, 127
1, 119160, Note_on_c, 1, 63, 127
1, 119160, Note_on_c, 1, 48, 127
1, 119160, Note_on_c, 1, 60, 127
1, 119189, Note_off_c, 1, 82, 0
1, 119190, Note_on_c, 1, 81, 127
1, 119219, Note_off_c, 1, 72, 0
1, 119219, Note_off_c, 1, 63, 0
1, 119219, Note_off_c, 1, 48, 0
1, 119219, Note_off_c, 1, 60, 0
1, 119219, Note_off_c, 1, 81, 0
1, 119220, Note_on_c, 1, 79, 127
1, 119220, Note_on_c, 1, 69, 127
1, 119220, Note_on_c, 1, 62, 127
1, 119220, Note_on_c, 1, 50, 127
1, 119249, Note_off_c, 1, 79, 0
1, 119250, Note_on_c, 1, 78, 127
1, 119279, Note_off_c, 1, 69, 0
1, 119279, Note_off_c, 1, 62, 0
1, 119279, Note_off_c, 1, 50, 0
1, 119279, Note_off_c, 1, 78, 0
1, 119280, Note_on_c, 1, 79, 127
1, 119280, Note_on_c, 1, 70, 127
1, 119280, Note_on_c, 1, 62, 127
1, 119280, Note_on_c, 1, 43, 127
1, 119280, Note_on_c, 1, 55, 127
1, 119310, Note_on_c, 1, 64, 127
1, 119324, Note_off_c, 1, 64, 0
1, 119325, Note_on_c, 1, 66, 127
1, 119339, Note_off_c, 1, 70, 0
1, 119339, Note_off_c, 1, 62, 0
1, 119339, Note_off_c, 1, 43, 0
1, 119339, Note_off_c, 1, 55, 0
1, 119339, Note_off_c, 1, 66, 0
1, 119340, Note_off_c, 1, 79, 0
1, 119340, Note_on_c, 1, 67, 127
1, 119354, Note_off_c, 1, 67, 0
1, 119355, Note_on_c, 1, 69, 127
1, 119369, Note_off_c, 1, 69, 0
1, 119370, Note_on_c, 1, 53, 127
1, 119370, Note_on_c, 1, 70, 127
1, 119384, Note_off_c, 1, 70, 0
1, 119385, Note_on_c, 1, 72, 127
1, 119399, Note_off_c, 1, 53, 0
1, 119399, Note_off_c, 1, 72, 0
1, 119400, Note_on_c, 1, 52, 127
1, 119400, Note_on_c, 1, 70, 127
1, 119414, Note_off_c, 1, 70, 0
1, 119415, Note_on_c, 1, 69, 127
1, 119429, Note_off_c, 1, 52, 0
1, 119429, Note_off_c, 1, 69, 0
1, 119430, Note_on_c, 1, 50, 127
1, 119430, Note_on_c, 1, 67, 127
1, 119444, Note_off_c, 1, 67, 0
1, 119445, Note_on_c, 1, 65, 127
1, 119459, Note_off_c, 1, 50, 0
1, 119459, Note_off_c, 1, 65, 0
1, 119460, Note_on_c, 1, 48, 127
1, 119460, Note_on_c, 1, 64, 127
1, 119474, Note_off_c, 1, 64, 0
1, 119475, Note_on_c, 1, 62, 127
1, 119489, Note_off_c, 1, 48, 0
1, 119489, Note_off_c, 1, 62, 0
1, 119490, Note_on_c, 1, 46, 127
1, 119490, Note_on_c, 1, 60, 127
1, 119504, Note_off_c, 1, 60, 0
1, 119505, Note_on_c, 1, 58, 127
1, 119519, Note_off_c, 1, 46, 0
1, 119519, Note_off_c, 1, 58, 0
1, 119520, Note_on_c, 1, 72, 127
1, 119520, Note_on_c, 1, 65, 127
1, 119520, Note_on_c, 1, 45, 127
1, 119520, Note_on_c, 1, 77, 127
1, 119520, Note_on_c, 1, 57, 127
1, 119549, Note_off_c, 1, 77, 0
1, 119550, Note_on_c, 1, 76, 127
1, 119550, Note_on_c, 1, 60, 127
1, 119579, Note_off_c, 1, 72, 0
1, 119579, Note_off_c, 1, 65, 0
1, 119579, Note_off_c, 1, 45, 0
1, 119579, Note_off_c, 1, 57, 0
1, 119579, Note_off_c, 1, 76, 0
1, 119579, Note_off_c, 1, 60, 0
1, 119580, Note_on_c, 1, 77, 127
1, 119580, Note_on_c, 1, 74, 127
1, 119580, Note_on_c, 1, 58, 127
1, 119609, Note_off_c, 1, 74, 0
1, 119609, Note_off_c, 1, 58, 0
1, 119610, Note_on_c, 1, 72, 127
1, 119610, Note_on_c, 1, 57, 127
1, 119639, Note_off_c, 1, 72, 0
1, 119639, Note_off_c, 1, 57, 0
1, 119640, Note_on_c, 1, 70, 127
1, 119640, Note_on_c, 1, 67, 127
1, 119640, Note_on_c, 1, 43, 127
1, 119640, Note_on_c, 1, 55, 127
1, 119699, Note_off_c, 1, 77, 0
1, 119699, Note_off_c, 1, 70, 0
1, 119699, Note_off_c, 1, 67, 0
1, 119699, Note_off_c, 1, 43, 0
1, 119699, Note_off_c, 1, 55, 0
1, 119700, Note_on_c, 1, 76, 127
1, 119700, Note_on_c, 1, 72, 127
1, 119700, Note_on_c, 1, 57, 127
1, 119729, Note_off_c, 1, 72, 0
1, 119729, Note_off_c, 1, 57, 0
1, 119730, Note_on_c, 1, 70, 127
1, 119730, Note_on_c, 1, 55, 127
1, 119759, Note_off_c, 1, 76, 0
1, 119759, Note_off_c, 1, 70, 0
1, 119759, Note_off_c, 1, 55, 0
1, 119760, Note_on_c, 1, 77, 127
1, 119760, Note_on_c, 1, 69, 127
1, 119760, Note_on_c, 1, 72, 127
1, 119760, Note_on_c, 1, 41, 127
1, 119760, Note_on_c, 1, 53, 127
1, 119790, Note_on_c, 1, 57, 127
1, 119819, Note_off_c, 1, 77, 0
1, 119819, Note_off_c, 1, 69, 0
1, 119819, Note_off_c, 1, 72, 0
1, 119819, Note_off_c, 1, 41, 0
1, 119819, Note_off_c, 1, 53, 0
1, 119819, Note_off_c, 1, 57, 0
1, 119820, Note_on_c, 1, 79, 127
1, 119820, Note_on_c, 1, 70, 127
1, 119820, Note_on_c, 1, 62, 127
1, 119849, Note_off_c, 1, 70, 0
1, 119849, Note_off_c, 1, 62, 0
1, 119850, Note_on_c, 1, 69, 127
1, 119850, Note_on_c, 1, 60, 127
1, 119879, Note_off_c, 1, 69, 0
1, 119879, Note_off_c, 1, 60, 0
1, 119880, Note_on_c, 1, 74, 127
1, 119880, Note_on_c, 1, 40, 127
1, 119880, Note_on_c, 1, 77, 127
1, 119880, Note_on_c, 1, 58, 127
1, 119880, Note_on_c, 1, 52, 127
1, 119909, Note_off_c, 1, 77, 0
1, 119909, Note_off_c, 1, 58, 0
1, 119910, Note_on_c, 1, 55, 127
1, 119939, Note_off_c, 1, 79, 0
1, 119939, Note_off_c, 1, 74, 0
1, 119939, Note_off_c, 1, 40, 0
1, 119939, Note_off_c, 1, 52, 0
1, 119939, Note_off_c, 1, 55, 0
1, 119940, Note_on_c, 1, 81, 127
1, 119940, Note_on_c, 1, 69, 127
1, 119940, Note_on_c, 1, 53, 127
1, 119969, Note_off_c, 1, 69, 0
1, 119969, Note_off_c, 1, 53, 0
1, 119970, Note_on_c, 1, 67, 127
1, 119970, Note_on_c, 1, 52, 127
1, 119999, Note_off_c, 1, 67, 0
1, 119999, Note_off_c, 1, 52, 0
1, 120000, Note_on_c, 1, 72, 127
1, 120000, Note_on_c, 1, 41, 127
1, 120000, Note_on_c, 1, 65, 127
1, 120000, Note_on_c, 1, 57, 127
1, 120029, Note_off_c, 1, 65, 0
1, 120029, Note_off_c, 1, 57, 0
1, 120059, Note_off_c, 1, 81, 0
1, 120059, Note_off_c, 1, 72, 0
1, 120059, Note_off_c, 1, 41, 0
1, 120060, Note_on_c, 1, 79, 127
1, 120060, Note_on_c, 1, 74, 127
1, 120060, Note_on_c, 1, 69, 127
1, 120060, Note_on_c, 1, 50, 127
1, 120060, Note_on_c, 1, 62, 127
1, 120089, Note_off_c, 1, 79, 0
1, 120090, Note_on_c, 1, 77, 127
1, 120119, Note_off_c, 1, 74, 0
1, 120119, Note_off_c, 1, 69, 0
1, 120119, Note_off_c, 1, 50, 0
1, 120119, Note_off_c, 1, 62, 0
1, 120119, Note_off_c, 1, 77, 0
1, 120120, Note_on_c, 1, 81, 127
1, 120120, Note_on_c, 1, 74, 127
1, 120120, Note_on_c, 1, 70, 127
1, 120120, Note_on_c, 1, 46, 127
1, 120120, Note_on_c, 1, 58, 127
1, 120149, Note_off_c, 1, 81, 0
1, 120150, Note_on_c, 1, 79, 127
1, 120179, Note_off_c, 1, 74, 0
1, 120179, Note_off_c, 1, 70, 0
1, 120179, Note_off_c, 1, 46, 0
1, 120179, Note_off_c, 1, 58, 0
1, 120179, Note_off_c, 1, 79, 0
1, 120180, Note_on_c, 1, 77, 127
1, 120180, Note_on_c, 1, 72, 127
1, 120180, Note_on_c, 1, 67, 127
1, 120180, Note_on_c, 1, 48, 127
1, 120180, Note_on_c, 1, 60, 127
1, 120209, Note_off_c, 1, 77, 0
1, 120210, Note_on_c, 1, 76, 127
1, 120239, Note_off_c, 1, 72, 0
1, 120239, Note_off_c, 1, 67, 0
1, 120239, Note_off_c, 1, 48, 0
1, 120239, Note_off_c, 1, 60, 0
1, 120239, Note_off_c, 1, 76, 0
1, 120240, Note_on_c, 1, 77, 127
1, 120240, Note_on_c, 1, 72, 127
1, 120240, Note_on_c, 1, 69, 127
1, 120240, Note_on_c, 1, 41, 127
1, 120240, Note_on_c, 1, 53, 127
1, 120255, Note_on_c, 1, 60, 127
1, 120269, Note_off_c, 1, 60, 0
1, 120270, Note_on_c, 1, 62, 127
1, 120284, Note_off_c, 1, 62, 0
1, 120285, Note_on_c, 1, 64, 127
1, 120299, Note_off_c, 1, 77, 0
1, 120299, Note_off_c, 1, 72, 0
1, 120299, Note_off_c, 1, 69, 0
1, 120299, Note_off_c, 1, 41, 0
1, 120299, Note_off_c, 1, 53, 0
1, 120299, Note_off_c, 1, 64, 0
1, 120300, Note_on_c, 1, 57, 127
1, 120300, Note_on_c, 1, 65, 127
1, 120314, Note_off_c, 1, 65, 0
1, 120315, Note_on_c, 1, 67, 127
1, 120329, Note_off_c, 1, 57, 0
1, 120329, Note_off_c, 1, 67, 0
1, 120330, Note_on_c, 1, 55, 127
1, 120330, Note_on_c, 1, 69, 127
1, 120344, Note_off_c, 1, 69, 0
1, 120345, Note_on_c, 1, 70, 127
1, 120359, Note_off_c, 1, 55, 0
1, 120359, Note_off_c, 1, 70, 0
1, 120360, Note_on_c, 1, 53, 127
1, 120360, Note_on_c, 1, 69, 127
1, 120374, Note_off_c, 1, 69, 0
1, 120375, Note_on_c, 1, 65, 127
1, 120389, Note_off_c, 1, 53, 0
1, 120389, Note_off_c, 1, 65, 0
1, 120390, Note_on_c, 1, 52, 127
1, 120390, Note_on_c, 1, 67, 127
1, 120404, Note_off_c, 1, 67, 0
1, 120405, Note_on_c, 1, 69, 127
1, 120419, Note_off_c, 1, 52, 0
1, 120419, Note_off_c, 1, 69, 0
1, 120420, Note_on_c, 1, 50, 127
1, 120420, Note_on_c, 1, 70, 127
1, 120434, Note_off_c, 1, 70, 0
1, 120435, Note_on_c, 1, 72, 127
1, 120449, Note_off_c, 1, 50, 0
1, 120449, Note_off_c, 1, 72, 0
1, 120450, Note_on_c, 1, 48, 127
1, 120450, Note_on_c, 1, 74, 127
1, 120464, Note_off_c, 1, 74, 0
1, 120465, Note_on_c, 1, 76, 127
1, 120479, Note_off_c, 1, 48, 0
1, 120479, Note_off_c, 1, 76, 0
1, 120480, Note_on_c, 1, 67, 127
1, 120480, Note_on_c, 1, 65, 127
1, 120480, Note_on_c, 1, 47, 127
1, 120480, Note_on_c, 1, 74, 127
1, 120480, Note_on_c, 1, 77, 127
1, 120480, Note_on_c, 1, 55, 127
1, 120480, Note_on_c, 1, 62, 127
1, 120509, Note_off_c, 1, 77, 0
1, 120509, Note_off_c, 1, 55, 0
1, 120510, Note_on_c, 1, 71, 127
1, 120539, Note_off_c, 1, 67, 0
1, 120539, Note_off_c, 1, 65, 0
1, 120539, Note_off_c, 1, 47, 0
1, 120539, Note_off_c, 1, 74, 0
1, 120539, Note_off_c, 1, 62, 0
1, 120539, Note_off_c, 1, 71, 0
1, 120540, Note_on_c, 1, 74, 127
1, 120540, Note_on_c, 1, 67, 127
1, 120540, Note_on_c, 1, 65, 127
1, 120540, Note_on_c, 1, 47, 127
1, 120540, Note_on_c, 1, 69, 127
1, 120540, Note_on_c, 1, 60, 127
1, 120540, Note_on_c, 1, 62, 127
1, 120569, Note_off_c, 1, 69, 0
1, 120569, Note_off_c, 1, 60, 0
1, 120570, Note_on_c, 1, 59, 127
1, 120599, Note_off_c, 1, 67, 0
1, 120599, Note_off_c, 1, 65, 0
1, 120599, Note_off_c, 1, 47, 0
1, 120599, Note_off_c, 1, 62, 0
1, 120599, Note_off_c, 1, 59, 0
1, 120600, Note_on_c, 1, 77, 127
1, 120600, Note_on_c, 1, 55, 127
1, 120629, Note_off_c, 1, 77, 0
1, 120629, Note_off_c, 1, 55, 0
1, 120630, Note_on_c, 1, 71, 127
1, 120659, Note_off_c, 1, 74, 0
1, 120659, Note_off_c, 1, 71, 0
1, 120660, Note_on_c, 1, 77, 127
1, 120660, Note_on_c, 1, 67, 127
1, 120660, Note_on_c, 1, 65, 127
1, 120660, Note_on_c, 1, 47, 127
1, 120660, Note_on_c, 1, 74, 127
1, 120660, Note_on_c, 1, 69, 127
1, 120660, Note_on_c, 1, 60, 127
1, 120689, Note_off_c, 1, 69, 0
1, 120689, Note_off_c, 1, 60, 0
1, 120690, Note_on_c, 1, 59, 127
1, 120719, Note_off_c, 1, 77, 0
1, 120719, Note_off_c, 1, 67, 0
1, 120719, Note_off_c, 1, 65, 0
1, 120719, Note_off_c, 1, 47, 0
1, 120719, Note_off_c, 1, 74, 0
1, 120719, Note_off_c, 1, 59, 0
1, 120720, Note_on_c, 1, 76, 127
1, 120720, Note_on_c, 1, 67, 127
1, 120720, Note_on_c, 1, 64, 127
1, 120720, Note_on_c, 1, 48, 127
1, 120720, Note_on_c, 1, 72, 127
1, 120720, Note_on_c, 1, 60, 127
1, 120735, Note_on_c, 1, 59, 127
1, 120749, Note_off_c, 1, 59, 0
1, 120765, Note_on_c, 1, 62, 127
1, 120779, Note_off_c, 1, 76, 0
1, 120779, Note_off_c, 1, 67, 0
1, 120779, Note_off_c, 1, 64, 0
1, 120779, Note_off_c, 1, 48, 0
1, 120779, Note_off_c, 1, 72, 0
1, 120779, Note_off_c, 1, 60, 0
1, 120779, Note_off_c, 1, 62, 0
1, 120780, Note_on_c, 1, 48, 127
1, 120780, Note_on_c, 1, 64, 127
1, 120794, Note_off_c, 1, 64, 0
1, 120795, Note_on_c, 1, 65, 127
1, 120809, Note_off_c, 1, 65, 0
1, 120810, Note_on_c, 1, 67, 127
1, 120824, Note_off_c, 1, 67, 0
1, 120825, Note_on_c, 1, 69, 127
1, 120839, Note_off_c, 1, 48, 0
1, 120839, Note_off_c, 1, 69, 0
1, 120840, Note_on_c, 1, 46, 127
1, 120840, Note_on_c, 1, 67, 127
1, 120854, Note_off_c, 1, 67, 0
1, 120855, Note_on_c, 1, 64, 127
1, 120869, Note_off_c, 1, 64, 0
1, 120870, Note_on_c, 1, 65, 127
1, 120884, Note_off_c, 1, 65, 0
1, 120899, Note_off_c, 1, 46, 0
1, 120900, Note_on_c, 1, 46, 127
1, 120900, Note_on_c, 1, 69, 127
1, 120914, Note_off_c, 1, 69, 0
1, 120915, Note_on_c, 1, 70, 127
1, 120929, Note_off_c, 1, 70, 0
1, 120930, Note_on_c, 1, 72, 127
1, 120944, Note_off_c, 1, 72, 0
1, 120945, Note_on_c, 1, 74, 127
1, 120959, Note_off_c, 1, 46, 0
1, 120959, Note_off_c, 1, 74, 0
1, 120960, Note_on_c, 1, 65, 127
1, 120960, Note_on_c, 1, 60, 127
1, 120960, Note_on_c, 1, 45, 127
1, 120960, Note_on_c, 1, 72, 127
1, 120960, Note_on_c, 1, 75, 127
1, 120960, Note_on_c, 1, 53, 127
1, 120989, Note_off_c, 1, 75, 0
1, 120989, Note_off_c, 1, 53, 0
1, 120990, Note_on_c, 1, 69, 127
1, 121019, Note_off_c, 1, 65, 0
1, 121019, Note_off_c, 1, 60, 0
1, 121019, Note_off_c, 1, 45, 0
1, 121019, Note_off_c, 1, 72, 0
1, 121019, Note_off_c, 1, 69, 0
1, 121020, Note_on_c, 1, 72, 127
1, 121020, Note_on_c, 1, 65, 127
1, 121020, Note_on_c, 1, 60, 127
1, 121020, Note_on_c, 1, 45, 127
1, 121020, Note_on_c, 1, 67, 127
1, 121020, Note_on_c, 1, 58, 127
1, 121049, Note_off_c, 1, 67, 0
1, 121049, Note_off_c, 1, 58, 0
1, 121050, Note_on_c, 1, 57, 127
1, 121079, Note_off_c, 1, 65, 0
1, 121079, Note_off_c, 1, 60, 0
1, 121079, Note_off_c, 1, 45, 0
1, 121079, Note_off_c, 1, 57, 0
1, 121080, Note_on_c, 1, 75, 127
1, 121080, Note_on_c, 1, 53, 127
1, 121109, Note_off_c, 1, 75, 0
1, 121109, Note_off_c, 1, 53, 0
1, 121110, Note_on_c, 1, 69, 127
1, 121139, Note_off_c, 1, 72, 0
1, 121139, Note_off_c, 1, 69, 0
1, 121140, Note_on_c, 1, 75, 127
1, 121140, Note_on_c, 1, 65, 127
1, 121140, Note_on_c, 1, 60, 127
1, 121140, Note_on_c, 1, 45, 127
1, 121140, Note_on_c, 1, 63, 127
1, 121140, Note_on_c, 1, 72, 127
1, 121140, Note_on_c, 1, 67, 127
1, 121140, Note_on_c, 1, 58, 127
1, 121169, Note_off_c, 1, 67, 0
1, 121169, Note_off_c, 1, 58, 0
1, 121170, Note_on_c, 1, 57, 127
1, 121199, Note_off_c, 1, 75, 0
1, 121199, Note_off_c, 1, 65, 0
1, 121199, Note_off_c, 1, 60, 0
1, 121199, Note_off_c, 1, 45, 0
1, 121199, Note_off_c, 1, 63, 0
1, 121199, Note_off_c, 1, 72, 0
1, 121199, Note_off_c, 1, 57, 0
1, 121200, Note_on_c, 1, 74, 127
1, 121200, Note_on_c, 1, 65, 127
1, 121200, Note_on_c, 1, 58, 127
1, 121200, Note_on_c, 1, 46, 127
1, 121200, Note_on_c, 1, 62, 127
1, 121200, Note_on_c, 1, 70, 127
1, 121215, Note_on_c, 1, 57, 127
1, 121229, Note_off_c, 1, 57, 0
1, 121230, Note_off_c, 1, 62, 0
1, 121245, Note_on_c, 1, 60, 127
1, 121259, Note_off_c, 1, 74, 0
1, 121259, Note_off_c, 1, 65, 0
1, 121259, Note_off_c, 1, 58, 0
1, 121259, Note_off_c, 1, 46, 0
1, 121259, Note_off_c, 1, 70, 0
1, 121259, Note_off_c, 1, 60, 0
1, 121260, Note_on_c, 1, 46, 127
1, 121260, Note_on_c, 1, 62, 127
1, 121274, Note_off_c, 1, 62, 0
1, 121275, Note_on_c, 1, 63, 127
1, 121289, Note_off_c, 1, 63, 0
1, 121290, Note_on_c, 1, 65, 127
1, 121304, Note_off_c, 1, 65, 0
1, 121305, Note_on_c, 1, 67, 127
1, 121319, Note_off_c, 1, 46, 0
1, 121319, Note_off_c, 1, 67, 0
1, 121320, Note_on_c, 1, 58, 127
1, 121320, Note_on_c, 1, 65, 127
1, 121334, Note_off_c, 1, 65, 0
1, 121335, Note_on_c, 1, 62, 127
1, 121349, Note_off_c, 1, 62, 0
1, 121350, Note_on_c, 1, 63, 127
1, 121364, Note_off_c, 1, 63, 0
1, 121379, Note_off_c, 1, 58, 0
1, 121380, Note_on_c, 1, 58, 127
1, 121380, Note_on_c, 1, 67, 127
1, 121394, Note_off_c, 1, 67, 0
1, 121395, Note_on_c, 1, 69, 127
1, 121409, Note_off_c, 1, 69, 0
1, 121410, Note_on_c, 1, 70, 127
1, 121424, Note_off_c, 1, 70, 0
1, 121425, Note_on_c, 1, 72, 127
1, 121439, Note_off_c, 1, 58, 0
1, 121439, Note_off_c, 1, 72, 0
1, 121440, Note_on_c, 1, 74, 127
1, 121440, Note_on_c, 1, 65, 127
1, 121440, Note_on_c, 1, 58, 127
1, 121440, Note_on_c, 1, 56, 127
1, 121440, Note_on_c, 1, 44, 127
1, 121470, Note_on_c, 1, 62, 127
1, 121470, Note_on_c, 1, 70, 127
1, 121499, Note_off_c, 1, 74, 0
1, 121499, Note_off_c, 1, 65, 0
1, 121499, Note_off_c, 1, 58, 0
1, 121499, Note_off_c, 1, 56, 0
1, 121499, Note_off_c, 1, 44, 0
1, 121499, Note_off_c, 1, 62, 0
1, 121499, Note_off_c, 1, 70, 0
1, 121500, Note_on_c, 1, 56, 127
1, 121500, Note_on_c, 1, 63, 127
1, 121500, Note_on_c, 1, 55, 127
1, 121500, Note_on_c, 1, 60, 127
1, 121500, Note_on_c, 1, 44, 127
1, 121500, Note_on_c, 1, 72, 127
1, 121529, Note_off_c, 1, 63, 0
1, 121529, Note_off_c, 1, 55, 0
1, 121529, Note_off_c, 1, 60, 0
1, 121529, Note_off_c, 1, 72, 0
1, 121530, Note_on_c, 1, 62, 127
1, 121530, Note_on_c, 1, 53, 127
1, 121530, Note_on_c, 1, 58, 127
1, 121530, Note_on_c, 1, 74, 127
1, 121559, Note_off_c, 1, 56, 0
1, 121559, Note_off_c, 1, 44, 0
1, 121559, Note_off_c, 1, 62, 0
1, 121559, Note_off_c, 1, 53, 0
1, 121559, Note_off_c, 1, 58, 0
1, 121559, Note_off_c, 1, 74, 0
1, 121560, Note_on_c, 1, 72, 127
1, 121560, Note_on_c, 1, 65, 127
1, 121560, Note_on_c, 1, 60, 127
1, 121560, Note_on_c, 1, 44, 127
1, 121560, Note_on_c, 1, 74, 127
1, 121560, Note_on_c, 1, 56, 127
1, 121589, Note_off_c, 1, 74, 0
1, 121590, Note_on_c, 1, 68, 127
1, 121590, Note_on_c, 1, 71, 127
1, 121619, Note_off_c, 1, 72, 0
1, 121619, Note_off_c, 1, 65, 0
1, 121619, Note_off_c, 1, 60, 0
1, 121619, Note_off_c, 1, 44, 0
1, 121619, Note_off_c, 1, 56, 0
1, 121619, Note_off_c, 1, 68, 0
1, 121619, Note_off_c, 1, 71, 0
1, 121620, Note_on_c, 1, 44, 127
1, 121620, Note_on_c, 1, 63, 127
1, 121620, Note_on_c, 1, 55, 127
1, 121620, Note_on_c, 1, 67, 127
1, 121620, Note_on_c, 1, 56, 127
1, 121620, Note_on_c, 1, 72, 127
1, 121649, Note_off_c, 1, 63, 0
1, 121649, Note_off_c, 1, 55, 0
1, 121649, Note_off_c, 1, 67, 0
1, 121649, Note_off_c, 1, 72, 0
1, 121650, Note_on_c, 1, 62, 127
1, 121650, Note_on_c, 1, 53, 127
1, 121650, Note_on_c, 1, 65, 127
1, 121650, Note_on_c, 1, 74, 127
1, 121679, Note_off_c, 1, 44, 0
1, 121679, Note_off_c, 1, 56, 0
1, 121679, Note_off_c, 1, 62, 0
1, 121679, Note_off_c, 1, 53, 0
1, 121679, Note_off_c, 1, 65, 0
1, 121679, Note_off_c, 1, 74, 0
1, 121680, Note_on_c, 1, 71, 127
1, 121680, Note_on_c, 1, 67, 127
1, 121680, Note_on_c, 1, 62, 127
1, 121680, Note_on_c, 1, 43, 127
1, 121680, Note_on_c, 1, 65, 127
1, 121680, Note_on_c, 1, 74, 127
1, 121680, Note_on_c, 1, 55, 127
1, 121680, Note_on_c, 1, 79, 127
1, 121710, Note_on_c, 1, 56, 127
1, 121739, Note_off_c, 1, 71, 0
1, 121739, Note_off_c, 1, 67, 0
1, 121739, Note_off_c, 1, 62, 0
1, 121739, Note_off_c, 1, 43, 0
1, 121739, Note_off_c, 1, 65, 0
1, 121739, Note_off_c, 1, 74, 0
1, 121739, Note_off_c, 1, 55, 0
1, 121739, Note_off_c, 1, 79, 0
1, 121739, Note_off_c, 1, 56, 0
1, 121740, Note_on_c, 1, 43, 127
1, 121740, Note_on_c, 1, 63, 127
1, 121740, Note_on_c, 1, 55, 127
1, 121769, Note_off_c, 1, 63, 0
1, 121769, Note_off_c, 1, 55, 0
1, 121770, Note_on_c, 1, 62, 127
1, 121770, Note_on_c, 1, 53, 127
1, 121799, Note_off_c, 1, 43, 0
1, 121799, Note_off_c, 1, 62, 0
1, 121799, Note_off_c, 1, 53, 0
1, 121800, Note_on_c, 1, 41, 127
1, 121800, Note_on_c, 1, 67, 127
1, 121800, Note_on_c, 1, 59, 127
1, 121829, Note_off_c, 1, 67, 0
1, 121829, Note_off_c, 1, 59, 0
1, 121830, Note_on_c, 1, 71, 127
1, 121830, Note_on_c, 1, 55, 127
1, 121859, Note_off_c, 1, 41, 0
1, 121859, Note_off_c, 1, 71, 0
1, 121859, Note_off_c, 1, 55, 0
1, 121860, Note_on_c, 1, 41, 127
1, 121860, Note_on_c, 1, 69, 127
1, 121860, Note_on_c, 1, 62, 127
1, 121889, Note_off_c, 1, 69, 0
1, 121889, Note_off_c, 1, 62, 0
1, 121890, Note_on_c, 1, 67, 127
1, 121890, Note_on_c, 1, 53, 127
1, 121919, Note_off_c, 1, 41, 0
1, 121919, Note_off_c, 1, 67, 0
1, 121919, Note_off_c, 1, 53, 0
1, 121920, Note_on_c, 1, 72, 127
1, 121920, Note_on_c, 1, 67, 127
1, 121920, Note_on_c, 1, 60, 127
1, 121920, Note_on_c, 1, 40, 127
1, 121920, Note_on_c, 1, 70, 127
1, 121920, Note_on_c, 1, 52, 127
1, 121949, Note_off_c, 1, 70, 0
1, 121950, Note_on_c, 1, 76, 127
1, 121950, Note_on_c, 1, 55, 127
1, 121979, Note_off_c, 1, 72, 0
1, 121979, Note_off_c, 1, 67, 0
1, 121979, Note_off_c, 1, 60, 0
1, 121979, Note_off_c, 1, 40, 0
1, 121979, Note_off_c, 1, 52, 0
1, 121979, Note_off_c, 1, 76, 0
1, 121979, Note_off_c, 1, 55, 0
1, 121980, Note_on_c, 1, 40, 127
1, 121980, Note_on_c, 1, 77, 127
1, 121980, Note_on_c, 1, 57, 127
1, 121980, Note_on_c, 1, 65, 127
1, 121980, Note_on_c, 1, 52, 127
1, 121980, Note_on_c, 1, 69, 127
1, 122009, Note_off_c, 1, 77, 0
1, 122009, Note_off_c, 1, 57, 0
1, 122009, Note_off_c, 1, 65, 0
1, 122009, Note_off_c, 1, 69, 0
1, 122010, Note_on_c, 1, 79, 127
1, 122010, Note_on_c, 1, 58, 127
1, 122010, Note_on_c, 1, 64, 127
1, 122010, Note_on_c, 1, 67, 127
1, 122039, Note_off_c, 1, 40, 0
1, 122039, Note_off_c, 1, 52, 0
1, 122039, Note_off_c, 1, 79, 0
1, 122039, Note_off_c, 1, 58, 0
1, 122039, Note_off_c, 1, 64, 0
1, 122039, Note_off_c, 1, 67, 0
1, 122040, Note_on_c, 1, 70, 127
1, 122040, Note_on_c, 1, 67, 127
1, 122040, Note_on_c, 1, 60, 127
1, 122040, Note_on_c, 1, 40, 127
1, 122040, Note_on_c, 1, 55, 127
1, 122040, Note_on_c, 1, 72, 127
1, 122069, Note_off_c, 1, 55, 0
1, 122069, Note_off_c, 1, 72, 0
1, 122070, Note_on_c, 1, 76, 127
1, 122070, Note_on_c, 1, 58, 127
1, 122099, Note_off_c, 1, 70, 0
1, 122099, Note_off_c, 1, 67, 0
1, 122099, Note_off_c, 1, 60, 0
1, 122099, Note_off_c, 1, 40, 0
1, 122099, Note_off_c, 1, 76, 0
1, 122099, Note_off_c, 1, 58, 0
1, 122100, Note_on_c, 1, 40, 127
1, 122100, Note_on_c, 1, 77, 127
1, 122100, Note_on_c, 1, 57, 127
1, 122100, Note_on_c, 1, 65, 127
1, 122100, Note_on_c, 1, 69, 127
1, 122129, Note_off_c, 1, 77, 0
1, 122129, Note_off_c, 1, 57, 0
1, 122129, Note_off_c, 1, 65, 0
1, 122129, Note_off_c, 1, 69, 0
1, 122130, Note_on_c, 1, 79, 127
1, 122130, Note_on_c, 1, 55, 127
1, 122130, Note_on_c, 1, 64, 127
1, 122130, Note_on_c, 1, 70, 127
1, 122159, Note_off_c, 1, 40, 0
1, 122159, Note_off_c, 1, 79, 0
1, 122159, Note_off_c, 1, 55, 0
1, 122159, Note_off_c, 1, 64, 0
1, 122159, Note_off_c, 1, 70, 0
1, 122160, Note_on_c, 1, 69, 127
1, 122160, Note_on_c, 1, 65, 127
1, 122160, Note_on_c, 1, 60, 127
1, 122160, Note_on_c, 1, 41, 127
1, 122160, Note_on_c, 1, 53, 127
1, 122160, Note_on_c, 1, 72, 127
1, 122160, Note_on_c, 1, 77, 127
1, 122189, Note_off_c, 1, 53, 0
1, 122190, Note_on_c, 1, 57, 127
1, 122219, Note_off_c, 1, 69, 0
1, 122219, Note_off_c, 1, 65, 0
1, 122219, Note_off_c, 1, 60, 0
1, 122219, Note_off_c, 1, 41, 0
1, 122219, Note_off_c, 1, 72, 0
1, 122219, Note_off_c, 1, 77, 0
1, 122219, Note_off_c, 1, 57, 0
1, 122220, Note_on_c, 1, 41, 127
1, 122220, Note_on_c, 1, 74, 127
1, 122220, Note_on_c, 1, 58, 127
1, 122249, Note_off_c, 1, 74, 0
1, 122249, Note_off_c, 1, 58, 0
1, 122250, Note_on_c, 1, 75, 127
1, 122250, Note_on_c, 1, 60, 127
1, 122279, Note_off_c, 1, 41, 0
1, 122279, Note_off_c, 1, 75, 0
1, 122279, Note_off_c, 1, 60, 0
1, 122280, Note_on_c, 1, 39, 127
1, 122280, Note_on_c, 1, 65, 127
1, 122280, Note_on_c, 1, 57, 127
1, 122309, Note_off_c, 1, 65, 0
1, 122309, Note_off_c, 1, 57, 0
1, 122310, Note_on_c, 1, 69, 127
1, 122310, Note_on_c, 1, 60, 127
1, 122339, Note_off_c, 1, 39, 0
1, 122339, Note_off_c, 1, 69, 0
1, 122339, Note_off_c, 1, 60, 0
1, 122340, Note_on_c, 1, 39, 127
1, 122340, Note_on_c, 1, 67, 127
1, 122340, Note_on_c, 1, 58, 127
1, 122369, Note_off_c, 1, 67, 0
1, 122369, Note_off_c, 1, 58, 0
1, 122370, Note_on_c, 1, 65, 127
1, 122370, Note_on_c, 1, 57, 127
1, 122399, Note_off_c, 1, 39, 0
1, 122399, Note_off_c, 1, 65, 0
1, 122399, Note_off_c, 1, 57, 0
1, 122400, Note_on_c, 1, 70, 127
1, 122400, Note_on_c, 1, 65, 127
1, 122400, Note_on_c, 1, 62, 127
1, 122400, Note_on_c, 1, 38, 127
1, 122400, Note_on_c, 1, 50, 127
1, 122400, Note_on_c, 1, 77, 127
1, 122429, Note_off_c, 1, 50, 0
1, 122429, Note_off_c, 1, 77, 0
1, 122430, Note_on_c, 1, 74, 127
1, 122430, Note_on_c, 1, 58, 127
1, 122459, Note_off_c, 1, 70, 0
1, 122459, Note_off_c, 1, 65, 0
1, 122459, Note_off_c, 1, 62, 0
1, 122459, Note_off_c, 1, 38, 0
1, 122459, Note_off_c, 1, 74, 0
1, 122459, Note_off_c, 1, 58, 0
1, 122460, Note_on_c, 1, 38, 127
1, 122460, Note_on_c, 1, 76, 127
1, 122460, Note_on_c, 1, 60, 127
1, 122460, Note_on_c, 1, 64, 127
1, 122460, Note_on_c, 1, 72, 127
1, 122489, Note_off_c, 1, 76, 0
1, 122489, Note_off_c, 1, 60, 0
1, 122489, Note_off_c, 1, 64, 0
1, 122489, Note_off_c, 1, 72, 0
1, 122490, Note_on_c, 1, 77, 127
1, 122490, Note_on_c, 1, 62, 127
1, 122490, Note_on_c, 1, 70, 127
1, 122519, Note_off_c, 1, 38, 0
1, 122519, Note_off_c, 1, 77, 0
1, 122519, Note_off_c, 1, 62, 0
1, 122519, Note_off_c, 1, 70, 0
1, 122520, Note_on_c, 1, 69, 127
1, 122520, Note_on_c, 1, 65, 127
1, 122520, Note_on_c, 1, 60, 127
1, 122520, Note_on_c, 1, 50, 127
1, 122520, Note_on_c, 1, 77, 127
1, 122549, Note_off_c, 1, 77, 0
1, 122550, Note_on_c, 1, 74, 127
1, 122550, Note_on_c, 1, 57, 127
1, 122550, Note_on_c, 1, 72, 127
1, 122579, Note_off_c, 1, 69, 0
1, 122579, Note_off_c, 1, 65, 0
1, 122579, Note_off_c, 1, 60, 0
1, 122579, Note_off_c, 1, 50, 0
1, 122579, Note_off_c, 1, 74, 0
1, 122579, Note_off_c, 1, 57, 0
1, 122579, Note_off_c, 1, 72, 0
1, 122580, Note_on_c, 1, 50, 127
1, 122580, Note_on_c, 1, 76, 127
1, 122580, Note_on_c, 1, 62, 127
1, 122580, Note_on_c, 1, 68, 127
1, 122580, Note_on_c, 1, 71, 127
1, 122609, Note_off_c, 1, 76, 0
1, 122609, Note_off_c, 1, 62, 0
1, 122609, Note_off_c, 1, 68, 0
1, 122609, Note_off_c, 1, 71, 0
1, 122610, Note_on_c, 1, 77, 127
1, 122610, Note_on_c, 1, 60, 127
1, 122610, Note_on_c, 1, 69, 127
1, 122639, Note_off_c, 1, 50, 0
1, 122639, Note_off_c, 1, 77, 0
1, 122639, Note_off_c, 1, 60, 0
1, 122639, Note_off_c, 1, 69, 0
1, 122640, Note_on_c, 1, 68, 127
1, 122640, Note_on_c, 1, 64, 127
1, 122640, Note_on_c, 1, 59, 127
1, 122640, Note_on_c, 1, 50, 127
1, 122640, Note_on_c, 1, 71, 127
1, 122640, Note_on_c, 1, 76, 127
1, 122655, Note_on_c, 1, 77, 127
1, 122669, Note_off_c, 1, 77, 0
1, 122685, Note_on_c, 1, 74, 127
1, 122699, Note_off_c, 1, 68, 0
1, 122699, Note_off_c, 1, 64, 0
1, 122699, Note_off_c, 1, 59, 0
1, 122699, Note_off_c, 1, 50, 0
1, 122699, Note_off_c, 1, 71, 0
1, 122699, Note_off_c, 1, 76, 0
1, 122699, Note_off_c, 1, 74, 0
1, 122700, Note_on_c, 1, 50, 127
1, 122700, Note_on_c, 1, 76, 127
1, 122700, Note_on_c, 1, 71, 127
1, 122700, Note_on_c, 1, 68, 127
1, 122759, Note_off_c, 1, 50, 0
1, 122759, Note_off_c, 1, 71, 0
1, 122759, Note_off_c, 1, 68, 0
1, 122760, Note_on_c, 1, 67, 127
1, 122760, Note_on_c, 1, 64, 127
1, 122760, Note_on_c, 1, 57, 127
1, 122760, Note_on_c, 1, 49, 127
1, 122760, Note_on_c, 1, 69, 127
1, 122790, Note_on_c, 1, 70, 127
1, 122819, Note_off_c, 1, 76, 0
1, 122819, Note_off_c, 1, 64, 0
1, 122819, Note_off_c, 1, 57, 0
1, 122819, Note_off_c, 1, 49, 0
1, 122819, Note_off_c, 1, 69, 0
1, 122819, Note_off_c, 1, 70, 0
1, 122820, Note_off_c, 1, 67, 0
1, 122820, Note_on_c, 1, 52, 127
1, 122879, Note_off_c, 1, 52, 0
1, 122880, Note_on_c, 1, 66, 127
1, 122880, Note_on_c, 1, 62, 127
1, 122880, Note_on_c, 1, 57, 127
1, 122880, Note_on_c, 1, 48, 127
1, 122880, Note_on_c, 1, 69, 127
1, 122895, Note_on_c, 1, 75, 127
1, 122909, Note_off_c, 1, 75, 0
1, 122910, Note_on_c, 1, 74, 127
1, 122924, Note_off_c, 1, 74, 0
1, 122925, Note_on_c, 1, 72, 127
1, 122939, Note_off_c, 1, 62, 0
1, 122939, Note_off_c, 1, 57, 0
1, 122939, Note_off_c, 1, 48, 0
1, 122939, Note_off_c, 1, 69, 0
1, 122939, Note_off_c, 1, 72, 0
1, 122999, Note_off_c, 1, 66, 0
1, 123000, Note_on_c, 1, 65, 127
1, 123000, Note_on_c, 1, 55, 127
1, 123000, Note_on_c, 1, 47, 127
1, 123000, Note_on_c, 1, 67, 127
1, 123030, Note_on_c, 1, 68, 127
1, 123059, Note_off_c, 1, 55, 0
1, 123059, Note_off_c, 1, 47, 0
1, 123059, Note_off_c, 1, 67, 0
1, 123059, Note_off_c, 1, 68, 0
1, 123060, Note_off_c, 1, 65, 0
1, 123060, Note_on_c, 1, 50, 127
1, 123119, Note_off_c, 1, 50, 0
1, 123120, Note_on_c, 1, 64, 127
1, 123120, Note_on_c, 1, 60, 127
1, 123120, Note_on_c, 1, 55, 127
1, 123120, Note_on_c, 1, 46, 127
1, 123120, Note_on_c, 1, 67, 127
1, 123150, Note_on_c, 1, 62, 127
1, 123164, Note_off_c, 1, 62, 0
1, 123179, Note_off_c, 1, 60, 0
1, 123179, Note_off_c, 1, 55, 0
1, 123179, Note_off_c, 1, 46, 0
1, 123179, Note_off_c, 1, 67, 0
1, 123180, Note_on_c, 1, 65, 127
1, 123194, Note_off_c, 1, 65, 0
1, 123210, Note_on_c, 1, 69, 127
1, 123224, Note_off_c, 1, 69, 0
1, 123225, Note_on_c, 1, 70, 127
1, 123239, Note_off_c, 1, 64, 0
1, 123239, Note_off_c, 1, 70, 0
1, 123240, Note_on_c, 1, 63, 127
1, 123240, Note_on_c, 1, 60, 127
1, 123240, Note_on_c, 1, 53, 127
1, 123240, Note_on_c, 1, 45, 127
1, 123240, Note_on_c, 1, 72, 127
1, 123240, Note_on_c, 1, 65, 127
1, 123255, Note_on_c, 1, 74, 127
1, 123269, Note_off_c, 1, 74, 0
1, 123285, Note_on_c, 1, 70, 127
1, 123299, Note_off_c, 1, 60, 0
1, 123299, Note_off_c, 1, 53, 0
1, 123299, Note_off_c, 1, 45, 0
1, 123299, Note_off_c, 1, 72, 0
1, 123299, Note_off_c, 1, 65, 0
1, 123299, Note_off_c, 1, 70, 0
1, 123300, Note_off_c, 1, 63, 0
1, 123300, Note_on_c, 1, 69, 127
1, 123314, Note_off_c, 1, 69, 0
1, 123315, Note_on_c, 1, 67, 127
1, 123329, Note_off_c, 1, 67, 0
1, 123345, Note_on_c, 1, 64, 127
1, 123359, Note_off_c, 1, 64, 0
1, 123360, Note_on_c, 1, 62, 127
1, 123360, Note_on_c, 1, 59, 127
1, 123360, Note_on_c, 1, 53, 127
1, 123360, Note_on_c, 1, 44, 127
1, 123360, Note_on_c, 1, 65, 127
1, 123390, Note_on_c, 1, 61, 127
1, 123404, Note_off_c, 1, 61, 0
1, 123419, Note_off_c, 1, 59, 0
1, 123419, Note_off_c, 1, 53, 0
1, 123419, Note_off_c, 1, 44, 0
1, 123419, Note_off_c, 1, 65, 0
1, 123420, Note_on_c, 1, 64, 127
1, 123434, Note_off_c, 1, 64, 0
1, 123450, Note_on_c, 1, 67, 127
1, 123464, Note_off_c, 1, 67, 0
1, 123465, Note_on_c, 1, 69, 127
1, 123479, Note_off_c, 1, 62, 0
1, 123479, Note_off_c, 1, 69, 0
1, 123480, Note_on_c, 1, 63, 127
1, 123480, Note_on_c, 1, 58, 127
1, 123480, Note_on_c, 1, 55, 127
1, 123480, Note_on_c, 1, 43, 127
1, 123480, Note_on_c, 1, 70, 127
1, 123480, Note_on_c, 1, 67, 127
1, 123495, Note_on_c, 1, 72, 127
1, 123509, Note_off_c, 1, 72, 0
1, 123525, Note_on_c, 1, 69, 127
1, 123539, Note_off_c, 1, 58, 0
1, 123539, Note_off_c, 1, 55, 0
1, 123539, Note_off_c, 1, 43, 0
1, 123539, Note_off_c, 1, 70, 0
1, 123539, Note_off_c, 1, 67, 0
1, 123539, Note_off_c, 1, 69, 0
1, 123540, Note_off_c, 1, 63, 0
1, 123555, Note_on_c, 1, 65, 127
1, 123569, Note_off_c, 1, 65, 0
1, 123585, Note_on_c, 1, 62, 127
1, 123599, Note_off_c, 1, 62, 0
1, 123600, Note_on_c, 1, 61, 127
1, 123600, Note_on_c, 1, 57, 127
1, 123600, Note_on_c, 1, 52, 127
1, 123600, Note_on_c, 1, 43, 127
1, 123600, Note_on_c, 1, 64, 127
1, 123600, Note_on_c, 1, 69, 127
1, 123615, Note_on_c, 1, 59, 127
1, 123629, Note_off_c, 1, 59, 0
1, 123659, Note_off_c, 1, 52, 0
1, 123675, Note_on_c, 1, 62, 127
1, 123689, Note_off_c, 1, 62, 0
1, 123705, Note_on_c, 1, 65, 127
1, 123719, Note_off_c, 1, 61, 0
1, 123719, Note_off_c, 1, 57, 0
1, 123719, Note_off_c, 1, 43, 0
1, 123719, Note_off_c, 1, 64, 0
1, 123719, Note_off_c, 1, 69, 0
1, 123719, Note_off_c, 1, 65, 0
1, 123720, Note_on_c, 1, 69, 127
1, 123720, Note_on_c, 1, 67, 127
1, 123734, Note_off_c, 1, 67, 0
1, 123749, Note_off_c, 1, 69, 0
1, 123750, Note_on_c, 1, 73, 127
1, 123750, Note_on_c, 1, 71, 127
1, 123764, Note_off_c, 1, 71, 0
1, 123779, Note_off_c, 1, 73, 0
1, 123780, Note_on_c, 1, 76, 127
1, 123780, Note_on_c, 1, 74, 127
1, 123794, Note_off_c, 1, 74, 0
1, 123809, Note_off_c, 1, 76, 0
1, 123810, Note_on_c, 1, 79, 127
1, 123810, Note_on_c, 1, 77, 127
1, 123824, Note_off_c, 1, 77, 0
1, 123839, Note_off_c, 1, 79, 0
1, 123840, Note_on_c, 1, 81, 127
1, 123840, Note_on_c, 1, 62, 127
1, 123840, Note_on_c, 1, 57, 127
1, 123840, Note_on_c, 1, 41, 127
1, 123840, Note_on_c, 1, 53, 127
1, 123840, Note_on_c, 1, 74, 127
1, 123869, Note_off_c, 1, 81, 0
1, 123899, Note_off_c, 1, 62, 0
1, 123899, Note_off_c, 1, 57, 0
1, 123899, Note_off_c, 1, 41, 0
1, 123899, Note_off_c, 1, 53, 0
1, 123899, Note_off_c, 1, 74, 0
1, 123900, Note_on_c, 1, 76, 127
1, 123900, Note_on_c, 1, 62, 127
1, 123900, Note_on_c, 1, 61, 127
1, 123900, Note_on_c, 1, 41, 127
1, 123900, Note_on_c, 1, 53, 127
1, 123929, Note_off_c, 1, 76, 0
1, 123929, Note_off_c, 1, 61, 0
1, 123930, Note_on_c, 1, 77, 127
1, 123959, Note_off_c, 1, 41, 0
1, 123959, Note_off_c, 1, 53, 0
1, 123959, Note_off_c, 1, 77, 0
1, 123960, Note_on_c, 1, 79, 127
1, 123960, Note_on_c, 1, 58, 127
1, 123960, Note_on_c, 1, 40, 127
1, 123960, Note_on_c, 1, 52, 127
1, 123989, Note_off_c, 1, 79, 0
1, 123990, Note_on_c, 1, 81, 127
1, 123990, Note_on_c, 1, 57, 127
1, 124019, Note_off_c, 1, 62, 0
1, 124019, Note_off_c, 1, 58, 0
1, 124019, Note_off_c, 1, 40, 0
1, 124019, Note_off_c, 1, 52, 0
1, 124019, Note_off_c, 1, 81, 0
1, 124019, Note_off_c, 1, 57, 0
1, 124020, Note_on_c, 1, 77, 127
1, 124020, Note_on_c, 1, 61, 127
1, 124020, Note_on_c, 1, 58, 127
1, 124020, Note_on_c, 1, 52, 127
1, 124020, Note_on_c, 1, 40, 127
1, 124049, Note_off_c, 1, 77, 0
1, 124049, Note_off_c, 1, 58, 0
1, 124050, Note_on_c, 1, 79, 127
1, 124050, Note_on_c, 1, 55, 127
1, 124079, Note_off_c, 1, 61, 0
1, 124079, Note_off_c, 1, 52, 0
1, 124079, Note_off_c, 1, 40, 0
1, 124079, Note_off_c, 1, 79, 0
1, 124079, Note_off_c, 1, 55, 0
1, 124080, Note_on_c, 1, 81, 127
1, 124080, Note_on_c, 1, 57, 127
1, 124080, Note_on_c, 1, 62, 127
1, 124080, Note_on_c, 1, 41, 127
1, 124080, Note_on_c, 1, 69, 127
1, 124080, Note_on_c, 1, 53, 127
1, 124109, Note_off_c, 1, 81, 0
1, 124109, Note_off_c, 1, 69, 0
1, 124110, Note_on_c, 1, 77, 127
1, 124110, Note_on_c, 1, 74, 127
1, 124139, Note_off_c, 1, 57, 0
1, 124139, Note_off_c, 1, 62, 0
1, 124139, Note_off_c, 1, 41, 0
1, 124139, Note_off_c, 1, 53, 0
1, 124139, Note_off_c, 1, 77, 0
1, 124139, Note_off_c, 1, 74, 0
1, 124140, Note_on_c, 1, 76, 127
1, 124140, Note_on_c, 1, 64, 127
1, 124140, Note_on_c, 1, 55, 127
1, 124140, Note_on_c, 1, 73, 127
1, 124140, Note_on_c, 1, 41, 127
1, 124140, Note_on_c, 1, 53, 127
1, 124169, Note_off_c, 1, 76, 0
1, 124169, Note_off_c, 1, 55, 0
1, 124169, Note_off_c, 1, 73, 0
1, 124170, Note_on_c, 1, 74, 127
1, 124199, Note_off_c, 1, 41, 0
1, 124199, Note_off_c, 1, 53, 0
1, 124199, Note_off_c, 1, 74, 0
1, 124200, Note_on_c, 1, 82, 127
1, 124200, Note_on_c, 1, 67, 127
1, 124200, Note_on_c, 1, 43, 127
1, 124200, Note_on_c, 1, 52, 127
1, 124229, Note_off_c, 1, 82, 0
1, 124229, Note_off_c, 1, 52, 0
1, 124230, Note_on_c, 1, 79, 127
1, 124230, Note_on_c, 1, 58, 127
1, 124259, Note_off_c, 1, 64, 0
1, 124259, Note_off_c, 1, 67, 0
1, 124259, Note_off_c, 1, 43, 0
1, 124259, Note_off_c, 1, 79, 0
1, 124259, Note_off_c, 1, 58, 0
1, 124260, Note_on_c, 1, 77, 127
1, 124260, Note_on_c, 1, 65, 127
1, 124260, Note_on_c, 1, 57, 127
1, 124260, Note_on_c, 1, 73, 127
1, 124260, Note_on_c, 1, 55, 127
1, 124260, Note_on_c, 1, 43, 127
1, 124289, Note_off_c, 1, 77, 0
1, 124289, Note_off_c, 1, 57, 0
1, 124289, Note_off_c, 1, 73, 0
1, 124290, Note_on_c, 1, 76, 127
1, 124290, Note_on_c, 1, 74, 127
1, 124319, Note_off_c, 1, 55, 0
1, 124319, Note_off_c, 1, 43, 0
1, 124319, Note_off_c, 1, 76, 0
1, 124319, Note_off_c, 1, 74, 0
1, 124320, Note_on_c, 1, 85, 127
1, 124320, Note_on_c, 1, 45, 127
1, 124320, Note_on_c, 1, 53, 127
1, 124349, Note_off_c, 1, 85, 0
1, 124349, Note_off_c, 1, 53, 0
1, 124350, Note_on_c, 1, 81, 127
1, 124379, Note_off_c, 1, 65, 0
1, 124379, Note_off_c, 1, 45, 0
1, 124379, Note_off_c, 1, 81, 0
1, 124380, Note_on_c, 1, 86, 127
1, 124380, Note_on_c, 1, 70, 127
1, 124380, Note_on_c, 1, 64, 127
1, 124380, Note_on_c, 1, 46, 127
1, 124380, Note_on_c, 1, 55, 127
1, 124380, Note_on_c, 1, 79, 127
1, 124380, Note_on_c, 1, 58, 127
1, 124409, Note_off_c, 1, 86, 0
1, 124409, Note_off_c, 1, 64, 0
1, 124409, Note_off_c, 1, 55, 0
1, 124409, Note_off_c, 1, 79, 0
1, 124410, Note_on_c, 1, 74, 127
1, 124410, Note_on_c, 1, 62, 127
1, 124410, Note_on_c, 1, 53, 127
1, 124410, Note_on_c, 1, 81, 127
1, 124439, Note_off_c, 1, 46, 0
1, 124439, Note_off_c, 1, 58, 0
1, 124439, Note_off_c, 1, 74, 0
1, 124439, Note_off_c, 1, 62, 0
1, 124439, Note_off_c, 1, 53, 0
1, 124439, Note_off_c, 1, 81, 0
1, 124440, Note_on_c, 1, 65, 127
1, 124440, Note_on_c, 1, 43, 127
1, 124440, Note_on_c, 1, 82, 127
1, 124469, Note_off_c, 1, 65, 0
1, 124469, Note_off_c, 1, 82, 0
1, 124499, Note_off_c, 1, 70, 0
1, 124499, Note_off_c, 1, 43, 0
1, 124500, Note_on_c, 1, 77, 127
1, 124500, Note_on_c, 1, 69, 127
1, 124500, Note_on_c, 1, 62, 127
1, 124500, Note_on_c, 1, 45, 127
1, 124500, Note_on_c, 1, 57, 127
1, 124529, Note_off_c, 1, 77, 0
1, 124529, Note_off_c, 1, 62, 0
1, 124530, Note_on_c, 1, 76, 127
1, 124530, Note_on_c, 1, 61, 127
1, 124530, Note_on_c, 1, 67, 127
1, 124559, Note_off_c, 1, 69, 0
1, 124559, Note_off_c, 1, 45, 0
1, 124559, Note_off_c, 1, 57, 0
1, 124559, Note_off_c, 1, 76, 0
1, 124559, Note_off_c, 1, 61, 0
1, 124559, Note_off_c, 1, 67, 0
1, 124560, Note_on_c, 1, 77, 127
1, 124560, Note_on_c, 1, 69, 127
1, 124560, Note_on_c, 1, 62, 127
1, 124560, Note_on_c, 1, 38, 127
1, 124560, Note_on_c, 1, 65, 127
1, 124560, Note_on_c, 1, 50, 127
1, 124619, Note_off_c, 1, 77, 0
1, 124619, Note_off_c, 1, 69, 0
1, 124619, Note_off_c, 1, 62, 0
1, 124619, Note_off_c, 1, 38, 0
1, 124619, Note_off_c, 1, 65, 0
1, 124619, Note_off_c, 1, 50, 0
1, 124620, Note_on_c, 1, 62, 127
1, 124620, Note_on_c, 1, 74, 127
1, 124620, Note_on_c, 1, 53, 127
1, 124649, Note_off_c, 1, 74, 0
1, 124649, Note_off_c, 1, 53, 0
1, 124650, Note_on_c, 1, 77, 127
1, 124650, Note_on_c, 1, 57, 127
1, 124679, Note_off_c, 1, 77, 0
1, 124679, Note_off_c, 1, 57, 0
1, 124680, Note_on_c, 1, 81, 127
1, 124680, Note_on_c, 1, 69, 127
1, 124680, Note_on_c, 1, 65, 127
1, 124739, Note_off_c, 1, 62, 0
1, 124739, Note_off_c, 1, 81, 0
1, 124739, Note_off_c, 1, 69, 0
1, 124739, Note_off_c, 1, 65, 0
1, 124740, Note_on_c, 1, 60, 127
1, 124740, Note_on_c, 1, 77, 127
1, 124740, Note_on_c, 1, 62, 127
1, 124769, Note_off_c, 1, 77, 0
1, 124769, Note_off_c, 1, 62, 0
1, 124770, Note_on_c, 1, 81, 127
1, 124770, Note_on_c, 1, 65, 127
1, 124799, Note_off_c, 1, 60, 0
1, 124799, Note_off_c, 1, 81, 0
1, 124799, Note_off_c, 1, 65, 0
1, 124800, Note_on_c, 1, 74, 127
1, 124800, Note_on_c, 1, 70, 127
1, 124800, Note_on_c, 1, 65, 127
1, 124800, Note_on_c, 1, 58, 127
1, 124800, Note_on_c, 1, 86, 127
1, 124829, Note_off_c, 1, 86, 0
1, 124830, Note_on_c, 1, 82, 127
1, 124859, Note_off_c, 1, 74, 0
1, 124859, Note_off_c, 1, 70, 0
1, 124859, Note_off_c, 1, 65, 0
1, 124859, Note_off_c, 1, 58, 0
1, 124859, Note_off_c, 1, 82, 0
1, 124860, Note_on_c, 1, 81, 127
1, 124860, Note_on_c, 1, 72, 127
1, 124860, Note_on_c, 1, 74, 127
1, 124860, Note_on_c, 1, 65, 127
1, 124860, Note_on_c, 1, 58, 127
1, 124889, Note_off_c, 1, 81, 0
1, 124889, Note_off_c, 1, 72, 0
1, 124890, Note_on_c, 1, 79, 127
1, 124890, Note_on_c, 1, 70, 127
1, 124919, Note_off_c, 1, 74, 0
1, 124919, Note_off_c, 1, 65, 0
1, 124919, Note_off_c, 1, 58, 0
1, 124919, Note_off_c, 1, 79, 0
1, 124919, Note_off_c, 1, 70, 0
1, 124920, Note_on_c, 1, 57, 127
1, 124920, Note_on_c, 1, 84, 127
1, 124920, Note_on_c, 1, 69, 127
1, 124920, Note_on_c, 1, 78, 127
1, 124949, Note_off_c, 1, 84, 0
1, 124950, Note_on_c, 1, 81, 127
1, 124950, Note_on_c, 1, 72, 127
1, 124979, Note_off_c, 1, 57, 0
1, 124979, Note_off_c, 1, 69, 0
1, 124979, Note_off_c, 1, 78, 0
1, 124979, Note_off_c, 1, 81, 0
1, 124979, Note_off_c, 1, 72, 0
1, 124980, Note_on_c, 1, 79, 127
1, 124980, Note_on_c, 1, 70, 127
1, 124980, Note_on_c, 1, 81, 127
1, 124980, Note_on_c, 1, 72, 127
1, 124980, Note_on_c, 1, 45, 127
1, 125009, Note_off_c, 1, 79, 0
1, 125009, Note_off_c, 1, 70, 0
1, 125010, Note_on_c, 1, 78, 127
1, 125010, Note_on_c, 1, 69, 127
1, 125039, Note_off_c, 1, 81, 0
1, 125039, Note_off_c, 1, 72, 0
1, 125039, Note_off_c, 1, 45, 0
1, 125039, Note_off_c, 1, 78, 0
1, 125039, Note_off_c, 1, 69, 0
1, 125040, Note_on_c, 1, 82, 127
1, 125040, Note_on_c, 1, 74, 127
1, 125040, Note_on_c, 1, 67, 127
1, 125040, Note_on_c, 1, 43, 127
1, 125070, Note_on_c, 1, 79, 127
1, 125070, Note_on_c, 1, 70, 127
1, 125099, Note_off_c, 1, 82, 0
1, 125099, Note_off_c, 1, 74, 0
1, 125099, Note_off_c, 1, 67, 0
1, 125099, Note_off_c, 1, 43, 0
1, 125099, Note_off_c, 1, 79, 0
1, 125099, Note_off_c, 1, 70, 0
1, 125100, Note_on_c, 1, 55, 127
1, 125100, Note_on_c, 1, 77, 127
1, 125100, Note_on_c, 1, 69, 127
1, 125129, Note_off_c, 1, 77, 0
1, 125129, Note_off_c, 1, 69, 0
1, 125130, Note_on_c, 1, 76, 127
1, 125130, Note_on_c, 1, 67, 127
1, 125159, Note_off_c, 1, 76, 0
1, 125159, Note_off_c, 1, 67, 0
1, 125160, Note_on_c, 1, 86, 127
1, 125160, Note_on_c, 1, 74, 127
1, 125160, Note_on_c, 1, 81, 127
1, 125160, Note_on_c, 1, 62, 127
1, 125189, Note_off_c, 1, 81, 0
1, 125189, Note_off_c, 1, 62, 0
1, 125219, Note_off_c, 1, 55, 0
1, 125219, Note_off_c, 1, 86, 0
1, 125219, Note_off_c, 1, 74, 0
1, 125220, Note_on_c, 1, 53, 127
1, 125220, Note_on_c, 1, 76, 127
1, 125220, Note_on_c, 1, 67, 127
1, 125249, Note_off_c, 1, 76, 0
1, 125249, Note_off_c, 1, 67, 0
1, 125250, Note_on_c, 1, 74, 127
1, 125250, Note_on_c, 1, 65, 127
1, 125279, Note_off_c, 1, 53, 0
1, 125279, Note_off_c, 1, 74, 0
1, 125279, Note_off_c, 1, 65, 0
1, 125280, Note_on_c, 1, 79, 127
1, 125280, Note_on_c, 1, 76, 127
1, 125280, Note_on_c, 1, 72, 127
1, 125280, Note_on_c, 1, 52, 127
1, 125280, Note_on_c, 1, 64, 127
1, 125309, Note_off_c, 1, 64, 0
1, 125310, Note_on_c, 1, 67, 127
1, 125339, Note_off_c, 1, 79, 0
1, 125339, Note_off_c, 1, 76, 0
1, 125339, Note_off_c, 1, 72, 0
1, 125339, Note_off_c, 1, 52, 0
1, 125339, Note_off_c, 1, 67, 0
1, 125340, Note_on_c, 1, 74, 127
1, 125340, Note_on_c, 1, 65, 127
1, 125340, Note_on_c, 1, 67, 127
1, 125340, Note_on_c, 1, 60, 127
1, 125340, Note_on_c, 1, 52, 127
1, 125369, Note_off_c, 1, 74, 0
1, 125369, Note_off_c, 1, 65, 0
1, 125370, Note_on_c, 1, 72, 127
1, 125370, Note_on_c, 1, 64, 127
1, 125399, Note_off_c, 1, 67, 0
1, 125399, Note_off_c, 1, 60, 0
1, 125399, Note_off_c, 1, 52, 0
1, 125399, Note_off_c, 1, 72, 0
1, 125399, Note_off_c, 1, 64, 0
1, 125400, Note_on_c, 1, 50, 127
1, 125400, Note_on_c, 1, 77, 127
1, 125400, Note_on_c, 1, 62, 127
1, 125400, Note_on_c, 1, 71, 127
1, 125429, Note_off_c, 1, 77, 0
1, 125430, Note_on_c, 1, 74, 127
1, 125430, Note_on_c, 1, 65, 127
1, 125459, Note_off_c, 1, 50, 0
1, 125459, Note_off_c, 1, 62, 0
1, 125459, Note_off_c, 1, 71, 0
1, 125459, Note_off_c, 1, 74, 0
1, 125459, Note_off_c, 1, 65, 0
1, 125460, Note_on_c, 1, 72, 127
1, 125460, Note_on_c, 1, 64, 127
1, 125460, Note_on_c, 1, 74, 127
1, 125460, Note_on_c, 1, 65, 127
1, 125460, Note_on_c, 1, 38, 127
1, 125489, Note_off_c, 1, 72, 0
1, 125489, Note_off_c, 1, 64, 0
1, 125490, Note_on_c, 1, 71, 127
1, 125490, Note_on_c, 1, 62, 127
1, 125519, Note_off_c, 1, 74, 0
1, 125519, Note_off_c, 1, 65, 0
1, 125519, Note_off_c, 1, 38, 0
1, 125519, Note_off_c, 1, 71, 0
1, 125519, Note_off_c, 1, 62, 0
1, 125520, Note_on_c, 1, 76, 127
1, 125520, Note_on_c, 1, 67, 127
1, 125520, Note_on_c, 1, 60, 127
1, 125520, Note_on_c, 1, 48, 127
1, 125520, Note_on_c, 1, 36, 127
1, 125550, Note_on_c, 1, 72, 127
1, 125550, Note_on_c, 1, 64, 127
1, 125579, Note_off_c, 1, 76, 0
1, 125579, Note_off_c, 1, 67, 0
1, 125579, Note_off_c, 1, 60, 0
1, 125579, Note_off_c, 1, 48, 0
1, 125579, Note_off_c, 1, 36, 0
1, 125579, Note_off_c, 1, 72, 0
1, 125579, Note_off_c, 1, 64, 0
1, 125580, Note_on_c, 1, 60, 127
1, 125580, Note_on_c, 1, 71, 127
1, 125580, Note_on_c, 1, 62, 127
1, 125609, Note_off_c, 1, 71, 0
1, 125609, Note_off_c, 1, 62, 0
1, 125610, Note_on_c, 1, 69, 127
1, 125639, Note_off_c, 1, 69, 0
1, 125640, Note_on_c, 1, 79, 127
1, 125640, Note_on_c, 1, 67, 127
1, 125640, Note_on_c, 1, 74, 127
1, 125640, Note_on_c, 1, 55, 127
1, 125669, Note_off_c, 1, 74, 0
1, 125669, Note_off_c, 1, 55, 0
1, 125670, Note_on_c, 1, 70, 127
1, 125699, Note_off_c, 1, 60, 0
1, 125699, Note_off_c, 1, 79, 0
1, 125699, Note_off_c, 1, 67, 0
1, 125699, Note_off_c, 1, 70, 0
1, 125700, Note_on_c, 1, 58, 127
1, 125700, Note_on_c, 1, 69, 127
1, 125700, Note_on_c, 1, 60, 127
1, 125729, Note_off_c, 1, 69, 0
1, 125729, Note_off_c, 1, 60, 0
1, 125730, Note_on_c, 1, 67, 127
1, 125759, Note_off_c, 1, 58, 0
1, 125759, Note_off_c, 1, 67, 0
1, 125760, Note_on_c, 1, 72, 127
1, 125760, Note_on_c, 1, 69, 127
1, 125760, Note_on_c, 1, 64, 127
1, 125760, Note_on_c, 1, 57, 127
1, 125790, Note_on_c, 1, 60, 127
1, 125819, Note_off_c, 1, 72, 0
1, 125819, Note_off_c, 1, 69, 0
1, 125819, Note_off_c, 1, 64, 0
1, 125819, Note_off_c, 1, 57, 0
1, 125819, Note_off_c, 1, 60, 0
1, 125820, Note_on_c, 1, 67, 127
1, 125820, Note_on_c, 1, 58, 127
1, 125820, Note_on_c, 1, 72, 127
1, 125820, Note_on_c, 1, 64, 127
1, 125820, Note_on_c, 1, 57, 127
1, 125849, Note_off_c, 1, 67, 0
1, 125849, Note_off_c, 1, 58, 0
1, 125850, Note_on_c, 1, 65, 127
1, 125879, Note_off_c, 1, 72, 0
1, 125879, Note_off_c, 1, 64, 0
1, 125879, Note_off_c, 1, 57, 0
1, 125879, Note_off_c, 1, 65, 0
1, 125880, Note_on_c, 1, 55, 127
1, 125880, Note_on_c, 1, 70, 127
1, 125880, Note_on_c, 1, 67, 127
1, 125880, Note_on_c, 1, 76, 127
1, 125909, Note_off_c, 1, 70, 0
1, 125910, Note_on_c, 1, 58, 127
1, 125939, Note_off_c, 1, 55, 0
1, 125939, Note_off_c, 1, 67, 0
1, 125939, Note_off_c, 1, 76, 0
1, 125939, Note_off_c, 1, 58, 0
1, 125940, Note_on_c, 1, 65, 127
1, 125940, Note_on_c, 1, 57, 127
1, 125940, Note_on_c, 1, 79, 127
1, 125940, Note_on_c, 1, 70, 127
1, 125940, Note_on_c, 1, 43, 127
1, 125969, Note_off_c, 1, 65, 0
1, 125969, Note_off_c, 1, 57, 0
1, 125970, Note_on_c, 1, 64, 127
1, 125970, Note_on_c, 1, 55, 127
1, 125999, Note_off_c, 1, 79, 0
1, 125999, Note_off_c, 1, 70, 0
1, 125999, Note_off_c, 1, 43, 0
1, 125999, Note_off_c, 1, 64, 0
1, 125999, Note_off_c, 1, 55, 0
1, 126000, Note_on_c, 1, 81, 127
1, 126000, Note_on_c, 1, 72, 127
1, 126000, Note_on_c, 1, 65, 127
1, 126000, Note_on_c, 1, 41, 127
1, 126000, Note_on_c, 1, 69, 127
1, 126000, Note_on_c, 1, 53, 127
1, 126029, Note_off_c, 1, 69, 0
1, 126029, Note_off_c, 1, 53, 0
1, 126030, Note_on_c, 1, 57, 127
1, 126059, Note_off_c, 1, 81, 0
1, 126059, Note_off_c, 1, 72, 0
1, 126059, Note_off_c, 1, 65, 0
1, 126059, Note_off_c, 1, 41, 0
1, 126059, Note_off_c, 1, 57, 0
1, 126060, Note_on_c, 1, 53, 127
1, 126060, Note_on_c, 1, 64, 127
1, 126060, Note_on_c, 1, 55, 127
1, 126089, Note_off_c, 1, 64, 0
1, 126089, Note_off_c, 1, 55, 0
1, 126090, Note_on_c, 1, 62, 127
1, 126119, Note_off_c, 1, 62, 0
1, 126120, Note_on_c, 1, 84, 127
1, 126120, Note_on_c, 1, 72, 127
1, 126120, Note_on_c, 1, 67, 127
1, 126120, Note_on_c, 1, 48, 127
1, 126149, Note_off_c, 1, 48, 0
1, 126150, Note_on_c, 1, 63, 127
1, 126179, Note_off_c, 1, 53, 0
1, 126179, Note_off_c, 1, 84, 0
1, 126179, Note_off_c, 1, 72, 0
1, 126179, Note_off_c, 1, 67, 0
1, 126179, Note_off_c, 1, 63, 0
1, 126180, Note_on_c, 1, 51, 127
1, 126180, Note_on_c, 1, 62, 127
1, 126180, Note_on_c, 1, 53, 127
1, 126209, Note_off_c, 1, 62, 0
1, 126209, Note_off_c, 1, 53, 0
1, 126210, Note_on_c, 1, 60, 127
1, 126239, Note_off_c, 1, 51, 0
1, 126239, Note_off_c, 1, 60, 0
1, 126240, Note_on_c, 1, 77, 127
1, 126240, Note_on_c, 1, 74, 127
1, 126240, Note_on_c, 1, 70, 127
1, 126240, Note_on_c, 1, 50, 127
1, 126240, Note_on_c, 1, 65, 127
1, 126269, Note_off_c, 1, 65, 0
1, 126270, Note_on_c, 1, 62, 127
1, 126270, Note_on_c, 1, 53, 127
1, 126299, Note_off_c, 1, 77, 0
1, 126299, Note_off_c, 1, 74, 0
1, 126299, Note_off_c, 1, 70, 0
1, 126299, Note_off_c, 1, 50, 0
1, 126299, Note_off_c, 1, 62, 0
1, 126299, Note_off_c, 1, 53, 0
1, 126300, Note_on_c, 1, 60, 127
1, 126300, Note_on_c, 1, 51, 127
1, 126300, Note_on_c, 1, 65, 127
1, 126300, Note_on_c, 1, 58, 127
1, 126300, Note_on_c, 1, 38, 127
1, 126329, Note_off_c, 1, 60, 0
1, 126329, Note_off_c, 1, 51, 0
1, 126330, Note_on_c, 1, 50, 127
1, 126359, Note_off_c, 1, 65, 0
1, 126359, Note_off_c, 1, 58, 0
1, 126359, Note_off_c, 1, 38, 0
1, 126359, Note_off_c, 1, 50, 0
1, 126360, Note_on_c, 1, 48, 127
1, 126360, Note_on_c, 1, 63, 127
1, 126360, Note_on_c, 1, 69, 127
1, 126360, Note_on_c, 1, 60, 127
1, 126360, Note_on_c, 1, 36, 127
1, 126389, Note_off_c, 1, 63, 0
1, 126390, Note_on_c, 1, 51, 127
1, 126419, Note_off_c, 1, 48, 0
1, 126419, Note_off_c, 1, 69, 0
1, 126419, Note_off_c, 1, 60, 0
1, 126419, Note_off_c, 1, 36, 0
1, 126419, Note_off_c, 1, 51, 0
1, 126420, Note_on_c, 1, 58, 127
1, 126420, Note_on_c, 1, 50, 127
1, 126420, Note_on_c, 1, 72, 127
1, 126420, Note_on_c, 1, 63, 127
1, 126420, Note_on_c, 1, 48, 127
1, 126449, Note_off_c, 1, 58, 0
1, 126449, Note_off_c, 1, 50, 0
1, 126450, Note_on_c, 1, 57, 127
1, 126479, Note_off_c, 1, 72, 0
1, 126479, Note_off_c, 1, 63, 0
1, 126479, Note_off_c, 1, 48, 0
1, 126479, Note_off_c, 1, 57, 0
1, 126480, Note_on_c, 1, 74, 127
1, 126480, Note_on_c, 1, 65, 127
1, 126480, Note_on_c, 1, 58, 127
1, 126480, Note_on_c, 1, 46, 127
1, 126480, Note_on_c, 1, 62, 127
1, 126509, Note_off_c, 1, 62, 0
1, 126510, Note_on_c, 1, 50, 127
1, 126539, Note_off_c, 1, 74, 0
1, 126539, Note_off_c, 1, 65, 0
1, 126539, Note_off_c, 1, 58, 0
1, 126539, Note_off_c, 1, 46, 0
1, 126539, Note_off_c, 1, 50, 0
1, 126540, Note_on_c, 1, 58, 127
1, 126540, Note_on_c, 1, 57, 127
1, 126540, Note_on_c, 1, 48, 127
1, 126569, Note_off_c, 1, 57, 0
1, 126569, Note_off_c, 1, 48, 0
1, 126570, Note_on_c, 1, 55, 127
1, 126570, Note_on_c, 1, 46, 127
1, 126599, Note_off_c, 1, 55, 0
1, 126599, Note_off_c, 1, 46, 0
1, 126600, Note_on_c, 1, 77, 127
1, 126600, Note_on_c, 1, 65, 127
1, 126600, Note_on_c, 1, 60, 127
1, 126600, Note_on_c, 1, 41, 127
1, 126629, Note_off_c, 1, 41, 0
1, 126659, Note_off_c, 1, 58, 0
1, 126659, Note_off_c, 1, 77, 0
1, 126659, Note_off_c, 1, 65, 0
1, 126659, Note_off_c, 1, 60, 0
1, 126660, Note_on_c, 1, 57, 127
1, 126660, Note_on_c, 1, 55, 127
1, 126660, Note_on_c, 1, 46, 127
1, 126689, Note_off_c, 1, 55, 0
1, 126689, Note_off_c, 1, 46, 0
1, 126690, Note_on_c, 1, 53, 127
1, 126690, Note_on_c, 1, 45, 127
1, 126719, Note_off_c, 1, 57, 0
1, 126719, Note_off_c, 1, 53, 0
1, 126719, Note_off_c, 1, 45, 0
1, 126720, Note_on_c, 1, 70, 127
1, 126720, Note_on_c, 1, 67, 127
1, 126720, Note_on_c, 1, 62, 127
1, 126720, Note_on_c, 1, 55, 127
1, 126720, Note_on_c, 1, 58, 127
1, 126720, Note_on_c, 1, 43, 127
1, 126749, Note_off_c, 1, 58, 0
1, 126749, Note_off_c, 1, 43, 0
1, 126750, Note_on_c, 1, 46, 127
1, 126779, Note_off_c, 1, 70, 0
1, 126779, Note_off_c, 1, 67, 0
1, 126779, Note_off_c, 1, 62, 0
1, 126779, Note_off_c, 1, 55, 0
1, 126779, Note_off_c, 1, 46, 0
1, 126780, Note_on_c, 1, 53, 127
1, 126780, Note_on_c, 1, 45, 127
1, 126780, Note_on_c, 1, 70, 127
1, 126780, Note_on_c, 1, 62, 127
1, 126780, Note_on_c, 1, 55, 127
1, 126809, Note_off_c, 1, 53, 0
1, 126809, Note_off_c, 1, 45, 0
1, 126810, Note_on_c, 1, 52, 127
1, 126810, Note_on_c, 1, 43, 127
1, 126839, Note_off_c, 1, 70, 0
1, 126839, Note_off_c, 1, 62, 0
1, 126839, Note_off_c, 1, 55, 0
1, 126839, Note_off_c, 1, 52, 0
1, 126839, Note_off_c, 1, 43, 0
1, 126840, Note_on_c, 1, 53, 127
1, 126840, Note_on_c, 1, 57, 127
1, 126840, Note_on_c, 1, 41, 127
1, 126840, Note_on_c, 1, 74, 127
1, 126840, Note_on_c, 1, 65, 127
1, 126869, Note_off_c, 1, 57, 0
1, 126869, Note_off_c, 1, 41, 0
1, 126870, Note_on_c, 1, 45, 127
1, 126899, Note_off_c, 1, 53, 0
1, 126899, Note_off_c, 1, 74, 0
1, 126899, Note_off_c, 1, 65, 0
1, 126899, Note_off_c, 1, 45, 0
1, 126900, Note_on_c, 1, 52, 127
1, 126900, Note_on_c, 1, 43, 127
1, 126900, Note_on_c, 1, 77, 127
1, 126900, Note_on_c, 1, 69, 127
1, 126900, Note_on_c, 1, 41, 127
1, 126929, Note_off_c, 1, 52, 0
1, 126929, Note_off_c, 1, 43, 0
1, 126930, Note_on_c, 1, 50, 127
1, 126959, Note_off_c, 1, 77, 0
1, 126959, Note_off_c, 1, 69, 0
1, 126959, Note_off_c, 1, 41, 0
1, 126959, Note_off_c, 1, 50, 0
1, 126960, Note_on_c, 1, 79, 127
1, 126960, Note_on_c, 1, 70, 127
1, 126960, Note_on_c, 1, 61, 127
1, 126960, Note_on_c, 1, 41, 127
1, 126960, Note_on_c, 1, 55, 127
1, 126960, Note_on_c, 1, 40, 127
1, 126989, Note_off_c, 1, 55, 0
1, 126990, Note_on_c, 1, 52, 127
1, 126990, Note_on_c, 1, 43, 127
1, 127019, Note_off_c, 1, 79, 0
1, 127019, Note_off_c, 1, 70, 0
1, 127019, Note_off_c, 1, 61, 0
1, 127019, Note_off_c, 1, 41, 0
1, 127019, Note_off_c, 1, 40, 0
1, 127019, Note_off_c, 1, 52, 0
1, 127019, Note_off_c, 1, 43, 0
1, 127020, Note_on_c, 1, 52, 127
1, 127020, Note_on_c, 1, 50, 127
1, 127020, Note_on_c, 1, 41, 127
1, 127049, Note_off_c, 1, 50, 0
1, 127049, Note_off_c, 1, 41, 0
1, 127050, Note_on_c, 1, 49, 127
1, 127050, Note_on_c, 1, 40, 127
1, 127079, Note_off_c, 1, 49, 0
1, 127079, Note_off_c, 1, 40, 0
1, 127080, Note_on_c, 1, 82, 127
1, 127080, Note_on_c, 1, 65, 127
1, 127080, Note_on_c, 1, 62, 127
1, 127080, Note_on_c, 1, 53, 127
1, 127080, Note_on_c, 1, 38, 127
1, 127109, Note_off_c, 1, 53, 0
1, 127109, Note_off_c, 1, 38, 0
1, 127139, Note_off_c, 1, 52, 0
1, 127139, Note_off_c, 1, 82, 0
1, 127139, Note_off_c, 1, 65, 0
1, 127139, Note_off_c, 1, 62, 0
1, 127140, Note_on_c, 1, 50, 127
1, 127140, Note_on_c, 1, 49, 127
1, 127140, Note_on_c, 1, 40, 127
1, 127169, Note_off_c, 1, 49, 0
1, 127169, Note_off_c, 1, 40, 0
1, 127170, Note_on_c, 1, 47, 127
1, 127170, Note_on_c, 1, 38, 127
1, 127199, Note_off_c, 1, 50, 0
1, 127199, Note_off_c, 1, 47, 0
1, 127199, Note_off_c, 1, 38, 0
1, 127200, Note_on_c, 1, 76, 127
1, 127200, Note_on_c, 1, 69, 127
1, 127200, Note_on_c, 1, 64, 127
1, 127200, Note_on_c, 1, 49, 127
1, 127200, Note_on_c, 1, 52, 127
1, 127200, Note_on_c, 1, 37, 127
1, 127229, Note_off_c, 1, 52, 0
1, 127229, Note_off_c, 1, 37, 0
1, 127230, Note_on_c, 1, 40, 127
1, 127259, Note_off_c, 1, 76, 0
1, 127259, Note_off_c, 1, 69, 0
1, 127259, Note_off_c, 1, 64, 0
1, 127259, Note_off_c, 1, 49, 0
1, 127259, Note_off_c, 1, 40, 0
1, 127260, Note_on_c, 1, 47, 127
1, 127260, Note_on_c, 1, 38, 127
1, 127260, Note_on_c, 1, 64, 127
1, 127260, Note_on_c, 1, 69, 127
1, 127260, Note_on_c, 1, 49, 127
1, 127289, Note_off_c, 1, 47, 0
1, 127289, Note_off_c, 1, 38, 0
1, 127290, Note_on_c, 1, 45, 127
1, 127290, Note_on_c, 1, 37, 127
1, 127319, Note_off_c, 1, 64, 0
1, 127319, Note_off_c, 1, 69, 0
1, 127319, Note_off_c, 1, 49, 0
1, 127319, Note_off_c, 1, 45, 0
1, 127319, Note_off_c, 1, 37, 0
1, 127320, Note_on_c, 1, 47, 127
1, 127320, Note_on_c, 1, 50, 127
1, 127320, Note_on_c, 1, 35, 127
1, 127320, Note_on_c, 1, 62, 127
1, 127320, Note_on_c, 1, 68, 127
1, 127349, Note_off_c, 1, 50, 0
1, 127349, Note_off_c, 1, 35, 0
1, 127350, Note_on_c, 1, 38, 127
1, 127379, Note_off_c, 1, 47, 0
1, 127379, Note_off_c, 1, 62, 0
1, 127379, Note_off_c, 1, 68, 0
1, 127379, Note_off_c, 1, 38, 0
1, 127380, Note_on_c, 1, 45, 127
1, 127380, Note_on_c, 1, 37, 127
1, 127380, Note_on_c, 1, 62, 127
1, 127380, Note_on_c, 1, 71, 127
1, 127380, Note_on_c, 1, 59, 127
1, 127409, Note_off_c, 1, 45, 0
1, 127409, Note_off_c, 1, 37, 0
1, 127410, Note_on_c, 1, 44, 127
1, 127410, Note_on_c, 1, 35, 127
1, 127439, Note_off_c, 1, 62, 0
1, 127439, Note_off_c, 1, 71, 0
1, 127439, Note_off_c, 1, 59, 0
1, 127439, Note_off_c, 1, 44, 0
1, 127439, Note_off_c, 1, 35, 0
1, 127440, Note_on_c, 1, 73, 127
1, 127440, Note_on_c, 1, 69, 127
1, 127440, Note_on_c, 1, 64, 127
1, 127440, Note_on_c, 1, 45, 127
1, 127440, Note_on_c, 1, 52, 127
1, 127440, Note_on_c, 1, 33, 127
1, 127440, Note_on_c, 1, 57, 127
1, 127454, Note_off_c, 1, 52, 0
1, 127455, Note_on_c, 1, 49, 127
1, 127469, Note_off_c, 1, 49, 0
1, 127485, Note_on_c, 1, 47, 127
1, 127499, Note_off_c, 1, 73, 0
1, 127499, Note_off_c, 1, 69, 0
1, 127499, Note_off_c, 1, 64, 0
1, 127499, Note_off_c, 1, 45, 0
1, 127499, Note_off_c, 1, 33, 0
1, 127499, Note_off_c, 1, 57, 0
1, 127499, Note_off_c, 1, 47, 0
1, 127500, Note_on_c, 1, 57, 127
1, 127500, Note_on_c, 1, 49, 127
1, 127514, Note_off_c, 1, 49, 0
1, 127515, Note_on_c, 1, 50, 127
1, 127529, Note_off_c, 1, 50, 0
1, 127530, Note_on_c, 1, 52, 127
1, 127544, Note_off_c, 1, 52, 0
1, 127545, Note_on_c, 1, 53, 127
1, 127559, Note_off_c, 1, 53, 0
1, 127560, Note_on_c, 1, 76, 127
1, 127560, Note_on_c, 1, 64, 127
1, 127560, Note_on_c, 1, 61, 127
1, 127560, Note_on_c, 1, 55, 127
1, 127574, Note_off_c, 1, 55, 0
1, 127590, Note_on_c, 1, 59, 127
1, 127604, Note_off_c, 1, 59, 0
1, 127619, Note_off_c, 1, 57, 0
1, 127619, Note_off_c, 1, 76, 0
1, 127619, Note_off_c, 1, 64, 0
1, 127619, Note_off_c, 1, 61, 0
1, 127620, Note_on_c, 1, 55, 127
1, 127620, Note_on_c, 1, 62, 127
1, 127634, Note_off_c, 1, 62, 0
1, 127635, Note_on_c, 1, 64, 127
1, 127649, Note_off_c, 1, 64, 0
1, 127650, Note_on_c, 1, 65, 127
1, 127664, Note_off_c, 1, 65, 0
1, 127665, Note_on_c, 1, 67, 127
1, 127679, Note_off_c, 1, 55, 0
1, 127679, Note_off_c, 1, 67, 0
1, 127680, Note_on_c, 1, 69, 127
1, 127680, Note_on_c, 1, 65, 127
1, 127680, Note_on_c, 1, 62, 127
1, 127680, Note_on_c, 1, 53, 127
1, 127725, Note_on_c, 1, 64, 127
1, 127739, Note_off_c, 1, 69, 0
1, 127739, Note_off_c, 1, 65, 0
1, 127739, Note_off_c, 1, 62, 0
1, 127739, Note_off_c, 1, 53, 0
1, 127739, Note_off_c, 1, 64, 0
1, 127740, Note_on_c, 1, 65, 127
1, 127740, Note_on_c, 1, 74, 127
1, 127740, Note_on_c, 1, 69, 127
1, 127740, Note_on_c, 1, 41, 127
1, 127754, Note_off_c, 1, 65, 0
1, 127755, Note_on_c, 1, 67, 127
1, 127769, Note_off_c, 1, 67, 0
1, 127785, Note_on_c, 1, 71, 127
1, 127799, Note_off_c, 1, 74, 0
1, 127799, Note_off_c, 1, 69, 0
1, 127799, Note_off_c, 1, 41, 0
1, 127799, Note_off_c, 1, 71, 0
1, 127800, Note_on_c, 1, 52, 127
1, 127800, Note_on_c, 1, 73, 127
1, 127800, Note_on_c, 1, 67, 127
1, 127800, Note_on_c, 1, 40, 127
1, 127815, Note_on_c, 1, 74, 127
1, 127829, Note_off_c, 1, 74, 0
1, 127830, Note_on_c, 1, 76, 127
1, 127844, Note_off_c, 1, 76, 0
1, 127845, Note_on_c, 1, 77, 127
1, 127859, Note_off_c, 1, 52, 0
1, 127859, Note_off_c, 1, 73, 0
1, 127859, Note_off_c, 1, 67, 0
1, 127859, Note_off_c, 1, 40, 0
1, 127859, Note_off_c, 1, 77, 0
1, 127860, Note_on_c, 1, 79, 127
1, 127860, Note_on_c, 1, 76, 127
1, 127860, Note_on_c, 1, 73, 127
1, 127860, Note_on_c, 1, 52, 127
1, 127874, Note_off_c, 1, 79, 0
1, 127875, Note_on_c, 1, 81, 127
1, 127889, Note_off_c, 1, 81, 0
1, 127890, Note_on_c, 1, 83, 127
1, 127904, Note_off_c, 1, 83, 0
1, 127905, Note_on_c, 1, 85, 127
1, 127919, Note_off_c, 1, 76, 0
1, 127919, Note_off_c, 1, 73, 0
1, 127919, Note_off_c, 1, 52, 0
1, 127919, Note_off_c, 1, 85, 0
1, 127920, Note_on_c, 1, 69, 127
1, 127920, Note_on_c, 1, 65, 127
1, 127920, Note_on_c, 1, 50, 127
1, 127920, Note_on_c, 1, 86, 127
1, 127920, Note_on_c, 1, 62, 127
1, 127920, Note_on_c, 1, 77, 127
1, 127920, Note_on_c, 1, 57, 127
1, 127920, Note_on_c, 1, 53, 127
1, 127949, Note_off_c, 1, 62, 0
1, 127949, Note_off_c, 1, 57, 0
1, 127949, Note_off_c, 1, 53, 0
1, 127950, Note_on_c, 1, 64, 127
1, 127950, Note_on_c, 1, 55, 127
1, 127950, Note_on_c, 1, 52, 127
1, 127979, Note_off_c, 1, 69, 0
1, 127979, Note_off_c, 1, 65, 0
1, 127979, Note_off_c, 1, 50, 0
1, 127979, Note_off_c, 1, 86, 0
1, 127979, Note_off_c, 1, 77, 0
1, 127979, Note_off_c, 1, 64, 0
1, 127979, Note_off_c, 1, 55, 0
1, 127979, Note_off_c, 1, 52, 0
1, 127980, Note_on_c, 1, 74, 127
1, 127980, Note_on_c, 1, 65, 127
1, 127980, Note_on_c, 1, 53, 127
1, 127980, Note_on_c, 1, 50, 127
1, 128009, Note_off_c, 1, 65, 0
1, 128009, Note_off_c, 1, 53, 0
1, 128009, Note_off_c, 1, 50, 0
1, 128010, Note_on_c, 1, 62, 127
1, 128010, Note_on_c, 1, 57, 127
1, 128039, Note_off_c, 1, 62, 0
1, 128039, Note_off_c, 1, 57, 0
1, 128040, Note_on_c, 1, 64, 127
1, 128040, Note_on_c, 1, 67, 127
1, 128040, Note_on_c, 1, 52, 127
1, 128040, Note_on_c, 1, 55, 127
1, 128040, Note_on_c, 1, 58, 127
1, 128069, Note_off_c, 1, 55, 0
1, 128069, Note_off_c, 1, 58, 0
1, 128099, Note_off_c, 1, 74, 0
1, 128099, Note_off_c, 1, 64, 0
1, 128099, Note_off_c, 1, 67, 0
1, 128099, Note_off_c, 1, 52, 0
1, 128100, Note_on_c, 1, 73, 127
1, 128100, Note_on_c, 1, 67, 127
1, 128100, Note_on_c, 1, 52, 127
1, 128100, Note_on_c, 1, 55, 127
1, 128129, Note_off_c, 1, 67, 0
1, 128129, Note_off_c, 1, 52, 0
1, 128129, Note_off_c, 1, 55, 0
1, 128130, Note_on_c, 1, 64, 127
1, 128130, Note_on_c, 1, 57, 127
1, 128159, Note_off_c, 1, 73, 0
1, 128159, Note_off_c, 1, 64, 0
1, 128159, Note_off_c, 1, 57, 0
1, 128160, Note_on_c, 1, 74, 127
1, 128160, Note_on_c, 1, 69, 127
1, 128160, Note_on_c, 1, 65, 127
1, 128160, Note_on_c, 1, 53, 127
1, 128160, Note_on_c, 1, 50, 127
1, 128189, Note_off_c, 1, 50, 0
1, 128219, Note_off_c, 1, 74, 0
1, 128219, Note_off_c, 1, 69, 0
1, 128219, Note_off_c, 1, 65, 0
1, 128219, Note_off_c, 1, 53, 0
1, 128220, Note_on_c, 1, 76, 127
1, 128220, Note_on_c, 1, 67, 127
1, 128220, Note_on_c, 1, 55, 127
1, 128220, Note_on_c, 1, 58, 127
1, 128249, Note_off_c, 1, 67, 0
1, 128249, Note_off_c, 1, 55, 0
1, 128249, Note_off_c, 1, 58, 0
1, 128250, Note_on_c, 1, 65, 127
1, 128250, Note_on_c, 1, 57, 127
1, 128279, Note_off_c, 1, 65, 0
1, 128279, Note_off_c, 1, 57, 0
1, 128280, Note_on_c, 1, 70, 127
1, 128280, Note_on_c, 1, 64, 127
1, 128309, Note_off_c, 1, 64, 0
1, 128310, Note_on_c, 1, 62, 127
1, 128339, Note_off_c, 1, 76, 0
1, 128339, Note_off_c, 1, 70, 0
1, 128339, Note_off_c, 1, 62, 0
1, 128340, Note_on_c, 1, 77, 127
1, 128340, Note_on_c, 1, 61, 127
1, 128340, Note_on_c, 1, 57, 127
1, 128369, Note_off_c, 1, 61, 0
1, 128369, Note_off_c, 1, 57, 0
1, 128370, Note_on_c, 1, 59, 127
1, 128370, Note_on_c, 1, 55, 127
1, 128399, Note_off_c, 1, 59, 0
1, 128399, Note_off_c, 1, 55, 0
1, 128400, Note_on_c, 1, 69, 127
1, 128400, Note_on_c, 1, 53, 127
1, 128429, Note_off_c, 1, 53, 0
1, 128430, Note_on_c, 1, 50, 127
1, 128459, Note_off_c, 1, 77, 0
1, 128459, Note_off_c, 1, 69, 0
1, 128459, Note_off_c, 1, 50, 0
1, 128460, Note_on_c, 1, 76, 127
1, 128460, Note_on_c, 1, 62, 127
1, 128460, Note_on_c, 1, 65, 127
1, 128460, Note_on_c, 1, 58, 127
1, 128489, Note_off_c, 1, 76, 0
1, 128490, Note_on_c, 1, 74, 127
1, 128519, Note_off_c, 1, 62, 0
1, 128519, Note_off_c, 1, 65, 0
1, 128519, Note_off_c, 1, 58, 0
1, 128519, Note_off_c, 1, 74, 0
1, 128520, Note_on_c, 1, 77, 127
1, 128520, Note_on_c, 1, 70, 127
1, 128520, Note_on_c, 1, 67, 127
1, 128520, Note_on_c, 1, 55, 127
1, 128549, Note_off_c, 1, 77, 0
1, 128550, Note_on_c, 1, 76, 127
1, 128579, Note_off_c, 1, 70, 0
1, 128579, Note_off_c, 1, 67, 0
1, 128579, Note_off_c, 1, 55, 0
1, 128579, Note_off_c, 1, 76, 0
1, 128580, Note_on_c, 1, 74, 127
1, 128580, Note_on_c, 1, 69, 127
1, 128580, Note_on_c, 1, 64, 127
1, 128580, Note_on_c, 1, 57, 127
1, 128609, Note_off_c, 1, 74, 0
1, 128610, Note_on_c, 1, 73, 127
1, 128639, Note_off_c, 1, 69, 0
1, 128639, Note_off_c, 1, 64, 0
1, 128639, Note_off_c, 1, 57, 0
1, 128639, Note_off_c, 1, 73, 0
1, 128640, Note_on_c, 1, 74, 127
1, 128640, Note_on_c, 1, 65, 127
1, 128640, Note_on_c, 1, 62, 127
1, 128640, Note_on_c, 1, 58, 127
1, 128640, Note_on_c, 1, 50, 127
1, 128640, Note_on_c, 1, 46, 127
1, 128640, Note_on_c, 1, 53, 127
1, 128670, Note_on_c, 1, 76, 127
1, 128670, Note_on_c, 1, 72, 127
1, 128699, Note_off_c, 1, 74, 0
1, 128699, Note_off_c, 1, 65, 0
1, 128699, Note_off_c, 1, 62, 0
1, 128699, Note_off_c, 1, 58, 0
1, 128699, Note_off_c, 1, 50, 0
1, 128699, Note_off_c, 1, 46, 0
1, 128699, Note_off_c, 1, 53, 0
1, 128699, Note_off_c, 1, 76, 0
1, 128699, Note_off_c, 1, 72, 0
1, 128700, Note_on_c, 1, 74, 127
1, 128700, Note_on_c, 1, 77, 127
1, 128700, Note_on_c, 1, 46, 127
1, 128700, Note_on_c, 1, 70, 127
1, 128700, Note_on_c, 1, 58, 127
1, 128729, Note_off_c, 1, 77, 0
1, 128729, Note_off_c, 1, 70, 0
1, 128730, Note_on_c, 1, 69, 127
1, 128759, Note_off_c, 1, 46, 0
1, 128759, Note_off_c, 1, 58, 0
1, 128759, Note_off_c, 1, 69, 0
1, 128760, Note_on_c, 1, 67, 127
1, 128760, Note_on_c, 1, 59, 127
1, 128760, Note_on_c, 1, 79, 127
1, 128760, Note_on_c, 1, 47, 127
1, 128760, Note_on_c, 1, 55, 127
1, 128760, Note_on_c, 1, 50, 127
1, 128789, Note_off_c, 1, 79, 0
1, 128790, Note_on_c, 1, 81, 127
1, 128819, Note_off_c, 1, 74, 0
1, 128819, Note_off_c, 1, 67, 0
1, 128819, Note_off_c, 1, 59, 0
1, 128819, Note_off_c, 1, 47, 0
1, 128819, Note_off_c, 1, 55, 0
1, 128819, Note_off_c, 1, 50, 0
1, 128819, Note_off_c, 1, 81, 0
1, 128820, Note_on_c, 1, 79, 127
1, 128820, Note_on_c, 1, 76, 127
1, 128820, Note_on_c, 1, 59, 127
1, 128820, Note_on_c, 1, 47, 127
1, 128849, Note_off_c, 1, 76, 0
1, 128850, Note_on_c, 1, 74, 127
1, 128850, Note_on_c, 1, 77, 127
1, 128879, Note_off_c, 1, 59, 0
1, 128879, Note_off_c, 1, 47, 0
1, 128879, Note_off_c, 1, 74, 0
1, 128879, Note_off_c, 1, 77, 0
1, 128880, Note_on_c, 1, 72, 127
1, 128880, Note_on_c, 1, 67, 127
1, 128880, Note_on_c, 1, 60, 127
1, 128880, Note_on_c, 1, 48, 127
1, 128880, Note_on_c, 1, 52, 127
1, 128880, Note_on_c, 1, 55, 127
1, 128939, Note_off_c, 1, 79, 0
1, 128939, Note_off_c, 1, 72, 0
1, 128939, Note_off_c, 1, 67, 0
1, 128939, Note_off_c, 1, 60, 0
1, 128939, Note_off_c, 1, 48, 0
1, 128939, Note_off_c, 1, 52, 0
1, 128939, Note_off_c, 1, 55, 0
1, 128940, Note_on_c, 1, 76, 127
1, 128940, Note_on_c, 1, 79, 127
1, 128940, Note_on_c, 1, 48, 127
1, 128940, Note_on_c, 1, 72, 127
1, 128940, Note_on_c, 1, 60, 127
1, 128969, Note_off_c, 1, 79, 0
1, 128969, Note_off_c, 1, 72, 0
1, 128970, Note_on_c, 1, 70, 127
1, 128999, Note_off_c, 1, 48, 0
1, 128999, Note_off_c, 1, 60, 0
1, 128999, Note_off_c, 1, 70, 0
1, 129000, Note_on_c, 1, 69, 127
1, 129000, Note_on_c, 1, 61, 127
1, 129000, Note_on_c, 1, 81, 127
1, 129000, Note_on_c, 1, 49, 127
1, 129000, Note_on_c, 1, 57, 127
1, 129000, Note_on_c, 1, 52, 127
1, 129029, Note_off_c, 1, 81, 0
1, 129030, Note_on_c, 1, 82, 127
1, 129059, Note_off_c, 1, 76, 0
1, 129059, Note_off_c, 1, 69, 0
1, 129059, Note_off_c, 1, 61, 0
1, 129059, Note_off_c, 1, 49, 0
1, 129059, Note_off_c, 1, 57, 0
1, 129059, Note_off_c, 1, 52, 0
1, 129059, Note_off_c, 1, 82, 0
1, 129060, Note_on_c, 1, 81, 127
1, 129060, Note_on_c, 1, 77, 127
1, 129060, Note_on_c, 1, 61, 127
1, 129060, Note_on_c, 1, 49, 127
1, 129089, Note_off_c, 1, 77, 0
1, 129090, Note_on_c, 1, 76, 127
1, 129090, Note_on_c, 1, 79, 127
1, 129119, Note_off_c, 1, 81, 0
1, 129119, Note_off_c, 1, 61, 0
1, 129119, Note_off_c, 1, 49, 0
1, 129119, Note_off_c, 1, 76, 0
1, 129119, Note_off_c, 1, 79, 0
1, 129120, Note_on_c, 1, 79, 127
1, 129120, Note_on_c, 1, 74, 127
1, 129120, Note_on_c, 1, 69, 127
1, 129120, Note_on_c, 1, 62, 127
1, 129120, Note_on_c, 1, 50, 127
1, 129120, Note_on_c, 1, 57, 127
1, 129120, Note_on_c, 1, 53, 127
1, 129149, Note_off_c, 1, 79, 0
1, 129150, Note_on_c, 1, 77, 127
1, 129179, Note_off_c, 1, 74, 0
1, 129179, Note_off_c, 1, 69, 0
1, 129179, Note_off_c, 1, 62, 0
1, 129179, Note_off_c, 1, 50, 0
1, 129179, Note_off_c, 1, 57, 0
1, 129179, Note_off_c, 1, 53, 0
1, 129179, Note_off_c, 1, 77, 0
1, 129180, Note_on_c, 1, 76, 127
1, 129180, Note_on_c, 1, 65, 127
1, 129180, Note_on_c, 1, 70, 127
1, 129180, Note_on_c, 1, 58, 127
1, 129180, Note_on_c, 1, 46, 127
1, 129209, Note_off_c, 1, 76, 0
1, 129210, Note_on_c, 1, 74, 127
1, 129239, Note_off_c, 1, 65, 0
1, 129239, Note_off_c, 1, 70, 0
1, 129239, Note_off_c, 1, 58, 0
1, 129239, Note_off_c, 1, 46, 0
1, 129239, Note_off_c, 1, 74, 0
1, 129240, Note_on_c, 1, 77, 127
1, 129240, Note_on_c, 1, 67, 127
1, 129240, Note_on_c, 1, 70, 127
1, 129240, Note_on_c, 1, 55, 127
1, 129240, Note_on_c, 1, 43, 127
1, 129269, Note_off_c, 1, 77, 0
1, 129270, Note_on_c, 1, 76, 127
1, 129299, Note_off_c, 1, 67, 0
1, 129299, Note_off_c, 1, 70, 0
1, 129299, Note_off_c, 1, 55, 0
1, 129299, Note_off_c, 1, 43, 0
1, 129299, Note_off_c, 1, 76, 0
1, 129300, Note_on_c, 1, 74, 127
1, 129300, Note_on_c, 1, 64, 127
1, 129300, Note_on_c, 1, 69, 127
1, 129300, Note_on_c, 1, 57, 127
1, 129300, Note_on_c, 1, 45, 127
1, 129329, Note_off_c, 1, 74, 0
1, 129330, Note_on_c, 1, 73, 127
1, 129359, Note_off_c, 1, 64, 0
1, 129359, Note_off_c, 1, 69, 0
1, 129359, Note_off_c, 1, 57, 0
1, 129359, Note_off_c, 1, 45, 0
1, 129359, Note_off_c, 1, 73, 0
1, 129360, Note_on_c, 1, 74, 127
1, 129360, Note_on_c, 1, 65, 127
1, 129360, Note_on_c, 1, 69, 127
1, 129360, Note_on_c, 1, 50, 127
1, 129380, Note_on_c, 1, 76, 127
1, 129390, Note_on_c, 1, 57, 127
1, 129399, Note_off_c, 1, 76, 0
1, 129419, Note_off_c, 1, 65, 0
1, 129419, Note_off_c, 1, 69, 0
1, 129419, Note_off_c, 1, 50, 0
1, 129419, Note_off_c, 1, 57, 0
1, 129420, Note_on_c, 1, 55, 127
1, 129449, Note_off_c, 1, 55, 0
1, 129450, Note_on_c, 1, 53, 127
1, 129479, Note_off_c, 1, 53, 0
1, 129480, Note_on_c, 1, 58, 127
1, 129480, Note_on_c, 1, 67, 127
1, 129539, Note_off_c, 1, 58, 0
1, 129539, Note_off_c, 1, 67, 0
1, 129570, Note_on_c, 1, 52, 127
1, 129599, Note_off_c, 1, 52, 0
1, 129600, Note_on_c, 1, 62, 127
1, 129659, Note_off_c, 1, 62, 0
1, 129720, Note_on_c, 1, 64, 127
1, 129720, Note_on_c, 1, 70, 127
1, 129779, Note_off_c, 1, 64, 0
1, 129779, Note_off_c, 1, 70, 0
1, 129960, Note_on_c, 1, 43, 127
1, 130019, Note_off_c, 1, 43, 0
1, 130080, Note_on_c, 1, 41, 127
1, 130139, Note_off_c, 1, 41, 0
1, 130200, Note_on_c, 1, 40, 127
1, 130259, Note_off_c, 1, 40, 0
1, 130380, Note_off_c, 1, 74, 0
1, 130440, Note_on_c, 1, 69, 127
1, 130440, Note_on_c, 1, 65, 127
1, 130440, Note_on_c, 1, 45, 127
1, 130440, Note_on_c, 1, 57, 127
1, 130499, Note_off_c, 1, 69, 0
1, 130499, Note_off_c, 1, 65, 0
1, 130499, Note_off_c, 1, 45, 0
1, 130499, Note_off_c, 1, 57, 0
1, 130500, Note_on_c, 1, 73, 127
1, 130500, Note_on_c, 1, 69, 127
1, 130500, Note_on_c, 1, 64, 127
1, 130500, Note_on_c, 1, 45, 127
1, 130500, Note_on_c, 1, 67, 127
1, 130559, Note_off_c, 1, 73, 0
1, 130559, Note_off_c, 1, 69, 0
1, 130559, Note_off_c, 1, 64, 0
1, 130559, Note_off_c, 1, 45, 0
1, 130559, Note_off_c, 1, 67, 0
1, 130560, Note_on_c, 1, 74, 127
1, 130560, Note_on_c, 1, 69, 127
1, 130560, Note_on_c, 1, 65, 127
1, 130560, Note_on_c, 1, 38, 127
1, 130560, Note_on_c, 1, 62, 127
1, 130560, Note_on_c, 1, 50, 127
1, 130799, Note_off_c, 1, 74, 0
1, 130799, Note_off_c, 1, 69, 0
1, 130799, Note_off_c, 1, 65, 0
1, 130799, Note_off_c, 1, 38, 0
1, 130799, Note_off_c, 1, 62, 0
1, 130799, Note_off_c, 1, 50, 0
1, 130799, End_track
0, 0, End_of_file