0, 0, Header, 1, 1, 480
1, 0, Start_track
1, 0, Title_t, "Test"
1, 0, Tempo, 500000
1, 0, Instrument_name_t, "Church Organ"
1, 0, Note_on_c, 1, 62, 127
1, 0, Note_on_c, 1, 50, 127
1, 59, Note_off_c, 1, 50, 0
1, 119, Note_off_c, 1, 62, 0
1, 120, Note_on_c, 1, 54, 127
1, 179, Note_off_c, 1, 54, 0
1, 180, Note_on_c, 1, 57, 127
1, 180, Note_on_c, 1, 62, 127
1, 239, Note_off_c, 1, 57, 0
1, 239, Note_off_c, 1, 62, 0
1, 240, Note_on_c, 1, 59, 127
1, 240, Note_on_c, 1, 55, 127
1, 299, Note_off_c, 1, 55, 0
1, 300, Note_on_c, 1, 62, 127
1, 329, Note_off_c, 1, 59, 0
1, 330, Note_on_c, 1, 61, 127
1, 344, Note_off_c, 1, 61, 0
1, 359, Note_off_c, 1, 62, 0
1, 360, Note_on_c, 1, 55, 127
1, 360, Note_on_c, 1, 74, 127
1, 360, Note_on_c, 1, 50, 127
1, 389, Note_off_c, 1, 55, 0
1, 390, Note_on_c, 1, 54, 127
1, 400, Note_off_c, 1, 54, 0
1, 419, Note_off_c, 1, 50, 0
1, 420, Note_on_c, 1, 52, 127
1, 420, Note_on_c, 1, 62, 127
1, 449, Note_off_c, 1, 52, 0
1, 479, Note_off_c, 1, 74, 0
1, 479, Note_off_c, 1, 62, 0
1, 480, Note_on_c, 1, 62, 127
1, 480, Note_on_c, 1, 54, 127
1, 539, Note_off_c, 1, 54, 0
1, 540, Note_on_c, 1, 69, 127
1, 599, Note_off_c, 1, 69, 0
1, 600, Note_on_c, 1, 71, 127
1, 600, Note_on_c, 1, 55, 127
1, 659, Note_off_c, 1, 55, 0
1, 689, Note_off_c, 1, 71, 0
1, 690, Note_on_c, 1, 73, 127
1, 704, Note_off_c, 1, 73, 0
1, 705, Note_on_c, 1, 74, 127
1, 719, Note_off_c, 1, 74, 0
1, 720, Note_on_c, 1, 66, 127
1, 720, Note_on_c, 1, 50, 127
1, 730, Note_off_c, 1, 66, 0
1, 730, Note_on_c, 1, 67, 127
1, 740, Note_off_c, 1, 67, 0
1, 779, Note_off_c, 1, 50, 0
1, 780, Note_on_c, 1, 64, 127
1, 809, Note_off_c, 1, 64, 0
1, 839, Note_off_c, 1, 62, 0
1, 840, Note_on_c, 1, 68, 127
1, 840, Note_on_c, 1, 47, 127
1, 870, Note_on_c, 1, 61, 127
1, 899, Note_off_c, 1, 47, 0
1, 899, Note_off_c, 1, 61, 0
1, 900, Note_on_c, 1, 62, 127
1, 900, Note_on_c, 1, 59, 127
1, 929, Note_off_c, 1, 62, 0
1, 930, Note_on_c, 1, 66, 127
1, 959, Note_off_c, 1, 68, 0
1, 959, Note_off_c, 1, 59, 0
1, 959, Note_off_c, 1, 66, 0
1, 960, Note_on_c, 1, 64, 127
1, 960, Note_on_c, 1, 52, 127
1, 989, Note_off_c, 1, 64, 0
1, 990, Note_on_c, 1, 62, 127
1, 1019, Note_off_c, 1, 52, 0
1, 1019, Note_off_c, 1, 62, 0
1, 1020, Note_on_c, 1, 61, 127
1, 1020, Note_on_c, 1, 56, 127
1, 1049, Note_off_c, 1, 61, 0
1, 1050, Note_on_c, 1, 62, 127
1, 1079, Note_off_c, 1, 56, 0
1, 1079, Note_off_c, 1, 62, 0
1, 1080, Note_on_c, 1, 61, 127
1, 1080, Note_on_c, 1, 81, 127
1, 1080, Note_on_c, 1, 45, 127
1, 1139, Note_off_c, 1, 61, 0
1, 1139, Note_off_c, 1, 45, 0
1, 1140, Note_on_c, 1, 59, 127
1, 1140, Note_on_c, 1, 57, 127
1, 1169, Note_off_c, 1, 59, 0
1, 1199, Note_off_c, 1, 81, 0
1, 1199, Note_off_c, 1, 57, 0
1, 1200, Note_on_c, 1, 49, 127
1, 1259, Note_off_c, 1, 49, 0
1, 1260, Note_on_c, 1, 76, 127
1, 1260, Note_on_c, 1, 57, 127
1, 1319, Note_off_c, 1, 76, 0
1, 1319, Note_off_c, 1, 57, 0
1, 1320, Note_on_c, 1, 78, 127
1, 1320, Note_on_c, 1, 50, 127
1, 1379, Note_off_c, 1, 50, 0
1, 1380, Note_on_c, 1, 57, 127
1, 1409, Note_off_c, 1, 78, 0
1, 1410, Note_on_c, 1, 80, 127
1, 1424, Note_off_c, 1, 80, 0
1, 1425, Note_on_c, 1, 81, 127
1, 1439, Note_off_c, 1, 57, 0
1, 1439, Note_off_c, 1, 81, 0
1, 1440, Note_on_c, 1, 69, 127
1, 1440, Note_on_c, 1, 73, 127
1, 1440, Note_on_c, 1, 45, 127
1, 1499, Note_off_c, 1, 73, 0
1, 1499, Note_off_c, 1, 45, 0
1, 1500, Note_on_c, 1, 71, 127
1, 1500, Note_on_c, 1, 57, 127
1, 1529, Note_off_c, 1, 71, 0
1, 1559, Note_off_c, 1, 69, 0
1, 1559, Note_off_c, 1, 57, 0
1, 1560, Note_on_c, 1, 81, 127
1, 1560, Note_on_c, 1, 49, 127
1, 1619, Note_off_c, 1, 49, 0
1, 1620, Note_on_c, 1, 64, 127
1, 1620, Note_on_c, 1, 57, 127
1, 1679, Note_off_c, 1, 64, 0
1, 1679, Note_off_c, 1, 57, 0
1, 1680, Note_on_c, 1, 66, 127
1, 1680, Note_on_c, 1, 50, 127
1, 1739, Note_off_c, 1, 50, 0
1, 1769, Note_off_c, 1, 66, 0
1, 1770, Note_on_c, 1, 68, 127
1, 1785, Note_off_c, 1, 68, 0
1, 1785, Note_on_c, 1, 69, 127
1, 1800, Note_off_c, 1, 69, 0
1, 1800, Note_on_c, 1, 61, 127
1, 1800, Note_on_c, 1, 45, 127
1, 1859, Note_off_c, 1, 61, 0
1, 1859, Note_off_c, 1, 45, 0
1, 1860, Note_on_c, 1, 59, 127
1, 1889, Note_off_c, 1, 59, 0
1, 1919, Note_off_c, 1, 81, 0
1, 1920, Note_on_c, 1, 63, 127
1, 1920, Note_on_c, 1, 42, 127
1, 1950, Note_on_c, 1, 80, 127
1, 1979, Note_off_c, 1, 42, 0
1, 1979, Note_off_c, 1, 80, 0
1, 1980, Note_on_c, 1, 81, 127
1, 1980, Note_on_c, 1, 54, 127
1, 2009, Note_off_c, 1, 81, 0
1, 2010, Note_on_c, 1, 85, 127
1, 2039, Note_off_c, 1, 54, 0
1, 2039, Note_off_c, 1, 85, 0
1, 2040, Note_on_c, 1, 83, 127
1, 2040, Note_on_c, 1, 47, 127
1, 2069, Note_off_c, 1, 83, 0
1, 2099, Note_off_c, 1, 47, 0
1, 2100, Note_on_c, 1, 59, 127
1, 2159, Note_off_c, 1, 63, 0
1, 2159, Note_off_c, 1, 59, 0
1, 2160, Note_on_c, 1, 64, 127
1, 2160, Note_on_c, 1, 80, 127
1, 2160, Note_on_c, 1, 52, 127
1, 2219, Note_off_c, 1, 64, 0
1, 2219, Note_off_c, 1, 80, 0
1, 2219, Note_off_c, 1, 52, 0
1, 2220, Note_on_c, 1, 59, 127
1, 2220, Note_on_c, 1, 78, 127
1, 2220, Note_on_c, 1, 56, 127
1, 2249, Note_off_c, 1, 78, 0
1, 2250, Note_on_c, 1, 76, 127
1, 2279, Note_off_c, 1, 59, 0
1, 2279, Note_off_c, 1, 56, 0
1, 2279, Note_off_c, 1, 76, 0
1, 2280, Note_on_c, 1, 67, 127
1, 2280, Note_on_c, 1, 49, 127
1, 2309, Note_off_c, 1, 67, 0
1, 2310, Note_on_c, 1, 58, 127
1, 2339, Note_off_c, 1, 49, 0
1, 2339, Note_off_c, 1, 58, 0
1, 2340, Note_on_c, 1, 61, 127
1, 2340, Note_on_c, 1, 55, 127
1, 2369, Note_off_c, 1, 61, 0
1, 2370, Note_on_c, 1, 62, 127
1, 2399, Note_off_c, 1, 55, 0
1, 2399, Note_off_c, 1, 62, 0
1, 2400, Note_on_c, 1, 64, 127
1, 2400, Note_on_c, 1, 46, 127
1, 2429, Note_off_c, 1, 64, 0
1, 2430, Note_on_c, 1, 67, 127
1, 2459, Note_off_c, 1, 46, 0
1, 2459, Note_off_c, 1, 67, 0
1, 2460, Note_on_c, 1, 66, 127
1, 2460, Note_on_c, 1, 54, 127
1, 2489, Note_off_c, 1, 66, 0
1, 2490, Note_on_c, 1, 64, 127
1, 2519, Note_off_c, 1, 54, 0
1, 2519, Note_off_c, 1, 64, 0
1, 2520, Note_on_c, 1, 62, 127
1, 2520, Note_on_c, 1, 47, 127
1, 2530, Note_off_c, 1, 62, 0
1, 2530, Note_on_c, 1, 64, 127
1, 2540, Note_off_c, 1, 64, 0
1, 2579, Note_off_c, 1, 47, 0
1, 2580, Note_on_c, 1, 61, 127
1, 2580, Note_on_c, 1, 78, 127
1, 2580, Note_on_c, 1, 50, 127
1, 2609, Note_off_c, 1, 61, 0
1, 2610, Note_on_c, 1, 59, 127
1, 2639, Note_off_c, 1, 78, 0
1, 2639, Note_off_c, 1, 50, 0
1, 2639, Note_off_c, 1, 59, 0
1, 2640, Note_on_c, 1, 65, 127
1, 2640, Note_on_c, 1, 86, 127
1, 2640, Note_on_c, 1, 44, 127
1, 2669, Note_off_c, 1, 86, 0
1, 2670, Note_on_c, 1, 77, 127
1, 2699, Note_off_c, 1, 44, 0
1, 2699, Note_off_c, 1, 77, 0
1, 2700, Note_on_c, 1, 80, 127
1, 2700, Note_on_c, 1, 50, 127
1, 2729, Note_off_c, 1, 80, 0
1, 2730, Note_on_c, 1, 81, 127
1, 2759, Note_off_c, 1, 65, 0
1, 2759, Note_off_c, 1, 50, 0
1, 2759, Note_off_c, 1, 81, 0
1, 2760, Note_on_c, 1, 83, 127
1, 2760, Note_on_c, 1, 41, 127
1, 2789, Note_off_c, 1, 83, 0
1, 2790, Note_on_c, 1, 86, 127
1, 2819, Note_off_c, 1, 41, 0
1, 2819, Note_off_c, 1, 86, 0
1, 2820, Note_on_c, 1, 85, 127
1, 2820, Note_on_c, 1, 49, 127
1, 2849, Note_off_c, 1, 85, 0
1, 2850, Note_on_c, 1, 83, 127
1, 2879, Note_off_c, 1, 49, 0
1, 2879, Note_off_c, 1, 83, 0
1, 2880, Note_on_c, 1, 66, 127
1, 2880, Note_on_c, 1, 81, 127
1, 2880, Note_on_c, 1, 42, 127
1, 2890, Note_off_c, 1, 81, 0
1, 2890, Note_on_c, 1, 83, 127
1, 2900, Note_off_c, 1, 83, 0
1, 2939, Note_off_c, 1, 42, 0
1, 2940, Note_on_c, 1, 80, 127
1, 2940, Note_on_c, 1, 49, 127
1, 2969, Note_off_c, 1, 80, 0
1, 2970, Note_on_c, 1, 78, 127
1, 2999, Note_off_c, 1, 66, 0
1, 2999, Note_off_c, 1, 49, 0
1, 2999, Note_off_c, 1, 78, 0
1, 3000, Note_on_c, 1, 78, 127
1, 3000, Note_on_c, 1, 45, 127
1, 3059, Note_off_c, 1, 45, 0
1, 3060, Note_on_c, 1, 61, 127
1, 3060, Note_on_c, 1, 54, 127
1, 3119, Note_off_c, 1, 61, 0
1, 3119, Note_off_c, 1, 54, 0
1, 3120, Note_on_c, 1, 62, 127
1, 3120, Note_on_c, 1, 47, 127
1, 3149, Note_off_c, 1, 62, 0
1, 3150, Note_on_c, 1, 66, 127
1, 3179, Note_off_c, 1, 47, 0
1, 3179, Note_off_c, 1, 66, 0
1, 3180, Note_on_c, 1, 65, 127
1, 3180, Note_on_c, 1, 50, 127
1, 3209, Note_off_c, 1, 65, 0
1, 3239, Note_off_c, 1, 50, 0
1, 3240, Note_on_c, 1, 57, 127
1, 3299, Note_off_c, 1, 57, 0
1, 3300, Note_on_c, 1, 56, 127
1, 3300, Note_on_c, 1, 49, 127
1, 3329, Note_off_c, 1, 56, 0
1, 3359, Note_off_c, 1, 78, 0
1, 3359, Note_off_c, 1, 49, 0
1, 3360, Note_on_c, 1, 66, 127
1, 3360, Note_on_c, 1, 45, 127
1, 3419, Note_off_c, 1, 45, 0
1, 3420, Note_on_c, 1, 73, 127
1, 3420, Note_on_c, 1, 54, 127
1, 3479, Note_off_c, 1, 73, 0
1, 3479, Note_off_c, 1, 54, 0
1, 3480, Note_on_c, 1, 74, 127
1, 3480, Note_on_c, 1, 47, 127
1, 3509, Note_off_c, 1, 74, 0
1, 3510, Note_on_c, 1, 78, 127
1, 3539, Note_off_c, 1, 47, 0
1, 3539, Note_off_c, 1, 78, 0
1, 3540, Note_on_c, 1, 77, 127
1, 3540, Note_on_c, 1, 50, 127
1, 3569, Note_off_c, 1, 77, 0
1, 3599, Note_off_c, 1, 50, 0
1, 3600, Note_on_c, 1, 68, 127
1, 3600, Note_on_c, 1, 40, 127
1, 3659, Note_off_c, 1, 68, 0
1, 3659, Note_off_c, 1, 40, 0
1, 3689, Note_off_c, 1, 66, 0
1, 3690, Note_on_c, 1, 64, 127
1, 3705, Note_on_c, 1, 69, 127
1, 3719, Note_off_c, 1, 64, 0
1, 3719, Note_off_c, 1, 69, 0
1, 3720, Note_on_c, 1, 68, 127
1, 3720, Note_on_c, 1, 76, 127
1, 3720, Note_on_c, 1, 49, 127
1, 3749, Note_off_c, 1, 68, 0
1, 3750, Note_on_c, 1, 66, 127
1, 3779, Note_off_c, 1, 49, 0
1, 3779, Note_off_c, 1, 66, 0
1, 3780, Note_on_c, 1, 64, 127
1, 3780, Note_on_c, 1, 50, 127
1, 3809, Note_off_c, 1, 64, 0
1, 3810, Note_on_c, 1, 62, 127
1, 3839, Note_off_c, 1, 50, 0
1, 3839, Note_off_c, 1, 62, 0
1, 3840, Note_on_c, 1, 61, 127
1, 3840, Note_on_c, 1, 52, 127
1, 3869, Note_off_c, 1, 61, 0
1, 3899, Note_off_c, 1, 52, 0
1, 3960, Note_on_c, 1, 58, 127
1, 3960, Note_on_c, 1, 54, 127
1, 3970, Note_off_c, 1, 58, 0
1, 3970, Note_on_c, 1, 59, 127
1, 3980, Note_off_c, 1, 59, 0
1, 4019, Note_off_c, 1, 54, 0
1, 4020, Note_on_c, 1, 56, 127
1, 4020, Note_on_c, 1, 42, 127
1, 4049, Note_off_c, 1, 56, 0
1, 4079, Note_off_c, 1, 76, 0
1, 4079, Note_off_c, 1, 42, 0
1, 4080, Note_on_c, 1, 59, 127
1, 4080, Note_on_c, 1, 43, 127
1, 4110, Note_on_c, 1, 74, 127
1, 4139, Note_off_c, 1, 43, 0
1, 4139, Note_off_c, 1, 74, 0
1, 4140, Note_on_c, 1, 76, 127
1, 4140, Note_on_c, 1, 55, 127
1, 4169, Note_off_c, 1, 76, 0
1, 4170, Note_on_c, 1, 79, 127
1, 4199, Note_off_c, 1, 59, 0
1, 4199, Note_off_c, 1, 55, 0
1, 4199, Note_off_c, 1, 79, 0
1, 4200, Note_on_c, 1, 78, 127
1, 4200, Note_on_c, 1, 50, 127
1, 4229, Note_off_c, 1, 78, 0
1, 4230, Note_on_c, 1, 67, 127
1, 4230, Note_on_c, 1, 76, 127
1, 4259, Note_off_c, 1, 50, 0
1, 4259, Note_off_c, 1, 67, 0
1, 4259, Note_off_c, 1, 76, 0
1, 4260, Note_on_c, 1, 66, 127
1, 4260, Note_on_c, 1, 74, 127
1, 4260, Note_on_c, 1, 47, 127
1, 4289, Note_off_c, 1, 66, 0
1, 4289, Note_off_c, 1, 74, 0
1, 4290, Note_on_c, 1, 64, 127
1, 4290, Note_on_c, 1, 79, 127
1, 4319, Note_off_c, 1, 47, 0
1, 4319, Note_off_c, 1, 64, 0
1, 4319, Note_off_c, 1, 79, 0
1, 4320, Note_on_c, 1, 62, 127
1, 4320, Note_on_c, 1, 78, 127
1, 4320, Note_on_c, 1, 52, 127
1, 4349, Note_off_c, 1, 62, 0
1, 4349, Note_off_c, 1, 78, 0
1, 4350, Note_on_c, 1, 61, 127
1, 4350, Note_on_c, 1, 76, 127
1, 4379, Note_off_c, 1, 52, 0
1, 4379, Note_off_c, 1, 61, 0
1, 4379, Note_off_c, 1, 76, 0
1, 4380, Note_on_c, 1, 62, 127
1, 4380, Note_on_c, 1, 78, 127
1, 4380, Note_on_c, 1, 49, 127
1, 4409, Note_off_c, 1, 62, 0
1, 4409, Note_off_c, 1, 78, 0
1, 4410, Note_on_c, 1, 59, 127
1, 4410, Note_on_c, 1, 79, 127
1, 4439, Note_off_c, 1, 49, 0
1, 4439, Note_off_c, 1, 59, 0
1, 4439, Note_off_c, 1, 79, 0
1, 4440, Note_on_c, 1, 58, 127
1, 4440, Note_on_c, 1, 73, 127
1, 4440, Note_on_c, 1, 54, 127
1, 4450, Note_off_c, 1, 58, 0
1, 4450, Note_on_c, 1, 59, 127
1, 4455, Note_off_c, 1, 73, 0
1, 4455, Note_on_c, 1, 71, 127
1, 4460, Note_off_c, 1, 59, 0
1, 4470, Note_off_c, 1, 71, 0
1, 4499, Note_off_c, 1, 54, 0
1, 4500, Note_on_c, 1, 52, 127
1, 4559, Note_off_c, 1, 52, 0
1, 4600, Note_on_c, 1, 56, 127
1, 4610, Note_off_c, 1, 56, 0
1, 4620, Note_on_c, 1, 42, 127
1, 4679, Note_off_c, 1, 42, 0
1, 4680, Note_on_c, 1, 59, 127
1, 4680, Note_on_c, 1, 71, 127
1, 4680, Note_on_c, 1, 47, 127
1, 4739, Note_off_c, 1, 47, 0
1, 4799, Note_off_c, 1, 59, 0
1, 4799, Note_off_c, 1, 71, 0
1, 4800, Note_on_c, 1, 58, 127
1, 4859, Note_off_c, 1, 58, 0
1, 4860, Note_on_c, 1, 78, 127
1, 4860, Note_on_c, 1, 54, 127
1, 4919, Note_off_c, 1, 78, 0
1, 4919, Note_off_c, 1, 54, 0
1, 4920, Note_on_c, 1, 74, 127
1, 4920, Note_on_c, 1, 59, 127
1, 4979, Note_off_c, 1, 59, 0
1, 4980, Note_on_c, 1, 62, 127
1, 5009, Note_off_c, 1, 74, 0
1, 5010, Note_on_c, 1, 73, 127
1, 5024, Note_off_c, 1, 73, 0
1, 5025, Note_on_c, 1, 71, 127
1, 5039, Note_off_c, 1, 62, 0
1, 5039, Note_off_c, 1, 71, 0
1, 5040, Note_on_c, 1, 80, 127
1, 5040, Note_on_c, 1, 52, 127
1, 5099, Note_off_c, 1, 80, 0
1, 5099, Note_off_c, 1, 52, 0
1, 5100, Note_on_c, 1, 81, 127
1, 5100, Note_on_c, 1, 54, 127
1, 5129, Note_off_c, 1, 81, 0
1, 5130, Note_on_c, 1, 83, 127
1, 5159, Note_off_c, 1, 54, 0
1, 5159, Note_off_c, 1, 83, 0
1, 5160, Note_on_c, 1, 76, 127
1, 5160, Note_on_c, 1, 56, 127
1, 5219, Note_off_c, 1, 56, 0
1, 5220, Note_on_c, 1, 59, 127
1, 5279, Note_off_c, 1, 59, 0
1, 5280, Note_on_c, 1, 57, 127
1, 5280, Note_on_c, 1, 52, 127
1, 5309, Note_off_c, 1, 57, 0
1, 5339, Note_off_c, 1, 52, 0
1, 5370, Note_on_c, 1, 54, 127
1, 5384, Note_off_c, 1, 54, 0
1, 5399, Note_off_c, 1, 76, 0
1, 5400, Note_on_c, 1, 60, 127
1, 5400, Note_on_c, 1, 57, 127
1, 5430, Note_on_c, 1, 76, 127
1, 5459, Note_off_c, 1, 60, 0
1, 5459, Note_off_c, 1, 57, 0
1, 5459, Note_off_c, 1, 76, 0
1, 5460, Note_on_c, 1, 62, 127
1, 5460, Note_on_c, 1, 78, 127
1, 5460, Note_on_c, 1, 45, 127
1, 5489, Note_off_c, 1, 62, 0
1, 5489, Note_off_c, 1, 78, 0
1, 5490, Note_on_c, 1, 64, 127
1, 5490, Note_on_c, 1, 79, 127
1, 5519, Note_off_c, 1, 45, 0
1, 5519, Note_off_c, 1, 64, 0
1, 5519, Note_off_c, 1, 79, 0
1, 5520, Note_on_c, 1, 57, 127
1, 5520, Note_on_c, 1, 73, 127
1, 5549, Note_off_c, 1, 73, 0
1, 5550, Note_on_c, 1, 52, 127
1, 5579, Note_off_c, 1, 52, 0
1, 5580, Note_on_c, 1, 74, 127
1, 5580, Note_on_c, 1, 54, 127
1, 5609, Note_off_c, 1, 74, 0
1, 5609, Note_off_c, 1, 54, 0
1, 5610, Note_on_c, 1, 76, 127
1, 5610, Note_on_c, 1, 55, 127
1, 5639, Note_off_c, 1, 76, 0
1, 5639, Note_off_c, 1, 55, 0
1, 5700, Note_on_c, 1, 71, 127
1, 5700, Note_on_c, 1, 59, 127
1, 5729, Note_off_c, 1, 71, 0
1, 5729, Note_off_c, 1, 59, 0
1, 5730, Note_on_c, 1, 69, 127
1, 5730, Note_on_c, 1, 61, 127
1, 5759, Note_off_c, 1, 57, 0
1, 5759, Note_off_c, 1, 69, 0
1, 5759, Note_off_c, 1, 61, 0
1, 5760, Note_on_c, 1, 78, 127
1, 5760, Note_on_c, 1, 62, 127
1, 5790, Note_on_c, 1, 57, 127
1, 5819, Note_off_c, 1, 78, 0
1, 5819, Note_off_c, 1, 62, 0
1, 5819, Note_off_c, 1, 57, 0
1, 5820, Note_on_c, 1, 59, 127
1, 5820, Note_on_c, 1, 79, 127
1, 5820, Note_on_c, 1, 50, 127
1, 5849, Note_off_c, 1, 59, 0
1, 5849, Note_off_c, 1, 79, 0
1, 5850, Note_on_c, 1, 60, 127
1, 5850, Note_on_c, 1, 81, 127
1, 5879, Note_off_c, 1, 50, 0
1, 5879, Note_off_c, 1, 60, 0
1, 5879, Note_off_c, 1, 81, 0
1, 5880, Note_on_c, 1, 54, 127
1, 5880, Note_on_c, 1, 74, 127
1, 5909, Note_off_c, 1, 54, 0
1, 5910, Note_on_c, 1, 45, 127
1, 5939, Note_off_c, 1, 45, 0
1, 5940, Note_on_c, 1, 55, 127
1, 5940, Note_on_c, 1, 47, 127
1, 5969, Note_off_c, 1, 55, 0
1, 5969, Note_off_c, 1, 47, 0
1, 5970, Note_on_c, 1, 57, 127
1, 5970, Note_on_c, 1, 49, 127
1, 5999, Note_off_c, 1, 57, 0
1, 5999, Note_off_c, 1, 49, 0
1, 6000, Note_on_c, 1, 50, 127
1, 6029, Note_off_c, 1, 50, 0
1, 6060, Note_on_c, 1, 52, 127
1, 6089, Note_off_c, 1, 52, 0
1, 6119, Note_off_c, 1, 74, 0
1, 6120, Note_on_c, 1, 59, 127
1, 6120, Note_on_c, 1, 55, 127
1, 6150, Note_on_c, 1, 74, 127
1, 6179, Note_off_c, 1, 59, 0
1, 6179, Note_off_c, 1, 55, 0
1, 6179, Note_off_c, 1, 74, 0
1, 6180, Note_on_c, 1, 60, 127
1, 6180, Note_on_c, 1, 76, 127
1, 6180, Note_on_c, 1, 43, 127
1, 6209, Note_off_c, 1, 60, 0
1, 6209, Note_off_c, 1, 76, 0
1, 6210, Note_on_c, 1, 62, 127
1, 6210, Note_on_c, 1, 78, 127
1, 6239, Note_off_c, 1, 43, 0
1, 6239, Note_off_c, 1, 62, 0
1, 6239, Note_off_c, 1, 78, 0
1, 6240, Note_on_c, 1, 55, 127
1, 6240, Note_on_c, 1, 79, 127
1, 6269, Note_off_c, 1, 79, 0
1, 6270, Note_on_c, 1, 81, 127
1, 6299, Note_off_c, 1, 81, 0
1, 6300, Note_on_c, 1, 83, 127
1, 6329, Note_off_c, 1, 83, 0
1, 6360, Note_on_c, 1, 52, 127
1, 6390, Note_on_c, 1, 78, 127
1, 6419, Note_off_c, 1, 52, 0
1, 6419, Note_off_c, 1, 78, 0
1, 6420, Note_on_c, 1, 76, 127
1, 6449, Note_off_c, 1, 76, 0
1, 6450, Note_on_c, 1, 74, 127
1, 6479, Note_off_c, 1, 55, 0
1, 6479, Note_off_c, 1, 74, 0
1, 6480, Note_on_c, 1, 73, 127
1, 6480, Note_on_c, 1, 57, 127
1, 6510, Note_on_c, 1, 55, 127
1, 6539, Note_off_c, 1, 57, 0
1, 6539, Note_off_c, 1, 55, 0
1, 6570, Note_on_c, 1, 59, 127
1, 6599, Note_off_c, 1, 73, 0
1, 6599, Note_off_c, 1, 59, 0
1, 6600, Note_on_c, 1, 57, 127
1, 6600, Note_on_c, 1, 54, 127
1, 6629, Note_off_c, 1, 57, 0
1, 6630, Note_on_c, 1, 61, 127
1, 6630, Note_on_c, 1, 76, 127
1, 6659, Note_off_c, 1, 54, 0
1, 6659, Note_off_c, 1, 61, 0
1, 6659, Note_off_c, 1, 76, 0
1, 6660, Note_on_c, 1, 64, 127
1, 6660, Note_on_c, 1, 79, 127
1, 6660, Note_on_c, 1, 55, 127
1, 6689, Note_off_c, 1, 64, 0
1, 6689, Note_off_c, 1, 79, 0
1, 6690, Note_on_c, 1, 62, 127
1, 6690, Note_on_c, 1, 78, 127
1, 6719, Note_off_c, 1, 55, 0
1, 6719, Note_off_c, 1, 62, 0
1, 6719, Note_off_c, 1, 78, 0
1, 6720, Note_on_c, 1, 61, 127
1, 6720, Note_on_c, 1, 76, 127
1, 6720, Note_on_c, 1, 57, 127
1, 6749, Note_off_c, 1, 61, 0
1, 6749, Note_off_c, 1, 76, 0
1, 6750, Note_on_c, 1, 59, 127
1, 6750, Note_on_c, 1, 74, 127
1, 6779, Note_off_c, 1, 57, 0
1, 6779, Note_off_c, 1, 59, 0
1, 6779, Note_off_c, 1, 74, 0
1, 6780, Note_on_c, 1, 57, 127
1, 6780, Note_on_c, 1, 76, 127
1, 6780, Note_on_c, 1, 54, 127
1, 6809, Note_off_c, 1, 57, 0
1, 6809, Note_off_c, 1, 76, 0
1, 6810, Note_on_c, 1, 55, 127
1, 6810, Note_on_c, 1, 73, 127
1, 6839, Note_off_c, 1, 54, 0
1, 6839, Note_off_c, 1, 55, 0
1, 6839, Note_off_c, 1, 73, 0
1, 6840, Note_on_c, 1, 54, 127
1, 6840, Note_on_c, 1, 74, 127
1, 6840, Note_on_c, 1, 59, 127
1, 6869, Note_off_c, 1, 54, 0
1, 6899, Note_off_c, 1, 59, 0
1, 6900, Note_on_c, 1, 57, 127
1, 6900, Note_on_c, 1, 55, 127
1, 6929, Note_off_c, 1, 74, 0
1, 6929, Note_off_c, 1, 57, 0
1, 6930, Note_on_c, 1, 76, 127
1, 6959, Note_off_c, 1, 55, 0
1, 6959, Note_off_c, 1, 76, 0
1, 6960, Note_on_c, 1, 54, 127
1, 6960, Note_on_c, 1, 74, 127
1, 6960, Note_on_c, 1, 57, 127
1, 7019, Note_off_c, 1, 57, 0
1, 7020, Note_on_c, 1, 55, 127
1, 7079, Note_off_c, 1, 54, 0
1, 7079, Note_off_c, 1, 74, 0
1, 7079, Note_off_c, 1, 55, 0
1, 7080, Note_on_c, 1, 52, 127
1, 7080, Note_on_c, 1, 73, 127
1, 7080, Note_on_c, 1, 57, 127
1, 7090, Note_off_c, 1, 52, 0
1, 7090, Note_off_c, 1, 73, 0
1, 7090, Note_on_c, 1, 54, 127
1, 7090, Note_on_c, 1, 74, 127
1, 7100, Note_off_c, 1, 54, 0
1, 7100, Note_off_c, 1, 74, 0
1, 7139, Note_off_c, 1, 57, 0
1, 7140, Note_on_c, 1, 45, 127
1, 7170, Note_on_c, 1, 50, 127
1, 7199, Note_off_c, 1, 45, 0
1, 7199, Note_off_c, 1, 50, 0
1, 7200, Note_on_c, 1, 50, 127
1, 7200, Note_on_c, 1, 74, 127
1, 7260, Note_on_c, 1, 62, 127
1, 7319, Note_off_c, 1, 74, 0
1, 7319, Note_off_c, 1, 62, 0
1, 7320, Note_on_c, 1, 54, 127
1, 7379, Note_off_c, 1, 54, 0
1, 7380, Note_on_c, 1, 69, 127
1, 7439, Note_off_c, 1, 69, 0
1, 7440, Note_on_c, 1, 71, 127
1, 7440, Note_on_c, 1, 55, 127
1, 7499, Note_off_c, 1, 55, 0
1, 7529, Note_off_c, 1, 71, 0
1, 7530, Note_on_c, 1, 73, 127
1, 7545, Note_off_c, 1, 73, 0
1, 7560, Note_on_c, 1, 66, 127
1, 7619, Note_off_c, 1, 66, 0
1, 7620, Note_on_c, 1, 64, 127
1, 7649, Note_off_c, 1, 64, 0
1, 7680, Note_on_c, 1, 68, 127
1, 7680, Note_on_c, 1, 47, 127
1, 7739, Note_off_c, 1, 47, 0
1, 7769, Note_off_c, 1, 68, 0
1, 7770, Note_on_c, 1, 61, 127
1, 7799, Note_off_c, 1, 50, 0
1, 7800, Note_off_c, 1, 61, 0
1, 7800, Note_on_c, 1, 52, 127
1, 7859, Note_off_c, 1, 52, 0
1, 7860, Note_on_c, 1, 40, 127
1, 7919, Note_off_c, 1, 40, 0
1, 7920, Note_on_c, 1, 45, 127
1, 8279, Note_off_c, 1, 45, 0
1, 8640, Note_on_c, 1, 62, 127
1, 8640, Note_on_c, 1, 78, 127
1, 8669, Note_off_c, 1, 78, 0
1, 8670, Note_on_c, 1, 64, 127
1, 8670, Note_on_c, 1, 79, 127
1, 8699, Note_off_c, 1, 64, 0
1, 8699, Note_off_c, 1, 79, 0
1, 8700, Note_on_c, 1, 66, 127
1, 8700, Note_on_c, 1, 81, 127
1, 8729, Note_off_c, 1, 62, 0
1, 8730, Note_on_c, 1, 57, 127
1, 8744, Note_off_c, 1, 57, 0
1, 8745, Note_on_c, 1, 55, 127
1, 8759, Note_off_c, 1, 55, 0
1, 8760, Note_on_c, 1, 54, 127
1, 8774, Note_off_c, 1, 54, 0
1, 8819, Note_off_c, 1, 66, 0
1, 8819, Note_off_c, 1, 81, 0
1, 8820, Note_on_c, 1, 64, 127
1, 8820, Note_on_c, 1, 79, 127
1, 8820, Note_on_c, 1, 50, 127
1, 8849, Note_off_c, 1, 64, 0
1, 8849, Note_off_c, 1, 79, 0
1, 8850, Note_on_c, 1, 62, 127
1, 8850, Note_on_c, 1, 78, 127
1, 8879, Note_off_c, 1, 50, 0
1, 8879, Note_off_c, 1, 62, 0
1, 8879, Note_off_c, 1, 78, 0
1, 8880, Note_on_c, 1, 61, 127
1, 8880, Note_on_c, 1, 76, 127
1, 8880, Note_on_c, 1, 57, 127
1, 8909, Note_off_c, 1, 61, 0
1, 8909, Note_off_c, 1, 76, 0
1, 8910, Note_on_c, 1, 62, 127
1, 8910, Note_on_c, 1, 78, 127
1, 8939, Note_off_c, 1, 62, 0
1, 8939, Note_off_c, 1, 78, 0
1, 8940, Note_on_c, 1, 64, 127
1, 8940, Note_on_c, 1, 79, 127
1, 8969, Note_off_c, 1, 57, 0
1, 8970, Note_on_c, 1, 52, 127
1, 8984, Note_off_c, 1, 52, 0
1, 8985, Note_on_c, 1, 50, 127
1, 8999, Note_off_c, 1, 50, 0
1, 9000, Note_on_c, 1, 49, 127
1, 9014, Note_off_c, 1, 49, 0
1, 9059, Note_off_c, 1, 64, 0
1, 9059, Note_off_c, 1, 79, 0
1, 9060, Note_on_c, 1, 62, 127
1, 9060, Note_on_c, 1, 78, 127
1, 9060, Note_on_c, 1, 45, 127
1, 9089, Note_off_c, 1, 62, 0
1, 9089, Note_off_c, 1, 78, 0
1, 9090, Note_on_c, 1, 61, 127
1, 9090, Note_on_c, 1, 76, 127
1, 9119, Note_off_c, 1, 45, 0
1, 9119, Note_off_c, 1, 61, 0
1, 9119, Note_off_c, 1, 76, 0
1, 9120, Note_on_c, 1, 62, 127
1, 9120, Note_on_c, 1, 78, 127
1, 9120, Note_on_c, 1, 50, 127
1, 9149, Note_off_c, 1, 62, 0
1, 9150, Note_on_c, 1, 57, 127
1, 9179, Note_off_c, 1, 78, 0
1, 9179, Note_off_c, 1, 57, 0
1, 9180, Note_on_c, 1, 66, 127
1, 9180, Note_on_c, 1, 74, 127
1, 9209, Note_off_c, 1, 66, 0
1, 9239, Note_off_c, 1, 50, 0
1, 9239, Note_off_c, 1, 74, 0
1, 9240, Note_on_c, 1, 64, 127
1, 9240, Note_on_c, 1, 73, 127
1, 9255, Note_off_c, 1, 73, 0
1, 9255, Note_on_c, 1, 74, 127
1, 9269, Note_off_c, 1, 64, 0
1, 9270, Note_off_c, 1, 74, 0
1, 9270, Note_on_c, 1, 57, 127
1, 9299, Note_off_c, 1, 57, 0
1, 9300, Note_on_c, 1, 62, 127
1, 9300, Note_on_c, 1, 74, 127
1, 9300, Note_on_c, 1, 38, 127
1, 9329, Note_off_c, 1, 62, 0
1, 9330, Note_on_c, 1, 57, 127
1, 9359, Note_off_c, 1, 74, 0
1, 9359, Note_off_c, 1, 38, 0
1, 9359, Note_off_c, 1, 57, 0
1, 9360, Note_on_c, 1, 61, 127
1, 9360, Note_on_c, 1, 76, 127
1, 9360, Note_on_c, 1, 45, 127
1, 9389, Note_off_c, 1, 76, 0
1, 9390, Note_on_c, 1, 74, 127
1, 9419, Note_off_c, 1, 61, 0
1, 9419, Note_off_c, 1, 45, 0
1, 9419, Note_off_c, 1, 74, 0
1, 9420, Note_on_c, 1, 57, 127
1, 9420, Note_on_c, 1, 73, 127
1, 9449, Note_off_c, 1, 73, 0
1, 9450, Note_on_c, 1, 71, 127
1, 9450, Note_on_c, 1, 55, 127
1, 9479, Note_off_c, 1, 57, 0
1, 9479, Note_off_c, 1, 71, 0
1, 9479, Note_off_c, 1, 55, 0
1, 9480, Note_on_c, 1, 61, 127
1, 9480, Note_on_c, 1, 69, 127
1, 9480, Note_on_c, 1, 54, 127
1, 9509, Note_off_c, 1, 69, 0
1, 9509, Note_off_c, 1, 54, 0
1, 9510, Note_on_c, 1, 67, 127
1, 9510, Note_on_c, 1, 52, 127
1, 9539, Note_off_c, 1, 61, 0
1, 9539, Note_off_c, 1, 67, 0
1, 9539, Note_off_c, 1, 52, 0
1, 9540, Note_on_c, 1, 64, 127
1, 9540, Note_on_c, 1, 66, 127
1, 9540, Note_on_c, 1, 50, 127
1, 9569, Note_off_c, 1, 66, 0
1, 9569, Note_off_c, 1, 50, 0
1, 9570, Note_on_c, 1, 49, 127
1, 9599, Note_off_c, 1, 64, 0
1, 9599, Note_off_c, 1, 49, 0
1, 9600, Note_on_c, 1, 66, 127
1, 9600, Note_on_c, 1, 62, 127
1, 9600, Note_on_c, 1, 50, 127
1, 9629, Note_off_c, 1, 66, 0
1, 9629, Note_off_c, 1, 62, 0
1, 9630, Note_on_c, 1, 67, 127
1, 9630, Note_on_c, 1, 64, 127
1, 9659, Note_off_c, 1, 50, 0
1, 9659, Note_off_c, 1, 67, 0
1, 9659, Note_off_c, 1, 64, 0
1, 9660, Note_on_c, 1, 69, 127
1, 9660, Note_on_c, 1, 66, 127
1, 9660, Note_on_c, 1, 38, 127
1, 9689, Note_off_c, 1, 66, 0
1, 9689, Note_off_c, 1, 38, 0
1, 9690, Note_on_c, 1, 64, 127
1, 9690, Note_on_c, 1, 40, 127
1, 9719, Note_off_c, 1, 64, 0
1, 9719, Note_off_c, 1, 40, 0
1, 9720, Note_on_c, 1, 62, 127
1, 9720, Note_on_c, 1, 42, 127
1, 9749, Note_off_c, 1, 62, 0
1, 9779, Note_off_c, 1, 69, 0
1, 9779, Note_off_c, 1, 42, 0
1, 9780, Note_on_c, 1, 67, 127
1, 9780, Note_on_c, 1, 69, 127
1, 9780, Note_on_c, 1, 38, 127
1, 9809, Note_off_c, 1, 67, 0
1, 9809, Note_off_c, 1, 69, 0
1, 9810, Note_on_c, 1, 66, 127
1, 9810, Note_on_c, 1, 74, 127
1, 9839, Note_off_c, 1, 38, 0
1, 9839, Note_off_c, 1, 66, 0
1, 9839, Note_off_c, 1, 74, 0
1, 9840, Note_on_c, 1, 64, 127
1, 9840, Note_on_c, 1, 73, 127
1, 9840, Note_on_c, 1, 45, 127
1, 9869, Note_off_c, 1, 64, 0
1, 9869, Note_off_c, 1, 73, 0
1, 9870, Note_on_c, 1, 66, 127
1, 9870, Note_on_c, 1, 74, 127
1, 9899, Note_off_c, 1, 45, 0
1, 9899, Note_off_c, 1, 66, 0
1, 9899, Note_off_c, 1, 74, 0
1, 9900, Note_on_c, 1, 67, 127
1, 9900, Note_on_c, 1, 76, 127
1, 9900, Note_on_c, 1, 49, 127
1, 9929, Note_off_c, 1, 76, 0
1, 9929, Note_off_c, 1, 49, 0
1, 9930, Note_on_c, 1, 74, 127
1, 9930, Note_on_c, 1, 47, 127
1, 9959, Note_off_c, 1, 74, 0
1, 9959, Note_off_c, 1, 47, 0
1, 9960, Note_on_c, 1, 73, 127
1, 9960, Note_on_c, 1, 45, 127
1, 9989, Note_off_c, 1, 73, 0
1, 10019, Note_off_c, 1, 67, 0
1, 10019, Note_off_c, 1, 45, 0
1, 10020, Note_on_c, 1, 66, 127
1, 10020, Note_on_c, 1, 69, 127
1, 10020, Note_on_c, 1, 57, 127
1, 10049, Note_off_c, 1, 66, 0
1, 10049, Note_off_c, 1, 69, 0
1, 10050, Note_on_c, 1, 64, 127
1, 10050, Note_on_c, 1, 73, 127
1, 10079, Note_off_c, 1, 57, 0
1, 10079, Note_off_c, 1, 64, 0
1, 10079, Note_off_c, 1, 73, 0
1, 10080, Note_on_c, 1, 66, 127
1, 10080, Note_on_c, 1, 74, 127
1, 10080, Note_on_c, 1, 50, 127
1, 10109, Note_off_c, 1, 74, 0
1, 10110, Note_on_c, 1, 69, 127
1, 10139, Note_off_c, 1, 66, 0
1, 10139, Note_off_c, 1, 69, 0
1, 10140, Note_on_c, 1, 62, 127
1, 10140, Note_on_c, 1, 78, 127
1, 10169, Note_off_c, 1, 78, 0
1, 10199, Note_off_c, 1, 50, 0
1, 10199, Note_off_c, 1, 62, 0
1, 10200, Note_on_c, 1, 61, 127
1, 10200, Note_on_c, 1, 76, 127
1, 10215, Note_off_c, 1, 61, 0
1, 10215, Note_on_c, 1, 62, 127
1, 10229, Note_off_c, 1, 76, 0
1, 10230, Note_off_c, 1, 62, 0
1, 10230, Note_on_c, 1, 69, 127
1, 10230, Note_on_c, 1, 52, 127
1, 10259, Note_off_c, 1, 69, 0
1, 10259, Note_off_c, 1, 52, 0
1, 10260, Note_on_c, 1, 62, 127
1, 10260, Note_on_c, 1, 74, 127
1, 10260, Note_on_c, 1, 54, 127
1, 10289, Note_off_c, 1, 74, 0
1, 10289, Note_off_c, 1, 54, 0
1, 10290, Note_on_c, 1, 69, 127
1, 10290, Note_on_c, 1, 50, 127
1, 10319, Note_off_c, 1, 62, 0
1, 10319, Note_off_c, 1, 69, 0
1, 10319, Note_off_c, 1, 50, 0
1, 10320, Note_on_c, 1, 64, 127
1, 10320, Note_on_c, 1, 73, 127
1, 10320, Note_on_c, 1, 57, 127
1, 10349, Note_off_c, 1, 64, 0
1, 10349, Note_off_c, 1, 73, 0
1, 10350, Note_on_c, 1, 62, 127
1, 10350, Note_on_c, 1, 74, 127
1, 10379, Note_off_c, 1, 57, 0
1, 10379, Note_off_c, 1, 62, 0
1, 10379, Note_off_c, 1, 74, 0
1, 10380, Note_on_c, 1, 61, 127
1, 10380, Note_on_c, 1, 76, 127
1, 10380, Note_on_c, 1, 45, 127
1, 10409, Note_off_c, 1, 61, 0
1, 10409, Note_off_c, 1, 76, 0
1, 10410, Note_on_c, 1, 59, 127
1, 10410, Note_on_c, 1, 74, 127
1, 10439, Note_off_c, 1, 45, 0
1, 10439, Note_off_c, 1, 59, 0
1, 10439, Note_off_c, 1, 74, 0
1, 10440, Note_on_c, 1, 57, 127
1, 10440, Note_on_c, 1, 73, 127
1, 10469, Note_off_c, 1, 57, 0
1, 10469, Note_off_c, 1, 73, 0
1, 10470, Note_on_c, 1, 55, 127
1, 10470, Note_on_c, 1, 71, 127
1, 10470, Note_on_c, 1, 45, 127
1, 10499, Note_off_c, 1, 55, 0
1, 10499, Note_off_c, 1, 71, 0
1, 10499, Note_off_c, 1, 45, 0
1, 10500, Note_on_c, 1, 54, 127
1, 10500, Note_on_c, 1, 69, 127
1, 10500, Note_on_c, 1, 47, 127
1, 10529, Note_off_c, 1, 54, 0
1, 10529, Note_off_c, 1, 69, 0
1, 10529, Note_off_c, 1, 47, 0
1, 10530, Note_on_c, 1, 52, 127
1, 10530, Note_on_c, 1, 67, 127
1, 10530, Note_on_c, 1, 49, 127
1, 10559, Note_off_c, 1, 52, 0
1, 10559, Note_off_c, 1, 67, 0
1, 10559, Note_off_c, 1, 49, 0
1, 10560, Note_on_c, 1, 50, 127
1, 10560, Note_on_c, 1, 66, 127
1, 10589, Note_off_c, 1, 66, 0
1, 10590, Note_on_c, 1, 67, 127
1, 10590, Note_on_c, 1, 52, 127
1, 10619, Note_off_c, 1, 50, 0
1, 10619, Note_off_c, 1, 67, 0
1, 10619, Note_off_c, 1, 52, 0
1, 10620, Note_on_c, 1, 62, 127
1, 10620, Note_on_c, 1, 69, 127
1, 10620, Note_on_c, 1, 54, 127
1, 10649, Note_off_c, 1, 62, 0
1, 10649, Note_off_c, 1, 69, 0
1, 10650, Note_on_c, 1, 61, 127
1, 10650, Note_on_c, 1, 66, 127
1, 10679, Note_off_c, 1, 61, 0
1, 10679, Note_off_c, 1, 66, 0
1, 10739, Note_off_c, 1, 54, 0
1, 10740, Note_on_c, 1, 52, 127
1, 10769, Note_off_c, 1, 52, 0
1, 10770, Note_on_c, 1, 72, 127
1, 10770, Note_on_c, 1, 50, 127
1, 10799, Note_off_c, 1, 72, 0
1, 10799, Note_off_c, 1, 50, 0
1, 10800, Note_on_c, 1, 71, 127
1, 10800, Note_on_c, 1, 55, 127
1, 10829, Note_off_c, 1, 71, 0
1, 10829, Note_off_c, 1, 55, 0
1, 10830, Note_on_c, 1, 60, 127
1, 10830, Note_on_c, 1, 72, 127
1, 10830, Note_on_c, 1, 57, 127
1, 10859, Note_off_c, 1, 60, 0
1, 10859, Note_off_c, 1, 72, 0
1, 10859, Note_off_c, 1, 57, 0
1, 10860, Note_on_c, 1, 59, 127
1, 10860, Note_on_c, 1, 74, 127
1, 10889, Note_off_c, 1, 74, 0
1, 10890, Note_on_c, 1, 62, 127
1, 10890, Note_on_c, 1, 71, 127
1, 10919, Note_off_c, 1, 62, 0
1, 10919, Note_off_c, 1, 71, 0
1, 10920, Note_on_c, 1, 67, 127
1, 10949, Note_off_c, 1, 59, 0
1, 10950, Note_on_c, 1, 57, 127
1, 10979, Note_off_c, 1, 67, 0
1, 10979, Note_off_c, 1, 57, 0
1, 10980, Note_on_c, 1, 59, 127
1, 10980, Note_on_c, 1, 62, 127
1, 10980, Note_on_c, 1, 55, 127
1, 11009, Note_off_c, 1, 59, 0
1, 11009, Note_off_c, 1, 55, 0
1, 11010, Note_on_c, 1, 54, 127
1, 11039, Note_off_c, 1, 62, 0
1, 11039, Note_off_c, 1, 54, 0
1, 11040, Note_on_c, 1, 59, 127
1, 11040, Note_on_c, 1, 67, 127
1, 11040, Note_on_c, 1, 52, 127
1, 11069, Note_off_c, 1, 67, 0
1, 11069, Note_off_c, 1, 52, 0
1, 11070, Note_on_c, 1, 69, 127
1, 11070, Note_on_c, 1, 54, 127
1, 11099, Note_off_c, 1, 59, 0
1, 11099, Note_off_c, 1, 69, 0
1, 11099, Note_off_c, 1, 54, 0
1, 11100, Note_on_c, 1, 64, 127
1, 11100, Note_on_c, 1, 71, 127
1, 11100, Note_on_c, 1, 55, 127
1, 11129, Note_off_c, 1, 64, 0
1, 11129, Note_off_c, 1, 71, 0
1, 11130, Note_on_c, 1, 63, 127
1, 11130, Note_on_c, 1, 67, 127
1, 11159, Note_off_c, 1, 63, 0
1, 11159, Note_off_c, 1, 67, 0
1, 11219, Note_off_c, 1, 55, 0
1, 11220, Note_on_c, 1, 54, 127
1, 11249, Note_off_c, 1, 54, 0
1, 11250, Note_on_c, 1, 74, 127
1, 11250, Note_on_c, 1, 52, 127
1, 11279, Note_off_c, 1, 74, 0
1, 11279, Note_off_c, 1, 52, 0
1, 11280, Note_on_c, 1, 73, 127
1, 11280, Note_on_c, 1, 57, 127
1, 11309, Note_off_c, 1, 73, 0
1, 11309, Note_off_c, 1, 57, 0
1, 11310, Note_on_c, 1, 62, 127
1, 11310, Note_on_c, 1, 74, 127
1, 11310, Note_on_c, 1, 59, 127
1, 11339, Note_off_c, 1, 62, 0
1, 11339, Note_off_c, 1, 74, 0
1, 11339, Note_off_c, 1, 59, 0
1, 11340, Note_on_c, 1, 61, 127
1, 11340, Note_on_c, 1, 76, 127
1, 11369, Note_off_c, 1, 76, 0
1, 11370, Note_on_c, 1, 64, 127
1, 11370, Note_on_c, 1, 73, 127
1, 11399, Note_off_c, 1, 64, 0
1, 11399, Note_off_c, 1, 73, 0
1, 11400, Note_on_c, 1, 69, 127
1, 11429, Note_off_c, 1, 61, 0
1, 11430, Note_on_c, 1, 59, 127
1, 11459, Note_off_c, 1, 69, 0
1, 11459, Note_off_c, 1, 59, 0
1, 11460, Note_on_c, 1, 61, 127
1, 11460, Note_on_c, 1, 76, 127
1, 11460, Note_on_c, 1, 57, 127
1, 11489, Note_off_c, 1, 61, 0
1, 11489, Note_off_c, 1, 57, 0
1, 11490, Note_on_c, 1, 64, 127
1, 11490, Note_on_c, 1, 55, 127
1, 11519, Note_off_c, 1, 76, 0
1, 11519, Note_off_c, 1, 64, 0
1, 11519, Note_off_c, 1, 55, 0
1, 11520, Note_on_c, 1, 66, 127
1, 11520, Note_on_c, 1, 81, 127
1, 11520, Note_on_c, 1, 54, 127
1, 11549, Note_off_c, 1, 54, 0
1, 11550, Note_on_c, 1, 55, 127
1, 11579, Note_off_c, 1, 66, 0
1, 11579, Note_off_c, 1, 81, 0
1, 11579, Note_off_c, 1, 55, 0
1, 11580, Note_on_c, 1, 66, 127
1, 11580, Note_on_c, 1, 73, 127
1, 11580, Note_on_c, 1, 81, 127
1, 11580, Note_on_c, 1, 57, 127
1, 11609, Note_off_c, 1, 57, 0
1, 11610, Note_on_c, 1, 54, 127
1, 11639, Note_off_c, 1, 54, 0
1, 11640, Note_off_c, 1, 73, 0
1, 11640, Note_on_c, 1, 71, 127
1, 11640, Note_on_c, 1, 51, 127
1, 11669, Note_off_c, 1, 51, 0
1, 11699, Note_off_c, 1, 66, 0
1, 11699, Note_off_c, 1, 81, 0
1, 11700, Note_on_c, 1, 64, 127
1, 11700, Note_on_c, 1, 79, 127
1, 11700, Note_on_c, 1, 47, 127
1, 11729, Note_off_c, 1, 64, 0
1, 11729, Note_off_c, 1, 79, 0
1, 11729, Note_off_c, 1, 47, 0
1, 11730, Note_on_c, 1, 63, 127
1, 11730, Note_on_c, 1, 78, 127
1, 11730, Note_on_c, 1, 59, 127
1, 11759, Note_off_c, 1, 63, 0
1, 11759, Note_off_c, 1, 78, 0
1, 11759, Note_off_c, 1, 59, 0
1, 11760, Note_on_c, 1, 52, 127
1, 11789, Note_off_c, 1, 52, 0
1, 11820, Note_on_c, 1, 55, 127
1, 11849, Note_off_c, 1, 55, 0
1, 11880, Note_off_c, 1, 71, 0
1, 11880, Note_on_c, 1, 69, 127
1, 11880, Note_on_c, 1, 49, 127
1, 11909, Note_off_c, 1, 49, 0
1, 11940, Note_on_c, 1, 62, 127
1, 11940, Note_on_c, 1, 45, 127
1, 11969, Note_off_c, 1, 62, 0
1, 11969, Note_off_c, 1, 45, 0
1, 11970, Note_on_c, 1, 61, 127
1, 11970, Note_on_c, 1, 76, 127
1, 11999, Note_off_c, 1, 61, 0
1, 11999, Note_off_c, 1, 76, 0
1, 12000, Note_on_c, 1, 50, 127
1, 12029, Note_off_c, 1, 50, 0
1, 12090, Note_on_c, 1, 74, 127
1, 12120, Note_off_c, 1, 69, 0
1, 12120, Note_off_c, 1, 74, 0
1, 12360, Note_on_c, 1, 50, 127
1, 12360, Note_on_c, 1, 54, 127
1, 12389, Note_off_c, 1, 50, 0
1, 12419, Note_off_c, 1, 54, 0
1, 12420, Note_on_c, 1, 55, 127
1, 12420, Note_on_c, 1, 52, 127
1, 12449, Note_off_c, 1, 55, 0
1, 12450, Note_on_c, 1, 57, 127
1, 12479, Note_off_c, 1, 52, 0
1, 12479, Note_off_c, 1, 57, 0
1, 12480, Note_on_c, 1, 59, 127
1, 12480, Note_on_c, 1, 50, 127
1, 12509, Note_off_c, 1, 59, 0
1, 12510, Note_on_c, 1, 61, 127
1, 12510, Note_on_c, 1, 66, 127
1, 12539, Note_off_c, 1, 50, 0
1, 12539, Note_off_c, 1, 61, 0
1, 12539, Note_off_c, 1, 66, 0
1, 12540, Note_on_c, 1, 62, 127
1, 12540, Note_on_c, 1, 68, 127
1, 12569, Note_off_c, 1, 68, 0
1, 12570, Note_on_c, 1, 70, 127
1, 12570, Note_on_c, 1, 61, 127
1, 12599, Note_off_c, 1, 70, 0
1, 12599, Note_off_c, 1, 61, 0
1, 12600, Note_on_c, 1, 71, 127
1, 12600, Note_on_c, 1, 59, 127
1, 12629, Note_off_c, 1, 62, 0
1, 12629, Note_off_c, 1, 71, 0
1, 12629, Note_off_c, 1, 59, 0
1, 12630, Note_on_c, 1, 61, 127
1, 12630, Note_on_c, 1, 73, 127
1, 12630, Note_on_c, 1, 57, 127
1, 12659, Note_off_c, 1, 61, 0
1, 12659, Note_off_c, 1, 73, 0
1, 12659, Note_off_c, 1, 57, 0
1, 12660, Note_on_c, 1, 59, 127
1, 12660, Note_on_c, 1, 74, 127
1, 12660, Note_on_c, 1, 56, 127
1, 12689, Note_off_c, 1, 59, 0
1, 12689, Note_off_c, 1, 56, 0
1, 12690, Note_on_c, 1, 57, 127
1, 12690, Note_on_c, 1, 54, 127
1, 12719, Note_off_c, 1, 57, 0
1, 12719, Note_off_c, 1, 54, 0
1, 12720, Note_on_c, 1, 52, 127
1, 12749, Note_off_c, 1, 74, 0
1, 12750, Note_on_c, 1, 73, 127
1, 12779, Note_off_c, 1, 52, 0
1, 12779, Note_off_c, 1, 73, 0
1, 12780, Note_on_c, 1, 59, 127
1, 12780, Note_on_c, 1, 71, 127
1, 12780, Note_on_c, 1, 40, 127
1, 12794, Note_off_c, 1, 71, 0
1, 12795, Note_on_c, 1, 73, 127
1, 12809, Note_off_c, 1, 59, 0
1, 12809, Note_off_c, 1, 73, 0
1, 12810, Note_on_c, 1, 56, 127
1, 12810, Note_on_c, 1, 74, 127
1, 12839, Note_off_c, 1, 40, 0
1, 12839, Note_off_c, 1, 56, 0
1, 12839, Note_off_c, 1, 74, 0
1, 12840, Note_on_c, 1, 52, 127
1, 12840, Note_on_c, 1, 68, 127
1, 12840, Note_on_c, 1, 47, 127
1, 12869, Note_off_c, 1, 52, 0
1, 12870, Note_on_c, 1, 56, 127
1, 12899, Note_off_c, 1, 68, 0
1, 12899, Note_off_c, 1, 47, 0
1, 12899, Note_off_c, 1, 56, 0
1, 12900, Note_on_c, 1, 57, 127
1, 12900, Note_on_c, 1, 52, 127
1, 12929, Note_off_c, 1, 57, 0
1, 12929, Note_off_c, 1, 52, 0
1, 12930, Note_on_c, 1, 59, 127
1, 12930, Note_on_c, 1, 50, 127
1, 12959, Note_off_c, 1, 59, 0
1, 12959, Note_off_c, 1, 50, 0
1, 12960, Note_on_c, 1, 61, 127
1, 12960, Note_on_c, 1, 52, 127
1, 12989, Note_off_c, 1, 61, 0
1, 12990, Note_on_c, 1, 62, 127
1, 12990, Note_on_c, 1, 68, 127
1, 13019, Note_off_c, 1, 52, 0
1, 13019, Note_off_c, 1, 62, 0
1, 13019, Note_off_c, 1, 68, 0
1, 13020, Note_on_c, 1, 64, 127
1, 13020, Note_on_c, 1, 69, 127
1, 13049, Note_off_c, 1, 69, 0
1, 13050, Note_on_c, 1, 71, 127
1, 13050, Note_on_c, 1, 62, 127
1, 13079, Note_off_c, 1, 71, 0
1, 13079, Note_off_c, 1, 62, 0
1, 13080, Note_on_c, 1, 73, 127
1, 13080, Note_on_c, 1, 61, 127
1, 13109, Note_off_c, 1, 64, 0
1, 13109, Note_off_c, 1, 73, 0
1, 13109, Note_off_c, 1, 61, 0
1, 13110, Note_on_c, 1, 62, 127
1, 13110, Note_on_c, 1, 74, 127
1, 13110, Note_on_c, 1, 59, 127
1, 13139, Note_off_c, 1, 62, 0
1, 13139, Note_off_c, 1, 74, 0
1, 13139, Note_off_c, 1, 59, 0
1, 13140, Note_on_c, 1, 61, 127
1, 13140, Note_on_c, 1, 76, 127
1, 13140, Note_on_c, 1, 57, 127
1, 13169, Note_off_c, 1, 61, 0
1, 13169, Note_off_c, 1, 57, 0
1, 13170, Note_on_c, 1, 59, 127
1, 13170, Note_on_c, 1, 56, 127
1, 13199, Note_off_c, 1, 59, 0
1, 13199, Note_off_c, 1, 56, 0
1, 13200, Note_on_c, 1, 54, 127
1, 13229, Note_off_c, 1, 76, 0
1, 13230, Note_on_c, 1, 74, 127
1, 13259, Note_off_c, 1, 54, 0
1, 13259, Note_off_c, 1, 74, 0
1, 13260, Note_on_c, 1, 61, 127
1, 13260, Note_on_c, 1, 73, 127
1, 13260, Note_on_c, 1, 42, 127
1, 13274, Note_off_c, 1, 73, 0
1, 13275, Note_on_c, 1, 74, 127
1, 13289, Note_off_c, 1, 61, 0
1, 13289, Note_off_c, 1, 74, 0
1, 13290, Note_on_c, 1, 57, 127
1, 13290, Note_on_c, 1, 76, 127
1, 13319, Note_off_c, 1, 42, 0
1, 13319, Note_off_c, 1, 57, 0
1, 13319, Note_off_c, 1, 76, 0
1, 13320, Note_on_c, 1, 54, 127
1, 13320, Note_on_c, 1, 69, 127
1, 13320, Note_on_c, 1, 49, 127
1, 13349, Note_off_c, 1, 54, 0
1, 13350, Note_on_c, 1, 57, 127
1, 13379, Note_off_c, 1, 69, 0
1, 13379, Note_off_c, 1, 49, 0
1, 13379, Note_off_c, 1, 57, 0
1, 13380, Note_on_c, 1, 59, 127
1, 13380, Note_on_c, 1, 54, 127
1, 13409, Note_off_c, 1, 59, 0
1, 13409, Note_off_c, 1, 54, 0
1, 13410, Note_on_c, 1, 61, 127
1, 13410, Note_on_c, 1, 52, 127
1, 13439, Note_off_c, 1, 61, 0
1, 13439, Note_off_c, 1, 52, 0
1, 13440, Note_on_c, 1, 62, 127
1, 13440, Note_on_c, 1, 54, 127
1, 13469, Note_off_c, 1, 62, 0
1, 13469, Note_off_c, 1, 54, 0
1, 13470, Note_on_c, 1, 64, 127
1, 13470, Note_on_c, 1, 69, 127
1, 13470, Note_on_c, 1, 52, 127
1, 13499, Note_off_c, 1, 64, 0
1, 13499, Note_off_c, 1, 69, 0
1, 13499, Note_off_c, 1, 52, 0
1, 13500, Note_on_c, 1, 66, 127
1, 13500, Note_on_c, 1, 71, 127
1, 13500, Note_on_c, 1, 50, 127
1, 13529, Note_off_c, 1, 71, 0
1, 13529, Note_off_c, 1, 50, 0
1, 13530, Note_on_c, 1, 73, 127
1, 13530, Note_on_c, 1, 49, 127
1, 13559, Note_off_c, 1, 73, 0
1, 13559, Note_off_c, 1, 49, 0
1, 13560, Note_on_c, 1, 74, 127
1, 13560, Note_on_c, 1, 47, 127
1, 13589, Note_off_c, 1, 66, 0
1, 13589, Note_off_c, 1, 74, 0
1, 13589, Note_off_c, 1, 47, 0
1, 13590, Note_on_c, 1, 62, 127
1, 13590, Note_on_c, 1, 78, 127
1, 13590, Note_on_c, 1, 45, 127
1, 13619, Note_off_c, 1, 62, 0
1, 13619, Note_off_c, 1, 78, 0
1, 13619, Note_off_c, 1, 45, 0
1, 13620, Note_on_c, 1, 64, 127
1, 13620, Note_on_c, 1, 80, 127
1, 13620, Note_on_c, 1, 44, 127
1, 13649, Note_off_c, 1, 64, 0
1, 13649, Note_off_c, 1, 80, 0
1, 13649, Note_off_c, 1, 44, 0
1, 13650, Note_on_c, 1, 66, 127
1, 13650, Note_on_c, 1, 81, 127
1, 13650, Note_on_c, 1, 42, 127
1, 13679, Note_off_c, 1, 66, 0
1, 13679, Note_off_c, 1, 81, 0
1, 13679, Note_off_c, 1, 42, 0
1, 13680, Note_on_c, 1, 56, 127
1, 13680, Note_on_c, 1, 83, 127
1, 13680, Note_on_c, 1, 40, 127
1, 13709, Note_off_c, 1, 56, 0
1, 13709, Note_off_c, 1, 83, 0
1, 13710, Note_on_c, 1, 57, 127
1, 13710, Note_on_c, 1, 81, 127
1, 13739, Note_off_c, 1, 40, 0
1, 13739, Note_off_c, 1, 57, 0
1, 13739, Note_off_c, 1, 81, 0
1, 13740, Note_on_c, 1, 59, 127
1, 13740, Note_on_c, 1, 80, 127
1, 13740, Note_on_c, 1, 52, 127
1, 13769, Note_off_c, 1, 59, 0
1, 13769, Note_off_c, 1, 80, 0
1, 13769, Note_off_c, 1, 52, 0
1, 13770, Note_on_c, 1, 56, 127
1, 13770, Note_on_c, 1, 81, 127
1, 13770, Note_on_c, 1, 50, 127
1, 13799, Note_off_c, 1, 56, 0
1, 13799, Note_off_c, 1, 81, 0
1, 13799, Note_off_c, 1, 50, 0
1, 13800, Note_on_c, 1, 52, 127
1, 13800, Note_on_c, 1, 83, 127
1, 13800, Note_on_c, 1, 49, 127
1, 13829, Note_off_c, 1, 52, 0
1, 13829, Note_off_c, 1, 83, 0
1, 13830, Note_on_c, 1, 56, 127
1, 13830, Note_on_c, 1, 80, 127
1, 13859, Note_off_c, 1, 49, 0
1, 13859, Note_off_c, 1, 56, 0
1, 13859, Note_off_c, 1, 80, 0
1, 13860, Note_on_c, 1, 59, 127
1, 13860, Note_on_c, 1, 76, 127
1, 13860, Note_on_c, 1, 47, 127
1, 13889, Note_off_c, 1, 59, 0
1, 13889, Note_off_c, 1, 76, 0
1, 13890, Note_on_c, 1, 62, 127
1, 13890, Note_on_c, 1, 80, 127
1, 13919, Note_off_c, 1, 47, 0
1, 13919, Note_off_c, 1, 62, 0
1, 13919, Note_off_c, 1, 80, 0
1, 13920, Note_on_c, 1, 61, 127
1, 13920, Note_on_c, 1, 81, 127
1, 13920, Note_on_c, 1, 45, 127
1, 13949, Note_off_c, 1, 61, 0
1, 13950, Note_on_c, 1, 62, 127
1, 13979, Note_off_c, 1, 45, 0
1, 13979, Note_off_c, 1, 62, 0
1, 13980, Note_on_c, 1, 64, 127
1, 13980, Note_on_c, 1, 50, 127
1, 14009, Note_off_c, 1, 81, 0
1, 14009, Note_off_c, 1, 64, 0
1, 14010, Note_on_c, 1, 66, 127
1, 14010, Note_on_c, 1, 83, 127
1, 14039, Note_off_c, 1, 50, 0
1, 14039, Note_off_c, 1, 66, 0
1, 14039, Note_off_c, 1, 83, 0
1, 14040, Note_on_c, 1, 59, 127
1, 14040, Note_on_c, 1, 80, 127
1, 14040, Note_on_c, 1, 52, 127
1, 14055, Note_off_c, 1, 59, 0
1, 14055, Note_off_c, 1, 80, 0
1, 14055, Note_on_c, 1, 61, 127
1, 14055, Note_on_c, 1, 81, 127
1, 14070, Note_off_c, 1, 61, 0
1, 14070, Note_off_c, 1, 81, 0
1, 14099, Note_off_c, 1, 52, 0
1, 14100, Note_on_c, 1, 40, 127
1, 14130, Note_on_c, 1, 57, 127
1, 14159, Note_off_c, 1, 40, 0
1, 14159, Note_off_c, 1, 57, 0
1, 14160, Note_on_c, 1, 57, 127
1, 14160, Note_on_c, 1, 81, 127
1, 14160, Note_on_c, 1, 45, 127
1, 14189, Note_off_c, 1, 81, 0
1, 14190, Note_on_c, 1, 76, 127
1, 14219, Note_off_c, 1, 45, 0
1, 14219, Note_off_c, 1, 76, 0
1, 14220, Note_on_c, 1, 73, 127
1, 14249, Note_off_c, 1, 73, 0
1, 14250, Note_on_c, 1, 69, 127
1, 14279, Note_off_c, 1, 69, 0
1, 14280, Note_on_c, 1, 79, 127
1, 14309, Note_off_c, 1, 57, 0
1, 14310, Note_on_c, 1, 64, 127
1, 14339, Note_off_c, 1, 64, 0
1, 14340, Note_on_c, 1, 61, 127
1, 14369, Note_off_c, 1, 61, 0
1, 14400, Note_on_c, 1, 62, 127
1, 14430, Note_off_c, 1, 79, 0
1, 14430, Note_on_c, 1, 67, 127
1, 14459, Note_off_c, 1, 62, 0
1, 14459, Note_off_c, 1, 67, 0
1, 14460, Note_on_c, 1, 66, 127
1, 14460, Note_on_c, 1, 73, 127
1, 14460, Note_on_c, 1, 50, 127
1, 14489, Note_off_c, 1, 66, 0
1, 14489, Note_off_c, 1, 73, 0
1, 14490, Note_on_c, 1, 64, 127
1, 14490, Note_on_c, 1, 69, 127
1, 14519, Note_off_c, 1, 64, 0
1, 14519, Note_off_c, 1, 69, 0
1, 14520, Note_on_c, 1, 62, 127
1, 14520, Note_on_c, 1, 78, 127
1, 14549, Note_off_c, 1, 50, 0
1, 14579, Note_off_c, 1, 62, 0
1, 14580, Note_on_c, 1, 59, 127
1, 14609, Note_off_c, 1, 59, 0
1, 14610, Note_on_c, 1, 56, 127
1, 14639, Note_off_c, 1, 56, 0
1, 14640, Note_on_c, 1, 61, 127
1, 14670, Note_off_c, 1, 78, 0
1, 14670, Note_on_c, 1, 74, 127
1, 14699, Note_off_c, 1, 61, 0
1, 14699, Note_off_c, 1, 74, 0
1, 14700, Note_on_c, 1, 56, 127
1, 14700, Note_on_c, 1, 71, 127
1, 14700, Note_on_c, 1, 49, 127
1, 14729, Note_off_c, 1, 56, 0
1, 14729, Note_off_c, 1, 71, 0
1, 14730, Note_on_c, 1, 59, 127
1, 14730, Note_on_c, 1, 68, 127
1, 14759, Note_off_c, 1, 59, 0
1, 14759, Note_off_c, 1, 68, 0
1, 14760, Note_on_c, 1, 76, 127
1, 14790, Note_on_c, 1, 61, 127
1, 14819, Note_off_c, 1, 49, 0
1, 14819, Note_off_c, 1, 61, 0
1, 14820, Note_on_c, 1, 57, 127
1, 14849, Note_off_c, 1, 57, 0
1, 14850, Note_on_c, 1, 54, 127
1, 14879, Note_off_c, 1, 54, 0
1, 14910, Note_off_c, 1, 76, 0
1, 14910, Note_on_c, 1, 64, 127
1, 14910, Note_on_c, 1, 73, 127
1, 14939, Note_off_c, 1, 64, 0
1, 14939, Note_off_c, 1, 73, 0
1, 14940, Note_on_c, 1, 61, 127
1, 14940, Note_on_c, 1, 69, 127
1, 14940, Note_on_c, 1, 47, 127
1, 14969, Note_off_c, 1, 61, 0
1, 14969, Note_off_c, 1, 69, 0
1, 14970, Note_on_c, 1, 57, 127
1, 14970, Note_on_c, 1, 66, 127
1, 14999, Note_off_c, 1, 57, 0
1, 14999, Note_off_c, 1, 66, 0
1, 15000, Note_on_c, 1, 54, 127
1, 15000, Note_on_c, 1, 74, 127
1, 15029, Note_off_c, 1, 47, 0
1, 15029, Note_off_c, 1, 54, 0
1, 15030, Note_on_c, 1, 62, 127
1, 15059, Note_off_c, 1, 62, 0
1, 15060, Note_on_c, 1, 59, 127
1, 15060, Note_on_c, 1, 50, 127
1, 15089, Note_off_c, 1, 59, 0
1, 15089, Note_off_c, 1, 50, 0
1, 15090, Note_on_c, 1, 56, 127
1, 15119, Note_off_c, 1, 56, 0
1, 15120, Note_on_c, 1, 52, 127
1, 15150, Note_off_c, 1, 74, 0
1, 15150, Note_on_c, 1, 71, 127
1, 15179, Note_off_c, 1, 71, 0
1, 15180, Note_on_c, 1, 68, 127
1, 15209, Note_off_c, 1, 68, 0
1, 15210, Note_on_c, 1, 64, 127
1, 15239, Note_off_c, 1, 52, 0
1, 15239, Note_off_c, 1, 64, 0
1, 15240, Note_on_c, 1, 76, 127
1, 15240, Note_on_c, 1, 56, 127
1, 15269, Note_off_c, 1, 76, 0
1, 15270, Note_on_c, 1, 52, 127
1, 15270, Note_on_c, 1, 74, 127
1, 15299, Note_off_c, 1, 56, 0
1, 15299, Note_off_c, 1, 52, 0
1, 15299, Note_off_c, 1, 74, 0
1, 15300, Note_on_c, 1, 54, 127
1, 15300, Note_on_c, 1, 72, 127
1, 15300, Note_on_c, 1, 52, 127
1, 15329, Note_off_c, 1, 54, 0
1, 15329, Note_off_c, 1, 72, 0
1, 15330, Note_on_c, 1, 56, 127
1, 15330, Note_on_c, 1, 71, 127
1, 15359, Note_off_c, 1, 52, 0
1, 15359, Note_off_c, 1, 56, 0
1, 15359, Note_off_c, 1, 71, 0
1, 15360, Note_on_c, 1, 57, 127
1, 15360, Note_on_c, 1, 72, 127
1, 15389, Note_off_c, 1, 72, 0
1, 15390, Note_on_c, 1, 59, 127
1, 15390, Note_on_c, 1, 74, 127
1, 15419, Note_off_c, 1, 59, 0
1, 15419, Note_off_c, 1, 74, 0
1, 15420, Note_on_c, 1, 60, 127
1, 15420, Note_on_c, 1, 76, 127
1, 15449, Note_off_c, 1, 57, 0
1, 15450, Note_on_c, 1, 52, 127
1, 15464, Note_off_c, 1, 52, 0
1, 15465, Note_on_c, 1, 50, 127
1, 15479, Note_off_c, 1, 50, 0
1, 15480, Note_on_c, 1, 48, 127
1, 15494, Note_off_c, 1, 48, 0
1, 15539, Note_off_c, 1, 60, 0
1, 15539, Note_off_c, 1, 76, 0
1, 15540, Note_on_c, 1, 59, 127
1, 15540, Note_on_c, 1, 74, 127
1, 15540, Note_on_c, 1, 45, 127
1, 15569, Note_off_c, 1, 59, 0
1, 15569, Note_off_c, 1, 74, 0
1, 15570, Note_on_c, 1, 57, 127
1, 15570, Note_on_c, 1, 72, 127
1, 15599, Note_off_c, 1, 45, 0
1, 15599, Note_off_c, 1, 57, 0
1, 15599, Note_off_c, 1, 72, 0
1, 15600, Note_on_c, 1, 56, 127
1, 15600, Note_on_c, 1, 71, 127
1, 15600, Note_on_c, 1, 52, 127
1, 15629, Note_off_c, 1, 56, 0
1, 15629, Note_off_c, 1, 71, 0
1, 15630, Note_on_c, 1, 57, 127
1, 15630, Note_on_c, 1, 72, 127
1, 15659, Note_off_c, 1, 57, 0
1, 15659, Note_off_c, 1, 72, 0
1, 15660, Note_on_c, 1, 59, 127
1, 15660, Note_on_c, 1, 74, 127
1, 15689, Note_off_c, 1, 52, 0
1, 15690, Note_on_c, 1, 47, 127
1, 15704, Note_off_c, 1, 47, 0
1, 15705, Note_on_c, 1, 45, 127
1, 15719, Note_off_c, 1, 45, 0
1, 15720, Note_on_c, 1, 44, 127
1, 15734, Note_off_c, 1, 44, 0
1, 15779, Note_off_c, 1, 59, 0
1, 15779, Note_off_c, 1, 74, 0
1, 15780, Note_on_c, 1, 57, 127
1, 15780, Note_on_c, 1, 73, 127
1, 15780, Note_on_c, 1, 40, 127
1, 15809, Note_off_c, 1, 57, 0
1, 15809, Note_off_c, 1, 73, 0
1, 15810, Note_on_c, 1, 56, 127
1, 15810, Note_on_c, 1, 71, 127
1, 15839, Note_off_c, 1, 40, 0
1, 15839, Note_off_c, 1, 56, 0
1, 15839, Note_off_c, 1, 71, 0
1, 15840, Note_on_c, 1, 64, 127
1, 15840, Note_on_c, 1, 74, 127
1, 15840, Note_on_c, 1, 45, 127
1, 15869, Note_off_c, 1, 74, 0
1, 15870, Note_on_c, 1, 73, 127
1, 15899, Note_off_c, 1, 64, 0
1, 15899, Note_off_c, 1, 45, 0
1, 15899, Note_off_c, 1, 73, 0
1, 15900, Note_on_c, 1, 62, 127
1, 15900, Note_on_c, 1, 71, 127
1, 15900, Note_on_c, 1, 50, 127
1, 15929, Note_off_c, 1, 62, 0
1, 15929, Note_off_c, 1, 71, 0
1, 15930, Note_on_c, 1, 61, 127
1, 15930, Note_on_c, 1, 69, 127
1, 15959, Note_off_c, 1, 50, 0
1, 15959, Note_off_c, 1, 61, 0
1, 15959, Note_off_c, 1, 69, 0
1, 15960, Note_on_c, 1, 62, 127
1, 15960, Note_on_c, 1, 64, 127
1, 15960, Note_on_c, 1, 52, 127
1, 15989, Note_off_c, 1, 62, 0
1, 15990, Note_on_c, 1, 61, 127
1, 16019, Note_off_c, 1, 64, 0
1, 16019, Note_off_c, 1, 52, 0
1, 16019, Note_off_c, 1, 61, 0
1, 16020, Note_on_c, 1, 59, 127
1, 16020, Note_on_c, 1, 62, 127
1, 16020, Note_on_c, 1, 68, 127
1, 16020, Note_on_c, 1, 40, 127
1, 16049, Note_off_c, 1, 59, 0
1, 16050, Note_on_c, 1, 61, 127
1, 16079, Note_off_c, 1, 62, 0
1, 16079, Note_off_c, 1, 68, 0
1, 16079, Note_off_c, 1, 40, 0
1, 16079, Note_off_c, 1, 61, 0
1, 16080, Note_on_c, 1, 57, 127
1, 16080, Note_on_c, 1, 69, 127
1, 16080, Note_on_c, 1, 61, 127
1, 16080, Note_on_c, 1, 64, 127
1, 16080, Note_on_c, 1, 45, 127
1, 16109, Note_off_c, 1, 45, 0
1, 16110, Note_on_c, 1, 52, 127
1, 16139, Note_off_c, 1, 52, 0
1, 16140, Note_on_c, 1, 54, 127
1, 16169, Note_off_c, 1, 54, 0
1, 16170, Note_on_c, 1, 55, 127
1, 16199, Note_off_c, 1, 55, 0
1, 16230, Note_on_c, 1, 59, 127
1, 16259, Note_off_c, 1, 59, 0
1, 16319, Note_off_c, 1, 57, 0
1, 16319, Note_off_c, 1, 69, 0
1, 16319, Note_off_c, 1, 61, 0
1, 16319, Note_off_c, 1, 64, 0
1, 16320, Note_on_c, 1, 62, 127
1, 16320, Note_on_c, 1, 78, 127
1, 16349, Note_off_c, 1, 78, 0
1, 16350, Note_on_c, 1, 64, 127
1, 16350, Note_on_c, 1, 79, 127
1, 16379, Note_off_c, 1, 64, 0
1, 16379, Note_off_c, 1, 79, 0
1, 16380, Note_on_c, 1, 66, 127
1, 16380, Note_on_c, 1, 81, 127
1, 16409, Note_off_c, 1, 62, 0
1, 16410, Note_on_c, 1, 57, 127
1, 16424, Note_off_c, 1, 57, 0
1, 16425, Note_on_c, 1, 55, 127
1, 16439, Note_off_c, 1, 55, 0
1, 16440, Note_on_c, 1, 54, 127
1, 16454, Note_off_c, 1, 54, 0
1, 16499, Note_off_c, 1, 66, 0
1, 16499, Note_off_c, 1, 81, 0
1, 16500, Note_on_c, 1, 64, 127
1, 16500, Note_on_c, 1, 79, 127
1, 16500, Note_on_c, 1, 50, 127
1, 16529, Note_off_c, 1, 64, 0
1, 16529, Note_off_c, 1, 79, 0
1, 16530, Note_on_c, 1, 62, 127
1, 16530, Note_on_c, 1, 78, 127
1, 16559, Note_off_c, 1, 50, 0
1, 16559, Note_off_c, 1, 62, 0
1, 16559, Note_off_c, 1, 78, 0
1, 16560, Note_on_c, 1, 61, 127
1, 16560, Note_on_c, 1, 76, 127
1, 16560, Note_on_c, 1, 57, 127
1, 16589, Note_off_c, 1, 61, 0
1, 16589, Note_off_c, 1, 76, 0
1, 16590, Note_on_c, 1, 62, 127
1, 16590, Note_on_c, 1, 78, 127
1, 16619, Note_off_c, 1, 62, 0
1, 16619, Note_off_c, 1, 78, 0
1, 16620, Note_on_c, 1, 64, 127
1, 16620, Note_on_c, 1, 79, 127
1, 16649, Note_off_c, 1, 57, 0
1, 16650, Note_on_c, 1, 52, 127
1, 16664, Note_off_c, 1, 52, 0
1, 16665, Note_on_c, 1, 50, 127
1, 16679, Note_off_c, 1, 50, 0
1, 16680, Note_on_c, 1, 49, 127
1, 16694, Note_off_c, 1, 49, 0
1, 16739, Note_off_c, 1, 64, 0
1, 16739, Note_off_c, 1, 79, 0
1, 16740, Note_on_c, 1, 62, 127
1, 16740, Note_on_c, 1, 78, 127
1, 16740, Note_on_c, 1, 45, 127
1, 16769, Note_off_c, 1, 62, 0
1, 16769, Note_off_c, 1, 78, 0
1, 16770, Note_on_c, 1, 61, 127
1, 16770, Note_on_c, 1, 76, 127
1, 16799, Note_off_c, 1, 45, 0
1, 16799, Note_off_c, 1, 61, 0
1, 16799, Note_off_c, 1, 76, 0
1, 16800, Note_on_c, 1, 62, 127
1, 16800, Note_on_c, 1, 78, 127
1, 16800, Note_on_c, 1, 50, 127
1, 16829, Note_off_c, 1, 62, 0
1, 16830, Note_on_c, 1, 57, 127
1, 16859, Note_off_c, 1, 78, 0
1, 16859, Note_off_c, 1, 57, 0
1, 16860, Note_on_c, 1, 66, 127
1, 16860, Note_on_c, 1, 74, 127
1, 16889, Note_off_c, 1, 66, 0
1, 16919, Note_off_c, 1, 50, 0
1, 16919, Note_off_c, 1, 74, 0
1, 16920, Note_on_c, 1, 64, 127
1, 16920, Note_on_c, 1, 73, 127
1, 16935, Note_off_c, 1, 73, 0
1, 16935, Note_on_c, 1, 74, 127
1, 16949, Note_off_c, 1, 64, 0
1, 16950, Note_off_c, 1, 74, 0
1, 16950, Note_on_c, 1, 57, 127
1, 16979, Note_off_c, 1, 57, 0
1, 16980, Note_on_c, 1, 62, 127
1, 16980, Note_on_c, 1, 74, 127
1, 16980, Note_on_c, 1, 38, 127
1, 17009, Note_off_c, 1, 62, 0
1, 17010, Note_on_c, 1, 57, 127
1, 17039, Note_off_c, 1, 74, 0
1, 17039, Note_off_c, 1, 38, 0
1, 17039, Note_off_c, 1, 57, 0
1, 17040, Note_on_c, 1, 61, 127
1, 17040, Note_on_c, 1, 76, 127
1, 17040, Note_on_c, 1, 45, 127
1, 17069, Note_off_c, 1, 76, 0
1, 17070, Note_on_c, 1, 74, 127
1, 17099, Note_off_c, 1, 61, 0
1, 17099, Note_off_c, 1, 45, 0
1, 17099, Note_off_c, 1, 74, 0
1, 17100, Note_on_c, 1, 57, 127
1, 17100, Note_on_c, 1, 73, 127
1, 17129, Note_off_c, 1, 73, 0
1, 17130, Note_on_c, 1, 71, 127
1, 17130, Note_on_c, 1, 55, 127
1, 17159, Note_off_c, 1, 57, 0
1, 17159, Note_off_c, 1, 71, 0
1, 17159, Note_off_c, 1, 55, 0
1, 17160, Note_on_c, 1, 61, 127
1, 17160, Note_on_c, 1, 69, 127
1, 17160, Note_on_c, 1, 54, 127
1, 17189, Note_off_c, 1, 69, 0
1, 17189, Note_off_c, 1, 54, 0
1, 17190, Note_on_c, 1, 67, 127
1, 17190, Note_on_c, 1, 52, 127
1, 17219, Note_off_c, 1, 61, 0
1, 17219, Note_off_c, 1, 67, 0
1, 17219, Note_off_c, 1, 52, 0
1, 17220, Note_on_c, 1, 64, 127
1, 17220, Note_on_c, 1, 66, 127
1, 17220, Note_on_c, 1, 50, 127
1, 17249, Note_off_c, 1, 66, 0
1, 17249, Note_off_c, 1, 50, 0
1, 17250, Note_on_c, 1, 49, 127
1, 17279, Note_off_c, 1, 64, 0
1, 17279, Note_off_c, 1, 49, 0
1, 17280, Note_on_c, 1, 66, 127
1, 17280, Note_on_c, 1, 62, 127
1, 17280, Note_on_c, 1, 50, 127
1, 17309, Note_off_c, 1, 66, 0
1, 17309, Note_off_c, 1, 62, 0
1, 17310, Note_on_c, 1, 67, 127
1, 17310, Note_on_c, 1, 64, 127
1, 17339, Note_off_c, 1, 50, 0
1, 17339, Note_off_c, 1, 67, 0
1, 17339, Note_off_c, 1, 64, 0
1, 17340, Note_on_c, 1, 69, 127
1, 17340, Note_on_c, 1, 66, 127
1, 17340, Note_on_c, 1, 38, 127
1, 17369, Note_off_c, 1, 66, 0
1, 17369, Note_off_c, 1, 38, 0
1, 17370, Note_on_c, 1, 64, 127
1, 17370, Note_on_c, 1, 40, 127
1, 17399, Note_off_c, 1, 64, 0
1, 17399, Note_off_c, 1, 40, 0
1, 17400, Note_on_c, 1, 62, 127
1, 17400, Note_on_c, 1, 42, 127
1, 17429, Note_off_c, 1, 62, 0
1, 17459, Note_off_c, 1, 69, 0
1, 17459, Note_off_c, 1, 42, 0
1, 17460, Note_on_c, 1, 67, 127
1, 17460, Note_on_c, 1, 69, 127
1, 17460, Note_on_c, 1, 38, 127
1, 17489, Note_off_c, 1, 67, 0
1, 17489, Note_off_c, 1, 69, 0
1, 17490, Note_on_c, 1, 66, 127
1, 17490, Note_on_c, 1, 74, 127
1, 17519, Note_off_c, 1, 38, 0
1, 17519, Note_off_c, 1, 66, 0
1, 17519, Note_off_c, 1, 74, 0
1, 17520, Note_on_c, 1, 64, 127
1, 17520, Note_on_c, 1, 73, 127
1, 17520, Note_on_c, 1, 45, 127
1, 17549, Note_off_c, 1, 64, 0
1, 17549, Note_off_c, 1, 73, 0
1, 17550, Note_on_c, 1, 66, 127
1, 17550, Note_on_c, 1, 74, 127
1, 17579, Note_off_c, 1, 45, 0
1, 17579, Note_off_c, 1, 66, 0
1, 17579, Note_off_c, 1, 74, 0
1, 17580, Note_on_c, 1, 67, 127
1, 17580, Note_on_c, 1, 76, 127
1, 17580, Note_on_c, 1, 49, 127
1, 17609, Note_off_c, 1, 76, 0
1, 17609, Note_off_c, 1, 49, 0
1, 17610, Note_on_c, 1, 74, 127
1, 17610, Note_on_c, 1, 47, 127
1, 17639, Note_off_c, 1, 74, 0
1, 17639, Note_off_c, 1, 47, 0
1, 17640, Note_on_c, 1, 73, 127
1, 17640, Note_on_c, 1, 45, 127
1, 17669, Note_off_c, 1, 73, 0
1, 17699, Note_off_c, 1, 67, 0
1, 17699, Note_off_c, 1, 45, 0
1, 17700, Note_on_c, 1, 66, 127
1, 17700, Note_on_c, 1, 69, 127
1, 17700, Note_on_c, 1, 57, 127
1, 17729, Note_off_c, 1, 66, 0
1, 17729, Note_off_c, 1, 69, 0
1, 17730, Note_on_c, 1, 64, 127
1, 17730, Note_on_c, 1, 73, 127
1, 17759, Note_off_c, 1, 57, 0
1, 17759, Note_off_c, 1, 64, 0
1, 17759, Note_off_c, 1, 73, 0
1, 17760, Note_on_c, 1, 66, 127
1, 17760, Note_on_c, 1, 74, 127
1, 17760, Note_on_c, 1, 50, 127
1, 17789, Note_off_c, 1, 74, 0
1, 17790, Note_on_c, 1, 69, 127
1, 17819, Note_off_c, 1, 66, 0
1, 17819, Note_off_c, 1, 69, 0
1, 17820, Note_on_c, 1, 62, 127
1, 17820, Note_on_c, 1, 78, 127
1, 17849, Note_off_c, 1, 78, 0
1, 17879, Note_off_c, 1, 50, 0
1, 17879, Note_off_c, 1, 62, 0
1, 17880, Note_on_c, 1, 61, 127
1, 17880, Note_on_c, 1, 76, 127
1, 17895, Note_off_c, 1, 61, 0
1, 17895, Note_on_c, 1, 62, 127
1, 17909, Note_off_c, 1, 76, 0
1, 17910, Note_off_c, 1, 62, 0
1, 17910, Note_on_c, 1, 69, 127
1, 17910, Note_on_c, 1, 52, 127
1, 17939, Note_off_c, 1, 69, 0
1, 17939, Note_off_c, 1, 52, 0
1, 17940, Note_on_c, 1, 62, 127
1, 17940, Note_on_c, 1, 74, 127
1, 17940, Note_on_c, 1, 54, 127
1, 17969, Note_off_c, 1, 74, 0
1, 17969, Note_off_c, 1, 54, 0
1, 17970, Note_on_c, 1, 69, 127
1, 17970, Note_on_c, 1, 50, 127
1, 17999, Note_off_c, 1, 62, 0
1, 17999, Note_off_c, 1, 69, 0
1, 17999, Note_off_c, 1, 50, 0
1, 18000, Note_on_c, 1, 64, 127
1, 18000, Note_on_c, 1, 73, 127
1, 18000, Note_on_c, 1, 57, 127
1, 18029, Note_off_c, 1, 64, 0
1, 18029, Note_off_c, 1, 73, 0
1, 18030, Note_on_c, 1, 62, 127
1, 18030, Note_on_c, 1, 74, 127
1, 18059, Note_off_c, 1, 57, 0
1, 18059, Note_off_c, 1, 62, 0
1, 18059, Note_off_c, 1, 74, 0
1, 18060, Note_on_c, 1, 61, 127
1, 18060, Note_on_c, 1, 76, 127
1, 18060, Note_on_c, 1, 45, 127
1, 18089, Note_off_c, 1, 61, 0
1, 18089, Note_off_c, 1, 76, 0
1, 18090, Note_on_c, 1, 59, 127
1, 18090, Note_on_c, 1, 74, 127
1, 18119, Note_off_c, 1, 45, 0
1, 18119, Note_off_c, 1, 59, 0
1, 18119, Note_off_c, 1, 74, 0
1, 18120, Note_on_c, 1, 57, 127
1, 18120, Note_on_c, 1, 73, 127
1, 18149, Note_off_c, 1, 57, 0
1, 18149, Note_off_c, 1, 73, 0
1, 18150, Note_on_c, 1, 55, 127
1, 18150, Note_on_c, 1, 71, 127
1, 18150, Note_on_c, 1, 45, 127
1, 18179, Note_off_c, 1, 55, 0
1, 18179, Note_off_c, 1, 71, 0
1, 18179, Note_off_c, 1, 45, 0
1, 18180, Note_on_c, 1, 54, 127
1, 18180, Note_on_c, 1, 69, 127
1, 18180, Note_on_c, 1, 47, 127
1, 18209, Note_off_c, 1, 54, 0
1, 18209, Note_off_c, 1, 69, 0
1, 18209, Note_off_c, 1, 47, 0
1, 18210, Note_on_c, 1, 52, 127
1, 18210, Note_on_c, 1, 67, 127
1, 18210, Note_on_c, 1, 49, 127
1, 18239, Note_off_c, 1, 52, 0
1, 18239, Note_off_c, 1, 67, 0
1, 18239, Note_off_c, 1, 49, 0
1, 18240, Note_on_c, 1, 50, 127
1, 18240, Note_on_c, 1, 66, 127
1, 18269, Note_off_c, 1, 66, 0
1, 18270, Note_on_c, 1, 67, 127
1, 18270, Note_on_c, 1, 52, 127
1, 18299, Note_off_c, 1, 50, 0
1, 18299, Note_off_c, 1, 67, 0
1, 18299, Note_off_c, 1, 52, 0
1, 18300, Note_on_c, 1, 62, 127
1, 18300, Note_on_c, 1, 69, 127
1, 18300, Note_on_c, 1, 54, 127
1, 18329, Note_off_c, 1, 62, 0
1, 18329, Note_off_c, 1, 69, 0
1, 18330, Note_on_c, 1, 61, 127
1, 18330, Note_on_c, 1, 66, 127
1, 18359, Note_off_c, 1, 61, 0
1, 18359, Note_off_c, 1, 66, 0
1, 18419, Note_off_c, 1, 54, 0
1, 18420, Note_on_c, 1, 52, 127
1, 18449, Note_off_c, 1, 52, 0
1, 18450, Note_on_c, 1, 72, 127
1, 18450, Note_on_c, 1, 50, 127
1, 18479, Note_off_c, 1, 72, 0
1, 18479, Note_off_c, 1, 50, 0
1, 18480, Note_on_c, 1, 71, 127
1, 18480, Note_on_c, 1, 55, 127
1, 18509, Note_off_c, 1, 71, 0
1, 18509, Note_off_c, 1, 55, 0
1, 18510, Note_on_c, 1, 60, 127
1, 18510, Note_on_c, 1, 72, 127
1, 18510, Note_on_c, 1, 57, 127
1, 18539, Note_off_c, 1, 60, 0
1, 18539, Note_off_c, 1, 72, 0
1, 18539, Note_off_c, 1, 57, 0
1, 18540, Note_on_c, 1, 59, 127
1, 18540, Note_on_c, 1, 74, 127
1, 18569, Note_off_c, 1, 74, 0
1, 18570, Note_on_c, 1, 62, 127
1, 18570, Note_on_c, 1, 71, 127
1, 18599, Note_off_c, 1, 62, 0
1, 18599, Note_off_c, 1, 71, 0
1, 18600, Note_on_c, 1, 67, 127
1, 18629, Note_off_c, 1, 59, 0
1, 18630, Note_on_c, 1, 57, 127
1, 18659, Note_off_c, 1, 67, 0
1, 18659, Note_off_c, 1, 57, 0
1, 18660, Note_on_c, 1, 59, 127
1, 18660, Note_on_c, 1, 62, 127
1, 18660, Note_on_c, 1, 55, 127
1, 18689, Note_off_c, 1, 59, 0
1, 18689, Note_off_c, 1, 55, 0
1, 18690, Note_on_c, 1, 54, 127
1, 18719, Note_off_c, 1, 62, 0
1, 18719, Note_off_c, 1, 54, 0
1, 18720, Note_on_c, 1, 59, 127
1, 18720, Note_on_c, 1, 67, 127
1, 18720, Note_on_c, 1, 52, 127
1, 18749, Note_off_c, 1, 67, 0
1, 18749, Note_off_c, 1, 52, 0
1, 18750, Note_on_c, 1, 69, 127
1, 18750, Note_on_c, 1, 54, 127
1, 18779, Note_off_c, 1, 59, 0
1, 18779, Note_off_c, 1, 69, 0
1, 18779, Note_off_c, 1, 54, 0
1, 18780, Note_on_c, 1, 64, 127
1, 18780, Note_on_c, 1, 71, 127
1, 18780, Note_on_c, 1, 55, 127
1, 18809, Note_off_c, 1, 64, 0
1, 18809, Note_off_c, 1, 71, 0
1, 18810, Note_on_c, 1, 63, 127
1, 18810, Note_on_c, 1, 67, 127
1, 18839, Note_off_c, 1, 63, 0
1, 18839, Note_off_c, 1, 67, 0
1, 18899, Note_off_c, 1, 55, 0
1, 18900, Note_on_c, 1, 54, 127
1, 18929, Note_off_c, 1, 54, 0
1, 18930, Note_on_c, 1, 74, 127
1, 18930, Note_on_c, 1, 52, 127
1, 18959, Note_off_c, 1, 74, 0
1, 18959, Note_off_c, 1, 52, 0
1, 18960, Note_on_c, 1, 73, 127
1, 18960, Note_on_c, 1, 57, 127
1, 18989, Note_off_c, 1, 73, 0
1, 18989, Note_off_c, 1, 57, 0
1, 18990, Note_on_c, 1, 62, 127
1, 18990, Note_on_c, 1, 74, 127
1, 18990, Note_on_c, 1, 59, 127
1, 19019, Note_off_c, 1, 62, 0
1, 19019, Note_off_c, 1, 74, 0
1, 19019, Note_off_c, 1, 59, 0
1, 19020, Note_on_c, 1, 61, 127
1, 19020, Note_on_c, 1, 76, 127
1, 19049, Note_off_c, 1, 76, 0
1, 19050, Note_on_c, 1, 64, 127
1, 19050, Note_on_c, 1, 73, 127
1, 19079, Note_off_c, 1, 64, 0
1, 19079, Note_off_c, 1, 73, 0
1, 19080, Note_on_c, 1, 69, 127
1, 19109, Note_off_c, 1, 61, 0
1, 19110, Note_on_c, 1, 59, 127
1, 19139, Note_off_c, 1, 69, 0
1, 19139, Note_off_c, 1, 59, 0
1, 19140, Note_on_c, 1, 61, 127
1, 19140, Note_on_c, 1, 76, 127
1, 19140, Note_on_c, 1, 57, 127
1, 19169, Note_off_c, 1, 61, 0
1, 19169, Note_off_c, 1, 57, 0
1, 19170, Note_on_c, 1, 64, 127
1, 19170, Note_on_c, 1, 55, 127
1, 19199, Note_off_c, 1, 76, 0
1, 19199, Note_off_c, 1, 64, 0
1, 19199, Note_off_c, 1, 55, 0
1, 19200, Note_on_c, 1, 66, 127
1, 19200, Note_on_c, 1, 81, 127
1, 19200, Note_on_c, 1, 54, 127
1, 19229, Note_off_c, 1, 54, 0
1, 19230, Note_on_c, 1, 55, 127
1, 19259, Note_off_c, 1, 66, 0
1, 19259, Note_off_c, 1, 81, 0
1, 19259, Note_off_c, 1, 55, 0
1, 19260, Note_on_c, 1, 66, 127
1, 19260, Note_on_c, 1, 73, 127
1, 19260, Note_on_c, 1, 81, 127
1, 19260, Note_on_c, 1, 57, 127
1, 19289, Note_off_c, 1, 57, 0
1, 19290, Note_on_c, 1, 54, 127
1, 19319, Note_off_c, 1, 54, 0
1, 19320, Note_off_c, 1, 73, 0
1, 19320, Note_on_c, 1, 71, 127
1, 19320, Note_on_c, 1, 51, 127
1, 19349, Note_off_c, 1, 51, 0
1, 19379, Note_off_c, 1, 66, 0
1, 19379, Note_off_c, 1, 81, 0
1, 19380, Note_on_c, 1, 64, 127
1, 19380, Note_on_c, 1, 79, 127
1, 19380, Note_on_c, 1, 47, 127
1, 19409, Note_off_c, 1, 64, 0
1, 19409, Note_off_c, 1, 79, 0
1, 19409, Note_off_c, 1, 47, 0
1, 19410, Note_on_c, 1, 63, 127
1, 19410, Note_on_c, 1, 78, 127
1, 19410, Note_on_c, 1, 59, 127
1, 19439, Note_off_c, 1, 63, 0
1, 19439, Note_off_c, 1, 78, 0
1, 19439, Note_off_c, 1, 59, 0
1, 19440, Note_on_c, 1, 52, 127
1, 19469, Note_off_c, 1, 52, 0
1, 19500, Note_on_c, 1, 55, 127
1, 19529, Note_off_c, 1, 55, 0
1, 19560, Note_off_c, 1, 71, 0
1, 19560, Note_on_c, 1, 69, 127
1, 19560, Note_on_c, 1, 49, 127
1, 19589, Note_off_c, 1, 49, 0
1, 19620, Note_on_c, 1, 62, 127
1, 19620, Note_on_c, 1, 45, 127
1, 19649, Note_off_c, 1, 62, 0
1, 19649, Note_off_c, 1, 45, 0
1, 19650, Note_on_c, 1, 61, 127
1, 19650, Note_on_c, 1, 76, 127
1, 19679, Note_off_c, 1, 61, 0
1, 19679, Note_off_c, 1, 76, 0
1, 19680, Note_on_c, 1, 50, 127
1, 19709, Note_off_c, 1, 50, 0
1, 19770, Note_on_c, 1, 74, 127
1, 19800, Note_off_c, 1, 69, 0
1, 19800, Note_off_c, 1, 74, 0
1, 20040, Note_on_c, 1, 50, 127
1, 20040, Note_on_c, 1, 54, 127
1, 20069, Note_off_c, 1, 50, 0
1, 20099, Note_off_c, 1, 54, 0
1, 20100, Note_on_c, 1, 55, 127
1, 20100, Note_on_c, 1, 52, 127
1, 20129, Note_off_c, 1, 55, 0
1, 20130, Note_on_c, 1, 57, 127
1, 20159, Note_off_c, 1, 52, 0
1, 20159, Note_off_c, 1, 57, 0
1, 20160, Note_on_c, 1, 59, 127
1, 20160, Note_on_c, 1, 50, 127
1, 20189, Note_off_c, 1, 59, 0
1, 20190, Note_on_c, 1, 61, 127
1, 20190, Note_on_c, 1, 66, 127
1, 20219, Note_off_c, 1, 50, 0
1, 20219, Note_off_c, 1, 61, 0
1, 20219, Note_off_c, 1, 66, 0
1, 20220, Note_on_c, 1, 62, 127
1, 20220, Note_on_c, 1, 68, 127
1, 20249, Note_off_c, 1, 68, 0
1, 20250, Note_on_c, 1, 70, 127
1, 20250, Note_on_c, 1, 61, 127
1, 20279, Note_off_c, 1, 70, 0
1, 20279, Note_off_c, 1, 61, 0
1, 20280, Note_on_c, 1, 71, 127
1, 20280, Note_on_c, 1, 59, 127
1, 20309, Note_off_c, 1, 62, 0
1, 20309, Note_off_c, 1, 71, 0
1, 20309, Note_off_c, 1, 59, 0
1, 20310, Note_on_c, 1, 61, 127
1, 20310, Note_on_c, 1, 73, 127
1, 20310, Note_on_c, 1, 57, 127
1, 20339, Note_off_c, 1, 61, 0
1, 20339, Note_off_c, 1, 73, 0
1, 20339, Note_off_c, 1, 57, 0
1, 20340, Note_on_c, 1, 59, 127
1, 20340, Note_on_c, 1, 74, 127
1, 20340, Note_on_c, 1, 56, 127
1, 20369, Note_off_c, 1, 59, 0
1, 20369, Note_off_c, 1, 56, 0
1, 20370, Note_on_c, 1, 57, 127
1, 20370, Note_on_c, 1, 54, 127
1, 20399, Note_off_c, 1, 57, 0
1, 20399, Note_off_c, 1, 54, 0
1, 20400, Note_on_c, 1, 52, 127
1, 20429, Note_off_c, 1, 74, 0
1, 20430, Note_on_c, 1, 73, 127
1, 20459, Note_off_c, 1, 52, 0
1, 20459, Note_off_c, 1, 73, 0
1, 20460, Note_on_c, 1, 59, 127
1, 20460, Note_on_c, 1, 71, 127
1, 20460, Note_on_c, 1, 40, 127
1, 20474, Note_off_c, 1, 71, 0
1, 20475, Note_on_c, 1, 73, 127
1, 20489, Note_off_c, 1, 59, 0
1, 20489, Note_off_c, 1, 73, 0
1, 20490, Note_on_c, 1, 56, 127
1, 20490, Note_on_c, 1, 74, 127
1, 20519, Note_off_c, 1, 40, 0
1, 20519, Note_off_c, 1, 56, 0
1, 20519, Note_off_c, 1, 74, 0
1, 20520, Note_on_c, 1, 52, 127
1, 20520, Note_on_c, 1, 68, 127
1, 20520, Note_on_c, 1, 47, 127
1, 20549, Note_off_c, 1, 52, 0
1, 20550, Note_on_c, 1, 56, 127
1, 20579, Note_off_c, 1, 68, 0
1, 20579, Note_off_c, 1, 47, 0
1, 20579, Note_off_c, 1, 56, 0
1, 20580, Note_on_c, 1, 57, 127
1, 20580, Note_on_c, 1, 52, 127
1, 20609, Note_off_c, 1, 57, 0
1, 20609, Note_off_c, 1, 52, 0
1, 20610, Note_on_c, 1, 59, 127
1, 20610, Note_on_c, 1, 50, 127
1, 20639, Note_off_c, 1, 59, 0
1, 20639, Note_off_c, 1, 50, 0
1, 20640, Note_on_c, 1, 61, 127
1, 20640, Note_on_c, 1, 52, 127
1, 20669, Note_off_c, 1, 61, 0
1, 20670, Note_on_c, 1, 62, 127
1, 20670, Note_on_c, 1, 68, 127
1, 20699, Note_off_c, 1, 52, 0
1, 20699, Note_off_c, 1, 62, 0
1, 20699, Note_off_c, 1, 68, 0
1, 20700, Note_on_c, 1, 64, 127
1, 20700, Note_on_c, 1, 69, 127
1, 20729, Note_off_c, 1, 69, 0
1, 20730, Note_on_c, 1, 71, 127
1, 20730, Note_on_c, 1, 62, 127
1, 20759, Note_off_c, 1, 71, 0
1, 20759, Note_off_c, 1, 62, 0
1, 20760, Note_on_c, 1, 73, 127
1, 20760, Note_on_c, 1, 61, 127
1, 20789, Note_off_c, 1, 64, 0
1, 20789, Note_off_c, 1, 73, 0
1, 20789, Note_off_c, 1, 61, 0
1, 20790, Note_on_c, 1, 62, 127
1, 20790, Note_on_c, 1, 74, 127
1, 20790, Note_on_c, 1, 59, 127
1, 20819, Note_off_c, 1, 62, 0
1, 20819, Note_off_c, 1, 74, 0
1, 20819, Note_off_c, 1, 59, 0
1, 20820, Note_on_c, 1, 61, 127
1, 20820, Note_on_c, 1, 76, 127
1, 20820, Note_on_c, 1, 57, 127
1, 20849, Note_off_c, 1, 61, 0
1, 20849, Note_off_c, 1, 57, 0
1, 20850, Note_on_c, 1, 59, 127
1, 20850, Note_on_c, 1, 56, 127
1, 20879, Note_off_c, 1, 59, 0
1, 20879, Note_off_c, 1, 56, 0
1, 20880, Note_on_c, 1, 54, 127
1, 20909, Note_off_c, 1, 76, 0
1, 20910, Note_on_c, 1, 74, 127
1, 20939, Note_off_c, 1, 54, 0
1, 20939, Note_off_c, 1, 74, 0
1, 20940, Note_on_c, 1, 61, 127
1, 20940, Note_on_c, 1, 73, 127
1, 20940, Note_on_c, 1, 42, 127
1, 20954, Note_off_c, 1, 73, 0
1, 20955, Note_on_c, 1, 74, 127
1, 20969, Note_off_c, 1, 61, 0
1, 20969, Note_off_c, 1, 74, 0
1, 20970, Note_on_c, 1, 57, 127
1, 20970, Note_on_c, 1, 76, 127
1, 20999, Note_off_c, 1, 42, 0
1, 20999, Note_off_c, 1, 57, 0
1, 20999, Note_off_c, 1, 76, 0
1, 21000, Note_on_c, 1, 54, 127
1, 21000, Note_on_c, 1, 69, 127
1, 21000, Note_on_c, 1, 49, 127
1, 21029, Note_off_c, 1, 54, 0
1, 21030, Note_on_c, 1, 57, 127
1, 21059, Note_off_c, 1, 69, 0
1, 21059, Note_off_c, 1, 49, 0
1, 21059, Note_off_c, 1, 57, 0
1, 21060, Note_on_c, 1, 59, 127
1, 21060, Note_on_c, 1, 54, 127
1, 21089, Note_off_c, 1, 59, 0
1, 21089, Note_off_c, 1, 54, 0
1, 21090, Note_on_c, 1, 61, 127
1, 21090, Note_on_c, 1, 52, 127
1, 21119, Note_off_c, 1, 61, 0
1, 21119, Note_off_c, 1, 52, 0
1, 21120, Note_on_c, 1, 62, 127
1, 21120, Note_on_c, 1, 54, 127
1, 21149, Note_off_c, 1, 62, 0
1, 21149, Note_off_c, 1, 54, 0
1, 21150, Note_on_c, 1, 64, 127
1, 21150, Note_on_c, 1, 69, 127
1, 21150, Note_on_c, 1, 52, 127
1, 21179, Note_off_c, 1, 64, 0
1, 21179, Note_off_c, 1, 69, 0
1, 21179, Note_off_c, 1, 52, 0
1, 21180, Note_on_c, 1, 66, 127
1, 21180, Note_on_c, 1, 71, 127
1, 21180, Note_on_c, 1, 50, 127
1, 21209, Note_off_c, 1, 71, 0
1, 21209, Note_off_c, 1, 50, 0
1, 21210, Note_on_c, 1, 73, 127
1, 21210, Note_on_c, 1, 49, 127
1, 21239, Note_off_c, 1, 73, 0
1, 21239, Note_off_c, 1, 49, 0
1, 21240, Note_on_c, 1, 74, 127
1, 21240, Note_on_c, 1, 47, 127
1, 21269, Note_off_c, 1, 66, 0
1, 21269, Note_off_c, 1, 74, 0
1, 21269, Note_off_c, 1, 47, 0
1, 21270, Note_on_c, 1, 62, 127
1, 21270, Note_on_c, 1, 78, 127
1, 21270, Note_on_c, 1, 45, 127
1, 21299, Note_off_c, 1, 62, 0
1, 21299, Note_off_c, 1, 78, 0
1, 21299, Note_off_c, 1, 45, 0
1, 21300, Note_on_c, 1, 64, 127
1, 21300, Note_on_c, 1, 80, 127
1, 21300, Note_on_c, 1, 44, 127
1, 21329, Note_off_c, 1, 64, 0
1, 21329, Note_off_c, 1, 80, 0
1, 21329, Note_off_c, 1, 44, 0
1, 21330, Note_on_c, 1, 66, 127
1, 21330, Note_on_c, 1, 81, 127
1, 21330, Note_on_c, 1, 42, 127
1, 21359, Note_off_c, 1, 66, 0
1, 21359, Note_off_c, 1, 81, 0
1, 21359, Note_off_c, 1, 42, 0
1, 21360, Note_on_c, 1, 56, 127
1, 21360, Note_on_c, 1, 83, 127
1, 21360, Note_on_c, 1, 40, 127
1, 21389, Note_off_c, 1, 56, 0
1, 21389, Note_off_c, 1, 83, 0
1, 21390, Note_on_c, 1, 57, 127
1, 21390, Note_on_c, 1, 81, 127
1, 21419, Note_off_c, 1, 40, 0
1, 21419, Note_off_c, 1, 57, 0
1, 21419, Note_off_c, 1, 81, 0
1, 21420, Note_on_c, 1, 59, 127
1, 21420, Note_on_c, 1, 80, 127
1, 21420, Note_on_c, 1, 52, 127
1, 21449, Note_off_c, 1, 59, 0
1, 21449, Note_off_c, 1, 80, 0
1, 21449, Note_off_c, 1, 52, 0
1, 21450, Note_on_c, 1, 56, 127
1, 21450, Note_on_c, 1, 81, 127
1, 21450, Note_on_c, 1, 50, 127
1, 21479, Note_off_c, 1, 56, 0
1, 21479, Note_off_c, 1, 81, 0
1, 21479, Note_off_c, 1, 50, 0
1, 21480, Note_on_c, 1, 52, 127
1, 21480, Note_on_c, 1, 83, 127
1, 21480, Note_on_c, 1, 49, 127
1, 21509, Note_off_c, 1, 52, 0
1, 21509, Note_off_c, 1, 83, 0
1, 21510, Note_on_c, 1, 56, 127
1, 21510, Note_on_c, 1, 80, 127
1, 21539, Note_off_c, 1, 49, 0
1, 21539, Note_off_c, 1, 56, 0
1, 21539, Note_off_c, 1, 80, 0
1, 21540, Note_on_c, 1, 59, 127
1, 21540, Note_on_c, 1, 76, 127
1, 21540, Note_on_c, 1, 47, 127
1, 21569, Note_off_c, 1, 59, 0
1, 21569, Note_off_c, 1, 76, 0
1, 21570, Note_on_c, 1, 62, 127
1, 21570, Note_on_c, 1, 80, 127
1, 21599, Note_off_c, 1, 47, 0
1, 21599, Note_off_c, 1, 62, 0
1, 21599, Note_off_c, 1, 80, 0
1, 21600, Note_on_c, 1, 61, 127
1, 21600, Note_on_c, 1, 81, 127
1, 21600, Note_on_c, 1, 45, 127
1, 21629, Note_off_c, 1, 61, 0
1, 21630, Note_on_c, 1, 62, 127
1, 21659, Note_off_c, 1, 45, 0
1, 21659, Note_off_c, 1, 62, 0
1, 21660, Note_on_c, 1, 64, 127
1, 21660, Note_on_c, 1, 50, 127
1, 21689, Note_off_c, 1, 81, 0
1, 21689, Note_off_c, 1, 64, 0
1, 21690, Note_on_c, 1, 66, 127
1, 21690, Note_on_c, 1, 83, 127
1, 21719, Note_off_c, 1, 50, 0
1, 21719, Note_off_c, 1, 66, 0
1, 21719, Note_off_c, 1, 83, 0
1, 21720, Note_on_c, 1, 59, 127
1, 21720, Note_on_c, 1, 80, 127
1, 21720, Note_on_c, 1, 52, 127
1, 21735, Note_off_c, 1, 59, 0
1, 21735, Note_off_c, 1, 80, 0
1, 21735, Note_on_c, 1, 61, 127
1, 21735, Note_on_c, 1, 81, 127
1, 21750, Note_off_c, 1, 61, 0
1, 21750, Note_off_c, 1, 81, 0
1, 21779, Note_off_c, 1, 52, 0
1, 21780, Note_on_c, 1, 40, 127
1, 21810, Note_on_c, 1, 57, 127
1, 21839, Note_off_c, 1, 40, 0
1, 21839, Note_off_c, 1, 57, 0
1, 21840, Note_on_c, 1, 57, 127
1, 21840, Note_on_c, 1, 81, 127
1, 21840, Note_on_c, 1, 45, 127
1, 21869, Note_off_c, 1, 81, 0
1, 21870, Note_on_c, 1, 76, 127
1, 21899, Note_off_c, 1, 45, 0
1, 21899, Note_off_c, 1, 76, 0
1, 21900, Note_on_c, 1, 73, 127
1, 21929, Note_off_c, 1, 73, 0
1, 21930, Note_on_c, 1, 69, 127
1, 21959, Note_off_c, 1, 69, 0
1, 21960, Note_on_c, 1, 79, 127
1, 21989, Note_off_c, 1, 57, 0
1, 21990, Note_on_c, 1, 64, 127
1, 22019, Note_off_c, 1, 64, 0
1, 22020, Note_on_c, 1, 61, 127
1, 22049, Note_off_c, 1, 61, 0
1, 22080, Note_on_c, 1, 62, 127
1, 22110, Note_off_c, 1, 79, 0
1, 22110, Note_on_c, 1, 67, 127
1, 22139, Note_off_c, 1, 62, 0
1, 22139, Note_off_c, 1, 67, 0
1, 22140, Note_on_c, 1, 66, 127
1, 22140, Note_on_c, 1, 73, 127
1, 22140, Note_on_c, 1, 50, 127
1, 22169, Note_off_c, 1, 66, 0
1, 22169, Note_off_c, 1, 73, 0
1, 22170, Note_on_c, 1, 64, 127
1, 22170, Note_on_c, 1, 69, 127
1, 22199, Note_off_c, 1, 64, 0
1, 22199, Note_off_c, 1, 69, 0
1, 22200, Note_on_c, 1, 62, 127
1, 22200, Note_on_c, 1, 78, 127
1, 22229, Note_off_c, 1, 50, 0
1, 22259, Note_off_c, 1, 62, 0
1, 22260, Note_on_c, 1, 59, 127
1, 22289, Note_off_c, 1, 59, 0
1, 22290, Note_on_c, 1, 56, 127
1, 22319, Note_off_c, 1, 56, 0
1, 22320, Note_on_c, 1, 61, 127
1, 22350, Note_off_c, 1, 78, 0
1, 22350, Note_on_c, 1, 74, 127
1, 22379, Note_off_c, 1, 61, 0
1, 22379, Note_off_c, 1, 74, 0
1, 22380, Note_on_c, 1, 56, 127
1, 22380, Note_on_c, 1, 71, 127
1, 22380, Note_on_c, 1, 49, 127
1, 22409, Note_off_c, 1, 56, 0
1, 22409, Note_off_c, 1, 71, 0
1, 22410, Note_on_c, 1, 59, 127
1, 22410, Note_on_c, 1, 68, 127
1, 22439, Note_off_c, 1, 59, 0
1, 22439, Note_off_c, 1, 68, 0
1, 22440, Note_on_c, 1, 76, 127
1, 22470, Note_on_c, 1, 61, 127
1, 22499, Note_off_c, 1, 49, 0
1, 22499, Note_off_c, 1, 61, 0
1, 22500, Note_on_c, 1, 57, 127
1, 22529, Note_off_c, 1, 57, 0
1, 22530, Note_on_c, 1, 54, 127
1, 22559, Note_off_c, 1, 54, 0
1, 22590, Note_off_c, 1, 76, 0
1, 22590, Note_on_c, 1, 64, 127
1, 22590, Note_on_c, 1, 73, 127
1, 22619, Note_off_c, 1, 64, 0
1, 22619, Note_off_c, 1, 73, 0
1, 22620, Note_on_c, 1, 61, 127
1, 22620, Note_on_c, 1, 69, 127
1, 22620, Note_on_c, 1, 47, 127
1, 22649, Note_off_c, 1, 61, 0
1, 22649, Note_off_c, 1, 69, 0
1, 22650, Note_on_c, 1, 57, 127
1, 22650, Note_on_c, 1, 66, 127
1, 22679, Note_off_c, 1, 57, 0
1, 22679, Note_off_c, 1, 66, 0
1, 22680, Note_on_c, 1, 54, 127
1, 22680, Note_on_c, 1, 74, 127
1, 22709, Note_off_c, 1, 47, 0
1, 22709, Note_off_c, 1, 54, 0
1, 22710, Note_on_c, 1, 62, 127
1, 22739, Note_off_c, 1, 62, 0
1, 22740, Note_on_c, 1, 59, 127
1, 22740, Note_on_c, 1, 50, 127
1, 22769, Note_off_c, 1, 59, 0
1, 22769, Note_off_c, 1, 50, 0
1, 22770, Note_on_c, 1, 56, 127
1, 22799, Note_off_c, 1, 56, 0
1, 22800, Note_on_c, 1, 52, 127
1, 22830, Note_off_c, 1, 74, 0
1, 22830, Note_on_c, 1, 71, 127
1, 22859, Note_off_c, 1, 71, 0
1, 22860, Note_on_c, 1, 68, 127
1, 22889, Note_off_c, 1, 68, 0
1, 22890, Note_on_c, 1, 64, 127
1, 22919, Note_off_c, 1, 52, 0
1, 22919, Note_off_c, 1, 64, 0
1, 22920, Note_on_c, 1, 76, 127
1, 22920, Note_on_c, 1, 56, 127
1, 22949, Note_off_c, 1, 76, 0
1, 22950, Note_on_c, 1, 52, 127
1, 22950, Note_on_c, 1, 74, 127
1, 22979, Note_off_c, 1, 56, 0
1, 22979, Note_off_c, 1, 52, 0
1, 22979, Note_off_c, 1, 74, 0
1, 22980, Note_on_c, 1, 54, 127
1, 22980, Note_on_c, 1, 72, 127
1, 22980, Note_on_c, 1, 52, 127
1, 23009, Note_off_c, 1, 54, 0
1, 23009, Note_off_c, 1, 72, 0
1, 23010, Note_on_c, 1, 56, 127
1, 23010, Note_on_c, 1, 71, 127
1, 23039, Note_off_c, 1, 52, 0
1, 23039, Note_off_c, 1, 56, 0
1, 23039, Note_off_c, 1, 71, 0
1, 23040, Note_on_c, 1, 57, 127
1, 23040, Note_on_c, 1, 72, 127
1, 23069, Note_off_c, 1, 72, 0
1, 23070, Note_on_c, 1, 59, 127
1, 23070, Note_on_c, 1, 74, 127
1, 23099, Note_off_c, 1, 59, 0
1, 23099, Note_off_c, 1, 74, 0
1, 23100, Note_on_c, 1, 60, 127
1, 23100, Note_on_c, 1, 76, 127
1, 23129, Note_off_c, 1, 57, 0
1, 23130, Note_on_c, 1, 52, 127
1, 23144, Note_off_c, 1, 52, 0
1, 23145, Note_on_c, 1, 50, 127
1, 23159, Note_off_c, 1, 50, 0
1, 23160, Note_on_c, 1, 48, 127
1, 23174, Note_off_c, 1, 48, 0
1, 23219, Note_off_c, 1, 60, 0
1, 23219, Note_off_c, 1, 76, 0
1, 23220, Note_on_c, 1, 59, 127
1, 23220, Note_on_c, 1, 74, 127
1, 23220, Note_on_c, 1, 45, 127
1, 23249, Note_off_c, 1, 59, 0
1, 23249, Note_off_c, 1, 74, 0
1, 23250, Note_on_c, 1, 57, 127
1, 23250, Note_on_c, 1, 72, 127
1, 23279, Note_off_c, 1, 45, 0
1, 23279, Note_off_c, 1, 57, 0
1, 23279, Note_off_c, 1, 72, 0
1, 23280, Note_on_c, 1, 56, 127
1, 23280, Note_on_c, 1, 71, 127
1, 23280, Note_on_c, 1, 52, 127
1, 23309, Note_off_c, 1, 56, 0
1, 23309, Note_off_c, 1, 71, 0
1, 23310, Note_on_c, 1, 57, 127
1, 23310, Note_on_c, 1, 72, 127
1, 23339, Note_off_c, 1, 57, 0
1, 23339, Note_off_c, 1, 72, 0
1, 23340, Note_on_c, 1, 59, 127
1, 23340, Note_on_c, 1, 74, 127
1, 23369, Note_off_c, 1, 52, 0
1, 23370, Note_on_c, 1, 47, 127
1, 23384, Note_off_c, 1, 47, 0
1, 23385, Note_on_c, 1, 45, 127
1, 23399, Note_off_c, 1, 45, 0
1, 23400, Note_on_c, 1, 44, 127
1, 23414, Note_off_c, 1, 44, 0
1, 23459, Note_off_c, 1, 59, 0
1, 23459, Note_off_c, 1, 74, 0
1, 23460, Note_on_c, 1, 57, 127
1, 23460, Note_on_c, 1, 73, 127
1, 23460, Note_on_c, 1, 40, 127
1, 23489, Note_off_c, 1, 57, 0
1, 23489, Note_off_c, 1, 73, 0
1, 23490, Note_on_c, 1, 56, 127
1, 23490, Note_on_c, 1, 71, 127
1, 23519, Note_off_c, 1, 40, 0
1, 23519, Note_off_c, 1, 56, 0
1, 23519, Note_off_c, 1, 71, 0
1, 23520, Note_on_c, 1, 64, 127
1, 23520, Note_on_c, 1, 74, 127
1, 23520, Note_on_c, 1, 45, 127
1, 23549, Note_off_c, 1, 74, 0
1, 23550, Note_on_c, 1, 73, 127
1, 23579, Note_off_c, 1, 64, 0
1, 23579, Note_off_c, 1, 45, 0
1, 23579, Note_off_c, 1, 73, 0
1, 23580, Note_on_c, 1, 62, 127
1, 23580, Note_on_c, 1, 71, 127
1, 23580, Note_on_c, 1, 50, 127
1, 23609, Note_off_c, 1, 62, 0
1, 23609, Note_off_c, 1, 71, 0
1, 23610, Note_on_c, 1, 61, 127
1, 23610, Note_on_c, 1, 69, 127
1, 23639, Note_off_c, 1, 50, 0
1, 23639, Note_off_c, 1, 61, 0
1, 23639, Note_off_c, 1, 69, 0
1, 23640, Note_on_c, 1, 62, 127
1, 23640, Note_on_c, 1, 64, 127
1, 23640, Note_on_c, 1, 52, 127
1, 23669, Note_off_c, 1, 62, 0
1, 23670, Note_on_c, 1, 61, 127
1, 23699, Note_off_c, 1, 64, 0
1, 23699, Note_off_c, 1, 52, 0
1, 23699, Note_off_c, 1, 61, 0
1, 23700, Note_on_c, 1, 59, 127
1, 23700, Note_on_c, 1, 62, 127
1, 23700, Note_on_c, 1, 68, 127
1, 23700, Note_on_c, 1, 40, 127
1, 23729, Note_off_c, 1, 59, 0
1, 23730, Note_on_c, 1, 61, 127
1, 23759, Note_off_c, 1, 62, 0
1, 23759, Note_off_c, 1, 68, 0
1, 23759, Note_off_c, 1, 40, 0
1, 23759, Note_off_c, 1, 61, 0
1, 23760, Note_on_c, 1, 57, 127
1, 23760, Note_on_c, 1, 69, 127
1, 23760, Note_on_c, 1, 61, 127
1, 23760, Note_on_c, 1, 64, 127
1, 23760, Note_on_c, 1, 45, 127
1, 23999, Note_off_c, 1, 57, 0
1, 23999, Note_off_c, 1, 69, 0
1, 23999, Note_off_c, 1, 61, 0
1, 23999, Note_off_c, 1, 64, 0
1, 23999, Note_off_c, 1, 45, 0
1, 24000, Note_on_c, 1, 76, 127
1, 24000, Note_on_c, 1, 57, 127
1, 24029, Note_off_c, 1, 76, 0
1, 24030, Note_on_c, 1, 78, 127
1, 24059, Note_off_c, 1, 78, 0
1, 24060, Note_on_c, 1, 79, 127
1, 24089, Note_off_c, 1, 57, 0
1, 24090, Note_on_c, 1, 52, 127
1, 24104, Note_off_c, 1, 52, 0
1, 24105, Note_on_c, 1, 50, 127
1, 24119, Note_off_c, 1, 50, 0
1, 24120, Note_on_c, 1, 49, 127
1, 24134, Note_off_c, 1, 49, 0
1, 24179, Note_off_c, 1, 79, 0
1, 24180, Note_on_c, 1, 78, 127
1, 24180, Note_on_c, 1, 45, 127
1, 24209, Note_off_c, 1, 78, 0
1, 24210, Note_on_c, 1, 76, 127
1, 24239, Note_off_c, 1, 45, 0
1, 24239, Note_off_c, 1, 76, 0
1, 24240, Note_on_c, 1, 74, 127
1, 24240, Note_on_c, 1, 57, 127
1, 24269, Note_off_c, 1, 74, 0
1, 24270, Note_on_c, 1, 73, 127
1, 24299, Note_off_c, 1, 73, 0
1, 24300, Note_on_c, 1, 71, 127
1, 24329, Note_off_c, 1, 71, 0
1, 24330, Note_on_c, 1, 69, 127
1, 24359, Note_off_c, 1, 57, 0
1, 24359, Note_off_c, 1, 69, 0
1, 24360, Note_on_c, 1, 71, 127
1, 24389, Note_off_c, 1, 71, 0
1, 24390, Note_on_c, 1, 73, 127
1, 24390, Note_on_c, 1, 55, 127
1, 24419, Note_off_c, 1, 73, 0
1, 24419, Note_off_c, 1, 55, 0
1, 24420, Note_on_c, 1, 74, 127
1, 24420, Note_on_c, 1, 54, 127
1, 24449, Note_off_c, 1, 74, 0
1, 24449, Note_off_c, 1, 54, 0
1, 24450, Note_on_c, 1, 76, 127
1, 24450, Note_on_c, 1, 52, 127
1, 24479, Note_off_c, 1, 76, 0
1, 24479, Note_off_c, 1, 52, 0
1, 24480, Note_on_c, 1, 78, 127
1, 24480, Note_on_c, 1, 50, 127
1, 24509, Note_off_c, 1, 78, 0
1, 24510, Note_on_c, 1, 79, 127
1, 24539, Note_off_c, 1, 50, 0
1, 24539, Note_off_c, 1, 79, 0
1, 24540, Note_on_c, 1, 81, 127
1, 24540, Note_on_c, 1, 47, 127
1, 24569, Note_off_c, 1, 81, 0
1, 24570, Note_on_c, 1, 83, 127
1, 24599, Note_off_c, 1, 47, 0
1, 24599, Note_off_c, 1, 83, 0
1, 24600, Note_on_c, 1, 81, 127
1, 24600, Note_on_c, 1, 49, 127
1, 24629, Note_off_c, 1, 81, 0
1, 24630, Note_on_c, 1, 79, 127
1, 24659, Note_off_c, 1, 49, 0
1, 24659, Note_off_c, 1, 79, 0
1, 24660, Note_on_c, 1, 78, 127
1, 24660, Note_on_c, 1, 45, 127
1, 24689, Note_off_c, 1, 78, 0
1, 24690, Note_on_c, 1, 76, 127
1, 24719, Note_off_c, 1, 45, 0
1, 24719, Note_off_c, 1, 76, 0
1, 24720, Note_on_c, 1, 79, 127
1, 24720, Note_on_c, 1, 50, 127
1, 24749, Note_off_c, 1, 79, 0
1, 24750, Note_on_c, 1, 78, 127
1, 24779, Note_off_c, 1, 50, 0
1, 24779, Note_off_c, 1, 78, 0
1, 24780, Note_on_c, 1, 76, 127
1, 24780, Note_on_c, 1, 45, 127
1, 24809, Note_off_c, 1, 76, 0
1, 24810, Note_on_c, 1, 78, 127
1, 24839, Note_off_c, 1, 45, 0
1, 24839, Note_off_c, 1, 78, 0
1, 24840, Note_on_c, 1, 74, 127
1, 24840, Note_on_c, 1, 42, 127
1, 24869, Note_off_c, 1, 74, 0
1, 24870, Note_on_c, 1, 78, 127
1, 24899, Note_off_c, 1, 42, 0
1, 24899, Note_off_c, 1, 78, 0
1, 24900, Note_on_c, 1, 76, 127
1, 24900, Note_on_c, 1, 45, 127
1, 24929, Note_off_c, 1, 76, 0
1, 24930, Note_on_c, 1, 79, 127
1, 24959, Note_off_c, 1, 45, 0
1, 24959, Note_off_c, 1, 79, 0
1, 24960, Note_on_c, 1, 57, 127
1, 24960, Note_on_c, 1, 78, 127
1, 24960, Note_on_c, 1, 50, 127
1, 24989, Note_off_c, 1, 57, 0
1, 24989, Note_off_c, 1, 78, 0
1, 24990, Note_on_c, 1, 59, 127
1, 24990, Note_on_c, 1, 79, 127
1, 25019, Note_off_c, 1, 59, 0
1, 25019, Note_off_c, 1, 79, 0
1, 25020, Note_on_c, 1, 60, 127
1, 25020, Note_on_c, 1, 81, 127
1, 25049, Note_off_c, 1, 50, 0
1, 25049, Note_off_c, 1, 81, 0
1, 25050, Note_on_c, 1, 45, 127
1, 25064, Note_off_c, 1, 45, 0
1, 25065, Note_on_c, 1, 43, 127
1, 25079, Note_off_c, 1, 43, 0
1, 25080, Note_on_c, 1, 74, 127
1, 25080, Note_on_c, 1, 42, 127
1, 25094, Note_off_c, 1, 42, 0
1, 25109, Note_off_c, 1, 74, 0
1, 25110, Note_on_c, 1, 76, 127
1, 25139, Note_off_c, 1, 60, 0
1, 25139, Note_off_c, 1, 76, 0
1, 25140, Note_on_c, 1, 59, 127
1, 25140, Note_on_c, 1, 78, 127
1, 25140, Note_on_c, 1, 38, 127
1, 25169, Note_off_c, 1, 59, 0
1, 25169, Note_off_c, 1, 78, 0
1, 25170, Note_on_c, 1, 57, 127
1, 25170, Note_on_c, 1, 74, 127
1, 25199, Note_off_c, 1, 38, 0
1, 25199, Note_off_c, 1, 57, 0
1, 25199, Note_off_c, 1, 74, 0
1, 25200, Note_on_c, 1, 55, 127
1, 25200, Note_on_c, 1, 69, 127
1, 25200, Note_on_c, 1, 50, 127
1, 25229, Note_off_c, 1, 55, 0
1, 25229, Note_off_c, 1, 69, 0
1, 25230, Note_on_c, 1, 54, 127
1, 25230, Note_on_c, 1, 71, 127
1, 25259, Note_off_c, 1, 54, 0
1, 25259, Note_off_c, 1, 71, 0
1, 25260, Note_on_c, 1, 52, 127
1, 25260, Note_on_c, 1, 72, 127
1, 25289, Note_off_c, 1, 52, 0
1, 25289, Note_off_c, 1, 72, 0
1, 25319, Note_off_c, 1, 50, 0
1, 25320, Note_on_c, 1, 52, 127
1, 25320, Note_on_c, 1, 72, 127
1, 25349, Note_off_c, 1, 52, 0
1, 25349, Note_off_c, 1, 72, 0
1, 25350, Note_on_c, 1, 54, 127
1, 25350, Note_on_c, 1, 76, 127
1, 25350, Note_on_c, 1, 48, 127
1, 25379, Note_off_c, 1, 54, 0
1, 25379, Note_off_c, 1, 76, 0
1, 25379, Note_off_c, 1, 48, 0
1, 25380, Note_on_c, 1, 55, 127
1, 25380, Note_on_c, 1, 74, 127
1, 25380, Note_on_c, 1, 47, 127
1, 25409, Note_off_c, 1, 55, 0
1, 25409, Note_off_c, 1, 74, 0
1, 25409, Note_off_c, 1, 47, 0
1, 25410, Note_on_c, 1, 57, 127
1, 25410, Note_on_c, 1, 72, 127
1, 25410, Note_on_c, 1, 45, 127
1, 25439, Note_off_c, 1, 57, 0
1, 25439, Note_off_c, 1, 72, 0
1, 25439, Note_off_c, 1, 45, 0
1, 25440, Note_on_c, 1, 59, 127
1, 25440, Note_on_c, 1, 71, 127
1, 25440, Note_on_c, 1, 43, 127
1, 25469, Note_off_c, 1, 59, 0
1, 25470, Note_on_c, 1, 60, 127
1, 25499, Note_off_c, 1, 71, 0
1, 25499, Note_off_c, 1, 43, 0
1, 25499, Note_off_c, 1, 60, 0
1, 25500, Note_on_c, 1, 62, 127
1, 25500, Note_on_c, 1, 79, 127
1, 25500, Note_on_c, 1, 45, 127
1, 25529, Note_off_c, 1, 62, 0
1, 25530, Note_on_c, 1, 64, 127
1, 25559, Note_off_c, 1, 79, 0
1, 25559, Note_off_c, 1, 45, 0
1, 25559, Note_off_c, 1, 64, 0
1, 25560, Note_on_c, 1, 62, 127
1, 25560, Note_on_c, 1, 69, 127
1, 25560, Note_on_c, 1, 47, 127
1, 25589, Note_off_c, 1, 62, 0
1, 25590, Note_on_c, 1, 60, 127
1, 25619, Note_off_c, 1, 69, 0
1, 25619, Note_off_c, 1, 47, 0
1, 25619, Note_off_c, 1, 60, 0
1, 25620, Note_on_c, 1, 59, 127
1, 25620, Note_on_c, 1, 79, 127
1, 25620, Note_on_c, 1, 48, 127
1, 25634, Note_off_c, 1, 79, 0
1, 25635, Note_on_c, 1, 78, 127
1, 25649, Note_off_c, 1, 59, 0
1, 25649, Note_off_c, 1, 78, 0
1, 25650, Note_on_c, 1, 57, 127
1, 25650, Note_on_c, 1, 76, 127
1, 25664, Note_off_c, 1, 76, 0
1, 25679, Note_off_c, 1, 48, 0
1, 25679, Note_off_c, 1, 57, 0
1, 25680, Note_on_c, 1, 60, 127
1, 25680, Note_on_c, 1, 79, 127
1, 25680, Note_on_c, 1, 43, 127
1, 25709, Note_off_c, 1, 60, 0
1, 25709, Note_off_c, 1, 43, 0
1, 25710, Note_on_c, 1, 59, 127
1, 25710, Note_on_c, 1, 45, 127
1, 25739, Note_off_c, 1, 79, 0
1, 25739, Note_off_c, 1, 59, 0
1, 25739, Note_off_c, 1, 45, 0
1, 25740, Note_on_c, 1, 57, 127
1, 25740, Note_on_c, 1, 74, 127
1, 25740, Note_on_c, 1, 47, 127
1, 25769, Note_off_c, 1, 57, 0
1, 25770, Note_on_c, 1, 59, 127
1, 25799, Note_off_c, 1, 74, 0
1, 25799, Note_off_c, 1, 59, 0
1, 25800, Note_on_c, 1, 55, 127
1, 25800, Note_on_c, 1, 79, 127
1, 25829, Note_off_c, 1, 55, 0
1, 25859, Note_off_c, 1, 47, 0
1, 25859, Note_off_c, 1, 79, 0
1, 25860, Note_on_c, 1, 62, 127
1, 25860, Note_on_c, 1, 83, 127
1, 25860, Note_on_c, 1, 45, 127
1, 25889, Note_off_c, 1, 62, 0
1, 25889, Note_off_c, 1, 45, 0
1, 25890, Note_on_c, 1, 67, 127
1, 25890, Note_on_c, 1, 43, 127
1, 25919, Note_off_c, 1, 67, 0
1, 25919, Note_off_c, 1, 43, 0
1, 25920, Note_on_c, 1, 64, 127
1, 25920, Note_on_c, 1, 48, 127
1, 25949, Note_off_c, 1, 83, 0
1, 25949, Note_off_c, 1, 48, 0
1, 25950, Note_on_c, 1, 81, 127
1, 25950, Note_on_c, 1, 50, 127
1, 25979, Note_off_c, 1, 64, 0
1, 25979, Note_off_c, 1, 81, 0
1, 25979, Note_off_c, 1, 50, 0
1, 25980, Note_on_c, 1, 55, 127
1, 25980, Note_on_c, 1, 79, 127
1, 25980, Note_on_c, 1, 52, 127
1, 26009, Note_off_c, 1, 79, 0
1, 26010, Note_on_c, 1, 78, 127
1, 26039, Note_off_c, 1, 55, 0
1, 26039, Note_off_c, 1, 78, 0
1, 26040, Note_on_c, 1, 60, 127
1, 26040, Note_on_c, 1, 76, 127
1, 26069, Note_off_c, 1, 76, 0
1, 26099, Note_off_c, 1, 52, 0
1, 26099, Note_off_c, 1, 60, 0
1, 26100, Note_on_c, 1, 64, 127
1, 26100, Note_on_c, 1, 79, 127
1, 26100, Note_on_c, 1, 50, 127
1, 26129, Note_off_c, 1, 79, 0
1, 26129, Note_off_c, 1, 50, 0
1, 26130, Note_on_c, 1, 83, 127
1, 26130, Note_on_c, 1, 48, 127
1, 26159, Note_off_c, 1, 83, 0
1, 26159, Note_off_c, 1, 48, 0
1, 26160, Note_on_c, 1, 81, 127
1, 26160, Note_on_c, 1, 54, 127
1, 26189, Note_off_c, 1, 64, 0
1, 26189, Note_off_c, 1, 54, 0
1, 26190, Note_on_c, 1, 62, 127
1, 26190, Note_on_c, 1, 55, 127
1, 26219, Note_off_c, 1, 81, 0
1, 26219, Note_off_c, 1, 62, 0
1, 26219, Note_off_c, 1, 55, 0
1, 26220, Note_on_c, 1, 60, 127
1, 26220, Note_on_c, 1, 75, 127
1, 26220, Note_on_c, 1, 57, 127
1, 26249, Note_off_c, 1, 60, 0
1, 26250, Note_on_c, 1, 59, 127
1, 26279, Note_off_c, 1, 75, 0
1, 26279, Note_off_c, 1, 59, 0
1, 26280, Note_on_c, 1, 78, 127
1, 26339, Note_off_c, 1, 57, 0
1, 26339, Note_off_c, 1, 78, 0
1, 26340, Note_on_c, 1, 60, 127
1, 26340, Note_on_c, 1, 81, 127
1, 26340, Note_on_c, 1, 55, 127
1, 26369, Note_off_c, 1, 60, 0
1, 26369, Note_off_c, 1, 55, 0
1, 26370, Note_on_c, 1, 64, 127
1, 26370, Note_on_c, 1, 54, 127
1, 26399, Note_off_c, 1, 64, 0
1, 26399, Note_off_c, 1, 54, 0
1, 26400, Note_on_c, 1, 63, 127
1, 26400, Note_on_c, 1, 59, 127
1, 26429, Note_off_c, 1, 81, 0
1, 26429, Note_off_c, 1, 59, 0
1, 26430, Note_on_c, 1, 79, 127
1, 26430, Note_on_c, 1, 61, 127
1, 26459, Note_off_c, 1, 63, 0
1, 26459, Note_off_c, 1, 79, 0
1, 26459, Note_off_c, 1, 61, 0
1, 26460, Note_on_c, 1, 59, 127
1, 26460, Note_on_c, 1, 78, 127
1, 26460, Note_on_c, 1, 63, 127
1, 26489, Note_off_c, 1, 78, 0
1, 26490, Note_on_c, 1, 76, 127
1, 26519, Note_off_c, 1, 59, 0
1, 26519, Note_off_c, 1, 76, 0
1, 26520, Note_on_c, 1, 54, 127
1, 26520, Note_on_c, 1, 75, 127
1, 26549, Note_off_c, 1, 75, 0
1, 26579, Note_off_c, 1, 63, 0
1, 26579, Note_off_c, 1, 54, 0
1, 26580, Note_on_c, 1, 66, 127
1, 26580, Note_on_c, 1, 78, 127
1, 26580, Note_on_c, 1, 61, 127
1, 26609, Note_off_c, 1, 78, 0
1, 26609, Note_off_c, 1, 61, 0
1, 26610, Note_on_c, 1, 81, 127
1, 26610, Note_on_c, 1, 59, 127
1, 26639, Note_off_c, 1, 81, 0
1, 26639, Note_off_c, 1, 59, 0
1, 26640, Note_on_c, 1, 79, 127
1, 26640, Note_on_c, 1, 64, 127
1, 26669, Note_off_c, 1, 79, 0
1, 26669, Note_off_c, 1, 64, 0
1, 26699, Note_off_c, 1, 66, 0
1, 26700, Note_on_c, 1, 59, 127
1, 26700, Note_on_c, 1, 76, 127
1, 26700, Note_on_c, 1, 67, 127
1, 26729, Note_off_c, 1, 76, 0
1, 26730, Note_on_c, 1, 75, 127
1, 26759, Note_off_c, 1, 59, 0
1, 26759, Note_off_c, 1, 75, 0
1, 26760, Note_on_c, 1, 64, 127
1, 26789, Note_off_c, 1, 67, 0
1, 26789, Note_off_c, 1, 64, 0
1, 26790, Note_on_c, 1, 66, 127
1, 26819, Note_off_c, 1, 66, 0
1, 26820, Note_on_c, 1, 67, 127
1, 26820, Note_on_c, 1, 71, 127
1, 26820, Note_on_c, 1, 64, 127
1, 26849, Note_off_c, 1, 64, 0
1, 26850, Note_on_c, 1, 62, 127
1, 26879, Note_off_c, 1, 71, 0
1, 26879, Note_off_c, 1, 62, 0
1, 26880, Note_on_c, 1, 76, 127
1, 26880, Note_on_c, 1, 61, 127
1, 26909, Note_off_c, 1, 67, 0
1, 26909, Note_off_c, 1, 76, 0
1, 26909, Note_off_c, 1, 61, 0
1, 26910, Note_on_c, 1, 66, 127
1, 26910, Note_on_c, 1, 78, 127
1, 26910, Note_on_c, 1, 62, 127
1, 26939, Note_off_c, 1, 66, 0
1, 26939, Note_off_c, 1, 78, 0
1, 26939, Note_off_c, 1, 62, 0
1, 26940, Note_on_c, 1, 64, 127
1, 26940, Note_on_c, 1, 79, 127
1, 26969, Note_off_c, 1, 64, 0
1, 26970, Note_on_c, 1, 62, 127
1, 26970, Note_on_c, 1, 61, 127
1, 26999, Note_off_c, 1, 62, 0
1, 26999, Note_off_c, 1, 61, 0
1, 27000, Note_on_c, 1, 58, 127
1, 27029, Note_off_c, 1, 58, 0
1, 27059, Note_off_c, 1, 79, 0
1, 27060, Note_on_c, 1, 66, 127
1, 27060, Note_on_c, 1, 78, 127
1, 27060, Note_on_c, 1, 54, 127
1, 27089, Note_off_c, 1, 78, 0
1, 27089, Note_off_c, 1, 54, 0
1, 27090, Note_on_c, 1, 76, 127
1, 27090, Note_on_c, 1, 58, 127
1, 27119, Note_off_c, 1, 76, 0
1, 27119, Note_off_c, 1, 58, 0
1, 27120, Note_on_c, 1, 74, 127
1, 27120, Note_on_c, 1, 59, 127
1, 27149, Note_off_c, 1, 66, 0
1, 27149, Note_off_c, 1, 74, 0
1, 27149, Note_off_c, 1, 59, 0
1, 27150, Note_on_c, 1, 64, 127
1, 27150, Note_on_c, 1, 76, 127
1, 27150, Note_on_c, 1, 61, 127
1, 27179, Note_off_c, 1, 64, 0
1, 27179, Note_off_c, 1, 76, 0
1, 27179, Note_off_c, 1, 61, 0
1, 27180, Note_on_c, 1, 62, 127
1, 27180, Note_on_c, 1, 78, 127
1, 27209, Note_off_c, 1, 62, 0
1, 27210, Note_on_c, 1, 61, 127
1, 27210, Note_on_c, 1, 59, 127
1, 27239, Note_off_c, 1, 61, 0
1, 27239, Note_off_c, 1, 59, 0
1, 27240, Note_on_c, 1, 55, 127
1, 27269, Note_off_c, 1, 78, 0
1, 27269, Note_off_c, 1, 55, 0
1, 27270, Note_on_c, 1, 74, 127
1, 27299, Note_off_c, 1, 74, 0
1, 27300, Note_on_c, 1, 67, 127
1, 27300, Note_on_c, 1, 73, 127
1, 27300, Note_on_c, 1, 52, 127
1, 27329, Note_off_c, 1, 73, 0
1, 27329, Note_off_c, 1, 52, 0
1, 27330, Note_on_c, 1, 71, 127
1, 27330, Note_on_c, 1, 55, 127
1, 27359, Note_off_c, 1, 71, 0
1, 27359, Note_off_c, 1, 55, 0
1, 27360, Note_on_c, 1, 70, 127
1, 27360, Note_on_c, 1, 49, 127
1, 27389, Note_off_c, 1, 67, 0
1, 27389, Note_off_c, 1, 70, 0
1, 27390, Note_on_c, 1, 58, 127
1, 27390, Note_on_c, 1, 79, 127
1, 27419, Note_off_c, 1, 49, 0
1, 27419, Note_off_c, 1, 58, 0
1, 27419, Note_off_c, 1, 79, 0
1, 27420, Note_on_c, 1, 59, 127
1, 27420, Note_on_c, 1, 78, 127
1, 27420, Note_on_c, 1, 50, 127
1, 27449, Note_off_c, 1, 59, 0
1, 27449, Note_off_c, 1, 78, 0
1, 27449, Note_off_c, 1, 50, 0
1, 27450, Note_on_c, 1, 61, 127
1, 27450, Note_on_c, 1, 76, 127
1, 27450, Note_on_c, 1, 52, 127
1, 27479, Note_off_c, 1, 61, 0
1, 27479, Note_off_c, 1, 76, 0
1, 27479, Note_off_c, 1, 52, 0
1, 27480, Note_on_c, 1, 54, 127
1, 27480, Note_on_c, 1, 74, 127
1, 27539, Note_off_c, 1, 54, 0
1, 27539, Note_off_c, 1, 74, 0
1, 27540, Note_on_c, 1, 58, 127
1, 27540, Note_on_c, 1, 73, 127
1, 27540, Note_on_c, 1, 42, 127
1, 27569, Note_off_c, 1, 73, 0
1, 27570, Note_on_c, 1, 71, 127
1, 27599, Note_off_c, 1, 58, 0
1, 27599, Note_off_c, 1, 42, 0
1, 27599, Note_off_c, 1, 71, 0
1, 27600, Note_on_c, 1, 59, 127
1, 27600, Note_on_c, 1, 71, 127
1, 27600, Note_on_c, 1, 62, 127
1, 27600, Note_on_c, 1, 47, 127
1, 27629, Note_off_c, 1, 59, 0
1, 27629, Note_off_c, 1, 71, 0
1, 27630, Note_on_c, 1, 61, 127
1, 27630, Note_on_c, 1, 66, 127
1, 27659, Note_off_c, 1, 62, 0
1, 27659, Note_off_c, 1, 47, 0
1, 27659, Note_off_c, 1, 61, 0
1, 27659, Note_off_c, 1, 66, 0
1, 27660, Note_on_c, 1, 62, 127
1, 27660, Note_on_c, 1, 71, 127
1, 27660, Note_on_c, 1, 35, 127
1, 27689, Note_off_c, 1, 71, 0
1, 27690, Note_on_c, 1, 73, 127
1, 27690, Note_on_c, 1, 64, 127
1, 27719, Note_off_c, 1, 35, 0
1, 27719, Note_off_c, 1, 73, 0
1, 27719, Note_off_c, 1, 64, 0
1, 27720, Note_on_c, 1, 74, 127
1, 27720, Note_on_c, 1, 66, 127
1, 27750, Note_on_c, 1, 47, 127
1, 27779, Note_off_c, 1, 62, 0
1, 27779, Note_off_c, 1, 74, 0
1, 27779, Note_off_c, 1, 66, 0
1, 27779, Note_off_c, 1, 47, 0
1, 27780, Note_on_c, 1, 61, 127
1, 27780, Note_on_c, 1, 49, 127
1, 27809, Note_off_c, 1, 61, 0
1, 27809, Note_off_c, 1, 49, 0
1, 27810, Note_on_c, 1, 59, 127
1, 27810, Note_on_c, 1, 50, 127
1, 27839, Note_off_c, 1, 59, 0
1, 27839, Note_off_c, 1, 50, 0
1, 27840, Note_on_c, 1, 57, 127
1, 27840, Note_on_c, 1, 52, 127
1, 27869, Note_off_c, 1, 57, 0
1, 27870, Note_on_c, 1, 56, 127
1, 27870, Note_on_c, 1, 74, 127
1, 27899, Note_off_c, 1, 52, 0
1, 27899, Note_off_c, 1, 56, 0
1, 27899, Note_off_c, 1, 74, 0
1, 27900, Note_on_c, 1, 54, 127
1, 27900, Note_on_c, 1, 71, 127
1, 27900, Note_on_c, 1, 40, 127
1, 27929, Note_off_c, 1, 54, 0
1, 27929, Note_off_c, 1, 71, 0
1, 27930, Note_on_c, 1, 52, 127
1, 27930, Note_on_c, 1, 73, 127
1, 27959, Note_off_c, 1, 40, 0
1, 27959, Note_off_c, 1, 52, 0
1, 27959, Note_off_c, 1, 73, 0
1, 27960, Note_on_c, 1, 54, 127
1, 27960, Note_on_c, 1, 74, 127
1, 27989, Note_off_c, 1, 54, 0
1, 27989, Note_off_c, 1, 74, 0
1, 27990, Note_on_c, 1, 56, 127
1, 27990, Note_on_c, 1, 78, 127
1, 27990, Note_on_c, 1, 52, 127
1, 28019, Note_off_c, 1, 56, 0
1, 28019, Note_off_c, 1, 78, 0
1, 28019, Note_off_c, 1, 52, 0
1, 28020, Note_on_c, 1, 57, 127
1, 28020, Note_on_c, 1, 76, 127
1, 28020, Note_on_c, 1, 54, 127
1, 28049, Note_off_c, 1, 57, 0
1, 28049, Note_off_c, 1, 76, 0
1, 28049, Note_off_c, 1, 54, 0
1, 28050, Note_on_c, 1, 59, 127
1, 28050, Note_on_c, 1, 74, 127
1, 28050, Note_on_c, 1, 56, 127
1, 28079, Note_off_c, 1, 59, 0
1, 28079, Note_off_c, 1, 74, 0
1, 28079, Note_off_c, 1, 56, 0
1, 28080, Note_on_c, 1, 61, 127
1, 28080, Note_on_c, 1, 73, 127
1, 28080, Note_on_c, 1, 57, 127
1, 28109, Note_off_c, 1, 61, 0
1, 28109, Note_off_c, 1, 73, 0
1, 28110, Note_on_c, 1, 62, 127
1, 28110, Note_on_c, 1, 71, 127
1, 28139, Note_off_c, 1, 57, 0
1, 28139, Note_off_c, 1, 62, 0
1, 28139, Note_off_c, 1, 71, 0
1, 28140, Note_on_c, 1, 64, 127
1, 28140, Note_on_c, 1, 73, 127
1, 28140, Note_on_c, 1, 54, 127
1, 28169, Note_off_c, 1, 64, 0
1, 28169, Note_off_c, 1, 73, 0
1, 28170, Note_on_c, 1, 66, 127
1, 28170, Note_on_c, 1, 74, 127
1, 28199, Note_off_c, 1, 54, 0
1, 28199, Note_off_c, 1, 66, 0
1, 28199, Note_off_c, 1, 74, 0
1, 28200, Note_on_c, 1, 64, 127
1, 28200, Note_on_c, 1, 73, 127
1, 28200, Note_on_c, 1, 50, 127
1, 28229, Note_off_c, 1, 64, 0
1, 28229, Note_off_c, 1, 73, 0
1, 28230, Note_on_c, 1, 62, 127
1, 28230, Note_on_c, 1, 71, 127
1, 28259, Note_off_c, 1, 50, 0
1, 28259, Note_off_c, 1, 62, 0
1, 28259, Note_off_c, 1, 71, 0
1, 28260, Note_on_c, 1, 61, 127
1, 28260, Note_on_c, 1, 69, 127
1, 28260, Note_on_c, 1, 52, 127
1, 28289, Note_off_c, 1, 61, 0
1, 28289, Note_off_c, 1, 69, 0
1, 28290, Note_on_c, 1, 59, 127
1, 28290, Note_on_c, 1, 68, 127
1, 28319, Note_off_c, 1, 52, 0
1, 28319, Note_off_c, 1, 59, 0
1, 28319, Note_off_c, 1, 68, 0
1, 28320, Note_on_c, 1, 62, 127
1, 28320, Note_on_c, 1, 76, 127
1, 28320, Note_on_c, 1, 73, 127
1, 28320, Note_on_c, 1, 69, 127
1, 28320, Note_on_c, 1, 45, 127
1, 28349, Note_off_c, 1, 62, 0
1, 28349, Note_off_c, 1, 76, 0
1, 28350, Note_on_c, 1, 61, 127
1, 28350, Note_on_c, 1, 78, 127
1, 28379, Note_off_c, 1, 45, 0
1, 28379, Note_off_c, 1, 61, 0
1, 28379, Note_off_c, 1, 78, 0
1, 28380, Note_on_c, 1, 59, 127
1, 28380, Note_on_c, 1, 79, 127
1, 28380, Note_on_c, 1, 40, 127
1, 28409, Note_off_c, 1, 59, 0
1, 28439, Note_off_c, 1, 40, 0
1, 28440, Note_on_c, 1, 57, 127
1, 28440, Note_on_c, 1, 33, 127
1, 28469, Note_off_c, 1, 33, 0
1, 28470, Note_on_c, 1, 52, 127
1, 28499, Note_off_c, 1, 73, 0
1, 28499, Note_off_c, 1, 69, 0
1, 28499, Note_off_c, 1, 79, 0
1, 28499, Note_off_c, 1, 52, 0
1, 28500, Note_on_c, 1, 54, 127
1, 28529, Note_off_c, 1, 54, 0
1, 28530, Note_on_c, 1, 55, 127
1, 28559, Note_off_c, 1, 57, 0
1, 28559, Note_off_c, 1, 55, 0
1, 28560, Note_on_c, 1, 74, 127
1, 28560, Note_on_c, 1, 57, 127
1, 28589, Note_off_c, 1, 74, 0
1, 28590, Note_on_c, 1, 73, 127
1, 28619, Note_off_c, 1, 57, 0
1, 28619, Note_off_c, 1, 73, 0
1, 28620, Note_on_c, 1, 64, 127
1, 28620, Note_on_c, 1, 71, 127
1, 28620, Note_on_c, 1, 45, 127
1, 28649, Note_off_c, 1, 64, 0
1, 28649, Note_off_c, 1, 71, 0
1, 28650, Note_on_c, 1, 66, 127
1, 28650, Note_on_c, 1, 69, 127
1, 28679, Note_off_c, 1, 45, 0
1, 28679, Note_off_c, 1, 66, 0
1, 28679, Note_off_c, 1, 69, 0
1, 28680, Note_on_c, 1, 67, 127
1, 28680, Note_on_c, 1, 71, 127
1, 28709, Note_off_c, 1, 71, 0
1, 28710, Note_on_c, 1, 73, 127
1, 28710, Note_on_c, 1, 57, 127
1, 28739, Note_off_c, 1, 67, 0
1, 28739, Note_off_c, 1, 73, 0
1, 28739, Note_off_c, 1, 57, 0
1, 28740, Note_on_c, 1, 74, 127
1, 28740, Note_on_c, 1, 59, 127
1, 28769, Note_off_c, 1, 74, 0
1, 28769, Note_off_c, 1, 59, 0
1, 28770, Note_on_c, 1, 76, 127
1, 28770, Note_on_c, 1, 61, 127
1, 28799, Note_off_c, 1, 76, 0
1, 28799, Note_off_c, 1, 61, 0
1, 28800, Note_on_c, 1, 78, 127
1, 28800, Note_on_c, 1, 62, 127
1, 28829, Note_off_c, 1, 78, 0
1, 28830, Note_on_c, 1, 79, 127
1, 28859, Note_off_c, 1, 62, 0
1, 28859, Note_off_c, 1, 79, 0
1, 28860, Note_on_c, 1, 66, 127
1, 28860, Note_on_c, 1, 81, 127
1, 28860, Note_on_c, 1, 59, 127
1, 28889, Note_off_c, 1, 66, 0
1, 28889, Note_off_c, 1, 81, 0
1, 28890, Note_on_c, 1, 67, 127
1, 28890, Note_on_c, 1, 83, 127
1, 28919, Note_off_c, 1, 59, 0
1, 28919, Note_off_c, 1, 67, 0
1, 28919, Note_off_c, 1, 83, 0
1, 28920, Note_on_c, 1, 66, 127
1, 28920, Note_on_c, 1, 81, 127
1, 28920, Note_on_c, 1, 55, 127
1, 28949, Note_off_c, 1, 66, 0
1, 28949, Note_off_c, 1, 81, 0
1, 28950, Note_on_c, 1, 64, 127
1, 28950, Note_on_c, 1, 79, 127
1, 28979, Note_off_c, 1, 55, 0
1, 28979, Note_off_c, 1, 64, 0
1, 28979, Note_off_c, 1, 79, 0
1, 28980, Note_on_c, 1, 62, 127
1, 28980, Note_on_c, 1, 78, 127
1, 28980, Note_on_c, 1, 57, 127
1, 29009, Note_off_c, 1, 62, 0
1, 29009, Note_off_c, 1, 78, 0
1, 29010, Note_on_c, 1, 61, 127
1, 29010, Note_on_c, 1, 76, 127
1, 29039, Note_off_c, 1, 57, 0
1, 29039, Note_off_c, 1, 61, 0
1, 29039, Note_off_c, 1, 76, 0
1, 29040, Note_on_c, 1, 62, 127
1, 29040, Note_on_c, 1, 79, 127
1, 29040, Note_on_c, 1, 50, 127
1, 29069, Note_off_c, 1, 79, 0
1, 29070, Note_on_c, 1, 78, 127
1, 29099, Note_off_c, 1, 62, 0
1, 29099, Note_off_c, 1, 78, 0
1, 29100, Note_on_c, 1, 66, 127
1, 29100, Note_on_c, 1, 76, 127
1, 29129, Note_off_c, 1, 76, 0
1, 29159, Note_off_c, 1, 50, 0
1, 29159, Note_off_c, 1, 66, 0
1, 29160, Note_on_c, 1, 71, 127
1, 29160, Note_on_c, 1, 74, 127
1, 29189, Note_off_c, 1, 74, 0
1, 29190, Note_on_c, 1, 81, 127
1, 29190, Note_on_c, 1, 49, 127
1, 29219, Note_off_c, 1, 81, 0
1, 29219, Note_off_c, 1, 49, 0
1, 29220, Note_on_c, 1, 79, 127
1, 29220, Note_on_c, 1, 50, 127
1, 29249, Note_off_c, 1, 79, 0
1, 29249, Note_off_c, 1, 50, 0
1, 29250, Note_on_c, 1, 83, 127
1, 29250, Note_on_c, 1, 47, 127
1, 29279, Note_off_c, 1, 71, 0
1, 29279, Note_off_c, 1, 83, 0
1, 29279, Note_off_c, 1, 47, 0
1, 29280, Note_on_c, 1, 78, 127
1, 29280, Note_on_c, 1, 49, 127
1, 29295, Note_off_c, 1, 78, 0
1, 29295, Note_on_c, 1, 77, 127
1, 29310, Note_off_c, 1, 77, 0
1, 29310, Note_on_c, 1, 68, 127
1, 29339, Note_off_c, 1, 49, 0
1, 29339, Note_off_c, 1, 68, 0
1, 29340, Note_on_c, 1, 69, 127
1, 29340, Note_on_c, 1, 42, 127
1, 29369, Note_off_c, 1, 69, 0
1, 29370, Note_on_c, 1, 66, 127
1, 29370, Note_on_c, 1, 85, 127
1, 29399, Note_off_c, 1, 42, 0
1, 29399, Note_off_c, 1, 66, 0
1, 29399, Note_off_c, 1, 85, 0
1, 29400, Note_on_c, 1, 66, 127
1, 29400, Note_on_c, 1, 83, 127
1, 29400, Note_on_c, 1, 49, 127
1, 29429, Note_off_c, 1, 66, 0
1, 29429, Note_off_c, 1, 83, 0
1, 29430, Note_on_c, 1, 65, 127
1, 29430, Note_on_c, 1, 81, 127
1, 29445, Note_off_c, 1, 65, 0
1, 29459, Note_off_c, 1, 49, 0
1, 29459, Note_off_c, 1, 81, 0
1, 29460, Note_on_c, 1, 80, 127
1, 29460, Note_on_c, 1, 37, 127
1, 29489, Note_off_c, 1, 80, 0
1, 29519, Note_off_c, 1, 37, 0
1, 29520, Note_on_c, 1, 66, 127
1, 29520, Note_on_c, 1, 78, 127
1, 29520, Note_on_c, 1, 42, 127
1, 29549, Note_off_c, 1, 42, 0
1, 29550, Note_on_c, 1, 45, 127
1, 29579, Note_off_c, 1, 45, 0
1, 29580, Note_on_c, 1, 49, 127
1, 29609, Note_off_c, 1, 49, 0
1, 29610, Note_on_c, 1, 53, 127
1, 29639, Note_off_c, 1, 53, 0
1, 29640, Note_on_c, 1, 54, 127
1, 29669, Note_off_c, 1, 54, 0
1, 29670, Note_on_c, 1, 57, 127
1, 29699, Note_off_c, 1, 57, 0
1, 29700, Note_on_c, 1, 59, 127
1, 29729, Note_off_c, 1, 59, 0
1, 29730, Note_on_c, 1, 61, 127
1, 29759, Note_off_c, 1, 66, 0
1, 29759, Note_off_c, 1, 78, 0
1, 29759, Note_off_c, 1, 61, 0
1, 29760, Note_on_c, 1, 66, 127
1, 29760, Note_on_c, 1, 62, 127
1, 29789, Note_off_c, 1, 66, 0
1, 29789, Note_off_c, 1, 62, 0
1, 29790, Note_on_c, 1, 67, 127
1, 29790, Note_on_c, 1, 64, 127
1, 29819, Note_off_c, 1, 67, 0
1, 29819, Note_off_c, 1, 64, 0
1, 29820, Note_on_c, 1, 69, 127
1, 29820, Note_on_c, 1, 74, 127
1, 29820, Note_on_c, 1, 78, 127
1, 29820, Note_on_c, 1, 66, 127
1, 29849, Note_off_c, 1, 74, 0
1, 29849, Note_off_c, 1, 78, 0
1, 29849, Note_off_c, 1, 66, 0
1, 29850, Note_on_c, 1, 79, 127
1, 29850, Note_on_c, 1, 76, 127
1, 29850, Note_on_c, 1, 62, 127
1, 29879, Note_off_c, 1, 79, 0
1, 29879, Note_off_c, 1, 76, 0
1, 29879, Note_off_c, 1, 62, 0
1, 29880, Note_on_c, 1, 81, 127
1, 29880, Note_on_c, 1, 57, 127
1, 29909, Note_off_c, 1, 57, 0
1, 29939, Note_off_c, 1, 69, 0
1, 29939, Note_off_c, 1, 81, 0
1, 29940, Note_on_c, 1, 67, 127
1, 29940, Note_on_c, 1, 64, 127
1, 29969, Note_off_c, 1, 67, 0
1, 29969, Note_off_c, 1, 64, 0
1, 29970, Note_on_c, 1, 66, 127
1, 29970, Note_on_c, 1, 62, 127
1, 29999, Note_off_c, 1, 66, 0
1, 29999, Note_off_c, 1, 62, 0
1, 30000, Note_on_c, 1, 64, 127
1, 30000, Note_on_c, 1, 61, 127
1, 30029, Note_off_c, 1, 64, 0
1, 30029, Note_off_c, 1, 61, 0
1, 30030, Note_on_c, 1, 66, 127
1, 30030, Note_on_c, 1, 62, 127
1, 30059, Note_off_c, 1, 66, 0
1, 30059, Note_off_c, 1, 62, 0
1, 30060, Note_on_c, 1, 67, 127
1, 30060, Note_on_c, 1, 73, 127
1, 30060, Note_on_c, 1, 76, 127
1, 30060, Note_on_c, 1, 64, 127
1, 30089, Note_off_c, 1, 73, 0
1, 30089, Note_off_c, 1, 76, 0
1, 30089, Note_off_c, 1, 64, 0
1, 30090, Note_on_c, 1, 78, 127
1, 30090, Note_on_c, 1, 74, 127
1, 30090, Note_on_c, 1, 61, 127
1, 30119, Note_off_c, 1, 78, 0
1, 30119, Note_off_c, 1, 74, 0
1, 30119, Note_off_c, 1, 61, 0
1, 30120, Note_on_c, 1, 79, 127
1, 30120, Note_on_c, 1, 57, 127
1, 30149, Note_off_c, 1, 57, 0
1, 30179, Note_off_c, 1, 67, 0
1, 30179, Note_off_c, 1, 79, 0
1, 30180, Note_on_c, 1, 66, 127
1, 30180, Note_on_c, 1, 62, 127
1, 30209, Note_off_c, 1, 66, 0
1, 30209, Note_off_c, 1, 62, 0
1, 30210, Note_on_c, 1, 64, 127
1, 30210, Note_on_c, 1, 61, 127
1, 30239, Note_off_c, 1, 64, 0
1, 30239, Note_off_c, 1, 61, 0
1, 30240, Note_on_c, 1, 66, 127
1, 30240, Note_on_c, 1, 62, 127
1, 30269, Note_off_c, 1, 62, 0
1, 30270, Note_on_c, 1, 57, 127
1, 30299, Note_off_c, 1, 66, 0
1, 30299, Note_off_c, 1, 57, 0
1, 30300, Note_on_c, 1, 62, 127
1, 30300, Note_on_c, 1, 81, 127
1, 30300, Note_on_c, 1, 74, 127
1, 30300, Note_on_c, 1, 69, 127
1, 30300, Note_on_c, 1, 54, 127
1, 30329, Note_off_c, 1, 54, 0
1, 30330, Note_on_c, 1, 57, 127
1, 30359, Note_off_c, 1, 62, 0
1, 30359, Note_off_c, 1, 81, 0
1, 30359, Note_off_c, 1, 74, 0
1, 30359, Note_off_c, 1, 69, 0
1, 30359, Note_off_c, 1, 57, 0
1, 30360, Note_on_c, 1, 61, 127
1, 30360, Note_on_c, 1, 79, 127
1, 30360, Note_on_c, 1, 73, 127
1, 30360, Note_on_c, 1, 69, 127
1, 30360, Note_on_c, 1, 52, 127
1, 30375, Note_off_c, 1, 61, 0
1, 30375, Note_on_c, 1, 62, 127
1, 30389, Note_off_c, 1, 52, 0
1, 30390, Note_off_c, 1, 62, 0
1, 30390, Note_on_c, 1, 57, 127
1, 30419, Note_off_c, 1, 79, 0
1, 30419, Note_off_c, 1, 73, 0
1, 30419, Note_off_c, 1, 69, 0
1, 30419, Note_off_c, 1, 57, 0
1, 30420, Note_on_c, 1, 62, 127
1, 30420, Note_on_c, 1, 78, 127
1, 30420, Note_on_c, 1, 69, 127
1, 30420, Note_on_c, 1, 74, 127
1, 30420, Note_on_c, 1, 50, 127
1, 30449, Note_off_c, 1, 50, 0
1, 30450, Note_on_c, 1, 57, 127
1, 30479, Note_off_c, 1, 62, 0
1, 30479, Note_off_c, 1, 78, 0
1, 30479, Note_off_c, 1, 69, 0
1, 30479, Note_off_c, 1, 74, 0
1, 30479, Note_off_c, 1, 57, 0
1, 30480, Note_on_c, 1, 64, 127
1, 30480, Note_on_c, 1, 76, 127
1, 30480, Note_on_c, 1, 69, 127
1, 30480, Note_on_c, 1, 49, 127
1, 30509, Note_off_c, 1, 49, 0
1, 30510, Note_on_c, 1, 62, 127
1, 30510, Note_on_c, 1, 57, 127
1, 30539, Note_off_c, 1, 62, 0
1, 30539, Note_off_c, 1, 57, 0
1, 30540, Note_on_c, 1, 61, 127
1, 30540, Note_on_c, 1, 45, 127
1, 30569, Note_off_c, 1, 61, 0
1, 30569, Note_off_c, 1, 45, 0
1, 30570, Note_on_c, 1, 59, 127
1, 30599, Note_off_c, 1, 64, 0
1, 30599, Note_off_c, 1, 76, 0
1, 30599, Note_off_c, 1, 69, 0
1, 30599, Note_off_c, 1, 59, 0
1, 30600, Note_on_c, 1, 57, 127
1, 30600, Note_on_c, 1, 47, 127
1, 30629, Note_off_c, 1, 57, 0
1, 30629, Note_off_c, 1, 47, 0
1, 30630, Note_on_c, 1, 55, 127
1, 30630, Note_on_c, 1, 57, 127
1, 30659, Note_off_c, 1, 55, 0
1, 30659, Note_off_c, 1, 57, 0
1, 30660, Note_on_c, 1, 54, 127
1, 30660, Note_on_c, 1, 49, 127
1, 30689, Note_off_c, 1, 54, 0
1, 30689, Note_off_c, 1, 49, 0
1, 30690, Note_on_c, 1, 52, 127
1, 30690, Note_on_c, 1, 57, 127
1, 30719, Note_off_c, 1, 52, 0
1, 30719, Note_off_c, 1, 57, 0
1, 30720, Note_on_c, 1, 50, 127
1, 30720, Note_on_c, 1, 78, 127
1, 30749, Note_off_c, 1, 78, 0
1, 30750, Note_on_c, 1, 52, 127
1, 30750, Note_on_c, 1, 79, 127
1, 30779, Note_off_c, 1, 50, 0
1, 30779, Note_off_c, 1, 52, 0
1, 30779, Note_off_c, 1, 79, 0
1, 30780, Note_on_c, 1, 54, 127
1, 30780, Note_on_c, 1, 81, 127
1, 30780, Note_on_c, 1, 38, 127
1, 30809, Note_off_c, 1, 54, 0
1, 30809, Note_off_c, 1, 38, 0
1, 30810, Note_on_c, 1, 52, 127
1, 30810, Note_on_c, 1, 40, 127
1, 30839, Note_off_c, 1, 52, 0
1, 30839, Note_off_c, 1, 40, 0
1, 30840, Note_on_c, 1, 50, 127
1, 30840, Note_on_c, 1, 42, 127
1, 30869, Note_off_c, 1, 50, 0
1, 30899, Note_off_c, 1, 81, 0
1, 30899, Note_off_c, 1, 42, 0
1, 30900, Note_on_c, 1, 57, 127
1, 30900, Note_on_c, 1, 79, 127
1, 30900, Note_on_c, 1, 38, 127
1, 30929, Note_off_c, 1, 57, 0
1, 30929, Note_off_c, 1, 79, 0
1, 30930, Note_on_c, 1, 62, 127
1, 30930, Note_on_c, 1, 78, 127
1, 30959, Note_off_c, 1, 38, 0
1, 30959, Note_off_c, 1, 62, 0
1, 30959, Note_off_c, 1, 78, 0
1, 30960, Note_on_c, 1, 61, 127
1, 30960, Note_on_c, 1, 76, 127
1, 30960, Note_on_c, 1, 45, 127
1, 30989, Note_off_c, 1, 61, 0
1, 30989, Note_off_c, 1, 76, 0
1, 30990, Note_on_c, 1, 62, 127
1, 30990, Note_on_c, 1, 78, 127
1, 31019, Note_off_c, 1, 45, 0
1, 31019, Note_off_c, 1, 62, 0
1, 31019, Note_off_c, 1, 78, 0
1, 31020, Note_on_c, 1, 64, 127
1, 31020, Note_on_c, 1, 79, 127
1, 31020, Note_on_c, 1, 49, 127
1, 31049, Note_off_c, 1, 64, 0
1, 31049, Note_off_c, 1, 49, 0
1, 31050, Note_on_c, 1, 62, 127
1, 31050, Note_on_c, 1, 47, 127
1, 31079, Note_off_c, 1, 62, 0
1, 31079, Note_off_c, 1, 47, 0
1, 31080, Note_on_c, 1, 61, 127
1, 31080, Note_on_c, 1, 45, 127
1, 31109, Note_off_c, 1, 61, 0
1, 31139, Note_off_c, 1, 79, 0
1, 31139, Note_off_c, 1, 45, 0
1, 31140, Note_on_c, 1, 57, 127
1, 31140, Note_on_c, 1, 78, 127
1, 31169, Note_off_c, 1, 78, 0
1, 31170, Note_on_c, 1, 61, 127
1, 31170, Note_on_c, 1, 76, 127
1, 31199, Note_off_c, 1, 57, 0
1, 31199, Note_off_c, 1, 61, 0
1, 31199, Note_off_c, 1, 76, 0
1, 31200, Note_on_c, 1, 62, 127
1, 31200, Note_on_c, 1, 78, 127
1, 31200, Note_on_c, 1, 50, 127
1, 31229, Note_off_c, 1, 62, 0
1, 31230, Note_on_c, 1, 57, 127
1, 31259, Note_off_c, 1, 78, 0
1, 31259, Note_off_c, 1, 57, 0
1, 31260, Note_on_c, 1, 66, 127
1, 31260, Note_on_c, 1, 74, 127
1, 31289, Note_off_c, 1, 66, 0
1, 31319, Note_off_c, 1, 50, 0
1, 31319, Note_off_c, 1, 74, 0
1, 31320, Note_on_c, 1, 64, 127
1, 31320, Note_on_c, 1, 73, 127
1, 31334, Note_off_c, 1, 73, 0
1, 31335, Note_on_c, 1, 74, 127
1, 31349, Note_off_c, 1, 64, 0
1, 31349, Note_off_c, 1, 74, 0
1, 31350, Note_on_c, 1, 57, 127
1, 31350, Note_on_c, 1, 73, 127
1, 31350, Note_on_c, 1, 52, 127
1, 31379, Note_off_c, 1, 57, 0
1, 31379, Note_off_c, 1, 73, 0
1, 31379, Note_off_c, 1, 52, 0
1, 31380, Note_on_c, 1, 62, 127
1, 31380, Note_on_c, 1, 74, 127
1, 31380, Note_on_c, 1, 54, 127
1, 31409, Note_off_c, 1, 62, 0
1, 31409, Note_off_c, 1, 54, 0
1, 31410, Note_on_c, 1, 57, 127
1, 31410, Note_on_c, 1, 50, 127
1, 31439, Note_off_c, 1, 74, 0
1, 31439, Note_off_c, 1, 57, 0
1, 31439, Note_off_c, 1, 50, 0
1, 31440, Note_on_c, 1, 61, 127
1, 31440, Note_on_c, 1, 76, 127
1, 31440, Note_on_c, 1, 57, 127
1, 31469, Note_off_c, 1, 61, 0
1, 31469, Note_off_c, 1, 76, 0
1, 31470, Note_on_c, 1, 62, 127
1, 31470, Note_on_c, 1, 74, 127
1, 31499, Note_off_c, 1, 57, 0
1, 31499, Note_off_c, 1, 62, 0
1, 31499, Note_off_c, 1, 74, 0
1, 31500, Note_on_c, 1, 64, 127
1, 31500, Note_on_c, 1, 73, 127
1, 31500, Note_on_c, 1, 45, 127
1, 31529, Note_off_c, 1, 64, 0
1, 31529, Note_off_c, 1, 73, 0
1, 31530, Note_on_c, 1, 62, 127
1, 31530, Note_on_c, 1, 71, 127
1, 31559, Note_off_c, 1, 45, 0
1, 31559, Note_off_c, 1, 62, 0
1, 31559, Note_off_c, 1, 71, 0
1, 31560, Note_on_c, 1, 61, 127
1, 31560, Note_on_c, 1, 69, 127
1, 31589, Note_off_c, 1, 61, 0
1, 31589, Note_off_c, 1, 69, 0
1, 31590, Note_on_c, 1, 59, 127
1, 31590, Note_on_c, 1, 67, 127
1, 31590, Note_on_c, 1, 45, 127
1, 31619, Note_off_c, 1, 59, 0
1, 31619, Note_off_c, 1, 67, 0
1, 31619, Note_off_c, 1, 45, 0
1, 31620, Note_on_c, 1, 57, 127
1, 31620, Note_on_c, 1, 66, 127
1, 31620, Note_on_c, 1, 47, 127
1, 31649, Note_off_c, 1, 57, 0
1, 31649, Note_off_c, 1, 66, 0
1, 31649, Note_off_c, 1, 47, 0
1, 31650, Note_on_c, 1, 55, 127
1, 31650, Note_on_c, 1, 64, 127
1, 31650, Note_on_c, 1, 49, 127
1, 31679, Note_off_c, 1, 55, 0
1, 31679, Note_off_c, 1, 64, 0
1, 31679, Note_off_c, 1, 49, 0
1, 31680, Note_on_c, 1, 54, 127
1, 31680, Note_on_c, 1, 69, 127
1, 31680, Note_on_c, 1, 66, 127
1, 31680, Note_on_c, 1, 62, 127
1, 31680, Note_on_c, 1, 50, 127
1, 31709, Note_off_c, 1, 54, 0
1, 31709, Note_off_c, 1, 50, 0
1, 31710, Note_on_c, 1, 55, 127
1, 31710, Note_on_c, 1, 52, 127
1, 31739, Note_off_c, 1, 69, 0
1, 31739, Note_off_c, 1, 66, 0
1, 31739, Note_off_c, 1, 62, 0
1, 31739, Note_off_c, 1, 55, 0
1, 31739, Note_off_c, 1, 52, 0
1, 31740, Note_on_c, 1, 57, 127
1, 31740, Note_on_c, 1, 74, 127
1, 31740, Note_on_c, 1, 54, 127
1, 31769, Note_off_c, 1, 57, 0
1, 31769, Note_off_c, 1, 74, 0
1, 31770, Note_on_c, 1, 73, 127
1, 31799, Note_off_c, 1, 73, 0
1, 31800, Note_on_c, 1, 50, 127
1, 31829, Note_off_c, 1, 50, 0
1, 31859, Note_off_c, 1, 54, 0
1, 31860, Note_on_c, 1, 52, 127
1, 31889, Note_off_c, 1, 52, 0
1, 31890, Note_on_c, 1, 60, 127
1, 31919, Note_off_c, 1, 60, 0
1, 31920, Note_on_c, 1, 59, 127
1, 31920, Note_on_c, 1, 55, 127
1, 31949, Note_off_c, 1, 59, 0
1, 31949, Note_off_c, 1, 55, 0
1, 31950, Note_on_c, 1, 60, 127
1, 31950, Note_on_c, 1, 72, 127
1, 31950, Note_on_c, 1, 57, 127
1, 31979, Note_off_c, 1, 60, 0
1, 31979, Note_off_c, 1, 72, 0
1, 31979, Note_off_c, 1, 57, 0
1, 31980, Note_on_c, 1, 62, 127
1, 31980, Note_on_c, 1, 71, 127
1, 31980, Note_on_c, 1, 59, 127
1, 32009, Note_off_c, 1, 71, 0
1, 32010, Note_on_c, 1, 74, 127
1, 32039, Note_off_c, 1, 74, 0
1, 32040, Note_on_c, 1, 79, 127
1, 32069, Note_off_c, 1, 62, 0
1, 32069, Note_off_c, 1, 59, 0
1, 32069, Note_off_c, 1, 79, 0
1, 32070, Note_on_c, 1, 50, 127
1, 32070, Note_on_c, 1, 74, 127
1, 32070, Note_on_c, 1, 57, 127
1, 32099, Note_off_c, 1, 50, 0
1, 32099, Note_off_c, 1, 74, 0
1, 32099, Note_off_c, 1, 57, 0
1, 32100, Note_on_c, 1, 52, 127
1, 32100, Note_on_c, 1, 71, 127
1, 32100, Note_on_c, 1, 55, 127
1, 32129, Note_off_c, 1, 52, 0
1, 32129, Note_off_c, 1, 71, 0
1, 32129, Note_off_c, 1, 55, 0
1, 32130, Note_on_c, 1, 54, 127
1, 32130, Note_on_c, 1, 67, 127
1, 32159, Note_off_c, 1, 54, 0
1, 32159, Note_off_c, 1, 67, 0
1, 32160, Note_on_c, 1, 55, 127
1, 32160, Note_on_c, 1, 71, 127
1, 32160, Note_on_c, 1, 67, 127
1, 32160, Note_on_c, 1, 64, 127
1, 32160, Note_on_c, 1, 52, 127
1, 32189, Note_off_c, 1, 55, 0
1, 32189, Note_off_c, 1, 52, 0
1, 32190, Note_on_c, 1, 57, 127
1, 32190, Note_on_c, 1, 54, 127
1, 32219, Note_off_c, 1, 71, 0
1, 32219, Note_off_c, 1, 67, 0
1, 32219, Note_off_c, 1, 64, 0
1, 32219, Note_off_c, 1, 57, 0
1, 32219, Note_off_c, 1, 54, 0
1, 32220, Note_on_c, 1, 59, 127
1, 32220, Note_on_c, 1, 76, 127
1, 32220, Note_on_c, 1, 55, 127
1, 32249, Note_off_c, 1, 59, 0
1, 32249, Note_off_c, 1, 76, 0
1, 32250, Note_on_c, 1, 75, 127
1, 32279, Note_off_c, 1, 75, 0
1, 32280, Note_on_c, 1, 52, 127
1, 32309, Note_off_c, 1, 52, 0
1, 32339, Note_off_c, 1, 55, 0
1, 32340, Note_on_c, 1, 54, 127
1, 32369, Note_off_c, 1, 54, 0
1, 32370, Note_on_c, 1, 62, 127
1, 32399, Note_off_c, 1, 62, 0
1, 32400, Note_on_c, 1, 61, 127
1, 32400, Note_on_c, 1, 57, 127
1, 32429, Note_off_c, 1, 61, 0
1, 32429, Note_off_c, 1, 57, 0
1, 32430, Note_on_c, 1, 62, 127
1, 32430, Note_on_c, 1, 74, 127
1, 32430, Note_on_c, 1, 59, 127
1, 32459, Note_off_c, 1, 62, 0
1, 32459, Note_off_c, 1, 74, 0
1, 32459, Note_off_c, 1, 59, 0
1, 32460, Note_on_c, 1, 64, 127
1, 32460, Note_on_c, 1, 73, 127
1, 32460, Note_on_c, 1, 61, 127
1, 32489, Note_off_c, 1, 73, 0
1, 32490, Note_on_c, 1, 76, 127
1, 32519, Note_off_c, 1, 76, 0
1, 32520, Note_on_c, 1, 81, 127
1, 32549, Note_off_c, 1, 64, 0
1, 32549, Note_off_c, 1, 61, 0
1, 32549, Note_off_c, 1, 81, 0
1, 32550, Note_on_c, 1, 64, 127
1, 32550, Note_on_c, 1, 76, 127
1, 32550, Note_on_c, 1, 59, 127
1, 32579, Note_off_c, 1, 64, 0
1, 32579, Note_off_c, 1, 76, 0
1, 32579, Note_off_c, 1, 59, 0
1, 32580, Note_on_c, 1, 66, 127
1, 32580, Note_on_c, 1, 73, 127
1, 32580, Note_on_c, 1, 57, 127
1, 32609, Note_off_c, 1, 66, 0
1, 32609, Note_off_c, 1, 73, 0
1, 32609, Note_off_c, 1, 57, 0
1, 32610, Note_on_c, 1, 67, 127
1, 32610, Note_on_c, 1, 76, 127
1, 32610, Note_on_c, 1, 55, 127
1, 32639, Note_off_c, 1, 67, 0
1, 32639, Note_off_c, 1, 76, 0
1, 32639, Note_off_c, 1, 55, 0
1, 32640, Note_on_c, 1, 69, 127
1, 32640, Note_on_c, 1, 78, 127
1, 32640, Note_on_c, 1, 54, 127
1, 32669, Note_off_c, 1, 54, 0
1, 32670, Note_on_c, 1, 55, 127
1, 32699, Note_off_c, 1, 69, 0
1, 32699, Note_off_c, 1, 78, 0
1, 32699, Note_off_c, 1, 55, 0
1, 32700, Note_on_c, 1, 69, 127
1, 32700, Note_on_c, 1, 73, 127
1, 32700, Note_on_c, 1, 78, 127
1, 32700, Note_on_c, 1, 57, 127
1, 32729, Note_off_c, 1, 57, 0
1, 32730, Note_on_c, 1, 54, 127
1, 32759, Note_off_c, 1, 73, 0
1, 32759, Note_off_c, 1, 54, 0
1, 32760, Note_on_c, 1, 66, 127
1, 32760, Note_on_c, 1, 71, 127
1, 32760, Note_on_c, 1, 51, 127
1, 32789, Note_off_c, 1, 51, 0
1, 32819, Note_off_c, 1, 69, 0
1, 32819, Note_off_c, 1, 78, 0
1, 32819, Note_off_c, 1, 66, 0
1, 32819, Note_off_c, 1, 71, 0
1, 32820, Note_on_c, 1, 67, 127
1, 32820, Note_on_c, 1, 76, 127
1, 32820, Note_on_c, 1, 47, 127
1, 32849, Note_off_c, 1, 67, 0
1, 32849, Note_off_c, 1, 76, 0
1, 32849, Note_off_c, 1, 47, 0
1, 32850, Note_on_c, 1, 66, 127
1, 32850, Note_on_c, 1, 75, 127
1, 32850, Note_on_c, 1, 59, 127
1, 32879, Note_off_c, 1, 66, 0
1, 32879, Note_off_c, 1, 75, 0
1, 32879, Note_off_c, 1, 59, 0
1, 32880, Note_on_c, 1, 67, 127
1, 32880, Note_on_c, 1, 76, 127
1, 32880, Note_on_c, 1, 52, 127
1, 32909, Note_off_c, 1, 52, 0
1, 32910, Note_on_c, 1, 54, 127
1, 32939, Note_off_c, 1, 67, 0
1, 32939, Note_off_c, 1, 76, 0
1, 32939, Note_off_c, 1, 54, 0
1, 32940, Note_on_c, 1, 67, 127
1, 32940, Note_on_c, 1, 71, 127
1, 32940, Note_on_c, 1, 76, 127
1, 32940, Note_on_c, 1, 55, 127
1, 32969, Note_off_c, 1, 55, 0
1, 32970, Note_on_c, 1, 52, 127
1, 32999, Note_off_c, 1, 71, 0
1, 32999, Note_off_c, 1, 52, 0
1, 33000, Note_on_c, 1, 69, 127
1, 33000, Note_on_c, 1, 64, 127
1, 33000, Note_on_c, 1, 49, 127
1, 33029, Note_off_c, 1, 49, 0
1, 33059, Note_off_c, 1, 67, 0
1, 33059, Note_off_c, 1, 76, 0
1, 33059, Note_off_c, 1, 69, 0
1, 33059, Note_off_c, 1, 64, 0
1, 33060, Note_on_c, 1, 66, 127
1, 33060, Note_on_c, 1, 74, 127
1, 33060, Note_on_c, 1, 45, 127
1, 33089, Note_off_c, 1, 66, 0
1, 33089, Note_off_c, 1, 74, 0
1, 33089, Note_off_c, 1, 45, 0
1, 33090, Note_on_c, 1, 64, 127
1, 33090, Note_on_c, 1, 73, 127
1, 33090, Note_on_c, 1, 57, 127
1, 33119, Note_off_c, 1, 64, 0
1, 33119, Note_off_c, 1, 73, 0
1, 33119, Note_off_c, 1, 57, 0
1, 33120, Note_on_c, 1, 66, 127
1, 33120, Note_on_c, 1, 74, 127
1, 33120, Note_on_c, 1, 50, 127
1, 33149, Note_off_c, 1, 50, 0
1, 33150, Note_on_c, 1, 52, 127
1, 33179, Note_off_c, 1, 66, 0
1, 33179, Note_off_c, 1, 74, 0
1, 33179, Note_off_c, 1, 52, 0
1, 33180, Note_on_c, 1, 64, 127
1, 33180, Note_on_c, 1, 73, 127
1, 33180, Note_on_c, 1, 54, 127
1, 33209, Note_off_c, 1, 64, 0
1, 33209, Note_off_c, 1, 73, 0
1, 33209, Note_off_c, 1, 54, 0
1, 33210, Note_on_c, 1, 62, 127
1, 33210, Note_on_c, 1, 71, 127
1, 33210, Note_on_c, 1, 55, 127
1, 33239, Note_off_c, 1, 62, 0
1, 33239, Note_off_c, 1, 71, 0
1, 33239, Note_off_c, 1, 55, 0
1, 33240, Note_on_c, 1, 66, 127
1, 33240, Note_on_c, 1, 69, 127
1, 33240, Note_on_c, 1, 57, 127
1, 33269, Note_off_c, 1, 66, 0
1, 33269, Note_off_c, 1, 69, 0
1, 33270, Note_on_c, 1, 64, 127
1, 33270, Note_on_c, 1, 67, 127
1, 33299, Note_off_c, 1, 57, 0
1, 33299, Note_off_c, 1, 64, 0
1, 33299, Note_off_c, 1, 67, 0
1, 33300, Note_on_c, 1, 62, 127
1, 33300, Note_on_c, 1, 66, 127
1, 33300, Note_on_c, 1, 45, 127
1, 33329, Note_off_c, 1, 62, 0
1, 33329, Note_off_c, 1, 66, 0
1, 33330, Note_on_c, 1, 61, 127
1, 33330, Note_on_c, 1, 64, 127
1, 33359, Note_off_c, 1, 45, 0
1, 33359, Note_off_c, 1, 61, 0
1, 33359, Note_off_c, 1, 64, 0
1, 33360, Note_on_c, 1, 62, 127
1, 33390, Note_on_c, 1, 57, 127
1, 33390, Note_on_c, 1, 50, 127
1, 33419, Note_off_c, 1, 57, 0
1, 33419, Note_off_c, 1, 50, 0
1, 33420, Note_on_c, 1, 54, 127
1, 33449, Note_off_c, 1, 54, 0
1, 33479, Note_off_c, 1, 62, 0
1, 33480, Note_on_c, 1, 60, 127
1, 33480, Note_on_c, 1, 62, 127
1, 33509, Note_off_c, 1, 62, 0
1, 33510, Note_on_c, 1, 57, 127
1, 33539, Note_off_c, 1, 57, 0
1, 33540, Note_on_c, 1, 81, 127
1, 33540, Note_on_c, 1, 78, 127
1, 33540, Note_on_c, 1, 74, 127
1, 33540, Note_on_c, 1, 54, 127
1, 33569, Note_off_c, 1, 54, 0
1, 33570, Note_on_c, 1, 50, 127
1, 33599, Note_off_c, 1, 60, 0
1, 33599, Note_off_c, 1, 81, 0
1, 33599, Note_off_c, 1, 78, 0
1, 33599, Note_off_c, 1, 74, 0
1, 33599, Note_off_c, 1, 50, 0
1, 33600, Note_on_c, 1, 81, 127
1, 33600, Note_on_c, 1, 78, 127
1, 33600, Note_on_c, 1, 74, 127
1, 33600, Note_on_c, 1, 55, 127
1, 33630, Note_on_c, 1, 57, 127
1, 33659, Note_off_c, 1, 81, 0
1, 33659, Note_off_c, 1, 78, 0
1, 33659, Note_off_c, 1, 74, 0
1, 33659, Note_off_c, 1, 55, 0
1, 33659, Note_off_c, 1, 57, 0
1, 33660, Note_on_c, 1, 54, 127
1, 33660, Note_on_c, 1, 81, 127
1, 33660, Note_on_c, 1, 78, 127
1, 33660, Note_on_c, 1, 72, 127
1, 33660, Note_on_c, 1, 43, 127
1, 33689, Note_off_c, 1, 54, 0
1, 33690, Note_on_c, 1, 50, 127
1, 33719, Note_off_c, 1, 81, 0
1, 33719, Note_off_c, 1, 78, 0
1, 33719, Note_off_c, 1, 72, 0
1, 33719, Note_off_c, 1, 50, 0
1, 33720, Note_on_c, 1, 59, 127
1, 33720, Note_on_c, 1, 79, 127
1, 33720, Note_on_c, 1, 76, 127
1, 33720, Note_on_c, 1, 71, 127
1, 33749, Note_off_c, 1, 43, 0
1, 33750, Note_on_c, 1, 55, 127
1, 33779, Note_off_c, 1, 79, 0
1, 33779, Note_off_c, 1, 76, 0
1, 33779, Note_off_c, 1, 71, 0
1, 33779, Note_off_c, 1, 55, 0
1, 33780, Note_on_c, 1, 74, 127
1, 33780, Note_on_c, 1, 52, 127
1, 33809, Note_off_c, 1, 52, 0
1, 33810, Note_on_c, 1, 49, 127
1, 33839, Note_off_c, 1, 59, 0
1, 33839, Note_off_c, 1, 74, 0
1, 33839, Note_off_c, 1, 49, 0
1, 33840, Note_on_c, 1, 73, 127
1, 33840, Note_on_c, 1, 76, 127
1, 33840, Note_on_c, 1, 79, 127
1, 33840, Note_on_c, 1, 54, 127
1, 33870, Note_on_c, 1, 55, 127
1, 33899, Note_off_c, 1, 73, 0
1, 33899, Note_off_c, 1, 76, 0
1, 33899, Note_off_c, 1, 79, 0
1, 33899, Note_off_c, 1, 54, 0
1, 33899, Note_off_c, 1, 55, 0
1, 33900, Note_on_c, 1, 52, 127
1, 33900, Note_on_c, 1, 79, 127
1, 33900, Note_on_c, 1, 71, 127
1, 33900, Note_on_c, 1, 76, 127
1, 33900, Note_on_c, 1, 42, 127
1, 33929, Note_off_c, 1, 52, 0
1, 33930, Note_on_c, 1, 49, 127
1, 33959, Note_off_c, 1, 79, 0
1, 33959, Note_off_c, 1, 71, 0
1, 33959, Note_off_c, 1, 76, 0
1, 33959, Note_off_c, 1, 49, 0
1, 33960, Note_on_c, 1, 57, 127
1, 33960, Note_on_c, 1, 69, 127
1, 33960, Note_on_c, 1, 78, 127
1, 33960, Note_on_c, 1, 74, 127
1, 33989, Note_off_c, 1, 42, 0
1, 33990, Note_on_c, 1, 54, 127
1, 34019, Note_off_c, 1, 69, 0
1, 34019, Note_off_c, 1, 78, 0
1, 34019, Note_off_c, 1, 74, 0
1, 34019, Note_off_c, 1, 54, 0
1, 34020, Note_on_c, 1, 72, 127
1, 34020, Note_on_c, 1, 50, 127
1, 34049, Note_off_c, 1, 50, 0
1, 34050, Note_on_c, 1, 47, 127
1, 34079, Note_off_c, 1, 57, 0
1, 34079, Note_off_c, 1, 72, 0
1, 34079, Note_off_c, 1, 47, 0
1, 34080, Note_on_c, 1, 78, 127
1, 34080, Note_on_c, 1, 74, 127
1, 34080, Note_on_c, 1, 71, 127
1, 34080, Note_on_c, 1, 52, 127
1, 34110, Note_on_c, 1, 54, 127
1, 34139, Note_off_c, 1, 78, 0
1, 34139, Note_off_c, 1, 74, 0
1, 34139, Note_off_c, 1, 71, 0
1, 34139, Note_off_c, 1, 52, 0
1, 34139, Note_off_c, 1, 54, 0
1, 34140, Note_on_c, 1, 50, 127
1, 34140, Note_on_c, 1, 78, 127
1, 34140, Note_on_c, 1, 69, 127
1, 34140, Note_on_c, 1, 74, 127
1, 34140, Note_on_c, 1, 40, 127
1, 34169, Note_off_c, 1, 50, 0
1, 34170, Note_on_c, 1, 47, 127
1, 34199, Note_off_c, 1, 78, 0
1, 34199, Note_off_c, 1, 69, 0
1, 34199, Note_off_c, 1, 74, 0
1, 34199, Note_off_c, 1, 47, 0
1, 34200, Note_on_c, 1, 55, 127
1, 34200, Note_on_c, 1, 76, 127
1, 34200, Note_on_c, 1, 67, 127
1, 34229, Note_off_c, 1, 40, 0
1, 34260, Note_on_c, 1, 73, 127
1, 34260, Note_on_c, 1, 43, 127
1, 34289, Note_off_c, 1, 73, 0
1, 34289, Note_off_c, 1, 43, 0
1, 34290, Note_on_c, 1, 71, 127
1, 34319, Note_off_c, 1, 55, 0
1, 34319, Note_off_c, 1, 71, 0
1, 34320, Note_off_c, 1, 76, 0
1, 34320, Note_on_c, 1, 45, 127
1, 34350, Note_off_c, 1, 67, 0
1, 34350, Note_on_c, 1, 57, 127
1, 34379, Note_off_c, 1, 45, 0
1, 34379, Note_off_c, 1, 57, 0
1, 34380, Note_on_c, 1, 61, 127
1, 34380, Note_on_c, 1, 76, 127
1, 34380, Note_on_c, 1, 47, 127
1, 34409, Note_off_c, 1, 61, 0
1, 34409, Note_off_c, 1, 76, 0
1, 34410, Note_on_c, 1, 64, 127
1, 34410, Note_on_c, 1, 73, 127
1, 34439, Note_off_c, 1, 47, 0
1, 34439, Note_off_c, 1, 64, 0
1, 34439, Note_off_c, 1, 73, 0
1, 34440, Note_on_c, 1, 69, 127
1, 34440, Note_on_c, 1, 49, 127
1, 34469, Note_off_c, 1, 69, 0
1, 34470, Note_on_c, 1, 67, 127
1, 34470, Note_on_c, 1, 71, 127
1, 34499, Note_off_c, 1, 49, 0
1, 34499, Note_off_c, 1, 67, 0
1, 34499, Note_off_c, 1, 71, 0
1, 34500, Note_on_c, 1, 65, 127
1, 34500, Note_on_c, 1, 73, 127
1, 34500, Note_on_c, 1, 45, 127
1, 34529, Note_off_c, 1, 65, 0
1, 34529, Note_off_c, 1, 73, 0
1, 34530, Note_on_c, 1, 64, 127
1, 34530, Note_on_c, 1, 76, 127
1, 34559, Note_off_c, 1, 45, 0
1, 34559, Note_off_c, 1, 64, 0
1, 34559, Note_off_c, 1, 76, 0
1, 34560, Note_on_c, 1, 65, 127
1, 34560, Note_on_c, 1, 74, 127
1, 34560, Note_on_c, 1, 50, 127
1, 34589, Note_off_c, 1, 65, 0
1, 34589, Note_off_c, 1, 74, 0
1, 34590, Note_on_c, 1, 67, 127
1, 34590, Note_on_c, 1, 76, 127
1, 34619, Note_off_c, 1, 67, 0
1, 34619, Note_off_c, 1, 76, 0
1, 34620, Note_on_c, 1, 69, 127
1, 34620, Note_on_c, 1, 77, 127
1, 34649, Note_off_c, 1, 50, 0
1, 34650, Note_on_c, 1, 45, 127
1, 34664, Note_off_c, 1, 45, 0
1, 34665, Note_on_c, 1, 43, 127
1, 34679, Note_off_c, 1, 43, 0
1, 34680, Note_on_c, 1, 41, 127
1, 34694, Note_off_c, 1, 41, 0
1, 34739, Note_off_c, 1, 69, 0
1, 34739, Note_off_c, 1, 77, 0
1, 34740, Note_on_c, 1, 67, 127
1, 34740, Note_on_c, 1, 76, 127
1, 34740, Note_on_c, 1, 38, 127
1, 34769, Note_off_c, 1, 67, 0
1, 34769, Note_off_c, 1, 76, 0
1, 34770, Note_on_c, 1, 65, 127
1, 34770, Note_on_c, 1, 74, 127
1, 34799, Note_off_c, 1, 38, 0
1, 34799, Note_off_c, 1, 65, 0
1, 34799, Note_off_c, 1, 74, 0
1, 34800, Note_on_c, 1, 64, 127
1, 34800, Note_on_c, 1, 73, 127
1, 34800, Note_on_c, 1, 57, 127
1, 34829, Note_off_c, 1, 64, 0
1, 34829, Note_off_c, 1, 73, 0
1, 34830, Note_on_c, 1, 65, 127
1, 34830, Note_on_c, 1, 74, 127
1, 34859, Note_off_c, 1, 65, 0
1, 34859, Note_off_c, 1, 74, 0
1, 34860, Note_on_c, 1, 67, 127
1, 34860, Note_on_c, 1, 76, 127
1, 34889, Note_off_c, 1, 57, 0
1, 34890, Note_on_c, 1, 52, 127
1, 34904, Note_off_c, 1, 52, 0
1, 34905, Note_on_c, 1, 50, 127
1, 34919, Note_off_c, 1, 50, 0
1, 34920, Note_on_c, 1, 49, 127
1, 34934, Note_off_c, 1, 49, 0
1, 34979, Note_off_c, 1, 67, 0
1, 34979, Note_off_c, 1, 76, 0
1, 34980, Note_on_c, 1, 66, 127
1, 34980, Note_on_c, 1, 74, 127
1, 34980, Note_on_c, 1, 45, 127
1, 35009, Note_off_c, 1, 66, 0
1, 35009, Note_off_c, 1, 74, 0
1, 35010, Note_on_c, 1, 64, 127
1, 35010, Note_on_c, 1, 73, 127
1, 35039, Note_off_c, 1, 45, 0
1, 35039, Note_off_c, 1, 64, 0
1, 35039, Note_off_c, 1, 73, 0
1, 35040, Note_on_c, 1, 67, 127
1, 35040, Note_on_c, 1, 81, 127
1, 35040, Note_on_c, 1, 62, 127
1, 35069, Note_off_c, 1, 67, 0
1, 35070, Note_on_c, 1, 66, 127
1, 35099, Note_off_c, 1, 81, 0
1, 35099, Note_off_c, 1, 62, 0
1, 35099, Note_off_c, 1, 66, 0
1, 35100, Note_on_c, 1, 64, 127
1, 35100, Note_on_c, 1, 79, 127
1, 35100, Note_on_c, 1, 55, 127
1, 35129, Note_off_c, 1, 64, 0
1, 35129, Note_off_c, 1, 79, 0
1, 35130, Note_on_c, 1, 62, 127
1, 35130, Note_on_c, 1, 78, 127
1, 35159, Note_off_c, 1, 55, 0
1, 35159, Note_off_c, 1, 62, 0
1, 35159, Note_off_c, 1, 78, 0
1, 35160, Note_on_c, 1, 57, 127
1, 35160, Note_on_c, 1, 79, 127
1, 35189, Note_off_c, 1, 79, 0
1, 35190, Note_on_c, 1, 78, 127
1, 35219, Note_off_c, 1, 57, 0
1, 35219, Note_off_c, 1, 78, 0
1, 35220, Note_on_c, 1, 61, 127
1, 35220, Note_on_c, 1, 76, 127
1, 35220, Note_on_c, 1, 45, 127
1, 35249, Note_off_c, 1, 76, 0
1, 35250, Note_on_c, 1, 78, 127
1, 35279, Note_off_c, 1, 61, 0
1, 35279, Note_off_c, 1, 45, 0
1, 35279, Note_off_c, 1, 78, 0
1, 35280, Note_on_c, 1, 62, 127
1, 35280, Note_on_c, 1, 69, 127
1, 35280, Note_on_c, 1, 74, 127
1, 35280, Note_on_c, 1, 66, 127
1, 35280, Note_on_c, 1, 50, 127
1, 35309, Note_off_c, 1, 50, 0
1, 35310, Note_on_c, 1, 45, 127
1, 35339, Note_off_c, 1, 45, 0
1, 35340, Note_on_c, 1, 47, 127
1, 35369, Note_off_c, 1, 47, 0
1, 35370, Note_on_c, 1, 49, 127
1, 35399, Note_off_c, 1, 49, 0
1, 35430, Note_on_c, 1, 52, 127
1, 35459, Note_off_c, 1, 52, 0
1, 35460, Note_on_c, 1, 54, 127
1, 35489, Note_off_c, 1, 54, 0
1, 35519, Note_off_c, 1, 62, 0
1, 35519, Note_off_c, 1, 69, 0
1, 35519, Note_off_c, 1, 74, 0
1, 35519, Note_off_c, 1, 66, 0
1, 35520, Note_on_c, 1, 76, 127
1, 35520, Note_on_c, 1, 57, 127
1, 35549, Note_off_c, 1, 76, 0
1, 35550, Note_on_c, 1, 78, 127
1, 35579, Note_off_c, 1, 78, 0
1, 35580, Note_on_c, 1, 79, 127
1, 35609, Note_off_c, 1, 57, 0
1, 35610, Note_on_c, 1, 52, 127
1, 35624, Note_off_c, 1, 52, 0
1, 35625, Note_on_c, 1, 50, 127
1, 35639, Note_off_c, 1, 50, 0
1, 35640, Note_on_c, 1, 49, 127
1, 35654, Note_off_c, 1, 49, 0
1, 35699, Note_off_c, 1, 79, 0
1, 35700, Note_on_c, 1, 78, 127
1, 35700, Note_on_c, 1, 45, 127
1, 35729, Note_off_c, 1, 78, 0
1, 35730, Note_on_c, 1, 76, 127
1, 35759, Note_off_c, 1, 45, 0
1, 35759, Note_off_c, 1, 76, 0
1, 35760, Note_on_c, 1, 74, 127
1, 35760, Note_on_c, 1, 57, 127
1, 35789, Note_off_c, 1, 74, 0
1, 35790, Note_on_c, 1, 73, 127
1, 35819, Note_off_c, 1, 73, 0
1, 35820, Note_on_c, 1, 71, 127
1, 35849, Note_off_c, 1, 71, 0
1, 35850, Note_on_c, 1, 69, 127
1, 35879, Note_off_c, 1, 57, 0
1, 35879, Note_off_c, 1, 69, 0
1, 35880, Note_on_c, 1, 71, 127
1, 35909, Note_off_c, 1, 71, 0
1, 35910, Note_on_c, 1, 73, 127
1, 35910, Note_on_c, 1, 55, 127
1, 35939, Note_off_c, 1, 73, 0
1, 35939, Note_off_c, 1, 55, 0
1, 35940, Note_on_c, 1, 74, 127
1, 35940, Note_on_c, 1, 54, 127
1, 35969, Note_off_c, 1, 74, 0
1, 35969, Note_off_c, 1, 54, 0
1, 35970, Note_on_c, 1, 76, 127
1, 35970, Note_on_c, 1, 52, 127
1, 35999, Note_off_c, 1, 76, 0
1, 35999, Note_off_c, 1, 52, 0
1, 36000, Note_on_c, 1, 78, 127
1, 36000, Note_on_c, 1, 50, 127
1, 36029, Note_off_c, 1, 78, 0
1, 36030, Note_on_c, 1, 79, 127
1, 36059, Note_off_c, 1, 50, 0
1, 36059, Note_off_c, 1, 79, 0
1, 36060, Note_on_c, 1, 81, 127
1, 36060, Note_on_c, 1, 47, 127
1, 36089, Note_off_c, 1, 81, 0
1, 36090, Note_on_c, 1, 83, 127
1, 36119, Note_off_c, 1, 47, 0
1, 36119, Note_off_c, 1, 83, 0
1, 36120, Note_on_c, 1, 81, 127
1, 36120, Note_on_c, 1, 49, 127
1, 36149, Note_off_c, 1, 81, 0
1, 36150, Note_on_c, 1, 79, 127
1, 36179, Note_off_c, 1, 49, 0
1, 36179, Note_off_c, 1, 79, 0
1, 36180, Note_on_c, 1, 78, 127
1, 36180, Note_on_c, 1, 45, 127
1, 36209, Note_off_c, 1, 78, 0
1, 36210, Note_on_c, 1, 76, 127
1, 36239, Note_off_c, 1, 45, 0
1, 36239, Note_off_c, 1, 76, 0
1, 36240, Note_on_c, 1, 79, 127
1, 36240, Note_on_c, 1, 50, 127
1, 36269, Note_off_c, 1, 79, 0
1, 36270, Note_on_c, 1, 78, 127
1, 36299, Note_off_c, 1, 50, 0
1, 36299, Note_off_c, 1, 78, 0
1, 36300, Note_on_c, 1, 76, 127
1, 36300, Note_on_c, 1, 45, 127
1, 36329, Note_off_c, 1, 76, 0
1, 36330, Note_on_c, 1, 78, 127
1, 36359, Note_off_c, 1, 45, 0
1, 36359, Note_off_c, 1, 78, 0
1, 36360, Note_on_c, 1, 74, 127
1, 36360, Note_on_c, 1, 42, 127
1, 36389, Note_off_c, 1, 74, 0
1, 36390, Note_on_c, 1, 78, 127
1, 36419, Note_off_c, 1, 42, 0
1, 36419, Note_off_c, 1, 78, 0
1, 36420, Note_on_c, 1, 76, 127
1, 36420, Note_on_c, 1, 45, 127
1, 36449, Note_off_c, 1, 76, 0
1, 36450, Note_on_c, 1, 79, 127
1, 36479, Note_off_c, 1, 45, 0
1, 36479, Note_off_c, 1, 79, 0
1, 36480, Note_on_c, 1, 57, 127
1, 36480, Note_on_c, 1, 78, 127
1, 36480, Note_on_c, 1, 50, 127
1, 36509, Note_off_c, 1, 57, 0
1, 36509, Note_off_c, 1, 78, 0
1, 36510, Note_on_c, 1, 59, 127
1, 36510, Note_on_c, 1, 79, 127
1, 36539, Note_off_c, 1, 59, 0
1, 36539, Note_off_c, 1, 79, 0
1, 36540, Note_on_c, 1, 60, 127
1, 36540, Note_on_c, 1, 81, 127
1, 36569, Note_off_c, 1, 50, 0
1, 36569, Note_off_c, 1, 81, 0
1, 36570, Note_on_c, 1, 45, 127
1, 36584, Note_off_c, 1, 45, 0
1, 36585, Note_on_c, 1, 43, 127
1, 36599, Note_off_c, 1, 43, 0
1, 36600, Note_on_c, 1, 74, 127
1, 36600, Note_on_c, 1, 42, 127
1, 36614, Note_off_c, 1, 42, 0
1, 36629, Note_off_c, 1, 74, 0
1, 36630, Note_on_c, 1, 76, 127
1, 36659, Note_off_c, 1, 60, 0
1, 36659, Note_off_c, 1, 76, 0
1, 36660, Note_on_c, 1, 59, 127
1, 36660, Note_on_c, 1, 78, 127
1, 36660, Note_on_c, 1, 38, 127
1, 36689, Note_off_c, 1, 59, 0
1, 36689, Note_off_c, 1, 78, 0
1, 36690, Note_on_c, 1, 57, 127
1, 36690, Note_on_c, 1, 74, 127
1, 36719, Note_off_c, 1, 38, 0
1, 36719, Note_off_c, 1, 57, 0
1, 36719, Note_off_c, 1, 74, 0
1, 36720, Note_on_c, 1, 55, 127
1, 36720, Note_on_c, 1, 69, 127
1, 36720, Note_on_c, 1, 50, 127
1, 36749, Note_off_c, 1, 55, 0
1, 36749, Note_off_c, 1, 69, 0
1, 36750, Note_on_c, 1, 54, 127
1, 36750, Note_on_c, 1, 71, 127
1, 36779, Note_off_c, 1, 54, 0
1, 36779, Note_off_c, 1, 71, 0
1, 36780, Note_on_c, 1, 52, 127
1, 36780, Note_on_c, 1, 72, 127
1, 36809, Note_off_c, 1, 52, 0
1, 36809, Note_off_c, 1, 72, 0
1, 36839, Note_off_c, 1, 50, 0
1, 36840, Note_on_c, 1, 52, 127
1, 36840, Note_on_c, 1, 72, 127
1, 36869, Note_off_c, 1, 52, 0
1, 36869, Note_off_c, 1, 72, 0
1, 36870, Note_on_c, 1, 54, 127
1, 36870, Note_on_c, 1, 76, 127
1, 36870, Note_on_c, 1, 48, 127
1, 36899, Note_off_c, 1, 54, 0
1, 36899, Note_off_c, 1, 76, 0
1, 36899, Note_off_c, 1, 48, 0
1, 36900, Note_on_c, 1, 55, 127
1, 36900, Note_on_c, 1, 74, 127
1, 36900, Note_on_c, 1, 47, 127
1, 36929, Note_off_c, 1, 55, 0
1, 36929, Note_off_c, 1, 74, 0
1, 36929, Note_off_c, 1, 47, 0
1, 36930, Note_on_c, 1, 57, 127
1, 36930, Note_on_c, 1, 72, 127
1, 36930, Note_on_c, 1, 45, 127
1, 36959, Note_off_c, 1, 57, 0
1, 36959, Note_off_c, 1, 72, 0
1, 36959, Note_off_c, 1, 45, 0
1, 36960, Note_on_c, 1, 59, 127
1, 36960, Note_on_c, 1, 71, 127
1, 36960, Note_on_c, 1, 43, 127
1, 36989, Note_off_c, 1, 59, 0
1, 36990, Note_on_c, 1, 60, 127
1, 37019, Note_off_c, 1, 71, 0
1, 37019, Note_off_c, 1, 43, 0
1, 37019, Note_off_c, 1, 60, 0
1, 37020, Note_on_c, 1, 62, 127
1, 37020, Note_on_c, 1, 79, 127
1, 37020, Note_on_c, 1, 45, 127
1, 37049, Note_off_c, 1, 62, 0
1, 37050, Note_on_c, 1, 64, 127
1, 37079, Note_off_c, 1, 79, 0
1, 37079, Note_off_c, 1, 45, 0
1, 37079, Note_off_c, 1, 64, 0
1, 37080, Note_on_c, 1, 62, 127
1, 37080, Note_on_c, 1, 69, 127
1, 37080, Note_on_c, 1, 47, 127
1, 37109, Note_off_c, 1, 62, 0
1, 37110, Note_on_c, 1, 60, 127
1, 37139, Note_off_c, 1, 69, 0
1, 37139, Note_off_c, 1, 47, 0
1, 37139, Note_off_c, 1, 60, 0
1, 37140, Note_on_c, 1, 59, 127
1, 37140, Note_on_c, 1, 79, 127
1, 37140, Note_on_c, 1, 48, 127
1, 37154, Note_off_c, 1, 79, 0
1, 37155, Note_on_c, 1, 78, 127
1, 37169, Note_off_c, 1, 59, 0
1, 37169, Note_off_c, 1, 78, 0
1, 37170, Note_on_c, 1, 57, 127
1, 37170, Note_on_c, 1, 76, 127
1, 37184, Note_off_c, 1, 76, 0
1, 37199, Note_off_c, 1, 48, 0
1, 37199, Note_off_c, 1, 57, 0
1, 37200, Note_on_c, 1, 60, 127
1, 37200, Note_on_c, 1, 79, 127
1, 37200, Note_on_c, 1, 43, 127
1, 37229, Note_off_c, 1, 60, 0
1, 37229, Note_off_c, 1, 43, 0
1, 37230, Note_on_c, 1, 59, 127
1, 37230, Note_on_c, 1, 45, 127
1, 37259, Note_off_c, 1, 79, 0
1, 37259, Note_off_c, 1, 59, 0
1, 37259, Note_off_c, 1, 45, 0
1, 37260, Note_on_c, 1, 57, 127
1, 37260, Note_on_c, 1, 74, 127
1, 37260, Note_on_c, 1, 47, 127
1, 37289, Note_off_c, 1, 57, 0
1, 37290, Note_on_c, 1, 59, 127
1, 37319, Note_off_c, 1, 74, 0
1, 37319, Note_off_c, 1, 59, 0
1, 37320, Note_on_c, 1, 55, 127
1, 37320, Note_on_c, 1, 79, 127
1, 37349, Note_off_c, 1, 55, 0
1, 37379, Note_off_c, 1, 47, 0
1, 37379, Note_off_c, 1, 79, 0
1, 37380, Note_on_c, 1, 62, 127
1, 37380, Note_on_c, 1, 83, 127
1, 37380, Note_on_c, 1, 45, 127
1, 37409, Note_off_c, 1, 62, 0
1, 37409, Note_off_c, 1, 45, 0
1, 37410, Note_on_c, 1, 67, 127
1, 37410, Note_on_c, 1, 43, 127
1, 37439, Note_off_c, 1, 67, 0
1, 37439, Note_off_c, 1, 43, 0
1, 37440, Note_on_c, 1, 64, 127
1, 37440, Note_on_c, 1, 48, 127
1, 37469, Note_off_c, 1, 83, 0
1, 37469, Note_off_c, 1, 48, 0
1, 37470, Note_on_c, 1, 81, 127
1, 37470, Note_on_c, 1, 50, 127
1, 37499, Note_off_c, 1, 64, 0
1, 37499, Note_off_c, 1, 81, 0
1, 37499, Note_off_c, 1, 50, 0
1, 37500, Note_on_c, 1, 55, 127
1, 37500, Note_on_c, 1, 79, 127
1, 37500, Note_on_c, 1, 52, 127
1, 37529, Note_off_c, 1, 79, 0
1, 37530, Note_on_c, 1, 78, 127
1, 37559, Note_off_c, 1, 55, 0
1, 37559, Note_off_c, 1, 78, 0
1, 37560, Note_on_c, 1, 60, 127
1, 37560, Note_on_c, 1, 76, 127
1, 37589, Note_off_c, 1, 76, 0
1, 37619, Note_off_c, 1, 52, 0
1, 37619, Note_off_c, 1, 60, 0
1, 37620, Note_on_c, 1, 64, 127
1, 37620, Note_on_c, 1, 79, 127
1, 37620, Note_on_c, 1, 50, 127
1, 37649, Note_off_c, 1, 79, 0
1, 37649, Note_off_c, 1, 50, 0
1, 37650, Note_on_c, 1, 83, 127
1, 37650, Note_on_c, 1, 48, 127
1, 37679, Note_off_c, 1, 83, 0
1, 37679, Note_off_c, 1, 48, 0
1, 37680, Note_on_c, 1, 81, 127
1, 37680, Note_on_c, 1, 54, 127
1, 37709, Note_off_c, 1, 64, 0
1, 37709, Note_off_c, 1, 54, 0
1, 37710, Note_on_c, 1, 62, 127
1, 37710, Note_on_c, 1, 55, 127
1, 37739, Note_off_c, 1, 81, 0
1, 37739, Note_off_c, 1, 62, 0
1, 37739, Note_off_c, 1, 55, 0
1, 37740, Note_on_c, 1, 60, 127
1, 37740, Note_on_c, 1, 75, 127
1, 37740, Note_on_c, 1, 57, 127
1, 37769, Note_off_c, 1, 60, 0
1, 37770, Note_on_c, 1, 59, 127
1, 37799, Note_off_c, 1, 75, 0
1, 37799, Note_off_c, 1, 59, 0
1, 37800, Note_on_c, 1, 78, 127
1, 37859, Note_off_c, 1, 57, 0
1, 37859, Note_off_c, 1, 78, 0
1, 37860, Note_on_c, 1, 60, 127
1, 37860, Note_on_c, 1, 81, 127
1, 37860, Note_on_c, 1, 55, 127
1, 37889, Note_off_c, 1, 60, 0
1, 37889, Note_off_c, 1, 55, 0
1, 37890, Note_on_c, 1, 64, 127
1, 37890, Note_on_c, 1, 54, 127
1, 37919, Note_off_c, 1, 64, 0
1, 37919, Note_off_c, 1, 54, 0
1, 37920, Note_on_c, 1, 63, 127
1, 37920, Note_on_c, 1, 59, 127
1, 37949, Note_off_c, 1, 81, 0
1, 37949, Note_off_c, 1, 59, 0
1, 37950, Note_on_c, 1, 79, 127
1, 37950, Note_on_c, 1, 61, 127
1, 37979, Note_off_c, 1, 63, 0
1, 37979, Note_off_c, 1, 79, 0
1, 37979, Note_off_c, 1, 61, 0
1, 37980, Note_on_c, 1, 59, 127
1, 37980, Note_on_c, 1, 78, 127
1, 37980, Note_on_c, 1, 63, 127
1, 38009, Note_off_c, 1, 78, 0
1, 38010, Note_on_c, 1, 76, 127
1, 38039, Note_off_c, 1, 59, 0
1, 38039, Note_off_c, 1, 76, 0
1, 38040, Note_on_c, 1, 54, 127
1, 38040, Note_on_c, 1, 75, 127
1, 38069, Note_off_c, 1, 75, 0
1, 38099, Note_off_c, 1, 63, 0
1, 38099, Note_off_c, 1, 54, 0
1, 38100, Note_on_c, 1, 66, 127
1, 38100, Note_on_c, 1, 78, 127
1, 38100, Note_on_c, 1, 61, 127
1, 38129, Note_off_c, 1, 78, 0
1, 38129, Note_off_c, 1, 61, 0
1, 38130, Note_on_c, 1, 81, 127
1, 38130, Note_on_c, 1, 59, 127
1, 38159, Note_off_c, 1, 81, 0
1, 38159, Note_off_c, 1, 59, 0
1, 38160, Note_on_c, 1, 79, 127
1, 38160, Note_on_c, 1, 64, 127
1, 38189, Note_off_c, 1, 79, 0
1, 38189, Note_off_c, 1, 64, 0
1, 38219, Note_off_c, 1, 66, 0
1, 38220, Note_on_c, 1, 59, 127
1, 38220, Note_on_c, 1, 76, 127
1, 38220, Note_on_c, 1, 67, 127
1, 38249, Note_off_c, 1, 76, 0
1, 38250, Note_on_c, 1, 75, 127
1, 38279, Note_off_c, 1, 59, 0
1, 38279, Note_off_c, 1, 75, 0
1, 38280, Note_on_c, 1, 64, 127
1, 38309, Note_off_c, 1, 67, 0
1, 38309, Note_off_c, 1, 64, 0
1, 38310, Note_on_c, 1, 66, 127
1, 38339, Note_off_c, 1, 66, 0
1, 38340, Note_on_c, 1, 67, 127
1, 38340, Note_on_c, 1, 71, 127
1, 38340, Note_on_c, 1, 64, 127
1, 38369, Note_off_c, 1, 64, 0
1, 38370, Note_on_c, 1, 62, 127
1, 38399, Note_off_c, 1, 71, 0
1, 38399, Note_off_c, 1, 62, 0
1, 38400, Note_on_c, 1, 76, 127
1, 38400, Note_on_c, 1, 61, 127
1, 38429, Note_off_c, 1, 67, 0
1, 38429, Note_off_c, 1, 76, 0
1, 38429, Note_off_c, 1, 61, 0
1, 38430, Note_on_c, 1, 66, 127
1, 38430, Note_on_c, 1, 78, 127
1, 38430, Note_on_c, 1, 62, 127
1, 38459, Note_off_c, 1, 66, 0
1, 38459, Note_off_c, 1, 78, 0
1, 38459, Note_off_c, 1, 62, 0
1, 38460, Note_on_c, 1, 64, 127
1, 38460, Note_on_c, 1, 79, 127
1, 38489, Note_off_c, 1, 64, 0
1, 38490, Note_on_c, 1, 62, 127
1, 38490, Note_on_c, 1, 61, 127
1, 38519, Note_off_c, 1, 62, 0
1, 38519, Note_off_c, 1, 61, 0
1, 38520, Note_on_c, 1, 58, 127
1, 38549, Note_off_c, 1, 58, 0
1, 38579, Note_off_c, 1, 79, 0
1, 38580, Note_on_c, 1, 66, 127
1, 38580, Note_on_c, 1, 78, 127
1, 38580, Note_on_c, 1, 54, 127
1, 38609, Note_off_c, 1, 78, 0
1, 38609, Note_off_c, 1, 54, 0
1, 38610, Note_on_c, 1, 76, 127
1, 38610, Note_on_c, 1, 58, 127
1, 38639, Note_off_c, 1, 76, 0
1, 38639, Note_off_c, 1, 58, 0
1, 38640, Note_on_c, 1, 74, 127
1, 38640, Note_on_c, 1, 59, 127
1, 38669, Note_off_c, 1, 66, 0
1, 38669, Note_off_c, 1, 74, 0
1, 38669, Note_off_c, 1, 59, 0
1, 38670, Note_on_c, 1, 64, 127
1, 38670, Note_on_c, 1, 76, 127
1, 38670, Note_on_c, 1, 61, 127
1, 38699, Note_off_c, 1, 64, 0
1, 38699, Note_off_c, 1, 76, 0
1, 38699, Note_off_c, 1, 61, 0
1, 38700, Note_on_c, 1, 62, 127
1, 38700, Note_on_c, 1, 78, 127
1, 38729, Note_off_c, 1, 62, 0
1, 38730, Note_on_c, 1, 61, 127
1, 38730, Note_on_c, 1, 59, 127
1, 38759, Note_off_c, 1, 61, 0
1, 38759, Note_off_c, 1, 59, 0
1, 38760, Note_on_c, 1, 55, 127
1, 38789, Note_off_c, 1, 78, 0
1, 38789, Note_off_c, 1, 55, 0
1, 38790, Note_on_c, 1, 74, 127
1, 38819, Note_off_c, 1, 74, 0
1, 38820, Note_on_c, 1, 67, 127
1, 38820, Note_on_c, 1, 73, 127
1, 38820, Note_on_c, 1, 52, 127
1, 38849, Note_off_c, 1, 73, 0
1, 38849, Note_off_c, 1, 52, 0
1, 38850, Note_on_c, 1, 71, 127
1, 38850, Note_on_c, 1, 55, 127
1, 38879, Note_off_c, 1, 71, 0
1, 38879, Note_off_c, 1, 55, 0
1, 38880, Note_on_c, 1, 70, 127
1, 38880, Note_on_c, 1, 49, 127
1, 38909, Note_off_c, 1, 67, 0
1, 38909, Note_off_c, 1, 70, 0
1, 38910, Note_on_c, 1, 58, 127
1, 38910, Note_on_c, 1, 79, 127
1, 38939, Note_off_c, 1, 49, 0
1, 38939, Note_off_c, 1, 58, 0
1, 38939, Note_off_c, 1, 79, 0
1, 38940, Note_on_c, 1, 59, 127
1, 38940, Note_on_c, 1, 78, 127
1, 38940, Note_on_c, 1, 50, 127
1, 38969, Note_off_c, 1, 59, 0
1, 38969, Note_off_c, 1, 78, 0
1, 38969, Note_off_c, 1, 50, 0
1, 38970, Note_on_c, 1, 61, 127
1, 38970, Note_on_c, 1, 76, 127
1, 38970, Note_on_c, 1, 52, 127
1, 38999, Note_off_c, 1, 61, 0
1, 38999, Note_off_c, 1, 76, 0
1, 38999, Note_off_c, 1, 52, 0
1, 39000, Note_on_c, 1, 54, 127
1, 39000, Note_on_c, 1, 74, 127
1, 39059, Note_off_c, 1, 54, 0
1, 39059, Note_off_c, 1, 74, 0
1, 39060, Note_on_c, 1, 58, 127
1, 39060, Note_on_c, 1, 73, 127
1, 39060, Note_on_c, 1, 42, 127
1, 39089, Note_off_c, 1, 73, 0
1, 39090, Note_on_c, 1, 71, 127
1, 39119, Note_off_c, 1, 58, 0
1, 39119, Note_off_c, 1, 42, 0
1, 39119, Note_off_c, 1, 71, 0
1, 39120, Note_on_c, 1, 59, 127
1, 39120, Note_on_c, 1, 71, 127
1, 39120, Note_on_c, 1, 62, 127
1, 39120, Note_on_c, 1, 47, 127
1, 39149, Note_off_c, 1, 59, 0
1, 39149, Note_off_c, 1, 71, 0
1, 39150, Note_on_c, 1, 61, 127
1, 39150, Note_on_c, 1, 66, 127
1, 39179, Note_off_c, 1, 62, 0
1, 39179, Note_off_c, 1, 47, 0
1, 39179, Note_off_c, 1, 61, 0
1, 39179, Note_off_c, 1, 66, 0
1, 39180, Note_on_c, 1, 62, 127
1, 39180, Note_on_c, 1, 71, 127
1, 39180, Note_on_c, 1, 35, 127
1, 39209, Note_off_c, 1, 71, 0
1, 39210, Note_on_c, 1, 73, 127
1, 39210, Note_on_c, 1, 64, 127
1, 39239, Note_off_c, 1, 35, 0
1, 39239, Note_off_c, 1, 73, 0
1, 39239, Note_off_c, 1, 64, 0
1, 39240, Note_on_c, 1, 74, 127
1, 39240, Note_on_c, 1, 66, 127
1, 39270, Note_on_c, 1, 47, 127
1, 39299, Note_off_c, 1, 62, 0
1, 39299, Note_off_c, 1, 74, 0
1, 39299, Note_off_c, 1, 66, 0
1, 39299, Note_off_c, 1, 47, 0
1, 39300, Note_on_c, 1, 61, 127
1, 39300, Note_on_c, 1, 49, 127
1, 39329, Note_off_c, 1, 61, 0
1, 39329, Note_off_c, 1, 49, 0
1, 39330, Note_on_c, 1, 59, 127
1, 39330, Note_on_c, 1, 50, 127
1, 39359, Note_off_c, 1, 59, 0
1, 39359, Note_off_c, 1, 50, 0
1, 39360, Note_on_c, 1, 57, 127
1, 39360, Note_on_c, 1, 52, 127
1, 39389, Note_off_c, 1, 57, 0
1, 39390, Note_on_c, 1, 56, 127
1, 39390, Note_on_c, 1, 74, 127
1, 39419, Note_off_c, 1, 52, 0
1, 39419, Note_off_c, 1, 56, 0
1, 39419, Note_off_c, 1, 74, 0
1, 39420, Note_on_c, 1, 54, 127
1, 39420, Note_on_c, 1, 71, 127
1, 39420, Note_on_c, 1, 40, 127
1, 39449, Note_off_c, 1, 54, 0
1, 39449, Note_off_c, 1, 71, 0
1, 39450, Note_on_c, 1, 52, 127
1, 39450, Note_on_c, 1, 73, 127
1, 39479, Note_off_c, 1, 40, 0
1, 39479, Note_off_c, 1, 52, 0
1, 39479, Note_off_c, 1, 73, 0
1, 39480, Note_on_c, 1, 54, 127
1, 39480, Note_on_c, 1, 74, 127
1, 39509, Note_off_c, 1, 54, 0
1, 39509, Note_off_c, 1, 74, 0
1, 39510, Note_on_c, 1, 56, 127
1, 39510, Note_on_c, 1, 78, 127
1, 39510, Note_on_c, 1, 52, 127
1, 39539, Note_off_c, 1, 56, 0
1, 39539, Note_off_c, 1, 78, 0
1, 39539, Note_off_c, 1, 52, 0
1, 39540, Note_on_c, 1, 57, 127
1, 39540, Note_on_c, 1, 76, 127
1, 39540, Note_on_c, 1, 54, 127
1, 39569, Note_off_c, 1, 57, 0
1, 39569, Note_off_c, 1, 76, 0
1, 39569, Note_off_c, 1, 54, 0
1, 39570, Note_on_c, 1, 59, 127
1, 39570, Note_on_c, 1, 74, 127
1, 39570, Note_on_c, 1, 56, 127
1, 39599, Note_off_c, 1, 59, 0
1, 39599, Note_off_c, 1, 74, 0
1, 39599, Note_off_c, 1, 56, 0
1, 39600, Note_on_c, 1, 61, 127
1, 39600, Note_on_c, 1, 73, 127
1, 39600, Note_on_c, 1, 57, 127
1, 39629, Note_off_c, 1, 61, 0
1, 39629, Note_off_c, 1, 73, 0
1, 39630, Note_on_c, 1, 62, 127
1, 39630, Note_on_c, 1, 71, 127
1, 39659, Note_off_c, 1, 57, 0
1, 39659, Note_off_c, 1, 62, 0
1, 39659, Note_off_c, 1, 71, 0
1, 39660, Note_on_c, 1, 64, 127
1, 39660, Note_on_c, 1, 73, 127
1, 39660, Note_on_c, 1, 54, 127
1, 39689, Note_off_c, 1, 64, 0
1, 39689, Note_off_c, 1, 73, 0
1, 39690, Note_on_c, 1, 66, 127
1, 39690, Note_on_c, 1, 74, 127
1, 39719, Note_off_c, 1, 54, 0
1, 39719, Note_off_c, 1, 66, 0
1, 39719, Note_off_c, 1, 74, 0
1, 39720, Note_on_c, 1, 64, 127
1, 39720, Note_on_c, 1, 73, 127
1, 39720, Note_on_c, 1, 50, 127
1, 39749, Note_off_c, 1, 64, 0
1, 39749, Note_off_c, 1, 73, 0
1, 39750, Note_on_c, 1, 62, 127
1, 39750, Note_on_c, 1, 71, 127
1, 39779, Note_off_c, 1, 50, 0
1, 39779, Note_off_c, 1, 62, 0
1, 39779, Note_off_c, 1, 71, 0
1, 39780, Note_on_c, 1, 61, 127
1, 39780, Note_on_c, 1, 69, 127
1, 39780, Note_on_c, 1, 52, 127
1, 39809, Note_off_c, 1, 61, 0
1, 39809, Note_off_c, 1, 69, 0
1, 39810, Note_on_c, 1, 59, 127
1, 39810, Note_on_c, 1, 68, 127
1, 39839, Note_off_c, 1, 52, 0
1, 39839, Note_off_c, 1, 59, 0
1, 39839, Note_off_c, 1, 68, 0
1, 39840, Note_on_c, 1, 62, 127
1, 39840, Note_on_c, 1, 76, 127
1, 39840, Note_on_c, 1, 73, 127
1, 39840, Note_on_c, 1, 69, 127
1, 39840, Note_on_c, 1, 45, 127
1, 39869, Note_off_c, 1, 62, 0
1, 39869, Note_off_c, 1, 76, 0
1, 39870, Note_on_c, 1, 61, 127
1, 39870, Note_on_c, 1, 78, 127
1, 39899, Note_off_c, 1, 45, 0
1, 39899, Note_off_c, 1, 61, 0
1, 39899, Note_off_c, 1, 78, 0
1, 39900, Note_on_c, 1, 59, 127
1, 39900, Note_on_c, 1, 79, 127
1, 39900, Note_on_c, 1, 40, 127
1, 39929, Note_off_c, 1, 59, 0
1, 39959, Note_off_c, 1, 40, 0
1, 39960, Note_on_c, 1, 57, 127
1, 39960, Note_on_c, 1, 33, 127
1, 39989, Note_off_c, 1, 33, 0
1, 39990, Note_on_c, 1, 52, 127
1, 40019, Note_off_c, 1, 73, 0
1, 40019, Note_off_c, 1, 69, 0
1, 40019, Note_off_c, 1, 79, 0
1, 40019, Note_off_c, 1, 52, 0
1, 40020, Note_on_c, 1, 54, 127
1, 40049, Note_off_c, 1, 54, 0
1, 40050, Note_on_c, 1, 55, 127
1, 40079, Note_off_c, 1, 57, 0
1, 40079, Note_off_c, 1, 55, 0
1, 40080, Note_on_c, 1, 74, 127
1, 40080, Note_on_c, 1, 57, 127
1, 40109, Note_off_c, 1, 74, 0
1, 40110, Note_on_c, 1, 73, 127
1, 40139, Note_off_c, 1, 57, 0
1, 40139, Note_off_c, 1, 73, 0
1, 40140, Note_on_c, 1, 64, 127
1, 40140, Note_on_c, 1, 71, 127
1, 40140, Note_on_c, 1, 45, 127
1, 40169, Note_off_c, 1, 64, 0
1, 40169, Note_off_c, 1, 71, 0
1, 40170, Note_on_c, 1, 66, 127
1, 40170, Note_on_c, 1, 69, 127
1, 40199, Note_off_c, 1, 45, 0
1, 40199, Note_off_c, 1, 66, 0
1, 40199, Note_off_c, 1, 69, 0
1, 40200, Note_on_c, 1, 67, 127
1, 40200, Note_on_c, 1, 71, 127
1, 40229, Note_off_c, 1, 71, 0
1, 40230, Note_on_c, 1, 73, 127
1, 40230, Note_on_c, 1, 57, 127
1, 40259, Note_off_c, 1, 67, 0
1, 40259, Note_off_c, 1, 73, 0
1, 40259, Note_off_c, 1, 57, 0
1, 40260, Note_on_c, 1, 74, 127
1, 40260, Note_on_c, 1, 59, 127
1, 40289, Note_off_c, 1, 74, 0
1, 40289, Note_off_c, 1, 59, 0
1, 40290, Note_on_c, 1, 76, 127
1, 40290, Note_on_c, 1, 61, 127
1, 40319, Note_off_c, 1, 76, 0
1, 40319, Note_off_c, 1, 61, 0
1, 40320, Note_on_c, 1, 78, 127
1, 40320, Note_on_c, 1, 62, 127
1, 40349, Note_off_c, 1, 78, 0
1, 40350, Note_on_c, 1, 79, 127
1, 40379, Note_off_c, 1, 62, 0
1, 40379, Note_off_c, 1, 79, 0
1, 40380, Note_on_c, 1, 66, 127
1, 40380, Note_on_c, 1, 81, 127
1, 40380, Note_on_c, 1, 59, 127
1, 40409, Note_off_c, 1, 66, 0
1, 40409, Note_off_c, 1, 81, 0
1, 40410, Note_on_c, 1, 67, 127
1, 40410, Note_on_c, 1, 83, 127
1, 40439, Note_off_c, 1, 59, 0
1, 40439, Note_off_c, 1, 67, 0
1, 40439, Note_off_c, 1, 83, 0
1, 40440, Note_on_c, 1, 66, 127
1, 40440, Note_on_c, 1, 81, 127
1, 40440, Note_on_c, 1, 55, 127
1, 40469, Note_off_c, 1, 66, 0
1, 40469, Note_off_c, 1, 81, 0
1, 40470, Note_on_c, 1, 64, 127
1, 40470, Note_on_c, 1, 79, 127
1, 40499, Note_off_c, 1, 55, 0
1, 40499, Note_off_c, 1, 64, 0
1, 40499, Note_off_c, 1, 79, 0
1, 40500, Note_on_c, 1, 62, 127
1, 40500, Note_on_c, 1, 78, 127
1, 40500, Note_on_c, 1, 57, 127
1, 40529, Note_off_c, 1, 62, 0
1, 40529, Note_off_c, 1, 78, 0
1, 40530, Note_on_c, 1, 61, 127
1, 40530, Note_on_c, 1, 76, 127
1, 40559, Note_off_c, 1, 57, 0
1, 40559, Note_off_c, 1, 61, 0
1, 40559, Note_off_c, 1, 76, 0
1, 40560, Note_on_c, 1, 62, 127
1, 40560, Note_on_c, 1, 79, 127
1, 40560, Note_on_c, 1, 50, 127
1, 40589, Note_off_c, 1, 79, 0
1, 40590, Note_on_c, 1, 78, 127
1, 40619, Note_off_c, 1, 62, 0
1, 40619, Note_off_c, 1, 78, 0
1, 40620, Note_on_c, 1, 66, 127
1, 40620, Note_on_c, 1, 76, 127
1, 40649, Note_off_c, 1, 76, 0
1, 40679, Note_off_c, 1, 50, 0
1, 40679, Note_off_c, 1, 66, 0
1, 40680, Note_on_c, 1, 71, 127
1, 40680, Note_on_c, 1, 74, 127
1, 40709, Note_off_c, 1, 74, 0
1, 40710, Note_on_c, 1, 81, 127
1, 40710, Note_on_c, 1, 49, 127
1, 40739, Note_off_c, 1, 81, 0
1, 40739, Note_off_c, 1, 49, 0
1, 40740, Note_on_c, 1, 79, 127
1, 40740, Note_on_c, 1, 50, 127
1, 40769, Note_off_c, 1, 79, 0
1, 40769, Note_off_c, 1, 50, 0
1, 40770, Note_on_c, 1, 83, 127
1, 40770, Note_on_c, 1, 47, 127
1, 40799, Note_off_c, 1, 71, 0
1, 40799, Note_off_c, 1, 83, 0
1, 40799, Note_off_c, 1, 47, 0
1, 40800, Note_on_c, 1, 78, 127
1, 40800, Note_on_c, 1, 49, 127
1, 40815, Note_off_c, 1, 78, 0
1, 40815, Note_on_c, 1, 77, 127
1, 40830, Note_off_c, 1, 77, 0
1, 40830, Note_on_c, 1, 68, 127
1, 40859, Note_off_c, 1, 49, 0
1, 40859, Note_off_c, 1, 68, 0
1, 40860, Note_on_c, 1, 69, 127
1, 40860, Note_on_c, 1, 42, 127
1, 40889, Note_off_c, 1, 69, 0
1, 40890, Note_on_c, 1, 66, 127
1, 40890, Note_on_c, 1, 85, 127
1, 40919, Note_off_c, 1, 42, 0
1, 40919, Note_off_c, 1, 66, 0
1, 40919, Note_off_c, 1, 85, 0
1, 40920, Note_on_c, 1, 66, 127
1, 40920, Note_on_c, 1, 83, 127
1, 40920, Note_on_c, 1, 49, 127
1, 40949, Note_off_c, 1, 66, 0
1, 40949, Note_off_c, 1, 83, 0
1, 40950, Note_on_c, 1, 65, 127
1, 40950, Note_on_c, 1, 81, 127
1, 40965, Note_off_c, 1, 65, 0
1, 40979, Note_off_c, 1, 49, 0
1, 40979, Note_off_c, 1, 81, 0
1, 40980, Note_on_c, 1, 80, 127
1, 40980, Note_on_c, 1, 37, 127
1, 41009, Note_off_c, 1, 80, 0
1, 41039, Note_off_c, 1, 37, 0
1, 41040, Note_on_c, 1, 66, 127
1, 41040, Note_on_c, 1, 78, 127
1, 41040, Note_on_c, 1, 42, 127
1, 41069, Note_off_c, 1, 42, 0
1, 41070, Note_on_c, 1, 45, 127
1, 41099, Note_off_c, 1, 45, 0
1, 41100, Note_on_c, 1, 49, 127
1, 41129, Note_off_c, 1, 49, 0
1, 41130, Note_on_c, 1, 53, 127
1, 41159, Note_off_c, 1, 53, 0
1, 41160, Note_on_c, 1, 54, 127
1, 41189, Note_off_c, 1, 54, 0
1, 41190, Note_on_c, 1, 57, 127
1, 41219, Note_off_c, 1, 57, 0
1, 41220, Note_on_c, 1, 59, 127
1, 41249, Note_off_c, 1, 59, 0
1, 41250, Note_on_c, 1, 61, 127
1, 41279, Note_off_c, 1, 66, 0
1, 41279, Note_off_c, 1, 78, 0
1, 41279, Note_off_c, 1, 61, 0
1, 41280, Note_on_c, 1, 66, 127
1, 41280, Note_on_c, 1, 62, 127
1, 41309, Note_off_c, 1, 66, 0
1, 41309, Note_off_c, 1, 62, 0
1, 41310, Note_on_c, 1, 67, 127
1, 41310, Note_on_c, 1, 64, 127
1, 41339, Note_off_c, 1, 67, 0
1, 41339, Note_off_c, 1, 64, 0
1, 41340, Note_on_c, 1, 69, 127
1, 41340, Note_on_c, 1, 74, 127
1, 41340, Note_on_c, 1, 78, 127
1, 41340, Note_on_c, 1, 66, 127
1, 41369, Note_off_c, 1, 74, 0
1, 41369, Note_off_c, 1, 78, 0
1, 41369, Note_off_c, 1, 66, 0
1, 41370, Note_on_c, 1, 79, 127
1, 41370, Note_on_c, 1, 76, 127
1, 41370, Note_on_c, 1, 62, 127
1, 41399, Note_off_c, 1, 79, 0
1, 41399, Note_off_c, 1, 76, 0
1, 41399, Note_off_c, 1, 62, 0
1, 41400, Note_on_c, 1, 81, 127
1, 41400, Note_on_c, 1, 57, 127
1, 41429, Note_off_c, 1, 57, 0
1, 41459, Note_off_c, 1, 69, 0
1, 41459, Note_off_c, 1, 81, 0
1, 41460, Note_on_c, 1, 67, 127
1, 41460, Note_on_c, 1, 64, 127
1, 41489, Note_off_c, 1, 67, 0
1, 41489, Note_off_c, 1, 64, 0
1, 41490, Note_on_c, 1, 66, 127
1, 41490, Note_on_c, 1, 62, 127
1, 41519, Note_off_c, 1, 66, 0
1, 41519, Note_off_c, 1, 62, 0
1, 41520, Note_on_c, 1, 64, 127
1, 41520, Note_on_c, 1, 61, 127
1, 41549, Note_off_c, 1, 64, 0
1, 41549, Note_off_c, 1, 61, 0
1, 41550, Note_on_c, 1, 66, 127
1, 41550, Note_on_c, 1, 62, 127
1, 41579, Note_off_c, 1, 66, 0
1, 41579, Note_off_c, 1, 62, 0
1, 41580, Note_on_c, 1, 67, 127
1, 41580, Note_on_c, 1, 73, 127
1, 41580, Note_on_c, 1, 76, 127
1, 41580, Note_on_c, 1, 64, 127
1, 41609, Note_off_c, 1, 73, 0
1, 41609, Note_off_c, 1, 76, 0
1, 41609, Note_off_c, 1, 64, 0
1, 41610, Note_on_c, 1, 78, 127
1, 41610, Note_on_c, 1, 74, 127
1, 41610, Note_on_c, 1, 61, 127
1, 41639, Note_off_c, 1, 78, 0
1, 41639, Note_off_c, 1, 74, 0
1, 41639, Note_off_c, 1, 61, 0
1, 41640, Note_on_c, 1, 79, 127
1, 41640, Note_on_c, 1, 57, 127
1, 41669, Note_off_c, 1, 57, 0
1, 41699, Note_off_c, 1, 67, 0
1, 41699, Note_off_c, 1, 79, 0
1, 41700, Note_on_c, 1, 66, 127
1, 41700, Note_on_c, 1, 62, 127
1, 41729, Note_off_c, 1, 66, 0
1, 41729, Note_off_c, 1, 62, 0
1, 41730, Note_on_c, 1, 64, 127
1, 41730, Note_on_c, 1, 61, 127
1, 41759, Note_off_c, 1, 64, 0
1, 41759, Note_off_c, 1, 61, 0
1, 41760, Note_on_c, 1, 66, 127
1, 41760, Note_on_c, 1, 62, 127
1, 41789, Note_off_c, 1, 62, 0
1, 41790, Note_on_c, 1, 57, 127
1, 41819, Note_off_c, 1, 66, 0
1, 41819, Note_off_c, 1, 57, 0
1, 41820, Note_on_c, 1, 62, 127
1, 41820, Note_on_c, 1, 81, 127
1, 41820, Note_on_c, 1, 74, 127
1, 41820, Note_on_c, 1, 69, 127
1, 41820, Note_on_c, 1, 54, 127
1, 41849, Note_off_c, 1, 54, 0
1, 41850, Note_on_c, 1, 57, 127
1, 41879, Note_off_c, 1, 62, 0
1, 41879, Note_off_c, 1, 81, 0
1, 41879, Note_off_c, 1, 74, 0
1, 41879, Note_off_c, 1, 69, 0
1, 41879, Note_off_c, 1, 57, 0
1, 41880, Note_on_c, 1, 61, 127
1, 41880, Note_on_c, 1, 79, 127
1, 41880, Note_on_c, 1, 73, 127
1, 41880, Note_on_c, 1, 69, 127
1, 41880, Note_on_c, 1, 52, 127
1, 41895, Note_off_c, 1, 61, 0
1, 41895, Note_on_c, 1, 62, 127
1, 41909, Note_off_c, 1, 52, 0
1, 41910, Note_off_c, 1, 62, 0
1, 41910, Note_on_c, 1, 57, 127
1, 41939, Note_off_c, 1, 79, 0
1, 41939, Note_off_c, 1, 73, 0
1, 41939, Note_off_c, 1, 69, 0
1, 41939, Note_off_c, 1, 57, 0
1, 41940, Note_on_c, 1, 62, 127
1, 41940, Note_on_c, 1, 78, 127
1, 41940, Note_on_c, 1, 69, 127
1, 41940, Note_on_c, 1, 74, 127
1, 41940, Note_on_c, 1, 50, 127
1, 41969, Note_off_c, 1, 50, 0
1, 41970, Note_on_c, 1, 57, 127
1, 41999, Note_off_c, 1, 62, 0
1, 41999, Note_off_c, 1, 78, 0
1, 41999, Note_off_c, 1, 69, 0
1, 41999, Note_off_c, 1, 74, 0
1, 41999, Note_off_c, 1, 57, 0
1, 42000, Note_on_c, 1, 64, 127
1, 42000, Note_on_c, 1, 76, 127
1, 42000, Note_on_c, 1, 69, 127
1, 42000, Note_on_c, 1, 49, 127
1, 42029, Note_off_c, 1, 49, 0
1, 42030, Note_on_c, 1, 62, 127
1, 42030, Note_on_c, 1, 57, 127
1, 42059, Note_off_c, 1, 62, 0
1, 42059, Note_off_c, 1, 57, 0
1, 42060, Note_on_c, 1, 61, 127
1, 42060, Note_on_c, 1, 45, 127
1, 42089, Note_off_c, 1, 61, 0
1, 42089, Note_off_c, 1, 45, 0
1, 42090, Note_on_c, 1, 59, 127
1, 42119, Note_off_c, 1, 64, 0
1, 42119, Note_off_c, 1, 76, 0
1, 42119, Note_off_c, 1, 69, 0
1, 42119, Note_off_c, 1, 59, 0
1, 42120, Note_on_c, 1, 57, 127
1, 42120, Note_on_c, 1, 47, 127
1, 42149, Note_off_c, 1, 57, 0
1, 42149, Note_off_c, 1, 47, 0
1, 42150, Note_on_c, 1, 55, 127
1, 42150, Note_on_c, 1, 57, 127
1, 42179, Note_off_c, 1, 55, 0
1, 42179, Note_off_c, 1, 57, 0
1, 42180, Note_on_c, 1, 54, 127
1, 42180, Note_on_c, 1, 49, 127
1, 42209, Note_off_c, 1, 54, 0
1, 42209, Note_off_c, 1, 49, 0
1, 42210, Note_on_c, 1, 52, 127
1, 42210, Note_on_c, 1, 57, 127
1, 42239, Note_off_c, 1, 52, 0
1, 42239, Note_off_c, 1, 57, 0
1, 42240, Note_on_c, 1, 50, 127
1, 42240, Note_on_c, 1, 78, 127
1, 42269, Note_off_c, 1, 78, 0
1, 42270, Note_on_c, 1, 52, 127
1, 42270, Note_on_c, 1, 79, 127
1, 42299, Note_off_c, 1, 50, 0
1, 42299, Note_off_c, 1, 52, 0
1, 42299, Note_off_c, 1, 79, 0
1, 42300, Note_on_c, 1, 54, 127
1, 42300, Note_on_c, 1, 81, 127
1, 42300, Note_on_c, 1, 38, 127
1, 42329, Note_off_c, 1, 54, 0
1, 42329, Note_off_c, 1, 38, 0
1, 42330, Note_on_c, 1, 52, 127
1, 42330, Note_on_c, 1, 40, 127
1, 42359, Note_off_c, 1, 52, 0
1, 42359, Note_off_c, 1, 40, 0
1, 42360, Note_on_c, 1, 50, 127
1, 42360, Note_on_c, 1, 42, 127
1, 42389, Note_off_c, 1, 50, 0
1, 42419, Note_off_c, 1, 81, 0
1, 42419, Note_off_c, 1, 42, 0
1, 42420, Note_on_c, 1, 57, 127
1, 42420, Note_on_c, 1, 79, 127
1, 42420, Note_on_c, 1, 38, 127
1, 42449, Note_off_c, 1, 57, 0
1, 42449, Note_off_c, 1, 79, 0
1, 42450, Note_on_c, 1, 62, 127
1, 42450, Note_on_c, 1, 78, 127
1, 42479, Note_off_c, 1, 38, 0
1, 42479, Note_off_c, 1, 62, 0
1, 42479, Note_off_c, 1, 78, 0
1, 42480, Note_on_c, 1, 61, 127
1, 42480, Note_on_c, 1, 76, 127
1, 42480, Note_on_c, 1, 45, 127
1, 42509, Note_off_c, 1, 61, 0
1, 42509, Note_off_c, 1, 76, 0
1, 42510, Note_on_c, 1, 62, 127
1, 42510, Note_on_c, 1, 78, 127
1, 42539, Note_off_c, 1, 45, 0
1, 42539, Note_off_c, 1, 62, 0
1, 42539, Note_off_c, 1, 78, 0
1, 42540, Note_on_c, 1, 64, 127
1, 42540, Note_on_c, 1, 79, 127
1, 42540, Note_on_c, 1, 49, 127
1, 42569, Note_off_c, 1, 64, 0
1, 42569, Note_off_c, 1, 49, 0
1, 42570, Note_on_c, 1, 62, 127
1, 42570, Note_on_c, 1, 47, 127
1, 42599, Note_off_c, 1, 62, 0
1, 42599, Note_off_c, 1, 47, 0
1, 42600, Note_on_c, 1, 61, 127
1, 42600, Note_on_c, 1, 45, 127
1, 42629, Note_off_c, 1, 61, 0
1, 42659, Note_off_c, 1, 79, 0
1, 42659, Note_off_c, 1, 45, 0
1, 42660, Note_on_c, 1, 57, 127
1, 42660, Note_on_c, 1, 78, 127
1, 42689, Note_off_c, 1, 78, 0
1, 42690, Note_on_c, 1, 61, 127
1, 42690, Note_on_c, 1, 76, 127
1, 42719, Note_off_c, 1, 57, 0
1, 42719, Note_off_c, 1, 61, 0
1, 42719, Note_off_c, 1, 76, 0
1, 42720, Note_on_c, 1, 62, 127
1, 42720, Note_on_c, 1, 78, 127
1, 42720, Note_on_c, 1, 50, 127
1, 42749, Note_off_c, 1, 62, 0
1, 42750, Note_on_c, 1, 57, 127
1, 42779, Note_off_c, 1, 78, 0
1, 42779, Note_off_c, 1, 57, 0
1, 42780, Note_on_c, 1, 66, 127
1, 42780, Note_on_c, 1, 74, 127
1, 42809, Note_off_c, 1, 66, 0
1, 42839, Note_off_c, 1, 50, 0
1, 42839, Note_off_c, 1, 74, 0
1, 42840, Note_on_c, 1, 64, 127
1, 42840, Note_on_c, 1, 73, 127
1, 42854, Note_off_c, 1, 73, 0
1, 42855, Note_on_c, 1, 74, 127
1, 42869, Note_off_c, 1, 64, 0
1, 42869, Note_off_c, 1, 74, 0
1, 42870, Note_on_c, 1, 57, 127
1, 42870, Note_on_c, 1, 73, 127
1, 42870, Note_on_c, 1, 52, 127
1, 42899, Note_off_c, 1, 57, 0
1, 42899, Note_off_c, 1, 73, 0
1, 42899, Note_off_c, 1, 52, 0
1, 42900, Note_on_c, 1, 62, 127
1, 42900, Note_on_c, 1, 74, 127
1, 42900, Note_on_c, 1, 54, 127
1, 42929, Note_off_c, 1, 62, 0
1, 42929, Note_off_c, 1, 54, 0
1, 42930, Note_on_c, 1, 57, 127
1, 42930, Note_on_c, 1, 50, 127
1, 42959, Note_off_c, 1, 74, 0
1, 42959, Note_off_c, 1, 57, 0
1, 42959, Note_off_c, 1, 50, 0
1, 42960, Note_on_c, 1, 61, 127
1, 42960, Note_on_c, 1, 76, 127
1, 42960, Note_on_c, 1, 57, 127
1, 42989, Note_off_c, 1, 61, 0
1, 42989, Note_off_c, 1, 76, 0
1, 42990, Note_on_c, 1, 62, 127
1, 42990, Note_on_c, 1, 74, 127
1, 43019, Note_off_c, 1, 57, 0
1, 43019, Note_off_c, 1, 62, 0
1, 43019, Note_off_c, 1, 74, 0
1, 43020, Note_on_c, 1, 64, 127
1, 43020, Note_on_c, 1, 73, 127
1, 43020, Note_on_c, 1, 45, 127
1, 43049, Note_off_c, 1, 64, 0
1, 43049, Note_off_c, 1, 73, 0
1, 43050, Note_on_c, 1, 62, 127
1, 43050, Note_on_c, 1, 71, 127
1, 43079, Note_off_c, 1, 45, 0
1, 43079, Note_off_c, 1, 62, 0
1, 43079, Note_off_c, 1, 71, 0
1, 43080, Note_on_c, 1, 61, 127
1, 43080, Note_on_c, 1, 69, 127
1, 43109, Note_off_c, 1, 61, 0
1, 43109, Note_off_c, 1, 69, 0
1, 43110, Note_on_c, 1, 59, 127
1, 43110, Note_on_c, 1, 67, 127
1, 43110, Note_on_c, 1, 45, 127
1, 43139, Note_off_c, 1, 59, 0
1, 43139, Note_off_c, 1, 67, 0
1, 43139, Note_off_c, 1, 45, 0
1, 43140, Note_on_c, 1, 57, 127
1, 43140, Note_on_c, 1, 66, 127
1, 43140, Note_on_c, 1, 47, 127
1, 43169, Note_off_c, 1, 57, 0
1, 43169, Note_off_c, 1, 66, 0
1, 43169, Note_off_c, 1, 47, 0
1, 43170, Note_on_c, 1, 55, 127
1, 43170, Note_on_c, 1, 64, 127
1, 43170, Note_on_c, 1, 49, 127
1, 43199, Note_off_c, 1, 55, 0
1, 43199, Note_off_c, 1, 64, 0
1, 43199, Note_off_c, 1, 49, 0
1, 43200, Note_on_c, 1, 54, 127
1, 43200, Note_on_c, 1, 69, 127
1, 43200, Note_on_c, 1, 66, 127
1, 43200, Note_on_c, 1, 62, 127
1, 43200, Note_on_c, 1, 50, 127
1, 43229, Note_off_c, 1, 54, 0
1, 43229, Note_off_c, 1, 50, 0
1, 43230, Note_on_c, 1, 55, 127
1, 43230, Note_on_c, 1, 52, 127
1, 43259, Note_off_c, 1, 69, 0
1, 43259, Note_off_c, 1, 66, 0
1, 43259, Note_off_c, 1, 62, 0
1, 43259, Note_off_c, 1, 55, 0
1, 43259, Note_off_c, 1, 52, 0
1, 43260, Note_on_c, 1, 57, 127
1, 43260, Note_on_c, 1, 74, 127
1, 43260, Note_on_c, 1, 54, 127
1, 43289, Note_off_c, 1, 57, 0
1, 43289, Note_off_c, 1, 74, 0
1, 43290, Note_on_c, 1, 73, 127
1, 43319, Note_off_c, 1, 73, 0
1, 43320, Note_on_c, 1, 50, 127
1, 43349, Note_off_c, 1, 50, 0
1, 43379, Note_off_c, 1, 54, 0
1, 43380, Note_on_c, 1, 52, 127
1, 43409, Note_off_c, 1, 52, 0
1, 43410, Note_on_c, 1, 60, 127
1, 43439, Note_off_c, 1, 60, 0
1, 43440, Note_on_c, 1, 59, 127
1, 43440, Note_on_c, 1, 55, 127
1, 43469, Note_off_c, 1, 59, 0
1, 43469, Note_off_c, 1, 55, 0
1, 43470, Note_on_c, 1, 60, 127
1, 43470, Note_on_c, 1, 72, 127
1, 43470, Note_on_c, 1, 57, 127
1, 43499, Note_off_c, 1, 60, 0
1, 43499, Note_off_c, 1, 72, 0
1, 43499, Note_off_c, 1, 57, 0
1, 43500, Note_on_c, 1, 62, 127
1, 43500, Note_on_c, 1, 71, 127
1, 43500, Note_on_c, 1, 59, 127
1, 43529, Note_off_c, 1, 71, 0
1, 43530, Note_on_c, 1, 74, 127
1, 43559, Note_off_c, 1, 74, 0
1, 43560, Note_on_c, 1, 79, 127
1, 43589, Note_off_c, 1, 62, 0
1, 43589, Note_off_c, 1, 59, 0
1, 43589, Note_off_c, 1, 79, 0
1, 43590, Note_on_c, 1, 50, 127
1, 43590, Note_on_c, 1, 74, 127
1, 43590, Note_on_c, 1, 57, 127
1, 43619, Note_off_c, 1, 50, 0
1, 43619, Note_off_c, 1, 74, 0
1, 43619, Note_off_c, 1, 57, 0
1, 43620, Note_on_c, 1, 52, 127
1, 43620, Note_on_c, 1, 71, 127
1, 43620, Note_on_c, 1, 55, 127
1, 43649, Note_off_c, 1, 52, 0
1, 43649, Note_off_c, 1, 71, 0
1, 43649, Note_off_c, 1, 55, 0
1, 43650, Note_on_c, 1, 54, 127
1, 43650, Note_on_c, 1, 67, 127
1, 43679, Note_off_c, 1, 54, 0
1, 43679, Note_off_c, 1, 67, 0
1, 43680, Note_on_c, 1, 55, 127
1, 43680, Note_on_c, 1, 71, 127
1, 43680, Note_on_c, 1, 67, 127
1, 43680, Note_on_c, 1, 64, 127
1, 43680, Note_on_c, 1, 52, 127
1, 43709, Note_off_c, 1, 55, 0
1, 43709, Note_off_c, 1, 52, 0
1, 43710, Note_on_c, 1, 57, 127
1, 43710, Note_on_c, 1, 54, 127
1, 43739, Note_off_c, 1, 71, 0
1, 43739, Note_off_c, 1, 67, 0
1, 43739, Note_off_c, 1, 64, 0
1, 43739, Note_off_c, 1, 57, 0
1, 43739, Note_off_c, 1, 54, 0
1, 43740, Note_on_c, 1, 59, 127
1, 43740, Note_on_c, 1, 76, 127
1, 43740, Note_on_c, 1, 55, 127
1, 43769, Note_off_c, 1, 59, 0
1, 43769, Note_off_c, 1, 76, 0
1, 43770, Note_on_c, 1, 75, 127
1, 43799, Note_off_c, 1, 75, 0
1, 43800, Note_on_c, 1, 52, 127
1, 43829, Note_off_c, 1, 52, 0
1, 43859, Note_off_c, 1, 55, 0
1, 43860, Note_on_c, 1, 54, 127
1, 43889, Note_off_c, 1, 54, 0
1, 43890, Note_on_c, 1, 62, 127
1, 43919, Note_off_c, 1, 62, 0
1, 43920, Note_on_c, 1, 61, 127
1, 43920, Note_on_c, 1, 57, 127
1, 43949, Note_off_c, 1, 61, 0
1, 43949, Note_off_c, 1, 57, 0
1, 43950, Note_on_c, 1, 62, 127
1, 43950, Note_on_c, 1, 74, 127
1, 43950, Note_on_c, 1, 59, 127
1, 43979, Note_off_c, 1, 62, 0
1, 43979, Note_off_c, 1, 74, 0
1, 43979, Note_off_c, 1, 59, 0
1, 43980, Note_on_c, 1, 64, 127
1, 43980, Note_on_c, 1, 73, 127
1, 43980, Note_on_c, 1, 61, 127
1, 44009, Note_off_c, 1, 73, 0
1, 44010, Note_on_c, 1, 76, 127
1, 44039, Note_off_c, 1, 76, 0
1, 44040, Note_on_c, 1, 81, 127
1, 44069, Note_off_c, 1, 64, 0
1, 44069, Note_off_c, 1, 61, 0
1, 44069, Note_off_c, 1, 81, 0
1, 44070, Note_on_c, 1, 64, 127
1, 44070, Note_on_c, 1, 76, 127
1, 44070, Note_on_c, 1, 59, 127
1, 44099, Note_off_c, 1, 64, 0
1, 44099, Note_off_c, 1, 76, 0
1, 44099, Note_off_c, 1, 59, 0
1, 44100, Note_on_c, 1, 66, 127
1, 44100, Note_on_c, 1, 73, 127
1, 44100, Note_on_c, 1, 57, 127
1, 44129, Note_off_c, 1, 66, 0
1, 44129, Note_off_c, 1, 73, 0
1, 44129, Note_off_c, 1, 57, 0
1, 44130, Note_on_c, 1, 67, 127
1, 44130, Note_on_c, 1, 76, 127
1, 44130, Note_on_c, 1, 55, 127
1, 44159, Note_off_c, 1, 67, 0
1, 44159, Note_off_c, 1, 76, 0
1, 44159, Note_off_c, 1, 55, 0
1, 44160, Note_on_c, 1, 69, 127
1, 44160, Note_on_c, 1, 78, 127
1, 44160, Note_on_c, 1, 54, 127
1, 44189, Note_off_c, 1, 54, 0
1, 44190, Note_on_c, 1, 55, 127
1, 44219, Note_off_c, 1, 69, 0
1, 44219, Note_off_c, 1, 78, 0
1, 44219, Note_off_c, 1, 55, 0
1, 44220, Note_on_c, 1, 69, 127
1, 44220, Note_on_c, 1, 73, 127
1, 44220, Note_on_c, 1, 78, 127
1, 44220, Note_on_c, 1, 57, 127
1, 44249, Note_off_c, 1, 57, 0
1, 44250, Note_on_c, 1, 54, 127
1, 44279, Note_off_c, 1, 73, 0
1, 44279, Note_off_c, 1, 54, 0
1, 44280, Note_on_c, 1, 66, 127
1, 44280, Note_on_c, 1, 71, 127
1, 44280, Note_on_c, 1, 51, 127
1, 44309, Note_off_c, 1, 51, 0
1, 44339, Note_off_c, 1, 69, 0
1, 44339, Note_off_c, 1, 78, 0
1, 44339, Note_off_c, 1, 66, 0
1, 44339, Note_off_c, 1, 71, 0
1, 44340, Note_on_c, 1, 67, 127
1, 44340, Note_on_c, 1, 76, 127
1, 44340, Note_on_c, 1, 47, 127
1, 44369, Note_off_c, 1, 67, 0
1, 44369, Note_off_c, 1, 76, 0
1, 44369, Note_off_c, 1, 47, 0
1, 44370, Note_on_c, 1, 66, 127
1, 44370, Note_on_c, 1, 75, 127
1, 44370, Note_on_c, 1, 59, 127
1, 44399, Note_off_c, 1, 66, 0
1, 44399, Note_off_c, 1, 75, 0
1, 44399, Note_off_c, 1, 59, 0
1, 44400, Note_on_c, 1, 67, 127
1, 44400, Note_on_c, 1, 76, 127
1, 44400, Note_on_c, 1, 52, 127
1, 44429, Note_off_c, 1, 52, 0
1, 44430, Note_on_c, 1, 54, 127
1, 44459, Note_off_c, 1, 67, 0
1, 44459, Note_off_c, 1, 76, 0
1, 44459, Note_off_c, 1, 54, 0
1, 44460, Note_on_c, 1, 67, 127
1, 44460, Note_on_c, 1, 71, 127
1, 44460, Note_on_c, 1, 76, 127
1, 44460, Note_on_c, 1, 55, 127
1, 44489, Note_off_c, 1, 55, 0
1, 44490, Note_on_c, 1, 52, 127
1, 44519, Note_off_c, 1, 71, 0
1, 44519, Note_off_c, 1, 52, 0
1, 44520, Note_on_c, 1, 69, 127
1, 44520, Note_on_c, 1, 64, 127
1, 44520, Note_on_c, 1, 49, 127
1, 44549, Note_off_c, 1, 49, 0
1, 44579, Note_off_c, 1, 67, 0
1, 44579, Note_off_c, 1, 76, 0
1, 44579, Note_off_c, 1, 69, 0
1, 44579, Note_off_c, 1, 64, 0
1, 44580, Note_on_c, 1, 66, 127
1, 44580, Note_on_c, 1, 74, 127
1, 44580, Note_on_c, 1, 45, 127
1, 44609, Note_off_c, 1, 66, 0
1, 44609, Note_off_c, 1, 74, 0
1, 44609, Note_off_c, 1, 45, 0
1, 44610, Note_on_c, 1, 64, 127
1, 44610, Note_on_c, 1, 73, 127
1, 44610, Note_on_c, 1, 57, 127
1, 44639, Note_off_c, 1, 64, 0
1, 44639, Note_off_c, 1, 73, 0
1, 44639, Note_off_c, 1, 57, 0
1, 44640, Note_on_c, 1, 66, 127
1, 44640, Note_on_c, 1, 74, 127
1, 44640, Note_on_c, 1, 50, 127
1, 44669, Note_off_c, 1, 50, 0
1, 44670, Note_on_c, 1, 52, 127
1, 44699, Note_off_c, 1, 66, 0
1, 44699, Note_off_c, 1, 74, 0
1, 44699, Note_off_c, 1, 52, 0
1, 44700, Note_on_c, 1, 64, 127
1, 44700, Note_on_c, 1, 73, 127
1, 44700, Note_on_c, 1, 54, 127
1, 44729, Note_off_c, 1, 64, 0
1, 44729, Note_off_c, 1, 73, 0
1, 44729, Note_off_c, 1, 54, 0
1, 44730, Note_on_c, 1, 62, 127
1, 44730, Note_on_c, 1, 71, 127
1, 44730, Note_on_c, 1, 55, 127
1, 44759, Note_off_c, 1, 62, 0
1, 44759, Note_off_c, 1, 71, 0
1, 44759, Note_off_c, 1, 55, 0
1, 44760, Note_on_c, 1, 66, 127
1, 44760, Note_on_c, 1, 69, 127
1, 44760, Note_on_c, 1, 57, 127
1, 44789, Note_off_c, 1, 66, 0
1, 44789, Note_off_c, 1, 69, 0
1, 44790, Note_on_c, 1, 64, 127
1, 44790, Note_on_c, 1, 67, 127
1, 44819, Note_off_c, 1, 57, 0
1, 44819, Note_off_c, 1, 64, 0
1, 44819, Note_off_c, 1, 67, 0
1, 44820, Note_on_c, 1, 62, 127
1, 44820, Note_on_c, 1, 66, 127
1, 44820, Note_on_c, 1, 45, 127
1, 44849, Note_off_c, 1, 62, 0
1, 44849, Note_off_c, 1, 66, 0
1, 44850, Note_on_c, 1, 61, 127
1, 44850, Note_on_c, 1, 64, 127
1, 44879, Note_off_c, 1, 45, 0
1, 44879, Note_off_c, 1, 61, 0
1, 44879, Note_off_c, 1, 64, 0
1, 44880, Note_on_c, 1, 62, 127
1, 44910, Note_on_c, 1, 57, 127
1, 44910, Note_on_c, 1, 50, 127
1, 44939, Note_off_c, 1, 57, 0
1, 44939, Note_off_c, 1, 50, 0
1, 44940, Note_on_c, 1, 54, 127
1, 44969, Note_off_c, 1, 54, 0
1, 44999, Note_off_c, 1, 62, 0
1, 45000, Note_on_c, 1, 60, 127
1, 45000, Note_on_c, 1, 62, 127
1, 45029, Note_off_c, 1, 62, 0
1, 45030, Note_on_c, 1, 57, 127
1, 45059, Note_off_c, 1, 57, 0
1, 45060, Note_on_c, 1, 81, 127
1, 45060, Note_on_c, 1, 78, 127
1, 45060, Note_on_c, 1, 74, 127
1, 45060, Note_on_c, 1, 54, 127
1, 45089, Note_off_c, 1, 54, 0
1, 45090, Note_on_c, 1, 50, 127
1, 45119, Note_off_c, 1, 60, 0
1, 45119, Note_off_c, 1, 81, 0
1, 45119, Note_off_c, 1, 78, 0
1, 45119, Note_off_c, 1, 74, 0
1, 45119, Note_off_c, 1, 50, 0
1, 45120, Note_on_c, 1, 81, 127
1, 45120, Note_on_c, 1, 78, 127
1, 45120, Note_on_c, 1, 74, 127
1, 45120, Note_on_c, 1, 55, 127
1, 45150, Note_on_c, 1, 57, 127
1, 45179, Note_off_c, 1, 81, 0
1, 45179, Note_off_c, 1, 78, 0
1, 45179, Note_off_c, 1, 74, 0
1, 45179, Note_off_c, 1, 55, 0
1, 45179, Note_off_c, 1, 57, 0
1, 45180, Note_on_c, 1, 54, 127
1, 45180, Note_on_c, 1, 81, 127
1, 45180, Note_on_c, 1, 78, 127
1, 45180, Note_on_c, 1, 72, 127
1, 45180, Note_on_c, 1, 43, 127
1, 45209, Note_off_c, 1, 54, 0
1, 45210, Note_on_c, 1, 50, 127
1, 45239, Note_off_c, 1, 81, 0
1, 45239, Note_off_c, 1, 78, 0
1, 45239, Note_off_c, 1, 72, 0
1, 45239, Note_off_c, 1, 50, 0
1, 45240, Note_on_c, 1, 59, 127
1, 45240, Note_on_c, 1, 79, 127
1, 45240, Note_on_c, 1, 76, 127
1, 45240, Note_on_c, 1, 71, 127
1, 45269, Note_off_c, 1, 43, 0
1, 45270, Note_on_c, 1, 55, 127
1, 45299, Note_off_c, 1, 79, 0
1, 45299, Note_off_c, 1, 76, 0
1, 45299, Note_off_c, 1, 71, 0
1, 45299, Note_off_c, 1, 55, 0
1, 45300, Note_on_c, 1, 74, 127
1, 45300, Note_on_c, 1, 52, 127
1, 45329, Note_off_c, 1, 52, 0
1, 45330, Note_on_c, 1, 49, 127
1, 45359, Note_off_c, 1, 59, 0
1, 45359, Note_off_c, 1, 74, 0
1, 45359, Note_off_c, 1, 49, 0
1, 45360, Note_on_c, 1, 73, 127
1, 45360, Note_on_c, 1, 76, 127
1, 45360, Note_on_c, 1, 79, 127
1, 45360, Note_on_c, 1, 54, 127
1, 45390, Note_on_c, 1, 55, 127
1, 45419, Note_off_c, 1, 73, 0
1, 45419, Note_off_c, 1, 76, 0
1, 45419, Note_off_c, 1, 79, 0
1, 45419, Note_off_c, 1, 54, 0
1, 45419, Note_off_c, 1, 55, 0
1, 45420, Note_on_c, 1, 52, 127
1, 45420, Note_on_c, 1, 79, 127
1, 45420, Note_on_c, 1, 71, 127
1, 45420, Note_on_c, 1, 76, 127
1, 45420, Note_on_c, 1, 42, 127
1, 45449, Note_off_c, 1, 52, 0
1, 45450, Note_on_c, 1, 49, 127
1, 45479, Note_off_c, 1, 79, 0
1, 45479, Note_off_c, 1, 71, 0
1, 45479, Note_off_c, 1, 76, 0
1, 45479, Note_off_c, 1, 49, 0
1, 45480, Note_on_c, 1, 57, 127
1, 45480, Note_on_c, 1, 69, 127
1, 45480, Note_on_c, 1, 78, 127
1, 45480, Note_on_c, 1, 74, 127
1, 45509, Note_off_c, 1, 42, 0
1, 45510, Note_on_c, 1, 54, 127
1, 45539, Note_off_c, 1, 69, 0
1, 45539, Note_off_c, 1, 78, 0
1, 45539, Note_off_c, 1, 74, 0
1, 45539, Note_off_c, 1, 54, 0
1, 45540, Note_on_c, 1, 72, 127
1, 45540, Note_on_c, 1, 50, 127
1, 45569, Note_off_c, 1, 50, 0
1, 45570, Note_on_c, 1, 47, 127
1, 45599, Note_off_c, 1, 57, 0
1, 45599, Note_off_c, 1, 72, 0
1, 45599, Note_off_c, 1, 47, 0
1, 45600, Note_on_c, 1, 78, 127
1, 45600, Note_on_c, 1, 74, 127
1, 45600, Note_on_c, 1, 71, 127
1, 45600, Note_on_c, 1, 52, 127
1, 45630, Note_on_c, 1, 54, 127
1, 45659, Note_off_c, 1, 78, 0
1, 45659, Note_off_c, 1, 74, 0
1, 45659, Note_off_c, 1, 71, 0
1, 45659, Note_off_c, 1, 52, 0
1, 45659, Note_off_c, 1, 54, 0
1, 45660, Note_on_c, 1, 50, 127
1, 45660, Note_on_c, 1, 78, 127
1, 45660, Note_on_c, 1, 69, 127
1, 45660, Note_on_c, 1, 74, 127
1, 45660, Note_on_c, 1, 40, 127
1, 45689, Note_off_c, 1, 50, 0
1, 45690, Note_on_c, 1, 47, 127
1, 45719, Note_off_c, 1, 78, 0
1, 45719, Note_off_c, 1, 69, 0
1, 45719, Note_off_c, 1, 74, 0
1, 45719, Note_off_c, 1, 47, 0
1, 45720, Note_on_c, 1, 55, 127
1, 45720, Note_on_c, 1, 76, 127
1, 45720, Note_on_c, 1, 67, 127
1, 45749, Note_off_c, 1, 40, 0
1, 45780, Note_on_c, 1, 73, 127
1, 45780, Note_on_c, 1, 43, 127
1, 45809, Note_off_c, 1, 73, 0
1, 45809, Note_off_c, 1, 43, 0
1, 45810, Note_on_c, 1, 71, 127
1, 45839, Note_off_c, 1, 55, 0
1, 45839, Note_off_c, 1, 71, 0
1, 45840, Note_off_c, 1, 76, 0
1, 45840, Note_on_c, 1, 45, 127
1, 45870, Note_off_c, 1, 67, 0
1, 45870, Note_on_c, 1, 57, 127
1, 45899, Note_off_c, 1, 45, 0
1, 45899, Note_off_c, 1, 57, 0
1, 45900, Note_on_c, 1, 61, 127
1, 45900, Note_on_c, 1, 76, 127
1, 45900, Note_on_c, 1, 47, 127
1, 45929, Note_off_c, 1, 61, 0
1, 45929, Note_off_c, 1, 76, 0
1, 45930, Note_on_c, 1, 64, 127
1, 45930, Note_on_c, 1, 73, 127
1, 45959, Note_off_c, 1, 47, 0
1, 45959, Note_off_c, 1, 64, 0
1, 45959, Note_off_c, 1, 73, 0
1, 45960, Note_on_c, 1, 69, 127
1, 45960, Note_on_c, 1, 49, 127
1, 45989, Note_off_c, 1, 69, 0
1, 45990, Note_on_c, 1, 67, 127
1, 45990, Note_on_c, 1, 71, 127
1, 46019, Note_off_c, 1, 49, 0
1, 46019, Note_off_c, 1, 67, 0
1, 46019, Note_off_c, 1, 71, 0
1, 46020, Note_on_c, 1, 65, 127
1, 46020, Note_on_c, 1, 73, 127
1, 46020, Note_on_c, 1, 45, 127
1, 46049, Note_off_c, 1, 65, 0
1, 46049, Note_off_c, 1, 73, 0
1, 46050, Note_on_c, 1, 64, 127
1, 46050, Note_on_c, 1, 76, 127
1, 46079, Note_off_c, 1, 45, 0
1, 46079, Note_off_c, 1, 64, 0
1, 46079, Note_off_c, 1, 76, 0
1, 46080, Note_on_c, 1, 65, 127
1, 46080, Note_on_c, 1, 74, 127
1, 46080, Note_on_c, 1, 50, 127
1, 46109, Note_off_c, 1, 65, 0
1, 46109, Note_off_c, 1, 74, 0
1, 46110, Note_on_c, 1, 67, 127
1, 46110, Note_on_c, 1, 76, 127
1, 46139, Note_off_c, 1, 67, 0
1, 46139, Note_off_c, 1, 76, 0
1, 46140, Note_on_c, 1, 69, 127
1, 46140, Note_on_c, 1, 77, 127
1, 46169, Note_off_c, 1, 50, 0
1, 46170, Note_on_c, 1, 45, 127
1, 46184, Note_off_c, 1, 45, 0
1, 46185, Note_on_c, 1, 43, 127
1, 46199, Note_off_c, 1, 43, 0
1, 46200, Note_on_c, 1, 41, 127
1, 46214, Note_off_c, 1, 41, 0
1, 46259, Note_off_c, 1, 69, 0
1, 46259, Note_off_c, 1, 77, 0
1, 46260, Note_on_c, 1, 67, 127
1, 46260, Note_on_c, 1, 76, 127
1, 46260, Note_on_c, 1, 38, 127
1, 46289, Note_off_c, 1, 67, 0
1, 46289, Note_off_c, 1, 76, 0
1, 46290, Note_on_c, 1, 65, 127
1, 46290, Note_on_c, 1, 74, 127
1, 46319, Note_off_c, 1, 38, 0
1, 46319, Note_off_c, 1, 65, 0
1, 46319, Note_off_c, 1, 74, 0
1, 46320, Note_on_c, 1, 64, 127
1, 46320, Note_on_c, 1, 73, 127
1, 46320, Note_on_c, 1, 57, 127
1, 46349, Note_off_c, 1, 64, 0
1, 46349, Note_off_c, 1, 73, 0
1, 46350, Note_on_c, 1, 65, 127
1, 46350, Note_on_c, 1, 74, 127
1, 46379, Note_off_c, 1, 65, 0
1, 46379, Note_off_c, 1, 74, 0
1, 46380, Note_on_c, 1, 67, 127
1, 46380, Note_on_c, 1, 76, 127
1, 46409, Note_off_c, 1, 57, 0
1, 46410, Note_on_c, 1, 52, 127
1, 46424, Note_off_c, 1, 52, 0
1, 46425, Note_on_c, 1, 50, 127
1, 46439, Note_off_c, 1, 50, 0
1, 46440, Note_on_c, 1, 49, 127
1, 46454, Note_off_c, 1, 49, 0
1, 46499, Note_off_c, 1, 67, 0
1, 46499, Note_off_c, 1, 76, 0
1, 46500, Note_on_c, 1, 66, 127
1, 46500, Note_on_c, 1, 74, 127
1, 46500, Note_on_c, 1, 45, 127
1, 46529, Note_off_c, 1, 66, 0
1, 46529, Note_off_c, 1, 74, 0
1, 46530, Note_on_c, 1, 64, 127
1, 46530, Note_on_c, 1, 73, 127
1, 46559, Note_off_c, 1, 45, 0
1, 46559, Note_off_c, 1, 64, 0
1, 46559, Note_off_c, 1, 73, 0
1, 46560, Note_on_c, 1, 67, 127
1, 46560, Note_on_c, 1, 81, 127
1, 46560, Note_on_c, 1, 62, 127
1, 46589, Note_off_c, 1, 67, 0
1, 46590, Note_on_c, 1, 66, 127
1, 46619, Note_off_c, 1, 81, 0
1, 46619, Note_off_c, 1, 62, 0
1, 46619, Note_off_c, 1, 66, 0
1, 46620, Note_on_c, 1, 64, 127
1, 46620, Note_on_c, 1, 79, 127
1, 46620, Note_on_c, 1, 55, 127
1, 46649, Note_off_c, 1, 64, 0
1, 46649, Note_off_c, 1, 79, 0
1, 46650, Note_on_c, 1, 62, 127
1, 46650, Note_on_c, 1, 78, 127
1, 46679, Note_off_c, 1, 55, 0
1, 46679, Note_off_c, 1, 62, 0
1, 46679, Note_off_c, 1, 78, 0
1, 46680, Note_on_c, 1, 57, 127
1, 46680, Note_on_c, 1, 79, 127
1, 46709, Note_off_c, 1, 79, 0
1, 46710, Note_on_c, 1, 78, 127
1, 46739, Note_off_c, 1, 57, 0
1, 46739, Note_off_c, 1, 78, 0
1, 46740, Note_on_c, 1, 61, 127
1, 46740, Note_on_c, 1, 76, 127
1, 46740, Note_on_c, 1, 45, 127
1, 46769, Note_off_c, 1, 76, 0
1, 46770, Note_on_c, 1, 78, 127
1, 46799, Note_off_c, 1, 61, 0
1, 46799, Note_off_c, 1, 45, 0
1, 46799, Note_off_c, 1, 78, 0
1, 46800, Note_on_c, 1, 50, 127
1, 46800, Note_on_c, 1, 69, 127
1, 46800, Note_on_c, 1, 74, 127
1, 46800, Note_on_c, 1, 66, 127
1, 46810, Note_on_c, 1, 54, 127
1, 46830, Note_on_c, 1, 57, 127
1, 46840, Note_on_c, 1, 62, 127
1, 47039, Note_off_c, 1, 50, 0
1, 47039, Note_off_c, 1, 69, 0
1, 47039, Note_off_c, 1, 74, 0
1, 47039, Note_off_c, 1, 66, 0
1, 47039, Note_off_c, 1, 54, 0
1, 47039, Note_off_c, 1, 57, 0
1, 47039, Note_off_c, 1, 62, 0
1, 47400, Note_on_c, 1, 54, 127
1, 47459, Note_off_c, 1, 54, 0
1, 47460, Note_on_c, 1, 59, 127
1, 47460, Note_on_c, 1, 66, 127
1, 47460, Note_on_c, 1, 74, 127
1, 47460, Note_on_c, 1, 47, 127
1, 47519, Note_off_c, 1, 47, 0
1, 47550, Note_on_c, 1, 62, 127
1, 47579, Note_off_c, 1, 59, 0
1, 47579, Note_off_c, 1, 62, 0
1, 47580, Note_off_c, 1, 74, 0
1, 47580, Note_on_c, 1, 61, 127
1, 47580, Note_on_c, 1, 73, 127
1, 47580, Note_on_c, 1, 57, 127
1, 47639, Note_off_c, 1, 61, 0
1, 47639, Note_off_c, 1, 57, 0
1, 47640, Note_off_c, 1, 66, 0
1, 47640, Note_off_c, 1, 73, 0
1, 47640, Note_on_c, 1, 71, 127
1, 47640, Note_on_c, 1, 64, 127
1, 47640, Note_on_c, 1, 55, 127
1, 47699, Note_off_c, 1, 55, 0
1, 47700, Note_on_c, 1, 54, 127
1, 47759, Note_off_c, 1, 54, 0
1, 47760, Note_on_c, 1, 52, 127
1, 47819, Note_off_c, 1, 52, 0
1, 47820, Note_off_c, 1, 71, 0
1, 47820, Note_off_c, 1, 64, 0
1, 47820, Note_on_c, 1, 70, 127
1, 47820, Note_on_c, 1, 67, 127
1, 47820, Note_on_c, 1, 58, 127
1, 47880, Note_off_c, 1, 70, 0
1, 47999, Note_off_c, 1, 67, 0
1, 47999, Note_off_c, 1, 58, 0
1, 48000, Note_on_c, 1, 50, 127
1, 48010, Note_off_c, 1, 50, 0
1, 48060, Note_on_c, 1, 49, 127
1, 48089, Note_off_c, 1, 49, 0
1, 48180, Note_on_c, 1, 53, 127
1, 48239, Note_off_c, 1, 53, 0
1, 48270, Note_on_c, 1, 56, 127
1, 48299, Note_off_c, 1, 56, 0
1, 48300, Note_on_c, 1, 69, 127
1, 48419, Note_off_c, 1, 69, 0
1, 48420, Note_on_c, 1, 56, 127
1, 48420, Note_on_c, 1, 68, 127
1, 48420, Note_on_c, 1, 49, 127
1, 48434, Note_off_c, 1, 56, 0
1, 48435, Note_on_c, 1, 54, 127
1, 48449, Note_off_c, 1, 54, 0
1, 48450, Note_on_c, 1, 53, 127
1, 48479, Note_off_c, 1, 68, 0
1, 48479, Note_off_c, 1, 49, 0
1, 48479, Note_off_c, 1, 53, 0
1, 48480, Note_on_c, 1, 54, 127
1, 48480, Note_on_c, 1, 69, 127
1, 48480, Note_on_c, 1, 66, 127
1, 48480, Note_on_c, 1, 50, 127
1, 48539, Note_off_c, 1, 69, 0
1, 48539, Note_off_c, 1, 66, 0
1, 48539, Note_off_c, 1, 50, 0
1, 48540, Note_on_c, 1, 71, 127
1, 48540, Note_on_c, 1, 44, 127
1, 48569, Note_off_c, 1, 54, 0
1, 48570, Note_on_c, 1, 62, 127
1, 48570, Note_on_c, 1, 65, 127
1, 48599, Note_off_c, 1, 44, 0
1, 48599, Note_off_c, 1, 62, 0
1, 48600, Note_off_c, 1, 71, 0
1, 48600, Note_off_c, 1, 65, 0
1, 48600, Note_on_c, 1, 61, 127
1, 48600, Note_on_c, 1, 45, 127
1, 48629, Note_off_c, 1, 61, 0
1, 48630, Note_on_c, 1, 59, 127
1, 48659, Note_off_c, 1, 45, 0
1, 48659, Note_off_c, 1, 59, 0
1, 48660, Note_on_c, 1, 68, 127
1, 48660, Note_on_c, 1, 47, 127
1, 48719, Note_off_c, 1, 47, 0
1, 48720, Note_on_c, 1, 53, 127
1, 48720, Note_on_c, 1, 49, 127
1, 48749, Note_off_c, 1, 53, 0
1, 48780, Note_on_c, 1, 56, 127
1, 48809, Note_off_c, 1, 49, 0
1, 48809, Note_off_c, 1, 56, 0
1, 48810, Note_on_c, 1, 51, 127
1, 48839, Note_off_c, 1, 51, 0
1, 48840, Note_off_c, 1, 68, 0
1, 48840, Note_on_c, 1, 57, 127
1, 48840, Note_on_c, 1, 73, 127
1, 48869, Note_off_c, 1, 57, 0
1, 48899, Note_off_c, 1, 73, 0
1, 48900, Note_on_c, 1, 57, 127
1, 48900, Note_on_c, 1, 78, 127
1, 48900, Note_on_c, 1, 54, 127
1, 48907, Note_on_c, 1, 76, 127
1, 48908, Note_off_c, 1, 78, 0
1, 48915, Note_off_c, 1, 76, 0
1, 48929, Note_off_c, 1, 57, 0
1, 48930, Note_on_c, 1, 59, 127
1, 48959, Note_off_c, 1, 59, 0
1, 48960, Note_on_c, 1, 61, 127
1, 48990, Note_on_c, 1, 81, 127
1, 49019, Note_off_c, 1, 54, 0
1, 49019, Note_off_c, 1, 61, 0
1, 49019, Note_off_c, 1, 81, 0
1, 49020, Note_on_c, 1, 66, 127
1, 49020, Note_on_c, 1, 80, 127
1, 49020, Note_on_c, 1, 49, 127
1, 49049, Note_off_c, 1, 66, 0
1, 49050, Note_on_c, 1, 65, 127
1, 49079, Note_off_c, 1, 80, 0
1, 49079, Note_off_c, 1, 49, 0
1, 49079, Note_off_c, 1, 65, 0
1, 49080, Note_on_c, 1, 66, 127
1, 49080, Note_on_c, 1, 78, 127
1, 49080, Note_on_c, 1, 50, 127
1, 49139, Note_off_c, 1, 78, 0
1, 49139, Note_off_c, 1, 50, 0
1, 49140, Note_on_c, 1, 49, 127
1, 49155, Note_on_c, 1, 80, 127
1, 49169, Note_off_c, 1, 80, 0
1, 49170, Note_on_c, 1, 81, 127
1, 49199, Note_off_c, 1, 49, 0
1, 49199, Note_off_c, 1, 81, 0
1, 49200, Note_on_c, 1, 47, 127
1, 49259, Note_off_c, 1, 47, 0
1, 49260, Note_on_c, 1, 71, 127
1, 49274, Note_off_c, 1, 71, 0
1, 49275, Note_on_c, 1, 73, 127
1, 49289, Note_off_c, 1, 73, 0
1, 49290, Note_on_c, 1, 74, 127
1, 49319, Note_off_c, 1, 66, 0
1, 49320, Note_on_c, 1, 65, 127
1, 49349, Note_off_c, 1, 74, 0
1, 49379, Note_off_c, 1, 65, 0
1, 49380, Note_on_c, 1, 68, 127
1, 49380, Note_on_c, 1, 71, 127
1, 49380, Note_on_c, 1, 37, 127
1, 49439, Note_off_c, 1, 71, 0
1, 49439, Note_off_c, 1, 37, 0
1, 49440, Note_on_c, 1, 69, 127
1, 49440, Note_on_c, 1, 42, 127
1, 49469, Note_off_c, 1, 68, 0
1, 49470, Note_on_c, 1, 65, 127
1, 49499, Note_off_c, 1, 69, 0
1, 49499, Note_off_c, 1, 42, 0
1, 49499, Note_off_c, 1, 65, 0
1, 49500, Note_on_c, 1, 66, 127
1, 49500, Note_on_c, 1, 68, 127
1, 49500, Note_on_c, 1, 54, 127
1, 49529, Note_off_c, 1, 66, 0
1, 49529, Note_off_c, 1, 68, 0
1, 49559, Note_off_c, 1, 54, 0
1, 49560, Note_on_c, 1, 69, 127
1, 49560, Note_on_c, 1, 78, 127
1, 49560, Note_on_c, 1, 51, 127
1, 49619, Note_off_c, 1, 51, 0
1, 49620, Note_on_c, 1, 48, 127
1, 49679, Note_off_c, 1, 69, 0
1, 49679, Note_off_c, 1, 78, 0
1, 49679, Note_off_c, 1, 48, 0
1, 49680, Note_on_c, 1, 68, 127
1, 49680, Note_on_c, 1, 76, 127
1, 49680, Note_on_c, 1, 44, 127
1, 49709, Note_off_c, 1, 76, 0
1, 49710, Note_on_c, 1, 75, 127
1, 49739, Note_off_c, 1, 44, 0
1, 49739, Note_off_c, 1, 75, 0
1, 49740, Note_on_c, 1, 49, 127
1, 49799, Note_off_c, 1, 68, 0
1, 49799, Note_off_c, 1, 49, 0
1, 49800, Note_on_c, 1, 66, 127
1, 49800, Note_on_c, 1, 54, 127
1, 49859, Note_off_c, 1, 54, 0
1, 49860, Note_on_c, 1, 56, 127
1, 49875, Note_on_c, 1, 73, 127
1, 49889, Note_off_c, 1, 73, 0
1, 49890, Note_on_c, 1, 72, 127
1, 49919, Note_off_c, 1, 56, 0
1, 49919, Note_off_c, 1, 72, 0
1, 49920, Note_on_c, 1, 57, 127
1, 49979, Note_off_c, 1, 57, 0
1, 49980, Note_on_c, 1, 51, 127
1, 50010, Note_on_c, 1, 81, 127
1, 50039, Note_off_c, 1, 66, 0
1, 50039, Note_off_c, 1, 51, 0
1, 50039, Note_off_c, 1, 81, 0
1, 50040, Note_on_c, 1, 64, 127
1, 50040, Note_on_c, 1, 80, 127
1, 50040, Note_on_c, 1, 52, 127
1, 50069, Note_off_c, 1, 64, 0
1, 50069, Note_off_c, 1, 80, 0
1, 50070, Note_on_c, 1, 63, 127
1, 50070, Note_on_c, 1, 78, 127
1, 50099, Note_off_c, 1, 52, 0
1, 50099, Note_off_c, 1, 63, 0
1, 50099, Note_off_c, 1, 78, 0
1, 50100, Note_on_c, 1, 64, 127
1, 50100, Note_on_c, 1, 80, 127
1, 50100, Note_on_c, 1, 54, 127
1, 50129, Note_off_c, 1, 80, 0
1, 50130, Note_on_c, 1, 81, 127
1, 50159, Note_off_c, 1, 64, 0
1, 50159, Note_off_c, 1, 54, 0
1, 50159, Note_off_c, 1, 81, 0
1, 50160, Note_on_c, 1, 63, 127
1, 50160, Note_on_c, 1, 72, 127
1, 50160, Note_on_c, 1, 56, 127
1, 50189, Note_off_c, 1, 72, 0
1, 50190, Note_on_c, 1, 73, 127
1, 50219, Note_off_c, 1, 63, 0
1, 50219, Note_off_c, 1, 56, 0
1, 50219, Note_off_c, 1, 73, 0
1, 50220, Note_on_c, 1, 56, 127
1, 50220, Note_on_c, 1, 75, 127
1, 50220, Note_on_c, 1, 60, 127
1, 50249, Note_off_c, 1, 75, 0
1, 50250, Note_on_c, 1, 78, 127
1, 50279, Note_off_c, 1, 56, 0
1, 50279, Note_off_c, 1, 60, 0
1, 50279, Note_off_c, 1, 78, 0
1, 50280, Note_on_c, 1, 60, 127
1, 50280, Note_on_c, 1, 76, 127
1, 50280, Note_on_c, 1, 56, 127
1, 50309, Note_off_c, 1, 76, 0
1, 50310, Note_on_c, 1, 75, 127
1, 50339, Note_off_c, 1, 60, 0
1, 50339, Note_off_c, 1, 56, 0
1, 50339, Note_off_c, 1, 75, 0
1, 50340, Note_on_c, 1, 61, 127
1, 50340, Note_on_c, 1, 76, 127
1, 50340, Note_on_c, 1, 49, 127
1, 50369, Note_off_c, 1, 76, 0
1, 50370, Note_on_c, 1, 78, 127
1, 50399, Note_off_c, 1, 78, 0
1, 50400, Note_on_c, 1, 80, 127
1, 50429, Note_off_c, 1, 49, 0
1, 50429, Note_off_c, 1, 80, 0
1, 50430, Note_on_c, 1, 83, 127
1, 50430, Note_on_c, 1, 51, 127
1, 50459, Note_off_c, 1, 83, 0
1, 50459, Note_off_c, 1, 51, 0
1, 50460, Note_on_c, 1, 81, 127
1, 50460, Note_on_c, 1, 53, 127
1, 50489, Note_off_c, 1, 81, 0
1, 50519, Note_off_c, 1, 53, 0
1, 50520, Note_on_c, 1, 54, 127
1, 50550, Note_off_c, 1, 61, 0
1, 50550, Note_on_c, 1, 68, 127
1, 50579, Note_off_c, 1, 54, 0
1, 50579, Note_off_c, 1, 68, 0
1, 50580, Note_on_c, 1, 66, 127
1, 50580, Note_on_c, 1, 72, 127
1, 50580, Note_on_c, 1, 56, 127
1, 50609, Note_off_c, 1, 66, 0
1, 50610, Note_on_c, 1, 64, 127
1, 50639, Note_off_c, 1, 72, 0
1, 50639, Note_off_c, 1, 56, 0
1, 50639, Note_off_c, 1, 64, 0
1, 50640, Note_on_c, 1, 63, 127
1, 50640, Note_on_c, 1, 73, 127
1, 50640, Note_on_c, 1, 57, 127
1, 50669, Note_off_c, 1, 63, 0
1, 50670, Note_on_c, 1, 61, 127
1, 50699, Note_off_c, 1, 73, 0
1, 50699, Note_off_c, 1, 57, 0
1, 50699, Note_off_c, 1, 61, 0
1, 50700, Note_on_c, 1, 68, 127
1, 50700, Note_on_c, 1, 73, 127
1, 50700, Note_on_c, 1, 52, 127
1, 50714, Note_off_c, 1, 73, 0
1, 50715, Note_on_c, 1, 75, 127
1, 50729, Note_off_c, 1, 75, 0
1, 50730, Note_on_c, 1, 76, 127
1, 50759, Note_off_c, 1, 68, 0
1, 50760, Note_on_c, 1, 56, 127
1, 50789, Note_off_c, 1, 52, 0
1, 50789, Note_off_c, 1, 76, 0
1, 50790, Note_on_c, 1, 54, 127
1, 50819, Note_off_c, 1, 56, 0
1, 50819, Note_off_c, 1, 54, 0
1, 50820, Note_on_c, 1, 60, 127
1, 50820, Note_on_c, 1, 73, 127
1, 50820, Note_on_c, 1, 56, 127
1, 50830, Note_off_c, 1, 60, 0
1, 50830, Note_on_c, 1, 62, 127
1, 50840, Note_off_c, 1, 62, 0
1, 50879, Note_off_c, 1, 73, 0
1, 50879, Note_off_c, 1, 56, 0
1, 50880, Note_on_c, 1, 61, 127
1, 50880, Note_on_c, 1, 49, 127
1, 50939, Note_off_c, 1, 49, 0
1, 50940, Note_on_c, 1, 52, 127
1, 50999, Note_off_c, 1, 61, 0
1, 50999, Note_off_c, 1, 52, 0
1, 51000, Note_on_c, 1, 76, 127
1, 51000, Note_on_c, 1, 49, 127
1, 51059, Note_off_c, 1, 76, 0
1, 51059, Note_off_c, 1, 49, 0
1, 51060, Note_on_c, 1, 66, 127
1, 51060, Note_on_c, 1, 45, 127
1, 51119, Note_off_c, 1, 45, 0
1, 51120, Note_on_c, 1, 42, 127
1, 51149, Note_off_c, 1, 66, 0
1, 51150, Note_on_c, 1, 68, 127
1, 51164, Note_off_c, 1, 68, 0
1, 51165, Note_on_c, 1, 69, 127
1, 51179, Note_off_c, 1, 42, 0
1, 51179, Note_off_c, 1, 69, 0
1, 51180, Note_on_c, 1, 71, 127
1, 51180, Note_on_c, 1, 45, 127
1, 51209, Note_off_c, 1, 71, 0
1, 51210, Note_on_c, 1, 73, 127
1, 51239, Note_off_c, 1, 45, 0
1, 51239, Note_off_c, 1, 73, 0
1, 51240, Note_on_c, 1, 74, 127
1, 51240, Note_on_c, 1, 47, 127
1, 51269, Note_off_c, 1, 74, 0
1, 51270, Note_on_c, 1, 73, 127
1, 51299, Note_off_c, 1, 47, 0
1, 51299, Note_off_c, 1, 73, 0
1, 51300, Note_on_c, 1, 71, 127
1, 51300, Note_on_c, 1, 45, 127
1, 51359, Note_off_c, 1, 71, 0
1, 51359, Note_off_c, 1, 45, 0
1, 51360, Note_on_c, 1, 74, 127
1, 51360, Note_on_c, 1, 44, 127
1, 51374, Note_off_c, 1, 74, 0
1, 51375, Note_on_c, 1, 76, 127
1, 51389, Note_off_c, 1, 76, 0
1, 51390, Note_on_c, 1, 78, 127
1, 51419, Note_off_c, 1, 44, 0
1, 51419, Note_off_c, 1, 78, 0
1, 51420, Note_on_c, 1, 76, 127
1, 51420, Note_on_c, 1, 49, 127
1, 51479, Note_off_c, 1, 49, 0
1, 51480, Note_on_c, 1, 54, 127
1, 51509, Note_off_c, 1, 76, 0
1, 51510, Note_on_c, 1, 71, 127
1, 51539, Note_off_c, 1, 54, 0
1, 51539, Note_off_c, 1, 71, 0
1, 51540, Note_on_c, 1, 73, 127
1, 51540, Note_on_c, 1, 50, 127
1, 51599, Note_off_c, 1, 73, 0
1, 51599, Note_off_c, 1, 50, 0
1, 51600, Note_on_c, 1, 68, 127
1, 51600, Note_on_c, 1, 52, 127
1, 51659, Note_off_c, 1, 68, 0
1, 51659, Note_off_c, 1, 52, 0
1, 51660, Note_on_c, 1, 66, 127
1, 51660, Note_on_c, 1, 50, 127
1, 51689, Note_off_c, 1, 66, 0
1, 51689, Note_off_c, 1, 50, 0
1, 51690, Note_on_c, 1, 64, 127
1, 51690, Note_on_c, 1, 49, 127
1, 51719, Note_off_c, 1, 64, 0
1, 51719, Note_off_c, 1, 49, 0
1, 51720, Note_on_c, 1, 64, 127
1, 51720, Note_on_c, 1, 76, 127
1, 51720, Note_on_c, 1, 50, 127
1, 51749, Note_off_c, 1, 50, 0
1, 51750, Note_on_c, 1, 47, 127
1, 51779, Note_off_c, 1, 64, 0
1, 51779, Note_off_c, 1, 47, 0
1, 51780, Note_on_c, 1, 69, 127
1, 51780, Note_on_c, 1, 49, 127
1, 51839, Note_off_c, 1, 76, 0
1, 51839, Note_off_c, 1, 49, 0
1, 51840, Note_on_c, 1, 80, 127
1, 51869, Note_off_c, 1, 69, 0
1, 51869, Note_off_c, 1, 80, 0
1, 51870, Note_on_c, 1, 73, 127
1, 51870, Note_on_c, 1, 78, 127
1, 51899, Note_off_c, 1, 73, 0
1, 51899, Note_off_c, 1, 78, 0
1, 51900, Note_on_c, 1, 71, 127
1, 51900, Note_on_c, 1, 81, 127
1, 51900, Note_on_c, 1, 52, 127
1, 51929, Note_off_c, 1, 81, 0
1, 51930, Note_on_c, 1, 80, 127
1, 51959, Note_off_c, 1, 71, 0
1, 51959, Note_off_c, 1, 52, 0
1, 51959, Note_off_c, 1, 80, 0
1, 51960, Note_on_c, 1, 69, 127
1, 51960, Note_on_c, 1, 81, 127
1, 51960, Note_on_c, 1, 54, 127
1, 52019, Note_off_c, 1, 69, 0
1, 52019, Note_off_c, 1, 54, 0
1, 52020, Note_on_c, 1, 52, 127
1, 52035, Note_on_c, 1, 71, 127
1, 52049, Note_off_c, 1, 71, 0
1, 52050, Note_on_c, 1, 73, 127
1, 52079, Note_off_c, 1, 52, 0
1, 52079, Note_off_c, 1, 73, 0
1, 52080, Note_on_c, 1, 50, 127
1, 52139, Note_off_c, 1, 81, 0
1, 52139, Note_off_c, 1, 50, 0
1, 52140, Note_on_c, 1, 62, 127
1, 52140, Note_on_c, 1, 52, 127
1, 52154, Note_off_c, 1, 62, 0
1, 52155, Note_on_c, 1, 64, 127
1, 52169, Note_off_c, 1, 64, 0
1, 52170, Note_on_c, 1, 66, 127
1, 52170, Note_on_c, 1, 78, 127
1, 52199, Note_off_c, 1, 78, 0
1, 52200, Note_on_c, 1, 80, 127
1, 52229, Note_off_c, 1, 66, 0
1, 52229, Note_off_c, 1, 80, 0
1, 52230, Note_on_c, 1, 81, 127
1, 52259, Note_off_c, 1, 52, 0
1, 52259, Note_off_c, 1, 81, 0
1, 52260, Note_on_c, 1, 62, 127
1, 52260, Note_on_c, 1, 83, 127
1, 52260, Note_on_c, 1, 40, 127
1, 52319, Note_off_c, 1, 62, 0
1, 52319, Note_off_c, 1, 40, 0
1, 52320, Note_on_c, 1, 61, 127
1, 52320, Note_on_c, 1, 45, 127
1, 52349, Note_off_c, 1, 83, 0
1, 52350, Note_on_c, 1, 81, 127
1, 52379, Note_off_c, 1, 61, 0
1, 52379, Note_off_c, 1, 45, 0
1, 52379, Note_off_c, 1, 81, 0
1, 52380, Note_on_c, 1, 59, 127
1, 52380, Note_on_c, 1, 80, 127
1, 52380, Note_on_c, 1, 57, 127
1, 52409, Note_off_c, 1, 59, 0
1, 52409, Note_off_c, 1, 80, 0
1, 52410, Note_on_c, 1, 78, 127
1, 52439, Note_off_c, 1, 57, 0
1, 52439, Note_off_c, 1, 78, 0
1, 52440, Note_on_c, 1, 59, 127
1, 52440, Note_on_c, 1, 76, 127
1, 52440, Note_on_c, 1, 56, 127
1, 52469, Note_off_c, 1, 76, 0
1, 52470, Note_on_c, 1, 80, 127
1, 52499, Note_off_c, 1, 59, 0
1, 52499, Note_off_c, 1, 56, 0
1, 52499, Note_off_c, 1, 80, 0
1, 52500, Note_on_c, 1, 61, 127
1, 52500, Note_on_c, 1, 81, 127
1, 52500, Note_on_c, 1, 54, 127
1, 52529, Note_off_c, 1, 61, 0
1, 52530, Note_on_c, 1, 59, 127
1, 52559, Note_off_c, 1, 54, 0
1, 52559, Note_off_c, 1, 59, 0
1, 52560, Note_on_c, 1, 62, 127
1, 52560, Note_on_c, 1, 52, 127
1, 52589, Note_off_c, 1, 81, 0
1, 52589, Note_off_c, 1, 62, 0
1, 52590, Note_on_c, 1, 85, 127
1, 52619, Note_off_c, 1, 52, 0
1, 52619, Note_off_c, 1, 85, 0
1, 52620, Note_on_c, 1, 66, 127
1, 52620, Note_on_c, 1, 83, 127
1, 52620, Note_on_c, 1, 50, 127
1, 52649, Note_off_c, 1, 66, 0
1, 52650, Note_on_c, 1, 64, 127
1, 52679, Note_off_c, 1, 83, 0
1, 52679, Note_off_c, 1, 50, 0
1, 52679, Note_off_c, 1, 64, 0
1, 52680, Note_on_c, 1, 64, 127
1, 52680, Note_on_c, 1, 81, 127
1, 52680, Note_on_c, 1, 49, 127
1, 52709, Note_off_c, 1, 64, 0
1, 52710, Note_on_c, 1, 62, 127
1, 52739, Note_off_c, 1, 81, 0
1, 52739, Note_off_c, 1, 49, 0
1, 52739, Note_off_c, 1, 62, 0
1, 52740, Note_on_c, 1, 66, 127
1, 52740, Note_on_c, 1, 81, 127
1, 52740, Note_on_c, 1, 47, 127
1, 52754, Note_off_c, 1, 81, 0
1, 52755, Note_on_c, 1, 83, 127
1, 52769, Note_off_c, 1, 66, 0
1, 52769, Note_off_c, 1, 83, 0
1, 52770, Note_on_c, 1, 64, 127
1, 52770, Note_on_c, 1, 85, 127
1, 52799, Note_off_c, 1, 47, 0
1, 52799, Note_off_c, 1, 64, 0
1, 52799, Note_off_c, 1, 85, 0
1, 52800, Note_on_c, 1, 62, 127
1, 52800, Note_on_c, 1, 83, 127
1, 52800, Note_on_c, 1, 45, 127
1, 52829, Note_off_c, 1, 62, 0
1, 52830, Note_on_c, 1, 61, 127
1, 52859, Note_off_c, 1, 83, 0
1, 52859, Note_off_c, 1, 45, 0
1, 52859, Note_off_c, 1, 61, 0
1, 52860, Note_on_c, 1, 59, 127
1, 52860, Note_on_c, 1, 74, 127
1, 52860, Note_on_c, 1, 44, 127
1, 52874, Note_off_c, 1, 74, 0
1, 52875, Note_on_c, 1, 76, 127
1, 52889, Note_off_c, 1, 59, 0
1, 52889, Note_off_c, 1, 76, 0
1, 52890, Note_on_c, 1, 57, 127
1, 52890, Note_on_c, 1, 78, 127
1, 52919, Note_off_c, 1, 44, 0
1, 52919, Note_off_c, 1, 57, 0
1, 52920, Note_on_c, 1, 56, 127
1, 52920, Note_on_c, 1, 42, 127
1, 52949, Note_off_c, 1, 78, 0
1, 52949, Note_off_c, 1, 56, 0
1, 52979, Note_off_c, 1, 42, 0
1, 52980, Note_on_c, 1, 59, 127
1, 52980, Note_on_c, 1, 74, 127
1, 52980, Note_on_c, 1, 44, 127
1, 53009, Note_off_c, 1, 59, 0
1, 53010, Note_on_c, 1, 56, 127
1, 53039, Note_off_c, 1, 74, 0
1, 53039, Note_off_c, 1, 44, 0
1, 53039, Note_off_c, 1, 56, 0
1, 53040, Note_on_c, 1, 52, 127
1, 53040, Note_on_c, 1, 73, 127
1, 53040, Note_on_c, 1, 45, 127
1, 53047, Note_on_c, 1, 74, 127
1, 53048, Note_off_c, 1, 73, 0
1, 53055, Note_off_c, 1, 74, 0
1, 53099, Note_off_c, 1, 45, 0
1, 53100, Note_on_c, 1, 71, 127
1, 53100, Note_on_c, 1, 47, 127
1, 53129, Note_off_c, 1, 71, 0
1, 53130, Note_on_c, 1, 69, 127
1, 53159, Note_off_c, 1, 52, 0
1, 53159, Note_off_c, 1, 47, 0
1, 53159, Note_off_c, 1, 69, 0
1, 53160, Note_on_c, 1, 81, 127
1, 53160, Note_on_c, 1, 49, 127
1, 53219, Note_off_c, 1, 49, 0
1, 53220, Note_on_c, 1, 59, 127
1, 53220, Note_on_c, 1, 39, 127
1, 53279, Note_off_c, 1, 81, 0
1, 53279, Note_off_c, 1, 39, 0
1, 53280, Note_on_c, 1, 79, 127
1, 53280, Note_on_c, 1, 47, 127
1, 53309, Note_off_c, 1, 79, 0
1, 53310, Note_on_c, 1, 78, 127
1, 53339, Note_off_c, 1, 47, 0
1, 53339, Note_off_c, 1, 78, 0
1, 53340, Note_on_c, 1, 52, 127
1, 53399, Note_off_c, 1, 59, 0
1, 53399, Note_off_c, 1, 52, 0
1, 53400, Note_on_c, 1, 57, 127
1, 53475, Note_on_c, 1, 76, 127
1, 53489, Note_off_c, 1, 76, 0
1, 53490, Note_on_c, 1, 75, 127
1, 53519, Note_off_c, 1, 75, 0
1, 53520, Note_on_c, 1, 60, 127
1, 53579, Note_off_c, 1, 60, 0
1, 53580, Note_on_c, 1, 54, 127
1, 53610, Note_on_c, 1, 84, 127
1, 53639, Note_off_c, 1, 57, 0
1, 53639, Note_off_c, 1, 54, 0
1, 53639, Note_off_c, 1, 84, 0
1, 53640, Note_on_c, 1, 55, 127
1, 53640, Note_on_c, 1, 83, 127
1, 53669, Note_off_c, 1, 83, 0
1, 53670, Note_on_c, 1, 54, 127
1, 53670, Note_on_c, 1, 81, 127
1, 53699, Note_off_c, 1, 55, 0
1, 53699, Note_off_c, 1, 54, 0
1, 53699, Note_off_c, 1, 81, 0
1, 53700, Note_on_c, 1, 55, 127
1, 53700, Note_on_c, 1, 83, 127
1, 53700, Note_on_c, 1, 57, 127
1, 53729, Note_off_c, 1, 83, 0
1, 53730, Note_on_c, 1, 84, 127
1, 53759, Note_off_c, 1, 55, 0
1, 53759, Note_off_c, 1, 57, 0
1, 53759, Note_off_c, 1, 84, 0
1, 53760, Note_on_c, 1, 54, 127
1, 53760, Note_on_c, 1, 75, 127
1, 53760, Note_on_c, 1, 59, 127
1, 53789, Note_off_c, 1, 75, 0
1, 53790, Note_on_c, 1, 76, 127
1, 53819, Note_off_c, 1, 59, 0
1, 53819, Note_off_c, 1, 76, 0
1, 53820, Note_on_c, 1, 78, 127
1, 53820, Note_on_c, 1, 47, 127
1, 53849, Note_off_c, 1, 78, 0
1, 53850, Note_on_c, 1, 81, 127
1, 53879, Note_off_c, 1, 54, 0
1, 53879, Note_off_c, 1, 47, 0
1, 53879, Note_off_c, 1, 81, 0
1, 53880, Note_on_c, 1, 59, 127
1, 53880, Note_on_c, 1, 79, 127
1, 53880, Note_on_c, 1, 51, 127
1, 53909, Note_off_c, 1, 79, 0
1, 53910, Note_on_c, 1, 78, 127
1, 53939, Note_off_c, 1, 59, 0
1, 53939, Note_off_c, 1, 51, 0
1, 53939, Note_off_c, 1, 78, 0
1, 53940, Note_on_c, 1, 64, 127
1, 53940, Note_on_c, 1, 79, 127
1, 53940, Note_on_c, 1, 52, 127
1, 53969, Note_off_c, 1, 79, 0
1, 53970, Note_on_c, 1, 81, 127
1, 53999, Note_off_c, 1, 52, 0
1, 53999, Note_off_c, 1, 81, 0
1, 54000, Note_on_c, 1, 83, 127
1, 54000, Note_on_c, 1, 55, 127
1, 54029, Note_off_c, 1, 64, 0
1, 54030, Note_on_c, 1, 67, 127
1, 54059, Note_off_c, 1, 83, 0
1, 54059, Note_off_c, 1, 55, 0
1, 54059, Note_off_c, 1, 67, 0
1, 54060, Note_on_c, 1, 66, 127
1, 54060, Note_on_c, 1, 76, 127
1, 54060, Note_on_c, 1, 59, 127
1, 54074, Note_off_c, 1, 76, 0
1, 54075, Note_on_c, 1, 75, 127
1, 54089, Note_off_c, 1, 75, 0
1, 54090, Note_on_c, 1, 73, 127
1, 54104, Note_off_c, 1, 73, 0
1, 54119, Note_off_c, 1, 66, 0
1, 54119, Note_off_c, 1, 59, 0
1, 54120, Note_on_c, 1, 64, 127
1, 54120, Note_on_c, 1, 76, 127
1, 54120, Note_on_c, 1, 60, 127
1, 54179, Note_off_c, 1, 64, 0
1, 54179, Note_off_c, 1, 60, 0
1, 54180, Note_on_c, 1, 59, 127
1, 54195, Note_on_c, 1, 66, 127
1, 54209, Note_off_c, 1, 66, 0
1, 54210, Note_on_c, 1, 67, 127
1, 54239, Note_off_c, 1, 59, 0
1, 54239, Note_off_c, 1, 67, 0
1, 54240, Note_on_c, 1, 57, 127
1, 54299, Note_off_c, 1, 76, 0
1, 54299, Note_off_c, 1, 57, 0
1, 54300, Note_on_c, 1, 57, 127
1, 54300, Note_on_c, 1, 59, 127
1, 54314, Note_off_c, 1, 57, 0
1, 54330, Note_on_c, 1, 60, 127
1, 54330, Note_on_c, 1, 78, 127
1, 54359, Note_off_c, 1, 59, 0
1, 54359, Note_off_c, 1, 78, 0
1, 54360, Note_on_c, 1, 75, 127
1, 54360, Note_on_c, 1, 47, 127
1, 54389, Note_off_c, 1, 60, 0
1, 54389, Note_off_c, 1, 75, 0
1, 54390, Note_on_c, 1, 76, 127
1, 54419, Note_off_c, 1, 47, 0
1, 54419, Note_off_c, 1, 76, 0
1, 54420, Note_on_c, 1, 57, 127
1, 54420, Note_on_c, 1, 78, 127
1, 54420, Note_on_c, 1, 51, 127
1, 54479, Note_off_c, 1, 57, 0
1, 54479, Note_off_c, 1, 51, 0
1, 54480, Note_on_c, 1, 55, 127
1, 54480, Note_on_c, 1, 52, 127
1, 54509, Note_off_c, 1, 78, 0
1, 54510, Note_on_c, 1, 79, 127
1, 54539, Note_off_c, 1, 55, 0
1, 54539, Note_off_c, 1, 52, 0
1, 54539, Note_off_c, 1, 79, 0
1, 54540, Note_on_c, 1, 54, 127
1, 54540, Note_on_c, 1, 81, 127
1, 54540, Note_on_c, 1, 40, 127
1, 54569, Note_off_c, 1, 54, 0
1, 54569, Note_off_c, 1, 81, 0
1, 54570, Note_on_c, 1, 52, 127
1, 54570, Note_on_c, 1, 78, 127
1, 54599, Note_off_c, 1, 40, 0
1, 54599, Note_off_c, 1, 52, 0
1, 54599, Note_off_c, 1, 78, 0
1, 54600, Note_on_c, 1, 64, 127
1, 54600, Note_on_c, 1, 79, 127
1, 54600, Note_on_c, 1, 52, 127
1, 54629, Note_off_c, 1, 79, 0
1, 54630, Note_on_c, 1, 76, 127
1, 54659, Note_off_c, 1, 52, 0
1, 54659, Note_off_c, 1, 76, 0
1, 54660, Note_on_c, 1, 81, 127
1, 54660, Note_on_c, 1, 54, 127
1, 54689, Note_off_c, 1, 81, 0
1, 54690, Note_on_c, 1, 84, 127
1, 54719, Note_off_c, 1, 64, 0
1, 54719, Note_off_c, 1, 54, 0
1, 54719, Note_off_c, 1, 84, 0
1, 54720, Note_on_c, 1, 62, 127
1, 54720, Note_on_c, 1, 83, 127
1, 54720, Note_on_c, 1, 56, 127
1, 54749, Note_off_c, 1, 62, 0
1, 54749, Note_off_c, 1, 83, 0
1, 54750, Note_on_c, 1, 60, 127
1, 54750, Note_on_c, 1, 81, 127
1, 54779, Note_off_c, 1, 56, 0
1, 54779, Note_off_c, 1, 60, 0
1, 54779, Note_off_c, 1, 81, 0
1, 54780, Note_on_c, 1, 62, 127
1, 54780, Note_on_c, 1, 83, 127
1, 54780, Note_on_c, 1, 52, 127
1, 54809, Note_off_c, 1, 83, 0
1, 54810, Note_on_c, 1, 80, 127
1, 54839, Note_off_c, 1, 52, 0
1, 54839, Note_off_c, 1, 80, 0
1, 54840, Note_on_c, 1, 76, 127
1, 54840, Note_on_c, 1, 57, 127
1, 54899, Note_off_c, 1, 62, 0
1, 54899, Note_off_c, 1, 76, 0
1, 54899, Note_off_c, 1, 57, 0
1, 54900, Note_on_c, 1, 60, 127
1, 54900, Note_on_c, 1, 79, 127
1, 54900, Note_on_c, 1, 45, 127
1, 54914, Note_off_c, 1, 60, 0
1, 54915, Note_on_c, 1, 59, 127
1, 54929, Note_off_c, 1, 79, 0
1, 54929, Note_off_c, 1, 59, 0
1, 54930, Note_on_c, 1, 57, 127
1, 54930, Note_on_c, 1, 78, 127
1, 54959, Note_off_c, 1, 45, 0
1, 54959, Note_off_c, 1, 57, 0
1, 54959, Note_off_c, 1, 78, 0
1, 54960, Note_on_c, 1, 59, 127
1, 54960, Note_on_c, 1, 76, 127
1, 54960, Note_on_c, 1, 57, 127
1, 54989, Note_off_c, 1, 76, 0
1, 54990, Note_on_c, 1, 75, 127
1, 55019, Note_off_c, 1, 57, 0
1, 55019, Note_off_c, 1, 75, 0
1, 55020, Note_on_c, 1, 83, 127
1, 55020, Note_on_c, 1, 55, 127
1, 55079, Note_off_c, 1, 59, 0
1, 55079, Note_off_c, 1, 83, 0
1, 55080, Note_on_c, 1, 71, 127
1, 55110, Note_off_c, 1, 55, 0
1, 55139, Note_off_c, 1, 71, 0
1, 55140, Note_on_c, 1, 54, 127
1, 55169, Note_off_c, 1, 54, 0
1, 55170, Note_on_c, 1, 52, 127
1, 55199, Note_off_c, 1, 52, 0
1, 55200, Note_on_c, 1, 52, 127
1, 55200, Note_on_c, 1, 76, 127
1, 55260, Note_on_c, 1, 40, 127
1, 55319, Note_off_c, 1, 52, 0
1, 55319, Note_off_c, 1, 76, 0
1, 55319, Note_off_c, 1, 40, 0
1, 55320, Note_on_c, 1, 59, 127
1, 55320, Note_on_c, 1, 71, 127
1, 55320, Note_on_c, 1, 66, 127
1, 55320, Note_on_c, 1, 50, 127
1, 55379, Note_off_c, 1, 59, 0
1, 55379, Note_off_c, 1, 71, 0
1, 55379, Note_off_c, 1, 66, 0
1, 55379, Note_off_c, 1, 50, 0
1, 55380, Note_on_c, 1, 59, 127
1, 55380, Note_on_c, 1, 70, 127
1, 55380, Note_on_c, 1, 66, 127
1, 55380, Note_on_c, 1, 64, 127
1, 55380, Note_on_c, 1, 49, 127
1, 55409, Note_off_c, 1, 59, 0
1, 55410, Note_on_c, 1, 58, 127
1, 55439, Note_off_c, 1, 49, 0
1, 55440, Note_on_c, 1, 46, 127
1, 55469, Note_off_c, 1, 58, 0
1, 55470, Note_on_c, 1, 67, 127
1, 55499, Note_off_c, 1, 46, 0
1, 55499, Note_off_c, 1, 67, 0
1, 55500, Note_off_c, 1, 64, 0
1, 55500, Note_on_c, 1, 65, 127
1, 55500, Note_on_c, 1, 42, 127
1, 55559, Note_off_c, 1, 70, 0
1, 55559, Note_off_c, 1, 66, 0
1, 55559, Note_off_c, 1, 65, 0
1, 55559, Note_off_c, 1, 42, 0
1, 55560, Note_on_c, 1, 62, 127
1, 55560, Note_on_c, 1, 71, 127
1, 55560, Note_on_c, 1, 66, 127
1, 55560, Note_on_c, 1, 47, 127
1, 55570, Note_on_c, 1, 64, 127
1, 55580, Note_off_c, 1, 64, 0
1, 55619, Note_off_c, 1, 47, 0
1, 55620, Note_on_c, 1, 61, 127
1, 55620, Note_on_c, 1, 50, 127
1, 55649, Note_off_c, 1, 61, 0
1, 55650, Note_on_c, 1, 59, 127
1, 55679, Note_off_c, 1, 50, 0
1, 55679, Note_off_c, 1, 59, 0
1, 55740, Note_off_c, 1, 62, 0
1, 55740, Note_off_c, 1, 71, 0
1, 55740, Note_off_c, 1, 66, 0
1, 55740, Note_on_c, 1, 60, 127
1, 55740, Note_on_c, 1, 72, 127
1, 55740, Note_on_c, 1, 67, 127
1, 55740, Note_on_c, 1, 52, 127
1, 55750, Note_off_c, 1, 60, 0
1, 55799, Note_off_c, 1, 52, 0
1, 55800, Note_off_c, 1, 67, 0
1, 55800, Note_on_c, 1, 75, 127
1, 55800, Note_on_c, 1, 54, 127
1, 55859, Note_off_c, 1, 54, 0
1, 55920, Note_off_c, 1, 72, 0
1, 55920, Note_off_c, 1, 75, 0
1, 55920, Note_on_c, 1, 55, 127
1, 55979, Note_off_c, 1, 55, 0
1, 55980, Note_on_c, 1, 57, 127
1, 55980, Note_on_c, 1, 43, 127
1, 56009, Note_off_c, 1, 57, 0
1, 56039, Note_off_c, 1, 43, 0
1, 56040, Note_on_c, 1, 74, 127
1, 56040, Note_on_c, 1, 42, 127
1, 56099, Note_off_c, 1, 74, 0
1, 56099, Note_off_c, 1, 42, 0
1, 56100, Note_on_c, 1, 59, 127
1, 56100, Note_on_c, 1, 79, 127
1, 56100, Note_on_c, 1, 40, 127
1, 56129, Note_off_c, 1, 59, 0
1, 56130, Note_on_c, 1, 60, 127
1, 56159, Note_off_c, 1, 40, 0
1, 56159, Note_off_c, 1, 60, 0
1, 56160, Note_on_c, 1, 62, 127
1, 56160, Note_on_c, 1, 47, 127
1, 56189, Note_off_c, 1, 79, 0
1, 56190, Note_on_c, 1, 83, 127
1, 56219, Note_off_c, 1, 62, 0
1, 56219, Note_off_c, 1, 47, 0
1, 56219, Note_off_c, 1, 83, 0
1, 56220, Note_on_c, 1, 60, 127
1, 56220, Note_on_c, 1, 81, 127
1, 56220, Note_on_c, 1, 50, 127
1, 56279, Note_off_c, 1, 60, 0
1, 56279, Note_off_c, 1, 81, 0
1, 56279, Note_off_c, 1, 50, 0
1, 56280, Note_on_c, 1, 59, 127
1, 56280, Note_on_c, 1, 79, 127
1, 56280, Note_on_c, 1, 52, 127
1, 56339, Note_off_c, 1, 59, 0
1, 56339, Note_off_c, 1, 79, 0
1, 56339, Note_off_c, 1, 52, 0
1, 56340, Note_on_c, 1, 64, 127
1, 56340, Note_on_c, 1, 79, 127
1, 56340, Note_on_c, 1, 48, 127
1, 56354, Note_off_c, 1, 79, 0
1, 56355, Note_on_c, 1, 81, 127
1, 56369, Note_off_c, 1, 64, 0
1, 56369, Note_off_c, 1, 81, 0
1, 56370, Note_on_c, 1, 62, 127
1, 56370, Note_on_c, 1, 83, 127
1, 56399, Note_off_c, 1, 48, 0
1, 56399, Note_off_c, 1, 62, 0
1, 56399, Note_off_c, 1, 83, 0
1, 56400, Note_on_c, 1, 61, 127
1, 56400, Note_on_c, 1, 81, 127
1, 56400, Note_on_c, 1, 45, 127
1, 56429, Note_off_c, 1, 61, 0
1, 56430, Note_on_c, 1, 59, 127
1, 56459, Note_off_c, 1, 81, 0
1, 56459, Note_off_c, 1, 45, 0
1, 56459, Note_off_c, 1, 59, 0
1, 56460, Note_on_c, 1, 57, 127
1, 56460, Note_on_c, 1, 76, 127
1, 56460, Note_on_c, 1, 50, 127
1, 56474, Note_off_c, 1, 76, 0
1, 56475, Note_on_c, 1, 74, 127
1, 56489, Note_off_c, 1, 57, 0
1, 56489, Note_off_c, 1, 74, 0
1, 56490, Note_on_c, 1, 55, 127
1, 56490, Note_on_c, 1, 72, 127
1, 56504, Note_off_c, 1, 72, 0
1, 56519, Note_off_c, 1, 55, 0
1, 56520, Note_on_c, 1, 60, 127
1, 56549, Note_off_c, 1, 60, 0
1, 56550, Note_on_c, 1, 59, 127
1, 56579, Note_off_c, 1, 50, 0
1, 56579, Note_off_c, 1, 59, 0
1, 56580, Note_on_c, 1, 57, 127
1, 56580, Note_on_c, 1, 72, 127
1, 56580, Note_on_c, 1, 38, 127
1, 56609, Note_off_c, 1, 57, 0
1, 56610, Note_on_c, 1, 59, 127
1, 56639, Note_off_c, 1, 72, 0
1, 56639, Note_off_c, 1, 38, 0
1, 56639, Note_off_c, 1, 59, 0
1, 56640, Note_on_c, 1, 55, 127
1, 56640, Note_on_c, 1, 71, 127
1, 56640, Note_on_c, 1, 43, 127
1, 56654, Note_off_c, 1, 71, 0
1, 56655, Note_on_c, 1, 69, 127
1, 56669, Note_off_c, 1, 69, 0
1, 56699, Note_off_c, 1, 43, 0
1, 56730, Note_on_c, 1, 67, 127
1, 56730, Note_on_c, 1, 54, 127
1, 56759, Note_off_c, 1, 55, 0
1, 56759, Note_off_c, 1, 67, 0
1, 56759, Note_off_c, 1, 54, 0
1, 56760, Note_on_c, 1, 79, 127
1, 56760, Note_on_c, 1, 52, 127
1, 56789, Note_off_c, 1, 52, 0
1, 56790, Note_on_c, 1, 50, 127
1, 56819, Note_off_c, 1, 50, 0
1, 56820, Note_on_c, 1, 49, 127
1, 56879, Note_off_c, 1, 79, 0
1, 56879, Note_off_c, 1, 49, 0
1, 56880, Note_on_c, 1, 78, 127
1, 56880, Note_on_c, 1, 45, 127
1, 56909, Note_off_c, 1, 78, 0
1, 56910, Note_on_c, 1, 76, 127
1, 56939, Note_off_c, 1, 45, 0
1, 56939, Note_off_c, 1, 76, 0
1, 56940, Note_on_c, 1, 78, 127
1, 56940, Note_on_c, 1, 50, 127
1, 56999, Note_off_c, 1, 50, 0
1, 57000, Note_on_c, 1, 43, 127
1, 57059, Note_off_c, 1, 78, 0
1, 57059, Note_off_c, 1, 43, 0
1, 57060, Note_on_c, 1, 76, 127
1, 57060, Note_on_c, 1, 45, 127
1, 57074, Note_off_c, 1, 76, 0
1, 57075, Note_on_c, 1, 74, 127
1, 57089, Note_off_c, 1, 74, 0
1, 57090, Note_on_c, 1, 73, 127
1, 57119, Note_off_c, 1, 45, 0
1, 57119, Note_off_c, 1, 73, 0
1, 57120, Note_on_c, 1, 74, 127
1, 57120, Note_on_c, 1, 47, 127
1, 57179, Note_off_c, 1, 47, 0
1, 57180, Note_on_c, 1, 40, 127
1, 57209, Note_off_c, 1, 74, 0
1, 57210, Note_on_c, 1, 83, 127
1, 57239, Note_off_c, 1, 40, 0
1, 57239, Note_off_c, 1, 83, 0
1, 57240, Note_on_c, 1, 81, 127
1, 57240, Note_on_c, 1, 42, 127
1, 57269, Note_off_c, 1, 81, 0
1, 57270, Note_on_c, 1, 79, 127
1, 57299, Note_off_c, 1, 42, 0
1, 57299, Note_off_c, 1, 79, 0
1, 57300, Note_on_c, 1, 81, 127
1, 57300, Note_on_c, 1, 43, 127
1, 57329, Note_off_c, 1, 81, 0
1, 57330, Note_on_c, 1, 83, 127
1, 57359, Note_off_c, 1, 43, 0
1, 57359, Note_off_c, 1, 83, 0
1, 57360, Note_on_c, 1, 73, 127
1, 57360, Note_on_c, 1, 45, 127
1, 57389, Note_off_c, 1, 73, 0
1, 57390, Note_on_c, 1, 74, 127
1, 57419, Note_off_c, 1, 74, 0
1, 57420, Note_on_c, 1, 76, 127
1, 57449, Note_off_c, 1, 45, 0
1, 57449, Note_off_c, 1, 76, 0
1, 57450, Note_on_c, 1, 79, 127
1, 57450, Note_on_c, 1, 47, 127
1, 57479, Note_off_c, 1, 79, 0
1, 57479, Note_off_c, 1, 47, 0
1, 57480, Note_on_c, 1, 57, 127
1, 57480, Note_on_c, 1, 78, 127
1, 57480, Note_on_c, 1, 49, 127
1, 57509, Note_off_c, 1, 78, 0
1, 57510, Note_on_c, 1, 76, 127
1, 57539, Note_off_c, 1, 57, 0
1, 57539, Note_off_c, 1, 49, 0
1, 57539, Note_off_c, 1, 76, 0
1, 57540, Note_on_c, 1, 62, 127
1, 57540, Note_on_c, 1, 78, 127
1, 57540, Note_on_c, 1, 50, 127
1, 57569, Note_off_c, 1, 78, 0
1, 57570, Note_on_c, 1, 79, 127
1, 57599, Note_off_c, 1, 50, 0
1, 57599, Note_off_c, 1, 79, 0
1, 57600, Note_on_c, 1, 81, 127
1, 57600, Note_on_c, 1, 54, 127
1, 57629, Note_off_c, 1, 62, 0
1, 57630, Note_on_c, 1, 66, 127
1, 57659, Note_off_c, 1, 81, 0
1, 57659, Note_off_c, 1, 54, 0
1, 57659, Note_off_c, 1, 66, 0
1, 57660, Note_on_c, 1, 64, 127
1, 57660, Note_on_c, 1, 74, 127
1, 57660, Note_on_c, 1, 57, 127
1, 57674, Note_off_c, 1, 74, 0
1, 57675, Note_on_c, 1, 73, 127
1, 57689, Note_off_c, 1, 73, 0
1, 57690, Note_on_c, 1, 71, 127
1, 57704, Note_off_c, 1, 71, 0
1, 57719, Note_off_c, 1, 64, 0
1, 57719, Note_off_c, 1, 57, 0
1, 57720, Note_on_c, 1, 62, 127
1, 57720, Note_on_c, 1, 74, 127
1, 57720, Note_on_c, 1, 59, 127
1, 57729, Note_off_c, 1, 74, 0
1, 57730, Note_on_c, 1, 76, 127
1, 57739, Note_off_c, 1, 76, 0
1, 57779, Note_off_c, 1, 62, 0
1, 57779, Note_off_c, 1, 59, 0
1, 57780, Note_on_c, 1, 62, 127
1, 57780, Note_on_c, 1, 74, 127
1, 57780, Note_on_c, 1, 47, 127
1, 57789, Note_off_c, 1, 74, 0
1, 57790, Note_on_c, 1, 76, 127
1, 57794, Note_off_c, 1, 62, 0
1, 57795, Note_on_c, 1, 64, 127
1, 57799, Note_off_c, 1, 76, 0
1, 57809, Note_off_c, 1, 47, 0
1, 57809, Note_off_c, 1, 64, 0
1, 57810, Note_on_c, 1, 66, 127
1, 57810, Note_on_c, 1, 76, 127
1, 57810, Note_on_c, 1, 45, 127
1, 57819, Note_off_c, 1, 76, 0
1, 57820, Note_on_c, 1, 74, 127
1, 57829, Note_off_c, 1, 74, 0
1, 57839, Note_off_c, 1, 66, 0
1, 57839, Note_off_c, 1, 45, 0
1, 57840, Note_on_c, 1, 64, 127
1, 57840, Note_on_c, 1, 74, 127
1, 57840, Note_on_c, 1, 43, 127
1, 57849, Note_off_c, 1, 74, 0
1, 57850, Note_on_c, 1, 76, 127
1, 57859, Note_off_c, 1, 76, 0
1, 57869, Note_off_c, 1, 43, 0
1, 57870, Note_on_c, 1, 42, 127
1, 57899, Note_off_c, 1, 64, 0
1, 57899, Note_off_c, 1, 42, 0
1, 57900, Note_on_c, 1, 64, 127
1, 57900, Note_on_c, 1, 74, 127
1, 57900, Note_on_c, 1, 43, 127
1, 57909, Note_off_c, 1, 74, 0
1, 57910, Note_on_c, 1, 76, 127
1, 57919, Note_off_c, 1, 76, 0
1, 57959, Note_off_c, 1, 43, 0
1, 57960, Note_on_c, 1, 40, 127
1, 57989, Note_off_c, 1, 64, 0
1, 57990, Note_on_c, 1, 67, 127
1, 58019, Note_off_c, 1, 40, 0
1, 58019, Note_off_c, 1, 67, 0
1, 58020, Note_on_c, 1, 66, 127
1, 58020, Note_on_c, 1, 74, 127
1, 58020, Note_on_c, 1, 42, 127
1, 58029, Note_off_c, 1, 74, 0
1, 58030, Note_on_c, 1, 76, 127
1, 58039, Note_off_c, 1, 76, 0
1, 58079, Note_off_c, 1, 66, 0
1, 58079, Note_off_c, 1, 42, 0
1, 58080, Note_on_c, 1, 64, 127
1, 58080, Note_on_c, 1, 74, 127
1, 58080, Note_on_c, 1, 43, 127
1, 58089, Note_off_c, 1, 74, 0
1, 58090, Note_on_c, 1, 76, 127
1, 58099, Note_off_c, 1, 76, 0
1, 58139, Note_off_c, 1, 64, 0
1, 58139, Note_off_c, 1, 43, 0
1, 58140, Note_on_c, 1, 64, 127
1, 58140, Note_on_c, 1, 74, 127
1, 58140, Note_on_c, 1, 40, 127
1, 58149, Note_off_c, 1, 74, 0
1, 58150, Note_on_c, 1, 76, 127
1, 58154, Note_off_c, 1, 64, 0
1, 58155, Note_on_c, 1, 66, 127
1, 58159, Note_off_c, 1, 76, 0
1, 58169, Note_off_c, 1, 66, 0
1, 58170, Note_on_c, 1, 67, 127
1, 58199, Note_off_c, 1, 40, 0
1, 58199, Note_off_c, 1, 67, 0
1, 58200, Note_on_c, 1, 66, 127
1, 58200, Note_on_c, 1, 74, 127
1, 58200, Note_on_c, 1, 45, 127
1, 58209, Note_off_c, 1, 74, 0
1, 58210, Note_on_c, 1, 76, 127
1, 58219, Note_off_c, 1, 76, 0
1, 58259, Note_off_c, 1, 66, 0
1, 58259, Note_off_c, 1, 45, 0
1, 58260, Note_on_c, 1, 66, 127
1, 58260, Note_on_c, 1, 74, 127
1, 58260, Note_on_c, 1, 47, 127
1, 58319, Note_off_c, 1, 66, 0
1, 58319, Note_off_c, 1, 47, 0
1, 58320, Note_on_c, 1, 45, 127
1, 58335, Note_on_c, 1, 67, 127
1, 58349, Note_off_c, 1, 74, 0
1, 58349, Note_off_c, 1, 67, 0
1, 58350, Note_on_c, 1, 69, 127
1, 58350, Note_on_c, 1, 73, 127
1, 58379, Note_off_c, 1, 45, 0
1, 58379, Note_off_c, 1, 69, 0
1, 58379, Note_off_c, 1, 73, 0
1, 58380, Note_on_c, 1, 67, 127
1, 58380, Note_on_c, 1, 76, 127
1, 58380, Note_on_c, 1, 47, 127
1, 58409, Note_off_c, 1, 76, 0
1, 58410, Note_on_c, 1, 74, 127
1, 58439, Note_off_c, 1, 67, 0
1, 58439, Note_off_c, 1, 47, 0
1, 58439, Note_off_c, 1, 74, 0
1, 58440, Note_on_c, 1, 67, 127
1, 58440, Note_on_c, 1, 76, 127
1, 58440, Note_on_c, 1, 49, 127
1, 58499, Note_off_c, 1, 67, 0
1, 58499, Note_off_c, 1, 49, 0
1, 58500, Note_on_c, 1, 47, 127
1, 58515, Note_on_c, 1, 69, 127
1, 58529, Note_off_c, 1, 69, 0
1, 58530, Note_on_c, 1, 71, 127
1, 58559, Note_off_c, 1, 47, 0
1, 58559, Note_off_c, 1, 71, 0
1, 58619, Note_off_c, 1, 76, 0
1, 58620, Note_on_c, 1, 66, 127
1, 58620, Note_on_c, 1, 50, 127
1, 58630, Note_off_c, 1, 66, 0
1, 58630, Note_on_c, 1, 67, 127
1, 58640, Note_off_c, 1, 67, 0
1, 58650, Note_on_c, 1, 73, 127
1, 58679, Note_off_c, 1, 50, 0
1, 58679, Note_off_c, 1, 73, 0
1, 58680, Note_on_c, 1, 74, 127
1, 58680, Note_on_c, 1, 54, 127
1, 58709, Note_off_c, 1, 74, 0
1, 58710, Note_on_c, 1, 64, 127
1, 58710, Note_on_c, 1, 76, 127
1, 58739, Note_off_c, 1, 54, 0
1, 58739, Note_off_c, 1, 64, 0
1, 58739, Note_off_c, 1, 76, 0
1, 58740, Note_on_c, 1, 62, 127
1, 58740, Note_on_c, 1, 78, 127
1, 58740, Note_on_c, 1, 57, 127
1, 58769, Note_off_c, 1, 78, 0
1, 58770, Note_on_c, 1, 79, 127
1, 58799, Note_off_c, 1, 62, 0
1, 58799, Note_off_c, 1, 57, 0
1, 58799, Note_off_c, 1, 79, 0
1, 58800, Note_on_c, 1, 60, 127
1, 58800, Note_on_c, 1, 81, 127
1, 58800, Note_on_c, 1, 51, 127
1, 58829, Note_off_c, 1, 81, 0
1, 58830, Note_on_c, 1, 78, 127
1, 58859, Note_off_c, 1, 60, 0
1, 58859, Note_off_c, 1, 51, 0
1, 58859, Note_off_c, 1, 78, 0
1, 58860, Note_on_c, 1, 59, 127
1, 58860, Note_on_c, 1, 76, 127
1, 58860, Note_on_c, 1, 47, 127
1, 58889, Note_off_c, 1, 76, 0
1, 58890, Note_on_c, 1, 75, 127
1, 58919, Note_off_c, 1, 47, 0
1, 58919, Note_off_c, 1, 75, 0
1, 58920, Note_on_c, 1, 73, 127
1, 58920, Note_on_c, 1, 51, 127
1, 58949, Note_off_c, 1, 73, 0
1, 58950, Note_on_c, 1, 71, 127
1, 58979, Note_off_c, 1, 51, 0
1, 58979, Note_off_c, 1, 71, 0
1, 58980, Note_on_c, 1, 79, 127
1, 58980, Note_on_c, 1, 52, 127
1, 59009, Note_off_c, 1, 79, 0
1, 59010, Note_on_c, 1, 78, 127
1, 59039, Note_off_c, 1, 59, 0
1, 59039, Note_off_c, 1, 52, 0
1, 59039, Note_off_c, 1, 78, 0
1, 59040, Note_on_c, 1, 76, 127
1, 59040, Note_on_c, 1, 55, 127
1, 59069, Note_off_c, 1, 76, 0
1, 59070, Note_on_c, 1, 61, 127
1, 59070, Note_on_c, 1, 74, 127
1, 59084, Note_off_c, 1, 61, 0
1, 59085, Note_on_c, 1, 63, 127
1, 59099, Note_off_c, 1, 55, 0
1, 59099, Note_off_c, 1, 74, 0
1, 59099, Note_off_c, 1, 63, 0
1, 59100, Note_on_c, 1, 64, 127
1, 59100, Note_on_c, 1, 73, 127
1, 59100, Note_on_c, 1, 52, 127
1, 59129, Note_off_c, 1, 64, 0
1, 59129, Note_off_c, 1, 73, 0
1, 59130, Note_on_c, 1, 66, 127
1, 59130, Note_on_c, 1, 71, 127
1, 59159, Note_off_c, 1, 52, 0
1, 59159, Note_off_c, 1, 66, 0
1, 59159, Note_off_c, 1, 71, 0
1, 59160, Note_on_c, 1, 67, 127
1, 59160, Note_on_c, 1, 70, 127
1, 59160, Note_on_c, 1, 49, 127
1, 59219, Note_off_c, 1, 67, 0
1, 59219, Note_off_c, 1, 49, 0
1, 59220, Note_on_c, 1, 66, 127
1, 59220, Note_on_c, 1, 52, 127
1, 59249, Note_off_c, 1, 70, 0
1, 59250, Note_on_c, 1, 71, 127
1, 59264, Note_off_c, 1, 71, 0
1, 59265, Note_on_c, 1, 73, 127
1, 59279, Note_off_c, 1, 52, 0
1, 59279, Note_off_c, 1, 73, 0
1, 59280, Note_on_c, 1, 74, 127
1, 59309, Note_off_c, 1, 74, 0
1, 59310, Note_on_c, 1, 76, 127
1, 59339, Note_off_c, 1, 76, 0
1, 59340, Note_on_c, 1, 78, 127
1, 59340, Note_on_c, 1, 50, 127
1, 59369, Note_off_c, 1, 78, 0
1, 59399, Note_off_c, 1, 66, 0
1, 59399, Note_off_c, 1, 50, 0
1, 59400, Note_on_c, 1, 71, 127
1, 59400, Note_on_c, 1, 55, 127
1, 59430, Note_on_c, 1, 64, 127
1, 59444, Note_off_c, 1, 64, 0
1, 59445, Note_on_c, 1, 62, 127
1, 59459, Note_off_c, 1, 71, 0
1, 59459, Note_off_c, 1, 55, 0
1, 59459, Note_off_c, 1, 62, 0
1, 59460, Note_on_c, 1, 61, 127
1, 59460, Note_on_c, 1, 79, 127
1, 59460, Note_on_c, 1, 52, 127
1, 59474, Note_off_c, 1, 61, 0
1, 59475, Note_on_c, 1, 62, 127
1, 59489, Note_off_c, 1, 62, 0
1, 59490, Note_on_c, 1, 64, 127
1, 59519, Note_off_c, 1, 52, 0
1, 59519, Note_off_c, 1, 64, 0
1, 59520, Note_on_c, 1, 58, 127
1, 59520, Note_on_c, 1, 54, 127
1, 59549, Note_off_c, 1, 79, 0
1, 59550, Note_on_c, 1, 77, 127
1, 59579, Note_off_c, 1, 54, 0
1, 59579, Note_off_c, 1, 77, 0
1, 59580, Note_on_c, 1, 78, 127
1, 59580, Note_on_c, 1, 42, 127
1, 59609, Note_off_c, 1, 78, 0
1, 59610, Note_on_c, 1, 82, 127
1, 59639, Note_off_c, 1, 58, 0
1, 59639, Note_off_c, 1, 42, 0
1, 59639, Note_off_c, 1, 82, 0
1, 59640, Note_on_c, 1, 54, 127
1, 59640, Note_on_c, 1, 83, 127
1, 59669, Note_off_c, 1, 83, 0
1, 59670, Note_on_c, 1, 85, 127
1, 59699, Note_off_c, 1, 54, 0
1, 59699, Note_off_c, 1, 85, 0
1, 59700, Note_on_c, 1, 59, 127
1, 59700, Note_on_c, 1, 86, 127
1, 59729, Note_off_c, 1, 86, 0
1, 59730, Note_on_c, 1, 85, 127
1, 59759, Note_off_c, 1, 85, 0
1, 59760, Note_on_c, 1, 83, 127
1, 59789, Note_off_c, 1, 83, 0
1, 59790, Note_on_c, 1, 62, 127
1, 59790, Note_on_c, 1, 81, 127
1, 59819, Note_off_c, 1, 59, 0
1, 59819, Note_off_c, 1, 62, 0
1, 59819, Note_off_c, 1, 81, 0
1, 59820, Note_on_c, 1, 61, 127
1, 59820, Note_on_c, 1, 79, 127
1, 59820, Note_on_c, 1, 57, 127
1, 59849, Note_off_c, 1, 79, 0
1, 59850, Note_on_c, 1, 78, 127
1, 59879, Note_off_c, 1, 61, 0
1, 59879, Note_off_c, 1, 57, 0
1, 59879, Note_off_c, 1, 78, 0
1, 59880, Note_on_c, 1, 59, 127
1, 59880, Note_on_c, 1, 76, 127
1, 59880, Note_on_c, 1, 55, 127
1, 59909, Note_off_c, 1, 76, 0
1, 59910, Note_on_c, 1, 74, 127
1, 59924, Note_off_c, 1, 74, 0
1, 59925, Note_on_c, 1, 73, 127
1, 59939, Note_off_c, 1, 59, 0
1, 59939, Note_off_c, 1, 55, 0
1, 59939, Note_off_c, 1, 73, 0
1, 59940, Note_on_c, 1, 59, 127
1, 59940, Note_on_c, 1, 74, 127
1, 59940, Note_on_c, 1, 54, 127
1, 59954, Note_off_c, 1, 59, 0
1, 59955, Note_on_c, 1, 61, 127
1, 59969, Note_off_c, 1, 74, 0
1, 59969, Note_off_c, 1, 61, 0
1, 59970, Note_on_c, 1, 62, 127
1, 59970, Note_on_c, 1, 76, 127
1, 59999, Note_off_c, 1, 54, 0
1, 59999, Note_off_c, 1, 62, 0
1, 59999, Note_off_c, 1, 76, 0
1, 60000, Note_on_c, 1, 61, 127
1, 60000, Note_on_c, 1, 78, 127
1, 60000, Note_on_c, 1, 52, 127
1, 60029, Note_off_c, 1, 78, 0
1, 60030, Note_on_c, 1, 79, 127
1, 60059, Note_off_c, 1, 61, 0
1, 60059, Note_off_c, 1, 52, 0
1, 60059, Note_off_c, 1, 79, 0
1, 60060, Note_on_c, 1, 52, 127
1, 60060, Note_on_c, 1, 73, 127
1, 60060, Note_on_c, 1, 54, 127
1, 60074, Note_off_c, 1, 52, 0
1, 60090, Note_on_c, 1, 55, 127
1, 60119, Note_off_c, 1, 73, 0
1, 60119, Note_off_c, 1, 54, 0
1, 60120, Note_on_c, 1, 66, 127
1, 60120, Note_on_c, 1, 42, 127
1, 60149, Note_off_c, 1, 55, 0
1, 60179, Note_off_c, 1, 66, 0
1, 60179, Note_off_c, 1, 42, 0
1, 60180, Note_on_c, 1, 52, 127
1, 60180, Note_on_c, 1, 54, 127
1, 60209, Note_off_c, 1, 54, 0
1, 60210, Note_on_c, 1, 55, 127
1, 60239, Note_off_c, 1, 52, 0
1, 60239, Note_off_c, 1, 55, 0
1, 60240, Note_on_c, 1, 51, 127
1, 60240, Note_on_c, 1, 57, 127
1, 60299, Note_off_c, 1, 51, 0
1, 60299, Note_off_c, 1, 57, 0
1, 60300, Note_on_c, 1, 49, 127
1, 60300, Note_on_c, 1, 55, 127
1, 60329, Note_off_c, 1, 49, 0
1, 60330, Note_on_c, 1, 47, 127
1, 60359, Note_off_c, 1, 55, 0
1, 60359, Note_off_c, 1, 47, 0
1, 60360, Note_on_c, 1, 59, 127
1, 60360, Note_on_c, 1, 71, 127
1, 60360, Note_on_c, 1, 54, 127
1, 60419, Note_off_c, 1, 59, 0
1, 60419, Note_off_c, 1, 71, 0
1, 60419, Note_off_c, 1, 54, 0
1, 60420, Note_on_c, 1, 67, 127
1, 60420, Note_on_c, 1, 76, 127
1, 60420, Note_on_c, 1, 55, 127
1, 60439, Note_off_c, 1, 67, 0
1, 60440, Note_on_c, 1, 66, 127
1, 60459, Note_off_c, 1, 66, 0
1, 60460, Note_on_c, 1, 64, 127
1, 60479, Note_off_c, 1, 55, 0
1, 60479, Note_off_c, 1, 64, 0
1, 60480, Note_on_c, 1, 57, 127
1, 60509, Note_off_c, 1, 76, 0
1, 60510, Note_on_c, 1, 79, 127
1, 60539, Note_off_c, 1, 57, 0
1, 60539, Note_off_c, 1, 79, 0
1, 60540, Note_on_c, 1, 63, 127
1, 60540, Note_on_c, 1, 78, 127
1, 60540, Note_on_c, 1, 59, 127
1, 60599, Note_off_c, 1, 63, 0
1, 60599, Note_off_c, 1, 78, 0
1, 60599, Note_off_c, 1, 59, 0
1, 60600, Note_on_c, 1, 57, 127
1, 60600, Note_on_c, 1, 76, 127
1, 60600, Note_on_c, 1, 60, 127
1, 60659, Note_off_c, 1, 76, 0
1, 60659, Note_off_c, 1, 60, 0
1, 60660, Note_on_c, 1, 48, 127
1, 60675, Note_on_c, 1, 78, 127
1, 60689, Note_off_c, 1, 48, 0
1, 60689, Note_off_c, 1, 78, 0
1, 60690, Note_on_c, 1, 79, 127
1, 60690, Note_on_c, 1, 47, 127
1, 60719, Note_off_c, 1, 79, 0
1, 60719, Note_off_c, 1, 47, 0
1, 60720, Note_on_c, 1, 45, 127
1, 60749, Note_off_c, 1, 45, 0
1, 60750, Note_on_c, 1, 43, 127
1, 60779, Note_off_c, 1, 43, 0
1, 60840, Note_on_c, 1, 42, 127
1, 60870, Note_on_c, 1, 81, 127
1, 60899, Note_off_c, 1, 42, 0
1, 60899, Note_off_c, 1, 81, 0
1, 61230, Note_off_c, 1, 57, 0
1, 61230, Note_on_c, 1, 63, 127
1, 61230, Note_on_c, 1, 83, 127
1, 61259, Note_off_c, 1, 63, 0
1, 61259, Note_off_c, 1, 83, 0
1, 61260, Note_on_c, 1, 66, 127
1, 61260, Note_on_c, 1, 81, 127
1, 61260, Note_on_c, 1, 49, 127
1, 61289, Note_off_c, 1, 66, 0
1, 61290, Note_on_c, 1, 64, 127
1, 61319, Note_off_c, 1, 81, 0
1, 61319, Note_off_c, 1, 49, 0
1, 61319, Note_off_c, 1, 64, 0
1, 61320, Note_on_c, 1, 66, 127
1, 61320, Note_on_c, 1, 81, 127
1, 61320, Note_on_c, 1, 50, 127
1, 61379, Note_off_c, 1, 81, 0
1, 61379, Note_off_c, 1, 50, 0
1, 61380, Note_on_c, 1, 49, 127
1, 61395, Note_on_c, 1, 83, 127
1, 61409, Note_off_c, 1, 83, 0
1, 61410, Note_on_c, 1, 84, 127
1, 61439, Note_off_c, 1, 49, 0
1, 61439, Note_off_c, 1, 84, 0
1, 61440, Note_on_c, 1, 51, 127
1, 61499, Note_off_c, 1, 66, 0
1, 61499, Note_off_c, 1, 51, 0
1, 61500, Note_on_c, 1, 79, 127
1, 61500, Note_on_c, 1, 52, 127
1, 61510, Note_off_c, 1, 79, 0
1, 61510, Note_on_c, 1, 81, 127
1, 61520, Note_off_c, 1, 81, 0
1, 61529, Note_off_c, 1, 52, 0
1, 61530, Note_on_c, 1, 63, 127
1, 61530, Note_on_c, 1, 59, 127
1, 61559, Note_off_c, 1, 63, 0
1, 61559, Note_off_c, 1, 59, 0
1, 61560, Note_on_c, 1, 64, 127
1, 61589, Note_off_c, 1, 64, 0
1, 61590, Note_on_c, 1, 66, 127
1, 61590, Note_on_c, 1, 78, 127
1, 61590, Note_on_c, 1, 62, 127
1, 61619, Note_off_c, 1, 66, 0
1, 61619, Note_off_c, 1, 78, 0
1, 61619, Note_off_c, 1, 62, 0
1, 61620, Note_on_c, 1, 67, 127
1, 61620, Note_on_c, 1, 76, 127
1, 61620, Note_on_c, 1, 61, 127
1, 61649, Note_off_c, 1, 61, 0
1, 61650, Note_on_c, 1, 59, 127
1, 61679, Note_off_c, 1, 67, 0
1, 61679, Note_off_c, 1, 76, 0
1, 61679, Note_off_c, 1, 59, 0
1, 61680, Note_on_c, 1, 67, 127
1, 61680, Note_on_c, 1, 85, 127
1, 61680, Note_on_c, 1, 58, 127
1, 61709, Note_off_c, 1, 58, 0
1, 61710, Note_on_c, 1, 59, 127
1, 61739, Note_off_c, 1, 59, 0
1, 61740, Note_on_c, 1, 61, 127
1, 61769, Note_off_c, 1, 61, 0
1, 61770, Note_on_c, 1, 64, 127
1, 61799, Note_off_c, 1, 64, 0
1, 61800, Note_on_c, 1, 62, 127
1, 61829, Note_off_c, 1, 62, 0
1, 61859, Note_off_c, 1, 67, 0
1, 61890, Note_on_c, 1, 66, 127
1, 61904, Note_off_c, 1, 66, 0
1, 61980, Note_on_c, 1, 54, 127
1, 62039, Note_off_c, 1, 85, 0
1, 62039, Note_off_c, 1, 54, 0
1, 62040, Note_on_c, 1, 66, 127
1, 62040, Note_on_c, 1, 50, 127
1, 62070, Note_on_c, 1, 83, 127
1, 62084, Note_off_c, 1, 83, 0
1, 62085, Note_on_c, 1, 82, 127
1, 62099, Note_off_c, 1, 50, 0
1, 62099, Note_off_c, 1, 82, 0
1, 62100, Note_on_c, 1, 49, 127
1, 62130, Note_on_c, 1, 85, 127
1, 62159, Note_off_c, 1, 49, 0
1, 62159, Note_off_c, 1, 85, 0
1, 62160, Note_on_c, 1, 86, 127
1, 62160, Note_on_c, 1, 47, 127
1, 62189, Note_off_c, 1, 86, 0
1, 62219, Note_off_c, 1, 66, 0
1, 62219, Note_off_c, 1, 47, 0
1, 62220, Note_on_c, 1, 79, 127
1, 62220, Note_on_c, 1, 52, 127
1, 62250, Note_on_c, 1, 69, 127
1, 62279, Note_off_c, 1, 52, 0
1, 62279, Note_off_c, 1, 69, 0
1, 62280, Note_on_c, 1, 67, 127
1, 62280, Note_on_c, 1, 55, 127
1, 62309, Note_off_c, 1, 67, 0
1, 62310, Note_on_c, 1, 66, 127
1, 62339, Note_off_c, 1, 55, 0
1, 62339, Note_off_c, 1, 66, 0
1, 62340, Note_on_c, 1, 64, 127
1, 62340, Note_on_c, 1, 59, 127
1, 62369, Note_off_c, 1, 64, 0
1, 62370, Note_on_c, 1, 63, 127
1, 62399, Note_off_c, 1, 79, 0
1, 62399, Note_off_c, 1, 59, 0
1, 62399, Note_off_c, 1, 63, 0
1, 62400, Note_on_c, 1, 64, 127
1, 62430, Note_on_c, 1, 78, 127
1, 62459, Note_off_c, 1, 78, 0
1, 62460, Note_on_c, 1, 76, 127
1, 62460, Note_on_c, 1, 66, 127
1, 62489, Note_off_c, 1, 76, 0
1, 62490, Note_on_c, 1, 74, 127
1, 62519, Note_off_c, 1, 66, 0
1, 62519, Note_off_c, 1, 74, 0
1, 62520, Note_on_c, 1, 73, 127
1, 62520, Note_on_c, 1, 67, 127
1, 62549, Note_off_c, 1, 73, 0
1, 62579, Note_off_c, 1, 67, 0
1, 62580, Note_on_c, 1, 70, 127
1, 62639, Note_off_c, 1, 64, 0
1, 62640, Note_on_c, 1, 62, 127
1, 62640, Note_on_c, 1, 54, 127
1, 62669, Note_off_c, 1, 62, 0
1, 62670, Note_on_c, 1, 61, 127
1, 62699, Note_off_c, 1, 70, 0
1, 62699, Note_off_c, 1, 54, 0
1, 62699, Note_off_c, 1, 61, 0
1, 62700, Note_on_c, 1, 62, 127
1, 62700, Note_on_c, 1, 59, 127
1, 62759, Note_off_c, 1, 59, 0
1, 62760, Note_on_c, 1, 71, 127
1, 62760, Note_on_c, 1, 74, 127
1, 62760, Note_on_c, 1, 52, 127
1, 62819, Note_off_c, 1, 62, 0
1, 62819, Note_off_c, 1, 71, 0
1, 62819, Note_off_c, 1, 74, 0
1, 62819, Note_off_c, 1, 52, 0
1, 62820, Note_on_c, 1, 61, 127
1, 62820, Note_on_c, 1, 70, 127
1, 62820, Note_on_c, 1, 66, 127
1, 62820, Note_on_c, 1, 54, 127
1, 62834, Note_off_c, 1, 61, 0
1, 62835, Note_on_c, 1, 59, 127
1, 62849, Note_off_c, 1, 59, 0
1, 62850, Note_on_c, 1, 58, 127
1, 62879, Note_off_c, 1, 70, 0
1, 62879, Note_off_c, 1, 66, 0
1, 62879, Note_off_c, 1, 54, 0
1, 62879, Note_off_c, 1, 58, 0
1, 62880, Note_on_c, 1, 59, 127
1, 62880, Note_on_c, 1, 67, 127
1, 62880, Note_on_c, 1, 71, 127
1, 62880, Note_on_c, 1, 55, 127
1, 62939, Note_off_c, 1, 67, 0
1, 62939, Note_off_c, 1, 71, 0
1, 62939, Note_off_c, 1, 55, 0
1, 62940, Note_on_c, 1, 49, 127
1, 62969, Note_off_c, 1, 59, 0
1, 62970, Note_on_c, 1, 70, 127
1, 62999, Note_off_c, 1, 49, 0
1, 63000, Note_off_c, 1, 70, 0
1, 63000, Note_on_c, 1, 66, 127
1, 63000, Note_on_c, 1, 50, 127
1, 63030, Note_on_c, 1, 64, 127
1, 63059, Note_off_c, 1, 66, 0
1, 63059, Note_off_c, 1, 50, 0
1, 63059, Note_off_c, 1, 64, 0
1, 63060, Note_on_c, 1, 66, 127
1, 63060, Note_on_c, 1, 71, 127
1, 63060, Note_on_c, 1, 73, 127
1, 63060, Note_on_c, 1, 67, 127
1, 63060, Note_on_c, 1, 52, 127
1, 63089, Note_off_c, 1, 66, 0
1, 63119, Note_off_c, 1, 71, 0
1, 63119, Note_off_c, 1, 73, 0
1, 63119, Note_off_c, 1, 67, 0
1, 63119, Note_off_c, 1, 52, 0
1, 63120, Note_on_c, 1, 58, 127
1, 63120, Note_on_c, 1, 70, 127
1, 63120, Note_on_c, 1, 66, 127
1, 63120, Note_on_c, 1, 54, 127
1, 63149, Note_off_c, 1, 58, 0
1, 63150, Note_on_c, 1, 59, 127
1, 63179, Note_off_c, 1, 70, 0
1, 63179, Note_off_c, 1, 66, 0
1, 63179, Note_off_c, 1, 54, 0
1, 63179, Note_off_c, 1, 59, 0
1, 63180, Note_on_c, 1, 61, 127
1, 63180, Note_on_c, 1, 56, 127
1, 63209, Note_off_c, 1, 61, 0
1, 63210, Note_on_c, 1, 64, 127
1, 63239, Note_off_c, 1, 56, 0
1, 63239, Note_off_c, 1, 64, 0
1, 63240, Note_on_c, 1, 62, 127
1, 63240, Note_on_c, 1, 78, 127
1, 63240, Note_on_c, 1, 58, 127
1, 63269, Note_off_c, 1, 62, 0
1, 63270, Note_on_c, 1, 61, 127
1, 63299, Note_off_c, 1, 78, 0
1, 63299, Note_off_c, 1, 58, 0
1, 63299, Note_off_c, 1, 61, 0
1, 63300, Note_on_c, 1, 62, 127
1, 63300, Note_on_c, 1, 83, 127
1, 63300, Note_on_c, 1, 59, 127
1, 63329, Note_off_c, 1, 62, 0
1, 63330, Note_on_c, 1, 64, 127
1, 63359, Note_off_c, 1, 59, 0
1, 63359, Note_off_c, 1, 64, 0
1, 63360, Note_on_c, 1, 66, 127
1, 63360, Note_on_c, 1, 50, 127
1, 63389, Note_off_c, 1, 83, 0
1, 63390, Note_on_c, 1, 86, 127
1, 63419, Note_off_c, 1, 66, 0
1, 63419, Note_off_c, 1, 50, 0
1, 63419, Note_off_c, 1, 86, 0
1, 63420, Note_on_c, 1, 58, 127
1, 63420, Note_on_c, 1, 85, 127
1, 63420, Note_on_c, 1, 54, 127
1, 63479, Note_off_c, 1, 58, 0
1, 63479, Note_off_c, 1, 85, 0
1, 63479, Note_off_c, 1, 54, 0
1, 63480, Note_on_c, 1, 59, 127
1, 63480, Note_on_c, 1, 83, 127
1, 63480, Note_on_c, 1, 55, 127
1, 63539, Note_off_c, 1, 83, 0
1, 63539, Note_off_c, 1, 55, 0
1, 63540, Note_on_c, 1, 54, 127
1, 63555, Note_on_c, 1, 85, 127
1, 63569, Note_off_c, 1, 85, 0
1, 63570, Note_on_c, 1, 86, 127
1, 63599, Note_off_c, 1, 54, 0
1, 63599, Note_off_c, 1, 86, 0
1, 63600, Note_on_c, 1, 52, 127
1, 63659, Note_off_c, 1, 52, 0
1, 63660, Note_on_c, 1, 76, 127
1, 63674, Note_off_c, 1, 76, 0
1, 63675, Note_on_c, 1, 78, 127
1, 63689, Note_off_c, 1, 78, 0
1, 63690, Note_on_c, 1, 79, 127
1, 63719, Note_off_c, 1, 59, 0
1, 63720, Note_on_c, 1, 58, 127
1, 63749, Note_off_c, 1, 79, 0
1, 63779, Note_off_c, 1, 58, 0
1, 63780, Note_on_c, 1, 61, 127
1, 63780, Note_on_c, 1, 76, 127
1, 63780, Note_on_c, 1, 42, 127
1, 63839, Note_off_c, 1, 76, 0
1, 63839, Note_off_c, 1, 42, 0
1, 63840, Note_on_c, 1, 74, 127
1, 63840, Note_on_c, 1, 47, 127
1, 63869, Note_off_c, 1, 61, 0
1, 63870, Note_on_c, 1, 58, 127
1, 63899, Note_off_c, 1, 74, 0
1, 63899, Note_off_c, 1, 47, 0
1, 63899, Note_off_c, 1, 58, 0
1, 63900, Note_on_c, 1, 59, 127
1, 63900, Note_on_c, 1, 73, 127
1, 63929, Note_off_c, 1, 73, 0
1, 63930, Note_on_c, 1, 61, 127
1, 63930, Note_on_c, 1, 71, 127
1, 63959, Note_off_c, 1, 59, 0
1, 63959, Note_off_c, 1, 61, 0
1, 63959, Note_off_c, 1, 71, 0
1, 63960, Note_on_c, 1, 62, 127
1, 63960, Note_on_c, 1, 83, 127
1, 63960, Note_on_c, 1, 55, 127
1, 64019, Note_off_c, 1, 62, 0
1, 64019, Note_off_c, 1, 55, 0
1, 64020, Note_on_c, 1, 60, 127
1, 64020, Note_on_c, 1, 52, 127
1, 64079, Note_off_c, 1, 83, 0
1, 64079, Note_off_c, 1, 52, 0
1, 64080, Note_on_c, 1, 81, 127
1, 64080, Note_on_c, 1, 54, 127
1, 64109, Note_off_c, 1, 81, 0
1, 64110, Note_on_c, 1, 79, 127
1, 64139, Note_off_c, 1, 54, 0
1, 64139, Note_off_c, 1, 79, 0
1, 64140, Note_on_c, 1, 50, 127
1, 64199, Note_off_c, 1, 60, 0
1, 64199, Note_off_c, 1, 50, 0
1, 64200, Note_on_c, 1, 59, 127
1, 64260, Note_on_c, 1, 49, 127
1, 64275, Note_on_c, 1, 78, 127
1, 64289, Note_off_c, 1, 59, 0
1, 64289, Note_off_c, 1, 78, 0
1, 64290, Note_on_c, 1, 57, 127
1, 64290, Note_on_c, 1, 76, 127
1, 64319, Note_off_c, 1, 49, 0
1, 64319, Note_off_c, 1, 57, 0
1, 64320, Note_off_c, 1, 76, 0
1, 64320, Note_on_c, 1, 51, 127
1, 64379, Note_off_c, 1, 51, 0
1, 64440, Note_on_c, 1, 55, 127
1, 64440, Note_on_c, 1, 76, 127
1, 64440, Note_on_c, 1, 49, 127
1, 64469, Note_off_c, 1, 55, 0
1, 64469, Note_off_c, 1, 76, 0
1, 64470, Note_on_c, 1, 59, 127
1, 64470, Note_on_c, 1, 75, 127
1, 64499, Note_off_c, 1, 49, 0
1, 64499, Note_off_c, 1, 59, 0
1, 64499, Note_off_c, 1, 75, 0
1, 64500, Note_on_c, 1, 57, 127
1, 64500, Note_on_c, 1, 76, 127
1, 64500, Note_on_c, 1, 47, 127
1, 64529, Note_off_c, 1, 57, 0
1, 64530, Note_on_c, 1, 55, 127
1, 64559, Note_off_c, 1, 47, 0
1, 64559, Note_off_c, 1, 55, 0
1, 64560, Note_on_c, 1, 46, 127
1, 64619, Note_off_c, 1, 76, 0
1, 64619, Note_off_c, 1, 46, 0
1, 64620, Note_on_c, 1, 54, 127
1, 64620, Note_on_c, 1, 74, 127
1, 64620, Note_on_c, 1, 47, 127
1, 64634, Note_off_c, 1, 74, 0
1, 64635, Note_on_c, 1, 72, 127
1, 64649, Note_off_c, 1, 72, 0
1, 64650, Note_on_c, 1, 71, 127
1, 64679, Note_off_c, 1, 54, 0
1, 64679, Note_off_c, 1, 47, 0
1, 64679, Note_off_c, 1, 71, 0
1, 64680, Note_on_c, 1, 64, 127
1, 64680, Note_on_c, 1, 72, 127
1, 64680, Note_on_c, 1, 40, 127
1, 64709, Note_off_c, 1, 64, 0
1, 64710, Note_on_c, 1, 66, 127
1, 64724, Note_off_c, 1, 66, 0
1, 64725, Note_on_c, 1, 67, 127
1, 64739, Note_off_c, 1, 40, 0
1, 64739, Note_off_c, 1, 67, 0
1, 64740, Note_on_c, 1, 38, 127
1, 64769, Note_off_c, 1, 72, 0
1, 64770, Note_on_c, 1, 79, 127
1, 64799, Note_off_c, 1, 79, 0
1, 64800, Note_on_c, 1, 58, 127
1, 64800, Note_on_c, 1, 78, 127
1, 64829, Note_off_c, 1, 78, 0
1, 64830, Note_on_c, 1, 76, 127
1, 64859, Note_off_c, 1, 38, 0
1, 64859, Note_off_c, 1, 58, 0
1, 64859, Note_off_c, 1, 76, 0
1, 64860, Note_on_c, 1, 59, 127
1, 64860, Note_on_c, 1, 78, 127
1, 64860, Note_on_c, 1, 50, 127
1, 64889, Note_off_c, 1, 78, 0
1, 64890, Note_on_c, 1, 79, 127
1, 64919, Note_off_c, 1, 59, 0
1, 64919, Note_off_c, 1, 50, 0
1, 64919, Note_off_c, 1, 79, 0
1, 64920, Note_on_c, 1, 64, 127
1, 64920, Note_on_c, 1, 70, 127
1, 64920, Note_on_c, 1, 49, 127
1, 64949, Note_off_c, 1, 64, 0
1, 64949, Note_off_c, 1, 70, 0
1, 64950, Note_on_c, 1, 62, 127
1, 64950, Note_on_c, 1, 71, 127
1, 64979, Note_off_c, 1, 49, 0
1, 64979, Note_off_c, 1, 62, 0
1, 64979, Note_off_c, 1, 71, 0
1, 64980, Note_on_c, 1, 64, 127
1, 64980, Note_on_c, 1, 73, 127
1, 64980, Note_on_c, 1, 47, 127
1, 65009, Note_off_c, 1, 64, 0
1, 65009, Note_off_c, 1, 73, 0
1, 65010, Note_on_c, 1, 67, 127
1, 65010, Note_on_c, 1, 76, 127
1, 65039, Note_off_c, 1, 47, 0
1, 65039, Note_off_c, 1, 67, 0
1, 65039, Note_off_c, 1, 76, 0
1, 65040, Note_on_c, 1, 66, 127
1, 65040, Note_on_c, 1, 74, 127
1, 65040, Note_on_c, 1, 46, 127
1, 65069, Note_off_c, 1, 66, 0
1, 65069, Note_off_c, 1, 74, 0
1, 65070, Note_on_c, 1, 64, 127
1, 65070, Note_on_c, 1, 73, 127
1, 65099, Note_off_c, 1, 46, 0
1, 65099, Note_off_c, 1, 64, 0
1, 65099, Note_off_c, 1, 73, 0
1, 65100, Note_on_c, 1, 62, 127
1, 65100, Note_on_c, 1, 71, 127
1, 65100, Note_on_c, 1, 47, 127
1, 65159, Note_off_c, 1, 47, 0
1, 65160, Note_on_c, 1, 43, 127
1, 65189, Note_off_c, 1, 62, 0
1, 65189, Note_off_c, 1, 71, 0
1, 65190, Note_on_c, 1, 61, 127
1, 65190, Note_on_c, 1, 70, 127
1, 65219, Note_off_c, 1, 43, 0
1, 65219, Note_off_c, 1, 61, 0
1, 65219, Note_off_c, 1, 70, 0
1, 65220, Note_on_c, 1, 62, 127
1, 65220, Note_on_c, 1, 71, 127
1, 65220, Note_on_c, 1, 41, 127
1, 65279, Note_off_c, 1, 62, 0
1, 65279, Note_off_c, 1, 71, 0
1, 65279, Note_off_c, 1, 41, 0
1, 65280, Note_on_c, 1, 61, 127
1, 65280, Note_on_c, 1, 70, 127
1, 65280, Note_on_c, 1, 42, 127
1, 65309, Note_off_c, 1, 70, 0
1, 65310, Note_on_c, 1, 79, 127
1, 65339, Note_off_c, 1, 42, 0
1, 65339, Note_off_c, 1, 79, 0
1, 65340, Note_on_c, 1, 78, 127
1, 65340, Note_on_c, 1, 54, 127
1, 65369, Note_off_c, 1, 78, 0
1, 65370, Note_on_c, 1, 76, 127
1, 65399, Note_off_c, 1, 61, 0
1, 65399, Note_off_c, 1, 54, 0
1, 65399, Note_off_c, 1, 76, 0
1, 65400, Note_on_c, 1, 54, 127
1, 65400, Note_on_c, 1, 74, 127
1, 65400, Note_on_c, 1, 52, 127
1, 65429, Note_off_c, 1, 74, 0
1, 65430, Note_on_c, 1, 73, 127
1, 65459, Note_off_c, 1, 54, 0
1, 65459, Note_off_c, 1, 52, 0
1, 65459, Note_off_c, 1, 73, 0
1, 65460, Note_on_c, 1, 59, 127
1, 65460, Note_on_c, 1, 71, 127
1, 65460, Note_on_c, 1, 50, 127
1, 65474, Note_off_c, 1, 71, 0
1, 65475, Note_on_c, 1, 73, 127
1, 65489, Note_off_c, 1, 73, 0
1, 65519, Note_off_c, 1, 50, 0
1, 65550, Note_on_c, 1, 62, 127
1, 65579, Note_off_c, 1, 59, 0
1, 65579, Note_off_c, 1, 62, 0
1, 65580, Note_on_c, 1, 61, 127
1, 65580, Note_on_c, 1, 73, 127
1, 65580, Note_on_c, 1, 57, 127
1, 65589, Note_off_c, 1, 73, 0
1, 65590, Note_on_c, 1, 71, 127
1, 65599, Note_off_c, 1, 71, 0
1, 65639, Note_off_c, 1, 61, 0
1, 65639, Note_off_c, 1, 57, 0
1, 65640, Note_on_c, 1, 59, 127
1, 65640, Note_on_c, 1, 73, 127
1, 65640, Note_on_c, 1, 55, 127
1, 65649, Note_off_c, 1, 73, 0
1, 65650, Note_on_c, 1, 71, 127
1, 65659, Note_off_c, 1, 71, 0
1, 65699, Note_off_c, 1, 59, 0
1, 65699, Note_off_c, 1, 55, 0
1, 65700, Note_on_c, 1, 59, 127
1, 65700, Note_on_c, 1, 73, 127
1, 65700, Note_on_c, 1, 54, 127
1, 65709, Note_off_c, 1, 73, 0
1, 65710, Note_on_c, 1, 71, 127
1, 65714, Note_off_c, 1, 59, 0
1, 65715, Note_on_c, 1, 61, 127
1, 65719, Note_off_c, 1, 71, 0
1, 65729, Note_off_c, 1, 61, 0
1, 65730, Note_on_c, 1, 62, 127
1, 65759, Note_off_c, 1, 54, 0
1, 65759, Note_off_c, 1, 62, 0
1, 65760, Note_on_c, 1, 61, 127
1, 65760, Note_on_c, 1, 73, 127
1, 65760, Note_on_c, 1, 55, 127
1, 65769, Note_off_c, 1, 73, 0
1, 65770, Note_on_c, 1, 71, 127
1, 65779, Note_off_c, 1, 71, 0
1, 65819, Note_off_c, 1, 61, 0
1, 65819, Note_off_c, 1, 55, 0
1, 65820, Note_on_c, 1, 61, 127
1, 65820, Note_on_c, 1, 73, 127
1, 65820, Note_on_c, 1, 52, 127
1, 65829, Note_off_c, 1, 73, 0
1, 65830, Note_on_c, 1, 71, 127
1, 65839, Note_off_c, 1, 71, 0
1, 65879, Note_off_c, 1, 52, 0
1, 65880, Note_on_c, 1, 55, 127
1, 65909, Note_off_c, 1, 61, 0
1, 65910, Note_on_c, 1, 64, 127
1, 65939, Note_off_c, 1, 55, 0
1, 65939, Note_off_c, 1, 64, 0
1, 65940, Note_on_c, 1, 62, 127
1, 65940, Note_on_c, 1, 73, 127
1, 65940, Note_on_c, 1, 54, 127
1, 65949, Note_off_c, 1, 73, 0
1, 65950, Note_on_c, 1, 71, 127
1, 65959, Note_off_c, 1, 71, 0
1, 65999, Note_off_c, 1, 62, 0
1, 65999, Note_off_c, 1, 54, 0
1, 66000, Note_on_c, 1, 61, 127
1, 66000, Note_on_c, 1, 73, 127
1, 66000, Note_on_c, 1, 52, 127
1, 66009, Note_off_c, 1, 73, 0
1, 66010, Note_on_c, 1, 71, 127
1, 66019, Note_off_c, 1, 71, 0
1, 66059, Note_off_c, 1, 61, 0
1, 66059, Note_off_c, 1, 52, 0
1, 66060, Note_on_c, 1, 61, 127
1, 66060, Note_on_c, 1, 73, 127
1, 66060, Note_on_c, 1, 54, 127
1, 66069, Note_off_c, 1, 73, 0
1, 66070, Note_on_c, 1, 71, 127
1, 66074, Note_off_c, 1, 61, 0
1, 66075, Note_on_c, 1, 62, 127
1, 66079, Note_off_c, 1, 71, 0
1, 66089, Note_off_c, 1, 62, 0
1, 66090, Note_on_c, 1, 64, 127
1, 66119, Note_off_c, 1, 54, 0
1, 66119, Note_off_c, 1, 64, 0
1, 66120, Note_on_c, 1, 62, 127
1, 66120, Note_on_c, 1, 73, 127
1, 66120, Note_on_c, 1, 56, 127
1, 66129, Note_off_c, 1, 73, 0
1, 66130, Note_on_c, 1, 71, 127
1, 66139, Note_off_c, 1, 71, 0
1, 66179, Note_off_c, 1, 62, 0
1, 66179, Note_off_c, 1, 56, 0
1, 66180, Note_on_c, 1, 63, 127
1, 66180, Note_on_c, 1, 73, 127
1, 66180, Note_on_c, 1, 57, 127
1, 66189, Note_off_c, 1, 73, 0
1, 66190, Note_on_c, 1, 71, 127
1, 66199, Note_off_c, 1, 71, 0
1, 66239, Note_off_c, 1, 63, 0
1, 66239, Note_off_c, 1, 57, 0
1, 66240, Note_on_c, 1, 63, 127
1, 66240, Note_on_c, 1, 73, 127
1, 66240, Note_on_c, 1, 54, 127
1, 66249, Note_off_c, 1, 73, 0
1, 66250, Note_on_c, 1, 71, 127
1, 66254, Note_off_c, 1, 63, 0
1, 66255, Note_on_c, 1, 64, 127
1, 66259, Note_off_c, 1, 71, 0
1, 66269, Note_off_c, 1, 64, 0
1, 66270, Note_on_c, 1, 66, 127
1, 66299, Note_off_c, 1, 54, 0
1, 66299, Note_off_c, 1, 66, 0
1, 66300, Note_on_c, 1, 64, 127
1, 66300, Note_on_c, 1, 73, 127
1, 66300, Note_on_c, 1, 55, 127
1, 66309, Note_off_c, 1, 73, 0
1, 66310, Note_on_c, 1, 71, 127
1, 66319, Note_off_c, 1, 71, 0
1, 66359, Note_off_c, 1, 64, 0
1, 66359, Note_off_c, 1, 55, 0
1, 66360, Note_on_c, 1, 65, 127
1, 66360, Note_on_c, 1, 56, 127
1, 66390, Note_on_c, 1, 70, 127
1, 66419, Note_off_c, 1, 65, 0
1, 66419, Note_off_c, 1, 56, 0
1, 66419, Note_off_c, 1, 70, 0
1, 66420, Note_on_c, 1, 65, 127
1, 66420, Note_on_c, 1, 73, 127
1, 66420, Note_on_c, 1, 59, 127
1, 66434, Note_off_c, 1, 65, 0
1, 66435, Note_on_c, 1, 66, 127
1, 66449, Note_off_c, 1, 73, 0
1, 66449, Note_off_c, 1, 66, 0
1, 66450, Note_on_c, 1, 68, 127
1, 66450, Note_on_c, 1, 71, 127
1, 66479, Note_off_c, 1, 59, 0
1, 66479, Note_off_c, 1, 68, 0
1, 66479, Note_off_c, 1, 71, 0
1, 66480, Note_on_c, 1, 66, 127
1, 66480, Note_on_c, 1, 73, 127
1, 66480, Note_on_c, 1, 58, 127
1, 66539, Note_off_c, 1, 66, 0
1, 66539, Note_off_c, 1, 58, 0
1, 66540, Note_on_c, 1, 62, 127
1, 66540, Note_on_c, 1, 59, 127
1, 66569, Note_off_c, 1, 73, 0
1, 66570, Note_on_c, 1, 74, 127
1, 66599, Note_off_c, 1, 59, 0
1, 66599, Note_off_c, 1, 74, 0
1, 66600, Note_on_c, 1, 50, 127
1, 66629, Note_off_c, 1, 62, 0
1, 66630, Note_on_c, 1, 61, 127
1, 66659, Note_off_c, 1, 50, 0
1, 66659, Note_off_c, 1, 61, 0
1, 66660, Note_on_c, 1, 59, 127
1, 66660, Note_on_c, 1, 70, 127
1, 66660, Note_on_c, 1, 54, 127
1, 66719, Note_off_c, 1, 59, 0
1, 66719, Note_off_c, 1, 70, 0
1, 66719, Note_off_c, 1, 54, 0
1, 66720, Note_on_c, 1, 59, 127
1, 66720, Note_on_c, 1, 71, 127
1, 66720, Note_on_c, 1, 47, 127
1, 66749, Note_off_c, 1, 71, 0
1, 66750, Note_on_c, 1, 69, 127
1, 66764, Note_off_c, 1, 69, 0
1, 66765, Note_on_c, 1, 67, 127
1, 66779, Note_off_c, 1, 47, 0
1, 66779, Note_off_c, 1, 67, 0
1, 66780, Note_on_c, 1, 66, 127
1, 66780, Note_on_c, 1, 50, 127
1, 66809, Note_off_c, 1, 66, 0
1, 66810, Note_on_c, 1, 64, 127
1, 66839, Note_off_c, 1, 50, 0
1, 66839, Note_off_c, 1, 64, 0
1, 66840, Note_on_c, 1, 62, 127
1, 66840, Note_on_c, 1, 54, 127
1, 66869, Note_off_c, 1, 62, 0
1, 66870, Note_on_c, 1, 61, 127
1, 66899, Note_off_c, 1, 54, 0
1, 66899, Note_off_c, 1, 61, 0
1, 66900, Note_on_c, 1, 55, 127
1, 66959, Note_off_c, 1, 55, 0
1, 66990, Note_on_c, 1, 74, 127
1, 67019, Note_off_c, 1, 74, 0
1, 67020, Note_on_c, 1, 73, 127
1, 67020, Note_on_c, 1, 57, 127
1, 67079, Note_off_c, 1, 73, 0
1, 67079, Note_off_c, 1, 57, 0
1, 67260, Note_on_c, 1, 52, 127
1, 67319, Note_off_c, 1, 52, 0
1, 67350, Note_on_c, 1, 76, 127
1, 67379, Note_off_c, 1, 76, 0
1, 67560, Note_on_c, 1, 56, 127
1, 67619, Note_off_c, 1, 56, 0
1, 67620, Note_on_c, 1, 75, 127
1, 67679, Note_off_c, 1, 75, 0
1, 67710, Note_on_c, 1, 78, 127
1, 67739, Note_off_c, 1, 78, 0
1, 67800, Note_on_c, 1, 77, 127
1, 67825, Note_on_c, 1, 58, 127
1, 67830, Note_off_c, 1, 59, 0
1, 67854, Note_off_c, 1, 58, 0
1, 67859, Note_off_c, 1, 77, 0
1, 67890, Note_on_c, 1, 80, 127
1, 67919, Note_off_c, 1, 80, 0
1, 69060, Note_on_c, 1, 57, 127
1, 69060, Note_on_c, 1, 50, 127
1, 69120, Note_off_c, 1, 57, 0
1, 69120, Note_off_c, 1, 50, 0
1, 69120, Note_on_c, 1, 62, 127
1, 69120, Note_on_c, 1, 69, 127
1, 69120, Note_on_c, 1, 54, 127
1, 69150, Note_off_c, 1, 69, 0
1, 69150, Note_on_c, 1, 71, 127
1, 69180, Note_off_c, 1, 62, 0
1, 69180, Note_off_c, 1, 54, 0
1, 69180, Note_off_c, 1, 71, 0
1, 69180, Note_on_c, 1, 64, 127
1, 69240, Note_off_c, 1, 64, 0
1, 69240, Note_on_c, 1, 66, 127
1, 69300, Note_on_c, 1, 78, 127
1, 69330, Note_off_c, 1, 78, 0
1, 69330, Note_on_c, 1, 76, 127
1, 69330, Note_on_c, 1, 61, 127
1, 69360, Note_off_c, 1, 66, 0
1, 69360, Note_off_c, 1, 76, 0
1, 69360, Note_off_c, 1, 61, 0
1, 69360, Note_on_c, 1, 74, 127
1, 69360, Note_on_c, 1, 59, 127
1, 69390, Note_off_c, 1, 74, 0
1, 69390, Note_off_c, 1, 59, 0
1, 69600, Note_on_c, 1, 67, 127
1, 69630, Note_on_c, 1, 55, 127
1, 69660, Note_off_c, 1, 55, 0
1, 69660, Note_on_c, 1, 79, 127
1, 69690, Note_off_c, 1, 79, 0
1, 69720, Note_off_c, 1, 67, 0
1, 69840, Note_on_c, 1, 81, 127
1, 69870, Note_off_c, 1, 81, 0
1, 69870, Note_on_c, 1, 83, 127
1, 69900, Note_off_c, 1, 83, 0
1, 70320, Note_on_c, 1, 73, 127
1, 70350, Note_off_c, 1, 73, 0
1, 70710, Note_on_c, 1, 52, 127
1, 70740, Note_off_c, 1, 52, 0
1, 70770, Note_on_c, 1, 49, 127
1, 70800, Note_off_c, 1, 49, 0
1, 70800, Note_on_c, 1, 47, 127
1, 70830, Note_off_c, 1, 47, 0
1, 71040, Note_on_c, 1, 45, 127
1, 71070, Note_off_c, 1, 45, 0
1, 71070, Note_on_c, 1, 43, 127
1, 71100, Note_off_c, 1, 43, 0
1, 71280, Note_on_c, 1, 42, 127
1, 71340, Note_off_c, 1, 42, 0
1, 72780, Note_on_c, 1, 33, 127
1, 72840, Note_off_c, 1, 33, 0
1, 72840, Note_on_c, 1, 38, 127
1, 72900, Note_off_c, 1, 38, 0
1, 73140, Note_on_c, 1, 56, 127
1, 73170, Note_off_c, 1, 56, 0
1, 73440, Note_on_c, 1, 56, 127
1, 73440, Note_on_c, 1, 76, 127
1, 73440, Note_on_c, 1, 52, 127
1, 73469, Note_off_c, 1, 76, 0
1, 73470, Note_on_c, 1, 74, 127
1, 73499, Note_off_c, 1, 52, 0
1, 73499, Note_off_c, 1, 74, 0
1, 73500, Note_on_c, 1, 73, 127
1, 73500, Note_on_c, 1, 40, 127
1, 73529, Note_off_c, 1, 56, 0
1, 73529, Note_off_c, 1, 73, 0
1, 73530, Note_on_c, 1, 57, 127
1, 73530, Note_on_c, 1, 71, 127
1, 73559, Note_off_c, 1, 40, 0
1, 73559, Note_off_c, 1, 57, 0
1, 73559, Note_off_c, 1, 71, 0
1, 73560, Note_on_c, 1, 57, 127
1, 73560, Note_on_c, 1, 73, 127
1, 73560, Note_on_c, 1, 45, 127
1, 73589, Note_off_c, 1, 73, 0
1, 73589, Note_off_c, 1, 45, 0
1, 73590, Note_on_c, 1, 74, 127
1, 73590, Note_on_c, 1, 47, 127
1, 73619, Note_off_c, 1, 74, 0
1, 73619, Note_off_c, 1, 47, 0
1, 73620, Note_off_c, 1, 57, 0
1, 73620, Note_on_c, 1, 69, 127
1, 73620, Note_on_c, 1, 76, 127
1, 73620, Note_on_c, 1, 49, 127
1, 73649, Note_off_c, 1, 76, 0
1, 73649, Note_off_c, 1, 49, 0
1, 73710, Note_on_c, 1, 78, 127
1, 73710, Note_on_c, 1, 50, 127
1, 73739, Note_off_c, 1, 78, 0
1, 73739, Note_off_c, 1, 50, 0
1, 73740, Note_on_c, 1, 71, 127
1, 73740, Note_on_c, 1, 52, 127
1, 73769, Note_off_c, 1, 71, 0
1, 73799, Note_off_c, 1, 69, 0
1, 73799, Note_off_c, 1, 52, 0
1, 73800, Note_on_c, 1, 68, 127
1, 73800, Note_on_c, 1, 74, 127
1, 73800, Note_on_c, 1, 47, 127
1, 73829, Note_off_c, 1, 74, 0
1, 73829, Note_off_c, 1, 47, 0
1, 73830, Note_on_c, 1, 73, 127
1, 73830, Note_on_c, 1, 45, 127
1, 73859, Note_off_c, 1, 73, 0
1, 73859, Note_off_c, 1, 45, 0
1, 73890, Note_on_c, 1, 76, 127
1, 73890, Note_on_c, 1, 49, 127
1, 73919, Note_off_c, 1, 76, 0
1, 73919, Note_off_c, 1, 49, 0
1, 73920, Note_on_c, 1, 69, 127
1, 73920, Note_on_c, 1, 50, 127
1, 73949, Note_off_c, 1, 69, 0
1, 73950, Note_on_c, 1, 71, 127
1, 73979, Note_off_c, 1, 68, 0
1, 73979, Note_off_c, 1, 50, 0
1, 73979, Note_off_c, 1, 71, 0
1, 73980, Note_on_c, 1, 66, 127
1, 73980, Note_on_c, 1, 73, 127
1, 73980, Note_on_c, 1, 45, 127
1, 74009, Note_off_c, 1, 73, 0
1, 74009, Note_off_c, 1, 45, 0
1, 74010, Note_on_c, 1, 71, 127
1, 74010, Note_on_c, 1, 44, 127
1, 74039, Note_off_c, 1, 71, 0
1, 74039, Note_off_c, 1, 44, 0
1, 74070, Note_on_c, 1, 74, 127
1, 74070, Note_on_c, 1, 47, 127
1, 74099, Note_off_c, 1, 74, 0
1, 74099, Note_off_c, 1, 47, 0
1, 74100, Note_on_c, 1, 68, 127
1, 74100, Note_on_c, 1, 49, 127
1, 74129, Note_off_c, 1, 68, 0
1, 74130, Note_on_c, 1, 69, 127
1, 74159, Note_off_c, 1, 66, 0
1, 74159, Note_off_c, 1, 49, 0
1, 74159, Note_off_c, 1, 69, 0
1, 74160, Note_on_c, 1, 64, 127
1, 74160, Note_on_c, 1, 71, 127
1, 74160, Note_on_c, 1, 44, 127
1, 74189, Note_off_c, 1, 71, 0
1, 74189, Note_off_c, 1, 44, 0
1, 74190, Note_on_c, 1, 69, 127
1, 74190, Note_on_c, 1, 42, 127
1, 74219, Note_off_c, 1, 69, 0
1, 74219, Note_off_c, 1, 42, 0
1, 74250, Note_on_c, 1, 73, 127
1, 74250, Note_on_c, 1, 45, 127
1, 74279, Note_off_c, 1, 73, 0
1, 74279, Note_off_c, 1, 45, 0
1, 74280, Note_on_c, 1, 66, 127
1, 74280, Note_on_c, 1, 47, 127
1, 74309, Note_off_c, 1, 66, 0
1, 74310, Note_on_c, 1, 68, 127
1, 74339, Note_off_c, 1, 64, 0
1, 74339, Note_off_c, 1, 47, 0
1, 74339, Note_off_c, 1, 68, 0
1, 74340, Note_on_c, 1, 62, 127
1, 74340, Note_on_c, 1, 69, 127
1, 74340, Note_on_c, 1, 42, 127
1, 74369, Note_off_c, 1, 69, 0
1, 74370, Note_on_c, 1, 68, 127
1, 74399, Note_off_c, 1, 42, 0
1, 74399, Note_off_c, 1, 68, 0
1, 74400, Note_on_c, 1, 47, 127
1, 74430, Note_on_c, 1, 71, 127
1, 74459, Note_off_c, 1, 62, 0
1, 74459, Note_off_c, 1, 47, 0
1, 74459, Note_off_c, 1, 71, 0
1, 74460, Note_on_c, 1, 68, 127
1, 74460, Note_on_c, 1, 52, 127
1, 74490, Note_on_c, 1, 59, 127
1, 74519, Note_off_c, 1, 68, 0
1, 74519, Note_off_c, 1, 52, 0
1, 74519, Note_off_c, 1, 59, 0
1, 74520, Note_on_c, 1, 61, 127
1, 74520, Note_on_c, 1, 66, 127
1, 74520, Note_on_c, 1, 50, 127
1, 74549, Note_off_c, 1, 61, 0
1, 74549, Note_off_c, 1, 66, 0
1, 74550, Note_on_c, 1, 62, 127
1, 74550, Note_on_c, 1, 64, 127
1, 74579, Note_off_c, 1, 50, 0
1, 74579, Note_off_c, 1, 62, 0
1, 74579, Note_off_c, 1, 64, 0
1, 74580, Note_on_c, 1, 64, 127
1, 74580, Note_on_c, 1, 69, 127
1, 74580, Note_on_c, 1, 49, 127
1, 74609, Note_off_c, 1, 64, 0
1, 74610, Note_on_c, 1, 62, 127
1, 74639, Note_off_c, 1, 49, 0
1, 74639, Note_off_c, 1, 62, 0
1, 74640, Note_on_c, 1, 50, 127
1, 74669, Note_off_c, 1, 69, 0
1, 74670, Note_on_c, 1, 66, 127
1, 74670, Note_on_c, 1, 71, 127
1, 74699, Note_off_c, 1, 50, 0
1, 74699, Note_off_c, 1, 66, 0
1, 74699, Note_off_c, 1, 71, 0
1, 74700, Note_on_c, 1, 59, 127
1, 74700, Note_on_c, 1, 68, 127
1, 74700, Note_on_c, 1, 52, 127
1, 74720, Note_off_c, 1, 68, 0
1, 74720, Note_on_c, 1, 69, 127
1, 74740, Note_off_c, 1, 69, 0
1, 74759, Note_off_c, 1, 52, 0
1, 74760, Note_on_c, 1, 40, 127
1, 74789, Note_off_c, 1, 59, 0
1, 74790, Note_on_c, 1, 57, 127
1, 74790, Note_on_c, 1, 66, 127
1, 74804, Note_off_c, 1, 66, 0
1, 74819, Note_off_c, 1, 40, 0
1, 74819, Note_off_c, 1, 57, 0
1, 74820, Note_on_c, 1, 57, 127
1, 74820, Note_on_c, 1, 69, 127
1, 74820, Note_on_c, 1, 45, 127
1, 74849, Note_off_c, 1, 69, 0
1, 74850, Note_on_c, 1, 76, 127
1, 74879, Note_off_c, 1, 57, 0
1, 74879, Note_off_c, 1, 45, 0
1, 74879, Note_off_c, 1, 76, 0
1, 74880, Note_on_c, 1, 52, 127
1, 74880, Note_on_c, 1, 81, 127
1, 74880, Note_on_c, 1, 49, 127
1, 74909, Note_off_c, 1, 52, 0
1, 74910, Note_on_c, 1, 54, 127
1, 74939, Note_off_c, 1, 81, 0
1, 74939, Note_off_c, 1, 49, 0
1, 74939, Note_off_c, 1, 54, 0
1, 74940, Note_on_c, 1, 52, 127
1, 74940, Note_on_c, 1, 83, 127
1, 74999, Note_off_c, 1, 52, 0
1, 74999, Note_off_c, 1, 83, 0
1, 75000, Note_on_c, 1, 52, 127
1, 75000, Note_on_c, 1, 85, 127
1, 75000, Note_on_c, 1, 57, 127
1, 75029, Note_off_c, 1, 57, 0
1, 75030, Note_on_c, 1, 59, 127
1, 75059, Note_off_c, 1, 52, 0
1, 75059, Note_off_c, 1, 59, 0
1, 75060, Note_on_c, 1, 61, 127
1, 75089, Note_off_c, 1, 61, 0
1, 75090, Note_on_c, 1, 56, 127
1, 75119, Note_off_c, 1, 85, 0
1, 75119, Note_off_c, 1, 56, 0
1, 75120, Note_on_c, 1, 57, 127
1, 75120, Note_on_c, 1, 54, 127
1, 75149, Note_off_c, 1, 57, 0
1, 75149, Note_off_c, 1, 54, 0
1, 75150, Note_on_c, 1, 61, 127
1, 75150, Note_on_c, 1, 57, 127
1, 75179, Note_off_c, 1, 61, 0
1, 75179, Note_off_c, 1, 57, 0
1, 75180, Note_on_c, 1, 59, 127
1, 75180, Note_on_c, 1, 76, 127
1, 75180, Note_on_c, 1, 56, 127
1, 75209, Note_off_c, 1, 56, 0
1, 75210, Note_on_c, 1, 54, 127
1, 75239, Note_off_c, 1, 59, 0
1, 75239, Note_off_c, 1, 76, 0
1, 75239, Note_off_c, 1, 54, 0
1, 75240, Note_on_c, 1, 52, 127
1, 75240, Note_on_c, 1, 83, 127
1, 75240, Note_on_c, 1, 56, 127
1, 75269, Note_off_c, 1, 52, 0
1, 75269, Note_off_c, 1, 56, 0
1, 75270, Note_on_c, 1, 54, 127
1, 75270, Note_on_c, 1, 57, 127
1, 75299, Note_off_c, 1, 83, 0
1, 75299, Note_off_c, 1, 54, 0
1, 75299, Note_off_c, 1, 57, 0
1, 75300, Note_on_c, 1, 52, 127
1, 75300, Note_on_c, 1, 85, 127
1, 75300, Note_on_c, 1, 56, 127
1, 75329, Note_off_c, 1, 56, 0
1, 75330, Note_on_c, 1, 54, 127
1, 75359, Note_off_c, 1, 52, 0
1, 75359, Note_off_c, 1, 85, 0
1, 75359, Note_off_c, 1, 54, 0
1, 75360, Note_on_c, 1, 52, 127
1, 75360, Note_on_c, 1, 86, 127
1, 75390, Note_on_c, 1, 50, 127
1, 75419, Note_off_c, 1, 52, 0
1, 75419, Note_off_c, 1, 50, 0
1, 75420, Note_on_c, 1, 62, 127
1, 75449, Note_off_c, 1, 62, 0
1, 75450, Note_on_c, 1, 61, 127
1, 75450, Note_on_c, 1, 54, 127
1, 75479, Note_off_c, 1, 86, 0
1, 75479, Note_off_c, 1, 61, 0
1, 75479, Note_off_c, 1, 54, 0
1, 75480, Note_on_c, 1, 59, 127
1, 75480, Note_on_c, 1, 56, 127
1, 75509, Note_off_c, 1, 59, 0
1, 75509, Note_off_c, 1, 56, 0
1, 75510, Note_on_c, 1, 62, 127
1, 75510, Note_on_c, 1, 52, 127
1, 75539, Note_off_c, 1, 62, 0
1, 75539, Note_off_c, 1, 52, 0
1, 75540, Note_on_c, 1, 61, 127
1, 75540, Note_on_c, 1, 81, 127
1, 75540, Note_on_c, 1, 57, 127
1, 75569, Note_off_c, 1, 61, 0
1, 75569, Note_off_c, 1, 81, 0
1, 75570, Note_on_c, 1, 62, 127
1, 75570, Note_on_c, 1, 83, 127
1, 75599, Note_off_c, 1, 57, 0
1, 75599, Note_off_c, 1, 62, 0
1, 75599, Note_off_c, 1, 83, 0
1, 75600, Note_on_c, 1, 64, 127
1, 75600, Note_on_c, 1, 85, 127
1, 75600, Note_on_c, 1, 49, 127
1, 75629, Note_off_c, 1, 64, 0
1, 75629, Note_off_c, 1, 85, 0
1, 75630, Note_on_c, 1, 66, 127
1, 75630, Note_on_c, 1, 86, 127
1, 75659, Note_off_c, 1, 49, 0
1, 75659, Note_off_c, 1, 66, 0
1, 75659, Note_off_c, 1, 86, 0
1, 75660, Note_on_c, 1, 62, 127
1, 75660, Note_on_c, 1, 83, 127
1, 75660, Note_on_c, 1, 52, 127
1, 75689, Note_off_c, 1, 62, 0
1, 75689, Note_off_c, 1, 83, 0
1, 75690, Note_on_c, 1, 64, 127
1, 75690, Note_on_c, 1, 85, 127
1, 75719, Note_off_c, 1, 52, 0
1, 75719, Note_off_c, 1, 64, 0
1, 75719, Note_off_c, 1, 85, 0
1, 75720, Note_on_c, 1, 61, 127
1, 75720, Note_on_c, 1, 81, 127
1, 75720, Note_on_c, 1, 57, 127
1, 75749, Note_off_c, 1, 61, 0
1, 75749, Note_off_c, 1, 81, 0
1, 75750, Note_on_c, 1, 62, 127
1, 75750, Note_on_c, 1, 83, 127
1, 75779, Note_off_c, 1, 57, 0
1, 75779, Note_off_c, 1, 62, 0
1, 75779, Note_off_c, 1, 83, 0
1, 75780, Note_on_c, 1, 64, 127
1, 75780, Note_on_c, 1, 85, 127
1, 75780, Note_on_c, 1, 49, 127
1, 75809, Note_off_c, 1, 64, 0
1, 75809, Note_off_c, 1, 85, 0
1, 75810, Note_on_c, 1, 66, 127
1, 75810, Note_on_c, 1, 86, 127
1, 75839, Note_off_c, 1, 49, 0
1, 75839, Note_off_c, 1, 66, 0
1, 75839, Note_off_c, 1, 86, 0
1, 75840, Note_on_c, 1, 62, 127
1, 75840, Note_on_c, 1, 83, 127
1, 75840, Note_on_c, 1, 52, 127
1, 75869, Note_off_c, 1, 62, 0
1, 75869, Note_off_c, 1, 83, 0
1, 75870, Note_on_c, 1, 64, 127
1, 75870, Note_on_c, 1, 85, 127
1, 75899, Note_off_c, 1, 52, 0
1, 75899, Note_off_c, 1, 64, 0
1, 75899, Note_off_c, 1, 85, 0
1, 75900, Note_on_c, 1, 61, 127
1, 75900, Note_on_c, 1, 82, 127
1, 75900, Note_on_c, 1, 55, 127
1, 75929, Note_off_c, 1, 61, 0
1, 75929, Note_off_c, 1, 82, 0
1, 75930, Note_on_c, 1, 62, 127
1, 75930, Note_on_c, 1, 83, 127
1, 75959, Note_off_c, 1, 55, 0
1, 75959, Note_off_c, 1, 62, 0
1, 75959, Note_off_c, 1, 83, 0
1, 75960, Note_on_c, 1, 64, 127
1, 75960, Note_on_c, 1, 85, 127
1, 75960, Note_on_c, 1, 52, 127
1, 75989, Note_off_c, 1, 64, 0
1, 75989, Note_off_c, 1, 85, 0
1, 75990, Note_on_c, 1, 61, 127
1, 75990, Note_on_c, 1, 82, 127
1, 76019, Note_off_c, 1, 52, 0
1, 76019, Note_off_c, 1, 61, 0
1, 76019, Note_off_c, 1, 82, 0
1, 76020, Note_on_c, 1, 62, 127
1, 76020, Note_on_c, 1, 83, 127
1, 76020, Note_on_c, 1, 54, 127
1, 76049, Note_off_c, 1, 62, 0
1, 76049, Note_off_c, 1, 83, 0
1, 76050, Note_on_c, 1, 64, 127
1, 76050, Note_on_c, 1, 85, 127
1, 76079, Note_off_c, 1, 54, 0
1, 76079, Note_off_c, 1, 64, 0
1, 76079, Note_off_c, 1, 85, 0
1, 76080, Note_on_c, 1, 62, 127
1, 76080, Note_on_c, 1, 83, 127
1, 76080, Note_on_c, 1, 47, 127
1, 76109, Note_off_c, 1, 83, 0
1, 76110, Note_on_c, 1, 79, 127
1, 76139, Note_off_c, 1, 79, 0
1, 76140, Note_on_c, 1, 78, 127
1, 76169, Note_off_c, 1, 78, 0
1, 76170, Note_on_c, 1, 76, 127
1, 76199, Note_off_c, 1, 62, 0
1, 76199, Note_off_c, 1, 47, 0
1, 76199, Note_off_c, 1, 76, 0
1, 76200, Note_on_c, 1, 74, 127
1, 76229, Note_off_c, 1, 74, 0
1, 76230, Note_on_c, 1, 73, 127
1, 76259, Note_off_c, 1, 73, 0
1, 76260, Note_on_c, 1, 54, 127
1, 76260, Note_on_c, 1, 71, 127
1, 76260, Note_on_c, 1, 47, 127
1, 76319, Note_off_c, 1, 54, 0
1, 76319, Note_off_c, 1, 71, 0
1, 76319, Note_off_c, 1, 47, 0
1, 76320, Note_on_c, 1, 59, 127
1, 76320, Note_on_c, 1, 66, 127
1, 76320, Note_on_c, 1, 50, 127
1, 76349, Note_off_c, 1, 66, 0
1, 76350, Note_on_c, 1, 67, 127
1, 76379, Note_off_c, 1, 59, 0
1, 76379, Note_off_c, 1, 50, 0
1, 76379, Note_off_c, 1, 67, 0
1, 76380, Note_on_c, 1, 61, 127
1, 76380, Note_on_c, 1, 66, 127
1, 76380, Note_on_c, 1, 54, 127
1, 76439, Note_off_c, 1, 61, 0
1, 76439, Note_off_c, 1, 66, 0
1, 76439, Note_off_c, 1, 54, 0
1, 76440, Note_on_c, 1, 62, 127
1, 76440, Note_on_c, 1, 66, 127
1, 76440, Note_on_c, 1, 59, 127
1, 76469, Note_off_c, 1, 59, 0
1, 76470, Note_on_c, 1, 61, 127
1, 76499, Note_off_c, 1, 66, 0
1, 76499, Note_off_c, 1, 61, 0
1, 76500, Note_on_c, 1, 74, 127
1, 76529, Note_off_c, 1, 74, 0
1, 76530, Note_on_c, 1, 73, 127
1, 76530, Note_on_c, 1, 58, 127
1, 76559, Note_off_c, 1, 62, 0
1, 76559, Note_off_c, 1, 73, 0
1, 76559, Note_off_c, 1, 58, 0
1, 76560, Note_on_c, 1, 71, 127
1, 76560, Note_on_c, 1, 56, 127
1, 76589, Note_off_c, 1, 71, 0
1, 76589, Note_off_c, 1, 56, 0
1, 76590, Note_on_c, 1, 74, 127
1, 76590, Note_on_c, 1, 59, 127
1, 76619, Note_off_c, 1, 74, 0
1, 76619, Note_off_c, 1, 59, 0
1, 76620, Note_on_c, 1, 54, 127
1, 76620, Note_on_c, 1, 73, 127
1, 76620, Note_on_c, 1, 58, 127
1, 76649, Note_off_c, 1, 58, 0
1, 76650, Note_on_c, 1, 56, 127
1, 76679, Note_off_c, 1, 54, 0
1, 76679, Note_off_c, 1, 73, 0
1, 76679, Note_off_c, 1, 56, 0
1, 76680, Note_on_c, 1, 61, 127
1, 76680, Note_on_c, 1, 66, 127
1, 76680, Note_on_c, 1, 58, 127
1, 76709, Note_off_c, 1, 66, 0
1, 76709, Note_off_c, 1, 58, 0
1, 76710, Note_on_c, 1, 67, 127
1, 76710, Note_on_c, 1, 59, 127
1, 76739, Note_off_c, 1, 61, 0
1, 76739, Note_off_c, 1, 67, 0
1, 76739, Note_off_c, 1, 59, 0
1, 76740, Note_on_c, 1, 62, 127
1, 76740, Note_on_c, 1, 66, 127
1, 76740, Note_on_c, 1, 58, 127
1, 76769, Note_off_c, 1, 58, 0
1, 76770, Note_on_c, 1, 56, 127
1, 76799, Note_off_c, 1, 62, 0
1, 76799, Note_off_c, 1, 66, 0
1, 76799, Note_off_c, 1, 56, 0
1, 76800, Note_on_c, 1, 64, 127
1, 76800, Note_on_c, 1, 66, 127
1, 76800, Note_on_c, 1, 54, 127
1, 76829, Note_off_c, 1, 54, 0
1, 76830, Note_on_c, 1, 52, 127
1, 76859, Note_off_c, 1, 66, 0
1, 76859, Note_off_c, 1, 52, 0
1, 76860, Note_on_c, 1, 76, 127
1, 76889, Note_off_c, 1, 76, 0
1, 76890, Note_on_c, 1, 74, 127
1, 76890, Note_on_c, 1, 56, 127
1, 76919, Note_off_c, 1, 64, 0
1, 76919, Note_off_c, 1, 74, 0
1, 76919, Note_off_c, 1, 56, 0
1, 76920, Note_on_c, 1, 73, 127
1, 76920, Note_on_c, 1, 58, 127
1, 76949, Note_off_c, 1, 73, 0
1, 76949, Note_off_c, 1, 58, 0
1, 76950, Note_on_c, 1, 76, 127
1, 76950, Note_on_c, 1, 54, 127
1, 76979, Note_off_c, 1, 76, 0
1, 76979, Note_off_c, 1, 54, 0
1, 76980, Note_on_c, 1, 59, 127
1, 76980, Note_on_c, 1, 74, 127
1, 77009, Note_off_c, 1, 74, 0
1, 77010, Note_on_c, 1, 61, 127
1, 77010, Note_on_c, 1, 76, 127
1, 77039, Note_off_c, 1, 59, 0
1, 77039, Note_off_c, 1, 61, 0
1, 77039, Note_off_c, 1, 76, 0
1, 77040, Note_on_c, 1, 62, 127
1, 77040, Note_on_c, 1, 78, 127
1, 77040, Note_on_c, 1, 50, 127
1, 77069, Note_off_c, 1, 62, 0
1, 77069, Note_off_c, 1, 78, 0
1, 77070, Note_on_c, 1, 64, 127
1, 77070, Note_on_c, 1, 79, 127
1, 77099, Note_off_c, 1, 50, 0
1, 77099, Note_off_c, 1, 64, 0
1, 77099, Note_off_c, 1, 79, 0
1, 77100, Note_on_c, 1, 61, 127
1, 77100, Note_on_c, 1, 76, 127
1, 77100, Note_on_c, 1, 54, 127
1, 77129, Note_off_c, 1, 61, 0
1, 77129, Note_off_c, 1, 76, 0
1, 77130, Note_on_c, 1, 62, 127
1, 77130, Note_on_c, 1, 78, 127
1, 77159, Note_off_c, 1, 54, 0
1, 77159, Note_off_c, 1, 62, 0
1, 77159, Note_off_c, 1, 78, 0
1, 77160, Note_on_c, 1, 59, 127
1, 77160, Note_on_c, 1, 74, 127
1, 77189, Note_off_c, 1, 74, 0
1, 77190, Note_on_c, 1, 61, 127
1, 77190, Note_on_c, 1, 76, 127
1, 77219, Note_off_c, 1, 59, 0
1, 77219, Note_off_c, 1, 61, 0
1, 77219, Note_off_c, 1, 76, 0
1, 77220, Note_on_c, 1, 62, 127
1, 77220, Note_on_c, 1, 78, 127
1, 77220, Note_on_c, 1, 50, 127
1, 77249, Note_off_c, 1, 62, 0
1, 77249, Note_off_c, 1, 78, 0
1, 77250, Note_on_c, 1, 64, 127
1, 77250, Note_on_c, 1, 79, 127
1, 77279, Note_off_c, 1, 50, 0
1, 77279, Note_off_c, 1, 64, 0
1, 77279, Note_off_c, 1, 79, 0
1, 77280, Note_on_c, 1, 61, 127
1, 77280, Note_on_c, 1, 76, 127
1, 77280, Note_on_c, 1, 54, 127
1, 77309, Note_off_c, 1, 61, 0
1, 77309, Note_off_c, 1, 76, 0
1, 77310, Note_on_c, 1, 62, 127
1, 77310, Note_on_c, 1, 78, 127
1, 77339, Note_off_c, 1, 54, 0
1, 77339, Note_off_c, 1, 62, 0
1, 77339, Note_off_c, 1, 78, 0
1, 77340, Note_on_c, 1, 59, 127
1, 77340, Note_on_c, 1, 74, 127
1, 77340, Note_on_c, 1, 47, 127
1, 77369, Note_off_c, 1, 47, 0
1, 77370, Note_on_c, 1, 49, 127
1, 77399, Note_off_c, 1, 59, 0
1, 77399, Note_off_c, 1, 49, 0
1, 77400, Note_on_c, 1, 66, 127
1, 77400, Note_on_c, 1, 50, 127
1, 77429, Note_off_c, 1, 50, 0
1, 77459, Note_off_c, 1, 66, 0
1, 77460, Note_on_c, 1, 71, 127
1, 77519, Note_off_c, 1, 71, 0
1, 77520, Note_on_c, 1, 68, 127
1, 77520, Note_on_c, 1, 52, 127
1, 77549, Note_off_c, 1, 52, 0
1, 77550, Note_on_c, 1, 54, 127
1, 77579, Note_off_c, 1, 74, 0
1, 77579, Note_off_c, 1, 54, 0
1, 77580, Note_on_c, 1, 56, 127
1, 77609, Note_off_c, 1, 56, 0
1, 77639, Note_off_c, 1, 68, 0
1, 77640, Note_on_c, 1, 76, 127
1, 77640, Note_on_c, 1, 54, 127
1, 77669, Note_off_c, 1, 54, 0
1, 77670, Note_on_c, 1, 66, 127
1, 77670, Note_on_c, 1, 56, 127
1, 77684, Note_off_c, 1, 66, 0
1, 77685, Note_on_c, 1, 68, 127
1, 77699, Note_off_c, 1, 76, 0
1, 77699, Note_off_c, 1, 56, 0
1, 77699, Note_off_c, 1, 68, 0
1, 77700, Note_on_c, 1, 69, 127
1, 77700, Note_on_c, 1, 73, 127
1, 77700, Note_on_c, 1, 45, 127
1, 77729, Note_off_c, 1, 45, 0
1, 77730, Note_on_c, 1, 47, 127
1, 77759, Note_off_c, 1, 73, 0
1, 77759, Note_off_c, 1, 47, 0
1, 77760, Note_on_c, 1, 76, 127
1, 77760, Note_on_c, 1, 49, 127
1, 77789, Note_off_c, 1, 49, 0
1, 77819, Note_off_c, 1, 76, 0
1, 77820, Note_on_c, 1, 81, 127
1, 77850, Note_on_c, 1, 48, 127
1, 77879, Note_off_c, 1, 81, 0
1, 77879, Note_off_c, 1, 48, 0
1, 77880, Note_on_c, 1, 79, 127
1, 77880, Note_on_c, 1, 42, 127
1, 77909, Note_off_c, 1, 42, 0
1, 77910, Note_on_c, 1, 43, 127
1, 77939, Note_off_c, 1, 69, 0
1, 77939, Note_off_c, 1, 43, 0
1, 77940, Note_off_c, 1, 79, 0
1, 77940, Note_on_c, 1, 78, 127
1, 77970, Note_on_c, 1, 71, 127
1, 77970, Note_on_c, 1, 39, 127
1, 77999, Note_off_c, 1, 71, 0
1, 77999, Note_off_c, 1, 39, 0
1, 78000, Note_on_c, 1, 72, 127
1, 78000, Note_on_c, 1, 40, 127
1, 78029, Note_off_c, 1, 40, 0
1, 78059, Note_off_c, 1, 72, 0
1, 78090, Note_off_c, 1, 78, 0
1, 78090, Note_on_c, 1, 75, 127
1, 78119, Note_off_c, 1, 75, 0
1, 78120, Note_on_c, 1, 55, 127
1, 78179, Note_off_c, 1, 55, 0
1, 78180, Note_on_c, 1, 67, 127
1, 78180, Note_on_c, 1, 76, 127
1, 78180, Note_on_c, 1, 60, 127
1, 78209, Note_off_c, 1, 67, 0
1, 78209, Note_off_c, 1, 76, 0
1, 78210, Note_on_c, 1, 66, 127
1, 78210, Note_on_c, 1, 75, 127
1, 78239, Note_off_c, 1, 60, 0
1, 78239, Note_off_c, 1, 66, 0
1, 78239, Note_off_c, 1, 75, 0
1, 78240, Note_on_c, 1, 67, 127
1, 78240, Note_on_c, 1, 76, 127
1, 78240, Note_on_c, 1, 57, 127
1, 78269, Note_off_c, 1, 67, 0
1, 78269, Note_off_c, 1, 76, 0
1, 78270, Note_on_c, 1, 69, 127
1, 78270, Note_on_c, 1, 78, 127
1, 78299, Note_off_c, 1, 57, 0
1, 78299, Note_off_c, 1, 69, 0
1, 78299, Note_off_c, 1, 78, 0
1, 78300, Note_on_c, 1, 66, 127
1, 78300, Note_on_c, 1, 75, 127
1, 78300, Note_on_c, 1, 59, 127
1, 78320, Note_off_c, 1, 66, 0
1, 78320, Note_off_c, 1, 75, 0
1, 78320, Note_on_c, 1, 67, 127
1, 78320, Note_on_c, 1, 76, 127
1, 78340, Note_off_c, 1, 67, 0
1, 78340, Note_off_c, 1, 76, 0
1, 78359, Note_off_c, 1, 59, 0
1, 78360, Note_on_c, 1, 47, 127
1, 78390, Note_on_c, 1, 64, 127
1, 78419, Note_off_c, 1, 47, 0
1, 78419, Note_off_c, 1, 64, 0
1, 78420, Note_on_c, 1, 64, 127
1, 78420, Note_on_c, 1, 76, 127
1, 78420, Note_on_c, 1, 52, 127
1, 78449, Note_off_c, 1, 52, 0
1, 78450, Note_on_c, 1, 54, 127
1, 78479, Note_off_c, 1, 76, 0
1, 78479, Note_off_c, 1, 54, 0
1, 78510, Note_on_c, 1, 66, 127
1, 78510, Note_on_c, 1, 50, 127
1, 78539, Note_off_c, 1, 66, 0
1, 78539, Note_off_c, 1, 50, 0
1, 78540, Note_on_c, 1, 49, 127
1, 78569, Note_off_c, 1, 49, 0
1, 78570, Note_on_c, 1, 47, 127
1, 78599, Note_off_c, 1, 47, 0
1, 78600, Note_on_c, 1, 45, 127
1, 78629, Note_off_c, 1, 45, 0
1, 78660, Note_on_c, 1, 73, 127
1, 78689, Note_off_c, 1, 73, 0
1, 78690, Note_on_c, 1, 71, 127
1, 78690, Note_on_c, 1, 44, 127
1, 78719, Note_off_c, 1, 71, 0
1, 78719, Note_off_c, 1, 44, 0
1, 78720, Note_on_c, 1, 69, 127
1, 78720, Note_on_c, 1, 42, 127
1, 78749, Note_off_c, 1, 69, 0
1, 78749, Note_off_c, 1, 42, 0
1, 78960, Note_on_c, 1, 40, 127
1, 78989, Note_off_c, 1, 40, 0
1, 78990, Note_on_c, 1, 38, 127
1, 79019, Note_off_c, 1, 38, 0
1, 79020, Note_on_c, 1, 74, 127
1, 79049, Note_off_c, 1, 74, 0
1, 79230, Note_on_c, 1, 78, 127
1, 79259, Note_off_c, 1, 78, 0
1, 79680, Note_on_c, 1, 79, 127
1, 79709, Note_off_c, 1, 79, 0
1, 79740, Note_off_c, 1, 64, 0
1, 79770, Note_on_c, 1, 67, 127
1, 79770, Note_on_c, 1, 83, 127
1, 79770, Note_on_c, 1, 45, 127
1, 79799, Note_off_c, 1, 67, 0
1, 79799, Note_off_c, 1, 83, 0
1, 79799, Note_off_c, 1, 45, 0
1, 79800, Note_on_c, 1, 66, 127
1, 79800, Note_on_c, 1, 81, 127
1, 79800, Note_on_c, 1, 47, 127
1, 79829, Note_off_c, 1, 66, 0
1, 79829, Note_off_c, 1, 81, 0
1, 79829, Note_off_c, 1, 47, 0
1, 79830, Note_on_c, 1, 64, 127
1, 79830, Note_on_c, 1, 79, 127
1, 79830, Note_on_c, 1, 49, 127
1, 79859, Note_off_c, 1, 64, 0
1, 79859, Note_off_c, 1, 79, 0
1, 79859, Note_off_c, 1, 49, 0
1, 79860, Note_on_c, 1, 62, 127
1, 79860, Note_on_c, 1, 78, 127
1, 79860, Note_on_c, 1, 50, 127
1, 79889, Note_off_c, 1, 78, 0
1, 79890, Note_on_c, 1, 76, 127
1, 79919, Note_off_c, 1, 62, 0
1, 79919, Note_off_c, 1, 50, 0
1, 79919, Note_off_c, 1, 76, 0
1, 79920, Note_on_c, 1, 57, 127
1, 79920, Note_on_c, 1, 78, 127
1, 79920, Note_on_c, 1, 62, 127
1, 79949, Note_off_c, 1, 57, 0
1, 79949, Note_off_c, 1, 78, 0
1, 79950, Note_on_c, 1, 59, 127
1, 79950, Note_on_c, 1, 79, 127
1, 79979, Note_off_c, 1, 62, 0
1, 79979, Note_off_c, 1, 59, 0
1, 79979, Note_off_c, 1, 79, 0
1, 79980, Note_on_c, 1, 57, 127
1, 79980, Note_on_c, 1, 78, 127
1, 79980, Note_on_c, 1, 64, 127
1, 80009, Note_off_c, 1, 78, 0
1, 80010, Note_on_c, 1, 76, 127
1, 80039, Note_off_c, 1, 57, 0
1, 80039, Note_off_c, 1, 64, 0
1, 80039, Note_off_c, 1, 76, 0
1, 80040, Note_on_c, 1, 57, 127
1, 80040, Note_on_c, 1, 74, 127
1, 80040, Note_on_c, 1, 66, 127
1, 80060, Note_off_c, 1, 74, 0
1, 80060, Note_on_c, 1, 76, 127
1, 80069, Note_off_c, 1, 66, 0
1, 80070, Note_on_c, 1, 64, 127
1, 80080, Note_off_c, 1, 76, 0
1, 80099, Note_off_c, 1, 57, 0
1, 80099, Note_off_c, 1, 64, 0
1, 80100, Note_on_c, 1, 62, 127
1, 80129, Note_off_c, 1, 62, 0
1, 80130, Note_on_c, 1, 61, 127
1, 80159, Note_off_c, 1, 61, 0
1, 80160, Note_on_c, 1, 59, 127
1, 80189, Note_off_c, 1, 59, 0
1, 80220, Note_on_c, 1, 55, 127
1, 80249, Note_off_c, 1, 55, 0
1, 80250, Note_on_c, 1, 54, 127
1, 80279, Note_off_c, 1, 54, 0
1, 80280, Note_on_c, 1, 52, 127
1, 80309, Note_off_c, 1, 52, 0
1, 80310, Note_on_c, 1, 50, 127
1, 80339, Note_off_c, 1, 50, 0
1, 80340, Note_on_c, 1, 49, 127
1, 80369, Note_off_c, 1, 49, 0
1, 80370, Note_on_c, 1, 47, 127
1, 80399, Note_off_c, 1, 47, 0
1, 80400, Note_on_c, 1, 45, 127
1, 80430, Note_on_c, 1, 78, 127
1, 80459, Note_off_c, 1, 45, 0
1, 80459, Note_off_c, 1, 78, 0
1, 80460, Note_on_c, 1, 67, 127
1, 80460, Note_on_c, 1, 76, 127
1, 80460, Note_on_c, 1, 43, 127
1, 80489, Note_off_c, 1, 67, 0
1, 80489, Note_off_c, 1, 76, 0
1, 80490, Note_on_c, 1, 66, 127
1, 80490, Note_on_c, 1, 74, 127
1, 80519, Note_off_c, 1, 43, 0
1, 80519, Note_off_c, 1, 66, 0
1, 80519, Note_off_c, 1, 74, 0
1, 80520, Note_on_c, 1, 64, 127
1, 80520, Note_on_c, 1, 73, 127
1, 80520, Note_on_c, 1, 45, 127
1, 80549, Note_off_c, 1, 64, 0
1, 80549, Note_off_c, 1, 73, 0
1, 80550, Note_on_c, 1, 67, 127
1, 80550, Note_on_c, 1, 76, 127
1, 80579, Note_off_c, 1, 45, 0
1, 80579, Note_off_c, 1, 67, 0
1, 80579, Note_off_c, 1, 76, 0
1, 80580, Note_on_c, 1, 66, 127
1, 80580, Note_on_c, 1, 74, 127
1, 80580, Note_on_c, 1, 38, 127
1, 80609, Note_off_c, 1, 66, 0
1, 80609, Note_off_c, 1, 74, 0
1, 80610, Note_on_c, 1, 67, 127
1, 80610, Note_on_c, 1, 76, 127
1, 80639, Note_off_c, 1, 67, 0
1, 80639, Note_off_c, 1, 76, 0
1, 80640, Note_on_c, 1, 69, 127
1, 80640, Note_on_c, 1, 78, 127
1, 80669, Note_off_c, 1, 69, 0
1, 80669, Note_off_c, 1, 78, 0
1, 80670, Note_on_c, 1, 71, 127
1, 80670, Note_on_c, 1, 79, 127
1, 80699, Note_off_c, 1, 38, 0
1, 80699, Note_off_c, 1, 71, 0
1, 80699, Note_off_c, 1, 79, 0
1, 80700, Note_on_c, 1, 67, 127
1, 80700, Note_on_c, 1, 76, 127
1, 80729, Note_off_c, 1, 67, 0
1, 80729, Note_off_c, 1, 76, 0
1, 80730, Note_on_c, 1, 69, 127
1, 80730, Note_on_c, 1, 78, 127
1, 80759, Note_off_c, 1, 69, 0
1, 80759, Note_off_c, 1, 78, 0
1, 80760, Note_on_c, 1, 66, 127
1, 80760, Note_on_c, 1, 74, 127
1, 80760, Note_on_c, 1, 48, 127
1, 80789, Note_off_c, 1, 66, 0
1, 80789, Note_off_c, 1, 74, 0
1, 80790, Note_on_c, 1, 67, 127
1, 80790, Note_on_c, 1, 76, 127
1, 80819, Note_off_c, 1, 67, 0
1, 80819, Note_off_c, 1, 76, 0
1, 80820, Note_on_c, 1, 69, 127
1, 80820, Note_on_c, 1, 78, 127
1, 80849, Note_off_c, 1, 69, 0
1, 80849, Note_off_c, 1, 78, 0
1, 80850, Note_on_c, 1, 71, 127
1, 80850, Note_on_c, 1, 79, 127
1, 80879, Note_off_c, 1, 48, 0
1, 80879, Note_off_c, 1, 71, 0
1, 80879, Note_off_c, 1, 79, 0
1, 80880, Note_on_c, 1, 67, 127
1, 80880, Note_on_c, 1, 76, 127
1, 80909, Note_off_c, 1, 67, 0
1, 80909, Note_off_c, 1, 76, 0
1, 80910, Note_on_c, 1, 69, 127
1, 80910, Note_on_c, 1, 78, 127
1, 80939, Note_off_c, 1, 69, 0
1, 80939, Note_off_c, 1, 78, 0
1, 80940, Note_on_c, 1, 66, 127
1, 80940, Note_on_c, 1, 74, 127
1, 80940, Note_on_c, 1, 47, 127
1, 80969, Note_off_c, 1, 66, 0
1, 80969, Note_off_c, 1, 74, 0
1, 80970, Note_on_c, 1, 67, 127
1, 80970, Note_on_c, 1, 76, 127
1, 80999, Note_off_c, 1, 47, 0
1, 80999, Note_off_c, 1, 67, 0
1, 80999, Note_off_c, 1, 76, 0
1, 81000, Note_on_c, 1, 69, 127
1, 81000, Note_on_c, 1, 78, 127
1, 81000, Note_on_c, 1, 59, 127
1, 81029, Note_off_c, 1, 69, 0
1, 81029, Note_off_c, 1, 78, 0
1, 81030, Note_on_c, 1, 66, 127
1, 81030, Note_on_c, 1, 74, 127
1, 81059, Note_off_c, 1, 59, 0
1, 81059, Note_off_c, 1, 66, 0
1, 81059, Note_off_c, 1, 74, 0
1, 81060, Note_on_c, 1, 67, 127
1, 81060, Note_on_c, 1, 76, 127
1, 81060, Note_on_c, 1, 57, 127
1, 81089, Note_off_c, 1, 67, 0
1, 81089, Note_off_c, 1, 76, 0
1, 81090, Note_on_c, 1, 69, 127
1, 81090, Note_on_c, 1, 78, 127
1, 81119, Note_off_c, 1, 57, 0
1, 81119, Note_off_c, 1, 69, 0
1, 81119, Note_off_c, 1, 78, 0
1, 81120, Note_on_c, 1, 59, 127
1, 81120, Note_on_c, 1, 79, 127
1, 81120, Note_on_c, 1, 55, 127
1, 81149, Note_off_c, 1, 59, 0
1, 81149, Note_off_c, 1, 55, 0
1, 81150, Note_on_c, 1, 61, 127
1, 81150, Note_on_c, 1, 57, 127
1, 81179, Note_off_c, 1, 61, 0
1, 81179, Note_off_c, 1, 57, 0
1, 81180, Note_on_c, 1, 62, 127
1, 81209, Note_off_c, 1, 62, 0
1, 81299, Note_off_c, 1, 79, 0
1, 81300, Note_on_c, 1, 64, 127
1, 81300, Note_on_c, 1, 52, 127
1, 81329, Note_off_c, 1, 52, 0
1, 81330, Note_on_c, 1, 81, 127
1, 81330, Note_on_c, 1, 54, 127
1, 81359, Note_off_c, 1, 81, 0
1, 81359, Note_off_c, 1, 54, 0
1, 81360, Note_on_c, 1, 83, 127
1, 81360, Note_on_c, 1, 55, 127
1, 81389, Note_off_c, 1, 83, 0
1, 81389, Note_off_c, 1, 55, 0
1, 81390, Note_on_c, 1, 79, 127
1, 81419, Note_off_c, 1, 79, 0
1, 81479, Note_off_c, 1, 64, 0
1, 81480, Note_on_c, 1, 76, 127
1, 81480, Note_on_c, 1, 49, 127
1, 81509, Note_off_c, 1, 49, 0
1, 81510, Note_on_c, 1, 66, 127
1, 81510, Note_on_c, 1, 50, 127
1, 81539, Note_off_c, 1, 66, 0
1, 81539, Note_off_c, 1, 50, 0
1, 81540, Note_on_c, 1, 67, 127
1, 81540, Note_on_c, 1, 52, 127
1, 81569, Note_off_c, 1, 67, 0
1, 81569, Note_off_c, 1, 52, 0
1, 81570, Note_on_c, 1, 64, 127
1, 81599, Note_off_c, 1, 64, 0
1, 81659, Note_off_c, 1, 76, 0
1, 81660, Note_on_c, 1, 61, 127
1, 81660, Note_on_c, 1, 45, 127
1, 81689, Note_off_c, 1, 61, 0
1, 81690, Note_on_c, 1, 62, 127
1, 81690, Note_on_c, 1, 78, 127
1, 81719, Note_off_c, 1, 62, 0
1, 81719, Note_off_c, 1, 78, 0
1, 81720, Note_on_c, 1, 64, 127
1, 81720, Note_on_c, 1, 79, 127
1, 81749, Note_off_c, 1, 64, 0
1, 81749, Note_off_c, 1, 79, 0
1, 81750, Note_on_c, 1, 76, 127
1, 81779, Note_off_c, 1, 76, 0
1, 81839, Note_off_c, 1, 45, 0
1, 81840, Note_on_c, 1, 57, 127
1, 81840, Note_on_c, 1, 73, 127
1, 81869, Note_off_c, 1, 73, 0
1, 81870, Note_on_c, 1, 74, 127
1, 81870, Note_on_c, 1, 59, 127
1, 81899, Note_off_c, 1, 74, 0
1, 81899, Note_off_c, 1, 59, 0
1, 81900, Note_on_c, 1, 76, 127
1, 81900, Note_on_c, 1, 61, 127
1, 81929, Note_off_c, 1, 76, 0
1, 81929, Note_off_c, 1, 61, 0
1, 82019, Note_off_c, 1, 57, 0
1, 82020, Note_on_c, 1, 69, 127
1, 82020, Note_on_c, 1, 54, 127
1, 82049, Note_off_c, 1, 54, 0
1, 82050, Note_on_c, 1, 59, 127
1, 82050, Note_on_c, 1, 55, 127
1, 82079, Note_off_c, 1, 59, 0
1, 82079, Note_off_c, 1, 55, 0
1, 82080, Note_on_c, 1, 61, 127
1, 82080, Note_on_c, 1, 57, 127
1, 82109, Note_off_c, 1, 61, 0
1, 82109, Note_off_c, 1, 57, 0
1, 82199, Note_off_c, 1, 69, 0
1, 82200, Note_on_c, 1, 54, 127
1, 82200, Note_on_c, 1, 50, 127
1, 82229, Note_off_c, 1, 54, 0
1, 82230, Note_on_c, 1, 55, 127
1, 82230, Note_on_c, 1, 71, 127
1, 82259, Note_off_c, 1, 55, 0
1, 82259, Note_off_c, 1, 71, 0
1, 82260, Note_on_c, 1, 57, 127
1, 82260, Note_on_c, 1, 72, 127
1, 82289, Note_off_c, 1, 57, 0
1, 82289, Note_off_c, 1, 72, 0
1, 82290, Note_on_c, 1, 69, 127
1, 82319, Note_off_c, 1, 69, 0
1, 82379, Note_off_c, 1, 50, 0
1, 82380, Note_on_c, 1, 50, 127
1, 82380, Note_on_c, 1, 66, 127
1, 82409, Note_off_c, 1, 66, 0
1, 82410, Note_on_c, 1, 67, 127
1, 82410, Note_on_c, 1, 52, 127
1, 82439, Note_off_c, 1, 67, 0
1, 82439, Note_off_c, 1, 52, 0
1, 82440, Note_on_c, 1, 69, 127
1, 82440, Note_on_c, 1, 54, 127
1, 82469, Note_off_c, 1, 69, 0
1, 82469, Note_off_c, 1, 54, 0
1, 82559, Note_off_c, 1, 50, 0
1, 82560, Note_on_c, 1, 62, 127
1, 82560, Note_on_c, 1, 47, 127
1, 82589, Note_off_c, 1, 47, 0
1, 82590, Note_on_c, 1, 64, 127
1, 82590, Note_on_c, 1, 49, 127
1, 82619, Note_off_c, 1, 64, 0
1, 82619, Note_off_c, 1, 49, 0
1, 82620, Note_on_c, 1, 66, 127
1, 82620, Note_on_c, 1, 50, 127
1, 82649, Note_off_c, 1, 66, 0
1, 82649, Note_off_c, 1, 50, 0
1, 82739, Note_off_c, 1, 62, 0
1, 82740, Note_on_c, 1, 59, 127
1, 82740, Note_on_c, 1, 43, 127
1, 82769, Note_off_c, 1, 59, 0
1, 82770, Note_on_c, 1, 61, 127
1, 82770, Note_on_c, 1, 64, 127
1, 82799, Note_off_c, 1, 61, 0
1, 82799, Note_off_c, 1, 64, 0
1, 82800, Note_on_c, 1, 62, 127
1, 82800, Note_on_c, 1, 66, 127
1, 82829, Note_off_c, 1, 62, 0
1, 82829, Note_off_c, 1, 66, 0
1, 82920, Note_on_c, 1, 67, 127
1, 82949, Note_off_c, 1, 67, 0
1, 82950, Note_on_c, 1, 69, 127
1, 82979, Note_off_c, 1, 43, 0
1, 82979, Note_off_c, 1, 69, 0
1, 82980, Note_on_c, 1, 67, 127
1, 82980, Note_on_c, 1, 71, 127
1, 82980, Note_on_c, 1, 42, 127
1, 83009, Note_off_c, 1, 67, 0
1, 83009, Note_off_c, 1, 71, 0
1, 83010, Note_on_c, 1, 64, 127
1, 83039, Note_off_c, 1, 42, 0
1, 83039, Note_off_c, 1, 64, 0
1, 83040, Note_on_c, 1, 66, 127
1, 83040, Note_on_c, 1, 69, 127
1, 83040, Note_on_c, 1, 40, 127
1, 83069, Note_off_c, 1, 66, 0
1, 83069, Note_off_c, 1, 69, 0
1, 83070, Note_on_c, 1, 67, 127
1, 83070, Note_on_c, 1, 71, 127
1, 83099, Note_off_c, 1, 40, 0
1, 83099, Note_off_c, 1, 67, 0
1, 83099, Note_off_c, 1, 71, 0
1, 83100, Note_on_c, 1, 61, 127
1, 83100, Note_on_c, 1, 64, 127
1, 83100, Note_on_c, 1, 45, 127
1, 83129, Note_off_c, 1, 61, 0
1, 83129, Note_off_c, 1, 64, 0
1, 83130, Note_on_c, 1, 62, 127
1, 83130, Note_on_c, 1, 66, 127
1, 83159, Note_off_c, 1, 62, 0
1, 83159, Note_off_c, 1, 66, 0
1, 83160, Note_on_c, 1, 67, 127
1, 83189, Note_off_c, 1, 67, 0
1, 83280, Note_on_c, 1, 69, 127
1, 83309, Note_off_c, 1, 69, 0
1, 83310, Note_on_c, 1, 71, 127
1, 83339, Note_off_c, 1, 45, 0
1, 83339, Note_off_c, 1, 71, 0
1, 83340, Note_on_c, 1, 69, 127
1, 83340, Note_on_c, 1, 73, 127
1, 83340, Note_on_c, 1, 43, 127
1, 83369, Note_off_c, 1, 69, 0
1, 83369, Note_off_c, 1, 73, 0
1, 83370, Note_on_c, 1, 66, 127
1, 83399, Note_off_c, 1, 43, 0
1, 83399, Note_off_c, 1, 66, 0
1, 83400, Note_on_c, 1, 67, 127
1, 83400, Note_on_c, 1, 71, 127
1, 83400, Note_on_c, 1, 42, 127
1, 83429, Note_off_c, 1, 67, 0
1, 83429, Note_off_c, 1, 71, 0
1, 83430, Note_on_c, 1, 69, 127
1, 83430, Note_on_c, 1, 73, 127
1, 83459, Note_off_c, 1, 42, 0
1, 83459, Note_off_c, 1, 69, 0
1, 83459, Note_off_c, 1, 73, 0
1, 83460, Note_on_c, 1, 62, 127
1, 83460, Note_on_c, 1, 66, 127
1, 83460, Note_on_c, 1, 47, 127
1, 83489, Note_off_c, 1, 62, 0
1, 83489, Note_off_c, 1, 66, 0
1, 83490, Note_on_c, 1, 64, 127
1, 83490, Note_on_c, 1, 67, 127
1, 83519, Note_off_c, 1, 64, 0
1, 83519, Note_off_c, 1, 67, 0
1, 83520, Note_on_c, 1, 69, 127
1, 83549, Note_off_c, 1, 69, 0
1, 83640, Note_on_c, 1, 71, 127
1, 83669, Note_off_c, 1, 71, 0
1, 83670, Note_on_c, 1, 73, 127
1, 83699, Note_off_c, 1, 47, 0
1, 83699, Note_off_c, 1, 73, 0
1, 83700, Note_on_c, 1, 74, 127
1, 83700, Note_on_c, 1, 45, 127
1, 83729, Note_off_c, 1, 74, 0
1, 83759, Note_off_c, 1, 45, 0
1, 83760, Note_on_c, 1, 43, 127
1, 83819, Note_off_c, 1, 43, 0
1, 83820, Note_on_c, 1, 73, 127
1, 83820, Note_on_c, 1, 45, 127
1, 83849, Note_off_c, 1, 73, 0
1, 83850, Note_on_c, 1, 66, 127
1, 83850, Note_on_c, 1, 74, 127
1, 83879, Note_off_c, 1, 66, 0
1, 83879, Note_off_c, 1, 74, 0
1, 83880, Note_on_c, 1, 67, 127
1, 83880, Note_on_c, 1, 76, 127
1, 83909, Note_off_c, 1, 67, 0
1, 83909, Note_off_c, 1, 76, 0
1, 83910, Note_on_c, 1, 69, 127
1, 83910, Note_on_c, 1, 78, 127
1, 83939, Note_off_c, 1, 69, 0
1, 83939, Note_off_c, 1, 78, 0
1, 84000, Note_on_c, 1, 64, 127
1, 84029, Note_off_c, 1, 64, 0
1, 84179, Note_off_c, 1, 45, 0
1, 84180, Note_on_c, 1, 64, 127
1, 84180, Note_on_c, 1, 73, 127
1, 84180, Note_on_c, 1, 57, 127
1, 84209, Note_off_c, 1, 57, 0
1, 84210, Note_on_c, 1, 59, 127
1, 84239, Note_off_c, 1, 64, 0
1, 84239, Note_off_c, 1, 59, 0
1, 84240, Note_on_c, 1, 61, 127
1, 84269, Note_off_c, 1, 61, 0
1, 84270, Note_on_c, 1, 62, 127
1, 84299, Note_off_c, 1, 73, 0
1, 84299, Note_off_c, 1, 62, 0
1, 84300, Note_on_c, 1, 57, 127
1, 84300, Note_on_c, 1, 59, 127
1, 84329, Note_off_c, 1, 59, 0
1, 84330, Note_on_c, 1, 61, 127
1, 84359, Note_off_c, 1, 57, 0
1, 84359, Note_off_c, 1, 61, 0
1, 84360, Note_on_c, 1, 57, 127
1, 84390, Note_on_c, 1, 59, 127
1, 84419, Note_off_c, 1, 57, 0
1, 84419, Note_off_c, 1, 59, 0
1, 84420, Note_on_c, 1, 67, 127
1, 84420, Note_on_c, 1, 61, 127
1, 84449, Note_off_c, 1, 67, 0
1, 84449, Note_off_c, 1, 61, 0
1, 84450, Note_on_c, 1, 66, 127
1, 84450, Note_on_c, 1, 62, 127
1, 84479, Note_off_c, 1, 66, 0
1, 84479, Note_off_c, 1, 62, 0
1, 84480, Note_on_c, 1, 64, 127
1, 84480, Note_on_c, 1, 59, 127
1, 84509, Note_off_c, 1, 64, 0
1, 84509, Note_off_c, 1, 59, 0
1, 84510, Note_on_c, 1, 67, 127
1, 84510, Note_on_c, 1, 61, 127
1, 84539, Note_off_c, 1, 67, 0
1, 84539, Note_off_c, 1, 61, 0
1, 84540, Note_on_c, 1, 66, 127
1, 84540, Note_on_c, 1, 81, 127
1, 84540, Note_on_c, 1, 50, 127
1, 84569, Note_off_c, 1, 50, 0
1, 84570, Note_on_c, 1, 52, 127
1, 84599, Note_off_c, 1, 81, 0
1, 84599, Note_off_c, 1, 52, 0
1, 84600, Note_on_c, 1, 74, 127
1, 84600, Note_on_c, 1, 54, 127
1, 84629, Note_off_c, 1, 74, 0
1, 84629, Note_off_c, 1, 54, 0
1, 84630, Note_on_c, 1, 76, 127
1, 84630, Note_on_c, 1, 55, 127
1, 84659, Note_off_c, 1, 76, 0
1, 84659, Note_off_c, 1, 55, 0
1, 84780, Note_on_c, 1, 84, 127
1, 84809, Note_off_c, 1, 84, 0
1, 84810, Note_on_c, 1, 83, 127
1, 84839, Note_off_c, 1, 83, 0
1, 84930, Note_on_c, 1, 57, 127
1, 84959, Note_off_c, 1, 57, 0
1, 84960, Note_off_c, 1, 66, 0
1, 84960, Note_on_c, 1, 59, 127
1, 84989, Note_off_c, 1, 59, 0
1, 84990, Note_on_c, 1, 60, 127
1, 85019, Note_off_c, 1, 60, 0
1, 85170, Note_on_c, 1, 64, 127
1, 85200, Note_off_c, 1, 64, 0
1, 85200, Note_on_c, 1, 62, 127
1, 85230, Note_off_c, 1, 62, 0
1, 85260, Note_on_c, 1, 49, 127
1, 85289, Note_off_c, 1, 49, 0
1, 85320, Note_on_c, 1, 73, 127
1, 85349, Note_off_c, 1, 73, 0
1, 85560, Note_on_c, 1, 80, 127
1, 85589, Note_off_c, 1, 80, 0
1, 85920, Note_on_c, 1, 61, 127
1, 85950, Note_off_c, 1, 61, 0
1, 85980, Note_on_c, 1, 47, 127
1, 86009, Note_off_c, 1, 47, 0
1, 86040, Note_on_c, 1, 71, 127
1, 86069, Note_off_c, 1, 71, 0
1, 86250, Note_on_c, 1, 79, 127
1, 86279, Note_off_c, 1, 79, 0
1, 86280, Note_on_c, 1, 78, 127
1, 86309, Note_off_c, 1, 78, 0
1, 86700, Note_on_c, 1, 45, 127
1, 86729, Note_off_c, 1, 45, 0
1, 86760, Note_on_c, 1, 69, 127
1, 86789, Note_off_c, 1, 69, 0
1, 87120, Note_on_c, 1, 57, 127
1, 87120, Note_on_c, 1, 74, 127
1, 87120, Note_on_c, 1, 54, 127
1, 87149, Note_off_c, 1, 57, 0
1, 87150, Note_on_c, 1, 59, 127
1, 87179, Note_off_c, 1, 74, 0
1, 87179, Note_off_c, 1, 54, 0
1, 87179, Note_off_c, 1, 59, 0
1, 87180, Note_on_c, 1, 57, 127
1, 87180, Note_on_c, 1, 76, 127
1, 87195, Note_off_c, 1, 76, 0
1, 87195, Note_on_c, 1, 78, 127
1, 87210, Note_off_c, 1, 78, 0
1, 87239, Note_off_c, 1, 57, 0
1, 87240, Note_on_c, 1, 62, 127
1, 87269, Note_off_c, 1, 62, 0
1, 87270, Note_on_c, 1, 64, 127
1, 87299, Note_off_c, 1, 64, 0
1, 87300, Note_on_c, 1, 66, 127
1, 87329, Note_off_c, 1, 66, 0
1, 87330, Note_on_c, 1, 61, 127
1, 87359, Note_off_c, 1, 61, 0
1, 87360, Note_on_c, 1, 62, 127
1, 87360, Note_on_c, 1, 59, 127
1, 87389, Note_off_c, 1, 62, 0
1, 87389, Note_off_c, 1, 59, 0
1, 87390, Note_on_c, 1, 66, 127
1, 87390, Note_on_c, 1, 62, 127
1, 87419, Note_off_c, 1, 66, 0
1, 87419, Note_off_c, 1, 62, 0
1, 87420, Note_on_c, 1, 64, 127
1, 87420, Note_on_c, 1, 69, 127
1, 87420, Note_on_c, 1, 61, 127
1, 87449, Note_off_c, 1, 61, 0
1, 87450, Note_on_c, 1, 59, 127
1, 87479, Note_off_c, 1, 64, 0
1, 87479, Note_off_c, 1, 69, 0
1, 87479, Note_off_c, 1, 59, 0
1, 87480, Note_on_c, 1, 57, 127
1, 87480, Note_on_c, 1, 76, 127
1, 87480, Note_on_c, 1, 61, 127
1, 87509, Note_off_c, 1, 57, 0
1, 87509, Note_off_c, 1, 61, 0
1, 87510, Note_on_c, 1, 59, 127
1, 87510, Note_on_c, 1, 62, 127
1, 87539, Note_off_c, 1, 76, 0
1, 87539, Note_off_c, 1, 59, 0
1, 87539, Note_off_c, 1, 62, 0
1, 87540, Note_on_c, 1, 57, 127
1, 87540, Note_on_c, 1, 79, 127
1, 87540, Note_on_c, 1, 61, 127
1, 87555, Note_off_c, 1, 79, 0
1, 87555, Note_on_c, 1, 78, 127
1, 87569, Note_off_c, 1, 61, 0
1, 87570, Note_off_c, 1, 78, 0
1, 87570, Note_on_c, 1, 76, 127
1, 87570, Note_on_c, 1, 59, 127
1, 87585, Note_off_c, 1, 76, 0
1, 87599, Note_off_c, 1, 57, 0
1, 87599, Note_off_c, 1, 59, 0
1, 87630, Note_on_c, 1, 55, 127
1, 87659, Note_off_c, 1, 55, 0
1, 87660, Note_on_c, 1, 67, 127
1, 87689, Note_off_c, 1, 67, 0
1, 87690, Note_on_c, 1, 66, 127
1, 87719, Note_off_c, 1, 66, 0
1, 87720, Note_on_c, 1, 64, 127
1, 87720, Note_on_c, 1, 61, 127
1, 87749, Note_off_c, 1, 64, 0
1, 87749, Note_off_c, 1, 61, 0
1, 87750, Note_on_c, 1, 67, 127
1, 87750, Note_on_c, 1, 57, 127
1, 87779, Note_off_c, 1, 67, 0
1, 87779, Note_off_c, 1, 57, 0
1, 87780, Note_on_c, 1, 66, 127
1, 87780, Note_on_c, 1, 74, 127
1, 87780, Note_on_c, 1, 62, 127
1, 87809, Note_off_c, 1, 66, 0
1, 87809, Note_off_c, 1, 74, 0
1, 87810, Note_on_c, 1, 67, 127
1, 87810, Note_on_c, 1, 76, 127
1, 87839, Note_off_c, 1, 62, 0
1, 87839, Note_off_c, 1, 67, 0
1, 87839, Note_off_c, 1, 76, 0
1, 87840, Note_on_c, 1, 69, 127
1, 87840, Note_on_c, 1, 78, 127
1, 87840, Note_on_c, 1, 54, 127
1, 87869, Note_off_c, 1, 69, 0
1, 87869, Note_off_c, 1, 78, 0
1, 87870, Note_on_c, 1, 71, 127
1, 87870, Note_on_c, 1, 79, 127
1, 87899, Note_off_c, 1, 54, 0
1, 87899, Note_off_c, 1, 71, 0
1, 87899, Note_off_c, 1, 79, 0
1, 87900, Note_on_c, 1, 67, 127
1, 87900, Note_on_c, 1, 76, 127
1, 87900, Note_on_c, 1, 57, 127
1, 87929, Note_off_c, 1, 67, 0
1, 87929, Note_off_c, 1, 76, 0
1, 87930, Note_on_c, 1, 69, 127
1, 87930, Note_on_c, 1, 78, 127
1, 87959, Note_off_c, 1, 57, 0
1, 87959, Note_off_c, 1, 69, 0
1, 87959, Note_off_c, 1, 78, 0
1, 87960, Note_on_c, 1, 66, 127
1, 87960, Note_on_c, 1, 74, 127
1, 87960, Note_on_c, 1, 62, 127
1, 87989, Note_off_c, 1, 66, 0
1, 87989, Note_off_c, 1, 74, 0
1, 87990, Note_on_c, 1, 67, 127
1, 87990, Note_on_c, 1, 76, 127
1, 88019, Note_off_c, 1, 62, 0
1, 88019, Note_off_c, 1, 67, 0
1, 88019, Note_off_c, 1, 76, 0
1, 88020, Note_on_c, 1, 69, 127
1, 88020, Note_on_c, 1, 78, 127
1, 88020, Note_on_c, 1, 54, 127
1, 88049, Note_off_c, 1, 69, 0
1, 88049, Note_off_c, 1, 78, 0
1, 88050, Note_on_c, 1, 71, 127
1, 88050, Note_on_c, 1, 79, 127
1, 88079, Note_off_c, 1, 54, 0
1, 88079, Note_off_c, 1, 71, 0
1, 88079, Note_off_c, 1, 79, 0
1, 88080, Note_on_c, 1, 67, 127
1, 88080, Note_on_c, 1, 76, 127
1, 88080, Note_on_c, 1, 57, 127
1, 88109, Note_off_c, 1, 67, 0
1, 88109, Note_off_c, 1, 76, 0
1, 88110, Note_on_c, 1, 69, 127
1, 88110, Note_on_c, 1, 78, 127
1, 88139, Note_off_c, 1, 57, 0
1, 88139, Note_off_c, 1, 69, 0
1, 88139, Note_off_c, 1, 78, 0
1, 88140, Note_on_c, 1, 66, 127
1, 88140, Note_on_c, 1, 75, 127
1, 88140, Note_on_c, 1, 60, 127
1, 88169, Note_off_c, 1, 66, 0
1, 88169, Note_off_c, 1, 75, 0
1, 88170, Note_on_c, 1, 67, 127
1, 88170, Note_on_c, 1, 76, 127
1, 88199, Note_off_c, 1, 60, 0
1, 88199, Note_off_c, 1, 67, 0
1, 88199, Note_off_c, 1, 76, 0
1, 88200, Note_on_c, 1, 69, 127
1, 88200, Note_on_c, 1, 78, 127
1, 88200, Note_on_c, 1, 57, 127
1, 88229, Note_off_c, 1, 69, 0
1, 88229, Note_off_c, 1, 78, 0
1, 88230, Note_on_c, 1, 66, 127
1, 88230, Note_on_c, 1, 75, 127
1, 88259, Note_off_c, 1, 57, 0
1, 88259, Note_off_c, 1, 66, 0
1, 88259, Note_off_c, 1, 75, 0
1, 88260, Note_on_c, 1, 67, 127
1, 88260, Note_on_c, 1, 76, 127
1, 88260, Note_on_c, 1, 59, 127
1, 88289, Note_off_c, 1, 67, 0
1, 88289, Note_off_c, 1, 76, 0
1, 88290, Note_on_c, 1, 69, 127
1, 88290, Note_on_c, 1, 78, 127
1, 88319, Note_off_c, 1, 59, 0
1, 88319, Note_off_c, 1, 69, 0
1, 88319, Note_off_c, 1, 78, 0
1, 88320, Note_on_c, 1, 67, 127
1, 88320, Note_on_c, 1, 76, 127
1, 88320, Note_on_c, 1, 52, 127
1, 88349, Note_off_c, 1, 67, 0
1, 88349, Note_off_c, 1, 52, 0
1, 88350, Note_on_c, 1, 69, 127
1, 88350, Note_on_c, 1, 54, 127
1, 88379, Note_off_c, 1, 69, 0
1, 88379, Note_off_c, 1, 54, 0
1, 88380, Note_on_c, 1, 71, 127
1, 88380, Note_on_c, 1, 55, 127
1, 88409, Note_off_c, 1, 71, 0
1, 88409, Note_off_c, 1, 55, 0
1, 88499, Note_off_c, 1, 76, 0
1, 88500, Note_on_c, 1, 64, 127
1, 88500, Note_on_c, 1, 49, 127
1, 88529, Note_off_c, 1, 49, 0
1, 88530, Note_on_c, 1, 78, 127
1, 88530, Note_on_c, 1, 50, 127
1, 88559, Note_off_c, 1, 78, 0
1, 88559, Note_off_c, 1, 50, 0
1, 88560, Note_on_c, 1, 79, 127
1, 88560, Note_on_c, 1, 52, 127
1, 88589, Note_off_c, 1, 79, 0
1, 88589, Note_off_c, 1, 52, 0
1, 88590, Note_on_c, 1, 76, 127
1, 88619, Note_off_c, 1, 76, 0
1, 88679, Note_off_c, 1, 64, 0
1, 88680, Note_on_c, 1, 73, 127
1, 88680, Note_on_c, 1, 45, 127
1, 88709, Note_off_c, 1, 73, 0
1, 88710, Note_on_c, 1, 66, 127
1, 88710, Note_on_c, 1, 74, 127
1, 88739, Note_off_c, 1, 66, 0
1, 88739, Note_off_c, 1, 74, 0
1, 88740, Note_on_c, 1, 67, 127
1, 88740, Note_on_c, 1, 76, 127
1, 88769, Note_off_c, 1, 67, 0
1, 88769, Note_off_c, 1, 76, 0
1, 88770, Note_on_c, 1, 64, 127
1, 88799, Note_off_c, 1, 64, 0
1, 88859, Note_off_c, 1, 45, 0
1, 88860, Note_on_c, 1, 61, 127
1, 88860, Note_on_c, 1, 69, 127
1, 88860, Note_on_c, 1, 57, 127
1, 88889, Note_off_c, 1, 61, 0
1, 88889, Note_off_c, 1, 57, 0
1, 88890, Note_on_c, 1, 62, 127
1, 88890, Note_on_c, 1, 59, 127
1, 88919, Note_off_c, 1, 62, 0
1, 88919, Note_off_c, 1, 59, 0
1, 88920, Note_on_c, 1, 64, 127
1, 88949, Note_off_c, 1, 64, 0
1, 89039, Note_off_c, 1, 69, 0
1, 89040, Note_on_c, 1, 57, 127
1, 89040, Note_on_c, 1, 54, 127
1, 89069, Note_off_c, 1, 54, 0
1, 89070, Note_on_c, 1, 71, 127
1, 89070, Note_on_c, 1, 55, 127
1, 89099, Note_off_c, 1, 71, 0
1, 89099, Note_off_c, 1, 55, 0
1, 89100, Note_on_c, 1, 72, 127
1, 89129, Note_off_c, 1, 72, 0
1, 89130, Note_on_c, 1, 69, 127
1, 89159, Note_off_c, 1, 69, 0
1, 89219, Note_off_c, 1, 57, 0
1, 89220, Note_on_c, 1, 66, 127
1, 89220, Note_on_c, 1, 50, 127
1, 89249, Note_off_c, 1, 66, 0
1, 89250, Note_on_c, 1, 59, 127
1, 89250, Note_on_c, 1, 67, 127
1, 89279, Note_off_c, 1, 59, 0
1, 89279, Note_off_c, 1, 67, 0
1, 89280, Note_on_c, 1, 60, 127
1, 89280, Note_on_c, 1, 69, 127
1, 89309, Note_off_c, 1, 60, 0
1, 89309, Note_off_c, 1, 69, 0
1, 89310, Note_on_c, 1, 57, 127
1, 89339, Note_off_c, 1, 57, 0
1, 89399, Note_off_c, 1, 50, 0
1, 89400, Note_on_c, 1, 54, 127
1, 89400, Note_on_c, 1, 62, 127
1, 89429, Note_off_c, 1, 54, 0
1, 89430, Note_on_c, 1, 55, 127
1, 89430, Note_on_c, 1, 52, 127
1, 89459, Note_off_c, 1, 55, 0
1, 89459, Note_off_c, 1, 52, 0
1, 89460, Note_on_c, 1, 57, 127
1, 89489, Note_off_c, 1, 57, 0
1, 89490, Note_on_c, 1, 50, 127
1, 89519, Note_off_c, 1, 50, 0
1, 89579, Note_off_c, 1, 62, 0
1, 89580, Note_on_c, 1, 50, 127
1, 89580, Note_on_c, 1, 74, 127
1, 89580, Note_on_c, 1, 47, 127
1, 89609, Note_off_c, 1, 74, 0
1, 89609, Note_off_c, 1, 47, 0
1, 89610, Note_on_c, 1, 76, 127
1, 89610, Note_on_c, 1, 48, 127
1, 89639, Note_off_c, 1, 76, 0
1, 89639, Note_off_c, 1, 48, 0
1, 89640, Note_on_c, 1, 78, 127
1, 89669, Note_off_c, 1, 78, 0
1, 89759, Note_off_c, 1, 50, 0
1, 89760, Note_on_c, 1, 71, 127
1, 89760, Note_on_c, 1, 43, 127
1, 89789, Note_off_c, 1, 71, 0
1, 89790, Note_on_c, 1, 52, 127
1, 89790, Note_on_c, 1, 73, 127
1, 89819, Note_off_c, 1, 52, 0
1, 89819, Note_off_c, 1, 73, 0
1, 89820, Note_on_c, 1, 54, 127
1, 89820, Note_on_c, 1, 74, 127
1, 89849, Note_off_c, 1, 54, 0
1, 89849, Note_off_c, 1, 74, 0
1, 89850, Note_on_c, 1, 50, 127
1, 89879, Note_off_c, 1, 50, 0
1, 89940, Note_on_c, 1, 55, 127
1, 89940, Note_on_c, 1, 76, 127
1, 89969, Note_off_c, 1, 55, 0
1, 89969, Note_off_c, 1, 76, 0
1, 89970, Note_on_c, 1, 57, 127
1, 89970, Note_on_c, 1, 78, 127
1, 89999, Note_off_c, 1, 43, 0
1, 89999, Note_off_c, 1, 57, 0
1, 89999, Note_off_c, 1, 78, 0
1, 90000, Note_on_c, 1, 59, 127
1, 90000, Note_on_c, 1, 79, 127
1, 90000, Note_on_c, 1, 42, 127
1, 90029, Note_off_c, 1, 59, 0
1, 90029, Note_off_c, 1, 79, 0
1, 90030, Note_on_c, 1, 55, 127
1, 90030, Note_on_c, 1, 76, 127
1, 90059, Note_off_c, 1, 42, 0
1, 90059, Note_off_c, 1, 55, 0
1, 90059, Note_off_c, 1, 76, 0
1, 90060, Note_on_c, 1, 57, 127
1, 90060, Note_on_c, 1, 78, 127
1, 90060, Note_on_c, 1, 40, 127
1, 90089, Note_off_c, 1, 57, 0
1, 90089, Note_off_c, 1, 78, 0
1, 90090, Note_on_c, 1, 59, 127
1, 90090, Note_on_c, 1, 79, 127
1, 90119, Note_off_c, 1, 40, 0
1, 90119, Note_off_c, 1, 59, 0
1, 90119, Note_off_c, 1, 79, 0
1, 90120, Note_on_c, 1, 52, 127
1, 90120, Note_on_c, 1, 73, 127
1, 90120, Note_on_c, 1, 45, 127
1, 90149, Note_off_c, 1, 52, 0
1, 90149, Note_off_c, 1, 73, 0
1, 90150, Note_on_c, 1, 54, 127
1, 90150, Note_on_c, 1, 74, 127
1, 90179, Note_off_c, 1, 54, 0
1, 90179, Note_off_c, 1, 74, 0
1, 90180, Note_on_c, 1, 55, 127
1, 90180, Note_on_c, 1, 76, 127
1, 90209, Note_off_c, 1, 55, 0
1, 90209, Note_off_c, 1, 76, 0
1, 90300, Note_on_c, 1, 57, 127
1, 90300, Note_on_c, 1, 78, 127
1, 90329, Note_off_c, 1, 57, 0
1, 90329, Note_off_c, 1, 78, 0
1, 90330, Note_on_c, 1, 59, 127
1, 90330, Note_on_c, 1, 79, 127
1, 90359, Note_off_c, 1, 45, 0
1, 90359, Note_off_c, 1, 59, 0
1, 90359, Note_off_c, 1, 79, 0
1, 90360, Note_on_c, 1, 61, 127
1, 90360, Note_on_c, 1, 81, 127
1, 90360, Note_on_c, 1, 43, 127
1, 90389, Note_off_c, 1, 61, 0
1, 90389, Note_off_c, 1, 81, 0
1, 90390, Note_on_c, 1, 57, 127
1, 90390, Note_on_c, 1, 78, 127
1, 90419, Note_off_c, 1, 43, 0
1, 90419, Note_off_c, 1, 57, 0
1, 90419, Note_off_c, 1, 78, 0
1, 90420, Note_on_c, 1, 59, 127
1, 90420, Note_on_c, 1, 79, 127
1, 90420, Note_on_c, 1, 42, 127
1, 90449, Note_off_c, 1, 59, 0
1, 90449, Note_off_c, 1, 79, 0
1, 90450, Note_on_c, 1, 61, 127
1, 90450, Note_on_c, 1, 81, 127
1, 90479, Note_off_c, 1, 42, 0
1, 90479, Note_off_c, 1, 61, 0
1, 90479, Note_off_c, 1, 81, 0
1, 90480, Note_on_c, 1, 54, 127
1, 90480, Note_on_c, 1, 74, 127
1, 90480, Note_on_c, 1, 47, 127
1, 90509, Note_off_c, 1, 54, 0
1, 90509, Note_off_c, 1, 74, 0
1, 90510, Note_on_c, 1, 55, 127
1, 90510, Note_on_c, 1, 76, 127
1, 90539, Note_off_c, 1, 47, 0
1, 90539, Note_off_c, 1, 55, 0
1, 90539, Note_off_c, 1, 76, 0
1, 90540, Note_on_c, 1, 57, 127
1, 90540, Note_on_c, 1, 78, 127
1, 90540, Note_on_c, 1, 48, 127
1, 90569, Note_off_c, 1, 57, 0
1, 90569, Note_off_c, 1, 78, 0
1, 90570, Note_on_c, 1, 54, 127
1, 90570, Note_on_c, 1, 74, 127
1, 90599, Note_off_c, 1, 48, 0
1, 90599, Note_off_c, 1, 54, 0
1, 90599, Note_off_c, 1, 74, 0
1, 90600, Note_on_c, 1, 55, 127
1, 90600, Note_on_c, 1, 76, 127
1, 90600, Note_on_c, 1, 50, 127
1, 90629, Note_off_c, 1, 55, 0
1, 90629, Note_off_c, 1, 76, 0
1, 90630, Note_on_c, 1, 57, 127
1, 90630, Note_on_c, 1, 78, 127
1, 90659, Note_off_c, 1, 50, 0
1, 90659, Note_off_c, 1, 57, 0
1, 90659, Note_off_c, 1, 78, 0
1, 90660, Note_on_c, 1, 59, 127
1, 90660, Note_on_c, 1, 79, 127
1, 90660, Note_on_c, 1, 43, 127
1, 90689, Note_off_c, 1, 59, 0
1, 90689, Note_off_c, 1, 79, 0
1, 90690, Note_on_c, 1, 60, 127
1, 90690, Note_on_c, 1, 81, 127
1, 90719, Note_off_c, 1, 60, 0
1, 90719, Note_off_c, 1, 81, 0
1, 90720, Note_on_c, 1, 62, 127
1, 90720, Note_on_c, 1, 83, 127
1, 90749, Note_off_c, 1, 62, 0
1, 90749, Note_off_c, 1, 83, 0
1, 90750, Note_on_c, 1, 64, 127
1, 90750, Note_on_c, 1, 84, 127
1, 90779, Note_off_c, 1, 64, 0
1, 90779, Note_off_c, 1, 84, 0
1, 91020, Note_on_c, 1, 55, 127
1, 91020, Note_on_c, 1, 76, 127
1, 91049, Note_off_c, 1, 55, 0
1, 91049, Note_off_c, 1, 76, 0
1, 91050, Note_on_c, 1, 57, 127
1, 91050, Note_on_c, 1, 78, 127
1, 91079, Note_off_c, 1, 57, 0
1, 91079, Note_off_c, 1, 78, 0
1, 91260, Note_off_c, 1, 43, 0
1, 91260, Note_on_c, 1, 42, 127
1, 91319, Note_off_c, 1, 42, 0
1, 91320, Note_on_c, 1, 57, 127
1, 91320, Note_on_c, 1, 78, 127
1, 91320, Note_on_c, 1, 40, 127
1, 91349, Note_off_c, 1, 57, 0
1, 91349, Note_off_c, 1, 78, 0
1, 91350, Note_on_c, 1, 59, 127
1, 91350, Note_on_c, 1, 79, 127
1, 91379, Note_off_c, 1, 40, 0
1, 91379, Note_off_c, 1, 59, 0
1, 91379, Note_off_c, 1, 79, 0
1, 91380, Note_on_c, 1, 52, 127
1, 91380, Note_on_c, 1, 73, 127
1, 91380, Note_on_c, 1, 45, 127
1, 91409, Note_off_c, 1, 52, 0
1, 91409, Note_off_c, 1, 73, 0
1, 91410, Note_on_c, 1, 54, 127
1, 91410, Note_on_c, 1, 74, 127
1, 91439, Note_off_c, 1, 45, 0
1, 91439, Note_off_c, 1, 54, 0
1, 91439, Note_off_c, 1, 74, 0
1, 91440, Note_on_c, 1, 55, 127
1, 91440, Note_on_c, 1, 76, 127
1, 91440, Note_on_c, 1, 45, 127
1, 91469, Note_off_c, 1, 55, 0
1, 91469, Note_off_c, 1, 76, 0
1, 91469, Note_off_c, 1, 45, 0
1, 91470, Note_on_c, 1, 52, 127
1, 91470, Note_on_c, 1, 73, 127
1, 91470, Note_on_c, 1, 47, 127
1, 91499, Note_off_c, 1, 52, 0
1, 91499, Note_off_c, 1, 73, 0
1, 91499, Note_off_c, 1, 47, 0
1, 91500, Note_on_c, 1, 54, 127
1, 91500, Note_on_c, 1, 74, 127
1, 91500, Note_on_c, 1, 45, 127
1, 91529, Note_off_c, 1, 54, 0
1, 91529, Note_off_c, 1, 74, 0
1, 91530, Note_on_c, 1, 55, 127
1, 91530, Note_on_c, 1, 76, 127
1, 91559, Note_off_c, 1, 45, 0
1, 91559, Note_off_c, 1, 55, 0
1, 91559, Note_off_c, 1, 76, 0
1, 91560, Note_on_c, 1, 54, 127
1, 91560, Note_on_c, 1, 74, 127
1, 91560, Note_on_c, 1, 45, 127
1, 91589, Note_off_c, 1, 74, 0
1, 91590, Note_on_c, 1, 73, 127
1, 91619, Note_off_c, 1, 54, 0
1, 91619, Note_off_c, 1, 45, 0
1, 91619, Note_off_c, 1, 73, 0
1, 91620, Note_on_c, 1, 57, 127
1, 91620, Note_on_c, 1, 74, 127
1, 91620, Note_on_c, 1, 54, 127
1, 91649, Note_off_c, 1, 74, 0
1, 91649, Note_off_c, 1, 54, 0
1, 91650, Note_on_c, 1, 76, 127
1, 91650, Note_on_c, 1, 52, 127
1, 91679, Note_off_c, 1, 57, 0
1, 91679, Note_off_c, 1, 76, 0
1, 91679, Note_off_c, 1, 52, 0
1, 91680, Note_on_c, 1, 62, 127
1, 91680, Note_on_c, 1, 78, 127
1, 91680, Note_on_c, 1, 50, 127
1, 91709, Note_off_c, 1, 78, 0
1, 91709, Note_off_c, 1, 50, 0
1, 91710, Note_on_c, 1, 74, 127
1, 91710, Note_on_c, 1, 54, 127
1, 91739, Note_off_c, 1, 62, 0
1, 91739, Note_off_c, 1, 74, 0
1, 91739, Note_off_c, 1, 54, 0
1, 91740, Note_on_c, 1, 61, 127
1, 91740, Note_on_c, 1, 79, 127
1, 91740, Note_on_c, 1, 52, 127
1, 91769, Note_off_c, 1, 79, 0
1, 91770, Note_on_c, 1, 78, 127
1, 91799, Note_off_c, 1, 61, 0
1, 91799, Note_off_c, 1, 52, 0
1, 91799, Note_off_c, 1, 78, 0
1, 91800, Note_on_c, 1, 64, 127
1, 91800, Note_on_c, 1, 79, 127
1, 91800, Note_on_c, 1, 45, 127
1, 91829, Note_off_c, 1, 79, 0
1, 91829, Note_off_c, 1, 45, 0
1, 91830, Note_on_c, 1, 76, 127
1, 91830, Note_on_c, 1, 47, 127
1, 91859, Note_off_c, 1, 64, 0
1, 91859, Note_off_c, 1, 76, 0
1, 91859, Note_off_c, 1, 47, 0
1, 91860, Note_on_c, 1, 61, 127
1, 91860, Note_on_c, 1, 78, 127
1, 91860, Note_on_c, 1, 45, 127
1, 91889, Note_off_c, 1, 78, 0
1, 91890, Note_on_c, 1, 79, 127
1, 91919, Note_off_c, 1, 61, 0
1, 91919, Note_off_c, 1, 45, 0
1, 91919, Note_off_c, 1, 79, 0
1, 91920, Note_on_c, 1, 57, 127
1, 91920, Note_on_c, 1, 73, 127
1, 91920, Note_on_c, 1, 45, 127
1, 91949, Note_off_c, 1, 73, 0
1, 91950, Note_on_c, 1, 76, 127
1, 91979, Note_off_c, 1, 57, 0
1, 91979, Note_off_c, 1, 45, 0
1, 91979, Note_off_c, 1, 76, 0
1, 91980, Note_on_c, 1, 61, 127
1, 91980, Note_on_c, 1, 81, 127
1, 91980, Note_on_c, 1, 55, 127
1, 92009, Note_off_c, 1, 81, 0
1, 92009, Note_off_c, 1, 55, 0
1, 92010, Note_on_c, 1, 76, 127
1, 92010, Note_on_c, 1, 54, 127
1, 92039, Note_off_c, 1, 61, 0
1, 92039, Note_off_c, 1, 76, 0
1, 92039, Note_off_c, 1, 54, 0
1, 92040, Note_on_c, 1, 64, 127
1, 92040, Note_on_c, 1, 73, 127
1, 92040, Note_on_c, 1, 52, 127
1, 92069, Note_off_c, 1, 73, 0
1, 92069, Note_off_c, 1, 52, 0
1, 92070, Note_on_c, 1, 69, 127
1, 92070, Note_on_c, 1, 55, 127
1, 92099, Note_off_c, 1, 64, 0
1, 92099, Note_off_c, 1, 69, 0
1, 92099, Note_off_c, 1, 55, 0
1, 92100, Note_on_c, 1, 69, 127
1, 92100, Note_on_c, 1, 74, 127
1, 92100, Note_on_c, 1, 54, 127
1, 92129, Note_off_c, 1, 74, 0
1, 92129, Note_off_c, 1, 54, 0
1, 92130, Note_on_c, 1, 76, 127
1, 92130, Note_on_c, 1, 55, 127
1, 92159, Note_off_c, 1, 76, 0
1, 92159, Note_off_c, 1, 55, 0
1, 92160, Note_on_c, 1, 78, 127
1, 92160, Note_on_c, 1, 57, 127
1, 92189, Note_off_c, 1, 78, 0
1, 92189, Note_off_c, 1, 57, 0
1, 92190, Note_on_c, 1, 79, 127
1, 92190, Note_on_c, 1, 59, 127
1, 92219, Note_off_c, 1, 79, 0
1, 92219, Note_off_c, 1, 59, 0
1, 92520, Note_off_c, 1, 69, 0
1, 92520, Note_on_c, 1, 66, 127
1, 92579, Note_off_c, 1, 66, 0
1, 92580, Note_on_c, 1, 62, 127
1, 92639, Note_off_c, 1, 62, 0
1, 92640, Note_on_c, 1, 67, 127
1, 92640, Note_on_c, 1, 52, 127
1, 92669, Note_off_c, 1, 52, 0
1, 92699, Note_off_c, 1, 67, 0
1, 92700, Note_on_c, 1, 64, 127
1, 92700, Note_on_c, 1, 73, 127
1, 92720, Note_off_c, 1, 73, 0
1, 92759, Note_off_c, 1, 64, 0
1, 92760, Note_on_c, 1, 61, 127
1, 92819, Note_off_c, 1, 61, 0
1, 92820, Note_on_c, 1, 50, 127
1, 92849, Note_off_c, 1, 50, 0
1, 92880, Note_on_c, 1, 71, 127
1, 92895, Note_off_c, 1, 71, 0
1, 93000, Note_on_c, 1, 49, 127
1, 93029, Note_off_c, 1, 49, 0
1, 93180, Note_on_c, 1, 47, 127
1, 93209, Note_off_c, 1, 47, 0
1, 93360, Note_on_c, 1, 45, 127
1, 93389, Note_off_c, 1, 45, 0
1, 93480, Note_on_c, 1, 57, 127
1, 93480, Note_on_c, 1, 69, 127
1, 93480, Note_on_c, 1, 49, 127
1, 93509, Note_off_c, 1, 69, 0
1, 93509, Note_off_c, 1, 49, 0
1, 93510, Note_on_c, 1, 67, 127
1, 93510, Note_on_c, 1, 50, 127
1, 93539, Note_off_c, 1, 57, 0
1, 93539, Note_off_c, 1, 67, 0
1, 93539, Note_off_c, 1, 50, 0
1, 93540, Note_on_c, 1, 62, 127
1, 93540, Note_on_c, 1, 66, 127
1, 93540, Note_on_c, 1, 43, 127
1, 93555, Note_off_c, 1, 66, 0
1, 93555, Note_on_c, 1, 67, 127
1, 93569, Note_off_c, 1, 62, 0
1, 93570, Note_off_c, 1, 67, 0
1, 93570, Note_on_c, 1, 64, 127
1, 93570, Note_on_c, 1, 69, 127
1, 93599, Note_off_c, 1, 43, 0
1, 93599, Note_off_c, 1, 64, 0
1, 93599, Note_off_c, 1, 69, 0
1, 93600, Note_on_c, 1, 61, 127
1, 93600, Note_on_c, 1, 64, 127
1, 93600, Note_on_c, 1, 45, 127
1, 93629, Note_off_c, 1, 45, 0
1, 93630, Note_on_c, 1, 43, 127
1, 93659, Note_off_c, 1, 43, 0
1, 93689, Note_off_c, 1, 61, 0
1, 93689, Note_off_c, 1, 64, 0
1, 93690, Note_on_c, 1, 62, 127
1, 93719, Note_off_c, 1, 62, 0
1, 93720, Note_on_c, 1, 62, 127
1, 93720, Note_on_c, 1, 38, 127
1, 93780, Note_on_c, 1, 54, 127
1, 93809, Note_off_c, 1, 54, 0
1, 93810, Note_on_c, 1, 55, 127
1, 93839, Note_off_c, 1, 62, 0
1, 93839, Note_off_c, 1, 38, 0
1, 93839, Note_off_c, 1, 55, 0
1, 93840, Note_on_c, 1, 54, 127
1, 93899, Note_off_c, 1, 54, 0
1, 93900, Note_on_c, 1, 54, 127
1, 93959, Note_off_c, 1, 54, 0
1, 93960, Note_on_c, 1, 62, 127
1, 93960, Note_on_c, 1, 66, 127
1, 93960, Note_on_c, 1, 47, 127
1, 93990, Note_on_c, 1, 61, 127
1, 94019, Note_off_c, 1, 62, 0
1, 94019, Note_off_c, 1, 66, 0
1, 94019, Note_off_c, 1, 47, 0
1, 94019, Note_off_c, 1, 61, 0
1, 94020, Note_on_c, 1, 59, 127
1, 94020, Note_on_c, 1, 62, 127
1, 94020, Note_on_c, 1, 66, 127
1, 94079, Note_off_c, 1, 59, 0
1, 94079, Note_off_c, 1, 62, 0
1, 94079, Note_off_c, 1, 66, 0
1, 94080, Note_on_c, 1, 61, 127
1, 94080, Note_on_c, 1, 64, 127
1, 94080, Note_on_c, 1, 66, 127
1, 94080, Note_on_c, 1, 58, 127
1, 94140, Note_on_c, 1, 54, 127
1, 94169, Note_off_c, 1, 54, 0
1, 94170, Note_on_c, 1, 55, 127
1, 94199, Note_off_c, 1, 61, 0
1, 94199, Note_off_c, 1, 64, 0
1, 94199, Note_off_c, 1, 66, 0
1, 94199, Note_off_c, 1, 58, 0
1, 94199, Note_off_c, 1, 55, 0
1, 94200, Note_on_c, 1, 54, 127
1, 94320, Note_on_c, 1, 64, 127
1, 94320, Note_on_c, 1, 66, 127
1, 94320, Note_on_c, 1, 61, 127
1, 94320, Note_on_c, 1, 58, 127
1, 94350, Note_off_c, 1, 64, 0
1, 94350, Note_off_c, 1, 66, 0
1, 94350, Note_on_c, 1, 62, 127
1, 94350, Note_on_c, 1, 67, 127
1, 94379, Note_off_c, 1, 54, 0
1, 94379, Note_off_c, 1, 61, 0
1, 94379, Note_off_c, 1, 58, 0
1, 94380, Note_off_c, 1, 62, 0
1, 94380, Note_off_c, 1, 67, 0
1, 94440, Note_on_c, 1, 59, 127
1, 94469, Note_off_c, 1, 59, 0
1, 94500, Note_on_c, 1, 71, 127
1, 94559, Note_off_c, 1, 71, 0
1, 94560, Note_on_c, 1, 70, 127
1, 94575, Note_off_c, 1, 70, 0
1, 94575, Note_on_c, 1, 68, 127
1, 94590, Note_off_c, 1, 68, 0
1, 94890, Note_on_c, 1, 57, 127
1, 94920, Note_off_c, 1, 57, 0
1, 94920, Note_on_c, 1, 56, 127
1, 94950, Note_off_c, 1, 56, 0
1, 94980, Note_on_c, 1, 53, 127
1, 95040, Note_on_c, 1, 73, 127
1, 95069, Note_off_c, 1, 73, 0
1, 95070, Note_on_c, 1, 74, 127
1, 95099, Note_off_c, 1, 74, 0
1, 95159, Note_off_c, 1, 53, 0
1, 95220, Note_on_c, 1, 81, 127
1, 95249, Note_off_c, 1, 81, 0
1, 95250, Note_on_c, 1, 80, 127
1, 95279, Note_off_c, 1, 80, 0
1, 95280, Note_on_c, 1, 78, 127
1, 95309, Note_off_c, 1, 78, 0
1, 95550, Note_on_c, 1, 69, 127
1, 95579, Note_off_c, 1, 69, 0
1, 95580, Note_on_c, 1, 83, 127
1, 95609, Note_off_c, 1, 83, 0
1, 95760, Note_on_c, 1, 66, 127
1, 95760, Note_on_c, 1, 85, 127
1, 95760, Note_on_c, 1, 57, 127
1, 95789, Note_off_c, 1, 85, 0
1, 95790, Note_on_c, 1, 86, 127
1, 95819, Note_off_c, 1, 66, 0
1, 95819, Note_off_c, 1, 57, 0
1, 95819, Note_off_c, 1, 86, 0
1, 95820, Note_on_c, 1, 65, 127
1, 95820, Note_on_c, 1, 83, 127
1, 95820, Note_on_c, 1, 61, 127
1, 95849, Note_off_c, 1, 83, 0
1, 95850, Note_on_c, 1, 85, 127
1, 95879, Note_off_c, 1, 65, 0
1, 95879, Note_off_c, 1, 61, 0
1, 95879, Note_off_c, 1, 85, 0
1, 95880, Note_on_c, 1, 66, 127
1, 95880, Note_on_c, 1, 81, 127
1, 95880, Note_on_c, 1, 54, 127
1, 95909, Note_off_c, 1, 81, 0
1, 95910, Note_on_c, 1, 83, 127
1, 95939, Note_off_c, 1, 66, 0
1, 95939, Note_off_c, 1, 54, 0
1, 95939, Note_off_c, 1, 83, 0
1, 95940, Note_on_c, 1, 61, 127
1, 95940, Note_on_c, 1, 85, 127
1, 95940, Note_on_c, 1, 57, 127
1, 95969, Note_off_c, 1, 85, 0
1, 95970, Note_on_c, 1, 86, 127
1, 95999, Note_off_c, 1, 61, 0
1, 95999, Note_off_c, 1, 57, 0
1, 95999, Note_off_c, 1, 86, 0
1, 96000, Note_on_c, 1, 68, 127
1, 96000, Note_on_c, 1, 65, 127
1, 96000, Note_on_c, 1, 83, 127
1, 96000, Note_on_c, 1, 61, 127
1, 96029, Note_off_c, 1, 83, 0
1, 96030, Note_on_c, 1, 85, 127
1, 96059, Note_off_c, 1, 68, 0
1, 96059, Note_off_c, 1, 65, 0
1, 96059, Note_off_c, 1, 61, 0
1, 96059, Note_off_c, 1, 85, 0
1, 96060, Note_on_c, 1, 66, 127
1, 96060, Note_on_c, 1, 69, 127
1, 96060, Note_on_c, 1, 81, 127
1, 96060, Note_on_c, 1, 54, 127
1, 96089, Note_off_c, 1, 81, 0
1, 96089, Note_off_c, 1, 54, 0
1, 96090, Note_on_c, 1, 83, 127
1, 96090, Note_on_c, 1, 56, 127
1, 96119, Note_off_c, 1, 83, 0
1, 96119, Note_off_c, 1, 56, 0
1, 96120, Note_on_c, 1, 85, 127
1, 96120, Note_on_c, 1, 57, 127
1, 96149, Note_off_c, 1, 85, 0
1, 96149, Note_off_c, 1, 57, 0
1, 96240, Note_off_c, 1, 66, 0
1, 96240, Note_on_c, 1, 62, 127
1, 96240, Note_on_c, 1, 74, 127
1, 96240, Note_on_c, 1, 59, 127
1, 96269, Note_off_c, 1, 74, 0
1, 96269, Note_off_c, 1, 59, 0
1, 96270, Note_on_c, 1, 76, 127
1, 96270, Note_on_c, 1, 61, 127
1, 96299, Note_off_c, 1, 76, 0
1, 96299, Note_off_c, 1, 61, 0
1, 96300, Note_on_c, 1, 78, 127
1, 96329, Note_off_c, 1, 78, 0
1, 96419, Note_off_c, 1, 69, 0
1, 96420, Note_on_c, 1, 68, 127
1, 96420, Note_on_c, 1, 80, 127
1, 96420, Note_on_c, 1, 52, 127
1, 96449, Note_off_c, 1, 80, 0
1, 96449, Note_off_c, 1, 52, 0
1, 96599, Note_off_c, 1, 62, 0
1, 96600, Note_on_c, 1, 73, 127
1, 96629, Note_off_c, 1, 73, 0
1, 96779, Note_off_c, 1, 68, 0
1, 96780, Note_on_c, 1, 50, 127
1, 96809, Note_off_c, 1, 50, 0
1, 96960, Note_on_c, 1, 71, 127
1, 96989, Note_off_c, 1, 71, 0
1, 97140, Note_on_c, 1, 65, 127
1, 97140, Note_on_c, 1, 49, 127
1, 97200, Note_off_c, 1, 65, 0
1, 97230, Note_on_c, 1, 64, 127
1, 97259, Note_off_c, 1, 64, 0
1, 97860, Note_off_c, 1, 49, 0
1, 97860, Note_on_c, 1, 53, 127
1, 97919, Note_off_c, 1, 53, 0
1, 97920, Note_on_c, 1, 51, 127
1, 97949, Note_off_c, 1, 51, 0
1, 97950, Note_on_c, 1, 47, 127
1, 97979, Note_off_c, 1, 47, 0
1, 97980, Note_on_c, 1, 49, 127
1, 97980, Note_on_c, 1, 45, 127
1, 98009, Note_off_c, 1, 45, 0
1, 98010, Note_on_c, 1, 44, 127
1, 98039, Note_off_c, 1, 49, 0
1, 98039, Note_off_c, 1, 44, 0
1, 98040, Note_on_c, 1, 49, 127
1, 98040, Note_on_c, 1, 45, 127
1, 98099, Note_off_c, 1, 49, 0
1, 98099, Note_off_c, 1, 45, 0
1, 98100, Note_on_c, 1, 57, 127
1, 98100, Note_on_c, 1, 61, 127
1, 98100, Note_on_c, 1, 73, 127
1, 98100, Note_on_c, 1, 69, 127
1, 98100, Note_on_c, 1, 66, 127
1, 98100, Note_on_c, 1, 42, 127
1, 98129, Note_off_c, 1, 57, 0
1, 98130, Note_on_c, 1, 56, 127
1, 98159, Note_off_c, 1, 61, 0
1, 98159, Note_off_c, 1, 73, 0
1, 98159, Note_off_c, 1, 69, 0
1, 98159, Note_off_c, 1, 66, 0
1, 98159, Note_off_c, 1, 42, 0
1, 98159, Note_off_c, 1, 56, 0
1, 98160, Note_on_c, 1, 54, 127
1, 98160, Note_on_c, 1, 69, 127
1, 98160, Note_on_c, 1, 61, 127
1, 98160, Note_on_c, 1, 66, 127
1, 98160, Note_on_c, 1, 73, 127
1, 98160, Note_on_c, 1, 45, 127
1, 98189, Note_off_c, 1, 54, 0
1, 98190, Note_on_c, 1, 57, 127
1, 98219, Note_off_c, 1, 69, 0
1, 98219, Note_off_c, 1, 61, 0
1, 98219, Note_off_c, 1, 66, 0
1, 98219, Note_off_c, 1, 73, 0
1, 98219, Note_off_c, 1, 45, 0
1, 98219, Note_off_c, 1, 57, 0
1, 98220, Note_on_c, 1, 51, 127
1, 98220, Note_on_c, 1, 69, 127
1, 98220, Note_on_c, 1, 63, 127
1, 98220, Note_on_c, 1, 66, 127
1, 98220, Note_on_c, 1, 73, 127
1, 98220, Note_on_c, 1, 47, 127
1, 98249, Note_off_c, 1, 47, 0
1, 98250, Note_on_c, 1, 49, 127
1, 98279, Note_off_c, 1, 51, 0
1, 98279, Note_off_c, 1, 69, 0
1, 98279, Note_off_c, 1, 63, 0
1, 98279, Note_off_c, 1, 66, 0
1, 98279, Note_off_c, 1, 73, 0
1, 98279, Note_off_c, 1, 49, 0
1, 98280, Note_on_c, 1, 49, 127
1, 98280, Note_on_c, 1, 51, 127
1, 98309, Note_off_c, 1, 49, 0
1, 98309, Note_off_c, 1, 51, 0
1, 98310, Note_on_c, 1, 51, 127
1, 98310, Note_on_c, 1, 52, 127
1, 98339, Note_off_c, 1, 51, 0
1, 98339, Note_off_c, 1, 52, 0
1, 98340, Note_on_c, 1, 47, 127
1, 98340, Note_on_c, 1, 51, 127
1, 98369, Note_off_c, 1, 51, 0
1, 98370, Note_on_c, 1, 49, 127
1, 98399, Note_off_c, 1, 47, 0
1, 98399, Note_off_c, 1, 49, 0
1, 98400, Note_on_c, 1, 47, 127
1, 98459, Note_off_c, 1, 47, 0
1, 98460, Note_on_c, 1, 59, 127
1, 98460, Note_on_c, 1, 68, 127
1, 98460, Note_on_c, 1, 71, 127
1, 98460, Note_on_c, 1, 62, 127
1, 98460, Note_on_c, 1, 66, 127
1, 98460, Note_on_c, 1, 44, 127
1, 98489, Note_off_c, 1, 59, 0
1, 98490, Note_on_c, 1, 57, 127
1, 98519, Note_off_c, 1, 68, 0
1, 98519, Note_off_c, 1, 71, 0
1, 98519, Note_off_c, 1, 62, 0
1, 98519, Note_off_c, 1, 66, 0
1, 98519, Note_off_c, 1, 44, 0
1, 98519, Note_off_c, 1, 57, 0
1, 98520, Note_on_c, 1, 56, 127
1, 98520, Note_on_c, 1, 71, 127
1, 98520, Note_on_c, 1, 62, 127
1, 98520, Note_on_c, 1, 66, 127
1, 98520, Note_on_c, 1, 68, 127
1, 98520, Note_on_c, 1, 47, 127
1, 98549, Note_off_c, 1, 56, 0
1, 98550, Note_on_c, 1, 59, 127
1, 98579, Note_off_c, 1, 71, 0
1, 98579, Note_off_c, 1, 62, 0
1, 98579, Note_off_c, 1, 66, 0
1, 98579, Note_off_c, 1, 68, 0
1, 98579, Note_off_c, 1, 47, 0
1, 98579, Note_off_c, 1, 59, 0
1, 98580, Note_on_c, 1, 53, 127
1, 98580, Note_on_c, 1, 71, 127
1, 98580, Note_on_c, 1, 61, 127
1, 98580, Note_on_c, 1, 68, 127
1, 98580, Note_on_c, 1, 65, 127
1, 98580, Note_on_c, 1, 49, 127
1, 98609, Note_off_c, 1, 53, 0
1, 98609, Note_off_c, 1, 49, 0
1, 98610, Note_on_c, 1, 54, 127
1, 98610, Note_on_c, 1, 51, 127
1, 98639, Note_off_c, 1, 54, 0
1, 98639, Note_off_c, 1, 51, 0
1, 98640, Note_on_c, 1, 56, 127
1, 98669, Note_off_c, 1, 71, 0
1, 98669, Note_off_c, 1, 61, 0
1, 98669, Note_off_c, 1, 68, 0
1, 98669, Note_off_c, 1, 65, 0
1, 98669, Note_off_c, 1, 56, 0
1, 98670, Note_on_c, 1, 53, 127
1, 98670, Note_on_c, 1, 73, 127
1, 98670, Note_on_c, 1, 49, 127
1, 98699, Note_off_c, 1, 53, 0
1, 98699, Note_off_c, 1, 73, 0
1, 98699, Note_off_c, 1, 49, 0
1, 98700, Note_on_c, 1, 54, 127
1, 98700, Note_on_c, 1, 69, 127
1, 98729, Note_off_c, 1, 69, 0
1, 98730, Note_on_c, 1, 53, 127
1, 98730, Note_on_c, 1, 68, 127
1, 98759, Note_off_c, 1, 54, 0
1, 98759, Note_off_c, 1, 53, 0
1, 98759, Note_off_c, 1, 68, 0
1, 98760, Note_on_c, 1, 54, 127
1, 98760, Note_on_c, 1, 69, 127
1, 98760, Note_on_c, 1, 47, 127
1, 98789, Note_off_c, 1, 54, 0
1, 98789, Note_off_c, 1, 69, 0
1, 98790, Note_on_c, 1, 56, 127
1, 98790, Note_on_c, 1, 71, 127
1, 98819, Note_off_c, 1, 47, 0
1, 98819, Note_off_c, 1, 56, 0
1, 98819, Note_off_c, 1, 71, 0
1, 98820, Note_on_c, 1, 53, 127
1, 98820, Note_on_c, 1, 68, 127
1, 98820, Note_on_c, 1, 49, 127
1, 98840, Note_off_c, 1, 68, 0
1, 98840, Note_on_c, 1, 69, 127
1, 98860, Note_off_c, 1, 69, 0
1, 98879, Note_off_c, 1, 49, 0
1, 98880, Note_on_c, 1, 37, 127
1, 98909, Note_off_c, 1, 53, 0
1, 98910, Note_on_c, 1, 54, 127
1, 98910, Note_on_c, 1, 66, 127
1, 98939, Note_off_c, 1, 37, 0
1, 98939, Note_off_c, 1, 54, 0
1, 98939, Note_off_c, 1, 66, 0
1, 98940, Note_on_c, 1, 54, 127
1, 98940, Note_on_c, 1, 66, 127
1, 98940, Note_on_c, 1, 42, 127
1, 98969, Note_off_c, 1, 66, 0
1, 98970, Note_on_c, 1, 73, 127
1, 98999, Note_off_c, 1, 42, 0
1, 98999, Note_off_c, 1, 73, 0
1, 99000, Note_on_c, 1, 69, 127
1, 99029, Note_off_c, 1, 69, 0
1, 99059, Note_off_c, 1, 54, 0
1, 99060, Note_on_c, 1, 78, 127
1, 99089, Note_off_c, 1, 78, 0
1, 99090, Note_on_c, 1, 69, 127
1, 99119, Note_off_c, 1, 69, 0
1, 99120, Note_on_c, 1, 60, 127
1, 99149, Note_off_c, 1, 60, 0
1, 99150, Note_on_c, 1, 63, 127
1, 99179, Note_off_c, 1, 63, 0
1, 99180, Note_on_c, 1, 56, 127
1, 99180, Note_on_c, 1, 68, 127
1, 99209, Note_off_c, 1, 68, 0
1, 99210, Note_on_c, 1, 78, 127
1, 99239, Note_off_c, 1, 56, 0
1, 99239, Note_off_c, 1, 78, 0
1, 99240, Note_on_c, 1, 44, 127
1, 99240, Note_on_c, 1, 76, 127
1, 99269, Note_off_c, 1, 76, 0
1, 99270, Note_on_c, 1, 75, 127
1, 99299, Note_off_c, 1, 44, 0
1, 99299, Note_off_c, 1, 75, 0
1, 99300, Note_on_c, 1, 49, 127
1, 99300, Note_on_c, 1, 76, 127
1, 99300, Note_on_c, 1, 61, 127
1, 99329, Note_off_c, 1, 61, 0
1, 99330, Note_on_c, 1, 64, 127
1, 99359, Note_off_c, 1, 64, 0
1, 99360, Note_on_c, 1, 68, 127
1, 99389, Note_off_c, 1, 76, 0
1, 99389, Note_off_c, 1, 68, 0
1, 99390, Note_on_c, 1, 73, 127
1, 99419, Note_off_c, 1, 49, 0
1, 99419, Note_off_c, 1, 73, 0
1, 99420, Note_on_c, 1, 76, 127
1, 99449, Note_off_c, 1, 76, 0
1, 99450, Note_on_c, 1, 67, 127
1, 99479, Note_off_c, 1, 67, 0
1, 99480, Note_on_c, 1, 58, 127
1, 99509, Note_off_c, 1, 58, 0
1, 99510, Note_on_c, 1, 61, 127
1, 99539, Note_off_c, 1, 61, 0
1, 99540, Note_on_c, 1, 54, 127
1, 99540, Note_on_c, 1, 66, 127
1, 99569, Note_off_c, 1, 66, 0
1, 99570, Note_on_c, 1, 76, 127
1, 99599, Note_off_c, 1, 54, 0
1, 99599, Note_off_c, 1, 76, 0
1, 99600, Note_on_c, 1, 42, 127
1, 99600, Note_on_c, 1, 74, 127
1, 99629, Note_off_c, 1, 74, 0
1, 99630, Note_on_c, 1, 73, 127
1, 99659, Note_off_c, 1, 42, 0
1, 99659, Note_off_c, 1, 73, 0
1, 99660, Note_on_c, 1, 47, 127
1, 99660, Note_on_c, 1, 74, 127
1, 99660, Note_on_c, 1, 59, 127
1, 99689, Note_off_c, 1, 74, 0
1, 99690, Note_on_c, 1, 78, 127
1, 99719, Note_off_c, 1, 78, 0
1, 99720, Note_off_c, 1, 59, 0
1, 99750, Note_on_c, 1, 71, 127
1, 99779, Note_off_c, 1, 47, 0
1, 99779, Note_off_c, 1, 71, 0
1, 99780, Note_on_c, 1, 83, 127
1, 99809, Note_off_c, 1, 83, 0
1, 99810, Note_on_c, 1, 74, 127
1, 99839, Note_off_c, 1, 74, 0
1, 99840, Note_on_c, 1, 65, 127
1, 99869, Note_off_c, 1, 65, 0
1, 99870, Note_on_c, 1, 68, 127
1, 99899, Note_off_c, 1, 68, 0
1, 99900, Note_on_c, 1, 61, 127
1, 99900, Note_on_c, 1, 73, 127
1, 99929, Note_off_c, 1, 73, 0
1, 99930, Note_on_c, 1, 83, 127
1, 99959, Note_off_c, 1, 61, 0
1, 99959, Note_off_c, 1, 83, 0
1, 99960, Note_on_c, 1, 49, 127
1, 99960, Note_on_c, 1, 81, 127
1, 99989, Note_off_c, 1, 81, 0
1, 99990, Note_on_c, 1, 80, 127
1, 100019, Note_off_c, 1, 49, 0
1, 100019, Note_off_c, 1, 80, 0
1, 100020, Note_on_c, 1, 54, 127
1, 100020, Note_on_c, 1, 66, 127
1, 100020, Note_on_c, 1, 81, 127
1, 100049, Note_off_c, 1, 66, 0
1, 100050, Note_on_c, 1, 69, 127
1, 100079, Note_off_c, 1, 69, 0
1, 100080, Note_on_c, 1, 73, 127
1, 100109, Note_off_c, 1, 81, 0
1, 100109, Note_off_c, 1, 73, 0
1, 100110, Note_on_c, 1, 78, 127
1, 100139, Note_off_c, 1, 54, 0
1, 100139, Note_off_c, 1, 78, 0
1, 100140, Note_on_c, 1, 81, 127
1, 100169, Note_off_c, 1, 81, 0
1, 100170, Note_on_c, 1, 72, 127
1, 100199, Note_off_c, 1, 72, 0
1, 100200, Note_on_c, 1, 63, 127
1, 100229, Note_off_c, 1, 63, 0
1, 100230, Note_on_c, 1, 66, 127
1, 100259, Note_off_c, 1, 66, 0
1, 100260, Note_on_c, 1, 59, 127
1, 100260, Note_on_c, 1, 71, 127
1, 100289, Note_off_c, 1, 71, 0
1, 100290, Note_on_c, 1, 81, 127
1, 100319, Note_off_c, 1, 59, 0
1, 100319, Note_off_c, 1, 81, 0
1, 100320, Note_on_c, 1, 47, 127
1, 100320, Note_on_c, 1, 79, 127
1, 100349, Note_off_c, 1, 79, 0
1, 100350, Note_on_c, 1, 78, 127
1, 100379, Note_off_c, 1, 47, 0
1, 100379, Note_off_c, 1, 78, 0
1, 100380, Note_on_c, 1, 52, 127
1, 100380, Note_on_c, 1, 79, 127
1, 100380, Note_on_c, 1, 64, 127
1, 100409, Note_off_c, 1, 79, 0
1, 100410, Note_on_c, 1, 75, 127
1, 100439, Note_off_c, 1, 75, 0
1, 100440, Note_off_c, 1, 64, 0
1, 100440, Note_on_c, 1, 76, 127
1, 100469, Note_off_c, 1, 76, 0
1, 100499, Note_off_c, 1, 52, 0
1, 100500, Note_on_c, 1, 72, 127
1, 100529, Note_off_c, 1, 72, 0
1, 100530, Note_on_c, 1, 71, 127
1, 100559, Note_off_c, 1, 71, 0
1, 100560, Note_on_c, 1, 70, 127
1, 100560, Note_on_c, 1, 61, 127
1, 100590, Note_on_c, 1, 73, 127
1, 100619, Note_off_c, 1, 73, 0
1, 100620, Note_off_c, 1, 70, 0
1, 100620, Note_off_c, 1, 61, 0
1, 100620, Note_on_c, 1, 49, 127
1, 100620, Note_on_c, 1, 76, 127
1, 100649, Note_off_c, 1, 76, 0
1, 100650, Note_on_c, 1, 79, 127
1, 100679, Note_off_c, 1, 49, 0
1, 100679, Note_off_c, 1, 79, 0
1, 100680, Note_on_c, 1, 61, 127
1, 100680, Note_on_c, 1, 78, 127
1, 100709, Note_off_c, 1, 78, 0
1, 100710, Note_on_c, 1, 76, 127
1, 100739, Note_off_c, 1, 61, 0
1, 100739, Note_off_c, 1, 76, 0
1, 100740, Note_on_c, 1, 62, 127
1, 100740, Note_on_c, 1, 78, 127
1, 100769, Note_off_c, 1, 78, 0
1, 100770, Note_on_c, 1, 73, 127
1, 100799, Note_off_c, 1, 73, 0
1, 100800, Note_on_c, 1, 74, 127
1, 100829, Note_off_c, 1, 74, 0
1, 100859, Note_off_c, 1, 62, 0
1, 100860, Note_on_c, 1, 71, 127
1, 100889, Note_off_c, 1, 71, 0
1, 100890, Note_on_c, 1, 69, 127
1, 100919, Note_off_c, 1, 69, 0
1, 100920, Note_on_c, 1, 68, 127
1, 100920, Note_on_c, 1, 59, 127
1, 100950, Note_on_c, 1, 71, 127
1, 100979, Note_off_c, 1, 71, 0
1, 100980, Note_off_c, 1, 68, 0
1, 100980, Note_off_c, 1, 59, 0
1, 100980, Note_on_c, 1, 47, 127
1, 100980, Note_on_c, 1, 74, 127
1, 101009, Note_off_c, 1, 74, 0
1, 101010, Note_on_c, 1, 77, 127
1, 101039, Note_off_c, 1, 47, 0
1, 101039, Note_off_c, 1, 77, 0
1, 101040, Note_on_c, 1, 59, 127
1, 101040, Note_on_c, 1, 76, 127
1, 101069, Note_off_c, 1, 76, 0
1, 101070, Note_on_c, 1, 74, 127
1, 101099, Note_off_c, 1, 59, 0
1, 101099, Note_off_c, 1, 74, 0
1, 101100, Note_on_c, 1, 60, 127
1, 101100, Note_on_c, 1, 76, 127
1, 101129, Note_off_c, 1, 76, 0
1, 101130, Note_on_c, 1, 71, 127
1, 101159, Note_off_c, 1, 71, 0
1, 101160, Note_on_c, 1, 72, 127
1, 101189, Note_off_c, 1, 72, 0
1, 101219, Note_off_c, 1, 60, 0
1, 101220, Note_on_c, 1, 69, 127
1, 101249, Note_off_c, 1, 69, 0
1, 101250, Note_on_c, 1, 67, 127
1, 101279, Note_off_c, 1, 67, 0
1, 101280, Note_on_c, 1, 66, 127
1, 101280, Note_on_c, 1, 58, 127
1, 101310, Note_on_c, 1, 70, 127
1, 101339, Note_off_c, 1, 70, 0
1, 101340, Note_off_c, 1, 66, 0
1, 101340, Note_off_c, 1, 58, 0
1, 101340, Note_on_c, 1, 46, 127
1, 101340, Note_on_c, 1, 73, 127
1, 101369, Note_off_c, 1, 73, 0
1, 101370, Note_on_c, 1, 76, 127
1, 101399, Note_off_c, 1, 46, 0
1, 101399, Note_off_c, 1, 76, 0
1, 101400, Note_on_c, 1, 58, 127
1, 101400, Note_on_c, 1, 75, 127
1, 101429, Note_off_c, 1, 75, 0
1, 101430, Note_on_c, 1, 73, 127
1, 101459, Note_off_c, 1, 58, 0
1, 101459, Note_off_c, 1, 73, 0
1, 101460, Note_on_c, 1, 59, 127
1, 101460, Note_on_c, 1, 75, 127
1, 101489, Note_off_c, 1, 75, 0
1, 101490, Note_on_c, 1, 78, 127
1, 101519, Note_off_c, 1, 78, 0
1, 101520, Note_on_c, 1, 71, 127
1, 101549, Note_off_c, 1, 71, 0
1, 101550, Note_on_c, 1, 69, 127
1, 101579, Note_off_c, 1, 59, 0
1, 101579, Note_off_c, 1, 69, 0
1, 101580, Note_on_c, 1, 67, 127
1, 101609, Note_off_c, 1, 67, 0
1, 101610, Note_on_c, 1, 66, 127
1, 101639, Note_off_c, 1, 66, 0
1, 101640, Note_on_c, 1, 67, 127
1, 101670, Note_on_c, 1, 71, 127
1, 101699, Note_off_c, 1, 71, 0
1, 101700, Note_off_c, 1, 67, 0
1, 101700, Note_on_c, 1, 59, 127
1, 101700, Note_on_c, 1, 76, 127
1, 101729, Note_off_c, 1, 76, 0
1, 101730, Note_on_c, 1, 78, 127
1, 101759, Note_off_c, 1, 59, 0
1, 101759, Note_off_c, 1, 78, 0
1, 101760, Note_on_c, 1, 47, 127
1, 101760, Note_on_c, 1, 79, 127
1, 101789, Note_off_c, 1, 79, 0
1, 101790, Note_on_c, 1, 76, 127
1, 101819, Note_off_c, 1, 47, 0
1, 101819, Note_off_c, 1, 76, 0
1, 101820, Note_on_c, 1, 35, 127
1, 101820, Note_on_c, 1, 81, 127
1, 101820, Note_on_c, 1, 66, 127
1, 101820, Note_on_c, 1, 63, 127
1, 101820, Note_on_c, 1, 59, 127
1, 101849, Note_off_c, 1, 81, 0
1, 101850, Note_on_c, 1, 78, 127
1, 101879, Note_off_c, 1, 78, 0
1, 101880, Note_off_c, 1, 66, 0
1, 101880, Note_off_c, 1, 63, 0
1, 101880, Note_off_c, 1, 59, 0
1, 101880, Note_on_c, 1, 75, 127
1, 101909, Note_off_c, 1, 75, 0
1, 101910, Note_on_c, 1, 72, 127
1, 101939, Note_off_c, 1, 35, 0
1, 101939, Note_off_c, 1, 72, 0
1, 101940, Note_on_c, 1, 71, 127
1, 101969, Note_off_c, 1, 71, 0
1, 101970, Note_on_c, 1, 69, 127
1, 101999, Note_off_c, 1, 69, 0
1, 102000, Note_on_c, 1, 83, 127
1, 102000, Note_on_c, 1, 68, 127
1, 102000, Note_on_c, 1, 62, 127
1, 102029, Note_off_c, 1, 83, 0
1, 102030, Note_on_c, 1, 80, 127
1, 102059, Note_off_c, 1, 80, 0
1, 102060, Note_off_c, 1, 68, 0
1, 102060, Note_off_c, 1, 62, 0
1, 102060, Note_on_c, 1, 64, 127
1, 102060, Note_on_c, 1, 76, 127
1, 102089, Note_off_c, 1, 76, 0
1, 102090, Note_on_c, 1, 74, 127
1, 102119, Note_off_c, 1, 64, 0
1, 102119, Note_off_c, 1, 74, 0
1, 102120, Note_on_c, 1, 52, 127
1, 102120, Note_on_c, 1, 72, 127
1, 102149, Note_off_c, 1, 72, 0
1, 102150, Note_on_c, 1, 71, 127
1, 102179, Note_off_c, 1, 52, 0
1, 102179, Note_off_c, 1, 71, 0
1, 102180, Note_on_c, 1, 40, 127
1, 102180, Note_on_c, 1, 69, 127
1, 102180, Note_on_c, 1, 63, 127
1, 102210, Note_on_c, 1, 84, 127
1, 102239, Note_off_c, 1, 84, 0
1, 102240, Note_off_c, 1, 69, 0
1, 102240, Note_off_c, 1, 63, 0
1, 102240, Note_on_c, 1, 83, 127
1, 102269, Note_off_c, 1, 83, 0
1, 102270, Note_on_c, 1, 81, 127
1, 102299, Note_off_c, 1, 40, 0
1, 102299, Note_off_c, 1, 81, 0
1, 102300, Note_on_c, 1, 80, 127
1, 102329, Note_off_c, 1, 80, 0
1, 102330, Note_on_c, 1, 81, 127
1, 102359, Note_off_c, 1, 81, 0
1, 102360, Note_on_c, 1, 64, 127
1, 102360, Note_on_c, 1, 80, 127
1, 102390, Note_on_c, 1, 76, 127
1, 102419, Note_off_c, 1, 76, 0
1, 102420, Note_off_c, 1, 80, 0
1, 102420, Note_on_c, 1, 77, 127
1, 102449, Note_off_c, 1, 77, 0
1, 102450, Note_on_c, 1, 74, 127
1, 102479, Note_off_c, 1, 64, 0
1, 102479, Note_off_c, 1, 74, 0
1, 102480, Note_on_c, 1, 52, 127
1, 102480, Note_on_c, 1, 72, 127
1, 102509, Note_off_c, 1, 72, 0
1, 102510, Note_on_c, 1, 71, 127
1, 102539, Note_off_c, 1, 52, 0
1, 102539, Note_off_c, 1, 71, 0
1, 102540, Note_on_c, 1, 40, 127
1, 102540, Note_on_c, 1, 72, 127
1, 102540, Note_on_c, 1, 64, 127
1, 102570, Note_on_c, 1, 76, 127
1, 102599, Note_off_c, 1, 76, 0
1, 102600, Note_off_c, 1, 72, 0
1, 102600, Note_off_c, 1, 64, 0
1, 102600, Note_on_c, 1, 81, 127
1, 102629, Note_off_c, 1, 81, 0
1, 102630, Note_on_c, 1, 83, 127
1, 102659, Note_off_c, 1, 40, 0
1, 102659, Note_off_c, 1, 83, 0
1, 102660, Note_on_c, 1, 84, 127
1, 102689, Note_off_c, 1, 84, 0
1, 102690, Note_on_c, 1, 81, 127
1, 102719, Note_off_c, 1, 81, 0
1, 102720, Note_on_c, 1, 86, 127
1, 102720, Note_on_c, 1, 71, 127
1, 102720, Note_on_c, 1, 68, 127
1, 102720, Note_on_c, 1, 64, 127
1, 102749, Note_off_c, 1, 86, 0
1, 102750, Note_on_c, 1, 83, 127
1, 102779, Note_off_c, 1, 83, 0
1, 102780, Note_off_c, 1, 71, 0
1, 102780, Note_off_c, 1, 68, 0
1, 102780, Note_on_c, 1, 80, 127
1, 102809, Note_off_c, 1, 80, 0
1, 102810, Note_on_c, 1, 77, 127
1, 102839, Note_off_c, 1, 64, 0
1, 102839, Note_off_c, 1, 77, 0
1, 102840, Note_on_c, 1, 52, 127
1, 102840, Note_on_c, 1, 76, 127
1, 102869, Note_off_c, 1, 76, 0
1, 102870, Note_on_c, 1, 74, 127
1, 102899, Note_off_c, 1, 52, 0
1, 102899, Note_off_c, 1, 74, 0
1, 102900, Note_on_c, 1, 40, 127
1, 102900, Note_on_c, 1, 72, 127
1, 102900, Note_on_c, 1, 64, 127
1, 102930, Note_on_c, 1, 74, 127
1, 102959, Note_off_c, 1, 40, 0
1, 102959, Note_off_c, 1, 74, 0
1, 102960, Note_off_c, 1, 72, 0
1, 102960, Note_on_c, 1, 76, 127
1, 102989, Note_off_c, 1, 76, 0
1, 102990, Note_on_c, 1, 78, 127
1, 103019, Note_off_c, 1, 64, 0
1, 103019, Note_off_c, 1, 78, 0
1, 103020, Note_on_c, 1, 52, 127
1, 103020, Note_on_c, 1, 80, 127
1, 103049, Note_off_c, 1, 80, 0
1, 103050, Note_on_c, 1, 81, 127
1, 103079, Note_off_c, 1, 52, 0
1, 103079, Note_off_c, 1, 81, 0
1, 103080, Note_on_c, 1, 44, 127
1, 103080, Note_on_c, 1, 74, 127
1, 103109, Note_off_c, 1, 74, 0
1, 103110, Note_on_c, 1, 76, 127
1, 103139, Note_off_c, 1, 44, 0
1, 103139, Note_off_c, 1, 76, 0
1, 103140, Note_on_c, 1, 56, 127
1, 103140, Note_on_c, 1, 77, 127
1, 103169, Note_off_c, 1, 77, 0
1, 103170, Note_on_c, 1, 72, 127
1, 103199, Note_off_c, 1, 56, 0
1, 103199, Note_off_c, 1, 72, 0
1, 103200, Note_on_c, 1, 44, 127
1, 103200, Note_on_c, 1, 71, 127
1, 103229, Note_off_c, 1, 71, 0
1, 103230, Note_on_c, 1, 69, 127
1, 103259, Note_off_c, 1, 44, 0
1, 103259, Note_off_c, 1, 69, 0
1, 103260, Note_on_c, 1, 36, 127
1, 103260, Note_on_c, 1, 68, 127
1, 103260, Note_on_c, 1, 64, 127
1, 103290, Note_on_c, 1, 77, 127
1, 103319, Note_off_c, 1, 36, 0
1, 103319, Note_off_c, 1, 77, 0
1, 103320, Note_off_c, 1, 68, 0
1, 103320, Note_off_c, 1, 64, 0
1, 103320, Note_on_c, 1, 48, 127
1, 103320, Note_on_c, 1, 76, 127
1, 103349, Note_off_c, 1, 76, 0
1, 103350, Note_on_c, 1, 74, 127
1, 103379, Note_off_c, 1, 48, 0
1, 103379, Note_off_c, 1, 74, 0
1, 103380, Note_on_c, 1, 53, 127
1, 103380, Note_on_c, 1, 72, 127
1, 103409, Note_off_c, 1, 72, 0
1, 103410, Note_on_c, 1, 71, 127
1, 103439, Note_off_c, 1, 53, 0
1, 103439, Note_off_c, 1, 71, 0
1, 103440, Note_on_c, 1, 51, 127
1, 103440, Note_on_c, 1, 72, 127
1, 103440, Note_on_c, 1, 69, 127
1, 103440, Note_on_c, 1, 66, 127
1, 103440, Note_on_c, 1, 63, 127
1, 103469, Note_off_c, 1, 72, 0
1, 103470, Note_on_c, 1, 81, 127
1, 103499, Note_off_c, 1, 51, 0
1, 103499, Note_off_c, 1, 63, 0
1, 103499, Note_off_c, 1, 81, 0
1, 103500, Note_off_c, 1, 69, 0
1, 103500, Note_off_c, 1, 66, 0
1, 103500, Note_on_c, 1, 52, 127
1, 103500, Note_on_c, 1, 71, 127
1, 103500, Note_on_c, 1, 64, 127
1, 103529, Note_off_c, 1, 71, 0
1, 103559, Note_off_c, 1, 52, 0
1, 103559, Note_off_c, 1, 64, 0
1, 103560, Note_on_c, 1, 40, 127
1, 103560, Note_on_c, 1, 74, 127
1, 103560, Note_on_c, 1, 52, 127
1, 103589, Note_off_c, 1, 74, 0
1, 103590, Note_on_c, 1, 80, 127
1, 103619, Note_off_c, 1, 40, 0
1, 103619, Note_off_c, 1, 52, 0
1, 103619, Note_off_c, 1, 80, 0
1, 103620, Note_on_c, 1, 45, 127
1, 103620, Note_on_c, 1, 81, 127
1, 103620, Note_on_c, 1, 73, 127
1, 103620, Note_on_c, 1, 57, 127
1, 103649, Note_off_c, 1, 81, 0
1, 103650, Note_on_c, 1, 76, 127
1, 103679, Note_off_c, 1, 45, 0
1, 103679, Note_off_c, 1, 57, 0
1, 103679, Note_off_c, 1, 76, 0
1, 103680, Note_off_c, 1, 73, 0
1, 103680, Note_on_c, 1, 52, 127
1, 103680, Note_on_c, 1, 69, 127
1, 103680, Note_on_c, 1, 49, 127
1, 103709, Note_off_c, 1, 52, 0
1, 103710, Note_on_c, 1, 54, 127
1, 103739, Note_off_c, 1, 69, 0
1, 103739, Note_off_c, 1, 49, 0
1, 103739, Note_off_c, 1, 54, 0
1, 103740, Note_on_c, 1, 52, 127
1, 103740, Note_on_c, 1, 73, 127
1, 103755, Note_off_c, 1, 73, 0
1, 103755, Note_on_c, 1, 71, 127
1, 103770, Note_off_c, 1, 71, 0
1, 103770, Note_on_c, 1, 69, 127
1, 103785, Note_off_c, 1, 69, 0
1, 103800, Note_on_c, 1, 45, 127
1, 103859, Note_off_c, 1, 45, 0
1, 103860, Note_off_c, 1, 52, 0
1, 103860, Note_on_c, 1, 61, 127
1, 103860, Note_on_c, 1, 57, 127
1, 103889, Note_off_c, 1, 61, 0
1, 103889, Note_off_c, 1, 57, 0
1, 103890, Note_on_c, 1, 59, 127
1, 103890, Note_on_c, 1, 56, 127
1, 103919, Note_off_c, 1, 59, 0
1, 103919, Note_off_c, 1, 56, 0
1, 103920, Note_on_c, 1, 57, 127
1, 103920, Note_on_c, 1, 54, 127
1, 103949, Note_off_c, 1, 57, 0
1, 103949, Note_off_c, 1, 54, 0
1, 103950, Note_on_c, 1, 61, 127
1, 103950, Note_on_c, 1, 57, 127
1, 103979, Note_off_c, 1, 61, 0
1, 103979, Note_off_c, 1, 57, 0
1, 103980, Note_on_c, 1, 59, 127
1, 103980, Note_on_c, 1, 64, 127
1, 103980, Note_on_c, 1, 56, 127
1, 104009, Note_off_c, 1, 64, 0
1, 104009, Note_off_c, 1, 56, 0
1, 104010, Note_on_c, 1, 66, 127
1, 104010, Note_on_c, 1, 57, 127
1, 104039, Note_off_c, 1, 59, 0
1, 104039, Note_off_c, 1, 66, 0
1, 104039, Note_off_c, 1, 57, 0
1, 104040, Note_on_c, 1, 52, 127
1, 104040, Note_on_c, 1, 68, 127
1, 104040, Note_on_c, 1, 59, 127
1, 104069, Note_off_c, 1, 52, 0
1, 104069, Note_off_c, 1, 68, 0
1, 104069, Note_off_c, 1, 59, 0
1, 104070, Note_on_c, 1, 54, 127
1, 104070, Note_on_c, 1, 69, 127
1, 104070, Note_on_c, 1, 57, 127
1, 104099, Note_off_c, 1, 54, 0
1, 104099, Note_off_c, 1, 69, 0
1, 104099, Note_off_c, 1, 57, 0
1, 104100, Note_on_c, 1, 52, 127
1, 104100, Note_on_c, 1, 71, 127
1, 104100, Note_on_c, 1, 56, 127
1, 104129, Note_off_c, 1, 71, 0
1, 104129, Note_off_c, 1, 56, 0
1, 104130, Note_on_c, 1, 73, 127
1, 104130, Note_on_c, 1, 54, 127
1, 104159, Note_off_c, 1, 52, 0
1, 104159, Note_off_c, 1, 73, 0
1, 104159, Note_off_c, 1, 54, 0
1, 104160, Note_on_c, 1, 52, 127
1, 104160, Note_on_c, 1, 74, 127
1, 104189, Note_off_c, 1, 74, 0
1, 104190, Note_on_c, 1, 76, 127
1, 104219, Note_off_c, 1, 76, 0
1, 104220, Note_on_c, 1, 62, 127
1, 104220, Note_on_c, 1, 78, 127
1, 104249, Note_off_c, 1, 62, 0
1, 104249, Note_off_c, 1, 78, 0
1, 104250, Note_on_c, 1, 61, 127
1, 104250, Note_on_c, 1, 81, 127
1, 104279, Note_off_c, 1, 52, 0
1, 104279, Note_off_c, 1, 61, 0
1, 104279, Note_off_c, 1, 81, 0
1, 104280, Note_on_c, 1, 59, 127
1, 104280, Note_on_c, 1, 80, 127
1, 104280, Note_on_c, 1, 40, 127
1, 104309, Note_off_c, 1, 59, 0
1, 104309, Note_off_c, 1, 80, 0
1, 104310, Note_on_c, 1, 62, 127
1, 104310, Note_on_c, 1, 83, 127
1, 104339, Note_off_c, 1, 62, 0
1, 104339, Note_off_c, 1, 83, 0
1, 104340, Note_off_c, 1, 40, 0
1, 104340, Note_on_c, 1, 61, 127
1, 104340, Note_on_c, 1, 81, 127
1, 104340, Note_on_c, 1, 73, 127
1, 104340, Note_on_c, 1, 45, 127
1, 104369, Note_off_c, 1, 61, 0
1, 104370, Note_on_c, 1, 64, 127
1, 104399, Note_off_c, 1, 81, 0
1, 104399, Note_off_c, 1, 73, 0
1, 104399, Note_off_c, 1, 64, 0
1, 104400, Note_on_c, 1, 69, 127
1, 104430, Note_on_c, 1, 57, 127
1, 104459, Note_off_c, 1, 45, 0
1, 104459, Note_off_c, 1, 69, 0
1, 104459, Note_off_c, 1, 57, 0
1, 104460, Note_on_c, 1, 55, 127
1, 104460, Note_on_c, 1, 73, 127
1, 104489, Note_off_c, 1, 55, 0
1, 104490, Note_on_c, 1, 54, 127
1, 104519, Note_off_c, 1, 73, 0
1, 104519, Note_off_c, 1, 54, 0
1, 104520, Note_on_c, 1, 55, 127
1, 104520, Note_on_c, 1, 76, 127
1, 104549, Note_off_c, 1, 55, 0
1, 104550, Note_on_c, 1, 64, 127
1, 104579, Note_off_c, 1, 76, 0
1, 104579, Note_off_c, 1, 64, 0
1, 104580, Note_on_c, 1, 61, 127
1, 104580, Note_on_c, 1, 79, 127
1, 104609, Note_off_c, 1, 61, 0
1, 104610, Note_on_c, 1, 57, 127
1, 104639, Note_off_c, 1, 79, 0
1, 104639, Note_off_c, 1, 57, 0
1, 104640, Note_on_c, 1, 55, 127
1, 104640, Note_on_c, 1, 76, 127
1, 104669, Note_off_c, 1, 55, 0
1, 104670, Note_on_c, 1, 54, 127
1, 104699, Note_off_c, 1, 76, 0
1, 104699, Note_off_c, 1, 54, 0
1, 104700, Note_on_c, 1, 55, 127
1, 104700, Note_on_c, 1, 73, 127
1, 104729, Note_off_c, 1, 55, 0
1, 104730, Note_on_c, 1, 57, 127
1, 104759, Note_off_c, 1, 73, 0
1, 104759, Note_off_c, 1, 57, 0
1, 104760, Note_on_c, 1, 57, 127
1, 104760, Note_on_c, 1, 69, 127
1, 104789, Note_off_c, 1, 57, 0
1, 104790, Note_on_c, 1, 61, 127
1, 104819, Note_off_c, 1, 69, 0
1, 104819, Note_off_c, 1, 61, 0
1, 104820, Note_on_c, 1, 61, 127
1, 104820, Note_on_c, 1, 64, 127
1, 104849, Note_off_c, 1, 61, 0
1, 104879, Note_off_c, 1, 64, 0
1, 104880, Note_on_c, 1, 64, 127
1, 104880, Note_on_c, 1, 61, 127
1, 104909, Note_off_c, 1, 64, 0
1, 104910, Note_on_c, 1, 67, 127
1, 104924, Note_off_c, 1, 67, 0
1, 104925, Note_on_c, 1, 66, 127
1, 104939, Note_off_c, 1, 61, 0
1, 104939, Note_off_c, 1, 66, 0
1, 104940, Note_on_c, 1, 67, 127
1, 104940, Note_on_c, 1, 57, 127
1, 104969, Note_off_c, 1, 67, 0
1, 104970, Note_on_c, 1, 64, 127
1, 104999, Note_off_c, 1, 57, 0
1, 104999, Note_off_c, 1, 64, 0
1, 105000, Note_on_c, 1, 61, 127
1, 105000, Note_on_c, 1, 67, 127
1, 105000, Note_on_c, 1, 76, 127
1, 105000, Note_on_c, 1, 73, 127
1, 105000, Note_on_c, 1, 69, 127
1, 105000, Note_on_c, 1, 45, 127
1, 105029, Note_off_c, 1, 61, 0
1, 105030, Note_on_c, 1, 57, 127
1, 105059, Note_off_c, 1, 67, 0
1, 105059, Note_off_c, 1, 76, 0
1, 105059, Note_off_c, 1, 73, 0
1, 105059, Note_off_c, 1, 69, 0
1, 105059, Note_off_c, 1, 57, 0
1, 105060, Note_off_c, 1, 45, 0
1, 105060, Note_on_c, 1, 66, 127
1, 105060, Note_on_c, 1, 50, 127
1, 105119, Note_off_c, 1, 66, 0
1, 105120, Note_off_c, 1, 50, 0
1, 105120, Note_on_c, 1, 74, 127
1, 105150, Note_on_c, 1, 62, 127
1, 105179, Note_off_c, 1, 74, 0
1, 105179, Note_off_c, 1, 62, 0
1, 105180, Note_on_c, 1, 60, 127
1, 105180, Note_on_c, 1, 78, 127
1, 105209, Note_off_c, 1, 60, 0
1, 105210, Note_on_c, 1, 59, 127
1, 105239, Note_off_c, 1, 78, 0
1, 105239, Note_off_c, 1, 59, 0
1, 105240, Note_on_c, 1, 60, 127
1, 105240, Note_on_c, 1, 81, 127
1, 105269, Note_off_c, 1, 60, 0
1, 105270, Note_on_c, 1, 69, 127
1, 105299, Note_off_c, 1, 81, 0
1, 105299, Note_off_c, 1, 69, 0
1, 105300, Note_on_c, 1, 66, 127
1, 105300, Note_on_c, 1, 84, 127
1, 105329, Note_off_c, 1, 66, 0
1, 105330, Note_on_c, 1, 62, 127
1, 105359, Note_off_c, 1, 84, 0
1, 105359, Note_off_c, 1, 62, 0
1, 105360, Note_on_c, 1, 60, 127
1, 105360, Note_on_c, 1, 81, 127
1, 105389, Note_off_c, 1, 60, 0
1, 105390, Note_on_c, 1, 59, 127
1, 105419, Note_off_c, 1, 81, 0
1, 105419, Note_off_c, 1, 59, 0
1, 105420, Note_on_c, 1, 60, 127
1, 105420, Note_on_c, 1, 78, 127
1, 105449, Note_off_c, 1, 60, 0
1, 105450, Note_on_c, 1, 62, 127
1, 105479, Note_off_c, 1, 78, 0
1, 105479, Note_off_c, 1, 62, 0
1, 105480, Note_on_c, 1, 62, 127
1, 105480, Note_on_c, 1, 74, 127
1, 105509, Note_off_c, 1, 62, 0
1, 105510, Note_on_c, 1, 66, 127
1, 105539, Note_off_c, 1, 74, 0
1, 105539, Note_off_c, 1, 66, 0
1, 105540, Note_on_c, 1, 66, 127
1, 105540, Note_on_c, 1, 69, 127
1, 105569, Note_off_c, 1, 66, 0
1, 105599, Note_off_c, 1, 69, 0
1, 105600, Note_on_c, 1, 69, 127
1, 105600, Note_on_c, 1, 66, 127
1, 105629, Note_off_c, 1, 69, 0
1, 105630, Note_on_c, 1, 72, 127
1, 105644, Note_off_c, 1, 72, 0
1, 105645, Note_on_c, 1, 71, 127
1, 105659, Note_off_c, 1, 66, 0
1, 105659, Note_off_c, 1, 71, 0
1, 105660, Note_on_c, 1, 72, 127
1, 105660, Note_on_c, 1, 62, 127
1, 105689, Note_off_c, 1, 72, 0
1, 105690, Note_on_c, 1, 69, 127
1, 105719, Note_off_c, 1, 62, 0
1, 105719, Note_off_c, 1, 69, 0
1, 105720, Note_on_c, 1, 66, 127
1, 105720, Note_on_c, 1, 74, 127
1, 105720, Note_on_c, 1, 81, 127
1, 105720, Note_on_c, 1, 78, 127
1, 105720, Note_on_c, 1, 72, 127
1, 105720, Note_on_c, 1, 50, 127
1, 105749, Note_off_c, 1, 66, 0
1, 105750, Note_on_c, 1, 62, 127
1, 105779, Note_off_c, 1, 74, 0
1, 105779, Note_off_c, 1, 81, 0
1, 105779, Note_off_c, 1, 78, 0
1, 105779, Note_off_c, 1, 72, 0
1, 105779, Note_off_c, 1, 62, 0
1, 105780, Note_off_c, 1, 50, 0
1, 105780, Note_on_c, 1, 71, 127
1, 105780, Note_on_c, 1, 51, 127
1, 105780, Note_on_c, 1, 59, 127
1, 105780, Note_on_c, 1, 54, 127
1, 105809, Note_off_c, 1, 71, 0
1, 105840, Note_off_c, 1, 51, 0
1, 105840, Note_off_c, 1, 59, 0
1, 105840, Note_off_c, 1, 54, 0
1, 105840, Note_on_c, 1, 63, 127
1, 105869, Note_off_c, 1, 63, 0
1, 105900, Note_on_c, 1, 57, 127
1, 105900, Note_on_c, 1, 75, 127
1, 105929, Note_off_c, 1, 57, 0
1, 105930, Note_on_c, 1, 55, 127
1, 105959, Note_off_c, 1, 75, 0
1, 105959, Note_off_c, 1, 55, 0
1, 105960, Note_on_c, 1, 57, 127
1, 105960, Note_on_c, 1, 78, 127
1, 105989, Note_off_c, 1, 57, 0
1, 105990, Note_on_c, 1, 66, 127
1, 106019, Note_off_c, 1, 78, 0
1, 106019, Note_off_c, 1, 66, 0
1, 106020, Note_on_c, 1, 63, 127
1, 106020, Note_on_c, 1, 81, 127
1, 106049, Note_off_c, 1, 63, 0
1, 106050, Note_on_c, 1, 59, 127
1, 106079, Note_off_c, 1, 81, 0
1, 106079, Note_off_c, 1, 59, 0
1, 106080, Note_on_c, 1, 57, 127
1, 106080, Note_on_c, 1, 78, 127
1, 106109, Note_off_c, 1, 57, 0
1, 106110, Note_on_c, 1, 55, 127
1, 106139, Note_off_c, 1, 78, 0
1, 106139, Note_off_c, 1, 55, 0
1, 106140, Note_on_c, 1, 57, 127
1, 106140, Note_on_c, 1, 75, 127
1, 106169, Note_off_c, 1, 57, 0
1, 106170, Note_on_c, 1, 59, 127
1, 106199, Note_off_c, 1, 75, 0
1, 106199, Note_off_c, 1, 59, 0
1, 106200, Note_on_c, 1, 59, 127
1, 106200, Note_on_c, 1, 71, 127
1, 106229, Note_off_c, 1, 59, 0
1, 106230, Note_on_c, 1, 63, 127
1, 106259, Note_off_c, 1, 71, 0
1, 106259, Note_off_c, 1, 63, 0
1, 106260, Note_on_c, 1, 63, 127
1, 106260, Note_on_c, 1, 66, 127
1, 106289, Note_off_c, 1, 63, 0
1, 106319, Note_off_c, 1, 66, 0
1, 106320, Note_on_c, 1, 66, 127
1, 106320, Note_on_c, 1, 63, 127
1, 106349, Note_off_c, 1, 66, 0
1, 106350, Note_on_c, 1, 69, 127
1, 106364, Note_off_c, 1, 69, 0
1, 106365, Note_on_c, 1, 67, 127
1, 106379, Note_off_c, 1, 63, 0
1, 106379, Note_off_c, 1, 67, 0
1, 106380, Note_on_c, 1, 69, 127
1, 106380, Note_on_c, 1, 59, 127
1, 106409, Note_off_c, 1, 69, 0
1, 106410, Note_on_c, 1, 66, 127
1, 106439, Note_off_c, 1, 59, 0
1, 106439, Note_off_c, 1, 66, 0
1, 106440, Note_on_c, 1, 63, 127
1, 106440, Note_on_c, 1, 71, 127
1, 106440, Note_on_c, 1, 81, 127
1, 106440, Note_on_c, 1, 78, 127
1, 106440, Note_on_c, 1, 75, 127
1, 106440, Note_on_c, 1, 59, 127
1, 106440, Note_on_c, 1, 47, 127
1, 106469, Note_off_c, 1, 63, 0
1, 106499, Note_off_c, 1, 71, 0
1, 106499, Note_off_c, 1, 81, 0
1, 106499, Note_off_c, 1, 78, 0
1, 106499, Note_off_c, 1, 75, 0
1, 106500, Note_off_c, 1, 59, 0
1, 106500, Note_off_c, 1, 47, 0
1, 106500, Note_on_c, 1, 52, 127
1, 106500, Note_on_c, 1, 79, 127
1, 106529, Note_off_c, 1, 79, 0
1, 106530, Note_on_c, 1, 76, 127
1, 106559, Note_off_c, 1, 76, 0
1, 106560, Note_off_c, 1, 52, 0
1, 106560, Note_on_c, 1, 64, 127
1, 106590, Note_on_c, 1, 67, 127
1, 106619, Note_off_c, 1, 67, 0
1, 106620, Note_off_c, 1, 64, 0
1, 106620, Note_on_c, 1, 58, 127
1, 106649, Note_off_c, 1, 58, 0
1, 106680, Note_on_c, 1, 50, 127
1, 106710, Note_on_c, 1, 74, 127
1, 106739, Note_off_c, 1, 74, 0
1, 106740, Note_off_c, 1, 50, 0
1, 106740, Note_on_c, 1, 62, 127
1, 106770, Note_on_c, 1, 66, 127
1, 106799, Note_off_c, 1, 66, 0
1, 106800, Note_off_c, 1, 62, 0
1, 106860, Note_on_c, 1, 49, 127
1, 106890, Note_on_c, 1, 73, 127
1, 106919, Note_off_c, 1, 73, 0
1, 106920, Note_on_c, 1, 61, 127
1, 106920, Note_on_c, 1, 70, 127
1, 106949, Note_off_c, 1, 61, 0
1, 106949, Note_off_c, 1, 70, 0
1, 106980, Note_off_c, 1, 49, 0
1, 107010, Note_on_c, 1, 59, 127
1, 107010, Note_on_c, 1, 74, 127
1, 107039, Note_off_c, 1, 59, 0
1, 107039, Note_off_c, 1, 74, 0
1, 107040, Note_on_c, 1, 54, 127
1, 107040, Note_on_c, 1, 76, 127
1, 107069, Note_off_c, 1, 54, 0
1, 107069, Note_off_c, 1, 76, 0
1, 107070, Note_on_c, 1, 55, 127
1, 107070, Note_on_c, 1, 74, 127
1, 107084, Note_off_c, 1, 55, 0
1, 107085, Note_on_c, 1, 54, 127
1, 107099, Note_off_c, 1, 74, 0
1, 107099, Note_off_c, 1, 54, 0
1, 107100, Note_on_c, 1, 52, 127
1, 107100, Note_on_c, 1, 73, 127
1, 107100, Note_on_c, 1, 54, 127
1, 107129, Note_off_c, 1, 52, 0
1, 107129, Note_off_c, 1, 73, 0
1, 107130, Note_on_c, 1, 50, 127
1, 107130, Note_on_c, 1, 71, 127
1, 107159, Note_off_c, 1, 50, 0
1, 107159, Note_off_c, 1, 71, 0
1, 107160, Note_off_c, 1, 54, 0
1, 107160, Note_on_c, 1, 49, 127
1, 107160, Note_on_c, 1, 70, 127
1, 107160, Note_on_c, 1, 64, 127
1, 107160, Note_on_c, 1, 42, 127
1, 107189, Note_off_c, 1, 49, 0
1, 107219, Note_off_c, 1, 70, 0
1, 107219, Note_off_c, 1, 64, 0
1, 107220, Note_off_c, 1, 42, 0
1, 107220, Note_on_c, 1, 66, 127
1, 107220, Note_on_c, 1, 62, 127
1, 107220, Note_on_c, 1, 47, 127
1, 107279, Note_off_c, 1, 66, 0
1, 107279, Note_off_c, 1, 62, 0
1, 107340, Note_off_c, 1, 47, 0
1, 107340, Note_on_c, 1, 74, 127
1, 107370, Note_on_c, 1, 55, 127
1, 107399, Note_off_c, 1, 74, 0
1, 107399, Note_off_c, 1, 55, 0
1, 107400, Note_on_c, 1, 57, 127
1, 107400, Note_on_c, 1, 78, 127
1, 107429, Note_off_c, 1, 57, 0
1, 107430, Note_on_c, 1, 59, 127
1, 107459, Note_off_c, 1, 78, 0
1, 107459, Note_off_c, 1, 59, 0
1, 107460, Note_on_c, 1, 60, 127
1, 107460, Note_on_c, 1, 81, 127
1, 107489, Note_off_c, 1, 60, 0
1, 107490, Note_on_c, 1, 57, 127
1, 107519, Note_off_c, 1, 81, 0
1, 107519, Note_off_c, 1, 57, 0
1, 107520, Note_on_c, 1, 54, 127
1, 107520, Note_on_c, 1, 62, 127
1, 107520, Note_on_c, 1, 72, 127
1, 107520, Note_on_c, 1, 69, 127
1, 107520, Note_on_c, 1, 66, 127
1, 107520, Note_on_c, 1, 57, 127
1, 107520, Note_on_c, 1, 50, 127
1, 107549, Note_off_c, 1, 54, 0
1, 107550, Note_on_c, 1, 55, 127
1, 107579, Note_off_c, 1, 62, 0
1, 107579, Note_off_c, 1, 72, 0
1, 107579, Note_off_c, 1, 69, 0
1, 107579, Note_off_c, 1, 66, 0
1, 107579, Note_off_c, 1, 55, 0
1, 107580, Note_off_c, 1, 57, 0
1, 107580, Note_off_c, 1, 50, 0
1, 107580, Note_on_c, 1, 59, 127
1, 107580, Note_on_c, 1, 67, 127
1, 107580, Note_on_c, 1, 71, 127
1, 107580, Note_on_c, 1, 43, 127
1, 107609, Note_off_c, 1, 59, 0
1, 107625, Note_on_c, 1, 60, 127
1, 107639, Note_off_c, 1, 67, 0
1, 107639, Note_off_c, 1, 71, 0
1, 107639, Note_off_c, 1, 60, 0
1, 107640, Note_off_c, 1, 43, 0
1, 107640, Note_on_c, 1, 79, 127
1, 107699, Note_off_c, 1, 79, 0
1, 107700, Note_on_c, 1, 54, 127
1, 107700, Note_on_c, 1, 74, 127
1, 107729, Note_off_c, 1, 54, 0
1, 107730, Note_on_c, 1, 55, 127
1, 107759, Note_off_c, 1, 74, 0
1, 107759, Note_off_c, 1, 55, 0
1, 107760, Note_on_c, 1, 60, 127
1, 107760, Note_on_c, 1, 76, 127
1, 107789, Note_off_c, 1, 60, 0
1, 107805, Note_on_c, 1, 62, 127
1, 107819, Note_off_c, 1, 76, 0
1, 107819, Note_off_c, 1, 62, 0
1, 107820, Note_on_c, 1, 64, 127
1, 107820, Note_on_c, 1, 72, 127
1, 107849, Note_off_c, 1, 64, 0
1, 107850, Note_on_c, 1, 57, 127
1, 107864, Note_off_c, 1, 57, 0
1, 107865, Note_on_c, 1, 59, 127
1, 107879, Note_off_c, 1, 59, 0
1, 107880, Note_on_c, 1, 60, 127
1, 107880, Note_on_c, 1, 69, 127
1, 107880, Note_on_c, 1, 40, 127
1, 107909, Note_off_c, 1, 60, 0
1, 107939, Note_off_c, 1, 40, 0
1, 107940, Note_on_c, 1, 66, 127
1, 107940, Note_on_c, 1, 38, 127
1, 107985, Note_on_c, 1, 62, 127
1, 107999, Note_off_c, 1, 66, 0
1, 107999, Note_off_c, 1, 38, 0
1, 107999, Note_off_c, 1, 62, 0
1, 108000, Note_off_c, 1, 69, 0
1, 108000, Note_on_c, 1, 63, 127
1, 108020, Note_off_c, 1, 72, 0
1, 108020, Note_on_c, 1, 74, 127
1, 108029, Note_off_c, 1, 63, 0
1, 108040, Note_off_c, 1, 74, 0
1, 108060, Note_on_c, 1, 54, 127
1, 108119, Note_off_c, 1, 54, 0
1, 108120, Note_on_c, 1, 67, 127
1, 108120, Note_on_c, 1, 51, 127
1, 108149, Note_off_c, 1, 67, 0
1, 108179, Note_off_c, 1, 51, 0
1, 108180, Note_on_c, 1, 48, 127
1, 108239, Note_off_c, 1, 48, 0
1, 108240, Note_on_c, 1, 45, 127
1, 108299, Note_off_c, 1, 45, 0
1, 108300, Note_on_c, 1, 42, 127
1, 108330, Note_on_c, 1, 71, 127
1, 108359, Note_off_c, 1, 42, 0
1, 108359, Note_off_c, 1, 71, 0
1, 108360, Note_on_c, 1, 66, 127
1, 108360, Note_on_c, 1, 72, 127
1, 108360, Note_on_c, 1, 38, 127
1, 108389, Note_off_c, 1, 66, 0
1, 108389, Note_off_c, 1, 72, 0
1, 108390, Note_on_c, 1, 74, 127
1, 108405, Note_on_c, 1, 64, 127
1, 108419, Note_off_c, 1, 38, 0
1, 108419, Note_off_c, 1, 74, 0
1, 108419, Note_off_c, 1, 64, 0
1, 108420, Note_on_c, 1, 62, 127
1, 108420, Note_on_c, 1, 76, 127
1, 108420, Note_on_c, 1, 50, 127
1, 108449, Note_off_c, 1, 62, 0
1, 108449, Note_off_c, 1, 76, 0
1, 108450, Note_on_c, 1, 78, 127
1, 108465, Note_on_c, 1, 60, 127
1, 108479, Note_off_c, 1, 50, 0
1, 108479, Note_off_c, 1, 78, 0
1, 108479, Note_off_c, 1, 60, 0
1, 108480, Note_on_c, 1, 59, 127
1, 108480, Note_on_c, 1, 79, 127
1, 108480, Note_on_c, 1, 52, 127
1, 108509, Note_off_c, 1, 59, 0
1, 108525, Note_on_c, 1, 60, 127
1, 108539, Note_off_c, 1, 79, 0
1, 108539, Note_off_c, 1, 52, 0
1, 108539, Note_off_c, 1, 60, 0
1, 108540, Note_on_c, 1, 62, 127
1, 108540, Note_on_c, 1, 67, 127
1, 108540, Note_on_c, 1, 74, 127
1, 108540, Note_on_c, 1, 71, 127
1, 108540, Note_on_c, 1, 47, 127
1, 108570, Note_on_c, 1, 55, 127
1, 108599, Note_off_c, 1, 62, 0
1, 108599, Note_off_c, 1, 67, 0
1, 108599, Note_off_c, 1, 74, 0
1, 108599, Note_off_c, 1, 71, 0
1, 108599, Note_off_c, 1, 47, 0
1, 108599, Note_off_c, 1, 55, 0
1, 108600, Note_on_c, 1, 52, 127
1, 108600, Note_on_c, 1, 62, 127
1, 108600, Note_on_c, 1, 72, 127
1, 108600, Note_on_c, 1, 69, 127
1, 108600, Note_on_c, 1, 66, 127
1, 108600, Note_on_c, 1, 50, 127
1, 108629, Note_off_c, 1, 52, 0
1, 108630, Note_on_c, 1, 54, 127
1, 108659, Note_off_c, 1, 62, 0
1, 108659, Note_off_c, 1, 72, 0
1, 108659, Note_off_c, 1, 69, 0
1, 108659, Note_off_c, 1, 66, 0
1, 108659, Note_off_c, 1, 50, 0
1, 108659, Note_off_c, 1, 54, 0
1, 108660, Note_on_c, 1, 43, 127
1, 108660, Note_on_c, 1, 62, 127
1, 108660, Note_on_c, 1, 67, 127
1, 108660, Note_on_c, 1, 71, 127
1, 108719, Note_off_c, 1, 43, 0
1, 108719, Note_off_c, 1, 62, 0
1, 108719, Note_off_c, 1, 67, 0
1, 108719, Note_off_c, 1, 71, 0
1, 108720, Note_on_c, 1, 55, 127
1, 108720, Note_on_c, 1, 62, 127
1, 108720, Note_on_c, 1, 47, 127
1, 108749, Note_off_c, 1, 62, 0
1, 108750, Note_on_c, 1, 64, 127
1, 108779, Note_off_c, 1, 55, 0
1, 108779, Note_off_c, 1, 47, 0
1, 108779, Note_off_c, 1, 64, 0
1, 108780, Note_on_c, 1, 57, 127
1, 108780, Note_on_c, 1, 62, 127
1, 108780, Note_on_c, 1, 50, 127
1, 108839, Note_off_c, 1, 57, 0
1, 108839, Note_off_c, 1, 62, 0
1, 108839, Note_off_c, 1, 50, 0
1, 108840, Note_on_c, 1, 59, 127
1, 108840, Note_on_c, 1, 62, 127
1, 108840, Note_on_c, 1, 55, 127
1, 108869, Note_off_c, 1, 55, 0
1, 108870, Note_on_c, 1, 57, 127
1, 108899, Note_off_c, 1, 62, 0
1, 108899, Note_off_c, 1, 57, 0
1, 108900, Note_on_c, 1, 71, 127
1, 108929, Note_off_c, 1, 71, 0
1, 108930, Note_on_c, 1, 69, 127
1, 108930, Note_on_c, 1, 54, 127
1, 108959, Note_off_c, 1, 59, 0
1, 108959, Note_off_c, 1, 69, 0
1, 108959, Note_off_c, 1, 54, 0
1, 108960, Note_on_c, 1, 67, 127
1, 108960, Note_on_c, 1, 52, 127
1, 108989, Note_off_c, 1, 67, 0
1, 108989, Note_off_c, 1, 52, 0
1, 108990, Note_on_c, 1, 71, 127
1, 108990, Note_on_c, 1, 55, 127
1, 109019, Note_off_c, 1, 71, 0
1, 109019, Note_off_c, 1, 55, 0
1, 109020, Note_on_c, 1, 50, 127
1, 109020, Note_on_c, 1, 69, 127
1, 109020, Note_on_c, 1, 54, 127
1, 109049, Note_off_c, 1, 54, 0
1, 109050, Note_on_c, 1, 52, 127
1, 109079, Note_off_c, 1, 50, 0
1, 109079, Note_off_c, 1, 69, 0
1, 109079, Note_off_c, 1, 52, 0
1, 109080, Note_on_c, 1, 57, 127
1, 109080, Note_on_c, 1, 62, 127
1, 109080, Note_on_c, 1, 54, 127
1, 109109, Note_off_c, 1, 62, 0
1, 109109, Note_off_c, 1, 54, 0
1, 109110, Note_on_c, 1, 64, 127
1, 109110, Note_on_c, 1, 55, 127
1, 109139, Note_off_c, 1, 57, 0
1, 109139, Note_off_c, 1, 64, 0
1, 109139, Note_off_c, 1, 55, 0
1, 109140, Note_on_c, 1, 59, 127
1, 109140, Note_on_c, 1, 62, 127
1, 109140, Note_on_c, 1, 54, 127
1, 109169, Note_off_c, 1, 54, 0
1, 109170, Note_on_c, 1, 52, 127
1, 109199, Note_off_c, 1, 59, 0
1, 109199, Note_off_c, 1, 62, 0
1, 109199, Note_off_c, 1, 52, 0
1, 109200, Note_on_c, 1, 60, 127
1, 109200, Note_on_c, 1, 62, 127
1, 109200, Note_on_c, 1, 50, 127
1, 109229, Note_off_c, 1, 50, 0
1, 109230, Note_on_c, 1, 48, 127
1, 109259, Note_off_c, 1, 62, 0
1, 109259, Note_off_c, 1, 48, 0
1, 109260, Note_on_c, 1, 72, 127
1, 109289, Note_off_c, 1, 72, 0
1, 109290, Note_on_c, 1, 71, 127
1, 109290, Note_on_c, 1, 52, 127
1, 109319, Note_off_c, 1, 60, 0
1, 109319, Note_off_c, 1, 71, 0
1, 109319, Note_off_c, 1, 52, 0
1, 109320, Note_on_c, 1, 69, 127
1, 109320, Note_on_c, 1, 54, 127
1, 109349, Note_off_c, 1, 69, 0
1, 109349, Note_off_c, 1, 54, 0
1, 109350, Note_on_c, 1, 72, 127
1, 109350, Note_on_c, 1, 50, 127
1, 109379, Note_off_c, 1, 72, 0
1, 109379, Note_off_c, 1, 50, 0
1, 109380, Note_on_c, 1, 55, 127
1, 109380, Note_on_c, 1, 71, 127
1, 109409, Note_off_c, 1, 71, 0
1, 109410, Note_on_c, 1, 57, 127
1, 109410, Note_on_c, 1, 72, 127
1, 109439, Note_off_c, 1, 55, 0
1, 109439, Note_off_c, 1, 57, 0
1, 109439, Note_off_c, 1, 72, 0
1, 109440, Note_on_c, 1, 59, 127
1, 109440, Note_on_c, 1, 74, 127
1, 109440, Note_on_c, 1, 47, 127
1, 109469, Note_off_c, 1, 59, 0
1, 109469, Note_off_c, 1, 74, 0
1, 109470, Note_on_c, 1, 60, 127
1, 109470, Note_on_c, 1, 76, 127
1, 109499, Note_off_c, 1, 47, 0
1, 109499, Note_off_c, 1, 60, 0
1, 109499, Note_off_c, 1, 76, 0
1, 109500, Note_on_c, 1, 57, 127
1, 109500, Note_on_c, 1, 72, 127
1, 109500, Note_on_c, 1, 50, 127
1, 109529, Note_off_c, 1, 57, 0
1, 109529, Note_off_c, 1, 72, 0
1, 109530, Note_on_c, 1, 59, 127
1, 109530, Note_on_c, 1, 74, 127
1, 109559, Note_off_c, 1, 50, 0
1, 109559, Note_off_c, 1, 59, 0
1, 109559, Note_off_c, 1, 74, 0
1, 109560, Note_on_c, 1, 55, 127
1, 109560, Note_on_c, 1, 71, 127
1, 109589, Note_off_c, 1, 71, 0
1, 109590, Note_on_c, 1, 57, 127
1, 109590, Note_on_c, 1, 72, 127
1, 109619, Note_off_c, 1, 55, 0
1, 109619, Note_off_c, 1, 57, 0
1, 109619, Note_off_c, 1, 72, 0
1, 109620, Note_on_c, 1, 59, 127
1, 109620, Note_on_c, 1, 74, 127
1, 109620, Note_on_c, 1, 47, 127
1, 109649, Note_off_c, 1, 59, 0
1, 109649, Note_off_c, 1, 74, 0
1, 109650, Note_on_c, 1, 60, 127
1, 109650, Note_on_c, 1, 76, 127
1, 109679, Note_off_c, 1, 47, 0
1, 109679, Note_off_c, 1, 60, 0
1, 109679, Note_off_c, 1, 76, 0
1, 109680, Note_on_c, 1, 57, 127
1, 109680, Note_on_c, 1, 72, 127
1, 109680, Note_on_c, 1, 50, 127
1, 109709, Note_off_c, 1, 57, 0
1, 109709, Note_off_c, 1, 72, 0
1, 109710, Note_on_c, 1, 59, 127
1, 109710, Note_on_c, 1, 74, 127
1, 109739, Note_off_c, 1, 50, 0
1, 109739, Note_off_c, 1, 59, 0
1, 109739, Note_off_c, 1, 74, 0
1, 109740, Note_on_c, 1, 55, 127
1, 109740, Note_on_c, 1, 71, 127
1, 109769, Note_off_c, 1, 71, 0
1, 109770, Note_on_c, 1, 57, 127
1, 109770, Note_on_c, 1, 73, 127
1, 109799, Note_off_c, 1, 55, 0
1, 109799, Note_off_c, 1, 57, 0
1, 109799, Note_off_c, 1, 73, 0
1, 109800, Note_on_c, 1, 59, 127
1, 109800, Note_on_c, 1, 74, 127
1, 109800, Note_on_c, 1, 54, 127
1, 109829, Note_off_c, 1, 59, 0
1, 109829, Note_off_c, 1, 74, 0
1, 109830, Note_on_c, 1, 57, 127
1, 109830, Note_on_c, 1, 76, 127
1, 109859, Note_off_c, 1, 54, 0
1, 109859, Note_off_c, 1, 57, 0
1, 109859, Note_off_c, 1, 76, 0
1, 109860, Note_on_c, 1, 55, 127
1, 109860, Note_on_c, 1, 78, 127
1, 109860, Note_on_c, 1, 52, 127
1, 109889, Note_off_c, 1, 55, 0
1, 109889, Note_off_c, 1, 78, 0
1, 109890, Note_on_c, 1, 54, 127
1, 109890, Note_on_c, 1, 79, 127
1, 109919, Note_off_c, 1, 52, 0
1, 109919, Note_off_c, 1, 54, 0
1, 109919, Note_off_c, 1, 79, 0
1, 109920, Note_on_c, 1, 52, 127
1, 109920, Note_on_c, 1, 73, 127
1, 109920, Note_on_c, 1, 57, 127
1, 109949, Note_off_c, 1, 73, 0
1, 109949, Note_off_c, 1, 57, 0
1, 109950, Note_on_c, 1, 74, 127
1, 109950, Note_on_c, 1, 59, 127
1, 109979, Note_off_c, 1, 52, 0
1, 109979, Note_off_c, 1, 74, 0
1, 109979, Note_off_c, 1, 59, 0
1, 109980, Note_on_c, 1, 73, 127
1, 109980, Note_on_c, 1, 57, 127
1, 110009, Note_off_c, 1, 73, 0
1, 110009, Note_off_c, 1, 57, 0
1, 110010, Note_on_c, 1, 71, 127
1, 110010, Note_on_c, 1, 55, 127
1, 110039, Note_off_c, 1, 71, 0
1, 110039, Note_off_c, 1, 55, 0
1, 110040, Note_on_c, 1, 69, 127
1, 110040, Note_on_c, 1, 54, 127
1, 110069, Note_off_c, 1, 69, 0
1, 110069, Note_off_c, 1, 54, 0
1, 110070, Note_on_c, 1, 67, 127
1, 110070, Note_on_c, 1, 52, 127
1, 110099, Note_off_c, 1, 67, 0
1, 110099, Note_off_c, 1, 52, 0
1, 110100, Note_on_c, 1, 66, 127
1, 110100, Note_on_c, 1, 50, 127
1, 110129, Note_off_c, 1, 66, 0
1, 110130, Note_on_c, 1, 69, 127
1, 110159, Note_off_c, 1, 50, 0
1, 110159, Note_off_c, 1, 69, 0
1, 110160, Note_on_c, 1, 57, 127
1, 110160, Note_on_c, 1, 74, 127
1, 110160, Note_on_c, 1, 54, 127
1, 110189, Note_off_c, 1, 57, 0
1, 110190, Note_on_c, 1, 59, 127
1, 110219, Note_off_c, 1, 74, 0
1, 110219, Note_off_c, 1, 54, 0
1, 110219, Note_off_c, 1, 59, 0
1, 110220, Note_on_c, 1, 57, 127
1, 110220, Note_on_c, 1, 78, 127
1, 110235, Note_off_c, 1, 78, 0
1, 110235, Note_on_c, 1, 76, 127
1, 110250, Note_off_c, 1, 76, 0
1, 110250, Note_on_c, 1, 74, 127
1, 110265, Note_off_c, 1, 74, 0
1, 110279, Note_off_c, 1, 57, 0
1, 110280, Note_on_c, 1, 62, 127
1, 110309, Note_off_c, 1, 62, 0
1, 110310, Note_on_c, 1, 64, 127
1, 110339, Note_off_c, 1, 64, 0
1, 110340, Note_on_c, 1, 66, 127
1, 110369, Note_off_c, 1, 66, 0
1, 110370, Note_on_c, 1, 61, 127
1, 110399, Note_off_c, 1, 61, 0
1, 110400, Note_on_c, 1, 62, 127
1, 110400, Note_on_c, 1, 59, 127
1, 110429, Note_off_c, 1, 62, 0
1, 110429, Note_off_c, 1, 59, 0
1, 110430, Note_on_c, 1, 66, 127
1, 110430, Note_on_c, 1, 62, 127
1, 110459, Note_off_c, 1, 66, 0
1, 110459, Note_off_c, 1, 62, 0
1, 110460, Note_on_c, 1, 64, 127
1, 110460, Note_on_c, 1, 69, 127
1, 110460, Note_on_c, 1, 61, 127
1, 110489, Note_off_c, 1, 61, 0
1, 110490, Note_on_c, 1, 59, 127
1, 110519, Note_off_c, 1, 64, 0
1, 110519, Note_off_c, 1, 69, 0
1, 110519, Note_off_c, 1, 59, 0
1, 110520, Note_on_c, 1, 57, 127
1, 110520, Note_on_c, 1, 76, 127
1, 110520, Note_on_c, 1, 61, 127
1, 110549, Note_off_c, 1, 57, 0
1, 110549, Note_off_c, 1, 61, 0
1, 110550, Note_on_c, 1, 59, 127
1, 110550, Note_on_c, 1, 62, 127
1, 110579, Note_off_c, 1, 76, 0
1, 110579, Note_off_c, 1, 59, 0
1, 110579, Note_off_c, 1, 62, 0
1, 110580, Note_on_c, 1, 57, 127
1, 110580, Note_on_c, 1, 79, 127
1, 110580, Note_on_c, 1, 61, 127
1, 110595, Note_off_c, 1, 79, 0
1, 110595, Note_on_c, 1, 78, 127
1, 110609, Note_off_c, 1, 61, 0
1, 110610, Note_off_c, 1, 78, 0
1, 110610, Note_on_c, 1, 76, 127
1, 110610, Note_on_c, 1, 59, 127
1, 110625, Note_off_c, 1, 76, 0
1, 110639, Note_off_c, 1, 57, 0
1, 110639, Note_off_c, 1, 59, 0
1, 110670, Note_on_c, 1, 55, 127
1, 110699, Note_off_c, 1, 55, 0
1, 110700, Note_on_c, 1, 67, 127
1, 110729, Note_off_c, 1, 67, 0
1, 110730, Note_on_c, 1, 66, 127
1, 110759, Note_off_c, 1, 66, 0
1, 110760, Note_on_c, 1, 64, 127
1, 110760, Note_on_c, 1, 61, 127
1, 110789, Note_off_c, 1, 64, 0
1, 110789, Note_off_c, 1, 61, 0
1, 110790, Note_on_c, 1, 67, 127
1, 110790, Note_on_c, 1, 57, 127
1, 110819, Note_off_c, 1, 67, 0
1, 110819, Note_off_c, 1, 57, 0
1, 110820, Note_on_c, 1, 66, 127
1, 110820, Note_on_c, 1, 74, 127
1, 110820, Note_on_c, 1, 62, 127
1, 110849, Note_off_c, 1, 66, 0
1, 110849, Note_off_c, 1, 74, 0
1, 110850, Note_on_c, 1, 67, 127
1, 110850, Note_on_c, 1, 76, 127
1, 110879, Note_off_c, 1, 62, 0
1, 110879, Note_off_c, 1, 67, 0
1, 110879, Note_off_c, 1, 76, 0
1, 110880, Note_on_c, 1, 69, 127
1, 110880, Note_on_c, 1, 78, 127
1, 110880, Note_on_c, 1, 54, 127
1, 110909, Note_off_c, 1, 69, 0
1, 110909, Note_off_c, 1, 78, 0
1, 110910, Note_on_c, 1, 71, 127
1, 110910, Note_on_c, 1, 79, 127
1, 110939, Note_off_c, 1, 54, 0
1, 110939, Note_off_c, 1, 71, 0
1, 110939, Note_off_c, 1, 79, 0
1, 110940, Note_on_c, 1, 67, 127
1, 110940, Note_on_c, 1, 76, 127
1, 110940, Note_on_c, 1, 57, 127
1, 110969, Note_off_c, 1, 67, 0
1, 110969, Note_off_c, 1, 76, 0
1, 110970, Note_on_c, 1, 69, 127
1, 110970, Note_on_c, 1, 78, 127
1, 110999, Note_off_c, 1, 57, 0
1, 110999, Note_off_c, 1, 69, 0
1, 110999, Note_off_c, 1, 78, 0
1, 111000, Note_on_c, 1, 66, 127
1, 111000, Note_on_c, 1, 74, 127
1, 111000, Note_on_c, 1, 62, 127
1, 111029, Note_off_c, 1, 66, 0
1, 111029, Note_off_c, 1, 74, 0
1, 111030, Note_on_c, 1, 67, 127
1, 111030, Note_on_c, 1, 76, 127
1, 111059, Note_off_c, 1, 62, 0
1, 111059, Note_off_c, 1, 67, 0
1, 111059, Note_off_c, 1, 76, 0
1, 111060, Note_on_c, 1, 69, 127
1, 111060, Note_on_c, 1, 78, 127
1, 111060, Note_on_c, 1, 54, 127
1, 111089, Note_off_c, 1, 69, 0
1, 111089, Note_off_c, 1, 78, 0
1, 111090, Note_on_c, 1, 71, 127
1, 111090, Note_on_c, 1, 79, 127
1, 111119, Note_off_c, 1, 54, 0
1, 111119, Note_off_c, 1, 71, 0
1, 111119, Note_off_c, 1, 79, 0
1, 111120, Note_on_c, 1, 67, 127
1, 111120, Note_on_c, 1, 76, 127
1, 111120, Note_on_c, 1, 57, 127
1, 111149, Note_off_c, 1, 67, 0
1, 111149, Note_off_c, 1, 76, 0
1, 111150, Note_on_c, 1, 69, 127
1, 111150, Note_on_c, 1, 78, 127
1, 111179, Note_off_c, 1, 57, 0
1, 111179, Note_off_c, 1, 69, 0
1, 111179, Note_off_c, 1, 78, 0
1, 111180, Note_on_c, 1, 66, 127
1, 111180, Note_on_c, 1, 76, 127
1, 111180, Note_on_c, 1, 50, 127
1, 111200, Note_off_c, 1, 76, 0
1, 111200, Note_on_c, 1, 74, 127
1, 111209, Note_off_c, 1, 66, 0
1, 111209, Note_off_c, 1, 50, 0
1, 111210, Note_on_c, 1, 67, 127
1, 111210, Note_on_c, 1, 52, 127
1, 111220, Note_off_c, 1, 74, 0
1, 111239, Note_off_c, 1, 67, 0
1, 111239, Note_off_c, 1, 52, 0
1, 111240, Note_on_c, 1, 69, 127
1, 111240, Note_on_c, 1, 54, 127
1, 111269, Note_off_c, 1, 69, 0
1, 111269, Note_off_c, 1, 54, 0
1, 111330, Note_on_c, 1, 55, 127
1, 111359, Note_off_c, 1, 55, 0
1, 111360, Note_on_c, 1, 64, 127
1, 111360, Note_on_c, 1, 57, 127
1, 111389, Note_off_c, 1, 64, 0
1, 111419, Note_off_c, 1, 57, 0
1, 111435, Note_on_c, 1, 73, 127
1, 111450, Note_off_c, 1, 73, 0
1, 111540, Note_on_c, 1, 62, 127
1, 111569, Note_off_c, 1, 62, 0
1, 111600, Note_on_c, 1, 71, 127
1, 111615, Note_off_c, 1, 71, 0
1, 111630, Note_on_c, 1, 49, 127
1, 111659, Note_off_c, 1, 49, 0
1, 111720, Note_on_c, 1, 61, 127
1, 111749, Note_off_c, 1, 61, 0
1, 111810, Note_on_c, 1, 47, 127
1, 111839, Note_off_c, 1, 47, 0
1, 111900, Note_on_c, 1, 59, 127
1, 111929, Note_off_c, 1, 59, 0
1, 112080, Note_on_c, 1, 45, 127
1, 112139, Note_off_c, 1, 45, 0
1, 112140, Note_on_c, 1, 43, 127
1, 112199, Note_off_c, 1, 43, 0
1, 112200, Note_on_c, 1, 42, 127
1, 112259, Note_off_c, 1, 42, 0
1, 112380, Note_on_c, 1, 33, 127
1, 112439, Note_off_c, 1, 33, 0
1, 112560, Note_on_c, 1, 78, 127
1, 112590, Note_off_c, 1, 78, 0
1, 112590, Note_on_c, 1, 79, 127
1, 112620, Note_off_c, 1, 79, 0
1, 112680, Note_on_c, 1, 64, 127
1, 112680, Note_on_c, 1, 79, 127
1, 112680, Note_on_c, 1, 52, 127
1, 112709, Note_off_c, 1, 79, 0
1, 112709, Note_off_c, 1, 52, 0
1, 112710, Note_on_c, 1, 78, 127
1, 112710, Note_on_c, 1, 45, 127
1, 112739, Note_off_c, 1, 64, 0
1, 112739, Note_off_c, 1, 78, 0
1, 112739, Note_off_c, 1, 45, 0
1, 112740, Note_on_c, 1, 69, 127
1, 112740, Note_on_c, 1, 79, 127
1, 112740, Note_on_c, 1, 47, 127
1, 112769, Note_off_c, 1, 79, 0
1, 112769, Note_off_c, 1, 47, 0
1, 112770, Note_on_c, 1, 81, 127
1, 112770, Note_on_c, 1, 49, 127
1, 112799, Note_off_c, 1, 81, 0
1, 112799, Note_off_c, 1, 49, 0
1, 112800, Note_on_c, 1, 74, 127
1, 112829, Note_off_c, 1, 74, 0
1, 112830, Note_on_c, 1, 76, 127
1, 112859, Note_off_c, 1, 69, 0
1, 112859, Note_off_c, 1, 76, 0
1, 112860, Note_on_c, 1, 62, 127
1, 112860, Note_on_c, 1, 78, 127
1, 112860, Note_on_c, 1, 50, 127
1, 112889, Note_off_c, 1, 78, 0
1, 112889, Note_off_c, 1, 50, 0
1, 112890, Note_on_c, 1, 76, 127
1, 112890, Note_on_c, 1, 43, 127
1, 112919, Note_off_c, 1, 62, 0
1, 112919, Note_off_c, 1, 76, 0
1, 112919, Note_off_c, 1, 43, 0
1, 112920, Note_on_c, 1, 67, 127
1, 112920, Note_on_c, 1, 78, 127
1, 112920, Note_on_c, 1, 45, 127
1, 112949, Note_off_c, 1, 78, 0
1, 112949, Note_off_c, 1, 45, 0
1, 112950, Note_on_c, 1, 79, 127
1, 112950, Note_on_c, 1, 47, 127
1, 112979, Note_off_c, 1, 79, 0
1, 112979, Note_off_c, 1, 47, 0
1, 112980, Note_on_c, 1, 73, 127
1, 113009, Note_off_c, 1, 73, 0
1, 113010, Note_on_c, 1, 74, 127
1, 113039, Note_off_c, 1, 67, 0
1, 113039, Note_off_c, 1, 74, 0
1, 113040, Note_on_c, 1, 61, 127
1, 113040, Note_on_c, 1, 76, 127
1, 113040, Note_on_c, 1, 49, 127
1, 113069, Note_off_c, 1, 76, 0
1, 113069, Note_off_c, 1, 49, 0
1, 113070, Note_on_c, 1, 74, 127
1, 113070, Note_on_c, 1, 42, 127
1, 113099, Note_off_c, 1, 61, 0
1, 113099, Note_off_c, 1, 74, 0
1, 113099, Note_off_c, 1, 42, 0
1, 113100, Note_on_c, 1, 66, 127
1, 113100, Note_on_c, 1, 76, 127
1, 113100, Note_on_c, 1, 43, 127
1, 113129, Note_off_c, 1, 76, 0
1, 113129, Note_off_c, 1, 43, 0
1, 113130, Note_on_c, 1, 78, 127
1, 113130, Note_on_c, 1, 45, 127
1, 113159, Note_off_c, 1, 78, 0
1, 113159, Note_off_c, 1, 45, 0
1, 113160, Note_on_c, 1, 71, 127
1, 113189, Note_off_c, 1, 71, 0
1, 113190, Note_on_c, 1, 73, 127
1, 113219, Note_off_c, 1, 66, 0
1, 113219, Note_off_c, 1, 73, 0
1, 113220, Note_on_c, 1, 59, 127
1, 113220, Note_on_c, 1, 74, 127
1, 113220, Note_on_c, 1, 47, 127
1, 113249, Note_off_c, 1, 74, 0
1, 113249, Note_off_c, 1, 47, 0
1, 113250, Note_on_c, 1, 73, 127
1, 113250, Note_on_c, 1, 40, 127
1, 113279, Note_off_c, 1, 59, 0
1, 113279, Note_off_c, 1, 73, 0
1, 113279, Note_off_c, 1, 40, 0
1, 113280, Note_on_c, 1, 64, 127
1, 113280, Note_on_c, 1, 74, 127
1, 113280, Note_on_c, 1, 42, 127
1, 113309, Note_off_c, 1, 74, 0
1, 113309, Note_off_c, 1, 42, 0
1, 113310, Note_on_c, 1, 76, 127
1, 113310, Note_on_c, 1, 43, 127
1, 113339, Note_off_c, 1, 76, 0
1, 113339, Note_off_c, 1, 43, 0
1, 113340, Note_on_c, 1, 73, 127
1, 113340, Note_on_c, 1, 45, 127
1, 113369, Note_off_c, 1, 64, 0
1, 113369, Note_off_c, 1, 45, 0
1, 113370, Note_on_c, 1, 62, 127
1, 113370, Note_on_c, 1, 47, 127
1, 113399, Note_off_c, 1, 73, 0
1, 113399, Note_off_c, 1, 62, 0
1, 113399, Note_off_c, 1, 47, 0
1, 113400, Note_on_c, 1, 61, 127
1, 113400, Note_on_c, 1, 69, 127
1, 113400, Note_on_c, 1, 45, 127
1, 113429, Note_off_c, 1, 61, 0
1, 113429, Note_off_c, 1, 45, 0
1, 113430, Note_on_c, 1, 59, 127
1, 113430, Note_on_c, 1, 43, 127
1, 113459, Note_off_c, 1, 69, 0
1, 113459, Note_off_c, 1, 59, 0
1, 113459, Note_off_c, 1, 43, 0
1, 113460, Note_on_c, 1, 57, 127
1, 113460, Note_on_c, 1, 74, 127
1, 113460, Note_on_c, 1, 42, 127
1, 113489, Note_off_c, 1, 57, 0
1, 113489, Note_off_c, 1, 42, 0
1, 113490, Note_on_c, 1, 55, 127
1, 113490, Note_on_c, 1, 40, 127
1, 113519, Note_off_c, 1, 55, 0
1, 113519, Note_off_c, 1, 40, 0
1, 113549, Note_off_c, 1, 74, 0
1, 113550, Note_on_c, 1, 59, 127
1, 113550, Note_on_c, 1, 76, 127
1, 113550, Note_on_c, 1, 43, 127
1, 113579, Note_off_c, 1, 59, 0
1, 113579, Note_off_c, 1, 76, 0
1, 113579, Note_off_c, 1, 43, 0
1, 113580, Note_on_c, 1, 52, 127
1, 113580, Note_on_c, 1, 73, 127
1, 113580, Note_on_c, 1, 45, 127
1, 113639, Note_off_c, 1, 45, 0
1, 113640, Note_on_c, 1, 33, 127
1, 113669, Note_off_c, 1, 52, 0
1, 113669, Note_off_c, 1, 73, 0
1, 113670, Note_on_c, 1, 50, 127
1, 113670, Note_on_c, 1, 74, 127
1, 113699, Note_off_c, 1, 33, 0
1, 113699, Note_off_c, 1, 50, 0
1, 113699, Note_off_c, 1, 74, 0
1, 113700, Note_on_c, 1, 50, 127
1, 113700, Note_on_c, 1, 69, 127
1, 113700, Note_on_c, 1, 74, 127
1, 113700, Note_on_c, 1, 66, 127
1, 113700, Note_on_c, 1, 38, 127
1, 113720, Note_on_c, 1, 54, 127
1, 113740, Note_on_c, 1, 57, 127
1, 113760, Note_on_c, 1, 62, 127
1, 114059, Note_off_c, 1, 50, 0
1, 114059, Note_off_c, 1, 69, 0
1, 114059, Note_off_c, 1, 74, 0
1, 114059, Note_off_c, 1, 66, 0
1, 114059, Note_off_c, 1, 38, 0
1, 114059, Note_off_c, 1, 54, 0
1, 114059, Note_off_c, 1, 57, 0
1, 114059, Note_off_c, 1, 62, 0
1, 114059, End_track
0, 0, End_of_file