0, 0, Header, 1, 1, 480
1, 0, Start_track
1, 0, Title_t, "Test"
1, 0, Tempo, 500000
1, 0, Instrument_name_t, "Church Organ"
1, 0, Note_on_c, 1, 59, 127
1, 0, Note_on_c, 1, 74, 127
1, 0, Note_on_c, 1, 43, 127
1, 59, Note_off_c, 1, 59, 0
1, 59, Note_off_c, 1, 43, 0
1, 60, Note_on_c, 1, 62, 127
1, 60, Note_on_c, 1, 47, 127
1, 89, Note_off_c, 1, 62, 0
1, 90, Note_on_c, 1, 60, 127
1, 119, Note_off_c, 1, 47, 0
1, 119, Note_off_c, 1, 60, 0
1, 120, Note_on_c, 1, 50, 127
1, 150, Note_on_c, 1, 57, 127
1, 179, Note_off_c, 1, 50, 0
1, 179, Note_off_c, 1, 57, 0
1, 180, Note_on_c, 1, 55, 127
1, 239, Note_off_c, 1, 55, 0
1, 660, Note_on_c, 1, 64, 127
1, 689, Note_off_c, 1, 64, 0
1, 690, Note_on_c, 1, 66, 127
1, 704, Note_off_c, 1, 66, 0
1, 705, Note_on_c, 1, 67, 127
1, 719, Note_off_c, 1, 67, 0
1, 1065, Note_on_c, 1, 65, 127
1, 1079, Note_off_c, 1, 65, 0
1, 1140, Note_off_c, 1, 74, 0
1, 1140, Note_on_c, 1, 72, 127
1, 1200, Note_on_c, 1, 52, 127
1, 1259, Note_off_c, 1, 52, 0
1, 1260, Note_on_c, 1, 54, 127
1, 1319, Note_off_c, 1, 72, 0
1, 1319, Note_off_c, 1, 54, 0
1, 1320, Note_on_c, 1, 67, 127
1, 1320, Note_on_c, 1, 71, 127
1, 1320, Note_on_c, 1, 55, 127
1, 1349, Note_off_c, 1, 67, 0
1, 1379, Note_off_c, 1, 55, 0
1, 1380, Note_on_c, 1, 59, 127
1, 1380, Note_on_c, 1, 52, 127
1, 1409, Note_off_c, 1, 59, 0
1, 1410, Note_on_c, 1, 60, 127
1, 1424, Note_off_c, 1, 60, 0
1, 1425, Note_on_c, 1, 62, 127
1, 1439, Note_off_c, 1, 52, 0
1, 1439, Note_off_c, 1, 62, 0
1, 1440, Note_on_c, 1, 57, 127
1, 1499, Note_off_c, 1, 71, 0
1, 1499, Note_off_c, 1, 57, 0
1, 1500, Note_on_c, 1, 62, 127
1, 1500, Note_on_c, 1, 69, 127
1, 1500, Note_on_c, 1, 54, 127
1, 1529, Note_off_c, 1, 62, 0
1, 1530, Note_on_c, 1, 60, 127
1, 1559, Note_off_c, 1, 54, 0
1, 1559, Note_off_c, 1, 60, 0
1, 1560, Note_on_c, 1, 59, 127
1, 1560, Note_on_c, 1, 50, 127
1, 1589, Note_off_c, 1, 59, 0
1, 1590, Note_on_c, 1, 57, 127
1, 1619, Note_off_c, 1, 50, 0
1, 1619, Note_off_c, 1, 57, 0
1, 1620, Note_on_c, 1, 55, 127
1, 1679, Note_off_c, 1, 69, 0
1, 1679, Note_off_c, 1, 55, 0
1, 1680, Note_on_c, 1, 55, 127
1, 1680, Note_on_c, 1, 74, 127
1, 1680, Note_on_c, 1, 59, 127
1, 1709, Note_off_c, 1, 55, 0
1, 1710, Note_on_c, 1, 57, 127
1, 1739, Note_off_c, 1, 74, 0
1, 1739, Note_off_c, 1, 59, 0
1, 1739, Note_off_c, 1, 57, 0
1, 1740, Note_on_c, 1, 59, 127
1, 1740, Note_on_c, 1, 66, 127
1, 1740, Note_on_c, 1, 57, 127
1, 1769, Note_off_c, 1, 59, 0
1, 1770, Note_on_c, 1, 60, 127
1, 1799, Note_off_c, 1, 66, 0
1, 1799, Note_off_c, 1, 57, 0
1, 1799, Note_off_c, 1, 60, 0
1, 1800, Note_on_c, 1, 62, 127
1, 1800, Note_on_c, 1, 67, 127
1, 1800, Note_on_c, 1, 59, 127
1, 1829, Note_off_c, 1, 62, 0
1, 1830, Note_on_c, 1, 60, 127
1, 1859, Note_off_c, 1, 59, 0
1, 1859, Note_off_c, 1, 60, 0
1, 1860, Note_on_c, 1, 64, 127
1, 1889, Note_off_c, 1, 64, 0
1, 1920, Note_on_c, 1, 57, 127
1, 1979, Note_off_c, 1, 57, 0
1, 2010, Note_off_c, 1, 67, 0
1, 2010, Note_on_c, 1, 55, 127
1, 2010, Note_on_c, 1, 71, 127
1, 2039, Note_off_c, 1, 55, 0
1, 2039, Note_off_c, 1, 71, 0
1, 2040, Note_on_c, 1, 54, 127
1, 2040, Note_on_c, 1, 69, 127
1, 2069, Note_off_c, 1, 54, 0
1, 2069, Note_off_c, 1, 69, 0
1, 2070, Note_on_c, 1, 52, 127
1, 2070, Note_on_c, 1, 73, 127
1, 2099, Note_off_c, 1, 52, 0
1, 2099, Note_off_c, 1, 73, 0
1, 2100, Note_on_c, 1, 50, 127
1, 2100, Note_on_c, 1, 74, 127
1, 2129, Note_off_c, 1, 50, 0
1, 2129, Note_off_c, 1, 74, 0
1, 2130, Note_on_c, 1, 69, 127
1, 2159, Note_off_c, 1, 69, 0
1, 2160, Note_on_c, 1, 69, 127
1, 2160, Note_on_c, 1, 66, 127
1, 2160, Note_on_c, 1, 38, 127
1, 2189, Note_off_c, 1, 66, 0
1, 2190, Note_on_c, 1, 71, 127
1, 2219, Note_off_c, 1, 38, 0
1, 2219, Note_off_c, 1, 71, 0
1, 2220, Note_on_c, 1, 42, 127
1, 2250, Note_on_c, 1, 67, 127
1, 2279, Note_off_c, 1, 42, 0
1, 2279, Note_off_c, 1, 67, 0
1, 2280, Note_on_c, 1, 45, 127
1, 2310, Note_on_c, 1, 64, 127
1, 2339, Note_off_c, 1, 45, 0
1, 2339, Note_off_c, 1, 64, 0
1, 2340, Note_on_c, 1, 50, 127
1, 2399, Note_off_c, 1, 50, 0
1, 2400, Note_on_c, 1, 62, 127
1, 2400, Note_on_c, 1, 54, 127
1, 2429, Note_off_c, 1, 62, 0
1, 2459, Note_off_c, 1, 54, 0
1, 2460, Note_on_c, 1, 57, 127
1, 2519, Note_off_c, 1, 57, 0
1, 2850, Note_on_c, 1, 73, 127
1, 2864, Note_off_c, 1, 73, 0
1, 2865, Note_on_c, 1, 74, 127
1, 2879, Note_off_c, 1, 74, 0
1, 2880, Note_on_c, 1, 43, 127
1, 2939, Note_off_c, 1, 43, 0
1, 3000, Note_on_c, 1, 55, 127
1, 3059, Note_off_c, 1, 55, 0
1, 3090, Note_on_c, 1, 52, 127
1, 3119, Note_off_c, 1, 52, 0
1, 3225, Note_on_c, 1, 72, 127
1, 3239, Note_off_c, 1, 72, 0
1, 3300, Note_off_c, 1, 69, 0
1, 3360, Note_on_c, 1, 47, 127
1, 3419, Note_off_c, 1, 47, 0
1, 3420, Note_on_c, 1, 49, 127
1, 3479, Note_off_c, 1, 49, 0
1, 3480, Note_on_c, 1, 66, 127
1, 3480, Note_on_c, 1, 74, 127
1, 3480, Note_on_c, 1, 50, 127
1, 3510, Note_off_c, 1, 74, 0
1, 3539, Note_off_c, 1, 50, 0
1, 3540, Note_on_c, 1, 47, 127
1, 3570, Note_on_c, 1, 67, 127
1, 3584, Note_off_c, 1, 67, 0
1, 3585, Note_on_c, 1, 69, 127
1, 3599, Note_off_c, 1, 47, 0
1, 3599, Note_off_c, 1, 69, 0
1, 3600, Note_on_c, 1, 52, 127
1, 3659, Note_off_c, 1, 66, 0
1, 3659, Note_off_c, 1, 52, 0
1, 3660, Note_on_c, 1, 64, 127
1, 3660, Note_on_c, 1, 69, 127
1, 3660, Note_on_c, 1, 49, 127
1, 3689, Note_off_c, 1, 69, 0
1, 3690, Note_on_c, 1, 67, 127
1, 3719, Note_off_c, 1, 49, 0
1, 3719, Note_off_c, 1, 67, 0
1, 3720, Note_on_c, 1, 66, 127
1, 3720, Note_on_c, 1, 45, 127
1, 3749, Note_off_c, 1, 66, 0
1, 3779, Note_off_c, 1, 45, 0
1, 3780, Note_on_c, 1, 50, 127
1, 3839, Note_off_c, 1, 64, 0
1, 3839, Note_off_c, 1, 50, 0
1, 3840, Note_on_c, 1, 69, 127
1, 3840, Note_on_c, 1, 62, 127
1, 3840, Note_on_c, 1, 54, 127
1, 3869, Note_off_c, 1, 62, 0
1, 3870, Note_on_c, 1, 64, 127
1, 3899, Note_off_c, 1, 69, 0
1, 3899, Note_off_c, 1, 54, 0
1, 3899, Note_off_c, 1, 64, 0
1, 3900, Note_on_c, 1, 61, 127
1, 3900, Note_on_c, 1, 66, 127
1, 3900, Note_on_c, 1, 52, 127
1, 3910, Note_off_c, 1, 61, 0
1, 3910, Note_on_c, 1, 62, 127
1, 3920, Note_off_c, 1, 62, 0
1, 3929, Note_off_c, 1, 66, 0
1, 3930, Note_on_c, 1, 67, 127
1, 3959, Note_off_c, 1, 52, 0
1, 3959, Note_off_c, 1, 67, 0
1, 3960, Note_on_c, 1, 69, 127
1, 3960, Note_on_c, 1, 54, 127
1, 3989, Note_off_c, 1, 69, 0
1, 4019, Note_off_c, 1, 54, 0
1, 4020, Note_on_c, 1, 71, 127
1, 4020, Note_on_c, 1, 55, 127
1, 4049, Note_off_c, 1, 71, 0
1, 4079, Note_off_c, 1, 55, 0
1, 4080, Note_on_c, 1, 50, 127
1, 4139, Note_off_c, 1, 50, 0
1, 4140, Note_on_c, 1, 64, 127
1, 4199, Note_off_c, 1, 64, 0
1, 4200, Note_on_c, 1, 64, 127
1, 4200, Note_on_c, 1, 45, 127
1, 4229, Note_off_c, 1, 64, 0
1, 4230, Note_on_c, 1, 62, 127
1, 4259, Note_off_c, 1, 45, 0
1, 4259, Note_off_c, 1, 62, 0
1, 4260, Note_on_c, 1, 61, 127
1, 4260, Note_on_c, 1, 76, 127
1, 4260, Note_on_c, 1, 43, 127
1, 4289, Note_off_c, 1, 61, 0
1, 4290, Note_on_c, 1, 59, 127
1, 4319, Note_off_c, 1, 43, 0
1, 4319, Note_off_c, 1, 59, 0
1, 4320, Note_on_c, 1, 58, 127
1, 4320, Note_on_c, 1, 42, 127
1, 4349, Note_off_c, 1, 76, 0
1, 4350, Note_on_c, 1, 74, 127
1, 4379, Note_off_c, 1, 58, 0
1, 4379, Note_off_c, 1, 42, 0
1, 4379, Note_off_c, 1, 74, 0
1, 4380, Note_on_c, 1, 59, 127
1, 4380, Note_on_c, 1, 78, 127
1, 4380, Note_on_c, 1, 44, 127
1, 4390, Note_off_c, 1, 59, 0
1, 4390, Note_on_c, 1, 61, 127
1, 4400, Note_off_c, 1, 61, 0
1, 4409, Note_off_c, 1, 78, 0
1, 4410, Note_on_c, 1, 76, 127
1, 4439, Note_off_c, 1, 44, 0
1, 4439, Note_off_c, 1, 76, 0
1, 4440, Note_on_c, 1, 74, 127
1, 4440, Note_on_c, 1, 46, 127
1, 4469, Note_off_c, 1, 74, 0
1, 4470, Note_on_c, 1, 73, 127
1, 4499, Note_off_c, 1, 46, 0
1, 4499, Note_off_c, 1, 73, 0
1, 4500, Note_on_c, 1, 47, 127
1, 4559, Note_off_c, 1, 47, 0
1, 4560, Note_on_c, 1, 57, 127
1, 4560, Note_on_c, 1, 78, 127
1, 4560, Note_on_c, 1, 49, 127
1, 4575, Note_off_c, 1, 78, 0
1, 4575, Note_on_c, 1, 76, 127
1, 4589, Note_off_c, 1, 57, 0
1, 4590, Note_off_c, 1, 76, 0
1, 4590, Note_on_c, 1, 55, 127
1, 4590, Note_on_c, 1, 74, 127
1, 4605, Note_off_c, 1, 74, 0
1, 4619, Note_off_c, 1, 49, 0
1, 4619, Note_off_c, 1, 55, 0
1, 4620, Note_on_c, 1, 51, 127
1, 4650, Note_on_c, 1, 54, 127
1, 4679, Note_off_c, 1, 51, 0
1, 4679, Note_off_c, 1, 54, 0
1, 4680, Note_on_c, 1, 56, 127
1, 4680, Note_on_c, 1, 52, 127
1, 4739, Note_off_c, 1, 56, 0
1, 4740, Note_on_c, 1, 58, 127
1, 4750, Note_off_c, 1, 58, 0
1, 4750, Note_on_c, 1, 59, 127
1, 4760, Note_off_c, 1, 59, 0
1, 4770, Note_on_c, 1, 73, 127
1, 4799, Note_off_c, 1, 52, 0
1, 4799, Note_off_c, 1, 73, 0
1, 4830, Note_on_c, 1, 71, 127
1, 4859, Note_off_c, 1, 71, 0
1, 4860, Note_on_c, 1, 53, 127
1, 4920, Note_on_c, 1, 61, 127
1, 4949, Note_off_c, 1, 61, 0
1, 4979, Note_off_c, 1, 53, 0
1, 4980, Note_on_c, 1, 62, 127
1, 5009, Note_off_c, 1, 62, 0
1, 5040, Note_on_c, 1, 64, 127
1, 5099, Note_off_c, 1, 64, 0
1, 5160, Note_on_c, 1, 61, 127
1, 5160, Note_on_c, 1, 76, 127
1, 5189, Note_off_c, 1, 76, 0
1, 5190, Note_on_c, 1, 75, 127
1, 5219, Note_off_c, 1, 61, 0
1, 5219, Note_off_c, 1, 75, 0
1, 5220, Note_on_c, 1, 59, 127
1, 5220, Note_on_c, 1, 77, 127
1, 5220, Note_on_c, 1, 56, 127
1, 5230, Note_off_c, 1, 77, 0
1, 5230, Note_on_c, 1, 78, 127
1, 5240, Note_off_c, 1, 78, 0
1, 5249, Note_off_c, 1, 59, 0
1, 5250, Note_on_c, 1, 62, 127
1, 5279, Note_off_c, 1, 62, 0
1, 5280, Note_on_c, 1, 61, 127
1, 5309, Note_off_c, 1, 61, 0
1, 5310, Note_on_c, 1, 58, 127
1, 5325, Note_on_c, 1, 75, 127
1, 5333, Note_off_c, 1, 75, 0
1, 5339, Note_off_c, 1, 56, 0
1, 5339, Note_off_c, 1, 58, 0
1, 5340, Note_on_c, 1, 76, 127
1, 5400, Note_on_c, 1, 67, 127
1, 5429, Note_off_c, 1, 76, 0
1, 5430, Note_on_c, 1, 79, 127
1, 5459, Note_off_c, 1, 79, 0
1, 5490, Note_on_c, 1, 74, 127
1, 5519, Note_off_c, 1, 74, 0
1, 5550, Note_on_c, 1, 73, 127
1, 5579, Note_off_c, 1, 73, 0
1, 5610, Note_off_c, 1, 67, 0
1, 5610, Note_on_c, 1, 66, 127
1, 5639, Note_off_c, 1, 66, 0
1, 5670, Note_on_c, 1, 65, 127
1, 5699, Note_off_c, 1, 65, 0
1, 5760, Note_on_c, 1, 66, 127
1, 5760, Note_on_c, 1, 73, 127
1, 5760, Note_on_c, 1, 58, 127
1, 5789, Note_off_c, 1, 73, 0
1, 5790, Note_on_c, 1, 71, 127
1, 5819, Note_off_c, 1, 58, 0
1, 5819, Note_off_c, 1, 71, 0
1, 5820, Note_on_c, 1, 54, 127
1, 5849, Note_off_c, 1, 66, 0
1, 5850, Note_on_c, 1, 64, 127
1, 5850, Note_on_c, 1, 70, 127
1, 5879, Note_off_c, 1, 54, 0
1, 5879, Note_off_c, 1, 64, 0
1, 5879, Note_off_c, 1, 70, 0
1, 5880, Note_on_c, 1, 64, 127
1, 5880, Note_on_c, 1, 70, 127
1, 5880, Note_on_c, 1, 55, 127
1, 5909, Note_off_c, 1, 64, 0
1, 5909, Note_off_c, 1, 70, 0
1, 5910, Note_on_c, 1, 62, 127
1, 5910, Note_on_c, 1, 71, 127
1, 5939, Note_off_c, 1, 55, 0
1, 5939, Note_off_c, 1, 62, 0
1, 5939, Note_off_c, 1, 71, 0
1, 5940, Note_on_c, 1, 67, 127
1, 5940, Note_on_c, 1, 71, 127
1, 5940, Note_on_c, 1, 52, 127
1, 5969, Note_off_c, 1, 67, 0
1, 5969, Note_off_c, 1, 71, 0
1, 5970, Note_on_c, 1, 66, 127
1, 5970, Note_on_c, 1, 73, 127
1, 5999, Note_off_c, 1, 52, 0
1, 5999, Note_off_c, 1, 66, 0
1, 5999, Note_off_c, 1, 73, 0
1, 6000, Note_on_c, 1, 64, 127
1, 6000, Note_on_c, 1, 70, 127
1, 6000, Note_on_c, 1, 54, 127
1, 6010, Note_off_c, 1, 70, 0
1, 6010, Note_on_c, 1, 71, 127
1, 6020, Note_off_c, 1, 71, 0
1, 6029, Note_off_c, 1, 64, 0
1, 6030, Note_on_c, 1, 62, 127
1, 6059, Note_off_c, 1, 54, 0
1, 6059, Note_off_c, 1, 62, 0
1, 6060, Note_on_c, 1, 61, 127
1, 6060, Note_on_c, 1, 42, 127
1, 6070, Note_off_c, 1, 61, 0
1, 6090, Note_on_c, 1, 59, 127
1, 6119, Note_off_c, 1, 42, 0
1, 6119, Note_off_c, 1, 59, 0
1, 6120, Note_on_c, 1, 59, 127
1, 6120, Note_on_c, 1, 71, 127
1, 6120, Note_on_c, 1, 47, 127
1, 6179, Note_off_c, 1, 59, 0
1, 6180, Note_on_c, 1, 66, 127
1, 6209, Note_off_c, 1, 66, 0
1, 6210, Note_on_c, 1, 64, 127
1, 6239, Note_off_c, 1, 71, 0
1, 6239, Note_off_c, 1, 47, 0
1, 6239, Note_off_c, 1, 64, 0
1, 6240, Note_on_c, 1, 62, 127
1, 6240, Note_on_c, 1, 54, 127
1, 6269, Note_off_c, 1, 62, 0
1, 6269, Note_off_c, 1, 54, 0
1, 6270, Note_on_c, 1, 61, 127
1, 6270, Note_on_c, 1, 52, 127
1, 6299, Note_off_c, 1, 61, 0
1, 6299, Note_off_c, 1, 52, 0
1, 6300, Note_on_c, 1, 59, 127
1, 6300, Note_on_c, 1, 78, 127
1, 6300, Note_on_c, 1, 50, 127
1, 6329, Note_off_c, 1, 59, 0
1, 6329, Note_off_c, 1, 78, 0
1, 6329, Note_off_c, 1, 50, 0
1, 6330, Note_on_c, 1, 76, 127
1, 6330, Note_on_c, 1, 49, 127
1, 6359, Note_off_c, 1, 76, 0
1, 6359, Note_off_c, 1, 49, 0
1, 6360, Note_on_c, 1, 66, 127
1, 6360, Note_on_c, 1, 74, 127
1, 6360, Note_on_c, 1, 47, 127
1, 6389, Note_off_c, 1, 66, 0
1, 6389, Note_off_c, 1, 74, 0
1, 6390, Note_on_c, 1, 73, 127
1, 6419, Note_off_c, 1, 47, 0
1, 6419, Note_off_c, 1, 73, 0
1, 6420, Note_on_c, 1, 66, 127
1, 6420, Note_on_c, 1, 71, 127
1, 6420, Note_on_c, 1, 51, 127
1, 6449, Note_off_c, 1, 66, 0
1, 6449, Note_off_c, 1, 71, 0
1, 6450, Note_on_c, 1, 67, 127
1, 6464, Note_off_c, 1, 67, 0
1, 6465, Note_on_c, 1, 69, 127
1, 6479, Note_off_c, 1, 51, 0
1, 6479, Note_off_c, 1, 69, 0
1, 6480, Note_on_c, 1, 67, 127
1, 6480, Note_on_c, 1, 52, 127
1, 6539, Note_off_c, 1, 67, 0
1, 6539, Note_off_c, 1, 52, 0
1, 6540, Note_on_c, 1, 66, 127
1, 6540, Note_on_c, 1, 59, 127
1, 6569, Note_off_c, 1, 59, 0
1, 6570, Note_on_c, 1, 57, 127
1, 6599, Note_off_c, 1, 66, 0
1, 6599, Note_off_c, 1, 57, 0
1, 6600, Note_on_c, 1, 64, 127
1, 6600, Note_on_c, 1, 71, 127
1, 6600, Note_on_c, 1, 55, 127
1, 6629, Note_off_c, 1, 71, 0
1, 6629, Note_off_c, 1, 55, 0
1, 6630, Note_on_c, 1, 69, 127
1, 6630, Note_on_c, 1, 54, 127
1, 6659, Note_off_c, 1, 69, 0
1, 6659, Note_off_c, 1, 54, 0
1, 6660, Note_on_c, 1, 67, 127
1, 6660, Note_on_c, 1, 52, 127
1, 6689, Note_off_c, 1, 67, 0
1, 6690, Note_on_c, 1, 66, 127
1, 6719, Note_off_c, 1, 64, 0
1, 6719, Note_off_c, 1, 52, 0
1, 6719, Note_off_c, 1, 66, 0
1, 6720, Note_on_c, 1, 67, 127
1, 6720, Note_on_c, 1, 64, 127
1, 6720, Note_on_c, 1, 40, 127
1, 6749, Note_off_c, 1, 67, 0
1, 6749, Note_off_c, 1, 64, 0
1, 6750, Note_on_c, 1, 66, 127
1, 6779, Note_off_c, 1, 40, 0
1, 6779, Note_off_c, 1, 66, 0
1, 6780, Note_on_c, 1, 64, 127
1, 6780, Note_on_c, 1, 43, 127
1, 6809, Note_off_c, 1, 64, 0
1, 6810, Note_on_c, 1, 62, 127
1, 6839, Note_off_c, 1, 43, 0
1, 6839, Note_off_c, 1, 62, 0
1, 6840, Note_on_c, 1, 62, 127
1, 6840, Note_on_c, 1, 45, 127
1, 6869, Note_off_c, 1, 62, 0
1, 6870, Note_on_c, 1, 61, 127
1, 6899, Note_off_c, 1, 61, 0
1, 6900, Note_on_c, 1, 64, 127
1, 6929, Note_off_c, 1, 64, 0
1, 6959, Note_off_c, 1, 45, 0
1, 6960, Note_on_c, 1, 61, 127
1, 6960, Note_on_c, 1, 52, 127
1, 6989, Note_off_c, 1, 61, 0
1, 6989, Note_off_c, 1, 52, 0
1, 6990, Note_on_c, 1, 59, 127
1, 6990, Note_on_c, 1, 50, 127
1, 7019, Note_off_c, 1, 59, 0
1, 7019, Note_off_c, 1, 50, 0
1, 7020, Note_on_c, 1, 57, 127
1, 7020, Note_on_c, 1, 76, 127
1, 7020, Note_on_c, 1, 49, 127
1, 7049, Note_off_c, 1, 76, 0
1, 7049, Note_off_c, 1, 49, 0
1, 7050, Note_on_c, 1, 74, 127
1, 7050, Note_on_c, 1, 47, 127
1, 7079, Note_off_c, 1, 57, 0
1, 7079, Note_off_c, 1, 74, 0
1, 7079, Note_off_c, 1, 47, 0
1, 7080, Note_on_c, 1, 64, 127
1, 7080, Note_on_c, 1, 73, 127
1, 7080, Note_on_c, 1, 45, 127
1, 7109, Note_off_c, 1, 73, 0
1, 7110, Note_on_c, 1, 71, 127
1, 7139, Note_off_c, 1, 64, 0
1, 7139, Note_off_c, 1, 45, 0
1, 7139, Note_off_c, 1, 71, 0
1, 7140, Note_on_c, 1, 64, 127
1, 7140, Note_on_c, 1, 69, 127
1, 7140, Note_on_c, 1, 49, 127
1, 7169, Note_off_c, 1, 64, 0
1, 7169, Note_off_c, 1, 69, 0
1, 7170, Note_on_c, 1, 66, 127
1, 7184, Note_off_c, 1, 66, 0
1, 7185, Note_on_c, 1, 67, 127
1, 7199, Note_off_c, 1, 49, 0
1, 7199, Note_off_c, 1, 67, 0
1, 7200, Note_on_c, 1, 66, 127
1, 7200, Note_on_c, 1, 50, 127
1, 7259, Note_off_c, 1, 66, 0
1, 7259, Note_off_c, 1, 50, 0
1, 7260, Note_on_c, 1, 64, 127
1, 7260, Note_on_c, 1, 57, 127
1, 7289, Note_off_c, 1, 57, 0
1, 7290, Note_on_c, 1, 55, 127
1, 7319, Note_off_c, 1, 64, 0
1, 7319, Note_off_c, 1, 55, 0
1, 7320, Note_on_c, 1, 62, 127
1, 7320, Note_on_c, 1, 69, 127
1, 7320, Note_on_c, 1, 54, 127
1, 7349, Note_off_c, 1, 69, 0
1, 7349, Note_off_c, 1, 54, 0
1, 7350, Note_on_c, 1, 67, 127
1, 7350, Note_on_c, 1, 52, 127
1, 7379, Note_off_c, 1, 67, 0
1, 7379, Note_off_c, 1, 52, 0
1, 7380, Note_on_c, 1, 66, 127
1, 7380, Note_on_c, 1, 50, 127
1, 7409, Note_off_c, 1, 66, 0
1, 7410, Note_on_c, 1, 64, 127
1, 7439, Note_off_c, 1, 62, 0
1, 7439, Note_off_c, 1, 50, 0
1, 7439, Note_off_c, 1, 64, 0
1, 7440, Note_on_c, 1, 66, 127
1, 7440, Note_on_c, 1, 62, 127
1, 7440, Note_on_c, 1, 38, 127
1, 7469, Note_off_c, 1, 66, 0
1, 7469, Note_off_c, 1, 62, 0
1, 7470, Note_on_c, 1, 64, 127
1, 7499, Note_off_c, 1, 38, 0
1, 7499, Note_off_c, 1, 64, 0
1, 7500, Note_on_c, 1, 62, 127
1, 7500, Note_on_c, 1, 54, 127
1, 7529, Note_off_c, 1, 62, 0
1, 7530, Note_on_c, 1, 61, 127
1, 7559, Note_off_c, 1, 54, 0
1, 7559, Note_off_c, 1, 61, 0
1, 7560, Note_on_c, 1, 59, 127
1, 7560, Note_on_c, 1, 74, 127
1, 7560, Note_on_c, 1, 55, 127
1, 7589, Note_off_c, 1, 59, 0
1, 7589, Note_off_c, 1, 74, 0
1, 7590, Note_on_c, 1, 57, 127
1, 7590, Note_on_c, 1, 72, 127
1, 7619, Note_off_c, 1, 55, 0
1, 7619, Note_off_c, 1, 57, 0
1, 7619, Note_off_c, 1, 72, 0
1, 7620, Note_on_c, 1, 55, 127
1, 7620, Note_on_c, 1, 71, 127
1, 7620, Note_on_c, 1, 57, 127
1, 7649, Note_off_c, 1, 55, 0
1, 7649, Note_off_c, 1, 71, 0
1, 7650, Note_on_c, 1, 54, 127
1, 7650, Note_on_c, 1, 69, 127
1, 7679, Note_off_c, 1, 57, 0
1, 7679, Note_off_c, 1, 54, 0
1, 7679, Note_off_c, 1, 69, 0
1, 7680, Note_on_c, 1, 55, 127
1, 7680, Note_on_c, 1, 67, 127
1, 7680, Note_on_c, 1, 59, 127
1, 7709, Note_off_c, 1, 67, 0
1, 7710, Note_on_c, 1, 66, 127
1, 7739, Note_off_c, 1, 59, 0
1, 7739, Note_off_c, 1, 66, 0
1, 7740, Note_on_c, 1, 52, 127
1, 7769, Note_off_c, 1, 55, 0
1, 7770, Note_on_c, 1, 64, 127
1, 7799, Note_off_c, 1, 52, 0
1, 7799, Note_off_c, 1, 64, 0
1, 7800, Note_on_c, 1, 62, 127
1, 7800, Note_on_c, 1, 54, 127
1, 7829, Note_off_c, 1, 62, 0
1, 7830, Note_on_c, 1, 61, 127
1, 7830, Note_on_c, 1, 76, 127
1, 7859, Note_off_c, 1, 54, 0
1, 7859, Note_off_c, 1, 61, 0
1, 7859, Note_off_c, 1, 76, 0
1, 7860, Note_on_c, 1, 59, 127
1, 7860, Note_on_c, 1, 74, 127
1, 7860, Note_on_c, 1, 55, 127
1, 7889, Note_off_c, 1, 59, 0
1, 7889, Note_off_c, 1, 74, 0
1, 7890, Note_on_c, 1, 57, 127
1, 7890, Note_on_c, 1, 73, 127
1, 7919, Note_off_c, 1, 55, 0
1, 7919, Note_off_c, 1, 57, 0
1, 7919, Note_off_c, 1, 73, 0
1, 7920, Note_on_c, 1, 67, 127
1, 7920, Note_on_c, 1, 71, 127
1, 7920, Note_on_c, 1, 49, 127
1, 7949, Note_off_c, 1, 67, 0
1, 7949, Note_off_c, 1, 71, 0
1, 7950, Note_on_c, 1, 66, 127
1, 7950, Note_on_c, 1, 69, 127
1, 7979, Note_off_c, 1, 49, 0
1, 7979, Note_off_c, 1, 66, 0
1, 7979, Note_off_c, 1, 69, 0
1, 7980, Note_on_c, 1, 64, 127
1, 7980, Note_on_c, 1, 79, 127
1, 7980, Note_on_c, 1, 50, 127
1, 8009, Note_off_c, 1, 64, 0
1, 8009, Note_off_c, 1, 79, 0
1, 8010, Note_on_c, 1, 62, 127
1, 8010, Note_on_c, 1, 78, 127
1, 8039, Note_off_c, 1, 50, 0
1, 8039, Note_off_c, 1, 62, 0
1, 8039, Note_off_c, 1, 78, 0
1, 8040, Note_on_c, 1, 71, 127
1, 8040, Note_on_c, 1, 76, 127
1, 8040, Note_on_c, 1, 52, 127
1, 8069, Note_off_c, 1, 76, 0
1, 8070, Note_on_c, 1, 74, 127
1, 8099, Note_off_c, 1, 52, 0
1, 8099, Note_off_c, 1, 74, 0
1, 8100, Note_on_c, 1, 73, 127
1, 8100, Note_on_c, 1, 45, 127
1, 8129, Note_off_c, 1, 73, 0
1, 8159, Note_off_c, 1, 71, 0
1, 8159, Note_off_c, 1, 45, 0
1, 8160, Note_on_c, 1, 69, 127
1, 8160, Note_on_c, 1, 74, 127
1, 8160, Note_on_c, 1, 47, 127
1, 8189, Note_off_c, 1, 69, 0
1, 8189, Note_off_c, 1, 74, 0
1, 8190, Note_on_c, 1, 76, 127
1, 8219, Note_off_c, 1, 47, 0
1, 8219, Note_off_c, 1, 76, 0
1, 8220, Note_on_c, 1, 67, 127
1, 8220, Note_on_c, 1, 76, 127
1, 8220, Note_on_c, 1, 49, 127
1, 8249, Note_off_c, 1, 67, 0
1, 8279, Note_off_c, 1, 49, 0
1, 8280, Note_on_c, 1, 66, 127
1, 8280, Note_on_c, 1, 50, 127
1, 8309, Note_off_c, 1, 76, 0
1, 8309, Note_off_c, 1, 66, 0
1, 8310, Note_on_c, 1, 73, 127
1, 8339, Note_off_c, 1, 50, 0
1, 8339, Note_off_c, 1, 73, 0
1, 8340, Note_on_c, 1, 69, 127
1, 8340, Note_on_c, 1, 74, 127
1, 8340, Note_on_c, 1, 42, 127
1, 8369, Note_off_c, 1, 69, 0
1, 8399, Note_off_c, 1, 42, 0
1, 8400, Note_on_c, 1, 64, 127
1, 8400, Note_on_c, 1, 43, 127
1, 8429, Note_off_c, 1, 64, 0
1, 8459, Note_off_c, 1, 43, 0
1, 8460, Note_on_c, 1, 66, 127
1, 8460, Note_on_c, 1, 45, 127
1, 8489, Note_off_c, 1, 66, 0
1, 8490, Note_off_c, 1, 74, 0
1, 8490, Note_on_c, 1, 71, 127
1, 8519, Note_off_c, 1, 45, 0
1, 8519, Note_off_c, 1, 71, 0
1, 8520, Note_on_c, 1, 67, 127
1, 8520, Note_on_c, 1, 76, 127
1, 8520, Note_on_c, 1, 43, 127
1, 8549, Note_off_c, 1, 67, 0
1, 8550, Note_on_c, 1, 66, 127
1, 8579, Note_off_c, 1, 76, 0
1, 8579, Note_off_c, 1, 43, 0
1, 8579, Note_off_c, 1, 66, 0
1, 8580, Note_on_c, 1, 64, 127
1, 8580, Note_on_c, 1, 73, 127
1, 8580, Note_on_c, 1, 45, 127
1, 8590, Note_off_c, 1, 73, 0
1, 8590, Note_on_c, 1, 74, 127
1, 8600, Note_off_c, 1, 74, 0
1, 8609, Note_off_c, 1, 64, 0
1, 8610, Note_on_c, 1, 66, 127
1, 8639, Note_off_c, 1, 45, 0
1, 8639, Note_off_c, 1, 66, 0
1, 8640, Note_on_c, 1, 62, 127
1, 8640, Note_on_c, 1, 38, 127
1, 8699, Note_off_c, 1, 38, 0
1, 8700, Note_on_c, 1, 69, 127
1, 8700, Note_on_c, 1, 42, 127
1, 8729, Note_off_c, 1, 69, 0
1, 8730, Note_on_c, 1, 67, 127
1, 8759, Note_off_c, 1, 42, 0
1, 8759, Note_off_c, 1, 67, 0
1, 8820, Note_on_c, 1, 50, 127
1, 8879, Note_off_c, 1, 50, 0
1, 8880, Note_on_c, 1, 61, 127
1, 8880, Note_on_c, 1, 54, 127
1, 8909, Note_off_c, 1, 61, 0
1, 8939, Note_off_c, 1, 54, 0
1, 8970, Note_on_c, 1, 71, 127
1, 8984, Note_off_c, 1, 71, 0
1, 8985, Note_on_c, 1, 72, 127
1, 8999, Note_off_c, 1, 72, 0
1, 9000, Note_on_c, 1, 55, 127
1, 9059, Note_off_c, 1, 55, 0
1, 9060, Note_on_c, 1, 47, 127
1, 9119, Note_off_c, 1, 47, 0
1, 9180, Note_on_c, 1, 43, 127
1, 9239, Note_off_c, 1, 43, 0
1, 9300, Note_on_c, 1, 76, 127
1, 9329, Note_off_c, 1, 76, 0
1, 9330, Note_on_c, 1, 78, 127
1, 9344, Note_off_c, 1, 78, 0
1, 9345, Note_on_c, 1, 79, 127
1, 9359, Note_off_c, 1, 79, 0
1, 9480, Note_on_c, 1, 60, 127
1, 9539, Note_off_c, 1, 60, 0
1, 9540, Note_on_c, 1, 59, 127
1, 9569, Note_off_c, 1, 59, 0
1, 9570, Note_on_c, 1, 57, 127
1, 9599, Note_off_c, 1, 57, 0
1, 9705, Note_on_c, 1, 77, 127
1, 9719, Note_off_c, 1, 77, 0
1, 9780, Note_off_c, 1, 62, 0
1, 9840, Note_on_c, 1, 52, 127
1, 9899, Note_off_c, 1, 52, 0
1, 9960, Note_on_c, 1, 59, 127
1, 9960, Note_on_c, 1, 79, 127
1, 9960, Note_on_c, 1, 55, 127
1, 9989, Note_off_c, 1, 79, 0
1, 10019, Note_off_c, 1, 55, 0
1, 10020, Note_on_c, 1, 71, 127
1, 10020, Note_on_c, 1, 52, 127
1, 10049, Note_off_c, 1, 71, 0
1, 10050, Note_on_c, 1, 72, 127
1, 10064, Note_off_c, 1, 72, 0
1, 10065, Note_on_c, 1, 74, 127
1, 10079, Note_off_c, 1, 52, 0
1, 10079, Note_off_c, 1, 74, 0
1, 10080, Note_on_c, 1, 57, 127
1, 10139, Note_off_c, 1, 59, 0
1, 10139, Note_off_c, 1, 57, 0
1, 10140, Note_on_c, 1, 57, 127
1, 10140, Note_on_c, 1, 74, 127
1, 10140, Note_on_c, 1, 54, 127
1, 10169, Note_off_c, 1, 74, 0
1, 10170, Note_on_c, 1, 72, 127
1, 10199, Note_off_c, 1, 54, 0
1, 10199, Note_off_c, 1, 72, 0
1, 10200, Note_on_c, 1, 71, 127
1, 10200, Note_on_c, 1, 50, 127
1, 10229, Note_off_c, 1, 71, 0
1, 10230, Note_on_c, 1, 69, 127
1, 10259, Note_off_c, 1, 50, 0
1, 10259, Note_off_c, 1, 69, 0
1, 10260, Note_on_c, 1, 55, 127
1, 10319, Note_off_c, 1, 57, 0
1, 10319, Note_off_c, 1, 55, 0
1, 10320, Note_on_c, 1, 62, 127
1, 10320, Note_on_c, 1, 67, 127
1, 10320, Note_on_c, 1, 59, 127
1, 10349, Note_off_c, 1, 67, 0
1, 10350, Note_on_c, 1, 69, 127
1, 10379, Note_off_c, 1, 62, 0
1, 10379, Note_off_c, 1, 59, 0
1, 10379, Note_off_c, 1, 69, 0
1, 10380, Note_on_c, 1, 54, 127
1, 10380, Note_on_c, 1, 71, 127
1, 10380, Note_on_c, 1, 57, 127
1, 10409, Note_off_c, 1, 71, 0
1, 10410, Note_on_c, 1, 72, 127
1, 10439, Note_off_c, 1, 54, 0
1, 10439, Note_off_c, 1, 57, 0
1, 10439, Note_off_c, 1, 72, 0
1, 10440, Note_on_c, 1, 55, 127
1, 10440, Note_on_c, 1, 74, 127
1, 10440, Note_on_c, 1, 59, 127
1, 10469, Note_off_c, 1, 74, 0
1, 10470, Note_on_c, 1, 72, 127
1, 10499, Note_off_c, 1, 59, 0
1, 10499, Note_off_c, 1, 72, 0
1, 10500, Note_on_c, 1, 76, 127
1, 10500, Note_on_c, 1, 60, 127
1, 10529, Note_off_c, 1, 76, 0
1, 10559, Note_off_c, 1, 60, 0
1, 10590, Note_on_c, 1, 71, 127
1, 10619, Note_off_c, 1, 71, 0
1, 10620, Note_on_c, 1, 69, 127
1, 10649, Note_off_c, 1, 69, 0
1, 10650, Note_off_c, 1, 55, 0
1, 10650, Note_on_c, 1, 67, 127
1, 10679, Note_off_c, 1, 67, 0
1, 10680, Note_on_c, 1, 57, 127
1, 10680, Note_on_c, 1, 66, 127
1, 10709, Note_off_c, 1, 57, 0
1, 10709, Note_off_c, 1, 66, 0
1, 10710, Note_on_c, 1, 64, 127
1, 10739, Note_off_c, 1, 64, 0
1, 10740, Note_on_c, 1, 59, 127
1, 10740, Note_on_c, 1, 62, 127
1, 10769, Note_off_c, 1, 59, 0
1, 10770, Note_on_c, 1, 57, 127
1, 10799, Note_off_c, 1, 62, 0
1, 10799, Note_off_c, 1, 57, 0
1, 10800, Note_on_c, 1, 59, 127
1, 10800, Note_on_c, 1, 74, 127
1, 10800, Note_on_c, 1, 43, 127
1, 10829, Note_off_c, 1, 59, 0
1, 10830, Note_on_c, 1, 67, 127
1, 10859, Note_off_c, 1, 43, 0
1, 10859, Note_off_c, 1, 67, 0
1, 10860, Note_on_c, 1, 62, 127
1, 10860, Note_on_c, 1, 47, 127
1, 10889, Note_off_c, 1, 62, 0
1, 10890, Note_on_c, 1, 60, 127
1, 10919, Note_off_c, 1, 47, 0
1, 10919, Note_off_c, 1, 60, 0
1, 10920, Note_on_c, 1, 50, 127
1, 10950, Note_on_c, 1, 57, 127
1, 10979, Note_off_c, 1, 50, 0
1, 10979, Note_off_c, 1, 57, 0
1, 10980, Note_on_c, 1, 55, 127
1, 11039, Note_off_c, 1, 55, 0
1, 11460, Note_on_c, 1, 64, 127
1, 11489, Note_off_c, 1, 64, 0
1, 11490, Note_on_c, 1, 66, 127
1, 11504, Note_off_c, 1, 66, 0
1, 11865, Note_on_c, 1, 65, 127
1, 11879, Note_off_c, 1, 65, 0
1, 11940, Note_off_c, 1, 74, 0
1, 11940, Note_on_c, 1, 72, 127
1, 12000, Note_on_c, 1, 52, 127
1, 12059, Note_off_c, 1, 52, 0
1, 12060, Note_on_c, 1, 54, 127
1, 12119, Note_off_c, 1, 72, 0
1, 12119, Note_off_c, 1, 54, 0
1, 12120, Note_on_c, 1, 67, 127
1, 12120, Note_on_c, 1, 71, 127
1, 12120, Note_on_c, 1, 55, 127
1, 12149, Note_off_c, 1, 67, 0
1, 12179, Note_off_c, 1, 55, 0
1, 12180, Note_on_c, 1, 59, 127
1, 12180, Note_on_c, 1, 52, 127
1, 12209, Note_off_c, 1, 59, 0
1, 12210, Note_on_c, 1, 60, 127
1, 12224, Note_off_c, 1, 60, 0
1, 12225, Note_on_c, 1, 62, 127
1, 12239, Note_off_c, 1, 52, 0
1, 12239, Note_off_c, 1, 62, 0
1, 12240, Note_on_c, 1, 57, 127
1, 12299, Note_off_c, 1, 71, 0
1, 12299, Note_off_c, 1, 57, 0
1, 12300, Note_on_c, 1, 62, 127
1, 12300, Note_on_c, 1, 69, 127
1, 12300, Note_on_c, 1, 54, 127
1, 12329, Note_off_c, 1, 62, 0
1, 12330, Note_on_c, 1, 60, 127
1, 12359, Note_off_c, 1, 54, 0
1, 12359, Note_off_c, 1, 60, 0
1, 12360, Note_on_c, 1, 59, 127
1, 12360, Note_on_c, 1, 50, 127
1, 12389, Note_off_c, 1, 59, 0
1, 12390, Note_on_c, 1, 57, 127
1, 12419, Note_off_c, 1, 50, 0
1, 12419, Note_off_c, 1, 57, 0
1, 12420, Note_on_c, 1, 43, 127
1, 12479, Note_off_c, 1, 69, 0
1, 12479, Note_off_c, 1, 43, 0
1, 12480, Note_on_c, 1, 55, 127
1, 12480, Note_on_c, 1, 74, 127
1, 12480, Note_on_c, 1, 47, 127
1, 12509, Note_off_c, 1, 55, 0
1, 12510, Note_on_c, 1, 57, 127
1, 12539, Note_off_c, 1, 74, 0
1, 12539, Note_off_c, 1, 47, 0
1, 12539, Note_off_c, 1, 57, 0
1, 12540, Note_on_c, 1, 59, 127
1, 12540, Note_on_c, 1, 66, 127
1, 12540, Note_on_c, 1, 45, 127
1, 12569, Note_off_c, 1, 59, 0
1, 12570, Note_on_c, 1, 60, 127
1, 12599, Note_off_c, 1, 66, 0
1, 12599, Note_off_c, 1, 45, 0
1, 12599, Note_off_c, 1, 60, 0
1, 12600, Note_on_c, 1, 62, 127
1, 12600, Note_on_c, 1, 67, 127
1, 12600, Note_on_c, 1, 47, 127
1, 12629, Note_off_c, 1, 62, 0
1, 12630, Note_on_c, 1, 60, 127
1, 12659, Note_off_c, 1, 67, 0
1, 12659, Note_off_c, 1, 47, 0
1, 12659, Note_off_c, 1, 60, 0
1, 12660, Note_on_c, 1, 64, 127
1, 12660, Note_on_c, 1, 79, 127
1, 12660, Note_on_c, 1, 48, 127
1, 12689, Note_off_c, 1, 64, 0
1, 12690, Note_on_c, 1, 62, 127
1, 12719, Note_off_c, 1, 48, 0
1, 12719, Note_off_c, 1, 62, 0
1, 12720, Note_on_c, 1, 60, 127
1, 12720, Note_on_c, 1, 45, 127
1, 12749, Note_off_c, 1, 60, 0
1, 12750, Note_on_c, 1, 59, 127
1, 12779, Note_off_c, 1, 45, 0
1, 12779, Note_off_c, 1, 59, 0
1, 12780, Note_on_c, 1, 57, 127
1, 12780, Note_on_c, 1, 50, 127
1, 12810, Note_off_c, 1, 79, 0
1, 12810, Note_on_c, 1, 78, 127
1, 12839, Note_off_c, 1, 57, 0
1, 12839, Note_off_c, 1, 78, 0
1, 12840, Note_on_c, 1, 69, 127
1, 12840, Note_on_c, 1, 81, 127
1, 12869, Note_off_c, 1, 81, 0
1, 12899, Note_off_c, 1, 50, 0
1, 12930, Note_on_c, 1, 76, 127
1, 12959, Note_off_c, 1, 76, 0
1, 12960, Note_on_c, 1, 75, 127
1, 12960, Note_on_c, 1, 47, 127
1, 12990, Note_off_c, 1, 69, 0
1, 12990, Note_on_c, 1, 67, 127
1, 13019, Note_off_c, 1, 75, 0
1, 13019, Note_off_c, 1, 47, 0
1, 13019, Note_off_c, 1, 67, 0
1, 13020, Note_on_c, 1, 71, 127
1, 13020, Note_on_c, 1, 78, 127
1, 13020, Note_on_c, 1, 49, 127
1, 13034, Note_off_c, 1, 78, 0
1, 13035, Note_on_c, 1, 76, 127
1, 13049, Note_off_c, 1, 71, 0
1, 13049, Note_off_c, 1, 76, 0
1, 13050, Note_on_c, 1, 69, 127
1, 13050, Note_on_c, 1, 75, 127
1, 13064, Note_off_c, 1, 75, 0
1, 13079, Note_off_c, 1, 49, 0
1, 13079, Note_off_c, 1, 69, 0
1, 13080, Note_on_c, 1, 67, 127
1, 13080, Note_on_c, 1, 78, 127
1, 13080, Note_on_c, 1, 51, 127
1, 13109, Note_off_c, 1, 67, 0
1, 13110, Note_on_c, 1, 66, 127
1, 13139, Note_off_c, 1, 51, 0
1, 13139, Note_off_c, 1, 66, 0
1, 13140, Note_on_c, 1, 52, 127
1, 13169, Note_off_c, 1, 78, 0
1, 13170, Note_on_c, 1, 76, 127
1, 13199, Note_off_c, 1, 52, 0
1, 13199, Note_off_c, 1, 76, 0
1, 13200, Note_on_c, 1, 69, 127
1, 13200, Note_on_c, 1, 74, 127
1, 13200, Note_on_c, 1, 54, 127
1, 13229, Note_off_c, 1, 74, 0
1, 13230, Note_on_c, 1, 72, 127
1, 13259, Note_off_c, 1, 69, 0
1, 13259, Note_off_c, 1, 54, 0
1, 13259, Note_off_c, 1, 72, 0
1, 13260, Note_on_c, 1, 71, 127
1, 13260, Note_on_c, 1, 74, 127
1, 13260, Note_on_c, 1, 56, 127
1, 13289, Note_off_c, 1, 74, 0
1, 13319, Note_off_c, 1, 56, 0
1, 13320, Note_on_c, 1, 73, 127
1, 13320, Note_on_c, 1, 57, 127
1, 13349, Note_off_c, 1, 71, 0
1, 13350, Note_on_c, 1, 69, 127
1, 13379, Note_off_c, 1, 73, 0
1, 13379, Note_off_c, 1, 69, 0
1, 13380, Note_on_c, 1, 67, 127
1, 13380, Note_on_c, 1, 76, 127
1, 13394, Note_off_c, 1, 76, 0
1, 13395, Note_on_c, 1, 75, 127
1, 13409, Note_off_c, 1, 67, 0
1, 13409, Note_off_c, 1, 75, 0
1, 13410, Note_on_c, 1, 66, 127
1, 13439, Note_off_c, 1, 57, 0
1, 13439, Note_off_c, 1, 66, 0
1, 13440, Note_on_c, 1, 67, 127
1, 13440, Note_on_c, 1, 76, 127
1, 13469, Note_off_c, 1, 67, 0
1, 13470, Note_on_c, 1, 64, 127
1, 13499, Note_off_c, 1, 64, 0
1, 13500, Note_on_c, 1, 66, 127
1, 13500, Note_on_c, 1, 58, 127
1, 13529, Note_off_c, 1, 76, 0
1, 13530, Note_on_c, 1, 75, 127
1, 13559, Note_off_c, 1, 58, 0
1, 13559, Note_off_c, 1, 75, 0
1, 13560, Note_on_c, 1, 78, 127
1, 13589, Note_off_c, 1, 78, 0
1, 13620, Note_on_c, 1, 79, 127
1, 13649, Note_off_c, 1, 79, 0
1, 13680, Note_on_c, 1, 81, 127
1, 13680, Note_on_c, 1, 59, 127
1, 13710, Note_off_c, 1, 66, 0
1, 13739, Note_off_c, 1, 81, 0
1, 13799, Note_off_c, 1, 59, 0
1, 13800, Note_on_c, 1, 69, 127
1, 13800, Note_on_c, 1, 78, 127
1, 13829, Note_off_c, 1, 69, 0
1, 13830, Note_on_c, 1, 68, 127
1, 13859, Note_off_c, 1, 78, 0
1, 13859, Note_off_c, 1, 68, 0
1, 13860, Note_on_c, 1, 71, 127
1, 13860, Note_on_c, 1, 76, 127
1, 13860, Note_on_c, 1, 61, 127
1, 13889, Note_off_c, 1, 71, 0
1, 13889, Note_off_c, 1, 76, 0
1, 13890, Note_on_c, 1, 70, 127
1, 13890, Note_on_c, 1, 79, 127
1, 13919, Note_off_c, 1, 79, 0
1, 13920, Note_on_c, 1, 78, 127
1, 13949, Note_off_c, 1, 78, 0
1, 13950, Note_on_c, 1, 75, 127
1, 13979, Note_off_c, 1, 61, 0
1, 13979, Note_off_c, 1, 75, 0
1, 13980, Note_off_c, 1, 70, 0
1, 13980, Note_on_c, 1, 69, 127
1, 14040, Note_on_c, 1, 84, 127
1, 14040, Note_on_c, 1, 63, 127
1, 14050, Note_off_c, 1, 84, 0
1, 14050, Note_on_c, 1, 86, 127
1, 14060, Note_off_c, 1, 86, 0
1, 14069, Note_off_c, 1, 69, 0
1, 14070, Note_on_c, 1, 72, 127
1, 14099, Note_off_c, 1, 72, 0
1, 14130, Note_on_c, 1, 67, 127
1, 14159, Note_off_c, 1, 63, 0
1, 14159, Note_off_c, 1, 67, 0
1, 14190, Note_on_c, 1, 66, 127
1, 14219, Note_off_c, 1, 66, 0
1, 14220, Note_on_c, 1, 64, 127
1, 14250, Note_on_c, 1, 83, 127
1, 14279, Note_off_c, 1, 64, 0
1, 14279, Note_off_c, 1, 83, 0
1, 14310, Note_on_c, 1, 82, 127
1, 14339, Note_off_c, 1, 82, 0
1, 14400, Note_on_c, 1, 66, 127
1, 14400, Note_on_c, 1, 83, 127
1, 14400, Note_on_c, 1, 63, 127
1, 14429, Note_off_c, 1, 66, 0
1, 14430, Note_on_c, 1, 64, 127
1, 14459, Note_off_c, 1, 63, 0
1, 14459, Note_off_c, 1, 64, 0
1, 14460, Note_on_c, 1, 59, 127
1, 14489, Note_off_c, 1, 83, 0
1, 14490, Note_on_c, 1, 81, 127
1, 14519, Note_off_c, 1, 59, 0
1, 14519, Note_off_c, 1, 81, 0
1, 14520, Note_on_c, 1, 63, 127
1, 14520, Note_on_c, 1, 81, 127
1, 14520, Note_on_c, 1, 60, 127
1, 14549, Note_off_c, 1, 63, 0
1, 14549, Note_off_c, 1, 81, 0
1, 14550, Note_on_c, 1, 64, 127
1, 14550, Note_on_c, 1, 79, 127
1, 14579, Note_off_c, 1, 60, 0
1, 14579, Note_off_c, 1, 64, 0
1, 14579, Note_off_c, 1, 79, 0
1, 14580, Note_on_c, 1, 64, 127
1, 14580, Note_on_c, 1, 84, 127
1, 14580, Note_on_c, 1, 57, 127
1, 14609, Note_off_c, 1, 64, 0
1, 14609, Note_off_c, 1, 84, 0
1, 14610, Note_on_c, 1, 66, 127
1, 14610, Note_on_c, 1, 83, 127
1, 14639, Note_off_c, 1, 57, 0
1, 14639, Note_off_c, 1, 66, 0
1, 14639, Note_off_c, 1, 83, 0
1, 14640, Note_on_c, 1, 63, 127
1, 14640, Note_on_c, 1, 81, 127
1, 14640, Note_on_c, 1, 59, 127
1, 14650, Note_off_c, 1, 63, 0
1, 14650, Note_on_c, 1, 64, 127
1, 14660, Note_off_c, 1, 64, 0
1, 14669, Note_off_c, 1, 81, 0
1, 14670, Note_on_c, 1, 79, 127
1, 14699, Note_off_c, 1, 59, 0
1, 14699, Note_off_c, 1, 79, 0
1, 14700, Note_on_c, 1, 78, 127
1, 14700, Note_on_c, 1, 47, 127
1, 14710, Note_off_c, 1, 78, 0
1, 14730, Note_on_c, 1, 76, 127
1, 14759, Note_off_c, 1, 47, 0
1, 14759, Note_off_c, 1, 76, 0
1, 14760, Note_on_c, 1, 64, 127
1, 14760, Note_on_c, 1, 76, 127
1, 14760, Note_on_c, 1, 40, 127
1, 14819, Note_off_c, 1, 76, 0
1, 14820, Note_on_c, 1, 71, 127
1, 14849, Note_off_c, 1, 71, 0
1, 14850, Note_on_c, 1, 69, 127
1, 14879, Note_off_c, 1, 64, 0
1, 14879, Note_off_c, 1, 40, 0
1, 14879, Note_off_c, 1, 69, 0
1, 14880, Note_on_c, 1, 67, 127
1, 14880, Note_on_c, 1, 59, 127
1, 14909, Note_off_c, 1, 67, 0
1, 14909, Note_off_c, 1, 59, 0
1, 14910, Note_on_c, 1, 66, 127
1, 14910, Note_on_c, 1, 57, 127
1, 14939, Note_off_c, 1, 66, 0
1, 14939, Note_off_c, 1, 57, 0
1, 14940, Note_on_c, 1, 59, 127
1, 14940, Note_on_c, 1, 64, 127
1, 14940, Note_on_c, 1, 55, 127
1, 14969, Note_off_c, 1, 59, 0
1, 14969, Note_off_c, 1, 64, 0
1, 14969, Note_off_c, 1, 55, 0
1, 14970, Note_on_c, 1, 57, 127
1, 14970, Note_on_c, 1, 54, 127
1, 14999, Note_off_c, 1, 57, 0
1, 14999, Note_off_c, 1, 54, 0
1, 15000, Note_on_c, 1, 55, 127
1, 15000, Note_on_c, 1, 71, 127
1, 15000, Note_on_c, 1, 52, 127
1, 15029, Note_off_c, 1, 55, 0
1, 15029, Note_off_c, 1, 71, 0
1, 15030, Note_on_c, 1, 54, 127
1, 15059, Note_off_c, 1, 52, 0
1, 15059, Note_off_c, 1, 54, 0
1, 15060, Note_on_c, 1, 52, 127
1, 15060, Note_on_c, 1, 71, 127
1, 15060, Note_on_c, 1, 56, 127
1, 15089, Note_off_c, 1, 52, 0
1, 15089, Note_off_c, 1, 71, 0
1, 15090, Note_on_c, 1, 73, 127
1, 15104, Note_off_c, 1, 73, 0
1, 15105, Note_on_c, 1, 74, 127
1, 15119, Note_off_c, 1, 56, 0
1, 15119, Note_off_c, 1, 74, 0
1, 15120, Note_on_c, 1, 72, 127
1, 15120, Note_on_c, 1, 57, 127
1, 15179, Note_off_c, 1, 72, 0
1, 15179, Note_off_c, 1, 57, 0
1, 15180, Note_on_c, 1, 71, 127
1, 15180, Note_on_c, 1, 52, 127
1, 15190, Note_off_c, 1, 71, 0
1, 15190, Note_on_c, 1, 72, 127
1, 15200, Note_off_c, 1, 72, 0
1, 15209, Note_off_c, 1, 52, 0
1, 15210, Note_on_c, 1, 50, 127
1, 15239, Note_off_c, 1, 50, 0
1, 15240, Note_on_c, 1, 64, 127
1, 15240, Note_on_c, 1, 69, 127
1, 15240, Note_on_c, 1, 48, 127
1, 15269, Note_off_c, 1, 64, 0
1, 15269, Note_off_c, 1, 48, 0
1, 15270, Note_on_c, 1, 62, 127
1, 15270, Note_on_c, 1, 47, 127
1, 15299, Note_off_c, 1, 62, 0
1, 15299, Note_off_c, 1, 47, 0
1, 15300, Note_on_c, 1, 60, 127
1, 15300, Note_on_c, 1, 45, 127
1, 15329, Note_off_c, 1, 60, 0
1, 15330, Note_on_c, 1, 59, 127
1, 15359, Note_off_c, 1, 69, 0
1, 15359, Note_off_c, 1, 59, 0
1, 15360, Note_on_c, 1, 57, 127
1, 15389, Note_off_c, 1, 57, 0
1, 15419, Note_off_c, 1, 45, 0
1, 15420, Note_on_c, 1, 69, 127
1, 15420, Note_on_c, 1, 48, 127
1, 15449, Note_off_c, 1, 69, 0
1, 15450, Note_on_c, 1, 67, 127
1, 15479, Note_off_c, 1, 48, 0
1, 15479, Note_off_c, 1, 67, 0
1, 15480, Note_on_c, 1, 66, 127
1, 15480, Note_on_c, 1, 38, 127
1, 15539, Note_off_c, 1, 66, 0
1, 15540, Note_on_c, 1, 69, 127
1, 15569, Note_off_c, 1, 69, 0
1, 15570, Note_on_c, 1, 67, 127
1, 15599, Note_off_c, 1, 38, 0
1, 15599, Note_off_c, 1, 67, 0
1, 15600, Note_on_c, 1, 66, 127
1, 15600, Note_on_c, 1, 57, 127
1, 15629, Note_off_c, 1, 66, 0
1, 15629, Note_off_c, 1, 57, 0
1, 15630, Note_on_c, 1, 64, 127
1, 15630, Note_on_c, 1, 55, 127
1, 15659, Note_off_c, 1, 64, 0
1, 15659, Note_off_c, 1, 55, 0
1, 15660, Note_on_c, 1, 57, 127
1, 15660, Note_on_c, 1, 62, 127
1, 15660, Note_on_c, 1, 54, 127
1, 15689, Note_off_c, 1, 57, 0
1, 15689, Note_off_c, 1, 62, 0
1, 15689, Note_off_c, 1, 54, 0
1, 15690, Note_on_c, 1, 55, 127
1, 15690, Note_on_c, 1, 52, 127
1, 15719, Note_off_c, 1, 55, 0
1, 15719, Note_off_c, 1, 52, 0
1, 15720, Note_on_c, 1, 54, 127
1, 15720, Note_on_c, 1, 69, 127
1, 15720, Note_on_c, 1, 50, 127
1, 15749, Note_off_c, 1, 54, 0
1, 15749, Note_off_c, 1, 69, 0
1, 15750, Note_on_c, 1, 52, 127
1, 15779, Note_off_c, 1, 50, 0
1, 15779, Note_off_c, 1, 52, 0
1, 15780, Note_on_c, 1, 50, 127
1, 15780, Note_on_c, 1, 69, 127
1, 15780, Note_on_c, 1, 54, 127
1, 15809, Note_off_c, 1, 50, 0
1, 15809, Note_off_c, 1, 69, 0
1, 15810, Note_on_c, 1, 71, 127
1, 15824, Note_off_c, 1, 71, 0
1, 15825, Note_on_c, 1, 72, 127
1, 15839, Note_off_c, 1, 54, 0
1, 15839, Note_off_c, 1, 72, 0
1, 15840, Note_on_c, 1, 71, 127
1, 15840, Note_on_c, 1, 55, 127
1, 15899, Note_off_c, 1, 71, 0
1, 15899, Note_off_c, 1, 55, 0
1, 15900, Note_on_c, 1, 69, 127
1, 15900, Note_on_c, 1, 50, 127
1, 15910, Note_off_c, 1, 69, 0
1, 15910, Note_on_c, 1, 71, 127
1, 15920, Note_off_c, 1, 71, 0
1, 15929, Note_off_c, 1, 50, 0
1, 15930, Note_on_c, 1, 48, 127
1, 15959, Note_off_c, 1, 48, 0
1, 15960, Note_on_c, 1, 62, 127
1, 15960, Note_on_c, 1, 67, 127
1, 15960, Note_on_c, 1, 47, 127
1, 15989, Note_off_c, 1, 62, 0
1, 15989, Note_off_c, 1, 47, 0
1, 15990, Note_on_c, 1, 60, 127
1, 15990, Note_on_c, 1, 45, 127
1, 16019, Note_off_c, 1, 60, 0
1, 16019, Note_off_c, 1, 45, 0
1, 16020, Note_on_c, 1, 59, 127
1, 16020, Note_on_c, 1, 43, 127
1, 16049, Note_off_c, 1, 59, 0
1, 16050, Note_on_c, 1, 57, 127
1, 16079, Note_off_c, 1, 67, 0
1, 16079, Note_off_c, 1, 43, 0
1, 16079, Note_off_c, 1, 57, 0
1, 16080, Note_on_c, 1, 55, 127
1, 16080, Note_on_c, 1, 83, 127
1, 16080, Note_on_c, 1, 45, 127
1, 16109, Note_off_c, 1, 55, 0
1, 16109, Note_off_c, 1, 83, 0
1, 16110, Note_on_c, 1, 81, 127
1, 16139, Note_off_c, 1, 45, 0
1, 16139, Note_off_c, 1, 81, 0
1, 16140, Note_on_c, 1, 79, 127
1, 16140, Note_on_c, 1, 47, 127
1, 16169, Note_off_c, 1, 79, 0
1, 16170, Note_on_c, 1, 77, 127
1, 16199, Note_off_c, 1, 47, 0
1, 16199, Note_off_c, 1, 77, 0
1, 16200, Note_on_c, 1, 67, 127
1, 16200, Note_on_c, 1, 76, 127
1, 16200, Note_on_c, 1, 48, 127
1, 16229, Note_off_c, 1, 67, 0
1, 16229, Note_off_c, 1, 76, 0
1, 16230, Note_on_c, 1, 65, 127
1, 16230, Note_on_c, 1, 74, 127
1, 16259, Note_off_c, 1, 48, 0
1, 16259, Note_off_c, 1, 65, 0
1, 16259, Note_off_c, 1, 74, 0
1, 16260, Note_on_c, 1, 64, 127
1, 16260, Note_on_c, 1, 72, 127
1, 16260, Note_on_c, 1, 50, 127
1, 16289, Note_off_c, 1, 64, 0
1, 16289, Note_off_c, 1, 72, 0
1, 16290, Note_on_c, 1, 62, 127
1, 16290, Note_on_c, 1, 71, 127
1, 16319, Note_off_c, 1, 50, 0
1, 16319, Note_off_c, 1, 62, 0
1, 16319, Note_off_c, 1, 71, 0
1, 16320, Note_on_c, 1, 60, 127
1, 16320, Note_on_c, 1, 72, 127
1, 16320, Note_on_c, 1, 52, 127
1, 16349, Note_off_c, 1, 60, 0
1, 16350, Note_on_c, 1, 59, 127
1, 16379, Note_off_c, 1, 52, 0
1, 16379, Note_off_c, 1, 59, 0
1, 16380, Note_on_c, 1, 45, 127
1, 16409, Note_off_c, 1, 72, 0
1, 16410, Note_on_c, 1, 81, 127
1, 16439, Note_off_c, 1, 45, 0
1, 16439, Note_off_c, 1, 81, 0
1, 16440, Note_on_c, 1, 79, 127
1, 16440, Note_on_c, 1, 47, 127
1, 16469, Note_off_c, 1, 79, 0
1, 16470, Note_on_c, 1, 69, 127
1, 16470, Note_on_c, 1, 78, 127
1, 16499, Note_off_c, 1, 47, 0
1, 16499, Note_off_c, 1, 69, 0
1, 16499, Note_off_c, 1, 78, 0
1, 16500, Note_on_c, 1, 67, 127
1, 16500, Note_on_c, 1, 76, 127
1, 16500, Note_on_c, 1, 48, 127
1, 16529, Note_off_c, 1, 67, 0
1, 16529, Note_off_c, 1, 76, 0
1, 16530, Note_on_c, 1, 66, 127
1, 16530, Note_on_c, 1, 74, 127
1, 16559, Note_off_c, 1, 48, 0
1, 16559, Note_off_c, 1, 66, 0
1, 16559, Note_off_c, 1, 74, 0
1, 16560, Note_on_c, 1, 64, 127
1, 16560, Note_on_c, 1, 72, 127
1, 16560, Note_on_c, 1, 42, 127
1, 16589, Note_off_c, 1, 64, 0
1, 16589, Note_off_c, 1, 72, 0
1, 16590, Note_on_c, 1, 62, 127
1, 16590, Note_on_c, 1, 71, 127
1, 16619, Note_off_c, 1, 42, 0
1, 16619, Note_off_c, 1, 62, 0
1, 16619, Note_off_c, 1, 71, 0
1, 16620, Note_on_c, 1, 60, 127
1, 16620, Note_on_c, 1, 69, 127
1, 16620, Note_on_c, 1, 43, 127
1, 16649, Note_off_c, 1, 60, 0
1, 16649, Note_off_c, 1, 69, 0
1, 16650, Note_on_c, 1, 59, 127
1, 16650, Note_on_c, 1, 67, 127
1, 16679, Note_off_c, 1, 43, 0
1, 16679, Note_off_c, 1, 59, 0
1, 16679, Note_off_c, 1, 67, 0
1, 16680, Note_on_c, 1, 57, 127
1, 16680, Note_on_c, 1, 76, 127
1, 16680, Note_on_c, 1, 45, 127
1, 16709, Note_off_c, 1, 57, 0
1, 16710, Note_on_c, 1, 55, 127
1, 16739, Note_off_c, 1, 45, 0
1, 16739, Note_off_c, 1, 55, 0
1, 16740, Note_on_c, 1, 54, 127
1, 16740, Note_on_c, 1, 38, 127
1, 16769, Note_off_c, 1, 54, 0
1, 16799, Note_off_c, 1, 76, 0
1, 16799, Note_off_c, 1, 38, 0
1, 16800, Note_on_c, 1, 55, 127
1, 16800, Note_on_c, 1, 74, 127
1, 16800, Note_on_c, 1, 40, 127
1, 16829, Note_off_c, 1, 55, 0
1, 16829, Note_off_c, 1, 74, 0
1, 16830, Note_on_c, 1, 57, 127
1, 16859, Note_off_c, 1, 40, 0
1, 16859, Note_off_c, 1, 57, 0
1, 16860, Note_on_c, 1, 57, 127
1, 16860, Note_on_c, 1, 72, 127
1, 16860, Note_on_c, 1, 42, 127
1, 16889, Note_off_c, 1, 72, 0
1, 16919, Note_off_c, 1, 42, 0
1, 16920, Note_on_c, 1, 71, 127
1, 16920, Note_on_c, 1, 43, 127
1, 16949, Note_off_c, 1, 57, 0
1, 16949, Note_off_c, 1, 71, 0
1, 16950, Note_on_c, 1, 54, 127
1, 16979, Note_off_c, 1, 43, 0
1, 16979, Note_off_c, 1, 54, 0
1, 16980, Note_on_c, 1, 55, 127
1, 16980, Note_on_c, 1, 74, 127
1, 16980, Note_on_c, 1, 47, 127
1, 17009, Note_off_c, 1, 74, 0
1, 17039, Note_off_c, 1, 47, 0
1, 17040, Note_on_c, 1, 69, 127
1, 17040, Note_on_c, 1, 48, 127
1, 17069, Note_off_c, 1, 69, 0
1, 17099, Note_off_c, 1, 48, 0
1, 17100, Note_on_c, 1, 71, 127
1, 17100, Note_on_c, 1, 50, 127
1, 17129, Note_off_c, 1, 71, 0
1, 17130, Note_off_c, 1, 55, 0
1, 17130, Note_on_c, 1, 52, 127
1, 17159, Note_off_c, 1, 50, 0
1, 17159, Note_off_c, 1, 52, 0
1, 17160, Note_on_c, 1, 57, 127
1, 17160, Note_on_c, 1, 72, 127
1, 17160, Note_on_c, 1, 48, 127
1, 17189, Note_off_c, 1, 57, 0
1, 17189, Note_off_c, 1, 72, 0
1, 17190, Note_on_c, 1, 71, 127
1, 17219, Note_off_c, 1, 48, 0
1, 17219, Note_off_c, 1, 71, 0
1, 17220, Note_on_c, 1, 54, 127
1, 17220, Note_on_c, 1, 69, 127
1, 17220, Note_on_c, 1, 50, 127
1, 17249, Note_off_c, 1, 69, 0
1, 17250, Note_on_c, 1, 71, 127
1, 17279, Note_off_c, 1, 54, 0
1, 17279, Note_off_c, 1, 50, 0
1, 17279, Note_off_c, 1, 71, 0
1, 17280, Note_on_c, 1, 55, 127
1, 17280, Note_on_c, 1, 67, 127
1, 17280, Note_on_c, 1, 43, 127
1, 17309, Note_off_c, 1, 55, 0
1, 17310, Note_on_c, 1, 59, 127
1, 17339, Note_off_c, 1, 59, 0
1, 17340, Note_on_c, 1, 62, 127
1, 17369, Note_off_c, 1, 62, 0
1, 17370, Note_on_c, 1, 60, 127
1, 17399, Note_off_c, 1, 60, 0
1, 17400, Note_off_c, 1, 43, 0
1, 17430, Note_on_c, 1, 57, 127
1, 17459, Note_off_c, 1, 57, 0
1, 17640, Note_on_c, 1, 41, 127
1, 17760, Note_off_c, 1, 41, 0
1, 18000, Note_on_c, 1, 61, 127
1, 18000, Note_on_c, 1, 40, 127
1, 18060, Note_off_c, 1, 67, 0
1, 18060, Note_on_c, 1, 70, 127
1, 18089, Note_off_c, 1, 70, 0
1, 18090, Note_on_c, 1, 69, 127
1, 18119, Note_off_c, 1, 69, 0
1, 18120, Note_off_c, 1, 40, 0
1, 18150, Note_on_c, 1, 66, 127
1, 18179, Note_off_c, 1, 66, 0
1, 18240, Note_on_c, 1, 64, 127
1, 18269, Note_off_c, 1, 64, 0
1, 18359, Note_off_c, 1, 61, 0
1, 18360, Note_on_c, 1, 60, 127
1, 18360, Note_on_c, 1, 67, 127
1, 18360, Note_on_c, 1, 39, 127
1, 18419, Note_off_c, 1, 67, 0
1, 18420, Note_on_c, 1, 70, 127
1, 18449, Note_off_c, 1, 70, 0
1, 18450, Note_on_c, 1, 69, 127
1, 18479, Note_off_c, 1, 69, 0
1, 18480, Note_off_c, 1, 39, 0
1, 18510, Note_on_c, 1, 66, 127
1, 18539, Note_off_c, 1, 66, 0
1, 18570, Note_on_c, 1, 71, 127
1, 18599, Note_off_c, 1, 71, 0
1, 18600, Note_on_c, 1, 72, 127
1, 18629, Note_off_c, 1, 72, 0
1, 18630, Note_on_c, 1, 75, 127
1, 18659, Note_off_c, 1, 75, 0
1, 18660, Note_on_c, 1, 68, 127
1, 18689, Note_off_c, 1, 68, 0
1, 18720, Note_on_c, 1, 38, 127
1, 18840, Note_off_c, 1, 60, 0
1, 18840, Note_off_c, 1, 38, 0
1, 19080, Note_on_c, 1, 58, 127
1, 19080, Note_on_c, 1, 78, 127
1, 19080, Note_on_c, 1, 37, 127
1, 19090, Note_off_c, 1, 78, 0
1, 19090, Note_on_c, 1, 79, 127
1, 19100, Note_off_c, 1, 79, 0
1, 19100, Note_on_c, 1, 81, 127
1, 19110, Note_off_c, 1, 81, 0
1, 19440, Note_off_c, 1, 58, 0
1, 19440, Note_off_c, 1, 37, 0
1, 19440, Note_on_c, 1, 57, 127
1, 19440, Note_on_c, 1, 38, 127
1, 20160, Note_off_c, 1, 57, 0
1, 20160, Note_off_c, 1, 38, 0
1, 20880, Note_on_c, 1, 43, 127
1, 21000, Note_off_c, 1, 43, 0
1, 21000, Note_on_c, 1, 47, 127
1, 21060, Note_on_c, 1, 62, 127
1, 21120, Note_off_c, 1, 47, 0
1, 21120, Note_off_c, 1, 62, 0
1, 21120, Note_on_c, 1, 67, 127
1, 21150, Note_off_c, 1, 67, 0
1, 21150, Note_on_c, 1, 69, 127
1, 21180, Note_off_c, 1, 69, 0
1, 21180, Note_on_c, 1, 71, 127
1, 21210, Note_off_c, 1, 71, 0
1, 21240, Note_on_c, 1, 50, 127
1, 21255, Note_on_c, 1, 72, 127
1, 21270, Note_off_c, 1, 72, 0
1, 21360, Note_off_c, 1, 50, 0
1, 21360, Note_on_c, 1, 54, 127
1, 21420, Note_on_c, 1, 66, 127
1, 21450, Note_off_c, 1, 66, 0
1, 21480, Note_off_c, 1, 54, 0
1, 21600, Note_on_c, 1, 55, 127
1, 21615, Note_on_c, 1, 74, 127
1, 21630, Note_off_c, 1, 74, 0
1, 21720, Note_off_c, 1, 55, 0
1, 21780, Note_on_c, 1, 59, 127
1, 21840, Note_off_c, 1, 59, 0
1, 21960, Note_on_c, 1, 76, 127
1, 21960, Note_on_c, 1, 60, 127
1, 22020, Note_off_c, 1, 76, 0
1, 22020, Note_off_c, 1, 60, 0
1, 22020, Note_on_c, 1, 79, 127
1, 22050, Note_off_c, 1, 79, 0
1, 22050, Note_on_c, 1, 78, 127
1, 22080, Note_off_c, 1, 78, 0
1, 22200, Note_on_c, 1, 64, 127
1, 22260, Note_off_c, 1, 64, 0
1, 22260, Note_on_c, 1, 52, 127
1, 22320, Note_off_c, 1, 52, 0
1, 22380, Note_on_c, 1, 57, 127
1, 22410, Note_off_c, 1, 57, 0
1, 22710, Note_on_c, 1, 56, 127
1, 22740, Note_off_c, 1, 56, 0
1, 22740, Note_on_c, 1, 73, 127
1, 22770, Note_off_c, 1, 73, 0
1, 22800, Note_on_c, 1, 61, 127
1, 22830, Note_off_c, 1, 61, 0
1, 23280, Note_on_c, 1, 81, 127
1, 23340, Note_off_c, 1, 81, 0
1, 23640, Note_on_c, 1, 83, 127
1, 23700, Note_off_c, 1, 83, 0
1, 24840, Note_on_c, 1, 45, 127
1, 24900, Note_off_c, 1, 45, 0
1, 24960, Note_on_c, 1, 49, 127
1, 25020, Note_off_c, 1, 49, 0
1, 25200, Note_on_c, 1, 42, 127
1, 25260, Note_off_c, 1, 42, 0
1, 25260, Note_on_c, 1, 40, 127
1, 25320, Note_off_c, 1, 40, 0
1, 25320, Note_on_c, 1, 38, 127
1, 25380, Note_off_c, 1, 38, 0
1, 26910, Note_on_c, 1, 48, 127
1, 26940, Note_off_c, 1, 48, 0
1, 27540, Note_on_c, 1, 84, 127
1, 27600, Note_off_c, 1, 84, 0
1, 28080, Note_on_c, 1, 53, 127
1, 28139, Note_off_c, 1, 53, 0
1, 28140, Note_on_c, 1, 57, 127
1, 28140, Note_on_c, 1, 53, 127
1, 28169, Note_off_c, 1, 57, 0
1, 28169, Note_off_c, 1, 53, 0
1, 28170, Note_on_c, 1, 55, 127
1, 28170, Note_on_c, 1, 52, 127
1, 28199, Note_off_c, 1, 55, 0
1, 28199, Note_off_c, 1, 52, 0
1, 28200, Note_on_c, 1, 53, 127
1, 28200, Note_on_c, 1, 83, 127
1, 28200, Note_on_c, 1, 50, 127
1, 28229, Note_off_c, 1, 50, 0
1, 28230, Note_on_c, 1, 48, 127
1, 28259, Note_off_c, 1, 53, 0
1, 28259, Note_off_c, 1, 48, 0
1, 28260, Note_on_c, 1, 62, 127
1, 28260, Note_on_c, 1, 47, 127
1, 28289, Note_off_c, 1, 62, 0
1, 28289, Note_off_c, 1, 47, 0
1, 28290, Note_on_c, 1, 60, 127
1, 28290, Note_on_c, 1, 45, 127
1, 28319, Note_off_c, 1, 60, 0
1, 28319, Note_off_c, 1, 45, 0
1, 28320, Note_on_c, 1, 59, 127
1, 28320, Note_on_c, 1, 43, 127
1, 28349, Note_off_c, 1, 59, 0
1, 28349, Note_off_c, 1, 43, 0
1, 28350, Note_on_c, 1, 57, 127
1, 28350, Note_on_c, 1, 41, 127
1, 28379, Note_off_c, 1, 57, 0
1, 28379, Note_off_c, 1, 41, 0
1, 28380, Note_on_c, 1, 55, 127
1, 28380, Note_on_c, 1, 40, 127
1, 28409, Note_off_c, 1, 55, 0
1, 28409, Note_off_c, 1, 40, 0
1, 28410, Note_on_c, 1, 38, 127
1, 28439, Note_off_c, 1, 38, 0
1, 28440, Note_on_c, 1, 52, 127
1, 28440, Note_on_c, 1, 36, 127
1, 28499, Note_off_c, 1, 83, 0
1, 28499, Note_off_c, 1, 36, 0
1, 28500, Note_on_c, 1, 81, 127
1, 28529, Note_off_c, 1, 81, 0
1, 28530, Note_on_c, 1, 80, 127
1, 28559, Note_off_c, 1, 52, 0
1, 28559, Note_off_c, 1, 80, 0
1, 28560, Note_on_c, 1, 81, 127
1, 28560, Note_on_c, 1, 60, 127
1, 28589, Note_off_c, 1, 81, 0
1, 28590, Note_on_c, 1, 83, 127
1, 28619, Note_off_c, 1, 60, 0
1, 28619, Note_off_c, 1, 83, 0
1, 28620, Note_on_c, 1, 69, 127
1, 28620, Note_on_c, 1, 84, 127
1, 28620, Note_on_c, 1, 60, 127
1, 28649, Note_off_c, 1, 84, 0
1, 28650, Note_on_c, 1, 81, 127
1, 28679, Note_off_c, 1, 69, 0
1, 28679, Note_off_c, 1, 60, 0
1, 28679, Note_off_c, 1, 81, 0
1, 28680, Note_on_c, 1, 67, 127
1, 28680, Note_on_c, 1, 74, 127
1, 28680, Note_on_c, 1, 60, 127
1, 28709, Note_off_c, 1, 67, 0
1, 28710, Note_on_c, 1, 66, 127
1, 28739, Note_off_c, 1, 60, 0
1, 28739, Note_off_c, 1, 66, 0
1, 28740, Note_on_c, 1, 64, 127
1, 28769, Note_off_c, 1, 64, 0
1, 28770, Note_on_c, 1, 62, 127
1, 28799, Note_off_c, 1, 74, 0
1, 28799, Note_off_c, 1, 62, 0
1, 28800, Note_on_c, 1, 67, 127
1, 28800, Note_on_c, 1, 60, 127
1, 28830, Note_on_c, 1, 81, 127
1, 28859, Note_off_c, 1, 60, 0
1, 28859, Note_off_c, 1, 81, 0
1, 28860, Note_on_c, 1, 79, 127
1, 28860, Note_on_c, 1, 59, 127
1, 28889, Note_off_c, 1, 79, 0
1, 28889, Note_off_c, 1, 59, 0
1, 28890, Note_on_c, 1, 78, 127
1, 28890, Note_on_c, 1, 57, 127
1, 28919, Note_off_c, 1, 67, 0
1, 28919, Note_off_c, 1, 78, 0
1, 28919, Note_off_c, 1, 57, 0
1, 28920, Note_on_c, 1, 79, 127
1, 28920, Note_on_c, 1, 59, 127
1, 28949, Note_off_c, 1, 79, 0
1, 28950, Note_on_c, 1, 81, 127
1, 28979, Note_off_c, 1, 59, 0
1, 28979, Note_off_c, 1, 81, 0
1, 28980, Note_on_c, 1, 67, 127
1, 28980, Note_on_c, 1, 83, 127
1, 28980, Note_on_c, 1, 59, 127
1, 29009, Note_off_c, 1, 67, 0
1, 29009, Note_off_c, 1, 83, 0
1, 29010, Note_on_c, 1, 66, 127
1, 29010, Note_on_c, 1, 79, 127
1, 29039, Note_off_c, 1, 59, 0
1, 29039, Note_off_c, 1, 66, 0
1, 29039, Note_off_c, 1, 79, 0
1, 29040, Note_on_c, 1, 64, 127
1, 29040, Note_on_c, 1, 72, 127
1, 29040, Note_on_c, 1, 59, 127
1, 29069, Note_off_c, 1, 64, 0
1, 29070, Note_on_c, 1, 62, 127
1, 29099, Note_off_c, 1, 59, 0
1, 29099, Note_off_c, 1, 62, 0
1, 29100, Note_on_c, 1, 60, 127
1, 29129, Note_off_c, 1, 60, 0
1, 29159, Note_off_c, 1, 72, 0
1, 29160, Note_on_c, 1, 60, 127
1, 29160, Note_on_c, 1, 59, 127
1, 29190, Note_on_c, 1, 79, 127
1, 29219, Note_off_c, 1, 59, 0
1, 29219, Note_off_c, 1, 79, 0
1, 29220, Note_on_c, 1, 78, 127
1, 29220, Note_on_c, 1, 57, 127
1, 29249, Note_off_c, 1, 78, 0
1, 29249, Note_off_c, 1, 57, 0
1, 29250, Note_on_c, 1, 76, 127
1, 29250, Note_on_c, 1, 55, 127
1, 29279, Note_off_c, 1, 60, 0
1, 29279, Note_off_c, 1, 76, 0
1, 29279, Note_off_c, 1, 55, 0
1, 29280, Note_on_c, 1, 78, 127
1, 29280, Note_on_c, 1, 57, 127
1, 29309, Note_off_c, 1, 78, 0
1, 29310, Note_on_c, 1, 79, 127
1, 29339, Note_off_c, 1, 57, 0
1, 29339, Note_off_c, 1, 79, 0
1, 29340, Note_on_c, 1, 81, 127
1, 29340, Note_on_c, 1, 50, 127
1, 29369, Note_off_c, 1, 81, 0
1, 29370, Note_on_c, 1, 78, 127
1, 29399, Note_off_c, 1, 50, 0
1, 29399, Note_off_c, 1, 78, 0
1, 29400, Note_on_c, 1, 71, 127
1, 29400, Note_on_c, 1, 55, 127
1, 29429, Note_off_c, 1, 71, 0
1, 29430, Note_on_c, 1, 76, 127
1, 29459, Note_off_c, 1, 55, 0
1, 29459, Note_off_c, 1, 76, 0
1, 29460, Note_on_c, 1, 74, 127
1, 29460, Note_on_c, 1, 57, 127
1, 29489, Note_off_c, 1, 74, 0
1, 29490, Note_on_c, 1, 72, 127
1, 29519, Note_off_c, 1, 57, 0
1, 29519, Note_off_c, 1, 72, 0
1, 29520, Note_on_c, 1, 74, 127
1, 29520, Note_on_c, 1, 59, 127
1, 29549, Note_off_c, 1, 74, 0
1, 29550, Note_on_c, 1, 76, 127
1, 29579, Note_off_c, 1, 59, 0
1, 29579, Note_off_c, 1, 76, 0
1, 29580, Note_on_c, 1, 78, 127
1, 29580, Note_on_c, 1, 47, 127
1, 29609, Note_off_c, 1, 78, 0
1, 29610, Note_on_c, 1, 74, 127
1, 29639, Note_off_c, 1, 47, 0
1, 29639, Note_off_c, 1, 74, 0
1, 29640, Note_on_c, 1, 67, 127
1, 29640, Note_on_c, 1, 52, 127
1, 29669, Note_off_c, 1, 67, 0
1, 29670, Note_on_c, 1, 72, 127
1, 29699, Note_off_c, 1, 52, 0
1, 29699, Note_off_c, 1, 72, 0
1, 29700, Note_on_c, 1, 71, 127
1, 29700, Note_on_c, 1, 54, 127
1, 29729, Note_off_c, 1, 71, 0
1, 29730, Note_on_c, 1, 69, 127
1, 29759, Note_off_c, 1, 54, 0
1, 29759, Note_off_c, 1, 69, 0
1, 29760, Note_on_c, 1, 62, 127
1, 29760, Note_on_c, 1, 71, 127
1, 29760, Note_on_c, 1, 55, 127
1, 29789, Note_off_c, 1, 71, 0
1, 29790, Note_on_c, 1, 72, 127
1, 29819, Note_off_c, 1, 55, 0
1, 29819, Note_off_c, 1, 72, 0
1, 29820, Note_on_c, 1, 74, 127
1, 29820, Note_on_c, 1, 43, 127
1, 29849, Note_off_c, 1, 74, 0
1, 29879, Note_off_c, 1, 43, 0
1, 29880, Note_on_c, 1, 64, 127
1, 29880, Note_on_c, 1, 48, 127
1, 29909, Note_off_c, 1, 64, 0
1, 29910, Note_on_c, 1, 66, 127
1, 29939, Note_off_c, 1, 62, 0
1, 29939, Note_off_c, 1, 48, 0
1, 29939, Note_off_c, 1, 66, 0
1, 29940, Note_on_c, 1, 60, 127
1, 29940, Note_on_c, 1, 67, 127
1, 29940, Note_on_c, 1, 52, 127
1, 29969, Note_off_c, 1, 60, 0
1, 29969, Note_off_c, 1, 52, 0
1, 29970, Note_on_c, 1, 59, 127
1, 29970, Note_on_c, 1, 50, 127
1, 29999, Note_off_c, 1, 59, 0
1, 29999, Note_off_c, 1, 50, 0
1, 30029, Note_off_c, 1, 67, 0
1, 30030, Note_on_c, 1, 62, 127
1, 30030, Note_on_c, 1, 71, 127
1, 30059, Note_off_c, 1, 62, 0
1, 30059, Note_off_c, 1, 71, 0
1, 30060, Note_on_c, 1, 64, 127
1, 30060, Note_on_c, 1, 69, 127
1, 30060, Note_on_c, 1, 48, 127
1, 30089, Note_off_c, 1, 64, 0
1, 30090, Note_on_c, 1, 60, 127
1, 30119, Note_off_c, 1, 48, 0
1, 30119, Note_off_c, 1, 60, 0
1, 30120, Note_on_c, 1, 54, 127
1, 30120, Note_on_c, 1, 50, 127
1, 30149, Note_off_c, 1, 69, 0
1, 30149, Note_off_c, 1, 54, 0
1, 30150, Note_on_c, 1, 59, 127
1, 30150, Note_on_c, 1, 71, 127
1, 30179, Note_off_c, 1, 50, 0
1, 30179, Note_off_c, 1, 59, 0
1, 30179, Note_off_c, 1, 71, 0
1, 30180, Note_on_c, 1, 57, 127
1, 30180, Note_on_c, 1, 72, 127
1, 30180, Note_on_c, 1, 52, 127
1, 30209, Note_off_c, 1, 57, 0
1, 30210, Note_on_c, 1, 55, 127
1, 30239, Note_off_c, 1, 52, 0
1, 30239, Note_off_c, 1, 55, 0
1, 30240, Note_on_c, 1, 42, 127
1, 30269, Note_off_c, 1, 72, 0
1, 30270, Note_on_c, 1, 59, 127
1, 30270, Note_on_c, 1, 76, 127
1, 30299, Note_off_c, 1, 42, 0
1, 30299, Note_off_c, 1, 59, 0
1, 30299, Note_off_c, 1, 76, 0
1, 30300, Note_on_c, 1, 60, 127
1, 30300, Note_on_c, 1, 74, 127
1, 30300, Note_on_c, 1, 54, 127
1, 30329, Note_off_c, 1, 60, 0
1, 30330, Note_on_c, 1, 57, 127
1, 30359, Note_off_c, 1, 54, 0
1, 30359, Note_off_c, 1, 57, 0
1, 30360, Note_on_c, 1, 50, 127
1, 30360, Note_on_c, 1, 59, 127
1, 30389, Note_off_c, 1, 74, 0
1, 30389, Note_off_c, 1, 50, 0
1, 30390, Note_on_c, 1, 55, 127
1, 30390, Note_on_c, 1, 71, 127
1, 30419, Note_off_c, 1, 59, 0
1, 30419, Note_off_c, 1, 55, 0
1, 30419, Note_off_c, 1, 71, 0
1, 30420, Note_on_c, 1, 54, 127
1, 30420, Note_on_c, 1, 72, 127
1, 30420, Note_on_c, 1, 57, 127
1, 30449, Note_off_c, 1, 54, 0
1, 30449, Note_off_c, 1, 57, 0
1, 30450, Note_on_c, 1, 52, 127
1, 30450, Note_on_c, 1, 55, 127
1, 30479, Note_off_c, 1, 52, 0
1, 30479, Note_off_c, 1, 55, 0
1, 30509, Note_off_c, 1, 72, 0
1, 30510, Note_on_c, 1, 79, 127
1, 30539, Note_off_c, 1, 79, 0
1, 30540, Note_on_c, 1, 57, 127
1, 30540, Note_on_c, 1, 78, 127
1, 30540, Note_on_c, 1, 51, 127
1, 30569, Note_off_c, 1, 57, 0
1, 30570, Note_on_c, 1, 54, 127
1, 30599, Note_off_c, 1, 78, 0
1, 30599, Note_off_c, 1, 51, 0
1, 30599, Note_off_c, 1, 54, 0
1, 30600, Note_on_c, 1, 47, 127
1, 30600, Note_on_c, 1, 79, 127
1, 30600, Note_on_c, 1, 52, 127
1, 30659, Note_off_c, 1, 47, 0
1, 30659, Note_off_c, 1, 79, 0
1, 30659, Note_off_c, 1, 52, 0
1, 30660, Note_on_c, 1, 78, 127
1, 30660, Note_on_c, 1, 57, 127
1, 30689, Note_off_c, 1, 78, 0
1, 30689, Note_off_c, 1, 57, 0
1, 30690, Note_on_c, 1, 76, 127
1, 30690, Note_on_c, 1, 55, 127
1, 30719, Note_off_c, 1, 76, 0
1, 30719, Note_off_c, 1, 55, 0
1, 30720, Note_on_c, 1, 74, 127
1, 30720, Note_on_c, 1, 54, 127
1, 30749, Note_off_c, 1, 74, 0
1, 30749, Note_off_c, 1, 54, 0
1, 30750, Note_on_c, 1, 72, 127
1, 30750, Note_on_c, 1, 57, 127
1, 30779, Note_off_c, 1, 72, 0
1, 30779, Note_off_c, 1, 57, 0
1, 30780, Note_on_c, 1, 71, 127
1, 30780, Note_on_c, 1, 62, 127
1, 30809, Note_off_c, 1, 71, 0
1, 30809, Note_off_c, 1, 62, 0
1, 30810, Note_on_c, 1, 69, 127
1, 30810, Note_on_c, 1, 60, 127
1, 30839, Note_off_c, 1, 69, 0
1, 30839, Note_off_c, 1, 60, 0
1, 30840, Note_on_c, 1, 67, 127
1, 30840, Note_on_c, 1, 59, 127
1, 30869, Note_off_c, 1, 67, 0
1, 30869, Note_off_c, 1, 59, 0
1, 30870, Note_on_c, 1, 69, 127
1, 30870, Note_on_c, 1, 57, 127
1, 30899, Note_off_c, 1, 69, 0
1, 30899, Note_off_c, 1, 57, 0
1, 30900, Note_on_c, 1, 55, 127
1, 30900, Note_on_c, 1, 71, 127
1, 30929, Note_off_c, 1, 71, 0
1, 30960, Note_on_c, 1, 60, 127
1, 30975, Note_on_c, 1, 72, 127
1, 30989, Note_off_c, 1, 55, 0
1, 30990, Note_off_c, 1, 72, 0
1, 30990, Note_on_c, 1, 52, 127
1, 31019, Note_off_c, 1, 60, 0
1, 31019, Note_off_c, 1, 52, 0
1, 31020, Note_on_c, 1, 54, 127
1, 31020, Note_on_c, 1, 69, 127
1, 31020, Note_on_c, 1, 48, 127
1, 31049, Note_off_c, 1, 54, 0
1, 31049, Note_off_c, 1, 48, 0
1, 31050, Note_on_c, 1, 47, 127
1, 31079, Note_off_c, 1, 69, 0
1, 31079, Note_off_c, 1, 47, 0
1, 31080, Note_on_c, 1, 57, 127
1, 31080, Note_on_c, 1, 69, 127
1, 31080, Note_on_c, 1, 48, 127
1, 31109, Note_off_c, 1, 57, 0
1, 31110, Note_on_c, 1, 59, 127
1, 31139, Note_off_c, 1, 69, 0
1, 31139, Note_off_c, 1, 48, 0
1, 31139, Note_off_c, 1, 59, 0
1, 31140, Note_on_c, 1, 60, 127
1, 31140, Note_on_c, 1, 66, 127
1, 31140, Note_on_c, 1, 45, 127
1, 31169, Note_off_c, 1, 60, 0
1, 31169, Note_off_c, 1, 66, 0
1, 31170, Note_on_c, 1, 67, 127
1, 31199, Note_off_c, 1, 45, 0
1, 31199, Note_off_c, 1, 67, 0
1, 31200, Note_on_c, 1, 50, 127
1, 31200, Note_on_c, 1, 69, 127
1, 31229, Note_off_c, 1, 69, 0
1, 31230, Note_on_c, 1, 71, 127
1, 31259, Note_off_c, 1, 50, 0
1, 31259, Note_off_c, 1, 71, 0
1, 31260, Note_on_c, 1, 54, 127
1, 31260, Note_on_c, 1, 72, 127
1, 31260, Note_on_c, 1, 38, 127
1, 31274, Note_off_c, 1, 54, 0
1, 31275, Note_on_c, 1, 52, 127
1, 31289, Note_off_c, 1, 72, 0
1, 31289, Note_off_c, 1, 52, 0
1, 31319, Note_off_c, 1, 38, 0
1, 31320, Note_on_c, 1, 55, 127
1, 31320, Note_on_c, 1, 72, 127
1, 31320, Note_on_c, 1, 43, 127
1, 31335, Note_off_c, 1, 72, 0
1, 31335, Note_on_c, 1, 74, 127
1, 31349, Note_off_c, 1, 55, 0
1, 31350, Note_off_c, 1, 74, 0
1, 31350, Note_on_c, 1, 50, 127
1, 31379, Note_off_c, 1, 50, 0
1, 31380, Note_on_c, 1, 52, 127
1, 31380, Note_on_c, 1, 71, 127
1, 31409, Note_off_c, 1, 52, 0
1, 31410, Note_on_c, 1, 54, 127
1, 31439, Note_off_c, 1, 43, 0
1, 31439, Note_off_c, 1, 71, 0
1, 31439, Note_off_c, 1, 54, 0
1, 31440, Note_on_c, 1, 55, 127
1, 31440, Note_on_c, 1, 71, 127
1, 31469, Note_off_c, 1, 55, 0
1, 31470, Note_on_c, 1, 57, 127
1, 31499, Note_off_c, 1, 71, 0
1, 31499, Note_off_c, 1, 57, 0
1, 31500, Note_on_c, 1, 59, 127
1, 31500, Note_on_c, 1, 74, 127
1, 31529, Note_off_c, 1, 59, 0
1, 31530, Note_on_c, 1, 60, 127
1, 31559, Note_off_c, 1, 74, 0
1, 31559, Note_off_c, 1, 60, 0
1, 31560, Note_on_c, 1, 62, 127
1, 31560, Note_on_c, 1, 72, 127
1, 31560, Note_on_c, 1, 43, 127
1, 31589, Note_off_c, 1, 62, 0
1, 31589, Note_off_c, 1, 72, 0
1, 31590, Note_on_c, 1, 71, 127
1, 31619, Note_off_c, 1, 71, 0
1, 31620, Note_on_c, 1, 59, 127
1, 31620, Note_on_c, 1, 69, 127
1, 31649, Note_off_c, 1, 59, 0
1, 31649, Note_off_c, 1, 69, 0
1, 31650, Note_on_c, 1, 67, 127
1, 31679, Note_off_c, 1, 43, 0
1, 31679, Note_off_c, 1, 67, 0
1, 31680, Note_on_c, 1, 55, 127
1, 31680, Note_on_c, 1, 76, 127
1, 31680, Note_on_c, 1, 48, 127
1, 31709, Note_off_c, 1, 55, 0
1, 31739, Note_off_c, 1, 76, 0
1, 31740, Note_on_c, 1, 52, 127
1, 31740, Note_on_c, 1, 79, 127
1, 31769, Note_off_c, 1, 52, 0
1, 31769, Note_off_c, 1, 79, 0
1, 31770, Note_on_c, 1, 78, 127
1, 31799, Note_off_c, 1, 48, 0
1, 31799, Note_off_c, 1, 78, 0
1, 31800, Note_on_c, 1, 57, 127
1, 31800, Note_on_c, 1, 76, 127
1, 31829, Note_off_c, 1, 57, 0
1, 31830, Note_on_c, 1, 59, 127
1, 31859, Note_off_c, 1, 76, 0
1, 31859, Note_off_c, 1, 59, 0
1, 31860, Note_on_c, 1, 60, 127
1, 31860, Note_on_c, 1, 74, 127
1, 31889, Note_off_c, 1, 60, 0
1, 31890, Note_on_c, 1, 62, 127
1, 31919, Note_off_c, 1, 74, 0
1, 31919, Note_off_c, 1, 62, 0
1, 31920, Note_on_c, 1, 64, 127
1, 31920, Note_on_c, 1, 72, 127
1, 31920, Note_on_c, 1, 45, 127
1, 31949, Note_off_c, 1, 64, 0
1, 31949, Note_off_c, 1, 72, 0
1, 31950, Note_on_c, 1, 62, 127
1, 31950, Note_on_c, 1, 71, 127
1, 31979, Note_off_c, 1, 62, 0
1, 31979, Note_off_c, 1, 71, 0
1, 31980, Note_on_c, 1, 60, 127
1, 31980, Note_on_c, 1, 69, 127
1, 32009, Note_off_c, 1, 60, 0
1, 32009, Note_off_c, 1, 69, 0
1, 32010, Note_on_c, 1, 59, 127
1, 32010, Note_on_c, 1, 67, 127
1, 32039, Note_off_c, 1, 45, 0
1, 32039, Note_off_c, 1, 59, 0
1, 32039, Note_off_c, 1, 67, 0
1, 32040, Note_on_c, 1, 57, 127
1, 32040, Note_on_c, 1, 78, 127
1, 32040, Note_on_c, 1, 50, 127
1, 32069, Note_off_c, 1, 57, 0
1, 32069, Note_off_c, 1, 78, 0
1, 32070, Note_on_c, 1, 60, 127
1, 32070, Note_on_c, 1, 76, 127
1, 32099, Note_off_c, 1, 50, 0
1, 32099, Note_off_c, 1, 60, 0
1, 32099, Note_off_c, 1, 76, 0
1, 32100, Note_on_c, 1, 59, 127
1, 32100, Note_on_c, 1, 74, 127
1, 32100, Note_on_c, 1, 54, 127
1, 32129, Note_off_c, 1, 59, 0
1, 32129, Note_off_c, 1, 74, 0
1, 32130, Note_on_c, 1, 57, 127
1, 32130, Note_on_c, 1, 81, 127
1, 32159, Note_off_c, 1, 54, 0
1, 32159, Note_off_c, 1, 57, 0
1, 32159, Note_off_c, 1, 81, 0
1, 32160, Note_on_c, 1, 55, 127
1, 32160, Note_on_c, 1, 72, 127
1, 32189, Note_off_c, 1, 72, 0
1, 32190, Note_on_c, 1, 54, 127
1, 32190, Note_on_c, 1, 71, 127
1, 32219, Note_off_c, 1, 55, 0
1, 32219, Note_off_c, 1, 54, 0
1, 32220, Note_on_c, 1, 48, 127
1, 32249, Note_off_c, 1, 71, 0
1, 32250, Note_on_c, 1, 57, 127
1, 32250, Note_on_c, 1, 69, 127
1, 32279, Note_off_c, 1, 48, 0
1, 32279, Note_off_c, 1, 57, 0
1, 32279, Note_off_c, 1, 69, 0
1, 32280, Note_on_c, 1, 54, 127
1, 32280, Note_on_c, 1, 69, 127
1, 32280, Note_on_c, 1, 50, 127
1, 32295, Note_off_c, 1, 54, 0
1, 32295, Note_off_c, 1, 69, 0
1, 32295, Note_on_c, 1, 55, 127
1, 32295, Note_on_c, 1, 71, 127
1, 32310, Note_off_c, 1, 55, 0
1, 32310, Note_off_c, 1, 71, 0
1, 32339, Note_off_c, 1, 50, 0
1, 32340, Note_on_c, 1, 38, 127
1, 32370, Note_on_c, 1, 67, 127
1, 32399, Note_off_c, 1, 38, 0
1, 32399, Note_off_c, 1, 67, 0
1, 32400, Note_on_c, 1, 55, 127
1, 32400, Note_on_c, 1, 67, 127
1, 32400, Note_on_c, 1, 43, 127
1, 32459, Note_off_c, 1, 43, 0
1, 32460, Note_on_c, 1, 59, 127
1, 32489, Note_off_c, 1, 59, 0
1, 32490, Note_on_c, 1, 57, 127
1, 32519, Note_off_c, 1, 55, 0
1, 32519, Note_off_c, 1, 67, 0
1, 32519, Note_off_c, 1, 57, 0
1, 32520, Note_on_c, 1, 55, 127
1, 32549, Note_off_c, 1, 55, 0
1, 32550, Note_on_c, 1, 54, 127
1, 32579, Note_off_c, 1, 54, 0
1, 32580, Note_on_c, 1, 79, 127
1, 32580, Note_on_c, 1, 52, 127
1, 32639, Note_off_c, 1, 79, 0
1, 32640, Note_on_c, 1, 74, 127
1, 32669, Note_off_c, 1, 74, 0
1, 32670, Note_on_c, 1, 72, 127
1, 32699, Note_off_c, 1, 52, 0
1, 32699, Note_off_c, 1, 72, 0
1, 32700, Note_on_c, 1, 71, 127
1, 32700, Note_on_c, 1, 54, 127
1, 32729, Note_off_c, 1, 71, 0
1, 32729, Note_off_c, 1, 54, 0
1, 32730, Note_on_c, 1, 56, 127
1, 32759, Note_off_c, 1, 56, 0
1, 32760, Note_on_c, 1, 71, 127
1, 32760, Note_on_c, 1, 57, 127
1, 32789, Note_off_c, 1, 57, 0
1, 32790, Note_on_c, 1, 59, 127
1, 32819, Note_off_c, 1, 71, 0
1, 32819, Note_off_c, 1, 59, 0
1, 32820, Note_on_c, 1, 72, 127
1, 32820, Note_on_c, 1, 57, 127
1, 32849, Note_off_c, 1, 57, 0
1, 32850, Note_on_c, 1, 55, 127
1, 32879, Note_off_c, 1, 72, 0
1, 32879, Note_off_c, 1, 55, 0
1, 32880, Note_on_c, 1, 72, 127
1, 32880, Note_on_c, 1, 54, 127
1, 32909, Note_off_c, 1, 54, 0
1, 32910, Note_on_c, 1, 52, 127
1, 32939, Note_off_c, 1, 72, 0
1, 32939, Note_off_c, 1, 52, 0
1, 32940, Note_on_c, 1, 76, 127
1, 32940, Note_on_c, 1, 50, 127
1, 32969, Note_off_c, 1, 76, 0
1, 32970, Note_on_c, 1, 74, 127
1, 32999, Note_off_c, 1, 74, 0
1, 33000, Note_on_c, 1, 72, 127
1, 33029, Note_off_c, 1, 72, 0
1, 33030, Note_on_c, 1, 71, 127
1, 33059, Note_off_c, 1, 50, 0
1, 33059, Note_off_c, 1, 71, 0
1, 33060, Note_on_c, 1, 69, 127
1, 33060, Note_on_c, 1, 52, 127
1, 33089, Note_off_c, 1, 69, 0
1, 33089, Note_off_c, 1, 52, 0
1, 33090, Note_on_c, 1, 54, 127
1, 33119, Note_off_c, 1, 54, 0
1, 33120, Note_on_c, 1, 69, 127
1, 33120, Note_on_c, 1, 55, 127
1, 33149, Note_off_c, 1, 55, 0
1, 33150, Note_on_c, 1, 57, 127
1, 33179, Note_off_c, 1, 69, 0
1, 33179, Note_off_c, 1, 57, 0
1, 33180, Note_on_c, 1, 71, 127
1, 33180, Note_on_c, 1, 55, 127
1, 33209, Note_off_c, 1, 55, 0
1, 33210, Note_on_c, 1, 54, 127
1, 33239, Note_off_c, 1, 71, 0
1, 33239, Note_off_c, 1, 54, 0
1, 33240, Note_on_c, 1, 71, 127
1, 33240, Note_on_c, 1, 52, 127
1, 33269, Note_off_c, 1, 52, 0
1, 33270, Note_on_c, 1, 50, 127
1, 33299, Note_off_c, 1, 50, 0
1, 33300, Note_on_c, 1, 64, 127
1, 33300, Note_on_c, 1, 49, 127
1, 33359, Note_off_c, 1, 71, 0
1, 33359, Note_off_c, 1, 64, 0
1, 33360, Note_on_c, 1, 59, 127
1, 33360, Note_on_c, 1, 76, 127
1, 33375, Note_off_c, 1, 76, 0
1, 33375, Note_on_c, 1, 74, 127
1, 33389, Note_off_c, 1, 59, 0
1, 33390, Note_off_c, 1, 74, 0
1, 33390, Note_on_c, 1, 57, 127
1, 33419, Note_off_c, 1, 49, 0
1, 33419, Note_off_c, 1, 57, 0
1, 33420, Note_on_c, 1, 55, 127
1, 33420, Note_on_c, 1, 51, 127
1, 33449, Note_off_c, 1, 51, 0
1, 33479, Note_off_c, 1, 55, 0
1, 33480, Note_on_c, 1, 54, 127
1, 33509, Note_off_c, 1, 54, 0
1, 33540, Note_on_c, 1, 75, 127
1, 33569, Note_off_c, 1, 75, 0
1, 33600, Note_on_c, 1, 57, 127
1, 33600, Note_on_c, 1, 78, 127
1, 33600, Note_on_c, 1, 51, 127
1, 33629, Note_off_c, 1, 51, 0
1, 33630, Note_on_c, 1, 49, 127
1, 33659, Note_off_c, 1, 57, 0
1, 33659, Note_off_c, 1, 78, 0
1, 33659, Note_off_c, 1, 49, 0
1, 33660, Note_on_c, 1, 60, 127
1, 33660, Note_on_c, 1, 75, 127
1, 33660, Note_on_c, 1, 47, 127
1, 33689, Note_off_c, 1, 60, 0
1, 33690, Note_on_c, 1, 59, 127
1, 33719, Note_off_c, 1, 75, 0
1, 33719, Note_off_c, 1, 59, 0
1, 33720, Note_on_c, 1, 57, 127
1, 33720, Note_on_c, 1, 71, 127
1, 33749, Note_off_c, 1, 57, 0
1, 33750, Note_on_c, 1, 55, 127
1, 33779, Note_off_c, 1, 47, 0
1, 33779, Note_off_c, 1, 55, 0
1, 33780, Note_on_c, 1, 54, 127
1, 33780, Note_on_c, 1, 49, 127
1, 33809, Note_off_c, 1, 54, 0
1, 33809, Note_off_c, 1, 49, 0
1, 33810, Note_on_c, 1, 51, 127
1, 33839, Note_off_c, 1, 51, 0
1, 33840, Note_on_c, 1, 52, 127
1, 33870, Note_off_c, 1, 71, 0
1, 33870, Note_on_c, 1, 72, 127
1, 33899, Note_off_c, 1, 52, 0
1, 33899, Note_off_c, 1, 72, 0
1, 33900, Note_on_c, 1, 55, 127
1, 33900, Note_on_c, 1, 71, 127
1, 33900, Note_on_c, 1, 40, 127
1, 33929, Note_off_c, 1, 71, 0
1, 33930, Note_on_c, 1, 69, 127
1, 33959, Note_off_c, 1, 55, 0
1, 33959, Note_off_c, 1, 40, 0
1, 33959, Note_off_c, 1, 69, 0
1, 33960, Note_on_c, 1, 55, 127
1, 33960, Note_on_c, 1, 71, 127
1, 33989, Note_off_c, 1, 71, 0
1, 33990, Note_on_c, 1, 75, 127
1, 33990, Note_on_c, 1, 47, 127
1, 34019, Note_off_c, 1, 75, 0
1, 34019, Note_off_c, 1, 47, 0
1, 34020, Note_on_c, 1, 76, 127
1, 34020, Note_on_c, 1, 49, 127
1, 34049, Note_off_c, 1, 76, 0
1, 34049, Note_off_c, 1, 49, 0
1, 34050, Note_on_c, 1, 78, 127
1, 34050, Note_on_c, 1, 51, 127
1, 34079, Note_off_c, 1, 55, 0
1, 34079, Note_off_c, 1, 78, 0
1, 34079, Note_off_c, 1, 51, 0
1, 34080, Note_on_c, 1, 79, 127
1, 34080, Note_on_c, 1, 52, 127
1, 34109, Note_off_c, 1, 52, 0
1, 34110, Note_on_c, 1, 54, 127
1, 34139, Note_off_c, 1, 79, 0
1, 34139, Note_off_c, 1, 54, 0
1, 34140, Note_on_c, 1, 59, 127
1, 34140, Note_on_c, 1, 76, 127
1, 34140, Note_on_c, 1, 55, 127
1, 34169, Note_off_c, 1, 55, 0
1, 34199, Note_off_c, 1, 59, 0
1, 34199, Note_off_c, 1, 76, 0
1, 34200, Note_on_c, 1, 64, 127
1, 34200, Note_on_c, 1, 73, 127
1, 34200, Note_on_c, 1, 55, 127
1, 34215, Note_off_c, 1, 55, 0
1, 34215, Note_on_c, 1, 57, 127
1, 34229, Note_off_c, 1, 73, 0
1, 34230, Note_off_c, 1, 57, 0
1, 34230, Note_on_c, 1, 71, 127
1, 34259, Note_off_c, 1, 64, 0
1, 34259, Note_off_c, 1, 71, 0
1, 34260, Note_on_c, 1, 66, 127
1, 34260, Note_on_c, 1, 69, 127
1, 34260, Note_on_c, 1, 54, 127
1, 34289, Note_off_c, 1, 66, 0
1, 34289, Note_off_c, 1, 69, 0
1, 34290, Note_on_c, 1, 67, 127
1, 34290, Note_on_c, 1, 71, 127
1, 34319, Note_off_c, 1, 54, 0
1, 34319, Note_off_c, 1, 67, 0
1, 34319, Note_off_c, 1, 71, 0
1, 34320, Note_on_c, 1, 69, 127
1, 34320, Note_on_c, 1, 73, 127
1, 34320, Note_on_c, 1, 54, 127
1, 34349, Note_off_c, 1, 69, 0
1, 34349, Note_off_c, 1, 73, 0
1, 34350, Note_on_c, 1, 71, 127
1, 34350, Note_on_c, 1, 76, 127
1, 34379, Note_off_c, 1, 54, 0
1, 34379, Note_off_c, 1, 71, 0
1, 34379, Note_off_c, 1, 76, 0
1, 34380, Note_on_c, 1, 69, 127
1, 34380, Note_on_c, 1, 78, 127
1, 34380, Note_on_c, 1, 51, 127
1, 34409, Note_off_c, 1, 69, 0
1, 34409, Note_off_c, 1, 78, 0
1, 34409, Note_off_c, 1, 51, 0
1, 34410, Note_on_c, 1, 67, 127
1, 34410, Note_on_c, 1, 79, 127
1, 34410, Note_on_c, 1, 52, 127
1, 34439, Note_off_c, 1, 67, 0
1, 34439, Note_off_c, 1, 79, 0
1, 34439, Note_off_c, 1, 52, 0
1, 34440, Note_on_c, 1, 66, 127
1, 34440, Note_on_c, 1, 81, 127
1, 34440, Note_on_c, 1, 54, 127
1, 34469, Note_off_c, 1, 66, 0
1, 34469, Note_off_c, 1, 54, 0
1, 34470, Note_on_c, 1, 64, 127
1, 34470, Note_on_c, 1, 55, 127
1, 34499, Note_off_c, 1, 81, 0
1, 34499, Note_off_c, 1, 64, 0
1, 34499, Note_off_c, 1, 55, 0
1, 34500, Note_on_c, 1, 63, 127
1, 34500, Note_on_c, 1, 78, 127
1, 34500, Note_on_c, 1, 57, 127
1, 34529, Note_off_c, 1, 63, 0
1, 34529, Note_off_c, 1, 57, 0
1, 34530, Note_on_c, 1, 61, 127
1, 34559, Note_off_c, 1, 78, 0
1, 34559, Note_off_c, 1, 61, 0
1, 34560, Note_on_c, 1, 59, 127
1, 34560, Note_on_c, 1, 76, 127
1, 34560, Note_on_c, 1, 57, 127
1, 34575, Note_off_c, 1, 57, 0
1, 34589, Note_off_c, 1, 76, 0
1, 34590, Note_on_c, 1, 75, 127
1, 34619, Note_off_c, 1, 75, 0
1, 34620, Note_on_c, 1, 73, 127
1, 34620, Note_on_c, 1, 55, 127
1, 34649, Note_off_c, 1, 73, 0
1, 34650, Note_on_c, 1, 71, 127
1, 34679, Note_off_c, 1, 59, 0
1, 34679, Note_off_c, 1, 55, 0
1, 34679, Note_off_c, 1, 71, 0
1, 34680, Note_on_c, 1, 76, 127
1, 34680, Note_on_c, 1, 55, 127
1, 34710, Note_on_c, 1, 64, 127
1, 34739, Note_off_c, 1, 55, 0
1, 34739, Note_off_c, 1, 64, 0
1, 34740, Note_on_c, 1, 62, 127
1, 34740, Note_on_c, 1, 59, 127
1, 34769, Note_off_c, 1, 62, 0
1, 34799, Note_off_c, 1, 59, 0
1, 34800, Note_on_c, 1, 60, 127
1, 34800, Note_on_c, 1, 57, 127
1, 34829, Note_off_c, 1, 60, 0
1, 34829, Note_off_c, 1, 57, 0
1, 34860, Note_on_c, 1, 54, 127
1, 34889, Note_off_c, 1, 54, 0
1, 34890, Note_on_c, 1, 52, 127
1, 34919, Note_off_c, 1, 52, 0
1, 35220, Note_off_c, 1, 76, 0
1, 35280, Note_on_c, 1, 51, 127
1, 35280, Note_on_c, 1, 69, 127
1, 35339, Note_off_c, 1, 51, 0
1, 35370, Note_on_c, 1, 49, 127
1, 35399, Note_off_c, 1, 49, 0
1, 35400, Note_on_c, 1, 48, 127
1, 35430, Note_off_c, 1, 69, 0
1, 35430, Note_on_c, 1, 72, 127
1, 35459, Note_off_c, 1, 48, 0
1, 35459, Note_off_c, 1, 72, 0
1, 35460, Note_on_c, 1, 71, 127
1, 35489, Note_off_c, 1, 71, 0
1, 35520, Note_on_c, 1, 67, 127
1, 35549, Note_off_c, 1, 67, 0
1, 35550, Note_on_c, 1, 66, 127
1, 35579, Note_off_c, 1, 66, 0
1, 35580, Note_on_c, 1, 55, 127
1, 35580, Note_on_c, 1, 64, 127
1, 35609, Note_off_c, 1, 64, 0
1, 35610, Note_on_c, 1, 54, 127
1, 35610, Note_on_c, 1, 66, 127
1, 35639, Note_off_c, 1, 55, 0
1, 35639, Note_off_c, 1, 54, 0
1, 35639, Note_off_c, 1, 66, 0
1, 35640, Note_on_c, 1, 52, 127
1, 35640, Note_on_c, 1, 67, 127
1, 35640, Note_on_c, 1, 48, 127
1, 35669, Note_off_c, 1, 52, 0
1, 35669, Note_off_c, 1, 67, 0
1, 35670, Note_on_c, 1, 54, 127
1, 35670, Note_on_c, 1, 69, 127
1, 35699, Note_off_c, 1, 48, 0
1, 35699, Note_off_c, 1, 54, 0
1, 35699, Note_off_c, 1, 69, 0
1, 35700, Note_on_c, 1, 55, 127
1, 35700, Note_on_c, 1, 71, 127
1, 35700, Note_on_c, 1, 47, 127
1, 35729, Note_off_c, 1, 55, 0
1, 35729, Note_off_c, 1, 71, 0
1, 35730, Note_on_c, 1, 57, 127
1, 35730, Note_on_c, 1, 73, 127
1, 35759, Note_off_c, 1, 47, 0
1, 35759, Note_off_c, 1, 57, 0
1, 35759, Note_off_c, 1, 73, 0
1, 35760, Note_on_c, 1, 59, 127
1, 35760, Note_on_c, 1, 75, 127
1, 35760, Note_on_c, 1, 45, 127
1, 35789, Note_off_c, 1, 59, 0
1, 35789, Note_off_c, 1, 75, 0
1, 35790, Note_on_c, 1, 57, 127
1, 35790, Note_on_c, 1, 71, 127
1, 35819, Note_off_c, 1, 45, 0
1, 35819, Note_off_c, 1, 57, 0
1, 35819, Note_off_c, 1, 71, 0
1, 35820, Note_on_c, 1, 59, 127
1, 35820, Note_on_c, 1, 76, 127
1, 35820, Note_on_c, 1, 43, 127
1, 35849, Note_off_c, 1, 59, 0
1, 35849, Note_off_c, 1, 76, 0
1, 35849, Note_off_c, 1, 43, 0
1, 35850, Note_on_c, 1, 60, 127
1, 35850, Note_on_c, 1, 45, 127
1, 35879, Note_off_c, 1, 60, 0
1, 35879, Note_off_c, 1, 45, 0
1, 35880, Note_on_c, 1, 54, 127
1, 35880, Note_on_c, 1, 76, 127
1, 35880, Note_on_c, 1, 47, 127
1, 35909, Note_off_c, 1, 76, 0
1, 35910, Note_on_c, 1, 78, 127
1, 35924, Note_off_c, 1, 78, 0
1, 35925, Note_on_c, 1, 79, 127
1, 35939, Note_off_c, 1, 54, 0
1, 35939, Note_off_c, 1, 47, 0
1, 35939, Note_off_c, 1, 79, 0
1, 35940, Note_on_c, 1, 63, 127
1, 35940, Note_on_c, 1, 78, 127
1, 35940, Note_on_c, 1, 35, 127
1, 35955, Note_off_c, 1, 63, 0
1, 35955, Note_on_c, 1, 64, 127
1, 35969, Note_off_c, 1, 78, 0
1, 35970, Note_off_c, 1, 64, 0
1, 35970, Note_on_c, 1, 76, 127
1, 35999, Note_off_c, 1, 35, 0
1, 35999, Note_off_c, 1, 76, 0
1, 36000, Note_on_c, 1, 40, 127
1, 36030, Note_on_c, 1, 79, 127
1, 36059, Note_off_c, 1, 79, 0
1, 36119, Note_off_c, 1, 40, 0
1, 36180, Note_on_c, 1, 74, 127
1, 36180, Note_on_c, 1, 47, 127
1, 36209, Note_off_c, 1, 74, 0
1, 36239, Note_off_c, 1, 47, 0
1, 36240, Note_on_c, 1, 73, 127
1, 36240, Note_on_c, 1, 52, 127
1, 36269, Note_off_c, 1, 73, 0
1, 36299, Note_off_c, 1, 52, 0
1, 36300, Note_on_c, 1, 71, 127
1, 36300, Note_on_c, 1, 50, 127
1, 36329, Note_off_c, 1, 71, 0
1, 36359, Note_off_c, 1, 50, 0
1, 36540, Note_on_c, 1, 55, 127
1, 36569, Note_off_c, 1, 55, 0
1, 36570, Note_on_c, 1, 54, 127
1, 36599, Note_off_c, 1, 54, 0
1, 36600, Note_on_c, 1, 70, 127
1, 36629, Note_off_c, 1, 70, 0
1, 36750, Note_on_c, 1, 67, 127
1, 36779, Note_off_c, 1, 67, 0
1, 36780, Note_on_c, 1, 66, 127
1, 36780, Note_on_c, 1, 70, 127
1, 36780, Note_on_c, 1, 42, 127
1, 36809, Note_off_c, 1, 66, 0
1, 36810, Note_on_c, 1, 67, 127
1, 36839, Note_off_c, 1, 42, 0
1, 36839, Note_off_c, 1, 67, 0
1, 36840, Note_on_c, 1, 64, 127
1, 36840, Note_on_c, 1, 54, 127
1, 36869, Note_off_c, 1, 64, 0
1, 36899, Note_off_c, 1, 70, 0
1, 36900, Note_on_c, 1, 62, 127
1, 36900, Note_on_c, 1, 71, 127
1, 36929, Note_off_c, 1, 62, 0
1, 36959, Note_off_c, 1, 71, 0
1, 36960, Note_on_c, 1, 61, 127
1, 36960, Note_on_c, 1, 73, 127
1, 36989, Note_off_c, 1, 61, 0
1, 37019, Note_off_c, 1, 73, 0
1, 37020, Note_on_c, 1, 59, 127
1, 37020, Note_on_c, 1, 74, 127
1, 37049, Note_off_c, 1, 59, 0
1, 37079, Note_off_c, 1, 74, 0
1, 37080, Note_on_c, 1, 76, 127
1, 37140, Note_off_c, 1, 54, 0
1, 37140, Note_on_c, 1, 56, 127
1, 37199, Note_off_c, 1, 56, 0
1, 37200, Note_on_c, 1, 58, 127
1, 37259, Note_off_c, 1, 58, 0
1, 37440, Note_on_c, 1, 50, 127
1, 37470, Note_off_c, 1, 76, 0
1, 37499, Note_off_c, 1, 50, 0
1, 37500, Note_on_c, 1, 49, 127
1, 37559, Note_off_c, 1, 49, 0
1, 37560, Note_on_c, 1, 47, 127
1, 37619, Note_off_c, 1, 47, 0
1, 37620, Note_on_c, 1, 61, 127
1, 37620, Note_on_c, 1, 78, 127
1, 37620, Note_on_c, 1, 52, 127
1, 37649, Note_off_c, 1, 61, 0
1, 37649, Note_off_c, 1, 78, 0
1, 37650, Note_on_c, 1, 59, 127
1, 37650, Note_on_c, 1, 79, 127
1, 37679, Note_off_c, 1, 52, 0
1, 37679, Note_off_c, 1, 59, 0
1, 37679, Note_off_c, 1, 79, 0
1, 37680, Note_on_c, 1, 58, 127
1, 37680, Note_on_c, 1, 73, 127
1, 37680, Note_on_c, 1, 54, 127
1, 37695, Note_off_c, 1, 58, 0
1, 37695, Note_off_c, 1, 73, 0
1, 37695, Note_on_c, 1, 59, 127
1, 37695, Note_on_c, 1, 74, 127
1, 37710, Note_off_c, 1, 59, 0
1, 37710, Note_off_c, 1, 74, 0
1, 37739, Note_off_c, 1, 54, 0
1, 37740, Note_on_c, 1, 42, 127
1, 37770, Note_on_c, 1, 71, 127
1, 37799, Note_off_c, 1, 42, 0
1, 37799, Note_off_c, 1, 71, 0
1, 37800, Note_on_c, 1, 59, 127
1, 37800, Note_on_c, 1, 71, 127
1, 37800, Note_on_c, 1, 47, 127
1, 37859, Note_off_c, 1, 47, 0
1, 37890, Note_on_c, 1, 58, 127
1, 37919, Note_off_c, 1, 59, 0
1, 37919, Note_off_c, 1, 71, 0
1, 37919, Note_off_c, 1, 58, 0
1, 37920, Note_on_c, 1, 59, 127
1, 37979, Note_off_c, 1, 59, 0
1, 37980, Note_on_c, 1, 67, 127
1, 37980, Note_on_c, 1, 52, 127
1, 38039, Note_off_c, 1, 67, 0
1, 38039, Note_off_c, 1, 52, 0
1, 38040, Note_on_c, 1, 62, 127
1, 38040, Note_on_c, 1, 54, 127
1, 38069, Note_off_c, 1, 62, 0
1, 38070, Note_on_c, 1, 60, 127
1, 38099, Note_off_c, 1, 54, 0
1, 38099, Note_off_c, 1, 60, 0
1, 38100, Note_on_c, 1, 59, 127
1, 38100, Note_on_c, 1, 56, 127
1, 38129, Note_off_c, 1, 59, 0
1, 38159, Note_off_c, 1, 56, 0
1, 38160, Note_on_c, 1, 59, 127
1, 38160, Note_on_c, 1, 57, 127
1, 38189, Note_off_c, 1, 57, 0
1, 38219, Note_off_c, 1, 59, 0
1, 38220, Note_on_c, 1, 60, 127
1, 38220, Note_on_c, 1, 57, 127
1, 38249, Note_off_c, 1, 57, 0
1, 38250, Note_on_c, 1, 55, 127
1, 38279, Note_off_c, 1, 60, 0
1, 38279, Note_off_c, 1, 55, 0
1, 38280, Note_on_c, 1, 60, 127
1, 38280, Note_on_c, 1, 54, 127
1, 38339, Note_off_c, 1, 60, 0
1, 38339, Note_off_c, 1, 54, 0
1, 38340, Note_on_c, 1, 64, 127
1, 38340, Note_on_c, 1, 50, 127
1, 38369, Note_off_c, 1, 64, 0
1, 38370, Note_on_c, 1, 62, 127
1, 38399, Note_off_c, 1, 50, 0
1, 38399, Note_off_c, 1, 62, 0
1, 38400, Note_on_c, 1, 60, 127
1, 38400, Note_on_c, 1, 52, 127
1, 38429, Note_off_c, 1, 60, 0
1, 38430, Note_on_c, 1, 59, 127
1, 38459, Note_off_c, 1, 52, 0
1, 38459, Note_off_c, 1, 59, 0
1, 38460, Note_on_c, 1, 57, 127
1, 38460, Note_on_c, 1, 54, 127
1, 38489, Note_off_c, 1, 57, 0
1, 38519, Note_off_c, 1, 54, 0
1, 38520, Note_on_c, 1, 57, 127
1, 38520, Note_on_c, 1, 55, 127
1, 38579, Note_off_c, 1, 57, 0
1, 38579, Note_off_c, 1, 55, 0
1, 38580, Note_on_c, 1, 59, 127
1, 38580, Note_on_c, 1, 43, 127
1, 38639, Note_off_c, 1, 59, 0
1, 38639, Note_off_c, 1, 43, 0
1, 38640, Note_on_c, 1, 59, 127
1, 38670, Note_on_c, 1, 54, 127
1, 38699, Note_off_c, 1, 54, 0
1, 38700, Note_on_c, 1, 74, 127
1, 38700, Note_on_c, 1, 55, 127
1, 38729, Note_off_c, 1, 55, 0
1, 38730, Note_on_c, 1, 57, 127
1, 38759, Note_off_c, 1, 74, 0
1, 38759, Note_off_c, 1, 57, 0
1, 38760, Note_on_c, 1, 69, 127
1, 38789, Note_off_c, 1, 69, 0
1, 38790, Note_on_c, 1, 67, 127
1, 38819, Note_off_c, 1, 67, 0
1, 38820, Note_on_c, 1, 66, 127
1, 38820, Note_on_c, 1, 47, 127
1, 38849, Note_off_c, 1, 66, 0
1, 38879, Note_off_c, 1, 47, 0
1, 38880, Note_on_c, 1, 52, 127
1, 38909, Note_off_c, 1, 52, 0
1, 38910, Note_on_c, 1, 50, 127
1, 38939, Note_off_c, 1, 50, 0
1, 38940, Note_on_c, 1, 49, 127
1, 38969, Note_off_c, 1, 49, 0
1, 38999, Note_off_c, 1, 59, 0
1, 39000, Note_on_c, 1, 61, 127
1, 39000, Note_on_c, 1, 67, 127
1, 39000, Note_on_c, 1, 45, 127
1, 39059, Note_off_c, 1, 67, 0
1, 39059, Note_off_c, 1, 45, 0
1, 39060, Note_on_c, 1, 71, 127
1, 39060, Note_on_c, 1, 52, 127
1, 39089, Note_off_c, 1, 71, 0
1, 39090, Note_on_c, 1, 69, 127
1, 39119, Note_off_c, 1, 52, 0
1, 39119, Note_off_c, 1, 69, 0
1, 39120, Note_off_c, 1, 61, 0
1, 39120, Note_on_c, 1, 62, 127
1, 39120, Note_on_c, 1, 57, 127
1, 39135, Note_off_c, 1, 62, 0
1, 39150, Note_on_c, 1, 66, 127
1, 39179, Note_off_c, 1, 57, 0
1, 39179, Note_off_c, 1, 66, 0
1, 39180, Note_on_c, 1, 64, 127
1, 39209, Note_off_c, 1, 64, 0
1, 39240, Note_on_c, 1, 38, 127
1, 39299, Note_off_c, 1, 38, 0
1, 39300, Note_on_c, 1, 50, 127
1, 39329, Note_off_c, 1, 50, 0
1, 39360, Note_on_c, 1, 66, 127
1, 39360, Note_on_c, 1, 50, 127
1, 39389, Note_off_c, 1, 66, 0
1, 39390, Note_on_c, 1, 69, 127
1, 39419, Note_off_c, 1, 50, 0
1, 39419, Note_off_c, 1, 69, 0
1, 39420, Note_on_c, 1, 71, 127
1, 39420, Note_on_c, 1, 49, 127
1, 39449, Note_off_c, 1, 71, 0
1, 39450, Note_on_c, 1, 73, 127
1, 39479, Note_off_c, 1, 49, 0
1, 39479, Note_off_c, 1, 73, 0
1, 39480, Note_on_c, 1, 66, 127
1, 39480, Note_on_c, 1, 74, 127
1, 39480, Note_on_c, 1, 47, 127
1, 39509, Note_off_c, 1, 74, 0
1, 39510, Note_on_c, 1, 76, 127
1, 39539, Note_off_c, 1, 47, 0
1, 39539, Note_off_c, 1, 76, 0
1, 39540, Note_on_c, 1, 78, 127
1, 39540, Note_on_c, 1, 45, 127
1, 39569, Note_off_c, 1, 78, 0
1, 39599, Note_off_c, 1, 45, 0
1, 39600, Note_on_c, 1, 72, 127
1, 39600, Note_on_c, 1, 43, 127
1, 39659, Note_off_c, 1, 66, 0
1, 39659, Note_off_c, 1, 72, 0
1, 39659, Note_off_c, 1, 43, 0
1, 39660, Note_on_c, 1, 64, 127
1, 39660, Note_on_c, 1, 71, 127
1, 39660, Note_on_c, 1, 55, 127
1, 39689, Note_off_c, 1, 64, 0
1, 39689, Note_off_c, 1, 55, 0
1, 39690, Note_on_c, 1, 63, 127
1, 39690, Note_on_c, 1, 54, 127
1, 39719, Note_off_c, 1, 71, 0
1, 39719, Note_off_c, 1, 63, 0
1, 39719, Note_off_c, 1, 54, 0
1, 39720, Note_on_c, 1, 64, 127
1, 39720, Note_on_c, 1, 55, 127
1, 39749, Note_off_c, 1, 64, 0
1, 39750, Note_on_c, 1, 66, 127
1, 39779, Note_off_c, 1, 55, 0
1, 39779, Note_off_c, 1, 66, 0
1, 39780, Note_on_c, 1, 67, 127
1, 39780, Note_on_c, 1, 76, 127
1, 39780, Note_on_c, 1, 55, 127
1, 39809, Note_off_c, 1, 67, 0
1, 39810, Note_on_c, 1, 64, 127
1, 39839, Note_off_c, 1, 76, 0
1, 39839, Note_off_c, 1, 55, 0
1, 39839, Note_off_c, 1, 64, 0
1, 39840, Note_on_c, 1, 57, 127
1, 39840, Note_on_c, 1, 74, 127
1, 39840, Note_on_c, 1, 55, 127
1, 39869, Note_off_c, 1, 74, 0
1, 39870, Note_on_c, 1, 73, 127
1, 39899, Note_off_c, 1, 55, 0
1, 39899, Note_off_c, 1, 73, 0
1, 39900, Note_on_c, 1, 71, 127
1, 39929, Note_off_c, 1, 71, 0
1, 39930, Note_on_c, 1, 69, 127
1, 39959, Note_off_c, 1, 69, 0
1, 39990, Note_off_c, 1, 57, 0
1, 39990, Note_on_c, 1, 64, 127
1, 40019, Note_off_c, 1, 64, 0
1, 40020, Note_on_c, 1, 62, 127
1, 40020, Note_on_c, 1, 54, 127
1, 40049, Note_off_c, 1, 62, 0
1, 40049, Note_off_c, 1, 54, 0
1, 40050, Note_on_c, 1, 61, 127
1, 40050, Note_on_c, 1, 52, 127
1, 40079, Note_off_c, 1, 61, 0
1, 40079, Note_off_c, 1, 52, 0
1, 40140, Note_on_c, 1, 66, 127
1, 40140, Note_on_c, 1, 74, 127
1, 40140, Note_on_c, 1, 54, 127
1, 40169, Note_off_c, 1, 66, 0
1, 40169, Note_off_c, 1, 74, 0
1, 40170, Note_on_c, 1, 62, 127
1, 40170, Note_on_c, 1, 73, 127
1, 40199, Note_off_c, 1, 54, 0
1, 40199, Note_off_c, 1, 62, 0
1, 40199, Note_off_c, 1, 73, 0
1, 40200, Note_on_c, 1, 55, 127
1, 40200, Note_on_c, 1, 71, 127
1, 40200, Note_on_c, 1, 54, 127
1, 40229, Note_off_c, 1, 71, 0
1, 40230, Note_on_c, 1, 69, 127
1, 40259, Note_off_c, 1, 54, 0
1, 40259, Note_off_c, 1, 69, 0
1, 40260, Note_on_c, 1, 67, 127
1, 40289, Note_off_c, 1, 67, 0
1, 40290, Note_on_c, 1, 66, 127
1, 40319, Note_off_c, 1, 66, 0
1, 40350, Note_off_c, 1, 55, 0
1, 40350, Note_on_c, 1, 62, 127
1, 40379, Note_off_c, 1, 62, 0
1, 40380, Note_on_c, 1, 61, 127
1, 40380, Note_on_c, 1, 79, 127
1, 40380, Note_on_c, 1, 52, 127
1, 40409, Note_off_c, 1, 61, 0
1, 40409, Note_off_c, 1, 52, 0
1, 40410, Note_on_c, 1, 59, 127
1, 40410, Note_on_c, 1, 50, 127
1, 40439, Note_off_c, 1, 79, 0
1, 40439, Note_off_c, 1, 59, 0
1, 40439, Note_off_c, 1, 50, 0
1, 40440, Note_on_c, 1, 61, 127
1, 40440, Note_on_c, 1, 52, 127
1, 40469, Note_off_c, 1, 61, 0
1, 40470, Note_on_c, 1, 62, 127
1, 40499, Note_off_c, 1, 52, 0
1, 40499, Note_off_c, 1, 62, 0
1, 40500, Note_on_c, 1, 64, 127
1, 40500, Note_on_c, 1, 45, 127
1, 40529, Note_off_c, 1, 64, 0
1, 40530, Note_on_c, 1, 61, 127
1, 40559, Note_off_c, 1, 45, 0
1, 40559, Note_off_c, 1, 61, 0
1, 40560, Note_on_c, 1, 54, 127
1, 40560, Note_on_c, 1, 50, 127
1, 40589, Note_off_c, 1, 54, 0
1, 40590, Note_on_c, 1, 59, 127
1, 40619, Note_off_c, 1, 50, 0
1, 40619, Note_off_c, 1, 59, 0
1, 40620, Note_on_c, 1, 57, 127
1, 40620, Note_on_c, 1, 52, 127
1, 40649, Note_off_c, 1, 57, 0
1, 40650, Note_on_c, 1, 55, 127
1, 40679, Note_off_c, 1, 52, 0
1, 40679, Note_off_c, 1, 55, 0
1, 40680, Note_on_c, 1, 57, 127
1, 40680, Note_on_c, 1, 54, 127
1, 40709, Note_off_c, 1, 57, 0
1, 40710, Note_on_c, 1, 59, 127
1, 40739, Note_off_c, 1, 54, 0
1, 40739, Note_off_c, 1, 59, 0
1, 40740, Note_on_c, 1, 61, 127
1, 40740, Note_on_c, 1, 42, 127
1, 40769, Note_off_c, 1, 61, 0
1, 40770, Note_on_c, 1, 57, 127
1, 40799, Note_off_c, 1, 42, 0
1, 40799, Note_off_c, 1, 57, 0
1, 40800, Note_on_c, 1, 50, 127
1, 40800, Note_on_c, 1, 47, 127
1, 40829, Note_off_c, 1, 50, 0
1, 40830, Note_on_c, 1, 55, 127
1, 40859, Note_off_c, 1, 47, 0
1, 40859, Note_off_c, 1, 55, 0
1, 40860, Note_on_c, 1, 54, 127
1, 40860, Note_on_c, 1, 49, 127
1, 40889, Note_off_c, 1, 54, 0
1, 40890, Note_on_c, 1, 52, 127
1, 40919, Note_off_c, 1, 49, 0
1, 40919, Note_off_c, 1, 52, 0
1, 40920, Note_on_c, 1, 54, 127
1, 40920, Note_on_c, 1, 81, 127
1, 40920, Note_on_c, 1, 50, 127
1, 40949, Note_off_c, 1, 54, 0
1, 40950, Note_on_c, 1, 55, 127
1, 40979, Note_off_c, 1, 50, 0
1, 40979, Note_off_c, 1, 55, 0
1, 40980, Note_on_c, 1, 57, 127
1, 40980, Note_on_c, 1, 38, 127
1, 41009, Note_off_c, 1, 57, 0
1, 41039, Note_off_c, 1, 38, 0
1, 41040, Note_on_c, 1, 59, 127
1, 41040, Note_on_c, 1, 43, 127
1, 41069, Note_off_c, 1, 59, 0
1, 41070, Note_on_c, 1, 61, 127
1, 41099, Note_off_c, 1, 81, 0
1, 41099, Note_off_c, 1, 43, 0
1, 41099, Note_off_c, 1, 61, 0
1, 41100, Note_on_c, 1, 62, 127
1, 41100, Note_on_c, 1, 79, 127
1, 41100, Note_on_c, 1, 45, 127
1, 41129, Note_off_c, 1, 79, 0
1, 41130, Note_on_c, 1, 78, 127
1, 41159, Note_off_c, 1, 45, 0
1, 41159, Note_off_c, 1, 78, 0
1, 41160, Note_on_c, 1, 47, 127
1, 41189, Note_off_c, 1, 62, 0
1, 41190, Note_on_c, 1, 66, 127
1, 41190, Note_on_c, 1, 81, 127
1, 41219, Note_off_c, 1, 47, 0
1, 41219, Note_off_c, 1, 66, 0
1, 41219, Note_off_c, 1, 81, 0
1, 41220, Note_on_c, 1, 64, 127
1, 41220, Note_on_c, 1, 83, 127
1, 41220, Note_on_c, 1, 43, 127
1, 41249, Note_off_c, 1, 83, 0
1, 41250, Note_on_c, 1, 79, 127
1, 41279, Note_off_c, 1, 43, 0
1, 41279, Note_off_c, 1, 79, 0
1, 41280, Note_on_c, 1, 73, 127
1, 41280, Note_on_c, 1, 45, 127
1, 41309, Note_off_c, 1, 64, 0
1, 41309, Note_off_c, 1, 73, 0
1, 41310, Note_on_c, 1, 66, 127
1, 41310, Note_on_c, 1, 78, 127
1, 41339, Note_off_c, 1, 45, 0
1, 41339, Note_off_c, 1, 66, 0
1, 41339, Note_off_c, 1, 78, 0
1, 41340, Note_on_c, 1, 67, 127
1, 41340, Note_on_c, 1, 76, 127
1, 41340, Note_on_c, 1, 47, 127
1, 41369, Note_off_c, 1, 76, 0
1, 41370, Note_on_c, 1, 74, 127
1, 41399, Note_off_c, 1, 47, 0
1, 41399, Note_off_c, 1, 74, 0
1, 41400, Note_on_c, 1, 37, 127
1, 41429, Note_off_c, 1, 67, 0
1, 41430, Note_on_c, 1, 71, 127
1, 41430, Note_on_c, 1, 78, 127
1, 41459, Note_off_c, 1, 37, 0
1, 41459, Note_off_c, 1, 71, 0
1, 41459, Note_off_c, 1, 78, 0
1, 41460, Note_on_c, 1, 69, 127
1, 41460, Note_on_c, 1, 79, 127
1, 41460, Note_on_c, 1, 49, 127
1, 41489, Note_off_c, 1, 79, 0
1, 41490, Note_on_c, 1, 76, 127
1, 41519, Note_off_c, 1, 49, 0
1, 41519, Note_off_c, 1, 76, 0
1, 41520, Note_on_c, 1, 54, 127
1, 41549, Note_off_c, 1, 69, 0
1, 41550, Note_on_c, 1, 66, 127
1, 41550, Note_on_c, 1, 74, 127
1, 41579, Note_off_c, 1, 54, 0
1, 41579, Note_off_c, 1, 66, 0
1, 41579, Note_off_c, 1, 74, 0
1, 41580, Note_on_c, 1, 67, 127
1, 41580, Note_on_c, 1, 73, 127
1, 41580, Note_on_c, 1, 52, 127
1, 41609, Note_off_c, 1, 73, 0
1, 41609, Note_off_c, 1, 52, 0
1, 41610, Note_on_c, 1, 71, 127
1, 41610, Note_on_c, 1, 50, 127
1, 41639, Note_off_c, 1, 71, 0
1, 41639, Note_off_c, 1, 50, 0
1, 41669, Note_off_c, 1, 67, 0
1, 41670, Note_on_c, 1, 74, 127
1, 41699, Note_off_c, 1, 74, 0
1, 41700, Note_on_c, 1, 73, 127
1, 41700, Note_on_c, 1, 76, 127
1, 41700, Note_on_c, 1, 46, 127
1, 41729, Note_off_c, 1, 73, 0
1, 41729, Note_off_c, 1, 76, 0
1, 41730, Note_on_c, 1, 74, 127
1, 41759, Note_off_c, 1, 46, 0
1, 41759, Note_off_c, 1, 74, 0
1, 41760, Note_on_c, 1, 74, 127
1, 41760, Note_on_c, 1, 66, 127
1, 41760, Note_on_c, 1, 47, 127
1, 41789, Note_off_c, 1, 66, 0
1, 41790, Note_on_c, 1, 69, 127
1, 41819, Note_off_c, 1, 47, 0
1, 41819, Note_off_c, 1, 69, 0
1, 41820, Note_off_c, 1, 74, 0
1, 41820, Note_on_c, 1, 73, 127
1, 41820, Note_on_c, 1, 67, 127
1, 41820, Note_on_c, 1, 52, 127
1, 41849, Note_off_c, 1, 73, 0
1, 41849, Note_off_c, 1, 52, 0
1, 41850, Note_on_c, 1, 71, 127
1, 41850, Note_on_c, 1, 50, 127
1, 41879, Note_off_c, 1, 67, 0
1, 41879, Note_off_c, 1, 71, 0
1, 41879, Note_off_c, 1, 50, 0
1, 41880, Note_on_c, 1, 69, 127
1, 41880, Note_on_c, 1, 49, 127
1, 41909, Note_off_c, 1, 69, 0
1, 41909, Note_off_c, 1, 49, 0
1, 41910, Note_on_c, 1, 67, 127
1, 41910, Note_on_c, 1, 52, 127
1, 41939, Note_off_c, 1, 67, 0
1, 41939, Note_off_c, 1, 52, 0
1, 41940, Note_on_c, 1, 66, 127
1, 41940, Note_on_c, 1, 57, 127
1, 41969, Note_off_c, 1, 66, 0
1, 41969, Note_off_c, 1, 57, 0
1, 41970, Note_on_c, 1, 64, 127
1, 41970, Note_on_c, 1, 55, 127
1, 41999, Note_off_c, 1, 64, 0
1, 41999, Note_off_c, 1, 55, 0
1, 42000, Note_on_c, 1, 62, 127
1, 42000, Note_on_c, 1, 54, 127
1, 42029, Note_off_c, 1, 62, 0
1, 42029, Note_off_c, 1, 54, 0
1, 42030, Note_on_c, 1, 64, 127
1, 42030, Note_on_c, 1, 52, 127
1, 42059, Note_off_c, 1, 64, 0
1, 42059, Note_off_c, 1, 52, 0
1, 42060, Note_on_c, 1, 66, 127
1, 42060, Note_on_c, 1, 74, 127
1, 42060, Note_on_c, 1, 50, 127
1, 42089, Note_off_c, 1, 66, 0
1, 42119, Note_off_c, 1, 50, 0
1, 42120, Note_on_c, 1, 55, 127
1, 42135, Note_on_c, 1, 67, 127
1, 42149, Note_off_c, 1, 74, 0
1, 42150, Note_off_c, 1, 67, 0
1, 42150, Note_on_c, 1, 71, 127
1, 42179, Note_off_c, 1, 55, 0
1, 42179, Note_off_c, 1, 71, 0
1, 42180, Note_on_c, 1, 64, 127
1, 42180, Note_on_c, 1, 73, 127
1, 42180, Note_on_c, 1, 43, 127
1, 42209, Note_off_c, 1, 73, 0
1, 42209, Note_off_c, 1, 43, 0
1, 42210, Note_on_c, 1, 74, 127
1, 42210, Note_on_c, 1, 42, 127
1, 42239, Note_off_c, 1, 64, 0
1, 42239, Note_off_c, 1, 74, 0
1, 42239, Note_off_c, 1, 42, 0
1, 42240, Note_on_c, 1, 64, 127
1, 42240, Note_on_c, 1, 76, 127
1, 42240, Note_on_c, 1, 43, 127
1, 42269, Note_off_c, 1, 76, 0
1, 42270, Note_on_c, 1, 78, 127
1, 42299, Note_off_c, 1, 64, 0
1, 42299, Note_off_c, 1, 43, 0
1, 42299, Note_off_c, 1, 78, 0
1, 42300, Note_on_c, 1, 61, 127
1, 42300, Note_on_c, 1, 79, 127
1, 42300, Note_on_c, 1, 40, 127
1, 42329, Note_off_c, 1, 61, 0
1, 42330, Note_on_c, 1, 62, 127
1, 42359, Note_off_c, 1, 79, 0
1, 42359, Note_off_c, 1, 40, 0
1, 42359, Note_off_c, 1, 62, 0
1, 42360, Note_on_c, 1, 64, 127
1, 42360, Note_on_c, 1, 69, 127
1, 42360, Note_on_c, 1, 45, 127
1, 42389, Note_off_c, 1, 64, 0
1, 42390, Note_on_c, 1, 66, 127
1, 42419, Note_off_c, 1, 69, 0
1, 42419, Note_off_c, 1, 45, 0
1, 42419, Note_off_c, 1, 66, 0
1, 42420, Note_on_c, 1, 67, 127
1, 42420, Note_on_c, 1, 74, 127
1, 42420, Note_on_c, 1, 33, 127
1, 42435, Note_off_c, 1, 74, 0
1, 42435, Note_on_c, 1, 73, 127
1, 42449, Note_off_c, 1, 67, 0
1, 42450, Note_off_c, 1, 73, 0
1, 42450, Note_on_c, 1, 71, 127
1, 42465, Note_off_c, 1, 71, 0
1, 42479, Note_off_c, 1, 33, 0
1, 42480, Note_on_c, 1, 38, 127
1, 42495, Note_on_c, 1, 69, 127
1, 42539, Note_off_c, 1, 69, 0
1, 42540, Note_on_c, 1, 66, 127
1, 42599, Note_off_c, 1, 38, 0
1, 42599, Note_off_c, 1, 66, 0
1, 42600, Note_on_c, 1, 66, 127
1, 42600, Note_on_c, 1, 74, 127
1, 42629, Note_off_c, 1, 74, 0
1, 42630, Note_on_c, 1, 76, 127
1, 42659, Note_off_c, 1, 66, 0
1, 42659, Note_off_c, 1, 76, 0
1, 42660, Note_on_c, 1, 69, 127
1, 42660, Note_on_c, 1, 78, 127
1, 42689, Note_off_c, 1, 78, 0
1, 42690, Note_on_c, 1, 79, 127
1, 42719, Note_off_c, 1, 69, 0
1, 42719, Note_off_c, 1, 79, 0
1, 42720, Note_on_c, 1, 67, 127
1, 42720, Note_on_c, 1, 81, 127
1, 42720, Note_on_c, 1, 50, 127
1, 42749, Note_off_c, 1, 67, 0
1, 42750, Note_on_c, 1, 66, 127
1, 42779, Note_off_c, 1, 81, 0
1, 42779, Note_off_c, 1, 66, 0
1, 42780, Note_on_c, 1, 64, 127
1, 42780, Note_on_c, 1, 78, 127
1, 42809, Note_off_c, 1, 64, 0
1, 42810, Note_on_c, 1, 62, 127
1, 42839, Note_off_c, 1, 50, 0
1, 42839, Note_off_c, 1, 78, 0
1, 42839, Note_off_c, 1, 62, 0
1, 42840, Note_on_c, 1, 71, 127
1, 42840, Note_on_c, 1, 74, 127
1, 42840, Note_on_c, 1, 55, 127
1, 42899, Note_off_c, 1, 71, 0
1, 42899, Note_off_c, 1, 74, 0
1, 42930, Note_on_c, 1, 73, 127
1, 42959, Note_off_c, 1, 55, 0
1, 42959, Note_off_c, 1, 73, 0
1, 42960, Note_on_c, 1, 71, 127
1, 42960, Note_on_c, 1, 76, 127
1, 42989, Note_off_c, 1, 76, 0
1, 42990, Note_on_c, 1, 78, 127
1, 43019, Note_off_c, 1, 71, 0
1, 43019, Note_off_c, 1, 78, 0
1, 43020, Note_on_c, 1, 69, 127
1, 43020, Note_on_c, 1, 79, 127
1, 43049, Note_off_c, 1, 79, 0
1, 43050, Note_on_c, 1, 81, 127
1, 43079, Note_off_c, 1, 69, 0
1, 43079, Note_off_c, 1, 81, 0
1, 43080, Note_on_c, 1, 67, 127
1, 43080, Note_on_c, 1, 83, 127
1, 43080, Note_on_c, 1, 52, 127
1, 43109, Note_off_c, 1, 67, 0
1, 43109, Note_off_c, 1, 83, 0
1, 43110, Note_on_c, 1, 66, 127
1, 43110, Note_on_c, 1, 81, 127
1, 43139, Note_off_c, 1, 66, 0
1, 43139, Note_off_c, 1, 81, 0
1, 43140, Note_on_c, 1, 64, 127
1, 43140, Note_on_c, 1, 79, 127
1, 43169, Note_off_c, 1, 64, 0
1, 43169, Note_off_c, 1, 79, 0
1, 43170, Note_on_c, 1, 62, 127
1, 43170, Note_on_c, 1, 78, 127
1, 43199, Note_off_c, 1, 52, 0
1, 43199, Note_off_c, 1, 62, 0
1, 43199, Note_off_c, 1, 78, 0
1, 43200, Note_on_c, 1, 61, 127
1, 43200, Note_on_c, 1, 76, 127
1, 43200, Note_on_c, 1, 57, 127
1, 43229, Note_off_c, 1, 61, 0
1, 43229, Note_off_c, 1, 76, 0
1, 43230, Note_on_c, 1, 59, 127
1, 43230, Note_on_c, 1, 79, 127
1, 43259, Note_off_c, 1, 57, 0
1, 43259, Note_off_c, 1, 59, 0
1, 43259, Note_off_c, 1, 79, 0
1, 43260, Note_on_c, 1, 57, 127
1, 43260, Note_on_c, 1, 78, 127
1, 43260, Note_on_c, 1, 49, 127
1, 43289, Note_off_c, 1, 57, 0
1, 43289, Note_off_c, 1, 78, 0
1, 43290, Note_on_c, 1, 64, 127
1, 43290, Note_on_c, 1, 76, 127
1, 43319, Note_off_c, 1, 49, 0
1, 43319, Note_off_c, 1, 64, 0
1, 43319, Note_off_c, 1, 76, 0
1, 43320, Note_on_c, 1, 55, 127
1, 43320, Note_on_c, 1, 74, 127
1, 43320, Note_on_c, 1, 50, 127
1, 43349, Note_off_c, 1, 55, 0
1, 43349, Note_off_c, 1, 74, 0
1, 43350, Note_on_c, 1, 54, 127
1, 43350, Note_on_c, 1, 73, 127
1, 43379, Note_off_c, 1, 50, 0
1, 43379, Note_off_c, 1, 73, 0
1, 43409, Note_off_c, 1, 54, 0
1, 43410, Note_on_c, 1, 52, 127
1, 43410, Note_on_c, 1, 76, 127
1, 43439, Note_off_c, 1, 52, 0
1, 43439, Note_off_c, 1, 76, 0
1, 43440, Note_on_c, 1, 52, 127
1, 43440, Note_on_c, 1, 73, 127
1, 43440, Note_on_c, 1, 57, 127
1, 43455, Note_off_c, 1, 52, 0
1, 43455, Note_off_c, 1, 73, 0
1, 43455, Note_on_c, 1, 54, 127
1, 43455, Note_on_c, 1, 74, 127
1, 43470, Note_off_c, 1, 54, 0
1, 43470, Note_off_c, 1, 74, 0
1, 43499, Note_off_c, 1, 57, 0
1, 43500, Note_on_c, 1, 45, 127
1, 43530, Note_on_c, 1, 50, 127
1, 43559, Note_off_c, 1, 45, 0
1, 43559, Note_off_c, 1, 50, 0
1, 43560, Note_on_c, 1, 50, 127
1, 43560, Note_on_c, 1, 74, 127
1, 43560, Note_on_c, 1, 38, 127
1, 43589, Note_off_c, 1, 50, 0
1, 43590, Note_on_c, 1, 52, 127
1, 43619, Note_off_c, 1, 52, 0
1, 43620, Note_on_c, 1, 54, 127
1, 43649, Note_off_c, 1, 54, 0
1, 43650, Note_on_c, 1, 55, 127
1, 43679, Note_off_c, 1, 38, 0
1, 43679, Note_off_c, 1, 55, 0
1, 43680, Note_on_c, 1, 57, 127
1, 43709, Note_off_c, 1, 57, 0
1, 43710, Note_on_c, 1, 59, 127
1, 43739, Note_off_c, 1, 59, 0
1, 43740, Note_on_c, 1, 60, 127
1, 43769, Note_off_c, 1, 60, 0
1, 43770, Note_on_c, 1, 62, 127
1, 43799, Note_off_c, 1, 62, 0
1, 43800, Note_on_c, 1, 64, 127
1, 43829, Note_off_c, 1, 64, 0
1, 43830, Note_on_c, 1, 66, 127
1, 43859, Note_off_c, 1, 66, 0
1, 43860, Note_on_c, 1, 67, 127
1, 43889, Note_off_c, 1, 67, 0
1, 43935, Note_on_c, 1, 69, 127
1, 43950, Note_off_c, 1, 69, 0
1, 44295, Note_on_c, 1, 71, 127
1, 44310, Note_off_c, 1, 71, 0
1, 44430, Note_off_c, 1, 74, 0
1, 44580, Note_on_c, 1, 48, 127
1, 44609, Note_off_c, 1, 48, 0
1, 44610, Note_on_c, 1, 47, 127
1, 44639, Note_off_c, 1, 47, 0
1, 44655, Note_on_c, 1, 72, 127
1, 44670, Note_off_c, 1, 72, 0
1, 44760, Note_on_c, 1, 66, 127
1, 44760, Note_on_c, 1, 69, 127
1, 44760, Note_on_c, 1, 50, 127
1, 44819, Note_off_c, 1, 69, 0
1, 44819, Note_off_c, 1, 50, 0
1, 44820, Note_on_c, 1, 48, 127
1, 44850, Note_on_c, 1, 67, 127
1, 44879, Note_off_c, 1, 48, 0
1, 44879, Note_off_c, 1, 67, 0
1, 44880, Note_on_c, 1, 47, 127
1, 44910, Note_off_c, 1, 66, 0
1, 44910, Note_on_c, 1, 71, 127
1, 44939, Note_off_c, 1, 47, 0
1, 44939, Note_off_c, 1, 71, 0
1, 44940, Note_on_c, 1, 69, 127
1, 44940, Note_on_c, 1, 72, 127
1, 44940, Note_on_c, 1, 45, 127
1, 44969, Note_off_c, 1, 69, 0
1, 44969, Note_off_c, 1, 72, 0
1, 44970, Note_on_c, 1, 66, 127
1, 44999, Note_off_c, 1, 45, 0
1, 44999, Note_off_c, 1, 66, 0
1, 45000, Note_on_c, 1, 62, 127
1, 45000, Note_on_c, 1, 72, 127
1, 45000, Note_on_c, 1, 43, 127
1, 45015, Note_off_c, 1, 72, 0
1, 45015, Note_on_c, 1, 74, 127
1, 45030, Note_off_c, 1, 74, 0
1, 45059, Note_off_c, 1, 62, 0
1, 45060, Note_on_c, 1, 65, 127
1, 45060, Note_on_c, 1, 71, 127
1, 45089, Note_off_c, 1, 65, 0
1, 45090, Note_on_c, 1, 64, 127
1, 45119, Note_off_c, 1, 43, 0
1, 45119, Note_off_c, 1, 71, 0
1, 45119, Note_off_c, 1, 64, 0
1, 45120, Note_on_c, 1, 65, 127
1, 45120, Note_on_c, 1, 71, 127
1, 45149, Note_off_c, 1, 71, 0
1, 45150, Note_on_c, 1, 69, 127
1, 45179, Note_off_c, 1, 69, 0
1, 45180, Note_on_c, 1, 67, 127
1, 45209, Note_off_c, 1, 67, 0
1, 45240, Note_on_c, 1, 43, 127
1, 45270, Note_on_c, 1, 72, 127
1, 45299, Note_off_c, 1, 72, 0
1, 45300, Note_on_c, 1, 74, 127
1, 45329, Note_off_c, 1, 74, 0
1, 45359, Note_off_c, 1, 43, 0
1, 45360, Note_on_c, 1, 48, 127
1, 45390, Note_off_c, 1, 65, 0
1, 45390, Note_on_c, 1, 64, 127
1, 45419, Note_off_c, 1, 64, 0
1, 45420, Note_on_c, 1, 62, 127
1, 45449, Note_off_c, 1, 62, 0
1, 45450, Note_on_c, 1, 60, 127
1, 45479, Note_off_c, 1, 48, 0
1, 45479, Note_off_c, 1, 60, 0
1, 45480, Note_on_c, 1, 62, 127
1, 45480, Note_on_c, 1, 71, 127
1, 45509, Note_off_c, 1, 62, 0
1, 45510, Note_on_c, 1, 60, 127
1, 45539, Note_off_c, 1, 60, 0
1, 45540, Note_on_c, 1, 59, 127
1, 45569, Note_off_c, 1, 59, 0
1, 45600, Note_on_c, 1, 44, 127
1, 45630, Note_on_c, 1, 64, 127
1, 45659, Note_off_c, 1, 64, 0
1, 45660, Note_on_c, 1, 65, 127
1, 45689, Note_off_c, 1, 65, 0
1, 45719, Note_off_c, 1, 44, 0
1, 45720, Note_on_c, 1, 61, 127
1, 45720, Note_on_c, 1, 45, 127
1, 45750, Note_off_c, 1, 71, 0
1, 45779, Note_off_c, 1, 61, 0
1, 45780, Note_on_c, 1, 66, 127
1, 45809, Note_off_c, 1, 66, 0
1, 45810, Note_on_c, 1, 63, 127
1, 45810, Note_on_c, 1, 67, 127
1, 45839, Note_off_c, 1, 45, 0
1, 45839, Note_off_c, 1, 63, 0
1, 45839, Note_off_c, 1, 67, 0
1, 45840, Note_on_c, 1, 64, 127
1, 45840, Note_on_c, 1, 69, 127
1, 45869, Note_off_c, 1, 69, 0
1, 45870, Note_on_c, 1, 67, 127
1, 45899, Note_off_c, 1, 67, 0
1, 45900, Note_on_c, 1, 66, 127
1, 45929, Note_off_c, 1, 66, 0
1, 45960, Note_on_c, 1, 42, 127
1, 45990, Note_on_c, 1, 71, 127
1, 46019, Note_off_c, 1, 71, 0
1, 46020, Note_on_c, 1, 72, 127
1, 46049, Note_off_c, 1, 72, 0
1, 46079, Note_off_c, 1, 42, 0
1, 46080, Note_on_c, 1, 47, 127
1, 46110, Note_off_c, 1, 64, 0
1, 46199, Note_off_c, 1, 47, 0
1, 46200, Note_on_c, 1, 63, 127
1, 46200, Note_on_c, 1, 69, 127
1, 46229, Note_off_c, 1, 63, 0
1, 46230, Note_on_c, 1, 61, 127
1, 46259, Note_off_c, 1, 61, 0
1, 46260, Note_on_c, 1, 59, 127
1, 46289, Note_off_c, 1, 59, 0
1, 46320, Note_on_c, 1, 47, 127
1, 46350, Note_on_c, 1, 64, 127
1, 46379, Note_off_c, 1, 64, 0
1, 46380, Note_on_c, 1, 66, 127
1, 46409, Note_off_c, 1, 66, 0
1, 46439, Note_off_c, 1, 47, 0
1, 46440, Note_on_c, 1, 52, 127
1, 46470, Note_off_c, 1, 69, 0
1, 46470, Note_on_c, 1, 72, 127
1, 46499, Note_off_c, 1, 72, 0
1, 46500, Note_on_c, 1, 62, 127
1, 46500, Note_on_c, 1, 71, 127
1, 46529, Note_off_c, 1, 62, 0
1, 46529, Note_off_c, 1, 71, 0
1, 46559, Note_off_c, 1, 52, 0
1, 46560, Note_on_c, 1, 62, 127
1, 46560, Note_on_c, 1, 68, 127
1, 46589, Note_off_c, 1, 68, 0
1, 46590, Note_on_c, 1, 66, 127
1, 46619, Note_off_c, 1, 66, 0
1, 46620, Note_on_c, 1, 64, 127
1, 46649, Note_off_c, 1, 64, 0
1, 46680, Note_on_c, 1, 40, 127
1, 46710, Note_on_c, 1, 69, 127
1, 46739, Note_off_c, 1, 69, 0
1, 46740, Note_on_c, 1, 71, 127
1, 46769, Note_off_c, 1, 71, 0
1, 46799, Note_off_c, 1, 40, 0
1, 46800, Note_on_c, 1, 45, 127
1, 46830, Note_off_c, 1, 62, 0
1, 46860, Note_on_c, 1, 67, 127
1, 46889, Note_off_c, 1, 67, 0
1, 46919, Note_off_c, 1, 45, 0
1, 46920, Note_on_c, 1, 61, 127
1, 46920, Note_on_c, 1, 67, 127
1, 46949, Note_off_c, 1, 61, 0
1, 46950, Note_on_c, 1, 59, 127
1, 46979, Note_off_c, 1, 59, 0
1, 46980, Note_on_c, 1, 57, 127
1, 47009, Note_off_c, 1, 57, 0
1, 47040, Note_on_c, 1, 45, 127
1, 47070, Note_on_c, 1, 62, 127
1, 47099, Note_off_c, 1, 62, 0
1, 47100, Note_on_c, 1, 64, 127
1, 47129, Note_off_c, 1, 64, 0
1, 47159, Note_off_c, 1, 45, 0
1, 47160, Note_on_c, 1, 50, 127
1, 47190, Note_off_c, 1, 67, 0
1, 47190, Note_on_c, 1, 71, 127
1, 47219, Note_off_c, 1, 71, 0
1, 47220, Note_on_c, 1, 60, 127
1, 47220, Note_on_c, 1, 69, 127
1, 47249, Note_off_c, 1, 60, 0
1, 47249, Note_off_c, 1, 69, 0
1, 47279, Note_off_c, 1, 50, 0
1, 47280, Note_on_c, 1, 60, 127
1, 47280, Note_on_c, 1, 66, 127
1, 47309, Note_off_c, 1, 66, 0
1, 47310, Note_on_c, 1, 64, 127
1, 47339, Note_off_c, 1, 64, 0
1, 47340, Note_on_c, 1, 62, 127
1, 47369, Note_off_c, 1, 62, 0
1, 47400, Note_on_c, 1, 38, 127
1, 47430, Note_on_c, 1, 67, 127
1, 47459, Note_off_c, 1, 67, 0
1, 47460, Note_on_c, 1, 69, 127
1, 47489, Note_off_c, 1, 69, 0
1, 47519, Note_off_c, 1, 38, 0
1, 47520, Note_on_c, 1, 43, 127
1, 47550, Note_off_c, 1, 60, 0
1, 47580, Note_on_c, 1, 65, 127
1, 47609, Note_off_c, 1, 65, 0
1, 47639, Note_off_c, 1, 43, 0
1, 47640, Note_on_c, 1, 59, 127
1, 47640, Note_on_c, 1, 65, 127
1, 47669, Note_off_c, 1, 59, 0
1, 47670, Note_on_c, 1, 57, 127
1, 47699, Note_off_c, 1, 57, 0
1, 47700, Note_on_c, 1, 55, 127
1, 47729, Note_off_c, 1, 55, 0
1, 47760, Note_on_c, 1, 43, 127
1, 47790, Note_on_c, 1, 60, 127
1, 47819, Note_off_c, 1, 60, 0
1, 47820, Note_on_c, 1, 62, 127
1, 47849, Note_off_c, 1, 62, 0
1, 47879, Note_off_c, 1, 43, 0
1, 47880, Note_on_c, 1, 48, 127
1, 47940, Note_off_c, 1, 65, 0
1, 47940, Note_on_c, 1, 64, 127
1, 47969, Note_off_c, 1, 64, 0
1, 47999, Note_off_c, 1, 48, 0
1, 48030, Note_on_c, 1, 66, 127
1, 48059, Note_off_c, 1, 66, 0
1, 48060, Note_on_c, 1, 59, 127
1, 48060, Note_on_c, 1, 67, 127
1, 48089, Note_off_c, 1, 59, 0
1, 48089, Note_off_c, 1, 67, 0
1, 48090, Note_on_c, 1, 60, 127
1, 48090, Note_on_c, 1, 69, 127
1, 48090, Note_on_c, 1, 57, 127
1, 48119, Note_off_c, 1, 60, 0
1, 48119, Note_off_c, 1, 69, 0
1, 48119, Note_off_c, 1, 57, 0
1, 48120, Note_on_c, 1, 62, 127
1, 48120, Note_on_c, 1, 71, 127
1, 48120, Note_on_c, 1, 55, 127
1, 48149, Note_off_c, 1, 62, 0
1, 48149, Note_off_c, 1, 71, 0
1, 48150, Note_on_c, 1, 64, 127
1, 48150, Note_on_c, 1, 72, 127
1, 48179, Note_off_c, 1, 55, 0
1, 48179, Note_off_c, 1, 64, 0
1, 48179, Note_off_c, 1, 72, 0
1, 48180, Note_on_c, 1, 66, 127
1, 48180, Note_on_c, 1, 74, 127
1, 48180, Note_on_c, 1, 43, 127
1, 48209, Note_off_c, 1, 66, 0
1, 48209, Note_off_c, 1, 74, 0
1, 48210, Note_on_c, 1, 67, 127
1, 48210, Note_on_c, 1, 76, 127
1, 48239, Note_off_c, 1, 43, 0
1, 48239, Note_off_c, 1, 67, 0
1, 48239, Note_off_c, 1, 76, 0
1, 48240, Note_on_c, 1, 69, 127
1, 48240, Note_on_c, 1, 66, 127
1, 48240, Note_on_c, 1, 50, 127
1, 48269, Note_off_c, 1, 69, 0
1, 48269, Note_off_c, 1, 66, 0
1, 48270, Note_on_c, 1, 67, 127
1, 48270, Note_on_c, 1, 64, 127
1, 48299, Note_off_c, 1, 67, 0
1, 48299, Note_off_c, 1, 64, 0
1, 48300, Note_on_c, 1, 62, 127
1, 48329, Note_off_c, 1, 62, 0
1, 48359, Note_off_c, 1, 50, 0
1, 48360, Note_on_c, 1, 62, 127
1, 48360, Note_on_c, 1, 66, 127
1, 48389, Note_off_c, 1, 66, 0
1, 48390, Note_on_c, 1, 67, 127
1, 48390, Note_on_c, 1, 50, 127
1, 48419, Note_off_c, 1, 67, 0
1, 48419, Note_off_c, 1, 50, 0
1, 48420, Note_on_c, 1, 69, 127
1, 48420, Note_on_c, 1, 48, 127
1, 48449, Note_off_c, 1, 69, 0
1, 48449, Note_off_c, 1, 48, 0
1, 48450, Note_on_c, 1, 71, 127
1, 48450, Note_on_c, 1, 47, 127
1, 48479, Note_off_c, 1, 62, 0
1, 48479, Note_off_c, 1, 71, 0
1, 48479, Note_off_c, 1, 47, 0
1, 48480, Note_on_c, 1, 72, 127
1, 48480, Note_on_c, 1, 45, 127
1, 48509, Note_off_c, 1, 72, 0
1, 48510, Note_on_c, 1, 76, 127
1, 48539, Note_off_c, 1, 45, 0
1, 48539, Note_off_c, 1, 76, 0
1, 48540, Note_on_c, 1, 74, 127
1, 48540, Note_on_c, 1, 50, 127
1, 48569, Note_off_c, 1, 74, 0
1, 48570, Note_on_c, 1, 72, 127
1, 48599, Note_off_c, 1, 50, 0
1, 48599, Note_off_c, 1, 72, 0
1, 48600, Note_on_c, 1, 71, 127
1, 48600, Note_on_c, 1, 43, 127
1, 48629, Note_off_c, 1, 71, 0
1, 48630, Note_on_c, 1, 72, 127
1, 48659, Note_off_c, 1, 72, 0
1, 48660, Note_on_c, 1, 74, 127
1, 48689, Note_off_c, 1, 74, 0
1, 48719, Note_off_c, 1, 43, 0
1, 48720, Note_on_c, 1, 69, 127
1, 48720, Note_on_c, 1, 47, 127
1, 48779, Note_off_c, 1, 69, 0
1, 48780, Note_on_c, 1, 50, 127
1, 48780, Note_on_c, 1, 67, 127
1, 48839, Note_off_c, 1, 47, 0
1, 48839, Note_off_c, 1, 50, 0
1, 48839, Note_off_c, 1, 67, 0
1, 48840, Note_on_c, 1, 55, 127
1, 48840, Note_on_c, 1, 43, 127
1, 48869, Note_off_c, 1, 55, 0
1, 48870, Note_on_c, 1, 57, 127
1, 48899, Note_off_c, 1, 57, 0
1, 48900, Note_on_c, 1, 59, 127
1, 48900, Note_on_c, 1, 79, 127
1, 48929, Note_off_c, 1, 59, 0
1, 48959, Note_off_c, 1, 43, 0
1, 48960, Note_on_c, 1, 50, 127
1, 48975, Note_on_c, 1, 60, 127
1, 48989, Note_off_c, 1, 79, 0
1, 48990, Note_off_c, 1, 60, 0
1, 48990, Note_on_c, 1, 76, 127
1, 49019, Note_off_c, 1, 76, 0
1, 49020, Note_on_c, 1, 78, 127
1, 49049, Note_off_c, 1, 78, 0
1, 49079, Note_off_c, 1, 50, 0
1, 49080, Note_on_c, 1, 57, 127
1, 49080, Note_on_c, 1, 81, 127
1, 49109, Note_off_c, 1, 81, 0
1, 49110, Note_on_c, 1, 83, 127
1, 49139, Note_off_c, 1, 57, 0
1, 49139, Note_off_c, 1, 83, 0
1, 49140, Note_on_c, 1, 54, 127
1, 49140, Note_on_c, 1, 84, 127
1, 49140, Note_on_c, 1, 50, 127
1, 49169, Note_off_c, 1, 54, 0
1, 49169, Note_off_c, 1, 84, 0
1, 49169, Note_off_c, 1, 50, 0
1, 49170, Note_on_c, 1, 55, 127
1, 49170, Note_on_c, 1, 52, 127
1, 49199, Note_off_c, 1, 55, 0
1, 49199, Note_off_c, 1, 52, 0
1, 49200, Note_on_c, 1, 57, 127
1, 49200, Note_on_c, 1, 74, 127
1, 49200, Note_on_c, 1, 54, 127
1, 49229, Note_off_c, 1, 57, 0
1, 49230, Note_on_c, 1, 59, 127
1, 49259, Note_off_c, 1, 74, 0
1, 49259, Note_off_c, 1, 54, 0
1, 49259, Note_off_c, 1, 59, 0
1, 49260, Note_on_c, 1, 60, 127
1, 49260, Note_on_c, 1, 79, 127
1, 49260, Note_on_c, 1, 50, 127
1, 49274, Note_off_c, 1, 79, 0
1, 49275, Note_on_c, 1, 78, 127
1, 49289, Note_off_c, 1, 60, 0
1, 49289, Note_off_c, 1, 78, 0
1, 49290, Note_on_c, 1, 76, 127
1, 49304, Note_off_c, 1, 76, 0
1, 49319, Note_off_c, 1, 50, 0
1, 49320, Note_on_c, 1, 60, 127
1, 49320, Note_on_c, 1, 79, 127
1, 49320, Note_on_c, 1, 55, 127
1, 49335, Note_off_c, 1, 60, 0
1, 49335, Note_on_c, 1, 62, 127
1, 49349, Note_off_c, 1, 79, 0
1, 49379, Note_off_c, 1, 62, 0
1, 49380, Note_on_c, 1, 59, 127
1, 49380, Note_on_c, 1, 64, 127
1, 49409, Note_off_c, 1, 64, 0
1, 49410, Note_on_c, 1, 66, 127
1, 49439, Note_off_c, 1, 55, 0
1, 49439, Note_off_c, 1, 59, 0
1, 49439, Note_off_c, 1, 66, 0
1, 49440, Note_on_c, 1, 59, 127
1, 49440, Note_on_c, 1, 67, 127
1, 49469, Note_off_c, 1, 67, 0
1, 49470, Note_on_c, 1, 69, 127
1, 49499, Note_off_c, 1, 59, 0
1, 49499, Note_off_c, 1, 69, 0
1, 49500, Note_on_c, 1, 62, 127
1, 49500, Note_on_c, 1, 71, 127
1, 49529, Note_off_c, 1, 62, 0
1, 49529, Note_off_c, 1, 71, 0
1, 49530, Note_on_c, 1, 72, 127
1, 49559, Note_off_c, 1, 72, 0
1, 49560, Note_on_c, 1, 60, 127
1, 49560, Note_on_c, 1, 74, 127
1, 49560, Note_on_c, 1, 43, 127
1, 49589, Note_off_c, 1, 60, 0
1, 49590, Note_on_c, 1, 59, 127
1, 49619, Note_off_c, 1, 74, 0
1, 49619, Note_off_c, 1, 59, 0
1, 49620, Note_on_c, 1, 57, 127
1, 49620, Note_on_c, 1, 71, 127
1, 49649, Note_off_c, 1, 57, 0
1, 49650, Note_on_c, 1, 55, 127
1, 49679, Note_off_c, 1, 43, 0
1, 49679, Note_off_c, 1, 71, 0
1, 49679, Note_off_c, 1, 55, 0
1, 49680, Note_on_c, 1, 64, 127
1, 49680, Note_on_c, 1, 67, 127
1, 49680, Note_on_c, 1, 48, 127
1, 49739, Note_off_c, 1, 64, 0
1, 49739, Note_off_c, 1, 67, 0
1, 49770, Note_on_c, 1, 66, 127
1, 49799, Note_off_c, 1, 48, 0
1, 49799, Note_off_c, 1, 66, 0
1, 49800, Note_on_c, 1, 64, 127
1, 49800, Note_on_c, 1, 69, 127
1, 49829, Note_off_c, 1, 69, 0
1, 49830, Note_on_c, 1, 71, 127
1, 49859, Note_off_c, 1, 64, 0
1, 49859, Note_off_c, 1, 71, 0
1, 49860, Note_on_c, 1, 62, 127
1, 49860, Note_on_c, 1, 72, 127
1, 49889, Note_off_c, 1, 72, 0
1, 49890, Note_on_c, 1, 74, 127
1, 49919, Note_off_c, 1, 62, 0
1, 49919, Note_off_c, 1, 74, 0
1, 49920, Note_on_c, 1, 60, 127
1, 49920, Note_on_c, 1, 76, 127
1, 49920, Note_on_c, 1, 45, 127
1, 49949, Note_off_c, 1, 60, 0
1, 49949, Note_off_c, 1, 76, 0
1, 49950, Note_on_c, 1, 59, 127
1, 49950, Note_on_c, 1, 78, 127
1, 49979, Note_off_c, 1, 59, 0
1, 49979, Note_off_c, 1, 78, 0
1, 49980, Note_on_c, 1, 57, 127
1, 49980, Note_on_c, 1, 79, 127
1, 50009, Note_off_c, 1, 57, 0
1, 50010, Note_on_c, 1, 55, 127
1, 50039, Note_off_c, 1, 45, 0
1, 50039, Note_off_c, 1, 55, 0
1, 50040, Note_on_c, 1, 50, 127
1, 50069, Note_off_c, 1, 79, 0
1, 50070, Note_on_c, 1, 83, 127
1, 50099, Note_off_c, 1, 83, 0
1, 50100, Note_on_c, 1, 54, 127
1, 50100, Note_on_c, 1, 81, 127
1, 50129, Note_off_c, 1, 54, 0
1, 50129, Note_off_c, 1, 81, 0
1, 50130, Note_on_c, 1, 52, 127
1, 50159, Note_off_c, 1, 50, 0
1, 50159, Note_off_c, 1, 52, 0
1, 50160, Note_on_c, 1, 50, 127
1, 50160, Note_on_c, 1, 78, 127
1, 50189, Note_off_c, 1, 78, 0
1, 50190, Note_on_c, 1, 76, 127
1, 50219, Note_off_c, 1, 76, 0
1, 50220, Note_on_c, 1, 74, 127
1, 50220, Note_on_c, 1, 54, 127
1, 50249, Note_off_c, 1, 74, 0
1, 50249, Note_off_c, 1, 54, 0
1, 50250, Note_on_c, 1, 73, 127
1, 50250, Note_on_c, 1, 52, 127
1, 50279, Note_off_c, 1, 50, 0
1, 50279, Note_off_c, 1, 73, 0
1, 50279, Note_off_c, 1, 52, 0
1, 50280, Note_on_c, 1, 74, 127
1, 50280, Note_on_c, 1, 50, 127
1, 50309, Note_off_c, 1, 74, 0
1, 50309, Note_off_c, 1, 50, 0
1, 50310, Note_on_c, 1, 76, 127
1, 50310, Note_on_c, 1, 49, 127
1, 50339, Note_off_c, 1, 76, 0
1, 50339, Note_off_c, 1, 49, 0
1, 50340, Note_on_c, 1, 62, 127
1, 50340, Note_on_c, 1, 78, 127
1, 50340, Note_on_c, 1, 47, 127
1, 50369, Note_off_c, 1, 78, 0
1, 50369, Note_off_c, 1, 47, 0
1, 50370, Note_on_c, 1, 45, 127
1, 50399, Note_off_c, 1, 45, 0
1, 50400, Note_on_c, 1, 43, 127
1, 50415, Note_on_c, 1, 79, 127
1, 50429, Note_off_c, 1, 62, 0
1, 50430, Note_off_c, 1, 79, 0
1, 50430, Note_on_c, 1, 59, 127
1, 50459, Note_off_c, 1, 43, 0
1, 50459, Note_off_c, 1, 59, 0
1, 50460, Note_on_c, 1, 61, 127
1, 50460, Note_on_c, 1, 76, 127
1, 50460, Note_on_c, 1, 57, 127
1, 50489, Note_off_c, 1, 61, 0
1, 50490, Note_on_c, 1, 62, 127
1, 50519, Note_off_c, 1, 76, 0
1, 50519, Note_off_c, 1, 57, 0
1, 50519, Note_off_c, 1, 62, 0
1, 50520, Note_on_c, 1, 64, 127
1, 50520, Note_on_c, 1, 76, 127
1, 50520, Note_on_c, 1, 49, 127
1, 50549, Note_off_c, 1, 64, 0
1, 50550, Note_on_c, 1, 66, 127
1, 50579, Note_off_c, 1, 76, 0
1, 50579, Note_off_c, 1, 49, 0
1, 50579, Note_off_c, 1, 66, 0
1, 50580, Note_on_c, 1, 67, 127
1, 50580, Note_on_c, 1, 73, 127
1, 50580, Note_on_c, 1, 45, 127
1, 50609, Note_off_c, 1, 67, 0
1, 50609, Note_off_c, 1, 73, 0
1, 50609, Note_off_c, 1, 45, 0
1, 50610, Note_on_c, 1, 74, 127
1, 50610, Note_on_c, 1, 47, 127
1, 50639, Note_off_c, 1, 74, 0
1, 50639, Note_off_c, 1, 47, 0
1, 50640, Note_on_c, 1, 57, 127
1, 50640, Note_on_c, 1, 76, 127
1, 50640, Note_on_c, 1, 49, 127
1, 50669, Note_off_c, 1, 76, 0
1, 50670, Note_on_c, 1, 78, 127
1, 50699, Note_off_c, 1, 57, 0
1, 50699, Note_off_c, 1, 49, 0
1, 50699, Note_off_c, 1, 78, 0
1, 50700, Note_on_c, 1, 61, 127
1, 50700, Note_on_c, 1, 79, 127
1, 50700, Note_on_c, 1, 45, 127
1, 50715, Note_off_c, 1, 61, 0
1, 50715, Note_on_c, 1, 62, 127
1, 50729, Note_off_c, 1, 79, 0
1, 50730, Note_off_c, 1, 62, 0
1, 50759, Note_off_c, 1, 45, 0
1, 50760, Note_on_c, 1, 50, 127
1, 50775, Note_on_c, 1, 81, 127
1, 50790, Note_off_c, 1, 81, 0
1, 50790, Note_on_c, 1, 57, 127
1, 50819, Note_off_c, 1, 57, 0
1, 50820, Note_on_c, 1, 59, 127
1, 50820, Note_on_c, 1, 78, 127
1, 50849, Note_off_c, 1, 59, 0
1, 50879, Note_off_c, 1, 50, 0
1, 50879, Note_off_c, 1, 78, 0
1, 50880, Note_on_c, 1, 62, 127
1, 50880, Note_on_c, 1, 78, 127
1, 50909, Note_off_c, 1, 62, 0
1, 50910, Note_on_c, 1, 64, 127
1, 50939, Note_off_c, 1, 78, 0
1, 50939, Note_off_c, 1, 64, 0
1, 50940, Note_on_c, 1, 66, 127
1, 50940, Note_on_c, 1, 81, 127
1, 50969, Note_off_c, 1, 66, 0
1, 50970, Note_on_c, 1, 67, 127
1, 50999, Note_off_c, 1, 81, 0
1, 50999, Note_off_c, 1, 67, 0
1, 51000, Note_on_c, 1, 69, 127
1, 51000, Note_on_c, 1, 79, 127
1, 51000, Note_on_c, 1, 38, 127
1, 51029, Note_off_c, 1, 79, 0
1, 51030, Note_on_c, 1, 78, 127
1, 51059, Note_off_c, 1, 69, 0
1, 51059, Note_off_c, 1, 78, 0
1, 51060, Note_on_c, 1, 66, 127
1, 51060, Note_on_c, 1, 76, 127
1, 51089, Note_off_c, 1, 76, 0
1, 51090, Note_on_c, 1, 74, 127
1, 51119, Note_off_c, 1, 38, 0
1, 51119, Note_off_c, 1, 66, 0
1, 51119, Note_off_c, 1, 74, 0
1, 51120, Note_on_c, 1, 62, 127
1, 51120, Note_on_c, 1, 83, 127
1, 51120, Note_on_c, 1, 43, 127
1, 51179, Note_off_c, 1, 83, 0
1, 51180, Note_on_c, 1, 86, 127
1, 51209, Note_off_c, 1, 86, 0
1, 51210, Note_on_c, 1, 84, 127
1, 51239, Note_off_c, 1, 43, 0
1, 51239, Note_off_c, 1, 84, 0
1, 51300, Note_on_c, 1, 81, 127
1, 51330, Note_on_c, 1, 60, 127
1, 51359, Note_off_c, 1, 81, 0
1, 51359, Note_off_c, 1, 60, 0
1, 51360, Note_on_c, 1, 79, 127
1, 51360, Note_on_c, 1, 59, 127
1, 51389, Note_off_c, 1, 79, 0
1, 51389, Note_off_c, 1, 59, 0
1, 51390, Note_on_c, 1, 78, 127
1, 51390, Note_on_c, 1, 57, 127
1, 51419, Note_off_c, 1, 78, 0
1, 51419, Note_off_c, 1, 57, 0
1, 51420, Note_on_c, 1, 76, 127
1, 51420, Note_on_c, 1, 56, 127
1, 51449, Note_off_c, 1, 76, 0
1, 51449, Note_off_c, 1, 56, 0
1, 51450, Note_on_c, 1, 74, 127
1, 51450, Note_on_c, 1, 54, 127
1, 51479, Note_off_c, 1, 74, 0
1, 51479, Note_off_c, 1, 54, 0
1, 51539, Note_off_c, 1, 62, 0
1, 51540, Note_on_c, 1, 52, 127
1, 51569, Note_off_c, 1, 52, 0
1, 51720, Note_on_c, 1, 64, 127
1, 51779, Note_off_c, 1, 64, 0
1, 51900, Note_on_c, 1, 45, 127
1, 51959, Note_off_c, 1, 45, 0
1, 51960, Note_on_c, 1, 72, 127
1, 51989, Note_off_c, 1, 72, 0
1, 52020, Note_on_c, 1, 71, 127
1, 52049, Note_off_c, 1, 71, 0
1, 52080, Note_on_c, 1, 69, 127
1, 52109, Note_off_c, 1, 69, 0
1, 52260, Note_on_c, 1, 50, 127
1, 52289, Note_off_c, 1, 50, 0
1, 52380, Note_on_c, 1, 55, 127
1, 52409, Note_off_c, 1, 55, 0
1, 52800, Note_on_c, 1, 67, 127
1, 52829, Note_off_c, 1, 67, 0
1, 53100, Note_on_c, 1, 59, 127
1, 53100, Note_on_c, 1, 72, 127
1, 53100, Note_on_c, 1, 50, 127
1, 53129, Note_off_c, 1, 59, 0
1, 53129, Note_off_c, 1, 72, 0
1, 53129, Note_off_c, 1, 50, 0
1, 53130, Note_on_c, 1, 57, 127
1, 53130, Note_on_c, 1, 55, 127
1, 53159, Note_off_c, 1, 57, 0
1, 53159, Note_off_c, 1, 55, 0
1, 53160, Note_on_c, 1, 59, 127
1, 53160, Note_on_c, 1, 72, 127
1, 53160, Note_on_c, 1, 48, 127
1, 53189, Note_off_c, 1, 59, 0
1, 53189, Note_off_c, 1, 72, 0
1, 53189, Note_off_c, 1, 48, 0
1, 53190, Note_on_c, 1, 55, 127
1, 53219, Note_off_c, 1, 55, 0
1, 53220, Note_on_c, 1, 59, 127
1, 53220, Note_on_c, 1, 72, 127
1, 53220, Note_on_c, 1, 47, 127
1, 53249, Note_off_c, 1, 59, 0
1, 53249, Note_off_c, 1, 72, 0
1, 53249, Note_off_c, 1, 47, 0
1, 53250, Note_on_c, 1, 55, 127
1, 53279, Note_off_c, 1, 55, 0
1, 53280, Note_on_c, 1, 57, 127
1, 53280, Note_on_c, 1, 72, 127
1, 53280, Note_on_c, 1, 48, 127
1, 53309, Note_off_c, 1, 48, 0
1, 53310, Note_on_c, 1, 52, 127
1, 53339, Note_off_c, 1, 72, 0
1, 53339, Note_off_c, 1, 52, 0
1, 53340, Note_on_c, 1, 50, 127
1, 53369, Note_off_c, 1, 50, 0
1, 53370, Note_on_c, 1, 71, 127
1, 53399, Note_off_c, 1, 71, 0
1, 53459, Note_off_c, 1, 57, 0
1, 53460, Note_on_c, 1, 57, 127
1, 53460, Note_on_c, 1, 72, 127
1, 53460, Note_on_c, 1, 47, 127
1, 53489, Note_off_c, 1, 57, 0
1, 53489, Note_off_c, 1, 72, 0
1, 53489, Note_off_c, 1, 47, 0
1, 53490, Note_on_c, 1, 55, 127
1, 53490, Note_on_c, 1, 52, 127
1, 53519, Note_off_c, 1, 55, 0
1, 53519, Note_off_c, 1, 52, 0
1, 53520, Note_on_c, 1, 57, 127
1, 53520, Note_on_c, 1, 72, 127
1, 53520, Note_on_c, 1, 45, 127
1, 53549, Note_off_c, 1, 57, 0
1, 53549, Note_off_c, 1, 72, 0
1, 53549, Note_off_c, 1, 45, 0
1, 53550, Note_on_c, 1, 52, 127
1, 53579, Note_off_c, 1, 52, 0
1, 53580, Note_on_c, 1, 57, 127
1, 53580, Note_on_c, 1, 72, 127
1, 53580, Note_on_c, 1, 43, 127
1, 53609, Note_off_c, 1, 57, 0
1, 53609, Note_off_c, 1, 72, 0
1, 53609, Note_off_c, 1, 43, 0
1, 53610, Note_on_c, 1, 52, 127
1, 53639, Note_off_c, 1, 52, 0
1, 53640, Note_on_c, 1, 55, 127
1, 53640, Note_on_c, 1, 72, 127
1, 53640, Note_on_c, 1, 45, 127
1, 53669, Note_off_c, 1, 45, 0
1, 53670, Note_on_c, 1, 48, 127
1, 53699, Note_off_c, 1, 72, 0
1, 53699, Note_off_c, 1, 48, 0
1, 53700, Note_on_c, 1, 47, 127
1, 53729, Note_off_c, 1, 47, 0
1, 53730, Note_on_c, 1, 71, 127
1, 53759, Note_off_c, 1, 71, 0
1, 53819, Note_off_c, 1, 55, 0
1, 53820, Note_on_c, 1, 60, 127
1, 53820, Note_on_c, 1, 72, 127
1, 53820, Note_on_c, 1, 43, 127
1, 53849, Note_off_c, 1, 60, 0
1, 53849, Note_off_c, 1, 72, 0
1, 53849, Note_off_c, 1, 43, 0
1, 53850, Note_on_c, 1, 59, 127
1, 53850, Note_on_c, 1, 48, 127
1, 53879, Note_off_c, 1, 59, 0
1, 53879, Note_off_c, 1, 48, 0
1, 53880, Note_on_c, 1, 57, 127
1, 53880, Note_on_c, 1, 72, 127
1, 53880, Note_on_c, 1, 42, 127
1, 53909, Note_off_c, 1, 57, 0
1, 53909, Note_off_c, 1, 72, 0
1, 53909, Note_off_c, 1, 42, 0
1, 53910, Note_on_c, 1, 48, 127
1, 53939, Note_off_c, 1, 48, 0
1, 53940, Note_on_c, 1, 55, 127
1, 53940, Note_on_c, 1, 72, 127
1, 53940, Note_on_c, 1, 40, 127
1, 53969, Note_off_c, 1, 55, 0
1, 53969, Note_off_c, 1, 72, 0
1, 53969, Note_off_c, 1, 40, 0
1, 53970, Note_on_c, 1, 48, 127
1, 53999, Note_off_c, 1, 48, 0
1, 54000, Note_on_c, 1, 54, 127
1, 54000, Note_on_c, 1, 72, 127
1, 54000, Note_on_c, 1, 38, 127
1, 54029, Note_off_c, 1, 54, 0
1, 54029, Note_off_c, 1, 72, 0
1, 54030, Note_on_c, 1, 62, 127
1, 54030, Note_on_c, 1, 71, 127
1, 54059, Note_off_c, 1, 62, 0
1, 54059, Note_off_c, 1, 71, 0
1, 54060, Note_on_c, 1, 60, 127
1, 54060, Note_on_c, 1, 69, 127
1, 54089, Note_off_c, 1, 60, 0
1, 54089, Note_off_c, 1, 69, 0
1, 54090, Note_on_c, 1, 59, 127
1, 54090, Note_on_c, 1, 67, 127
1, 54119, Note_off_c, 1, 59, 0
1, 54119, Note_off_c, 1, 67, 0
1, 54120, Note_on_c, 1, 57, 127
1, 54120, Note_on_c, 1, 66, 127
1, 54149, Note_off_c, 1, 57, 0
1, 54149, Note_off_c, 1, 66, 0
1, 54150, Note_on_c, 1, 55, 127
1, 54150, Note_on_c, 1, 64, 127
1, 54179, Note_off_c, 1, 55, 0
1, 54179, Note_off_c, 1, 64, 0
1, 54210, Note_on_c, 1, 52, 127
1, 54239, Note_off_c, 1, 38, 0
1, 54239, Note_off_c, 1, 52, 0
1, 54240, Note_on_c, 1, 50, 127
1, 54270, Note_on_c, 1, 52, 127
1, 54299, Note_off_c, 1, 50, 0
1, 54299, Note_off_c, 1, 52, 0
1, 54300, Note_on_c, 1, 50, 127
1, 54329, Note_off_c, 1, 50, 0
1, 54330, Note_on_c, 1, 48, 127
1, 54359, Note_off_c, 1, 48, 0
1, 54360, Note_on_c, 1, 47, 127
1, 54389, Note_off_c, 1, 47, 0
1, 54390, Note_on_c, 1, 45, 127
1, 54419, Note_off_c, 1, 45, 0
1, 54420, Note_on_c, 1, 43, 127
1, 54449, Note_off_c, 1, 43, 0
1, 54450, Note_on_c, 1, 42, 127
1, 54479, Note_off_c, 1, 42, 0
1, 54480, Note_on_c, 1, 43, 127
1, 54509, Note_off_c, 1, 43, 0
1, 54510, Note_on_c, 1, 45, 127
1, 54539, Note_off_c, 1, 45, 0
1, 54540, Note_on_c, 1, 62, 127
1, 54540, Note_on_c, 1, 47, 127
1, 54569, Note_off_c, 1, 47, 0
1, 54570, Note_on_c, 1, 45, 127
1, 54599, Note_off_c, 1, 62, 0
1, 54599, Note_off_c, 1, 45, 0
1, 54600, Note_on_c, 1, 67, 127
1, 54600, Note_on_c, 1, 43, 127
1, 54629, Note_off_c, 1, 67, 0
1, 54629, Note_off_c, 1, 43, 0
1, 54630, Note_on_c, 1, 69, 127
1, 54630, Note_on_c, 1, 42, 127
1, 54659, Note_off_c, 1, 69, 0
1, 54659, Note_off_c, 1, 42, 0
1, 54660, Note_on_c, 1, 71, 127
1, 54660, Note_on_c, 1, 40, 127
1, 54689, Note_off_c, 1, 71, 0
1, 54689, Note_off_c, 1, 40, 0
1, 54690, Note_on_c, 1, 38, 127
1, 54719, Note_off_c, 1, 38, 0
1, 54720, Note_on_c, 1, 71, 127
1, 54720, Note_on_c, 1, 36, 127
1, 54735, Note_off_c, 1, 71, 0
1, 54735, Note_on_c, 1, 72, 127
1, 54749, Note_off_c, 1, 36, 0
1, 54750, Note_off_c, 1, 72, 0
1, 54750, Note_on_c, 1, 43, 127
1, 54779, Note_off_c, 1, 43, 0
1, 54780, Note_on_c, 1, 69, 127
1, 54780, Note_on_c, 1, 48, 127
1, 54809, Note_off_c, 1, 48, 0
1, 54810, Note_on_c, 1, 50, 127
1, 54839, Note_off_c, 1, 69, 0
1, 54839, Note_off_c, 1, 50, 0
1, 54840, Note_on_c, 1, 69, 127
1, 54840, Note_on_c, 1, 48, 127
1, 54869, Note_off_c, 1, 48, 0
1, 54870, Note_on_c, 1, 47, 127
1, 54899, Note_off_c, 1, 69, 0
1, 54899, Note_off_c, 1, 47, 0
1, 54900, Note_on_c, 1, 66, 127
1, 54900, Note_on_c, 1, 45, 127
1, 54929, Note_off_c, 1, 66, 0
1, 54929, Note_off_c, 1, 45, 0
1, 54930, Note_on_c, 1, 67, 127
1, 54930, Note_on_c, 1, 43, 127
1, 54959, Note_off_c, 1, 67, 0
1, 54959, Note_off_c, 1, 43, 0
1, 54960, Note_on_c, 1, 69, 127
1, 54960, Note_on_c, 1, 42, 127
1, 54989, Note_off_c, 1, 69, 0
1, 54990, Note_on_c, 1, 71, 127
1, 55019, Note_off_c, 1, 42, 0
1, 55019, Note_off_c, 1, 71, 0
1, 55020, Note_on_c, 1, 72, 127
1, 55020, Note_on_c, 1, 38, 127
1, 55049, Note_off_c, 1, 72, 0
1, 55079, Note_off_c, 1, 38, 0
1, 55080, Note_on_c, 1, 72, 127
1, 55080, Note_on_c, 1, 43, 127
1, 55095, Note_off_c, 1, 72, 0
1, 55095, Note_on_c, 1, 74, 127
1, 55109, Note_off_c, 1, 43, 0
1, 55110, Note_off_c, 1, 74, 0
1, 55110, Note_on_c, 1, 50, 127
1, 55139, Note_off_c, 1, 50, 0
1, 55140, Note_on_c, 1, 71, 127
1, 55140, Note_on_c, 1, 52, 127
1, 55169, Note_off_c, 1, 52, 0
1, 55170, Note_on_c, 1, 54, 127
1, 55199, Note_off_c, 1, 71, 0
1, 55199, Note_off_c, 1, 54, 0
1, 55200, Note_on_c, 1, 71, 127
1, 55200, Note_on_c, 1, 55, 127
1, 55259, Note_off_c, 1, 71, 0
1, 55259, Note_off_c, 1, 55, 0
1, 55260, Note_on_c, 1, 50, 127
1, 55260, Note_on_c, 1, 74, 127
1, 55260, Note_on_c, 1, 59, 127
1, 55289, Note_off_c, 1, 74, 0
1, 55319, Note_off_c, 1, 50, 0
1, 55319, Note_off_c, 1, 59, 0
1, 55320, Note_on_c, 1, 55, 127
1, 55320, Note_on_c, 1, 72, 127
1, 55320, Note_on_c, 1, 52, 127
1, 55349, Note_off_c, 1, 55, 0
1, 55349, Note_off_c, 1, 72, 0
1, 55350, Note_on_c, 1, 57, 127
1, 55350, Note_on_c, 1, 71, 127
1, 55379, Note_off_c, 1, 52, 0
1, 55379, Note_off_c, 1, 57, 0
1, 55379, Note_off_c, 1, 71, 0
1, 55380, Note_on_c, 1, 59, 127
1, 55380, Note_on_c, 1, 69, 127
1, 55380, Note_on_c, 1, 55, 127
1, 55409, Note_off_c, 1, 59, 0
1, 55409, Note_off_c, 1, 69, 0
1, 55410, Note_on_c, 1, 67, 127
1, 55439, Note_off_c, 1, 55, 0
1, 55439, Note_off_c, 1, 67, 0
1, 55440, Note_on_c, 1, 59, 127
1, 55440, Note_on_c, 1, 76, 127
1, 55440, Note_on_c, 1, 48, 127
1, 55455, Note_off_c, 1, 59, 0
1, 55455, Note_on_c, 1, 60, 127
1, 55470, Note_off_c, 1, 60, 0
1, 55499, Note_off_c, 1, 76, 0
1, 55499, Note_off_c, 1, 48, 0
1, 55500, Note_on_c, 1, 57, 127
1, 55500, Note_on_c, 1, 79, 127
1, 55500, Note_on_c, 1, 60, 127
1, 55529, Note_off_c, 1, 79, 0
1, 55530, Note_on_c, 1, 78, 127
1, 55559, Note_off_c, 1, 57, 0
1, 55559, Note_off_c, 1, 60, 0
1, 55559, Note_off_c, 1, 78, 0
1, 55560, Note_on_c, 1, 57, 127
1, 55560, Note_on_c, 1, 76, 127
1, 55560, Note_on_c, 1, 54, 127
1, 55589, Note_off_c, 1, 76, 0
1, 55619, Note_off_c, 1, 57, 0
1, 55619, Note_off_c, 1, 54, 0
1, 55620, Note_on_c, 1, 54, 127
1, 55620, Note_on_c, 1, 74, 127
1, 55620, Note_on_c, 1, 57, 127
1, 55649, Note_off_c, 1, 54, 0
1, 55649, Note_off_c, 1, 74, 0
1, 55650, Note_on_c, 1, 55, 127
1, 55679, Note_off_c, 1, 57, 0
1, 55679, Note_off_c, 1, 55, 0
1, 55680, Note_on_c, 1, 57, 127
1, 55680, Note_on_c, 1, 72, 127
1, 55680, Note_on_c, 1, 50, 127
1, 55709, Note_off_c, 1, 57, 0
1, 55709, Note_off_c, 1, 72, 0
1, 55710, Note_on_c, 1, 59, 127
1, 55710, Note_on_c, 1, 71, 127
1, 55739, Note_off_c, 1, 50, 0
1, 55739, Note_off_c, 1, 59, 0
1, 55739, Note_off_c, 1, 71, 0
1, 55740, Note_on_c, 1, 60, 127
1, 55740, Note_on_c, 1, 69, 127
1, 55740, Note_on_c, 1, 54, 127
1, 55769, Note_off_c, 1, 60, 0
1, 55769, Note_off_c, 1, 69, 0
1, 55770, Note_on_c, 1, 67, 127
1, 55799, Note_off_c, 1, 54, 0
1, 55799, Note_off_c, 1, 67, 0
1, 55800, Note_on_c, 1, 60, 127
1, 55800, Note_on_c, 1, 66, 127
1, 55800, Note_on_c, 1, 47, 127
1, 55815, Note_off_c, 1, 60, 0
1, 55815, Note_on_c, 1, 62, 127
1, 55829, Note_off_c, 1, 66, 0
1, 55830, Note_off_c, 1, 62, 0
1, 55830, Note_on_c, 1, 64, 127
1, 55859, Note_off_c, 1, 47, 0
1, 55859, Note_off_c, 1, 64, 0
1, 55860, Note_on_c, 1, 59, 127
1, 55860, Note_on_c, 1, 62, 127
1, 55860, Note_on_c, 1, 50, 127
1, 55889, Note_off_c, 1, 62, 0
1, 55890, Note_on_c, 1, 64, 127
1, 55919, Note_off_c, 1, 59, 0
1, 55919, Note_off_c, 1, 50, 0
1, 55919, Note_off_c, 1, 64, 0
1, 55920, Note_on_c, 1, 59, 127
1, 55920, Note_on_c, 1, 65, 127
1, 55920, Note_on_c, 1, 43, 127
1, 55949, Note_off_c, 1, 65, 0
1, 55950, Note_on_c, 1, 62, 127
1, 55979, Note_off_c, 1, 59, 0
1, 55979, Note_off_c, 1, 43, 0
1, 55979, Note_off_c, 1, 62, 0
1, 55980, Note_on_c, 1, 62, 127
1, 55980, Note_on_c, 1, 65, 127
1, 55980, Note_on_c, 1, 47, 127
1, 56009, Note_off_c, 1, 65, 0
1, 56010, Note_on_c, 1, 71, 127
1, 56039, Note_off_c, 1, 62, 0
1, 56039, Note_off_c, 1, 47, 0
1, 56039, Note_off_c, 1, 71, 0
1, 56040, Note_on_c, 1, 60, 127
1, 56040, Note_on_c, 1, 74, 127
1, 56069, Note_off_c, 1, 60, 0
1, 56070, Note_on_c, 1, 59, 127
1, 56070, Note_on_c, 1, 43, 127
1, 56099, Note_off_c, 1, 59, 0
1, 56099, Note_off_c, 1, 43, 0
1, 56100, Note_on_c, 1, 57, 127
1, 56100, Note_on_c, 1, 45, 127
1, 56129, Note_off_c, 1, 57, 0
1, 56129, Note_off_c, 1, 45, 0
1, 56130, Note_on_c, 1, 55, 127
1, 56130, Note_on_c, 1, 47, 127
1, 56159, Note_off_c, 1, 55, 0
1, 56159, Note_off_c, 1, 47, 0
1, 56160, Note_on_c, 1, 64, 127
1, 56160, Note_on_c, 1, 48, 127
1, 56219, Note_off_c, 1, 74, 0
1, 56219, Note_off_c, 1, 64, 0
1, 56219, Note_off_c, 1, 48, 0
1, 56220, Note_on_c, 1, 67, 127
1, 56220, Note_on_c, 1, 64, 127
1, 56220, Note_on_c, 1, 36, 127
1, 56249, Note_off_c, 1, 67, 0
1, 56250, Note_on_c, 1, 66, 127
1, 56279, Note_off_c, 1, 64, 0
1, 56279, Note_off_c, 1, 36, 0
1, 56279, Note_off_c, 1, 66, 0
1, 56280, Note_on_c, 1, 64, 127
1, 56280, Note_on_c, 1, 72, 127
1, 56310, Note_on_c, 1, 52, 127
1, 56339, Note_off_c, 1, 64, 0
1, 56339, Note_off_c, 1, 52, 0
1, 56340, Note_on_c, 1, 62, 127
1, 56340, Note_on_c, 1, 54, 127
1, 56369, Note_off_c, 1, 54, 0
1, 56370, Note_on_c, 1, 55, 127
1, 56399, Note_off_c, 1, 62, 0
1, 56399, Note_off_c, 1, 55, 0
1, 56400, Note_on_c, 1, 60, 127
1, 56400, Note_on_c, 1, 57, 127
1, 56429, Note_off_c, 1, 60, 0
1, 56430, Note_on_c, 1, 59, 127
1, 56459, Note_off_c, 1, 57, 0
1, 56459, Note_off_c, 1, 59, 0
1, 56579, Note_off_c, 1, 72, 0
1, 56580, Note_on_c, 1, 62, 127
1, 56580, Note_on_c, 1, 71, 127
1, 56580, Note_on_c, 1, 56, 127
1, 56609, Note_off_c, 1, 62, 0
1, 56609, Note_off_c, 1, 71, 0
1, 56610, Note_on_c, 1, 60, 127
1, 56610, Note_on_c, 1, 69, 127
1, 56639, Note_off_c, 1, 60, 0
1, 56639, Note_off_c, 1, 69, 0
1, 56669, Note_off_c, 1, 56, 0
1, 56670, Note_on_c, 1, 72, 127
1, 56670, Note_on_c, 1, 57, 127
1, 56699, Note_off_c, 1, 72, 0
1, 56699, Note_off_c, 1, 57, 0
1, 56700, Note_on_c, 1, 62, 127
1, 56700, Note_on_c, 1, 74, 127
1, 56700, Note_on_c, 1, 59, 127
1, 56729, Note_off_c, 1, 62, 0
1, 56729, Note_off_c, 1, 74, 0
1, 56729, Note_off_c, 1, 59, 0
1, 56730, Note_on_c, 1, 71, 127
1, 56730, Note_on_c, 1, 57, 127
1, 56759, Note_off_c, 1, 71, 0
1, 56759, Note_off_c, 1, 57, 0
1, 56760, Note_on_c, 1, 62, 127
1, 56760, Note_on_c, 1, 64, 127
1, 56760, Note_on_c, 1, 56, 127
1, 56789, Note_off_c, 1, 62, 0
1, 56789, Note_off_c, 1, 56, 0
1, 56790, Note_on_c, 1, 54, 127
1, 56819, Note_off_c, 1, 54, 0
1, 56820, Note_on_c, 1, 52, 127
1, 56849, Note_off_c, 1, 52, 0
1, 56850, Note_on_c, 1, 50, 127
1, 56879, Note_off_c, 1, 50, 0
1, 56880, Note_on_c, 1, 48, 127
1, 56910, Note_off_c, 1, 64, 0
1, 56910, Note_on_c, 1, 71, 127
1, 56939, Note_off_c, 1, 48, 0
1, 56939, Note_off_c, 1, 71, 0
1, 56940, Note_on_c, 1, 60, 127
1, 56940, Note_on_c, 1, 69, 127
1, 56940, Note_on_c, 1, 52, 127
1, 56969, Note_off_c, 1, 60, 0
1, 56969, Note_off_c, 1, 69, 0
1, 56970, Note_on_c, 1, 59, 127
1, 56970, Note_on_c, 1, 68, 127
1, 56999, Note_off_c, 1, 52, 0
1, 56999, Note_off_c, 1, 59, 0
1, 56999, Note_off_c, 1, 68, 0
1, 57000, Note_on_c, 1, 60, 127
1, 57000, Note_on_c, 1, 69, 127
1, 57000, Note_on_c, 1, 45, 127
1, 57029, Note_off_c, 1, 60, 0
1, 57029, Note_off_c, 1, 69, 0
1, 57030, Note_on_c, 1, 71, 127
1, 57059, Note_off_c, 1, 45, 0
1, 57059, Note_off_c, 1, 71, 0
1, 57060, Note_on_c, 1, 60, 127
1, 57060, Note_on_c, 1, 72, 127
1, 57060, Note_on_c, 1, 57, 127
1, 57089, Note_off_c, 1, 60, 0
1, 57089, Note_off_c, 1, 72, 0
1, 57089, Note_off_c, 1, 57, 0
1, 57090, Note_on_c, 1, 69, 127
1, 57090, Note_on_c, 1, 55, 127
1, 57119, Note_off_c, 1, 69, 0
1, 57119, Note_off_c, 1, 55, 0
1, 57120, Note_on_c, 1, 60, 127
1, 57120, Note_on_c, 1, 62, 127
1, 57120, Note_on_c, 1, 53, 127
1, 57149, Note_off_c, 1, 60, 0
1, 57149, Note_off_c, 1, 53, 0
1, 57150, Note_on_c, 1, 52, 127
1, 57179, Note_off_c, 1, 52, 0
1, 57180, Note_on_c, 1, 50, 127
1, 57209, Note_off_c, 1, 50, 0
1, 57210, Note_on_c, 1, 48, 127
1, 57239, Note_off_c, 1, 48, 0
1, 57240, Note_on_c, 1, 47, 127
1, 57270, Note_off_c, 1, 62, 0
1, 57270, Note_on_c, 1, 81, 127
1, 57299, Note_off_c, 1, 47, 0
1, 57299, Note_off_c, 1, 81, 0
1, 57300, Note_on_c, 1, 59, 127
1, 57300, Note_on_c, 1, 79, 127
1, 57300, Note_on_c, 1, 50, 127
1, 57329, Note_off_c, 1, 59, 0
1, 57329, Note_off_c, 1, 79, 0
1, 57330, Note_on_c, 1, 57, 127
1, 57330, Note_on_c, 1, 78, 127
1, 57359, Note_off_c, 1, 50, 0
1, 57359, Note_off_c, 1, 57, 0
1, 57359, Note_off_c, 1, 78, 0
1, 57360, Note_on_c, 1, 59, 127
1, 57360, Note_on_c, 1, 79, 127
1, 57360, Note_on_c, 1, 43, 127
1, 57389, Note_off_c, 1, 79, 0
1, 57390, Note_on_c, 1, 81, 127
1, 57419, Note_off_c, 1, 43, 0
1, 57419, Note_off_c, 1, 81, 0
1, 57420, Note_on_c, 1, 83, 127
1, 57420, Note_on_c, 1, 55, 127
1, 57449, Note_off_c, 1, 83, 0
1, 57479, Note_off_c, 1, 59, 0
1, 57479, Note_off_c, 1, 55, 0
1, 57480, Note_on_c, 1, 72, 127
1, 57480, Note_on_c, 1, 57, 127
1, 57509, Note_off_c, 1, 72, 0
1, 57510, Note_on_c, 1, 77, 127
1, 57539, Note_off_c, 1, 57, 0
1, 57539, Note_off_c, 1, 77, 0
1, 57540, Note_on_c, 1, 76, 127
1, 57540, Note_on_c, 1, 59, 127
1, 57569, Note_off_c, 1, 76, 0
1, 57570, Note_on_c, 1, 74, 127
1, 57599, Note_off_c, 1, 59, 0
1, 57599, Note_off_c, 1, 74, 0
1, 57600, Note_on_c, 1, 76, 127
1, 57600, Note_on_c, 1, 60, 127
1, 57629, Note_off_c, 1, 76, 0
1, 57630, Note_on_c, 1, 78, 127
1, 57659, Note_off_c, 1, 60, 0
1, 57659, Note_off_c, 1, 78, 0
1, 57660, Note_on_c, 1, 79, 127
1, 57660, Note_on_c, 1, 52, 127
1, 57689, Note_off_c, 1, 79, 0
1, 57690, Note_on_c, 1, 76, 127
1, 57719, Note_off_c, 1, 52, 0
1, 57719, Note_off_c, 1, 76, 0
1, 57720, Note_on_c, 1, 69, 127
1, 57720, Note_on_c, 1, 54, 127
1, 57749, Note_off_c, 1, 69, 0
1, 57750, Note_on_c, 1, 74, 127
1, 57779, Note_off_c, 1, 54, 0
1, 57779, Note_off_c, 1, 74, 0
1, 57780, Note_on_c, 1, 72, 127
1, 57780, Note_on_c, 1, 56, 127
1, 57809, Note_off_c, 1, 72, 0
1, 57810, Note_on_c, 1, 71, 127
1, 57839, Note_off_c, 1, 56, 0
1, 57839, Note_off_c, 1, 71, 0
1, 57840, Note_on_c, 1, 64, 127
1, 57840, Note_on_c, 1, 72, 127
1, 57840, Note_on_c, 1, 57, 127
1, 57869, Note_off_c, 1, 72, 0
1, 57870, Note_on_c, 1, 74, 127
1, 57899, Note_off_c, 1, 57, 0
1, 57899, Note_off_c, 1, 74, 0
1, 57900, Note_on_c, 1, 76, 127
1, 57900, Note_on_c, 1, 45, 127
1, 57929, Note_off_c, 1, 76, 0
1, 57959, Note_off_c, 1, 45, 0
1, 57960, Note_on_c, 1, 66, 127
1, 57960, Note_on_c, 1, 50, 127
1, 57989, Note_off_c, 1, 66, 0
1, 57990, Note_on_c, 1, 67, 127
1, 58019, Note_off_c, 1, 64, 0
1, 58019, Note_off_c, 1, 50, 0
1, 58019, Note_off_c, 1, 67, 0
1, 58020, Note_on_c, 1, 62, 127
1, 58020, Note_on_c, 1, 69, 127
1, 58020, Note_on_c, 1, 52, 127
1, 58049, Note_off_c, 1, 62, 0
1, 58050, Note_on_c, 1, 60, 127
1, 58079, Note_off_c, 1, 52, 0
1, 58079, Note_off_c, 1, 60, 0
1, 58080, Note_on_c, 1, 54, 127
1, 58109, Note_off_c, 1, 69, 0
1, 58110, Note_on_c, 1, 64, 127
1, 58110, Note_on_c, 1, 72, 127
1, 58139, Note_off_c, 1, 54, 0
1, 58139, Note_off_c, 1, 64, 0
1, 58139, Note_off_c, 1, 72, 0
1, 58140, Note_on_c, 1, 66, 127
1, 58140, Note_on_c, 1, 71, 127
1, 58140, Note_on_c, 1, 50, 127
1, 58169, Note_off_c, 1, 66, 0
1, 58170, Note_on_c, 1, 62, 127
1, 58199, Note_off_c, 1, 50, 0
1, 58199, Note_off_c, 1, 62, 0
1, 58200, Note_on_c, 1, 55, 127
1, 58200, Note_on_c, 1, 52, 127
1, 58229, Note_off_c, 1, 71, 0
1, 58229, Note_off_c, 1, 55, 0
1, 58230, Note_on_c, 1, 60, 127
1, 58230, Note_on_c, 1, 72, 127
1, 58259, Note_off_c, 1, 52, 0
1, 58259, Note_off_c, 1, 60, 0
1, 58259, Note_off_c, 1, 72, 0
1, 58260, Note_on_c, 1, 59, 127
1, 58260, Note_on_c, 1, 74, 127
1, 58260, Note_on_c, 1, 54, 127
1, 58289, Note_off_c, 1, 59, 0
1, 58290, Note_on_c, 1, 57, 127
1, 58319, Note_off_c, 1, 54, 0
1, 58319, Note_off_c, 1, 57, 0
1, 58320, Note_on_c, 1, 43, 127
1, 58349, Note_off_c, 1, 74, 0
1, 58350, Note_on_c, 1, 60, 127
1, 58350, Note_on_c, 1, 77, 127
1, 58379, Note_off_c, 1, 43, 0
1, 58379, Note_off_c, 1, 60, 0
1, 58379, Note_off_c, 1, 77, 0
1, 58380, Note_on_c, 1, 62, 127
1, 58380, Note_on_c, 1, 76, 127
1, 58380, Note_on_c, 1, 55, 127
1, 58409, Note_off_c, 1, 62, 0
1, 58410, Note_on_c, 1, 59, 127
1, 58439, Note_off_c, 1, 55, 0
1, 58439, Note_off_c, 1, 59, 0
1, 58440, Note_on_c, 1, 52, 127
1, 58440, Note_on_c, 1, 60, 127
1, 58469, Note_off_c, 1, 76, 0
1, 58469, Note_off_c, 1, 52, 0
1, 58470, Note_on_c, 1, 57, 127
1, 58470, Note_on_c, 1, 74, 127
1, 58499, Note_off_c, 1, 60, 0
1, 58499, Note_off_c, 1, 57, 0
1, 58499, Note_off_c, 1, 74, 0
1, 58500, Note_on_c, 1, 55, 127
1, 58500, Note_on_c, 1, 76, 127
1, 58500, Note_on_c, 1, 59, 127
1, 58529, Note_off_c, 1, 55, 0
1, 58529, Note_off_c, 1, 59, 0
1, 58530, Note_on_c, 1, 54, 127
1, 58530, Note_on_c, 1, 57, 127
1, 58559, Note_off_c, 1, 54, 0
1, 58559, Note_off_c, 1, 57, 0
1, 58589, Note_off_c, 1, 76, 0
1, 58590, Note_on_c, 1, 81, 127
1, 58619, Note_off_c, 1, 81, 0
1, 58620, Note_on_c, 1, 59, 127
1, 58620, Note_on_c, 1, 79, 127
1, 58620, Note_on_c, 1, 52, 127
1, 58649, Note_off_c, 1, 59, 0
1, 58650, Note_on_c, 1, 55, 127
1, 58679, Note_off_c, 1, 52, 0
1, 58679, Note_off_c, 1, 55, 0
1, 58680, Note_on_c, 1, 48, 127
1, 58680, Note_on_c, 1, 57, 127
1, 58709, Note_off_c, 1, 79, 0
1, 58709, Note_off_c, 1, 57, 0
1, 58710, Note_on_c, 1, 83, 127
1, 58739, Note_off_c, 1, 48, 0
1, 58739, Note_off_c, 1, 83, 0
1, 58740, Note_on_c, 1, 60, 127
1, 58740, Note_on_c, 1, 81, 127
1, 58740, Note_on_c, 1, 54, 127
1, 58769, Note_off_c, 1, 81, 0
1, 58769, Note_off_c, 1, 54, 0
1, 58770, Note_on_c, 1, 79, 127
1, 58770, Note_on_c, 1, 52, 127
1, 58799, Note_off_c, 1, 60, 0
1, 58799, Note_off_c, 1, 79, 0
1, 58799, Note_off_c, 1, 52, 0
1, 58800, Note_on_c, 1, 78, 127
1, 58800, Note_on_c, 1, 50, 127
1, 58829, Note_off_c, 1, 78, 0
1, 58830, Note_on_c, 1, 76, 127
1, 58859, Note_off_c, 1, 50, 0
1, 58859, Note_off_c, 1, 76, 0
1, 58860, Note_on_c, 1, 50, 127
1, 58860, Note_on_c, 1, 74, 127
1, 58860, Note_on_c, 1, 47, 127
1, 58889, Note_off_c, 1, 74, 0
1, 58890, Note_on_c, 1, 72, 127
1, 58919, Note_off_c, 1, 50, 0
1, 58919, Note_off_c, 1, 47, 0
1, 58919, Note_off_c, 1, 72, 0
1, 58920, Note_on_c, 1, 55, 127
1, 58920, Note_on_c, 1, 71, 127
1, 58920, Note_on_c, 1, 52, 127
1, 58949, Note_off_c, 1, 55, 0
1, 58949, Note_off_c, 1, 71, 0
1, 58950, Note_on_c, 1, 57, 127
1, 58950, Note_on_c, 1, 69, 127
1, 58979, Note_off_c, 1, 52, 0
1, 58979, Note_off_c, 1, 57, 0
1, 58979, Note_off_c, 1, 69, 0
1, 58980, Note_on_c, 1, 59, 127
1, 58980, Note_on_c, 1, 67, 127
1, 58980, Note_on_c, 1, 50, 127
1, 59009, Note_off_c, 1, 59, 0
1, 59009, Note_off_c, 1, 67, 0
1, 59010, Note_on_c, 1, 71, 127
1, 59039, Note_off_c, 1, 50, 0
1, 59039, Note_off_c, 1, 71, 0
1, 59040, Note_on_c, 1, 59, 127
1, 59040, Note_on_c, 1, 64, 127
1, 59040, Note_on_c, 1, 48, 127
1, 59055, Note_off_c, 1, 59, 0
1, 59055, Note_on_c, 1, 60, 127
1, 59069, Note_off_c, 1, 48, 0
1, 59070, Note_off_c, 1, 60, 0
1, 59070, Note_on_c, 1, 47, 127
1, 59099, Note_off_c, 1, 47, 0
1, 59100, Note_on_c, 1, 57, 127
1, 59115, Note_off_c, 1, 64, 0
1, 59115, Note_on_c, 1, 66, 127
1, 59129, Note_off_c, 1, 66, 0
1, 59130, Note_on_c, 1, 45, 127
1, 59159, Note_off_c, 1, 57, 0
1, 59159, Note_off_c, 1, 45, 0
1, 59160, Note_on_c, 1, 57, 127
1, 59160, Note_on_c, 1, 67, 127
1, 59160, Note_on_c, 1, 50, 127
1, 59175, Note_off_c, 1, 67, 0
1, 59175, Note_on_c, 1, 66, 127
1, 59190, Note_off_c, 1, 66, 0
1, 59219, Note_off_c, 1, 57, 0
1, 59220, Note_on_c, 1, 54, 127
1, 59249, Note_off_c, 1, 54, 0
1, 59250, Note_on_c, 1, 55, 127
1, 59279, Note_off_c, 1, 50, 0
1, 59279, Note_off_c, 1, 55, 0
1, 59280, Note_on_c, 1, 38, 127
1, 59310, Note_on_c, 1, 59, 127
1, 59339, Note_off_c, 1, 59, 0
1, 59340, Note_on_c, 1, 60, 127
1, 59340, Note_on_c, 1, 64, 127
1, 59369, Note_off_c, 1, 60, 0
1, 59369, Note_off_c, 1, 64, 0
1, 59399, Note_off_c, 1, 38, 0
1, 59400, Note_on_c, 1, 60, 127
1, 59400, Note_on_c, 1, 67, 127
1, 59400, Note_on_c, 1, 43, 127
1, 59415, Note_off_c, 1, 60, 0
1, 59415, Note_on_c, 1, 62, 127
1, 59430, Note_off_c, 1, 62, 0
1, 59460, Note_on_c, 1, 59, 127
1, 59519, Note_off_c, 1, 67, 0
1, 59519, Note_off_c, 1, 43, 0
1, 59519, Note_off_c, 1, 59, 0
1, 59520, Note_on_c, 1, 59, 127
1, 59579, Note_off_c, 1, 59, 0
1, 59580, Note_on_c, 1, 62, 127
1, 59639, Note_off_c, 1, 62, 0
1, 59640, Note_on_c, 1, 60, 127
1, 59640, Note_on_c, 1, 67, 127
1, 59640, Note_on_c, 1, 43, 127
1, 59669, Note_off_c, 1, 60, 0
1, 59669, Note_off_c, 1, 67, 0
1, 59670, Note_on_c, 1, 59, 127
1, 59670, Note_on_c, 1, 69, 127
1, 59699, Note_off_c, 1, 59, 0
1, 59699, Note_off_c, 1, 69, 0
1, 59700, Note_on_c, 1, 57, 127
1, 59700, Note_on_c, 1, 71, 127
1, 59729, Note_off_c, 1, 57, 0
1, 59729, Note_off_c, 1, 71, 0
1, 59730, Note_on_c, 1, 55, 127
1, 59759, Note_off_c, 1, 43, 0
1, 59759, Note_off_c, 1, 55, 0
1, 59760, Note_on_c, 1, 64, 127
1, 59760, Note_on_c, 1, 71, 127
1, 59760, Note_on_c, 1, 36, 127
1, 59775, Note_off_c, 1, 71, 0
1, 59775, Note_on_c, 1, 72, 127
1, 59790, Note_off_c, 1, 72, 0
1, 59819, Note_off_c, 1, 64, 0
1, 59820, Note_on_c, 1, 67, 127
1, 59820, Note_on_c, 1, 69, 127
1, 59849, Note_off_c, 1, 67, 0
1, 59850, Note_on_c, 1, 66, 127
1, 59879, Note_off_c, 1, 36, 0
1, 59879, Note_off_c, 1, 69, 0
1, 59879, Note_off_c, 1, 66, 0
1, 59880, Note_on_c, 1, 64, 127
1, 59880, Note_on_c, 1, 69, 127
1, 59909, Note_off_c, 1, 64, 0
1, 59939, Note_off_c, 1, 69, 0
1, 59940, Note_on_c, 1, 62, 127
1, 59940, Note_on_c, 1, 66, 127
1, 59940, Note_on_c, 1, 48, 127
1, 59969, Note_off_c, 1, 62, 0
1, 59969, Note_off_c, 1, 66, 0
1, 59970, Note_on_c, 1, 67, 127
1, 59999, Note_off_c, 1, 48, 0
1, 59999, Note_off_c, 1, 67, 0
1, 60000, Note_on_c, 1, 60, 127
1, 60000, Note_on_c, 1, 69, 127
1, 60000, Note_on_c, 1, 42, 127
1, 60029, Note_off_c, 1, 60, 0
1, 60029, Note_off_c, 1, 69, 0
1, 60030, Note_on_c, 1, 59, 127
1, 60030, Note_on_c, 1, 71, 127
1, 60059, Note_off_c, 1, 42, 0
1, 60059, Note_off_c, 1, 59, 0
1, 60059, Note_off_c, 1, 71, 0
1, 60060, Note_on_c, 1, 57, 127
1, 60060, Note_on_c, 1, 72, 127
1, 60060, Note_on_c, 1, 45, 127
1, 60089, Note_off_c, 1, 57, 0
1, 60089, Note_off_c, 1, 72, 0
1, 60090, Note_on_c, 1, 55, 127
1, 60119, Note_off_c, 1, 45, 0
1, 60119, Note_off_c, 1, 55, 0
1, 60120, Note_on_c, 1, 54, 127
1, 60120, Note_on_c, 1, 72, 127
1, 60120, Note_on_c, 1, 38, 127
1, 60135, Note_off_c, 1, 72, 0
1, 60135, Note_on_c, 1, 74, 127
1, 60149, Note_off_c, 1, 54, 0
1, 60149, Note_off_c, 1, 38, 0
1, 60150, Note_off_c, 1, 74, 0
1, 60150, Note_on_c, 1, 50, 127
1, 60179, Note_off_c, 1, 50, 0
1, 60180, Note_on_c, 1, 52, 127
1, 60180, Note_on_c, 1, 71, 127
1, 60180, Note_on_c, 1, 48, 127
1, 60209, Note_off_c, 1, 52, 0
1, 60209, Note_off_c, 1, 48, 0
1, 60210, Note_on_c, 1, 54, 127
1, 60210, Note_on_c, 1, 50, 127
1, 60239, Note_off_c, 1, 71, 0
1, 60239, Note_off_c, 1, 54, 0
1, 60239, Note_off_c, 1, 50, 0
1, 60240, Note_on_c, 1, 55, 127
1, 60240, Note_on_c, 1, 71, 127
1, 60240, Note_on_c, 1, 43, 127
1, 60269, Note_off_c, 1, 55, 0
1, 60270, Note_on_c, 1, 57, 127
1, 60299, Note_off_c, 1, 71, 0
1, 60299, Note_off_c, 1, 43, 0
1, 60299, Note_off_c, 1, 57, 0
1, 60300, Note_on_c, 1, 59, 127
1, 60300, Note_on_c, 1, 74, 127
1, 60300, Note_on_c, 1, 55, 127
1, 60329, Note_off_c, 1, 59, 0
1, 60330, Note_on_c, 1, 60, 127
1, 60359, Note_off_c, 1, 74, 0
1, 60359, Note_off_c, 1, 55, 0
1, 60359, Note_off_c, 1, 60, 0
1, 60360, Note_on_c, 1, 62, 127
1, 60360, Note_on_c, 1, 72, 127
1, 60389, Note_off_c, 1, 62, 0
1, 60389, Note_off_c, 1, 72, 0
1, 60390, Note_on_c, 1, 71, 127
1, 60390, Note_on_c, 1, 43, 127
1, 60419, Note_off_c, 1, 71, 0
1, 60419, Note_off_c, 1, 43, 0
1, 60420, Note_on_c, 1, 59, 127
1, 60420, Note_on_c, 1, 69, 127
1, 60420, Note_on_c, 1, 45, 127
1, 60449, Note_off_c, 1, 59, 0
1, 60449, Note_off_c, 1, 69, 0
1, 60449, Note_off_c, 1, 45, 0
1, 60450, Note_on_c, 1, 67, 127
1, 60450, Note_on_c, 1, 47, 127
1, 60479, Note_off_c, 1, 67, 0
1, 60479, Note_off_c, 1, 47, 0
1, 60480, Note_on_c, 1, 55, 127
1, 60480, Note_on_c, 1, 76, 127
1, 60480, Note_on_c, 1, 48, 127
1, 60509, Note_off_c, 1, 48, 0
1, 60510, Note_on_c, 1, 50, 127
1, 60539, Note_off_c, 1, 55, 0
1, 60539, Note_off_c, 1, 76, 0
1, 60539, Note_off_c, 1, 50, 0
1, 60540, Note_on_c, 1, 52, 127
1, 60540, Note_on_c, 1, 79, 127
1, 60569, Note_off_c, 1, 79, 0
1, 60570, Note_on_c, 1, 78, 127
1, 60570, Note_on_c, 1, 50, 127
1, 60599, Note_off_c, 1, 52, 0
1, 60599, Note_off_c, 1, 78, 0
1, 60599, Note_off_c, 1, 50, 0
1, 60600, Note_on_c, 1, 57, 127
1, 60600, Note_on_c, 1, 76, 127
1, 60600, Note_on_c, 1, 48, 127
1, 60629, Note_off_c, 1, 57, 0
1, 60629, Note_off_c, 1, 76, 0
1, 60630, Note_on_c, 1, 59, 127
1, 60659, Note_off_c, 1, 48, 0
1, 60659, Note_off_c, 1, 59, 0
1, 60660, Note_on_c, 1, 60, 127
1, 60660, Note_on_c, 1, 74, 127
1, 60660, Note_on_c, 1, 47, 127
1, 60689, Note_off_c, 1, 60, 0
1, 60689, Note_off_c, 1, 74, 0
1, 60690, Note_on_c, 1, 62, 127
1, 60719, Note_off_c, 1, 47, 0
1, 60719, Note_off_c, 1, 62, 0
1, 60720, Note_on_c, 1, 64, 127
1, 60720, Note_on_c, 1, 72, 127
1, 60720, Note_on_c, 1, 45, 127
1, 60749, Note_off_c, 1, 64, 0
1, 60749, Note_off_c, 1, 72, 0
1, 60750, Note_on_c, 1, 62, 127
1, 60750, Note_on_c, 1, 71, 127
1, 60779, Note_off_c, 1, 45, 0
1, 60779, Note_off_c, 1, 62, 0
1, 60779, Note_off_c, 1, 71, 0
1, 60780, Note_on_c, 1, 60, 127
1, 60780, Note_on_c, 1, 69, 127
1, 60780, Note_on_c, 1, 47, 127
1, 60809, Note_off_c, 1, 60, 0
1, 60809, Note_off_c, 1, 69, 0
1, 60809, Note_off_c, 1, 47, 0
1, 60810, Note_on_c, 1, 59, 127
1, 60810, Note_on_c, 1, 67, 127
1, 60810, Note_on_c, 1, 48, 127
1, 60839, Note_off_c, 1, 59, 0
1, 60839, Note_off_c, 1, 67, 0
1, 60839, Note_off_c, 1, 48, 0
1, 60840, Note_on_c, 1, 57, 127
1, 60840, Note_on_c, 1, 78, 127
1, 60840, Note_on_c, 1, 50, 127
1, 60869, Note_off_c, 1, 57, 0
1, 60869, Note_off_c, 1, 78, 0
1, 60870, Note_on_c, 1, 60, 127
1, 60870, Note_on_c, 1, 76, 127
1, 60899, Note_off_c, 1, 50, 0
1, 60899, Note_off_c, 1, 60, 0
1, 60899, Note_off_c, 1, 76, 0
1, 60900, Note_on_c, 1, 59, 127
1, 60900, Note_on_c, 1, 74, 127
1, 60900, Note_on_c, 1, 54, 127
1, 60929, Note_off_c, 1, 59, 0
1, 60929, Note_off_c, 1, 74, 0
1, 60930, Note_on_c, 1, 57, 127
1, 60930, Note_on_c, 1, 81, 127
1, 60959, Note_off_c, 1, 54, 0
1, 60959, Note_off_c, 1, 57, 0
1, 60959, Note_off_c, 1, 81, 0
1, 60960, Note_on_c, 1, 55, 127
1, 60960, Note_on_c, 1, 72, 127
1, 60989, Note_off_c, 1, 72, 0
1, 60990, Note_on_c, 1, 54, 127
1, 60990, Note_on_c, 1, 71, 127
1, 61019, Note_off_c, 1, 55, 0
1, 61019, Note_off_c, 1, 54, 0
1, 61020, Note_on_c, 1, 48, 127
1, 61049, Note_off_c, 1, 71, 0
1, 61050, Note_on_c, 1, 57, 127
1, 61050, Note_on_c, 1, 69, 127
1, 61079, Note_off_c, 1, 48, 0
1, 61079, Note_off_c, 1, 57, 0
1, 61079, Note_off_c, 1, 69, 0
1, 61080, Note_on_c, 1, 57, 127
1, 61080, Note_on_c, 1, 69, 127
1, 61080, Note_on_c, 1, 50, 127
1, 61095, Note_off_c, 1, 57, 0
1, 61095, Note_off_c, 1, 69, 0
1, 61095, Note_on_c, 1, 55, 127
1, 61095, Note_on_c, 1, 71, 127
1, 61110, Note_off_c, 1, 55, 0
1, 61110, Note_off_c, 1, 71, 0
1, 61139, Note_off_c, 1, 50, 0
1, 61140, Note_on_c, 1, 38, 127
1, 61170, Note_on_c, 1, 67, 127
1, 61199, Note_off_c, 1, 38, 0
1, 61199, Note_off_c, 1, 67, 0
1, 61200, Note_on_c, 1, 55, 127
1, 61200, Note_on_c, 1, 67, 127
1, 61200, Note_on_c, 1, 43, 127
1, 61559, Note_off_c, 1, 55, 0
1, 61559, Note_off_c, 1, 67, 0
1, 61559, Note_off_c, 1, 43, 0
1, 61920, Note_on_c, 1, 71, 127
1, 61920, Note_on_c, 1, 52, 127
1, 61950, Note_off_c, 1, 71, 0
1, 61950, Note_on_c, 1, 75, 127
1, 61980, Note_off_c, 1, 52, 0
1, 61980, Note_off_c, 1, 75, 0
1, 61980, Note_on_c, 1, 76, 127
1, 61980, Note_on_c, 1, 40, 127
1, 62010, Note_off_c, 1, 76, 0
1, 62010, Note_on_c, 1, 79, 127
1, 62040, Note_off_c, 1, 40, 0
1, 62040, Note_off_c, 1, 79, 0
1, 62160, Note_on_c, 1, 64, 127
1, 62160, Note_on_c, 1, 72, 127
1, 62190, Note_off_c, 1, 64, 0
1, 62190, Note_off_c, 1, 72, 0
1, 62190, Note_on_c, 1, 68, 127
1, 62220, Note_off_c, 1, 68, 0
1, 62220, Note_on_c, 1, 69, 127
1, 62250, Note_off_c, 1, 69, 0
1, 62400, Note_on_c, 1, 66, 127
1, 62430, Note_off_c, 1, 66, 0
1, 62490, Note_on_c, 1, 78, 127
1, 62520, Note_off_c, 1, 78, 0
1, 62640, Note_on_c, 1, 59, 127
1, 62640, Note_on_c, 1, 67, 127
1, 62670, Note_off_c, 1, 59, 0
1, 62670, Note_off_c, 1, 67, 0
1, 62670, Note_on_c, 1, 63, 127
1, 62700, Note_off_c, 1, 63, 0
1, 62880, Note_on_c, 1, 56, 127
1, 62880, Note_on_c, 1, 50, 127
1, 62940, Note_off_c, 1, 56, 0
1, 62940, Note_off_c, 1, 50, 0
1, 62940, Note_on_c, 1, 38, 127
1, 63000, Note_off_c, 1, 38, 0
1, 63060, Note_on_c, 1, 80, 127
1, 63090, Note_off_c, 1, 80, 0
1, 63090, Note_on_c, 1, 83, 127
1, 63120, Note_off_c, 1, 83, 0
1, 63120, Note_on_c, 1, 77, 127
1, 63120, Note_on_c, 1, 49, 127
1, 63150, Note_on_c, 1, 57, 127
1, 63180, Note_off_c, 1, 77, 0
1, 63180, Note_off_c, 1, 49, 0
1, 63180, Note_off_c, 1, 57, 0
1, 63180, Note_on_c, 1, 37, 127
1, 63210, Note_on_c, 1, 65, 127
1, 63240, Note_off_c, 1, 37, 0
1, 63240, Note_off_c, 1, 65, 0
1, 63300, Note_on_c, 1, 73, 127
1, 63360, Note_off_c, 1, 73, 0
1, 63540, Note_on_c, 1, 81, 127
1, 63570, Note_off_c, 1, 81, 0
1, 63600, Note_on_c, 1, 51, 127
1, 63630, Note_off_c, 1, 51, 0
1, 63660, Note_on_c, 1, 54, 127
1, 63690, Note_off_c, 1, 54, 0
1, 63690, Note_on_c, 1, 60, 127
1, 63720, Note_off_c, 1, 60, 0
1, 63870, Note_on_c, 1, 74, 127
1, 63900, Note_off_c, 1, 74, 0
1, 64080, Note_on_c, 1, 62, 127
1, 64080, Note_on_c, 1, 48, 127
1, 64110, Note_off_c, 1, 62, 0
1, 64140, Note_off_c, 1, 48, 0
1, 64140, Note_on_c, 1, 36, 127
1, 64200, Note_off_c, 1, 36, 0
1, 64320, Note_on_c, 1, 47, 127
1, 64380, Note_off_c, 1, 47, 0
1, 64380, Note_on_c, 1, 35, 127
1, 64440, Note_off_c, 1, 35, 0
1, 64440, Note_on_c, 1, 55, 127
1, 64470, Note_off_c, 1, 55, 0
1, 64560, Note_on_c, 1, 46, 127
1, 64620, Note_off_c, 1, 46, 0
1, 64620, Note_on_c, 1, 34, 127
1, 64680, Note_off_c, 1, 34, 0
1, 64800, Note_on_c, 1, 61, 127
1, 64800, Note_on_c, 1, 45, 127
1, 64830, Note_on_c, 1, 70, 127
1, 64859, Note_off_c, 1, 61, 0
1, 64859, Note_off_c, 1, 45, 0
1, 64859, Note_off_c, 1, 70, 0
1, 64860, Note_on_c, 1, 64, 127
1, 64860, Note_on_c, 1, 69, 127
1, 64860, Note_on_c, 1, 33, 127
1, 64889, Note_off_c, 1, 69, 0
1, 64919, Note_off_c, 1, 64, 0
1, 64919, Note_off_c, 1, 33, 0
1, 64920, Note_on_c, 1, 62, 127
1, 64920, Note_on_c, 1, 65, 127
1, 64920, Note_on_c, 1, 45, 127
1, 64949, Note_off_c, 1, 65, 0
1, 64950, Note_on_c, 1, 69, 127
1, 64979, Note_off_c, 1, 62, 0
1, 64979, Note_off_c, 1, 45, 0
1, 64979, Note_off_c, 1, 69, 0
1, 64980, Note_on_c, 1, 65, 127
1, 64980, Note_on_c, 1, 73, 127
1, 64980, Note_on_c, 1, 33, 127
1, 65009, Note_off_c, 1, 73, 0
1, 65010, Note_on_c, 1, 74, 127
1, 65039, Note_off_c, 1, 33, 0
1, 65039, Note_off_c, 1, 74, 0
1, 65040, Note_on_c, 1, 80, 127
1, 65040, Note_on_c, 1, 45, 127
1, 65069, Note_off_c, 1, 65, 0
1, 65070, Note_on_c, 1, 64, 127
1, 65099, Note_off_c, 1, 45, 0
1, 65099, Note_off_c, 1, 64, 0
1, 65100, Note_off_c, 1, 80, 0
1, 65100, Note_on_c, 1, 81, 127
1, 65108, Note_off_c, 1, 81, 0
1, 65115, Note_on_c, 1, 78, 127
1, 65123, Note_off_c, 1, 78, 0
1, 65130, Note_on_c, 1, 62, 127
1, 65159, Note_off_c, 1, 62, 0
1, 65160, Note_on_c, 1, 64, 127
1, 65160, Note_on_c, 1, 73, 127
1, 65160, Note_on_c, 1, 45, 127
1, 65170, Note_off_c, 1, 64, 0
1, 65170, Note_off_c, 1, 73, 0
1, 65170, Note_on_c, 1, 62, 127
1, 65170, Note_on_c, 1, 74, 127
1, 65180, Note_off_c, 1, 62, 0
1, 65180, Note_off_c, 1, 74, 0
1, 65219, Note_off_c, 1, 45, 0
1, 65220, Note_on_c, 1, 33, 127
1, 65279, Note_off_c, 1, 33, 0
1, 65280, Note_on_c, 1, 57, 127
1, 65280, Note_on_c, 1, 74, 127
1, 65280, Note_on_c, 1, 38, 127
1, 65309, Note_off_c, 1, 57, 0
1, 65310, Note_on_c, 1, 61, 127
1, 65339, Note_off_c, 1, 38, 0
1, 65339, Note_off_c, 1, 61, 0
1, 65340, Note_on_c, 1, 62, 127
1, 65340, Note_on_c, 1, 50, 127
1, 65369, Note_off_c, 1, 62, 0
1, 65370, Note_on_c, 1, 66, 127
1, 65399, Note_off_c, 1, 74, 0
1, 65399, Note_off_c, 1, 50, 0
1, 65399, Note_off_c, 1, 66, 0
1, 65400, Note_on_c, 1, 57, 127
1, 65400, Note_on_c, 1, 38, 127
1, 65429, Note_off_c, 1, 57, 0
1, 65430, Note_on_c, 1, 61, 127
1, 65459, Note_off_c, 1, 38, 0
1, 65459, Note_off_c, 1, 61, 0
1, 65460, Note_on_c, 1, 62, 127
1, 65460, Note_on_c, 1, 50, 127
1, 65489, Note_off_c, 1, 62, 0
1, 65490, Note_on_c, 1, 66, 127
1, 65519, Note_off_c, 1, 50, 0
1, 65519, Note_off_c, 1, 66, 0
1, 65520, Note_on_c, 1, 59, 127
1, 65520, Note_on_c, 1, 74, 127
1, 65520, Note_on_c, 1, 38, 127
1, 65549, Note_off_c, 1, 59, 0
1, 65549, Note_off_c, 1, 74, 0
1, 65550, Note_on_c, 1, 57, 127
1, 65550, Note_on_c, 1, 78, 127
1, 65579, Note_off_c, 1, 38, 0
1, 65579, Note_off_c, 1, 57, 0
1, 65579, Note_off_c, 1, 78, 0
1, 65580, Note_on_c, 1, 59, 127
1, 65580, Note_on_c, 1, 79, 127
1, 65580, Note_on_c, 1, 50, 127
1, 65609, Note_off_c, 1, 59, 0
1, 65609, Note_off_c, 1, 79, 0
1, 65610, Note_on_c, 1, 62, 127
1, 65610, Note_on_c, 1, 83, 127
1, 65639, Note_off_c, 1, 50, 0
1, 65639, Note_off_c, 1, 62, 0
1, 65639, Note_off_c, 1, 83, 0
1, 65640, Note_on_c, 1, 59, 127
1, 65640, Note_on_c, 1, 74, 127
1, 65640, Note_on_c, 1, 38, 127
1, 65669, Note_off_c, 1, 59, 0
1, 65669, Note_off_c, 1, 74, 0
1, 65670, Note_on_c, 1, 57, 127
1, 65670, Note_on_c, 1, 78, 127
1, 65699, Note_off_c, 1, 38, 0
1, 65699, Note_off_c, 1, 57, 0
1, 65699, Note_off_c, 1, 78, 0
1, 65700, Note_on_c, 1, 59, 127
1, 65700, Note_on_c, 1, 79, 127
1, 65700, Note_on_c, 1, 50, 127
1, 65729, Note_off_c, 1, 59, 0
1, 65729, Note_off_c, 1, 79, 0
1, 65730, Note_on_c, 1, 62, 127
1, 65730, Note_on_c, 1, 83, 127
1, 65759, Note_off_c, 1, 50, 0
1, 65759, Note_off_c, 1, 62, 0
1, 65759, Note_off_c, 1, 83, 0
1, 65760, Note_on_c, 1, 55, 127
1, 65760, Note_on_c, 1, 76, 127
1, 65760, Note_on_c, 1, 38, 127
1, 65789, Note_off_c, 1, 55, 0
1, 65789, Note_off_c, 1, 76, 0
1, 65790, Note_on_c, 1, 59, 127
1, 65790, Note_on_c, 1, 74, 127
1, 65819, Note_off_c, 1, 38, 0
1, 65819, Note_off_c, 1, 59, 0
1, 65819, Note_off_c, 1, 74, 0
1, 65820, Note_on_c, 1, 61, 127
1, 65820, Note_on_c, 1, 76, 127
1, 65820, Note_on_c, 1, 50, 127
1, 65849, Note_off_c, 1, 61, 0
1, 65849, Note_off_c, 1, 76, 0
1, 65850, Note_on_c, 1, 64, 127
1, 65850, Note_on_c, 1, 79, 127
1, 65879, Note_off_c, 1, 50, 0
1, 65879, Note_off_c, 1, 64, 0
1, 65879, Note_off_c, 1, 79, 0
1, 65880, Note_on_c, 1, 55, 127
1, 65880, Note_on_c, 1, 76, 127
1, 65880, Note_on_c, 1, 38, 127
1, 65909, Note_off_c, 1, 55, 0
1, 65909, Note_off_c, 1, 76, 0
1, 65910, Note_on_c, 1, 59, 127
1, 65910, Note_on_c, 1, 74, 127
1, 65939, Note_off_c, 1, 38, 0
1, 65939, Note_off_c, 1, 59, 0
1, 65939, Note_off_c, 1, 74, 0
1, 65940, Note_on_c, 1, 61, 127
1, 65940, Note_on_c, 1, 76, 127
1, 65940, Note_on_c, 1, 50, 127
1, 65969, Note_off_c, 1, 61, 0
1, 65969, Note_off_c, 1, 76, 0
1, 65970, Note_on_c, 1, 64, 127
1, 65970, Note_on_c, 1, 79, 127
1, 65999, Note_off_c, 1, 50, 0
1, 65999, Note_off_c, 1, 64, 0
1, 65999, Note_off_c, 1, 79, 0
1, 66000, Note_on_c, 1, 54, 127
1, 66000, Note_on_c, 1, 69, 127
1, 66000, Note_on_c, 1, 38, 127
1, 66029, Note_off_c, 1, 54, 0
1, 66029, Note_off_c, 1, 69, 0
1, 66030, Note_on_c, 1, 52, 127
1, 66030, Note_on_c, 1, 73, 127
1, 66059, Note_off_c, 1, 38, 0
1, 66059, Note_off_c, 1, 52, 0
1, 66059, Note_off_c, 1, 73, 0
1, 66060, Note_on_c, 1, 54, 127
1, 66060, Note_on_c, 1, 74, 127
1, 66060, Note_on_c, 1, 50, 127
1, 66089, Note_off_c, 1, 54, 0
1, 66089, Note_off_c, 1, 74, 0
1, 66090, Note_on_c, 1, 57, 127
1, 66090, Note_on_c, 1, 78, 127
1, 66119, Note_off_c, 1, 50, 0
1, 66119, Note_off_c, 1, 57, 0
1, 66119, Note_off_c, 1, 78, 0
1, 66120, Note_on_c, 1, 54, 127
1, 66120, Note_on_c, 1, 69, 127
1, 66120, Note_on_c, 1, 38, 127
1, 66149, Note_off_c, 1, 54, 0
1, 66149, Note_off_c, 1, 69, 0
1, 66150, Note_on_c, 1, 52, 127
1, 66150, Note_on_c, 1, 73, 127
1, 66179, Note_off_c, 1, 38, 0
1, 66179, Note_off_c, 1, 52, 0
1, 66179, Note_off_c, 1, 73, 0
1, 66180, Note_on_c, 1, 54, 127
1, 66180, Note_on_c, 1, 74, 127
1, 66180, Note_on_c, 1, 50, 127
1, 66209, Note_off_c, 1, 54, 0
1, 66209, Note_off_c, 1, 74, 0
1, 66210, Note_on_c, 1, 57, 127
1, 66210, Note_on_c, 1, 78, 127
1, 66239, Note_off_c, 1, 50, 0
1, 66239, Note_off_c, 1, 57, 0
1, 66239, Note_off_c, 1, 78, 0
1, 66240, Note_on_c, 1, 50, 127
1, 66240, Note_on_c, 1, 66, 127
1, 66240, Note_on_c, 1, 36, 127
1, 66269, Note_off_c, 1, 50, 0
1, 66270, Note_on_c, 1, 52, 127
1, 66299, Note_off_c, 1, 66, 0
1, 66299, Note_off_c, 1, 36, 0
1, 66299, Note_off_c, 1, 52, 0
1, 66300, Note_on_c, 1, 54, 127
1, 66300, Note_on_c, 1, 69, 127
1, 66300, Note_on_c, 1, 48, 127
1, 66329, Note_off_c, 1, 54, 0
1, 66330, Note_on_c, 1, 57, 127
1, 66359, Note_off_c, 1, 69, 0
1, 66359, Note_off_c, 1, 48, 0
1, 66359, Note_off_c, 1, 57, 0
1, 66360, Note_on_c, 1, 62, 127
1, 66360, Note_on_c, 1, 66, 127
1, 66360, Note_on_c, 1, 36, 127
1, 66389, Note_off_c, 1, 62, 0
1, 66390, Note_on_c, 1, 64, 127
1, 66419, Note_off_c, 1, 66, 0
1, 66419, Note_off_c, 1, 36, 0
1, 66419, Note_off_c, 1, 64, 0
1, 66420, Note_on_c, 1, 66, 127
1, 66420, Note_on_c, 1, 62, 127
1, 66420, Note_on_c, 1, 48, 127
1, 66449, Note_off_c, 1, 66, 0
1, 66450, Note_on_c, 1, 69, 127
1, 66479, Note_off_c, 1, 62, 0
1, 66479, Note_off_c, 1, 48, 0
1, 66479, Note_off_c, 1, 69, 0
1, 66480, Note_on_c, 1, 63, 127
1, 66480, Note_on_c, 1, 66, 127
1, 66480, Note_on_c, 1, 35, 127
1, 66509, Note_off_c, 1, 66, 0
1, 66510, Note_on_c, 1, 67, 127
1, 66539, Note_off_c, 1, 63, 0
1, 66539, Note_off_c, 1, 35, 0
1, 66539, Note_off_c, 1, 67, 0
1, 66540, Note_on_c, 1, 66, 127
1, 66540, Note_on_c, 1, 69, 127
1, 66540, Note_on_c, 1, 47, 127
1, 66569, Note_off_c, 1, 69, 0
1, 66570, Note_on_c, 1, 75, 127
1, 66599, Note_off_c, 1, 66, 0
1, 66599, Note_off_c, 1, 47, 0
1, 66599, Note_off_c, 1, 75, 0
1, 66600, Note_on_c, 1, 63, 127
1, 66600, Note_on_c, 1, 78, 127
1, 66600, Note_on_c, 1, 35, 127
1, 66629, Note_off_c, 1, 78, 0
1, 66630, Note_on_c, 1, 79, 127
1, 66659, Note_off_c, 1, 63, 0
1, 66659, Note_off_c, 1, 35, 0
1, 66659, Note_off_c, 1, 79, 0
1, 66660, Note_on_c, 1, 59, 127
1, 66660, Note_on_c, 1, 81, 127
1, 66660, Note_on_c, 1, 47, 127
1, 66689, Note_off_c, 1, 81, 0
1, 66690, Note_on_c, 1, 78, 127
1, 66719, Note_off_c, 1, 59, 0
1, 66719, Note_off_c, 1, 47, 0
1, 66719, Note_off_c, 1, 78, 0
1, 66720, Note_on_c, 1, 52, 127
1, 66720, Note_on_c, 1, 79, 127
1, 66720, Note_on_c, 1, 35, 127
1, 66749, Note_off_c, 1, 52, 0
1, 66750, Note_on_c, 1, 54, 127
1, 66779, Note_off_c, 1, 79, 0
1, 66779, Note_off_c, 1, 35, 0
1, 66779, Note_off_c, 1, 54, 0
1, 66780, Note_on_c, 1, 55, 127
1, 66780, Note_on_c, 1, 83, 127
1, 66780, Note_on_c, 1, 47, 127
1, 66809, Note_off_c, 1, 55, 0
1, 66810, Note_on_c, 1, 59, 127
1, 66839, Note_off_c, 1, 83, 0
1, 66839, Note_off_c, 1, 47, 0
1, 66839, Note_off_c, 1, 59, 0
1, 66840, Note_on_c, 1, 64, 127
1, 66840, Note_on_c, 1, 79, 127
1, 66840, Note_on_c, 1, 35, 127
1, 66869, Note_off_c, 1, 64, 0
1, 66870, Note_on_c, 1, 66, 127
1, 66899, Note_off_c, 1, 79, 0
1, 66899, Note_off_c, 1, 35, 0
1, 66899, Note_off_c, 1, 66, 0
1, 66900, Note_on_c, 1, 67, 127
1, 66900, Note_on_c, 1, 76, 127
1, 66900, Note_on_c, 1, 47, 127
1, 66929, Note_off_c, 1, 67, 0
1, 66930, Note_on_c, 1, 64, 127
1, 66959, Note_off_c, 1, 76, 0
1, 66959, Note_off_c, 1, 47, 0
1, 66959, Note_off_c, 1, 64, 0
1, 66960, Note_on_c, 1, 58, 127
1, 66960, Note_on_c, 1, 61, 127
1, 66960, Note_on_c, 1, 35, 127
1, 66989, Note_off_c, 1, 61, 0
1, 66990, Note_on_c, 1, 63, 127
1, 67019, Note_off_c, 1, 58, 0
1, 67019, Note_off_c, 1, 35, 0
1, 67019, Note_off_c, 1, 63, 0
1, 67020, Note_on_c, 1, 61, 127
1, 67020, Note_on_c, 1, 64, 127
1, 67020, Note_on_c, 1, 47, 127
1, 67049, Note_off_c, 1, 64, 0
1, 67050, Note_on_c, 1, 70, 127
1, 67079, Note_off_c, 1, 61, 0
1, 67079, Note_off_c, 1, 47, 0
1, 67079, Note_off_c, 1, 70, 0
1, 67080, Note_on_c, 1, 58, 127
1, 67080, Note_on_c, 1, 73, 127
1, 67080, Note_on_c, 1, 35, 127
1, 67109, Note_off_c, 1, 73, 0
1, 67110, Note_on_c, 1, 75, 127
1, 67139, Note_off_c, 1, 58, 0
1, 67139, Note_off_c, 1, 35, 0
1, 67139, Note_off_c, 1, 75, 0
1, 67140, Note_on_c, 1, 54, 127
1, 67140, Note_on_c, 1, 76, 127
1, 67140, Note_on_c, 1, 47, 127
1, 67169, Note_off_c, 1, 76, 0
1, 67170, Note_on_c, 1, 79, 127
1, 67199, Note_off_c, 1, 54, 0
1, 67199, Note_off_c, 1, 47, 0
1, 67199, Note_off_c, 1, 79, 0
1, 67200, Note_on_c, 1, 57, 127
1, 67200, Note_on_c, 1, 77, 127
1, 67200, Note_on_c, 1, 35, 127
1, 67229, Note_off_c, 1, 57, 0
1, 67230, Note_on_c, 1, 60, 127
1, 67259, Note_off_c, 1, 77, 0
1, 67259, Note_off_c, 1, 35, 0
1, 67259, Note_off_c, 1, 60, 0
1, 67260, Note_on_c, 1, 59, 127
1, 67260, Note_on_c, 1, 75, 127
1, 67260, Note_on_c, 1, 47, 127
1, 67289, Note_off_c, 1, 59, 0
1, 67290, Note_on_c, 1, 54, 127
1, 67319, Note_off_c, 1, 75, 0
1, 67319, Note_off_c, 1, 47, 0
1, 67319, Note_off_c, 1, 54, 0
1, 67320, Note_on_c, 1, 55, 127
1, 67320, Note_on_c, 1, 76, 127
1, 67320, Note_on_c, 1, 35, 127
1, 67349, Note_off_c, 1, 55, 0
1, 67350, Note_on_c, 1, 51, 127
1, 67379, Note_off_c, 1, 35, 0
1, 67379, Note_off_c, 1, 51, 0
1, 67380, Note_on_c, 1, 52, 127
1, 67380, Note_on_c, 1, 47, 127
1, 67409, Note_off_c, 1, 52, 0
1, 67439, Note_off_c, 1, 47, 0
1, 67440, Note_on_c, 1, 59, 127
1, 67455, Note_off_c, 1, 59, 0
1, 67455, Note_on_c, 1, 58, 127
1, 67463, Note_off_c, 1, 58, 0
1, 67470, Note_off_c, 1, 76, 0
1, 67470, Note_on_c, 1, 66, 127
1, 67499, Note_off_c, 1, 66, 0
1, 67500, Note_on_c, 1, 67, 127
1, 67529, Note_off_c, 1, 67, 0
1, 67560, Note_on_c, 1, 54, 127
1, 67560, Note_on_c, 1, 75, 127
1, 67570, Note_off_c, 1, 75, 0
1, 67650, Note_off_c, 1, 54, 0
1, 67680, Note_on_c, 1, 72, 127
1, 67709, Note_off_c, 1, 72, 0
1, 67740, Note_on_c, 1, 60, 127
1, 67770, Note_on_c, 1, 81, 127
1, 67799, Note_off_c, 1, 60, 0
1, 67799, Note_off_c, 1, 81, 0
1, 67920, Note_on_c, 1, 71, 127
1, 67920, Note_on_c, 1, 50, 127
1, 67949, Note_off_c, 1, 71, 0
1, 67979, Note_off_c, 1, 50, 0
1, 68010, Note_on_c, 1, 79, 127
1, 68039, Note_off_c, 1, 79, 0
1, 68160, Note_on_c, 1, 69, 127
1, 68160, Note_on_c, 1, 48, 127
1, 68189, Note_off_c, 1, 69, 0
1, 68219, Note_off_c, 1, 48, 0
1, 68220, Note_on_c, 1, 57, 127
1, 68250, Note_on_c, 1, 78, 127
1, 68279, Note_off_c, 1, 57, 0
1, 68279, Note_off_c, 1, 78, 0
1, 68490, Note_on_c, 1, 83, 127
1, 68519, Note_off_c, 1, 83, 0
1, 68640, Note_on_c, 1, 45, 127
1, 68699, Note_off_c, 1, 45, 0
1, 68730, Note_on_c, 1, 84, 127
1, 68759, Note_off_c, 1, 84, 0
1, 68880, Note_on_c, 1, 43, 127
1, 68939, Note_off_c, 1, 43, 0
1, 69120, Note_on_c, 1, 68, 127
1, 69149, Note_off_c, 1, 68, 0
1, 69180, Note_on_c, 1, 74, 127
1, 69180, Note_on_c, 1, 56, 127
1, 69209, Note_off_c, 1, 74, 0
1, 69239, Note_off_c, 1, 56, 0
1, 69480, Note_on_c, 1, 64, 127
1, 69539, Note_off_c, 1, 64, 0
1, 69600, Note_on_c, 1, 70, 127
1, 69600, Note_on_c, 1, 49, 127
1, 69629, Note_off_c, 1, 70, 0
1, 69659, Note_off_c, 1, 49, 0
1, 69780, Note_on_c, 1, 63, 127
1, 69810, Note_off_c, 1, 63, 0
1, 69810, Note_on_c, 1, 61, 127
1, 69840, Note_off_c, 1, 61, 0
1, 69840, Note_on_c, 1, 73, 127
1, 69869, Note_off_c, 1, 73, 0
1, 70020, Note_on_c, 1, 42, 127
1, 70079, Note_off_c, 1, 42, 0
1, 71400, Note_on_c, 1, 74, 127
1, 71460, Note_off_c, 1, 74, 0
1, 71460, Note_on_c, 1, 72, 127
1, 71520, Note_off_c, 1, 72, 0
1, 71520, Note_on_c, 1, 71, 127
1, 71640, Note_off_c, 1, 71, 0
1, 71640, Note_on_c, 1, 67, 127
1, 71640, Note_on_c, 1, 43, 127
1, 71700, Note_off_c, 1, 43, 0
1, 71700, Note_on_c, 1, 45, 127
1, 71760, Note_off_c, 1, 67, 0
1, 71760, Note_off_c, 1, 45, 0
1, 71760, Note_on_c, 1, 79, 127
1, 71760, Note_on_c, 1, 47, 127
1, 71880, Note_off_c, 1, 79, 0
1, 71880, Note_off_c, 1, 47, 0
1, 71880, Note_on_c, 1, 48, 127
1, 72000, Note_off_c, 1, 48, 0
1, 72000, Note_on_c, 1, 55, 127
1, 72060, Note_off_c, 1, 55, 0
1, 72060, Note_on_c, 1, 54, 127
1, 72120, Note_off_c, 1, 54, 0
1, 72120, Note_on_c, 1, 69, 127
1, 72180, Note_off_c, 1, 69, 0
1, 72180, Note_on_c, 1, 57, 127
1, 72240, Note_off_c, 1, 57, 0
1, 72240, Note_on_c, 1, 59, 127
1, 72300, Note_off_c, 1, 59, 0
1, 72480, Note_on_c, 1, 52, 127
1, 72720, Note_off_c, 1, 52, 0
1, 72840, Note_on_c, 1, 76, 127
1, 72960, Note_on_c, 1, 42, 127
1, 73080, Note_off_c, 1, 76, 0
1, 73080, Note_off_c, 1, 42, 0
1, 73440, Note_on_c, 1, 50, 127
1, 73680, Note_off_c, 1, 50, 0
1, 73920, Note_on_c, 1, 40, 127
1, 74039, Note_off_c, 1, 40, 0
1, 74040, Note_on_c, 1, 67, 127
1, 74040, Note_on_c, 1, 52, 127
1, 74099, Note_off_c, 1, 52, 0
1, 74100, Note_on_c, 1, 54, 127
1, 74159, Note_off_c, 1, 67, 0
1, 74159, Note_off_c, 1, 54, 0
1, 74160, Note_on_c, 1, 67, 127
1, 74160, Note_on_c, 1, 55, 127
1, 74219, Note_off_c, 1, 55, 0
1, 74220, Note_on_c, 1, 54, 127
1, 74279, Note_off_c, 1, 67, 0
1, 74279, Note_off_c, 1, 54, 0
1, 74280, Note_on_c, 1, 79, 127
1, 74280, Note_on_c, 1, 52, 127
1, 74339, Note_off_c, 1, 52, 0
1, 74340, Note_on_c, 1, 50, 127
1, 74399, Note_off_c, 1, 79, 0
1, 74399, Note_off_c, 1, 50, 0
1, 74400, Note_on_c, 1, 81, 127
1, 74400, Note_on_c, 1, 49, 127
1, 74459, Note_off_c, 1, 81, 0
1, 74460, Note_on_c, 1, 79, 127
1, 74519, Note_off_c, 1, 49, 0
1, 74519, Note_off_c, 1, 79, 0
1, 74520, Note_on_c, 1, 78, 127
1, 74520, Note_on_c, 1, 50, 127
1, 74639, Note_off_c, 1, 50, 0
1, 74640, Note_on_c, 1, 55, 127
1, 74759, Note_off_c, 1, 78, 0
1, 74759, Note_off_c, 1, 55, 0
1, 74760, Note_on_c, 1, 76, 127
1, 74760, Note_on_c, 1, 49, 127
1, 74879, Note_off_c, 1, 49, 0
1, 74880, Note_on_c, 1, 54, 127
1, 74999, Note_off_c, 1, 76, 0
1, 75000, Note_off_c, 1, 54, 0
1, 75000, Note_on_c, 1, 74, 127
1, 75000, Note_on_c, 1, 47, 127
1, 75059, Note_off_c, 1, 74, 0
1, 75060, Note_on_c, 1, 73, 127
1, 75119, Note_off_c, 1, 47, 0
1, 75119, Note_off_c, 1, 73, 0
1, 75120, Note_on_c, 1, 71, 127
1, 75120, Note_on_c, 1, 52, 127
1, 75179, Note_off_c, 1, 71, 0
1, 75180, Note_on_c, 1, 69, 127
1, 75239, Note_off_c, 1, 52, 0
1, 75239, Note_off_c, 1, 69, 0
1, 75240, Note_on_c, 1, 57, 127
1, 75240, Note_on_c, 1, 71, 127
1, 75240, Note_on_c, 1, 45, 127
1, 75299, Note_off_c, 1, 57, 0
1, 75299, Note_off_c, 1, 71, 0
1, 75300, Note_on_c, 1, 55, 127
1, 75300, Note_on_c, 1, 73, 127
1, 75359, Note_off_c, 1, 45, 0
1, 75359, Note_off_c, 1, 55, 0
1, 75359, Note_off_c, 1, 73, 0
1, 75360, Note_on_c, 1, 54, 127
1, 75360, Note_on_c, 1, 74, 127
1, 75360, Note_on_c, 1, 50, 127
1, 75419, Note_off_c, 1, 74, 0
1, 75420, Note_on_c, 1, 69, 127
1, 75479, Note_off_c, 1, 54, 0
1, 75479, Note_off_c, 1, 50, 0
1, 75479, Note_off_c, 1, 69, 0
1, 75480, Note_on_c, 1, 50, 127
1, 75480, Note_on_c, 1, 71, 127
1, 75480, Note_on_c, 1, 45, 127
1, 75539, Note_off_c, 1, 71, 0
1, 75539, Note_off_c, 1, 45, 0
1, 75540, Note_on_c, 1, 73, 127
1, 75540, Note_on_c, 1, 43, 127
1, 75599, Note_off_c, 1, 50, 0
1, 75599, Note_off_c, 1, 73, 0
1, 75599, Note_off_c, 1, 43, 0
1, 75600, Note_on_c, 1, 62, 127
1, 75600, Note_on_c, 1, 74, 127
1, 75600, Note_on_c, 1, 42, 127
1, 75659, Note_off_c, 1, 74, 0
1, 75659, Note_off_c, 1, 42, 0
1, 75660, Note_on_c, 1, 76, 127
1, 75660, Note_on_c, 1, 43, 127
1, 75719, Note_off_c, 1, 62, 0
1, 75719, Note_off_c, 1, 76, 0
1, 75719, Note_off_c, 1, 43, 0
1, 75720, Note_on_c, 1, 57, 127
1, 75720, Note_on_c, 1, 78, 127
1, 75720, Note_on_c, 1, 42, 127
1, 75779, Note_off_c, 1, 78, 0
1, 75779, Note_off_c, 1, 42, 0
1, 75780, Note_on_c, 1, 79, 127
1, 75780, Note_on_c, 1, 40, 127
1, 75839, Note_off_c, 1, 57, 0
1, 75839, Note_off_c, 1, 79, 0
1, 75839, Note_off_c, 1, 40, 0
1, 75840, Note_on_c, 1, 54, 127
1, 75840, Note_on_c, 1, 81, 127
1, 75840, Note_on_c, 1, 38, 127
1, 75870, Note_off_c, 1, 54, 0
1, 75870, Note_on_c, 1, 55, 127
1, 75899, Note_off_c, 1, 81, 0
1, 75900, Note_off_c, 1, 55, 0
1, 75900, Note_on_c, 1, 83, 127
1, 75959, Note_off_c, 1, 83, 0
1, 75960, Note_on_c, 1, 52, 127
1, 76019, Note_off_c, 1, 52, 0
1, 76020, Note_on_c, 1, 50, 127
1, 76020, Note_on_c, 1, 79, 127
1, 76079, Note_off_c, 1, 38, 0
1, 76079, Note_off_c, 1, 50, 0
1, 76079, Note_off_c, 1, 79, 0
1, 76080, Note_on_c, 1, 57, 127
1, 76080, Note_on_c, 1, 78, 127
1, 76139, Note_off_c, 1, 78, 0
1, 76140, Note_on_c, 1, 76, 127
1, 76199, Note_off_c, 1, 57, 0
1, 76199, Note_off_c, 1, 76, 0
1, 76200, Note_on_c, 1, 57, 127
1, 76200, Note_on_c, 1, 74, 127
1, 76200, Note_on_c, 1, 42, 127
1, 76259, Note_off_c, 1, 74, 0
1, 76260, Note_on_c, 1, 73, 127
1, 76319, Note_off_c, 1, 57, 0
1, 76319, Note_off_c, 1, 42, 0
1, 76319, Note_off_c, 1, 73, 0
1, 76320, Note_on_c, 1, 57, 127
1, 76320, Note_on_c, 1, 71, 127
1, 76320, Note_on_c, 1, 43, 127
1, 76379, Note_off_c, 1, 43, 0
1, 76380, Note_on_c, 1, 42, 127
1, 76439, Note_off_c, 1, 57, 0
1, 76439, Note_off_c, 1, 71, 0
1, 76439, Note_off_c, 1, 42, 0
1, 76440, Note_on_c, 1, 55, 127
1, 76440, Note_on_c, 1, 83, 127
1, 76440, Note_on_c, 1, 43, 127
1, 76499, Note_off_c, 1, 55, 0
1, 76499, Note_off_c, 1, 83, 0
1, 76499, Note_off_c, 1, 43, 0
1, 76500, Note_on_c, 1, 54, 127
1, 76500, Note_on_c, 1, 81, 127
1, 76500, Note_on_c, 1, 45, 127
1, 76559, Note_off_c, 1, 54, 0
1, 76559, Note_off_c, 1, 81, 0
1, 76559, Note_off_c, 1, 45, 0
1, 76560, Note_on_c, 1, 55, 127
1, 76560, Note_on_c, 1, 79, 127
1, 76560, Note_on_c, 1, 47, 127
1, 76619, Note_off_c, 1, 55, 0
1, 76619, Note_off_c, 1, 79, 0
1, 76620, Note_on_c, 1, 57, 127
1, 76620, Note_on_c, 1, 78, 127
1, 76679, Note_off_c, 1, 47, 0
1, 76679, Note_off_c, 1, 57, 0
1, 76679, Note_off_c, 1, 78, 0
1, 76680, Note_on_c, 1, 59, 127
1, 76680, Note_on_c, 1, 76, 127
1, 76680, Note_on_c, 1, 43, 127
1, 76739, Note_off_c, 1, 76, 0
1, 76740, Note_on_c, 1, 74, 127
1, 76799, Note_off_c, 1, 59, 0
1, 76799, Note_off_c, 1, 43, 0
1, 76799, Note_off_c, 1, 74, 0
1, 76800, Note_on_c, 1, 59, 127
1, 76800, Note_on_c, 1, 73, 127
1, 76800, Note_on_c, 1, 45, 127
1, 76859, Note_off_c, 1, 73, 0
1, 76860, Note_on_c, 1, 71, 127
1, 76919, Note_off_c, 1, 59, 0
1, 76919, Note_off_c, 1, 71, 0
1, 76920, Note_on_c, 1, 52, 127
1, 76920, Note_on_c, 1, 69, 127
1, 76979, Note_off_c, 1, 69, 0
1, 77039, Note_off_c, 1, 45, 0
1, 77039, Note_off_c, 1, 52, 0
1, 77040, Note_on_c, 1, 52, 127
1, 77040, Note_on_c, 1, 73, 127
1, 77099, Note_off_c, 1, 73, 0
1, 77100, Note_on_c, 1, 74, 127
1, 77159, Note_off_c, 1, 52, 0
1, 77159, Note_off_c, 1, 74, 0
1, 77160, Note_on_c, 1, 55, 127
1, 77160, Note_on_c, 1, 76, 127
1, 77160, Note_on_c, 1, 49, 127
1, 77219, Note_off_c, 1, 76, 0
1, 77220, Note_on_c, 1, 73, 127
1, 77279, Note_off_c, 1, 49, 0
1, 77279, Note_off_c, 1, 73, 0
1, 77280, Note_on_c, 1, 81, 127
1, 77280, Note_on_c, 1, 50, 127
1, 77339, Note_off_c, 1, 50, 0
1, 77340, Note_on_c, 1, 52, 127
1, 77399, Note_off_c, 1, 55, 0
1, 77399, Note_off_c, 1, 81, 0
1, 77399, Note_off_c, 1, 52, 0
1, 77400, Note_on_c, 1, 54, 127
1, 77400, Note_on_c, 1, 69, 127
1, 77459, Note_off_c, 1, 54, 0
1, 77460, Note_on_c, 1, 52, 127
1, 77460, Note_on_c, 1, 55, 127
1, 77519, Note_off_c, 1, 69, 0
1, 77519, Note_off_c, 1, 52, 0
1, 77519, Note_off_c, 1, 55, 0
1, 77520, Note_on_c, 1, 54, 127
1, 77520, Note_on_c, 1, 69, 127
1, 77520, Note_on_c, 1, 57, 127
1, 77579, Note_off_c, 1, 54, 0
1, 77579, Note_off_c, 1, 57, 0
1, 77580, Note_on_c, 1, 55, 127
1, 77580, Note_on_c, 1, 59, 127
1, 77639, Note_off_c, 1, 69, 0
1, 77639, Note_off_c, 1, 55, 0
1, 77639, Note_off_c, 1, 59, 0
1, 77640, Note_on_c, 1, 57, 127
1, 77640, Note_on_c, 1, 74, 127
1, 77669, Note_off_c, 1, 74, 0
1, 77670, Note_on_c, 1, 73, 127
1, 77699, Note_off_c, 1, 73, 0
1, 77700, Note_on_c, 1, 71, 127
1, 77700, Note_on_c, 1, 55, 127
1, 77729, Note_off_c, 1, 71, 0
1, 77759, Note_off_c, 1, 57, 0
1, 77759, Note_off_c, 1, 55, 0
1, 77760, Note_on_c, 1, 57, 127
1, 77760, Note_on_c, 1, 74, 127
1, 77760, Note_on_c, 1, 54, 127
1, 77819, Note_off_c, 1, 54, 0
1, 77820, Note_on_c, 1, 55, 127
1, 77879, Note_off_c, 1, 57, 0
1, 77879, Note_off_c, 1, 55, 0
1, 77880, Note_on_c, 1, 50, 127
1, 77940, Note_on_c, 1, 52, 127
1, 77999, Note_off_c, 1, 74, 0
1, 77999, Note_off_c, 1, 50, 0
1, 77999, Note_off_c, 1, 52, 0
1, 78000, Note_on_c, 1, 50, 127
1, 78060, Note_on_c, 1, 49, 127
1, 78119, Note_off_c, 1, 50, 0
1, 78119, Note_off_c, 1, 49, 0
1, 78120, Note_on_c, 1, 62, 127
1, 78120, Note_on_c, 1, 78, 127
1, 78120, Note_on_c, 1, 47, 127
1, 78179, Note_off_c, 1, 47, 0
1, 78180, Note_on_c, 1, 45, 127
1, 78239, Note_off_c, 1, 78, 0
1, 78239, Note_off_c, 1, 45, 0
1, 78240, Note_on_c, 1, 76, 127
1, 78240, Note_on_c, 1, 43, 127
1, 78299, Note_off_c, 1, 76, 0
1, 78359, Note_off_c, 1, 62, 0
1, 78359, Note_off_c, 1, 43, 0
1, 78360, Note_on_c, 1, 60, 127
1, 78360, Note_on_c, 1, 79, 127
1, 78360, Note_on_c, 1, 52, 127
1, 78419, Note_off_c, 1, 79, 0
1, 78420, Note_on_c, 1, 81, 127
1, 78479, Note_off_c, 1, 52, 0
1, 78479, Note_off_c, 1, 81, 0
1, 78480, Note_on_c, 1, 74, 127
1, 78480, Note_on_c, 1, 42, 127
1, 78539, Note_off_c, 1, 74, 0
1, 78540, Note_on_c, 1, 76, 127
1, 78599, Note_off_c, 1, 60, 0
1, 78599, Note_off_c, 1, 42, 0
1, 78599, Note_off_c, 1, 76, 0
1, 78600, Note_on_c, 1, 59, 127
1, 78600, Note_on_c, 1, 78, 127
1, 78600, Note_on_c, 1, 50, 127
1, 78659, Note_off_c, 1, 78, 0
1, 78660, Note_on_c, 1, 79, 127
1, 78719, Note_off_c, 1, 50, 0
1, 78719, Note_off_c, 1, 79, 0
1, 78720, Note_on_c, 1, 72, 127
1, 78720, Note_on_c, 1, 40, 127
1, 78839, Note_off_c, 1, 59, 0
1, 78839, Note_off_c, 1, 40, 0
1, 78840, Note_on_c, 1, 57, 127
1, 78840, Note_on_c, 1, 48, 127
1, 78899, Note_off_c, 1, 57, 0
1, 78900, Note_on_c, 1, 55, 127
1, 78959, Note_off_c, 1, 48, 0
1, 78959, Note_off_c, 1, 55, 0
1, 78960, Note_on_c, 1, 54, 127
1, 78960, Note_on_c, 1, 38, 127
1, 79019, Note_off_c, 1, 54, 0
1, 79079, Note_off_c, 1, 72, 0
1, 79079, Note_off_c, 1, 38, 0
1, 79080, Note_on_c, 1, 52, 127
1, 79080, Note_on_c, 1, 71, 127
1, 79080, Note_on_c, 1, 50, 127
1, 79139, Note_off_c, 1, 52, 0
1, 79139, Note_off_c, 1, 71, 0
1, 79139, Note_off_c, 1, 50, 0
1, 79140, Note_on_c, 1, 54, 127
1, 79140, Note_on_c, 1, 69, 127
1, 79140, Note_on_c, 1, 48, 127
1, 79199, Note_off_c, 1, 54, 0
1, 79199, Note_off_c, 1, 69, 0
1, 79199, Note_off_c, 1, 48, 0
1, 79200, Note_on_c, 1, 55, 127
1, 79200, Note_on_c, 1, 67, 127
1, 79200, Note_on_c, 1, 47, 127
1, 79259, Note_off_c, 1, 55, 0
1, 79259, Note_off_c, 1, 67, 0
1, 79260, Note_on_c, 1, 50, 127
1, 79260, Note_on_c, 1, 66, 127
1, 79319, Note_off_c, 1, 47, 0
1, 79319, Note_off_c, 1, 50, 0
1, 79319, Note_off_c, 1, 66, 0
1, 79320, Note_on_c, 1, 52, 127
1, 79320, Note_on_c, 1, 67, 127
1, 79320, Note_on_c, 1, 43, 127
1, 79379, Note_off_c, 1, 52, 0
1, 79379, Note_off_c, 1, 67, 0
1, 79380, Note_on_c, 1, 54, 127
1, 79380, Note_on_c, 1, 69, 127
1, 79439, Note_off_c, 1, 43, 0
1, 79439, Note_off_c, 1, 54, 0
1, 79439, Note_off_c, 1, 69, 0
1, 79440, Note_on_c, 1, 55, 127
1, 79440, Note_on_c, 1, 71, 127
1, 79499, Note_off_c, 1, 71, 0
1, 79500, Note_on_c, 1, 57, 127
1, 79500, Note_on_c, 1, 72, 127
1, 79559, Note_off_c, 1, 55, 0
1, 79559, Note_off_c, 1, 57, 0
1, 79559, Note_off_c, 1, 72, 0
1, 79560, Note_on_c, 1, 59, 127
1, 79560, Note_on_c, 1, 74, 127
1, 79560, Note_on_c, 1, 50, 127
1, 79619, Note_off_c, 1, 59, 0
1, 79619, Note_off_c, 1, 74, 0
1, 79620, Note_on_c, 1, 60, 127
1, 79620, Note_on_c, 1, 76, 127
1, 79679, Note_off_c, 1, 50, 0
1, 79679, Note_off_c, 1, 60, 0
1, 79679, Note_off_c, 1, 76, 0
1, 79680, Note_on_c, 1, 62, 127
1, 79680, Note_on_c, 1, 74, 127
1, 79680, Note_on_c, 1, 47, 127
1, 79739, Note_off_c, 1, 62, 0
1, 79739, Note_off_c, 1, 74, 0
1, 79740, Note_on_c, 1, 64, 127
1, 79740, Note_on_c, 1, 79, 127
1, 79799, Note_off_c, 1, 47, 0
1, 79799, Note_off_c, 1, 64, 0
1, 79799, Note_off_c, 1, 79, 0
1, 79800, Note_on_c, 1, 62, 127
1, 79800, Note_on_c, 1, 78, 127
1, 79800, Note_on_c, 1, 45, 127
1, 79859, Note_off_c, 1, 62, 0
1, 79859, Note_off_c, 1, 78, 0
1, 79859, Note_off_c, 1, 45, 0
1, 79860, Note_on_c, 1, 60, 127
1, 79860, Note_on_c, 1, 76, 127
1, 79860, Note_on_c, 1, 43, 127
1, 79919, Note_off_c, 1, 60, 0
1, 79919, Note_off_c, 1, 76, 0
1, 79919, Note_off_c, 1, 43, 0
1, 79920, Note_on_c, 1, 59, 127
1, 79920, Note_on_c, 1, 74, 127
1, 79920, Note_on_c, 1, 50, 127
1, 79979, Note_off_c, 1, 59, 0
1, 79979, Note_off_c, 1, 74, 0
1, 79980, Note_on_c, 1, 57, 127
1, 79980, Note_on_c, 1, 72, 127
1, 80039, Note_off_c, 1, 50, 0
1, 80039, Note_off_c, 1, 57, 0
1, 80039, Note_off_c, 1, 72, 0
1, 80040, Note_on_c, 1, 55, 127
1, 80040, Note_on_c, 1, 71, 127
1, 80040, Note_on_c, 1, 50, 127
1, 80099, Note_off_c, 1, 55, 0
1, 80099, Note_off_c, 1, 71, 0
1, 80100, Note_on_c, 1, 54, 127
1, 80100, Note_on_c, 1, 69, 127
1, 80159, Note_off_c, 1, 50, 0
1, 80159, Note_off_c, 1, 54, 0
1, 80159, Note_off_c, 1, 69, 0
1, 80160, Note_on_c, 1, 52, 127
1, 80160, Note_on_c, 1, 67, 127
1, 80160, Note_on_c, 1, 50, 127
1, 80219, Note_off_c, 1, 67, 0
1, 80220, Note_on_c, 1, 71, 127
1, 80279, Note_off_c, 1, 52, 0
1, 80279, Note_off_c, 1, 50, 0
1, 80279, Note_off_c, 1, 71, 0
1, 80280, Note_on_c, 1, 64, 127
1, 80280, Note_on_c, 1, 72, 127
1, 80280, Note_on_c, 1, 48, 127
1, 80339, Note_off_c, 1, 64, 0
1, 80339, Note_off_c, 1, 72, 0
1, 80339, Note_off_c, 1, 48, 0
1, 80340, Note_on_c, 1, 62, 127
1, 80340, Note_on_c, 1, 74, 127
1, 80340, Note_on_c, 1, 47, 127
1, 80399, Note_off_c, 1, 62, 0
1, 80399, Note_off_c, 1, 74, 0
1, 80399, Note_off_c, 1, 47, 0
1, 80400, Note_on_c, 1, 60, 127
1, 80400, Note_on_c, 1, 76, 127
1, 80400, Note_on_c, 1, 48, 127
1, 80459, Note_off_c, 1, 60, 0
1, 80459, Note_off_c, 1, 76, 0
1, 80459, Note_off_c, 1, 48, 0
1, 80460, Note_on_c, 1, 59, 127
1, 80460, Note_on_c, 1, 78, 127
1, 80460, Note_on_c, 1, 50, 127
1, 80519, Note_off_c, 1, 59, 0
1, 80519, Note_off_c, 1, 78, 0
1, 80519, Note_off_c, 1, 50, 0
1, 80520, Note_on_c, 1, 57, 127
1, 80520, Note_on_c, 1, 79, 127
1, 80520, Note_on_c, 1, 52, 127
1, 80579, Note_off_c, 1, 57, 0
1, 80579, Note_off_c, 1, 79, 0
1, 80580, Note_on_c, 1, 55, 127
1, 80580, Note_on_c, 1, 76, 127
1, 80639, Note_off_c, 1, 52, 0
1, 80639, Note_off_c, 1, 55, 0
1, 80639, Note_off_c, 1, 76, 0
1, 80640, Note_on_c, 1, 54, 127
1, 80640, Note_on_c, 1, 81, 127
1, 80640, Note_on_c, 1, 52, 127
1, 80699, Note_off_c, 1, 54, 0
1, 80699, Note_off_c, 1, 81, 0
1, 80700, Note_on_c, 1, 79, 127
1, 80759, Note_off_c, 1, 52, 0
1, 80759, Note_off_c, 1, 79, 0
1, 80760, Note_on_c, 1, 50, 127
1, 80760, Note_on_c, 1, 78, 127
1, 80760, Note_on_c, 1, 45, 127
1, 80819, Note_off_c, 1, 50, 0
1, 80819, Note_off_c, 1, 78, 0
1, 80820, Note_on_c, 1, 52, 127
1, 80820, Note_on_c, 1, 79, 127
1, 80879, Note_off_c, 1, 45, 0
1, 80879, Note_off_c, 1, 52, 0
1, 80879, Note_off_c, 1, 79, 0
1, 80880, Note_on_c, 1, 54, 127
1, 80880, Note_on_c, 1, 81, 127
1, 80880, Note_on_c, 1, 45, 127
1, 80939, Note_off_c, 1, 54, 0
1, 80939, Note_off_c, 1, 81, 0
1, 80940, Note_on_c, 1, 55, 127
1, 80940, Note_on_c, 1, 79, 127
1, 80999, Note_off_c, 1, 45, 0
1, 80999, Note_off_c, 1, 55, 0
1, 80999, Note_off_c, 1, 79, 0
1, 81000, Note_on_c, 1, 57, 127
1, 81000, Note_on_c, 1, 78, 127
1, 81000, Note_on_c, 1, 48, 127
1, 81059, Note_off_c, 1, 57, 0
1, 81059, Note_off_c, 1, 78, 0
1, 81060, Note_on_c, 1, 54, 127
1, 81060, Note_on_c, 1, 76, 127
1, 81119, Note_off_c, 1, 54, 0
1, 81119, Note_off_c, 1, 76, 0
1, 81120, Note_on_c, 1, 62, 127
1, 81180, Note_on_c, 1, 81, 127
1, 81239, Note_off_c, 1, 48, 0
1, 81239, Note_off_c, 1, 62, 0
1, 81239, Note_off_c, 1, 81, 0
1, 81240, Note_on_c, 1, 50, 127
1, 81240, Note_on_c, 1, 79, 127
1, 81240, Note_on_c, 1, 47, 127
1, 81299, Note_off_c, 1, 79, 0
1, 81299, Note_off_c, 1, 47, 0
1, 81300, Note_on_c, 1, 78, 127
1, 81300, Note_on_c, 1, 45, 127
1, 81359, Note_off_c, 1, 50, 0
1, 81359, Note_off_c, 1, 78, 0
1, 81359, Note_off_c, 1, 45, 0
1, 81360, Note_on_c, 1, 50, 127
1, 81360, Note_on_c, 1, 76, 127
1, 81360, Note_on_c, 1, 47, 127
1, 81419, Note_off_c, 1, 76, 0
1, 81419, Note_off_c, 1, 47, 0
1, 81420, Note_on_c, 1, 74, 127
1, 81420, Note_on_c, 1, 48, 127
1, 81479, Note_off_c, 1, 50, 0
1, 81479, Note_off_c, 1, 74, 0
1, 81479, Note_off_c, 1, 48, 0
1, 81480, Note_on_c, 1, 54, 127
1, 81480, Note_on_c, 1, 72, 127
1, 81480, Note_on_c, 1, 50, 127
1, 81539, Note_off_c, 1, 72, 0
1, 81540, Note_on_c, 1, 74, 127
1, 81599, Note_off_c, 1, 54, 0
1, 81599, Note_off_c, 1, 50, 0
1, 81599, Note_off_c, 1, 74, 0
1, 81600, Note_on_c, 1, 55, 127
1, 81600, Note_on_c, 1, 71, 127
1, 81600, Note_on_c, 1, 50, 127
1, 81659, Note_off_c, 1, 71, 0
1, 81660, Note_on_c, 1, 69, 127
1, 81719, Note_off_c, 1, 50, 0
1, 81719, Note_off_c, 1, 69, 0
1, 81720, Note_on_c, 1, 43, 127
1, 81780, Note_on_c, 1, 72, 127
1, 81839, Note_off_c, 1, 55, 0
1, 81839, Note_off_c, 1, 43, 0
1, 81839, Note_off_c, 1, 72, 0
1, 81840, Note_on_c, 1, 74, 127
1, 81840, Note_on_c, 1, 43, 127
1, 81899, Note_off_c, 1, 74, 0
1, 81900, Note_on_c, 1, 76, 127
1, 81959, Note_off_c, 1, 43, 0
1, 81959, Note_off_c, 1, 76, 0
1, 81960, Note_on_c, 1, 59, 127
1, 81960, Note_on_c, 1, 78, 127
1, 81960, Note_on_c, 1, 55, 127
1, 82019, Note_off_c, 1, 78, 0
1, 82020, Note_on_c, 1, 79, 127
1, 82079, Note_off_c, 1, 59, 0
1, 82079, Note_off_c, 1, 79, 0
1, 82080, Note_on_c, 1, 57, 127
1, 82080, Note_on_c, 1, 73, 127
1, 82139, Note_off_c, 1, 57, 0
1, 82199, Note_off_c, 1, 55, 0
1, 82199, Note_off_c, 1, 73, 0
1, 82200, Note_on_c, 1, 61, 127
1, 82200, Note_on_c, 1, 81, 127
1, 82200, Note_on_c, 1, 54, 127
1, 82259, Note_off_c, 1, 61, 0
1, 82260, Note_on_c, 1, 62, 127
1, 82319, Note_off_c, 1, 81, 0
1, 82319, Note_off_c, 1, 62, 0
1, 82320, Note_on_c, 1, 55, 127
1, 82320, Note_on_c, 1, 71, 127
1, 82379, Note_off_c, 1, 55, 0
1, 82380, Note_on_c, 1, 57, 127
1, 82439, Note_off_c, 1, 54, 0
1, 82439, Note_off_c, 1, 71, 0
1, 82439, Note_off_c, 1, 57, 0
1, 82440, Note_on_c, 1, 59, 127
1, 82440, Note_on_c, 1, 79, 127
1, 82440, Note_on_c, 1, 52, 127
1, 82499, Note_off_c, 1, 59, 0
1, 82500, Note_on_c, 1, 61, 127
1, 82559, Note_off_c, 1, 79, 0
1, 82559, Note_off_c, 1, 61, 0
1, 82560, Note_on_c, 1, 54, 127
1, 82560, Note_on_c, 1, 69, 127
1, 82619, Note_off_c, 1, 69, 0
1, 82620, Note_on_c, 1, 72, 127
1, 82679, Note_off_c, 1, 52, 0
1, 82679, Note_off_c, 1, 54, 0
1, 82679, Note_off_c, 1, 72, 0
1, 82680, Note_on_c, 1, 66, 127
1, 82680, Note_on_c, 1, 71, 127
1, 82680, Note_on_c, 1, 50, 127
1, 82739, Note_off_c, 1, 71, 0
1, 82739, Note_off_c, 1, 50, 0
1, 82740, Note_on_c, 1, 69, 127
1, 82740, Note_on_c, 1, 49, 127
1, 82799, Note_off_c, 1, 69, 0
1, 82799, Note_off_c, 1, 49, 0
1, 82800, Note_on_c, 1, 67, 127
1, 82800, Note_on_c, 1, 47, 127
1, 82859, Note_off_c, 1, 47, 0
1, 82860, Note_on_c, 1, 45, 127
1, 82919, Note_off_c, 1, 66, 0
1, 82919, Note_off_c, 1, 67, 0
1, 82919, Note_off_c, 1, 45, 0
1, 82920, Note_on_c, 1, 64, 127
1, 82920, Note_on_c, 1, 79, 127
1, 82920, Note_on_c, 1, 47, 127
1, 82979, Note_off_c, 1, 47, 0
1, 82980, Note_on_c, 1, 49, 127
1, 83039, Note_off_c, 1, 79, 0
1, 83039, Note_off_c, 1, 49, 0
1, 83040, Note_on_c, 1, 50, 127
1, 83099, Note_off_c, 1, 50, 0
1, 83100, Note_on_c, 1, 78, 127
1, 83100, Note_on_c, 1, 52, 127
1, 83159, Note_off_c, 1, 64, 0
1, 83159, Note_off_c, 1, 52, 0
1, 83160, Note_on_c, 1, 62, 127
1, 83160, Note_on_c, 1, 54, 127
1, 83219, Note_off_c, 1, 78, 0
1, 83219, Note_off_c, 1, 62, 0
1, 83219, Note_off_c, 1, 54, 0
1, 83220, Note_on_c, 1, 64, 127
1, 83220, Note_on_c, 1, 76, 127
1, 83220, Note_on_c, 1, 55, 127
1, 83279, Note_off_c, 1, 64, 0
1, 83279, Note_off_c, 1, 76, 0
1, 83279, Note_off_c, 1, 55, 0
1, 83280, Note_on_c, 1, 61, 127
1, 83280, Note_on_c, 1, 76, 127
1, 83280, Note_on_c, 1, 57, 127
1, 83310, Note_off_c, 1, 61, 0
1, 83310, Note_off_c, 1, 76, 0
1, 83310, Note_on_c, 1, 62, 127
1, 83310, Note_on_c, 1, 78, 127
1, 83340, Note_off_c, 1, 62, 0
1, 83340, Note_off_c, 1, 78, 0
1, 83399, Note_off_c, 1, 57, 0
1, 83400, Note_on_c, 1, 45, 127
1, 83420, Note_on_c, 1, 74, 127
1, 83440, Note_off_c, 1, 74, 0
1, 83519, Note_off_c, 1, 45, 0
1, 83520, Note_on_c, 1, 62, 127
1, 83520, Note_on_c, 1, 74, 127
1, 83520, Note_on_c, 1, 50, 127
1, 83579, Note_off_c, 1, 74, 0
1, 83580, Note_on_c, 1, 78, 127
1, 83639, Note_off_c, 1, 62, 0
1, 83639, Note_off_c, 1, 78, 0
1, 83640, Note_on_c, 1, 57, 127
1, 83640, Note_on_c, 1, 76, 127
1, 83699, Note_off_c, 1, 76, 0
1, 83759, Note_off_c, 1, 50, 0
1, 83759, Note_off_c, 1, 57, 0
1, 83760, Note_on_c, 1, 62, 127
1, 83760, Note_on_c, 1, 81, 127
1, 83819, Note_off_c, 1, 81, 0
1, 83820, Note_on_c, 1, 78, 127
1, 83879, Note_off_c, 1, 62, 0
1, 83879, Note_off_c, 1, 78, 0
1, 83880, Note_on_c, 1, 66, 127
1, 83880, Note_on_c, 1, 76, 127
1, 83939, Note_off_c, 1, 76, 0
1, 83940, Note_on_c, 1, 74, 127
1, 83999, Note_off_c, 1, 66, 0
1, 83999, Note_off_c, 1, 74, 0
1, 84000, Note_on_c, 1, 69, 127
1, 84000, Note_on_c, 1, 72, 127
1, 84000, Note_on_c, 1, 50, 127
1, 84059, Note_off_c, 1, 72, 0
1, 84060, Note_on_c, 1, 76, 127
1, 84119, Note_off_c, 1, 69, 0
1, 84119, Note_off_c, 1, 76, 0
1, 84120, Note_on_c, 1, 62, 127
1, 84120, Note_on_c, 1, 74, 127
1, 84179, Note_off_c, 1, 74, 0
1, 84239, Note_off_c, 1, 50, 0
1, 84239, Note_off_c, 1, 62, 0
1, 84240, Note_on_c, 1, 66, 127
1, 84240, Note_on_c, 1, 81, 127
1, 84299, Note_off_c, 1, 81, 0
1, 84300, Note_on_c, 1, 76, 127
1, 84359, Note_off_c, 1, 66, 0
1, 84359, Note_off_c, 1, 76, 0
1, 84360, Note_on_c, 1, 69, 127
1, 84360, Note_on_c, 1, 74, 127
1, 84419, Note_off_c, 1, 74, 0
1, 84420, Note_on_c, 1, 72, 127
1, 84479, Note_off_c, 1, 69, 0
1, 84479, Note_off_c, 1, 72, 0
1, 84480, Note_on_c, 1, 66, 127
1, 84480, Note_on_c, 1, 71, 127
1, 84480, Note_on_c, 1, 51, 127
1, 84539, Note_off_c, 1, 71, 0
1, 84540, Note_on_c, 1, 75, 127
1, 84599, Note_off_c, 1, 66, 0
1, 84599, Note_off_c, 1, 75, 0
1, 84600, Note_on_c, 1, 63, 127
1, 84600, Note_on_c, 1, 73, 127
1, 84659, Note_off_c, 1, 73, 0
1, 84719, Note_off_c, 1, 51, 0
1, 84719, Note_off_c, 1, 63, 0
1, 84720, Note_on_c, 1, 59, 127
1, 84720, Note_on_c, 1, 81, 127
1, 84779, Note_off_c, 1, 81, 0
1, 84780, Note_on_c, 1, 79, 127
1, 84839, Note_off_c, 1, 59, 0
1, 84839, Note_off_c, 1, 79, 0
1, 84840, Note_on_c, 1, 63, 127
1, 84840, Note_on_c, 1, 78, 127
1, 84899, Note_off_c, 1, 78, 0
1, 84900, Note_on_c, 1, 76, 127
1, 84959, Note_off_c, 1, 63, 0
1, 84959, Note_off_c, 1, 76, 0
1, 84960, Note_on_c, 1, 66, 127
1, 84960, Note_on_c, 1, 75, 127
1, 85019, Note_off_c, 1, 75, 0
1, 85020, Note_on_c, 1, 76, 127
1, 85079, Note_off_c, 1, 66, 0
1, 85079, Note_off_c, 1, 76, 0
1, 85080, Note_on_c, 1, 69, 127
1, 85080, Note_on_c, 1, 78, 127
1, 85080, Note_on_c, 1, 59, 127
1, 85139, Note_off_c, 1, 78, 0
1, 85140, Note_on_c, 1, 79, 127
1, 85199, Note_off_c, 1, 69, 0
1, 85199, Note_off_c, 1, 59, 0
1, 85199, Note_off_c, 1, 79, 0
1, 85200, Note_on_c, 1, 66, 127
1, 85200, Note_on_c, 1, 81, 127
1, 85200, Note_on_c, 1, 51, 127
1, 85259, Note_off_c, 1, 81, 0
1, 85260, Note_on_c, 1, 79, 127
1, 85319, Note_off_c, 1, 66, 0
1, 85319, Note_off_c, 1, 51, 0
1, 85319, Note_off_c, 1, 79, 0
1, 85320, Note_on_c, 1, 63, 127
1, 85320, Note_on_c, 1, 81, 127
1, 85320, Note_on_c, 1, 47, 127
1, 85379, Note_off_c, 1, 81, 0
1, 85380, Note_on_c, 1, 78, 127
1, 85439, Note_off_c, 1, 63, 0
1, 85439, Note_off_c, 1, 47, 0
1, 85439, Note_off_c, 1, 78, 0
1, 85440, Note_on_c, 1, 52, 127
1, 85440, Note_on_c, 1, 79, 127
1, 85500, Note_on_c, 1, 55, 127
1, 85559, Note_off_c, 1, 79, 0
1, 85559, Note_off_c, 1, 55, 0
1, 85560, Note_on_c, 1, 54, 127
1, 85560, Note_on_c, 1, 71, 127
1, 85619, Note_off_c, 1, 54, 0
1, 85679, Note_off_c, 1, 52, 0
1, 85679, Note_off_c, 1, 71, 0
1, 85680, Note_on_c, 1, 59, 127
1, 85680, Note_on_c, 1, 76, 127
1, 85739, Note_off_c, 1, 59, 0
1, 85740, Note_on_c, 1, 55, 127
1, 85799, Note_off_c, 1, 76, 0
1, 85799, Note_off_c, 1, 55, 0
1, 85800, Note_on_c, 1, 54, 127
1, 85800, Note_on_c, 1, 79, 127
1, 85859, Note_off_c, 1, 54, 0
1, 85860, Note_on_c, 1, 52, 127
1, 85919, Note_off_c, 1, 79, 0
1, 85919, Note_off_c, 1, 52, 0
1, 85920, Note_on_c, 1, 50, 127
1, 85920, Note_on_c, 1, 83, 127
1, 85920, Note_on_c, 1, 56, 127
1, 85979, Note_off_c, 1, 50, 0
1, 85980, Note_on_c, 1, 53, 127
1, 86039, Note_off_c, 1, 83, 0
1, 86039, Note_off_c, 1, 53, 0
1, 86040, Note_on_c, 1, 52, 127
1, 86040, Note_on_c, 1, 80, 127
1, 86099, Note_off_c, 1, 52, 0
1, 86159, Note_off_c, 1, 56, 0
1, 86159, Note_off_c, 1, 80, 0
1, 86160, Note_on_c, 1, 59, 127
1, 86160, Note_on_c, 1, 76, 127
1, 86219, Note_off_c, 1, 59, 0
1, 86220, Note_on_c, 1, 53, 127
1, 86279, Note_off_c, 1, 76, 0
1, 86279, Note_off_c, 1, 53, 0
1, 86280, Note_on_c, 1, 52, 127
1, 86280, Note_on_c, 1, 71, 127
1, 86339, Note_off_c, 1, 52, 0
1, 86340, Note_on_c, 1, 50, 127
1, 86399, Note_off_c, 1, 71, 0
1, 86399, Note_off_c, 1, 50, 0
1, 86400, Note_on_c, 1, 62, 127
1, 86400, Note_on_c, 1, 68, 127
1, 86400, Note_on_c, 1, 59, 127
1, 86459, Note_off_c, 1, 62, 0
1, 86460, Note_on_c, 1, 60, 127
1, 86519, Note_off_c, 1, 68, 0
1, 86519, Note_off_c, 1, 60, 0
1, 86520, Note_on_c, 1, 71, 127
1, 86580, Note_on_c, 1, 57, 127
1, 86639, Note_off_c, 1, 59, 0
1, 86639, Note_off_c, 1, 71, 0
1, 86639, Note_off_c, 1, 57, 0
1, 86640, Note_on_c, 1, 56, 127
1, 86640, Note_on_c, 1, 64, 127
1, 86699, Note_off_c, 1, 56, 0
1, 86699, Note_off_c, 1, 64, 0
1, 86700, Note_on_c, 1, 54, 127
1, 86700, Note_on_c, 1, 66, 127
1, 86759, Note_off_c, 1, 54, 0
1, 86759, Note_off_c, 1, 66, 0
1, 86760, Note_on_c, 1, 52, 127
1, 86760, Note_on_c, 1, 68, 127
1, 86819, Note_off_c, 1, 52, 0
1, 86819, Note_off_c, 1, 68, 0
1, 86820, Note_on_c, 1, 54, 127
1, 86820, Note_on_c, 1, 69, 127
1, 86879, Note_off_c, 1, 54, 0
1, 86879, Note_off_c, 1, 69, 0
1, 86880, Note_on_c, 1, 56, 127
1, 86880, Note_on_c, 1, 71, 127
1, 86939, Note_off_c, 1, 56, 0
1, 86939, Note_off_c, 1, 71, 0
1, 86940, Note_on_c, 1, 57, 127
1, 86940, Note_on_c, 1, 72, 127
1, 86999, Note_off_c, 1, 57, 0
1, 86999, Note_off_c, 1, 72, 0
1, 87000, Note_on_c, 1, 59, 127
1, 87000, Note_on_c, 1, 74, 127
1, 87000, Note_on_c, 1, 64, 127
1, 87059, Note_off_c, 1, 59, 0
1, 87059, Note_off_c, 1, 74, 0
1, 87060, Note_on_c, 1, 60, 127
1, 87060, Note_on_c, 1, 72, 127
1, 87119, Note_off_c, 1, 64, 0
1, 87119, Note_off_c, 1, 60, 0
1, 87119, Note_off_c, 1, 72, 0
1, 87120, Note_on_c, 1, 62, 127
1, 87120, Note_on_c, 1, 71, 127
1, 87120, Note_on_c, 1, 56, 127
1, 87179, Note_off_c, 1, 62, 0
1, 87179, Note_off_c, 1, 71, 0
1, 87180, Note_on_c, 1, 60, 127
1, 87180, Note_on_c, 1, 69, 127
1, 87239, Note_off_c, 1, 56, 0
1, 87239, Note_off_c, 1, 60, 0
1, 87239, Note_off_c, 1, 69, 0
1, 87240, Note_on_c, 1, 62, 127
1, 87240, Note_on_c, 1, 71, 127
1, 87240, Note_on_c, 1, 52, 127
1, 87299, Note_off_c, 1, 62, 0
1, 87299, Note_off_c, 1, 71, 0
1, 87300, Note_on_c, 1, 59, 127
1, 87300, Note_on_c, 1, 68, 127
1, 87359, Note_off_c, 1, 52, 0
1, 87359, Note_off_c, 1, 59, 0
1, 87359, Note_off_c, 1, 68, 0
1, 87360, Note_on_c, 1, 60, 127
1, 87360, Note_on_c, 1, 76, 127
1, 87360, Note_on_c, 1, 57, 127
1, 87419, Note_off_c, 1, 60, 0
1, 87420, Note_on_c, 1, 62, 127
1, 87479, Note_off_c, 1, 57, 0
1, 87479, Note_off_c, 1, 62, 0
1, 87480, Note_on_c, 1, 64, 127
1, 87480, Note_on_c, 1, 45, 127
1, 87539, Note_off_c, 1, 64, 0
1, 87540, Note_on_c, 1, 65, 127
1, 87599, Note_off_c, 1, 45, 0
1, 87599, Note_off_c, 1, 65, 0
1, 87600, Note_on_c, 1, 48, 127
1, 87660, Note_on_c, 1, 59, 127
1, 87719, Note_off_c, 1, 48, 0
1, 87719, Note_off_c, 1, 59, 0
1, 87960, Note_on_c, 1, 52, 127
1, 88079, Note_off_c, 1, 52, 0
1, 88080, Note_on_c, 1, 56, 127
1, 88199, Note_off_c, 1, 56, 0
1, 88560, Note_on_c, 1, 54, 127
1, 88619, Note_off_c, 1, 54, 0
1, 89100, Note_off_c, 1, 76, 0
1, 89100, Note_on_c, 1, 74, 127
1, 89159, Note_off_c, 1, 74, 0
1, 89160, Note_on_c, 1, 64, 127
1, 89160, Note_on_c, 1, 72, 127
1, 89160, Note_on_c, 1, 57, 127
1, 89219, Note_off_c, 1, 72, 0
1, 89219, Note_off_c, 1, 57, 0
1, 89220, Note_on_c, 1, 71, 127
1, 89220, Note_on_c, 1, 56, 127
1, 89279, Note_off_c, 1, 64, 0
1, 89279, Note_off_c, 1, 71, 0
1, 89279, Note_off_c, 1, 56, 0
1, 89280, Note_on_c, 1, 64, 127
1, 89280, Note_on_c, 1, 72, 127
1, 89280, Note_on_c, 1, 57, 127
1, 89339, Note_off_c, 1, 72, 0
1, 89340, Note_on_c, 1, 74, 127
1, 89399, Note_off_c, 1, 57, 0
1, 89399, Note_off_c, 1, 74, 0
1, 89400, Note_on_c, 1, 76, 127
1, 89400, Note_on_c, 1, 59, 127
1, 89459, Note_off_c, 1, 76, 0
1, 89460, Note_on_c, 1, 77, 127
1, 89519, Note_off_c, 1, 59, 0
1, 89519, Note_off_c, 1, 77, 0
1, 89520, Note_on_c, 1, 69, 127
1, 89520, Note_on_c, 1, 60, 127
1, 89579, Note_off_c, 1, 69, 0
1, 89580, Note_on_c, 1, 71, 127
1, 89639, Note_off_c, 1, 60, 0
1, 89639, Note_off_c, 1, 71, 0
1, 89760, Note_on_c, 1, 56, 127
1, 89879, Note_off_c, 1, 56, 0
1, 89880, Note_on_c, 1, 54, 127
1, 89999, Note_off_c, 1, 54, 0
1, 90000, Note_on_c, 1, 68, 127
1, 90000, Note_on_c, 1, 52, 127
1, 90059, Note_off_c, 1, 68, 0
1, 90119, Note_off_c, 1, 52, 0
1, 90480, Note_off_c, 1, 64, 0
1, 90480, Note_on_c, 1, 62, 127
1, 90480, Note_on_c, 1, 66, 127
1, 90539, Note_off_c, 1, 66, 0
1, 90600, Note_on_c, 1, 47, 127
1, 90719, Note_off_c, 1, 47, 0
1, 90780, Note_off_c, 1, 62, 0
1, 91020, Note_on_c, 1, 57, 127
1, 91020, Note_on_c, 1, 71, 127
1, 91079, Note_off_c, 1, 57, 0
1, 91079, Note_off_c, 1, 71, 0
1, 91080, Note_on_c, 1, 56, 127
1, 91080, Note_on_c, 1, 76, 127
1, 91080, Note_on_c, 1, 40, 127
1, 91139, Note_off_c, 1, 56, 0
1, 91139, Note_off_c, 1, 76, 0
1, 91140, Note_on_c, 1, 59, 127
1, 91140, Note_on_c, 1, 74, 127
1, 91199, Note_off_c, 1, 40, 0
1, 91199, Note_off_c, 1, 59, 0
1, 91199, Note_off_c, 1, 74, 0
1, 91200, Note_on_c, 1, 57, 127
1, 91200, Note_on_c, 1, 72, 127
1, 91200, Note_on_c, 1, 45, 127
1, 91319, Note_off_c, 1, 57, 0
1, 91319, Note_off_c, 1, 72, 0
1, 91319, Note_off_c, 1, 45, 0
1, 91320, Note_on_c, 1, 64, 127
1, 91320, Note_on_c, 1, 69, 127
1, 91320, Note_on_c, 1, 48, 127
1, 91379, Note_off_c, 1, 64, 0
1, 91379, Note_off_c, 1, 48, 0
1, 91380, Note_on_c, 1, 62, 127
1, 91380, Note_on_c, 1, 47, 127
1, 91439, Note_off_c, 1, 69, 0
1, 91439, Note_off_c, 1, 62, 0
1, 91439, Note_off_c, 1, 47, 0
1, 91440, Note_on_c, 1, 60, 127
1, 91440, Note_on_c, 1, 81, 127
1, 91440, Note_on_c, 1, 45, 127
1, 91559, Note_off_c, 1, 60, 0
1, 91559, Note_off_c, 1, 81, 0
1, 91559, Note_off_c, 1, 45, 0
1, 91560, Note_on_c, 1, 57, 127
1, 91560, Note_on_c, 1, 76, 127
1, 91560, Note_on_c, 1, 48, 127
1, 91619, Note_off_c, 1, 48, 0
1, 91620, Note_on_c, 1, 47, 127
1, 91679, Note_off_c, 1, 57, 0
1, 91679, Note_off_c, 1, 76, 0
1, 91679, Note_off_c, 1, 47, 0
1, 91680, Note_on_c, 1, 69, 127
1, 91680, Note_on_c, 1, 72, 127
1, 91680, Note_on_c, 1, 45, 127
1, 91799, Note_off_c, 1, 69, 0
1, 91799, Note_off_c, 1, 72, 0
1, 91799, Note_off_c, 1, 45, 0
1, 91800, Note_on_c, 1, 64, 127
1, 91800, Note_on_c, 1, 71, 127
1, 91800, Note_on_c, 1, 48, 127
1, 91859, Note_off_c, 1, 71, 0
1, 91859, Note_off_c, 1, 48, 0
1, 91860, Note_on_c, 1, 69, 127
1, 91860, Note_on_c, 1, 47, 127
1, 91919, Note_off_c, 1, 64, 0
1, 91919, Note_off_c, 1, 69, 0
1, 91919, Note_off_c, 1, 47, 0
1, 91920, Note_on_c, 1, 60, 127
1, 91920, Note_on_c, 1, 76, 127
1, 91920, Note_on_c, 1, 45, 127
1, 91979, Note_off_c, 1, 45, 0
1, 91980, Note_on_c, 1, 47, 127
1, 92039, Note_off_c, 1, 60, 0
1, 92039, Note_off_c, 1, 76, 0
1, 92039, Note_off_c, 1, 47, 0
1, 92040, Note_on_c, 1, 59, 127
1, 92040, Note_on_c, 1, 76, 127
1, 92040, Note_on_c, 1, 48, 127
1, 92099, Note_off_c, 1, 59, 0
1, 92099, Note_off_c, 1, 48, 0
1, 92100, Note_on_c, 1, 57, 127
1, 92100, Note_on_c, 1, 45, 127
1, 92159, Note_off_c, 1, 76, 0
1, 92159, Note_off_c, 1, 57, 0
1, 92159, Note_off_c, 1, 45, 0
1, 92160, Note_on_c, 1, 65, 127
1, 92160, Note_on_c, 1, 76, 127
1, 92160, Note_on_c, 1, 50, 127
1, 92219, Note_off_c, 1, 65, 0
1, 92220, Note_on_c, 1, 64, 127
1, 92279, Note_off_c, 1, 76, 0
1, 92279, Note_off_c, 1, 64, 0
1, 92280, Note_on_c, 1, 74, 127
1, 92339, Note_off_c, 1, 74, 0
1, 92340, Note_on_c, 1, 67, 127
1, 92340, Note_on_c, 1, 73, 127
1, 92399, Note_off_c, 1, 50, 0
1, 92399, Note_off_c, 1, 67, 0
1, 92399, Note_off_c, 1, 73, 0
1, 92400, Note_on_c, 1, 65, 127
1, 92400, Note_on_c, 1, 74, 127
1, 92459, Note_off_c, 1, 65, 0
1, 92459, Note_off_c, 1, 74, 0
1, 92460, Note_on_c, 1, 64, 127
1, 92460, Note_on_c, 1, 76, 127
1, 92519, Note_off_c, 1, 64, 0
1, 92519, Note_off_c, 1, 76, 0
1, 92520, Note_on_c, 1, 62, 127
1, 92520, Note_on_c, 1, 77, 127
1, 92520, Note_on_c, 1, 38, 127
1, 92579, Note_off_c, 1, 62, 0
1, 92580, Note_on_c, 1, 60, 127
1, 92639, Note_off_c, 1, 77, 0
1, 92639, Note_off_c, 1, 38, 0
1, 92639, Note_off_c, 1, 60, 0
1, 92640, Note_on_c, 1, 59, 127
1, 92640, Note_on_c, 1, 77, 127
1, 92640, Note_on_c, 1, 43, 127
1, 92699, Note_off_c, 1, 59, 0
1, 92700, Note_on_c, 1, 60, 127
1, 92759, Note_off_c, 1, 77, 0
1, 92759, Note_off_c, 1, 60, 0
1, 92760, Note_on_c, 1, 62, 127
1, 92760, Note_on_c, 1, 71, 127
1, 92819, Note_off_c, 1, 62, 0
1, 92879, Note_off_c, 1, 43, 0
1, 92879, Note_off_c, 1, 71, 0
1, 92880, Note_on_c, 1, 59, 127
1, 92880, Note_on_c, 1, 71, 127
1, 92939, Note_off_c, 1, 59, 0
1, 92940, Note_on_c, 1, 57, 127
1, 92999, Note_off_c, 1, 71, 0
1, 92999, Note_off_c, 1, 57, 0
1, 93000, Note_on_c, 1, 55, 127
1, 93000, Note_on_c, 1, 74, 127
1, 93000, Note_on_c, 1, 47, 127
1, 93059, Note_off_c, 1, 55, 0
1, 93060, Note_on_c, 1, 53, 127
1, 93119, Note_off_c, 1, 47, 0
1, 93119, Note_off_c, 1, 53, 0
1, 93120, Note_on_c, 1, 64, 127
1, 93120, Note_on_c, 1, 48, 127
1, 93179, Note_off_c, 1, 64, 0
1, 93180, Note_on_c, 1, 62, 127
1, 93239, Note_off_c, 1, 62, 0
1, 93240, Note_off_c, 1, 74, 0
1, 93240, Note_on_c, 1, 72, 127
1, 93299, Note_off_c, 1, 72, 0
1, 93300, Note_on_c, 1, 65, 127
1, 93300, Note_on_c, 1, 71, 127
1, 93359, Note_off_c, 1, 48, 0
1, 93359, Note_off_c, 1, 65, 0
1, 93359, Note_off_c, 1, 71, 0
1, 93360, Note_on_c, 1, 64, 127
1, 93360, Note_on_c, 1, 72, 127
1, 93419, Note_off_c, 1, 64, 0
1, 93419, Note_off_c, 1, 72, 0
1, 93420, Note_on_c, 1, 62, 127
1, 93420, Note_on_c, 1, 74, 127
1, 93479, Note_off_c, 1, 62, 0
1, 93479, Note_off_c, 1, 74, 0
1, 93480, Note_on_c, 1, 60, 127
1, 93480, Note_on_c, 1, 76, 127
1, 93480, Note_on_c, 1, 36, 127
1, 93539, Note_off_c, 1, 60, 0
1, 93540, Note_on_c, 1, 59, 127
1, 93599, Note_off_c, 1, 76, 0
1, 93599, Note_off_c, 1, 36, 0
1, 93599, Note_off_c, 1, 59, 0
1, 93600, Note_on_c, 1, 57, 127
1, 93600, Note_on_c, 1, 76, 127
1, 93600, Note_on_c, 1, 41, 127
1, 93659, Note_off_c, 1, 57, 0
1, 93660, Note_on_c, 1, 59, 127
1, 93719, Note_off_c, 1, 76, 0
1, 93719, Note_off_c, 1, 59, 0
1, 93720, Note_on_c, 1, 60, 127
1, 93720, Note_on_c, 1, 69, 127
1, 93779, Note_off_c, 1, 60, 0
1, 93780, Note_on_c, 1, 62, 127
1, 93839, Note_off_c, 1, 41, 0
1, 93839, Note_off_c, 1, 69, 0
1, 93839, Note_off_c, 1, 62, 0
1, 93840, Note_on_c, 1, 64, 127
1, 93840, Note_on_c, 1, 69, 127
1, 93899, Note_off_c, 1, 64, 0
1, 93900, Note_on_c, 1, 66, 127
1, 93900, Note_on_c, 1, 50, 127
1, 93959, Note_off_c, 1, 69, 0
1, 93959, Note_off_c, 1, 66, 0
1, 93959, Note_off_c, 1, 50, 0
1, 93960, Note_on_c, 1, 68, 127
1, 93960, Note_on_c, 1, 71, 127
1, 93960, Note_on_c, 1, 48, 127
1, 93989, Note_off_c, 1, 71, 0
1, 93990, Note_on_c, 1, 72, 127
1, 94019, Note_off_c, 1, 68, 0
1, 94019, Note_off_c, 1, 48, 0
1, 94019, Note_off_c, 1, 72, 0
1, 94020, Note_on_c, 1, 64, 127
1, 94020, Note_on_c, 1, 74, 127
1, 94020, Note_on_c, 1, 47, 127
1, 94079, Note_off_c, 1, 64, 0
1, 94079, Note_off_c, 1, 47, 0
1, 94080, Note_on_c, 1, 69, 127
1, 94080, Note_on_c, 1, 45, 127
1, 94140, Note_off_c, 1, 74, 0
1, 94140, Note_on_c, 1, 72, 127
1, 94199, Note_off_c, 1, 45, 0
1, 94200, Note_on_c, 1, 50, 127
1, 94259, Note_off_c, 1, 69, 0
1, 94259, Note_off_c, 1, 72, 0
1, 94260, Note_on_c, 1, 71, 127
1, 94319, Note_off_c, 1, 50, 0
1, 94320, Note_on_c, 1, 68, 127
1, 94320, Note_on_c, 1, 52, 127
1, 94349, Note_off_c, 1, 71, 0
1, 94439, Note_off_c, 1, 52, 0
1, 94440, Note_on_c, 1, 40, 127
1, 94499, Note_off_c, 1, 68, 0
1, 94559, Note_off_c, 1, 40, 0
1, 94680, Note_on_c, 1, 64, 127
1, 94680, Note_on_c, 1, 81, 127
1, 94680, Note_on_c, 1, 48, 127
1, 94739, Note_off_c, 1, 48, 0
1, 94740, Note_on_c, 1, 50, 127
1, 94799, Note_off_c, 1, 64, 0
1, 94799, Note_off_c, 1, 50, 0
1, 94800, Note_on_c, 1, 71, 127
1, 94800, Note_on_c, 1, 52, 127
1, 94859, Note_off_c, 1, 52, 0
1, 94860, Note_on_c, 1, 47, 127
1, 94919, Note_off_c, 1, 81, 0
1, 94919, Note_off_c, 1, 47, 0
1, 94920, Note_on_c, 1, 79, 127
1, 95039, Note_off_c, 1, 71, 0
1, 95040, Note_on_c, 1, 69, 127
1, 95159, Note_off_c, 1, 79, 0
1, 95160, Note_on_c, 1, 78, 127
1, 95219, Note_off_c, 1, 78, 0
1, 95220, Note_on_c, 1, 76, 127
1, 95220, Note_on_c, 1, 45, 127
1, 95279, Note_off_c, 1, 76, 0
1, 95279, Note_off_c, 1, 45, 0
1, 95280, Note_on_c, 1, 75, 127
1, 95340, Note_on_c, 1, 49, 127
1, 95399, Note_off_c, 1, 69, 0
1, 95399, Note_off_c, 1, 75, 0
1, 95399, Note_off_c, 1, 49, 0
1, 95400, Note_on_c, 1, 67, 127
1, 95400, Note_on_c, 1, 71, 127
1, 95400, Note_on_c, 1, 51, 127
1, 95459, Note_off_c, 1, 67, 0
1, 95459, Note_off_c, 1, 51, 0
1, 95460, Note_on_c, 1, 66, 127
1, 95460, Note_on_c, 1, 47, 127
1, 95519, Note_off_c, 1, 71, 0
1, 95519, Note_off_c, 1, 66, 0
1, 95519, Note_off_c, 1, 47, 0
1, 95520, Note_on_c, 1, 64, 127
1, 95520, Note_on_c, 1, 79, 127
1, 95520, Note_on_c, 1, 52, 127
1, 95579, Note_off_c, 1, 64, 0
1, 95579, Note_off_c, 1, 52, 0
1, 95580, Note_on_c, 1, 59, 127
1, 95580, Note_on_c, 1, 54, 127
1, 95639, Note_off_c, 1, 59, 0
1, 95639, Note_off_c, 1, 54, 0
1, 95640, Note_on_c, 1, 55, 127
1, 95699, Note_off_c, 1, 55, 0
1, 95700, Note_on_c, 1, 57, 127
1, 95759, Note_off_c, 1, 79, 0
1, 95759, Note_off_c, 1, 57, 0
1, 95760, Note_on_c, 1, 78, 127
1, 95880, Note_on_c, 1, 62, 127
1, 95999, Note_off_c, 1, 78, 0
1, 96000, Note_on_c, 1, 76, 127
1, 96119, Note_off_c, 1, 62, 0
1, 96120, Note_on_c, 1, 61, 127
1, 96179, Note_off_c, 1, 61, 0
1, 96240, Note_on_c, 1, 58, 127
1, 96300, Note_on_c, 1, 56, 127
1, 96359, Note_off_c, 1, 76, 0
1, 96359, Note_off_c, 1, 58, 0
1, 96359, Note_off_c, 1, 56, 0
1, 96360, Note_on_c, 1, 54, 127
1, 96360, Note_on_c, 1, 74, 127
1, 96360, Note_on_c, 1, 58, 127
1, 96419, Note_off_c, 1, 74, 0
1, 96419, Note_off_c, 1, 58, 0
1, 96420, Note_on_c, 1, 73, 127
1, 96479, Note_off_c, 1, 54, 0
1, 96479, Note_off_c, 1, 73, 0
1, 96480, Note_on_c, 1, 62, 127
1, 96480, Note_on_c, 1, 71, 127
1, 96480, Note_on_c, 1, 47, 127
1, 96539, Note_off_c, 1, 47, 0
1, 96540, Note_on_c, 1, 49, 127
1, 96599, Note_off_c, 1, 71, 0
1, 96599, Note_off_c, 1, 49, 0
1, 96600, Note_on_c, 1, 83, 127
1, 96600, Note_on_c, 1, 50, 127
1, 96659, Note_off_c, 1, 50, 0
1, 96660, Note_on_c, 1, 52, 127
1, 96719, Note_off_c, 1, 62, 0
1, 96719, Note_off_c, 1, 52, 0
1, 96720, Note_on_c, 1, 61, 127
1, 96720, Note_on_c, 1, 54, 127
1, 96779, Note_off_c, 1, 54, 0
1, 96839, Note_off_c, 1, 83, 0
1, 96840, Note_on_c, 1, 81, 127
1, 96959, Note_off_c, 1, 61, 0
1, 96960, Note_on_c, 1, 59, 127
1, 97079, Note_off_c, 1, 81, 0
1, 97080, Note_on_c, 1, 80, 127
1, 97139, Note_off_c, 1, 80, 0
1, 97140, Note_on_c, 1, 78, 127
1, 97199, Note_off_c, 1, 78, 0
1, 97200, Note_on_c, 1, 77, 127
1, 97260, Note_on_c, 1, 51, 127
1, 97319, Note_off_c, 1, 59, 0
1, 97319, Note_off_c, 1, 77, 0
1, 97319, Note_off_c, 1, 51, 0
1, 97320, Note_on_c, 1, 57, 127
1, 97320, Note_on_c, 1, 75, 127
1, 97320, Note_on_c, 1, 53, 127
1, 97379, Note_off_c, 1, 57, 0
1, 97379, Note_off_c, 1, 53, 0
1, 97380, Note_on_c, 1, 56, 127
1, 97380, Note_on_c, 1, 49, 127
1, 97439, Note_off_c, 1, 75, 0
1, 97439, Note_off_c, 1, 56, 0
1, 97439, Note_off_c, 1, 49, 0
1, 97440, Note_on_c, 1, 54, 127
1, 97440, Note_on_c, 1, 81, 127
1, 97500, Note_on_c, 1, 56, 127
1, 97559, Note_off_c, 1, 54, 0
1, 97559, Note_off_c, 1, 56, 0
1, 97560, Note_on_c, 1, 66, 127
1, 97560, Note_on_c, 1, 57, 127
1, 97619, Note_off_c, 1, 57, 0
1, 97620, Note_on_c, 1, 59, 127
1, 97679, Note_off_c, 1, 81, 0
1, 97679, Note_off_c, 1, 59, 0
1, 97680, Note_on_c, 1, 80, 127
1, 97680, Note_on_c, 1, 61, 127
1, 97739, Note_off_c, 1, 61, 0
1, 97740, Note_on_c, 1, 62, 127
1, 97799, Note_off_c, 1, 66, 0
1, 97799, Note_off_c, 1, 62, 0
1, 97800, Note_on_c, 1, 64, 127
1, 97919, Note_off_c, 1, 80, 0
1, 97920, Note_on_c, 1, 78, 127
1, 97920, Note_on_c, 1, 58, 127
1, 97979, Note_off_c, 1, 58, 0
1, 98039, Note_off_c, 1, 64, 0
1, 98159, Note_off_c, 1, 78, 0
1, 98160, Note_on_c, 1, 76, 127
1, 98399, Note_off_c, 1, 76, 0
1, 98400, Note_on_c, 1, 74, 127
1, 98520, Note_on_c, 1, 55, 127
1, 98579, Note_off_c, 1, 55, 0
1, 98640, Note_on_c, 1, 52, 127
1, 98699, Note_off_c, 1, 52, 0
1, 98759, Note_off_c, 1, 74, 0
1, 98760, Note_on_c, 1, 73, 127
1, 98819, Note_off_c, 1, 73, 0
1, 98820, Note_on_c, 1, 71, 127
1, 98879, Note_off_c, 1, 71, 0
1, 98880, Note_on_c, 1, 70, 127
1, 98999, Note_off_c, 1, 70, 0
1, 99000, Note_on_c, 1, 61, 127
1, 99000, Note_on_c, 1, 73, 127
1, 99000, Note_on_c, 1, 52, 127
1, 99059, Note_off_c, 1, 61, 0
1, 99060, Note_on_c, 1, 62, 127
1, 99119, Note_off_c, 1, 73, 0
1, 99119, Note_off_c, 1, 52, 0
1, 99119, Note_off_c, 1, 62, 0
1, 99120, Note_on_c, 1, 64, 127
1, 99120, Note_on_c, 1, 66, 127
1, 99120, Note_on_c, 1, 50, 127
1, 99179, Note_off_c, 1, 64, 0
1, 99180, Note_on_c, 1, 67, 127
1, 99239, Note_off_c, 1, 66, 0
1, 99239, Note_off_c, 1, 50, 0
1, 99239, Note_off_c, 1, 67, 0
1, 99240, Note_on_c, 1, 66, 127
1, 99240, Note_on_c, 1, 71, 127
1, 99240, Note_on_c, 1, 49, 127
1, 99269, Note_off_c, 1, 71, 0
1, 99270, Note_on_c, 1, 70, 127
1, 99299, Note_off_c, 1, 66, 0
1, 99299, Note_off_c, 1, 70, 0
1, 99300, Note_on_c, 1, 64, 127
1, 99300, Note_on_c, 1, 68, 127
1, 99329, Note_off_c, 1, 68, 0
1, 99359, Note_off_c, 1, 49, 0
1, 99359, Note_off_c, 1, 64, 0
1, 99360, Note_on_c, 1, 62, 127
1, 99360, Note_on_c, 1, 71, 127
1, 99360, Note_on_c, 1, 47, 127
1, 99479, Note_off_c, 1, 62, 0
1, 99479, Note_off_c, 1, 71, 0
1, 99479, Note_off_c, 1, 47, 0
1, 99480, Note_on_c, 1, 59, 127
1, 99480, Note_on_c, 1, 78, 127
1, 99480, Note_on_c, 1, 50, 127
1, 99539, Note_off_c, 1, 78, 0
1, 99539, Note_off_c, 1, 50, 0
1, 99540, Note_on_c, 1, 76, 127
1, 99540, Note_on_c, 1, 49, 127
1, 99599, Note_off_c, 1, 59, 0
1, 99599, Note_off_c, 1, 76, 0
1, 99599, Note_off_c, 1, 49, 0
1, 99600, Note_on_c, 1, 71, 127
1, 99600, Note_on_c, 1, 74, 127
1, 99600, Note_on_c, 1, 47, 127
1, 99719, Note_off_c, 1, 71, 0
1, 99719, Note_off_c, 1, 74, 0
1, 99719, Note_off_c, 1, 47, 0
1, 99720, Note_on_c, 1, 66, 127
1, 99720, Note_on_c, 1, 71, 127
1, 99720, Note_on_c, 1, 50, 127
1, 99779, Note_off_c, 1, 50, 0
1, 99780, Note_on_c, 1, 49, 127
1, 99839, Note_off_c, 1, 66, 0
1, 99839, Note_off_c, 1, 71, 0
1, 99839, Note_off_c, 1, 49, 0
1, 99840, Note_on_c, 1, 62, 127
1, 99840, Note_on_c, 1, 83, 127
1, 99840, Note_on_c, 1, 47, 127
1, 99959, Note_off_c, 1, 62, 0
1, 99959, Note_off_c, 1, 83, 0
1, 99959, Note_off_c, 1, 47, 0
1, 99960, Note_on_c, 1, 61, 127
1, 99960, Note_on_c, 1, 78, 127
1, 99960, Note_on_c, 1, 50, 127
1, 100019, Note_off_c, 1, 61, 0
1, 100019, Note_off_c, 1, 50, 0
1, 100020, Note_on_c, 1, 59, 127
1, 100020, Note_on_c, 1, 49, 127
1, 100079, Note_off_c, 1, 78, 0
1, 100079, Note_off_c, 1, 59, 0
1, 100079, Note_off_c, 1, 49, 0
1, 100080, Note_on_c, 1, 66, 127
1, 100080, Note_on_c, 1, 74, 127
1, 100080, Note_on_c, 1, 47, 127
1, 100139, Note_off_c, 1, 47, 0
1, 100140, Note_on_c, 1, 49, 127
1, 100199, Note_off_c, 1, 66, 0
1, 100199, Note_off_c, 1, 74, 0
1, 100199, Note_off_c, 1, 49, 0
1, 100200, Note_on_c, 1, 66, 127
1, 100200, Note_on_c, 1, 73, 127
1, 100200, Note_on_c, 1, 50, 127
1, 100259, Note_off_c, 1, 73, 0
1, 100259, Note_off_c, 1, 50, 0
1, 100260, Note_on_c, 1, 71, 127
1, 100260, Note_on_c, 1, 47, 127
1, 100319, Note_off_c, 1, 66, 0
1, 100319, Note_off_c, 1, 71, 0
1, 100319, Note_off_c, 1, 47, 0
1, 100320, Note_on_c, 1, 66, 127
1, 100320, Note_on_c, 1, 79, 127
1, 100320, Note_on_c, 1, 52, 127
1, 100379, Note_off_c, 1, 79, 0
1, 100380, Note_on_c, 1, 78, 127
1, 100439, Note_off_c, 1, 66, 0
1, 100439, Note_off_c, 1, 78, 0
1, 100440, Note_on_c, 1, 64, 127
1, 100499, Note_off_c, 1, 64, 0
1, 100500, Note_on_c, 1, 63, 127
1, 100500, Note_on_c, 1, 81, 127
1, 100559, Note_off_c, 1, 52, 0
1, 100559, Note_off_c, 1, 63, 0
1, 100559, Note_off_c, 1, 81, 0
1, 100560, Note_on_c, 1, 64, 127
1, 100560, Note_on_c, 1, 79, 127
1, 100619, Note_off_c, 1, 64, 0
1, 100619, Note_off_c, 1, 79, 0
1, 100620, Note_on_c, 1, 66, 127
1, 100620, Note_on_c, 1, 78, 127
1, 100679, Note_off_c, 1, 66, 0
1, 100679, Note_off_c, 1, 78, 0
1, 100680, Note_on_c, 1, 67, 127
1, 100680, Note_on_c, 1, 76, 127
1, 100680, Note_on_c, 1, 40, 127
1, 100739, Note_off_c, 1, 76, 0
1, 100740, Note_on_c, 1, 74, 127
1, 100799, Note_off_c, 1, 67, 0
1, 100799, Note_off_c, 1, 40, 0
1, 100799, Note_off_c, 1, 74, 0
1, 100800, Note_on_c, 1, 67, 127
1, 100800, Note_on_c, 1, 73, 127
1, 100800, Note_on_c, 1, 45, 127
1, 100859, Note_off_c, 1, 73, 0
1, 100860, Note_on_c, 1, 74, 127
1, 100919, Note_off_c, 1, 67, 0
1, 100919, Note_off_c, 1, 74, 0
1, 100920, Note_on_c, 1, 61, 127
1, 100920, Note_on_c, 1, 76, 127
1, 100979, Note_off_c, 1, 76, 0
1, 101039, Note_off_c, 1, 45, 0
1, 101039, Note_off_c, 1, 61, 0
1, 101040, Note_on_c, 1, 61, 127
1, 101040, Note_on_c, 1, 73, 127
1, 101099, Note_off_c, 1, 73, 0
1, 101100, Note_on_c, 1, 71, 127
1, 101159, Note_off_c, 1, 61, 0
1, 101159, Note_off_c, 1, 71, 0
1, 101160, Note_on_c, 1, 64, 127
1, 101160, Note_on_c, 1, 69, 127
1, 101160, Note_on_c, 1, 45, 127
1, 101219, Note_off_c, 1, 69, 0
1, 101220, Note_on_c, 1, 67, 127
1, 101279, Note_off_c, 1, 45, 0
1, 101279, Note_off_c, 1, 67, 0
1, 101280, Note_on_c, 1, 78, 127
1, 101280, Note_on_c, 1, 50, 127
1, 101339, Note_off_c, 1, 78, 0
1, 101340, Note_on_c, 1, 76, 127
1, 101399, Note_off_c, 1, 64, 0
1, 101399, Note_off_c, 1, 76, 0
1, 101400, Note_on_c, 1, 62, 127
1, 101459, Note_off_c, 1, 62, 0
1, 101460, Note_on_c, 1, 61, 127
1, 101460, Note_on_c, 1, 79, 127
1, 101519, Note_off_c, 1, 50, 0
1, 101519, Note_off_c, 1, 61, 0
1, 101519, Note_off_c, 1, 79, 0
1, 101520, Note_on_c, 1, 62, 127
1, 101520, Note_on_c, 1, 78, 127
1, 101579, Note_off_c, 1, 62, 0
1, 101579, Note_off_c, 1, 78, 0
1, 101580, Note_on_c, 1, 64, 127
1, 101580, Note_on_c, 1, 76, 127
1, 101639, Note_off_c, 1, 64, 0
1, 101639, Note_off_c, 1, 76, 0
1, 101640, Note_on_c, 1, 66, 127
1, 101640, Note_on_c, 1, 74, 127
1, 101640, Note_on_c, 1, 50, 127
1, 101699, Note_off_c, 1, 74, 0
1, 101700, Note_on_c, 1, 73, 127
1, 101759, Note_off_c, 1, 66, 0
1, 101759, Note_off_c, 1, 50, 0
1, 101759, Note_off_c, 1, 73, 0
1, 101760, Note_on_c, 1, 66, 127
1, 101760, Note_on_c, 1, 71, 127
1, 101760, Note_on_c, 1, 55, 127
1, 101819, Note_off_c, 1, 71, 0
1, 101820, Note_on_c, 1, 73, 127
1, 101879, Note_off_c, 1, 66, 0
1, 101879, Note_off_c, 1, 55, 0
1, 101879, Note_off_c, 1, 73, 0
1, 101880, Note_on_c, 1, 59, 127
1, 101880, Note_on_c, 1, 74, 127
1, 101880, Note_on_c, 1, 54, 127
1, 101939, Note_off_c, 1, 74, 0
1, 101939, Note_off_c, 1, 54, 0
1, 101940, Note_on_c, 1, 76, 127
1, 101940, Note_on_c, 1, 52, 127
1, 101999, Note_off_c, 1, 59, 0
1, 101999, Note_off_c, 1, 76, 0
1, 101999, Note_off_c, 1, 52, 0
1, 102000, Note_on_c, 1, 59, 127
1, 102000, Note_on_c, 1, 78, 127
1, 102000, Note_on_c, 1, 50, 127
1, 102059, Note_off_c, 1, 78, 0
1, 102060, Note_on_c, 1, 79, 127
1, 102119, Note_off_c, 1, 59, 0
1, 102119, Note_off_c, 1, 50, 0
1, 102119, Note_off_c, 1, 79, 0
1, 102120, Note_on_c, 1, 64, 127
1, 102120, Note_on_c, 1, 70, 127
1, 102120, Note_on_c, 1, 49, 127
1, 102239, Note_off_c, 1, 64, 0
1, 102239, Note_off_c, 1, 70, 0
1, 102239, Note_off_c, 1, 49, 0
1, 102240, Note_on_c, 1, 64, 127
1, 102240, Note_on_c, 1, 71, 127
1, 102240, Note_on_c, 1, 47, 127
1, 102299, Note_off_c, 1, 64, 0
1, 102300, Note_on_c, 1, 62, 127
1, 102359, Note_off_c, 1, 47, 0
1, 102360, Note_on_c, 1, 52, 127
1, 102419, Note_off_c, 1, 71, 0
1, 102419, Note_off_c, 1, 62, 0
1, 102420, Note_on_c, 1, 61, 127
1, 102420, Note_on_c, 1, 73, 127
1, 102479, Note_off_c, 1, 52, 0
1, 102479, Note_off_c, 1, 61, 0
1, 102479, Note_off_c, 1, 73, 0
1, 102480, Note_on_c, 1, 61, 127
1, 102480, Note_on_c, 1, 70, 127
1, 102480, Note_on_c, 1, 54, 127
1, 102509, Note_off_c, 1, 70, 0
1, 102510, Note_off_c, 1, 61, 0
1, 102510, Note_on_c, 1, 62, 127
1, 102510, Note_on_c, 1, 71, 127
1, 102539, Note_off_c, 1, 71, 0
1, 102540, Note_off_c, 1, 62, 0
1, 102599, Note_off_c, 1, 54, 0
1, 102600, Note_on_c, 1, 42, 127
1, 102660, Note_on_c, 1, 59, 127
1, 102719, Note_off_c, 1, 42, 0
1, 102719, Note_off_c, 1, 59, 0
1, 102720, Note_on_c, 1, 59, 127
1, 102720, Note_on_c, 1, 71, 127
1, 102720, Note_on_c, 1, 47, 127
1, 102779, Note_off_c, 1, 47, 0
1, 102780, Note_on_c, 1, 50, 127
1, 102839, Note_off_c, 1, 71, 0
1, 102839, Note_off_c, 1, 50, 0
1, 102840, Note_on_c, 1, 78, 127
1, 102840, Note_on_c, 1, 49, 127
1, 102899, Note_off_c, 1, 49, 0
1, 102959, Note_off_c, 1, 59, 0
1, 102959, Note_off_c, 1, 78, 0
1, 102960, Note_on_c, 1, 74, 127
1, 102960, Note_on_c, 1, 54, 127
1, 103019, Note_off_c, 1, 54, 0
1, 103020, Note_on_c, 1, 52, 127
1, 103079, Note_off_c, 1, 74, 0
1, 103079, Note_off_c, 1, 52, 0
1, 103080, Note_on_c, 1, 66, 127
1, 103080, Note_on_c, 1, 71, 127
1, 103080, Note_on_c, 1, 50, 127
1, 103139, Note_off_c, 1, 50, 0
1, 103140, Note_on_c, 1, 49, 127
1, 103199, Note_off_c, 1, 66, 0
1, 103199, Note_off_c, 1, 71, 0
1, 103199, Note_off_c, 1, 49, 0
1, 103200, Note_on_c, 1, 62, 127
1, 103200, Note_on_c, 1, 47, 127
1, 103259, Note_off_c, 1, 47, 0
1, 103260, Note_on_c, 1, 54, 127
1, 103319, Note_off_c, 1, 62, 0
1, 103319, Note_off_c, 1, 54, 0
1, 103320, Note_on_c, 1, 59, 127
1, 103320, Note_on_c, 1, 81, 127
1, 103320, Note_on_c, 1, 52, 127
1, 103379, Note_off_c, 1, 52, 0
1, 103380, Note_on_c, 1, 51, 127
1, 103439, Note_off_c, 1, 59, 0
1, 103439, Note_off_c, 1, 81, 0
1, 103439, Note_off_c, 1, 51, 0
1, 103440, Note_on_c, 1, 78, 127
1, 103440, Note_on_c, 1, 57, 127
1, 103499, Note_off_c, 1, 57, 0
1, 103500, Note_on_c, 1, 55, 127
1, 103559, Note_off_c, 1, 78, 0
1, 103559, Note_off_c, 1, 55, 0
1, 103560, Note_on_c, 1, 69, 127
1, 103560, Note_on_c, 1, 75, 127
1, 103560, Note_on_c, 1, 54, 127
1, 103619, Note_off_c, 1, 54, 0
1, 103620, Note_on_c, 1, 52, 127
1, 103679, Note_off_c, 1, 69, 0
1, 103679, Note_off_c, 1, 75, 0
1, 103679, Note_off_c, 1, 52, 0
1, 103680, Note_on_c, 1, 66, 127
1, 103680, Note_on_c, 1, 51, 127
1, 103739, Note_off_c, 1, 51, 0
1, 103740, Note_on_c, 1, 57, 127
1, 103799, Note_off_c, 1, 66, 0
1, 103799, Note_off_c, 1, 57, 0
1, 103800, Note_on_c, 1, 63, 127
1, 103800, Note_on_c, 1, 84, 127
1, 103800, Note_on_c, 1, 55, 127
1, 103859, Note_off_c, 1, 55, 0
1, 103860, Note_on_c, 1, 54, 127
1, 103919, Note_off_c, 1, 63, 0
1, 103919, Note_off_c, 1, 84, 0
1, 103919, Note_off_c, 1, 54, 0
1, 103920, Note_on_c, 1, 81, 127
1, 103920, Note_on_c, 1, 60, 127
1, 103979, Note_off_c, 1, 60, 0
1, 103980, Note_on_c, 1, 59, 127
1, 104039, Note_off_c, 1, 81, 0
1, 104039, Note_off_c, 1, 59, 0
1, 104040, Note_on_c, 1, 72, 127
1, 104040, Note_on_c, 1, 78, 127
1, 104040, Note_on_c, 1, 57, 127
1, 104099, Note_off_c, 1, 57, 0
1, 104100, Note_on_c, 1, 55, 127
1, 104159, Note_off_c, 1, 72, 0
1, 104159, Note_off_c, 1, 78, 0
1, 104159, Note_off_c, 1, 55, 0
1, 104160, Note_on_c, 1, 69, 127
1, 104160, Note_on_c, 1, 75, 127
1, 104160, Note_on_c, 1, 54, 127
1, 104219, Note_off_c, 1, 75, 0
1, 104219, Note_off_c, 1, 54, 0
1, 104220, Note_on_c, 1, 76, 127
1, 104220, Note_on_c, 1, 52, 127
1, 104279, Note_off_c, 1, 69, 0
1, 104279, Note_off_c, 1, 76, 0
1, 104279, Note_off_c, 1, 52, 0
1, 104280, Note_on_c, 1, 66, 127
1, 104280, Note_on_c, 1, 78, 127
1, 104280, Note_on_c, 1, 51, 127
1, 104339, Note_off_c, 1, 78, 0
1, 104339, Note_off_c, 1, 51, 0
1, 104340, Note_on_c, 1, 79, 127
1, 104340, Note_on_c, 1, 49, 127
1, 104399, Note_off_c, 1, 66, 0
1, 104399, Note_off_c, 1, 79, 0
1, 104399, Note_off_c, 1, 49, 0
1, 104400, Note_on_c, 1, 63, 127
1, 104400, Note_on_c, 1, 81, 127
1, 104400, Note_on_c, 1, 47, 127
1, 104459, Note_off_c, 1, 81, 0
1, 104459, Note_off_c, 1, 47, 0
1, 104460, Note_on_c, 1, 84, 127
1, 104460, Note_on_c, 1, 45, 127
1, 104519, Note_off_c, 1, 84, 0
1, 104519, Note_off_c, 1, 45, 0
1, 104520, Note_on_c, 1, 83, 127
1, 104520, Note_on_c, 1, 43, 127
1, 104579, Note_off_c, 1, 63, 0
1, 104579, Note_off_c, 1, 83, 0
1, 104579, Note_off_c, 1, 43, 0
1, 104580, Note_on_c, 1, 64, 127
1, 104580, Note_on_c, 1, 81, 127
1, 104580, Note_on_c, 1, 42, 127
1, 104639, Note_off_c, 1, 64, 0
1, 104639, Note_off_c, 1, 81, 0
1, 104639, Note_off_c, 1, 42, 0
1, 104640, Note_on_c, 1, 64, 127
1, 104640, Note_on_c, 1, 79, 127
1, 104640, Note_on_c, 1, 40, 127
1, 104699, Note_off_c, 1, 40, 0
1, 104700, Note_on_c, 1, 55, 127
1, 104759, Note_off_c, 1, 64, 0
1, 104759, Note_off_c, 1, 79, 0
1, 104759, Note_off_c, 1, 55, 0
1, 104760, Note_on_c, 1, 59, 127
1, 104760, Note_on_c, 1, 54, 127
1, 104819, Note_off_c, 1, 54, 0
1, 104820, Note_on_c, 1, 52, 127
1, 104879, Note_off_c, 1, 59, 0
1, 104879, Note_off_c, 1, 52, 0
1, 104880, Note_on_c, 1, 55, 127
1, 104880, Note_on_c, 1, 59, 127
1, 104939, Note_off_c, 1, 59, 0
1, 104940, Note_on_c, 1, 57, 127
1, 104999, Note_off_c, 1, 55, 0
1, 104999, Note_off_c, 1, 57, 0
1, 105000, Note_on_c, 1, 52, 127
1, 105000, Note_on_c, 1, 71, 127
1, 105000, Note_on_c, 1, 55, 127
1, 105059, Note_off_c, 1, 55, 0
1, 105060, Note_on_c, 1, 54, 127
1, 105119, Note_off_c, 1, 52, 0
1, 105119, Note_off_c, 1, 71, 0
1, 105119, Note_off_c, 1, 54, 0
1, 105120, Note_on_c, 1, 67, 127
1, 105120, Note_on_c, 1, 52, 127
1, 105179, Note_off_c, 1, 52, 0
1, 105180, Note_on_c, 1, 59, 127
1, 105239, Note_off_c, 1, 67, 0
1, 105239, Note_off_c, 1, 59, 0
1, 105240, Note_on_c, 1, 62, 127
1, 105240, Note_on_c, 1, 64, 127
1, 105240, Note_on_c, 1, 57, 127
1, 105299, Note_off_c, 1, 57, 0
1, 105300, Note_on_c, 1, 56, 127
1, 105359, Note_off_c, 1, 62, 0
1, 105359, Note_off_c, 1, 64, 0
1, 105359, Note_off_c, 1, 56, 0
1, 105360, Note_on_c, 1, 59, 127
1, 105360, Note_on_c, 1, 62, 127
1, 105419, Note_off_c, 1, 62, 0
1, 105420, Note_on_c, 1, 60, 127
1, 105479, Note_off_c, 1, 59, 0
1, 105479, Note_off_c, 1, 60, 0
1, 105480, Note_on_c, 1, 56, 127
1, 105480, Note_on_c, 1, 74, 127
1, 105480, Note_on_c, 1, 59, 127
1, 105539, Note_off_c, 1, 59, 0
1, 105540, Note_on_c, 1, 57, 127
1, 105599, Note_off_c, 1, 56, 0
1, 105599, Note_off_c, 1, 74, 0
1, 105599, Note_off_c, 1, 57, 0
1, 105600, Note_on_c, 1, 71, 127
1, 105600, Note_on_c, 1, 56, 127
1, 105659, Note_off_c, 1, 56, 0
1, 105660, Note_on_c, 1, 62, 127
1, 105719, Note_off_c, 1, 71, 0
1, 105719, Note_off_c, 1, 62, 0
1, 105720, Note_on_c, 1, 65, 127
1, 105720, Note_on_c, 1, 68, 127
1, 105720, Note_on_c, 1, 60, 127
1, 105779, Note_off_c, 1, 60, 0
1, 105780, Note_on_c, 1, 59, 127
1, 105839, Note_off_c, 1, 65, 0
1, 105839, Note_off_c, 1, 68, 0
1, 105839, Note_off_c, 1, 59, 0
1, 105840, Note_on_c, 1, 62, 127
1, 105840, Note_on_c, 1, 65, 127
1, 105899, Note_off_c, 1, 65, 0
1, 105900, Note_on_c, 1, 64, 127
1, 105959, Note_off_c, 1, 62, 0
1, 105959, Note_off_c, 1, 64, 0
1, 105960, Note_on_c, 1, 59, 127
1, 105960, Note_on_c, 1, 77, 127
1, 105960, Note_on_c, 1, 62, 127
1, 106019, Note_off_c, 1, 62, 0
1, 106020, Note_on_c, 1, 60, 127
1, 106079, Note_off_c, 1, 59, 0
1, 106079, Note_off_c, 1, 77, 0
1, 106079, Note_off_c, 1, 60, 0
1, 106080, Note_on_c, 1, 56, 127
1, 106080, Note_on_c, 1, 74, 127
1, 106080, Note_on_c, 1, 59, 127
1, 106139, Note_off_c, 1, 56, 0
1, 106139, Note_off_c, 1, 59, 0
1, 106140, Note_on_c, 1, 57, 127
1, 106199, Note_off_c, 1, 74, 0
1, 106199, Note_off_c, 1, 57, 0
1, 106200, Note_on_c, 1, 59, 127
1, 106200, Note_on_c, 1, 71, 127
1, 106200, Note_on_c, 1, 56, 127
1, 106259, Note_off_c, 1, 59, 0
1, 106259, Note_off_c, 1, 56, 0
1, 106260, Note_on_c, 1, 60, 127
1, 106260, Note_on_c, 1, 54, 127
1, 106319, Note_off_c, 1, 71, 0
1, 106319, Note_off_c, 1, 60, 0
1, 106319, Note_off_c, 1, 54, 0
1, 106320, Note_on_c, 1, 62, 127
1, 106320, Note_on_c, 1, 68, 127
1, 106320, Note_on_c, 1, 52, 127
1, 106379, Note_off_c, 1, 62, 0
1, 106379, Note_off_c, 1, 52, 0
1, 106380, Note_on_c, 1, 65, 127
1, 106380, Note_on_c, 1, 50, 127
1, 106439, Note_off_c, 1, 65, 0
1, 106439, Note_off_c, 1, 50, 0
1, 106440, Note_on_c, 1, 64, 127
1, 106440, Note_on_c, 1, 48, 127
1, 106499, Note_off_c, 1, 68, 0
1, 106499, Note_off_c, 1, 64, 0
1, 106499, Note_off_c, 1, 48, 0
1, 106500, Note_on_c, 1, 62, 127
1, 106500, Note_on_c, 1, 69, 127
1, 106500, Note_on_c, 1, 47, 127
1, 106559, Note_off_c, 1, 62, 0
1, 106559, Note_off_c, 1, 69, 0
1, 106559, Note_off_c, 1, 47, 0
1, 106560, Note_on_c, 1, 61, 127
1, 106560, Note_on_c, 1, 69, 127
1, 106560, Note_on_c, 1, 45, 127
1, 106619, Note_off_c, 1, 45, 0
1, 106620, Note_on_c, 1, 49, 127
1, 106679, Note_off_c, 1, 61, 0
1, 106679, Note_off_c, 1, 69, 0
1, 106679, Note_off_c, 1, 49, 0
1, 106680, Note_on_c, 1, 76, 127
1, 106680, Note_on_c, 1, 47, 127
1, 106739, Note_off_c, 1, 47, 0
1, 106740, Note_on_c, 1, 45, 127
1, 106799, Note_off_c, 1, 76, 0
1, 106799, Note_off_c, 1, 45, 0
1, 106800, Note_on_c, 1, 73, 127
1, 106800, Note_on_c, 1, 52, 127
1, 106859, Note_off_c, 1, 52, 0
1, 106860, Note_on_c, 1, 50, 127
1, 106919, Note_off_c, 1, 73, 0
1, 106919, Note_off_c, 1, 50, 0
1, 106920, Note_on_c, 1, 64, 127
1, 106920, Note_on_c, 1, 69, 127
1, 106920, Note_on_c, 1, 49, 127
1, 106979, Note_off_c, 1, 49, 0
1, 106980, Note_on_c, 1, 47, 127
1, 107039, Note_off_c, 1, 64, 0
1, 107039, Note_off_c, 1, 69, 0
1, 107039, Note_off_c, 1, 47, 0
1, 107040, Note_on_c, 1, 61, 127
1, 107040, Note_on_c, 1, 45, 127
1, 107099, Note_off_c, 1, 45, 0
1, 107100, Note_on_c, 1, 52, 127
1, 107159, Note_off_c, 1, 61, 0
1, 107159, Note_off_c, 1, 52, 0
1, 107160, Note_on_c, 1, 57, 127
1, 107160, Note_on_c, 1, 79, 127
1, 107160, Note_on_c, 1, 50, 127
1, 107219, Note_off_c, 1, 50, 0
1, 107220, Note_on_c, 1, 49, 127
1, 107279, Note_off_c, 1, 57, 0
1, 107279, Note_off_c, 1, 79, 0
1, 107279, Note_off_c, 1, 49, 0
1, 107280, Note_on_c, 1, 76, 127
1, 107280, Note_on_c, 1, 55, 127
1, 107339, Note_off_c, 1, 55, 0
1, 107340, Note_on_c, 1, 54, 127
1, 107399, Note_off_c, 1, 76, 0
1, 107399, Note_off_c, 1, 54, 0
1, 107400, Note_on_c, 1, 67, 127
1, 107400, Note_on_c, 1, 73, 127
1, 107400, Note_on_c, 1, 52, 127
1, 107459, Note_off_c, 1, 52, 0
1, 107460, Note_on_c, 1, 50, 127
1, 107519, Note_off_c, 1, 67, 0
1, 107519, Note_off_c, 1, 73, 0
1, 107519, Note_off_c, 1, 50, 0
1, 107520, Note_on_c, 1, 64, 127
1, 107520, Note_on_c, 1, 49, 127
1, 107579, Note_off_c, 1, 49, 0
1, 107580, Note_on_c, 1, 55, 127
1, 107639, Note_off_c, 1, 64, 0
1, 107639, Note_off_c, 1, 55, 0
1, 107640, Note_on_c, 1, 61, 127
1, 107640, Note_on_c, 1, 82, 127
1, 107640, Note_on_c, 1, 54, 127
1, 107699, Note_off_c, 1, 54, 0
1, 107700, Note_on_c, 1, 52, 127
1, 107759, Note_off_c, 1, 61, 0
1, 107759, Note_off_c, 1, 82, 0
1, 107759, Note_off_c, 1, 52, 0
1, 107760, Note_on_c, 1, 79, 127
1, 107760, Note_on_c, 1, 58, 127
1, 107819, Note_off_c, 1, 58, 0
1, 107820, Note_on_c, 1, 57, 127
1, 107879, Note_off_c, 1, 79, 0
1, 107879, Note_off_c, 1, 57, 0
1, 107880, Note_on_c, 1, 70, 127
1, 107880, Note_on_c, 1, 76, 127
1, 107880, Note_on_c, 1, 55, 127
1, 107939, Note_off_c, 1, 55, 0
1, 107940, Note_on_c, 1, 54, 127
1, 107999, Note_off_c, 1, 70, 0
1, 107999, Note_off_c, 1, 76, 0
1, 107999, Note_off_c, 1, 54, 0
1, 108000, Note_on_c, 1, 67, 127
1, 108000, Note_on_c, 1, 73, 127
1, 108000, Note_on_c, 1, 52, 127
1, 108059, Note_off_c, 1, 73, 0
1, 108059, Note_off_c, 1, 52, 0
1, 108060, Note_on_c, 1, 74, 127
1, 108060, Note_on_c, 1, 50, 127
1, 108119, Note_off_c, 1, 67, 0
1, 108119, Note_off_c, 1, 74, 0
1, 108119, Note_off_c, 1, 50, 0
1, 108120, Note_on_c, 1, 64, 127
1, 108120, Note_on_c, 1, 76, 127
1, 108120, Note_on_c, 1, 49, 127
1, 108179, Note_off_c, 1, 76, 0
1, 108179, Note_off_c, 1, 49, 0
1, 108180, Note_on_c, 1, 78, 127
1, 108180, Note_on_c, 1, 47, 127
1, 108239, Note_off_c, 1, 64, 0
1, 108239, Note_off_c, 1, 78, 0
1, 108239, Note_off_c, 1, 47, 0
1, 108240, Note_on_c, 1, 61, 127
1, 108240, Note_on_c, 1, 79, 127
1, 108240, Note_on_c, 1, 45, 127
1, 108299, Note_off_c, 1, 79, 0
1, 108299, Note_off_c, 1, 45, 0
1, 108300, Note_on_c, 1, 82, 127
1, 108300, Note_on_c, 1, 43, 127
1, 108359, Note_off_c, 1, 82, 0
1, 108359, Note_off_c, 1, 43, 0
1, 108360, Note_on_c, 1, 81, 127
1, 108360, Note_on_c, 1, 42, 127
1, 108419, Note_off_c, 1, 61, 0
1, 108419, Note_off_c, 1, 81, 0
1, 108419, Note_off_c, 1, 42, 0
1, 108420, Note_on_c, 1, 62, 127
1, 108420, Note_on_c, 1, 79, 127
1, 108420, Note_on_c, 1, 40, 127
1, 108479, Note_off_c, 1, 62, 0
1, 108479, Note_off_c, 1, 79, 0
1, 108479, Note_off_c, 1, 40, 0
1, 108480, Note_on_c, 1, 62, 127
1, 108480, Note_on_c, 1, 78, 127
1, 108480, Note_on_c, 1, 38, 127
1, 108539, Note_off_c, 1, 38, 0
1, 108540, Note_on_c, 1, 54, 127
1, 108599, Note_off_c, 1, 62, 0
1, 108599, Note_off_c, 1, 78, 0
1, 108599, Note_off_c, 1, 54, 0
1, 108600, Note_on_c, 1, 57, 127
1, 108600, Note_on_c, 1, 52, 127
1, 108659, Note_off_c, 1, 52, 0
1, 108660, Note_on_c, 1, 50, 127
1, 108719, Note_off_c, 1, 57, 0
1, 108719, Note_off_c, 1, 50, 0
1, 108720, Note_on_c, 1, 54, 127
1, 108720, Note_on_c, 1, 57, 127
1, 108779, Note_off_c, 1, 57, 0
1, 108780, Note_on_c, 1, 55, 127
1, 108839, Note_off_c, 1, 54, 0
1, 108839, Note_off_c, 1, 55, 0
1, 108840, Note_on_c, 1, 50, 127
1, 108840, Note_on_c, 1, 69, 127
1, 108840, Note_on_c, 1, 54, 127
1, 108899, Note_off_c, 1, 54, 0
1, 108900, Note_on_c, 1, 52, 127
1, 108959, Note_off_c, 1, 50, 0
1, 108959, Note_off_c, 1, 69, 0
1, 108959, Note_off_c, 1, 52, 0
1, 108960, Note_on_c, 1, 66, 127
1, 108960, Note_on_c, 1, 50, 127
1, 109019, Note_off_c, 1, 50, 0
1, 109020, Note_on_c, 1, 57, 127
1, 109079, Note_off_c, 1, 66, 0
1, 109079, Note_off_c, 1, 57, 0
1, 109080, Note_on_c, 1, 60, 127
1, 109080, Note_on_c, 1, 62, 127
1, 109080, Note_on_c, 1, 55, 127
1, 109139, Note_off_c, 1, 55, 0
1, 109140, Note_on_c, 1, 54, 127
1, 109199, Note_off_c, 1, 60, 0
1, 109199, Note_off_c, 1, 62, 0
1, 109199, Note_off_c, 1, 54, 0
1, 109200, Note_on_c, 1, 57, 127
1, 109200, Note_on_c, 1, 60, 127
1, 109259, Note_off_c, 1, 60, 0
1, 109260, Note_on_c, 1, 59, 127
1, 109319, Note_off_c, 1, 57, 0
1, 109319, Note_off_c, 1, 59, 0
1, 109320, Note_on_c, 1, 54, 127
1, 109320, Note_on_c, 1, 72, 127
1, 109320, Note_on_c, 1, 57, 127
1, 109379, Note_off_c, 1, 57, 0
1, 109380, Note_on_c, 1, 55, 127
1, 109439, Note_off_c, 1, 54, 0
1, 109439, Note_off_c, 1, 72, 0
1, 109439, Note_off_c, 1, 55, 0
1, 109440, Note_on_c, 1, 69, 127
1, 109440, Note_on_c, 1, 54, 127
1, 109499, Note_off_c, 1, 54, 0
1, 109500, Note_on_c, 1, 60, 127
1, 109559, Note_off_c, 1, 69, 0
1, 109559, Note_off_c, 1, 60, 0
1, 109560, Note_on_c, 1, 63, 127
1, 109560, Note_on_c, 1, 66, 127
1, 109560, Note_on_c, 1, 59, 127
1, 109619, Note_off_c, 1, 59, 0
1, 109620, Note_on_c, 1, 57, 127
1, 109679, Note_off_c, 1, 63, 0
1, 109679, Note_off_c, 1, 66, 0
1, 109679, Note_off_c, 1, 57, 0
1, 109680, Note_on_c, 1, 60, 127
1, 109680, Note_on_c, 1, 63, 127
1, 109739, Note_off_c, 1, 63, 0
1, 109740, Note_on_c, 1, 62, 127
1, 109799, Note_off_c, 1, 60, 0
1, 109799, Note_off_c, 1, 62, 0
1, 109800, Note_on_c, 1, 57, 127
1, 109800, Note_on_c, 1, 75, 127
1, 109800, Note_on_c, 1, 60, 127
1, 109859, Note_off_c, 1, 60, 0
1, 109860, Note_on_c, 1, 59, 127
1, 109919, Note_off_c, 1, 57, 0
1, 109919, Note_off_c, 1, 75, 0
1, 109919, Note_off_c, 1, 59, 0
1, 109920, Note_on_c, 1, 54, 127
1, 109920, Note_on_c, 1, 72, 127
1, 109920, Note_on_c, 1, 57, 127
1, 109979, Note_off_c, 1, 54, 0
1, 109979, Note_off_c, 1, 57, 0
1, 109980, Note_on_c, 1, 55, 127
1, 110039, Note_off_c, 1, 72, 0
1, 110039, Note_off_c, 1, 55, 0
1, 110040, Note_on_c, 1, 57, 127
1, 110040, Note_on_c, 1, 69, 127
1, 110040, Note_on_c, 1, 54, 127
1, 110099, Note_off_c, 1, 57, 0
1, 110099, Note_off_c, 1, 54, 0
1, 110100, Note_on_c, 1, 59, 127
1, 110100, Note_on_c, 1, 52, 127
1, 110159, Note_off_c, 1, 69, 0
1, 110159, Note_off_c, 1, 59, 0
1, 110159, Note_off_c, 1, 52, 0
1, 110160, Note_on_c, 1, 60, 127
1, 110160, Note_on_c, 1, 66, 127
1, 110160, Note_on_c, 1, 50, 127
1, 110219, Note_off_c, 1, 66, 0
1, 110219, Note_off_c, 1, 50, 0
1, 110220, Note_on_c, 1, 69, 127
1, 110220, Note_on_c, 1, 48, 127
1, 110279, Note_off_c, 1, 60, 0
1, 110279, Note_off_c, 1, 69, 0
1, 110279, Note_off_c, 1, 48, 0
1, 110280, Note_on_c, 1, 54, 127
1, 110280, Note_on_c, 1, 74, 127
1, 110280, Note_on_c, 1, 47, 127
1, 110339, Note_off_c, 1, 74, 0
1, 110339, Note_off_c, 1, 47, 0
1, 110340, Note_on_c, 1, 72, 127
1, 110340, Note_on_c, 1, 45, 127
1, 110399, Note_off_c, 1, 54, 0
1, 110399, Note_off_c, 1, 72, 0
1, 110399, Note_off_c, 1, 45, 0
1, 110400, Note_on_c, 1, 55, 127
1, 110400, Note_on_c, 1, 71, 127
1, 110400, Note_on_c, 1, 43, 127
1, 110459, Note_off_c, 1, 55, 0
1, 110460, Note_on_c, 1, 50, 127
1, 110519, Note_off_c, 1, 71, 0
1, 110519, Note_off_c, 1, 43, 0
1, 110519, Note_off_c, 1, 50, 0
1, 110520, Note_on_c, 1, 52, 127
1, 110520, Note_on_c, 1, 67, 127
1, 110520, Note_on_c, 1, 55, 127
1, 110579, Note_off_c, 1, 52, 0
1, 110579, Note_off_c, 1, 55, 0
1, 110580, Note_on_c, 1, 54, 127
1, 110580, Note_on_c, 1, 57, 127
1, 110639, Note_off_c, 1, 67, 0
1, 110639, Note_off_c, 1, 54, 0
1, 110639, Note_off_c, 1, 57, 0
1, 110640, Note_on_c, 1, 55, 127
1, 110640, Note_on_c, 1, 79, 127
1, 110640, Note_on_c, 1, 59, 127
1, 110699, Note_off_c, 1, 55, 0
1, 110700, Note_on_c, 1, 57, 127
1, 110759, Note_off_c, 1, 79, 0
1, 110759, Note_off_c, 1, 59, 0
1, 110759, Note_off_c, 1, 57, 0
1, 110760, Note_on_c, 1, 59, 127
1, 110760, Note_on_c, 1, 74, 127
1, 110760, Note_on_c, 1, 55, 127
1, 110819, Note_off_c, 1, 59, 0
1, 110820, Note_on_c, 1, 60, 127
1, 110879, Note_off_c, 1, 74, 0
1, 110879, Note_off_c, 1, 55, 0
1, 110879, Note_off_c, 1, 60, 0
1, 110880, Note_on_c, 1, 62, 127
1, 110880, Note_on_c, 1, 71, 127
1, 110939, Note_off_c, 1, 62, 0
1, 110940, Note_on_c, 1, 64, 127
1, 110999, Note_off_c, 1, 71, 0
1, 110999, Note_off_c, 1, 64, 0
1, 111000, Note_on_c, 1, 62, 127
1, 111000, Note_on_c, 1, 69, 127
1, 111000, Note_on_c, 1, 43, 127
1, 111059, Note_off_c, 1, 62, 0
1, 111059, Note_off_c, 1, 69, 0
1, 111059, Note_off_c, 1, 43, 0
1, 111060, Note_on_c, 1, 60, 127
1, 111060, Note_on_c, 1, 67, 127
1, 111060, Note_on_c, 1, 45, 127
1, 111119, Note_off_c, 1, 60, 0
1, 111119, Note_off_c, 1, 67, 0
1, 111119, Note_off_c, 1, 45, 0
1, 111120, Note_on_c, 1, 59, 127
1, 111120, Note_on_c, 1, 74, 127
1, 111120, Note_on_c, 1, 47, 127
1, 111179, Note_off_c, 1, 59, 0
1, 111179, Note_off_c, 1, 47, 0
1, 111180, Note_on_c, 1, 57, 127
1, 111180, Note_on_c, 1, 48, 127
1, 111239, Note_off_c, 1, 74, 0
1, 111239, Note_off_c, 1, 57, 0
1, 111239, Note_off_c, 1, 48, 0
1, 111240, Note_on_c, 1, 55, 127
1, 111240, Note_on_c, 1, 74, 127
1, 111240, Note_on_c, 1, 50, 127
1, 111299, Note_off_c, 1, 55, 0
1, 111299, Note_off_c, 1, 50, 0
1, 111300, Note_on_c, 1, 54, 127
1, 111300, Note_on_c, 1, 47, 127
1, 111359, Note_off_c, 1, 74, 0
1, 111359, Note_off_c, 1, 54, 0
1, 111359, Note_off_c, 1, 47, 0
1, 111360, Note_on_c, 1, 52, 127
1, 111360, Note_on_c, 1, 74, 127
1, 111360, Note_on_c, 1, 48, 127
1, 111479, Note_off_c, 1, 52, 0
1, 111479, Note_off_c, 1, 74, 0
1, 111479, Note_off_c, 1, 48, 0
1, 111480, Note_on_c, 1, 64, 127
1, 111480, Note_on_c, 1, 72, 127
1, 111480, Note_on_c, 1, 43, 127
1, 111539, Note_off_c, 1, 64, 0
1, 111539, Note_off_c, 1, 72, 0
1, 111540, Note_on_c, 1, 62, 127
1, 111540, Note_on_c, 1, 71, 127
1, 111599, Note_off_c, 1, 43, 0
1, 111599, Note_off_c, 1, 62, 0
1, 111599, Note_off_c, 1, 71, 0
1, 111600, Note_on_c, 1, 60, 127
1, 111600, Note_on_c, 1, 72, 127
1, 111600, Note_on_c, 1, 45, 127
1, 111659, Note_off_c, 1, 60, 0
1, 111659, Note_off_c, 1, 72, 0
1, 111660, Note_on_c, 1, 59, 127
1, 111660, Note_on_c, 1, 74, 127
1, 111719, Note_off_c, 1, 45, 0
1, 111719, Note_off_c, 1, 59, 0
1, 111719, Note_off_c, 1, 74, 0
1, 111720, Note_on_c, 1, 57, 127
1, 111720, Note_on_c, 1, 76, 127
1, 111720, Note_on_c, 1, 48, 127
1, 111779, Note_off_c, 1, 57, 0
1, 111780, Note_on_c, 1, 55, 127
1, 111839, Note_off_c, 1, 76, 0
1, 111839, Note_off_c, 1, 48, 0
1, 111839, Note_off_c, 1, 55, 0
1, 111840, Note_on_c, 1, 54, 127
1, 111840, Note_on_c, 1, 76, 127
1, 111840, Note_on_c, 1, 50, 127
1, 111899, Note_off_c, 1, 54, 0
1, 111900, Note_on_c, 1, 52, 127
1, 111959, Note_off_c, 1, 76, 0
1, 111959, Note_off_c, 1, 52, 0
1, 111960, Note_on_c, 1, 69, 127
1, 112079, Note_off_c, 1, 50, 0
1, 112079, Note_off_c, 1, 69, 0
1, 112080, Note_on_c, 1, 54, 127
1, 112080, Note_on_c, 1, 69, 127
1, 112139, Note_off_c, 1, 54, 0
1, 112140, Note_on_c, 1, 55, 127
1, 112199, Note_off_c, 1, 69, 0
1, 112199, Note_off_c, 1, 55, 0
1, 112200, Note_on_c, 1, 57, 127
1, 112200, Note_on_c, 1, 72, 127
1, 112200, Note_on_c, 1, 42, 127
1, 112259, Note_off_c, 1, 57, 0
1, 112260, Note_on_c, 1, 54, 127
1, 112319, Note_off_c, 1, 42, 0
1, 112319, Note_off_c, 1, 54, 0
1, 112320, Note_on_c, 1, 62, 127
1, 112320, Note_on_c, 1, 43, 127
1, 112379, Note_off_c, 1, 43, 0
1, 112380, Note_on_c, 1, 45, 127
1, 112439, Note_off_c, 1, 72, 0
1, 112439, Note_off_c, 1, 62, 0
1, 112439, Note_off_c, 1, 45, 0
1, 112440, Note_on_c, 1, 50, 127
1, 112440, Note_on_c, 1, 71, 127
1, 112440, Note_on_c, 1, 47, 127
1, 112499, Note_off_c, 1, 71, 0
1, 112499, Note_off_c, 1, 47, 0
1, 112500, Note_on_c, 1, 69, 127
1, 112500, Note_on_c, 1, 48, 127
1, 112559, Note_off_c, 1, 50, 0
1, 112559, Note_off_c, 1, 69, 0
1, 112559, Note_off_c, 1, 48, 0
1, 112560, Note_on_c, 1, 50, 127
1, 112560, Note_on_c, 1, 71, 127
1, 112619, Note_off_c, 1, 71, 0
1, 112620, Note_on_c, 1, 72, 127
1, 112620, Note_on_c, 1, 52, 127
1, 112679, Note_off_c, 1, 50, 0
1, 112679, Note_off_c, 1, 72, 0
1, 112679, Note_off_c, 1, 52, 0
1, 112680, Note_on_c, 1, 54, 127
1, 112680, Note_on_c, 1, 74, 127
1, 112680, Note_on_c, 1, 50, 127
1, 112739, Note_off_c, 1, 50, 0
1, 112740, Note_on_c, 1, 48, 127
1, 112799, Note_off_c, 1, 54, 0
1, 112799, Note_off_c, 1, 74, 0
1, 112799, Note_off_c, 1, 48, 0
1, 112800, Note_on_c, 1, 55, 127
1, 112800, Note_on_c, 1, 74, 127
1, 112800, Note_on_c, 1, 47, 127
1, 112859, Note_off_c, 1, 47, 0
1, 112860, Note_on_c, 1, 48, 127
1, 112919, Note_off_c, 1, 74, 0
1, 112919, Note_off_c, 1, 48, 0
1, 112920, Note_on_c, 1, 67, 127
1, 112980, Note_on_c, 1, 45, 127
1, 113039, Note_off_c, 1, 55, 0
1, 113039, Note_off_c, 1, 67, 0
1, 113039, Note_off_c, 1, 45, 0
1, 113040, Note_on_c, 1, 67, 127
1, 113040, Note_on_c, 1, 43, 127
1, 113099, Note_off_c, 1, 43, 0
1, 113100, Note_on_c, 1, 41, 127
1, 113159, Note_off_c, 1, 67, 0
1, 113159, Note_off_c, 1, 41, 0
1, 113160, Note_on_c, 1, 77, 127
1, 113160, Note_on_c, 1, 40, 127
1, 113219, Note_off_c, 1, 40, 0
1, 113220, Note_on_c, 1, 38, 127
1, 113279, Note_off_c, 1, 38, 0
1, 113280, Note_on_c, 1, 36, 127
1, 113339, Note_off_c, 1, 36, 0
1, 113340, Note_on_c, 1, 48, 127
1, 113399, Note_off_c, 1, 77, 0
1, 113399, Note_off_c, 1, 48, 0
1, 113400, Note_on_c, 1, 76, 127
1, 113400, Note_on_c, 1, 50, 127
1, 113459, Note_off_c, 1, 50, 0
1, 113460, Note_on_c, 1, 52, 127
1, 113519, Note_off_c, 1, 52, 0
1, 113520, Note_on_c, 1, 53, 127
1, 113579, Note_off_c, 1, 53, 0
1, 113639, Note_off_c, 1, 76, 0
1, 113640, Note_on_c, 1, 74, 127
1, 113640, Note_on_c, 1, 53, 127
1, 113699, Note_off_c, 1, 53, 0
1, 113700, Note_on_c, 1, 55, 127
1, 113759, Note_off_c, 1, 55, 0
1, 113760, Note_on_c, 1, 57, 127
1, 113879, Note_off_c, 1, 74, 0
1, 113879, Note_off_c, 1, 57, 0
1, 113880, Note_on_c, 1, 72, 127
1, 113880, Note_on_c, 1, 52, 127
1, 113939, Note_off_c, 1, 72, 0
1, 113940, Note_on_c, 1, 71, 127
1, 113999, Note_off_c, 1, 52, 0
1, 113999, Note_off_c, 1, 71, 0
1, 114000, Note_on_c, 1, 69, 127
1, 114000, Note_on_c, 1, 53, 127
1, 114059, Note_off_c, 1, 69, 0
1, 114060, Note_on_c, 1, 67, 127
1, 114119, Note_off_c, 1, 53, 0
1, 114119, Note_off_c, 1, 67, 0
1, 114120, Note_on_c, 1, 55, 127
1, 114120, Note_on_c, 1, 69, 127
1, 114179, Note_off_c, 1, 69, 0
1, 114180, Note_on_c, 1, 53, 127
1, 114180, Note_on_c, 1, 71, 127
1, 114239, Note_off_c, 1, 55, 0
1, 114239, Note_off_c, 1, 53, 0
1, 114239, Note_off_c, 1, 71, 0
1, 114240, Note_on_c, 1, 52, 127
1, 114240, Note_on_c, 1, 72, 127
1, 114240, Note_on_c, 1, 48, 127
1, 114299, Note_off_c, 1, 72, 0
1, 114300, Note_on_c, 1, 67, 127
1, 114359, Note_off_c, 1, 52, 0
1, 114359, Note_off_c, 1, 48, 0
1, 114359, Note_off_c, 1, 67, 0
1, 114360, Note_on_c, 1, 48, 127
1, 114360, Note_on_c, 1, 69, 127
1, 114360, Note_on_c, 1, 47, 127
1, 114419, Note_off_c, 1, 69, 0
1, 114419, Note_off_c, 1, 47, 0
1, 114420, Note_on_c, 1, 71, 127
1, 114420, Note_on_c, 1, 45, 127
1, 114479, Note_off_c, 1, 48, 0
1, 114479, Note_off_c, 1, 71, 0
1, 114479, Note_off_c, 1, 45, 0
1, 114480, Note_on_c, 1, 60, 127
1, 114480, Note_on_c, 1, 72, 127
1, 114480, Note_on_c, 1, 43, 127
1, 114539, Note_off_c, 1, 72, 0
1, 114539, Note_off_c, 1, 43, 0
1, 114540, Note_on_c, 1, 74, 127
1, 114540, Note_on_c, 1, 41, 127
1, 114599, Note_off_c, 1, 60, 0
1, 114599, Note_off_c, 1, 74, 0
1, 114599, Note_off_c, 1, 41, 0
1, 114600, Note_on_c, 1, 55, 127
1, 114600, Note_on_c, 1, 76, 127
1, 114600, Note_on_c, 1, 40, 127
1, 114659, Note_off_c, 1, 76, 0
1, 114659, Note_off_c, 1, 40, 0
1, 114660, Note_on_c, 1, 77, 127
1, 114660, Note_on_c, 1, 38, 127
1, 114719, Note_off_c, 1, 55, 0
1, 114719, Note_off_c, 1, 77, 0
1, 114719, Note_off_c, 1, 38, 0
1, 114720, Note_on_c, 1, 52, 127
1, 114720, Note_on_c, 1, 79, 127
1, 114720, Note_on_c, 1, 36, 127
1, 114779, Note_off_c, 1, 79, 0
1, 114780, Note_on_c, 1, 81, 127
1, 114839, Note_off_c, 1, 52, 0
1, 114839, Note_off_c, 1, 81, 0
1, 114840, Note_on_c, 1, 50, 127
1, 114899, Note_off_c, 1, 50, 0
1, 114900, Note_on_c, 1, 48, 127
1, 114900, Note_on_c, 1, 77, 127
1, 114959, Note_off_c, 1, 36, 0
1, 114959, Note_off_c, 1, 48, 0
1, 114959, Note_off_c, 1, 77, 0
1, 114960, Note_on_c, 1, 55, 127
1, 114960, Note_on_c, 1, 76, 127
1, 115019, Note_off_c, 1, 76, 0
1, 115020, Note_on_c, 1, 74, 127
1, 115079, Note_off_c, 1, 55, 0
1, 115079, Note_off_c, 1, 74, 0
1, 115080, Note_on_c, 1, 55, 127
1, 115080, Note_on_c, 1, 72, 127
1, 115080, Note_on_c, 1, 40, 127
1, 115139, Note_off_c, 1, 72, 0
1, 115140, Note_on_c, 1, 71, 127
1, 115199, Note_off_c, 1, 55, 0
1, 115199, Note_off_c, 1, 40, 0
1, 115199, Note_off_c, 1, 71, 0
1, 115200, Note_on_c, 1, 55, 127
1, 115200, Note_on_c, 1, 69, 127
1, 115200, Note_on_c, 1, 41, 127
1, 115259, Note_off_c, 1, 41, 0
1, 115260, Note_on_c, 1, 40, 127
1, 115319, Note_off_c, 1, 55, 0
1, 115319, Note_off_c, 1, 69, 0
1, 115319, Note_off_c, 1, 40, 0
1, 115320, Note_on_c, 1, 53, 127
1, 115320, Note_on_c, 1, 81, 127
1, 115320, Note_on_c, 1, 41, 127
1, 115379, Note_off_c, 1, 53, 0
1, 115379, Note_off_c, 1, 81, 0
1, 115379, Note_off_c, 1, 41, 0
1, 115380, Note_on_c, 1, 52, 127
1, 115380, Note_on_c, 1, 79, 127
1, 115380, Note_on_c, 1, 43, 127
1, 115439, Note_off_c, 1, 52, 0
1, 115439, Note_off_c, 1, 79, 0
1, 115439, Note_off_c, 1, 43, 0
1, 115440, Note_on_c, 1, 53, 127
1, 115440, Note_on_c, 1, 77, 127
1, 115440, Note_on_c, 1, 45, 127
1, 115499, Note_off_c, 1, 53, 0
1, 115499, Note_off_c, 1, 77, 0
1, 115500, Note_on_c, 1, 55, 127
1, 115500, Note_on_c, 1, 76, 127
1, 115559, Note_off_c, 1, 45, 0
1, 115559, Note_off_c, 1, 55, 0
1, 115559, Note_off_c, 1, 76, 0
1, 115560, Note_on_c, 1, 57, 127
1, 115560, Note_on_c, 1, 74, 127
1, 115560, Note_on_c, 1, 41, 127
1, 115619, Note_off_c, 1, 74, 0
1, 115620, Note_on_c, 1, 72, 127
1, 115679, Note_off_c, 1, 57, 0
1, 115679, Note_off_c, 1, 41, 0
1, 115679, Note_off_c, 1, 72, 0
1, 115680, Note_on_c, 1, 57, 127
1, 115680, Note_on_c, 1, 71, 127
1, 115680, Note_on_c, 1, 43, 127
1, 115739, Note_off_c, 1, 71, 0
1, 115740, Note_on_c, 1, 69, 127
1, 115799, Note_off_c, 1, 57, 0
1, 115799, Note_off_c, 1, 69, 0
1, 115800, Note_on_c, 1, 50, 127
1, 115800, Note_on_c, 1, 67, 127
1, 115859, Note_off_c, 1, 67, 0
1, 115919, Note_off_c, 1, 43, 0
1, 115919, Note_off_c, 1, 50, 0
1, 115920, Note_on_c, 1, 50, 127
1, 115920, Note_on_c, 1, 71, 127
1, 115979, Note_off_c, 1, 71, 0
1, 115980, Note_on_c, 1, 72, 127
1, 116039, Note_off_c, 1, 50, 0
1, 116039, Note_off_c, 1, 72, 0
1, 116040, Note_on_c, 1, 53, 127
1, 116040, Note_on_c, 1, 74, 127
1, 116040, Note_on_c, 1, 47, 127
1, 116099, Note_off_c, 1, 74, 0
1, 116100, Note_on_c, 1, 71, 127
1, 116159, Note_off_c, 1, 47, 0
1, 116159, Note_off_c, 1, 71, 0
1, 116160, Note_on_c, 1, 79, 127
1, 116160, Note_on_c, 1, 48, 127
1, 116219, Note_off_c, 1, 48, 0
1, 116220, Note_on_c, 1, 50, 127
1, 116279, Note_off_c, 1, 53, 0
1, 116279, Note_off_c, 1, 79, 0
1, 116279, Note_off_c, 1, 50, 0
1, 116280, Note_on_c, 1, 52, 127
1, 116280, Note_on_c, 1, 67, 127
1, 116339, Note_off_c, 1, 52, 0
1, 116340, Note_on_c, 1, 50, 127
1, 116340, Note_on_c, 1, 53, 127
1, 116399, Note_off_c, 1, 67, 0
1, 116399, Note_off_c, 1, 50, 0
1, 116399, Note_off_c, 1, 53, 0
1, 116400, Note_on_c, 1, 52, 127
1, 116400, Note_on_c, 1, 67, 127
1, 116400, Note_on_c, 1, 55, 127
1, 116459, Note_off_c, 1, 52, 0
1, 116459, Note_off_c, 1, 55, 0
1, 116460, Note_on_c, 1, 53, 127
1, 116460, Note_on_c, 1, 57, 127
1, 116519, Note_off_c, 1, 67, 0
1, 116519, Note_off_c, 1, 53, 0
1, 116519, Note_off_c, 1, 57, 0
1, 116520, Note_on_c, 1, 55, 127
1, 116520, Note_on_c, 1, 71, 127
1, 116580, Note_on_c, 1, 53, 127
1, 116639, Note_off_c, 1, 55, 0
1, 116639, Note_off_c, 1, 71, 0
1, 116639, Note_off_c, 1, 53, 0
1, 116640, Note_on_c, 1, 55, 127
1, 116640, Note_on_c, 1, 72, 127
1, 116640, Note_on_c, 1, 52, 127
1, 116699, Note_off_c, 1, 52, 0
1, 116700, Note_on_c, 1, 53, 127
1, 116759, Note_off_c, 1, 55, 0
1, 116759, Note_off_c, 1, 53, 0
1, 116760, Note_on_c, 1, 48, 127
1, 116820, Note_on_c, 1, 50, 127
1, 116879, Note_off_c, 1, 72, 0
1, 116879, Note_off_c, 1, 48, 0
1, 116879, Note_off_c, 1, 50, 0
1, 116880, Note_on_c, 1, 48, 127
1, 116940, Note_on_c, 1, 47, 127
1, 116999, Note_off_c, 1, 48, 0
1, 116999, Note_off_c, 1, 47, 0
1, 117000, Note_on_c, 1, 60, 127
1, 117000, Note_on_c, 1, 76, 127
1, 117000, Note_on_c, 1, 45, 127
1, 117059, Note_off_c, 1, 45, 0
1, 117060, Note_on_c, 1, 43, 127
1, 117119, Note_off_c, 1, 76, 0
1, 117119, Note_off_c, 1, 43, 0
1, 117120, Note_on_c, 1, 74, 127
1, 117120, Note_on_c, 1, 42, 127
1, 117179, Note_off_c, 1, 74, 0
1, 117239, Note_off_c, 1, 60, 0
1, 117239, Note_off_c, 1, 42, 0
1, 117240, Note_on_c, 1, 59, 127
1, 117240, Note_on_c, 1, 78, 127
1, 117240, Note_on_c, 1, 50, 127
1, 117299, Note_off_c, 1, 78, 0
1, 117300, Note_on_c, 1, 79, 127
1, 117359, Note_off_c, 1, 50, 0
1, 117359, Note_off_c, 1, 79, 0
1, 117360, Note_on_c, 1, 72, 127
1, 117360, Note_on_c, 1, 40, 127
1, 117419, Note_off_c, 1, 72, 0
1, 117420, Note_on_c, 1, 74, 127
1, 117479, Note_off_c, 1, 59, 0
1, 117479, Note_off_c, 1, 40, 0
1, 117479, Note_off_c, 1, 74, 0
1, 117480, Note_on_c, 1, 57, 127
1, 117480, Note_on_c, 1, 76, 127
1, 117480, Note_on_c, 1, 48, 127
1, 117539, Note_off_c, 1, 76, 0
1, 117540, Note_on_c, 1, 78, 127
1, 117599, Note_off_c, 1, 48, 0
1, 117599, Note_off_c, 1, 78, 0
1, 117600, Note_on_c, 1, 71, 127
1, 117600, Note_on_c, 1, 38, 127
1, 117659, Note_off_c, 1, 71, 0
1, 117660, Note_on_c, 1, 72, 127
1, 117719, Note_off_c, 1, 57, 0
1, 117719, Note_off_c, 1, 38, 0
1, 117719, Note_off_c, 1, 72, 0
1, 117720, Note_on_c, 1, 55, 127
1, 117720, Note_on_c, 1, 74, 127
1, 117720, Note_on_c, 1, 47, 127
1, 117779, Note_off_c, 1, 55, 0
1, 117779, Note_off_c, 1, 74, 0
1, 117780, Note_on_c, 1, 53, 127
1, 117780, Note_on_c, 1, 71, 127
1, 117839, Note_off_c, 1, 47, 0
1, 117839, Note_off_c, 1, 53, 0
1, 117839, Note_off_c, 1, 71, 0
1, 117840, Note_on_c, 1, 52, 127
1, 117840, Note_on_c, 1, 67, 127
1, 117840, Note_on_c, 1, 36, 127
1, 117899, Note_off_c, 1, 52, 0
1, 117899, Note_off_c, 1, 67, 0
1, 117900, Note_on_c, 1, 50, 127
1, 117900, Note_on_c, 1, 66, 127
1, 117959, Note_off_c, 1, 36, 0
1, 117959, Note_off_c, 1, 50, 0
1, 117959, Note_off_c, 1, 66, 0
1, 117960, Note_on_c, 1, 52, 127
1, 117960, Note_on_c, 1, 67, 127
1, 117960, Note_on_c, 1, 48, 127
1, 118019, Note_off_c, 1, 52, 0
1, 118019, Note_off_c, 1, 67, 0
1, 118020, Note_on_c, 1, 54, 127
1, 118020, Note_on_c, 1, 69, 127
1, 118079, Note_off_c, 1, 48, 0
1, 118079, Note_off_c, 1, 54, 0
1, 118079, Note_off_c, 1, 69, 0
1, 118080, Note_on_c, 1, 55, 127
1, 118080, Note_on_c, 1, 62, 127
1, 118080, Note_on_c, 1, 47, 127
1, 118139, Note_off_c, 1, 55, 0
1, 118140, Note_on_c, 1, 54, 127
1, 118199, Note_off_c, 1, 62, 0
1, 118199, Note_off_c, 1, 47, 0
1, 118199, Note_off_c, 1, 54, 0
1, 118200, Note_on_c, 1, 55, 127
1, 118200, Note_on_c, 1, 64, 127
1, 118200, Note_on_c, 1, 43, 127
1, 118259, Note_off_c, 1, 55, 0
1, 118259, Note_off_c, 1, 64, 0
1, 118260, Note_on_c, 1, 57, 127
1, 118260, Note_on_c, 1, 66, 127
1, 118319, Note_off_c, 1, 43, 0
1, 118319, Note_off_c, 1, 57, 0
1, 118319, Note_off_c, 1, 66, 0
1, 118320, Note_on_c, 1, 59, 127
1, 118320, Note_on_c, 1, 67, 127
1, 118320, Note_on_c, 1, 55, 127
1, 118379, Note_off_c, 1, 59, 0
1, 118379, Note_off_c, 1, 67, 0
1, 118380, Note_on_c, 1, 60, 127
1, 118380, Note_on_c, 1, 69, 127
1, 118439, Note_off_c, 1, 55, 0
1, 118439, Note_off_c, 1, 60, 0
1, 118439, Note_off_c, 1, 69, 0
1, 118440, Note_on_c, 1, 62, 127
1, 118440, Note_on_c, 1, 71, 127
1, 118440, Note_on_c, 1, 50, 127
1, 118499, Note_off_c, 1, 62, 0
1, 118499, Note_off_c, 1, 71, 0
1, 118500, Note_on_c, 1, 64, 127
1, 118500, Note_on_c, 1, 72, 127
1, 118559, Note_off_c, 1, 50, 0
1, 118559, Note_off_c, 1, 64, 0
1, 118559, Note_off_c, 1, 72, 0
1, 118560, Note_on_c, 1, 62, 127
1, 118560, Note_on_c, 1, 74, 127
1, 118560, Note_on_c, 1, 47, 127
1, 118619, Note_off_c, 1, 62, 0
1, 118619, Note_off_c, 1, 74, 0
1, 118620, Note_on_c, 1, 67, 127
1, 118620, Note_on_c, 1, 76, 127
1, 118679, Note_off_c, 1, 47, 0
1, 118679, Note_off_c, 1, 67, 0
1, 118679, Note_off_c, 1, 76, 0
1, 118680, Note_on_c, 1, 66, 127
1, 118680, Note_on_c, 1, 74, 127
1, 118680, Note_on_c, 1, 45, 127
1, 118739, Note_off_c, 1, 66, 0
1, 118739, Note_off_c, 1, 74, 0
1, 118739, Note_off_c, 1, 45, 0
1, 118740, Note_on_c, 1, 64, 127
1, 118740, Note_on_c, 1, 72, 127
1, 118740, Note_on_c, 1, 43, 127
1, 118799, Note_off_c, 1, 64, 0
1, 118799, Note_off_c, 1, 72, 0
1, 118799, Note_off_c, 1, 43, 0
1, 118800, Note_on_c, 1, 62, 127
1, 118800, Note_on_c, 1, 71, 127
1, 118800, Note_on_c, 1, 50, 127
1, 118859, Note_off_c, 1, 62, 0
1, 118859, Note_off_c, 1, 71, 0
1, 118860, Note_on_c, 1, 60, 127
1, 118860, Note_on_c, 1, 69, 127
1, 118919, Note_off_c, 1, 50, 0
1, 118919, Note_off_c, 1, 60, 0
1, 118919, Note_off_c, 1, 69, 0
1, 118920, Note_on_c, 1, 59, 127
1, 118920, Note_on_c, 1, 67, 127
1, 118920, Note_on_c, 1, 50, 127
1, 118979, Note_off_c, 1, 59, 0
1, 118979, Note_off_c, 1, 67, 0
1, 118980, Note_on_c, 1, 57, 127
1, 118980, Note_on_c, 1, 66, 127
1, 119039, Note_off_c, 1, 50, 0
1, 119039, Note_off_c, 1, 57, 0
1, 119039, Note_off_c, 1, 66, 0
1, 119040, Note_on_c, 1, 55, 127
1, 119040, Note_on_c, 1, 64, 127
1, 119040, Note_on_c, 1, 50, 127
1, 119099, Note_off_c, 1, 55, 0
1, 119100, Note_on_c, 1, 59, 127
1, 119159, Note_off_c, 1, 64, 0
1, 119159, Note_off_c, 1, 50, 0
1, 119159, Note_off_c, 1, 59, 0
1, 119160, Note_on_c, 1, 60, 127
1, 119160, Note_on_c, 1, 76, 127
1, 119160, Note_on_c, 1, 48, 127
1, 119219, Note_off_c, 1, 60, 0
1, 119219, Note_off_c, 1, 76, 0
1, 119219, Note_off_c, 1, 48, 0
1, 119220, Note_on_c, 1, 62, 127
1, 119220, Note_on_c, 1, 74, 127
1, 119220, Note_on_c, 1, 47, 127
1, 119279, Note_off_c, 1, 62, 0
1, 119279, Note_off_c, 1, 74, 0
1, 119279, Note_off_c, 1, 47, 0
1, 119280, Note_on_c, 1, 64, 127
1, 119280, Note_on_c, 1, 72, 127
1, 119280, Note_on_c, 1, 48, 127
1, 119339, Note_off_c, 1, 64, 0
1, 119339, Note_off_c, 1, 72, 0
1, 119339, Note_off_c, 1, 48, 0
1, 119340, Note_on_c, 1, 66, 127
1, 119340, Note_on_c, 1, 71, 127
1, 119340, Note_on_c, 1, 50, 127
1, 119399, Note_off_c, 1, 66, 0
1, 119399, Note_off_c, 1, 71, 0
1, 119399, Note_off_c, 1, 50, 0
1, 119400, Note_on_c, 1, 67, 127
1, 119400, Note_on_c, 1, 69, 127
1, 119400, Note_on_c, 1, 52, 127
1, 119459, Note_off_c, 1, 67, 0
1, 119459, Note_off_c, 1, 69, 0
1, 119460, Note_on_c, 1, 64, 127
1, 119519, Note_off_c, 1, 52, 0
1, 119519, Note_off_c, 1, 64, 0
1, 119520, Note_on_c, 1, 69, 127
1, 119520, Note_on_c, 1, 66, 127
1, 119520, Note_on_c, 1, 52, 127
1, 119579, Note_off_c, 1, 69, 0
1, 119579, Note_off_c, 1, 66, 0
1, 119580, Note_on_c, 1, 67, 127
1, 119580, Note_on_c, 1, 64, 127
1, 119639, Note_off_c, 1, 52, 0
1, 119639, Note_off_c, 1, 67, 0
1, 119639, Note_off_c, 1, 64, 0
1, 119640, Note_on_c, 1, 66, 127
1, 119640, Note_on_c, 1, 62, 127
1, 119640, Note_on_c, 1, 45, 127
1, 119699, Note_off_c, 1, 66, 0
1, 119699, Note_off_c, 1, 62, 0
1, 119700, Note_on_c, 1, 67, 127
1, 119700, Note_on_c, 1, 64, 127
1, 119759, Note_off_c, 1, 45, 0
1, 119759, Note_off_c, 1, 67, 0
1, 119759, Note_off_c, 1, 64, 0
1, 119760, Note_on_c, 1, 69, 127
1, 119760, Note_on_c, 1, 66, 127
1, 119760, Note_on_c, 1, 45, 127
1, 119819, Note_off_c, 1, 69, 0
1, 119819, Note_off_c, 1, 66, 0
1, 119820, Note_on_c, 1, 67, 127
1, 119879, Note_off_c, 1, 45, 0
1, 119879, Note_off_c, 1, 67, 0
1, 119880, Note_on_c, 1, 66, 127
1, 119880, Note_on_c, 1, 69, 127
1, 119880, Note_on_c, 1, 48, 127
1, 119939, Note_off_c, 1, 66, 0
1, 119939, Note_off_c, 1, 69, 0
1, 119940, Note_on_c, 1, 64, 127
1, 119999, Note_off_c, 1, 64, 0
1, 120000, Note_on_c, 1, 74, 127
1, 120119, Note_off_c, 1, 48, 0
1, 120119, Note_off_c, 1, 74, 0
1, 120120, Note_on_c, 1, 67, 127
1, 120120, Note_on_c, 1, 62, 127
1, 120120, Note_on_c, 1, 47, 127
1, 120179, Note_off_c, 1, 67, 0
1, 120179, Note_off_c, 1, 47, 0
1, 120180, Note_on_c, 1, 66, 127
1, 120180, Note_on_c, 1, 45, 127
1, 120239, Note_off_c, 1, 62, 0
1, 120239, Note_off_c, 1, 66, 0
1, 120239, Note_off_c, 1, 45, 0
1, 120240, Note_on_c, 1, 64, 127
1, 120240, Note_on_c, 1, 62, 127
1, 120240, Note_on_c, 1, 47, 127
1, 120299, Note_off_c, 1, 64, 0
1, 120299, Note_off_c, 1, 47, 0
1, 120300, Note_on_c, 1, 48, 127
1, 120359, Note_off_c, 1, 62, 0
1, 120359, Note_off_c, 1, 48, 0
1, 120360, Note_on_c, 1, 60, 127
1, 120360, Note_on_c, 1, 66, 127
1, 120360, Note_on_c, 1, 50, 127
1, 120419, Note_off_c, 1, 60, 0
1, 120420, Note_on_c, 1, 62, 127
1, 120479, Note_off_c, 1, 66, 0
1, 120479, Note_off_c, 1, 50, 0
1, 120479, Note_off_c, 1, 62, 0
1, 120480, Note_on_c, 1, 59, 127
1, 120480, Note_on_c, 1, 67, 127
1, 120480, Note_on_c, 1, 50, 127
1, 120539, Note_off_c, 1, 59, 0
1, 120540, Note_on_c, 1, 57, 127
1, 120599, Note_off_c, 1, 50, 0
1, 120599, Note_off_c, 1, 57, 0
1, 120600, Note_on_c, 1, 43, 127
1, 120660, Note_on_c, 1, 60, 127
1, 120719, Note_off_c, 1, 67, 0
1, 120719, Note_off_c, 1, 43, 0
1, 120719, Note_off_c, 1, 60, 0
1, 120720, Note_on_c, 1, 62, 127
1, 120720, Note_on_c, 1, 43, 127
1, 120779, Note_off_c, 1, 62, 0
1, 120780, Note_on_c, 1, 64, 127
1, 120839, Note_off_c, 1, 43, 0
1, 120839, Note_off_c, 1, 64, 0
1, 120840, Note_on_c, 1, 66, 127
1, 120840, Note_on_c, 1, 71, 127
1, 120840, Note_on_c, 1, 55, 127
1, 120899, Note_off_c, 1, 66, 0
1, 120900, Note_on_c, 1, 67, 127
1, 120959, Note_off_c, 1, 71, 0
1, 120959, Note_off_c, 1, 67, 0
1, 120960, Note_on_c, 1, 61, 127
1, 120960, Note_on_c, 1, 69, 127
1, 121019, Note_off_c, 1, 69, 0
1, 121079, Note_off_c, 1, 55, 0
1, 121079, Note_off_c, 1, 61, 0
1, 121080, Note_on_c, 1, 69, 127
1, 121080, Note_on_c, 1, 73, 127
1, 121080, Note_on_c, 1, 54, 127
1, 121139, Note_off_c, 1, 73, 0
1, 121140, Note_on_c, 1, 74, 127
1, 121199, Note_off_c, 1, 69, 0
1, 121199, Note_off_c, 1, 74, 0
1, 121200, Note_on_c, 1, 59, 127
1, 121200, Note_on_c, 1, 67, 127
1, 121259, Note_off_c, 1, 67, 0
1, 121319, Note_off_c, 1, 54, 0
1, 121319, Note_off_c, 1, 59, 0
1, 121320, Note_on_c, 1, 67, 127
1, 121320, Note_on_c, 1, 71, 127
1, 121320, Note_on_c, 1, 52, 127
1, 121379, Note_off_c, 1, 71, 0
1, 121380, Note_on_c, 1, 73, 127
1, 121439, Note_off_c, 1, 67, 0
1, 121439, Note_off_c, 1, 73, 0
1, 121440, Note_on_c, 1, 57, 127
1, 121440, Note_on_c, 1, 66, 127
1, 121499, Note_off_c, 1, 57, 0
1, 121500, Note_on_c, 1, 60, 127
1, 121559, Note_off_c, 1, 52, 0
1, 121559, Note_off_c, 1, 66, 0
1, 121559, Note_off_c, 1, 60, 0
1, 121560, Note_on_c, 1, 59, 127
1, 121560, Note_on_c, 1, 78, 127
1, 121560, Note_on_c, 1, 50, 127
1, 121619, Note_off_c, 1, 59, 0
1, 121619, Note_off_c, 1, 50, 0
1, 121620, Note_on_c, 1, 57, 127
1, 121620, Note_on_c, 1, 49, 127
1, 121679, Note_off_c, 1, 57, 0
1, 121679, Note_off_c, 1, 49, 0
1, 121680, Note_on_c, 1, 55, 127
1, 121680, Note_on_c, 1, 47, 127
1, 121739, Note_off_c, 1, 47, 0
1, 121740, Note_on_c, 1, 45, 127
1, 121799, Note_off_c, 1, 78, 0
1, 121799, Note_off_c, 1, 55, 0
1, 121799, Note_off_c, 1, 45, 0
1, 121800, Note_on_c, 1, 67, 127
1, 121800, Note_on_c, 1, 76, 127
1, 121800, Note_on_c, 1, 47, 127
1, 121859, Note_off_c, 1, 47, 0
1, 121860, Note_on_c, 1, 49, 127
1, 121919, Note_off_c, 1, 67, 0
1, 121919, Note_off_c, 1, 49, 0
1, 121920, Note_on_c, 1, 50, 127
1, 121979, Note_off_c, 1, 50, 0
1, 121980, Note_on_c, 1, 66, 127
1, 121980, Note_on_c, 1, 52, 127
1, 122039, Note_off_c, 1, 76, 0
1, 122039, Note_off_c, 1, 52, 0
1, 122040, Note_on_c, 1, 74, 127
1, 122040, Note_on_c, 1, 54, 127
1, 122099, Note_off_c, 1, 66, 0
1, 122099, Note_off_c, 1, 74, 0
1, 122099, Note_off_c, 1, 54, 0
1, 122100, Note_on_c, 1, 64, 127
1, 122100, Note_on_c, 1, 76, 127
1, 122100, Note_on_c, 1, 55, 127
1, 122159, Note_off_c, 1, 64, 0
1, 122159, Note_off_c, 1, 76, 0
1, 122159, Note_off_c, 1, 55, 0
1, 122160, Note_on_c, 1, 64, 127
1, 122160, Note_on_c, 1, 73, 127
1, 122160, Note_on_c, 1, 57, 127
1, 122189, Note_off_c, 1, 73, 0
1, 122190, Note_on_c, 1, 74, 127
1, 122219, Note_off_c, 1, 74, 0
1, 122279, Note_off_c, 1, 57, 0
1, 122280, Note_on_c, 1, 45, 127
1, 122339, Note_off_c, 1, 64, 0
1, 122340, Note_on_c, 1, 62, 127
1, 122399, Note_off_c, 1, 45, 0
1, 122399, Note_off_c, 1, 62, 0
1, 122400, Note_on_c, 1, 62, 127
1, 122400, Note_on_c, 1, 74, 127
1, 122400, Note_on_c, 1, 50, 127
1, 122459, Note_off_c, 1, 74, 0
1, 122460, Note_on_c, 1, 78, 127
1, 122519, Note_off_c, 1, 62, 0
1, 122519, Note_off_c, 1, 78, 0
1, 122520, Note_on_c, 1, 57, 127
1, 122520, Note_on_c, 1, 76, 127
1, 122579, Note_off_c, 1, 76, 0
1, 122639, Note_off_c, 1, 50, 0
1, 122639, Note_off_c, 1, 57, 0
1, 122640, Note_on_c, 1, 62, 127
1, 122640, Note_on_c, 1, 81, 127
1, 122699, Note_off_c, 1, 81, 0
1, 122700, Note_on_c, 1, 78, 127
1, 122759, Note_off_c, 1, 62, 0
1, 122759, Note_off_c, 1, 78, 0
1, 122760, Note_on_c, 1, 66, 127
1, 122760, Note_on_c, 1, 76, 127
1, 122819, Note_off_c, 1, 76, 0
1, 122820, Note_on_c, 1, 74, 127
1, 122879, Note_off_c, 1, 66, 0
1, 122879, Note_off_c, 1, 74, 0
1, 122880, Note_on_c, 1, 69, 127
1, 122880, Note_on_c, 1, 72, 127
1, 122880, Note_on_c, 1, 54, 127
1, 122939, Note_off_c, 1, 72, 0
1, 122940, Note_on_c, 1, 75, 127
1, 122999, Note_off_c, 1, 69, 0
1, 122999, Note_off_c, 1, 75, 0
1, 123000, Note_on_c, 1, 66, 127
1, 123000, Note_on_c, 1, 74, 127
1, 123059, Note_off_c, 1, 74, 0
1, 123119, Note_off_c, 1, 54, 0
1, 123119, Note_off_c, 1, 66, 0
1, 123120, Note_on_c, 1, 62, 127
1, 123120, Note_on_c, 1, 81, 127
1, 123179, Note_off_c, 1, 81, 0
1, 123180, Note_on_c, 1, 78, 127
1, 123239, Note_off_c, 1, 62, 0
1, 123239, Note_off_c, 1, 78, 0
1, 123240, Note_on_c, 1, 57, 127
1, 123240, Note_on_c, 1, 76, 127
1, 123299, Note_off_c, 1, 76, 0
1, 123300, Note_on_c, 1, 74, 127
1, 123359, Note_off_c, 1, 57, 0
1, 123359, Note_off_c, 1, 74, 0
1, 123360, Note_on_c, 1, 54, 127
1, 123360, Note_on_c, 1, 84, 127
1, 123360, Note_on_c, 1, 57, 127
1, 123419, Note_off_c, 1, 84, 0
1, 123420, Note_on_c, 1, 83, 127
1, 123479, Note_off_c, 1, 54, 0
1, 123479, Note_off_c, 1, 83, 0
1, 123480, Note_on_c, 1, 81, 127
1, 123539, Note_off_c, 1, 81, 0
1, 123540, Note_on_c, 1, 79, 127
1, 123599, Note_off_c, 1, 57, 0
1, 123599, Note_off_c, 1, 79, 0
1, 123600, Note_on_c, 1, 50, 127
1, 123600, Note_on_c, 1, 78, 127
1, 123659, Note_off_c, 1, 50, 0
1, 123659, Note_off_c, 1, 78, 0
1, 123660, Note_on_c, 1, 52, 127
1, 123660, Note_on_c, 1, 76, 127
1, 123719, Note_off_c, 1, 52, 0
1, 123719, Note_off_c, 1, 76, 0
1, 123720, Note_on_c, 1, 54, 127
1, 123720, Note_on_c, 1, 74, 127
1, 123779, Note_off_c, 1, 54, 0
1, 123779, Note_off_c, 1, 74, 0
1, 123780, Note_on_c, 1, 55, 127
1, 123780, Note_on_c, 1, 76, 127
1, 123839, Note_off_c, 1, 55, 0
1, 123839, Note_off_c, 1, 76, 0
1, 123840, Note_on_c, 1, 57, 127
1, 123840, Note_on_c, 1, 78, 127
1, 123899, Note_off_c, 1, 57, 0
1, 123899, Note_off_c, 1, 78, 0
1, 123900, Note_on_c, 1, 59, 127
1, 123900, Note_on_c, 1, 79, 127
1, 123959, Note_off_c, 1, 59, 0
1, 123959, Note_off_c, 1, 79, 0
1, 123960, Note_on_c, 1, 60, 127
1, 123960, Note_on_c, 1, 81, 127
1, 123960, Note_on_c, 1, 62, 127
1, 124019, Note_off_c, 1, 60, 0
1, 124019, Note_off_c, 1, 81, 0
1, 124020, Note_on_c, 1, 59, 127
1, 124020, Note_on_c, 1, 83, 127
1, 124079, Note_off_c, 1, 62, 0
1, 124079, Note_off_c, 1, 59, 0
1, 124079, Note_off_c, 1, 83, 0
1, 124080, Note_on_c, 1, 57, 127
1, 124080, Note_on_c, 1, 84, 127
1, 124080, Note_on_c, 1, 54, 127
1, 124139, Note_off_c, 1, 57, 0
1, 124139, Note_off_c, 1, 84, 0
1, 124140, Note_on_c, 1, 55, 127
1, 124140, Note_on_c, 1, 83, 127
1, 124199, Note_off_c, 1, 54, 0
1, 124199, Note_off_c, 1, 55, 0
1, 124199, Note_off_c, 1, 83, 0
1, 124200, Note_on_c, 1, 57, 127
1, 124200, Note_on_c, 1, 84, 127
1, 124200, Note_on_c, 1, 50, 127
1, 124259, Note_off_c, 1, 57, 0
1, 124259, Note_off_c, 1, 84, 0
1, 124260, Note_on_c, 1, 54, 127
1, 124260, Note_on_c, 1, 81, 127
1, 124319, Note_off_c, 1, 50, 0
1, 124319, Note_off_c, 1, 54, 0
1, 124319, Note_off_c, 1, 81, 0
1, 124320, Note_on_c, 1, 55, 127
1, 124320, Note_on_c, 1, 83, 127
1, 124380, Note_on_c, 1, 59, 127
1, 124439, Note_off_c, 1, 83, 0
1, 124439, Note_off_c, 1, 59, 0
1, 124440, Note_on_c, 1, 57, 127
1, 124440, Note_on_c, 1, 62, 127
1, 124499, Note_off_c, 1, 57, 0
1, 124559, Note_off_c, 1, 55, 0
1, 124559, Note_off_c, 1, 62, 0
1, 124560, Note_on_c, 1, 62, 127
1, 124560, Note_on_c, 1, 67, 127
1, 124619, Note_off_c, 1, 62, 0
1, 124620, Note_on_c, 1, 59, 127
1, 124679, Note_off_c, 1, 67, 0
1, 124679, Note_off_c, 1, 59, 0
1, 124680, Note_on_c, 1, 57, 127
1, 124680, Note_on_c, 1, 71, 127
1, 124739, Note_off_c, 1, 57, 0
1, 124740, Note_on_c, 1, 55, 127
1, 124799, Note_off_c, 1, 71, 0
1, 124799, Note_off_c, 1, 55, 0
1, 124800, Note_on_c, 1, 53, 127
1, 124800, Note_on_c, 1, 74, 127
1, 124800, Note_on_c, 1, 43, 127
1, 124859, Note_off_c, 1, 53, 0
1, 124860, Note_on_c, 1, 57, 127
1, 124919, Note_off_c, 1, 74, 0
1, 124919, Note_off_c, 1, 57, 0
1, 124920, Note_on_c, 1, 55, 127
1, 124920, Note_on_c, 1, 67, 127
1, 124979, Note_off_c, 1, 55, 0
1, 125039, Note_off_c, 1, 43, 0
1, 125039, Note_off_c, 1, 67, 0
1, 125040, Note_on_c, 1, 62, 127
1, 125040, Note_on_c, 1, 71, 127
1, 125099, Note_off_c, 1, 62, 0
1, 125100, Note_on_c, 1, 57, 127
1, 125159, Note_off_c, 1, 71, 0
1, 125159, Note_off_c, 1, 57, 0
1, 125160, Note_on_c, 1, 55, 127
1, 125160, Note_on_c, 1, 74, 127
1, 125219, Note_off_c, 1, 55, 0
1, 125220, Note_on_c, 1, 53, 127
1, 125279, Note_off_c, 1, 53, 0
1, 125280, Note_on_c, 1, 52, 127
1, 125280, Note_on_c, 1, 44, 127
1, 125339, Note_off_c, 1, 52, 0
1, 125340, Note_on_c, 1, 56, 127
1, 125399, Note_off_c, 1, 74, 0
1, 125399, Note_off_c, 1, 56, 0
1, 125400, Note_on_c, 1, 54, 127
1, 125400, Note_on_c, 1, 68, 127
1, 125459, Note_off_c, 1, 54, 0
1, 125519, Note_off_c, 1, 44, 0
1, 125519, Note_off_c, 1, 68, 0
1, 125520, Note_on_c, 1, 62, 127
1, 125520, Note_on_c, 1, 64, 127
1, 125579, Note_off_c, 1, 62, 0
1, 125580, Note_on_c, 1, 60, 127
1, 125639, Note_off_c, 1, 64, 0
1, 125639, Note_off_c, 1, 60, 0
1, 125640, Note_on_c, 1, 59, 127
1, 125640, Note_on_c, 1, 68, 127
1, 125699, Note_off_c, 1, 59, 0
1, 125700, Note_on_c, 1, 57, 127
1, 125759, Note_off_c, 1, 68, 0
1, 125759, Note_off_c, 1, 57, 0
1, 125760, Note_on_c, 1, 56, 127
1, 125760, Note_on_c, 1, 71, 127
1, 125819, Note_off_c, 1, 56, 0
1, 125820, Note_on_c, 1, 57, 127
1, 125879, Note_off_c, 1, 71, 0
1, 125879, Note_off_c, 1, 57, 0
1, 125880, Note_on_c, 1, 59, 127
1, 125880, Note_on_c, 1, 74, 127
1, 125880, Note_on_c, 1, 52, 127
1, 125939, Note_off_c, 1, 59, 0
1, 125940, Note_on_c, 1, 60, 127
1, 125999, Note_off_c, 1, 74, 0
1, 125999, Note_off_c, 1, 52, 0
1, 125999, Note_off_c, 1, 60, 0
1, 126000, Note_on_c, 1, 62, 127
1, 126000, Note_on_c, 1, 71, 127
1, 126000, Note_on_c, 1, 44, 127
1, 126059, Note_off_c, 1, 62, 0
1, 126060, Note_on_c, 1, 60, 127
1, 126119, Note_off_c, 1, 71, 0
1, 126119, Note_off_c, 1, 44, 0
1, 126119, Note_off_c, 1, 60, 0
1, 126120, Note_on_c, 1, 62, 127
1, 126120, Note_on_c, 1, 68, 127
1, 126120, Note_on_c, 1, 40, 127
1, 126179, Note_off_c, 1, 62, 0
1, 126180, Note_on_c, 1, 59, 127
1, 126239, Note_off_c, 1, 68, 0
1, 126239, Note_off_c, 1, 40, 0
1, 126239, Note_off_c, 1, 59, 0
1, 126240, Note_on_c, 1, 60, 127
1, 126240, Note_on_c, 1, 76, 127
1, 126240, Note_on_c, 1, 45, 127
1, 126299, Note_off_c, 1, 45, 0
1, 126300, Note_on_c, 1, 52, 127
1, 126359, Note_off_c, 1, 60, 0
1, 126359, Note_off_c, 1, 52, 0
1, 126360, Note_on_c, 1, 72, 127
1, 126360, Note_on_c, 1, 57, 127
1, 126419, Note_off_c, 1, 57, 0
1, 126420, Note_on_c, 1, 55, 127
1, 126479, Note_off_c, 1, 76, 0
1, 126479, Note_off_c, 1, 55, 0
1, 126480, Note_on_c, 1, 74, 127
1, 126480, Note_on_c, 1, 54, 127
1, 126539, Note_off_c, 1, 54, 0
1, 126540, Note_on_c, 1, 50, 127
1, 126599, Note_off_c, 1, 72, 0
1, 126599, Note_off_c, 1, 50, 0
1, 126600, Note_on_c, 1, 71, 127
1, 126719, Note_off_c, 1, 74, 0
1, 126839, Note_off_c, 1, 71, 0
1, 126840, Note_on_c, 1, 69, 127
1, 126899, Note_off_c, 1, 69, 0
1, 126900, Note_on_c, 1, 67, 127
1, 126900, Note_on_c, 1, 48, 127
1, 126959, Note_off_c, 1, 67, 0
1, 126959, Note_off_c, 1, 48, 0
1, 126960, Note_on_c, 1, 66, 127
1, 127079, Note_off_c, 1, 66, 0
1, 127080, Note_on_c, 1, 62, 127
1, 127080, Note_on_c, 1, 71, 127
1, 127080, Note_on_c, 1, 54, 127
1, 127139, Note_off_c, 1, 71, 0
1, 127139, Note_off_c, 1, 54, 0
1, 127140, Note_on_c, 1, 69, 127
1, 127140, Note_on_c, 1, 50, 127
1, 127199, Note_off_c, 1, 62, 0
1, 127199, Note_off_c, 1, 69, 0
1, 127199, Note_off_c, 1, 50, 0
1, 127200, Note_on_c, 1, 71, 127
1, 127200, Note_on_c, 1, 67, 127
1, 127200, Note_on_c, 1, 55, 127
1, 127259, Note_off_c, 1, 55, 0
1, 127260, Note_on_c, 1, 57, 127
1, 127319, Note_off_c, 1, 67, 0
1, 127319, Note_off_c, 1, 57, 0
1, 127320, Note_on_c, 1, 79, 127
1, 127320, Note_on_c, 1, 59, 127
1, 127379, Note_off_c, 1, 59, 0
1, 127380, Note_on_c, 1, 60, 127
1, 127439, Note_off_c, 1, 71, 0
1, 127439, Note_off_c, 1, 60, 0
1, 127440, Note_on_c, 1, 69, 127
1, 127440, Note_on_c, 1, 62, 127
1, 127499, Note_off_c, 1, 62, 0
1, 127559, Note_off_c, 1, 79, 0
1, 127560, Note_on_c, 1, 78, 127
1, 127620, Note_on_c, 1, 61, 127
1, 127679, Note_off_c, 1, 69, 0
1, 127679, Note_off_c, 1, 61, 0
1, 127799, Note_off_c, 1, 78, 0
1, 127800, Note_on_c, 1, 76, 127
1, 127859, Note_off_c, 1, 76, 0
1, 127860, Note_on_c, 1, 74, 127
1, 127919, Note_off_c, 1, 74, 0
1, 127920, Note_on_c, 1, 73, 127
1, 128039, Note_off_c, 1, 73, 0
1, 128040, Note_on_c, 1, 66, 127
1, 128040, Note_on_c, 1, 69, 127
1, 128040, Note_on_c, 1, 61, 127
1, 128099, Note_off_c, 1, 66, 0
1, 128099, Note_off_c, 1, 61, 0
1, 128100, Note_on_c, 1, 64, 127
1, 128100, Note_on_c, 1, 57, 127
1, 128159, Note_off_c, 1, 69, 0
1, 128159, Note_off_c, 1, 64, 0
1, 128159, Note_off_c, 1, 57, 0
1, 128160, Note_on_c, 1, 62, 127
1, 128160, Note_on_c, 1, 78, 127
1, 128160, Note_on_c, 1, 50, 127
1, 128219, Note_off_c, 1, 50, 0
1, 128220, Note_on_c, 1, 52, 127
1, 128279, Note_off_c, 1, 62, 0
1, 128279, Note_off_c, 1, 52, 0
1, 128280, Note_on_c, 1, 74, 127
1, 128280, Note_on_c, 1, 54, 127
1, 128339, Note_off_c, 1, 54, 0
1, 128340, Note_on_c, 1, 55, 127
1, 128399, Note_off_c, 1, 78, 0
1, 128399, Note_off_c, 1, 55, 0
1, 128400, Note_on_c, 1, 76, 127
1, 128400, Note_on_c, 1, 57, 127
1, 128459, Note_off_c, 1, 57, 0
1, 128519, Note_off_c, 1, 74, 0
1, 128520, Note_on_c, 1, 72, 127
1, 128639, Note_off_c, 1, 76, 0
1, 128640, Note_on_c, 1, 53, 127
1, 128699, Note_off_c, 1, 53, 0
1, 128759, Note_off_c, 1, 72, 0
1, 128760, Note_on_c, 1, 71, 127
1, 128819, Note_off_c, 1, 71, 0
1, 128820, Note_on_c, 1, 69, 127
1, 128879, Note_off_c, 1, 69, 0
1, 128880, Note_on_c, 1, 68, 127
1, 128999, Note_off_c, 1, 68, 0
1, 129000, Note_on_c, 1, 64, 127
1, 129000, Note_on_c, 1, 72, 127
1, 129000, Note_on_c, 1, 56, 127
1, 129059, Note_off_c, 1, 72, 0
1, 129059, Note_off_c, 1, 56, 0
1, 129060, Note_on_c, 1, 71, 127
1, 129060, Note_on_c, 1, 52, 127
1, 129119, Note_off_c, 1, 64, 0
1, 129119, Note_off_c, 1, 71, 0
1, 129119, Note_off_c, 1, 52, 0
1, 129120, Note_on_c, 1, 72, 127
1, 129120, Note_on_c, 1, 69, 127
1, 129120, Note_on_c, 1, 57, 127
1, 129179, Note_off_c, 1, 57, 0
1, 129180, Note_on_c, 1, 59, 127
1, 129239, Note_off_c, 1, 69, 0
1, 129239, Note_off_c, 1, 59, 0
1, 129240, Note_on_c, 1, 81, 127
1, 129240, Note_on_c, 1, 60, 127
1, 129299, Note_off_c, 1, 60, 0
1, 129300, Note_on_c, 1, 62, 127
1, 129359, Note_off_c, 1, 72, 0
1, 129359, Note_off_c, 1, 62, 0
1, 129360, Note_on_c, 1, 71, 127
1, 129360, Note_on_c, 1, 64, 127
1, 129419, Note_off_c, 1, 64, 0
1, 129479, Note_off_c, 1, 81, 0
1, 129480, Note_on_c, 1, 79, 127
1, 129599, Note_off_c, 1, 71, 0
1, 129719, Note_off_c, 1, 79, 0
1, 129720, Note_on_c, 1, 78, 127
1, 129779, Note_off_c, 1, 78, 0
1, 129780, Note_on_c, 1, 76, 127
1, 129839, Note_off_c, 1, 76, 0
1, 129840, Note_on_c, 1, 75, 127
1, 129900, Note_on_c, 1, 61, 127
1, 129959, Note_off_c, 1, 75, 0
1, 129959, Note_off_c, 1, 61, 0
1, 129960, Note_on_c, 1, 67, 127
1, 129960, Note_on_c, 1, 71, 127
1, 129960, Note_on_c, 1, 63, 127
1, 130019, Note_off_c, 1, 67, 0
1, 130019, Note_off_c, 1, 63, 0
1, 130020, Note_on_c, 1, 66, 127
1, 130020, Note_on_c, 1, 59, 127
1, 130079, Note_off_c, 1, 71, 0
1, 130079, Note_off_c, 1, 66, 0
1, 130079, Note_off_c, 1, 59, 0
1, 130080, Note_on_c, 1, 64, 127
1, 130080, Note_on_c, 1, 79, 127
1, 130080, Note_on_c, 1, 52, 127
1, 130139, Note_off_c, 1, 64, 0
1, 130139, Note_off_c, 1, 52, 0
1, 130140, Note_on_c, 1, 63, 127
1, 130140, Note_on_c, 1, 54, 127
1, 130199, Note_off_c, 1, 63, 0
1, 130199, Note_off_c, 1, 54, 0
1, 130200, Note_on_c, 1, 55, 127
1, 130259, Note_off_c, 1, 55, 0
1, 130260, Note_on_c, 1, 57, 127
1, 130319, Note_off_c, 1, 79, 0
1, 130319, Note_off_c, 1, 57, 0
1, 130320, Note_on_c, 1, 78, 127
1, 130320, Note_on_c, 1, 59, 127
1, 130379, Note_off_c, 1, 59, 0
1, 130440, Note_on_c, 1, 62, 127
1, 130559, Note_off_c, 1, 78, 0
1, 130560, Note_on_c, 1, 76, 127
1, 130560, Note_on_c, 1, 56, 127
1, 130619, Note_off_c, 1, 56, 0
1, 130679, Note_off_c, 1, 62, 0
1, 130680, Note_on_c, 1, 60, 127
1, 130799, Note_off_c, 1, 76, 0
1, 130800, Note_on_c, 1, 74, 127
1, 130860, Note_on_c, 1, 50, 127
1, 130919, Note_off_c, 1, 60, 0
1, 130919, Note_off_c, 1, 50, 0
1, 131159, Note_off_c, 1, 74, 0
1, 131160, Note_on_c, 1, 52, 127
1, 131160, Note_on_c, 1, 72, 127
1, 131160, Note_on_c, 1, 50, 127
1, 131219, Note_off_c, 1, 52, 0
1, 131219, Note_off_c, 1, 72, 0
1, 131220, Note_on_c, 1, 54, 127
1, 131220, Note_on_c, 1, 71, 127
1, 131279, Note_off_c, 1, 50, 0
1, 131279, Note_off_c, 1, 54, 0
1, 131279, Note_off_c, 1, 71, 0
1, 131280, Note_on_c, 1, 55, 127
1, 131280, Note_on_c, 1, 72, 127
1, 131280, Note_on_c, 1, 52, 127
1, 131339, Note_off_c, 1, 55, 0
1, 131340, Note_on_c, 1, 59, 127
1, 131399, Note_off_c, 1, 52, 0
1, 131399, Note_off_c, 1, 59, 0
1, 131400, Note_on_c, 1, 57, 127
1, 131400, Note_on_c, 1, 48, 127
1, 131459, Note_off_c, 1, 57, 0
1, 131519, Note_off_c, 1, 48, 0
1, 131520, Note_on_c, 1, 54, 127
1, 131520, Note_on_c, 1, 50, 127
1, 131579, Note_off_c, 1, 54, 0
1, 131580, Note_off_c, 1, 72, 0
1, 131580, Note_on_c, 1, 71, 127
1, 131639, Note_off_c, 1, 50, 0
1, 131639, Note_off_c, 1, 71, 0
1, 131640, Note_on_c, 1, 57, 127
1, 131640, Note_on_c, 1, 69, 127
1, 131640, Note_on_c, 1, 48, 127
1, 131699, Note_off_c, 1, 57, 0
1, 131699, Note_off_c, 1, 69, 0
1, 131700, Note_on_c, 1, 54, 127
1, 131700, Note_on_c, 1, 71, 127
1, 131759, Note_off_c, 1, 48, 0
1, 131759, Note_off_c, 1, 54, 0
1, 131759, Note_off_c, 1, 71, 0
1, 131760, Note_on_c, 1, 50, 127
1, 131760, Note_on_c, 1, 72, 127
1, 131760, Note_on_c, 1, 47, 127
1, 131819, Note_off_c, 1, 72, 0
1, 131820, Note_on_c, 1, 76, 127
1, 131879, Note_off_c, 1, 50, 0
1, 131879, Note_off_c, 1, 47, 0
1, 131879, Note_off_c, 1, 76, 0
1, 131880, Note_on_c, 1, 62, 127
1, 131880, Note_on_c, 1, 74, 127
1, 131880, Note_on_c, 1, 45, 127
1, 131939, Note_off_c, 1, 74, 0
1, 131940, Note_on_c, 1, 72, 127
1, 131999, Note_off_c, 1, 62, 0
1, 131999, Note_off_c, 1, 45, 0
1, 131999, Note_off_c, 1, 72, 0
1, 132000, Note_on_c, 1, 62, 127
1, 132000, Note_on_c, 1, 71, 127
1, 132000, Note_on_c, 1, 43, 127
1, 132059, Note_off_c, 1, 71, 0
1, 132060, Note_on_c, 1, 72, 127
1, 132119, Note_off_c, 1, 43, 0
1, 132119, Note_off_c, 1, 72, 0
1, 132120, Note_on_c, 1, 74, 127
1, 132120, Note_on_c, 1, 47, 127
1, 132179, Note_off_c, 1, 74, 0
1, 132180, Note_on_c, 1, 76, 127
1, 132239, Note_off_c, 1, 47, 0
1, 132239, Note_off_c, 1, 76, 0
1, 132240, Note_on_c, 1, 67, 127
1, 132240, Note_on_c, 1, 50, 127
1, 132299, Note_off_c, 1, 67, 0
1, 132300, Note_on_c, 1, 69, 127
1, 132359, Note_off_c, 1, 50, 0
1, 132359, Note_off_c, 1, 69, 0
1, 132360, Note_on_c, 1, 55, 127
1, 132479, Note_off_c, 1, 55, 0
1, 132480, Note_on_c, 1, 54, 127
1, 132599, Note_off_c, 1, 54, 0
1, 132600, Note_on_c, 1, 52, 127
1, 132719, Note_off_c, 1, 52, 0
1, 132720, Note_on_c, 1, 66, 127
1, 132779, Note_off_c, 1, 66, 0
1, 132840, Note_on_c, 1, 48, 127
1, 132959, Note_off_c, 1, 48, 0
1, 133200, Note_on_c, 1, 64, 127
1, 133259, Note_off_c, 1, 64, 0
1, 133740, Note_off_c, 1, 62, 0
1, 133740, Note_on_c, 1, 60, 127
1, 133740, Note_on_c, 1, 45, 127
1, 133799, Note_off_c, 1, 60, 0
1, 133799, Note_off_c, 1, 45, 0
1, 133800, Note_on_c, 1, 59, 127
1, 133800, Note_on_c, 1, 74, 127
1, 133800, Note_on_c, 1, 43, 127
1, 133859, Note_off_c, 1, 59, 0
1, 133859, Note_off_c, 1, 43, 0
1, 133860, Note_on_c, 1, 57, 127
1, 133860, Note_on_c, 1, 42, 127
1, 133919, Note_off_c, 1, 74, 0
1, 133919, Note_off_c, 1, 57, 0
1, 133919, Note_off_c, 1, 42, 0
1, 133920, Note_on_c, 1, 59, 127
1, 133920, Note_on_c, 1, 74, 127
1, 133920, Note_on_c, 1, 43, 127
1, 133979, Note_off_c, 1, 59, 0
1, 133980, Note_on_c, 1, 60, 127
1, 134039, Note_off_c, 1, 43, 0
1, 134039, Note_off_c, 1, 60, 0
1, 134040, Note_on_c, 1, 62, 127
1, 134040, Note_on_c, 1, 47, 127
1, 134099, Note_off_c, 1, 62, 0
1, 134100, Note_on_c, 1, 64, 127
1, 134159, Note_off_c, 1, 47, 0
1, 134159, Note_off_c, 1, 64, 0
1, 134160, Note_on_c, 1, 55, 127
1, 134160, Note_on_c, 1, 40, 127
1, 134219, Note_off_c, 1, 55, 0
1, 134220, Note_on_c, 1, 57, 127
1, 134279, Note_off_c, 1, 40, 0
1, 134279, Note_off_c, 1, 57, 0
1, 134400, Note_on_c, 1, 42, 127
1, 134519, Note_off_c, 1, 42, 0
1, 134520, Note_on_c, 1, 45, 127
1, 134639, Note_off_c, 1, 45, 0
1, 134640, Note_on_c, 1, 54, 127
1, 134640, Note_on_c, 1, 38, 127
1, 134699, Note_off_c, 1, 54, 0
1, 134759, Note_off_c, 1, 38, 0
1, 135120, Note_off_c, 1, 74, 0
1, 135120, Note_on_c, 1, 52, 127
1, 135120, Note_on_c, 1, 72, 127
1, 135179, Note_off_c, 1, 52, 0
1, 135240, Note_on_c, 1, 33, 127
1, 135359, Note_off_c, 1, 33, 0
1, 135420, Note_off_c, 1, 72, 0
1, 135480, Note_on_c, 1, 66, 127
1, 135480, Note_on_c, 1, 50, 127
1, 135539, Note_off_c, 1, 66, 0
1, 135539, Note_off_c, 1, 50, 0
1, 135540, Note_on_c, 1, 69, 127
1, 135540, Note_on_c, 1, 48, 127
1, 135599, Note_off_c, 1, 69, 0
1, 135599, Note_off_c, 1, 48, 0
1, 135660, Note_on_c, 1, 76, 127
1, 135719, Note_off_c, 1, 76, 0
1, 135720, Note_on_c, 1, 52, 127
1, 135720, Note_on_c, 1, 74, 127
1, 135720, Note_on_c, 1, 38, 127
1, 135779, Note_off_c, 1, 52, 0
1, 135779, Note_off_c, 1, 74, 0
1, 135780, Note_on_c, 1, 54, 127
1, 135780, Note_on_c, 1, 72, 127
1, 135839, Note_off_c, 1, 38, 0
1, 135839, Note_off_c, 1, 54, 0
1, 135839, Note_off_c, 1, 72, 0
1, 135840, Note_on_c, 1, 55, 127
1, 135840, Note_on_c, 1, 71, 127
1, 135840, Note_on_c, 1, 43, 127
1, 135899, Note_off_c, 1, 55, 0
1, 135899, Note_off_c, 1, 71, 0
1, 135900, Note_on_c, 1, 59, 127
1, 135900, Note_on_c, 1, 67, 127
1, 135959, Note_off_c, 1, 43, 0
1, 135959, Note_off_c, 1, 59, 0
1, 135959, Note_off_c, 1, 67, 0
1, 135960, Note_on_c, 1, 62, 127
1, 135960, Note_on_c, 1, 66, 127
1, 135960, Note_on_c, 1, 47, 127
1, 136019, Note_off_c, 1, 62, 0
1, 136019, Note_off_c, 1, 66, 0
1, 136019, Note_off_c, 1, 47, 0
1, 136020, Note_on_c, 1, 60, 127
1, 136020, Note_on_c, 1, 67, 127
1, 136020, Note_on_c, 1, 45, 127
1, 136079, Note_off_c, 1, 60, 0
1, 136079, Note_off_c, 1, 67, 0
1, 136079, Note_off_c, 1, 45, 0
1, 136080, Note_on_c, 1, 59, 127
1, 136080, Note_on_c, 1, 79, 127
1, 136080, Note_on_c, 1, 43, 127
1, 136139, Note_off_c, 1, 59, 0
1, 136140, Note_on_c, 1, 55, 127
1, 136199, Note_off_c, 1, 79, 0
1, 136199, Note_off_c, 1, 43, 0
1, 136199, Note_off_c, 1, 55, 0
1, 136200, Note_on_c, 1, 54, 127
1, 136200, Note_on_c, 1, 74, 127
1, 136200, Note_on_c, 1, 47, 127
1, 136259, Note_off_c, 1, 54, 0
1, 136259, Note_off_c, 1, 47, 0
1, 136260, Note_on_c, 1, 55, 127
1, 136260, Note_on_c, 1, 45, 127
1, 136319, Note_off_c, 1, 74, 0
1, 136319, Note_off_c, 1, 55, 0
1, 136319, Note_off_c, 1, 45, 0
1, 136320, Note_on_c, 1, 67, 127
1, 136320, Note_on_c, 1, 71, 127
1, 136320, Note_on_c, 1, 43, 127
1, 136439, Note_off_c, 1, 67, 0
1, 136439, Note_off_c, 1, 71, 0
1, 136439, Note_off_c, 1, 43, 0
1, 136440, Note_on_c, 1, 62, 127
1, 136440, Note_on_c, 1, 69, 127
1, 136440, Note_on_c, 1, 47, 127
1, 136499, Note_off_c, 1, 69, 0
1, 136499, Note_off_c, 1, 47, 0
1, 136500, Note_on_c, 1, 67, 127
1, 136500, Note_on_c, 1, 45, 127
1, 136559, Note_off_c, 1, 62, 0
1, 136559, Note_off_c, 1, 67, 0
1, 136559, Note_off_c, 1, 45, 0
1, 136560, Note_on_c, 1, 59, 127
1, 136560, Note_on_c, 1, 74, 127
1, 136560, Note_on_c, 1, 43, 127
1, 136619, Note_off_c, 1, 43, 0
1, 136620, Note_on_c, 1, 45, 127
1, 136679, Note_off_c, 1, 59, 0
1, 136679, Note_off_c, 1, 74, 0
1, 136679, Note_off_c, 1, 45, 0
1, 136680, Note_on_c, 1, 57, 127
1, 136680, Note_on_c, 1, 74, 127
1, 136680, Note_on_c, 1, 47, 127
1, 136739, Note_off_c, 1, 57, 0
1, 136739, Note_off_c, 1, 47, 0
1, 136740, Note_on_c, 1, 55, 127
1, 136740, Note_on_c, 1, 43, 127
1, 136799, Note_off_c, 1, 74, 0
1, 136799, Note_off_c, 1, 55, 0
1, 136799, Note_off_c, 1, 43, 0
1, 136800, Note_on_c, 1, 64, 127
1, 136800, Note_on_c, 1, 74, 127
1, 136800, Note_on_c, 1, 48, 127
1, 136859, Note_off_c, 1, 64, 0
1, 136860, Note_on_c, 1, 62, 127
1, 136919, Note_off_c, 1, 74, 0
1, 136919, Note_off_c, 1, 62, 0
1, 136920, Note_on_c, 1, 72, 127
1, 136979, Note_off_c, 1, 72, 0
1, 136980, Note_on_c, 1, 65, 127
1, 136980, Note_on_c, 1, 71, 127
1, 137039, Note_off_c, 1, 48, 0
1, 137039, Note_off_c, 1, 65, 0
1, 137039, Note_off_c, 1, 71, 0
1, 137040, Note_on_c, 1, 64, 127
1, 137040, Note_on_c, 1, 72, 127
1, 137099, Note_off_c, 1, 64, 0
1, 137099, Note_off_c, 1, 72, 0
1, 137100, Note_on_c, 1, 62, 127
1, 137100, Note_on_c, 1, 74, 127
1, 137159, Note_off_c, 1, 62, 0
1, 137159, Note_off_c, 1, 74, 0
1, 137160, Note_on_c, 1, 60, 127
1, 137160, Note_on_c, 1, 76, 127
1, 137160, Note_on_c, 1, 45, 127
1, 137219, Note_off_c, 1, 60, 0
1, 137220, Note_on_c, 1, 59, 127
1, 137279, Note_off_c, 1, 76, 0
1, 137279, Note_off_c, 1, 45, 0
1, 137279, Note_off_c, 1, 59, 0
1, 137280, Note_on_c, 1, 57, 127
1, 137280, Note_on_c, 1, 76, 127
1, 137280, Note_on_c, 1, 42, 127
1, 137339, Note_off_c, 1, 57, 0
1, 137340, Note_on_c, 1, 59, 127
1, 137399, Note_off_c, 1, 76, 0
1, 137399, Note_off_c, 1, 59, 0
1, 137400, Note_on_c, 1, 60, 127
1, 137400, Note_on_c, 1, 69, 127
1, 137459, Note_off_c, 1, 60, 0
1, 137519, Note_off_c, 1, 42, 0
1, 137519, Note_off_c, 1, 69, 0
1, 137520, Note_on_c, 1, 57, 127
1, 137520, Note_on_c, 1, 69, 127
1, 137579, Note_off_c, 1, 57, 0
1, 137580, Note_on_c, 1, 55, 127
1, 137639, Note_off_c, 1, 69, 0
1, 137639, Note_off_c, 1, 55, 0
1, 137640, Note_on_c, 1, 54, 127
1, 137640, Note_on_c, 1, 72, 127
1, 137640, Note_on_c, 1, 45, 127
1, 137699, Note_off_c, 1, 54, 0
1, 137700, Note_on_c, 1, 52, 127
1, 137759, Note_off_c, 1, 45, 0
1, 137759, Note_off_c, 1, 52, 0
1, 137760, Note_on_c, 1, 62, 127
1, 137760, Note_on_c, 1, 47, 127
1, 137819, Note_off_c, 1, 62, 0
1, 137820, Note_on_c, 1, 60, 127
1, 137879, Note_off_c, 1, 72, 0
1, 137879, Note_off_c, 1, 60, 0
1, 137880, Note_on_c, 1, 71, 127
1, 137939, Note_off_c, 1, 71, 0
1, 137940, Note_on_c, 1, 64, 127
1, 137940, Note_on_c, 1, 69, 127
1, 137999, Note_off_c, 1, 47, 0
1, 137999, Note_off_c, 1, 64, 0
1, 137999, Note_off_c, 1, 69, 0
1, 138000, Note_on_c, 1, 62, 127
1, 138000, Note_on_c, 1, 71, 127
1, 138059, Note_off_c, 1, 62, 0
1, 138059, Note_off_c, 1, 71, 0
1, 138060, Note_on_c, 1, 60, 127
1, 138060, Note_on_c, 1, 72, 127
1, 138119, Note_off_c, 1, 60, 0
1, 138119, Note_off_c, 1, 72, 0
1, 138120, Note_on_c, 1, 59, 127
1, 138120, Note_on_c, 1, 74, 127
1, 138120, Note_on_c, 1, 43, 127
1, 138179, Note_off_c, 1, 59, 0
1, 138180, Note_on_c, 1, 57, 127
1, 138239, Note_off_c, 1, 74, 0
1, 138239, Note_off_c, 1, 43, 0
1, 138239, Note_off_c, 1, 57, 0
1, 138240, Note_on_c, 1, 55, 127
1, 138240, Note_on_c, 1, 74, 127
1, 138240, Note_on_c, 1, 40, 127
1, 138299, Note_off_c, 1, 55, 0
1, 138300, Note_on_c, 1, 57, 127
1, 138359, Note_off_c, 1, 74, 0
1, 138359, Note_off_c, 1, 57, 0
1, 138360, Note_on_c, 1, 59, 127
1, 138360, Note_on_c, 1, 67, 127
1, 138419, Note_off_c, 1, 59, 0
1, 138420, Note_on_c, 1, 60, 127
1, 138479, Note_off_c, 1, 40, 0
1, 138479, Note_off_c, 1, 67, 0
1, 138479, Note_off_c, 1, 60, 0
1, 138480, Note_on_c, 1, 62, 127
1, 138480, Note_on_c, 1, 67, 127
1, 138539, Note_off_c, 1, 62, 0
1, 138540, Note_on_c, 1, 64, 127
1, 138540, Note_on_c, 1, 48, 127
1, 138599, Note_off_c, 1, 67, 0
1, 138599, Note_off_c, 1, 64, 0
1, 138599, Note_off_c, 1, 48, 0
1, 138600, Note_on_c, 1, 66, 127
1, 138600, Note_on_c, 1, 72, 127
1, 138600, Note_on_c, 1, 47, 127
1, 138659, Note_off_c, 1, 66, 0
1, 138659, Note_off_c, 1, 47, 0
1, 138660, Note_on_c, 1, 62, 127
1, 138660, Note_on_c, 1, 45, 127
1, 138719, Note_off_c, 1, 72, 0
1, 138719, Note_off_c, 1, 62, 0
1, 138719, Note_off_c, 1, 45, 0
1, 138720, Note_on_c, 1, 67, 127
1, 138720, Note_on_c, 1, 71, 127
1, 138720, Note_on_c, 1, 43, 127
1, 138779, Note_off_c, 1, 43, 0
1, 138780, Note_on_c, 1, 45, 127
1, 138839, Note_off_c, 1, 45, 0
1, 138840, Note_on_c, 1, 47, 127
1, 138899, Note_off_c, 1, 67, 0
1, 138899, Note_off_c, 1, 71, 0
1, 138899, Note_off_c, 1, 47, 0
1, 138900, Note_on_c, 1, 69, 127
1, 138900, Note_on_c, 1, 48, 127
1, 138959, Note_off_c, 1, 69, 0
1, 138959, Note_off_c, 1, 48, 0
1, 138960, Note_on_c, 1, 66, 127
1, 138960, Note_on_c, 1, 69, 127
1, 138960, Note_on_c, 1, 50, 127
1, 138980, Note_off_c, 1, 66, 0
1, 138980, Note_on_c, 1, 67, 127
1, 138989, Note_off_c, 1, 69, 0
1, 138990, Note_on_c, 1, 71, 127
1, 139000, Note_off_c, 1, 67, 0
1, 139019, Note_off_c, 1, 71, 0
1, 139079, Note_off_c, 1, 50, 0
1, 139080, Note_on_c, 1, 38, 127
1, 139199, Note_off_c, 1, 38, 0
1, 139200, Note_on_c, 1, 67, 127
1, 139200, Note_on_c, 1, 43, 127
1, 139559, Note_off_c, 1, 67, 0
1, 139559, Note_off_c, 1, 43, 0
1, 139559, End_track
0, 0, End_of_file