0, 0, Header, 1, 1, 480
1, 0, Start_track
1, 0, Title_t, "Test"
1, 0, Tempo, 500000
1, 0, Instrument_name_t, "Church Organ"
1, 0, Note_on_c, 1, 60, 127
1, 0, Note_on_c, 1, 63, 127
1, 0, Note_on_c, 1, 48, 127
1, 0, Note_on_c, 1, 36, 127
1, 30, Note_off_c, 1, 60, 0
1, 30, Note_on_c, 1, 62, 127
1, 60, Note_off_c, 1, 36, 0
1, 60, Note_off_c, 1, 62, 0
1, 90, Note_on_c, 1, 65, 127
1, 120, Note_off_c, 1, 48, 0
1, 120, Note_off_c, 1, 65, 0
1, 120, Note_on_c, 1, 67, 127
1, 120, Note_on_c, 1, 58, 127
1, 120, Note_on_c, 1, 46, 127
1, 180, Note_off_c, 1, 63, 0
1, 180, Note_off_c, 1, 67, 0
1, 180, Note_off_c, 1, 58, 0
1, 180, Note_off_c, 1, 46, 0
1, 180, Note_on_c, 1, 72, 127
1, 180, Note_on_c, 1, 56, 127
1, 180, Note_on_c, 1, 44, 127
1, 240, Note_off_c, 1, 72, 0
1, 240, Note_off_c, 1, 56, 0
1, 240, Note_off_c, 1, 44, 0
1, 240, Note_on_c, 1, 71, 127
1, 240, Note_on_c, 1, 55, 127
1, 240, Note_on_c, 1, 43, 127
1, 270, Note_off_c, 1, 55, 0
1, 270, Note_off_c, 1, 43, 0
1, 270, Note_on_c, 1, 53, 127
1, 270, Note_on_c, 1, 41, 127
1, 300, Note_off_c, 1, 71, 0
1, 300, Note_off_c, 1, 53, 0
1, 300, Note_off_c, 1, 41, 0
1, 360, Note_on_c, 1, 59, 127
1, 420, Note_off_c, 1, 59, 0
1, 420, Note_on_c, 1, 51, 127
1, 420, Note_on_c, 1, 39, 127
1, 450, Note_off_c, 1, 51, 0
1, 450, Note_off_c, 1, 39, 0
1, 450, Note_on_c, 1, 50, 127
1, 450, Note_on_c, 1, 38, 127
1, 480, Note_off_c, 1, 50, 0
1, 480, Note_off_c, 1, 38, 0
1, 480, Note_on_c, 1, 64, 127
1, 510, Note_on_c, 1, 34, 127
1, 540, Note_off_c, 1, 34, 0
1, 570, Note_off_c, 1, 64, 0
1, 570, Note_on_c, 1, 49, 127
1, 570, Note_on_c, 1, 37, 127
1, 600, Note_off_c, 1, 49, 0
1, 600, Note_off_c, 1, 37, 0
1, 600, Note_on_c, 1, 70, 127
1, 660, Note_on_c, 1, 45, 127
1, 660, Note_on_c, 1, 33, 127
1, 690, Note_off_c, 1, 45, 0
1, 690, Note_off_c, 1, 33, 0
1, 690, Note_on_c, 1, 31, 127
1, 720, Note_off_c, 1, 31, 0
1, 720, Note_on_c, 1, 29, 127
1, 780, Note_off_c, 1, 70, 0
1, 780, Note_on_c, 1, 69, 127
1, 810, Note_off_c, 1, 69, 0
1, 1080, Note_on_c, 1, 68, 127
1, 1170, Note_off_c, 1, 68, 0
1, 1260, Note_off_c, 1, 29, 0
1, 1260, Note_on_c, 1, 27, 127
1, 1290, Note_off_c, 1, 27, 0
1, 1290, Note_on_c, 1, 26, 127
1, 1320, Note_off_c, 1, 26, 0
1, 1380, Note_on_c, 1, 32, 127
1, 1440, Note_off_c, 1, 32, 0
1, 1680, Note_on_c, 1, 24, 127
1, 1740, Note_off_c, 1, 24, 0
1, 1830, Note_on_c, 1, 66, 127
1, 1830, Note_on_c, 1, 57, 127
1, 1860, Note_off_c, 1, 66, 0
1, 1860, Note_off_c, 1, 57, 0
1, 2040, Note_on_c, 1, 74, 127
1, 2100, Note_off_c, 1, 74, 0
1, 2100, Note_on_c, 1, 79, 127
1, 2160, Note_off_c, 1, 79, 0
1, 2160, Note_on_c, 1, 78, 127
1, 2220, Note_off_c, 1, 78, 0
1, 2430, Note_on_c, 1, 42, 127
1, 2430, Note_on_c, 1, 30, 127
1, 2460, Note_off_c, 1, 42, 0
1, 2460, Note_off_c, 1, 30, 0
1, 2520, Note_on_c, 1, 77, 127
1, 2670, Note_on_c, 1, 47, 127
1, 2670, Note_on_c, 1, 35, 127
1, 2700, Note_off_c, 1, 77, 0
1, 2700, Note_off_c, 1, 47, 0
1, 2700, Note_off_c, 1, 35, 0
1, 2700, Note_on_c, 1, 76, 127
1, 2730, Note_off_c, 1, 76, 0
1, 3000, Note_on_c, 1, 75, 127
1, 3090, Note_off_c, 1, 75, 0
1, 3180, Note_on_c, 1, 54, 127
1, 3240, Note_off_c, 1, 54, 0
1, 4800, Note_on_c, 1, 52, 127
1, 4800, Note_on_c, 1, 40, 127
1, 4860, Note_off_c, 1, 52, 0
1, 4860, Note_off_c, 1, 40, 0
1, 5460, Note_on_c, 1, 80, 127
1, 5490, Note_off_c, 1, 80, 0
1, 5820, Note_on_c, 1, 84, 127
1, 5939, Note_off_c, 1, 84, 0
1, 5940, Note_on_c, 1, 83, 127
1, 5999, Note_off_c, 1, 83, 0
1, 7140, Note_on_c, 1, 61, 127
1, 7169, Note_off_c, 1, 61, 0
1, 7320, Note_on_c, 1, 73, 127
1, 7379, Note_off_c, 1, 73, 0
1, 8760, Note_on_c, 1, 82, 127
1, 8939, Note_off_c, 1, 82, 0
1, 8940, Note_on_c, 1, 81, 127
1, 8969, Note_off_c, 1, 81, 0
1, 9180, Note_on_c, 1, 77, 127
1, 9180, Note_on_c, 1, 71, 127
1, 9180, Note_on_c, 1, 68, 127
1, 9180, Note_on_c, 1, 50, 127
1, 9180, Note_on_c, 1, 38, 127
1, 9209, Note_off_c, 1, 71, 0
1, 9209, Note_off_c, 1, 68, 0
1, 9209, Note_off_c, 1, 50, 0
1, 9209, Note_off_c, 1, 38, 0
1, 9210, Note_on_c, 1, 72, 127
1, 9210, Note_on_c, 1, 67, 127
1, 9210, Note_on_c, 1, 51, 127
1, 9210, Note_on_c, 1, 39, 127
1, 9239, Note_off_c, 1, 77, 0
1, 9239, Note_off_c, 1, 72, 0
1, 9239, Note_off_c, 1, 67, 0
1, 9239, Note_off_c, 1, 51, 0
1, 9239, Note_off_c, 1, 39, 0
1, 9240, Note_on_c, 1, 80, 127
1, 9240, Note_on_c, 1, 74, 127
1, 9240, Note_on_c, 1, 65, 127
1, 9240, Note_on_c, 1, 53, 127
1, 9240, Note_on_c, 1, 41, 127
1, 9269, Note_off_c, 1, 74, 0
1, 9269, Note_off_c, 1, 53, 0
1, 9269, Note_off_c, 1, 41, 0
1, 9270, Note_on_c, 1, 75, 127
1, 9270, Note_on_c, 1, 55, 127
1, 9270, Note_on_c, 1, 43, 127
1, 9299, Note_off_c, 1, 80, 0
1, 9299, Note_off_c, 1, 65, 0
1, 9299, Note_off_c, 1, 75, 0
1, 9299, Note_off_c, 1, 55, 0
1, 9299, Note_off_c, 1, 43, 0
1, 9300, Note_on_c, 1, 72, 127
1, 9300, Note_on_c, 1, 77, 127
1, 9300, Note_on_c, 1, 53, 127
1, 9300, Note_on_c, 1, 56, 127
1, 9300, Note_on_c, 1, 44, 127
1, 9329, Note_off_c, 1, 56, 0
1, 9329, Note_off_c, 1, 44, 0
1, 9330, Note_on_c, 1, 41, 127
1, 9359, Note_off_c, 1, 72, 0
1, 9359, Note_off_c, 1, 53, 0
1, 9359, Note_off_c, 1, 41, 0
1, 9360, Note_on_c, 1, 71, 127
1, 9360, Note_on_c, 1, 62, 127
1, 9360, Note_on_c, 1, 55, 127
1, 9360, Note_on_c, 1, 43, 127
1, 9389, Note_off_c, 1, 77, 0
1, 9389, Note_off_c, 1, 62, 0
1, 9389, Note_off_c, 1, 55, 0
1, 9389, Note_off_c, 1, 43, 0
1, 9390, Note_on_c, 1, 74, 127
1, 9390, Note_on_c, 1, 59, 127
1, 9419, Note_off_c, 1, 71, 0
1, 9419, Note_off_c, 1, 74, 0
1, 9419, Note_off_c, 1, 59, 0
1, 9420, Note_on_c, 1, 79, 127
1, 9420, Note_on_c, 1, 75, 127
1, 9420, Note_on_c, 1, 60, 127
1, 9420, Note_on_c, 1, 55, 127
1, 9420, Note_on_c, 1, 43, 127
1, 9449, Note_off_c, 1, 75, 0
1, 9449, Note_off_c, 1, 60, 0
1, 9449, Note_off_c, 1, 55, 0
1, 9449, Note_off_c, 1, 43, 0
1, 9450, Note_on_c, 1, 77, 127
1, 9450, Note_on_c, 1, 62, 127
1, 9450, Note_on_c, 1, 53, 127
1, 9450, Note_on_c, 1, 41, 127
1, 9479, Note_off_c, 1, 79, 0
1, 9479, Note_off_c, 1, 77, 0
1, 9479, Note_off_c, 1, 62, 0
1, 9479, Note_off_c, 1, 53, 0
1, 9479, Note_off_c, 1, 41, 0
1, 9480, Note_on_c, 1, 72, 127
1, 9480, Note_on_c, 1, 79, 127
1, 9480, Note_on_c, 1, 63, 127
1, 9480, Note_on_c, 1, 51, 127
1, 9480, Note_on_c, 1, 39, 127
1, 9509, Note_off_c, 1, 63, 0
1, 9509, Note_off_c, 1, 51, 0
1, 9509, Note_off_c, 1, 39, 0
1, 9510, Note_on_c, 1, 65, 127
1, 9510, Note_on_c, 1, 50, 127
1, 9510, Note_on_c, 1, 38, 127
1, 9539, Note_off_c, 1, 72, 0
1, 9539, Note_off_c, 1, 79, 0
1, 9539, Note_off_c, 1, 65, 0
1, 9539, Note_off_c, 1, 50, 0
1, 9539, Note_off_c, 1, 38, 0
1, 9540, Note_on_c, 1, 77, 127
1, 9540, Note_on_c, 1, 74, 127
1, 9540, Note_on_c, 1, 67, 127
1, 9540, Note_on_c, 1, 48, 127
1, 9540, Note_on_c, 1, 36, 127
1, 9569, Note_off_c, 1, 48, 0
1, 9569, Note_off_c, 1, 36, 0
1, 9570, Note_on_c, 1, 47, 127
1, 9570, Note_on_c, 1, 35, 127
1, 9599, Note_off_c, 1, 77, 0
1, 9599, Note_off_c, 1, 67, 0
1, 9599, Note_off_c, 1, 47, 0
1, 9599, Note_off_c, 1, 35, 0
1, 9600, Note_on_c, 1, 75, 127
1, 9600, Note_on_c, 1, 55, 127
1, 9659, Note_off_c, 1, 74, 0
1, 9659, Note_off_c, 1, 55, 0
1, 9660, Note_on_c, 1, 72, 127
1, 9660, Note_on_c, 1, 60, 127
1, 9660, Note_on_c, 1, 44, 127
1, 9660, Note_on_c, 1, 32, 127
1, 9719, Note_off_c, 1, 75, 0
1, 9719, Note_off_c, 1, 60, 0
1, 9720, Note_off_c, 1, 44, 0
1, 9720, Note_off_c, 1, 32, 0
1, 9720, Note_on_c, 1, 68, 127
1, 9720, Note_on_c, 1, 41, 127
1, 9720, Note_on_c, 1, 29, 127
1, 9779, Note_off_c, 1, 72, 0
1, 9779, Note_off_c, 1, 68, 0
1, 9780, Note_off_c, 1, 41, 0
1, 9780, Note_off_c, 1, 29, 0
1, 9780, Note_on_c, 1, 71, 127
1, 9780, Note_on_c, 1, 43, 127
1, 9780, Note_on_c, 1, 31, 127
1, 9839, Note_off_c, 1, 71, 0
1, 9840, Note_off_c, 1, 43, 0
1, 9840, Note_off_c, 1, 31, 0
1, 9840, Note_on_c, 1, 63, 127
1, 9840, Note_on_c, 1, 24, 127
1, 9900, Note_on_c, 1, 70, 127
1, 9929, Note_off_c, 1, 70, 0
1, 9959, Note_off_c, 1, 63, 0
1, 9959, Note_off_c, 1, 24, 0
1, 9960, Note_on_c, 1, 67, 127
1, 9989, Note_off_c, 1, 67, 0
1, 9990, Note_on_c, 1, 65, 127
1, 10019, Note_off_c, 1, 65, 0
1, 10020, Note_on_c, 1, 63, 127
1, 10049, Note_off_c, 1, 63, 0
1, 10050, Note_on_c, 1, 62, 127
1, 10079, Note_off_c, 1, 62, 0
1, 10080, Note_on_c, 1, 72, 127
1, 10080, Note_on_c, 1, 67, 127
1, 10080, Note_on_c, 1, 60, 127
1, 10080, Note_on_c, 1, 48, 127
1, 10080, Note_on_c, 1, 36, 127
1, 10080, Note_on_c, 1, 63, 127
1, 10109, Note_off_c, 1, 63, 0
1, 10110, Note_on_c, 1, 55, 127
1, 10139, Note_off_c, 1, 55, 0
1, 10140, Note_off_c, 1, 72, 0
1, 10140, Note_off_c, 1, 67, 0
1, 10140, Note_off_c, 1, 60, 0
1, 10140, Note_off_c, 1, 48, 0
1, 10140, Note_off_c, 1, 36, 0
1, 10140, Note_on_c, 1, 79, 127
1, 10140, Note_on_c, 1, 51, 127
1, 10169, Note_off_c, 1, 79, 0
1, 10169, Note_off_c, 1, 51, 0
1, 10170, Note_on_c, 1, 55, 127
1, 10199, Note_off_c, 1, 55, 0
1, 10200, Note_on_c, 1, 74, 127
1, 10200, Note_on_c, 1, 67, 127
1, 10200, Note_on_c, 1, 59, 127
1, 10200, Note_on_c, 1, 43, 127
1, 10200, Note_on_c, 1, 31, 127
1, 10200, Note_on_c, 1, 62, 127
1, 10229, Note_off_c, 1, 62, 0
1, 10230, Note_on_c, 1, 55, 127
1, 10259, Note_off_c, 1, 55, 0
1, 10260, Note_off_c, 1, 74, 0
1, 10260, Note_off_c, 1, 67, 0
1, 10260, Note_off_c, 1, 59, 0
1, 10260, Note_off_c, 1, 43, 0
1, 10260, Note_off_c, 1, 31, 0
1, 10260, Note_on_c, 1, 77, 127
1, 10260, Note_on_c, 1, 50, 127
1, 10289, Note_off_c, 1, 77, 0
1, 10289, Note_off_c, 1, 50, 0
1, 10290, Note_on_c, 1, 55, 127
1, 10319, Note_off_c, 1, 55, 0
1, 10320, Note_on_c, 1, 75, 127
1, 10320, Note_on_c, 1, 67, 127
1, 10320, Note_on_c, 1, 60, 127
1, 10320, Note_on_c, 1, 36, 127
1, 10320, Note_on_c, 1, 24, 127
1, 10350, Note_on_c, 1, 77, 127
1, 10350, Note_on_c, 1, 59, 127
1, 10379, Note_off_c, 1, 77, 0
1, 10379, Note_off_c, 1, 59, 0
1, 10380, Note_off_c, 1, 67, 0
1, 10380, Note_off_c, 1, 36, 0
1, 10380, Note_off_c, 1, 24, 0
1, 10409, Note_off_c, 1, 75, 0
1, 10409, Note_off_c, 1, 60, 0
1, 10410, Note_on_c, 1, 74, 127
1, 10410, Note_on_c, 1, 62, 127
1, 10439, Note_off_c, 1, 74, 0
1, 10439, Note_off_c, 1, 62, 0
1, 10440, Note_on_c, 1, 72, 127
1, 10440, Note_on_c, 1, 63, 127
1, 10469, Note_off_c, 1, 72, 0
1, 10469, Note_off_c, 1, 63, 0
1, 10470, Note_on_c, 1, 70, 127
1, 10470, Note_on_c, 1, 64, 127
1, 10499, Note_off_c, 1, 70, 0
1, 10499, Note_off_c, 1, 64, 0
1, 10500, Note_on_c, 1, 68, 127
1, 10500, Note_on_c, 1, 65, 127
1, 10529, Note_off_c, 1, 68, 0
1, 10529, Note_off_c, 1, 65, 0
1, 10530, Note_on_c, 1, 67, 127
1, 10559, Note_off_c, 1, 67, 0
1, 10560, Note_on_c, 1, 77, 127
1, 10560, Note_on_c, 1, 68, 127
1, 10560, Note_on_c, 1, 72, 127
1, 10560, Note_on_c, 1, 53, 127
1, 10560, Note_on_c, 1, 41, 127
1, 10560, Note_on_c, 1, 65, 127
1, 10589, Note_off_c, 1, 65, 0
1, 10590, Note_on_c, 1, 60, 127
1, 10619, Note_off_c, 1, 60, 0
1, 10620, Note_off_c, 1, 77, 0
1, 10620, Note_off_c, 1, 68, 0
1, 10620, Note_off_c, 1, 72, 0
1, 10620, Note_off_c, 1, 53, 0
1, 10620, Note_off_c, 1, 41, 0
1, 10620, Note_on_c, 1, 84, 127
1, 10620, Note_on_c, 1, 56, 127
1, 10649, Note_off_c, 1, 84, 0
1, 10649, Note_off_c, 1, 56, 0
1, 10650, Note_on_c, 1, 60, 127
1, 10679, Note_off_c, 1, 60, 0
1, 10680, Note_on_c, 1, 79, 127
1, 10680, Note_on_c, 1, 64, 127
1, 10680, Note_on_c, 1, 72, 127
1, 10680, Note_on_c, 1, 48, 127
1, 10680, Note_on_c, 1, 36, 127
1, 10680, Note_on_c, 1, 67, 127
1, 10709, Note_off_c, 1, 67, 0
1, 10710, Note_on_c, 1, 60, 127
1, 10739, Note_off_c, 1, 60, 0
1, 10740, Note_off_c, 1, 79, 0
1, 10740, Note_off_c, 1, 64, 0
1, 10740, Note_off_c, 1, 72, 0
1, 10740, Note_off_c, 1, 48, 0
1, 10740, Note_off_c, 1, 36, 0
1, 10740, Note_on_c, 1, 82, 127
1, 10740, Note_on_c, 1, 55, 127
1, 10769, Note_off_c, 1, 82, 0
1, 10769, Note_off_c, 1, 55, 0
1, 10770, Note_on_c, 1, 60, 127
1, 10799, Note_off_c, 1, 60, 0
1, 10800, Note_on_c, 1, 80, 127
1, 10800, Note_on_c, 1, 65, 127
1, 10800, Note_on_c, 1, 72, 127
1, 10800, Note_on_c, 1, 41, 127
1, 10800, Note_on_c, 1, 29, 127
1, 10830, Note_on_c, 1, 82, 127
1, 10830, Note_on_c, 1, 64, 127
1, 10859, Note_off_c, 1, 82, 0
1, 10859, Note_off_c, 1, 64, 0
1, 10860, Note_off_c, 1, 72, 0
1, 10860, Note_off_c, 1, 41, 0
1, 10860, Note_off_c, 1, 29, 0
1, 10889, Note_off_c, 1, 80, 0
1, 10889, Note_off_c, 1, 65, 0
1, 10890, Note_on_c, 1, 79, 127
1, 10890, Note_on_c, 1, 67, 127
1, 10919, Note_off_c, 1, 79, 0
1, 10919, Note_off_c, 1, 67, 0
1, 10920, Note_on_c, 1, 77, 127
1, 10920, Note_on_c, 1, 68, 127
1, 10949, Note_off_c, 1, 77, 0
1, 10950, Note_on_c, 1, 75, 127
1, 10979, Note_off_c, 1, 68, 0
1, 10979, Note_off_c, 1, 75, 0
1, 10980, Note_on_c, 1, 74, 127
1, 10980, Note_on_c, 1, 65, 127
1, 11009, Note_off_c, 1, 74, 0
1, 11010, Note_on_c, 1, 72, 127
1, 11039, Note_off_c, 1, 72, 0
1, 11040, Note_on_c, 1, 58, 127
1, 11040, Note_on_c, 1, 46, 127
1, 11070, Note_on_c, 1, 80, 127
1, 11099, Note_off_c, 1, 65, 0
1, 11099, Note_off_c, 1, 80, 0
1, 11100, Note_off_c, 1, 46, 0
1, 11100, Note_on_c, 1, 79, 127
1, 11129, Note_off_c, 1, 79, 0
1, 11130, Note_on_c, 1, 77, 127
1, 11159, Note_off_c, 1, 77, 0
1, 11160, Note_on_c, 1, 51, 127
1, 11160, Note_on_c, 1, 39, 127
1, 11219, Note_off_c, 1, 58, 0
1, 11220, Note_off_c, 1, 51, 0
1, 11220, Note_off_c, 1, 39, 0
1, 11220, Note_on_c, 1, 63, 127
1, 11250, Note_on_c, 1, 71, 127
1, 11279, Note_off_c, 1, 71, 0
1, 11280, Note_on_c, 1, 56, 127
1, 11280, Note_on_c, 1, 44, 127
1, 11339, Note_off_c, 1, 63, 0
1, 11340, Note_off_c, 1, 44, 0
1, 11370, Note_on_c, 1, 75, 127
1, 11399, Note_off_c, 1, 75, 0
1, 11400, Note_on_c, 1, 50, 127
1, 11400, Note_on_c, 1, 38, 127
1, 11459, Note_off_c, 1, 56, 0
1, 11460, Note_off_c, 1, 50, 0
1, 11460, Note_off_c, 1, 38, 0
1, 11460, Note_on_c, 1, 62, 127
1, 11490, Note_on_c, 1, 69, 127
1, 11519, Note_off_c, 1, 69, 0
1, 11520, Note_on_c, 1, 55, 127
1, 11520, Note_on_c, 1, 43, 127
1, 11579, Note_off_c, 1, 62, 0
1, 11580, Note_off_c, 1, 43, 0
1, 11640, Note_on_c, 1, 48, 127
1, 11640, Note_on_c, 1, 36, 127
1, 11699, Note_off_c, 1, 55, 0
1, 11700, Note_off_c, 1, 48, 0
1, 11700, Note_off_c, 1, 36, 0
1, 11700, Note_on_c, 1, 60, 127
1, 11759, Note_off_c, 1, 60, 0
1, 11760, Note_on_c, 1, 55, 127
1, 11760, Note_on_c, 1, 43, 127
1, 11760, Note_on_c, 1, 74, 127
1, 11760, Note_on_c, 1, 59, 127
1, 11789, Note_off_c, 1, 74, 0
1, 11790, Note_on_c, 1, 72, 127
1, 11819, Note_off_c, 1, 59, 0
1, 11819, Note_off_c, 1, 72, 0
1, 11820, Note_off_c, 1, 43, 0
1, 11820, Note_on_c, 1, 50, 127
1, 11820, Note_on_c, 1, 38, 127
1, 11820, Note_on_c, 1, 71, 127
1, 11849, Note_off_c, 1, 55, 0
1, 11849, Note_off_c, 1, 71, 0
1, 11850, Note_on_c, 1, 69, 127
1, 11879, Note_off_c, 1, 69, 0
1, 11880, Note_off_c, 1, 50, 0
1, 11880, Note_off_c, 1, 38, 0
1, 11880, Note_on_c, 1, 47, 127
1, 11880, Note_on_c, 1, 35, 127
1, 11880, Note_on_c, 1, 67, 127
1, 11910, Note_on_c, 1, 65, 127
1, 11939, Note_off_c, 1, 65, 0
1, 11940, Note_off_c, 1, 47, 0
1, 11940, Note_off_c, 1, 35, 0
1, 11940, Note_on_c, 1, 31, 127
1, 11940, Note_on_c, 1, 45, 127
1, 11940, Note_on_c, 1, 63, 127
1, 11969, Note_off_c, 1, 45, 0
1, 11969, Note_off_c, 1, 63, 0
1, 11970, Note_on_c, 1, 62, 127
1, 11999, Note_off_c, 1, 62, 0
1, 12000, Note_off_c, 1, 31, 0
1, 12000, Note_on_c, 1, 48, 127
1, 12000, Note_on_c, 1, 36, 127
1, 12000, Note_on_c, 1, 60, 127
1, 12029, Note_off_c, 1, 60, 0
1, 12060, Note_off_c, 1, 67, 0
1, 12060, Note_off_c, 1, 48, 0
1, 12060, Note_off_c, 1, 36, 0
1, 12060, Note_on_c, 1, 51, 127
1, 12060, Note_on_c, 1, 79, 127
1, 12089, Note_off_c, 1, 79, 0
1, 12119, Note_off_c, 1, 51, 0
1, 12120, Note_on_c, 1, 74, 127
1, 12120, Note_on_c, 1, 71, 127
1, 12120, Note_on_c, 1, 67, 127
1, 12120, Note_on_c, 1, 43, 127
1, 12120, Note_on_c, 1, 31, 127
1, 12120, Note_on_c, 1, 65, 127
1, 12120, Note_on_c, 1, 55, 127
1, 12120, Note_on_c, 1, 62, 127
1, 12120, Note_on_c, 1, 59, 127
1, 12149, Note_off_c, 1, 65, 0
1, 12149, Note_off_c, 1, 62, 0
1, 12149, Note_off_c, 1, 59, 0
1, 12179, Note_off_c, 1, 55, 0
1, 12180, Note_off_c, 1, 74, 0
1, 12180, Note_off_c, 1, 71, 0
1, 12180, Note_off_c, 1, 67, 0
1, 12180, Note_off_c, 1, 31, 0
1, 12180, Note_on_c, 1, 77, 127
1, 12180, Note_on_c, 1, 50, 127
1, 12209, Note_off_c, 1, 77, 0
1, 12209, Note_off_c, 1, 50, 0
1, 12239, Note_off_c, 1, 43, 0
1, 12240, Note_on_c, 1, 75, 127
1, 12240, Note_on_c, 1, 72, 127
1, 12240, Note_on_c, 1, 67, 127
1, 12240, Note_on_c, 1, 36, 127
1, 12240, Note_on_c, 1, 24, 127
1, 12240, Note_on_c, 1, 63, 127
1, 12240, Note_on_c, 1, 48, 127
1, 12240, Note_on_c, 1, 60, 127
1, 12269, Note_off_c, 1, 63, 0
1, 12269, Note_off_c, 1, 60, 0
1, 12270, Note_on_c, 1, 77, 127
1, 12270, Note_on_c, 1, 59, 127
1, 12299, Note_off_c, 1, 48, 0
1, 12299, Note_off_c, 1, 77, 0
1, 12299, Note_off_c, 1, 59, 0
1, 12300, Note_off_c, 1, 72, 0
1, 12300, Note_off_c, 1, 67, 0
1, 12300, Note_off_c, 1, 24, 0
1, 12329, Note_off_c, 1, 75, 0
1, 12330, Note_on_c, 1, 74, 127
1, 12330, Note_on_c, 1, 62, 127
1, 12359, Note_off_c, 1, 36, 0
1, 12359, Note_off_c, 1, 74, 0
1, 12359, Note_off_c, 1, 62, 0
1, 12360, Note_on_c, 1, 72, 127
1, 12360, Note_on_c, 1, 63, 127
1, 12389, Note_off_c, 1, 63, 0
1, 12390, Note_on_c, 1, 48, 127
1, 12390, Note_on_c, 1, 70, 127
1, 12390, Note_on_c, 1, 64, 127
1, 12419, Note_off_c, 1, 48, 0
1, 12419, Note_off_c, 1, 70, 0
1, 12419, Note_off_c, 1, 64, 0
1, 12420, Note_on_c, 1, 50, 127
1, 12420, Note_on_c, 1, 68, 127
1, 12420, Note_on_c, 1, 65, 127
1, 12449, Note_off_c, 1, 50, 0
1, 12449, Note_off_c, 1, 68, 0
1, 12449, Note_off_c, 1, 65, 0
1, 12450, Note_on_c, 1, 52, 127
1, 12450, Note_on_c, 1, 67, 127
1, 12479, Note_off_c, 1, 52, 0
1, 12479, Note_off_c, 1, 67, 0
1, 12480, Note_on_c, 1, 77, 127
1, 12480, Note_on_c, 1, 53, 127
1, 12480, Note_on_c, 1, 41, 127
1, 12510, Note_on_c, 1, 60, 127
1, 12539, Note_off_c, 1, 60, 0
1, 12540, Note_off_c, 1, 72, 0
1, 12540, Note_off_c, 1, 77, 0
1, 12540, Note_off_c, 1, 53, 0
1, 12540, Note_off_c, 1, 41, 0
1, 12540, Note_on_c, 1, 56, 127
1, 12540, Note_on_c, 1, 84, 127
1, 12569, Note_off_c, 1, 84, 0
1, 12599, Note_off_c, 1, 56, 0
1, 12600, Note_on_c, 1, 79, 127
1, 12600, Note_on_c, 1, 72, 127
1, 12600, Note_on_c, 1, 64, 127
1, 12600, Note_on_c, 1, 48, 127
1, 12600, Note_on_c, 1, 36, 127
1, 12600, Note_on_c, 1, 70, 127
1, 12600, Note_on_c, 1, 60, 127
1, 12600, Note_on_c, 1, 67, 127
1, 12629, Note_off_c, 1, 70, 0
1, 12629, Note_off_c, 1, 67, 0
1, 12659, Note_off_c, 1, 60, 0
1, 12660, Note_off_c, 1, 79, 0
1, 12660, Note_off_c, 1, 72, 0
1, 12660, Note_off_c, 1, 36, 0
1, 12660, Note_on_c, 1, 82, 127
1, 12660, Note_on_c, 1, 55, 127
1, 12689, Note_off_c, 1, 64, 0
1, 12689, Note_off_c, 1, 82, 0
1, 12689, Note_off_c, 1, 55, 0
1, 12719, Note_off_c, 1, 48, 0
1, 12720, Note_on_c, 1, 80, 127
1, 12720, Note_on_c, 1, 72, 127
1, 12720, Note_on_c, 1, 65, 127
1, 12720, Note_on_c, 1, 41, 127
1, 12720, Note_on_c, 1, 29, 127
1, 12720, Note_on_c, 1, 68, 127
1, 12720, Note_on_c, 1, 53, 127
1, 12749, Note_off_c, 1, 68, 0
1, 12750, Note_on_c, 1, 82, 127
1, 12750, Note_on_c, 1, 64, 127
1, 12779, Note_off_c, 1, 53, 0
1, 12779, Note_off_c, 1, 82, 0
1, 12779, Note_off_c, 1, 64, 0
1, 12780, Note_off_c, 1, 72, 0
1, 12780, Note_off_c, 1, 29, 0
1, 12809, Note_off_c, 1, 80, 0
1, 12809, Note_off_c, 1, 65, 0
1, 12810, Note_on_c, 1, 79, 127
1, 12810, Note_on_c, 1, 67, 127
1, 12839, Note_off_c, 1, 41, 0
1, 12839, Note_off_c, 1, 79, 0
1, 12839, Note_off_c, 1, 67, 0
1, 12840, Note_on_c, 1, 80, 127
1, 12840, Note_on_c, 1, 77, 127
1, 12840, Note_on_c, 1, 68, 127
1, 12869, Note_off_c, 1, 77, 0
1, 12870, Note_on_c, 1, 53, 127
1, 12870, Note_on_c, 1, 75, 127
1, 12899, Note_off_c, 1, 68, 0
1, 12899, Note_off_c, 1, 53, 0
1, 12899, Note_off_c, 1, 75, 0
1, 12900, Note_on_c, 1, 55, 127
1, 12900, Note_on_c, 1, 74, 127
1, 12900, Note_on_c, 1, 65, 127
1, 12929, Note_off_c, 1, 55, 0
1, 12929, Note_off_c, 1, 74, 0
1, 12930, Note_on_c, 1, 56, 127
1, 12930, Note_on_c, 1, 72, 127
1, 12959, Note_off_c, 1, 56, 0
1, 12959, Note_off_c, 1, 72, 0
1, 12960, Note_on_c, 1, 58, 127
1, 12960, Note_on_c, 1, 46, 127
1, 12989, Note_off_c, 1, 80, 0
1, 13019, Note_off_c, 1, 65, 0
1, 13020, Note_off_c, 1, 46, 0
1, 13020, Note_on_c, 1, 63, 127
1, 13020, Note_on_c, 1, 79, 127
1, 13049, Note_off_c, 1, 63, 0
1, 13049, Note_off_c, 1, 79, 0
1, 13050, Note_on_c, 1, 62, 127
1, 13079, Note_off_c, 1, 62, 0
1, 13080, Note_on_c, 1, 51, 127
1, 13080, Note_on_c, 1, 39, 127
1, 13139, Note_off_c, 1, 58, 0
1, 13140, Note_off_c, 1, 51, 0
1, 13140, Note_off_c, 1, 39, 0
1, 13170, Note_on_c, 1, 71, 127
1, 13199, Note_off_c, 1, 71, 0
1, 13200, Note_on_c, 1, 44, 127
1, 13260, Note_off_c, 1, 44, 0
1, 13290, Note_on_c, 1, 60, 127
1, 13319, Note_off_c, 1, 60, 0
1, 13320, Note_on_c, 1, 50, 127
1, 13320, Note_on_c, 1, 38, 127
1, 13380, Note_off_c, 1, 50, 0
1, 13380, Note_off_c, 1, 38, 0
1, 13410, Note_on_c, 1, 69, 127
1, 13439, Note_off_c, 1, 69, 0
1, 13440, Note_on_c, 1, 43, 127
1, 13500, Note_off_c, 1, 43, 0
1, 13530, Note_on_c, 1, 59, 127
1, 13559, Note_off_c, 1, 59, 0
1, 13560, Note_on_c, 1, 48, 127
1, 13560, Note_on_c, 1, 36, 127
1, 13620, Note_off_c, 1, 48, 0
1, 13620, Note_off_c, 1, 36, 0
1, 13800, Note_on_c, 1, 47, 127
1, 13800, Note_on_c, 1, 35, 127
1, 13800, Note_on_c, 1, 67, 127
1, 13860, Note_off_c, 1, 47, 0
1, 13860, Note_off_c, 1, 35, 0
1, 13860, Note_on_c, 1, 31, 127
1, 13860, Note_on_c, 1, 57, 127
1, 13889, Note_off_c, 1, 57, 0
1, 13920, Note_off_c, 1, 31, 0
1, 13979, Note_off_c, 1, 67, 0
1, 14160, Note_on_c, 1, 41, 127
1, 14220, Note_off_c, 1, 41, 0
1, 14280, Note_on_c, 1, 45, 127
1, 14280, Note_on_c, 1, 33, 127
1, 14340, Note_off_c, 1, 45, 0
1, 14340, Note_off_c, 1, 33, 0
1, 14340, Note_on_c, 1, 29, 127
1, 14400, Note_off_c, 1, 29, 0
1, 14400, Note_on_c, 1, 34, 127
1, 14460, Note_off_c, 1, 34, 0
1, 14460, Note_on_c, 1, 70, 127
1, 14489, Note_off_c, 1, 70, 0
1, 14700, Note_on_c, 1, 73, 127
1, 14790, Note_off_c, 1, 73, 0
1, 14820, Note_on_c, 1, 27, 127
1, 14880, Note_off_c, 1, 27, 0
1, 14880, Note_on_c, 1, 32, 127
1, 14940, Note_off_c, 1, 32, 0
1, 16260, Note_on_c, 1, 54, 127
1, 16289, Note_off_c, 1, 54, 0
1, 16290, Note_on_c, 1, 52, 127
1, 16319, Note_off_c, 1, 52, 0
1, 16320, Note_on_c, 1, 78, 127
1, 16349, Note_off_c, 1, 78, 0
1, 16350, Note_on_c, 1, 64, 127
1, 16380, Note_off_c, 1, 64, 0
1, 16380, Note_on_c, 1, 66, 127
1, 16410, Note_off_c, 1, 66, 0
1, 16920, Note_on_c, 1, 84, 127
1, 16949, Note_off_c, 1, 84, 0
1, 17160, Note_on_c, 1, 82, 127
1, 17189, Note_off_c, 1, 82, 0
1, 17400, Note_on_c, 1, 81, 127
1, 17429, Note_off_c, 1, 81, 0
1, 17520, Note_on_c, 1, 26, 127
1, 17550, Note_on_c, 1, 42, 127
1, 17579, Note_off_c, 1, 42, 0
1, 17580, Note_off_c, 1, 26, 0
1, 17730, Note_on_c, 1, 57, 127
1, 17730, Note_on_c, 1, 54, 127
1, 17759, Note_off_c, 1, 57, 0
1, 17759, Note_off_c, 1, 54, 0
1, 17760, Note_on_c, 1, 70, 127
1, 17760, Note_on_c, 1, 67, 127
1, 17760, Note_on_c, 1, 62, 127
1, 17760, Note_on_c, 1, 43, 127
1, 17760, Note_on_c, 1, 31, 127
1, 17760, Note_on_c, 1, 58, 127
1, 17760, Note_on_c, 1, 55, 127
1, 17789, Note_off_c, 1, 55, 0
1, 17790, Note_off_c, 1, 58, 0
1, 17790, Note_on_c, 1, 50, 127
1, 17819, Note_off_c, 1, 50, 0
1, 17820, Note_off_c, 1, 70, 0
1, 17820, Note_off_c, 1, 67, 0
1, 17820, Note_off_c, 1, 62, 0
1, 17820, Note_off_c, 1, 43, 0
1, 17820, Note_off_c, 1, 31, 0
1, 17820, Note_on_c, 1, 74, 127
1, 17820, Note_on_c, 1, 46, 127
1, 17849, Note_off_c, 1, 46, 0
1, 17850, Note_off_c, 1, 74, 0
1, 17880, Note_on_c, 1, 66, 127
1, 17880, Note_on_c, 1, 69, 127
1, 17880, Note_on_c, 1, 62, 127
1, 17880, Note_on_c, 1, 50, 127
1, 17880, Note_on_c, 1, 38, 127
1, 17880, Note_on_c, 1, 57, 127
1, 17880, Note_on_c, 1, 54, 127
1, 17909, Note_off_c, 1, 54, 0
1, 17910, Note_off_c, 1, 57, 0
1, 17940, Note_off_c, 1, 66, 0
1, 17940, Note_off_c, 1, 69, 0
1, 17940, Note_off_c, 1, 62, 0
1, 17940, Note_off_c, 1, 50, 0
1, 17940, Note_off_c, 1, 38, 0
1, 17940, Note_on_c, 1, 72, 127
1, 17940, Note_on_c, 1, 45, 127
1, 17969, Note_off_c, 1, 45, 0
1, 17970, Note_off_c, 1, 72, 0
1, 18000, Note_on_c, 1, 67, 127
1, 18000, Note_on_c, 1, 70, 127
1, 18000, Note_on_c, 1, 62, 127
1, 18000, Note_on_c, 1, 55, 127
1, 18000, Note_on_c, 1, 43, 127
1, 18030, Note_on_c, 1, 72, 127
1, 18030, Note_on_c, 1, 54, 127
1, 18059, Note_off_c, 1, 54, 0
1, 18060, Note_off_c, 1, 67, 0
1, 18060, Note_off_c, 1, 62, 0
1, 18060, Note_off_c, 1, 43, 0
1, 18060, Note_off_c, 1, 72, 0
1, 18089, Note_off_c, 1, 55, 0
1, 18090, Note_off_c, 1, 70, 0
1, 18090, Note_on_c, 1, 69, 127
1, 18090, Note_on_c, 1, 57, 127
1, 18119, Note_off_c, 1, 57, 0
1, 18120, Note_off_c, 1, 69, 0
1, 18120, Note_on_c, 1, 58, 127
1, 18149, Note_off_c, 1, 58, 0
1, 18150, Note_on_c, 1, 65, 127
1, 18150, Note_on_c, 1, 59, 127
1, 18179, Note_off_c, 1, 59, 0
1, 18180, Note_off_c, 1, 65, 0
1, 18180, Note_on_c, 1, 63, 127
1, 18180, Note_on_c, 1, 60, 127
1, 18209, Note_off_c, 1, 60, 0
1, 18210, Note_off_c, 1, 63, 0
1, 18240, Note_on_c, 1, 75, 127
1, 18240, Note_on_c, 1, 48, 127
1, 18240, Note_on_c, 1, 36, 127
1, 18300, Note_off_c, 1, 75, 0
1, 18300, Note_off_c, 1, 48, 0
1, 18300, Note_off_c, 1, 36, 0
1, 18300, Note_on_c, 1, 79, 127
1, 18300, Note_on_c, 1, 51, 127
1, 18329, Note_off_c, 1, 51, 0
1, 18330, Note_off_c, 1, 79, 0
1, 18360, Note_on_c, 1, 71, 127
1, 18360, Note_on_c, 1, 74, 127
1, 18360, Note_on_c, 1, 67, 127
1, 18360, Note_on_c, 1, 55, 127
1, 18360, Note_on_c, 1, 43, 127
1, 18360, Note_on_c, 1, 62, 127
1, 18360, Note_on_c, 1, 59, 127
1, 18389, Note_off_c, 1, 59, 0
1, 18390, Note_off_c, 1, 62, 0
1, 18420, Note_off_c, 1, 71, 0
1, 18420, Note_off_c, 1, 74, 0
1, 18420, Note_off_c, 1, 67, 0
1, 18420, Note_off_c, 1, 55, 0
1, 18420, Note_off_c, 1, 43, 0
1, 18420, Note_on_c, 1, 77, 127
1, 18420, Note_on_c, 1, 50, 127
1, 18449, Note_off_c, 1, 50, 0
1, 18450, Note_off_c, 1, 77, 0
1, 18480, Note_on_c, 1, 72, 127
1, 18480, Note_on_c, 1, 75, 127
1, 18480, Note_on_c, 1, 67, 127
1, 18480, Note_on_c, 1, 60, 127
1, 18480, Note_on_c, 1, 48, 127
1, 18510, Note_on_c, 1, 77, 127
1, 18510, Note_on_c, 1, 59, 127
1, 18539, Note_off_c, 1, 59, 0
1, 18540, Note_off_c, 1, 72, 0
1, 18540, Note_off_c, 1, 67, 0
1, 18540, Note_off_c, 1, 48, 0
1, 18540, Note_off_c, 1, 77, 0
1, 18569, Note_off_c, 1, 60, 0
1, 18570, Note_off_c, 1, 75, 0
1, 18570, Note_on_c, 1, 74, 127
1, 18570, Note_on_c, 1, 62, 127
1, 18599, Note_off_c, 1, 62, 0
1, 18600, Note_off_c, 1, 74, 0
1, 18600, Note_on_c, 1, 63, 127
1, 18630, Note_on_c, 1, 70, 127
1, 18659, Note_off_c, 1, 63, 0
1, 18660, Note_off_c, 1, 70, 0
1, 18660, Note_on_c, 1, 69, 127
1, 18690, Note_off_c, 1, 69, 0
1, 18720, Note_on_c, 1, 53, 127
1, 18720, Note_on_c, 1, 41, 127
1, 18780, Note_off_c, 1, 41, 0
1, 18840, Note_on_c, 1, 46, 127
1, 18840, Note_on_c, 1, 34, 127
1, 18899, Note_off_c, 1, 53, 0
1, 18900, Note_off_c, 1, 46, 0
1, 18900, Note_off_c, 1, 34, 0
1, 18900, Note_on_c, 1, 58, 127
1, 18930, Note_on_c, 1, 66, 127
1, 18960, Note_off_c, 1, 66, 0
1, 18960, Note_on_c, 1, 51, 127
1, 18960, Note_on_c, 1, 39, 127
1, 19019, Note_off_c, 1, 58, 0
1, 19020, Note_off_c, 1, 39, 0
1, 19080, Note_on_c, 1, 45, 127
1, 19080, Note_on_c, 1, 33, 127
1, 19139, Note_off_c, 1, 51, 0
1, 19140, Note_off_c, 1, 45, 0
1, 19140, Note_off_c, 1, 33, 0
1, 19140, Note_on_c, 1, 57, 127
1, 19170, Note_on_c, 1, 64, 127
1, 19200, Note_off_c, 1, 64, 0
1, 19200, Note_on_c, 1, 50, 127
1, 19200, Note_on_c, 1, 38, 127
1, 19259, Note_off_c, 1, 57, 0
1, 19260, Note_off_c, 1, 38, 0
1, 19320, Note_on_c, 1, 43, 127
1, 19320, Note_on_c, 1, 31, 127
1, 19379, Note_off_c, 1, 50, 0
1, 19380, Note_off_c, 1, 43, 0
1, 19380, Note_off_c, 1, 31, 0
1, 19380, Note_on_c, 1, 55, 127
1, 19439, Note_off_c, 1, 55, 0
1, 19440, Note_on_c, 1, 54, 127
1, 19499, Note_off_c, 1, 54, 0
1, 19560, Note_on_c, 1, 42, 127
1, 19560, Note_on_c, 1, 30, 127
1, 19620, Note_off_c, 1, 42, 0
1, 19620, Note_off_c, 1, 30, 0
1, 19620, Note_on_c, 1, 26, 127
1, 19620, Note_on_c, 1, 40, 127
1, 19649, Note_off_c, 1, 40, 0
1, 19680, Note_off_c, 1, 26, 0
1, 20070, Note_on_c, 1, 65, 127
1, 20100, Note_off_c, 1, 65, 0
1, 20130, Note_on_c, 1, 47, 127
1, 20159, Note_off_c, 1, 47, 0
1, 20160, Note_on_c, 1, 36, 127
1, 20220, Note_off_c, 1, 36, 0
1, 20220, Note_on_c, 1, 79, 127
1, 20250, Note_off_c, 1, 79, 0
1, 20280, Note_on_c, 1, 71, 127
1, 20340, Note_off_c, 1, 71, 0
1, 21840, Note_on_c, 1, 78, 127
1, 21900, Note_off_c, 1, 78, 0
1, 22230, Note_on_c, 1, 29, 127
1, 22260, Note_off_c, 1, 29, 0
1, 22260, Note_on_c, 1, 27, 127
1, 22290, Note_off_c, 1, 27, 0
1, 22320, Note_on_c, 1, 24, 127
1, 22350, Note_off_c, 1, 24, 0
1, 22350, Note_on_c, 1, 35, 127
1, 22380, Note_off_c, 1, 35, 0
1, 22380, Note_on_c, 1, 76, 127
1, 22410, Note_off_c, 1, 76, 0
1, 24390, Note_on_c, 1, 68, 127
1, 24420, Note_off_c, 1, 68, 0
1, 24570, Note_on_c, 1, 84, 127
1, 24600, Note_off_c, 1, 84, 0
1, 24690, Note_on_c, 1, 83, 127
1, 24720, Note_off_c, 1, 83, 0
1, 25980, Note_on_c, 1, 72, 127
1, 25980, Note_on_c, 1, 65, 127
1, 25980, Note_on_c, 1, 68, 127
1, 25980, Note_on_c, 1, 44, 127
1, 25980, Note_on_c, 1, 32, 127
1, 26009, Note_off_c, 1, 65, 0
1, 26009, Note_off_c, 1, 68, 0
1, 26009, Note_off_c, 1, 44, 0
1, 26009, Note_off_c, 1, 32, 0
1, 26010, Note_on_c, 1, 67, 127
1, 26010, Note_on_c, 1, 46, 127
1, 26010, Note_on_c, 1, 34, 127
1, 26039, Note_off_c, 1, 72, 0
1, 26039, Note_off_c, 1, 67, 0
1, 26039, Note_off_c, 1, 46, 0
1, 26039, Note_off_c, 1, 34, 0
1, 26040, Note_on_c, 1, 68, 127
1, 26040, Note_on_c, 1, 65, 127
1, 26040, Note_on_c, 1, 48, 127
1, 26040, Note_on_c, 1, 36, 127
1, 26069, Note_off_c, 1, 68, 0
1, 26069, Note_off_c, 1, 65, 0
1, 26070, Note_on_c, 1, 67, 127
1, 26070, Note_on_c, 1, 64, 127
1, 26099, Note_off_c, 1, 48, 0
1, 26099, Note_off_c, 1, 36, 0
1, 26099, Note_off_c, 1, 67, 0
1, 26099, Note_off_c, 1, 64, 0
1, 26100, Note_on_c, 1, 80, 127
1, 26100, Note_on_c, 1, 68, 127
1, 26100, Note_on_c, 1, 65, 127
1, 26100, Note_on_c, 1, 53, 127
1, 26100, Note_on_c, 1, 41, 127
1, 26129, Note_off_c, 1, 68, 0
1, 26129, Note_off_c, 1, 65, 0
1, 26130, Note_on_c, 1, 70, 127
1, 26130, Note_on_c, 1, 67, 127
1, 26159, Note_off_c, 1, 80, 0
1, 26159, Note_off_c, 1, 53, 0
1, 26159, Note_off_c, 1, 41, 0
1, 26159, Note_off_c, 1, 70, 0
1, 26159, Note_off_c, 1, 67, 0
1, 26160, Note_on_c, 1, 79, 127
1, 26160, Note_on_c, 1, 72, 127
1, 26160, Note_on_c, 1, 60, 127
1, 26160, Note_on_c, 1, 52, 127
1, 26160, Note_on_c, 1, 40, 127
1, 26189, Note_off_c, 1, 79, 0
1, 26190, Note_on_c, 1, 77, 127
1, 26219, Note_off_c, 1, 60, 0
1, 26219, Note_off_c, 1, 52, 0
1, 26219, Note_off_c, 1, 40, 0
1, 26219, Note_off_c, 1, 77, 0
1, 26220, Note_on_c, 1, 76, 127
1, 26220, Note_on_c, 1, 67, 127
1, 26220, Note_on_c, 1, 48, 127
1, 26220, Note_on_c, 1, 36, 127
1, 26249, Note_off_c, 1, 76, 0
1, 26250, Note_on_c, 1, 74, 127
1, 26279, Note_off_c, 1, 72, 0
1, 26279, Note_off_c, 1, 48, 0
1, 26279, Note_off_c, 1, 36, 0
1, 26279, Note_off_c, 1, 74, 0
1, 26280, Note_off_c, 1, 67, 0
1, 26280, Note_on_c, 1, 70, 127
1, 26280, Note_on_c, 1, 43, 127
1, 26280, Note_on_c, 1, 31, 127
1, 26339, Note_off_c, 1, 70, 0
1, 26339, Note_off_c, 1, 43, 0
1, 26339, Note_off_c, 1, 31, 0
1, 26340, Note_on_c, 1, 46, 127
1, 26340, Note_on_c, 1, 34, 127
1, 26370, Note_on_c, 1, 75, 127
1, 26399, Note_off_c, 1, 46, 0
1, 26399, Note_off_c, 1, 34, 0
1, 26399, Note_off_c, 1, 75, 0
1, 26400, Note_on_c, 1, 45, 127
1, 26400, Note_on_c, 1, 33, 127
1, 26459, Note_off_c, 1, 45, 0
1, 26459, Note_off_c, 1, 33, 0
1, 26460, Note_on_c, 1, 69, 127
1, 26460, Note_on_c, 1, 41, 127
1, 26460, Note_on_c, 1, 29, 127
1, 26489, Note_off_c, 1, 69, 0
1, 26519, Note_off_c, 1, 41, 0
1, 26519, Note_off_c, 1, 29, 0
1, 26520, Note_on_c, 1, 51, 127
1, 26520, Note_on_c, 1, 39, 127
1, 26550, Note_on_c, 1, 65, 127
1, 26550, Note_on_c, 1, 81, 127
1, 26579, Note_off_c, 1, 65, 0
1, 26579, Note_off_c, 1, 81, 0
1, 26580, Note_on_c, 1, 82, 127
1, 26609, Note_off_c, 1, 82, 0
1, 26610, Note_on_c, 1, 84, 127
1, 26639, Note_off_c, 1, 84, 0
1, 26699, Note_off_c, 1, 51, 0
1, 26699, Note_off_c, 1, 39, 0
1, 26700, Note_on_c, 1, 50, 127
1, 26700, Note_on_c, 1, 38, 127
1, 26729, Note_off_c, 1, 50, 0
1, 26729, Note_off_c, 1, 38, 0
1, 26790, Note_on_c, 1, 80, 127
1, 26819, Note_off_c, 1, 80, 0
1, 26820, Note_on_c, 1, 62, 127
1, 26879, Note_off_c, 1, 62, 0
1, 26880, Note_on_c, 1, 63, 127
1, 26910, Note_on_c, 1, 68, 127
1, 26939, Note_off_c, 1, 63, 0
1, 26939, Note_off_c, 1, 68, 0
1, 26940, Note_on_c, 1, 64, 127
1, 27000, Note_on_c, 1, 49, 127
1, 27000, Note_on_c, 1, 37, 127
1, 27059, Note_off_c, 1, 64, 0
1, 27059, Note_off_c, 1, 49, 0
1, 27059, Note_off_c, 1, 37, 0
1, 27060, Note_on_c, 1, 73, 127
1, 27089, Note_off_c, 1, 73, 0
1, 27120, Note_on_c, 1, 28, 127
1, 27179, Note_off_c, 1, 28, 0
1, 27180, Note_on_c, 1, 76, 127
1, 27180, Note_on_c, 1, 72, 127
1, 27180, Note_on_c, 1, 55, 127
1, 27180, Note_on_c, 1, 48, 127
1, 27180, Note_on_c, 1, 36, 127
1, 27209, Note_off_c, 1, 76, 0
1, 27209, Note_off_c, 1, 72, 0
1, 27210, Note_on_c, 1, 74, 127
1, 27210, Note_on_c, 1, 70, 127
1, 27239, Note_off_c, 1, 55, 0
1, 27239, Note_off_c, 1, 48, 0
1, 27239, Note_off_c, 1, 36, 0
1, 27239, Note_off_c, 1, 74, 0
1, 27239, Note_off_c, 1, 70, 0
1, 27240, Note_on_c, 1, 72, 127
1, 27240, Note_on_c, 1, 68, 127
1, 27240, Note_on_c, 1, 56, 127
1, 27240, Note_on_c, 1, 41, 127
1, 27240, Note_on_c, 1, 29, 127
1, 27269, Note_off_c, 1, 72, 0
1, 27269, Note_off_c, 1, 68, 0
1, 27270, Note_on_c, 1, 70, 127
1, 27270, Note_on_c, 1, 67, 127
1, 27299, Note_off_c, 1, 56, 0
1, 27299, Note_off_c, 1, 41, 0
1, 27299, Note_off_c, 1, 29, 0
1, 27299, Note_off_c, 1, 70, 0
1, 27299, Note_off_c, 1, 67, 0
1, 27300, Note_on_c, 1, 68, 127
1, 27300, Note_on_c, 1, 65, 127
1, 27300, Note_on_c, 1, 58, 127
1, 27300, Note_on_c, 1, 49, 127
1, 27300, Note_on_c, 1, 37, 127
1, 27329, Note_off_c, 1, 68, 0
1, 27329, Note_off_c, 1, 65, 0
1, 27330, Note_on_c, 1, 67, 127
1, 27330, Note_on_c, 1, 64, 127
1, 27359, Note_off_c, 1, 58, 0
1, 27359, Note_off_c, 1, 49, 0
1, 27359, Note_off_c, 1, 37, 0
1, 27359, Note_off_c, 1, 67, 0
1, 27359, Note_off_c, 1, 64, 0
1, 27360, Note_on_c, 1, 68, 127
1, 27360, Note_on_c, 1, 65, 127
1, 27360, Note_on_c, 1, 60, 127
1, 27360, Note_on_c, 1, 48, 127
1, 27360, Note_on_c, 1, 36, 127
1, 27419, Note_off_c, 1, 65, 0
1, 27419, Note_off_c, 1, 60, 0
1, 27419, Note_off_c, 1, 48, 0
1, 27419, Note_off_c, 1, 36, 0
1, 27420, Note_on_c, 1, 77, 127
1, 27420, Note_on_c, 1, 61, 127
1, 27420, Note_on_c, 1, 46, 127
1, 27420, Note_on_c, 1, 34, 127
1, 27449, Note_off_c, 1, 68, 0
1, 27450, Note_on_c, 1, 70, 127
1, 27479, Note_off_c, 1, 61, 0
1, 27479, Note_off_c, 1, 46, 0
1, 27479, Note_off_c, 1, 34, 0
1, 27479, Note_off_c, 1, 70, 0
1, 27480, Note_on_c, 1, 67, 127
1, 27480, Note_on_c, 1, 55, 127
1, 27539, Note_off_c, 1, 77, 0
1, 27539, Note_off_c, 1, 55, 0
1, 27540, Note_on_c, 1, 76, 127
1, 27540, Note_on_c, 1, 24, 127
1, 27569, Note_off_c, 1, 67, 0
1, 27599, Note_off_c, 1, 76, 0
1, 27599, Note_off_c, 1, 24, 0
1, 27600, Note_on_c, 1, 65, 127
1, 27600, Note_on_c, 1, 77, 127
1, 27600, Note_on_c, 1, 56, 127
1, 27600, Note_on_c, 1, 41, 127
1, 27600, Note_on_c, 1, 29, 127
1, 27659, Note_off_c, 1, 41, 0
1, 27659, Note_off_c, 1, 29, 0
1, 27660, Note_on_c, 1, 53, 127
1, 27660, Note_on_c, 1, 76, 127
1, 27660, Note_on_c, 1, 44, 127
1, 27689, Note_off_c, 1, 76, 0
1, 27690, Note_on_c, 1, 74, 127
1, 27719, Note_off_c, 1, 65, 0
1, 27719, Note_off_c, 1, 77, 0
1, 27719, Note_off_c, 1, 56, 0
1, 27719, Note_off_c, 1, 53, 0
1, 27719, Note_off_c, 1, 44, 0
1, 27719, Note_off_c, 1, 74, 0
1, 27720, Note_on_c, 1, 52, 127
1, 27720, Note_on_c, 1, 40, 127
1, 27720, Note_on_c, 1, 72, 127
1, 27720, Note_on_c, 1, 48, 127
1, 27749, Note_off_c, 1, 72, 0
1, 27749, Note_off_c, 1, 48, 0
1, 27750, Note_on_c, 1, 70, 127
1, 27750, Note_on_c, 1, 67, 127
1, 27750, Note_on_c, 1, 61, 127
1, 27779, Note_off_c, 1, 52, 0
1, 27779, Note_off_c, 1, 40, 0
1, 27779, Note_off_c, 1, 70, 0
1, 27779, Note_off_c, 1, 67, 0
1, 27779, Note_off_c, 1, 61, 0
1, 27780, Note_on_c, 1, 48, 127
1, 27780, Note_on_c, 1, 36, 127
1, 27780, Note_on_c, 1, 68, 127
1, 27780, Note_on_c, 1, 65, 127
1, 27780, Note_on_c, 1, 60, 127
1, 27780, Note_on_c, 1, 53, 127
1, 27809, Note_off_c, 1, 68, 0
1, 27809, Note_off_c, 1, 65, 0
1, 27809, Note_off_c, 1, 60, 0
1, 27809, Note_off_c, 1, 53, 0
1, 27810, Note_on_c, 1, 67, 127
1, 27810, Note_on_c, 1, 64, 127
1, 27810, Note_on_c, 1, 58, 127
1, 27810, Note_on_c, 1, 55, 127
1, 27839, Note_off_c, 1, 48, 0
1, 27839, Note_off_c, 1, 36, 0
1, 27839, Note_off_c, 1, 67, 0
1, 27839, Note_off_c, 1, 64, 0
1, 27839, Note_off_c, 1, 58, 0
1, 27839, Note_off_c, 1, 55, 0
1, 27840, Note_on_c, 1, 60, 127
1, 27840, Note_on_c, 1, 53, 127
1, 27840, Note_on_c, 1, 41, 127
1, 27840, Note_on_c, 1, 65, 127
1, 27840, Note_on_c, 1, 56, 127
1, 27840, Note_on_c, 1, 48, 127
1, 27869, Note_off_c, 1, 65, 0
1, 27869, Note_off_c, 1, 56, 0
1, 27870, Note_on_c, 1, 68, 127
1, 27899, Note_off_c, 1, 53, 0
1, 27899, Note_off_c, 1, 41, 0
1, 27899, Note_off_c, 1, 48, 0
1, 27899, Note_off_c, 1, 68, 0
1, 27900, Note_on_c, 1, 72, 127
1, 27929, Note_off_c, 1, 72, 0
1, 27930, Note_on_c, 1, 77, 127
1, 27959, Note_off_c, 1, 77, 0
1, 27960, Note_on_c, 1, 67, 127
1, 27960, Note_on_c, 1, 58, 127
1, 27989, Note_off_c, 1, 67, 0
1, 27989, Note_off_c, 1, 58, 0
1, 27990, Note_on_c, 1, 70, 127
1, 28019, Note_off_c, 1, 70, 0
1, 28050, Note_on_c, 1, 76, 127
1, 28079, Note_off_c, 1, 76, 0
1, 28200, Note_on_c, 1, 64, 127
1, 28200, Note_on_c, 1, 55, 127
1, 28229, Note_off_c, 1, 64, 0
1, 28229, Note_off_c, 1, 55, 0
1, 28440, Note_on_c, 1, 52, 127
1, 28440, Note_on_c, 1, 40, 127
1, 28499, Note_off_c, 1, 52, 0
1, 28499, Note_off_c, 1, 40, 0
1, 28500, Note_on_c, 1, 36, 127
1, 28559, Note_off_c, 1, 36, 0
1, 28620, Note_on_c, 1, 29, 127
1, 28649, Note_off_c, 1, 29, 0
1, 28650, Note_on_c, 1, 43, 127
1, 28650, Note_on_c, 1, 31, 127
1, 28679, Note_off_c, 1, 43, 0
1, 28679, Note_off_c, 1, 31, 0
1, 28680, Note_off_c, 1, 60, 0
1, 28680, Note_on_c, 1, 44, 127
1, 28680, Note_on_c, 1, 32, 127
1, 28710, Note_on_c, 1, 66, 127
1, 28710, Note_on_c, 1, 57, 127
1, 28710, Note_on_c, 1, 75, 127
1, 28739, Note_off_c, 1, 44, 0
1, 28739, Note_off_c, 1, 32, 0
1, 28739, Note_off_c, 1, 66, 0
1, 28739, Note_off_c, 1, 57, 0
1, 28739, Note_off_c, 1, 75, 0
1, 28740, Note_on_c, 1, 41, 127
1, 28740, Note_on_c, 1, 29, 127
1, 28740, Note_on_c, 1, 65, 127
1, 28740, Note_on_c, 1, 58, 127
1, 28740, Note_on_c, 1, 73, 127
1, 28740, Note_on_c, 1, 70, 127
1, 28769, Note_off_c, 1, 65, 0
1, 28769, Note_off_c, 1, 58, 0
1, 28769, Note_off_c, 1, 73, 0
1, 28769, Note_off_c, 1, 70, 0
1, 28770, Note_on_c, 1, 63, 127
1, 28770, Note_on_c, 1, 60, 127
1, 28770, Note_on_c, 1, 72, 127
1, 28770, Note_on_c, 1, 69, 127
1, 28799, Note_off_c, 1, 41, 0
1, 28799, Note_off_c, 1, 29, 0
1, 28799, Note_off_c, 1, 63, 0
1, 28799, Note_off_c, 1, 60, 0
1, 28799, Note_off_c, 1, 72, 0
1, 28799, Note_off_c, 1, 69, 0
1, 28800, Note_on_c, 1, 65, 127
1, 28800, Note_on_c, 1, 53, 127
1, 28800, Note_on_c, 1, 46, 127
1, 28800, Note_on_c, 1, 34, 127
1, 28800, Note_on_c, 1, 61, 127
1, 28800, Note_on_c, 1, 70, 127
1, 28829, Note_off_c, 1, 61, 0
1, 28829, Note_off_c, 1, 70, 0
1, 28830, Note_on_c, 1, 73, 127
1, 28859, Note_off_c, 1, 46, 0
1, 28859, Note_off_c, 1, 34, 0
1, 28859, Note_off_c, 1, 73, 0
1, 28860, Note_on_c, 1, 77, 127
1, 28889, Note_off_c, 1, 77, 0
1, 28890, Note_on_c, 1, 82, 127
1, 28919, Note_off_c, 1, 82, 0
1, 28920, Note_on_c, 1, 63, 127
1, 28920, Note_on_c, 1, 72, 127
1, 28949, Note_off_c, 1, 63, 0
1, 28949, Note_off_c, 1, 72, 0
1, 28950, Note_on_c, 1, 75, 127
1, 28979, Note_off_c, 1, 75, 0
1, 29010, Note_on_c, 1, 81, 127
1, 29039, Note_off_c, 1, 81, 0
1, 29160, Note_on_c, 1, 60, 127
1, 29160, Note_on_c, 1, 69, 127
1, 29189, Note_off_c, 1, 60, 0
1, 29189, Note_off_c, 1, 69, 0
1, 29340, Note_on_c, 1, 58, 127
1, 29399, Note_off_c, 1, 58, 0
1, 29400, Note_on_c, 1, 57, 127
1, 29400, Note_on_c, 1, 45, 127
1, 29459, Note_off_c, 1, 57, 0
1, 29459, Note_off_c, 1, 45, 0
1, 29460, Note_on_c, 1, 41, 127
1, 29519, Note_off_c, 1, 41, 0
1, 29610, Note_on_c, 1, 48, 127
1, 29610, Note_on_c, 1, 36, 127
1, 29639, Note_off_c, 1, 48, 0
1, 29639, Note_off_c, 1, 36, 0
1, 29640, Note_off_c, 1, 65, 0
1, 29640, Note_off_c, 1, 53, 0
1, 29640, Note_on_c, 1, 49, 127
1, 29640, Note_on_c, 1, 37, 127
1, 29670, Note_on_c, 1, 56, 127
1, 29699, Note_off_c, 1, 49, 0
1, 29699, Note_off_c, 1, 37, 0
1, 29699, Note_off_c, 1, 56, 0
1, 29700, Note_on_c, 1, 46, 127
1, 29700, Note_on_c, 1, 34, 127
1, 29700, Note_on_c, 1, 63, 127
1, 29700, Note_on_c, 1, 73, 127
1, 29700, Note_on_c, 1, 55, 127
1, 29729, Note_off_c, 1, 63, 0
1, 29729, Note_off_c, 1, 55, 0
1, 29730, Note_on_c, 1, 65, 127
1, 29730, Note_on_c, 1, 53, 127
1, 29759, Note_off_c, 1, 46, 0
1, 29759, Note_off_c, 1, 34, 0
1, 29759, Note_off_c, 1, 65, 0
1, 29759, Note_off_c, 1, 53, 0
1, 29760, Note_on_c, 1, 51, 127
1, 29760, Note_on_c, 1, 39, 127
1, 29760, Note_on_c, 1, 67, 127
1, 29789, Note_off_c, 1, 67, 0
1, 29819, Note_off_c, 1, 73, 0
1, 29819, Note_off_c, 1, 51, 0
1, 29819, Note_off_c, 1, 39, 0
1, 29820, Note_on_c, 1, 70, 127
1, 29820, Note_on_c, 1, 67, 127
1, 29820, Note_on_c, 1, 61, 127
1, 29820, Note_on_c, 1, 58, 127
1, 29820, Note_on_c, 1, 63, 127
1, 29850, Note_off_c, 1, 70, 0
1, 29850, Note_off_c, 1, 67, 0
1, 29850, Note_off_c, 1, 61, 0
1, 29850, Note_on_c, 1, 68, 127
1, 29850, Note_on_c, 1, 65, 127
1, 29850, Note_on_c, 1, 60, 127
1, 29879, Note_off_c, 1, 58, 0
1, 29879, Note_off_c, 1, 63, 0
1, 29880, Note_off_c, 1, 68, 0
1, 29880, Note_off_c, 1, 65, 0
1, 29880, Note_off_c, 1, 60, 0
1, 29880, Note_on_c, 1, 73, 127
1, 29940, Note_on_c, 1, 39, 127
1, 29940, Note_on_c, 1, 27, 127
1, 29940, Note_on_c, 1, 51, 127
1, 29999, Note_off_c, 1, 39, 0
1, 29999, Note_off_c, 1, 27, 0
1, 29999, Note_off_c, 1, 51, 0
1, 30000, Note_on_c, 1, 44, 127
1, 30000, Note_on_c, 1, 32, 127
1, 30000, Note_on_c, 1, 56, 127
1, 30029, Note_off_c, 1, 56, 0
1, 30059, Note_off_c, 1, 73, 0
1, 30059, Note_off_c, 1, 44, 0
1, 30059, Note_off_c, 1, 32, 0
1, 30060, Note_on_c, 1, 72, 127
1, 30060, Note_on_c, 1, 68, 127
1, 30060, Note_on_c, 1, 63, 127
1, 30060, Note_on_c, 1, 60, 127
1, 30089, Note_off_c, 1, 60, 0
1, 30090, Note_off_c, 1, 72, 0
1, 30090, Note_off_c, 1, 68, 0
1, 30090, Note_on_c, 1, 73, 127
1, 30090, Note_on_c, 1, 67, 127
1, 30090, Note_on_c, 1, 61, 127
1, 30090, Note_on_c, 1, 70, 127
1, 30090, Note_on_c, 1, 58, 127
1, 30119, Note_off_c, 1, 63, 0
1, 30119, Note_off_c, 1, 70, 0
1, 30119, Note_off_c, 1, 58, 0
1, 30120, Note_off_c, 1, 73, 0
1, 30120, Note_off_c, 1, 67, 0
1, 30120, Note_off_c, 1, 61, 0
1, 30120, Note_on_c, 1, 56, 127
1, 30150, Note_on_c, 1, 55, 127
1, 30179, Note_off_c, 1, 56, 0
1, 30179, Note_off_c, 1, 55, 0
1, 30180, Note_on_c, 1, 44, 127
1, 30180, Note_on_c, 1, 32, 127
1, 30209, Note_off_c, 1, 44, 0
1, 30209, Note_off_c, 1, 32, 0
1, 30210, Note_on_c, 1, 46, 127
1, 30210, Note_on_c, 1, 34, 127
1, 30210, Note_on_c, 1, 74, 127
1, 30210, Note_on_c, 1, 53, 127
1, 30239, Note_off_c, 1, 46, 0
1, 30239, Note_off_c, 1, 34, 0
1, 30239, Note_off_c, 1, 74, 0
1, 30239, Note_off_c, 1, 53, 0
1, 30240, Note_on_c, 1, 48, 127
1, 30240, Note_on_c, 1, 36, 127
1, 30240, Note_on_c, 1, 76, 127
1, 30269, Note_off_c, 1, 76, 0
1, 30299, Note_off_c, 1, 48, 0
1, 30299, Note_off_c, 1, 36, 0
1, 30300, Note_on_c, 1, 72, 127
1, 30300, Note_on_c, 1, 67, 127
1, 30300, Note_on_c, 1, 64, 127
1, 30300, Note_on_c, 1, 76, 127
1, 30300, Note_on_c, 1, 60, 127
1, 30329, Note_off_c, 1, 76, 0
1, 30330, Note_off_c, 1, 72, 0
1, 30330, Note_off_c, 1, 64, 0
1, 30330, Note_on_c, 1, 74, 127
1, 30330, Note_on_c, 1, 68, 127
1, 30330, Note_on_c, 1, 62, 127
1, 30330, Note_on_c, 1, 77, 127
1, 30359, Note_off_c, 1, 67, 0
1, 30359, Note_off_c, 1, 60, 0
1, 30359, Note_off_c, 1, 77, 0
1, 30360, Note_off_c, 1, 74, 0
1, 30360, Note_off_c, 1, 68, 0
1, 30360, Note_off_c, 1, 62, 0
1, 30360, Note_on_c, 1, 70, 127
1, 30420, Note_on_c, 1, 36, 127
1, 30420, Note_on_c, 1, 24, 127
1, 30420, Note_on_c, 1, 79, 127
1, 30449, Note_off_c, 1, 79, 0
1, 30479, Note_off_c, 1, 36, 0
1, 30479, Note_off_c, 1, 24, 0
1, 30480, Note_on_c, 1, 41, 127
1, 30480, Note_on_c, 1, 29, 127
1, 30480, Note_on_c, 1, 65, 127
1, 30509, Note_off_c, 1, 65, 0
1, 30539, Note_off_c, 1, 70, 0
1, 30539, Note_off_c, 1, 41, 0
1, 30539, Note_off_c, 1, 29, 0
1, 30540, Note_on_c, 1, 77, 127
1, 30540, Note_on_c, 1, 68, 127
1, 30540, Note_on_c, 1, 60, 127
1, 30540, Note_on_c, 1, 65, 127
1, 30570, Note_off_c, 1, 77, 0
1, 30570, Note_off_c, 1, 68, 0
1, 30570, Note_on_c, 1, 76, 127
1, 30570, Note_on_c, 1, 70, 127
1, 30570, Note_on_c, 1, 58, 127
1, 30570, Note_on_c, 1, 67, 127
1, 30599, Note_off_c, 1, 60, 0
1, 30599, Note_off_c, 1, 65, 0
1, 30599, Note_off_c, 1, 67, 0
1, 30600, Note_off_c, 1, 76, 0
1, 30600, Note_off_c, 1, 70, 0
1, 30600, Note_off_c, 1, 58, 0
1, 30600, Note_on_c, 1, 72, 127
1, 30600, Note_on_c, 1, 56, 127
1, 30600, Note_on_c, 1, 53, 127
1, 30659, Note_off_c, 1, 53, 0
1, 30660, Note_off_c, 1, 72, 0
1, 30660, Note_off_c, 1, 56, 0
1, 30660, Note_on_c, 1, 38, 127
1, 30660, Note_on_c, 1, 26, 127
1, 30660, Note_on_c, 1, 62, 127
1, 30660, Note_on_c, 1, 55, 127
1, 30689, Note_off_c, 1, 55, 0
1, 30690, Note_on_c, 1, 57, 127
1, 30719, Note_off_c, 1, 38, 0
1, 30719, Note_off_c, 1, 26, 0
1, 30719, Note_off_c, 1, 62, 0
1, 30719, Note_off_c, 1, 57, 0
1, 30720, Note_on_c, 1, 43, 127
1, 30720, Note_on_c, 1, 31, 127
1, 30720, Note_on_c, 1, 59, 127
1, 30749, Note_off_c, 1, 59, 0
1, 30779, Note_off_c, 1, 43, 0
1, 30779, Note_off_c, 1, 31, 0
1, 30780, Note_on_c, 1, 77, 127
1, 30780, Note_on_c, 1, 74, 127
1, 30780, Note_on_c, 1, 67, 127
1, 30780, Note_on_c, 1, 59, 127
1, 30780, Note_on_c, 1, 50, 127
1, 30809, Note_off_c, 1, 59, 0
1, 30810, Note_off_c, 1, 77, 0
1, 30810, Note_off_c, 1, 74, 0
1, 30810, Note_on_c, 1, 75, 127
1, 30810, Note_on_c, 1, 72, 127
1, 30810, Note_on_c, 1, 60, 127
1, 30839, Note_off_c, 1, 50, 0
1, 30839, Note_off_c, 1, 60, 0
1, 30840, Note_off_c, 1, 67, 0
1, 30840, Note_off_c, 1, 75, 0
1, 30840, Note_off_c, 1, 72, 0
1, 30840, Note_on_c, 1, 62, 127
1, 30900, Note_on_c, 1, 43, 127
1, 30900, Note_on_c, 1, 31, 127
1, 30929, Note_off_c, 1, 62, 0
1, 30959, Note_off_c, 1, 43, 0
1, 30959, Note_off_c, 1, 31, 0
1, 30960, Note_on_c, 1, 48, 127
1, 30960, Note_on_c, 1, 36, 127
1, 31019, Note_off_c, 1, 48, 0
1, 31019, Note_off_c, 1, 36, 0
1, 31020, Note_on_c, 1, 75, 127
1, 31020, Note_on_c, 1, 67, 127
1, 31020, Note_on_c, 1, 60, 127
1, 31020, Note_on_c, 1, 51, 127
1, 31049, Note_off_c, 1, 51, 0
1, 31050, Note_off_c, 1, 75, 0
1, 31050, Note_off_c, 1, 60, 0
1, 31050, Note_on_c, 1, 74, 127
1, 31050, Note_on_c, 1, 65, 127
1, 31050, Note_on_c, 1, 59, 127
1, 31050, Note_on_c, 1, 62, 127
1, 31050, Note_on_c, 1, 50, 127
1, 31079, Note_off_c, 1, 67, 0
1, 31079, Note_off_c, 1, 62, 0
1, 31079, Note_off_c, 1, 50, 0
1, 31080, Note_off_c, 1, 74, 0
1, 31080, Note_off_c, 1, 65, 0
1, 31080, Note_off_c, 1, 59, 0
1, 31080, Note_on_c, 1, 72, 127
1, 31080, Note_on_c, 1, 63, 127
1, 31080, Note_on_c, 1, 48, 127
1, 31109, Note_off_c, 1, 48, 0
1, 31110, Note_on_c, 1, 46, 127
1, 31139, Note_off_c, 1, 46, 0
1, 31140, Note_off_c, 1, 72, 0
1, 31140, Note_on_c, 1, 36, 127
1, 31169, Note_off_c, 1, 63, 0
1, 31169, Note_off_c, 1, 36, 0
1, 31170, Note_on_c, 1, 49, 127
1, 31170, Note_on_c, 1, 37, 127
1, 31170, Note_on_c, 1, 44, 127
1, 31199, Note_off_c, 1, 49, 0
1, 31199, Note_off_c, 1, 37, 0
1, 31199, Note_off_c, 1, 44, 0
1, 31200, Note_on_c, 1, 39, 127
1, 31259, Note_off_c, 1, 39, 0
1, 31260, Note_on_c, 1, 73, 127
1, 31260, Note_on_c, 1, 63, 127
1, 31260, Note_on_c, 1, 58, 127
1, 31260, Note_on_c, 1, 67, 127
1, 31289, Note_off_c, 1, 67, 0
1, 31290, Note_off_c, 1, 73, 0
1, 31290, Note_on_c, 1, 72, 127
1, 31290, Note_on_c, 1, 65, 127
1, 31290, Note_on_c, 1, 60, 127
1, 31290, Note_on_c, 1, 68, 127
1, 31319, Note_off_c, 1, 63, 0
1, 31319, Note_off_c, 1, 58, 0
1, 31319, Note_off_c, 1, 68, 0
1, 31320, Note_off_c, 1, 72, 0
1, 31320, Note_off_c, 1, 65, 0
1, 31320, Note_off_c, 1, 60, 0
1, 31320, Note_on_c, 1, 70, 127
1, 31320, Note_on_c, 1, 61, 127
1, 31380, Note_off_c, 1, 61, 0
1, 31380, Note_on_c, 1, 39, 127
1, 31380, Note_on_c, 1, 27, 127
1, 31380, Note_on_c, 1, 51, 127
1, 31409, Note_off_c, 1, 70, 0
1, 31439, Note_off_c, 1, 39, 0
1, 31439, Note_off_c, 1, 27, 0
1, 31439, Note_off_c, 1, 51, 0
1, 31440, Note_on_c, 1, 44, 127
1, 31440, Note_on_c, 1, 32, 127
1, 31440, Note_on_c, 1, 56, 127
1, 31469, Note_off_c, 1, 56, 0
1, 31470, Note_on_c, 1, 55, 127
1, 31499, Note_off_c, 1, 44, 0
1, 31499, Note_off_c, 1, 32, 0
1, 31499, Note_off_c, 1, 55, 0
1, 31500, Note_on_c, 1, 68, 127
1, 31500, Note_on_c, 1, 63, 127
1, 31500, Note_on_c, 1, 60, 127
1, 31500, Note_on_c, 1, 56, 127
1, 31530, Note_off_c, 1, 68, 0
1, 31530, Note_off_c, 1, 60, 0
1, 31530, Note_on_c, 1, 67, 127
1, 31530, Note_on_c, 1, 61, 127
1, 31530, Note_on_c, 1, 58, 127
1, 31559, Note_off_c, 1, 63, 0
1, 31559, Note_off_c, 1, 56, 0
1, 31559, Note_off_c, 1, 58, 0
1, 31560, Note_off_c, 1, 67, 0
1, 31560, Note_off_c, 1, 61, 0
1, 31560, Note_on_c, 1, 44, 127
1, 31619, Note_off_c, 1, 44, 0
1, 31620, Note_on_c, 1, 72, 127
1, 31650, Note_on_c, 1, 55, 127
1, 31650, Note_on_c, 1, 43, 127
1, 31679, Note_off_c, 1, 72, 0
1, 31679, Note_off_c, 1, 55, 0
1, 31679, Note_off_c, 1, 43, 0
1, 31680, Note_on_c, 1, 53, 127
1, 31680, Note_on_c, 1, 41, 127
1, 31680, Note_on_c, 1, 62, 127
1, 31709, Note_off_c, 1, 62, 0
1, 31739, Note_off_c, 1, 53, 0
1, 31739, Note_off_c, 1, 41, 0
1, 31740, Note_on_c, 1, 65, 127
1, 31740, Note_on_c, 1, 68, 127
1, 31770, Note_off_c, 1, 65, 0
1, 31770, Note_on_c, 1, 63, 127
1, 31799, Note_off_c, 1, 68, 0
1, 31800, Note_off_c, 1, 63, 0
1, 31800, Note_on_c, 1, 62, 127
1, 31800, Note_on_c, 1, 71, 127
1, 31829, Note_off_c, 1, 71, 0
1, 31830, Note_on_c, 1, 80, 127
1, 31859, Note_off_c, 1, 80, 0
1, 31860, Note_off_c, 1, 62, 0
1, 31860, Note_on_c, 1, 50, 127
1, 31860, Note_on_c, 1, 38, 127
1, 31860, Note_on_c, 1, 79, 127
1, 31860, Note_on_c, 1, 74, 127
1, 31860, Note_on_c, 1, 47, 127
1, 31889, Note_off_c, 1, 79, 0
1, 31890, Note_on_c, 1, 77, 127
1, 31919, Note_off_c, 1, 50, 0
1, 31919, Note_off_c, 1, 38, 0
1, 31919, Note_off_c, 1, 47, 0
1, 31919, Note_off_c, 1, 77, 0
1, 31920, Note_on_c, 1, 51, 127
1, 31920, Note_on_c, 1, 39, 127
1, 31979, Note_off_c, 1, 74, 0
1, 31979, Note_off_c, 1, 51, 0
1, 31979, Note_off_c, 1, 39, 0
1, 31980, Note_on_c, 1, 63, 127
1, 31980, Note_on_c, 1, 67, 127
1, 32010, Note_off_c, 1, 63, 0
1, 32010, Note_on_c, 1, 62, 127
1, 32010, Note_on_c, 1, 71, 127
1, 32039, Note_off_c, 1, 67, 0
1, 32039, Note_off_c, 1, 71, 0
1, 32040, Note_off_c, 1, 62, 0
1, 32040, Note_on_c, 1, 60, 127
1, 32040, Note_on_c, 1, 72, 127
1, 32069, Note_off_c, 1, 72, 0
1, 32070, Note_on_c, 1, 79, 127
1, 32099, Note_off_c, 1, 79, 0
1, 32100, Note_off_c, 1, 60, 0
1, 32100, Note_on_c, 1, 48, 127
1, 32100, Note_on_c, 1, 36, 127
1, 32100, Note_on_c, 1, 77, 127
1, 32100, Note_on_c, 1, 45, 127
1, 32129, Note_off_c, 1, 77, 0
1, 32130, Note_on_c, 1, 75, 127
1, 32159, Note_off_c, 1, 48, 0
1, 32159, Note_off_c, 1, 36, 0
1, 32159, Note_off_c, 1, 45, 0
1, 32159, Note_off_c, 1, 75, 0
1, 32160, Note_on_c, 1, 50, 127
1, 32160, Note_on_c, 1, 38, 127
1, 32160, Note_on_c, 1, 65, 127
1, 32189, Note_off_c, 1, 65, 0
1, 32219, Note_off_c, 1, 50, 0
1, 32219, Note_off_c, 1, 38, 0
1, 32220, Note_on_c, 1, 62, 127
1, 32220, Note_on_c, 1, 71, 127
1, 32220, Note_on_c, 1, 65, 127
1, 32249, Note_off_c, 1, 71, 0
1, 32250, Note_off_c, 1, 62, 0
1, 32250, Note_on_c, 1, 60, 127
1, 32250, Note_on_c, 1, 72, 127
1, 32279, Note_off_c, 1, 65, 0
1, 32279, Note_off_c, 1, 72, 0
1, 32280, Note_off_c, 1, 60, 0
1, 32280, Note_on_c, 1, 59, 127
1, 32280, Note_on_c, 1, 74, 127
1, 32309, Note_off_c, 1, 74, 0
1, 32310, Note_on_c, 1, 77, 127
1, 32339, Note_off_c, 1, 77, 0
1, 32340, Note_on_c, 1, 67, 127
1, 32340, Note_on_c, 1, 43, 127
1, 32340, Note_on_c, 1, 31, 127
1, 32340, Note_on_c, 1, 75, 127
1, 32369, Note_off_c, 1, 75, 0
1, 32399, Note_off_c, 1, 43, 0
1, 32399, Note_off_c, 1, 31, 0
1, 32400, Note_off_c, 1, 59, 0
1, 32400, Note_on_c, 1, 63, 127
1, 32400, Note_on_c, 1, 48, 127
1, 32400, Note_on_c, 1, 36, 127
1, 32430, Note_on_c, 1, 55, 127
1, 32459, Note_off_c, 1, 48, 0
1, 32459, Note_off_c, 1, 36, 0
1, 32459, Note_off_c, 1, 55, 0
1, 32460, Note_off_c, 1, 67, 0
1, 32460, Note_on_c, 1, 24, 127
1, 32460, Note_on_c, 1, 57, 127
1, 32489, Note_off_c, 1, 63, 0
1, 32489, Note_off_c, 1, 57, 0
1, 32519, Note_off_c, 1, 24, 0
1, 32550, Note_on_c, 1, 70, 127
1, 32579, Note_off_c, 1, 70, 0
1, 32580, Note_on_c, 1, 51, 127
1, 32580, Note_on_c, 1, 39, 127
1, 32580, Note_on_c, 1, 72, 127
1, 32580, Note_on_c, 1, 60, 127
1, 32580, Note_on_c, 1, 68, 127
1, 32580, Note_on_c, 1, 48, 127
1, 32609, Note_off_c, 1, 60, 0
1, 32609, Note_off_c, 1, 68, 0
1, 32610, Note_on_c, 1, 58, 127
1, 32610, Note_on_c, 1, 67, 127
1, 32639, Note_off_c, 1, 51, 0
1, 32639, Note_off_c, 1, 39, 0
1, 32639, Note_off_c, 1, 48, 0
1, 32639, Note_off_c, 1, 58, 0
1, 32639, Note_off_c, 1, 67, 0
1, 32640, Note_on_c, 1, 65, 127
1, 32640, Note_on_c, 1, 53, 127
1, 32640, Note_on_c, 1, 41, 127
1, 32640, Note_on_c, 1, 56, 127
1, 32669, Note_off_c, 1, 56, 0
1, 32670, Note_off_c, 1, 65, 0
1, 32670, Note_on_c, 1, 52, 127
1, 32699, Note_off_c, 1, 72, 0
1, 32699, Note_off_c, 1, 53, 0
1, 32699, Note_off_c, 1, 41, 0
1, 32699, Note_off_c, 1, 52, 0
1, 32700, Note_on_c, 1, 77, 127
1, 32700, Note_on_c, 1, 62, 127
1, 32729, Note_off_c, 1, 77, 0
1, 32729, Note_off_c, 1, 62, 0
1, 32730, Note_on_c, 1, 70, 127
1, 32730, Note_on_c, 1, 79, 127
1, 32730, Note_on_c, 1, 55, 127
1, 32730, Note_on_c, 1, 64, 127
1, 32759, Note_off_c, 1, 79, 0
1, 32759, Note_off_c, 1, 55, 0
1, 32759, Note_off_c, 1, 64, 0
1, 32760, Note_off_c, 1, 70, 0
1, 32760, Note_on_c, 1, 80, 127
1, 32819, Note_off_c, 1, 80, 0
1, 32880, Note_on_c, 1, 74, 127
1, 32880, Note_on_c, 1, 46, 127
1, 32910, Note_on_c, 1, 63, 127
1, 32939, Note_off_c, 1, 46, 0
1, 32939, Note_off_c, 1, 63, 0
1, 32940, Note_off_c, 1, 74, 0
1, 33000, Note_on_c, 1, 50, 127
1, 33000, Note_on_c, 1, 38, 127
1, 33059, Note_off_c, 1, 50, 0
1, 33059, Note_off_c, 1, 38, 0
1, 33060, Note_on_c, 1, 46, 127
1, 33060, Note_on_c, 1, 34, 127
1, 33060, Note_on_c, 1, 70, 127
1, 33060, Note_on_c, 1, 62, 127
1, 33060, Note_on_c, 1, 53, 127
1, 33089, Note_off_c, 1, 62, 0
1, 33090, Note_on_c, 1, 58, 127
1, 33119, Note_off_c, 1, 46, 0
1, 33119, Note_off_c, 1, 34, 0
1, 33119, Note_off_c, 1, 53, 0
1, 33119, Note_off_c, 1, 58, 0
1, 33120, Note_on_c, 1, 63, 127
1, 33120, Note_on_c, 1, 51, 127
1, 33120, Note_on_c, 1, 39, 127
1, 33120, Note_on_c, 1, 67, 127
1, 33149, Note_off_c, 1, 67, 0
1, 33150, Note_off_c, 1, 63, 0
1, 33150, Note_on_c, 1, 65, 127
1, 33150, Note_on_c, 1, 50, 127
1, 33179, Note_off_c, 1, 70, 0
1, 33179, Note_off_c, 1, 51, 0
1, 33179, Note_off_c, 1, 39, 0
1, 33179, Note_off_c, 1, 50, 0
1, 33180, Note_off_c, 1, 65, 0
1, 33180, Note_on_c, 1, 55, 127
1, 33180, Note_on_c, 1, 75, 127
1, 33180, Note_on_c, 1, 60, 127
1, 33209, Note_off_c, 1, 75, 0
1, 33209, Note_off_c, 1, 60, 0
1, 33210, Note_off_c, 1, 55, 0
1, 33210, Note_on_c, 1, 68, 127
1, 33210, Note_on_c, 1, 56, 127
1, 33210, Note_on_c, 1, 77, 127
1, 33239, Note_off_c, 1, 77, 0
1, 33240, Note_off_c, 1, 68, 0
1, 33240, Note_off_c, 1, 56, 0
1, 33240, Note_on_c, 1, 79, 127
1, 33299, Note_off_c, 1, 79, 0
1, 33360, Note_on_c, 1, 72, 127
1, 33360, Note_on_c, 1, 44, 127
1, 33390, Note_on_c, 1, 61, 127
1, 33419, Note_off_c, 1, 44, 0
1, 33419, Note_off_c, 1, 61, 0
1, 33420, Note_off_c, 1, 72, 0
1, 33420, Note_on_c, 1, 66, 127
1, 33480, Note_on_c, 1, 48, 127
1, 33480, Note_on_c, 1, 36, 127
1, 33509, Note_off_c, 1, 66, 0
1, 33539, Note_off_c, 1, 48, 0
1, 33539, Note_off_c, 1, 36, 0
1, 33540, Note_on_c, 1, 44, 127
1, 33540, Note_on_c, 1, 32, 127
1, 33540, Note_on_c, 1, 68, 127
1, 33540, Note_on_c, 1, 60, 127
1, 33540, Note_on_c, 1, 51, 127
1, 33569, Note_off_c, 1, 60, 0
1, 33570, Note_on_c, 1, 56, 127
1, 33599, Note_off_c, 1, 44, 0
1, 33599, Note_off_c, 1, 32, 0
1, 33599, Note_off_c, 1, 51, 0
1, 33599, Note_off_c, 1, 56, 0
1, 33600, Note_on_c, 1, 49, 127
1, 33600, Note_on_c, 1, 37, 127
1, 33600, Note_on_c, 1, 65, 127
1, 33629, Note_off_c, 1, 68, 0
1, 33630, Note_on_c, 1, 70, 127
1, 33630, Note_on_c, 1, 48, 127
1, 33659, Note_off_c, 1, 49, 0
1, 33659, Note_off_c, 1, 37, 0
1, 33659, Note_off_c, 1, 65, 0
1, 33659, Note_off_c, 1, 70, 0
1, 33659, Note_off_c, 1, 48, 0
1, 33660, Note_on_c, 1, 68, 127
1, 33660, Note_on_c, 1, 53, 127
1, 33660, Note_on_c, 1, 70, 127
1, 33660, Note_on_c, 1, 49, 127
1, 33675, Note_off_c, 1, 70, 0
1, 33690, Note_on_c, 1, 67, 127
1, 33719, Note_off_c, 1, 53, 0
1, 33719, Note_off_c, 1, 49, 0
1, 33719, Note_off_c, 1, 67, 0
1, 33720, Note_off_c, 1, 68, 0
1, 33720, Note_on_c, 1, 50, 127
1, 33720, Note_on_c, 1, 38, 127
1, 33720, Note_on_c, 1, 65, 127
1, 33749, Note_off_c, 1, 65, 0
1, 33750, Note_on_c, 1, 63, 127
1, 33779, Note_off_c, 1, 50, 0
1, 33779, Note_off_c, 1, 38, 0
1, 33779, Note_off_c, 1, 63, 0
1, 33780, Note_on_c, 1, 62, 127
1, 33780, Note_on_c, 1, 46, 127
1, 33809, Note_off_c, 1, 62, 0
1, 33810, Note_on_c, 1, 60, 127
1, 33839, Note_off_c, 1, 46, 0
1, 33839, Note_off_c, 1, 60, 0
1, 33840, Note_on_c, 1, 51, 127
1, 33840, Note_on_c, 1, 39, 127
1, 33840, Note_on_c, 1, 58, 127
1, 33869, Note_off_c, 1, 58, 0
1, 33870, Note_on_c, 1, 72, 127
1, 33899, Note_off_c, 1, 51, 0
1, 33899, Note_off_c, 1, 39, 0
1, 33899, Note_off_c, 1, 72, 0
1, 33900, Note_on_c, 1, 55, 127
1, 33959, Note_off_c, 1, 55, 0
1, 33960, Note_on_c, 1, 52, 127
1, 33960, Note_on_c, 1, 40, 127
1, 34019, Note_off_c, 1, 52, 0
1, 34019, Note_off_c, 1, 40, 0
1, 34020, Note_on_c, 1, 64, 127
1, 34020, Note_on_c, 1, 48, 127
1, 34049, Note_off_c, 1, 64, 0
1, 34079, Note_off_c, 1, 48, 0
1, 34080, Note_on_c, 1, 41, 127
1, 34139, Note_off_c, 1, 41, 0
1, 34140, Note_on_c, 1, 73, 127
1, 34155, Note_off_c, 1, 73, 0
1, 34200, Note_on_c, 1, 37, 127
1, 34259, Note_off_c, 1, 37, 0
1, 34260, Note_on_c, 1, 61, 127
1, 34289, Note_off_c, 1, 61, 0
1, 34320, Note_on_c, 1, 43, 127
1, 34379, Note_off_c, 1, 43, 0
1, 34380, Note_on_c, 1, 75, 127
1, 34395, Note_off_c, 1, 75, 0
1, 34560, Note_on_c, 1, 56, 127
1, 34560, Note_on_c, 1, 44, 127
1, 34619, Note_off_c, 1, 56, 0
1, 34619, Note_off_c, 1, 44, 0
1, 34620, Note_on_c, 1, 77, 127
1, 34649, Note_off_c, 1, 77, 0
1, 34650, Note_on_c, 1, 79, 127
1, 34679, Note_off_c, 1, 79, 0
1, 34680, Note_on_c, 1, 80, 127
1, 34709, Note_off_c, 1, 80, 0
1, 34710, Note_on_c, 1, 82, 127
1, 34739, Note_off_c, 1, 82, 0
1, 34740, Note_on_c, 1, 84, 127
1, 34769, Note_off_c, 1, 84, 0
1, 34800, Note_on_c, 1, 74, 127
1, 34829, Note_off_c, 1, 74, 0
1, 34860, Note_on_c, 1, 26, 127
1, 34889, Note_off_c, 1, 26, 0
1, 34890, Note_on_c, 1, 27, 127
1, 34919, Note_off_c, 1, 27, 0
1, 34920, Note_on_c, 1, 29, 127
1, 34979, Note_off_c, 1, 29, 0
1, 34980, Note_on_c, 1, 38, 127
1, 34980, Note_on_c, 1, 26, 127
1, 34980, Note_on_c, 1, 77, 127
1, 34980, Note_on_c, 1, 50, 127
1, 34980, Note_on_c, 1, 74, 127
1, 34980, Note_on_c, 1, 59, 127
1, 35009, Note_off_c, 1, 77, 0
1, 35009, Note_off_c, 1, 59, 0
1, 35010, Note_on_c, 1, 57, 127
1, 35039, Note_off_c, 1, 38, 0
1, 35039, Note_off_c, 1, 26, 0
1, 35039, Note_off_c, 1, 50, 0
1, 35039, Note_off_c, 1, 57, 0
1, 35040, Note_on_c, 1, 55, 127
1, 35040, Note_on_c, 1, 43, 127
1, 35040, Note_on_c, 1, 31, 127
1, 35040, Note_on_c, 1, 83, 127
1, 35069, Note_off_c, 1, 83, 0
1, 35070, Note_on_c, 1, 53, 127
1, 35099, Note_off_c, 1, 74, 0
1, 35099, Note_off_c, 1, 55, 0
1, 35099, Note_off_c, 1, 43, 0
1, 35099, Note_off_c, 1, 31, 0
1, 35099, Note_off_c, 1, 53, 0
1, 35100, Note_on_c, 1, 75, 127
1, 35100, Note_on_c, 1, 67, 127
1, 35129, Note_off_c, 1, 75, 0
1, 35129, Note_off_c, 1, 67, 0
1, 35130, Note_on_c, 1, 60, 127
1, 35130, Note_on_c, 1, 68, 127
1, 35159, Note_off_c, 1, 68, 0
1, 35160, Note_off_c, 1, 60, 0
1, 35160, Note_on_c, 1, 62, 127
1, 35160, Note_on_c, 1, 79, 127
1, 35160, Note_on_c, 1, 70, 127
1, 35189, Note_off_c, 1, 79, 0
1, 35190, Note_on_c, 1, 80, 127
1, 35219, Note_off_c, 1, 70, 0
1, 35219, Note_off_c, 1, 80, 0
1, 35220, Note_off_c, 1, 62, 0
1, 35220, Note_on_c, 1, 52, 127
1, 35220, Note_on_c, 1, 40, 127
1, 35220, Note_on_c, 1, 82, 127
1, 35249, Note_off_c, 1, 82, 0
1, 35279, Note_off_c, 1, 52, 0
1, 35279, Note_off_c, 1, 40, 0
1, 35280, Note_on_c, 1, 64, 127
1, 35280, Note_on_c, 1, 48, 127
1, 35280, Note_on_c, 1, 36, 127
1, 35280, Note_on_c, 1, 72, 127
1, 35309, Note_off_c, 1, 72, 0
1, 35310, Note_on_c, 1, 65, 127
1, 35339, Note_off_c, 1, 48, 0
1, 35339, Note_off_c, 1, 36, 0
1, 35339, Note_off_c, 1, 65, 0
1, 35340, Note_on_c, 1, 24, 127
1, 35369, Note_off_c, 1, 64, 0
1, 35369, Note_off_c, 1, 24, 0
1, 35400, Note_on_c, 1, 28, 127
1, 35430, Note_on_c, 1, 58, 127
1, 35459, Note_off_c, 1, 28, 0
1, 35459, Note_off_c, 1, 58, 0
1, 35460, Note_on_c, 1, 76, 127
1, 35460, Note_on_c, 1, 56, 127
1, 35489, Note_off_c, 1, 76, 0
1, 35489, Note_off_c, 1, 56, 0
1, 35520, Note_on_c, 1, 41, 127
1, 35520, Note_on_c, 1, 29, 127
1, 35579, Note_off_c, 1, 41, 0
1, 35579, Note_off_c, 1, 29, 0
1, 35580, Note_on_c, 1, 80, 127
1, 35580, Note_on_c, 1, 77, 127
1, 35580, Note_on_c, 1, 72, 127
1, 35580, Note_on_c, 1, 68, 127
1, 35580, Note_on_c, 1, 60, 127
1, 35609, Note_off_c, 1, 68, 0
1, 35609, Note_off_c, 1, 60, 0
1, 35610, Note_on_c, 1, 65, 127
1, 35639, Note_off_c, 1, 65, 0
1, 35670, Note_on_c, 1, 53, 127
1, 35699, Note_off_c, 1, 53, 0
1, 35700, Note_off_c, 1, 80, 0
1, 35700, Note_off_c, 1, 77, 0
1, 35700, Note_off_c, 1, 72, 0
1, 35700, Note_on_c, 1, 41, 127
1, 35700, Note_on_c, 1, 84, 127
1, 35700, Note_on_c, 1, 56, 127
1, 35729, Note_off_c, 1, 56, 0
1, 35759, Note_off_c, 1, 41, 0
1, 35760, Note_on_c, 1, 51, 127
1, 35760, Note_on_c, 1, 39, 127
1, 35760, Note_on_c, 1, 63, 127
1, 35790, Note_on_c, 1, 55, 127
1, 35819, Note_off_c, 1, 84, 0
1, 35819, Note_off_c, 1, 51, 0
1, 35819, Note_off_c, 1, 39, 0
1, 35819, Note_off_c, 1, 63, 0
1, 35819, Note_off_c, 1, 55, 0
1, 35820, Note_on_c, 1, 79, 127
1, 35820, Note_on_c, 1, 72, 127
1, 35820, Note_on_c, 1, 67, 127
1, 35820, Note_on_c, 1, 60, 127
1, 35849, Note_off_c, 1, 67, 0
1, 35849, Note_off_c, 1, 60, 0
1, 35850, Note_on_c, 1, 75, 127
1, 35850, Note_on_c, 1, 63, 127
1, 35879, Note_off_c, 1, 75, 0
1, 35879, Note_off_c, 1, 63, 0
1, 35940, Note_off_c, 1, 79, 0
1, 35940, Note_on_c, 1, 39, 127
1, 35940, Note_on_c, 1, 27, 127
1, 35940, Note_on_c, 1, 51, 127
1, 35999, Note_off_c, 1, 39, 0
1, 35999, Note_off_c, 1, 27, 0
1, 35999, Note_off_c, 1, 51, 0
1, 36000, Note_on_c, 1, 44, 127
1, 36000, Note_on_c, 1, 32, 127
1, 36000, Note_on_c, 1, 56, 127
1, 36030, Note_on_c, 1, 62, 127
1, 36030, Note_on_c, 1, 53, 127
1, 36059, Note_off_c, 1, 72, 0
1, 36059, Note_off_c, 1, 44, 0
1, 36059, Note_off_c, 1, 32, 0
1, 36059, Note_off_c, 1, 56, 0
1, 36059, Note_off_c, 1, 62, 0
1, 36059, Note_off_c, 1, 53, 0
1, 36060, Note_on_c, 1, 77, 127
1, 36060, Note_on_c, 1, 72, 127
1, 36060, Note_on_c, 1, 60, 127
1, 36060, Note_on_c, 1, 68, 127
1, 36060, Note_on_c, 1, 65, 127
1, 36060, Note_on_c, 1, 56, 127
1, 36089, Note_off_c, 1, 65, 0
1, 36089, Note_off_c, 1, 56, 0
1, 36090, Note_on_c, 1, 62, 127
1, 36119, Note_off_c, 1, 68, 0
1, 36119, Note_off_c, 1, 62, 0
1, 36120, Note_on_c, 1, 74, 127
1, 36149, Note_off_c, 1, 74, 0
1, 36180, Note_off_c, 1, 72, 0
1, 36180, Note_off_c, 1, 60, 0
1, 36180, Note_on_c, 1, 44, 127
1, 36239, Note_off_c, 1, 44, 0
1, 36240, Note_on_c, 1, 55, 127
1, 36240, Note_on_c, 1, 43, 127
1, 36240, Note_on_c, 1, 59, 127
1, 36269, Note_off_c, 1, 59, 0
1, 36270, Note_on_c, 1, 47, 127
1, 36299, Note_off_c, 1, 77, 0
1, 36299, Note_off_c, 1, 55, 0
1, 36299, Note_off_c, 1, 43, 0
1, 36299, Note_off_c, 1, 47, 0
1, 36300, Note_on_c, 1, 77, 127
1, 36300, Note_on_c, 1, 71, 127
1, 36300, Note_on_c, 1, 62, 127
1, 36300, Note_on_c, 1, 74, 127
1, 36300, Note_on_c, 1, 65, 127
1, 36300, Note_on_c, 1, 50, 127
1, 36329, Note_off_c, 1, 74, 0
1, 36329, Note_off_c, 1, 65, 0
1, 36329, Note_off_c, 1, 50, 0
1, 36330, Note_on_c, 1, 67, 127
1, 36330, Note_on_c, 1, 53, 127
1, 36359, Note_off_c, 1, 67, 0
1, 36359, Note_off_c, 1, 53, 0
1, 36360, Note_on_c, 1, 59, 127
1, 36390, Note_on_c, 1, 55, 127
1, 36419, Note_off_c, 1, 59, 0
1, 36419, Note_off_c, 1, 55, 0
1, 36420, Note_off_c, 1, 77, 0
1, 36420, Note_off_c, 1, 71, 0
1, 36420, Note_off_c, 1, 62, 0
1, 36420, Note_on_c, 1, 63, 127
1, 36420, Note_on_c, 1, 57, 127
1, 36449, Note_off_c, 1, 63, 0
1, 36449, Note_off_c, 1, 57, 0
1, 36450, Note_on_c, 1, 62, 127
1, 36450, Note_on_c, 1, 59, 127
1, 36479, Note_off_c, 1, 62, 0
1, 36479, Note_off_c, 1, 59, 0
1, 36480, Note_on_c, 1, 75, 127
1, 36480, Note_on_c, 1, 72, 127
1, 36480, Note_on_c, 1, 67, 127
1, 36480, Note_on_c, 1, 48, 127
1, 36480, Note_on_c, 1, 36, 127
1, 36480, Note_on_c, 1, 63, 127
1, 36480, Note_on_c, 1, 60, 127
1, 36509, Note_off_c, 1, 63, 0
1, 36509, Note_off_c, 1, 60, 0
1, 36510, Note_on_c, 1, 55, 127
1, 36539, Note_off_c, 1, 48, 0
1, 36539, Note_off_c, 1, 36, 0
1, 36539, Note_off_c, 1, 55, 0
1, 36540, Note_off_c, 1, 75, 0
1, 36540, Note_off_c, 1, 72, 0
1, 36540, Note_off_c, 1, 67, 0
1, 36540, Note_on_c, 1, 79, 127
1, 36540, Note_on_c, 1, 51, 127
1, 36569, Note_off_c, 1, 79, 0
1, 36569, Note_off_c, 1, 51, 0
1, 36570, Note_on_c, 1, 55, 127
1, 36599, Note_off_c, 1, 55, 0
1, 36600, Note_on_c, 1, 71, 127
1, 36600, Note_on_c, 1, 74, 127
1, 36600, Note_on_c, 1, 67, 127
1, 36600, Note_on_c, 1, 43, 127
1, 36600, Note_on_c, 1, 31, 127
1, 36600, Note_on_c, 1, 62, 127
1, 36600, Note_on_c, 1, 59, 127
1, 36629, Note_off_c, 1, 62, 0
1, 36629, Note_off_c, 1, 59, 0
1, 36630, Note_on_c, 1, 55, 127
1, 36659, Note_off_c, 1, 43, 0
1, 36659, Note_off_c, 1, 31, 0
1, 36659, Note_off_c, 1, 55, 0
1, 36660, Note_off_c, 1, 71, 0
1, 36660, Note_off_c, 1, 74, 0
1, 36660, Note_off_c, 1, 67, 0
1, 36660, Note_on_c, 1, 77, 127
1, 36660, Note_on_c, 1, 50, 127
1, 36689, Note_off_c, 1, 77, 0
1, 36689, Note_off_c, 1, 50, 0
1, 36690, Note_on_c, 1, 55, 127
1, 36719, Note_off_c, 1, 55, 0
1, 36720, Note_on_c, 1, 72, 127
1, 36720, Note_on_c, 1, 75, 127
1, 36720, Note_on_c, 1, 67, 127
1, 36720, Note_on_c, 1, 36, 127
1, 36720, Note_on_c, 1, 24, 127
1, 36720, Note_on_c, 1, 60, 127
1, 36749, Note_off_c, 1, 60, 0
1, 36750, Note_on_c, 1, 77, 127
1, 36750, Note_on_c, 1, 59, 127
1, 36779, Note_off_c, 1, 36, 0
1, 36779, Note_off_c, 1, 24, 0
1, 36779, Note_off_c, 1, 77, 0
1, 36779, Note_off_c, 1, 59, 0
1, 36780, Note_off_c, 1, 72, 0
1, 36780, Note_off_c, 1, 67, 0
1, 36809, Note_off_c, 1, 75, 0
1, 36810, Note_on_c, 1, 74, 127
1, 36810, Note_on_c, 1, 62, 127
1, 36839, Note_off_c, 1, 74, 0
1, 36839, Note_off_c, 1, 62, 0
1, 36840, Note_on_c, 1, 72, 127
1, 36840, Note_on_c, 1, 63, 127
1, 36869, Note_off_c, 1, 72, 0
1, 36869, Note_off_c, 1, 63, 0
1, 36870, Note_on_c, 1, 70, 127
1, 36870, Note_on_c, 1, 64, 127
1, 36899, Note_off_c, 1, 70, 0
1, 36899, Note_off_c, 1, 64, 0
1, 36900, Note_on_c, 1, 68, 127
1, 36900, Note_on_c, 1, 65, 127
1, 36929, Note_off_c, 1, 68, 0
1, 36929, Note_off_c, 1, 65, 0
1, 36930, Note_on_c, 1, 67, 127
1, 36959, Note_off_c, 1, 67, 0
1, 36960, Note_on_c, 1, 80, 127
1, 36960, Note_on_c, 1, 77, 127
1, 36960, Note_on_c, 1, 72, 127
1, 36960, Note_on_c, 1, 53, 127
1, 36960, Note_on_c, 1, 41, 127
1, 36960, Note_on_c, 1, 68, 127
1, 36960, Note_on_c, 1, 65, 127
1, 36989, Note_off_c, 1, 68, 0
1, 36989, Note_off_c, 1, 65, 0
1, 36990, Note_on_c, 1, 60, 127
1, 37019, Note_off_c, 1, 53, 0
1, 37019, Note_off_c, 1, 41, 0
1, 37019, Note_off_c, 1, 60, 0
1, 37020, Note_off_c, 1, 80, 0
1, 37020, Note_off_c, 1, 77, 0
1, 37020, Note_off_c, 1, 72, 0
1, 37020, Note_on_c, 1, 84, 127
1, 37020, Note_on_c, 1, 56, 127
1, 37049, Note_off_c, 1, 84, 0
1, 37049, Note_off_c, 1, 56, 0
1, 37050, Note_on_c, 1, 60, 127
1, 37079, Note_off_c, 1, 60, 0
1, 37080, Note_on_c, 1, 76, 127
1, 37080, Note_on_c, 1, 79, 127
1, 37080, Note_on_c, 1, 72, 127
1, 37080, Note_on_c, 1, 48, 127
1, 37080, Note_on_c, 1, 36, 127
1, 37080, Note_on_c, 1, 67, 127
1, 37080, Note_on_c, 1, 64, 127
1, 37109, Note_off_c, 1, 67, 0
1, 37109, Note_off_c, 1, 64, 0
1, 37110, Note_on_c, 1, 60, 127
1, 37139, Note_off_c, 1, 48, 0
1, 37139, Note_off_c, 1, 36, 0
1, 37139, Note_off_c, 1, 60, 0
1, 37140, Note_off_c, 1, 76, 0
1, 37140, Note_off_c, 1, 79, 0
1, 37140, Note_off_c, 1, 72, 0
1, 37140, Note_on_c, 1, 82, 127
1, 37140, Note_on_c, 1, 55, 127
1, 37169, Note_off_c, 1, 82, 0
1, 37169, Note_off_c, 1, 55, 0
1, 37170, Note_on_c, 1, 60, 127
1, 37199, Note_off_c, 1, 60, 0
1, 37200, Note_on_c, 1, 77, 127
1, 37200, Note_on_c, 1, 80, 127
1, 37200, Note_on_c, 1, 72, 127
1, 37200, Note_on_c, 1, 41, 127
1, 37200, Note_on_c, 1, 29, 127
1, 37200, Note_on_c, 1, 65, 127
1, 37229, Note_off_c, 1, 65, 0
1, 37230, Note_on_c, 1, 82, 127
1, 37230, Note_on_c, 1, 64, 127
1, 37259, Note_off_c, 1, 41, 0
1, 37259, Note_off_c, 1, 29, 0
1, 37259, Note_off_c, 1, 82, 0
1, 37259, Note_off_c, 1, 64, 0
1, 37260, Note_off_c, 1, 77, 0
1, 37260, Note_off_c, 1, 72, 0
1, 37289, Note_off_c, 1, 80, 0
1, 37290, Note_on_c, 1, 79, 127
1, 37290, Note_on_c, 1, 67, 127
1, 37319, Note_off_c, 1, 79, 0
1, 37319, Note_off_c, 1, 67, 0
1, 37320, Note_on_c, 1, 77, 127
1, 37320, Note_on_c, 1, 68, 127
1, 37349, Note_off_c, 1, 77, 0
1, 37350, Note_on_c, 1, 75, 127
1, 37379, Note_off_c, 1, 68, 0
1, 37379, Note_off_c, 1, 75, 0
1, 37380, Note_on_c, 1, 74, 127
1, 37380, Note_on_c, 1, 65, 127
1, 37409, Note_off_c, 1, 74, 0
1, 37410, Note_on_c, 1, 72, 127
1, 37439, Note_off_c, 1, 72, 0
1, 37440, Note_on_c, 1, 58, 127
1, 37440, Note_on_c, 1, 46, 127
1, 37470, Note_on_c, 1, 80, 127
1, 37499, Note_off_c, 1, 65, 0
1, 37499, Note_off_c, 1, 58, 0
1, 37499, Note_off_c, 1, 46, 0
1, 37499, Note_off_c, 1, 80, 0
1, 37500, Note_on_c, 1, 79, 127
1, 37500, Note_on_c, 1, 58, 127
1, 37529, Note_off_c, 1, 79, 0
1, 37530, Note_on_c, 1, 77, 127
1, 37559, Note_off_c, 1, 77, 0
1, 37560, Note_on_c, 1, 51, 127
1, 37560, Note_on_c, 1, 39, 127
1, 37590, Note_on_c, 1, 74, 127
1, 37619, Note_off_c, 1, 58, 0
1, 37619, Note_off_c, 1, 51, 0
1, 37619, Note_off_c, 1, 39, 0
1, 37619, Note_off_c, 1, 74, 0
1, 37620, Note_on_c, 1, 72, 127
1, 37620, Note_on_c, 1, 63, 127
1, 37649, Note_off_c, 1, 72, 0
1, 37650, Note_on_c, 1, 71, 127
1, 37679, Note_off_c, 1, 71, 0
1, 37680, Note_on_c, 1, 56, 127
1, 37680, Note_on_c, 1, 44, 127
1, 37710, Note_on_c, 1, 79, 127
1, 37739, Note_off_c, 1, 63, 0
1, 37739, Note_off_c, 1, 56, 0
1, 37739, Note_off_c, 1, 44, 0
1, 37739, Note_off_c, 1, 79, 0
1, 37740, Note_on_c, 1, 77, 127
1, 37740, Note_on_c, 1, 56, 127
1, 37769, Note_off_c, 1, 77, 0
1, 37770, Note_on_c, 1, 75, 127
1, 37799, Note_off_c, 1, 75, 0
1, 37800, Note_on_c, 1, 50, 127
1, 37800, Note_on_c, 1, 38, 127
1, 37830, Note_on_c, 1, 72, 127
1, 37859, Note_off_c, 1, 56, 0
1, 37859, Note_off_c, 1, 50, 0
1, 37859, Note_off_c, 1, 38, 0
1, 37859, Note_off_c, 1, 72, 0
1, 37860, Note_on_c, 1, 71, 127
1, 37860, Note_on_c, 1, 62, 127
1, 37889, Note_off_c, 1, 71, 0
1, 37890, Note_on_c, 1, 69, 127
1, 37919, Note_off_c, 1, 69, 0
1, 37920, Note_on_c, 1, 55, 127
1, 37920, Note_on_c, 1, 43, 127
1, 37950, Note_on_c, 1, 77, 127
1, 37979, Note_off_c, 1, 62, 0
1, 37979, Note_off_c, 1, 55, 0
1, 37979, Note_off_c, 1, 43, 0
1, 37979, Note_off_c, 1, 77, 0
1, 37980, Note_on_c, 1, 75, 127
1, 37980, Note_on_c, 1, 55, 127
1, 38009, Note_off_c, 1, 75, 0
1, 38010, Note_on_c, 1, 74, 127
1, 38039, Note_off_c, 1, 74, 0
1, 38040, Note_on_c, 1, 48, 127
1, 38040, Note_on_c, 1, 36, 127
1, 38099, Note_off_c, 1, 55, 0
1, 38099, Note_off_c, 1, 48, 0
1, 38099, Note_off_c, 1, 36, 0
1, 38100, Note_on_c, 1, 72, 127
1, 38100, Note_on_c, 1, 60, 127
1, 38129, Note_off_c, 1, 72, 0
1, 38130, Note_on_c, 1, 75, 127
1, 38159, Note_off_c, 1, 60, 0
1, 38159, Note_off_c, 1, 75, 0
1, 38160, Note_on_c, 1, 55, 127
1, 38160, Note_on_c, 1, 43, 127
1, 38160, Note_on_c, 1, 74, 127
1, 38160, Note_on_c, 1, 59, 127
1, 38189, Note_off_c, 1, 74, 0
1, 38190, Note_on_c, 1, 72, 127
1, 38219, Note_off_c, 1, 55, 0
1, 38219, Note_off_c, 1, 43, 0
1, 38219, Note_off_c, 1, 59, 0
1, 38219, Note_off_c, 1, 72, 0
1, 38220, Note_on_c, 1, 50, 127
1, 38220, Note_on_c, 1, 38, 127
1, 38220, Note_on_c, 1, 71, 127
1, 38220, Note_on_c, 1, 55, 127
1, 38249, Note_off_c, 1, 71, 0
1, 38249, Note_off_c, 1, 55, 0
1, 38250, Note_on_c, 1, 69, 127
1, 38279, Note_off_c, 1, 50, 0
1, 38279, Note_off_c, 1, 38, 0
1, 38279, Note_off_c, 1, 69, 0
1, 38280, Note_on_c, 1, 47, 127
1, 38280, Note_on_c, 1, 35, 127
1, 38280, Note_on_c, 1, 67, 127
1, 38310, Note_on_c, 1, 43, 127
1, 38310, Note_on_c, 1, 65, 127
1, 38339, Note_off_c, 1, 47, 0
1, 38339, Note_off_c, 1, 35, 0
1, 38339, Note_off_c, 1, 43, 0
1, 38339, Note_off_c, 1, 65, 0
1, 38340, Note_on_c, 1, 31, 127
1, 38340, Note_on_c, 1, 45, 127
1, 38340, Note_on_c, 1, 63, 127
1, 38369, Note_off_c, 1, 45, 0
1, 38369, Note_off_c, 1, 63, 0
1, 38370, Note_on_c, 1, 62, 127
1, 38399, Note_off_c, 1, 31, 0
1, 38399, Note_off_c, 1, 62, 0
1, 38400, Note_on_c, 1, 72, 127
1, 38400, Note_on_c, 1, 48, 127
1, 38400, Note_on_c, 1, 36, 127
1, 38400, Note_on_c, 1, 60, 127
1, 38429, Note_off_c, 1, 60, 0
1, 38430, Note_on_c, 1, 55, 127
1, 38459, Note_off_c, 1, 48, 0
1, 38459, Note_off_c, 1, 36, 0
1, 38459, Note_off_c, 1, 55, 0
1, 38460, Note_off_c, 1, 67, 0
1, 38460, Note_off_c, 1, 72, 0
1, 38460, Note_on_c, 1, 51, 127
1, 38460, Note_on_c, 1, 79, 127
1, 38489, Note_off_c, 1, 79, 0
1, 38519, Note_off_c, 1, 51, 0
1, 38520, Note_on_c, 1, 74, 127
1, 38520, Note_on_c, 1, 71, 127
1, 38520, Note_on_c, 1, 67, 127
1, 38520, Note_on_c, 1, 43, 127
1, 38520, Note_on_c, 1, 31, 127
1, 38520, Note_on_c, 1, 65, 127
1, 38520, Note_on_c, 1, 55, 127
1, 38520, Note_on_c, 1, 62, 127
1, 38520, Note_on_c, 1, 59, 127
1, 38549, Note_off_c, 1, 65, 0
1, 38549, Note_off_c, 1, 62, 0
1, 38549, Note_off_c, 1, 59, 0
1, 38579, Note_off_c, 1, 43, 0
1, 38579, Note_off_c, 1, 31, 0
1, 38579, Note_off_c, 1, 55, 0
1, 38580, Note_off_c, 1, 74, 0
1, 38580, Note_off_c, 1, 71, 0
1, 38580, Note_off_c, 1, 67, 0
1, 38580, Note_on_c, 1, 77, 127
1, 38580, Note_on_c, 1, 50, 127
1, 38609, Note_off_c, 1, 77, 0
1, 38609, Note_off_c, 1, 50, 0
1, 38640, Note_on_c, 1, 75, 127
1, 38640, Note_on_c, 1, 72, 127
1, 38640, Note_on_c, 1, 67, 127
1, 38640, Note_on_c, 1, 36, 127
1, 38640, Note_on_c, 1, 24, 127
1, 38640, Note_on_c, 1, 63, 127
1, 38640, Note_on_c, 1, 48, 127
1, 38640, Note_on_c, 1, 60, 127
1, 38669, Note_off_c, 1, 60, 0
1, 38670, Note_on_c, 1, 77, 127
1, 38670, Note_on_c, 1, 59, 127
1, 38699, Note_off_c, 1, 36, 0
1, 38699, Note_off_c, 1, 24, 0
1, 38699, Note_off_c, 1, 63, 0
1, 38699, Note_off_c, 1, 48, 0
1, 38699, Note_off_c, 1, 77, 0
1, 38699, Note_off_c, 1, 59, 0
1, 38700, Note_off_c, 1, 72, 0
1, 38700, Note_off_c, 1, 67, 0
1, 38729, Note_off_c, 1, 75, 0
1, 38730, Note_on_c, 1, 74, 127
1, 38730, Note_on_c, 1, 62, 127
1, 38759, Note_off_c, 1, 74, 0
1, 38759, Note_off_c, 1, 62, 0
1, 38760, Note_on_c, 1, 72, 127
1, 38760, Note_on_c, 1, 63, 127
1, 38789, Note_off_c, 1, 63, 0
1, 38790, Note_on_c, 1, 48, 127
1, 38790, Note_on_c, 1, 70, 127
1, 38790, Note_on_c, 1, 64, 127
1, 38819, Note_off_c, 1, 48, 0
1, 38819, Note_off_c, 1, 70, 0
1, 38819, Note_off_c, 1, 64, 0
1, 38820, Note_on_c, 1, 50, 127
1, 38820, Note_on_c, 1, 68, 127
1, 38820, Note_on_c, 1, 65, 127
1, 38849, Note_off_c, 1, 50, 0
1, 38849, Note_off_c, 1, 68, 0
1, 38849, Note_off_c, 1, 65, 0
1, 38850, Note_on_c, 1, 52, 127
1, 38850, Note_on_c, 1, 67, 127
1, 38879, Note_off_c, 1, 52, 0
1, 38879, Note_off_c, 1, 67, 0
1, 38880, Note_on_c, 1, 77, 127
1, 38880, Note_on_c, 1, 60, 127
1, 38880, Note_on_c, 1, 53, 127
1, 38880, Note_on_c, 1, 41, 127
1, 38910, Note_off_c, 1, 72, 0
1, 38939, Note_off_c, 1, 53, 0
1, 38939, Note_off_c, 1, 41, 0
1, 38940, Note_off_c, 1, 77, 0
1, 38940, Note_off_c, 1, 60, 0
1, 38940, Note_on_c, 1, 56, 127
1, 38940, Note_on_c, 1, 84, 127
1, 38969, Note_off_c, 1, 84, 0
1, 38999, Note_off_c, 1, 56, 0
1, 39000, Note_on_c, 1, 79, 127
1, 39000, Note_on_c, 1, 64, 127
1, 39000, Note_on_c, 1, 72, 127
1, 39000, Note_on_c, 1, 48, 127
1, 39000, Note_on_c, 1, 36, 127
1, 39000, Note_on_c, 1, 70, 127
1, 39000, Note_on_c, 1, 60, 127
1, 39000, Note_on_c, 1, 67, 127
1, 39029, Note_off_c, 1, 70, 0
1, 39029, Note_off_c, 1, 67, 0
1, 39059, Note_off_c, 1, 48, 0
1, 39059, Note_off_c, 1, 36, 0
1, 39059, Note_off_c, 1, 60, 0
1, 39060, Note_off_c, 1, 79, 0
1, 39060, Note_off_c, 1, 72, 0
1, 39060, Note_on_c, 1, 82, 127
1, 39060, Note_on_c, 1, 55, 127
1, 39089, Note_off_c, 1, 64, 0
1, 39089, Note_off_c, 1, 82, 0
1, 39089, Note_off_c, 1, 55, 0
1, 39120, Note_on_c, 1, 80, 127
1, 39120, Note_on_c, 1, 65, 127
1, 39120, Note_on_c, 1, 72, 127
1, 39120, Note_on_c, 1, 41, 127
1, 39120, Note_on_c, 1, 29, 127
1, 39120, Note_on_c, 1, 68, 127
1, 39120, Note_on_c, 1, 53, 127
1, 39150, Note_on_c, 1, 82, 127
1, 39150, Note_on_c, 1, 64, 127
1, 39179, Note_off_c, 1, 41, 0
1, 39179, Note_off_c, 1, 29, 0
1, 39179, Note_off_c, 1, 68, 0
1, 39179, Note_off_c, 1, 53, 0
1, 39179, Note_off_c, 1, 82, 0
1, 39179, Note_off_c, 1, 64, 0
1, 39180, Note_off_c, 1, 72, 0
1, 39209, Note_off_c, 1, 80, 0
1, 39210, Note_on_c, 1, 79, 127
1, 39210, Note_on_c, 1, 67, 127
1, 39239, Note_off_c, 1, 65, 0
1, 39239, Note_off_c, 1, 79, 0
1, 39239, Note_off_c, 1, 67, 0
1, 39240, Note_on_c, 1, 80, 127
1, 39240, Note_on_c, 1, 77, 127
1, 39240, Note_on_c, 1, 68, 127
1, 39269, Note_off_c, 1, 77, 0
1, 39270, Note_on_c, 1, 53, 127
1, 39270, Note_on_c, 1, 75, 127
1, 39299, Note_off_c, 1, 68, 0
1, 39299, Note_off_c, 1, 53, 0
1, 39299, Note_off_c, 1, 75, 0
1, 39300, Note_on_c, 1, 55, 127
1, 39300, Note_on_c, 1, 74, 127
1, 39300, Note_on_c, 1, 65, 127
1, 39329, Note_off_c, 1, 55, 0
1, 39329, Note_off_c, 1, 74, 0
1, 39330, Note_on_c, 1, 56, 127
1, 39330, Note_on_c, 1, 72, 127
1, 39359, Note_off_c, 1, 56, 0
1, 39359, Note_off_c, 1, 72, 0
1, 39360, Note_on_c, 1, 58, 127
1, 39360, Note_on_c, 1, 46, 127
1, 39419, Note_off_c, 1, 80, 0
1, 39419, Note_off_c, 1, 58, 0
1, 39419, Note_off_c, 1, 46, 0
1, 39420, Note_off_c, 1, 65, 0
1, 39420, Note_on_c, 1, 63, 127
1, 39420, Note_on_c, 1, 79, 127
1, 39449, Note_off_c, 1, 63, 0
1, 39449, Note_off_c, 1, 79, 0
1, 39450, Note_on_c, 1, 62, 127
1, 39479, Note_off_c, 1, 62, 0
1, 39480, Note_on_c, 1, 51, 127
1, 39480, Note_on_c, 1, 39, 127
1, 39539, Note_off_c, 1, 51, 0
1, 39539, Note_off_c, 1, 39, 0
1, 39540, Note_on_c, 1, 79, 127
1, 39540, Note_on_c, 1, 56, 127
1, 39540, Note_on_c, 1, 72, 127
1, 39540, Note_on_c, 1, 63, 127
1, 39569, Note_off_c, 1, 56, 0
1, 39569, Note_off_c, 1, 72, 0
1, 39570, Note_on_c, 1, 55, 127
1, 39570, Note_on_c, 1, 71, 127
1, 39599, Note_off_c, 1, 55, 0
1, 39599, Note_off_c, 1, 71, 0
1, 39600, Note_on_c, 1, 44, 127
1, 39629, Note_off_c, 1, 79, 0
1, 39659, Note_off_c, 1, 63, 0
1, 39659, Note_off_c, 1, 44, 0
1, 39660, Note_on_c, 1, 62, 127
1, 39660, Note_on_c, 1, 77, 127
1, 39660, Note_on_c, 1, 56, 127
1, 39689, Note_off_c, 1, 62, 0
1, 39689, Note_off_c, 1, 77, 0
1, 39690, Note_on_c, 1, 60, 127
1, 39690, Note_on_c, 1, 75, 127
1, 39719, Note_off_c, 1, 60, 0
1, 39719, Note_off_c, 1, 75, 0
1, 39720, Note_on_c, 1, 50, 127
1, 39720, Note_on_c, 1, 38, 127
1, 39750, Note_on_c, 1, 72, 127
1, 39779, Note_off_c, 1, 56, 0
1, 39779, Note_off_c, 1, 50, 0
1, 39779, Note_off_c, 1, 38, 0
1, 39779, Note_off_c, 1, 72, 0
1, 39780, Note_on_c, 1, 77, 127
1, 39780, Note_on_c, 1, 55, 127
1, 39780, Note_on_c, 1, 71, 127
1, 39780, Note_on_c, 1, 62, 127
1, 39809, Note_off_c, 1, 55, 0
1, 39809, Note_off_c, 1, 71, 0
1, 39810, Note_on_c, 1, 53, 127
1, 39810, Note_on_c, 1, 69, 127
1, 39839, Note_off_c, 1, 53, 0
1, 39839, Note_off_c, 1, 69, 0
1, 39840, Note_on_c, 1, 43, 127
1, 39869, Note_off_c, 1, 77, 0
1, 39899, Note_off_c, 1, 62, 0
1, 39899, Note_off_c, 1, 43, 0
1, 39900, Note_on_c, 1, 60, 127
1, 39900, Note_on_c, 1, 75, 127
1, 39900, Note_on_c, 1, 55, 127
1, 39929, Note_off_c, 1, 60, 0
1, 39929, Note_off_c, 1, 75, 0
1, 39930, Note_on_c, 1, 59, 127
1, 39930, Note_on_c, 1, 74, 127
1, 39959, Note_off_c, 1, 59, 0
1, 39959, Note_off_c, 1, 74, 0
1, 39960, Note_on_c, 1, 48, 127
1, 39960, Note_on_c, 1, 36, 127
1, 40019, Note_off_c, 1, 55, 0
1, 40019, Note_off_c, 1, 48, 0
1, 40019, Note_off_c, 1, 36, 0
1, 40020, Note_on_c, 1, 72, 127
1, 40020, Note_on_c, 1, 51, 127
1, 40020, Note_on_c, 1, 60, 127
1, 40049, Note_off_c, 1, 51, 0
1, 40050, Note_on_c, 1, 48, 127
1, 40050, Note_on_c, 1, 75, 127
1, 40079, Note_off_c, 1, 60, 0
1, 40079, Note_off_c, 1, 48, 0
1, 40079, Note_off_c, 1, 75, 0
1, 40080, Note_on_c, 1, 55, 127
1, 40080, Note_on_c, 1, 43, 127
1, 40080, Note_on_c, 1, 74, 127
1, 40109, Note_off_c, 1, 72, 0
1, 40109, Note_off_c, 1, 74, 0
1, 40110, Note_on_c, 1, 54, 127
1, 40139, Note_off_c, 1, 55, 0
1, 40139, Note_off_c, 1, 43, 0
1, 40139, Note_off_c, 1, 54, 0
1, 40140, Note_on_c, 1, 43, 127
1, 40140, Note_on_c, 1, 31, 127
1, 40140, Note_on_c, 1, 74, 127
1, 40140, Note_on_c, 1, 71, 127
1, 40140, Note_on_c, 1, 55, 127
1, 40169, Note_off_c, 1, 74, 0
1, 40169, Note_off_c, 1, 71, 0
1, 40169, Note_off_c, 1, 55, 0
1, 40170, Note_on_c, 1, 72, 127
1, 40170, Note_on_c, 1, 69, 127
1, 40170, Note_on_c, 1, 57, 127
1, 40199, Note_off_c, 1, 43, 0
1, 40199, Note_off_c, 1, 31, 0
1, 40199, Note_off_c, 1, 72, 0
1, 40199, Note_off_c, 1, 69, 0
1, 40199, Note_off_c, 1, 57, 0
1, 40200, Note_on_c, 1, 47, 127
1, 40200, Note_on_c, 1, 35, 127
1, 40200, Note_on_c, 1, 74, 127
1, 40200, Note_on_c, 1, 67, 127
1, 40200, Note_on_c, 1, 59, 127
1, 40229, Note_off_c, 1, 74, 0
1, 40229, Note_off_c, 1, 59, 0
1, 40230, Note_on_c, 1, 77, 127
1, 40230, Note_on_c, 1, 55, 127
1, 40230, Note_on_c, 1, 62, 127
1, 40259, Note_off_c, 1, 47, 0
1, 40259, Note_off_c, 1, 35, 0
1, 40259, Note_off_c, 1, 67, 0
1, 40259, Note_off_c, 1, 77, 0
1, 40259, Note_off_c, 1, 55, 0
1, 40259, Note_off_c, 1, 62, 0
1, 40260, Note_on_c, 1, 43, 127
1, 40260, Note_on_c, 1, 31, 127
1, 40260, Note_on_c, 1, 75, 127
1, 40260, Note_on_c, 1, 57, 127
1, 40260, Note_on_c, 1, 60, 127
1, 40289, Note_off_c, 1, 75, 0
1, 40289, Note_off_c, 1, 57, 0
1, 40289, Note_off_c, 1, 60, 0
1, 40290, Note_on_c, 1, 74, 127
1, 40290, Note_on_c, 1, 59, 127
1, 40319, Note_off_c, 1, 43, 0
1, 40319, Note_off_c, 1, 31, 0
1, 40319, Note_off_c, 1, 74, 0
1, 40319, Note_off_c, 1, 59, 0
1, 40320, Note_on_c, 1, 72, 127
1, 40320, Note_on_c, 1, 67, 127
1, 40320, Note_on_c, 1, 48, 127
1, 40320, Note_on_c, 1, 36, 127
1, 40320, Note_on_c, 1, 75, 127
1, 40320, Note_on_c, 1, 60, 127
1, 40349, Note_off_c, 1, 72, 0
1, 40349, Note_off_c, 1, 48, 0
1, 40349, Note_off_c, 1, 36, 0
1, 40349, Note_off_c, 1, 75, 0
1, 40350, Note_on_c, 1, 74, 127
1, 40350, Note_on_c, 1, 47, 127
1, 40350, Note_on_c, 1, 35, 127
1, 40350, Note_on_c, 1, 77, 127
1, 40379, Note_off_c, 1, 60, 0
1, 40379, Note_off_c, 1, 74, 0
1, 40379, Note_off_c, 1, 47, 0
1, 40379, Note_off_c, 1, 35, 0
1, 40379, Note_off_c, 1, 77, 0
1, 40410, Note_on_c, 1, 50, 127
1, 40410, Note_on_c, 1, 38, 127
1, 40439, Note_off_c, 1, 50, 0
1, 40439, Note_off_c, 1, 38, 0
1, 40440, Note_on_c, 1, 79, 127
1, 40440, Note_on_c, 1, 51, 127
1, 40440, Note_on_c, 1, 39, 127
1, 40469, Note_off_c, 1, 51, 0
1, 40469, Note_off_c, 1, 39, 0
1, 40499, Note_off_c, 1, 79, 0
1, 40500, Note_on_c, 1, 84, 127
1, 40530, Note_on_c, 1, 53, 127
1, 40530, Note_on_c, 1, 41, 127
1, 40559, Note_off_c, 1, 84, 0
1, 40559, Note_off_c, 1, 53, 0
1, 40559, Note_off_c, 1, 41, 0
1, 40560, Note_on_c, 1, 83, 127
1, 40560, Note_on_c, 1, 55, 127
1, 40560, Note_on_c, 1, 43, 127
1, 40589, Note_off_c, 1, 55, 0
1, 40589, Note_off_c, 1, 43, 0
1, 40619, Note_off_c, 1, 83, 0
1, 40620, Note_off_c, 1, 67, 0
1, 40620, Note_on_c, 1, 71, 127
1, 40620, Note_on_c, 1, 62, 127
1, 40650, Note_on_c, 1, 56, 127
1, 40650, Note_on_c, 1, 44, 127
1, 40679, Note_off_c, 1, 71, 0
1, 40679, Note_off_c, 1, 62, 0
1, 40679, Note_off_c, 1, 56, 0
1, 40679, Note_off_c, 1, 44, 0
1, 40680, Note_on_c, 1, 74, 127
1, 40680, Note_on_c, 1, 67, 127
1, 40680, Note_on_c, 1, 59, 127
1, 40680, Note_on_c, 1, 55, 127
1, 40680, Note_on_c, 1, 43, 127
1, 40709, Note_off_c, 1, 55, 0
1, 40709, Note_off_c, 1, 43, 0
1, 40710, Note_on_c, 1, 53, 127
1, 40710, Note_on_c, 1, 41, 127
1, 40739, Note_off_c, 1, 74, 0
1, 40739, Note_off_c, 1, 53, 0
1, 40739, Note_off_c, 1, 41, 0
1, 40740, Note_on_c, 1, 77, 127
1, 40740, Note_on_c, 1, 52, 127
1, 40740, Note_on_c, 1, 40, 127
1, 40769, Note_off_c, 1, 52, 0
1, 40769, Note_off_c, 1, 40, 0
1, 40770, Note_on_c, 1, 50, 127
1, 40770, Note_on_c, 1, 38, 127
1, 40799, Note_off_c, 1, 59, 0
1, 40799, Note_off_c, 1, 77, 0
1, 40799, Note_off_c, 1, 50, 0
1, 40799, Note_off_c, 1, 38, 0
1, 40800, Note_on_c, 1, 76, 127
1, 40800, Note_on_c, 1, 60, 127
1, 40800, Note_on_c, 1, 48, 127
1, 40800, Note_on_c, 1, 36, 127
1, 40829, Note_off_c, 1, 48, 0
1, 40829, Note_off_c, 1, 36, 0
1, 40830, Note_off_c, 1, 67, 0
1, 40830, Note_on_c, 1, 65, 127
1, 40830, Note_on_c, 1, 46, 127
1, 40830, Note_on_c, 1, 34, 127
1, 40830, Note_on_c, 1, 47, 127
1, 40859, Note_off_c, 1, 76, 0
1, 40859, Note_off_c, 1, 60, 0
1, 40859, Note_off_c, 1, 65, 0
1, 40859, Note_off_c, 1, 46, 0
1, 40859, Note_off_c, 1, 34, 0
1, 40859, Note_off_c, 1, 47, 0
1, 40860, Note_on_c, 1, 72, 127
1, 40860, Note_on_c, 1, 64, 127
1, 40860, Note_on_c, 1, 55, 127
1, 40860, Note_on_c, 1, 48, 127
1, 40860, Note_on_c, 1, 36, 127
1, 40889, Note_off_c, 1, 64, 0
1, 40889, Note_off_c, 1, 48, 0
1, 40889, Note_off_c, 1, 36, 0
1, 40890, Note_on_c, 1, 62, 127
1, 40890, Note_on_c, 1, 49, 127
1, 40890, Note_on_c, 1, 37, 127
1, 40890, Note_on_c, 1, 50, 127
1, 40919, Note_off_c, 1, 72, 0
1, 40919, Note_off_c, 1, 55, 0
1, 40919, Note_off_c, 1, 62, 0
1, 40919, Note_off_c, 1, 49, 0
1, 40919, Note_off_c, 1, 37, 0
1, 40919, Note_off_c, 1, 50, 0
1, 40920, Note_on_c, 1, 82, 127
1, 40920, Note_on_c, 1, 64, 127
1, 40920, Note_on_c, 1, 67, 127
1, 40920, Note_on_c, 1, 48, 127
1, 40920, Note_on_c, 1, 36, 127
1, 40949, Note_off_c, 1, 64, 0
1, 40949, Note_off_c, 1, 48, 0
1, 40949, Note_off_c, 1, 36, 0
1, 40950, Note_on_c, 1, 60, 127
1, 40950, Note_on_c, 1, 46, 127
1, 40950, Note_on_c, 1, 34, 127
1, 40979, Note_off_c, 1, 67, 0
1, 40979, Note_off_c, 1, 60, 0
1, 40979, Note_off_c, 1, 46, 0
1, 40979, Note_off_c, 1, 34, 0
1, 40980, Note_on_c, 1, 62, 127
1, 40980, Note_on_c, 1, 44, 127
1, 40980, Note_on_c, 1, 32, 127
1, 40980, Note_on_c, 1, 45, 127
1, 41009, Note_off_c, 1, 62, 0
1, 41009, Note_off_c, 1, 44, 0
1, 41009, Note_off_c, 1, 32, 0
1, 41009, Note_off_c, 1, 45, 0
1, 41010, Note_on_c, 1, 43, 127
1, 41010, Note_on_c, 1, 31, 127
1, 41039, Note_off_c, 1, 43, 0
1, 41039, Note_off_c, 1, 31, 0
1, 41040, Note_on_c, 1, 65, 127
1, 41040, Note_on_c, 1, 41, 127
1, 41040, Note_on_c, 1, 29, 127
1, 41069, Note_off_c, 1, 41, 0
1, 41069, Note_off_c, 1, 29, 0
1, 41070, Note_on_c, 1, 52, 127
1, 41070, Note_on_c, 1, 40, 127
1, 41099, Note_off_c, 1, 82, 0
1, 41099, Note_off_c, 1, 52, 0
1, 41099, Note_off_c, 1, 40, 0
1, 41100, Note_off_c, 1, 65, 0
1, 41100, Note_on_c, 1, 81, 127
1, 41100, Note_on_c, 1, 72, 127
1, 41100, Note_on_c, 1, 53, 127
1, 41129, Note_off_c, 1, 81, 0
1, 41129, Note_off_c, 1, 53, 0
1, 41130, Note_on_c, 1, 79, 127
1, 41130, Note_on_c, 1, 55, 127
1, 41159, Note_off_c, 1, 72, 0
1, 41159, Note_off_c, 1, 79, 0
1, 41159, Note_off_c, 1, 55, 0
1, 41190, Note_on_c, 1, 51, 127
1, 41190, Note_on_c, 1, 39, 127
1, 41219, Note_off_c, 1, 51, 0
1, 41219, Note_off_c, 1, 39, 0
1, 41220, Note_on_c, 1, 77, 127
1, 41220, Note_on_c, 1, 50, 127
1, 41220, Note_on_c, 1, 38, 127
1, 41249, Note_off_c, 1, 50, 0
1, 41249, Note_off_c, 1, 38, 0
1, 41279, Note_off_c, 1, 77, 0
1, 41280, Note_on_c, 1, 74, 127
1, 41280, Note_on_c, 1, 47, 127
1, 41280, Note_on_c, 1, 35, 127
1, 41310, Note_on_c, 1, 63, 127
1, 41339, Note_off_c, 1, 74, 0
1, 41339, Note_off_c, 1, 63, 0
1, 41340, Note_on_c, 1, 68, 127
1, 41399, Note_off_c, 1, 47, 0
1, 41399, Note_off_c, 1, 35, 0
1, 41399, Note_off_c, 1, 68, 0
1, 41400, Note_on_c, 1, 80, 127
1, 41400, Note_on_c, 1, 65, 127
1, 41400, Note_on_c, 1, 62, 127
1, 41429, Note_off_c, 1, 65, 0
1, 41430, Note_on_c, 1, 67, 127
1, 41459, Note_off_c, 1, 80, 0
1, 41459, Note_off_c, 1, 62, 0
1, 41459, Note_off_c, 1, 67, 0
1, 41460, Note_on_c, 1, 72, 127
1, 41460, Note_on_c, 1, 68, 127
1, 41460, Note_on_c, 1, 65, 127
1, 41460, Note_on_c, 1, 53, 127
1, 41460, Note_on_c, 1, 41, 127
1, 41489, Note_off_c, 1, 68, 0
1, 41519, Note_off_c, 1, 72, 0
1, 41519, Note_off_c, 1, 65, 0
1, 41520, Note_on_c, 1, 71, 127
1, 41520, Note_on_c, 1, 67, 127
1, 41549, Note_off_c, 1, 67, 0
1, 41579, Note_off_c, 1, 53, 0
1, 41579, Note_off_c, 1, 41, 0
1, 41579, Note_off_c, 1, 71, 0
1, 41580, Note_on_c, 1, 79, 127
1, 41580, Note_on_c, 1, 67, 127
1, 41580, Note_on_c, 1, 59, 127
1, 41580, Note_on_c, 1, 51, 127
1, 41580, Note_on_c, 1, 39, 127
1, 41609, Note_off_c, 1, 67, 0
1, 41609, Note_off_c, 1, 51, 0
1, 41609, Note_off_c, 1, 39, 0
1, 41610, Note_on_c, 1, 65, 127
1, 41610, Note_on_c, 1, 50, 127
1, 41610, Note_on_c, 1, 38, 127
1, 41639, Note_off_c, 1, 79, 0
1, 41639, Note_off_c, 1, 59, 0
1, 41639, Note_off_c, 1, 65, 0
1, 41639, Note_off_c, 1, 50, 0
1, 41639, Note_off_c, 1, 38, 0
1, 41640, Note_on_c, 1, 72, 127
1, 41640, Note_on_c, 1, 63, 127
1, 41640, Note_on_c, 1, 55, 127
1, 41640, Note_on_c, 1, 51, 127
1, 41640, Note_on_c, 1, 39, 127
1, 41669, Note_off_c, 1, 63, 0
1, 41670, Note_on_c, 1, 62, 127
1, 41699, Note_off_c, 1, 72, 0
1, 41699, Note_off_c, 1, 55, 0
1, 41699, Note_off_c, 1, 51, 0
1, 41699, Note_off_c, 1, 39, 0
1, 41699, Note_off_c, 1, 62, 0
1, 41700, Note_on_c, 1, 77, 127
1, 41700, Note_on_c, 1, 60, 127
1, 41700, Note_on_c, 1, 56, 127
1, 41700, Note_on_c, 1, 44, 127
1, 41730, Note_on_c, 1, 59, 127
1, 41759, Note_off_c, 1, 77, 0
1, 41759, Note_off_c, 1, 60, 0
1, 41759, Note_off_c, 1, 56, 0
1, 41759, Note_off_c, 1, 44, 0
1, 41759, Note_off_c, 1, 59, 0
1, 41760, Note_on_c, 1, 75, 127
1, 41760, Note_on_c, 1, 60, 127
1, 41760, Note_on_c, 1, 67, 127
1, 41760, Note_on_c, 1, 55, 127
1, 41760, Note_on_c, 1, 43, 127
1, 41819, Note_off_c, 1, 60, 0
1, 41819, Note_off_c, 1, 67, 0
1, 41819, Note_off_c, 1, 55, 0
1, 41819, Note_off_c, 1, 43, 0
1, 41820, Note_on_c, 1, 72, 127
1, 41820, Note_on_c, 1, 68, 127
1, 41820, Note_on_c, 1, 53, 127
1, 41820, Note_on_c, 1, 41, 127
1, 41879, Note_off_c, 1, 75, 0
1, 41879, Note_off_c, 1, 53, 0
1, 41879, Note_off_c, 1, 41, 0
1, 41880, Note_on_c, 1, 74, 127
1, 41894, Note_off_c, 1, 74, 0
1, 41939, Note_off_c, 1, 72, 0
1, 41939, Note_off_c, 1, 68, 0
1, 41940, Note_on_c, 1, 74, 127
1, 41940, Note_on_c, 1, 71, 127
1, 41940, Note_on_c, 1, 67, 127
1, 41940, Note_on_c, 1, 43, 127
1, 41940, Note_on_c, 1, 31, 127
1, 41960, Note_off_c, 1, 74, 0
1, 41960, Note_on_c, 1, 75, 127
1, 41969, Note_off_c, 1, 67, 0
1, 41970, Note_on_c, 1, 65, 127
1, 41980, Note_off_c, 1, 75, 0
1, 41999, Note_off_c, 1, 71, 0
1, 41999, Note_off_c, 1, 43, 0
1, 41999, Note_off_c, 1, 31, 0
1, 41999, Note_off_c, 1, 65, 0
1, 42000, Note_on_c, 1, 72, 127
1, 42000, Note_on_c, 1, 63, 127
1, 42000, Note_on_c, 1, 48, 127
1, 42000, Note_on_c, 1, 36, 127
1, 42239, Note_off_c, 1, 72, 0
1, 42239, Note_off_c, 1, 63, 0
1, 42239, Note_off_c, 1, 48, 0
1, 42239, Note_off_c, 1, 36, 0
1, 42720, Note_on_c, 1, 67, 127
1, 42720, Note_on_c, 1, 63, 127
1, 42720, Note_on_c, 1, 58, 127
1, 42720, Note_on_c, 1, 51, 127
1, 42720, Note_on_c, 1, 39, 127
1, 42720, Note_on_c, 1, 75, 127
1, 42840, Note_off_c, 1, 67, 0
1, 42840, Note_off_c, 1, 63, 0
1, 42840, Note_off_c, 1, 58, 0
1, 42840, Note_off_c, 1, 51, 0
1, 42840, Note_on_c, 1, 27, 127
1, 42900, Note_off_c, 1, 39, 0
1, 42900, Note_off_c, 1, 27, 0
1, 42900, Note_on_c, 1, 68, 127
1, 42900, Note_on_c, 1, 56, 127
1, 42900, Note_on_c, 1, 65, 127
1, 42900, Note_on_c, 1, 41, 127
1, 42900, Note_on_c, 1, 29, 127
1, 42960, Note_off_c, 1, 75, 0
1, 42960, Note_on_c, 1, 74, 127
1, 43020, Note_off_c, 1, 68, 0
1, 43020, Note_off_c, 1, 56, 0
1, 43020, Note_off_c, 1, 65, 0
1, 43020, Note_off_c, 1, 29, 0
1, 43020, Note_off_c, 1, 74, 0
1, 43020, Note_on_c, 1, 53, 127
1, 43020, Note_on_c, 1, 72, 127
1, 43080, Note_off_c, 1, 41, 0
1, 43080, Note_off_c, 1, 53, 0
1, 43080, Note_off_c, 1, 72, 0
1, 43080, Note_on_c, 1, 70, 127
1, 43080, Note_on_c, 1, 55, 127
1, 43080, Note_on_c, 1, 43, 127
1, 43200, Note_off_c, 1, 55, 0
1, 43200, Note_on_c, 1, 31, 127
1, 43260, Note_off_c, 1, 43, 0
1, 43260, Note_off_c, 1, 31, 0
1, 43260, Note_on_c, 1, 60, 127
1, 43260, Note_on_c, 1, 44, 127
1, 43260, Note_on_c, 1, 32, 127
1, 43320, Note_off_c, 1, 70, 0
1, 43380, Note_off_c, 1, 60, 0
1, 43380, Note_off_c, 1, 32, 0
1, 43500, Note_on_c, 1, 62, 127
1, 43560, Note_off_c, 1, 44, 0
1, 43560, Note_off_c, 1, 62, 0
1, 43740, Note_on_c, 1, 46, 127
1, 43800, Note_off_c, 1, 46, 0
1, 43980, Note_on_c, 1, 48, 127
1, 43980, Note_on_c, 1, 36, 127
1, 44040, Note_on_c, 1, 77, 127
1, 44070, Note_off_c, 1, 77, 0
1, 44100, Note_off_c, 1, 48, 0
1, 44100, Note_off_c, 1, 36, 0
1, 44100, Note_on_c, 1, 69, 127
1, 44160, Note_off_c, 1, 69, 0
1, 44160, Note_on_c, 1, 34, 127
1, 44160, Note_on_c, 1, 82, 127
1, 44280, Note_off_c, 1, 34, 0
1, 44400, Note_off_c, 1, 82, 0
1, 44400, Note_on_c, 1, 81, 127
1, 44460, Note_off_c, 1, 81, 0
1, 44460, Note_on_c, 1, 79, 127
1, 44520, Note_off_c, 1, 79, 0
1, 44520, Note_on_c, 1, 50, 127
1, 44520, Note_on_c, 1, 38, 127
1, 44640, Note_on_c, 1, 26, 127
1, 44700, Note_off_c, 1, 50, 0
1, 44700, Note_off_c, 1, 38, 0
1, 44700, Note_off_c, 1, 26, 0
1, 45180, Note_on_c, 1, 57, 127
1, 45240, Note_off_c, 1, 57, 0
1, 45540, Note_on_c, 1, 73, 127
1, 45630, Note_on_c, 1, 61, 127
1, 45660, Note_off_c, 1, 73, 0
1, 45660, Note_off_c, 1, 61, 0
1, 45780, Note_on_c, 1, 80, 127
1, 45900, Note_off_c, 1, 80, 0
1, 46260, Note_on_c, 1, 24, 127
1, 46320, Note_off_c, 1, 24, 0
1, 46980, Note_on_c, 1, 71, 127
1, 47040, Note_off_c, 1, 71, 0
1, 47820, Note_on_c, 1, 59, 127
1, 47880, Note_off_c, 1, 59, 0
1, 48180, Note_on_c, 1, 64, 127
1, 48210, Note_off_c, 1, 64, 0
1, 48300, Note_on_c, 1, 52, 127
1, 48300, Note_on_c, 1, 40, 127
1, 48420, Note_off_c, 1, 52, 0
1, 48420, Note_off_c, 1, 40, 0
1, 48600, Note_on_c, 1, 49, 127
1, 48660, Note_off_c, 1, 49, 0
1, 48780, Note_on_c, 1, 37, 127
1, 48840, Note_off_c, 1, 37, 0
1, 51180, Note_on_c, 1, 84, 127
1, 51209, Note_off_c, 1, 84, 0
1, 53820, Note_on_c, 1, 56, 127
1, 53820, Note_on_c, 1, 51, 127
1, 53820, Note_on_c, 1, 65, 127
1, 53820, Note_on_c, 1, 39, 127
1, 53849, Note_off_c, 1, 56, 0
1, 53850, Note_off_c, 1, 65, 0
1, 53879, Note_off_c, 1, 39, 0
1, 53880, Note_on_c, 1, 27, 127
1, 53880, Note_on_c, 1, 55, 127
1, 53880, Note_on_c, 1, 63, 127
1, 53909, Note_off_c, 1, 55, 0
1, 53910, Note_on_c, 1, 58, 127
1, 53939, Note_off_c, 1, 58, 0
1, 53940, Note_on_c, 1, 60, 127
1, 53969, Note_off_c, 1, 60, 0
1, 53999, Note_off_c, 1, 51, 0
1, 53999, Note_off_c, 1, 27, 0
1, 54000, Note_off_c, 1, 63, 0
1, 54060, Note_on_c, 1, 68, 127
1, 54089, Note_off_c, 1, 68, 0
1, 54120, Note_on_c, 1, 67, 127
1, 54149, Note_off_c, 1, 67, 0
1, 54180, Note_on_c, 1, 65, 127
1, 54180, Note_on_c, 1, 51, 127
1, 54180, Note_on_c, 1, 56, 127
1, 54180, Note_on_c, 1, 39, 127
1, 54209, Note_off_c, 1, 65, 0
1, 54210, Note_off_c, 1, 56, 0
1, 54239, Note_off_c, 1, 39, 0
1, 54240, Note_on_c, 1, 27, 127
1, 54240, Note_on_c, 1, 63, 127
1, 54240, Note_on_c, 1, 55, 127
1, 54299, Note_off_c, 1, 63, 0
1, 54300, Note_on_c, 1, 72, 127
1, 54359, Note_off_c, 1, 51, 0
1, 54359, Note_off_c, 1, 27, 0
1, 54360, Note_off_c, 1, 55, 0
1, 54360, Note_on_c, 1, 68, 127
1, 54419, Note_off_c, 1, 68, 0
1, 54420, Note_on_c, 1, 60, 127
1, 54479, Note_off_c, 1, 72, 0
1, 54480, Note_on_c, 1, 74, 127
1, 54539, Note_off_c, 1, 60, 0
1, 54539, Note_off_c, 1, 74, 0
1, 54540, Note_on_c, 1, 75, 127
1, 54599, Note_off_c, 1, 75, 0
1, 54600, Note_on_c, 1, 70, 127
1, 54630, Note_on_c, 1, 67, 127
1, 54660, Note_off_c, 1, 67, 0
1, 54780, Note_on_c, 1, 58, 127
1, 54839, Note_off_c, 1, 70, 0
1, 54899, Note_off_c, 1, 58, 0
1, 55140, Note_on_c, 1, 62, 127
1, 55259, Note_off_c, 1, 62, 0
1, 55260, Note_on_c, 1, 53, 127
1, 55305, Note_on_c, 1, 77, 127
1, 55319, Note_off_c, 1, 53, 0
1, 55319, Note_off_c, 1, 77, 0
1, 55380, Note_on_c, 1, 41, 127
1, 55380, Note_on_c, 1, 29, 127
1, 55439, Note_off_c, 1, 41, 0
1, 55439, Note_off_c, 1, 29, 0
1, 55440, Note_on_c, 1, 43, 127
1, 55440, Note_on_c, 1, 31, 127
1, 55499, Note_off_c, 1, 43, 0
1, 55499, Note_off_c, 1, 31, 0
1, 55500, Note_on_c, 1, 36, 127
1, 55500, Note_on_c, 1, 24, 127
1, 55500, Note_on_c, 1, 48, 127
1, 55530, Note_on_c, 1, 69, 127
1, 55559, Note_off_c, 1, 69, 0
1, 55619, Note_off_c, 1, 36, 0
1, 55619, Note_off_c, 1, 24, 0
1, 55619, Note_off_c, 1, 48, 0
1, 55680, Note_on_c, 1, 46, 127
1, 55680, Note_on_c, 1, 34, 127
1, 55799, Note_off_c, 1, 46, 0
1, 55799, Note_off_c, 1, 34, 0
1, 55860, Note_on_c, 1, 50, 127
1, 55860, Note_on_c, 1, 38, 127
1, 55860, Note_on_c, 1, 70, 127
1, 55860, Note_on_c, 1, 77, 127
1, 55889, Note_off_c, 1, 70, 0
1, 55890, Note_on_c, 1, 72, 127
1, 55919, Note_off_c, 1, 72, 0
1, 55920, Note_on_c, 1, 74, 127
1, 55949, Note_off_c, 1, 74, 0
1, 55950, Note_on_c, 1, 75, 127
1, 55979, Note_off_c, 1, 50, 0
1, 55979, Note_off_c, 1, 38, 0
1, 55979, Note_off_c, 1, 75, 0
1, 55980, Note_on_c, 1, 62, 127
1, 55980, Note_on_c, 1, 46, 127
1, 55980, Note_on_c, 1, 34, 127
1, 55980, Note_on_c, 1, 68, 127
1, 56039, Note_off_c, 1, 46, 0
1, 56039, Note_off_c, 1, 34, 0
1, 56040, Note_off_c, 1, 62, 0
1, 56040, Note_on_c, 1, 63, 127
1, 56040, Note_on_c, 1, 51, 127
1, 56040, Note_on_c, 1, 39, 127
1, 56099, Note_off_c, 1, 77, 0
1, 56100, Note_off_c, 1, 68, 0
1, 56100, Note_on_c, 1, 67, 127
1, 56159, Note_off_c, 1, 51, 0
1, 56159, Note_off_c, 1, 39, 0
1, 56160, Note_off_c, 1, 63, 0
1, 56189, Note_off_c, 1, 67, 0
1, 56220, Note_on_c, 1, 48, 127
1, 56220, Note_on_c, 1, 36, 127
1, 56220, Note_on_c, 1, 69, 127
1, 56249, Note_off_c, 1, 69, 0
1, 56339, Note_off_c, 1, 48, 0
1, 56339, Note_off_c, 1, 36, 0
1, 56340, Note_on_c, 1, 60, 127
1, 56340, Note_on_c, 1, 45, 127
1, 56340, Note_on_c, 1, 33, 127
1, 56399, Note_off_c, 1, 45, 0
1, 56399, Note_off_c, 1, 33, 0
1, 56400, Note_off_c, 1, 60, 0
1, 56460, Note_on_c, 1, 65, 127
1, 56549, Note_off_c, 1, 65, 0
1, 56700, Note_on_c, 1, 58, 127
1, 56700, Note_on_c, 1, 43, 127
1, 56700, Note_on_c, 1, 31, 127
1, 56759, Note_off_c, 1, 58, 0
1, 56759, Note_off_c, 1, 43, 0
1, 56759, Note_off_c, 1, 31, 0
1, 57060, Note_on_c, 1, 41, 127
1, 57060, Note_on_c, 1, 29, 127
1, 57119, Note_off_c, 1, 41, 0
1, 57119, Note_off_c, 1, 29, 0
1, 57120, Note_on_c, 1, 53, 127
1, 57240, Note_off_c, 1, 53, 0
1, 57420, Note_on_c, 1, 72, 127
1, 57420, Note_on_c, 1, 46, 127
1, 57420, Note_on_c, 1, 63, 127
1, 57420, Note_on_c, 1, 58, 127
1, 57449, Note_off_c, 1, 72, 0
1, 57449, Note_off_c, 1, 63, 0
1, 57480, Note_on_c, 1, 34, 127
1, 57480, Note_on_c, 1, 70, 127
1, 57480, Note_on_c, 1, 62, 127
1, 57509, Note_off_c, 1, 62, 0
1, 57510, Note_on_c, 1, 65, 127
1, 57539, Note_off_c, 1, 65, 0
1, 57540, Note_on_c, 1, 67, 127
1, 57569, Note_off_c, 1, 67, 0
1, 57599, Note_off_c, 1, 46, 0
1, 57599, Note_off_c, 1, 58, 0
1, 57599, Note_off_c, 1, 34, 0
1, 57599, Note_off_c, 1, 70, 0
1, 57600, Note_on_c, 1, 58, 127
1, 57600, Note_on_c, 1, 65, 127
1, 57600, Note_on_c, 1, 46, 127
1, 57629, Note_off_c, 1, 65, 0
1, 57660, Note_on_c, 1, 67, 127
1, 57660, Note_on_c, 1, 75, 127
1, 57689, Note_off_c, 1, 67, 0
1, 57689, Note_off_c, 1, 75, 0
1, 57720, Note_on_c, 1, 74, 127
1, 57749, Note_off_c, 1, 74, 0
1, 57779, Note_off_c, 1, 58, 0
1, 57779, Note_off_c, 1, 46, 0
1, 57780, Note_on_c, 1, 63, 127
1, 57780, Note_on_c, 1, 46, 127
1, 57780, Note_on_c, 1, 72, 127
1, 57780, Note_on_c, 1, 58, 127
1, 57809, Note_off_c, 1, 63, 0
1, 57809, Note_off_c, 1, 72, 0
1, 57840, Note_on_c, 1, 34, 127
1, 57840, Note_on_c, 1, 62, 127
1, 57840, Note_on_c, 1, 70, 127
1, 57900, Note_off_c, 1, 70, 0
1, 57900, Note_on_c, 1, 79, 127
1, 57959, Note_off_c, 1, 46, 0
1, 57959, Note_off_c, 1, 58, 0
1, 57959, Note_off_c, 1, 34, 0
1, 57959, Note_off_c, 1, 62, 0
1, 57960, Note_on_c, 1, 75, 127
1, 58019, Note_off_c, 1, 75, 0
1, 58020, Note_on_c, 1, 67, 127
1, 58079, Note_off_c, 1, 79, 0
1, 58080, Note_on_c, 1, 81, 127
1, 58139, Note_off_c, 1, 67, 0
1, 58139, Note_off_c, 1, 81, 0
1, 58140, Note_on_c, 1, 82, 127
1, 58199, Note_off_c, 1, 82, 0
1, 58200, Note_on_c, 1, 77, 127
1, 58230, Note_on_c, 1, 74, 127
1, 58259, Note_off_c, 1, 74, 0
1, 58380, Note_on_c, 1, 65, 127
1, 58439, Note_off_c, 1, 77, 0
1, 58499, Note_off_c, 1, 65, 0
1, 58740, Note_on_c, 1, 69, 127
1, 58859, Note_off_c, 1, 69, 0
1, 58860, Note_on_c, 1, 60, 127
1, 58905, Note_on_c, 1, 84, 127
1, 58919, Note_off_c, 1, 60, 0
1, 58919, Note_off_c, 1, 84, 0
1, 58980, Note_on_c, 1, 48, 127
1, 58980, Note_on_c, 1, 36, 127
1, 59039, Note_off_c, 1, 48, 0
1, 59039, Note_off_c, 1, 36, 0
1, 59040, Note_on_c, 1, 50, 127
1, 59040, Note_on_c, 1, 38, 127
1, 59099, Note_off_c, 1, 50, 0
1, 59099, Note_off_c, 1, 38, 0
1, 59100, Note_on_c, 1, 43, 127
1, 59100, Note_on_c, 1, 31, 127
1, 59100, Note_on_c, 1, 55, 127
1, 59130, Note_on_c, 1, 76, 127
1, 59159, Note_off_c, 1, 76, 0
1, 59219, Note_off_c, 1, 43, 0
1, 59219, Note_off_c, 1, 31, 0
1, 59219, Note_off_c, 1, 55, 0
1, 59220, Note_on_c, 1, 48, 127
1, 59220, Note_on_c, 1, 36, 127
1, 59220, Note_on_c, 1, 72, 127
1, 59220, Note_on_c, 1, 77, 127
1, 59220, Note_on_c, 1, 60, 127
1, 59229, Note_off_c, 1, 72, 0
1, 59229, Note_off_c, 1, 77, 0
1, 59230, Note_on_c, 1, 70, 127
1, 59230, Note_on_c, 1, 76, 127
1, 59239, Note_off_c, 1, 70, 0
1, 59239, Note_off_c, 1, 76, 0
1, 59260, Note_on_c, 1, 69, 127
1, 59260, Note_on_c, 1, 74, 127
1, 59269, Note_off_c, 1, 69, 0
1, 59269, Note_off_c, 1, 74, 0
1, 59279, Note_off_c, 1, 48, 0
1, 59279, Note_off_c, 1, 36, 0
1, 59279, Note_off_c, 1, 60, 0
1, 59280, Note_on_c, 1, 41, 127
1, 59280, Note_on_c, 1, 29, 127
1, 59280, Note_on_c, 1, 69, 127
1, 59280, Note_on_c, 1, 77, 127
1, 59280, Note_on_c, 1, 53, 127
1, 59309, Note_off_c, 1, 69, 0
1, 59310, Note_on_c, 1, 67, 127
1, 59339, Note_off_c, 1, 41, 0
1, 59339, Note_off_c, 1, 29, 0
1, 59339, Note_off_c, 1, 53, 0
1, 59339, Note_off_c, 1, 67, 0
1, 59340, Note_on_c, 1, 60, 127
1, 59370, Note_on_c, 1, 65, 127
1, 59399, Note_off_c, 1, 77, 0
1, 59399, Note_off_c, 1, 60, 0
1, 59399, Note_off_c, 1, 65, 0
1, 59400, Note_on_c, 1, 51, 127
1, 59400, Note_on_c, 1, 39, 127
1, 59400, Note_on_c, 1, 60, 127
1, 59400, Note_on_c, 1, 65, 127
1, 59400, Note_on_c, 1, 63, 127
1, 59429, Note_off_c, 1, 60, 0
1, 59459, Note_off_c, 1, 51, 0
1, 59459, Note_off_c, 1, 39, 0
1, 59459, Note_off_c, 1, 65, 0
1, 59459, Note_off_c, 1, 63, 0
1, 59460, Note_on_c, 1, 77, 127
1, 59460, Note_on_c, 1, 70, 127
1, 59460, Note_on_c, 1, 62, 127
1, 59460, Note_on_c, 1, 50, 127
1, 59460, Note_on_c, 1, 38, 127
1, 59460, Note_on_c, 1, 65, 127
1, 59490, Note_on_c, 1, 69, 127
1, 59519, Note_off_c, 1, 77, 0
1, 59519, Note_off_c, 1, 69, 0
1, 59520, Note_off_c, 1, 62, 0
1, 59520, Note_on_c, 1, 53, 127
1, 59520, Note_on_c, 1, 58, 127
1, 59549, Note_off_c, 1, 70, 0
1, 59579, Note_off_c, 1, 50, 0
1, 59579, Note_off_c, 1, 38, 0
1, 59579, Note_off_c, 1, 65, 0
1, 59579, Note_off_c, 1, 53, 0
1, 59579, Note_off_c, 1, 58, 0
1, 59580, Note_on_c, 1, 58, 127
1, 59580, Note_on_c, 1, 46, 127
1, 59580, Note_on_c, 1, 62, 127
1, 59580, Note_on_c, 1, 77, 127
1, 59580, Note_on_c, 1, 53, 127
1, 59609, Note_off_c, 1, 62, 0
1, 59610, Note_on_c, 1, 65, 127
1, 59639, Note_off_c, 1, 58, 0
1, 59639, Note_off_c, 1, 46, 0
1, 59639, Note_off_c, 1, 77, 0
1, 59639, Note_off_c, 1, 53, 0
1, 59639, Note_off_c, 1, 65, 0
1, 59640, Note_on_c, 1, 75, 127
1, 59640, Note_on_c, 1, 69, 127
1, 59640, Note_on_c, 1, 63, 127
1, 59640, Note_on_c, 1, 48, 127
1, 59640, Note_on_c, 1, 36, 127
1, 59640, Note_on_c, 1, 72, 127
1, 59640, Note_on_c, 1, 57, 127
1, 59669, Note_off_c, 1, 72, 0
1, 59670, Note_on_c, 1, 70, 127
1, 59699, Note_off_c, 1, 57, 0
1, 59699, Note_off_c, 1, 70, 0
1, 59700, Note_off_c, 1, 69, 0
1, 59700, Note_off_c, 1, 63, 0
1, 59700, Note_on_c, 1, 51, 127
1, 59700, Note_on_c, 1, 53, 127
1, 59759, Note_off_c, 1, 75, 0
1, 59759, Note_off_c, 1, 48, 0
1, 59759, Note_off_c, 1, 36, 0
1, 59759, Note_off_c, 1, 51, 0
1, 59759, Note_off_c, 1, 53, 0
1, 59760, Note_on_c, 1, 57, 127
1, 59760, Note_on_c, 1, 45, 127
1, 59760, Note_on_c, 1, 65, 127
1, 59760, Note_on_c, 1, 48, 127
1, 59790, Note_on_c, 1, 69, 127
1, 59819, Note_off_c, 1, 57, 0
1, 59819, Note_off_c, 1, 45, 0
1, 59819, Note_off_c, 1, 65, 0
1, 59819, Note_off_c, 1, 48, 0
1, 59819, Note_off_c, 1, 69, 0
1, 59820, Note_on_c, 1, 74, 127
1, 59820, Note_on_c, 1, 70, 127
1, 59820, Note_on_c, 1, 65, 127
1, 59820, Note_on_c, 1, 46, 127
1, 59820, Note_on_c, 1, 34, 127
1, 59820, Note_on_c, 1, 58, 127
1, 59850, Note_on_c, 1, 72, 127
1, 59879, Note_off_c, 1, 74, 0
1, 59879, Note_off_c, 1, 58, 0
1, 59879, Note_off_c, 1, 72, 0
1, 59880, Note_off_c, 1, 70, 0
1, 59880, Note_on_c, 1, 53, 127
1, 59939, Note_off_c, 1, 65, 0
1, 59939, Note_off_c, 1, 46, 0
1, 59939, Note_off_c, 1, 34, 0
1, 59939, Note_off_c, 1, 53, 0
1, 59940, Note_on_c, 1, 58, 127
1, 59940, Note_on_c, 1, 46, 127
1, 59940, Note_on_c, 1, 65, 127
1, 59940, Note_on_c, 1, 74, 127
1, 59969, Note_off_c, 1, 65, 0
1, 59970, Note_on_c, 1, 70, 127
1, 59999, Note_off_c, 1, 58, 0
1, 59999, Note_off_c, 1, 46, 0
1, 59999, Note_off_c, 1, 74, 0
1, 59999, Note_off_c, 1, 70, 0
1, 60000, Note_on_c, 1, 72, 127
1, 60000, Note_on_c, 1, 69, 127
1, 60000, Note_on_c, 1, 65, 127
1, 60000, Note_on_c, 1, 53, 127
1, 60000, Note_on_c, 1, 41, 127
1, 60030, Note_on_c, 1, 64, 127
1, 60059, Note_off_c, 1, 64, 0
1, 60060, Note_on_c, 1, 57, 127
1, 60090, Note_on_c, 1, 67, 127
1, 60119, Note_off_c, 1, 72, 0
1, 60119, Note_off_c, 1, 69, 0
1, 60119, Note_off_c, 1, 65, 0
1, 60119, Note_off_c, 1, 53, 0
1, 60119, Note_off_c, 1, 41, 0
1, 60119, Note_off_c, 1, 57, 0
1, 60119, Note_off_c, 1, 67, 0
1, 60120, Note_on_c, 1, 41, 127
1, 60120, Note_on_c, 1, 29, 127
1, 60120, Note_on_c, 1, 60, 127
1, 60120, Note_on_c, 1, 69, 127
1, 60149, Note_off_c, 1, 69, 0
1, 60150, Note_on_c, 1, 70, 127
1, 60179, Note_off_c, 1, 41, 0
1, 60179, Note_off_c, 1, 29, 0
1, 60179, Note_off_c, 1, 60, 0
1, 60179, Note_off_c, 1, 70, 0
1, 60180, Note_on_c, 1, 42, 127
1, 60180, Note_on_c, 1, 30, 127
1, 60180, Note_on_c, 1, 54, 127
1, 60180, Note_on_c, 1, 72, 127
1, 60209, Note_off_c, 1, 72, 0
1, 60210, Note_on_c, 1, 75, 127
1, 60239, Note_off_c, 1, 75, 0
1, 60240, Note_on_c, 1, 69, 127
1, 60240, Note_on_c, 1, 74, 127
1, 60269, Note_off_c, 1, 74, 0
1, 60299, Note_off_c, 1, 42, 0
1, 60299, Note_off_c, 1, 30, 0
1, 60299, Note_off_c, 1, 54, 0
1, 60300, Note_on_c, 1, 66, 127
1, 60300, Note_on_c, 1, 62, 127
1, 60300, Note_on_c, 1, 38, 127
1, 60300, Note_on_c, 1, 26, 127
1, 60300, Note_on_c, 1, 70, 127
1, 60329, Note_off_c, 1, 70, 0
1, 60359, Note_off_c, 1, 66, 0
1, 60359, Note_off_c, 1, 62, 0
1, 60359, Note_off_c, 1, 38, 0
1, 60359, Note_off_c, 1, 26, 0
1, 60360, Note_on_c, 1, 43, 127
1, 60360, Note_on_c, 1, 31, 127
1, 60360, Note_on_c, 1, 55, 127
1, 60390, Note_off_c, 1, 69, 0
1, 60420, Note_on_c, 1, 67, 127
1, 60420, Note_on_c, 1, 58, 127
1, 60449, Note_off_c, 1, 67, 0
1, 60479, Note_off_c, 1, 43, 0
1, 60479, Note_off_c, 1, 31, 0
1, 60479, Note_off_c, 1, 55, 0
1, 60479, Note_off_c, 1, 58, 0
1, 60480, Note_on_c, 1, 51, 127
1, 60480, Note_on_c, 1, 39, 127
1, 60539, Note_off_c, 1, 51, 0
1, 60539, Note_off_c, 1, 39, 0
1, 60540, Note_on_c, 1, 43, 127
1, 60540, Note_on_c, 1, 31, 127
1, 60540, Note_on_c, 1, 74, 127
1, 60540, Note_on_c, 1, 55, 127
1, 60569, Note_off_c, 1, 74, 0
1, 60570, Note_on_c, 1, 77, 127
1, 60599, Note_off_c, 1, 77, 0
1, 60600, Note_on_c, 1, 75, 127
1, 60600, Note_on_c, 1, 70, 127
1, 60629, Note_off_c, 1, 75, 0
1, 60659, Note_off_c, 1, 43, 0
1, 60659, Note_off_c, 1, 31, 0
1, 60659, Note_off_c, 1, 55, 0
1, 60660, Note_on_c, 1, 67, 127
1, 60660, Note_on_c, 1, 63, 127
1, 60660, Note_on_c, 1, 39, 127
1, 60660, Note_on_c, 1, 27, 127
1, 60660, Note_on_c, 1, 72, 127
1, 60689, Note_off_c, 1, 72, 0
1, 60719, Note_off_c, 1, 67, 0
1, 60719, Note_off_c, 1, 63, 0
1, 60719, Note_off_c, 1, 39, 0
1, 60719, Note_off_c, 1, 27, 0
1, 60720, Note_on_c, 1, 65, 127
1, 60720, Note_on_c, 1, 45, 127
1, 60720, Note_on_c, 1, 33, 127
1, 60720, Note_on_c, 1, 57, 127
1, 60750, Note_off_c, 1, 70, 0
1, 60780, Note_on_c, 1, 60, 127
1, 60780, Note_on_c, 1, 69, 127
1, 60809, Note_off_c, 1, 69, 0
1, 60839, Note_off_c, 1, 65, 0
1, 60839, Note_off_c, 1, 45, 0
1, 60839, Note_off_c, 1, 33, 0
1, 60839, Note_off_c, 1, 57, 0
1, 60839, Note_off_c, 1, 60, 0
1, 60840, Note_on_c, 1, 53, 127
1, 60840, Note_on_c, 1, 41, 127
1, 60899, Note_off_c, 1, 53, 0
1, 60899, Note_off_c, 1, 41, 0
1, 60900, Note_on_c, 1, 45, 127
1, 60900, Note_on_c, 1, 33, 127
1, 60900, Note_on_c, 1, 57, 127
1, 60900, Note_on_c, 1, 75, 127
1, 60929, Note_off_c, 1, 75, 0
1, 60930, Note_on_c, 1, 79, 127
1, 60959, Note_off_c, 1, 79, 0
1, 60960, Note_on_c, 1, 77, 127
1, 60989, Note_off_c, 1, 77, 0
1, 61019, Note_off_c, 1, 45, 0
1, 61019, Note_off_c, 1, 33, 0
1, 61019, Note_off_c, 1, 57, 0
1, 61020, Note_on_c, 1, 77, 127
1, 61020, Note_on_c, 1, 69, 127
1, 61020, Note_on_c, 1, 65, 127
1, 61020, Note_on_c, 1, 41, 127
1, 61020, Note_on_c, 1, 29, 127
1, 61020, Note_on_c, 1, 81, 127
1, 61020, Note_on_c, 1, 74, 127
1, 61020, Note_on_c, 1, 53, 127
1, 61049, Note_off_c, 1, 74, 0
1, 61050, Note_on_c, 1, 72, 127
1, 61079, Note_off_c, 1, 77, 0
1, 61079, Note_off_c, 1, 69, 0
1, 61079, Note_off_c, 1, 65, 0
1, 61079, Note_off_c, 1, 41, 0
1, 61079, Note_off_c, 1, 29, 0
1, 61079, Note_off_c, 1, 81, 0
1, 61079, Note_off_c, 1, 53, 0
1, 61079, Note_off_c, 1, 72, 0
1, 61080, Note_on_c, 1, 74, 127
1, 61080, Note_on_c, 1, 65, 127
1, 61080, Note_on_c, 1, 46, 127
1, 61080, Note_on_c, 1, 34, 127
1, 61080, Note_on_c, 1, 82, 127
1, 61080, Note_on_c, 1, 58, 127
1, 61110, Note_on_c, 1, 72, 127
1, 61139, Note_off_c, 1, 74, 0
1, 61139, Note_off_c, 1, 65, 0
1, 61139, Note_off_c, 1, 46, 0
1, 61139, Note_off_c, 1, 34, 0
1, 61139, Note_off_c, 1, 58, 0
1, 61139, Note_off_c, 1, 72, 0
1, 61170, Note_on_c, 1, 70, 127
1, 61199, Note_off_c, 1, 82, 0
1, 61199, Note_off_c, 1, 70, 0
1, 61200, Note_on_c, 1, 56, 127
1, 61200, Note_on_c, 1, 44, 127
1, 61200, Note_on_c, 1, 70, 127
1, 61200, Note_on_c, 1, 68, 127
1, 61200, Note_on_c, 1, 65, 127
1, 61229, Note_off_c, 1, 65, 0
1, 61259, Note_off_c, 1, 56, 0
1, 61259, Note_off_c, 1, 44, 0
1, 61259, Note_off_c, 1, 70, 0
1, 61259, Note_off_c, 1, 68, 0
1, 61260, Note_on_c, 1, 82, 127
1, 61260, Note_on_c, 1, 67, 127
1, 61260, Note_on_c, 1, 63, 127
1, 61260, Note_on_c, 1, 55, 127
1, 61260, Note_on_c, 1, 43, 127
1, 61260, Note_on_c, 1, 70, 127
1, 61260, Note_on_c, 1, 75, 127
1, 61289, Note_off_c, 1, 75, 0
1, 61290, Note_on_c, 1, 74, 127
1, 61319, Note_off_c, 1, 82, 0
1, 61319, Note_off_c, 1, 67, 0
1, 61319, Note_off_c, 1, 63, 0
1, 61319, Note_off_c, 1, 74, 0
1, 61320, Note_on_c, 1, 58, 127
1, 61379, Note_off_c, 1, 55, 0
1, 61379, Note_off_c, 1, 43, 0
1, 61379, Note_off_c, 1, 70, 0
1, 61379, Note_off_c, 1, 58, 0
1, 61380, Note_on_c, 1, 63, 127
1, 61380, Note_on_c, 1, 51, 127
1, 61380, Note_on_c, 1, 82, 127
1, 61380, Note_on_c, 1, 67, 127
1, 61409, Note_off_c, 1, 67, 0
1, 61410, Note_on_c, 1, 70, 127
1, 61439, Note_off_c, 1, 63, 0
1, 61439, Note_off_c, 1, 51, 0
1, 61439, Note_off_c, 1, 82, 0
1, 61439, Note_off_c, 1, 70, 0
1, 61440, Note_on_c, 1, 80, 127
1, 61440, Note_on_c, 1, 68, 127
1, 61440, Note_on_c, 1, 62, 127
1, 61440, Note_on_c, 1, 53, 127
1, 61440, Note_on_c, 1, 41, 127
1, 61440, Note_on_c, 1, 77, 127
1, 61469, Note_off_c, 1, 77, 0
1, 61470, Note_on_c, 1, 75, 127
1, 61499, Note_off_c, 1, 68, 0
1, 61499, Note_off_c, 1, 62, 0
1, 61499, Note_off_c, 1, 75, 0
1, 61500, Note_on_c, 1, 58, 127
1, 61500, Note_on_c, 1, 56, 127
1, 61530, Note_on_c, 1, 74, 127
1, 61559, Note_off_c, 1, 80, 0
1, 61559, Note_off_c, 1, 53, 0
1, 61559, Note_off_c, 1, 41, 0
1, 61559, Note_off_c, 1, 58, 0
1, 61559, Note_off_c, 1, 56, 0
1, 61559, Note_off_c, 1, 74, 0
1, 61560, Note_on_c, 1, 62, 127
1, 61560, Note_on_c, 1, 50, 127
1, 61560, Note_on_c, 1, 70, 127
1, 61560, Note_on_c, 1, 53, 127
1, 61590, Note_on_c, 1, 74, 127
1, 61619, Note_off_c, 1, 62, 0
1, 61619, Note_off_c, 1, 50, 0
1, 61619, Note_off_c, 1, 70, 0
1, 61619, Note_off_c, 1, 53, 0
1, 61619, Note_off_c, 1, 74, 0
1, 61620, Note_on_c, 1, 79, 127
1, 61620, Note_on_c, 1, 70, 127
1, 61620, Note_on_c, 1, 63, 127
1, 61620, Note_on_c, 1, 51, 127
1, 61620, Note_on_c, 1, 39, 127
1, 61650, Note_on_c, 1, 77, 127
1, 61679, Note_off_c, 1, 79, 0
1, 61679, Note_off_c, 1, 63, 0
1, 61679, Note_off_c, 1, 77, 0
1, 61680, Note_on_c, 1, 58, 127
1, 61710, Note_on_c, 1, 75, 127
1, 61739, Note_off_c, 1, 70, 0
1, 61739, Note_off_c, 1, 51, 0
1, 61739, Note_off_c, 1, 39, 0
1, 61739, Note_off_c, 1, 58, 0
1, 61739, Note_off_c, 1, 75, 0
1, 61740, Note_on_c, 1, 63, 127
1, 61740, Note_on_c, 1, 51, 127
1, 61740, Note_on_c, 1, 79, 127
1, 61740, Note_on_c, 1, 70, 127
1, 61769, Note_off_c, 1, 70, 0
1, 61770, Note_on_c, 1, 75, 127
1, 61799, Note_off_c, 1, 63, 0
1, 61799, Note_off_c, 1, 51, 0
1, 61799, Note_off_c, 1, 79, 0
1, 61799, Note_off_c, 1, 75, 0
1, 61800, Note_on_c, 1, 77, 127
1, 61800, Note_on_c, 1, 74, 127
1, 61800, Note_on_c, 1, 65, 127
1, 61800, Note_on_c, 1, 58, 127
1, 61800, Note_on_c, 1, 46, 127
1, 61830, Note_on_c, 1, 69, 127
1, 61859, Note_off_c, 1, 69, 0
1, 61860, Note_on_c, 1, 70, 127
1, 61860, Note_on_c, 1, 62, 127
1, 61889, Note_off_c, 1, 70, 0
1, 61890, Note_on_c, 1, 72, 127
1, 61919, Note_off_c, 1, 77, 0
1, 61919, Note_off_c, 1, 74, 0
1, 61919, Note_off_c, 1, 65, 0
1, 61919, Note_off_c, 1, 58, 0
1, 61919, Note_off_c, 1, 46, 0
1, 61919, Note_off_c, 1, 62, 0
1, 61919, Note_off_c, 1, 72, 0
1, 61920, Note_on_c, 1, 46, 127
1, 61920, Note_on_c, 1, 34, 127
1, 61920, Note_on_c, 1, 74, 127
1, 61920, Note_on_c, 1, 65, 127
1, 61949, Note_off_c, 1, 74, 0
1, 61950, Note_on_c, 1, 75, 127
1, 61979, Note_off_c, 1, 46, 0
1, 61979, Note_off_c, 1, 34, 0
1, 61979, Note_off_c, 1, 65, 0
1, 61979, Note_off_c, 1, 75, 0
1, 61980, Note_on_c, 1, 47, 127
1, 61980, Note_on_c, 1, 35, 127
1, 61980, Note_on_c, 1, 77, 127
1, 61980, Note_on_c, 1, 59, 127
1, 62009, Note_off_c, 1, 77, 0
1, 62010, Note_on_c, 1, 80, 127
1, 62039, Note_off_c, 1, 80, 0
1, 62040, Note_on_c, 1, 79, 127
1, 62040, Note_on_c, 1, 74, 127
1, 62069, Note_off_c, 1, 79, 0
1, 62099, Note_off_c, 1, 47, 0
1, 62099, Note_off_c, 1, 35, 0
1, 62099, Note_off_c, 1, 59, 0
1, 62100, Note_on_c, 1, 71, 127
1, 62100, Note_on_c, 1, 67, 127
1, 62100, Note_on_c, 1, 43, 127
1, 62100, Note_on_c, 1, 31, 127
1, 62100, Note_on_c, 1, 75, 127
1, 62129, Note_off_c, 1, 75, 0
1, 62159, Note_off_c, 1, 71, 0
1, 62159, Note_off_c, 1, 67, 0
1, 62159, Note_off_c, 1, 43, 0
1, 62159, Note_off_c, 1, 31, 0
1, 62160, Note_on_c, 1, 48, 127
1, 62160, Note_on_c, 1, 36, 127
1, 62160, Note_on_c, 1, 60, 127
1, 62190, Note_off_c, 1, 74, 0
1, 62220, Note_on_c, 1, 63, 127
1, 62220, Note_on_c, 1, 72, 127
1, 62249, Note_off_c, 1, 72, 0
1, 62279, Note_off_c, 1, 48, 0
1, 62279, Note_off_c, 1, 36, 0
1, 62279, Note_off_c, 1, 63, 0
1, 62280, Note_on_c, 1, 56, 127
1, 62280, Note_on_c, 1, 44, 127
1, 62339, Note_off_c, 1, 56, 0
1, 62339, Note_off_c, 1, 44, 0
1, 62370, Note_on_c, 1, 82, 127
1, 62399, Note_off_c, 1, 82, 0
1, 62459, Note_off_c, 1, 60, 0
1, 62460, Note_on_c, 1, 68, 127
1, 62460, Note_on_c, 1, 32, 127
1, 62519, Note_off_c, 1, 68, 0
1, 62519, Note_off_c, 1, 32, 0
1, 62520, Note_on_c, 1, 70, 127
1, 62520, Note_on_c, 1, 50, 127
1, 62520, Note_on_c, 1, 38, 127
1, 62520, Note_on_c, 1, 62, 127
1, 62580, Note_on_c, 1, 65, 127
1, 62639, Note_off_c, 1, 70, 0
1, 62639, Note_off_c, 1, 50, 0
1, 62639, Note_off_c, 1, 38, 0
1, 62639, Note_off_c, 1, 62, 0
1, 62639, Note_off_c, 1, 65, 0
1, 62640, Note_on_c, 1, 58, 127
1, 62640, Note_on_c, 1, 46, 127
1, 62699, Note_off_c, 1, 58, 0
1, 62699, Note_off_c, 1, 46, 0
1, 62700, Note_on_c, 1, 50, 127
1, 62700, Note_on_c, 1, 38, 127
1, 62700, Note_on_c, 1, 80, 127
1, 62700, Note_on_c, 1, 62, 127
1, 62729, Note_off_c, 1, 80, 0
1, 62730, Note_on_c, 1, 84, 127
1, 62759, Note_off_c, 1, 84, 0
1, 62760, Note_on_c, 1, 82, 127
1, 62789, Note_off_c, 1, 82, 0
1, 62819, Note_off_c, 1, 50, 0
1, 62819, Note_off_c, 1, 38, 0
1, 62819, Note_off_c, 1, 62, 0
1, 62820, Note_on_c, 1, 82, 127
1, 62820, Note_on_c, 1, 74, 127
1, 62820, Note_on_c, 1, 58, 127
1, 62820, Note_on_c, 1, 46, 127
1, 62820, Note_on_c, 1, 34, 127
1, 62820, Note_on_c, 1, 79, 127
1, 62849, Note_off_c, 1, 79, 0
1, 62850, Note_on_c, 1, 77, 127
1, 62879, Note_off_c, 1, 82, 0
1, 62879, Note_off_c, 1, 74, 0
1, 62879, Note_off_c, 1, 58, 0
1, 62879, Note_off_c, 1, 46, 0
1, 62879, Note_off_c, 1, 34, 0
1, 62879, Note_off_c, 1, 77, 0
1, 62880, Note_on_c, 1, 79, 127
1, 62880, Note_on_c, 1, 70, 127
1, 62880, Note_on_c, 1, 58, 127
1, 62880, Note_on_c, 1, 51, 127
1, 62880, Note_on_c, 1, 39, 127
1, 62880, Note_on_c, 1, 63, 127
1, 62880, Note_on_c, 1, 75, 127
1, 62910, Note_on_c, 1, 77, 127
1, 62939, Note_off_c, 1, 51, 0
1, 62939, Note_off_c, 1, 39, 0
1, 62939, Note_off_c, 1, 75, 0
1, 62939, Note_off_c, 1, 77, 0
1, 62940, Note_on_c, 1, 55, 127
1, 62999, Note_off_c, 1, 55, 0
1, 63000, Note_off_c, 1, 63, 0
1, 63000, Note_on_c, 1, 67, 127
1, 63059, Note_off_c, 1, 67, 0
1, 63060, Note_on_c, 1, 49, 127
1, 63060, Note_on_c, 1, 37, 127
1, 63119, Note_off_c, 1, 70, 0
1, 63119, Note_off_c, 1, 37, 0
1, 63180, Note_on_c, 1, 61, 127
1, 63239, Note_off_c, 1, 49, 0
1, 63239, Note_off_c, 1, 61, 0
1, 63240, Note_off_c, 1, 58, 0
1, 63240, Note_on_c, 1, 76, 127
1, 63240, Note_on_c, 1, 60, 127
1, 63240, Note_on_c, 1, 48, 127
1, 63240, Note_on_c, 1, 36, 127
1, 63300, Note_on_c, 1, 52, 127
1, 63359, Note_off_c, 1, 48, 0
1, 63359, Note_off_c, 1, 36, 0
1, 63359, Note_off_c, 1, 52, 0
1, 63360, Note_on_c, 1, 24, 127
1, 63419, Note_off_c, 1, 24, 0
1, 63599, Note_off_c, 1, 79, 0
1, 63600, Note_off_c, 1, 76, 0
1, 63600, Note_on_c, 1, 80, 127
1, 63600, Note_on_c, 1, 53, 127
1, 63600, Note_on_c, 1, 41, 127
1, 63600, Note_on_c, 1, 65, 127
1, 63659, Note_off_c, 1, 53, 0
1, 63659, Note_off_c, 1, 41, 0
1, 63660, Note_on_c, 1, 72, 127
1, 63660, Note_on_c, 1, 56, 127
1, 63719, Note_off_c, 1, 65, 0
1, 63719, Note_off_c, 1, 72, 0
1, 63719, Note_off_c, 1, 56, 0
1, 63720, Note_on_c, 1, 68, 127
1, 63779, Note_off_c, 1, 68, 0
1, 63959, Note_off_c, 1, 80, 0
1, 63960, Note_off_c, 1, 60, 0
1, 63960, Note_on_c, 1, 81, 127
1, 63960, Note_on_c, 1, 78, 127
1, 63960, Note_on_c, 1, 62, 127
1, 63960, Note_on_c, 1, 50, 127
1, 63960, Note_on_c, 1, 38, 127
1, 64020, Note_on_c, 1, 54, 127
1, 64079, Note_off_c, 1, 50, 0
1, 64079, Note_off_c, 1, 38, 0
1, 64079, Note_off_c, 1, 54, 0
1, 64080, Note_on_c, 1, 26, 127
1, 64080, Note_on_c, 1, 69, 127
1, 64080, Note_on_c, 1, 57, 127
1, 64139, Note_off_c, 1, 26, 0
1, 64139, Note_off_c, 1, 69, 0
1, 64139, Note_off_c, 1, 57, 0
1, 64319, Note_off_c, 1, 81, 0
1, 64319, Note_off_c, 1, 78, 0
1, 64319, Note_off_c, 1, 62, 0
1, 64320, Note_on_c, 1, 82, 127
1, 64320, Note_on_c, 1, 79, 127
1, 64320, Note_on_c, 1, 62, 127
1, 64320, Note_on_c, 1, 55, 127
1, 64320, Note_on_c, 1, 43, 127
1, 64350, Note_on_c, 1, 81, 127
1, 64350, Note_on_c, 1, 60, 127
1, 64379, Note_off_c, 1, 81, 0
1, 64380, Note_off_c, 1, 60, 0
1, 64380, Note_on_c, 1, 58, 127
1, 64410, Note_off_c, 1, 58, 0
1, 64410, Note_on_c, 1, 78, 127
1, 64410, Note_on_c, 1, 57, 127
1, 64439, Note_off_c, 1, 82, 0
1, 64439, Note_off_c, 1, 55, 0
1, 64439, Note_off_c, 1, 43, 0
1, 64439, Note_off_c, 1, 78, 0
1, 64440, Note_off_c, 1, 62, 0
1, 64440, Note_off_c, 1, 57, 0
1, 64440, Note_on_c, 1, 31, 127
1, 64499, Note_off_c, 1, 31, 0
1, 64500, Note_on_c, 1, 72, 127
1, 64500, Note_on_c, 1, 75, 127
1, 64500, Note_on_c, 1, 45, 127
1, 64500, Note_on_c, 1, 33, 127
1, 64559, Note_off_c, 1, 79, 0
1, 64560, Note_on_c, 1, 77, 127
1, 64619, Note_off_c, 1, 72, 0
1, 64619, Note_off_c, 1, 45, 0
1, 64619, Note_off_c, 1, 33, 0
1, 64619, Note_off_c, 1, 77, 0
1, 64679, Note_off_c, 1, 75, 0
1, 64680, Note_on_c, 1, 79, 127
1, 64680, Note_on_c, 1, 74, 127
1, 64680, Note_on_c, 1, 62, 127
1, 64680, Note_on_c, 1, 58, 127
1, 64680, Note_on_c, 1, 46, 127
1, 64799, Note_off_c, 1, 79, 0
1, 64799, Note_off_c, 1, 58, 0
1, 64799, Note_off_c, 1, 46, 0
1, 64800, Note_off_c, 1, 62, 0
1, 64800, Note_on_c, 1, 34, 127
1, 64859, Note_off_c, 1, 34, 0
1, 64860, Note_on_c, 1, 75, 127
1, 64860, Note_on_c, 1, 67, 127
1, 64860, Note_on_c, 1, 63, 127
1, 64860, Note_on_c, 1, 48, 127
1, 64860, Note_on_c, 1, 36, 127
1, 64919, Note_off_c, 1, 74, 0
1, 64920, Note_on_c, 1, 72, 127
1, 64979, Note_off_c, 1, 75, 0
1, 64979, Note_off_c, 1, 48, 0
1, 64979, Note_off_c, 1, 36, 0
1, 64979, Note_off_c, 1, 72, 0
1, 64980, Note_off_c, 1, 67, 0
1, 64980, Note_off_c, 1, 63, 0
1, 64980, Note_on_c, 1, 60, 127
1, 64980, Note_on_c, 1, 70, 127
1, 65039, Note_off_c, 1, 60, 0
1, 65039, Note_off_c, 1, 70, 0
1, 65040, Note_on_c, 1, 66, 127
1, 65040, Note_on_c, 1, 69, 127
1, 65040, Note_on_c, 1, 57, 127
1, 65040, Note_on_c, 1, 60, 127
1, 65040, Note_on_c, 1, 48, 127
1, 65099, Note_off_c, 1, 66, 0
1, 65100, Note_on_c, 1, 74, 127
1, 65159, Note_off_c, 1, 60, 0
1, 65159, Note_off_c, 1, 48, 0
1, 65159, Note_off_c, 1, 74, 0
1, 65160, Note_off_c, 1, 69, 0
1, 65160, Note_off_c, 1, 57, 0
1, 65160, Note_on_c, 1, 79, 127
1, 65160, Note_on_c, 1, 67, 127
1, 65160, Note_on_c, 1, 58, 127
1, 65160, Note_on_c, 1, 46, 127
1, 65219, Note_off_c, 1, 67, 0
1, 65219, Note_off_c, 1, 58, 0
1, 65219, Note_off_c, 1, 46, 0
1, 65220, Note_on_c, 1, 45, 127
1, 65220, Note_on_c, 1, 72, 127
1, 65279, Note_off_c, 1, 79, 0
1, 65280, Note_on_c, 1, 76, 127
1, 65339, Note_off_c, 1, 45, 0
1, 65339, Note_off_c, 1, 76, 0
1, 65340, Note_on_c, 1, 78, 127
1, 65340, Note_on_c, 1, 62, 127
1, 65340, Note_on_c, 1, 50, 127
1, 65340, Note_on_c, 1, 38, 127
1, 65399, Note_off_c, 1, 78, 0
1, 65399, Note_off_c, 1, 62, 0
1, 65399, Note_off_c, 1, 50, 0
1, 65399, Note_off_c, 1, 38, 0
1, 65400, Note_on_c, 1, 55, 127
1, 65400, Note_on_c, 1, 43, 127
1, 65459, Note_off_c, 1, 72, 0
1, 65460, Note_on_c, 1, 71, 127
1, 65519, Note_off_c, 1, 55, 0
1, 65519, Note_off_c, 1, 43, 0
1, 65519, Note_off_c, 1, 71, 0
1, 65520, Note_on_c, 1, 63, 127
1, 65520, Note_on_c, 1, 51, 127
1, 65520, Note_on_c, 1, 39, 127
1, 65579, Note_off_c, 1, 63, 0
1, 65579, Note_off_c, 1, 51, 0
1, 65579, Note_off_c, 1, 39, 0
1, 65580, Note_on_c, 1, 72, 127
1, 65580, Note_on_c, 1, 68, 127
1, 65580, Note_on_c, 1, 65, 127
1, 65580, Note_on_c, 1, 50, 127
1, 65580, Note_on_c, 1, 38, 127
1, 65580, Note_on_c, 1, 77, 127
1, 65639, Note_off_c, 1, 77, 0
1, 65640, Note_on_c, 1, 79, 127
1, 65669, Note_off_c, 1, 79, 0
1, 65699, Note_off_c, 1, 72, 0
1, 65699, Note_off_c, 1, 50, 0
1, 65699, Note_off_c, 1, 38, 0
1, 65700, Note_off_c, 1, 68, 0
1, 65700, Note_off_c, 1, 65, 0
1, 65700, Note_on_c, 1, 71, 127
1, 65700, Note_on_c, 1, 67, 127
1, 65700, Note_on_c, 1, 43, 127
1, 65700, Note_on_c, 1, 31, 127
1, 65700, Note_on_c, 1, 75, 127
1, 65729, Note_off_c, 1, 75, 0
1, 65730, Note_on_c, 1, 74, 127
1, 65759, Note_off_c, 1, 71, 0
1, 65759, Note_off_c, 1, 67, 0
1, 65759, Note_off_c, 1, 43, 0
1, 65759, Note_off_c, 1, 31, 0
1, 65759, Note_off_c, 1, 74, 0
1, 65760, Note_on_c, 1, 72, 127
1, 65760, Note_on_c, 1, 67, 127
1, 65760, Note_on_c, 1, 63, 127
1, 65760, Note_on_c, 1, 48, 127
1, 65760, Note_on_c, 1, 36, 127
1, 65760, Note_on_c, 1, 84, 127
1, 65760, Note_on_c, 1, 60, 127
1, 65760, Note_on_c, 1, 75, 127
1, 65789, Note_off_c, 1, 75, 0
1, 65790, Note_on_c, 1, 74, 127
1, 65819, Note_off_c, 1, 74, 0
1, 65879, Note_off_c, 1, 72, 0
1, 65879, Note_off_c, 1, 67, 0
1, 65879, Note_off_c, 1, 63, 0
1, 65879, Note_off_c, 1, 48, 0
1, 65879, Note_off_c, 1, 36, 0
1, 65879, Note_off_c, 1, 60, 0
1, 65880, Note_on_c, 1, 24, 127
1, 65939, Note_off_c, 1, 24, 0
1, 65940, Note_on_c, 1, 77, 127
1, 65940, Note_on_c, 1, 65, 127
1, 65940, Note_on_c, 1, 62, 127
1, 65940, Note_on_c, 1, 38, 127
1, 65940, Note_on_c, 1, 26, 127
1, 65940, Note_on_c, 1, 50, 127
1, 65999, Note_off_c, 1, 84, 0
1, 66000, Note_on_c, 1, 82, 127
1, 66059, Note_off_c, 1, 77, 0
1, 66059, Note_off_c, 1, 65, 0
1, 66059, Note_off_c, 1, 62, 0
1, 66059, Note_off_c, 1, 38, 0
1, 66059, Note_off_c, 1, 26, 0
1, 66059, Note_off_c, 1, 50, 0
1, 66059, Note_off_c, 1, 82, 0
1, 66060, Note_on_c, 1, 50, 127
1, 66060, Note_on_c, 1, 38, 127
1, 66060, Note_on_c, 1, 80, 127
1, 66060, Note_on_c, 1, 62, 127
1, 66060, Note_on_c, 1, 70, 127
1, 66089, Note_off_c, 1, 70, 0
1, 66090, Note_on_c, 1, 74, 127
1, 66119, Note_off_c, 1, 50, 0
1, 66119, Note_off_c, 1, 38, 0
1, 66119, Note_off_c, 1, 80, 0
1, 66119, Note_off_c, 1, 62, 0
1, 66119, Note_off_c, 1, 74, 0
1, 66120, Note_on_c, 1, 75, 127
1, 66120, Note_on_c, 1, 72, 127
1, 66120, Note_on_c, 1, 55, 127
1, 66120, Note_on_c, 1, 51, 127
1, 66120, Note_on_c, 1, 39, 127
1, 66120, Note_on_c, 1, 79, 127
1, 66120, Note_on_c, 1, 63, 127
1, 66150, Note_on_c, 1, 77, 127
1, 66179, Note_off_c, 1, 77, 0
1, 66239, Note_off_c, 1, 75, 0
1, 66239, Note_off_c, 1, 72, 0
1, 66239, Note_off_c, 1, 55, 0
1, 66239, Note_off_c, 1, 51, 0
1, 66239, Note_off_c, 1, 39, 0
1, 66239, Note_off_c, 1, 63, 0
1, 66240, Note_on_c, 1, 27, 127
1, 66299, Note_off_c, 1, 27, 0
1, 66300, Note_on_c, 1, 68, 127
1, 66300, Note_on_c, 1, 60, 127
1, 66300, Note_on_c, 1, 41, 127
1, 66300, Note_on_c, 1, 29, 127
1, 66300, Note_on_c, 1, 80, 127
1, 66329, Note_off_c, 1, 80, 0
1, 66359, Note_off_c, 1, 79, 0
1, 66419, Note_off_c, 1, 68, 0
1, 66419, Note_off_c, 1, 60, 0
1, 66419, Note_off_c, 1, 41, 0
1, 66419, Note_off_c, 1, 29, 0
1, 66420, Note_on_c, 1, 53, 127
1, 66420, Note_on_c, 1, 41, 127
1, 66420, Note_on_c, 1, 75, 127
1, 66420, Note_on_c, 1, 79, 127
1, 66449, Note_off_c, 1, 79, 0
1, 66450, Note_on_c, 1, 80, 127
1, 66479, Note_off_c, 1, 53, 0
1, 66479, Note_off_c, 1, 41, 0
1, 66479, Note_off_c, 1, 75, 0
1, 66479, Note_off_c, 1, 80, 0
1, 66480, Note_on_c, 1, 79, 127
1, 66480, Note_on_c, 1, 62, 127
1, 66480, Note_on_c, 1, 55, 127
1, 66480, Note_on_c, 1, 53, 127
1, 66480, Note_on_c, 1, 41, 127
1, 66480, Note_on_c, 1, 74, 127
1, 66480, Note_on_c, 1, 71, 127
1, 66539, Note_off_c, 1, 74, 0
1, 66539, Note_off_c, 1, 71, 0
1, 66599, Note_off_c, 1, 79, 0
1, 66599, Note_off_c, 1, 62, 0
1, 66599, Note_off_c, 1, 55, 0
1, 66599, Note_off_c, 1, 53, 0
1, 66599, Note_off_c, 1, 41, 0
1, 66600, Note_on_c, 1, 79, 127
1, 66600, Note_on_c, 1, 63, 127
1, 66600, Note_on_c, 1, 55, 127
1, 66600, Note_on_c, 1, 51, 127
1, 66600, Note_on_c, 1, 39, 127
1, 66600, Note_on_c, 1, 72, 127
1, 66659, Note_off_c, 1, 51, 0
1, 66659, Note_off_c, 1, 39, 0
1, 66660, Note_off_c, 1, 79, 0
1, 66660, Note_off_c, 1, 63, 0
1, 66660, Note_off_c, 1, 55, 0
1, 66660, Note_on_c, 1, 77, 127
1, 66660, Note_on_c, 1, 68, 127
1, 66660, Note_on_c, 1, 62, 127
1, 66660, Note_on_c, 1, 50, 127
1, 66660, Note_on_c, 1, 38, 127
1, 66719, Note_off_c, 1, 72, 0
1, 66720, Note_on_c, 1, 71, 127
1, 66749, Note_off_c, 1, 71, 0
1, 66750, Note_on_c, 1, 69, 127
1, 66779, Note_off_c, 1, 68, 0
1, 66779, Note_off_c, 1, 62, 0
1, 66779, Note_off_c, 1, 50, 0
1, 66779, Note_off_c, 1, 38, 0
1, 66779, Note_off_c, 1, 69, 0
1, 66780, Note_on_c, 1, 74, 127
1, 66780, Note_on_c, 1, 67, 127
1, 66780, Note_on_c, 1, 59, 127
1, 66780, Note_on_c, 1, 43, 127
1, 66780, Note_on_c, 1, 31, 127
1, 66839, Note_off_c, 1, 43, 0
1, 66839, Note_off_c, 1, 31, 0
1, 66840, Note_off_c, 1, 74, 0
1, 66840, Note_off_c, 1, 59, 0
1, 66840, Note_on_c, 1, 48, 127
1, 66840, Note_on_c, 1, 36, 127
1, 66899, Note_off_c, 1, 77, 0
1, 66900, Note_on_c, 1, 75, 127
1, 66930, Note_on_c, 1, 65, 127
1, 66959, Note_off_c, 1, 67, 0
1, 66959, Note_off_c, 1, 48, 0
1, 66959, Note_off_c, 1, 36, 0
1, 66959, Note_off_c, 1, 75, 0
1, 66959, Note_off_c, 1, 65, 0
1, 66960, Note_on_c, 1, 36, 127
1, 66960, Note_on_c, 1, 24, 127
1, 66960, Note_on_c, 1, 67, 127
1, 66960, Note_on_c, 1, 48, 127
1, 66989, Note_off_c, 1, 67, 0
1, 67019, Note_off_c, 1, 36, 0
1, 67019, Note_off_c, 1, 24, 0
1, 67019, Note_off_c, 1, 48, 0
1, 67020, Note_on_c, 1, 36, 127
1, 67020, Note_on_c, 1, 24, 127
1, 67020, Note_on_c, 1, 68, 127
1, 67020, Note_on_c, 1, 77, 127
1, 67020, Note_on_c, 1, 48, 127
1, 67049, Note_off_c, 1, 68, 0
1, 67049, Note_off_c, 1, 77, 0
1, 67080, Note_on_c, 1, 67, 127
1, 67080, Note_on_c, 1, 75, 127
1, 67109, Note_off_c, 1, 67, 0
1, 67109, Note_off_c, 1, 75, 0
1, 67139, Note_off_c, 1, 36, 0
1, 67139, Note_off_c, 1, 24, 0
1, 67139, Note_off_c, 1, 48, 0
1, 67140, Note_on_c, 1, 48, 127
1, 67140, Note_on_c, 1, 36, 127
1, 67140, Note_on_c, 1, 65, 127
1, 67140, Note_on_c, 1, 74, 127
1, 67169, Note_off_c, 1, 65, 0
1, 67169, Note_off_c, 1, 74, 0
1, 67199, Note_off_c, 1, 48, 0
1, 67199, Note_off_c, 1, 36, 0
1, 67200, Note_on_c, 1, 48, 127
1, 67200, Note_on_c, 1, 36, 127
1, 67200, Note_on_c, 1, 63, 127
1, 67200, Note_on_c, 1, 72, 127
1, 67229, Note_off_c, 1, 63, 0
1, 67230, Note_on_c, 1, 67, 127
1, 67259, Note_off_c, 1, 67, 0
1, 67260, Note_on_c, 1, 68, 127
1, 67289, Note_off_c, 1, 68, 0
1, 67290, Note_on_c, 1, 65, 127
1, 67319, Note_off_c, 1, 48, 0
1, 67319, Note_off_c, 1, 36, 0
1, 67319, Note_off_c, 1, 72, 0
1, 67319, Note_off_c, 1, 65, 0
1, 67320, Note_on_c, 1, 36, 127
1, 67320, Note_on_c, 1, 24, 127
1, 67320, Note_on_c, 1, 67, 127
1, 67320, Note_on_c, 1, 48, 127
1, 67349, Note_off_c, 1, 67, 0
1, 67379, Note_off_c, 1, 36, 0
1, 67379, Note_off_c, 1, 24, 0
1, 67379, Note_off_c, 1, 48, 0
1, 67380, Note_on_c, 1, 36, 127
1, 67380, Note_on_c, 1, 24, 127
1, 67380, Note_on_c, 1, 77, 127
1, 67380, Note_on_c, 1, 68, 127
1, 67380, Note_on_c, 1, 48, 127
1, 67409, Note_off_c, 1, 77, 0
1, 67409, Note_off_c, 1, 68, 0
1, 67440, Note_on_c, 1, 75, 127
1, 67440, Note_on_c, 1, 67, 127
1, 67469, Note_off_c, 1, 75, 0
1, 67469, Note_off_c, 1, 67, 0
1, 67499, Note_off_c, 1, 36, 0
1, 67499, Note_off_c, 1, 24, 0
1, 67499, Note_off_c, 1, 48, 0
1, 67500, Note_on_c, 1, 48, 127
1, 67500, Note_on_c, 1, 36, 127
1, 67500, Note_on_c, 1, 74, 127
1, 67500, Note_on_c, 1, 65, 127
1, 67529, Note_off_c, 1, 74, 0
1, 67529, Note_off_c, 1, 65, 0
1, 67559, Note_off_c, 1, 48, 0
1, 67559, Note_off_c, 1, 36, 0
1, 67560, Note_on_c, 1, 48, 127
1, 67560, Note_on_c, 1, 36, 127
1, 67560, Note_on_c, 1, 72, 127
1, 67560, Note_on_c, 1, 63, 127
1, 67589, Note_off_c, 1, 63, 0
1, 67590, Note_on_c, 1, 62, 127
1, 67619, Note_off_c, 1, 62, 0
1, 67620, Note_on_c, 1, 55, 127
1, 67650, Note_on_c, 1, 65, 127
1, 67679, Note_off_c, 1, 48, 0
1, 67679, Note_off_c, 1, 36, 0
1, 67679, Note_off_c, 1, 72, 0
1, 67679, Note_off_c, 1, 55, 0
1, 67679, Note_off_c, 1, 65, 0
1, 67680, Note_on_c, 1, 60, 127
1, 67680, Note_on_c, 1, 48, 127
1, 67680, Note_on_c, 1, 67, 127
1, 67709, Note_off_c, 1, 67, 0
1, 67710, Note_on_c, 1, 68, 127
1, 67739, Note_off_c, 1, 60, 0
1, 67739, Note_off_c, 1, 48, 0
1, 67739, Note_off_c, 1, 68, 0
1, 67740, Note_on_c, 1, 52, 127
1, 67740, Note_on_c, 1, 40, 127
1, 67740, Note_on_c, 1, 70, 127
1, 67769, Note_off_c, 1, 70, 0
1, 67770, Note_on_c, 1, 73, 127
1, 67799, Note_off_c, 1, 73, 0
1, 67800, Note_on_c, 1, 67, 127
1, 67800, Note_on_c, 1, 72, 127
1, 67829, Note_off_c, 1, 72, 0
1, 67859, Note_off_c, 1, 52, 0
1, 67859, Note_off_c, 1, 40, 0
1, 67860, Note_on_c, 1, 64, 127
1, 67860, Note_on_c, 1, 60, 127
1, 67860, Note_on_c, 1, 48, 127
1, 67860, Note_on_c, 1, 36, 127
1, 67860, Note_on_c, 1, 68, 127
1, 67889, Note_off_c, 1, 68, 0
1, 67919, Note_off_c, 1, 48, 0
1, 67919, Note_off_c, 1, 36, 0
1, 67920, Note_off_c, 1, 64, 0
1, 67920, Note_on_c, 1, 53, 127
1, 67920, Note_on_c, 1, 41, 127
1, 67950, Note_off_c, 1, 67, 0
1, 67980, Note_on_c, 1, 65, 127
1, 67980, Note_on_c, 1, 56, 127
1, 68009, Note_off_c, 1, 65, 0
1, 68039, Note_off_c, 1, 53, 0
1, 68039, Note_off_c, 1, 41, 0
1, 68039, Note_off_c, 1, 56, 0
1, 68040, Note_on_c, 1, 61, 127
1, 68040, Note_on_c, 1, 49, 127
1, 68099, Note_off_c, 1, 60, 0
1, 68099, Note_off_c, 1, 61, 0
1, 68099, Note_off_c, 1, 49, 0
1, 68100, Note_on_c, 1, 53, 127
1, 68100, Note_on_c, 1, 41, 127
1, 68100, Note_on_c, 1, 72, 127
1, 68129, Note_off_c, 1, 72, 0
1, 68130, Note_on_c, 1, 75, 127
1, 68159, Note_off_c, 1, 75, 0
1, 68160, Note_on_c, 1, 73, 127
1, 68160, Note_on_c, 1, 68, 127
1, 68189, Note_off_c, 1, 73, 0
1, 68219, Note_off_c, 1, 53, 0
1, 68219, Note_off_c, 1, 41, 0
1, 68220, Note_on_c, 1, 49, 127
1, 68220, Note_on_c, 1, 37, 127
1, 68220, Note_on_c, 1, 70, 127
1, 68220, Note_on_c, 1, 61, 127
1, 68249, Note_off_c, 1, 70, 0
1, 68279, Note_off_c, 1, 49, 0
1, 68279, Note_off_c, 1, 37, 0
1, 68279, Note_off_c, 1, 61, 0
1, 68280, Note_on_c, 1, 63, 127
1, 68280, Note_on_c, 1, 55, 127
1, 68280, Note_on_c, 1, 43, 127
1, 68310, Note_off_c, 1, 68, 0
1, 68310, Note_on_c, 1, 65, 127
1, 68339, Note_off_c, 1, 65, 0
1, 68340, Note_on_c, 1, 58, 127
1, 68340, Note_on_c, 1, 67, 127
1, 68369, Note_off_c, 1, 67, 0
1, 68399, Note_off_c, 1, 43, 0
1, 68399, Note_off_c, 1, 58, 0
1, 68400, Note_off_c, 1, 55, 0
1, 68400, Note_on_c, 1, 51, 127
1, 68459, Note_off_c, 1, 63, 0
1, 68459, Note_off_c, 1, 51, 0
1, 68460, Note_on_c, 1, 55, 127
1, 68460, Note_on_c, 1, 43, 127
1, 68460, Note_on_c, 1, 73, 127
1, 68489, Note_off_c, 1, 73, 0
1, 68490, Note_on_c, 1, 77, 127
1, 68519, Note_off_c, 1, 77, 0
1, 68520, Note_on_c, 1, 70, 127
1, 68520, Note_on_c, 1, 75, 127
1, 68549, Note_off_c, 1, 75, 0
1, 68579, Note_off_c, 1, 55, 0
1, 68579, Note_off_c, 1, 43, 0
1, 68580, Note_on_c, 1, 67, 127
1, 68580, Note_on_c, 1, 51, 127
1, 68580, Note_on_c, 1, 39, 127
1, 68580, Note_on_c, 1, 63, 127
1, 68580, Note_on_c, 1, 72, 127
1, 68609, Note_off_c, 1, 72, 0
1, 68639, Note_off_c, 1, 51, 0
1, 68639, Note_off_c, 1, 39, 0
1, 68639, Note_off_c, 1, 63, 0
1, 68640, Note_off_c, 1, 67, 0
1, 68640, Note_on_c, 1, 56, 127
1, 68640, Note_on_c, 1, 44, 127
1, 68699, Note_off_c, 1, 70, 0
1, 68700, Note_on_c, 1, 68, 127
1, 68729, Note_off_c, 1, 68, 0
1, 68730, Note_on_c, 1, 66, 127
1, 68759, Note_off_c, 1, 44, 0
1, 68759, Note_off_c, 1, 66, 0
1, 68760, Note_on_c, 1, 60, 127
1, 68760, Note_on_c, 1, 65, 127
1, 68789, Note_off_c, 1, 65, 0
1, 68820, Note_off_c, 1, 60, 0
1, 68820, Note_on_c, 1, 32, 127
1, 68820, Note_on_c, 1, 61, 127
1, 68880, Note_on_c, 1, 79, 127
1, 68939, Note_off_c, 1, 56, 0
1, 68939, Note_off_c, 1, 32, 0
1, 68939, Note_off_c, 1, 79, 0
1, 68940, Note_on_c, 1, 80, 127
1, 68999, Note_off_c, 1, 80, 0
1, 69030, Note_off_c, 1, 61, 0
1, 69390, Note_on_c, 1, 58, 127
1, 69419, Note_off_c, 1, 58, 0
1, 69705, Note_on_c, 1, 82, 127
1, 69719, Note_off_c, 1, 82, 0
1, 69780, Note_on_c, 1, 48, 127
1, 69839, Note_off_c, 1, 48, 0
1, 69900, Note_on_c, 1, 54, 127
1, 69900, Note_on_c, 1, 42, 127
1, 69959, Note_off_c, 1, 42, 0
1, 70019, Note_off_c, 1, 54, 0
1, 70080, Note_on_c, 1, 69, 127
1, 70080, Note_on_c, 1, 53, 127
1, 70080, Note_on_c, 1, 41, 127
1, 70199, Note_off_c, 1, 53, 0
1, 70199, Note_off_c, 1, 41, 0
1, 70200, Note_on_c, 1, 29, 127
1, 70200, Note_on_c, 1, 45, 127
1, 70259, Note_off_c, 1, 29, 0
1, 70259, Note_off_c, 1, 45, 0
1, 70440, Note_off_c, 1, 69, 0
1, 70440, Note_on_c, 1, 46, 127
1, 70500, Note_on_c, 1, 49, 127
1, 70559, Note_off_c, 1, 49, 0
1, 70619, Note_off_c, 1, 46, 0
1, 70800, Note_on_c, 1, 74, 127
1, 70800, Note_on_c, 1, 71, 127
1, 70860, Note_on_c, 1, 47, 127
1, 70919, Note_off_c, 1, 47, 0
1, 70920, Note_on_c, 1, 31, 127
1, 70920, Note_on_c, 1, 62, 127
1, 70920, Note_on_c, 1, 50, 127
1, 70979, Note_off_c, 1, 31, 0
1, 70979, Note_off_c, 1, 62, 0
1, 70979, Note_off_c, 1, 50, 0
1, 71160, Note_off_c, 1, 74, 0
1, 71160, Note_off_c, 1, 71, 0
1, 71280, Note_on_c, 1, 36, 127
1, 71339, Note_off_c, 1, 36, 0
1, 71340, Note_on_c, 1, 38, 127
1, 71370, Note_on_c, 1, 84, 127
1, 71399, Note_off_c, 1, 84, 0
1, 71459, Note_off_c, 1, 38, 0
1, 71460, Note_on_c, 1, 34, 127
1, 71519, Note_off_c, 1, 34, 0
1, 71640, Note_on_c, 1, 27, 127
1, 71699, Note_off_c, 1, 27, 0
1, 71880, Note_on_c, 1, 70, 127
1, 71880, Note_on_c, 1, 67, 127
1, 71880, Note_on_c, 1, 58, 127
1, 71880, Note_on_c, 1, 55, 127
1, 71880, Note_on_c, 1, 43, 127
1, 71999, Note_off_c, 1, 55, 0
1, 71999, Note_off_c, 1, 43, 0
1, 72000, Note_off_c, 1, 67, 0
1, 72000, Note_off_c, 1, 58, 0
1, 72000, Note_on_c, 1, 31, 127
1, 72059, Note_off_c, 1, 31, 0
1, 72060, Note_on_c, 1, 72, 127
1, 72060, Note_on_c, 1, 63, 127
1, 72060, Note_on_c, 1, 51, 127
1, 72060, Note_on_c, 1, 44, 127
1, 72060, Note_on_c, 1, 32, 127
1, 72119, Note_off_c, 1, 70, 0
1, 72120, Note_on_c, 1, 68, 127
1, 72179, Note_off_c, 1, 44, 0
1, 72179, Note_off_c, 1, 32, 0
1, 72179, Note_off_c, 1, 68, 0
1, 72180, Note_off_c, 1, 72, 0
1, 72180, Note_off_c, 1, 63, 0
1, 72180, Note_off_c, 1, 51, 0
1, 72180, Note_on_c, 1, 56, 127
1, 72239, Note_off_c, 1, 56, 0
1, 72240, Note_on_c, 1, 74, 127
1, 72240, Note_on_c, 1, 58, 127
1, 72240, Note_on_c, 1, 56, 127
1, 72240, Note_on_c, 1, 44, 127
1, 72240, Note_on_c, 1, 65, 127
1, 72299, Note_off_c, 1, 65, 0
1, 72300, Note_off_c, 1, 74, 0
1, 72300, Note_on_c, 1, 70, 127
1, 72300, Note_on_c, 1, 62, 127
1, 72359, Note_off_c, 1, 56, 0
1, 72359, Note_off_c, 1, 44, 0
1, 72359, Note_off_c, 1, 62, 0
1, 72360, Note_on_c, 1, 75, 127
1, 72360, Note_on_c, 1, 55, 127
1, 72360, Note_on_c, 1, 43, 127
1, 72360, Note_on_c, 1, 63, 127
1, 72419, Note_off_c, 1, 55, 0
1, 72419, Note_off_c, 1, 43, 0
1, 72419, Note_off_c, 1, 63, 0
1, 72420, Note_off_c, 1, 58, 0
1, 72420, Note_off_c, 1, 70, 0
1, 72420, Note_on_c, 1, 72, 127
1, 72420, Note_on_c, 1, 53, 127
1, 72420, Note_on_c, 1, 41, 127
1, 72420, Note_on_c, 1, 68, 127
1, 72480, Note_off_c, 1, 75, 0
1, 72539, Note_off_c, 1, 53, 0
1, 72539, Note_off_c, 1, 41, 0
1, 72540, Note_off_c, 1, 72, 0
1, 72540, Note_on_c, 1, 46, 127
1, 72599, Note_off_c, 1, 46, 0
1, 72600, Note_on_c, 1, 51, 127
1, 72600, Note_on_c, 1, 39, 127
1, 72659, Note_off_c, 1, 68, 0
1, 72660, Note_on_c, 1, 67, 127
1, 72719, Note_off_c, 1, 51, 0
1, 72719, Note_off_c, 1, 39, 0
1, 72719, Note_off_c, 1, 67, 0
1, 72780, Note_on_c, 1, 48, 127
1, 72780, Note_on_c, 1, 36, 127
1, 72840, Note_on_c, 1, 77, 127
1, 72869, Note_off_c, 1, 77, 0
1, 72899, Note_off_c, 1, 48, 0
1, 72899, Note_off_c, 1, 36, 0
1, 72900, Note_on_c, 1, 69, 127
1, 72960, Note_off_c, 1, 69, 0
1, 72960, Note_on_c, 1, 34, 127
1, 72960, Note_on_c, 1, 82, 127
1, 73079, Note_off_c, 1, 34, 0
1, 73140, Note_on_c, 1, 60, 127
1, 73199, Note_off_c, 1, 82, 0
1, 73200, Note_on_c, 1, 81, 127
1, 73259, Note_off_c, 1, 81, 0
1, 73260, Note_on_c, 1, 79, 127
1, 73319, Note_off_c, 1, 60, 0
1, 73319, Note_off_c, 1, 79, 0
1, 73320, Note_on_c, 1, 74, 127
1, 73320, Note_on_c, 1, 70, 127
1, 73320, Note_on_c, 1, 53, 127
1, 73320, Note_on_c, 1, 50, 127
1, 73320, Note_on_c, 1, 38, 127
1, 73320, Note_on_c, 1, 77, 127
1, 73320, Note_on_c, 1, 62, 127
1, 73350, Note_on_c, 1, 75, 127
1, 73379, Note_off_c, 1, 75, 0
1, 73439, Note_off_c, 1, 50, 0
1, 73439, Note_off_c, 1, 38, 0
1, 73439, Note_off_c, 1, 62, 0
1, 73440, Note_off_c, 1, 74, 0
1, 73440, Note_off_c, 1, 53, 0
1, 73440, Note_on_c, 1, 26, 127
1, 73469, Note_off_c, 1, 70, 0
1, 73499, Note_off_c, 1, 26, 0
1, 73500, Note_on_c, 1, 67, 127
1, 73500, Note_on_c, 1, 58, 127
1, 73500, Note_on_c, 1, 39, 127
1, 73500, Note_on_c, 1, 27, 127
1, 73500, Note_on_c, 1, 51, 127
1, 73500, Note_on_c, 1, 79, 127
1, 73500, Note_on_c, 1, 63, 127
1, 73529, Note_off_c, 1, 79, 0
1, 73559, Note_off_c, 1, 77, 0
1, 73619, Note_off_c, 1, 39, 0
1, 73619, Note_off_c, 1, 27, 0
1, 73619, Note_off_c, 1, 51, 0
1, 73619, Note_off_c, 1, 63, 0
1, 73620, Note_off_c, 1, 67, 0
1, 73620, Note_off_c, 1, 58, 0
1, 73680, Note_on_c, 1, 77, 127
1, 73680, Note_on_c, 1, 72, 127
1, 73680, Note_on_c, 1, 53, 127
1, 73680, Note_on_c, 1, 51, 127
1, 73680, Note_on_c, 1, 39, 127
1, 73680, Note_on_c, 1, 63, 127
1, 73680, Note_on_c, 1, 69, 127
1, 73739, Note_off_c, 1, 69, 0
1, 73799, Note_off_c, 1, 51, 0
1, 73799, Note_off_c, 1, 39, 0
1, 73799, Note_off_c, 1, 63, 0
1, 73800, Note_off_c, 1, 72, 0
1, 73800, Note_on_c, 1, 74, 127
1, 73800, Note_on_c, 1, 50, 127
1, 73800, Note_on_c, 1, 38, 127
1, 73800, Note_on_c, 1, 70, 127
1, 73800, Note_on_c, 1, 62, 127
1, 73859, Note_off_c, 1, 50, 0
1, 73859, Note_off_c, 1, 38, 0
1, 73859, Note_off_c, 1, 62, 0
1, 73860, Note_off_c, 1, 77, 0
1, 73860, Note_off_c, 1, 53, 0
1, 73860, Note_off_c, 1, 74, 0
1, 73860, Note_on_c, 1, 75, 127
1, 73860, Note_on_c, 1, 67, 127
1, 73860, Note_on_c, 1, 60, 127
1, 73860, Note_on_c, 1, 48, 127
1, 73860, Note_on_c, 1, 36, 127
1, 73919, Note_off_c, 1, 70, 0
1, 73979, Note_off_c, 1, 48, 0
1, 73979, Note_off_c, 1, 36, 0
1, 73980, Note_off_c, 1, 67, 0
1, 73980, Note_off_c, 1, 60, 0
1, 73980, Note_on_c, 1, 65, 127
1, 73980, Note_on_c, 1, 57, 127
1, 73980, Note_on_c, 1, 41, 127
1, 74039, Note_off_c, 1, 41, 0
1, 74040, Note_off_c, 1, 57, 0
1, 74040, Note_on_c, 1, 46, 127
1, 74040, Note_on_c, 1, 34, 127
1, 74040, Note_on_c, 1, 58, 127
1, 74099, Note_off_c, 1, 75, 0
1, 74159, Note_off_c, 1, 46, 0
1, 74159, Note_off_c, 1, 34, 0
1, 74159, Note_off_c, 1, 58, 0
1, 74160, Note_off_c, 1, 65, 0
1, 74160, Note_on_c, 1, 44, 127
1, 74160, Note_on_c, 1, 32, 127
1, 74160, Note_on_c, 1, 56, 127
1, 74219, Note_off_c, 1, 44, 0
1, 74219, Note_off_c, 1, 32, 0
1, 74219, Note_off_c, 1, 56, 0
1, 74220, Note_on_c, 1, 43, 127
1, 74220, Note_on_c, 1, 31, 127
1, 74220, Note_on_c, 1, 82, 127
1, 74220, Note_on_c, 1, 55, 127
1, 74220, Note_on_c, 1, 63, 127
1, 74249, Note_off_c, 1, 63, 0
1, 74250, Note_on_c, 1, 65, 127
1, 74279, Note_off_c, 1, 65, 0
1, 74280, Note_on_c, 1, 67, 127
1, 74309, Note_off_c, 1, 67, 0
1, 74310, Note_on_c, 1, 68, 127
1, 74339, Note_off_c, 1, 43, 0
1, 74339, Note_off_c, 1, 31, 0
1, 74339, Note_off_c, 1, 82, 0
1, 74339, Note_off_c, 1, 55, 0
1, 74339, Note_off_c, 1, 68, 0
1, 74340, Note_on_c, 1, 70, 127
1, 74340, Note_on_c, 1, 63, 127
1, 74340, Note_on_c, 1, 55, 127
1, 74340, Note_on_c, 1, 39, 127
1, 74340, Note_on_c, 1, 27, 127
1, 74340, Note_on_c, 1, 73, 127
1, 74340, Note_on_c, 1, 51, 127
1, 74370, Note_on_c, 1, 67, 127
1, 74399, Note_off_c, 1, 39, 0
1, 74399, Note_off_c, 1, 27, 0
1, 74399, Note_off_c, 1, 51, 0
1, 74399, Note_off_c, 1, 67, 0
1, 74400, Note_off_c, 1, 55, 0
1, 74400, Note_on_c, 1, 56, 127
1, 74400, Note_on_c, 1, 44, 127
1, 74400, Note_on_c, 1, 32, 127
1, 74430, Note_on_c, 1, 61, 127
1, 74459, Note_off_c, 1, 73, 0
1, 74459, Note_off_c, 1, 61, 0
1, 74460, Note_off_c, 1, 70, 0
1, 74460, Note_on_c, 1, 68, 127
1, 74460, Note_on_c, 1, 72, 127
1, 74519, Note_off_c, 1, 44, 0
1, 74519, Note_off_c, 1, 32, 0
1, 74519, Note_off_c, 1, 72, 0
1, 74520, Note_off_c, 1, 63, 0
1, 74520, Note_off_c, 1, 56, 0
1, 74520, Note_off_c, 1, 68, 0
1, 74520, Note_on_c, 1, 43, 127
1, 74520, Note_on_c, 1, 31, 127
1, 74520, Note_on_c, 1, 75, 127
1, 74520, Note_on_c, 1, 60, 127
1, 74549, Note_off_c, 1, 60, 0
1, 74579, Note_off_c, 1, 43, 0
1, 74579, Note_off_c, 1, 31, 0
1, 74579, Note_off_c, 1, 75, 0
1, 74580, Note_on_c, 1, 41, 127
1, 74580, Note_on_c, 1, 29, 127
1, 74580, Note_on_c, 1, 80, 127
1, 74580, Note_on_c, 1, 53, 127
1, 74580, Note_on_c, 1, 62, 127
1, 74609, Note_off_c, 1, 62, 0
1, 74610, Note_on_c, 1, 63, 127
1, 74639, Note_off_c, 1, 63, 0
1, 74640, Note_on_c, 1, 65, 127
1, 74669, Note_off_c, 1, 65, 0
1, 74670, Note_on_c, 1, 67, 127
1, 74699, Note_off_c, 1, 41, 0
1, 74699, Note_off_c, 1, 29, 0
1, 74699, Note_off_c, 1, 80, 0
1, 74699, Note_off_c, 1, 53, 0
1, 74699, Note_off_c, 1, 67, 0
1, 74700, Note_on_c, 1, 68, 127
1, 74700, Note_on_c, 1, 62, 127
1, 74700, Note_on_c, 1, 53, 127
1, 74700, Note_on_c, 1, 38, 127
1, 74700, Note_on_c, 1, 26, 127
1, 74700, Note_on_c, 1, 72, 127
1, 74700, Note_on_c, 1, 50, 127
1, 74730, Note_on_c, 1, 65, 127
1, 74759, Note_off_c, 1, 38, 0
1, 74759, Note_off_c, 1, 26, 0
1, 74759, Note_off_c, 1, 50, 0
1, 74759, Note_off_c, 1, 65, 0
1, 74760, Note_off_c, 1, 53, 0
1, 74760, Note_on_c, 1, 55, 127
1, 74760, Note_on_c, 1, 43, 127
1, 74760, Note_on_c, 1, 31, 127
1, 74790, Note_on_c, 1, 60, 127
1, 74819, Note_off_c, 1, 72, 0
1, 74819, Note_off_c, 1, 60, 0
1, 74820, Note_off_c, 1, 68, 0
1, 74820, Note_on_c, 1, 67, 127
1, 74820, Note_on_c, 1, 70, 127
1, 74879, Note_off_c, 1, 43, 0
1, 74879, Note_off_c, 1, 31, 0
1, 74879, Note_off_c, 1, 70, 0
1, 74880, Note_off_c, 1, 62, 0
1, 74880, Note_off_c, 1, 55, 0
1, 74880, Note_off_c, 1, 67, 0
1, 74880, Note_on_c, 1, 41, 127
1, 74880, Note_on_c, 1, 29, 127
1, 74880, Note_on_c, 1, 74, 127
1, 74880, Note_on_c, 1, 58, 127
1, 74909, Note_off_c, 1, 58, 0
1, 74939, Note_off_c, 1, 41, 0
1, 74939, Note_off_c, 1, 29, 0
1, 74939, Note_off_c, 1, 74, 0
1, 74940, Note_on_c, 1, 39, 127
1, 74940, Note_on_c, 1, 27, 127
1, 74940, Note_on_c, 1, 79, 127
1, 74940, Note_on_c, 1, 51, 127
1, 74940, Note_on_c, 1, 60, 127
1, 74969, Note_off_c, 1, 60, 0
1, 74970, Note_on_c, 1, 62, 127
1, 74999, Note_off_c, 1, 62, 0
1, 75000, Note_on_c, 1, 63, 127
1, 75029, Note_off_c, 1, 63, 0
1, 75030, Note_on_c, 1, 65, 127
1, 75059, Note_off_c, 1, 39, 0
1, 75059, Note_off_c, 1, 27, 0
1, 75059, Note_off_c, 1, 79, 0
1, 75059, Note_off_c, 1, 51, 0
1, 75059, Note_off_c, 1, 65, 0
1, 75060, Note_on_c, 1, 67, 127
1, 75060, Note_on_c, 1, 60, 127
1, 75060, Note_on_c, 1, 51, 127
1, 75060, Note_on_c, 1, 36, 127
1, 75060, Note_on_c, 1, 24, 127
1, 75060, Note_on_c, 1, 70, 127
1, 75060, Note_on_c, 1, 48, 127
1, 75090, Note_on_c, 1, 63, 127
1, 75119, Note_off_c, 1, 36, 0
1, 75119, Note_off_c, 1, 24, 0
1, 75119, Note_off_c, 1, 48, 0
1, 75119, Note_off_c, 1, 63, 0
1, 75120, Note_off_c, 1, 51, 0
1, 75120, Note_on_c, 1, 53, 127
1, 75120, Note_on_c, 1, 41, 127
1, 75120, Note_on_c, 1, 29, 127
1, 75150, Note_on_c, 1, 58, 127
1, 75179, Note_off_c, 1, 70, 0
1, 75179, Note_off_c, 1, 58, 0
1, 75180, Note_off_c, 1, 67, 0
1, 75180, Note_on_c, 1, 65, 127
1, 75180, Note_on_c, 1, 68, 127
1, 75239, Note_off_c, 1, 41, 0
1, 75239, Note_off_c, 1, 29, 0
1, 75239, Note_off_c, 1, 65, 0
1, 75239, Note_off_c, 1, 68, 0
1, 75240, Note_off_c, 1, 60, 0
1, 75240, Note_off_c, 1, 53, 0
1, 75240, Note_on_c, 1, 39, 127
1, 75240, Note_on_c, 1, 27, 127
1, 75240, Note_on_c, 1, 72, 127
1, 75240, Note_on_c, 1, 56, 127
1, 75269, Note_off_c, 1, 56, 0
1, 75299, Note_off_c, 1, 39, 0
1, 75299, Note_off_c, 1, 27, 0
1, 75299, Note_off_c, 1, 72, 0
1, 75300, Note_on_c, 1, 38, 127
1, 75300, Note_on_c, 1, 26, 127
1, 75300, Note_on_c, 1, 77, 127
1, 75300, Note_on_c, 1, 50, 127
1, 75300, Note_on_c, 1, 58, 127
1, 75329, Note_off_c, 1, 58, 0
1, 75330, Note_on_c, 1, 60, 127
1, 75359, Note_off_c, 1, 60, 0
1, 75360, Note_on_c, 1, 62, 127
1, 75389, Note_off_c, 1, 62, 0
1, 75390, Note_on_c, 1, 63, 127
1, 75419, Note_off_c, 1, 38, 0
1, 75419, Note_off_c, 1, 26, 0
1, 75419, Note_off_c, 1, 77, 0
1, 75419, Note_off_c, 1, 50, 0
1, 75419, Note_off_c, 1, 63, 0
1, 75420, Note_on_c, 1, 65, 127
1, 75420, Note_on_c, 1, 62, 127
1, 75420, Note_on_c, 1, 58, 127
1, 75420, Note_on_c, 1, 46, 127
1, 75420, Note_on_c, 1, 34, 127
1, 75420, Note_on_c, 1, 68, 127
1, 75479, Note_off_c, 1, 65, 0
1, 75479, Note_off_c, 1, 62, 0
1, 75479, Note_off_c, 1, 58, 0
1, 75479, Note_off_c, 1, 46, 0
1, 75479, Note_off_c, 1, 34, 0
1, 75480, Note_on_c, 1, 63, 127
1, 75480, Note_on_c, 1, 39, 127
1, 75480, Note_on_c, 1, 27, 127
1, 75480, Note_on_c, 1, 51, 127
1, 75539, Note_off_c, 1, 68, 0
1, 75540, Note_on_c, 1, 67, 127
1, 75540, Note_on_c, 1, 60, 127
1, 75569, Note_off_c, 1, 60, 0
1, 75570, Note_on_c, 1, 56, 127
1, 75599, Note_off_c, 1, 63, 0
1, 75599, Note_off_c, 1, 39, 0
1, 75599, Note_off_c, 1, 27, 0
1, 75599, Note_off_c, 1, 51, 0
1, 75599, Note_off_c, 1, 67, 0
1, 75599, Note_off_c, 1, 56, 0
1, 75660, Note_on_c, 1, 60, 127
1, 75660, Note_on_c, 1, 39, 127
1, 75660, Note_on_c, 1, 68, 127
1, 75660, Note_on_c, 1, 51, 127
1, 75689, Note_off_c, 1, 60, 0
1, 75689, Note_off_c, 1, 68, 0
1, 75720, Note_on_c, 1, 58, 127
1, 75720, Note_on_c, 1, 67, 127
1, 75749, Note_off_c, 1, 58, 0
1, 75749, Note_off_c, 1, 67, 0
1, 75779, Note_off_c, 1, 39, 0
1, 75779, Note_off_c, 1, 51, 0
1, 75780, Note_on_c, 1, 56, 127
1, 75780, Note_on_c, 1, 51, 127
1, 75780, Note_on_c, 1, 65, 127
1, 75780, Note_on_c, 1, 39, 127
1, 75809, Note_off_c, 1, 56, 0
1, 75809, Note_off_c, 1, 65, 0
1, 75839, Note_off_c, 1, 51, 0
1, 75839, Note_off_c, 1, 39, 0
1, 75840, Note_on_c, 1, 39, 127
1, 75840, Note_on_c, 1, 27, 127
1, 75840, Note_on_c, 1, 55, 127
1, 75840, Note_on_c, 1, 51, 127
1, 75840, Note_on_c, 1, 63, 127
1, 75869, Note_off_c, 1, 55, 0
1, 75870, Note_on_c, 1, 58, 127
1, 75899, Note_off_c, 1, 58, 0
1, 75900, Note_on_c, 1, 60, 127
1, 75929, Note_off_c, 1, 60, 0
1, 75930, Note_on_c, 1, 56, 127
1, 75959, Note_off_c, 1, 39, 0
1, 75959, Note_off_c, 1, 27, 0
1, 75959, Note_off_c, 1, 51, 0
1, 75959, Note_off_c, 1, 63, 0
1, 75959, Note_off_c, 1, 56, 0
1, 75960, Note_on_c, 1, 58, 127
1, 75960, Note_on_c, 1, 39, 127
1, 75960, Note_on_c, 1, 51, 127
1, 75989, Note_off_c, 1, 58, 0
1, 76019, Note_off_c, 1, 39, 0
1, 76019, Note_off_c, 1, 51, 0
1, 76020, Note_on_c, 1, 68, 127
1, 76020, Note_on_c, 1, 39, 127
1, 76020, Note_on_c, 1, 60, 127
1, 76020, Note_on_c, 1, 51, 127
1, 76049, Note_off_c, 1, 68, 0
1, 76049, Note_off_c, 1, 60, 0
1, 76080, Note_on_c, 1, 67, 127
1, 76080, Note_on_c, 1, 58, 127
1, 76109, Note_off_c, 1, 67, 0
1, 76109, Note_off_c, 1, 58, 0
1, 76139, Note_off_c, 1, 39, 0
1, 76139, Note_off_c, 1, 51, 0
1, 76140, Note_on_c, 1, 65, 127
1, 76140, Note_on_c, 1, 51, 127
1, 76140, Note_on_c, 1, 56, 127
1, 76140, Note_on_c, 1, 39, 127
1, 76169, Note_off_c, 1, 65, 0
1, 76169, Note_off_c, 1, 56, 0
1, 76199, Note_off_c, 1, 51, 0
1, 76199, Note_off_c, 1, 39, 0
1, 76200, Note_on_c, 1, 39, 127
1, 76200, Note_on_c, 1, 27, 127
1, 76200, Note_on_c, 1, 63, 127
1, 76200, Note_on_c, 1, 51, 127
1, 76200, Note_on_c, 1, 55, 127
1, 76229, Note_off_c, 1, 55, 0
1, 76230, Note_on_c, 1, 58, 127
1, 76259, Note_off_c, 1, 63, 0
1, 76259, Note_off_c, 1, 51, 0
1, 76259, Note_off_c, 1, 58, 0
1, 76260, Note_on_c, 1, 82, 127
1, 76290, Note_on_c, 1, 65, 127
1, 76319, Note_off_c, 1, 39, 0
1, 76319, Note_off_c, 1, 27, 0
1, 76319, Note_off_c, 1, 65, 0
1, 76320, Note_on_c, 1, 67, 127
1, 76349, Note_off_c, 1, 67, 0
1, 76350, Note_on_c, 1, 68, 127
1, 76379, Note_off_c, 1, 68, 0
1, 76380, Note_on_c, 1, 43, 127
1, 76380, Note_on_c, 1, 70, 127
1, 76410, Note_off_c, 1, 82, 0
1, 76410, Note_on_c, 1, 80, 127
1, 76439, Note_off_c, 1, 80, 0
1, 76440, Note_on_c, 1, 79, 127
1, 76469, Note_off_c, 1, 79, 0
1, 76499, Note_off_c, 1, 43, 0
1, 76499, Note_off_c, 1, 70, 0
1, 76500, Note_on_c, 1, 82, 127
1, 76500, Note_on_c, 1, 63, 127
1, 76500, Note_on_c, 1, 55, 127
1, 76500, Note_on_c, 1, 51, 127
1, 76500, Note_on_c, 1, 39, 127
1, 76500, Note_on_c, 1, 61, 127
1, 76530, Note_on_c, 1, 79, 127
1, 76559, Note_off_c, 1, 51, 0
1, 76559, Note_off_c, 1, 39, 0
1, 76559, Note_off_c, 1, 79, 0
1, 76560, Note_off_c, 1, 55, 0
1, 76560, Note_on_c, 1, 56, 127
1, 76560, Note_on_c, 1, 44, 127
1, 76560, Note_on_c, 1, 75, 127
1, 76589, Note_off_c, 1, 75, 0
1, 76590, Note_on_c, 1, 73, 127
1, 76619, Note_off_c, 1, 82, 0
1, 76619, Note_off_c, 1, 61, 0
1, 76619, Note_off_c, 1, 73, 0
1, 76620, Note_on_c, 1, 80, 127
1, 76620, Note_on_c, 1, 60, 127
1, 76679, Note_off_c, 1, 63, 0
1, 76679, Note_off_c, 1, 56, 0
1, 76679, Note_off_c, 1, 44, 0
1, 76679, Note_off_c, 1, 80, 0
1, 76679, Note_off_c, 1, 60, 0
1, 76680, Note_on_c, 1, 55, 127
1, 76680, Note_on_c, 1, 43, 127
1, 76680, Note_on_c, 1, 72, 127
1, 76680, Note_on_c, 1, 63, 127
1, 76709, Note_off_c, 1, 72, 0
1, 76710, Note_on_c, 1, 75, 127
1, 76739, Note_off_c, 1, 55, 0
1, 76739, Note_off_c, 1, 43, 0
1, 76739, Note_off_c, 1, 63, 0
1, 76739, Note_off_c, 1, 75, 0
1, 76740, Note_on_c, 1, 53, 127
1, 76740, Note_on_c, 1, 41, 127
1, 76740, Note_on_c, 1, 74, 127
1, 76740, Note_on_c, 1, 68, 127
1, 76769, Note_off_c, 1, 74, 0
1, 76770, Note_on_c, 1, 75, 127
1, 76799, Note_off_c, 1, 75, 0
1, 76800, Note_on_c, 1, 77, 127
1, 76829, Note_off_c, 1, 77, 0
1, 76830, Note_on_c, 1, 79, 127
1, 76859, Note_off_c, 1, 53, 0
1, 76859, Note_off_c, 1, 41, 0
1, 76859, Note_off_c, 1, 68, 0
1, 76859, Note_off_c, 1, 79, 0
1, 76860, Note_on_c, 1, 80, 127
1, 76860, Note_on_c, 1, 50, 127
1, 76860, Note_on_c, 1, 38, 127
1, 76860, Note_on_c, 1, 60, 127
1, 76890, Note_on_c, 1, 77, 127
1, 76919, Note_off_c, 1, 50, 0
1, 76919, Note_off_c, 1, 38, 0
1, 76919, Note_off_c, 1, 77, 0
1, 76920, Note_on_c, 1, 62, 127
1, 76920, Note_on_c, 1, 53, 127
1, 76920, Note_on_c, 1, 55, 127
1, 76920, Note_on_c, 1, 43, 127
1, 76920, Note_on_c, 1, 74, 127
1, 76949, Note_off_c, 1, 74, 0
1, 76950, Note_on_c, 1, 72, 127
1, 76979, Note_off_c, 1, 80, 0
1, 76979, Note_off_c, 1, 60, 0
1, 76979, Note_off_c, 1, 72, 0
1, 76980, Note_off_c, 1, 53, 0
1, 76980, Note_on_c, 1, 79, 127
1, 76980, Note_on_c, 1, 58, 127
1, 77039, Note_off_c, 1, 43, 0
1, 77039, Note_off_c, 1, 79, 0
1, 77039, Note_off_c, 1, 58, 0
1, 77040, Note_on_c, 1, 41, 127
1, 77040, Note_on_c, 1, 70, 127
1, 77069, Note_off_c, 1, 70, 0
1, 77099, Note_off_c, 1, 62, 0
1, 77099, Note_off_c, 1, 55, 0
1, 77099, Note_off_c, 1, 41, 0
1, 77100, Note_on_c, 1, 51, 127
1, 77100, Note_on_c, 1, 39, 127
1, 77100, Note_on_c, 1, 72, 127
1, 77100, Note_on_c, 1, 67, 127
1, 77129, Note_off_c, 1, 72, 0
1, 77130, Note_on_c, 1, 74, 127
1, 77159, Note_off_c, 1, 74, 0
1, 77160, Note_on_c, 1, 75, 127
1, 77189, Note_off_c, 1, 75, 0
1, 77190, Note_on_c, 1, 77, 127
1, 77219, Note_off_c, 1, 51, 0
1, 77219, Note_off_c, 1, 39, 0
1, 77219, Note_off_c, 1, 67, 0
1, 77219, Note_off_c, 1, 77, 0
1, 77220, Note_on_c, 1, 79, 127
1, 77220, Note_on_c, 1, 60, 127
1, 77220, Note_on_c, 1, 51, 127
1, 77220, Note_on_c, 1, 48, 127
1, 77220, Note_on_c, 1, 36, 127
1, 77220, Note_on_c, 1, 58, 127
1, 77250, Note_on_c, 1, 75, 127
1, 77279, Note_off_c, 1, 48, 0
1, 77279, Note_off_c, 1, 36, 0
1, 77279, Note_off_c, 1, 75, 0
1, 77280, Note_off_c, 1, 51, 0
1, 77280, Note_on_c, 1, 53, 127
1, 77280, Note_on_c, 1, 41, 127
1, 77280, Note_on_c, 1, 72, 127
1, 77309, Note_off_c, 1, 72, 0
1, 77310, Note_on_c, 1, 70, 127
1, 77339, Note_off_c, 1, 79, 0
1, 77339, Note_off_c, 1, 58, 0
1, 77339, Note_off_c, 1, 70, 0
1, 77340, Note_on_c, 1, 77, 127
1, 77340, Note_on_c, 1, 56, 127
1, 77399, Note_off_c, 1, 60, 0
1, 77399, Note_off_c, 1, 53, 0
1, 77399, Note_off_c, 1, 41, 0
1, 77399, Note_off_c, 1, 77, 0
1, 77399, Note_off_c, 1, 56, 0
1, 77400, Note_on_c, 1, 51, 127
1, 77400, Note_on_c, 1, 39, 127
1, 77400, Note_on_c, 1, 68, 127
1, 77400, Note_on_c, 1, 60, 127
1, 77429, Note_off_c, 1, 68, 0
1, 77430, Note_on_c, 1, 72, 127
1, 77459, Note_off_c, 1, 51, 0
1, 77459, Note_off_c, 1, 39, 0
1, 77459, Note_off_c, 1, 60, 0
1, 77459, Note_off_c, 1, 72, 0
1, 77460, Note_on_c, 1, 50, 127
1, 77460, Note_on_c, 1, 38, 127
1, 77460, Note_on_c, 1, 70, 127
1, 77460, Note_on_c, 1, 65, 127
1, 77489, Note_off_c, 1, 70, 0
1, 77490, Note_on_c, 1, 72, 127
1, 77519, Note_off_c, 1, 72, 0
1, 77520, Note_on_c, 1, 74, 127
1, 77549, Note_off_c, 1, 74, 0
1, 77550, Note_on_c, 1, 75, 127
1, 77579, Note_off_c, 1, 50, 0
1, 77579, Note_off_c, 1, 38, 0
1, 77579, Note_off_c, 1, 65, 0
1, 77579, Note_off_c, 1, 75, 0
1, 77580, Note_on_c, 1, 77, 127
1, 77580, Note_on_c, 1, 62, 127
1, 77580, Note_on_c, 1, 58, 127
1, 77580, Note_on_c, 1, 46, 127
1, 77580, Note_on_c, 1, 34, 127
1, 77580, Note_on_c, 1, 56, 127
1, 77610, Note_on_c, 1, 74, 127
1, 77639, Note_off_c, 1, 46, 0
1, 77639, Note_off_c, 1, 34, 0
1, 77639, Note_off_c, 1, 74, 0
1, 77640, Note_off_c, 1, 62, 0
1, 77640, Note_on_c, 1, 63, 127
1, 77640, Note_on_c, 1, 51, 127
1, 77640, Note_on_c, 1, 39, 127
1, 77640, Note_on_c, 1, 70, 127
1, 77669, Note_off_c, 1, 70, 0
1, 77670, Note_on_c, 1, 68, 127
1, 77699, Note_off_c, 1, 77, 0
1, 77699, Note_off_c, 1, 56, 0
1, 77699, Note_off_c, 1, 68, 0
1, 77700, Note_on_c, 1, 75, 127
1, 77700, Note_on_c, 1, 55, 127
1, 77759, Note_off_c, 1, 51, 0
1, 77759, Note_off_c, 1, 39, 0
1, 77759, Note_off_c, 1, 75, 0
1, 77759, Note_off_c, 1, 55, 0
1, 77760, Note_off_c, 1, 58, 0
1, 77760, Note_on_c, 1, 48, 127
1, 77760, Note_on_c, 1, 36, 127
1, 77760, Note_on_c, 1, 60, 127
1, 77819, Note_off_c, 1, 48, 0
1, 77819, Note_off_c, 1, 36, 0
1, 77819, Note_off_c, 1, 60, 0
1, 77820, Note_on_c, 1, 67, 127
1, 77879, Note_off_c, 1, 67, 0
1, 77880, Note_off_c, 1, 63, 0
1, 77880, Note_on_c, 1, 65, 127
1, 77939, Note_off_c, 1, 65, 0
1, 78000, Note_on_c, 1, 63, 127
1, 78000, Note_on_c, 1, 55, 127
1, 78000, Note_on_c, 1, 39, 127
1, 78000, Note_on_c, 1, 27, 127
1, 78000, Note_on_c, 1, 58, 127
1, 78000, Note_on_c, 1, 51, 127
1, 78179, Note_off_c, 1, 39, 0
1, 78179, Note_off_c, 1, 27, 0
1, 78179, Note_off_c, 1, 58, 0
1, 78179, Note_off_c, 1, 51, 0
1, 78180, Note_off_c, 1, 63, 0
1, 78180, Note_off_c, 1, 55, 0
1, 79440, Note_on_c, 1, 72, 127
1, 79440, Note_on_c, 1, 67, 127
1, 79440, Note_on_c, 1, 63, 127
1, 79469, Note_off_c, 1, 72, 0
1, 79469, Note_off_c, 1, 67, 0
1, 79469, Note_off_c, 1, 63, 0
1, 79470, Note_on_c, 1, 71, 127
1, 79470, Note_on_c, 1, 65, 127
1, 79470, Note_on_c, 1, 62, 127
1, 79499, Note_off_c, 1, 71, 0
1, 79499, Note_off_c, 1, 65, 0
1, 79499, Note_off_c, 1, 62, 0
1, 79500, Note_on_c, 1, 72, 127
1, 79500, Note_on_c, 1, 67, 127
1, 79500, Note_on_c, 1, 63, 127
1, 79560, Note_off_c, 1, 67, 0
1, 79560, Note_off_c, 1, 63, 0
1, 79560, Note_on_c, 1, 48, 127
1, 79560, Note_on_c, 1, 36, 127
1, 79560, Note_on_c, 1, 68, 127
1, 79589, Note_off_c, 1, 72, 0
1, 79589, Note_off_c, 1, 48, 0
1, 79589, Note_off_c, 1, 36, 0
1, 79589, Note_off_c, 1, 68, 0
1, 79590, Note_on_c, 1, 50, 127
1, 79590, Note_on_c, 1, 38, 127
1, 79590, Note_on_c, 1, 65, 127
1, 79590, Note_on_c, 1, 71, 127
1, 79619, Note_off_c, 1, 50, 0
1, 79619, Note_off_c, 1, 38, 0
1, 79619, Note_off_c, 1, 65, 0
1, 79619, Note_off_c, 1, 71, 0
1, 79620, Note_on_c, 1, 51, 127
1, 79620, Note_on_c, 1, 39, 127
1, 79620, Note_on_c, 1, 67, 127
1, 79620, Note_on_c, 1, 72, 127
1, 79649, Note_off_c, 1, 67, 0
1, 79649, Note_off_c, 1, 72, 0
1, 79650, Note_on_c, 1, 63, 127
1, 79679, Note_off_c, 1, 63, 0
1, 79680, Note_off_c, 1, 51, 0
1, 79680, Note_off_c, 1, 39, 0
1, 79680, Note_on_c, 1, 68, 127
1, 79680, Note_on_c, 1, 65, 127
1, 79709, Note_off_c, 1, 68, 0
1, 79709, Note_off_c, 1, 65, 0
1, 79710, Note_on_c, 1, 71, 127
1, 79710, Note_on_c, 1, 65, 127
1, 79710, Note_on_c, 1, 62, 127
1, 79739, Note_off_c, 1, 71, 0
1, 79739, Note_off_c, 1, 65, 0
1, 79739, Note_off_c, 1, 62, 0
1, 79740, Note_on_c, 1, 72, 127
1, 79740, Note_on_c, 1, 67, 127
1, 79740, Note_on_c, 1, 63, 127
1, 79770, Note_on_c, 1, 60, 127
1, 79799, Note_off_c, 1, 60, 0
1, 79800, Note_off_c, 1, 72, 0
1, 79800, Note_off_c, 1, 67, 0
1, 79800, Note_off_c, 1, 63, 0
1, 79800, Note_on_c, 1, 55, 127
1, 79800, Note_on_c, 1, 43, 127
1, 79800, Note_on_c, 1, 62, 127
1, 79800, Note_on_c, 1, 65, 127
1, 79829, Note_off_c, 1, 62, 0
1, 79829, Note_off_c, 1, 65, 0
1, 79830, Note_on_c, 1, 59, 127
1, 79859, Note_off_c, 1, 59, 0
1, 79860, Note_off_c, 1, 55, 0
1, 79860, Note_off_c, 1, 43, 0
1, 79860, Note_on_c, 1, 48, 127
1, 79860, Note_on_c, 1, 36, 127
1, 79920, Note_off_c, 1, 48, 0
1, 79920, Note_off_c, 1, 36, 0
1, 79920, Note_on_c, 1, 68, 127
1, 79979, Note_off_c, 1, 68, 0
1, 79980, Note_on_c, 1, 68, 127
1, 79980, Note_on_c, 1, 63, 127
1, 79980, Note_on_c, 1, 60, 127
1, 79995, Note_on_c, 1, 70, 127
1, 80010, Note_off_c, 1, 70, 0
1, 80040, Note_off_c, 1, 68, 0
1, 80040, Note_off_c, 1, 63, 0
1, 80040, Note_off_c, 1, 60, 0
1, 80040, Note_on_c, 1, 47, 127
1, 80040, Note_on_c, 1, 35, 127
1, 80040, Note_on_c, 1, 67, 127
1, 80040, Note_on_c, 1, 62, 127
1, 80069, Note_off_c, 1, 62, 0
1, 80070, Note_on_c, 1, 65, 127
1, 80099, Note_off_c, 1, 65, 0
1, 80100, Note_off_c, 1, 47, 0
1, 80100, Note_off_c, 1, 35, 0
1, 80100, Note_on_c, 1, 48, 127
1, 80100, Note_on_c, 1, 36, 127
1, 80129, Note_off_c, 1, 67, 0
1, 80130, Note_on_c, 1, 69, 127
1, 80159, Note_off_c, 1, 69, 0
1, 80160, Note_off_c, 1, 48, 0
1, 80160, Note_off_c, 1, 36, 0
1, 80160, Note_on_c, 1, 71, 127
1, 80160, Note_on_c, 1, 50, 127
1, 80160, Note_on_c, 1, 38, 127
1, 80189, Note_off_c, 1, 71, 0
1, 80190, Note_on_c, 1, 59, 127
1, 80219, Note_off_c, 1, 59, 0
1, 80220, Note_off_c, 1, 50, 0
1, 80220, Note_off_c, 1, 38, 0
1, 80220, Note_on_c, 1, 72, 127
1, 80220, Note_on_c, 1, 55, 127
1, 80220, Note_on_c, 1, 51, 127
1, 80220, Note_on_c, 1, 39, 127
1, 80280, Note_off_c, 1, 55, 0
1, 80310, Note_off_c, 1, 51, 0
1, 80310, Note_off_c, 1, 39, 0
1, 80369, Note_off_c, 1, 72, 0
1, 80370, Note_on_c, 1, 74, 127
1, 80399, Note_off_c, 1, 74, 0
1, 80400, Note_on_c, 1, 75, 127
1, 80429, Note_off_c, 1, 75, 0
1, 80460, Note_on_c, 1, 77, 127
1, 80460, Note_on_c, 1, 56, 127
1, 80460, Note_on_c, 1, 44, 127
1, 80520, Note_off_c, 1, 77, 0
1, 80520, Note_off_c, 1, 56, 0
1, 80520, Note_on_c, 1, 32, 127
1, 80580, Note_off_c, 1, 44, 0
1, 80580, Note_off_c, 1, 32, 0
1, 80580, Note_on_c, 1, 78, 127
1, 80609, Note_off_c, 1, 78, 0
1, 80610, Note_on_c, 1, 79, 127
1, 80639, Note_off_c, 1, 79, 0
1, 80640, Note_on_c, 1, 43, 127
1, 80640, Note_on_c, 1, 31, 127
1, 80670, Note_off_c, 1, 43, 0
1, 80670, Note_off_c, 1, 31, 0
1, 80670, Note_on_c, 1, 45, 127
1, 80670, Note_on_c, 1, 33, 127
1, 80700, Note_off_c, 1, 45, 0
1, 80700, Note_off_c, 1, 33, 0
1, 80760, Note_on_c, 1, 71, 127
1, 80760, Note_on_c, 1, 67, 127
1, 80760, Note_on_c, 1, 62, 127
1, 80760, Note_on_c, 1, 50, 127
1, 80760, Note_on_c, 1, 38, 127
1, 80789, Note_off_c, 1, 71, 0
1, 80789, Note_off_c, 1, 67, 0
1, 80789, Note_off_c, 1, 62, 0
1, 80790, Note_on_c, 1, 74, 127
1, 80790, Note_on_c, 1, 65, 127
1, 80819, Note_off_c, 1, 50, 0
1, 80819, Note_off_c, 1, 38, 0
1, 80819, Note_off_c, 1, 74, 0
1, 80819, Note_off_c, 1, 65, 0
1, 80820, Note_on_c, 1, 67, 127
1, 80820, Note_on_c, 1, 62, 127
1, 80820, Note_on_c, 1, 59, 127
1, 80820, Note_on_c, 1, 55, 127
1, 80820, Note_on_c, 1, 43, 127
1, 80879, Note_off_c, 1, 67, 0
1, 80879, Note_off_c, 1, 62, 0
1, 80879, Note_off_c, 1, 59, 0
1, 80879, Note_off_c, 1, 55, 0
1, 80879, Note_off_c, 1, 43, 0
1, 80880, Note_on_c, 1, 53, 127
1, 80880, Note_on_c, 1, 41, 127
1, 80880, Note_on_c, 1, 67, 127
1, 80909, Note_off_c, 1, 67, 0
1, 80910, Note_on_c, 1, 68, 127
1, 80939, Note_off_c, 1, 53, 0
1, 80939, Note_off_c, 1, 41, 0
1, 80939, Note_off_c, 1, 68, 0
1, 80940, Note_on_c, 1, 52, 127
1, 80940, Note_on_c, 1, 40, 127
1, 80940, Note_on_c, 1, 70, 127
1, 80999, Note_off_c, 1, 52, 0
1, 80999, Note_off_c, 1, 40, 0
1, 80999, Note_off_c, 1, 70, 0
1, 81000, Note_on_c, 1, 52, 127
1, 81000, Note_on_c, 1, 40, 127
1, 81000, Note_on_c, 1, 73, 127
1, 81000, Note_on_c, 1, 67, 127
1, 81029, Note_off_c, 1, 67, 0
1, 81030, Note_on_c, 1, 68, 127
1, 81059, Note_off_c, 1, 52, 0
1, 81059, Note_off_c, 1, 40, 0
1, 81059, Note_off_c, 1, 68, 0
1, 81060, Note_on_c, 1, 70, 127
1, 81119, Note_off_c, 1, 73, 0
1, 81119, Note_off_c, 1, 70, 0
1, 81120, Note_on_c, 1, 53, 127
1, 81120, Note_on_c, 1, 41, 127
1, 81120, Note_on_c, 1, 72, 127
1, 81120, Note_on_c, 1, 68, 127
1, 81179, Note_off_c, 1, 53, 0
1, 81179, Note_off_c, 1, 41, 0
1, 81179, Note_off_c, 1, 72, 0
1, 81179, Note_off_c, 1, 68, 0
1, 81180, Note_on_c, 1, 58, 127
1, 81180, Note_on_c, 1, 34, 127
1, 81180, Note_on_c, 1, 64, 127
1, 81180, Note_on_c, 1, 73, 127
1, 81239, Note_off_c, 1, 58, 0
1, 81239, Note_off_c, 1, 34, 0
1, 81239, Note_off_c, 1, 64, 0
1, 81239, Note_off_c, 1, 73, 0
1, 81240, Note_on_c, 1, 56, 127
1, 81240, Note_on_c, 1, 32, 127
1, 81240, Note_on_c, 1, 65, 127
1, 81240, Note_on_c, 1, 72, 127
1, 81299, Note_off_c, 1, 56, 0
1, 81299, Note_off_c, 1, 32, 0
1, 81299, Note_off_c, 1, 65, 0
1, 81299, Note_off_c, 1, 72, 0
1, 81300, Note_on_c, 1, 55, 127
1, 81300, Note_on_c, 1, 31, 127
1, 81300, Note_on_c, 1, 70, 127
1, 81300, Note_on_c, 1, 64, 127
1, 81329, Note_off_c, 1, 70, 0
1, 81330, Note_on_c, 1, 67, 127
1, 81359, Note_off_c, 1, 55, 0
1, 81359, Note_off_c, 1, 31, 0
1, 81359, Note_off_c, 1, 64, 0
1, 81359, Note_off_c, 1, 67, 0
1, 81360, Note_on_c, 1, 53, 127
1, 81360, Note_on_c, 1, 29, 127
1, 81360, Note_on_c, 1, 68, 127
1, 81360, Note_on_c, 1, 65, 127
1, 81419, Note_off_c, 1, 53, 0
1, 81419, Note_off_c, 1, 29, 0
1, 81419, Note_off_c, 1, 68, 0
1, 81419, Note_off_c, 1, 65, 0
1, 81420, Note_on_c, 1, 52, 127
1, 81420, Note_on_c, 1, 28, 127
1, 81420, Note_on_c, 1, 70, 127
1, 81449, Note_off_c, 1, 70, 0
1, 81450, Note_on_c, 1, 67, 127
1, 81479, Note_off_c, 1, 52, 0
1, 81479, Note_off_c, 1, 28, 0
1, 81479, Note_off_c, 1, 67, 0
1, 81480, Note_on_c, 1, 68, 127
1, 81480, Note_on_c, 1, 65, 127
1, 81480, Note_on_c, 1, 60, 127
1, 81480, Note_on_c, 1, 53, 127
1, 81480, Note_on_c, 1, 29, 127
1, 81509, Note_off_c, 1, 65, 0
1, 81509, Note_off_c, 1, 60, 0
1, 81510, Note_on_c, 1, 67, 127
1, 81510, Note_on_c, 1, 64, 127
1, 81510, Note_on_c, 1, 58, 127
1, 81539, Note_off_c, 1, 68, 0
1, 81539, Note_off_c, 1, 53, 0
1, 81539, Note_off_c, 1, 29, 0
1, 81539, Note_off_c, 1, 67, 0
1, 81539, Note_off_c, 1, 64, 0
1, 81539, Note_off_c, 1, 58, 0
1, 81540, Note_on_c, 1, 68, 127
1, 81540, Note_on_c, 1, 65, 127
1, 81540, Note_on_c, 1, 60, 127
1, 81540, Note_on_c, 1, 41, 127
1, 81599, Note_off_c, 1, 68, 0
1, 81599, Note_off_c, 1, 65, 0
1, 81599, Note_off_c, 1, 60, 0
1, 81599, Note_off_c, 1, 41, 0
1, 81600, Note_on_c, 1, 53, 127
1, 81600, Note_on_c, 1, 39, 127
1, 81600, Note_on_c, 1, 69, 127
1, 81629, Note_off_c, 1, 69, 0
1, 81630, Note_on_c, 1, 70, 127
1, 81659, Note_off_c, 1, 53, 0
1, 81659, Note_off_c, 1, 39, 0
1, 81659, Note_off_c, 1, 70, 0
1, 81660, Note_on_c, 1, 54, 127
1, 81660, Note_on_c, 1, 38, 127
1, 81660, Note_on_c, 1, 72, 127
1, 81719, Note_off_c, 1, 54, 0
1, 81719, Note_off_c, 1, 38, 0
1, 81719, Note_off_c, 1, 72, 0
1, 81720, Note_on_c, 1, 54, 127
1, 81720, Note_on_c, 1, 30, 127
1, 81720, Note_on_c, 1, 75, 127
1, 81720, Note_on_c, 1, 69, 127
1, 81749, Note_off_c, 1, 69, 0
1, 81750, Note_on_c, 1, 70, 127
1, 81779, Note_off_c, 1, 54, 0
1, 81779, Note_off_c, 1, 30, 0
1, 81779, Note_off_c, 1, 70, 0
1, 81780, Note_on_c, 1, 72, 127
1, 81839, Note_off_c, 1, 75, 0
1, 81839, Note_off_c, 1, 72, 0
1, 81840, Note_on_c, 1, 55, 127
1, 81840, Note_on_c, 1, 31, 127
1, 81840, Note_on_c, 1, 74, 127
1, 81840, Note_on_c, 1, 70, 127
1, 81899, Note_off_c, 1, 55, 0
1, 81899, Note_off_c, 1, 31, 0
1, 81899, Note_off_c, 1, 74, 0
1, 81899, Note_off_c, 1, 70, 0
1, 81900, Note_on_c, 1, 60, 127
1, 81900, Note_on_c, 1, 36, 127
1, 81900, Note_on_c, 1, 66, 127
1, 81900, Note_on_c, 1, 75, 127
1, 81959, Note_off_c, 1, 60, 0
1, 81959, Note_off_c, 1, 36, 0
1, 81959, Note_off_c, 1, 66, 0
1, 81959, Note_off_c, 1, 75, 0
1, 81960, Note_on_c, 1, 58, 127
1, 81960, Note_on_c, 1, 34, 127
1, 81960, Note_on_c, 1, 67, 127
1, 81960, Note_on_c, 1, 74, 127
1, 82019, Note_off_c, 1, 58, 0
1, 82019, Note_off_c, 1, 34, 0
1, 82019, Note_off_c, 1, 67, 0
1, 82019, Note_off_c, 1, 74, 0
1, 82020, Note_on_c, 1, 57, 127
1, 82020, Note_on_c, 1, 33, 127
1, 82020, Note_on_c, 1, 72, 127
1, 82020, Note_on_c, 1, 66, 127
1, 82049, Note_off_c, 1, 72, 0
1, 82050, Note_on_c, 1, 69, 127
1, 82079, Note_off_c, 1, 57, 0
1, 82079, Note_off_c, 1, 33, 0
1, 82079, Note_off_c, 1, 66, 0
1, 82079, Note_off_c, 1, 69, 0
1, 82080, Note_on_c, 1, 55, 127
1, 82080, Note_on_c, 1, 31, 127
1, 82080, Note_on_c, 1, 71, 127
1, 82080, Note_on_c, 1, 67, 127
1, 82139, Note_off_c, 1, 55, 0
1, 82139, Note_off_c, 1, 31, 0
1, 82139, Note_off_c, 1, 71, 0
1, 82139, Note_off_c, 1, 67, 0
1, 82140, Note_on_c, 1, 54, 127
1, 82140, Note_on_c, 1, 30, 127
1, 82140, Note_on_c, 1, 72, 127
1, 82169, Note_off_c, 1, 72, 0
1, 82170, Note_on_c, 1, 69, 127
1, 82199, Note_off_c, 1, 54, 0
1, 82199, Note_off_c, 1, 30, 0
1, 82199, Note_off_c, 1, 69, 0
1, 82200, Note_on_c, 1, 71, 127
1, 82200, Note_on_c, 1, 67, 127
1, 82200, Note_on_c, 1, 62, 127
1, 82200, Note_on_c, 1, 55, 127
1, 82200, Note_on_c, 1, 31, 127
1, 82230, Note_off_c, 1, 67, 0
1, 82230, Note_off_c, 1, 62, 0
1, 82230, Note_on_c, 1, 69, 127
1, 82230, Note_on_c, 1, 66, 127
1, 82230, Note_on_c, 1, 60, 127
1, 82259, Note_off_c, 1, 71, 0
1, 82259, Note_off_c, 1, 55, 0
1, 82259, Note_off_c, 1, 31, 0
1, 82260, Note_off_c, 1, 69, 0
1, 82260, Note_off_c, 1, 66, 0
1, 82260, Note_off_c, 1, 60, 0
1, 82260, Note_on_c, 1, 43, 127
1, 82319, Note_off_c, 1, 43, 0
1, 82320, Note_on_c, 1, 79, 127
1, 82320, Note_on_c, 1, 74, 127
1, 82320, Note_on_c, 1, 59, 127
1, 82320, Note_on_c, 1, 55, 127
1, 82320, Note_on_c, 1, 41, 127
1, 82350, Note_off_c, 1, 79, 0
1, 82350, Note_on_c, 1, 78, 127
1, 82379, Note_off_c, 1, 74, 0
1, 82379, Note_off_c, 1, 59, 0
1, 82379, Note_off_c, 1, 55, 0
1, 82379, Note_off_c, 1, 41, 0
1, 82380, Note_off_c, 1, 78, 0
1, 82380, Note_on_c, 1, 72, 127
1, 82380, Note_on_c, 1, 51, 127
1, 82380, Note_on_c, 1, 39, 127
1, 82439, Note_off_c, 1, 72, 0
1, 82439, Note_off_c, 1, 51, 0
1, 82439, Note_off_c, 1, 39, 0
1, 82440, Note_on_c, 1, 48, 127
1, 82440, Note_on_c, 1, 36, 127
1, 82440, Note_on_c, 1, 75, 127
1, 82440, Note_on_c, 1, 79, 127
1, 82469, Note_off_c, 1, 75, 0
1, 82469, Note_off_c, 1, 79, 0
1, 82470, Note_on_c, 1, 72, 127
1, 82470, Note_on_c, 1, 78, 127
1, 82499, Note_off_c, 1, 48, 0
1, 82499, Note_off_c, 1, 36, 0
1, 82499, Note_off_c, 1, 72, 0
1, 82499, Note_off_c, 1, 78, 0
1, 82500, Note_on_c, 1, 74, 127
1, 82500, Note_on_c, 1, 79, 127
1, 82529, Note_off_c, 1, 74, 0
1, 82529, Note_off_c, 1, 79, 0
1, 82530, Note_on_c, 1, 71, 127
1, 82530, Note_on_c, 1, 74, 127
1, 82559, Note_off_c, 1, 71, 0
1, 82559, Note_off_c, 1, 74, 0
1, 82560, Note_on_c, 1, 79, 127
1, 82560, Note_on_c, 1, 75, 127
1, 82560, Note_on_c, 1, 72, 127
1, 82560, Note_on_c, 1, 55, 127
1, 82560, Note_on_c, 1, 36, 127
1, 82589, Note_off_c, 1, 79, 0
1, 82589, Note_off_c, 1, 75, 0
1, 82589, Note_off_c, 1, 72, 0
1, 82590, Note_on_c, 1, 78, 127
1, 82590, Note_on_c, 1, 69, 127
1, 82619, Note_off_c, 1, 55, 0
1, 82619, Note_off_c, 1, 36, 0
1, 82619, Note_off_c, 1, 78, 0
1, 82619, Note_off_c, 1, 69, 0
1, 82620, Note_on_c, 1, 79, 127
1, 82620, Note_on_c, 1, 74, 127
1, 82620, Note_on_c, 1, 71, 127
1, 82620, Note_on_c, 1, 53, 127
1, 82620, Note_on_c, 1, 41, 127
1, 82650, Note_on_c, 1, 67, 127
1, 82679, Note_off_c, 1, 79, 0
1, 82679, Note_off_c, 1, 74, 0
1, 82679, Note_off_c, 1, 71, 0
1, 82679, Note_off_c, 1, 53, 0
1, 82679, Note_off_c, 1, 41, 0
1, 82679, Note_off_c, 1, 67, 0
1, 82680, Note_on_c, 1, 51, 127
1, 82680, Note_on_c, 1, 39, 127
1, 82680, Note_on_c, 1, 71, 127
1, 82680, Note_on_c, 1, 67, 127
1, 82709, Note_off_c, 1, 71, 0
1, 82710, Note_on_c, 1, 74, 127
1, 82739, Note_off_c, 1, 51, 0
1, 82739, Note_off_c, 1, 39, 0
1, 82739, Note_off_c, 1, 67, 0
1, 82739, Note_off_c, 1, 74, 0
1, 82739, Note_on_c, 1, 77, 127
1, 82740, Note_on_c, 1, 50, 127
1, 82740, Note_on_c, 1, 38, 127
1, 82768, Note_off_c, 1, 77, 0
1, 82799, Note_off_c, 1, 50, 0
1, 82799, Note_off_c, 1, 38, 0
1, 82799, Note_on_c, 1, 75, 127
1, 82800, Note_on_c, 1, 79, 127
1, 82800, Note_on_c, 1, 72, 127
1, 82800, Note_on_c, 1, 48, 127
1, 82800, Note_on_c, 1, 36, 127
1, 82829, Note_off_c, 1, 75, 0
1, 82829, Note_off_c, 1, 79, 0
1, 82830, Note_on_c, 1, 78, 127
1, 82859, Note_off_c, 1, 72, 0
1, 82859, Note_off_c, 1, 48, 0
1, 82859, Note_off_c, 1, 36, 0
1, 82859, Note_off_c, 1, 78, 0
1, 82860, Note_on_c, 1, 47, 127
1, 82860, Note_on_c, 1, 35, 127
1, 82919, Note_off_c, 1, 47, 0
1, 82919, Note_off_c, 1, 35, 0
1, 82920, Note_on_c, 1, 43, 127
1, 82920, Note_on_c, 1, 31, 127
1, 82949, Note_on_c, 1, 69, 127
1, 82978, Note_off_c, 1, 69, 0
1, 82979, Note_off_c, 1, 43, 0
1, 82979, Note_off_c, 1, 31, 0
1, 82980, Note_on_c, 1, 55, 127
1, 83039, Note_off_c, 1, 55, 0
1, 83119, Note_on_c, 1, 73, 127
1, 83138, Note_off_c, 1, 73, 0
1, 83160, Note_on_c, 1, 68, 127
1, 83160, Note_on_c, 1, 65, 127
1, 83160, Note_on_c, 1, 53, 127
1, 83160, Note_on_c, 1, 41, 127
1, 83190, Note_off_c, 1, 68, 0
1, 83190, Note_off_c, 1, 65, 0
1, 83219, Note_off_c, 1, 53, 0
1, 83219, Note_off_c, 1, 41, 0
1, 83280, Note_on_c, 1, 60, 127
1, 83280, Note_on_c, 1, 27, 127
1, 83280, Note_on_c, 1, 63, 127
1, 83310, Note_off_c, 1, 60, 0
1, 83339, Note_off_c, 1, 27, 0
1, 83339, Note_off_c, 1, 63, 0
1, 83340, Note_on_c, 1, 26, 127
1, 83340, Note_on_c, 1, 62, 127
1, 83369, Note_on_c, 1, 80, 127
1, 83398, Note_off_c, 1, 80, 0
1, 83399, Note_off_c, 1, 26, 0
1, 83399, Note_off_c, 1, 62, 0
1, 83549, Note_on_c, 1, 59, 127
1, 83578, Note_off_c, 1, 59, 0
1, 83660, Note_on_c, 1, 63, 127
1, 83660, Note_on_c, 1, 72, 127
1, 83679, Note_off_c, 1, 63, 0
1, 83679, Note_off_c, 1, 72, 0
1, 83680, Note_on_c, 1, 65, 127
1, 83680, Note_on_c, 1, 74, 127
1, 83699, Note_off_c, 1, 65, 0
1, 83699, Note_off_c, 1, 74, 0
1, 83700, Note_on_c, 1, 65, 127
1, 83700, Note_on_c, 1, 74, 127
1, 83719, Note_off_c, 1, 65, 0
1, 83719, Note_off_c, 1, 74, 0
1, 83720, Note_on_c, 1, 67, 127
1, 83720, Note_on_c, 1, 75, 127
1, 83739, Note_off_c, 1, 67, 0
1, 83739, Note_off_c, 1, 75, 0
1, 83740, Note_on_c, 1, 69, 127
1, 83740, Note_on_c, 1, 77, 127
1, 83759, Note_off_c, 1, 69, 0
1, 83759, Note_off_c, 1, 77, 0
1, 83760, Note_on_c, 1, 69, 127
1, 83760, Note_on_c, 1, 77, 127
1, 83779, Note_off_c, 1, 69, 0
1, 83779, Note_off_c, 1, 77, 0
1, 83780, Note_on_c, 1, 71, 127
1, 83780, Note_on_c, 1, 75, 127
1, 83799, Note_off_c, 1, 71, 0
1, 83799, Note_off_c, 1, 75, 0
1, 83800, Note_on_c, 1, 72, 127
1, 83800, Note_on_c, 1, 74, 127
1, 83819, Note_off_c, 1, 72, 0
1, 83819, Note_off_c, 1, 74, 0
1, 83820, Note_on_c, 1, 72, 127
1, 83820, Note_on_c, 1, 63, 127
1, 83820, Note_on_c, 1, 67, 127
1, 83820, Note_on_c, 1, 43, 127
1, 83820, Note_on_c, 1, 31, 127
1, 83820, Note_on_c, 1, 75, 127
1, 83850, Note_on_c, 1, 48, 127
1, 83879, Note_off_c, 1, 72, 0
1, 83879, Note_off_c, 1, 63, 0
1, 83879, Note_off_c, 1, 67, 0
1, 83879, Note_off_c, 1, 43, 0
1, 83879, Note_off_c, 1, 31, 0
1, 83879, Note_off_c, 1, 75, 0
1, 83880, Note_on_c, 1, 51, 127
1, 83909, Note_off_c, 1, 48, 0
1, 83910, Note_on_c, 1, 60, 127
1, 83910, Note_on_c, 1, 55, 127
1, 83939, Note_off_c, 1, 51, 0
1, 83939, Note_off_c, 1, 60, 0
1, 83999, Note_off_c, 1, 55, 0
1, 84000, Note_on_c, 1, 63, 127
1, 84000, Note_on_c, 1, 72, 127
1, 84019, Note_off_c, 1, 63, 0
1, 84019, Note_off_c, 1, 72, 0
1, 84020, Note_on_c, 1, 65, 127
1, 84020, Note_on_c, 1, 74, 127
1, 84039, Note_off_c, 1, 65, 0
1, 84039, Note_off_c, 1, 74, 0
1, 84040, Note_on_c, 1, 67, 127
1, 84040, Note_on_c, 1, 75, 127
1, 84059, Note_off_c, 1, 67, 0
1, 84059, Note_off_c, 1, 75, 0
1, 84060, Note_on_c, 1, 67, 127
1, 84060, Note_on_c, 1, 75, 127
1, 84079, Note_off_c, 1, 67, 0
1, 84079, Note_off_c, 1, 75, 0
1, 84080, Note_on_c, 1, 69, 127
1, 84080, Note_on_c, 1, 77, 127
1, 84099, Note_off_c, 1, 69, 0
1, 84099, Note_off_c, 1, 77, 0
1, 84100, Note_on_c, 1, 71, 127
1, 84100, Note_on_c, 1, 79, 127
1, 84119, Note_off_c, 1, 71, 0
1, 84119, Note_off_c, 1, 79, 0
1, 84120, Note_on_c, 1, 71, 127
1, 84120, Note_on_c, 1, 79, 127
1, 84139, Note_off_c, 1, 71, 0
1, 84139, Note_off_c, 1, 79, 0
1, 84140, Note_on_c, 1, 72, 127
1, 84140, Note_on_c, 1, 77, 127
1, 84159, Note_off_c, 1, 72, 0
1, 84159, Note_off_c, 1, 77, 0
1, 84160, Note_on_c, 1, 74, 127
1, 84160, Note_on_c, 1, 75, 127
1, 84179, Note_off_c, 1, 74, 0
1, 84179, Note_off_c, 1, 75, 0
1, 84180, Note_on_c, 1, 74, 127
1, 84180, Note_on_c, 1, 71, 127
1, 84180, Note_on_c, 1, 67, 127
1, 84180, Note_on_c, 1, 55, 127
1, 84180, Note_on_c, 1, 31, 127
1, 84180, Note_on_c, 1, 77, 127
1, 84180, Note_on_c, 1, 43, 127
1, 84210, Note_on_c, 1, 47, 127
1, 84239, Note_off_c, 1, 74, 0
1, 84239, Note_off_c, 1, 71, 0
1, 84239, Note_off_c, 1, 67, 0
1, 84239, Note_off_c, 1, 55, 0
1, 84239, Note_off_c, 1, 31, 0
1, 84239, Note_off_c, 1, 77, 0
1, 84239, Note_off_c, 1, 43, 0
1, 84240, Note_on_c, 1, 65, 127
1, 84240, Note_on_c, 1, 50, 127
1, 84269, Note_off_c, 1, 47, 0
1, 84269, Note_off_c, 1, 65, 0
1, 84270, Note_on_c, 1, 62, 127
1, 84299, Note_off_c, 1, 50, 0
1, 84299, Note_off_c, 1, 62, 0
1, 84360, Note_on_c, 1, 67, 127
1, 84360, Note_on_c, 1, 59, 127
1, 84379, Note_off_c, 1, 67, 0
1, 84379, Note_off_c, 1, 59, 0
1, 84380, Note_on_c, 1, 69, 127
1, 84380, Note_on_c, 1, 60, 127
1, 84399, Note_off_c, 1, 69, 0
1, 84399, Note_off_c, 1, 60, 0
1, 84400, Note_on_c, 1, 71, 127
1, 84400, Note_on_c, 1, 62, 127
1, 84419, Note_off_c, 1, 71, 0
1, 84419, Note_off_c, 1, 62, 0
1, 84420, Note_on_c, 1, 71, 127
1, 84420, Note_on_c, 1, 62, 127
1, 84439, Note_off_c, 1, 71, 0
1, 84439, Note_off_c, 1, 62, 0
1, 84440, Note_on_c, 1, 72, 127
1, 84440, Note_on_c, 1, 63, 127
1, 84459, Note_off_c, 1, 72, 0
1, 84459, Note_off_c, 1, 63, 0
1, 84460, Note_on_c, 1, 74, 127
1, 84460, Note_on_c, 1, 65, 127
1, 84479, Note_off_c, 1, 74, 0
1, 84479, Note_off_c, 1, 65, 0
1, 84480, Note_on_c, 1, 74, 127
1, 84480, Note_on_c, 1, 65, 127
1, 84499, Note_off_c, 1, 74, 0
1, 84499, Note_off_c, 1, 65, 0
1, 84500, Note_on_c, 1, 75, 127
1, 84500, Note_on_c, 1, 63, 127
1, 84519, Note_off_c, 1, 75, 0
1, 84519, Note_off_c, 1, 63, 0
1, 84520, Note_on_c, 1, 77, 127
1, 84520, Note_on_c, 1, 62, 127
1, 84539, Note_off_c, 1, 77, 0
1, 84539, Note_off_c, 1, 62, 0
1, 84540, Note_on_c, 1, 75, 127
1, 84540, Note_on_c, 1, 72, 127
1, 84540, Note_on_c, 1, 67, 127
1, 84540, Note_on_c, 1, 48, 127
1, 84540, Note_on_c, 1, 36, 127
1, 84540, Note_on_c, 1, 60, 127
1, 84569, Note_off_c, 1, 75, 0
1, 84569, Note_off_c, 1, 60, 0
1, 84570, Note_on_c, 1, 63, 127
1, 84599, Note_off_c, 1, 63, 0
1, 84600, Note_on_c, 1, 65, 127
1, 84600, Note_on_c, 1, 71, 127
1, 84600, Note_on_c, 1, 62, 127
1, 84629, Note_off_c, 1, 65, 0
1, 84629, Note_off_c, 1, 71, 0
1, 84629, Note_off_c, 1, 62, 0
1, 84660, Note_off_c, 1, 72, 0
1, 84660, Note_off_c, 1, 67, 0
1, 84660, Note_off_c, 1, 48, 0
1, 84660, Note_off_c, 1, 36, 0
1, 84660, Note_on_c, 1, 68, 127
1, 84660, Note_on_c, 1, 73, 127
1, 84689, Note_off_c, 1, 68, 0
1, 84689, Note_off_c, 1, 73, 0
1, 84690, Note_on_c, 1, 67, 127
1, 84690, Note_on_c, 1, 72, 127
1, 84690, Note_on_c, 1, 63, 127
1, 84719, Note_off_c, 1, 67, 0
1, 84719, Note_off_c, 1, 72, 0
1, 84719, Note_off_c, 1, 63, 0
1, 84720, Note_on_c, 1, 65, 127
1, 84720, Note_on_c, 1, 60, 127
1, 84720, Note_on_c, 1, 48, 127
1, 84720, Note_on_c, 1, 36, 127
1, 84720, Note_on_c, 1, 71, 127
1, 84720, Note_on_c, 1, 62, 127
1, 84749, Note_off_c, 1, 65, 0
1, 84749, Note_off_c, 1, 71, 0
1, 84749, Note_off_c, 1, 62, 0
1, 84750, Note_on_c, 1, 67, 127
1, 84750, Note_on_c, 1, 72, 127
1, 84750, Note_on_c, 1, 63, 127
1, 84779, Note_off_c, 1, 67, 0
1, 84779, Note_off_c, 1, 72, 0
1, 84779, Note_off_c, 1, 63, 0
1, 84780, Note_off_c, 1, 48, 0
1, 84780, Note_off_c, 1, 36, 0
1, 84780, Note_on_c, 1, 68, 127
1, 84780, Note_on_c, 1, 53, 127
1, 84780, Note_on_c, 1, 41, 127
1, 84809, Note_off_c, 1, 68, 0
1, 84840, Note_off_c, 1, 53, 0
1, 84840, Note_off_c, 1, 41, 0
1, 84840, Note_on_c, 1, 50, 127
1, 84840, Note_on_c, 1, 38, 127
1, 84900, Note_off_c, 1, 50, 0
1, 84900, Note_off_c, 1, 38, 0
1, 84900, Note_on_c, 1, 51, 127
1, 84900, Note_on_c, 1, 39, 127
1, 85020, Note_off_c, 1, 51, 0
1, 85020, Note_off_c, 1, 39, 0
1, 85020, Note_on_c, 1, 75, 127
1, 85049, Note_off_c, 1, 60, 0
1, 85049, Note_off_c, 1, 75, 0
1, 85050, Note_on_c, 1, 67, 127
1, 85050, Note_on_c, 1, 72, 127
1, 85050, Note_on_c, 1, 63, 127
1, 85079, Note_off_c, 1, 67, 0
1, 85079, Note_off_c, 1, 72, 0
1, 85079, Note_off_c, 1, 63, 0
1, 85080, Note_on_c, 1, 65, 127
1, 85080, Note_on_c, 1, 60, 127
1, 85080, Note_on_c, 1, 48, 127
1, 85080, Note_on_c, 1, 36, 127
1, 85080, Note_on_c, 1, 71, 127
1, 85080, Note_on_c, 1, 62, 127
1, 85109, Note_off_c, 1, 65, 0
1, 85109, Note_off_c, 1, 71, 0
1, 85109, Note_off_c, 1, 62, 0
1, 85110, Note_on_c, 1, 67, 127
1, 85110, Note_on_c, 1, 72, 127
1, 85110, Note_on_c, 1, 63, 127
1, 85139, Note_off_c, 1, 67, 0
1, 85139, Note_off_c, 1, 72, 0
1, 85139, Note_off_c, 1, 63, 0
1, 85140, Note_off_c, 1, 48, 0
1, 85140, Note_off_c, 1, 36, 0
1, 85140, Note_on_c, 1, 51, 127
1, 85140, Note_on_c, 1, 39, 127
1, 85160, Note_on_c, 1, 70, 127
1, 85179, Note_off_c, 1, 70, 0
1, 85200, Note_off_c, 1, 51, 0
1, 85200, Note_off_c, 1, 39, 0
1, 85260, Note_on_c, 1, 50, 127
1, 85260, Note_on_c, 1, 38, 127
1, 85290, Note_on_c, 1, 68, 127
1, 85319, Note_off_c, 1, 68, 0
1, 85380, Note_off_c, 1, 60, 0
1, 85380, Note_off_c, 1, 50, 0
1, 85380, Note_off_c, 1, 38, 0
1, 85380, Note_on_c, 1, 80, 127
1, 85409, Note_off_c, 1, 80, 0
1, 85410, Note_on_c, 1, 63, 127
1, 85410, Note_on_c, 1, 72, 127
1, 85410, Note_on_c, 1, 68, 127
1, 85439, Note_off_c, 1, 63, 0
1, 85439, Note_off_c, 1, 72, 0
1, 85439, Note_off_c, 1, 68, 0
1, 85440, Note_on_c, 1, 62, 127
1, 85440, Note_on_c, 1, 56, 127
1, 85440, Note_on_c, 1, 53, 127
1, 85440, Note_on_c, 1, 41, 127
1, 85440, Note_on_c, 1, 71, 127
1, 85440, Note_on_c, 1, 67, 127
1, 85469, Note_off_c, 1, 71, 0
1, 85469, Note_off_c, 1, 67, 0
1, 85470, Note_on_c, 1, 63, 127
1, 85470, Note_on_c, 1, 72, 127
1, 85470, Note_on_c, 1, 68, 127
1, 85499, Note_off_c, 1, 63, 0
1, 85499, Note_off_c, 1, 72, 0
1, 85499, Note_off_c, 1, 68, 0
1, 85500, Note_off_c, 1, 62, 0
1, 85500, Note_off_c, 1, 56, 0
1, 85500, Note_off_c, 1, 53, 0
1, 85500, Note_off_c, 1, 41, 0
1, 85500, Note_on_c, 1, 65, 127
1, 85500, Note_on_c, 1, 59, 127
1, 85500, Note_on_c, 1, 50, 127
1, 85500, Note_on_c, 1, 43, 127
1, 85500, Note_on_c, 1, 31, 127
1, 85529, Note_off_c, 1, 65, 0
1, 85560, Note_off_c, 1, 59, 0
1, 85560, Note_off_c, 1, 50, 0
1, 85560, Note_off_c, 1, 43, 0
1, 85560, Note_off_c, 1, 31, 0
1, 85560, Note_on_c, 1, 55, 127
1, 85560, Note_on_c, 1, 47, 127
1, 85560, Note_on_c, 1, 35, 127
1, 85620, Note_off_c, 1, 47, 0
1, 85620, Note_off_c, 1, 35, 0
1, 85620, Note_on_c, 1, 60, 127
1, 85620, Note_on_c, 1, 48, 127
1, 85620, Note_on_c, 1, 36, 127
1, 85650, Note_off_c, 1, 36, 0
1, 85680, Note_off_c, 1, 55, 0
1, 85680, Note_off_c, 1, 48, 0
1, 85680, Note_on_c, 1, 58, 127
1, 85680, Note_on_c, 1, 46, 127
1, 85710, Note_off_c, 1, 58, 0
1, 85710, Note_off_c, 1, 46, 0
1, 85710, Note_on_c, 1, 44, 127
1, 85740, Note_off_c, 1, 60, 0
1, 85740, Note_off_c, 1, 44, 0
1, 85800, Note_on_c, 1, 75, 127
1, 85800, Note_on_c, 1, 51, 127
1, 85800, Note_on_c, 1, 39, 127
1, 85830, Note_off_c, 1, 51, 0
1, 85830, Note_off_c, 1, 39, 0
1, 85830, Note_on_c, 1, 38, 127
1, 85860, Note_off_c, 1, 75, 0
1, 85860, Note_off_c, 1, 38, 0
1, 85860, Note_on_c, 1, 79, 127
1, 85860, Note_on_c, 1, 74, 127
1, 85860, Note_on_c, 1, 69, 127
1, 85875, Note_off_c, 1, 79, 0
1, 85875, Note_on_c, 1, 78, 127
1, 85890, Note_off_c, 1, 78, 0
1, 85920, Note_off_c, 1, 74, 0
1, 85950, Note_on_c, 1, 76, 127
1, 85965, Note_off_c, 1, 76, 0
1, 85980, Note_off_c, 1, 69, 0
1, 86040, Note_on_c, 1, 45, 127
1, 86040, Note_on_c, 1, 33, 127
1, 86070, Note_off_c, 1, 45, 0
1, 86070, Note_off_c, 1, 33, 0
1, 86400, Note_on_c, 1, 24, 127
1, 86820, Note_off_c, 1, 24, 0
1, 87810, Note_on_c, 1, 53, 127
1, 87810, Note_on_c, 1, 41, 127
1, 87810, Note_on_c, 1, 65, 127
1, 87839, Note_off_c, 1, 53, 0
1, 87839, Note_off_c, 1, 41, 0
1, 87839, Note_off_c, 1, 65, 0
1, 87840, Note_on_c, 1, 72, 127
1, 87840, Note_on_c, 1, 67, 127
1, 87840, Note_on_c, 1, 63, 127
1, 87840, Note_on_c, 1, 55, 127
1, 87840, Note_on_c, 1, 43, 127
1, 87870, Note_off_c, 1, 72, 0
1, 87870, Note_off_c, 1, 67, 0
1, 87870, Note_off_c, 1, 63, 0
1, 87870, Note_on_c, 1, 74, 127
1, 87870, Note_on_c, 1, 68, 127
1, 87870, Note_on_c, 1, 65, 127
1, 87870, Note_on_c, 1, 62, 127
1, 87899, Note_off_c, 1, 55, 0
1, 87899, Note_off_c, 1, 43, 0
1, 87899, Note_off_c, 1, 62, 0
1, 87900, Note_off_c, 1, 74, 0
1, 87900, Note_off_c, 1, 68, 0
1, 87900, Note_off_c, 1, 65, 0
1, 87930, Note_on_c, 1, 60, 127
1, 87959, Note_off_c, 1, 60, 0
1, 87960, Note_on_c, 1, 31, 127
1, 87990, Note_on_c, 1, 59, 127
1, 88019, Note_off_c, 1, 31, 0
1, 88019, Note_off_c, 1, 59, 0
1, 88020, Note_on_c, 1, 39, 127
1, 88020, Note_on_c, 1, 27, 127
1, 88020, Note_on_c, 1, 60, 127
1, 88049, Note_off_c, 1, 60, 0
1, 88050, Note_on_c, 1, 55, 127
1, 88079, Note_off_c, 1, 39, 0
1, 88079, Note_off_c, 1, 27, 0
1, 88079, Note_off_c, 1, 55, 0
1, 88080, Note_on_c, 1, 75, 127
1, 88080, Note_on_c, 1, 72, 127
1, 88080, Note_on_c, 1, 67, 127
1, 88080, Note_on_c, 1, 43, 127
1, 88080, Note_on_c, 1, 31, 127
1, 88080, Note_on_c, 1, 60, 127
1, 88109, Note_off_c, 1, 60, 0
1, 88110, Note_off_c, 1, 75, 0
1, 88110, Note_off_c, 1, 72, 0
1, 88110, Note_off_c, 1, 67, 0
1, 88110, Note_on_c, 1, 77, 127
1, 88110, Note_on_c, 1, 74, 127
1, 88110, Note_on_c, 1, 68, 127
1, 88110, Note_on_c, 1, 59, 127
1, 88139, Note_off_c, 1, 43, 0
1, 88139, Note_off_c, 1, 31, 0
1, 88139, Note_off_c, 1, 59, 0
1, 88140, Note_off_c, 1, 77, 0
1, 88140, Note_off_c, 1, 74, 0
1, 88140, Note_off_c, 1, 68, 0
1, 88140, Note_on_c, 1, 36, 127
1, 88140, Note_on_c, 1, 24, 127
1, 88140, Note_on_c, 1, 48, 127
1, 88170, Note_on_c, 1, 55, 127
1, 88199, Note_off_c, 1, 48, 0
1, 88199, Note_off_c, 1, 55, 0
1, 88200, Note_on_c, 1, 63, 127
1, 88229, Note_off_c, 1, 63, 0
1, 88230, Note_on_c, 1, 62, 127
1, 88230, Note_on_c, 1, 65, 127
1, 88259, Note_off_c, 1, 36, 0
1, 88259, Note_off_c, 1, 24, 0
1, 88259, Note_off_c, 1, 62, 0
1, 88259, Note_off_c, 1, 65, 0
1, 88260, Note_on_c, 1, 63, 127
1, 88260, Note_on_c, 1, 67, 127
1, 88289, Note_off_c, 1, 63, 0
1, 88290, Note_on_c, 1, 62, 127
1, 88319, Note_off_c, 1, 67, 0
1, 88319, Note_off_c, 1, 62, 0
1, 88320, Note_on_c, 1, 36, 127
1, 88320, Note_on_c, 1, 24, 127
1, 88320, Note_on_c, 1, 67, 127
1, 88320, Note_on_c, 1, 51, 127
1, 88320, Note_on_c, 1, 75, 127
1, 88320, Note_on_c, 1, 60, 127
1, 88349, Note_off_c, 1, 67, 0
1, 88350, Note_on_c, 1, 63, 127
1, 88379, Note_off_c, 1, 36, 0
1, 88379, Note_off_c, 1, 24, 0
1, 88379, Note_off_c, 1, 51, 0
1, 88379, Note_off_c, 1, 75, 0
1, 88379, Note_off_c, 1, 60, 0
1, 88379, Note_off_c, 1, 63, 0
1, 88380, Note_on_c, 1, 43, 127
1, 88380, Note_on_c, 1, 31, 127
1, 88380, Note_on_c, 1, 65, 127
1, 88380, Note_on_c, 1, 50, 127
1, 88380, Note_on_c, 1, 71, 127
1, 88380, Note_on_c, 1, 62, 127
1, 88409, Note_off_c, 1, 65, 0
1, 88439, Note_off_c, 1, 43, 0
1, 88439, Note_off_c, 1, 31, 0
1, 88439, Note_off_c, 1, 50, 0
1, 88439, Note_off_c, 1, 71, 0
1, 88439, Note_off_c, 1, 62, 0
1, 88440, Note_on_c, 1, 48, 127
1, 88440, Note_on_c, 1, 36, 127
1, 88440, Note_on_c, 1, 63, 127
1, 88440, Note_on_c, 1, 72, 127
1, 88470, Note_on_c, 1, 60, 127
1, 88499, Note_off_c, 1, 48, 0
1, 88499, Note_off_c, 1, 36, 0
1, 88499, Note_off_c, 1, 63, 0
1, 88499, Note_off_c, 1, 72, 0
1, 88499, Note_off_c, 1, 60, 0
1, 88500, Note_on_c, 1, 43, 127
1, 88500, Note_on_c, 1, 31, 127
1, 88500, Note_on_c, 1, 59, 127
1, 88500, Note_on_c, 1, 55, 127
1, 88500, Note_on_c, 1, 62, 127
1, 88529, Note_off_c, 1, 59, 0
1, 88529, Note_off_c, 1, 62, 0
1, 88530, Note_on_c, 1, 67, 127
1, 88530, Note_on_c, 1, 60, 127
1, 88559, Note_off_c, 1, 55, 0
1, 88559, Note_off_c, 1, 67, 0
1, 88559, Note_off_c, 1, 60, 0
1, 88560, Note_on_c, 1, 74, 127
1, 88560, Note_on_c, 1, 65, 127
1, 88589, Note_off_c, 1, 74, 0
1, 88589, Note_off_c, 1, 65, 0
1, 88590, Note_on_c, 1, 72, 127
1, 88590, Note_on_c, 1, 63, 127
1, 88619, Note_off_c, 1, 72, 0
1, 88619, Note_off_c, 1, 63, 0
1, 88620, Note_off_c, 1, 43, 0
1, 88620, Note_off_c, 1, 31, 0
1, 88680, Note_on_c, 1, 43, 127
1, 88680, Note_on_c, 1, 31, 127
1, 88680, Note_on_c, 1, 77, 127
1, 88680, Note_on_c, 1, 62, 127
1, 88680, Note_on_c, 1, 74, 127
1, 88680, Note_on_c, 1, 59, 127
1, 88709, Note_off_c, 1, 77, 0
1, 88710, Note_on_c, 1, 75, 127
1, 88739, Note_off_c, 1, 43, 0
1, 88739, Note_off_c, 1, 31, 0
1, 88739, Note_off_c, 1, 62, 0
1, 88739, Note_off_c, 1, 59, 0
1, 88739, Note_off_c, 1, 75, 0
1, 88740, Note_on_c, 1, 47, 127
1, 88740, Note_on_c, 1, 35, 127
1, 88740, Note_on_c, 1, 55, 127
1, 88769, Note_off_c, 1, 74, 0
1, 88770, Note_on_c, 1, 72, 127
1, 88799, Note_off_c, 1, 47, 0
1, 88799, Note_off_c, 1, 35, 0
1, 88799, Note_off_c, 1, 55, 0
1, 88799, Note_off_c, 1, 72, 0
1, 88800, Note_on_c, 1, 50, 127
1, 88800, Note_on_c, 1, 38, 127
1, 88800, Note_on_c, 1, 79, 127
1, 88800, Note_on_c, 1, 55, 127
1, 88800, Note_on_c, 1, 71, 127
1, 88829, Note_off_c, 1, 79, 0
1, 88829, Note_off_c, 1, 71, 0
1, 88830, Note_on_c, 1, 75, 127
1, 88830, Note_on_c, 1, 72, 127
1, 88859, Note_off_c, 1, 50, 0
1, 88859, Note_off_c, 1, 38, 0
1, 88859, Note_off_c, 1, 55, 0
1, 88859, Note_off_c, 1, 75, 0
1, 88859, Note_off_c, 1, 72, 0
1, 88860, Note_on_c, 1, 55, 127
1, 88860, Note_on_c, 1, 43, 127
1, 88860, Note_on_c, 1, 77, 127
1, 88860, Note_on_c, 1, 50, 127
1, 88860, Note_on_c, 1, 74, 127
1, 88860, Note_on_c, 1, 47, 127
1, 88889, Note_off_c, 1, 74, 0
1, 88890, Note_on_c, 1, 72, 127
1, 88919, Note_off_c, 1, 77, 0
1, 88919, Note_off_c, 1, 50, 0
1, 88919, Note_off_c, 1, 47, 0
1, 88919, Note_off_c, 1, 72, 0
1, 88920, Note_on_c, 1, 67, 127
1, 88920, Note_on_c, 1, 71, 127
1, 88949, Note_off_c, 1, 71, 0
1, 88950, Note_on_c, 1, 69, 127
1, 88979, Note_off_c, 1, 55, 0
1, 88979, Note_off_c, 1, 43, 0
1, 88979, Note_off_c, 1, 69, 0
1, 88980, Note_on_c, 1, 59, 127
1, 89009, Note_off_c, 1, 67, 0
1, 89010, Note_on_c, 1, 65, 127
1, 89039, Note_off_c, 1, 59, 0
1, 89039, Note_off_c, 1, 65, 0
1, 89040, Note_on_c, 1, 50, 127
1, 89040, Note_on_c, 1, 38, 127
1, 89040, Note_on_c, 1, 71, 127
1, 89040, Note_on_c, 1, 62, 127
1, 89040, Note_on_c, 1, 68, 127
1, 89069, Note_off_c, 1, 71, 0
1, 89070, Note_on_c, 1, 72, 127
1, 89099, Note_off_c, 1, 50, 0
1, 89099, Note_off_c, 1, 38, 0
1, 89099, Note_off_c, 1, 62, 0
1, 89099, Note_off_c, 1, 72, 0
1, 89100, Note_on_c, 1, 47, 127
1, 89100, Note_on_c, 1, 35, 127
1, 89100, Note_on_c, 1, 74, 127
1, 89100, Note_on_c, 1, 59, 127
1, 89129, Note_off_c, 1, 74, 0
1, 89130, Note_on_c, 1, 75, 127
1, 89159, Note_off_c, 1, 68, 0
1, 89159, Note_off_c, 1, 47, 0
1, 89159, Note_off_c, 1, 35, 0
1, 89159, Note_off_c, 1, 59, 0
1, 89159, Note_off_c, 1, 75, 0
1, 89160, Note_on_c, 1, 43, 127
1, 89160, Note_on_c, 1, 31, 127
1, 89160, Note_on_c, 1, 77, 127
1, 89160, Note_on_c, 1, 55, 127
1, 89160, Note_on_c, 1, 67, 127
1, 89189, Note_off_c, 1, 77, 0
1, 89190, Note_on_c, 1, 74, 127
1, 89219, Note_off_c, 1, 43, 0
1, 89219, Note_off_c, 1, 31, 0
1, 89219, Note_off_c, 1, 55, 0
1, 89219, Note_off_c, 1, 74, 0
1, 89220, Note_on_c, 1, 48, 127
1, 89220, Note_on_c, 1, 36, 127
1, 89220, Note_on_c, 1, 75, 127
1, 89220, Note_on_c, 1, 60, 127
1, 89249, Note_off_c, 1, 67, 0
1, 89249, Note_off_c, 1, 75, 0
1, 89250, Note_on_c, 1, 80, 127
1, 89250, Note_on_c, 1, 65, 127
1, 89279, Note_off_c, 1, 60, 0
1, 89279, Note_off_c, 1, 80, 0
1, 89279, Note_off_c, 1, 65, 0
1, 89280, Note_on_c, 1, 63, 127
1, 89280, Note_on_c, 1, 72, 127
1, 89280, Note_on_c, 1, 79, 127
1, 89309, Note_off_c, 1, 79, 0
1, 89310, Note_off_c, 1, 63, 0
1, 89310, Note_off_c, 1, 72, 0
1, 89310, Note_on_c, 1, 68, 127
1, 89310, Note_on_c, 1, 71, 127
1, 89310, Note_on_c, 1, 62, 127
1, 89339, Note_off_c, 1, 48, 0
1, 89339, Note_off_c, 1, 36, 0
1, 89339, Note_off_c, 1, 62, 0
1, 89340, Note_off_c, 1, 68, 0
1, 89340, Note_off_c, 1, 71, 0
1, 89430, Note_on_c, 1, 59, 127
1, 89459, Note_off_c, 1, 59, 0
1, 89460, Note_on_c, 1, 39, 127
1, 89460, Note_on_c, 1, 27, 127
1, 89460, Note_on_c, 1, 75, 127
1, 89460, Note_on_c, 1, 48, 127
1, 89460, Note_on_c, 1, 60, 127
1, 89460, Note_on_c, 1, 51, 127
1, 89489, Note_off_c, 1, 75, 0
1, 89489, Note_off_c, 1, 60, 0
1, 89490, Note_on_c, 1, 79, 127
1, 89490, Note_on_c, 1, 55, 127
1, 89519, Note_off_c, 1, 39, 0
1, 89519, Note_off_c, 1, 27, 0
1, 89519, Note_off_c, 1, 48, 0
1, 89519, Note_off_c, 1, 51, 0
1, 89519, Note_off_c, 1, 79, 0
1, 89519, Note_off_c, 1, 55, 0
1, 89520, Note_on_c, 1, 72, 127
1, 89520, Note_on_c, 1, 67, 127
1, 89520, Note_on_c, 1, 63, 127
1, 89520, Note_on_c, 1, 43, 127
1, 89520, Note_on_c, 1, 31, 127
1, 89520, Note_on_c, 1, 75, 127
1, 89520, Note_on_c, 1, 55, 127
1, 89520, Note_on_c, 1, 60, 127
1, 89549, Note_off_c, 1, 75, 0
1, 89549, Note_off_c, 1, 60, 0
1, 89550, Note_off_c, 1, 72, 0
1, 89550, Note_off_c, 1, 67, 0
1, 89550, Note_off_c, 1, 63, 0
1, 89550, Note_on_c, 1, 74, 127
1, 89550, Note_on_c, 1, 68, 127
1, 89550, Note_on_c, 1, 65, 127
1, 89550, Note_on_c, 1, 59, 127
1, 89579, Note_off_c, 1, 43, 0
1, 89579, Note_off_c, 1, 31, 0
1, 89579, Note_off_c, 1, 55, 0
1, 89579, Note_off_c, 1, 59, 0
1, 89580, Note_off_c, 1, 74, 0
1, 89580, Note_off_c, 1, 68, 0
1, 89580, Note_off_c, 1, 65, 0
1, 89580, Note_on_c, 1, 36, 127
1, 89580, Note_on_c, 1, 24, 127
1, 89580, Note_on_c, 1, 48, 127
1, 89610, Note_on_c, 1, 79, 127
1, 89639, Note_off_c, 1, 48, 0
1, 89639, Note_off_c, 1, 79, 0
1, 89670, Note_on_c, 1, 71, 127
1, 89670, Note_on_c, 1, 62, 127
1, 89670, Note_on_c, 1, 53, 127
1, 89699, Note_off_c, 1, 36, 0
1, 89699, Note_off_c, 1, 24, 0
1, 89699, Note_off_c, 1, 71, 0
1, 89699, Note_off_c, 1, 62, 0
1, 89699, Note_off_c, 1, 53, 0
1, 89700, Note_on_c, 1, 79, 127
1, 89700, Note_on_c, 1, 72, 127
1, 89700, Note_on_c, 1, 64, 127
1, 89700, Note_on_c, 1, 55, 127
1, 89730, Note_on_c, 1, 60, 127
1, 89759, Note_off_c, 1, 55, 0
1, 89759, Note_off_c, 1, 60, 0
1, 89760, Note_off_c, 1, 79, 0
1, 89760, Note_off_c, 1, 72, 0
1, 89760, Note_off_c, 1, 64, 0
1, 89760, Note_on_c, 1, 48, 127
1, 89760, Note_on_c, 1, 36, 127
1, 89760, Note_on_c, 1, 70, 127
1, 89760, Note_on_c, 1, 67, 127
1, 89760, Note_on_c, 1, 52, 127
1, 89789, Note_off_c, 1, 70, 0
1, 89789, Note_off_c, 1, 67, 0
1, 89790, Note_on_c, 1, 68, 127
1, 89790, Note_on_c, 1, 65, 127
1, 89819, Note_off_c, 1, 48, 0
1, 89819, Note_off_c, 1, 36, 0
1, 89819, Note_off_c, 1, 52, 0
1, 89819, Note_off_c, 1, 68, 0
1, 89819, Note_off_c, 1, 65, 0
1, 89820, Note_on_c, 1, 52, 127
1, 89820, Note_on_c, 1, 40, 127
1, 89820, Note_on_c, 1, 70, 127
1, 89820, Note_on_c, 1, 55, 127
1, 89820, Note_on_c, 1, 67, 127
1, 89820, Note_on_c, 1, 48, 127
1, 89849, Note_off_c, 1, 70, 0
1, 89849, Note_off_c, 1, 67, 0
1, 89850, Note_on_c, 1, 79, 127
1, 89850, Note_on_c, 1, 60, 127
1, 89879, Note_off_c, 1, 52, 0
1, 89879, Note_off_c, 1, 40, 0
1, 89879, Note_off_c, 1, 55, 0
1, 89879, Note_off_c, 1, 48, 0
1, 89879, Note_off_c, 1, 79, 0
1, 89879, Note_off_c, 1, 60, 0
1, 89880, Note_on_c, 1, 48, 127
1, 89880, Note_on_c, 1, 36, 127
1, 89880, Note_on_c, 1, 68, 127
1, 89880, Note_on_c, 1, 60, 127
1, 89880, Note_on_c, 1, 65, 127
1, 89909, Note_off_c, 1, 68, 0
1, 89909, Note_off_c, 1, 65, 0
1, 89910, Note_on_c, 1, 67, 127
1, 89939, Note_off_c, 1, 48, 0
1, 89939, Note_off_c, 1, 36, 0
1, 89939, Note_off_c, 1, 60, 0
1, 89939, Note_off_c, 1, 67, 0
1, 89940, Note_on_c, 1, 77, 127
1, 89940, Note_on_c, 1, 68, 127
1, 89940, Note_on_c, 1, 60, 127
1, 89940, Note_on_c, 1, 53, 127
1, 89940, Note_on_c, 1, 41, 127
1, 89940, Note_on_c, 1, 65, 127
1, 89940, Note_on_c, 1, 56, 127
1, 89969, Note_off_c, 1, 65, 0
1, 89970, Note_on_c, 1, 72, 127
1, 89999, Note_off_c, 1, 56, 0
1, 89999, Note_off_c, 1, 72, 0
1, 90000, Note_off_c, 1, 77, 0
1, 90029, Note_off_c, 1, 68, 0
1, 90029, Note_off_c, 1, 60, 0
1, 90030, Note_on_c, 1, 67, 127
1, 90030, Note_on_c, 1, 58, 127
1, 90030, Note_on_c, 1, 64, 127
1, 90059, Note_off_c, 1, 53, 0
1, 90059, Note_off_c, 1, 41, 0
1, 90059, Note_off_c, 1, 67, 0
1, 90059, Note_off_c, 1, 58, 0
1, 90059, Note_off_c, 1, 64, 0
1, 90060, Note_on_c, 1, 75, 127
1, 90060, Note_on_c, 1, 72, 127
1, 90060, Note_on_c, 1, 69, 127
1, 90060, Note_on_c, 1, 60, 127
1, 90060, Note_on_c, 1, 65, 127
1, 90089, Note_off_c, 1, 65, 0
1, 90119, Note_off_c, 1, 60, 0
1, 90120, Note_off_c, 1, 75, 0
1, 90120, Note_off_c, 1, 69, 0
1, 90120, Note_on_c, 1, 53, 127
1, 90120, Note_on_c, 1, 41, 127
1, 90120, Note_on_c, 1, 57, 127
1, 90120, Note_on_c, 1, 63, 127
1, 90149, Note_off_c, 1, 72, 0
1, 90149, Note_off_c, 1, 63, 0
1, 90150, Note_on_c, 1, 70, 127
1, 90150, Note_on_c, 1, 62, 127
1, 90179, Note_off_c, 1, 53, 0
1, 90179, Note_off_c, 1, 41, 0
1, 90179, Note_off_c, 1, 57, 0
1, 90179, Note_off_c, 1, 70, 0
1, 90179, Note_off_c, 1, 62, 0
1, 90180, Note_on_c, 1, 45, 127
1, 90180, Note_on_c, 1, 33, 127
1, 90180, Note_on_c, 1, 72, 127
1, 90180, Note_on_c, 1, 53, 127
1, 90180, Note_on_c, 1, 63, 127
1, 90180, Note_on_c, 1, 48, 127
1, 90209, Note_off_c, 1, 72, 0
1, 90209, Note_off_c, 1, 63, 0
1, 90210, Note_on_c, 1, 65, 127
1, 90239, Note_off_c, 1, 45, 0
1, 90239, Note_off_c, 1, 33, 0
1, 90239, Note_off_c, 1, 53, 0
1, 90239, Note_off_c, 1, 48, 0
1, 90239, Note_off_c, 1, 65, 0
1, 90240, Note_on_c, 1, 41, 127
1, 90240, Note_on_c, 1, 29, 127
1, 90240, Note_on_c, 1, 70, 127
1, 90240, Note_on_c, 1, 62, 127
1, 90240, Note_on_c, 1, 53, 127
1, 90269, Note_off_c, 1, 70, 0
1, 90269, Note_off_c, 1, 62, 0
1, 90270, Note_on_c, 1, 72, 127
1, 90270, Note_on_c, 1, 60, 127
1, 90299, Note_off_c, 1, 41, 0
1, 90299, Note_off_c, 1, 29, 0
1, 90299, Note_off_c, 1, 53, 0
1, 90299, Note_off_c, 1, 72, 0
1, 90299, Note_off_c, 1, 60, 0
1, 90300, Note_on_c, 1, 74, 127
1, 90300, Note_on_c, 1, 70, 127
1, 90300, Note_on_c, 1, 65, 127
1, 90300, Note_on_c, 1, 46, 127
1, 90300, Note_on_c, 1, 34, 127
1, 90300, Note_on_c, 1, 58, 127
1, 90300, Note_on_c, 1, 50, 127
1, 90329, Note_off_c, 1, 58, 0
1, 90330, Note_on_c, 1, 77, 127
1, 90330, Note_on_c, 1, 53, 127
1, 90359, Note_off_c, 1, 50, 0
1, 90359, Note_off_c, 1, 77, 0
1, 90359, Note_off_c, 1, 53, 0
1, 90360, Note_off_c, 1, 74, 0
1, 90360, Note_off_c, 1, 65, 0
1, 90360, Note_on_c, 1, 62, 127
1, 90389, Note_off_c, 1, 70, 0
1, 90389, Note_off_c, 1, 62, 0
1, 90390, Note_on_c, 1, 69, 127
1, 90390, Note_on_c, 1, 60, 127
1, 90390, Note_on_c, 1, 51, 127
1, 90419, Note_off_c, 1, 46, 0
1, 90419, Note_off_c, 1, 34, 0
1, 90419, Note_off_c, 1, 69, 0
1, 90419, Note_off_c, 1, 60, 0
1, 90419, Note_off_c, 1, 51, 0
1, 90420, Note_on_c, 1, 77, 127
1, 90420, Note_on_c, 1, 68, 127
1, 90420, Note_on_c, 1, 62, 127
1, 90420, Note_on_c, 1, 70, 127
1, 90420, Note_on_c, 1, 53, 127
1, 90449, Note_off_c, 1, 70, 0
1, 90450, Note_on_c, 1, 58, 127
1, 90479, Note_off_c, 1, 53, 0
1, 90479, Note_off_c, 1, 58, 0
1, 90480, Note_off_c, 1, 77, 0
1, 90480, Note_off_c, 1, 62, 0
1, 90480, Note_on_c, 1, 46, 127
1, 90480, Note_on_c, 1, 34, 127
1, 90480, Note_on_c, 1, 65, 127
1, 90480, Note_on_c, 1, 50, 127
1, 90509, Note_off_c, 1, 68, 0
1, 90509, Note_off_c, 1, 65, 0
1, 90510, Note_on_c, 1, 67, 127
1, 90510, Note_on_c, 1, 63, 127
1, 90539, Note_off_c, 1, 46, 0
1, 90539, Note_off_c, 1, 34, 0
1, 90539, Note_off_c, 1, 50, 0
1, 90539, Note_off_c, 1, 67, 0
1, 90539, Note_off_c, 1, 63, 0
1, 90540, Note_on_c, 1, 50, 127
1, 90540, Note_on_c, 1, 38, 127
1, 90540, Note_on_c, 1, 68, 127
1, 90540, Note_on_c, 1, 53, 127
1, 90540, Note_on_c, 1, 65, 127
1, 90540, Note_on_c, 1, 46, 127
1, 90569, Note_off_c, 1, 68, 0
1, 90569, Note_off_c, 1, 65, 0
1, 90570, Note_on_c, 1, 77, 127
1, 90570, Note_on_c, 1, 58, 127
1, 90599, Note_off_c, 1, 50, 0
1, 90599, Note_off_c, 1, 38, 0
1, 90599, Note_off_c, 1, 53, 0
1, 90599, Note_off_c, 1, 46, 0
1, 90599, Note_off_c, 1, 77, 0
1, 90599, Note_off_c, 1, 58, 0
1, 90600, Note_on_c, 1, 46, 127
1, 90600, Note_on_c, 1, 34, 127
1, 90600, Note_on_c, 1, 67, 127
1, 90600, Note_on_c, 1, 58, 127
1, 90600, Note_on_c, 1, 63, 127
1, 90629, Note_off_c, 1, 67, 0
1, 90629, Note_off_c, 1, 63, 0
1, 90630, Note_on_c, 1, 65, 127
1, 90659, Note_off_c, 1, 46, 0
1, 90659, Note_off_c, 1, 34, 0
1, 90659, Note_off_c, 1, 58, 0
1, 90659, Note_off_c, 1, 65, 0
1, 90660, Note_on_c, 1, 75, 127
1, 90660, Note_on_c, 1, 67, 127
1, 90660, Note_on_c, 1, 58, 127
1, 90660, Note_on_c, 1, 51, 127
1, 90660, Note_on_c, 1, 39, 127
1, 90660, Note_on_c, 1, 63, 127
1, 90660, Note_on_c, 1, 55, 127
1, 90689, Note_off_c, 1, 63, 0
1, 90690, Note_on_c, 1, 70, 127
1, 90719, Note_off_c, 1, 55, 0
1, 90719, Note_off_c, 1, 70, 0
1, 90720, Note_off_c, 1, 75, 0
1, 90749, Note_off_c, 1, 67, 0
1, 90749, Note_off_c, 1, 58, 0
1, 90750, Note_on_c, 1, 65, 127
1, 90750, Note_on_c, 1, 56, 127
1, 90750, Note_on_c, 1, 62, 127
1, 90779, Note_off_c, 1, 51, 0
1, 90779, Note_off_c, 1, 39, 0
1, 90779, Note_off_c, 1, 65, 0
1, 90779, Note_off_c, 1, 56, 0
1, 90779, Note_off_c, 1, 62, 0
1, 90780, Note_on_c, 1, 73, 127
1, 90780, Note_on_c, 1, 70, 127
1, 90780, Note_on_c, 1, 67, 127
1, 90780, Note_on_c, 1, 58, 127
1, 90780, Note_on_c, 1, 63, 127
1, 90809, Note_off_c, 1, 63, 0
1, 90839, Note_off_c, 1, 58, 0
1, 90840, Note_off_c, 1, 73, 0
1, 90840, Note_off_c, 1, 67, 0
1, 90840, Note_on_c, 1, 51, 127
1, 90840, Note_on_c, 1, 39, 127
1, 90840, Note_on_c, 1, 55, 127
1, 90840, Note_on_c, 1, 61, 127
1, 90869, Note_off_c, 1, 70, 0
1, 90869, Note_off_c, 1, 61, 0
1, 90870, Note_on_c, 1, 68, 127
1, 90870, Note_on_c, 1, 60, 127
1, 90899, Note_off_c, 1, 51, 0
1, 90899, Note_off_c, 1, 39, 0
1, 90899, Note_off_c, 1, 55, 0
1, 90899, Note_off_c, 1, 68, 0
1, 90899, Note_off_c, 1, 60, 0
1, 90900, Note_on_c, 1, 43, 127
1, 90900, Note_on_c, 1, 31, 127
1, 90900, Note_on_c, 1, 70, 127
1, 90900, Note_on_c, 1, 51, 127
1, 90900, Note_on_c, 1, 61, 127
1, 90900, Note_on_c, 1, 46, 127
1, 90929, Note_off_c, 1, 70, 0
1, 90929, Note_off_c, 1, 61, 0
1, 90930, Note_on_c, 1, 63, 127
1, 90959, Note_off_c, 1, 43, 0
1, 90959, Note_off_c, 1, 31, 0
1, 90959, Note_off_c, 1, 51, 0
1, 90959, Note_off_c, 1, 46, 0
1, 90959, Note_off_c, 1, 63, 0
1, 90960, Note_on_c, 1, 39, 127
1, 90960, Note_on_c, 1, 27, 127
1, 90960, Note_on_c, 1, 68, 127
1, 90960, Note_on_c, 1, 60, 127
1, 90960, Note_on_c, 1, 51, 127
1, 90989, Note_off_c, 1, 68, 0
1, 90989, Note_off_c, 1, 60, 0
1, 90990, Note_on_c, 1, 70, 127
1, 90990, Note_on_c, 1, 58, 127
1, 91019, Note_off_c, 1, 39, 0
1, 91019, Note_off_c, 1, 27, 0
1, 91019, Note_off_c, 1, 51, 0
1, 91019, Note_off_c, 1, 70, 0
1, 91019, Note_off_c, 1, 58, 0
1, 91020, Note_on_c, 1, 72, 127
1, 91020, Note_on_c, 1, 68, 127
1, 91020, Note_on_c, 1, 63, 127
1, 91020, Note_on_c, 1, 44, 127
1, 91020, Note_on_c, 1, 32, 127
1, 91020, Note_on_c, 1, 56, 127
1, 91049, Note_off_c, 1, 56, 0
1, 91050, Note_on_c, 1, 60, 127
1, 91050, Note_on_c, 1, 43, 127
1, 91079, Note_off_c, 1, 60, 0
1, 91079, Note_off_c, 1, 43, 0
1, 91080, Note_off_c, 1, 72, 0
1, 91080, Note_on_c, 1, 48, 127
1, 91109, Note_off_c, 1, 68, 0
1, 91109, Note_off_c, 1, 63, 0
1, 91109, Note_off_c, 1, 48, 0
1, 91110, Note_on_c, 1, 51, 127
1, 91139, Note_off_c, 1, 44, 0
1, 91139, Note_off_c, 1, 32, 0
1, 91139, Note_off_c, 1, 51, 0
1, 91140, Note_on_c, 1, 77, 127
1, 91140, Note_on_c, 1, 72, 127
1, 91140, Note_on_c, 1, 68, 127
1, 91140, Note_on_c, 1, 65, 127
1, 91140, Note_on_c, 1, 56, 127
1, 91170, Note_on_c, 1, 48, 127
1, 91199, Note_off_c, 1, 65, 0
1, 91199, Note_off_c, 1, 56, 0
1, 91199, Note_off_c, 1, 48, 0
1, 91200, Note_off_c, 1, 72, 0
1, 91200, Note_off_c, 1, 68, 0
1, 91200, Note_on_c, 1, 36, 127
1, 91200, Note_on_c, 1, 50, 127
1, 91200, Note_on_c, 1, 70, 127
1, 91229, Note_off_c, 1, 50, 0
1, 91229, Note_off_c, 1, 70, 0
1, 91230, Note_on_c, 1, 51, 127
1, 91230, Note_on_c, 1, 67, 127
1, 91259, Note_off_c, 1, 36, 0
1, 91259, Note_off_c, 1, 51, 0
1, 91259, Note_off_c, 1, 67, 0
1, 91260, Note_on_c, 1, 41, 127
1, 91260, Note_on_c, 1, 29, 127
1, 91260, Note_on_c, 1, 53, 127
1, 91289, Note_off_c, 1, 77, 0
1, 91290, Note_on_c, 1, 74, 127
1, 91319, Note_off_c, 1, 41, 0
1, 91319, Note_off_c, 1, 29, 0
1, 91319, Note_off_c, 1, 53, 0
1, 91319, Note_off_c, 1, 74, 0
1, 91320, Note_on_c, 1, 44, 127
1, 91320, Note_on_c, 1, 32, 127
1, 91320, Note_on_c, 1, 75, 127
1, 91320, Note_on_c, 1, 41, 127
1, 91320, Note_on_c, 1, 72, 127
1, 91320, Note_on_c, 1, 55, 127
1, 91349, Note_off_c, 1, 75, 0
1, 91349, Note_off_c, 1, 55, 0
1, 91350, Note_on_c, 1, 56, 127
1, 91379, Note_off_c, 1, 44, 0
1, 91379, Note_off_c, 1, 32, 0
1, 91379, Note_off_c, 1, 41, 0
1, 91379, Note_off_c, 1, 56, 0
1, 91380, Note_on_c, 1, 74, 127
1, 91380, Note_on_c, 1, 70, 127
1, 91380, Note_on_c, 1, 65, 127
1, 91380, Note_on_c, 1, 46, 127
1, 91380, Note_on_c, 1, 34, 127
1, 91380, Note_on_c, 1, 58, 127
1, 91409, Note_off_c, 1, 72, 0
1, 91409, Note_off_c, 1, 58, 0
1, 91410, Note_on_c, 1, 62, 127
1, 91439, Note_off_c, 1, 62, 0
1, 91440, Note_off_c, 1, 74, 0
1, 91440, Note_on_c, 1, 50, 127
1, 91469, Note_off_c, 1, 70, 0
1, 91469, Note_off_c, 1, 65, 0
1, 91469, Note_off_c, 1, 50, 0
1, 91470, Note_on_c, 1, 53, 127
1, 91499, Note_off_c, 1, 46, 0
1, 91499, Note_off_c, 1, 34, 0
1, 91499, Note_off_c, 1, 53, 0
1, 91500, Note_on_c, 1, 79, 127
1, 91500, Note_on_c, 1, 74, 127
1, 91500, Note_on_c, 1, 70, 127
1, 91500, Note_on_c, 1, 67, 127
1, 91500, Note_on_c, 1, 58, 127
1, 91530, Note_on_c, 1, 50, 127
1, 91559, Note_off_c, 1, 67, 0
1, 91559, Note_off_c, 1, 58, 0
1, 91559, Note_off_c, 1, 50, 0
1, 91560, Note_off_c, 1, 74, 0
1, 91560, Note_off_c, 1, 70, 0
1, 91560, Note_on_c, 1, 38, 127
1, 91560, Note_on_c, 1, 51, 127
1, 91560, Note_on_c, 1, 72, 127
1, 91589, Note_off_c, 1, 51, 0
1, 91589, Note_off_c, 1, 72, 0
1, 91590, Note_on_c, 1, 53, 127
1, 91590, Note_on_c, 1, 68, 127
1, 91619, Note_off_c, 1, 38, 0
1, 91619, Note_off_c, 1, 53, 0
1, 91619, Note_off_c, 1, 68, 0
1, 91620, Note_on_c, 1, 43, 127
1, 91620, Note_on_c, 1, 31, 127
1, 91620, Note_on_c, 1, 55, 127
1, 91649, Note_off_c, 1, 79, 0
1, 91650, Note_on_c, 1, 75, 127
1, 91679, Note_off_c, 1, 43, 0
1, 91679, Note_off_c, 1, 31, 0
1, 91679, Note_off_c, 1, 55, 0
1, 91679, Note_off_c, 1, 75, 0
1, 91680, Note_on_c, 1, 46, 127
1, 91680, Note_on_c, 1, 34, 127
1, 91680, Note_on_c, 1, 77, 127
1, 91680, Note_on_c, 1, 43, 127
1, 91680, Note_on_c, 1, 74, 127
1, 91680, Note_on_c, 1, 56, 127
1, 91709, Note_off_c, 1, 77, 0
1, 91709, Note_off_c, 1, 56, 0
1, 91710, Note_on_c, 1, 58, 127
1, 91739, Note_off_c, 1, 46, 0
1, 91739, Note_off_c, 1, 34, 0
1, 91739, Note_off_c, 1, 43, 0
1, 91739, Note_off_c, 1, 58, 0
1, 91740, Note_on_c, 1, 75, 127
1, 91740, Note_on_c, 1, 72, 127
1, 91740, Note_on_c, 1, 67, 127
1, 91740, Note_on_c, 1, 48, 127
1, 91740, Note_on_c, 1, 36, 127
1, 91740, Note_on_c, 1, 60, 127
1, 91769, Note_off_c, 1, 74, 0
1, 91769, Note_off_c, 1, 60, 0
1, 91770, Note_on_c, 1, 63, 127
1, 91799, Note_off_c, 1, 63, 0
1, 91800, Note_off_c, 1, 75, 0
1, 91800, Note_on_c, 1, 51, 127
1, 91829, Note_off_c, 1, 72, 0
1, 91829, Note_off_c, 1, 67, 0
1, 91829, Note_off_c, 1, 51, 0
1, 91859, Note_off_c, 1, 48, 0
1, 91859, Note_off_c, 1, 36, 0
1, 91860, Note_on_c, 1, 80, 127
1, 91860, Note_on_c, 1, 75, 127
1, 91860, Note_on_c, 1, 72, 127
1, 91860, Note_on_c, 1, 68, 127
1, 91860, Note_on_c, 1, 60, 127
1, 91890, Note_on_c, 1, 51, 127
1, 91919, Note_off_c, 1, 68, 0
1, 91919, Note_off_c, 1, 60, 0
1, 91919, Note_off_c, 1, 51, 0
1, 91920, Note_off_c, 1, 75, 0
1, 91920, Note_off_c, 1, 72, 0
1, 91920, Note_on_c, 1, 39, 127
1, 91920, Note_on_c, 1, 53, 127
1, 91920, Note_on_c, 1, 73, 127
1, 91949, Note_off_c, 1, 53, 0
1, 91949, Note_off_c, 1, 73, 0
1, 91950, Note_on_c, 1, 55, 127
1, 91950, Note_on_c, 1, 70, 127
1, 91979, Note_off_c, 1, 39, 0
1, 91979, Note_off_c, 1, 55, 0
1, 91979, Note_off_c, 1, 70, 0
1, 91980, Note_on_c, 1, 44, 127
1, 91980, Note_on_c, 1, 32, 127
1, 91980, Note_on_c, 1, 56, 127
1, 92009, Note_off_c, 1, 80, 0
1, 92010, Note_on_c, 1, 77, 127
1, 92039, Note_off_c, 1, 44, 0
1, 92039, Note_off_c, 1, 32, 0
1, 92039, Note_off_c, 1, 56, 0
1, 92039, Note_off_c, 1, 77, 0
1, 92040, Note_on_c, 1, 48, 127
1, 92040, Note_on_c, 1, 36, 127
1, 92040, Note_on_c, 1, 79, 127
1, 92040, Note_on_c, 1, 44, 127
1, 92040, Note_on_c, 1, 75, 127
1, 92040, Note_on_c, 1, 58, 127
1, 92069, Note_off_c, 1, 79, 0
1, 92069, Note_off_c, 1, 58, 0
1, 92070, Note_on_c, 1, 60, 127
1, 92099, Note_off_c, 1, 48, 0
1, 92099, Note_off_c, 1, 36, 0
1, 92099, Note_off_c, 1, 44, 0
1, 92099, Note_off_c, 1, 60, 0
1, 92100, Note_on_c, 1, 77, 127
1, 92100, Note_on_c, 1, 70, 127
1, 92100, Note_on_c, 1, 65, 127
1, 92100, Note_on_c, 1, 50, 127
1, 92100, Note_on_c, 1, 38, 127
1, 92100, Note_on_c, 1, 62, 127
1, 92129, Note_off_c, 1, 75, 0
1, 92129, Note_off_c, 1, 62, 0
1, 92160, Note_off_c, 1, 77, 0
1, 92160, Note_off_c, 1, 65, 0
1, 92160, Note_on_c, 1, 74, 127
1, 92160, Note_on_c, 1, 53, 127
1, 92189, Note_off_c, 1, 70, 0
1, 92189, Note_off_c, 1, 74, 0
1, 92189, Note_off_c, 1, 53, 0
1, 92219, Note_off_c, 1, 50, 0
1, 92219, Note_off_c, 1, 38, 0
1, 92220, Note_on_c, 1, 82, 127
1, 92220, Note_on_c, 1, 74, 127
1, 92220, Note_on_c, 1, 65, 127
1, 92220, Note_on_c, 1, 70, 127
1, 92220, Note_on_c, 1, 77, 127
1, 92220, Note_on_c, 1, 62, 127
1, 92249, Note_off_c, 1, 77, 0
1, 92250, Note_on_c, 1, 53, 127
1, 92279, Note_off_c, 1, 70, 0
1, 92279, Note_off_c, 1, 62, 0
1, 92279, Note_off_c, 1, 53, 0
1, 92280, Note_off_c, 1, 74, 0
1, 92280, Note_off_c, 1, 65, 0
1, 92280, Note_on_c, 1, 41, 127
1, 92280, Note_on_c, 1, 55, 127
1, 92280, Note_on_c, 1, 75, 127
1, 92309, Note_off_c, 1, 55, 0
1, 92309, Note_off_c, 1, 75, 0
1, 92310, Note_on_c, 1, 56, 127
1, 92310, Note_on_c, 1, 72, 127
1, 92339, Note_off_c, 1, 41, 0
1, 92339, Note_off_c, 1, 56, 0
1, 92339, Note_off_c, 1, 72, 0
1, 92340, Note_on_c, 1, 58, 127
1, 92340, Note_on_c, 1, 46, 127
1, 92369, Note_off_c, 1, 82, 0
1, 92370, Note_on_c, 1, 79, 127
1, 92399, Note_off_c, 1, 58, 0
1, 92399, Note_off_c, 1, 46, 0
1, 92399, Note_off_c, 1, 79, 0
1, 92400, Note_on_c, 1, 75, 127
1, 92400, Note_on_c, 1, 70, 127
1, 92400, Note_on_c, 1, 65, 127
1, 92400, Note_on_c, 1, 46, 127
1, 92400, Note_on_c, 1, 34, 127
1, 92400, Note_on_c, 1, 80, 127
1, 92400, Note_on_c, 1, 56, 127
1, 92429, Note_off_c, 1, 80, 0
1, 92429, Note_off_c, 1, 56, 0
1, 92430, Note_off_c, 1, 75, 0
1, 92430, Note_off_c, 1, 70, 0
1, 92430, Note_on_c, 1, 74, 127
1, 92430, Note_on_c, 1, 68, 127
1, 92430, Note_on_c, 1, 77, 127
1, 92430, Note_on_c, 1, 58, 127
1, 92459, Note_off_c, 1, 46, 0
1, 92459, Note_off_c, 1, 34, 0
1, 92459, Note_off_c, 1, 77, 0
1, 92459, Note_off_c, 1, 58, 0
1, 92460, Note_off_c, 1, 65, 0
1, 92460, Note_off_c, 1, 74, 0
1, 92460, Note_off_c, 1, 68, 0
1, 92460, Note_on_c, 1, 67, 127
1, 92460, Note_on_c, 1, 63, 127
1, 92460, Note_on_c, 1, 51, 127
1, 92460, Note_on_c, 1, 39, 127
1, 92460, Note_on_c, 1, 79, 127
1, 92489, Note_off_c, 1, 79, 0
1, 92519, Note_off_c, 1, 51, 0
1, 92519, Note_off_c, 1, 39, 0
1, 92520, Note_off_c, 1, 67, 0
1, 92520, Note_off_c, 1, 63, 0
1, 92520, Note_on_c, 1, 27, 127
1, 92520, Note_on_c, 1, 72, 127
1, 92549, Note_off_c, 1, 27, 0
1, 92549, Note_off_c, 1, 72, 0
1, 92550, Note_on_c, 1, 41, 127
1, 92550, Note_on_c, 1, 29, 127
1, 92550, Note_on_c, 1, 68, 127
1, 92550, Note_on_c, 1, 74, 127
1, 92579, Note_off_c, 1, 41, 0
1, 92579, Note_off_c, 1, 29, 0
1, 92579, Note_off_c, 1, 68, 0
1, 92579, Note_off_c, 1, 74, 0
1, 92580, Note_on_c, 1, 43, 127
1, 92580, Note_on_c, 1, 31, 127
1, 92580, Note_on_c, 1, 70, 127
1, 92580, Note_on_c, 1, 75, 127
1, 92609, Note_off_c, 1, 70, 0
1, 92609, Note_off_c, 1, 75, 0
1, 92610, Note_on_c, 1, 67, 127
1, 92639, Note_off_c, 1, 43, 0
1, 92639, Note_off_c, 1, 31, 0
1, 92639, Note_off_c, 1, 67, 0
1, 92640, Note_on_c, 1, 75, 127
1, 92640, Note_on_c, 1, 72, 127
1, 92640, Note_on_c, 1, 68, 127
1, 92670, Note_off_c, 1, 75, 0
1, 92670, Note_off_c, 1, 72, 0
1, 92670, Note_on_c, 1, 74, 127
1, 92670, Note_on_c, 1, 65, 127
1, 92700, Note_off_c, 1, 68, 0
1, 92700, Note_off_c, 1, 74, 0
1, 92700, Note_off_c, 1, 65, 0
1, 92700, Note_on_c, 1, 67, 127
1, 92700, Note_on_c, 1, 70, 127
1, 92729, Note_off_c, 1, 70, 0
1, 92730, Note_on_c, 1, 63, 127
1, 92759, Note_off_c, 1, 63, 0
1, 92760, Note_off_c, 1, 67, 0
1, 92760, Note_on_c, 1, 46, 127
1, 92760, Note_on_c, 1, 34, 127
1, 92790, Note_on_c, 1, 62, 127
1, 92819, Note_off_c, 1, 46, 0
1, 92819, Note_off_c, 1, 34, 0
1, 92819, Note_off_c, 1, 62, 0
1, 92820, Note_on_c, 1, 39, 127
1, 92820, Note_on_c, 1, 27, 127
1, 92820, Note_on_c, 1, 63, 127
1, 92820, Note_on_c, 1, 67, 127
1, 92849, Note_off_c, 1, 67, 0
1, 92879, Note_off_c, 1, 39, 0
1, 92879, Note_off_c, 1, 27, 0
1, 92879, Note_off_c, 1, 63, 0
1, 92880, Note_on_c, 1, 72, 127
1, 92880, Note_on_c, 1, 68, 127
1, 92880, Note_on_c, 1, 65, 127
1, 92910, Note_off_c, 1, 68, 0
1, 92910, Note_on_c, 1, 70, 127
1, 92910, Note_on_c, 1, 62, 127
1, 92939, Note_off_c, 1, 72, 0
1, 92940, Note_off_c, 1, 65, 0
1, 92940, Note_off_c, 1, 70, 0
1, 92940, Note_off_c, 1, 62, 0
1, 92940, Note_on_c, 1, 67, 127
1, 92940, Note_on_c, 1, 63, 127
1, 93000, Note_off_c, 1, 67, 0
1, 93000, Note_off_c, 1, 63, 0
1, 93000, Note_on_c, 1, 50, 127
1, 93000, Note_on_c, 1, 38, 127
1, 93059, Note_off_c, 1, 50, 0
1, 93059, Note_off_c, 1, 38, 0
1, 93060, Note_on_c, 1, 51, 127
1, 93060, Note_on_c, 1, 39, 127
1, 93119, Note_off_c, 1, 51, 0
1, 93119, Note_off_c, 1, 39, 0
1, 93120, Note_on_c, 1, 74, 127
1, 93120, Note_on_c, 1, 68, 127
1, 93120, Note_on_c, 1, 65, 127
1, 93120, Note_on_c, 1, 53, 127
1, 93120, Note_on_c, 1, 41, 127
1, 93135, Note_on_c, 1, 70, 127
1, 93150, Note_off_c, 1, 74, 0
1, 93150, Note_on_c, 1, 62, 127
1, 93179, Note_off_c, 1, 53, 0
1, 93179, Note_off_c, 1, 41, 0
1, 93180, Note_off_c, 1, 68, 0
1, 93180, Note_off_c, 1, 65, 0
1, 93180, Note_off_c, 1, 62, 0
1, 93180, Note_on_c, 1, 75, 127
1, 93180, Note_on_c, 1, 58, 127
1, 93180, Note_on_c, 1, 55, 127
1, 93180, Note_on_c, 1, 43, 127
1, 93239, Note_off_c, 1, 55, 0
1, 93239, Note_off_c, 1, 43, 0
1, 93240, Note_off_c, 1, 70, 0
1, 93240, Note_off_c, 1, 58, 0
1, 93240, Note_on_c, 1, 72, 127
1, 93269, Note_off_c, 1, 72, 0
1, 93329, Note_off_c, 1, 75, 0
1, 93330, Note_on_c, 1, 77, 127
1, 93359, Note_off_c, 1, 77, 0
1, 93360, Note_on_c, 1, 79, 127
1, 93360, Note_on_c, 1, 75, 127
1, 93360, Note_on_c, 1, 70, 127
1, 93360, Note_on_c, 1, 51, 127
1, 93360, Note_on_c, 1, 39, 127
1, 93390, Note_off_c, 1, 79, 0
1, 93390, Note_off_c, 1, 75, 0
1, 93390, Note_off_c, 1, 70, 0
1, 93390, Note_on_c, 1, 77, 127
1, 93390, Note_on_c, 1, 74, 127
1, 93390, Note_on_c, 1, 72, 127
1, 93419, Note_off_c, 1, 51, 0
1, 93419, Note_off_c, 1, 39, 0
1, 93420, Note_off_c, 1, 77, 0
1, 93420, Note_off_c, 1, 74, 0
1, 93420, Note_off_c, 1, 72, 0
1, 93420, Note_on_c, 1, 80, 127
1, 93420, Note_on_c, 1, 68, 127
1, 93420, Note_on_c, 1, 60, 127
1, 93420, Note_on_c, 1, 36, 127
1, 93479, Note_off_c, 1, 60, 0
1, 93479, Note_off_c, 1, 36, 0
1, 93480, Note_off_c, 1, 80, 0
1, 93480, Note_off_c, 1, 68, 0
1, 93480, Note_on_c, 1, 48, 127
1, 93539, Note_off_c, 1, 48, 0
1, 93540, Note_on_c, 1, 81, 127
1, 93540, Note_on_c, 1, 75, 127
1, 93555, Note_off_c, 1, 75, 0
1, 93555, Note_on_c, 1, 77, 127
1, 93569, Note_off_c, 1, 81, 0
1, 93570, Note_off_c, 1, 77, 0
1, 93570, Note_on_c, 1, 82, 127
1, 93599, Note_off_c, 1, 82, 0
1, 93600, Note_on_c, 1, 82, 127
1, 93600, Note_on_c, 1, 77, 127
1, 93600, Note_on_c, 1, 74, 127
1, 93600, Note_on_c, 1, 46, 127
1, 93600, Note_on_c, 1, 34, 127
1, 93600, Note_on_c, 1, 70, 127
1, 93600, Note_on_c, 1, 75, 127
1, 93630, Note_off_c, 1, 82, 0
1, 93630, Note_off_c, 1, 77, 0
1, 93630, Note_off_c, 1, 74, 0
1, 93630, Note_on_c, 1, 81, 127
1, 93630, Note_on_c, 1, 72, 127
1, 93659, Note_off_c, 1, 46, 0
1, 93659, Note_off_c, 1, 34, 0
1, 93659, Note_off_c, 1, 70, 0
1, 93660, Note_off_c, 1, 75, 0
1, 93660, Note_off_c, 1, 81, 0
1, 93660, Note_off_c, 1, 72, 0
1, 93660, Note_on_c, 1, 50, 127
1, 93660, Note_on_c, 1, 38, 127
1, 93719, Note_off_c, 1, 50, 0
1, 93719, Note_off_c, 1, 38, 0
1, 93720, Note_on_c, 1, 65, 127
1, 93720, Note_on_c, 1, 53, 127
1, 93720, Note_on_c, 1, 41, 127
1, 93750, Note_off_c, 1, 65, 0
1, 93779, Note_off_c, 1, 53, 0
1, 93779, Note_off_c, 1, 41, 0
1, 93780, Note_on_c, 1, 62, 127
1, 93780, Note_on_c, 1, 58, 127
1, 93809, Note_off_c, 1, 58, 0
1, 93840, Note_off_c, 1, 62, 0
1, 93840, Note_on_c, 1, 44, 127
1, 93840, Note_on_c, 1, 32, 127
1, 93869, Note_off_c, 1, 44, 0
1, 93869, Note_off_c, 1, 32, 0
1, 93870, Note_on_c, 1, 46, 127
1, 93870, Note_on_c, 1, 34, 127
1, 93899, Note_off_c, 1, 46, 0
1, 93899, Note_off_c, 1, 34, 0
1, 93900, Note_on_c, 1, 43, 127
1, 93900, Note_on_c, 1, 31, 127
1, 93900, Note_on_c, 1, 83, 127
1, 93900, Note_on_c, 1, 74, 127
1, 93900, Note_on_c, 1, 77, 127
1, 93900, Note_on_c, 1, 67, 127
1, 93959, Note_off_c, 1, 43, 0
1, 93959, Note_off_c, 1, 31, 0
1, 93959, Note_off_c, 1, 83, 0
1, 93959, Note_off_c, 1, 74, 0
1, 93959, Note_off_c, 1, 77, 0
1, 93959, Note_off_c, 1, 67, 0
1, 93960, Note_on_c, 1, 67, 127
1, 93960, Note_on_c, 1, 83, 127
1, 93960, Note_on_c, 1, 74, 127
1, 93960, Note_on_c, 1, 55, 127
1, 93960, Note_on_c, 1, 77, 127
1, 93990, Note_on_c, 1, 65, 127
1, 94019, Note_off_c, 1, 67, 0
1, 94019, Note_off_c, 1, 83, 0
1, 94019, Note_off_c, 1, 74, 0
1, 94019, Note_off_c, 1, 55, 0
1, 94019, Note_off_c, 1, 77, 0
1, 94020, Note_off_c, 1, 65, 0
1, 94020, Note_on_c, 1, 59, 127
1, 94050, Note_on_c, 1, 62, 127
1, 94079, Note_off_c, 1, 59, 0
1, 94170, Note_on_c, 1, 43, 127
1, 94199, Note_off_c, 1, 43, 0
1, 94200, Note_off_c, 1, 62, 0
1, 94200, Note_on_c, 1, 53, 127
1, 94200, Note_on_c, 1, 41, 127
1, 94229, Note_off_c, 1, 53, 0
1, 94229, Note_off_c, 1, 41, 0
1, 94260, Note_on_c, 1, 48, 127
1, 94260, Note_on_c, 1, 36, 127
1, 94260, Note_on_c, 1, 84, 127
1, 94260, Note_on_c, 1, 72, 127
1, 94260, Note_on_c, 1, 75, 127
1, 94260, Note_on_c, 1, 60, 127
1, 94319, Note_off_c, 1, 84, 0
1, 94319, Note_off_c, 1, 72, 0
1, 94319, Note_off_c, 1, 75, 0
1, 94320, Note_off_c, 1, 36, 0
1, 94320, Note_off_c, 1, 60, 0
1, 94350, Note_on_c, 1, 71, 127
1, 94380, Note_off_c, 1, 48, 0
1, 94380, Note_off_c, 1, 71, 0
1, 94380, Note_on_c, 1, 51, 127
1, 94440, Note_off_c, 1, 51, 0
1, 94440, Note_on_c, 1, 63, 127
1, 94500, Note_off_c, 1, 63, 0
1, 94560, Note_on_c, 1, 50, 127
1, 94560, Note_on_c, 1, 38, 127
1, 94589, Note_off_c, 1, 50, 0
1, 94589, Note_off_c, 1, 38, 0
1, 94590, Note_on_c, 1, 39, 127
1, 94619, Note_off_c, 1, 39, 0
1, 94620, Note_on_c, 1, 69, 127
1, 94620, Note_on_c, 1, 66, 127
1, 94679, Note_off_c, 1, 69, 0
1, 94679, Note_off_c, 1, 66, 0
1, 94680, Note_on_c, 1, 74, 127
1, 94680, Note_on_c, 1, 84, 127
1, 94680, Note_on_c, 1, 50, 127
1, 94680, Note_on_c, 1, 69, 127
1, 94680, Note_on_c, 1, 66, 127
1, 94710, Note_on_c, 1, 72, 127
1, 94739, Note_off_c, 1, 74, 0
1, 94739, Note_off_c, 1, 84, 0
1, 94739, Note_off_c, 1, 50, 0
1, 94739, Note_off_c, 1, 69, 0
1, 94739, Note_off_c, 1, 66, 0
1, 94740, Note_off_c, 1, 72, 0
1, 94740, Note_on_c, 1, 54, 127
1, 94740, Note_on_c, 1, 78, 127
1, 94799, Note_off_c, 1, 54, 0
1, 94799, Note_off_c, 1, 78, 0
1, 94800, Note_on_c, 1, 57, 127
1, 94859, Note_off_c, 1, 57, 0
1, 94860, Note_on_c, 1, 62, 127
1, 94890, Note_on_c, 1, 38, 127
1, 94919, Note_off_c, 1, 38, 0
1, 94920, Note_on_c, 1, 48, 127
1, 94920, Note_on_c, 1, 36, 127
1, 94949, Note_off_c, 1, 48, 0
1, 94949, Note_off_c, 1, 36, 0
1, 94979, Note_off_c, 1, 62, 0
1, 94980, Note_on_c, 1, 43, 127
1, 94980, Note_on_c, 1, 31, 127
1, 94980, Note_on_c, 1, 82, 127
1, 94980, Note_on_c, 1, 74, 127
1, 94980, Note_on_c, 1, 79, 127
1, 94980, Note_on_c, 1, 67, 127
1, 94980, Note_on_c, 1, 55, 127
1, 95039, Note_off_c, 1, 43, 0
1, 95039, Note_off_c, 1, 31, 0
1, 95039, Note_off_c, 1, 82, 0
1, 95039, Note_off_c, 1, 74, 0
1, 95039, Note_off_c, 1, 79, 0
1, 95039, Note_off_c, 1, 67, 0
1, 95039, Note_off_c, 1, 55, 0
1, 95040, Note_on_c, 1, 67, 127
1, 95040, Note_on_c, 1, 82, 127
1, 95040, Note_on_c, 1, 74, 127
1, 95040, Note_on_c, 1, 79, 127
1, 95040, Note_on_c, 1, 43, 127
1, 95070, Note_on_c, 1, 66, 127
1, 95099, Note_off_c, 1, 67, 0
1, 95099, Note_off_c, 1, 82, 0
1, 95099, Note_off_c, 1, 74, 0
1, 95099, Note_off_c, 1, 79, 0
1, 95099, Note_off_c, 1, 43, 0
1, 95100, Note_off_c, 1, 66, 0
1, 95100, Note_on_c, 1, 55, 127
1, 95100, Note_on_c, 1, 46, 127
1, 95130, Note_on_c, 1, 62, 127
1, 95159, Note_off_c, 1, 46, 0
1, 95160, Note_off_c, 1, 55, 0
1, 95160, Note_off_c, 1, 62, 0
1, 95160, Note_on_c, 1, 58, 127
1, 95160, Note_on_c, 1, 50, 127
1, 95219, Note_off_c, 1, 50, 0
1, 95220, Note_off_c, 1, 58, 0
1, 95250, Note_on_c, 1, 31, 127
1, 95279, Note_off_c, 1, 31, 0
1, 95280, Note_on_c, 1, 42, 127
1, 95280, Note_on_c, 1, 30, 127
1, 95309, Note_off_c, 1, 42, 0
1, 95309, Note_off_c, 1, 30, 0
1, 95340, Note_on_c, 1, 36, 127
1, 95340, Note_on_c, 1, 24, 127
1, 95340, Note_on_c, 1, 72, 127
1, 95340, Note_on_c, 1, 60, 127
1, 95340, Note_on_c, 1, 75, 127
1, 95370, Note_on_c, 1, 63, 127
1, 95399, Note_off_c, 1, 72, 0
1, 95399, Note_off_c, 1, 75, 0
1, 95400, Note_off_c, 1, 60, 0
1, 95400, Note_off_c, 1, 63, 0
1, 95400, Note_on_c, 1, 65, 127
1, 95430, Note_off_c, 1, 65, 0
1, 95459, Note_off_c, 1, 36, 0
1, 95459, Note_off_c, 1, 24, 0
1, 95460, Note_on_c, 1, 81, 127
1, 95460, Note_on_c, 1, 53, 127
1, 95519, Note_off_c, 1, 81, 0
1, 95519, Note_off_c, 1, 53, 0
1, 95520, Note_on_c, 1, 69, 127
1, 95520, Note_on_c, 1, 48, 127
1, 95550, Note_off_c, 1, 69, 0
1, 95579, Note_off_c, 1, 48, 0
1, 95580, Note_on_c, 1, 45, 127
1, 95580, Note_on_c, 1, 33, 127
1, 95610, Note_on_c, 1, 57, 127
1, 95639, Note_off_c, 1, 45, 0
1, 95639, Note_off_c, 1, 33, 0
1, 95640, Note_off_c, 1, 57, 0
1, 95640, Note_on_c, 1, 41, 127
1, 95640, Note_on_c, 1, 29, 127
1, 95699, Note_off_c, 1, 29, 0
1, 95700, Note_off_c, 1, 41, 0
1, 95700, Note_on_c, 1, 70, 127
1, 95700, Note_on_c, 1, 34, 127
1, 95819, Note_off_c, 1, 70, 0
1, 95819, Note_off_c, 1, 34, 0
1, 95820, Note_on_c, 1, 51, 127
1, 95879, Note_off_c, 1, 51, 0
1, 96000, Note_on_c, 1, 39, 127
1, 96000, Note_on_c, 1, 27, 127
1, 96059, Note_off_c, 1, 27, 0
1, 96060, Note_off_c, 1, 39, 0
1, 96180, Note_on_c, 1, 78, 127
1, 96239, Note_off_c, 1, 78, 0
1, 96270, Note_on_c, 1, 64, 127
1, 96299, Note_off_c, 1, 64, 0
1, 96300, Note_on_c, 1, 38, 127
1, 96330, Note_on_c, 1, 54, 127
1, 96359, Note_off_c, 1, 38, 0
1, 96359, Note_off_c, 1, 54, 0
1, 96360, Note_on_c, 1, 26, 127
1, 96419, Note_off_c, 1, 26, 0
1, 96540, Note_on_c, 1, 74, 127
1, 96599, Note_off_c, 1, 74, 0
1, 96600, Note_on_c, 1, 55, 127
1, 96600, Note_on_c, 1, 43, 127
1, 96600, Note_on_c, 1, 82, 127
1, 96659, Note_off_c, 1, 55, 0
1, 96659, Note_off_c, 1, 43, 0
1, 96659, Note_off_c, 1, 82, 0
1, 96660, Note_on_c, 1, 57, 127
1, 96660, Note_on_c, 1, 45, 127
1, 96660, Note_on_c, 1, 78, 127
1, 96719, Note_off_c, 1, 57, 0
1, 96719, Note_off_c, 1, 45, 0
1, 96719, Note_off_c, 1, 78, 0
1, 96720, Note_on_c, 1, 58, 127
1, 96720, Note_on_c, 1, 46, 127
1, 96720, Note_on_c, 1, 79, 127
1, 96779, Note_off_c, 1, 58, 0
1, 96779, Note_off_c, 1, 46, 0
1, 96779, Note_off_c, 1, 79, 0
1, 96780, Note_on_c, 1, 60, 127
1, 96780, Note_on_c, 1, 48, 127
1, 96809, Note_off_c, 1, 60, 0
1, 96809, Note_off_c, 1, 48, 0
1, 96810, Note_on_c, 1, 62, 127
1, 96810, Note_on_c, 1, 50, 127
1, 96839, Note_off_c, 1, 62, 0
1, 96839, Note_off_c, 1, 50, 0
1, 96840, Note_on_c, 1, 63, 127
1, 96840, Note_on_c, 1, 51, 127
1, 96840, Note_on_c, 1, 72, 127
1, 96869, Note_off_c, 1, 72, 0
1, 96870, Note_on_c, 1, 70, 127
1, 96899, Note_off_c, 1, 63, 0
1, 96899, Note_off_c, 1, 51, 0
1, 96899, Note_off_c, 1, 70, 0
1, 96900, Note_on_c, 1, 72, 127
1, 96960, Note_off_c, 1, 72, 0
1, 96960, Note_on_c, 1, 60, 127
1, 96960, Note_on_c, 1, 48, 127
1, 96960, Note_on_c, 1, 81, 127
1, 97019, Note_off_c, 1, 60, 0
1, 97019, Note_off_c, 1, 48, 0
1, 97020, Note_on_c, 1, 62, 127
1, 97020, Note_on_c, 1, 50, 127
1, 97049, Note_off_c, 1, 81, 0
1, 97050, Note_on_c, 1, 79, 127
1, 97079, Note_off_c, 1, 62, 0
1, 97079, Note_off_c, 1, 50, 0
1, 97079, Note_off_c, 1, 79, 0
1, 97080, Note_on_c, 1, 63, 127
1, 97080, Note_on_c, 1, 51, 127
1, 97080, Note_on_c, 1, 78, 127
1, 97109, Note_off_c, 1, 78, 0
1, 97110, Note_on_c, 1, 79, 127
1, 97139, Note_off_c, 1, 63, 0
1, 97139, Note_off_c, 1, 51, 0
1, 97139, Note_off_c, 1, 79, 0
1, 97140, Note_on_c, 1, 54, 127
1, 97140, Note_on_c, 1, 42, 127
1, 97140, Note_on_c, 1, 81, 127
1, 97169, Note_off_c, 1, 54, 0
1, 97169, Note_off_c, 1, 42, 0
1, 97169, Note_off_c, 1, 81, 0
1, 97170, Note_on_c, 1, 55, 127
1, 97170, Note_on_c, 1, 43, 127
1, 97170, Note_on_c, 1, 79, 127
1, 97199, Note_off_c, 1, 55, 0
1, 97199, Note_off_c, 1, 43, 0
1, 97199, Note_off_c, 1, 79, 0
1, 97200, Note_on_c, 1, 57, 127
1, 97200, Note_on_c, 1, 45, 127
1, 97200, Note_on_c, 1, 78, 127
1, 97229, Note_off_c, 1, 78, 0
1, 97230, Note_on_c, 1, 76, 127
1, 97259, Note_off_c, 1, 57, 0
1, 97259, Note_off_c, 1, 45, 0
1, 97259, Note_off_c, 1, 76, 0
1, 97260, Note_on_c, 1, 74, 127
1, 97289, Note_off_c, 1, 74, 0
1, 97290, Note_on_c, 1, 72, 127
1, 97319, Note_off_c, 1, 72, 0
1, 97320, Note_on_c, 1, 54, 127
1, 97320, Note_on_c, 1, 42, 127
1, 97320, Note_on_c, 1, 75, 127
1, 97379, Note_off_c, 1, 54, 0
1, 97379, Note_off_c, 1, 42, 0
1, 97380, Note_on_c, 1, 55, 127
1, 97380, Note_on_c, 1, 43, 127
1, 97439, Note_off_c, 1, 75, 0
1, 97439, Note_off_c, 1, 55, 0
1, 97439, Note_off_c, 1, 43, 0
1, 97440, Note_on_c, 1, 57, 127
1, 97440, Note_on_c, 1, 45, 127
1, 97440, Note_on_c, 1, 74, 127
1, 97499, Note_off_c, 1, 57, 0
1, 97499, Note_off_c, 1, 45, 0
1, 97500, Note_on_c, 1, 58, 127
1, 97500, Note_on_c, 1, 46, 127
1, 97529, Note_off_c, 1, 74, 0
1, 97529, Note_off_c, 1, 58, 0
1, 97529, Note_off_c, 1, 46, 0
1, 97530, Note_on_c, 1, 60, 127
1, 97530, Note_on_c, 1, 48, 127
1, 97530, Note_on_c, 1, 72, 127
1, 97559, Note_off_c, 1, 60, 0
1, 97559, Note_off_c, 1, 48, 0
1, 97559, Note_off_c, 1, 72, 0
1, 97560, Note_on_c, 1, 67, 127
1, 97560, Note_on_c, 1, 62, 127
1, 97560, Note_on_c, 1, 58, 127
1, 97560, Note_on_c, 1, 50, 127
1, 97560, Note_on_c, 1, 70, 127
1, 97589, Note_off_c, 1, 70, 0
1, 97590, Note_off_c, 1, 67, 0
1, 97590, Note_off_c, 1, 58, 0
1, 97590, Note_on_c, 1, 69, 127
1, 97590, Note_on_c, 1, 63, 127
1, 97590, Note_on_c, 1, 60, 127
1, 97619, Note_off_c, 1, 62, 0
1, 97619, Note_off_c, 1, 50, 0
1, 97620, Note_off_c, 1, 69, 0
1, 97620, Note_off_c, 1, 63, 0
1, 97620, Note_off_c, 1, 60, 0
1, 97680, Note_on_c, 1, 38, 127
1, 97710, Note_on_c, 1, 66, 127
1, 97739, Note_off_c, 1, 38, 0
1, 97739, Note_off_c, 1, 66, 0
1, 97740, Note_on_c, 1, 46, 127
1, 97740, Note_on_c, 1, 34, 127
1, 97740, Note_on_c, 1, 67, 127
1, 97769, Note_off_c, 1, 67, 0
1, 97770, Note_on_c, 1, 62, 127
1, 97799, Note_off_c, 1, 46, 0
1, 97799, Note_off_c, 1, 34, 0
1, 97799, Note_off_c, 1, 62, 0
1, 97800, Note_on_c, 1, 70, 127
1, 97800, Note_on_c, 1, 67, 127
1, 97800, Note_on_c, 1, 62, 127
1, 97800, Note_on_c, 1, 50, 127
1, 97800, Note_on_c, 1, 38, 127
1, 97830, Note_off_c, 1, 70, 0
1, 97830, Note_off_c, 1, 67, 0
1, 97830, Note_off_c, 1, 62, 0
1, 97830, Note_on_c, 1, 72, 127
1, 97830, Note_on_c, 1, 69, 127
1, 97830, Note_on_c, 1, 63, 127
1, 97830, Note_on_c, 1, 65, 127
1, 97859, Note_off_c, 1, 50, 0
1, 97859, Note_off_c, 1, 38, 0
1, 97859, Note_off_c, 1, 65, 0
1, 97860, Note_off_c, 1, 72, 0
1, 97860, Note_off_c, 1, 69, 0
1, 97860, Note_off_c, 1, 63, 0
1, 97860, Note_on_c, 1, 43, 127
1, 97860, Note_on_c, 1, 31, 127
1, 97860, Note_on_c, 1, 55, 127
1, 97920, Note_off_c, 1, 55, 0
1, 97920, Note_on_c, 1, 74, 127
1, 97949, Note_off_c, 1, 74, 0
1, 97979, Note_off_c, 1, 43, 0
1, 97979, Note_off_c, 1, 31, 0
1, 98040, Note_on_c, 1, 43, 127
1, 98040, Note_on_c, 1, 74, 127
1, 98040, Note_on_c, 1, 58, 127
1, 98040, Note_on_c, 1, 82, 127
1, 98040, Note_on_c, 1, 67, 127
1, 98069, Note_off_c, 1, 74, 0
1, 98070, Note_on_c, 1, 70, 127
1, 98099, Note_off_c, 1, 43, 0
1, 98099, Note_off_c, 1, 58, 0
1, 98099, Note_off_c, 1, 82, 0
1, 98099, Note_off_c, 1, 67, 0
1, 98099, Note_off_c, 1, 70, 0
1, 98100, Note_on_c, 1, 50, 127
1, 98100, Note_on_c, 1, 38, 127
1, 98100, Note_on_c, 1, 72, 127
1, 98100, Note_on_c, 1, 57, 127
1, 98100, Note_on_c, 1, 78, 127
1, 98100, Note_on_c, 1, 69, 127
1, 98129, Note_off_c, 1, 72, 0
1, 98159, Note_off_c, 1, 50, 0
1, 98159, Note_off_c, 1, 38, 0
1, 98159, Note_off_c, 1, 57, 0
1, 98159, Note_off_c, 1, 78, 0
1, 98159, Note_off_c, 1, 69, 0
1, 98160, Note_on_c, 1, 55, 127
1, 98160, Note_on_c, 1, 31, 127
1, 98160, Note_on_c, 1, 70, 127
1, 98160, Note_on_c, 1, 79, 127
1, 98190, Note_on_c, 1, 67, 127
1, 98219, Note_off_c, 1, 55, 0
1, 98219, Note_off_c, 1, 31, 0
1, 98219, Note_off_c, 1, 70, 0
1, 98219, Note_off_c, 1, 79, 0
1, 98219, Note_off_c, 1, 67, 0
1, 98220, Note_on_c, 1, 50, 127
1, 98220, Note_on_c, 1, 38, 127
1, 98220, Note_on_c, 1, 66, 127
1, 98220, Note_on_c, 1, 62, 127
1, 98220, Note_on_c, 1, 69, 127
1, 98249, Note_off_c, 1, 66, 0
1, 98249, Note_off_c, 1, 69, 0
1, 98250, Note_on_c, 1, 74, 127
1, 98250, Note_on_c, 1, 67, 127
1, 98279, Note_off_c, 1, 62, 0
1, 98279, Note_off_c, 1, 74, 0
1, 98279, Note_off_c, 1, 67, 0
1, 98280, Note_on_c, 1, 81, 127
1, 98280, Note_on_c, 1, 72, 127
1, 98309, Note_off_c, 1, 81, 0
1, 98309, Note_off_c, 1, 72, 0
1, 98310, Note_on_c, 1, 79, 127
1, 98310, Note_on_c, 1, 70, 127
1, 98339, Note_off_c, 1, 50, 0
1, 98339, Note_off_c, 1, 38, 0
1, 98339, Note_off_c, 1, 79, 0
1, 98339, Note_off_c, 1, 70, 0
1, 98340, Note_on_c, 1, 81, 127
1, 98340, Note_on_c, 1, 72, 127
1, 98369, Note_off_c, 1, 81, 0
1, 98370, Note_on_c, 1, 74, 127
1, 98399, Note_off_c, 1, 72, 0
1, 98399, Note_off_c, 1, 74, 0
1, 98400, Note_on_c, 1, 50, 127
1, 98400, Note_on_c, 1, 38, 127
1, 98400, Note_on_c, 1, 84, 127
1, 98400, Note_on_c, 1, 69, 127
1, 98400, Note_on_c, 1, 81, 127
1, 98400, Note_on_c, 1, 66, 127
1, 98429, Note_off_c, 1, 84, 0
1, 98430, Note_on_c, 1, 82, 127
1, 98459, Note_off_c, 1, 50, 0
1, 98459, Note_off_c, 1, 38, 0
1, 98459, Note_off_c, 1, 69, 0
1, 98459, Note_off_c, 1, 66, 0
1, 98459, Note_off_c, 1, 82, 0
1, 98460, Note_on_c, 1, 54, 127
1, 98460, Note_on_c, 1, 42, 127
1, 98460, Note_on_c, 1, 62, 127
1, 98489, Note_off_c, 1, 81, 0
1, 98490, Note_on_c, 1, 79, 127
1, 98519, Note_off_c, 1, 54, 0
1, 98519, Note_off_c, 1, 42, 0
1, 98519, Note_off_c, 1, 62, 0
1, 98519, Note_off_c, 1, 79, 0
1, 98520, Note_on_c, 1, 57, 127
1, 98520, Note_on_c, 1, 45, 127
1, 98520, Note_on_c, 1, 86, 127
1, 98520, Note_on_c, 1, 62, 127
1, 98520, Note_on_c, 1, 78, 127
1, 98549, Note_off_c, 1, 86, 0
1, 98549, Note_off_c, 1, 78, 0
1, 98550, Note_on_c, 1, 84, 127
1, 98550, Note_on_c, 1, 79, 127
1, 98579, Note_off_c, 1, 57, 0
1, 98579, Note_off_c, 1, 45, 0
1, 98579, Note_off_c, 1, 62, 0
1, 98579, Note_off_c, 1, 84, 0
1, 98579, Note_off_c, 1, 79, 0
1, 98580, Note_on_c, 1, 62, 127
1, 98580, Note_on_c, 1, 50, 127
1, 98580, Note_on_c, 1, 86, 127
1, 98580, Note_on_c, 1, 57, 127
1, 98580, Note_on_c, 1, 81, 127
1, 98580, Note_on_c, 1, 54, 127
1, 98609, Note_off_c, 1, 81, 0
1, 98610, Note_on_c, 1, 79, 127
1, 98639, Note_off_c, 1, 86, 0
1, 98639, Note_off_c, 1, 57, 0
1, 98639, Note_off_c, 1, 54, 0
1, 98639, Note_off_c, 1, 79, 0
1, 98640, Note_on_c, 1, 74, 127
1, 98640, Note_on_c, 1, 78, 127
1, 98669, Note_off_c, 1, 78, 0
1, 98670, Note_on_c, 1, 76, 127
1, 98699, Note_off_c, 1, 62, 0
1, 98699, Note_off_c, 1, 50, 0
1, 98699, Note_off_c, 1, 76, 0
1, 98700, Note_on_c, 1, 66, 127
1, 98729, Note_off_c, 1, 74, 0
1, 98730, Note_on_c, 1, 72, 127
1, 98759, Note_off_c, 1, 66, 0
1, 98759, Note_off_c, 1, 72, 0
1, 98760, Note_on_c, 1, 57, 127
1, 98760, Note_on_c, 1, 45, 127
1, 98760, Note_on_c, 1, 78, 127
1, 98760, Note_on_c, 1, 71, 127
1, 98760, Note_on_c, 1, 75, 127
1, 98789, Note_off_c, 1, 78, 0
1, 98790, Note_on_c, 1, 79, 127
1, 98819, Note_off_c, 1, 57, 0
1, 98819, Note_off_c, 1, 45, 0
1, 98819, Note_off_c, 1, 71, 0
1, 98819, Note_off_c, 1, 79, 0
1, 98820, Note_on_c, 1, 54, 127
1, 98820, Note_on_c, 1, 42, 127
1, 98820, Note_on_c, 1, 81, 127
1, 98820, Note_on_c, 1, 66, 127
1, 98849, Note_off_c, 1, 81, 0
1, 98850, Note_on_c, 1, 82, 127
1, 98879, Note_off_c, 1, 75, 0
1, 98879, Note_off_c, 1, 54, 0
1, 98879, Note_off_c, 1, 42, 0
1, 98879, Note_off_c, 1, 66, 0
1, 98879, Note_off_c, 1, 82, 0
1, 98880, Note_on_c, 1, 50, 127
1, 98880, Note_on_c, 1, 38, 127
1, 98880, Note_on_c, 1, 84, 127
1, 98880, Note_on_c, 1, 62, 127
1, 98880, Note_on_c, 1, 74, 127
1, 98909, Note_off_c, 1, 84, 0
1, 98910, Note_on_c, 1, 81, 127
1, 98939, Note_off_c, 1, 50, 0
1, 98939, Note_off_c, 1, 38, 0
1, 98939, Note_off_c, 1, 62, 0
1, 98939, Note_off_c, 1, 81, 0
1, 98940, Note_on_c, 1, 55, 127
1, 98940, Note_on_c, 1, 43, 127
1, 98940, Note_on_c, 1, 82, 127
1, 98940, Note_on_c, 1, 67, 127
1, 98969, Note_off_c, 1, 74, 0
1, 98969, Note_off_c, 1, 82, 0
1, 98970, Note_on_c, 1, 75, 127
1, 98970, Note_on_c, 1, 72, 127
1, 98999, Note_off_c, 1, 67, 0
1, 98999, Note_off_c, 1, 75, 0
1, 98999, Note_off_c, 1, 72, 0
1, 99000, Note_on_c, 1, 58, 127
1, 99000, Note_on_c, 1, 70, 127
1, 99029, Note_off_c, 1, 70, 0
1, 99030, Note_off_c, 1, 58, 0
1, 99030, Note_on_c, 1, 63, 127
1, 99030, Note_on_c, 1, 60, 127
1, 99030, Note_on_c, 1, 66, 127
1, 99030, Note_on_c, 1, 69, 127
1, 99059, Note_off_c, 1, 55, 0
1, 99059, Note_off_c, 1, 43, 0
1, 99059, Note_off_c, 1, 69, 0
1, 99060, Note_off_c, 1, 63, 0
1, 99060, Note_off_c, 1, 60, 0
1, 99060, Note_off_c, 1, 66, 0
1, 99180, Note_on_c, 1, 46, 127
1, 99180, Note_on_c, 1, 34, 127
1, 99180, Note_on_c, 1, 70, 127
1, 99180, Note_on_c, 1, 67, 127
1, 99180, Note_on_c, 1, 58, 127
1, 99209, Note_off_c, 1, 70, 0
1, 99209, Note_off_c, 1, 67, 0
1, 99210, Note_on_c, 1, 74, 127
1, 99210, Note_on_c, 1, 62, 127
1, 99239, Note_off_c, 1, 46, 0
1, 99239, Note_off_c, 1, 34, 0
1, 99239, Note_off_c, 1, 58, 0
1, 99239, Note_off_c, 1, 74, 0
1, 99239, Note_off_c, 1, 62, 0
1, 99240, Note_on_c, 1, 67, 127
1, 99240, Note_on_c, 1, 62, 127
1, 99240, Note_on_c, 1, 58, 127
1, 99240, Note_on_c, 1, 50, 127
1, 99240, Note_on_c, 1, 38, 127
1, 99240, Note_on_c, 1, 70, 127
1, 99269, Note_off_c, 1, 70, 0
1, 99270, Note_off_c, 1, 67, 0
1, 99270, Note_off_c, 1, 58, 0
1, 99270, Note_on_c, 1, 69, 127
1, 99270, Note_on_c, 1, 63, 127
1, 99270, Note_on_c, 1, 60, 127
1, 99270, Note_on_c, 1, 66, 127
1, 99299, Note_off_c, 1, 62, 0
1, 99299, Note_off_c, 1, 50, 0
1, 99299, Note_off_c, 1, 38, 0
1, 99299, Note_off_c, 1, 66, 0
1, 99300, Note_off_c, 1, 69, 0
1, 99300, Note_off_c, 1, 63, 0
1, 99300, Note_off_c, 1, 60, 0
1, 99300, Note_on_c, 1, 43, 127
1, 99300, Note_on_c, 1, 31, 127
1, 99300, Note_on_c, 1, 55, 127
1, 99330, Note_on_c, 1, 74, 127
1, 99359, Note_off_c, 1, 74, 0
1, 99419, Note_off_c, 1, 43, 0
1, 99419, Note_off_c, 1, 31, 0
1, 99419, Note_off_c, 1, 55, 0
1, 99420, Note_on_c, 1, 74, 127
1, 99420, Note_on_c, 1, 65, 127
1, 99420, Note_on_c, 1, 59, 127
1, 99420, Note_on_c, 1, 67, 127
1, 99420, Note_on_c, 1, 71, 127
1, 99420, Note_on_c, 1, 62, 127
1, 99449, Note_off_c, 1, 67, 0
1, 99449, Note_off_c, 1, 71, 0
1, 99479, Note_off_c, 1, 62, 0
1, 99480, Note_on_c, 1, 55, 127
1, 99480, Note_on_c, 1, 43, 127
1, 99509, Note_off_c, 1, 74, 0
1, 99509, Note_off_c, 1, 65, 0
1, 99510, Note_on_c, 1, 63, 127
1, 99510, Note_on_c, 1, 72, 127
1, 99539, Note_off_c, 1, 59, 0
1, 99539, Note_off_c, 1, 55, 0
1, 99539, Note_off_c, 1, 43, 0
1, 99539, Note_off_c, 1, 63, 0
1, 99539, Note_off_c, 1, 72, 0
1, 99540, Note_on_c, 1, 59, 127
1, 99540, Note_on_c, 1, 47, 127
1, 99540, Note_on_c, 1, 65, 127
1, 99540, Note_on_c, 1, 50, 127
1, 99540, Note_on_c, 1, 74, 127
1, 99540, Note_on_c, 1, 55, 127
1, 99569, Note_off_c, 1, 65, 0
1, 99569, Note_off_c, 1, 74, 0
1, 99570, Note_on_c, 1, 67, 127
1, 99599, Note_off_c, 1, 59, 0
1, 99599, Note_off_c, 1, 47, 0
1, 99599, Note_off_c, 1, 50, 0
1, 99599, Note_off_c, 1, 55, 0
1, 99599, Note_off_c, 1, 67, 0
1, 99600, Note_on_c, 1, 55, 127
1, 99600, Note_on_c, 1, 43, 127
1, 99600, Note_on_c, 1, 63, 127
1, 99600, Note_on_c, 1, 72, 127
1, 99629, Note_off_c, 1, 63, 0
1, 99629, Note_off_c, 1, 72, 0
1, 99630, Note_on_c, 1, 62, 127
1, 99630, Note_on_c, 1, 74, 127
1, 99659, Note_off_c, 1, 55, 0
1, 99659, Note_off_c, 1, 43, 0
1, 99659, Note_off_c, 1, 62, 0
1, 99659, Note_off_c, 1, 74, 0
1, 99660, Note_on_c, 1, 72, 127
1, 99660, Note_on_c, 1, 63, 127
1, 99660, Note_on_c, 1, 55, 127
1, 99660, Note_on_c, 1, 60, 127
1, 99660, Note_on_c, 1, 48, 127
1, 99660, Note_on_c, 1, 51, 127
1, 99660, Note_on_c, 1, 75, 127
1, 99689, Note_off_c, 1, 75, 0
1, 99690, Note_on_c, 1, 79, 127
1, 99719, Note_off_c, 1, 51, 0
1, 99719, Note_off_c, 1, 79, 0
1, 99749, Note_off_c, 1, 72, 0
1, 99749, Note_off_c, 1, 63, 0
1, 99749, Note_off_c, 1, 55, 0
1, 99750, Note_on_c, 1, 62, 127
1, 99750, Note_on_c, 1, 53, 127
1, 99750, Note_on_c, 1, 71, 127
1, 99779, Note_off_c, 1, 60, 0
1, 99779, Note_off_c, 1, 48, 0
1, 99779, Note_off_c, 1, 62, 0
1, 99779, Note_off_c, 1, 53, 0
1, 99779, Note_off_c, 1, 71, 0
1, 99780, Note_on_c, 1, 70, 127
1, 99780, Note_on_c, 1, 67, 127
1, 99780, Note_on_c, 1, 64, 127
1, 99780, Note_on_c, 1, 55, 127
1, 99780, Note_on_c, 1, 72, 127
1, 99809, Note_off_c, 1, 72, 0
1, 99810, Note_on_c, 1, 60, 127
1, 99810, Note_on_c, 1, 79, 127
1, 99839, Note_off_c, 1, 55, 0
1, 99839, Note_off_c, 1, 60, 0
1, 99839, Note_off_c, 1, 79, 0
1, 99840, Note_off_c, 1, 64, 0
1, 99840, Note_on_c, 1, 48, 127
1, 99840, Note_on_c, 1, 52, 127
1, 99869, Note_off_c, 1, 70, 0
1, 99869, Note_off_c, 1, 67, 0
1, 99870, Note_on_c, 1, 65, 127
1, 99870, Note_on_c, 1, 69, 127
1, 99899, Note_off_c, 1, 48, 0
1, 99899, Note_off_c, 1, 52, 0
1, 99899, Note_off_c, 1, 65, 0
1, 99899, Note_off_c, 1, 69, 0
1, 99900, Note_on_c, 1, 52, 127
1, 99900, Note_on_c, 1, 40, 127
1, 99900, Note_on_c, 1, 67, 127
1, 99900, Note_on_c, 1, 48, 127
1, 99900, Note_on_c, 1, 70, 127
1, 99900, Note_on_c, 1, 55, 127
1, 99929, Note_off_c, 1, 67, 0
1, 99929, Note_off_c, 1, 70, 0
1, 99930, Note_on_c, 1, 60, 127
1, 99930, Note_on_c, 1, 79, 127
1, 99959, Note_off_c, 1, 52, 0
1, 99959, Note_off_c, 1, 40, 0
1, 99959, Note_off_c, 1, 48, 0
1, 99959, Note_off_c, 1, 55, 0
1, 99959, Note_off_c, 1, 60, 0
1, 99959, Note_off_c, 1, 79, 0
1, 99960, Note_on_c, 1, 48, 127
1, 99960, Note_on_c, 1, 36, 127
1, 99960, Note_on_c, 1, 65, 127
1, 99960, Note_on_c, 1, 69, 127
1, 99960, Note_on_c, 1, 60, 127
1, 99989, Note_off_c, 1, 65, 0
1, 99989, Note_off_c, 1, 69, 0
1, 99990, Note_on_c, 1, 67, 127
1, 100019, Note_off_c, 1, 48, 0
1, 100019, Note_off_c, 1, 36, 0
1, 100019, Note_off_c, 1, 60, 0
1, 100019, Note_off_c, 1, 67, 0
1, 100020, Note_on_c, 1, 69, 127
1, 100020, Note_on_c, 1, 65, 127
1, 100020, Note_on_c, 1, 60, 127
1, 100020, Note_on_c, 1, 53, 127
1, 100020, Note_on_c, 1, 41, 127
1, 100020, Note_on_c, 1, 57, 127
1, 100050, Note_on_c, 1, 72, 127
1, 100079, Note_off_c, 1, 57, 0
1, 100079, Note_off_c, 1, 72, 0
1, 100109, Note_off_c, 1, 69, 0
1, 100109, Note_off_c, 1, 65, 0
1, 100109, Note_off_c, 1, 60, 0
1, 100110, Note_on_c, 1, 64, 127
1, 100110, Note_on_c, 1, 67, 127
1, 100110, Note_on_c, 1, 58, 127
1, 100139, Note_off_c, 1, 53, 0
1, 100139, Note_off_c, 1, 41, 0
1, 100139, Note_off_c, 1, 64, 0
1, 100139, Note_off_c, 1, 67, 0
1, 100139, Note_off_c, 1, 58, 0
1, 100140, Note_on_c, 1, 72, 127
1, 100140, Note_on_c, 1, 63, 127
1, 100140, Note_on_c, 1, 57, 127
1, 100140, Note_on_c, 1, 65, 127
1, 100140, Note_on_c, 1, 69, 127
1, 100140, Note_on_c, 1, 60, 127
1, 100169, Note_off_c, 1, 65, 0
1, 100169, Note_off_c, 1, 69, 0
1, 100199, Note_off_c, 1, 60, 0
1, 100200, Note_on_c, 1, 53, 127
1, 100200, Note_on_c, 1, 41, 127
1, 100229, Note_off_c, 1, 72, 0
1, 100229, Note_off_c, 1, 63, 0
1, 100230, Note_on_c, 1, 62, 127
1, 100230, Note_on_c, 1, 70, 127
1, 100259, Note_off_c, 1, 57, 0
1, 100259, Note_off_c, 1, 53, 0
1, 100259, Note_off_c, 1, 41, 0
1, 100259, Note_off_c, 1, 62, 0
1, 100259, Note_off_c, 1, 70, 0
1, 100260, Note_on_c, 1, 57, 127
1, 100260, Note_on_c, 1, 45, 127
1, 100260, Note_on_c, 1, 63, 127
1, 100260, Note_on_c, 1, 48, 127
1, 100260, Note_on_c, 1, 72, 127
1, 100260, Note_on_c, 1, 53, 127
1, 100289, Note_off_c, 1, 63, 0
1, 100289, Note_off_c, 1, 72, 0
1, 100290, Note_on_c, 1, 65, 127
1, 100319, Note_off_c, 1, 57, 0
1, 100319, Note_off_c, 1, 45, 0
1, 100319, Note_off_c, 1, 48, 0
1, 100319, Note_off_c, 1, 53, 0
1, 100319, Note_off_c, 1, 65, 0
1, 100320, Note_on_c, 1, 53, 127
1, 100320, Note_on_c, 1, 41, 127
1, 100320, Note_on_c, 1, 62, 127
1, 100320, Note_on_c, 1, 70, 127
1, 100349, Note_off_c, 1, 62, 0
1, 100349, Note_off_c, 1, 70, 0
1, 100350, Note_on_c, 1, 60, 127
1, 100350, Note_on_c, 1, 72, 127
1, 100379, Note_off_c, 1, 53, 0
1, 100379, Note_off_c, 1, 41, 0
1, 100379, Note_off_c, 1, 60, 0
1, 100379, Note_off_c, 1, 72, 0
1, 100380, Note_on_c, 1, 70, 127
1, 100380, Note_on_c, 1, 62, 127
1, 100380, Note_on_c, 1, 53, 127
1, 100380, Note_on_c, 1, 58, 127
1, 100380, Note_on_c, 1, 46, 127
1, 100380, Note_on_c, 1, 50, 127
1, 100380, Note_on_c, 1, 74, 127
1, 100409, Note_off_c, 1, 74, 0
1, 100410, Note_on_c, 1, 77, 127
1, 100439, Note_off_c, 1, 50, 0
1, 100439, Note_off_c, 1, 77, 0
1, 100469, Note_off_c, 1, 70, 0
1, 100469, Note_off_c, 1, 62, 0
1, 100469, Note_off_c, 1, 53, 0
1, 100470, Note_on_c, 1, 60, 127
1, 100470, Note_on_c, 1, 51, 127
1, 100470, Note_on_c, 1, 69, 127
1, 100499, Note_off_c, 1, 58, 0
1, 100499, Note_off_c, 1, 46, 0
1, 100499, Note_off_c, 1, 60, 0
1, 100499, Note_off_c, 1, 51, 0
1, 100499, Note_off_c, 1, 69, 0
1, 100500, Note_on_c, 1, 68, 127
1, 100500, Note_on_c, 1, 65, 127
1, 100500, Note_on_c, 1, 62, 127
1, 100500, Note_on_c, 1, 53, 127
1, 100500, Note_on_c, 1, 70, 127
1, 100529, Note_off_c, 1, 70, 0
1, 100530, Note_on_c, 1, 58, 127
1, 100530, Note_on_c, 1, 77, 127
1, 100559, Note_off_c, 1, 53, 0
1, 100559, Note_off_c, 1, 58, 0
1, 100559, Note_off_c, 1, 77, 0
1, 100560, Note_off_c, 1, 62, 0
1, 100560, Note_on_c, 1, 46, 127
1, 100560, Note_on_c, 1, 50, 127
1, 100589, Note_off_c, 1, 68, 0
1, 100589, Note_off_c, 1, 65, 0
1, 100590, Note_on_c, 1, 63, 127
1, 100590, Note_on_c, 1, 67, 127
1, 100619, Note_off_c, 1, 46, 0
1, 100619, Note_off_c, 1, 50, 0
1, 100619, Note_off_c, 1, 63, 0
1, 100619, Note_off_c, 1, 67, 0
1, 100620, Note_on_c, 1, 50, 127
1, 100620, Note_on_c, 1, 38, 127
1, 100620, Note_on_c, 1, 65, 127
1, 100620, Note_on_c, 1, 46, 127
1, 100620, Note_on_c, 1, 68, 127
1, 100620, Note_on_c, 1, 53, 127
1, 100649, Note_off_c, 1, 65, 0
1, 100649, Note_off_c, 1, 68, 0
1, 100650, Note_on_c, 1, 58, 127
1, 100650, Note_on_c, 1, 77, 127
1, 100679, Note_off_c, 1, 50, 0
1, 100679, Note_off_c, 1, 38, 0
1, 100679, Note_off_c, 1, 46, 0
1, 100679, Note_off_c, 1, 53, 0
1, 100679, Note_off_c, 1, 58, 0
1, 100679, Note_off_c, 1, 77, 0
1, 100680, Note_on_c, 1, 46, 127
1, 100680, Note_on_c, 1, 34, 127
1, 100680, Note_on_c, 1, 63, 127
1, 100680, Note_on_c, 1, 67, 127
1, 100680, Note_on_c, 1, 58, 127
1, 100709, Note_off_c, 1, 63, 0
1, 100709, Note_off_c, 1, 67, 0
1, 100710, Note_on_c, 1, 65, 127
1, 100739, Note_off_c, 1, 46, 0
1, 100739, Note_off_c, 1, 34, 0
1, 100739, Note_off_c, 1, 58, 0
1, 100739, Note_off_c, 1, 65, 0
1, 100740, Note_on_c, 1, 67, 127
1, 100740, Note_on_c, 1, 63, 127
1, 100740, Note_on_c, 1, 58, 127
1, 100740, Note_on_c, 1, 51, 127
1, 100740, Note_on_c, 1, 39, 127
1, 100740, Note_on_c, 1, 55, 127
1, 100799, Note_off_c, 1, 55, 0
1, 100800, Note_off_c, 1, 67, 0
1, 100800, Note_off_c, 1, 58, 0
1, 100800, Note_on_c, 1, 60, 127
1, 100829, Note_off_c, 1, 63, 0
1, 100829, Note_off_c, 1, 60, 0
1, 100830, Note_on_c, 1, 62, 127
1, 100859, Note_off_c, 1, 51, 0
1, 100859, Note_off_c, 1, 39, 0
1, 100859, Note_off_c, 1, 62, 0
1, 100860, Note_on_c, 1, 63, 127
1, 100860, Note_on_c, 1, 60, 127
1, 100889, Note_off_c, 1, 63, 0
1, 100889, Note_off_c, 1, 60, 0
1, 100890, Note_on_c, 1, 65, 127
1, 100890, Note_on_c, 1, 62, 127
1, 100919, Note_off_c, 1, 65, 0
1, 100919, Note_off_c, 1, 62, 0
1, 100920, Note_on_c, 1, 51, 127
1, 100920, Note_on_c, 1, 39, 127
1, 100920, Note_on_c, 1, 67, 127
1, 100920, Note_on_c, 1, 63, 127
1, 100949, Note_off_c, 1, 67, 0
1, 100949, Note_off_c, 1, 63, 0
1, 100950, Note_on_c, 1, 68, 127
1, 100950, Note_on_c, 1, 65, 127
1, 100979, Note_off_c, 1, 51, 0
1, 100979, Note_off_c, 1, 39, 0
1, 100979, Note_off_c, 1, 68, 0
1, 100979, Note_off_c, 1, 65, 0
1, 100980, Note_on_c, 1, 50, 127
1, 100980, Note_on_c, 1, 38, 127
1, 100980, Note_on_c, 1, 70, 127
1, 100980, Note_on_c, 1, 67, 127
1, 101009, Note_off_c, 1, 70, 0
1, 101009, Note_off_c, 1, 67, 0
1, 101010, Note_on_c, 1, 72, 127
1, 101010, Note_on_c, 1, 69, 127
1, 101039, Note_off_c, 1, 50, 0
1, 101039, Note_off_c, 1, 38, 0
1, 101039, Note_off_c, 1, 72, 0
1, 101039, Note_off_c, 1, 69, 0
1, 101040, Note_on_c, 1, 48, 127
1, 101040, Note_on_c, 1, 36, 127
1, 101040, Note_on_c, 1, 74, 127
1, 101040, Note_on_c, 1, 71, 127
1, 101069, Note_off_c, 1, 74, 0
1, 101069, Note_off_c, 1, 71, 0
1, 101070, Note_on_c, 1, 75, 127
1, 101070, Note_on_c, 1, 72, 127
1, 101099, Note_off_c, 1, 48, 0
1, 101099, Note_off_c, 1, 36, 0
1, 101099, Note_off_c, 1, 75, 0
1, 101099, Note_off_c, 1, 72, 0
1, 101100, Note_on_c, 1, 47, 127
1, 101100, Note_on_c, 1, 35, 127
1, 101100, Note_on_c, 1, 77, 127
1, 101100, Note_on_c, 1, 74, 127
1, 101129, Note_off_c, 1, 74, 0
1, 101130, Note_on_c, 1, 72, 127
1, 101159, Note_off_c, 1, 47, 0
1, 101159, Note_off_c, 1, 35, 0
1, 101159, Note_off_c, 1, 77, 0
1, 101159, Note_off_c, 1, 72, 0
1, 101160, Note_on_c, 1, 47, 127
1, 101160, Note_on_c, 1, 35, 127
1, 101160, Note_on_c, 1, 80, 127
1, 101160, Note_on_c, 1, 74, 127
1, 101189, Note_off_c, 1, 74, 0
1, 101190, Note_on_c, 1, 75, 127
1, 101219, Note_off_c, 1, 47, 0
1, 101219, Note_off_c, 1, 35, 0
1, 101219, Note_off_c, 1, 75, 0
1, 101220, Note_on_c, 1, 77, 127
1, 101279, Note_off_c, 1, 80, 0
1, 101279, Note_off_c, 1, 77, 0
1, 101280, Note_on_c, 1, 48, 127
1, 101280, Note_on_c, 1, 36, 127
1, 101280, Note_on_c, 1, 79, 127
1, 101280, Note_on_c, 1, 75, 127
1, 101339, Note_off_c, 1, 48, 0
1, 101339, Note_off_c, 1, 36, 0
1, 101339, Note_off_c, 1, 79, 0
1, 101339, Note_off_c, 1, 75, 0
1, 101340, Note_on_c, 1, 53, 127
1, 101340, Note_on_c, 1, 41, 127
1, 101340, Note_on_c, 1, 71, 127
1, 101340, Note_on_c, 1, 80, 127
1, 101399, Note_off_c, 1, 53, 0
1, 101399, Note_off_c, 1, 41, 0
1, 101399, Note_off_c, 1, 71, 0
1, 101399, Note_off_c, 1, 80, 0
1, 101400, Note_on_c, 1, 51, 127
1, 101400, Note_on_c, 1, 39, 127
1, 101400, Note_on_c, 1, 72, 127
1, 101400, Note_on_c, 1, 79, 127
1, 101459, Note_off_c, 1, 51, 0
1, 101459, Note_off_c, 1, 39, 0
1, 101459, Note_off_c, 1, 72, 0
1, 101459, Note_off_c, 1, 79, 0
1, 101460, Note_on_c, 1, 50, 127
1, 101460, Note_on_c, 1, 38, 127
1, 101460, Note_on_c, 1, 77, 127
1, 101460, Note_on_c, 1, 71, 127
1, 101489, Note_off_c, 1, 77, 0
1, 101490, Note_on_c, 1, 74, 127
1, 101519, Note_off_c, 1, 50, 0
1, 101519, Note_off_c, 1, 38, 0
1, 101519, Note_off_c, 1, 71, 0
1, 101519, Note_off_c, 1, 74, 0
1, 101520, Note_on_c, 1, 48, 127
1, 101520, Note_on_c, 1, 36, 127
1, 101520, Note_on_c, 1, 75, 127
1, 101520, Note_on_c, 1, 72, 127
1, 101579, Note_off_c, 1, 48, 0
1, 101579, Note_off_c, 1, 36, 0
1, 101579, Note_off_c, 1, 75, 0
1, 101579, Note_off_c, 1, 72, 0
1, 101580, Note_on_c, 1, 47, 127
1, 101580, Note_on_c, 1, 35, 127
1, 101580, Note_on_c, 1, 77, 127
1, 101609, Note_off_c, 1, 77, 0
1, 101610, Note_on_c, 1, 74, 127
1, 101639, Note_off_c, 1, 47, 0
1, 101639, Note_off_c, 1, 35, 0
1, 101639, Note_off_c, 1, 74, 0
1, 101640, Note_on_c, 1, 75, 127
1, 101640, Note_on_c, 1, 72, 127
1, 101640, Note_on_c, 1, 67, 127
1, 101640, Note_on_c, 1, 48, 127
1, 101640, Note_on_c, 1, 36, 127
1, 101670, Note_off_c, 1, 72, 0
1, 101670, Note_off_c, 1, 67, 0
1, 101670, Note_on_c, 1, 74, 127
1, 101670, Note_on_c, 1, 71, 127
1, 101670, Note_on_c, 1, 65, 127
1, 101699, Note_off_c, 1, 75, 0
1, 101699, Note_off_c, 1, 48, 0
1, 101699, Note_off_c, 1, 36, 0
1, 101700, Note_off_c, 1, 74, 0
1, 101700, Note_off_c, 1, 71, 0
1, 101700, Note_off_c, 1, 65, 0
1, 101760, Note_on_c, 1, 46, 127
1, 101760, Note_on_c, 1, 76, 127
1, 101789, Note_off_c, 1, 76, 0
1, 101790, Note_on_c, 1, 77, 127
1, 101819, Note_off_c, 1, 46, 0
1, 101819, Note_off_c, 1, 77, 0
1, 101820, Note_on_c, 1, 49, 127
1, 101820, Note_on_c, 1, 45, 127
1, 101820, Note_on_c, 1, 79, 127
1, 101879, Note_off_c, 1, 49, 0
1, 101879, Note_off_c, 1, 45, 0
1, 101879, Note_off_c, 1, 79, 0
1, 101880, Note_on_c, 1, 49, 127
1, 101880, Note_on_c, 1, 37, 127
1, 101880, Note_on_c, 1, 82, 127
1, 101880, Note_on_c, 1, 76, 127
1, 101909, Note_off_c, 1, 76, 0
1, 101910, Note_on_c, 1, 77, 127
1, 101939, Note_off_c, 1, 49, 0
1, 101939, Note_off_c, 1, 37, 0
1, 101939, Note_off_c, 1, 77, 0
1, 101940, Note_on_c, 1, 79, 127
1, 101999, Note_off_c, 1, 82, 0
1, 101999, Note_off_c, 1, 79, 0
1, 102000, Note_on_c, 1, 50, 127
1, 102000, Note_on_c, 1, 38, 127
1, 102000, Note_on_c, 1, 81, 127
1, 102000, Note_on_c, 1, 77, 127
1, 102059, Note_off_c, 1, 50, 0
1, 102059, Note_off_c, 1, 38, 0
1, 102059, Note_off_c, 1, 81, 0
1, 102059, Note_off_c, 1, 77, 0
1, 102060, Note_on_c, 1, 55, 127
1, 102060, Note_on_c, 1, 43, 127
1, 102060, Note_on_c, 1, 73, 127
1, 102060, Note_on_c, 1, 82, 127
1, 102119, Note_off_c, 1, 55, 0
1, 102119, Note_off_c, 1, 43, 0
1, 102119, Note_off_c, 1, 73, 0
1, 102119, Note_off_c, 1, 82, 0
1, 102120, Note_on_c, 1, 53, 127
1, 102120, Note_on_c, 1, 41, 127
1, 102120, Note_on_c, 1, 74, 127
1, 102120, Note_on_c, 1, 81, 127
1, 102179, Note_off_c, 1, 53, 0
1, 102179, Note_off_c, 1, 41, 0
1, 102179, Note_off_c, 1, 74, 0
1, 102179, Note_off_c, 1, 81, 0
1, 102180, Note_on_c, 1, 52, 127
1, 102180, Note_on_c, 1, 40, 127
1, 102180, Note_on_c, 1, 79, 127
1, 102180, Note_on_c, 1, 71, 127
1, 102209, Note_off_c, 1, 79, 0
1, 102210, Note_on_c, 1, 76, 127
1, 102239, Note_off_c, 1, 52, 0
1, 102239, Note_off_c, 1, 40, 0
1, 102239, Note_off_c, 1, 71, 0
1, 102239, Note_off_c, 1, 76, 0
1, 102240, Note_on_c, 1, 50, 127
1, 102240, Note_on_c, 1, 38, 127
1, 102240, Note_on_c, 1, 78, 127
1, 102240, Note_on_c, 1, 72, 127
1, 102299, Note_off_c, 1, 50, 0
1, 102299, Note_off_c, 1, 38, 0
1, 102299, Note_off_c, 1, 78, 0
1, 102299, Note_off_c, 1, 72, 0
1, 102300, Note_on_c, 1, 49, 127
1, 102300, Note_on_c, 1, 37, 127
1, 102300, Note_on_c, 1, 79, 127
1, 102329, Note_off_c, 1, 79, 0
1, 102330, Note_on_c, 1, 76, 127
1, 102359, Note_off_c, 1, 49, 0
1, 102359, Note_off_c, 1, 37, 0
1, 102359, Note_off_c, 1, 76, 0
1, 102360, Note_on_c, 1, 69, 127
1, 102360, Note_on_c, 1, 66, 127
1, 102360, Note_on_c, 1, 60, 127
1, 102360, Note_on_c, 1, 50, 127
1, 102360, Note_on_c, 1, 38, 127
1, 102360, Note_on_c, 1, 78, 127
1, 102379, Note_off_c, 1, 78, 0
1, 102380, Note_on_c, 1, 70, 127
1, 102380, Note_on_c, 1, 79, 127
1, 102390, Note_off_c, 1, 69, 0
1, 102390, Note_off_c, 1, 66, 0
1, 102390, Note_off_c, 1, 60, 0
1, 102390, Note_on_c, 1, 67, 127
1, 102390, Note_on_c, 1, 64, 127
1, 102390, Note_on_c, 1, 58, 127
1, 102399, Note_off_c, 1, 70, 0
1, 102399, Note_off_c, 1, 79, 0
1, 102400, Note_on_c, 1, 72, 127
1, 102400, Note_on_c, 1, 81, 127
1, 102419, Note_off_c, 1, 50, 0
1, 102419, Note_off_c, 1, 38, 0
1, 102419, Note_off_c, 1, 72, 0
1, 102419, Note_off_c, 1, 81, 0
1, 102420, Note_off_c, 1, 67, 0
1, 102420, Note_off_c, 1, 64, 0
1, 102420, Note_off_c, 1, 58, 0
1, 102420, Note_on_c, 1, 62, 127
1, 102420, Note_on_c, 1, 57, 127
1, 102420, Note_on_c, 1, 42, 127
1, 102420, Note_on_c, 1, 30, 127
1, 102440, Note_on_c, 1, 74, 127
1, 102459, Note_off_c, 1, 74, 0
1, 102460, Note_on_c, 1, 76, 127
1, 102479, Note_off_c, 1, 42, 0
1, 102479, Note_off_c, 1, 30, 0
1, 102479, Note_off_c, 1, 76, 0
1, 102480, Note_off_c, 1, 62, 0
1, 102480, Note_off_c, 1, 57, 0
1, 102480, Note_on_c, 1, 45, 127
1, 102480, Note_on_c, 1, 33, 127
1, 102539, Note_off_c, 1, 45, 0
1, 102539, Note_off_c, 1, 33, 0
1, 102540, Note_on_c, 1, 67, 127
1, 102540, Note_on_c, 1, 58, 127
1, 102540, Note_on_c, 1, 62, 127
1, 102540, Note_on_c, 1, 38, 127
1, 102540, Note_on_c, 1, 26, 127
1, 102540, Note_on_c, 1, 79, 127
1, 102540, Note_on_c, 1, 70, 127
1, 102569, Note_off_c, 1, 79, 0
1, 102570, Note_on_c, 1, 74, 127
1, 102570, Note_on_c, 1, 50, 127
1, 102570, Note_on_c, 1, 43, 127
1, 102599, Note_off_c, 1, 38, 0
1, 102599, Note_off_c, 1, 26, 0
1, 102599, Note_off_c, 1, 70, 0
1, 102599, Note_off_c, 1, 74, 0
1, 102599, Note_off_c, 1, 50, 0
1, 102600, Note_off_c, 1, 67, 0
1, 102600, Note_off_c, 1, 58, 0
1, 102600, Note_off_c, 1, 62, 0
1, 102600, Note_off_c, 1, 43, 0
1, 102600, Note_on_c, 1, 55, 127
1, 102600, Note_on_c, 1, 46, 127
1, 102629, Note_off_c, 1, 55, 0
1, 102630, Note_off_c, 1, 46, 0
1, 102740, Note_on_c, 1, 72, 127
1, 102740, Note_on_c, 1, 81, 127
1, 102759, Note_off_c, 1, 72, 0
1, 102759, Note_off_c, 1, 81, 0
1, 102760, Note_on_c, 1, 74, 127
1, 102760, Note_on_c, 1, 82, 127
1, 102779, Note_off_c, 1, 74, 0
1, 102779, Note_off_c, 1, 82, 0
1, 102780, Note_on_c, 1, 74, 127
1, 102780, Note_on_c, 1, 70, 127
1, 102799, Note_off_c, 1, 74, 0
1, 102799, Note_off_c, 1, 70, 0
1, 102800, Note_on_c, 1, 76, 127
1, 102800, Note_on_c, 1, 72, 127
1, 102819, Note_off_c, 1, 76, 0
1, 102819, Note_off_c, 1, 72, 0
1, 102820, Note_on_c, 1, 78, 127
1, 102820, Note_on_c, 1, 74, 127
1, 102839, Note_off_c, 1, 78, 0
1, 102839, Note_off_c, 1, 74, 0
1, 102840, Note_on_c, 1, 78, 127
1, 102840, Note_on_c, 1, 74, 127
1, 102859, Note_off_c, 1, 78, 0
1, 102859, Note_off_c, 1, 74, 0
1, 102860, Note_on_c, 1, 79, 127
1, 102860, Note_on_c, 1, 72, 127
1, 102879, Note_off_c, 1, 79, 0
1, 102879, Note_off_c, 1, 72, 0
1, 102880, Note_on_c, 1, 81, 127
1, 102880, Note_on_c, 1, 70, 127
1, 102899, Note_off_c, 1, 81, 0
1, 102899, Note_off_c, 1, 70, 0
1, 102900, Note_on_c, 1, 69, 127
1, 102900, Note_on_c, 1, 66, 127
1, 102900, Note_on_c, 1, 62, 127
1, 102900, Note_on_c, 1, 38, 127
1, 102900, Note_on_c, 1, 26, 127
1, 102900, Note_on_c, 1, 81, 127
1, 102900, Note_on_c, 1, 72, 127
1, 102929, Note_off_c, 1, 81, 0
1, 102930, Note_on_c, 1, 78, 127
1, 102930, Note_on_c, 1, 50, 127
1, 102930, Note_on_c, 1, 42, 127
1, 102959, Note_off_c, 1, 38, 0
1, 102959, Note_off_c, 1, 26, 0
1, 102959, Note_off_c, 1, 72, 0
1, 102959, Note_off_c, 1, 78, 0
1, 102959, Note_off_c, 1, 50, 0
1, 102960, Note_off_c, 1, 69, 0
1, 102960, Note_off_c, 1, 66, 0
1, 102960, Note_off_c, 1, 62, 0
1, 102960, Note_off_c, 1, 42, 0
1, 102960, Note_on_c, 1, 54, 127
1, 102960, Note_on_c, 1, 45, 127
1, 102989, Note_off_c, 1, 54, 0
1, 102990, Note_off_c, 1, 45, 0
1, 102990, Note_on_c, 1, 57, 127
1, 103019, Note_off_c, 1, 57, 0
1, 103080, Note_on_c, 1, 74, 127
1, 103099, Note_off_c, 1, 74, 0
1, 103100, Note_on_c, 1, 76, 127
1, 103100, Note_on_c, 1, 67, 127
1, 103119, Note_off_c, 1, 76, 0
1, 103119, Note_off_c, 1, 67, 0
1, 103120, Note_on_c, 1, 78, 127
1, 103120, Note_on_c, 1, 69, 127
1, 103139, Note_off_c, 1, 78, 0
1, 103139, Note_off_c, 1, 69, 0
1, 103140, Note_on_c, 1, 78, 127
1, 103140, Note_on_c, 1, 57, 127
1, 103159, Note_off_c, 1, 78, 0
1, 103159, Note_off_c, 1, 57, 0
1, 103160, Note_on_c, 1, 79, 127
1, 103160, Note_on_c, 1, 58, 127
1, 103179, Note_off_c, 1, 79, 0
1, 103179, Note_off_c, 1, 58, 0
1, 103180, Note_on_c, 1, 81, 127
1, 103180, Note_on_c, 1, 60, 127
1, 103199, Note_off_c, 1, 81, 0
1, 103199, Note_off_c, 1, 60, 0
1, 103200, Note_on_c, 1, 81, 127
1, 103200, Note_on_c, 1, 60, 127
1, 103219, Note_off_c, 1, 81, 0
1, 103219, Note_off_c, 1, 60, 0
1, 103220, Note_on_c, 1, 82, 127
1, 103220, Note_on_c, 1, 58, 127
1, 103239, Note_off_c, 1, 82, 0
1, 103239, Note_off_c, 1, 58, 0
1, 103240, Note_on_c, 1, 84, 127
1, 103240, Note_on_c, 1, 57, 127
1, 103259, Note_off_c, 1, 84, 0
1, 103259, Note_off_c, 1, 57, 0
1, 103260, Note_on_c, 1, 70, 127
1, 103260, Note_on_c, 1, 67, 127
1, 103260, Note_on_c, 1, 62, 127
1, 103260, Note_on_c, 1, 43, 127
1, 103260, Note_on_c, 1, 31, 127
1, 103260, Note_on_c, 1, 82, 127
1, 103260, Note_on_c, 1, 55, 127
1, 103289, Note_off_c, 1, 70, 0
1, 103289, Note_off_c, 1, 82, 0
1, 103289, Note_off_c, 1, 55, 0
1, 103290, Note_on_c, 1, 79, 127
1, 103319, Note_off_c, 1, 79, 0
1, 103320, Note_on_c, 1, 60, 127
1, 103320, Note_on_c, 1, 78, 127
1, 103320, Note_on_c, 1, 69, 127
1, 103349, Note_off_c, 1, 60, 0
1, 103349, Note_off_c, 1, 78, 0
1, 103349, Note_off_c, 1, 69, 0
1, 103379, Note_off_c, 1, 43, 0
1, 103379, Note_off_c, 1, 31, 0
1, 103380, Note_off_c, 1, 67, 0
1, 103380, Note_off_c, 1, 62, 0
1, 103380, Note_on_c, 1, 63, 127
1, 103380, Note_on_c, 1, 80, 127
1, 103380, Note_on_c, 1, 72, 127
1, 103409, Note_off_c, 1, 63, 0
1, 103409, Note_off_c, 1, 80, 0
1, 103409, Note_off_c, 1, 72, 0
1, 103410, Note_on_c, 1, 62, 127
1, 103410, Note_on_c, 1, 79, 127
1, 103410, Note_on_c, 1, 70, 127
1, 103439, Note_off_c, 1, 62, 0
1, 103439, Note_off_c, 1, 79, 0
1, 103439, Note_off_c, 1, 70, 0
1, 103440, Note_on_c, 1, 60, 127
1, 103440, Note_on_c, 1, 55, 127
1, 103440, Note_on_c, 1, 43, 127
1, 103440, Note_on_c, 1, 31, 127
1, 103440, Note_on_c, 1, 78, 127
1, 103440, Note_on_c, 1, 69, 127
1, 103469, Note_off_c, 1, 60, 0
1, 103469, Note_off_c, 1, 78, 0
1, 103469, Note_off_c, 1, 69, 0
1, 103470, Note_on_c, 1, 62, 127
1, 103470, Note_on_c, 1, 79, 127
1, 103470, Note_on_c, 1, 70, 127
1, 103499, Note_off_c, 1, 43, 0
1, 103499, Note_off_c, 1, 31, 0
1, 103499, Note_off_c, 1, 62, 0
1, 103499, Note_off_c, 1, 79, 0
1, 103499, Note_off_c, 1, 70, 0
1, 103500, Note_on_c, 1, 75, 127
1, 103500, Note_on_c, 1, 48, 127
1, 103500, Note_on_c, 1, 36, 127
1, 103529, Note_off_c, 1, 75, 0
1, 103559, Note_off_c, 1, 48, 0
1, 103559, Note_off_c, 1, 36, 0
1, 103560, Note_on_c, 1, 72, 127
1, 103560, Note_on_c, 1, 45, 127
1, 103560, Note_on_c, 1, 33, 127
1, 103589, Note_off_c, 1, 72, 0
1, 103619, Note_off_c, 1, 45, 0
1, 103619, Note_off_c, 1, 33, 0
1, 103620, Note_on_c, 1, 46, 127
1, 103620, Note_on_c, 1, 34, 127
1, 103620, Note_on_c, 1, 74, 127
1, 103649, Note_off_c, 1, 74, 0
1, 103739, Note_off_c, 1, 46, 0
1, 103739, Note_off_c, 1, 34, 0
1, 103740, Note_off_c, 1, 55, 0
1, 103740, Note_on_c, 1, 58, 127
1, 103740, Note_on_c, 1, 82, 127
1, 103740, Note_on_c, 1, 67, 127
1, 103769, Note_off_c, 1, 58, 0
1, 103769, Note_off_c, 1, 82, 0
1, 103769, Note_off_c, 1, 67, 0
1, 103770, Note_on_c, 1, 62, 127
1, 103770, Note_on_c, 1, 79, 127
1, 103770, Note_on_c, 1, 70, 127
1, 103799, Note_off_c, 1, 62, 0
1, 103799, Note_off_c, 1, 79, 0
1, 103799, Note_off_c, 1, 70, 0
1, 103800, Note_on_c, 1, 60, 127
1, 103800, Note_on_c, 1, 55, 127
1, 103800, Note_on_c, 1, 43, 127
1, 103800, Note_on_c, 1, 31, 127
1, 103800, Note_on_c, 1, 78, 127
1, 103800, Note_on_c, 1, 69, 127
1, 103829, Note_off_c, 1, 60, 0
1, 103829, Note_off_c, 1, 78, 0
1, 103829, Note_off_c, 1, 69, 0
1, 103830, Note_on_c, 1, 62, 127
1, 103830, Note_on_c, 1, 79, 127
1, 103830, Note_on_c, 1, 70, 127
1, 103859, Note_off_c, 1, 43, 0
1, 103859, Note_off_c, 1, 31, 0
1, 103859, Note_off_c, 1, 62, 0
1, 103859, Note_off_c, 1, 79, 0
1, 103859, Note_off_c, 1, 70, 0
1, 103860, Note_on_c, 1, 74, 127
1, 103860, Note_on_c, 1, 46, 127
1, 103860, Note_on_c, 1, 34, 127
1, 103889, Note_off_c, 1, 74, 0
1, 103919, Note_off_c, 1, 46, 0
1, 103919, Note_off_c, 1, 34, 0
1, 103980, Note_on_c, 1, 72, 127
1, 103980, Note_on_c, 1, 45, 127
1, 103980, Note_on_c, 1, 33, 127
1, 104009, Note_off_c, 1, 72, 0
1, 104010, Note_on_c, 1, 58, 127
1, 104010, Note_on_c, 1, 75, 127
1, 104039, Note_off_c, 1, 58, 0
1, 104039, Note_off_c, 1, 75, 0
1, 104040, Note_on_c, 1, 57, 127
1, 104069, Note_off_c, 1, 57, 0
1, 104099, Note_off_c, 1, 45, 0
1, 104099, Note_off_c, 1, 33, 0
1, 104100, Note_off_c, 1, 55, 0
1, 104130, Note_on_c, 1, 58, 127
1, 104130, Note_on_c, 1, 79, 127
1, 104130, Note_on_c, 1, 75, 127
1, 104159, Note_off_c, 1, 58, 0
1, 104159, Note_off_c, 1, 79, 0
1, 104159, Note_off_c, 1, 75, 0
1, 104160, Note_on_c, 1, 57, 127
1, 104160, Note_on_c, 1, 69, 127
1, 104160, Note_on_c, 1, 63, 127
1, 104160, Note_on_c, 1, 48, 127
1, 104160, Note_on_c, 1, 36, 127
1, 104160, Note_on_c, 1, 78, 127
1, 104160, Note_on_c, 1, 74, 127
1, 104189, Note_off_c, 1, 57, 0
1, 104189, Note_off_c, 1, 78, 0
1, 104189, Note_off_c, 1, 74, 0
1, 104190, Note_on_c, 1, 58, 127
1, 104190, Note_on_c, 1, 79, 127
1, 104190, Note_on_c, 1, 75, 127
1, 104219, Note_off_c, 1, 48, 0
1, 104219, Note_off_c, 1, 36, 0
1, 104219, Note_off_c, 1, 58, 0
1, 104219, Note_off_c, 1, 79, 0
1, 104219, Note_off_c, 1, 75, 0
1, 104220, Note_off_c, 1, 69, 0
1, 104220, Note_off_c, 1, 63, 0
1, 104220, Note_on_c, 1, 72, 127
1, 104220, Note_on_c, 1, 66, 127
1, 104220, Note_on_c, 1, 38, 127
1, 104220, Note_on_c, 1, 26, 127
1, 104249, Note_off_c, 1, 72, 0
1, 104279, Note_off_c, 1, 38, 0
1, 104279, Note_off_c, 1, 26, 0
1, 104280, Note_off_c, 1, 66, 0
1, 104280, Note_on_c, 1, 62, 127
1, 104280, Note_on_c, 1, 42, 127
1, 104280, Note_on_c, 1, 30, 127
1, 104339, Note_off_c, 1, 42, 0
1, 104339, Note_off_c, 1, 30, 0
1, 104340, Note_on_c, 1, 70, 127
1, 104340, Note_on_c, 1, 43, 127
1, 104340, Note_on_c, 1, 31, 127
1, 104369, Note_off_c, 1, 43, 0
1, 104369, Note_off_c, 1, 31, 0
1, 104370, Note_on_c, 1, 55, 127
1, 104399, Note_off_c, 1, 70, 0
1, 104399, Note_off_c, 1, 55, 0
1, 104400, Note_off_c, 1, 62, 0
1, 104400, Note_on_c, 1, 67, 127
1, 104400, Note_on_c, 1, 53, 127
1, 104400, Note_on_c, 1, 41, 127
1, 104429, Note_off_c, 1, 53, 0
1, 104429, Note_off_c, 1, 41, 0
1, 104430, Note_on_c, 1, 51, 127
1, 104430, Note_on_c, 1, 39, 127
1, 104459, Note_off_c, 1, 51, 0
1, 104459, Note_off_c, 1, 39, 0
1, 104460, Note_off_c, 1, 67, 0
1, 104460, Note_on_c, 1, 50, 127
1, 104489, Note_off_c, 1, 50, 0
1, 104520, Note_on_c, 1, 82, 127
1, 104520, Note_on_c, 1, 46, 127
1, 104520, Note_on_c, 1, 34, 127
1, 104549, Note_off_c, 1, 46, 0
1, 104549, Note_off_c, 1, 34, 0
1, 104550, Note_on_c, 1, 45, 127
1, 104550, Note_on_c, 1, 33, 127
1, 104579, Note_off_c, 1, 82, 0
1, 104579, Note_off_c, 1, 45, 0
1, 104579, Note_off_c, 1, 33, 0
1, 104580, Note_on_c, 1, 73, 127
1, 104580, Note_on_c, 1, 76, 127
1, 104595, Note_off_c, 1, 73, 0
1, 104640, Note_off_c, 1, 76, 0
1, 104640, Note_on_c, 1, 64, 127
1, 104670, Note_on_c, 1, 71, 127
1, 104685, Note_off_c, 1, 71, 0
1, 104700, Note_off_c, 1, 64, 0
1, 104760, Note_on_c, 1, 40, 127
1, 104760, Note_on_c, 1, 28, 127
1, 104789, Note_off_c, 1, 40, 0
1, 104789, Note_off_c, 1, 28, 0
1, 105150, Note_on_c, 1, 77, 127
1, 105150, Note_on_c, 1, 81, 127
1, 105179, Note_off_c, 1, 81, 0
1, 105180, Note_off_c, 1, 77, 0
1, 105420, Note_on_c, 1, 65, 127
1, 105540, Note_on_c, 1, 83, 127
1, 105569, Note_off_c, 1, 83, 0
1, 105660, Note_on_c, 1, 80, 127
1, 105719, Note_off_c, 1, 80, 0
1, 105780, Note_off_c, 1, 65, 0
1, 105780, Note_on_c, 1, 44, 127
1, 105780, Note_on_c, 1, 32, 127
1, 105840, Note_on_c, 1, 60, 127
1, 105899, Note_off_c, 1, 44, 0
1, 105899, Note_off_c, 1, 32, 0
1, 105900, Note_off_c, 1, 60, 0
1, 105900, Note_on_c, 1, 84, 127
1, 105900, Note_on_c, 1, 68, 127
1, 105929, Note_off_c, 1, 84, 0
1, 105960, Note_on_c, 1, 56, 127
1, 105990, Note_off_c, 1, 68, 0
1, 106019, Note_off_c, 1, 56, 0
1, 106080, Note_on_c, 1, 61, 127
1, 106110, Note_off_c, 1, 61, 0
1, 106500, Note_on_c, 1, 29, 127
1, 106619, Note_off_c, 1, 29, 0
1, 107820, Note_on_c, 1, 59, 127
1, 107879, Note_off_c, 1, 59, 0
1, 107940, Note_on_c, 1, 27, 127
1, 108059, Note_off_c, 1, 27, 0
1, 108960, Note_on_c, 1, 49, 127
1, 108990, Note_off_c, 1, 49, 0
1, 109800, Note_on_c, 1, 85, 127
1, 109859, Note_off_c, 1, 85, 0
1, 110130, Note_on_c, 1, 52, 127
1, 110159, Note_off_c, 1, 52, 0
1, 110190, Note_on_c, 1, 55, 127
1, 110190, Note_on_c, 1, 43, 127
1, 110190, Note_on_c, 1, 70, 127
1, 110190, Note_on_c, 1, 76, 127
1, 110219, Note_off_c, 1, 55, 0
1, 110219, Note_off_c, 1, 43, 0
1, 110219, Note_off_c, 1, 70, 0
1, 110219, Note_off_c, 1, 76, 0
1, 110220, Note_on_c, 1, 56, 127
1, 110220, Note_on_c, 1, 44, 127
1, 110220, Note_on_c, 1, 72, 127
1, 110220, Note_on_c, 1, 77, 127
1, 110249, Note_off_c, 1, 72, 0
1, 110249, Note_off_c, 1, 77, 0
1, 110250, Note_on_c, 1, 68, 127
1, 110279, Note_off_c, 1, 56, 0
1, 110279, Note_off_c, 1, 44, 0
1, 110279, Note_off_c, 1, 68, 0
1, 110280, Note_on_c, 1, 77, 127
1, 110280, Note_on_c, 1, 73, 127
1, 110280, Note_on_c, 1, 70, 127
1, 110309, Note_off_c, 1, 77, 0
1, 110309, Note_off_c, 1, 73, 0
1, 110309, Note_off_c, 1, 70, 0
1, 110310, Note_on_c, 1, 76, 127
1, 110310, Note_on_c, 1, 70, 127
1, 110310, Note_on_c, 1, 67, 127
1, 110339, Note_off_c, 1, 76, 0
1, 110339, Note_off_c, 1, 70, 0
1, 110339, Note_off_c, 1, 67, 0
1, 110340, Note_on_c, 1, 77, 127
1, 110340, Note_on_c, 1, 72, 127
1, 110340, Note_on_c, 1, 68, 127
1, 110370, Note_on_c, 1, 65, 127
1, 110399, Note_off_c, 1, 77, 0
1, 110399, Note_off_c, 1, 65, 0
1, 110400, Note_off_c, 1, 72, 0
1, 110400, Note_off_c, 1, 68, 0
1, 110400, Note_on_c, 1, 60, 127
1, 110400, Note_on_c, 1, 48, 127
1, 110400, Note_on_c, 1, 67, 127
1, 110400, Note_on_c, 1, 70, 127
1, 110429, Note_off_c, 1, 67, 0
1, 110429, Note_off_c, 1, 70, 0
1, 110430, Note_on_c, 1, 64, 127
1, 110459, Note_off_c, 1, 60, 0
1, 110459, Note_off_c, 1, 48, 0
1, 110459, Note_off_c, 1, 64, 0
1, 110460, Note_on_c, 1, 53, 127
1, 110460, Note_on_c, 1, 41, 127
1, 110460, Note_on_c, 1, 65, 127
1, 110460, Note_on_c, 1, 68, 127
1, 110489, Note_off_c, 1, 68, 0
1, 110519, Note_off_c, 1, 53, 0
1, 110519, Note_off_c, 1, 41, 0
1, 110519, Note_off_c, 1, 65, 0
1, 110520, Note_on_c, 1, 73, 127
1, 110520, Note_on_c, 1, 70, 127
1, 110520, Note_on_c, 1, 67, 127
1, 110549, Note_off_c, 1, 70, 0
1, 110549, Note_off_c, 1, 67, 0
1, 110550, Note_on_c, 1, 72, 127
1, 110550, Note_on_c, 1, 64, 127
1, 110579, Note_off_c, 1, 73, 0
1, 110579, Note_off_c, 1, 72, 0
1, 110579, Note_off_c, 1, 64, 0
1, 110580, Note_on_c, 1, 73, 127
1, 110580, Note_on_c, 1, 68, 127
1, 110580, Note_on_c, 1, 65, 127
1, 110595, Note_on_c, 1, 74, 127
1, 110610, Note_off_c, 1, 74, 0
1, 110640, Note_off_c, 1, 73, 0
1, 110640, Note_off_c, 1, 68, 0
1, 110640, Note_off_c, 1, 65, 0
1, 110640, Note_on_c, 1, 52, 127
1, 110640, Note_on_c, 1, 40, 127
1, 110640, Note_on_c, 1, 72, 127
1, 110640, Note_on_c, 1, 67, 127
1, 110669, Note_off_c, 1, 67, 0
1, 110670, Note_on_c, 1, 70, 127
1, 110699, Note_off_c, 1, 52, 0
1, 110699, Note_off_c, 1, 40, 0
1, 110699, Note_off_c, 1, 70, 0
1, 110700, Note_on_c, 1, 53, 127
1, 110700, Note_on_c, 1, 41, 127
1, 110729, Note_off_c, 1, 72, 0
1, 110759, Note_off_c, 1, 53, 0
1, 110759, Note_off_c, 1, 41, 0
1, 110760, Note_on_c, 1, 76, 127
1, 110760, Note_on_c, 1, 70, 127
1, 110760, Note_on_c, 1, 67, 127
1, 110760, Note_on_c, 1, 55, 127
1, 110760, Note_on_c, 1, 43, 127
1, 110789, Note_off_c, 1, 76, 0
1, 110789, Note_off_c, 1, 67, 0
1, 110790, Note_on_c, 1, 72, 127
1, 110790, Note_on_c, 1, 63, 127
1, 110819, Note_off_c, 1, 70, 0
1, 110819, Note_off_c, 1, 55, 0
1, 110819, Note_off_c, 1, 43, 0
1, 110819, Note_off_c, 1, 72, 0
1, 110819, Note_off_c, 1, 63, 0
1, 110820, Note_on_c, 1, 77, 127
1, 110820, Note_on_c, 1, 72, 127
1, 110820, Note_on_c, 1, 60, 127
1, 110820, Note_on_c, 1, 56, 127
1, 110820, Note_on_c, 1, 44, 127
1, 110850, Note_on_c, 1, 76, 127
1, 110879, Note_off_c, 1, 77, 0
1, 110879, Note_off_c, 1, 72, 0
1, 110879, Note_off_c, 1, 60, 0
1, 110879, Note_off_c, 1, 56, 0
1, 110879, Note_off_c, 1, 44, 0
1, 110879, Note_off_c, 1, 76, 0
1, 110880, Note_on_c, 1, 56, 127
1, 110880, Note_on_c, 1, 43, 127
1, 110880, Note_on_c, 1, 77, 127
1, 110880, Note_on_c, 1, 74, 127
1, 110909, Note_off_c, 1, 56, 0
1, 110909, Note_off_c, 1, 74, 0
1, 110910, Note_on_c, 1, 55, 127
1, 110910, Note_on_c, 1, 76, 127
1, 110939, Note_off_c, 1, 43, 0
1, 110939, Note_off_c, 1, 55, 0
1, 110939, Note_off_c, 1, 76, 0
1, 110940, Note_on_c, 1, 44, 127
1, 110969, Note_off_c, 1, 77, 0
1, 110970, Note_on_c, 1, 79, 127
1, 110999, Note_off_c, 1, 44, 0
1, 110999, Note_off_c, 1, 79, 0
1, 111000, Note_on_c, 1, 80, 127
1, 111000, Note_on_c, 1, 77, 127
1, 111000, Note_on_c, 1, 72, 127
1, 111000, Note_on_c, 1, 53, 127
1, 111000, Note_on_c, 1, 41, 127
1, 111029, Note_off_c, 1, 80, 0
1, 111029, Note_off_c, 1, 77, 0
1, 111029, Note_off_c, 1, 72, 0
1, 111030, Note_on_c, 1, 79, 127
1, 111030, Note_on_c, 1, 76, 127
1, 111030, Note_on_c, 1, 73, 127
1, 111059, Note_off_c, 1, 53, 0
1, 111059, Note_off_c, 1, 41, 0
1, 111059, Note_off_c, 1, 79, 0
1, 111059, Note_off_c, 1, 76, 0
1, 111059, Note_off_c, 1, 73, 0
1, 111060, Note_on_c, 1, 82, 127
1, 111060, Note_on_c, 1, 77, 127
1, 111060, Note_on_c, 1, 70, 127
1, 111060, Note_on_c, 1, 61, 127
1, 111060, Note_on_c, 1, 49, 127
1, 111090, Note_on_c, 1, 80, 127
1, 111119, Note_off_c, 1, 82, 0
1, 111119, Note_off_c, 1, 77, 0
1, 111119, Note_off_c, 1, 70, 0
1, 111119, Note_off_c, 1, 61, 0
1, 111119, Note_off_c, 1, 49, 0
1, 111119, Note_off_c, 1, 80, 0
1, 111120, Note_on_c, 1, 49, 127
1, 111120, Note_on_c, 1, 37, 127
1, 111120, Note_on_c, 1, 79, 127
1, 111120, Note_on_c, 1, 77, 127
1, 111149, Note_off_c, 1, 79, 0
1, 111179, Note_off_c, 1, 49, 0
1, 111179, Note_off_c, 1, 37, 0
1, 111179, Note_off_c, 1, 77, 0
1, 111180, Note_on_c, 1, 83, 127
1, 111180, Note_on_c, 1, 77, 127
1, 111195, Note_off_c, 1, 77, 0
1, 111195, Note_on_c, 1, 79, 127
1, 111209, Note_off_c, 1, 83, 0
1, 111210, Note_off_c, 1, 79, 0
1, 111210, Note_on_c, 1, 84, 127
1, 111239, Note_off_c, 1, 84, 0
1, 111240, Note_on_c, 1, 84, 127
1, 111240, Note_on_c, 1, 79, 127
1, 111240, Note_on_c, 1, 64, 127
1, 111240, Note_on_c, 1, 48, 127
1, 111240, Note_on_c, 1, 36, 127
1, 111240, Note_on_c, 1, 72, 127
1, 111240, Note_on_c, 1, 76, 127
1, 111269, Note_off_c, 1, 84, 0
1, 111269, Note_off_c, 1, 79, 0
1, 111269, Note_off_c, 1, 64, 0
1, 111270, Note_on_c, 1, 83, 127
1, 111270, Note_on_c, 1, 77, 127
1, 111270, Note_on_c, 1, 62, 127
1, 111299, Note_off_c, 1, 48, 0
1, 111299, Note_off_c, 1, 36, 0
1, 111299, Note_off_c, 1, 72, 0
1, 111299, Note_off_c, 1, 76, 0
1, 111299, Note_off_c, 1, 83, 0
1, 111299, Note_off_c, 1, 77, 0
1, 111299, Note_off_c, 1, 62, 0
1, 111300, Note_on_c, 1, 84, 127
1, 111300, Note_on_c, 1, 79, 127
1, 111300, Note_on_c, 1, 64, 127
1, 111300, Note_on_c, 1, 52, 127
1, 111300, Note_on_c, 1, 40, 127
1, 111329, Note_off_c, 1, 84, 0
1, 111329, Note_off_c, 1, 79, 0
1, 111329, Note_off_c, 1, 64, 0
1, 111330, Note_on_c, 1, 76, 127
1, 111330, Note_on_c, 1, 60, 127
1, 111359, Note_off_c, 1, 52, 0
1, 111359, Note_off_c, 1, 40, 0
1, 111359, Note_off_c, 1, 76, 0
1, 111359, Note_off_c, 1, 60, 0
1, 111360, Note_on_c, 1, 76, 127
1, 111360, Note_on_c, 1, 72, 127
1, 111360, Note_on_c, 1, 55, 127
1, 111360, Note_on_c, 1, 43, 127
1, 111389, Note_off_c, 1, 76, 0
1, 111389, Note_off_c, 1, 72, 0
1, 111390, Note_on_c, 1, 79, 127
1, 111390, Note_on_c, 1, 60, 127
1, 111419, Note_off_c, 1, 55, 0
1, 111419, Note_off_c, 1, 43, 0
1, 111419, Note_off_c, 1, 79, 0
1, 111419, Note_off_c, 1, 60, 0
1, 111420, Note_on_c, 1, 72, 127
1, 111420, Note_on_c, 1, 67, 127
1, 111420, Note_on_c, 1, 64, 127
1, 111420, Note_on_c, 1, 60, 127
1, 111420, Note_on_c, 1, 48, 127
1, 111479, Note_off_c, 1, 72, 0
1, 111479, Note_off_c, 1, 67, 0
1, 111479, Note_off_c, 1, 64, 0
1, 111479, Note_off_c, 1, 60, 0
1, 111479, Note_off_c, 1, 48, 0
1, 111480, Note_on_c, 1, 46, 127
1, 111480, Note_on_c, 1, 34, 127
1, 111480, Note_on_c, 1, 72, 127
1, 111509, Note_off_c, 1, 72, 0
1, 111510, Note_on_c, 1, 73, 127
1, 111539, Note_off_c, 1, 46, 0
1, 111539, Note_off_c, 1, 34, 0
1, 111539, Note_off_c, 1, 73, 0
1, 111540, Note_on_c, 1, 45, 127
1, 111540, Note_on_c, 1, 33, 127
1, 111540, Note_on_c, 1, 75, 127
1, 111599, Note_off_c, 1, 45, 0
1, 111599, Note_off_c, 1, 33, 0
1, 111599, Note_off_c, 1, 75, 0
1, 111600, Note_on_c, 1, 45, 127
1, 111600, Note_on_c, 1, 33, 127
1, 111600, Note_on_c, 1, 78, 127
1, 111600, Note_on_c, 1, 72, 127
1, 111629, Note_off_c, 1, 72, 0
1, 111630, Note_on_c, 1, 73, 127
1, 111659, Note_off_c, 1, 45, 0
1, 111659, Note_off_c, 1, 33, 0
1, 111659, Note_off_c, 1, 73, 0
1, 111660, Note_on_c, 1, 75, 127
1, 111719, Note_off_c, 1, 78, 0
1, 111719, Note_off_c, 1, 75, 0
1, 111720, Note_on_c, 1, 46, 127
1, 111720, Note_on_c, 1, 34, 127
1, 111720, Note_on_c, 1, 77, 127
1, 111720, Note_on_c, 1, 73, 127
1, 111779, Note_off_c, 1, 46, 0
1, 111779, Note_off_c, 1, 34, 0
1, 111779, Note_off_c, 1, 77, 0
1, 111779, Note_off_c, 1, 73, 0
1, 111780, Note_on_c, 1, 51, 127
1, 111780, Note_on_c, 1, 39, 127
1, 111780, Note_on_c, 1, 69, 127
1, 111780, Note_on_c, 1, 78, 127
1, 111839, Note_off_c, 1, 51, 0
1, 111839, Note_off_c, 1, 39, 0
1, 111839, Note_off_c, 1, 69, 0
1, 111839, Note_off_c, 1, 78, 0
1, 111840, Note_on_c, 1, 49, 127
1, 111840, Note_on_c, 1, 37, 127
1, 111840, Note_on_c, 1, 70, 127
1, 111840, Note_on_c, 1, 77, 127
1, 111899, Note_off_c, 1, 49, 0
1, 111899, Note_off_c, 1, 37, 0
1, 111899, Note_off_c, 1, 70, 0
1, 111899, Note_off_c, 1, 77, 0
1, 111900, Note_on_c, 1, 48, 127
1, 111900, Note_on_c, 1, 36, 127
1, 111900, Note_on_c, 1, 75, 127
1, 111900, Note_on_c, 1, 69, 127
1, 111929, Note_off_c, 1, 75, 0
1, 111930, Note_on_c, 1, 72, 127
1, 111959, Note_off_c, 1, 48, 0
1, 111959, Note_off_c, 1, 36, 0
1, 111959, Note_off_c, 1, 69, 0
1, 111959, Note_off_c, 1, 72, 0
1, 111960, Note_on_c, 1, 46, 127
1, 111960, Note_on_c, 1, 34, 127
1, 111960, Note_on_c, 1, 73, 127
1, 111960, Note_on_c, 1, 70, 127
1, 112019, Note_off_c, 1, 46, 0
1, 112019, Note_off_c, 1, 34, 0
1, 112019, Note_off_c, 1, 73, 0
1, 112019, Note_off_c, 1, 70, 0
1, 112020, Note_on_c, 1, 45, 127
1, 112020, Note_on_c, 1, 33, 127
1, 112020, Note_on_c, 1, 75, 127
1, 112049, Note_off_c, 1, 75, 0
1, 112050, Note_on_c, 1, 72, 127
1, 112079, Note_off_c, 1, 45, 0
1, 112079, Note_off_c, 1, 33, 0
1, 112079, Note_off_c, 1, 72, 0
1, 112080, Note_on_c, 1, 73, 127
1, 112080, Note_on_c, 1, 70, 127
1, 112080, Note_on_c, 1, 65, 127
1, 112080, Note_on_c, 1, 46, 127
1, 112080, Note_on_c, 1, 34, 127
1, 112110, Note_off_c, 1, 70, 0
1, 112110, Note_off_c, 1, 65, 0
1, 112110, Note_on_c, 1, 72, 127
1, 112110, Note_on_c, 1, 69, 127
1, 112110, Note_on_c, 1, 63, 127
1, 112139, Note_off_c, 1, 73, 0
1, 112139, Note_off_c, 1, 46, 0
1, 112139, Note_off_c, 1, 34, 0
1, 112140, Note_off_c, 1, 72, 0
1, 112140, Note_off_c, 1, 69, 0
1, 112140, Note_off_c, 1, 63, 0
1, 112140, Note_on_c, 1, 58, 127
1, 112199, Note_off_c, 1, 58, 0
1, 112200, Note_on_c, 1, 46, 127
1, 112200, Note_on_c, 1, 44, 127
1, 112200, Note_on_c, 1, 74, 127
1, 112229, Note_off_c, 1, 74, 0
1, 112230, Note_on_c, 1, 75, 127
1, 112259, Note_off_c, 1, 46, 0
1, 112259, Note_off_c, 1, 44, 0
1, 112259, Note_off_c, 1, 75, 0
1, 112260, Note_on_c, 1, 47, 127
1, 112260, Note_on_c, 1, 43, 127
1, 112260, Note_on_c, 1, 77, 127
1, 112319, Note_off_c, 1, 47, 0
1, 112319, Note_off_c, 1, 43, 0
1, 112319, Note_off_c, 1, 77, 0
1, 112320, Note_on_c, 1, 47, 127
1, 112320, Note_on_c, 1, 35, 127
1, 112320, Note_on_c, 1, 80, 127
1, 112320, Note_on_c, 1, 74, 127
1, 112349, Note_off_c, 1, 74, 0
1, 112350, Note_on_c, 1, 75, 127
1, 112379, Note_off_c, 1, 47, 0
1, 112379, Note_off_c, 1, 35, 0
1, 112379, Note_off_c, 1, 75, 0
1, 112380, Note_on_c, 1, 77, 127
1, 112439, Note_off_c, 1, 80, 0
1, 112439, Note_off_c, 1, 77, 0
1, 112440, Note_on_c, 1, 48, 127
1, 112440, Note_on_c, 1, 36, 127
1, 112440, Note_on_c, 1, 79, 127
1, 112440, Note_on_c, 1, 75, 127
1, 112499, Note_off_c, 1, 48, 0
1, 112499, Note_off_c, 1, 36, 0
1, 112499, Note_off_c, 1, 79, 0
1, 112499, Note_off_c, 1, 75, 0
1, 112500, Note_on_c, 1, 53, 127
1, 112500, Note_on_c, 1, 41, 127
1, 112500, Note_on_c, 1, 71, 127
1, 112500, Note_on_c, 1, 80, 127
1, 112559, Note_off_c, 1, 53, 0
1, 112559, Note_off_c, 1, 41, 0
1, 112559, Note_off_c, 1, 71, 0
1, 112559, Note_off_c, 1, 80, 0
1, 112560, Note_on_c, 1, 51, 127
1, 112560, Note_on_c, 1, 39, 127
1, 112560, Note_on_c, 1, 72, 127
1, 112560, Note_on_c, 1, 79, 127
1, 112619, Note_off_c, 1, 51, 0
1, 112619, Note_off_c, 1, 39, 0
1, 112619, Note_off_c, 1, 72, 0
1, 112619, Note_off_c, 1, 79, 0
1, 112620, Note_on_c, 1, 50, 127
1, 112620, Note_on_c, 1, 38, 127
1, 112620, Note_on_c, 1, 77, 127
1, 112620, Note_on_c, 1, 71, 127
1, 112649, Note_off_c, 1, 77, 0
1, 112650, Note_on_c, 1, 74, 127
1, 112679, Note_off_c, 1, 50, 0
1, 112679, Note_off_c, 1, 38, 0
1, 112679, Note_off_c, 1, 71, 0
1, 112679, Note_off_c, 1, 74, 0
1, 112680, Note_on_c, 1, 48, 127
1, 112680, Note_on_c, 1, 36, 127
1, 112680, Note_on_c, 1, 76, 127
1, 112680, Note_on_c, 1, 72, 127
1, 112739, Note_off_c, 1, 48, 0
1, 112739, Note_off_c, 1, 36, 0
1, 112739, Note_off_c, 1, 76, 0
1, 112739, Note_off_c, 1, 72, 0
1, 112740, Note_on_c, 1, 47, 127
1, 112740, Note_on_c, 1, 35, 127
1, 112740, Note_on_c, 1, 77, 127
1, 112769, Note_off_c, 1, 77, 0
1, 112770, Note_on_c, 1, 74, 127
1, 112799, Note_off_c, 1, 47, 0
1, 112799, Note_off_c, 1, 35, 0
1, 112799, Note_off_c, 1, 74, 0
1, 112800, Note_on_c, 1, 76, 127
1, 112800, Note_on_c, 1, 72, 127
1, 112800, Note_on_c, 1, 67, 127
1, 112800, Note_on_c, 1, 48, 127
1, 112800, Note_on_c, 1, 36, 127
1, 112830, Note_off_c, 1, 72, 0
1, 112830, Note_off_c, 1, 67, 0
1, 112830, Note_on_c, 1, 74, 127
1, 112830, Note_on_c, 1, 71, 127
1, 112830, Note_on_c, 1, 65, 127
1, 112859, Note_off_c, 1, 76, 0
1, 112859, Note_off_c, 1, 48, 0
1, 112859, Note_off_c, 1, 36, 0
1, 112860, Note_off_c, 1, 74, 0
1, 112860, Note_off_c, 1, 71, 0
1, 112860, Note_off_c, 1, 65, 0
1, 112860, Note_on_c, 1, 60, 127
1, 112919, Note_off_c, 1, 60, 0
1, 112920, Note_on_c, 1, 84, 127
1, 112920, Note_on_c, 1, 79, 127
1, 112920, Note_on_c, 1, 64, 127
1, 112920, Note_on_c, 1, 58, 127
1, 112920, Note_on_c, 1, 46, 127
1, 112950, Note_off_c, 1, 84, 0
1, 112950, Note_on_c, 1, 83, 127
1, 112979, Note_off_c, 1, 58, 0
1, 112979, Note_off_c, 1, 46, 0
1, 112980, Note_off_c, 1, 79, 0
1, 112980, Note_off_c, 1, 64, 0
1, 112980, Note_off_c, 1, 83, 0
1, 112980, Note_on_c, 1, 77, 127
1, 112980, Note_on_c, 1, 56, 127
1, 112980, Note_on_c, 1, 44, 127
1, 113039, Note_off_c, 1, 56, 0
1, 113039, Note_off_c, 1, 44, 0
1, 113040, Note_off_c, 1, 77, 0
1, 113040, Note_on_c, 1, 53, 127
1, 113040, Note_on_c, 1, 41, 127
1, 113040, Note_on_c, 1, 80, 127
1, 113069, Note_off_c, 1, 80, 0
1, 113099, Note_off_c, 1, 53, 0
1, 113099, Note_off_c, 1, 41, 0
1, 113100, Note_on_c, 1, 79, 127
1, 113100, Note_on_c, 1, 84, 127
1, 113129, Note_off_c, 1, 79, 0
1, 113129, Note_off_c, 1, 84, 0
1, 113130, Note_on_c, 1, 76, 127
1, 113130, Note_on_c, 1, 79, 127
1, 113159, Note_off_c, 1, 76, 0
1, 113159, Note_off_c, 1, 79, 0
1, 113160, Note_on_c, 1, 84, 127
1, 113160, Note_on_c, 1, 80, 127
1, 113160, Note_on_c, 1, 65, 127
1, 113160, Note_on_c, 1, 53, 127
1, 113160, Note_on_c, 1, 41, 127
1, 113160, Note_on_c, 1, 77, 127
1, 113189, Note_off_c, 1, 77, 0
1, 113190, Note_off_c, 1, 84, 0
1, 113190, Note_off_c, 1, 80, 0
1, 113190, Note_on_c, 1, 83, 127
1, 113190, Note_on_c, 1, 74, 127
1, 113219, Note_off_c, 1, 53, 0
1, 113219, Note_off_c, 1, 41, 0
1, 113219, Note_off_c, 1, 74, 0
1, 113220, Note_off_c, 1, 65, 0
1, 113220, Note_off_c, 1, 83, 0
1, 113220, Note_on_c, 1, 79, 127
1, 113220, Note_on_c, 1, 60, 127
1, 113220, Note_on_c, 1, 58, 127
1, 113220, Note_on_c, 1, 46, 127
1, 113220, Note_on_c, 1, 76, 127
1, 113249, Note_off_c, 1, 76, 0
1, 113250, Note_on_c, 1, 72, 127
1, 113279, Note_off_c, 1, 58, 0
1, 113279, Note_off_c, 1, 46, 0
1, 113279, Note_off_c, 1, 72, 0
1, 113280, Note_off_c, 1, 79, 0
1, 113280, Note_off_c, 1, 60, 0
1, 113280, Note_on_c, 1, 56, 127
1, 113280, Note_on_c, 1, 44, 127
1, 113339, Note_off_c, 1, 56, 0
1, 113339, Note_off_c, 1, 44, 0
1, 113340, Note_on_c, 1, 55, 127
1, 113340, Note_on_c, 1, 43, 127
1, 113340, Note_on_c, 1, 82, 127
1, 113369, Note_off_c, 1, 82, 0
1, 113370, Note_on_c, 1, 79, 127
1, 113399, Note_off_c, 1, 55, 0
1, 113399, Note_off_c, 1, 43, 0
1, 113399, Note_off_c, 1, 79, 0
1, 113400, Note_on_c, 1, 72, 127
1, 113400, Note_on_c, 1, 65, 127
1, 113400, Note_on_c, 1, 53, 127
1, 113400, Note_on_c, 1, 41, 127
1, 113400, Note_on_c, 1, 80, 127
1, 113400, Note_on_c, 1, 84, 127
1, 113429, Note_off_c, 1, 80, 0
1, 113429, Note_off_c, 1, 84, 0
1, 113430, Note_off_c, 1, 72, 0
1, 113430, Note_on_c, 1, 71, 127
1, 113430, Note_on_c, 1, 74, 127
1, 113430, Note_on_c, 1, 77, 127
1, 113459, Note_off_c, 1, 53, 0
1, 113459, Note_off_c, 1, 41, 0
1, 113459, Note_off_c, 1, 77, 0
1, 113460, Note_off_c, 1, 65, 0
1, 113460, Note_off_c, 1, 71, 0
1, 113460, Note_off_c, 1, 74, 0
1, 113460, Note_on_c, 1, 76, 127
1, 113460, Note_on_c, 1, 60, 127
1, 113460, Note_on_c, 1, 79, 127
1, 113460, Note_on_c, 1, 82, 127
1, 113489, Note_off_c, 1, 79, 0
1, 113489, Note_off_c, 1, 82, 0
1, 113520, Note_off_c, 1, 76, 0
1, 113520, Note_off_c, 1, 60, 0
1, 113520, Note_on_c, 1, 48, 127
1, 113520, Note_on_c, 1, 36, 127
1, 113579, Note_off_c, 1, 48, 0
1, 113579, Note_off_c, 1, 36, 0
1, 113580, Note_on_c, 1, 60, 127
1, 113580, Note_on_c, 1, 48, 127
1, 113580, Note_on_c, 1, 76, 127
1, 113580, Note_on_c, 1, 79, 127
1, 113609, Note_off_c, 1, 60, 0
1, 113609, Note_off_c, 1, 48, 0
1, 113609, Note_off_c, 1, 76, 0
1, 113609, Note_off_c, 1, 79, 0
1, 113610, Note_on_c, 1, 58, 127
1, 113610, Note_on_c, 1, 46, 127
1, 113610, Note_on_c, 1, 72, 127
1, 113610, Note_on_c, 1, 76, 127
1, 113639, Note_off_c, 1, 58, 0
1, 113639, Note_off_c, 1, 46, 0
1, 113639, Note_off_c, 1, 72, 0
1, 113639, Note_off_c, 1, 76, 0
1, 113640, Note_on_c, 1, 70, 127
1, 113640, Note_on_c, 1, 75, 127
1, 113640, Note_on_c, 1, 60, 127
1, 113640, Note_on_c, 1, 56, 127
1, 113640, Note_on_c, 1, 44, 127
1, 113640, Note_on_c, 1, 76, 127
1, 113640, Note_on_c, 1, 72, 127
1, 113669, Note_off_c, 1, 56, 0
1, 113669, Note_off_c, 1, 44, 0
1, 113669, Note_off_c, 1, 76, 0
1, 113670, Note_on_c, 1, 55, 127
1, 113670, Note_on_c, 1, 43, 127
1, 113670, Note_on_c, 1, 79, 127
1, 113699, Note_off_c, 1, 72, 0
1, 113699, Note_off_c, 1, 55, 0
1, 113699, Note_off_c, 1, 43, 0
1, 113699, Note_off_c, 1, 79, 0
1, 113700, Note_off_c, 1, 70, 0
1, 113700, Note_off_c, 1, 75, 0
1, 113700, Note_on_c, 1, 68, 127
1, 113700, Note_on_c, 1, 77, 127
1, 113700, Note_on_c, 1, 53, 127
1, 113700, Note_on_c, 1, 41, 127
1, 113700, Note_on_c, 1, 80, 127
1, 113759, Note_off_c, 1, 80, 0
1, 113760, Note_off_c, 1, 60, 0
1, 113760, Note_off_c, 1, 68, 0
1, 113760, Note_off_c, 1, 77, 0
1, 113819, Note_off_c, 1, 53, 0
1, 113819, Note_off_c, 1, 41, 0
1, 113820, Note_on_c, 1, 72, 127
1, 113879, Note_off_c, 1, 72, 0
1, 113880, Note_on_c, 1, 41, 127
1, 113880, Note_on_c, 1, 29, 127
1, 113880, Note_on_c, 1, 80, 127
1, 113880, Note_on_c, 1, 53, 127
1, 113939, Note_off_c, 1, 41, 0
1, 113939, Note_off_c, 1, 29, 0
1, 113939, Note_off_c, 1, 80, 0
1, 113939, Note_off_c, 1, 53, 0
1, 113940, Note_on_c, 1, 43, 127
1, 113940, Note_on_c, 1, 31, 127
1, 113940, Note_on_c, 1, 76, 127
1, 113940, Note_on_c, 1, 55, 127
1, 113999, Note_off_c, 1, 43, 0
1, 113999, Note_off_c, 1, 31, 0
1, 113999, Note_off_c, 1, 76, 0
1, 113999, Note_off_c, 1, 55, 0
1, 114000, Note_on_c, 1, 44, 127
1, 114000, Note_on_c, 1, 32, 127
1, 114000, Note_on_c, 1, 77, 127
1, 114000, Note_on_c, 1, 56, 127
1, 114059, Note_off_c, 1, 44, 0
1, 114059, Note_off_c, 1, 32, 0
1, 114059, Note_off_c, 1, 77, 0
1, 114059, Note_off_c, 1, 56, 0
1, 114060, Note_on_c, 1, 46, 127
1, 114060, Note_on_c, 1, 34, 127
1, 114060, Note_on_c, 1, 58, 127
1, 114089, Note_off_c, 1, 46, 0
1, 114089, Note_off_c, 1, 34, 0
1, 114089, Note_off_c, 1, 58, 0
1, 114090, Note_on_c, 1, 48, 127
1, 114090, Note_on_c, 1, 36, 127
1, 114090, Note_on_c, 1, 60, 127
1, 114119, Note_off_c, 1, 48, 0
1, 114119, Note_off_c, 1, 36, 0
1, 114119, Note_off_c, 1, 60, 0
1, 114120, Note_on_c, 1, 49, 127
1, 114120, Note_on_c, 1, 37, 127
1, 114120, Note_on_c, 1, 70, 127
1, 114120, Note_on_c, 1, 61, 127
1, 114149, Note_off_c, 1, 70, 0
1, 114150, Note_on_c, 1, 68, 127
1, 114179, Note_off_c, 1, 49, 0
1, 114179, Note_off_c, 1, 37, 0
1, 114179, Note_off_c, 1, 61, 0
1, 114179, Note_off_c, 1, 68, 0
1, 114180, Note_on_c, 1, 70, 127
1, 114239, Note_off_c, 1, 70, 0
1, 114240, Note_on_c, 1, 46, 127
1, 114240, Note_on_c, 1, 34, 127
1, 114240, Note_on_c, 1, 79, 127
1, 114240, Note_on_c, 1, 58, 127
1, 114299, Note_off_c, 1, 46, 0
1, 114299, Note_off_c, 1, 34, 0
1, 114299, Note_off_c, 1, 58, 0
1, 114300, Note_on_c, 1, 48, 127
1, 114300, Note_on_c, 1, 36, 127
1, 114300, Note_on_c, 1, 60, 127
1, 114329, Note_off_c, 1, 79, 0
1, 114330, Note_on_c, 1, 77, 127
1, 114359, Note_off_c, 1, 48, 0
1, 114359, Note_off_c, 1, 36, 0
1, 114359, Note_off_c, 1, 60, 0
1, 114359, Note_off_c, 1, 77, 0
1, 114360, Note_on_c, 1, 49, 127
1, 114360, Note_on_c, 1, 37, 127
1, 114360, Note_on_c, 1, 76, 127
1, 114360, Note_on_c, 1, 61, 127
1, 114389, Note_off_c, 1, 76, 0
1, 114390, Note_on_c, 1, 77, 127
1, 114419, Note_off_c, 1, 49, 0
1, 114419, Note_off_c, 1, 37, 0
1, 114419, Note_off_c, 1, 61, 0
1, 114419, Note_off_c, 1, 77, 0
1, 114420, Note_on_c, 1, 40, 127
1, 114420, Note_on_c, 1, 28, 127
1, 114420, Note_on_c, 1, 79, 127
1, 114420, Note_on_c, 1, 52, 127
1, 114449, Note_off_c, 1, 40, 0
1, 114449, Note_off_c, 1, 28, 0
1, 114449, Note_off_c, 1, 79, 0
1, 114449, Note_off_c, 1, 52, 0
1, 114450, Note_on_c, 1, 41, 127
1, 114450, Note_on_c, 1, 29, 127
1, 114450, Note_on_c, 1, 77, 127
1, 114450, Note_on_c, 1, 53, 127
1, 114479, Note_off_c, 1, 41, 0
1, 114479, Note_off_c, 1, 29, 0
1, 114479, Note_off_c, 1, 77, 0
1, 114479, Note_off_c, 1, 53, 0
1, 114480, Note_on_c, 1, 43, 127
1, 114480, Note_on_c, 1, 31, 127
1, 114480, Note_on_c, 1, 76, 127
1, 114480, Note_on_c, 1, 55, 127
1, 114509, Note_off_c, 1, 76, 0
1, 114510, Note_on_c, 1, 74, 127
1, 114539, Note_off_c, 1, 43, 0
1, 114539, Note_off_c, 1, 31, 0
1, 114539, Note_off_c, 1, 55, 0
1, 114539, Note_off_c, 1, 74, 0
1, 114540, Note_on_c, 1, 72, 127
1, 114569, Note_off_c, 1, 72, 0
1, 114570, Note_on_c, 1, 70, 127
1, 114599, Note_off_c, 1, 70, 0
1, 114600, Note_on_c, 1, 52, 127
1, 114600, Note_on_c, 1, 40, 127
1, 114600, Note_on_c, 1, 73, 127
1, 114659, Note_off_c, 1, 52, 0
1, 114659, Note_off_c, 1, 40, 0
1, 114660, Note_on_c, 1, 53, 127
1, 114660, Note_on_c, 1, 41, 127
1, 114719, Note_off_c, 1, 73, 0
1, 114719, Note_off_c, 1, 53, 0
1, 114719, Note_off_c, 1, 41, 0
1, 114720, Note_on_c, 1, 55, 127
1, 114720, Note_on_c, 1, 43, 127
1, 114720, Note_on_c, 1, 72, 127
1, 114779, Note_off_c, 1, 55, 0
1, 114779, Note_off_c, 1, 43, 0
1, 114780, Note_on_c, 1, 56, 127
1, 114780, Note_on_c, 1, 44, 127
1, 114809, Note_off_c, 1, 72, 0
1, 114809, Note_off_c, 1, 56, 0
1, 114809, Note_off_c, 1, 44, 0
1, 114810, Note_on_c, 1, 58, 127
1, 114810, Note_on_c, 1, 46, 127
1, 114810, Note_on_c, 1, 70, 127
1, 114839, Note_off_c, 1, 58, 0
1, 114839, Note_off_c, 1, 46, 0
1, 114839, Note_off_c, 1, 70, 0
1, 114840, Note_on_c, 1, 65, 127
1, 114840, Note_on_c, 1, 60, 127
1, 114840, Note_on_c, 1, 56, 127
1, 114840, Note_on_c, 1, 48, 127
1, 114840, Note_on_c, 1, 68, 127
1, 114869, Note_off_c, 1, 68, 0
1, 114870, Note_off_c, 1, 65, 0
1, 114870, Note_off_c, 1, 56, 0
1, 114870, Note_on_c, 1, 67, 127
1, 114870, Note_on_c, 1, 61, 127
1, 114870, Note_on_c, 1, 58, 127
1, 114899, Note_off_c, 1, 60, 0
1, 114899, Note_off_c, 1, 48, 0
1, 114900, Note_off_c, 1, 67, 0
1, 114900, Note_off_c, 1, 61, 0
1, 114900, Note_off_c, 1, 58, 0
1, 114960, Note_on_c, 1, 36, 127
1, 114990, Note_on_c, 1, 64, 127
1, 115019, Note_off_c, 1, 36, 0
1, 115019, Note_off_c, 1, 64, 0
1, 115020, Note_on_c, 1, 44, 127
1, 115020, Note_on_c, 1, 32, 127
1, 115020, Note_on_c, 1, 65, 127
1, 115049, Note_off_c, 1, 65, 0
1, 115050, Note_on_c, 1, 60, 127
1, 115079, Note_off_c, 1, 44, 0
1, 115079, Note_off_c, 1, 32, 0
1, 115079, Note_off_c, 1, 60, 0
1, 115080, Note_on_c, 1, 68, 127
1, 115080, Note_on_c, 1, 65, 127
1, 115080, Note_on_c, 1, 60, 127
1, 115080, Note_on_c, 1, 48, 127
1, 115080, Note_on_c, 1, 36, 127
1, 115110, Note_off_c, 1, 68, 0
1, 115110, Note_off_c, 1, 65, 0
1, 115110, Note_off_c, 1, 60, 0
1, 115110, Note_on_c, 1, 70, 127
1, 115110, Note_on_c, 1, 67, 127
1, 115110, Note_on_c, 1, 61, 127
1, 115110, Note_on_c, 1, 64, 127
1, 115139, Note_off_c, 1, 48, 0
1, 115139, Note_off_c, 1, 36, 0
1, 115139, Note_off_c, 1, 64, 0
1, 115140, Note_off_c, 1, 70, 0
1, 115140, Note_off_c, 1, 67, 0
1, 115140, Note_off_c, 1, 61, 0
1, 115140, Note_on_c, 1, 41, 127
1, 115140, Note_on_c, 1, 29, 127
1, 115200, Note_on_c, 1, 72, 127
1, 115200, Note_on_c, 1, 53, 127
1, 115229, Note_off_c, 1, 72, 0
1, 115259, Note_off_c, 1, 41, 0
1, 115259, Note_off_c, 1, 29, 0
1, 115260, Note_off_c, 1, 53, 0
1, 115320, Note_on_c, 1, 41, 127
1, 115320, Note_on_c, 1, 29, 127
1, 115320, Note_on_c, 1, 80, 127
1, 115320, Note_on_c, 1, 53, 127
1, 115320, Note_on_c, 1, 72, 127
1, 115320, Note_on_c, 1, 56, 127
1, 115349, Note_off_c, 1, 72, 0
1, 115350, Note_on_c, 1, 68, 127
1, 115379, Note_off_c, 1, 41, 0
1, 115379, Note_off_c, 1, 29, 0
1, 115379, Note_off_c, 1, 80, 0
1, 115379, Note_off_c, 1, 53, 0
1, 115379, Note_off_c, 1, 56, 0
1, 115379, Note_off_c, 1, 68, 0
1, 115380, Note_on_c, 1, 48, 127
1, 115380, Note_on_c, 1, 36, 127
1, 115380, Note_on_c, 1, 76, 127
1, 115380, Note_on_c, 1, 55, 127
1, 115380, Note_on_c, 1, 70, 127
1, 115409, Note_off_c, 1, 70, 0
1, 115410, Note_on_c, 1, 67, 127
1, 115439, Note_off_c, 1, 48, 0
1, 115439, Note_off_c, 1, 36, 0
1, 115439, Note_off_c, 1, 76, 0
1, 115439, Note_off_c, 1, 55, 0
1, 115439, Note_off_c, 1, 67, 0
1, 115440, Note_on_c, 1, 53, 127
1, 115440, Note_on_c, 1, 41, 127
1, 115440, Note_on_c, 1, 77, 127
1, 115440, Note_on_c, 1, 56, 127
1, 115440, Note_on_c, 1, 68, 127
1, 115469, Note_off_c, 1, 68, 0
1, 115470, Note_on_c, 1, 65, 127
1, 115499, Note_off_c, 1, 53, 0
1, 115499, Note_off_c, 1, 41, 0
1, 115499, Note_off_c, 1, 77, 0
1, 115499, Note_off_c, 1, 56, 0
1, 115499, Note_off_c, 1, 65, 0
1, 115500, Note_on_c, 1, 48, 127
1, 115500, Note_on_c, 1, 36, 127
1, 115500, Note_on_c, 1, 55, 127
1, 115500, Note_on_c, 1, 64, 127
1, 115500, Note_on_c, 1, 60, 127
1, 115529, Note_off_c, 1, 55, 0
1, 115529, Note_off_c, 1, 64, 0
1, 115530, Note_on_c, 1, 53, 127
1, 115530, Note_on_c, 1, 72, 127
1, 115559, Note_off_c, 1, 60, 0
1, 115559, Note_off_c, 1, 53, 0
1, 115559, Note_off_c, 1, 72, 0
1, 115560, Note_on_c, 1, 70, 127
1, 115560, Note_on_c, 1, 52, 127
1, 115560, Note_on_c, 1, 79, 127
1, 115589, Note_off_c, 1, 70, 0
1, 115589, Note_off_c, 1, 79, 0
1, 115590, Note_on_c, 1, 68, 127
1, 115590, Note_on_c, 1, 77, 127
1, 115619, Note_off_c, 1, 48, 0
1, 115619, Note_off_c, 1, 36, 0
1, 115619, Note_off_c, 1, 52, 0
1, 115619, Note_off_c, 1, 68, 0
1, 115619, Note_off_c, 1, 77, 0
1, 115620, Note_on_c, 1, 70, 127
1, 115620, Note_on_c, 1, 79, 127
1, 115649, Note_off_c, 1, 79, 0
1, 115650, Note_on_c, 1, 72, 127
1, 115679, Note_off_c, 1, 72, 0
1, 115680, Note_off_c, 1, 70, 0
1, 115680, Note_on_c, 1, 48, 127
1, 115680, Note_on_c, 1, 36, 127
1, 115680, Note_on_c, 1, 64, 127
1, 115680, Note_on_c, 1, 82, 127
1, 115680, Note_on_c, 1, 55, 127
1, 115709, Note_off_c, 1, 82, 0
1, 115710, Note_on_c, 1, 81, 127
1, 115739, Note_off_c, 1, 48, 0
1, 115739, Note_off_c, 1, 36, 0
1, 115739, Note_off_c, 1, 64, 0
1, 115739, Note_off_c, 1, 55, 0
1, 115739, Note_off_c, 1, 81, 0
1, 115740, Note_on_c, 1, 52, 127
1, 115740, Note_on_c, 1, 40, 127
1, 115740, Note_on_c, 1, 60, 127
1, 115770, Note_on_c, 1, 77, 127
1, 115799, Note_off_c, 1, 52, 0
1, 115799, Note_off_c, 1, 40, 0
1, 115799, Note_off_c, 1, 60, 0
1, 115799, Note_off_c, 1, 77, 0
1, 115800, Note_on_c, 1, 55, 127
1, 115800, Note_on_c, 1, 43, 127
1, 115800, Note_on_c, 1, 76, 127
1, 115800, Note_on_c, 1, 84, 127
1, 115800, Note_on_c, 1, 48, 127
1, 115829, Note_off_c, 1, 76, 0
1, 115829, Note_off_c, 1, 84, 0
1, 115830, Note_on_c, 1, 77, 127
1, 115830, Note_on_c, 1, 80, 127
1, 115859, Note_off_c, 1, 55, 0
1, 115859, Note_off_c, 1, 43, 0
1, 115859, Note_off_c, 1, 48, 0
1, 115859, Note_off_c, 1, 77, 0
1, 115859, Note_off_c, 1, 80, 0
1, 115860, Note_on_c, 1, 60, 127
1, 115860, Note_on_c, 1, 48, 127
1, 115860, Note_on_c, 1, 79, 127
1, 115860, Note_on_c, 1, 52, 127
1, 115860, Note_on_c, 1, 82, 127
1, 115889, Note_off_c, 1, 79, 0
1, 115890, Note_on_c, 1, 77, 127
1, 115919, Note_off_c, 1, 52, 0
1, 115919, Note_off_c, 1, 82, 0
1, 115919, Note_off_c, 1, 77, 0
1, 115920, Note_on_c, 1, 76, 127
1, 115920, Note_on_c, 1, 55, 127
1, 115949, Note_off_c, 1, 76, 0
1, 115950, Note_on_c, 1, 74, 127
1, 115979, Note_off_c, 1, 48, 0
1, 115979, Note_off_c, 1, 55, 0
1, 115979, Note_off_c, 1, 74, 0
1, 115980, Note_on_c, 1, 72, 127
1, 116009, Note_off_c, 1, 72, 0
1, 116010, Note_on_c, 1, 70, 127
1, 116010, Note_on_c, 1, 62, 127
1, 116039, Note_off_c, 1, 60, 0
1, 116039, Note_off_c, 1, 70, 0
1, 116039, Note_off_c, 1, 62, 0
1, 116040, Note_on_c, 1, 55, 127
1, 116040, Note_on_c, 1, 43, 127
1, 116040, Note_on_c, 1, 73, 127
1, 116040, Note_on_c, 1, 64, 127
1, 116069, Note_off_c, 1, 64, 0
1, 116070, Note_on_c, 1, 65, 127
1, 116099, Note_off_c, 1, 55, 0
1, 116099, Note_off_c, 1, 43, 0
1, 116099, Note_off_c, 1, 65, 0
1, 116100, Note_on_c, 1, 52, 127
1, 116100, Note_on_c, 1, 40, 127
1, 116100, Note_on_c, 1, 67, 127
1, 116129, Note_off_c, 1, 67, 0
1, 116130, Note_on_c, 1, 68, 127
1, 116159, Note_off_c, 1, 73, 0
1, 116159, Note_off_c, 1, 52, 0
1, 116159, Note_off_c, 1, 40, 0
1, 116159, Note_off_c, 1, 68, 0
1, 116160, Note_on_c, 1, 48, 127
1, 116160, Note_on_c, 1, 36, 127
1, 116160, Note_on_c, 1, 72, 127
1, 116160, Note_on_c, 1, 70, 127
1, 116189, Note_off_c, 1, 70, 0
1, 116190, Note_on_c, 1, 67, 127
1, 116219, Note_off_c, 1, 48, 0
1, 116219, Note_off_c, 1, 36, 0
1, 116219, Note_off_c, 1, 67, 0
1, 116220, Note_on_c, 1, 53, 127
1, 116220, Note_on_c, 1, 41, 127
1, 116220, Note_on_c, 1, 68, 127
1, 116249, Note_off_c, 1, 72, 0
1, 116249, Note_off_c, 1, 68, 0
1, 116250, Note_on_c, 1, 73, 127
1, 116279, Note_off_c, 1, 73, 0
1, 116280, Note_on_c, 1, 65, 127
1, 116339, Note_off_c, 1, 53, 0
1, 116339, Note_off_c, 1, 41, 0
1, 116400, Note_off_c, 1, 65, 0
1, 116430, Note_on_c, 1, 64, 127
1, 116459, Note_off_c, 1, 64, 0
1, 116460, Note_on_c, 1, 44, 127
1, 116460, Note_on_c, 1, 32, 127
1, 116460, Note_on_c, 1, 65, 127
1, 116460, Note_on_c, 1, 68, 127
1, 116489, Note_off_c, 1, 65, 0
1, 116489, Note_off_c, 1, 68, 0
1, 116490, Note_on_c, 1, 60, 127
1, 116490, Note_on_c, 1, 72, 127
1, 116519, Note_off_c, 1, 44, 0
1, 116519, Note_off_c, 1, 32, 0
1, 116519, Note_off_c, 1, 60, 0
1, 116519, Note_off_c, 1, 72, 0
1, 116520, Note_on_c, 1, 77, 127
1, 116520, Note_on_c, 1, 72, 127
1, 116520, Note_on_c, 1, 68, 127
1, 116520, Note_on_c, 1, 48, 127
1, 116520, Note_on_c, 1, 36, 127
1, 116520, Note_on_c, 1, 65, 127
1, 116549, Note_off_c, 1, 65, 0
1, 116550, Note_off_c, 1, 77, 0
1, 116550, Note_off_c, 1, 72, 0
1, 116550, Note_off_c, 1, 68, 0
1, 116550, Note_on_c, 1, 79, 127
1, 116550, Note_on_c, 1, 73, 127
1, 116550, Note_on_c, 1, 70, 127
1, 116550, Note_on_c, 1, 64, 127
1, 116550, Note_on_c, 1, 67, 127
1, 116579, Note_off_c, 1, 48, 0
1, 116579, Note_off_c, 1, 36, 0
1, 116579, Note_off_c, 1, 64, 0
1, 116579, Note_off_c, 1, 67, 0
1, 116580, Note_off_c, 1, 79, 0
1, 116580, Note_off_c, 1, 73, 0
1, 116580, Note_off_c, 1, 70, 0
1, 116580, Note_on_c, 1, 41, 127
1, 116580, Note_on_c, 1, 29, 127
1, 116580, Note_on_c, 1, 53, 127
1, 116610, Note_on_c, 1, 60, 127
1, 116639, Note_off_c, 1, 53, 0
1, 116639, Note_off_c, 1, 60, 0
1, 116670, Note_on_c, 1, 58, 127
1, 116699, Note_off_c, 1, 41, 0
1, 116699, Note_off_c, 1, 29, 0
1, 116699, Note_off_c, 1, 58, 0
1, 116700, Note_on_c, 1, 84, 127
1, 116700, Note_on_c, 1, 75, 127
1, 116700, Note_on_c, 1, 69, 127
1, 116700, Note_on_c, 1, 60, 127
1, 116700, Note_on_c, 1, 65, 127
1, 116729, Note_off_c, 1, 65, 0
1, 116730, Note_on_c, 1, 72, 127
1, 116759, Note_off_c, 1, 60, 0
1, 116759, Note_off_c, 1, 72, 0
1, 116760, Note_off_c, 1, 84, 0
1, 116760, Note_off_c, 1, 75, 0
1, 116760, Note_off_c, 1, 69, 0
1, 116760, Note_on_c, 1, 53, 127
1, 116760, Note_on_c, 1, 41, 127
1, 116760, Note_on_c, 1, 57, 127
1, 116760, Note_on_c, 1, 63, 127
1, 116789, Note_off_c, 1, 63, 0
1, 116790, Note_on_c, 1, 70, 127
1, 116790, Note_on_c, 1, 61, 127
1, 116819, Note_off_c, 1, 53, 0
1, 116819, Note_off_c, 1, 41, 0
1, 116819, Note_off_c, 1, 57, 0
1, 116819, Note_off_c, 1, 70, 0
1, 116819, Note_off_c, 1, 61, 0
1, 116820, Note_on_c, 1, 57, 127
1, 116820, Note_on_c, 1, 45, 127
1, 116820, Note_on_c, 1, 72, 127
1, 116820, Note_on_c, 1, 53, 127
1, 116820, Note_on_c, 1, 63, 127
1, 116820, Note_on_c, 1, 48, 127
1, 116849, Note_off_c, 1, 72, 0
1, 116849, Note_off_c, 1, 63, 0
1, 116850, Note_on_c, 1, 65, 127
1, 116879, Note_off_c, 1, 57, 0
1, 116879, Note_off_c, 1, 45, 0
1, 116879, Note_off_c, 1, 53, 0
1, 116879, Note_off_c, 1, 48, 0
1, 116879, Note_off_c, 1, 65, 0
1, 116880, Note_on_c, 1, 53, 127
1, 116880, Note_on_c, 1, 41, 127
1, 116880, Note_on_c, 1, 70, 127
1, 116880, Note_on_c, 1, 61, 127
1, 116909, Note_off_c, 1, 70, 0
1, 116909, Note_off_c, 1, 61, 0
1, 116910, Note_on_c, 1, 72, 127
1, 116910, Note_on_c, 1, 60, 127
1, 116939, Note_off_c, 1, 53, 0
1, 116939, Note_off_c, 1, 41, 0
1, 116939, Note_off_c, 1, 72, 0
1, 116939, Note_off_c, 1, 60, 0
1, 116940, Note_on_c, 1, 82, 127
1, 116940, Note_on_c, 1, 73, 127
1, 116940, Note_on_c, 1, 65, 127
1, 116940, Note_on_c, 1, 58, 127
1, 116940, Note_on_c, 1, 46, 127
1, 116940, Note_on_c, 1, 49, 127
1, 116970, Note_on_c, 1, 77, 127
1, 116970, Note_on_c, 1, 53, 127
1, 116999, Note_off_c, 1, 49, 0
1, 116999, Note_off_c, 1, 77, 0
1, 116999, Note_off_c, 1, 53, 0
1, 117000, Note_off_c, 1, 82, 0
1, 117000, Note_off_c, 1, 73, 0
1, 117000, Note_off_c, 1, 65, 0
1, 117000, Note_on_c, 1, 70, 127
1, 117000, Note_on_c, 1, 61, 127
1, 117029, Note_off_c, 1, 70, 0
1, 117029, Note_off_c, 1, 61, 0
1, 117030, Note_on_c, 1, 69, 127
1, 117030, Note_on_c, 1, 60, 127
1, 117030, Note_on_c, 1, 51, 127
1, 117059, Note_off_c, 1, 58, 0
1, 117059, Note_off_c, 1, 46, 0
1, 117059, Note_off_c, 1, 69, 0
1, 117059, Note_off_c, 1, 60, 0
1, 117060, Note_off_c, 1, 51, 0
1, 117060, Note_on_c, 1, 80, 127
1, 117060, Note_on_c, 1, 74, 127
1, 117060, Note_on_c, 1, 62, 127
1, 117089, Note_off_c, 1, 62, 0
1, 117120, Note_off_c, 1, 80, 0
1, 117120, Note_off_c, 1, 74, 0
1, 117120, Note_on_c, 1, 34, 127
1, 117120, Note_on_c, 1, 68, 127
1, 117120, Note_on_c, 1, 50, 127
1, 117149, Note_off_c, 1, 68, 0
1, 117150, Note_on_c, 1, 67, 127
1, 117150, Note_on_c, 1, 63, 127
1, 117179, Note_off_c, 1, 34, 0
1, 117179, Note_off_c, 1, 50, 0
1, 117179, Note_off_c, 1, 67, 0
1, 117179, Note_off_c, 1, 63, 0
1, 117180, Note_on_c, 1, 50, 127
1, 117180, Note_on_c, 1, 38, 127
1, 117180, Note_on_c, 1, 68, 127
1, 117180, Note_on_c, 1, 53, 127
1, 117180, Note_on_c, 1, 65, 127
1, 117180, Note_on_c, 1, 46, 127
1, 117209, Note_off_c, 1, 68, 0
1, 117209, Note_off_c, 1, 65, 0
1, 117210, Note_on_c, 1, 77, 127
1, 117210, Note_on_c, 1, 62, 127
1, 117239, Note_off_c, 1, 50, 0
1, 117239, Note_off_c, 1, 38, 0
1, 117239, Note_off_c, 1, 53, 0
1, 117239, Note_off_c, 1, 46, 0
1, 117239, Note_off_c, 1, 77, 0
1, 117239, Note_off_c, 1, 62, 0
1, 117240, Note_on_c, 1, 46, 127
1, 117240, Note_on_c, 1, 34, 127
1, 117240, Note_on_c, 1, 67, 127
1, 117240, Note_on_c, 1, 58, 127
1, 117269, Note_off_c, 1, 67, 0
1, 117270, Note_on_c, 1, 65, 127
1, 117270, Note_on_c, 1, 69, 127
1, 117299, Note_off_c, 1, 46, 0
1, 117299, Note_off_c, 1, 34, 0
1, 117299, Note_off_c, 1, 58, 0
1, 117299, Note_off_c, 1, 65, 0
1, 117299, Note_off_c, 1, 69, 0
1, 117300, Note_on_c, 1, 79, 127
1, 117300, Note_on_c, 1, 71, 127
1, 117300, Note_on_c, 1, 62, 127
1, 117300, Note_on_c, 1, 43, 127
1, 117300, Note_on_c, 1, 31, 127
1, 117300, Note_on_c, 1, 67, 127
1, 117300, Note_on_c, 1, 59, 127
1, 117300, Note_on_c, 1, 55, 127
1, 117329, Note_off_c, 1, 67, 0
1, 117330, Note_on_c, 1, 74, 127
1, 117359, Note_off_c, 1, 59, 0
1, 117359, Note_off_c, 1, 74, 0
1, 117360, Note_off_c, 1, 79, 0
1, 117389, Note_off_c, 1, 71, 0
1, 117389, Note_off_c, 1, 62, 0
1, 117390, Note_on_c, 1, 69, 127
1, 117390, Note_on_c, 1, 60, 127
1, 117390, Note_on_c, 1, 66, 127
1, 117419, Note_off_c, 1, 43, 0
1, 117419, Note_off_c, 1, 31, 0
1, 117419, Note_off_c, 1, 55, 0
1, 117419, Note_off_c, 1, 69, 0
1, 117419, Note_off_c, 1, 60, 0
1, 117419, Note_off_c, 1, 66, 0
1, 117420, Note_on_c, 1, 77, 127
1, 117420, Note_on_c, 1, 74, 127
1, 117420, Note_on_c, 1, 67, 127
1, 117420, Note_on_c, 1, 71, 127
1, 117420, Note_on_c, 1, 62, 127
1, 117449, Note_off_c, 1, 71, 0
1, 117479, Note_off_c, 1, 62, 0
1, 117480, Note_off_c, 1, 77, 0
1, 117480, Note_off_c, 1, 67, 0
1, 117480, Note_on_c, 1, 55, 127
1, 117480, Note_on_c, 1, 43, 127
1, 117480, Note_on_c, 1, 59, 127
1, 117480, Note_on_c, 1, 65, 127
1, 117509, Note_off_c, 1, 74, 0
1, 117509, Note_off_c, 1, 65, 0
1, 117510, Note_on_c, 1, 72, 127
1, 117510, Note_on_c, 1, 63, 127
1, 117539, Note_off_c, 1, 55, 0
1, 117539, Note_off_c, 1, 43, 0
1, 117539, Note_off_c, 1, 59, 0
1, 117539, Note_off_c, 1, 72, 0
1, 117539, Note_off_c, 1, 63, 0
1, 117540, Note_on_c, 1, 59, 127
1, 117540, Note_on_c, 1, 47, 127
1, 117540, Note_on_c, 1, 74, 127
1, 117540, Note_on_c, 1, 55, 127
1, 117540, Note_on_c, 1, 65, 127
1, 117540, Note_on_c, 1, 50, 127
1, 117569, Note_off_c, 1, 74, 0
1, 117569, Note_off_c, 1, 65, 0
1, 117570, Note_on_c, 1, 67, 127
1, 117599, Note_off_c, 1, 59, 0
1, 117599, Note_off_c, 1, 47, 0
1, 117599, Note_off_c, 1, 55, 0
1, 117599, Note_off_c, 1, 50, 0
1, 117599, Note_off_c, 1, 67, 0
1, 117600, Note_on_c, 1, 55, 127
1, 117600, Note_on_c, 1, 43, 127
1, 117600, Note_on_c, 1, 72, 127
1, 117600, Note_on_c, 1, 63, 127
1, 117629, Note_off_c, 1, 72, 0
1, 117629, Note_off_c, 1, 63, 0
1, 117630, Note_on_c, 1, 74, 127
1, 117630, Note_on_c, 1, 62, 127
1, 117659, Note_off_c, 1, 55, 0
1, 117659, Note_off_c, 1, 43, 0
1, 117659, Note_off_c, 1, 74, 0
1, 117659, Note_off_c, 1, 62, 0
1, 117660, Note_on_c, 1, 75, 127
1, 117660, Note_on_c, 1, 72, 127
1, 117660, Note_on_c, 1, 67, 127
1, 117660, Note_on_c, 1, 60, 127
1, 117660, Note_on_c, 1, 48, 127
1, 117690, Note_on_c, 1, 79, 127
1, 117690, Note_on_c, 1, 55, 127
1, 117690, Note_on_c, 1, 47, 127
1, 117719, Note_off_c, 1, 79, 0
1, 117719, Note_off_c, 1, 55, 0
1, 117720, Note_off_c, 1, 75, 0
1, 117720, Note_off_c, 1, 67, 0
1, 117720, Note_off_c, 1, 47, 0
1, 117720, Note_on_c, 1, 63, 127
1, 117749, Note_off_c, 1, 72, 0
1, 117749, Note_off_c, 1, 63, 0
1, 117750, Note_on_c, 1, 71, 127
1, 117750, Note_on_c, 1, 62, 127
1, 117750, Note_on_c, 1, 50, 127
1, 117779, Note_off_c, 1, 60, 0
1, 117779, Note_off_c, 1, 48, 0
1, 117779, Note_off_c, 1, 71, 0
1, 117779, Note_off_c, 1, 62, 0
1, 117780, Note_off_c, 1, 50, 0
1, 117780, Note_on_c, 1, 66, 127
1, 117780, Note_on_c, 1, 69, 127
1, 117810, Note_on_c, 1, 81, 127
1, 117839, Note_off_c, 1, 81, 0
1, 117840, Note_off_c, 1, 66, 0
1, 117840, Note_on_c, 1, 57, 127
1, 117840, Note_on_c, 1, 45, 127
1, 117869, Note_off_c, 1, 69, 0
1, 117899, Note_off_c, 1, 57, 0
1, 117899, Note_off_c, 1, 45, 0
1, 117900, Note_on_c, 1, 54, 127
1, 117900, Note_on_c, 1, 42, 127
1, 117900, Note_on_c, 1, 72, 127
1, 117900, Note_on_c, 1, 57, 127
1, 117900, Note_on_c, 1, 69, 127
1, 117929, Note_off_c, 1, 72, 0
1, 117929, Note_off_c, 1, 69, 0
1, 117930, Note_on_c, 1, 81, 127
1, 117930, Note_on_c, 1, 62, 127
1, 117959, Note_off_c, 1, 54, 0
1, 117959, Note_off_c, 1, 42, 0
1, 117959, Note_off_c, 1, 57, 0
1, 117959, Note_off_c, 1, 81, 0
1, 117959, Note_off_c, 1, 62, 0
1, 117960, Note_on_c, 1, 50, 127
1, 117960, Note_on_c, 1, 38, 127
1, 117960, Note_on_c, 1, 70, 127
1, 117960, Note_on_c, 1, 54, 127
1, 117960, Note_on_c, 1, 67, 127
1, 117989, Note_off_c, 1, 70, 0
1, 117989, Note_off_c, 1, 67, 0
1, 117990, Note_on_c, 1, 69, 127
1, 118019, Note_off_c, 1, 50, 0
1, 118019, Note_off_c, 1, 38, 0
1, 118019, Note_off_c, 1, 54, 0
1, 118019, Note_off_c, 1, 69, 0
1, 118020, Note_on_c, 1, 70, 127
1, 118020, Note_on_c, 1, 62, 127
1, 118020, Note_on_c, 1, 67, 127
1, 118020, Note_on_c, 1, 43, 127
1, 118020, Note_on_c, 1, 31, 127
1, 118020, Note_on_c, 1, 55, 127
1, 118050, Note_off_c, 1, 55, 0
1, 118080, Note_off_c, 1, 70, 0
1, 118080, Note_off_c, 1, 62, 0
1, 118080, Note_on_c, 1, 74, 127
1, 118080, Note_on_c, 1, 46, 127
1, 118109, Note_off_c, 1, 67, 0
1, 118109, Note_off_c, 1, 74, 0
1, 118110, Note_off_c, 1, 46, 0
1, 118110, Note_on_c, 1, 79, 127
1, 118110, Note_on_c, 1, 50, 127
1, 118139, Note_off_c, 1, 43, 0
1, 118139, Note_off_c, 1, 31, 0
1, 118139, Note_off_c, 1, 79, 0
1, 118140, Note_off_c, 1, 50, 0
1, 118140, Note_on_c, 1, 75, 127
1, 118140, Note_on_c, 1, 82, 127
1, 118140, Note_on_c, 1, 63, 127
1, 118169, Note_off_c, 1, 82, 0
1, 118199, Note_off_c, 1, 63, 0
1, 118200, Note_on_c, 1, 34, 127
1, 118200, Note_on_c, 1, 80, 127
1, 118200, Note_on_c, 1, 48, 127
1, 118229, Note_off_c, 1, 80, 0
1, 118229, Note_off_c, 1, 48, 0
1, 118230, Note_on_c, 1, 77, 127
1, 118259, Note_off_c, 1, 34, 0
1, 118259, Note_off_c, 1, 77, 0
1, 118260, Note_on_c, 1, 39, 127
1, 118260, Note_on_c, 1, 27, 127
1, 118260, Note_on_c, 1, 51, 127
1, 118289, Note_off_c, 1, 75, 0
1, 118290, Note_on_c, 1, 72, 127
1, 118319, Note_off_c, 1, 39, 0
1, 118319, Note_off_c, 1, 27, 0
1, 118319, Note_off_c, 1, 72, 0
1, 118320, Note_off_c, 1, 51, 0
1, 118320, Note_on_c, 1, 53, 127
1, 118350, Note_off_c, 1, 53, 0
1, 118350, Note_on_c, 1, 71, 127
1, 118379, Note_off_c, 1, 71, 0
1, 118380, Note_on_c, 1, 68, 127
1, 118380, Note_on_c, 1, 44, 127
1, 118380, Note_on_c, 1, 32, 127
1, 118380, Note_on_c, 1, 56, 127
1, 118410, Note_off_c, 1, 56, 0
1, 118469, Note_off_c, 1, 68, 0
1, 118499, Note_off_c, 1, 44, 0
1, 118499, Note_off_c, 1, 32, 0
1, 118500, Note_on_c, 1, 84, 127
1, 118500, Note_on_c, 1, 65, 127
1, 118529, Note_off_c, 1, 84, 0
1, 118559, Note_off_c, 1, 65, 0
1, 118560, Note_on_c, 1, 36, 127
1, 118619, Note_off_c, 1, 36, 0
1, 118620, Note_on_c, 1, 41, 127
1, 118620, Note_on_c, 1, 29, 127
1, 118620, Note_on_c, 1, 81, 127
1, 118679, Note_off_c, 1, 41, 0
1, 118679, Note_off_c, 1, 29, 0
1, 118679, Note_off_c, 1, 81, 0
1, 118680, Note_on_c, 1, 45, 127
1, 118680, Note_on_c, 1, 33, 127
1, 118710, Note_on_c, 1, 57, 127
1, 118739, Note_off_c, 1, 45, 0
1, 118739, Note_off_c, 1, 33, 0
1, 118740, Note_off_c, 1, 57, 0
1, 118740, Note_on_c, 1, 58, 127
1, 118770, Note_off_c, 1, 58, 0
1, 118860, Note_on_c, 1, 59, 127
1, 118860, Note_on_c, 1, 86, 127
1, 118889, Note_off_c, 1, 86, 0
1, 118890, Note_on_c, 1, 83, 127
1, 118919, Note_off_c, 1, 83, 0
1, 118920, Note_off_c, 1, 59, 0
1, 118920, Note_on_c, 1, 38, 127
1, 118979, Note_off_c, 1, 38, 0
1, 119040, Note_on_c, 1, 47, 127
1, 119040, Note_on_c, 1, 35, 127
1, 119040, Note_on_c, 1, 86, 127
1, 119040, Note_on_c, 1, 57, 127
1, 119040, Note_on_c, 1, 77, 127
1, 119040, Note_on_c, 1, 43, 127
1, 119069, Note_off_c, 1, 57, 0
1, 119069, Note_off_c, 1, 77, 0
1, 119070, Note_on_c, 1, 59, 127
1, 119070, Note_on_c, 1, 74, 127
1, 119099, Note_off_c, 1, 47, 0
1, 119099, Note_off_c, 1, 35, 0
1, 119099, Note_off_c, 1, 43, 0
1, 119099, Note_off_c, 1, 59, 0
1, 119099, Note_off_c, 1, 74, 0
1, 119100, Note_on_c, 1, 75, 127
1, 119100, Note_on_c, 1, 72, 127
1, 119100, Note_on_c, 1, 67, 127
1, 119100, Note_on_c, 1, 48, 127
1, 119100, Note_on_c, 1, 36, 127
1, 119100, Note_on_c, 1, 60, 127
1, 119129, Note_off_c, 1, 86, 0
1, 119159, Note_off_c, 1, 60, 0
1, 119160, Note_off_c, 1, 75, 0
1, 119160, Note_on_c, 1, 51, 127
1, 119189, Note_off_c, 1, 51, 0
1, 119190, Note_off_c, 1, 72, 0
1, 119190, Note_on_c, 1, 71, 127
1, 119190, Note_on_c, 1, 55, 127
1, 119219, Note_off_c, 1, 67, 0
1, 119219, Note_off_c, 1, 48, 0
1, 119219, Note_off_c, 1, 36, 0
1, 119219, Note_off_c, 1, 55, 0
1, 119220, Note_off_c, 1, 71, 0
1, 119220, Note_on_c, 1, 63, 127
1, 119279, Note_off_c, 1, 63, 0
1, 119310, Note_on_c, 1, 65, 127
1, 119340, Note_off_c, 1, 65, 0
1, 119430, Note_on_c, 1, 62, 127
1, 119460, Note_off_c, 1, 62, 0
1, 119460, Note_on_c, 1, 64, 127
1, 119460, Note_on_c, 1, 58, 127
1, 119520, Note_off_c, 1, 64, 0
1, 119520, Note_on_c, 1, 76, 127
1, 119579, Note_off_c, 1, 76, 0
1, 119580, Note_on_c, 1, 79, 127
1, 119639, Note_off_c, 1, 79, 0
1, 119640, Note_on_c, 1, 82, 127
1, 119699, Note_off_c, 1, 82, 0
1, 119700, Note_on_c, 1, 85, 127
1, 119759, Note_off_c, 1, 85, 0
1, 119760, Note_on_c, 1, 84, 127
1, 119819, Note_off_c, 1, 84, 0
1, 119820, Note_off_c, 1, 58, 0
1, 119820, Note_on_c, 1, 49, 127
1, 119820, Note_on_c, 1, 37, 127
1, 119820, Note_on_c, 1, 56, 127
1, 119880, Note_off_c, 1, 56, 0
1, 119880, Note_on_c, 1, 68, 127
1, 119880, Note_on_c, 1, 53, 127
1, 119910, Note_off_c, 1, 68, 0
1, 119939, Note_off_c, 1, 49, 0
1, 119939, Note_off_c, 1, 37, 0
1, 119940, Note_off_c, 1, 53, 0
1, 119940, Note_on_c, 1, 61, 127
1, 119970, Note_on_c, 1, 73, 127
1, 119999, Note_off_c, 1, 73, 0
1, 120000, Note_on_c, 1, 70, 127
1, 120029, Note_off_c, 1, 70, 0
1, 120059, Note_off_c, 1, 61, 0
1, 120120, Note_on_c, 1, 54, 127
1, 120150, Note_off_c, 1, 54, 0
1, 120300, Note_on_c, 1, 69, 127
1, 120359, Note_off_c, 1, 69, 0
1, 120420, Note_on_c, 1, 66, 127
1, 120479, Note_off_c, 1, 66, 0
1, 120540, Note_on_c, 1, 46, 127
1, 120540, Note_on_c, 1, 34, 127
1, 120659, Note_off_c, 1, 46, 0
1, 120659, Note_off_c, 1, 34, 0
1, 121080, Note_on_c, 1, 80, 127
1, 121139, Note_off_c, 1, 80, 0
1, 121140, Note_on_c, 1, 83, 127
1, 121199, Note_off_c, 1, 83, 0
1, 121980, Note_on_c, 1, 44, 127
1, 121980, Note_on_c, 1, 32, 127
1, 122099, Note_off_c, 1, 44, 0
1, 122099, Note_off_c, 1, 32, 0
1, 122340, Note_on_c, 1, 31, 127
1, 122459, Note_off_c, 1, 31, 0
1, 122700, Note_on_c, 1, 41, 127
1, 122700, Note_on_c, 1, 29, 127
1, 122819, Note_off_c, 1, 41, 0
1, 122819, Note_off_c, 1, 29, 0
1, 122880, Note_on_c, 1, 71, 127
1, 122880, Note_on_c, 1, 43, 127
1, 122880, Note_on_c, 1, 31, 127
1, 122880, Note_on_c, 1, 77, 127
1, 122880, Note_on_c, 1, 74, 127
1, 122909, Note_off_c, 1, 71, 0
1, 122939, Note_off_c, 1, 43, 0
1, 122939, Note_off_c, 1, 31, 0
1, 122939, Note_off_c, 1, 77, 0
1, 122939, Note_off_c, 1, 74, 0
1, 122940, Note_on_c, 1, 72, 127
1, 122940, Note_on_c, 1, 44, 127
1, 122940, Note_on_c, 1, 32, 127
1, 122940, Note_on_c, 1, 75, 127
1, 122970, Note_on_c, 1, 60, 127
1, 122970, Note_on_c, 1, 55, 127
1, 122970, Note_on_c, 1, 51, 127
1, 122999, Note_off_c, 1, 44, 0
1, 122999, Note_off_c, 1, 32, 0
1, 122999, Note_off_c, 1, 75, 0
1, 122999, Note_off_c, 1, 60, 0
1, 123000, Note_off_c, 1, 55, 0
1, 123000, Note_off_c, 1, 51, 0
1, 123000, Note_on_c, 1, 62, 127
1, 123000, Note_on_c, 1, 41, 127
1, 123000, Note_on_c, 1, 29, 127
1, 123000, Note_on_c, 1, 77, 127
1, 123000, Note_on_c, 1, 53, 127
1, 123000, Note_on_c, 1, 50, 127
1, 123029, Note_off_c, 1, 62, 0
1, 123029, Note_off_c, 1, 77, 0
1, 123030, Note_off_c, 1, 53, 0
1, 123030, Note_off_c, 1, 50, 0
1, 123030, Note_on_c, 1, 63, 127
1, 123030, Note_on_c, 1, 79, 127
1, 123030, Note_on_c, 1, 48, 127
1, 123059, Note_off_c, 1, 41, 0
1, 123059, Note_off_c, 1, 29, 0
1, 123059, Note_off_c, 1, 63, 0
1, 123059, Note_off_c, 1, 79, 0
1, 123060, Note_off_c, 1, 48, 0
1, 123060, Note_on_c, 1, 65, 127
1, 123060, Note_on_c, 1, 38, 127
1, 123060, Note_on_c, 1, 26, 127
1, 123060, Note_on_c, 1, 80, 127
1, 123089, Note_off_c, 1, 65, 0
1, 123119, Note_off_c, 1, 72, 0
1, 123120, Note_on_c, 1, 81, 127
1, 123179, Note_off_c, 1, 38, 0
1, 123179, Note_off_c, 1, 26, 0
1, 123179, Note_off_c, 1, 81, 0
1, 123180, Note_on_c, 1, 71, 127
1, 123210, Note_on_c, 1, 59, 127
1, 123239, Note_off_c, 1, 80, 0
1, 123239, Note_off_c, 1, 71, 0
1, 123239, Note_off_c, 1, 59, 0
1, 123240, Note_on_c, 1, 60, 127
1, 123240, Note_on_c, 1, 77, 127
1, 123240, Note_on_c, 1, 53, 127
1, 123240, Note_on_c, 1, 72, 127
1, 123269, Note_off_c, 1, 60, 0
1, 123270, Note_on_c, 1, 57, 127
1, 123299, Note_off_c, 1, 77, 0
1, 123299, Note_off_c, 1, 53, 0
1, 123299, Note_off_c, 1, 72, 0
1, 123299, Note_off_c, 1, 57, 0
1, 123300, Note_on_c, 1, 59, 127
1, 123300, Note_on_c, 1, 43, 127
1, 123300, Note_on_c, 1, 31, 127
1, 123300, Note_on_c, 1, 74, 127
1, 123300, Note_on_c, 1, 55, 127
1, 123300, Note_on_c, 1, 77, 127
1, 123329, Note_off_c, 1, 59, 0
1, 123359, Note_off_c, 1, 74, 0
1, 123359, Note_off_c, 1, 55, 0
1, 123359, Note_off_c, 1, 77, 0
1, 123360, Note_on_c, 1, 72, 127
1, 123360, Note_on_c, 1, 67, 127
1, 123360, Note_on_c, 1, 63, 127
1, 123360, Note_on_c, 1, 75, 127
1, 123389, Note_off_c, 1, 72, 0
1, 123389, Note_off_c, 1, 75, 0
1, 123390, Note_off_c, 1, 67, 0
1, 123390, Note_off_c, 1, 63, 0
1, 123390, Note_on_c, 1, 71, 127
1, 123390, Note_on_c, 1, 65, 127
1, 123419, Note_off_c, 1, 43, 0
1, 123419, Note_off_c, 1, 31, 0
1, 123419, Note_off_c, 1, 71, 0
1, 123420, Note_off_c, 1, 65, 0
1, 123420, Note_on_c, 1, 36, 127
1, 123420, Note_on_c, 1, 24, 127
1, 123420, Note_on_c, 1, 48, 127
1, 123449, Note_off_c, 1, 48, 0
1, 123450, Note_on_c, 1, 47, 127
1, 123479, Note_off_c, 1, 36, 0
1, 123479, Note_off_c, 1, 24, 0
1, 123479, Note_off_c, 1, 47, 0
1, 123480, Note_on_c, 1, 48, 127
1, 123480, Note_on_c, 1, 36, 127
1, 123480, Note_on_c, 1, 68, 127
1, 123480, Note_on_c, 1, 72, 127
1, 123509, Note_off_c, 1, 48, 0
1, 123509, Note_off_c, 1, 36, 0
1, 123509, Note_off_c, 1, 68, 0
1, 123509, Note_off_c, 1, 72, 0
1, 123510, Note_on_c, 1, 50, 127
1, 123510, Note_on_c, 1, 38, 127
1, 123510, Note_on_c, 1, 65, 127
1, 123510, Note_on_c, 1, 71, 127
1, 123539, Note_off_c, 1, 50, 0
1, 123539, Note_off_c, 1, 38, 0
1, 123539, Note_off_c, 1, 65, 0
1, 123539, Note_off_c, 1, 71, 0
1, 123540, Note_on_c, 1, 51, 127
1, 123540, Note_on_c, 1, 39, 127
1, 123540, Note_on_c, 1, 67, 127
1, 123540, Note_on_c, 1, 72, 127
1, 123569, Note_off_c, 1, 67, 0
1, 123569, Note_off_c, 1, 72, 0
1, 123570, Note_on_c, 1, 63, 127
1, 123599, Note_off_c, 1, 51, 0
1, 123599, Note_off_c, 1, 39, 0
1, 123599, Note_off_c, 1, 63, 0
1, 123600, Note_on_c, 1, 72, 127
1, 123600, Note_on_c, 1, 68, 127
1, 123600, Note_on_c, 1, 65, 127
1, 123629, Note_off_c, 1, 72, 0
1, 123629, Note_off_c, 1, 68, 0
1, 123629, Note_off_c, 1, 65, 0
1, 123630, Note_on_c, 1, 71, 127
1, 123630, Note_on_c, 1, 65, 127
1, 123630, Note_on_c, 1, 62, 127
1, 123659, Note_off_c, 1, 71, 0
1, 123659, Note_off_c, 1, 65, 0
1, 123659, Note_off_c, 1, 62, 0
1, 123660, Note_on_c, 1, 72, 127
1, 123660, Note_on_c, 1, 67, 127
1, 123660, Note_on_c, 1, 63, 127
1, 123690, Note_on_c, 1, 60, 127
1, 123719, Note_off_c, 1, 72, 0
1, 123719, Note_off_c, 1, 67, 0
1, 123719, Note_off_c, 1, 63, 0
1, 123719, Note_off_c, 1, 60, 0
1, 123720, Note_on_c, 1, 55, 127
1, 123720, Note_on_c, 1, 43, 127
1, 123720, Note_on_c, 1, 62, 127
1, 123720, Note_on_c, 1, 65, 127
1, 123749, Note_off_c, 1, 62, 0
1, 123749, Note_off_c, 1, 65, 0
1, 123750, Note_on_c, 1, 59, 127
1, 123779, Note_off_c, 1, 55, 0
1, 123779, Note_off_c, 1, 43, 0
1, 123779, Note_off_c, 1, 59, 0
1, 123780, Note_on_c, 1, 48, 127
1, 123780, Note_on_c, 1, 36, 127
1, 123780, Note_on_c, 1, 60, 127
1, 123780, Note_on_c, 1, 63, 127
1, 123809, Note_off_c, 1, 63, 0
1, 123839, Note_off_c, 1, 48, 0
1, 123839, Note_off_c, 1, 36, 0
1, 123839, Note_off_c, 1, 60, 0
1, 123840, Note_on_c, 1, 68, 127
1, 123840, Note_on_c, 1, 65, 127
1, 123840, Note_on_c, 1, 62, 127
1, 123869, Note_off_c, 1, 65, 0
1, 123869, Note_off_c, 1, 62, 0
1, 123870, Note_on_c, 1, 67, 127
1, 123870, Note_on_c, 1, 59, 127
1, 123899, Note_off_c, 1, 68, 0
1, 123899, Note_off_c, 1, 67, 0
1, 123899, Note_off_c, 1, 59, 0
1, 123900, Note_on_c, 1, 68, 127
1, 123900, Note_on_c, 1, 63, 127
1, 123900, Note_on_c, 1, 60, 127
1, 123959, Note_off_c, 1, 68, 0
1, 123959, Note_off_c, 1, 63, 0
1, 123959, Note_off_c, 1, 60, 0
1, 123960, Note_on_c, 1, 47, 127
1, 123960, Note_on_c, 1, 35, 127
1, 123960, Note_on_c, 1, 67, 127
1, 123960, Note_on_c, 1, 62, 127
1, 123989, Note_off_c, 1, 62, 0
1, 123990, Note_on_c, 1, 65, 127
1, 124019, Note_off_c, 1, 47, 0
1, 124019, Note_off_c, 1, 35, 0
1, 124019, Note_off_c, 1, 65, 0
1, 124020, Note_on_c, 1, 48, 127
1, 124020, Note_on_c, 1, 36, 127
1, 124020, Note_on_c, 1, 63, 127
1, 124049, Note_off_c, 1, 67, 0
1, 124050, Note_on_c, 1, 69, 127
1, 124079, Note_off_c, 1, 48, 0
1, 124079, Note_off_c, 1, 36, 0
1, 124079, Note_off_c, 1, 63, 0
1, 124079, Note_off_c, 1, 69, 0
1, 124080, Note_on_c, 1, 71, 127
1, 124080, Note_on_c, 1, 65, 127
1, 124080, Note_on_c, 1, 62, 127
1, 124080, Note_on_c, 1, 50, 127
1, 124080, Note_on_c, 1, 38, 127
1, 124080, Note_on_c, 1, 63, 127
1, 124095, Note_off_c, 1, 63, 0
1, 124109, Note_off_c, 1, 71, 0
1, 124109, Note_off_c, 1, 62, 0
1, 124110, Note_off_c, 1, 65, 0
1, 124110, Note_on_c, 1, 67, 127
1, 124110, Note_on_c, 1, 59, 127
1, 124139, Note_off_c, 1, 50, 0
1, 124139, Note_off_c, 1, 38, 0
1, 124139, Note_off_c, 1, 67, 0
1, 124139, Note_off_c, 1, 59, 0
1, 124140, Note_on_c, 1, 72, 127
1, 124140, Note_on_c, 1, 55, 127
1, 124140, Note_on_c, 1, 51, 127
1, 124140, Note_on_c, 1, 39, 127
1, 124199, Note_off_c, 1, 72, 0
1, 124199, Note_off_c, 1, 55, 0
1, 124199, Note_off_c, 1, 51, 0
1, 124199, Note_off_c, 1, 39, 0
1, 124200, Note_on_c, 1, 51, 127
1, 124200, Note_on_c, 1, 38, 127
1, 124200, Note_on_c, 1, 72, 127
1, 124200, Note_on_c, 1, 69, 127
1, 124229, Note_off_c, 1, 51, 0
1, 124229, Note_off_c, 1, 69, 0
1, 124230, Note_on_c, 1, 50, 127
1, 124230, Note_on_c, 1, 71, 127
1, 124259, Note_off_c, 1, 38, 0
1, 124259, Note_off_c, 1, 50, 0
1, 124259, Note_off_c, 1, 71, 0
1, 124260, Note_on_c, 1, 39, 127
1, 124289, Note_off_c, 1, 72, 0
1, 124290, Note_on_c, 1, 74, 127
1, 124319, Note_off_c, 1, 39, 0
1, 124319, Note_off_c, 1, 74, 0
1, 124320, Note_on_c, 1, 75, 127
1, 124320, Note_on_c, 1, 72, 127
1, 124320, Note_on_c, 1, 67, 127
1, 124320, Note_on_c, 1, 48, 127
1, 124320, Note_on_c, 1, 36, 127
1, 124349, Note_off_c, 1, 75, 0
1, 124349, Note_off_c, 1, 72, 0
1, 124349, Note_off_c, 1, 67, 0
1, 124350, Note_on_c, 1, 74, 127
1, 124350, Note_on_c, 1, 71, 127
1, 124350, Note_on_c, 1, 68, 127
1, 124379, Note_off_c, 1, 48, 0
1, 124379, Note_off_c, 1, 36, 0
1, 124379, Note_off_c, 1, 74, 0
1, 124379, Note_off_c, 1, 71, 0
1, 124379, Note_off_c, 1, 68, 0
1, 124380, Note_on_c, 1, 77, 127
1, 124380, Note_on_c, 1, 72, 127
1, 124380, Note_on_c, 1, 65, 127
1, 124380, Note_on_c, 1, 56, 127
1, 124380, Note_on_c, 1, 32, 127
1, 124410, Note_on_c, 1, 75, 127
1, 124439, Note_off_c, 1, 77, 0
1, 124439, Note_off_c, 1, 72, 0
1, 124439, Note_off_c, 1, 65, 0
1, 124439, Note_off_c, 1, 56, 0
1, 124439, Note_off_c, 1, 32, 0
1, 124439, Note_off_c, 1, 75, 0
1, 124440, Note_on_c, 1, 44, 127
1, 124440, Note_on_c, 1, 74, 127
1, 124440, Note_on_c, 1, 72, 127
1, 124469, Note_off_c, 1, 74, 0
1, 124499, Note_off_c, 1, 44, 0
1, 124499, Note_off_c, 1, 72, 0
1, 124500, Note_on_c, 1, 78, 127
1, 124500, Note_on_c, 1, 72, 127
1, 124515, Note_off_c, 1, 72, 0
1, 124515, Note_on_c, 1, 74, 127
1, 124529, Note_off_c, 1, 78, 0
1, 124530, Note_off_c, 1, 74, 0
1, 124530, Note_on_c, 1, 79, 127
1, 124559, Note_off_c, 1, 79, 0
1, 124560, Note_on_c, 1, 79, 127
1, 124560, Note_on_c, 1, 74, 127
1, 124560, Note_on_c, 1, 71, 127
1, 124560, Note_on_c, 1, 43, 127
1, 124560, Note_on_c, 1, 31, 127
1, 124560, Note_on_c, 1, 67, 127
1, 124589, Note_off_c, 1, 79, 0
1, 124589, Note_off_c, 1, 74, 0
1, 124590, Note_on_c, 1, 78, 127
1, 124590, Note_on_c, 1, 72, 127
1, 124590, Note_on_c, 1, 69, 127
1, 124619, Note_off_c, 1, 71, 0
1, 124619, Note_off_c, 1, 43, 0
1, 124619, Note_off_c, 1, 31, 0
1, 124619, Note_off_c, 1, 67, 0
1, 124619, Note_off_c, 1, 78, 0
1, 124619, Note_off_c, 1, 72, 0
1, 124619, Note_off_c, 1, 69, 0
1, 124620, Note_on_c, 1, 79, 127
1, 124620, Note_on_c, 1, 74, 127
1, 124620, Note_on_c, 1, 71, 127
1, 124620, Note_on_c, 1, 47, 127
1, 124620, Note_on_c, 1, 35, 127
1, 124649, Note_off_c, 1, 79, 0
1, 124649, Note_off_c, 1, 74, 0
1, 124649, Note_off_c, 1, 71, 0
1, 124650, Note_on_c, 1, 67, 127
1, 124679, Note_off_c, 1, 47, 0
1, 124679, Note_off_c, 1, 35, 0
1, 124679, Note_off_c, 1, 67, 0
1, 124680, Note_on_c, 1, 71, 127
1, 124680, Note_on_c, 1, 67, 127
1, 124680, Note_on_c, 1, 62, 127
1, 124680, Note_on_c, 1, 50, 127
1, 124680, Note_on_c, 1, 38, 127
1, 124709, Note_off_c, 1, 71, 0
1, 124709, Note_off_c, 1, 67, 0
1, 124709, Note_off_c, 1, 62, 0
1, 124710, Note_on_c, 1, 74, 127
1, 124739, Note_off_c, 1, 50, 0
1, 124739, Note_off_c, 1, 38, 0
1, 124739, Note_off_c, 1, 74, 0
1, 124740, Note_on_c, 1, 67, 127
1, 124740, Note_on_c, 1, 62, 127
1, 124740, Note_on_c, 1, 59, 127
1, 124740, Note_on_c, 1, 55, 127
1, 124740, Note_on_c, 1, 43, 127
1, 124769, Note_off_c, 1, 55, 0
1, 124769, Note_off_c, 1, 43, 0
1, 124770, Note_on_c, 1, 56, 127
1, 124770, Note_on_c, 1, 44, 127
1, 124799, Note_off_c, 1, 67, 0
1, 124799, Note_off_c, 1, 62, 0
1, 124799, Note_off_c, 1, 59, 0
1, 124799, Note_off_c, 1, 56, 0
1, 124799, Note_off_c, 1, 44, 0
1, 124800, Note_on_c, 1, 55, 127
1, 124800, Note_on_c, 1, 43, 127
1, 124800, Note_on_c, 1, 79, 127
1, 124829, Note_off_c, 1, 55, 0
1, 124829, Note_off_c, 1, 43, 0
1, 124829, Note_off_c, 1, 79, 0
1, 124830, Note_on_c, 1, 53, 127
1, 124830, Note_on_c, 1, 41, 127
1, 124830, Note_on_c, 1, 80, 127
1, 124859, Note_off_c, 1, 53, 0
1, 124859, Note_off_c, 1, 41, 0
1, 124859, Note_off_c, 1, 80, 0
1, 124860, Note_on_c, 1, 52, 127
1, 124860, Note_on_c, 1, 40, 127
1, 124860, Note_on_c, 1, 82, 127
1, 124919, Note_off_c, 1, 52, 0
1, 124919, Note_off_c, 1, 40, 0
1, 124919, Note_off_c, 1, 82, 0
1, 124920, Note_on_c, 1, 72, 127
1, 124920, Note_on_c, 1, 48, 127
1, 124920, Note_on_c, 1, 36, 127
1, 124920, Note_on_c, 1, 82, 127
1, 124920, Note_on_c, 1, 67, 127
1, 124920, Note_on_c, 1, 76, 127
1, 124950, Note_on_c, 1, 70, 127
1, 124979, Note_off_c, 1, 72, 0
1, 124979, Note_off_c, 1, 48, 0
1, 124979, Note_off_c, 1, 36, 0
1, 124979, Note_off_c, 1, 82, 0
1, 124979, Note_off_c, 1, 67, 0
1, 124979, Note_off_c, 1, 76, 0
1, 124979, Note_off_c, 1, 70, 0
1, 124980, Note_on_c, 1, 72, 127
1, 124980, Note_on_c, 1, 82, 127
1, 124980, Note_on_c, 1, 60, 127
1, 124980, Note_on_c, 1, 76, 127
1, 124980, Note_on_c, 1, 67, 127
1, 124980, Note_on_c, 1, 52, 127
1, 125039, Note_off_c, 1, 72, 0
1, 125039, Note_off_c, 1, 82, 0
1, 125039, Note_off_c, 1, 60, 0
1, 125039, Note_off_c, 1, 76, 0
1, 125039, Note_off_c, 1, 67, 0
1, 125039, Note_off_c, 1, 52, 0
1, 125040, Note_on_c, 1, 64, 127
1, 125040, Note_on_c, 1, 82, 127
1, 125040, Note_on_c, 1, 72, 127
1, 125040, Note_on_c, 1, 67, 127
1, 125040, Note_on_c, 1, 76, 127
1, 125040, Note_on_c, 1, 55, 127
1, 125099, Note_off_c, 1, 64, 0
1, 125099, Note_off_c, 1, 82, 0
1, 125099, Note_off_c, 1, 72, 0
1, 125099, Note_off_c, 1, 67, 0
1, 125099, Note_off_c, 1, 76, 0
1, 125099, Note_off_c, 1, 55, 0
1, 125100, Note_on_c, 1, 60, 127
1, 125100, Note_on_c, 1, 82, 127
1, 125100, Note_on_c, 1, 72, 127
1, 125100, Note_on_c, 1, 67, 127
1, 125100, Note_on_c, 1, 76, 127
1, 125100, Note_on_c, 1, 52, 127
1, 125129, Note_off_c, 1, 52, 0
1, 125130, Note_on_c, 1, 48, 127
1, 125130, Note_on_c, 1, 36, 127
1, 125159, Note_off_c, 1, 60, 0
1, 125159, Note_off_c, 1, 82, 0
1, 125159, Note_off_c, 1, 72, 0
1, 125159, Note_off_c, 1, 67, 0
1, 125159, Note_off_c, 1, 76, 0
1, 125159, Note_off_c, 1, 48, 0
1, 125159, Note_off_c, 1, 36, 0
1, 125160, Note_on_c, 1, 46, 127
1, 125160, Note_on_c, 1, 34, 127
1, 125160, Note_on_c, 1, 82, 127
1, 125160, Note_on_c, 1, 72, 127
1, 125160, Note_on_c, 1, 64, 127
1, 125160, Note_on_c, 1, 67, 127
1, 125160, Note_on_c, 1, 76, 127
1, 125189, Note_off_c, 1, 46, 0
1, 125189, Note_off_c, 1, 34, 0
1, 125190, Note_on_c, 1, 48, 127
1, 125190, Note_on_c, 1, 36, 127
1, 125219, Note_off_c, 1, 82, 0
1, 125219, Note_off_c, 1, 72, 0
1, 125219, Note_off_c, 1, 64, 0
1, 125219, Note_off_c, 1, 67, 0
1, 125219, Note_off_c, 1, 76, 0
1, 125219, Note_off_c, 1, 48, 0
1, 125219, Note_off_c, 1, 36, 0
1, 125220, Note_on_c, 1, 41, 127
1, 125220, Note_on_c, 1, 29, 127
1, 125220, Note_on_c, 1, 72, 127
1, 125220, Note_on_c, 1, 80, 127
1, 125220, Note_on_c, 1, 65, 127
1, 125220, Note_on_c, 1, 77, 127
1, 125279, Note_off_c, 1, 41, 0
1, 125279, Note_off_c, 1, 29, 0
1, 125279, Note_off_c, 1, 72, 0
1, 125279, Note_off_c, 1, 80, 0
1, 125279, Note_off_c, 1, 65, 0
1, 125279, Note_off_c, 1, 77, 0
1, 125280, Note_on_c, 1, 65, 127
1, 125280, Note_on_c, 1, 53, 127
1, 125280, Note_on_c, 1, 41, 127
1, 125280, Note_on_c, 1, 80, 127
1, 125280, Note_on_c, 1, 72, 127
1, 125280, Note_on_c, 1, 77, 127
1, 125310, Note_on_c, 1, 64, 127
1, 125339, Note_off_c, 1, 65, 0
1, 125339, Note_off_c, 1, 53, 0
1, 125339, Note_off_c, 1, 41, 0
1, 125339, Note_off_c, 1, 80, 0
1, 125339, Note_off_c, 1, 72, 0
1, 125339, Note_off_c, 1, 77, 0
1, 125339, Note_off_c, 1, 64, 0
1, 125340, Note_on_c, 1, 65, 127
1, 125340, Note_on_c, 1, 80, 127
1, 125340, Note_on_c, 1, 72, 127
1, 125340, Note_on_c, 1, 56, 127
1, 125340, Note_on_c, 1, 77, 127
1, 125340, Note_on_c, 1, 53, 127
1, 125370, Note_on_c, 1, 60, 127
1, 125399, Note_off_c, 1, 65, 0
1, 125399, Note_off_c, 1, 80, 0
1, 125399, Note_off_c, 1, 72, 0
1, 125399, Note_off_c, 1, 56, 0
1, 125399, Note_off_c, 1, 77, 0
1, 125399, Note_off_c, 1, 53, 0
1, 125399, Note_off_c, 1, 60, 0
1, 125400, Note_on_c, 1, 56, 127
1, 125400, Note_on_c, 1, 80, 127
1, 125400, Note_on_c, 1, 72, 127
1, 125400, Note_on_c, 1, 60, 127
1, 125400, Note_on_c, 1, 77, 127
1, 125400, Note_on_c, 1, 65, 127
1, 125459, Note_off_c, 1, 56, 0
1, 125459, Note_off_c, 1, 80, 0
1, 125459, Note_off_c, 1, 72, 0
1, 125459, Note_off_c, 1, 60, 0
1, 125459, Note_off_c, 1, 77, 0
1, 125459, Note_off_c, 1, 65, 0
1, 125460, Note_on_c, 1, 65, 127
1, 125460, Note_on_c, 1, 53, 127
1, 125460, Note_on_c, 1, 80, 127
1, 125460, Note_on_c, 1, 72, 127
1, 125460, Note_on_c, 1, 77, 127
1, 125460, Note_on_c, 1, 60, 127
1, 125490, Note_on_c, 1, 41, 127
1, 125519, Note_off_c, 1, 65, 0
1, 125519, Note_off_c, 1, 53, 0
1, 125519, Note_off_c, 1, 80, 0
1, 125519, Note_off_c, 1, 72, 0
1, 125519, Note_off_c, 1, 77, 0
1, 125519, Note_off_c, 1, 60, 0
1, 125519, Note_off_c, 1, 41, 0
1, 125520, Note_on_c, 1, 55, 127
1, 125520, Note_on_c, 1, 43, 127
1, 125520, Note_on_c, 1, 80, 127
1, 125520, Note_on_c, 1, 72, 127
1, 125520, Note_on_c, 1, 77, 127
1, 125520, Note_on_c, 1, 65, 127
1, 125520, Note_on_c, 1, 56, 127
1, 125549, Note_off_c, 1, 55, 0
1, 125549, Note_off_c, 1, 43, 0
1, 125550, Note_on_c, 1, 44, 127
1, 125579, Note_off_c, 1, 80, 0
1, 125579, Note_off_c, 1, 72, 0
1, 125579, Note_off_c, 1, 77, 0
1, 125579, Note_off_c, 1, 65, 0
1, 125579, Note_off_c, 1, 56, 0
1, 125579, Note_off_c, 1, 44, 0
1, 125580, Note_on_c, 1, 55, 127
1, 125580, Note_on_c, 1, 43, 127
1, 125580, Note_on_c, 1, 74, 127
1, 125580, Note_on_c, 1, 71, 127
1, 125580, Note_on_c, 1, 67, 127
1, 125580, Note_on_c, 1, 77, 127
1, 125639, Note_off_c, 1, 55, 0
1, 125639, Note_off_c, 1, 43, 0
1, 125639, Note_off_c, 1, 74, 0
1, 125639, Note_off_c, 1, 71, 0
1, 125639, Note_off_c, 1, 67, 0
1, 125639, Note_off_c, 1, 77, 0
1, 125640, Note_on_c, 1, 67, 127
1, 125640, Note_on_c, 1, 43, 127
1, 125640, Note_on_c, 1, 31, 127
1, 125640, Note_on_c, 1, 74, 127
1, 125640, Note_on_c, 1, 71, 127
1, 125640, Note_on_c, 1, 77, 127
1, 125670, Note_on_c, 1, 65, 127
1, 125699, Note_off_c, 1, 67, 0
1, 125699, Note_off_c, 1, 43, 0
1, 125699, Note_off_c, 1, 31, 0
1, 125699, Note_off_c, 1, 74, 0
1, 125699, Note_off_c, 1, 71, 0
1, 125699, Note_off_c, 1, 77, 0
1, 125699, Note_off_c, 1, 65, 0
1, 125700, Note_on_c, 1, 67, 127
1, 125700, Note_on_c, 1, 83, 127
1, 125700, Note_on_c, 1, 74, 127
1, 125700, Note_on_c, 1, 55, 127
1, 125700, Note_on_c, 1, 77, 127
1, 125700, Note_on_c, 1, 47, 127
1, 125730, Note_on_c, 1, 62, 127
1, 125759, Note_off_c, 1, 67, 0
1, 125759, Note_off_c, 1, 83, 0
1, 125759, Note_off_c, 1, 74, 0
1, 125759, Note_off_c, 1, 55, 0
1, 125759, Note_off_c, 1, 77, 0
1, 125759, Note_off_c, 1, 47, 0
1, 125759, Note_off_c, 1, 62, 0
1, 125760, Note_on_c, 1, 59, 127
1, 125760, Note_on_c, 1, 83, 127
1, 125760, Note_on_c, 1, 74, 127
1, 125760, Note_on_c, 1, 77, 127
1, 125760, Note_on_c, 1, 67, 127
1, 125760, Note_on_c, 1, 50, 127
1, 125790, Note_on_c, 1, 62, 127
1, 125819, Note_off_c, 1, 59, 0
1, 125819, Note_off_c, 1, 83, 0
1, 125819, Note_off_c, 1, 74, 0
1, 125819, Note_off_c, 1, 77, 0
1, 125819, Note_off_c, 1, 67, 0
1, 125819, Note_off_c, 1, 50, 0
1, 125819, Note_off_c, 1, 62, 0
1, 125820, Note_on_c, 1, 55, 127
1, 125820, Note_on_c, 1, 83, 127
1, 125820, Note_on_c, 1, 74, 127
1, 125820, Note_on_c, 1, 62, 127
1, 125820, Note_on_c, 1, 77, 127
1, 125820, Note_on_c, 1, 67, 127
1, 125820, Note_on_c, 1, 47, 127
1, 125849, Note_off_c, 1, 47, 0
1, 125850, Note_on_c, 1, 43, 127
1, 125850, Note_on_c, 1, 31, 127
1, 125879, Note_off_c, 1, 55, 0
1, 125879, Note_off_c, 1, 83, 0
1, 125879, Note_off_c, 1, 74, 0
1, 125879, Note_off_c, 1, 62, 0
1, 125879, Note_off_c, 1, 77, 0
1, 125879, Note_off_c, 1, 67, 0
1, 125879, Note_off_c, 1, 43, 0
1, 125879, Note_off_c, 1, 31, 0
1, 125880, Note_on_c, 1, 41, 127
1, 125880, Note_on_c, 1, 29, 127
1, 125880, Note_on_c, 1, 83, 127
1, 125880, Note_on_c, 1, 74, 127
1, 125880, Note_on_c, 1, 67, 127
1, 125880, Note_on_c, 1, 77, 127
1, 125909, Note_off_c, 1, 41, 0
1, 125909, Note_off_c, 1, 29, 0
1, 125910, Note_on_c, 1, 43, 127
1, 125910, Note_on_c, 1, 31, 127
1, 125939, Note_off_c, 1, 83, 0
1, 125939, Note_off_c, 1, 74, 0
1, 125939, Note_off_c, 1, 67, 0
1, 125939, Note_off_c, 1, 77, 0
1, 125939, Note_off_c, 1, 43, 0
1, 125939, Note_off_c, 1, 31, 0
1, 125940, Note_on_c, 1, 36, 127
1, 125940, Note_on_c, 1, 24, 127
1, 125940, Note_on_c, 1, 84, 127
1, 125940, Note_on_c, 1, 72, 127
1, 125940, Note_on_c, 1, 60, 127
1, 125940, Note_on_c, 1, 67, 127
1, 125940, Note_on_c, 1, 75, 127
1, 125999, Note_off_c, 1, 36, 0
1, 125999, Note_off_c, 1, 24, 0
1, 125999, Note_off_c, 1, 84, 0
1, 125999, Note_off_c, 1, 72, 0
1, 125999, Note_off_c, 1, 60, 0
1, 125999, Note_off_c, 1, 67, 0
1, 125999, Note_off_c, 1, 75, 0
1, 126000, Note_on_c, 1, 72, 127
1, 126000, Note_on_c, 1, 48, 127
1, 126000, Note_on_c, 1, 36, 127
1, 126000, Note_on_c, 1, 84, 127
1, 126000, Note_on_c, 1, 75, 127
1, 126000, Note_on_c, 1, 67, 127
1, 126030, Note_on_c, 1, 71, 127
1, 126059, Note_off_c, 1, 72, 0
1, 126059, Note_off_c, 1, 48, 0
1, 126059, Note_off_c, 1, 36, 0
1, 126059, Note_off_c, 1, 84, 0
1, 126059, Note_off_c, 1, 75, 0
1, 126059, Note_off_c, 1, 67, 0
1, 126059, Note_off_c, 1, 71, 0
1, 126060, Note_on_c, 1, 72, 127
1, 126060, Note_on_c, 1, 84, 127
1, 126060, Note_on_c, 1, 51, 127
1, 126060, Note_on_c, 1, 75, 127
1, 126060, Note_on_c, 1, 67, 127
1, 126060, Note_on_c, 1, 48, 127
1, 126119, Note_off_c, 1, 72, 0
1, 126119, Note_off_c, 1, 84, 0
1, 126119, Note_off_c, 1, 51, 0
1, 126119, Note_off_c, 1, 75, 0
1, 126119, Note_off_c, 1, 67, 0
1, 126119, Note_off_c, 1, 48, 0
1, 126120, Note_on_c, 1, 63, 127
1, 126120, Note_on_c, 1, 84, 127
1, 126120, Note_on_c, 1, 72, 127
1, 126120, Note_on_c, 1, 55, 127
1, 126120, Note_on_c, 1, 67, 127
1, 126120, Note_on_c, 1, 75, 127
1, 126120, Note_on_c, 1, 51, 127
1, 126149, Note_off_c, 1, 63, 0
1, 126179, Note_off_c, 1, 84, 0
1, 126179, Note_off_c, 1, 72, 0
1, 126179, Note_off_c, 1, 55, 0
1, 126179, Note_off_c, 1, 67, 0
1, 126179, Note_off_c, 1, 75, 0
1, 126179, Note_off_c, 1, 51, 0
1, 126180, Note_on_c, 1, 60, 127
1, 126180, Note_on_c, 1, 84, 127
1, 126180, Note_on_c, 1, 72, 127
1, 126180, Note_on_c, 1, 51, 127
1, 126180, Note_on_c, 1, 75, 127
1, 126180, Note_on_c, 1, 67, 127
1, 126180, Note_on_c, 1, 55, 127
1, 126209, Note_off_c, 1, 51, 0
1, 126210, Note_on_c, 1, 48, 127
1, 126210, Note_on_c, 1, 36, 127
1, 126239, Note_off_c, 1, 60, 0
1, 126239, Note_off_c, 1, 84, 0
1, 126239, Note_off_c, 1, 72, 0
1, 126239, Note_off_c, 1, 75, 0
1, 126239, Note_off_c, 1, 67, 0
1, 126239, Note_off_c, 1, 55, 0
1, 126239, Note_off_c, 1, 48, 0
1, 126239, Note_off_c, 1, 36, 0
1, 126240, Note_on_c, 1, 47, 127
1, 126240, Note_on_c, 1, 35, 127
1, 126240, Note_on_c, 1, 84, 127
1, 126240, Note_on_c, 1, 72, 127
1, 126240, Note_on_c, 1, 67, 127
1, 126240, Note_on_c, 1, 75, 127
1, 126240, Note_on_c, 1, 51, 127
1, 126269, Note_off_c, 1, 47, 0
1, 126269, Note_off_c, 1, 35, 0
1, 126270, Note_on_c, 1, 48, 127
1, 126270, Note_on_c, 1, 36, 127
1, 126299, Note_off_c, 1, 84, 0
1, 126299, Note_off_c, 1, 72, 0
1, 126299, Note_off_c, 1, 67, 0
1, 126299, Note_off_c, 1, 75, 0
1, 126299, Note_off_c, 1, 51, 0
1, 126299, Note_off_c, 1, 48, 0
1, 126299, Note_off_c, 1, 36, 0
1, 126300, Note_on_c, 1, 41, 127
1, 126300, Note_on_c, 1, 29, 127
1, 126300, Note_on_c, 1, 80, 127
1, 126300, Note_on_c, 1, 72, 127
1, 126300, Note_on_c, 1, 65, 127
1, 126300, Note_on_c, 1, 75, 127
1, 126300, Note_on_c, 1, 53, 127
1, 126329, Note_off_c, 1, 53, 0
1, 126330, Note_on_c, 1, 56, 127
1, 126359, Note_off_c, 1, 80, 0
1, 126359, Note_off_c, 1, 72, 0
1, 126359, Note_off_c, 1, 65, 0
1, 126359, Note_off_c, 1, 75, 0
1, 126359, Note_off_c, 1, 56, 0
1, 126360, Note_on_c, 1, 70, 127
1, 126360, Note_on_c, 1, 55, 127
1, 126389, Note_off_c, 1, 70, 0
1, 126389, Note_off_c, 1, 55, 0
1, 126390, Note_on_c, 1, 68, 127
1, 126419, Note_off_c, 1, 41, 0
1, 126419, Note_off_c, 1, 29, 0
1, 126419, Note_off_c, 1, 68, 0
1, 126420, Note_on_c, 1, 70, 127
1, 126420, Note_on_c, 1, 80, 127
1, 126420, Note_on_c, 1, 65, 127
1, 126420, Note_on_c, 1, 74, 127
1, 126420, Note_on_c, 1, 46, 127
1, 126479, Note_off_c, 1, 70, 0
1, 126479, Note_off_c, 1, 80, 0
1, 126479, Note_off_c, 1, 65, 0
1, 126479, Note_off_c, 1, 74, 0
1, 126479, Note_off_c, 1, 46, 0
1, 126480, Note_on_c, 1, 74, 127
1, 126480, Note_on_c, 1, 70, 127
1, 126480, Note_on_c, 1, 53, 127
1, 126480, Note_on_c, 1, 41, 127
1, 126480, Note_on_c, 1, 80, 127
1, 126480, Note_on_c, 1, 63, 127
1, 126480, Note_on_c, 1, 65, 127
1, 126509, Note_off_c, 1, 63, 0
1, 126510, Note_on_c, 1, 72, 127
1, 126510, Note_on_c, 1, 68, 127
1, 126539, Note_off_c, 1, 74, 0
1, 126539, Note_off_c, 1, 70, 0
1, 126539, Note_off_c, 1, 53, 0
1, 126539, Note_off_c, 1, 41, 0
1, 126539, Note_off_c, 1, 80, 0
1, 126539, Note_off_c, 1, 65, 0
1, 126539, Note_off_c, 1, 72, 0
1, 126539, Note_off_c, 1, 68, 0
1, 126540, Note_on_c, 1, 74, 127
1, 126540, Note_on_c, 1, 70, 127
1, 126540, Note_on_c, 1, 50, 127
1, 126540, Note_on_c, 1, 38, 127
1, 126540, Note_on_c, 1, 80, 127
1, 126540, Note_on_c, 1, 58, 127
1, 126540, Note_on_c, 1, 65, 127
1, 126570, Note_on_c, 1, 62, 127
1, 126599, Note_off_c, 1, 74, 0
1, 126599, Note_off_c, 1, 70, 0
1, 126599, Note_off_c, 1, 50, 0
1, 126599, Note_off_c, 1, 38, 0
1, 126599, Note_off_c, 1, 80, 0
1, 126599, Note_off_c, 1, 58, 0
1, 126599, Note_off_c, 1, 65, 0
1, 126599, Note_off_c, 1, 62, 0
1, 126600, Note_on_c, 1, 74, 127
1, 126600, Note_on_c, 1, 70, 127
1, 126600, Note_on_c, 1, 65, 127
1, 126600, Note_on_c, 1, 46, 127
1, 126600, Note_on_c, 1, 34, 127
1, 126600, Note_on_c, 1, 80, 127
1, 126600, Note_on_c, 1, 58, 127
1, 126630, Note_on_c, 1, 77, 127
1, 126659, Note_off_c, 1, 74, 0
1, 126659, Note_off_c, 1, 70, 0
1, 126659, Note_off_c, 1, 65, 0
1, 126659, Note_off_c, 1, 46, 0
1, 126659, Note_off_c, 1, 34, 0
1, 126659, Note_off_c, 1, 80, 0
1, 126659, Note_off_c, 1, 58, 0
1, 126659, Note_off_c, 1, 77, 0
1, 126660, Note_on_c, 1, 79, 127
1, 126660, Note_on_c, 1, 75, 127
1, 126660, Note_on_c, 1, 70, 127
1, 126660, Note_on_c, 1, 51, 127
1, 126660, Note_on_c, 1, 39, 127
1, 126660, Note_on_c, 1, 63, 127
1, 126660, Note_on_c, 1, 74, 127
1, 126690, Note_on_c, 1, 55, 127
1, 126719, Note_off_c, 1, 79, 0
1, 126719, Note_off_c, 1, 63, 0
1, 126719, Note_off_c, 1, 74, 0
1, 126719, Note_off_c, 1, 55, 0
1, 126720, Note_off_c, 1, 75, 0
1, 126720, Note_on_c, 1, 68, 127
1, 126720, Note_on_c, 1, 53, 127
1, 126749, Note_off_c, 1, 68, 0
1, 126749, Note_off_c, 1, 53, 0
1, 126750, Note_on_c, 1, 67, 127
1, 126779, Note_off_c, 1, 70, 0
1, 126779, Note_off_c, 1, 51, 0
1, 126779, Note_off_c, 1, 39, 0
1, 126779, Note_off_c, 1, 67, 0
1, 126780, Note_on_c, 1, 68, 127
1, 126780, Note_on_c, 1, 79, 127
1, 126780, Note_on_c, 1, 63, 127
1, 126780, Note_on_c, 1, 72, 127
1, 126780, Note_on_c, 1, 44, 127
1, 126839, Note_off_c, 1, 68, 0
1, 126839, Note_off_c, 1, 79, 0
1, 126839, Note_off_c, 1, 72, 0
1, 126839, Note_off_c, 1, 44, 0
1, 126840, Note_on_c, 1, 51, 127
1, 126840, Note_on_c, 1, 39, 127
1, 126840, Note_on_c, 1, 62, 127
1, 126870, Note_off_c, 1, 62, 0
1, 126870, Note_on_c, 1, 70, 127
1, 126870, Note_on_c, 1, 67, 127
1, 126899, Note_off_c, 1, 51, 0
1, 126899, Note_off_c, 1, 39, 0
1, 126899, Note_off_c, 1, 70, 0
1, 126899, Note_off_c, 1, 67, 0
1, 126900, Note_on_c, 1, 48, 127
1, 126900, Note_on_c, 1, 36, 127
1, 126900, Note_on_c, 1, 56, 127
1, 126930, Note_on_c, 1, 60, 127
1, 126959, Note_off_c, 1, 63, 0
1, 126959, Note_off_c, 1, 48, 0
1, 126959, Note_off_c, 1, 36, 0
1, 126959, Note_off_c, 1, 56, 0
1, 126959, Note_off_c, 1, 60, 0
1, 126960, Note_on_c, 1, 72, 127
1, 126960, Note_on_c, 1, 68, 127
1, 126960, Note_on_c, 1, 63, 127
1, 126960, Note_on_c, 1, 44, 127
1, 126960, Note_on_c, 1, 32, 127
1, 126960, Note_on_c, 1, 79, 127
1, 126960, Note_on_c, 1, 56, 127
1, 126990, Note_on_c, 1, 75, 127
1, 127019, Note_off_c, 1, 72, 0
1, 127019, Note_off_c, 1, 68, 0
1, 127019, Note_off_c, 1, 63, 0
1, 127019, Note_off_c, 1, 44, 0
1, 127019, Note_off_c, 1, 32, 0
1, 127019, Note_off_c, 1, 79, 0
1, 127019, Note_off_c, 1, 56, 0
1, 127019, Note_off_c, 1, 75, 0
1, 127020, Note_on_c, 1, 77, 127
1, 127020, Note_on_c, 1, 74, 127
1, 127020, Note_on_c, 1, 68, 127
1, 127020, Note_on_c, 1, 50, 127
1, 127020, Note_on_c, 1, 38, 127
1, 127020, Note_on_c, 1, 72, 127
1, 127020, Note_on_c, 1, 62, 127
1, 127050, Note_on_c, 1, 53, 127
1, 127079, Note_off_c, 1, 77, 0
1, 127079, Note_off_c, 1, 72, 0
1, 127079, Note_off_c, 1, 62, 0
1, 127079, Note_off_c, 1, 53, 0
1, 127080, Note_off_c, 1, 74, 0
1, 127080, Note_on_c, 1, 67, 127
1, 127080, Note_on_c, 1, 51, 127
1, 127109, Note_off_c, 1, 67, 0
1, 127109, Note_off_c, 1, 51, 0
1, 127110, Note_on_c, 1, 65, 127
1, 127139, Note_off_c, 1, 68, 0
1, 127139, Note_off_c, 1, 50, 0
1, 127139, Note_off_c, 1, 38, 0
1, 127139, Note_off_c, 1, 65, 0
1, 127140, Note_on_c, 1, 67, 127
1, 127140, Note_on_c, 1, 77, 127
1, 127140, Note_on_c, 1, 71, 127
1, 127140, Note_on_c, 1, 62, 127
1, 127140, Note_on_c, 1, 43, 127
1, 127199, Note_off_c, 1, 67, 0
1, 127199, Note_off_c, 1, 77, 0
1, 127199, Note_off_c, 1, 71, 0
1, 127199, Note_off_c, 1, 43, 0
1, 127200, Note_on_c, 1, 50, 127
1, 127200, Note_on_c, 1, 38, 127
1, 127200, Note_on_c, 1, 60, 127
1, 127230, Note_off_c, 1, 60, 0
1, 127230, Note_on_c, 1, 69, 127
1, 127230, Note_on_c, 1, 65, 127
1, 127259, Note_off_c, 1, 50, 0
1, 127259, Note_off_c, 1, 38, 0
1, 127259, Note_off_c, 1, 69, 0
1, 127259, Note_off_c, 1, 65, 0
1, 127260, Note_on_c, 1, 55, 127
1, 127319, Note_off_c, 1, 62, 0
1, 127319, Note_off_c, 1, 55, 0
1, 127320, Note_on_c, 1, 72, 127
1, 127320, Note_on_c, 1, 67, 127
1, 127320, Note_on_c, 1, 63, 127
1, 127320, Note_on_c, 1, 43, 127
1, 127320, Note_on_c, 1, 31, 127
1, 127320, Note_on_c, 1, 77, 127
1, 127349, Note_off_c, 1, 63, 0
1, 127350, Note_off_c, 1, 72, 0
1, 127350, Note_on_c, 1, 71, 127
1, 127350, Note_on_c, 1, 65, 127
1, 127350, Note_on_c, 1, 62, 127
1, 127350, Note_on_c, 1, 74, 127
1, 127379, Note_off_c, 1, 67, 0
1, 127379, Note_off_c, 1, 43, 0
1, 127379, Note_off_c, 1, 31, 0
1, 127379, Note_off_c, 1, 77, 0
1, 127379, Note_off_c, 1, 71, 0
1, 127379, Note_off_c, 1, 65, 0
1, 127379, Note_off_c, 1, 62, 0
1, 127380, Note_off_c, 1, 74, 0
1, 127380, Note_on_c, 1, 60, 127
1, 127380, Note_on_c, 1, 48, 127
1, 127380, Note_on_c, 1, 36, 127
1, 127380, Note_on_c, 1, 75, 127
1, 127409, Note_off_c, 1, 48, 0
1, 127410, Note_on_c, 1, 47, 127
1, 127410, Note_on_c, 1, 35, 127
1, 127439, Note_off_c, 1, 36, 0
1, 127439, Note_off_c, 1, 75, 0
1, 127439, Note_off_c, 1, 47, 0
1, 127439, Note_off_c, 1, 35, 0
1, 127440, Note_off_c, 1, 60, 0
1, 127440, Note_on_c, 1, 68, 127
1, 127469, Note_off_c, 1, 68, 0
1, 127470, Note_on_c, 1, 50, 127
1, 127470, Note_on_c, 1, 38, 127
1, 127470, Note_on_c, 1, 65, 127
1, 127470, Note_on_c, 1, 71, 127
1, 127499, Note_off_c, 1, 50, 0
1, 127499, Note_off_c, 1, 38, 0
1, 127499, Note_off_c, 1, 65, 0
1, 127499, Note_off_c, 1, 71, 0
1, 127500, Note_on_c, 1, 51, 127
1, 127500, Note_on_c, 1, 39, 127
1, 127500, Note_on_c, 1, 67, 127
1, 127500, Note_on_c, 1, 72, 127
1, 127529, Note_off_c, 1, 67, 0
1, 127529, Note_off_c, 1, 72, 0
1, 127530, Note_on_c, 1, 63, 127
1, 127559, Note_off_c, 1, 51, 0
1, 127559, Note_off_c, 1, 39, 0
1, 127559, Note_off_c, 1, 63, 0
1, 127560, Note_on_c, 1, 72, 127
1, 127560, Note_on_c, 1, 68, 127
1, 127560, Note_on_c, 1, 65, 127
1, 127589, Note_off_c, 1, 72, 0
1, 127589, Note_off_c, 1, 68, 0
1, 127589, Note_off_c, 1, 65, 0
1, 127590, Note_on_c, 1, 71, 127
1, 127590, Note_on_c, 1, 65, 127
1, 127590, Note_on_c, 1, 62, 127
1, 127619, Note_off_c, 1, 71, 0
1, 127619, Note_off_c, 1, 65, 0
1, 127619, Note_off_c, 1, 62, 0
1, 127620, Note_on_c, 1, 72, 127
1, 127620, Note_on_c, 1, 67, 127
1, 127620, Note_on_c, 1, 63, 127
1, 127650, Note_on_c, 1, 60, 127
1, 127679, Note_off_c, 1, 72, 0
1, 127679, Note_off_c, 1, 60, 0
1, 127680, Note_off_c, 1, 67, 0
1, 127680, Note_off_c, 1, 63, 0
1, 127680, Note_on_c, 1, 55, 127
1, 127680, Note_on_c, 1, 43, 127
1, 127680, Note_on_c, 1, 62, 127
1, 127680, Note_on_c, 1, 65, 127
1, 127709, Note_off_c, 1, 62, 0
1, 127709, Note_off_c, 1, 65, 0
1, 127710, Note_on_c, 1, 59, 127
1, 127739, Note_off_c, 1, 55, 0
1, 127739, Note_off_c, 1, 43, 0
1, 127739, Note_off_c, 1, 59, 0
1, 127740, Note_on_c, 1, 48, 127
1, 127740, Note_on_c, 1, 36, 127
1, 127740, Note_on_c, 1, 60, 127
1, 127740, Note_on_c, 1, 63, 127
1, 127769, Note_off_c, 1, 63, 0
1, 127799, Note_off_c, 1, 60, 0
1, 127800, Note_off_c, 1, 48, 0
1, 127800, Note_off_c, 1, 36, 0
1, 127800, Note_on_c, 1, 68, 127
1, 127800, Note_on_c, 1, 65, 127
1, 127800, Note_on_c, 1, 62, 127
1, 127829, Note_off_c, 1, 65, 0
1, 127829, Note_off_c, 1, 62, 0
1, 127830, Note_on_c, 1, 67, 127
1, 127830, Note_on_c, 1, 59, 127
1, 127859, Note_off_c, 1, 68, 0
1, 127859, Note_off_c, 1, 67, 0
1, 127859, Note_off_c, 1, 59, 0
1, 127860, Note_on_c, 1, 68, 127
1, 127860, Note_on_c, 1, 63, 127
1, 127860, Note_on_c, 1, 60, 127
1, 127920, Note_off_c, 1, 68, 0
1, 127920, Note_off_c, 1, 63, 0
1, 127920, Note_off_c, 1, 60, 0
1, 127920, Note_on_c, 1, 47, 127
1, 127920, Note_on_c, 1, 35, 127
1, 127920, Note_on_c, 1, 67, 127
1, 127920, Note_on_c, 1, 62, 127
1, 127949, Note_off_c, 1, 62, 0
1, 127950, Note_on_c, 1, 65, 127
1, 127979, Note_off_c, 1, 65, 0
1, 127980, Note_off_c, 1, 47, 0
1, 127980, Note_off_c, 1, 35, 0
1, 127980, Note_on_c, 1, 48, 127
1, 127980, Note_on_c, 1, 36, 127
1, 128009, Note_off_c, 1, 67, 0
1, 128010, Note_on_c, 1, 69, 127
1, 128039, Note_off_c, 1, 69, 0
1, 128040, Note_off_c, 1, 48, 0
1, 128040, Note_off_c, 1, 36, 0
1, 128040, Note_on_c, 1, 71, 127
1, 128040, Note_on_c, 1, 50, 127
1, 128040, Note_on_c, 1, 38, 127
1, 128069, Note_off_c, 1, 71, 0
1, 128070, Note_on_c, 1, 59, 127
1, 128099, Note_off_c, 1, 59, 0
1, 128100, Note_off_c, 1, 50, 0
1, 128100, Note_off_c, 1, 38, 0
1, 128100, Note_on_c, 1, 72, 127
1, 128100, Note_on_c, 1, 55, 127
1, 128100, Note_on_c, 1, 51, 127
1, 128100, Note_on_c, 1, 39, 127
1, 128160, Note_off_c, 1, 55, 0
1, 128160, Note_off_c, 1, 39, 0
1, 128189, Note_off_c, 1, 51, 0
1, 128249, Note_off_c, 1, 72, 0
1, 128250, Note_on_c, 1, 74, 127
1, 128279, Note_off_c, 1, 74, 0
1, 128280, Note_on_c, 1, 75, 127
1, 128309, Note_off_c, 1, 75, 0
1, 128340, Note_on_c, 1, 77, 127
1, 128340, Note_on_c, 1, 56, 127
1, 128340, Note_on_c, 1, 32, 127
1, 128400, Note_off_c, 1, 77, 0
1, 128400, Note_off_c, 1, 56, 0
1, 128400, Note_off_c, 1, 32, 0
1, 128400, Note_on_c, 1, 44, 127
1, 128460, Note_off_c, 1, 44, 0
1, 128460, Note_on_c, 1, 78, 127
1, 128489, Note_off_c, 1, 78, 0
1, 128490, Note_on_c, 1, 79, 127
1, 128519, Note_off_c, 1, 79, 0
1, 128520, Note_on_c, 1, 43, 127
1, 128520, Note_on_c, 1, 31, 127
1, 128549, Note_off_c, 1, 43, 0
1, 128550, Note_on_c, 1, 45, 127
1, 128579, Note_off_c, 1, 31, 0
1, 128579, Note_off_c, 1, 45, 0
1, 128580, Note_on_c, 1, 79, 127
1, 128580, Note_on_c, 1, 74, 127
1, 128580, Note_on_c, 1, 67, 127
1, 128580, Note_on_c, 1, 47, 127
1, 128580, Note_on_c, 1, 35, 127
1, 128609, Note_off_c, 1, 79, 0
1, 128609, Note_off_c, 1, 74, 0
1, 128609, Note_off_c, 1, 67, 0
1, 128610, Note_on_c, 1, 71, 127
1, 128610, Note_on_c, 1, 65, 127
1, 128639, Note_off_c, 1, 47, 0
1, 128639, Note_off_c, 1, 35, 0
1, 128639, Note_off_c, 1, 71, 0
1, 128639, Note_off_c, 1, 65, 0
1, 128640, Note_on_c, 1, 71, 127
1, 128640, Note_on_c, 1, 67, 127
1, 128640, Note_on_c, 1, 62, 127
1, 128640, Note_on_c, 1, 50, 127
1, 128640, Note_on_c, 1, 38, 127
1, 128669, Note_off_c, 1, 71, 0
1, 128669, Note_off_c, 1, 67, 0
1, 128669, Note_off_c, 1, 62, 0
1, 128670, Note_on_c, 1, 74, 127
1, 128670, Note_on_c, 1, 65, 127
1, 128699, Note_off_c, 1, 50, 0
1, 128699, Note_off_c, 1, 38, 0
1, 128699, Note_off_c, 1, 74, 0
1, 128699, Note_off_c, 1, 65, 0
1, 128700, Note_on_c, 1, 67, 127
1, 128700, Note_on_c, 1, 62, 127
1, 128700, Note_on_c, 1, 59, 127
1, 128700, Note_on_c, 1, 55, 127
1, 128700, Note_on_c, 1, 43, 127
1, 128759, Note_off_c, 1, 67, 0
1, 128759, Note_off_c, 1, 62, 0
1, 128759, Note_off_c, 1, 59, 0
1, 128759, Note_off_c, 1, 55, 0
1, 128759, Note_off_c, 1, 43, 0
1, 128760, Note_on_c, 1, 53, 127
1, 128760, Note_on_c, 1, 41, 127
1, 128760, Note_on_c, 1, 67, 127
1, 128789, Note_off_c, 1, 67, 0
1, 128790, Note_on_c, 1, 68, 127
1, 128819, Note_off_c, 1, 53, 0
1, 128819, Note_off_c, 1, 41, 0
1, 128819, Note_off_c, 1, 68, 0
1, 128820, Note_on_c, 1, 52, 127
1, 128820, Note_on_c, 1, 40, 127
1, 128820, Note_on_c, 1, 70, 127
1, 128879, Note_off_c, 1, 52, 0
1, 128879, Note_off_c, 1, 40, 0
1, 128879, Note_off_c, 1, 70, 0
1, 128880, Note_on_c, 1, 52, 127
1, 128880, Note_on_c, 1, 40, 127
1, 128880, Note_on_c, 1, 73, 127
1, 128880, Note_on_c, 1, 67, 127
1, 128909, Note_off_c, 1, 67, 0
1, 128910, Note_on_c, 1, 68, 127
1, 128939, Note_off_c, 1, 52, 0
1, 128939, Note_off_c, 1, 40, 0
1, 128939, Note_off_c, 1, 68, 0
1, 128940, Note_on_c, 1, 70, 127
1, 128999, Note_off_c, 1, 73, 0
1, 128999, Note_off_c, 1, 70, 0
1, 129000, Note_on_c, 1, 53, 127
1, 129000, Note_on_c, 1, 41, 127
1, 129000, Note_on_c, 1, 72, 127
1, 129000, Note_on_c, 1, 68, 127
1, 129059, Note_off_c, 1, 53, 0
1, 129059, Note_off_c, 1, 41, 0
1, 129059, Note_off_c, 1, 72, 0
1, 129059, Note_off_c, 1, 68, 0
1, 129060, Note_on_c, 1, 58, 127
1, 129060, Note_on_c, 1, 34, 127
1, 129060, Note_on_c, 1, 64, 127
1, 129060, Note_on_c, 1, 73, 127
1, 129119, Note_off_c, 1, 58, 0
1, 129119, Note_off_c, 1, 34, 0
1, 129119, Note_off_c, 1, 64, 0
1, 129119, Note_off_c, 1, 73, 0
1, 129120, Note_on_c, 1, 56, 127
1, 129120, Note_on_c, 1, 32, 127
1, 129120, Note_on_c, 1, 65, 127
1, 129120, Note_on_c, 1, 72, 127
1, 129179, Note_off_c, 1, 56, 0
1, 129179, Note_off_c, 1, 32, 0
1, 129179, Note_off_c, 1, 65, 0
1, 129179, Note_off_c, 1, 72, 0
1, 129180, Note_on_c, 1, 55, 127
1, 129180, Note_on_c, 1, 31, 127
1, 129180, Note_on_c, 1, 70, 127
1, 129180, Note_on_c, 1, 64, 127
1, 129209, Note_off_c, 1, 70, 0
1, 129210, Note_on_c, 1, 67, 127
1, 129239, Note_off_c, 1, 55, 0
1, 129239, Note_off_c, 1, 31, 0
1, 129239, Note_off_c, 1, 64, 0
1, 129239, Note_off_c, 1, 67, 0
1, 129240, Note_on_c, 1, 53, 127
1, 129240, Note_on_c, 1, 29, 127
1, 129240, Note_on_c, 1, 68, 127
1, 129240, Note_on_c, 1, 65, 127
1, 129299, Note_off_c, 1, 53, 0
1, 129299, Note_off_c, 1, 29, 0
1, 129299, Note_off_c, 1, 68, 0
1, 129299, Note_off_c, 1, 65, 0
1, 129300, Note_on_c, 1, 52, 127
1, 129300, Note_on_c, 1, 28, 127
1, 129300, Note_on_c, 1, 70, 127
1, 129329, Note_off_c, 1, 70, 0
1, 129330, Note_on_c, 1, 67, 127
1, 129359, Note_off_c, 1, 52, 0
1, 129359, Note_off_c, 1, 28, 0
1, 129359, Note_off_c, 1, 67, 0
1, 129360, Note_on_c, 1, 68, 127
1, 129360, Note_on_c, 1, 65, 127
1, 129360, Note_on_c, 1, 60, 127
1, 129360, Note_on_c, 1, 53, 127
1, 129360, Note_on_c, 1, 29, 127
1, 129389, Note_off_c, 1, 65, 0
1, 129389, Note_off_c, 1, 60, 0
1, 129390, Note_on_c, 1, 67, 127
1, 129390, Note_on_c, 1, 64, 127
1, 129390, Note_on_c, 1, 58, 127
1, 129419, Note_off_c, 1, 68, 0
1, 129419, Note_off_c, 1, 53, 0
1, 129419, Note_off_c, 1, 29, 0
1, 129419, Note_off_c, 1, 67, 0
1, 129419, Note_off_c, 1, 64, 0
1, 129419, Note_off_c, 1, 58, 0
1, 129420, Note_on_c, 1, 68, 127
1, 129420, Note_on_c, 1, 65, 127
1, 129420, Note_on_c, 1, 60, 127
1, 129420, Note_on_c, 1, 41, 127
1, 129479, Note_off_c, 1, 68, 0
1, 129479, Note_off_c, 1, 65, 0
1, 129479, Note_off_c, 1, 60, 0
1, 129479, Note_off_c, 1, 41, 0
1, 129480, Note_on_c, 1, 53, 127
1, 129480, Note_on_c, 1, 39, 127
1, 129480, Note_on_c, 1, 69, 127
1, 129509, Note_off_c, 1, 69, 0
1, 129510, Note_on_c, 1, 70, 127
1, 129539, Note_off_c, 1, 53, 0
1, 129539, Note_off_c, 1, 39, 0
1, 129539, Note_off_c, 1, 70, 0
1, 129540, Note_on_c, 1, 54, 127
1, 129540, Note_on_c, 1, 38, 127
1, 129540, Note_on_c, 1, 72, 127
1, 129599, Note_off_c, 1, 54, 0
1, 129599, Note_off_c, 1, 38, 0
1, 129599, Note_off_c, 1, 72, 0
1, 129600, Note_on_c, 1, 54, 127
1, 129600, Note_on_c, 1, 30, 127
1, 129600, Note_on_c, 1, 75, 127
1, 129600, Note_on_c, 1, 69, 127
1, 129629, Note_off_c, 1, 69, 0
1, 129630, Note_on_c, 1, 70, 127
1, 129659, Note_off_c, 1, 54, 0
1, 129659, Note_off_c, 1, 30, 0
1, 129659, Note_off_c, 1, 70, 0
1, 129660, Note_on_c, 1, 72, 127
1, 129719, Note_off_c, 1, 75, 0
1, 129719, Note_off_c, 1, 72, 0
1, 129720, Note_on_c, 1, 55, 127
1, 129720, Note_on_c, 1, 31, 127
1, 129720, Note_on_c, 1, 74, 127
1, 129720, Note_on_c, 1, 70, 127
1, 129779, Note_off_c, 1, 55, 0
1, 129779, Note_off_c, 1, 31, 0
1, 129779, Note_off_c, 1, 74, 0
1, 129779, Note_off_c, 1, 70, 0
1, 129780, Note_on_c, 1, 60, 127
1, 129780, Note_on_c, 1, 36, 127
1, 129780, Note_on_c, 1, 66, 127
1, 129780, Note_on_c, 1, 75, 127
1, 129839, Note_off_c, 1, 60, 0
1, 129839, Note_off_c, 1, 36, 0
1, 129839, Note_off_c, 1, 66, 0
1, 129839, Note_off_c, 1, 75, 0
1, 129840, Note_on_c, 1, 58, 127
1, 129840, Note_on_c, 1, 34, 127
1, 129840, Note_on_c, 1, 67, 127
1, 129840, Note_on_c, 1, 74, 127
1, 129899, Note_off_c, 1, 58, 0
1, 129899, Note_off_c, 1, 34, 0
1, 129899, Note_off_c, 1, 67, 0
1, 129899, Note_off_c, 1, 74, 0
1, 129900, Note_on_c, 1, 57, 127
1, 129900, Note_on_c, 1, 33, 127
1, 129900, Note_on_c, 1, 72, 127
1, 129900, Note_on_c, 1, 66, 127
1, 129900, Note_on_c, 1, 56, 127
1, 129929, Note_off_c, 1, 72, 0
1, 129930, Note_on_c, 1, 69, 127
1, 129959, Note_off_c, 1, 57, 0
1, 129959, Note_off_c, 1, 33, 0
1, 129959, Note_off_c, 1, 66, 0
1, 129959, Note_off_c, 1, 56, 0
1, 129959, Note_off_c, 1, 69, 0
1, 129960, Note_on_c, 1, 55, 127
1, 129960, Note_on_c, 1, 31, 127
1, 129960, Note_on_c, 1, 71, 127
1, 129960, Note_on_c, 1, 67, 127
1, 130019, Note_off_c, 1, 55, 0
1, 130019, Note_off_c, 1, 31, 0
1, 130019, Note_off_c, 1, 71, 0
1, 130019, Note_off_c, 1, 67, 0
1, 130020, Note_on_c, 1, 54, 127
1, 130020, Note_on_c, 1, 30, 127
1, 130020, Note_on_c, 1, 72, 127
1, 130049, Note_off_c, 1, 72, 0
1, 130050, Note_on_c, 1, 69, 127
1, 130079, Note_off_c, 1, 54, 0
1, 130079, Note_off_c, 1, 30, 0
1, 130079, Note_off_c, 1, 69, 0
1, 130080, Note_on_c, 1, 71, 127
1, 130080, Note_on_c, 1, 67, 127
1, 130080, Note_on_c, 1, 62, 127
1, 130080, Note_on_c, 1, 55, 127
1, 130080, Note_on_c, 1, 31, 127
1, 130110, Note_off_c, 1, 67, 0
1, 130110, Note_off_c, 1, 62, 0
1, 130110, Note_on_c, 1, 69, 127
1, 130110, Note_on_c, 1, 66, 127
1, 130110, Note_on_c, 1, 60, 127
1, 130139, Note_off_c, 1, 71, 0
1, 130139, Note_off_c, 1, 55, 0
1, 130139, Note_off_c, 1, 31, 0
1, 130140, Note_off_c, 1, 69, 0
1, 130140, Note_off_c, 1, 66, 0
1, 130140, Note_off_c, 1, 60, 0
1, 130140, Note_on_c, 1, 43, 127
1, 130199, Note_off_c, 1, 43, 0
1, 130200, Note_on_c, 1, 79, 127
1, 130200, Note_on_c, 1, 74, 127
1, 130200, Note_on_c, 1, 59, 127
1, 130200, Note_on_c, 1, 55, 127
1, 130200, Note_on_c, 1, 41, 127
1, 130230, Note_off_c, 1, 79, 0
1, 130230, Note_on_c, 1, 78, 127
1, 130259, Note_off_c, 1, 74, 0
1, 130259, Note_off_c, 1, 59, 0
1, 130259, Note_off_c, 1, 55, 0
1, 130259, Note_off_c, 1, 41, 0
1, 130260, Note_off_c, 1, 78, 0
1, 130260, Note_on_c, 1, 72, 127
1, 130260, Note_on_c, 1, 51, 127
1, 130260, Note_on_c, 1, 39, 127
1, 130319, Note_off_c, 1, 72, 0
1, 130319, Note_off_c, 1, 51, 0
1, 130319, Note_off_c, 1, 39, 0
1, 130320, Note_on_c, 1, 48, 127
1, 130320, Note_on_c, 1, 36, 127
1, 130320, Note_on_c, 1, 75, 127
1, 130320, Note_on_c, 1, 79, 127
1, 130349, Note_off_c, 1, 75, 0
1, 130349, Note_off_c, 1, 79, 0
1, 130350, Note_on_c, 1, 72, 127
1, 130350, Note_on_c, 1, 78, 127
1, 130379, Note_off_c, 1, 48, 0
1, 130379, Note_off_c, 1, 36, 0
1, 130379, Note_off_c, 1, 72, 0
1, 130379, Note_off_c, 1, 78, 0
1, 130380, Note_on_c, 1, 74, 127
1, 130380, Note_on_c, 1, 79, 127
1, 130409, Note_off_c, 1, 74, 0
1, 130409, Note_off_c, 1, 79, 0
1, 130410, Note_on_c, 1, 71, 127
1, 130410, Note_on_c, 1, 74, 127
1, 130439, Note_off_c, 1, 71, 0
1, 130439, Note_off_c, 1, 74, 0
1, 130440, Note_on_c, 1, 79, 127
1, 130440, Note_on_c, 1, 75, 127
1, 130440, Note_on_c, 1, 72, 127
1, 130440, Note_on_c, 1, 48, 127
1, 130440, Note_on_c, 1, 36, 127
1, 130469, Note_off_c, 1, 79, 0
1, 130469, Note_off_c, 1, 75, 0
1, 130469, Note_off_c, 1, 72, 0
1, 130470, Note_on_c, 1, 78, 127
1, 130470, Note_on_c, 1, 69, 127
1, 130499, Note_off_c, 1, 48, 0
1, 130499, Note_off_c, 1, 36, 0
1, 130499, Note_off_c, 1, 78, 0
1, 130499, Note_off_c, 1, 69, 0
1, 130500, Note_on_c, 1, 79, 127
1, 130500, Note_on_c, 1, 74, 127
1, 130500, Note_on_c, 1, 71, 127
1, 130500, Note_on_c, 1, 53, 127
1, 130500, Note_on_c, 1, 41, 127
1, 130530, Note_on_c, 1, 67, 127
1, 130559, Note_off_c, 1, 79, 0
1, 130559, Note_off_c, 1, 74, 0
1, 130559, Note_off_c, 1, 71, 0
1, 130559, Note_off_c, 1, 53, 0
1, 130559, Note_off_c, 1, 41, 0
1, 130559, Note_off_c, 1, 67, 0
1, 130560, Note_on_c, 1, 51, 127
1, 130560, Note_on_c, 1, 39, 127
1, 130560, Note_on_c, 1, 71, 127
1, 130560, Note_on_c, 1, 67, 127
1, 130589, Note_off_c, 1, 71, 0
1, 130590, Note_on_c, 1, 74, 127
1, 130619, Note_off_c, 1, 51, 0
1, 130619, Note_off_c, 1, 39, 0
1, 130619, Note_off_c, 1, 67, 0
1, 130619, Note_off_c, 1, 74, 0
1, 130619, Note_on_c, 1, 77, 127
1, 130620, Note_on_c, 1, 50, 127
1, 130620, Note_on_c, 1, 38, 127
1, 130648, Note_off_c, 1, 77, 0
1, 130679, Note_off_c, 1, 50, 0
1, 130679, Note_off_c, 1, 38, 0
1, 130679, Note_on_c, 1, 75, 127
1, 130680, Note_on_c, 1, 79, 127
1, 130680, Note_on_c, 1, 72, 127
1, 130680, Note_on_c, 1, 48, 127
1, 130680, Note_on_c, 1, 36, 127
1, 130709, Note_off_c, 1, 75, 0
1, 130709, Note_off_c, 1, 79, 0
1, 130710, Note_on_c, 1, 78, 127
1, 130739, Note_off_c, 1, 72, 0
1, 130739, Note_off_c, 1, 48, 0
1, 130739, Note_off_c, 1, 36, 0
1, 130739, Note_off_c, 1, 78, 0
1, 130740, Note_on_c, 1, 47, 127
1, 130740, Note_on_c, 1, 35, 127
1, 130799, Note_off_c, 1, 47, 0
1, 130799, Note_off_c, 1, 35, 0
1, 130800, Note_on_c, 1, 43, 127
1, 130800, Note_on_c, 1, 31, 127
1, 130829, Note_on_c, 1, 69, 127
1, 130858, Note_off_c, 1, 69, 0
1, 130859, Note_off_c, 1, 43, 0
1, 130859, Note_off_c, 1, 31, 0
1, 130860, Note_on_c, 1, 55, 127
1, 130919, Note_off_c, 1, 55, 0
1, 130999, Note_on_c, 1, 73, 127
1, 131018, Note_off_c, 1, 73, 0
1, 131040, Note_on_c, 1, 68, 127
1, 131040, Note_on_c, 1, 65, 127
1, 131040, Note_on_c, 1, 53, 127
1, 131040, Note_on_c, 1, 41, 127
1, 131070, Note_off_c, 1, 68, 0
1, 131070, Note_off_c, 1, 65, 0
1, 131099, Note_off_c, 1, 53, 0
1, 131099, Note_off_c, 1, 41, 0
1, 131160, Note_on_c, 1, 60, 127
1, 131160, Note_on_c, 1, 27, 127
1, 131160, Note_on_c, 1, 63, 127
1, 131190, Note_off_c, 1, 60, 0
1, 131219, Note_off_c, 1, 27, 0
1, 131219, Note_off_c, 1, 63, 0
1, 131220, Note_on_c, 1, 26, 127
1, 131220, Note_on_c, 1, 62, 127
1, 131249, Note_on_c, 1, 80, 127
1, 131278, Note_off_c, 1, 80, 0
1, 131279, Note_off_c, 1, 26, 0
1, 131279, Note_off_c, 1, 62, 0
1, 131429, Note_on_c, 1, 59, 127
1, 131458, Note_off_c, 1, 59, 0
1, 131460, Note_on_c, 1, 55, 127
1, 131460, Note_on_c, 1, 43, 127
1, 131519, Note_off_c, 1, 43, 0
1, 131520, Note_off_c, 1, 55, 0
1, 131520, Note_on_c, 1, 62, 127
1, 131520, Note_on_c, 1, 71, 127
1, 131539, Note_off_c, 1, 62, 0
1, 131539, Note_off_c, 1, 71, 0
1, 131540, Note_on_c, 1, 63, 127
1, 131540, Note_on_c, 1, 72, 127
1, 131559, Note_off_c, 1, 63, 0
1, 131559, Note_off_c, 1, 72, 0
1, 131560, Note_on_c, 1, 65, 127
1, 131560, Note_on_c, 1, 74, 127
1, 131579, Note_off_c, 1, 65, 0
1, 131579, Note_off_c, 1, 74, 0
1, 131580, Note_on_c, 1, 65, 127
1, 131580, Note_on_c, 1, 74, 127
1, 131599, Note_off_c, 1, 65, 0
1, 131599, Note_off_c, 1, 74, 0
1, 131600, Note_on_c, 1, 67, 127
1, 131600, Note_on_c, 1, 75, 127
1, 131619, Note_off_c, 1, 67, 0
1, 131619, Note_off_c, 1, 75, 0
1, 131620, Note_on_c, 1, 69, 127
1, 131620, Note_on_c, 1, 77, 127
1, 131639, Note_off_c, 1, 69, 0
1, 131639, Note_off_c, 1, 77, 0
1, 131640, Note_on_c, 1, 69, 127
1, 131640, Note_on_c, 1, 77, 127
1, 131659, Note_off_c, 1, 69, 0
1, 131659, Note_off_c, 1, 77, 0
1, 131660, Note_on_c, 1, 71, 127
1, 131660, Note_on_c, 1, 75, 127
1, 131679, Note_off_c, 1, 71, 0
1, 131679, Note_off_c, 1, 75, 0
1, 131680, Note_on_c, 1, 72, 127
1, 131680, Note_on_c, 1, 74, 127
1, 131699, Note_off_c, 1, 72, 0
1, 131699, Note_off_c, 1, 74, 0
1, 131700, Note_on_c, 1, 72, 127
1, 131700, Note_on_c, 1, 63, 127
1, 131700, Note_on_c, 1, 67, 127
1, 131700, Note_on_c, 1, 43, 127
1, 131700, Note_on_c, 1, 31, 127
1, 131700, Note_on_c, 1, 75, 127
1, 131730, Note_on_c, 1, 48, 127
1, 131759, Note_off_c, 1, 72, 0
1, 131759, Note_off_c, 1, 63, 0
1, 131759, Note_off_c, 1, 67, 0
1, 131759, Note_off_c, 1, 43, 0
1, 131759, Note_off_c, 1, 31, 0
1, 131759, Note_off_c, 1, 75, 0
1, 131760, Note_on_c, 1, 51, 127
1, 131789, Note_off_c, 1, 48, 0
1, 131790, Note_on_c, 1, 60, 127
1, 131790, Note_on_c, 1, 55, 127
1, 131819, Note_off_c, 1, 51, 0
1, 131819, Note_off_c, 1, 60, 0
1, 131879, Note_off_c, 1, 55, 0
1, 131880, Note_on_c, 1, 63, 127
1, 131880, Note_on_c, 1, 72, 127
1, 131899, Note_off_c, 1, 63, 0
1, 131899, Note_off_c, 1, 72, 0
1, 131900, Note_on_c, 1, 65, 127
1, 131900, Note_on_c, 1, 74, 127
1, 131919, Note_off_c, 1, 65, 0
1, 131919, Note_off_c, 1, 74, 0
1, 131920, Note_on_c, 1, 67, 127
1, 131920, Note_on_c, 1, 75, 127
1, 131939, Note_off_c, 1, 67, 0
1, 131939, Note_off_c, 1, 75, 0
1, 131940, Note_on_c, 1, 67, 127
1, 131940, Note_on_c, 1, 75, 127
1, 131959, Note_off_c, 1, 67, 0
1, 131959, Note_off_c, 1, 75, 0
1, 131960, Note_on_c, 1, 69, 127
1, 131960, Note_on_c, 1, 77, 127
1, 131979, Note_off_c, 1, 69, 0
1, 131979, Note_off_c, 1, 77, 0
1, 131980, Note_on_c, 1, 71, 127
1, 131980, Note_on_c, 1, 79, 127
1, 131999, Note_off_c, 1, 71, 0
1, 131999, Note_off_c, 1, 79, 0
1, 132000, Note_on_c, 1, 71, 127
1, 132000, Note_on_c, 1, 79, 127
1, 132019, Note_off_c, 1, 71, 0
1, 132019, Note_off_c, 1, 79, 0
1, 132020, Note_on_c, 1, 72, 127
1, 132020, Note_on_c, 1, 77, 127
1, 132039, Note_off_c, 1, 72, 0
1, 132039, Note_off_c, 1, 77, 0
1, 132040, Note_on_c, 1, 74, 127
1, 132040, Note_on_c, 1, 75, 127
1, 132059, Note_off_c, 1, 74, 0
1, 132059, Note_off_c, 1, 75, 0
1, 132060, Note_on_c, 1, 74, 127
1, 132060, Note_on_c, 1, 71, 127
1, 132060, Note_on_c, 1, 67, 127
1, 132060, Note_on_c, 1, 43, 127
1, 132060, Note_on_c, 1, 31, 127
1, 132060, Note_on_c, 1, 77, 127
1, 132090, Note_on_c, 1, 47, 127
1, 132119, Note_off_c, 1, 74, 0
1, 132119, Note_off_c, 1, 71, 0
1, 132119, Note_off_c, 1, 67, 0
1, 132119, Note_off_c, 1, 43, 0
1, 132119, Note_off_c, 1, 31, 0
1, 132119, Note_off_c, 1, 77, 0
1, 132120, Note_on_c, 1, 65, 127
1, 132120, Note_on_c, 1, 50, 127
1, 132149, Note_off_c, 1, 47, 0
1, 132149, Note_off_c, 1, 65, 0
1, 132150, Note_on_c, 1, 62, 127
1, 132150, Note_on_c, 1, 55, 127
1, 132179, Note_off_c, 1, 50, 0
1, 132179, Note_off_c, 1, 62, 0
1, 132239, Note_off_c, 1, 55, 0
1, 132240, Note_on_c, 1, 67, 127
1, 132240, Note_on_c, 1, 59, 127
1, 132259, Note_off_c, 1, 67, 0
1, 132259, Note_off_c, 1, 59, 0
1, 132260, Note_on_c, 1, 69, 127
1, 132260, Note_on_c, 1, 60, 127
1, 132279, Note_off_c, 1, 69, 0
1, 132279, Note_off_c, 1, 60, 0
1, 132280, Note_on_c, 1, 71, 127
1, 132280, Note_on_c, 1, 62, 127
1, 132299, Note_off_c, 1, 71, 0
1, 132299, Note_off_c, 1, 62, 0
1, 132300, Note_on_c, 1, 71, 127
1, 132300, Note_on_c, 1, 62, 127
1, 132319, Note_off_c, 1, 71, 0
1, 132319, Note_off_c, 1, 62, 0
1, 132320, Note_on_c, 1, 72, 127
1, 132320, Note_on_c, 1, 63, 127
1, 132339, Note_off_c, 1, 72, 0
1, 132339, Note_off_c, 1, 63, 0
1, 132340, Note_on_c, 1, 74, 127
1, 132340, Note_on_c, 1, 65, 127
1, 132359, Note_off_c, 1, 74, 0
1, 132359, Note_off_c, 1, 65, 0
1, 132360, Note_on_c, 1, 74, 127
1, 132360, Note_on_c, 1, 65, 127
1, 132379, Note_off_c, 1, 74, 0
1, 132379, Note_off_c, 1, 65, 0
1, 132380, Note_on_c, 1, 75, 127
1, 132380, Note_on_c, 1, 63, 127
1, 132399, Note_off_c, 1, 75, 0
1, 132399, Note_off_c, 1, 63, 0
1, 132400, Note_on_c, 1, 77, 127
1, 132400, Note_on_c, 1, 62, 127
1, 132419, Note_off_c, 1, 77, 0
1, 132419, Note_off_c, 1, 62, 0
1, 132420, Note_on_c, 1, 75, 127
1, 132420, Note_on_c, 1, 72, 127
1, 132420, Note_on_c, 1, 67, 127
1, 132420, Note_on_c, 1, 48, 127
1, 132420, Note_on_c, 1, 36, 127
1, 132420, Note_on_c, 1, 60, 127
1, 132449, Note_off_c, 1, 75, 0
1, 132449, Note_off_c, 1, 60, 0
1, 132450, Note_on_c, 1, 63, 127
1, 132479, Note_off_c, 1, 63, 0
1, 132480, Note_on_c, 1, 65, 127
1, 132480, Note_on_c, 1, 71, 127
1, 132480, Note_on_c, 1, 62, 127
1, 132509, Note_off_c, 1, 65, 0
1, 132509, Note_off_c, 1, 71, 0
1, 132509, Note_off_c, 1, 62, 0
1, 132540, Note_off_c, 1, 72, 0
1, 132540, Note_off_c, 1, 67, 0
1, 132540, Note_off_c, 1, 48, 0
1, 132540, Note_off_c, 1, 36, 0
1, 132540, Note_on_c, 1, 68, 127
1, 132540, Note_on_c, 1, 73, 127
1, 132569, Note_off_c, 1, 68, 0
1, 132569, Note_off_c, 1, 73, 0
1, 132570, Note_on_c, 1, 67, 127
1, 132570, Note_on_c, 1, 72, 127
1, 132570, Note_on_c, 1, 63, 127
1, 132599, Note_off_c, 1, 67, 0
1, 132599, Note_off_c, 1, 72, 0
1, 132599, Note_off_c, 1, 63, 0
1, 132600, Note_on_c, 1, 65, 127
1, 132600, Note_on_c, 1, 60, 127
1, 132600, Note_on_c, 1, 48, 127
1, 132600, Note_on_c, 1, 36, 127
1, 132600, Note_on_c, 1, 71, 127
1, 132600, Note_on_c, 1, 62, 127
1, 132629, Note_off_c, 1, 65, 0
1, 132629, Note_off_c, 1, 71, 0
1, 132629, Note_off_c, 1, 62, 0
1, 132630, Note_on_c, 1, 67, 127
1, 132630, Note_on_c, 1, 72, 127
1, 132630, Note_on_c, 1, 63, 127
1, 132659, Note_off_c, 1, 67, 0
1, 132659, Note_off_c, 1, 72, 0
1, 132659, Note_off_c, 1, 63, 0
1, 132660, Note_off_c, 1, 48, 0
1, 132660, Note_off_c, 1, 36, 0
1, 132660, Note_on_c, 1, 68, 127
1, 132660, Note_on_c, 1, 53, 127
1, 132660, Note_on_c, 1, 41, 127
1, 132689, Note_off_c, 1, 68, 0
1, 132720, Note_off_c, 1, 53, 0
1, 132720, Note_off_c, 1, 41, 0
1, 132720, Note_on_c, 1, 50, 127
1, 132720, Note_on_c, 1, 38, 127
1, 132780, Note_off_c, 1, 50, 0
1, 132780, Note_off_c, 1, 38, 0
1, 132780, Note_on_c, 1, 51, 127
1, 132780, Note_on_c, 1, 39, 127
1, 132900, Note_off_c, 1, 51, 0
1, 132900, Note_off_c, 1, 39, 0
1, 132900, Note_on_c, 1, 75, 127
1, 132929, Note_off_c, 1, 60, 0
1, 132929, Note_off_c, 1, 75, 0
1, 132930, Note_on_c, 1, 67, 127
1, 132930, Note_on_c, 1, 72, 127
1, 132930, Note_on_c, 1, 63, 127
1, 132959, Note_off_c, 1, 67, 0
1, 132959, Note_off_c, 1, 72, 0
1, 132959, Note_off_c, 1, 63, 0
1, 132960, Note_on_c, 1, 65, 127
1, 132960, Note_on_c, 1, 60, 127
1, 132960, Note_on_c, 1, 48, 127
1, 132960, Note_on_c, 1, 36, 127
1, 132960, Note_on_c, 1, 71, 127
1, 132960, Note_on_c, 1, 62, 127
1, 132989, Note_off_c, 1, 65, 0
1, 132989, Note_off_c, 1, 71, 0
1, 132989, Note_off_c, 1, 62, 0
1, 132990, Note_on_c, 1, 67, 127
1, 132990, Note_on_c, 1, 72, 127
1, 132990, Note_on_c, 1, 63, 127
1, 133019, Note_off_c, 1, 67, 0
1, 133019, Note_off_c, 1, 72, 0
1, 133019, Note_off_c, 1, 63, 0
1, 133020, Note_off_c, 1, 48, 0
1, 133020, Note_off_c, 1, 36, 0
1, 133020, Note_on_c, 1, 51, 127
1, 133020, Note_on_c, 1, 39, 127
1, 133040, Note_on_c, 1, 70, 127
1, 133059, Note_off_c, 1, 70, 0
1, 133080, Note_off_c, 1, 51, 0
1, 133080, Note_off_c, 1, 39, 0
1, 133140, Note_on_c, 1, 50, 127
1, 133140, Note_on_c, 1, 38, 127
1, 133170, Note_on_c, 1, 68, 127
1, 133199, Note_off_c, 1, 68, 0
1, 133260, Note_off_c, 1, 60, 0
1, 133260, Note_off_c, 1, 50, 0
1, 133260, Note_off_c, 1, 38, 0
1, 133260, Note_on_c, 1, 80, 127
1, 133289, Note_off_c, 1, 80, 0
1, 133290, Note_on_c, 1, 63, 127
1, 133290, Note_on_c, 1, 72, 127
1, 133290, Note_on_c, 1, 68, 127
1, 133319, Note_off_c, 1, 63, 0
1, 133319, Note_off_c, 1, 72, 0
1, 133319, Note_off_c, 1, 68, 0
1, 133320, Note_on_c, 1, 62, 127
1, 133320, Note_on_c, 1, 56, 127
1, 133320, Note_on_c, 1, 53, 127
1, 133320, Note_on_c, 1, 41, 127
1, 133320, Note_on_c, 1, 71, 127
1, 133320, Note_on_c, 1, 67, 127
1, 133349, Note_off_c, 1, 71, 0
1, 133349, Note_off_c, 1, 67, 0
1, 133350, Note_on_c, 1, 63, 127
1, 133350, Note_on_c, 1, 72, 127
1, 133350, Note_on_c, 1, 68, 127
1, 133379, Note_off_c, 1, 63, 0
1, 133379, Note_off_c, 1, 72, 0
1, 133379, Note_off_c, 1, 68, 0
1, 133380, Note_off_c, 1, 62, 0
1, 133380, Note_off_c, 1, 56, 0
1, 133380, Note_off_c, 1, 53, 0
1, 133380, Note_off_c, 1, 41, 0
1, 133380, Note_on_c, 1, 65, 127
1, 133380, Note_on_c, 1, 59, 127
1, 133380, Note_on_c, 1, 50, 127
1, 133380, Note_on_c, 1, 43, 127
1, 133380, Note_on_c, 1, 31, 127
1, 133409, Note_off_c, 1, 65, 0
1, 133440, Note_off_c, 1, 59, 0
1, 133440, Note_off_c, 1, 50, 0
1, 133440, Note_off_c, 1, 43, 0
1, 133440, Note_off_c, 1, 31, 0
1, 133440, Note_on_c, 1, 55, 127
1, 133440, Note_on_c, 1, 47, 127
1, 133440, Note_on_c, 1, 35, 127
1, 133500, Note_off_c, 1, 47, 0
1, 133500, Note_off_c, 1, 35, 0
1, 133500, Note_on_c, 1, 60, 127
1, 133500, Note_on_c, 1, 48, 127
1, 133500, Note_on_c, 1, 36, 127
1, 133530, Note_off_c, 1, 36, 0
1, 133560, Note_off_c, 1, 55, 0
1, 133560, Note_off_c, 1, 48, 0
1, 133560, Note_on_c, 1, 58, 127
1, 133560, Note_on_c, 1, 46, 127
1, 133590, Note_off_c, 1, 58, 0
1, 133590, Note_off_c, 1, 46, 0
1, 133590, Note_on_c, 1, 44, 127
1, 133620, Note_off_c, 1, 60, 0
1, 133620, Note_off_c, 1, 44, 0
1, 133680, Note_on_c, 1, 75, 127
1, 133680, Note_on_c, 1, 51, 127
1, 133680, Note_on_c, 1, 39, 127
1, 133710, Note_off_c, 1, 51, 0
1, 133710, Note_off_c, 1, 39, 0
1, 133710, Note_on_c, 1, 38, 127
1, 133740, Note_off_c, 1, 75, 0
1, 133740, Note_off_c, 1, 38, 0
1, 133740, Note_on_c, 1, 79, 127
1, 133740, Note_on_c, 1, 74, 127
1, 133740, Note_on_c, 1, 69, 127
1, 133755, Note_off_c, 1, 79, 0
1, 133755, Note_on_c, 1, 78, 127
1, 133770, Note_off_c, 1, 78, 0
1, 133800, Note_off_c, 1, 74, 0
1, 133830, Note_on_c, 1, 76, 127
1, 133845, Note_off_c, 1, 76, 0
1, 133860, Note_off_c, 1, 69, 0
1, 133920, Note_on_c, 1, 45, 127
1, 133920, Note_on_c, 1, 33, 127
1, 133950, Note_off_c, 1, 45, 0
1, 133950, Note_off_c, 1, 33, 0
1, 134280, Note_on_c, 1, 24, 127
1, 134700, Note_off_c, 1, 24, 0
1, 134700, End_track
0, 0, End_of_file